<?xml version="1.0" encoding="UTF-8" standalone="no"?>
<svg
   xmlns:dc="http://purl.org/dc/elements/1.1/"
   xmlns:cc="http://creativecommons.org/ns#"
   xmlns:rdf="http://www.w3.org/1999/02/22-rdf-syntax-ns#"
   xmlns:svg="http://www.w3.org/2000/svg"
   xmlns="http://www.w3.org/2000/svg"
   xml:space="preserve"
   enable-background="new 0 0 183 179.781"
   viewBox="0 0 280.00001 199.99999"
   height="200"
   width="280"
   y="0px"
   x="0px"
   id="Layer_1"
   version="1.1"><metadata
     id="metadata289"><rdf:RDF><cc:Work
         rdf:about=""><dc:format>image/svg+xml</dc:format><dc:type
           rdf:resource="http://purl.org/dc/dcmitype/StillImage" /><dc:title></dc:title></cc:Work></rdf:RDF></metadata><defs
     id="defs287" /><g
     transform="matrix(1.1291141,0,0,1.1291141,40.476825,-1.4960566)"
     id="g3"><path
       style="clip-rule:evenodd;fill-rule:evenodd"
       id="path5"
       d="m 92.771,56.625 c 33.551,0 60.914,27.365 60.914,60.914 0,33.551 -27.363,60.916 -60.914,60.916 -33.551,0 -60.915,-27.365 -60.915,-60.915 0,-33.55 27.365,-60.915 60.915,-60.915 l 0,0 z" /><path
       style="clip-rule:evenodd;fill:#aabac2;fill-rule:evenodd"
       id="path7"
       d="m 32.707,117.54 c 0,-33.119 26.945,-60.063 60.065,-60.063 33.12,0 60.064,26.945 60.064,60.063 0,33.121 -26.944,60.064 -60.064,60.064 -33.12,0 -60.065,-26.943 -60.065,-60.064 l 0,0 z" /><path
       style="clip-rule:evenodd;fill-rule:evenodd"
       id="path9"
       d="m 40.927,117.54 c 0,28.588 23.257,51.846 51.845,51.846 28.587,0 51.845,-23.258 51.845,-51.846 0,-28.586 -23.258,-51.843 -51.845,-51.843 C 64.184,65.696 40.927,88.954 40.927,117.54 l 0,0 z" /><path
       style="clip-rule:evenodd;fill:#ffffff;fill-rule:evenodd"
       id="path11"
       d="m 41.78,117.54 c 0,-28.116 22.875,-50.99 50.991,-50.99 28.116,0 50.99,22.874 50.99,50.99 0,28.117 -22.874,50.992 -50.99,50.992 -28.116,0 -50.991,-22.875 -50.991,-50.992 l 0,0 z" /><path
       style="clip-rule:evenodd;fill-rule:evenodd"
       id="path13"
       d="m 44.624,117.54 c 0,26.549 21.599,48.148 48.148,48.148 26.549,0 48.147,-21.6 48.147,-48.148 0,-26.548 -21.599,-48.147 -48.148,-48.147 -26.549,0 -48.147,21.598 -48.147,48.147 l 0,0 z" /><path
       style="clip-rule:evenodd;fill:#ffffff;fill-rule:evenodd"
       id="path15"
       d="m 45.524,117.54 c 0,-26.051 21.195,-47.246 47.247,-47.246 26.052,0 47.246,21.195 47.246,47.246 0,26.053 -21.194,47.246 -47.246,47.246 -26.052,0 -47.247,-21.194 -47.247,-47.246 l 0,0 z" /><path
       style="clip-rule:evenodd;fill-rule:evenodd"
       id="path17"
       d="m 140.061,117.93 c 0.001,-0.131 0.005,-0.26 0.005,-0.391 0,-0.154 -0.005,-0.309 -0.006,-0.463 l -43.299,0 42.459,-8.447 c -0.054,-0.279 -0.109,-0.559 -0.167,-0.838 l -42.125,8.381 39.659,-16.43 c -0.108,-0.264 -0.217,-0.525 -0.329,-0.787 l -39.662,16.428 35.668,-23.832 c -0.157,-0.238 -0.315,-0.475 -0.476,-0.709 L 96.12,114.674 126.436,84.359 c -0.2,-0.203 -0.401,-0.404 -0.605,-0.603 L 95.518,114.07 119.332,78.429 c -0.235,-0.161 -0.473,-0.317 -0.711,-0.473 l -23.814,35.641 15.499,-37.418 -0.788,-0.327 -15.497,37.418 7.071,-35.554 -0.837,-0.167 -6.931,34.842 0,-36.72 -1.137,0 0,36.72 -7.163,-36.005 -0.837,0.167 7.304,36.717 L 75.607,74.923 74.818,75.25 90.703,113.598 66.899,77.972 c -0.239,0.155 -0.476,0.313 -0.71,0.473 L 89.994,114.071 59.695,83.772 c -0.204,0.199 -0.406,0.4 -0.605,0.603 l 30.3,30.299 -35.645,-23.816 c -0.161,0.234 -0.319,0.471 -0.476,0.707 l 35.648,23.82 -39.638,-16.418 c -0.112,0.26 -0.22,0.523 -0.328,0.787 l 39.636,16.418 -42.099,-8.375 c -0.059,0.279 -0.113,0.559 -0.167,0.84 l 42.428,8.439 -43.266,0 c -10e-4,0.154 -0.007,0.309 -0.007,0.463 0,0.131 0.005,0.26 0.006,0.391 l 42.599,0 -41.798,8.314 c 0.053,0.281 0.104,0.561 0.162,0.84 l 42.14,-8.383 -39.706,16.447 c 0.106,0.264 0.213,0.527 0.323,0.791 l 39.712,-16.449 -35.74,23.881 c 0.156,0.236 0.313,0.475 0.472,0.711 L 89.389,120.197 58.988,150.6 c 0.199,0.205 0.399,0.406 0.603,0.605 l 30.404,-30.404 -23.9,35.77 c 0.234,0.16 0.471,0.318 0.709,0.475 l 23.9,-35.77 -16.473,39.77 c 0.261,0.111 0.524,0.221 0.788,0.326 l 17.738,-42.82 17.742,42.832 c 0.263,-0.107 0.526,-0.215 0.788,-0.326 l -16.478,-39.779 23.909,35.783 c 0.238,-0.156 0.475,-0.314 0.709,-0.475 l -23.91,-35.783 30.42,30.418 c 0.202,-0.199 0.403,-0.4 0.603,-0.604 l -30.418,-30.42 35.765,23.898 c 0.16,-0.234 0.316,-0.473 0.473,-0.711 l -35.765,-23.896 39.741,16.461 c 0.11,-0.262 0.217,-0.525 0.323,-0.789 l -39.734,-16.459 42.172,8.389 c 0.058,-0.279 0.109,-0.559 0.162,-0.84 l -41.83,-8.32 42.632,0 0,-10e-4 z" /><path
       style="clip-rule:evenodd;fill:#009248;fill-rule:evenodd"
       id="path19"
       d="m 69.521,65.045 c -3.195,-0.785 -5.901,-1.152 -7.708,-0.917 -5.41,0.706 -11.9,3.375 -18.608,6.612 -4.301,2.076 -9.641,4.789 -20.316,11.089 l 9.943,0.749 -1.039,8.306 c 5.89,-3.858 13.771,-9.268 21.051,-12.387 3.075,-1.317 6.042,-2.225 8.707,-2.436 2.011,-0.158 3.717,0.356 5.703,0.856 8.663,2.181 17.003,4.645 25.519,4.645 l 0,-12.214 c -8.081,0 -16.673,-2.69 -23.252,-4.303 l 0,0 z" /><path
       style="clip-rule:evenodd;fill-rule:evenodd"
       id="path21"
       d="m 129.608,87.333 c -12.606,4.734 -25.346,7.236 -36.84,7.236 -11.494,0 -24.233,-2.502 -36.841,-7.236 l -0.478,-0.179 -0.092,0.502 c -6.433,35.093 6.064,65.533 37.144,90.474 l 0.267,0.215 0.267,-0.215 c 31.081,-24.941 43.577,-55.381 37.144,-90.474 l -0.092,-0.502 -0.479,0.179 0,0 z" /><path
       style="clip-rule:evenodd;fill:#ffffff;fill-rule:evenodd"
       id="path23"
       d="m 92.769,95.422 c 11.447,0 24.108,-2.467 36.65,-7.118 1.024,5.737 1.545,11.352 1.545,16.834 0,27.434 -12.802,51.623 -38.195,72.102 -25.393,-20.479 -38.196,-44.668 -38.196,-72.102 0,-5.482 0.521,-11.098 1.545,-16.834 12.542,4.652 25.204,7.118 36.651,7.118 l 0,0 z" /><path
       style="clip-rule:evenodd;fill:#ee3124;fill-rule:evenodd"
       id="path25"
       d="m 92.769,172.877 0,-73.087 c -11.923,0 -22.61,-1.941 -33.425,-5.623 -4.047,31.125 8.458,56.048 33.425,78.71 l 0,0 z" /><path
       style="clip-rule:evenodd;fill:#fdb913;fill-rule:evenodd"
       id="path27"
       d="m 92.743,108.967 c 11.476,0 20.835,9.359 20.835,20.836 0,11.477 -9.359,20.836 -20.835,20.836 -11.476,0 -20.836,-9.359 -20.836,-20.836 0,-11.477 9.36,-20.836 20.836,-20.836 l 0,0 z" /><path
       style="clip-rule:evenodd;fill-rule:evenodd"
       id="path29"
       d="m 71.479,129.803 c 0,11.725 9.539,21.264 21.264,21.264 11.724,0 21.263,-9.539 21.263,-21.264 0,-11.725 -9.539,-21.264 -21.263,-21.264 -11.725,0.001 -21.264,9.54 -21.264,21.264 l 0,0 z m 0.855,0 c 0,-11.254 9.156,-20.408 20.409,-20.408 11.253,0 20.407,9.154 20.407,20.408 0,11.254 -9.154,20.408 -20.407,20.408 -11.253,0 -20.409,-9.154 -20.409,-20.408 l 0,0 z" /><path
       style="clip-rule:evenodd;fill-rule:evenodd"
       id="path31"
       d="m 71.52,129.403 c 1.268,2.371 3.439,4.705 6.278,6.754 l 0.5,-0.693 c -2.734,-1.973 -4.818,-4.207 -6.025,-6.463 l -0.753,0.402 0,0 z" /><path
       style="clip-rule:evenodd;fill-rule:evenodd"
       id="path33"
       d="m 81.551,133.381 0.65,-0.553 c -4.786,-5.633 -3.732,-15.199 2.398,-21.777 l -0.625,-0.584 c -6.42,6.893 -7.485,16.955 -2.423,22.914 l 0,0 z" /><path
       style="clip-rule:evenodd;fill-rule:evenodd"
       id="path35"
       d="m 91.044,120.846 0.817,-0.248 c -1.571,-5.158 -0.02,-8.395 5.185,-10.826 l -0.361,-0.773 c -5.601,2.617 -7.34,6.269 -5.641,11.847 l 0,0 z" /><path
       style="clip-rule:evenodd;fill-rule:evenodd"
       id="path37"
       d="m 101.932,128.756 c 4.892,5.07 5.98,13.064 2.429,17.818 l 0.684,0.512 c 3.856,-5.162 2.76,-13.473 -2.498,-18.924 l -0.615,0.594 0,0 z" /><path
       style="clip-rule:evenodd;fill-rule:evenodd"
       id="path39"
       d="m 106.684,123.512 c 3.622,2.992 5.708,7.582 5.58,12.273 l 0.854,0.023 c 0.137,-4.953 -2.065,-9.797 -5.889,-12.955 l -0.545,0.659 0,0 z" /><path
       style="clip-rule:evenodd;fill-rule:evenodd"
       id="path41"
       d="m 95.226,134.19 c 3.453,6.41 2.91,12.971 -1.321,15.953 l 0.492,0.697 c 4.597,-3.238 5.247,-10.252 1.581,-17.057 l -0.752,0.407 0,0 z" /><path
       style="clip-rule:evenodd;fill-rule:evenodd"
       id="path43"
       d="m 87.257,144.262 -0.127,0.846 c 3.765,0.566 8.868,-1.146 10.909,-5.438 l -0.771,-0.367 c -1.865,3.922 -6.55,5.483 -10.011,4.959 l 0,0 z" /><path
       style="clip-rule:evenodd;fill-rule:evenodd"
       id="path45"
       d="m 126.021,93.772 c -4.528,1.543 -8.867,2.727 -13.26,3.619 l -0.126,0.027 -45.164,45.023 0.152,0.279 c 2.342,4.34 5.175,8.682 8.417,12.904 l 0.296,0.385 50.997,-50.838 -0.002,-0.18 c -0.021,-3.559 -0.272,-7.215 -0.748,-10.871 l -0.067,-0.518 -0.495,0.17 0,0 z" /><path
       style="clip-rule:evenodd;fill:#0095da;fill-rule:evenodd"
       id="path47"
       d="m 125.786,94.745 c 0.422,3.393 0.657,6.777 0.685,10.08 -0.261,0.26 -49.354,49.201 -50.043,49.889 -3.022,-3.975 -5.678,-8.049 -7.897,-12.123 0.456,-0.453 44.355,-44.217 44.529,-44.391 4.217,-0.864 8.391,-2 12.726,-3.455 l 0,0 z" /><path
       style="clip-rule:evenodd;fill:#fdb913;fill-rule:evenodd"
       id="path49"
       d="m 78.159,146.774 1.19,-1.189 c 0.466,0.424 0.959,0.639 1.483,0.643 0.525,0.004 0.997,-0.201 1.412,-0.617 0.458,-0.457 0.69,-0.955 0.699,-1.494 0.009,-0.541 -0.207,-1.033 -0.652,-1.477 -0.388,-0.389 -0.791,-0.59 -1.204,-0.6 -0.414,-0.014 -1.034,0.213 -1.861,0.67 -0.04,0.023 -0.112,0.068 -0.211,0.127 -0.958,0.576 -1.83,0.816 -2.614,0.719 -0.349,-0.039 -0.671,-0.125 -0.966,-0.266 -0.297,-0.143 -0.567,-0.334 -0.814,-0.582 -0.736,-0.736 -1.098,-1.563 -1.086,-2.482 0.014,-0.918 0.396,-1.756 1.152,-2.512 0.7,-0.701 1.468,-1.063 2.304,-1.086 0.838,-0.025 1.634,0.293 2.388,0.957 l -1.24,1.24 c -0.363,-0.322 -0.761,-0.475 -1.196,-0.463 -0.437,0.014 -0.823,0.191 -1.164,0.533 -0.365,0.365 -0.545,0.777 -0.539,1.238 0.006,0.465 0.193,0.881 0.562,1.25 0.131,0.131 0.273,0.23 0.429,0.303 0.157,0.072 0.326,0.113 0.513,0.123 0.381,0.021 0.941,-0.193 1.677,-0.639 0.339,-0.205 0.608,-0.357 0.8,-0.459 0.817,-0.393 1.584,-0.541 2.302,-0.449 0.716,0.092 1.357,0.42 1.925,0.988 0.829,0.828 1.245,1.748 1.248,2.76 0.004,1.01 -0.41,1.93 -1.239,2.76 -0.781,0.781 -1.659,1.172 -2.634,1.176 -0.973,0.002 -1.862,-0.387 -2.664,-1.172 l 0,0 z m 14.07,-9.119 -1.258,1.258 -1.45,-1.449 1.259,-1.26 1.449,1.451 0,0 z m 9.659,-9.66 -4.329,4.33 -8.583,-8.582 1.328,-1.328 7.397,7.398 3.002,-3.004 1.185,1.186 0,0 z m 6.06,-6.059 -1.26,1.26 -1.45,-1.451 1.259,-1.26 1.451,1.451 0,0 z m 1.656,-11.633 0.422,-0.42 c 0.685,-0.686 1.075,-1.27 1.171,-1.754 0.096,-0.488 -0.077,-0.953 -0.525,-1.402 -0.396,-0.396 -0.823,-0.557 -1.279,-0.484 -0.455,0.074 -0.953,0.383 -1.499,0.928 l -0.711,0.711 2.421,2.421 0,0 z m 3.814,3.842 1.044,-1.045 c 0.614,-0.613 0.958,-1.172 1.033,-1.678 0.077,-0.502 -0.111,-0.979 -0.561,-1.428 -0.486,-0.486 -1.005,-0.703 -1.56,-0.652 -0.555,0.051 -1.126,0.369 -1.714,0.957 l -1.044,1.045 2.802,2.801 0,0 z m -6.755,-8.092 c 0.978,-0.977 1.92,-1.516 2.829,-1.625 0.907,-0.105 1.745,0.223 2.511,0.99 0.354,0.354 0.582,0.75 0.688,1.188 0.106,0.436 0.089,0.9 -0.052,1.395 0.571,-0.322 1.167,-0.436 1.785,-0.336 0.618,0.098 1.176,0.393 1.671,0.889 0.4,0.4 0.697,0.855 0.89,1.367 0.191,0.512 0.264,1.023 0.214,1.537 -0.056,0.498 -0.212,0.967 -0.468,1.412 -0.255,0.445 -0.703,0.986 -1.341,1.623 l -2.113,2.113 -8.583,-8.582 1.969,-1.971 0,0 z m 18.228,-1.06 -1.259,1.258 -1.45,-1.449 1.259,-1.26 1.45,1.451 0,0 z" /><path
       style="clip-rule:evenodd;fill-rule:evenodd"
       id="path51"
       d="m 126.056,93.762 c -11.222,3.822 -21.799,5.602 -33.287,5.602 -11.488,0 -22.065,-1.779 -33.288,-5.602 L 58.988,93.594 58.92,94.11 c -3.857,29.672 6.807,54.799 33.562,79.084 l 0.287,0.26 0.287,-0.26 c 26.754,-24.285 37.419,-49.412 33.562,-79.084 l -0.067,-0.516 -0.495,0.168 0,0 z m -67.045,11.836 c 0,-3.555 0.247,-7.178 0.706,-10.863 11.123,3.73 21.643,5.482 33.052,5.482 11.409,0 21.929,-1.752 33.052,-5.482 0.459,3.686 0.706,7.309 0.706,10.863 0,24.428 -10.924,45.869 -33.758,66.693 C 69.935,151.467 59.011,130.026 59.011,105.598 l 0,0 z" /><path
       style="clip-rule:evenodd;fill:#ee3124;fill-rule:evenodd"
       id="path53"
       d="m 162.654,81.829 c -10.676,-6.3 -16.015,-9.013 -20.316,-11.089 -6.708,-3.237 -13.198,-5.906 -18.608,-6.612 -1.807,-0.235 -4.513,0.132 -7.709,0.917 -6.578,1.613 -15.17,4.302 -23.249,4.302 l 0,12.214 c 8.516,0 16.855,-2.464 25.519,-4.645 1.985,-0.5 3.691,-1.014 5.703,-0.856 2.664,0.21 5.631,1.119 8.705,2.436 7.28,3.119 15.162,8.529 21.052,12.387 l -1.039,-8.306 9.942,-0.748 0,0 z" /><path
       style="clip-rule:evenodd;fill-rule:evenodd"
       id="path55"
       d="m 115.919,64.631 -3.686,0.941 c -6.034,1.57 -12.873,3.349 -19.462,3.349 -6.59,0 -13.429,-1.779 -19.462,-3.349 l -3.687,-0.941 c -3.445,-0.845 -6.091,-1.156 -7.866,-0.926 -4.696,0.612 -10.475,2.663 -18.738,6.651 -4.057,1.958 -9.309,4.591 -20.348,11.105 l -1.17,0.691 c 0,0 10.035,0.755 10.851,0.816 -0.1,0.797 -1.098,8.779 -1.098,8.779 l 2.829,-1.861 c 5.569,-3.674 12.501,-8.245 18.929,-10.999 3.277,-1.403 6.161,-2.212 8.571,-2.402 1.732,-0.137 3.227,0.246 4.957,0.689 l 3.902,0.996 c 7.634,1.962 14.844,3.816 22.33,3.816 7.484,0 14.695,-1.854 22.329,-3.816 l 3.902,-0.996 c 1.729,-0.443 3.224,-0.826 4.956,-0.689 2.411,0.19 5.295,0.999 8.571,2.402 6.428,2.753 13.359,7.325 18.93,10.999 l 2.83,1.861 c 0,0 -1,-7.982 -1.101,-8.779 0.816,-0.061 10.853,-0.816 10.853,-0.816 l -1.171,-0.691 c -11.038,-6.514 -16.291,-9.148 -20.348,-11.105 -8.265,-3.988 -14.044,-6.039 -18.738,-6.651 -1.774,-0.23 -4.421,0.081 -7.865,0.926 l 0,0 z m -3.472,1.767 3.675,-0.938 c 3.342,-0.82 5.883,-1.125 7.553,-0.908 4.601,0.6 10.3,2.626 18.479,6.573 3.892,1.879 8.907,4.394 19.108,10.381 -2.027,0.153 -9.029,0.68 -9.029,0.68 0,0 0.798,6.38 0.979,7.833 -0.602,-0.396 -1.283,-0.844 -1.283,-0.844 -5.598,-3.692 -12.563,-8.286 -19.063,-11.069 -3.409,-1.461 -6.301,-2.269 -8.84,-2.468 -1.874,-0.148 -3.506,0.27 -5.235,0.713 l -3.903,0.996 c -7.58,1.948 -14.739,3.789 -22.116,3.789 -7.377,0 -14.537,-1.841 -22.117,-3.789 l -3.903,-0.996 c -1.729,-0.443 -3.361,-0.861 -5.235,-0.713 -2.539,0.2 -5.431,1.007 -8.841,2.468 -6.498,2.783 -13.464,7.378 -19.063,11.069 0,0 -0.68,0.448 -1.282,0.844 0.182,-1.453 0.98,-7.833 0.98,-7.833 0,0 -7.002,-0.527 -9.029,-0.68 10.202,-5.988 15.216,-8.503 19.108,-10.381 8.178,-3.946 13.877,-5.973 18.478,-6.573 1.669,-0.217 4.21,0.088 7.552,0.908 l 3.675,0.938 c 6.083,1.583 12.978,3.376 19.677,3.376 6.699,0 13.592,-1.794 19.675,-3.376 l 0,0 z" /><path
       style="clip-rule:evenodd;fill-rule:evenodd"
       id="path57"
       d="m 134.239,75.703 -1.122,-0.453 0.511,-2.007 c 0.037,-0.141 0.081,-0.297 0.131,-0.468 0.052,-0.17 0.11,-0.355 0.177,-0.554 -0.103,0.174 -0.252,0.385 -0.446,0.63 -0.041,0.051 -0.072,0.089 -0.092,0.113 l -1.431,1.821 -0.8,-0.323 0.236,-2.304 c 0.003,-0.031 0.007,-0.079 0.016,-0.144 0.027,-0.313 0.066,-0.566 0.115,-0.761 -0.08,0.162 -0.161,0.32 -0.241,0.477 -0.083,0.157 -0.168,0.312 -0.256,0.466 l -1.026,1.798 -1.115,-0.451 2.457,-4.126 1.187,0.479 -0.252,2.538 c -0.002,0.017 -0.005,0.047 -0.008,0.087 -0.02,0.228 -0.05,0.417 -0.093,0.568 0.039,-0.075 0.09,-0.156 0.15,-0.243 0.06,-0.085 0.136,-0.188 0.229,-0.307 l 1.585,-1.993 1.19,0.481 -1.102,4.676 0,0 z m -10.908,-7.99 1.278,0.18 -0.322,2.286 c -0.047,0.336 -0.071,0.579 -0.076,0.728 -0.003,0.148 0.009,0.275 0.036,0.379 0.031,0.126 0.105,0.231 0.218,0.312 0.113,0.079 0.258,0.132 0.433,0.156 0.176,0.025 0.328,0.014 0.459,-0.031 0.129,-0.047 0.229,-0.126 0.296,-0.239 0.055,-0.092 0.101,-0.211 0.139,-0.354 0.037,-0.144 0.08,-0.384 0.127,-0.721 l 0.046,-0.321 0.275,-1.964 1.274,0.179 -0.35,2.484 c -0.072,0.516 -0.156,0.892 -0.253,1.128 -0.098,0.236 -0.23,0.43 -0.403,0.583 -0.187,0.167 -0.428,0.28 -0.721,0.336 -0.294,0.056 -0.641,0.055 -1.041,-0.001 -0.402,-0.057 -0.736,-0.152 -1.002,-0.287 -0.267,-0.134 -0.468,-0.309 -0.603,-0.521 -0.121,-0.195 -0.196,-0.417 -0.226,-0.672 -0.028,-0.254 -0.006,-0.639 0.066,-1.153 l 0.068,-0.489 0.282,-1.998 0,0 z m -7.515,6.428 -1.229,-4.584 1.206,-0.323 2.363,1.894 c 0.046,0.039 0.126,0.121 0.242,0.245 0.115,0.125 0.245,0.275 0.39,0.451 -0.075,-0.183 -0.139,-0.347 -0.19,-0.492 -0.051,-0.145 -0.092,-0.275 -0.122,-0.39 l -0.606,-2.264 1.198,-0.321 1.229,4.584 -1.199,0.32 -2.366,-1.903 c -0.049,-0.039 -0.13,-0.12 -0.246,-0.245 -0.114,-0.125 -0.242,-0.273 -0.385,-0.445 0.076,0.186 0.141,0.351 0.191,0.496 0.052,0.145 0.092,0.274 0.123,0.39 l 0.606,2.264 -1.205,0.323 0,0 z m -7.647,-2.917 1.246,-0.334 0.597,2.229 c 0.089,0.328 0.16,0.561 0.214,0.7 0.055,0.138 0.115,0.25 0.183,0.335 0.077,0.104 0.186,0.171 0.321,0.201 0.135,0.029 0.289,0.021 0.459,-0.024 0.172,-0.046 0.308,-0.116 0.41,-0.208 0.1,-0.093 0.161,-0.206 0.179,-0.335 0.015,-0.107 0.01,-0.234 -0.011,-0.381 -0.022,-0.147 -0.076,-0.385 -0.164,-0.713 l -0.084,-0.313 -0.514,-1.917 1.243,-0.333 0.649,2.424 c 0.135,0.502 0.204,0.881 0.207,1.137 0.004,0.256 -0.044,0.486 -0.143,0.695 -0.106,0.227 -0.285,0.424 -0.532,0.59 -0.249,0.166 -0.568,0.301 -0.959,0.406 -0.393,0.104 -0.736,0.147 -1.034,0.128 -0.298,-0.02 -0.551,-0.102 -0.759,-0.245 -0.188,-0.132 -0.344,-0.308 -0.47,-0.531 -0.125,-0.223 -0.256,-0.585 -0.391,-1.088 l -0.127,-0.477 -0.52,-1.946 0,0 z m -8.088,4.865 c 0.228,0.181 0.443,0.309 0.646,0.382 0.203,0.074 0.396,0.095 0.579,0.063 0.17,-0.03 0.302,-0.101 0.395,-0.211 0.095,-0.111 0.129,-0.236 0.104,-0.376 -0.027,-0.156 -0.095,-0.268 -0.205,-0.335 -0.109,-0.067 -0.34,-0.117 -0.688,-0.147 -0.479,-0.042 -0.832,-0.147 -1.056,-0.311 -0.225,-0.164 -0.368,-0.419 -0.428,-0.764 -0.079,-0.446 0.006,-0.837 0.256,-1.173 0.249,-0.335 0.611,-0.543 1.088,-0.628 0.258,-0.045 0.509,-0.054 0.752,-0.026 0.243,0.029 0.479,0.095 0.711,0.2 l -0.237,0.986 c -0.166,-0.097 -0.331,-0.165 -0.495,-0.201 -0.163,-0.036 -0.318,-0.041 -0.467,-0.014 -0.154,0.027 -0.272,0.086 -0.354,0.176 -0.084,0.09 -0.114,0.193 -0.095,0.308 0.021,0.118 0.08,0.204 0.176,0.259 0.097,0.056 0.271,0.094 0.522,0.115 0.016,0.002 0.036,0.004 0.061,0.006 0.544,0.048 0.912,0.143 1.105,0.282 0.131,0.096 0.239,0.218 0.326,0.37 0.086,0.149 0.146,0.323 0.18,0.518 0.088,0.496 -0.005,0.924 -0.277,1.282 -0.272,0.359 -0.68,0.586 -1.222,0.682 -0.326,0.058 -0.633,0.054 -0.92,-0.009 -0.286,-0.064 -0.573,-0.192 -0.862,-0.385 l 0.405,-1.049 0,0 z m -6.819,-2.668 1.287,-0.09 0.16,2.302 c 0.024,0.339 0.051,0.582 0.077,0.728 0.028,0.146 0.065,0.267 0.114,0.363 0.057,0.117 0.15,0.204 0.277,0.259 0.127,0.055 0.279,0.076 0.456,0.063 0.177,-0.013 0.323,-0.055 0.441,-0.126 0.117,-0.073 0.198,-0.171 0.24,-0.295 0.035,-0.103 0.055,-0.229 0.063,-0.376 0.006,-0.149 -0.002,-0.393 -0.025,-0.731 l -0.023,-0.323 -0.138,-1.979 1.283,-0.089 0.176,2.503 c 0.035,0.52 0.032,0.904 -0.014,1.156 -0.046,0.252 -0.136,0.469 -0.272,0.655 -0.147,0.202 -0.36,0.361 -0.637,0.478 -0.274,0.116 -0.615,0.188 -1.018,0.215 -0.405,0.029 -0.752,0.005 -1.04,-0.071 -0.288,-0.076 -0.521,-0.206 -0.698,-0.385 -0.159,-0.166 -0.278,-0.368 -0.359,-0.61 -0.081,-0.243 -0.139,-0.624 -0.176,-1.143 l -0.034,-0.492 -0.14,-2.012 0,0 z" /><path
       style="clip-rule:evenodd;fill-rule:evenodd"
       id="path59"
       d="m 51.591,75.601 -1.854,-4.368 2.677,-1.137 0.406,0.958 -1.515,0.644 0.321,0.757 1.429,-0.606 0.398,0.937 -1.429,0.606 0.313,0.737 1.516,-0.643 0.416,0.979 -2.678,1.136 0,0 z m 10.055,-2.983 -1.212,0.042 -0.166,-4.743 1.351,-0.047 c 0.529,-0.019 0.902,-0.006 1.119,0.039 0.215,0.044 0.399,0.127 0.553,0.248 0.18,0.137 0.32,0.313 0.419,0.528 0.1,0.214 0.153,0.454 0.164,0.719 0.009,0.283 -0.027,0.534 -0.111,0.751 -0.083,0.22 -0.21,0.4 -0.383,0.544 -0.13,0.108 -0.286,0.188 -0.465,0.24 -0.179,0.052 -0.47,0.085 -0.869,0.099 l -0.22,0.008 -0.233,0.008 0.053,1.564 0,0 z m -0.092,-2.607 0.247,-0.009 c 0.311,-0.011 0.526,-0.062 0.646,-0.151 0.12,-0.089 0.177,-0.236 0.17,-0.442 -0.007,-0.199 -0.073,-0.338 -0.196,-0.418 -0.124,-0.08 -0.339,-0.114 -0.646,-0.103 l -0.258,0.009 0.037,1.114 0,0 z m 4.485,3.13 1.228,-4.584 1.25,0.335 -0.941,3.513 1.553,0.417 -0.287,1.071 -2.803,-0.752 0,0 z m 6.013,-3.33 1.246,0.333 -0.598,2.23 c -0.088,0.328 -0.143,0.566 -0.165,0.713 -0.021,0.147 -0.025,0.274 -0.01,0.381 0.016,0.129 0.076,0.241 0.178,0.335 0.103,0.092 0.24,0.163 0.411,0.208 0.171,0.045 0.323,0.053 0.458,0.024 0.134,-0.031 0.243,-0.098 0.323,-0.201 0.067,-0.085 0.126,-0.198 0.182,-0.335 0.055,-0.139 0.126,-0.372 0.214,-0.7 l 0.083,-0.313 0.513,-1.917 1.244,0.333 -0.65,2.424 c -0.134,0.503 -0.264,0.866 -0.389,1.089 -0.125,0.223 -0.281,0.399 -0.471,0.53 -0.206,0.143 -0.459,0.225 -0.756,0.245 -0.298,0.02 -0.643,-0.023 -1.033,-0.128 -0.392,-0.105 -0.713,-0.24 -0.96,-0.406 -0.248,-0.167 -0.426,-0.364 -0.535,-0.591 -0.097,-0.208 -0.144,-0.438 -0.142,-0.694 0.003,-0.256 0.071,-0.635 0.206,-1.138 l 0.128,-0.477 0.523,-1.945 0,0 z m 5.129,6.168 1.067,-4.624 1.318,0.304 c 0.515,0.119 0.87,0.226 1.062,0.32 0.191,0.094 0.35,0.214 0.471,0.36 0.137,0.164 0.228,0.356 0.272,0.571 0.044,0.217 0.039,0.443 -0.015,0.679 -0.083,0.358 -0.238,0.629 -0.465,0.813 -0.227,0.184 -0.518,0.273 -0.872,0.269 l 0.829,2.155 -1.424,-0.329 -0.643,-2.055 -0.418,1.81 -1.182,-0.273 0,0 z m 1.745,-2.166 0.234,0.054 c 0.271,0.063 0.481,0.063 0.627,-0.001 0.146,-0.063 0.242,-0.195 0.288,-0.392 0.053,-0.232 0.034,-0.41 -0.062,-0.536 -0.094,-0.125 -0.278,-0.219 -0.555,-0.283 l -0.252,-0.058 -0.28,1.216 0,0 z m 3.894,3.34 0.824,-4.674 1.287,0.227 -0.824,4.674 -1.287,-0.227 0,0 z" /><path
       style="clip-rule:evenodd;fill:#009248;fill-rule:evenodd"
       id="path61"
       d="m 61.772,68.839 -0.306,0.011 0.042,1.209 0.293,-0.01 c 0.323,-0.011 0.543,-0.063 0.673,-0.161 0.133,-0.099 0.196,-0.261 0.188,-0.481 -0.007,-0.214 -0.08,-0.367 -0.217,-0.457 -0.133,-0.085 -0.353,-0.122 -0.673,-0.111 l 0,0 z m 0.004,0.095 c 0.295,-0.01 0.503,0.022 0.618,0.096 0.111,0.072 0.168,0.196 0.174,0.38 0,0.011 0.001,0.022 0.001,0.033 0,0.171 -0.051,0.295 -0.151,0.37 -0.112,0.083 -0.32,0.131 -0.619,0.141 0,0 -0.137,0.005 -0.199,0.008 -0.003,-0.083 -0.033,-0.937 -0.036,-1.02 0.064,-0.003 0.212,-0.008 0.212,-0.008 l 0,0 z" /><path
       style="clip-rule:evenodd;fill:#009248;fill-rule:evenodd"
       id="path63"
       d="m 79.161,72.586 -0.292,1.262 0.28,0.064 c 0.285,0.065 0.5,0.064 0.657,-0.004 0.16,-0.07 0.266,-0.213 0.315,-0.425 0.057,-0.246 0.033,-0.439 -0.07,-0.575 -0.101,-0.135 -0.292,-0.233 -0.582,-0.3 l -0.298,-0.068 -0.01,0.046 0,0 z m 0.081,0.067 c 0.062,0.014 0.206,0.047 0.206,0.047 0.264,0.061 0.442,0.15 0.528,0.265 0.054,0.071 0.081,0.165 0.081,0.278 0,0.066 -0.009,0.139 -0.027,0.219 -0.042,0.181 -0.13,0.303 -0.262,0.359 -0.136,0.059 -0.336,0.059 -0.597,-0.001 0,0 -0.128,-0.03 -0.188,-0.043 0.018,-0.083 0.24,-1.042 0.259,-1.124 l 0,0 z" /><path
       style="clip-rule:evenodd;fill-rule:evenodd"
       id="path65"
       d="m 82.976,41.983 0,0.051 0.051,0 c 0.329,0 1.156,-0.45 1.886,-0.848 0.43,-0.234 0.835,-0.455 1.028,-0.519 l -0.032,-0.098 c -0.2,0.067 -0.592,0.28 -1.044,0.526 -0.653,0.355 -1.446,0.783 -1.78,0.821 0.014,-1.396 0.441,-2.242 1.681,-3.304 l -0.067,-0.079 c -1.289,1.107 -1.723,1.976 -1.723,3.45 l 0,0 z" /><path
       style="clip-rule:evenodd;fill:#fdb913;fill-rule:evenodd"
       id="path67"
       d="m 114.265,42.066 c -0.94,0.333 -1.96,0.116 -2.507,-0.969 -1.003,0.871 -2.234,0.993 -3.864,0.353 l -6.745,-9.178 1.026,-9.281 c 1.709,0.874 3.613,1.051 4.4,0.969 5.088,-0.529 0.813,-4.409 8.178,-7.76 2.633,-4.856 6.91,-6.509 9.361,-6.992 12.2,-2.407 28.267,-1.132 40.796,-1.236 l 16.033,-0.134 c -0.99,2.442 -4.423,3.97 -7.899,4.735 -0.922,2.23 -2.099,3.469 -4.911,4.612 -0.179,0.886 -0.834,3.472 -7.048,5.67 -1.321,3.592 -7.741,6.195 -13.524,7.279 -1.452,2.879 -6.554,3.787 -9.024,3.42 -0.223,0.796 -2.008,1.789 -2.707,1.71 0.121,0.326 0.247,1.738 -1.513,1.374 0.342,1.12 0.11,1.743 -0.401,2.063 -0.529,0.33 -1.357,0.337 -2.166,0.233 -0.164,0.674 -0.727,0.928 -1.376,0.953 -0.737,0.028 -1.587,-0.239 -2.102,-0.524 0.013,0.94 -0.621,1.234 -1.48,1.173 -0.969,-0.069 -2.072,-0.565 -2.494,-1.026 -0.161,1.013 -1.083,1.429 -2.063,1.472 -0.671,0.03 -1.369,-0.115 -1.87,-0.362 -0.069,0.809 -0.779,1.115 -1.378,1.125 -1.146,0.021 -2.525,-1.033 -2.761,-1.72 -0.314,0.977 -1.106,1.738 -1.961,2.041 l 0,0 z" /><path
       style="clip-rule:evenodd;fill-rule:evenodd"
       id="path69"
       d="m 124.022,8.742 c -1.923,0.379 -6.676,1.839 -9.599,7.094 -3.965,1.846 -4.655,3.905 -5.15,5.415 -0.428,1.303 -0.664,2.021 -2.748,2.237 -0.75,0.078 -2.536,-0.103 -4.134,-0.92 l -0.613,-0.313 -1.122,10.149 6.937,9.438 0.127,0.05 c 1.563,0.614 2.831,0.526 3.896,-0.161 0.65,0.858 1.697,1.176 2.807,0.783 0.776,-0.275 1.448,-0.842 1.887,-1.553 0.648,0.678 1.726,1.277 2.685,1.26 0.678,-0.013 1.367,-0.34 1.673,-1 0.498,0.159 1.048,0.259 1.587,0.236 1.074,-0.048 1.868,-0.479 2.263,-1.18 0.62,0.383 1.48,0.677 2.241,0.731 0.667,0.048 1.183,-0.094 1.532,-0.424 0.157,-0.149 0.271,-0.333 0.347,-0.544 0.526,0.195 1.164,0.342 1.754,0.32 0.803,-0.03 1.366,-0.366 1.657,-0.931 0.921,0.077 1.629,-0.021 2.118,-0.326 0.392,-0.245 0.785,-0.697 0.785,-1.525 0,-0.127 -0.016,-0.269 -0.035,-0.416 0.571,-0.021 0.915,-0.246 1.107,-0.47 0.256,-0.299 0.343,-0.684 0.343,-1.021 0,-10e-4 0,-10e-4 0,-10e-4 0.845,-0.208 1.995,-0.878 2.458,-1.624 2.597,0.255 7.36,-0.642 9.015,-3.485 5.366,-1.035 11.995,-3.549 13.595,-7.333 4.107,-1.486 6.482,-3.402 7.086,-5.696 2.566,-1.08 3.882,-2.312 4.859,-4.553 2.572,-0.591 6.797,-1.986 8.005,-4.964 l 0.268,-0.659 -16.745,0.139 C 161.575,7.523 158.035,7.454 154.289,7.381 144.318,7.188 133.021,6.967 124.022,8.742 l 0,0 z m -17.398,15.691 c 2.696,-0.281 3.111,-1.546 3.552,-2.886 0.472,-1.437 1.059,-3.224 4.774,-4.915 l 0.145,-0.066 0.076,-0.14 c 2.723,-5.022 7.226,-6.396 9.035,-6.753 8.897,-1.755 19.657,-1.545 30.063,-1.341 3.754,0.073 7.299,0.142 10.646,0.114 0,0 13.784,-0.115 15.231,-0.127 -1.092,1.648 -3.651,3.008 -7.203,3.79 l -0.242,0.054 -0.096,0.229 c -0.913,2.213 -2.088,3.312 -4.65,4.354 l -0.236,0.096 -0.051,0.25 c -0.424,2.096 -2.692,3.885 -6.74,5.317 l -0.21,0.075 -0.077,0.209 c -1.229,3.345 -7.5,5.914 -13.167,6.977 l -0.231,0.043 -0.105,0.209 c -1.364,2.706 -6.278,3.499 -8.529,3.164 l -0.415,-0.062 -0.112,0.403 c -0.15,0.538 -1.686,1.424 -2.196,1.366 l -0.768,-0.087 0.269,0.724 c 0.034,0.093 0.076,0.463 -0.08,0.645 -0.18,0.209 -0.636,0.151 -0.892,0.099 l -0.783,-0.162 0.233,0.766 c 0.357,1.174 -0.062,1.436 -0.199,1.522 -0.244,0.153 -0.764,0.305 -1.853,0.165 l -0.422,-0.055 -0.101,0.413 c -0.037,0.154 -0.138,0.561 -0.934,0.591 -0.651,0.025 -1.418,-0.223 -1.853,-0.464 l -0.716,-0.396 0.011,0.818 c 0.004,0.245 -0.05,0.421 -0.159,0.524 -0.144,0.135 -0.432,0.195 -0.813,0.167 -0.869,-0.062 -1.846,-0.51 -2.178,-0.873 l -0.664,-0.726 -0.155,0.972 c -0.141,0.877 -1.072,1.048 -1.616,1.072 -0.567,0.025 -1.196,-0.095 -1.639,-0.313 l -0.623,-0.307 -0.061,0.692 c -0.054,0.627 -0.712,0.688 -0.913,0.691 -0.974,0.017 -2.142,-0.928 -2.303,-1.399 l -0.465,-1.357 -0.437,1.366 c -0.251,0.786 -0.905,1.467 -1.667,1.737 -0.396,0.14 -1.377,0.35 -1.923,-0.734 l -0.274,-0.544 -0.461,0.399 c -0.852,0.739 -1.866,0.827 -3.262,0.307 -0.174,-0.237 -6.335,-8.62 -6.545,-8.905 0.037,-0.329 0.817,-7.389 0.937,-8.464 1.612,0.671 3.256,0.838 4.047,0.756 l 0,0 z" /><path
       style="clip-rule:evenodd;fill:#fdb913;fill-rule:evenodd"
       id="path71"
       d="m 78.725,39.463 c -0.894,0.374 -1.611,0.541 -2.294,0.515 -0.683,-0.026 -1.288,-0.244 -1.869,-0.643 -0.657,1.158 -1.652,1.659 -2.591,1.654 -1.064,-0.006 -1.948,-0.707 -2.405,-1.751 -0.626,0.931 -1.974,2.491 -3.385,2.474 -0.553,-0.006 -1.018,-0.362 -1.244,-1.323 -0.54,0.266 -1.265,0.511 -1.9,0.559 -0.818,0.063 -1.489,-0.2 -1.43,-1.159 -0.751,0.465 -1.908,0.904 -2.756,0.907 -0.749,0.003 -1.257,-0.332 -1.033,-1.286 -0.178,0.193 -1.375,0.817 -2.299,0.719 -0.484,-0.051 -0.892,-0.302 -1.04,-0.916 -0.796,0.103 -1.681,-0.088 -2.343,-0.537 -0.663,-0.449 -1.104,-1.155 -1.012,-2.084 -2.327,0.528 -2.386,-1.278 -2.266,-1.604 -0.758,-0.172 -1.995,-0.638 -2.326,-1.434 -2.983,-0.078 -6.856,-0.247 -8.928,-2.828 0,0 0.073,-0.215 -0.049,-0.22 -4.718,-0.203 -11.416,-2.638 -12.737,-6.23 -5.59,-2.095 -7.345,-4.368 -7.836,-5.513 -3.044,-1.028 -5.551,-2.158 -6.21,-4.52 C 7.11,13.663 2.797,11.116 1.991,8.487 L 19.509,8.389 c 12.529,-0.07 28.595,-1.403 40.796,1.004 2.451,0.483 7.609,3.203 10.242,8.059 4.536,0.105 5.914,7.412 9.425,7.477 1.266,0.024 3.25,-1.184 4.861,-4.166 -0.684,0.201 -1.346,0.29 -1.976,0.285 -0.591,-0.005 -1.152,-0.094 -1.671,-0.252 2.837,-1.282 2.666,-3.485 2.718,-4.402 -0.659,0.293 -1.788,0.378 -2.654,0.096 0.533,-0.691 1.075,-2.078 0.816,-3.035 -0.773,0.66 -1.354,0.955 -2.139,1.12 0.046,-0.821 -0.041,-1.521 -0.337,-2.19 -1.299,-2.934 -5.508,-1.961 -5.424,-5.109 0.518,0.583 1.253,1.059 2.086,1.059 0.437,0 0.872,-0.154 1.258,-0.54 C 77.712,7.543 77.796,7.243 77.798,6.936 77.8,6.488 77.626,6.025 77.376,5.678 76.7,4.738 75.728,4.453 74.751,4.483 c -1.49,0.045 -2.993,0.82 -3.485,1.118 0.193,-2.593 2.555,-3.793 4.7,-3.799 1.25,-0.003 2.635,0.459 3.296,1.277 1.453,-1.031 3.002,-1.104 4.976,-0.066 2.206,1.159 7.238,2.533 9.67,1.892 -0.54,1.227 -2.007,1.653 -2.706,1.841 1.807,-0.021 3.572,0.187 4.903,0.609 -1.01,0.476 -1.865,1.059 -2.738,1.536 1.563,0.139 3.083,0.215 4.372,0.86 -1.055,0.246 -1.704,0.671 -1.871,1.225 0.775,0.718 2.164,0.714 3.555,1.097 1.307,0.36 2.615,1.063 3.421,3.029 -0.788,0 -1.601,0.105 -2.284,0.421 1.803,1.426 3.069,2.82 3.527,4.055 -0.823,0.038 -1.561,0.192 -2.238,0.518 1.549,1.183 2.919,2.403 3.73,3.733 -0.939,0.114 -1.878,0.303 -2.816,0.566 1.532,1.101 2.681,2.351 3.274,3.601 -0.613,-0.134 -1.375,-0.206 -1.988,-0.141 1.67,1.611 3.042,3.407 3.523,5.068 -0.604,-0.235 -1.272,-0.371 -1.974,-0.457 0.431,1.259 0.72,2.519 0.805,3.777 2.637,1.975 4.125,4.135 3.898,7.619 -0.646,-0.349 -1.293,-0.574 -1.94,-0.675 0.955,1.673 0.895,3.282 0.267,5.204 -0.479,-0.595 -0.981,-1.015 -1.51,-1.262 0.003,2.057 -0.286,3.755 -0.927,5.021 l -0.742,-1.225 c -0.908,1.958 -2.794,4.35 -4.515,3.796 -1.506,1.507 -2.801,1.929 -5.177,3.009 -0.342,-0.378 -0.841,-0.701 -1.294,-1.052 -0.656,0.563 -1.166,1.164 -1.688,1.956 -0.457,-0.633 -0.962,-1.196 -1.536,-1.655 l -1.887,0.702 C 85.293,54.903 81.567,54.167 81.99,50.2 c -0.486,0.173 -0.918,0.64 -1.462,1.162 -0.456,-1.319 -0.488,-3.615 -0.235,-5.61 -0.749,0.107 -1.079,0.197 -1.74,0.538 -0.045,-0.753 -0.083,-2.474 0.859,-4.367 -1.013,0.256 -1.251,0.644 -1.78,1.128 -0.004,-1.314 0.405,-2.593 1.093,-3.588 l 0,0 z" /><path
       style="clip-rule:evenodd;fill-rule:evenodd"
       id="path73"
       d="M 75.961,1.325 C 73.622,1.331 71.005,2.661 70.789,5.564 L 70.72,6.481 71.507,6.005 c 0.615,-0.372 1.995,-1.012 3.254,-1.05 0.993,-0.03 1.721,0.296 2.226,0.999 0.209,0.292 0.334,0.657 0.333,0.977 -10e-4,0.224 -0.064,0.414 -0.185,0.565 -0.235,0.23 -0.536,0.362 -0.887,0.362 -0.811,0 -1.433,-0.564 -1.73,-0.899 l -0.797,-0.898 -0.032,1.2 c -0.054,2.012 1.433,2.642 2.746,3.197 1.078,0.456 2.192,0.928 2.719,2.117 0.25,0.565 0.342,1.173 0.297,1.971 l -0.035,0.619 0.606,-0.127 c 0.589,-0.124 1.082,-0.332 1.59,-0.66 -0.095,0.647 -0.392,1.369 -0.74,1.82 l -0.412,0.533 0.64,0.208 c 0.687,0.222 1.557,0.245 2.298,0.093 -0.065,1.008 -0.367,2.406 -2.41,3.329 l -1.15,0.519 1.207,0.368 c 0.577,0.175 1.184,0.268 1.807,0.273 0.337,0.002 0.677,-0.024 1.019,-0.072 -1.359,2.09 -2.885,3.022 -3.891,3.003 C 78.571,24.426 77.459,22.894 76.281,21.273 74.889,19.358 73.311,17.217 70.828,17.01 68.19,12.343 63.174,9.473 60.396,8.926 51.104,7.092 39.433,7.42 29.135,7.71 25.743,7.805 22.541,7.896 19.506,7.912 L 1.349,8.016 1.536,8.626 c 0.872,2.845 5.239,5.363 8.89,6.027 0.855,2.428 3.505,3.569 6.219,4.495 0.61,1.246 2.424,3.438 7.821,5.497 1.584,3.738 8.21,6.018 12.713,6.311 0.023,0.03 0.052,0.068 0.052,0.068 2.197,2.738 6.232,2.922 9.025,2.997 0.486,0.74 1.477,1.14 2.1,1.324 0.014,0.377 0.129,0.832 0.449,1.197 0.3,0.343 0.877,0.668 1.864,0.582 0.083,0.782 0.484,1.463 1.198,1.946 0.646,0.438 1.482,0.663 2.297,0.638 0.246,0.509 0.689,0.829 1.301,0.894 0.621,0.066 1.329,-0.139 1.878,-0.382 0.044,0.164 0.109,0.315 0.212,0.443 0.27,0.34 0.706,0.511 1.294,0.509 0.751,-0.004 1.659,-0.298 2.385,-0.645 0.069,0.177 0.168,0.333 0.302,0.465 0.342,0.337 0.858,0.482 1.534,0.43 0.474,-0.036 1.027,-0.199 1.565,-0.409 0.404,0.995 1.114,1.169 1.537,1.174 1.426,0.018 2.668,-1.241 3.349,-2.096 0.595,0.855 1.459,1.368 2.444,1.373 1.084,0.006 2.051,-0.561 2.739,-1.526 0.544,0.296 1.103,0.492 1.706,0.514 0.422,0.016 0.858,-0.041 1.328,-0.158 -0.374,0.857 -0.586,1.798 -0.586,2.752 l 0,1.11 1.061,-1.014 c 0.106,-0.104 0.203,-0.193 0.302,-0.278 -0.299,0.905 -0.459,1.855 -0.459,2.849 0,0.198 0.006,0.398 0.018,0.599 l 0.043,0.727 0.647,-0.333 c 0.404,-0.208 0.668,-0.307 0.992,-0.381 -0.057,0.601 -0.1,1.244 -0.1,1.914 0,1.188 0.112,2.39 0.417,3.272 l 0.243,0.705 0.751,-0.727 c 0.155,-0.15 0.296,-0.278 0.436,-0.403 0.143,2.6 2.175,3.786 4.703,5.229 0.924,0.528 1.88,1.074 2.873,1.753 l 0.203,0.139 c 0,0 1.444,-0.537 1.844,-0.686 0.437,0.379 0.854,0.825 1.26,1.386 l 0.402,0.557 0.378,-0.573 c 0.436,-0.659 0.858,-1.143 1.336,-1.592 0.006,0.005 0.036,0.027 0.036,0.027 0.331,0.244 0.643,0.474 0.864,0.719 l 0.23,0.255 1.328,-0.593 c 1.702,-0.754 2.855,-1.285 4.119,-2.491 1.623,0.276 3.306,-1.366 4.399,-3.321 0.146,0.24 0.744,1.23 0.744,1.23 l 0.387,-0.764 c 0.571,-1.128 0.872,-2.584 0.946,-4.385 0.236,0.194 0.47,0.427 0.697,0.709 l 0.549,0.681 0.271,-0.832 c 0.325,-0.993 0.488,-1.873 0.488,-2.69 0,-0.694 -0.163,-1.337 -0.401,-1.97 0.304,0.105 0.607,0.238 0.91,0.402 l 0.651,0.351 0.049,-0.738 c 0.016,-0.247 0.023,-0.488 0.023,-0.725 0,-2.893 -1.22,-5.079 -3.953,-7.177 -0.08,-0.936 -0.288,-1.912 -0.59,-2.932 0.424,0.082 0.814,0.178 1.143,0.306 l 0.896,0.349 -0.268,-0.923 c -0.473,-1.63 -1.687,-3.21 -2.846,-4.449 0.253,0.026 0.508,0.064 0.753,0.117 l 0.945,0.206 -0.415,-0.874 c -0.51,-1.074 -1.415,-2.142 -2.609,-3.133 0.595,-0.134 1.19,-0.286 1.78,-0.358 l 0.731,-0.089 -0.384,-0.629 c -0.78,-1.278 -2.02,-2.404 -3.166,-3.322 0.396,-0.108 0.814,-0.186 1.29,-0.208 l 0.649,-0.029 -0.227,-0.61 c -0.412,-1.112 -1.445,-2.355 -3.009,-3.691 0.396,-0.087 0.825,-0.145 1.321,-0.145 l 0.708,0 -0.269,-0.655 c -0.933,-2.275 -2.485,-2.962 -3.734,-3.307 L 98.2,11.32 c -0.679,-0.128 -1.276,-0.248 -1.713,-0.489 0.247,-0.255 0.714,-0.475 1.349,-0.623 L 99.115,9.909 97.94,9.321 C 96.998,8.85 95.975,8.666 94.9,8.55 95.333,8.311 97.265,7.245 97.265,7.245 L 96.245,6.9 C 95.404,6.633 94.381,6.455 93.276,6.357 93.706,6.051 94.097,5.644 94.339,5.095 L 94.735,4.194 93.782,4.445 C 91.541,5.035 86.654,3.748 84.454,2.591 82.506,1.568 80.868,1.57 79.323,2.512 78.458,1.708 77.072,1.322 75.961,1.325 l 0,0 z m 0.002,0.949 c 1.197,-0.003 2.399,0.449 2.925,1.101 l 0.28,0.347 0.364,-0.258 c 1.337,-0.948 2.719,-0.958 4.48,-0.033 1.974,1.038 6.04,2.195 8.764,2.088 -0.501,0.378 -1.131,0.613 -1.702,0.767 L 87.45,7.263 91.203,7.22 c 1.306,-0.015 2.542,0.095 3.606,0.304 -0.346,0.19 -0.722,0.396 -0.722,0.396 l -2.255,1.307 1.487,0.135 0.43,0.037 c 0.926,0.079 1.813,0.167 2.628,0.374 -0.585,0.34 -0.869,0.735 -0.969,1.063 l -0.087,0.285 0.218,0.202 c 0.631,0.584 1.534,0.754 2.491,0.934 l 1.261,0.273 c 0.978,0.27 2.054,0.747 2.824,2.158 -0.662,0.061 -1.271,0.176 -1.76,0.402 l -0.702,0.324 0.606,0.479 c 1.518,1.202 2.553,2.325 3.094,3.302 -0.624,0.087 -1.205,0.225 -1.717,0.471 L 100.94,20 l 0.616,0.471 c 1.503,1.147 2.505,2.099 3.191,3.009 -0.707,0.116 -1.416,0.259 -2.117,0.456 l -0.951,0.266 0.802,0.577 c 1.145,0.822 2.042,1.711 2.649,2.608 -0.404,-0.033 -0.8,-0.042 -1.136,-0.007 l -1.012,0.107 0.732,0.708 c 1.455,1.405 2.477,2.762 3.046,3.99 -0.341,-0.078 -0.707,-0.142 -1.11,-0.191 l -0.75,-0.094 0.245,0.717 c 0.448,1.31 0.703,2.506 0.78,3.656 l 0.015,0.217 0.175,0.131 c 2.608,1.954 3.725,3.881 3.73,6.521 -0.472,-0.195 -0.943,-0.353 -1.414,-0.427 l -0.975,-0.153 0.488,0.857 c 0.448,0.784 0.669,1.56 0.669,2.432 0,0.492 -0.097,1.033 -0.236,1.605 -0.344,-0.317 -0.694,-0.588 -1.062,-0.761 l -0.678,-0.317 c 0,0 0.001,0.763 0.001,0.771 0,1.576 -0.184,2.891 -0.536,3.942 -0.113,-0.187 -0.714,-1.177 -0.714,-1.177 l -0.375,0.808 c -0.942,2.029 -2.643,3.961 -3.939,3.544 l -0.275,-0.089 -0.206,0.205 c -1.214,1.215 -2.269,1.682 -4.016,2.457 0,0 -0.437,0.194 -0.732,0.327 -0.234,-0.212 -0.486,-0.413 -0.742,-0.603 l -0.657,-0.492 -0.295,0.243 c -0.517,0.443 -0.959,0.957 -1.396,1.547 -0.393,-0.48 -0.793,-0.912 -1.224,-1.256 l -0.21,-0.168 c 0,0 -1.574,0.585 -1.918,0.713 -0.952,-0.637 -1.892,-1.182 -2.726,-1.658 -2.523,-1.44 -4.25,-2.427 -4.25,-4.708 0,-0.171 0.01,-0.35 0.029,-0.537 l 0.08,-0.751 -0.711,0.254 c -0.375,0.134 -0.703,0.404 -1.037,0.711 -0.118,-0.633 -0.183,-1.405 -0.183,-2.251 0,-0.769 0.05,-1.591 0.153,-2.401 l 0.079,-0.618 -0.617,0.088 c -0.495,0.07 -0.833,0.144 -1.197,0.278 0.022,-1.218 0.283,-2.371 0.808,-3.426 l 0.46,-0.926 -1.001,0.253 c -0.472,0.119 -0.801,0.27 -1.063,0.438 0.154,-0.781 0.446,-1.527 0.887,-2.163 l 0.923,-1.334 -1.497,0.626 c -0.846,0.354 -1.492,0.501 -2.094,0.479 -0.579,-0.022 -1.093,-0.2 -1.619,-0.56 l -0.427,-0.292 -0.254,0.45 c -0.512,0.902 -1.305,1.418 -2.175,1.413 -0.835,-0.005 -1.573,-0.553 -1.973,-1.466 l -0.346,-0.792 -0.482,0.718 c -0.708,1.053 -1.915,2.277 -2.986,2.264 -0.155,-0.002 -0.564,-0.007 -0.788,-0.958 L 65.262,39.7 64.726,39.964 c -0.563,0.277 -1.226,0.473 -1.727,0.512 -0.379,0.029 -0.662,-0.028 -0.795,-0.16 -0.097,-0.096 -0.14,-0.263 -0.125,-0.498 l 0.056,-0.916 -0.78,0.484 c -0.666,0.413 -1.742,0.833 -2.508,0.836 -0.271,10e-4 -0.471,-0.053 -0.547,-0.149 -0.076,-0.095 -0.083,-0.292 -0.022,-0.553 l 0.343,-1.458 -1.144,1.018 c -0.15,0.133 -1.161,0.659 -1.91,0.579 -0.356,-0.038 -0.543,-0.204 -0.628,-0.555 l -0.1,-0.415 -0.422,0.055 c -0.693,0.09 -1.466,-0.086 -2.017,-0.459 -0.414,-0.28 -0.89,-0.792 -0.806,-1.644 l 0.064,-0.655 -0.642,0.146 c -0.483,0.11 -1.13,0.167 -1.471,-0.186 -0.203,-0.209 -0.25,-0.515 -0.25,-0.688 0,-0.052 0.004,-0.092 0.01,-0.114 L 49.428,34.67 48.961,34.527 C 48.157,34.345 47.19,33.906 46.969,33.375 L 46.851,33.09 46.543,33.082 C 43.962,33.014 40.094,32.9 38.077,30.534 38.067,30.445 38.058,30.353 37.998,30.266 37.901,30.125 37.747,30.04 37.573,30.034 32.703,29.824 26.448,27.341 25.261,24.114 L 25.186,23.91 24.982,23.833 c -5.712,-2.14 -7.194,-4.388 -7.566,-5.255 l -0.083,-0.195 -0.201,-0.068 c -3.226,-1.089 -5.339,-2.17 -5.904,-4.197 L 11.146,13.825 10.845,13.777 C 7.404,13.233 3.865,11.076 2.731,8.961 4.085,8.951 19.51,8.864 19.51,8.864 22.556,8.847 25.764,8.756 29.161,8.661 39.409,8.373 51.024,8.046 60.212,9.859 c 2.564,0.506 7.488,3.341 9.917,7.819 l 0.131,0.242 0.275,0.006 c 2.176,0.051 3.6,2.011 4.978,3.907 1.321,1.818 2.568,3.535 4.45,3.57 1.325,0.024 3.505,-1.116 5.288,-4.415 l 0.542,-1.003 -1.094,0.322 c -0.617,0.182 -1.235,0.271 -1.838,0.265 -0.107,0 -0.205,-0.04 -0.312,-0.046 1.708,-1.292 1.789,-2.981 1.818,-3.872 l 0.041,-0.999 -0.698,0.304 c -0.396,0.176 -1.053,0.236 -1.687,0.169 0.317,-0.612 0.583,-1.397 0.583,-2.134 0,-0.229 -0.025,-0.453 -0.082,-0.664 l -0.196,-0.725 -0.57,0.487 c -0.506,0.431 -0.911,0.686 -1.367,0.854 C 80.366,13.297 80.257,12.719 80.023,12.191 79.345,10.658 77.996,10.087 76.807,9.584 76,9.244 75.425,8.948 75.062,8.531 c 0.384,0.175 0.783,0.277 1.186,0.277 0.599,0 1.149,-0.235 1.594,-0.679 C 78.131,7.772 78.267,7.373 78.27,6.937 78.273,6.416 78.086,5.855 77.758,5.4 77.075,4.449 76.029,3.967 74.734,4.007 73.676,4.039 72.648,4.404 71.936,4.724 72.53,3.059 74.324,2.279 75.963,2.274 l 0,0 z m -38.811,28.301 -0.002,0.006 0,0 c 0,-0.001 0.002,-0.006 0.002,-0.006 l 0,0 z" /><path
       style="clip-rule:evenodd;fill:#fdb913;fill-rule:evenodd"
       id="path75"
       d="m 83.525,47.482 c -0.076,2.721 -0.935,7.655 -3.36,9.385 -2.049,1.462 -4.972,0.457 -6.493,2.511 l 0.19,1.231 c 2.295,0.025 2.773,0.192 5.225,-1.514 -1.577,1.119 -2.572,1.833 -2.761,3.683 0.617,0.13 0.913,0.673 1.331,0.929 0.748,-0.788 1.678,-1.662 2.696,-3.353 -0.135,1.323 -0.769,2.25 -0.769,3.523 0.542,-0.088 1.085,-0.1 1.628,0 0.476,-1.042 1.715,-3.385 1.715,-4.591 1.423,0 2.411,-0.25 3.748,-0.479 0.604,-0.103 1.258,0.056 2.06,-0.071 0.075,-0.598 0.007,-1.123 0.007,-1.657 -1.489,-0.466 -1.678,-0.926 -3.465,-1.766 -0.642,-1.417 0.2,-3.703 0.658,-6.065 -0.813,-0.45 -1.479,-1.168 -1.809,-2.114 -0.198,0.086 -0.401,0.208 -0.601,0.348 l 0,0 z" /><path
       style="clip-rule:evenodd;fill-rule:evenodd"
       id="path77"
       d="m 83.938,46.697 -0.917,0.53 0.029,0.242 c -0.077,2.771 -0.983,7.458 -3.162,9.013 -0.814,0.581 -1.794,0.73 -2.833,0.887 -1.377,0.209 -2.801,0.424 -3.765,1.727 l -0.118,0.159 0.281,1.823 0.939,0.014 c 0.806,0.014 1.397,0.019 1.994,-0.103 -0.271,0.477 -0.461,1.032 -0.534,1.74 l -0.043,0.424 0.417,0.088 c 0.263,0.056 0.454,0.24 0.676,0.453 l 0.845,0.697 0.252,-0.358 0.286,-0.298 c 0.301,-0.312 0.638,-0.67 0.994,-1.085 -0.097,0.382 -0.172,0.782 -0.172,1.227 l 0,0.558 0.551,-0.09 c 0.527,-0.085 1.007,-0.086 1.467,-0.001 l 0.359,0.066 0.447,-0.945 c 0.67,-1.399 1.252,-2.716 1.405,-3.717 0.967,-0.033 1.753,-0.169 2.633,-0.331 l 0.785,-0.141 0.804,-0.022 c 0.367,0.012 0.782,0.026 1.25,-0.048 l 0.392,-0.062 0.005,-0.348 0.024,-1.224 -0.023,-0.831 -0.323,-0.114 c -0.789,-0.248 -1.172,-0.483 -1.702,-0.811 -0.388,-0.239 -0.835,-0.51 -1.515,-0.84 -0.096,-0.27 -0.147,-0.574 -0.147,-0.92 0,-0.861 0.25,-1.928 0.51,-3.035 l 0.448,-2.029 -0.313,-0.16 c -0.765,-0.423 -1.315,-1.064 -1.59,-1.855 l -0.189,-0.542 -0.447,0.262 0,0 z m -6.74,11.611 c 1.103,-0.167 2.243,-0.34 3.243,-1.054 2.519,-1.797 3.388,-6.51 3.533,-9.322 0.337,0.612 0.831,1.128 1.43,1.526 -0.089,0.402 -0.297,1.345 -0.297,1.345 -0.272,1.159 -0.535,2.275 -0.535,3.252 0,0.531 0.078,1.021 0.274,1.453 l 0.072,0.159 0.158,0.074 c 0.748,0.352 1.205,0.633 1.608,0.882 0.472,0.291 0.904,0.546 1.593,0.793 0.002,0.089 0.005,0.193 0.005,0.193 0,0 -0.006,0.37 -0.012,0.685 -0.232,0.012 -0.461,0.017 -0.68,0.01 l -0.996,0.035 -0.794,0.143 c -0.958,0.177 -1.786,0.33 -2.871,0.33 l -0.475,0 0,0.475 c 0,0.896 -0.861,2.694 -1.376,3.768 0,0 -0.076,0.161 -0.153,0.322 -0.26,-0.027 -0.528,-0.035 -0.801,-0.02 0.062,-0.413 0.163,-0.814 0.293,-1.223 0.168,-0.53 0.342,-1.078 0.409,-1.73 l 0.215,-2.11 -1.094,1.817 c -0.856,1.422 -1.637,2.235 -2.327,2.95 -0.017,-0.014 -0.059,-0.05 -0.059,-0.05 -0.18,-0.172 -0.414,-0.35 -0.688,-0.498 0.249,-1.388 1.058,-2.014 2.487,-3.028 l -0.545,-0.777 c -2.121,1.476 -2.605,1.468 -4.407,1.437 0,0 -0.086,-0.002 -0.139,-0.002 -0.041,-0.262 -0.064,-0.415 -0.093,-0.601 0.733,-0.863 1.793,-1.047 3.022,-1.234 l 0,0 z" /><path
       style="clip-rule:evenodd;fill:#fdb913;fill-rule:evenodd"
       id="path79"
       d="m 76.087,65.81 c -0.352,-0.531 -0.577,-2.106 0.075,-2.997 0.406,0.162 1.23,0.407 1.559,0.781 -0.49,0.478 -1.321,1.51 -1.634,2.216 l 0,0 z" /><path
       style="clip-rule:evenodd;fill-rule:evenodd"
       id="path81"
       d="m 75.78,62.531 c -0.769,1.048 -0.563,2.825 -0.089,3.541 l 0.478,0.723 0.352,-0.792 c 0.289,-0.649 1.089,-1.636 1.532,-2.069 l 0.322,-0.314 -0.297,-0.338 c -0.349,-0.396 -1.008,-0.638 -1.49,-0.815 l -0.587,-0.22 -0.221,0.284 0,0 z m 0.441,1.798 c 0,-0.324 0.071,-0.637 0.185,-0.918 0.191,0.071 0.405,0.158 0.598,0.256 -0.244,0.277 -0.505,0.611 -0.751,0.958 -0.009,-0.101 -0.032,-0.19 -0.032,-0.296 l 0,0 z" /><path
       style="clip-rule:evenodd;fill-rule:evenodd"
       id="path83"
       d="m 90.387,44.284 c 0.491,0.508 1.176,2.136 1.176,3.693 0,0.299 -0.026,0.596 -0.082,0.881 -0.159,0.796 -0.553,1.396 -1.155,1.807 C 90,49.639 89.199,47.94 87.975,47.174 l -0.385,-0.242 -0.257,0.375 c -0.33,0.481 -0.521,1.082 -0.64,1.738 -0.998,-0.371 -1.781,-1.103 -2.117,-2.068 l -0.168,-0.482 -0.469,0.203 c -0.76,0.329 -1.516,1.072 -2.017,1.563 0,0 -0.046,0.044 -0.063,0.06 -0.698,-0.851 -1.002,-1.594 -1.028,-2.585 l -0.014,-0.561 -1.377,0.27 0.26,0.912 c 0,0 0.135,-0.026 0.245,-0.047 0.137,1.095 0.586,2.013 1.52,3.024 l 0.322,0.35 0.315,-0.295 0.485,-0.45 c 0.356,-0.35 0.855,-0.833 1.345,-1.151 0.587,1.163 1.66,2.037 3.017,2.351 l 0.539,0.125 0.041,-0.552 c 0.04,-0.542 0.178,-0.994 0.364,-1.4 1.001,0.949 1.615,2.72 1.656,3.122 l 0.065,0.645 0.595,-0.258 c 1.181,-0.513 1.944,-1.473 2.202,-2.777 0.406,-2.041 -0.523,-4.572 -1.341,-5.418 l -0.683,0.658 0,0 z" /><path
       style="clip-rule:evenodd;fill-rule:evenodd"
       id="path85"
       d="m 90.563,17.761 c -0.528,2.211 -1.659,2.826 -2.878,3.132 0.121,-0.411 0.19,-0.855 0.19,-1.289 0,-0.312 -0.034,-0.615 -0.104,-0.89 l -0.27,-1.062 -0.589,0.924 c -0.784,1.229 -1.885,1.87 -3.367,1.959 l 0.057,0.946 c 1.309,-0.079 2.398,-0.542 3.261,-1.366 -0.063,0.441 -0.175,0.872 -0.375,1.167 l -0.631,0.937 1.111,-0.206 c 1.35,-0.25 3.125,-0.592 4.104,-2.811 0.071,0.288 0.112,0.57 0.112,0.854 0,0.258 -0.024,0.519 -0.063,0.789 l -0.142,1.007 0.863,-0.54 c 1.573,-0.983 1.909,-2.016 1.957,-3.466 l -0.948,-0.032 c -0.03,0.906 -0.169,1.513 -0.727,2.079 -0.021,-0.688 -0.188,-1.433 -0.696,-2.271 l -0.598,-0.986 -0.267,1.125 0,0 z" /><path
       style="clip-rule:evenodd;fill-rule:evenodd"
       id="path87"
       d="m 81.026,4.509 c -0.768,0.011 -1.272,0.458 -1.317,1.164 -0.026,0.415 0.194,0.753 0.407,1.079 0.217,0.332 0.44,0.675 0.44,1.126 l 0.949,0 c 0,-0.733 -0.344,-1.26 -0.594,-1.644 -0.123,-0.188 -0.261,-0.4 -0.255,-0.5 0.007,-0.127 0.017,-0.271 0.385,-0.276 0.564,-0.009 1.226,0.391 1.993,0.854 1.202,0.726 2.697,1.63 4.818,1.646 L 87.859,7.009 C 85.999,6.996 84.684,6.201 83.524,5.5 82.632,4.961 81.863,4.496 81.026,4.509 l 0,0 z" /><path
       style="clip-rule:evenodd;fill-rule:evenodd"
       id="path89"
       d="m 80.749,5.301 c 0.182,0.997 0.986,2.224 2.327,2.562 0.374,0.094 1.076,0.196 1.563,-0.188 0.203,-0.161 0.444,-0.469 0.437,-1.028 L 84.128,6.659 C 84.129,6.755 84.117,6.879 84.052,6.931 83.938,7.02 83.633,7.026 83.309,6.944 82.417,6.719 81.816,5.862 81.684,5.132 l -0.935,0.169 0,0 z" /><path
       style="clip-rule:evenodd;fill-rule:evenodd"
       id="path91"
       d="m 96.96,16.328 c 0.51,0.582 0.752,1.12 0.8,1.654 -0.814,-0.566 -1.766,-0.905 -2.599,-0.896 l 0.011,0.949 c 0.828,-0.009 1.914,0.491 2.641,1.218 l 0.548,0.548 0.239,-0.736 c 0.367,-1.135 0.063,-2.234 -0.928,-3.363 l -0.712,0.626 0,0 z" /><path
       style="clip-rule:evenodd;fill-rule:evenodd"
       id="path93"
       d="m 98.311,21.77 c 0.16,0.295 0.333,0.782 0.401,1.321 -0.518,-0.567 -1.119,-0.976 -2.031,-1.2 l -0.226,0.921 c 0.978,0.24 1.521,0.679 2.234,1.808 l 0.532,0.841 0.318,-0.943 c 0.445,-1.321 -0.056,-2.571 -0.394,-3.198 l -0.834,0.45 0,0 z" /><path
       style="clip-rule:evenodd;fill-rule:evenodd"
       id="path95"
       d="m 86.202,27.246 0.128,0.949 0.677,-0.677 c 0.755,-0.754 2.26,-1.442 2.906,-1.538 l -0.138,-0.938 c -0.587,0.087 -1.709,0.539 -2.625,1.152 0.097,-0.75 0.431,-1.392 0.99,-1.791 L 87.59,23.63 c -1.071,0.765 -1.59,2.116 -1.388,3.616 l 0,0 z" /><path
       style="clip-rule:evenodd;fill-rule:evenodd"
       id="path97"
       d="m 94.861,27.344 c 0.266,0.447 0.397,1.069 0.397,1.695 0,0.246 -0.037,0.487 -0.078,0.724 -0.668,-1.144 -1.578,-2.046 -2.608,-2.539 l -0.409,0.856 c 1.104,0.527 2.1,1.686 2.665,3.097 l 0.361,0.907 0.489,-0.845 c 0.705,-1.221 0.705,-3.186 -10e-4,-4.378 l -0.816,0.483 0,0 z" /><path
       style="clip-rule:evenodd;fill-rule:evenodd"
       id="path99"
       d="m 100.462,26.953 c 0.332,0.633 0.496,1.335 0.496,2.126 0,0.03 -0.008,0.064 -0.008,0.094 -0.66,-0.803 -1.449,-1.612 -2.677,-2.104 l -0.354,0.88 c 1.282,0.515 1.989,1.419 2.739,2.376 l 0.93,1.181 0.187,-1.038 c 0.276,-1.526 0.122,-2.82 -0.474,-3.955 l -0.839,0.44 0,0 z" /><path
       style="clip-rule:evenodd;fill-rule:evenodd"
       id="path101"
       d="m 101.162,32.248 c 0.316,0.43 0.438,0.924 0.438,1.403 0,0.153 -0.034,0.295 -0.056,0.443 -0.599,-0.842 -1.523,-1.765 -2.674,-2.13 l -0.287,0.904 c 1.254,0.398 2.336,1.775 2.672,2.58 l 0.401,0.959 0.461,-0.932 c 0.483,-0.974 0.722,-2.551 -0.193,-3.792 l -0.762,0.565 0,0 z" /><path
       style="clip-rule:evenodd;fill-rule:evenodd"
       id="path103"
       d="m 84.92,34.464 0.089,1.052 0.728,-0.765 C 86.518,33.929 88,32.906 89.031,32.686 l -0.198,-0.928 c -0.919,0.196 -2.019,0.848 -2.895,1.544 0.195,-1.058 0.804,-1.907 1.781,-2.345 l -0.388,-0.865 c -1.653,0.741 -2.577,2.416 -2.411,4.372 l 0,0 z" /><path
       style="clip-rule:evenodd;fill-rule:evenodd"
       id="path105"
       d="m 80.826,28.827 0,0.901 0.743,-0.511 c 0.829,-0.57 1.981,-1.197 2.467,-1.343 l -0.272,-0.909 c -0.461,0.139 -1.231,0.541 -1.929,0.96 0.128,-1.002 0.525,-2.332 1.694,-3.006 l -0.474,-0.822 c -2.012,1.162 -2.229,3.695 -2.229,4.73 l 0,0 z" /><path
       style="clip-rule:evenodd;fill-rule:evenodd"
       id="path107"
       d="m 101.797,38.008 c 0.682,0.572 1.592,1.664 1.914,2.859 l 0.218,0.81 0.582,-0.604 c 1.178,-1.225 0.8,-2.777 0.638,-3.439 l -0.04,-0.17 -0.928,0.199 0.046,0.197 c 0.068,0.277 0.163,0.666 0.163,1.088 0,0.243 -0.032,0.498 -0.119,0.748 -0.482,-1.013 -1.227,-1.878 -1.863,-2.414 l -0.611,0.726 0,0 z" /><path
       style="clip-rule:evenodd;fill-rule:evenodd"
       id="path109"
       d="m 95.512,40.274 0.049,1.025 0.748,-0.7 c 0.953,-0.891 1.987,-1.535 2.989,-1.864 l -0.295,-0.901 c -0.795,0.261 -1.598,0.699 -2.371,1.272 0.241,-0.805 0.725,-1.591 1.356,-1.883 l -0.397,-0.861 c -1.369,0.631 -2.145,2.523 -2.079,3.912 l 0,0 z" /><path
       style="clip-rule:evenodd;fill-rule:evenodd"
       id="path111"
       d="m 90.434,37.416 c 0.671,0.25 1.38,1.232 1.698,2.186 -0.855,-0.607 -1.645,-0.841 -2.313,-1.031 l -0.546,-0.163 -0.298,0.9 0.585,0.175 c 0.891,0.253 1.812,0.515 2.869,1.622 l 0.711,0.743 0.104,-1.023 c 0.158,-1.549 -1.139,-3.798 -2.479,-4.297 l -0.331,0.888 0,0 z" /><polygon
       style="clip-rule:evenodd;fill-rule:evenodd"
       id="polygon113"
       points="79.813,4.159 79.784,2.946 78.836,2.97 78.836,2.97 78.865,4.182 " /><path
       style="clip-rule:evenodd;fill-rule:evenodd"
       id="path115"
       d="m 79.778,33.748 -0.025,0.975 1.308,-0.973 c 0.331,-0.25 0.62,-0.466 0.922,-0.646 -0.427,0.947 -0.657,1.904 -0.657,2.838 0,0.301 0.022,0.599 0.068,0.893 l 0.938,-0.144 c -0.209,-1.36 0.165,-2.831 1.082,-4.253 l 0.633,-0.98 -1.137,0.261 c -0.785,0.18 -1.335,0.491 -1.866,0.866 0.418,-0.93 1.204,-1.769 2.026,-1.993 l -0.25,-0.915 c -1.576,0.43 -2.997,2.332 -3.042,4.071 l 0,0 z" /><polygon
       style="clip-rule:evenodd;fill-rule:evenodd"
       id="polygon117"
       points="82.182,37.127 81.715,36.301 81.629,36.35 81.629,36.35 82.095,37.175 " /><path
       style="clip-rule:evenodd;fill-rule:evenodd"
       id="path119"
       d="m 78.19,39.384 0.799,0.511 c 1.113,-1.741 2.764,-2.802 4.417,-2.841 l -0.022,-0.948 c -1.998,0.046 -3.891,1.241 -5.194,3.278 l 0,0 z" /><path
       style="clip-rule:evenodd;fill-rule:evenodd"
       id="path121"
       d="m 19.032,8.672 c 2.51,3.767 4.824,5.806 9.864,5.797 4.017,-0.006 8.623,-1.326 11.67,-2.199 l -0.261,-0.912 c -2.997,0.859 -7.526,2.156 -11.411,2.163 -4.637,0.007 -6.694,-1.804 -9.073,-5.375 l -0.789,0.526 0,0 z" /><path
       style="clip-rule:evenodd;fill-rule:evenodd"
       id="path123"
       d="m 24.26,13.596 c 1.478,2.994 4.186,4.433 8.277,4.399 4.914,-0.04 7.051,-0.612 9.526,-1.275 l -0.246,-0.916 c -2.412,0.646 -4.495,1.204 -9.288,1.243 -3.743,0.031 -6.1,-1.199 -7.419,-3.871 l -0.85,0.42 0,0 z" /><path
       style="clip-rule:evenodd;fill-rule:evenodd"
       id="path125"
       d="m 41.483,21.665 c 1.305,2.578 4.489,3.98 8.965,3.949 2.97,-0.02 6.343,-0.687 9.497,-1.877 l -0.334,-0.888 c -3.053,1.152 -6.309,1.796 -9.169,1.816 -4.097,0.029 -6.979,-1.189 -8.113,-3.429 l -0.846,0.429 0,0 z" /><path
       style="clip-rule:evenodd;fill-rule:evenodd"
       id="path127"
       d="m 31.646,17.887 c 1.94,2.293 6.101,3.896 10.353,3.991 1.607,0.036 7.176,0.016 11.328,-1.751 L 52.956,19.254 C 48.978,20.946 43.58,20.965 42.02,20.93 37.43,20.828 33.8,18.964 32.37,17.274 l -0.724,0.613 0,0 z" /><path
       style="clip-rule:evenodd;fill-rule:evenodd"
       id="path129"
       d="m 46.329,25.11 c 0.646,1.615 1.873,2.753 3.643,3.383 4.131,1.469 10.248,-0.233 13.271,-1.912 l -0.46,-0.83 c -2.785,1.546 -8.682,3.202 -12.493,1.847 -1.502,-0.534 -2.54,-1.49 -3.081,-2.842 l -0.88,0.354 0,0 z" /><path
       style="clip-rule:evenodd;fill-rule:evenodd"
       id="path131"
       d="m 57.476,31.21 c 0.436,0.827 1.241,1.424 2.33,1.728 1.883,0.525 4.479,0.121 6.316,-0.984 l -0.489,-0.813 c -1.604,0.965 -3.948,1.336 -5.572,0.883 -0.843,-0.235 -1.43,-0.657 -1.745,-1.256 l -0.84,0.442 0,0 z" /><path
       style="clip-rule:evenodd;fill-rule:evenodd"
       id="path133"
       d="m 52.587,28.861 c 0.466,0.704 1.56,2.354 4.492,2.6 2.11,0.177 4.864,-0.395 8.185,-1.699 l -0.347,-0.883 c -3.184,1.25 -5.795,1.8 -7.759,1.636 -2.475,-0.207 -3.324,-1.489 -3.781,-2.179 l -0.79,0.525 0,0 z" /><path
       style="clip-rule:evenodd;fill-rule:evenodd"
       id="path135"
       d="m 61.424,32.829 c 0.07,0.835 1.092,1.791 2.43,2.274 0.912,0.329 3.25,0.871 5.272,-1.188 L 68.45,33.25 c -1.638,1.668 -3.534,1.228 -4.274,0.961 -1.118,-0.404 -1.778,-1.12 -1.806,-1.46 l -0.946,0.078 0,0 z" /><path
       style="clip-rule:evenodd;fill-rule:evenodd"
       id="path137"
       d="m 71.732,35.116 c -0.341,0.825 -1.472,1.355 -2.816,1.322 -1.123,-0.028 -2.542,-0.479 -3.158,-1.659 l -0.841,0.439 c 0.675,1.292 2.198,2.123 3.975,2.168 1.455,0.037 2.672,-0.486 3.342,-1.341 0.764,0.74 1.714,1.169 2.702,1.16 1.09,-0.011 2.148,-0.537 3.082,-1.489 0.769,0.157 1.543,0.145 2.308,-0.091 l -0.281,-0.906 c -0.695,0.215 -1.371,0.229 -2.067,0.043 l -0.28,-0.075 -0.194,0.213 c -0.794,0.878 -1.686,1.346 -2.577,1.355 -0.884,0.009 -1.753,-0.447 -2.383,-1.25 l -0.501,-0.639 -0.311,0.75 0,0 z" /><path
       style="clip-rule:evenodd;fill-rule:evenodd"
       id="path139"
       d="m 10.997,13.776 -0.182,0.931 c 4.374,0.854 9.97,0.362 14.357,-0.162 l -0.113,-0.942 c -4.317,0.515 -9.818,1.001 -14.062,0.173 l 0,0 z" /><path
       style="clip-rule:evenodd;fill-rule:evenodd"
       id="path141"
       d="m 17.042,18.239 -0.226,0.921 c 4.636,1.134 11.536,0.984 16.049,-0.351 l -0.269,-0.91 c -4.374,1.294 -11.06,1.439 -15.554,0.34 l 0,0 z" /><path
       style="clip-rule:evenodd;fill-rule:evenodd"
       id="path143"
       d="m 24.795,24.66 c 7.94,2.879 18.476,1.094 21.516,0.479 l -0.188,-0.93 c -2.979,0.604 -13.296,2.354 -21.005,-0.441 l -0.323,0.892 0,0 z" /><path
       style="clip-rule:evenodd;fill-rule:evenodd"
       id="path145"
       d="m 37.842,30.008 0,0.949 c 4.153,0 10.218,-1.129 12.48,-2.323 l -0.443,-0.839 c -2.115,1.117 -8.078,2.213 -12.037,2.213 l 0,0 z" /><path
       style="clip-rule:evenodd;fill-rule:evenodd"
       id="path147"
       d="m 46.561,33.099 -0.036,0.948 c 2.097,0.079 7.272,-1.189 9.45,-2.841 l -0.573,-0.755 c -1.995,1.512 -6.922,2.721 -8.841,2.648 l 0,0 z" /><path
       style="clip-rule:evenodd;fill-rule:evenodd"
       id="path149"
       d="m 48.94,34.524 -0.076,0.945 c 3.034,0.243 7.604,-0.407 10.501,-3.036 l -0.637,-0.702 c -2.672,2.425 -6.943,3.02 -9.788,2.793 l 0,0 z" /><path
       style="clip-rule:evenodd;fill-rule:evenodd"
       id="path151"
       d="m 54.121,38.8 0.614,0.723 c 0.653,-0.555 1.366,-1.402 1.957,-2.325 l -0.799,-0.511 c -0.534,0.834 -1.197,1.624 -1.772,2.113 l 0,0 z" /><path
       style="clip-rule:evenodd;fill-rule:evenodd"
       id="path153"
       d="m 57.414,39.104 0.597,0.737 c 0.648,-0.524 1.189,-1.159 1.754,-2.06 l -0.803,-0.504 c -0.507,0.808 -0.985,1.372 -1.548,1.827 l 0,0 z" /><polygon
       style="clip-rule:evenodd;fill-rule:evenodd"
       id="polygon155"
       points="62.478,38.031 61.364,39.307 61.364,39.307 61.267,39.415 61.976,40.045 62.072,39.938 63.211,38.631 " /><polygon
       style="clip-rule:evenodd;fill-rule:evenodd"
       id="polygon157"
       points="66.893,38.844 66.162,38.239 64.704,40.002 64.704,40.002 65.435,40.607 " /><path
       style="clip-rule:evenodd;fill-rule:evenodd"
       id="path159"
       d="m 36.704,13.094 c 0.714,1.752 2.486,3.551 4.494,3.599 2.516,0.061 6.099,-1.036 8.916,-2.729 l -0.488,-0.813 c -2.676,1.608 -6.054,2.65 -8.405,2.594 -1.599,-0.039 -3.04,-1.542 -3.637,-3.008 l -0.88,0.357 0,0 z" /><path
       style="clip-rule:evenodd;fill-rule:evenodd"
       id="path161"
       d="M 47.266,17.313 C 45.883,17.312 44.749,16.804 43.799,15.761 L 43.097,16.4 c 1.123,1.234 2.525,1.861 4.168,1.862 2.738,0.002 5.786,-1.699 8.408,-3.363 l -0.509,-0.801 c -2.359,1.498 -5.389,3.217 -7.898,3.215 l 0,0 z" /><path
       style="clip-rule:evenodd;fill-rule:evenodd"
       id="path163"
       d="m 57.962,16.807 c -1.665,1.149 -3.387,2.338 -5.033,2.39 -1.214,0.038 -2.317,-0.554 -3.375,-1.811 l -0.726,0.61 c 1.256,1.494 2.607,2.197 4.13,2.149 1.926,-0.061 3.764,-1.33 5.542,-2.558 l 0.832,-0.57 -0.529,-0.787 -0.841,0.577 0,0 z" /><path
       style="clip-rule:evenodd;fill-rule:evenodd"
       id="path165"
       d="m 56.876,20.531 c -1.55,0.086 -2.042,-0.509 -2.321,-1.103 l -0.859,0.402 c 0.561,1.198 1.618,1.736 3.232,1.647 1.805,-0.1 3.98,-1.157 5.819,-2.828 l -0.638,-0.702 c -1.682,1.531 -3.639,2.496 -5.233,2.584 l 0,0 z" /><path
       style="clip-rule:evenodd;fill-rule:evenodd"
       id="path167"
       d="m 59.29,21.908 c -0.595,-0.17 -1.046,-0.533 -1.343,-1.08 l -0.834,0.452 c 0.422,0.779 1.067,1.297 1.917,1.54 1.592,0.454 3.782,-0.105 6.511,-1.662 l -0.47,-0.824 c -3.113,1.776 -4.862,1.836 -5.781,1.574 l 0,0 z" /><path
       style="clip-rule:evenodd;fill-rule:evenodd"
       id="path169"
       d="m 59.053,22.513 c 0.302,1.012 0.918,1.73 1.833,2.135 2.629,1.163 6.753,-0.696 7.554,-1.081 l -0.411,-0.855 c -1.633,0.785 -4.895,1.893 -6.76,1.068 -0.658,-0.291 -1.085,-0.794 -1.308,-1.538 l -0.908,0.271 0,0 z" /><path
       style="clip-rule:evenodd;fill-rule:evenodd"
       id="path171"
       d="m 61.683,24.918 c 1.676,3.006 4.084,3.391 9.201,1.472 l -0.333,-0.888 c -5.213,1.955 -6.797,1.182 -8.039,-1.046 l -0.829,0.462 0,0 z" /><path
       style="clip-rule:evenodd;fill-rule:evenodd"
       id="path173"
       d="m 65.41,27.45 c 0.461,1.127 1.298,1.924 2.42,2.306 1.649,0.561 3.85,0.188 5.887,-0.997 l -0.477,-0.82 c -1.803,1.049 -3.711,1.393 -5.105,0.918 -0.867,-0.294 -1.488,-0.889 -1.848,-1.767 l -0.877,0.36 0,0 z" /><path
       style="clip-rule:evenodd;fill-rule:evenodd"
       id="path175"
       d="m 69.713,29.907 c 0.497,1.134 1.334,1.915 2.357,2.2 1.23,0.342 2.687,-0.037 4.323,-1.079 0.59,1.283 1.468,1.546 2.728,1.53 l -0.013,-0.949 c -1.08,0.014 -1.599,-0.117 -2.033,-1.438 l -0.201,-0.609 -0.523,0.371 c -1.603,1.133 -2.958,1.557 -4.026,1.26 -0.953,-0.266 -1.473,-1.053 -1.742,-1.667 l -0.87,0.381 0,0 z" /><path
       style="clip-rule:evenodd;fill-rule:evenodd"
       id="path177"
       d="m 154.222,12.263 c -4.068,-0.006 -7.631,-0.439 -10.59,-1.288 l -0.261,0.912 c 3.043,0.872 6.693,1.317 10.85,1.324 4.397,0.007 7.227,-1.424 9.765,-4.938 l -0.769,-0.556 c -2.367,3.278 -4.89,4.552 -8.995,4.546 l 0,0 z" /><path
       style="clip-rule:evenodd;fill-rule:evenodd"
       id="path179"
       d="m 149.338,16.729 c -1.943,0.013 -4.494,-0.364 -7,-1.035 l -0.245,0.916 c 2.584,0.692 5.227,1.081 7.251,1.068 3.858,-0.025 6.465,-1.475 8.716,-4.85 l -0.789,-0.526 c -2.083,3.122 -4.381,4.405 -7.933,4.427 l 0,0 z" /><path
       style="clip-rule:evenodd;fill-rule:evenodd"
       id="path181"
       d="m 124.827,22.486 c 2.282,1.504 5.738,3.504 9.388,3.506 2.564,10e-4 4.935,-0.986 7.044,-2.934 l -0.644,-0.696 c -1.955,1.806 -4.049,2.684 -6.4,2.682 -3.395,-0.001 -6.685,-1.912 -8.865,-3.35 l -0.523,0.792 0,0 z" /><path
       style="clip-rule:evenodd;fill-rule:evenodd"
       id="path183"
       d="m 141.147,22.079 c -2.624,0.077 -7.891,-1.419 -10.496,-3.392 l -0.572,0.757 c 2.798,2.119 8.263,3.666 11.097,3.583 4.564,-0.134 9.039,-3.458 10.787,-5.523 l -0.725,-0.613 c -1.641,1.94 -5.833,5.063 -10.091,5.188 l 0,0 z" /><path
       style="clip-rule:evenodd;fill-rule:evenodd"
       id="path185"
       d="m 121.984,25.079 c 1.327,2.465 4.707,4.284 8.036,4.323 2.971,0.036 5.363,-1.273 6.738,-3.686 l -0.824,-0.47 c -1.614,2.833 -4.391,3.226 -5.902,3.208 -3.006,-0.036 -6.039,-1.645 -7.213,-3.825 l -0.835,0.45 0,0 z" /><path
       style="clip-rule:evenodd;fill-rule:evenodd"
       id="path187"
       d="m 122.671,32.955 c -1.583,0.05 -3.383,-0.51 -4.479,-1.394 l -0.595,0.739 c 1.279,1.031 3.282,1.66 5.103,1.603 1.747,-0.055 3.115,-0.728 3.852,-1.894 l -0.802,-0.506 c -0.76,1.203 -2.255,1.426 -3.079,1.452 l 0,0 z" /><path
       style="clip-rule:evenodd;fill-rule:evenodd"
       id="path189"
       d="m 118.355,28.57 c 3.184,3.034 6.164,3.411 8.104,3.192 2.508,-0.282 4.264,-1.627 4.781,-2.409 l -0.791,-0.524 c -0.343,0.517 -1.851,1.737 -4.097,1.99 -1.739,0.196 -4.425,-0.154 -7.345,-2.936 l -0.652,0.687 0,0 z" /><path
       style="clip-rule:evenodd;fill-rule:evenodd"
       id="path191"
       d="m 119.449,34.564 c -0.84,0.081 -2.075,-0.063 -3.196,-1.205 l -0.677,0.664 c 1.384,1.41 2.919,1.585 3.964,1.485 1.697,-0.164 3.098,-1.147 3.554,-1.99 l -0.834,-0.452 c -0.337,0.623 -1.507,1.373 -2.811,1.498 l 0,0 z" /><path
       style="clip-rule:evenodd;fill-rule:evenodd"
       id="path193"
       d="m 112.421,35.448 c -0.338,0.839 -0.826,1.38 -1.307,1.448 -0.487,0.069 -0.929,-0.349 -1.213,-0.711 l -0.746,0.584 c 0.792,1.014 1.575,1.14 2.093,1.067 0.66,-0.093 1.245,-0.566 1.7,-1.335 0.802,0.876 1.911,1.329 3.114,1.204 1.412,-0.148 2.604,-1.041 3.039,-2.275 l -0.896,-0.314 c -0.313,0.89 -1.192,1.536 -2.242,1.646 -1.11,0.116 -2.095,-0.388 -2.698,-1.381 l -0.491,-0.809 -0.353,0.876 0,0 z" /><path
       style="clip-rule:evenodd;fill-rule:evenodd"
       id="path195"
       d="m 159.326,12.39 c 2.111,0.711 4.695,1.113 7.474,1.162 2.194,0.039 4.418,-0.148 6.432,-0.541 l -0.183,-0.931 c -1.947,0.38 -4.104,0.561 -6.233,0.523 -2.682,-0.047 -5.166,-0.432 -7.187,-1.113 l -0.303,0.9 0,0 z" /><path
       style="clip-rule:evenodd;fill-rule:evenodd"
       id="path197"
       d="m 158.998,18.087 c -2.842,-0.037 -5.449,-0.524 -6.974,-1.303 l -0.432,0.844 c 1.672,0.855 4.368,1.369 7.394,1.408 3.185,0.042 6.476,-0.442 9.265,-1.363 l -0.297,-0.9 c -2.692,0.888 -5.873,1.354 -8.956,1.314 l 0,0 z" /><path
       style="clip-rule:evenodd;fill-rule:evenodd"
       id="path199"
       d="m 147.956,24.815 c -3.237,0.047 -6.344,-0.282 -8.746,-0.928 l -0.246,0.917 c 2.484,0.667 5.683,1.008 9.005,0.96 4.842,-0.069 9.496,-0.931 13.107,-2.424 l -0.362,-0.876 c -3.503,1.448 -8.034,2.284 -12.758,2.351 l 0,0 z" /><path
       style="clip-rule:evenodd;fill-rule:evenodd"
       id="path201"
       d="m 133.559,28.279 c 1.868,1.829 9.57,2.873 14.177,2.347 l -0.107,-0.943 c -4.626,0.528 -11.893,-0.6 -13.406,-2.081 l -0.664,0.677 0,0 z" /><path
       style="clip-rule:evenodd;fill-rule:evenodd"
       id="path203"
       d="m 129.986,30.221 c 2.118,1.607 6.405,3.798 8.574,3.717 l -0.036,-0.948 c -1.751,0.066 -5.789,-1.875 -7.965,-3.525 l -0.573,0.756 0,0 z" /><path
       style="clip-rule:evenodd;fill-rule:evenodd"
       id="path205"
       d="m 126.166,32.002 c 2.244,2.717 6.551,4.187 10.474,3.573 l -0.146,-0.937 c -3.608,0.563 -7.555,-0.769 -9.596,-3.241 l -0.732,0.605 0,0 z" /><path
       style="clip-rule:evenodd;fill-rule:evenodd"
       id="path207"
       d="m 129.488,36.323 0.457,0.729 c 0.472,0.759 1.006,1.619 1.488,2.237 l 0.747,-0.583 c -0.45,-0.579 -0.971,-1.416 -1.43,-2.154 l -0.463,-0.74 -0.799,0.511 0,0 z" /><path
       style="clip-rule:evenodd;fill-rule:evenodd"
       id="path209"
       d="m 126.613,36.927 0.447,0.98 c 0.286,0.668 0.557,1.3 0.894,1.667 l 0.698,-0.641 c -0.227,-0.248 -0.479,-0.833 -0.721,-1.4 l -0.475,-1.042 -0.843,0.436 0,0 z" /><path
       style="clip-rule:evenodd;fill-rule:evenodd"
       id="path211"
       d="m 123.034,37.527 0.327,0.864 c 0.376,1.04 0.526,1.416 0.683,1.592 l 0.724,-0.612 c -0.096,-0.142 -0.357,-0.868 -0.514,-1.302 l -0.366,-0.955 -0.854,0.413 0,0 z" /><polygon
       style="clip-rule:evenodd;fill-rule:evenodd"
       id="polygon213"
       points="120.703,40.25 119.66,38.294 118.824,38.74 118.824,38.74 119.865,40.695 " /><path
       style="clip-rule:evenodd;fill-rule:evenodd"
       id="path215"
       d="m 142.937,15.581 c -2.39,0.057 -4.519,-1.222 -6.983,-2.703 l -0.488,0.813 c 2.592,1.557 4.83,2.901 7.493,2.837 1.918,-0.046 4.448,-1.847 5.205,-3.708 l -0.879,-0.357 c -0.614,1.507 -2.809,3.08 -4.348,3.118 l 0,0 z" /><path
       style="clip-rule:evenodd;fill-rule:evenodd"
       id="path217"
       d="m 130.857,15.678 0.233,0.132 c 3.064,1.721 7.26,4.077 11.078,0.737 l -0.625,-0.714 c -3.313,2.898 -7.015,0.82 -9.988,-0.85 l -0.234,-0.132 -0.464,0.827 0,0 z" /><path
       style="clip-rule:evenodd;fill-rule:evenodd"
       id="path219"
       d="m 125.425,17.073 c 1.902,1.28 3.405,2.291 5.663,2.362 1.403,0.043 2.887,-0.048 4.239,-1.657 l -0.726,-0.61 c -1.082,1.287 -2.219,1.358 -3.484,1.318 -1.893,-0.059 -3.133,-0.835 -5.163,-2.2 l -0.529,0.787 0,0 z" /><path
       style="clip-rule:evenodd;fill-rule:evenodd"
       id="path221"
       d="m 121.955,18.979 c 0.905,0.823 3.518,1.93 5.716,1.863 1.37,-0.042 2.384,-0.547 2.93,-1.461 l -0.814,-0.487 c -0.377,0.632 -1.099,0.969 -2.144,1 -1.902,0.058 -4.299,-0.935 -5.049,-1.617 l -0.639,0.702 0,0 z" /><path
       style="clip-rule:evenodd;fill-rule:evenodd"
       id="path223"
       d="m 123.673,22.057 c -1.089,-10e-4 -2.43,-0.451 -3.985,-1.339 l -0.471,0.824 c 1.701,0.97 3.201,1.462 4.455,1.463 1.546,0.001 2.769,-0.748 3.535,-2.163 l -0.834,-0.452 c -0.607,1.122 -1.491,1.667 -2.7,1.667 l 0,0 z" /><path
       style="clip-rule:evenodd;fill-rule:evenodd"
       id="path225"
       d="m 121.526,24.188 c -1.019,0.091 -2.209,-0.148 -3.266,-0.656 l -0.411,0.855 c 1.206,0.581 2.577,0.852 3.762,0.746 1.553,-0.14 2.73,-0.904 3.403,-2.211 l -0.843,-0.434 c -0.524,1.017 -1.413,1.59 -2.645,1.7 l 0,0 z" /><path
       style="clip-rule:evenodd;fill-rule:evenodd"
       id="path227"
       d="m 119.031,27.255 c -1,0.008 -2.297,-0.371 -4.082,-1.193 l -0.397,0.861 c 1.917,0.883 3.343,1.29 4.486,1.281 2.006,-0.017 3.028,-1.366 3.762,-2.685 l -0.828,-0.462 c -0.875,1.571 -1.701,2.188 -2.941,2.198 l 0,0 z" /><polygon
       style="clip-rule:evenodd;fill-rule:evenodd"
       id="polygon229"
       points="116.642,40.095 116.642,39.548 115.693,39.548 115.693,39.548 115.693,40.095 " /><path
       style="clip-rule:evenodd;fill-rule:evenodd"
       id="path231"
       d="m 116.315,29.544 c -0.91,0.067 -2.056,-0.239 -2.85,-0.761 l -0.976,-0.642 0.252,1.141 c 0.144,0.648 0.075,1.227 -0.193,1.628 -0.17,0.254 -0.412,0.416 -0.702,0.467 -0.496,0.087 -1.063,-0.152 -1.64,-0.692 l -0.647,0.693 c 1.014,0.95 1.893,1.032 2.452,0.933 0.542,-0.095 1.014,-0.406 1.326,-0.874 0.267,-0.399 0.4,-0.895 0.415,-1.437 0.837,0.362 1.797,0.551 2.632,0.49 1.324,-0.097 2.336,-0.805 2.85,-1.992 l -0.871,-0.376 c -0.377,0.872 -1.065,1.351 -2.048,1.422 l 0,0 z" /><path
       style="clip-rule:evenodd;fill-rule:evenodd"
       id="path233"
       d="m 95.494,47.809 c 0.03,1.417 0.527,2.623 1.439,3.487 l 0.622,0.591 0.19,-0.953 c 0.098,-0.485 0.2,-0.956 0.503,-1.574 0.251,0.237 0.49,0.491 0.711,0.797 l 0.422,0.586 0.683,-1.149 c 0.381,-0.673 0.867,-1.488 1.768,-2.086 0.601,0.349 1.401,1.108 1.909,1.597 l 1.004,0.925 0.259,-0.564 c 0.507,-0.939 1.067,-1.461 1.765,-2.01 0.181,0.107 0.378,0.224 0.378,0.224 l 0.546,-0.775 -1.034,-0.613 -0.219,0.214 c -0.595,0.456 -1.309,1.034 -1.946,2.002 -0.03,-0.027 -0.094,-0.086 -0.094,-0.086 -0.653,-0.629 -1.641,-1.58 -2.405,-1.912 l -0.218,-0.094 -0.207,0.118 c -1.244,0.714 -1.85,1.749 -2.291,2.528 -0.271,-0.304 -0.555,-0.584 -0.881,-0.83 l -0.421,-0.317 -0.271,0.452 c -0.365,0.61 -0.554,1.092 -0.682,1.526 -0.361,-0.589 -0.564,-1.289 -0.581,-2.104 -0.001,-0.041 -0.002,-0.081 -0.002,-0.122 0,-1.6 0.67,-3.039 1.137,-3.522 l -0.682,-0.659 c -0.709,0.732 -1.441,2.496 -1.402,4.323 l 0,0 z" /><path
       style="clip-rule:evenodd;fill:#fdb913;fill-rule:evenodd"
       id="path235"
       d="m 71.831,62.012 c -0.076,-0.866 0.57,-2.523 1.833,-2.993 -0.058,0.536 -0.037,1.267 0.222,1.746 -0.741,0.153 -1.541,0.734 -2.055,1.247 l 0,0 z" /><path
       style="clip-rule:evenodd;fill-rule:evenodd"
       id="path237"
       d="m 73.499,58.575 c -1.467,0.545 -2.236,2.394 -2.141,3.479 l 0.088,1.012 0.72,-0.718 c 0.434,-0.433 1.169,-0.985 1.815,-1.118 l 0.626,-0.128 -0.304,-0.562 c -0.2,-0.371 -0.218,-1.002 -0.167,-1.47 l 0.083,-0.763 -0.72,0.268 0,0 z m -0.307,1.308 c 0.016,0.198 0.051,0.387 0.104,0.59 -0.261,0.103 -0.503,0.221 -0.727,0.363 0.149,-0.345 0.345,-0.684 0.623,-0.953 l 0,0 z" /><path
       style="clip-rule:evenodd;fill:#fdb913;fill-rule:evenodd"
       id="path239"
       d="m 80.835,66.522 c -0.8,-0.357 -1.634,-1.355 -1.237,-2.581 0.508,-0.094 1.188,-0.154 1.696,0.034 -0.23,0.849 -0.552,1.826 -0.459,2.547 l 0,0 z" /><path
       style="clip-rule:evenodd;fill-rule:evenodd"
       id="path241"
       d="m 79.511,63.475 -0.277,0.052 -0.087,0.269 c -0.458,1.415 0.428,2.685 1.495,3.161 l 0.771,0.345 -0.107,-0.838 c -0.067,-0.524 0.152,-1.305 0.345,-1.994 l 0.219,-0.79 -0.41,-0.148 c -0.622,-0.231 -1.403,-0.159 -1.949,-0.057 l 0,0 z m 1.188,0.883 c -0.12,0.427 -0.213,0.851 -0.278,1.267 -0.25,-0.275 -0.449,-0.631 -0.449,-1.061 0,-0.06 0.023,-0.126 0.031,-0.188 0.262,-0.031 0.49,-0.036 0.696,-0.018 l 0,0 z" /><path
       style="clip-rule:evenodd;fill:#fdb913;fill-rule:evenodd"
       id="path243"
       d="m 91.179,59.245 c -0.115,-1.066 -1.456,-2.07 -2.409,-2.056 0.094,0.53 0.034,1.007 0.022,1.506 0.822,0.081 1.809,0.311 2.387,0.55 l 0,0 z" /><path
       style="clip-rule:evenodd;fill-rule:evenodd"
       id="path245"
       d="m 88.763,56.714 -0.558,0.008 0.097,0.549 c 0.063,0.351 0.046,0.688 0.03,1.044 l -0.031,0.815 0.444,0.037 c 0.765,0.076 1.712,0.293 2.253,0.517 l 0.739,0.306 -0.086,-0.795 c -0.144,-1.334 -1.736,-2.498 -2.888,-2.481 l 0,0 z m 0.533,1.123 c 0,-0.017 -0.003,-0.036 -0.004,-0.053 0.349,0.134 0.687,0.381 0.959,0.682 -0.317,-0.075 -0.645,-0.136 -0.968,-0.184 0.006,-0.146 0.013,-0.293 0.013,-0.445 l 0,0 z" /><polygon
       style="clip-rule:evenodd;fill-rule:evenodd"
       id="polygon247"
       points="83.978,53.553 82.263,53.561 82.263,53.561 82.29,54.509 83.971,54.502 85.015,54.505 85.01,53.557 " /><polygon
       style="clip-rule:evenodd;fill-rule:evenodd"
       id="polygon249"
       points="85.285,52.83 85.268,51.881 82.818,51.926 82.818,51.926 82.835,52.874 " /><path
       style="clip-rule:evenodd;fill-rule:evenodd"
       id="path251"
       d="m 85.321,50.24 -2.134,0.043 0.015,0.948 2.429,-0.048 0.43,-0.66 c -0.126,-0.295 -0.332,-0.291 -0.74,-0.283 l 0,0 z" /><path
       style="clip-rule:evenodd;fill-rule:evenodd"
       id="path253"
       d="m 78.291,57.637 c -0.709,0.154 -1.439,0.226 -2.129,0.364 0.075,0.077 0.177,0.128 0.278,0.179 l 0.071,1.131 c 0.495,0.142 0.404,-0.48 0.898,-0.48 l 0.906,-0.28 c 0,-0.074 -0.003,-0.453 -0.024,-0.914 l 0,0 z m -1.701,2.82 c 0.402,-0.115 0.821,-0.302 1.341,-0.609 -0.004,-0.039 -0.007,-0.077 -0.007,-0.112 -0.424,0 -0.99,0.141 -1.273,0.354 0,0.079 -0.022,0.212 -0.061,0.367 l 0,0 z m 1.354,-0.515 c -0.658,0.533 -1.137,1.071 -1.404,1.837 0.615,-0.007 1.302,10e-4 1.738,0.218 0.188,-0.564 -0.237,-1.464 -0.334,-2.055 l 0,0 z m 2.202,1.456 c -0.154,0.546 -0.349,1.053 -0.463,1.595 l 0.892,-0.381 c 0.07,-0.283 0.823,-1.239 1.177,-1.239 -0.164,-0.164 -1.048,-0.04 -1.606,0.025 l 0,0 z m 7.977,-4.415 c -1.145,-0.262 -1.282,-0.888 -2.662,-1.583 0.167,1.456 0.877,2.496 2.576,2.496 0.06,-0.243 0.081,-0.567 0.086,-0.913 l 0,0 z" /><path
       style="clip-rule:evenodd;fill:#fdb913;fill-rule:evenodd"
       id="path255"
       d="m 102.651,47.511 c 0.077,2.721 0.569,7.046 2.994,8.777 2.048,1.462 3.639,0.974 5.106,2.29 l -0.124,1.476 c -2.584,-0.842 -1.599,-0.056 -3.679,-0.649 1.577,1.119 2.077,1.153 2.266,3.002 -0.616,0.13 -0.912,0.673 -1.33,0.929 -0.748,-0.788 -2.111,-1.167 -3.13,-2.858 0.135,1.322 0.337,2.56 0.337,3.832 -0.544,-0.088 -1.086,-0.1 -1.629,0 -0.477,-1.042 -1.592,-3.385 -1.592,-4.59 -1.422,0 -1.481,-1.487 -2.819,-1.716 -0.604,-0.104 -1.506,0.365 -2.308,0.237 -0.075,-0.598 -0.007,-1.123 -0.007,-1.657 1.489,-0.466 1.926,-1.421 3.713,-2.261 0.642,-1.417 0.087,-3.271 -0.371,-5.632 0.392,-0.847 1,-1.229 1.711,-1.79 0.202,0.088 0.664,0.47 0.862,0.61 l 0,0 z" /><path
       style="clip-rule:evenodd;fill-rule:evenodd"
       id="path257"
       d="m 101.497,46.529 -0.28,0.216 c -0.607,0.468 -1.181,0.908 -1.568,1.747 l -0.065,0.141 0.244,1.207 c 0.235,1.134 0.439,2.119 0.439,2.957 0,0.441 -0.069,0.835 -0.207,1.195 -0.777,0.389 -1.313,0.795 -1.779,1.157 -0.547,0.425 -0.979,0.761 -1.685,0.982 l -0.324,0.101 -0.022,0.843 0.032,1.622 0.389,0.013 c 0.516,0.082 1.027,-0.032 1.479,-0.132 0.324,-0.071 0.631,-0.14 0.822,-0.106 0.467,0.08 0.721,0.364 1.043,0.724 0.334,0.372 0.753,0.801 1.44,0.938 0.143,1.137 0.813,2.716 1.478,4.159 l 0.252,0.551 0.364,-0.066 c 0.459,-0.085 0.938,-0.084 1.467,10e-4 l 0.551,0.089 0,-0.558 c 0,-0.774 -0.076,-1.525 -0.163,-2.293 0.434,0.405 0.869,0.709 1.254,0.967 0.354,0.237 0.659,0.442 0.883,0.678 l 0.305,0.321 0.287,-0.243 0.505,-0.417 c 0.223,-0.213 0.414,-0.396 0.677,-0.452 l 0.417,-0.088 -0.043,-0.424 c -0.122,-1.205 -0.402,-1.757 -0.955,-2.252 0.283,-0.002 0.683,0.05 1.749,0.398 l 0.57,0.185 0.193,-2.308 -0.176,-0.158 c -0.82,-0.735 -1.654,-0.96 -2.536,-1.197 -0.816,-0.22 -1.66,-0.447 -2.612,-1.126 -2.159,-1.541 -2.711,-5.42 -2.794,-8.403 l -0.007,-0.229 -0.412,-0.31 -1.014,-0.687 -0.198,0.257 0,0 z m 0.299,0.97 c 0,0 0.014,-0.011 0.016,-0.012 0.152,0.109 0.318,0.227 0.318,0.227 0,0 0.038,0.028 0.059,0.044 0.112,3.167 0.763,7.191 3.182,8.917 1.091,0.779 2.061,1.04 2.916,1.271 0.731,0.197 1.371,0.384 1.971,0.854 -0.016,0.184 -0.027,0.329 -0.053,0.63 -1.012,-0.292 -1.378,-0.282 -1.714,-0.262 -0.274,0.016 -0.533,0.031 -1.41,-0.218 l -2.787,-0.794 3.03,2.084 c 0.933,0.63 1.217,0.872 1.366,1.893 -0.283,0.149 -0.525,0.331 -0.71,0.508 0,0 -0.055,0.046 -0.089,0.075 -0.22,-0.18 -0.453,-0.35 -0.704,-0.518 -0.663,-0.446 -1.415,-0.95 -2.024,-1.963 l -1.121,-1.862 0.362,3.227 c 0.088,0.753 0.158,1.474 0.188,2.195 -0.286,-0.018 -0.565,-0.012 -0.836,0.017 -0.483,-1.051 -1.409,-3.092 -1.409,-4.09 l 0,-0.475 -0.476,0 c -0.514,0 -0.759,-0.246 -1.149,-0.683 -0.354,-0.396 -0.796,-0.891 -1.59,-1.026 -0.376,-0.065 -0.77,0.022 -1.187,0.115 -0.25,0.055 -0.497,0.092 -0.737,0.111 -0.005,-0.309 -0.011,-0.648 -0.011,-0.648 0,0 0.003,-0.106 0.006,-0.203 0.68,-0.268 1.164,-0.628 1.659,-1.014 0.489,-0.379 0.995,-0.772 1.789,-1.146 l 0.159,-0.075 0.072,-0.159 c 0.239,-0.527 0.331,-1.102 0.331,-1.719 0,-0.95 -0.219,-2.004 -0.457,-3.153 0,0 -0.129,-0.639 -0.177,-0.876 0.287,-0.543 0.68,-0.86 1.217,-1.272 l 0,0 z" /><path
       style="clip-rule:evenodd;fill:#fdb913;fill-rule:evenodd"
       id="path259"
       d="m 109.456,65.253 c 0.351,-0.531 0.577,-2.106 -0.076,-2.997 -0.405,0.162 -1.155,0.721 -1.484,1.095 0.49,0.479 1.179,1.196 1.56,1.902 l 0,0 z" /><path
       style="clip-rule:evenodd;fill-rule:evenodd"
       id="path261"
       d="m 109.203,61.814 c -0.512,0.206 -1.314,0.826 -1.664,1.223 l -0.297,0.338 0.322,0.314 c 0.267,0.261 1.078,1.055 1.473,1.788 l 0.376,0.698 0.438,-0.661 c 0.474,-0.716 0.68,-2.493 -0.089,-3.541 l -0.218,-0.296 -0.341,0.137 0,0 z m -0.037,1.104 c 0.096,0.262 0.155,0.544 0.155,0.832 0,0.146 -0.028,0.272 -0.045,0.409 -0.231,-0.289 -0.472,-0.56 -0.703,-0.798 0.186,-0.158 0.398,-0.315 0.593,-0.443 l 0,0 z" /><path
       style="clip-rule:evenodd;fill:#fdb913;fill-rule:evenodd"
       id="path263"
       d="m 112.723,61.518 c 0.076,-0.865 -0.57,-2.523 -1.834,-2.992 -0.02,0.51 -0.063,0.989 -0.222,1.501 0.707,0.288 1.516,1.077 2.056,1.491 l 0,0 z" /><path
       style="clip-rule:evenodd;fill-rule:evenodd"
       id="path265"
       d="m 110.415,58.507 c -0.02,0.501 -0.062,0.928 -0.201,1.379 l -0.129,0.416 0.402,0.165 c 0.451,0.184 1.005,0.649 1.45,1.023 l 1.191,0.973 0.066,-0.903 c 0.096,-1.085 -0.673,-2.933 -2.14,-3.479 l -0.615,-0.229 -0.024,0.655 0,0 z m 0.883,0.84 c 0.292,0.264 0.508,0.596 0.667,0.948 -0.25,-0.196 -0.503,-0.353 -0.764,-0.5 0.034,-0.15 0.077,-0.304 0.097,-0.448 l 0,0 z" /><path
       style="clip-rule:evenodd;fill:#fdb913;fill-rule:evenodd"
       id="path267"
       d="m 103.903,66.708 c 0.8,-0.357 1.634,-1.355 1.237,-2.581 -0.508,-0.095 -1.188,-0.154 -1.696,0.034 0.23,0.849 0.552,1.825 0.459,2.547 l 0,0 z" /><path
       style="clip-rule:evenodd;fill-rule:evenodd"
       id="path269"
       d="m 103.279,63.715 -0.41,0.151 0.219,0.787 c 0.193,0.689 0.412,1.47 0.345,1.994 l -0.107,0.838 0.772,-0.345 c 1.066,-0.477 1.953,-1.746 1.495,-3.16 l -0.088,-0.27 -0.278,-0.051 c -0.545,-0.1 -1.327,-0.173 -1.948,0.056 l 0,0 z m 1.456,0.847 c 0.009,0.062 0.03,0.128 0.03,0.188 0,0.43 -0.198,0.787 -0.448,1.061 -0.064,-0.416 -0.158,-0.839 -0.277,-1.267 0.206,-0.019 0.434,-0.014 0.695,0.018 l 0,0 z" /><path
       style="clip-rule:evenodd;fill:#fdb913;fill-rule:evenodd"
       id="path271"
       d="m 94.675,59.178 c -0.076,-1.066 1.038,-2.491 2.098,-2.478 -0.094,0.53 -0.033,1.008 -0.022,1.506 -0.822,0.206 -1.499,0.639 -2.076,0.972 l 0,0 z" /><path
       style="clip-rule:evenodd;fill-rule:evenodd"
       id="path273"
       d="m 95.088,57.055 c -0.597,0.632 -0.937,1.458 -0.888,2.156 l 0.054,0.761 0.87,-0.507 c 0.508,-0.297 1.083,-0.634 1.741,-0.798 l 0.374,-0.093 -0.028,-0.746 c -0.017,-0.357 -0.032,-0.694 0.029,-1.045 l 0.098,-0.55 -0.56,-0.007 C 96.2,56.218 95.6,56.513 95.088,57.055 l 0,0 z m 0.69,0.652 c 0.148,-0.158 0.31,-0.28 0.469,-0.37 0,0.004 -0.001,0.008 -0.001,0.012 0,0.178 0.008,0.352 0.017,0.522 0,0 0,0.013 0,0.013 -0.291,0.1 -0.574,0.199 -0.827,0.328 0.099,-0.175 0.199,-0.353 0.342,-0.505 l 0,0 z" /><polygon
       style="clip-rule:evenodd;fill-rule:evenodd"
       id="polygon275"
       points="103.57,53.056 101.908,53.068 101.908,53.068 100.694,53.084 100.688,54.033 101.93,54.016 103.544,54.004 " /><polygon
       style="clip-rule:evenodd;fill-rule:evenodd"
       id="polygon277"
       points="103.264,52.614 103.235,51.666 100.866,51.735 100.866,51.735 100.895,52.684 " /><path
       style="clip-rule:evenodd;fill-rule:evenodd"
       id="path279"
       d="m 100.28,50.436 0.371,0.811 c 0.18,-0.014 1.867,-0.135 2.271,-0.129 l 0.016,-0.948 c -0.025,-0.001 -2.372,-0.015 -2.658,0.266 l 0,0 z" /><path
       style="clip-rule:evenodd;fill-rule:evenodd"
       id="path281"
       d="m 107.118,57.369 c 0.709,0.154 1.551,0.314 2.241,0.452 -0.487,0.499 -0.47,-0.071 -0.528,0.865 -0.495,0.141 -0.426,-0.191 -0.922,-0.191 l -0.905,-0.279 c 0,-0.074 0.094,-0.386 0.114,-0.847 l 0,0 z m -0.124,2.104 c 0.658,0.534 1.741,1.541 2.009,2.307 -0.616,-0.007 -1.169,-0.2 -1.604,0.018 0.125,-1.344 -0.836,-1.154 -0.405,-2.325 l 0,0 z m -2.587,1.987 c 0.154,0.546 0.349,1.052 0.463,1.594 l -0.893,-0.381 c -0.07,-0.283 -0.452,-1.239 -0.806,-1.239 0.165,-0.163 0.678,-0.039 1.236,0.026 l 0,0 z m -6.832,-5.142 c 1.145,-0.261 1.281,-0.887 2.662,-1.582 -0.167,1.455 -0.878,2.496 -2.575,2.496 -0.061,-0.245 -0.083,-0.568 -0.087,-0.914 l 0,0 z" /><path
       style="clip-rule:evenodd;fill-rule:evenodd"
       id="path283"
       d="m 88.561,74.107 0.319,0.022 c 0.368,0.025 0.613,0.081 0.735,0.167 0.122,0.086 0.176,0.223 0.163,0.413 -0.012,0.18 -0.089,0.303 -0.23,0.367 -0.142,0.064 -0.395,0.083 -0.761,0.058 l -0.296,-0.021 0.07,-1.006 0,0 z m -0.12,3.998 c 0.621,0.043 1.069,0.056 1.345,0.037 0.275,-0.018 0.51,-0.066 0.702,-0.146 0.237,-0.093 0.423,-0.236 0.56,-0.43 0.137,-0.192 0.214,-0.42 0.233,-0.684 0.026,-0.37 -0.063,-0.673 -0.266,-0.909 -0.203,-0.235 -0.497,-0.38 -0.882,-0.435 0.351,-0.061 0.61,-0.168 0.779,-0.324 0.169,-0.156 0.264,-0.376 0.284,-0.66 0.016,-0.224 -0.023,-0.425 -0.117,-0.603 -0.093,-0.178 -0.237,-0.325 -0.431,-0.441 -0.17,-0.1 -0.376,-0.176 -0.619,-0.229 -0.242,-0.053 -0.67,-0.102 -1.286,-0.145 l -1.496,-0.104 -0.347,4.963 1.541,0.11 0,0 z m -0.012,-2.103 0.541,0.038 c 0.364,0.026 0.61,0.084 0.738,0.176 0.129,0.091 0.186,0.242 0.171,0.452 -0.013,0.188 -0.096,0.316 -0.249,0.387 -0.153,0.071 -0.406,0.094 -0.759,0.069 l -0.52,-0.036 0.078,-1.086 0,0 z" /></g></svg>