<?xml version="1.0" encoding="UTF-8" standalone="no"?>
<svg
   xmlns:dc="http://purl.org/dc/elements/1.1/"
   xmlns:cc="http://creativecommons.org/ns#"
   xmlns:rdf="http://www.w3.org/1999/02/22-rdf-syntax-ns#"
   xmlns:svg="http://www.w3.org/2000/svg"
   xmlns="http://www.w3.org/2000/svg"
   xml:space="preserve"
   enable-background="new 0 0 418.17 561.259"
   viewBox="0 0 280 200.00001"
   height="200"
   width="280"
   y="0px"
   x="0px"
   id="Ebene_1"
   version="1.0"><metadata
     id="metadata83"><rdf:RDF><cc:Work
         rdf:about=""><dc:format>image/svg+xml</dc:format><dc:type
           rdf:resource="http://purl.org/dc/dcmitype/StillImage" /><dc:title></dc:title></cc:Work></rdf:RDF></metadata><defs
     id="defs81" /><path
     style="clip-rule:evenodd;fill:#008057;fill-rule:evenodd"
     id="path3"
     d="M 140.50535,200 C 108.48484,189.22316 84.26394,168.68505 72.9761,140.66269 l 34.88158,0 c -2.23426,-3.17465 -4.11539,-6.54564 -5.56534,-10.15146 l -32.725719,0 c -0.90154,-3.29153 -1.64594,-6.66146 -2.19506,-10.11084 l 31.903269,0 c -0.58832,-3.25305 -0.94074,-6.62297 -0.97994,-10.15147 l -32.059349,0 c -0.15714,-2.27275 -0.23554,-4.6246 -0.23554,-6.97574 0,-1.05869 0.0396,-2.11703 0.0396,-3.13545 l 32.646959,0 c 0.19635,-2.31231 0.50957,-4.54586 0.90155,-6.74128 0.19634,-1.13673 0.43153,-2.27381 0.66671,-3.41019 l -33.823599,0 c 1.0195,-15.6377 4.037,-28.64916 9.485109,-41.85732 18.10679,-0.43117 24.06411,-3.41019 31.39335,-7.0937 8.30882,-4.15458 15.48091,-8.62204 33.19608,-8.62204 17.71624,0 24.88726,4.46781 33.19608,8.62204 7.3296,3.68351 13.28656,6.66253 31.39335,7.0937 5.4474,13.20816 8.46668,26.21998 9.48439,41.85732 l -33.8236,0 c 0.2359,1.13638 0.47073,2.27311 0.66707,3.41019 0.39162,2.19542 0.70556,4.42897 0.90084,6.74128 l 32.64803,0 c 0,1.01842 0.0396,2.07711 0.0396,3.13545 0,2.35114 -0.0795,4.70299 -0.2359,6.97574 l -32.05935,0 c -0.0385,3.5285 -0.39269,6.89842 -0.9803,10.15147 l 31.90256,0 c -0.54912,3.44938 -1.29245,6.81931 -2.19435,10.11084 l -32.72535,0 c -1.44996,3.60582 -3.33251,6.97681 -5.56535,10.15146 l 34.88122,0 C 196.74758,168.68505 172.52632,189.22316 140.50545,200 l 0,0 z" /><path
     style="clip-rule:evenodd;fill:#ffffff;fill-rule:evenodd"
     id="path5"
     d="m 211.44444,130.51123 c -0.9803,3.48787 -2.11703,6.85993 -3.40948,10.15146 l -34.88122,0 c 2.23319,-3.17465 4.11539,-6.54564 5.56534,-10.15146 l 32.72536,0 0,0 z" /><path
     style="clip-rule:evenodd;fill:#ffffff;fill-rule:evenodd"
     id="path7"
     d="m 182.71653,110.24892 c -0.0385,3.5285 -0.39269,6.89842 -0.9803,10.15147 l 31.90256,0 c 0.54805,-3.2926 0.9019,-6.70244 1.13673,-10.15147 l -32.05899,0 0,0 z" /><path
     style="clip-rule:evenodd;fill:#ffffff;fill-rule:evenodd"
     id="path9"
     d="m 180.75593,89.98591 c 0.2359,1.13637 0.47073,2.2731 0.66707,3.41019 0.39162,2.19542 0.70556,4.42897 0.90084,6.74127 l 32.64803,0 c -0.0396,-3.52743 -0.15751,-6.89806 -0.39269,-10.15146 l -33.82325,0 0,0 z" /><path
     style="clip-rule:evenodd;fill:#ffffff;fill-rule:evenodd"
     id="path11"
     d="m 98.68687,100.13773 c 0.19634,-2.31231 0.50957,-4.54586 0.90155,-6.74128 0.19634,-1.13673 0.43152,-2.27381 0.66671,-3.41019 l -33.823959,0 c -0.23483,3.2534 -0.35277,6.62404 -0.39162,10.15147 l 32.647319,0 0,0 z" /><path
     style="clip-rule:evenodd;fill:#ffffff;fill-rule:evenodd"
     id="path13"
     d="m 99.27483,120.40039 c -0.58832,-3.25305 -0.94074,-6.62297 -0.97994,-10.15147 l -32.059349,0 c 0.23483,3.44939 0.58761,6.85887 1.13638,10.15147 l 31.902909,0 0,0 z" /><path
     style="clip-rule:evenodd;fill:#ffffff;fill-rule:evenodd"
     id="path15"
     d="m 107.85804,140.66305 c -2.23427,-3.17465 -4.11539,-6.54565 -5.56535,-10.15147 l -32.726069,0 c 0.97994,3.48787 2.11596,6.85994 3.409479,10.15147 l 34.88194,0 0,0 z" /><path
     style="clip-rule:evenodd;fill:#ffffff;fill-rule:evenodd"
     id="path17"
     d="m 140.81929,161.12169 -0.6268,0 c -12.22858,-4.15387 -22.34049,-10.93541 -29.31624,-19.95015 -6.66252,-8.65981 -10.42513,-19.39888 -10.42513,-31.74505 0,-5.80018 0.39162,-10.89587 1.25396,-15.63806 0.86235,-4.7422 2.15587,-9.17117 3.99745,-13.63898 l 0.27474,-0.62752 c 3.60546,-0.11688 7.29003,-0.27402 10.77791,-1.21512 2.46909,-0.66601 4.703,-1.80238 6.97646,-2.93947 4.03699,-2.07711 8.03443,-4.11539 16.77443,-4.11539 8.73999,0 12.73743,2.03828 16.77443,4.11539 2.27274,1.13673 4.50665,2.27311 6.97574,2.93947 3.48894,0.9411 7.17316,1.09824 10.77791,1.21512 l 0.27474,0.62752 c 1.84265,4.46781 3.1351,8.89678 3.99745,13.63898 0.86341,4.74219 1.25467,9.83788 1.25467,15.63806 0,12.34581 -3.76261,23.08524 -10.4262,31.74505 -6.97503,9.01438 -17.08694,15.79628 -29.31552,19.95015 l 0,0 z" /><path
     style="clip-rule:evenodd;fill:#008057;fill-rule:evenodd"
     id="path19"
     d="m 140.50535,158.96583 c 11.64026,-3.99745 21.28144,-10.5046 27.90441,-19.12665 6.38921,-8.26926 9.9961,-18.53868 9.9961,-30.41305 0,-5.68329 -0.35278,-10.66068 -1.21619,-15.28528 -0.78289,-4.35022 -1.95846,-8.38721 -3.60583,-12.5026 -4.42754,-0.15644 -7.48638,-0.58832 -9.87601,-1.25433 -2.62552,-0.70555 -4.97774,-1.88113 -7.40799,-3.09589 -3.80109,-1.95988 -7.56371,-3.88057 -15.79413,-3.88057 -8.23042,0 -11.99304,1.92033 -15.79485,3.88057 -2.42989,1.21476 -4.78139,2.39034 -7.40763,3.09589 -2.3907,0.66601 -5.44739,1.09789 -9.87637,1.25433 -1.64594,4.11539 -2.82187,8.15238 -3.60582,12.5026 -0.86163,4.62496 -1.21477,9.60199 -1.21477,15.28528 0,11.87402 3.60583,22.14379 9.99396,30.41305 6.62333,8.62205 16.26486,15.1292 27.90512,19.12665 l 0,0 z" /><path
     style="clip-rule:evenodd;fill:#ffffff;fill-rule:evenodd"
     id="path21"
     d="m 94.92426,70.50756 c 1.09789,0.82314 1.60674,2.03791 1.45067,3.68421 -0.15715,1.64594 -0.94075,3.44868 -2.39106,5.44811 -0.82279,1.13637 -1.60674,2.07712 -2.39034,2.78267 -0.78395,0.74476 -1.09789,1.01878 -1.88184,1.56755 l -2.86107,-1.76389 c 1.09789,-0.62752 1.80309,-1.05798 2.86107,-1.88077 0.9411,-0.70556 1.6855,-1.48987 2.3123,-2.35221 0.15715,-0.19635 0.35278,-0.50957 0.54877,-0.86235 0.23554,-0.39162 0.39198,-0.7052 0.47037,-0.97994 0.11795,-0.31358 0.15715,-0.62681 0.15715,-0.90155 0,-0.27402 -0.11795,-0.50885 -0.39198,-0.70555 -0.27403,-0.19563 -0.54877,-0.19563 -0.9411,-0.0777 -0.35242,0.11759 -0.7444,0.39162 -1.21405,0.82279 -0.47073,0.43153 -0.97994,0.94074 -1.48987,1.45067 -0.50957,0.50956 -0.97994,0.94074 -1.48915,1.37191 -1.17593,0.94074 -2.19507,1.44996 -3.05741,1.60675 -0.90155,0.11759 -1.76389,-0.1176 -2.50829,-0.66601 -1.05798,-0.78395 -1.48987,-1.95952 -1.33272,-3.56662 0.19563,-1.6463 0.94074,-3.37028 2.23426,-5.17337 0.66601,-0.90154 1.41076,-1.76389 2.19507,-2.54784 0.666,-0.66601 1.29281,-1.21477 1.92032,-1.68514 l 2.11667,2.03792 c -1.52906,0.86234 -3.09625,2.2731 -4.07655,3.60546 -0.23483,0.27474 -0.43046,0.58832 -0.5876,0.9019 -0.19564,0.31323 -0.35278,0.62681 -0.43118,0.97923 -0.11759,0.31358 -0.15643,0.58832 -0.11759,0.8627 0.0388,0.27439 0.15643,0.50957 0.35278,0.666 0.27403,0.19564 0.6268,0.23483 0.97994,0.0784 0.35278,-0.19563 0.86163,-0.58761 1.5679,-1.29352 0.43118,-0.43046 0.90083,-0.86163 1.29281,-1.25432 0.43117,-0.43118 0.90154,-0.8228 1.41076,-1.25397 1.05797,-0.86235 1.99872,-1.37192 2.86106,-1.52906 0.86235,-0.15644 1.6463,0.0791 2.4299,0.62752 l 0,0 z" /><path
     style="clip-rule:evenodd;fill:#ffffff;fill-rule:evenodd"
     id="path23"
     d="m 102.56708,55.7714 c -0.66672,-0.19634 -1.33272,-0.23554 -2.11596,-0.0788 -0.62752,0.11759 -1.29388,0.39197 -1.95988,0.74475 -0.666,0.35278 -1.41076,0.90155 -2.23426,1.60675 l -5.52615,4.62496 8.89678,10.62147 3.21385,-2.70427 -2.90027,-3.44868 2.23427,-1.88113 c 0.97994,-0.82315 1.68549,-1.56754 2.11667,-2.3515 0.46965,-0.74475 0.78359,-1.52835 0.94074,-2.39105 0.15608,-0.6268 0.11759,-1.25396 -0.0784,-1.88113 -0.15714,-0.6268 -0.47072,-1.17557 -0.86234,-1.64594 -0.51029,-0.62752 -1.09825,-1.01949 -1.72505,-1.21548 l 0,0 z m -1.09754,5.01622 c 0.0787,0.27474 0.0787,0.58832 0,0.94074 -0.11759,0.39198 -0.31322,0.74476 -0.666,1.13638 -0.31358,0.35349 -0.74475,0.78466 -1.33272,1.25432 l -1.21512,1.01949 -2.66508,-3.17464 0.82386,-0.70556 c 0.54877,-0.47037 1.01878,-0.82315 1.33272,-1.09718 0.35278,-0.27474 0.7444,-0.47037 1.21477,-0.66671 0.31358,-0.11688 0.666,-0.15644 1.05869,-0.11688 0.39162,0.0385 0.7052,0.23483 0.94003,0.50885 0.27367,0.31358 0.43081,0.62681 0.50885,0.90119 l 0,0 z" /><path
     style="clip-rule:evenodd;fill:#ffffff;fill-rule:evenodd"
     id="path25"
     d="m 118.98873,48.12858 c -1.95953,-0.58761 -4.23263,-0.31358 -6.78047,0.74476 -2.58633,1.09717 -4.35022,2.54713 -5.29096,4.35022 -0.94075,1.84193 -0.97994,3.76261 -0.1176,5.80088 0.86235,2.03792 2.27311,3.33144 4.23263,3.91905 1.95952,0.58761 4.23263,0.31358 6.81931,-0.78395 2.58704,-1.09718 4.35058,-2.54713 5.29132,-4.35022 0.94074,-1.80309 0.97994,-3.72342 0.11759,-5.76098 -0.86199,-2.07783 -2.2731,-3.37099 -4.27182,-3.91976 l 0,0 z m -0.62752,10.69952 c -0.43046,0.35278 -0.97994,0.70556 -1.52799,0.94074 -0.54913,0.23554 -1.17593,0.39198 -1.7247,0.43117 -0.54912,0.0392 -1.09717,0 -1.60674,-0.19563 -0.50993,-0.19634 -0.9803,-0.50992 -1.41147,-0.94074 -0.47037,-0.43153 -0.86164,-1.01949 -1.17557,-1.80344 -0.31358,-0.7444 -0.47037,-1.41041 -0.47037,-2.07641 0,-0.66671 0.0784,-1.25432 0.31358,-1.72469 0.27402,-0.50957 0.5876,-0.94074 0.97922,-1.29352 0.43118,-0.31358 0.9803,-0.66672 1.48987,-0.86235 0.54805,-0.23554 1.13637,-0.39198 1.68514,-0.47037 0.54876,-0.0392 1.09789,0.0392 1.6071,0.19563 0.50957,0.19635 0.97994,0.50993 1.44995,0.94074 0.47038,0.43118 0.8228,1.05869 1.17558,1.80309 0.27473,0.70556 0.47072,1.37192 0.47072,1.99908 0.0392,0.58761 -0.0787,1.17557 -0.31358,1.76318 -0.19527,0.50957 -0.54841,0.94074 -0.94074,1.29352 l 0,0 z" /><path
     style="clip-rule:evenodd;fill:#ffffff;fill-rule:evenodd"
     id="path27"
     d="m 137.645,52.24397 c 1.05762,-0.50957 1.84157,-1.13637 2.35114,-1.84193 0.50957,-0.666 0.7052,-1.52835 0.62681,-2.54713 -0.0784,-0.74475 -0.27403,-1.33272 -0.66601,-1.80344 -0.43117,-0.47037 -0.98029,-0.8228 -1.64594,-1.05763 -0.666,-0.27509 -1.33307,-0.39268 -2.07747,-0.43117 -0.7444,-0.0395 -1.60675,0 -2.58633,0.0777 l -7.25084,0.62752 1.21477,13.83532 4.07619,-0.39197 -0.43117,-5.05578 2.15587,-0.19563 c 1.99872,1.52835 3.52742,3.09625 4.38977,4.74184 l 4.78139,-0.27403 c -1.25503,-2.15622 -2.50864,-4.1553 -4.93818,-5.68365 l 0,0 z m -1.6071,-2.62624 c -0.1176,0.23555 -0.31358,0.47038 -0.58832,0.70556 -0.31358,0.23483 -0.7052,0.39198 -1.17557,0.47037 -0.43118,0.11759 -1.01879,0.19563 -1.7247,0.23483 l -1.48915,0.15715 -0.35278,-3.72377 1.76389,-0.15644 c 0.50957,-0.0392 0.97994,-0.0784 1.37192,-0.0784 0.39197,-0.0392 0.7444,0 1.05798,0.0784 0.43117,0.1176 0.7444,0.27474 0.94074,0.50957 0.19634,0.23554 0.31358,0.50993 0.35278,0.86235 0.0388,0.39197 -0.0396,0.70556 -0.15679,0.94038 l 0,0 z" /><polygon
     style="clip-rule:evenodd;fill:#ffffff;fill-rule:evenodd"
     transform="matrix(0.35634172,0,0,0.35634172,66.000001,0)"
     id="polygon29"
     points="240.101,133.963 255.388,135.614 256.267,127.583 256.267,127.583 214.364,123.185 213.484,131.213 228.883,132.863 225.582,163.44 236.911,164.65 " /><polygon
     style="clip-rule:evenodd;fill:#ffffff;fill-rule:evenodd"
     transform="matrix(0.35634172,0,0,0.35634172,66.000001,0)"
     id="polygon31"
     points="255.716,168.5 266.829,171.579 277.496,134.294 277.496,134.294 266.498,131.104 " /><polygon
     style="clip-rule:evenodd;fill:#ffffff;fill-rule:evenodd"
     transform="matrix(0.35634172,0,0,0.35634172,66.000001,0)"
     id="polygon33"
     points="314.231,196.436 335.459,163.109 335.459,163.109 325.78,157.39 312.801,177.409 302.682,145.071 292.343,140.342 276.397,175.759 286.296,180.048 295.976,158.93 305.764,190.605 " /><path
     style="clip-rule:evenodd;fill:#ffffff;fill-rule:evenodd"
     id="path35"
     d="m 194.98288,78.93397 -3.64467,-5.68294 -2.03791,1.48987 1.332,2.1156 -1.99908,1.41147 c -1.21512,-1.37192 -3.09554,-4.19379 -3.01714,-6.07492 0.0385,-1.29352 0.70484,-2.39069 1.91997,-3.2926 0.5876,-0.46965 1.21512,-0.74439 1.84264,-0.86163 0.62645,-0.11795 1.21406,-0.11795 1.80202,0.0392 1.29459,0.35278 2.50972,1.44995 3.2926,2.46909 0.39269,0.54877 0.70555,1.09789 0.98029,1.6463 0.54913,1.25432 0.94075,3.21384 1.17558,4.85979 l 2.62552,-1.95953 c -0.39055,-1.2928 -0.82279,-2.90026 -1.29245,-3.80216 -0.50957,-0.90083 -1.05976,-1.84158 -1.76425,-2.70392 -1.76318,-2.3907 -3.68315,-3.84137 -5.72213,-4.35022 -2.03792,-0.50957 -3.92012,-0.15715 -5.64374,1.13637 -1.80309,1.37192 -2.74348,3.09625 -2.78339,5.17337 0,2.07747 0.82386,4.27182 2.58704,6.58448 0.7444,1.01878 1.60675,1.92104 2.54713,2.78339 0.94074,0.86163 2.3123,2.19435 2.97938,2.66472 l 4.82059,-3.64573 0,0 z" /><path
     style="clip-rule:evenodd;fill:#ffffff;fill-rule:evenodd"
     id="path37"
     d="m 101.86152,160.57257 c -0.35278,0.39269 -0.7444,0.666 -1.21477,0.86235 -0.50957,0.19634 -0.97994,0.27367 -1.48986,0.23483 -0.7052,-0.0385 -1.37121,-0.19528 -1.99873,-0.50957 -0.66671,-0.27474 -1.33271,-0.78289 -2.07711,-1.44996 l -1.76389,-1.64523 -2.46909,2.62553 -2.39106,-2.23319 7.56478,-8.074 4.27183,3.80003 c 0.6268,0.58868 1.09788,1.13673 1.44995,1.64737 0.62752,0.82279 1.09718,2.23426 0.90154,3.25198 -0.078,0.54912 -0.35242,1.01985 -0.78359,1.48986 l 0,0 z m -2.62553,-2.3123 c 0.23483,-0.23483 0.35243,-0.50957 0.35243,-0.82279 0,-0.27474 -0.0784,-0.58761 -0.23483,-0.82387 -0.15715,-0.35171 -0.39198,-0.62645 -0.62681,-0.86127 -0.23554,-0.27474 -0.58761,-0.58868 -1.01949,-0.9803 l -0.70556,-0.666 -2.2731,2.42918 1.01878,0.94181 c 0.43117,0.39162 0.82315,0.70484 1.13637,0.94074 0.31358,0.23483 0.62752,0.35171 0.9411,0.39162 0.27474,0.0385 0.54877,0.0385 0.78395,-0.0784 0.19599,-0.0784 0.43118,-0.2359 0.62716,-0.47073 l 0,0 z" /><path
     style="clip-rule:evenodd;fill:#ffffff;fill-rule:evenodd"
     id="path39"
     d="m 114.0117,169.07773 c -0.9019,1.52728 -2.11702,2.42919 -3.72377,2.70393 -1.60674,0.27473 -3.37028,-0.11688 -5.25176,-1.21406 -1.88113,-1.09825 -3.13545,-2.43025 -3.68422,-3.95967 -0.54877,-1.4888 -0.39198,-3.01715 0.50957,-4.5455 0.86235,-1.5679 2.11667,-2.46909 3.72341,-2.74347 1.56791,-0.27545 3.33144,0.15643 5.21257,1.21406 1.88113,1.09824 3.13545,2.43025 3.68422,3.92011 0.58761,1.52728 0.43081,3.0567 -0.47002,4.6246 l 0,0 z m -5.37007,0.11688 c 0.43153,-0.11688 0.86271,-0.35277 1.25433,-0.666 0.35277,-0.31322 0.70555,-0.70556 1.01949,-1.25396 0.31358,-0.58761 0.50957,-1.13674 0.58761,-1.60782 0.0784,-0.50957 0.0392,-0.97923 -0.0784,-1.37191 -0.11795,-0.39162 -0.31358,-0.78289 -0.58761,-1.09611 -0.31358,-0.3143 -0.70555,-0.62752 -1.05869,-0.82386 -0.39162,-0.23483 -0.82315,-0.39269 -1.21477,-0.46966 -0.43117,-0.11795 -0.82315,-0.11795 -1.25432,0 -0.43117,0.0773 -0.82315,0.27474 -1.25432,0.62645 -0.39198,0.31322 -0.7444,0.74546 -1.09789,1.33307 -0.31322,0.54805 -0.50957,1.09718 -0.58725,1.56684 -0.0784,0.51063 -0.0396,0.98029 0.0777,1.37298 0.11795,0.39162 0.31358,0.78288 0.58832,1.09718 0.31358,0.31322 0.666,0.62645 1.05798,0.82279 0.39198,0.23483 0.86235,0.4301 1.29352,0.50957 0.39233,0.0784 0.82351,0.0784 1.25432,-0.0396 l 0,0 z" /><path
     style="clip-rule:evenodd;fill:#ffffff;fill-rule:evenodd"
     id="path41"
     d="m 126.43556,178.05256 -3.91905,-1.25397 c -0.15715,-1.68585 -1.01949,-3.33251 -2.11667,-4.97774 l -1.6855,-0.54912 -1.25396,3.88056 -3.17465,-1.01878 3.40948,-10.54308 5.60454,1.80202 c 0.78395,0.2359 1.41076,0.51064 1.92104,0.74546 0.54876,0.27474 1.01842,0.58761 1.41075,0.97923 0.43118,0.39269 0.70521,0.82386 0.86235,1.29459 0.15608,0.46966 0.15608,0.9803 0,1.52835 -0.27474,0.78395 -0.70555,1.37192 -1.29387,1.68514 -0.62681,0.35278 -1.37121,0.54912 -2.31195,0.62752 1.09718,1.52799 1.95952,3.44903 2.54749,5.79982 l 0,0 z m -2.4299,-8.85795 c 0.0784,-0.27474 0.0784,-0.50956 0.0392,-0.74439 -0.0784,-0.23483 -0.27474,-0.47073 -0.54877,-0.66601 -0.19634,-0.15643 -0.47037,-0.27474 -0.74475,-0.39162 -0.31322,-0.11794 -0.666,-0.23589 -1.05798,-0.39268 l -1.41076,-0.43118 -0.94074,2.82294 1.25397,0.39055 c 0.50957,0.19742 0.98029,0.3143 1.37227,0.39269 0.35242,0.0784 0.7052,0.0784 0.97994,0 0.27403,-0.0784 0.50957,-0.19527 0.666,-0.31429 0.15608,-0.15644 0.31323,-0.35171 0.39162,-0.66601 l 0,0 z" /><polygon
     style="clip-rule:evenodd;fill:#ffffff;fill-rule:evenodd"
     transform="matrix(0.35634172,0,0,0.35634172,66.000001,0)"
     id="polygon43"
     points="195.996,476.131 208.535,477.23 209.084,470.741 209.084,470.741 175.54,467.881 174.989,474.262 187.417,475.364 185.329,499.888 193.906,500.659 " /><path
     style="clip-rule:evenodd;fill:#ffffff;fill-rule:evenodd"
     id="path45"
     d="m 154.26193,166.4123 -3.40948,0.35278 0.58761,6.93726 c 0.0784,0.82279 -0.0784,1.4104 -0.46966,1.80202 -0.35278,0.39269 -1.09718,0.62751 -1.95953,0.70555 -0.9019,0.0795 -1.68585,-0.0385 -2.11702,-0.35277 -0.43118,-0.35278 -0.666,-0.90084 -0.7444,-1.68514 l -0.58761,-6.85887 -3.37099,0.23483 0.58761,7.09369 c 0.11795,1.37299 0.74546,2.35222 1.80309,2.97938 1.09717,0.66707 2.62659,0.9019 4.62496,0.70555 1.95952,-0.1575 3.44938,-0.666 4.38977,-1.48986 0.97923,-0.82279 1.37192,-1.88113 1.25397,-3.25304 l -0.58832,-7.17138 0,0 z" /><path
     style="clip-rule:evenodd;fill:#ffffff;fill-rule:evenodd"
     id="path47"
     d="m 170.09597,166.8424 -4.85979,1.48987 0.58761,1.99907 1.88113,-0.5876 0.62752,2.07747 c -1.44996,0.58761 -3.64538,1.17557 -5.13525,0.58761 -0.97922,-0.39269 -1.60567,-1.17664 -1.998,-2.35222 -0.15644,-0.5876 -0.19635,-1.09717 -0.11688,-1.60674 0.15572,-1.05762 0.78288,-1.84264 1.64523,-2.43025 0.43224,-0.27474 1.05762,-0.54805 1.6463,-0.7444 0.50956,-0.15643 1.01878,-0.23483 1.52834,-0.27474 1.0587,-0.0385 2.4691,0.11795 3.56734,0.3143 l -0.78502,-2.50972 c -1.05762,-0.0773 -1.99801,-0.0374 -2.82187,0.0795 -0.78288,0.11795 -1.64523,0.27474 -2.46802,0.54806 -2.27382,0.70662 -3.88056,1.72469 -4.85979,3.13616 -0.94074,1.37192 -1.17664,2.90027 -0.66707,4.54657 0.50957,1.72469 1.56683,2.90133 3.13509,3.48787 1.52942,0.58761 3.40948,0.54912 5.64374,-0.11688 0.94074,-0.27474 1.8822,-0.66707 2.78339,-1.13673 0.9019,-0.47073 1.72469,-0.94074 2.27381,-1.29352 l -1.60781,-5.21364 0,0 z" /><path
     style="clip-rule:evenodd;fill:#ffffff;fill-rule:evenodd"
     id="path49"
     d="m 186.47878,164.1 -3.13616,1.84264 -1.95953,-1.48987 -4.35022,2.54714 0.27368,2.39176 -3.05564,1.76211 -1.17664,-12.11099 3.48895,-1.998 9.91556,7.05521 0,0 z m -6.85993,-0.9803 -3.40841,-2.58704 0.5085,4.27182 2.89991,-1.68478 0,0 z" /><polygon
     style="clip-rule:evenodd;fill:#ffffff;fill-rule:evenodd"
     transform="matrix(0.35634172,0,0,0.35634172,66.000001,0)"
     id="polygon51"
     points="358.997,431.917 346.018,444.013 329.079,425.867 322.37,432.136 343.487,454.906 363.286,436.537 358.997,431.917 " /><path
     style="clip-rule:evenodd;fill:#008057;fill-rule:evenodd"
     id="path53"
     d="m 92.53392,30.96218 c 1.332,0 6.70172,0.15714 11.13033,-1.05798 3.21385,-0.90155 6.3101,-2.82187 5.56535,-4.62496 -0.7052,-1.60675 -3.76262,-1.6463 -7.36844,-0.82315 -4.54585,1.05798 -9.13161,0.70556 -10.69916,0 -1.76425,-0.7836 -3.21384,-2.19507 -3.91976,-4.07619 -0.70555,-1.95953 0.15644,-4.74184 2.07712,-6.85887 1.92104,-2.1156 4.78175,-3.84029 8.54436,-5.21185 3.60547,-1.33272 7.25049,-1.99872 11.01345,-2.3907 l 2.42919,5.21257 c -2.07712,-0.0392 -4.54585,0.0392 -7.17209,0.54876 -2.66508,0.46966 -5.52579,1.37192 -7.17209,2.90027 -1.52835,1.45067 -0.78396,3.44939 1.37191,3.21384 1.21477,-0.11759 2.78267,-0.27402 4.19379,-0.43117 3.52707,-0.31358 7.25048,-0.86235 10.69951,0.15715 6.89736,2.03792 5.21257,8.70044 1.01879,12.50189 -1.60675,1.44995 -3.52743,2.58704 -5.21257,3.37028 -4.23263,1.95952 -9.17117,2.70428 -13.67818,3.05741 l -2.82151,-5.4873 0,0 z" /><path
     style="clip-rule:evenodd;fill:#008057;fill-rule:evenodd"
     id="path55"
     d="M 155.6734,2.42989 C 153.75236,1.64594 151.7148,1.01914 149.56,0.62681 147.44261,0.19563 145.1688,0 142.8565,0 c -2.93875,0 -5.76062,0.35242 -8.42606,1.01878 -4.38942,1.13637 -9.13197,3.40948 -11.67946,7.36844 -1.05798,1.68549 -1.56754,3.44938 -1.56754,5.369 0,2.19506 0.7052,4.27253 2.11595,6.11411 2.90027,3.80216 7.91685,5.99652 12.46341,6.97646 2.23426,0.47072 4.58576,0.62751 7.01494,0.62751 2.31231,0 4.50773,-0.19634 6.62404,-0.58832 2.11596,-0.39162 4.78139,-1.4104 6.54564,-2.15515 l -0.0396,-6.3885 c -3.91905,2.03792 -8.19087,3.25305 -12.62056,3.25305 -4.81987,0 -12.3451,-1.68514 -12.3451,-7.91685 0,-6.19215 7.48567,-7.87729 12.3451,-7.87729 4.11539,0 8.93634,0.97994 12.38573,3.1351 l 0,-6.50645 3.6e-4,0 z" /><path
     style="clip-rule:evenodd;fill:#008057;fill-rule:evenodd"
     id="path57"
     d="m 170.17401,31.66773 3.05777,-9.60234 7.01458,2.23426 c 2.31231,0.70521 6.03608,1.25397 9.21108,0.15644 4.50772,-1.60675 5.87964,-6.54529 3.1351,-10.38594 -1.13673,-1.6071 -2.86143,-2.90026 -4.50666,-3.72341 -1.76425,-0.86235 -5.21256,-1.88113 -8.34873,-2.93946 l -9.9544,-3.29225 -7.83917,24.84843 8.23043,2.70427 0,0 z m 15.40287,-13.95256 c -0.62645,2.07712 -4.62389,1.60675 -6.15331,1.13638 l -4.66451,-1.44996 1.76425,-5.80017 5.29096,1.68549 c 1.80416,0.58761 4.46817,2.2332 3.76261,4.42826 l 0,0 z" /><path
     style="clip-rule:evenodd;fill:#f3c242;fill-rule:evenodd"
     id="path59"
     d="m 148.38336,81.67744 c -0.9803,0.74476 -1.76318,1.37121 -2.58704,1.60675 -0.0784,0 -0.0784,0.11795 -0.0385,0.11795 0.62645,0.27402 1.44996,0.23483 2.3123,0.23483 0.8228,-0.0392 1.72363,-0.0392 2.50758,0.15714 0.54912,0.11688 0.94074,0.39198 1.25468,0.7052 0.27474,0.35278 0.46966,0.74476 0.50957,1.09718 -0.9803,-0.50957 -1.92104,-0.7444 -2.74348,-0.7052 -0.35278,0 -0.70555,0.0788 -0.98029,0.23483 -0.31323,0.15643 -0.54806,0.39269 -0.70556,0.66671 -0.19528,0.31358 -0.27474,0.7052 -0.27474,1.17593 0.0395,0.0385 0.0795,0.0784 0.11795,0.0385 0.39269,-0.23483 0.78395,-0.39162 1.17664,-0.47037 0.35278,-0.1176 0.70484,-0.15608 1.05762,-0.1176 0.82279,0.0392 1.52835,0.35278 2.07747,0.82315 0.54806,0.47037 0.9019,1.09718 0.9019,1.7247 0.0385,0.54912 0.0784,1.13637 0.19528,1.64594 0.0784,0.43117 0.23483,0.82279 0.43117,1.21512 -0.54805,-0.23483 -0.90083,-0.74439 -1.25396,-1.25432 -0.50957,-0.666 -1.01878,-1.3712 -1.95953,-1.52835 -0.39269,-0.0784 -0.82279,0 -1.21512,0.19635 -0.39269,0.19527 -0.70556,0.54876 -0.94181,0.97922 -0.0385,0.0784 0,0.11795 0.0795,0.11795 0.7444,-0.0396 1.4104,0.11688 1.95952,0.43046 0.62752,0.3143 1.13602,0.82386 1.52835,1.41076 0.8228,1.29352 0.90191,2.43025 0.94075,3.41055 0.0395,0.78288 0.0784,1.44959 0.47072,2.0764 -0.94181,-0.35242 -1.48986,-1.37192 -1.95952,-2.3123 -0.27474,-0.54877 -0.50957,-1.01878 -0.82386,-1.37121 -0.15644,-0.15714 -0.31323,-0.27509 -0.50957,-0.39197 -0.31322,-0.1575 -0.62645,-0.23554 -0.97923,-0.19635 -0.35384,0.0784 -0.66707,0.23555 -0.94181,0.50993 -0.19527,0.15608 -0.39055,0.39162 -0.50957,0.66565 -0.0385,0.0395 0,0.11794 0.0396,0.11794 0.78395,0 1.52835,0.31359 2.11595,0.90191 0.54913,0.50885 0.94075,1.29245 1.09825,2.23355 0.0773,0.74475 0.0773,1.60674 0.0385,2.46873 -0.0385,1.72434 -0.0784,3.48752 0.94075,4.58469 -1.84158,-0.31215 -2.23427,-1.95845 -2.6266,-3.5652 -0.11688,-0.47179 -0.23483,-0.9019 -0.39162,-1.33307 -0.19634,-0.62645 -0.54805,-1.13637 -0.94074,-1.52835 -0.46966,-0.43117 -0.9803,-0.66671 -1.44995,-0.74475 -0.0396,0 -0.0784,0.0784 -0.0396,0.15714 0.74547,0.7836 1.01985,1.7247 1.01985,2.74277 0,1.01949 -0.2359,2.15658 -0.54805,3.3717 -0.23697,0.89976 -0.3143,1.80202 -0.15751,2.58597 0.11795,0.7444 0.39269,1.37192 0.90084,1.88113 0.0396,0.0396 0.11901,0 0.11901,-0.0395 0.0773,-0.66494 0.19528,-1.21513 0.43011,-1.64523 0.23483,-0.39269 0.50957,-0.74547 0.86235,-1.05763 0,0.23483 0,0.46966 0,0.7444 0.0396,1.95846 0.0784,4.037 0.27474,5.52579 0.11794,0.94075 0.74439,2.4691 1.48986,3.91905 0.90083,1.76425 1.95845,3.44832 2.54713,4.07584 0.97923,1.01985 2.03792,1.60674 3.09554,1.84264 0.90083,0.19634 1.80309,0.11688 2.54713,-0.19634 0.78395,-0.27474 1.41147,-0.8228 1.84265,-1.4888 0.43117,-0.62752 0.666,-1.41147 0.62751,-2.27382 -0.0795,-1.21405 -0.27474,-2.1548 -0.9019,-3.60582 -0.62752,-1.4104 -1.64523,-3.33144 -3.25304,-6.46618 -0.82279,-1.56683 -1.4888,-3.21349 -1.76318,-4.85978 -0.27545,-1.68586 -0.15643,-3.371 0.58761,-5.05578 0.51063,-1.25432 1.332,-2.23426 2.39069,-2.90027 0.9803,-0.58832 2.15587,-0.9019 3.48788,-0.74475 0,0 0.0395,-0.0385 0.0784,-0.0385 0.19635,-0.47144 0.50957,-0.78467 0.9019,-1.01985 0.43118,-0.23483 0.93968,-0.35243 1.44996,-0.39198 0.70484,0 1.41147,0.11795 2.03898,0.35349 0.27367,0.0784 0.54806,0.23483 0.78289,0.35242 0.46966,0.23483 0.94074,0.47073 1.52835,0.47073 0.666,0.0392 1.33307,-0.31358 1.95952,0 -0.43117,0.0392 -0.78395,0.27403 -1.13602,0.46966 -0.43224,0.23554 -0.86234,0.47037 -1.52942,0.50957 -0.74439,0.0396 -1.332,-0.15608 -2.03791,-0.43118 -0.0396,-0.0385 -0.0784,0 -0.11795,0.0396 0,0.0385 0,0.0784 0,0.0784 0,1.05798 1.92103,1.21477 2.70499,1.05798 0.43117,-0.11759 0.94074,-0.19634 1.21512,-0.11759 -0.39269,0 -0.74547,0.23483 -1.13673,0.43117 -0.47073,0.23483 -1.44995,0.47037 -2.27275,0.47037 -0.47072,0 -0.94074,-0.11795 -1.17557,-0.39269 -0.0395,-0.0392 -0.1575,-0.0392 -0.1575,0.0396 0,0.0788 0,0.15714 0.0385,0.23483 0.0396,0.43153 0.43225,0.70555 0.82387,0.82315 0.43117,0.11795 0.90083,0.0392 1.25396,0 0.54913,-0.0784 0.9803,-0.1176 1.60675,0 -0.62645,0.15714 -1.13602,0.39197 -1.68514,0.6268 -1.21513,0.54877 -2.42918,0.9411 -3.76261,0.66672 -0.86235,-0.19563 -1.56684,-0.70556 -1.80202,-1.52835 -0.15751,-0.50957 -0.15751,-1.09789 0,-1.64595 0,-0.0396 0,-0.0788 -0.0795,-0.0788 -0.62645,-0.11795 -1.25396,-0.0396 -1.80309,0.19564 -0.62752,0.27473 -1.17557,0.70555 -1.64523,1.21512 -0.78502,0.90154 -1.21512,1.95988 -1.37191,3.09625 -0.15751,1.25433 0,2.62624 0.39162,3.91976 0.31322,1.09718 0.82279,2.19435 1.44995,3.29153 0.58761,1.13602 1.29352,2.19542 1.95952,3.2926 0.43118,0.666 0.8228,1.332 1.21513,1.99801 0.39162,0.62751 0.74547,1.25468 1.09718,1.88112 0.43117,0.70556 0.62751,1.37192 0.74546,2.03792 0.11688,0.62752 0.11688,1.25468 0.11688,1.84265 -0.0395,1.17557 -0.35171,2.27274 -0.94074,3.21349 -0.58761,0.9019 -1.41147,1.68585 -2.5482,2.35221 -0.0773,0.0396 -0.0773,0.11688 0,0.11688 0.35278,0.1575 0.74547,0.23483 1.13673,0.11795 0.35278,-0.0784 0.70556,-0.27474 1.05869,-0.54806 -0.39162,0.86235 -1.09717,1.44996 -1.95952,1.80309 -1.09825,0.43118 -2.43025,0.46966 -3.8011,0.19528 -0.0396,0 -0.0795,0.0396 -0.0795,0.11688 0.11902,0.5876 0.35278,1.13673 0.70662,1.5679 0.23376,0.27474 0.54806,0.50957 0.89977,0.66707 0.35277,0.11688 0.78502,0.15644 1.21512,0.0773 0.54806,-0.11688 1.21513,-0.43011 1.8822,-0.97816 0.31322,2.1548 -1.41147,3.09554 -3.25411,4.07584 -0.23376,0.11688 -0.43011,0.23483 -0.62752,0.31322 -0.62645,0.39162 -1.2529,0.97923 -1.60568,1.6463 -0.31429,0.62752 -0.47179,1.33201 -0.27474,1.99908 0,0.0784 0.0784,0.0784 0.11688,0.0385 0.39269,-0.39162 0.94075,-0.62752 1.52942,-0.90083 0.94074,-0.43224 1.99801,-0.94181 2.70392,-2.11703 0.3143,0.51064 0.43118,1.01879 0.35171,1.48987 -0.0773,0.58761 -0.39162,1.13673 -0.86235,1.52835 -1.25289,1.13673 -2.27274,1.41147 -2.78231,1.60674 -0.15572,0.0396 -0.27474,0.0396 -0.35171,0.0784 -0.31429,0.15643 -0.58868,0.35278 -0.90297,0.58868 -0.35064,0.27367 -0.66493,0.5876 -0.93967,0.86127 l -0.0385,0.0396 c -0.1575,0.31429 -0.27474,0.62752 -0.31429,0.94181 -0.0385,0.31108 0.0396,0.62538 0.19634,0.89976 0.0385,0.0385 0.0784,0.0385 0.11795,0.0385 0.23483,-0.15572 0.62752,-0.19528 1.01771,-0.23376 0.3143,-0.0396 0.62752,-0.0795 0.9019,-0.15644 -0.19527,0.58761 -0.54912,1.01771 -0.94181,1.37192 -0.46859,0.35278 -1.01771,0.666 -1.60567,0.94074 -0.31323,0.15572 -0.70556,0.54805 -0.9803,1.01771 -0.31322,0.50957 -0.54805,1.09718 -0.70484,1.7247 -0.19635,0.70555 -0.0396,1.37191 0.11688,1.99907 0.11795,0.43118 0.2359,0.86235 0.27474,1.29352 0,0.54913 -0.35171,0.97923 -0.86235,1.29245 -0.62645,0.39269 -1.52835,0.62752 -2.3123,0.66708 0.39162,-0.78396 0.2359,-1.33308 0.11795,-1.8822 -0.0795,-0.27367 -0.15644,-0.54805 -0.15644,-0.86128 0,-0.0385 -0.0395,-0.0784 -0.0784,-0.0784 -0.35385,0 -0.74547,0.46965 -1.13673,0.93967 -0.19528,0.23697 -0.39269,0.43224 -0.58761,0.62752 -0.62752,0.5876 -1.48986,0.62752 -2.27382,0.66707 -0.31322,0 -0.62644,0 -0.90083,0.0784 0,-0.0385 0,-0.0784 0.0385,-0.1575 0.19634,-0.82279 0.35278,-1.4104 0.62752,-1.8405 0.11688,-0.2359 0.3517,-0.43225 0.58867,-0.62752 0.23483,-0.19635 0.5085,-0.39269 0.66494,-0.66707 0.0395,0 0.0395,-0.0385 0,-0.0784 -0.31323,-0.7444 -1.33201,-0.54805 -2.38963,-0.35171 -0.47073,0.0773 -0.94181,0.15644 -1.33343,0.15644 -0.0392,-0.39269 -0.0392,-0.7444 0.0395,-1.01878 0.0388,-0.35278 0.15608,-0.58761 0.31358,-0.70556 0.666,-0.7444 1.64523,-0.58761 2.66508,-0.43224 0.70485,0.0795 1.44996,0.19741 2.11596,0 0.7444,-0.58654 1.37191,-1.21406 1.92104,-1.91997 0.5085,-0.7444 0.97922,-1.48987 1.332,-2.35221 0.35278,-1.01772 0.43118,-1.91997 0.27474,-2.58598 -0.11795,-0.46966 -0.31429,-0.82386 -0.58868,-1.05869 l 0,0.0396 c -0.31322,-0.27474 -0.70484,-0.39269 -1.13601,-0.35278 -0.62752,0.0395 -1.41147,0.31322 -2.27382,0.86234 0.27474,-2.23426 -0.46966,-3.05669 -1.5679,-4.31173 -0.0374,-0.0385 -0.11688,-0.11795 -0.15644,-0.19528 -0.31322,-0.35277 -0.82279,-0.9019 -1.21512,-1.44995 -0.43011,-0.54912 -0.78288,-1.09718 -0.78288,-1.44995 0,-0.0795 0,-0.19742 0,-0.27474 -0.0396,-1.60782 -0.0396,-2.66508 0.54805,-3.76262 0.23483,-0.47072 0.50957,-0.9019 0.78395,-1.33307 0.27474,-0.46966 0.54805,-0.90083 0.74547,-1.29352 0.31322,-0.58761 0.4301,-1.09718 0.0395,-1.33308 0.27367,-0.54805 0.11688,-0.97922 -0.43224,-1.332 -0.54805,-0.39269 -1.48987,-0.666 -2.70463,-0.94074 -1.25326,-0.23483 -2.11596,-0.43118 -2.93911,-0.66494 -0.7836,-0.23589 -1.44996,-0.54912 -2.15516,-0.94181 -0.7052,-0.43117 -1.48915,-1.05762 -2.11667,-1.72362 -0.5876,-0.54913 -1.01878,-1.13673 -1.17557,-1.60675 0.7052,-0.27545 1.29281,-0.62752 1.7247,-1.09824 0.0385,-0.0396 0,-0.11688 -0.0396,-0.11688 -1.64594,0.0773 -3.17465,-0.86235 -4.50665,-1.64737 -0.9803,-0.54805 -1.84193,-1.05762 -2.50865,-1.05762 -0.50957,0 -1.01878,0.0784 -1.41075,0.23483 -0.39162,0.1575 -0.7052,0.39268 -0.94075,0.74546 0,0.0385 0.0396,0.11688 0.0788,0.11688 1.21476,-0.23483 1.88112,0.31323 2.58632,0.94075 0.54877,0.46965 1.13638,0.98029 2.11596,1.25467 -1.05798,0.54806 -1.88077,0.70485 -2.62552,0.62752 -0.78396,-0.11795 -1.52835,-0.55019 -2.4691,-1.05976 -0.70555,-0.39055 -1.45066,-0.78288 -2.19506,-0.90083 -0.7052,-0.15643 -1.41076,-0.0395 -2.03828,0.51064 -0.0784,0.0374 -0.0392,0.11688 0,0.11688 0.58832,0.19527 1.09789,0.47073 1.48987,0.78288 0.35278,0.31429 0.6268,0.66707 0.78395,1.09825 -0.74475,-0.2359 -1.48986,-0.47073 -2.19506,-0.62752 -0.74476,-0.19635 -1.45067,-0.31323 -2.11667,-0.31323 -0.78396,0 -1.52835,0.27474 -2.31231,0.54806 -0.31358,0.11902 -0.666,0.19634 -0.97994,0.31429 -1.72469,0.43011 -2.23426,0.82279 -2.78267,1.17557 -0.11759,0.11688 -0.27402,0.23483 -0.47037,0.35278 -0.11759,0.0385 -0.31322,0.11688 -0.50957,0.15643 -0.31322,0.11795 -0.70555,0.19528 -1.05798,0.50957 -0.0392,-0.11688 -0.0392,-0.27474 -0.0788,-0.39162 -0.0392,-0.62751 0.0396,-1.25396 0.35278,-1.72469 0.27474,-0.47073 0.82315,-0.86235 1.6071,-1.01878 0.15644,-0.0396 0.35242,-0.0396 0.50886,-0.0795 0.0788,0 0.11795,-0.0773 0.0395,-0.11688 -0.90154,-1.05869 -1.41076,-0.86234 -2.3515,-0.50956 -0.19634,0.0784 -0.47037,0.19634 -0.74475,0.27474 -0.11759,0.0395 -0.23483,0.15643 -0.31323,0.31322 -0.0787,0.15643 -0.15714,0.31322 -0.19634,0.47073 -0.62752,-1.41147 -0.0784,-2.11703 0.78395,-2.47016 0.94074,-0.35171 2.23426,-0.35171 2.90027,-0.35171 0.0392,0 0.0784,-0.0396 0.0784,-0.11795 -0.23483,-0.43118 -0.46966,-0.70485 -0.7052,-0.86235 -0.27474,-0.15643 -0.58832,-0.19634 -1.01949,-0.23483 -0.0784,0 -0.15644,-0.0396 -0.23483,-0.0396 -0.19563,-0.0784 -0.47037,-0.11795 -0.74476,-0.0385 0.0392,-0.43117 0.15715,-0.78395 0.35278,-1.01878 0.19635,-0.23483 0.47037,-0.35278 0.86235,-0.35278 0.94074,0.0385 1.72469,0.46966 2.54784,0.94075 0.90083,0.50956 1.84158,1.01878 3.0959,1.01878 0.9803,-0.0396 1.84193,-0.2359 2.66508,-0.58761 0.82315,-0.35385 1.60674,-0.78395 2.3907,-1.33308 0.35277,-0.23482 0.62751,-0.43117 0.94074,-0.62751 1.13673,-0.8228 2.23426,-1.56791 3.25304,-1.88006 0.27403,0.27474 0.7052,0.39162 1.25432,0.4301 0.54877,0 1.25397,-0.11795 2.07712,-0.35278 0.19563,-0.0773 0.39198,-0.11688 0.58832,-0.15572 0.94074,-0.23483 1.84158,-0.47179 2.3123,-0.86234 0.54806,-0.43225 0.97923,-0.86235 1.29281,-1.37192 0.27474,-0.47073 0.47037,-0.9803 0.58832,-1.60781 0,-0.0396 -0.11795,-0.0784 -0.15715,-0.0396 -1.05797,1.17664 -1.95952,1.37299 -2.78267,1.52942 -0.43117,0.0784 -0.86235,0.19528 -1.29352,0.43011 -0.86235,0.58867 -1.64594,1.01985 -2.27275,1.25467 -0.58832,0.23483 -1.05869,0.31323 -1.41075,0.23483 0.15643,-0.86234 0.47037,-1.68514 0.94003,-2.3123 0.47072,-0.70484 1.09788,-1.21405 1.80308,-1.52728 0.82315,-0.39304 1.72506,-0.70591 2.54785,-0.98065 1.84193,-0.62681 3.40948,-1.13637 3.64502,-2.23355 0,-0.0392 -0.0396,-0.11795 -0.0784,-0.0787 -1.52906,0.47073 -2.43025,0.47073 -3.37099,0.47073 -0.43117,0 -0.90154,0 -1.41076,0.0777 0.0788,-0.43011 0.39269,-0.7836 0.94075,-1.13638 0.54876,-0.35242 1.37191,-0.6268 2.23426,-0.94003 0.31322,-0.11794 0.66671,-0.1967 1.01878,-0.31358 1.05869,-0.31358 2.3123,-0.666 2.93982,-1.33271 0.27402,-0.23555 0.39162,-0.54913 0.43046,-0.82315 0.0392,-0.15644 0.0392,-0.31358 0,-0.47037 -0.0392,-0.1176 -0.11759,-0.27367 -0.23554,-0.35243 -0.11688,-0.11866 -0.23483,-0.1967 -0.43046,-0.1967 -0.31323,-0.0385 -0.82315,0.0784 -1.37192,0.35349 -0.50957,0.27403 -1.09718,0.66601 -1.68514,1.13638 -0.82315,-0.47037 -1.44995,-0.97994 -1.84193,-1.52835 -0.31358,-0.50957 -0.43153,-1.0195 -0.23554,-1.48915 2.23355,0.31358 3.64502,0.35277 4.50665,0.11759 0.9411,-0.27403 1.29352,-0.78395 1.41147,-1.6071 0.0784,-0.50886 -0.11795,-0.97994 -0.50957,-1.44996 -0.27474,-0.27402 -0.5876,-0.50885 -0.97994,-0.7052 -0.35278,-0.19634 -0.82315,-0.35278 -1.29352,-0.43117 -1.33272,-0.23483 -2.97901,0.11759 -4.42897,1.4104 -0.39162,-0.15608 -0.6268,-0.39162 -0.78395,-0.62681 -0.11759,-0.19563 -0.15643,-0.43046 -0.15643,-0.666 0.0392,-0.23483 0.11794,-0.47073 0.27474,-0.6268 0.19563,-0.27403 0.47037,-0.47037 0.82279,-0.54877 0.0787,-0.0392 0.0787,-0.15715 0,-0.15715 -0.15644,-0.0392 -0.27403,-0.0392 -0.39162,-0.0392 -0.47037,-0.0777 -0.78395,-0.1176 -0.9803,-0.23555 -0.11688,-0.0784 -0.11688,-0.19527 0,-0.39197 l 0.35278,-0.666 c 1.6463,-0.43046 2.74348,-0.62681 3.60582,-0.58761 0.82315,0.0788 1.37192,0.39197 1.88113,1.01949 0.0392,0.0385 0.0784,0.0385 0.11795,0.0385 0.43117,-0.35242 1.01842,-0.54877 1.56755,-0.70485 0.74439,-0.27474 1.4104,-0.47144 1.68514,-0.98029 0.0392,-0.0396 0,-0.11795 -0.0392,-0.11795 -0.90155,0.11795 -1.6855,0.15714 -2.3907,0.19634 -0.70555,0 -1.25396,-0.0392 -1.72398,-0.11795 -0.43153,-0.0784 -0.74475,-0.31358 -0.9019,-0.54876 -0.0777,-0.15608 -0.11759,-0.27403 -0.11759,-0.43118 0,-0.11759 0.0788,-0.27402 0.15643,-0.39162 0.15715,-0.23483 0.47073,-0.43117 0.9019,-0.47037 0.39162,-0.0784 0.86235,-0.0392 1.4104,0 0.54913,0.0777 1.17664,0.19563 1.84193,0.31323 0.0392,0 0.0788,0 0.0788,0 1.998,-1.44996 3.29152,-1.09718 4.81987,-0.66601 1.1378,0.31359 2.47016,0.66601 4.31174,0.43047 0.004,3.5e-4 -0.0353,0.0403 -0.0748,0.0791 l 0,0 z" /><path
     style="clip-rule:evenodd;fill:#f3c242;fill-rule:evenodd"
     id="path61"
     d="m 111.73789,89.71188 c 0.27474,0.0392 0.43117,0.15715 0.58832,0.27403 0.0784,0.0788 0.15643,0.11795 0.19563,0.1575 0.35278,0.11688 0.70555,0.31251 0.98029,0.58761 0.23483,0.23483 0.43046,0.54876 0.58761,0.90083 0,0.0784 -0.0395,0.11759 -0.0784,0.11759 -0.39269,0.0396 -0.70556,-0.15608 -1.05869,-0.39162 -0.50957,-0.31358 -1.0587,-0.66671 -2.03792,-0.31358 1.17557,2.50865 2.03792,2.66473 4.15387,3.0175 0.47073,0.11867 1.05798,0.19635 1.7247,0.35278 0.78395,0.15644 1.41147,0.43153 1.88112,0.82315 0.31358,0.23483 0.54877,0.50886 0.66672,0.82279 0.11759,0.31358 0.15643,0.66672 0.0784,1.0195 -0.0784,0.39162 -0.27473,0.74475 -0.5876,1.17593 0.6268,0 1.37191,-0.19671 2.03792,-0.39198 0.94074,-0.23483 1.76389,-0.43117 2.2731,-0.19634 0.0392,0.0392 0.0392,0.11759 0,0.15714 -0.50957,0.15644 -0.78395,0.39198 -1.17557,0.74476 -0.50993,0.47037 -1.21513,1.09717 -2.86107,1.92032 0.58725,0.27438 1.13637,0.35135 1.72398,0.31394 0.62681,-0.0396 1.25432,-0.27474 1.92033,-0.62752 0.0784,-0.0392 0.19634,-0.11795 0.35278,-0.19634 0.74475,-0.47037 2.07747,-1.33272 3.01821,-0.62645 0.0392,0.0385 0,0.15608 -0.0787,0.15608 -1.01878,-0.0392 -1.52835,0.5876 -2.11596,1.33164 -0.43117,0.58868 -0.9411,1.21513 -1.80309,1.7247 1.7247,0.23697 3.0175,-0.0374 3.9978,-0.62645 1.01842,-0.62645 1.76318,-1.56719 2.42989,-2.58597 0.58761,-0.9411 1.13638,-1.41147 1.56684,-1.80345 0.19634,-0.15643 0.35278,-0.31358 0.47073,-0.43117 -0.62752,-0.15644 -1.37192,-0.15644 -2.07748,-0.19563 -0.70555,0 -1.37191,-0.0396 -1.99872,-0.11795 -0.74439,-0.15644 -1.44995,-0.31251 -2.07711,-0.54806 -0.66672,-0.23589 -1.25433,-0.54912 -1.80309,-0.9019 -1.05798,-0.7052 -1.80309,-1.4104 -2.3515,-2.07711 -0.58832,-0.66672 -0.94074,-1.33272 -1.17557,-1.92033 -0.11795,-0.2359 -0.19635,-0.47037 -0.27474,-0.66671 -0.54912,-1.37192 -1.09789,-2.70428 -3.09625,-2.46909 0.31358,0.50956 0.54876,0.98029 0.74475,1.41075 0.23483,0.50993 0.35278,0.94074 0.39162,1.37192 0,0.0788 -0.11759,0.11688 -0.15644,0.0392 -0.50956,-0.97994 -1.21512,-1.80238 -1.92032,-2.19507 -0.35242,-0.19563 -0.7052,-0.31322 -1.01949,-0.35242 -0.35243,0 -0.70485,0.0392 -1.01843,0.23483 -0.35171,0.19741 -0.70484,0.47179 -1.01842,0.98065 l 0,0 z" /><path
     style="clip-rule:evenodd;fill:#f3c242;fill-rule:evenodd"
     id="path63"
     d="m 119.14552,130.86436 c 0.15714,0 0.35278,-0.0395 0.54876,-0.0395 0.15715,0 0.27474,-0.0374 0.39198,-0.0374 0.82315,-0.1575 1.41076,-0.19741 1.80309,-0.0396 0.39198,0.11688 0.62752,0.4301 0.66671,0.9019 0,0.0374 -0.0392,0.11688 -0.0787,0.11688 -0.31322,0 -0.6268,-0.0396 -0.94074,-0.0396 -0.7444,-0.0396 -1.44995,-0.0396 -1.91997,0.19635 -0.47073,0.19634 -0.78395,0.50957 -1.05869,0.82279 -0.27474,0.39269 -0.43117,0.82386 -0.47037,1.17664 -0.0392,0.15644 0,0.35171 0.0787,0.58761 0.0392,0.23483 0.11688,0.46966 0.19528,0.666 0.50992,-0.7444 1.09789,-1.21405 1.72469,-1.52835 0.70556,-0.31322 1.44995,-0.35278 2.23426,-0.1575 0.0784,0 0.0784,0.0795 0,0.11902 -0.47037,0.27367 -1.17557,0.78288 -1.68514,1.44995 -0.35278,0.46966 -0.66671,0.97923 -0.74475,1.4888 0.6268,-0.11795 1.21477,0 1.76389,0.0784 0.666,0.11795 1.25432,0.23483 1.64594,-0.11688 0.1176,-0.11795 0.31358,-0.35278 0.50993,-0.62752 0.31322,-0.39268 0.7444,-0.9019 1.13637,-1.29459 0.19563,-0.15572 0.39162,-0.31322 0.54877,-0.39055 0.19634,-0.0795 0.39197,-0.11794 0.54876,-0.1575 1.7247,-0.0773 3.09626,-0.0773 4.07584,0.0784 0.9019,0.15643 1.5679,0.39269 1.9214,0.70662 0,-0.31429 -0.11795,-0.62752 -0.3535,-0.9019 -0.31322,-0.35278 -0.82315,-0.70556 -1.52835,-1.01985 -0.0395,-0.0385 -0.0395,-0.11688 0,-0.15643 1.33272,-0.70556 2.74348,-0.27367 4.15459,0.19634 1.6463,0.54806 3.25305,1.05762 4.7814,-0.27474 -0.58761,-0.0385 -1.05798,-0.35278 -1.52835,-0.7444 -0.66601,-0.50956 -1.41076,-1.09824 -2.66508,-0.94074 -0.0392,0 -0.0784,-0.0784 -0.0784,-0.11795 0.23483,-0.43117 0.58761,-0.74439 1.01878,-0.97922 0.50993,-0.27474 1.09789,-0.39269 1.60675,-0.39269 0.70555,0 1.33307,0.19634 1.92104,0.39269 0.74439,0.23483 1.4104,0.43117 2.19399,0.35171 -0.82279,-1.33201 -0.94003,-2.66437 -0.62645,-3.99745 0.31358,-1.29245 1.05798,-2.58704 1.91997,-3.87949 -0.58689,-0.19741 -1.25468,-0.11795 -1.95845,0.23483 -0.70556,0.35278 -1.52906,0.9803 -2.39106,1.84264 -0.0392,0.0773 -0.11794,0 -0.11794,-0.0795 0.31358,-1.01878 0.74546,-1.84157 1.29387,-2.43025 0.43046,-0.54805 0.94003,-0.90083 1.56755,-1.17557 -0.78466,-0.0396 -1.6463,0 -2.54784,0.2359 -1.05763,0.23482 -2.15516,0.70484 -3.29224,1.41147 -0.0784,0 -0.1176,-0.0396 -0.1176,-0.0795 0.0784,-0.666 0.43118,-1.17557 0.94074,-1.5679 0.50957,-0.35171 1.13673,-0.66494 1.7247,-0.93968 0.43046,-0.1575 0.7444,-0.39268 1.01842,-0.62751 0.23554,-0.15751 0.43153,-0.27474 0.62752,-0.39269 -0.54877,-0.0396 -1.21512,0.0784 -1.95917,0.19527 -0.54912,0.0795 -1.13673,0.19742 -1.80344,0.2359 -0.35242,0.0396 -0.70556,0.0396 -1.05798,0.0784 -0.58761,0 -1.21513,0.0385 -1.80309,0.11795 -0.90154,0.19527 -1.68514,0.62751 -2.23426,1.25468 -0.47037,0.54805 -0.7052,1.29245 -0.62752,2.23319 0.0787,0.9019 0.50993,1.56683 0.9019,2.23426 0.50957,0.78288 1.0195,1.5679 0.94074,2.82187 -0.0784,1.17557 -0.74475,1.88113 -1.6463,2.27275 -0.86234,0.39269 -1.95952,0.47073 -2.90026,0.47073 -0.54877,0 -1.09718,-0.0385 -1.56755,-0.0784 -0.47037,-0.0784 -0.90154,-0.19634 -1.21512,-0.31322 -0.35243,-0.15644 -0.66601,-0.3143 -0.97994,-0.50957 -0.50957,-0.27474 -1.01878,-0.58868 -1.72398,-0.66707 -0.62752,-0.0385 -1.29352,0.0784 -1.80345,0.43224 -0.43224,0.31322 -0.78466,0.7444 -0.98065,1.29245 l 0,0 z" /><path
     style="clip-rule:evenodd;fill:#f3c242;fill-rule:evenodd"
     id="path65"
     d="m 125.45562,89.28142 c 0.19563,0.58761 0.5876,1.05798 1.13637,1.3712 0.66672,0.43153 1.52835,0.666 2.3515,0.666 0.82315,-0.0385 1.72469,-0.39161 2.74347,-0.82279 1.44996,-0.6268 3.05742,-1.33272 5.05578,-1.25396 -2.3123,-0.54877 -4.19378,-0.0392 -5.76098,0.39161 -0.78395,0.23555 -1.48915,0.43118 -2.11667,0.43118 -0.86163,0.0392 -1.56754,-0.0392 -2.11595,-0.19563 -0.54912,-0.15715 -0.9411,-0.35243 -1.29352,-0.58761 l 0,0 z" /><path
     style="clip-rule:evenodd;fill:#008057;fill-rule:evenodd"
     id="path67"
     d="m 146.22749,123.33914 c 0.0385,-0.0385 0.11795,0 0.11795,0.0784 -0.1575,0.54912 -0.27474,1.09718 -0.35278,1.68514 -0.0795,0.54912 -0.0795,1.13673 -0.0795,1.72469 0.0395,1.13674 0.39268,1.8822 0.74546,2.6266 0.43118,0.90083 0.8228,1.76318 0.54913,3.21349 0,0.0396 -0.11795,0.0784 -0.15751,0 -0.4301,-1.05762 -0.90083,-1.76318 -1.29245,-2.3907 -0.50957,-0.82279 -0.94181,-1.44995 -1.09718,-2.50757 -0.0795,-0.54913 0.0385,-1.45103 0.35171,-2.35222 0.27546,-0.7843 0.70556,-1.52941 1.21513,-2.07782 l 0,0 z" /><path
     style="clip-rule:evenodd;fill:#008057;fill-rule:evenodd"
     id="path69"
     d="m 138.93816,116.12749 c 0.39198,0.47073 1.01878,0.82386 1.6463,1.05869 0.70413,0.27474 1.52871,0.39162 2.27204,0.35278 1.72469,-0.0784 2.58704,-0.7444 3.40947,-1.37191 0.15751,-0.11688 0.3143,-0.23483 0.4718,-0.3143 0.0374,-0.0396 0,-0.15572 -0.0795,-0.15572 -1.37085,0.35278 -2.70499,0.54805 -4.037,0.58761 -1.29352,0.0396 -2.46909,-0.0396 -3.60582,-0.27474 -0.0773,7.1e-4 -0.15572,0.0802 -0.0773,0.11759 l 0,0 z" /><path
     style="clip-rule:evenodd;fill:#008057;fill-rule:evenodd"
     id="path71"
     d="m 135.60672,114.08957 c 0.47038,0.43225 1.09718,0.74547 1.80238,0.9803 0.70556,0.23483 1.45067,0.35278 2.23426,0.35278 0.86235,-0.0396 1.72398,-0.27474 2.46981,-0.62752 0.74368,-0.39269 1.3712,-0.94074 1.72398,-1.52835 0.0385,-0.0784 -0.0385,-0.15643 -0.11795,-0.11688 -0.58761,0.39055 -1.37156,0.70484 -2.15587,0.90083 -0.82279,0.23483 -1.64523,0.39162 -2.46838,0.43118 -0.5876,0.0396 -1.17592,0 -1.76318,-0.0795 -0.54912,-0.0773 -1.09788,-0.23483 -1.6071,-0.46966 -0.0795,3.6e-4 -0.15714,0.0798 -0.11795,0.15679 l 0,0 z" /><path
     style="clip-rule:evenodd;fill:#008057;fill-rule:evenodd"
     id="path73"
     d="m 132.35368,109.38658 c 0.54877,0 1.05798,0.39162 1.60675,0.82386 0.97993,0.70484 2.07747,1.56683 3.95824,0.90083 0.0395,-0.0385 0.0395,-0.11795 0,-0.15643 -0.54805,-0.19635 -1.05762,-0.54913 -1.56684,-0.86235 -1.13673,-0.78395 -2.3123,-1.60675 -4.03699,-0.86235 -0.0399,0.0396 -0.0399,0.15644 0.0388,0.15644 l 0,0 z" /><path
     style="clip-rule:evenodd;fill:#008057;fill-rule:evenodd"
     id="path75"
     d="m 138.15385,108.91585 c 0.9803,-0.82279 1.88113,-0.93968 2.70428,-1.05762 0.62681,-0.0784 1.17593,-0.11688 1.76318,-0.43011 1.17664,-0.62752 1.95952,-1.41254 2.27382,-2.43132 0.27367,-0.97923 0.0784,-2.23319 -0.78395,-3.7227 -0.0396,-0.0784 -0.15751,0 -0.15751,0.0784 0.23483,0.74439 0.19635,1.48986 -0.0385,2.15586 -0.27474,0.70556 -0.78395,1.37085 -1.44996,1.80309 -0.50957,0.35278 -1.05798,0.62752 -1.60674,0.94074 -1.29352,0.70556 -2.54713,1.33201 -2.86107,2.58704 0,0.0766 0.0784,0.11617 0.15643,0.0766 l 0,0 z" /><path
     style="clip-rule:evenodd;fill:#008057;fill-rule:evenodd"
     id="path77"
     d="m 132.43208,107.6234 c 1.01878,-0.50957 1.88112,-0.58761 2.74347,-0.70556 0.78395,-0.0773 1.60675,-0.19634 2.54713,-0.58761 0.9411,-0.43117 1.80309,-1.13673 2.23426,-2.11595 0.35278,-0.8228 0.39198,-1.84265 -0.0784,-3.05777 0,-0.0396 -0.11795,-0.0396 -0.11795,0 -0.90083,2.15586 -2.1156,2.70499 -3.7227,3.37099 -0.43118,0.15643 -0.86235,0.35171 -1.33272,0.58868 -0.74475,0.35171 -1.48987,0.82279 -1.95988,1.29245 -0.39162,0.39269 -0.58761,0.78288 -0.43046,1.17557 -3.6e-4,0.0392 0.078,0.0787 0.11724,0.0392 l 0,0 z" /></svg>