<?xml version="1.0" encoding="UTF-8" standalone="no"?>
<!-- Created with Inkscape (http://www.inkscape.org/) -->

<svg
   xmlns:dc="http://purl.org/dc/elements/1.1/"
   xmlns:cc="http://creativecommons.org/ns#"
   xmlns:rdf="http://www.w3.org/1999/02/22-rdf-syntax-ns#"
   xmlns:svg="http://www.w3.org/2000/svg"
   xmlns="http://www.w3.org/2000/svg"
   version="1.1"
   width="280"
   height="200"
   viewBox="0 0 280.00001 200.00001"
   id="svg2">
  <metadata
     id="metadata30">
    <rdf:RDF>
      <cc:Work
         rdf:about="">
        <dc:format>image/svg+xml</dc:format>
        <dc:type
           rdf:resource="http://purl.org/dc/dcmitype/StillImage" />
        <dc:title></dc:title>
      </cc:Work>
    </rdf:RDF>
  </metadata>
  <defs
     id="defs28" />
  <path
     d="m 234.73361,122.20195 c 3.19963,-11.24471 3.19963,-22.19145 3.19963,-22.19145 0,0 0,-10.945741 -3.19963,-22.188448 -2.92467,-10.270819 -6.77822,-19.444764 -8.22106,-25.115112 -3.22063,-12.679543 1.50983,-29.069658 1.50983,-29.069658 l -9.91086,4.08253 -32.56526,32.280289 c -1.7298,-1.968774 -3.58559,-3.821561 -5.55536,-5.555361 l 32.29029,-32.573255 4.08253,-9.91286 c 0,0 -16.39112,4.731456 -29.06966,1.506826 C 181.62371,12.028617 172.45077,8.1740602 162.18195,5.2503963 150.93924,2.0507642 139.9905,2.0507642 139.9905,2.0507642 c 0,0 -10.94574,0 -22.18845,3.1996321 C 107.53123,8.1740602 98.35529,12.028617 92.686941,13.465451 80.0054,16.69108 63.620283,11.958625 63.620283,11.958625 l 4.082531,9.91286 32.288288,32.572255 c -1.971774,1.732801 -3.82656,3.586587 -5.558361,5.555361 L 61.867485,27.718813 51.956624,23.636282 c 0,0 4.729457,16.391115 1.510827,29.069658 -1.441834,5.670348 -5.297391,14.844293 -8.221055,25.113112 -3.199632,11.244707 -3.199632,22.190448 -3.199632,22.190448 0,0 0,10.94674 3.199632,22.19145 2.923664,10.27082 6.778221,19.44176 8.221055,25.11211 3.21963,12.68254 -1.510827,29.06766 -1.510827,29.06766 l 9.910861,-4.08053 32.571255,-32.28429 c 1.725802,1.96577 3.580588,3.81856 5.541363,5.54436 l -32.279289,32.56926 -4.08253,9.91286 c 0,0 16.386116,-4.72946 29.066658,-1.50683 5.668348,1.43884 14.844288,5.29139 25.115108,8.21806 11.24271,3.20163 22.18845,3.20163 22.18845,3.20163 0,0 10.94874,0 22.19145,-3.20163 10.26982,-2.92667 19.44176,-6.77822 25.11211,-8.21806 12.67954,-3.22363 29.06966,1.50683 29.06966,1.50683 l -4.08253,-9.91286 -32.28229,-32.56826 c 1.96177,-1.7258 3.81356,-3.57559 5.54236,-5.54436 l 32.57026,32.28429 9.91086,4.08053 c 0,0 -4.72946,-16.38612 -1.50983,-29.06766 1.44484,-5.67035 5.29839,-14.84129 8.22306,-25.11211 M 139.9895,200 c -0.46094,0 -11.36469,-0.035 -22.75038,-3.28062 -5.47937,-1.55982 -10.59578,-3.36261 -15.10627,-4.95243 -3.94954,-1.39184 -7.362148,-2.5937 -9.95085,-3.24963 -2.770682,-0.70492 -5.983313,-1.06188 -9.549902,-1.06188 -9.468912,0 -18.35889,2.52471 -18.448879,2.55371 l -4.070532,1.16787 5.849327,-14.19837 31.065428,-31.3394 c -0.912895,-0.8649 -1.805792,-1.7538 -2.665693,-2.66569 l -31.340397,31.06643 -14.204366,5.84633 1.173864,-4.06754 c 0.045,-0.15798 4.533479,-16.01816 1.488829,-27.99978 -0.655924,-2.5927 -1.857786,-5.99831 -3.249626,-9.94985 -1.589817,-4.51448 -3.39061,-9.6279 -4.95243,-15.10727 -3.237628,-11.38869 -3.277624,-22.29343 -3.277624,-22.75238 0,-0.458946 0.04,-11.361693 3.277624,-22.752383 1.56282,-5.47837 3.362613,-10.590782 4.95243,-15.104264 1.39184,-3.949545 2.593702,-7.362153 3.249626,-9.950855 3.04465,-11.978623 -1.443834,-27.8388 -1.488829,-27.998781 l -1.173864,-4.067533 14.204366,5.846328 31.336397,31.060429 c 0.862901,-0.915895 1.755799,-1.810792 2.673693,-2.673693 L 65.961014,23.021353 60.111687,8.8229856 64.182219,9.9938505 c 0.08999,0.024999 8.977968,2.5507065 18.448879,2.5507065 3.56559,0 6.77822,-0.355959 9.549902,-1.058878 2.590702,-0.661924 6.006309,-1.8627854 9.96085,-3.257625 4.50949,-1.5898172 9.6199,-3.3906102 15.09727,-4.9474312 C 128.62481,0.04099528 139.52856,0 139.9895,0 c 0.45895,0 11.36269,0.04099528 22.74838,3.2806228 5.47437,1.5578209 10.58779,3.357614 15.09727,4.9474312 3.95454,1.3948396 7.37015,2.595701 9.96285,3.257625 2.76968,0.701919 5.98132,1.058878 9.54791,1.058878 9.47191,-0.003 18.35888,-2.52471 18.44887,-2.5507065 l 4.07054,-1.1708649 -5.84633,14.1983674 -31.07343,31.347395 c 0.9199,0.862901 1.81079,1.757798 2.67569,2.673693 l 31.3374,-31.060429 14.20137,-5.846328 -1.17087,4.067533 c -0.048,0.159981 -4.53648,16.019158 -1.49183,27.998781 0.65593,2.588702 1.85979,5.99831 3.24963,9.950855 1.58982,4.514481 3.39361,9.626894 4.95243,15.106264 3.24263,11.39069 3.27762,22.292437 3.27762,22.750383 0,0.45795 -0.035,11.36269 -3.27762,22.75038 -1.55982,5.47937 -3.36261,10.59079 -4.94943,15.10727 -1.39284,3.95154 -2.5967,7.35915 -3.25263,9.95285 -3.04465,11.97862 1.44384,27.8388 1.49183,27.99678 l 1.17087,4.06754 -14.20137,-5.84633 -31.3424,-31.06543 c -0.8599,0.91489 -1.7478,1.80279 -2.66269,2.66569 l 31.06543,31.3394 5.84633,14.19837 -4.07054,-1.16787 c -0.09,-0.028 -8.97796,-2.55371 -18.44887,-2.55371 -3.56559,0 -6.77823,0.35596 -9.54791,1.06188 -2.5907,0.65593 -6.00331,1.85779 -9.95585,3.24963 -4.51148,1.58982 -9.6239,3.39361 -15.10327,4.95243 C 151.35219,199.96501 140.44845,200 139.9895,200 M 82.632098,183.36592 c 3.90755,0 7.458142,0.39895 10.555786,1.18686 2.768682,0.70192 6.26228,1.93378 10.304816,3.35461 4.45649,1.57282 9.50991,3.35362 14.86629,4.87544 10.80376,3.07965 21.48553,3.12764 21.63151,3.12764 0.14598,0 10.83175,-0.048 21.62951,-3.12764 5.35939,-1.52182 10.40981,-3.30262 14.86629,-4.87244 4.04554,-1.42483 7.53614,-2.65569 10.30482,-3.35761 3.09964,-0.78691 6.65023,-1.18686 10.55579,-1.18686 6.13929,0 11.92462,0.96588 15.5962,1.74579 l -2.39772,-5.82533 -33.52615,-33.82711 1.63081,-1.43283 c 1.89079,-1.66281 3.69358,-3.4656 5.35839,-5.35839 l 1.43283,-1.63081 33.82711,33.52615 5.82234,2.39972 c -1.23586,-5.79033 -2.92667,-16.81407 -0.55694,-26.15299 0.70192,-2.76868 1.93378,-6.25928 3.35761,-10.30182 1.57182,-4.45948 3.34862,-9.5129 4.87544,-14.86929 3.07665,-10.81475 3.12164,-21.52352 3.12164,-21.62951 0,-0.105986 -0.045,-10.810755 -3.12164,-21.626512 -1.52682,-5.361383 -3.30562,-10.414802 -4.87544,-14.87129 -1.42483,-4.042535 -2.65569,-7.536133 -3.35761,-10.301815 -2.36973,-9.336927 -0.67992,-20.365659 0.55694,-26.153993 l -5.82234,2.399724 -33.82511,33.526145 -1.43183,-1.632812 c -1.66281,-1.893782 -3.4716,-3.698575 -5.36938,-5.368383 l -1.62982,-1.432835 33.53315,-33.830111 2.39772,-5.830329 c -3.67158,0.78191 -9.45691,1.747799 -15.5962,1.747799 -3.90456,0 -7.45615,-0.400954 -10.55579,-1.186864 -2.77068,-0.703919 -6.26528,-1.935777 -10.31382,-3.359613 -4.45648,-1.57182 -9.5049,-3.3486159 -14.85629,-4.8724407 -10.81775,-3.0826456 -21.52352,-3.1246407 -21.62951,-3.1246407 -0.10599,0 -10.81475,0.043995 -21.63351,3.1266405 -5.35239,1.5238248 -10.4028,3.3006199 -14.85629,4.8724389 -4.047537,1.424837 -7.543135,2.655695 -10.313816,3.359614 -3.097644,0.78491 -6.647236,1.186864 -10.555786,1.186864 -6.136295,0 -11.924629,-0.965889 -15.596207,-1.747799 l 2.397724,5.830329 33.536145,33.830111 -1.63081,1.434835 c -1.895785,1.662808 -3.700578,3.471601 -5.368386,5.366383 l -1.434835,1.632812 -33.819112,-33.527145 -5.82533,-2.399724 c 1.233858,5.788334 2.929663,16.817066 0.556936,26.153993 -0.703919,2.765682 -1.930778,6.25928 -3.359614,10.304815 -1.569819,4.453488 -3.348614,9.506907 -4.875439,14.865291 -3.076646,10.818756 -3.119641,21.523525 -3.119641,21.632512 0,0.10299 0.043,10.81176 3.119641,21.62651 1.526825,5.35639 3.30562,10.40981 4.875439,14.86929 1.429836,4.04254 2.655695,7.53314 3.359614,10.30182 2.372727,9.33392 0.677922,20.36266 -0.556936,26.15299 l 5.82533,-2.39972 33.825111,-33.52615 1.431836,1.63081 c 1.660809,1.88879 3.461602,3.69058 5.361386,5.35839 l 1.62481,1.43483 -33.525145,33.82511 -2.397724,5.82533 c 3.670578,-0.78091 9.458912,-1.74679 15.595207,-1.74679"
     id="path4"
     style="fill:#ffffff" />
  <path
     d="m 234.73361,122.20195 c 3.19963,-11.24471 3.19963,-22.19145 3.19963,-22.19145 0,0 0,-10.945741 -3.19963,-22.188448 -2.92467,-10.270819 -6.77822,-19.444764 -8.22106,-25.115112 -3.22063,-12.679543 1.50983,-29.069658 1.50983,-29.069658 l -9.91086,4.08253 -32.56526,32.280289 c -1.7298,-1.968774 -3.58559,-3.821561 -5.55536,-5.555361 l 32.29029,-32.573255 4.08253,-9.91286 c 0,0 -16.39112,4.731456 -29.06966,1.506826 C 181.62371,12.028617 172.45077,8.1740602 162.18195,5.2503963 150.93924,2.0507642 139.9905,2.0507642 139.9905,2.0507642 c 0,0 -10.94574,0 -22.18845,3.1996321 C 107.53123,8.1740602 98.35529,12.028617 92.686941,13.465451 80.0054,16.69108 63.620283,11.958625 63.620283,11.958625 l 4.082531,9.91286 32.288288,32.572255 c -1.971774,1.732801 -3.82656,3.586587 -5.558361,5.555361 L 61.867485,27.718813 51.956624,23.636282 c 0,0 4.729457,16.391115 1.510827,29.069658 -1.441834,5.670348 -5.297391,14.844293 -8.221055,25.113112 -3.199632,11.244707 -3.199632,22.190448 -3.199632,22.190448 0,0 0,10.94674 3.199632,22.19145 2.923664,10.27082 6.778221,19.44176 8.221055,25.11211 3.21963,12.68254 -1.510827,29.06766 -1.510827,29.06766 l 9.910861,-4.08053 32.571255,-32.28429 c 1.725802,1.96577 3.580588,3.81856 5.541363,5.54436 l -32.279289,32.56926 -4.08253,9.91286 c 0,0 16.386116,-4.72946 29.066658,-1.50683 5.668348,1.43884 14.844288,5.29139 25.115108,8.21806 11.24271,3.20163 22.18845,3.20163 22.18845,3.20163 0,0 10.94874,0 22.19145,-3.20163 10.26982,-2.92667 19.44176,-6.77822 25.11211,-8.21806 12.67954,-3.22363 29.06966,1.50683 29.06966,1.50683 l -4.08253,-9.91286 -32.28229,-32.56826 c 1.96177,-1.7258 3.81356,-3.57559 5.54236,-5.54436 l 32.57026,32.28429 9.91086,4.08053 c 0,0 -4.72946,-16.38612 -1.50983,-29.06766 1.44484,-5.67035 5.29839,-14.84129 8.22306,-25.11211"
     id="path6"
     style="fill:#00215b" />
  <path
     d="m 166.1055,140.56884 41.02428,41.02428 c 0,0 -14.40134,-4.07553 -25.81003,-1.35685 -11.41269,2.71669 -22.27944,9.77988 -40.75432,9.77988 h -1.12886 c -18.47688,0 -29.34563,-7.06319 -40.756318,-9.77988 -11.409688,-2.71868 -25.810032,1.35685 -25.810032,1.35685 l 41.02128,-41.02428 h 52.214 z m 14.44734,-66.657338 41.02428,-41.024284 c 0,0 -4.07553,14.399345 -1.35684,25.810033 2.71668,11.407688 9.77987,22.278438 9.77987,40.754314 v 1.127865 c 0,18.47688 -7.06319,29.34363 -9.77987,40.75432 -2.71869,11.41269 1.35684,25.81003 1.35684,25.81003 L 180.55284,126.1225 V 73.911502 z M 166.1055,59.462163 207.12978,18.43788 c 0,0 -14.40134,4.075531 -25.81003,1.358843 -11.41269,-2.715687 -22.27944,-9.782875 -40.75432,-9.782875 h -1.12886 c -18.47688,0 -29.34563,7.067188 -40.756318,9.782875 C 87.270564,22.513411 72.87022,18.43788 72.87022,18.43788 l 41.02128,41.024283 h 52.214 z M 99.449164,73.911502 58.421881,32.887218 c 0,0 4.075532,14.399345 1.358844,25.810033 -2.712688,11.407688 -9.779876,22.278438 -9.779876,40.754314 v 1.127865 c 0,18.47688 7.067188,29.34363 9.779876,40.75432 2.716688,11.41269 -1.358844,25.81003 -1.358844,25.81003 L 99.449164,126.1225 V 73.911502 z"
     id="path8"
     style="fill:#ce1432" />
  <path
     d="m 164.18672,141.15277 38.03063,36.92175 c 0,0 -13.34647,-3.66857 -23.92725,-1.22086 -10.57779,2.44472 -20.65063,8.80199 -37.77666,8.80199 h -1.04588 c -17.13103,0 -27.20187,-6.35627 -37.77965,-8.80199 -10.574788,-2.44771 -23.926252,1.22086 -23.926252,1.22086 l 38.029622,-36.92175 h 48.39544 z m 16.95005,-65.342487 36.92175,-38.030627 c 0,0 -3.67057,13.346465 -1.22386,23.927249 2.44472,10.577784 8.80499,20.650625 8.80499,37.776656 v 1.047879 c 0,17.12903 -6.35927,27.19987 -8.80499,37.77766 -2.44671,10.57678 1.22386,23.92924 1.22386,23.92924 L 181.13677,124.20572 V 75.810283 z M 164.18672,58.862232 202.21735,21.940477 c 0,0 -13.34647,3.668578 -23.92725,1.221859 -10.57779,-2.444719 -20.65063,-8.802987 -37.77666,-8.802987 h -1.04588 c -17.13103,0 -27.20187,6.357269 -37.77965,8.802987 -10.574788,2.446719 -23.926252,-1.221859 -23.926252,-1.221859 l 38.029622,36.921755 h 48.39544 z M 98.845233,75.810283 61.923479,37.779656 c 0,0 3.665578,13.346465 1.223859,23.927249 C 60.699619,72.284689 54.34235,82.35753 54.34235,99.483561 v 1.047879 c 0,17.12903 6.356269,27.19987 8.804988,37.77766 2.441719,10.57678 -1.223859,23.92924 -1.223859,23.92924 L 98.845233,124.20572 V 75.810283 z"
     id="path10"
     style="fill:#00215b" />
  <path
     d="m 111.2838,38.183609 c -0.27297,0.26597 -0.72991,0.716918 -1.6898,1.253856 -3.11265,1.7398 -6.04131,0.812907 -7.44615,-1.700804 -1.37384,-2.446719 -0.8779,-5.632353 2.49272,-7.520136 0.98588,-0.548937 1.84078,-0.786909 2.52771,-0.944891 l 1.08387,1.931778 c -0.42195,-0.022 -1.38984,-0.08099 -2.42572,0.500942 -1.91878,1.072877 -2.26474,3.026652 -1.37384,4.61447 0.93789,1.672807 2.84667,2.313734 4.86744,1.187863 0.77391,-0.43395 1.45383,-1.04088 2.00077,-1.7348 l -0.037,2.411722 z m 12.11461,-4.657464 -2.46572,0.858901 -1.39084,-4.010539 -3.66158,1.273854 1.39084,4.007539 -2.44971,0.852902 -3.26963,-9.404919 2.45272,-0.851902 1.22586,3.527595 3.66358,-1.270854 -1.22786,-3.528595 2.46472,-0.857901 z m 1.32485,-10.552787 2.5637,-0.498942 1.90378,9.779875 -2.5637,0.498943 z m 14.91528,8.171061 c -0.36096,0.119986 -0.96889,0.327962 -2.06676,0.397954 -3.56059,0.225974 -5.80033,-1.880784 -5.97831,-4.752454 -0.17898,-2.801678 1.64681,-5.456372 5.50237,-5.700344 1.12787,-0.07199 1.99577,0.08299 2.68569,0.237972 l 0.13798,2.209746 c -0.36596,-0.202976 -1.21386,-0.669923 -2.39672,-0.596931 -2.19175,0.140984 -3.35062,1.752798 -3.23463,3.56759 0.11998,1.91078 1.56482,3.320618 3.87455,3.172635 0.8859,-0.05499 1.7638,-0.308965 2.55571,-0.69692 l -1.07988,2.160752 z m 13.13849,0.993885 -2.73369,-0.285967 -0.46594,-2.046764 -3.5386,-0.365958 -0.91789,1.902781 -2.5677,-0.26597 4.92543,-9.498907 2.51071,0.26097 2.78768,10.299815 z m -3.56359,-3.91455 -0.72892,-3.237627 c -0.043,-0.229974 -0.065,-0.305965 -0.078,-0.559936 l -0.20797,0.471946 -1.46484,3.066647 2.47972,0.25897 z m 14.69831,6.369268 c -1.47783,0.189978 -2.97766,0.140984 -4.39849,-0.270969 -3.39961,-0.980887 -4.96543,-3.603585 -4.10753,-6.573244 0.76791,-2.657694 3.4736,-4.503482 7.36315,-3.380611 1.10787,0.320963 2.02577,0.759912 2.99866,1.408838 l -0.61893,2.142753 c -0.34396,-0.381956 -1.16087,-1.261854 -2.5987,-1.677807 -2.17175,-0.624928 -4.01554,0.324963 -4.56148,2.221745 -0.49694,1.722802 0.19998,3.628583 2.36973,4.255511 0.69092,0.197977 1.17086,0.157981 1.52882,0.130985 l 0.55494,-1.808792 -2.26774,-0.650926 1.47483,-1.439834 3.61858,1.04088 -1.35584,4.601471 z m 6.88621,4.503482 c -3.07965,-1.594816 -3.86956,-4.52348 -2.49272,-7.179174 1.33685,-2.593702 4.23052,-3.701575 7.25317,-2.144754 3.05465,1.581819 3.72857,4.61147 2.44472,7.094185 -1.26186,2.440719 -4.12153,3.82156 -7.20517,2.229743 m 4.72145,-3.420606 c 0.8829,-1.704804 0.63193,-3.433606 -0.8479,-4.197518 -1.45183,-0.751913 -3.05165,0.01 -3.91955,1.689806 -0.8399,1.627813 -0.59993,3.370612 0.9029,4.147523 1.64481,0.850902 3.17263,-0.295966 3.86455,-1.639811"
     id="path12"
     style="fill:#a7a9ac" />
  <path
     d="m 124.52428,178.63046 -2.69569,-0.46795 1.80079,-10.29381 6.82122,1.19586 -0.35396,2.01077 -4.12553,-0.72192 -0.38595,2.21675 3.5016,0.60893 -0.35696,2.02676 -3.4986,-0.60993 z m 8.85998,-9.37092 2.73369,0.16798 -0.64093,10.4288 -2.73368,-0.16798 z m 16.5211,9.82387 -2.96466,0.21097 -2.97366,-4.23351 c -0.51494,0.068 -0.58693,0.073 -1.17986,0.11299 l 0.31196,4.38649 -2.66069,0.18798 -0.73391,-10.4248 4.72445,-0.33096 c 1.62481,-0.11499 3.39761,0.61693 3.54359,2.67369 0.03,0.42895 -0.027,0.8479 -0.17798,1.22886 -0.31196,0.8539 -0.90789,1.26485 -1.23086,1.49783 l 3.34162,4.69046 z m -7.13218,-4.13053 -0.10499,-1.51282 c 0.32096,-0.035 1.56482,-0.072 1.7988,-0.14999 0.53593,-0.17098 0.88989,-0.63992 0.8449,-1.24885 -0.03,-0.47195 -0.28797,-0.76292 -0.52394,-0.8959 -0.35396,-0.22797 -0.8569,-0.18998 -1.43184,-0.15198 l -0.8569,0.063 0.27397,3.89655 z m 16.90206,2.19875 -6.22129,1.42984 -2.33473,-10.18183 6.60524,-1.51983 0.46195,2.00377 -3.95255,0.9099 0.44895,1.94677 3.38761,-0.77591 0.45395,1.98977 -3.38761,0.77491 0.50894,2.22475 4.71746,-1.08588 z"
     id="path14"
     style="fill:#a7a9ac" />
  <path
     d="M 196.34102,67.550233 156.25763,71.910732 139.9895,35.013974 123.71937,71.913731 83.635982,67.555232 107.39325,100.0095 l -23.757268,32.45127 40.083388,-4.3535 16.27013,36.89476 16.26813,-36.89476 40.08339,4.3635 -23.76027,-32.46127 z m -0.97189,32.464267 c 0,30.58748 -24.79415,55.37963 -55.37963,55.37963 -30.58448,0 -55.37663,-24.79215 -55.37663,-55.37963 0,-30.587483 24.79215,-55.381632 55.37663,-55.381632 30.58548,10e-4 55.37963,24.795149 55.37963,55.381632"
     id="path16"
     style="fill:#ffffff" />
  <path
     d="m 193.33537,100.0095 c 0,29.46161 -23.88426,53.34587 -53.34587,53.34587 -29.46161,0 -53.345864,-23.88426 -53.345864,-53.34587 0,-29.458612 23.884254,-53.345866 53.345864,-53.345866 29.46161,0 53.34587,23.888254 53.34587,53.345866"
     id="path18"
     style="fill:#00215b" />
  <path
     d="m 188.96187,100.0095 c 0,27.04889 -21.92548,48.97237 -48.97237,48.97237 -27.04889,0 -48.972367,-21.92348 -48.972367,-48.97237 0,-27.045889 21.923477,-48.972368 48.972367,-48.972368 27.04689,9.99e-4 48.97237,21.927478 48.97237,48.972368 m -48.97237,49.23334 c -27.14888,0 -49.229337,-22.08546 -49.229337,-49.23234 0,-27.145878 22.080457,-49.232338 49.229337,-49.232338 27.14888,0 49.23034,22.08646 49.23034,49.232338 0,27.14688 -22.08146,49.23234 -49.23034,49.23234 m 0,-97.945738 c -26.85991,0 -48.710397,21.854487 -48.710397,48.713398 0,26.86091 21.850487,48.7144 48.710397,48.7144 26.86091,0 48.7114,-21.85249 48.7114,-48.7144 0,-26.858911 -21.85049,-48.713398 -48.7114,-48.713398"
     id="path20"
     style="fill:#a7a9ac" />
  <path
     d="m 130.65358,96.328924 c 0,-8.471026 0.8699,-11.244707 9.89786,-11.244707 5.38438,0 9.10495,0.397954 9.65888,5.702344 v 2.297736 h 16.30913 v -2.297736 c -0.31596,-17.814951 -7.91509,-19.47576 -24.22721,-19.47576 l -1.02289,0.005 0.08,-0.08799 H 114.26946 V 94.10918 l 0.07,-0.04799 v 4.386495 l -5.31339,2.524705 5.31339,2.16975 v 6.01431 c 0,20.42565 10.4628,22.32343 25.16811,22.47441 l -0.04,0.046 h 27.24686 v -19.82972 l -0.11799,0.056 0.003,-1.47883 v -1.7408 h -16.30812 v 1.7408 c 0,6.9692 -3.17064,7.44215 -9.73988,7.44215 -9.50291,0 -9.89786,-3.40261 -9.89786,-12.26959 v -9.267946 z m 36.32182,35.604906 h -28.11677 l 0.053,-0.05 c -14.11337,-0.19597 -24.82714,-2.20174 -24.82714,-22.72638 v -5.84333 l -5.70234,-2.32473 5.70234,-2.705691 -0.075,-27.313859 h 27.93678 l -0.081,0.07999 h 0.42696 c 16.78407,0 24.17222,1.865785 24.48818,19.730731 v 2.560706 H 149.95334 V 90.78556 c -0.53193,-5.060418 -4.06753,-5.441374 -9.40091,-5.441374 -8.89298,0 -9.64089,2.683691 -9.64089,10.986737 v 9.260937 c 0,8.92797 0.46694,12.01762 9.64089,12.01762 6.8812,0 9.47891,-0.61893 9.47891,-7.18718 v -1.99877 h 16.82906 l -0.002,3.07965 0.11699,0.34596 v 20.08469 z m -26.90591,-0.51594 h 26.38797 v -19.1718 l -0.003,0.002 -0.11499,-0.34896 0.005,-2.96166 h -15.79418 v 1.48483 c 0,7.34516 -3.61559,7.70112 -9.99785,7.70112 -9.76588,0 -10.15683,-3.61659 -10.15683,-12.53156 v -9.260936 c 0,-8.524019 0.8329,-11.503678 10.15683,-11.503678 5.44337,0 9.34092,0.423952 9.91486,5.934319 v 2.062763 h 15.79718 v -2.038766 c -0.31197,-17.400999 -7.54113,-19.21979 -23.97224,-19.21979 l -1.62282,0.008 0.083,-0.09099 h -26.22199 l 0.07,27.12688 -4.93543,2.344728 4.93543,2.01477 v 6.18829 c 0,20.38365 10.32181,22.06346 24.91014,22.21444 l 0.59393,0.005 -0.035,0.041 z"
     id="path22"
     style="fill:#ce1432" />
  <path
     d="m 225.73264,189.46921 c 0,-2.68569 2.01977,-4.73345 4.60447,-4.73345 2.56071,0 4.58647,2.04876 4.58647,4.73345 0,2.72669 -2.02576,4.73946 -4.58647,4.73946 -2.5857,0 -4.60447,-2.01277 -4.60447,-4.73946 m 4.60447,5.67535 c 3.08665,0 5.72834,-2.39272 5.72834,-5.67535 0,-3.24662 -2.64169,-5.67234 -5.72834,-5.67234 -3.10664,0 -5.74034,2.42572 -5.74034,5.67234 0,3.28263 2.6337,5.67535 5.74034,5.67535 m -1.19086,-5.2284 h 1.13387 l 1.7178,2.83568 h 1.11087 l -1.85878,-2.88167 c 0.95889,-0.11999 1.6928,-0.62393 1.6928,-1.7978 0,-1.28885 -0.76791,-1.85078 -2.30473,-1.85078 h -2.48272 v 6.52925 h 0.99089 v -2.83468 z m 0,-0.8329 v -2.02877 h 1.34384 c 0.68493,0 1.41684,0.14798 1.41684,0.96089 0,1.00588 -0.74691,1.06788 -1.58182,1.06788 h -1.17886 z"
     id="path24"
     style="fill:#00215b" />
</svg>
