<?xml version="1.0" encoding="UTF-8" standalone="no"?>
<!-- Created with Inkscape (http://www.inkscape.org/) -->

<svg
   xmlns:dc="http://purl.org/dc/elements/1.1/"
   xmlns:cc="http://creativecommons.org/ns#"
   xmlns:rdf="http://www.w3.org/1999/02/22-rdf-syntax-ns#"
   xmlns:svg="http://www.w3.org/2000/svg"
   xmlns="http://www.w3.org/2000/svg"
   version="1.1"
   width="280"
   height="200"
   id="svg3254">
  <metadata
     id="metadata3358">
    <rdf:RDF>
      <cc:Work
         rdf:about="">
        <dc:format>image/svg+xml</dc:format>
        <dc:type
           rdf:resource="http://purl.org/dc/dcmitype/StillImage" />
        <dc:title></dc:title>
      </cc:Work>
    </rdf:RDF>
  </metadata>
  <defs
     id="defs3356" />
  <g
     transform="matrix(0.66614707,0,0,0.66614707,59.977059,0.2051733)"
     id="g3256">
    <path
       d="M 125.027,299.926 C 106.894,291.439 87.85,281.502 68.599,270.283 47.857,258.195 28.689,245.692 11.715,233.354 8.942,210.17 6.582,185.454 4.636,159.744 0.703,106.918 -0.622,58.066 0.33,18.902 28.316,7.269 73.856,-0.308 125.027,-0.308 c 51.253,0 96.752,7.576 124.779,19.21 0.952,39.164 -0.414,88.017 -4.347,140.842 -1.905,25.71 -4.306,50.426 -7.038,73.61 -16.974,12.337 -36.183,24.84 -56.883,36.929 -19.251,11.219 -38.337,21.156 -56.511,29.643 z"
       id="path3258"
       style="fill:#231f20" />
    <path
       d="m 19.499,204.457 c -1.697,-16.767 -3.064,-32.872 -4.264,-49.68 -1.822,-0.539 -2.774,-2.112 -2.774,-2.774 0,-0.662 1.366,-2.029 2.567,-2.65 -1.366,-19.624 -2.567,-38.75 -3.229,-58.415 26.082,-11.095 67.316,-19.251 113.353,-19.251 46.078,0 87.064,8.156 113.146,19.251 -0.539,15.773 -1.284,31.547 -2.277,47.32 0.993,0.579 1.738,1.407 2.07,2.484 0.828,2.443 -0.373,5.713 -2.815,8.404 -1.201,17.926 -2.732,35.852 -4.512,53.737 -7.286,-3.022 -9.563,-4.182 -21.321,-7.576 0.042,3.685 0.497,6.748 0.042,7.162 -3.643,3.395 -9.191,3.437 -11.054,3.56 -0.58,1.905 0,2.402 3.188,6.169 1.78,2.111 1.532,5.962 0.911,8.612 -0.497,2.194 -1.076,3.187 -1.532,2.318 -0.621,-1.159 1.863,-1.366 0.993,-2.856 -0.331,-0.539 -2.443,-0.787 -2.732,-0.952 -1.822,-0.828 2.691,-0.497 1.946,-2.194 -0.496,-1.118 -1.904,1.822 -2.484,0.124 -0.539,-1.573 -1.863,-3.023 -6.335,-3.064 -1.117,0 -4.347,-0.414 -7.452,1.408 2.194,-0.083 7.08,-0.828 10.143,2.111 3.022,2.981 3.767,9.481 3.809,9.977 0.248,3.022 1.904,11.219 0.207,19.127 -3.312,2.07 -6.583,4.141 -9.895,6.169 -4.43,2.691 -8.942,5.382 -13.414,7.99 -0.786,-1.035 -1.697,-2.111 -2.939,-3.064 -3.188,-2.36 6.665,-0.746 6.541,-2.278 -0.414,-4.637 -9.854,-10.888 -15.898,-13.413 -3.478,-3.146 12.751,2.111 17.347,-1.987 2.029,-1.822 -0.579,-11.882 -5.589,-17.057 -0.745,-0.787 -1.325,-2.649 -0.414,-3.85 1.573,-2.111 4.347,-1.408 5.671,-3.229 0.994,-1.325 -0.828,-1.49 2.857,-3.933 -0.621,-1.076 -1.739,0.746 -3.312,0.746 -2.194,-0.083 -6.913,2.939 -7.659,4.015 -0.29,-2.443 0.455,-3.933 4.43,-6.376 0.745,-0.414 1.407,-1.573 1.366,-2.65 -0.042,-0.455 -0.663,-0.124 -0.746,-0.538 -0.165,-0.911 2.898,-2.07 2.319,-2.94 -0.787,-1.242 -5.589,2.484 -5.796,2.029 -0.414,-0.952 5.258,-4.14 7.783,-8.197 0.787,-1.201 0.663,-2.111 0.373,-2.608 -0.911,-1.697 -8.073,5.879 -8.528,5.382 -1.035,-1.284 12.172,-12.669 11.302,-13.662 -0.911,-1.076 -7.659,6.831 -7.99,6.417 -0.29,-0.372 0.828,-1.242 -0.042,-1.946 -0.372,-0.331 -1.035,1.201 -1.532,0.869 -0.993,-0.621 2.194,-4.596 1.739,-5.009 -1.905,-1.739 -6.334,11.716 -7.286,11.054 -0.828,-0.579 5.382,-12.875 6.334,-14.365 0.29,-0.455 -1.242,-1.491 -1.573,-0.497 -1.159,3.353 -5.547,11.965 -6.003,12.669 -0.745,1.159 -1.614,9.108 -2.36,8.363 -0.869,-0.952 1.987,-9.356 2.07,-11.551 0.042,-1.656 0.704,-2.898 -0.373,-3.022 -1.242,-0.125 -0.124,-3.726 0.207,-4.803 0.621,-2.235 0.787,-5.795 0.538,-6.748 -0.538,-1.739 1.822,-1.988 1.325,-3.022 -0.497,-1.035 -2.774,-3.353 -2.526,-1.905 0.455,2.939 -1.573,3.395 -2.567,5.796 -0.621,1.532 -1.325,4.057 -1.532,8.321 -1.449,-0.952 -1.159,-6.251 -0.455,-9.48 0.579,-2.609 1.987,-7.286 1.366,-7.494 -1.697,-0.496 -1.283,1.863 -2.856,2.732 -0.828,0.456 -0.538,-1.407 -1.118,-1.614 -0.704,-0.249 -0.455,1.324 -0.993,0.952 -0.621,-0.455 -1.408,-1.283 -1.49,2.65 0,0.704 -1.739,0.869 -2.774,9.149 -0.124,0.828 -0.952,-0.249 -1.573,5.34 -0.083,0.621 -2.028,0.414 -2.815,5.506 -0.083,0.456 -1.118,1.201 -1.325,2.732 -0.331,2.815 -1.366,4.512 -2.028,4.679 -0.87,-8.115 7.079,-27.738 6.251,-36.888 -0.331,-0.166 -0.414,0.248 -0.911,0 -1.987,6.334 -4.471,9.895 -6.376,16.519 -3.147,5.92 -7.287,15.318 -9.771,22.024 0.787,-5.588 2.815,-10.681 6.334,-17.305 2.856,-5.382 5.796,-12.958 8.404,-19.665 -4.512,2.525 -18.133,19.831 -20.617,23.887 -2.36,3.809 -2.939,7.163 -3.891,13.414 -0.207,-2.07 -0.248,-6.003 1.159,-11.384 2.153,-8.28 6.5,-10.888 6.872,-13.87 0.207,-1.49 -0.869,-2.194 2.65,-4.181 -2.898,-0.29 -1.449,-2.484 0.372,-2.94 -2.649,-2.152 1.697,-4.388 2.236,-4.637 -3.353,-0.207 -9.522,1.946 -9.895,1.076 -1.408,-3.229 -0.29,-3.684 -0.455,-5.754 -0.166,-2.028 -1.491,-4.596 -0.497,-5.961 1.78,-2.484 8.777,-5.258 11.592,-7.576 0.083,-0.58 -2.732,1.49 -2.857,0.538 -0.165,-1.366 -1.407,0.704 -2.525,0.331 -3.188,-1.035 -3.229,-3.602 -3.933,-4.554 -0.745,-1.035 -2.443,-2.153 -1.614,-3.063 0.414,-0.456 2.608,0.952 2.732,-0.207 0.414,-4.057 -2.236,-3.56 -2.194,-4.016 0.29,-2.732 3.85,-0.207 3.519,-1.242 -0.663,-2.07 -3.685,-0.373 -3.437,-3.022 0.125,-1.697 -1.407,-4.637 -1.822,-4.596 0.621,-5.961 0.455,-10.308 0.166,-15.359 -0.124,-1.739 0.911,-1.49 1.697,-0.497 1.118,1.366 2.856,-0.58 1.532,2.443 -0.414,0.952 2.608,5.423 3.437,6.21 0.331,0.29 1.78,-0.124 1.117,-1.159 -0.828,-1.366 0.621,-0.248 2.319,-1.904 1.49,-1.407 0.745,-2.774 1.78,-1.656 0.497,0.579 0.994,1.242 1.16,0.579 0.372,-1.532 0.869,-0.455 1.035,-1.118 0.124,-0.455 -0.249,-1.366 -1.573,-2.36 -0.952,-0.704 -1.573,-1.904 -0.207,-2.111 5.34,-0.787 7.162,3.271 8.653,13.662 0.372,-7.907 4.43,-8.28 2.401,1.325 16.353,-6.251 19.665,-15.691 1.283,-21.983 0.373,-6.003 0.746,-13.124 -4.761,-19.334 -3.437,-3.933 -6.417,-5.465 -8.404,-10.267 -1.532,1.366 -2.277,3.395 -4.43,2.774 -1.366,-0.414 -4.761,-4.099 -5.217,-4.885 -2.111,0.58 -3.974,0.994 -7.41,4.844 -5.713,-4.844 -5.92,-1.904 -7.452,1.656 -14.987,-2.07 -18.547,24.053 -19.044,26.662 -23.349,8.859 -5.092,19.83 2.029,20.824 5.754,0.828 0.621,5.796 6.21,7.576 2.65,0.869 1.946,4.927 1.697,10.06 -0.373,8.611 0.372,17.637 -4.347,16.85 -4.636,-0.787 -5.009,3.312 -10.474,6.086 -3.312,1.697 -12.834,4.43 -17.388,6.997 -0.828,0.455 -0.704,-1.656 -1.614,-1.159 -0.911,0.496 -0.497,1.49 -1.946,2.36 -1.739,1.076 -3.809,2.815 -5.672,5.3 -3.643,4.885 -7.535,7.948 -13.579,7.783 -1.201,0 -6.541,-0.124 -7.452,-3.229 -0.331,-1.035 -0.29,-2.815 1.739,-2.94 1.449,-0.041 3.188,2.443 3.395,1.74 0.331,-1.119 0.331,-2.526 -1.656,-2.526 -0.62,0 -1.863,-0.042 -1.946,-0.207 -0.372,-1.201 0.042,-1.573 0.539,-1.614 0.704,-0.083 -0.87,-2.029 0.455,-2.029 1.325,0.042 4.761,2.691 4.968,2.235 0.579,-1.407 -0.538,-2.774 -3.022,-4.429 -0.124,0.993 -0.621,1.325 -2.319,0.29 -0.828,-0.539 -2.815,-0.704 -2.277,-3.188 0.207,-1.117 0.331,-2.608 1.035,-1.822 0.621,0.828 1.781,1.408 2.815,0.456 0.911,-0.787 1.449,-0.373 1.987,0.331 2.649,3.353 1.614,-3.933 1.159,-5.838 -0.579,-2.526 -0.993,0.538 -2.07,0.869 -0.663,0.248 -0.911,1.408 -0.87,2.319 0.125,2.194 -1.325,1.076 -1.697,0.704 -0.911,-0.869 -1.491,-1.532 -2.402,-1.366 -1.242,0.249 -0.331,1.863 -1.573,1.573 -0.331,-2.856 0.248,-5.796 0.662,-7.742 0.166,-0.787 0.994,-5.01 1.905,-5.092 1.076,-0.124 0.579,2.319 3.809,4.844 2.401,1.863 6.458,0.828 8.197,0.207 2.194,-0.787 0.331,-1.863 2.443,-1.946 1.78,-0.083 0.621,-1.325 -0.373,-2.112 -0.704,-0.579 -0.745,-2.194 0.58,-1.614 1.159,0.579 2.525,1.697 2.152,0.869 -0.62,-1.49 2.402,-1.325 4.264,-0.456 3.023,1.449 1.739,10.35 3.395,10.143 0.869,-0.125 0.663,-4.802 1.697,-5.879 2.484,-2.566 4.264,-0.745 5.092,-2.566 0.704,-1.573 0.704,1.076 5.506,0.704 10.475,-0.911 12.71,-3.271 3.768,-4.968 0,-1.325 -2.981,-3.768 -4.885,-3.768 0.124,-1.904 0.124,-4.057 0.207,-6.5 0.539,-10.971 -3.809,-19.086 -10.101,-22.066 -4.554,-2.194 -4.471,-7.866 -7.328,-4.844 -2.153,2.277 -3.726,1.076 -5.465,-0.704 -4.099,-4.181 -5.589,-0.828 -7.245,0.497 -2.608,2.07 -3.519,-0.248 -4.181,-0.373 -4.223,-0.745 -3.064,2.236 -4.513,2.939 -17.098,8.653 -12.461,25.171 -13.62,26.413 -3.602,3.685 -9.439,3.478 -10.06,4.513 -1.366,2.277 10.102,2.691 14.738,5.051 1.325,0.663 -0.331,15.773 0.663,21.279 2.319,12.917 9.149,11.965 7.907,15.235 -0.828,2.111 -5.754,6.459 -9.481,8.984 -3.105,2.07 -6.417,0.828 -12.627,1.822 z"
       id="path3260"
       style="fill:#605161" />
    <path
       d="m 150.902,132.753 c 0.538,5.713 -0.704,10.433 -3.229,14.076 0.248,5.134 0.621,10.226 0.207,15.69 0.952,2.029 3.891,1.739 4.678,3.437 0.248,0.621 1.946,-0.745 2.443,0.496 0.745,1.863 2.815,2.815 3.974,3.147 2.07,0.621 3.022,1.863 3.974,1.449 0.993,-0.414 2.194,-0.165 2.318,0.373 0.58,0.663 2.029,1.697 2.153,2.443 0.455,2.939 -1.573,3.395 -2.567,5.796 -0.621,1.532 -1.325,4.057 -1.532,8.321 -1.449,-0.952 -1.159,-6.251 -0.455,-9.48 0.579,-2.609 1.987,-7.286 1.366,-7.494 -1.697,-0.496 -1.283,1.863 -2.856,2.732 -0.828,0.456 -0.538,-1.407 -1.118,-1.614 -0.704,-0.249 -0.455,1.324 -0.993,0.952 -0.621,-0.455 -1.408,-1.283 -1.49,2.65 0,0.704 -1.739,0.869 -2.774,9.149 -0.124,0.828 -0.952,-0.249 -1.573,5.34 -0.083,0.621 -2.028,0.414 -2.815,5.506 -0.083,0.456 -1.118,1.201 -1.325,2.732 -0.331,2.815 -1.366,4.512 -2.028,4.679 -0.87,-8.115 7.079,-27.738 6.251,-36.888 -0.331,-0.166 -0.414,0.248 -0.911,0 -1.987,6.334 -4.471,9.895 -6.376,16.519 -3.147,5.92 -7.287,15.318 -9.771,22.024 0.787,-5.588 2.815,-10.681 6.334,-17.305 2.856,-5.382 5.796,-12.958 8.404,-19.665 -4.512,2.525 -18.133,19.831 -20.617,23.887 -2.36,3.809 -2.939,7.163 -3.891,13.414 -0.207,-2.07 -0.248,-6.003 1.159,-11.384 2.153,-8.28 6.5,-10.888 6.872,-13.87 0.207,-1.49 -0.869,-2.194 2.65,-4.181 -2.898,-0.29 -1.449,-2.484 0.372,-2.94 -2.649,-2.152 1.697,-4.388 2.236,-4.637 -3.353,-0.207 -9.522,1.946 -9.895,1.076 -1.408,-3.229 -0.29,-3.684 -0.455,-5.754 -0.166,-2.028 -1.491,-4.596 -0.497,-5.961 1.78,-2.484 8.777,-5.258 11.592,-7.576 0.083,-0.58 -2.732,1.49 -2.857,0.538 -0.165,-1.366 -1.407,0.704 -2.525,0.331 -3.188,-1.035 -3.229,-3.602 -3.933,-4.554 -0.745,-1.035 -2.443,-2.153 -1.614,-3.063 0.414,-0.456 2.608,0.952 2.732,-0.207 0.414,-4.057 -2.236,-3.56 -2.194,-4.016 0.29,-2.732 3.85,-0.207 3.519,-1.242 -0.663,-2.07 -3.685,-0.373 -3.437,-3.022 0.125,-1.697 -1.407,-4.637 -1.822,-4.596 0.621,-5.961 0.455,-10.308 0.166,-15.359 -0.124,-1.739 0.911,-1.49 1.697,-0.497 1.118,1.366 2.856,-0.58 1.532,2.443 -0.414,0.952 2.608,5.423 3.437,6.21 0.331,0.29 1.78,-0.124 1.117,-1.159 -0.828,-1.366 0.621,-0.248 2.319,-1.904 1.49,-1.407 0.745,-2.774 1.78,-1.656 0.497,0.579 0.994,1.242 1.16,0.579 0.372,-1.532 0.869,-0.455 1.035,-1.118 0.124,-0.455 -0.249,-1.366 -1.573,-2.36 -0.952,-0.704 -1.573,-1.904 -0.207,-2.111 7.079,-1.491 7.907,8.653 8.653,13.662 0.372,-7.907 4.43,-8.28 2.401,1.325 l 0.124,-0.041 c -0.372,2.07 1.284,4.512 -1.325,4.678 z"
       id="path3262"
       style="fill:#ffffff" />
    <path
       d="m 78.908,160.78 c 0.828,1.076 0.745,3.933 0.248,4.72 -0.828,1.242 -2.028,3.892 -2.153,5.133 -0.372,3.271 -1.407,4.637 -2.608,5.341 -0.828,0.455 -0.704,-1.656 -1.614,-1.159 -0.911,0.496 -0.497,1.49 -1.946,2.36 -1.739,1.076 -3.809,2.815 -5.672,5.3 -3.643,4.885 -7.535,7.948 -13.579,7.783 -1.201,0 -6.541,-0.124 -7.452,-3.229 -0.331,-1.035 -0.29,-2.815 1.739,-2.94 1.449,-0.041 3.188,2.443 3.395,1.74 0.331,-1.119 0.331,-2.526 -1.656,-2.526 -0.62,0 -1.863,-0.042 -1.946,-0.207 -0.372,-1.201 0.042,-1.573 0.539,-1.614 0.704,-0.083 -0.87,-2.029 0.455,-2.029 1.325,0.042 4.761,2.691 4.968,2.235 0.579,-1.407 -0.538,-2.774 -3.022,-4.429 -0.124,0.993 -0.621,1.325 -2.319,0.29 -0.828,-0.539 -2.815,-0.704 -2.277,-3.188 0.207,-1.117 0.331,-2.608 1.035,-1.822 0.621,0.828 1.781,1.408 2.815,0.456 0.911,-0.787 1.449,-0.373 1.987,0.331 2.649,3.353 1.614,-3.933 1.159,-5.838 -0.579,-2.526 -0.993,0.538 -2.07,0.869 -0.663,0.248 -0.911,1.408 -0.87,2.319 0.125,2.194 -1.325,1.076 -1.697,0.704 -0.911,-0.869 -1.491,-1.532 -2.402,-1.366 -1.242,0.249 -0.331,1.863 -1.573,1.573 -0.331,-2.856 0.248,-5.796 0.662,-7.742 0.166,-0.787 0.994,-5.01 1.905,-5.092 1.076,-0.124 0.579,2.319 3.809,4.844 2.401,1.863 6.458,0.828 8.197,0.207 2.194,-0.787 0.331,-1.863 2.443,-1.946 1.78,-0.083 0.621,-1.325 -0.373,-2.112 -0.704,-0.579 -0.745,-2.194 0.58,-1.614 1.159,0.579 2.525,1.697 2.152,0.869 -0.62,-1.49 2.402,-1.325 4.264,-0.456 3.023,1.449 1.739,10.35 3.395,10.143 0.869,-0.125 0.663,-4.802 1.697,-5.879 2.484,-2.566 4.264,-0.745 5.092,-2.566 0.496,-1.16 0.662,0 2.691,0.538 z"
       id="path3264"
       style="fill:#ffffff;stroke:#ffffff;stroke-width:0.1242" />
    <path
       d="M 11.426,78.85 C 10.971,61.421 10.764,43.95 11.095,26.479 14.324,25.32 17.595,24.285 20.907,23.291 46.368,16.087 72.657,12.775 99.07,11.327 V 0.356 c 8.446,-0.455 17.14,-0.663 25.958,-0.663 8.86,0 17.553,0.207 26.041,0.663 v 10.971 c 1.987,0.083 3.933,0.207 5.92,0.331 12.585,0.87 24.964,2.194 37.426,4.057 15.07,2.484 30.181,5.63 44.629,10.764 0.29,16.229 0.124,32.458 -0.249,48.645 l -0.124,3.726 C 211.761,68.459 170.775,61.503 125.028,61.503 c -45.706,0 -86.65,6.955 -113.602,17.347 z"
       id="path3266"
       style="fill:#f4a428" />
    <path
       d="m 167.876,173.532 c 0.455,0.125 1.325,0.125 2.111,1.035 0.994,1.117 6.003,2.525 6.872,2.07 0.621,-0.331 1.201,-0.414 1.366,-0.331 1.201,0.455 19.168,-30.553 27.283,-35.687 8.115,-5.175 14.821,7.866 13.372,15.028 -0.166,4.554 1.118,5.133 1.035,8.57 -0.124,4.802 -2.525,7.203 -2.939,11.923 -0.331,3.643 -0.539,5.92 -1.076,7.328 -1.201,3.312 -3.395,1.946 -4.678,3.063 -1.284,0.994 -0.331,5.838 -1.781,8.695 0.042,3.685 0.497,6.83 0.042,7.245 -3.643,3.395 -9.191,3.437 -11.054,3.56 -0.58,1.905 0,2.402 3.188,6.169 1.78,2.111 1.532,5.962 0.911,8.612 -0.497,2.194 -1.076,3.187 -1.532,2.318 -0.621,-1.159 1.863,-1.366 0.993,-2.856 -0.331,-0.539 -2.443,-0.787 -2.732,-0.952 -1.822,-0.828 2.691,-0.497 1.946,-2.194 -0.496,-1.118 -1.904,1.822 -2.484,0.124 -0.539,-1.573 -1.863,-3.023 -6.335,-3.064 -1.117,0 -4.347,-0.414 -7.452,1.408 2.194,-0.083 7.08,-0.828 10.143,2.111 3.022,2.981 3.767,9.481 3.809,9.977 0.331,3.768 2.773,15.401 -1.697,24.716 -0.911,1.905 -13.828,9.771 -17.14,12.255 -2.277,1.697 -2.856,-3.478 -7.203,-6.748 -3.188,-2.36 6.665,-0.746 6.541,-2.278 -0.414,-4.637 -9.854,-10.888 -15.898,-13.413 -3.478,-3.146 12.751,2.111 17.347,-1.987 2.029,-1.822 -0.579,-11.882 -5.589,-17.057 -0.745,-0.787 -1.325,-2.649 -0.414,-3.85 1.573,-2.111 4.347,-1.408 5.671,-3.229 0.994,-1.325 -0.828,-1.49 2.857,-3.933 -0.621,-1.076 -1.739,0.746 -3.312,0.746 -2.194,-0.083 -6.913,2.939 -7.659,4.015 -0.29,-2.443 0.455,-3.933 4.43,-6.376 0.745,-0.414 1.407,-1.573 1.366,-2.65 -0.042,-0.455 -0.663,-0.124 -0.746,-0.538 -0.165,-0.911 2.898,-2.07 2.319,-2.94 -0.787,-1.242 -5.589,2.484 -5.796,2.029 -0.414,-0.952 5.258,-4.14 7.783,-8.197 0.787,-1.201 0.663,-2.111 0.373,-2.608 -0.911,-1.697 -8.073,5.879 -8.528,5.382 -1.035,-1.284 12.172,-12.669 11.302,-13.662 -0.911,-1.076 -7.659,6.831 -7.99,6.417 -0.29,-0.372 0.828,-1.242 -0.042,-1.946 -0.372,-0.331 -1.035,1.201 -1.532,0.869 -0.993,-0.621 2.194,-4.596 1.739,-5.009 -1.905,-1.739 -6.334,11.716 -7.286,11.054 -0.828,-0.579 5.382,-12.875 6.334,-14.365 0.29,-0.455 -1.242,-1.491 -1.573,-0.497 -1.159,3.353 -5.547,11.965 -6.003,12.669 -0.745,1.159 -1.614,9.108 -2.36,8.363 -0.869,-0.952 1.987,-9.356 2.07,-11.551 0.042,-1.656 0.704,-2.898 -0.373,-3.022 -1.242,-0.125 -0.124,-3.726 0.207,-4.803 0.621,-2.235 0.787,-5.795 0.538,-6.748 -0.538,-1.739 1.822,-1.988 1.325,-3.022 -0.29,-0.58 -1.491,-1.615 -2.07,-2.236 z"
       id="path3268"
       style="fill:#ffffff;stroke:#ffffff;stroke-width:0.1242" />
    <path
       d="m 166.014,153.163 c -1.16,-7.286 -3.974,-19.789 11.136,-30.926 0.621,-3.064 5.217,-5.837 9.274,-3.767 1.822,-2.36 5.506,-6.086 12.752,-1.201 6.789,-1.325 16.767,9.563 18.713,18.961 0.166,0.704 0.248,2.815 0.124,3.561 10.805,-0.911 22.356,3.643 1.738,16.601 -1.49,-0.041 -1.614,1.905 -4.885,1.367 -1.284,-0.248 2.649,-1.863 0.496,-1.946 -1.49,-0.083 -0.207,1.284 -1.904,1.449 -2.732,0.249 -2.774,-2.277 -2.856,-3.188 -0.207,-3.312 6.168,-2.36 5.754,-5.051 -0.745,-4.968 -5.838,-5.672 -8.942,-5.754 -4.555,-0.124 -6.169,3.064 -5.382,5.382 0.787,2.319 3.891,3.809 4.968,3.809 1.201,4.637 4.099,8.943 3.685,11.385 -0.373,1.946 2.36,3.726 1.201,3.767 -1.904,0.083 -2.111,1.242 -2.484,1.822 -0.579,0.87 0.042,1.16 -0.29,2.029 v 0.042 c -0.414,1.117 -1.863,0.993 -1.532,1.904 0.414,1.076 2.194,-1.201 3.561,-0.704 0.663,0.248 1.118,0.165 1.408,0.083 0.911,-0.29 2.608,1.863 2.815,2.732 -1.407,0.207 -1.532,-0.497 -4.015,-0.539 -2.029,-0.041 -4.223,0.787 -4.264,1.822 -0.083,0.994 0.911,1.491 1.283,1.615 0.828,0.29 4.761,-0.373 4.637,0.248 -0.621,2.278 -5.217,1.242 -6.251,1.739 -1.16,0.538 -1.449,1.822 -1.076,2.07 2.235,1.49 1.697,3.394 2.525,3.394 1.076,0 4.596,-0.29 3.147,0.124 -2.277,0.746 -0.828,2.732 -2.153,2.732 -6.417,0.083 -9.605,3.312 -11.51,6.583 -4.678,-10.308 -13.289,-16.229 -19.499,-19.044 -0.952,-2.856 -1.573,-4.347 -2.898,-6.334 -26.496,-0.704 -19.789,-9.605 -9.274,-16.767 z"
       id="path3270"
       style="fill:#231f20" />
    <path
       d="m 164.647,25.237 -29.808,-0.87 -0.207,8.818 c 7.121,0.207 12.213,0.414 19.292,0.621 0.952,0 2.07,-2.235 2.07,-1.283 -0.041,0.455 -0.124,6.582 -0.207,8.073 -0.042,0.87 -1.16,-1.201 -1.987,-1.201 l -19.292,-0.621 -0.207,10.019 c 9.977,0.331 19.996,0.662 30.015,0.911 1.656,0.042 1.822,-1.78 1.78,-1.035 0,0.745 -0.042,7.535 -0.083,8.446 0,0.828 -0.125,-0.911 -1.449,-1.242 -13,-0.579 -28.11,-1.035 -41.027,-1.614 0.786,-0.745 2.152,-1.449 2.152,-2.194 0.249,-10.557 0.455,-21.445 0.746,-31.961 0,-0.662 -1.201,-1.573 -1.739,-1.987 6.707,0.166 33.41,0.828 40.075,0.994 1.697,0.083 1.822,-1.78 1.822,-1.035 0,0.745 -0.083,7.535 -0.083,8.446 -0.041,0.911 -0.166,-1.242 -1.863,-1.283 z"
       id="path3272"
       style="fill:#231f20" />
    <path
       d="m 116.913,1.514 -6.665,0.248 0.331,9.315 -3.561,0.165 -0.331,-9.356 -6.334,0.207 -0.042,-1.739 16.519,-0.579 0.083,1.738 z"
       id="path3274"
       style="fill:#231f20" />
    <path
       d="m 133.763,10.871 h -3.519 V 5.862 h -7.908 v 5.009 h -3.602 V -0.224 h 3.602 v 4.347 h 7.908 v -4.347 h 3.519 v 11.095 z"
       id="path3276"
       style="fill:#231f20" />
    <path
       d="m 150.033,2.094 -9.233,-0.373 -0.124,2.608 6.624,0.248 -0.083,1.656 -6.624,-0.248 -0.125,3.353 9.067,0.373 -0.042,1.697 -12.669,-0.497 0.455,-11.095 12.793,0.538 -0.041,1.739 z"
       id="path3278"
       style="fill:#231f20" />
    <path
       d="m 230.515,31.53 c -6.045,10.309 -10.723,19.624 -16.436,30.139 -0.124,0.248 0.455,1.242 0.662,1.863 -3.767,-0.745 -7.535,-1.449 -11.343,-2.194 0.455,-0.455 1.408,-1.035 1.366,-1.407 l -3.561,-24.178 c -3.85,6.914 -7.99,14.2 -11.799,21.155 -0.29,0.538 0.414,1.283 0.621,2.029 l -11.344,-1.78 c 0.414,-0.579 1.366,-1.118 1.284,-1.614 -1.49,-11.923 -2.856,-21.776 -4.388,-33.658 -0.042,-0.538 -0.828,-1.159 -1.242,-1.697 l 11.095,1.573 c -0.414,0.497 -1.325,0.994 -1.284,1.408 l 2.732,24.302 c 3.974,-7.245 7.907,-14.366 11.841,-21.611 0.166,-0.331 -0.331,-1.201 -0.497,-1.78 l 10.888,1.78 c -0.331,0.414 -1.076,1.035 -1.035,1.449 l 3.519,24.633 c 3.767,-7.411 7.41,-14.614 11.178,-22.066 0.124,-0.248 -0.704,-1.159 -0.952,-1.573 l 10.226,1.987 c -0.414,0.331 -1.366,0.911 -1.532,1.242 z"
       id="path3280"
       style="fill:#231f20" />
    <path
       d="m 97.662,180.114 c 1.614,1.076 3.229,3.892 3.27,7.576 0.124,7.41 0.166,8.694 -0.455,15.111 -1.159,-2.194 -2.194,-4.554 -2.36,-7.038 -0.414,-6.955 0.414,-8.322 -0.455,-15.649 z"
       id="path3282"
       style="fill:#ffffff" />
    <path
       d="m 194.372,160.449 c 1.366,-0.496 3.147,-0.166 3.974,-1.449 0.538,-0.911 -0.869,-2.774 0.414,-3.437 0.745,-0.414 3.768,1.118 4.058,2.319 0.331,1.283 -1.366,2.36 -1.781,3.353 0.373,0.497 1.325,-0.249 1.284,1.904 0,1.118 0.124,1.656 -0.207,2.153 -0.166,0.29 -0.538,0.663 -0.538,1.573 0.042,1.201 0.828,1.159 1.118,2.111 0.29,0.869 0.331,1.615 -0.207,1.656 -3.229,0.166 -2.898,-1.076 -6.997,-5.754 -1.284,-1.449 -0.952,-2.111 -1.118,-4.43 z"
       id="path3284"
       style="fill:#ffffff" />
    <path
       d="m 198.14,152.873 c 0.58,0.994 1.325,0.373 2.815,1.076 0.621,0.29 1.863,1.449 2.111,2.898 -1.118,-0.952 -2.567,-2.153 -4.223,-2.029 -0.787,0.083 -1.408,-1.615 -0.704,-1.946 z"
       id="path3286"
       style="fill:#ffffff" />
    <path
       d="m 215.901,152.707 c 0.455,-0.29 0.869,-0.166 1.532,0.166 0.911,0.455 0.704,0.869 0.124,1.201 -0.29,0.166 -0.704,0.166 -1.159,-0.083 -0.539,-0.29 -0.952,-0.994 -0.497,-1.283 z"
       id="path3288"
       style="fill:#ffffff;stroke:#ffffff;stroke-width:0.1242" />
    <path
       d="m 213.458,166.328 c 0.662,0.207 0.745,0.745 0.621,1.283 -0.455,0.124 -0.787,0.124 -1.201,0 -0.042,-0.952 0.496,-0.579 0.579,-1.283 z"
       id="path3290"
       style="fill:#231f20" />
    <path
       d="m 215.528,127.992 c 2.856,4.305 3.85,7.245 4.099,11.84 -0.911,0 -0.662,-0.083 -1.614,-0.041 0.124,-0.745 0.042,-2.857 -0.124,-3.561 -1.656,-8.031 -9.108,-17.057 -15.484,-18.796 5.258,0.373 9.936,5.755 13.124,10.557 z"
       id="path3292"
       style="fill:#ffffff" />
    <path
       d="m 223.642,139.832 c 4.347,0.248 8.487,1.697 8.694,4.678 0.207,3.063 -6.997,8.859 -11.22,11.261 -0.455,0.29 -0.869,0.414 -1.201,0.497 16.767,-10.557 11.965,-15.525 3.726,-16.436 z"
       id="path3294"
       style="fill:#ffffff;stroke:#ffffff;stroke-width:0.1242" />
    <path
       d="m 211.636,169.764 c 0.29,-0.083 0.538,-0.042 0.662,0.041 0.042,0.249 0.042,1.822 -0.083,2.278 -0.207,0.083 -0.455,0.042 -0.579,-0.083 -0.124,-0.745 -0.166,-1.697 0,-2.235 z"
       id="path3296"
       style="fill:#231f20" />
    <path
       d="m 174.583,176.471 c 0.704,0.166 1.325,0.248 1.781,0.248 -0.828,1.449 -2.36,3.767 -3.105,6.293 -0.869,2.856 -1.366,5.34 -3.353,6.748 -0.124,-5.258 0.911,-6.831 0.869,-10.475 0.911,-0.496 2.526,-1.614 3.809,-2.815 z"
       id="path3298"
       style="fill:#231f20" />
    <path
       d="m 80.191,224.95 c 6.583,0.497 8.694,3.312 9.771,4.554 0.994,1.118 0.828,9.605 -1.117,13.29 -1.697,3.188 -4.223,2.153 -4.637,6.335 -0.455,0 -1.614,-0.373 -1.739,0.124 -0.083,0.538 0.994,1.905 0.249,1.863 -1.532,-0.083 -5.217,-1.904 -5.796,-2.318 -0.994,-0.663 1.035,-1.035 0.497,-3.064 -2.112,-7.866 0.869,-15.029 2.773,-20.783 z"
       id="path3300"
       style="fill:#ffffff" />
    <path
       d="m 68.019,138.342 c 0.704,0.248 1.325,2.277 0.373,4.637 -0.994,2.36 -1.408,3.809 -2.567,3.395 -1.201,-0.455 -0.994,-1.863 -0.663,-4.388 0.29,-2.525 2.153,-3.933 2.856,-3.643 z"
       id="path3302"
       style="fill:#ffffff" />
    <path
       d="m 71.58,248.507 c 4.264,0.828 9.646,2.897 12.834,5.34 -2.36,-0.042 -6.624,0.538 -7.535,-0.207 -1.49,-1.284 -4.14,-2.567 -5.299,-5.133 z"
       id="path3304"
       style="fill:#ffffff" />
    <path
       d="m 85.863,254.344 c 1.076,-1.987 7.369,-0.662 11.095,1.781 2.401,1.573 5.051,1.076 4.844,4.926 -3.726,0.497 -2.235,-0.787 -3.188,-0.952 -0.786,-0.125 -0.828,0.993 -1.242,0.745 -0.373,-0.207 0.165,-1.201 -1.656,-1.904 -1.117,-0.455 -2.07,-0.662 -3.436,-0.455 -0.124,-1.159 -1.739,-1.449 -2.815,-1.449 0.331,-2.526 -4.885,-0.414 -3.602,-2.691 z"
       id="path3306"
       style="fill:#ffffff" />
    <path
       d="m 55.31,165.418 c 0.869,0 1.573,0.704 1.366,1.655 -0.248,0.994 -0.745,1.656 -1.49,1.905 -0.704,0.29 -1.491,-0.621 -1.491,-1.738 0,-1.118 0.746,-1.822 1.615,-1.822 z"
       id="path3308"
       style="fill:#231f20" />
    <path
       d="m 72.905,165.21 c 0.828,-0.787 1.946,1.408 2.277,2.36 0.29,0.828 0.29,1.491 -0.828,2.36 -0.745,0.621 -0.704,0.248 -0.538,-0.869 0.083,-0.579 -0.041,-1.284 -0.414,-1.449 -0.993,-0.414 -1.284,-1.614 -0.497,-2.401 z"
       id="path3310"
       style="fill:#231f20" />
    <path
       d="m 135.46,109.9 c 1.615,0.124 2.856,0.414 2.856,0.745 0,0.373 -1.325,0.952 -2.939,1.159 -1.656,0.207 -2.981,0.248 -2.981,-0.704 0,-0.911 1.408,-1.325 3.064,-1.201 z"
       id="path3312"
       style="fill:#ffffff" />
    <path
       d="m 130.534,128.778 c 0.207,-0.373 1.738,-0.29 1.904,1.408 -0.331,0 -1.035,0.166 -1.076,-0.083 -0.207,-0.704 -1.117,-0.787 -0.828,-1.325 z"
       id="path3314"
       style="fill:#231f20;stroke:#231f20;stroke-width:0.1242" />
    <path
       d="m 135.999,137.969 c 0.621,-0.456 1.78,-0.497 1.863,0.248 0.207,1.449 -0.248,1.076 -0.745,0.663 -0.372,-0.373 -1.656,-0.538 -1.117,-0.911 z"
       id="path3316"
       style="fill:#231f20;stroke:#231f20;stroke-width:0.1242" />
    <path
       d="m 76.672,161.153 c 0.372,0 1.449,0.248 1.49,1.614 0,1.325 -0.497,2.898 -0.828,2.856 -0.828,-0.166 0.331,-2.443 -0.662,-4.471 z"
       id="path3318"
       style="fill:#231f20" />
    <path
       d="m 102.506,217.622 c 0.455,9.108 3.974,13.538 5.506,20.162 1.697,0.414 3.891,-0.29 5.341,1.573 -5.01,-1.035 -5.092,0.621 -7.453,0.207 -2.525,-0.496 -1.614,-1.863 0.621,-1.78 -1.78,-6.624 -7.493,-15.649 -4.015,-20.162 z"
       id="path3320"
       style="fill:#ffffff" />
    <path
       d="m 139.434,115.737 c 0.373,-0.497 0.704,-0.083 1.16,0.29 0.62,0.497 1.738,1.904 1.159,1.449 -0.787,-0.621 -2.443,-1.573 -2.319,-1.739 z"
       id="path3322"
       style="fill:#ffffff" />
    <path
       d="m 89.92,178.955 c 1.946,1.532 3.685,8.115 3.478,11.758 -0.331,4.844 0.207,12.627 0.621,14.2 0.62,2.649 0.869,4.43 0.952,6.582 -2.525,-0.207 -3.312,-6.376 -3.064,-13.662 0.249,-6.665 -0.414,-10.846 -1.987,-18.878 z"
       id="path3324"
       style="fill:#ffffff" />
    <path
       d="m 78.577,177.423 c 2.567,-0.869 2.856,5.341 7.121,9.646 0.952,0.372 -0.993,-10.598 2.029,-10.143 0,5.092 -0.455,8.901 -0.663,13.703 -0.124,3.229 1.905,7.99 0.621,10.764 -2.235,-10.226 -3.022,-17.636 -9.108,-23.971 z"
       id="path3326"
       style="fill:#ffffff" />
    <path
       d="m 81.888,214.021 c 0.539,-0.869 3.105,2.484 3.561,1.78 0.869,-1.366 1.656,-0.372 3.395,2.111 6.748,9.481 1.738,5.134 2.194,6.21 0.455,1.201 0.579,2.028 0.579,3.022 -2.194,-3.188 -6.334,-10.267 -8.942,-10.102 -0.745,-0.663 -1.573,-1.656 -0.787,-3.022 z"
       id="path3328"
       style="fill:#ffffff" />
    <path
       d="m 75.803,206.941 c 0.497,1.573 1.118,1.863 1.739,3.147 -0.621,-1.656 -0.249,-2.36 -0.621,-3.147 -0.248,-0.538 -0.745,-0.083 -1.118,0 z"
       id="path3330"
       style="fill:#ffffff" />
    <path
       d="m 78.701,211.62 c 0.124,-0.125 0.497,0.414 0.828,0.786 0.29,0.373 0.579,0.663 0.455,0.828 -0.166,0.124 -0.538,-0.083 -0.87,-0.455 -0.29,-0.373 -0.579,-0.993 -0.414,-1.159 z"
       id="path3332"
       style="fill:#ffffff" />
    <path
       d="m 153.304,201.725 c 1.49,2.443 2.401,2.029 2.319,0.579 -0.042,-0.952 1.076,-0.497 2.028,-0.497 0,0.456 -0.414,2.732 -0.124,2.981 0.579,0.538 0.787,-2.111 1.408,-1.076 0.331,0.538 -0.952,0.704 -0.993,2.608 0,0.994 0.952,2.609 -1.284,3.312 1.076,0.455 2.319,1.16 1.822,1.863 -0.455,0.663 -1.201,0.911 -0.663,2.402 -1.987,0.166 -4.14,-0.166 -5.133,-1.325 0,-1.946 0.663,-4.14 -0.042,-5.962 -1.117,-2.774 0.621,-2.112 0.663,-4.885 z"
       id="path3334"
       style="fill:#ffffff" />
    <path
       d="m 110.62,189.388 c 1.449,-0.745 5.134,7.038 6.251,10.846 0.745,-3.891 1.284,-2.981 2.484,-0.869 2.401,0.538 2.567,3.602 2.981,8.239 0.373,4.637 -0.579,24.674 -2.318,31.257 0,0 -0.787,-2.029 -0.207,-5.217 0.539,-3.063 1.739,-7.204 0.704,-8.404 -2.07,-2.401 -1.614,1.035 -2.442,1.449 -0.911,0.414 -0.331,9.812 -0.331,11.137 0.041,0.952 -1.491,1.366 -1.739,0.331 -0.621,-2.567 -0.952,-8.57 -1.822,-11.427 -2.732,-9.149 -3.146,-10.225 -2.029,-10.64 1.739,-0.662 0.249,-1.863 -0.496,-2.401 -1.242,-0.952 0.455,-3.188 0.166,-3.974 -0.539,-1.366 -2.029,-2.401 -0.166,-5.754 0.828,-1.449 -0.042,3.022 0.993,6.417 0.497,-4.181 1.16,-3.478 1.697,-7.411 0.621,-4.637 -4.885,-13.041 -3.726,-13.579 z"
       id="path3336"
       style="fill:#ffffff;stroke:#ffffff;stroke-width:0.1242" />
    <path
       d="m 116.126,239.192 c 2.857,0 3.147,1.615 6.003,1.449 2.898,-0.124 13.496,1.863 16.353,2.029 2.898,-0.042 1.366,1.614 -0.331,1.49 -2.402,-0.538 -2.112,0.663 -2.774,0.621 -1.035,-0.124 -1.822,-0.952 -3.022,-0.911 -2.402,0.083 -2.443,1.987 -6.997,-0.704 -2.236,-1.366 -5.713,-1.904 -8.446,-2.235 -1.987,0 -2.567,-1.74 -0.787,-1.74 z"
       id="path3338"
       style="fill:#ffffff;stroke:#ffffff;stroke-width:0.1242" />
    <path
       d="m 80.564,193.445 c 0.248,-0.207 0.993,0.207 1.614,1.035 0.58,0.828 0.663,2.236 0.497,2.236 -0.166,0 -0.663,-0.579 -1.159,-1.49 -0.455,-0.911 -1.242,-1.573 -0.952,-1.781 z"
       id="path3340"
       style="fill:#ffffff" />
    <path
       d="m 83.131,201.891 c 0.29,-0.166 0.497,0.496 1.035,0.952 0.538,0.496 0.745,0.869 0.787,1.325 0.042,0.455 -0.704,0.414 -1.325,-0.373 -0.621,-0.787 -0.745,-1.697 -0.497,-1.904 z"
       id="path3342"
       style="fill:#ffffff" />
    <path
       d="m 85.491,205.948 c 0.29,-0.166 0.952,1.118 1.407,2.07 0.455,0.911 0.663,2.111 0.373,2.111 -0.29,-0.042 -0.539,-0.704 -0.869,-1.656 -0.331,-0.952 -1.201,-2.401 -0.911,-2.525 z"
       id="path3344"
       style="fill:#ffffff" />
    <path
       d="m 54.979,25.816 c 0.538,0.124 1.573,-0.745 2.443,-1.118 l -3.933,9.687 c -0.414,-0.538 -0.497,-2.07 -0.911,-2.235 -2.443,-0.952 -8.942,-2.319 -15.401,-0.414 -11.219,3.271 -15.98,9.439 -14.2,16.974 1.781,7.535 11.302,10.392 21.901,7.742 8.156,-2.029 12.296,-7.369 12.752,-7.99 0.207,-0.331 -0.29,-1.946 -0.455,-2.857 0.621,0.497 6.707,5.092 8.197,6.293 -0.663,0 -2.277,0.166 -2.65,0.538 -3.767,3.768 -8.28,7.576 -16.601,9.522 -17.222,4.057 -28.98,-0.952 -31.174,-11.426 -2.153,-10.267 5.092,-19.789 21.445,-24.343 7.08,-1.987 17.264,-0.786 18.589,-0.373 z"
       id="path3346"
       style="fill:#231f20" />
    <path
       d="m 115.05,52.23 c 0.331,0.29 1.532,1.242 2.484,1.697 -0.911,0.083 -13.041,1.076 -13.911,1.159 0.455,-0.704 1.449,-1.325 0.994,-1.739 -5.299,-5.092 -7.576,-7.659 -13.165,-12.461 -1.656,0.248 -9.232,0.58 -11.84,0.828 l 1.16,13.828 c 0.041,0.331 1.035,1.076 1.573,1.573 l -11.509,0.994 c 0.455,-0.538 1.366,-1.697 1.366,-1.987 -0.787,-10.516 -1.532,-20.866 -2.443,-31.34 -0.083,-0.704 -1.78,-1.739 -2.65,-2.608 1.201,-0.083 19.334,-2.07 24.385,-2.401 15.525,-1.076 20.824,2.236 21.445,9.357 0.455,5.63 -4.844,9.025 -11.219,10.764 5.92,5.382 7.369,6.79 13.331,12.337 m -36.432,-25.502 0.538,9.315 c 1.987,-0.083 7.866,-0.497 8.901,-0.538 9.108,-0.621 17.057,-2.07 16.353,-6.417 -0.911,-5.672 -8.487,-3.602 -18.216,-2.939 -1.159,0.083 -6.334,0.373 -7.576,0.579 z"
       id="path3348"
       style="fill:#231f20" />
    <path
       d="m 81.723,152.459 c -0.372,-0.166 -0.787,-0.248 -1.117,-0.248 0.124,-1.904 0.124,-4.057 0.207,-6.5 0.539,-10.971 -3.809,-19.086 -10.101,-22.066 -1.739,-0.828 -2.815,-2.153 -3.602,-3.353 l -0.538,-0.787 c 3.56,5.092 8.073,3.892 11.964,11.385 3.768,7.245 3.478,13.662 3.188,21.57 z"
       id="path3350"
       style="fill:#ffffff" />
    <path
       d="m 153.925,106.298 c -0.166,-0.042 -0.373,-0.083 -0.539,-0.166 0.373,-6.003 0.746,-13.124 -4.761,-19.334 -3.312,-3.768 -6.169,-5.341 -8.156,-9.688 v -0.911 c 0.663,3.229 6.127,7.949 9.274,11.095 4.555,4.554 5.382,14.407 4.182,19.003 z"
       id="path3352"
       style="fill:#ffffff" />
  </g>
</svg>
