<?xml version="1.0" encoding="UTF-8" standalone="no"?>
<!-- Created with Inkscape (http://www.inkscape.org/) -->

<svg
   xmlns:dc="http://purl.org/dc/elements/1.1/"
   xmlns:cc="http://creativecommons.org/ns#"
   xmlns:rdf="http://www.w3.org/1999/02/22-rdf-syntax-ns#"
   xmlns:svg="http://www.w3.org/2000/svg"
   xmlns="http://www.w3.org/2000/svg"
   version="1.1"
   width="280"
   height="200"
   id="svg3360">
  <metadata
     id="metadata3455">
    <rdf:RDF>
      <cc:Work
         rdf:about="">
        <dc:format>image/svg+xml</dc:format>
        <dc:type
           rdf:resource="http://purl.org/dc/dcmitype/StillImage" />
        <dc:title></dc:title>
      </cc:Work>
    </rdf:RDF>
  </metadata>
  <defs
     id="defs3362">
    <clipPath
       id="a">
      <path
         d="M 0,0 H 396 V 612 H 0 V 0 z"
         id="path3365" />
    </clipPath>
    <clipPath
       id="b">
      <path
         d="M 0,0 H 396 V 612 H 0 V 0 z"
         id="path3368" />
    </clipPath>
    <clipPath
       id="c">
      <path
         d="M 0,0 H 396 V 612 H 0 V 0 z"
         id="path3371" />
    </clipPath>
  </defs>
  <g
     transform="matrix(0.77212922,0,0,0.77212922,68.383933,-2.1797208)"
     id="g3373">
    <g
       clip-path="url(#a)"
       id="g3375">
      <path
         d="m 191.264,153.916 c 0,74.889 -77.281,84.628 -77.281,84.628 l -16.6,23.303 -16.592,-23.303 c 0,0 -77.277,-9.74 -77.277,-84.628 L 9.201,67.494 2.093,12.591 c 0,0 17.556,-9.766 95.29,-9.766 77.734,0 95.294,9.766 95.294,9.766 l -7.104,54.903 5.691,86.422 z"
         id="path3377"
         style="fill:#ffffff" />
      <path
         d="m 168.585,52.725 3.527,-32.171 c 0.411,-3.721 -0.339,-4.152 -2.449,-4.434 l -4.27,38.993 c 2.209,0.248 2.994,-0.583 3.192,-2.388"
         id="path3379"
         style="fill:#ffffff" />
      <path
         d="M 30.626,52.153 26.406,20.066 C 25.918,16.352 25.092,16.12 22.97,16.341 l 5.119,38.89 c 2.205,-0.286 2.773,-1.276 2.537,-3.078"
         id="path3381"
         style="fill:#ffffff" />
      <path
         d="m 83.942,56.633 13.442,9.241 13.453,-9.241 c 48.805,0 66.307,4.418 70.482,5.759 l 6.037,-46.626 C 179.749,13.328 155.901,7.695 97.384,7.695 38.87,7.695 15.026,13.329 7.412,15.766 l 6.041,46.626 c 4.19,-1.341 21.681,-5.759 70.489,-5.759 m 74.047,-2.335 1.748,0.198 4.274,-39 -1.752,-0.19 0.099,-0.907 6.205,0.682 c 5.843,0.64 9.222,3.013 7.869,19.14 l -0.686,6.266 c -0.865,7.896 -3.001,16.348 -9.625,15.621 l -8.231,-0.899 0.099,-0.91 z m -19.59,-1.665 1.756,0.145 3.245,-39.096 -1.748,-0.141 0.072,-0.907 15.724,1.303 -1.287,15.503 -0.598,-0.046 c -0.628,-11.389 -1.192,-14.798 -4.095,-15.042 l -2.392,-0.194 -1.554,18.668 c 2.4,-0.312 3.702,-2.026 4.643,-9.523 l 0.655,0.053 -1.741,20.93 -0.507,-0.042 c -0.027,-7.523 -0.518,-10.014 -3.131,-10.513 l -1.607,19.517 1.379,0.122 c 2.4,0.198 3.516,-0.396 5.325,-6.513 1.356,-4.617 1.767,-6.232 2.198,-8.589 l 0.686,0.057 -1.364,16.52 -15.735,-1.303 0.076,-0.91 z m -17.472,-41.152 16.771,0.876 -0.918,17.525 -0.64,-0.038 C 135.233,17.857 134.018,13.02 132.205,12.867 l -0.091,-0.004 -2.053,39.29 1.939,0.099 -0.05,0.91 -9.564,-0.507 0.05,-0.903 1.939,0.107 2.053,-39.297 -0.088,-0.004 c -1.805,-0.034 -3.542,4.647 -5.683,16.47 l -0.651,-0.03 0.922,-17.518 z m -15.019,39.812 2.038,0.042 0.686,-39.233 -2.038,-0.034 0.015,-0.907 9.762,0.171 -0.023,0.907 -2.034,-0.034 -0.674,39.217 2.171,0.042 -0.015,0.91 -9.907,-0.171 0.019,-0.91 z m -19.3,0.027 c 1.71,-0.339 2.503,-1.425 2.503,-3.98 V 12.084 h -1.863 v -0.907 h 7.645 c 1.79,9.538 4.015,18.908 5.454,28.56 h 0.095 V 15.436 c 0,-2.552 -0.876,-3.234 -2.224,-3.352 v -0.907 h 5.329 v 0.907 c -1.207,0.061 -2.179,1.139 -2.179,3.127 v 37.02 h -3.984 l -7.222,-37.93 c -0.046,-0.057 -0.088,0 -0.137,0 v 33.154 c 0,3.07 1.07,3.927 2.373,3.866 v 0.91 h -5.79 v -0.91 z m -10.185,-40.265 0.03,0.907 -1.764,0.065 1.299,36.94 c 0.05,1.645 0.449,2.491 2.445,2.415 1.847,-0.061 3.767,-2.118 3.565,-7.85 L 80.985,14.477 c -0.072,-2.099 -1.021,-2.628 -2.449,-2.583 l -0.03,-0.907 5.218,-0.187 0.038,0.91 c -1.253,0.16 -1.878,0.747 -1.805,2.735 l 0.998,28.541 c 0.259,7.488 -2.255,9.629 -6.327,9.762 -3.649,0.13 -6.273,-1.943 -6.475,-7.953 l -1.154,-32.571 -1.794,0.069 -0.038,-0.91 9.256,-0.328 z M 61.252,45.744 c 1.383,-0.088 2.605,1.661 2.72,3.588 0.122,1.863 -0.693,3.74 -2.27,3.832 -1.562,0.099 -2.651,-1.661 -2.765,-3.523 -0.107,-1.927 0.876,-3.809 2.316,-3.897 M 48.55,12.008 c 1.992,-0.122 3.135,1.059 3.954,3.165 l 1.836,-3.409 0.465,-0.023 1.028,16.832 -0.64,0.038 c -2.861,-14.162 -4.449,-15.659 -6.06,-15.556 -0.834,0.046 -1.044,1.2 -0.998,1.939 l 2.084,33.999 c 0.171,2.944 0.834,3.813 2.084,3.737 2.727,-0.16 4.342,-5.496 3.459,-16.249 l 0.682,-0.042 C 57.267,46.742 56.299,53.736 51.732,54.014 46.567,54.338 44.285,46.853 43.68,36.82 l -0.457,-7.424 c -0.861,-14.109 2.43,-17.209 5.329,-17.388 m -9.26,35.428 c 1.379,-0.179 2.712,1.478 2.967,3.394 0.24,1.855 -0.438,3.779 -1.996,3.984 -1.562,0.202 -2.762,-1.47 -3.005,-3.325 -0.255,-1.924 0.617,-3.866 2.034,-4.053 M 21.664,15.597 c 5.824,-0.766 9.66,0.728 12.193,16.718 l 0.819,6.254 c 1.036,7.881 0.964,16.592 -5.637,17.46 l -8.216,1.082 -0.122,-0.907 1.745,-0.221 -5.119,-38.898 -1.737,0.229 -0.114,-0.899 6.19,-0.819 z"
         id="path3383"
         style="fill:#ffffff" />
      <path
         d="M 112.348,61.508 97.386,71.781 82.417,61.508 c -52.823,0 -68.318,5.828 -68.318,5.828 l -5.713,86.689 c 0,72.169 75.133,79.959 75.133,79.959 l 13.869,19.475 13.869,-19.475 c 0,0 75.133,-7.789 75.133,-79.959 l -5.706,-86.689 c 0,0 -15.503,-5.828 -68.333,-5.828 M 81.689,63.946 97.39,74.733 113.106,63.946 c 29.687,0.03 47.38,1.939 57.002,3.531 l -2.042,1.356 c -8.445,5.622 -17.118,9.279 -24.77,12.497 -14.505,6.106 -27.029,11.374 -27.029,26.907 0,4.396 1.466,7.188 2.883,9.873 1.634,3.112 3.329,6.327 3.329,12.981 0,4.856 -0.735,7.142 -7.424,7.142 -3.059,0 -5.485,-2.141 -5.485,-4.761 0,-2.621 2.864,-3.931 6.925,-4.247 0,0 -4.99,-2.183 -4.99,-3.062 0,-0.929 3.619,-1.866 3.619,-1.866 0,0 -3.683,-2.19 -3.683,-3.375 0,0 1.501,-1.794 1.044,-5.298 -10.063,1.124 -11.72,-0.449 -17.4,-0.449 -3.813,0 -5.934,2.495 -5.934,2.495 0,0 -1.939,-0.366 -3.241,-0.366 -7.629,0 -7.873,7.367 -7.873,10.421 0,3.066 0.309,4.933 0.309,4.933 1.249,-1.866 2.876,-4.114 5.679,-4.114 2.811,0 5.001,0.434 5.001,4.304 0,3.87 -4.243,5.386 -9.309,5.386 -6.681,0 -7.416,-2.285 -7.416,-7.142 0,-6.654 1.695,-9.869 3.329,-12.981 1.421,-2.685 2.891,-5.477 2.891,-9.873 0,-15.533 -12.524,-20.801 -27.04,-26.907 C 43.84,78.112 35.171,74.456 26.719,68.834 l -2.034,-1.356 c 9.622,-1.592 27.307,-3.5 57.005,-3.531 m 83.996,33.47 c 0,0 0.088,3.771 0.088,11.077 0,32.171 -23.711,21.079 -26.214,42.303 7.473,-11.393 19.274,-12.334 22.843,-19.898 6.548,36.418 -27.63,41.933 -41.202,45.841 -3.455,1.101 -6.159,2.883 -5.077,6.567 l 8.178,28.061 -17.232,-11.008 -9.679,47.734 -9.675,-47.734 -17.228,11.008 8.182,-28.061 c 1.059,-3.683 -1.638,-5.466 -5.081,-6.567 -13.583,-3.908 -47.746,-9.423 -41.198,-45.841 3.561,7.565 15.358,8.505 22.82,19.898 -2.503,-21.224 -26.21,-10.132 -26.21,-42.303 0,-7.306 0.103,-11.077 0.103,-11.077 3.101,11.736 18.085,11.263 26.202,25.136 C 53.68,97.25 27.211,111.492 25.367,70.861 50.194,87.396 76.08,86.889 76.08,108.239 c 0,8.502 -6.216,9.736 -6.216,22.854 0,5.873 1.493,9.572 9.854,9.572 6.433,0 11.842,-2.053 11.842,-8.098 0,-3.188 -1.76,-6.372 -6.951,-6.372 -3.611,0 -4.148,1.063 -4.148,1.063 -0.446,-3.116 0.964,-7.477 5.176,-7.477 2.023,0 4.498,0.819 4.498,0.819 0.427,0 0.579,-0.206 0.579,-0.541 0,-0.838 1.413,-2.4 4.799,-2.4 3.775,0 7.801,1.413 14.516,0.67 0.358,1.059 -1.577,0.891 -1.577,2.575 0,1.459 2.247,2.933 2.247,2.933 0,0 -2.224,0.975 -2.224,2.24 0,1.394 2.095,2.472 2.095,2.472 0,0 -3.424,0.792 -3.424,4.906 0,4.78 4.712,7.21 7.911,7.21 8.365,0 9.862,-3.699 9.862,-9.572 0,-13.118 -6.212,-14.352 -6.212,-22.854 0,-21.349 25.897,-20.843 50.709,-37.378 -1.832,40.631 -28.316,26.389 -29.931,51.692 8.109,-13.872 23.102,-13.4 26.202,-25.136 M 84.875,231.684 c 0,0 -74.051,-6.986 -74.051,-77.658 0.011,0 4.815,-72.916 5.595,-84.838 1.215,-0.331 3.287,-0.834 6.369,-1.386 l 0.141,3.169 c 0.377,8.147 1.756,14.238 3.706,18.927 l -0.065,18.596 c 0,8.574 1.615,14.326 4.053,18.447 l -0.632,3.527 c -6.418,35.557 24.343,43.682 39.118,47.593 l 3.798,1.032 c 4.068,1.28 3.695,2.567 3.42,3.531 l -9.987,34.292 19.7,-12.596 8.201,40.528 -9.366,-13.164 z m 25.037,0 -9.37,13.164 8.212,-40.528 19.693,12.596 -9.983,-34.292 c -0.27,-0.964 -0.648,-2.251 3.413,-3.531 l 3.805,-1.032 c 14.764,-3.912 45.54,-12.036 39.118,-47.593 0,0 -0.328,-1.764 -0.644,-3.527 2.438,-4.121 4.064,-9.873 4.064,-18.447 l -0.069,-18.596 c 1.958,-4.689 3.329,-10.779 3.699,-18.927 l 0.137,-3.169 c 3.089,0.552 5.161,1.055 6.392,1.386 0.773,11.922 5.573,84.838 5.58,84.838 0,70.672 -74.047,77.658 -74.047,77.658"
         id="path3385"
         style="fill:#ffffff" />
      <path
         d="m 92.719,161.918 c 0.461,-0.171 0.929,-0.324 1.394,-0.442 l 3.272,-9.618 3.276,9.618 c 0.469,0.118 0.941,0.27 1.386,0.442 l -4.662,-13.69 -4.666,13.69 z"
         id="path3387"
         style="fill:#ffffff" />
      <path
         d="m 108.124,166.641 h 9.755 l -7.488,5.786 c 0.061,0.465 0.099,0.929 0.118,1.402 l 10.818,-8.353 h -14.12 c 0.32,0.369 0.64,0.754 0.918,1.166"
         id="path3389"
         style="fill:#ffffff" />
      <path
         d="m 84.381,172.425 -7.492,-5.786 h 9.755 c 0.293,-0.411 0.598,-0.792 0.937,-1.162 H 73.453 l 10.818,8.349 c 0.015,-0.472 0.053,-0.937 0.11,-1.402"
         id="path3391"
         style="fill:#ffffff" />
      <path
         d="m 107.492,182.57 2.533,8.406 -7.028,-4.925 c -0.434,0.194 -0.868,0.373 -1.314,0.526 l 10.467,7.302 -3.775,-12.516 c -0.274,0.419 -0.568,0.819 -0.884,1.207"
         id="path3393"
         style="fill:#ffffff" />
      <path
         d="m 84.745,190.976 2.541,-8.406 c -0.32,-0.389 -0.621,-0.788 -0.884,-1.207 l -3.782,12.516 10.46,-7.302 c -0.438,-0.152 -0.868,-0.328 -1.287,-0.526 l -7.047,4.925 z"
         id="path3395"
         style="fill:#ffffff" />
      <path
         d="m 109.24,174.181 c 0,-2.914 -1.047,-5.58 -2.796,-7.641 -0.994,-0.072 -1.493,-0.065 -2.354,0.724 0.438,1.223 0.362,3.881 0.362,3.881 -0.286,-3.093 -1.086,-4.03 -1.086,-4.03 0,0 -2.377,-2.308 -5.26,-2.011 l -0.072,-2.754 c -0.209,-0.015 -0.427,-0.023 -0.648,-0.023 -6.27,0 -11.397,4.856 -11.831,11.012 0.587,-0.312 1.105,-0.739 1.105,-0.739 0.423,-3.679 2.594,-5.055 2.594,-5.055 l 0.244,-2.011 0.217,1.946 c 2.335,-0.076 3.565,0.209 3.565,0.209 1.832,-1.188 3.565,-2.156 3.565,-2.156 -1.619,1.006 -3.344,2.381 -3.344,2.381 -0.107,2.483 0.75,5.077 0.75,5.077 -3.021,1.615 -3.348,1.615 -4.43,3.017 -0.213,1.946 0.324,4.106 0.324,4.106 -0.868,-1.725 -0.747,-3.885 -0.747,-3.885 -1.409,-1.185 -2.598,-3.238 -2.598,-3.238 -0.366,0.267 -1.04,0.663 -1.257,0.788 l -0.011,0.4 c 0,3.2 1.268,6.102 3.325,8.239 l 1.474,-1.47 c 1.798,1.729 4.681,2.803 5.329,2.522 0.609,-0.168 2.08,-0.849 3.017,-1.546 -1.421,1.242 -2.876,2.053 -2.876,2.053 0.11,0.221 0.183,1.47 0.202,1.981 0.461,0.05 0.922,0.076 1.383,0.076 6.555,0 11.854,-5.306 11.854,-11.854 m -3.923,8.498 c -0.145,-1.729 -0.514,-2.59 -0.514,-2.59 -2.152,0.788 -3.455,0.788 -4.75,0.716 0.792,-2.015 0.145,-4.898 0.145,-4.898 -2.091,-0.796 -4.761,-1.737 -4.971,-2.301 1.729,0.785 4.472,2.011 5.47,1.581 1.52,-0.579 3.756,-3.097 3.756,-3.097 0.648,0.72 2.023,1.798 2.59,3.455 1.074,-0.286 1.63,-0.644 2.11,-1.364 -0.232,1.078 -2.11,1.794 -2.11,1.794 -0.137,1.234 -0.568,3.032 -1.512,3.748 -0.072,0.507 -0.213,2.956 -0.213,2.956"
         id="path3397"
         style="fill:#ffffff" />
      <path
         d="m 94.883,133.312 c 0,3.607 -2.712,6.022 -2.712,6.022 0,0 2.411,-1.268 3.961,0.891 0,0 1.166,-1.996 3.782,-1.996 2.533,0 3.379,1.996 3.379,1.996 0,0 0.975,-1.817 3.325,-1.112 0,0 -5.534,-4.537 0.03,-10.387 0,0 -2.723,-2.464 0.274,-4.624 0,0 -1.771,-0.922 -0.522,-3.101 -3.181,1.318 -6.91,-1.051 -9.877,-1.051 -3.188,0 -3.596,1.996 -3.596,1.996 0,0 1.234,1.04 2.754,1.04 1.356,0 3.58,-0.987 3.58,-0.987 0.183,1.032 -0.72,3.196 -3.116,3.196 -2.004,0 -2.895,-1.463 -4.895,-2.491 -1.086,-0.552 -2.487,-0.983 -4.567,-0.983 -3.695,0 -4.026,2.042 -4.232,3.535 0,0 0.796,-0.674 2.48,-0.674 6.235,0 9.949,3.44 9.949,8.73"
         id="path3399"
         style="fill:#ffffff" />
    </g>
    <path
       d="m 154.049,230.204 h 1.836 v 5.538 h 0.663 v -5.538 h 1.931 v -0.655 h -4.43 v 0.655 z"
       id="path3401"
       style="fill:#231f20" />
    <path
       d="m 162.013,234.585 -1.588,-5.035 h -1.07 v 6.193 h 0.67 v -5.264 l 1.653,5.264 h 0.667 l 1.665,-5.264 v 5.264 h 0.655 v -6.193 h -1.063 l -1.588,5.035 z"
       id="path3403"
       style="fill:#231f20" />
    <g
       clip-path="url(#b)"
       id="g3405">
      <path
         d="m 108.124,166.641 c 1.188,1.676 1.981,3.645 2.266,5.786 l 7.488,-5.786 h -9.755 z"
         id="path3407"
         style="fill:#fabd14" />
      <path
         d="m 94.114,161.476 c 1.047,-0.274 2.144,-0.43 3.272,-0.43 1.139,0 2.228,0.156 3.276,0.43 l -3.276,-9.618 -3.272,9.618 z"
         id="path3409"
         style="fill:#fabd14" />
      <path
         d="m 76.889,166.641 7.492,5.786 c 0.293,-2.141 1.086,-4.11 2.263,-5.786 h -9.755 z"
         id="path3411"
         style="fill:#fabd14" />
      <path
         d="m 87.286,182.57 -2.541,8.406 7.047,-4.925 c -1.745,-0.827 -3.291,-2.015 -4.506,-3.481"
         id="path3413"
         style="fill:#fabd14" />
      <path
         d="m 102.997,186.05 7.028,4.925 -2.533,-8.406 c -1.215,1.466 -2.762,2.655 -4.495,3.481"
         id="path3415"
         style="fill:#fabd14" />
      <path
         d="m 178.373,69.186 c -1.23,-0.331 -3.302,-0.834 -6.392,-1.386 l -0.137,3.169 c -0.369,8.151 -1.741,14.238 -3.699,18.927 l 0.069,18.596 c 0,8.578 -1.626,14.329 -4.064,18.447 0.316,1.764 0.644,3.527 0.644,3.527 6.422,35.557 -24.355,43.682 -39.118,47.593 l -3.805,1.032 c -4.06,1.28 -3.683,2.567 -3.413,3.531 l 9.983,34.292 -19.696,-12.596 -8.208,40.528 9.37,-13.164 c 0,0 74.047,-6.986 74.047,-77.658 -0.011,0 -4.807,-72.916 -5.58,-84.838"
         id="path3417"
         style="fill:#ed1c24" />
      <path
         d="m 51.475,81.328 c 14.516,6.11 27.04,11.374 27.04,26.911 0,4.396 -1.47,7.184 -2.891,9.873 -1.634,3.108 -3.325,6.323 -3.325,12.981 0,4.853 0.731,7.142 7.416,7.142 5.062,0 9.309,-1.52 9.309,-5.386 0,-3.87 -2.194,-4.304 -5.005,-4.304 -2.803,0 -4.426,2.244 -5.679,4.11 0,0 -0.309,-1.866 -0.309,-4.933 0,-3.055 0.244,-10.421 7.873,-10.421 1.306,0 3.241,0.369 3.241,0.369 0,0 2.122,-2.499 5.934,-2.499 5.679,0 7.336,1.573 17.4,0.449 0.461,3.508 -1.044,5.302 -1.044,5.302 0,1.181 3.683,3.371 3.683,3.371 0,0 -3.619,0.937 -3.619,1.87 0,0.876 4.99,3.062 4.99,3.062 -4.057,0.312 -6.925,1.623 -6.925,4.243 0,2.624 2.426,4.765 5.485,4.765 6.689,0 7.428,-2.289 7.428,-7.142 0,-6.658 -1.699,-9.873 -3.333,-12.981 -1.417,-2.689 -2.883,-5.477 -2.883,-9.873 0,-15.537 12.524,-20.801 27.029,-26.911 7.652,-3.215 16.325,-6.875 24.77,-12.497 l 2.042,-1.356 c -9.622,-1.592 -27.314,-3.5 -56.998,-3.527 L 97.384,74.729 81.683,63.946 c -29.699,0.027 -47.384,1.935 -57.005,3.527 l 2.038,1.356 c 8.448,5.622 17.118,9.283 24.759,12.497"
         id="path3419"
         style="fill:#ed1c24" />
      <path
         d="m 66.336,216.915 9.983,-34.292 c 0.274,-0.964 0.651,-2.251 -3.42,-3.531 L 69.101,178.06 C 54.326,174.148 23.568,166.024 29.986,130.467 l 0.632,-3.527 c -2.438,-4.118 -4.053,-9.869 -4.053,-18.447 L 26.63,89.897 C 24.68,85.208 23.301,79.121 22.924,70.97 l -0.141,-3.169 c -3.085,0.552 -5.154,1.055 -6.372,1.386 -0.781,11.922 -5.584,84.838 -5.592,84.838 0,70.672 74.051,77.658 74.051,77.658 l 9.366,13.164 -8.205,-40.528 -19.696,12.596 z"
         id="path3421"
         style="fill:#ed1c24" />
      <path
         d="m 95.684,122.985 c -1.52,0 -2.758,-1.036 -2.758,-1.036 -0.811,0.632 -1.379,0.754 -1.672,0.758 1.996,1.028 2.887,2.487 4.895,2.487 2.396,0 3.299,-2.164 3.112,-3.196 0,0 -2.221,0.987 -3.577,0.987"
         id="path3423"
         style="fill:#ed1c24" />
      <path
         d="m 192.678,12.589 c 0,0 -17.559,-9.766 -95.294,-9.766 -77.734,0 -95.29,9.766 -95.29,9.766 l 7.108,54.903 -5.687,86.422 c 0,74.889 77.277,84.632 77.277,84.632 l 16.592,23.3 16.6,-23.3 c 0,0 77.281,-9.743 77.281,-84.632 l -5.691,-86.422 7.104,-54.903 z M 7.412,15.766 c 7.614,-2.438 31.459,-8.071 89.972,-8.071 58.518,0 82.366,5.634 89.972,8.071 l -6.037,46.626 c -4.175,-1.337 -21.677,-5.759 -70.482,-5.759 L 97.384,65.874 83.942,56.633 c -48.809,0 -66.299,4.422 -70.489,5.759 L 7.412,15.766 z m 178.973,138.255 c 0,72.173 -75.129,79.962 -75.129,79.962 L 97.384,253.458 83.515,233.983 c 0,0 -75.133,-7.789 -75.133,-79.962 l 5.713,-86.685 c 0,0 15.495,-5.828 68.318,-5.828 l 14.969,10.269 14.962,-10.269 c 52.831,0 68.333,5.828 68.333,5.828 l 5.706,86.685 z"
         id="path3425"
         style="fill:#231f20" />
      <path
         d="m 118.699,108.238 c 0,8.502 6.216,9.736 6.216,22.854 0,5.873 -1.501,9.572 -9.865,9.572 -3.196,0 -7.907,-2.43 -7.907,-7.21 0,-4.118 3.42,-4.906 3.42,-4.906 0,0 -2.095,-1.082 -2.095,-2.472 0,-1.265 2.224,-2.24 2.224,-2.24 0,0 -2.244,-1.478 -2.244,-2.933 0,-1.687 1.935,-1.52 1.573,-2.575 -6.711,0.743 -10.741,-0.674 -14.512,-0.674 -3.386,0 -4.803,1.562 -4.803,2.403 0,0.335 -0.152,0.541 -0.575,0.541 0,0 -2.48,-0.819 -4.502,-0.819 -4.213,0 -5.622,4.357 -5.173,7.473 0,0 0.537,-1.063 4.144,-1.063 5.192,0 6.955,3.188 6.955,6.372 0,6.045 -5.409,8.102 -11.842,8.102 -8.361,0 -9.858,-3.699 -9.858,-9.572 0,-13.118 6.22,-14.352 6.22,-22.854 0,-21.353 -25.886,-20.847 -50.713,-37.378 1.84,40.631 28.312,26.389 29.935,51.692 -8.117,-13.872 -23.098,-13.404 -26.198,-25.136 0,0 -0.103,3.771 -0.103,11.073 0,32.175 23.707,21.083 26.21,42.307 -7.466,-11.393 -19.258,-12.334 -22.82,-19.902 -6.548,36.418 27.615,41.937 41.194,45.845 3.447,1.097 6.14,2.883 5.085,6.563 l -8.186,28.065 17.228,-11.008 9.675,47.734 9.682,-47.734 17.228,11.008 -8.178,-28.065 c -1.078,-3.679 1.626,-5.466 5.077,-6.563 13.575,-3.908 47.753,-9.427 41.202,-45.845 -3.565,7.568 -15.366,8.509 -22.839,19.902 2.499,-21.224 26.21,-10.132 26.21,-42.307 0,-7.302 -0.084,-11.073 -0.084,-11.073 -3.101,11.732 -18.097,11.263 -26.202,25.136 1.615,-25.303 28.095,-11.061 29.931,-51.692 -24.816,16.531 -50.713,16.024 -50.713,37.378 M 95.8,183.975 c 0,0 1.455,-0.808 2.876,-2.053 -0.941,0.697 -2.407,1.379 -3.017,1.546 -0.651,0.286 -3.535,-0.792 -5.329,-2.522 l -1.474,1.47 c -2.057,-2.133 -3.329,-5.035 -3.329,-8.239 l 0.015,-0.4 c 0.217,-0.126 0.891,-0.518 1.257,-0.788 0,0 1.188,2.053 2.594,3.238 0,0 -0.118,2.16 0.75,3.889 0,0 -0.537,-2.16 -0.324,-4.106 1.078,-1.406 1.409,-1.406 4.426,-3.021 0,0 -0.853,-2.594 -0.747,-5.077 0,0 1.725,-1.375 3.344,-2.381 0,0 -1.733,0.967 -3.565,2.16 0,0 -1.23,-0.289 -3.565,-0.213 l -0.217,-1.946 -0.248,2.011 c 0,0 -2.167,1.375 -2.594,5.055 0,0 -0.514,0.43 -1.101,0.743 0.434,-6.159 5.557,-11.016 11.827,-11.016 0.225,0 0.438,0.011 0.648,0.027 l 0.072,2.75 c 2.887,-0.293 5.26,2.011 5.26,2.011 0,0 0.8,0.937 1.089,4.034 0,0 0.072,-2.659 -0.362,-3.885 0.857,-0.788 1.36,-0.796 2.35,-0.724 1.748,2.064 2.8,4.727 2.8,7.641 0,6.548 -5.298,11.854 -11.857,11.854 -0.457,0 -0.918,-0.023 -1.379,-0.076 -0.023,-0.507 -0.091,-1.756 -0.202,-1.981 m 4.856,-22.5 c -1.047,-0.274 -2.137,-0.43 -3.276,-0.43 -1.127,0 -2.221,0.156 -3.272,0.43 -0.465,0.118 -0.929,0.267 -1.394,0.442 l 4.666,-13.69 4.662,13.69 c -0.446,-0.175 -0.914,-0.324 -1.386,-0.442 M 84.93,124.582 c -1.684,0 -2.483,0.674 -2.483,0.674 0.206,-1.493 0.541,-3.535 4.236,-3.535 2.076,0 3.478,0.43 4.567,0.983 0.293,-0.004 0.861,-0.122 1.672,-0.758 0,0 0.411,-1.996 3.596,-1.996 2.971,0 6.696,2.365 9.881,1.051 -1.253,2.179 0.518,3.101 0.518,3.101 -2.994,2.16 -0.27,4.624 -0.27,4.624 -5.569,5.851 -0.034,10.387 -0.034,10.387 -2.35,-0.705 -3.325,1.112 -3.325,1.112 0,0 -0.846,-1.996 -3.379,-1.996 -2.613,0 -3.779,1.996 -3.779,1.996 -1.554,-2.16 -3.961,-0.891 -3.961,-0.891 0,0 2.708,-2.415 2.708,-6.022 0,-5.291 -3.714,-8.73 -9.945,-8.73 m -11.484,40.893 h 14.128 c -0.339,0.369 -0.64,0.754 -0.933,1.166 -1.181,1.676 -1.969,3.645 -2.266,5.786 -0.057,0.465 -0.095,0.929 -0.11,1.402 l -10.818,-8.353 z m 9.164,28.404 3.786,-12.516 c 0.263,0.419 0.564,0.819 0.884,1.207 1.215,1.466 2.762,2.655 4.506,3.481 0.415,0.194 0.849,0.373 1.287,0.522 l -10.463,7.306 z m 19.064,-7.306 c 0.449,-0.149 0.88,-0.328 1.318,-0.522 1.733,-0.827 3.28,-2.015 4.495,-3.481 0.316,-0.389 0.609,-0.788 0.884,-1.207 l 3.775,12.516 -10.471,-7.306 z m 8.829,-12.745 c -0.019,-0.472 -0.061,-0.937 -0.118,-1.402 -0.289,-2.141 -1.082,-4.11 -2.266,-5.786 -0.278,-0.411 -0.598,-0.796 -0.918,-1.166 h 14.116 l -10.814,8.353 z"
         id="path3427"
         style="fill:#231f20" />
      <path
         d="m 100.053,180.804 c 1.291,0.072 2.598,0.072 4.75,-0.716 0,0 0.369,0.861 0.514,2.59 0,0 0.141,-2.449 0.213,-2.956 0.945,-0.716 1.375,-2.514 1.512,-3.748 0,0 1.878,-0.716 2.11,-1.794 -0.48,0.72 -1.036,1.078 -2.11,1.364 -0.568,-1.657 -1.943,-2.735 -2.59,-3.451 0,0 -2.236,2.514 -3.756,3.093 -0.998,0.43 -3.74,-0.792 -5.47,-1.581 0.209,0.564 2.88,1.505 4.971,2.301 0,0 0.648,2.883 -0.145,4.898"
         id="path3429"
         style="fill:#231f20" />
      <path
         d="m 17.325,17.085 5.119,38.898 -1.748,0.221 0.126,0.907 8.216,-1.082 c 6.601,-0.868 6.67,-9.58 5.637,-17.46 L 33.856,32.315 C 31.323,16.321 27.484,14.832 21.663,15.593 l -6.193,0.819 0.118,0.903 1.737,-0.229 z m 9.081,2.979 4.22,32.091 c 0.236,1.798 -0.331,2.788 -2.537,3.078 L 22.97,16.343 c 2.122,-0.225 2.948,0.008 3.436,3.721"
         id="path3431"
         style="fill:#231f20" />
      <path
         d="m 40.26,54.812 c 1.562,-0.209 2.236,-2.129 1.996,-3.984 -0.255,-1.916 -1.588,-3.573 -2.967,-3.394 -1.417,0.187 -2.285,2.129 -2.034,4.053 0.244,1.855 1.447,3.527 3.005,3.325"
         id="path3433"
         style="fill:#231f20" />
      <path
         d="m 43.676,36.819 c 0.609,10.033 2.891,17.518 8.052,17.194 4.571,-0.278 5.534,-7.271 4.716,-17.575 l -0.686,0.042 c 0.887,10.753 -0.731,16.089 -3.459,16.249 -1.249,0.076 -1.908,-0.796 -2.08,-3.737 L 48.132,14.989 C 48.086,14.25 48.3,13.1 49.134,13.054 c 1.607,-0.103 3.196,1.394 6.06,15.556 l 0.64,-0.042 -1.028,-16.828 -0.469,0.023 -1.832,3.409 c -0.819,-2.11 -1.965,-3.287 -3.958,-3.165 -2.895,0.175 -6.19,3.276 -5.325,17.388 l 0.453,7.424 z"
         id="path3435"
         style="fill:#231f20" />
      <path
         d="m 61.703,53.164 c 1.577,-0.091 2.388,-1.969 2.266,-3.832 -0.114,-1.927 -1.337,-3.676 -2.716,-3.588 -1.44,0.088 -2.423,1.969 -2.316,3.897 0.114,1.863 1.2,3.622 2.765,3.523"
         id="path3437"
         style="fill:#231f20" />
      <path
         d="m 69.001,12.225 1.15,32.571 c 0.202,6.011 2.826,8.083 6.479,7.953 4.068,-0.137 6.586,-2.274 6.327,-9.762 L 81.959,14.446 c -0.076,-1.988 0.552,-2.575 1.805,-2.735 l -0.038,-0.91 -5.222,0.187 0.03,0.903 c 1.428,-0.042 2.381,0.488 2.449,2.586 L 82,43.532 c 0.198,5.729 -1.718,7.786 -3.565,7.847 -2,0.076 -2.396,-0.766 -2.445,-2.411 l -1.303,-36.94 1.764,-0.065 -0.03,-0.907 -9.252,0.324 0.038,0.914 1.794,-0.069 z"
         id="path3439"
         style="fill:#231f20" />
      <path
         d="m 92.397,51.318 c -1.303,0.061 -2.373,-0.792 -2.373,-3.862 V 14.299 h 0.137 l 7.226,37.93 h 3.98 v -37.02 c 0,-1.988 0.971,-3.066 2.179,-3.127 v -0.903 h -5.325 v 0.903 c 1.345,0.118 2.221,0.8 2.221,3.356 v 24.301 h -0.095 c -1.436,-9.656 -3.66,-19.022 -5.454,-28.56 h -7.645 v 0.903 h 1.863 v 35.256 c 0,2.56 -0.788,3.641 -2.503,3.98 v 0.91 h 5.79 v -0.91 z"
         id="path3441"
         style="fill:#231f20" />
    </g>
    <path
       d="m 115.812,51.464 -2.171,-0.038 0.678,-39.221 2.03,0.034 0.023,-0.903 -9.762,-0.171 -0.015,0.903 2.038,0.034 -0.686,39.233 -2.034,-0.042 -0.023,0.91 9.907,0.171 0.015,-0.91 z"
       id="path3443"
       style="fill:#231f20" />
    <g
       clip-path="url(#c)"
       id="g3445">
      <path
         d="m 126.339,12.56 0.088,0.004 -2.053,39.297 -1.939,-0.107 -0.05,0.903 9.564,0.507 0.053,-0.91 -1.939,-0.099 2.053,-39.29 0.088,0.004 c 1.813,0.152 3.028,4.99 3.939,16.977 l 0.64,0.034 0.918,-17.521 -16.771,-0.876 -0.926,17.518 0.651,0.03 c 2.141,-11.823 3.881,-16.504 5.683,-16.47"
         id="path3447"
         style="fill:#231f20" />
      <path
         d="m 155.423,38.326 -0.686,-0.057 c -0.43,2.358 -0.846,3.977 -2.198,8.589 -1.809,6.117 -2.925,6.711 -5.325,6.513 l -1.379,-0.122 1.607,-19.517 c 2.613,0.503 3.101,2.99 3.131,10.517 l 0.503,0.038 1.745,-20.93 -0.655,-0.05 c -0.941,7.492 -2.244,9.21 -4.643,9.522 l 1.554,-18.672 2.392,0.194 c 2.902,0.244 3.466,3.653 4.091,15.042 l 0.602,0.046 1.287,-15.499 -15.724,-1.306 -0.072,0.907 1.748,0.141 -3.245,39.096 -1.756,-0.145 -0.08,0.91 15.739,1.303 1.364,-16.52 z"
         id="path3449"
         style="fill:#231f20" />
      <path
         d="m 175.747,40.485 0.686,-6.266 c 1.352,-16.127 -2.023,-18.5 -7.869,-19.136 l -6.205,-0.682 -0.099,0.903 1.752,0.194 -4.274,38.997 -1.748,-0.198 -0.099,0.91 8.231,0.903 c 6.628,0.728 8.765,-7.725 9.625,-15.625 m -6.083,-24.366 c 2.11,0.282 2.861,0.712 2.445,4.434 l -3.523,32.171 c -0.202,1.805 -0.983,2.636 -3.192,2.388 l 4.27,-38.993 z"
         id="path3451"
         style="fill:#231f20" />
    </g>
  </g>
</svg>
