<?xml version="1.0" encoding="UTF-8" standalone="no"?>
<!-- Created with Inkscape (http://www.inkscape.org/) -->

<svg
   xmlns:dc="http://purl.org/dc/elements/1.1/"
   xmlns:cc="http://creativecommons.org/ns#"
   xmlns:rdf="http://www.w3.org/1999/02/22-rdf-syntax-ns#"
   xmlns:svg="http://www.w3.org/2000/svg"
   xmlns="http://www.w3.org/2000/svg"
   version="1.1"
   width="280"
   height="200"
   id="svg3513">
  <metadata
     id="metadata3633">
    <rdf:RDF>
      <cc:Work
         rdf:about="">
        <dc:format>image/svg+xml</dc:format>
        <dc:type
           rdf:resource="http://purl.org/dc/dcmitype/StillImage" />
        <dc:title></dc:title>
      </cc:Work>
    </rdf:RDF>
  </metadata>
  <defs
     id="defs3515">
    <clipPath
       id="clipPath3517">
      <path
         d="M 0,792 H 612 V 0 H 0 v 792 z"
         id="path3519" />
    </clipPath>
  </defs>
  <g
     transform="matrix(0.75787431,0,0,0.75787431,29.999242,0)"
     id="g3521">
    <path
       d="m 89.032,11.116 -0.004,0.001 c -9.148,2.899 -17.048,5.402 -22.827,5.402 -4.878,0 -7.61,-0.968 -7.91,-1.081 l -9.178,-4.419 -33.464,26.415 1.326,9.561 c 1.309,9.435 3.216,19.187 5.619,29.026 l -7.918,1.013 0.218,-0.015 c -0.502,0.053 -2.445,0.315 -12.124,1.62 l -2.769,0.373 0.001,107.545 19.385,-2.827 c 15.466,-2.256 31.728,-4.152 48.344,-5.658 24.432,36.703 53.25,64.566 72.26,78.491 l -0.168,-0.144 c 0.423,0.331 1.9,1.413 8.29,6.094 l 1.889,1.383 10.009,-7.332 c 19.009,-13.923 47.827,-41.786 72.26,-78.491 16.626,1.507 32.887,3.402 48.344,5.658 0.003,0.001 19.385,2.827 19.385,2.827 l 10e-4,-107.545 -14.676,-1.979 c 0,0 -4.547,-0.581 -7.918,-1.013 2.402,-9.839 4.31,-19.591 5.619,-29.026 l 1.328,-9.561 -33.275,-26.508 -9.368,4.512 c -0.313,0.117 -3.043,1.081 -7.911,1.081 -5.781,0 -13.682,-2.504 -22.831,-5.403 C 195.341,6.163 175.893,0 150,0 124.108,0 104.659,6.163 89.032,11.116"
       id="path3523"
       style="fill:#8dc6ed" />
    <path
       d="m 89.998,14.162 h -0.001 c -9.402,2.979 -17.521,5.553 -23.796,5.553 -5.791,0 -8.966,-1.253 -9.173,-1.337 -0.519,-0.251 -7.529,-3.626 -7.529,-3.626 l -6.846,5.255 -23.589,18.791 1.076,7.757 c 1.466,10.569 3.624,21.357 6.399,32.183 -3.909,0.477 -7.745,0.964 -11.437,1.462 l -11.906,1.606 10e-4,101.055 15.727,-2.294 c 16.401,-2.393 33.334,-4.344 50.391,-5.857 24.32,36.993 53.183,65.08 72.563,79.275 l 8.121,5.948 8.12,-5.948 c 19.379,-14.194 48.243,-42.28 72.563,-79.275 17.053,1.513 33.987,3.464 50.392,5.858 l 15.727,2.294 0.001,-101.055 -11.906,-1.606 c -3.691,-0.498 -7.528,-0.984 -11.437,-1.462 2.775,-10.826 4.933,-21.615 6.399,-32.183 l 1.077,-7.757 -30.28,-24.122 c 0,0 -7.412,3.569 -7.686,3.702 -0.213,0.086 -3.387,1.337 -9.172,1.337 -6.275,0 -14.394,-2.573 -23.796,-5.553 C 194.583,9.277 175.397,3.197 149.998,3.197 c -25.398,0 -44.585,6.08 -60.002,10.966"
       id="path3525"
       style="fill:#f68712" />
    <path
       d="m 92.508,22.084 c -10.06,3.188 -18.747,5.941 -26.307,5.941 -8.196,0 -12.582,-2.067 -12.626,-2.087 l -3.074,-1.48 -2.73,2.095 -19.826,15.794 0.425,3.067 c 1.88,13.549 4.844,27.116 8.709,40.448 -7.185,0.811 -14.183,1.672 -20.867,2.574 l -4.707,0.635 10e-4,84.18 6.218,-0.907 c 18.379,-2.681 37.137,-4.805 55.812,-6.362 24.172,38.021 53.519,66.844 73.253,81.299 l 3.211,2.352 3.21,-2.352 c 19.733,-14.452 49.081,-43.276 73.253,-81.299 18.677,1.557 37.435,3.682 55.812,6.363 l 6.218,0.907 0.001,-84.181 -4.707,-0.635 c -6.684,-0.902 -13.682,-1.764 -20.867,-2.574 3.865,-13.334 6.829,-26.9 8.709,-40.448 l 0.426,-3.067 -22.494,-17.92 -3.135,1.51 c -0.043,0.02 -4.43,2.087 -12.626,2.087 -7.561,0 -16.247,-2.753 -26.307,-5.941 -14.87,-4.713 -33.378,-10.578 -57.492,-10.578 -24.113,0 -42.621,5.865 -57.492,10.578"
       id="path3527"
       style="fill:#ffffff" />
    <path
       d="m 150,242.898 c 17.24,-12.627 47.828,-41.033 73.661,-82.616 19.988,1.594 39.794,3.826 59.399,6.687 l 10e-4,-73.148 c -9.017,-1.216 -18.077,-2.295 -27.169,-3.265 4.546,-14.453 8.119,-29.763 10.356,-45.888 L 248.844,30.804 c 0,0 -5.185,2.655 -15.044,2.655 -20.198,0 -43.956,-16.519 -83.799,-16.519 -39.844,0 -63.601,16.519 -83.799,16.519 -9.859,0 -15.044,-2.655 -15.044,-2.655 L 33.754,44.668 c 2.237,16.125 5.809,31.435 10.356,45.888 -9.093,0.97 -18.153,2.049 -27.169,3.265 l 0.001,73.148 c 19.604,-2.86 39.412,-5.092 59.398,-6.686 25.834,41.584 56.422,69.989 73.662,82.616"
       id="path3529"
       style="fill:#231f20" />
    <path
       d="m 217.168,159.787 c -1.07,-0.078 -2.139,-0.157 -3.21,-0.231 -14.514,5.808 -31.47,12.618 -51.306,20.612 12.636,-7.987 23.979,-15.17 34.173,-21.637 -1.427,-0.072 -2.855,-0.139 -4.283,-0.204 -9.439,5.936 -19.824,12.475 -31.252,19.685 7.827,-7.196 15.075,-13.865 21.807,-20.069 -1.184,-0.042 -2.369,-0.086 -3.555,-0.124 -6.218,5.694 -12.862,11.784 -19.975,18.311 4.93,-6.514 9.58,-12.665 13.974,-18.482 -1.033,-0.026 -2.067,-0.046 -3.101,-0.069 -4.083,5.377 -8.38,11.04 -12.907,17.011 3.016,-5.966 5.891,-11.657 8.637,-17.096 -0.935,-0.017 -1.87,-0.031 -2.805,-0.045 -2.589,5.102 -5.289,10.425 -8.108,15.989 1.65,-5.56 3.232,-10.898 4.751,-16.031 -0.876,-0.01 -1.752,-0.018 -2.629,-0.025 -1.466,4.917 -2.987,10.019 -4.568,15.327 0.58,-5.307 1.137,-10.415 1.673,-15.345 l -2.545,-0.008 c -0.536,4.845 -1.09,9.862 -1.663,15.07 -0.37,-5.209 -0.727,-10.227 -1.075,-15.074 l -2.536,0.008 c 0.341,4.9 0.695,9.975 1.064,15.245 -1.349,-5.273 -2.649,-10.344 -3.903,-15.235 l -2.603,0.025 c 1.291,5.077 2.634,10.351 4.033,15.841 -2.52,-5.493 -4.939,-10.759 -7.259,-15.809 l -2.758,0.043 c 2.451,5.364 5.013,10.966 7.697,16.83 -4.1,-5.869 -8.002,-11.449 -11.718,-16.759 -1.008,0.02 -2.015,0.043 -3.022,0.067 3.922,5.635 8.058,11.572 12.427,17.836 -6.264,-6.274 -12.149,-12.163 -17.686,-17.698 -1.144,0.033 -2.288,0.067 -3.43,0.104 6.079,6.113 12.595,12.658 19.588,19.675 -10.137,-7.033 -19.424,-13.467 -27.944,-19.362 -1.359,0.057 -2.717,0.116 -4.075,0.179 9.214,6.426 19.365,13.493 30.564,21.277 -17.144,-7.798 -32.102,-14.583 -45.159,-20.488 -1.688,0.105 -3.374,0.215 -5.059,0.33 13.958,6.405 30.214,13.841 49.159,22.478 -17.739,-4.477 -33.28,-8.383 -46.899,-11.79 0.704,1.02 1.411,2.031 2.12,3.035 12.944,3.307 27.585,7.031 44.151,11.228 -13.862,-0.938 -26.412,-1.778 -37.786,-2.53 0.663,0.878 1.329,1.746 1.996,2.609 10.794,0.756 22.629,1.576 35.616,2.466 -11.127,1.252 -21.403,2.416 -30.903,3.496 0.625,0.773 1.25,1.537 1.876,2.297 9.056,-1.001 18.805,-2.084 29.312,-3.257 -9.106,2.735 -17.621,5.296 -25.589,7.699 0.595,0.697 1.19,1.393 1.785,2.078 7.669,-2.288 15.833,-4.727 24.539,-7.334 -7.555,3.851 -14.674,7.484 -21.382,10.911 0.58,0.649 1.16,1.294 1.738,1.931 6.542,-3.32 13.466,-6.838 20.801,-10.569 -6.317,4.813 -12.286,9.364 -17.937,13.678 0.577,0.619 1.154,1.235 1.729,1.841 5.601,-4.252 11.51,-8.741 17.755,-13.49 -5.265,5.765 -10.244,11.223 -14.963,16.398 0.589,0.605 1.177,1.206 1.762,1.797 4.758,-5.193 9.779,-10.675 15.083,-16.474 -4.287,6.831 -8.332,13.283 -12.157,19.391 0.616,0.605 1.229,1.202 1.84,1.792 3.925,-6.231 8.078,-12.83 12.477,-19.827 -3.254,8.128 -6.308,15.77 -9.18,22.965 0.66,0.617 1.317,1.225 1.969,1.822 2.997,-7.446 6.184,-15.378 9.58,-23.84 -1.996,9.792 -3.851,18.917 -5.576,27.429 0.728,0.639 1.45,1.264 2.164,1.875 1.833,-8.896 3.799,-18.472 5.912,-28.791 -0.257,11.986 -0.486,22.997 -0.69,33.114 0.768,0.615 1.529,1.218 2.274,1.795 l 0.167,-0.132 c 0.251,-10.556 0.516,-22.095 0.798,-34.722 1.731,10.847 3.338,20.884 4.832,30.174 0.733,-0.614 1.475,-1.246 2.223,-1.89 -1.399,-8.875 -2.906,-18.415 -4.536,-28.685 3.117,8.87 6.037,17.17 8.778,24.944 0.665,-0.601 1.335,-1.211 2.01,-1.833 -2.617,-7.491 -5.405,-15.462 -8.381,-23.955 4.17,7.324 8.104,14.227 11.816,20.735 0.618,-0.59 1.241,-1.192 1.865,-1.799 -3.603,-6.354 -7.418,-13.076 -11.463,-20.196 5.086,6.072 9.896,11.812 14.455,17.246 0.591,-0.592 1.183,-1.186 1.778,-1.791 -4.501,-5.393 -9.253,-11.082 -14.279,-17.093 6.007,4.997 11.691,9.722 17.082,14.199 0.578,-0.603 1.156,-1.208 1.737,-1.824 -5.417,-4.522 -11.136,-9.293 -17.184,-14.334 7.049,3.982 13.708,7.741 20.008,11.293 0.578,-0.63 1.156,-1.261 1.735,-1.904 -6.436,-3.651 -13.255,-7.516 -20.487,-11.61 8.337,2.899 16.171,5.619 23.543,8.174 0.591,-0.673 1.182,-1.349 1.774,-2.035 -7.64,-2.673 -15.785,-5.516 -24.48,-8.549 10.02,1.565 19.344,3.016 28.035,4.365 0.616,-0.738 1.232,-1.484 1.848,-2.235 -9.098,-1.439 -18.908,-2.986 -29.489,-4.649 12.303,-0.304 23.577,-0.591 33.913,-0.86 0.655,-0.834 1.31,-1.675 1.962,-2.523 -10.884,0.244 -22.827,0.52 -35.938,0.832 15.561,-3.225 29.442,-6.116 41.826,-8.705 0.7,-0.966 1.398,-1.939 2.093,-2.921 -13.042,2.665 -27.78,5.691 -44.436,9.129 20.487,-8.279 37.892,-15.338 52.684,-21.361 l 0.877,-1.386"
       id="path3531"
       style="fill:#f68712" />
    <path
       d="m 150,172.361 3.536,10.883 h 11.444 l -9.259,6.726 3.536,10.884 -9.258,-6.726 -9.258,6.726 3.536,-10.884 -9.258,-6.726 h 11.444 l 3.536,-10.883 z"
       id="path3533"
       style="fill:#ffffff" />
    <path
       d="m 243.522,89.301 c 10.267,-12.948 8.813,-11.641 8.813,-11.641 0,0 1.036,-1.734 -10.271,11.507 l 1.458,0.134"
       id="path3535"
       style="fill:#f68712" />
    <path
       d="m 225.975,87.805 c 23.842,-32.099 21.41,-29.729 21.41,-29.729 0,0 1.652,-3.041 -23.523,29.574 l 2.113,0.155"
       id="path3537"
       style="fill:#f68712" />
    <path
       d="m 201.909,86.267 c 23.267,-46.804 20.933,-43.524 20.933,-43.524 0,0 1.273,-3.865 -23.081,43.414 l 2.148,0.109"
       id="path3539"
       style="fill:#f68712" />
    <path
       d="m 181.164,85.406 c 16.651,-57.327 14.791,-53.363 14.791,-53.363 0,0 0.609,-4.366 -16.92,53.303 l 2.129,0.06"
       id="path3541"
       style="fill:#f68712" />
    <path
       d="m 125.166,85.23 c -15.525,-59.286 -15.08,-54.855 -15.08,-54.855 0,0 -1.728,-4.083 12.957,54.912 l 2.123,-0.057"
       id="path3543"
       style="fill:#f68712" />
    <path
       d="M 104.942,85.935 C 81.654,36.023 82.802,40.022 82.802,40.022 c 0,0 -2.258,-3.448 19.995,46.015 l 2.145,-0.102"
       id="path3545"
       style="fill:#f68712" />
    <path
       d="M 81.742,87.25 C 56.077,51.141 57.683,54.39 57.683,54.39 c 0,0 -2.454,-2.584 21.928,33.007 l 2.131,-0.147"
       id="path3547"
       style="fill:#f68712" />
    <path
       d="M 60.459,88.935 C 47.058,71.95 48.17,73.974 48.17,73.974 c 0,0 -1.618,-1.562 10.711,15.106 l 1.579,-0.145"
       id="path3549"
       style="fill:#f68712" />
    <path
       d="m 140.792,46.195 c -1.947,-22.817 -2.138,-20.439 -2.138,-20.439 0,0 -0.531,-2.359 0.777,21.004 0.447,-0.201 0.901,-0.39 1.361,-0.566"
       id="path3551"
       style="fill:#f68712" />
    <path
       d="m 165.747,49.854 c 2.506,-26.041 1.84,-23.534 1.84,-23.534 0,0 -0.105,-2.539 -3.205,22.549 0.467,0.313 0.92,0.644 1.365,0.986"
       id="path3553"
       style="fill:#f68712" />
    <path
       d="m 207.874,37.993 -2.867,-1.022 -3.992,11.199 2.866,1.023 3.993,-11.2 z m 0.013,13.668 c -0.332,0.932 -1.358,1.419 -2.29,1.086 l -8.161,-2.91 c -0.933,-0.332 -1.418,-1.358 -1.086,-2.29 l 4.508,-12.645 c 0.333,-0.933 1.358,-1.419 2.29,-1.086 l 8.161,2.909 c 0.933,0.332 1.42,1.358 1.087,2.29 l -4.508,12.645 z"
       id="path3555"
       style="fill:#ffffff" />
    <path
       d="m 207.874,37.993 -2.867,-1.022 -3.992,11.199 2.866,1.023 3.993,-11.2 z m 0.013,13.668 c -0.332,0.932 -1.358,1.419 -2.29,1.086 l -8.161,-2.91 c -0.933,-0.332 -1.418,-1.358 -1.086,-2.29 l 4.508,-12.645 c 0.333,-0.933 1.358,-1.419 2.29,-1.086 l 8.161,2.909 c 0.933,0.332 1.42,1.358 1.087,2.29 l -4.508,12.645 z"
       id="path3557"
       style="fill:none;stroke:#231f20;stroke-width:0.3195" />
    <path
       d="m 97.859,36.184 -2.883,0.975 3.81,11.263 2.883,-0.975 -3.81,-11.263 z m 8.483,10.716 c 0.317,0.937 -0.185,1.955 -1.124,2.272 l -8.206,2.776 C 96.074,52.265 95.057,51.762 94.74,50.825 L 90.438,38.107 c -0.318,-0.938 0.185,-1.955 1.123,-2.272 l 8.207,-2.776 c 0.938,-0.317 1.955,0.186 2.272,1.124 l 4.301,12.717 z"
       id="path3559"
       style="fill:#ffffff" />
    <path
       d="m 97.859,36.184 -2.883,0.975 3.81,11.263 2.883,-0.975 -3.81,-11.263 z m 8.483,10.716 c 0.317,0.937 -0.185,1.955 -1.124,2.272 l -8.206,2.776 C 96.074,52.265 95.057,51.762 94.74,50.825 L 90.438,38.107 c -0.318,-0.938 0.185,-1.955 1.123,-2.272 l 8.207,-2.776 c 0.938,-0.317 1.955,0.186 2.272,1.124 l 4.301,12.717 z"
       id="path3561"
       style="fill:none;stroke:#231f20;stroke-width:0.3195" />
    <path
       d="m 126.868,28.744 2.101,14.082 -3.011,0.449 -2.1,-14.083 -4.553,0.679 2.246,15.051 c 0.146,0.979 1.058,1.654 2.037,1.509 l 8.569,-1.278 c 0.98,-0.146 1.655,-1.058 1.509,-2.037 l -2.245,-15.051 -4.552,0.679 z"
       id="path3563"
       style="fill:#ffffff" />
    <path
       d="m 126.868,28.744 2.101,14.082 -3.011,0.449 -2.1,-14.083 -4.553,0.679 2.246,15.051 c 0.146,0.979 1.058,1.654 2.037,1.509 l 8.569,-1.278 c 0.98,-0.146 1.655,-1.058 1.509,-2.037 l -2.245,-15.051 -4.552,0.679 z"
       id="path3565"
       style="fill:none;stroke:#231f20;stroke-width:0.3195" />
    <path
       d="m 185.489,30.309 -12.064,-2.118 -0.406,2.312 3.766,0.661 -2.535,14.44 4.533,0.796 2.535,-14.44 3.766,0.662 0.406,-2.313 z"
       id="path3567"
       style="fill:#ffffff" />
    <path
       d="m 185.489,30.309 -12.064,-2.118 -0.406,2.312 3.766,0.661 -2.535,14.44 4.533,0.796 2.535,-14.44 3.766,0.662 0.406,-2.313 z"
       id="path3569"
       style="fill:none;stroke:#231f20;stroke-width:0.3195" />
    <path
       d="m 237.166,46.956 -4.199,7.274 -0.651,-10.075 -2.325,-1.342 -8.505,14.731 3.433,1.982 4.199,-7.274 0.651,10.074 2.325,1.342 8.505,-14.731 -3.433,-1.982 z"
       id="path3571"
       style="fill:#ffffff" />
    <path
       d="m 237.166,46.956 -4.199,7.274 -0.651,-10.075 -2.325,-1.342 -8.505,14.731 3.433,1.982 4.199,-7.274 0.651,10.074 2.325,1.342 8.505,-14.731 -3.433,-1.982 z"
       id="path3573"
       style="fill:none;stroke:#231f20;stroke-width:0.3195" />
    <path
       d="m 68.855,43.801 3.447,6.229 -3.78,2.092 -3.448,-6.228 -3.468,1.92 8.239,14.881 3.468,-1.92 -3.448,-6.228 3.78,-2.093 3.448,6.228 3.468,-1.92 -8.238,-14.882 -3.468,1.92 z"
       id="path3575"
       style="fill:#ffffff" />
    <path
       d="m 68.855,43.801 3.447,6.229 -3.78,2.092 -3.448,-6.228 -3.468,1.92 8.239,14.881 3.468,-1.92 -3.448,-6.228 3.78,-2.093 3.448,6.228 3.468,-1.92 -8.238,-14.882 -3.468,1.92 z"
       id="path3577"
       style="fill:none;stroke:#231f20;stroke-width:0.3195" />
    <path
       d="m 151.679,31.448 0.036,-1.954 2.717,0.05 -0.049,2.595 4.108,0.077 0.059,-3.151 c 0.019,-0.99 -0.681,-1.805 -1.567,-1.822 l -7.733,-0.144 c -0.883,-0.017 -1.615,0.772 -1.633,1.762 l -0.059,3.15 c -0.059,3.179 6.724,5.513 6.689,7.467 l -0.037,1.954 -2.716,-0.051 0.047,-2.593 -4.108,-0.077 -0.066,3.573 c -0.019,0.989 0.683,1.805 1.566,1.822 l 7.734,0.144 c 0.884,0.017 1.615,-0.773 1.633,-1.762 l 0.067,-3.573 c 0.054,-2.88 -6.724,-5.513 -6.688,-7.467"
       id="path3579"
       style="fill:#ffffff" />
    <path
       d="m 151.679,31.448 0.036,-1.954 2.717,0.05 -0.049,2.595 4.108,0.077 0.059,-3.151 c 0.019,-0.99 -0.681,-1.805 -1.567,-1.822 l -7.733,-0.144 c -0.883,-0.017 -1.615,0.772 -1.633,1.762 l -0.059,3.15 c -0.059,3.179 6.724,5.513 6.689,7.467 l -0.037,1.954 -2.716,-0.051 0.047,-2.593 -4.108,-0.077 -0.066,3.573 c -0.019,0.989 0.683,1.805 1.566,1.822 l 7.734,0.144 c 0.884,0.017 1.615,-0.773 1.633,-1.762 l 0.067,-3.573 c 0.054,-2.88 -6.724,-5.513 -6.688,-7.467 z"
       id="path3581"
       style="fill:none;stroke:#231f20;stroke-width:0.3195" />
    <path
       d="m 234.864,115.287 c 0,-8.031 -0.408,-15.267 11.346,-13.572 11.754,1.696 22.096,3.241 24.044,3.53 4.573,0.681 -4.131,3.851 -4.131,6.967 v 34.874 c 0,3.544 -1.84,6.611 -7.631,5.711 -2.319,-0.321 -5.119,-0.697 -12.281,-1.783 -12.065,-1.829 -11.346,-6.191 -11.346,-17.154 v -18.574 z m 20.967,26.552 v -29.102 c 0,-1.568 -0.749,-3.346 -2.589,-3.346 l -2.766,-0.387 c -4.435,-0.549 -5.314,0.729 -5.869,7.73 -0.183,2.315 -0.187,5.389 -0.187,9.211 0.001,3.823 0.187,6.908 0.187,9.262 0,7.925 1.16,8.721 3.462,9.023 2.301,0.302 5.172,0.672 5.172,0.672 1.23,0.173 2.589,-0.881 2.589,-3.062 M 62.747,134.439 c 0,10.964 0.719,15.324 -11.346,17.154 -12.064,1.83 -11.752,1.646 -17.616,2.575 V 112.45 c 0,-3.116 -8.703,-6.286 -4.131,-6.966 1.948,-0.29 9.993,-1.493 21.746,-3.19 11.754,-1.696 11.346,5.54 11.346,13.572 v 18.573 z m -15.611,10.654 c 1.344,-0.186 2.414,-0.529 3.213,-1.034 0.798,-0.506 1.409,-1.423 1.832,-2.753 0.424,-1.33 0.698,-3.17 0.823,-5.521 0.123,-2.351 0.187,-5.439 0.187,-9.261 0,-3.822 -0.063,-6.893 -0.187,-9.211 -0.125,-2.318 -0.4,-4.088 -0.823,-5.306 -0.423,-1.218 -1.034,-1.973 -1.832,-2.263 -0.799,-0.291 -1.87,-0.346 -3.213,-0.16 -0.922,0.127 -1.844,0.256 -2.766,0.387 v 35.511 c 0.922,-0.13 1.843,-0.26 2.766,-0.387 m 112.121,-20.885 2.774,-12.691 4.222,18.064 c -10e-4,-0.001 -3.092,-2.366 -6.995,-5.373 m 20.948,21.41 c -3.815,-16.587 -9.31,-33.145 -13.125,-49.674 -5.132,-0.128 -4.969,-0.204 -10.101,-0.226 -1.695,7.418 -3.709,14.842 -5.755,22.271 -3.849,-2.999 -7.082,-5.561 -7.671,-6.15 -1.601,-1.601 -2.056,0.774 -1.335,1.494 0.246,0.247 3.562,4.058 7.819,8.967 -2.087,7.579 -4.148,15.164 -5.876,22.754 4.277,-0.046 6.27,-0.056 10.547,-0.028 l 3.025,-13.842 c 6.329,7.312 12.186,14.09 12.186,14.09 3.429,0.091 6.858,0.206 10.285,0.345 m 15.489,-48.536 10.236,25.356 10.253,-23.808 c 0,0 2.77,0.482 7.965,1.018 v 49.299 c -3.406,-0.352 -6.418,-1.195 -9.828,-1.501 0,-12.243 0.4,-24.29 0.4,-24.29 l -6.951,19.336 -4.075,-0.32 c 0,0 -6.974,-19.094 -7.013,-19.096 v 23.39 c -3.415,-0.214 -5.79,-0.405 -9.207,-0.572 V 96.598 c 5.211,0.254 8.221,0.485 8.221,0.485 m -83.317,-0.411 14.741,22.323 V 96.069 c 3.819,-0.118 5.718,-0.207 9.539,-0.267 v 49.299 c -2.453,0.038 -5.438,0.15 -5.438,0.15 l -14.355,-22.618 v 23.123 c -3.818,0.171 -6.035,0.371 -9.851,0.601 V 97.058 c 2.32,-0.139 5.364,-0.386 5.364,-0.386 m -44.255,3.577 c 4.388,-0.498 6.294,-0.689 10.689,-1.108 1.533,5.585 6.106,18.189 6.149,18.185 1.534,-5.867 4.616,-13.409 6.152,-19.267 4.464,-0.369 6.159,-0.513 10.627,-0.802 -3.985,10.223 -7.48,20.478 -11.462,30.766 v 19.402 c -4.077,0.33 -6.118,0.692 -10.191,1.089 V 129.112 C 76.174,119.528 72.03,109.772 68.122,100.25"
       id="path3583"
       style="fill:#ffffff" />
    <path
       d="m 234.864,115.287 c 0,-8.031 -0.408,-15.267 11.346,-13.572 11.754,1.696 22.096,3.241 24.044,3.53 4.573,0.681 -4.131,3.851 -4.131,6.967 v 34.874 c 0,3.544 -1.84,6.611 -7.631,5.711 -2.319,-0.321 -5.119,-0.697 -12.281,-1.783 -12.065,-1.829 -11.346,-6.191 -11.346,-17.154 v -18.574 z m 20.967,26.552 v -29.102 c 0,-1.568 -0.749,-3.346 -2.589,-3.346 l -2.766,-0.387 c -4.435,-0.549 -5.314,0.729 -5.869,7.73 -0.183,2.315 -0.187,5.389 -0.187,9.211 0.001,3.823 0.187,6.908 0.187,9.262 0,7.925 1.16,8.721 3.462,9.023 2.301,0.302 5.172,0.672 5.172,0.672 1.23,0.173 2.589,-0.881 2.589,-3.062 z M 62.748,134.438 c 0,10.964 0.719,15.324 -11.346,17.154 -12.064,1.83 -11.752,1.646 -17.616,2.575 v -41.718 c 0,-3.116 -8.703,-6.286 -4.131,-6.966 1.948,-0.29 9.993,-1.493 21.746,-3.19 11.754,-1.696 11.346,5.54 11.346,13.572 v 18.573 z m -15.611,10.654 c 1.344,-0.186 2.414,-0.529 3.213,-1.034 0.798,-0.506 1.409,-1.423 1.832,-2.753 0.424,-1.33 0.698,-3.17 0.823,-5.521 0.123,-2.351 0.187,-5.439 0.187,-9.261 0,-3.822 -0.063,-6.893 -0.187,-9.211 -0.125,-2.318 -0.4,-4.088 -0.823,-5.306 -0.423,-1.218 -1.034,-1.973 -1.832,-2.263 -0.799,-0.291 -1.87,-0.346 -3.213,-0.16 -0.922,0.127 -1.844,0.256 -2.766,0.387 v 35.511 c 0.922,-0.13 1.843,-0.26 2.766,-0.387 z m 112.121,-20.885 2.774,-12.691 4.222,18.064 c -0.001,-0.001 -3.092,-2.366 -6.995,-5.373 z m 20.948,21.41 c -3.815,-16.587 -9.31,-33.145 -13.125,-49.674 -5.132,-0.128 -4.969,-0.204 -10.101,-0.226 -1.695,7.418 -3.709,14.842 -5.755,22.271 -3.849,-2.999 -7.082,-5.561 -7.671,-6.15 -1.601,-1.601 -2.056,0.774 -1.335,1.494 0.246,0.247 3.562,4.058 7.819,8.967 -2.087,7.579 -4.148,15.164 -5.876,22.754 4.277,-0.046 6.27,-0.056 10.547,-0.028 l 3.025,-13.842 c 6.329,7.312 12.186,14.09 12.186,14.09 3.429,0.091 6.858,0.206 10.285,0.345 z m 15.489,-48.536 10.236,25.356 10.253,-23.808 c 0,0 2.77,0.482 7.965,1.018 v 49.299 c -3.406,-0.352 -6.418,-1.195 -9.828,-1.501 0,-12.243 0.4,-24.29 0.4,-24.29 l -6.951,19.336 -4.075,-0.32 c 0,0 -6.974,-19.094 -7.013,-19.096 v 23.39 c -3.415,-0.214 -5.79,-0.405 -9.207,-0.572 V 96.594 c 5.211,0.254 8.221,0.485 8.221,0.485 z m -83.317,-0.411 14.741,22.323 V 96.067 c 3.819,-0.118 5.718,-0.207 9.539,-0.267 v 49.299 c -2.453,0.038 -5.438,0.15 -5.438,0.15 l -14.355,-22.618 v 23.123 c -3.818,0.171 -6.035,0.371 -9.851,0.601 V 97.056 c 2.32,-0.139 5.364,-0.386 5.364,-0.386 z m -44.255,3.577 c 4.388,-0.498 6.294,-0.689 10.689,-1.108 1.533,5.585 6.106,18.189 6.149,18.185 1.534,-5.867 4.616,-13.409 6.152,-19.267 4.464,-0.369 6.159,-0.513 10.627,-0.802 -3.985,10.223 -7.48,20.478 -11.462,30.766 v 19.402 c -4.077,0.33 -6.118,0.692 -10.191,1.089 V 129.11 C 76.174,119.526 72.03,109.77 68.122,100.248 z"
       id="path3585"
       style="fill:none;stroke:#f47216;stroke-width:1.278" />
    <path
       d="m 23.733,160.571 c 41.562,-5.693 83.695,-8.555 126.266,-8.555 42.572,0 84.706,2.862 126.268,8.556 v -1.934 c -41.564,-5.682 -83.698,-8.539 -126.268,-8.539 -42.57,0 -84.703,2.857 -126.266,8.539 v 1.934 z"
       id="path3587"
       style="fill:#f68712" />
    <path
       d="m 191.802,238.297 v 1.028 h -1.748 v 4.794 h -1.229 v -4.794 h -1.748 v -1.028 h 4.724 z"
       id="path3589"
       style="fill:#231f20" />
    <path
       d="m 196.361,238.297 h 1.746 v 5.823 h -1.129 v -3.939 l 0.004,-0.476 0.004,-0.472 -1.104,4.886 H 194.7 l -1.096,-4.886 0.004,0.472 0.003,0.476 v 3.939 h -1.128 v -5.823 h 1.765 l 1.06,4.578 1.051,-4.578 z"
       id="path3591"
       style="fill:#231f20" />
    <path
       d="m 133.637,90.391 c -36.983,0.6 -73.644,3.231 -109.904,7.875 v 1.934 c 37.117,-4.763 74.656,-7.408 112.53,-7.925 -0.915,-0.575 -1.793,-1.202 -2.626,-1.884"
       id="path3593"
       style="fill:#f68712" />
    <path
       d="m 166.363,90.392 c -0.833,0.681 -1.711,1.308 -2.626,1.883 37.874,0.516 75.414,3.162 112.531,7.925 v -1.934 c -36.26,-4.644 -72.921,-7.275 -109.905,-7.874"
       id="path3595"
       style="fill:#f68712" />
    <path
       d="m 170.631,70.365 c 0,11.394 -9.237,20.631 -20.631,20.631 -11.394,0 -20.631,-9.237 -20.631,-20.631 0,-11.394 9.237,-20.632 20.631,-20.632 11.394,0 20.631,9.237 20.631,20.632"
       id="path3597"
       style="fill:#ffffff" />
    <path
       d="m 161.162,53.018 c 3.553,3.11 5.801,7.676 5.801,12.769 0,9.369 -7.594,16.965 -16.964,16.965 -9.369,0 -16.964,-7.595 -16.964,-16.965 0,-5.093 2.248,-9.659 5.802,-12.769 -5.695,3.672 -9.469,10.067 -9.469,17.347 0,11.394 9.237,20.631 20.631,20.631 11.394,0 20.631,-9.237 20.631,-20.631 0,-7.281 -3.774,-13.675 -9.469,-17.347"
       id="path3599"
       style="fill:#b3e6fa" />
    <path
       d="m 165.274,56.495 c -1.177,0.486 -2.556,0.937 -2.712,0.782 1.369,2.995 1.711,6.418 1.198,8.215 0.74,0.74 2.196,2.327 3.202,3.614 0.405,2.502 0.288,5.232 -0.12,6.554 0.614,-1.03 1.647,-2.949 2.091,-5.197 0.538,-0.282 1.108,-0.61 1.678,-0.866 -0.185,-5.038 -2.169,-9.616 -5.338,-13.102"
       id="path3601"
       style="fill:#231f20" />
    <path
       d="m 165.664,83.783 c -0.025,-1.315 -0.106,-3.577 -0.363,-5.284 -3.254,3.576 -7.115,2.963 -7.115,2.963 0,0 -0.589,1.441 -1.376,2.942 -2.056,2.121 -3.076,3.085 -8.239,3.317 0.641,0.2 4.838,0.093 7.265,0.35 l 1.615,1.532 c 3.202,-1.241 6.016,-3.257 8.214,-5.82"
       id="path3603"
       style="fill:#231f20" />
    <path
       d="m 140.927,80.983 c 0,0 -0.776,0.097 -1.961,0.183 -3.328,-1.468 -6.018,-5.143 -6.828,-7.614 1.587,4.315 1.861,6.659 1.908,7.724 -0.542,-0.02 -1.085,-0.054 -1.62,-0.104 2.205,3.578 5.472,6.43 9.361,8.12 0.968,-0.546 2.308,-1.416 4.414,-1.837 -3.995,-1.758 -5.273,-6.472 -5.273,-6.472"
       id="path3605"
       style="fill:#231f20" />
    <path
       d="m 134.458,56.806 c -3.108,3.56 -5.013,8.195 -5.082,13.275 0.991,-0.027 1.893,0.075 2.295,1.915 0.599,-1.882 2.482,-6.589 4.365,-7.274 -0.591,-1.418 -0.57,-3.734 -0.5,-5.172 1.816,-2.778 5.035,-5.439 5.035,-5.439 0,0 -3.434,2.284 -5.166,3.817 -0.21,-0.292 -0.564,-0.702 -0.947,-1.122"
       id="path3607"
       style="fill:#231f20" />
    <path
       d="m 150,49.733 c -2.262,0 -4.436,0.369 -6.472,1.042 -0.632,1.11 -1.489,2.236 -1.674,2.908 1.883,-0.6 6.803,0.813 7.616,1.626 0,-0.428 4.364,-2.054 5.476,-2.054 1.113,0 6.803,3.038 6.418,2.653 -0.384,-0.385 -4.963,-3.851 -5.305,-4.193 -0.149,-0.149 0.011,-0.559 0.311,-0.975 -2.006,-0.651 -4.146,-1.007 -6.37,-1.007"
       id="path3609"
       style="fill:#231f20" />
    <path
       d="m 131.5,68.915 c 0,0.684 1.027,-1.455 1.027,-1.969 0,-0.364 -0.773,-3.574 -0.855,-6.049 -1.09,2.106 -1.826,4.421 -2.134,6.871 0.877,0.257 1.963,0.701 1.963,1.147"
       id="path3611"
       style="fill:#f68712" />
    <path
       d="m 141.726,85.378 c 0,0 -4.442,-0.702 -7.227,-1.406 1.478,1.683 3.225,3.122 5.176,4.252 1.655,-0.212 3.837,-1.06 3.569,-1.328 l -1.518,-1.518 z"
       id="path3613"
       style="fill:#f68712" />
    <path
       d="m 164.883,84.645 c -0.001,-0.734 -0.171,-3.422 -0.171,-3.422 0,0 -2.344,0.639 -2.344,1.225 0,0.586 -3.347,5.42 -3.62,6.604 2.312,-1.085 4.388,-2.586 6.136,-4.407"
       id="path3615"
       style="fill:#f68712" />
    <path
       d="m 167.712,59.785 c -1.241,-0.244 -2.839,-0.711 -2.839,-0.711 0,1.027 0.385,1.669 0,2.054 -0.378,0.378 4.353,3.972 5.576,6.533 -0.373,-2.85 -1.324,-5.516 -2.737,-7.876"
       id="path3617"
       style="fill:#f68712" />
    <path
       d="m 150,49.733 c -1.601,0 -3.156,0.189 -4.653,0.534 l -1.268,2.132 c 0,0 2.224,-0.086 3.509,-0.086 0.96,-0.96 3.142,-1.803 5.07,-2.404 -0.871,-0.113 -1.757,-0.176 -2.658,-0.176"
       id="path3619"
       style="fill:#f68712" />
    <path
       d="m 154.836,73.803 c 0.889,-1.847 2.073,-5.037 2.354,-6.159 1.578,-0.674 4.432,-2.151 4.432,-2.151 0,0 -2.704,0.939 -4.75,1.261 -1.036,-1.044 -3.922,-3.123 -5.658,-4.085 v -10e-4 c -0.995,-2.141 -1.487,-5.817 -1.487,-5.817 0,0 -0.002,2.92 -0.629,5.673 -1.548,0.844 -4.516,2.95 -5.787,4.159 -2.06,-0.168 -5.735,-1.275 -5.735,-1.275 0,0 4.448,2.911 5.732,4.196 h 0.001 c 0.271,0.811 0.605,1.746 0.942,2.632 h -0.001 c 0.619,1.544 -0.86,5.449 -1.751,7.112 1.093,-1.132 3.466,-3.145 4.995,-3.542 1.431,0.064 3.412,-0.01 4.844,-0.215 2.084,1.223 5.459,4.595 5.459,4.595 0,0 -2.681,-3.31 -2.96,-6.382"
       id="path3621"
       style="fill:#231f20" />
    <path
       d="m 141.94,80.125 c 0.095,0 0.304,-0.302 0.559,-0.778 -0.444,0.46 -0.682,0.778 -0.559,0.778"
       id="path3623"
       style="fill:#231f20" />
    <path
       d="m 150,69.343 c 0.26,-0.541 0.329,-3.484 0.148,-6.093 l -0.164,-0.033 c -0.723,0 -6.143,3.83 -6.143,4.481 0,0.495 1.191,3.893 1.969,5.699 1.893,-1.688 3.953,-3.558 4.191,-4.054"
       id="path3625"
       style="fill:#f68712" />
    <path
       d="m 166.499,76.36 c 0.13,-0.13 0.244,-0.378 0.343,-0.699 -0.414,0.694 -0.636,0.992 -0.343,0.699"
       id="path3627"
       style="fill:#fff200" />
    <path
       d="m 166.499,76.36 c 0.13,-0.13 0.244,-0.378 0.343,-0.699 -0.414,0.694 -0.636,0.992 -0.343,0.699 z"
       id="path3629"
       style="fill:none;stroke:#231f20;stroke-width:0.639" />
  </g>
</svg>
