<?xml version="1.0" encoding="UTF-8" standalone="no"?>
<!-- Created with Inkscape (http://www.inkscape.org/) -->

<svg
   xmlns:dc="http://purl.org/dc/elements/1.1/"
   xmlns:cc="http://creativecommons.org/ns#"
   xmlns:rdf="http://www.w3.org/1999/02/22-rdf-syntax-ns#"
   xmlns:svg="http://www.w3.org/2000/svg"
   xmlns="http://www.w3.org/2000/svg"
   version="1.1"
   width="280"
   height="200"
   id="svg3635">
  <metadata
     id="metadata3694">
    <rdf:RDF>
      <cc:Work
         rdf:about="">
        <dc:format>image/svg+xml</dc:format>
        <dc:type
           rdf:resource="http://purl.org/dc/dcmitype/StillImage" />
        <dc:title></dc:title>
      </cc:Work>
    </rdf:RDF>
  </metadata>
  <defs
     id="defs3637">
    <clipPath
       id="a">
      <path
         d="M 0,792 H 612 V 0 H 0 v 792 z"
         id="path3640" />
    </clipPath>
  </defs>
  <g
     transform="matrix(0.66666667,0,0,0.66666667,63,0)"
     clip-path="url(#a)"
     id="g3642">
    <path
       d="M 117.917,300 C 45.655,262.177 0.712,159.3 0,73.914 24.604,68.169 73.55,58.161 117.917,0 162.414,58.161 211.313,68.169 236.013,73.914 235.212,159.3 190.27,262.178 117.917,300"
       id="path3644"
       style="fill:#ffd900" />
    <path
       d="m 15.396,85.305 c 1.731,37.288 12.322,77.822 29.636,112.755 18.778,38.09 44.537,67.499 72.885,84.189 28.431,-16.691 54.239,-46.099 73.017,-84.189 17.312,-34.933 27.854,-75.466 29.773,-112.755 C 196.184,79.294 155.918,66.349 117.917,22.693 80.006,66.349 39.733,79.294 15.396,85.305"
       id="path3646"
       style="fill:#3365b1" />
    <path
       d="m 22.784,90.419 c 2.353,35.29 12.281,72.174 28.25,104.438 17.226,34.788 40.897,62.514 66.883,78.8 26.076,-16.287 49.748,-44.012 66.964,-78.8 15.98,-32.265 25.898,-69.149 28.261,-104.438 C 187.729,83.833 152.092,70.176 117.917,32.927 83.833,70.176 48.098,83.833 22.784,90.419"
       id="path3648"
       style="fill:#00245d" />
    <path
       d="m 114.625,16.245 3.292,-3.826 V 0 C 73.551,58.161 24.604,68.169 0,73.914 l 8.188,6.002 2.847,-0.622 C 36.796,73.023 80.273,58.519 114.625,16.245"
       id="path3650"
       style="fill:#f5bf0b" />
    <path
       d="m 235.925,73.914 -8.455,6.002 -0.178,2.937 c -0.09,38.535 -13.308,84.011 -30.93,119.56 -19.044,38.366 -46.9,68.979 -76.178,86.194 l -2.266,1.295 V 300 C 190.271,262.177 235.213,159.3 236.014,73.914 h -0.088"
       id="path3652"
       style="fill:#f5bf0b" />
    <path
       d="m 194.275,251.636 h -2.006 v -1.473 h 5.833 v 1.473 h -2.185 v 6.002 h -1.641 v -6.002 z"
       id="path3654"
       style="fill:#fcce19;stroke:#000000;stroke-width:0.88" />
    <path
       d="m 205.311,254.702 v -2.985 h -0.089 c -0.268,0.939 -0.535,2.007 -0.802,2.896 l -0.939,2.937 h -1.286 l -0.801,-2.937 c -0.267,-0.89 -0.533,-1.957 -0.801,-2.896 0,0.939 0,2.095 -0.09,2.985 l -0.178,2.937 h -1.56 l 0.534,-7.476 h 2.184 l 0.841,2.493 c 0.267,0.889 0.356,1.869 0.623,2.621 0.179,-0.753 0.533,-1.821 0.711,-2.621 l 0.761,-2.493 h 2.265 l 0.534,7.476 h -1.732 l -0.177,-2.937"
       id="path3656"
       style="fill:#fcce19;stroke:#000000;stroke-width:0.88" />
    <path
       d="M 107.239,181.993 H 68.793 c -2.541,0 -4.806,-0.89 -6.724,-2.718 -1.909,-1.821 -2.848,-4.094 -2.848,-6.764 V 115.385 H 73.55 v 53.308 h 33.689 v 13.3"
       id="path3658"
       style="fill:#c7bfcd" />
    <path
       d="m 61.891,117.028 v 53.93 c 0,1.65 0.535,3.027 1.918,4.321 1.156,1.246 2.621,1.91 4.361,1.91 h 35.063 v -6.765 H 69.544 V 117.028 H 61.89"
       id="path3660"
       style="fill:#ffffff" />
    <path
       d="m 113.734,181.993 h 14.595 l 5.648,-14.466 h 22.03 l -4.717,-12.232 h -12.419 l 8.858,-22.605 19.045,49.303 h 15.218 c 0,0 -22.603,-55.573 -23.406,-57.846 -1.828,-4.934 -4.675,-8.762 -10.857,-8.762 h -0.178 c -6.051,0 -8.681,3.828 -10.412,8.762 l -23.406,57.846"
       id="path3662"
       style="fill:#c7bfcd" />
    <path
       d="m 117.739,177.188 h 7.388 c 1.156,-3.115 5.646,-14.595 5.646,-14.595 h 21.052 c -1.117,-2.621 -1.65,-4.094 -2.273,-5.647 h -16.504 l 14.012,-35.735 16.423,42.005 c 0,0.179 3.382,9.7 5.024,13.972 h 8.01 c -3.204,-7.654 -19.667,-48.946 -21.399,-53.13 -1.74,-4.402 -3.827,-6.674 -7.12,-6.674 h -0.268 c -4.944,0 -6.763,2.272 -8.503,6.496 0,0 -19.044,47.166 -21.488,53.308"
       id="path3664"
       style="fill:#ffffff" />
    <path
       d="m 188.798,205.439 c -21.31,-4.133 -45.429,-6.311 -70.969,-6.311 -26.609,0 -51.665,2.493 -73.824,7.023 -9.475,1.828 -17.751,3.656 -23.584,5.476 5.387,8.633 11.569,18.422 16.869,26.52 5.25,-1.384 10.809,-2.581 16.553,-3.738 19.133,-3.825 41.025,-5.914 63.986,-5.914 22.249,0 42.935,1.909 61.585,5.558 6.763,1.246 13.211,2.452 19.174,3.916 5.429,-8.325 11.569,-17.888 16.957,-26.164 -6.406,-1.82 -15.622,-4.272 -26.746,-6.368"
       id="path3666"
       style="fill:#fcce19" />
    <path
       d="m 106.171,214.833 c -0.356,-0.397 -0.445,-1.207 -0.445,-2.226 v -8.365 l -4.676,0.267 v 8.503 c 0,1.821 0.268,2.978 1.739,4.175 1.642,1.383 3.56,1.383 6.003,1.295 l 5.032,-0.226 V 215.1 l -4.764,0.268 c -1.513,0.178 -2.355,-0.09 -2.889,-0.534"
       id="path3668"
       style="fill:#14162e" />
    <path
       d="m 162.682,206.782 -5.477,-0.534 c 0,0 -2.443,2.889 -3.205,3.739 -0.622,-1.028 -3.065,-4.272 -3.065,-4.272 l -5.566,-0.583 c 0,0 5.833,7.297 6.188,7.654 -0.355,0.485 -6.496,6.674 -6.496,6.674 l 5.647,0.534 c 0,0 2.849,-3.163 3.471,-4.093 0.672,1.026 3.293,4.627 3.293,4.627 l 5.744,0.494 c 0,0 -6.011,-7.395 -6.367,-7.927 0.356,-0.398 5.833,-6.311 5.833,-6.311"
       id="path3670"
       style="fill:#14162e" />
    <path
       d="m 81.827,214.436 c 0.533,-0.89 1.739,-3.738 2.451,-4.984 0.664,1.246 1.819,3.642 2.402,4.629 l -4.853,0.356 z m 0.266,-8.543 -7.653,14.773 4.944,-0.405 c 0,0 0.711,-1.602 0.979,-2.184 l 7.83,-0.616 c 0.09,0.437 0.931,1.999 0.931,1.999 l 5.21,-0.356 -7.654,-13.665 -4.587,0.454 z"
       id="path3672"
       style="fill:#14162e" />
    <path
       d="m 49.57,217.105 c 0,2.443 1.019,4.174 2.848,5.202 1.82,0.89 3.512,0.713 5.647,0.444 l 8.721,-1.018 v -8.64 l -7.831,0.987 v 2.846 c 2.184,-0.096 2.54,-0.096 3.471,-0.225 v 2.225 c -0.841,0.178 -4.361,0.533 -4.361,0.533 -2.135,0.356 -3.381,-0.089 -3.381,-3.203 0,-3.65 1.65,-4.362 3.381,-4.629 l 8.721,-1.206 v -2.977 l -8.721,1.068 c -5.647,0.76 -8.495,3.56 -8.495,8.592"
       id="path3674"
       style="fill:#14162e" />
    <path
       d="m 127.303,213.012 c 0.532,-0.938 1.738,-3.56 2.451,-4.765 0.664,1.286 1.909,3.917 2.403,4.847 l -4.854,-0.082 z m 0.267,-8.592 -7.654,14.062 4.944,0.088 c 0,0 0.801,-1.739 0.978,-2.136 l 7.744,0.089 c 0.266,0.583 1.019,2.315 1.019,2.315 l 5.21,0.267 -7.654,-14.595 -4.587,-0.089 z"
       id="path3676"
       style="fill:#14162e" />
    <path
       d="m 182.617,209.533 c 0,0 -3.203,3.479 -4.005,4.272 -0.623,-1.109 -3.826,-5.469 -3.826,-5.469 l -5.388,-0.622 c 0,0 6.853,8.72 7.03,8.988 v 6.23 l 4.538,0.622 v -6.188 c 0.268,-0.178 7.209,-7.023 7.209,-7.023 l -5.558,-0.81 z"
       id="path3678"
       style="fill:#14162e" />
    <path
       d="m 205.844,214.744 c -4.628,7.249 -10.906,16.107 -10.906,16.107 -5.737,-1.108 -11.966,-2.273 -18.422,-3.293 -17.662,-2.896 -37.556,-4.628 -58.688,-4.628 -21.981,0 -42.717,1.829 -61.05,4.983 -5.477,1.02 -10.769,2.048 -15.753,3.204 l -3.737,7.03 c 4.005,-1.027 10.186,-2.492 12.281,-2.847 0.178,0 4.668,6.942 4.846,6.764 0.09,-0.267 3.252,-3.293 5.073,-5.024 2.096,-1.83 5.833,-4.629 5.921,-4.629 16.327,-2.184 33.907,-3.916 52.418,-3.916 22.071,0 42.935,1.909 61.585,5.558 9.117,1.602 15.792,3.066 19.351,3.916 5.566,-8.325 10.905,-17.304 16.779,-26.164 l -9.7,2.937"
       id="path3680"
       style="fill:#f5bf0b" />
    <path
       d="m 117.561,45.298 c 0,12.062 -4.674,23.632 -13.219,32.176 -8.495,8.495 -19.668,13.3 -31.901,13.3 -0.267,0 -0.356,0.268 -0.356,0.534 0,0.316 0.089,0.494 0.356,0.494 12.233,0.09 23.406,4.805 31.901,13.478 8.544,8.543 13.219,19.936 13.219,31.998 0,0.089 0.178,0.178 0.178,0.356 0.178,0.09 0.357,0.09 0.445,0 h 0.178 l 0.268,-0.356 c 0,-12.241 4.578,-23.633 13.033,-32.175 8.682,-8.496 19.894,-13.212 31.997,-13.301 0.268,0 0.445,-0.268 0.445,-0.583 0,-0.268 -0.178,-0.445 -0.445,-0.445 -12.104,-0.088 -23.315,-4.805 -31.997,-13.477 -8.455,-8.543 -13.212,-19.936 -13.212,-31.998 0,-0.268 -0.09,-0.445 -0.356,-0.445 -0.268,0 -0.535,0.178 -0.535,0.445"
       id="path3682"
       style="fill:#3365b1" />
    <path
       d="m 117.917,60.783 0.18,0.179 c 1.286,16.156 13.882,28.922 29.901,30.346 0.09,0 0.268,0 0.268,0.226 0,0 -0.178,0.09 -0.268,0.09 -2.362,0.178 -4.765,0.623 -7.03,1.424 -12.549,4.045 -21.763,15.04 -22.871,28.697 0,0 0,0.138 -0.18,0.138 -0.088,0 -0.088,-0.138 -0.088,-0.138 -1.068,-13.656 -10.283,-24.651 -22.783,-28.697 -2.361,-0.801 -4.539,-1.246 -7.119,-1.424 l -0.089,-0.09 c 0,-0.226 0,-0.226 0.089,-0.226 16.059,-1.424 28.697,-14.19 29.902,-30.346 l 0.088,-0.179"
       id="path3684"
       style="fill:#fcce19" />
    <path
       d="m 117.917,60.783 -0.088,0.179 c -1.206,16.156 -13.844,28.922 -29.902,30.346 -0.089,0 -0.089,0 -0.089,0.226 h 30.079 V 60.783"
       id="path3686"
       style="fill:#eaa91c" />
    <path
       d="m 117.917,121.883 c 0.18,0 0.18,-0.138 0.18,-0.138 1.108,-13.656 10.322,-24.651 22.871,-28.697 2.265,-0.801 4.668,-1.246 7.03,-1.424 0.09,0 0.268,-0.09 0.268,-0.09 h -30.349 v 30.349"
       id="path3688"
       style="fill:#eaa91c" />
    <path
       d="M 138.071,91.308 C 127.125,91.219 118.097,82.409 118.097,71.552 h -0.268 c 0,5.299 -2.006,10.323 -5.656,13.932 -3.737,3.738 -8.762,5.825 -14.012,6.051 h -0.178 c 0,0.09 0.178,0.09 0.178,0.09 10.809,0.178 19.668,9.117 19.668,19.934 0,0.178 0.088,0.178 0.088,0.178 0.18,0 0.18,0 0.18,-0.178 0,-10.946 9.028,-19.934 19.974,-19.934 l 0.089,-0.09 c 0,-0.226 -0.089,-0.226 -0.089,-0.226"
       id="path3690"
       style="fill:#ffffff" />
  </g>
</svg>
