<?xml version="1.0" encoding="UTF-8" standalone="no"?>
<!-- Created with Inkscape (http://www.inkscape.org/) -->

<svg
   xmlns:dc="http://purl.org/dc/elements/1.1/"
   xmlns:cc="http://creativecommons.org/ns#"
   xmlns:rdf="http://www.w3.org/1999/02/22-rdf-syntax-ns#"
   xmlns:svg="http://www.w3.org/2000/svg"
   xmlns="http://www.w3.org/2000/svg"
   version="1.1"
   width="280"
   height="200"
   viewBox="0 0 279.99999 200.00001"
   id="svg3777">
  <metadata
     id="metadata3940">
    <rdf:RDF>
      <cc:Work
         rdf:about="">
        <dc:format>image/svg+xml</dc:format>
        <dc:type
           rdf:resource="http://purl.org/dc/dcmitype/StillImage" />
        <dc:title></dc:title>
      </cc:Work>
    </rdf:RDF>
  </metadata>
  <defs
     id="defs3938" />
  <g
     transform="matrix(0.41448287,0,0,-0.41448287,6.0565786,442.09075)"
     id="g3779">
    <radialGradient
       cx="317.56201"
       cy="818.83899"
       r="1"
       id="a"
       gradientUnits="userSpaceOnUse"
       gradientTransform="matrix(245.164,0,0,-245.164,-77546.078,201567.83)">
      <stop
         id="stop3782"
         style="stop-color:#065cab;stop-opacity:1"
         offset="0" />
      <stop
         id="stop3784"
         style="stop-color:#065cab;stop-opacity:1"
         offset="0.671" />
      <stop
         id="stop3786"
         style="stop-color:#003a74;stop-opacity:1"
         offset="1" />
    </radialGradient>
    <path
       d="m 308.664,1030.728 h -0.686 l -2.884,-0.012 c -93.468,0 -172.732,-31.057 -172.732,-31.057 -1.218,-15.435 -1.927,-33.67 -1.796,-49.092 0.697,-79.937 18.578,-155.502 51.739,-218.563 31.932,-60.744 76.793,-105.641 126.358,-126.547 49.565,20.906 94.426,65.803 126.359,126.547 33.161,63.061 51.041,138.625 51.727,218.563 0.13,15.423 -0.578,33.658 -1.797,49.092 0,0 -79.263,31.057 -172.719,31.057 l -2.896,0.012 h -0.673 z"
       id="path3788"
       style="fill:url(#a)" />
  </g>
  <g
     transform="matrix(0.3315863,0,0,0.3315863,50.825039,-1.159895)"
     id="g3790">
    <path
       d="m 348.546,63.656 4.062,12.719 h 13.385 l -10.902,7.741 4.238,12.704 -10.783,-7.947 -10.754,7.947 4.225,-12.704 -10.902,-7.741 h 13.414 l 4.017,-12.719 z"
       id="path3792"
       style="fill:#bac1c6" />
    <path
       d="m 398.583,88.878 4.047,12.734 13.414,-0.015 -10.902,7.755 4.225,12.689 -10.754,-7.947 -10.799,7.962 4.238,-12.705 -10.9,-7.741 h 13.398 l 4.033,-12.732 z"
       id="path3794"
       style="fill:#bac1c6" />
    <path
       d="m 415.535,139.657 4.033,12.734 13.412,-0.015 -10.902,7.755 4.24,12.689 -10.783,-7.947 -10.785,7.947 4.256,-12.689 -10.902,-7.741 h 13.383 l 4.048,-12.733 z"
       id="path3796"
       style="fill:#bac1c6" />
    <path
       d="m 390.087,188.347 4.031,12.719 h 13.414 l -10.902,7.741 4.24,12.704 -10.77,-7.947 -10.799,7.947 4.254,-12.689 -10.9,-7.755 h 13.383 l 4.049,-12.72 z"
       id="path3798"
       style="fill:#bac1c6" />
  </g>
  <g
     transform="matrix(0.41448287,0,0,-0.41448287,6.0565786,442.09075)"
     id="g3800">
    <linearGradient
       x1="317.505"
       y1="818.69397"
       x2="318.505"
       y2="818.69397"
       id="b"
       gradientUnits="userSpaceOnUse"
       gradientTransform="matrix(481.949,0,0,-481.949,-152904.81,395602.38)">
      <stop
         id="stop3803"
         style="stop-color:#bcbec0;stop-opacity:1"
         offset="0" />
      <stop
         id="stop3805"
         style="stop-color:#e5e6e7;stop-opacity:1"
         offset="0.47099999" />
      <stop
         id="stop3807"
         style="stop-color:#e5e6e7;stop-opacity:1"
         offset="0.47099999" />
      <stop
         id="stop3809"
         style="stop-color:#bcbec0;stop-opacity:1"
         offset="0.87800002" />
      <stop
         id="stop3811"
         style="stop-color:#bcbec0;stop-opacity:1"
         offset="1" />
    </linearGradient>
    <path
       d="M 304.776,1066.585 C 242.46,1066.053 180.77,1054.98 126.371,1034.57 l -10.482,-3.936 14.039,-28.906 c 1.725,0.662 81.675,31.648 175.143,31.648 l 2.895,0.011 h 1.383 l 2.907,-0.011 c 93.456,0 173.417,-30.987 175.142,-31.648 l 14.041,28.906 -10.483,3.936 c -54.411,20.409 -116.1,31.483 -178.417,32.015 -1.288,0.023 -2.576,0.023 -3.864,0.023 -1.312,0 -2.6,0 -3.899,-0.023"
       id="path3813"
       style="fill:url(#b)" />
  </g>
  <g
     transform="matrix(0.3315863,0,0,0.3315863,50.825039,-1.159895)"
     id="g3815">
    <path
       d="M 60.096,50.791 V 64.13 l -3.974,1.33 V 52.106 l -7.032,2.363 v -3.132 l 18.007,-5.998 v 3.117 l -7.001,2.335 z"
       id="path3817"
       style="fill:#6d6e71" />
    <path
       d="M 76.776,55.815 88.934,52.388 V 41.959 L 76.776,45.371 V 55.815 z M 73.098,47.38 c 0,-1.537 0.281,-2.645 0.812,-3.338 0.576,-0.68 1.595,-1.241 3.102,-1.669 l 11.67,-3.294 c 1.521,-0.428 2.556,-0.443 3.102,-0.074 0.562,0.384 0.842,1.33 0.842,2.866 v 8.671 c 0,1.537 -0.281,2.645 -0.842,3.339 -0.546,0.679 -1.581,1.241 -3.102,1.669 l -11.67,3.28 c -1.507,0.428 -2.526,0.458 -3.102,0.088 -0.532,-0.384 -0.812,-1.33 -0.812,-2.866 V 47.38 z"
       id="path3819"
       style="fill:#6d6e71" />
    <path
       d="m 104.809,34.98 v 13.369 l 10.622,-2.452 V 32.528 l 3.737,-0.857 v 12.571 c 0,1.522 -0.281,2.615 -0.827,3.28 -0.562,0.665 -1.61,1.167 -3.146,1.521 l -10.134,2.334 c -1.536,0.354 -2.585,0.34 -3.146,-0.059 -0.561,-0.414 -0.842,-1.389 -0.842,-2.91 V 35.837 l 3.736,-0.857 z"
       id="path3821"
       style="fill:#6d6e71" />
    <path
       d="m 142.026,30.151 -10.636,1.95 v 3.545 l 10.149,-1.861 c 1.536,-0.28 2.615,-0.221 3.176,0.207 0.576,0.428 0.872,1.403 0.872,2.94 v 2.26 c 0,1.521 -0.295,2.629 -0.872,3.25 -0.561,0.635 -1.625,1.108 -3.176,1.389 l -10.016,1.832 c -1.536,0.295 -2.6,0.222 -3.176,-0.207 -0.591,-0.428 -0.872,-1.403 -0.872,-2.939 l 0.074,-0.783 3.265,-0.605 v 1.581 l 11.463,-2.112 v -3.767 l -10.119,1.861 c -1.536,0.281 -2.615,0.222 -3.161,-0.207 -0.562,-0.428 -0.857,-1.418 -0.857,-2.939 v -1.817 c 0,-1.537 0.295,-2.63 0.857,-3.25 0.546,-0.635 1.625,-1.108 3.161,-1.389 l 9.204,-1.684 c 1.477,-0.281 2.511,-0.207 3.117,0.192 0.591,0.399 0.886,1.285 0.886,2.674 v 0.502 l -3.338,0.605 v -1.228 z"
       id="path3823"
       style="fill:#6d6e71" />
    <path
       d="m 184.963,24.118 -8.583,0.96 v 5.038 l 8.583,-0.96 1.226,-0.325 0.487,-1.197 v -2.378 l -0.487,-1.079 -1.226,-0.059 z m -12.32,15.023 V 22.684 l 14.034,-1.566 c 2.453,-0.266 3.649,0.665 3.649,2.777 v 4.27 c 0,2.142 -1.196,3.324 -3.649,3.604 l -10.296,1.152 v 5.821 l -3.738,0.399 z"
       id="path3825"
       style="fill:#6d6e71" />
    <path
       d="m 200.323,33.245 12.601,-0.872 V 21.929 l -12.601,0.887 v 10.429 z m -3.812,-9.203 c 0,-1.521 0.281,-2.585 0.857,-3.146 0.562,-0.576 1.64,-0.916 3.206,-1.034 l 12.099,-0.842 c 1.566,-0.118 2.645,0.074 3.221,0.576 0.546,0.488 0.857,1.492 0.857,3.028 v 8.671 c 0,1.537 -0.311,2.585 -0.857,3.162 -0.576,0.561 -1.655,0.916 -3.221,1.019 l -12.099,0.857 c -1.566,0.104 -2.644,-0.088 -3.206,-0.576 -0.576,-0.502 -0.857,-1.507 -0.857,-3.028 v -8.687 z"
       id="path3827"
       style="fill:#6d6e71" />
    <path
       d="m 229.255,18.227 v 13.369 l 10.902,-0.281 V 17.931 l 3.826,-0.089 v 12.572 c 0,1.521 -0.295,2.556 -0.856,3.117 -0.576,0.547 -1.655,0.827 -3.221,0.872 l -10.4,0.281 c -1.566,0.044 -2.629,-0.192 -3.22,-0.709 -0.576,-0.517 -0.872,-1.537 -0.872,-3.073 V 18.331 l 3.841,-0.104 z"
       id="path3829"
       style="fill:#6d6e71" />
    <path
       d="m 265.429,20.792 -8.612,-0.133 v 4.624 l 8.612,0.133 1.256,-0.178 0.473,-1.108 v -1.994 l -0.473,-1.137 -1.256,-0.207 z M 253.05,34.264 V 17.792 l 14.108,0.222 c 2.467,0.03 3.708,1.108 3.708,3.235 v 3.855 c 0,2.142 -1.241,3.176 -3.708,3.146 l -2.172,-0.029 7.579,6.337 -5.466,-0.089 -6.633,-6.323 -3.649,-0.059 v 6.234 l -3.767,-0.057 z"
       id="path3831"
       style="fill:#6d6e71" />
    <path
       d="m 311.139,23.489 -11.936,-0.99 v 10.429 l 11.936,0.99 v -3.412 l -6.233,-0.517 v -2.807 l 9.956,0.827 v 5.421 c 0,1.521 -0.295,2.541 -0.855,3.028 -0.576,0.487 -1.641,0.65 -3.207,0.517 l -11.33,-0.931 c -1.566,-0.133 -2.645,-0.487 -3.205,-1.063 -0.576,-0.576 -0.857,-1.64 -0.857,-3.162 v -8.671 c 0,-1.551 0.281,-2.556 0.857,-3.043 0.561,-0.473 1.639,-0.65 3.205,-0.532 l 11.33,0.945 c 1.521,0.133 2.586,0.473 3.162,1.049 0.605,0.562 0.9,1.581 0.9,3.028 v 0.857 l -3.723,-0.354 v -1.609 z"
       id="path3833"
       style="fill:#6d6e71" />
    <path
       d="m 327.697,32.206 7.164,0.901 -3.531,-7.15 -3.633,6.249 z m -7.312,5.658 9.232,-15.304 3.678,0.458 9.365,17.638 -4.27,-0.532 -1.949,-3.855 -10.355,-1.3 -1.906,3.368 -3.795,-0.473 z"
       id="path3835"
       style="fill:#6d6e71" />
    <path
       d="m 364.405,30.711 -11.789,-2.009 v 10.43 l 11.789,2.024 v -3.28 l -6.16,-1.049 V 34.02 l 9.838,1.669 v 5.289 c 0,1.521 -0.281,2.511 -0.842,2.939 -0.576,0.443 -1.611,0.532 -3.176,0.266 l -11.199,-1.906 c -1.564,-0.266 -2.6,-0.709 -3.189,-1.33 -0.562,-0.635 -0.842,-1.713 -0.842,-3.25 v -8.671 c 0,-1.536 0.279,-2.511 0.842,-2.955 0.59,-0.428 1.625,-0.517 3.189,-0.251 l 11.199,1.906 c 1.521,0.251 2.539,0.694 3.131,1.3 0.592,0.635 0.887,1.669 0.887,3.117 v 0.931 l -3.678,-0.68 v -1.683 z"
       id="path3837"
       style="fill:#6d6e71" />
    <path
       d="M 377.875,46.783 V 30.312 l 2.557,0.576 11.301,12.187 1.846,2.187 c -0.117,-1.537 -0.162,-2.511 -0.162,-2.866 v -8.657 l 3.369,0.753 v 16.457 l -2.557,-0.562 -11.803,-12.778 -1.344,-1.64 c 0.102,1.093 0.146,1.965 0.146,2.645 v 8.908 l -3.353,-0.739 z"
       id="path3839"
       style="fill:#6d6e71" />
    <path
       d="M 406.809,53.466 V 37.009 l 16.25,4.417 v 2.807 L 410.516,40.82 v 3.664 l 7.328,1.994 v 2.807 l -7.328,-1.994 v 4.092 l 12.721,3.457 v 3.087 l -16.428,-4.461 z"
       id="path3841"
       style="fill:#6d6e71" />
    <path
       d="m 443.638,50.681 -8.213,-2.659 v 4.624 l 8.213,2.659 1.168,0.192 0.457,-0.975 v -1.994 l -0.457,-1.256 -1.168,-0.591 z m -11.79,9.838 V 44.048 l 13.414,4.358 c 2.35,0.768 3.531,2.216 3.531,4.328 v 3.871 c 0,2.127 -1.182,2.807 -3.531,2.053 l -2.053,-0.679 6.248,8.258 -5.215,-1.699 -5.348,-7.947 -3.471,-1.138 v 6.219 l -3.575,-1.153 z"
       id="path3843"
       style="fill:#6d6e71" />
    <path
       d="m 30.443,87.189 c 0,0 99.079,-38.822 215.9,-38.822 l 3.619,-0.015 h 1.699 l 3.619,0.015 c 116.821,0 215.899,38.822 215.899,38.822 1.521,19.293 2.408,42.072 2.246,61.365 -0.857,99.907 -23.207,194.377 -64.66,273.203 -39.914,75.916 -95.99,132.051 -157.947,158.184 C 188.864,553.807 132.772,497.673 92.872,421.757 51.42,342.931 29.055,248.461 28.198,148.554 28.035,129.261 28.922,106.482 30.443,87.189 m 59.474,336.118 c 20.076,38.158 43.948,71.277 70.982,98.414 27.462,27.566 57.494,48.277 89.27,61.557 l 0.635,0.266 h 0.015 l 0.635,-0.266 c 31.776,-13.279 61.808,-33.99 89.271,-61.557 27.033,-27.137 50.906,-60.256 70.982,-98.414 41.701,-79.299 64.201,-174.286 65.043,-274.709 0.176,-20.342 -0.635,-40.299 -2.527,-63.994 C 472.067,83.762 372.131,45.043 255.31,45.043 l -3.634,-0.015 h -1.729 l -3.619,0.015 c -116.835,0 -216.771,38.719 -218.928,39.561 -1.891,23.695 -2.704,43.652 -2.526,63.994 0.842,100.423 23.341,195.411 65.043,274.709"
       id="path3845"
       style="fill:#a7aeb3" />
    <path
       d="m 484.813,351.94 h -1.566 v -6.914 h -3.088 v -1.492 h 7.742 v 1.492 h -3.088 v 6.914 z"
       id="path3847" />
    <path
       d="m 489.815,343.536 h 1.256 l 3.176,5.082 3.102,-5.082 h 1.256 v 8.406 h -1.447 v -5.2 l 0.059,-0.901 -0.398,0.887 -2.527,4.21 h -0.324 l -2.525,-4.225 -0.398,-0.872 0.029,0.901 v 5.2 h -1.256 v -8.406 z"
       id="path3849" />
  </g>
  <g
     transform="matrix(0.41448287,0,0,-0.41448287,6.0565786,442.09075)"
     id="g3851">
    <linearGradient
       x1="317.64999"
       y1="819.05798"
       x2="318.64999"
       y2="819.05798"
       id="c"
       gradientUnits="userSpaceOnUse"
       gradientTransform="matrix(140.73,0,0,-140.73,-44572.27,116190.19)">
      <stop
         id="stop3854"
         style="stop-color:#bcbec0;stop-opacity:1"
         offset="0" />
      <stop
         id="stop3856"
         style="stop-color:#f7f7f8;stop-opacity:1"
         offset="0.47099999" />
      <stop
         id="stop3858"
         style="stop-color:#f7f7f8;stop-opacity:1"
         offset="0.47099999" />
      <stop
         id="stop3860"
         style="stop-color:#bcbec0;stop-opacity:1"
         offset="0.87800002" />
      <stop
         id="stop3862"
         style="stop-color:#bcbec0;stop-opacity:1"
         offset="0.87800002" />
      <stop
         id="stop3864"
         style="stop-color:#bcbec0;stop-opacity:1"
         offset="1" />
    </linearGradient>
    <path
       d="m 200.529,1019.064 c -2.695,-8.427 -3.569,-17.763 -1.631,-28.056 0.473,-2.47 1.075,-4.988 1.867,-7.552 5.791,-18.46 21.769,-57.188 25.728,-72.669 3.983,-15.481 5.696,-26.366 5.696,-26.366 0,0 -9.171,-0.011 -15.068,0 -3.286,16.392 -6.914,29.557 -16.345,49.967 -17.313,37.452 -40.523,57.093 -64.94,53.523 -1.465,-0.212 -2.907,-0.52 -4.325,-0.898 -0.674,-12.173 -1.04,-25.066 -0.945,-36.447 0.13,-16.144 0.993,-32.098 2.517,-47.803 4.845,10.21 11.842,16.12 21.048,17.467 12.113,1.737 23.943,-1.194 32.334,-8.202 13,-10.896 13.059,-27.607 13.059,-27.607 h -29.911 l 6.665,-25.527 c 0,0 44.648,0.012 52.507,0 -2.056,-11.038 -18.235,-20.102 -35.017,-21.91 0.484,-1.123 1.135,-2.364 2.553,-3.593 2.671,-2.364 9.36,-5.885 24.487,-3.191 l 6.216,1.111 c 0,0 -0.65,-3.793 0,-8.958 l 16.108,4.917 v 199.205 c -15.328,-2.044 -29.651,-4.645 -42.604,-7.41"
       id="path3866"
       style="fill:url(#c)" />
  </g>
  <g
     transform="matrix(0.41448287,0,0,-0.41448287,6.0565786,442.09075)"
     id="g3868">
    <linearGradient
       x1="317.56201"
       y1="818.836"
       x2="318.56201"
       y2="818.836"
       id="d"
       gradientUnits="userSpaceOnUse"
       gradientTransform="matrix(247.282,0,0,-247.282,-78416.305,203290.77)">
      <stop
         id="stop3871"
         style="stop-color:#8d9092;stop-opacity:1"
         offset="0" />
      <stop
         id="stop3873"
         style="stop-color:#e5e6e7;stop-opacity:1"
         offset="0.546" />
      <stop
         id="stop3875"
         style="stop-color:#e5e6e7;stop-opacity:1"
         offset="0.546" />
      <stop
         id="stop3877"
         style="stop-color:#8d9092;stop-opacity:1"
         offset="0.866" />
      <stop
         id="stop3879"
         style="stop-color:#8d9092;stop-opacity:1"
         offset="1" />
    </linearGradient>
    <path
       d="m 114.577,1019.49 c -2.659,-22.726 -3.912,-45.984 -3.711,-69.1 0.449,-53.465 8.355,-105.121 23.175,-152.701 l -0.012,0.025 c -12.302,-6.536 -18.802,-17.656 -18.885,-32.63 -0.106,-17.941 0,-72.008 0,-72.55 l 0.012,-3.923 76.534,-9.372 c 30.857,-42.97 68.793,-75.022 109.884,-92.194 l 7.103,-2.966 v 18.484 h -0.024 l -0.496,0.212 c -25.421,10.623 -49.458,27.205 -71.428,49.245 -21.627,21.709 -40.713,48.205 -56.786,78.744 -33.35,63.439 -51.361,139.429 -52.034,219.768 -0.13,16.273 0.52,32.24 2.021,51.195 l -14.039,28.906 -1.314,-11.143 z"
       id="path3881"
       style="fill:url(#d)" />
  </g>
  <g
     transform="matrix(0.41448287,0,0,-0.41448287,6.0565786,442.09075)"
     id="g3883">
    <linearGradient
       x1="317.547"
       y1="818.79797"
       x2="318.54599"
       y2="818.79797"
       id="e"
       gradientUnits="userSpaceOnUse"
       gradientTransform="matrix(284.2,0,0,-284.2,-89937.883,233509.7)">
      <stop
         id="stop3886"
         style="stop-color:#8d9092;stop-opacity:1"
         offset="0" />
      <stop
         id="stop3888"
         style="stop-color:#e5e6e7;stop-opacity:1"
         offset="0.42300001" />
      <stop
         id="stop3890"
         style="stop-color:#e5e6e7;stop-opacity:1"
         offset="0.42300001" />
      <stop
         id="stop3892"
         style="stop-color:#8d9092;stop-opacity:1"
         offset="0.866" />
      <stop
         id="stop3894"
         style="stop-color:#8d9092;stop-opacity:1"
         offset="1" />
    </linearGradient>
    <path
       d="m 487.399,1001.728 c 1.502,-18.956 2.152,-34.923 2.009,-51.195 C 488.735,870.195 470.736,794.204 437.386,730.765 421.313,700.227 402.214,673.732 380.6,652.023 358.619,629.982 334.592,613.401 309.172,602.776 l -0.496,-0.213 V 584.08 l 7.079,2.966 c 53.997,22.572 102.546,70.802 136.722,135.789 12.539,23.848 22.975,49.375 31.223,76.191 l 24.641,7.528 c 17.988,5.483 27.547,18.011 27.655,36.198 0.106,17.94 0,72.008 0,72.551 v 2.47 l -29.83,18.602 c 0.155,4.656 0.261,9.324 0.295,14.016 0.178,23.116 -1.052,46.374 -3.711,69.1 l -1.311,11.144 -14.039,-28.906 -10e-4,0 z"
       id="path3896"
       style="fill:url(#e)" />
  </g>
  <path
     d="m 122.90461,94.294515 c -5.17275,-1.5233 -9.44889,-4.60938 -10.12002,-8.19979 3.25253,-0.01 21.76831,0 21.76831,0 l 2.75316,-10.58556 h -12.39768 c 0,0 0.0295,-6.92154 5.4221,-11.43774 3.47801,-2.9047 8.3762,-4.12427 13.40206,-3.39942 5.62337,0.81338 9.27281,5.76529 10.9818,14.47937 4.83453,-1.58199 10.57064,-6.52959 12.34363,-15.7971 2.62086,-13.70579 -5.50101,-25.22675 -15.74338,-26.73978 -10.12499,-1.47921 -19.74497,6.66654 -26.92149,22.18975 -3.90907,8.45446 -5.40784,13.91138 -6.77431,20.70558 -2.43948,0.01 -6.24046,0 -6.24046,0 0,0 0.70529,-4.50659 2.34631,-10.92809 1.65097,-6.41686 8.27341,-22.46862 10.66846,-30.11997 0.32827,-1.0581 0.58757,-2.1016 0.77392,-3.1252 1.18045,-6.21592 -0.11771,-11.60917 -2.64971,-16.17943 -5.42773,0.29876 -10.6784,0.81803 -15.68436,1.47921 v 82.56631 l 16.07199,-4.9078 z"
     id="path3898"
     style="fill:#ffffff" />
  <path
     d="m 55.624419,155.04213 28.44977,3.47801 c -2.24848,-3.25286 -4.40844,-6.65693 -6.45598,-10.19363 l -21.99379,6.71595 z"
     id="path3900"
     style="fill:#636466" />
  <path
     d="m 215.76667,56.104735 c -0.14258,3.37024 -0.34783,6.72025 -0.64162,10.04175 l 11.24178,-3.42893 -10.59982,-6.61282 z"
     id="path3902"
     style="fill:#636466" />
  <path
     d="M 226.36848,62.715565 65.780579,111.73364 c -5.60879,1.709 -10.11007,5.5302 -10.1545,13.24986 -0.0438,7.51905 0,30.05664 0,30.05664 l 30.02713,-9.16007 c 3.67364,6.14263 7.67058,11.82436 11.95169,17.00208 v -20.65152 l 9.228711,-2.82114 v 33.42622 c 3.83546,3.67398 7.82743,6.96066 11.94706,9.84082 v -46.91614 l 9.23335,-2.81153 v 55.35602 c 1.97393,1.03819 3.96279,1.98355 5.97585,2.83141 2.01803,-0.84786 4.00655,-1.79322 5.98082,-2.83141 v -59.00545 l 8.79732,-2.68453 v 56.35542 c 4.1246,-2.83606 8.1169,-6.09821 11.95733,-9.73273 v -50.27677 l 8.79731,-2.68419 v 43.62946 c 4.26653,-5.04508 8.27341,-10.60479 11.95203,-16.61479 v -30.66411 l 8.79732,-2.68452 v 16.79684 c 2.81649,-6.12341 5.30007,-12.49617 7.45472,-19.07451 l 18.4866,-5.63763 c 5.60845,-1.71463 10.11007,-5.53052 10.15417,-13.255165 0.0448,-7.51408 0,-30.05631 0,-30.05631"
     id="path3904" />
  <path
     d="m 124.82416,103.82067 c -0.01,-2.57146 2.38046,-5.158165 5.38828,-6.078645 2.38079,-0.72982 3.98235,-0.17608 3.98235,0.84753 0,0.62206 -0.47981,1.20001 -1.11712,1.39598 -0.69566,0.215535 -1.18542,0 -1.19537,-0.55839 l 0.11772,-0.47483 c -0.30374,-0.1028 -0.90159,-0.11772 -1.83202,0.16678 -2.00344,0.61211 -3.52675,2.355935 -3.51183,4.134225 0,1.70966 1.45003,2.63512 3.61496,1.96963 1.20001,-0.36773 2.18482,-1.11215 2.94879,-2.02832 l 1.17084,0.65157 c -0.98946,1.22985 -2.46866,2.2392 -4.11466,2.74354 -3.16963,0.96459 -5.43768,-0.10809 -5.45227,-2.76841"
     id="path3906"
     style="fill:#bac1c6" />
  <path
     d="m 141.69859,101.62656 1.27826,-0.3916 -0.0245,-5.956625 -1.90529,0.5826 0.01,1.34723 -1.6755,0.50932 -0.01,-2.61589 8.91503,-2.72364 0.01,2.61588 -1.67551,0.51429 v -1.35188 l -1.91027,0.5826 0.0298,5.956625 1.2829,-0.39194 v 1.31275 l -4.32024,1.3227 -0.004,-1.31242 z"
     id="path3908"
     style="fill:#bac1c6" />
  <path
     d="m 71.928849,117.02145 1.24411,-1.68977 -4.36434,1.32768 0.0149,1.31275 1.34724,-0.4115 0.0196,5.91716 -1.36647,0.41647 0.01,1.31275 4.56495,-1.39598 v -1.31275 l -1.44008,0.43604 -0.0295,-5.91252 z"
     id="path3910"
     style="fill:#bac1c6" />
  <path
     d="m 89.954209,111.51247 1.27363,-1.69971 -2.79694,0.85218 -3.13017,5.71157 -3.16963,-3.78141 -2.8165,0.85749 1.28821,0.92048 -0.30373,6.01531 -1.2199,0.37237 0.01,1.30777 4.18827,-1.27826 -0.01,-1.30811 -1.23449,0.37768 0.18601,-4.46282 2.95378,3.38516 0.23012,-0.069 2.91464,-5.17772 0.22548,4.33516 -1.22952,0.37668 v 1.30811 l 4.2128,-1.28854 -0.005,-1.31275 -1.21493,0.37701 -0.35248,-5.81901 z"
     id="path3912"
     style="fill:#bac1c6" />
  <path
     d="m 103.45243,108.87006 c 0.005,1.01433 -0.7789,1.87645 -2.1016,2.28264 -0.7149,0.21553 -0.96989,0.27953 -1.15093,0.3233 l -0.0146,-3.08574 1.10219,-0.33822 c 1.26334,-0.38729 2.15995,-0.0733 2.16493,0.81802 m -2.07209,-2.16028 -4.143831,1.26367 1.18045,0.9553 0.0295,5.91219 -1.1705,0.35778 0.005,1.31275 4.217451,-1.28324 -0.01,-1.31772 -1.27826,0.39657 -0.005,-1.53325 c 0.21553,-0.054 0.50932,-0.14723 0.9994,-0.29379 2.41992,-0.73943 4.08515,-2.20903 4.07553,-4.16804 -0.0149,-1.7395 -1.70037,-2.27368 -3.89945,-1.60222"
     id="path3914"
     style="fill:#bac1c6" />
  <path
     d="m 113.59797,107.60274 1.41555,-3.80097 1.45466,2.91961 -2.87021,0.88103 z m 5.81934,0.83261 -2.58637,-5.14323 1.12142,-0.34784 -0.01,-1.29782 -5.79945,1.77796 1.12143,0.9553 -2.53266,6.706 -0.88169,0.27456 0.01,1.30777 3.94322,-1.20531 -0.005,-1.29783 -1.25373,0.38232 0.57331,-1.57703 3.84011,-1.1705 0.58326,1.21958 -1.18543,0.36706 0.01,1.29319 3.94787,-1.20499 -0.01,-1.31275 -0.88699,0.27356 z"
     id="path3916"
     style="fill:#bac1c6" />
  <path
     d="m 104.6919,125.39234 c -0.0149,-2.87087 -2.36587,-4.23236 -5.569331,-3.25286 -3.22799,0.98481 -5.55937,3.75721 -5.54511,6.64698 0.01,2.87021 2.36089,4.23237 5.58888,3.24258 3.198481,-0.97453 5.535501,-3.74692 5.525561,-6.6367 m -14.068551,4.30068 c -0.0245,-4.04635 3.49758,-8.22467 8.53802,-9.76721 5.021211,-1.53325 8.459431,0.53883 8.483971,4.56495 0.0149,4.04138 -3.49758,8.224 -8.538021,9.76754 -5.02552,1.52828 -8.46407,-0.54413 -8.48397,-4.56561"
     id="path3918"
     style="fill:#ffffff" />
  <path
     d="m 135.37026,120.80253 2.06711,-0.63201 -0.0441,-9.61534 -3.08143,0.94038 0.0149,2.17985 -2.70376,0.82267 -0.01,-4.23734 14.39184,-4.39883 0.0196,4.23237 -2.69911,0.82764 -0.01,-2.17985 -3.08077,0.94071 0.0444,9.62031 2.07706,-0.63167 0.005,2.11154 -6.98022,2.13542 -0.0103,-2.11585 z"
     id="path3920"
     style="fill:#ffffff" />
  <path
     d="m 121.51858,113.34416 0.01,2.12082 2.07209,-0.63697 0.0345,6.99978 -9.13056,-6.3386 -3.95781,1.21029 1.89534,1.53823 0.0444,9.55665 -1.89104,0.57762 0.01,2.11154 6.60818,-2.01273 -0.0149,-2.12082 -2.06214,0.63664 -0.0395,-7.52867 9.68398,6.69606 1.55282,-0.47483 -0.0444,-11.66819 1.80748,-0.55342 -0.005,-2.12083 -6.57336,2.00776 z"
     id="path3922"
     style="fill:#ffffff" />
  <path
     d="m 159.49515,106.00085 c 0.005,1.44472 -1.50838,2.78731 -3.64944,3.44352 -0.90058,0.27455 -1.31275,0.38232 -1.61117,0.45096 l -0.0245,-4.42336 1.54784,-0.46986 c 2.28762,-0.70064 3.73333,-0.44565 3.73731,0.99874 m 2.94449,-0.98946 c -0.0149,-2.80157 -2.74355,-3.33576 -6.54419,-2.16492 l -6.43145,1.96431 1.90563,1.53326 0.0395,9.55665 -1.89104,0.57331 0.0149,2.12083 6.80416,-2.08203 -0.005,-2.11586 -2.07705,0.63168 -0.0143,-3.10034 c 0.35778,-0.0839 0.83725,-0.23045 1.36646,-0.3916 0.32827,-0.10279 0.78885,-0.29379 1.14099,-0.42145 l 3.39511,4.23734 3.65409,-1.12142 -0.005,-2.11154 -1.89535,0.57331 -2.5615,-2.96869 c 1.81577,-1.16088 3.11359,-2.92957 3.10398,-4.71251"
     id="path3924"
     style="fill:#ffffff" />
  <path
     d="m 179.74944,99.494125 -0.0199,-3.93858 -12.37811,3.78638 1.90065,1.533595 h 0.005 l 0.0441,9.56162 -1.89535,0.57762 0.0143,2.11154 12.40265,-3.79135 -0.0196,-3.93859 -2.72332,0.83262 0.01,1.84196 -4.94263,1.51369 -0.0149,-3.89912 5.01159,-1.52861 -0.01,-2.01804 -5.0116,1.53326 -0.0196,-3.688575 4.91278,-1.50374 0.0149,1.846605 2.71868,-0.832615 z"
     id="path3926"
     style="fill:#ffffff" />
  <path
     d="m 190.14832,99.842285 2.29225,-6.13766 2.34631,4.72212 -4.63856,1.41554 z m 9.40445,1.347245 -4.18296,-8.317515 1.82239,-0.55342 -0.0149,-2.09165 -9.37527,2.86591 1.8171,1.53822 h 0.005 l -4.08979,10.844875 -1.55812,0.47052 0.0149,2.12082 6.36811,-1.95006 -0.01,-2.07175 -1.89104,0.55375 0.91551,-2.54691 6.20597,-1.89568 0.94535,1.97891 -1.76801,0.55374 0.01,2.08635 6.23548,-1.91027 -0.0143,-2.11586 -1.43577,0.44002 z"
     id="path3928"
     style="fill:#ffffff" />
  <path
     d="m 214.04607,94.829365 0.005,1.94973 -4.57059,1.39598 -0.0388,-9.58119 2.19411,-0.67113 -0.01,-2.11154 -6.9265,2.11585 1.89535,1.53823 0.0441,9.55665 -1.89038,0.57829 0.01,2.115855 12.04985,-3.678625 -0.0196,-4.05066 -2.74222,0.84223 z"
     id="path3930"
     style="fill:#ffffff" />
  <path
     d="m 85.960919,126.33272 2.05749,-2.74321 v -0.005 l -4.51123,1.37608 -5.06001,9.22871 -5.13328,-6.11313 -4.52616,1.38637 2.07208,1.48418 -0.49008,9.71846 -1.96929,0.59752 0.0149,2.11054 6.75475,-2.06213 -0.01,-2.11154 -1.98886,0.6078 0.29379,-7.20537 4.7702,5.4715 0.37701,-0.12235 4.71218,-8.35697 0.35778,7.00011 -1.98886,0.61211 0.01,2.11154 6.80879,-2.08203 -0.0146,-2.11054 -1.96431,0.59718 -0.57332,-9.39085 z"
     id="path3932"
     style="fill:#ffffff" />
  <path
     d="m 177.02811,93.554745 -0.01,-2.32209 -7.97431,5.02552 7.98393,-2.70376 z"
     id="path3934"
     style="fill:#bac1c6" />
</svg>
