<?xml version="1.0" encoding="UTF-8" standalone="no"?>
<!-- Created with Inkscape (http://www.inkscape.org/) -->

<svg
   xmlns:dc="http://purl.org/dc/elements/1.1/"
   xmlns:cc="http://creativecommons.org/ns#"
   xmlns:rdf="http://www.w3.org/1999/02/22-rdf-syntax-ns#"
   xmlns:svg="http://www.w3.org/2000/svg"
   xmlns="http://www.w3.org/2000/svg"
   version="1.1"
   width="280"
   height="200"
   id="svg5858">
  <metadata
     id="metadata5932">
    <rdf:RDF>
      <cc:Work
         rdf:about="">
        <dc:format>image/svg+xml</dc:format>
        <dc:type
           rdf:resource="http://purl.org/dc/dcmitype/StillImage" />
        <dc:title></dc:title>
      </cc:Work>
    </rdf:RDF>
  </metadata>
  <defs
     id="defs5860">
    <clipPath
       id="clipPath5862">
      <path
         d="M 0,612 H 792 V 0 H 0 v 612 z"
         id="path5864" />
    </clipPath>
  </defs>
  <path
     d="m 262.65831,123.72219 c -0.0893,-0.36071 -0.22851,-0.7503 -0.34232,-1.0541 l -0.10681,-0.28278 c -0.0876,-0.23114 -0.1716,-0.45264 -0.25652,-0.7004 l -0.0893,-0.31168 -0.0131,-0.20311 c 0.11732,-1.3185 -0.21362,-2.00401 -0.73103,-2.90052 -0.40011,-0.7004 -0.96217,-0.97443 -1.33776,-0.99194 -0.0963,0.27841 -0.3572,0.44651 -0.64612,0.44651 l -0.11994,-0.009 c -0.37121,-0.0578 -0.62861,-0.42461 -0.58483,-0.7967 l 0.0254,-0.29066 c 0.0105,-0.35108 -0.0665,-0.66451 -0.24164,-0.99194 -0.44213,-0.8291 -3.63506,-3.45733 -4.8485,-3.45733 -0.98318,0 -2.01364,0.53843 -2.76131,1.44194 -0.1322,0.16459 -0.33181,0.25652 -0.54106,0.25652 l -0.0665,-0.004 c -0.23113,-0.0219 -0.43512,-0.15584 -0.54894,-0.36333 -0.10681,-0.19699 -0.19874,-0.40886 -0.28191,-0.63298 -0.218,-0.57696 -0.34669,-1.16441 -0.47014,-1.73349 l -0.0937,-0.43599 c -0.34057,-1.47871 -0.8361,-2.96793 -2.81034,-3.54313 -0.16021,-0.0473 -0.36946,-0.0832 -0.6216,-0.10331 -0.21362,-0.0219 -0.4465,-0.0306 -0.68376,-0.0376 l -0.17948,-0.004 c -0.39747,-0.009 -0.80721,-0.021 -1.21431,-0.077 -0.80984,-0.11907 -1.35002,-0.38259 -1.35002,-1.29048 0,-0.0788 0.0131,-0.15584 0.0385,-0.23026 l 0.218,-0.62422 c 0.16022,-0.45439 0.39135,-1.15741 0.57258,-1.99351 0.34057,-1.55138 0.36508,-2.974064 0.0788,-4.226024 -0.0534,-0.22675 0.0131,-0.46313 0.1716,-0.63123 0.1322,-0.14446 0.3178,-0.22588 0.51304,-0.22588 l 0.10068,0.009 c 0.81246,0.12344 1.47259,0.13307 1.65644,0.13307 4.21026,0 10.89467,-2.74818 10.89467,-10.12948 0,-4.238277 -3.43632,-8.27081 -6.31495,-10.906052 -0.18736,-0.173349 -0.26878,-0.435122 -0.20662,-0.685514 0.0613,-0.24864 0.25389,-0.443001 0.50166,-0.509538 4.09644,-1.068105 6.35435,-3.794399 6.35435,-7.67372 V 67.70006 c 0.002,-0.605843 0.004,-1.292231 -0.11819,-2.030274 -0.16897,-1.030459 -0.55157,-1.982998 -1.15828,-2.911899 -0.0665,-0.09631 -0.16722,-0.206617 -0.39573,-0.206617 l -0.17072,0.02276 c -0.16197,0.04377 -0.33794,0.152336 -0.45701,0.232006 -0.37996,0.251267 -0.9324,0.720533 -1.3719,1.101374 -0.49991,0.428117 -1.1005,0.745922 -1.94448,1.027832 -0.51304,0.170721 -1.04534,0.312552 -1.61354,0.462262 -0.29766,0.07617 -0.60059,0.156713 -0.91927,0.246889 -1.9506,0.547185 -4.08418,1.339509 -6.4559,3.426691 -1.08299,0.956041 -1.83504,2.545066 -1.90771,4.050918 -0.0657,1.265092 0.40448,2.571332 1.44194,3.995763 0.89564,1.240578 2.08544,2.407613 3.33127,3.593035 l 0.44212,0.421989 c 0.45263,0.432495 0.90176,0.862363 1.329,1.288729 0.6505,0.646116 1.13727,1.175791 1.5365,1.664318 0.98756,1.214312 1.44894,2.21151 1.44894,3.14041 0,1.97949 -1.41742,3.31287 -3.56677,3.31287 -2.37434,-0.0175 -4.2015,-0.92977 -6.74219,-2.6081 l -1.19242,-0.80195 c -0.84486,-0.5682 -1.71598,-1.15653 -2.68602,-1.763255 -1.76063,-1.097872 -3.38467,-1.971617 -5.11815,-2.74468 -0.48065,-0.214496 -0.95867,-0.403603 -1.45245,-0.5752 V 6.2561035e-4 H 50.759445 V 82.209677 c -0.907013,0.228504 -1.778132,0.534928 -2.648374,0.942909 -1.195052,0.562068 -2.399734,1.281726 -3.913466,2.33232 -0.653996,0.45263 -1.294859,0.91752 -1.925216,1.38153 -0.563819,0.40886 -1.119759,0.81421 -1.673072,1.20031 -2.494287,1.74836 -4.633123,2.91102 -6.952312,2.91102 -2.290297,0 -3.916968,-1.33951 -4.140219,-3.41356 -0.19436,-1.829783 0.739794,-3.677079 2.632616,-5.208321 l 1.043591,-0.836974 c 0.773938,-0.620727 1.503226,-1.205558 2.16335,-1.769377 1.098747,-0.942909 1.848171,-1.705466 2.423372,-2.461894 1.424431,-1.87181 1.785136,-3.797901 1.17404,-6.24316 -0.551563,-2.200121 -2.243021,-3.697219 -5.173305,-4.576217 -1.045342,-0.316929 -2.109069,-0.507787 -3.104508,-0.668878 l -0.346696,-0.05603 c -0.306424,-0.04815 -0.583956,-0.09368 -0.822966,-0.138329 -0.321307,-0.05866 -0.545434,-0.115565 -0.675883,-0.169846 -1.589025,-0.7074 -5.043731,-3.018709 -5.736248,-3.484473 l -0.282785,-0.189982 -0.192609,0.280158 c -0.632983,0.906138 -1.129389,1.624045 -1.507604,4.773203 -0.41586,3.476594 2.448762,7.720122 7.381305,8.496686 0.27403,0.04377 0.497281,0.247766 0.568197,0.515667 0.07092,0.269653 -0.02539,0.555065 -0.245139,0.728413 -5.217955,4.103448 -6.328959,5.86407 -6.60474,10.474424 -0.168971,2.8585 0.829095,5.66096 2.74643,7.69474 2.091559,2.21938 5.123401,3.39167 8.771592,3.39167 0.970925,0 1.997006,-0.0832 3.048476,-0.24689 l 0.108562,-0.008 c 0.156713,0 0.310801,0.0517 0.432494,0.15058 0.155839,0.12082 0.249517,0.3003 0.265276,0.49466 0.243388,3.207824 0.824717,5.815924 1.551378,6.980334 0.177726,0.28366 0.128698,0.65749 -0.118192,0.886 -0.225878,0.20486 -0.579578,0.40885 -1.028707,0.58133 -1.113631,0.43599 -2.800711,0.70565 -4.483414,0.70565 -1.050595,0 -1.831537,0.71965 -2.459268,2.26928 -0.204866,0.50254 -0.369459,1.03834 -0.534927,1.55838 l -0.04553,0.14534 c -0.08405,0.2644 -0.161091,0.50866 -0.240762,0.72228 -0.07267,0.20049 -0.148834,0.38434 -0.230255,0.53668 -0.210119,0.37384 -0.521795,0.74154 -0.951664,1.12238 -0.131324,0.11557 -0.295917,0.17598 -0.463137,0.17598 l -0.119068,-0.009 c -0.209243,-0.0368 -0.391346,-0.16722 -0.494655,-0.35019 -0.513916,-0.92803 -1.3255,-1.51986 -2.409364,-1.75625 l -0.02364,-0.002 h -0.108562 c -1.603032,0 -4.370474,1.35264 -5.391302,3.89508 -0.09631,0.23551 -0.315179,0.40623 -0.569948,0.43162 l -0.126947,0.0166 c -1.278224,0.1322 -2.081053,0.72666 -2.536311,1.86305 -0.189983,0.4824 -0.302922,1.0217 -0.393098,1.49185 l -0.06829,0.34669 c -0.07179,0.3931 -0.148835,0.78882 -0.248641,1.17579 -0.08055,0.30905 -0.189983,0.58133 -0.356327,0.88425 l -0.240761,0.41411 -0.168971,0.28279 c -0.284536,0.52179 -0.428117,1.05585 -0.201364,1.96549 0.102433,0.41673 0.432495,0.77568 0.977929,1.07073 0.402728,0.22062 0.924523,0.40798 1.551378,0.55944 1.11188,0.2714 2.212378,0.35633 2.424248,0.35633 0.154087,0 0.304672,-0.0429 0.452631,-0.12783 0.107686,-0.0578 0.208368,-0.1392 0.325685,-0.22675 0.126947,-0.0963 0.298544,-0.15759 0.463137,-0.15759 l 0.107686,0.009 0.518293,0.0981 c 0.427242,0.0814 0.958668,0.18823 1.486592,0.29504 l 0.0858,0.0193 1.409548,0.27578 0.55769,0.0963 0.366833,0.0368 h 0.0044 c 2.203622,-0.10681 3.134274,-0.96217 3.750623,-1.78426 0.173349,-0.23288 0.328311,-0.47627 0.481523,-0.73279 l 0.248641,-0.42549 0.188231,-0.31605 c 0.179477,-0.30993 0.358954,-0.59184 0.556816,-0.86149 0.135702,-0.18298 0.345821,-0.28629 0.566446,-0.28629 l 0.181227,0.0219 c 0.252143,0.0683 0.505161,0.11556 0.720533,0.15408 0.512165,0.0875 0.977929,0.1322 1.177542,0.14534 l 0.426366,0.0149 c 2.085431,0 3.639436,-1.16266 4.928166,-2.25265 l 0.421113,-0.35895 0.584832,-0.49816 c 0.258271,-0.21362 0.597088,-0.49115 0.949912,-0.72404 0.62598,-0.41673 1.154779,-0.60934 1.669571,-0.60934 l 0.126071,0.004 c 0.501659,0.0306 2.385726,0.16722 5.583037,0.675 0.135701,0.0193 0.275781,0.0298 0.417611,0.0298 0.535803,0 1.18367,-0.13833 1.932219,-0.41061 v 15.09267 c 0,10.59088 1.360521,14.66631 4.61824,20.33164 l 0.182979,0.31606 0.203115,0.30554 c 18.885319,28.19184 50.252589,45.025 83.907509,45.025 33.65318,0 65.01781,-16.83053 83.90839,-45.02237 l 0.20311,-0.3038 0.18385,-0.32043 c 3.25247,-5.66095 4.61387,-9.73639 4.61387,-20.33164 v -14.54548 c 0.23551,0.0289 0.47627,0.0446 0.72491,0.0438 0.52967,0 1.07686,-0.0709 1.62579,-0.20924 0.59184,-0.15321 1.18367,-0.22675 1.8079,-0.22675 0.30993,0 0.61548,0.021 0.90877,0.0516 0.78357,0.0858 1.48134,0.26002 2.04515,0.40185 l 0.14796,0.0385 c 0.91577,0.22851 1.78426,0.58921 2.65188,1.10663 0.7144,0.42724 1.31675,0.88425 1.89807,1.32725 l 0.15584,0.1182 c 1.15303,0.87637 2.35071,1.78163 4.02115,1.78163 l 0.20137,-0.004 c 0.11119,-0.004 0.23988,-0.0376 0.29504,-0.0551 l 0.32218,-0.10244 c 0.22677,-0.0814 0.49817,-0.18998 0.76694,-0.29942 0.26266,-0.10068 0.5577,-0.218 0.89564,-0.28453 l 0.13483,-0.0131 c 0.23113,0 0.44825,0.11294 0.58045,0.3073 l 0.26703,0.41586 c 0.16722,0.27403 0.33794,0.55332 0.55769,0.8361 0.64349,0.82997 1.81665,1.9401 4.55608,2.00926 l 0.72053,0.009 c 1.42531,0 2.30343,-0.10856 2.69653,-0.1751 l 0.11819,-0.009 c 0.14095,0 0.28016,0.0403 0.39922,0.12607 0.29067,0.20136 0.60059,0.29942 0.94291,0.29942 0.73805,0 1.83154,-0.22238 2.7228,-0.55157 0.52617,-0.19173 0.95954,-0.41586 1.28172,-0.65399 0.41849,-0.31168 0.66275,-0.65837 0.72053,-1.02521 0.0446,-0.2784 0.0158,-0.60759 -0.0876,-1.0147"
     id="path5866"
     style="fill:#ffffff" />
  <path
     d="m 221.87509,115.73154 c -1.20118,-1.62755 -2.00401,-3.78214 -2.31656,-6.22303 -0.0254,-0.20661 -0.14359,-0.39134 -0.31781,-0.4999 -0.11381,-0.0727 -0.24601,-0.11119 -0.37646,-0.11119 l -0.211,0.0315 c -0.24776,0.0788 -0.51041,0.1427 -0.77744,0.19873 v 24.89297 c 0,9.1358 -1.06197,11.28777 -3.19293,14.99812 -16.28247,24.30289 -43.8028,40.27193 -75.0116,40.27193 -31.20967,0 -58.732631,-15.96992 -75.014225,-40.27193 -2.12833,-3.70947 -3.192933,-5.86232 -3.192933,-14.99812 v -24.79754 l -0.187356,0.006 h -0.196987 c -0.267026,0 -0.510414,0.14796 -0.630357,0.38259 -0.30905,0.62423 -0.614598,1.24758 -0.90176,1.84205 l -0.52092,1.06635 c -0.479772,0.97267 -0.972676,1.93397 -1.336007,2.39185 -0.323058,0.40536 -0.687264,0.71966 -1.035711,0.96655 v 18.1429 c 0,9.71012 1.167911,12.75772 3.832044,17.39085 l 0.08317,0.14533 0.09193,0.13745 c 17.789198,26.55466 47.324922,42.40989 79.009112,42.40989 31.68507,0 61.22079,-15.85435 79.00999,-42.40989 l 0.0919,-0.13745 0.0814,-0.14096 c 2.66501,-4.63575 3.83204,-7.68072 3.83204,-17.39522 v -17.45213 c -0.32218,-0.26353 -0.58658,-0.53581 -0.80983,-0.83785"
     id="path5868"
     style="fill:#23326a" />
  <path
     d="m 60.46344,79.005362 0.258271,-0.238134 0.741545,-0.669755 V 10.706188 H 217.87407 v 67.02883 c 0.48153,0.31693 0.95867,0.637361 1.42093,0.951664 0.41411,0.284536 0.82472,0.559442 1.21782,0.822966 0.73016,0.481523 1.43669,0.795826 2.17123,1.035711 V 5.8970896 H 56.653283 V 81.294784 c 0.718782,-0.188232 1.433186,-0.471017 2.165976,-0.943785 0.466639,-0.302046 0.956917,-0.720533 1.643306,-1.344761"
     id="path5870"
     style="fill:#23326a" />
  <path
     d="M 55.511636,81.524164 V 4.7528166 H 223.82569 V 80.860538 c 0.29942,0.07179 0.60409,0.139204 0.92102,0.204866 l 0.32919,0.06829 c 0.45788,0.09543 0.93415,0.199613 1.41918,0.313427 V 2.0851806 H 52.844001 V 81.825334 c 0.407981,-0.05078 0.807207,-0.09018 1.200304,-0.128698 0.500784,-0.0499 0.986684,-0.101557 1.466456,-0.173348"
     id="path5872"
     style="fill:#23326a" />
  <path
     d="m 223.96665,117.42387 -0.14096,-0.0884 v 16.68432 c 0,9.99291 -1.21431,13.14732 -3.9835,17.96342 l -0.10069,0.17773 -0.11556,0.16897 c -18.00019,26.87071 -47.89137,42.91155 -79.9564,42.91155 -32.06591,0 -61.957958,-16.04084 -79.959026,-42.91155 l -0.11469,-0.1716 -0.100682,-0.1751 c -2.770944,-4.82135 -3.984381,-7.97577 -3.984381,-17.96342 v -17.48978 l -0.558567,0.2609 -0.0823,0.0385 c -0.283661,0.12782 -0.517418,0.23989 -0.711778,0.36245 -0.445628,0.27754 -0.887753,0.53493 -1.314995,0.76694 v 16.06009 c 0,10.58387 1.389412,14.16027 4.338957,19.2933 l 0.147959,0.25652 0.163717,0.24514 c 18.497475,27.61314 49.217746,44.09872 82.175786,44.09872 32.95804,0 63.67656,-16.48558 82.17491,-44.09872 l 0.16196,-0.24514 0.14796,-0.25652 c 2.94867,-5.12953 4.33983,-8.7068 4.33983,-19.2933 v -15.1557 c -0.74855,-0.33795 -1.4218,-0.75381 -2.02152,-1.12939 l -0.50691,-0.31168"
     id="path5874"
     style="fill:#23326a" />
  <path
     d="m 177.94359,105.7684 c -0.20925,1.26334 1.41392,3.25071 1.88056,4.14634 0.22676,-0.457 1.58728,-3.56764 1.79214,-3.94586 -0.66362,-0.0394 -2.47415,-0.0525 -3.67358,-0.20048"
     id="path5876"
     style="fill:#fabb23" />
  <path
     d="m 99.658514,108.98759 c 0.645236,-1.14952 1.360516,-1.329 1.837656,-1.91821 0.27403,-0.78707 0.65662,-1.24233 1.1933,-1.91646 -1.29836,0.19699 -3.766376,0.6645 -4.810846,0.85799 0.23901,0.74417 0.46577,2.46627 1.77989,2.97756"
     id="path5878"
     style="fill:#fabb23" />
  <path
     d="m 179.95898,117.4834 c -0.0753,-0.25214 -0.14358,-0.51304 -0.20662,-0.77919 -0.0753,-0.30992 -0.34232,-0.53055 -0.65837,-0.5393 h -0.0254 c -0.3073,0 -0.5787,0.19961 -0.66625,0.49378 -0.34232,1.11363 -1.29136,3.0047 -3.8303,3.15791 l -0.1856,0.007 c -1.13289,0 -2.61773,-0.56557 -3.60179,-0.94203 l -0.45088,-0.17335 c -0.50429,-0.19436 -0.99982,-0.38259 -1.46383,-0.54543 -0.67326,-0.22675 -1.16178,-0.3467 -1.54087,-0.37821 l -0.29767,-0.0114 -0.45964,0.0193 c -0.28891,0.0219 -0.58921,0.0534 -0.90876,0.0875 -0.6216,0.0692 -1.30799,0.14534 -1.99351,0.14534 h -0.15583 c -1.46996,-0.0298 -2.62124,-0.44388 -3.51512,-1.26422 -0.1322,-0.12344 -0.3038,-0.18823 -0.47452,-0.18823 -0.18385,0 -0.36508,0.077 -0.50253,0.218 -2.24828,2.32882 -5.01572,3.51336 -8.24017,3.51336 h -0.29066 c -0.66888,-0.0175 -1.85868,-0.38522 -2.35684,-1.0252 -0.19874,-0.25652 -0.25827,-0.52618 -0.18385,-0.84048 0.0516,-0.20749 0.002,-0.42111 -0.13045,-0.59183 -0.12782,-0.1646 -0.32656,-0.2644 -0.53668,-0.26878 -1.82453,-0.0298 -2.9084,-0.90176 -3.17105,-1.74749 -0.20311,-0.66275 0.0753,-1.30624 0.7862,-1.81666 l 0.1751,-0.12169 c 0.25389,-0.17772 0.55331,-0.38259 0.95166,-0.71178 0.59359,-0.4894 1.27998,-1.1469 2.09857,-2.00401 1.69058,-1.765 2.96005,-3.91872 3.99138,-6.76408 0.8825,-2.42862 1.48134,-5.080504 2.05742,-7.643074 l 0.0875,-0.38435 c 1.19855,-5.27661 2.55119,-11.26325 6.86914,-15.976044 3.1903,-3.485348 5.63118,-5.405311 12.369,-10.197774 1.14865,-0.815087 2.30781,-1.790389 3.4442,-2.756936 -5.05774,-6.915541 -11.98116,-12.378635 -20.02872,-15.653864 3.51862,4.077183 5.65133,9.385314 5.65133,15.194228 0,12.852278 -10.4184,23.27155 -23.27243,23.27155 -12.85228,0 -23.2698,-10.420148 -23.2698,-23.27155 0,-5.730119 2.07405,-10.972588 5.50687,-15.027884 -7.43384,3.105383 -13.88887,8.082576 -18.77238,14.3485 1.20643,0.853608 2.36734,1.74924 3.78564,2.913649 0.95867,0.787071 2.00226,1.674824 3.2297,2.716664 0.86412,0.733665 1.82016,1.54525 2.90402,2.457516 0.63912,0.624229 1.4507,1.549628 2.43738,2.801587 0.32569,0.410607 0.64612,0.822966 0.95429,1.219565 0.44826,0.577827 0.86675,1.123261 1.24233,1.58027 3.02046,3.698094 4.88264,6.159993 5.31426,9.202333 0.83347,5.91835 1.37803,9.28551 3.69985,15.224874 0.0438,0.11119 0.13307,0.25477 0.26527,0.41937 0.12345,0.16459 0.28191,0.33794 0.45088,0.50953 l 0.52705,0.55419 c 0.18123,0.18999 0.3572,0.38522 0.50341,0.56645 0.37384,0.49028 0.69427,1.05235 0.95692,1.54087 l 0.24339,0.45964 c 0.20924,0.39572 0.42636,0.79932 0.65837,1.19855 0.53668,0.91665 1.31937,2.06705 2.63699,2.81034 1.38766,0.77744 1.66432,0.93941 2.14059,1.38416 0.2215,0.20924 0.32831,0.45263 0.32568,0.74417 -0.007,0.43162 -0.25827,0.93153 -0.64611,1.27122 -0.42374,0.37822 -1.00595,0.63561 -1.72473,0.76343 -0.19261,0.0342 -0.3607,0.14534 -0.46576,0.31168 -0.10506,0.16635 -0.13833,0.36683 -0.0875,0.55507 0.12344,0.46839 0.0306,0.94466 -0.2644,1.33863 -0.44213,0.59358 -1.26072,0.93941 -2.29993,0.97443 l -0.4465,0.004 c -4.37485,0 -7.34191,-2.05741 -8.72344,-3.28223 -0.13045,-0.11819 -0.29942,-0.17948 -0.46401,-0.17948 -0.14621,0 -0.28892,0.0446 -0.40974,0.13395 l -0.1856,0.13483 c -0.50779,0.36333 -1.26772,0.91402 -2.2509,1.3185 -0.67588,0.32218 -1.42618,0.46576 -2.39623,0.46576 -0.34757,0 -0.68727,-0.0193 -1.00682,-0.0403 l -0.68026,-0.0499 c -0.33707,-0.028 -0.67151,-0.0534 -1.00245,-0.0727 l -0.53142,-0.0131 c -0.37296,0 -0.68989,0.0236 -0.9683,0.0753 -0.78707,0.14095 -1.6293,0.42286 -2.5223,0.71966 l -0.59271,0.19698 c -1.04009,0.33532 -2.24302,0.70215 -3.32776,0.74768 l -0.2609,0.004 c -1.5864,0 -2.70879,-0.60059 -3.33652,-1.78426 -0.1287,-0.24426 -0.23463,-0.50866 -0.32568,-0.80983 -0.0841,-0.27578 -0.323936,-0.47189 -0.605846,-0.49291 l -0.0692,-0.007 c -0.25827,0 -0.49728,0.14358 -0.61635,0.37734 l -0.0438,0.0797 c 7.925856,14.28109 23.154236,23.94743 40.644886,23.94743 17.42149,0 32.59996,-9.59193 40.55121,-23.78109 l -0.0149,-0.0446"
     id="path5880"
     style="fill:#fabb23" />
  <path
     d="m 88.474051,26.395947 c 0,-5.554145 -4.372226,-10.055068 -9.766155,-10.055068 -0.164593,0 -0.920146,0.0018 -1.081237,0.01138 H 66.267101 V 50.39416 h 6.895405 v -28.1682 l 4.111328,-0.03765 c 2.546817,0 4.481663,1.994379 4.481663,4.456273 0,2.459268 -2.065295,4.451896 -4.610361,4.451896 l -1.601282,0.03765 v 8.107966 L 82.43313,50.39416 h 8.127227 L 81.034088,36.167355 c 4.272419,-1.075108 7.440839,-5.042855 7.440839,-9.771408"
     id="path5882"
     style="fill:#ed1e36" />
  <path
     d="m 96.037459,37.291492 c 0,-2.292923 1.819285,-4.153352 4.063171,-4.153352 2.24302,0 4.06143,1.859553 4.06143,4.153352 h -8.124601 z m 4.003641,-8.912547 c -6.069811,0 -10.991848,5.091884 -10.991848,11.374441 0,6.282557 4.923788,11.384071 10.995348,11.384071 4.63137,0 8.2463,-2.144964 10.1111,-5.501615 l -5.40006,-2.546817 c -0.68638,1.51986 -2.2938,2.586214 -4.16736,2.586214 -2.500406,0 -4.524556,-1.899826 -4.524556,-4.240901 l -0.04377,-0.236384 14.692576,0.0061 c 0.0429,-0.465763 0.0674,-0.941157 0.063,-1.427933 0.10068,-7.360293 -4.66289,-11.397204 -10.73445,-11.397204"
     id="path5884"
     style="fill:#ed1e36" />
  <path
     d="m 119.61018,39.974886 c 0,-2.943416 2.20975,-5.329142 4.93254,-5.329142 2.72455,0 4.93167,2.38485 4.93167,5.329142 0,2.943417 -2.208,5.329143 -4.93167,5.329143 -2.72279,0 -4.93254,-2.38485 -4.93254,-5.329143 m 16.48208,3.970374 -0.007,-28.700502 h -6.72468 l 0.0263,16.477705 c -1.78076,-1.743987 -4.15773,-2.798084 -6.75095,-2.798084 -5.54801,0 -10.04631,4.85725 -10.04631,10.852645 0,5.991018 4.4983,10.850019 10.04631,10.850019 l 0.12082,-0.0035 c 3.50899,-3.544882 8.14999,-5.963001 13.33555,-6.677406"
     id="path5886"
     style="fill:#ed1e36" />
  <path
     d="m 206.58193,50.444065 h 6.48217 V 15.506531 h -6.48217 v 34.937534 z"
     id="path5888"
     style="fill:#ed1e36" />
  <path
     d="m 184.73481,41.802046 c 0,2.043407 -1.70022,3.699845 -3.79965,3.699845 -2.09857,0 -3.79966,-1.656438 -3.79966,-3.699845 V 29.529347 h -6.60123 v 13.577188 c 0,4.598103 4.64538,8.324213 10.37812,8.324213 5.731,0 10.37725,-3.72611 10.37725,-8.324213 V 29.529347 h -6.55483 v 12.272699 z"
     id="path5890"
     style="fill:#ed1e36" />
  <path
     d="m 157.18471,44.453923 h -6.20114 V 22.277615 h 4.32758 c 1.89982,0 3.43982,1.621418 3.43982,3.623677 0,1.999633 -1.54087,3.622802 -3.43982,3.622802 h -2.2509 v 6.149482 h 4.12446 c 2.30343,0 4.04479,1.956733 4.04479,4.380981 -0.0832,2.508295 -1.54088,4.237399 -4.04479,4.400241 m 5.42807,-12.676303 c 1.77113,-1.742236 2.85499,-4.077183 2.85499,-6.643262 0,-2.327067 -0.84835,-4.461526 -2.33144,-6.140727 -1.54525,-1.793891 -4.28293,-2.588841 -7.9819,-2.588841 h -11.07765 v 27.810123 c 4.44927,0.929776 8.4284,3.129897 11.54779,6.202887 h 2.76219 c 5.48323,-0.09368 9.89573,-4.481663 9.89573,-9.832693 0,-3.89508 -1.29923,-6.669526 -5.66971,-8.807487"
     id="path5892"
     style="fill:#ed1e36" />
  <path
     d="m 195.62773,50.444065 h 6.47954 V 15.506531 h -6.47954 v 34.937534 z"
     id="path5894"
     style="fill:#ed1e36" />
  <path
     d="m 121.80505,79.546419 c 6.78334,4.901901 16.34988,5.679341 23.82662,1.660815 8.12109,-4.202379 13.03875,-12.861908 12.2902,-22.194693 -0.14095,-1.355267 -0.35632,-2.672888 -0.71177,-3.954614 2.29292,3.449453 3.61142,7.536268 3.61142,11.935634 0,11.88573 -9.63746,21.525815 -21.52844,21.525815 -7.20446,0 -13.58069,-3.538755 -17.48891,-8.974708"
     id="path5896"
     style="fill:#c6ccd2" />
  <path
     d="m 132.94748,72.370856 c -5.0306,-1.215188 -8.46954,-2.432128 -8.46954,-2.432128 -0.54193,-5.196942 -0.0823,-9.72238 -0.0823,-9.72238 2.17648,-1.133767 8.08783,-3.775138 8.08783,-3.775138 2.80947,3.188556 5.49286,7.4601 5.49286,7.4601 -1.30099,2.516175 -5.02972,8.469546 -5.02972,8.469546 m -8.2962,-21.157231 c -0.50779,0.824717 -1.9865,3.31025 -3.31813,6.275554 -1.25546,1.57239 -2.35158,3.171921 -2.82522,3.87582 1.0681,-3.949362 3.2297,-7.446092 6.14335,-10.151374 m 22.58691,12.521341 c 0,0 1.88582,-3.937105 4.15073,-7.124785 0,0 4.35909,2.053038 6.41301,3.731363 0,0 0.75292,2.345453 0.24951,9.21897 0,0 -2.60022,1.509355 -6.3701,2.433003 0,0 -2.5582,-4.31707 -4.44315,-8.258551 m -9.76615,16.136262 9.30477,-0.250392 1.80177,5.071747 c -3.52037,2.095063 -7.75339,3.186803 -7.75339,3.186803 -4.44227,-0.96742 -6.99871,-2.893512 -6.99871,-2.893512 l 3.64643,-5.113771 z m 1.82015,-34.406108 c 2.84011,0 5.55152,0.550687 8.03093,1.549628 -0.0858,0.397475 -0.38697,1.533868 -1.25897,2.974059 -4.48604,-0.586582 -9.47286,-0.124321 -9.47286,-0.124321 L 132.44582,46.577 c 2.14847,-0.720533 4.45365,-1.111004 6.8455,-1.111004 m -13.79256,38.056049 c -3.56676,-2.980188 -6.15385,-7.091516 -7.20795,-11.783297 1.15128,1.192425 3.37854,3.480971 3.37854,3.480971 1.34126,2.769193 4.6944,7.587046 4.6944,7.587046 -0.24076,0.266151 -0.61985,0.547185 -0.86499,0.71528"
     id="path5898"
     style="fill:#23326a" />
  <path
     d="m 70.531641,147.48402 2.077552,2.51355 7.019725,-5.80892 c 2.13796,-1.77025 6.277304,-5.53488 8.201644,-7.35591 l 0.05691,0.0692 c -4.77758,5.2057 -8.733946,10.65041 -13.090413,15.74141 l 1.964613,2.3761 24.222338,-20.0366 -2.076676,-2.51267 -7.023224,5.81242 c -2.137085,1.765 -6.277304,5.53488 -8.200769,7.35153 l -0.05778,-0.0683 c 4.77758,-5.20658 8.731319,-10.64953 13.090412,-15.74142 l -1.962861,-2.37434 -24.222341,20.03484 z"
     id="path5900"
     style="fill:#23326a" />
  <path
     d="m 112.0494,144.0906 -5.17593,-3.95812 c -1.43319,-1.09437 -3.47047,-0.82209 -4.56659,0.6111 l -15.136442,19.79758 c -1.096121,1.43231 -0.825593,3.47047 0.608469,4.56659 l 5.178558,3.95636 1.977745,-2.58621 -5.175056,-3.95812 6.5776,-8.60875 3.881946,2.97056 1.97862,-2.58622 -3.881946,-2.97055 6.577596,-8.60437 5.17681,3.95811 1.97862,-2.59059 z"
     id="path5902"
     style="fill:#23326a" />
  <path
     d="m 104.67422,175.8816 2.82698,1.10838 c 2.58008,-4.04742 5.43157,-7.94513 8.33997,-14.04121 l 0.0832,0.0324 c -2.00663,6.44977 -2.5617,11.24487 -3.41968,15.96729 l 2.82697,1.10925 12.45568,-28.88435 -3.07386,-1.20556 c -2.09857,5.23196 -4.29431,10.46918 -6.35173,15.71777 -0.73716,1.88495 -1.39554,3.80403 -2.13533,5.68898 l -0.0805,-0.0298 c 1.36403,-5.04811 1.85255,-8.59124 2.66326,-12.10373 l -2.54069,-0.99631 c -1.79389,3.12902 -3.84255,6.06105 -6.27117,10.6898 l -0.0806,-0.0342 2.29905,-5.6233 c 2.05654,-5.24598 4.00452,-10.58212 6.01991,-15.84648 l -3.07386,-1.20468 -10.48669,29.65392 z"
     id="path5904"
     style="fill:#23326a" />
  <path
     d="m 146.03965,183.11669 3.24196,-0.35895 -1.53737,-13.9589 c 0.96217,-0.50692 1.68182,-1.20556 2.16685,-2.05567 0.47627,-0.89388 0.67676,-1.89107 0.56644,-2.89614 l -1.39554,-12.69118 -3.23933,0.35457 1.54437,14.04908 -3.23933,0.3572 -1.54525,-14.0517 -3.23758,0.35895 1.39641,12.69206 c 0.11294,1.00595 0.52267,1.93397 1.1828,2.70266 0.65487,0.72754 1.5111,1.25283 2.56082,1.53474 l 1.53387,13.96416 z"
     id="path5906"
     style="fill:#23326a" />
  <path
     d="m 169.93893,173.82068 -3.0371,1.18455 -9.04212,-23.22078 3.03447,-1.18367 9.04475,23.22078 z m -6.56972,1.09437 c 0.97618,2.50042 3.82592,3.75325 6.33071,2.77882 2.50041,-0.97442 3.75412,-3.82329 2.77707,-6.32545 l -8.04931,-20.67834 c -0.97705,-2.50479 -3.82504,-3.75762 -6.32808,-2.77882 -2.50217,0.97092 -3.75763,3.82066 -2.78057,6.32546 l 8.05018,20.67833 z"
     id="path5908"
     style="fill:#23326a" />
  <path
     d="m 171.39138,144.73146 2.62648,-1.92959 6.40951,8.73132 -2.62649,1.92871 -6.4095,-8.73044 z m 14.04645,24.64433 2.62649,-1.92784 -8.33735,-11.36044 2.62474,-1.92784 6.95844,9.47812 c 0.47014,0.63736 1.27297,1.13902 1.94885,1.46383 l 2.69653,-1.97862 c -0.82559,-0.37997 -1.5006,-0.70478 -2.01714,-1.41393 l -6.20114,-8.44503 c -1.14777,-1.56276 -2.07055,-1.70547 -2.89176,-1.48309 0.37821,-0.82472 0.57257,-1.67482 -0.31431,-2.88476 l -5.88683,-8.02304 c -1.0681,-1.45245 -3.09838,-1.765 -4.55433,-0.6969 l -5.25297,3.85569 18.60078,25.3456 z"
     id="path5910"
     style="fill:#23326a" />
  <path
     d="m 184.91516,127.1804 -2.18261,2.53893 c 0,0 0.47627,1.38066 1.53037,2.28942 l 5.98839,5.14617 c 0,0 2.36559,1.82015 0.15146,4.39849 l -10.26607,-8.82412 -2.11607,2.46189 23.83712,20.49186 2.1047,-2.45402 -11.02687,-9.47987 c 0,0 2.11344,-2.46977 4.16998,-0.70302 1.75887,1.51111 7.07926,6.0882 7.07926,6.0882 0,0 1.12589,1.07686 2.36734,1.09437 l 2.17999,-2.53631 c 0,0 -1.37191,-0.1182 -2.855,-1.38679 -1.47696,-1.26947 -5.89383,-5.06912 -5.89383,-5.06912 0,0 -3.91259,-3.73749 -7.41545,0.33619 0,0 3.03709,-4.09907 -1.38066,-7.89697 -3.48272,-2.99595 -5.22758,-4.49217 -5.22758,-4.49217 0,0 -0.83085,-0.84223 -1.04447,-2.00226"
     id="path5912"
     style="fill:#23326a" />
  <path
     d="m 81.09975,113.98755 c 0.814211,0.89301 0.772188,2.27191 1.706342,2.9618 1.216939,0.20487 2.311308,-0.28191 3.246338,-1.01295 0.528799,-0.44475 -0.244263,-1.01294 -0.324809,-1.54262 -0.527049,-0.77131 -0.163718,-2.31306 -1.462078,-2.35333 -1.297485,0.20136 -2.595845,0.24601 -3.895081,0.24601 l -0.365081,0.24164 c -0.242513,0.77131 0.893005,0.77131 1.094369,1.45945"
     id="path5914"
     style="fill:#ed1e36" />
  <path
     d="m 19.54452,118.29149 c -0.649618,0.32218 -1.339508,0.9324 -1.501475,1.66256 -0.205742,1.29924 0.08142,2.51793 -0.93503,3.44946 -0.0394,0.24338 -0.284536,0.52529 -0.0394,0.77043 0.893006,0.28279 1.744863,0.64787 2.840984,0.77131 0.485024,-1.58552 0.850982,-3.32775 1.419178,-4.70841 v -0.40798 c -0.487651,-0.60672 -0.975302,-1.37891 -1.785135,-1.53912"
     id="path5916"
     style="fill:#ed1e36" />
  <path
     d="m 120.12585,100.78595 -0.12345,0.34495 -0.10681,0.35282 c -0.11907,0.31956 -0.30467,0.49728 -0.5822,0.56382 -0.16284,0.0473 -0.31956,0.0228 -0.44213,-0.0692 -0.12344,-0.0937 -0.19698,-0.24251 -0.19698,-0.41148 l -0.0228,-0.36333 -0.12519,-1.249334 c -0.10069,-0.58221 -0.27141,-1.02871 -0.54106,-1.40517 l -0.54718,-0.63736 -0.61986,-0.70303 c -0.47627,-0.47627 -0.90526,-0.70389 -1.35176,-0.71965 -0.34845,0.10856 -0.66363,0.33881 -1.00069,0.70827 l -0.43337,0.53055 -0.37822,0.50954 c -0.13745,0.23901 -0.44825,0.10506 -0.45,0.10243 l -0.0552,-0.028 -0.0219,-0.0569 c -0.0989,-0.24601 -0.13482,-0.47977 -0.13482,-0.7004 0,-0.38959 0.11819,-0.73716 0.23638,-1.0217 l 0.33006,-0.67588 0.37822,-0.79933 0.0508,-0.0735 c 0.11469,-0.11031 0.22325,-0.30467 0.34844,-0.63298 l 0.10069,-0.27579 0.2215,-0.56732 c 0.33619,-0.7214 0.83522,-0.91489 1.56888,-0.60409 0.56908,0.30467 0.91928,0.78532 1.18368,1.21694 l 0.17947,0.29942 0.23201,0.38084 0.47977,0.61022 c 1.30887,1.46821 1.9436,2.85412 1.9436,4.28643 0,0.356334 -0.0394,0.720534 -0.11907,1.085614 m -4.97194,11.05576 -0.009,0.0219 -0.0394,0.002 c -0.75293,0.23726 -1.60303,0.33619 -2.53018,0.29067 l -0.0517,-0.0105 -0.16809,-0.0753 -0.17948,-0.11119 c -0.0902,-0.0727 -0.22588,-0.2285 -0.14796,-0.45701 0.3502,-1.0576 1.39642,-2.26753 2.71316,-2.53894 l 0.11382,-0.004 h 0.18385 l 0.29592,0.0403 c 0.14271,0.0403 0.38697,0.15847 0.44913,0.50517 0.0193,0.19436 0.0376,0.4106 0.0376,0.63298 0,0.62423 -0.13133,1.30361 -0.66801,1.70546 m -15.463876,-26.762154 -0.10068,-0.02539 -0.0114,0.0394 -0.028,0.02977 c -0.11644,0.112939 -0.32131,0.197862 -0.52617,0.06041 l -0.0552,-0.03765 -0.0131,-0.06654 c -0.31518,-1.61704 -0.67589,-3.330385 -1.33163,-4.922037 L 97.249145,79.51315 97.102937,79.310035 96.78163,78.844271 c -0.25652,-0.409732 -0.505161,-0.963045 -0.161966,-1.620542 l 0.03765,-0.0499 c 0.296793,-0.295042 0.81683,-0.319556 1.17404,-0.185605 l 0.0455,0.02451 c 0.69077,0.47627 1.13815,1.265967 1.46383,1.842043 0.40973,0.954291 0.61985,2.151093 0.61985,3.387293 0,0.943785 -0.12082,1.910332 -0.36946,2.810342 l 0.10068,0.02539 m 31.847916,28.583188 c -2.43388,-1.42093 -3.40481,-4.09644 -4.90803,-6.20989 -0.52618,-0.77131 -1.45945,-1.25896 -1.94798,-2.0294 -1.74399,-4.74956 -3.24546,-9.495634 -3.69109,-14.933334 -0.36508,-1.33863 -0.64787,-2.71754 -1.38066,-3.9765 -2.19049,-3.571149 -5.02972,-6.819238 -7.79104,-10.105849 -0.24426,-0.242513 -0.24601,-0.265276 -0.77043,-0.770437 l -9.61732,-7.993276 c -1.17755,-0.893006 -2.516176,-1.461202 -3.855686,-2.069672 -2.028518,-0.772187 -4.78808,-0.609345 -6.77458,0.245139 -2.070548,1.09437 -3.937105,2.678141 -6.130221,3.407429 -3.161416,1.420055 -6.733438,1.703715 -9.453604,4.14022 -1.58202,1.380657 -2.921529,3.529999 -5.276612,3.164041 -2.636994,-0.122569 -4.989451,0.851858 -6.978577,2.474151 -1.787762,1.624921 -3.4871,3.530875 -5.802786,3.978253 -2.028524,0.851857 -4.50355,0.443876 -6.573222,1.216939 -3.288362,0.809834 -5.884207,3.408302 -8.681416,5.397432 -2.800711,1.62142 -5.478852,3.36716 -8.97208,3.28661 -2.26841,-0.16197 -4.461527,-1.74486 -5.19169,-3.93535 -0.689891,-2.51881 0.07967,-5.113774 2.069672,-6.818364 2.069672,-2.474151 5.353656,-3.937104 6.980327,-6.777212 0.851858,-1.501476 0.728413,-3.934478 -0.407981,-5.354532 -2.151093,-2.232514 -5.234589,-2.315687 -8.032673,-3.004702 -1.785136,-0.488526 -3.166668,-1.866557 -4.748689,-2.718414 -0.609345,0.931527 -0.811584,1.947978 -0.729288,3.083496 0.323934,2.557323 2.270161,4.867756 4.704914,5.760762 1.420054,0.611096 3.044099,0.164593 4.50355,0.488527 0.407981,0.161091 0.814211,0.566445 0.850982,1.012948 -0.07529,0.407106 -0.117316,0.811585 -0.482398,1.096121 -2.273662,1.908581 -4.666392,3.733114 -6.575849,6.086446 -2.028523,2.192242 -2.271911,6.045294 -1.214312,8.807484 1.175791,3.16404 4.462402,5.23459 7.625568,5.63995 2.313935,0.36508 4.385358,-0.24427 6.493552,-0.68989 0.284536,0 0.407105,0.28541 0.527048,0.4465 0.203991,1.86656 -0.08055,3.53 0.325685,5.234594 0.365081,1.58289 0.893005,2.67814 1.459451,4.21901 0.08317,0.52617 0,1.09612 -0.365082,1.50235 -1.174039,0.89563 -2.393605,1.5041 -3.69109,2.07318 l -3.164041,0.20048 -0.610221,0.28717 c -1.177542,1.38065 -1.216939,2.79896 -1.946227,4.33983 -0.976178,1.6258 -2.759563,2.39273 -4.263664,3.32688 -0.485025,0.77132 -1.0147,1.58378 -1.701964,2.19312 -0.53055,0.48678 -1.177542,0.60935 -1.867432,0.68989 -1.096121,1.25896 -1.338633,3.00208 -1.625796,4.70842 1.786887,0.16196 3.65607,1.13464 5.399182,0.16196 1.501476,-0.69251 1.82716,-2.51792 2.963553,-3.61142 0.892131,-0.97442 2.232515,-0.24426 3.286611,-0.0429 1.58027,0.0814 2.718415,-1.05409 4.058799,-1.58114 0.929776,-0.60672 1.701963,-1.66257 2.674639,-2.27366 1.869184,-0.88951 4.464153,-0.40623 6.413007,-0.0385 1.540872,0.40447 3.164917,0.16196 4.50355,-0.44826 1.258963,-0.76868 2.434753,-1.74399 3.853932,-2.0688 1.258087,-0.64786 1.869183,-2.06879 2.395356,-3.24371 0.402728,-1.09874 1.459452,-1.94885 1.378906,-3.20606 -0.325684,-0.28717 -0.689015,-0.89739 -1.175791,-0.85711 -0.609345,0.85711 -1.054972,1.74574 -1.744863,2.56082 -2.934661,4.00277 -5.241593,4.38098 -11.199341,4.38098 -4.424756,-0.16284 -8.402133,1.1793 -11.44273,4.627 -0.20399,0.12257 -0.488526,0.0385 -0.650493,-0.11994 -0.119943,-0.48941 0.287163,-1.29749 0.487651,-1.66257 2.720165,-3.85306 6.939179,-4.74606 11.401581,-4.82486 2.433878,-0.16722 4.747814,-0.57082 6.819237,-1.62404 2.312184,-1.17579 3.892454,-3.00908 4.868632,-5.28362 0.525297,-2.55645 0.731038,-5.31601 1.380656,-7.750764 0.0788,-0.24252 0.687264,-0.42462 0.887753,-0.3432 0.243388,0.0403 0.726661,0.26178 0.726661,0.54719 -0.443,2.513554 -1.251083,5.474474 -0.278407,7.910104 1.947978,2.5617 5.561149,1.18104 8.199893,1.05672 2.758687,-0.24426 4.976318,-0.028 7.614187,0.13308 1.297484,-0.0385 2.258779,0.27841 3.271727,-0.5323 0.28191,-0.4465 0.398351,-1.05322 0.31693,-1.53825 -0.08317,-0.73104 -0.690767,-1.17141 0,-1.78163 0.201364,-0.16197 0.808082,-0.0543 0.969173,0.14883 0.365082,1.01558 0.527924,2.10995 1.177542,3.00295 1.299236,1.66607 3.20519,2.96618 4.988575,3.89771 1.703715,1.17929 3.12552,2.84273 3.248089,4.91066 0,1.05584 -0.974427,1.78426 -1.786887,2.27366 -1.378905,0.68814 -2.882132,1.25633 -4.502674,1.09437 -2.154595,-1.0541 -2.720166,-3.32776 -4.14022,-4.99208 -0.728412,-0.80983 -1.824533,-0.97267 -2.921529,-0.89125 -1.177542,0.11994 -2.353333,0.16021 -3.407429,0.52792 -0.284537,0.24339 -0.365082,0.60672 -0.325685,0.97443 0.731039,1.33775 1.542624,2.63787 2.352457,3.97475 0.936781,0.56819 2.234265,-0.32481 3.044099,0.68814 0.689015,1.0576 1.136393,2.31656 2.193117,3.12814 1.01645,0.88951 2.557323,1.29574 3.89508,0.72929 3.002951,-0.93415 6.006777,-1.90595 8.806612,-3.4083 h 0.931528 c 1.136393,-0.1217 2.396231,-0.0403 3.206941,-0.89301 0.89213,-1.29923 1.623169,-2.5153 2.313059,-3.89595 0.68901,-0.93416 0.36508,-2.35421 0.0832,-3.36804 -1.380654,-1.70284 -2.152842,-3.61404 -2.883881,-5.5629 -0.687264,-0.20311 -1.29836,-0.60847 -2.067921,-0.56819 -0.36333,0.16109 -0.893005,0.0797 -1.096996,0.48765 l 3.206941,6.33333 c 0.201364,0.48765 0.446503,1.17579 0.323934,1.82454 -0.446503,1.34213 -1.136394,2.63787 -2.229888,3.61142 -0.203115,0.12344 -0.446503,0.24601 -0.60847,-0.0385 0.363331,-1.38065 1.012949,-2.88038 0.932403,-4.46415 l -3.122893,-5.64344 c -0.366833,-0.77219 -1.01645,-1.46208 -0.976178,-2.35509 0,-0.4071 0.363331,-0.68901 0.691642,-0.85098 1.378906,-0.44825 3.041472,-0.36508 4.096445,-1.45945 1.381532,-2.1546 1.667819,-4.263664 2.032901,-6.819244 0.08142,-0.16196 0.409732,-0.47452 0.652244,-0.47452 0.243387,-0.0805 0.520917,0.27403 0.640857,0.39398 0.40973,2.79896 -0.16109,5.639074 -1.783379,7.831314 -0.08055,0.28453 -0.203115,0.65049 0.120818,0.85273 1.542621,0.48678 3.165791,0 4.464147,-0.68989 1.66432,0.0403 3.20519,-0.36508 4.70929,-0.60847 0.16109,0.0788 0.32306,0.24339 0.32306,0.40448 -1.01295,1.13639 -1.5829,2.39448 -1.86656,3.85831 -1.21956,1.25896 -2.96268,2.35333 -3.08612,4.18224 0.20399,0.88951 0.97618,0.0385 1.50322,0.11994 0.2434,0.0429 0.40536,0.24427 0.40536,0.48678 l -1.21606,1.78426 c -0.6505,1.0576 0.11994,2.27366 0.11994,3.28836 0.28541,0.80984 1.25896,1.21782 2.10995,1.21782 1.82716,-0.0806 3.45032,-0.77131 5.07437,-1.34126 1.78514,-0.77131 4.0159,-0.73104 5.96563,-0.40623 1.90683,-0.11995 3.32688,-1.37891 4.74606,-2.637 0.77219,0 1.4612,0.52793 1.98825,1.09788 2.18874,2.3507 5.03147,3.36628 8.23754,3.28661 l 0.28454,-0.16197 c 0.20399,-0.20487 0.12081,-0.5682 -0.12345,-0.73104 l -1.9042,-0.97443 c -1.33951,-0.85535 -3.0047,-1.98912 -3.44858,-3.49235 -0.40711,-1.33776 -1.13814,-2.79896 -1.9506,-4.09819 l -1.21607,-1.82629 c 0.0779,-0.0832 0.16109,-0.20486 0.28454,-0.16284 2.10907,0.73367 3.36803,2.80159 4.33983,4.66902 1.54525,2.14934 3.77514,3.97475 6.69667,3.49235 l 0.24426,-0.20486 c 0.12345,-0.16197 0.0814,-0.36509 0,-0.48678 l -1.46295,-0.73104 z"
     id="path5918"
     style="fill:#ed1e36" />
  <path
     d="m 23.802056,118.16804 c 1.258962,-0.73104 2.070547,-2.10907 2.720165,-3.28748 -0.120819,-0.44476 -0.569948,-0.76869 -0.93503,-1.09612 -0.240761,-0.20137 -0.605843,-0.0403 -0.893005,0.0403 -0.893006,0.77131 -1.822782,1.38065 -2.799835,1.99175 -0.405355,0.28191 -0.242513,0.89126 -0.323058,1.33776 0,0.40623 0.4859,0.68814 0.731039,0.9324 0.446502,0.20487 1.012948,0.24426 1.499724,0.0814"
     id="path5920"
     style="fill:#ed1e36" />
  <path
     d="m 196.05497,112.77236 c -1.09612,0.20312 -2.35509,-0.0403 -3.45121,0.11994 -0.48502,0.73104 -0.9324,1.62405 -0.81158,2.60023 0.12169,1.01295 1.25896,1.09437 1.98912,1.3789 0.69077,0.0788 1.70372,0.32219 2.07318,-0.40448 0.40448,-1.05847 0.76956,-2.19311 0.9324,-3.32951 -0.0814,-0.32481 -0.40885,-0.4465 -0.73104,-0.36508"
     id="path5922"
     style="fill:#ed1e36" />
  <path
     d="m 185.80204,75.476239 -0.17335,0.343194 -0.18998,0.303797 c -0.002,-0.0018 -1.27998,1.188048 -1.27998,1.188048 l -1.37015,1.279975 c -1.02783,0.998065 -1.75012,1.842043 -2.26928,2.656254 -0.436,0.597964 -0.76519,1.293983 -1.08387,1.966363 -0.0989,0.200489 -0.34232,0.204867 -0.47364,0.161092 l -0.077,-0.02451 -0.0228,-0.07354 c -0.0884,-0.258271 -0.12782,-0.53055 -0.12782,-0.827343 0,-0.225878 0.0228,-0.468391 0.0727,-0.729288 l 0.25214,-1.013824 0.12782,-0.457009 c 0.77744,-2.069672 2.51793,-4.231271 4.7697,-5.920978 0.29067,-0.183854 0.82735,-0.315178 1.2397,-0.18648 0.24777,0.07704 0.42549,0.241636 0.52793,0.483273 0.10068,0.16722 0.14796,0.330938 0.14796,0.499908 0,0.11469 -0.0219,0.22938 -0.0657,0.350199 l 0.0963,0.03414 -0.0989,-0.03414 m -16.553,23.073696 -0.11119,0.39134 c -0.0937,0.12958 -0.21362,0.28542 -0.36333,0.37909 -0.12782,0.0753 -0.32481,0.13746 -0.5393,0.002 -0.21538,-0.0858 -0.38522,-0.21975 -0.52793,-0.41324 l -0.17335,-0.26265 -0.14971,-0.25827 c -0.18122,-0.31168 -0.35545,-0.54893 -0.77831,-0.51654 -0.37822,-0.0193 -0.654,0.13307 -0.89563,0.30204 l -0.2644,0.19699 -0.14971,0.11294 -0.42725,0.28804 -0.58132,0.49553 -0.25215,0.21274 -0.81596,0.758184 c -0.59183,0.61635 -0.91227,1.17755 -1.0147,1.76413 l -0.11119,0.42636 -0.0315,0.18386 -0.0517,0.25827 c -0.0578,0.28454 -0.15759,0.59971 -0.4465,0.77919 -0.19436,0.0569 -0.43337,0.0166 -0.6181,-0.11644 -0.14709,-0.10856 -0.23288,-0.26265 -0.23288,-0.42374 -0.1646,-1.95848 0.52354,-3.788274 1.88494,-5.028854 0.68989,-0.56732 1.27297,-1.25021 1.75274,-1.84554 l 0.5323,-0.67589 1.06636,-1.31674 0.11994,-0.063 c 0.77306,-0.14883 1.25634,0.54106 1.42793,0.84486 0.67063,0.86586 1.21607,1.84116 1.71948,3.08174 0.0306,0.0875 0.0447,0.17948 0.0447,0.27578 l -0.0131,0.1716 m -0.9324,14.049084 -0.0254,0.0516 c -0.2644,0.18824 -0.59183,0.26528 -1.04884,0.24427 l -0.77569,-0.0893 -0.25827,-0.0385 -0.056,-0.0166 c -0.77744,-0.43337 -0.96743,-1.31674 -1.05585,-2.20537 0,-0.30117 0.0989,-0.53406 0.30555,-0.69427 l 0.0403,-0.0368 h 0.0578 c 1.06636,0 1.87269,0.32043 2.39361,0.95079 l 0.0254,0.0447 0.16021,0.3143 0.24164,0.50166 0.0963,-0.0368 -0.0963,0.0368 c 0.0709,0.18823 0.10681,0.35895 0.10681,0.52004 0,0.16022 -0.0368,0.30993 -0.11119,0.45439 m 86.45608,7.76214 c -2.07055,0.11994 -3.08612,-2.11169 -4.30043,-3.41093 -1.01645,-1.17579 -3.0047,-1.86306 -2.96356,-3.61142 -0.36508,-0.68814 -0.44825,-1.78163 -0.77131,-2.67727 -0.28453,-0.72841 -0.56819,-1.78688 -1.54262,-1.9471 -1.74399,-0.28191 -3.85568,0.20137 -4.95093,-1.42093 -1.13289,-1.21956 0.12344,-2.63874 0.32656,-3.81716 0.48502,-1.5006 0.52792,-3.490604 0.28454,-5.032354 -0.0403,-0.89301 -0.64962,-1.62229 -0.48678,-2.5153 0.40623,-0.77131 1.38066,-0.20311 1.98562,-0.12169 2.27367,0.64962 4.95356,0.32568 7.01973,-0.56732 2.84186,-1.38066 5.11552,-4.26192 4.99383,-7.5494 -0.40798,-4.261046 -3.45121,-7.749021 -6.73607,-10.509459 -0.60847,-0.528799 -1.38065,-1.09612 -1.58289,-1.866557 -0.0814,-1.664317 1.78426,-0.852733 2.72016,-1.258087 1.13464,-0.285412 2.27191,-0.569072 3.20607,-1.216939 2.47415,-1.666069 3.00207,-4.586722 2.5153,-7.426831 -0.0806,-0.243387 -0.0806,-0.61022 -0.44563,-0.61022 -0.4465,0.366833 -0.89301,0.894757 -1.45945,1.217814 -1.58377,0.93503 -3.69722,0.772188 -5.35804,1.584648 -2.07054,0.893005 -4.62699,2.148466 -5.52,4.501799 -0.24426,1.179293 0.0429,2.395356 0.57083,3.369783 2.51267,3.976502 7.82955,6.573222 8.68316,11.361309 0.32219,1.94798 -0.65049,3.36891 -2.15197,4.46416 -2.27453,1.3789 -5.68109,0.89213 -7.95212,-0.32569 -4.38273,-2.19049 -8.19815,-5.843061 -12.90569,-7.344536 -2.9618,-1.337758 -6.61349,-1.016451 -9.25136,-3.086123 -1.98737,-1.297484 -3.81366,-3.002074 -6.0453,-3.56852 -1.5435,-0.527924 -3.28748,-0.446503 -4.70579,-1.217815 -1.4647,-1.299236 -3.0047,-2.516175 -4.71016,-3.368032 -2.35071,-1.177542 -4.95006,-1.785136 -7.5459,-2.355084 -1.54263,-0.365081 -2.10907,-2.067045 -3.36803,-2.921529 -2.15197,-1.703715 -4.5447,-2.921529 -7.46623,-2.677266 -1.21607,0.08142 -2.15197,0.89213 -3.08612,1.70459 -6.20552,5.436829 -13.30929,9.170818 -18.98776,15.378959 -3.81716,3.937104 -4.83186,8.928306 -6.25104,13.756666 -2.02852,7.304264 -2.88038,15.341314 -10.22579,19.846624 -0.12169,0.20311 -0.12169,0.56994 0.11995,0.73103 1.94885,0.48766 3.8548,-0.28628 5.15492,-1.62229 1.25896,-1.99175 2.59672,-3.89771 4.30131,-5.72311 l 0.40885,-0.20312 c 0.20049,0.0429 0.44213,0.16197 0.36246,0.4465 l -2.43388,4.42126 c -0.64962,1.94973 -2.51705,3.44945 -4.10082,4.83011 l -0.0403,0.24338 c 0,0.20312 0.20312,0.40623 0.40799,0.44651 3.57114,0.16021 6.12671,-2.39536 8.52032,-4.78984 0.24601,-0.24339 0.5682,-0.20136 0.89301,-0.12169 1.05584,0.81158 2.02852,2.03202 3.41093,2.31393 1.45945,-0.20486 2.99857,-0.40448 4.54294,-0.28191 2.14935,0.64962 4.22165,1.53825 6.37099,2.26929 1.09437,-0.0385 1.90595,-1.09612 2.47415,-1.98738 0.4465,-1.0541 -0.20312,-2.11169 -0.1217,-3.12464 0.52968,-0.32481 1.1364,0.0788 1.70547,-0.0832 0.23989,-0.16021 0.4465,-0.4465 0.4465,-0.72841 -0.40623,-1.86568 -2.07054,-3.24896 -2.59934,-4.99207 -0.81159,-2.23602 -3.44946,-3.57203 -3.93623,-5.96826 0.12169,-0.16197 0.32393,-0.40535 0.52967,-0.24339 1.74399,1.25809 3.28749,2.92153 5.43683,3.24547 1.62229,0.16459 3.28661,0.32568 4.90891,0.20311 0.24338,-0.0797 0.4465,-0.36508 0.36508,-0.64787 -0.68814,-1.4612 -1.33776,-2.92153 -1.74574,-4.505304 -0.56557,-1.9865 -0.97443,-4.74606 -0.32306,-6.93918 0.11994,-0.16109 0.64787,-0.47189 0.89126,-0.39222 0.3248,0.0814 0.72491,0.47364 0.76693,0.75818 0.24426,3.45121 -0.11557,6.61525 1.95323,9.333664 0.89126,1.42006 2.43388,1.70459 3.53,2.80071 0.4036,0.56995 0.48678,1.5006 0.20311,2.1511 l -2.47502,3.65431 c -0.56995,0.81159 -1.1364,1.70547 -1.34126,2.59848 -0.20137,1.0147 -0.0814,1.98737 0,2.96267 -0.16022,0.0788 -0.23989,-0.16196 -0.40448,-0.24426 -0.64962,-1.33951 -1.37891,-3.04497 -0.68989,-4.62699 l 3.12377,-4.83187 0.12257,-0.36508 c -0.68989,-0.36508 -1.46121,-0.72841 -2.19049,-0.893 -0.36508,0.16459 -0.60935,0.52792 -0.85274,0.85361 l -3.04322,5.52087 c -0.20487,0.64787 -0.40623,1.13639 -0.24601,1.82716 0.16459,0.81159 0.36508,1.62405 0.73279,2.31043 0.24163,1.1399 0.44387,1.91121 0.97267,2.92416 0.77131,0.85273 1.82716,0.0814 2.80159,0.32481 0.97443,0.24426 1.33951,1.41918 2.31043,1.70546 2.19312,0.72667 4.54733,1.13465 6.73607,1.98738 1.13814,0.36333 2.76131,0.81158 3.77601,-0.12344 1.41918,-0.76694 1.78689,-2.26929 2.03027,-3.69285 0.44388,-0.60759 1.33601,-0.36333 1.98738,-0.56382 1.21781,-0.81246 1.62229,-2.27366 2.5153,-3.36803 l 0.16197,-0.56995 c -0.12257,-0.36508 -0.44651,-0.56819 -0.77132,-0.68989 h -4.13759 c -1.91033,0.24339 -2.07317,2.35509 -2.88038,3.65345 -0.44913,0.81246 -1.34038,1.13464 -2.27454,1.05585 -1.94885,-0.52968 -4.34246,-0.81159 -5.23546,-2.92328 -0.12257,-0.52618 -0.12257,-1.1758 0.28453,-1.54263 1.01295,-1.17579 2.23339,-2.51267 3.48973,-3.4871 1.78689,-0.36683 3.53262,-1.70546 4.46153,-3.29099 0.4894,-0.69076 0.40885,-1.70459 1.22044,-2.23251 0.24426,-0.0412 0.78357,-0.0569 0.94816,0.1856 0.36508,1.1758 -0.29504,2.02065 -0.66013,3.03535 4.42388,0.4465 7.8532,-0.83172 12.15364,-0.66888 1.82716,0 3.46433,0.20924 5.24859,0.0858 1.78864,-0.0814 3.73312,-0.81334 4.30131,-2.67989 0.81246,-2.39361 -0.31605,-5.112024 -0.72666,-7.385694 l 0.49116,-0.38521 c 0.28716,-0.16197 0.76343,0.0613 0.96567,0.22325 0.77131,2.15109 1.29748,4.748694 1.62404,7.100274 0.32306,2.07055 1.21607,3.41793 2.35333,5.16542 2.0688,3.08087 5.72137,4.29781 9.33454,3.52562 4.38098,-0.32305 8.15262,1.98738 10.83514,5.39393 v 0.20312 c -0.0832,0.16021 -0.24602,0.36508 -0.44826,0.32656 -2.31306,-1.78864 -4.62699,-3.69547 -7.58879,-4.0588 -2.9942,-0.54719 -5.68197,1.01295 -8.80399,-0.24514 -3.76551,-1.2397 -5.3449,-3.55801 -6.93918,-7.26661 h -0.32671 c -0.24164,0.0403 -0.40185,0.28628 -0.44388,0.52967 l 0.40623,2.51793 c 0.48766,2.02852 1.13902,4.42388 3.32951,5.3554 1.70372,1.01558 3.36366,2.47503 5.47711,1.90683 3.69284,-0.81158 7.4242,0.24427 10.26431,2.31394 0.9359,0.52792 1.66256,1.50235 2.67989,1.86568 1.09437,0.44388 2.43388,0.20136 3.32688,-0.52967 2.07055,-0.68639 2.55645,1.91033 3.97738,2.84186 1.25896,1.21781 3.76989,0.7144 5.4342,0.7144 l -0.0385,-0.18385 c -0.20136,-1.66695 -0.64962,-2.96443 -1.29748,-4.42388"
     id="path5924"
     style="fill:#ed1e36" />
  <path
     d="m 260.29009,122.47198 c -0.20311,-0.93591 0.0403,-2.23339 -0.5682,-3.08612 -0.52792,-0.40623 -1.0147,-1.01295 -1.70284,-0.85274 -0.57082,0.48941 -1.42093,1.05323 -1.29923,1.90771 0.48502,1.45945 0.81158,2.51267 1.09612,4.0159 0.16197,0.28453 0,0.85273 0.4465,0.85273 l 2.59672,-0.85273 c 0.44563,-0.72841 -0.40623,-1.29749 -0.56819,-1.98563"
     id="path5926"
     style="fill:#ed1e36" />
  <path
     d="m 253.71687,114.03045 c -0.81159,-0.69252 -1.66257,0.32218 -2.07055,0.93328 0.28629,0.97267 1.09437,1.78426 1.70547,2.67814 0.32481,0.48677 0.85098,0.80983 1.42093,0.85098 0.56644,0 1.0147,-0.28278 1.41917,-0.60759 0.28454,-0.36771 0.60847,-0.81421 0.48853,-1.33776 -0.77306,-1.05585 -1.98912,-1.70984 -2.96355,-2.51705"
     id="path5928"
     style="fill:#ed1e36" />
</svg>
