<?xml version="1.0" encoding="UTF-8" standalone="no"?>
<!-- Created with Inkscape (http://www.inkscape.org/) -->

<svg
   xmlns:dc="http://purl.org/dc/elements/1.1/"
   xmlns:cc="http://creativecommons.org/ns#"
   xmlns:rdf="http://www.w3.org/1999/02/22-rdf-syntax-ns#"
   xmlns:svg="http://www.w3.org/2000/svg"
   xmlns="http://www.w3.org/2000/svg"
   version="1.1"
   width="280"
   height="200"
   viewBox="0 0 280 200"
   id="Layer_1"
   xml:space="preserve"><metadata
     id="metadata39"><rdf:RDF><cc:Work
         rdf:about=""><dc:format>image/svg+xml</dc:format><dc:type
           rdf:resource="http://purl.org/dc/dcmitype/StillImage" /><dc:title></dc:title></cc:Work></rdf:RDF></metadata><defs
     id="defs37" /><path
     d="M 141.81876,200 C 112.33689,187.93402 89.91565,170.76155 75.172949,148.95294 63.334955,131.44113 56.383209,110.90449 54.5095,87.912428 51.487474,50.822268 62.838253,19.107683 64.201905,15.463196 67.663727,13.806227 97.854837,3.8146973e-4 141.81876,3.8146973e-4 c 43.96394,0 74.15504,13.80584553027 77.61651,15.46281453027 1.36366,3.644487 12.71479,35.359072 9.69346,72.448892 -1.87406,22.992052 -8.8258,43.529042 -20.6638,61.040502 -14.7434,21.80896 -37.16464,38.98143 -66.64617,51.04741"
     id="path3"
     style="fill:#633492" /><path
     d="M 141.81876,195.36948 C 113.93203,183.66988 92.707236,167.25301 78.716975,146.55654 67.295588,129.66227 60.58587,109.81484 58.772935,87.564668 56.09481,54.696838 64.995087,26.154273 67.619816,18.60044 74.870502,15.383456 102.73617,4.2782205 141.81876,4.2782205 c 39.08155,0 66.94791,11.1052355 74.1993,14.3222195 2.62473,7.553483 11.52431,36.096048 8.84688,68.964228 -1.81293,22.250172 -8.523,42.097602 -19.94368,58.991872 -13.99097,20.69647 -35.21611,37.11334 -63.1025,48.81294"
     id="path5"
     style="fill:#ffffff" /><path
     d="M 141.81876,190.72175 C 115.52893,179.40083 95.497427,163.74236 82.260647,144.16154 71.256926,127.88412 64.789237,108.72518 63.036371,87.217258 60.61046,57.440658 67.909269,31.357728 71.063027,21.774568 80.334951,17.878567 106.26578,8.5557045 141.81876,8.5557045 c 35.55263,0 61.48346,9.3225125 70.75609,13.2185145 3.15376,9.583149 10.45222,35.666439 8.02701,65.442689 -1.75322,21.508272 -8.22091,40.667212 -19.22498,56.944282 -13.23712,19.58151 -33.26898,35.23999 -59.55812,46.56056"
     id="path7"
     style="fill:#633492" /><path
     d="m 104.51573,140.43345 c -0.63862,-0.62422 -1.39316,-1.11987 -2.24255,-1.47466 -0.85254,-0.35619 -1.77851,-0.53605 -2.751193,-0.53605 -0.97303,0 -1.89829,0.17986 -2.75154,0.53605 -0.84904,0.35479 -1.60357,0.85044 -2.24184,1.47466 -0.63897,0.62386 -1.146922,1.36119 -1.509089,2.19055 -0.364269,0.83253 -0.549044,1.73741 -0.549044,2.68902 0,0.9516 0.184775,1.85579 0.549044,2.68831 0.362167,0.82901 0.869769,1.56599 1.509089,2.19126 0.63827,0.62352 1.39245,1.11987 2.24184,1.4743 0.85219,0.3562 1.77816,0.53641 2.75154,0.53641 0.973393,0 1.899353,-0.18021 2.751193,-0.53641 0.84939,-0.35443 1.60393,-0.85078 2.24255,-1.4743 0.63827,-0.62352 1.14551,-1.36084 1.50908,-2.19126 0.36462,-0.83322 0.54904,-1.73776 0.54904,-2.68831 0,-0.95055 -0.18407,-1.85509 -0.54904,-2.68902 -0.36427,-0.83042 -0.87151,-1.56809 -1.50908,-2.19055 m -0.25854,4.87957 c 0,0.66216 -0.12295,1.28813 -0.36463,1.8586 -0.24167,0.57118 -0.58171,1.07209 -1.00921,1.488 -0.4289,0.41838 -0.93861,0.75314 -1.51505,0.99447 -1.14411,0.48124 -2.549563,0.48124 -3.692963,0 -0.5768,-0.24168 -1.08615,-0.57645 -1.51541,-0.99482 -0.42715,-0.41556 -0.76648,-0.91612 -1.00816,-1.48765 -0.24168,-0.57012 -0.36463,-1.19574 -0.36463,-1.8586 0,-0.66321 0.1226,-1.28918 0.36463,-1.85895 0.24168,-0.57047 0.58066,-1.07174 1.00886,-1.48836 0.42961,-0.41767 0.93861,-0.75243 1.51506,-0.99376 0.57222,-0.24062 1.19433,-0.36287 1.84665,-0.36287 0.651973,0 1.273733,0.12225 1.846663,0.36287 0.57504,0.24098 1.08439,0.57504 1.5147,0.99376 0.4275,0.41662 0.76754,0.91753 1.00922,1.48766 0.24132,0.57152 0.36427,1.19679 0.36427,1.85965 z"
     id="path9"
     style="fill:#ffffff" /><polyline
     points="226.427,426.896 206.899,426.896 206.899,394.491 200.305,394.491 200.305,432.851   223.221,432.851 226.427,426.896 "
     id="polyline11"
     transform="matrix(0.35127585,0,0,0.35127585,53.999798,3.8146973e-4)"
     style="fill:#ffffff" /><polyline
     points="278.66,409.409 304.023,433.963 304.023,395.877 296.761,395.877 296.761,417.799 272.463,393.243   272.463,419.627 278.66,431.332 278.66,409.409 "
     id="polyline13"
     transform="matrix(0.35127585,0,0,0.35127585,53.999798,3.8146973e-4)"
     style="fill:#ffffff" /><path
     d="m 172.92319,140.50862 c -0.61965,-0.59857 -1.3612,-1.07526 -2.20601,-1.4174 -0.84412,-0.34214 -1.76552,-0.51532 -2.7375,-0.51532 h -4.56482 v 13.47494 h 4.56482 c 0.97198,0 1.89373,-0.17388 2.7375,-0.51567 0.84446,-0.3425 1.58636,-0.81918 2.20601,-1.4174 0.61895,-0.59892 1.11354,-1.31693 1.47114,-2.13505 0.35795,-0.81953 0.53957,-1.71845 0.53957,-2.66935 0,-0.95161 -0.18162,-1.84947 -0.53957,-2.6697 -0.3576,-0.81847 -0.85219,-1.53647 -1.47114,-2.13505 m -7.19132,0.15772 h 2.01913 c 0.66708,0 1.30218,0.11979 1.88846,0.3562 0.58804,0.23711 1.11038,0.56766 1.55229,0.98251 0.4391,0.41205 0.79037,0.90875 1.0447,1.47641 0.25221,0.56451 0.38043,1.18065 0.38043,1.83121 0,0.66286 -0.12787,1.28145 -0.37973,1.83928 -0.25362,0.56204 -0.6056,1.05523 -1.0454,1.46868 -0.44191,0.41415 -0.9646,0.74435 -1.55229,0.98217 -0.58557,0.23571 -1.22068,0.35549 -1.88846,0.35549 h -2.01913 v -9.29195 z"
     id="path15"
     style="fill:#ffffff" /><path
     d="m 190.61731,142.624 c -0.36393,-0.83042 -0.87187,-1.56809 -1.50838,-2.19055 -0.63898,-0.62422 -1.39317,-1.11987 -2.2429,-1.47466 -0.8529,-0.35619 -1.77851,-0.53605 -2.75119,-0.53605 -0.97339,0 -1.89865,0.17986 -2.75154,0.53605 -0.84939,0.35479 -1.60358,0.85044 -2.2422,1.47466 -0.63862,0.62386 -1.14621,1.36119 -1.50908,2.19055 -0.36428,0.83253 -0.54904,1.73741 -0.54904,2.68902 0,0.9516 0.18512,1.85579 0.54904,2.68831 0.36252,0.82901 0.87011,1.56599 1.50908,2.19126 0.63862,0.62352 1.39281,1.11987 2.24185,1.4743 0.85254,0.3562 1.7778,0.53641 2.75154,0.53641 0.97338,0 1.8997,-0.18021 2.75119,-0.53641 0.84974,-0.35443 1.60392,-0.85078 2.24289,-1.4743 0.63757,-0.62352 1.14517,-1.36084 1.50909,-2.19126 0.36392,-0.83322 0.54869,-1.73776 0.54869,-2.68831 3.5e-4,-0.95055 -0.18442,-1.85509 -0.54904,-2.68902 m -1.76762,2.68902 c 0,0.66216 -0.12225,1.28813 -0.36428,1.8586 -0.24203,0.57118 -0.58136,1.07209 -1.00956,1.488 -0.42962,0.41838 -0.93826,0.75314 -1.51436,0.99447 -1.14515,0.48124 -2.55026,0.48124 -3.69401,0 -0.57715,-0.24168 -1.08614,-0.57645 -1.51506,-0.99482 -0.42714,-0.41556 -0.76683,-0.91612 -1.00886,-1.48765 -0.24168,-0.57012 -0.36462,-1.19574 -0.36462,-1.8586 0,-0.66321 0.12294,-1.28918 0.36462,-1.85895 0.24168,-0.57047 0.58136,-1.07174 1.00922,-1.48836 0.42891,-0.41767 0.93861,-0.75243 1.5147,-0.99376 0.57293,-0.24062 1.19469,-0.36287 1.84701,-0.36287 0.65232,0 1.27373,0.12225 1.847,0.36287 0.57504,0.24098 1.08439,0.57504 1.51436,0.99376 0.4282,0.41662 0.76718,0.91753 1.00956,1.48766 0.24203,0.57152 0.36428,1.19679 0.36428,1.85965 z"
     id="path17"
     style="fill:#ffffff" /><rect
     width="2.3166642"
     height="13.475293"
     x="135.43115"
     y="156.06908"
     id="rect19"
     style="fill:#ffffff" /><path
     d="m 161.83974,156.06908 -3.60059,5.1332 -3.60057,-5.1332 h -2.7375 c 0.0748,0.15316 5.17957,7.55771 5.17957,7.55771 v 5.91759 h 2.31666 v -5.91759 l 5.22629,-7.55771 h -2.78386"
     id="path21"
     style="fill:#ffffff" /><polyline
     points="272.328,444.291 246.69,444.291 246.69,450.244 257.337,450.244 257.337,482.652 263.93,482.652   263.93,450.244 276.267,450.244 272.328,444.291 "
     id="polyline23"
     transform="matrix(0.35127585,0,0,0.35127585,53.999798,3.8146973e-4)"
     style="fill:#ffffff" /><polyline
     points="251.867,391.861 232.355,432.851 239.623,432.851 251.867,406.793 255.828,415.187   251.867,415.187 249.106,421.142 258.648,421.142 264.111,432.851 271.378,432.851 251.867,391.861 "
     id="polyline25"
     transform="matrix(0.35127585,0,0,0.35127585,53.999798,3.8146973e-4)"
     style="fill:#ffffff" /><path
     d="m 132.0828,165.56934 c -0.17633,0.26803 -0.37762,0.51532 -0.60629,0.73768 -0.42927,0.41767 -0.93862,0.75243 -1.51471,0.99411 -1.14445,0.4809 -2.54956,0.4809 -3.69331,0 -0.5768,-0.24203 -1.0865,-0.57715 -1.51506,-0.99446 -0.4275,-0.41556 -0.76718,-0.91613 -1.00886,-1.48766 -0.24168,-0.57047 -0.36428,-1.19609 -0.36428,-1.85895 0,-0.6625 0.1226,-1.28848 0.36428,-1.85895 0.24168,-0.56977 0.58136,-1.07104 1.00886,-1.488 0.42961,-0.41767 0.93897,-0.75208 1.51506,-0.99411 0.57258,-0.24063 1.19399,-0.36217 1.84665,-0.36217 0.65232,0 1.27408,0.12154 1.84701,0.36217 0.57539,0.24168 1.08404,0.57574 1.51436,0.99411 0.22832,0.222 0.4296,0.47035 0.60629,0.73838 v -3.09755 c -0.37937,-0.25081 -0.78545,-0.46755 -1.21611,-0.64776 -0.8529,-0.35619 -1.77851,-0.53639 -2.7512,-0.53639 -0.97268,0 -1.89829,0.1802 -2.75118,0.53639 -0.84974,0.35514 -1.60393,0.8508 -2.24255,1.47466 -0.63862,0.62387 -1.14657,1.3612 -1.50909,2.19021 -0.36426,0.83287 -0.54904,1.73741 -0.54904,2.68901 0,0.95126 0.18512,1.85649 0.54904,2.68902 0.36252,0.82866 0.87012,1.56599 1.50909,2.19056 0.63827,0.62422 1.39281,1.11986 2.24184,1.47465 0.85185,0.35655 1.77816,0.5364 2.75154,0.5364 0.97339,0 1.899,-0.17985 2.7512,-0.5364 0.43066,-0.1795 0.83674,-0.39694 1.21611,-0.64775 v -3.0972"
     id="path27"
     style="fill:#ffffff" /><path
     d="m 117.40088,146.90465 c 1.43777,-0.8125 2.14173,-2.20004 2.14173,-3.7713 0,-2.51759 -1.64081,-4.5578 -4.69305,-4.5578 -0.0783,0 -4.88976,0 -4.88976,0 v 13.47494 h 2.31596 v -11.23205 h 2.01422 c 0.079,0 0.36252,0 0.42961,0 1.27829,0 2.31456,1.03627 2.31456,2.31491 0,1.27794 -1.03627,2.31491 -2.31456,2.31491 -0.0639,0 -0.34671,0 -0.42961,0 h -1.34644 l 5.46163,6.60223 h 3.11723 l -4.12152,-5.14584"
     id="path29"
     style="fill:#ffffff" /><path
     d="m 141.81876,96.119998 c 0,0 -10.6166,0.42785 -12.13763,3.87562 -0.27891,0.631952 0,5.146892 0,5.146892 0,0 0.89435,0.18899 1.5969,-0.29893 0,0 -0.1117,1.99841 1.34187,3.00587 1.45288,1.00711 3.73688,2.42345 3.785,2.42345 0.0478,0 1.3893,-1.00711 2.15578,-1.06999 0.76649,-0.0629 2.42767,2.83269 3.25808,3.65116 0.83007,-0.81847 2.4909,-3.71403 3.25739,-3.65116 0.76754,0.0632 2.10871,1.06999 2.15648,1.06999 0.0481,0 2.33177,-1.41634 3.78465,-2.42345 1.45393,-1.00746 1.34187,-3.00587 1.34187,-3.00587 0.70255,0.48792 1.5969,0.29893 1.5969,0.29893 0,0 0.27927,-4.51494 0,-5.146892 -1.52068,-3.44777 -12.13729,-3.87562 -12.13729,-3.87562"
     id="path31"
     style="fill:#fde192" /><path
     d="m 185.49957,77.757048 c 14.89304,-0.80442 14.40231,-9.56067 14.40231,-9.56067 -8.72499,3.82152 -11.66518,-2.69042 -15.23554,-3.41616 12.3066,-4.22901 10.47997,-13.50129 10.47997,-13.50129 -4.78755,6.18772 -12.01716,0.70571 -15.53624,1.23931 9.90177,-6.58081 6.09464,-15.87171 6.09464,-15.87171 -1.85649,6.97108 -14.03874,4.90487 -14.03874,4.90487 6.74028,-9.94743 0.73663,-16.708435 0.73663,-16.708435 0.50408,7.339205 -12.29114,9.233985 -12.29114,9.233985 3.31955,-13.001418 -4.12363,-16.281635 -4.12363,-16.281635 1.4736,6.183508 -7.13442,11.076783 -7.13442,11.076783 l -7.03465,-13.719079 -7.035,13.719079 c 0,0 -8.60766,-4.893624 -7.13476,-11.076783 0,0 -7.44248,3.280217 -4.12258,16.281635 0,0 -12.79592,-1.89478 -12.29149,-9.233985 0,0 -6.004,6.761355 0.73628,16.708435 0,0 -12.181553,2.06585 -14.038393,-4.90487 0,0 -3.80713,9.2909 6.094633,15.87171 -3.51873,-0.5336 -10.74904,4.94841 -15.536226,-1.23931 0,0 -1.826983,9.27228 10.479963,13.50129 -3.57072,0.72574 -6.510193,7.23768 -15.235538,3.41616 0,0 -0.49038,8.75625 14.402308,9.56067 -5.335878,3.13549 -4.19037,9.29476 -13.975155,8.25323 0,0 3.208204,8.02841 16.399318,4.56799 -4.047753,4.25641 -1.950293,9.777062 -11.06941,11.499722 0,0 5.947107,7.24717 17.37517,-0.16334 -2.1333,3.98662 0.86308,10.00257 -7.148123,13.98147 0,0 8.288353,4.83321 17.004213,-5.51081 -0.38711,6.23655 3.4274,10.92292 -2.65354,16.26829 0,0 9.15952,2.49546 14.52982,-10.3356 0.94669,5.40544 6.14277,7.6234 2.0086,16.16186 0,0 6.84602,0.52726 11.20991,-10.65806 4.36391,11.18532 11.20992,10.65806 11.20992,10.65806 -4.13416,-8.53882 1.06191,-10.75642 2.0086,-16.16186 5.3703,12.83106 14.52982,10.3356 14.52982,10.3356 -6.08129,-5.34537 -2.26713,-10.03174 -2.65319,-16.26829 8.71586,10.34402 17.00386,5.51081 17.00386,5.51081 -8.0112,-3.97925 -5.01411,-9.9952 -7.14811,-13.98147 11.42841,7.41051 17.3748,0.16334 17.3748,0.16334 -9.11841,-1.72231 -7.02095,-7.243312 -11.0687,-11.499722 13.19076,3.46077 16.39896,-4.56799 16.39896,-4.56799 -9.78478,1.04153 -8.63962,-5.11774 -13.97515,-8.25323 m -63.74006,-36.16947 c 5.94148,0 5.43002,-4.59574 4.79105,-5.66608 0,0 4.95123,0.22025 9.10331,3.27425 0,0 4.95159,-5.66608 6.16489,-10.199302 1.21402,4.533222 6.16455,10.199302 6.16455,10.199302 4.15207,-3.05364 9.10296,-3.27425 9.10296,-3.27425 -0.63862,1.07069 -1.14973,5.66608 4.79175,5.66608 5.94078,0 7.18605,1.95169 7.18605,1.95169 -1.72406,-0.34566 -4.15138,-0.69236 -10.572,1.47993 -6.42027,2.17194 -5.01446,-3.43162 -5.01446,-3.43162 -9.10402,0.6611 -11.65885,5.74336 -11.65885,5.74336 0,0 -2.55483,-5.08226 -11.65849,-5.74336 0,0 1.4051,5.6032 -5.01482,3.43162 -6.41991,-2.17229 -8.84793,-1.82559 -10.57269,-1.47993 0,-3.5e-4 1.24562,-1.95169 7.18675,-1.95169 z m 23.86006,42.61328 c -2.4916,1.51153 -3.80081,3.65994 -3.80081,3.65994 0,0 -1.3099,-2.14806 -3.8008,-3.65959 0,0 0.28734,-1.77043 -0.33582,-1.88811 -0.62246,-0.11768 -2.44383,-0.047 -2.44383,-0.047 0,0 -2.89837,-1.18064 -3.4014,-3.54157 0,0 1.58074,0.44858 3.6891,-0.21216 2.108,-0.66146 2.97004,0.0945 3.64097,0.37762 0.67094,0.28348 1.37384,0.37797 2.65143,0.37797 1.27759,0 1.9805,-0.0949 2.65144,-0.37797 0.67023,-0.28314 1.53296,-1.03908 3.64061,-0.37762 2.10872,0.66074 3.68911,0.21216 3.68911,0.21216 -0.50338,2.36093 -3.40176,3.54157 -3.40176,3.54157 0,0 -1.82066,-0.0706 -2.44277,0.047 -0.62317,0.11732 -0.33547,1.88776 -0.33547,1.88776 z m -13.57541,-18.56353 c -3.0979,-0.0632 -10.98755,-0.62949 -11.2749,-6.67354 v -0.15737 c 0,0 4.37058,-0.69131 6.03703,0 3.03432,1.25933 5.65308,7.0199 10.57235,2.70694 0,0 -3.2897,7.27211 -5.33448,10.892 0,0 3.09861,-6.70515 0,-6.76803 z m 19.54815,0 c -3.0979,0.0629 0,6.76803 0,6.76803 -2.04372,-3.61989 -5.33412,-10.892 -5.33412,-10.892 4.91892,4.31296 7.53838,-1.44727 10.57305,-2.70694 1.6661,-0.69131 6.03703,0 6.03703,0 v 0.15737 c -0.2884,6.04405 -8.17735,6.60996 -11.27596,6.67354 z m 23.44521,19.1073 c -8.91187,-1.74689 -12.45765,2.31385 -12.45765,2.31385 5.79781,0.80232 8.28098,7.6255 8.28098,7.6255 -4.24798,-2.59698 -8.95157,-2.00613 -8.95157,-2.00613 5.74969,14.471852 -13.39168,17.824092 -20.09087,25.780482 -6.69988,-7.95639 -25.8402,-11.30863 -20.09087,-25.780482 0,0 -4.70358,-0.5905 -8.95156,2.00613 0,0 2.48352,-6.82283 8.28063,-7.6255 0,0 -3.54543,-4.06074 -12.45695,-2.31385 0,0 4.64773,-5.47709 10.44484,-4.43872 0,0 -2.97074,-5.14619 -11.54679,-5.66573 0,0 1.38929,-1.84139 6.46839,-2.21901 0,0 -3.86473,-4.39165 -2.10835,-12.45027 0,0 -3.00236,-2.35987 -1.91621,-9.41138 0,0 1.13286,5.71807 3.54542,5.00533 1.67664,-0.49565 0.90981,-2.58926 -0.40712,-2.43154 0,0 0.38288,-1.5579 2.85025,-2.57344 2.46771,-1.01519 3.11441,-1.10933 3.01816,-3.0691 0,0 1.749,-0.7317 2.37181,0.94459 0.62316,1.67593 -1.07771,2.47895 -1.94045,2.6437 -0.86202,0.1658 -2.06023,0.51953 -2.58714,1.51153 0,0 1.82066,0.61368 0.38289,2.21902 -1.43707,1.60498 -6.65949,13.64566 5.60601,22.00321 0,0 -0.28734,3.87176 4.07234,7.50782 0,0 -1.86844,-0.17353 -2.19583,-0.0948 -0.32703,0.0787 -0.43909,3.60444 0,3.73055 0.4391,0.12575 7.27458,0 7.27458,0 0,0 -6.8836,2.0778 -7.15268,2.32123 -0.26908,0.24343 0.078,2.08552 0.30139,2.11678 0.22341,0.0313 5.79711,-1.6524 8.6723,-1.84103 0,0 -6.51617,2.9739 -7.61847,3.87141 0,0 1.05383,2.31386 2.49125,3.11652 0,0 9.42297,-3.4 13.19181,-6.46909 3.76884,3.06909 13.19181,6.46909 13.19181,6.46909 1.43707,-0.80266 2.49125,-3.11652 2.49125,-3.11652 -1.10265,-0.89716 -7.61812,-3.87141 -7.61812,-3.87141 2.87485,0.18863 8.44854,1.8723 8.67231,1.84103 0.22341,-0.0313 0.57046,-1.87335 0.30104,-2.11678 -0.26943,-0.24343 -7.15233,-2.32123 -7.15233,-2.32123 0,0 6.83512,0.12575 7.27422,0 0.43909,-0.12611 0.32774,-3.65187 0,-3.73055 -0.32774,-0.0787 -2.19583,0.0948 -2.19583,0.0948 4.35969,-3.63606 4.07235,-7.50782 4.07235,-7.50782 12.26549,-8.35755 7.04272,-20.39823 5.60565,-22.00321 -1.43707,-1.60569 0.38325,-2.21902 0.38325,-2.21902 -0.52692,-0.992 -1.72477,-1.34573 -2.58715,-1.51153 -0.86273,-0.16475 -2.56326,-0.96777 -1.94045,-2.6437 0.62317,-1.67664 2.37147,-0.94459 2.37147,-0.94459 -0.0956,1.95977 0.55115,2.05426 3.01851,3.0691 2.46771,1.01554 2.85095,2.57344 2.85095,2.57344 -1.31763,-0.15772 -2.08411,1.93589 -0.40747,2.43154 2.4122,0.71309 3.54542,-5.00533 3.54542,-5.00533 1.08615,7.05186 -1.91621,9.41138 -1.91621,9.41138 1.75673,8.05862 -2.10835,12.45027 -2.10835,12.45027 5.07874,0.37762 6.46838,2.21901 6.46838,2.21901 -8.57639,0.51954 -11.54678,5.66573 -11.54678,5.66573 5.79816,-1.03872 10.44554,4.43872 10.44554,4.43872 z"
     id="path33"
     style="fill:#fde192" /></svg>