<?xml version="1.0" encoding="UTF-8" standalone="no"?>
<!-- Created with Inkscape (http://www.inkscape.org/) -->

<svg
   xmlns:dc="http://purl.org/dc/elements/1.1/"
   xmlns:cc="http://creativecommons.org/ns#"
   xmlns:rdf="http://www.w3.org/1999/02/22-rdf-syntax-ns#"
   xmlns:svg="http://www.w3.org/2000/svg"
   xmlns="http://www.w3.org/2000/svg"
   xmlns:xlink="http://www.w3.org/1999/xlink"
   version="1.1"
   width="280"
   height="200"
   viewBox="0 0 279.99999 200.00001"
   id="svg5934">
  <metadata
     id="metadata6038">
    <rdf:RDF>
      <cc:Work
         rdf:about="">
        <dc:format>image/svg+xml</dc:format>
        <dc:type
           rdf:resource="http://purl.org/dc/dcmitype/StillImage" />
        <dc:title></dc:title>
      </cc:Work>
    </rdf:RDF>
  </metadata>
  <defs
     id="defs5936">
    <path
       d="M 3.54,3.5 H 535.045 V 533.657 H 3.54 z"
       id="a" />
  </defs>
  <clipPath
     id="b">
    <use
       id="use5940"
       style="overflow:visible"
       x="0"
       y="0"
       width="538.58301"
       height="537.16498"
       xlink:href="#a" />
  </clipPath>
  <path
     d="M 269.295,3.509 C 122.762,3.509 3.543,122.728 3.543,269.261 c 0,146.55 119.219,265.761 265.752,265.761 146.534,0 265.745,-119.211 265.745,-265.761 C 535.04,122.729 415.829,3.509 269.295,3.509"
     transform="matrix(0.37695665,0,0,0.37695665,38.665561,-1.16555)"
     clip-path="url(#b)"
     id="path5942"
     style="fill:#b09247" />
  <path
     d="M 39.999991,0 H 240.51417 V 199.99963 H 39.999991 z"
     id="path5944"
     style="fill:none" />
  <path
     d="m 140.17811,4.04813 c -53.092089,0 -96.286419,43.19396 -96.286419,96.28906 0,53.09246 43.19433,96.28641 96.286419,96.28641 53.09208,0 96.28302,-43.19395 96.28302,-96.28641 0,-53.0951 -43.19094,-96.28906 -96.28302,-96.28906"
     id="path5946"
     style="fill:#0c2950" />
  <path
     d="m 140.17811,34.42104 c -36.34353,0 -65.912009,29.5715 -65.912009,65.91502 0,36.34691 29.568479,65.91501 65.912009,65.91501 36.34427,0 65.91237,-29.5681 65.91237,-65.91501 0,-36.34352 -29.56848,-65.91502 -65.91237,-65.91502 m 0,134.54563 c -37.84231,0 -68.623829,-30.78831 -68.623829,-68.63024 0,-37.8423 30.781899,-68.63023 68.623829,-68.63023 37.83928,0 68.62382,30.78793 68.62382,68.63023 0,37.84193 -30.78454,68.63024 -68.62382,68.63024"
     id="path5948"
     style="fill:#ffffff" />
  <path
     d="m 140.17811,34.42104 c -36.34353,0 -65.912009,29.5715 -65.912009,65.91502 0,36.34691 29.568479,65.91501 65.912009,65.91501 36.34427,0 65.91237,-29.5681 65.91237,-65.91501 0,-36.34352 -29.56848,-65.91502 -65.91237,-65.91502"
     id="path5950"
     style="fill:#b09247" />
  <path
     d="m 196.437,95.6961 c -1.3642,-0.47949 -2.69675,-0.8998 -2.69675,-0.8998 -16.74818,-5.00372 -34.77877,-7.55911 -53.64658,-7.55911 -18.6292,0 -37.1242,2.6338 -53.694079,7.58098 0,0 -1.22285,0.38901 -2.64926,0.87793 l 3.14156,2.84677 c 2.62136,-0.7901 5.29247,-1.51423 8.0043,-2.18521 4.95359,29.05732 22.084379,53.3714 45.338459,66.23241 23.23862,-12.85497 40.36565,-37.13701 45.33545,-66.16946 2.61532,0.65213 5.19483,1.35139 7.72534,2.11623 L 196.437,95.6961"
     id="path5952"
     style="fill:#0c2950" />
  <path
     d="m 140.19884,83.90527 c 16.14656,0 31.67868,1.87498 46.33551,5.53674 0.34831,-3.42993 0.53,-6.9164 0.53,-10.45263 0,-7.76908 -0.87831,-15.31236 -2.49281,-22.52354 -4.60905,1.60546 -9.51213,2.47661 -14.59765,2.47661 -11.21823,0 -21.53289,-4.22644 -29.73773,-11.29626 -8.20484,7.06982 -18.51687,11.29626 -29.74075,11.29626 -5.08213,0 -9.98596,-0.87153 -14.598029,-2.47661 -1.6145,7.21081 -2.48602,14.75446 -2.48602,22.52354 0,3.53661 0.18508,7.02308 0.53301,10.45263 14.591619,-3.62142 30.374419,-5.53674 46.254469,-5.53674"
     id="path5954"
     style="fill:#0c2950" />
  <path
     d="m 93.943241,89.44088 c -0.34793,-3.42993 -0.52962,-6.9164 -0.52962,-10.44962 0,-7.77247 0.86851,-15.31235 2.48301,-22.52655 l 0.16322,0.0535 -0.16322,-0.27895 -1.36044,1.86518 c -1.67104,7.55572 -3.25426,16.93968 -3.25426,25.11625 0,2.29189 0.0754,4.56494 0.21298,6.81914 0.80857,-0.21335 1.63297,-0.39844 2.44833,-0.59898"
     id="path5956"
     style="fill:#5b8fd2" />
  <path
     d="m 184.5738,56.4681 0.007,-0.003 c 1.61451,7.21419 2.48566,14.75446 2.48566,22.52655 0,3.53359 -0.1817,7.01667 -0.52624,10.44962 0.81197,0.20091 1.63977,0.38562 2.44231,0.5986 0.14136,-2.2542 0.21637,-4.52725 0.21637,-6.82216 0,-8.17355 -1.58284,-17.55751 -3.25427,-25.11323 l -1.36345,-1.86556 -0.15681,0.27292 0.14739,-0.0471 0.002,0.003"
     id="path5958"
     style="fill:#5b8fd2" />
  <path
     d="m 140.23503,34.42104 c -7.74722,0 -15.17138,1.37325 -22.08137,3.84043 v 20.01527 c 8.2644,-1.44223 15.82351,-5.18881 22.13489,-10.63168 6.26691,5.39877 13.76043,9.12989 21.9468,10.597 V 38.21134 c -6.88549,-2.4457 -14.28741,-3.7903 -22.00032,-3.7903"
     id="path5960"
     style="fill:#5b8fd2" />
  <path
     d="m 140.23503,166.25032 c 36.3439,0 65.912,-29.5681 65.912,-65.91502 0,-10.44057 -2.46115,-20.30703 -6.80671,-29.08597 h -0.78331 c 3.29158,7.65636 5.12585,16.08361 5.12585,24.94397 0,27.2453 -17.21862,50.46508 -41.36948,59.37859 v -1.85613 c 13.71406,-14.83589 23.1195,-34.56278 25.92255,-56.65093 l -2.71823,-0.70868 c -4.95359,29.06034 -22.02859,53.37103 -45.2823,66.23468 C 116.97831,149.72718 99.907071,125.41649 94.953491,96.35615 l -2.72125,0.70868 c 2.80305,22.08777 12.208489,41.81467 25.922169,56.65093 v 1.85613 C 94.003931,146.65838 76.784931,123.4386 76.784931,96.1933 c 0,-8.85999 1.83427,-17.28761 5.12322,-24.94397 h -0.78068 c -4.34254,8.77894 -6.80332,18.6454 -6.80332,29.0856 -0.001,36.34653 29.564339,65.91539 65.910879,65.91539"
     id="path5962"
     style="fill:#5b8fd2" />
  <path
     d="m 60.280261,83.74506 c 0.22881,-0.42633 0.37017,-0.7901 0.43274,-1.08789 0.12214,-0.602 0.0188,-1.05322 -0.32003,-1.36082 -0.33549,-0.31023 -1.00007,-0.56129 -2.00014,-0.76823 -1.33857,-0.27594 -2.29792,-0.30722 -2.88145,-0.0878 -0.42634,0.14438 -0.7181,0.58655 -0.86851,1.33858 -0.13797,0.64572 -0.12213,1.12559 0.0441,1.43281 0.0848,0.1881 0.21638,0.32305 0.38902,0.4139 0.17227,0.0878 0.47007,0.17868 0.88095,0.26349 l 6.94467,1.42942 c 0.33549,0.066 0.61143,0.12213 0.81498,0.1538 0.20695,0.0377 0.38261,0.0562 0.51417,0.0596 0.144,0.006 0.25407,0 0.35133,-0.0188 0.0939,-0.0189 0.19714,-0.0535 0.30081,-0.10969 0.23823,-0.11912 0.42332,-0.29139 0.55186,-0.51719 0.13495,-0.2224 0.26349,-0.61142 0.38563,-1.15047 l 1.47993,0.3042 -1.66803,8.09213 -1.47654,-0.3042 c 0.072,-0.52058 0.0878,-0.91224 0.0249,-1.18214 -0.0596,-0.2601 -0.20997,-0.48627 -0.4482,-0.67437 -0.0784,-0.066 -0.15041,-0.11611 -0.21939,-0.16323 -0.066,-0.0437 -0.15983,-0.0814 -0.28536,-0.11271 -0.12553,-0.0343 -0.27593,-0.0754 -0.46102,-0.11911 -0.17566,-0.0437 -0.41993,-0.0973 -0.71169,-0.15983 l -6.7724,-1.39173 c -0.32268,-0.066 -0.58617,-0.1161 -0.80556,-0.1538 -0.21298,-0.0407 -0.38864,-0.0565 -0.52661,-0.063 -0.13495,-0.003 -0.25407,0.006 -0.35132,0.0313 -0.0942,0.0249 -0.19753,0.0565 -0.29478,0.0973 -0.24427,0.11912 -0.41993,0.27895 -0.53302,0.47987 -0.12213,0.19451 -0.24125,0.53 -0.36678,0.99064 l -1.48295,-0.30081 1.00007,-4.83145 c 0.12553,-0.62085 0.23221,-1.1697 0.31702,-1.6556 0.0848,-0.49192 0.16586,-1.00609 0.24766,-1.53609 0.0471,-0.31024 0.0973,-0.61143 0.14739,-0.89038 0.0501,-0.27894 0.0939,-0.52057 0.13797,-0.70867 0.31363,-1.51424 0.9405,-2.52109 1.90928,-3.02244 0.95634,-0.49872 2.37031,-0.5579 4.23586,-0.17265 1.77773,0.36678 3.01302,1.00346 3.68362,1.90929 0.68984,0.9062 0.8655,2.13847 0.54245,3.69643 -0.24126,1.17875 -0.69926,2.10078 -1.37627,2.77478 l -1.48634,-0.9243"
     id="path5964"
     style="fill:#b09247" />
  <path
     d="m 76.423051,57.83118 c -0.26312,0.43915 -0.47949,0.73996 -0.65214,0.9062 -0.16925,0.16586 -0.38261,0.27254 -0.64572,0.31966 -0.11611,0.0283 -0.21939,0.0377 -0.32268,0.0283 -0.0942,-0.009 -0.20996,-0.0343 -0.3419,-0.0754 -0.12854,-0.0437 -0.28535,-0.10969 -0.47986,-0.20054 -0.18811,-0.0909 -0.43577,-0.21336 -0.74299,-0.37319 l -6.1327,-3.18867 c -0.2635,-0.14098 -0.48288,-0.25709 -0.64271,-0.35095 l -0.41089,-0.23522 c -0.1063,-0.063 -0.19111,-0.12854 -0.24766,-0.1881 l -0.16624,-0.21939 c -0.18508,-0.24766 -0.26952,-0.51115 -0.24766,-0.78709 0.0249,-0.27254 0.15682,-0.66457 0.38563,-1.17271 l -1.33857,-0.69284 -2.8562,5.49301 5.04142,2.54596 -2.05668,3.95692 -5.03501,-2.56783 -2.79023,5.37352 1.33555,0.69925 c 0.24427,-0.41691 0.46102,-0.70529 0.63329,-0.86851 0.16624,-0.16586 0.38864,-0.27593 0.64271,-0.32305 0.1097,-0.0128 0.21638,-0.0158 0.31363,-0.0158 0.10329,0 0.21939,0.0219 0.34793,0.066 0.13194,0.0407 0.29478,0.10969 0.49231,0.20657 0.19111,0.0908 0.44179,0.21336 0.73695,0.36678 l 6.12931,3.18867 c 0.26953,0.13797 0.47949,0.25407 0.64271,0.34492 0.16323,0.0942 0.30081,0.17227 0.40749,0.24163 0.11309,0.063 0.1915,0.12854 0.24465,0.19111 0.0565,0.0596 0.10969,0.12855 0.16624,0.21299 0.19451,0.24766 0.27894,0.50813 0.25708,0.77766 -0.0219,0.26651 -0.144,0.65213 -0.36678,1.14104 l 1.33857,0.69587 2.82793,-5.43006 -6.08257,-3.14156 2.05668,-3.95352 6.09162,3.11931 2.80305,-5.39575 -1.33556,-0.69511"
     id="path5966"
     style="fill:#b09247" />
  <path
     d="m 74.085921,45.86695 c -0.25369,-0.21336 -0.46404,-0.38902 -0.63329,-0.52698 -0.16586,-0.13495 -0.31024,-0.24163 -0.42935,-0.31363 -0.11007,-0.069 -0.22278,-0.11912 -0.31665,-0.144 -0.10027,-0.0253 -0.20054,-0.0407 -0.31023,-0.0565 -0.26651,-0.0128 -0.50475,0.0407 -0.70567,0.15983 -0.20393,0.12552 -0.47345,0.35396 -0.80894,0.69586 l -1.14407,-0.98461 5.32678,-6.14515 1.13803,0.99064 c -0.32946,0.42634 -0.53905,0.76824 -0.61746,1.02532 -0.0878,0.2537 -0.0596,0.52963 0.066,0.818 0.0343,0.0908 0.072,0.17265 0.1097,0.24465 0.0407,0.075 0.10027,0.15379 0.19714,0.24162 0.0878,0.0908 0.20394,0.19753 0.33851,0.32607 0.13797,0.13194 0.32004,0.29478 0.54546,0.48929 l 5.22311,4.52725 c 0.2601,0.22881 0.47346,0.40448 0.6397,0.53603 0.16322,0.13797 0.30081,0.23522 0.41691,0.31024 0.11912,0.066 0.22278,0.11912 0.31363,0.1538 0.0942,0.0249 0.19451,0.0437 0.31023,0.0471 0.27292,0.0128 0.50814,-0.0407 0.7117,-0.16323 0.20393,-0.11911 0.47647,-0.35396 0.81799,-0.69586 l 1.132,0.99064 -5.32036,6.13573 -1.14143,-0.98763 c 0.32946,-0.42634 0.53604,-0.76824 0.62085,-1.02193 0.0784,-0.25708 0.0626,-0.53 -0.0694,-0.81799 -0.0313,-0.0942 -0.075,-0.17567 -0.10969,-0.24766 -0.0377,-0.072 -0.10027,-0.1538 -0.19451,-0.24163 l -0.33851,-0.32909 c -0.14098,-0.12552 -0.32268,-0.28837 -0.54546,-0.48288 l -5.22273,-4.53328"
     id="path5968"
     style="fill:#b09247" />
  <path
     d="m 100.31946,36.86937 -10.226829,7.75362 -0.90922,-1.20098 c 0.41051,-0.35396 0.68305,-0.64573 0.81498,-0.87793 0.13797,-0.23183 0.16925,-0.50475 0.10329,-0.81197 -0.0158,-0.10027 -0.0377,-0.1881 -0.0596,-0.2665 -0.0124,-0.0754 -0.0656,-0.16926 -0.13797,-0.27594 -0.072,-0.10027 -0.15983,-0.23183 -0.26651,-0.38864 -0.10969,-0.1538 -0.25067,-0.35132 -0.43274,-0.58918 l -4.17593,-5.50545 c -0.20054,-0.26651 -0.36979,-0.47987 -0.50474,-0.65214 -0.14136,-0.16925 -0.2537,-0.2978 -0.36075,-0.39203 -0.0939,-0.0942 -0.19112,-0.16624 -0.28197,-0.21035 -0.0878,-0.0471 -0.18508,-0.0848 -0.28874,-0.11911 -0.25709,-0.0656 -0.50475,-0.063 -0.72753,0.0158 -0.2224,0.072 -0.53302,0.24766 -0.93448,0.51077 l -0.91223,-1.20362 6.48667,-4.92531 0.91563,1.204 c -0.41089,0.34793 -0.68644,0.64271 -0.82478,0.88396 -0.14099,0.23522 -0.17868,0.51417 -0.1097,0.81837 0.0158,0.10027 0.0343,0.1881 0.0596,0.26651 0.0158,0.075 0.066,0.16925 0.13457,0.27593 0.072,0.10668 0.15983,0.23522 0.26953,0.38902 0.11007,0.15342 0.25105,0.35095 0.42935,0.58918 l 4.28901,5.65285 c 0.1538,0.20393 0.28234,0.36074 0.37319,0.47345 0.10027,0.11912 0.18471,0.21298 0.25407,0.28234 0.0656,0.0656 0.13457,0.11271 0.19112,0.13496 0.0535,0.0279 0.11912,0.0377 0.19752,0.0377 0.0908,0 0.17566,-0.009 0.25709,-0.0279 0.0814,-0.0253 0.17264,-0.0596 0.26952,-0.10668 0.10329,-0.0501 0.23221,-0.12854 0.37319,-0.2258 0.14098,-0.0973 0.31966,-0.22881 0.53301,-0.39203 l 0.23183,-0.17567 c 0.25407,-0.19451 0.45801,-0.35396 0.61482,-0.48288 0.15681,-0.12213 0.28196,-0.24464 0.37922,-0.35396 0.0972,-0.10969 0.15983,-0.21637 0.21298,-0.31664 0.0471,-0.10329 0.0754,-0.21638 0.0908,-0.3419 0.066,-0.31363 0.0407,-0.62726 -0.075,-0.95936 -0.1161,-0.32607 -0.3419,-0.72715 -0.66759,-1.21644 l 1.48898,-1.12861 2.926309,3.85853"
     id="path5970"
     style="fill:#b09247" />
  <path
     d="m 108.75952,23.51191 c -0.0562,-0.0596 -0.10969,-0.11911 -0.1504,-0.18169 -0.0437,-0.063 -0.0908,-0.12553 -0.14739,-0.18508 l -0.28536,-0.3419 c -0.12213,-0.16587 -0.23522,-0.30421 -0.34491,-0.41993 l -0.30722,-0.38262 -0.17265,-0.22579 c -0.0501,-0.072 -0.11271,-0.14739 -0.17566,-0.21638 l 0.10668,1.92512 0.12854,2.624 2.58366,-1.05963 -1.23529,-1.5361 z m -1.09393,-6.99782 c 0.1097,0.1538 0.20356,0.28536 0.28536,0.40448 0.0814,0.12552 0.16586,0.23823 0.25068,0.34793 0.0878,0.11271 0.17867,0.2224 0.27593,0.33549 0.0942,0.11912 0.21336,0.25369 0.35773,0.40108 l 6.48366,7.31748 c 0.35433,0.39204 0.66457,0.70868 0.92165,0.94993 0.2601,0.24163 0.50777,0.41993 0.73959,0.53604 0.23824,0.11271 0.47346,0.17566 0.70868,0.18169 0.24465,0.009 0.51417,-0.0249 0.82478,-0.10668 l 0.5677,1.39813 -7.12033,2.92217 -0.57373,-1.39813 c 0.52057,-0.24163 0.84664,-0.46404 0.98762,-0.67099 0.14739,-0.20393 0.15682,-0.4482 0.0471,-0.72111 -0.075,-0.1817 -0.3419,-0.56129 -0.80895,-1.132 l -0.25406,-0.3355 -3.55847,1.4641 0.0222,0.42634 c 0,0.27292 0.0249,0.52359 0.0626,0.74298 0.0407,0.21638 0.0942,0.40448 0.1538,0.55187 0.13457,0.32305 0.31363,0.49833 0.55149,0.53603 0.2322,0.0313 0.6363,-0.0377 1.2104,-0.21034 l 0.57976,1.39512 -5.73125,2.35145 -0.57372,-1.39512 c 0.24766,-0.18508 0.45121,-0.36074 0.5986,-0.52698 0.15041,-0.16285 0.26651,-0.36376 0.32946,-0.58617 0.072,-0.2224 0.11309,-0.49834 0.12855,-0.81837 0.0158,-0.32305 0.0158,-0.73997 0,-1.25414 l -0.45801,-9.71455 c -0.0158,-0.56128 -0.0501,-1.00006 -0.0942,-1.32613 -0.0407,-0.32305 -0.0848,-0.57373 -0.12213,-0.74939 l 3.20752,-1.31671"
     id="path5972"
     style="fill:#b09247" />
  <path
     d="m 128.89391,22.40743 c 0.0313,0.25407 0.0565,0.45763 0.0848,0.60502 0.0283,0.14437 0.0501,0.2665 0.0878,0.36037 0.0343,0.0973 0.069,0.16963 0.11611,0.22579 0.0437,0.0565 0.10328,0.11309 0.19111,0.1817 0.16926,0.14739 0.3698,0.23183 0.59597,0.25708 0.23183,0.0283 0.56091,0.0158 0.99366,-0.0343 0.67098,-0.0784 1.21946,-0.23183 1.64617,-0.46705 0.42935,-0.22881 0.74901,-0.56732 0.9684,-1.01552 0.21977,-0.4482 0.35133,-1.02532 0.38864,-1.72759 0.0441,-0.69285 0,-1.55193 -0.12213,-2.56783 -0.1063,-0.96577 -0.2601,-1.77471 -0.45763,-2.41441 -0.1945,-0.64271 -0.4482,-1.15047 -0.76484,-1.52064 -0.32004,-0.37319 -0.70868,-0.61784 -1.17271,-0.73658 -0.47044,-0.1161 -1.03475,-0.14136 -1.6899,-0.066 -0.41691,0.0471 -0.746,0.10328 -0.98763,0.16322 -0.24426,0.0562 -0.42332,0.1504 -0.54545,0.27895 -0.11912,0.12552 -0.1881,0.29779 -0.20695,0.49833 -0.009,0.20394 0,0.48288 0.0437,0.82139 l 0.83081,7.15803 z m -4.93436,-6.38301 c -0.0377,-0.32946 -0.072,-0.5986 -0.10329,-0.81535 -0.0347,-0.21638 -0.0694,-0.38902 -0.10668,-0.5236 -0.0377,-0.13155 -0.0878,-0.23522 -0.144,-0.31966 -0.0501,-0.0848 -0.1161,-0.16925 -0.18508,-0.24766 -0.18471,-0.19451 -0.40108,-0.31061 -0.62726,-0.36074 -0.23522,-0.0501 -0.58918,-0.0596 -1.07206,-0.0343 l -0.17906,-1.49538 4.33915,-0.50475 c 0.89678,-0.10668 1.66163,-0.20054 2.29491,-0.28234 0.63027,-0.0784 1.15047,-0.1504 1.5459,-0.21298 0.35736,-0.0596 0.69888,-0.10969 1.03437,-0.15681 0.33549,-0.0437 0.58918,-0.0784 0.75241,-0.0973 1.23528,-0.14437 2.26061,-0.0784 3.08539,0.19451 0.81799,0.27593 1.48596,0.77465 2.00314,1.5018 0.42634,0.61444 0.78709,1.37664 1.0879,2.28548 0.30119,0.91224 0.51417,1.90288 0.64271,2.97532 0.28536,2.46417 -0.0219,4.37685 -0.91864,5.74972 -0.89678,1.37627 -2.38614,2.18522 -4.45224,2.42346 -0.16322,0.0222 -0.36376,0.0437 -0.58315,0.069 -0.2224,0.0279 -0.48891,0.0501 -0.78671,0.069 -0.55789,0.0343 -1.06905,0.075 -1.54891,0.12553 -0.47647,0.0437 -0.95634,0.0973 -1.42942,0.15681 l -5.32376,0.61784 -0.17868,-1.49878 c 0.53302,-0.0942 0.91865,-0.20394 1.15047,-0.33851 0.23221,-0.13193 0.40146,-0.34793 0.50173,-0.64912 0.0347,-0.0942 0.066,-0.17868 0.0878,-0.25708 0.0188,-0.0784 0.0249,-0.17868 0.0188,-0.31024 l -0.0313,-0.47044 c 0,0 -0.0407,-0.43275 -0.0754,-0.72753 l -0.79914,-6.86589"
     id="path5974"
     style="fill:#b09247" />
  <path
     d="m 158.86121,17.12627 -1.82824,-0.27593 c 0.0317,-0.46404 0.009,-0.85909 -0.0501,-1.17875 -0.0565,-0.31966 -0.16623,-0.58617 -0.34453,-0.7901 -0.17906,-0.21034 -0.4139,-0.36979 -0.7215,-0.48288 -0.31363,-0.1161 -0.71132,-0.21298 -1.20098,-0.28536 l -0.29139,-0.0471 c -0.36678,-0.0535 -0.67362,-0.0814 -0.89678,-0.0848 -0.22881,-0.009 -0.4041,0.0313 -0.52623,0.10027 -0.12591,0.072 -0.21638,0.19752 -0.27593,0.36979 -0.0532,0.17227 -0.10329,0.40749 -0.14739,0.70529 l -0.37621,2.5143 3.18189,0.47647 c 0.32306,0.0535 0.58956,0.0814 0.79651,0.0878 0.20017,0.009 0.42333,0 0.64875,-0.0249 l -0.39166,2.62399 c -0.20394,-0.0596 -0.4041,-0.11271 -0.60163,-0.15681 -0.20091,-0.0437 -0.51454,-0.0973 -0.94766,-0.16323 l -3.04732,-0.46064 -0.4041,2.67451 c -0.0501,0.35396 -0.0784,0.63027 -0.0784,0.83081 0,0.19753 0.0535,0.35133 0.15644,0.46404 0.10366,0.1161 0.28272,0.20092 0.53302,0.26349 0.25105,0.063 0.59597,0.12553 1.03814,0.19112 l 0.55789,0.0814 c 0.47647,0.0878 0.86889,0.11912 1.19495,0.10366 0.31966,-0.0249 0.58881,-0.10969 0.79576,-0.26952 0.21336,-0.15682 0.39844,-0.39505 0.54546,-0.71471 0.14739,-0.31966 0.27894,-0.746 0.40409,-1.26997 l 1.85011,0.27895 -0.7215,4.78773 -12.91076,-1.94397 0.22617,-1.49237 c 0.53603,0.0501 0.93108,0.0407 1.19721,-0.0249 0.26048,-0.069 0.47723,-0.23183 0.65214,-0.49532 0.0596,-0.0814 0.10668,-0.15681 0.15078,-0.22881 0.0403,-0.0656 0.072,-0.16586 0.0973,-0.28838 0.0279,-0.12552 0.0596,-0.27894 0.0935,-0.46403 0.0347,-0.18169 0.0754,-0.42634 0.12591,-0.72112 l 1.02193,-6.8346 c 0.0501,-0.32946 0.0875,-0.602 0.1161,-0.81837 0.0219,-0.21298 0.0313,-0.39204 0.0283,-0.52661 0,-0.13797 -0.0158,-0.25407 -0.0501,-0.34793 -0.0249,-0.10027 -0.0663,-0.19451 -0.11346,-0.29478 -0.12816,-0.22881 -0.3042,-0.39844 -0.51681,-0.50814 -0.21335,-0.10969 -0.55224,-0.20996 -1.0223,-0.31363 l 0.22278,-1.48897 9.70965,1.45467 c 0.38562,0.0596 0.70528,0.10366 0.95634,0.13194 0.25407,0.0343 0.48288,0.0501 0.68304,0.063 0.21072,0.003 0.40108,0.003 0.57712,-0.009 0.17529,-0.006 0.38864,-0.0313 0.63631,-0.072 l -0.73243,4.87481"
     id="path5976"
     style="fill:#b09247" />
  <path
     d="m 174.7929,33.85108 -11.85717,-4.90986 0.57637,-1.39512 c 0.51153,0.17868 0.90319,0.26953 1.16706,0.2635 0.27254,-0.003 0.52924,-0.1097 0.75843,-0.32004 0.075,-0.063 0.14438,-0.12854 0.20092,-0.18169 0.0532,-0.063 0.11271,-0.14739 0.16926,-0.2635 l 0.20016,-0.42633 c 0.0818,-0.16926 0.17604,-0.39505 0.29139,-0.67438 l 2.64623,-6.38338 c 0.13194,-0.30421 0.22882,-0.5579 0.30685,-0.76485 0.072,-0.20393 0.12891,-0.36979 0.15681,-0.50776 0.0286,-0.13193 0.0441,-0.24766 0.0377,-0.34831 -0.009,-0.10027 -0.0185,-0.20393 -0.0403,-0.30722 -0.072,-0.25708 -0.20016,-0.46403 -0.37922,-0.62084 -0.17604,-0.1538 -0.48589,-0.33851 -0.916,-0.55187 l 0.57712,-1.3921 7.53122,3.11969 -0.58316,1.39512 c -0.50813,-0.17868 -0.90055,-0.26952 -1.17572,-0.27292 -0.27895,0 -0.53302,0.1097 -0.76485,0.32004 -0.0758,0.0656 -0.14136,0.12553 -0.20092,0.18509 -0.0565,0.0565 -0.10969,0.14437 -0.16624,0.2601 l -0.20317,0.42633 c -0.0788,0.17265 -0.17303,0.39505 -0.29139,0.67099 l -2.71221,6.55263 c -0.10027,0.23824 -0.17226,0.42634 -0.22542,0.5677 -0.0509,0.14098 -0.0882,0.2601 -0.11044,0.35396 -0.0249,0.10027 -0.0309,0.17265 -0.0249,0.23522 0.009,0.0596 0.0317,0.11912 0.0694,0.18811 0.0471,0.0814 0.10027,0.15379 0.1538,0.20695 0.0596,0.0596 0.13758,0.1161 0.23182,0.18169 0.0942,0.066 0.21638,0.13495 0.37621,0.20695 0.15681,0.072 0.36376,0.15983 0.61104,0.26349 l 0.27028,0.11271 c 0.288,0.12553 0.52925,0.21637 0.72376,0.29176 0.18471,0.0656 0.35773,0.11611 0.49833,0.14099 0.14136,0.0283 0.26651,0.0343 0.38299,0.0249 0.1097,-0.0124 0.21939,-0.0377 0.33851,-0.0908 0.3042,-0.10027 0.56393,-0.28536 0.7901,-0.54847 0.22241,-0.26689 0.46102,-0.66156 0.71773,-1.19458 l 1.7242,0.71471 -1.85652,4.47146"
     id="path5978"
     style="fill:#b09247" />
  <path
     d="m 187.41869,34.12098 c 0.29139,0.38864 2.16675,1.5361 2.40838,1.71478 0.48891,0.36678 0.94691,0.46705 1.36646,0.29478 0.42031,-0.17566 0.93787,-0.67098 1.54892,-1.48898 0.81498,-1.09431 1.2481,-1.94698 1.29786,-2.56783 0.0565,-0.4482 -0.22316,-0.8998 -0.83722,-1.36081 -0.53,-0.39468 -0.97179,-0.58278 -1.32312,-0.56129 -0.20393,-0.006 -0.38299,0.0535 -0.5398,0.17264 -0.15003,0.11611 -0.35396,0.34492 -0.60464,0.68041 l -4.24868,5.68413 c -0.20318,0.27593 -0.36677,0.50173 -0.48589,0.674 -0.11912,0.16963 -0.20997,0.32004 -0.27254,0.44217 -0.0663,0.12213 -0.10668,0.2258 -0.13835,0.32305 -0.0215,0.0942 -0.0279,0.20092 -0.0249,0.31664 0.0124,0.26953 0.0848,0.51116 0.2356,0.72414 0.15305,0.21599 0.4418,0.4923 0.87756,0.83722 l -0.8998,1.20701 -6.62463,-4.94416 0.9062,-1.21003 c 0.43878,0.29478 0.7901,0.46705 1.05661,0.52359 0.26349,0.0596 0.53302,0.0189 0.80556,-0.1161 0.0874,-0.0437 0.16623,-0.0844 0.23861,-0.12854 0.0656,-0.0407 0.1406,-0.11309 0.22542,-0.21034 0.0788,-0.10027 0.18169,-0.22241 0.30119,-0.36377 0.11912,-0.1504 0.26651,-0.3419 0.45121,-0.58654 l 4.1356,-5.53373 c 0.19714,-0.26349 0.35773,-0.48928 0.48288,-0.66457 0.12213,-0.17868 0.21637,-0.32908 0.27895,-0.45159 0.0626,-0.12214 0.10027,-0.23183 0.12515,-0.32909 l 0.0317,-0.31362 c -0.009,-0.26651 -0.078,-0.49533 -0.20092,-0.68343 -0.13457,-0.19111 -0.38223,-0.44556 -0.74863,-0.7558 l 0.90281,-1.20701 3.9505,2.95345 c 0.50437,0.37319 0.95936,0.70529 1.37024,0.99065 0.40108,0.28535 0.83044,0.57712 1.28165,0.87454 l 0.74374,0.51115 0.57938,0.42332 c 1.2383,0.92505 1.88101,1.93153 1.92512,3.01302 0.0471,1.08488 -0.50512,2.38613 -1.6424,3.9162 -1.09129,1.45467 -2.18899,2.29491 -3.29837,2.52372 -1.11014,0.22882 -2.30132,-0.13155 -3.57732,-1.08148 -0.95257,-0.71811 -2.34806,-1.99411 -2.6681,-2.8939 l 0.60803,-1.348"
     id="path5980"
     style="fill:#b09247" />
  <path
     d="m 212.66574,47.49352 -4.49936,3.42993 -2.71446,-3.53623 4.49257,-3.4239 -3.73715,-4.85972 -1.19797,0.92165 c 0.27028,0.39845 0.44255,0.7117 0.52058,0.93109 0.0788,0.22881 0.0848,0.47044 0.0162,0.72413 -0.0317,0.10668 -0.0694,0.20092 -0.11346,0.29478 -0.0433,0.0909 -0.11271,0.18509 -0.20394,0.28536 -0.0935,0.10027 -0.22542,0.21976 -0.39166,0.35434 -0.16623,0.14098 -0.38864,0.30722 -0.64572,0.51417 l -5.48058,4.21399 c -0.23484,0.1817 -0.43576,0.32909 -0.5888,0.43577 -0.1538,0.10969 -0.28272,0.20054 -0.38563,0.26952 -0.10668,0.072 -0.20092,0.11912 -0.27593,0.14098 -0.0818,0.0249 -0.16624,0.0437 -0.26651,0.0596 -0.30684,0.072 -0.57637,0.0377 -0.81196,-0.0942 -0.23485,-0.13495 -0.52925,-0.40447 -0.88057,-0.81536 l -1.19496,0.92166 3.70926,4.82203 5.43345,-4.16047 2.72125,3.53359 -5.43647,4.16047 3.74657,4.87217 1.19797,-0.92807 c -0.29139,-0.41993 -0.47044,-0.74298 -0.55526,-0.96878 -0.0788,-0.2224 -0.0818,-0.46403 -0.0124,-0.72413 0.0249,-0.11309 0.0626,-0.21298 0.11271,-0.29478 0.0441,-0.0848 0.11271,-0.17868 0.20997,-0.28234 0.0912,-0.0973 0.22316,-0.21298 0.38299,-0.35132 0.16284,-0.13156 0.3762,-0.30082 0.64874,-0.51719 l 5.48359,-4.21362 c 0.23861,-0.18169 0.43274,-0.32607 0.58692,-0.43275 0.15304,-0.11271 0.28196,-0.20393 0.38864,-0.27593 0.10291,-0.069 0.19451,-0.1161 0.27254,-0.14098 0.0788,-0.0222 0.1636,-0.0407 0.26349,-0.0596 0.31363,-0.069 0.58617,-0.0313 0.82177,0.10668 0.24163,0.14098 0.53905,0.41691 0.90545,0.83722 l 1.19495,-0.91525 -3.71491,-4.83447"
     id="path5982"
     style="fill:#b09247" />
  <path
     d="m 217.50888,63.50211 c 0.3042,-0.13495 0.55224,-0.25105 0.74939,-0.34793 0.19451,-0.0942 0.34831,-0.17867 0.46366,-0.25708 0.11647,-0.0754 0.20393,-0.1538 0.26349,-0.22881 0.0663,-0.0784 0.1259,-0.16323 0.18471,-0.25106 0.12213,-0.23823 0.17604,-0.47647 0.15379,-0.71169 -0.0249,-0.23824 -0.12213,-0.58014 -0.28874,-1.02834 l 1.37664,-0.62085 3.31383,7.42416 -1.37326,0.61444 c -0.25105,-0.47986 -0.47345,-0.81196 -0.66759,-0.99403 -0.20091,-0.1881 -0.45197,-0.28234 -0.76861,-0.28837 l -0.27518,-0.003 c -0.0788,0.006 -0.17905,0.0283 -0.29817,0.0754 -0.11912,0.0437 -0.26953,0.10329 -0.43878,0.16926 -0.17905,0.072 -0.40108,0.16623 -0.67739,0.29176 l -6.30799,2.82152 c -0.31363,0.14136 -0.5677,0.25709 -0.75542,0.34793 -0.18848,0.0942 -0.34153,0.17566 -0.45499,0.25407 -0.11271,0.0754 -0.20695,0.15041 -0.26952,0.21977 -0.0694,0.072 -0.12817,0.15983 -0.17906,0.2601 -0.12816,0.23823 -0.17528,0.47986 -0.15003,0.71169 0.0222,0.23522 0.11912,0.58014 0.28197,1.03136 l -1.37326,0.61443 -3.31684,-7.42114 1.37589,-0.61444 c 0.24729,0.48288 0.47045,0.81536 0.66759,0.99705 0.19715,0.18169 0.45122,0.27895 0.77163,0.28536 0.0935,0.006 0.19074,0.006 0.26953,0 0.0848,-0.003 0.17905,-0.0253 0.30119,-0.069 l 0.43877,-0.17566 c 0.17227,-0.066 0.39845,-0.16322 0.67438,-0.28837 l 6.30837,-2.81851"
     id="path5984"
     style="fill:#b09247" />
  <path
     d="m 221.48954,83.70812 c 0.0656,-0.0437 0.13457,-0.0814 0.20695,-0.10668 0.072,-0.0313 0.14136,-0.066 0.20695,-0.11271 l 0.39166,-0.21976 c 0.18169,-0.0814 0.34529,-0.16926 0.47722,-0.2601 l 0.43577,-0.2258 c 0.081,-0.0441 0.16284,-0.0909 0.2503,-0.12854 0.0818,-0.0437 0.16623,-0.0848 0.25105,-0.13495 l -1.9157,-0.25106 -2.60854,-0.36376 0.5677,2.73369 1.73664,-0.93033 z m 7.07623,0.23221 c -0.16284,0.0784 -0.31664,0.1504 -0.44556,0.21034 -0.13759,0.0565 -0.26953,0.1161 -0.38864,0.17868 -0.12817,0.0656 -0.25407,0.13495 -0.38488,0.20695 -0.13193,0.072 -0.28573,0.16586 -0.46101,0.27593 l -8.39671,5.00674 c -0.45122,0.27291 -0.818,0.51417 -1.10675,0.73054 -0.28875,0.20996 -0.50814,0.41993 -0.66495,0.62725 -0.15983,0.20997 -0.25972,0.42973 -0.31287,0.65855 -0.0539,0.23522 -0.0694,0.51115 -0.0509,0.82478 l -1.47617,0.30722 -1.53949,-7.54667 1.47692,-0.30082 c 0.14362,0.55488 0.3042,0.91865 0.47647,1.09733 0.17529,0.18169 0.40787,0.23823 0.70227,0.17566 0.1915,-0.0343 0.61407,-0.23183 1.26055,-0.57373 l 0.37243,-0.19451 -0.76786,-3.77484 -0.42031,-0.0501 c -0.27518,-0.0535 -0.51982,-0.0754 -0.73921,-0.0784 -0.22617,0 -0.41465,0.0158 -0.58014,0.0501 -0.3385,0.069 -0.54545,0.21298 -0.62047,0.43576 -0.0788,0.2224 -0.0882,0.6363 -0.0287,1.23529 l -1.47691,0.3042 -1.2383,-6.06674 1.47691,-0.30119 c 0.13834,0.27594 0.26953,0.50475 0.40787,0.68343 0.13457,0.18169 0.3042,0.32305 0.51379,0.43576 0.20695,0.11308 0.46743,0.20393 0.77465,0.27894 0.31664,0.072 0.73054,0.15041 1.23528,0.22882 l 9.63162,1.37024 c 0.55526,0.0814 0.99404,0.13495 1.31634,0.1504 0.32606,0.0189 0.58315,0.0249 0.76182,0.0189 l 0.69285,3.39525"
     id="path5986"
     style="fill:#b09247" />
  <path
     d="m 64.983541,108.99852 -4.5148,2.08457 0.59559,4.94454 -3.3798,-3.64969 -4.51481,2.09135 2.42383,-4.34254 -3.38318,-3.6463 4.87819,0.96237 2.42384,-4.34518 0.59257,4.93813 4.87857,0.96275 z"
     id="path5988"
     style="fill:#b09247" />
  <path
     d="m 69.226191,126.83536 -3.88152,3.10725 1.76793,4.65579 -4.16349,-2.72766 -3.87851,3.11668 1.31068,-4.8028 -4.16349,-2.72163 4.96942,-0.24465 1.30767,-4.79941 1.76189,4.65881 4.96942,-0.24238 z"
     id="path5990"
     style="fill:#b09247" />
  <path
     d="m 77.625541,143.12441 -3.01301,3.9505 2.83433,4.09149 -4.69952,-1.64617 -3.00962,3.95729 0.1161,-4.97243 -4.6965,-1.64316 4.76247,-1.42942 0.1161,-4.97545 2.83434,4.0945 4.75531,-1.42715 z"
     id="path5992"
     style="fill:#b09247" />
  <path
     d="m 89.705121,156.91951 -1.98166,4.55816 3.73413,3.29234 -4.94756,-0.47044 -1.97827,4.56457 -1.08488,-4.85332 -4.95057,-0.46667 4.28261,-2.53051 -1.0879,-4.85935 3.73074,3.2946 4.28336,-2.52938 z"
     id="path5994"
     style="fill:#b09247" />
  <path
     d="m 104.74003,167.40268 -0.81799,4.89742 4.41416,2.29793 -4.9223,0.73996 -0.81837,4.90421 -2.2199,-4.45563 -4.919279,0.73997 3.54263,-3.4861 -2.21989,-4.45223 4.414539,2.29792 3.5464,-3.48345 z"
     id="path5996"
     style="fill:#b09247" />
  <path
     d="m 121.85839,173.9621 0.3796,4.95057 4.83748,1.16932 -4.59925,1.90024 0.38563,4.95623 -3.22298,-3.78729 -4.59322,1.89986 2.5961,-4.23925 -3.22298,-3.78728 4.84088,1.17007 2.59874,-4.23247 z"
     id="path5998"
     style="fill:#b09247" />
  <path
     d="m 140.05258,176.21178 1.56135,4.71572 4.97545,-0.0279 -4.00968,2.95006 1.5704,4.71573 -4.04437,-2.89729 -4.00366,2.95006 1.50783,-4.7406 -4.04437,-2.89993 4.97885,-0.0279 1.5082,-4.73796 z"
     id="path6000"
     style="fill:#b09247" />
  <path
     d="m 158.25318,174.02392 2.64887,4.20118 4.82542,-1.22586 -3.18566,3.82837 2.65566,4.20118 -4.6147,-1.84369 -3.17925,3.82837 0.31966,-4.96301 -4.61848,-1.8437 4.82241,-1.22284 0.32607,-4.96 z"
     id="path6002"
     style="fill:#b09247" />
  <path
     d="m 175.39415,167.52217 3.58033,3.44275 4.38967,-2.35146 -2.16977,4.48089 3.58712,3.43897 -4.92833,-0.68041 -2.16373,4.48013 -0.87454,-4.89365 -4.92833,-0.67739 4.38287,-2.34806 -0.87529,-4.89177 z"
     id="path6004"
     style="fill:#b09247" />
  <path
     d="m 190.46525,157.08952 4.30485,2.48037 3.69003,-3.33945 -1.02193,4.87254 4.31087,2.4766 -4.9468,0.5236 -1.02268,4.87254 -2.03406,-4.54271 -4.94755,0.52925 3.69681,-3.33607 -2.02954,-4.53667 z"
     id="path6006"
     style="fill:#b09247" />
  <path
     d="m 202.58818,143.33626 4.77529,1.37325 2.78081,-4.12881 0.17528,4.97545 4.7783,1.36346 -4.67162,1.70309 0.17905,4.96979 -3.06654,-3.9162 -4.67728,1.70234 2.79024,-4.12579 -3.06353,-3.91658 z"
     id="path6008"
     style="fill:#b09247" />
  <path
     d="m 211.04822,127.07585 4.96904,0.1817 1.70234,-4.67803 1.3642,4.79074 4.96905,0.17566 -4.12881,2.7744 1.37024,4.7817 -3.91244,-3.06617 -4.13257,2.77742 1.70874,-4.67464 -3.90979,-3.06278 z"
     id="path6010"
     style="fill:#b09247" />
  <path
     d="m 215.3508,109.25485 4.86274,-1.01552 0.53302,-4.95396 2.47359,4.3203 4.86576,-1.02193 -3.34173,3.68362 2.48264,4.31389 -4.53969,-2.03481 -3.3387,3.6904 0.53603,-4.94718 -4.53366,-2.03481 z"
     id="path6012"
     style="fill:#b09247" />
  <path
     d="m 112.23959,79.11867 -2.79024,0.40109 V 63.75581 l -2.98474,0.42973 v 16.44435 c 0,0.91224 0.57976,1.5018 1.47654,1.5018 0.10668,0 0.21637,-0.009 0.32946,-0.0279 l 5.21067,-0.7524 c 1.02532,-0.14438 1.74003,-0.93108 1.74003,-1.91871 V 62.92273 l -2.98135,0.43275 v 15.76319"
     id="path6014"
     style="fill:#b09247" />
  <path
     d="m 128.3296,70.62019 -4.14803,-8.5622 -1.70233,0.1097 v 18.17496 l 2.82491,-0.18169 v -8.54674 l 4.10732,8.27382 1.74983,-0.1161 V 61.59999 l -2.83132,0.18169 v 8.83851 h -3.8e-4 z"
     id="path6016"
     style="fill:#b09247" />
  <path
     d="m 138.55041,61.42169 0.0124,18.17497 3.05033,-0.0124 -0.0501,-18.17195 -3.01263,0.009 z"
     id="path6018"
     style="fill:#b09247" />
  <path
     d="m 156.55009,79.87372 v 0.003 -0.003 z M 155.25223,64.28204 V 77.641 l -3.10764,-0.18169 V 64.10336 l 3.10764,0.17868 z m 1.2383,-2.33563 -5.64417,-0.32946 c -0.82478,0 -1.70837,0.60804 -1.70837,1.59265 v 14.81741 c 0,1.0879 1.02834,1.7242 1.76793,1.7683 l 5.55558,0.32305 0.0882,0.003 c 0.82403,0 1.71176,-0.60803 1.71176,-1.59264 V 63.7147 c 3.8e-4,-1.08149 -1.02796,-1.72119 -1.77094,-1.76831"
     id="path6020"
     style="fill:#b09247" />
  <path
     d="m 171.34337,63.56318 v 8.7944 l -4.09488,-9.3587 -1.70799,-0.23183 v 18.17798 l 2.80569,0.38864 v -8.49019 l 4.04437,9.04168 1.75586,0.24464 V 63.95182 l -2.80305,-0.38864 z"
     id="path6022"
     style="fill:#b09247" />
  <path
     d="m 110.43359,103.05278 c 0.32267,0.12892 0.674,0.26048 1.05359,0.37017 1.15387,0.34454 2.61495,0.55489 4.42057,0.33512 l 0.69285,-0.078 -0.55187,0.4825 c -0.48929,0.42973 -1.92511,1.348 -3.36433,1.91871 2.49583,-0.32267 7.01064,-2.3326 9.68175,-3.91281 -0.26349,-0.14437 -0.54244,-0.34454 -0.76824,-0.53301 -3.89358,1.518 -8.14528,1.76868 -11.16432,1.41735"
     id="path6024"
     style="fill:#b09247" />
  <path
     d="m 120.86096,129.16947 c -0.65515,1.11617 -0.99064,2.26363 -0.99705,3.41749 -0.0158,1.89081 0.84325,3.75901 2.47661,5.39877 3.40165,3.42051 9.77863,5.54617 16.64829,5.54617 10.58456,0 19.22479,-4.91288 19.26248,-10.95172 0.007,-1.15387 -0.31664,-2.29793 -0.95935,-3.4141 -2.60477,4.45789 -9.99802,7.53084 -18.25941,7.53084 -8.25798,3.8e-4 -15.61618,-3.0722 -18.17157,-7.52745"
     id="path6026"
     style="fill:#b09247" />
  <path
     d="m 160.9537,129.48762 c 0.26273,0.0309 0.78331,0.0875 1.47616,0.0875 1.84369,0 4.5182,-0.35397 7.24247,-1.95339 -1.95339,0.0317 -5.99173,-0.21939 -10.27057,-2.10041 0.57336,0.9816 1.25075,2.39519 1.55194,3.96634"
     id="path6028"
     style="fill:#b09247" />
  <path
     d="m 139.1083,97.28723 0.14136,0.003 c 5.01013,0 9.44013,2.78721 9.5027,6.21677 0.0222,1.47352 -0.72752,3.01301 -2.11623,4.14803 -1.13502,0.87454 -2.75895,1.50179 -4.2419,2.06007 -0.003,0 -3.46762,1.2383 -6.33626,2.24779 -0.14437,0.0437 -13.607,4.30786 -13.607,12.46897 -0.0124,1.60207 0.70227,3.17247 2.05969,4.53667 2.95986,2.97796 8.71938,4.76587 14.92371,4.60868 9.40243,-0.24163 17.08368,-4.75004 17.11232,-10.05155 0.0185,-3.37678 -3.32061,-6.00078 -8.45287,-7.37403 -1.21983,0.47044 -2.60553,0.9062 -4.07302,1.36421 -1.42301,0.45121 -3.04128,0.96237 -4.73721,1.57718 -3.85325,1.39512 -4.60566,2.5961 -4.70932,3.1883 -0.069,0.3796 0.0878,0.66156 0.21034,0.81838 1.47013,-0.85607 3.61803,-1.48295 5.93518,-1.7276 0.66118,-0.069 1.3201,-0.10328 1.95905,-0.10328 3.55244,0 5.94159,0.99064 5.948,2.61155 0,0.45499 -0.19451,0.89037 -0.59258,1.28882 -1.23265,1.24169 -4.31427,2.04122 -7.85088,2.04122 -2.98172,0 -5.76253,-0.94089 -7.27714,-2.4555 -0.77427,-0.7803 -1.17875,-1.68009 -1.17875,-2.59911 0,-3.30742 4.79376,-4.93814 7.96359,-6.01661 0.38864,-0.13457 0.7524,-0.25972 1.07546,-0.37319 2.78382,-1.00949 6.14816,-2.24779 6.14816,-2.24779 5.36748,-1.72759 8.20785,-6.36793 7.50257,-10.84504 -0.83119,-5.28569 -6.03546,-8.97911 -12.6567,-8.97911 -0.64271,0 -1.30163,0.0347 -1.9564,0.10668 -0.003,0.003 -0.60502,0.10969 -1.32312,0.10969 -0.75542,0 -1.35441,-0.1161 -1.78075,-0.34793 -0.95634,-0.52661 -1.92511,-0.59559 -1.93793,-0.59559 -7.72837,1.70535 -12.18663,4.98186 -13.02687,5.64003 0.25709,0.68342 1.47353,3.12572 5.31094,2.56783 1.43583,-0.20394 2.58027,-0.23824 3.58675,-0.26312 2.28247,-0.063 3.54264,-0.0973 5.25779,-2.07892 1.24132,-1.43281 2.77478,-1.54552 3.21695,-1.54552"
     id="path6030"
     style="fill:#b09247" />
  <path
     d="m 131.53336,96.98265 c 0.63932,-0.39844 1.02834,-1.96583 1.02834,-1.96583 -2.65529,0.66458 -5.46135,2.09739 -5.46135,2.09739 0,0 3.79671,0.2699 4.43301,-0.13156"
     id="path6032"
     style="fill:#0c2950" />
  <path
     d="m 223.21563,183.01698 h -1.33858 v -3.90641 h -0.14437 l -1.22888,2.73445 h -0.93787 l -1.24132,-2.78157 h -0.17905 v 3.95353 h -1.2662 v -4.99468 h 2.17278 l 1.00346,2.44004 1.04982,-2.44004 h 2.11021 v 4.99468 z m -7.12976,-3.91244 h -1.42905 v 3.91244 h -1.34498 v -3.91244 h -1.42678 v -1.08149 h 4.20156 v 1.08149 h -7.5e-4 z"
     id="path6034"
     style="fill:#b09247" />
</svg>
