<?xml version="1.0" encoding="UTF-8" standalone="no"?>
<!-- Created with Inkscape (http://www.inkscape.org/) -->

<svg
   xmlns:dc="http://purl.org/dc/elements/1.1/"
   xmlns:cc="http://creativecommons.org/ns#"
   xmlns:rdf="http://www.w3.org/1999/02/22-rdf-syntax-ns#"
   xmlns:svg="http://www.w3.org/2000/svg"
   xmlns="http://www.w3.org/2000/svg"
   version="1.0"
   width="280"
   height="200"
   viewBox="0 0 280 200"
   id="svg6060">
  <metadata
     id="metadata6098">
    <rdf:RDF>
      <cc:Work
         rdf:about="">
        <dc:format>image/svg+xml</dc:format>
        <dc:type
           rdf:resource="http://purl.org/dc/dcmitype/StillImage" />
        <dc:title></dc:title>
      </cc:Work>
    </rdf:RDF>
  </metadata>
  <defs
     id="defs6096" />
  <path
     d="M 69.999997,0 V 83.38032 C 69.999997,164.12038 139.95121,200 139.95121,200 c 0,0 69.95121,-35.87962 69.95121,-116.61968 V 0 H 69.999997 z"
     id="path6062"
     style="fill:#f6d200" />
  <path
     d="m 178.59329,173.79945 h 1.84643 v 5.54018 h 0.65811 v -5.54018 h 1.94332 v -0.65898 h -4.44786 z m 9.58218,-0.65898 -1.59288,5.04006 -1.59638,-5.04006 h -1.06178 v 6.19916 h 0.6712 v -5.27878 l 1.64961,5.27878 h 0.6712 l 1.66489,-5.27878 v 5.27878 h 0.6725 v -6.19916 z"
     id="path6064"
     style="fill:#062e7e" />
  <path
     d="m 72.642004,2.64201 v 80.73831 c 0,18.00134 3.584209,35.19315 10.651814,51.09713 5.66369,12.74482 13.5692,24.70848 23.496582,35.5593 14.38833,15.72722 28.95472,24.56795 33.16125,26.94986 4.20652,-2.38191 18.77291,-11.22264 33.16124,-26.94986 9.92738,-10.85082 17.83289,-22.81448 23.49658,-35.5593 7.06761,-15.90398 10.65138,-33.09622 10.65138,-51.09713 V 2.64201 H 72.642004 z M 201.96636,83.38032 c 0,17.17348 -3.39786,33.56841 -10.09889,48.72962 -5.38831,12.19059 -12.92462,23.65281 -22.40032,34.06722 -11.77295,12.9399 -23.70431,21.08413 -29.51594,24.65786 -5.81119,-3.57373 -17.74299,-11.71796 -29.51594,-24.65786 C 100.95957,155.76232 93.423258,144.30053 88.034948,132.10994 81.333918,116.94873 77.936055,100.55336 77.936055,83.38032 V 7.93649 H 201.96636 v 75.44383 z"
     id="path6066"
     style="fill:#a90230" />
  <path
     d="m 199.32392,10.5785 v 72.80182 c 0,16.76239 -3.30578,32.76149 -9.8257,47.55307 -5.25128,11.91434 -12.6043,23.12563 -21.85569,33.32271 -10.74346,11.8419 -21.6305,19.6034 -27.69176,23.46167 -6.06125,-3.85784 -16.94829,-11.61933 -27.69175,-23.46167 -9.25096,-10.19708 -16.603972,-21.40881 -21.855692,-33.32271 -6.51948,-14.79158 -9.82483,-30.79068 -9.82483,-47.55307 V 10.5785 H 199.32392 z"
     id="path6068"
     style="fill:#062e7e" />
  <path
     d="m 145.00175,67.77965 c 0,-2.3003 -4.42124,-2.3195 -4.42124,-3.119 0,-0.58042 0.98148,-0.60093 1.49775,-0.60093 1.00853,0 1.74824,0.30112 1.49774,1.00068 0,0 1.07706,0.0402 1.07706,-0.56078 0,-0.91864 -1.81851,-1.03953 -3.02212,-1.03953 -0.89507,0 -2.89687,0.29982 -2.8685,1.56016 0,2.04064 4.39287,2.04064 4.39287,3.22024 0,0.4399 -0.29239,0.93959 -1.44102,0.93959 -1.38428,0 -2.53116,-0.98017 -1.5811,-1.67973 -0.96489,0 -1.80498,0.45954 -1.80498,1.03952 0,1.03952 2.18378,1.29918 3.40092,1.29918 1.49775,4.4e-4 3.27262,-0.59918 3.27262,-2.0594 z m 12.43715,-4.19911 -0.0271,1.03952 c 0.16714,-0.24002 0.34912,-0.3596 0.54594,-0.3596 0,0 0.82481,-0.0807 1.91539,-0.0807 v 5.14 c 0,0.19987 -0.0969,0.33996 -0.30723,0.39975 h 2.79824 c -0.20904,-0.0598 -0.30723,-0.19988 -0.30723,-0.39975 v -5.14 c 1.09189,0 1.91539,0.0807 1.91539,0.0807 0.19682,0 0.3788,0.11914 0.54594,0.3596 l -0.0271,-1.03952 h -7.05234 z m -5.41275,5.69948 -3.52486,-5.98009 -3.38608,5.98009 c -0.11346,0.14008 -0.30897,0.29981 -0.57431,0.43989 h 1.93154 c -0.26708,-0.0598 -0.3788,-0.29981 -0.29545,-0.48048 l 0.48921,-0.95922 h 2.46395 l 0.53111,0.99937 c 0.11172,0.21908 -0.0986,0.32076 -0.30723,0.4399 h 3.21588 c -0.0829,-0.0397 -0.40542,-0.22039 -0.54376,-0.43946 z m -4.99555,-1.61995 0.84139,-1.57979 0.89507,1.57979 h -1.73646 z m 10.88573,0.14009 c 0,0 0.39102,1.27998 -1.73646,1.27998 h -1.11851 v -5.08065 c 0,-0.17892 0.0986,-0.31901 0.2937,-0.41895 h -2.79693 c 0.19376,0.0999 0.30723,0.24003 0.30723,0.41895 v 5.32068 c 0,0.17892 -0.0986,0.31901 -0.29545,0.39974 h 4.35272 c 0.82481,0 1.60816,-0.22082 1.8735,-0.78029 0.3225,-0.69913 -0.8798,-1.13946 -0.8798,-1.13946 z m 15.08048,1.13989 c 0.32206,-0.69956 -0.86671,-1.13945 -0.86671,-1.13945 0,0 0.37749,1.27998 -1.74955,1.27998 h -0.69825 v -5.08065 c 0,-0.17893 0.0969,-0.31901 0.29239,-0.41895 h -2.79824 c 0.21166,0.0999 0.30897,0.24002 0.30897,0.41895 v 5.32067 c 0,0.17893 -0.0969,0.31901 -0.30897,0.39975 h 3.94686 c 0.82481,-4.4e-4 1.623,-0.22126 1.8735,-0.7803 z m 20.17421,0.14009 h -2.14058 v -2.42075 h 1.79015 c 0.25355,0 0.40585,0.26097 0.40585,0.26097 v -1.12025 c -0.0969,0.18067 -0.22387,0.25966 -0.40585,0.25966 h -1.79015 v -1.8796 h 2.22568 c 0.34912,0.0192 0.61446,0.15972 0.79644,0.38054 l -0.0703,-0.98017 h -5.49785 c 0.23697,0.0999 0.35043,0.24003 0.35043,0.41895 v 5.32068 c 0,0.24002 -0.19682,0.33996 -0.30897,0.38054 -0.0969,-0.0401 -0.32076,-0.16103 -0.46085,-0.32076 l -3.31582,-3.4607 2.62979,-1.97954 c 0.26533,-0.18068 0.76982,-0.3596 0.76982,-0.3596 h -2.26713 c 0.18198,0.11914 0.35043,0.29981 0.11346,0.45953 l -2.92349,2.15978 v -2.20036 c 0,-0.17893 0.11041,-0.31902 0.30723,-0.41895 h -2.79824 c 0.20904,0.0999 0.30723,0.24002 0.30723,0.41895 v 5.32067 c 0,0.11914 -0.0419,0.21907 -0.14008,0.29981 -0.12525,-0.0807 -0.2924,-0.19987 -0.37749,-0.33996 l -3.5397,-5.98008 -3.38608,5.98008 c -0.11041,0.14009 -0.30723,0.29981 -0.573,0.4399 h 1.93022 c -0.25049,-0.0598 -0.37749,-0.29981 -0.29239,-0.48049 l 0.48921,-0.95922 h 2.46134 l 0.53111,0.99937 c 0.11346,0.21908 -0.0969,0.32076 -0.30723,0.4399 h 5.6951 c -0.19682,-0.0598 -0.30723,-0.19987 -0.30723,-0.39975 v -2.35965 l 2.29419,2.37929 c 0.20904,0.22082 -0.21034,0.38055 -0.21034,0.38055 h 9.17807 l 0.29239,-1.18005 c -8.7e-4,8.8e-4 -0.27974,0.54071 -1.45498,0.54071 z m -17.80845,-1.42007 0.83833,-1.57979 0.90991,1.57979 h -1.74824 z"
     id="path6070"
     style="fill:#ffffff" />
  <path
     d="m 138.34305,77.33914 c 18.32778,0 33.51997,13.46053 36.30468,31.08089 -2.30772,-18.76025 -18.22915,-33.26031 -37.52182,-33.26031 -20.90214,0 -37.830792,17.00023 -37.830792,37.97962 0,15.12062 8.800582,28.16045 21.531432,34.28062 l 0.22388,-0.58042 c -11.58398,-6.20047 -19.47465,-18.46044 -19.47465,-32.57995 4.3e-4,-20.37976 16.46781,-36.92045 36.76727,-36.92045 z"
     id="path6072"
     style="fill:#f6d200" />
  <path
     d="m 153.63562,75.99981 c 14.8147,6.17995 25.23828,20.84104 25.23828,37.94077 0,14.71956 -7.73706,27.63982 -19.33457,34.8785 0.23697,0.82045 0.41895,1.68104 0.55773,2.54033 12.43846,-7.21948 20.81878,-20.69921 20.81878,-36.1598 0,-18.02011 -11.36054,-33.36024 -27.28022,-39.1998 z m -51.45673,57.77939 c 3.83209,7.74011 9.98804,14.1003 17.55621,18.18158 0.0432,-0.40106 0.11347,-0.7803 0.18198,-1.18136 -7.49834,-3.71862 -13.70928,-9.67906 -17.73819,-17.00022 z"
     id="path6074"
     style="fill:#a90230" />
  <path
     d="m 162.51955,121.74048 -11.52856,-10.90101 c -2.25229,-2.03889 -4.72977,-3.21893 -7.45644,-3.5589 0,0 12.17182,-0.94132 12.17182,-8.00108 0,-3.39961 -4.2541,-7.99977 -17.50253,-7.99977 h -15.55747 c 0,0 2.07031,1.1604 2.07031,2.14057 v 15.07873 c 1.93154,0.94133 4.56133,1.80018 7.1645,2.88029 v -2.94008 h 4.28115 c 2.26582,0 3.55322,0.52064 4.74199,1.50037 l 12.41054,11.55998 c 1.73472,1.49906 5.17578,3.29967 8.18306,3.29967 3.84824,0 5.38788,-1.27998 5.38788,-1.27998 0,0 -2.47792,-0.15885 -4.36625,-1.77879 z M 137.05609,106.56007 H 131.8803 V 93.24006 h 5.17579 c 6.50508,0 10.85736,2.21956 10.85736,6.66 0,3.59949 -4.51943,6.66001 -10.85736,6.66001 z m -5.17622,14.91944 v -1.69894 c -1.69283,-1.20055 -4.37935,-2.18072 -7.16449,-3.30098 v 4.99992 c 0,1.1604 -1.84644,2.14057 -1.84644,2.14057 h 10.98305 c 0,0 -1.97212,-0.98017 -1.97212,-2.14057 z"
     id="path6076"
     style="fill:#f6d200" />
  <path
     d="m 142.14852,101.26034 v 3.31888 c 2.90996,-1.03952 4.57485,-2.89993 4.57485,-4.67916 0,-0.24002 -0.0135,-0.45953 -0.0419,-0.68036 h -6.25459 c 0,0 1.72163,0.44034 1.72163,2.04064 z m 23.92426,24.01983 c 0,0 -1.58111,2.78035 -6.4082,2.78035 h -11.47226 v -9.70001 l -6.04424,-5.63969 v 15.28035 c 0,1.61994 -1.72119,2.03889 -1.72119,2.03889 h 20.30121 c 8.14292,0 5.34468,-4.75989 5.34468,-4.75989 z m -30.05185,-19.74042 c 0,0 2.09868,-1.03952 2.09868,-2.94007 0,-1.83902 -2.30903,-2.84014 -5.05054,-3.33983 v 2.3003 c 1.90143,0.88024 2.82487,2.3003 2.95186,3.9796 z m -15.47411,-0.0999 c 0,-1.66009 1.2455,-2.99986 2.98022,-3.83951 v -2.28066 c -4.09917,0.96053 -8.01592,3.33982 -8.01592,7.5206 0,8.91972 19.32104,8.63955 19.32104,15.65915 0,3.60079 -2.51938,6.06038 -7.34473,6.06038 -5.45639,0 -10.08798,-2.84013 -8.94066,-7.0807 0,0 -3.5397,0.82044 -3.5397,3.78147 0,2.71925 5.17753,5.17883 12.48036,5.17883 9.17633,0 12.99663,-4.73894 12.99663,-9.23916 -4.3e-4,-9.62059 -19.93724,-9.42072 -19.93724,-15.7604 z"
     id="path6078"
     style="fill:#a90230" />
  <path
     d="m 156.46048,154.19954 c -0.0567,-3.43976 -1.16041,-6.61985 -3.00728,-9.23917 l -6.66,0.079 -1.98696,-6.36019 c -1.5379,-0.47874 -3.1609,-0.73971 -4.85503,-0.73971 -1.69151,0 -3.31451,0.26097 -4.85372,0.73971 l -1.98696,6.36019 -6.66,-0.079 c -1.84644,2.61932 -2.95186,5.79941 -3.00728,9.23917 l 5.44156,3.84082 -2.14058,6.32004 c 1.97343,2.61932 4.70141,4.61937 7.86405,5.71868 l 5.34293,-3.99923 5.34598,3.99923 c 3.1609,-1.09931 5.88888,-3.0998 7.861,-5.71868 l -2.13883,-6.32004 5.44112,-3.84082 z"
     id="path6080"
     style="fill:#ffffff" />
  <path
     d="m 126.64735,150.13965 5.37129,-4.21962 -4.85371,-0.0598 c -1.55274,2.3003 -2.50454,5.0597 -2.60273,8.03992 l 3.96039,2.79998 -1.87524,-6.5605 z m 17.52959,-10.49951 c -1.34239,-0.38055 -2.75504,-0.58042 -4.22573,-0.58042 -1.46764,0 -2.88203,0.19987 -4.22442,0.58042 l -1.44101,4.64031 5.66499,-3.80066 5.66675,3.80066 -1.44058,-4.64031 z m 7.20595,17.05958 3.95864,-2.79999 c -0.0986,-2.98022 -1.04999,-5.73962 -2.60273,-8.03992 l -4.85502,0.0598 5.37304,4.21961 -1.87393,6.56051 z m -22.00713,2.66121 -1.55273,4.57921 c 1.76177,2.24052 4.11226,3.9796 6.84068,4.98071 l 3.88882,-2.90123 -6.82715,-0.25966 -2.34962,-6.39903 z m 18.78819,6.39903 -6.81362,0.25966 3.89013,2.90123 c 2.72798,-1.00068 5.07759,-2.74019 6.84068,-4.98071 l -1.55143,-4.57921 -2.36576,6.39903 z"
     id="path6082"
     style="fill:#f6d200" />
  <path
     d="m 123.59686,156.00016 c 0,0 -0.5311,3.42012 1.9586,6.53912 l 0.61621,-1.89881 c 0,0 -2.22393,-2.04064 -2.57481,-4.64031 z m 12.7732,14.50005 c 0,0 3.09194,1.53921 6.81362,0.14009 l -1.60947,-1.18005 c 0,4.4e-4 -2.61626,1.4995 -5.20415,1.03996 z m 19.9787,-14.11994 -1.623,1.18004 c 0,0 0.61621,2.94007 -0.6293,5.25958 0,0 2.43428,-2.45959 2.2523,-6.43962 z m -9.50014,-16.9208 0.61752,1.90011 c 0,0 2.992,0.32076 4.81182,2.21957 0,0 -1.59594,-3.05921 -5.42934,-4.11968 z m -19.02559,3.80066 h 2.00005 c 0,0 1.23067,-2.74019 3.59468,-3.87965 0,0 -3.4127,0.55947 -5.59473,3.87965 z m 18.59311,12.38043 -1.93023,-5.96045 1.69152,-3.80066 -3.09064,2.80129 h -6.26942 l -3.09063,-2.80129 1.69282,3.80066 -1.93153,5.96045 -3.60953,2.07948 4.14238,-0.4399 5.06406,3.70073 0.86671,4.07953 0.86801,-4.07953 5.06537,-3.70073 4.14063,0.4399 -3.60952,-2.07948 z m -7.82085,-3.40092 -3.46943,4.60016 2.02842,-6.47976 h 6.47802 l -5.03701,1.8796 z"
     id="path6084"
     style="fill:#a90230" />
  <path
     d="m 138.11961,16.21993 c -0.7144,1.06047 0.76982,2.3195 0.76982,2.3195 0,0 -0.43422,1.12026 -1.73471,1.34108 -1.56758,0.25966 -3.19057,0.15973 -3.51264,-2.72056 0,0 -1.06222,2.92044 -3.51133,2.28066 -1.59463,-0.42069 -2.22393,-1.68104 -2.44781,-2.34045 1.5811,-0.18067 2.79824,-1.1604 2.79824,-2.3195 h -2.32255 c -0.0851,-1.18135 -1.06353,-1.84076 -1.06353,-1.84076 0,0 -0.96489,0.65941 -1.06352,1.84076 h -2.30772 c 0,1.1591 1.21714,2.13883 2.79693,2.3195 -0.22388,0.65941 -0.85317,1.91976 -2.44781,2.34045 -2.46264,0.63978 -3.51132,-2.28066 -3.51132,-2.28066 -0.32207,2.88029 -1.94507,2.98022 -3.51133,2.72056 -1.30224,-0.22082 -1.74956,-1.34108 -1.74956,-1.34108 0,0 1.49775,-1.25903 0.78466,-2.3195 -2.05678,1.9407 -3.66625,-2.05984 -5.61132,-0.0598 0,0 2.2955,1.19925 2.77162,2.34045 0.47438,1.11851 0.68472,1.52001 0.68472,1.52001 l -0.39102,1.39912 1.49601,0.63977 0.92343,2.00005 c 0,0 4.33745,-1.9599 11.13667,-1.9599 6.81362,0 11.14976,1.9599 11.14976,1.9599 l 0.92343,-2.00005 1.49775,-0.63977 -0.39233,-1.39912 c 0,0 0.21035,-0.40106 0.68603,-1.52001 0.46259,-1.1412 2.76988,-2.34045 2.76988,-2.34045 -1.9442,-2.00005 -3.55497,2.00049 -5.61045,0.0598 z m -11.02451,7.20028 c -6.14242,0 -11.12313,1.26034 -11.12313,2.84013 0,0.0999 0.0284,0.21908 0.0703,0.33996 2.37929,-1.26034 6.43656,-2.10042 11.05287,-2.10042 4.62984,0 8.68712,0.83964 11.05157,2.10042 0.0567,-0.12088 0.0851,-0.24002 0.0851,-0.33996 -4.4e-4,-1.57979 -4.98071,-2.84013 -11.13667,-2.84013 z m 12.19975,19.27914 c 0,0 -1.81981,7.4403 -7.02396,7.4403 -4.43477,0 -6.85552,-5.09985 -7.70869,-7.34036 l 14.66283,-5.17884 c 0,0 -2.39238,-11.04109 -11.36011,-11.04109 -6.25458,0 -12.56415,4.80003 -12.56415,13.96021 0,8.76043 6.50639,16.45996 13.92138,16.45996 6.12759,0 11.63897,-4.85983 11.63897,-11.36011 0,-2.71925 -0.95181,-4.9794 -1.56627,-2.94007 z m -16.38227,-6.75994 c 0,-2.50018 1.04868,-4.23926 2.55952,-4.23926 2.15411,0 3.56807,2.79999 4.19737,4.37935 l -6.43657,2.28066 C 123.07929,37.6798 122.91258,36.8 122.91258,35.93941 z"
     id="path6086"
     style="fill:#f6d200" />
  <path
     d="m 129.22215,55.81948 c 7.95919,0 11.07993,-7.71916 10.39346,-10.49951 0,0 -2.09868,6.02023 -7.34472,6.02023 -6.63033,0 -9.2047,-9.26011 -9.2047,-9.26011 l 14.73135,-5.19979 c 0,0 -2.4897,-9.11959 -9.93262,-9.11959 -5.33114,0 -11.38847,3.89929 -11.38847,12.77886 -4.3e-4,8.12022 5.97354,15.27991 12.7457,15.27991 z M 125.4721,30.52011 c 3.95865,0 5.70864,6.27989 5.70864,6.27989 l -8.71722,3.08016 c 0,0 -0.74146,-1.98085 -0.74146,-3.94075 0,-3.39961 1.69282,-5.4193 3.75004,-5.4193 z"
     id="path6088"
     style="fill:#ffffff" />
  <path
     d="m 191.01561,49.05954 c 0.88285,2.45959 0.0567,6.10053 -6.60197,6.10053 h -4.3226 v -25.0803 c 0,-2.58047 2.33608,-4.04069 2.33608,-4.04069 h -15.11015 c 0,0 2.33609,1.46022 2.33609,4.04069 v 25.18024 c 0,0.45954 -0.19377,0.93958 -0.48921,1.42007 -0.14009,-0.24003 -0.27887,-0.48049 -0.41896,-0.76066 L 153.71984,24.78005 142.55525,49.33972 c -2.36402,5.18058 -3.30229,6.70059 -4.51943,8.67969 -1.07705,1.91975 -7.5686,4.3405 -10.91104,4.3405 -9.40151,0 -10.45195,-15.40123 -19.7269,-19.2211 3.14737,-1.35897 6.75689,-3.87965 6.75689,-8.31878 0,-4.00055 -2.39238,-8.78138 -13.80791,-8.78138 H 85.684458 c 0,0 2.27935,1.68104 2.27935,3.42012 v 27.08035 c 0,1.73908 -2.27935,3.39961 -2.27935,3.39961 h 15.010212 c 0,0 -2.294192,-1.66009 -2.294192,-3.39961 v -10.8997 c 6.730272,1.80018 10.226762,24.7207 26.091462,24.7207 9.33168,0 13.66913,-10.42052 13.66913,-10.42052 h 8.51997 c 0,0 -2.46134,-1.8796 -1.97212,-3.05921 l 1.8316,-4.41949 h 9.40151 l 1.94506,4.46007 c 0.55948,1.27999 -0.88154,1.95991 -2.37929,3.01907 h 31.50596 c 7.13612,0 9.02445,-3.45896 9.02445,-5.27878 0.001,-3.46114 -5.0226,-5.60172 -5.0226,-5.60172 z M 98.918058,41.05977 h -0.50274 V 30.49916 h 0.50274 c 2.210402,0 4.561322,1.38123 4.561322,5.28052 0,2.68041 -2.61625,5.28009 -4.561322,5.28009 z m 49.666592,6.94061 2.5329,-5.8605 2.75504,5.8605 h -5.28794 z"
     id="path6090"
     style="fill:#f6d200" />
  <path
     d="m 102.62621,43.37927 c 0,0 10.33848,-1.77967 10.33848,-8.55881 0,-6.6408 -7.63843,-7.60002 -12.61914,-7.60002 H 88.425968 c 0,0 0.72792,0.95922 0.72792,2.23876 v 27.08036 c 0,1.26034 -0.72792,2.21956 -0.72792,2.21956 h 9.51367 c 0,0 -0.7144,-0.95922 -0.7144,-2.21956 V 44.25907 c 9.037552,0 11.220022,24.92057 27.266702,24.92057 8.01766,0 12.18666,-8.86037 12.18666,-8.86037 0,0 -4.98072,3.22025 -9.55557,3.22025 -11.73716,8.7e-4 -11.28984,-20.16025 -24.49682,-20.16025 z m -3.708152,-1.12025 h -1.69282 V 29.31955 h 1.69282 c 2.602732,0 5.750102,1.64089 5.750102,6.46013 0,3.32019 -3.14693,6.47934 -5.750102,6.47934 z m 93.539872,9.20076 c -0.35043,1.12026 -0.89638,4.88077 -8.04429,4.88077 h -5.49828 V 30.08021 c 0,-1.6003 0.74145,-2.85934 0.74145,-2.85934 h -9.56866 c 0,0 0.73971,1.25904 0.73971,2.85934 v 26.13902 c 0,0.94133 -0.90859,1.66009 -1.64961,2.10043 -0.46259,-0.4399 -1.13379,-1.13946 -1.49775,-1.87961 L 153.74559,27.58004 143.6323,49.8202 c -2.56127,5.59954 -3.23246,6.61985 -4.65995,8.93936 h 4.98071 c 0,0 -0.78291,-1.19925 -0.3356,-2.31951 l 2.14058,-5.18058 h 10.96777 l 2.23877,5.18058 c 0.51758,1.2202 -0.18198,2.31951 -0.18198,2.31951 h 28.23203 c 6.75689,0 7.84878,-3.19974 7.84878,-4.09917 4.3e-4,-1.95991 -2.40548,-3.20061 -2.40548,-3.20061 z m -45.67783,-2.27935 4.29425,-9.92084 4.6582,9.92084 h -8.95245 z"
     id="path6092"
     style="fill:#ffffff" />
</svg>
