<?xml version="1.0" encoding="UTF-8" standalone="no"?>
<!-- Created with Inkscape (http://www.inkscape.org/) -->

<svg
   xmlns:dc="http://purl.org/dc/elements/1.1/"
   xmlns:cc="http://creativecommons.org/ns#"
   xmlns:rdf="http://www.w3.org/1999/02/22-rdf-syntax-ns#"
   xmlns:svg="http://www.w3.org/2000/svg"
   xmlns="http://www.w3.org/2000/svg"
   version="1.1"
   width="280"
   height="200"
   viewBox="0 0 224.00001 160"
   id="svg6352">
  <metadata
     id="metadata6396">
    <rdf:RDF>
      <cc:Work
         rdf:about="">
        <dc:format>image/svg+xml</dc:format>
        <dc:type
           rdf:resource="http://purl.org/dc/dcmitype/StillImage" />
        <dc:title></dc:title>
      </cc:Work>
    </rdf:RDF>
  </metadata>
  <defs
     id="defs6394" />
  <path
     d="M 40.000002,0 H 109.8736 C 99.054402,0.1712 88.241602,1.6176 77.806402,4.504 c -9.872,2.7088 -19.4032,6.664 -28.2832,11.7584 -0.4048,0.2064 -0.5104,0.6784 -0.6752,1.0624 -3.496,8.8928 -5.952,18.1872 -7.3776,27.6336 -1.8032,12.0896 -1.8992,24.5232 0.5792,36.5264 1.0576,5.1808 2.68,10.2336 4.6848,15.1232 4.3312,10.7696 10.4656,20.824 18.1664,29.5168 3.928,4.4448 8.2384,8.5488 12.8256,12.3072 4.1376,3.3888 8.5088,6.4816 12.9312,9.4832 6.1088,4.0928 12.399998,7.9264 18.951998,11.2672 0.584,0.2976 1.1712,0.592 1.7888,0.8176 H 40.000002 V 0 z"
     id="path6354"
     style="fill:#fdfefe" />
  <path
     d="m 109.8736,0 h 3.1088 c 13.6736,0.208 27.3264,2.568 40.2176,7.1504 6.24,2.2064 12.3008,4.9184 18.1056,8.0992 0.7952,0.4816 1.6752,0.84 2.408,1.416 0.6208,1.2944 1.0672,2.6736 1.5808,4.016 4.5152,12.5344 7.0688,25.7872 7.4256,39.1104 v 4.5696 c -0.2512,10.0352 -1.912,20.0928 -5.5248,29.4848 -3.04,8.1264 -7.0368,15.9056 -11.9904,23.032 -4.8336,6.976 -10.5792,13.3024 -16.9552,18.8992 -6.048,5.3216 -12.6688,9.9472 -19.408,14.344 -3.9552,2.5552 -7.9952,4.984 -12.1312,7.2352 -1.7392,0.912 -3.4448,1.9056 -5.2672,2.6432 h -0.0448 c -0.6176,-0.2256 -1.2048,-0.52 -1.7888,-0.8176 -6.552,-3.3408 -12.843198,-7.1744 -18.951998,-11.2672 -4.4224,-3.0016 -8.7936,-6.0944 -12.9312,-9.4832 -4.5872,-3.7584 -8.8976,-7.8624 -12.8256,-12.3072 -7.7008,-8.6928 -13.8352,-18.7472 -18.1664,-29.5168 -2.0048,-4.8896 -3.6272,-9.9424 -4.6848,-15.1232 -2.4784,-12.0032 -2.3824,-24.4368 -0.5792,-36.5264 1.4256,-9.4464 3.8816,-18.7408 7.3776,-27.6336 0.1648,-0.384 0.2704,-0.856 0.6752,-1.0624 8.88,-5.0944 18.4112,-9.0496 28.2832,-11.7584 C 88.241602,1.6176 99.054402,0.1712 109.8736,0 z"
     id="path6356"
     style="fill:#9ca0a6" />
  <path
     d="M 112.9824,0 H 182.72 v 59.792 c -0.3568,-13.3232 -2.9104,-26.576 -7.4256,-39.1104 -0.5136,-1.3424 -0.96,-2.7216 -1.5808,-4.016 -0.7328,-0.576 -1.6128,-0.9344 -2.408,-1.416 C 165.5008,12.0688 159.44,9.3568 153.2,7.1504 140.3088,2.568 126.656,0.208 112.9824,0 z m 1.9248,5.1216 c 0.0112,-0.3456 -0.0944,-0.9648 0.4384,-0.92 1.5552,0.0336 3.1104,0.1296 4.6608,0.2544 0.784,0.016 0.528,0.9968 0.6048,1.5072 C 120.1648,5.9296 119.7184,5.8944 119.272,5.8624 119.248,5.6448 119.2272,5.4288 119.2096,5.2112 118.232,5.1728 117.2576,5.0864 116.28,5.0736 l 0.01,0.4928 c 1.2256,0.3712 2.4448,0.7696 3.664,1.1616 0.2368,0.088 0.4944,0.1552 0.688,0.3264 0.12,0.6256 0.2128,1.2976 0.0192,1.9168 C 119.0484,8.9216 117.4404,8.7776 115.8276,8.7456 115.5556,8.712 115.194,8.76 115.034,8.48 c -0.072,-0.4512 -0.064,-0.9104 -0.08,-1.3648 0.4672,0.024 0.9344,0.0416 1.4032,0.0528 0,0.248 0.005,0.496 0.006,0.744 1.008,0.0576 2.0176,0.0896 3.0256,0.1696 L 119.3504,7.4864 C 117.9856,7.0128 116.5984,6.6128 115.224,6.176 114.7648,6.0512 114.952,5.4672 114.9072,5.1216 z M 104.0688,4.3648 c 0.4704,-0.0416 0.9424,-0.0736 1.416,-0.0992 0.8576,1.472 1.7232,2.9392 2.5936,4.4048 -0.4896,0.0368 -0.9792,0.0544 -1.4672,0.0512 -0.136,-0.2544 -0.272,-0.5088 -0.408,-0.7616 -1.0336,0.0528 -2.0688,0.1072 -3.1008,0.192 -0.1664,0.2816 -0.336,0.5584 -0.5056,0.8384 -0.4736,0.0336 -0.9472,0.0704 -1.4208,0.1024 l 2.8928,-4.728 z M 90.576002,5.8624 c 1.4288,-0.1904 2.848,-0.5232 4.2912,-0.5744 0.3568,0.3616 0.04,0.9552 0.0752,1.4128 -0.4464,0.0608 -0.8944,0.1248 -1.3408,0.1888 0.016,-0.2192 0.0352,-0.4368 0.056,-0.6544 -0.9744,0.1376 -1.9472,0.2816 -2.9136,0.4576 L 90.686402,7.2 c 1.336,0.1808 2.688,0.2816 4.0096,0.5536 0.2512,0.4864 0.024,1.1408 -0.0144,1.6816 -0.0512,0.4512 -0.5904,0.4272 -0.9248,0.4976 -1.5024,0.1856 -2.9872,0.488 -4.4832,0.6992 l -0.2528,-0.1504 c -0.0176,-0.4672 0.0752,-0.928 0.1232,-1.3904 0.4512,-0.0944 0.9056,-0.1744 1.3616,-0.2464 -0.0288,0.2496 -0.056,0.5008 -0.0832,0.7504 0.9888,-0.1584 1.9776,-0.3168 2.9696,-0.4656 0.016,-0.2 0.0336,-0.4 0.056,-0.6 -1.376,-0.2176 -2.7664,-0.32 -4.1424,-0.5296 0.048,-0.5712 0.056,-1.152 0.208,-1.7072 0.2064,-0.3728 0.7024,-0.3392 1.0624,-0.4304 z"
     id="path6358"
     style="fill:#fdfefe" />
  <path
     d="m 103.6128,7.2768 c 0.3824,-0.648 0.7552,-1.3008 1.1344,-1.952 0.3312,0.6112 0.6688,1.2192 1.0096,1.8256 -0.7152,0.0288 -1.4304,0.072 -2.144,0.1264 z"
     id="path6360"
     style="fill:#9ca0a6" />
  <path
     d="m 132.44,6.0176 c 0.704,-0.0336 1.3904,0.1552 2.08,0.2752 1.1424,0.2304 2.3008,0.4128 3.4256,0.7232 0.6176,0.3616 0.4,1.2352 0.552,1.8336 -0.456,-0.0912 -0.9088,-0.1936 -1.3552,-0.3168 -0.0336,-0.272 -0.0624,-0.5424 -0.0928,-0.8144 -1.0736,-0.2528 -2.16,-0.4464 -3.2416,-0.6576 0.112,0.9504 0.2304,1.8992 0.3344,2.848 1.0864,0.224 2.176,0.432 3.2608,0.6688 -0.0304,-0.2944 -0.0576,-0.5888 -0.0864,-0.8816 0.4464,0.0976 0.8928,0.2 1.3376,0.3072 0.0576,0.5328 0.208,1.0624 0.1632,1.6 l -0.2576,0.1152 c -1.5056,-0.2784 -2.992,-0.6672 -4.5024,-0.9216 -0.3504,-0.0832 -0.744,-0.088 -1.0416,-0.3088 C 132.8272,10.2352 132.8496,9.8944 132.7968,9.6 132.6896,8.4048 132.4736,7.2192 132.44,6.0176 z M 81.700802,7.6448 c 0.4336,-0.1136 0.872,-0.2176 1.312,-0.3088 -0.248,1.6016 -0.4736,3.2048 -0.744,4.8016 -0.4368,0.1056 -0.8736,0.2144 -1.3088,0.3232 -0.912,-0.792 -1.808,-1.6064 -2.7152,-2.4048 -0.2256,1.1088 -0.424,2.2224 -0.6432,3.3312 -0.4624,0.136 -0.9216,0.2736 -1.384,0.408 0.3184,-1.6544 0.6592,-3.3056 0.984,-4.9584 0.432,-0.1264 0.8656,-0.248 1.2992,-0.3648 0.8944,0.7696 1.7888,1.5392 2.6912,2.2976 0.1728,-1.0416 0.3408,-2.0832 0.5088,-3.1248 z M 144.2752,8.5472 c 0.4384,0.1216 0.8752,0.2496 1.3136,0.3792 0.3296,1.6384 0.6784,3.272 0.9952,4.912 -0.4592,-0.136 -0.9168,-0.2752 -1.3728,-0.4176 -0.2992,-1.6272 -0.6336,-3.248 -0.936,-4.8736 z m 6.8224,2.0704 c 1.9232,0.6064 3.8192,1.2944 5.6992,2.0192 0.096,0.3584 0.1904,0.7152 0.2864,1.072 -0.7872,-0.3056 -1.5744,-0.6192 -2.3664,-0.9136 0.36,1.4 0.688,2.808 1.032,4.2128 -0.4656,-0.192 -0.928,-0.392 -1.3872,-0.5984 -0.312,-1.3648 -0.624,-2.7296 -0.9392,-4.0928 -0.704,-0.2608 -1.416,-0.5024 -2.1264,-0.7456 -0.0672,-0.3168 -0.1344,-0.6352 -0.1984,-0.9536 z M 67.710402,12.2 c 0.3072,-0.5472 1.0272,-0.5632 1.5376,-0.8208 0.4624,1.4016 0.8768,2.8192 1.328,4.2256 -0.4096,0.1472 -0.8192,0.296 -1.2272,0.4464 -0.0768,-0.2512 -0.1536,-0.5008 -0.2304,-0.7504 -0.9072,0.3296 -1.8064,0.6816 -2.7024,1.04 -0.5984,0.184 -0.6656,0.9216 -1.112,1.2768 -0.4416,0.24 -0.9216,0.3984 -1.384,0.5952 1.2656,-2.0032 2.5376,-4.0016 3.7904,-6.0128 z m -5.9232,11.016 c 19.136,-8.9216 40.702398,-12.7232 61.716798,-10.4336 14.2384,1.5424 28.216,5.6496 40.9712,12.1744 2.192,1.1344 4.3488,2.3424 6.4144,3.696 0.1792,0.1248 0.3856,0.2448 0.4672,0.464 5.1104,12.6 8.0864,26.2016 7.5632,39.84 -0.3664,10.6672 -2.9328,21.232 -7.3712,30.9312 -3.6272,7.9632 -8.4624,15.3472 -14.0976,22.0304 -4.9456,5.8608 -10.496,11.1968 -16.4288,16.0496 -6.072,4.9488 -12.5456,9.4032 -19.3328,13.312 -3.3536,1.9152 -6.768,3.7392 -10.3216,5.256 -4.2064,-1.7904 -8.2176,-4.0048 -12.153598,-6.32 -9.1008,-5.4368 -17.6512,-11.8208 -25.32,-19.1472 -8.6864,-8.296 -16.2176,-17.9104 -21.5392,-28.712 -2.8624,-5.7664 -5.0736,-11.8624 -6.5248,-18.136 -2.2656,-9.6976 -2.6368,-19.8048 -1.3296,-29.6688 1.1488,-8.7344 3.568,-17.2768 6.8704,-25.4352 0.1008,-0.2576 0.3696,-0.3792 0.5792,-0.5344 3.128,-2.0496 6.464,-3.7616 9.8368,-5.3664 z"
     id="path6362"
     style="fill:#fdfefe" />
  <path
     d="m 68.227202,12.9872 0.1504,-0.0304 c 0.192,0.5056 0.3232,1.0304 0.4848,1.5456 -0.688,0.2608 -1.3744,0.5232 -2.0608,0.792 0.4848,-0.7648 0.9072,-1.5664 1.4256,-2.3072 z"
     id="path6364"
     style="fill:#9ca0a6" />
  <path
     d="m 59.102402,15.7504 c 0.592,-0.712 1.5616,-0.8736 2.3696,-1.2336 -1.3152,1.44 -2.6544,2.8592 -3.9616,4.3104 0.7696,0.4032 1.5568,0.7696 2.3232,1.1792 -0.536,0.2672 -1.0784,0.52 -1.6176,0.7808 -0.6784,-0.3328 -1.3536,-0.6736 -2.0288,-1.016 -0.2512,0.8064 -0.4912,1.616 -0.7264,2.4272 -0.504,0.2864 -1.0128,0.5616 -1.5232,0.8352 0.624,-1.9744 1.2608,-3.9456 1.9088,-5.9136 0.4368,-0.2256 0.8768,-0.4448 1.32,-0.656 -0.1968,0.6768 -0.4016,1.3504 -0.6048,2.024 0.8432,-0.9168 1.704,-1.816 2.5408,-2.7376 z M 161.2096,14.4928 c 0.6432,0.3024 1.3504,0.5024 1.9392,0.9072 0.76,0.9152 1.3856,1.9376 2.1392,2.8608 0.3808,-0.4496 0.7568,-0.9056 1.1264,-1.3664 0.4432,0.224 0.8816,0.456 1.3152,0.6976 -0.5376,0.7296 -1.112,1.4336 -1.6688,2.1488 0.208,0.7424 0.4192,1.4848 0.6288,2.2272 -0.464,-0.2464 -0.9264,-0.4944 -1.3904,-0.7376 -0.2352,-0.6752 -0.2816,-1.4192 -0.624,-2.0528 -1.1552,-1.5616 -2.3184,-3.1184 -3.4656,-4.6848 z"
     id="path6366"
     style="fill:#fdfefe" />
  <path
     d="m 72.809602,22.2432 c 11.4816,-4.1312 23.616,-6.4928 35.820798,-6.8032 14.7424,-0.3728 29.5232,2.3072 43.296,7.5456 3.6528,1.392 7.24,2.9616 10.7216,4.7376 2.0224,1.0496 4.0608,2.0976 5.9456,3.3792 4.5168,11.2304 7.2272,23.2944 7.1408,35.4336 -0.0288,10.6848 -2.3632,21.3392 -6.7072,31.096 -3.6256,8.2016 -8.6064,15.7648 -14.4176,22.5776 -5.08,5.9488 -10.7952,11.3392 -16.9088,16.2128 -6.112,4.856 -12.6192,9.2128 -19.4368,13.0128 -2.2624,1.2496 -4.5488,2.4608 -6.904,3.5248 -3.9408,-1.8128 -7.7344,-3.9328 -11.449598,-6.168 -10.8336,-6.608 -20.9056,-14.5568 -29.4672,-23.9456 -8.1408,-8.9264 -14.8608,-19.2704 -18.9344,-30.6832 -2.8832,-8.0448 -4.4384,-16.5728 -4.5088,-25.12 -0.1888,-11.7856 2.3488,-23.496 6.5328,-34.4736 0.2,-0.4896 0.3456,-1.0032 0.5952,-1.4704 0.52,-0.4064 1.1152,-0.704 1.6752,-1.0512 5.4032,-3.1344 11.136,-5.6816 17.0064,-7.8048 z"
     id="path6368"
     style="fill:#022b5d" />
  <path
     d="m 102.968,20.6096 c 3.5968,-0.3088 7.2128,-0.4256 10.8208,-0.32 0.3696,-0.005 0.7392,0.1856 0.9152,0.5168 0.1392,0.5728 0.0832,1.1696 0.096,1.7536 0.024,0.9888 0.0768,1.9808 0.0288,2.9712 -0.136,0.432 -0.6432,0.5696 -1.0496,0.5504 -0.7264,-0.016 -1.4512,-0.0672 -2.1776,-0.0336 1.6224,1.0528 3.1968,2.1792 4.8128,3.2432 -1.104,-0.0224 -2.2048,-0.0912 -3.3088,-0.096 -0.2304,0.006 -0.4144,-0.152 -0.5984,-0.2656 -2.1584,-1.4416 -4.3504,-2.8336 -6.4864,-4.3088 2.0176,-0.1072 4.0384,-0.1136 6.0592,-0.1008 v -2.68 c -2.1584,-0.0192 -4.3168,0.01 -6.472,0.1248 -0.1008,2.4336 -0.1184,4.8704 -0.1984,7.304 -0.9264,0.0752 -1.8544,0.12 -2.7808,0.192 0.0992,-2.9504 0.2096,-5.9024 0.3392,-8.8512 z m 14.144,-0.1904 c 4.1696,0.2128 8.3264,0.7072 12.4336,1.4528 0.0384,0.5264 0.0864,1.0528 0.1408,1.5792 -1.6288,-0.2752 -3.2576,-0.5552 -4.8976,-0.7552 0.1824,2.4688 0.408,4.9344 0.5824,7.4032 -0.92,-0.1136 -1.84,-0.224 -2.7616,-0.3216 -0.1472,-2.4688 -0.3488,-4.9344 -0.5104,-7.4032 -1.64,-0.168 -3.2848,-0.2864 -4.9296,-0.3968 -0.0144,-0.52 -0.0464,-1.0384 -0.0576,-1.5584 z M 97.302402,21.144 c 0.6144,-0.016 1.4272,-0.4144 1.8832,0.1872 0.0992,0.288 0.04,0.5984 0.032,0.896 -0.1824,2.248 -0.3472,4.4992 -0.5328,6.7472 -0.0144,0.584 -0.5824,0.9456 -1.1136,0.9936 -3.7616,0.4608 -7.4976,1.1232 -11.1952,1.9536 -0.3728,0.1408 -0.912,-0.096 -0.8016,-0.5568 0.3312,-2.464 0.672,-4.928 1.0096,-7.392 0.04,-0.6096 0.5952,-1.0272 1.1552,-1.1472 3.1552,-0.728 6.3536,-1.2576 9.5632,-1.6816 z m 34.700798,1.0864 c 0.8864,0.1872 1.7728,0.3664 2.656,0.568 0.3792,3.0176 0.752,6.0368 1.1552,9.0512 -0.9328,-0.2032 -1.864,-0.4144 -2.8032,-0.5792 l -1.008,-9.04 z"
     id="path6370"
     style="fill:#fdfefe" />
  <path
     d="m 89.188802,24.0464 c 2.408,-0.4944 4.832,-0.9056 7.2672,-1.2448 -0.1936,1.96 -0.3664,3.9232 -0.552,5.8832 -2.4944,0.344 -4.9744,0.7808 -7.44,1.2896 0.2288,-1.9776 0.4912,-3.9504 0.7248,-5.928 z"
     id="path6372"
     style="fill:#022b5d" />
  <path
     d="m 138.1008,23.6272 c 0.7328,0.1936 1.4672,0.3824 2.1984,0.5792 0.2224,0.0672 0.4688,0.1168 0.6304,0.3024 2.6736,2.7456 5.2128,5.6224 7.8688,8.3856 -0.392,-2.1216 -0.8176,-4.2368 -1.2144,-6.3568 0.8528,0.304 1.6976,0.6288 2.5424,0.9536 l 1.8496,9.2528 c -0.68,-0.256 -1.3536,-0.5248 -2.0384,-0.768 -0.2512,-0.1008 -0.5344,-0.1664 -0.7184,-0.3792 -2.6736,-2.8176 -5.2688,-5.7104 -7.9824,-8.4928 0.3168,2.1344 0.696,4.2576 1.0208,6.3904 -0.9184,-0.2512 -1.8352,-0.504 -2.7568,-0.7424 -0.4688,-3.0416 -0.9328,-6.0832 -1.4,-9.1248 z m -65.534398,3.8032 c 3.3088,-1.3456 6.7104,-2.4512 10.1472,-3.4176 0.3392,-0.1584 0.9072,-0.0112 0.8048,0.456 -0.1824,1.5568 -0.4464,3.104 -0.664,4.6576 -0.0592,0.608 -0.6064,1.0176 -1.1584,1.168 -1.7456,0.504 -3.4832,1.04 -5.2048,1.6272 -0.6096,-0.2832 -1.2096,-0.5824 -1.8192,-0.864 1.856,-0.6736 3.7248,-1.3184 5.6208,-1.8704 0.1824,-1.04 0.3536,-2.0816 0.512,-3.1248 -1.976,0.6176 -3.9536,1.2368 -5.8928,1.968 -0.2256,0.056 -0.1904,0.344 -0.2544,0.5184 -0.4688,2.424 -0.96,4.8448 -1.4256,7.2688 -0.896,0.3424 -1.7888,0.688 -2.6784,1.0464 0.6656,-3.1456 1.3376,-6.2896 2.0128,-9.4336 z m -13.0576,5.9952 c 2.816,-1.5776 5.7296,-2.9792 8.6848,-4.2752 0.2368,-0.1248 0.6816,-0.2288 0.7232,0.1552 -0.0896,0.7952 -0.352,1.56 -0.4928,2.3472 -0.8528,0.3696 -1.7056,0.7408 -2.5456,1.1392 0.1008,-0.4416 0.2032,-0.8816 0.3056,-1.3232 -1.9568,0.8944 -3.9056,1.8192 -5.776,2.8832 -0.2368,0.4848 -0.3264,1.0288 -0.4928,1.5408 2.5232,-0.68 5.0816,-1.224 7.6544,-1.6768 0.3104,0.4512 -0.006,0.9808 -0.072,1.4672 -0.2864,1.0384 -0.2352,2.4016 -1.3472,2.9568 -3.2496,1.4752 -6.424,3.112 -9.5248,4.8784 -0.2784,0.1328 -0.5632,0.3776 -0.8896,0.2624 -0.1248,-0.1872 0.003,-0.4128 0.0336,-0.608 0.208,-0.72 0.4208,-1.44 0.6192,-2.1616 0.8368,-0.496 1.672,-0.992 2.5232,-1.464 -0.1424,0.4992 -0.288,0.9968 -0.4224,1.4976 2.0368,-1.0768 4.056,-2.1888 6.1488,-3.1552 0.1312,-0.5488 0.2592,-1.096 0.384,-1.6464 -2.5056,0.4752 -4.9824,1.1008 -7.432,1.8048 -0.3616,0.1408 -0.272,-0.3312 -0.2016,-0.52 0.2544,-0.864 0.5088,-1.728 0.7744,-2.5888 0.2016,-0.6736 0.7392,-1.1888 1.3456,-1.5136 z M 153.8256,29.5728 c -0.12,-0.3904 0.344,-0.5696 0.64,-0.3952 3.0848,1.328 6.0864,2.8416 9.04,4.4416 0.5184,0.2672 0.9696,0.7072 1.1536,1.2736 0.2208,0.6816 0.3824,1.3808 0.5904,2.0672 -0.7952,-0.4496 -1.592,-0.8976 -2.3856,-1.3456 -0.0864,-0.3504 -0.1776,-0.6992 -0.2624,-1.0496 -1.9728,-1.0592 -3.9824,-2.0448 -6.0128,-2.984 0.5104,2.1504 1.0384,4.296 1.576,6.4416 2.104,0.9888 4.1792,2.0384 6.216,3.1616 -0.2,-0.7808 -0.4192,-1.5552 -0.6512,-2.3264 -0.7952,-0.456 -1.632,-0.8384 -2.4176,-1.3088 -0.5248,-0.5888 -0.92,-1.2816 -1.3904,-1.9136 1.968,0.9776 3.9056,2.0192 5.8176,3.1056 0.3856,1.4368 0.768,2.8736 1.16,4.3088 0.0624,0.2064 0.0736,0.4176 0.0368,0.632 -0.3632,0.136 -0.7024,-0.1712 -1.0208,-0.3072 -2.944,-1.6576 -5.9696,-3.1696 -9.0624,-4.5328 -0.5824,-0.2496 -1.1408,-0.7072 -1.2384,-1.368 -0.6048,-2.632 -1.1936,-5.2672 -1.7888,-7.9008 z"
     id="path6374"
     style="fill:#fdfefe" />
  <path
     d="m 52.664002,51.5584 c 8.9072,-5.392 18.5904,-9.4848 28.6432,-12.184 3.0496,3.4096 6.0368,6.8736 8.9824,10.3712 -14.0928,2.8 -27.6752,8.2944 -39.6032,16.3248 0.006,-4.9008 0.8512,-9.7568 1.9776,-14.512 z"
     id="path6376"
     style="fill:#98b3d5" />
  <path
     d="m 122.008,45.3584 c 2.504,-1.8608 5.5792,-2.9552 8.704,-3.0368 2.3872,-0.1216 4.7744,0.5376 6.832,1.7376 1.344,0.7856 2.6016,1.816 3.376,3.1904 0.7728,1.36 0.9376,3.0432 0.4832,4.5344 -0.3712,1.2256 -1.456,2.1328 -2.672,2.4576 -1.664,0.4672 -3.4256,0.3264 -5.1184,0.1264 -0.2608,0.0144 -0.1968,-0.3712 -0.005,-0.4304 1.0592,-0.7792 1.7264,-2.0416 1.7488,-3.3584 0.2688,-2.536 -2.0704,-5.0304 -4.6352,-4.824 -1.7872,-0.0176 -3.6064,0.784 -4.664,2.248 -0.768,1.112 -0.7424,2.5728 -0.4208,3.8352 0.5296,1.9744 1.5696,3.76 2.6448,5.4816 1.4256,2.216 3.0048,4.3328 4.704,6.3472 2.0752,2.4992 4.1712,4.9792 6.256,7.4704 2.2336,2.7568 4.3104,5.6736 5.8784,8.8672 3.456,7.0016 3.768,15.5168 0.6528,22.6944 -1.8528,-0.6352 -3.672,-1.4416 -5.2832,-2.5616 0.9952,-3.0336 1.1312,-6.3296 0.472,-9.448 -0.744,-3.6016 -2.3792,-6.9584 -4.3408,-10.0448 -1.2368,-2.0144 -2.8512,-3.7504 -4.2976,-5.6096 -2.264,-2.8048 -4.5232,-5.6144 -6.7888,-8.4192 -2.0352,-2.4672 -3.8992,-5.104 -5.2976,-7.9904 -1.1312,-2.3952 -1.9616,-5.0816 -1.512,-7.7504 0.3184,-2.1776 1.528,-4.1936 3.2832,-5.5168 z"
     id="path6378"
     style="fill:#fdfefe" />
  <path
     d="m 51.294402,75.1808 c 13.3072,-9.4864 28.9024,-15.6384 45.0288,-18.1648 2.9328,3.5664 5.828798,7.1648 8.703998,10.7776 -13.678398,1.2464 -27.158398,5.0112 -39.364798,11.3328 -4.1712,2.1504 -8.184,4.6064 -12.0064,7.328 -1.0208,-3.704 -1.7984,-7.4752 -2.3616,-11.2736 z"
     id="path6380"
     style="fill:#98b3d5" />
  <path
     d="m 177.1952,93.8464 c 3.6128,-9.392 5.2736,-19.4496 5.5248,-29.4848 V 160 h -71.2768 c 1.8224,-0.7376 3.528,-1.7312 5.2672,-2.6432 4.136,-2.2512 8.176,-4.68 12.1312,-7.2352 6.7392,-4.3968 13.36,-9.0224 19.408,-14.344 6.376,-5.5968 12.1216,-11.9232 16.9552,-18.8992 4.9536,-7.1264 8.9504,-14.9056 11.9904,-23.032 z M 138.1776,67.9872 c 3.672,-1.0384 7.5808,-1.3296 11.352,-0.6832 2.3728,0.4272 4.7168,1.2896 6.6336,2.7824 1.5152,1.1888 2.7088,2.88 3.0496,4.8 0.2528,1.4576 -0.1696,3.1328 -1.4016,4.0432 -1.3488,0.984 -3.1008,1.0832 -4.7088,1.0496 -0.6256,-0.0512 -1.28,0.0224 -1.8816,-0.176 l -0.1056,-0.1344 c 0.3392,-0.384 0.7664,-0.6832 1.064,-1.104 0.9552,-1.3024 1.0768,-3.1344 0.3888,-4.5824 -0.6912,-1.552 -2.192,-2.64 -3.832,-3 -2.1152,-0.4592 -4.3216,-0.5152 -6.4576,-0.1696 -0.5056,0.0672 -0.9824,0.296 -1.4928,0.3056 -0.584,-0.4496 -0.9888,-1.08 -1.4736,-1.6272 -0.3872,-0.4944 -0.8448,-0.9392 -1.1344,-1.504 z m -10.7728,6.7168 c 1.4528,1.536 2.7136,3.2416 4.0944,4.8416 0.1984,0.2688 0.5744,0.5344 0.4112,0.9136 -0.6688,2.7536 -0.64,5.6704 0.048,8.4176 0.6672,2.4992 1.6528,4.9344 3.128,7.0704 1.8336,2.7168 4.2816,5.0512 7.1952,6.5744 2.2032,1.1792 4.6672,1.8032 7.1424,2.048 3.424,0.32 7.0336,-0.264 9.9376,-2.1856 0.1632,-0.1072 0.5024,-0.3344 0.5648,0.0176 -0.976,2.1344 -3.1424,3.4272 -5.2448,4.2624 -2.5808,1.0112 -5.376,1.2576 -8.1216,1.3392 -5.6896,-0.0336 -11.2656,-2.3312 -15.5072,-6.088 -4.0992,-3.5168 -6.4448,-8.744 -7.1296,-14.0368 -0.4416,-4.6128 0.6944,-9.432 3.4816,-13.1744 z"
     id="path6382"
     style="fill:#fdfefe" />
  <path
     d="m 56.476802,94.4784 c 15.9488,-11.424 35.3808,-17.6224 54.919998,-18.4832 0.002,3.7696 0,7.5408 0,11.3104 -17.782398,1.0192 -35.446398,6.408 -50.287998,16.3616 -1.7504,-2.952 -3.3008,-6.024 -4.632,-9.1888 z m 9.3568,16.392 c 13.624,-8.6256 29.5232,-13.3856 45.563198,-14.5232 l 0.002,10.9168 c -13.657598,1.1088 -27.169598,4.8672 -39.188798,11.504 -2.248,-2.5296 -4.3936,-5.1536 -6.376,-7.8976 z"
     id="path6384"
     style="fill:#98b3d5" />
  <path
     d="m 133.416,111.984 c 0.9024,-0.9408 1.656,-2.008 2.5152,-2.984 1.5552,0.76 3.208,1.3104 4.9088,1.6304 -0.7296,1.0544 -1.6128,1.9904 -2.5312,2.88 -4.64,4.7216 -10.728,7.9632 -17.2064,9.2864 -0.6304,0.1088 -1.256,0.3056 -1.8976,0.304 -0.3264,0.002 -0.0528,-0.408 0.1168,-0.4352 5.24,-2.7504 10.0976,-6.2992 14.0944,-10.6816 z"
     id="path6386"
     style="fill:#fdfefe" />
  <path
     d="m 78.868802,125.6624 c 10.1824,-4.9168 21.291198,-7.7936 32.526398,-8.9056 0.005,3.5008 0,7.0016 0.003,10.5024 -8.2304,0.8864 -16.366398,2.744 -24.115198,5.6688 -2.9136,-2.2944 -5.704,-4.7376 -8.4144,-7.2656 z m 18.2816,14.408 c 4.667198,-1.296 9.438398,-2.2144 14.246398,-2.8032 -0.002,3.6672 0.006,7.3344 -0.005,11.0016 -4.9328,-2.392 -9.6576,-5.1968 -14.241598,-8.1984 z"
     id="path6388"
     style="fill:#98b3d5" />
  <path
     d="m 140.32,146.8032 c 1.1312,-0.002 2.264,-0.002 3.3968,0.002 v 0.632 l -1.3136,-0.002 c -0.0128,1.1488 -0.002,2.296 -0.006,3.4448 -0.24,-0.005 -0.4784,-0.005 -0.7152,-0.003 v -3.437 c -0.4544,-0.003 -0.9072,-0.006 -1.36,-0.005 l -0.002,-0.632 z m 3.8064,0.002 c 0.3504,-0.003 0.7008,-0.005 1.0528,-0.003 0.3328,1.0544 0.6592,2.1104 0.9984,3.1632 0.3344,-1.0528 0.6448,-2.1136 0.9856,-3.1632 0.3424,0 0.6864,0 1.0304,0.003 0.006,1.3568 0.002,2.7136 0.003,4.072 -0.2256,-0.002 -0.4512,0 -0.6736,0.003 -0.008,-1.0688 0.0176,-2.1392 -0.024,-3.2064 -0.312,1.0736 -0.6528,2.1376 -0.9776,3.208 -0.2288,-0.005 -0.4544,-0.008 -0.68,-0.006 -0.3424,-1.1072 -0.688,-2.2128 -1.0352,-3.3184 -0.016,1.1088 -0.006,2.216 -0.008,3.3248 -0.2256,-0.006 -0.4512,-0.008 -0.6752,-0.006 0.002,-1.3568 -0.005,-2.7136 0.003,-4.0704 z"
     id="path6390"
     style="fill:#9ca0a6" />
</svg>
