<?xml version="1.0" encoding="UTF-8" standalone="no"?>
<!-- Created with Inkscape (http://www.inkscape.org/) -->

<svg
   xmlns:dc="http://purl.org/dc/elements/1.1/"
   xmlns:cc="http://creativecommons.org/ns#"
   xmlns:rdf="http://www.w3.org/1999/02/22-rdf-syntax-ns#"
   xmlns:svg="http://www.w3.org/2000/svg"
   xmlns="http://www.w3.org/2000/svg"
   version="1.1"
   width="280"
   height="200"
   viewBox="0 0 280 199.99999"
   id="svg2">
  <metadata
     id="metadata42">
    <rdf:RDF>
      <cc:Work
         rdf:about="">
        <dc:format>image/svg+xml</dc:format>
        <dc:type
           rdf:resource="http://purl.org/dc/dcmitype/StillImage" />
        <dc:title></dc:title>
      </cc:Work>
    </rdf:RDF>
  </metadata>
  <defs
     id="defs40" />
  <pattern
     id="pattern4"
     overflow="visible"
     viewBox="2.125 -70.896 69 69"
     patternUnits="userSpaceOnUse"
     height="69"
     width="69"
     y="445.184"
     x="-140.598">
    <path
       id="path6"
       d="M71.125-1.896h-69v-69h69z"
       fill="none" />
    <path
       id="path8"
       d="M71.125-1.896h-69v-69h69z"
       fill="#F6BB60" />
    <g
       id="g10"
       fill="#fff">
      <path
         id="path12"
         d="M61.772-71.653c.018.072.007.127-.026.19l-.165.128c-.05.063-.099.276-.079.362-.169.058-.01.227-.015.35l-.045.161c-.01.119.017.266.068.37.097.198.268.413.435.544.19.148.365.572.608.631.177.042.384-.104.543-.143.18-.043.397.01.571-.053.222-.079.127-.337.288-.45.104-.074.287-.01.406-.051.2-.069.339-.263.376-.46l.039-.221c.039-.103.111-.16.09-.293l-.064-.187v-.337c-.003-.2.017-.379-.078-.55-.38-.688-1.236-.929-1.975-.789-.18.034-.287.126-.442.207-.17.088-.139.166-.318.224-.081.026-.216.124-.215.224l.012.169-.03-.025M54.105-71.653c.018.072.007.127-.026.19l-.165.128c-.05.063-.099.276-.079.362-.169.058-.01.227-.015.35l-.045.161c-.01.119.017.266.068.37.097.198.268.413.435.544.19.148.365.572.608.631.177.042.384-.104.543-.143.18-.043.397.01.571-.053.222-.079.127-.337.288-.45.104-.074.287-.01.406-.051.2-.069.339-.263.376-.46l.039-.221c.039-.103.111-.16.09-.293l-.064-.187v-.337c-.003-.2.017-.379-.078-.55-.38-.688-1.236-.929-1.975-.789-.18.034-.287.126-.442.207-.17.088-.139.166-.318.224-.081.026-.216.124-.215.224l.012.169-.03-.025M46.439-71.653c.018.072.007.127-.026.19l-.165.128c-.05.063-.099.276-.079.362-.169.058-.01.227-.015.35l-.045.161c-.01.119.017.266.068.37.097.198.268.413.435.544.19.148.365.572.608.631.177.042.384-.104.543-.143.18-.043.397.01.571-.053.222-.079.127-.337.288-.45.104-.074.287-.01.406-.051.2-.069.339-.263.376-.46l.039-.221c.039-.103.111-.16.09-.293l-.064-.187v-.337c-.003-.2.017-.379-.078-.55-.38-.688-1.236-.929-1.975-.789-.18.034-.287.126-.442.207-.17.088-.139.166-.318.224-.081.026-.216.124-.215.224l.012.169-.03-.025M38.772-71.653c.018.072.007.127-.026.19l-.165.128c-.05.063-.099.276-.079.362-.169.058-.01.227-.015.35l-.045.161c-.01.119.017.266.068.37.097.198.268.413.435.544.19.148.365.572.608.631.177.042.384-.104.543-.143.18-.043.397.01.571-.053.222-.079.127-.337.288-.45.104-.074.287-.01.406-.051.2-.069.339-.263.376-.46l.039-.221c.039-.103.111-.16.09-.293l-.064-.187v-.337c-.003-.2.017-.379-.078-.55-.38-.688-1.236-.929-1.975-.789-.18.034-.287.126-.442.207-.17.088-.139.166-.318.224-.081.026-.216.124-.215.224l.012.169-.03-.025M31.105-71.653c.018.072.007.127-.026.19l-.165.128c-.05.063-.099.276-.079.362-.169.058-.01.227-.015.35l-.045.161c-.01.119.017.266.068.37.097.198.268.413.435.544.19.148.365.572.608.631.177.042.384-.104.543-.143.18-.043.397.01.571-.053.222-.079.127-.337.288-.45.104-.074.287-.01.406-.051.2-.069.339-.263.376-.46l.039-.221c.039-.103.111-.16.09-.293l-.064-.187v-.337c-.003-.2.017-.379-.078-.55-.38-.688-1.236-.929-1.975-.789-.18.034-.287.126-.442.207-.17.088-.139.166-.318.224-.081.026-.216.124-.215.224l.012.169-.03-.025M23.439-71.653c.018.072.007.127-.026.19l-.165.128c-.05.063-.099.276-.079.362-.169.058-.01.227-.015.35l-.045.161c-.01.119.017.266.068.37.097.198.268.413.435.544.19.148.365.572.608.631.177.042.384-.104.543-.143.18-.043.397.01.571-.053.222-.079.127-.337.288-.45.104-.074.287-.01.406-.051.2-.069.339-.263.376-.46l.039-.221c.039-.103.111-.16.09-.293l-.064-.187v-.337c-.003-.2.017-.379-.078-.55-.38-.688-1.236-.929-1.975-.789-.18.034-.287.126-.442.207-.17.088-.139.166-.318.224-.081.026-.216.124-.215.224l.012.169-.03-.025M15.772-71.653c.018.072.007.127-.026.19l-.165.128c-.05.063-.099.276-.079.362-.169.058-.01.227-.015.35l-.045.161c-.01.119.017.266.068.37.097.198.268.413.435.544.19.148.365.572.608.631.177.042.384-.104.543-.143.18-.043.397.01.571-.053.222-.079.127-.337.288-.45.104-.074.287-.01.406-.051.2-.069.339-.263.376-.46l.039-.221c.039-.103.111-.16.09-.293l-.064-.187v-.337c-.003-.2.017-.379-.078-.55-.38-.688-1.236-.929-1.975-.789-.18.034-.287.126-.442.207-.17.088-.139.166-.318.224-.081.026-.216.124-.215.224l.012.169-.03-.025M8.105-71.653c.018.072.007.127-.026.19l-.165.128c-.05.063-.099.276-.079.362-.169.058-.01.227-.015.35l-.045.161c-.01.119.017.266.068.37.097.198.268.413.435.544.19.148.365.572.608.631.177.042.384-.104.543-.143.18-.043.397.01.571-.053.222-.079.127-.337.288-.45.104-.074.287-.01.406-.051.2-.069.339-.263.376-.46l.039-.221c.039-.103.111-.16.09-.293l-.064-.187v-.337c-.003-.2.017-.379-.078-.55-.38-.688-1.236-.929-1.975-.789-.18.034-.287.126-.442.207-.17.088-.139.166-.318.224-.081.026-.216.124-.215.224l.012.169-.03-.025M.439-71.653c.018.072.008.127-.026.19l-.165.128c-.051.063-.099.276-.079.362-.169.058-.01.227-.015.35l-.045.161c-.01.119.017.266.068.37.097.198.268.413.435.544.19.148.365.572.608.631.177.042.384-.104.543-.143.18-.043.397.01.571-.053.222-.079.127-.337.288-.45.104-.074.287-.01.406-.051.2-.07.339-.263.376-.46l.039-.221c.038-.103.111-.16.09-.293l-.064-.187v-.337c-.003-.2.017-.379-.078-.55-.38-.688-1.236-.929-1.975-.789-.18.034-.287.126-.442.207-.17.088-.139.166-.318.224-.081.026-.215.124-.215.224l.012.169-.03-.025" />
    </g>
    <path
       id="path14"
       d="M69.439-71.653c.018.072.008.127-.026.19l-.165.128c-.051.063-.099.276-.079.362-.169.058-.01.227-.015.35l-.045.161c-.01.119.017.266.068.37.097.198.268.413.435.544.19.148.365.572.608.631.177.042.384-.104.543-.143.18-.043.397.01.571-.053.222-.079.127-.337.288-.45.104-.074.287-.01.406-.051.2-.07.339-.263.376-.46l.039-.221c.038-.103.111-.16.09-.293l-.064-.187v-.337c-.003-.2.017-.379-.078-.55-.38-.688-1.236-.929-1.975-.789-.18.034-.287.126-.442.207-.17.088-.139.166-.318.224-.081.026-.215.124-.215.224l.012.169-.03-.025M.495-71.653c.018.072.008.127-.026.19l-.165.128c-.051.063-.099.276-.079.362-.169.058-.01.227-.015.35l-.045.161c-.01.119.017.266.068.37.097.198.268.413.435.544.19.148.365.572.608.631.177.042.384-.104.543-.143.18-.043.397.01.571-.053.222-.079.127-.337.288-.45.104-.074.287-.01.406-.051.2-.07.339-.263.376-.46l.039-.221c.038-.103.111-.16.09-.293l-.064-.187v-.337c-.003-.2.017-.379-.078-.55-.38-.688-1.236-.929-1.975-.789-.18.034-.287.126-.442.207-.17.088-.139.166-.318.224-.081.026-.215.124-.215.224l.013.17-.03-.025"
       fill="#fff" />
    <g
       id="g16"
       fill="#fff">
      <path
         id="path18"
         d="M69.439-64.001c.018.072.007.127-.026.19l-.165.128c-.05.063-.099.276-.079.362-.169.058-.01.227-.015.35l-.045.161c-.01.119.017.266.068.37.097.198.268.413.435.544.19.148.365.572.608.631.177.042.384-.104.543-.143.18-.043.397.01.571-.053.222-.079.127-.337.288-.45.104-.074.287-.01.406-.051.2-.069.339-.263.376-.46l.039-.221c.039-.103.111-.16.09-.293l-.064-.187v-.337c-.003-.2.017-.379-.078-.55-.38-.688-1.236-.929-1.975-.789-.18.034-.287.126-.442.207-.17.088-.139.166-.318.224-.081.026-.216.124-.215.224l.012.169-.03-.025M61.778-64.001c.018.072.007.127-.026.19l-.165.128c-.05.063-.099.276-.079.362-.169.058-.009.227-.015.35l-.045.161c-.01.119.017.266.068.37.097.198.268.413.435.544.19.148.365.572.608.631.177.042.384-.104.543-.143.18-.043.397.01.571-.053.222-.079.127-.337.288-.45.104-.074.287-.01.406-.051.2-.069.339-.263.376-.46l.039-.221c.039-.103.111-.16.09-.293l-.064-.187v-.337c-.003-.2.017-.379-.078-.55-.38-.688-1.236-.929-1.975-.789-.18.034-.287.126-.442.207-.17.088-.139.166-.318.224-.081.026-.216.124-.215.224l.012.169-.03-.025M54.118-64.001c.018.072.007.127-.026.19l-.165.128c-.05.063-.099.276-.079.362-.169.058-.009.227-.015.35l-.045.161c-.01.119.017.266.068.37.097.198.268.413.435.544.19.148.365.572.608.631.177.042.384-.104.543-.143.18-.043.397.01.571-.053.222-.079.127-.337.288-.45.104-.074.287-.01.406-.051.2-.069.339-.263.376-.46l.039-.221c.039-.103.111-.16.09-.293l-.064-.187v-.337c-.003-.2.017-.379-.078-.55-.38-.688-1.236-.929-1.975-.789-.18.034-.287.126-.442.207-.17.088-.139.166-.318.224-.081.026-.216.124-.215.224l.012.169-.03-.025M46.458-64.001c.018.072.007.127-.026.19l-.165.128c-.05.063-.099.276-.079.362-.169.058-.009.227-.015.35l-.045.161c-.01.119.017.266.068.37.097.198.268.413.435.544.19.148.365.572.608.631.177.042.384-.104.543-.143.18-.043.397.01.571-.053.222-.079.127-.337.288-.45.104-.074.287-.01.406-.051.2-.069.339-.263.376-.46l.039-.221c.039-.103.111-.16.09-.293l-.064-.187v-.337c-.003-.2.017-.379-.078-.55-.38-.688-1.236-.929-1.975-.789-.18.034-.287.126-.442.207-.17.088-.139.166-.318.224-.081.026-.216.124-.215.224l.012.169-.03-.025M38.797-64.001c.018.072.007.127-.026.19l-.165.128c-.05.063-.099.276-.079.362-.169.058-.009.227-.015.35l-.045.161c-.01.119.017.266.068.37.097.198.268.413.435.544.19.148.365.572.608.631.177.042.384-.104.543-.143.18-.043.397.01.571-.053.222-.079.127-.337.288-.45.104-.074.287-.01.406-.051.2-.069.339-.263.376-.46l.039-.221c.039-.103.111-.16.09-.293l-.064-.187v-.337c-.003-.2.017-.379-.078-.55-.38-.688-1.236-.929-1.975-.789-.18.034-.287.126-.442.207-.17.088-.139.166-.318.224-.081.026-.216.124-.215.224l.012.169-.03-.025M31.137-64.001c.018.072.007.127-.026.19l-.165.128c-.05.063-.099.276-.079.362-.169.058-.009.227-.015.35l-.045.161c-.01.119.017.266.068.37.097.198.268.413.435.544.19.148.365.572.608.631.177.042.384-.104.543-.143.18-.043.397.01.571-.053.222-.079.127-.337.288-.45.104-.074.287-.01.406-.051.2-.069.339-.263.376-.46l.039-.221c.039-.103.111-.16.09-.293l-.064-.187v-.337c-.003-.2.017-.379-.078-.55-.38-.688-1.236-.929-1.975-.789-.18.034-.287.126-.442.207-.17.088-.139.166-.318.224-.081.026-.216.124-.215.224l.012.169-.03-.025M23.477-64.001c.018.072.007.127-.026.19l-.165.128c-.05.063-.099.276-.079.362-.169.058-.009.227-.015.35l-.045.161c-.01.119.017.266.068.37.097.198.268.413.435.544.19.148.365.572.608.631.177.042.384-.104.543-.143.18-.043.397.01.571-.053.222-.079.127-.337.288-.45.104-.074.287-.01.406-.051.2-.069.339-.263.376-.46l.039-.221c.039-.103.111-.16.09-.293l-.064-.187v-.337c-.003-.2.017-.379-.078-.55-.38-.688-1.236-.929-1.975-.789-.18.034-.287.126-.442.207-.17.088-.139.166-.318.224-.081.026-.216.124-.215.224l.012.169-.03-.025M15.816-64.001c.018.072.007.127-.026.19l-.165.128c-.05.063-.099.276-.079.362-.169.058-.009.227-.015.35l-.045.161c-.01.119.017.266.068.37.097.198.268.413.435.544.19.148.365.572.608.631.177.042.384-.104.543-.143.18-.043.397.01.571-.053.222-.079.127-.337.288-.45.104-.074.287-.01.406-.051.2-.069.339-.263.376-.46l.039-.221c.039-.103.111-.16.09-.293l-.064-.187v-.337c-.003-.2.017-.379-.078-.55-.38-.688-1.236-.929-1.975-.789-.18.034-.287.126-.442.207-.17.088-.139.166-.318.224-.081.026-.216.124-.215.224l.012.169-.03-.025M8.156-64.001c.018.072.007.127-.026.19l-.165.128c-.05.063-.099.276-.079.362-.169.058-.009.227-.015.35l-.045.161c-.01.119.017.266.068.37.097.198.268.413.435.544.19.148.365.572.608.631.177.042.384-.104.543-.143.18-.043.397.01.571-.053.222-.079.127-.337.288-.45.104-.074.287-.01.406-.051.2-.069.339-.263.376-.46l.039-.221c.039-.103.111-.16.09-.293l-.064-.187v-.337c-.003-.2.017-.379-.078-.55-.38-.688-1.236-.929-1.975-.789-.18.034-.287.126-.442.207-.17.088-.139.166-.318.224-.081.026-.216.124-.215.224l.012.169-.03-.025M.495-64.001c.018.072.007.127-.026.19l-.165.128c-.05.063-.099.276-.079.362-.169.058-.01.227-.015.35l-.045.161c-.01.119.017.266.068.37.097.198.268.413.435.544.19.148.365.572.608.631.177.042.384-.104.543-.143.181-.042.398.011.572-.052.222-.079.127-.337.288-.45.104-.074.287-.01.406-.051.2-.069.339-.263.376-.46l.039-.221c.039-.103.111-.16.09-.293l-.064-.187v-.337c-.003-.2.017-.379-.078-.55-.38-.688-1.236-.929-1.975-.789-.18.034-.287.126-.442.207-.17.088-.139.166-.318.224-.081.026-.216.124-.215.224l.012.169-.03-.025M69.439-56.348c.018.072.007.127-.026.19l-.165.128c-.05.063-.099.276-.079.362-.169.058-.01.227-.015.35l-.045.161c-.01.119.017.266.068.37.097.198.268.413.435.544.19.148.365.572.608.631.177.042.384-.104.543-.143.18-.043.397.01.571-.053.222-.079.127-.337.288-.45.104-.074.287-.01.406-.051.2-.069.339-.263.376-.46l.039-.221c.039-.103.111-.16.09-.293l-.064-.187v-.337c-.003-.2.017-.379-.078-.55-.38-.688-1.236-.929-1.975-.789-.18.034-.287.126-.442.207-.17.088-.139.166-.318.224-.081.026-.216.124-.215.224l.012.169-.03-.025M61.778-56.348c.018.072.007.127-.026.19l-.165.128c-.05.063-.099.276-.079.362-.169.058-.009.227-.015.35l-.045.161c-.01.119.017.266.068.37.097.198.268.413.435.544.19.148.365.572.608.631.177.042.384-.104.543-.143.18-.043.397.01.571-.053.222-.079.127-.337.288-.45.104-.074.287-.01.406-.051.2-.069.339-.263.376-.46l.039-.221c.039-.103.111-.16.09-.293l-.064-.187v-.337c-.003-.2.017-.379-.078-.55-.38-.688-1.236-.929-1.975-.789-.18.034-.287.126-.442.207-.17.088-.139.166-.318.224-.081.026-.216.124-.215.224l.012.169-.03-.025M54.118-56.348c.018.072.007.127-.026.19l-.165.128c-.05.063-.099.276-.079.362-.169.058-.009.227-.015.35l-.045.161c-.01.119.017.266.068.37.097.198.268.413.435.544.19.148.365.572.608.631.177.042.384-.104.543-.143.18-.043.397.01.571-.053.222-.079.127-.337.288-.45.104-.074.287-.01.406-.051.2-.069.339-.263.376-.46l.039-.221c.039-.103.111-.16.09-.293l-.064-.187v-.337c-.003-.2.017-.379-.078-.55-.38-.688-1.236-.929-1.975-.789-.18.034-.287.126-.442.207-.17.088-.139.166-.318.224-.081.026-.216.124-.215.224l.012.169-.03-.025M46.458-56.348c.018.072.007.127-.026.19l-.165.128c-.05.063-.099.276-.079.362-.169.058-.009.227-.015.35l-.045.161c-.01.119.017.266.068.37.097.198.268.413.435.544.19.148.365.572.608.631.177.042.384-.104.543-.143.18-.043.397.01.571-.053.222-.079.127-.337.288-.45.104-.074.287-.01.406-.051.2-.069.339-.263.376-.46l.039-.221c.039-.103.111-.16.09-.293l-.064-.187v-.337c-.003-.2.017-.379-.078-.55-.38-.688-1.236-.929-1.975-.789-.18.034-.287.126-.442.207-.17.088-.139.166-.318.224-.081.026-.216.124-.215.224l.012.169-.03-.025M38.797-56.348c.018.072.007.127-.026.19l-.165.128c-.05.063-.099.276-.079.362-.169.058-.009.227-.015.35l-.045.161c-.01.119.017.266.068.37.097.198.268.413.435.544.19.148.365.572.608.631.177.042.384-.104.543-.143.18-.043.397.01.571-.053.222-.079.127-.337.288-.45.104-.074.287-.01.406-.051.2-.069.339-.263.376-.46l.039-.221c.039-.103.111-.16.09-.293l-.064-.187v-.337c-.003-.2.017-.379-.078-.55-.38-.688-1.236-.929-1.975-.789-.18.034-.287.126-.442.207-.17.088-.139.166-.318.224-.081.026-.216.124-.215.224l.012.169-.03-.025M31.137-56.348c.018.072.007.127-.026.19l-.165.128c-.05.063-.099.276-.079.362-.169.058-.009.227-.015.35l-.045.161c-.01.119.017.266.068.37.097.198.268.413.435.544.19.148.365.572.608.631.177.042.384-.104.543-.143.18-.043.397.01.571-.053.222-.079.127-.337.288-.45.104-.074.287-.01.406-.051.2-.069.339-.263.376-.46l.039-.221c.039-.103.111-.16.09-.293l-.064-.187v-.337c-.003-.2.017-.379-.078-.55-.38-.688-1.236-.929-1.975-.789-.18.034-.287.126-.442.207-.17.088-.139.166-.318.224-.081.026-.216.124-.215.224l.012.169-.03-.025M23.477-56.348c.018.072.007.127-.026.19l-.165.128c-.05.063-.099.276-.079.362-.169.058-.009.227-.015.35l-.045.161c-.01.119.017.266.068.37.097.198.268.413.435.544.19.148.365.572.608.631.177.042.384-.104.543-.143.18-.043.397.01.571-.053.222-.079.127-.337.288-.45.104-.074.287-.01.406-.051.2-.069.339-.263.376-.46l.039-.221c.039-.103.111-.16.09-.293l-.064-.187v-.337c-.003-.2.017-.379-.078-.55-.38-.688-1.236-.929-1.975-.789-.18.034-.287.126-.442.207-.17.088-.139.166-.318.224-.081.026-.216.124-.215.224l.012.169-.03-.025M15.816-56.348c.018.072.007.127-.026.19l-.165.128c-.05.063-.099.276-.079.362-.169.058-.009.227-.015.35l-.045.161c-.01.119.017.266.068.37.097.198.268.413.435.544.19.148.365.572.608.631.177.042.384-.104.543-.143.18-.043.397.01.571-.053.222-.079.127-.337.288-.45.104-.074.287-.01.406-.051.2-.069.339-.263.376-.46l.039-.221c.039-.103.111-.16.09-.293l-.064-.187v-.337c-.003-.2.017-.379-.078-.55-.38-.688-1.236-.929-1.975-.789-.18.034-.287.126-.442.207-.17.088-.139.166-.318.224-.081.026-.216.124-.215.224l.012.169-.03-.025M8.156-56.348c.018.072.007.127-.026.19l-.165.128c-.05.063-.099.276-.079.362-.169.058-.009.227-.015.35l-.045.161c-.01.119.017.266.068.37.097.198.268.413.435.544.19.148.365.572.608.631.177.042.384-.104.543-.143.18-.043.397.01.571-.053.222-.079.127-.337.288-.45.104-.074.287-.01.406-.051.2-.069.339-.263.376-.46l.039-.221c.039-.103.111-.16.09-.293l-.064-.187v-.337c-.003-.2.017-.379-.078-.55-.38-.688-1.236-.929-1.975-.789-.18.034-.287.126-.442.207-.17.088-.139.166-.318.224-.081.026-.216.124-.215.224l.012.169-.03-.025M.495-56.348c.018.072.007.127-.026.19l-.165.128c-.05.063-.099.276-.079.362-.169.058-.01.227-.015.35l-.045.161c-.01.119.017.266.068.37.097.198.268.413.435.544.19.148.365.572.608.631.177.042.384-.104.543-.143.18-.043.397.01.571-.053.222-.079.127-.337.288-.45.104-.074.287-.01.406-.051.2-.069.339-.263.376-.46l.039-.221c.039-.103.111-.16.09-.293l-.064-.187v-.337c-.003-.2.017-.379-.078-.55-.38-.688-1.236-.929-1.975-.789-.18.034-.287.126-.442.207-.17.088-.139.166-.318.224-.081.026-.216.124-.215.224l.013.171-.03-.025M69.439-48.695c.018.072.007.127-.026.19l-.165.128c-.05.063-.099.276-.079.362-.169.058-.01.227-.015.35l-.045.161c-.01.119.017.266.068.37.097.198.268.413.435.544.19.148.365.572.608.631.177.042.384-.104.543-.143.18-.043.397.01.571-.053.222-.079.127-.337.288-.45.104-.074.287-.01.406-.051.2-.069.339-.263.376-.46l.039-.221c.039-.103.111-.16.09-.293l-.064-.187v-.337c-.003-.2.017-.379-.078-.55-.38-.688-1.236-.929-1.975-.789-.18.034-.287.126-.442.207-.17.088-.139.166-.318.224-.081.026-.216.124-.215.224l.012.169-.03-.025M61.778-48.695c.018.072.007.127-.026.19l-.165.128c-.05.063-.099.276-.079.362-.169.058-.009.227-.015.35l-.045.161c-.01.119.017.266.068.37.097.198.268.413.435.544.19.148.365.572.608.631.177.042.384-.104.543-.143.18-.043.397.01.571-.053.222-.079.127-.337.288-.45.104-.074.287-.01.406-.051.2-.069.339-.263.376-.46l.039-.221c.039-.103.111-.16.09-.293l-.064-.187v-.337c-.003-.2.017-.379-.078-.55-.38-.688-1.236-.929-1.975-.789-.18.034-.287.126-.442.207-.17.088-.139.166-.318.224-.081.026-.216.124-.215.224l.012.169-.03-.025M54.118-48.695c.018.072.007.127-.026.19l-.165.128c-.05.063-.099.276-.079.362-.169.058-.009.227-.015.35l-.045.161c-.01.119.017.266.068.37.097.198.268.413.435.544.19.148.365.572.608.631.177.042.384-.104.543-.143.18-.043.397.01.571-.053.222-.079.127-.337.288-.45.104-.074.287-.01.406-.051.2-.069.339-.263.376-.46l.039-.221c.039-.103.111-.16.09-.293l-.064-.187v-.337c-.003-.2.017-.379-.078-.55-.38-.688-1.236-.929-1.975-.789-.18.034-.287.126-.442.207-.17.088-.139.166-.318.224-.081.026-.216.124-.215.224l.012.169-.03-.025M46.458-48.695c.018.072.007.127-.026.19l-.165.128c-.05.063-.099.276-.079.362-.169.058-.009.227-.015.35l-.045.161c-.01.119.017.266.068.37.097.198.268.413.435.544.19.148.365.572.608.631.177.042.384-.104.543-.143.18-.043.397.01.571-.053.222-.079.127-.337.288-.45.104-.074.287-.01.406-.051.2-.069.339-.263.376-.46l.039-.221c.039-.103.111-.16.09-.293l-.064-.187v-.337c-.003-.2.017-.379-.078-.55-.38-.688-1.236-.929-1.975-.789-.18.034-.287.126-.442.207-.17.088-.139.166-.318.224-.081.026-.216.124-.215.224l.012.169-.03-.025M38.797-48.695c.018.072.007.127-.026.19l-.165.128c-.05.063-.099.276-.079.362-.169.058-.009.227-.015.35l-.045.161c-.01.119.017.266.068.37.097.198.268.413.435.544.19.148.365.572.608.631.177.042.384-.104.543-.143.18-.043.397.01.571-.053.222-.079.127-.337.288-.45.104-.074.287-.01.406-.051.2-.069.339-.263.376-.46l.039-.221c.039-.103.111-.16.09-.293l-.064-.187v-.337c-.003-.2.017-.379-.078-.55-.38-.688-1.236-.929-1.975-.789-.18.034-.287.126-.442.207-.17.088-.139.166-.318.224-.081.026-.216.124-.215.224l.012.169-.03-.025M31.137-48.695c.018.072.007.127-.026.19l-.165.128c-.05.063-.099.276-.079.362-.169.058-.009.227-.015.35l-.045.161c-.01.119.017.266.068.37.097.198.268.413.435.544.19.148.365.572.608.631.177.042.384-.104.543-.143.18-.043.397.01.571-.053.222-.079.127-.337.288-.45.104-.074.287-.01.406-.051.2-.069.339-.263.376-.46l.039-.221c.039-.103.111-.16.09-.293l-.064-.187v-.337c-.003-.2.017-.379-.078-.55-.38-.688-1.236-.929-1.975-.789-.18.034-.287.126-.442.207-.17.088-.139.166-.318.224-.081.026-.216.124-.215.224l.012.169-.03-.025M23.477-48.695c.018.072.007.127-.026.19l-.165.128c-.05.063-.099.276-.079.362-.169.058-.009.227-.015.35l-.045.161c-.01.119.017.266.068.37.097.198.268.413.435.544.19.148.365.572.608.631.177.042.384-.104.543-.143.18-.043.397.01.571-.053.222-.079.127-.337.288-.45.104-.074.287-.01.406-.051.2-.069.339-.263.376-.46l.039-.221c.039-.103.111-.16.09-.293l-.064-.187v-.337c-.003-.2.017-.379-.078-.55-.38-.688-1.236-.929-1.975-.789-.18.034-.287.126-.442.207-.17.088-.139.166-.318.224-.081.026-.216.124-.215.224l.012.169-.03-.025M15.816-48.695c.018.072.007.127-.026.19l-.165.128c-.05.063-.099.276-.079.362-.169.058-.009.227-.015.35l-.045.161c-.01.119.017.266.068.37.097.198.268.413.435.544.19.148.365.572.608.631.177.042.384-.104.543-.143.18-.043.397.01.571-.053.222-.079.127-.337.288-.45.104-.074.287-.01.406-.051.2-.069.339-.263.376-.46l.039-.221c.039-.103.111-.16.09-.293l-.064-.187v-.337c-.003-.2.017-.379-.078-.55-.38-.688-1.236-.929-1.975-.789-.18.034-.287.126-.442.207-.17.088-.139.166-.318.224-.081.026-.216.124-.215.224l.012.169-.03-.025M8.156-48.695c.018.072.007.127-.026.19l-.165.128c-.05.063-.099.276-.079.362-.169.058-.009.227-.015.35l-.045.161c-.01.119.017.266.068.37.097.198.268.413.435.544.19.148.365.572.608.631.177.042.384-.104.543-.143.18-.043.397.01.571-.053.222-.079.127-.337.288-.45.104-.074.287-.01.406-.051.2-.069.339-.263.376-.46l.039-.221c.039-.103.111-.16.09-.293l-.064-.187v-.337c-.003-.2.017-.379-.078-.55-.38-.688-1.236-.929-1.975-.789-.18.034-.287.126-.442.207-.17.088-.139.166-.318.224-.081.026-.216.124-.215.224l.012.169-.03-.025M.495-48.695c.018.072.007.127-.026.19l-.165.128c-.05.063-.099.276-.079.362-.169.058-.01.227-.015.35l-.045.161c-.01.119.017.266.068.37.097.198.268.413.435.544.19.148.365.572.608.631.177.042.384-.104.543-.143.18-.043.397.01.571-.053.222-.079.127-.337.288-.45.104-.074.287-.01.406-.051.2-.069.339-.263.376-.46l.039-.221c.039-.103.111-.16.09-.293l-.064-.187v-.337c-.003-.2.017-.379-.078-.55-.38-.688-1.236-.929-1.975-.789-.18.034-.287.126-.442.207-.17.088-.139.166-.318.224-.081.026-.216.124-.215.224l.012.169-.03-.025M69.439-41.042c.018.072.007.127-.026.19l-.165.128c-.05.063-.099.276-.079.362-.169.058-.01.227-.015.35l-.045.161c-.01.119.017.266.068.37.097.198.268.413.435.544.19.148.365.572.608.631.177.042.384-.104.543-.143.18-.043.397.01.571-.053.222-.079.127-.337.288-.45.104-.074.287-.01.406-.051.2-.069.339-.263.376-.46l.039-.221c.039-.103.111-.16.09-.293l-.064-.187v-.337c-.003-.2.017-.379-.078-.55-.38-.688-1.236-.929-1.975-.789-.18.034-.287.126-.442.207-.17.088-.139.166-.318.224-.081.026-.216.124-.215.224l.012.169-.03-.025M61.778-41.042c.018.072.007.127-.026.19l-.165.128c-.05.063-.099.276-.079.362-.169.058-.009.227-.015.35l-.045.161c-.01.119.017.266.068.37.097.198.268.413.435.544.19.148.365.572.608.631.177.042.384-.104.543-.143.18-.043.397.01.571-.053.222-.079.127-.337.288-.45.104-.074.287-.01.406-.051.2-.069.339-.263.376-.46l.039-.221c.039-.103.111-.16.09-.293l-.064-.187v-.337c-.003-.2.017-.379-.078-.55-.38-.688-1.236-.929-1.975-.789-.18.034-.287.126-.442.207-.17.088-.139.166-.318.224-.081.026-.216.124-.215.224l.012.169-.03-.025M54.118-41.042c.018.072.007.127-.026.19l-.165.128c-.05.063-.099.276-.079.362-.169.058-.009.227-.015.35l-.045.161c-.01.119.017.266.068.37.097.198.268.413.435.544.19.148.365.572.608.631.177.042.384-.104.543-.143.18-.043.397.01.571-.053.222-.079.127-.337.288-.45.104-.074.287-.01.406-.051.2-.069.339-.263.376-.46l.039-.221c.039-.103.111-.16.09-.293l-.064-.187v-.337c-.003-.2.017-.379-.078-.55-.38-.688-1.236-.929-1.975-.789-.18.034-.287.126-.442.207-.17.088-.139.166-.318.224-.081.026-.216.124-.215.224l.012.169-.03-.025M46.458-41.042c.018.072.007.127-.026.19l-.165.128c-.05.063-.099.276-.079.362-.169.058-.009.227-.015.35l-.045.161c-.01.119.017.266.068.37.097.198.268.413.435.544.19.148.365.572.608.631.177.042.384-.104.543-.143.18-.043.397.01.571-.053.222-.079.127-.337.288-.45.104-.074.287-.01.406-.051.2-.069.339-.263.376-.46l.039-.221c.039-.103.111-.16.09-.293l-.064-.187v-.337c-.003-.2.017-.379-.078-.55-.38-.688-1.236-.929-1.975-.789-.18.034-.287.126-.442.207-.17.088-.139.166-.318.224-.081.026-.216.124-.215.224l.012.169-.03-.025M38.797-41.042c.018.072.007.127-.026.19l-.165.128c-.05.063-.099.276-.079.362-.169.058-.009.227-.015.35l-.045.161c-.01.119.017.266.068.37.097.198.268.413.435.544.19.148.365.572.608.631.177.042.384-.104.543-.143.18-.043.397.01.571-.053.222-.079.127-.337.288-.45.104-.074.287-.01.406-.051.2-.069.339-.263.376-.46l.039-.221c.039-.103.111-.16.09-.293l-.064-.187v-.337c-.003-.2.017-.379-.078-.55-.38-.688-1.236-.929-1.975-.789-.18.034-.287.126-.442.207-.17.088-.139.166-.318.224-.081.026-.216.124-.215.224l.012.169-.03-.025M31.137-41.042c.018.072.007.127-.026.19l-.165.128c-.05.063-.099.276-.079.362-.169.058-.009.227-.015.35l-.045.161c-.01.119.017.266.068.37.097.198.268.413.435.544.19.148.365.572.608.631.177.042.384-.104.543-.143.18-.043.397.01.571-.053.222-.079.127-.337.288-.45.104-.074.287-.01.406-.051.2-.069.339-.263.376-.46l.039-.221c.039-.103.111-.16.09-.293l-.064-.187v-.337c-.003-.2.017-.379-.078-.55-.38-.688-1.236-.929-1.975-.789-.18.034-.287.126-.442.207-.17.088-.139.166-.318.224-.081.026-.216.124-.215.224l.012.169-.03-.025M23.477-41.042c.018.072.007.127-.026.19l-.165.128c-.05.063-.099.276-.079.362-.169.058-.009.227-.015.35l-.045.161c-.01.119.017.266.068.37.097.198.268.413.435.544.19.148.365.572.608.631.177.042.384-.104.543-.143.18-.043.397.01.571-.053.222-.079.127-.337.288-.45.104-.074.287-.01.406-.051.2-.069.339-.263.376-.46l.039-.221c.039-.103.111-.16.09-.293l-.064-.187v-.337c-.003-.2.017-.379-.078-.55-.38-.688-1.236-.929-1.975-.789-.18.034-.287.126-.442.207-.17.088-.139.166-.318.224-.081.026-.216.124-.215.224l.012.169-.03-.025M15.816-41.042c.018.072.007.127-.026.19l-.165.128c-.05.063-.099.276-.079.362-.169.058-.009.227-.015.35l-.045.161c-.01.119.017.266.068.37.097.198.268.413.435.544.19.148.365.572.608.631.177.042.384-.104.543-.143.18-.043.397.01.571-.053.222-.079.127-.337.288-.45.104-.074.287-.01.406-.051.2-.069.339-.263.376-.46l.039-.221c.039-.103.111-.16.09-.293l-.064-.187v-.337c-.003-.2.017-.379-.078-.55-.38-.688-1.236-.929-1.975-.789-.18.034-.287.126-.442.207-.17.088-.139.166-.318.224-.081.026-.216.124-.215.224l.012.169-.03-.025M8.156-41.042c.018.072.007.127-.026.19l-.165.128c-.05.063-.099.276-.079.362-.169.058-.009.227-.015.35l-.045.161c-.01.119.017.266.068.37.097.198.268.413.435.544.19.148.365.572.608.631.177.042.384-.104.543-.143.18-.043.397.01.571-.053.222-.079.127-.337.288-.45.104-.074.287-.01.406-.051.2-.069.339-.263.376-.46l.039-.221c.039-.103.111-.16.09-.293l-.064-.187v-.337c-.003-.2.017-.379-.078-.55-.38-.688-1.236-.929-1.975-.789-.18.034-.287.126-.442.207-.17.088-.139.166-.318.224-.081.026-.216.124-.215.224l.012.169-.03-.024M.495-41.042c.018.072.007.127-.026.19l-.165.128c-.05.063-.099.276-.079.362-.169.058-.01.227-.015.35l-.045.161c-.01.119.017.266.068.37.097.198.268.413.435.544.19.148.365.572.608.631.177.042.384-.104.543-.143.18-.043.397.01.571-.053.222-.079.127-.337.288-.45.104-.074.287-.01.406-.051.2-.069.339-.263.376-.46l.039-.221c.039-.103.111-.16.09-.293l-.064-.187v-.337c-.003-.2.017-.379-.078-.55-.38-.688-1.236-.929-1.975-.789-.18.034-.287.126-.442.207-.17.088-.139.166-.318.224-.081.026-.216.124-.215.224l.012.169-.03-.025M69.439-33.39c.018.072.007.127-.026.19l-.165.128c-.05.063-.099.276-.079.362-.169.058-.01.227-.015.35l-.045.161c-.01.119.017.266.068.37.097.198.268.413.435.544.19.148.365.572.608.631.177.042.384-.104.543-.143.18-.043.397.01.571-.053.222-.079.127-.337.288-.45.104-.074.287-.01.406-.051.2-.069.339-.263.376-.46l.039-.221c.039-.103.111-.16.09-.293l-.064-.187v-.337c-.003-.2.017-.379-.078-.55-.38-.688-1.236-.929-1.975-.789-.18.034-.287.126-.442.207-.17.088-.139.166-.318.224-.081.026-.216.124-.215.224l.012.169-.03-.025M61.778-33.39c.018.072.007.127-.026.19l-.165.128c-.05.063-.099.276-.079.362-.169.058-.009.227-.015.35l-.045.161c-.01.119.017.266.068.37.097.198.268.413.435.544.19.148.365.572.608.631.177.042.384-.104.543-.143.18-.043.397.01.571-.053.222-.079.127-.337.288-.45.104-.074.287-.01.406-.051.2-.069.339-.263.376-.46l.039-.221c.039-.103.111-.16.09-.293l-.064-.187v-.337c-.003-.2.017-.379-.078-.55-.38-.688-1.236-.929-1.975-.789-.18.034-.287.126-.442.207-.17.088-.139.166-.318.224-.081.026-.216.124-.215.224l.012.169-.03-.025M54.118-33.39c.018.072.007.127-.026.19l-.165.128c-.05.063-.099.276-.079.362-.169.058-.009.227-.015.35l-.045.161c-.01.119.017.266.068.37.097.198.268.413.435.544.19.148.365.572.608.631.177.042.384-.104.543-.143.18-.043.397.01.571-.053.222-.079.127-.337.288-.45.104-.074.287-.01.406-.051.2-.069.339-.263.376-.46l.039-.221c.039-.103.111-.16.09-.293l-.064-.187v-.337c-.003-.2.017-.379-.078-.55-.38-.688-1.236-.929-1.975-.789-.18.034-.287.126-.442.207-.17.088-.139.166-.318.224-.081.026-.216.124-.215.224l.012.169-.03-.025M46.458-33.39c.018.072.007.127-.026.19l-.165.128c-.05.063-.099.276-.079.362-.169.058-.009.227-.015.35l-.045.161c-.01.119.017.266.068.37.097.198.268.413.435.544.19.148.365.572.608.631.177.042.384-.104.543-.143.18-.043.397.01.571-.053.222-.079.127-.337.288-.45.104-.074.287-.01.406-.051.2-.069.339-.263.376-.46l.039-.221c.039-.103.111-.16.09-.293l-.064-.187v-.337c-.003-.2.017-.379-.078-.55-.38-.688-1.236-.929-1.975-.789-.18.034-.287.126-.442.207-.17.088-.139.166-.318.224-.081.026-.216.124-.215.224l.012.169-.03-.025M38.797-33.39c.018.072.007.127-.026.19l-.165.128c-.05.063-.099.276-.079.362-.169.058-.009.227-.015.35l-.045.161c-.01.119.017.266.068.37.097.198.268.413.435.544.19.148.365.572.608.631.177.042.384-.104.543-.143.18-.043.397.01.571-.053.222-.079.127-.337.288-.45.104-.074.287-.01.406-.051.2-.069.339-.263.376-.46l.039-.221c.039-.103.111-.16.09-.293l-.064-.187v-.337c-.003-.2.017-.379-.078-.55-.38-.688-1.236-.929-1.975-.789-.18.034-.287.126-.442.207-.17.088-.139.166-.318.224-.081.026-.216.124-.215.224l.012.169-.03-.025M31.137-33.39c.018.072.007.127-.026.19l-.165.128c-.05.063-.099.276-.079.362-.169.058-.009.227-.015.35l-.045.161c-.01.119.017.266.068.37.097.198.268.413.435.544.19.148.365.572.608.631.177.042.384-.104.543-.143.18-.043.397.01.571-.053.222-.079.127-.337.288-.45.104-.074.287-.01.406-.051.2-.069.339-.263.376-.46l.039-.221c.039-.103.111-.16.09-.293l-.064-.187v-.337c-.003-.2.017-.379-.078-.55-.38-.688-1.236-.929-1.975-.789-.18.034-.287.126-.442.207-.17.088-.139.166-.318.224-.081.026-.216.124-.215.224l.012.169-.03-.025M23.477-33.39c.018.072.007.127-.026.19l-.165.128c-.05.063-.099.276-.079.362-.169.058-.009.227-.015.35l-.045.161c-.01.119.017.266.068.37.097.198.268.413.435.544.19.148.365.572.608.631.177.042.384-.104.543-.143.18-.043.397.01.571-.053.222-.079.127-.337.288-.45.104-.074.287-.01.406-.051.2-.069.339-.263.376-.46l.039-.221c.039-.103.111-.16.09-.293l-.064-.187v-.337c-.003-.2.017-.379-.078-.55-.38-.688-1.236-.929-1.975-.789-.18.034-.287.126-.442.207-.17.088-.139.166-.318.224-.081.026-.216.124-.215.224l.012.169-.03-.025M15.816-33.39c.018.072.007.127-.026.19l-.165.128c-.05.063-.099.276-.079.362-.169.058-.009.227-.015.35l-.045.161c-.01.119.017.266.068.37.097.198.268.413.435.544.19.148.365.572.608.631.177.042.384-.104.543-.143.18-.043.397.01.571-.053.222-.079.127-.337.288-.45.104-.074.287-.01.406-.051.2-.069.339-.263.376-.46l.039-.221c.039-.103.111-.16.09-.293l-.064-.187v-.337c-.003-.2.017-.379-.078-.55-.38-.688-1.236-.929-1.975-.789-.18.034-.287.126-.442.207-.17.088-.139.166-.318.224-.081.026-.216.124-.215.224l.012.169-.03-.025M8.156-33.39c.018.072.007.127-.026.19l-.165.128c-.05.063-.099.276-.079.362-.169.058-.009.227-.015.35l-.045.161c-.01.119.017.266.068.37.097.198.268.413.435.544.19.148.365.572.608.631.177.042.384-.104.543-.143.18-.043.397.01.571-.053.222-.079.127-.337.288-.45.104-.074.287-.01.406-.051.2-.069.339-.263.376-.46l.039-.221c.039-.103.111-.16.09-.293l-.064-.187v-.337c-.003-.2.017-.379-.078-.55-.38-.688-1.236-.929-1.975-.789-.18.034-.287.126-.442.207-.17.088-.139.166-.318.224-.081.026-.216.124-.215.224l.012.169-.03-.025M.495-33.39c.018.072.007.127-.026.19l-.165.128c-.05.063-.099.276-.079.362-.169.058-.01.227-.015.35l-.045.161c-.01.119.017.266.068.37.097.198.268.413.435.544.19.148.365.572.608.631.177.042.384-.104.543-.143.18-.043.397.01.571-.053.222-.079.127-.337.288-.45.104-.074.287-.01.406-.051.2-.069.339-.263.376-.46l.039-.221c.039-.103.111-.16.09-.293l-.064-.187v-.337c-.003-.2.017-.379-.078-.55-.38-.688-1.236-.929-1.975-.789-.18.034-.287.126-.442.207-.17.088-.139.166-.318.224-.081.026-.216.124-.215.224l.013.171-.03-.025M69.439-25.736c.018.072.007.127-.026.19l-.165.128c-.05.063-.099.276-.079.362-.169.058-.01.227-.015.35l-.045.161c-.01.119.017.266.068.37.097.198.268.413.435.544.19.148.365.572.608.631.177.042.384-.104.543-.143.18-.043.397.01.571-.053.222-.079.127-.337.288-.45.104-.074.287-.01.406-.051.2-.069.339-.263.376-.46l.039-.221c.039-.103.111-.16.09-.293l-.064-.187v-.337c-.003-.2.017-.379-.078-.55-.38-.688-1.236-.929-1.975-.789-.18.034-.287.126-.442.207-.17.088-.139.166-.318.224-.081.026-.216.124-.215.224l.012.169-.03-.025M61.778-25.736c.018.072.007.127-.026.19l-.165.128c-.05.063-.099.276-.079.362-.169.058-.009.227-.015.35l-.045.161c-.01.119.017.266.068.37.097.198.268.413.435.544.19.148.365.572.608.631.177.042.384-.104.543-.143.18-.043.397.01.571-.053.222-.079.127-.337.288-.45.104-.074.287-.01.406-.051.2-.069.339-.263.376-.46l.039-.221c.039-.103.111-.16.09-.293l-.064-.187v-.337c-.003-.2.017-.379-.078-.55-.38-.688-1.236-.929-1.975-.789-.18.034-.287.126-.442.207-.17.088-.139.166-.318.224-.081.026-.216.124-.215.224l.012.169-.03-.025M54.118-25.736c.018.072.007.127-.026.19l-.165.128c-.05.063-.099.276-.079.362-.169.058-.009.227-.015.35l-.045.161c-.01.119.017.266.068.37.097.198.268.413.435.544.19.148.365.572.608.631.177.042.384-.104.543-.143.18-.043.397.01.571-.053.222-.079.127-.337.288-.45.104-.074.287-.01.406-.051.2-.069.339-.263.376-.46l.039-.221c.039-.103.111-.16.09-.293l-.064-.187v-.337c-.003-.2.017-.379-.078-.55-.38-.688-1.236-.929-1.975-.789-.18.034-.287.126-.442.207-.17.088-.139.166-.318.224-.081.026-.216.124-.215.224l.012.169-.03-.025M46.458-25.736c.018.072.007.127-.026.19l-.165.128c-.05.063-.099.276-.079.362-.169.058-.009.227-.015.35l-.045.161c-.01.119.017.266.068.37.097.198.268.413.435.544.19.148.365.572.608.631.177.042.384-.104.543-.143.18-.043.397.01.571-.053.222-.079.127-.337.288-.45.104-.074.287-.01.406-.051.2-.069.339-.263.376-.46l.039-.221c.039-.103.111-.16.09-.293l-.064-.187v-.337c-.003-.2.017-.379-.078-.55-.38-.688-1.236-.929-1.975-.789-.18.034-.287.126-.442.207-.17.088-.139.166-.318.224-.081.026-.216.124-.215.224l.012.169-.03-.025M38.797-25.736c.018.072.007.127-.026.19l-.165.128c-.05.063-.099.276-.079.362-.169.058-.009.227-.015.35l-.045.161c-.01.119.017.266.068.37.097.198.268.413.435.544.19.148.365.572.608.631.177.042.384-.104.543-.143.18-.043.397.01.571-.053.222-.079.127-.337.288-.45.104-.074.287-.01.406-.051.2-.069.339-.263.376-.46l.039-.221c.039-.103.111-.16.09-.293l-.064-.187v-.337c-.003-.2.017-.379-.078-.55-.38-.688-1.236-.929-1.975-.789-.18.034-.287.126-.442.207-.17.088-.139.166-.318.224-.081.026-.216.124-.215.224l.012.169-.03-.025M31.137-25.736c.018.072.007.127-.026.19l-.165.128c-.05.063-.099.276-.079.362-.169.058-.009.227-.015.35l-.045.161c-.01.119.017.266.068.37.097.198.268.413.435.544.19.148.365.572.608.631.177.042.384-.104.543-.143.18-.043.397.01.571-.053.222-.079.127-.337.288-.45.104-.074.287-.01.406-.051.2-.069.339-.263.376-.46l.039-.221c.039-.103.111-.16.09-.293l-.064-.187v-.337c-.003-.2.017-.379-.078-.55-.38-.688-1.236-.929-1.975-.789-.18.034-.287.126-.442.207-.17.088-.139.166-.318.224-.081.026-.216.124-.215.224l.012.169-.03-.025M23.477-25.736c.018.072.007.127-.026.19l-.165.128c-.05.063-.099.276-.079.362-.169.058-.009.227-.015.35l-.045.161c-.01.119.017.266.068.37.097.198.268.413.435.544.19.148.365.572.608.631.177.042.384-.104.543-.143.18-.043.397.01.571-.053.222-.079.127-.337.288-.45.104-.074.287-.01.406-.051.2-.069.339-.263.376-.46l.039-.221c.039-.103.111-.16.09-.293l-.064-.187v-.337c-.003-.2.017-.379-.078-.55-.38-.688-1.236-.929-1.975-.789-.18.034-.287.126-.442.207-.17.088-.139.166-.318.224-.081.026-.216.124-.215.224l.012.169-.03-.025M15.816-25.736c.018.072.007.127-.026.19l-.165.128c-.05.063-.099.276-.079.362-.169.058-.009.227-.015.35l-.045.161c-.01.119.017.266.068.37.097.198.268.413.435.544.19.148.365.572.608.631.177.042.384-.104.543-.143.18-.043.397.01.571-.053.222-.079.127-.337.288-.45.104-.074.287-.01.406-.051.2-.069.339-.263.376-.46l.039-.221c.039-.103.111-.16.09-.293l-.064-.187v-.337c-.003-.2.017-.379-.078-.55-.38-.688-1.236-.929-1.975-.789-.18.034-.287.126-.442.207-.17.088-.139.166-.318.224-.081.026-.216.124-.215.224l.012.169-.03-.025M8.156-25.736c.018.072.007.127-.026.19l-.165.128c-.05.063-.099.276-.079.362-.169.058-.009.227-.015.35l-.045.161c-.01.119.017.266.068.37.097.198.268.413.435.544.19.148.365.572.608.631.177.042.384-.104.543-.143.18-.043.397.01.571-.053.222-.079.127-.337.288-.45.104-.074.287-.01.406-.051.2-.069.339-.263.376-.46l.039-.221c.039-.103.111-.16.09-.293l-.064-.187v-.337c-.003-.2.017-.379-.078-.55-.38-.688-1.236-.929-1.975-.789-.18.034-.287.126-.442.207-.17.088-.139.166-.318.224-.081.026-.216.124-.215.224l.012.169-.03-.025M.495-25.736c.018.072.007.127-.026.19l-.165.128c-.05.063-.099.276-.079.362-.169.058-.01.227-.015.35l-.045.161c-.01.119.017.266.068.37.097.198.268.413.435.544.19.148.365.572.608.631.177.042.384-.104.543-.143.18-.043.397.01.571-.053.222-.079.127-.337.288-.45.104-.074.287-.01.406-.051.2-.069.339-.263.376-.46l.039-.221c.039-.103.111-.16.09-.293l-.064-.187v-.337c-.003-.2.017-.379-.078-.55-.38-.688-1.236-.929-1.975-.789-.18.034-.287.126-.442.207-.17.088-.139.166-.318.224-.081.026-.216.124-.215.224l.012.169-.03-.025M69.439-18.084c.018.072.007.127-.026.19l-.165.128c-.05.063-.099.276-.079.362-.169.058-.01.227-.015.35l-.045.161c-.01.119.017.266.068.37.097.198.268.413.435.544.19.148.365.572.608.631.177.042.384-.104.543-.143.18-.043.397.01.571-.053.222-.079.127-.337.288-.45.104-.074.287-.01.406-.051.2-.069.339-.263.376-.46l.039-.221c.039-.103.111-.16.09-.293l-.064-.187v-.337c-.003-.2.017-.379-.078-.55-.38-.688-1.236-.929-1.975-.789-.18.034-.287.126-.442.207-.17.088-.139.166-.318.224-.081.026-.216.124-.215.224l.012.169-.03-.025M61.778-18.084c.018.072.007.127-.026.19l-.165.128c-.05.063-.099.276-.079.362-.169.058-.009.227-.015.35l-.045.161c-.01.119.017.266.068.37.097.198.268.413.435.544.19.148.365.572.608.631.177.042.384-.104.543-.143.18-.043.397.01.571-.053.222-.079.127-.337.288-.45.104-.074.287-.01.406-.051.2-.069.339-.263.376-.46l.039-.221c.039-.103.111-.16.09-.293l-.064-.187v-.337c-.003-.2.017-.379-.078-.55-.38-.688-1.236-.929-1.975-.789-.18.034-.287.126-.442.207-.17.088-.139.166-.318.224-.081.026-.216.124-.215.224l.012.169-.03-.025M54.118-18.084c.018.072.007.127-.026.19l-.165.128c-.05.063-.099.276-.079.362-.169.058-.009.227-.015.35l-.045.161c-.01.119.017.266.068.37.097.198.268.413.435.544.19.148.365.572.608.631.177.042.384-.104.543-.143.18-.043.397.01.571-.053.222-.079.127-.337.288-.45.104-.074.287-.01.406-.051.2-.069.339-.263.376-.46l.039-.221c.039-.103.111-.16.09-.293l-.064-.187v-.337c-.003-.2.017-.379-.078-.55-.38-.688-1.236-.929-1.975-.789-.18.034-.287.126-.442.207-.17.088-.139.166-.318.224-.081.026-.216.124-.215.224l.012.169-.03-.025M46.458-18.084c.018.072.007.127-.026.19l-.165.128c-.05.063-.099.276-.079.362-.169.058-.009.227-.015.35l-.045.161c-.01.119.017.266.068.37.097.198.268.413.435.544.19.148.365.572.608.631.177.042.384-.104.543-.143.18-.043.397.01.571-.053.222-.079.127-.337.288-.45.104-.074.287-.01.406-.051.2-.069.339-.263.376-.46l.039-.221c.039-.103.111-.16.09-.293l-.064-.187v-.337c-.003-.2.017-.379-.078-.55-.38-.688-1.236-.929-1.975-.789-.18.034-.287.126-.442.207-.17.088-.139.166-.318.224-.081.026-.216.124-.215.224l.012.169-.03-.025M38.797-18.084c.018.072.007.127-.026.19l-.165.128c-.05.063-.099.276-.079.362-.169.058-.009.227-.015.35l-.045.161c-.01.119.017.266.068.37.097.198.268.413.435.544.19.148.365.572.608.631.177.042.384-.104.543-.143.18-.043.397.01.571-.053.222-.079.127-.337.288-.45.104-.074.287-.01.406-.051.2-.069.339-.263.376-.46l.039-.221c.039-.103.111-.16.09-.293l-.064-.187v-.337c-.003-.2.017-.379-.078-.55-.38-.688-1.236-.929-1.975-.789-.18.034-.287.126-.442.207-.17.088-.139.166-.318.224-.081.026-.216.124-.215.224l.012.169-.03-.025M31.137-18.084c.018.072.007.127-.026.19l-.165.128c-.05.063-.099.276-.079.362-.169.058-.009.227-.015.35l-.045.161c-.01.119.017.266.068.37.097.198.268.413.435.544.19.148.365.572.608.631.177.042.384-.104.543-.143.18-.043.397.01.571-.053.222-.079.127-.337.288-.45.104-.074.287-.01.406-.051.2-.069.339-.263.376-.46l.039-.221c.039-.103.111-.16.09-.293l-.064-.187v-.337c-.003-.2.017-.379-.078-.55-.38-.688-1.236-.929-1.975-.789-.18.034-.287.126-.442.207-.17.088-.139.166-.318.224-.081.026-.216.124-.215.224l.012.169-.03-.025M23.477-18.084c.018.072.007.127-.026.19l-.165.128c-.05.063-.099.276-.079.362-.169.058-.009.227-.015.35l-.045.161c-.01.119.017.266.068.37.097.198.268.413.435.544.19.148.365.572.608.631.177.042.384-.104.543-.143.18-.043.397.01.571-.053.222-.079.127-.337.288-.45.104-.074.287-.01.406-.051.2-.069.339-.263.376-.46l.039-.221c.039-.103.111-.16.09-.293l-.064-.187v-.337c-.003-.2.017-.379-.078-.55-.38-.688-1.236-.929-1.975-.789-.18.034-.287.126-.442.207-.17.088-.139.166-.318.224-.081.026-.216.124-.215.224l.012.169-.03-.025M15.816-18.084c.018.072.007.127-.026.19l-.165.128c-.05.063-.099.276-.079.362-.169.058-.009.227-.015.35l-.045.161c-.01.119.017.266.068.37.097.198.268.413.435.544.19.148.365.572.608.631.177.042.384-.104.543-.143.18-.043.397.01.571-.053.222-.079.127-.337.288-.45.104-.074.287-.01.406-.051.2-.069.339-.263.376-.46l.039-.221c.039-.103.111-.16.09-.293l-.064-.187v-.337c-.003-.2.017-.379-.078-.55-.38-.688-1.236-.929-1.975-.789-.18.034-.287.126-.442.207-.17.088-.139.166-.318.224-.081.026-.216.124-.215.224l.012.169-.03-.025M8.156-18.084c.018.072.007.127-.026.19l-.165.128c-.05.063-.099.276-.079.362-.169.058-.009.227-.015.35l-.045.161c-.01.119.017.266.068.37.097.198.268.413.435.544.19.148.365.572.608.631.177.042.384-.104.543-.143.18-.043.397.01.571-.053.222-.079.127-.337.288-.45.104-.074.287-.01.406-.051.2-.069.339-.263.376-.46l.039-.221c.039-.103.111-.16.09-.293l-.064-.187v-.337c-.003-.2.017-.379-.078-.55-.38-.688-1.236-.929-1.975-.789-.18.034-.287.126-.442.207-.17.088-.139.166-.318.224-.081.026-.216.124-.215.224l.012.169-.03-.025M.495-18.084c.018.072.007.127-.026.19l-.165.128c-.05.063-.099.276-.079.362-.169.058-.01.227-.015.35l-.045.161c-.01.119.017.266.068.37.097.198.268.413.435.544.19.148.365.572.608.631.177.042.384-.104.543-.143.18-.043.397.01.571-.053.222-.079.127-.337.288-.45.104-.074.287-.01.406-.051.2-.069.339-.263.376-.46l.039-.221c.039-.103.111-.16.09-.293l-.064-.187v-.337c-.003-.2.017-.379-.078-.55-.38-.688-1.236-.929-1.975-.789-.18.034-.287.126-.442.207-.17.088-.139.166-.318.224-.081.026-.216.124-.215.224l.013.17-.03-.025M69.439-10.431c.018.072.007.127-.026.19l-.165.128c-.05.063-.099.276-.079.362-.169.059-.01.228-.015.351l-.045.161c-.01.119.017.266.068.37.097.198.268.413.435.544.19.148.365.572.608.631.177.042.384-.104.543-.143.18-.043.397.01.571-.053.222-.079.127-.337.288-.45.104-.074.287-.01.406-.051.2-.069.339-.263.376-.46l.039-.221c.039-.103.111-.16.09-.293l-.064-.187v-.337c-.003-.2.017-.379-.078-.55-.38-.688-1.236-.929-1.975-.789-.18.034-.287.126-.442.207-.17.088-.139.166-.318.224-.081.026-.216.124-.215.224l.012.169-.03-.025M61.778-10.431c.018.072.007.127-.026.19l-.165.128c-.05.063-.099.276-.079.362-.169.058-.009.227-.015.35l-.045.161c-.01.119.017.266.068.37.097.198.268.413.435.544.19.148.365.572.608.631.177.042.384-.104.543-.143.18-.043.397.01.571-.053.222-.079.127-.337.288-.45.104-.074.287-.01.406-.051.2-.069.339-.263.376-.46l.039-.221c.039-.103.111-.16.09-.293l-.064-.187v-.337c-.003-.2.017-.379-.078-.55-.38-.688-1.236-.929-1.975-.789-.18.034-.287.126-.442.207-.17.088-.139.166-.318.224-.081.026-.216.124-.215.224l.012.169-.03-.025M54.118-10.431c.018.072.007.127-.026.19l-.165.128c-.05.063-.099.276-.079.362-.169.058-.009.227-.015.35l-.045.161c-.01.119.017.266.068.37.097.198.268.413.435.544.19.148.365.572.608.631.177.042.384-.104.543-.143.18-.043.397.01.571-.053.222-.079.127-.337.288-.45.104-.074.287-.01.406-.051.2-.069.339-.263.376-.46l.039-.221c.039-.103.111-.16.09-.293l-.064-.187v-.337c-.003-.2.017-.379-.078-.55-.38-.688-1.236-.929-1.975-.789-.18.034-.287.126-.442.207-.17.088-.139.166-.318.224-.081.026-.216.124-.215.224l.012.169-.03-.025M46.458-10.431c.018.072.007.127-.026.19l-.165.128c-.05.063-.099.276-.079.362-.169.058-.009.227-.015.35l-.045.161c-.01.119.017.266.068.37.097.198.268.413.435.544.19.148.365.572.608.631.177.042.384-.104.543-.143.18-.043.397.01.571-.053.222-.079.127-.337.288-.45.104-.074.287-.01.406-.051.2-.069.339-.263.376-.46l.039-.221c.039-.103.111-.16.09-.293l-.064-.187v-.337c-.003-.2.017-.379-.078-.55-.38-.688-1.236-.929-1.975-.789-.18.034-.287.126-.442.207-.17.088-.139.166-.318.224-.081.026-.216.124-.215.224l.012.169-.03-.025M38.797-10.431c.018.072.007.127-.026.19l-.165.128c-.05.063-.099.276-.079.362-.169.058-.009.227-.015.35l-.045.161c-.01.119.017.266.068.37.097.198.268.413.435.544.19.148.365.572.608.631.177.042.384-.104.543-.143.18-.043.397.01.571-.053.222-.079.127-.337.288-.45.104-.074.287-.01.406-.051.2-.069.339-.263.376-.46l.039-.221c.039-.103.111-.16.09-.293l-.064-.187v-.337c-.003-.2.017-.379-.078-.55-.38-.688-1.236-.929-1.975-.789-.18.034-.287.126-.442.207-.17.088-.139.166-.318.224-.081.026-.216.124-.215.224l.012.169-.03-.025M31.137-10.431c.018.072.007.127-.026.19l-.165.128c-.05.063-.099.276-.079.362-.169.058-.009.227-.015.35l-.045.161c-.01.119.017.266.068.37.097.198.268.413.435.544.19.148.365.572.608.631.177.042.384-.104.543-.143.18-.043.397.01.571-.053.222-.079.127-.337.288-.45.104-.074.287-.01.406-.051.2-.069.339-.263.376-.46l.039-.221c.039-.103.111-.16.09-.293l-.064-.187v-.337c-.003-.2.017-.379-.078-.55-.38-.688-1.236-.929-1.975-.789-.18.034-.287.126-.442.207-.17.088-.139.166-.318.224-.081.026-.216.124-.215.224l.012.169-.03-.025M23.477-10.431c.018.072.007.127-.026.19l-.165.128c-.05.063-.099.276-.079.362-.169.058-.009.227-.015.35l-.045.161c-.01.119.017.266.068.37.097.198.268.413.435.544.19.148.365.572.608.631.177.042.384-.104.543-.143.18-.043.397.01.571-.053.222-.079.127-.337.288-.45.104-.074.287-.01.406-.051.2-.069.339-.263.376-.46l.039-.221c.039-.103.111-.16.09-.293l-.064-.187v-.337c-.003-.2.017-.379-.078-.55-.38-.688-1.236-.929-1.975-.789-.18.034-.287.126-.442.207-.17.088-.139.166-.318.224-.081.026-.216.124-.215.224l.012.169-.03-.025M15.816-10.431c.018.072.007.127-.026.19l-.165.128c-.05.063-.099.276-.079.362-.169.058-.009.227-.015.35l-.045.161c-.01.119.017.266.068.37.097.198.268.413.435.544.19.148.365.572.608.631.177.042.384-.104.543-.143.18-.043.397.01.571-.053.222-.078.128-.336.289-.449.104-.074.287-.01.406-.051.2-.069.339-.263.376-.46l.039-.221c.039-.103.111-.16.09-.293l-.064-.187v-.337c-.003-.2.017-.379-.078-.55-.38-.688-1.236-.929-1.975-.789-.18.034-.287.126-.442.207-.17.088-.139.166-.318.224-.081.026-.216.124-.215.224l.012.169-.03-.025M8.156-10.431c.018.072.007.127-.026.19l-.165.128c-.05.063-.099.277-.079.363-.169.058-.01.227-.015.35l-.045.161c-.01.119.017.266.068.37.097.198.268.413.435.544.19.148.365.572.608.631.177.042.384-.105.543-.143.18-.043.397.01.571-.053.222-.079.127-.337.288-.45.104-.074.287-.01.406-.051.2-.069.339-.263.376-.46l.039-.221c.039-.103.111-.16.09-.293l-.064-.187v-.337c-.003-.2.017-.379-.078-.55-.38-.688-1.236-.929-1.975-.789-.18.034-.287.126-.442.207-.17.088-.139.166-.318.224-.081.026-.216.124-.215.224l.012.169-.03-.025M.495-10.431c.018.072.007.127-.026.19l-.165.128c-.05.063-.099.277-.079.363-.169.058-.01.227-.015.35l-.045.161c-.01.119.017.266.068.37.097.198.268.413.435.544.19.148.365.572.608.631.178.042.384-.105.543-.143.181-.043.398.01.572-.053.222-.079.127-.337.288-.45.104-.074.287-.01.406-.051.2-.069.339-.263.376-.46l.039-.22c.039-.103.111-.16.09-.293l-.064-.187v-.337c-.003-.2.017-.379-.078-.55-.38-.688-1.236-.929-1.975-.789-.18.034-.287.126-.442.207-.17.088-.139.166-.318.224-.081.026-.216.124-.215.224l.012.169-.03-.025" />
    </g>
    <g
       id="g20"
       fill="#fff">
      <path
         id="path22"
         d="M69.439-2.778c.018.072.008.127-.026.19l-.165.128c-.051.063-.099.276-.079.362-.169.058-.01.227-.015.35l-.045.161c-.01.119.017.266.068.37.097.198.268.413.435.544.19.148.365.572.608.631.177.042.384-.104.543-.143.18-.043.397.01.571-.053.222-.079.127-.337.288-.45.104-.074.287-.01.406-.051.2-.07.339-.263.376-.46l.039-.221c.038-.103.111-.16.09-.293l-.064-.187v-.337c-.003-.2.017-.379-.078-.55-.38-.688-1.236-.929-1.975-.789-.18.034-.287.126-.442.207-.17.088-.139.166-.318.224-.081.026-.215.124-.215.224l.012.169-.03-.025M61.778-2.778c.018.072.007.127-.026.19l-.165.128c-.05.063-.099.276-.079.362-.169.058-.01.227-.015.35l-.045.161c-.01.119.017.266.068.37.097.198.268.413.435.544.19.148.365.572.608.631.178.042.384-.104.544-.143.18-.043.397.01.571-.053.222-.079.127-.337.288-.45.104-.074.287-.01.406-.051.2-.069.339-.263.376-.46l.039-.221c.039-.103.111-.16.09-.293l-.064-.187v-.337c-.003-.2.017-.379-.078-.55-.38-.688-1.236-.929-1.975-.789-.18.034-.287.126-.442.207-.17.088-.139.166-.318.224-.081.028-.216.125-.215.225l.012.169-.03-.025M54.118-2.778c.018.072.007.127-.026.19l-.165.128c-.05.063-.099.276-.079.362-.169.058-.01.227-.015.35l-.045.161c-.01.119.017.266.068.37.097.198.268.413.435.544.19.148.365.572.608.631.178.042.384-.104.543-.143.18-.043.397.01.571-.053.222-.079.127-.337.288-.45.104-.074.287-.01.406-.051.2-.069.339-.263.376-.46l.039-.221c.039-.103.111-.16.09-.293l-.064-.187v-.337c-.003-.2.017-.379-.078-.55-.38-.688-1.236-.929-1.975-.789-.18.034-.287.126-.442.207-.17.088-.139.166-.318.224-.08.028-.215.125-.214.225l.012.169-.03-.025M46.458-2.778c.018.072.007.127-.026.19l-.165.128c-.05.063-.099.276-.079.362-.169.058-.01.227-.015.35l-.045.161c-.01.119.017.266.068.37.097.198.268.413.435.544.19.148.365.572.608.631.177.042.384-.104.543-.143.18-.043.397.01.571-.053.222-.079.127-.337.288-.45.104-.074.287-.01.406-.051.2-.069.339-.263.376-.46l.039-.221c.039-.103.111-.16.09-.293l-.064-.187v-.337c-.003-.2.017-.379-.078-.55-.38-.688-1.236-.929-1.975-.789-.18.034-.287.126-.442.207-.17.088-.139.166-.318.224-.081.028-.216.125-.215.225l.012.169-.03-.025M38.797-2.778c.018.072.007.127-.026.19l-.165.128c-.05.063-.099.276-.079.362-.169.058-.01.227-.015.35l-.045.161c-.01.119.017.266.068.37.097.198.268.413.435.544.19.148.365.572.608.631.178.042.384-.104.544-.143.18-.043.397.01.571-.053.222-.079.127-.337.288-.45.104-.074.287-.01.406-.051.2-.069.339-.263.376-.46l.039-.221c.039-.103.111-.16.09-.293l-.064-.187v-.337c-.003-.2.017-.379-.078-.55-.38-.688-1.236-.929-1.975-.789-.18.034-.287.126-.442.207-.17.088-.139.166-.318.224-.081.028-.216.125-.215.225l.012.169-.03-.025M31.137-2.778c.018.072.007.127-.026.19l-.165.128c-.05.063-.099.276-.079.362-.169.058-.01.227-.015.35l-.045.161c-.01.119.017.266.068.37.097.198.268.413.435.544.19.148.365.572.608.631.177.042.384-.104.543-.143.18-.043.397.01.571-.053.222-.079.127-.337.288-.45.104-.074.287-.01.406-.051.2-.069.339-.263.376-.46l.039-.221c.039-.103.111-.16.09-.293l-.064-.187v-.337c-.003-.2.017-.379-.078-.55-.38-.688-1.236-.929-1.975-.789-.18.034-.287.126-.442.207-.17.088-.139.166-.318.224-.081.028-.215.125-.214.225l.012.169-.03-.025M23.477-2.778c.018.072.007.127-.026.19l-.165.128c-.05.063-.099.276-.079.362-.169.058-.01.227-.015.35l-.045.161c-.01.119.017.266.068.37.097.198.268.413.435.544.19.148.365.572.608.631.177.042.384-.104.543-.143.18-.043.397.01.571-.053.222-.079.127-.337.288-.45.104-.074.287-.01.406-.051.2-.069.339-.263.376-.46l.039-.221c.039-.103.111-.16.09-.293l-.064-.187v-.337c-.003-.2.017-.379-.078-.55-.38-.688-1.236-.929-1.975-.789-.18.034-.287.126-.442.207-.17.088-.139.166-.318.224-.081.026-.216.124-.215.224l.012.169-.03-.025M15.816-2.778c.018.072.007.127-.026.19l-.165.128c-.05.063-.099.276-.079.362-.169.058-.01.227-.015.35l-.045.161c-.01.119.017.266.068.37.097.198.268.413.435.544.19.148.365.572.608.631.177.042.384-.104.543-.143.18-.043.397.01.571-.053.222-.079.127-.337.288-.45.104-.074.287-.01.406-.051.2-.069.339-.263.376-.46l.039-.221c.039-.103.111-.16.09-.293l-.064-.187v-.337c-.003-.2.017-.379-.078-.55-.38-.688-1.236-.929-1.975-.789-.18.034-.287.126-.442.207-.17.088-.139.166-.318.224-.081.026-.216.124-.215.224l.012.169-.03-.024M8.156-2.778c.018.072.007.127-.026.19l-.165.128c-.05.063-.099.276-.079.362-.169.058-.01.227-.015.35l-.045.161c-.01.119.017.266.068.37.097.198.268.413.435.544.19.148.365.572.608.631.177.042.384-.104.543-.143.18-.043.397.01.571-.053.222-.079.127-.337.288-.45.104-.074.287-.01.406-.051.2-.069.339-.263.376-.46l.039-.221c.039-.103.111-.16.09-.293l-.064-.187v-.337c-.003-.2.017-.379-.078-.55-.38-.688-1.236-.929-1.975-.789-.179.036-.286.128-.441.209-.17.088-.139.166-.318.224-.082.026-.216.123-.215.223l.011.169-.03-.025M.495-2.778c.018.072.008.127-.026.19l-.165.128c-.051.063-.099.276-.079.362-.169.058-.01.227-.015.35l-.045.161c-.01.119.017.266.068.37.097.198.268.413.435.544.19.148.365.572.608.631.178.042.384-.104.543-.143.181-.043.398.01.572-.052.222-.079.127-.337.288-.45.104-.074.287-.01.406-.051.2-.07.339-.263.376-.46l.039-.221c.038-.103.111-.16.09-.293l-.064-.187v-.337c-.003-.2.017-.379-.078-.55-.38-.688-1.236-.929-1.975-.789-.18.035-.286.127-.442.208-.17.088-.139.166-.318.224-.081.026-.215.123-.215.223l.012.169-.031-.025" />
    </g>
  </pattern>
  <path
     d="m 230.46884,114.55632 v -6.7334 c 0,0 -4.09572,-0.88953 -10.91658,-2.15452 l 2.8414,-10.151828 c 0,0 -6.87952,-2.222779 -19.85142,-4.591681 V 41.169406 c 0,0 -12.75431,-2.251577 -31.11998,-3.89093 l 3.32244,-10.63393 -11.77732,-8.512476 -2.50756,-7.717865 -4.11064,3.009924 1.57535,-4.8465969 H 149.8067 L 138.01338,-6.722357e-6 126.23606,8.5775321 h -8.1477 l 1.60309,4.8465969 -4.12451,-3.009924 -2.52249,7.717865 -11.73359,8.51141 3.33737,10.633929 C 86.282568,38.916762 73.528252,41.16834 73.528252,41.16834 v 49.755484 c -12.956969,2.368902 -19.837559,4.591682 -19.837559,4.591682 l 2.797673,10.151824 c -6.821927,1.26499 -10.898444,2.15453 -10.898444,2.15453 v 6.7334 L 31,130.07952 45.590989,140.41373 v 8.23516 c 0,0 11.510668,-2.17158 28.040722,-4.44555 C 76.43045,183.00491 138.01338,200 138.01338,200 c 0,0 61.584,-16.99615 64.4126,-55.79666 16.51406,2.27397 28.04393,4.44555 28.04393,4.44555 v -8.23516 l 14.57605,-10.33421 M 103.84722,86.967832 c -5.24764,0.42237 -10.043041,0.969532 -14.459801,1.524161 l 7.054444,-9.154566 c 2.477695,-0.232517 4.926587,-0.494899 7.404287,-0.71355 v 8.343955 z M 93.045832,76.669879 87.099578,85.116227 v -23.27732 c 11.121362,-1.465499 30.171772,-3.454694 50.912732,-3.454694 20.75697,0 39.80738,1.989195 50.89994,3.454694 v 23.27732 l -5.93239,-8.446348 C 173.94262,75.569155 161.728,74.497229 148.274,74.112189 v 11.522402 c -3.3523,-0.0512 -6.76326,-0.102393 -10.26169,-0.102393 -3.51228,0 -6.90938,0.0512 -10.18809,0.102393 V 74.112189 c -13.49666,0.38504 -25.66862,1.456966 -34.778388,2.55769 z m 79.206238,1.952931 c 2.40517,0.218652 4.88287,0.481033 7.39043,0.713551 l 7.04057,9.154565 c -4.40182,-0.554628 -9.26975,-1.100724 -14.42993,-1.524161 V 78.62281 z m -29.98192,-23.743421 8.86232,-6.465685 c 26.908,0.991931 48.24626,4.576749 48.24626,4.576749 v 37.388342 c -2.08413,-0.349842 -4.34317,-0.722083 -6.68967,-1.071926 V 58.755387 c -9.15457,-1.25218 -28.64228,-3.628548 -50.41891,-3.875998 z M 76.691766,43.822022 c 0,0 13.351607,-2.230245 32.169504,-3.672278 l -3.81947,-12.265817 10.74272,-7.74773 1.45697,-4.613013 8.51247,6.164906 -3.27977,-9.969443 h 4.7954 l 10.74166,-7.8127911 10.75765,7.8127911 h 4.78047 l -3.22218,9.969443 8.46875,-6.164906 1.48683,4.613013 10.74272,7.74773 -3.81947,12.265817 c 18.8755,1.4431 32.16951,3.672278 32.16951,3.672278 v 6.129709 c 0,0 -21.92275,-3.724542 -49.38325,-4.656744 l -11.9821,8.679932 -11.89144,-8.679932 c -27.51916,0.932202 -49.426974,4.656744 -49.426974,4.656744 v -6.129709 z m 0,9.168431 c 0,0 21.354253,-3.584818 48.276124,-4.576749 l 8.83245,6.465685 c -21.79156,0.24745 -41.235541,2.623818 -50.418905,3.877065 v 30.551482 c -2.376368,0.349842 -4.620479,0.722083 -6.689669,1.071926 V 52.990453 z m 61.321614,35.697793 c 49.58803,0 80.46056,9.066038 80.46056,9.066038 l -3.9208,14.280616 3.9208,17.59345 c 0,0 -30.87146,-9.02231 -80.46056,-9.02231 -49.573095,0 -80.415757,9.02231 -80.415757,9.02231 L 61.503485,112.0349 57.597623,97.754284 c 0,0 30.842662,-9.066038 80.415757,-9.066038 z m 64.52886,40.677714 c 6.6758,1.26818 11.76239,2.4777 15.15842,3.36724 l -15.15842,6.04865 v -9.41589 z m -44.73503,10.33422 h 8.46874 v 2.12785 h -8.46874 c -2.04039,0 -3.64348,-1.31084 -3.64348,-2.91499 v -3.36617 c 0,-1.60416 1.60309,-2.915 3.64348,-2.915 h 8.46874 v 2.71128 l -0.90447,-0.58343 h -7.56534 c -0.58342,0 -1.04846,0.39358 -1.04846,0.78715 v 3.36617 c 0.001,0.45223 0.4661,0.78714 1.04953,0.78714 z m 11.4872,22.72376 v 8.36742 c -3.64455,2.52142 -7.47788,4.81033 -11.25362,6.83579 l -6.74833,-5.64121 c 7.20057,-3.03125 13.13296,-6.32596 18.00195,-9.562 z m -14.19848,16.67511 c -7.15684,3.58589 -13.61399,6.00598 -17.08362,7.14297 -3.38109,-1.13699 -9.86704,-3.55708 -17.05268,-7.14297 l 6.86566,-5.66894 v -49.53043 c 3.2787,-0.0587 6.6758,-0.13119 10.18809,-0.13119 3.49842,0 6.91045,0.0725 10.26169,0.13119 v 49.53043 l 6.82086,5.66894 z M 87.099578,133.43182 v -6.28224 c 5.057782,-0.69968 10.669127,-1.3407 16.747642,-1.86547 v 29.74941 c 0,0 -15.217082,-10.72779 -16.747642,-21.6017 z m 16.747642,26.9368 v 8.27995 c -8.702333,-6.7334 -15.756778,-15.11575 -16.631384,-25.11505 2.448897,3.84826 7.420286,10.21795 16.631384,16.8351 z m 16.15034,-24.19673 v 2.12786 h -7.02564 v 2.7838 l 0.80207,0.74342 h -4.2717 l 0.90447,-0.74342 v -7.6816 l -0.90447,-0.77221 h 12.62313 v 2.71128 l -0.94714,-0.58343 h -8.20636 v 1.41324 h 7.02564 z m -13.24921,26.25205 c 4.88179,3.23604 10.84405,6.53075 18.01582,9.562 l -6.74834,5.64121 c -3.74694,-2.02546 -7.60907,-4.31437 -11.26642,-6.83579 v -8.36742 z m 65.50372,-2.05532 c 9.16844,-6.61715 14.13876,-12.98684 16.61645,-16.8351 -0.88847,9.9993 -7.92905,18.38059 -16.61645,25.11505 v -8.27995 z m 0,-5.3351 v -29.74941 c 6.06465,0.52477 11.6024,1.16579 16.66018,1.86547 v 6.28224 c -1.4719,10.87391 -16.66018,21.6017 -16.66018,21.6017 z M 73.529318,138.78185 58.327172,132.7332 c 3.424829,-0.88954 8.55514,-2.09906 15.202146,-3.36724 v 9.41589 z m -24.783349,6.07851 v -6.07851 l -12.950568,-9.16844 12.950568,-13.80277 v -5.37883 c 0,0 3.210445,-0.67089 8.603137,-1.70548 l 0.904471,3.36617 -4.970322,22.05393 18.000886,7.15684 c -13.467867,1.89427 -22.538172,3.55709 -22.538172,3.55709 z m 150.632761,-3.3971 c 0,37.63472 -61.36535,55.21431 -61.36535,55.21431 0,0 -61.320548,-17.57852 -61.320548,-55.21431 v -12.65192 c 2.06919,-0.34878 4.314368,-0.71355 6.68967,-1.12206 v 13.77398 c 0,28.8748 45.010208,45.08381 54.630878,48.21746 9.6932,-3.13365 54.67568,-19.34266 54.67568,-48.21746 v -13.77398 c 2.3465,0.40851 4.57675,0.77328 6.68967,1.12206 v 12.65192 z m 27.95646,-2.68141 v 6.07851 c 0,0 -9.06604,-1.66282 -22.54884,-3.55709 l 17.94223,-7.15684 -4.88287,-22.05393 0.90447,-3.36617 c 5.37883,1.03459 8.58501,1.70548 8.58501,1.70548 v 5.37883 l 12.95803,13.80277 -12.95803,9.16844 z m -107.6736,-114.039038 -7.52055,5.473753 3.06112,9.437213 9.03618,-0.4885 2.93099,-8.948713 m 15.50933,-4.540485 2.8702,-8.812189 -7.53548,-5.458822 -7.52054,5.458822 2.8702,8.812189 m 27.49142,13.977698 3.07499,-9.437213 -7.55041,-5.473753 -7.43308,5.473753 2.85633,8.948713 m -6.25343,1.924134 -2.8702,-8.832455 h -9.31562 l -2.8702,8.832455 7.52054,5.407625"
     id="path24"
     style="fill:#ffffff" />
  <path
     d="m 132.59189,111.93251 h 8.91991 c 2.21532,0 4.03706,-1.80681 4.03706,-4.02212 v -8.137046 c 0,-2.237712 -1.82174,-4.022121 -4.03706,-4.022121 h -8.91991 c -2.23025,0 -4.03812,1.785476 -4.03812,4.022121 v 8.137046 c -10e-4,2.21531 1.80787,4.02212 4.03812,4.02212 m -0.68582,-12.210363 c 0,-0.429836 0.39357,-0.779679 0.80208,-0.779679 h 8.67246 c 0.45224,0 0.83088,0.349843 0.83088,0.779679 v 8.231973 c 0,0.4373 -0.37864,0.80207 -0.83088,0.80207 h -8.67246 c -0.40851,0 -0.80208,-0.36477 -0.80208,-0.80207 v -8.231973 z m 62.80845,16.364743 8.90605,1.51562 c 2.23024,0.36478 4.00932,-1.09325 4.00932,-3.35336 v -8.01652 c 0,-2.24838 -1.77908,-4.33997 -4.00932,-4.74101 l -8.90605,-1.500691 c -2.21532,-0.401039 -4.09572,1.099661 -4.09572,3.308571 v 8.07944 c 0,2.18652 1.8804,4.3293 4.09572,4.70795 m -0.72955,-12.20396 c 0,-0.50344 0.4085,-0.78608 0.81701,-0.74982 l 8.6874,1.5007 c 0.46716,0.0875 0.83087,0.50343 0.83087,0.98446 v 8.09331 c 0,0.4949 -0.36477,0.78608 -0.83087,0.72849 l -8.6874,-1.48683 c -0.40851,-0.0725 -0.81701,-0.5397 -0.81701,-0.99194 v -8.07837 z m -103.679215,10.93578 8.935914,-0.961 c 2.230241,-0.29118 4.037051,-2.27398 4.037051,-4.54902 v -8.02718 c 0,-2.222783 -1.80681,-3.840804 -4.037051,-3.527226 l -8.935914,0.9546 C 88.090442,98.993665 86.2975,100.99779 86.2975,103.21417 v 8.04958 c 0,2.24305 1.792942,3.86107 4.008255,3.55496 m -0.641022,-12.02158 c 0,-0.46716 0.319978,-0.88207 0.757281,-0.93326 l 8.6586,-0.95567 c 0.479966,-0.0512 0.859673,0.21865 0.859673,0.73595 v 8.12957 c 0,0.43731 -0.37864,0.84581 -0.859673,0.90447 l -8.6586,0.9482 c -0.437303,0.0864 -0.757281,-0.24745 -0.757281,-0.71461 v -8.11465 z M 73.3096,104.63381 v 11.54054 l -1.310842,1.53056 5.961186,-1.04953 -1.311909,-1.12206 v -11.48294 l 5.496153,-1.01966 1.354572,1.12205 v -4.511684 l -17.01002,3.039794 v 4.48502 l 1.311909,-1.54763 m 109.888911,-4.57035 v 11.54054 l -1.32577,1.18179 5.97505,0.66875 -1.31084,-1.48576 v -11.52668 l 5.49402,0.55463 1.31191,1.46443 V 98.992598 L 170.86764,97.18579 v 4.45942 l 1.31191,-1.18711 m -23.77329,11.62053 5.97612,0.17492 -1.37057,-1.42817 v -10.31609 l 9.35722,12.16663 5.67107,0.34984 -1.35564,-1.3983 V 98.206519 l 1.35564,-1.283111 -5.97719,-0.372241 1.28311,1.35564 v 10.411013 l -9.34228,-12.19649 -5.59748,-0.188787 1.29698,1.391904 v 13.471073"
     id="path26"
     style="fill:#ffffff" />
  <path
     d="m 106.13613,113.20069 5.91745,-0.45224 -1.31084,-1.23831 v -3.55709 l 9.51827,-0.52476 c 0.45224,0 0.84581,0.36477 0.84581,0.77327 v 2.75501 l -1.37057,1.41324 6.02092,-0.27731 -1.34178,-1.26712 v -2.56622 c 0,-1.26818 -0.81701,-2.28891 -1.89427,-2.65582 1.07833,-0.55463 1.89427,-1.68415 1.89427,-2.95873 v -2.61635 c 0,-2.259044 -1.80681,-3.929328 -4.03705,-3.812003 l -14.24115,0.889538 1.29698,1.231915 v 13.4924 m 3.3075,-11.940507 9.51828,-0.53223 c 0.45223,-0.0512 0.8458,0.33491 0.8458,0.787147 v 3.24991 c 0,0.4885 -0.39357,0.8746 -0.8458,0.90447 l -9.51828,0.53969 v -4.948987 z"
     id="path28"
     style="fill:#ffffff" />
  <path
     d="m 103.84722,78.62281 c -2.4777,0.218652 -4.926595,0.481033 -7.40429,0.713551 l -7.054444,9.154565 c 4.41676,-0.554628 9.212161,-1.100724 14.459794,-1.524161 M 87.099578,133.43182 c 1.53056,10.87391 16.747642,21.6017 16.747642,21.6017 v -29.74941 c -6.078515,0.52477 -11.68986,1.16579 -16.747642,1.86547 m 19.648772,43.64071 c 3.65841,2.52143 7.52054,4.81034 11.26642,6.8358 l 6.74833,-5.64121 c -7.17177,-3.03126 -13.13296,-6.32596 -18.01582,-9.56201 M 179.6425,79.336361 c -2.50756,-0.232518 -4.98526,-0.494899 -7.39043,-0.713551 v 8.343955 c 5.16018,0.422371 10.02811,0.969533 14.42994,1.524161 m -14.42994,66.542594 c 0,0 15.18828,-10.72779 16.66018,-21.6017 v -6.28224 c -5.05778,-0.69968 -10.5966,-1.3407 -16.66018,-1.86547 m -14.21128,52.34304 c 3.77574,-2.02546 7.60907,-4.31437 11.25362,-6.83579 v -8.36742 c -4.86793,3.23604 -10.80138,6.53075 -18.00195,9.562 m -17.47719,-70.32579 c 0,-0.42984 0.42237,-0.80208 0.88954,-0.80208 h 6.44222 v -0.917271 h -7.34669 c -0.46717,0 -0.85967,0.437301 -0.85967,0.889541 v 6.89019 h 0.87354 m 12.81404,-7.948253 v 8.137043 c 0,2.76994 -2.33264,5.08765 -5.11645,5.08765 h -8.91991 l -0.61222,-0.0437 c 0.71461,0.56849 1.58815,0.90447 2.56515,0.90447 h 7.87146 c 2.82753,0 5.05778,-2.27398 5.05778,-5.10152 v -7.02992 c 0,-0.961 -0.32105,-1.865465 -0.90447,-2.551285 l 0.0587,0.597292 m 49.30965,6.345163 c 0,-0.44904 0.33491,-0.79781 0.78714,-0.66662 l 6.52968,1.10392 v -0.88634 l -7.36055,-1.26711 c -0.45117,-0.0661 -0.85968,0.23358 -0.85968,0.71462 v 6.81766 l 0.90341,0.14613 m 12.73938,-6.28011 0.0437,0.59516 v 8.04532 c 0,2.81367 -2.3177,4.70794 -5.10151,4.2429 l -8.90605,-1.56042 c -0.21865,-0.0149 -0.4373,-0.0725 -0.61222,-0.14613 0.68582,0.72955 1.58922,1.21059 2.50756,1.38551 l 7.87145,1.32577 c 2.81367,0.5397 5.13138,-1.42817 5.13138,-4.2269 v -6.96699 c -0.001,-0.97806 -0.35091,-1.92414 -0.93434,-2.69422 M 90.699328,103.75173 v 6.82514 l 0.830876,-0.11626 v -5.95799 c 0,-0.43731 0.393572,-0.88954 0.873539,-0.95567 l 6.515815,-0.68475 v -0.88208 l -7.390421,0.81701 c -0.436236,0.0875 -0.829809,0.50237 -0.829809,0.9546 m 13.613992,-2.54382 v 8.01438 c 0,2.79768 -2.25905,5.33403 -5.071651,5.66894 l -8.935914,0.96207 c -0.203719,0.0725 -0.37864,0.0725 -0.582359,0.0725 0.698618,0.48103 1.588156,0.72848 2.521425,0.64102 l 7.841589,-0.91727 c 2.84247,-0.27731 5.11645,-2.81367 5.11645,-5.65614 v -7.01392 c 0,-0.93327 -0.32105,-1.77161 -0.88954,-2.47023 v 0.69862 m -35.915379,7.54722 1.341773,-1.58923 2.506493,-0.45117 v -0.81594 l -3.848266,0.67088 m 9.300688,-1.65108 v 9.97264 l 0.888472,0.72955 v -10.00248 l 3.950659,-0.69968 -0.86074,-0.72209 m 2.857402,0.85328 0.859674,0.66982 v -4.47543 l -0.859674,0.18239 m -9.736925,16.81804 -0.889538,1.04846 5.977185,-1.07832 -0.831942,-0.68476 m 95.036608,-14.9003 2.52036,0.25491 v -0.9034 l -3.80347,-0.42344 v 2.22278 m 13.27802,-0.76474 -4.05199,-0.38611 v 10.00251 l 0.91834,0.93327 v -10.01744 l 4.00825,0.4373 m 1.95293,0.68475 0.84581,0.9482 v -4.49035 l -0.84581,-0.08 m -10.63926,14.87898 6.00492,0.65488 -0.90341,-0.961 -4.21304,-0.46716 m -15.50826,-1.36951 0.67089,0.91834 5.64014,0.36371 -0.88847,-0.88954 m -1.35671,-2.899 0.88954,0.91727 V 100.2469 l 1.35564,-1.275644 -2.24518,-0.09493 m -12.30208,14.499274 -4.24184,-0.11626 -0.8746,0.83087 6.02091,0.18879 m -1.3567,-9.49162 -0.85967,-1.17432 v 6.84754 l 0.85967,0.91833 m -28.61242,-0.20371 v -1.04953 c 0,-0.84474 -0.33384,-1.58816 -0.9034,-2.06919 v 2.30277 m -12.75432,-0.56956 7.33176,-0.39357 v -0.85967 l -8.22129,0.46716 v 2.02546 l 0.88953,0.82981 m 0.45224,1.91134 -4.21198,0.33491 -0.8746,0.9322 5.98998,-0.45224 m 10.30542,-9.11297 c 0.14613,0.14612 0.29118,0.32744 0.43731,0.51303 0.91833,-0.53543 1.55935,-1.58496 1.55935,-2.70702 v -1.4143 c 0,-1.00579 -0.33384,-1.83667 -0.9034,-2.507557 v 3.272307 c 0,1.02073 -0.39357,2.07132 -1.09326,2.84354 m -11.66106,-3.74588 7.33176,-0.44477 v -0.82341 l -8.22129,0.4725 v 2.78488 l 0.88953,-0.0661 m 9.85425,9.59508 -0.86074,0.9322 6.00599,-0.26132 -0.88954,-0.80208"
     id="path30"
     style="fill:#b0b7bb" />
  <path
     d="m 227.33519,115.81064 v -5.37883 c 0,0 -3.20618,-0.67089 -8.58501,-1.70548 l -0.90447,3.36617 4.88287,22.05393 -17.94223,7.15684 c 13.4828,1.89427 22.54884,3.55709 22.54884,3.55709 v -6.07851 l 12.95803,-9.16844 M 58.253577,112.0925 57.349106,108.72633 c -5.393759,1.03459 -8.603137,1.70548 -8.603137,1.70548 v 5.37883 l -12.950568,13.80277 12.950568,9.16844 v 6.07851 c 0,0 9.070305,-1.66282 22.538172,-3.55709 L 53.283255,134.14643 M 83.382502,58.755387 c 9.182297,-1.253246 28.627348,-3.628548 50.418908,-3.877064 l -8.83246,-6.465686 c -26.921865,0.991932 -48.276118,4.57675 -48.276118,4.57675 v 37.388342 c 2.06919,-0.349843 4.314368,-0.722084 6.68967,-1.071926 M 199.37873,90.378795 V 52.990453 c 0,0 -21.33932,-3.584818 -48.24626,-4.576749 l -8.86232,6.465685 c 21.77663,0.24745 41.26434,2.623818 50.41891,3.877065 v 30.551482 c 2.34543,0.348776 4.60554,0.721017 6.68967,1.070859 m -6.69074,51.084465 c 0,28.8748 -44.98248,45.08381 -54.67568,48.21746 -9.62066,-3.13365 -54.630875,-19.34266 -54.630875,-48.21746 v -13.77398 c -2.376368,0.40851 -4.620479,0.77328 -6.689669,1.12206 v 12.65192 c 0,37.63472 61.320544,55.21431 61.320544,55.21431 0,0 61.36535,-17.57852 61.36535,-55.21431 v -12.65192 c -2.11292,-0.34878 -4.34317,-0.71355 -6.68967,-1.12206"
     id="path32"
     style="fill:#e31937" />
  <path
     d="m 138.01338,53.974919 11.9821,-8.679932 c 27.4605,0.932202 49.38325,4.656744 49.38325,4.656744 v -6.129709 c 0,0 -13.29401,-2.230245 -32.16951,-3.672278 l 3.81947,-12.265817 -10.74272,-7.74773 -1.48683,-4.613013 -8.46875,6.164906 3.22218,-9.969443 H 148.7721 L 138.01445,3.9058559 127.27066,11.718647 h -4.7954 l 3.27977,9.969443 -8.51247,-6.164906 -1.45697,4.613013 -10.74272,7.74773 3.8184,12.265817 c -18.818963,1.4431 -32.169504,3.672278 -32.169504,3.672278 v 6.129709 c 0,0 21.907814,-3.724542 49.426974,-4.656744 m 30.2603,-20.552175 7.55041,5.473753 -3.07605,9.43828 -9.05111,-0.4885 -2.8574,-8.94978 7.43415,-5.473753 z m -18.36566,-13.337743 7.53548,5.458822 -2.8702,8.812189 h -9.31456 l -2.8702,-8.812189 7.51948,-5.458822 z m -4.65034,20.851888 h 9.31455 l 2.8702,8.832455 -7.53548,5.407625 -7.52054,-5.407625 2.87127,-8.832455 z m -18.16088,7.396821 -3.06112,-9.438279 7.52161,-5.473754 7.50668,5.473754 -2.92993,8.949779 -9.03724,0.4885 z m 79.59982,73.299462 8.6874,1.48683 c 0.46716,0.0587 0.83087,-0.23359 0.83087,-0.72849 v -8.09331 c 0,-0.48103 -0.36477,-0.897 -0.83087,-0.98446 l -8.6874,-1.5007 c -0.40851,-0.0363 -0.81701,0.24638 -0.81701,0.74982 v 8.07837 c 0,0.45224 0.4085,0.91941 0.81701,0.99194 m 0.23251,-7.8384 c 0,-0.48103 0.40851,-0.77968 0.85968,-0.71462 l 7.36055,1.26711 v 0.88634 l -6.52968,-1.10392 c -0.45223,-0.13119 -0.78714,0.21758 -0.78714,0.66662 v 5.96119 l -0.90341,-0.14612 v -6.8166 z M 57.597623,129.62835 c 0,0 30.842662,-9.02231 80.415757,-9.02231 49.58803,0 80.46056,9.02231 80.46056,9.02231 l -3.9208,-17.59345 3.9208,-14.280616 c 0,0 -30.87146,-9.066038 -80.46056,-9.066038 -49.573095,0 -80.415757,9.066038 -80.415757,9.066038 l 3.905862,14.280616 m 6.894456,-3.27977 v -2.18652 l 3.848266,-0.67089 v 0.81701 l -2.507559,0.45117 -1.340707,1.58923 z m 5.510018,10.53793 0.889538,-1.04846 4.255705,-0.71462 0.830876,0.68582 -5.976119,1.07726 z m 4.679142,-13.67479 v 10.00251 l -0.888472,-0.72955 v -9.97371 l 3.978391,-0.72208 0.86074,0.72208 -3.950659,0.70075 z m 29.473159,9.41909 0.8746,-0.9322 4.21198,-0.33491 0.9034,0.81594 -5.98998,0.45117 z m 4.63434,-3.17845 -0.88954,-0.82981 v -2.02546 l 8.2213,-0.46716 v 0.85967 l -7.33176,0.39357 v 2.06919 z m 37.60593,2.23131 0.8746,-0.83087 4.24184,0.11626 0.90447,0.9034 -6.02091,-0.18879 z m 4.66421,-2.71128 -0.85967,-0.91833 v -6.84753 l 0.85967,1.17432 v 6.59154 z m 9.35935,3.32351 -0.67089,-0.91727 5.42256,0.3925 0.88847,0.88954 -5.64014,-0.36477 z m 8.48261,-10.92192 v -2.22278 l 3.80347,0.42237 v 0.90447 l -2.52036,-0.25491 -1.28311,1.15085 z m 5.46629,12.14637 0.88847,-0.77328 4.21304,0.46716 0.90341,0.961 -6.00492,-0.65488 z m 4.67808,-12.37888 v 10.01851 l -0.91834,-0.93327 v -10.00251 l 4.05199,0.3861 0.8746,0.96847 -4.00825,-0.4373 z m 26.65948,4.94472 v 6.96699 c 0,2.79874 -2.3177,4.7666 -5.13138,4.22691 l -7.87145,-1.32578 c -0.91727,-0.17492 -1.82174,-0.65595 -2.50756,-1.3855 0.17492,0.0725 0.39357,0.13119 0.61222,0.14612 l 8.90605,1.56043 c 2.78381,0.4661 5.10152,-1.42924 5.10152,-4.24291 v -8.04531 l -0.0437,-0.59516 c 0.58449,0.77114 0.93433,1.71722 0.93433,2.69421 z M 190.6188,103.2995 c 0,-2.20785 1.8804,-3.70961 4.09572,-3.308571 l 8.90605,1.500691 c 2.23024,0.40104 4.00932,2.49263 4.00932,4.74101 v 8.01652 c 0,2.25904 -1.77908,3.71707 -4.00932,3.35336 l -8.90605,-1.51562 c -2.21532,-0.37865 -4.09572,-2.52143 -4.09572,-4.70795 v -8.07944 z m -1.70655,-2.25158 0.84581,0.08 v 4.49036 l -0.84581,-0.9482 v -3.62215 z m -18.04461,-3.86213 16.96629,1.806808 v 4.453022 l -1.31191,-1.46443 -5.49402,-0.55463 v 11.52668 l 1.31084,1.48683 -5.97612,-0.66982 1.32578,-1.18072 v -11.54054 l -5.51002,-0.58983 -1.31084,1.18712 v -4.46049 z m -2.25905,3.06112 v 11.94798 l -0.88954,-0.91727 V 98.876339 l 2.24412,0.09493 -1.35458,1.275641 z m -20.20233,-4.314367 5.59748,0.188787 9.34335,12.19756 V 97.907873 l -1.28311,-1.355639 5.97719,0.372241 -1.35564,1.283111 v 13.420944 l 1.35564,1.39937 -5.67001,-0.34985 -9.35722,-12.16662 v 10.31609 l 1.37057,1.42816 -5.97718,-0.17492 1.29804,-1.28204 V 97.324447 l -1.29911,-1.391904 z m -0.9322,5.793727 v 7.02992 c 0,2.82754 -2.23025,5.10152 -5.05778,5.10152 h -7.87146 c -0.977,0 -1.85054,-0.33491 -2.56515,-0.90447 l 0.61222,0.0437 h 8.91991 c 2.78381,0 5.11645,-2.31771 5.11645,-5.08765 v -8.137043 l -0.0587,-0.598358 c 0.58342,0.685819 0.90447,1.590291 0.90447,2.552351 z M 128.5527,99.772277 c 0,-2.237711 1.80788,-4.022121 4.03812,-4.022121 h 8.91992 c 2.21531,0 4.03705,1.785476 4.03705,4.022121 v 8.137043 c 0,2.21531 -1.82174,4.02212 -4.03705,4.02212 h -8.91992 c -2.23024,0 -4.03812,-1.80681 -4.03812,-4.02212 v -8.137043 z m -0.8586,14.143023 -6.00599,0.26132 0.86074,-0.9322 4.25571,-0.1312 0.88954,0.80208 z m -2.24518,-5.85986 c 0.56849,0.48104 0.9034,1.22445 0.9034,2.06919 v 1.04953 l -0.9034,-0.81701 v -2.30171 z m 0.9034,-6.19157 v 1.4143 c 0,1.12205 -0.64102,2.17158 -1.55936,2.70701 -0.14612,-0.18665 -0.29118,-0.36798 -0.4373,-0.51303 0.69969,-0.77328 1.09326,-1.82281 1.09326,-2.84247 v -3.272307 c 0.56849,0.670887 0.9034,1.500697 0.9034,2.506497 z m -20.21619,-4.759141 14.24114,-0.889538 c 2.23025,-0.116259 4.03705,1.552959 4.03705,3.811999 v 2.61635 c 0,1.27458 -0.81701,2.40517 -1.89426,2.95873 1.07832,0.36798 1.89426,1.38765 1.89426,2.65582 v 2.56516 l 1.34178,1.26711 -6.02092,0.27732 1.37057,-1.41324 v -2.75501 c 0,-0.4085 -0.39357,-0.77328 -0.8458,-0.77328 l -9.51828,0.52477 v 3.55708 l 1.31084,1.23832 -5.91745,0.45223 1.29697,-1.37057 V 98.335577 l -1.29591,-1.230848 z m -0.93327,5.874791 v 7.01392 c 0,2.84247 -2.27398,5.37883 -5.11645,5.65614 l -7.841589,0.91727 c -0.933269,0.0875 -1.822807,-0.15892 -2.521425,-0.64102 0.202652,0 0.377574,0 0.582359,-0.0725 l 8.935914,-0.96207 c 2.812601,-0.33491 5.071651,-2.87126 5.071651,-5.66894 v -8.713 c 0.56849,0.69862 0.88954,1.53696 0.88954,2.47023 z M 86.2975,103.2131 c 0,-2.21637 1.792942,-4.220502 4.008255,-4.505282 l 8.935914,-0.954601 c 2.230241,-0.313578 4.037051,1.304443 4.037051,3.527223 v 8.02718 c 0,2.27504 -1.80681,4.25677 -4.037051,4.54902 l -8.935914,0.961 C 88.090442,115.12375 86.2975,113.5068 86.2975,111.26162 v -8.04852 z m -1.763078,-1.78654 0.859674,-0.18239 v 4.47436 l -0.859674,-0.66982 v -3.62215 z m -18.045682,1.25432 17.01002,-3.039794 v 4.510624 l -1.355639,-1.12206 -5.495086,1.01966 v 11.48295 l 1.310843,1.12205 -5.961187,1.04953 1.310843,-1.53056 v -11.54054 l -5.508952,0.98446 -1.311909,1.54764 v -4.48396 z m 54.61701,0.71355 v -3.24991 c 0,-0.452237 -0.39357,-0.838344 -0.8458,-0.787147 l -9.51828,0.53223 v 4.948987 l 9.51828,-0.53969 c 0.45223,-0.0299 0.8458,-0.41597 0.8458,-0.90447 m -1.07939,-2.11292 -7.33176,0.44476 v 1.92414 l -0.88954,0.0651 v -2.78381 l 8.2213,-0.4725 v 0.82234 z m -29.604346,10.34595 8.6586,-0.9482 c 0.479966,-0.0587 0.859673,-0.46717 0.859673,-0.90447 v -8.12958 c 0,-0.51729 -0.37864,-0.78714 -0.859673,-0.73595 l -8.6586,0.95567 c -0.437303,0.0512 -0.757281,0.46717 -0.757281,0.93327 v 8.11464 c 0,0.4661 0.319978,0.80101 0.757281,0.71462 m 0.277314,-7.87573 c 0,-0.45223 0.393573,-0.86714 0.830876,-0.9546 l 7.390421,-0.81701 v 0.88208 l -6.515815,0.68475 c -0.479967,0.0661 -0.87354,0.5173 -0.87354,0.95567 v 5.95799 l -0.830875,0.11626 v -6.82514 z m 42.008822,5.0034 h 8.67246 c 0.45224,0 0.83088,-0.36478 0.83088,-0.80208 v -8.231969 c 0,-0.429837 -0.37864,-0.779679 -0.83088,-0.779679 h -8.67246 c -0.40851,0 -0.80208,0.349842 -0.80208,0.779679 v 8.231969 c 0,0.43837 0.39357,0.80208 0.80208,0.80208 m 0.23358,-7.92479 c 0,-0.45224 0.39251,-0.889541 0.85968,-0.889541 h 7.34669 v 0.917271 h -6.44222 c -0.46717,0 -0.88954,0.37224 -0.88954,0.80208 v 6.06038 h -0.87354 v -6.89019 z m -11.76345,33.92832 0.94714,0.58342 v -2.71128 h -12.62313 l 0.90447,0.77222 v 7.6816 l -0.90447,0.74341 h 4.27171 l -0.80208,-0.74341 v -2.78381 h 7.02564 v -2.12892 h -7.02564 v -1.41323 m 44.83529,0 h 7.56534 l 0.90447,0.58342 v -2.71128 h -8.46874 c -2.0404,0 -3.64349,1.31085 -3.64349,2.915 v 3.36617 c 0,1.60415 1.60309,2.915 3.64349,2.915 h 8.46874 v -2.12786 h -8.46874 c -0.58343,0 -1.04847,-0.33491 -1.04847,-0.78714 v -3.36617 c -10e-4,-0.39357 0.46397,-0.78714 1.0474,-0.78714"
     id="path34"
     style="fill:#e31937" />
  <path
     d="m 202.54224,129.36596 v 9.41589 l 15.15842,-6.04865 c -3.39603,-0.88954 -8.48368,-2.09906 -15.15842,-3.36724 m -129.012922,9.41589 v -9.41589 c -6.645939,1.26818 -11.777317,2.4777 -15.202146,3.36724 m 28.889731,10.80032 c 0.873539,9.9993 7.92905,18.38059 16.631377,25.11505 v -8.27995 c -9.212158,-6.61715 -14.183547,-12.98684 -16.631377,-16.8351 m 85.035167,16.8351 v 8.27995 c 8.68847,-6.7334 15.72798,-15.11575 16.61645,-25.11505 -2.47769,3.84826 -7.44801,10.21795 -16.61645,16.8351 M 87.099578,61.838907 v 23.27732 l 5.946254,-8.446348 c 9.109768,-1.100724 21.280658,-2.17265 34.778388,-2.55769 v 11.522402 c 3.27871,-0.0512 6.67581,-0.102393 10.18809,-0.102393 3.49843,0 6.91046,0.0512 10.26169,0.102393 V 74.112189 c 13.454,0.38504 25.66862,1.456966 34.70586,2.55769 l 5.93239,8.446348 v -23.27732 c -11.0915,-1.465499 -30.14297,-3.454694 -50.89994,-3.454694 -20.74096,0 -39.79137,1.989195 -50.912732,3.454694 m 61.175492,62.060773 c -3.3523,-0.0587 -6.76327,-0.13119 -10.26169,-0.13119 -3.51229,0 -6.90939,0.0725 -10.18809,0.13119 v 49.53043 l -6.86566,5.66894 c 7.18564,3.58589 13.67159,6.00598 17.05268,7.14297 3.46963,-1.13699 9.92678,-3.55708 17.08362,-7.14297 l -6.82193,-5.66894"
     id="path36"
     style="fill:#455560" />
</svg>
