<?xml version="1.0" encoding="UTF-8" standalone="no"?>
<!-- Created with Inkscape (http://www.inkscape.org/) -->

<svg
   xmlns:dc="http://purl.org/dc/elements/1.1/"
   xmlns:cc="http://creativecommons.org/ns#"
   xmlns:rdf="http://www.w3.org/1999/02/22-rdf-syntax-ns#"
   xmlns:svg="http://www.w3.org/2000/svg"
   xmlns="http://www.w3.org/2000/svg"
   version="1.0"
   width="280"
   height="200"
   id="svg1891">
  <metadata
     id="metadata25">
    <rdf:RDF>
      <cc:Work
         rdf:about="">
        <dc:format>image/svg+xml</dc:format>
        <dc:type
           rdf:resource="http://purl.org/dc/dcmitype/StillImage" />
        <dc:title></dc:title>
      </cc:Work>
    </rdf:RDF>
  </metadata>
  <defs
     id="defs1893" />
  <g
     transform="matrix(0.33045618,0,0,0.33045618,48.145558,-5.3816953)"
     id="layer1">
    <g
       id="g3004">
      <path
         d="m 17.716244,454.50755 c 0,-92.25531 74.811612,-167.04177 166.976566,-167.04177 92.28047,0 167.08146,74.78646 167.08146,167.04177 0,92.25531 -74.80099,167.00208 -167.08146,167.00208 -92.164954,0 -166.976566,-74.74677 -166.976566,-167.00208 l 0,0 z"
         id="_46749016"
         style="fill:#ed1c23;fill-opacity:1;fill-rule:evenodd" />
      <path
         d="m 37.936834,454.50755 c 0,-81.11728 65.815506,-146.88602 146.947316,-146.88602 81.09602,0 146.90055,65.76874 146.90055,146.88602 0,81.10665 -65.80453,146.82118 -146.90055,146.82118 -81.13181,0 -146.947316,-65.71453 -146.947316,-146.82118 l 0,0 z"
         id="_45949336"
         style="fill:#ffffff;fill-opacity:1;fill-rule:evenodd" />
      <path
         d="m 48.843487,454.49338 c 0,-75.12945 60.925743,-136.04067 136.040663,-136.04067 75.07913,0 136.00488,60.91122 136.00488,136.04067 0,75.13334 -60.92575,136.01905 -136.00488,136.01905 -75.11492,0 -136.040663,-60.88571 -136.040663,-136.01905 l 0,0 z"
         id="_46928568"
         style="fill:#ed1c23;fill-rule:evenodd" />
      <path
         d="m 171.27963,371.6544 9.60696,-14.29405 3.99721,50.82059 4.11768,-50.82059 9.59173,14.29405 11.06078,-50.92866 6.53457,-30.08763 17.64567,81.01629 9.61724,-14.29405 16.66666,210.07948 0,0.37843 c -21.55181,14.34224 -47.42008,22.6963 -75.23539,22.6963 -27.78839,0 -53.62937,-8.33032 -75.16772,-22.635 l 0,-0.43973 16.72831,-210.07948 9.62114,14.29405 17.60563,-81.01629 17.60953,81.01629 z m 88.8385,195.78543 0,0 z m -150.40311,0 0,0 z"
         id="_93044744"
         style="fill-rule:evenodd" />
      <polygon
         points="1612910,14755500 9223460,12616800 9223460,12616800 8618650,10523800 1150480,12624100 "
         transform="matrix(3.543307e-5,0,0,3.543307e-5,-2.914002e-4,4.756265e-4)"
         id="_92939432"
         style="fill:#ffffff;fill-opacity:1;fill-rule:evenodd" />
      <path
         d="m 327.78324,366.70086 c -2.81693,-2.88213 -5.32665,-6.82902 -5.32665,-6.82902 -30.10571,-43.6383 -80.53264,-72.36708 -137.64826,-72.36708 l -0.29233,0.36815 c -2.2174,0.44752 -4.51063,1.83472 -7.65673,3.61842 -5.08464,2.66174 -10.43327,2.84245 -15.68445,3.10997 -4.20342,-0.26752 -1.28551,-5.49319 -3.8459,-4.61197 -2.96894,0.81602 -9.52016,3.05504 -12.33319,4.83945 -0.26752,6.46086 -19.82374,13.21405 -30.37287,8.11842 1.23519,-15.48248 26.94507,-28.9102 63.72779,-34.4537 22.9337,-13.66937 26.18008,-17.23748 41.265,-30.61417 6.77905,-6.01335 9.89893,-8.48374 12.09153,-8.94225 0.98221,-0.40818 0.29233,-1.00736 -0.49854,-1.03287 -2.0622,-0.89185 -3.04441,-2.30776 -3.80976,-3.95114 -1.18489,-2.54587 -0.39402,-5.56512 -2.10225,-7.15748 -2.02606,-1.37622 -4.49645,-2.38394 -4.74874,-5.73555 -0.11586,-1.69335 -0.24236,-4.39477 -2.70177,-4.5861 -3.41646,0.10098 -4.63713,0.84118 -5.0198,-6.19052 -0.18071,-3.05858 -0.0762,-8.01389 -1.66855,-8.14358 -2.29322,-0.22748 -4.56129,7.46858 -7.03523,26.38559 -1.79504,13.75937 -9.98894,29.32866 -12.81721,27.36744 -2.73756,-2.38323 -0.43299,-16.58693 -4.61161,-22.91811 -0.63567,-1.13421 1.35035,15.57957 -11.26098,28.4726 -1.73304,1.87476 -3.22512,0.76606 -3.22512,-0.19134 0.48437,-3.4774 2.16708,-23.69445 -1.84536,-29.8885 -3.17409,-5.0811 -6.58736,-5.34862 -11.58165,-7.51536 -4.10279,-1.96122 -7.50472,-7.18689 -8.68961,-11.17382 -3.33673,-12.93271 2.53524,-26.66728 3.66945,-31.07338 1.1087,-4.25764 5.63032,-23.46768 4.49646,-31.48157 -1.83472,-6.103 -4.63713,-11.6465 -0.59953,-21.07276 0.59953,-0.9822 1.08319,-1.70823 0.28169,-2.53524 -6.01334,-4.62614 -10.05094,-8.29559 -11.74818,-17.454326 -1.00382,-5.40248 -0.17681,-7.797047 -2.23902,-12.473504 -0.71539,-1.874764 -2.34779,-2.932795 -1.78441,-4.153819 1.28587,-1.2887 3.19642,-1.2887 4.95532,-1.24937 9.97441,1.657559 15.97712,7.248543 19.74755,13.340905 1.30004,-2.560748 2.3439,-4.127952 4.16764,-5.911653 -0.40819,-6.179882 2.45587,-10.866968 6.55795,-14.894291 -0.70051,-7.656023 4.52516,-12.332834 8.22012,-14.026535 0.58465,-6.55122 4.51099,-11.365512 10.7263,-15.724488 4.22858,-9.693425 10.47295,-12.828188 14.14205,-15.081732 3.90047,-2.14122 9.45531,-4.665826 19.33937,-6.179173 4.26897,-0.538228 5.17216,2.112874 3.18579,3.93626 -6.42154,5.182795 -21.39095,21.185078 -27.4943,38.906574 1.93571,-3.427087 6.60189,-9.285236 12.40902,-12.037323 3.27543,-8.537244 11.22449,-12.946535 16.04197,-15.301771 2.81374,-5.146299 9.00744,-11.607165 17.99964,-13.531889 10.11969,-8.66374 26.60244,-8.432717 28.61752,-8.382047 3.35162,0.165826 7.54087,0.140669 8.21587,3.185078 1.17425,4.41 -49.00039,30.220866 -56.69256,82.276654 -0.26752,2.33291 12.31831,-11.860159 25.47886,-9.71823 0.7402,0.328464 1.30004,0.866338 1.65756,1.617874 6.12886,13.235666 0.3072,25.392046 1.7837,26.295236 26.02878,15.30177 31.68425,34.65567 42.88358,45.61299 15.7748,15.03071 34.23295,14.45988 49.67575,25.60535 14.6909,10.3578 31.50637,45.24095 40.0546,52.44201 36.99992,26.33528 68.16331,49.4302 92.89098,88.84984 3.27579,5.13532 5.34118,8.20524 11.683,8.79378 13.77425,-0.34654 25.13976,-16.67799 34.33783,-31.52126 0.50953,-0.77634 1.15972,-1.00701 1.71921,-0.55949 1.0839,0.82701 0.48437,3.02988 1.6324,3.17091 3.00508,0.41882 5.55449,-8.57374 8.62406,-10.54914 1.22457,-0.86704 3.04476,-0.12649 2.63657,1.42654 -0.90283,3.42709 -3.05858,7.42854 -3.19641,10.03996 0,0.64984 0.55984,0.50917 0.89256,0.0904 0.57011,-0.6757 1.35035,-0.91736 1.97185,-0.79086 1.30003,0.28169 1.17354,1.93571 0.80503,2.75209 -1.13421,2.1157 -2.11641,4.26862 -2.25708,6.75318 -0.0507,2.10154 1.61787,0.58536 2.62559,1.18489 1.42653,0.63496 1.13421,2.32901 0.36815,4.35507 -3.84626,8.51245 -15.64441,39.68681 -43.68791,35.64886 -3.5791,-0.62433 -5.41382,-3.23575 -4.32993,0.77669 7.16138,24.15685 -6.95622,76.59603 -0.96803,101.56925 1.71886,7.13268 9.83374,12.91819 12.31866,16.64859 1.46622,1.40492 3.16028,4.37385 3.52843,7.68543 1.88894,21.30024 -3.52843,23.3263 6.33437,63.01311 0.82701,3.26126 0.72602,5.64449 -0.96768,7.55539 -1.7589,2.01118 -3.07382,1.13351 -3.60779,3.0189 -1.28587,12.79205 -6.55866,22.90748 -14.08855,25.63441 -10.39748,3.61842 -17.18681,-1.28551 -15.67381,-10.05095 2.94342,-15.85027 10.54913,-18.88405 13.20023,-34.99866 2.00055,-13.66937 -6.26634,-27.6998 -9.08327,-32.46378 -2.60007,-4.38059 -9.21295,-16.29496 -17.39267,-23.86098 -1.09418,-1.33972 -1.97185,-1.00772 -2.35488,0.1265 -3.11989,9.84862 0.152,30.06531 1.55303,35.29133 2.30775,8.38241 4.94397,18.68953 4.44578,25.5189 -0.44433,6.70252 -3.85689,10.80142 -7.04232,13.90075 -4.8685,4.7126 -1.75854,12.6 -10.89602,16.40657 -6.71351,2.79142 -11.64366,1.58174 -13.91138,0.40819 -2.10153,-1.33618 -3.10925,-1.92118 -3.33673,-4.49645 -0.0145,-3.06993 0.30331,-7.46469 3.31157,-11.22449 4.89366,-6.10335 11.39067,-14.75292 12.52488,-31.02236 2.12705,-29.48067 -24.09236,-63.05315 -25.74992,-63.43583 -1.68342,-0.38268 -1.09452,1.09807 -2.43425,0.71539 -2.59653,-2.1274 -5.69516,-10.06547 -8.48338,-13.0337 -1.49138,-2.07673 -5.25118,-1.17425 -5.84681,-4.14248 -0.32174,-2.26807 -1.24973,-4.57263 -3.09863,-5.54031 -1.21039,-0.71504 -2.08771,0.50917 -3.18578,-0.0904 -3.21024,-2.50973 -3.33674,-11.53134 -4.38059,-12.10182 -1.14804,-0.49854 -2.21741,0.41882 -3.03378,0 -2.34355,-1.00771 -1.7837,-8.56275 -3.65457,-13.92555 -0.86705,-2.80275 -3.72012,-2.71594 -4.52516,-6.1037 -1.24582,-6.12886 -1.08319,-14.09208 -7.66736,-17.12232 -6.75319,-2.94342 -11.05831,1.09453 -14.26854,-3.77362 -1.6976,-2.08772 -1.41591,-5.52969 -5.78587,-5.98784 -2.31838,-1.15972 -3.25027,-3.99791 -5.33799,-3.36224 -1.1335,0.33236 -0.19134,2.52035 -2.5239,4.0011 -3.13476,0.21685 -6.28086,-8.25555 -10.62531,-7.8874 -1.44071,0.54921 -2.00055,2.1926 -3.64394,2.29358 -1.87087,0.0904 -2.02606,-9.48047 -8.14039,-11.78433 -1.1087,-0.40819 -1.91055,1.61788 -2.85307,0.26717 0,0 -2.5239,-1.91055 -5.428,-4.98012 z"
         id="_47868120"
         style="fill-rule:evenodd" />
      <path
         d="m 180.24703,76.598978 c 2.62559,-3.300945 7.93807,-4.803662 7.7074,-5.861339 -0.45921,-0.953504 -2.43106,-0.08716 -3.91181,0 -0.61016,0.100985 -1.4517,-0.05102 -1.36134,-0.787677 2.48421,-8.688897 10.98248,-10.256102 13.5574,-13.008189 0.30366,-0.534685 0,-0.534685 -0.66437,-0.906732 -1.35035,-0.0613 -3.49228,1.415906 -3.49228,0.126496 1.00771,-8.660196 11.55685,-12.842716 13.54677,-13.513818 0.5198,-0.448229 0.0503,-1.058386 -0.59953,-1.162914 -0.90673,0.104528 -1.63276,0.649843 -1.7589,-0.44433 1.03288,-4.305118 6.76453,-7.746732 10.45878,-9.581457 3.77008,-1.553031 11.23866,-3.84626 11.23866,-2.701417 0,0.458504 -5.86134,3.300945 -7.79704,6.194055 -1.60725,2.379331 -3.07311,3.93626 -3.19961,7.696063 -5.98783,2.939527 -8.94189,9.577558 -9.35008,15.897401 -4.24346,2.19189 -7.51925,9.899291 -6.1037,13.073385 -4.90429,4.752992 -7.31303,11.632677 -7.04551,18.512362 -10.5998,13.871693 -7.46504,19.159013 4.22858,23.453503 1.72311,0.54886 3.36579,0.64984 3.69496,-0.17752 0.40819,-0.8302 -1.00417,-1.33937 -1.52752,-2.52425 -6.35669,-14.178544 1.65721,-21.264449 12.84201,-26.027717 0.88122,-0.418819 0.21685,-1.415905 -1.09453,-1.38685 -3.01889,-0.02905 -5.73484,0.736653 -6.11752,-0.216851 -1.62885,-4.640315 10.3865,-14.218582 16.29461,-16.041968 2.52461,-0.740551 1.45594,-2.00126 0.42272,-1.834724 -1.59237,-0.141024 -4.02662,0.776338 -4.81748,-1.285866 1.50626,-5.225669 15.90129,-12.141496 18.01771,-13.376693 1.31103,-0.830551 1.85953,-2.307756 -4.50035,-1.007716 -0.61016,0.09035 -1.26,0.09035 -0.97831,-0.776339 1.20969,-3.774331 14.67709,-9.032244 21.53126,-11.416181 1.08,-0.498543 1.3872,-2.192244 -1.8489,-1.556575 -1.15937,0.180709 -3.30059,0.957048 -3.72012,0.09036 0.41953,-5.09563 15.31311,-9.032244 20.62595,-10.180276 1.19905,-0.405 1.4152,-1.094527 0.37134,-1.604055 -1.68272,-0.498189 -4.35863,0.827008 -3.34028,-0.956693 4.01599,-2.521062 14.60126,-2.560748 18.28488,-1.97185 1.03288,0.187441 1.26036,0.418819 1.36134,0.635669 -1.13386,2.675906 -18.97086,7.887402 -21.17374,18.599173 -5.33799,2.217402 -10.56047,7.302047 -11.17417,11.657834 -2.81339,1.516182 -8.43272,6.143032 -8.76508,12.513544 -3.06992,2.293228 -11.10862,9.425905 -8.43272,18.104172 -4.29378,4.023425 -7.62059,8.151024 -7.45405,19.466212 0.0648,3.90012 -4.995,10.21642 -10.2313,11.68264 -1.46268,0.59953 -0.87768,1.78441 0.18071,2.0661 8.75055,2.57138 16.89094,-2.16708 20.06539,-5.17535 10.10126,-9.63177 16.82929,-13.09535 21.37571,-13.669366 0.83091,-0.21685 0.83091,0.382677 0.9574,0.841181 0.64984,2.521065 2.2174,8.649575 0.0255,17.262995 -2.86759,10.77662 -11.10897,15.77162 -13.45287,18.70405 -0.40819,0.41883 1.15937,4.9943 0.32846,7.33819 -0.9535,2.97956 0.11587,4.81429 1.19906,5.27315 2.99409,1.09737 5.11051,-10.03997 6.89421,-9.75827 1.43752,0.0758 1.19516,2.51008 2.91473,3.38776 0.90602,0.32103 2.2422,0.0393 2.39811,-0.96803 0.21614,-3.12023 1.37586,-10.72595 2.12704,-11.54232 0.54886,-0.68634 2.24221,2.75209 2.3439,4.85397 0.1265,8.66338 -4.75264,16.02744 -1.88539,22.00464 0.62468,1.27135 2.0622,1.17036 3.06992,0.22749 2.61142,-2.80275 4.39512,-12.98339 10.21712,-14.25472 7.83638,-1.74756 15.5941,19.74756 10.06477,25.47921 -2.68654,2.28224 -6.03815,0.28169 -9.37559,2.11606 -3.57839,2.08772 -3.26055,10.06547 -5.72032,13.37705 -1.44106,1.46657 -3.17409,1.69405 -6.53704,1.97575 -7.10717,0.53397 -4.94398,20.84137 -3.84591,24.46051 0.70051,2.15185 2.2174,1.74437 3.22157,1.00701 1.01835,-0.86634 1.79788,-5.04496 2.00056,-8.94508 0.29267,-1.22067 2.44488,-1.73374 3.98728,-3.23611 1.68272,-1.30003 0.80504,-2.7124 1.80921,-3.98692 1.45205,-1.60725 2.88177,-0.19134 4.05213,-1.98674 3.06992,-2.54941 0.87732,-6.55122 3.36224,-8.23004 3.63331,-2.39811 6.87969,-1.19905 10.09063,-4.72783 1.9754,-2.19189 2.23158,-6.82902 4.99429,-7.61988 14.71713,-0.35788 29.35453,16.60181 31.86425,21.64712 7.27725,15.05941 -4.36996,37.80107 3.59363,42.15685 10.02543,5.8252 7.86189,17.1365 6.75318,19.97894 -2.16637,5.78516 -18.19417,13.10916 -20.2709,26.48587 -1.03323,12.84271 5.67,10.18098 6.14303,8.57409 0.50917,-1.60335 0.96803,-3.70559 1.755,-5.31284 0.62504,-1.41165 2.58591,-0.78696 2.81693,0.5889 0.38339,1.19551 3.13476,4.63677 7.19823,-2.93279 2.5852,-4.80296 9.50527,-10.99276 14.67673,-14.56122 5.11016,-3.61843 6.33118,-14.94425 7.21169,-17.51918 0.67571,-2.24291 2.54658,-2.24291 2.82827,-4.62295 0.17681,-2.48421 -4.47094,-10.67882 -1.70823,-16.55079 1.30004,-1.95059 4.40965,-3.35232 6.72803,-0.63566 2.44489,2.80204 -1.50236,12.01181 2.89311,12.22795 3.7591,0.10488 4.17792,-4.30441 7.43918,-4.02272 3.31193,0.6463 -2.66174,12.7878 0.61015,14.66221 2.01544,0.827 4.52516,-0.14067 5.55485,1.87476 0.93153,3.34736 -5.07048,9.45106 0.10452,9.45106 54.8224,-0.96803 74.83748,42.16039 71.31933,50.0439 -1.65401,2.98346 -8.25555,-1.47685 -9.20905,1.55693 -5.00882,16.86933 6.30567,29.64649 9.5811,31.84937 0.96803,0.54921 2.68724,-0.22748 2.56075,-2.34319 -0.54886,-4.81429 -3.21059,-7.37894 -2.69043,-12.14221 0.93189,-8.38204 19.66074,-3.21059 20.60362,3.1741 0.36815,2.38004 0.49464,4.34126 2.61071,6.35669 2.66173,2.52106 9.05775,-0.31783 9.68279,5.26181 0.8015,10.82729 -12.70169,11.45232 -22.05567,18.16547 -4.45642,3.4278 -3.43807,5.81103 0.32173,7.04622 4.50709,1.19906 11.69398,-0.0868 15.32339,5.23666 5.16083,7.37823 -1.61823,22.81712 -2.01154,29.31803 -0.38267,6.61216 11.45516,25.90122 11.69752,35.74984 0.83764,4.91528 -2.54941,7.56602 -6.7174,3.52878 -4.02342,-4.21866 -8.24138,-10.71567 -11.37614,-15.5948 -0.90248,-1.53107 -3.28642,-1.63205 -3.23575,1.52822 -0.0507,8.52308 40.33666,61.09122 41.355,69.70465 0.93189,4.5326 -1.59271,8.38275 -0.52016,12.78815 0.35398,1.28941 2.01154,0.54921 2.13804,1.58173 0.23067,2.91862 -2.73756,7.3389 1.48074,9.45496 2.10154,5.78197 0,8.19071 1.09382,12.96886 0.54922,4.76398 2.80276,11.37614 3.31229,16.17945 -1.13422,13.56838 -6.33118,18.85571 -10.47367,20.87078 -3.55358,1.78052 -5.03043,-1.42653 -4.71259,-4.19244 0.94216,-8.20594 10.03996,-22.75618 6.40665,-39.15212 -9.32528,-42.18236 -54.46523,-72.12508 -62.00539,-88.15287 -2.42008,-6.03851 -11.07284,-6.72449 -11.56748,-13.82103 -0.85642,-2.29358 -3.13477,-1.61787 -5.07047,-3.72011 -1.63276,-1.83402 -1.58245,-7.37823 -3.32682,-11.43036 -0.50917,-1.27453 -2.0909,-0.63496 -3.26055,-1.85953 -6.42153,-8.44724 -5.04567,-49.68708 -10.76598,-55.31704 -4.21795,-2.35843 -7.50472,4.20342 -12.75591,4.74874 -4.02307,0.42271 -10.66074,-9.57756 -13.095,-7.04232 -1.97574,1.96122 -1.12322,7.04232 -0.96803,7.83318 0.20268,0.70122 1.20969,4.21867 -0.15519,4.21867 -1.22067,0.0503 -3.00508,-2.4743 -8.08973,-4.55067 -3.38775,-1.2352 -6.61252,0 -8.18043,-1.00418 -3.46323,-3.7591 0.11587,-11.63232 -5.70614,-13.87523 -1.63205,-0.63567 -1.92437,-4.80296 -2.76591,-6.4715 -0.80185,-1.18453 -2.47039,-1.09807 -3.22193,-2.01543 -1.58173,-2.38004 -2.68653,-5.31213 -3.40157,-8.6602 -0.585,-2.29323 -5.91236,0.55984 -6.31984,-3.07346 -0.52052,-2.41937 -3.36225,-3.19607 -5.56583,-3.57874 -2.69043,-0.31784 -1.56685,-6.21532 -3.88595,-7.19823 -1.007,-0.44752 -1.37586,0.70122 -2.42291,0.16653 -1.0839,-1.35106 -0.87768,-2.62559 -2.24291,-3.59362 -1.14484,-0.77634 -2.27906,0.54921 -3.13122,-0.40819 -3.3913,-4.12795 -0.68988,-11.0583 -2.45906,-13.10988 -1.15972,-1.27453 -3.1748,0.14103 -4.94397,-1.37551 -1.71957,-1.32555 -2.00126,-3.49228 -3.03378,-3.79595 -3.01961,-0.0503 -4.07764,-0.59952 -5.31284,-2.11641 -5.50382,-7.69607 -4.87913,-16.55114 -6.76382,-19.69654 -1.2359,-2.07673 -3.08445,-3.36224 -4.47165,0.53398 -2.75209,6.70323 -2.45906,31.67291 -10.48748,35.06457 -6.165,3.02952 -11.66846,-7.60642 -14.71358,-9.49146 -1.35036,-0.72921 -1.60654,1.52787 -2.57492,1.61787 -2.80205,-1.09771 -2.19189,-4.44933 -4.44544,-5.77488 -2.2174,-0.96768 -1.27452,2.14193 -2.54976,1.87476 -2.1887,-2.01189 -2.1887,-7.41437 -4.12795,-8.37177 -1.57819,-0.61015 -2.49555,1.22457 -3.39839,0.44823 -3.1748,-2.75209 -0.9574,-8.89512 -4.77815,-10.83082 -1.65791,-0.53469 -1.40102,2.25708 -3.10925,1.46622 -1.64339,-0.59953 -1.35071,-9.29941 -6.44669,-8.46178 -0.75083,0.0797 -0.50918,-1.10515 -1.03252,-1.56366 -1.50272,-0.19134 -2.54977,1.91055 -4.12831,0.55949 -2.14122,-2.85307 -3.78461,-4.22894 -5.17146,-5.28732 -2.14193,-1.82339 -5.327,0.46984 -7.96322,-1.50555 -9.29977,-4.0741 -30.60355,12.19571 -40.21052,21.72259 -3.50291,-3.26125 -8.23074,0.18071 -12.20314,0.5889 -1.42654,0.32847 -5.91166,0.13713 -2.39811,-4.71649 8.7144,-9.20906 15.07429,-8.75055 31.4961,-20.48422 11.98984,-8.79413 22.75582,-17.36787 26.62724,-19.88858 3.19961,-1.65791 8.27008,-3.0189 12.53551,2.57138 6.00201,7.83673 19.39358,20.98665 25.09973,23.54669 11.74818,5.09599 12.33354,-3.90047 13.76007,-7.02035 1.26,-3.1461 2.04024,-0.53469 1.96052,2.44488 -0.0248,1.96441 0.70051,4.7165 2.30775,4.98366 3.21095,0.37949 3.25028,-2.05157 3.70949,-3.60779 3.66909,-14.43473 17.87315,-31.7987 23.47795,-28.23095 4.11697,2.61142 6.53669,2.61142 7.50473,-2.3439 1.08354,-6.37051 -3.83528,-12.23185 -5.16083,-18.93507 -1.38685,-7.77154 -0.53433,-17.99965 -3.50327,-19.41485 -1.73303,-0.74055 -4.11307,0.94217 -5.45315,2.82756 -1.78405,2.38359 -1.78405,4.91882 -2.38004,7.79705 -0.3072,1.60724 -6.76807,3.35161 -7.50472,11.73366 -0.0758,1.51689 -2.52461,-1.50236 -4.28315,0 -3.60425,2.7411 -2.95406,16.36016 -4.11343,17.1365 -1.33618,0.14102 -2.96893,-1.3617 -3.51744,0.59952 0.29233,2.1926 -0.9287,7.51536 -1.98673,7.92355 -0.87768,0.26752 -1.81984,-0.81638 -3.06957,-0.0904 -3.12413,2.61496 -1.86023,6.23339 -4.84299,9.68599 -1.83472,2.23937 -3.08055,0.67571 -3.2974,-1.30004 -0.43299,-3.37642 -3.12342,-8.42209 -5.47866,-10.8163 -6.91937,-7.14721 -2.6511,-19.06122 -12.42319,-24.01618 -2.94342,-1.45205 -3.09543,-2.87858 -3.42744,-5.52933 -0.1265,-2.89276 -1.78441,-4.90465 -3.3013,-5.28732 -2.68653,-0.77634 -3.14539,-2.23158 -3.24638,-4.11697 0.24201,-5.09599 -3.55358,-5.31284 -5.56901,-5.73166 -4.77815,-0.4585 -4.92945,-1.37551 -3.43772,-13.28988 0.44398,-2.87858 0.46949,-6.19051 -0.45921,-8.89157 -2.4991,-3.66945 -7.96323,-1.32555 -7.21169,-7.32756 0.57401,-3.9476 7.63122,-9.08291 10.65011,-12.32965 1.83473,-2.05157 2.99374,-7.37823 -3.30059,-6.09271 -14.31956,3.80976 -25.74673,29.177 -28.42228,34.04196 -10.37268,18.9854 -19.36524,26.54079 -27.78732,29.46969 -3.93626,1.37551 -17.58012,2.66492 -20.37225,-10.71532 -1.4407,-7.01752 0.30721,-13.61905 3.47811,-24.61252 13.83556,-48.08303 -1.61787,-38.90976 5.9517,-54.91204 4.86425,-5.45386 11.78433,-4.70232 18.79051,-5.55484 1.55303,-0.20552 0.99283,-2.23158 0.62468,-2.82792 -0.28169,-0.5485 -1.91019,-1.23838 -4.06665,-1.64303 -2.15256,-0.35752 -6.75,-4.44897 -7.14685,-8.84445 -0.40465,-4.814293 2.70142,-7.797049 4.76681,-9.899293 2.92925,-2.892401 5.04567,-3.210236 5.08181,-3.845905 -0.17716,-2.574922 -5.58035,1.043504 -6.04949,0 -1.14874,-3.987284 2.16319,-7.656024 4.35544,-10.231299 z M 165.3173,101.62287 c -0.19134,1.74437 -0.19134,4.44544 2.13768,10.03642 -2.32902,0.33201 -3.74492,2.3726 -5.77098,1.23839 -6.37052,-3.47776 -9.93508,-9.9528 -12.00118,-16.500829 -1.33619,-3.755551 -1.20969,-8.230393 -3.31158,-11.632322 11.00764,0.726023 19.07256,15.568941 18.94606,16.858341 z m 295.94622,400.59921 c 1.60724,0.051 1.37622,-0.51236 2.79212,0 1.26,0.051 1.22386,5.44996 1.04315,8.24138 -0.30331,1.73374 -0.71149,4.67716 1.12323,6.01334 1.64339,1.40103 -2.16638,6.59799 0.585,9.10807 1.52752,2.10544 -1.70823,7.63441 0.76606,10.67882 1.20969,0 2.11252,0.35787 2.76272,1.35106 -1.04386,6.39603 1.79858,16.48595 0.8015,19.40067 -2.80276,4.40929 -4.91528,3.95114 -7.31339,11.19933 -3.58972,7.00973 -13.7452,2.63977 -11.75882,-3.01889 7.18689,-12.15284 9.82311,-25.68508 10.20614,-31.59709 1.19906,-15.33827 -6.89067,-39.72295 -7.78323,-43.12488 -0.20551,-3.06957 0.46985,-4.90429 2.87859,-2.15221 3.57909,5.59028 2.29358,13.56804 3.89693,13.9004 z M 167.18817,276.86598 c -3.40193,2.53524 -5.68099,5.73484 -7.55575,9.22358 -4.07693,0.63922 -10.65012,3.3913 -15.35209,5.50347 -1.73338,0.90673 -8.33173,1.4159 -14.30468,2.10224 -0.90673,-0.0868 -1.13421,-0.6502 -1.13421,-1.37622 -0.48366,-4.53579 27.58075,-15.98775 38.34673,-17.09646 0.9822,0 1.56685,0.47304 0,1.64339 z"
         id="_90523512"
         style="fill:#ffffff;fill-opacity:1;fill-rule:evenodd" />
      <path
         d="m 254.11647,103.36724 c 0.59953,-0.17681 0.8015,0.21686 0.8015,0.45851 -0.4585,7.83354 -8.77571,23.51799 -19.59201,26.30976 -0.63921,0.1265 -1.03287,0.0507 -1.26071,-0.54886 -0.9822,-5.4535 2.45587,-14.72775 11.25,-18.10452 4.35544,-1.6937 6.42118,-4.58646 8.80122,-8.11489 z"
         id="_47053528"
         style="fill-rule:evenodd" />
      <path
         d="m 420.92686,278.80204 c 2.75174,0.8667 3.90012,3.69426 2.93244,5.31213 -1.13421,2.61496 -3.46712,4.39866 -3.51744,6.90909 -0.0507,2.11252 -0.41952,3.39839 -2.10224,3.94725 -3.09472,0.33236 -4.90465,-6.08882 -7.67091,-1.64339 -1.502,2.29358 -4.62259,0.72603 -5.03078,-0.54886 -0.54886,-1.97185 -1.73303,-3.98693 -3.71977,-4.07728 -6.44598,-0.18815 -8.05322,-10.27807 -7.02071,-13.005 4.96949,-11.69787 17.21268,0.0255 26.12941,3.10606 z"
         id="path2921"
         style="fill-rule:evenodd" />
      <path
         d="m 217.7051,134.16213 c 0.49464,2.01189 0.12649,2.15255 -1.59307,1.00417 -5.65548,-5.92299 -10.48359,-4.39512 -13.91138,-2.59654 -1.67209,0.68563 -2.18126,0.63532 -1.69689,-0.88122 5.21114,-7.97456 14.70224,-4.0376 17.20134,2.47359 z"
         id="path2919"
         style="fill-rule:evenodd" />
      <path
         d="m 188.31124,135.25665 c 2.84244,4.08827 1.60724,10.45878 -0.86705,15.22559 -1.96122,3.66945 -5.17145,9.54213 -6.43216,12.10217 -0.52335,1.54205 -1.64268,1.64338 -2.57457,1.22457 -0.94287,-0.18071 3.46713,-7.5189 4.7165,-16.11815 0.50917,-3.52843 -0.4337,-8.67508 2.13767,-12.52453 0.88122,-1.27524 2.20323,-0.86705 3.01961,0.0904 l 0,0 z"
         id="path2917"
         style="fill-rule:evenodd" />
      <path
         d="m 212.23707,139.10291 c 2.06574,4.7778 -2.99339,7.1217 -5.94815,7.70988 -2.07638,0.36886 -3.62941,-0.21614 -5.38831,-1.36488 -0.96768,-0.70051 -0.44752,-1.19515 -1.20969,-1.5672 -1.58173,-0.0868 -1.19905,0.91736 -2.90728,1.32555 -1.18453,0.14067 -1.28551,-0.40819 -0.49464,-1.6037 1.92118,-3.19961 2.97956,-5.45315 6.15401,-6.72803 2.93988,-1.19906 7.25882,-2.43425 9.79406,2.22838 z"
         id="path2915"
         style="fill-rule:evenodd" />
      <path
         d="m 195.64943,159.18248 c 2.45976,9.5811 0.63957,13.29059 -1.56721,15.58346 -0.81212,0.73666 -5.96232,1.65402 -6.63803,-4.94397 2.57528,-3.10925 4.15382,-7.83709 5.69551,-11.18799 1.0839,-2.15256 1.77307,-2.29359 2.50973,0.5485 z"
         id="path2913"
         style="fill-rule:evenodd" />
      <path
         d="m 176.55242,185.66905 c -1.12004,6.01335 -3.57909,9.07193 -7.8626,10.03996 -4.98012,0.59953 -7.09264,-4.90429 -6.45697,-4.86496 4.85363,0.87804 9.97441,-1.87405 13.01882,-5.81067 0.74091,-1.04385 1.48075,-0.31783 1.30075,0.63567 z"
         id="_90579752"
         style="fill-rule:evenodd" />
      <path
         d="m 537.4804,334.89897 c 0.86315,2.2826 -1.55657,5.17181 -4.06665,7.96358 -2.49555,2.89276 -13.19988,10.45878 -22.13114,10.03961 -2.48102,-0.36815 -5.15693,-3.06957 -4.31539,-6.37051 0.86315,-2.79177 9.47622,-3.52843 16.11425,-5.82166 4.81783,-1.64338 7.11106,-2.66173 10.93181,-5.59417 2.40909,-1.8202 2.96894,-0.72602 3.46712,-0.21685 z"
         id="_92920568"
         style="fill:#ffffff;fill-opacity:1;fill-rule:evenodd" />
      <path
         d="m 90.556006,442.91385 34.703144,-10.78051 -6.12921,65.33539 -24.243659,6.76417 4.14248,-44.3994 -10.422637,3.6046 1.949882,-20.52425 z m 64.681654,34.93346 c -0.61016,6.76453 -7.79705,12.53587 -14.26925,14.51162 -6.598,1.70823 -12.95788,-0.17752 -12.31831,-7.00689 0.63567,-7.09654 7.83319,-13.07374 14.34437,-14.76709 6.46086,-1.86023 12.8824,0.24201 12.24319,7.26236 z m 15.99165,-58.61763 44.95925,-12.74138 -1.66854,18.85571 -20.48811,5.6048 -0.59953,6.88004 17.97803,-4.995 -1.6285,16.81866 -17.94189,5.08181 -2.17736,22.87134 -24.62705,6.93 6.1937,-65.30598 z m 102.89126,-3.0841 c -3.61914,-2.41937 -8.27079,-4.00181 -13.79977,-2.47358 -7.33854,2.07638 -13.86106,9.31394 -14.56157,16.4498 -0.64984,7.12205 5.17146,10.90666 12.47421,8.84091 5.63032,-1.54205 10.30748,-5.12114 14.58709,-10.00028 l -3.03378,24.64122 c -4.06276,2.91473 -13.23638,6.22985 -17.58083,7.45052 -19.22385,5.37767 -32.87196,-4.85363 -31.11271,-23.41666 1.75854,-19.05767 18.67819,-38.62842 38.44027,-44.2226 5.48929,-1.5672 11.06894,-2.24291 16.12878,-1.83472 l -1.54169,24.56539 z"
         id="_90945896"
         style="fill:#ed1c23;fill-rule:evenodd" />
      <path
         d="m 168.17037,503.08629 c -0.25653,2.60043 -2.0909,5.11016 -4.10244,5.87622 -1.9109,0.44433 -3.28677,-1.28941 -3.10996,-3.90083 0.1265,-2.6759 1.96122,-5.18563 3.93697,-5.57964 2.02606,-0.79087 3.49228,1.00771 3.27543,3.60425 z m 10.43327,-3.0189 c -0.17681,2.6504 -1.98602,5.175 -4.0011,5.85071 -2.01154,0.6463 -3.32291,-1.18842 -3.14575,-3.69496 0.26717,-2.61461 1.94988,-5.13531 3.97595,-5.76035 1.96122,-0.675 3.43842,1.03322 3.1709,3.6046 z m 6.87969,27.49429 c -1.14485,13.82457 -9.93827,24.51402 -19.92402,27.22677 -10.00382,2.82756 -17.42882,-3.36224 -16.25917,-17.17263 1.1087,-13.49256 9.98964,-24.51473 19.96405,-27.32776 9.87414,-2.8063 17.30303,3.79524 16.21914,17.27362 z m -24.25784,6.95551 c -0.43334,4.99465 1.87441,7.6089 5.40248,6.70288 3.5791,-1.00772 6.42154,-5.13532 6.84036,-9.93862 0.38267,-4.73882 -1.65402,-7.89839 -5.39894,-6.78969 -3.70913,1.04386 -6.42154,5.55449 -6.8439,10.02543 z m 30.21024,-29.7333 11.8598,-3.21095 -2.43425,29.18835 9.9496,-2.77724 -1.14484,13.87169 -21.83811,5.95169 3.6078,-43.02354 z m 24.90484,-6.97004 11.42964,-3.03378 8.66445,20.9211 0.26681,0 c -0.11515,-3.6039 -0.34263,-7.12134 -0.0503,-10.86697 l 1.14484,-12.88169 11.34,-3.12059 -3.59362,42.9874 -11.37614,3.12059 -8.51173,-19.65756 -0.45922,0.0868 c 0.14138,2.89241 0.26717,5.52898 0,8.47241 l -1.15937,14.02688 -11.24964,3.0593 3.55429,-43.1139 z m -95.98606,26.7789 11.50583,-3.22158 -1.88469,18.79051 0.26681,-0.0758 c 0.46984,-1.84536 1.29685,-3.59363 2.08772,-5.37733 l 6.86905,-15.40311 12.95398,-3.56811 -11.97567,23.77453 9.50528,19.02154 -13.73422,3.8498 -4.65165,-11.5565 c -0.54532,-1.4159 -1.42654,-2.72693 -1.45169,-4.38484 l -0.32847,0.0904 -1.28941,17.98902 -11.50263,3.13476 3.62976,-43.06322 z"
         id="_92552856"
         style="fill:#ffffff;fill-opacity:1;fill-rule:evenodd" />
    </g>
  </g>
</svg>
