<?xml version="1.0" encoding="UTF-8" standalone="no"?>
<!-- Created with Inkscape (http://www.inkscape.org/) -->

<svg
   xmlns:dc="http://purl.org/dc/elements/1.1/"
   xmlns:cc="http://creativecommons.org/ns#"
   xmlns:rdf="http://www.w3.org/1999/02/22-rdf-syntax-ns#"
   xmlns:svg="http://www.w3.org/2000/svg"
   xmlns="http://www.w3.org/2000/svg"
   version="1.1"
   width="280"
   height="200"
   viewBox="0 0 79.022221 56.444444"
   id="svg2"
   xml:space="preserve"
   style="fill-rule:evenodd"><metadata
     id="metadata52"><rdf:RDF><cc:Work
         rdf:about=""><dc:format>image/svg+xml</dc:format><dc:type
           rdf:resource="http://purl.org/dc/dcmitype/StillImage" /><dc:title></dc:title></cc:Work></rdf:RDF></metadata><defs
     id="defs4"><style
       type="text/css"
       id="style6" /></defs><g
     transform="matrix(1.1288844,0,0,1.1288844,10.724445,-0.56432931)"
     id="Ebene_x0020_1"><metadata
       id="CorelCorpID_0Corel-Layer" /><path
       d="m 34.9222,41.8896 c 8.1418,-3.3668 13.8172,-10.9143 13.8172,-19.685 0,-10.379 -7.9531,-19.036 -18.5323,-21.0889 -0.098,-0.0165 -0.1926,-0.0254 -0.2961,-0.0254 -0.8708,0 -1.5766,0.6133 -1.5766,1.3699 0,0.5752 0.408,1.0676 0.9866,1.2703 1.9043,0.3774 3.6981,1.0262 5.3332,1.8985 l -9.1528,7.9484 -9.0625,-7.948 c 1.6355,-0.8726 3.4294,-1.5214 5.334,-1.8989 0.5786,-0.2027 0.9866,-0.6951 0.9866,-1.2703 0,-0.7566 -0.7057,-1.3699 -1.5761,-1.3699 -0.1039,0 -0.1985,0.0089 -0.2965,0.0254 -10.5792,2.0529 -18.532,10.7099 -18.532,21.0889 0,8.7707 5.6749,16.3182 13.8169,19.685 l 2.0631,-5.7937 C 11.7299,33.4463 7.1938,27.4215 7.1938,20.4347 c 0,-5.1359 2.4435,-9.7405 6.3195,-12.8714 l 9.8324,8.6478 c 0,0 0,16.9489 0,16.6813 0,0 -0.4826,5.076 -3.47,10.2305 1.7327,0.4001 3.7535,0.6836 5.6257,0.6928 l 0,3e-4 0.0468,-2e-4 0.0469,2e-4 0,-3e-4 c 1.8719,-0.0093 3.8931,-0.2928 5.6257,-0.6928 -2.9874,-5.1545 -3.4696,-10.2305 -3.4696,-10.2305 0,0.2676 0,-16.6813 0,-16.6813 l 9.8311,-8.6465 c 3.8751,3.1309 6.3177,7.7348 6.3177,12.8701 0,6.9868 -4.536,13.0116 -11.0406,15.6612 l 2.0628,5.7937 z"
       id="path10"
       style="fill:#999999" /><path
       d="m 9.9978,21.8994 c -0.0531,-4.6904 1.91,-8.4545 4.6927,-8.679 2.9575,-0.2389 5.7558,3.6071 6.3903,8.679 l -2.8629,0 c -0.3185,-2.5063 -1.6715,-4.4059 -3.0961,-4.2908 -1.3429,0.1083 -2.2865,1.9685 -2.2583,4.2908 l -2.8657,0 z"
       id="path12"
       style="fill:#999999" /><path
       d="M 10.0721,23.3017 C 10.0104,22.6509 9.9874,22.0124 9.9997,21.3921 l 2.8732,0 c -0.0196,0.3904 -0.0108,0.7975 0.0288,1.2149 0.2507,2.6411 1.6504,4.6854 3.127,4.5663 1.4765,-0.1188 2.4703,-2.357 2.2201,-4.9981 -0.0254,-0.2679 -0.0631,-0.5291 -0.111,-0.7831 l 2.8717,0 c 0.052,0.3332 0.0948,0.6722 0.1275,1.0164 0.5047,5.3212 -1.5631,9.8349 -4.6188,10.0817 -3.0553,0.2465 -5.9414,-3.8672 -6.4461,-9.1885 z"
       id="path14"
       style="fill:#999999" /><path
       d="m 39.9672,20.8028 c -0.4878,-2.6059 -2.688,-3.2726 -5.1507,-1.4725 -0.5276,0.3859 -0.7652,0.5861 -1.0422,0.8415 l -0.0339,-2.5147 3.7564,-2.969 0.065,-3.7914 -7.0909,6.0762 -0.0233,8.543 c 0.9768,-1.0579 1.6763,-1.7276 2.8419,-2.5793 1.5393,-1.1255 2.4615,0.0484 2.6837,1.2351 0.327,1.7449 -0.8093,3.8189 -2.9203,5.3619 -0.8137,0.5947 -1.0461,0.7321 -1.6658,1.0269 l 1.0273,2.9779 c 0.5231,-0.277 0.6816,-0.5718 1.407,-1.102 4.4861,-3.2785 6.8041,-8.1204 6.1458,-11.6336 z"
       id="path16"
       style="fill:#999999" /><path
       d="m 34.3317,41.2992 c 8.1418,-3.3669 13.8172,-10.9144 13.8172,-19.6851 0,-10.379 -7.9531,-19.036 -18.5323,-21.0889 -0.098,-0.0164 -0.1926,-0.0253 -0.2961,-0.0253 -0.8708,0 -1.5766,0.6133 -1.5766,1.3698 0,0.5752 0.408,1.0677 0.9866,1.2704 1.9043,0.3774 3.6981,1.0261 5.3332,1.8985 l -9.1528,7.9483 -9.0625,-7.948 c 1.6355,-0.8726 3.4294,-1.5213 5.334,-1.8988 0.5786,-0.2027 0.9866,-0.6952 0.9866,-1.2704 0,-0.7565 -0.7057,-1.3698 -1.5761,-1.3698 -0.1039,0 -0.1986,0.0089 -0.2965,0.0253 -10.5792,2.0529 -18.532,10.7099 -18.532,21.0889 0,8.7707 5.6749,16.3182 13.8169,19.6851 l 2.0631,-5.7938 C 11.1394,32.8558 6.6033,26.831 6.6033,19.8442 c 0,-5.1358 2.4435,-9.7404 6.3195,-12.8714 l 9.8324,8.6478 c 0,0 0,16.949 0,16.6814 0,0 -0.4826,5.076 -3.47,10.2305 1.7327,0.4001 3.7535,0.6836 5.6257,0.6927 l 0,4e-4 0.0468,-3e-4 0.0469,3e-4 0,-4e-4 C 26.8765,43.216 28.8977,42.9325 30.6303,42.5325 27.6429,37.378 27.1607,32.302 27.1607,32.302 c 0,0.2676 0,-16.6814 0,-16.6814 l 9.8311,-8.6465 c 3.8751,3.131 6.3177,7.7349 6.3177,12.8701 0,6.9868 -4.536,13.0116 -11.0406,15.6612 l 2.0628,5.7938 z"
       id="path18"
       style="fill:#ff0000" /><path
       d="m 39.3767,20.2124 c -0.4878,-2.606 -2.688,-3.2726 -5.1507,-1.4726 -0.5276,0.386 -0.7652,0.5861 -1.0422,0.8415 l -0.0339,-2.5147 3.7564,-2.969 0.065,-3.7914 -7.0909,6.0762 -0.0233,8.543 c 0.9768,-1.0579 1.6763,-1.7275 2.8419,-2.5792 1.5393,-1.1256 2.4615,0.0483 2.6837,1.2351 0.327,1.7448 -0.8093,3.8189 -2.9203,5.3619 -0.8137,0.5946 -1.0461,0.732 -1.6658,1.0268 l 1.0273,2.9779 c 0.5231,-0.277 0.6816,-0.5718 1.407,-1.102 4.4861,-3.2784 6.8041,-8.1204 6.1458,-11.6335 z"
       id="path20"
       style="fill:#ff0000" /><path
       d="m 9.4978,21.3994 c -0.0531,-4.6904 1.91,-8.4545 4.6927,-8.679 2.9575,-0.2389 5.7558,3.6071 6.3903,8.679 l -2.8629,0 c -0.3185,-2.5063 -1.6715,-4.4059 -3.0961,-4.2908 -1.3429,0.1083 -2.2865,1.9685 -2.2583,4.2908 l -2.8657,0 z"
       id="path22"
       style="fill:#ff0000" /><path
       d="M 9.5721,22.8017 C 9.5104,22.1509 9.4874,21.5124 9.4997,20.8921 l 2.8732,0 c -0.0196,0.3904 -0.0108,0.7975 0.0288,1.2149 0.2507,2.6411 1.6504,4.6854 3.127,4.5663 1.4765,-0.1188 2.4703,-2.357 2.2201,-4.9981 -0.0254,-0.2679 -0.0631,-0.5291 -0.111,-0.7831 l 2.8717,0 c 0.052,0.3332 0.0948,0.6722 0.1275,1.0164 0.5047,5.3212 -1.5631,9.8349 -4.6188,10.0817 -3.0553,0.2465 -5.9414,-3.8672 -6.4461,-9.1885 z"
       id="path24"
       style="fill:#ff0000" /><polygon
       points="2.9751,35.0005 2.0614,35.8054 2.4656,36.2462 0.5,37.9779 1.3763,39.0743 4.2712,36.524 "
       id="polygon26"
       style="fill:#ff0000;fill-rule:nonzero" /><path
       d="M 3.6423,39.8446 C 3.3835,39.5731 2.9479,39.4649 2.6641,39.7627 c -0.28,0.2938 -0.1701,0.7443 0.0887,1.0158 0.2587,0.2718 0.6876,0.3873 0.9675,0.0933 0.2833,-0.2978 0.1807,-0.7554 -0.078,-1.0272 z"
       id="path28"
       style="fill:#ff0000;fill-rule:nonzero" /><polygon
       points="8.695,42.7452 8.9079,42.4012 9.8703,43.0573 10.4603,42.1039 8.3374,40.6567 6.2788,43.9845 7.4393,44.7755 8.16,43.6105 9.0049,44.1864 9.5399,43.3216 "
       id="polygon30"
       style="fill:#ff0000;fill-rule:nonzero" /><path
       d="m 9.2362,45.6352 c 0.2748,0.4098 0.7002,0.8025 1.121,1.0371 0.7211,0.4025 1.6564,0.3945 2.0801,-0.442 0.3012,-0.5946 0.0752,-1.0904 -0.377,-1.498 L 11.819,44.5142 c -0.0811,-0.075 -0.2224,-0.1777 -0.1566,-0.3079 0.073,-0.1438 0.249,-0.0992 0.3554,-0.0398 0.2609,0.1455 0.437,0.3927 0.5697,0.6574 L 13.3688,44.11 c -0.2214,-0.3918 -0.5217,-0.6844 -0.9021,-0.897 -0.7258,-0.4051 -1.6827,-0.3431 -2.1039,0.4886 -0.2774,0.548 -0.0276,1.0633 0.4012,1.4158 l 0.2202,0.1824 c 0.0988,0.0847 0.2511,0.1879 0.1709,0.3456 -0.0802,0.1583 -0.2961,0.1031 -0.4156,0.0365 -0.2787,-0.1556 -0.4671,-0.4457 -0.5944,-0.743 l -0.036,-0.0858 -0.8729,0.7821 z"
       id="path32"
       style="fill:#ff0000;fill-rule:nonzero" /><path
       d="m 16.4433,45.0181 -1.0338,1.5354 c -0.1123,0.1654 -0.2108,0.3359 -0.2727,0.5247 L 15.1084,47.068 c 0.0619,-0.1891 0.0844,-0.3868 0.0928,-0.59 l 0.0857,-1.8777 -1.3556,-0.4903 0.1535,4.252 1.0995,0.3978 2.6141,-3.2514 -1.3551,-0.4903 z"
       id="path34"
       style="fill:#ff0000;fill-rule:nonzero" /><path
       d="m 20.2437,50.2184 1.3264,0.073 0.2444,-1.6834 c 0.0228,-0.1569 0.0411,-0.3194 0.0589,-0.4763 l 0.0449,0.0026 c 0.0017,0.1688 0.0289,0.3282 0.0608,0.4988 l 0.4067,1.7033 0.8008,0.0441 0.6341,-1.7462 c 0.0467,-0.1242 0.0785,-0.2596 0.1099,-0.3893 l 0.025,0.0012 0.0769,2.1806 1.3267,0.0733 -0.4233,-3.9966 -1.3964,-0.0772 -0.5031,1.5323 c -0.0534,0.1659 -0.0873,0.3483 -0.1213,0.5205 L 22.88,48.4769 22.4634,46.3673 21.0518,46.2897 20.2437,50.2184 z"
       id="path36"
       style="fill:#ff0000;fill-rule:nonzero" /><path
       d="m 27.7231,49.8796 1.035,-0.0763 0.1578,0.4842 1.4502,-0.1064 -1.6089,-3.8591 -1.5147,0.111 -1.0464,4.0544 1.4498,-0.1064 0.0772,-0.5014 z m 0.1824,-0.9577 0.1697,-1.2257 0.05,-0.0039 c 0.0361,0.1663 0.0725,0.3376 0.1238,0.5026 l 0.2066,0.6862 -0.5501,0.0408 z"
       id="path38"
       style="fill:#ff0000" /><polygon
       points="30.6325,46.0322 31.4824,49.8982 32.8208,49.5737 31.9702,45.7078 "
       id="polygon40"
       style="fill:#ff0000;fill-rule:nonzero" /><path
       d="m 34.0406,49.3872 1.2416,-0.4487 -0.3996,-1.219 c -0.0819,-0.249 -0.1997,-0.4789 -0.327,-0.7223 l 0.0377,-0.0136 1.7883,1.5574 1.2421,-0.4487 -1.2305,-3.7519 -1.2421,0.4487 0.369,1.1248 c 0.1044,0.3185 0.2673,0.6213 0.4225,0.9157 l -0.0381,0.0135 -1.8477,-1.6583 -1.2467,0.4509 1.2305,3.7515 z"
       id="path42"
       style="fill:#ff0000;fill-rule:nonzero" /><path
       d="m 37.2037,43.993 0.5188,1.0692 0.9154,-0.4898 c 0.1025,-0.0552 0.1874,-0.1238 0.2696,-0.1976 l 0.0251,0.0046 c -0.039,0.1981 -0.0781,0.3843 -0.0925,0.5865 l -0.2113,2.7179 3.278,-1.7538 -0.5302,-1.0925 -1.0179,0.545 c -0.0938,0.05 -0.1876,0.1119 -0.2766,0.1713 l -0.0225,-0.0114 0.2791,-3.2264 -3.135,1.677 z"
       id="path44"
       style="fill:#ff0000;fill-rule:nonzero" /><path
       d="m 44.0074,39.3369 c -0.8357,0.8181 -0.7454,1.9383 -0.0141,2.7619 0.7729,0.8699 1.8193,1.0684 2.6736,0.2324 0.8538,-0.8364 0.7385,-1.9463 -0.0339,-2.8163 -0.7318,-0.8237 -1.7901,-0.9962 -2.6256,-0.178 z m 0.7999,0.9003 c 0.3004,-0.2943 0.6769,0.0064 0.889,0.2452 0.1982,0.2231 0.4904,0.7139 0.2083,0.9904 -0.2824,0.2765 -0.7286,-0.0641 -0.9268,-0.2872 -0.2121,-0.2388 -0.4712,-0.6539 -0.1705,-0.9484 z"
       id="path46"
       style="fill:#ff0000" /><path
       d="m 46.3887,36.873 1.4998,1.7751 c 0.1183,-0.3287 0.2985,-0.6438 0.5175,-0.9183 0.1386,-0.173 0.5403,-0.5611 0.7744,-0.355 0.2266,0.1998 0.0077,0.6043 -0.1403,0.7902 -0.1998,0.2497 -0.6707,0.5767 -0.9633,0.6972 l 0.6868,0.8109 c 0.363,-0.1679 0.9492,-0.6887 1.2037,-1.0072 0.5158,-0.6447 0.8292,-1.7496 0.1188,-2.3752 -0.5526,-0.4873 -1.2925,-0.3147 -1.7375,0.2417 -0.1221,0.1532 -0.3044,0.439 -0.2586,0.6516 l -0.0225,0.028 c -0.0619,-0.1438 -0.1617,-0.2728 -0.2567,-0.3911 l 1.0405,-1.3021 -0.8101,-0.7139 -1.6525,2.0681 z"
       id="path48"
       style="fill:#ff0000;fill-rule:nonzero" /></g></svg>