<?xml version="1.0" encoding="UTF-8" standalone="no"?>
<!-- Created with Inkscape (http://www.inkscape.org/) by Marsupilami -->

<svg
   xmlns:dc="http://purl.org/dc/elements/1.1/"
   xmlns:cc="http://creativecommons.org/ns#"
   xmlns:rdf="http://www.w3.org/1999/02/22-rdf-syntax-ns#"
   xmlns:svg="http://www.w3.org/2000/svg"
   xmlns="http://www.w3.org/2000/svg"
   xmlns:sodipodi="http://sodipodi.sourceforge.net/DTD/sodipodi-0.dtd"
   xmlns:inkscape="http://www.inkscape.org/namespaces/inkscape"
   version="1.0"
   width="280"
   height="206.03"
   viewBox="0 0 26.25 19.315312"
   id="svg3890"
   style="display:inline"
   inkscape:version="0.48.4 r9939"
   sodipodi:docname="fc_bayern_münchen.svg">
  <metadata
     id="metadata11">
    <rdf:RDF>
      <cc:Work
         rdf:about="">
        <dc:format>image/svg+xml</dc:format>
        <dc:type
           rdf:resource="http://purl.org/dc/dcmitype/StillImage" />
      </cc:Work>
    </rdf:RDF>
  </metadata>
  <sodipodi:namedview
     pagecolor="#ffffff"
     bordercolor="#666666"
     borderopacity="1"
     objecttolerance="10"
     gridtolerance="10"
     guidetolerance="10"
     inkscape:pageopacity="0"
     inkscape:pageshadow="2"
     inkscape:window-width="733"
     inkscape:window-height="480"
     id="namedview9"
     showgrid="false"
     fit-margin-top="0"
     fit-margin-left="0"
     fit-margin-right="0"
     fit-margin-bottom="0"
     inkscape:zoom="0.30729167"
     inkscape:cx="103.04339"
     inkscape:cy="102.97645"
     inkscape:window-x="173"
     inkscape:window-y="192"
     inkscape:window-maximized="0"
     inkscape:current-layer="svg3890" />
  <defs
     id="defs3892" />
  <g
     transform="matrix(0.27006103,0,0,0.27006103,3.8433648,0.2822619)"
     id="layer5"
     style="display:inline">
    <path
       d="m 184.203,795.235 c 0,15.168 12.295,27.463 27.463,27.463 15.167,0 27.462,-12.295 27.462,-27.463 0,-15.168 -12.295,-27.463 -27.462,-27.463 -15.168,0 -27.463,12.295 -27.463,27.463 z"
       transform="matrix(1.25,0,0,-1.25,-229.86813,1028.7581)"
       id="path4822"
       style="fill:#2e6abd;fill-opacity:1;stroke:#2e6abd;stroke-width:2.28466868;stroke-linecap:butt;stroke-linejoin:miter;stroke-miterlimit:4;stroke-opacity:1;stroke-dasharray:none;display:inline"
       inkscape:connector-curvature="0" />
    <path
       d="m 342.16813,532.32593 c 0,-18.12625 14.695,-32.82125 32.8225,-32.82125 18.1275,0 32.82125,14.695 32.82125,32.82125 0,18.1275 -14.69375,32.8225 -32.82125,32.8225 -18.1275,0 -32.8225,-14.695 -32.8225,-32.8225 z"
       transform="translate(-340.28626,-497.64778)"
       id="path4867"
       style="fill:#ffffff;fill-opacity:1;stroke:#ffffff;stroke-width:2.28652024;stroke-linecap:butt;stroke-linejoin:miter;stroke-miterlimit:4;stroke-opacity:1;stroke-dasharray:none;display:inline"
       inkscape:connector-curvature="0" />
    <path
       d="m 34.6875,3.1875 c -17.395,0 -31.4687501,14.10625 -31.46875,31.5 0,17.39625 14.073749,31.468753 31.46875,31.46875 17.395,0 31.499999,-14.0725 31.5,-31.46875 0,-17.39375 -14.105001,-31.5 -31.5,-31.5 z M 36.84375,5.21875 39.25,5.59375 39.96875,7.75 c 0.125002,0.3849998 0.21125,0.77625 0.25,1.15625 L 40.25,8.9375 C 40.38625,8.6287497 40.74875,8.07125 40.90625,7.84375 L 42.1875,6.0625 44.5,6.4375 40.9375,10.8125 40.5,13.65625 38.375,13.3125 l 0.46875,-2.84375 -2,-5.25 z m -4.125,0.1875 3.59375,7.375 -2.25,0.25 -0.625,-1.53125 -2.875,0.34375 -0.34375,1.625 -2.09375,0.25 1.90625,-8 2.6875,-0.3125 z m -1.25,1.71875 c -0.02625,0.4324998 -0.1175,0.945 -0.1875,1.28125 l -0.375,1.875 1.875,-0.21875 -0.8125,-1.75 c -0.204999,-0.4462503 -0.36,-0.90125 -0.4375,-1.1875 l -0.0625,0 z m 14.9375,0.15625 4.78125,2.5 -0.75,1.40625 -2.9375,-1.53125 -0.65625,1.28125 2.75,1.4375 -0.75,1.40625 -2.75,-1.4375 -0.71875,1.34375 3.03125,1.59375 -0.71875,1.40625 -4.875,-2.5625 3.59375,-6.84375 z m -23.53125,0.5 c 0.642969,-0.082344 1.34,0.091875 1.8125,0.9375 0.7075,1.2625003 -0.08125,1.975 -0.375,2.25 l 0.03125,0.0625 c 0.602499,-0.23875 1.6375,-0.42 2.34375,0.84375 1.016249,1.815 -0.9225,2.91875 -1.625,3.3125 L 22.28125,16.75 18.5,9.96875 21.34375,8.375 C 21.638125,8.21 22.232031,7.8635937 22.875,7.78125 z M 22.5625,9.5625 C 22.49456,9.55948 22.4225,9.57003 22.34375,9.59375 22.23875,9.6253711 22.128125,9.6784375 22,9.75 l -1,0.5625 0.75,1.3125 0.96875,-0.5625 C 23.184999,10.8025 23.3475,10.4575 23.09375,10 22.929219,9.706094 22.766318,9.571572 22.5625,9.5625 z m 31.9375,2.59375 2.40625,2.625 c 0.397501,0.43125 1.7725,1.88625 0.15625,3.375 -0.71375,0.657501 -1.52375,0.915 -2.4375,0.5 L 53.28125,22.25 51.6875,20.5 53,17.5625 l -0.5625,-0.59375 -2.1875,2 -1.4375,-1.5625 5.6875,-5.25 z M 24.21875,12.1875 C 24.009844,12.159375 23.775625,12.220625 23.5,12.375 l -1,0.5625 0.8125,1.46875 1.09375,-0.59375 c 0.475001,-0.26625 0.625,-0.74125 0.375,-1.1875 -0.1625,-0.289375 -0.353594,-0.409375 -0.5625,-0.4375 z m 30.59375,2.53125 -1.25,1.15625 0.75,0.8125 c 0.18375,0.201251 0.63125,0.69 1.28125,0.09375 0.327499,-0.303751 0.44,-0.7375 -0.03125,-1.25 l -0.75,-0.8125 z m -20.125,0.25 c 10.87875,0 19.718749,8.84 19.71875,19.71875 0,10.88 -8.840001,19.6875 -19.71875,19.6875 C 23.80875,54.375 15,45.5675 15,34.6875 15,23.80875 23.808749,14.96875 34.6875,14.96875 z m -21.75,0.59375 c 0.476476,-0.0362 0.93141,0.065 1.3125,0.21875 L 13.53125,17.625 c -0.365,-0.155001 -1.11375,-0.4025 -1.625,0.40625 -0.3075,0.487499 -0.46126,1.4825 1.25,2.5625 1.0775,0.68 2.28625,1.125 2.9375,0.09375 0.465001,-0.736249 -0.03,-1.37125 -0.375,-1.78125 L 17.125,17.5 c 1.123749,1.19875 1.305,2.465 0.375,3.9375 -1.0525,1.666249 -2.93875,2.66 -5.46875,1.0625 -2.5312499,-1.59875 -2.35625,-3.85125 -1.375,-5.40625 0.664063,-1.052343 1.487124,-1.47091 2.28125,-1.53125 z m 48.25,5.375 L 62,23.46875 59,26.4375 c -0.3725,0.37125 -0.8525,0.7925 -1.375,1.15625 l 0.03125,0.09375 c 0.321262,-0.1725 0.84751,-0.37125 1.53125,-0.59375 l 3.59375,-1.1875 0.625,1.90625 -7.375,2.375 -0.84375,-2.53125 3.15625,-3.125 c 0.458749,-0.456251 1.005,-0.875 1.25,-1 l -0.03125,-0.0625 c -0.377499,0.143749 -0.69,0.2975 -1.125,0.4375 l -4.03125,1.28125 -0.59375,-1.875 7.375,-2.375 z m -53.375,1.75 1.5,0.5625 -1.09375,3.0625 1.53125,0.5625 1.0625,-3 1.5,0.53125 -1.0625,3 2.75,1 -0.71875,2 L 6,27.78125 7.8125,22.6875 z m 5.75,18.21875 1.5,2.84375 -2.9375,2.84375 C 11.9625,46.752499 11.5125,47.115 11.15625,47.375 l 0.03125,0.0625 c 0.3525,-0.12375 1.0275,-0.29 1.34375,-0.34375 L 16.4375,46.40625 17.875,49.1875 11,52.75 10.0625,50.9375 14,48.875 c 0.51125,-0.2675 1.3025,-0.61625 1.59375,-0.71875 l -0.0625,-0.125 c -0.295,0.0925 -1.23875,0.30375 -1.8125,0.40625 l -4.53125,0.84375 -0.71875,-1.375 3.59375,-3.5625 c 0.34875,-0.341249 0.84125,-0.74875 1.0625,-0.9375 L 13.0625,43.3125 C 12.81125,43.46625 11.935,43.99 11.375,44.28125 L 7.625,46.25 6.6875,44.5 l 6.875,-3.59375 z m 42.625,0.0625 L 63,44.6875 61.71875,47.03125 57.3125,46.90625 C 56.666251,46.89 55.97875,46.78125 55.71875,46.6875 L 55.6875,46.75 c 0.36375,0.17125 0.6925,0.2825 1.09375,0.5 L 60.5,49.28125 59.5625,51.03125 52.75,47.34375 54.03125,45 58.25,45.125 c 0.525,0.0125 1.1575,0.06 1.78125,0.1875 L 60.0625,45.21875 C 59.715001,45.105 59.22625,44.8725 58.59375,44.53125 l -3.34375,-1.8125 0.9375,-1.75 z m -4.34375,7.59375 1.0625,1.15625 L 50.5,51.96875 51.46875,53 53.75,50.90625 l 1.0625,1.15625 -2.25,2.125 1.03125,1.125 2.5,-2.3125 1.09375,1.15625 -4.03125,3.75 -5.28125,-5.6875 3.96875,-3.65625 z M 18.75,50.09375 l 1.6875,1.28125 -3,3.875 c -0.5,0.643751 -0.64125,1.32625 0.0625,1.875 0.757499,0.587499 1.39375,0.2425 1.875,-0.375 l 3,-3.84375 1.625,1.25 L 21,58 c -1.188749,1.531251 -2.79249,1.6775 -4.46875,0.375 -1.408741,-1.095 -2.15874,-2.625 -0.75,-4.4375 L 18.75,50.09375 z m 2.15625,1.625 1.0625,0.84375 -1.90625,1.3125 0.84375,-2.15625 z m 25.625,1.21875 3.65625,6.8125 -1.875,1.03125 -1.5625,-2.875 -2.25,1.1875 1.53125,2.875 -1.875,1 -3.65625,-6.8125 1.875,-1 L 43.75,57.6875 46,56.5 l -1.34375,-2.5625 1.875,-1 z m -21,1.875 2.53125,0.78125 0.6875,4.1875 c 0.08875,0.518751 0.1625,1.14375 0.15625,1.78125 L 29,61.59375 C 29.044999,61.231251 29.1925,60.685 29.40625,60 l 1.125,-3.625 1.875,0.59375 -2.3125,7.375 -2.53125,-0.78125 -0.75,-4.375 C 26.705001,58.550001 26.71,57.8675 26.75,57.59375 L 26.65625,57.5625 c -0.1,0.391251 -0.145,0.7525 -0.28125,1.1875 l -1.28125,4.03125 -1.875,-0.59375 2.3125,-7.375 z M 37.0625,56.375 c 1.520484,-0.09022 2.429688,0.808125 2.8125,1.6875 l -1.8125,0.8125 c -0.153751,-0.366249 -0.505,-1.0625 -1.4375,-0.84375 -0.559999,0.132501 -1.3375,0.7175 -0.875,2.6875 0.2925,1.23875 0.81375,2.405 2,2.125 0.847499,-0.1975 0.92625,-0.99625 0.96875,-1.53125 l 2,0 C 40.68,62.952501 39.945,63.9775 38.25,64.375 36.332499,64.826251 34.2475,64.2225 33.5625,61.3125 32.877499,58.398751 34.585,56.89 36.375,56.46875 36.617188,56.41172 36.845288,56.38789 37.0625,56.375 z"
       id="path3794"
       style="fill:#ed1248;fill-opacity:1;fill-rule:nonzero;stroke:none;display:inline"
       inkscape:connector-curvature="0" />
    <path
       d="m 34.65625,16.5 c -7.111249,0 -13.26875,4.0775 -16.25,10.03125 l 2.71875,4.65625 0.71875,-8.46875 4.03125,6.90625 0.6875,-8.4375 4.0625,6.90625 0.71875,-8.4375 4.03125,6.90625 0.71875,-8.46875 4.03125,6.9375 0.625,-7.5 C 38.846249,16.855 36.7925,16.5 34.65625,16.5 z M 40.125,25.03125 39.40625,33.5 l 4.03125,6.875 0.6875,-8.4375 -4,-6.90625 z M 39.40625,33.5 35.375,26.59375 34.65625,35.03125 30.625,28.125 29.90625,36.5625 25.875,29.6875 25.15625,38.125 29.1875,45.03125 29.875,36.5625 33.9375,43.5 34.65625,35.0625 38.6875,41.9375 39.40625,33.5 z m -5.46875,10 -0.71875,8.46875 -4.03125,-6.90625 -0.5625,6.71875 c 1.890001,0.665002 3.91375,1.03125 6.03125,1.03125 6.950001,0 12.98,-3.89125 16.03125,-9.625 l -2.5,-4.34375 L 47.46875,47.3125 43.4375,40.40625 42.71875,48.875 38.6875,41.96875 37.96875,50.4375 33.9375,43.5 z m 14.25,-4.65625 0.6875,-8.46875 -4,-6.875 -0.71875,8.4375 4.03125,6.90625 z M 25.15625,38.125 21.125,31.21875 l -0.6875,8.46875 4,6.875 0.71875,-8.4375 z m 16.4375,-20.25 3.28125,5.59375 0.28125,-3.625 c -1.105,-0.785 -2.2925,-1.44375 -3.5625,-1.96875 z m 7.84375,6.21875 -0.53125,6.3125 3.78125,6.46875 c 0.08874,-0.728751 0.125,-1.4675 0.125,-2.21875 10e-7,-3.93625 -1.2475,-7.5875 -3.375,-10.5625 z m -32.875,8.96875 c -0.045,0.52125 -0.0625,1.06 -0.0625,1.59375 1e-6,3.9625 1.2825,7.64 3.4375,10.625 l 0.46875,-5.625 -3.84375,-6.59375 z m 7.875,13.53125 -0.25,2.90625 c 0.909999,0.642501 1.88375,1.18625 2.90625,1.65625 l -2.65625,-4.5625 z"
       id="path5000"
       style="fill:#2e6abd;fill-opacity:1;fill-rule:nonzero;stroke:none;display:inline"
       inkscape:connector-curvature="0" />
  </g>
</svg>
