<?xml version="1.0" encoding="UTF-8" standalone="no"?>
<!-- Created with Inkscape (http://www.inkscape.org/) -->

<svg
   xmlns:dc="http://purl.org/dc/elements/1.1/"
   xmlns:cc="http://creativecommons.org/ns#"
   xmlns:rdf="http://www.w3.org/1999/02/22-rdf-syntax-ns#"
   xmlns:svg="http://www.w3.org/2000/svg"
   xmlns="http://www.w3.org/2000/svg"
   version="1.1"
   width="280"
   height="200"
   viewBox="0 0 79.022217 56.444443"
   id="svg2"
   xml:space="preserve"
   style="fill-rule:evenodd"><metadata
     id="metadata27"><rdf:RDF><cc:Work
         rdf:about=""><dc:format>image/svg+xml</dc:format><dc:type
           rdf:resource="http://purl.org/dc/dcmitype/StillImage" /><dc:title></dc:title></cc:Work></rdf:RDF></metadata><defs
     id="defs4"><style
       type="text/css"
       id="style6" /></defs><g
     transform="matrix(0.56444443,0,0,0.56444443,22.577879,0)"
     id="Ebene_x0020_1"><metadata
       id="Brennpeter-Layer" /><g
       id="_87915808"><polygon
         points="30.789,100 -0.0002,50.2514 30.789,0 61.6152,50.2514 "
         id="_87899992"
         style="fill:#ffffff;fill-rule:nonzero" /><polygon
         points="30.789,96.6963 1.8126,50.2018 30.789,3.3037 59.78,50.2514 "
         id="_87897784"
         style="fill:#000000;fill-rule:nonzero" /><polygon
         points="30.789,88.3665 6.7153,50.2514 30.789,11.6333 54.9,50.2514 "
         id="_87899032"
         style="fill:#ffffff;fill-rule:nonzero" /><polygon
         points="30.789,84.99 8.4405,50.2514 30.8775,14.8554 53.1018,50.2514 "
         id="_41575512"
         style="fill:#000000;fill-rule:nonzero" /><polygon
         points="40.1108,32.9172 21.2845,32.9172 25.6512,26.1289 36.0445,26.1289 "
         id="_87694552"
         style="fill:#ffffff;fill-rule:nonzero" /><path
         d="m 36.103,35.288 c 2.8182,0.6459 5.6367,3.0528 6.4585,5.8722 0.7634,3.111 0.6468,6.9283 -1.879,9.0998 2.056,3.1121 3.1121,8.1032 0.8229,11.5089 -1.3508,1.9372 -3.4203,3.2591 -5.6525,3.5526 l -14.8989,0 0,-30.0335 c 0,0 10.1578,-0.0582 15.149,0 z"
         id="_44438744"
         style="fill:#ffffff;fill-rule:nonzero" /><path
         d="m 35.8094,36.5211 c 2.6501,0.4697 4.9324,3.1121 5.7542,5.6367 0.4697,2.9944 -0.2352,6.1065 -2.7006,7.9271 0.2936,1.1146 1.5267,1.9375 1.8195,3.1113 1.175,2.6424 1.1157,6.4594 -0.8799,8.6904 -1.275,1.3955 -2.8078,1.7825 -4.9035,1.9295 -2.5685,0 -5.2539,0 -6.5316,0 -2.0918,0 -5.9091,0 -5.9091,0 l 0,-27.2658 13.351,-0.0292 z"
         id="_44441504"
         style="fill:#000000;fill-rule:nonzero" /><path
         d="m 48.4045,46.3117 2.018,3.9397 c 0,0 -1.175,1.5648 -2.0549,2.8125 -1.4316,0 -3.046,0 -4.7345,0 -0.2343,-0.998 -0.5718,-1.981 -1.1008,-2.8621 0.9541,-1.2235 1.659,-2.48 1.8352,-3.8901 1.527,0.0447 2.5324,0 4.037,0 z"
         id="_44441400"
         style="fill:#ffffff;fill-rule:nonzero" /><polygon
         points="10.5323,50.2514 12.9685,46.3263 19.3104,46.3263 19.3027,53.0639 12.6241,53.0639 "
         id="_87493184"
         style="fill:#ffffff;fill-rule:nonzero" /><path
         d="m 34.3486,53.0639 c 2.4223,0.4774 2.8262,4.7711 0,5.6883 l -7.156,0 0,-5.6883 c 0,0 4.1558,-0.0204 7.156,0 z"
         id="_87493096"
         style="fill:#ffffff;fill-rule:nonzero" /><path
         d="m 33.9089,54.0549 c 1.5404,0.4036 2.0179,2.899 0,3.5593 -2.1658,0 -5.6884,0 -5.6884,0 l 0,-3.5593 c 0,0 4.1101,0 5.6884,0 z"
         id="_44140288"
         style="fill:#000000;fill-rule:nonzero" /><polygon
         points="35.9638,73.835 25.2846,73.835 21.1748,67.009 40.5144,67.009 "
         id="_87837792"
         style="fill:#ffffff;fill-rule:nonzero" /><path
         d="m 34.404,41.9188 c 2.4226,0.4775 2.8251,4.77 0,5.6883 l -7.156,0 0,-5.6883 c 0,0 4.1558,-0.0204 7.156,0 z"
         id="_44440688"
         style="fill:#ffffff;fill-rule:nonzero" /><path
         d="m 33.9634,42.9096 c 1.5414,0.4036 2.018,2.8993 0,3.5595 -2.1648,0 -5.6883,0 -5.6883,0 l 0,-3.5595 c 0,0 4.1098,0 5.6883,0 z"
         id="_44440616"
         style="fill:#000000;fill-rule:nonzero" /></g></g></svg>