<?xml version="1.0" encoding="UTF-8" standalone="no"?>
<!-- Created with Inkscape (http://www.inkscape.org/) -->

<svg
   xmlns:dc="http://purl.org/dc/elements/1.1/"
   xmlns:cc="http://creativecommons.org/ns#"
   xmlns:rdf="http://www.w3.org/1999/02/22-rdf-syntax-ns#"
   xmlns:svg="http://www.w3.org/2000/svg"
   xmlns="http://www.w3.org/2000/svg"
   version="1.0"
   width="280"
   height="200"
   viewBox="0 0 20.092645 14.367187"
   id="svg7770">
  <metadata
     id="metadata3006">
    <rdf:RDF>
      <cc:Work
         rdf:about="">
        <dc:format>image/svg+xml</dc:format>
        <dc:type
           rdf:resource="http://purl.org/dc/dcmitype/StillImage" />
        <dc:title></dc:title>
      </cc:Work>
    </rdf:RDF>
  </metadata>
  <defs
     id="defs7772">
    <clipPath
       id="clipPath22521">
      <path
         d="m 0,841.98 595.2,0 L 595.2,0 0,0 0,841.98 z"
         id="path22523" />
    </clipPath>
    <clipPath
       id="clipPath22513">
      <path
         d="m 0,841.945 595,0 0,-841.89 -595,0 0,841.89 z"
         id="path22515" />
    </clipPath>
    <clipPath
       id="clipPath22505">
      <path
         d="m 40.77,17.075 c -12.351,0 -22.375,10.024 -22.375,22.375 0,12.351 10.024,22.376 22.375,22.376 12.351,0 22.375,-10.025 22.375,-22.376 0,-12.351 -10.024,-22.375 -22.375,-22.375 z"
         id="path22507" />
    </clipPath>
  </defs>
  <g
     transform="matrix(0,-1.25,-1.25,0,56.909679,57.786087)"
     clip-path="url(#clipPath22513)"
     id="g22511">
    <g
       id="g22517">
      <g
         transform="translate(40.481995,61.871994)"
         id="g22525" />
      <g
         transform="matrix(0.26041666,0,0,0.26041666,29.939809,26.910127)"
         id="g3825">
        <path
           d="m 0,0 c 12.188,0 22.068,-9.88 22.068,-22.068 0,-12.188 -9.88,-22.067 -22.068,-22.067 -12.188,0 -22.068,9.879 -22.068,22.067 C -22.068,-9.88 -12.188,0 0,0"
           transform="translate(40.481995,61.871994)"
           id="path22527"
           style="fill:#fde100;fill-opacity:1;fill-rule:nonzero;stroke:none" />
        <g
           transform="translate(40.481995,59.645004)"
           id="g22529">
          <path
             d="m 27.53125,1.3125 c -14.50375,0 -26.25,11.778749 -26.25,26.28125 0,14.5025 11.746251,26.25 26.25,26.25 14.5025,0 26.250002,-11.747501 26.25,-26.25 0,-14.5025 -11.747499,-26.2812499 -26.25,-26.28125 z m 0,1.46875 c 13.69625,0 24.781249,11.114999 24.78125,24.8125 0,13.6975 -11.084999,24.781251 -24.78125,24.78125 -13.6975,0 -24.8124999,-11.083751 -24.8125,-24.78125 0,-13.6975 11.115001,-24.8125 24.8125,-24.8125 z m -8.21875,4 6.75,20.875 2.90625,0 6.65625,-20.875 -4.0625,0 -4.0625,13.9375 -4.03125,-13.9375 -4.15625,0 z M 8.875,17.0625 l 0,20.59375 6.46875,0 c 5.23375,-2e-6 7.88875,-6.33625 4.25,-10.25 0,0 0,-0.0125 0,-0.03125 -1e-6,-0.02 0.03125,-0.03125 0.03125,-0.03125 C 22.64875,23.927499 21.375,17.91 15.75,17.0625 l -6.875,0 z m 26.75,0 0,20.59375 6.5,0 c 5.233749,-2e-6 7.88875,-6.33625 4.25,-10.25 0,0 0,-0.0125 0,-0.03125 0,-0.02 0.03125,-0.03125 0.03125,-0.03125 C 49.431248,23.927499 48.155,17.91 42.53125,17.0625 l -6.90625,0 z m -22.96875,3.84375 3.1875,0 c 2.0675,0 2.49125,3.95875 0.125,4.59375 l -3.3125,0 0,-4.59375 z m 26.8125,0 3.15625,0 c 2.066249,0 2.4925,3.95875 0.125,4.59375 l -3.28125,0 0,-4.59375 z m -26.8125,8.28125 2.8125,0 c 2.33375,0 3.18875,4.24375 0.15625,4.84375 l -2.96875,0 0,-4.84375 z m 26.8125,0 2.78125,0 c 2.332502,0 3.19,4.24375 0.15625,4.84375 l -2.9375,0 0,-4.84375 z m -16,8.90625 c -1.67,0 -3.031249,1.361252 -3.03125,3.03125 l 0,4.5625 c 0,1.67 1.36125,3.031251 3.03125,3.03125 l 0.0625,0 c 1.67,0 3.03125,-1.361248 3.03125,-3.03125 l 0,-4.5625 c 0,-1.67 -1.36125,-3.031248 -3.03125,-3.03125 l -0.0625,0 z m 8.03125,0 c -1.67,0 -3.09375,1.298748 -3.09375,2.96875 l 0,0.75 c 0,1.67 1.527501,3.02 3.09375,3.0625 0,0 0.638752,-0.0075 0.96875,-0.1875 L 32.5,45.71875 c 0,0.52125 -0.42125,0.982501 -0.9375,0.96875 -0.42625,-0.0125 -1,-0.228749 -1,-0.75 0,0 0.09375,-0.6875 -0.40625,-0.6875 l -1.75,0 c -0.01125,0.16625 0,0.26875 0,0.5 0,1.58375 1.356251,2.96875 3.1875,2.96875 1.73,-0.0175 2.937499,-1.343749 2.9375,-3.0625 l 0,-4.5625 c 0,-1.67 -1.29875,-3.000001 -2.96875,-3 l -0.0625,0 z M 31.53125,40.25 c 0.551249,10e-7 0.96875,0.415 0.96875,0.9375 l 0,0.59375 c 10e-7,0.521251 -0.41625,0.9375 -0.9375,0.9375 -0.551249,10e-7 -1,-0.41625 -1,-0.9375 l 0,-0.59375 c -1e-6,-0.522498 0.4475,-0.9375 0.96875,-0.9375 z m -8.0625,0.03125 c 0.552499,10e-7 1,0.415 1,0.9375 l 0,4.53125 c 1e-6,0.521249 -0.44625,0.9375 -0.96875,0.9375 -0.55125,0 -0.96875,-0.41625 -0.96875,-0.9375 l 0,-4.53125 c 1e-6,-0.522499 0.41625,-0.9375 0.9375,-0.9375 z"
             transform="matrix(0,-0.8,-0.8,0,22.068,2.180996)"
             id="path22531"
             style="fill:#231f20;fill-opacity:1;fill-rule:nonzero;stroke:none" />
        </g>
      </g>
    </g>
  </g>
</svg>
