<?xml version="1.0" encoding="UTF-8" standalone="no"?>
<!-- Created with Inkscape (http://www.inkscape.org/) -->

<svg
   xmlns:dc="http://purl.org/dc/elements/1.1/"
   xmlns:cc="http://creativecommons.org/ns#"
   xmlns:rdf="http://www.w3.org/1999/02/22-rdf-syntax-ns#"
   xmlns:svg="http://www.w3.org/2000/svg"
   xmlns="http://www.w3.org/2000/svg"
   xmlns:xlink="http://www.w3.org/1999/xlink"
   version="1.1"
   width="280"
   height="200"
   id="svg3114">
  <defs
     id="defs3116">
    <radialGradient
       cx="413.125"
       cy="493.48718"
       r="15.125"
       fx="413.125"
       fy="493.48718"
       id="radialGradient5254-1"
       xlink:href="#linearGradient5246-4"
       gradientUnits="userSpaceOnUse"
       gradientTransform="matrix(2.3141548,0,0,2.3141548,346.43921,-334.45102)" />
    <linearGradient
       id="linearGradient5246-4">
      <stop
         id="stop5248-9"
         style="stop-color:#ffffff;stop-opacity:1"
         offset="0" />
      <stop
         id="stop5250-8"
         style="stop-color:#ffffff;stop-opacity:0"
         offset="1" />
    </linearGradient>
    <linearGradient
       x1="487.96573"
       y1="409.71228"
       x2="486.58194"
       y2="424.71228"
       id="linearGradient5270-2"
       xlink:href="#linearGradient5264-4"
       gradientUnits="userSpaceOnUse"
       gradientTransform="translate(357.04925,173.03695)" />
    <linearGradient
       id="linearGradient5264-4">
      <stop
         id="stop5266-5"
         style="stop-color:#ffffff;stop-opacity:0.765625"
         offset="0" />
      <stop
         id="stop5268-2"
         style="stop-color:#aaaaaa;stop-opacity:0.47486034"
         offset="1" />
    </linearGradient>
    <radialGradient
       cx="477.29605"
       cy="420.19824"
       r="28.703125"
       fx="477.29605"
       fy="420.19824"
       id="radialGradient5262-9"
       xlink:href="#linearGradient5256-9"
       gradientUnits="userSpaceOnUse"
       gradientTransform="translate(357.32957,173.21373)" />
    <linearGradient
       id="linearGradient5256-9">
      <stop
         id="stop5258-8"
         style="stop-color:#efefef;stop-opacity:1"
         offset="0" />
      <stop
         id="stop3820"
         style="stop-color:#afafaf;stop-opacity:1"
         offset="0.55000001" />
      <stop
         id="stop5260-3"
         style="stop-color:#3f3f3f;stop-opacity:1"
         offset="1" />
    </linearGradient>
    <radialGradient
       cx="470.80954"
       cy="426.02725"
       r="27.8125"
       fx="470.80954"
       fy="426.02725"
       id="radialGradient5389"
       xlink:href="#linearGradient5224-6"
       gradientUnits="userSpaceOnUse"
       gradientTransform="matrix(-1.3579048,1.3096266,-1.2541702,-1.3004037,2003.3559,528.95014)" />
    <linearGradient
       id="linearGradient5224-6">
      <stop
         id="stop5226-9"
         style="stop-color:#ffffff;stop-opacity:1"
         offset="0" />
      <stop
         id="stop3818"
         style="stop-color:#464646;stop-opacity:1"
         offset="0.5" />
      <stop
         id="stop5228-8"
         style="stop-color:#000000;stop-opacity:1"
         offset="1" />
    </linearGradient>
    <linearGradient
       x1="331.91821"
       y1="457.24771"
       x2="331.91821"
       y2="425.50018"
       id="linearGradient4993"
       xlink:href="#linearGradient3817"
       gradientUnits="userSpaceOnUse"
       gradientTransform="translate(335.56565,392.96284)" />
    <linearGradient
       id="linearGradient3817">
      <stop
         id="stop3819"
         style="stop-color:#580000;stop-opacity:0.86274511"
         offset="0" />
      <stop
         id="stop3821"
         style="stop-color:#740500;stop-opacity:0.51372552"
         offset="0.54747581" />
      <stop
         id="stop3823"
         style="stop-color:#800700;stop-opacity:0.25490195"
         offset="0.81537783" />
      <stop
         id="stop3825"
         style="stop-color:#8c0a00;stop-opacity:0"
         offset="1" />
    </linearGradient>
    <linearGradient
       x1="-29.472874"
       y1="395.4209"
       x2="301.58664"
       y2="395.4209"
       id="linearGradient5015"
       xlink:href="#linearGradient4175-7"
       gradientUnits="userSpaceOnUse"
       gradientTransform="translate(335.55851,392.97078)" />
    <linearGradient
       id="linearGradient4175-7">
      <stop
         id="stop4177-4"
         style="stop-color:#8e0902;stop-opacity:1"
         offset="0" />
      <stop
         id="stop4179-0"
         style="stop-color:#e2080e;stop-opacity:1"
         offset="1" />
    </linearGradient>
    <linearGradient
       x1="285.20126"
       y1="49.936466"
       x2="285.20126"
       y2="69.959213"
       id="linearGradient4203"
       xlink:href="#linearGradient4197"
       gradientUnits="userSpaceOnUse"
       gradientTransform="translate(257.33932,444.63656)" />
    <linearGradient
       id="linearGradient4197">
      <stop
         id="stop4199"
         style="stop-color:#ffffff;stop-opacity:1"
         offset="0" />
      <stop
         id="stop3812"
         style="stop-color:#ffffff;stop-opacity:0.49803922"
         offset="0.30000001" />
      <stop
         id="stop4201"
         style="stop-color:#ffffff;stop-opacity:0"
         offset="1" />
    </linearGradient>
    <linearGradient
       x1="361.31458"
       y1="96.176743"
       x2="493.6991"
       y2="160.00671"
       id="linearGradient5007"
       xlink:href="#linearGradient4175"
       gradientUnits="userSpaceOnUse"
       gradientTransform="translate(81.422694,-39.420292)" />
    <linearGradient
       id="linearGradient4175">
      <stop
         id="stop4177"
         style="stop-color:#cd090d;stop-opacity:1"
         offset="0" />
      <stop
         id="stop4179"
         style="stop-color:#f39272;stop-opacity:1"
         offset="1" />
    </linearGradient>
    <linearGradient
       x1="361.31458"
       y1="96.176743"
       x2="493.6991"
       y2="160.00671"
       id="linearGradient3112"
       xlink:href="#linearGradient4175"
       gradientUnits="userSpaceOnUse"
       gradientTransform="translate(335.57253,392.94188)" />
  </defs>
  <metadata
     id="metadata3119">
    <rdf:RDF>
      <cc:Work
         rdf:about="">
        <dc:format>image/svg+xml</dc:format>
        <dc:type
           rdf:resource="http://purl.org/dc/dcmitype/StillImage" />
        <dc:title></dc:title>
      </cc:Work>
    </rdf:RDF>
  </metadata>
  <g
     transform="translate(-254.14984,-432.36217)"
     id="layer1">
    <path
       d="m 295.09482,432.3622 c -5.58621,0 -10.08739,4.50119 -10.08739,10.08738 l 0,136.01078 c 0,5.5862 4.50118,10.08738 10.08739,10.08738 l 208.35087,0 c 5.58623,0 10.0874,-4.50118 10.0874,-10.08738 l 0,-72.2456 c -11.56231,-0.0147 -20.93096,-9.39225 -20.93096,-20.95798 0,-11.56573 9.36865,-20.94334 20.93096,-20.95797 l 0,-21.84923 c 0,-5.58619 -4.50117,-10.08738 -10.0874,-10.08738 l -208.35087,0 z"
       id="rect3405"
       style="fill:url(#linearGradient3112);fill-opacity:1;stroke:none" />
    <path
       d="m 290.94184,440.08229 c 2.43604,1.08825 4.50265,3.48371 6.17426,7.27681 l 205.33834,0 c 0.45819,-3.17207 2.411,-5.63239 5.33634,-7.62962 -1.2236,-1.51166 -2.58392,-2.33975 -4.1015,-2.3815 l -208.80032,0 c -1.71777,0.42321 -3.05249,1.31156 -3.94712,2.73431 z"
       id="path4195"
       style="fill:url(#linearGradient4203);fill-opacity:1;stroke:none" />
    <path
       d="m 285.37257,439.80487 c -0.0108,0.0396 -0.0167,0.0817 -0.027,0.12153 l 0,38.53999 0.027,-38.66152 z m 210.471,56.64865 -0.0676,0.0945 c -68.46283,36.85674 -139.35455,39.62946 -210.43047,39.90388 -0.0135,5e-5 -0.027,-6e-5 -0.0405,0 l -0.29708,0 0,42.02397 c 0,5.58619 4.50118,10.07388 10.08737,10.07388 l 208.35087,0 c 5.58628,0 10.0874,-4.48769 10.0874,-10.07388 l 0,-72.2591 c -7.44751,-0.009 -13.98027,-3.90203 -17.69005,-9.76328 z"
       id="rect3405-9"
       style="fill:url(#linearGradient5015);fill-opacity:1;stroke:none" />
    <path
       d="m 302.97212,573.53683 c 0,0 -1.39168,-0.18076 -1.28665,-0.58893 0.4018,-1.56127 0.73809,-2.40394 0.84124,-2.95191 0.0985,-0.52314 1.1468,0.0654 1.1468,0.0654 l 0.80209,-1.83063 c 0,0 -1.15061,-0.33103 -0.98626,-0.74162 0.40914,-1.0221 0.92672,-1.80074 1.10219,-2.17306 0.20151,-0.42757 0.99657,0.33779 0.99657,0.33779 0,0 0.45108,-0.55095 0.68334,-0.79247 0.99707,-1.03685 2.01235,-1.69378 2.4388,-2.63446 l 0.70473,-1.64843 c 0,0 -1.08288,-0.61689 -0.80941,-1.01658 0.56158,-0.82076 0.73118,-1.12521 1.29862,-2.10447 0.19003,-0.32795 0.87848,0.72193 0.87848,0.72193 l 0.75621,-1.21727 c 0,0 -0.82695,-0.54283 -0.61879,-0.96432 0.38195,-0.77337 1.02408,-1.54668 1.56598,-2.2297 0.22152,-0.2792 0.87622,0.61268 0.87622,0.61268 0,0 1.66114,-2.14912 2.56651,-2.28352 0.60018,-0.0513 1.69027,0.96148 1.69027,0.96148 l 2.07889,1.94455 2.07889,1.94456 1.25156,-0.003 c 2.33678,-0.006 8.14436,-1.65429 14.86343,-4.21937 3.68385,-1.40636 7.72224,-2.80197 8.97419,-3.10135 0,0 1.49614,-0.54869 2.27628,-0.54433 0.38714,0.003 1.12648,0.28273 1.12648,0.28273 l 1.12647,0.28273 -1.0871,-1.85827 c -0.59789,-1.02204 -1.91621,-3.51112 -2.92957,-5.5313 -1.11981,-1.94204 -1.72255,-3.92987 -2.66174,-5.80082 l -1.03533,0.38395 -2.06783,-4.92915 c -5.69362,-11.79631 -6.45492,-15.15727 -6.03509,-22.49535 0.42499,-1.81165 0.93358,-2.7748 1.81807,-4.09967 l -1.11149,-0.24005 c 0,0 -1.23186,0.22499 -1.21954,-0.18604 0.0779,-2.59697 0.5381,-7.70296 0.5381,-7.70296 0.93373,-8.71259 2.04018,-17.33357 4.04942,-23.47527 l 0.86581,-2.64656 2.89965,-1.35493 2.89963,-1.35493 -1.46503,0.22174 c -0.80577,0.12196 -4.2675,0.44422 -7.69276,0.71613 l -6.22773,0.49438 -5.91095,6.25623 -6.45111,5.93212 -0.5025,2.06041 c 0,0 -0.17169,1.43564 -0.5025,2.0604 -0.36829,0.69553 -1.58279,1.75196 -1.58279,1.75196 -0.87054,0.96358 -2.31752,2.1268 -3.21552,2.58493 -0.54424,0.27765 -1.03867,0.69017 -1.63272,0.83295 -0.41429,0.0996 -1.27824,0 -1.27824,0 -1.63861,0 -2.65025,-0.39224 -2.62688,-1.01851 0.0101,-0.27166 0.77968,-1.36104 1.71011,-2.42085 0.93042,-1.05982 1.62724,-1.99138 1.54847,-2.07015 -0.0788,-0.0787 -0.87429,0.28813 -1.76782,0.81533 0,0 -1.11335,1.17862 -1.72965,1.05402 -0.53124,-0.14059 -0.8623,-0.89327 -1.01765,-1.82823 0.0748,-0.48564 1.13217,-0.80276 1.65252,-1.17935 1.59769,-1.15627 2.06544,-1.90476 3.20629,-3.72322 0.52186,-0.83184 1.57827,-1.90134 2.34758,-2.37668 l 1.39874,-0.86424 3.64681,-6.04973 c 2.00576,-3.32735 4.48036,-7.31369 5.49912,-8.85853 0,0 0.95756,-2.13258 1.85229,-2.8088 0.49578,-0.3747 1.77741,-0.56266 1.77741,-0.56266 l 2.23575,-0.63904 c -0.1277,-0.72969 -0.47611,-1.6386 0.21633,-1.79489 6.26941,-1.39264 8.35872,-2.36798 14.00019,-3.36908 4.75499,-0.84381 8.99409,-0.69805 8.99409,-0.69805 l 1.94455,0.37945 c 2.7845,0.54336 7.26995,1.64799 9.33244,2.2983 l 1.77028,0.55818 0.97701,-1.84168 c 1.23309,-2.32439 3.63451,-4.75089 5.80049,-5.86105 2.98228,-1.29682 5.4119,-1.75748 8.33276,-0.93969 l 1.88372,0.70158 c 3.12346,2.04593 4.82276,4.89431 6.2549,8.22341 0.33896,3.59672 0.77909,6.08889 -1.19984,7.84393 -0.46234,0.41002 -1.11369,0.34175 -2.19692,0.91558 -1.31691,0.69763 -2.40053,2.38759 -3.81357,4.45823 0,0 -0.62191,0.93552 -1.13149,1.23301 -0.48089,0.28073 -0.96183,0.17187 -1.39712,0.11292 -1.04985,-0.14216 -1.79817,0.3994 -1.79817,0.3994 l -1.49311,0.88095 c -0.82121,0.48453 -1.95489,0.88096 -2.5193,0.88096 0,0 -0.60755,0.11855 -0.91159,-0.0382 -0.49472,-0.25504 -1.08314,-1.322 -1.08314,-1.322 l -0.96855,-1.36021 -0.32622,0.88188 c -2.67323,7.35021 -3.06128,15.5637 -5.79336,22.85316 l 3.35251,0.35316 c 1.72174,0.18137 6.3249,0.88045 10.22625,1.58326 0,0 5.03723,0.48148 7.07426,1.04867 0.51429,0.1432 0.96442,1.52197 0.96442,1.52197 l 4.22616,0.86334 c 2.3244,0.47485 6.11453,1.56406 8.42254,2.42046 l 4.19638,1.55711 c 0,0 2.96768,-0.72506 4.47007,-0.63604 1.74944,0.10365 5.08119,1.2164 5.08119,1.2164 l 0.27951,-0.48969 4.00509,1.65372 c 2.01128,0.83046 6.44669,2.98928 10.44305,4.6833 8.24876,3.49661 14.01436,5.63111 17.29245,6.4019 l 2.24816,0.52862 6.3943,-0.72268 c 3.51687,-0.39747 7.34454,-0.90079 8.50591,-1.11849 3.01125,-0.56446 3.9201,-0.48428 4.88732,0.48297 0.5531,0.6419 1.40132,1.58356 1.08435,1.8675 -0.39687,0.35552 -0.99357,0.79783 -1.41441,0.99261 0,0 0.5597,0.673 0.30706,0.87965 -0.58843,0.48133 -1.03732,0.64268 -1.7642,1.00618 -0.17714,0.0886 -0.55553,-0.7257 -0.55553,-0.7257 l -1.2239,0.85938 c 0.22085,0.26054 0.57363,0.65274 0.37181,0.82104 -0.65275,0.54433 -1.0317,0.72988 -1.80778,1.24462 -0.24263,0.16092 -0.37088,-0.38118 -0.65177,-0.65564 l -7.14514,5.63041 c 0,0 0.90777,0.70195 0.48304,1.06986 -0.89074,0.77158 -0.95425,0.77121 -1.59176,1.26054 -0.17058,0.13094 -0.71108,-0.49762 -1.00852,-0.84955 l -1.0294,0.7351 c 0,0 0.74016,0.85772 0.47203,1.0738 -0.39016,0.31443 -0.95399,0.62022 -1.76047,1.10232 -0.43498,0.26003 -1.16513,-0.97667 -1.16513,-0.97667 0,0 -2.33701,1.56756 -3.33237,1.10053 -0.63801,-0.29937 -0.69778,-1.66857 -1.44597,-3.07227 0,0 -0.62596,-1.7793 -1.36028,-2.3803 -0.54395,-0.44522 -1.80143,-0.65695 -1.80143,-0.65695 -3.66035,-0.72309 -10.13283,-2.06494 -13.93263,-2.33591 -12.83032,-0.91494 -15.55584,-1.42094 -20.09372,-3.73044 l -3.24093,-1.64944 -9.50671,-0.36274 -9.78362,-0.41048 -0.68262,1.17287 -9.78315,0 -9.78317,0 0,0.95388 c 0,0.52464 0.63694,3.00189 1.01931,5.96712 0,0 1.12519,5.32189 0.48572,5.75036 -0.66052,0.44254 -1.58381,1.09341 -1.58381,1.09341 l 1.09595,6.62147 c 1.59243,9.62102 1.61154,9.77601 1.64258,13.31938 l 0.0284,3.24092 -0.50948,1.29446 c -0.28021,0.71195 -1.0076,1.94753 -1.61642,2.74574 l -1.10696,1.45128 -2.64447,1.25106 c -1.45446,0.68809 -2.31138,1.0323 -2.81103,1.15688 -0.3799,0.0947 -1.33366,0.31762 -1.65143,0.45785 -0.15724,0.0694 -0.0907,0.48525 -0.33706,0.55204 -0.45221,0.12261 -5.19502,0.38971 -5.19502,0.38971 -2.84983,0.2292 -10.90127,0.70567 -17.89209,1.05884 l -12.71058,0.64211 -1.76555,1.18318 c -3.67832,2.465 -7.01104,5.32627 -8.671,7.44439 0,0 -1.31775,1.46654 -2.10192,1.96552 -0.6196,0.39426 -1.59653,0.7257 -2.29931,0.7257 -1.45237,0 -2.34979,-0.71292 -2.33751,-1.56598 0.0157,-1.08879 0.5467,-2.65144 0.5467,-2.65144 z"
       id="path4328"
       style="fill:#ffffff;fill-opacity:1" />
    <path
       d="m 285.01137,577.773 0,0.7022 c 0,5.58618 4.50118,10.07387 10.08737,10.07387 l 208.35089,0 c 5.58618,0 10.08735,-4.48769 10.08735,-10.07387 l 0,-0.7022 -228.52561,0 z"
       id="rect3405-9-5"
       style="fill:url(#linearGradient4993);fill-opacity:1;stroke:none" />
    <path
       d="m 513.40341,473.44429 c -5.39411,0 -9.76328,3.30491 -9.76328,7.37311 0,4.06819 4.36917,7.35959 9.76328,7.35959 5.39412,0 9.76329,-3.2914 9.76329,-7.35959 0,-4.0682 -4.36917,-7.37311 -9.76329,-7.37311 z m 10.43848,5.42855 c 0.72585,1.2917 1.13432,2.73741 1.13432,4.26722 0,5.43933 -5.14841,9.84431 -11.49177,9.84431 -6.34337,0 -11.47828,-4.40498 -11.47828,-9.84431 0,-0.93272 0.14959,-1.83216 0.43213,-2.68727 -0.57117,1.31178 -0.89126,2.74952 -0.89126,4.25371 0,6.21981 5.37974,11.26222 12.01843,11.26222 6.63869,0 12.01843,-5.04241 12.01843,-11.26222 0,-2.13805 -0.63769,-4.13088 -1.742,-5.83366 z"
       id="path5068-1"
       style="fill:url(#radialGradient5389);fill-opacity:1;stroke:none" />
    <path
       d="m 513.45363,472.83503 c -6.84964,0 -12.41003,5.5604 -12.41003,12.41004 0,6.84964 5.56039,12.39653 12.41003,12.39653 6.84964,0 12.39653,-5.54689 12.39653,-12.39653 0,-6.84964 -5.54689,-12.41004 -12.39653,-12.41004 z m -3.96337,1.1941 c 0.0891,0.0114 2.41295,-0.68652 3.9309,-0.59196 1.66866,0.10394 5.98464,0.76418 8.03961,3.56134 3.79118,5.16045 -0.49596,8.40186 -1.18693,9.0209 -0.0467,-0.46648 -0.84621,-3.6886 -1.66032,-5.13585 -0.46822,-0.83235 -1.26895,-1.84659 -1.75196,-2.40143 -0.78665,-0.90367 -1.55972,-1.49871 -2.51385,-2.23013 -3.28746,-0.7683 -0.56891,0.13874 0.52695,0.91063 0,0 4.60567,4.07021 5.01308,9.04767 -1.71405,1.11418 -4.06165,1.97861 -6.50162,1.97861 -5.39412,0 -9.61052,-3.25321 -9.61052,-7.3214 0.98929,-5.03527 3.81417,-5.59235 3.99591,-5.99806 0.54142,-0.32925 1.14997,-0.5631 1.71875,-0.84032 z m 4.07187,21.93334 c -10.94951,-0.70815 -13.2254,-9.76972 -11.06475,-15.43491 -2.39423,5.67063 2.60599,12.24015 11.02143,12.54509 4.81231,0.0239 6.35896,-1.73903 6.35896,-1.73903 0,0 -0.0315,1.11011 -0.14811,1.68943 -0.12751,0.63342 -0.33283,1.33178 -0.33283,1.33178 -1.92302,1.22154 -2.44186,1.27302 -5.83468,1.60764 z"
       id="path4979-7"
       style="fill:url(#radialGradient5262-9);fill-opacity:1;stroke:none" />
    <path
       d="m 520.42892,486.75997 c -0.30785,-1.13664 -0.42361,-1.84899 -0.66729,-2.72814 -0.0246,-0.0887 -0.37718,-1.31386 -0.4092,-1.40315 -1.50681,-4.20218 -3.53711,-5.49458 -6.14198,-7.13885 -0.75088,-0.65518 -2.69641,-1.55796 -3.60286,-1.79614 1.03761,-0.36283 1.40559,-0.30704 1.93866,-0.48738 2.58651,-0.0893 4.98804,0.14101 7.74806,1.587 3.10816,1.62839 4.80606,3.99231 4.81291,6.70084 0.003,0.81313 -0.0689,1.37431 -0.26218,2.07342 -0.38692,1.39954 -0.99268,2.60167 -2.10898,4.18528 -0.42412,0.54293 -0.80709,0.69083 -1.08415,0.5835 -0.25667,-0.0995 -0.0733,-1.02365 -0.22299,-1.57638 z"
       id="path5118-2"
       style="fill:url(#linearGradient5270-2);fill-opacity:1;stroke:none" />
    <path
       d="m 428.25,493.48718 a 15.125,15.125 0 1 1 -30.25,0 15.125,15.125 0 1 1 30.25,0 z"
       transform="matrix(0.35712663,0,0,0.35712663,364.26971,303.42662)"
       id="path5244"
       style="fill:url(#radialGradient5254-1);fill-opacity:1;stroke:none" />
    <path
       d="m 507.56541,481.22504 c 1.6574,-1.8807 4.24909,-2.92723 8.7505,-2.26864 -1.38354,-1.69124 -3.04661,-2.9166 -4.86138,-3.88912 -3.82282,0.78383 -5.52411,2.68145 -6.48185,4.96942 0.69774,0.20882 1.33871,0.35373 2.59273,1.18834 z"
       id="path5272"
       style="fill:#ffffff;fill-opacity:1;stroke:#ffffff;stroke-width:1px;stroke-linecap:butt;stroke-linejoin:miter;stroke-opacity:1" />
    <path
       d="m 413.28721,604.73707 c -4.03715,0 -6.89268,1.56648 -8.2818,4.53498 -0.57612,1.23113 -0.5974,1.37701 -0.51917,3.42782 0.0653,1.71048 0.16929,2.32064 0.51917,2.98995 1.03178,1.97371 2.58667,2.90761 7.62502,4.57876 4.85941,1.61179 5.81713,2.3207 5.82353,4.3098 0.004,1.22872 -0.61583,2.13736 -1.8953,2.77728 -0.874,0.43712 -1.254,0.5042 -3.00247,0.49416 -2.42668,-0.014 -3.69176,-0.4473 -5.62963,-1.91408 -0.71228,-0.53913 -1.40349,-0.98205 -1.53251,-0.98205 -0.30747,0 -2.94616,2.622 -2.94616,2.9274 0,0.3372 2.03119,2.15366 3.04624,2.72099 1.21662,0.67997 2.46916,1.15504 3.85943,1.47621 1.67279,0.38644 5.41018,0.24268 7.04954,-0.27522 2.53463,-0.80074 4.2541,-2.29535 5.09168,-4.41614 0.35797,-0.90637 0.44802,-1.54861 0.45663,-3.2339 0.01,-1.90951 -0.0401,-2.20095 -0.55045,-3.24017 -0.61687,-1.25617 -1.77359,-2.38936 -3.27144,-3.20262 -0.53439,-0.29016 -2.59088,-1.08148 -4.57251,-1.75771 -1.98163,-0.67621 -3.94331,-1.45405 -4.35984,-1.72641 -1.40643,-0.91966 -1.70606,-2.51403 -0.70682,-3.78436 1.46313,-1.86008 5.8217,-1.7176 8.46946,0.28148 0.59697,0.45072 1.15399,0.81943 1.23851,0.81943 0.31705,0 2.86486,-2.70344 2.86486,-3.04001 0,-0.49746 -1.85112,-1.90883 -3.50289,-2.67094 -1.78383,-0.82306 -3.08303,-1.09465 -5.27308,-1.09465 z m 60.61232,0.006 c -2.68989,-0.004 -4.04986,0.2875 -6.19884,1.33235 -2.71896,1.32195 -4.71339,3.87318 -5.83605,7.46863 -0.41652,1.33395 -0.46913,1.89159 -0.46913,5.00412 0,3.78916 0.26082,5.13847 1.44493,7.50617 1.61815,3.23561 4.65378,5.50699 8.12542,6.08625 4.45009,0.74252 9.01689,-0.41812 11.52198,-2.92741 2.20398,-2.2077 3.00528,-4.58713 3.17136,-9.41398 l 0.11259,-3.25268 -5.5358,0 -5.52955,0 0,2.60214 0,2.60214 1.80148,0 c 1.77531,0 1.80148,0.008 1.80148,0.4879 0,1.18337 -0.96053,2.53525 -2.17053,3.05251 -0.81163,0.34697 -2.7731,0.38397 -3.72806,0.0688 -0.87844,-0.28991 -2.16324,-1.72989 -2.47704,-2.77727 -0.47997,-1.60201 -0.65233,-3.95315 -0.42535,-5.77975 0.44303,-3.5652 1.866,-5.26617 4.39737,-5.25433 0.91708,0.004 2.22688,0.60983 2.746,1.2698 0.22739,0.28906 0.60076,0.52543 0.82568,0.52543 0.44847,0 6.42324,-2.30735 6.70551,-2.58963 0.27818,-0.27814 -0.86758,-2.19246 -1.97663,-3.30271 -1.89863,-1.90068 -4.35389,-2.70253 -8.30682,-2.70848 z m -114.68801,0.3628 0,13.44855 0,13.44855 5.15424,-0.0938 c 3.98582,-0.0764 5.41804,-0.17883 6.32395,-0.43785 5.94285,-1.69918 8.9386,-6.07656 8.9386,-13.06699 0,-2.66286 -0.42883,-4.75528 -1.3824,-6.76181 -1.36661,-2.8757 -3.58493,-4.80345 -6.71176,-5.8423 -1.56079,-0.51856 -1.79997,-0.5439 -6.96822,-0.61925 z m -21.26747,0.0187 -2.22684,0.0563 -2.22682,0.0563 -0.0501,13.11076 c -0.0285,7.21093 -0.0103,13.23201 0.0438,13.3735 0.0733,0.19178 0.61956,0.24272 2.15177,0.20016 l 2.05794,-0.0626 0.0501,-9.38271 c -0.11546,-4.32736 -0.21493,-9.00409 -0.21493,-9.00409 0,0 0.20273,0.1163 2.26037,2.79898 1.09696,1.75045 3.77776,5.9699 5.95489,9.38271 l 3.95951,6.20511 2.10173,0 2.10172,0 0.0501,-13.36098 0.0501,-13.36099 -2.2018,0 -2.20181,0 -0.0125,9.3577 c -0.008,6.04099 -0.0765,9.25127 -0.20017,9.05744 -0.1054,-0.16513 -2.7287,-4.37888 -5.82353,-9.36394 l -5.62339,-9.06365 z m 165.53604,0.006 -7.83143,0.10633 -9.43276,26.47802 8.1567,0.14387 1.28856,-4.40363 7.67646,0.15261 1.41852,4.35109 8.26304,-0.16263 z m -219.33025,0.006 0,13.27966 c 0,7.30267 0.0579,13.33764 0.13136,13.41103 0.21665,0.21665 11.66049,0.15123 13.0795,-0.0751 1.53762,-0.24521 3.43747,-1.08759 4.42864,-1.95786 1.56348,-1.37275 2.53289,-4.23702 2.31441,-6.84312 -0.18711,-2.23182 -1.21126,-4.01263 -2.90239,-5.02913 -0.40514,-0.24352 -0.76477,-0.46196 -0.80066,-0.48791 -0.0359,-0.026 0.33437,-0.41659 0.82568,-0.86946 1.37378,-1.26631 1.79073,-2.44504 1.70765,-4.81646 -0.059,-1.68553 -0.15027,-2.08891 -0.67555,-3.11506 -0.74839,-1.46198 -2.09598,-2.54396 -3.86568,-3.09629 -1.15852,-0.36158 -1.85111,-0.40034 -7.75637,-0.40034 z m 39.83274,0 -0.006,7.95654 c -0.003,4.3761 -0.0905,8.58017 -0.20016,9.33893 -0.52807,3.65325 -2.46004,5.42405 -5.86107,5.37942 -2.44115,-0.032 -4.04929,-1.15893 -5.02287,-3.5279 -0.40214,-0.97852 -0.42384,-1.45933 -0.51917,-10.03951 l -0.10009,-9.00739 -2.20181,0 -2.20181,0 0,8.90731 c -0.22643,8.4947 -0.0527,18.06151 10.1083,18.19621 5.13679,0.0426 8.53226,-2.45341 9.94568,-7.31851 0.29131,-1.00276 0.34665,-2.48366 0.41284,-10.52741 l 0.0751,-9.35769 -2.21433,0 -2.21432,0 z m 125.30297,0 -0.0785,26.75096 7.98494,-0.029 0.10009,-26.72196 z m -66.15436,0.10003 -0.0501,13.11077 c -0.0285,7.21092 -0.009,13.22337 0.0438,13.36098 0.0745,0.19499 2.06095,0.2502 9.00739,0.2502 l 8.91357,0 0,-2.2018 0,-2.20181 -6.7055,0 -6.70552,0 0,-3.90321 0,-3.90321 3.70305,0 3.70304,0 0,-2.20181 0,-2.20181 -3.70304,0 -3.70305,0 0,-3.00246 0,-3.00247 6.51161,0 6.51159,0 -0.0563,-2.05168 -0.0563,-2.05169 -8.70716,0 z m 44.43652,0 -0.0501,13.11077 c -0.0285,7.21092 -0.009,13.22337 0.0438,13.36098 0.0745,0.19493 2.04096,0.2502 8.90733,0.2502 l 8.8135,0 0,-3.40279 0,-3.4028 -4.90404,0 -4.89778,0 -0.0563,-9.95818 -0.0501,-9.95818 -3.90322,0 z m -134.61063,3.94717 c 1.30976,0.0116 2.51171,0.0715 2.9712,0.15638 1.8465,0.34135 2.79148,1.64483 2.57712,3.54666 -0.12183,1.0808 -1.06222,2.16532 -2.13927,2.46453 -0.3902,0.1084 -2.35414,0.19331 -4.36609,0.19391 l -3.65925,0 0.0563,-3.15259 0.0563,-3.15259 3.17761,-0.0501 c 0.43715,-0.008 0.8895,-0.0101 1.32609,-0.006 z m 70.65807,0.15638 1.05086,0.006 c 1.83512,0.006 4.7001,0.37641 5.5921,0.72559 3.19132,1.24927 4.76641,4.04335 4.76641,8.45695 0,2.15109 -0.27225,3.56906 -0.93827,4.9228 -0.96708,1.96572 -2.63071,3.26993 -4.8665,3.79687 -0.73622,0.17351 -2.23269,0.3049 -3.45284,0.3065 l -2.15176,0 0,-9.10748 0,-9.10749 z m 136.03054,4.85399 2.0767,6.90568 -4.3223,-0.10008 z m -211.29239,5.3544 3.59045,0 c 4.51727,0 5.44653,0.18596 6.54287,1.28231 2.08906,2.08905 1.2614,5.95763 -1.43243,6.70551 -0.45643,0.12671 -2.48121,0.21832 -4.74765,0.21893 l -3.95324,0 0,-4.10338 z"
       id="path3841"
       style="fill:#000000" />
  </g>
</svg>
