<?xml version="1.0" encoding="UTF-8" standalone="no"?>
<!-- Created with Inkscape (http://www.inkscape.org/) -->

<svg
   xmlns:dc="http://purl.org/dc/elements/1.1/"
   xmlns:cc="http://creativecommons.org/ns#"
   xmlns:rdf="http://www.w3.org/1999/02/22-rdf-syntax-ns#"
   xmlns:svg="http://www.w3.org/2000/svg"
   xmlns="http://www.w3.org/2000/svg"
   version="1.1"
   width="280"
   height="200"
   viewBox="0 0 280 200"
   id="Ebene_1"
   xml:space="preserve"><metadata
     id="metadata23"><rdf:RDF><cc:Work
         rdf:about=""><dc:format>image/svg+xml</dc:format><dc:type
           rdf:resource="http://purl.org/dc/dcmitype/StillImage" /><dc:title></dc:title></cc:Work></rdf:RDF></metadata><defs
     id="defs21" /><path
     d="m 203.8817,21.809186 51.13488,-0.0517 -24.30441,32.93987 c 6.92079,13.59813 10.82219,28.99555 10.82219,45.30264 C 241.53436,155.2284 196.76557,200 141.53396,200 117.9495,200 96.26822,191.83462 79.16817,178.17512 H 28 l 24.31965,-32.9551 C 45.42012,131.64033 41.53396,116.273 41.53396,99.999596 c 0,-18.07309 4.79222,-35.02312 13.1802,-49.65527 0.18289,-0.32648 0.37502,-0.65578 0.56433,-0.98226 0.16766,-0.28678 0.34173,-0.57356 0.5154,-0.85713 C 73.2874,19.442396 105.13831,-4.1455078e-6 141.53396,-4.1455078e-6 165.1128,-4.1455078e-6 186.78807,8.1593559 203.8817,21.809226 M 54.71416,50.344736 c 0.35376,-0.61608 0.71354,-1.22934 1.07973,-1.8394 -0.17407,0.28397 -0.34774,0.57035 -0.5154,0.85713 -0.18891,0.32648 -0.38103,0.65578 -0.56433,0.98227 z"
     id="path3" /><path
     d="m 48.44313,99.999956 c 0,-16.37367 4.22467,-31.75946 11.64603,-45.12897 0.35697,-0.67423 0.73198,-1.34806 1.12545,-2.01307 0.36901,-0.62851 0.75325,-1.24739 1.14672,-1.84862 16.41338,-26.47631 45.73582,-44.1037901 79.17303,-44.1037901 22.79792,0 43.67984,8.1930601 59.86179,21.7940001 l 39.97096,-0.0425 -18.79906,25.4788 c 7.68046,13.53717 12.06396,29.18808 12.06396,45.86377 0,51.415244 -41.682,93.094444 -93.09725,93.094444 -22.80072,0 -43.68906,-8.19907 -59.87702,-21.80642 H 41.63784 L 60.46097,145.78714 C 52.80778,132.2688 48.44313,116.64557 48.44313,99.999956"
     id="path5"
     style="fill:#ffffff" /><path
     d="m 215.91518,143.64009 c -11.5971,19.69268 -36.95718,26.24768 -56.64344,14.64738 -19.68667,-11.5971 -27.3551,-39.29031 -9.81586,-63.302334 1.7692,-2.42218 44.01233,-59.39211 44.01233,-59.39211 h 34.3156 l -35.10574,47.5692 c 2.94038,0.92732 5.8198,2.19636 8.58973,3.8312 19.68626,11.5975 26.24769,36.960394 14.64738,56.646664 m -21.84012,-20.68338 c 0,-7.58901 -6.15552,-13.74172 -13.74453,-13.74172 -7.58901,0 -13.74453,6.15231 -13.74453,13.74172 0,7.59222 6.15552,13.74453 13.74453,13.74453 7.58901,-4e-4 13.74453,-6.15271 13.74453,-13.74453 z"
     id="path7" /><path
     d="m 218.04737,60.261226 -14.92213,20.22052 c 0.47289,0.25629 0.93654,0.52141 1.40341,0.79295 11.7435,6.9212 19.48532,18.0422 22.43173,30.325974 0.50938,-3.79431 0.7749,-7.66522 0.7749,-11.60031 -4e-4,-14.333734 -3.4991,-27.849244 -9.68791,-39.739134 z"
     id="path9"
     style="fill:#179d33" /><path
     d="m 56.01048,89.183776 c -0.44842,3.54162 -0.67423,7.15303 -0.67423,10.81618 0,14.302844 3.48025,27.791084 9.6482,39.662924 l 14.71156,-19.93655 c -0.46968,-0.25308 -0.93053,-0.5186 -1.39419,-0.79014 -11.5634,-6.8113 -19.24386,-17.69446 -22.29134,-29.752414 z"
     id="path11"
     style="fill:#179d33" /><path
     d="m 67.14432,56.353816 c 11.59389,-19.68948 36.95717,-26.24448 56.64665,-14.64739 19.68667,11.59991 27.3547,39.29353 9.81586,63.302334 -1.77201,2.42499 -44.01234,59.39492 -44.01234,59.39492 h -34.316 l 35.10535,-47.5692 c -2.94039,-0.92732 -5.81981,-2.20238 -8.58973,-3.8312 C 62.10824,101.40618 55.54722,76.043286 67.14432,56.353816 m 21.84292,20.68377 c 0,7.58902 6.15231,13.74132 13.74453,13.74132 7.58901,0 13.74132,-6.1523 13.74132,-13.74132 0,-7.59222 -6.15231,-13.74453 -13.74132,-13.74453 -7.59222,0 -13.74453,6.15271 -13.74453,13.74453 z"
     id="path13" /><path
     d="m 141.53396,13.802646 c 17.98445,0 34.67859,5.50575 48.49932,14.92212 -0.45764,0.60685 -14.15043,18.93584 -26.0311,34.89799 -4.46573,5.99989 -9.81866,13.2564 -13.85723,18.71363 2.05277,-17.83805 -6.39658,-36.86573 -22.85889,-46.56568 -11.65525,-6.86625 -25.02156,-8.27527 -37.12202,-4.99637 14.34576,-10.66376 32.12284,-16.97169 51.36992,-16.97169"
     id="path15"
     style="fill:#179d33" /><path
     d="m 141.56765,186.18243 c -17.98164,0 -34.67859,-5.50575 -48.49331,-14.92815 0.45123,-0.60404 14.14683,-18.93302 26.0279,-34.89517 4.46252,-5.99669 9.92575,-13.47299 13.96392,-18.92981 -2.05277,17.83804 6.28988,37.08512 22.74899,46.77905 11.65525,6.86905 25.02156,8.28129 37.12483,5.00238 -14.34496,10.66377 -32.12205,16.9717 -51.37233,16.9717"
     id="path17"
     style="fill:#179d33" /></svg>