<?xml version="1.0" encoding="UTF-8" standalone="no"?>
<!-- Created with Inkscape (http://www.inkscape.org/) -->

<svg
   xmlns:dc="http://purl.org/dc/elements/1.1/"
   xmlns:cc="http://creativecommons.org/ns#"
   xmlns:rdf="http://www.w3.org/1999/02/22-rdf-syntax-ns#"
   xmlns:svg="http://www.w3.org/2000/svg"
   xmlns="http://www.w3.org/2000/svg"
   version="1.1"
   width="280"
   height="200"
   id="svg5817">
  <defs
     id="defs5819" />
  <path
     d="M 38,100.00033 C 38,44.77116 82.771155,0 137.99967,0 193.23017,0 238,44.77116 238,100.00033 238,155.23017 193.23017,200 137.99967,200 82.771155,200 38,155.23017 38,100.00033"
     id="path4948"
     style="fill:#ffffff;fill-opacity:1;fill-rule:nonzero;stroke:none" />
  <path
     d="m 40.584478,100.00033 c 0,-53.801923 43.613832,-97.415757 97.415092,-97.415757 53.80225,0 97.41575,43.613834 97.41575,97.415757 0,53.80159 -43.6135,97.41507 -97.41575,97.41507 -53.80126,0 -97.415092,-43.61348 -97.415092,-97.41507"
     id="path4952"
     style="fill:#004f9f;fill-opacity:1;fill-rule:nonzero;stroke:none" />
  <path
     d="m 43.168989,100.00033 c 0,-52.37467 42.456509,-94.83151 94.830511,-94.83151 52.375,0 94.83151,42.45684 94.83151,94.83151 0,52.374 -42.45651,94.83054 -94.83151,94.83054 -52.374002,0 -94.830511,-42.45654 -94.830511,-94.83054"
     id="path4956"
     style="fill:#ffffff;fill-opacity:1;fill-rule:nonzero;stroke:none" />
  <path
     d="m 223.44396,99.56526 c -1.40869,-0.0242 -2.57496,0.98985 -2.59751,2.25628 -0.0215,1.26709 1.10891,2.32095 2.51726,2.34582 1.40769,0.0242 2.5743,-0.98986 2.59685,-2.25695 0.0215,-1.26642 -1.10891,-2.32028 -2.5166,-2.34515 m -16.15315,7.54763 11.40113,5.52299 -12.5485,1.73001 0.38235,3.83011 17.51868,-2.98583 0.53324,-3.37016 -15.7396,-8.25148 -1.5473,3.52436 z m 13.11636,15.61123 c -1.34568,-0.41087 -2.74641,0.24207 -3.11782,1.45411 -0.36941,1.21138 0.42646,2.5355 1.77313,2.94736 1.34634,0.41186 2.74707,-0.24207 3.11748,-1.45345 0.37074,-1.21104 -0.42612,-2.5355 -1.77279,-2.94802 m -10.07956,11.46572 c -0.47222,-0.21024 -2.16144,-1.6428 -1.55227,-3.01169 0.57866,-1.29926 1.71343,-1.1623 1.71343,-1.1623 0.52892,1.42394 0.57535,2.52091 -0.16116,4.17399 m 4.93139,-0.12568 c -0.63172,1.41697 -2.1694,1.26974 -2.4579,1.14141 1.40835,-3.16424 0.87512,-5.92192 -1.40769,-8.49422 -2.72087,-0.38965 -4.92608,0.60883 -5.97729,2.97024 -1.35596,3.04717 0.95736,6.5397 4.29138,8.02333 3.33302,1.48329 7.49673,0.81908 8.8318,-2.17968 1.29328,-2.90591 -0.38567,-5.49215 -0.38567,-5.49215 l -2.87838,1.09598 c 0,0 0.80382,1.09299 -0.0163,2.93509 m -20.16527,14.25603 c 0.64,0.57734 0.54716,1.53768 0.0292,2.11402 -0.5193,0.57634 -1.44815,0.74878 -2.08915,0.17244 -0.64001,-0.57734 -0.56507,-1.51812 -0.0464,-2.09446 0.51963,-0.577 1.46539,-0.76934 2.10639,-0.192 m 5.96336,4.32653 c 0.9819,0.88308 0.83998,2.28646 0.0438,3.16921 -0.77796,0.86517 -2.18034,1.13477 -3.14102,0.26993 -0.96034,-0.86583 -0.83997,-2.28812 -0.062,-3.15229 0.7962,-0.88408 2.17704,-1.17258 3.15926,-0.28685 m -6.5964,1.22763 c -0.63438,1.86332 -0.25932,3.76544 1.36259,5.22752 2.49835,2.24832 6.23727,1.23094 8.05351,-0.78559 2.00724,-2.22876 2.41644,-5.8609 -0.0776,-8.07241 -1.6229,-1.46108 -3.60959,-1.61528 -5.37674,-0.76934 0.36178,-1.51878 0.0527,-2.97886 -1.22763,-4.13254 -2.15613,-1.94192 -5.23515,-1.26974 -6.98241,0.67118 -1.74891,1.93992 -2.11136,5.09123 0.0441,7.03314 1.28267,1.15368 2.71092,1.32678 4.20416,0.82804 m -6.28827,7.42258 c 0.77961,1.03198 0.385,2.2271 -0.54351,2.92813 -0.92984,0.6997 -2.18731,0.74877 -2.96626,-0.2832 -0.77796,-1.03297 -0.38434,-2.22876 0.54516,-2.92912 0.92884,-0.70036 2.18665,-0.74977 2.96461,0.28419 m 4.03173,-0.88043 c -3.11251,-4.12922 -6.57751,-4.2161 -9.09577,-2.31829 -2.39555,1.80496 -3.35988,5.33695 -1.24984,8.13672 2.16144,2.86714 5.14395,2.95867 7.31236,1.32414 1.03197,-0.77694 1.37486,-1.3964 1.73499,-2.20687 0.33161,1.29727 0.15354,3.1228 -0.0756,4.19453 -0.32399,1.5032 -1.04424,3.12547 -1.69652,3.97674 l 3.60361,0.701 c 2.36937,-3.94287 2.632,-9.6091 -0.53322,-13.80797 m -18.07331,4.95537 c 0.4039,0.76066 -0.0113,1.63246 -0.69605,1.99526 -0.68412,0.36447 -1.61628,0.20927 -2.02117,-0.55146 -0.40391,-0.76074 -0.0119,-1.62027 0.67283,-1.98403 0.68478,-0.36511 1.63949,-0.22151 2.04439,0.54023 m 4.12391,6.1036 c 0.62045,1.1666 0.008,2.43633 -1.04225,2.9948 -1.02799,0.54613 -2.43635,0.31966 -3.04286,-0.82274 -0.60818,-1.14173 -0.008,-2.43633 1.01904,-2.98186 1.05021,-0.55907 2.44596,-0.35747 3.06607,0.8098 m -6.61796,-1.10094 c -1.23359,1.53334 -1.5327,3.4494 -0.50736,5.3774 1.57814,2.96794 5.43942,3.29027 7.83597,2.01587 2.64758,-1.40833 4.27579,-4.68133 2.68804,-7.61013 -1.02534,-1.929 -2.84025,-2.7534 -4.78913,-2.56307 0.85987,-1.30353 1.06912,-2.78087 0.25932,-4.3023 -1.36292,-2.56302 -4.4857,-2.9845 -6.79106,-1.75853 -2.3047,1.22596 -3.72532,4.0629 -2.3624,6.6243 0.80913,1.52306 2.0928,2.17433 3.66662,2.21646 m -2.82055,11.433 -4.30332,-12.49513 -3.47163,1.1948 4.30232,12.49513 3.47263,-1.1948 z m -21.61073,5.1294 -1.16827,-13.33706 3.86393,-0.3366 -0.33526,-3.8354 -11.43461,0.99846 0.33426,3.83447 3.86393,-0.33593 1.16628,13.33606 3.70974,-0.324 z m -19.89465,-13.5824 1.48794,0.18267 c 2.1044,0.25767 3.25708,2.54153 3.04717,4.889 -0.22848,2.49073 -1.9764,4.85213 -4.20947,4.5772 l -1.48794,-0.18273 1.1623,-9.46614 z m 1.9575,-3.63913 -5.18309,-0.63667 -2.10075,17.1088 5.18341,0.63634 c 4.20848,0.518 7.97824,-3.24414 8.42359,-7.93674 0.42911,-4.5504 -2.24335,-8.67033 -6.32316,-9.17173 m -14.60283,2.18313 -0.25236,5.29587 -2.65554,-0.86353 2.9079,-4.43234 z m -7.08985,10.77574 1.98403,-3.01007 4.67207,1.5198 -0.16448,3.60093 3.82514,0.2766 -0.0667,-17.784 -3.00008,-0.97526 -10.5071,14.34653 3.25708,2.02547 z m -9.08853,-4.5694 6.2847,-11.8206 3.42421,1.8222 1.80728,-3.39872 -10.13569,-5.39134 -1.80695,3.39869 3.42388,1.82021 -6.28436,11.82062 3.28693,1.74894 z m -10.819676,-16.56845 0.616796,1.54465 c 0.49675,1.27338 0.87346,2.27686 0.26861,3.08 -0.67417,0.895 -1.781088,0.81673 -2.482777,0.28753 -0.826044,-0.6228 -1.219334,-1.81858 -1.130463,-3.01072 l -3.570457,1.08636 c -0.09153,2.26923 1.070109,3.86463 2.453259,4.90683 2.229754,1.68093 5.753458,1.38713 7.620758,-1.09134 1.3659,-1.81186 1.35728,-3.90503 0.54815,-5.88242 l -0.61646,-1.54465 c -0.43872,-1.05021 -0.87413,-2.06063 -0.28652,-2.84191 0.58795,-0.77962 1.46307,-0.47918 2.20588,0.0809 0.68146,0.51333 0.92818,1.13112 1.01208,2.09346 l 3.29456,-0.93382 c -0.10612,-1.8799 -0.81311,-3.13174 -2.29973,-4.25258 -1.85835,-1.40139 -5.37442,-1.46108 -7.10311,0.83334 -1.522093,2.01918 -1.192141,4.03073 -0.530576,5.64435 m -17.983837,-6.63351 2.2271,2.6552 9.968895,-4.92342 -8.016369,8.14536 2.987154,2.35378 11.155403,-13.20874 -2.226773,-2.65521 -10.712698,5.37773 7.157164,-9.61705 -2.227101,-2.65421 -14.944057,8.69152 1.798659,3.35126 9.412451,-6.48001 -6.579828,8.96379 z m -1.80748,-20.4443 3.399346,-1.80662 0.278885,0.52461 c 0.81311,1.52939 0.509023,2.36571 -0.607181,2.95864 -1.116202,0.59358 -2.25794,-0.14657 -2.791834,-1.15103 l -0.279216,-0.5256 z m -0.542516,4.9158 c 1.676626,1.01208 3.711392,0.98556 5.385697,0.0955 3.069393,-1.63252 3.70277,-5.33761 2.233733,-8.1006 l -2.026476,-3.81319 -15.219295,8.0923 1.747259,3.2876 5.022583,-2.6698 0.267279,0.50305 -3.466664,6.82124 3.139364,2.04969 2.91652,-6.2658 z m -2.091638,-18.17255 -4.482056,2.82997 -0.816095,-2.67047 5.298151,-0.1595 z m -12.893042,0.37207 3.603619,-0.10148 1.435876,4.6986 -3.044191,1.93064 1.967118,3.29356 14.529212,-10.2564 -0.922211,-3.017 -17.778338,-0.37804 0.208915,3.83012 z m 11.351316,-17.13256 0.130323,1.4949 c 0.184707,2.11203 -1.809602,3.71372 -4.149782,3.99624 -2.483105,0.29547 -5.155891,-0.92519 -5.351873,-3.16588 l -0.130323,-1.49392 9.501655,-0.83134 z m 3.965406,1.15964 -0.454307,-5.20364 -17.171915,1.50087 0.454308,5.20331 c 0.369083,4.22506 4.833232,7.13163 9.515582,6.59243 4.539425,-0.52659 8.014047,-3.99757 7.656239,-8.09297"
     id="path5028"
     style="fill:#004f9f;fill-opacity:1;fill-rule:evenodd;stroke:none" />
  <path
     d="m 199.23923,66.51553 2.19162,3.50778 14.61542,-9.1329 -2.19095,-3.50812 -8.28232,5.17579 5.14561,-10.19439 -2.19162,-3.508117 -14.61444,9.133237 2.19096,3.50844 8.28232,-5.17545 -5.1466,10.19373 z m 3.96723,-23.714017 -2.86115,-3.0674 -12.60288,11.752637 2.86015,3.06706 12.60388,-11.752297 z m -20.95342,-1.261013 1.97011,-2.614753 4.01481,3.025286 2.31663,-3.073706 -4.01481,-3.02562 1.45179,-1.926994 4.70192,3.544594 2.31763,-3.0737 -8.00609,-6.033667 -10.37147,13.762853 8.23423,6.206767 2.3173,-3.074367 -4.93205,-3.716693 z m -11.97143,-13.681387 1.62722,-3.488546 0.5979,0.279546 c 1.74394,0.81278 2.06328,1.69122 1.53005,2.836607 -0.53489,1.145053 -2.01056,1.18584 -3.15628,0.651613 l -0.59889,-0.27922 z m 2.93609,4.44326 c 2.11667,-0.122366 3.81883,-1.32512 4.61934,-3.043526 1.46871,-3.14964 -0.55412,-6.628574 -3.70376,-8.097614 l -4.34709,-2.027466 -7.28218,15.61988 3.74753,1.748253 2.40352,-5.154233 0.57303,0.266946 1.77975,7.738807 4.07053,-0.09815 -1.86067,-6.952894 z m -18.88847,-3.71222 0.79155,-3.177166 4.87701,1.216346 0.93149,-3.7346 -4.877,-1.216353 0.5833,-2.341507 5.71433,1.425267 0.93116,-3.734607 -9.72715,-2.4264 -4.16968,16.722494 10.00537,2.4957 0.9315,-3.7346 -5.99188,-1.494574 z m -10.56285,-15.70852 -4.28939,12.048094 -3.86658,-12.19102 -4.1531,0.903973 6.02537,16.940687 3.79065,0.066 6.612,-16.718507 -4.11895,-1.04922 z m -17.5031,18.54794 -2.55573,-13.1391 4.2297,-0.82206 -0.73484,-3.777713 -12.51866,2.433027 0.73485,3.77838 4.22904,-0.822394 2.55506,13.139094 4.06058,-0.789234 z m -20.41299,-3.7421 -1.44184,-3.5688 0.61215,-0.24738 c 1.78407,-0.72092 2.64427,-0.35582 3.11781,0.816094 0.47354,1.171913 -0.50405,2.279166 -1.67563,2.752706 l -0.61249,0.24738 z m 5.2514,0.883414 c 1.35463,-1.631527 1.63517,-3.6968 0.92519,-5.45434 -1.30257,-3.222267 -5.22586,-4.115627 -8.44812,-2.814054 l -4.44757,1.796667 6.45647,15.979353 3.83541,-1.54962 -2.13126,-5.272953 0.58596,-0.236767 6.87363,3.97668 2.70429,-3.04386 -6.354,-3.381106 z M 89.08387,38.69216 c -1.688566,-2.3236 -2.407831,-4.925753 -0.38567,-6.394793 2.02151,-1.46904 4.27414,0.01887 5.9627,2.343166 1.68857,2.3236 2.40783,4.925754 0.38567,6.394787 -2.0215,1.468373 -4.27414,-0.01953 -5.9627,-2.34316 m -2.614756,-9.462193 c -3.76445,2.735126 -3.513421,8.16294 -0.778291,11.926726 2.735457,3.765114 7.820057,5.68116 11.584837,2.946034 3.76478,-2.735134 3.51375,-8.162614 0.77829,-11.92706 -2.73546,-3.76478 -7.82005,-5.6805 -11.584836,-2.9457 M 74.453515,46.203053 74.895553,45.7116 c 0.980242,-1.088013 2.658195,-1.664353 3.746874,-0.68444 1.089011,0.98024 0.69141,2.709593 -0.288502,3.798273 l -0.442369,0.49078 -3.458041,-3.11316 z m -2.418772,-3.06608 -3.209664,3.564487 12.809476,11.53079 2.766964,-3.07338 -3.629153,-3.26736 0.442369,-0.49078 c 2.478794,-2.753703 2.987816,-7.01093 0.233786,-9.490057 -2.754031,-2.478793 -6.934321,-1.5274 -9.413778,1.2263 m -3.071681,20.295137 1.552272,-0.91028 c 1.281345,-0.73783 2.291101,-1.30389 3.153291,-0.78624 0.960346,0.577 0.94476,1.77378 0.442037,2.6111 -0.591926,0.98488 -1.799322,1.59936 -3.030926,1.69719 l 1.328103,3.64606 c 2.34018,-0.2696 3.91268,-1.7708 4.903534,-3.42057 1.597703,-2.65886 1.087353,-6.38318 -1.572168,-7.98055 -1.9449,-1.1686 -4.09772,-0.82041 -6.083739,0.3661 l -1.552272,0.90961 c -1.054523,0.64034 -2.069917,1.27007 -2.906903,0.76701 -0.837318,-0.50272 -0.580652,-1.48793 -0.04808,-2.37433 0.488463,-0.81212 1.109239,-1.17656 2.094456,-1.42228 l -1.155665,-3.37481 c -1.926661,0.41783 -3.173519,1.37718 -4.238323,3.14997 -1.331087,2.21616 -1.18551,5.9889 1.276704,7.46822 2.166747,1.3019 4.216436,0.62343 5.837682,-0.3462"
     id="path5076"
     style="fill:#004f9f;fill-opacity:1;fill-rule:evenodd;stroke:none" />
  <path
     d="m 220.88787,82.43141 c -0.39462,-1.85471 -2.23374,-3.0495 -4.08778,-2.65522 -1.85403,0.39429 -3.04883,2.23374 -2.6552,4.08844 0.39461,1.85437 2.23472,3.0495 4.08776,2.65488 1.85504,-0.39396 3.04984,-2.23374 2.65522,-4.0881 M 54.921652,81.13199 c -0.458618,1.83944 0.671513,3.72001 2.51096,4.1783 1.839447,0.45894 3.720014,-0.67085 4.178633,-2.5103 0.458618,-1.83978 -0.671182,-3.72001 -2.510629,-4.17863 -1.839779,-0.45829 -3.720014,0.67118 -4.178964,2.51063"
     id="path5080"
     style="fill:#004f9f;fill-opacity:1;fill-rule:evenodd;stroke:none" />
  <path
     d="m 73.594479,99.88317 c 0,-35.80438 29.024601,-64.829317 64.828991,-64.829317 35.80538,0 64.82965,29.024937 64.82965,64.829317 0,35.80572 -29.02427,64.82966 -64.82965,64.82966 -35.80439,0 -64.828991,-29.02394 -64.828991,-64.82966 m 32.213701,42.89424 c 0.88474,0.47619 1.53669,-0.35682 2.53517,-0.4825 3.50181,-0.44303 4.09706,1.31982 6.72076,0.96566 2.97854,-0.40324 6.16598,-0.88209 9.08681,-3.25808 1.3102,-1.06646 1.97375,-1.79966 2.91519,-3.20237 1.24488,-1.85636 1.6627,-3.41759 2.20456,-5.29119 0.52295,-1.81093 0.32232,-5.99686 1.81092,-5.9564 1.65773,0.0447 1.36392,3.88284 1.12682,6.3991 -0.17476,1.85736 -1.40835,5.63341 -2.49471,7.96796 -0.7763,1.668 -3.08531,9.8127 1.02932,14.4861 1.66701,1.89383 6.13381,7.16612 7.70432,7.16612 1.28731,0 3.66165,-2.65588 5.07001,-4.26618 1.78506,-2.03908 3.07038,-3.06508 4.06986,-5.55914 0.62708,-1.56818 1.01805,-2.5733 0.96035,-4.22074 -0.17576,-5.10847 -1.34734,-7.75174 -2.68937,-10.52302 -0.73054,-1.51016 -0.97792,-2.88966 -1.21403,-4.81068 -0.32133,-2.61542 -0.64333,-6.59906 1.08735,-6.59906 1.69122,0 1.16628,3.38044 2.02449,6.5974 0.87711,3.28826 2.19162,6.09236 5.98393,8.53468 2.37532,1.52939 5.71432,2.29342 8.37052,2.49504 1.82552,0.13795 2.63698,-0.88838 4.38656,-0.96565 1.62655,-0.0726 2.99975,0.0319 4.14547,0.48315 1.32843,0.52296 0.9693,-4.03172 -0.72358,-6.3991 -3.94485,-5.51469 -10.19737,-1.70315 -13.80365,-5.67486 -1.04523,-1.15002 -2.13391,-3.11681 -1.44914,-3.9843 0.60288,-0.76503 2.00725,1.40602 3.90075,-1.28268 0.48614,-0.68942 0.38699,-3.66165 -0.60121,-5.63938 -1.40935,-2.81736 -3.31844,-2.39954 -3.17883,-3.42123 0.06,-0.44369 1.56852,-4.18526 3.90339,-7.76733 1.78673,-2.35178 4.06523,-4.66842 6.03632,-5.87548 2.55175,-1.56189 2.39258,-1.8169 5.5137,-2.25363 2.01255,-0.28154 4.86673,0 6.72077,2.01155 1.89184,2.053 2.13292,3.66331 1.73134,7.20492 -0.3084,2.70694 -1.80993,4.85876 -1.28864,7.445 0.28783,1.42924 1.44914,4.74867 3.82314,4.54772 1.44317,-0.12304 -0.21853,-1.8882 2.21417,-5.15158 1.6491,-2.21318 8.08866,-3.4209 10.67755,-7.48812 1.21369,-1.90742 2.68771,-4.22306 2.48277,-8.60995 -0.24208,-5.15091 -2.21914,-8.56319 -6.23893,-11.95259 -4.10435,-3.46103 -11.23067,-5.47988 -19.03481,-3.4209 -2.89994,0.76502 -4.35837,1.50087 -6.89718,2.95498 -5.0899,2.9152 -7.75274,5.05343 -10.97202,10.28559 -2.19858,3.57245 -3.34032,6.31819 -4.22572,9.45755 -1.26212,4.47443 -1.20773,10.03024 -3.66331,9.77954 -1.97176,-0.20162 0.0408,-8.12912 0.44303,-12.63637 0.36344,-4.07053 1.98834,-9.48839 4.34709,-14.16643 2.41479,-4.78946 4.78913,-8.25048 6.27873,-14.1263 0.75706,-2.99048 1.60831,-5.30777 1.12582,-8.9744 -0.40225,-3.05878 -1.31385,-6.30326 -3.27798,-9.83857 -1.9134,-3.44245 -3.80424,-4.89127 -6.5019,-7.42643 -3.4776,-3.271017 -5.29815,-6.25883 -7.20292,-8.854017 -3.22028,-4.386553 -2.25463,-4.346426 -5.27163,-0.08091 -1.98735,2.807747 -2.89895,3.904053 -4.73275,6.217047 -2.03344,2.56268 -4.53346,4.28972 -6.21407,6.25916 -1.40935,1.65042 -3.42322,4.31624 -4.62431,7.55542 -1.31882,3.55686 -1.5337,7.09383 -1.37254,9.62933 0.15353,2.42143 1.59306,7.82039 3.49982,12.14194 0.6032,1.36856 4.02178,6.60702 5.76274,11.2005 1.90046,5.01463 2.48907,7.76699 3.2531,13.36095 0.47222,3.45439 1.75655,9.52718 0.0405,9.77954 -2.73612,0.40258 -1.64976,-3.74323 -3.66198,-9.65884 -1.29494,-3.80524 -2.00923,-6.08075 -4.22639,-9.45755 -3.89078,-5.92987 -6.6803,-8.29028 -13.8441,-11.79242 -1.78605,-0.87247 -6.18487,-3.08365 -14.16576,-2.01155 -2.69633,0.36211 -7.606496,2.29408 -10.544239,5.39298 -2.120322,2.23573 -3.231883,4.13354 -3.943852,7.28384 -1.208722,5.34657 -0.345207,9.81337 3.541276,13.60336 3.219612,3.13836 7.646295,3.50115 9.417095,6.11656 2.04073,3.01435 0.36444,5.49281 2.65654,4.66843 0.81012,-0.29116 1.53735,-1.07509 2.17304,-2.05201 1.07641,-1.65508 0.93979,-3.01866 0.84528,-4.99075 -0.0948,-1.96579 -1.16959,-2.91022 -1.31351,-4.87336 -0.18405,-2.51494 -0.36809,-4.32222 1.10128,-6.37191 1.97143,-2.74706 4.87767,-3.27698 8.21931,-2.76099 2.18101,0.33592 3.25145,1.25946 5.07697,2.50101 2.14486,1.45842 2.75801,2.14088 4.81433,4.59016 2.35079,2.7998 3.15594,5.584 4.10336,7.42676 1.49656,2.91288 -0.86054,1.1235 -2.35112,4.10436 -0.76901,1.53668 -1.40538,2.85052 -1.12251,4.67008 0.82306,5.2955 3.92296,1.604 4.33416,2.98151 0.0637,0.21223 -0.008,1.81955 -1.23459,3.32473 -3.3181,4.07219 -7.6894,1.45943 -12.09253,4.14017 -3.35557,2.04372 -4.14249,7.83564 -3.09593,8.39905"
     id="path4960"
     style="fill:#004f9f;fill-opacity:1;fill-rule:nonzero;stroke:none" />
  <metadata
     id="metadata6460">
    <rdf:RDF>
      <cc:Work
         rdf:about="">
        <dc:format>image/svg+xml</dc:format>
        <dc:type
           rdf:resource="http://purl.org/dc/dcmitype/StillImage" />
        <dc:title></dc:title>
      </cc:Work>
    </rdf:RDF>
  </metadata>
</svg>
