<?xml version="1.0" encoding="UTF-8" standalone="no"?>
<svg
   xmlns:dc="http://purl.org/dc/elements/1.1/"
   xmlns:cc="http://creativecommons.org/ns#"
   xmlns:rdf="http://www.w3.org/1999/02/22-rdf-syntax-ns#"
   xmlns:svg="http://www.w3.org/2000/svg"
   xmlns="http://www.w3.org/2000/svg"
   version="1.1"
   id="svg2"
   viewBox="0 0 53.300512 56.444451"
   style="clip-rule:evenodd;fill-rule:evenodd;image-rendering:optimizeQuality;shape-rendering:geometricPrecision;text-rendering:geometricPrecision"
   height="56.44445mm"
   width="53.30051mm"
   xml:space="preserve"><metadata
     id="metadata38"><rdf:RDF><cc:Work
         rdf:about=""><dc:format>image/svg+xml</dc:format><dc:type
           rdf:resource="http://purl.org/dc/dcmitype/StillImage" /><dc:title></dc:title></cc:Work></rdf:RDF></metadata><defs
     id="defs4"><style
       id="style6"
       type="text/css"><![CDATA[
    .fil0 {fill:#005CA9;fill-rule:nonzero}
    .fil1 {fill:white;fill-rule:nonzero}
   ]]></style></defs><g
     transform="matrix(1.1288152,0,0,1.1288152,-0.56429472,-0.56071974)"
     id="Ebene_x0020_1"><metadata
       id="Brennpeter-Layer" /><g
       id="_39253544"><path
         style="fill:#005ca9;fill-rule:nonzero"
         d="M 47.718,6.5619 C 47.1869,21.9719 41.1263,35.887 29.3221,45.9722 L 29.1969,46.115 C 27.3565,47.5954 25.6094,49.276 23.6161,50.5 14.5645,44.4438 6.8373,34.7638 3.5944,24.7204 1.6808,18.9021 0.6642,12.8055 0.4999,6.4442 L 0.7464,6.301 C 11.1751,0.7552 24.5237,-1.1419 36.2379,2.0365 40.2533,3.1109 44.106,4.6133 47.718,6.5619 Z"
         class="fil0"
         id="_41072160" /><path
         style="fill:#ffffff;fill-rule:nonzero"
         d="m 46.5155,7.1908 c -0.5636,16.3288 -8.2294,31.2461 -21.6107,40.82 l -1.3049,0.9403 C 21.5625,47.7676 19.7275,46.0791 17.9304,44.4881 7.1506,34.7291 2.1141,21.4908 1.73,7.1247 11.6232,2.1191 23.7036,0.1378 34.8951,2.9177 c 4.0364,0.9766 7.9291,2.4206 11.6204,4.2731 z"
         class="fil1"
         id="_41072624" /><path
         style="fill:#005ca9;fill-rule:nonzero"
         d="m 45.3923,7.7619 c 0.1256,2.1733 -0.2371,4.2813 -0.462,6.3715 -1.5387,10.563 -6.2119,20.0251 -13.9903,27.7218 -2.2419,2.1593 -4.8203,4.1384 -7.2913,5.9426 L 23.2899,47.6185 C 10.4805,38.8874 3.4768,24.7188 3.0035,9.7642 L 2.9346,7.7478 C 10.1515,3.8001 18.3585,1.764 26.9997,2.2776 33.5485,2.6835 39.7999,4.7479 45.3923,7.7619 Z"
         class="fil0"
         id="_41073448" /><path
         style="fill:#ffffff;fill-rule:nonzero"
         d="m 44.2476,8.4498 0.1632,0.0995 C 43.7893,19.3014 40.2735,29.3481 33.3291,37.5255 31.4128,36.0703 29.6008,34.1664 27.9242,32.3428 20.9357,24.3004 17.4919,14.6451 16.7795,4.1288 17.6652,3.7696 18.6439,3.7246 19.6238,3.6214 28.3244,2.6683 36.8296,4.4707 44.2476,8.4498 Z"
         class="fil1"
         id="_41073312" /><path
         style="fill:#ffffff;fill-rule:nonzero"
         d="m 17.0257,10.2561 c 0.0371,0.1181 0.0354,0.2352 -0.1021,0.2725 -0.391,-0.0054 -0.6681,0.2056 -0.8874,0.5157 l -0.2998,0.4456 -4.2759,10.4072 c -0.157,0.0367 -0.294,0.0541 -0.4303,-0.0062 L 6.4483,11.065 C 6.1605,10.6896 5.7326,10.5071 5.3424,10.4237 5.3626,10.365 5.3453,10.2085 5.4237,10.2094 l 5.576,8e-4 c 0.0186,0.0784 0.0759,0.1771 -0.0033,0.2345 -0.4919,0.1887 -1.1927,-0.0557 -1.4549,0.5079 l 0.1054,0.8428 c 0.8506,2.1052 1.7207,4.2305 2.6498,6.318 l 0.1796,-0.2325 2.1295,-5.3306 c 0.1639,-0.5067 0.5831,-1.1071 0.2969,-1.6196 -0.3663,-0.3773 -0.8552,-0.4038 -1.3825,-0.4699 l 0.0034,-0.2349 c 1.1557,-0.0814 2.3483,-0.0252 3.5021,0.0302 z"
         class="fil1"
         id="_41091208" /><path
         style="fill:#005ca9;fill-rule:nonzero"
         d="m 31.9871,10.6829 c 0.0322,0.4898 -0.0343,1.0366 0.0373,1.5268 0.239,-0.3098 0.6322,-0.4217 1.0025,-0.3383 0.2143,0.0619 0.427,0.2412 0.4431,0.4956 l 0.0318,1.8982 c 0.0173,0.1763 0.313,0.0046 0.2119,0.2379 l -1.3306,8e-4 c -0.0946,-0.2168 0.2165,-0.0756 0.1995,-0.2713 l 0.0062,-1.8194 c -0.0371,-0.1177 -0.1541,-0.1784 -0.2514,-0.1797 -0.1574,0.0373 -0.3155,0.1719 -0.3568,0.3081 0.0111,0.5872 -0.076,1.212 0.0333,1.781 0.0579,0.0789 0.2152,0.0029 0.1545,0.1586 l -1.3498,-0.019 c -0.0174,-0.1569 0.2947,-0.0937 0.2588,-0.3097 l 0.0248,-3.1495 c 0.0025,-0.1565 -0.154,-0.1779 -0.2316,-0.2185 l 0.0214,-0.1168 1.0951,0.0152 z"
         class="fil0"
         id="_69578152" /><path
         style="fill:#005ca9;fill-rule:nonzero"
         d="m 24.4081,11.2016 c 0.0942,0.256 0.0318,0.5097 -0.0888,0.7425 -0.1796,0.2515 -0.4554,0.3848 -0.7503,0.4588 0.1169,0.0603 0.2924,0.0825 0.4287,0.1433 0.273,0.0822 0.5041,0.32 0.6181,0.576 0.1123,0.3539 0.0095,0.6851 -0.2288,0.9357 -0.9088,0.6331 -2.215,0.3014 -3.351,0.3638 l 0.0018,-0.0978 c 0.1762,-0.0368 0.4892,-0.0322 0.4736,-0.3065 l 0.0429,-3.0321 c -0.057,-0.1181 -0.1536,-0.1978 -0.2708,-0.2189 -0.0781,-0.0013 -0.2351,0.0359 -0.1941,-0.1008 l 8e-4,-0.0387 c 0.8407,0.0115 1.9378,-0.0703 2.8154,0.1181 0.1949,0.0809 0.427,0.2406 0.5025,0.4566 z"
         class="fil0"
         id="_41074016" /><path
         style="fill:#ffffff;fill-rule:nonzero"
         d="m 23.2371,10.9897 c 0.1907,0.3548 0.1844,0.7851 0.023,1.1352 -0.1594,0.1933 -0.4141,0.2289 -0.6483,0.1863 l 0.0397,-1.4081 c 0.1775,-0.1148 0.4508,-0.0718 0.5856,0.0866 z"
         class="fil1"
         id="_41074184" /><path
         style="fill:#005ca9;fill-rule:nonzero"
         d="m 41.1836,12.0457 0.1524,0.2957 0.0504,1.9568 c -0.0028,0.1958 0.3134,-0.0148 0.2317,0.2384 -0.4307,0.0135 -0.9391,-0.0133 -1.3892,-0.0195 -0.0756,-0.197 0.2944,-0.0743 0.2392,-0.3097 l 0.0049,-1.7215 c -0.0181,-0.0983 -0.0751,-0.2164 -0.2122,-0.2185 -0.1759,-0.0025 -0.3346,0.152 -0.4151,0.3072 l -0.0243,1.7018 c -0.003,0.2151 0.2935,0.0041 0.2316,0.2383 l -1.3309,0.0201 0.0021,-0.1371 c 0.0971,0.0405 0.216,-0.0557 0.2172,-0.1532 l 0.0058,-1.7999 c -0.0178,-0.1178 -0.1536,-0.1784 -0.2515,-0.1797 -0.1565,-0.002 -0.3155,0.152 -0.3758,0.2883 l -0.0049,1.7215 c 0.0165,0.2152 0.2932,0.0041 0.192,0.2568 l -1.3499,9e-4 c -0.0388,-0.0401 -0.0181,-0.0983 -0.0178,-0.1375 0.2341,0.0425 0.2962,-0.1912 0.2797,-0.3874 l 0.0057,-1.7999 c -0.038,-0.0785 -0.1351,-0.1387 -0.2329,-0.14 l -0.0195,-5e-4 0.0018,-0.1172 1.1153,-0.0037 c 0.0181,0.0978 -0.0231,0.2341 0.0145,0.3522 0.2593,-0.3485 0.7114,-0.4989 1.1207,-0.3948 0.1953,0.0219 0.3489,0.2396 0.4253,0.3778 0.3576,-0.4058 0.8878,-0.5355 1.3337,-0.2357 z"
         class="fil0"
         id="_69427080" /><path
         style="fill:#005ca9;fill-rule:nonzero"
         d="m 30.5754,12.3067 c 0.056,0.1766 -0.0062,0.4104 -0.2024,0.4666 -0.1181,0.057 -0.2742,0.0157 -0.3906,-0.0451 -0.3106,-0.18 0.0705,-0.8596 -0.479,-0.7106 -0.4167,0.3853 -0.2694,1.0327 -0.1784,1.5431 0.0751,0.1966 0.1895,0.4329 0.403,0.534 0.2919,0.1214 0.6066,0.0082 0.8047,-0.1846 l 0.0768,0.0991 c -0.3187,0.4258 -0.8893,0.6524 -1.4353,0.5079 -0.4286,-0.1235 -0.7359,-0.5384 -0.8081,-0.97 -0.052,-0.4703 0.014,-0.9782 0.3316,-1.3061 0.358,-0.4059 0.9262,-0.4761 1.4139,-0.3518 0.1949,0.0611 0.3886,0.2011 0.4638,0.4175 z"
         class="fil0"
         id="_41074992" /><path
         style="fill:#005ca9;fill-rule:nonzero"
         d="m 35.1391,11.9408 0.0095,2.113 c 0.0173,0.1371 0.1735,0.1788 0.2907,0.1801 0.1177,-0.0178 0.2358,-0.0748 0.3155,-0.1714 -0.0305,-0.607 0.0768,-1.2905 -0.0512,-1.8987 -0.0384,-0.0591 -0.0966,-0.0992 -0.1751,-0.0805 -0.0384,-0.0397 -0.0182,-0.0984 -0.0177,-0.1376 l 1.1352,-0.0033 -0.0113,2.1518 c 0.0186,0.0789 0.076,0.1772 0.1735,0.1983 0.0983,-0.038 0.097,0.0603 0.116,0.0995 l -0.0595,0.0578 c -0.3716,-0.0054 -0.7452,0.1069 -1.0785,0.1611 -0.0773,-0.0599 -0.0368,-0.1768 -0.0351,-0.294 -0.2754,0.1329 -0.5917,0.3435 -0.9622,0.26 -0.1954,-0.0222 -0.4087,-0.1428 -0.4649,-0.3195 -0.1479,-0.6281 -0.0401,-1.3309 -0.0505,-1.9966 0.043,-0.2535 -0.3311,-0.0826 -0.2493,-0.3362 0.3914,-0.014 0.7239,0.0105 1.1149,0.0162 z"
         class="fil0"
         id="_41075176" /><path
         style="fill:#005ca9;fill-rule:nonzero"
         d="m 27.6401,12.3041 c 0.3271,0.4155 0.3568,1.0617 0.1351,1.5279 -0.2222,0.486 -0.7338,0.6941 -1.2038,0.7265 -0.5079,-0.0464 -1.0335,-0.2495 -1.2412,-0.7611 -0.2089,-0.453 -0.1416,-1.0778 0.1379,-1.4655 0.339,-0.4646 0.9865,-0.5922 1.4936,-0.4679 0.2733,0.043 0.5046,0.2812 0.6784,0.4401 z"
         class="fil0"
         id="_41075968" /><path
         style="fill:#ffffff;fill-rule:nonzero"
         d="m 26.8792,12.1762 c 0.0879,0.6858 0.2142,1.4308 -0.0691,2.0923 -0.1382,0.1157 -0.3344,0.1322 -0.4893,0.0322 -0.3051,-0.5719 -0.1181,-1.352 -0.1089,-1.9969 0.0412,-0.1367 0.1609,-0.2916 0.3179,-0.3287 0.1375,-0.0368 0.2725,0.0825 0.3494,0.2011 z"
         class="fil1"
         id="_41076144" /><path
         style="fill:#ffffff;fill-rule:nonzero"
         d="m 23.2912,12.6927 c 0.3481,0.2982 0.2625,0.8057 0.1787,1.1959 -0.0817,0.2531 -0.3369,0.308 -0.5723,0.3634 -0.1565,-0.0021 -0.3518,-0.0438 -0.3097,-0.2584 l 0.0206,-1.4474 c 0.2544,-0.0162 0.4889,0.0066 0.6827,0.1465 z"
         class="fil1"
         id="_41076424" /><path
         style="fill:#ffffff;fill-rule:nonzero"
         d="m 18.8674,18.3623 c 0.17,0.4332 0.3187,0.9833 -5e-4,1.409 -0.299,0.387 -0.925,0.3783 -1.3338,0.2354 -0.175,-0.0611 -0.2903,-0.2193 -0.3464,-0.3965 -0.1496,-0.5103 0.0536,-1.0161 0.3332,-1.4229 0.0623,-0.2734 -0.2704,-0.2386 -0.4455,-0.3196 -0.3523,0.0145 -0.707,0.1858 -0.849,0.5356 l -0.1665,0.702 c 0.0087,0.7635 -0.0024,1.546 0.0059,2.3479 0.5079,0.066 0.8807,-0.007 1.4085,0.0203 0.0359,0.2349 -0.0451,0.41 0.0103,0.6454 -0.3725,0.0536 -1.409,0.0193 -1.409,0.0193 l -0.0433,16.9012 -2.2171,-2.3406 -0.0098,-14.4949 -0.88,-0.0322 -0.029,-0.7239 0.8804,-0.0074 c 0.0157,-1.115 -0.1008,-2.5449 0.8882,-3.3134 0.9502,-0.7689 2.4004,-0.9443 3.508,-0.4005 0.2713,0.18 0.524,0.3208 0.6954,0.6358 z"
         class="fil1"
         id="_41076976" /><path
         style="fill:#005ca9;fill-rule:nonzero"
         d="m 36.6141,18.3396 c 0.0549,0.2553 0.0309,0.5678 -0.1867,0.7408 -0.1589,0.1541 -0.336,0.2301 -0.5133,0.306 0.3887,0.2206 0.8136,0.5984 0.7868,1.1068 -0.0059,0.4108 -0.1487,0.8196 -0.5035,1.01 -0.4336,0.2287 -0.9823,0.28 -1.4691,0.1165 -0.2722,-0.1021 -0.4646,-0.3589 -0.5588,-0.6146 -0.0744,-0.2749 0.0277,-0.5668 0.1285,-0.7808 0.1601,-0.2523 0.4158,-0.346 0.6714,-0.4406 -0.2717,-0.1602 -0.581,-0.3993 -0.6743,-0.7333 -0.0529,-0.4117 0.0124,-0.8805 0.3878,-1.1295 0.5912,-0.3047 1.629,-0.3679 1.9312,0.4187 z"
         class="fil0"
         id="_41077256" /><path
         style="fill:#005ca9;fill-rule:nonzero"
         d="m 33.6335,20.1759 c 0.0967,0.0794 0.2156,-0.0165 0.3324,0.024 l 0.0302,0.6265 -0.3522,0.0149 -0.031,0.782 -0.8412,0.0078 -0.0086,-0.7828 c -0.4497,-0.0261 -0.9585,-0.0137 -1.4082,-0.0397 l 0.0083,-0.5863 1.738,-2.5193 c 0.1954,0.0222 0.3717,-0.0141 0.567,0.0082 l -0.0347,2.4647 z"
         class="fil0"
         id="_41077944" /><path
         style="fill:#005ca9;fill-rule:nonzero"
         d="m 27.641,17.802 c 0.0396,1.3309 -0.1107,2.2873 0.0091,3.4828 0.1928,0.1982 0.4471,0.2019 0.7214,0.1862 l -0.0021,0.1371 c -0.7239,0.009 -1.6625,-0.0235 -2.504,-0.0162 l 0.0016,-0.1173 c 0.2552,-0.0548 0.5084,0.027 0.707,-0.1659 l 0.0825,-0.3316 c -0.0062,-0.9196 0.1033,-1.7596 -0.0416,-2.5833 -0.2119,-0.2375 -0.47,0.0326 -0.7054,0.0685 -0.0185,-0.059 -0.057,-0.0987 -0.0367,-0.1569 l 1.6141,-0.6818 c 0.1178,-0.0376 0.1946,0.081 0.1541,0.1784 z"
         class="fil0"
         id="_41078064" /><path
         style="fill:#005ca9;fill-rule:nonzero"
         d="m 30.866,18.0233 c 0.1537,0.2176 0.2275,0.5121 0.1454,0.785 -0.102,0.292 -0.4176,0.4638 -0.6925,0.5575 0.4654,0.2804 0.8906,0.6582 0.8036,1.283 -0.0455,0.4496 -0.3444,0.8366 -0.7966,0.9671 -0.4711,0.1305 -0.9014,0.1243 -1.3482,-0.1169 -0.2329,-0.1399 -0.3469,-0.3766 -0.4216,-0.6322 -0.0154,-0.2936 0.0466,-0.5079 0.1862,-0.7209 0.1594,-0.1938 0.3955,-0.2882 0.612,-0.3828 -0.3295,-0.2003 -0.7358,-0.5386 -0.6901,-1.0076 0.0435,-0.2927 0.1062,-0.5856 0.3242,-0.7779 0.5145,-0.4035 1.3949,-0.4105 1.8776,0.0457 z"
         class="fil0"
         id="_41078240" /><path
         style="fill:#ffffff;fill-rule:nonzero"
         d="m 35.8522,18.2311 c 0.074,0.3142 0.1074,0.7255 -0.0921,0.9968 -0.2712,-0.18 -0.6017,-0.361 -0.7333,-0.7152 -0.0566,-0.1574 -0.0343,-0.3526 0.0653,-0.4683 0.118,-0.0573 0.1585,-0.1544 0.2955,-0.1524 0.2156,-0.0363 0.4089,0.1425 0.4646,0.3391 z"
         class="fil1"
         id="_40737088" /><path
         style="fill:#ffffff;fill-rule:nonzero"
         d="m 30.2384,18.1323 c 0.1321,0.3341 0.1069,0.7451 -0.0541,1.0555 -0.2916,-0.1412 -0.6793,-0.3811 -0.7524,-0.754 -0.0752,-0.2164 0.0454,-0.4492 0.2424,-0.5443 0.2357,-0.0751 0.4889,0.0265 0.5641,0.2428 z"
         class="fil1"
         id="_69527736" /><polygon
         style="fill:#ffffff;fill-rule:nonzero"
         points="32.775,18.618 32.7531,20.183 31.7551,20.1884 "
         class="fil1"
         id="_69527272" /><path
         style="fill:#ffffff;fill-rule:nonzero"
         d="m 35.9311,20.9713 c -0.0227,0.2147 -0.0648,0.4295 -0.2811,0.5244 -0.1773,0.0557 -0.2946,0.0546 -0.4697,-0.0065 -0.3658,-0.4163 -0.2782,-1.0803 -0.0565,-1.5465 0.3489,0.2394 0.8341,0.5203 0.8073,1.0286 z"
         class="fil1"
         id="_69528032" /><path
         style="fill:#ffffff;fill-rule:nonzero"
         d="m 30.3189,20.7356 c 0.0562,0.196 -0.0057,0.4303 -0.0673,0.6053 -0.1194,0.1354 -0.3354,0.2105 -0.5108,0.1494 -0.1954,-0.0222 -0.2908,-0.1998 -0.3469,-0.3765 -0.1313,-0.3931 -0.0467,-0.842 0.1342,-1.1917 0.3102,0.2197 0.6987,0.4208 0.7908,0.8135 z"
         class="fil1"
         id="_69461744" /><path
         style="fill:#ffffff;fill-rule:nonzero"
         d="m 23.8807,30.4857 c -0.5702,0.207 -1.3704,0.0587 -1.6347,0.7789 -0.1884,0.8387 -0.0822,1.662 -0.1343,2.561 -0.0127,2.2893 -0.0454,4.5973 -0.0395,6.9452 0.7911,0.7742 2.0485,0.4204 2.9891,0.3163 1.4136,-0.3324 2.588,-1.7438 2.9984,-3.1077 0.138,-0.0765 0.2548,-0.0157 0.3918,-0.0335 -0.2135,1.2492 -0.4459,2.4785 -0.7374,3.7069 -0.1962,0.0562 -0.5088,0.0124 -0.7238,0.0092 L 21.0621,41.6368 17.8734,41.6115 C 17.835,41.552 17.856,41.4547 17.8374,41.3762 18.3098,41.1676 19.052,41.2758 19.2179,40.613 l 0.133,-1.0938 -5e-4,-8.2954 c -0.1875,-0.5703 -0.8135,-0.579 -1.3011,-0.6641 -0.0776,-0.0599 -0.0764,-0.1383 -0.0554,-0.2357 1.8801,-0.1297 4.0696,-0.0013 5.8703,-0.0538 l 0.0165,0.2155 z"
         class="fil1"
         id="_69527448" /></g></g></svg>