<?xml version="1.0" encoding="UTF-8"?>
<svg xmlns="http://www.w3.org/2000/svg" xmlns:xlink="http://www.w3.org/1999/xlink" width="35pt" height="25pt" viewBox="0 0 35 25" version="1.1">
<g id="surface1">
<path style="fill-rule:nonzero;fill:rgb(61.568627%,52.54902%,29.019608%);fill-opacity:1;stroke-width:1;stroke-linecap:butt;stroke-linejoin:miter;stroke:rgb(61.568627%,52.54902%,29.019608%);stroke-opacity:1;stroke-miterlimit:4;" d="M 141.281245 0.5 C 121.062495 0.5 83.749995 5.71875 64.718745 16.78125 C 39.687495 105.4375 73.718745 165.75 141.281245 199.96875 C 208.874995 165.75 242.906245 105.15625 217.874995 16.78125 C 198.843745 5.71875 161.531245 0.5 141.281245 0.5 Z M 141.281245 0.5 " transform="matrix(0.125,0,0,0.125,0.000000625,0)"/>
<path style="fill-rule:nonzero;fill:rgb(0.392157%,18.431373%,45.098039%);fill-opacity:1;stroke-width:1;stroke-linecap:butt;stroke-linejoin:miter;stroke:rgb(0.392157%,18.431373%,45.098039%);stroke-opacity:1;stroke-miterlimit:4;" d="M 141.281245 6.21875 C 121.406245 6.21875 99.031245 8.75 69.687495 20.71875 C 47.874995 98.09375 73.187495 160.15625 141.281245 193.96875 C 209.406245 160.15625 234.718745 98.09375 212.874995 20.71875 C 183.562495 8.75 161.187495 6.21875 141.281245 6.21875 Z M 141.281245 6.21875 " transform="matrix(0.125,0,0,0.125,0.000000625,0)"/>
<path style="fill-rule:nonzero;fill:rgb(100%,100%,100%);fill-opacity:1;stroke-width:1;stroke-linecap:butt;stroke-linejoin:miter;stroke:rgb(100%,100%,100%);stroke-opacity:1;stroke-miterlimit:4;" d="M 141.187495 6.125 C 121.406245 6.125 100.156245 9.0625 80.999995 16.3125 C 61.093745 95.5625 75.749995 153.4375 141.312495 193.90625 Z M 141.312495 193.90625 C 206.843745 153.4375 221.499995 95.5625 201.624995 16.3125 C 182.468745 9.0625 161.218745 6.125 141.437495 6.125 Z M 141.312495 193.90625 " transform="matrix(0.125,0,0,0.125,0.000000625,0)"/>
<path style="fill-rule:nonzero;fill:rgb(93.72549%,0%,2.745098%);fill-opacity:1;stroke-width:1;stroke-linecap:butt;stroke-linejoin:miter;stroke:rgb(93.72549%,0%,2.745098%);stroke-opacity:1;stroke-miterlimit:4;" d="M 141.312495 6.125 C 121.406245 6.125 101.281245 9.125 84.874995 14.84375 C 64.281245 97.875 80.843745 153.96875 141.343745 192.3125 Z M 141.312495 6.125 " transform="matrix(0.125,0,0,0.125,0.000000625,0)"/>
<path style="fill-rule:nonzero;fill:rgb(85.882353%,0%,2.745098%);fill-opacity:1;stroke-width:1;stroke-linecap:butt;stroke-linejoin:miter;stroke:rgb(85.882353%,0%,2.745098%);stroke-opacity:1;stroke-miterlimit:4;" d="M 141.343745 6.125 C 161.249995 6.125 181.406245 9.125 197.812495 14.84375 C 218.406245 97.875 201.843745 153.96875 141.343745 192.3125 Z M 141.343745 6.125 " transform="matrix(0.125,0,0,0.125,0.000000625,0)"/>
<path style=" stroke:none;fill-rule:nonzero;fill:rgb(100%,100%,100%);fill-opacity:1;" d="M 14.449219 16.433594 C 13.351562 17.183594 12.476562 17.457031 11.464844 17.722656 L 10.851562 16.773438 C 11.78125 16.300781 12.75 15.644531 13.71875 14.691406 C 13.804688 15.617188 14.230469 16.269531 14.449219 16.433594 Z M 14.449219 16.433594 "/>
<path style=" stroke:none;fill-rule:nonzero;fill:rgb(61.568627%,52.54902%,29.019608%);fill-opacity:1;" d="M 14.300781 16.390625 C 13.257812 17.105469 11.808594 17.605469 10.144531 17.847656 L 9.808594 17.332031 C 11.230469 16.800781 12.601562 16.003906 13.667969 14.890625 C 13.828125 15.605469 14.074219 16.078125 14.300781 16.390625 Z M 14.300781 16.390625 "/>
<path style=" stroke:none;fill-rule:nonzero;fill:rgb(100%,100%,100%);fill-opacity:1;" d="M 11.523438 12.027344 C 11.523438 12.425781 11.199219 12.75 10.800781 12.75 C 10.402344 12.75 10.078125 12.425781 10.078125 12.027344 C 10.078125 11.625 10.402344 11.304688 10.800781 11.304688 C 11.199219 11.304688 11.523438 11.625 11.523438 12.027344 Z M 11.523438 12.027344 "/>
<path style=" stroke:none;fill-rule:nonzero;fill:rgb(100%,100%,100%);fill-opacity:1;" d="M 11.449219 10.601562 L 11.449219 13.324219 L 13.59375 13.324219 C 13.734375 12.414062 14.253906 11.445312 15.429688 10.601562 L 11.449219 10.601562 "/>
<path style=" stroke:none;fill-rule:nonzero;fill:rgb(100%,100%,100%);fill-opacity:1;" d="M 11.535156 13.324219 C 11.054688 13.335938 10.660156 12.734375 10.65625 11.980469 C 10.648438 11.230469 11.03125 10.613281 11.511719 10.601562 C 11.515625 10.601562 11.523438 10.601562 11.527344 10.601562 "/>
<path style=" stroke:none;fill-rule:nonzero;fill:rgb(61.568627%,52.54902%,29.019608%);fill-opacity:1;" d="M 11.21875 12.027344 C 11.21875 12.332031 10.996094 12.582031 10.71875 12.582031 C 10.445312 12.582031 10.222656 12.332031 10.222656 12.027344 C 10.222656 11.71875 10.445312 11.46875 10.71875 11.46875 C 10.996094 11.46875 11.21875 11.71875 11.21875 12.027344 Z M 11.21875 12.027344 "/>
<path style=" stroke:none;fill-rule:nonzero;fill:rgb(61.568627%,52.54902%,29.019608%);fill-opacity:1;" d="M 11.503906 10.746094 L 11.503906 13.195312 L 13.636719 13.195312 C 13.804688 12.382812 14.21875 11.515625 15.25 10.746094 L 11.503906 10.746094 "/>
<path style=" stroke:none;fill-rule:nonzero;fill:rgb(61.568627%,52.54902%,29.019608%);fill-opacity:1;" d="M 11.585938 13.195312 C 11.136719 13.203125 10.765625 12.660156 10.757812 11.984375 C 10.753906 11.308594 11.113281 10.753906 11.566406 10.746094 C 11.570312 10.746094 11.578125 10.746094 11.582031 10.746094 "/>
<path style=" stroke:none;fill-rule:nonzero;fill:rgb(100%,100%,100%);fill-opacity:1;" d="M 21.738281 13.964844 C 21.738281 16.238281 19.898438 18.078125 17.625 18.078125 C 15.351562 18.078125 13.511719 16.238281 13.511719 13.964844 C 13.511719 11.691406 15.351562 9.851562 17.625 9.851562 C 19.898438 9.851562 21.738281 11.691406 21.738281 13.964844 Z M 21.738281 13.964844 "/>
<path style=" stroke:none;fill-rule:nonzero;fill:rgb(61.568627%,52.54902%,29.019608%);fill-opacity:1;" d="M 21.523438 13.964844 C 21.523438 16.117188 19.777344 17.863281 17.625 17.863281 C 15.472656 17.863281 13.726562 16.117188 13.726562 13.964844 C 13.726562 11.8125 15.472656 10.066406 17.625 10.066406 C 19.777344 10.066406 21.523438 11.8125 21.523438 13.964844 Z M 21.523438 13.964844 "/>
<path style=" stroke:none;fill-rule:nonzero;fill:rgb(100%,100%,100%);fill-opacity:1;" d="M 20.875 13.964844 C 20.875 15.761719 19.421875 17.214844 17.625 17.214844 C 15.828125 17.214844 14.375 15.761719 14.375 13.964844 C 14.375 12.167969 15.828125 10.714844 17.625 10.714844 C 19.421875 10.714844 20.875 12.167969 20.875 13.964844 Z M 20.875 13.964844 "/>
<path style=" stroke:none;fill-rule:nonzero;fill:rgb(61.568627%,52.54902%,29.019608%);fill-opacity:1;" d="M 20.660156 13.964844 C 20.660156 15.640625 19.300781 17 17.625 17 C 15.949219 17 14.589844 15.640625 14.589844 13.964844 C 14.589844 12.289062 15.949219 10.929688 17.625 10.929688 C 19.300781 10.929688 20.660156 12.289062 20.660156 13.964844 Z M 20.660156 13.964844 "/>
<path style=" stroke:none;fill-rule:nonzero;fill:rgb(100%,100%,100%);fill-opacity:1;" d="M 18.890625 13.964844 C 18.894531 14.664062 18.324219 15.230469 17.625 15.230469 C 16.925781 15.234375 16.359375 14.667969 16.359375 13.964844 C 16.359375 13.265625 16.925781 12.699219 17.625 12.695312 C 18.324219 12.695312 18.890625 13.261719 18.890625 13.960938 C 18.890625 13.964844 18.890625 13.964844 18.890625 13.964844 Z M 18.890625 13.964844 "/>
<path style=" stroke:none;fill-rule:nonzero;fill:rgb(61.568627%,52.54902%,29.019608%);fill-opacity:1;" d="M 18.742188 13.964844 C 18.742188 14.582031 18.242188 15.082031 17.625 15.082031 C 17.007812 15.082031 16.507812 14.582031 16.507812 13.964844 C 16.507812 13.347656 17.007812 12.847656 17.625 12.847656 C 18.242188 12.847656 18.742188 13.347656 18.742188 13.964844 Z M 18.742188 13.964844 "/>
<path style=" stroke:none;fill-rule:nonzero;fill:rgb(100%,100%,100%);fill-opacity:1;" d="M 18.199219 13.964844 C 18.199219 14.28125 17.941406 14.539062 17.625 14.539062 C 17.308594 14.539062 17.050781 14.28125 17.050781 13.964844 C 17.050781 13.648438 17.308594 13.390625 17.625 13.390625 C 17.941406 13.390625 18.199219 13.648438 18.199219 13.964844 Z M 18.199219 13.964844 "/>
<path style=" stroke:none;fill-rule:nonzero;fill:rgb(61.568627%,52.54902%,29.019608%);fill-opacity:1;" d="M 18.039062 13.964844 C 18.042969 14.195312 17.855469 14.378906 17.625 14.378906 C 17.394531 14.378906 17.210938 14.195312 17.210938 13.964844 C 17.210938 13.734375 17.394531 13.550781 17.625 13.546875 C 17.855469 13.546875 18.039062 13.734375 18.039062 13.964844 Z M 18.039062 13.964844 "/>
<path style=" stroke:none;fill-rule:nonzero;fill:rgb(100%,100%,100%);fill-opacity:1;" d="M 17.1875 10.859375 L 18.054688 10.859375 L 18.054688 12.875 L 17.1875 12.875 Z M 17.1875 10.859375 "/>
<path style=" stroke:none;fill-rule:nonzero;fill:rgb(61.568627%,52.54902%,29.019608%);fill-opacity:1;" d="M 17.324219 10.570312 L 17.917969 10.570312 L 17.917969 13.132812 L 17.324219 13.132812 Z M 17.324219 10.570312 "/>
<path style=" stroke:none;fill-rule:nonzero;fill:rgb(100%,100%,100%);fill-opacity:1;" d="M 20.035156 11.996094 L 20.503906 12.722656 L 18.8125 13.820312 L 18.34375 13.097656 Z M 20.035156 11.996094 "/>
<path style=" stroke:none;fill-rule:nonzero;fill:rgb(61.568627%,52.54902%,29.019608%);fill-opacity:1;" d="M 20.347656 11.953125 L 20.675781 12.453125 L 18.523438 13.847656 L 18.199219 13.347656 Z M 20.347656 11.953125 "/>
<path style=" stroke:none;fill-rule:nonzero;fill:rgb(100%,100%,100%);fill-opacity:1;" d="M 16.410156 14.128906 L 16.875 14.855469 L 15.171875 15.9375 L 14.707031 15.207031 Z M 16.410156 14.128906 "/>
<path style=" stroke:none;fill-rule:nonzero;fill:rgb(61.568627%,52.54902%,29.019608%);fill-opacity:1;" d="M 16.703125 14.085938 L 17.023438 14.589844 L 14.859375 15.960938 L 14.539062 15.457031 Z M 16.703125 14.085938 "/>
<path style=" stroke:none;fill-rule:nonzero;fill:rgb(100%,100%,100%);fill-opacity:1;" d="M 17.1875 15.121094 L 18.054688 15.121094 L 18.054688 17.136719 L 17.1875 17.136719 Z M 17.1875 15.121094 "/>
<path style=" stroke:none;fill-rule:nonzero;fill:rgb(61.568627%,52.54902%,29.019608%);fill-opacity:1;" d="M 17.324219 14.832031 L 17.917969 14.832031 L 17.917969 17.394531 L 17.324219 17.394531 Z M 17.324219 14.832031 "/>
<path style="fill-rule:nonzero;fill:rgb(93.72549%,0%,2.745098%);fill-opacity:1;stroke-width:0.4;stroke-linecap:butt;stroke-linejoin:miter;stroke:rgb(93.72549%,0%,2.745098%);stroke-opacity:1;stroke-miterlimit:4;" d="M 134.249995 119.25 C 135.187495 120.03125 136.218745 120.75 137.499995 121.28125 L 137.468745 135.6875 C 130.937495 134.84375 125.999995 131.625 122.281245 127.03125 L 134.249995 119.25 " transform="matrix(0.125,0,0,0.125,0.000000625,0)"/>
<path style="fill-rule:nonzero;fill:rgb(85.882353%,0%,2.745098%);fill-opacity:1;stroke-width:0.4;stroke-linecap:butt;stroke-linejoin:miter;stroke:rgb(85.882353%,0%,2.745098%);stroke-opacity:1;stroke-miterlimit:4;" d="M 147.718745 119.3125 C 146.781245 120.0625 145.781245 120.78125 144.468745 121.3125 L 144.499995 135.71875 C 151.031245 134.875 155.968745 131.65625 159.687495 127.09375 L 147.718745 119.3125 " transform="matrix(0.125,0,0,0.125,0.000000625,0)"/>
<path style=" stroke:none;fill-rule:nonzero;fill:rgb(85.882353%,0%,2.745098%);fill-opacity:1;" d="M 18.875 14.160156 L 20.660156 13.941406 C 20.671875 14.390625 20.566406 14.785156 20.414062 15.160156 L 18.871094 14.160156 "/>
<path style="fill-rule:nonzero;fill:rgb(100%,100%,100%);fill-opacity:1;stroke-width:0.7583;stroke-linecap:butt;stroke-linejoin:miter;stroke:rgb(100%,100%,100%);stroke-opacity:1;stroke-miterlimit:4;" d="M 186.274364 302.159254 C 186.392849 301.685316 186.333606 301.329863 186.511333 300.085777 L 213.22956 296.64973 C 213.348044 297.834574 213.22956 298.308511 213.22956 298.900933 Z M 186.274364 302.159254 " transform="matrix(0.065937,0,0,0.065937,6.59654,-5.77112)"/>
<path style=" stroke:none;fill-rule:nonzero;fill:rgb(100%,100%,100%);fill-opacity:1;" d="M 21.484375 12.667969 L 23.796875 12.667969 C 23.722656 12.941406 23.652344 13.21875 23.320312 13.34375 C 22.792969 13.542969 21.691406 13.734375 21.691406 13.734375 C 21.667969 13.429688 21.601562 13.023438 21.484375 12.667969 Z M 21.484375 12.667969 "/>
<path style=" stroke:none;fill-rule:nonzero;fill:rgb(100%,100%,100%);fill-opacity:1;" d="M 19.875 10.5625 L 25.914062 10.570312 L 25.699219 12.773438 L 21.574219 12.992188 C 21.351562 12.003906 20.605469 11.0625 19.875 10.5625 Z M 19.875 10.5625 "/>
<path style=" stroke:none;fill-rule:nonzero;fill:rgb(61.568627%,52.54902%,29.019608%);fill-opacity:1;" d="M 20.089844 10.71875 L 27.796875 10.726562 L 27.503906 12.523438 L 21.523438 12.820312 C 21.285156 11.921875 20.746094 11.273438 20.089844 10.71875 Z M 20.089844 10.71875 "/>
<path style=" stroke:none;fill-rule:nonzero;fill:rgb(61.568627%,52.54902%,29.019608%);fill-opacity:1;" d="M 21.484375 12.667969 L 23.613281 12.667969 C 23.542969 12.910156 23.492188 13.132812 23.179688 13.242188 C 22.683594 13.421875 21.679688 13.5625 21.679688 13.5625 C 21.640625 13.269531 21.578125 12.972656 21.484375 12.667969 Z M 21.484375 12.667969 "/>
<path style=" stroke:none;fill-rule:nonzero;fill:rgb(61.568627%,52.54902%,29.019608%);fill-opacity:1;" d="M 19.148438 7.359375 C 19.148438 7.457031 19.125 7.726562 19.117188 7.800781 L 20.3125 7.800781 C 20.238281 7.484375 20.207031 7.042969 20.195312 6.699219 C 20.195312 6.726562 20.175781 6.015625 20.175781 6.015625 C 20.175781 5.964844 20.195312 5.894531 20.226562 5.867188 C 20.269531 5.820312 20.3125 5.820312 20.363281 5.820312 C 20.414062 5.796875 20.507812 5.796875 20.519531 5.992188 L 20.550781 6.726562 C 20.5625 7.066406 20.5625 7.53125 20.519531 7.800781 L 21.671875 7.800781 C 21.660156 7.703125 21.628906 7.457031 21.621094 7.386719 C 21.765625 7.703125 22.078125 7.875 22.492188 7.875 C 22.742188 7.875 22.929688 7.777344 23.074219 7.679688 C 23.074219 7.703125 23.136719 7.800781 23.136719 7.800781 L 25.277344 7.800781 C 25.183594 7.484375 25.121094 7.042969 25.089844 6.699219 L 24.789062 4.304688 L 23.6875 4.109375 C 23.78125 4.425781 23.84375 4.890625 23.886719 5.207031 L 24.050781 6.75 C 24.082031 7.019531 24.101562 7.3125 24.101562 7.628906 L 24.101562 7.65625 L 24.0625 7.554688 C 23.980469 7.359375 23.9375 7.117188 23.90625 6.75 L 23.863281 6.261719 C 23.800781 5.476562 23.375 5.136719 22.441406 5.136719 C 22.285156 5.136719 21.890625 5.160156 21.652344 5.234375 L 21.714844 6.113281 L 21.960938 5.964844 C 22.171875 5.84375 22.328125 5.796875 22.511719 5.796875 C 22.660156 5.796875 22.753906 5.84375 22.792969 5.941406 C 22.617188 5.964844 22.421875 6.015625 22.203125 6.113281 C 21.871094 6.261719 21.660156 6.480469 21.566406 6.726562 C 21.566406 6.726562 21.566406 6.726562 21.566406 6.699219 L 21.535156 5.894531 C 21.515625 5.378906 21.183594 5.035156 20.675781 5.035156 C 20.445312 5.035156 20.238281 5.109375 20.050781 5.234375 C 20.039062 5.207031 20.03125 5.183594 20.019531 5.160156 L 19.976562 5.0625 L 19.023438 5.011719 C 19.0625 5.183594 19.125 5.671875 19.136719 5.84375 C 19.085938 5.601562 18.949219 5.332031 18.699219 5.136719 C 18.503906 5.011719 18.253906 4.9375 17.992188 4.9375 C 17.640625 4.9375 17.277344 5.085938 17.039062 5.332031 C 16.789062 5.574219 16.664062 5.917969 16.652344 6.308594 C 16.558594 6.210938 16.4375 6.113281 16.289062 6.0625 L 15.855469 5.84375 L 15.832031 5.84375 C 15.730469 5.796875 15.71875 5.769531 15.71875 5.746094 C 15.730469 5.699219 15.832031 5.648438 15.96875 5.648438 C 16.15625 5.648438 16.414062 5.746094 16.621094 5.867188 L 16.644531 5.085938 C 16.488281 5.011719 16.269531 4.964844 15.957031 4.964844 C 15.792969 4.964844 15.480469 4.988281 15.210938 5.136719 C 15.136719 5.183594 15.074219 5.234375 15.011719 5.28125 L 15.023438 5.0625 C 14.773438 5.011719 14.503906 5.011719 14.171875 5.332031 C 14.160156 5.304688 14.140625 5.183594 14.117188 5.136719 L 13.089844 5.183594 C 13.164062 5.476562 13.171875 5.894531 13.152344 6.261719 L 13.132812 6.652344 L 13.132812 6.699219 C 13.121094 6.894531 13.109375 7.117188 13.089844 7.3125 C 13.007812 7.042969 12.914062 6.675781 12.839844 6.382812 L 12.332031 4.082031 L 10.878906 4.304688 C 10.886719 4.328125 10.910156 4.402344 10.917969 4.476562 C 10.929688 4.574219 10.929688 4.769531 10.792969 5.183594 C 10.554688 5.84375 10.222656 6.847656 9.902344 7.554688 C 9.859375 7.65625 9.777344 7.800781 9.777344 7.800781 L 10.910156 7.800781 C 10.929688 7.628906 11 7.335938 11.074219 7.117188 C 11.230469 7.117188 11.636719 7.117188 11.824219 7.09375 C 11.863281 7.261719 11.90625 7.484375 11.917969 7.628906 L 11.9375 7.800781 L 14.203125 7.800781 C 14.148438 7.433594 14.171875 6.945312 14.191406 6.675781 C 14.210938 6.359375 14.273438 6.136719 14.410156 6.015625 C 14.511719 5.894531 14.628906 5.867188 14.710938 5.867188 C 14.699219 6.308594 14.980469 6.503906 15.230469 6.628906 L 15.675781 6.847656 C 15.832031 6.945312 15.832031 6.96875 15.832031 7.019531 C 15.824219 7.09375 15.699219 7.117188 15.582031 7.117188 C 15.34375 7.117188 15.023438 6.96875 14.667969 6.578125 L 14.648438 7.605469 C 14.929688 7.753906 15.28125 7.824219 15.59375 7.824219 C 16.113281 7.824219 16.664062 7.582031 16.808594 7.117188 C 17.070312 7.605469 17.578125 7.824219 18.078125 7.824219 C 18.523438 7.824219 18.855469 7.679688 19.148438 7.359375 Z M 11.34375 6.359375 C 11.40625 6.1875 11.457031 6.039062 11.550781 5.769531 C 11.613281 6.039062 11.644531 6.210938 11.675781 6.332031 C 11.550781 6.359375 11.492188 6.359375 11.34375 6.359375 Z M 17.703125 6.089844 C 17.703125 5.746094 17.828125 5.601562 17.953125 5.601562 C 17.996094 5.601562 18.085938 5.574219 18.128906 5.746094 C 18.148438 5.820312 18.160156 5.867188 18.160156 5.894531 C 18.160156 5.992188 18.109375 6.015625 18.046875 6.015625 L 18.046875 6.039062 C 18.046875 6.039062 17.871094 6.089844 17.703125 6.164062 C 17.703125 6.136719 17.703125 6.113281 17.703125 6.089844 Z M 18.886719 6.796875 C 18.667969 6.992188 18.515625 7.117188 18.253906 7.117188 C 18.046875 7.089844 17.921875 6.96875 17.847656 6.796875 C 18.066406 6.726562 18.910156 6.40625 19.148438 6.308594 C 19.148438 6.503906 19.15625 6.726562 19.15625 6.726562 C 19.15625 6.871094 19.15625 7.019531 19.15625 7.140625 Z M 22.761719 7.140625 C 22.566406 7.140625 22.523438 6.992188 22.515625 6.894531 C 22.523438 6.796875 22.554688 6.652344 22.867188 6.554688 C 22.878906 6.675781 22.886719 6.773438 22.886719 6.773438 L 22.886719 6.871094 C 22.898438 6.945312 22.898438 7.019531 22.910156 7.089844 C 22.867188 7.117188 22.816406 7.117188 22.761719 7.140625 "/>
<path style=" stroke:none;fill-rule:nonzero;fill:rgb(100%,100%,100%);fill-opacity:1;" d="M 16.46875 5.207031 C 16.363281 5.183594 16.207031 5.136719 15.957031 5.136719 C 15.761719 5.136719 15.5 5.183594 15.304688 5.28125 C 15.074219 5.429688 14.910156 5.625 14.898438 5.84375 C 14.878906 6.1875 15.054688 6.332031 15.3125 6.457031 C 15.492188 6.554688 15.65625 6.652344 15.761719 6.699219 C 15.894531 6.773438 16.019531 6.847656 16.007812 7.019531 C 16 7.191406 15.84375 7.3125 15.582031 7.3125 C 15.367188 7.3125 15.054688 7.164062 14.835938 6.96875 L 14.824219 7.484375 C 15.011719 7.582031 15.3125 7.628906 15.59375 7.628906 C 16.070312 7.628906 16.664062 7.410156 16.675781 6.871094 C 16.683594 6.457031 16.394531 6.308594 16.21875 6.210938 C 16.039062 6.136719 15.863281 6.039062 15.78125 6.015625 C 15.699219 5.964844 15.53125 5.917969 15.542969 5.722656 C 15.5625 5.550781 15.761719 5.476562 15.96875 5.476562 C 16.144531 5.476562 16.320312 5.527344 16.457031 5.601562 "/>
<path style=" stroke:none;fill-rule:nonzero;fill:rgb(100%,100%,100%);fill-opacity:1;" d="M 12.195312 4.304688 L 11.09375 4.449219 C 11.117188 4.597656 11.074219 4.890625 10.960938 5.234375 C 10.730469 5.894531 10.359375 6.992188 10.066406 7.628906 L 10.753906 7.628906 C 10.792969 7.410156 10.847656 7.214844 10.949219 6.945312 L 11.96875 6.921875 C 12.007812 7.117188 12.082031 7.433594 12.09375 7.628906 L 13.015625 7.628906 C 12.902344 7.359375 12.757812 6.796875 12.664062 6.40625 Z M 11.09375 6.527344 L 11.59375 5.085938 L 11.894531 6.503906 "/>
<path style=" stroke:none;fill-rule:nonzero;fill:rgb(100%,100%,100%);fill-opacity:1;" d="M 14.835938 5.207031 L 14.816406 5.699219 C 14.648438 5.671875 14.441406 5.722656 14.273438 5.894531 C 14.128906 6.039062 14.035156 6.261719 14.015625 6.652344 C 13.992188 6.96875 13.984375 7.335938 14.003906 7.628906 L 13.226562 7.628906 C 13.277344 7.335938 13.296875 6.996094 13.308594 6.675781 L 13.328125 6.285156 C 13.351562 5.964844 13.351562 5.648438 13.296875 5.355469 L 13.984375 5.332031 C 14.015625 5.429688 14.035156 5.601562 14.023438 5.769531 C 14.328125 5.304688 14.617188 5.207031 14.835938 5.207031 "/>
<path style=" stroke:none;fill-rule:nonzero;fill:rgb(100%,100%,100%);fill-opacity:1;" d="M 24.632812 4.449219 L 23.925781 4.328125 C 24 4.644531 24.019531 4.867188 24.0625 5.183594 L 24.226562 6.726562 C 24.257812 7.042969 24.289062 7.335938 24.28125 7.628906 L 25.050781 7.628906 C 24.976562 7.335938 24.945312 7.042969 24.914062 6.726562 "/>
<path style=" stroke:none;fill-rule:nonzero;fill:rgb(100%,100%,100%);fill-opacity:1;" d="M 21.464844 7.628906 C 21.421875 7.335938 21.402344 7.042969 21.390625 6.726562 L 21.359375 5.917969 C 21.339844 5.476562 21.089844 5.234375 20.675781 5.234375 C 20.445312 5.234375 20.175781 5.304688 19.949219 5.601562 C 19.9375 5.527344 19.90625 5.332031 19.863281 5.234375 L 19.242188 5.207031 C 19.292969 5.503906 19.3125 5.796875 19.324219 6.113281 L 19.335938 6.726562 C 19.34375 7.042969 19.335938 7.335938 19.3125 7.628906 L 20.09375 7.628906 C 20.050781 7.335938 20.03125 7.042969 20.019531 6.726562 L 20 6.039062 C 19.988281 5.796875 20.175781 5.625 20.363281 5.625 C 20.582031 5.625 20.683594 5.769531 20.695312 5.992188 L 20.726562 6.726562 C 20.738281 7.042969 20.738281 7.335938 20.714844 7.628906 "/>
<path style=" stroke:none;fill-rule:nonzero;fill:rgb(100%,100%,100%);fill-opacity:1;" d="M 23.894531 7.628906 C 23.800781 7.386719 23.75 7.089844 23.730469 6.773438 L 23.6875 6.285156 C 23.644531 5.699219 23.398438 5.304688 22.441406 5.304688 C 22.273438 5.304688 22.035156 5.332031 21.839844 5.378906 L 21.871094 5.820312 C 22.066406 5.699219 22.265625 5.601562 22.515625 5.601562 C 22.773438 5.601562 22.992188 5.722656 23.011719 6.089844 C 22.761719 6.113281 22.535156 6.164062 22.273438 6.285156 C 21.984375 6.40625 21.683594 6.652344 21.714844 7.042969 C 21.746094 7.484375 22.078125 7.679688 22.492188 7.679688 C 22.816406 7.679688 23.03125 7.53125 23.15625 7.386719 C 23.179688 7.484375 23.210938 7.558594 23.242188 7.628906 Z M 22.761719 7.3125 C 22.535156 7.3125 22.347656 7.191406 22.335938 6.921875 C 22.335938 6.652344 22.503906 6.429688 23.03125 6.359375 L 23.0625 6.773438 C 23.074219 6.921875 23.074219 7.019531 23.097656 7.140625 C 23.023438 7.238281 22.898438 7.289062 22.761719 7.3125 "/>
<path style=" stroke:none;fill-rule:nonzero;fill:rgb(100%,100%,100%);fill-opacity:1;" d="M 18.597656 5.28125 C 18.421875 5.160156 18.210938 5.109375 17.996094 5.109375 C 17.484375 5.109375 16.808594 5.476562 16.832031 6.40625 C 16.839844 7.359375 17.566406 7.65625 18.078125 7.65625 C 18.523438 7.65625 18.792969 7.484375 19.011719 7.261719 L 18.855469 7.042969 C 18.742188 7.140625 18.554688 7.289062 18.253906 7.289062 C 17.933594 7.261719 17.722656 7.042969 17.609375 6.699219 L 19.023438 6.1875 C 18.980469 5.722656 18.816406 5.453125 18.597656 5.28125 Z M 18.109375 6.1875 L 17.546875 6.40625 C 17.535156 6.308594 17.527344 6.210938 17.527344 6.089844 C 17.527344 5.527344 17.839844 5.429688 17.941406 5.429688 C 18.109375 5.402344 18.253906 5.503906 18.304688 5.699219 C 18.367188 5.917969 18.347656 6.113281 18.109375 6.1875 "/>
<path style=" stroke:none;fill-rule:nonzero;fill:rgb(100%,100%,100%);fill-opacity:1;" d="M 14.785156 12.554688 L 15.257812 11.832031 L 16.945312 12.9375 L 16.472656 13.660156 Z M 14.785156 12.554688 "/>
<path style=" stroke:none;fill-rule:nonzero;fill:rgb(61.568627%,52.54902%,29.019608%);fill-opacity:1;" d="M 14.625 12.308594 L 14.953125 11.808594 L 17.097656 13.210938 L 16.769531 13.710938 Z M 14.625 12.308594 "/>
<path style=" stroke:none;fill-rule:nonzero;fill:rgb(100%,100%,100%);fill-opacity:1;" d="M 18.382812 14.855469 L 18.859375 14.132812 L 20.542969 15.238281 L 20.070312 15.960938 Z M 18.382812 14.855469 "/>
<path style=" stroke:none;fill-rule:nonzero;fill:rgb(61.568627%,52.54902%,29.019608%);fill-opacity:1;" d="M 18.226562 14.605469 L 18.554688 14.105469 L 20.699219 15.511719 L 20.371094 16.011719 Z M 18.226562 14.605469 "/>
</g>
</svg>
