<?xml version="1.0" encoding="UTF-8"?>
<svg xmlns="http://www.w3.org/2000/svg" xmlns:xlink="http://www.w3.org/1999/xlink" width="18pt" height="25pt" viewBox="0 0 18 25" version="1.1">
<g id="surface1">
<path style=" stroke:none;fill-rule:nonzero;fill:rgb(100%,100%,100%);fill-opacity:1;" d="M 8.988281 25.054688 L 8.40625 24.4375 C 8.40625 24.4375 8.105469 24.140625 7.910156 24.011719 C 7.898438 24 7.4375 23.789062 7.363281 23.753906 C 6.253906 23.390625 4.523438 23.039062 2.996094 22.355469 C 2.234375 22.011719 1.507812 21.578125 0.941406 20.957031 C 0.378906 20.335938 -0.00390625 19.5 -0.00390625 18.542969 L -0.00390625 0 L 18.042969 0 L 18.042969 18.542969 C 18.042969 19.515625 17.664062 20.355469 17.085938 20.976562 C 16.507812 21.597656 15.773438 22.027344 15 22.363281 C 13.453125 23.039062 11.695312 23.382812 10.644531 23.765625 C 10.242188 23.910156 10.203125 23.941406 9.988281 24.105469 L 9.988281 24.09375 C 9.90625 24.160156 9.589844 24.457031 9.589844 24.457031 Z M 8.988281 25.054688 "/>
<path style=" stroke:none;fill-rule:nonzero;fill:rgb(58.039216%,74.509804%,89.803922%);fill-opacity:1;" d="M 9.476562 23.453125 C 9.738281 23.25 9.925781 23.148438 10.363281 22.992188 C 12.691406 22.144531 17.21875 21.640625 17.21875 18.539062 L 17.21875 0.820312 L 0.828125 0.820312 L 0.828125 18.539062 C 0.828125 21.582031 5.242188 22.1875 7.628906 22.96875 C 7.628906 22.96875 8.160156 23.183594 8.378906 23.332031 C 8.691406 23.542969 9.007812 23.875 9.007812 23.875 C 9.007812 23.875 9.300781 23.589844 9.476562 23.453125 "/>
<path style="fill:none;stroke-width:2.24375;stroke-linecap:butt;stroke-linejoin:miter;stroke:rgb(47.843137%,0%,23.529412%);stroke-opacity:1;stroke-miterlimit:6;" d="M 376.652322 572.326293 C 377.602871 571.583394 378.283862 571.211944 379.872841 570.640483 C 388.328477 567.540308 404.771567 565.697347 404.771567 554.35385 L 404.771567 489.550193 L 345.241621 489.550193 L 345.241621 554.35385 C 345.241621 565.48305 361.273279 567.69746 369.941725 570.554764 C 369.941725 570.554764 371.871199 571.340523 372.665688 571.883411 C 373.800673 572.654883 374.949845 573.869237 374.949845 573.869237 C 374.949845 573.869237 376.013893 572.826321 376.652322 572.326293 Z M 376.652322 572.326293 " transform="matrix(0.275334,0,0,0.273422,-94.22867,-133.033515)"/>
<path style=" stroke:none;fill-rule:nonzero;fill:rgb(100%,100%,100%);fill-opacity:1;" d="M 4.546875 6.410156 L 4.8125 6.953125 L 5.40625 7.039062 L 4.976562 7.457031 L 5.078125 8.054688 L 4.546875 7.773438 L 4.019531 8.054688 L 4.121094 7.457031 L 3.691406 7.039062 L 4.28125 6.953125 L 4.546875 6.410156 "/>
<path style=" stroke:none;fill-rule:nonzero;fill:rgb(47.843137%,0%,23.529412%);fill-opacity:1;" d="M 4.019531 1.917969 C 4.007812 1.917969 3.980469 1.9375 3.953125 1.960938 L 3.71875 2.132812 C 3.667969 2.167969 3.628906 2.234375 3.597656 2.335938 C 3.566406 2.4375 3.542969 2.53125 3.523438 2.617188 L 2.917969 4.386719 C 2.835938 4.621094 2.761719 4.792969 2.695312 4.890625 C 2.628906 4.992188 2.53125 5.035156 2.402344 5.035156 C 2.355469 5.035156 2.324219 5.0625 2.324219 5.105469 L 2.324219 5.183594 C 2.324219 5.210938 2.34375 5.226562 2.378906 5.226562 C 2.398438 5.226562 2.472656 5.214844 2.59375 5.207031 C 2.714844 5.199219 2.800781 5.199219 2.859375 5.199219 C 2.914062 5.199219 2.996094 5.199219 3.109375 5.207031 C 3.222656 5.214844 3.296875 5.226562 3.332031 5.226562 C 3.390625 5.226562 3.417969 5.207031 3.417969 5.183594 L 3.417969 5.097656 C 3.417969 5.058594 3.398438 5.035156 3.359375 5.035156 C 3.144531 5.035156 3.039062 4.980469 3.039062 4.859375 C 3.039062 4.808594 3.054688 4.734375 3.089844 4.636719 L 3.304688 3.996094 L 4.246094 3.996094 L 4.46875 4.515625 C 4.519531 4.640625 4.550781 4.726562 4.5625 4.761719 C 4.578125 4.800781 4.589844 4.832031 4.589844 4.867188 C 4.589844 4.980469 4.496094 5.035156 4.3125 5.035156 C 4.265625 5.035156 4.234375 5.0625 4.234375 5.105469 L 4.234375 5.183594 C 4.234375 5.207031 4.253906 5.226562 4.277344 5.226562 C 4.3125 5.226562 4.414062 5.214844 4.597656 5.207031 C 4.777344 5.199219 4.902344 5.199219 4.96875 5.199219 C 5.042969 5.199219 5.148438 5.199219 5.277344 5.207031 C 5.410156 5.214844 5.5 5.226562 5.550781 5.226562 C 5.585938 5.226562 5.605469 5.203125 5.605469 5.164062 L 5.605469 5.089844 C 5.605469 5.0625 5.582031 5.042969 5.542969 5.035156 C 5.429688 5.019531 5.347656 4.996094 5.300781 4.953125 C 5.257812 4.90625 5.203125 4.804688 5.148438 4.667969 L 4.0625 1.988281 C 4.042969 1.945312 4.027344 1.917969 4.019531 1.917969 Z M 14.40625 1.988281 C 13.898438 1.988281 13.460938 2.136719 13.113281 2.449219 C 12.769531 2.757812 12.597656 3.136719 12.597656 3.574219 C 12.597656 4.128906 12.777344 4.550781 13.125 4.847656 C 13.472656 5.144531 13.898438 5.292969 14.414062 5.292969 C 14.8125 5.292969 15.167969 5.21875 15.472656 5.0625 L 15.609375 4.5 C 15.621094 4.460938 15.628906 4.4375 15.628906 4.429688 C 15.628906 4.414062 15.605469 4.394531 15.558594 4.378906 C 15.511719 4.359375 15.476562 4.351562 15.457031 4.351562 C 15.441406 4.351562 15.421875 4.386719 15.394531 4.449219 C 15.296875 4.667969 15.183594 4.824219 15.058594 4.925781 C 14.9375 5.023438 14.75 5.070312 14.492188 5.070312 C 14.136719 5.070312 13.839844 4.929688 13.605469 4.652344 C 13.371094 4.371094 13.253906 4.027344 13.253906 3.617188 C 13.253906 3.210938 13.363281 2.875 13.578125 2.609375 C 13.796875 2.34375 14.082031 2.207031 14.429688 2.207031 C 14.667969 2.207031 14.859375 2.273438 15.007812 2.40625 C 15.15625 2.535156 15.261719 2.683594 15.316406 2.859375 C 15.324219 2.882812 15.332031 2.90625 15.335938 2.917969 C 15.339844 2.929688 15.347656 2.925781 15.359375 2.925781 C 15.382812 2.925781 15.421875 2.925781 15.464844 2.917969 C 15.507812 2.910156 15.53125 2.894531 15.53125 2.882812 C 15.53125 2.863281 15.519531 2.765625 15.5 2.59375 C 15.476562 2.417969 15.453125 2.328125 15.445312 2.300781 C 15.425781 2.25 15.308594 2.183594 15.085938 2.105469 C 14.863281 2.027344 14.636719 1.988281 14.40625 1.988281 Z M 5.578125 2.0625 C 5.542969 2.0625 5.527344 2.082031 5.527344 2.113281 L 5.527344 2.191406 C 5.527344 2.222656 5.546875 2.242188 5.59375 2.242188 C 5.71875 2.242188 5.8125 2.261719 5.878906 2.3125 C 5.945312 2.359375 6.011719 2.464844 6.070312 2.601562 L 7.136719 5.226562 C 7.148438 5.253906 7.15625 5.273438 7.167969 5.285156 C 7.183594 5.292969 7.210938 5.292969 7.246094 5.292969 L 7.324219 5.292969 C 7.351562 5.292969 7.371094 5.292969 7.386719 5.285156 C 7.398438 5.277344 7.410156 5.257812 7.417969 5.234375 L 8.476562 2.628906 C 8.539062 2.472656 8.585938 2.359375 8.625 2.3125 C 8.660156 2.261719 8.738281 2.242188 8.839844 2.242188 C 8.875 2.242188 8.890625 2.222656 8.890625 2.183594 L 8.890625 2.113281 C 8.890625 2.078125 8.871094 2.0625 8.839844 2.0625 C 8.808594 2.0625 8.75 2.0625 8.660156 2.070312 C 8.566406 2.078125 8.496094 2.082031 8.453125 2.082031 C 8.390625 2.082031 8.285156 2.078125 8.140625 2.070312 C 8 2.0625 7.921875 2.0625 7.890625 2.0625 C 7.855469 2.0625 7.839844 2.082031 7.839844 2.113281 L 7.839844 2.183594 C 7.839844 2.222656 7.859375 2.242188 7.910156 2.242188 C 8.035156 2.242188 8.121094 2.25 8.167969 2.269531 C 8.214844 2.289062 8.238281 2.332031 8.238281 2.398438 C 8.238281 2.464844 8.226562 2.546875 8.195312 2.628906 L 7.480469 4.480469 L 6.695312 2.574219 C 6.65625 2.476562 6.644531 2.402344 6.644531 2.363281 C 6.644531 2.320312 6.667969 2.289062 6.714844 2.269531 C 6.761719 2.25 6.84375 2.242188 6.953125 2.242188 C 6.996094 2.242188 7.015625 2.226562 7.015625 2.191406 L 7.015625 2.113281 C 7.015625 2.078125 6.992188 2.0625 6.945312 2.0625 C 6.910156 2.0625 6.789062 2.0625 6.59375 2.070312 C 6.398438 2.078125 6.257812 2.082031 6.179688 2.082031 C 6.09375 2.082031 5.980469 2.078125 5.835938 2.070312 C 5.695312 2.0625 5.609375 2.0625 5.578125 2.0625 Z M 9.640625 2.0625 C 9.585938 2.0625 9.554688 2.074219 9.554688 2.105469 L 9.554688 2.191406 C 9.554688 2.222656 9.589844 2.242188 9.648438 2.242188 C 9.78125 2.242188 9.863281 2.269531 9.90625 2.335938 C 9.949219 2.402344 9.976562 2.523438 9.976562 2.695312 L 9.976562 4.652344 C 9.976562 4.78125 9.945312 4.878906 9.886719 4.941406 C 9.832031 5.007812 9.746094 5.035156 9.628906 5.035156 C 9.578125 5.035156 9.554688 5.058594 9.554688 5.089844 L 9.554688 5.171875 C 9.554688 5.207031 9.578125 5.226562 9.628906 5.226562 C 9.660156 5.226562 9.777344 5.214844 9.964844 5.207031 C 10.160156 5.199219 10.277344 5.199219 10.335938 5.199219 C 10.398438 5.199219 10.507812 5.199219 10.65625 5.207031 C 10.804688 5.214844 10.894531 5.226562 10.921875 5.226562 C 10.96875 5.226562 10.988281 5.207031 10.988281 5.183594 L 10.988281 5.078125 C 10.988281 5.054688 10.96875 5.035156 10.921875 5.035156 C 10.800781 5.035156 10.710938 5.007812 10.65625 4.953125 C 10.597656 4.894531 10.566406 4.796875 10.566406 4.652344 L 10.566406 3.617188 L 11.1875 3.617188 C 11.320312 3.617188 11.417969 3.648438 11.480469 3.703125 C 11.542969 3.757812 11.597656 3.855469 11.625 3.984375 C 11.632812 4.023438 11.652344 4.039062 11.679688 4.039062 L 11.773438 4.039062 C 11.796875 4.039062 11.796875 4.023438 11.796875 3.976562 C 11.796875 3.949219 11.796875 3.878906 11.789062 3.78125 C 11.785156 3.683594 11.78125 3.617188 11.78125 3.574219 C 11.78125 3.515625 11.785156 3.425781 11.789062 3.320312 C 11.796875 3.210938 11.796875 3.152344 11.796875 3.121094 C 11.796875 3.089844 11.785156 3.070312 11.753906 3.070312 L 11.667969 3.070312 C 11.648438 3.070312 11.632812 3.082031 11.625 3.113281 C 11.601562 3.238281 11.5625 3.324219 11.515625 3.363281 C 11.46875 3.398438 11.375 3.421875 11.238281 3.421875 L 10.566406 3.421875 L 10.566406 2.542969 C 10.566406 2.429688 10.601562 2.359375 10.664062 2.320312 C 10.722656 2.28125 10.839844 2.269531 11.007812 2.269531 L 11.144531 2.269531 C 11.382812 2.269531 11.546875 2.289062 11.625 2.335938 C 11.707031 2.382812 11.769531 2.464844 11.816406 2.585938 L 11.867188 2.710938 C 11.882812 2.757812 11.898438 2.78125 11.929688 2.78125 L 11.996094 2.78125 C 12.027344 2.78125 12.039062 2.769531 12.039062 2.730469 L 12.039062 2.105469 C 12.039062 2.074219 12.027344 2.0625 11.996094 2.0625 C 11.953125 2.0625 11.714844 2.0625 11.292969 2.070312 C 10.871094 2.078125 10.609375 2.082031 10.5 2.082031 C 10.367188 2.082031 10.199219 2.078125 9.992188 2.070312 C 9.785156 2.0625 9.667969 2.0625 9.640625 2.0625 Z M 3.71875 2.753906 L 4.140625 3.773438 L 3.390625 3.773438 Z M 5.871094 20.195312 C 5.710938 20.1875 5.5625 20.210938 5.5625 20.210938 L 5.5625 21.355469 L 5.722656 21.355469 L 5.722656 20.757812 C 5.722656 20.757812 6.1875 20.652344 6.1875 20.382812 C 6.1875 20.25 6.027344 20.203125 5.871094 20.195312 Z M 6.714844 20.195312 C 6.554688 20.1875 6.394531 20.210938 6.394531 20.210938 L 6.394531 21.355469 L 6.566406 21.355469 L 6.566406 20.757812 C 6.566406 20.757812 6.652344 20.730469 6.75 20.691406 C 6.761719 20.710938 6.816406 20.800781 6.894531 20.988281 C 6.984375 21.199219 7.007812 21.355469 7.007812 21.355469 L 7.167969 21.355469 C 7.167969 21.355469 7.132812 21.148438 7.058594 20.964844 C 6.996094 20.804688 6.902344 20.671875 6.878906 20.628906 C 6.964844 20.570312 7.03125 20.488281 7.03125 20.382812 C 7.03125 20.25 6.871094 20.203125 6.714844 20.195312 Z M 8.519531 20.195312 C 8.363281 20.1875 8.203125 20.210938 8.203125 20.210938 L 8.203125 21.355469 L 8.375 21.355469 L 8.375 20.757812 C 8.375 20.757812 8.839844 20.652344 8.839844 20.382812 C 8.839844 20.25 8.679688 20.203125 8.519531 20.195312 Z M 10.242188 20.195312 C 10.082031 20.1875 9.921875 20.210938 9.921875 20.210938 L 9.921875 21.355469 L 10.085938 21.355469 L 10.085938 20.757812 C 10.085938 20.757812 10.171875 20.730469 10.265625 20.691406 C 10.28125 20.710938 10.34375 20.800781 10.421875 20.988281 C 10.511719 21.199219 10.523438 21.355469 10.523438 21.355469 L 10.6875 21.355469 C 10.6875 21.355469 10.652344 21.148438 10.578125 20.964844 C 10.511719 20.800781 10.429688 20.65625 10.40625 20.621094 C 10.488281 20.5625 10.550781 20.484375 10.550781 20.382812 C 10.550781 20.25 10.398438 20.203125 10.242188 20.195312 Z M 11.789062 20.195312 C 11.722656 20.199219 11.667969 20.210938 11.667969 20.210938 L 11.667969 21.355469 L 11.839844 21.355469 C 11.839844 21.355469 12.402344 21.367188 12.402344 20.65625 C 12.402344 20.21875 11.996094 20.183594 11.789062 20.195312 Z M 7.417969 20.210938 L 7.417969 21.355469 L 7.925781 21.355469 L 7.925781 21.21875 L 7.582031 21.21875 L 7.582031 20.699219 L 7.816406 20.699219 L 7.816406 20.570312 L 7.582031 20.570312 L 7.582031 20.339844 L 7.925781 20.339844 L 7.925781 20.210938 Z M 9.164062 20.210938 L 8.804688 21.355469 L 8.984375 21.355469 L 9.175781 20.699219 L 9.398438 20.699219 L 9.585938 21.355469 L 9.757812 21.355469 L 9.40625 20.210938 Z M 10.886719 20.210938 L 10.886719 21.355469 L 11.394531 21.355469 L 11.394531 21.21875 L 11.058594 21.21875 L 11.058594 20.699219 L 11.28125 20.699219 L 11.28125 20.570312 L 11.058594 20.570312 L 11.058594 20.339844 L 11.394531 20.339844 L 11.394531 20.210938 Z M 9.285156 20.304688 L 9.363281 20.570312 L 9.207031 20.570312 Z M 5.871094 20.324219 C 5.941406 20.324219 6.015625 20.34375 6.015625 20.382812 C 6.015625 20.535156 5.722656 20.597656 5.722656 20.597656 L 5.722656 20.332031 C 5.722656 20.332031 5.796875 20.320312 5.871094 20.324219 Z M 6.714844 20.324219 C 6.785156 20.324219 6.851562 20.34375 6.851562 20.382812 C 6.851562 20.535156 6.566406 20.597656 6.566406 20.597656 L 6.566406 20.332031 C 6.566406 20.332031 6.640625 20.320312 6.714844 20.324219 Z M 8.519531 20.324219 C 8.59375 20.324219 8.667969 20.34375 8.667969 20.382812 C 8.667969 20.535156 8.375 20.597656 8.375 20.597656 L 8.375 20.332031 C 8.375 20.332031 8.449219 20.320312 8.519531 20.324219 Z M 10.234375 20.324219 C 10.304688 20.324219 10.378906 20.34375 10.378906 20.382812 C 10.378906 20.535156 10.085938 20.597656 10.085938 20.597656 L 10.085938 20.332031 C 10.085938 20.332031 10.160156 20.320312 10.234375 20.324219 Z M 11.886719 20.339844 C 12 20.332031 12.230469 20.355469 12.230469 20.664062 C 12.230469 21.179688 11.9375 21.238281 11.839844 21.246094 L 11.839844 20.347656 C 11.851562 20.347656 11.859375 20.339844 11.886719 20.339844 Z M 11.886719 20.339844 "/>
<path style=" stroke:none;fill-rule:evenodd;fill:rgb(100%,90.196078%,0%);fill-opacity:1;" d="M 9.5 6.886719 C 9.402344 7.03125 9.15625 7.125 9.15625 7.125 C 9.15625 7.125 9.097656 7.121094 9.140625 7.019531 C 9.183594 6.925781 9.195312 6.878906 9.195312 6.878906 L 8.996094 6.953125 C 8.996094 6.953125 9.066406 6.890625 9.09375 6.789062 C 9.121094 6.6875 9.117188 6.621094 9.117188 6.621094 C 9.117188 6.621094 9.089844 6.707031 8.992188 6.75 C 8.914062 6.78125 8.753906 6.796875 8.753906 6.796875 C 8.753906 6.796875 8.945312 6.40625 9.242188 6.433594 C 9.539062 6.464844 9.59375 6.738281 9.5 6.886719 Z M 8.160156 7.316406 C 8.121094 7.402344 8.035156 7.488281 7.941406 7.515625 C 7.855469 7.535156 7.785156 7.535156 7.726562 7.511719 C 7.578125 7.460938 7.546875 7.359375 7.546875 7.359375 L 7.707031 7.28125 C 7.734375 7.363281 7.789062 7.40625 7.855469 7.410156 C 7.921875 7.414062 7.972656 7.378906 7.992188 7.324219 C 8.003906 7.292969 7.996094 7.242188 7.996094 7.242188 C 7.996094 7.242188 7.976562 7.289062 7.9375 7.289062 C 7.90625 7.289062 7.859375 7.269531 7.878906 7.199219 L 8.230469 7.03125 C 8.230469 7.03125 8.21875 7.179688 8.160156 7.316406 Z M 15.257812 8.503906 C 15.257812 8.503906 14.929688 8.949219 14.578125 9.023438 C 14.332031 9.074219 14.160156 9.050781 14.160156 9.050781 C 14.160156 9.050781 14.253906 9.042969 14.324219 8.988281 C 14.40625 8.929688 14.449219 8.820312 14.449219 8.820312 C 14.449219 8.820312 14.304688 8.898438 14.058594 8.832031 C 13.945312 8.800781 13.703125 8.777344 13.507812 8.847656 C 13.363281 8.902344 13.183594 9.050781 13.183594 9.050781 C 13.183594 9.050781 13.242188 8.992188 13.269531 8.925781 C 13.308594 8.835938 13.289062 8.738281 13.289062 8.738281 C 13.289062 8.738281 13.269531 8.835938 13.148438 8.886719 C 13.074219 8.917969 12.917969 8.984375 12.847656 9.089844 C 12.757812 9.226562 12.765625 9.394531 12.730469 9.433594 C 12.703125 9.464844 11.808594 9.867188 11.746094 10.683594 C 11.6875 11.5 12.300781 12.128906 12.5 12.363281 C 12.703125 12.59375 13.554688 13.582031 13.691406 13.800781 C 13.804688 13.976562 13.894531 14.164062 13.789062 14.390625 C 13.726562 14.523438 13.511719 14.683594 13.195312 14.535156 C 12.875 14.386719 12.65625 14.179688 12.320312 14.027344 C 12.046875 13.910156 11.734375 13.824219 11.664062 13.777344 C 11.609375 13.742188 11.140625 13.441406 11.097656 12.902344 C 11.0625 12.480469 11.230469 11.820312 11.257812 11.363281 C 11.292969 10.734375 11.109375 10.460938 11.105469 10.4375 C 11.101562 10.394531 11.269531 10.449219 11.335938 10.570312 C 11.433594 10.746094 11.425781 10.8125 11.425781 10.8125 C 11.425781 10.8125 11.640625 10.410156 11.550781 9.902344 C 11.445312 9.324219 11.085938 9.253906 11.082031 9.210938 C 11.078125 9.179688 11.191406 9.15625 11.304688 9.191406 C 11.621094 9.289062 11.675781 9.589844 11.675781 9.589844 C 11.675781 9.589844 11.8125 9.167969 11.625 8.738281 C 11.453125 8.34375 11.199219 8.304688 11.191406 8.261719 C 11.1875 8.238281 11.269531 8.199219 11.4375 8.242188 C 11.703125 8.304688 11.761719 8.527344 11.761719 8.527344 C 11.761719 8.527344 11.824219 8.160156 11.710938 7.847656 C 11.511719 7.28125 11.101562 7.226562 11.101562 7.183594 C 11.097656 7.15625 11.214844 7.125 11.335938 7.15625 C 11.53125 7.210938 11.554688 7.269531 11.554688 7.269531 C 11.554688 7.269531 11.546875 7.132812 11.4375 6.925781 C 11.320312 6.699219 11.03125 6.402344 10.910156 6.332031 C 10.25 5.933594 9.886719 6.015625 9.765625 6.003906 C 9.734375 6.003906 9.667969 5.945312 9.699219 5.851562 C 9.742188 5.703125 9.84375 5.652344 9.84375 5.652344 C 9.84375 5.652344 9.5625 5.640625 9.3125 5.734375 C 9.015625 5.847656 8.867188 6.007812 8.832031 6.007812 C 8.800781 6.007812 8.765625 5.957031 8.765625 5.886719 C 8.765625 5.777344 8.804688 5.746094 8.804688 5.746094 C 8.804688 5.746094 8.457031 5.859375 8.289062 5.984375 C 8.171875 6.066406 7.992188 6.203125 7.902344 6.417969 C 7.832031 6.585938 7.792969 6.800781 7.792969 6.800781 C 7.792969 6.800781 7.710938 6.742188 7.601562 6.820312 C 7.488281 6.902344 7.363281 7.0625 7.296875 7.15625 C 7.238281 7.246094 7.148438 7.34375 7.085938 7.367188 C 7.019531 7.390625 6.628906 7.527344 6.550781 7.574219 C 6.480469 7.617188 6.449219 7.761719 6.464844 7.820312 C 6.46875 7.84375 6.496094 7.910156 6.558594 7.976562 C 6.589844 8.015625 6.613281 7.984375 6.632812 7.941406 C 6.644531 7.917969 6.660156 7.90625 6.671875 7.910156 C 6.753906 7.953125 6.683594 8.140625 6.703125 8.191406 C 6.730469 8.257812 6.792969 8.316406 6.859375 8.359375 C 6.949219 8.417969 7.125 8.476562 7.125 8.476562 C 7.125 8.476562 7.101562 8.394531 7.132812 8.34375 C 7.15625 8.304688 7.234375 8.25 7.308594 8.238281 C 7.449219 8.21875 7.664062 8.230469 7.777344 8.328125 C 7.933594 8.460938 7.914062 8.636719 7.914062 8.636719 C 7.914062 8.636719 7.632812 8.746094 7.5 8.765625 C 7.363281 8.785156 7.261719 8.785156 7.164062 8.75 C 7.066406 8.714844 6.980469 8.613281 6.980469 8.613281 C 6.980469 8.613281 6.949219 8.769531 6.9375 8.789062 C 6.925781 8.800781 6.851562 8.835938 6.859375 8.882812 C 6.871094 8.96875 6.996094 8.976562 7.011719 9 C 7.027344 9.03125 6.933594 9.121094 7 9.257812 C 7.035156 9.332031 7.109375 9.394531 7.179688 9.433594 C 7.261719 9.476562 7.332031 9.492188 7.332031 9.492188 C 7.332031 9.492188 7.304688 9.382812 7.367188 9.304688 C 7.398438 9.261719 7.464844 9.246094 7.476562 9.25 C 7.496094 9.261719 7.496094 9.300781 7.574219 9.34375 C 7.65625 9.390625 7.761719 9.371094 7.761719 9.371094 C 7.761719 9.371094 7.683594 9.273438 7.753906 9.191406 C 7.800781 9.132812 7.90625 9.109375 7.921875 9.113281 C 7.945312 9.117188 8.035156 9.222656 8.25 9.289062 C 8.351562 9.316406 8.507812 9.328125 8.582031 9.289062 C 8.761719 9.1875 8.769531 9.109375 8.953125 9.074219 C 8.953125 9.074219 8.855469 9.121094 8.757812 9.359375 C 8.675781 9.566406 8.445312 9.644531 8.296875 9.6875 C 8.121094 9.746094 7.921875 9.785156 7.746094 9.867188 C 7.628906 9.921875 7.476562 10.015625 7.34375 10.136719 C 7.207031 10.257812 7.085938 10.449219 7.015625 10.488281 C 6.945312 10.53125 6.347656 10.601562 5.785156 10.414062 C 5.226562 10.230469 5.011719 9.945312 4.777344 9.640625 C 4.53125 9.324219 4.304688 9.09375 4.144531 9.035156 C 4 8.984375 3.902344 8.957031 3.773438 8.984375 C 3.675781 9.007812 3.597656 9.066406 3.570312 9.160156 C 3.527344 9.304688 3.558594 9.378906 3.59375 9.425781 C 3.636719 9.476562 3.761719 9.519531 3.761719 9.519531 C 3.761719 9.519531 3.609375 9.492188 3.523438 9.578125 C 3.441406 9.65625 3.417969 9.914062 3.539062 10.011719 C 3.636719 10.09375 3.730469 10.09375 3.730469 10.09375 C 3.730469 10.09375 3.667969 10.097656 3.644531 10.140625 C 3.605469 10.214844 3.570312 10.335938 3.628906 10.421875 C 3.769531 10.628906 3.910156 10.546875 4.0625 10.578125 C 4.277344 10.621094 4.359375 10.636719 4.515625 10.710938 C 4.757812 10.832031 4.988281 11.050781 5.21875 11.277344 C 5.492188 11.546875 5.726562 11.6875 5.800781 11.746094 C 6.425781 12.242188 7.0625 12.183594 7.0625 12.183594 C 7.0625 12.183594 7.011719 12.160156 6.929688 12.117188 C 6.867188 12.082031 6.820312 12.042969 6.84375 12.039062 C 6.886719 12.035156 7.027344 12.082031 7.230469 12.070312 C 7.425781 12.058594 7.515625 12.011719 7.539062 12.015625 C 7.570312 12.023438 7.515625 12.347656 7.304688 12.539062 C 7.09375 12.726562 6.960938 12.765625 6.726562 12.78125 C 6.53125 12.796875 5.839844 12.878906 5.691406 12.855469 C 5.539062 12.832031 5.289062 12.71875 5.1875 12.703125 C 5.085938 12.6875 5.011719 12.664062 4.902344 12.761719 C 4.792969 12.855469 4.691406 13.09375 4.746094 13.214844 C 4.800781 13.332031 4.972656 13.34375 4.972656 13.34375 C 4.972656 13.34375 4.738281 13.34375 4.652344 13.46875 C 4.578125 13.574219 4.535156 13.707031 4.628906 13.917969 C 4.683594 14.035156 4.820312 14.136719 4.917969 14.125 C 5.007812 14.113281 5.128906 14.019531 5.128906 14.019531 C 5.128906 14.019531 4.996094 14.179688 5.054688 14.269531 C 5.109375 14.359375 5.289062 14.441406 5.4375 14.433594 C 5.582031 14.425781 5.730469 14.210938 5.824219 14.074219 C 5.929688 13.921875 6.074219 13.871094 6.238281 13.804688 C 6.421875 13.726562 7.554688 13.585938 7.730469 13.617188 C 7.910156 13.648438 7.90625 13.65625 8.007812 13.679688 C 8.007812 13.679688 7.996094 13.625 7.957031 13.554688 C 7.90625 13.46875 7.855469 13.425781 7.867188 13.410156 C 7.882812 13.390625 8.125 13.386719 8.324219 13.433594 C 8.550781 13.484375 8.738281 13.628906 8.738281 13.628906 C 8.738281 13.628906 8.574219 13.578125 8.402344 13.59375 C 8.292969 13.605469 8.199219 13.632812 8.199219 13.632812 C 8.214844 13.660156 8.21875 13.675781 8.230469 13.710938 C 8.257812 13.789062 8.285156 13.894531 8.269531 13.894531 C 8.246094 13.894531 8.15625 13.863281 8.042969 13.84375 C 7.90625 13.816406 7.855469 13.792969 7.738281 13.804688 C 7.664062 13.808594 6.875 14.007812 6.628906 14.460938 C 6.398438 14.890625 6.519531 15.140625 6.589844 15.273438 C 6.664062 15.40625 6.882812 15.59375 6.957031 15.652344 C 7.066406 15.738281 7.460938 15.917969 7.457031 15.953125 C 7.457031 15.988281 7.199219 16.082031 6.910156 16.113281 C 6.617188 16.144531 6.195312 16.039062 6.066406 15.894531 C 5.980469 15.796875 5.804688 15.5 5.699219 15.382812 C 5.59375 15.265625 5.324219 15.140625 5.152344 15.210938 C 5.035156 15.257812 4.980469 15.351562 4.933594 15.445312 C 4.886719 15.539062 4.929688 15.621094 4.960938 15.652344 C 4.984375 15.671875 5.050781 15.714844 5.050781 15.714844 C 5.050781 15.714844 4.976562 15.695312 4.894531 15.761719 C 4.824219 15.820312 4.78125 15.890625 4.765625 16.050781 C 4.753906 16.191406 4.800781 16.28125 4.863281 16.335938 C 4.929688 16.390625 5.019531 16.378906 5.019531 16.378906 C 5.019531 16.378906 4.886719 16.421875 4.878906 16.515625 C 4.875 16.613281 4.9375 16.773438 5.0625 16.832031 C 5.1875 16.890625 5.632812 16.820312 5.832031 16.796875 C 5.976562 16.78125 6.242188 16.816406 6.386719 16.910156 C 6.480469 16.96875 6.550781 17.074219 6.636719 17.140625 C 6.699219 17.1875 6.8125 17.203125 6.890625 17.148438 C 6.953125 17.101562 6.957031 17.046875 7 17.011719 C 7.039062 16.980469 7.0625 16.957031 7.359375 16.9375 C 7.605469 16.917969 7.703125 17.015625 7.742188 17.074219 C 7.757812 17.097656 7.765625 17.074219 7.773438 17.148438 C 7.789062 17.261719 7.75 17.300781 7.75 17.300781 C 7.75 17.300781 7.886719 17.296875 7.992188 17.230469 C 8.050781 17.195312 8.128906 17.136719 8.140625 17.121094 C 8.15625 17.105469 8.203125 17.085938 8.214844 17.140625 C 8.230469 17.207031 8.203125 17.230469 8.203125 17.230469 C 8.203125 17.230469 8.339844 17.210938 8.4375 17.148438 C 8.550781 17.078125 8.582031 17.039062 8.617188 17.03125 C 8.640625 17.03125 8.65625 17.054688 8.636719 17.132812 C 8.636719 17.132812 9.070312 17.050781 9.027344 16.574219 C 8.964844 15.945312 8.898438 15.695312 8.960938 15.441406 C 9.019531 15.191406 9.25 14.945312 9.25 14.945312 L 9.34375 15.089844 C 9.34375 15.089844 9.175781 15.324219 9.15625 15.625 C 9.140625 15.808594 9.199219 16.175781 9.257812 16.347656 C 9.328125 16.550781 9.441406 16.71875 9.492188 16.785156 C 9.605469 16.921875 9.691406 16.933594 9.691406 16.933594 C 9.691406 16.933594 9.691406 16.898438 9.707031 16.835938 C 9.722656 16.792969 9.761719 16.789062 9.765625 16.792969 C 9.789062 16.796875 9.800781 16.863281 9.875 16.929688 C 9.960938 17 10.183594 17.03125 10.183594 17.03125 C 10.183594 17.03125 10.167969 17 10.171875 16.945312 C 10.175781 16.898438 10.207031 16.863281 10.222656 16.867188 C 10.242188 16.871094 10.222656 16.90625 10.359375 16.972656 C 10.484375 17.039062 10.621094 17.003906 10.621094 17.003906 C 10.621094 17.003906 10.59375 16.96875 10.59375 16.933594 C 10.59375 16.886719 10.621094 16.851562 10.636719 16.847656 C 10.65625 16.84375 10.628906 16.867188 10.789062 16.898438 C 10.945312 16.929688 11.039062 16.832031 11.039062 16.832031 C 11.039062 16.832031 10.972656 16.769531 10.9375 16.699219 C 10.914062 16.660156 10.925781 16.617188 10.945312 16.59375 C 10.96875 16.566406 11.171875 16.5625 11.269531 16.699219 C 11.351562 16.816406 11.417969 17.355469 11.390625 17.660156 C 11.371094 17.878906 11.160156 18.277344 10.855469 18.464844 C 10.59375 18.621094 10.503906 18.554688 10.410156 18.488281 C 10.304688 18.410156 10.117188 18.25 9.992188 18.230469 C 9.871094 18.214844 9.75 18.214844 9.652344 18.234375 C 9.570312 18.253906 9.609375 18.238281 9.464844 18.277344 C 9.367188 18.304688 9.203125 18.355469 9.136719 18.480469 C 9.078125 18.59375 9.085938 18.792969 9.179688 18.863281 C 9.269531 18.929688 9.355469 18.945312 9.398438 18.902344 C 9.398438 18.902344 9.351562 18.945312 9.3125 19.011719 C 9.257812 19.105469 9.257812 19.191406 9.347656 19.332031 C 9.425781 19.449219 9.554688 19.5 9.617188 19.503906 C 9.71875 19.511719 9.777344 19.480469 9.777344 19.480469 C 9.777344 19.480469 9.796875 19.476562 9.851562 19.410156 C 9.851562 19.410156 9.734375 19.582031 9.800781 19.699219 C 9.832031 19.753906 9.941406 19.816406 10.058594 19.816406 C 10.222656 19.816406 10.375 19.789062 10.445312 19.75 C 10.5625 19.683594 10.664062 19.609375 10.75 19.535156 C 10.90625 19.402344 11.042969 19.242188 11.25 19.109375 C 11.363281 19.039062 11.8125 18.800781 12.023438 18.757812 C 12.144531 18.734375 12.199219 18.722656 12.273438 18.65625 C 12.34375 18.589844 12.414062 18.417969 12.339844 18.265625 C 12.269531 18.109375 12.328125 17.894531 12.386719 17.601562 C 12.445312 17.308594 12.519531 17.113281 12.613281 17.046875 C 12.707031 16.980469 12.8125 16.988281 13 16.867188 C 13.199219 16.738281 13.175781 16.523438 13.175781 16.523438 C 13.175781 16.523438 13.121094 16.546875 12.96875 16.46875 C 12.84375 16.40625 12.855469 16.328125 12.859375 16.296875 C 12.867188 16.261719 12.902344 16.265625 13.015625 16.167969 C 13.140625 16.054688 13.105469 15.773438 13.105469 15.773438 C 13.105469 15.773438 13.0625 15.835938 12.929688 15.832031 C 12.832031 15.832031 12.742188 15.824219 12.722656 15.742188 C 12.707031 15.65625 12.777344 15.640625 12.792969 15.527344 C 12.816406 15.382812 12.738281 15.289062 12.738281 15.289062 C 12.738281 15.289062 12.683594 15.386719 12.441406 15.402344 C 12.292969 15.410156 12.210938 15.390625 12.148438 15.363281 C 12.058594 15.320312 11.953125 15.210938 11.929688 15.09375 C 11.886719 14.867188 11.96875 14.757812 11.992188 14.730469 C 12.082031 14.632812 12.292969 14.675781 12.554688 14.855469 C 12.851562 15.0625 13.429688 15.347656 13.898438 15.15625 C 14.332031 14.980469 14.730469 14.203125 14.273438 13.546875 C 13.867188 12.960938 12.707031 11.722656 12.578125 11.515625 C 12.460938 11.335938 12.277344 11.03125 12.316406 10.730469 C 12.351562 10.472656 12.46875 10.304688 12.585938 10.207031 C 12.703125 10.109375 12.847656 10.042969 12.886719 10.035156 C 12.925781 10.03125 13.246094 10.21875 13.519531 10.25 C 13.777344 10.28125 14.015625 10.167969 14.195312 10.066406 C 14.34375 9.984375 14.476562 10 14.476562 10 C 14.410156 9.960938 14.429688 9.957031 14.359375 9.929688 C 14.316406 9.914062 14.21875 9.914062 14.21875 9.914062 C 14.21875 9.914062 14.621094 9.796875 14.835938 9.558594 C 15.199219 9.152344 15.257812 8.503906 15.257812 8.503906 "/>
</g>
</svg>
