<?xml version="1.0" encoding="UTF-8"?>
<svg xmlns="http://www.w3.org/2000/svg" xmlns:xlink="http://www.w3.org/1999/xlink" width="35pt" height="25pt" viewBox="0 0 35 25" version="1.1">
<g id="surface1">
<path style=" stroke:none;fill-rule:nonzero;fill:rgb(100%,100%,100%);fill-opacity:1;" d="M 30.25 12.5 C 30.25 19.402344 24.652344 25 17.75 25 C 10.847656 25 5.25 19.402344 5.25 12.5 C 5.25 5.597656 10.847656 0 17.75 0 C 24.652344 0 30.25 5.597656 30.25 12.5 "/>
<path style=" stroke:none;fill-rule:nonzero;fill:rgb(0%,36.470588%,66.666667%);fill-opacity:1;" d="M 15.382812 21.808594 L 15.074219 21.734375 L 14.710938 23.257812 L 14.71875 23.257812 L 15.703125 23.496094 L 15.769531 23.214844 L 15.085938 23.054688 Z M 21.25 21.453125 L 21.5625 22.324219 L 20.683594 21.652344 L 20.417969 21.75 L 20.945312 23.222656 L 21.246094 23.113281 L 20.933594 22.238281 L 21.808594 22.914062 L 21.816406 22.910156 L 22.078125 22.816406 L 21.550781 21.34375 Z M 12.878906 22.574219 L 13.1875 22.703125 L 13.378906 22.484375 L 13.875 22.6875 L 13.855469 22.976562 L 13.863281 22.976562 L 14.167969 23.101562 L 14.230469 21.4375 L 14 21.34375 Z M 13.898438 22.40625 L 13.566406 22.265625 L 13.933594 21.847656 Z M 20.054688 22.25 C 20.023438 22.164062 19.964844 22.09375 19.882812 22.039062 C 19.816406 21.992188 19.746094 21.960938 19.675781 21.945312 C 19.636719 21.9375 19.597656 21.933594 19.554688 21.933594 C 19.515625 21.933594 19.476562 21.9375 19.4375 21.945312 C 19.351562 21.957031 19.277344 21.984375 19.210938 22.027344 C 19.148438 22.066406 19.09375 22.121094 19.046875 22.1875 C 18.992188 22.265625 18.964844 22.351562 18.960938 22.441406 L 18.960938 22.457031 C 18.960938 22.546875 18.976562 22.671875 19.003906 22.828125 C 19.035156 22.996094 19.066406 23.121094 19.097656 23.203125 C 19.128906 23.285156 19.1875 23.359375 19.265625 23.414062 C 19.328125 23.460938 19.402344 23.492188 19.476562 23.507812 C 19.511719 23.515625 19.550781 23.519531 19.59375 23.519531 C 19.632812 23.519531 19.671875 23.515625 19.710938 23.507812 C 19.796875 23.492188 19.871094 23.464844 19.9375 23.425781 C 20 23.386719 20.054688 23.332031 20.097656 23.265625 C 20.15625 23.183594 20.1875 23.097656 20.1875 23.007812 C 20.1875 23.003906 20.1875 23 20.1875 22.996094 C 20.1875 22.910156 20.171875 22.785156 20.144531 22.625 C 20.117188 22.457031 20.085938 22.332031 20.054688 22.25 M 19.871094 22.980469 C 19.871094 23.011719 19.867188 23.035156 19.859375 23.054688 C 19.855469 23.078125 19.847656 23.097656 19.835938 23.117188 C 19.796875 23.175781 19.742188 23.210938 19.664062 23.226562 C 19.644531 23.230469 19.628906 23.230469 19.609375 23.230469 C 19.589844 23.230469 19.574219 23.230469 19.554688 23.226562 C 19.519531 23.21875 19.488281 23.203125 19.464844 23.183594 C 19.445312 23.167969 19.429688 23.152344 19.417969 23.136719 C 19.40625 23.121094 19.394531 23.09375 19.386719 23.066406 C 19.375 23.035156 19.363281 23 19.355469 22.953125 C 19.34375 22.910156 19.332031 22.847656 19.320312 22.773438 C 19.304688 22.695312 19.292969 22.632812 19.289062 22.585938 C 19.28125 22.542969 19.28125 22.507812 19.28125 22.476562 L 19.28125 22.472656 C 19.28125 22.441406 19.285156 22.414062 19.289062 22.394531 C 19.296875 22.375 19.304688 22.355469 19.3125 22.339844 C 19.332031 22.308594 19.355469 22.285156 19.382812 22.265625 C 19.414062 22.246094 19.445312 22.234375 19.488281 22.222656 C 19.503906 22.222656 19.523438 22.21875 19.539062 22.21875 C 19.59375 22.222656 19.644531 22.238281 19.683594 22.269531 C 19.703125 22.285156 19.71875 22.300781 19.730469 22.320312 C 19.742188 22.335938 19.753906 22.359375 19.765625 22.386719 C 19.777344 22.414062 19.789062 22.449219 19.796875 22.496094 C 19.808594 22.542969 19.820312 22.605469 19.832031 22.679688 C 19.847656 22.753906 19.855469 22.816406 19.863281 22.863281 C 19.867188 22.90625 19.871094 22.945312 19.871094 22.972656 Z M 18.0625 22.101562 L 18.136719 23.660156 L 18.144531 23.660156 L 18.457031 23.644531 L 18.378906 22.085938 Z M 17.066406 22.082031 L 16.441406 22.03125 L 16.316406 23.589844 L 16.972656 23.640625 C 16.992188 23.644531 17.007812 23.644531 17.027344 23.644531 C 17.144531 23.644531 17.246094 23.613281 17.328125 23.550781 C 17.421875 23.476562 17.476562 23.367188 17.488281 23.226562 C 17.488281 23.210938 17.488281 23.195312 17.488281 23.183594 C 17.488281 23.109375 17.472656 23.046875 17.441406 22.992188 C 17.40625 22.9375 17.363281 22.894531 17.3125 22.863281 C 17.359375 22.84375 17.398438 22.808594 17.441406 22.761719 C 17.488281 22.707031 17.511719 22.640625 17.519531 22.558594 C 17.519531 22.542969 17.519531 22.527344 17.519531 22.511719 C 17.519531 22.398438 17.484375 22.304688 17.414062 22.226562 C 17.335938 22.140625 17.21875 22.089844 17.066406 22.082031 M 17.171875 23.1875 C 17.164062 23.242188 17.144531 23.28125 17.109375 23.3125 C 17.078125 23.339844 17.039062 23.355469 16.988281 23.355469 C 16.980469 23.355469 16.972656 23.355469 16.960938 23.355469 L 16.65625 23.328125 L 16.6875 22.96875 L 16.992188 22.992188 C 17.054688 22.996094 17.101562 23.015625 17.132812 23.050781 C 17.160156 23.085938 17.171875 23.121094 17.171875 23.167969 C 17.171875 23.171875 17.171875 23.179688 17.171875 23.1875 M 17.199219 22.546875 C 17.195312 22.597656 17.175781 22.636719 17.140625 22.667969 C 17.109375 22.691406 17.070312 22.703125 17.019531 22.703125 C 17.011719 22.703125 17.003906 22.703125 16.996094 22.703125 L 16.710938 22.679688 L 16.734375 22.339844 L 17.023438 22.363281 C 17.085938 22.367188 17.128906 22.386719 17.160156 22.421875 C 17.1875 22.449219 17.199219 22.484375 17.199219 22.53125 C 17.199219 22.535156 17.199219 22.542969 17.199219 22.546875 M 17.75 0.160156 C 10.933594 0.160156 5.410156 5.683594 5.410156 12.5 C 5.410156 19.316406 10.933594 24.839844 17.75 24.839844 C 24.566406 24.839844 30.089844 19.316406 30.089844 12.5 C 30.089844 5.683594 24.566406 0.160156 17.75 0.160156 M 17.75 24.367188 C 11.195312 24.367188 5.882812 19.054688 5.882812 12.5 C 5.882812 5.945312 11.195312 0.632812 17.75 0.632812 C 24.304688 0.632812 29.617188 5.945312 29.617188 12.5 C 29.617188 19.054688 24.304688 24.367188 17.75 24.367188 M 20.402344 3.296875 C 20.46875 3.320312 20.53125 3.332031 20.582031 3.332031 C 20.601562 3.332031 20.613281 3.332031 20.628906 3.332031 C 20.691406 3.324219 20.753906 3.308594 20.820312 3.289062 L 20.820312 3.285156 L 20.882812 3.441406 L 21.246094 3.5625 L 21.078125 3.160156 C 21.144531 3.121094 21.199219 3.070312 21.246094 3.007812 C 21.296875 2.941406 21.335938 2.859375 21.375 2.765625 L 21.378906 2.757812 L 21.113281 2.667969 L 21.109375 2.675781 C 21.070312 2.777344 21.023438 2.851562 20.964844 2.894531 L 20.820312 2.546875 C 20.835938 2.542969 20.859375 2.535156 20.878906 2.527344 C 20.90625 2.519531 20.925781 2.511719 20.941406 2.507812 C 21 2.488281 21.050781 2.460938 21.089844 2.429688 C 21.128906 2.398438 21.160156 2.355469 21.175781 2.300781 C 21.1875 2.261719 21.195312 2.226562 21.195312 2.1875 C 21.199219 2.128906 21.183594 2.074219 21.152344 2.019531 C 21.105469 1.929688 21.023438 1.867188 20.910156 1.828125 C 20.851562 1.8125 20.796875 1.800781 20.746094 1.800781 C 20.691406 1.796875 20.636719 1.808594 20.585938 1.828125 C 20.496094 1.871094 20.433594 1.941406 20.398438 2.042969 C 20.386719 2.078125 20.382812 2.113281 20.382812 2.148438 C 20.378906 2.171875 20.382812 2.195312 20.386719 2.222656 C 20.398438 2.273438 20.417969 2.332031 20.441406 2.390625 C 20.351562 2.414062 20.273438 2.449219 20.203125 2.496094 C 20.132812 2.542969 20.085938 2.609375 20.054688 2.691406 C 20.039062 2.75 20.027344 2.804688 20.027344 2.855469 C 20.027344 2.929688 20.039062 3 20.074219 3.0625 C 20.132812 3.167969 20.242188 3.246094 20.402344 3.296875 M 20.683594 2.140625 C 20.695312 2.109375 20.710938 2.085938 20.738281 2.074219 C 20.753906 2.066406 20.769531 2.0625 20.785156 2.0625 C 20.800781 2.0625 20.816406 2.066406 20.832031 2.070312 C 20.867188 2.082031 20.890625 2.101562 20.902344 2.128906 C 20.910156 2.144531 20.914062 2.160156 20.914062 2.179688 C 20.914062 2.191406 20.914062 2.203125 20.910156 2.214844 C 20.902344 2.238281 20.886719 2.253906 20.867188 2.269531 C 20.847656 2.285156 20.820312 2.296875 20.789062 2.304688 C 20.78125 2.308594 20.769531 2.3125 20.753906 2.3125 C 20.742188 2.316406 20.734375 2.320312 20.722656 2.320312 C 20.703125 2.273438 20.691406 2.238281 20.683594 2.214844 C 20.679688 2.199219 20.675781 2.183594 20.675781 2.171875 C 20.679688 2.160156 20.679688 2.152344 20.683594 2.140625 M 20.332031 2.777344 C 20.347656 2.734375 20.371094 2.699219 20.40625 2.675781 C 20.4375 2.652344 20.480469 2.632812 20.539062 2.617188 L 20.714844 3.03125 C 20.671875 3.050781 20.636719 3.058594 20.601562 3.058594 L 20.578125 3.058594 C 20.546875 3.058594 20.515625 3.054688 20.484375 3.042969 C 20.421875 3.023438 20.375 2.988281 20.347656 2.9375 C 20.332031 2.90625 20.320312 2.875 20.324219 2.839844 C 20.324219 2.820312 20.328125 2.800781 20.332031 2.777344 M 17.753906 2.003906 L 18.347656 2.910156 L 18.628906 2.910156 L 18.628906 1.382812 L 18.3125 1.382812 L 18.3125 2.289062 L 17.71875 1.382812 L 17.4375 1.382812 L 17.4375 2.910156 L 17.753906 2.910156 Z M 25.496094 6.820312 L 26.058594 7.671875 L 26.292969 7.519531 L 25.902344 6.921875 L 26.191406 6.730469 L 26.527344 7.238281 L 26.757812 7.082031 L 26.425781 6.578125 L 26.710938 6.390625 L 27.101562 6.988281 L 27.332031 6.832031 L 26.769531 5.972656 L 25.492188 6.8125 Z M 23.820312 4.5625 C 23.785156 4.625 23.765625 4.699219 23.765625 4.78125 C 23.765625 4.792969 23.765625 4.804688 23.769531 4.820312 C 23.777344 4.898438 23.796875 4.972656 23.832031 5.039062 C 23.863281 5.105469 23.914062 5.164062 23.980469 5.21875 C 24.046875 5.277344 24.113281 5.316406 24.183594 5.339844 C 24.238281 5.359375 24.300781 5.367188 24.363281 5.367188 C 24.378906 5.367188 24.390625 5.367188 24.410156 5.367188 C 24.507812 5.359375 24.589844 5.328125 24.660156 5.273438 C 24.726562 5.21875 24.8125 5.128906 24.921875 5.003906 C 25.03125 4.878906 25.105469 4.773438 25.148438 4.699219 C 25.183594 4.636719 25.203125 4.566406 25.203125 4.492188 C 25.203125 4.476562 25.199219 4.457031 25.199219 4.441406 C 25.191406 4.363281 25.171875 4.289062 25.136719 4.222656 C 25.105469 4.15625 25.054688 4.09375 24.988281 4.039062 C 24.921875 3.984375 24.855469 3.945312 24.785156 3.921875 C 24.726562 3.902344 24.667969 3.890625 24.605469 3.890625 C 24.589844 3.890625 24.574219 3.894531 24.558594 3.894531 C 24.464844 3.898438 24.382812 3.933594 24.3125 3.984375 C 24.242188 4.039062 24.15625 4.132812 24.046875 4.257812 C 23.941406 4.382812 23.863281 4.484375 23.820312 4.5625 M 24.070312 4.816406 C 24.070312 4.800781 24.070312 4.78125 24.078125 4.765625 C 24.082031 4.746094 24.09375 4.722656 24.109375 4.695312 C 24.121094 4.667969 24.144531 4.640625 24.171875 4.601562 C 24.199219 4.566406 24.238281 4.519531 24.289062 4.460938 C 24.335938 4.40625 24.378906 4.359375 24.410156 4.324219 C 24.441406 4.292969 24.46875 4.265625 24.492188 4.246094 C 24.515625 4.230469 24.535156 4.214844 24.554688 4.207031 C 24.574219 4.199219 24.59375 4.191406 24.613281 4.191406 C 24.625 4.1875 24.636719 4.1875 24.644531 4.1875 C 24.667969 4.1875 24.6875 4.191406 24.710938 4.199219 C 24.746094 4.210938 24.777344 4.226562 24.808594 4.253906 C 24.867188 4.304688 24.898438 4.363281 24.898438 4.433594 L 24.898438 4.441406 C 24.898438 4.460938 24.894531 4.480469 24.890625 4.496094 C 24.886719 4.515625 24.875 4.539062 24.859375 4.566406 C 24.847656 4.589844 24.824219 4.621094 24.796875 4.65625 C 24.769531 4.695312 24.730469 4.742188 24.679688 4.800781 C 24.632812 4.855469 24.59375 4.902344 24.5625 4.933594 C 24.527344 4.96875 24.503906 4.996094 24.480469 5.011719 C 24.457031 5.03125 24.433594 5.042969 24.414062 5.054688 C 24.398438 5.0625 24.375 5.066406 24.355469 5.070312 C 24.34375 5.070312 24.332031 5.070312 24.320312 5.070312 C 24.265625 5.070312 24.210938 5.050781 24.160156 5.007812 C 24.132812 4.984375 24.109375 4.953125 24.09375 4.921875 C 24.078125 4.890625 24.070312 4.859375 24.070312 4.828125 Z M 22.90625 3.667969 L 23.332031 3.929688 L 23.003906 4.46875 L 23.007812 4.472656 L 23.269531 4.632812 L 24.070312 3.332031 L 23.804688 3.167969 L 23.480469 3.695312 L 23.050781 3.429688 L 23.375 2.90625 L 23.105469 2.738281 L 22.304688 4.039062 L 22.574219 4.207031 Z M 25.027344 6.246094 L 25.03125 6.242188 L 26.511719 5.621094 L 26.292969 5.371094 L 25.371094 5.785156 L 25.894531 4.917969 L 25.679688 4.671875 L 24.871094 6.066406 Z M 15.902344 2.667969 C 15.933594 2.75 15.984375 2.820312 16.058594 2.878906 C 16.121094 2.929688 16.1875 2.960938 16.261719 2.980469 C 16.308594 2.996094 16.355469 3 16.410156 3 C 16.4375 3 16.46875 3 16.496094 2.996094 C 16.582031 2.984375 16.65625 2.960938 16.722656 2.925781 C 16.789062 2.890625 16.84375 2.839844 16.894531 2.777344 C 16.953125 2.699219 16.988281 2.617188 16.992188 2.53125 C 16.996094 2.511719 16.996094 2.488281 16.996094 2.464844 C 16.996094 2.386719 16.988281 2.28125 16.972656 2.152344 C 16.953125 1.988281 16.925781 1.863281 16.902344 1.78125 C 16.875 1.699219 16.820312 1.628906 16.742188 1.570312 C 16.679688 1.519531 16.613281 1.488281 16.542969 1.46875 C 16.492188 1.453125 16.445312 1.449219 16.394531 1.449219 C 16.363281 1.449219 16.335938 1.449219 16.304688 1.453125 C 16.21875 1.464844 16.144531 1.488281 16.078125 1.523438 C 16.015625 1.5625 15.957031 1.609375 15.90625 1.671875 C 15.847656 1.746094 15.816406 1.828125 15.808594 1.917969 C 15.808594 1.9375 15.808594 1.960938 15.808594 1.988281 C 15.808594 2.066406 15.816406 2.171875 15.832031 2.296875 C 15.851562 2.460938 15.875 2.582031 15.902344 2.667969 M 16.121094 1.960938 C 16.125 1.933594 16.128906 1.90625 16.136719 1.886719 C 16.140625 1.867188 16.152344 1.847656 16.164062 1.832031 C 16.179688 1.804688 16.207031 1.785156 16.234375 1.765625 C 16.265625 1.75 16.300781 1.738281 16.339844 1.730469 C 16.351562 1.730469 16.367188 1.730469 16.378906 1.730469 C 16.441406 1.730469 16.492188 1.75 16.535156 1.785156 C 16.550781 1.800781 16.566406 1.816406 16.574219 1.835938 C 16.585938 1.851562 16.597656 1.875 16.605469 1.902344 C 16.617188 1.929688 16.625 1.96875 16.632812 2.011719 C 16.640625 2.058594 16.648438 2.121094 16.660156 2.195312 C 16.667969 2.265625 16.671875 2.328125 16.675781 2.375 C 16.679688 2.402344 16.679688 2.429688 16.679688 2.453125 C 16.679688 2.464844 16.679688 2.476562 16.679688 2.488281 C 16.675781 2.515625 16.671875 2.539062 16.667969 2.5625 C 16.660156 2.582031 16.652344 2.601562 16.636719 2.617188 C 16.597656 2.675781 16.539062 2.707031 16.464844 2.71875 C 16.449219 2.71875 16.4375 2.71875 16.425781 2.71875 C 16.398438 2.71875 16.375 2.71875 16.351562 2.710938 C 16.320312 2.703125 16.289062 2.6875 16.265625 2.664062 C 16.25 2.648438 16.234375 2.632812 16.226562 2.617188 C 16.214844 2.601562 16.207031 2.578125 16.195312 2.546875 C 16.1875 2.519531 16.175781 2.480469 16.171875 2.4375 C 16.160156 2.394531 16.152344 2.332031 16.144531 2.257812 C 16.132812 2.179688 16.128906 2.121094 16.125 2.074219 C 16.121094 2.046875 16.121094 2.019531 16.121094 1.996094 C 16.121094 1.984375 16.121094 1.972656 16.121094 1.960938 M 10.554688 6.1875 L 10.113281 5.777344 L 10.246094 5.628906 L 10.894531 5.816406 L 10.898438 5.8125 L 11.140625 5.546875 L 10.425781 5.355469 C 10.445312 5.304688 10.457031 5.25 10.457031 5.195312 C 10.457031 5.167969 10.453125 5.144531 10.449219 5.117188 C 10.433594 5.03125 10.390625 4.949219 10.3125 4.882812 C 10.265625 4.839844 10.214844 4.804688 10.15625 4.785156 C 10.109375 4.765625 10.054688 4.753906 10 4.753906 C 9.992188 4.753906 9.988281 4.753906 9.976562 4.757812 C 9.917969 4.757812 9.855469 4.777344 9.792969 4.804688 C 9.734375 4.835938 9.679688 4.882812 9.625 4.9375 L 9.214844 5.386719 L 10.34375 6.417969 Z M 9.917969 5.601562 L 9.632812 5.34375 L 9.820312 5.140625 C 9.863281 5.09375 9.910156 5.070312 9.960938 5.0625 C 9.964844 5.0625 9.972656 5.0625 9.976562 5.0625 C 10.023438 5.0625 10.0625 5.082031 10.101562 5.117188 C 10.144531 5.15625 10.164062 5.199219 10.164062 5.25 C 10.164062 5.304688 10.144531 5.351562 10.101562 5.398438 Z M 9.785156 7.15625 C 9.851562 7.058594 9.882812 6.960938 9.882812 6.867188 C 9.882812 6.84375 9.882812 6.824219 9.878906 6.800781 C 9.859375 6.683594 9.792969 6.589844 9.675781 6.511719 C 9.605469 6.46875 9.539062 6.445312 9.472656 6.445312 C 9.464844 6.445312 9.460938 6.445312 9.453125 6.445312 C 9.390625 6.449219 9.332031 6.46875 9.28125 6.496094 C 9.28125 6.488281 9.28125 6.484375 9.28125 6.476562 C 9.28125 6.433594 9.273438 6.382812 9.253906 6.335938 C 9.230469 6.273438 9.183594 6.21875 9.117188 6.175781 C 9.039062 6.121094 8.957031 6.097656 8.878906 6.097656 C 8.847656 6.097656 8.816406 6.101562 8.785156 6.109375 C 8.671875 6.136719 8.574219 6.21875 8.492188 6.34375 L 8.152344 6.863281 L 9.433594 7.699219 Z M 8.992188 6.695312 L 8.835938 6.933594 L 8.558594 6.753906 L 8.714844 6.515625 C 8.746094 6.464844 8.785156 6.433594 8.828125 6.421875 C 8.84375 6.417969 8.855469 6.417969 8.867188 6.417969 C 8.894531 6.417969 8.925781 6.425781 8.957031 6.445312 C 9 6.476562 9.023438 6.511719 9.03125 6.554688 C 9.03125 6.5625 9.03125 6.570312 9.03125 6.578125 C 9.03125 6.613281 9.019531 6.652344 8.992188 6.695312 M 9.074219 7.089844 L 9.238281 6.835938 C 9.273438 6.78125 9.3125 6.75 9.359375 6.742188 C 9.371094 6.738281 9.382812 6.738281 9.394531 6.738281 C 9.425781 6.738281 9.460938 6.75 9.492188 6.769531 C 9.535156 6.796875 9.5625 6.835938 9.570312 6.882812 C 9.574219 6.890625 9.574219 6.902344 9.574219 6.914062 C 9.574219 6.949219 9.5625 6.988281 9.535156 7.027344 L 9.371094 7.285156 Z M 11.414062 5.308594 L 11.648438 5.109375 L 10.652344 3.949219 L 10.414062 4.152344 L 11.40625 5.316406 Z M 14.738281 2.082031 L 15.070312 3.285156 L 15.375 3.203125 L 15.042969 2 L 15.429688 1.894531 L 15.351562 1.625 L 14.277344 1.921875 L 14.351562 2.191406 Z M 11.570312 4.191406 C 11.660156 4.332031 11.738281 4.429688 11.800781 4.492188 C 11.863281 4.554688 11.941406 4.597656 12.035156 4.613281 C 12.074219 4.621094 12.113281 4.625 12.148438 4.625 C 12.261719 4.625 12.375 4.589844 12.476562 4.523438 C 12.621094 4.425781 12.710938 4.296875 12.738281 4.136719 C 12.746094 4.105469 12.75 4.074219 12.75 4.046875 C 12.75 4 12.742188 3.957031 12.730469 3.914062 C 12.707031 3.839844 12.664062 3.757812 12.601562 3.664062 L 12.476562 3.476562 L 11.988281 3.804688 L 12.132812 4.023438 L 12.359375 3.871094 L 12.386719 3.910156 C 12.40625 3.941406 12.421875 3.976562 12.433594 4.011719 C 12.441406 4.035156 12.445312 4.058594 12.445312 4.082031 C 12.445312 4.089844 12.441406 4.101562 12.441406 4.113281 C 12.429688 4.1875 12.390625 4.246094 12.320312 4.289062 C 12.273438 4.320312 12.226562 4.335938 12.183594 4.335938 C 12.164062 4.335938 12.144531 4.335938 12.125 4.328125 C 12.105469 4.324219 12.085938 4.316406 12.066406 4.304688 C 12.050781 4.296875 12.03125 4.277344 12.011719 4.257812 C 11.988281 4.234375 11.964844 4.203125 11.9375 4.167969 C 11.910156 4.132812 11.875 4.082031 11.835938 4.019531 C 11.792969 3.957031 11.757812 3.902344 11.734375 3.863281 C 11.710938 3.824219 11.695312 3.792969 11.683594 3.761719 C 11.671875 3.738281 11.664062 3.710938 11.660156 3.691406 C 11.660156 3.679688 11.660156 3.671875 11.660156 3.660156 C 11.660156 3.652344 11.660156 3.640625 11.660156 3.628906 C 11.671875 3.5625 11.707031 3.503906 11.773438 3.460938 C 11.816406 3.433594 11.859375 3.414062 11.902344 3.410156 C 11.910156 3.410156 11.921875 3.410156 11.933594 3.410156 C 11.96875 3.410156 12.011719 3.414062 12.058594 3.425781 L 12.066406 3.425781 L 12.128906 3.128906 L 12.121094 3.128906 C 12.0625 3.117188 12.011719 3.113281 11.960938 3.113281 C 11.925781 3.113281 11.890625 3.113281 11.859375 3.121094 C 11.785156 3.136719 11.703125 3.171875 11.617188 3.230469 C 11.476562 3.320312 11.390625 3.445312 11.359375 3.601562 C 11.351562 3.632812 11.351562 3.667969 11.351562 3.699219 C 11.351562 3.757812 11.359375 3.8125 11.382812 3.863281 C 11.414062 3.945312 11.476562 4.054688 11.570312 4.191406 M 13.601562 3.863281 L 13.339844 3.285156 L 13.796875 3.082031 L 14.058594 3.65625 L 14.066406 3.652344 L 14.347656 3.527344 L 13.71875 2.132812 L 13.429688 2.265625 L 13.683594 2.828125 L 13.226562 3.035156 L 12.972656 2.46875 L 12.683594 2.601562 L 13.3125 3.992188 Z M 22.839844 13.273438 C 22.96875 13.273438 23.070312 13.125 23.070312 13.125 C 23.070312 13.125 22.96875 12.980469 22.839844 12.980469 C 22.714844 12.980469 22.613281 13.125 22.613281 13.125 C 22.613281 13.125 22.714844 13.273438 22.839844 13.273438 M 28.804688 11.054688 C 28.652344 10.976562 28.417969 10.867188 28.085938 10.726562 C 27.742188 10.582031 27.03125 10.355469 26.292969 10.160156 C 25.269531 6.402344 21.832031 3.640625 17.75 3.640625 C 13.175781 3.640625 9.414062 7.105469 8.941406 11.550781 C 8.492188 11.621094 8.058594 11.671875 7.6875 11.710938 C 6.945312 11.789062 6.433594 11.816406 6.433594 11.816406 C 6.402344 11.816406 6.382812 11.839844 6.378906 11.867188 C 6.378906 11.867188 6.378906 11.871094 6.378906 11.875 C 6.375 11.914062 6.40625 12.085938 6.6875 12.226562 C 6.964844 12.375 7.496094 12.503906 8.519531 12.507812 C 8.636719 12.507812 8.761719 12.503906 8.890625 12.5 C 8.890625 17.394531 12.855469 21.359375 17.75 21.359375 C 22.644531 21.359375 26.609375 17.394531 26.609375 12.5 C 26.609375 11.945312 26.554688 11.398438 26.457031 10.871094 C 27.371094 11.074219 28.515625 11.332031 28.882812 11.335938 C 28.925781 11.332031 28.957031 11.332031 28.980469 11.324219 C 29.007812 11.316406 29.042969 11.296875 29.042969 11.257812 C 29.027344 11.175781 28.953125 11.144531 28.804688 11.054688 M 28.882812 11.25 C 28.304688 11.25 25.644531 10.558594 25.265625 10.558594 C 24.675781 10.5625 23.347656 11.292969 22.65625 11.742188 C 22.457031 11.871094 22.253906 11.992188 22.050781 12.09375 C 22.101562 12.097656 22.15625 12.101562 22.203125 12.109375 C 22.625 12.160156 22.996094 12.320312 23.296875 12.542969 C 23.683594 12.832031 24.085938 13.183594 24.328125 13.234375 C 24.339844 13.234375 24.351562 13.234375 24.367188 13.234375 C 24.710938 13.269531 25.691406 13.511719 25.660156 14.09375 C 25.660156 14.09375 24.976562 13.886719 24.15625 14.027344 C 23.835938 14.09375 23.363281 14.136719 22.652344 14.363281 C 21.976562 14.578125 20.21875 15.246094 18.84375 15.246094 C 17.796875 15.242188 15.679688 14.640625 14.460938 14.539062 C 14.386719 14.53125 14.3125 14.527344 14.242188 14.527344 C 13.3125 14.527344 12.515625 15.015625 12.117188 15.019531 C 11.753906 15.019531 11.125 14.960938 10.507812 14.5 C 10.035156 14.148438 9.6875 13.636719 9.683594 13.257812 C 9.683594 13.128906 9.730469 13.011719 9.828125 12.933594 C 9.898438 12.878906 9.996094 12.867188 10.125 12.867188 C 10.605469 12.867188 11.554688 13.074219 12.679688 13.074219 C 13.347656 13.074219 14.074219 13.003906 14.796875 12.769531 C 14.964844 12.714844 15.46875 12.597656 15.792969 12.515625 C 15.878906 12.574219 15.972656 12.636719 16.070312 12.707031 C 16.082031 12.714844 16.09375 12.71875 16.101562 12.71875 C 16.121094 12.71875 16.136719 12.710938 16.148438 12.695312 C 16.167969 12.667969 16.160156 12.632812 16.136719 12.617188 C 15.511719 12.179688 15.214844 11.9375 14.167969 11.941406 C 13.5 11.941406 12.527344 12.035156 10.945312 12.222656 C 9.921875 12.347656 9.132812 12.394531 8.519531 12.394531 C 7.503906 12.394531 6.988281 12.261719 6.738281 12.128906 C 6.582031 12.046875 6.523438 11.96875 6.503906 11.925781 C 6.871094 11.902344 8.695312 11.773438 10.3125 11.417969 C 12.144531 11.007812 15.011719 9.863281 16.347656 9.863281 C 16.84375 9.863281 17.707031 10.375 18.5625 10.949219 C 19.421875 11.523438 20.28125 12.15625 20.832031 12.386719 C 20.859375 12.398438 20.890625 12.386719 20.902344 12.359375 C 20.914062 12.328125 20.902344 12.296875 20.871094 12.285156 C 20.558594 12.152344 20.125 11.875 19.640625 11.546875 C 20.304688 11.234375 22.605469 9.851562 24.253906 9.851562 C 25.039062 9.851562 27.355469 10.511719 28.054688 10.804688 C 28.386719 10.945312 28.617188 11.050781 28.765625 11.128906 C 28.839844 11.167969 28.890625 11.199219 28.921875 11.226562 C 28.933594 11.234375 28.941406 11.242188 28.945312 11.246094 C 28.933594 11.25 28.910156 11.25 28.882812 11.25 "/>
<path style=" stroke:none;fill-rule:nonzero;fill:rgb(99.215686%,72.54902%,7.45098%);fill-opacity:1;" d="M 24.15625 14.027344 C 24.976562 13.886719 25.660156 14.09375 25.660156 14.09375 C 25.691406 13.488281 24.625 13.25 24.328125 13.234375 C 24.328125 13.234375 24.480469 13.554688 23.648438 13.617188 C 23.648438 13.617188 23.261719 13.609375 23.101562 13.75 C 23.101562 13.75 23.867188 13.691406 24.136719 13.992188 Z M 24.15625 14.027344 "/>
</g>
</svg>
