<?xml version="1.0" encoding="UTF-8"?>
<svg xmlns="http://www.w3.org/2000/svg" xmlns:xlink="http://www.w3.org/1999/xlink" width="35pt" height="25pt" viewBox="0 0 35 25" version="1.1">
<defs>
<clipPath id="clip1">
  <path d="M 7 0 L 27.921875 0 L 27.921875 24 L 7 24 Z M 7 0 "/>
</clipPath>
<clipPath id="clip2">
  <path d="M 9 0 L 26 0 L 26 24 L 9 24 Z M 9 0 "/>
</clipPath>
<clipPath id="clip3">
  <path d="M 17.519531 23.960938 C 15.351562 22.960938 4.570312 17.945312 8.457031 2.375 C 9.289062 1.964844 17.703125 -1.863281 26.457031 2.300781 C 27.433594 3.367188 30.742188 18.238281 17.519531 23.960938 "/>
</clipPath>
<clipPath id="clip4">
  <path d="M 7 0 L 27.921875 0 L 27.921875 24 L 7 24 Z M 7 0 "/>
</clipPath>
<clipPath id="clip5">
  <path d="M 17.519531 23.960938 C 15.351562 22.960938 4.570312 17.945312 8.457031 2.375 C 9.289062 1.964844 17.703125 -1.863281 26.457031 2.300781 C 27.433594 3.367188 30.742188 18.238281 17.519531 23.960938 "/>
</clipPath>
<clipPath id="clip6">
  <path d="M 7 0 L 27.921875 0 L 27.921875 25 L 7 25 Z M 7 0 "/>
</clipPath>
<clipPath id="clip7">
  <path d="M 9 1 L 26 1 L 26 23 L 9 23 Z M 9 1 "/>
</clipPath>
<clipPath id="clip8">
  <path d="M 17.523438 23.28125 C 15.480469 22.335938 5.324219 17.613281 8.988281 2.941406 C 9.769531 2.554688 17.699219 -1.054688 25.945312 2.871094 C 26.863281 3.878906 29.980469 17.886719 17.523438 23.28125 "/>
</clipPath>
</defs>
<g id="surface1">
<g clip-path="url(#clip1)" clip-rule="nonzero">
<path style=" stroke:none;fill-rule:nonzero;fill:rgb(13.72549%,12.156863%,12.54902%);fill-opacity:1;" d="M 17.519531 23.960938 C 15.351562 22.960938 4.570312 17.945312 8.457031 2.375 C 9.289062 1.964844 17.703125 -1.863281 26.457031 2.300781 C 27.433594 3.367188 30.742188 18.238281 17.519531 23.960938 "/>
</g>
<g clip-path="url(#clip2)" clip-rule="nonzero">
<g clip-path="url(#clip3)" clip-rule="nonzero">
<path style=" stroke:none;fill-rule:nonzero;fill:rgb(100%,94.901961%,0%);fill-opacity:1;" d="M 17.535156 23.367188 C 30.277344 15.089844 24.519531 1.675781 24.488281 1.601562 C 24.488281 1.601562 17.582031 -0.808594 10.691406 1.503906 C 9.414062 3.09375 7.023438 17.449219 17.535156 23.367188 "/>
</g>
</g>
<g clip-path="url(#clip4)" clip-rule="nonzero">
<g clip-path="url(#clip5)" clip-rule="nonzero">
<path style="fill:none;stroke-width:2.64;stroke-linecap:butt;stroke-linejoin:miter;stroke:rgb(13.72549%,12.156863%,12.54902%);stroke-opacity:1;stroke-miterlimit:4;" d="M -0.00423526 0.00636287 C 89.641127 58.240122 49.133076 152.61234 48.913222 153.134493 C 48.913222 153.134493 0.325545 170.090713 -48.152204 153.821536 C -57.138726 142.636477 -73.957537 41.641165 -0.00423526 0.00636287 Z M -0.00423526 0.00636287 " transform="matrix(0.14214,0,0,-0.14214,17.535758,23.368092)"/>
</g>
</g>
<g clip-path="url(#clip6)" clip-rule="nonzero">
<path style=" stroke:none;fill-rule:nonzero;fill:rgb(13.72549%,12.156863%,12.54902%);fill-opacity:1;" d="M 17.515625 24.375 L 17.367188 24.304688 C 16.277344 23.800781 12.960938 22.265625 10.417969 18.855469 C 7.878906 15.449219 6.128906 10.15625 8.09375 2.285156 L 8.136719 2.117188 L 8.292969 2.039062 C 8.742188 1.816406 11.078125 0.746094 14.433594 0.25 C 17.789062 -0.246094 22.160156 -0.160156 26.617188 1.960938 L 26.683594 1.992188 L 26.734375 2.042969 C 26.964844 2.300781 27.089844 2.652344 27.253906 3.195312 C 27.417969 3.738281 27.578125 4.441406 27.703125 5.273438 C 27.949219 6.941406 28.042969 9.117188 27.683594 11.445312 C 26.96875 16.097656 24.402344 21.394531 17.671875 24.308594 Z M 17.519531 23.542969 C 23.894531 20.722656 26.257812 15.769531 26.941406 11.328125 C 27.289062 9.089844 27.195312 6.984375 26.960938 5.386719 C 26.84375 4.585938 26.691406 3.910156 26.539062 3.414062 C 26.402344 2.964844 26.25 2.671875 26.210938 2.601562 C 21.945312 0.597656 17.765625 0.515625 14.539062 0.992188 C 11.503906 1.441406 9.375 2.359375 8.789062 2.636719 C 6.9375 10.230469 8.617188 15.191406 11.019531 18.410156 C 13.355469 21.542969 16.34375 22.996094 17.519531 23.542969 Z M 17.519531 23.542969 "/>
</g>
<path style=" stroke:none;fill-rule:nonzero;fill:rgb(13.72549%,12.156863%,12.54902%);fill-opacity:1;" d="M 17.523438 23.28125 C 15.480469 22.335938 5.324219 17.609375 8.988281 2.941406 C 9.769531 2.554688 17.699219 -1.054688 25.945312 2.871094 C 26.863281 3.878906 29.980469 17.886719 17.523438 23.28125 "/>
<g clip-path="url(#clip7)" clip-rule="nonzero">
<g clip-path="url(#clip8)" clip-rule="nonzero">
<path style=" stroke:none;fill-rule:nonzero;fill:rgb(100%,94.901961%,0%);fill-opacity:1;" d="M 17.535156 22.71875 C 29.542969 14.921875 24.121094 2.28125 24.089844 2.214844 C 24.089844 2.214844 17.582031 -0.0585938 11.089844 2.121094 C 9.886719 3.621094 7.632812 17.144531 17.535156 22.71875 "/>
<path style=" stroke:none;fill-rule:nonzero;fill:rgb(100%,100%,100%);fill-opacity:1;" d="M 17.542969 22.925781 L 17.449219 22.875 C 12.4375 20.054688 10.5 15.214844 9.972656 10.914062 C 9.707031 8.761719 9.792969 6.742188 10.019531 5.160156 C 10.136719 4.371094 10.285156 3.6875 10.449219 3.152344 C 10.609375 2.621094 10.769531 2.234375 10.953125 2.007812 L 10.984375 1.96875 L 11.035156 1.949219 C 17.59375 -0.25 24.152344 2.046875 24.152344 2.046875 L 24.222656 2.074219 L 24.253906 2.144531 C 24.277344 2.199219 25.648438 5.386719 25.503906 9.574219 C 25.363281 13.757812 23.683594 18.9375 17.632812 22.867188 Z M 17.53125 22.507812 C 23.410156 18.648438 25.011719 13.644531 25.148438 9.5625 C 25.285156 5.597656 24.046875 2.574219 23.957031 2.359375 C 23.742188 2.285156 17.5 0.183594 11.207031 2.269531 C 11.089844 2.433594 10.929688 2.769531 10.785156 3.257812 C 10.632812 3.769531 10.484375 4.433594 10.371094 5.210938 C 10.148438 6.761719 10.0625 8.753906 10.324219 10.871094 C 10.839844 15.070312 12.710938 19.746094 17.53125 22.507812 Z M 17.53125 22.507812 "/>
</g>
</g>
<path style=" stroke:none;fill-rule:nonzero;fill:rgb(100%,94.901961%,0%);fill-opacity:1;" d="M 17.519531 23.664062 L 17.378906 23.597656 C 16.355469 23.128906 13.230469 21.679688 10.835938 18.46875 C 8.441406 15.257812 6.792969 10.273438 8.644531 2.855469 L 8.683594 2.699219 L 8.832031 2.625 C 9.257812 2.414062 11.453125 1.410156 14.613281 0.941406 C 17.773438 0.472656 21.894531 0.550781 26.097656 2.550781 L 26.160156 2.582031 L 26.207031 2.632812 C 26.425781 2.875 26.539062 3.203125 26.695312 3.714844 C 26.851562 4.222656 27.003906 4.890625 27.117188 5.675781 C 27.351562 7.246094 27.4375 9.289062 27.101562 11.480469 C 26.425781 15.867188 24.007812 20.859375 17.664062 23.605469 Z M 17.523438 22.886719 C 23.53125 20.230469 25.757812 15.558594 26.402344 11.375 C 26.726562 9.265625 26.636719 7.285156 26.417969 5.777344 C 26.304688 5.023438 26.164062 4.386719 26.019531 3.917969 C 25.890625 3.492188 25.742188 3.21875 25.707031 3.152344 C 21.691406 1.269531 17.753906 1.1875 14.714844 1.636719 C 11.855469 2.0625 9.847656 2.933594 9.296875 3.191406 C 7.554688 10.347656 9.136719 15.015625 11.398438 18.046875 C 13.601562 21 16.414062 22.375 17.523438 22.886719 Z M 17.523438 22.886719 "/>
<path style=" stroke:none;fill-rule:nonzero;fill:rgb(13.72549%,12.156863%,12.54902%);fill-opacity:1;" d="M 17.417969 1.894531 C 17.339844 2.386719 17.304688 2.628906 17.238281 3.121094 C 17.152344 2.632812 17.105469 2.390625 17.003906 1.902344 C 16.773438 1.910156 16.65625 1.917969 16.425781 1.933594 C 16.644531 2.691406 16.84375 3.453125 17.015625 4.222656 C 17.148438 4.21875 17.214844 4.21875 17.34375 4.214844 C 17.414062 3.671875 17.453125 3.402344 17.539062 2.859375 C 17.621094 3.402344 17.65625 3.671875 17.726562 4.21875 C 17.855469 4.21875 17.921875 4.222656 18.050781 4.226562 C 18.226562 3.457031 18.429688 2.691406 18.652344 1.933594 C 18.425781 1.917969 18.3125 1.910156 18.082031 1.902344 C 17.980469 2.402344 17.933594 2.652344 17.84375 3.148438 C 17.777344 2.648438 17.742188 2.398438 17.664062 1.894531 C 17.566406 1.894531 17.515625 1.894531 17.417969 1.894531 Z M 16.324219 1.941406 C 15.835938 1.976562 15.59375 2.007812 15.105469 2.082031 C 15.222656 2.84375 15.335938 3.605469 15.453125 4.367188 C 15.867188 4.304688 16.078125 4.28125 16.492188 4.25 C 16.480469 4.074219 16.472656 3.988281 16.460938 3.8125 C 16.234375 3.828125 16.121094 3.839844 15.894531 3.863281 C 15.867188 3.640625 15.855469 3.527344 15.832031 3.300781 C 16.027344 3.277344 16.125 3.269531 16.324219 3.253906 C 16.308594 3.078125 16.300781 2.988281 16.289062 2.8125 C 16.085938 2.828125 15.984375 2.839844 15.78125 2.863281 C 15.761719 2.695312 15.75 2.609375 15.730469 2.441406 C 15.980469 2.414062 16.105469 2.398438 16.355469 2.378906 C 16.34375 2.203125 16.335938 2.117188 16.324219 1.941406 Z M 18.785156 1.941406 C 18.722656 2.714844 18.660156 3.488281 18.601562 4.261719 C 19.015625 4.292969 19.226562 4.316406 19.640625 4.382812 C 19.667969 4.210938 19.679688 4.121094 19.707031 3.945312 C 19.484375 3.910156 19.371094 3.894531 19.144531 3.867188 C 19.171875 3.640625 19.183594 3.527344 19.210938 3.300781 C 19.40625 3.324219 19.503906 3.335938 19.703125 3.367188 C 19.726562 3.191406 19.742188 3.105469 19.769531 2.929688 C 19.566406 2.898438 19.464844 2.882812 19.261719 2.859375 C 19.28125 2.691406 19.292969 2.605469 19.3125 2.4375 C 19.5625 2.464844 19.683594 2.484375 19.933594 2.523438 C 19.960938 2.347656 19.972656 2.257812 20.003906 2.082031 C 19.519531 2.007812 19.273438 1.980469 18.785156 1.941406 Z M 20.253906 2.125 C 20.117188 2.890625 19.984375 3.652344 19.851562 4.417969 C 20.046875 4.453125 20.148438 4.472656 20.339844 4.515625 C 20.421875 4.140625 20.460938 3.953125 20.539062 3.582031 C 20.675781 3.609375 20.746094 3.625 20.882812 3.65625 C 20.792969 4.027344 20.75 4.214844 20.660156 4.585938 C 20.855469 4.632812 20.953125 4.660156 21.144531 4.710938 C 21.246094 4.34375 21.296875 4.15625 21.398438 3.789062 C 21.296875 3.667969 21.246094 3.605469 21.140625 3.484375 C 21.277344 3.425781 21.34375 3.394531 21.484375 3.335938 C 21.546875 3.097656 21.578125 2.980469 21.644531 2.746094 C 21.527344 2.585938 21.464844 2.507812 21.34375 2.347656 C 20.910156 2.242188 20.691406 2.199219 20.253906 2.125 Z M 14.457031 2.195312 C 14.019531 2.28125 13.800781 2.332031 13.371094 2.449219 C 13.570312 3.191406 13.765625 3.933594 13.964844 4.675781 C 14.160156 4.625 14.257812 4.601562 14.449219 4.554688 C 14.367188 4.1875 14.324219 4.003906 14.238281 3.636719 C 14.375 3.605469 14.445312 3.589844 14.582031 3.558594 C 14.65625 3.929688 14.695312 4.117188 14.773438 4.488281 C 14.964844 4.449219 15.0625 4.429688 15.261719 4.398438 C 15.199219 4.023438 15.167969 3.835938 15.105469 3.464844 C 14.964844 3.394531 14.890625 3.363281 14.746094 3.300781 C 14.84375 3.1875 14.890625 3.132812 14.992188 3.023438 C 14.953125 2.785156 14.933594 2.664062 14.894531 2.425781 C 14.722656 2.332031 14.632812 2.285156 14.457031 2.195312 Z M 22.378906 2.640625 C 22.183594 2.710938 22.085938 2.75 21.894531 2.828125 C 21.816406 3.097656 21.777344 3.234375 21.699219 3.503906 C 21.824219 3.683594 21.882812 3.773438 21.996094 3.957031 C 22.175781 4.027344 22.261719 4.066406 22.4375 4.144531 C 22.371094 4.328125 22.335938 4.417969 22.273438 4.601562 C 22.144531 4.554688 22.078125 4.53125 21.949219 4.488281 C 21.988281 4.371094 22.007812 4.3125 22.046875 4.195312 C 21.847656 4.128906 21.746094 4.097656 21.542969 4.039062 C 21.496094 4.203125 21.46875 4.285156 21.421875 4.453125 C 21.523438 4.617188 21.574219 4.699219 21.667969 4.867188 C 21.910156 4.945312 22.027344 4.984375 22.261719 5.074219 C 22.441406 5 22.53125 4.964844 22.710938 4.898438 C 22.820312 4.628906 22.875 4.496094 22.980469 4.226562 C 22.875 4.039062 22.824219 3.941406 22.710938 3.753906 C 22.53125 3.671875 22.441406 3.632812 22.257812 3.558594 C 22.316406 3.382812 22.34375 3.292969 22.402344 3.113281 C 22.546875 3.160156 22.617188 3.1875 22.761719 3.238281 C 22.71875 3.355469 22.699219 3.414062 22.65625 3.53125 C 22.847656 3.597656 22.945312 3.632812 23.132812 3.710938 C 23.199219 3.546875 23.230469 3.464844 23.292969 3.304688 C 23.1875 3.121094 23.132812 3.03125 23.019531 2.855469 C 22.765625 2.761719 22.636719 2.71875 22.378906 2.640625 Z M 12.707031 2.644531 C 12.28125 2.777344 12.070312 2.855469 11.65625 3.019531 C 11.933594 3.730469 12.214844 4.441406 12.496094 5.15625 C 12.863281 5.011719 13.046875 4.945312 13.421875 4.832031 C 13.519531 4.667969 13.570312 4.585938 13.671875 4.425781 C 13.605469 4.183594 13.570312 4.0625 13.503906 3.824219 C 13.351562 3.773438 13.277344 3.75 13.125 3.703125 C 13.207031 3.582031 13.25 3.523438 13.335938 3.402344 C 13.269531 3.167969 13.234375 3.050781 13.171875 2.820312 C 12.988281 2.746094 12.894531 2.710938 12.707031 2.644531 Z M 14.398438 2.65625 C 14.4375 2.847656 14.457031 2.945312 14.496094 3.140625 C 14.355469 3.167969 14.285156 3.183594 14.144531 3.21875 C 14.097656 3.023438 14.078125 2.929688 14.035156 2.734375 C 14.179688 2.703125 14.253906 2.6875 14.398438 2.65625 Z M 20.730469 2.667969 C 20.878906 2.699219 20.949219 2.714844 21.097656 2.75 C 21.050781 2.945312 21.027344 3.039062 20.980469 3.234375 C 20.839844 3.199219 20.769531 3.1875 20.628906 3.15625 C 20.671875 2.960938 20.691406 2.863281 20.730469 2.667969 Z M 12.707031 3.105469 C 12.769531 3.292969 12.796875 3.386719 12.859375 3.574219 C 12.71875 3.617188 12.652344 3.640625 12.515625 3.691406 C 12.449219 3.503906 12.414062 3.410156 12.351562 3.226562 C 12.492188 3.175781 12.5625 3.148438 12.707031 3.105469 Z M 12.988281 3.980469 C 13.050781 4.171875 13.082031 4.265625 13.144531 4.457031 C 13.015625 4.5 12.953125 4.523438 12.824219 4.566406 C 12.757812 4.378906 12.722656 4.28125 12.65625 4.089844 C 12.789062 4.042969 12.855469 4.023438 12.988281 3.980469 Z M 15.238281 18.308594 L 15.234375 19.425781 L 15.730469 19.425781 L 15.730469 19.21875 L 15.46875 19.21875 L 15.46875 18.9375 L 15.6875 18.9375 L 15.6875 18.730469 L 15.472656 18.730469 L 15.472656 18.523438 L 15.734375 18.523438 L 15.734375 18.3125 Z M 16 18.3125 L 15.835938 18.464844 L 15.835938 18.804688 L 16.011719 18.96875 L 16.21875 18.988281 L 16.21875 19.21875 L 16.066406 19.21875 L 16.066406 19.070312 L 15.832031 19.070312 L 15.832031 19.273438 L 15.996094 19.425781 L 16.289062 19.429688 L 16.453125 19.273438 L 16.457031 18.933594 L 16.277344 18.765625 L 16.066406 18.75 L 16.066406 18.523438 L 16.21875 18.523438 L 16.21875 18.675781 L 16.433594 18.675781 L 16.433594 18.464844 L 16.269531 18.3125 Z M 16.539062 18.3125 L 16.539062 18.527344 L 16.699219 18.527344 L 16.699219 19.429688 L 16.933594 19.429688 L 16.9375 18.527344 L 17.101562 18.527344 L 17.101562 18.3125 Z M 17.804688 18.316406 L 17.605469 18.363281 L 17.605469 18.527344 L 17.738281 18.527344 L 17.734375 19.433594 L 17.96875 19.433594 L 17.972656 18.316406 Z M 18.425781 18.316406 L 18.257812 18.46875 L 18.257812 18.832031 L 18.421875 18.984375 L 18.644531 18.984375 L 18.644531 19.222656 L 18.484375 19.222656 L 18.484375 19.074219 L 18.257812 19.074219 L 18.257812 19.28125 L 18.421875 19.433594 L 18.714844 19.433594 L 18.882812 19.28125 L 18.882812 18.472656 L 18.714844 18.316406 Z M 19 18.320312 L 18.996094 18.796875 L 19.160156 18.949219 L 19.367188 18.953125 L 19.363281 19.222656 L 19.203125 19.222656 L 19.203125 19.058594 L 18.976562 19.058594 L 18.976562 19.28125 L 19.140625 19.433594 L 19.433594 19.433594 L 19.597656 19.28125 L 19.601562 18.890625 L 19.433594 18.738281 L 19.210938 18.738281 L 19.210938 18.53125 L 19.523438 18.53125 L 19.523438 18.320312 Z M 19.867188 18.320312 L 19.703125 18.472656 L 19.699219 19.28125 L 19.867188 19.4375 L 20.15625 19.4375 L 20.320312 19.285156 L 20.324219 18.476562 L 20.15625 18.320312 Z M 18.492188 18.53125 L 18.644531 18.53125 L 18.644531 18.773438 L 18.492188 18.773438 Z M 19.9375 18.53125 L 20.089844 18.535156 L 20.089844 19.226562 L 19.933594 19.226562 Z M 19.9375 18.53125 "/>
<path style=" stroke:none;fill-rule:nonzero;fill:rgb(99.215686%,91.372549%,16.862745%);fill-opacity:1;" d="M 23.585938 11.285156 C 23.585938 14.484375 20.996094 17.074219 17.800781 17.074219 C 14.601562 17.074219 12.011719 14.484375 12.011719 11.285156 C 12.011719 8.089844 14.601562 5.5 17.800781 5.5 C 20.996094 5.5 23.585938 8.089844 23.585938 11.285156 "/>
<path style=" stroke:none;fill-rule:nonzero;fill:rgb(13.72549%,12.156863%,12.54902%);fill-opacity:1;" d="M 17.800781 17.199219 C 14.535156 17.199219 11.890625 14.550781 11.890625 11.285156 C 11.890625 8.023438 14.535156 5.378906 17.800781 5.378906 C 21.0625 5.378906 23.710938 8.023438 23.710938 11.285156 C 23.710938 14.550781 21.0625 17.199219 17.800781 17.199219 Z M 17.800781 16.953125 C 20.929688 16.953125 23.460938 14.417969 23.460938 11.285156 C 23.460938 8.15625 20.929688 5.625 17.800781 5.625 C 14.667969 5.625 12.136719 8.15625 12.136719 11.285156 C 12.136719 14.417969 14.667969 16.953125 17.800781 16.953125 Z M 17.800781 16.953125 "/>
<path style=" stroke:none;fill-rule:nonzero;fill:rgb(99.215686%,91.372549%,16.862745%);fill-opacity:1;" d="M 18.636719 8.476562 L 19.652344 8.390625 C 19.652344 8.390625 19.789062 7.957031 19.984375 8.007812 C 20.152344 7.976562 20.351562 8.152344 20.351562 8.152344 C 20.351562 8.152344 20.785156 8.226562 20.636719 8.589844 C 20.636719 8.859375 20.484375 8.972656 20.382812 9.011719 C 20.304688 9.117188 20.085938 9.050781 20.085938 9.050781 C 20.085938 9.050781 19.539062 9.253906 19.433594 9.28125 C 19.367188 9.296875 19.074219 9.320312 19.074219 9.320312 L 18.636719 8.476562 "/>
<path style="fill:none;stroke-width:1.012;stroke-linecap:butt;stroke-linejoin:miter;stroke:rgb(13.72549%,12.156863%,12.54902%);stroke-opacity:1;stroke-miterlimit:4;" d="M -0.00238559 -0.00933726 L 7.142861 0.595261 C 7.142861 0.595261 8.104721 3.645731 9.478807 3.288469 C 10.660521 3.508323 12.062088 2.271645 12.062088 2.271645 C 12.062088 2.271645 15.112559 1.749493 14.068254 -0.806307 C 14.068254 -2.702546 12.996467 -3.499515 12.281942 -3.774333 C 11.732308 -4.516339 10.193332 -4.04915 10.193332 -4.04915 C 10.193332 -4.04915 6.345891 -5.478199 5.603885 -5.670571 C 5.136696 -5.780498 3.075567 -5.945388 3.075567 -5.945388 Z M -0.00238559 -0.00933726 " transform="matrix(0.14214,0,0,-0.14214,18.637058,8.475235)"/>
<path style=" stroke:none;fill-rule:nonzero;fill:rgb(99.215686%,91.372549%,16.862745%);fill-opacity:1;" d="M 14.65625 7.464844 L 13.71875 6.210938 C 13.71875 6.210938 14.824219 5.542969 15.316406 5.503906 C 17.054688 5.386719 16.617188 7.285156 16.617188 7.285156 C 16.617188 7.285156 18.042969 7.390625 18.726562 8.566406 C 19.519531 9.707031 18.726562 10.941406 18.726562 10.941406 L 18.777344 11.046875 C 18.777344 11.046875 19.199219 10.925781 19.324219 10.890625 C 21.046875 12.085938 22.097656 11.242188 22.097656 11.242188 C 22.097656 11.242188 22.785156 11.136719 23.03125 10.683594 C 23.191406 10.773438 23.292969 10.832031 23.292969 10.832031 C 23.292969 10.832031 23.222656 11.472656 22.765625 11.839844 C 22.808594 11.984375 22.875 12.035156 22.875 12.035156 C 22.875 12.035156 22.648438 12.304688 22.503906 12.46875 C 22.335938 12.46875 22.0625 12.3125 22.0625 12.3125 C 22.0625 12.3125 20.300781 13.027344 19.460938 12.492188 C 19.378906 12.574219 19.214844 12.796875 19.214844 12.796875 L 17.859375 12.789062 C 17.859375 12.789062 17.179688 14.070312 17.089844 14.179688 C 15.0625 14.511719 15.3125 16.59375 15.3125 16.59375 C 15.3125 16.59375 15.40625 16.8125 15.742188 17.003906 C 15.8125 17.121094 15.78125 17.398438 15.550781 17.457031 C 15.136719 17.582031 14.664062 16.8125 14.664062 16.8125 L 14.503906 16.867188 L 14.191406 16.476562 C 14.191406 16.476562 14.441406 16.210938 14.503906 16.082031 C 14.503906 15.960938 14.652344 14.207031 15.367188 13.964844 C 15.53125 13.929688 15.53125 13.96875 15.660156 13.902344 C 16.003906 13.277344 15.988281 12.65625 15.988281 12.65625 C 15.988281 12.65625 15.390625 11.679688 16.105469 10.820312 C 16.167969 10.703125 16.105469 9.957031 16.105469 9.957031 L 15.4375 9.011719 L 14.894531 8.75 C 14.894531 8.75 14.316406 8.960938 14.839844 10.449219 C 15.550781 10.582031 15.496094 11.195312 15.15625 11.433594 C 14.839844 11.671875 14.371094 11.644531 14.261719 10.925781 C 13.503906 10.144531 13.460938 9.691406 13.476562 9.203125 C 13.492188 8.15625 14.65625 7.464844 14.65625 7.464844 "/>
<path style="fill:none;stroke-width:1.012;stroke-linecap:butt;stroke-linejoin:miter;stroke:rgb(13.72549%,12.156863%,12.54902%);stroke-opacity:1;stroke-miterlimit:4;" d="M -0.00625761 -0.00757061 L -6.60187 8.814061 C -6.60187 8.814061 1.175456 13.513434 4.638153 13.788252 C 16.867517 14.612703 13.789565 1.256588 13.789565 1.256588 C 13.789565 1.256588 23.820391 0.514582 28.629692 -7.757415 C 34.208481 -15.782076 28.629692 -24.466299 28.629692 -24.466299 L 28.986954 -25.208306 C 28.986954 -25.208306 31.95498 -24.356372 32.834395 -24.109037 C 44.953832 -32.518442 52.346414 -26.582391 52.346414 -26.582391 C 52.346414 -26.582391 57.183197 -25.840385 58.914545 -22.652506 C 60.041295 -23.284585 60.75582 -23.696811 60.75582 -23.696811 C 60.75582 -23.696811 60.261149 -28.203813 57.045788 -30.787094 C 57.348087 -31.803918 57.815276 -32.16118 57.815276 -32.16118 C 57.815276 -32.16118 56.221336 -34.057419 55.204513 -35.211651 C 54.022799 -35.211651 52.099079 -34.112382 52.099079 -34.112382 C 52.099079 -34.112382 39.704824 -39.141536 33.796255 -35.376541 C 33.219139 -35.953657 32.064907 -37.520115 32.064907 -37.520115 L 22.528751 -37.465152 C 22.528751 -37.465152 17.746932 -46.479155 17.114852 -47.248643 C 2.851841 -49.584589 4.610671 -64.232344 4.610671 -64.232344 C 4.610671 -64.232344 5.270232 -65.771321 7.63366 -67.117925 C 8.128331 -67.942376 7.908477 -69.893578 6.287056 -70.305804 C 3.373994 -71.185219 0.0487058 -65.771321 0.0487058 -65.771321 L -1.078045 -66.156065 L -3.276582 -63.407893 C -3.276582 -63.407893 -1.517752 -61.539136 -1.078045 -60.632239 C -1.078045 -59.780306 -0.0337393 -47.441015 4.995415 -45.737149 C 6.149647 -45.489813 6.149647 -45.76463 7.056544 -45.297441 C 9.474935 -40.900366 9.365008 -36.530773 9.365008 -36.530773 C 9.365008 -36.530773 5.160305 -29.660344 10.18946 -23.614366 C 10.629167 -22.789914 10.18946 -17.540906 10.18946 -17.540906 L 5.490086 -10.890331 L 1.670127 -9.049056 C 1.670127 -9.049056 -2.397167 -10.533068 1.285383 -21.003603 C 6.287056 -21.937981 5.902312 -26.252611 3.511402 -27.928996 C 1.285383 -29.60538 -2.012423 -29.413008 -2.781911 -24.356372 C -8.113364 -18.860029 -8.415663 -15.67215 -8.305736 -12.236935 C -8.195809 -4.871835 -0.00625761 -0.00757061 -0.00625761 -0.00757061 Z M -0.00625761 -0.00757061 " transform="matrix(0.14214,0,0,-0.14214,14.657139,7.463768)"/>
<path style="fill-rule:nonzero;fill:rgb(13.72549%,12.156863%,12.54902%);fill-opacity:1;stroke-width:0.404;stroke-linecap:butt;stroke-linejoin:miter;stroke:rgb(13.72549%,12.156863%,12.54902%);stroke-opacity:1;stroke-miterlimit:4;" d="M -0.00488394 0.010011 L -2.34083 1.10928 C -2.34083 1.10928 3.787593 12.266857 -0.829335 27.052021 C -4.154623 40.518063 -14.515231 53.077208 -14.515231 53.077208 C -14.515231 53.077208 -9.018887 58.07888 -2.862983 53.626842 C 1.01194 49.559548 -3.687434 42.359338 -3.687434 42.359338 L -3.357653 41.727258 C -3.357653 41.727258 10.410687 41.892148 13.598566 34.334676 C 17.061263 28.288698 9.888534 19.02736 9.888534 19.02736 C 9.888534 19.02736 16.319256 15.207401 22.502643 14.932584 C 22.502643 13.585979 22.61257 13.695906 22.117899 12.32182 C 16.209329 12.211894 8.651857 16.911267 8.651857 16.911267 C 8.651857 16.911267 4.941825 12.706565 3.677666 11.469887 C 3.10055 4.79183 -0.00488394 0.010011 -0.00488394 0.010011 Z M -0.00488394 0.010011 " transform="matrix(0.14214,0,0,-0.14214,16.500694,13.786579)"/>
<path style=" stroke:none;fill-rule:nonzero;fill:rgb(99.215686%,91.372549%,16.862745%);fill-opacity:1;" d="M 15.445312 6.273438 C 15.324219 6.277344 15.171875 6.304688 14.984375 6.363281 C 15.035156 6.457031 15.703125 7.476562 15.703125 7.476562 C 15.703125 7.476562 16.300781 6.257812 15.445312 6.273438 Z M 16.097656 8.21875 C 16.09375 8.230469 16.171875 8.371094 16.71875 9.777344 C 16.71875 9.777344 17.238281 10.648438 17.628906 10.847656 C 17.824219 10.597656 18.339844 9.871094 18.164062 9.203125 C 18.070312 8.867188 17.574219 8.269531 16.097656 8.21875 Z M 16.964844 10.769531 L 17.023438 11.601562 L 17.394531 11.167969 Z M 16.964844 10.769531 "/>
<path style="fill:none;stroke-width:0.101;stroke-linecap:butt;stroke-linejoin:miter;stroke:rgb(13.72549%,12.156863%,12.54902%);stroke-opacity:1;stroke-miterlimit:4;" d="M 0.00420871 0.0132726 C 10.557188 3.393524 5.060845 -7.846499 5.060845 -7.846499 C 5.060845 -7.846499 0.361471 -0.646289 0.00420871 0.0132726 Z M 0.00420871 0.0132726 " transform="matrix(0.14214,0,0,-0.14214,14.983777,6.365168)"/>
<path style=" stroke:none;fill-rule:nonzero;fill:rgb(99.215686%,91.372549%,16.862745%);fill-opacity:1;" d="M 23.308594 6.683594 C 23.308594 7.449219 22.6875 8.070312 21.925781 8.070312 C 21.15625 8.070312 20.535156 7.449219 20.535156 6.683594 C 20.535156 5.917969 21.15625 5.292969 21.925781 5.292969 C 22.6875 5.292969 23.308594 5.917969 23.308594 6.683594 "/>
<path style=" stroke:none;fill-rule:nonzero;fill:rgb(13.72549%,12.156863%,12.54902%);fill-opacity:1;" d="M 21.925781 8.144531 C 21.117188 8.144531 20.460938 7.488281 20.460938 6.683594 C 20.460938 5.878906 21.117188 5.222656 21.925781 5.222656 C 22.726562 5.222656 23.378906 5.878906 23.378906 6.683594 C 23.378906 7.488281 22.726562 8.144531 21.925781 8.144531 Z M 21.925781 8 C 22.648438 8 23.238281 7.410156 23.238281 6.683594 C 23.238281 5.957031 22.648438 5.363281 21.925781 5.363281 C 21.191406 5.363281 20.605469 5.957031 20.605469 6.683594 C 20.605469 7.410156 21.191406 8 21.925781 8 Z M 21.925781 8 "/>
<path style=" stroke:none;fill-rule:nonzero;fill:rgb(13.72549%,12.156863%,12.54902%);fill-opacity:1;" d="M 21.996094 5.46875 C 21.167969 5.820312 21.949219 7.085938 22.683594 7.007812 C 22.96875 6.976562 23.128906 6.785156 23.128906 6.785156 C 23.128906 6.785156 23.058594 6.691406 22.910156 6.511719 C 22.726562 6.71875 22.488281 6.597656 22.488281 6.597656 C 22.488281 6.597656 22.195312 6.480469 22.035156 6.152344 C 21.925781 5.964844 22.128906 5.792969 22.128906 5.792969 C 22.128906 5.792969 22.058594 5.574219 21.996094 5.46875 Z M 21.160156 5.882812 C 21.160156 5.882812 20.828125 6.367188 20.792969 6.480469 C 20.792969 6.609375 20.816406 7.824219 22.257812 7.890625 C 22.289062 7.734375 22.328125 7.582031 22.3125 7.554688 C 21.621094 7.523438 21.484375 7.21875 21.484375 7.21875 L 21.769531 6.84375 L 21.460938 6.601562 L 21.253906 6.855469 L 21.191406 6.546875 L 21.460938 6.074219 Z M 21.160156 5.882812 "/>
<path style=" stroke:none;fill-rule:nonzero;fill:rgb(100%,100%,100%);fill-opacity:1;" d="M 20.566406 24.335938 L 20.699219 24.335938 C 20.761719 24.335938 20.808594 24.324219 20.832031 24.304688 C 20.855469 24.285156 20.863281 24.261719 20.863281 24.230469 C 20.863281 24.210938 20.859375 24.191406 20.847656 24.175781 C 20.835938 24.160156 20.820312 24.148438 20.800781 24.140625 C 20.78125 24.132812 20.746094 24.128906 20.691406 24.128906 L 20.566406 24.128906 Z M 20.457031 24.71875 L 20.457031 24.035156 L 20.691406 24.035156 C 20.769531 24.035156 20.828125 24.042969 20.863281 24.054688 C 20.898438 24.066406 20.929688 24.089844 20.949219 24.121094 C 20.972656 24.152344 20.980469 24.1875 20.980469 24.222656 C 20.980469 24.269531 20.964844 24.3125 20.929688 24.351562 C 20.894531 24.386719 20.847656 24.410156 20.785156 24.414062 C 20.8125 24.421875 20.832031 24.433594 20.84375 24.449219 C 20.871094 24.476562 20.90625 24.519531 20.945312 24.585938 L 21.027344 24.71875 L 20.894531 24.71875 L 20.832031 24.609375 C 20.785156 24.527344 20.75 24.472656 20.71875 24.453125 C 20.699219 24.4375 20.667969 24.429688 20.632812 24.429688 L 20.566406 24.429688 L 20.566406 24.71875 Z M 20.734375 23.839844 C 20.644531 23.839844 20.558594 23.863281 20.476562 23.910156 C 20.390625 23.953125 20.324219 24.019531 20.277344 24.105469 C 20.230469 24.1875 20.207031 24.277344 20.207031 24.367188 C 20.207031 24.460938 20.230469 24.546875 20.277344 24.628906 C 20.324219 24.714844 20.386719 24.777344 20.472656 24.824219 C 20.554688 24.871094 20.644531 24.894531 20.734375 24.894531 C 20.824219 24.894531 20.914062 24.871094 20.996094 24.824219 C 21.082031 24.777344 21.144531 24.714844 21.191406 24.628906 C 21.238281 24.546875 21.261719 24.460938 21.261719 24.367188 C 21.261719 24.277344 21.238281 24.1875 21.191406 24.105469 C 21.144531 24.019531 21.078125 23.953125 20.992188 23.910156 C 20.910156 23.863281 20.824219 23.839844 20.734375 23.839844 Z M 20.734375 23.734375 C 20.839844 23.734375 20.945312 23.761719 21.046875 23.816406 C 21.144531 23.871094 21.226562 23.949219 21.28125 24.050781 C 21.339844 24.152344 21.367188 24.257812 21.367188 24.367188 C 21.367188 24.476562 21.339844 24.582031 21.28125 24.683594 C 21.226562 24.78125 21.148438 24.859375 21.050781 24.917969 C 20.949219 24.972656 20.84375 25 20.734375 25 C 20.625 25 20.519531 24.972656 20.417969 24.917969 C 20.320312 24.859375 20.242188 24.78125 20.183594 24.683594 C 20.128906 24.582031 20.101562 24.476562 20.101562 24.367188 C 20.101562 24.257812 20.128906 24.152344 20.1875 24.050781 C 20.242188 23.949219 20.324219 23.871094 20.421875 23.816406 C 20.523438 23.761719 20.628906 23.734375 20.734375 23.734375 "/>
</g>
</svg>
