<?xml version="1.0" encoding="UTF-8"?>
<svg xmlns="http://www.w3.org/2000/svg" xmlns:xlink="http://www.w3.org/1999/xlink" width="35pt" height="25pt" viewBox="0 0 35 25" version="1.1">
<g id="surface1">
<path style=" stroke:none;fill-rule:nonzero;fill:rgb(85.882353%,63.137255%,6.666667%);fill-opacity:1;" d="M 30 12.5 C 30 19.402344 24.402344 25 17.5 25 C 10.597656 25 5 19.402344 5 12.5 C 5 5.597656 10.597656 0 17.5 0 C 24.402344 0 30 5.597656 30 12.5 "/>
<path style=" stroke:none;fill-rule:nonzero;fill:rgb(1.176471%,27.45098%,58.039216%);fill-opacity:1;" d="M 29.582031 12.5 C 29.582031 19.171875 24.171875 24.582031 17.5 24.582031 C 10.828125 24.582031 5.417969 19.171875 5.417969 12.5 C 5.417969 5.828125 10.828125 0.417969 17.5 0.417969 C 24.171875 0.417969 29.582031 5.828125 29.582031 12.5 "/>
<path style=" stroke:none;fill-rule:nonzero;fill:rgb(85.882353%,63.137255%,6.666667%);fill-opacity:1;" d="M 26.109375 12.5 C 26.109375 17.253906 22.253906 21.109375 17.5 21.109375 C 12.742188 21.109375 8.890625 17.253906 8.890625 12.5 C 8.890625 7.742188 12.742188 3.890625 17.5 3.890625 C 22.253906 3.890625 26.109375 7.742188 26.109375 12.5 "/>
<path style=" stroke:none;fill-rule:nonzero;fill:rgb(100%,100%,100%);fill-opacity:1;" d="M 25.851562 12.5 C 25.851562 17.113281 22.109375 20.851562 17.5 20.851562 C 12.886719 20.851562 9.148438 17.113281 9.148438 12.5 C 9.148438 7.886719 12.886719 4.148438 17.5 4.148438 C 22.109375 4.148438 25.851562 7.886719 25.851562 12.5 "/>
<path style=" stroke:none;fill-rule:nonzero;fill:rgb(85.882353%,63.137255%,6.666667%);fill-opacity:1;" d="M 10.34375 19.703125 C 10.4375 19.792969 10.664062 20.007812 10.664062 20.007812 L 10.882812 19.777344 L 10.234375 19.160156 L 10.148438 19.246094 L 9.277344 20.160156 L 9.609375 20.476562 C 9.609375 20.476562 9.886719 20.183594 9.988281 20.078125 C 10.074219 20.160156 10.28125 20.355469 10.28125 20.355469 L 10.5 20.125 C 10.5 20.125 10.292969 19.929688 10.207031 19.847656 C 10.261719 19.789062 10.289062 19.761719 10.34375 19.703125 "/>
<path style=" stroke:none;fill-rule:nonzero;fill:rgb(85.882353%,63.137255%,6.666667%);fill-opacity:1;" d="M 11.914062 20.75 C 11.882812 20.574219 11.785156 20.417969 11.636719 20.3125 C 11.488281 20.207031 11.308594 20.164062 11.132812 20.195312 C 10.945312 20.226562 10.773438 20.335938 10.65625 20.503906 C 10.535156 20.671875 10.488281 20.867188 10.519531 21.058594 C 10.550781 21.234375 10.648438 21.386719 10.796875 21.492188 C 10.945312 21.597656 11.125 21.640625 11.300781 21.613281 C 11.488281 21.578125 11.65625 21.46875 11.777344 21.300781 C 11.871094 21.167969 11.921875 21.015625 11.921875 20.863281 C 11.921875 20.824219 11.917969 20.785156 11.914062 20.75 M 10.980469 21.234375 C 10.828125 21.128906 10.953125 20.902344 11.042969 20.777344 C 11.128906 20.65625 11.300781 20.460938 11.453125 20.570312 C 11.609375 20.683594 11.460938 20.929688 11.390625 21.027344 C 11.320312 21.128906 11.136719 21.347656 10.980469 21.234375 Z M 10.980469 21.234375 "/>
<path style=" stroke:none;fill-rule:nonzero;fill:rgb(85.882353%,63.137255%,6.666667%);fill-opacity:1;" d="M 12.933594 21.09375 C 12.585938 20.917969 12.179688 21.0625 11.992188 21.433594 C 11.902344 21.617188 11.882812 21.816406 11.941406 22 C 11.996094 22.167969 12.117188 22.308594 12.28125 22.386719 C 12.445312 22.472656 12.625 22.484375 12.796875 22.429688 C 12.976562 22.371094 13.128906 22.238281 13.222656 22.054688 C 13.410156 21.683594 13.285156 21.273438 12.933594 21.09375 M 12.546875 22.117188 C 12.507812 22.132812 12.46875 22.128906 12.421875 22.105469 C 12.355469 22.070312 12.328125 22.007812 12.328125 21.9375 C 12.328125 21.839844 12.375 21.722656 12.417969 21.644531 C 12.484375 21.507812 12.625 21.292969 12.792969 21.378906 C 12.835938 21.402344 12.863281 21.429688 12.875 21.46875 C 12.902344 21.554688 12.875 21.691406 12.800781 21.839844 C 12.726562 21.988281 12.628906 22.089844 12.546875 22.117188 Z M 12.546875 22.117188 "/>
<path style=" stroke:none;fill-rule:nonzero;fill:rgb(85.882353%,63.137255%,6.666667%);fill-opacity:1;" d="M 13.65625 21.601562 L 13.59375 21.785156 C 13.59375 21.785156 13.757812 21.84375 13.804688 21.859375 C 13.742188 22.039062 13.453125 22.871094 13.453125 22.871094 L 13.882812 23.019531 C 13.882812 23.019531 14.175781 22.191406 14.238281 22.011719 C 14.289062 22.03125 14.453125 22.085938 14.453125 22.085938 L 14.558594 21.789062 L 13.695312 21.488281 L 13.65625 21.601562 "/>
<path style=" stroke:none;fill-rule:nonzero;fill:rgb(85.882353%,63.137255%,6.666667%);fill-opacity:1;" d="M 15.445312 22.003906 L 14.863281 21.878906 L 14.839844 21.996094 L 14.578125 23.234375 L 15.171875 23.359375 C 15.359375 23.398438 15.484375 23.351562 15.558594 23.308594 C 15.648438 23.246094 15.710938 23.152344 15.734375 23.035156 C 15.742188 23.003906 15.746094 22.972656 15.746094 22.945312 C 15.746094 22.859375 15.71875 22.785156 15.671875 22.71875 C 15.738281 22.667969 15.785156 22.59375 15.804688 22.5 C 15.808594 22.476562 15.8125 22.449219 15.8125 22.417969 C 15.8125 22.261719 15.722656 22.058594 15.445312 22.003906 M 15.285156 22.945312 C 15.28125 22.972656 15.269531 23.011719 15.246094 23.027344 C 15.226562 23.039062 15.191406 23.039062 15.140625 23.03125 C 15.140625 23.03125 15.117188 23.023438 15.089844 23.019531 C 15.109375 22.929688 15.121094 22.871094 15.140625 22.78125 C 15.167969 22.789062 15.199219 22.792969 15.199219 22.792969 C 15.277344 22.808594 15.289062 22.867188 15.289062 22.90625 C 15.289062 22.925781 15.289062 22.9375 15.285156 22.945312 Z M 15.246094 22.285156 C 15.296875 22.296875 15.335938 22.316406 15.351562 22.335938 C 15.355469 22.347656 15.359375 22.359375 15.359375 22.378906 C 15.359375 22.386719 15.359375 22.398438 15.355469 22.414062 C 15.347656 22.449219 15.335938 22.5 15.238281 22.480469 C 15.238281 22.480469 15.222656 22.476562 15.207031 22.472656 C 15.222656 22.398438 15.230469 22.359375 15.246094 22.285156 Z M 15.246094 22.285156 "/>
<path style=" stroke:none;fill-rule:nonzero;fill:rgb(85.882353%,63.137255%,6.666667%);fill-opacity:1;" d="M 16.523438 22.203125 L 15.890625 23.5 L 16.25 23.527344 C 16.25 23.527344 16.347656 23.320312 16.386719 23.238281 C 16.464844 23.246094 16.539062 23.25 16.617188 23.257812 C 16.644531 23.34375 16.714844 23.5625 16.714844 23.5625 L 17.195312 23.601562 L 16.65625 21.933594 L 16.523438 22.203125 "/>
<path style=" stroke:none;fill-rule:nonzero;fill:rgb(85.882353%,63.137255%,6.666667%);fill-opacity:1;" d="M 17.949219 23.238281 C 17.941406 23.046875 17.90625 22.1875 17.90625 22.1875 L 17.449219 22.207031 L 17.507812 23.589844 L 18.421875 23.550781 L 18.40625 23.21875 C 18.40625 23.21875 18.082031 23.234375 17.949219 23.238281 "/>
<path style=" stroke:none;fill-rule:nonzero;fill:rgb(85.882353%,63.137255%,6.666667%);fill-opacity:1;" d="M 19.203125 23.105469 C 19.171875 22.917969 19.039062 22.066406 19.039062 22.066406 L 18.917969 22.085938 L 18.585938 22.136719 L 18.800781 23.503906 L 19.707031 23.363281 L 19.65625 23.035156 C 19.65625 23.035156 19.332031 23.085938 19.203125 23.105469 "/>
<path style=" stroke:none;fill-rule:nonzero;fill:rgb(85.882353%,63.137255%,6.666667%);fill-opacity:1;" d="M 21.824219 22.183594 C 21.820312 22.304688 21.75 22.40625 21.640625 22.449219 C 21.582031 22.472656 21.523438 22.472656 21.464844 22.449219 C 21.375 22.410156 21.292969 22.3125 21.246094 22.191406 C 21.1875 22.046875 21.175781 21.921875 21.210938 21.835938 C 21.238281 21.773438 21.289062 21.726562 21.367188 21.695312 C 21.453125 21.664062 21.535156 21.695312 21.644531 21.757812 L 21.746094 21.820312 L 21.914062 21.554688 L 21.816406 21.488281 C 21.632812 21.367188 21.402344 21.339844 21.207031 21.421875 C 21.023438 21.492188 20.882812 21.628906 20.808594 21.804688 C 20.730469 21.980469 20.730469 22.183594 20.808594 22.375 C 20.953125 22.738281 21.363281 22.917969 21.722656 22.773438 C 21.984375 22.667969 22.132812 22.472656 22.148438 22.203125 L 22.160156 22.082031 L 21.828125 22.058594 L 21.824219 22.183594 "/>
<path style=" stroke:none;fill-rule:nonzero;fill:rgb(85.882353%,63.137255%,6.666667%);fill-opacity:1;" d="M 22.890625 21.808594 C 22.796875 21.640625 22.375 20.886719 22.375 20.886719 L 22.269531 20.945312 L 21.976562 21.109375 L 22.652344 22.320312 L 23.453125 21.875 L 23.289062 21.582031 C 23.289062 21.582031 23.003906 21.742188 22.890625 21.808594 "/>
<path style=" stroke:none;fill-rule:nonzero;fill:rgb(85.882353%,63.137255%,6.666667%);fill-opacity:1;" d="M 23.777344 19.941406 L 23.679688 20.011719 L 23.507812 20.140625 L 24.070312 20.902344 C 24.09375 20.9375 24.09375 20.960938 24.09375 20.976562 C 24.085938 21.015625 24.046875 21.058594 24.011719 21.082031 C 23.992188 21.097656 23.953125 21.113281 23.914062 21.105469 C 23.882812 21.101562 23.859375 21.085938 23.839844 21.058594 L 23.285156 20.304688 L 22.917969 20.574219 L 23.46875 21.324219 C 23.550781 21.4375 23.652344 21.503906 23.769531 21.519531 C 23.902344 21.542969 24.054688 21.496094 24.195312 21.390625 C 24.484375 21.179688 24.480469 20.898438 24.355469 20.726562 L 23.777344 19.941406 "/>
<path style=" stroke:none;fill-rule:nonzero;fill:rgb(85.882353%,63.137255%,6.666667%);fill-opacity:1;" d="M 25.460938 19.664062 C 25.375 19.574219 25.273438 19.535156 25.160156 19.542969 C 25.15625 19.457031 25.121094 19.375 25.054688 19.304688 C 24.941406 19.1875 24.683594 19.09375 24.445312 19.324219 L 24.015625 19.738281 L 24.980469 20.734375 L 25.414062 20.3125 C 25.554688 20.175781 25.585938 20.046875 25.585938 19.960938 C 25.589844 19.855469 25.542969 19.75 25.460938 19.664062 M 24.734375 19.628906 C 24.746094 19.644531 24.765625 19.664062 24.765625 19.6875 C 24.765625 19.707031 24.753906 19.734375 24.722656 19.765625 C 24.722656 19.765625 24.710938 19.773438 24.699219 19.789062 C 24.644531 19.730469 24.621094 19.703125 24.566406 19.648438 C 24.660156 19.558594 24.703125 19.597656 24.734375 19.628906 Z M 24.960938 19.972656 C 25.039062 19.898438 25.113281 19.964844 25.136719 19.984375 C 25.15625 20.007812 25.179688 20.035156 25.179688 20.0625 C 25.179688 20.085938 25.160156 20.117188 25.125 20.152344 C 25.125 20.152344 25.109375 20.167969 25.089844 20.1875 C 25.023438 20.125 24.984375 20.078125 24.917969 20.015625 C 24.9375 19.996094 24.960938 19.972656 24.960938 19.972656 Z M 24.960938 19.972656 "/>
<path style=" stroke:none;fill-rule:nonzero;fill:rgb(100%,100%,100%);fill-opacity:1;" d="M 10.34375 19.574219 C 10.378906 19.613281 10.660156 19.878906 10.660156 19.878906 L 10.753906 19.78125 L 10.234375 19.289062 L 10.214844 19.308594 L 9.40625 20.160156 L 9.605469 20.347656 C 9.605469 20.347656 9.949219 19.988281 9.988281 19.949219 C 10.023438 19.984375 10.277344 20.226562 10.277344 20.226562 L 10.371094 20.128906 C 10.371094 20.128906 10.117188 19.886719 10.078125 19.851562 C 10.113281 19.816406 10.308594 19.609375 10.34375 19.574219 "/>
<path style=" stroke:none;fill-rule:nonzero;fill:rgb(100%,100%,100%);fill-opacity:1;" d="M 11.582031 20.386719 C 11.453125 20.292969 11.300781 20.257812 11.148438 20.285156 C 10.984375 20.3125 10.835938 20.410156 10.730469 20.558594 C 10.625 20.707031 10.582031 20.878906 10.609375 21.042969 C 10.636719 21.195312 10.71875 21.328125 10.847656 21.417969 C 10.976562 21.511719 11.132812 21.546875 11.285156 21.523438 C 11.449219 21.492188 11.597656 21.398438 11.703125 21.25 C 11.785156 21.132812 11.832031 20.996094 11.832031 20.863281 C 11.832031 20.832031 11.828125 20.796875 11.824219 20.761719 C 11.796875 20.613281 11.710938 20.476562 11.582031 20.386719 M 11.464844 21.082031 C 11.378906 21.203125 11.152344 21.46875 10.925781 21.308594 C 10.703125 21.148438 10.878906 20.847656 10.96875 20.726562 C 11.054688 20.601562 11.28125 20.335938 11.503906 20.496094 C 11.730469 20.65625 11.550781 20.957031 11.464844 21.082031 Z M 11.464844 21.082031 "/>
<path style=" stroke:none;fill-rule:nonzero;fill:rgb(100%,100%,100%);fill-opacity:1;" d="M 12.894531 21.175781 C 12.589844 21.023438 12.238281 21.152344 12.074219 21.472656 C 11.992188 21.636719 11.976562 21.8125 12.027344 21.972656 C 12.078125 22.117188 12.179688 22.234375 12.320312 22.308594 C 12.464844 22.378906 12.621094 22.390625 12.769531 22.34375 C 12.925781 22.292969 13.058594 22.175781 13.140625 22.011719 C 13.304688 21.691406 13.199219 21.332031 12.894531 21.175781 M 12.382812 22.1875 C 12.136719 22.0625 12.265625 21.738281 12.335938 21.605469 C 12.402344 21.46875 12.585938 21.171875 12.832031 21.296875 C 12.898438 21.328125 12.941406 21.378906 12.960938 21.441406 C 13.011719 21.589844 12.933594 21.78125 12.878906 21.878906 C 12.828125 21.980469 12.722656 22.15625 12.574219 22.207031 C 12.511719 22.226562 12.445312 22.21875 12.382812 22.1875 Z M 12.382812 22.1875 "/>
<path style=" stroke:none;fill-rule:nonzero;fill:rgb(100%,100%,100%);fill-opacity:1;" d="M 13.742188 21.632812 L 13.707031 21.730469 C 13.707031 21.730469 13.878906 21.789062 13.921875 21.804688 C 13.902344 21.859375 13.570312 22.8125 13.570312 22.8125 L 13.828125 22.90625 C 13.828125 22.90625 14.164062 21.953125 14.183594 21.898438 C 14.226562 21.914062 14.398438 21.972656 14.398438 21.972656 L 14.441406 21.84375 L 13.753906 21.601562 L 13.742188 21.632812 "/>
<path style=" stroke:none;fill-rule:nonzero;fill:rgb(100%,100%,100%);fill-opacity:1;" d="M 15.429688 22.089844 L 14.933594 21.988281 L 14.929688 22.015625 L 14.6875 23.164062 L 15.191406 23.269531 C 15.320312 23.296875 15.425781 23.285156 15.507812 23.230469 C 15.578125 23.183594 15.625 23.109375 15.644531 23.015625 C 15.652344 22.992188 15.652344 22.96875 15.652344 22.945312 C 15.652344 22.84375 15.605469 22.757812 15.515625 22.699219 C 15.617188 22.667969 15.691406 22.59375 15.714844 22.480469 C 15.71875 22.460938 15.722656 22.441406 15.722656 22.417969 C 15.722656 22.304688 15.660156 22.140625 15.429688 22.089844 M 15.253906 22.191406 C 15.339844 22.210938 15.394531 22.242188 15.425781 22.285156 C 15.441406 22.3125 15.449219 22.34375 15.449219 22.378906 C 15.449219 22.394531 15.449219 22.414062 15.445312 22.429688 C 15.414062 22.585938 15.289062 22.582031 15.21875 22.566406 C 15.21875 22.566406 15.140625 22.550781 15.097656 22.542969 C 15.109375 22.496094 15.167969 22.222656 15.175781 22.175781 C 15.207031 22.183594 15.253906 22.191406 15.253906 22.191406 Z M 15.21875 22.703125 C 15.359375 22.734375 15.378906 22.84375 15.378906 22.914062 C 15.378906 22.941406 15.375 22.960938 15.375 22.964844 C 15.359375 23.03125 15.335938 23.078125 15.296875 23.101562 C 15.253906 23.128906 15.195312 23.132812 15.121094 23.117188 C 15.121094 23.117188 15.03125 23.101562 14.984375 23.089844 C 14.992188 23.039062 15.0625 22.722656 15.070312 22.675781 C 15.113281 22.683594 15.21875 22.703125 15.21875 22.703125 Z M 15.21875 22.703125 "/>
<path style=" stroke:none;fill-rule:nonzero;fill:rgb(100%,100%,100%);fill-opacity:1;" d="M 16.605469 22.242188 L 16.03125 23.417969 L 16.195312 23.429688 C 16.195312 23.429688 16.316406 23.175781 16.332031 23.144531 C 16.367188 23.144531 16.648438 23.167969 16.683594 23.171875 C 16.695312 23.203125 16.78125 23.476562 16.78125 23.476562 L 17.066406 23.5 L 16.640625 22.175781 L 16.605469 22.242188 M 16.542969 22.714844 C 16.570312 22.804688 16.621094 22.976562 16.640625 23.03125 C 16.582031 23.027344 16.453125 23.019531 16.398438 23.011719 C 16.421875 22.960938 16.5 22.800781 16.542969 22.714844 Z M 16.542969 22.714844 "/>
<path style=" stroke:none;fill-rule:nonzero;fill:rgb(100%,100%,100%);fill-opacity:1;" d="M 17.863281 23.332031 C 17.859375 23.277344 17.816406 22.28125 17.816406 22.28125 L 17.789062 22.28125 L 17.542969 22.292969 L 17.59375 23.496094 L 18.328125 23.464844 L 18.320312 23.3125 C 18.320312 23.3125 17.914062 23.332031 17.863281 23.332031 "/>
<path style=" stroke:none;fill-rule:nonzero;fill:rgb(100%,100%,100%);fill-opacity:1;" d="M 19.128906 23.210938 C 19.117188 23.152344 18.964844 22.167969 18.964844 22.167969 L 18.933594 22.175781 L 18.691406 22.210938 L 18.878906 23.402344 L 19.605469 23.289062 L 19.582031 23.136719 C 19.578125 23.140625 19.179688 23.203125 19.128906 23.210938 "/>
<path style=" stroke:none;fill-rule:nonzero;fill:rgb(100%,100%,100%);fill-opacity:1;" d="M 21.914062 22.1875 C 21.910156 22.34375 21.816406 22.476562 21.675781 22.535156 C 21.589844 22.566406 21.507812 22.566406 21.429688 22.53125 C 21.316406 22.484375 21.21875 22.371094 21.160156 22.222656 C 21.09375 22.054688 21.082031 21.910156 21.128906 21.796875 C 21.164062 21.714844 21.234375 21.652344 21.335938 21.613281 C 21.46875 21.558594 21.589844 21.621094 21.691406 21.679688 L 21.714844 21.695312 L 21.789062 21.578125 L 21.765625 21.5625 C 21.605469 21.457031 21.410156 21.4375 21.242188 21.503906 C 21.078125 21.570312 20.957031 21.6875 20.890625 21.839844 C 20.824219 21.992188 20.824219 22.171875 20.894531 22.339844 C 21.019531 22.65625 21.375 22.8125 21.691406 22.6875 C 21.917969 22.597656 22.042969 22.433594 22.058594 22.195312 L 22.0625 22.167969 L 21.914062 22.15625 L 21.914062 22.1875 "/>
<path style=" stroke:none;fill-rule:nonzero;fill:rgb(100%,100%,100%);fill-opacity:1;" d="M 22.855469 21.929688 C 22.824219 21.878906 22.339844 21.011719 22.339844 21.011719 L 22.3125 21.027344 L 22.101562 21.144531 L 22.6875 22.195312 L 23.328125 21.835938 L 23.253906 21.707031 C 23.253906 21.707031 22.898438 21.902344 22.855469 21.929688 "/>
<path style=" stroke:none;fill-rule:nonzero;fill:rgb(100%,100%,100%);fill-opacity:1;" d="M 23.757812 20.070312 L 23.734375 20.085938 L 23.636719 20.160156 L 24.144531 20.851562 C 24.175781 20.898438 24.191406 20.941406 24.183594 20.988281 C 24.171875 21.070312 24.097656 21.132812 24.066406 21.15625 C 24.027344 21.183594 23.960938 21.207031 23.898438 21.195312 C 23.847656 21.1875 23.800781 21.160156 23.765625 21.113281 L 23.265625 20.429688 L 23.042969 20.59375 L 23.542969 21.273438 C 23.609375 21.363281 23.691406 21.417969 23.785156 21.429688 C 23.933594 21.453125 24.070312 21.371094 24.140625 21.320312 C 24.382812 21.144531 24.386719 20.921875 24.28125 20.78125 L 23.757812 20.070312 "/>
<path style=" stroke:none;fill-rule:nonzero;fill:rgb(100%,100%,100%);fill-opacity:1;" d="M 25.394531 19.726562 C 25.304688 19.628906 25.183594 19.609375 25.058594 19.65625 C 25.070312 19.628906 25.074219 19.597656 25.074219 19.570312 C 25.074219 19.496094 25.046875 19.425781 24.992188 19.367188 C 24.914062 19.289062 24.710938 19.191406 24.507812 19.390625 L 24.144531 19.742188 L 24.980469 20.605469 L 25.351562 20.246094 C 25.445312 20.15625 25.496094 20.058594 25.496094 19.960938 C 25.496094 19.875 25.460938 19.796875 25.394531 19.726562 M 24.855469 19.6875 C 24.855469 19.75 24.816406 19.800781 24.785156 19.832031 C 24.785156 19.832031 24.730469 19.882812 24.699219 19.914062 C 24.664062 19.882812 24.46875 19.679688 24.4375 19.644531 C 24.460938 19.625 24.496094 19.589844 24.496094 19.589844 C 24.609375 19.480469 24.707031 19.472656 24.796875 19.566406 C 24.839844 19.609375 24.855469 19.652344 24.855469 19.6875 Z M 25.085938 20.316406 C 25.050781 20.28125 24.824219 20.046875 24.792969 20.011719 C 24.820312 19.984375 24.898438 19.90625 24.898438 19.90625 C 25.046875 19.765625 25.195312 19.917969 25.203125 19.921875 C 25.25 19.972656 25.273438 20.015625 25.273438 20.0625 C 25.269531 20.113281 25.242188 20.164062 25.1875 20.21875 C 25.1875 20.21875 25.117188 20.289062 25.085938 20.316406 Z M 25.085938 20.316406 "/>
<path style=" stroke:none;fill-rule:nonzero;fill:rgb(85.882353%,63.137255%,6.666667%);fill-opacity:1;" d="M 11.945312 4.265625 L 11.441406 4.402344 L 11.5 4.582031 C 11.570312 4.800781 11.503906 5.03125 11.335938 5.183594 C 11.238281 5.265625 11.128906 5.304688 11.007812 5.296875 C 10.824219 5.28125 10.617188 5.164062 10.453125 4.976562 C 10.261719 4.753906 10.164062 4.542969 10.175781 4.363281 C 10.183594 4.230469 10.25 4.113281 10.371094 4.007812 C 10.507812 3.886719 10.679688 3.894531 10.910156 3.9375 L 11.085938 3.972656 L 11.195312 3.488281 L 11.023438 3.445312 C 10.648438 3.355469 10.257812 3.445312 9.980469 3.6875 C 9.433594 4.167969 9.390625 4.945312 9.875 5.503906 C 10.328125 6.019531 11.113281 6.074219 11.625 5.628906 C 11.992188 5.304688 12.121094 4.894531 11.996094 4.441406 L 11.945312 4.265625 "/>
<path style=" stroke:none;fill-rule:nonzero;fill:rgb(85.882353%,63.137255%,6.666667%);fill-opacity:1;" d="M 13.320312 1.730469 L 12.800781 1.972656 C 12.800781 1.972656 13.089844 2.585938 13.191406 2.796875 C 13.042969 2.863281 12.898438 2.933594 12.753906 3 C 12.652344 2.789062 12.363281 2.179688 12.363281 2.179688 L 11.683594 2.5 L 12.71875 4.695312 L 13.398438 4.375 C 13.398438 4.375 13.078125 3.695312 12.976562 3.476562 C 13.125 3.40625 13.265625 3.339844 13.414062 3.269531 C 13.515625 3.488281 13.835938 4.167969 13.835938 4.167969 L 14.515625 3.847656 L 13.484375 1.652344 L 13.320312 1.730469 "/>
<path style=" stroke:none;fill-rule:nonzero;fill:rgb(85.882353%,63.137255%,6.666667%);fill-opacity:1;" d="M 15.621094 3.089844 C 15.585938 2.925781 15.550781 2.761719 15.519531 2.597656 C 15.730469 2.554688 16.289062 2.441406 16.289062 2.441406 L 16.191406 1.957031 C 16.191406 1.957031 15.632812 2.070312 15.421875 2.109375 C 15.390625 1.960938 15.367188 1.835938 15.335938 1.6875 C 15.554688 1.644531 16.152344 1.523438 16.152344 1.523438 L 16.050781 1.035156 L 15.875 1.070312 L 14.5 1.347656 L 14.980469 3.726562 L 16.546875 3.410156 L 16.445312 2.925781 C 16.445312 2.925781 15.839844 3.046875 15.621094 3.089844 "/>
<path style=" stroke:none;fill-rule:nonzero;fill:rgb(85.882353%,63.137255%,6.666667%);fill-opacity:1;" d="M 17.839844 0.976562 L 17.085938 0.960938 L 17.082031 1.144531 L 17.035156 3.390625 L 18.613281 3.421875 L 18.625 2.894531 C 18.625 2.894531 18.019531 2.882812 17.796875 2.878906 C 17.804688 2.582031 17.839844 0.976562 17.839844 0.976562 "/>
<path style=" stroke:none;fill-rule:nonzero;fill:rgb(85.882353%,63.137255%,6.666667%);fill-opacity:1;" d="M 20.277344 2.203125 C 20.082031 2.058594 20.023438 2 20.042969 1.921875 C 20.054688 1.882812 20.097656 1.753906 20.238281 1.789062 C 20.324219 1.808594 20.40625 1.855469 20.445312 2.035156 L 20.484375 2.238281 L 20.980469 2.070312 L 20.949219 1.914062 C 20.890625 1.605469 20.628906 1.34375 20.304688 1.261719 C 20.070312 1.203125 19.835938 1.234375 19.644531 1.351562 C 19.46875 1.457031 19.34375 1.625 19.292969 1.820312 C 19.167969 2.316406 19.503906 2.558594 19.726562 2.714844 C 19.953125 2.878906 20.011719 2.941406 19.976562 3.078125 C 19.964844 3.121094 19.941406 3.152344 19.902344 3.179688 C 19.855469 3.203125 19.800781 3.214844 19.753906 3.203125 C 19.632812 3.171875 19.582031 3.117188 19.53125 2.960938 L 19.46875 2.777344 L 18.972656 2.980469 L 19.019531 3.140625 C 19.113281 3.445312 19.335938 3.640625 19.703125 3.730469 C 20.113281 3.835938 20.609375 3.644531 20.734375 3.152344 C 20.863281 2.632812 20.511719 2.375 20.277344 2.203125 "/>
<path style=" stroke:none;fill-rule:nonzero;fill:rgb(85.882353%,63.137255%,6.666667%);fill-opacity:1;" d="M 22.070312 3.496094 C 22.261719 3.59375 22.769531 3.851562 22.769531 3.851562 L 22.996094 3.40625 C 22.996094 3.40625 22.488281 3.148438 22.296875 3.054688 C 22.363281 2.917969 22.421875 2.800781 22.492188 2.667969 C 22.6875 2.765625 23.234375 3.042969 23.234375 3.042969 L 23.457031 2.597656 L 22.042969 1.882812 L 21.960938 2.046875 L 20.949219 4.050781 L 22.375 4.769531 L 22.597656 4.324219 C 22.597656 4.324219 22.042969 4.046875 21.84375 3.945312 C 21.917969 3.796875 21.996094 3.644531 22.070312 3.496094 "/>
<path style=" stroke:none;fill-rule:nonzero;fill:rgb(85.882353%,63.137255%,6.666667%);fill-opacity:1;" d="M 24.886719 3.722656 L 22.621094 4.894531 L 23.054688 5.269531 C 23.054688 5.269531 23.429688 5.074219 23.5625 5 C 23.664062 5.089844 23.8125 5.21875 23.914062 5.304688 C 23.863281 5.449219 23.726562 5.855469 23.726562 5.855469 L 24.324219 6.375 L 25.289062 3.519531 L 24.886719 3.722656 "/>
<path style=" stroke:none;fill-rule:nonzero;fill:rgb(100%,100%,100%);fill-opacity:1;" d="M 11.863281 4.414062 L 11.59375 4.484375 L 11.613281 4.546875 C 11.699219 4.8125 11.621094 5.089844 11.414062 5.273438 C 11.292969 5.378906 11.15625 5.425781 11 5.417969 C 10.78125 5.402344 10.550781 5.269531 10.363281 5.054688 C 10.148438 4.808594 10.039062 4.566406 10.054688 4.351562 C 10.066406 4.191406 10.144531 4.042969 10.292969 3.914062 C 10.484375 3.75 10.722656 3.777344 10.933594 3.820312 L 10.992188 3.832031 L 11.050781 3.578125 L 10.992188 3.566406 C 10.65625 3.480469 10.308594 3.5625 10.058594 3.78125 C 9.566406 4.210938 9.527344 4.917969 9.96875 5.421875 C 10.375 5.890625 11.082031 5.941406 11.542969 5.535156 C 11.878906 5.242188 11.992188 4.886719 11.878906 4.472656 L 11.863281 4.414062 "/>
<path style=" stroke:none;fill-rule:nonzero;fill:rgb(100%,100%,100%);fill-opacity:1;" d="M 13.371094 1.839844 L 12.964844 2.03125 C 12.964844 2.03125 13.304688 2.757812 13.351562 2.851562 C 13.265625 2.894531 12.78125 3.121094 12.695312 3.164062 C 12.648438 3.066406 12.308594 2.339844 12.308594 2.339844 L 11.847656 2.558594 L 12.777344 4.535156 L 13.238281 4.316406 C 13.238281 4.316406 12.859375 3.515625 12.816406 3.417969 C 12.902344 3.378906 13.382812 3.152344 13.472656 3.109375 C 13.515625 3.207031 13.894531 4.007812 13.894531 4.007812 L 14.355469 3.789062 L 13.425781 1.816406 L 13.371094 1.839844 "/>
<path style=" stroke:none;fill-rule:nonzero;fill:rgb(100%,100%,100%);fill-opacity:1;" d="M 15.523438 3.234375 C 15.503906 3.140625 15.394531 2.597656 15.378906 2.503906 C 15.476562 2.484375 16.144531 2.347656 16.144531 2.347656 L 16.09375 2.097656 C 16.09375 2.097656 15.429688 2.234375 15.328125 2.253906 C 15.308594 2.160156 15.210938 1.683594 15.195312 1.589844 C 15.296875 1.570312 16.007812 1.425781 16.007812 1.425781 L 15.957031 1.175781 L 14.644531 1.441406 L 15.074219 3.585938 L 16.402344 3.316406 L 16.351562 3.066406 C 16.351562 3.066406 15.628906 3.214844 15.523438 3.234375 "/>
<path style=" stroke:none;fill-rule:nonzero;fill:rgb(100%,100%,100%);fill-opacity:1;" d="M 17.714844 1.097656 L 17.207031 1.085938 L 17.203125 1.144531 L 17.160156 3.269531 L 18.496094 3.296875 L 18.503906 3.015625 C 18.503906 3.015625 17.777344 3 17.675781 2.996094 C 17.675781 2.882812 17.714844 1.097656 17.714844 1.097656 "/>
<path style=" stroke:none;fill-rule:nonzero;fill:rgb(100%,100%,100%);fill-opacity:1;" d="M 20.265625 1.671875 C 20.429688 1.710938 20.523438 1.820312 20.5625 2.011719 L 20.578125 2.078125 L 20.84375 1.988281 L 20.832031 1.933594 C 20.78125 1.671875 20.554688 1.449219 20.273438 1.378906 C 20.074219 1.328125 19.871094 1.355469 19.707031 1.453125 C 19.558594 1.542969 19.453125 1.683594 19.410156 1.851562 C 19.308594 2.265625 19.578125 2.460938 19.796875 2.617188 C 20.019531 2.777344 20.152344 2.882812 20.09375 3.105469 C 20.074219 3.199219 20.011719 3.253906 19.964844 3.28125 C 19.890625 3.324219 19.800781 3.339844 19.722656 3.320312 C 19.5625 3.28125 19.480469 3.191406 19.417969 3 L 19.394531 2.9375 L 19.121094 3.050781 L 19.136719 3.101562 C 19.21875 3.367188 19.410156 3.535156 19.730469 3.613281 C 20.085938 3.703125 20.511719 3.542969 20.617188 3.125 C 20.726562 2.683594 20.4375 2.46875 20.203125 2.300781 C 20.003906 2.152344 19.886719 2.054688 19.925781 1.894531 C 19.960938 1.75 20.082031 1.625 20.265625 1.671875 "/>
<path style=" stroke:none;fill-rule:nonzero;fill:rgb(100%,100%,100%);fill-opacity:1;" d="M 22.4375 2.503906 C 22.53125 2.550781 23.179688 2.878906 23.179688 2.878906 L 23.292969 2.652344 L 22.097656 2.046875 L 22.070312 2.101562 L 21.113281 3.996094 L 22.320312 4.605469 L 22.433594 4.378906 C 22.433594 4.378906 21.777344 4.046875 21.683594 4 C 21.726562 3.914062 21.976562 3.421875 22.019531 3.335938 C 22.109375 3.378906 22.71875 3.6875 22.71875 3.6875 L 22.832031 3.460938 C 22.832031 3.460938 22.226562 3.152344 22.132812 3.105469 C 22.175781 3.023438 22.394531 2.589844 22.4375 2.503906 "/>
<path style=" stroke:none;fill-rule:nonzero;fill:rgb(100%,100%,100%);fill-opacity:1;" d="M 24.941406 3.832031 L 22.835938 4.921875 L 23.070312 5.125 C 23.070312 5.125 23.515625 4.886719 23.582031 4.855469 C 23.632812 4.902344 24.003906 5.222656 24.054688 5.265625 C 24.03125 5.332031 23.867188 5.816406 23.867188 5.816406 L 24.265625 6.164062 L 25.078125 3.765625 L 24.941406 3.832031 M 23.824219 4.730469 C 23.921875 4.679688 24.179688 4.546875 24.332031 4.464844 C 24.277344 4.628906 24.179688 4.902344 24.144531 5.007812 C 24.0625 4.9375 23.90625 4.800781 23.824219 4.730469 Z M 23.824219 4.730469 "/>
<path style=" stroke:none;fill-rule:nonzero;fill:rgb(81.960784%,82.745098%,83.137255%);fill-opacity:1;" d="M 23.472656 12.171875 C 23.300781 11.714844 22.703125 11.515625 22.144531 11.726562 C 21.910156 11.816406 21.714844 11.964844 21.585938 12.136719 C 21.957031 11.078125 23.46875 10.855469 23.46875 9.867188 C 23.46875 8.21875 21.121094 8.679688 21.464844 9.867188 C 21.464844 9.328125 22.324219 9.230469 22.324219 9.867188 C 22.324219 10.507812 20.824219 10.925781 20.824219 12.003906 C 20.824219 13.195312 22.015625 13.304688 21.894531 14.390625 C 21.875 14.578125 21.671875 14.824219 21.378906 14.824219 C 19.558594 14.824219 20.210938 12.582031 19.574219 11.902344 L 19.605469 11.441406 C 19.972656 11.664062 20.949219 11.136719 20.308594 10.332031 C 20.308594 10.726562 19.484375 10.707031 19.484375 9.957031 C 19.484375 8.945312 20.429688 9.472656 20.476562 9.695312 C 20.429688 9.328125 20.414062 9.09375 20.472656 8.878906 C 19.964844 9.046875 19.914062 8.75 19.980469 8.636719 C 20.054688 8.503906 20.152344 8.351562 20.351562 8.351562 C 20.460938 8.351562 20.523438 8.363281 20.5625 8.390625 C 20.625 8.433594 20.671875 8.335938 20.664062 8.425781 C 20.71875 8.34375 20.695312 8.449219 20.75 8.363281 C 20.800781 8.28125 20.875 8.1875 21 8.0625 L 20.996094 7.875 L 21.144531 7.929688 L 21.289062 7.699219 C 21.132812 7.378906 20.925781 7.535156 20.769531 7.136719 C 20.640625 7.105469 18.636719 7.324219 18.695312 6.523438 C 18.53125 6.523438 18.144531 6.613281 18.382812 6.9375 C 18.195312 6.960938 18.0625 6.75 17.78125 7.320312 C 18.132812 7.253906 17.949219 7.648438 17.949219 7.761719 C 17.949219 8.488281 16.984375 8.472656 16.984375 8.132812 C 16.75 8.359375 16.882812 8.855469 17.234375 8.976562 C 17.234375 8.976562 17.101562 9.507812 16.773438 9.84375 C 16.28125 9.824219 15.492188 9.738281 15.042969 9.308594 C 14.847656 9.125 14.691406 9.023438 14.558594 8.972656 L 14.558594 8.734375 C 14.753906 8.636719 14.964844 8.46875 15.183594 8.191406 C 15.355469 7.980469 15.449219 7.710938 15.425781 7.425781 C 15.421875 7.390625 15.417969 7.359375 15.410156 7.324219 C 15.410156 7.316406 15.40625 7.304688 15.402344 7.292969 C 15.398438 7.269531 15.394531 7.25 15.386719 7.226562 C 15.382812 7.214844 15.378906 7.203125 15.375 7.191406 C 15.367188 7.171875 15.359375 7.148438 15.351562 7.125 C 15.347656 7.117188 15.34375 7.109375 15.339844 7.097656 C 15.328125 7.070312 15.316406 7.042969 15.300781 7.015625 C 15.292969 7.003906 15.289062 6.992188 15.28125 6.984375 C 15.269531 6.964844 15.261719 6.949219 15.25 6.933594 C 15.242188 6.921875 15.234375 6.90625 15.222656 6.894531 C 15.214844 6.882812 15.203125 6.871094 15.195312 6.859375 C 15.183594 6.84375 15.175781 6.832031 15.164062 6.816406 C 15.15625 6.808594 15.148438 6.800781 15.140625 6.792969 C 15.109375 6.761719 15.078125 6.730469 15.046875 6.703125 C 15.042969 6.703125 15.039062 6.699219 15.039062 6.695312 C 15.019531 6.679688 15 6.667969 14.980469 6.652344 C 14.976562 6.648438 14.972656 6.644531 14.964844 6.640625 C 14.945312 6.625 14.925781 6.613281 14.902344 6.597656 C 14.902344 6.597656 14.902344 6.597656 14.898438 6.597656 C 14.695312 6.472656 14.445312 6.40625 14.179688 6.425781 C 13.546875 6.476562 13.078125 7.003906 13.128906 7.609375 C 13.171875 8.078125 13.515625 8.453125 13.96875 8.570312 C 13.808594 8.660156 13.675781 8.710938 13.644531 8.710938 C 13.652344 8.714844 13.65625 8.71875 13.664062 8.722656 C 13.667969 8.722656 13.667969 8.726562 13.671875 8.726562 C 13.675781 8.730469 13.683594 8.734375 13.691406 8.738281 C 13.695312 8.738281 13.695312 8.738281 13.699219 8.742188 C 13.707031 8.746094 13.71875 8.75 13.730469 8.757812 C 13.730469 8.757812 13.734375 8.757812 13.734375 8.757812 C 13.746094 8.765625 13.757812 8.769531 13.769531 8.773438 C 13.769531 8.773438 13.773438 8.777344 13.777344 8.777344 C 13.804688 8.789062 13.835938 8.800781 13.871094 8.808594 C 13.875 8.808594 13.878906 8.8125 13.886719 8.8125 C 13.898438 8.816406 13.914062 8.820312 13.925781 8.824219 C 13.933594 8.824219 13.9375 8.824219 13.941406 8.824219 C 13.960938 8.828125 13.980469 8.832031 13.996094 8.835938 C 14 8.835938 14 8.835938 14.003906 8.835938 L 14.003906 8.972656 C 13.996094 8.972656 13.988281 8.972656 13.984375 8.976562 C 13.777344 9.007812 13.640625 9.074219 13.582031 9.257812 C 13.523438 9.441406 13.582031 9.507812 13.679688 9.636719 C 13.597656 9.78125 13.386719 9.835938 13.664062 10.15625 C 13.644531 10.28125 13.667969 10.472656 13.847656 10.53125 C 13.902344 10.550781 13.953125 10.5625 14.003906 10.570312 L 14.003906 12.984375 C 13.824219 13.078125 13.738281 13.195312 13.691406 13.304688 C 13.691406 13.304688 13.550781 12.988281 13.558594 13.613281 C 13.71875 13.488281 13.65625 13.757812 13.65625 13.757812 C 13.4375 14.039062 13.714844 14.023438 13.714844 14.023438 C 13.902344 13.835938 13.867188 14.109375 13.867188 14.109375 C 13.867188 14.445312 14 14.574219 14.003906 14.578125 L 14.003906 16.414062 L 13.84375 16.414062 L 13.84375 16.921875 L 14.125 16.921875 C 13.964844 16.988281 13.863281 17.144531 13.878906 17.316406 C 13.898438 17.53125 14.097656 17.691406 14.324219 17.675781 C 14.550781 17.65625 14.722656 17.46875 14.703125 17.25 C 14.6875 17.101562 14.589844 16.976562 14.453125 16.921875 L 14.714844 16.921875 L 14.710938 16.414062 L 14.558594 16.414062 L 14.558594 14.78125 C 14.589844 14.800781 14.625 14.8125 14.664062 14.820312 C 14.675781 14.824219 14.691406 14.824219 14.707031 14.828125 C 14.714844 14.828125 14.71875 14.828125 14.726562 14.828125 C 14.6875 14.613281 14.8125 14.472656 14.8125 14.472656 C 14.878906 14.371094 14.976562 14.292969 15.082031 14.238281 C 15.40625 14.078125 15.847656 14.117188 15.980469 14.382812 C 16.816406 14.164062 17.535156 13.320312 17.535156 13.320312 L 17.949219 14.023438 C 17.074219 14.316406 15.171875 15.96875 16.492188 16.539062 C 16.492188 16.707031 16.472656 17.945312 15.675781 17.847656 C 14.535156 17.707031 14.25 18.179688 14.46875 18.710938 C 14.367188 19.160156 14.710938 19.3125 14.710938 19.3125 C 14.660156 19.054688 14.785156 18.839844 15.257812 18.84375 C 15.253906 19.316406 15.558594 19.402344 15.558594 19.402344 C 15.5625 18.996094 15.84375 18.847656 16.089844 18.847656 C 16.089844 19.179688 16.476562 19.308594 16.476562 19.308594 C 16.476562 19.308594 16.378906 18.921875 16.816406 18.847656 C 17.925781 18.65625 16.882812 17.515625 18.570312 17.203125 C 18.570312 17.203125 17.730469 17.074219 17.730469 16.617188 C 17.730469 16.199219 18.488281 15.914062 18.75 15.914062 C 19.285156 16.9375 19.867188 16.945312 20.023438 16.953125 C 20.257812 17.21875 20.179688 18.113281 19.835938 18.09375 C 18.582031 18.027344 18.628906 18.789062 18.769531 18.945312 C 18.753906 19.242188 18.984375 19.414062 18.984375 19.414062 C 18.984375 19.097656 19.285156 19.007812 19.671875 19.027344 C 19.652344 19.417969 19.898438 19.472656 19.898438 19.472656 C 19.90625 19.082031 20.195312 19.019531 20.398438 19.027344 C 20.386719 19.300781 20.65625 19.382812 20.65625 19.382812 C 20.65625 19.382812 20.628906 19.035156 20.996094 19.035156 C 21.6875 19.035156 20.683594 17.546875 22.035156 16.078125 C 20.847656 16.628906 20.214844 15.253906 20.214844 14.988281 C 20.824219 15.703125 22.808594 15.847656 22.808594 14.625 C 22.808594 13.457031 21.523438 13.023438 22.125 12.578125 C 22.472656 12.316406 23.160156 12.839844 22.765625 13.382812 C 23.332031 13.175781 23.644531 12.628906 23.472656 12.171875 M 15.871094 12.207031 C 15.421875 12.472656 15.121094 12.804688 14.714844 12.953125 C 14.652344 12.972656 14.601562 12.980469 14.558594 12.976562 L 14.558594 10.699219 C 14.667969 10.710938 14.949219 10.746094 15.277344 10.882812 C 15.601562 11.0625 15.601562 11.429688 15.191406 11.515625 C 15.449219 12.011719 16.351562 11.769531 16.546875 11.363281 C 16.640625 11.355469 16.726562 11.527344 16.804688 11.6875 C 16.679688 11.753906 16.421875 11.882812 15.871094 12.207031 Z M 20.890625 8.433594 C 20.839844 8.5 20.789062 8.566406 20.75 8.621094 C 20.863281 8.8125 21.074219 8.929688 21.308594 8.90625 C 21.632812 8.878906 21.871094 8.589844 21.84375 8.265625 C 21.839844 8.253906 21.839844 8.242188 21.835938 8.230469 C 21.804688 8.398438 21.605469 8.542969 21.355469 8.566406 C 21.164062 8.582031 20.992188 8.527344 20.890625 8.433594 Z M 20.890625 8.433594 "/>
<path style=" stroke:none;fill-rule:nonzero;fill:rgb(1.176471%,27.45098%,58.039216%);fill-opacity:1;" d="M 13.644531 7.0625 C 13.648438 7.050781 13.65625 7.039062 13.660156 7.027344 C 13.65625 7.039062 13.648438 7.050781 13.644531 7.0625 M 13.667969 16.617188 Z M 13.652344 6.089844 Z M 13.480469 16.558594 L 13.761719 16.558594 C 13.726562 16.574219 13.695312 16.59375 13.667969 16.617188 C 13.695312 16.605469 13.726562 16.597656 13.757812 16.597656 C 13.898438 16.597656 14.011719 16.710938 14.011719 16.851562 C 14.011719 16.992188 13.898438 17.105469 13.757812 17.105469 C 13.644531 17.105469 13.546875 17.03125 13.515625 16.929688 L 13.515625 16.953125 C 13.535156 17.167969 13.734375 17.332031 13.960938 17.3125 C 14.1875 17.292969 14.359375 17.105469 14.339844 16.886719 C 14.328125 16.738281 14.226562 16.617188 14.09375 16.558594 L 14.351562 16.558594 L 14.351562 16.050781 L 14.195312 16.050781 L 14.195312 14.421875 C 14.042969 14.339844 13.957031 14.171875 13.992188 13.996094 C 14.085938 13.996094 14.175781 14.019531 14.230469 14.0625 C 14.144531 14.257812 14.363281 14.464844 14.363281 14.464844 C 14.324219 14.25 14.449219 14.109375 14.449219 14.109375 C 14.515625 14.007812 14.613281 13.933594 14.71875 13.878906 C 15.042969 13.714844 15.484375 13.753906 15.617188 14.019531 C 16.453125 13.800781 17.175781 12.957031 17.175781 12.957031 L 17.585938 13.660156 C 18.550781 13.660156 18.214844 12.9375 18.152344 12.871094 C 18.375 12.871094 18.6875 13.035156 18.6875 13.398438 C 18.6875 14.289062 16.101562 14.414062 16.101562 15.496094 C 16.101562 15.949219 16.550781 16.121094 16.550781 16.121094 C 16.550781 17.105469 15.875 17.691406 15.414062 17.691406 C 14.671875 17.691406 14.105469 17.539062 14.105469 18.347656 L 14.363281 18.347656 C 14.121094 18.589844 14.347656 18.949219 14.347656 18.949219 C 14.296875 18.691406 14.421875 18.476562 14.894531 18.480469 L 15.1875 18.480469 C 15 18.667969 15.109375 18.953125 15.195312 19.039062 C 15.199219 18.632812 15.480469 18.484375 15.730469 18.484375 C 15.820312 18.484375 15.941406 18.484375 15.941406 18.484375 C 15.882812 18.542969 15.976562 18.808594 16.113281 18.945312 C 16.113281 18.945312 16.015625 18.5625 16.453125 18.484375 C 17.5625 18.292969 16.519531 17.152344 18.207031 16.839844 C 18.207031 16.839844 17.367188 16.710938 17.367188 16.253906 C 17.367188 15.835938 18.125 15.550781 18.386719 15.550781 C 18.59375 15.519531 18.789062 15.527344 18.957031 15.5625 C 19.023438 16.226562 19.785156 16.195312 19.949219 16.195312 C 20.59375 16.835938 19.785156 17.871094 19.785156 17.871094 C 18.796875 17.871094 18.40625 18.007812 18.40625 18.585938 L 18.59375 18.585938 C 18.488281 18.691406 18.546875 18.980469 18.621094 19.050781 C 18.621094 18.734375 18.921875 18.644531 19.308594 18.664062 L 19.515625 18.664062 C 19.414062 18.765625 19.433594 19.007812 19.535156 19.113281 C 19.542969 18.722656 19.832031 18.65625 20.039062 18.664062 L 20.207031 18.664062 C 20.144531 18.730469 20.207031 18.933594 20.292969 19.019531 C 20.292969 19.019531 20.269531 18.671875 20.632812 18.671875 C 21.328125 18.671875 20.320312 17.1875 21.671875 15.714844 C 20.484375 16.265625 19.851562 14.890625 19.851562 14.625 C 20.460938 15.339844 22.445312 15.484375 22.445312 14.261719 C 22.445312 13.277344 21.53125 12.8125 21.605469 12.425781 C 21.632812 12.128906 21.882812 11.894531 22.1875 11.894531 C 22.507812 11.894531 22.769531 12.15625 22.769531 12.476562 C 22.769531 12.722656 22.621094 12.933594 22.40625 13.019531 C 22.40625 13.019531 22.402344 13.019531 22.402344 13.019531 C 22.96875 12.8125 23.28125 12.265625 23.109375 11.808594 C 22.9375 11.351562 22.34375 11.152344 21.78125 11.363281 C 21.546875 11.453125 21.355469 11.601562 21.222656 11.773438 C 21.59375 10.714844 23.105469 10.492188 23.105469 9.503906 C 23.105469 7.855469 20.761719 8.316406 21.101562 9.507812 C 21.101562 9.488281 21.101562 9.46875 21.105469 9.453125 C 21.164062 8.78125 22.367188 8.644531 22.367188 9.519531 C 22.367188 10.269531 20.828125 10.683594 20.828125 11.691406 C 20.828125 12.726562 21.964844 12.984375 21.964844 14.070312 C 21.964844 14.203125 21.894531 14.761719 21.140625 14.761719 C 20.410156 14.761719 20.0625 14.351562 19.863281 13.820312 C 19.492188 13.105469 19.628906 11.984375 19.210938 11.539062 L 19.242188 11.078125 C 19.609375 11.304688 20.585938 10.773438 19.945312 9.96875 C 19.945312 10.363281 19.121094 10.34375 19.121094 9.59375 C 19.121094 8.582031 20.066406 9.109375 20.113281 9.332031 C 20.066406 8.964844 20.050781 8.730469 20.113281 8.519531 C 19.601562 8.683594 19.554688 8.386719 19.617188 8.273438 C 19.691406 8.140625 19.789062 7.988281 19.988281 7.988281 C 20.277344 7.988281 20.257812 8.09375 20.242188 8.242188 C 20.351562 8.074219 20.382812 7.949219 20.640625 7.699219 L 20.632812 7.511719 L 20.78125 7.566406 L 20.925781 7.335938 C 20.769531 7.015625 20.5625 7.171875 20.40625 6.777344 C 20.28125 6.742188 18.59375 6.585938 18.652344 5.785156 C 18.5 5.785156 18.09375 6.300781 18.371094 6.574219 C 18.371094 6.574219 18.152344 6.574219 18.019531 6.574219 C 17.832031 6.597656 17.394531 6.46875 17.117188 7.039062 C 17.804688 6.347656 18.253906 7.996094 16.984375 7.996094 C 16.792969 7.996094 16.632812 7.917969 16.621094 7.785156 C 16.496094 8.34375 17.296875 8.515625 17.296875 8.515625 C 17.296875 8.679688 16.894531 9.574219 16.699219 9.769531 C 16.832031 9.902344 16.875 10.695312 16.265625 10.695312 C 16.484375 10.101562 15.839844 9.601562 15.214844 9.269531 C 15.101562 9.226562 14.992188 9.171875 14.894531 9.109375 C 14.507812 8.933594 14.195312 8.835938 14.195312 8.835938 L 14.195312 8.371094 C 14.390625 8.273438 14.601562 8.109375 14.820312 7.828125 C 14.992188 7.617188 15.085938 7.347656 15.0625 7.0625 C 15.058594 7.027344 15.054688 6.996094 15.046875 6.960938 C 15.046875 6.953125 15.042969 6.941406 15.039062 6.929688 C 15.035156 6.910156 15.03125 6.886719 15.023438 6.863281 C 15.019531 6.851562 15.015625 6.839844 15.011719 6.832031 C 15.007812 6.808594 14.996094 6.785156 14.988281 6.761719 C 14.984375 6.753906 14.980469 6.746094 14.976562 6.738281 C 14.964844 6.707031 14.953125 6.679688 14.9375 6.652344 C 14.933594 6.640625 14.925781 6.632812 14.917969 6.621094 C 14.910156 6.601562 14.898438 6.585938 14.886719 6.570312 C 14.878906 6.558594 14.871094 6.546875 14.859375 6.53125 C 14.851562 6.519531 14.84375 6.507812 14.832031 6.496094 C 14.820312 6.480469 14.8125 6.46875 14.800781 6.453125 C 14.792969 6.445312 14.785156 6.4375 14.777344 6.429688 C 14.746094 6.398438 14.714844 6.371094 14.683594 6.339844 C 14.679688 6.339844 14.679688 6.335938 14.675781 6.332031 C 14.65625 6.316406 14.636719 6.304688 14.617188 6.289062 C 14.613281 6.285156 14.609375 6.28125 14.601562 6.277344 C 14.582031 6.261719 14.5625 6.25 14.539062 6.238281 C 14.539062 6.234375 14.539062 6.234375 14.535156 6.234375 C 14.332031 6.109375 14.082031 6.042969 13.820312 6.0625 C 13.761719 6.066406 13.707031 6.078125 13.652344 6.089844 C 13.289062 6.230469 13.023438 6.65625 13.023438 7.160156 C 13.023438 7.636719 13.257812 8.042969 13.589844 8.207031 C 13.59375 8.207031 13.601562 8.207031 13.605469 8.210938 C 13.445312 8.296875 13.3125 8.347656 13.28125 8.347656 C 13.289062 8.351562 13.292969 8.355469 13.300781 8.359375 C 13.304688 8.359375 13.304688 8.363281 13.308594 8.363281 C 13.3125 8.367188 13.320312 8.371094 13.328125 8.375 C 13.332031 8.375 13.332031 8.378906 13.335938 8.378906 C 13.34375 8.382812 13.355469 8.390625 13.367188 8.394531 C 13.367188 8.394531 13.371094 8.394531 13.371094 8.398438 C 13.382812 8.402344 13.394531 8.40625 13.40625 8.410156 C 13.410156 8.414062 13.410156 8.414062 13.414062 8.414062 C 13.441406 8.425781 13.472656 8.4375 13.507812 8.445312 C 13.511719 8.449219 13.515625 8.449219 13.523438 8.449219 C 13.535156 8.453125 13.550781 8.457031 13.5625 8.460938 C 13.570312 8.460938 13.574219 8.460938 13.578125 8.464844 C 13.597656 8.464844 13.617188 8.46875 13.636719 8.472656 C 13.636719 8.472656 13.636719 8.472656 13.640625 8.472656 C 13.761719 8.484375 13.902344 8.453125 13.902344 8.453125 L 13.902344 8.722656 C 13.882812 8.722656 13.691406 8.660156 13.640625 8.609375 C 13.632812 8.609375 13.625 8.613281 13.621094 8.613281 C 13.414062 8.648438 13.28125 8.710938 13.21875 8.894531 C 13.160156 9.078125 13.222656 9.144531 13.316406 9.273438 C 13.234375 9.417969 13.023438 9.472656 13.300781 9.796875 C 13.28125 9.917969 13.304688 10.109375 13.484375 10.171875 C 13.539062 10.191406 13.589844 10.199219 13.640625 10.207031 C 13.746094 10.207031 13.902344 10.296875 13.902344 10.511719 L 13.902344 12.585938 C 14 12.59375 14.101562 12.605469 14.195312 12.613281 L 14.195312 10.335938 C 14.304688 10.347656 14.585938 10.386719 14.914062 10.519531 C 14.917969 10.523438 14.921875 10.523438 14.921875 10.527344 C 14.953125 10.53125 14.984375 10.535156 15.011719 10.546875 C 15.230469 10.613281 15.367188 10.800781 15.316406 10.96875 C 15.265625 11.136719 15.046875 11.21875 14.828125 11.152344 C 15.085938 11.648438 15.988281 11.40625 16.183594 11 C 16.277344 10.992188 16.363281 11.164062 16.445312 11.324219 C 16.445312 11.324219 16.667969 11.410156 17.226562 11.410156 C 17.226562 11.410156 14.96875 12.855469 14.316406 12.855469 C 14.035156 12.855469 13.417969 12.855469 13.417969 13.066406 C 13.246094 13.066406 13 13.355469 13 13.519531 C 13.160156 13.394531 13.292969 13.394531 13.292969 13.394531 C 13.429688 13.394531 13.507812 13.433594 13.507812 13.433594 C 13.457031 13.484375 13.230469 13.738281 13.230469 13.9375 C 13.421875 13.746094 13.503906 13.75 13.503906 13.75 C 13.503906 13.75 13.699219 13.722656 13.769531 13.792969 C 13.722656 13.839844 13.640625 14.011719 13.640625 14.214844 C 13.640625 14.214844 13.757812 13.988281 13.902344 13.988281 L 13.902344 16.15625 C 13.902344 16.222656 13.605469 16.285156 13.480469 16.285156 M 13.574219 10 C 13.515625 10.003906 13.492188 9.929688 13.488281 9.902344 C 13.488281 9.878906 13.507812 9.804688 13.566406 9.800781 C 13.699219 9.796875 13.960938 9.859375 13.964844 9.886719 C 13.964844 9.910156 13.703125 9.996094 13.574219 10 Z M 13.488281 9.640625 C 13.410156 9.636719 13.386719 9.53125 13.386719 9.496094 C 13.390625 9.460938 13.429688 9.363281 13.507812 9.367188 C 13.691406 9.382812 14.046875 9.507812 14.042969 9.542969 C 14.039062 9.582031 13.671875 9.65625 13.488281 9.640625 Z M 13.457031 9.183594 C 13.375 9.164062 13.367188 9.046875 13.378906 9.007812 C 13.386719 8.96875 13.449219 8.871094 13.53125 8.890625 C 13.726562 8.941406 14.082031 9.152344 14.070312 9.1875 C 14.0625 9.226562 13.648438 9.234375 13.457031 9.183594 Z M 14.054688 7.890625 C 14.089844 7.8125 14.082031 7.703125 14.0625 7.597656 C 14.058594 7.597656 14.054688 7.597656 14.050781 7.597656 C 13.816406 7.597656 13.628906 7.410156 13.628906 7.175781 C 13.625 7.136719 13.632812 7.097656 13.644531 7.0625 C 13.695312 6.886719 13.859375 6.753906 14.050781 6.753906 C 14.285156 6.753906 14.472656 6.945312 14.472656 7.175781 C 14.472656 7.445312 14.285156 7.695312 14.054688 7.890625 Z M 14.054688 7.890625 "/>
<path style=" stroke:none;fill-rule:nonzero;fill:rgb(92.941176%,10.980392%,14.117647%);fill-opacity:1;" d="M 20.386719 8.261719 C 20.5 8.449219 20.714844 8.566406 20.949219 8.546875 C 21.273438 8.515625 21.507812 8.226562 21.480469 7.902344 C 21.480469 7.890625 21.476562 7.878906 21.476562 7.867188 C 21.441406 8.035156 21.242188 8.179688 20.992188 8.203125 C 20.800781 8.21875 20.628906 8.164062 20.527344 8.070312 C 20.476562 8.136719 20.425781 8.203125 20.386719 8.261719 "/>
<path style=" stroke:none;fill-rule:nonzero;fill:rgb(100%,100%,100%);fill-opacity:1;" d="M 19.597656 7.167969 L 19.800781 7.175781 L 19.699219 7.316406 C 19.699219 7.316406 19.5625 7.359375 19.597656 7.167969 M 19.113281 7.167969 L 19.40625 7.167969 C 19.40625 7.167969 19.394531 7.402344 19.609375 7.425781 L 19.5625 7.5 C 19.5625 7.5 18.988281 7.347656 19.113281 7.167969 Z M 19.113281 7.167969 "/>
<path style=" stroke:none;fill-rule:nonzero;fill:rgb(41.568627%,47.843137%,70.980392%);fill-opacity:1;" d="M 14.070312 9.1875 C 14.082031 9.152344 13.726562 8.941406 13.53125 8.890625 C 13.449219 8.871094 13.386719 8.96875 13.378906 9.007812 C 13.367188 9.046875 13.375 9.164062 13.457031 9.183594 C 13.648438 9.234375 14.0625 9.226562 14.070312 9.1875 M 14.042969 9.542969 C 14.046875 9.507812 13.691406 9.382812 13.507812 9.367188 C 13.429688 9.363281 13.390625 9.460938 13.386719 9.496094 C 13.386719 9.53125 13.410156 9.636719 13.488281 9.640625 C 13.671875 9.65625 14.039062 9.582031 14.042969 9.542969 Z M 13.640625 8.472656 L 13.640625 8.609375 C 13.691406 8.660156 13.882812 8.722656 13.902344 8.722656 L 13.902344 8.453125 C 13.902344 8.453125 13.761719 8.484375 13.640625 8.472656 Z M 13.566406 9.800781 C 13.507812 9.804688 13.488281 9.878906 13.488281 9.902344 C 13.492188 9.929688 13.515625 10.003906 13.574219 10 C 13.703125 9.996094 13.964844 9.910156 13.964844 9.886719 C 13.960938 9.859375 13.699219 9.796875 13.566406 9.800781 Z M 13.292969 13.394531 C 13.074219 13.679688 13.230469 13.9375 13.230469 13.9375 C 13.230469 13.738281 13.457031 13.484375 13.507812 13.433594 C 13.507812 13.433594 13.429688 13.394531 13.292969 13.394531 Z M 13.992188 13.996094 C 13.957031 14.171875 14.042969 14.339844 14.195312 14.421875 C 14.226562 14.4375 14.261719 14.449219 14.300781 14.457031 C 14.316406 14.460938 14.328125 14.460938 14.34375 14.464844 C 14.351562 14.464844 14.359375 14.464844 14.363281 14.464844 C 14.363281 14.464844 14.144531 14.257812 14.230469 14.0625 C 14.175781 14.019531 14.085938 13.996094 13.992188 13.996094 Z M 13.589844 8.207031 C 13.257812 8.042969 13.023438 7.636719 13.023438 7.160156 C 13.023438 6.65625 13.289062 6.230469 13.652344 6.089844 C 13.105469 6.210938 12.71875 6.695312 12.765625 7.246094 C 12.808594 7.710938 13.148438 8.082031 13.589844 8.207031 Z M 17.117188 7.039062 C 17.46875 6.972656 17.585938 7.285156 17.585938 7.398438 C 17.585938 7.824219 17.257812 7.996094 16.984375 7.996094 C 18.253906 7.996094 17.804688 6.347656 17.117188 7.039062 Z M 16.265625 10.695312 C 16.875 10.695312 16.832031 9.902344 16.699219 9.769531 C 16.894531 9.574219 17.296875 8.679688 17.296875 8.515625 C 17.296875 8.515625 16.496094 8.34375 16.625 7.785156 C 16.621094 7.785156 16.621094 7.785156 16.621094 7.785156 L 16.613281 7.78125 C 16.394531 8.011719 16.527344 8.496094 16.875 8.613281 C 16.875 8.613281 16.738281 9.144531 16.410156 9.480469 C 16.078125 9.464844 15.617188 9.421875 15.214844 9.269531 C 15.839844 9.601562 16.484375 10.101562 16.265625 10.695312 Z M 13.890625 6.882812 C 14.046875 6.871094 14.1875 6.980469 14.199219 7.132812 C 14.210938 7.28125 14.09375 7.414062 13.9375 7.425781 C 13.78125 7.4375 13.640625 7.328125 13.628906 7.175781 C 13.628906 7.410156 13.816406 7.597656 14.050781 7.597656 C 14.054688 7.597656 14.058594 7.597656 14.0625 7.597656 C 14.082031 7.703125 14.089844 7.8125 14.054688 7.890625 C 14.285156 7.695312 14.472656 7.445312 14.472656 7.175781 C 14.472656 6.945312 14.285156 6.753906 14.050781 6.753906 C 13.855469 6.753906 13.695312 6.886719 13.644531 7.0625 C 13.679688 6.964844 13.773438 6.890625 13.890625 6.882812 Z M 18.371094 6.574219 C 18.09375 6.300781 18.5 5.785156 18.652344 5.785156 C 18.488281 5.785156 17.78125 6.25 18.019531 6.574219 C 18.152344 6.574219 18.371094 6.574219 18.371094 6.574219 Z M 14.828125 11.152344 C 15.046875 11.21875 15.265625 11.136719 15.316406 10.96875 C 15.367188 10.800781 15.230469 10.613281 15.011719 10.542969 C 14.984375 10.535156 14.953125 10.53125 14.921875 10.527344 C 15.238281 10.707031 15.234375 11.066406 14.828125 11.152344 Z M 14.195312 8.835938 C 14.195312 8.835938 14.507812 8.933594 14.894531 9.109375 C 14.816406 9.0625 14.742188 9.007812 14.679688 8.945312 C 14.484375 8.761719 14.328125 8.660156 14.195312 8.609375 Z M 14.316406 12.855469 C 14.96875 12.855469 17.226562 11.410156 17.226562 11.410156 C 16.667969 11.410156 16.445312 11.324219 16.445312 11.324219 C 16.316406 11.390625 16.058594 11.519531 15.507812 11.84375 C 15.058594 12.109375 14.757812 12.441406 14.351562 12.589844 C 14.289062 12.609375 14.238281 12.617188 14.195312 12.613281 C 14.101562 12.605469 14 12.59375 13.902344 12.585938 L 13.902344 10.511719 C 13.902344 10.296875 13.746094 10.207031 13.640625 10.207031 L 13.640625 12.621094 C 13.460938 12.714844 13.375 12.832031 13.328125 12.941406 C 13.328125 12.941406 12.992188 12.894531 13 13.519531 C 13 13.355469 13.246094 13.066406 13.417969 13.066406 C 13.417969 12.855469 14.035156 12.855469 14.316406 12.855469 Z M 19.949219 16.195312 C 19.785156 16.195312 19.023438 16.226562 18.957031 15.5625 C 18.789062 15.527344 18.59375 15.519531 18.386719 15.550781 C 18.925781 16.574219 19.507812 16.582031 19.660156 16.589844 C 19.894531 16.855469 19.816406 17.75 19.472656 17.730469 C 18.21875 17.664062 18.265625 18.429688 18.40625 18.585938 C 18.40625 18.007812 18.796875 17.871094 19.785156 17.871094 C 19.785156 17.871094 20.59375 16.835938 19.949219 16.195312 Z M 20.207031 18.664062 L 20.039062 18.664062 C 20.023438 18.941406 20.292969 19.019531 20.292969 19.019531 C 20.207031 18.933594 20.144531 18.730469 20.207031 18.664062 Z M 18.621094 19.050781 C 18.546875 18.980469 18.488281 18.691406 18.59375 18.585938 L 18.40625 18.585938 C 18.390625 18.882812 18.621094 19.050781 18.621094 19.050781 Z M 22.367188 9.519531 C 22.367188 8.644531 21.164062 8.78125 21.105469 9.453125 C 21.15625 8.960938 21.960938 8.886719 21.960938 9.507812 C 21.960938 10.144531 20.460938 10.5625 20.460938 11.640625 C 20.460938 12.832031 21.652344 12.941406 21.53125 14.027344 C 21.511719 14.214844 21.308594 14.460938 21.015625 14.460938 C 20.390625 14.460938 20.054688 14.195312 19.863281 13.820312 C 20.0625 14.351562 20.410156 14.761719 21.140625 14.761719 C 21.894531 14.761719 21.964844 14.203125 21.964844 14.074219 C 21.964844 12.984375 20.828125 12.726562 20.828125 11.691406 C 20.828125 10.683594 22.367188 10.269531 22.367188 9.519531 Z M 13.503906 13.75 C 13.503906 14.085938 13.640625 14.214844 13.640625 14.214844 C 13.640625 14.011719 13.722656 13.839844 13.769531 13.792969 C 13.699219 13.722656 13.503906 13.75 13.503906 13.75 Z M 22.1875 11.894531 C 21.882812 11.894531 21.632812 12.128906 21.605469 12.425781 C 21.621094 12.351562 21.667969 12.285156 21.761719 12.214844 C 22.109375 11.953125 22.796875 12.476562 22.40625 13.019531 C 22.621094 12.933594 22.769531 12.722656 22.769531 12.476562 C 22.769531 12.15625 22.507812 11.894531 22.1875 11.894531 Z M 19.515625 18.664062 L 19.308594 18.664062 C 19.289062 19.054688 19.535156 19.113281 19.535156 19.113281 C 19.433594 19.007812 19.414062 18.765625 19.515625 18.664062 Z M 13.757812 16.597656 C 13.726562 16.597656 13.695312 16.605469 13.667969 16.617188 C 13.570312 16.6875 13.511719 16.804688 13.515625 16.929688 C 13.546875 17.03125 13.644531 17.105469 13.757812 17.105469 C 13.898438 17.105469 14.011719 16.992188 14.011719 16.851562 C 14.011719 16.710938 13.898438 16.597656 13.757812 16.597656 Z M 15.1875 18.480469 L 14.894531 18.480469 C 14.890625 18.953125 15.195312 19.039062 15.195312 19.039062 C 15.109375 18.953125 15 18.667969 15.1875 18.480469 Z M 16.101562 15.496094 C 16.101562 14.414062 18.6875 14.289062 18.6875 13.398438 C 18.6875 13.035156 18.375 12.871094 18.152344 12.871094 C 18.214844 12.9375 18.550781 13.660156 17.585938 13.660156 C 16.710938 13.953125 14.808594 15.605469 16.132812 16.179688 C 16.128906 16.34375 16.109375 17.582031 15.316406 17.484375 C 14.171875 17.34375 13.886719 17.816406 14.105469 18.347656 C 14.105469 17.539062 14.671875 17.691406 15.414062 17.691406 C 15.875 17.691406 16.550781 17.105469 16.550781 16.121094 C 16.550781 16.121094 16.101562 15.949219 16.101562 15.496094 Z M 13.902344 16.15625 L 13.902344 13.988281 C 13.757812 13.988281 13.640625 14.214844 13.640625 14.214844 L 13.640625 16.0625 L 13.640625 16.050781 L 13.480469 16.054688 L 13.480469 16.285156 C 13.605469 16.285156 13.902344 16.222656 13.902344 16.15625 Z M 14.347656 18.949219 C 14.347656 18.949219 14.121094 18.589844 14.363281 18.347656 L 14.105469 18.347656 C 14.003906 18.796875 14.347656 18.949219 14.347656 18.949219 Z M 15.941406 18.484375 C 15.941406 18.484375 15.820312 18.484375 15.730469 18.484375 C 15.726562 18.820312 16.113281 18.945312 16.113281 18.945312 C 15.976562 18.808594 15.882812 18.542969 15.941406 18.484375 Z M 15.941406 18.484375 "/>
<path style=" stroke:none;fill-rule:nonzero;fill:rgb(100%,100%,100%);fill-opacity:1;" d="M 8.75 14.886719 L 8.738281 14.839844 L 8.730469 14.796875 C 8.710938 14.640625 8.671875 14.347656 8.449219 14.296875 C 8.386719 14.285156 8.324219 14.289062 8.261719 14.316406 C 8.277344 14.25 8.277344 14.1875 8.253906 14.128906 C 8.171875 13.914062 7.878906 13.917969 7.722656 13.917969 L 7.675781 13.917969 L 7.628906 13.910156 C 7.476562 13.882812 7.1875 13.828125 7.070312 14.027344 C 7.039062 14.078125 7.023438 14.140625 7.03125 14.210938 C 6.96875 14.171875 6.910156 14.15625 6.847656 14.15625 C 6.617188 14.167969 6.53125 14.449219 6.484375 14.597656 L 6.46875 14.644531 L 6.449219 14.683594 C 6.371094 14.820312 6.234375 15.078125 6.382812 15.253906 C 6.425781 15.300781 6.476562 15.332031 6.546875 15.347656 C 6.492188 15.390625 6.457031 15.445312 6.441406 15.503906 C 6.382812 15.726562 6.621094 15.894531 6.75 15.984375 L 6.785156 16.015625 L 6.816406 16.046875 C 6.925781 16.160156 7.128906 16.371094 7.339844 16.285156 C 7.394531 16.257812 7.441406 16.21875 7.480469 16.15625 C 7.507812 16.222656 7.542969 16.273438 7.59375 16.304688 C 7.789062 16.429688 8.023438 16.257812 8.148438 16.164062 L 8.1875 16.136719 L 8.230469 16.117188 C 8.371094 16.046875 8.636719 15.921875 8.617188 15.691406 C 8.609375 15.632812 8.585938 15.574219 8.539062 15.519531 C 8.609375 15.515625 8.667969 15.496094 8.714844 15.457031 C 8.894531 15.3125 8.800781 15.035156 8.75 14.886719 "/>
<path style=" stroke:none;fill-rule:nonzero;fill:rgb(92.941176%,10.980392%,14.117647%);fill-opacity:1;" d="M 7.742188 15.070312 C 9.03125 15.832031 8.632812 14.996094 8.605469 14.871094 C 8.578125 14.75 8.566406 13.824219 7.742188 15.070312 "/>
<path style=" stroke:none;fill-rule:nonzero;fill:rgb(92.941176%,10.980392%,14.117647%);fill-opacity:1;" d="M 7.660156 15.261719 C 7.335938 16.722656 8.007812 16.085938 8.117188 16.019531 C 8.226562 15.957031 9.105469 15.660156 7.660156 15.261719 "/>
<path style=" stroke:none;fill-rule:nonzero;fill:rgb(92.941176%,10.980392%,14.117647%);fill-opacity:1;" d="M 7.457031 15.242188 C 5.964844 15.382812 6.777344 15.828125 6.875 15.910156 C 6.96875 15.996094 7.523438 16.738281 7.457031 15.242188 "/>
<path style=" stroke:none;fill-rule:nonzero;fill:rgb(92.941176%,10.980392%,14.117647%);fill-opacity:1;" d="M 7.410156 15.042969 C 6.8125 13.667969 6.644531 14.578125 6.59375 14.695312 C 6.542969 14.8125 6.007812 15.566406 7.410156 15.042969 "/>
<path style=" stroke:none;fill-rule:nonzero;fill:rgb(100%,100%,100%);fill-opacity:1;" d="M 28.675781 14.683594 L 28.65625 14.644531 L 28.640625 14.597656 C 28.59375 14.449219 28.503906 14.167969 28.277344 14.15625 C 28.214844 14.15625 28.15625 14.171875 28.09375 14.210938 C 28.101562 14.140625 28.085938 14.078125 28.054688 14.027344 C 27.9375 13.828125 27.648438 13.882812 27.496094 13.910156 L 27.449219 13.917969 L 27.402344 13.917969 C 27.246094 13.917969 26.953125 13.914062 26.871094 14.128906 C 26.847656 14.1875 26.847656 14.25 26.863281 14.316406 C 26.800781 14.289062 26.738281 14.285156 26.675781 14.296875 C 26.453125 14.347656 26.414062 14.640625 26.394531 14.796875 L 26.386719 14.839844 L 26.375 14.886719 C 26.324219 15.035156 26.230469 15.3125 26.410156 15.457031 C 26.457031 15.496094 26.515625 15.515625 26.585938 15.519531 C 26.539062 15.574219 26.515625 15.632812 26.507812 15.691406 C 26.488281 15.921875 26.753906 16.046875 26.894531 16.117188 L 26.9375 16.136719 L 26.976562 16.164062 C 27.101562 16.257812 27.335938 16.429688 27.527344 16.304688 C 27.582031 16.273438 27.617188 16.222656 27.644531 16.15625 C 27.683594 16.21875 27.730469 16.257812 27.785156 16.285156 C 27.996094 16.375 28.199219 16.160156 28.308594 16.046875 L 28.339844 16.015625 L 28.375 15.984375 C 28.503906 15.894531 28.742188 15.726562 28.683594 15.503906 C 28.667969 15.445312 28.632812 15.390625 28.578125 15.347656 C 28.644531 15.332031 28.699219 15.300781 28.742188 15.253906 C 28.890625 15.078125 28.753906 14.820312 28.675781 14.683594 "/>
<path style=" stroke:none;fill-rule:nonzero;fill:rgb(92.941176%,10.980392%,14.117647%);fill-opacity:1;" d="M 27.539062 14.933594 C 26.417969 13.945312 27.335938 14.0625 27.460938 14.050781 C 27.585938 14.042969 28.472656 13.765625 27.539062 14.933594 "/>
<path style=" stroke:none;fill-rule:nonzero;fill:rgb(92.941176%,10.980392%,14.117647%);fill-opacity:1;" d="M 27.382812 15.070312 C 26.09375 15.832031 26.492188 14.996094 26.519531 14.871094 C 26.546875 14.75 26.558594 13.824219 27.382812 15.070312 "/>
<path style=" stroke:none;fill-rule:nonzero;fill:rgb(92.941176%,10.980392%,14.117647%);fill-opacity:1;" d="M 27.460938 15.261719 C 27.789062 16.722656 27.117188 16.085938 27.007812 16.019531 C 26.898438 15.957031 26.019531 15.660156 27.460938 15.261719 "/>
<path style=" stroke:none;fill-rule:nonzero;fill:rgb(92.941176%,10.980392%,14.117647%);fill-opacity:1;" d="M 27.667969 15.242188 C 29.160156 15.382812 28.347656 15.828125 28.25 15.910156 C 28.15625 15.996094 27.601562 16.738281 27.667969 15.242188 "/>
<path style=" stroke:none;fill-rule:nonzero;fill:rgb(92.941176%,10.980392%,14.117647%);fill-opacity:1;" d="M 27.714844 15.042969 C 28.308594 13.667969 28.480469 14.578125 28.53125 14.695312 C 28.582031 14.8125 29.117188 15.566406 27.714844 15.042969 "/>
<path style=" stroke:none;fill-rule:nonzero;fill:rgb(100%,100%,100%);fill-opacity:1;" d="M 28.003906 15.085938 C 28.003906 15.074219 28 15.0625 28 15.050781 C 28.117188 14.960938 28.246094 14.867188 28.246094 14.867188 L 28.234375 14.839844 C 28.234375 14.839844 28.082031 14.867188 27.9375 14.890625 C 27.867188 14.773438 27.742188 14.691406 27.601562 14.679688 C 27.554688 14.542969 27.511719 14.40625 27.511719 14.40625 L 27.480469 14.410156 C 27.480469 14.410156 27.460938 14.550781 27.441406 14.691406 C 27.351562 14.714844 27.273438 14.765625 27.214844 14.835938 C 27.183594 14.875 27.160156 14.917969 27.144531 14.960938 C 26.996094 14.960938 26.84375 14.960938 26.84375 14.960938 L 26.835938 14.992188 C 26.835938 14.992188 26.980469 15.0625 27.113281 15.125 C 27.113281 15.136719 27.113281 15.152344 27.113281 15.164062 C 27.125 15.28125 27.179688 15.382812 27.265625 15.460938 C 27.21875 15.605469 27.167969 15.769531 27.167969 15.769531 L 27.191406 15.785156 C 27.191406 15.785156 27.3125 15.660156 27.421875 15.546875 C 27.476562 15.566406 27.539062 15.574219 27.597656 15.570312 C 27.660156 15.5625 27.714844 15.546875 27.769531 15.519531 C 27.894531 15.609375 28.035156 15.710938 28.035156 15.710938 L 28.058594 15.691406 C 28.058594 15.691406 27.976562 15.539062 27.90625 15.40625 C 27.980469 15.3125 28.015625 15.199219 28.003906 15.085938 "/>
<path style=" stroke:none;fill-rule:nonzero;fill:rgb(92.941176%,10.980392%,14.117647%);fill-opacity:1;" d="M 27.535156 14.859375 C 27.464844 14.867188 27.402344 14.898438 27.355469 14.953125 C 27.3125 15.007812 27.289062 15.074219 27.296875 15.144531 C 27.308594 15.292969 27.4375 15.398438 27.582031 15.386719 C 27.652344 15.378906 27.714844 15.347656 27.761719 15.292969 C 27.808594 15.238281 27.828125 15.171875 27.824219 15.101562 C 27.808594 14.953125 27.679688 14.847656 27.535156 14.859375 "/>
<path style=" stroke:none;fill-rule:nonzero;fill:rgb(92.941176%,10.980392%,14.117647%);fill-opacity:1;" d="M 7.585938 14.933594 C 8.707031 13.945312 7.789062 14.0625 7.664062 14.050781 C 7.539062 14.042969 6.652344 13.765625 7.585938 14.933594 "/>
<path style=" stroke:none;fill-rule:nonzero;fill:rgb(100%,100%,100%);fill-opacity:1;" d="M 8.011719 15.125 C 8.144531 15.0625 8.289062 14.992188 8.289062 14.992188 L 8.28125 14.960938 C 8.28125 14.960938 8.128906 14.960938 7.980469 14.960938 C 7.964844 14.917969 7.941406 14.875 7.910156 14.835938 C 7.847656 14.765625 7.769531 14.714844 7.683594 14.691406 C 7.664062 14.550781 7.644531 14.410156 7.644531 14.410156 L 7.613281 14.40625 C 7.613281 14.40625 7.566406 14.542969 7.523438 14.679688 C 7.382812 14.691406 7.257812 14.773438 7.183594 14.890625 C 7.042969 14.867188 6.890625 14.839844 6.890625 14.839844 L 6.878906 14.867188 C 6.878906 14.867188 7.007812 14.960938 7.125 15.050781 C 7.125 15.0625 7.121094 15.074219 7.121094 15.085938 C 7.109375 15.203125 7.144531 15.3125 7.21875 15.40625 C 7.148438 15.539062 7.066406 15.691406 7.066406 15.691406 L 7.089844 15.710938 C 7.089844 15.710938 7.230469 15.609375 7.355469 15.519531 C 7.410156 15.546875 7.464844 15.5625 7.527344 15.570312 C 7.589844 15.574219 7.648438 15.566406 7.703125 15.546875 C 7.8125 15.660156 7.929688 15.785156 7.929688 15.785156 L 7.957031 15.769531 C 7.957031 15.769531 7.90625 15.605469 7.859375 15.460938 C 7.945312 15.382812 8 15.277344 8.011719 15.164062 C 8.011719 15.152344 8.011719 15.136719 8.011719 15.125 "/>
<path style=" stroke:none;fill-rule:nonzero;fill:rgb(92.941176%,10.980392%,14.117647%);fill-opacity:1;" d="M 7.769531 14.953125 C 7.722656 14.898438 7.660156 14.867188 7.589844 14.859375 C 7.445312 14.847656 7.316406 14.953125 7.300781 15.101562 C 7.296875 15.171875 7.316406 15.238281 7.363281 15.292969 C 7.410156 15.347656 7.472656 15.378906 7.542969 15.386719 C 7.6875 15.398438 7.816406 15.292969 7.828125 15.144531 C 7.835938 15.074219 7.8125 15.007812 7.769531 14.953125 "/>
<path style=" stroke:none;fill-rule:nonzero;fill:rgb(100%,100%,100%);fill-opacity:1;" d="M 7.75 8.710938 C 7.125 8.601562 6.523438 9.023438 6.414062 9.648438 C 6.300781 10.277344 6.722656 10.875 7.347656 10.988281 C 7.976562 11.097656 8.578125 10.675781 8.6875 10.050781 C 8.796875 9.421875 8.378906 8.824219 7.75 8.710938 "/>
<path style=" stroke:none;fill-rule:nonzero;fill:rgb(92.941176%,10.980392%,14.117647%);fill-opacity:1;" d="M 8.011719 9.585938 C 8 9.578125 7.984375 9.570312 7.960938 9.554688 C 7.867188 9.492188 7.683594 9.367188 7.675781 9.363281 C 7.652344 9.347656 7.625 9.332031 7.601562 9.3125 C 7.519531 9.257812 7.445312 9.210938 7.375 9.171875 C 7.347656 9.15625 7.324219 9.140625 7.296875 9.128906 C 7.1875 9.074219 7.082031 9.039062 6.957031 9.027344 C 6.859375 9.097656 6.777344 9.183594 6.707031 9.28125 C 6.996094 9.386719 7.277344 9.554688 7.859375 9.914062 C 7.894531 9.839844 8.003906 9.601562 8.011719 9.585938 "/>
<path style=" stroke:none;fill-rule:nonzero;fill:rgb(92.941176%,10.980392%,14.117647%);fill-opacity:1;" d="M 7.742188 10.207031 C 7.753906 10.175781 7.804688 10.046875 7.828125 9.996094 C 7.226562 9.625 6.949219 9.460938 6.664062 9.359375 C 6.617188 9.4375 6.585938 9.527344 6.5625 9.617188 C 6.726562 9.84375 7.167969 10.066406 7.742188 10.207031 "/>
<path style=" stroke:none;fill-rule:nonzero;fill:rgb(92.941176%,10.980392%,14.117647%);fill-opacity:1;" d="M 7.679688 9.261719 C 7.902344 9.128906 8.15625 9.164062 8.351562 9.230469 C 8.28125 9.136719 8.191406 9.054688 8.085938 8.988281 C 7.902344 8.953125 7.644531 8.945312 7.441406 9.109375 C 7.515625 9.152344 7.59375 9.203125 7.679688 9.261719 "/>
<path style=" stroke:none;fill-rule:nonzero;fill:rgb(92.941176%,10.980392%,14.117647%);fill-opacity:1;" d="M 6.785156 10.332031 C 6.8125 10.351562 6.84375 10.371094 6.878906 10.390625 C 6.941406 10.425781 7.015625 10.457031 7.089844 10.484375 C 7.121094 10.496094 7.152344 10.507812 7.183594 10.519531 C 7.296875 10.554688 7.554688 10.621094 7.574219 10.625 C 7.578125 10.617188 7.671875 10.378906 7.710938 10.285156 C 7.261719 10.175781 6.773438 9.984375 6.542969 9.730469 C 6.527344 9.847656 6.535156 9.960938 6.558594 10.070312 C 6.609375 10.179688 6.6875 10.261719 6.785156 10.332031 "/>
<path style=" stroke:none;fill-rule:nonzero;fill:rgb(92.941176%,10.980392%,14.117647%);fill-opacity:1;" d="M 7.585938 10.71875 L 7.496094 10.695312 C 7.410156 10.671875 7.316406 10.648438 7.21875 10.621094 C 7.265625 10.71875 7.339844 10.796875 7.417969 10.855469 C 7.519531 10.867188 7.625 10.867188 7.722656 10.847656 C 7.652344 10.792969 7.585938 10.71875 7.585938 10.71875 "/>
<path style=" stroke:none;fill-rule:nonzero;fill:rgb(92.941176%,10.980392%,14.117647%);fill-opacity:1;" d="M 8.519531 9.554688 C 8.5 9.484375 8.472656 9.417969 8.4375 9.355469 C 8.261719 9.277344 7.992188 9.203125 7.757812 9.316406 L 8.082031 9.527344 C 8.148438 9.523438 8.210938 9.519531 8.265625 9.523438 C 8.296875 9.523438 8.328125 9.523438 8.355469 9.527344 C 8.417969 9.53125 8.472656 9.542969 8.519531 9.554688 "/>
<path style=" stroke:none;fill-rule:nonzero;fill:rgb(92.941176%,10.980392%,14.117647%);fill-opacity:1;" d="M 8.355469 9.613281 C 8.347656 10.144531 8.097656 10.554688 7.878906 10.808594 C 8.21875 10.691406 8.484375 10.402344 8.550781 10.027344 C 8.574219 9.898438 8.570312 9.773438 8.546875 9.652344 C 8.492188 9.636719 8.429688 9.621094 8.355469 9.613281 "/>
<path style=" stroke:none;fill-rule:nonzero;fill:rgb(92.941176%,10.980392%,14.117647%);fill-opacity:1;" d="M 7.359375 9.0625 C 7.511719 8.929688 7.691406 8.886719 7.855469 8.882812 C 7.8125 8.871094 7.769531 8.859375 7.726562 8.851562 C 7.492188 8.808594 7.261719 8.851562 7.066406 8.957031 C 7.171875 8.976562 7.265625 9.015625 7.359375 9.0625 "/>
<path style=" stroke:none;fill-rule:nonzero;fill:rgb(92.941176%,10.980392%,14.117647%);fill-opacity:1;" d="M 8.09375 9.613281 C 8.015625 9.773438 7.972656 9.871094 7.933594 9.960938 C 7.921875 9.988281 7.910156 10.015625 7.902344 10.042969 C 7.882812 10.085938 7.828125 10.226562 7.828125 10.226562 L 7.792969 10.308594 L 7.652344 10.660156 C 7.691406 10.710938 7.738281 10.753906 7.785156 10.789062 C 7.996094 10.546875 8.261719 10.140625 8.269531 9.609375 C 8.214844 9.609375 8.15625 9.609375 8.09375 9.613281 "/>
<path style=" stroke:none;fill-rule:nonzero;fill:rgb(92.941176%,10.980392%,14.117647%);fill-opacity:1;" d="M 7.113281 10.585938 C 7.042969 10.558594 6.972656 10.53125 6.902344 10.5 C 6.929688 10.578125 6.964844 10.644531 7 10.703125 C 7.078125 10.753906 7.160156 10.792969 7.25 10.820312 C 7.191406 10.753906 7.140625 10.675781 7.113281 10.585938 "/>
<path style=" stroke:none;fill-rule:nonzero;fill:rgb(92.941176%,10.980392%,14.117647%);fill-opacity:1;" d="M 6.800781 10.441406 C 6.75 10.414062 6.707031 10.382812 6.664062 10.347656 C 6.710938 10.429688 6.769531 10.507812 6.839844 10.574219 C 6.824219 10.53125 6.808594 10.488281 6.800781 10.441406 "/>
<path style=" stroke:none;fill-rule:nonzero;fill:rgb(100%,100%,100%);fill-opacity:1;" d="M 26.3125 10.050781 C 26.421875 10.679688 27.023438 11.097656 27.648438 10.988281 C 28.277344 10.878906 28.699219 10.277344 28.585938 9.648438 C 28.476562 9.023438 27.875 8.601562 27.25 8.710938 C 26.621094 8.824219 26.203125 9.421875 26.3125 10.050781 "/>
<path style=" stroke:none;fill-rule:nonzero;fill:rgb(92.941176%,10.980392%,14.117647%);fill-opacity:1;" d="M 26.988281 9.585938 C 26.996094 9.578125 27.015625 9.570312 27.039062 9.554688 C 27.132812 9.492188 27.316406 9.367188 27.320312 9.363281 C 27.347656 9.347656 27.375 9.332031 27.398438 9.3125 C 27.480469 9.257812 27.554688 9.210938 27.625 9.171875 C 27.652344 9.15625 27.675781 9.140625 27.703125 9.128906 C 27.8125 9.074219 27.917969 9.039062 28.042969 9.027344 C 28.140625 9.097656 28.222656 9.183594 28.289062 9.28125 C 28.003906 9.386719 27.722656 9.554688 27.140625 9.914062 C 27.105469 9.839844 26.996094 9.601562 26.988281 9.585938 "/>
<path style=" stroke:none;fill-rule:nonzero;fill:rgb(92.941176%,10.980392%,14.117647%);fill-opacity:1;" d="M 27.257812 10.207031 C 27.246094 10.175781 27.195312 10.046875 27.171875 9.996094 C 27.769531 9.625 28.050781 9.460938 28.335938 9.359375 C 28.382812 9.4375 28.414062 9.527344 28.4375 9.617188 C 28.273438 9.84375 27.832031 10.066406 27.257812 10.207031 "/>
<path style=" stroke:none;fill-rule:nonzero;fill:rgb(92.941176%,10.980392%,14.117647%);fill-opacity:1;" d="M 27.320312 9.261719 C 27.097656 9.128906 26.84375 9.164062 26.644531 9.230469 C 26.71875 9.136719 26.808594 9.054688 26.914062 8.988281 C 27.097656 8.953125 27.355469 8.945312 27.558594 9.109375 C 27.484375 9.152344 27.40625 9.203125 27.320312 9.261719 "/>
<path style=" stroke:none;fill-rule:nonzero;fill:rgb(92.941176%,10.980392%,14.117647%);fill-opacity:1;" d="M 28.214844 10.332031 C 28.1875 10.351562 28.15625 10.371094 28.121094 10.390625 C 28.054688 10.425781 27.984375 10.457031 27.910156 10.484375 C 27.878906 10.496094 27.847656 10.507812 27.816406 10.519531 C 27.703125 10.554688 27.445312 10.621094 27.425781 10.625 C 27.421875 10.617188 27.324219 10.378906 27.289062 10.285156 C 27.734375 10.175781 28.222656 9.984375 28.457031 9.730469 C 28.472656 9.847656 28.464844 9.960938 28.441406 10.070312 C 28.390625 10.179688 28.3125 10.261719 28.214844 10.332031 "/>
<path style=" stroke:none;fill-rule:nonzero;fill:rgb(92.941176%,10.980392%,14.117647%);fill-opacity:1;" d="M 27.414062 10.71875 L 27.503906 10.695312 C 27.589844 10.671875 27.683594 10.648438 27.78125 10.621094 C 27.734375 10.71875 27.660156 10.796875 27.582031 10.855469 C 27.480469 10.867188 27.375 10.867188 27.277344 10.847656 C 27.347656 10.792969 27.414062 10.71875 27.414062 10.71875 "/>
<path style=" stroke:none;fill-rule:nonzero;fill:rgb(92.941176%,10.980392%,14.117647%);fill-opacity:1;" d="M 26.480469 9.554688 C 26.5 9.484375 26.527344 9.417969 26.5625 9.355469 C 26.738281 9.277344 27.007812 9.203125 27.238281 9.316406 L 26.917969 9.527344 C 26.851562 9.523438 26.789062 9.519531 26.730469 9.523438 C 26.703125 9.523438 26.671875 9.523438 26.644531 9.527344 C 26.582031 9.53125 26.527344 9.542969 26.480469 9.554688 "/>
<path style=" stroke:none;fill-rule:nonzero;fill:rgb(92.941176%,10.980392%,14.117647%);fill-opacity:1;" d="M 26.644531 9.613281 C 26.652344 10.144531 26.902344 10.554688 27.121094 10.808594 C 26.78125 10.691406 26.515625 10.402344 26.449219 10.027344 C 26.425781 9.898438 26.429688 9.773438 26.453125 9.652344 C 26.507812 9.636719 26.570312 9.621094 26.644531 9.613281 "/>
<path style=" stroke:none;fill-rule:nonzero;fill:rgb(92.941176%,10.980392%,14.117647%);fill-opacity:1;" d="M 27.640625 9.0625 C 27.488281 8.929688 27.308594 8.886719 27.144531 8.882812 C 27.1875 8.871094 27.230469 8.859375 27.273438 8.851562 C 27.507812 8.808594 27.738281 8.851562 27.933594 8.957031 C 27.828125 8.976562 27.734375 9.015625 27.640625 9.0625 "/>
<path style=" stroke:none;fill-rule:nonzero;fill:rgb(92.941176%,10.980392%,14.117647%);fill-opacity:1;" d="M 26.90625 9.613281 C 26.984375 9.773438 27.027344 9.871094 27.066406 9.960938 C 27.078125 9.988281 27.085938 10.015625 27.097656 10.042969 C 27.117188 10.085938 27.171875 10.226562 27.171875 10.226562 L 27.203125 10.308594 L 27.347656 10.660156 C 27.308594 10.710938 27.261719 10.753906 27.214844 10.789062 C 27.003906 10.546875 26.738281 10.140625 26.730469 9.609375 C 26.785156 9.609375 26.84375 9.609375 26.90625 9.613281 "/>
<path style=" stroke:none;fill-rule:nonzero;fill:rgb(92.941176%,10.980392%,14.117647%);fill-opacity:1;" d="M 27.886719 10.585938 C 27.957031 10.558594 28.027344 10.53125 28.097656 10.5 C 28.070312 10.578125 28.035156 10.644531 28 10.703125 C 27.921875 10.753906 27.839844 10.792969 27.75 10.820312 C 27.808594 10.753906 27.859375 10.675781 27.886719 10.585938 "/>
<path style=" stroke:none;fill-rule:nonzero;fill:rgb(92.941176%,10.980392%,14.117647%);fill-opacity:1;" d="M 28.199219 10.441406 C 28.25 10.414062 28.292969 10.382812 28.335938 10.347656 C 28.289062 10.429688 28.230469 10.507812 28.160156 10.574219 C 28.175781 10.53125 28.191406 10.488281 28.199219 10.441406 "/>
</g>
</svg>
