<?xml version="1.0" encoding="UTF-8"?>
<svg xmlns="http://www.w3.org/2000/svg" xmlns:xlink="http://www.w3.org/1999/xlink" width="25pt" height="25pt" viewBox="0 0 25 25" version="1.1">
<g id="surface1">
<path style=" stroke:none;fill-rule:nonzero;fill:rgb(85.882353%,63.137255%,6.666667%);fill-opacity:1;" d="M 25 12.5 C 25 19.402344 19.402344 25 12.5 25 C 5.597656 25 0 19.402344 0 12.5 C 0 5.597656 5.597656 0 12.5 0 C 19.402344 0 25 5.597656 25 12.5 "/>
<path style=" stroke:none;fill-rule:nonzero;fill:rgb(1.176471%,27.45098%,58.039216%);fill-opacity:1;" d="M 24.582031 12.5 C 24.582031 19.171875 19.171875 24.582031 12.5 24.582031 C 5.828125 24.582031 0.417969 19.171875 0.417969 12.5 C 0.417969 5.828125 5.828125 0.417969 12.5 0.417969 C 19.171875 0.417969 24.582031 5.828125 24.582031 12.5 "/>
<path style=" stroke:none;fill-rule:nonzero;fill:rgb(85.882353%,63.137255%,6.666667%);fill-opacity:1;" d="M 21.109375 12.5 C 21.109375 17.253906 17.253906 21.109375 12.5 21.109375 C 7.742188 21.109375 3.890625 17.253906 3.890625 12.5 C 3.890625 7.742188 7.742188 3.890625 12.5 3.890625 C 17.253906 3.890625 21.109375 7.742188 21.109375 12.5 "/>
<path style=" stroke:none;fill-rule:nonzero;fill:rgb(100%,100%,100%);fill-opacity:1;" d="M 20.851562 12.5 C 20.851562 17.113281 17.109375 20.851562 12.5 20.851562 C 7.886719 20.851562 4.148438 17.113281 4.148438 12.5 C 4.148438 7.886719 7.886719 4.148438 12.5 4.148438 C 17.109375 4.148438 20.851562 7.886719 20.851562 12.5 "/>
<path style=" stroke:none;fill-rule:nonzero;fill:rgb(85.882353%,63.137255%,6.666667%);fill-opacity:1;" d="M 5.34375 19.703125 C 5.4375 19.792969 5.664062 20.007812 5.664062 20.007812 L 5.882812 19.777344 L 5.234375 19.160156 L 5.148438 19.246094 L 4.277344 20.160156 L 4.609375 20.476562 C 4.609375 20.476562 4.886719 20.183594 4.988281 20.078125 C 5.074219 20.160156 5.28125 20.355469 5.28125 20.355469 L 5.5 20.125 C 5.5 20.125 5.292969 19.929688 5.207031 19.847656 C 5.261719 19.789062 5.289062 19.761719 5.34375 19.703125 "/>
<path style=" stroke:none;fill-rule:nonzero;fill:rgb(85.882353%,63.137255%,6.666667%);fill-opacity:1;" d="M 6.914062 20.75 C 6.882812 20.574219 6.785156 20.417969 6.636719 20.3125 C 6.488281 20.207031 6.308594 20.164062 6.132812 20.195312 C 5.945312 20.226562 5.773438 20.335938 5.65625 20.503906 C 5.535156 20.671875 5.488281 20.867188 5.519531 21.058594 C 5.550781 21.234375 5.648438 21.386719 5.796875 21.492188 C 5.945312 21.597656 6.125 21.640625 6.300781 21.613281 C 6.488281 21.578125 6.65625 21.46875 6.777344 21.300781 C 6.871094 21.167969 6.921875 21.015625 6.921875 20.863281 C 6.921875 20.824219 6.917969 20.785156 6.914062 20.75 M 5.980469 21.234375 C 5.828125 21.128906 5.953125 20.902344 6.042969 20.777344 C 6.128906 20.65625 6.300781 20.460938 6.453125 20.570312 C 6.609375 20.683594 6.460938 20.929688 6.390625 21.027344 C 6.320312 21.128906 6.136719 21.347656 5.980469 21.234375 Z M 5.980469 21.234375 "/>
<path style=" stroke:none;fill-rule:nonzero;fill:rgb(85.882353%,63.137255%,6.666667%);fill-opacity:1;" d="M 7.933594 21.09375 C 7.585938 20.917969 7.179688 21.0625 6.992188 21.433594 C 6.902344 21.617188 6.882812 21.816406 6.941406 22 C 6.996094 22.167969 7.117188 22.308594 7.28125 22.386719 C 7.445312 22.472656 7.625 22.484375 7.796875 22.429688 C 7.976562 22.371094 8.128906 22.238281 8.222656 22.054688 C 8.410156 21.683594 8.285156 21.273438 7.933594 21.09375 M 7.546875 22.117188 C 7.507812 22.132812 7.46875 22.128906 7.421875 22.105469 C 7.355469 22.070312 7.328125 22.007812 7.328125 21.9375 C 7.328125 21.839844 7.375 21.722656 7.417969 21.644531 C 7.484375 21.507812 7.625 21.292969 7.792969 21.378906 C 7.835938 21.402344 7.863281 21.429688 7.875 21.46875 C 7.902344 21.554688 7.875 21.691406 7.800781 21.839844 C 7.726562 21.988281 7.628906 22.089844 7.546875 22.117188 Z M 7.546875 22.117188 "/>
<path style=" stroke:none;fill-rule:nonzero;fill:rgb(85.882353%,63.137255%,6.666667%);fill-opacity:1;" d="M 8.65625 21.601562 L 8.59375 21.785156 C 8.59375 21.785156 8.757812 21.84375 8.804688 21.859375 C 8.742188 22.039062 8.453125 22.871094 8.453125 22.871094 L 8.882812 23.019531 C 8.882812 23.019531 9.175781 22.191406 9.238281 22.011719 C 9.289062 22.03125 9.453125 22.085938 9.453125 22.085938 L 9.558594 21.789062 L 8.695312 21.488281 L 8.65625 21.601562 "/>
<path style=" stroke:none;fill-rule:nonzero;fill:rgb(85.882353%,63.137255%,6.666667%);fill-opacity:1;" d="M 10.445312 22.003906 L 9.863281 21.878906 L 9.839844 21.996094 L 9.578125 23.234375 L 10.171875 23.359375 C 10.359375 23.398438 10.484375 23.351562 10.558594 23.308594 C 10.648438 23.246094 10.710938 23.152344 10.734375 23.035156 C 10.742188 23.003906 10.746094 22.972656 10.746094 22.945312 C 10.746094 22.859375 10.71875 22.785156 10.671875 22.71875 C 10.738281 22.667969 10.785156 22.59375 10.804688 22.5 C 10.808594 22.476562 10.8125 22.449219 10.8125 22.417969 C 10.8125 22.261719 10.722656 22.058594 10.445312 22.003906 M 10.285156 22.945312 C 10.28125 22.972656 10.269531 23.011719 10.246094 23.027344 C 10.226562 23.039062 10.191406 23.039062 10.140625 23.03125 C 10.140625 23.03125 10.117188 23.023438 10.089844 23.019531 C 10.109375 22.929688 10.121094 22.871094 10.140625 22.78125 C 10.167969 22.789062 10.199219 22.792969 10.199219 22.792969 C 10.277344 22.808594 10.289062 22.867188 10.289062 22.90625 C 10.289062 22.925781 10.289062 22.9375 10.285156 22.945312 Z M 10.246094 22.285156 C 10.296875 22.296875 10.335938 22.316406 10.351562 22.335938 C 10.355469 22.347656 10.359375 22.359375 10.359375 22.378906 C 10.359375 22.386719 10.359375 22.398438 10.355469 22.414062 C 10.347656 22.449219 10.335938 22.5 10.234375 22.480469 C 10.234375 22.480469 10.222656 22.476562 10.207031 22.472656 C 10.222656 22.398438 10.230469 22.359375 10.246094 22.285156 Z M 10.246094 22.285156 "/>
<path style=" stroke:none;fill-rule:nonzero;fill:rgb(85.882353%,63.137255%,6.666667%);fill-opacity:1;" d="M 11.523438 22.203125 L 10.890625 23.5 L 11.25 23.527344 C 11.25 23.527344 11.347656 23.320312 11.386719 23.238281 C 11.464844 23.246094 11.539062 23.25 11.617188 23.257812 C 11.644531 23.34375 11.714844 23.5625 11.714844 23.5625 L 12.195312 23.601562 L 11.65625 21.933594 L 11.523438 22.203125 "/>
<path style=" stroke:none;fill-rule:nonzero;fill:rgb(85.882353%,63.137255%,6.666667%);fill-opacity:1;" d="M 12.949219 23.238281 C 12.941406 23.046875 12.90625 22.1875 12.90625 22.1875 L 12.449219 22.207031 L 12.507812 23.589844 L 13.421875 23.550781 L 13.40625 23.21875 C 13.40625 23.21875 13.082031 23.234375 12.949219 23.238281 "/>
<path style=" stroke:none;fill-rule:nonzero;fill:rgb(85.882353%,63.137255%,6.666667%);fill-opacity:1;" d="M 14.203125 23.105469 C 14.171875 22.917969 14.039062 22.066406 14.039062 22.066406 L 13.917969 22.085938 L 13.585938 22.136719 L 13.800781 23.503906 L 14.707031 23.363281 L 14.65625 23.035156 C 14.65625 23.035156 14.332031 23.085938 14.203125 23.105469 "/>
<path style=" stroke:none;fill-rule:nonzero;fill:rgb(85.882353%,63.137255%,6.666667%);fill-opacity:1;" d="M 16.824219 22.183594 C 16.820312 22.304688 16.75 22.40625 16.640625 22.449219 C 16.582031 22.472656 16.523438 22.472656 16.464844 22.449219 C 16.375 22.410156 16.292969 22.3125 16.246094 22.191406 C 16.1875 22.046875 16.175781 21.921875 16.210938 21.835938 C 16.238281 21.773438 16.289062 21.726562 16.367188 21.695312 C 16.453125 21.664062 16.535156 21.695312 16.644531 21.757812 L 16.746094 21.820312 L 16.914062 21.554688 L 16.816406 21.488281 C 16.632812 21.367188 16.402344 21.339844 16.207031 21.421875 C 16.023438 21.492188 15.882812 21.628906 15.808594 21.804688 C 15.730469 21.980469 15.730469 22.183594 15.808594 22.375 C 15.953125 22.738281 16.363281 22.917969 16.722656 22.773438 C 16.984375 22.667969 17.132812 22.472656 17.148438 22.203125 L 17.160156 22.082031 L 16.828125 22.058594 L 16.824219 22.183594 "/>
<path style=" stroke:none;fill-rule:nonzero;fill:rgb(85.882353%,63.137255%,6.666667%);fill-opacity:1;" d="M 17.890625 21.808594 C 17.796875 21.640625 17.375 20.886719 17.375 20.886719 L 17.269531 20.945312 L 16.976562 21.109375 L 17.652344 22.320312 L 18.453125 21.875 L 18.289062 21.582031 C 18.289062 21.582031 18.003906 21.742188 17.890625 21.808594 "/>
<path style=" stroke:none;fill-rule:nonzero;fill:rgb(85.882353%,63.137255%,6.666667%);fill-opacity:1;" d="M 18.777344 19.941406 L 18.679688 20.011719 L 18.507812 20.140625 L 19.070312 20.902344 C 19.09375 20.9375 19.09375 20.960938 19.09375 20.976562 C 19.085938 21.015625 19.046875 21.058594 19.011719 21.082031 C 18.992188 21.097656 18.953125 21.113281 18.914062 21.105469 C 18.882812 21.101562 18.859375 21.085938 18.839844 21.058594 L 18.285156 20.304688 L 17.917969 20.574219 L 18.46875 21.324219 C 18.550781 21.4375 18.652344 21.503906 18.769531 21.519531 C 18.902344 21.542969 19.054688 21.496094 19.195312 21.390625 C 19.484375 21.179688 19.480469 20.898438 19.355469 20.726562 L 18.777344 19.941406 "/>
<path style=" stroke:none;fill-rule:nonzero;fill:rgb(85.882353%,63.137255%,6.666667%);fill-opacity:1;" d="M 20.460938 19.664062 C 20.375 19.574219 20.273438 19.535156 20.160156 19.542969 C 20.15625 19.457031 20.121094 19.375 20.054688 19.304688 C 19.941406 19.1875 19.683594 19.09375 19.445312 19.324219 L 19.015625 19.738281 L 19.980469 20.734375 L 20.414062 20.3125 C 20.554688 20.175781 20.585938 20.046875 20.585938 19.960938 C 20.589844 19.855469 20.542969 19.75 20.460938 19.664062 M 19.734375 19.628906 C 19.746094 19.644531 19.765625 19.664062 19.765625 19.6875 C 19.765625 19.707031 19.753906 19.734375 19.722656 19.765625 C 19.722656 19.765625 19.710938 19.773438 19.699219 19.789062 C 19.644531 19.730469 19.621094 19.703125 19.566406 19.648438 C 19.660156 19.558594 19.703125 19.597656 19.734375 19.628906 Z M 19.960938 19.972656 C 20.039062 19.898438 20.113281 19.964844 20.136719 19.984375 C 20.15625 20.007812 20.179688 20.035156 20.179688 20.0625 C 20.179688 20.085938 20.160156 20.117188 20.125 20.152344 C 20.125 20.152344 20.109375 20.167969 20.089844 20.1875 C 20.023438 20.125 19.984375 20.078125 19.917969 20.015625 C 19.9375 19.996094 19.960938 19.972656 19.960938 19.972656 Z M 19.960938 19.972656 "/>
<path style=" stroke:none;fill-rule:nonzero;fill:rgb(100%,100%,100%);fill-opacity:1;" d="M 5.34375 19.574219 C 5.378906 19.613281 5.660156 19.878906 5.660156 19.878906 L 5.753906 19.78125 L 5.234375 19.289062 L 5.214844 19.308594 L 4.40625 20.160156 L 4.605469 20.347656 C 4.605469 20.347656 4.949219 19.988281 4.988281 19.949219 C 5.023438 19.984375 5.277344 20.226562 5.277344 20.226562 L 5.371094 20.128906 C 5.371094 20.128906 5.117188 19.886719 5.078125 19.851562 C 5.113281 19.816406 5.308594 19.609375 5.34375 19.574219 "/>
<path style=" stroke:none;fill-rule:nonzero;fill:rgb(100%,100%,100%);fill-opacity:1;" d="M 6.582031 20.386719 C 6.453125 20.292969 6.300781 20.257812 6.148438 20.285156 C 5.984375 20.3125 5.835938 20.410156 5.730469 20.558594 C 5.625 20.707031 5.582031 20.878906 5.609375 21.042969 C 5.636719 21.195312 5.71875 21.328125 5.847656 21.417969 C 5.976562 21.511719 6.132812 21.546875 6.285156 21.523438 C 6.449219 21.492188 6.597656 21.398438 6.703125 21.25 C 6.785156 21.132812 6.832031 20.996094 6.832031 20.863281 C 6.832031 20.832031 6.828125 20.796875 6.824219 20.761719 C 6.796875 20.613281 6.710938 20.476562 6.582031 20.386719 M 6.464844 21.082031 C 6.378906 21.203125 6.152344 21.46875 5.925781 21.308594 C 5.703125 21.148438 5.878906 20.847656 5.96875 20.726562 C 6.054688 20.601562 6.28125 20.335938 6.503906 20.496094 C 6.730469 20.65625 6.550781 20.957031 6.464844 21.082031 Z M 6.464844 21.082031 "/>
<path style=" stroke:none;fill-rule:nonzero;fill:rgb(100%,100%,100%);fill-opacity:1;" d="M 7.894531 21.175781 C 7.589844 21.023438 7.238281 21.152344 7.074219 21.472656 C 6.992188 21.636719 6.976562 21.8125 7.027344 21.972656 C 7.078125 22.117188 7.179688 22.234375 7.320312 22.308594 C 7.464844 22.378906 7.621094 22.390625 7.769531 22.34375 C 7.925781 22.292969 8.058594 22.175781 8.140625 22.011719 C 8.304688 21.691406 8.199219 21.332031 7.894531 21.175781 M 7.382812 22.1875 C 7.136719 22.0625 7.265625 21.738281 7.335938 21.605469 C 7.402344 21.46875 7.585938 21.171875 7.832031 21.296875 C 7.898438 21.328125 7.941406 21.378906 7.960938 21.441406 C 8.011719 21.589844 7.933594 21.78125 7.878906 21.878906 C 7.828125 21.980469 7.722656 22.15625 7.574219 22.207031 C 7.511719 22.226562 7.445312 22.21875 7.382812 22.1875 Z M 7.382812 22.1875 "/>
<path style=" stroke:none;fill-rule:nonzero;fill:rgb(100%,100%,100%);fill-opacity:1;" d="M 8.742188 21.632812 L 8.707031 21.730469 C 8.707031 21.730469 8.878906 21.789062 8.921875 21.804688 C 8.902344 21.859375 8.570312 22.8125 8.570312 22.8125 L 8.828125 22.90625 C 8.828125 22.90625 9.164062 21.953125 9.183594 21.898438 C 9.226562 21.914062 9.398438 21.972656 9.398438 21.972656 L 9.441406 21.84375 L 8.753906 21.601562 L 8.742188 21.632812 "/>
<path style=" stroke:none;fill-rule:nonzero;fill:rgb(100%,100%,100%);fill-opacity:1;" d="M 10.429688 22.089844 L 9.933594 21.988281 L 9.929688 22.015625 L 9.6875 23.164062 L 10.191406 23.269531 C 10.320312 23.296875 10.425781 23.285156 10.507812 23.230469 C 10.578125 23.183594 10.625 23.109375 10.644531 23.015625 C 10.652344 22.992188 10.652344 22.96875 10.652344 22.945312 C 10.652344 22.84375 10.605469 22.757812 10.515625 22.699219 C 10.617188 22.667969 10.691406 22.59375 10.714844 22.480469 C 10.71875 22.460938 10.722656 22.441406 10.722656 22.417969 C 10.722656 22.304688 10.660156 22.140625 10.429688 22.089844 M 10.253906 22.191406 C 10.339844 22.210938 10.394531 22.242188 10.425781 22.285156 C 10.441406 22.3125 10.449219 22.34375 10.449219 22.378906 C 10.449219 22.394531 10.449219 22.414062 10.445312 22.429688 C 10.414062 22.585938 10.289062 22.582031 10.21875 22.566406 C 10.21875 22.566406 10.140625 22.550781 10.097656 22.542969 C 10.109375 22.496094 10.167969 22.222656 10.175781 22.175781 C 10.207031 22.183594 10.253906 22.191406 10.253906 22.191406 Z M 10.21875 22.703125 C 10.359375 22.734375 10.378906 22.84375 10.378906 22.914062 C 10.378906 22.941406 10.375 22.960938 10.375 22.964844 C 10.359375 23.03125 10.335938 23.078125 10.296875 23.101562 C 10.253906 23.128906 10.195312 23.132812 10.121094 23.117188 C 10.121094 23.117188 10.03125 23.101562 9.984375 23.089844 C 9.992188 23.039062 10.0625 22.722656 10.070312 22.675781 C 10.113281 22.683594 10.21875 22.703125 10.21875 22.703125 Z M 10.21875 22.703125 "/>
<path style=" stroke:none;fill-rule:nonzero;fill:rgb(100%,100%,100%);fill-opacity:1;" d="M 11.605469 22.242188 L 11.03125 23.417969 L 11.195312 23.429688 C 11.195312 23.429688 11.316406 23.175781 11.332031 23.144531 C 11.367188 23.144531 11.648438 23.167969 11.683594 23.171875 C 11.695312 23.203125 11.78125 23.476562 11.78125 23.476562 L 12.066406 23.5 L 11.640625 22.175781 L 11.605469 22.242188 M 11.542969 22.714844 C 11.570312 22.804688 11.621094 22.976562 11.640625 23.03125 C 11.582031 23.027344 11.453125 23.019531 11.398438 23.011719 C 11.421875 22.960938 11.5 22.800781 11.542969 22.714844 Z M 11.542969 22.714844 "/>
<path style=" stroke:none;fill-rule:nonzero;fill:rgb(100%,100%,100%);fill-opacity:1;" d="M 12.863281 23.332031 C 12.859375 23.277344 12.816406 22.28125 12.816406 22.28125 L 12.789062 22.28125 L 12.542969 22.292969 L 12.59375 23.496094 L 13.328125 23.464844 L 13.320312 23.3125 C 13.320312 23.3125 12.914062 23.332031 12.863281 23.332031 "/>
<path style=" stroke:none;fill-rule:nonzero;fill:rgb(100%,100%,100%);fill-opacity:1;" d="M 14.128906 23.210938 C 14.117188 23.152344 13.964844 22.167969 13.964844 22.167969 L 13.933594 22.175781 L 13.691406 22.210938 L 13.878906 23.402344 L 14.605469 23.289062 L 14.582031 23.136719 C 14.578125 23.140625 14.179688 23.203125 14.128906 23.210938 "/>
<path style=" stroke:none;fill-rule:nonzero;fill:rgb(100%,100%,100%);fill-opacity:1;" d="M 16.914062 22.1875 C 16.910156 22.34375 16.816406 22.476562 16.675781 22.535156 C 16.589844 22.566406 16.507812 22.566406 16.429688 22.53125 C 16.316406 22.484375 16.21875 22.371094 16.160156 22.222656 C 16.09375 22.054688 16.082031 21.910156 16.128906 21.796875 C 16.164062 21.714844 16.234375 21.652344 16.335938 21.613281 C 16.46875 21.558594 16.589844 21.621094 16.691406 21.679688 L 16.714844 21.695312 L 16.789062 21.578125 L 16.765625 21.5625 C 16.605469 21.457031 16.410156 21.4375 16.242188 21.503906 C 16.078125 21.570312 15.957031 21.6875 15.890625 21.839844 C 15.824219 21.992188 15.824219 22.171875 15.894531 22.339844 C 16.019531 22.65625 16.375 22.8125 16.691406 22.6875 C 16.917969 22.597656 17.042969 22.433594 17.058594 22.195312 L 17.0625 22.167969 L 16.914062 22.15625 L 16.914062 22.1875 "/>
<path style=" stroke:none;fill-rule:nonzero;fill:rgb(100%,100%,100%);fill-opacity:1;" d="M 17.855469 21.929688 C 17.824219 21.878906 17.339844 21.011719 17.339844 21.011719 L 17.3125 21.027344 L 17.101562 21.144531 L 17.6875 22.195312 L 18.328125 21.835938 L 18.253906 21.707031 C 18.253906 21.707031 17.898438 21.902344 17.855469 21.929688 "/>
<path style=" stroke:none;fill-rule:nonzero;fill:rgb(100%,100%,100%);fill-opacity:1;" d="M 18.757812 20.070312 L 18.734375 20.085938 L 18.636719 20.160156 L 19.144531 20.851562 C 19.175781 20.898438 19.191406 20.941406 19.183594 20.988281 C 19.171875 21.070312 19.097656 21.132812 19.066406 21.15625 C 19.027344 21.183594 18.960938 21.207031 18.898438 21.195312 C 18.847656 21.1875 18.800781 21.160156 18.765625 21.113281 L 18.265625 20.429688 L 18.042969 20.59375 L 18.542969 21.273438 C 18.609375 21.363281 18.691406 21.417969 18.785156 21.429688 C 18.933594 21.453125 19.070312 21.371094 19.140625 21.320312 C 19.382812 21.144531 19.386719 20.921875 19.28125 20.78125 L 18.757812 20.070312 "/>
<path style=" stroke:none;fill-rule:nonzero;fill:rgb(100%,100%,100%);fill-opacity:1;" d="M 20.394531 19.726562 C 20.304688 19.628906 20.183594 19.609375 20.058594 19.65625 C 20.070312 19.628906 20.074219 19.597656 20.074219 19.570312 C 20.074219 19.496094 20.046875 19.425781 19.992188 19.367188 C 19.914062 19.289062 19.710938 19.191406 19.507812 19.390625 L 19.144531 19.742188 L 19.980469 20.605469 L 20.351562 20.246094 C 20.445312 20.15625 20.496094 20.058594 20.496094 19.960938 C 20.496094 19.875 20.460938 19.796875 20.394531 19.726562 M 19.855469 19.6875 C 19.855469 19.75 19.816406 19.800781 19.785156 19.832031 C 19.785156 19.832031 19.730469 19.882812 19.699219 19.914062 C 19.664062 19.882812 19.46875 19.679688 19.4375 19.644531 C 19.460938 19.625 19.496094 19.589844 19.496094 19.589844 C 19.609375 19.480469 19.707031 19.472656 19.796875 19.566406 C 19.839844 19.609375 19.855469 19.652344 19.855469 19.6875 Z M 20.085938 20.316406 C 20.050781 20.28125 19.824219 20.046875 19.792969 20.011719 C 19.820312 19.984375 19.898438 19.90625 19.898438 19.90625 C 20.046875 19.765625 20.195312 19.917969 20.203125 19.921875 C 20.25 19.972656 20.273438 20.015625 20.273438 20.0625 C 20.269531 20.113281 20.242188 20.164062 20.1875 20.21875 C 20.1875 20.21875 20.117188 20.289062 20.085938 20.316406 Z M 20.085938 20.316406 "/>
<path style=" stroke:none;fill-rule:nonzero;fill:rgb(85.882353%,63.137255%,6.666667%);fill-opacity:1;" d="M 6.945312 4.265625 L 6.441406 4.402344 L 6.5 4.582031 C 6.570312 4.800781 6.503906 5.03125 6.335938 5.183594 C 6.238281 5.265625 6.128906 5.304688 6.007812 5.296875 C 5.824219 5.28125 5.617188 5.164062 5.453125 4.976562 C 5.261719 4.753906 5.164062 4.542969 5.175781 4.363281 C 5.183594 4.230469 5.25 4.113281 5.371094 4.007812 C 5.507812 3.886719 5.679688 3.894531 5.910156 3.9375 L 6.085938 3.972656 L 6.195312 3.488281 L 6.023438 3.445312 C 5.648438 3.355469 5.257812 3.445312 4.980469 3.6875 C 4.433594 4.167969 4.390625 4.945312 4.875 5.503906 C 5.328125 6.019531 6.113281 6.074219 6.625 5.628906 C 6.992188 5.304688 7.121094 4.894531 6.996094 4.441406 L 6.945312 4.265625 "/>
<path style=" stroke:none;fill-rule:nonzero;fill:rgb(85.882353%,63.137255%,6.666667%);fill-opacity:1;" d="M 8.320312 1.730469 L 7.800781 1.972656 C 7.800781 1.972656 8.089844 2.585938 8.191406 2.796875 C 8.042969 2.863281 7.898438 2.933594 7.753906 3 C 7.652344 2.789062 7.363281 2.179688 7.363281 2.179688 L 6.683594 2.5 L 7.71875 4.695312 L 8.398438 4.375 C 8.398438 4.375 8.078125 3.695312 7.976562 3.476562 C 8.125 3.40625 8.265625 3.339844 8.414062 3.269531 C 8.515625 3.488281 8.835938 4.167969 8.835938 4.167969 L 9.515625 3.847656 L 8.484375 1.652344 L 8.320312 1.730469 "/>
<path style=" stroke:none;fill-rule:nonzero;fill:rgb(85.882353%,63.137255%,6.666667%);fill-opacity:1;" d="M 10.621094 3.089844 C 10.585938 2.925781 10.550781 2.761719 10.519531 2.597656 C 10.730469 2.554688 11.289062 2.441406 11.289062 2.441406 L 11.191406 1.957031 C 11.191406 1.957031 10.632812 2.070312 10.421875 2.109375 C 10.390625 1.960938 10.367188 1.835938 10.335938 1.6875 C 10.554688 1.644531 11.152344 1.523438 11.152344 1.523438 L 11.050781 1.035156 L 10.875 1.070312 L 9.5 1.347656 L 9.980469 3.726562 L 11.546875 3.410156 L 11.445312 2.925781 C 11.445312 2.925781 10.839844 3.046875 10.621094 3.089844 "/>
<path style=" stroke:none;fill-rule:nonzero;fill:rgb(85.882353%,63.137255%,6.666667%);fill-opacity:1;" d="M 12.839844 0.976562 L 12.085938 0.960938 L 12.082031 1.144531 L 12.035156 3.390625 L 13.613281 3.421875 L 13.625 2.894531 C 13.625 2.894531 13.019531 2.882812 12.796875 2.878906 C 12.804688 2.582031 12.839844 0.976562 12.839844 0.976562 "/>
<path style=" stroke:none;fill-rule:nonzero;fill:rgb(85.882353%,63.137255%,6.666667%);fill-opacity:1;" d="M 15.277344 2.203125 C 15.082031 2.058594 15.023438 2 15.042969 1.921875 C 15.054688 1.882812 15.097656 1.753906 15.238281 1.789062 C 15.324219 1.808594 15.40625 1.855469 15.445312 2.035156 L 15.484375 2.238281 L 15.980469 2.070312 L 15.949219 1.914062 C 15.890625 1.605469 15.628906 1.34375 15.304688 1.261719 C 15.070312 1.203125 14.835938 1.234375 14.644531 1.351562 C 14.46875 1.457031 14.34375 1.625 14.292969 1.820312 C 14.167969 2.316406 14.503906 2.558594 14.726562 2.714844 C 14.953125 2.878906 15.011719 2.941406 14.976562 3.078125 C 14.964844 3.121094 14.941406 3.152344 14.902344 3.179688 C 14.855469 3.203125 14.800781 3.214844 14.753906 3.203125 C 14.632812 3.171875 14.582031 3.117188 14.53125 2.960938 L 14.46875 2.777344 L 13.972656 2.980469 L 14.019531 3.140625 C 14.113281 3.445312 14.335938 3.640625 14.703125 3.730469 C 15.113281 3.835938 15.609375 3.644531 15.734375 3.152344 C 15.863281 2.632812 15.511719 2.375 15.277344 2.203125 "/>
<path style=" stroke:none;fill-rule:nonzero;fill:rgb(85.882353%,63.137255%,6.666667%);fill-opacity:1;" d="M 17.070312 3.496094 C 17.261719 3.59375 17.769531 3.851562 17.769531 3.851562 L 17.996094 3.40625 C 17.996094 3.40625 17.488281 3.148438 17.296875 3.054688 C 17.363281 2.917969 17.421875 2.800781 17.492188 2.667969 C 17.6875 2.765625 18.234375 3.042969 18.234375 3.042969 L 18.457031 2.597656 L 17.042969 1.882812 L 16.960938 2.046875 L 15.949219 4.050781 L 17.375 4.769531 L 17.597656 4.324219 C 17.597656 4.324219 17.042969 4.046875 16.84375 3.945312 C 16.917969 3.796875 16.996094 3.644531 17.070312 3.496094 "/>
<path style=" stroke:none;fill-rule:nonzero;fill:rgb(85.882353%,63.137255%,6.666667%);fill-opacity:1;" d="M 19.886719 3.722656 L 17.621094 4.894531 L 18.054688 5.269531 C 18.054688 5.269531 18.429688 5.074219 18.5625 5 C 18.664062 5.089844 18.8125 5.21875 18.914062 5.304688 C 18.863281 5.449219 18.726562 5.855469 18.726562 5.855469 L 19.324219 6.375 L 20.289062 3.519531 L 19.886719 3.722656 "/>
<path style=" stroke:none;fill-rule:nonzero;fill:rgb(100%,100%,100%);fill-opacity:1;" d="M 6.863281 4.414062 L 6.59375 4.484375 L 6.613281 4.546875 C 6.699219 4.8125 6.621094 5.089844 6.414062 5.273438 C 6.292969 5.378906 6.15625 5.425781 6 5.417969 C 5.78125 5.402344 5.550781 5.269531 5.363281 5.054688 C 5.148438 4.808594 5.039062 4.566406 5.054688 4.351562 C 5.066406 4.191406 5.144531 4.042969 5.292969 3.914062 C 5.484375 3.75 5.722656 3.777344 5.933594 3.820312 L 5.992188 3.832031 L 6.050781 3.578125 L 5.992188 3.566406 C 5.65625 3.480469 5.308594 3.5625 5.058594 3.78125 C 4.566406 4.210938 4.527344 4.917969 4.96875 5.421875 C 5.375 5.890625 6.082031 5.941406 6.542969 5.535156 C 6.878906 5.242188 6.992188 4.886719 6.878906 4.472656 L 6.863281 4.414062 "/>
<path style=" stroke:none;fill-rule:nonzero;fill:rgb(100%,100%,100%);fill-opacity:1;" d="M 8.371094 1.839844 L 7.964844 2.03125 C 7.964844 2.03125 8.304688 2.757812 8.351562 2.851562 C 8.265625 2.894531 7.78125 3.121094 7.695312 3.164062 C 7.648438 3.066406 7.308594 2.339844 7.308594 2.339844 L 6.847656 2.558594 L 7.777344 4.535156 L 8.238281 4.316406 C 8.238281 4.316406 7.859375 3.515625 7.816406 3.417969 C 7.902344 3.378906 8.382812 3.152344 8.472656 3.109375 C 8.515625 3.207031 8.894531 4.007812 8.894531 4.007812 L 9.355469 3.789062 L 8.425781 1.816406 L 8.371094 1.839844 "/>
<path style=" stroke:none;fill-rule:nonzero;fill:rgb(100%,100%,100%);fill-opacity:1;" d="M 10.523438 3.234375 C 10.503906 3.140625 10.394531 2.597656 10.378906 2.503906 C 10.476562 2.484375 11.144531 2.347656 11.144531 2.347656 L 11.09375 2.097656 C 11.09375 2.097656 10.429688 2.234375 10.328125 2.253906 C 10.308594 2.160156 10.210938 1.683594 10.195312 1.589844 C 10.296875 1.570312 11.007812 1.425781 11.007812 1.425781 L 10.957031 1.175781 L 9.644531 1.441406 L 10.074219 3.585938 L 11.402344 3.316406 L 11.351562 3.066406 C 11.351562 3.066406 10.628906 3.214844 10.523438 3.234375 "/>
<path style=" stroke:none;fill-rule:nonzero;fill:rgb(100%,100%,100%);fill-opacity:1;" d="M 12.714844 1.097656 L 12.207031 1.085938 L 12.203125 1.144531 L 12.160156 3.269531 L 13.496094 3.296875 L 13.503906 3.015625 C 13.503906 3.015625 12.777344 3 12.675781 2.996094 C 12.675781 2.882812 12.714844 1.097656 12.714844 1.097656 "/>
<path style=" stroke:none;fill-rule:nonzero;fill:rgb(100%,100%,100%);fill-opacity:1;" d="M 15.265625 1.671875 C 15.429688 1.710938 15.523438 1.820312 15.5625 2.011719 L 15.578125 2.078125 L 15.84375 1.988281 L 15.832031 1.933594 C 15.78125 1.671875 15.554688 1.449219 15.273438 1.378906 C 15.074219 1.328125 14.871094 1.355469 14.707031 1.453125 C 14.558594 1.542969 14.453125 1.683594 14.410156 1.851562 C 14.308594 2.265625 14.578125 2.460938 14.796875 2.617188 C 15.019531 2.777344 15.152344 2.882812 15.09375 3.105469 C 15.074219 3.199219 15.011719 3.253906 14.964844 3.28125 C 14.890625 3.324219 14.800781 3.339844 14.722656 3.320312 C 14.5625 3.28125 14.480469 3.191406 14.417969 3 L 14.394531 2.9375 L 14.121094 3.050781 L 14.136719 3.101562 C 14.21875 3.367188 14.410156 3.535156 14.730469 3.613281 C 15.085938 3.703125 15.511719 3.542969 15.617188 3.125 C 15.726562 2.683594 15.4375 2.46875 15.203125 2.300781 C 15.003906 2.152344 14.886719 2.054688 14.925781 1.894531 C 14.960938 1.75 15.082031 1.625 15.265625 1.671875 "/>
<path style=" stroke:none;fill-rule:nonzero;fill:rgb(100%,100%,100%);fill-opacity:1;" d="M 17.4375 2.503906 C 17.53125 2.550781 18.179688 2.878906 18.179688 2.878906 L 18.292969 2.652344 L 17.097656 2.046875 L 17.070312 2.101562 L 16.113281 3.996094 L 17.320312 4.605469 L 17.433594 4.378906 C 17.433594 4.378906 16.777344 4.046875 16.683594 4 C 16.726562 3.914062 16.976562 3.421875 17.019531 3.335938 C 17.109375 3.378906 17.71875 3.6875 17.71875 3.6875 L 17.832031 3.460938 C 17.832031 3.460938 17.226562 3.152344 17.132812 3.105469 C 17.175781 3.023438 17.394531 2.589844 17.4375 2.503906 "/>
<path style=" stroke:none;fill-rule:nonzero;fill:rgb(100%,100%,100%);fill-opacity:1;" d="M 19.941406 3.832031 L 17.835938 4.921875 L 18.070312 5.125 C 18.070312 5.125 18.515625 4.886719 18.582031 4.855469 C 18.632812 4.902344 19.003906 5.222656 19.054688 5.265625 C 19.03125 5.332031 18.867188 5.816406 18.867188 5.816406 L 19.265625 6.164062 L 20.078125 3.765625 L 19.941406 3.832031 M 18.824219 4.730469 C 18.921875 4.679688 19.179688 4.546875 19.332031 4.464844 C 19.277344 4.628906 19.179688 4.902344 19.144531 5.007812 C 19.0625 4.9375 18.90625 4.800781 18.824219 4.730469 Z M 18.824219 4.730469 "/>
<path style=" stroke:none;fill-rule:nonzero;fill:rgb(81.960784%,82.745098%,83.137255%);fill-opacity:1;" d="M 18.472656 12.171875 C 18.300781 11.714844 17.703125 11.515625 17.144531 11.726562 C 16.910156 11.816406 16.714844 11.964844 16.585938 12.136719 C 16.957031 11.078125 18.46875 10.855469 18.46875 9.867188 C 18.46875 8.21875 16.121094 8.679688 16.464844 9.867188 C 16.464844 9.328125 17.324219 9.230469 17.324219 9.867188 C 17.324219 10.507812 15.824219 10.925781 15.824219 12.003906 C 15.824219 13.195312 17.015625 13.304688 16.894531 14.390625 C 16.875 14.578125 16.671875 14.824219 16.378906 14.824219 C 14.558594 14.824219 15.210938 12.582031 14.574219 11.902344 L 14.605469 11.441406 C 14.972656 11.664062 15.949219 11.136719 15.308594 10.332031 C 15.308594 10.726562 14.484375 10.707031 14.484375 9.957031 C 14.484375 8.945312 15.429688 9.472656 15.476562 9.695312 C 15.429688 9.328125 15.414062 9.09375 15.472656 8.878906 C 14.964844 9.046875 14.914062 8.75 14.980469 8.636719 C 15.054688 8.503906 15.152344 8.351562 15.351562 8.351562 C 15.460938 8.351562 15.523438 8.363281 15.5625 8.390625 C 15.625 8.433594 15.671875 8.335938 15.664062 8.425781 C 15.71875 8.34375 15.695312 8.449219 15.75 8.363281 C 15.800781 8.28125 15.875 8.1875 16 8.0625 L 15.996094 7.875 L 16.144531 7.929688 L 16.289062 7.699219 C 16.132812 7.378906 15.925781 7.535156 15.769531 7.136719 C 15.640625 7.105469 13.636719 7.324219 13.695312 6.523438 C 13.53125 6.523438 13.144531 6.613281 13.382812 6.9375 C 13.195312 6.960938 13.0625 6.75 12.78125 7.320312 C 13.132812 7.253906 12.949219 7.648438 12.949219 7.761719 C 12.949219 8.488281 11.984375 8.472656 11.984375 8.132812 C 11.75 8.359375 11.882812 8.855469 12.234375 8.976562 C 12.234375 8.976562 12.101562 9.507812 11.773438 9.84375 C 11.28125 9.824219 10.492188 9.738281 10.042969 9.308594 C 9.847656 9.125 9.691406 9.023438 9.558594 8.972656 L 9.558594 8.734375 C 9.753906 8.636719 9.964844 8.46875 10.183594 8.191406 C 10.355469 7.980469 10.449219 7.710938 10.425781 7.425781 C 10.421875 7.390625 10.417969 7.359375 10.410156 7.324219 C 10.410156 7.316406 10.40625 7.304688 10.402344 7.292969 C 10.398438 7.269531 10.394531 7.25 10.386719 7.226562 C 10.382812 7.214844 10.378906 7.203125 10.375 7.191406 C 10.367188 7.171875 10.359375 7.148438 10.351562 7.125 C 10.347656 7.117188 10.34375 7.109375 10.339844 7.097656 C 10.328125 7.070312 10.316406 7.042969 10.300781 7.015625 C 10.292969 7.003906 10.289062 6.992188 10.28125 6.984375 C 10.269531 6.964844 10.261719 6.949219 10.25 6.933594 C 10.242188 6.921875 10.234375 6.90625 10.222656 6.894531 C 10.214844 6.882812 10.203125 6.871094 10.195312 6.859375 C 10.183594 6.84375 10.175781 6.832031 10.164062 6.816406 C 10.15625 6.808594 10.148438 6.800781 10.140625 6.792969 C 10.109375 6.761719 10.078125 6.730469 10.046875 6.703125 C 10.042969 6.703125 10.039062 6.699219 10.039062 6.695312 C 10.019531 6.679688 10 6.667969 9.980469 6.652344 C 9.976562 6.648438 9.972656 6.644531 9.964844 6.640625 C 9.945312 6.625 9.925781 6.613281 9.902344 6.597656 C 9.902344 6.597656 9.902344 6.597656 9.898438 6.597656 C 9.695312 6.472656 9.445312 6.40625 9.179688 6.425781 C 8.546875 6.476562 8.078125 7.003906 8.128906 7.609375 C 8.171875 8.078125 8.515625 8.453125 8.96875 8.570312 C 8.808594 8.660156 8.675781 8.710938 8.644531 8.710938 C 8.652344 8.714844 8.65625 8.71875 8.664062 8.722656 C 8.667969 8.722656 8.667969 8.726562 8.671875 8.726562 C 8.675781 8.730469 8.683594 8.734375 8.691406 8.738281 C 8.695312 8.738281 8.695312 8.738281 8.699219 8.742188 C 8.707031 8.746094 8.71875 8.75 8.730469 8.757812 C 8.730469 8.757812 8.734375 8.757812 8.734375 8.757812 C 8.746094 8.765625 8.757812 8.769531 8.769531 8.773438 C 8.769531 8.773438 8.773438 8.777344 8.777344 8.777344 C 8.804688 8.789062 8.835938 8.800781 8.871094 8.808594 C 8.875 8.808594 8.878906 8.8125 8.886719 8.8125 C 8.898438 8.816406 8.914062 8.820312 8.925781 8.824219 C 8.933594 8.824219 8.9375 8.824219 8.941406 8.824219 C 8.960938 8.828125 8.980469 8.832031 8.996094 8.835938 C 9 8.835938 9 8.835938 9.003906 8.835938 L 9.003906 8.972656 C 8.996094 8.972656 8.988281 8.972656 8.984375 8.976562 C 8.777344 9.007812 8.640625 9.074219 8.582031 9.257812 C 8.523438 9.441406 8.582031 9.507812 8.679688 9.636719 C 8.597656 9.78125 8.386719 9.835938 8.664062 10.15625 C 8.644531 10.28125 8.667969 10.472656 8.847656 10.53125 C 8.902344 10.550781 8.953125 10.5625 9.003906 10.570312 L 9.003906 12.984375 C 8.824219 13.078125 8.738281 13.195312 8.691406 13.304688 C 8.691406 13.304688 8.550781 12.988281 8.558594 13.613281 C 8.71875 13.488281 8.65625 13.757812 8.65625 13.757812 C 8.4375 14.039062 8.714844 14.023438 8.714844 14.023438 C 8.902344 13.835938 8.867188 14.109375 8.867188 14.109375 C 8.867188 14.445312 9 14.574219 9.003906 14.578125 L 9.003906 16.414062 L 8.84375 16.414062 L 8.84375 16.921875 L 9.125 16.921875 C 8.964844 16.988281 8.863281 17.144531 8.878906 17.316406 C 8.898438 17.53125 9.097656 17.691406 9.324219 17.675781 C 9.550781 17.65625 9.722656 17.46875 9.703125 17.25 C 9.6875 17.101562 9.589844 16.976562 9.457031 16.921875 L 9.714844 16.921875 L 9.710938 16.414062 L 9.558594 16.414062 L 9.558594 14.78125 C 9.589844 14.800781 9.625 14.8125 9.664062 14.820312 C 9.675781 14.824219 9.691406 14.824219 9.707031 14.828125 C 9.714844 14.828125 9.722656 14.828125 9.726562 14.828125 C 9.6875 14.613281 9.8125 14.472656 9.8125 14.472656 C 9.878906 14.371094 9.976562 14.292969 10.082031 14.238281 C 10.40625 14.078125 10.847656 14.117188 10.980469 14.382812 C 11.816406 14.164062 12.535156 13.320312 12.535156 13.320312 L 12.949219 14.023438 C 12.074219 14.316406 10.171875 15.96875 11.492188 16.539062 C 11.492188 16.707031 11.472656 17.945312 10.675781 17.847656 C 9.535156 17.707031 9.25 18.179688 9.46875 18.710938 C 9.367188 19.160156 9.710938 19.3125 9.710938 19.3125 C 9.660156 19.054688 9.785156 18.839844 10.257812 18.84375 C 10.253906 19.316406 10.558594 19.402344 10.558594 19.402344 C 10.5625 18.996094 10.84375 18.847656 11.089844 18.847656 C 11.089844 19.179688 11.476562 19.308594 11.476562 19.308594 C 11.476562 19.308594 11.378906 18.921875 11.816406 18.847656 C 12.925781 18.65625 11.882812 17.515625 13.570312 17.203125 C 13.570312 17.203125 12.730469 17.074219 12.730469 16.617188 C 12.730469 16.199219 13.488281 15.914062 13.75 15.914062 C 14.285156 16.9375 14.867188 16.945312 15.023438 16.953125 C 15.257812 17.21875 15.179688 18.113281 14.835938 18.09375 C 13.582031 18.027344 13.628906 18.789062 13.769531 18.945312 C 13.753906 19.242188 13.984375 19.414062 13.984375 19.414062 C 13.984375 19.097656 14.285156 19.007812 14.671875 19.027344 C 14.652344 19.417969 14.898438 19.472656 14.898438 19.472656 C 14.90625 19.082031 15.195312 19.019531 15.398438 19.027344 C 15.386719 19.300781 15.65625 19.382812 15.65625 19.382812 C 15.65625 19.382812 15.628906 19.035156 15.996094 19.035156 C 16.691406 19.035156 15.683594 17.546875 17.035156 16.078125 C 15.847656 16.628906 15.214844 15.253906 15.214844 14.988281 C 15.824219 15.703125 17.808594 15.847656 17.808594 14.625 C 17.808594 13.457031 16.523438 13.023438 17.125 12.578125 C 17.472656 12.316406 18.160156 12.839844 17.765625 13.382812 C 18.332031 13.175781 18.644531 12.628906 18.472656 12.171875 M 10.871094 12.207031 C 10.421875 12.472656 10.121094 12.804688 9.714844 12.953125 C 9.652344 12.972656 9.601562 12.980469 9.558594 12.976562 L 9.558594 10.699219 C 9.667969 10.710938 9.949219 10.746094 10.277344 10.882812 C 10.601562 11.0625 10.601562 11.429688 10.191406 11.515625 C 10.449219 12.011719 11.351562 11.769531 11.546875 11.363281 C 11.640625 11.355469 11.726562 11.527344 11.804688 11.6875 C 11.679688 11.753906 11.421875 11.882812 10.871094 12.207031 Z M 15.890625 8.433594 C 15.839844 8.5 15.789062 8.566406 15.75 8.621094 C 15.863281 8.8125 16.074219 8.929688 16.308594 8.90625 C 16.632812 8.878906 16.871094 8.589844 16.84375 8.265625 C 16.839844 8.253906 16.839844 8.242188 16.835938 8.230469 C 16.804688 8.398438 16.605469 8.542969 16.355469 8.566406 C 16.164062 8.582031 15.992188 8.527344 15.890625 8.433594 Z M 15.890625 8.433594 "/>
<path style=" stroke:none;fill-rule:nonzero;fill:rgb(1.176471%,27.45098%,58.039216%);fill-opacity:1;" d="M 8.644531 7.0625 C 8.648438 7.050781 8.65625 7.039062 8.660156 7.027344 C 8.65625 7.039062 8.648438 7.050781 8.644531 7.0625 M 8.667969 16.617188 Z M 8.652344 6.089844 Z M 8.480469 16.558594 L 8.761719 16.558594 C 8.726562 16.574219 8.695312 16.59375 8.667969 16.617188 C 8.695312 16.605469 8.726562 16.597656 8.757812 16.597656 C 8.898438 16.597656 9.011719 16.710938 9.011719 16.851562 C 9.011719 16.992188 8.898438 17.105469 8.757812 17.105469 C 8.644531 17.105469 8.546875 17.03125 8.515625 16.929688 L 8.515625 16.953125 C 8.535156 17.167969 8.734375 17.332031 8.960938 17.3125 C 9.1875 17.292969 9.359375 17.105469 9.339844 16.886719 C 9.328125 16.738281 9.226562 16.617188 9.09375 16.558594 L 9.351562 16.558594 L 9.351562 16.050781 L 9.195312 16.050781 L 9.195312 14.421875 C 9.042969 14.339844 8.957031 14.171875 8.992188 13.996094 C 9.085938 13.996094 9.175781 14.019531 9.230469 14.0625 C 9.144531 14.257812 9.363281 14.464844 9.363281 14.464844 C 9.324219 14.25 9.449219 14.109375 9.449219 14.109375 C 9.515625 14.007812 9.613281 13.933594 9.71875 13.878906 C 10.042969 13.714844 10.484375 13.753906 10.617188 14.019531 C 11.453125 13.800781 12.175781 12.957031 12.175781 12.957031 L 12.585938 13.660156 C 13.550781 13.660156 13.214844 12.9375 13.152344 12.871094 C 13.375 12.871094 13.6875 13.035156 13.6875 13.398438 C 13.6875 14.289062 11.101562 14.414062 11.101562 15.496094 C 11.101562 15.949219 11.550781 16.121094 11.550781 16.121094 C 11.550781 17.105469 10.875 17.691406 10.414062 17.691406 C 9.671875 17.691406 9.105469 17.539062 9.105469 18.347656 L 9.363281 18.347656 C 9.121094 18.589844 9.347656 18.949219 9.347656 18.949219 C 9.296875 18.691406 9.421875 18.476562 9.894531 18.480469 L 10.1875 18.480469 C 10 18.667969 10.109375 18.953125 10.195312 19.039062 C 10.199219 18.632812 10.480469 18.484375 10.730469 18.484375 C 10.820312 18.484375 10.941406 18.484375 10.941406 18.484375 C 10.882812 18.542969 10.976562 18.808594 11.113281 18.945312 C 11.113281 18.945312 11.015625 18.5625 11.453125 18.484375 C 12.5625 18.292969 11.519531 17.152344 13.207031 16.839844 C 13.207031 16.839844 12.367188 16.710938 12.367188 16.253906 C 12.367188 15.835938 13.125 15.550781 13.386719 15.550781 C 13.59375 15.519531 13.789062 15.527344 13.957031 15.5625 C 14.023438 16.226562 14.785156 16.195312 14.949219 16.195312 C 15.59375 16.835938 14.785156 17.871094 14.785156 17.871094 C 13.796875 17.871094 13.40625 18.007812 13.40625 18.585938 L 13.59375 18.585938 C 13.488281 18.691406 13.546875 18.980469 13.621094 19.050781 C 13.621094 18.734375 13.921875 18.644531 14.308594 18.664062 L 14.515625 18.664062 C 14.414062 18.765625 14.433594 19.007812 14.539062 19.113281 C 14.542969 18.722656 14.832031 18.65625 15.039062 18.664062 L 15.207031 18.664062 C 15.144531 18.730469 15.207031 18.933594 15.292969 19.019531 C 15.292969 19.019531 15.269531 18.671875 15.632812 18.671875 C 16.328125 18.671875 15.320312 17.1875 16.675781 15.714844 C 15.484375 16.265625 14.851562 14.890625 14.851562 14.625 C 15.460938 15.339844 17.445312 15.484375 17.445312 14.261719 C 17.445312 13.277344 16.53125 12.8125 16.605469 12.425781 C 16.632812 12.128906 16.882812 11.894531 17.1875 11.894531 C 17.507812 11.894531 17.769531 12.15625 17.769531 12.476562 C 17.769531 12.722656 17.621094 12.933594 17.40625 13.019531 C 17.96875 12.8125 18.28125 12.265625 18.109375 11.808594 C 17.9375 11.351562 17.34375 11.152344 16.78125 11.363281 C 16.546875 11.453125 16.355469 11.601562 16.222656 11.773438 C 16.59375 10.714844 18.105469 10.492188 18.105469 9.503906 C 18.105469 7.855469 15.761719 8.316406 16.101562 9.507812 C 16.101562 9.488281 16.101562 9.46875 16.105469 9.453125 C 16.164062 8.78125 17.367188 8.644531 17.367188 9.519531 C 17.367188 10.269531 15.828125 10.683594 15.828125 11.691406 C 15.828125 12.726562 16.964844 12.984375 16.964844 14.070312 C 16.964844 14.203125 16.894531 14.761719 16.140625 14.761719 C 15.410156 14.761719 15.0625 14.351562 14.863281 13.820312 C 14.492188 13.105469 14.628906 11.984375 14.210938 11.539062 L 14.242188 11.078125 C 14.609375 11.304688 15.585938 10.773438 14.945312 9.96875 C 14.945312 10.363281 14.121094 10.34375 14.121094 9.59375 C 14.121094 8.582031 15.066406 9.109375 15.113281 9.332031 C 15.066406 8.964844 15.050781 8.730469 15.113281 8.519531 C 14.601562 8.683594 14.554688 8.386719 14.617188 8.273438 C 14.691406 8.140625 14.789062 7.988281 14.988281 7.988281 C 15.277344 7.988281 15.257812 8.09375 15.242188 8.242188 C 15.351562 8.074219 15.382812 7.949219 15.640625 7.699219 L 15.632812 7.511719 L 15.78125 7.566406 L 15.925781 7.335938 C 15.769531 7.015625 15.5625 7.171875 15.40625 6.777344 C 15.28125 6.742188 13.59375 6.585938 13.652344 5.785156 C 13.503906 5.785156 13.097656 6.300781 13.371094 6.574219 C 13.371094 6.574219 13.152344 6.574219 13.019531 6.574219 C 12.832031 6.597656 12.394531 6.46875 12.117188 7.039062 C 12.804688 6.347656 13.253906 7.996094 11.984375 7.996094 C 11.792969 7.996094 11.632812 7.917969 11.621094 7.785156 C 11.496094 8.34375 12.296875 8.515625 12.296875 8.515625 C 12.296875 8.679688 11.894531 9.574219 11.699219 9.769531 C 11.832031 9.902344 11.875 10.695312 11.265625 10.695312 C 11.484375 10.101562 10.839844 9.601562 10.214844 9.269531 C 10.101562 9.226562 9.992188 9.171875 9.894531 9.109375 C 9.507812 8.933594 9.195312 8.835938 9.195312 8.835938 L 9.195312 8.371094 C 9.390625 8.273438 9.601562 8.109375 9.820312 7.828125 C 9.992188 7.617188 10.085938 7.347656 10.0625 7.0625 C 10.058594 7.027344 10.054688 6.996094 10.046875 6.960938 C 10.046875 6.953125 10.042969 6.941406 10.039062 6.929688 C 10.035156 6.910156 10.03125 6.886719 10.023438 6.863281 C 10.019531 6.851562 10.015625 6.839844 10.011719 6.832031 C 10.007812 6.808594 9.996094 6.785156 9.988281 6.761719 C 9.984375 6.753906 9.980469 6.746094 9.976562 6.738281 C 9.964844 6.707031 9.953125 6.679688 9.9375 6.652344 C 9.933594 6.640625 9.925781 6.632812 9.917969 6.621094 C 9.910156 6.601562 9.898438 6.585938 9.886719 6.570312 C 9.878906 6.558594 9.871094 6.546875 9.859375 6.53125 C 9.851562 6.519531 9.84375 6.507812 9.832031 6.496094 C 9.820312 6.480469 9.8125 6.46875 9.800781 6.453125 C 9.792969 6.445312 9.785156 6.4375 9.777344 6.429688 C 9.746094 6.398438 9.714844 6.371094 9.683594 6.339844 C 9.679688 6.339844 9.679688 6.335938 9.675781 6.332031 C 9.65625 6.316406 9.636719 6.304688 9.617188 6.289062 C 9.613281 6.285156 9.609375 6.28125 9.601562 6.277344 C 9.582031 6.261719 9.5625 6.25 9.539062 6.238281 C 9.539062 6.234375 9.539062 6.234375 9.535156 6.234375 C 9.332031 6.109375 9.082031 6.042969 8.820312 6.0625 C 8.761719 6.066406 8.707031 6.078125 8.652344 6.089844 C 8.289062 6.230469 8.023438 6.65625 8.023438 7.160156 C 8.023438 7.636719 8.257812 8.042969 8.589844 8.207031 C 8.59375 8.207031 8.601562 8.207031 8.605469 8.210938 C 8.445312 8.296875 8.3125 8.347656 8.28125 8.347656 C 8.289062 8.351562 8.292969 8.355469 8.300781 8.359375 C 8.304688 8.359375 8.304688 8.363281 8.308594 8.363281 C 8.3125 8.367188 8.320312 8.371094 8.328125 8.375 C 8.332031 8.375 8.332031 8.378906 8.335938 8.378906 C 8.34375 8.382812 8.355469 8.390625 8.367188 8.394531 C 8.367188 8.394531 8.371094 8.394531 8.371094 8.398438 C 8.382812 8.402344 8.394531 8.40625 8.40625 8.410156 C 8.410156 8.414062 8.410156 8.414062 8.414062 8.414062 C 8.441406 8.425781 8.472656 8.4375 8.507812 8.445312 C 8.511719 8.449219 8.515625 8.449219 8.523438 8.449219 C 8.535156 8.453125 8.550781 8.457031 8.5625 8.460938 C 8.570312 8.460938 8.574219 8.460938 8.578125 8.464844 C 8.597656 8.464844 8.617188 8.46875 8.636719 8.472656 C 8.636719 8.472656 8.636719 8.472656 8.640625 8.472656 C 8.761719 8.484375 8.902344 8.453125 8.902344 8.453125 L 8.902344 8.722656 C 8.882812 8.722656 8.691406 8.660156 8.640625 8.609375 C 8.632812 8.609375 8.625 8.613281 8.621094 8.613281 C 8.414062 8.648438 8.28125 8.710938 8.21875 8.894531 C 8.160156 9.078125 8.222656 9.144531 8.316406 9.273438 C 8.234375 9.417969 8.023438 9.472656 8.300781 9.796875 C 8.28125 9.917969 8.304688 10.109375 8.484375 10.171875 C 8.539062 10.191406 8.589844 10.199219 8.640625 10.207031 C 8.746094 10.207031 8.902344 10.296875 8.902344 10.511719 L 8.902344 12.585938 C 9 12.59375 9.101562 12.605469 9.195312 12.613281 L 9.195312 10.335938 C 9.304688 10.347656 9.585938 10.386719 9.914062 10.519531 C 9.917969 10.523438 9.921875 10.523438 9.921875 10.527344 C 9.953125 10.53125 9.984375 10.535156 10.011719 10.546875 C 10.230469 10.613281 10.367188 10.800781 10.316406 10.96875 C 10.265625 11.136719 10.046875 11.21875 9.828125 11.152344 C 10.085938 11.648438 10.988281 11.40625 11.183594 11 C 11.277344 10.992188 11.363281 11.164062 11.445312 11.324219 C 11.445312 11.324219 11.667969 11.410156 12.226562 11.410156 C 12.226562 11.410156 9.96875 12.855469 9.316406 12.855469 C 9.035156 12.855469 8.417969 12.855469 8.417969 13.066406 C 8.246094 13.066406 8 13.355469 8 13.519531 C 8.160156 13.394531 8.292969 13.394531 8.292969 13.394531 C 8.429688 13.394531 8.507812 13.433594 8.507812 13.433594 C 8.457031 13.484375 8.230469 13.738281 8.230469 13.9375 C 8.421875 13.746094 8.503906 13.75 8.503906 13.75 C 8.503906 13.75 8.699219 13.722656 8.769531 13.792969 C 8.722656 13.839844 8.640625 14.011719 8.640625 14.214844 C 8.640625 14.214844 8.757812 13.988281 8.902344 13.988281 L 8.902344 16.15625 C 8.902344 16.222656 8.605469 16.285156 8.480469 16.285156 M 8.574219 10 C 8.515625 10.003906 8.492188 9.929688 8.488281 9.902344 C 8.488281 9.878906 8.507812 9.804688 8.566406 9.800781 C 8.699219 9.796875 8.960938 9.859375 8.964844 9.886719 C 8.964844 9.910156 8.703125 9.996094 8.574219 10 Z M 8.488281 9.640625 C 8.410156 9.636719 8.386719 9.53125 8.386719 9.496094 C 8.390625 9.460938 8.429688 9.363281 8.507812 9.367188 C 8.691406 9.382812 9.046875 9.507812 9.042969 9.542969 C 9.039062 9.582031 8.671875 9.65625 8.488281 9.640625 Z M 8.457031 9.183594 C 8.375 9.164062 8.367188 9.046875 8.378906 9.007812 C 8.386719 8.96875 8.449219 8.871094 8.53125 8.890625 C 8.726562 8.941406 9.082031 9.152344 9.070312 9.1875 C 9.0625 9.226562 8.648438 9.234375 8.457031 9.183594 Z M 9.054688 7.890625 C 9.089844 7.8125 9.082031 7.703125 9.0625 7.597656 C 9.058594 7.597656 9.054688 7.597656 9.050781 7.597656 C 8.816406 7.597656 8.628906 7.410156 8.628906 7.175781 C 8.625 7.136719 8.632812 7.097656 8.644531 7.0625 C 8.695312 6.886719 8.859375 6.753906 9.050781 6.753906 C 9.285156 6.753906 9.472656 6.945312 9.472656 7.175781 C 9.472656 7.445312 9.285156 7.695312 9.054688 7.890625 Z M 9.054688 7.890625 "/>
<path style=" stroke:none;fill-rule:nonzero;fill:rgb(92.941176%,10.980392%,14.117647%);fill-opacity:1;" d="M 15.386719 8.261719 C 15.5 8.449219 15.714844 8.566406 15.949219 8.546875 C 16.273438 8.515625 16.507812 8.226562 16.480469 7.902344 C 16.480469 7.890625 16.476562 7.878906 16.476562 7.867188 C 16.441406 8.035156 16.242188 8.179688 15.992188 8.203125 C 15.800781 8.21875 15.628906 8.164062 15.527344 8.070312 C 15.476562 8.136719 15.425781 8.203125 15.386719 8.261719 "/>
<path style=" stroke:none;fill-rule:nonzero;fill:rgb(100%,100%,100%);fill-opacity:1;" d="M 14.597656 7.167969 L 14.800781 7.175781 L 14.699219 7.316406 C 14.699219 7.316406 14.5625 7.359375 14.597656 7.167969 M 14.113281 7.167969 L 14.40625 7.167969 C 14.40625 7.167969 14.394531 7.402344 14.609375 7.425781 L 14.5625 7.5 C 14.5625 7.5 13.988281 7.347656 14.113281 7.167969 Z M 14.113281 7.167969 "/>
<path style=" stroke:none;fill-rule:nonzero;fill:rgb(41.568627%,47.843137%,70.980392%);fill-opacity:1;" d="M 9.070312 9.1875 C 9.082031 9.152344 8.726562 8.941406 8.53125 8.890625 C 8.449219 8.871094 8.386719 8.96875 8.378906 9.007812 C 8.367188 9.046875 8.375 9.164062 8.457031 9.183594 C 8.648438 9.234375 9.0625 9.226562 9.070312 9.1875 M 9.042969 9.542969 C 9.046875 9.507812 8.691406 9.382812 8.507812 9.367188 C 8.429688 9.363281 8.390625 9.460938 8.386719 9.496094 C 8.386719 9.53125 8.410156 9.636719 8.488281 9.640625 C 8.671875 9.65625 9.039062 9.582031 9.042969 9.542969 Z M 8.640625 8.472656 L 8.640625 8.609375 C 8.691406 8.660156 8.882812 8.722656 8.902344 8.722656 L 8.902344 8.453125 C 8.902344 8.453125 8.761719 8.484375 8.640625 8.472656 Z M 8.566406 9.800781 C 8.507812 9.804688 8.488281 9.878906 8.488281 9.902344 C 8.492188 9.929688 8.515625 10.003906 8.574219 10 C 8.703125 9.996094 8.964844 9.910156 8.964844 9.886719 C 8.960938 9.859375 8.699219 9.796875 8.566406 9.800781 Z M 8.292969 13.394531 C 8.074219 13.679688 8.230469 13.9375 8.230469 13.9375 C 8.230469 13.738281 8.457031 13.484375 8.507812 13.433594 C 8.507812 13.433594 8.429688 13.394531 8.292969 13.394531 Z M 8.992188 13.996094 C 8.957031 14.171875 9.042969 14.339844 9.195312 14.421875 C 9.226562 14.4375 9.261719 14.449219 9.300781 14.457031 C 9.316406 14.460938 9.328125 14.460938 9.34375 14.464844 C 9.351562 14.464844 9.359375 14.464844 9.363281 14.464844 C 9.363281 14.464844 9.144531 14.257812 9.230469 14.0625 C 9.175781 14.019531 9.085938 13.996094 8.992188 13.996094 Z M 8.589844 8.207031 C 8.257812 8.042969 8.023438 7.636719 8.023438 7.160156 C 8.023438 6.65625 8.289062 6.230469 8.652344 6.089844 C 8.105469 6.210938 7.71875 6.695312 7.765625 7.246094 C 7.808594 7.710938 8.148438 8.082031 8.589844 8.207031 Z M 12.117188 7.039062 C 12.46875 6.972656 12.585938 7.285156 12.585938 7.398438 C 12.585938 7.824219 12.257812 7.996094 11.984375 7.996094 C 13.253906 7.996094 12.804688 6.347656 12.117188 7.039062 Z M 11.265625 10.695312 C 11.875 10.695312 11.832031 9.902344 11.699219 9.769531 C 11.894531 9.574219 12.296875 8.679688 12.296875 8.515625 C 12.296875 8.515625 11.496094 8.34375 11.625 7.785156 C 11.621094 7.785156 11.621094 7.785156 11.621094 7.785156 L 11.613281 7.78125 C 11.394531 8.011719 11.527344 8.496094 11.875 8.613281 C 11.875 8.613281 11.738281 9.144531 11.410156 9.480469 C 11.078125 9.464844 10.617188 9.421875 10.214844 9.269531 C 10.839844 9.601562 11.484375 10.101562 11.265625 10.695312 Z M 8.890625 6.882812 C 9.046875 6.871094 9.1875 6.980469 9.199219 7.132812 C 9.210938 7.28125 9.09375 7.414062 8.9375 7.425781 C 8.78125 7.4375 8.640625 7.328125 8.628906 7.175781 C 8.628906 7.410156 8.816406 7.597656 9.050781 7.597656 C 9.054688 7.597656 9.058594 7.597656 9.0625 7.597656 C 9.082031 7.703125 9.089844 7.8125 9.054688 7.890625 C 9.285156 7.695312 9.472656 7.445312 9.472656 7.175781 C 9.472656 6.945312 9.285156 6.753906 9.050781 6.753906 C 8.855469 6.753906 8.695312 6.886719 8.644531 7.0625 C 8.679688 6.964844 8.773438 6.890625 8.890625 6.882812 Z M 13.371094 6.574219 C 13.09375 6.300781 13.5 5.785156 13.652344 5.785156 C 13.488281 5.785156 12.78125 6.25 13.019531 6.574219 C 13.152344 6.574219 13.371094 6.574219 13.371094 6.574219 Z M 9.828125 11.152344 C 10.046875 11.21875 10.265625 11.136719 10.316406 10.96875 C 10.367188 10.800781 10.230469 10.613281 10.011719 10.542969 C 9.984375 10.535156 9.953125 10.53125 9.921875 10.527344 C 10.238281 10.707031 10.234375 11.066406 9.828125 11.152344 Z M 9.195312 8.835938 C 9.195312 8.835938 9.507812 8.933594 9.894531 9.109375 C 9.816406 9.0625 9.742188 9.007812 9.679688 8.945312 C 9.484375 8.761719 9.328125 8.660156 9.195312 8.609375 Z M 9.316406 12.855469 C 9.96875 12.855469 12.226562 11.410156 12.226562 11.410156 C 11.667969 11.410156 11.445312 11.324219 11.445312 11.324219 C 11.316406 11.390625 11.058594 11.519531 10.507812 11.84375 C 10.058594 12.109375 9.757812 12.441406 9.351562 12.589844 C 9.289062 12.609375 9.238281 12.617188 9.195312 12.613281 C 9.101562 12.605469 9 12.59375 8.902344 12.585938 L 8.902344 10.511719 C 8.902344 10.296875 8.746094 10.207031 8.640625 10.207031 L 8.640625 12.621094 C 8.460938 12.714844 8.375 12.832031 8.328125 12.941406 C 8.328125 12.941406 7.992188 12.894531 8 13.519531 C 8 13.355469 8.246094 13.066406 8.417969 13.066406 C 8.417969 12.855469 9.035156 12.855469 9.316406 12.855469 Z M 14.949219 16.195312 C 14.785156 16.195312 14.023438 16.226562 13.957031 15.5625 C 13.789062 15.527344 13.59375 15.519531 13.386719 15.550781 C 13.925781 16.574219 14.507812 16.582031 14.660156 16.589844 C 14.894531 16.855469 14.816406 17.75 14.472656 17.730469 C 13.21875 17.664062 13.265625 18.429688 13.40625 18.585938 C 13.40625 18.007812 13.796875 17.871094 14.785156 17.871094 C 14.785156 17.871094 15.59375 16.835938 14.949219 16.195312 Z M 15.207031 18.664062 L 15.039062 18.664062 C 15.023438 18.941406 15.292969 19.019531 15.292969 19.019531 C 15.207031 18.933594 15.144531 18.730469 15.207031 18.664062 Z M 13.621094 19.050781 C 13.546875 18.980469 13.488281 18.691406 13.59375 18.585938 L 13.40625 18.585938 C 13.390625 18.882812 13.621094 19.050781 13.621094 19.050781 Z M 17.367188 9.519531 C 17.367188 8.644531 16.164062 8.78125 16.105469 9.453125 C 16.15625 8.960938 16.960938 8.886719 16.960938 9.507812 C 16.960938 10.144531 15.460938 10.5625 15.460938 11.640625 C 15.460938 12.832031 16.652344 12.941406 16.53125 14.027344 C 16.511719 14.214844 16.308594 14.460938 16.015625 14.460938 C 15.390625 14.460938 15.054688 14.195312 14.863281 13.820312 C 15.0625 14.351562 15.410156 14.761719 16.140625 14.761719 C 16.894531 14.761719 16.964844 14.203125 16.964844 14.074219 C 16.964844 12.984375 15.828125 12.726562 15.828125 11.691406 C 15.828125 10.683594 17.367188 10.269531 17.367188 9.519531 Z M 8.503906 13.75 C 8.503906 14.085938 8.640625 14.214844 8.640625 14.214844 C 8.640625 14.011719 8.722656 13.839844 8.769531 13.792969 C 8.699219 13.722656 8.503906 13.75 8.503906 13.75 Z M 17.1875 11.894531 C 16.882812 11.894531 16.632812 12.128906 16.605469 12.425781 C 16.621094 12.351562 16.667969 12.285156 16.761719 12.214844 C 17.109375 11.953125 17.796875 12.476562 17.40625 13.019531 C 17.621094 12.933594 17.769531 12.722656 17.769531 12.476562 C 17.769531 12.15625 17.507812 11.894531 17.1875 11.894531 Z M 14.515625 18.664062 L 14.308594 18.664062 C 14.289062 19.054688 14.535156 19.113281 14.535156 19.113281 C 14.433594 19.007812 14.414062 18.765625 14.515625 18.664062 Z M 8.757812 16.597656 C 8.726562 16.597656 8.695312 16.605469 8.667969 16.617188 C 8.570312 16.6875 8.511719 16.804688 8.515625 16.929688 C 8.546875 17.03125 8.644531 17.105469 8.757812 17.105469 C 8.898438 17.105469 9.011719 16.992188 9.011719 16.851562 C 9.011719 16.710938 8.898438 16.597656 8.757812 16.597656 Z M 10.1875 18.480469 L 9.894531 18.480469 C 9.890625 18.953125 10.195312 19.039062 10.195312 19.039062 C 10.109375 18.953125 10 18.667969 10.1875 18.480469 Z M 11.101562 15.496094 C 11.101562 14.414062 13.6875 14.289062 13.6875 13.398438 C 13.6875 13.035156 13.375 12.871094 13.152344 12.871094 C 13.214844 12.9375 13.550781 13.660156 12.585938 13.660156 C 11.710938 13.953125 9.808594 15.605469 11.132812 16.179688 C 11.128906 16.34375 11.109375 17.582031 10.316406 17.484375 C 9.171875 17.34375 8.886719 17.816406 9.105469 18.347656 C 9.105469 17.539062 9.671875 17.691406 10.414062 17.691406 C 10.875 17.691406 11.550781 17.105469 11.550781 16.121094 C 11.550781 16.121094 11.101562 15.949219 11.101562 15.496094 Z M 8.902344 16.15625 L 8.902344 13.988281 C 8.757812 13.988281 8.640625 14.214844 8.640625 14.214844 L 8.640625 16.0625 L 8.640625 16.050781 L 8.480469 16.054688 L 8.480469 16.285156 C 8.605469 16.285156 8.902344 16.222656 8.902344 16.15625 Z M 9.347656 18.949219 C 9.347656 18.949219 9.121094 18.589844 9.363281 18.347656 L 9.105469 18.347656 C 9.003906 18.796875 9.347656 18.949219 9.347656 18.949219 Z M 10.941406 18.484375 C 10.941406 18.484375 10.820312 18.484375 10.730469 18.484375 C 10.726562 18.820312 11.113281 18.945312 11.113281 18.945312 C 10.976562 18.808594 10.882812 18.542969 10.941406 18.484375 Z M 10.941406 18.484375 "/>
<path style=" stroke:none;fill-rule:nonzero;fill:rgb(100%,100%,100%);fill-opacity:1;" d="M 3.75 14.886719 L 3.738281 14.839844 L 3.730469 14.796875 C 3.710938 14.640625 3.671875 14.347656 3.449219 14.296875 C 3.386719 14.285156 3.324219 14.289062 3.261719 14.316406 C 3.277344 14.25 3.277344 14.1875 3.253906 14.128906 C 3.171875 13.914062 2.878906 13.917969 2.722656 13.917969 L 2.675781 13.917969 L 2.628906 13.910156 C 2.476562 13.882812 2.1875 13.828125 2.070312 14.027344 C 2.039062 14.078125 2.023438 14.140625 2.03125 14.210938 C 1.96875 14.171875 1.910156 14.15625 1.847656 14.15625 C 1.617188 14.167969 1.53125 14.449219 1.484375 14.597656 L 1.46875 14.644531 L 1.449219 14.683594 C 1.371094 14.820312 1.234375 15.078125 1.382812 15.253906 C 1.425781 15.300781 1.476562 15.332031 1.546875 15.347656 C 1.492188 15.390625 1.457031 15.445312 1.441406 15.503906 C 1.382812 15.726562 1.621094 15.894531 1.75 15.984375 L 1.785156 16.015625 L 1.816406 16.046875 C 1.925781 16.160156 2.128906 16.371094 2.339844 16.285156 C 2.394531 16.257812 2.441406 16.21875 2.480469 16.15625 C 2.507812 16.222656 2.542969 16.273438 2.59375 16.304688 C 2.789062 16.429688 3.023438 16.257812 3.148438 16.164062 L 3.1875 16.136719 L 3.230469 16.117188 C 3.371094 16.046875 3.636719 15.921875 3.617188 15.691406 C 3.609375 15.632812 3.585938 15.574219 3.539062 15.519531 C 3.609375 15.515625 3.667969 15.496094 3.714844 15.457031 C 3.894531 15.3125 3.800781 15.035156 3.75 14.886719 "/>
<path style=" stroke:none;fill-rule:nonzero;fill:rgb(92.941176%,10.980392%,14.117647%);fill-opacity:1;" d="M 2.742188 15.070312 C 4.03125 15.832031 3.632812 14.996094 3.605469 14.871094 C 3.578125 14.75 3.566406 13.824219 2.742188 15.070312 "/>
<path style=" stroke:none;fill-rule:nonzero;fill:rgb(92.941176%,10.980392%,14.117647%);fill-opacity:1;" d="M 2.660156 15.261719 C 2.335938 16.722656 3.007812 16.085938 3.117188 16.019531 C 3.226562 15.957031 4.105469 15.660156 2.660156 15.261719 "/>
<path style=" stroke:none;fill-rule:nonzero;fill:rgb(92.941176%,10.980392%,14.117647%);fill-opacity:1;" d="M 2.457031 15.242188 C 0.964844 15.382812 1.777344 15.828125 1.875 15.910156 C 1.96875 15.996094 2.523438 16.738281 2.457031 15.242188 "/>
<path style=" stroke:none;fill-rule:nonzero;fill:rgb(92.941176%,10.980392%,14.117647%);fill-opacity:1;" d="M 2.410156 15.042969 C 1.8125 13.667969 1.644531 14.578125 1.59375 14.695312 C 1.542969 14.8125 1.007812 15.566406 2.410156 15.042969 "/>
<path style=" stroke:none;fill-rule:nonzero;fill:rgb(100%,100%,100%);fill-opacity:1;" d="M 23.675781 14.683594 L 23.65625 14.644531 L 23.640625 14.597656 C 23.59375 14.449219 23.503906 14.167969 23.277344 14.15625 C 23.214844 14.15625 23.15625 14.171875 23.09375 14.210938 C 23.101562 14.140625 23.085938 14.078125 23.054688 14.027344 C 22.9375 13.828125 22.648438 13.882812 22.496094 13.910156 L 22.449219 13.917969 L 22.402344 13.917969 C 22.246094 13.917969 21.953125 13.914062 21.871094 14.128906 C 21.847656 14.1875 21.847656 14.25 21.863281 14.316406 C 21.800781 14.289062 21.738281 14.285156 21.675781 14.296875 C 21.453125 14.347656 21.414062 14.640625 21.394531 14.796875 L 21.386719 14.839844 L 21.375 14.886719 C 21.324219 15.035156 21.230469 15.3125 21.410156 15.457031 C 21.457031 15.496094 21.515625 15.515625 21.585938 15.519531 C 21.539062 15.574219 21.515625 15.632812 21.507812 15.691406 C 21.488281 15.921875 21.753906 16.046875 21.894531 16.117188 L 21.9375 16.136719 L 21.976562 16.164062 C 22.101562 16.257812 22.335938 16.429688 22.527344 16.304688 C 22.582031 16.273438 22.617188 16.222656 22.644531 16.15625 C 22.683594 16.21875 22.730469 16.257812 22.785156 16.285156 C 22.996094 16.375 23.199219 16.160156 23.308594 16.046875 L 23.339844 16.015625 L 23.375 15.984375 C 23.503906 15.894531 23.742188 15.726562 23.683594 15.503906 C 23.667969 15.445312 23.632812 15.390625 23.578125 15.347656 C 23.644531 15.332031 23.699219 15.300781 23.742188 15.253906 C 23.890625 15.078125 23.753906 14.820312 23.675781 14.683594 "/>
<path style=" stroke:none;fill-rule:nonzero;fill:rgb(92.941176%,10.980392%,14.117647%);fill-opacity:1;" d="M 22.539062 14.933594 C 21.417969 13.945312 22.335938 14.0625 22.460938 14.050781 C 22.585938 14.042969 23.472656 13.765625 22.539062 14.933594 "/>
<path style=" stroke:none;fill-rule:nonzero;fill:rgb(92.941176%,10.980392%,14.117647%);fill-opacity:1;" d="M 22.382812 15.070312 C 21.09375 15.832031 21.492188 14.996094 21.519531 14.871094 C 21.546875 14.75 21.558594 13.824219 22.382812 15.070312 "/>
<path style=" stroke:none;fill-rule:nonzero;fill:rgb(92.941176%,10.980392%,14.117647%);fill-opacity:1;" d="M 22.460938 15.261719 C 22.789062 16.722656 22.117188 16.085938 22.007812 16.019531 C 21.898438 15.957031 21.019531 15.660156 22.460938 15.261719 "/>
<path style=" stroke:none;fill-rule:nonzero;fill:rgb(92.941176%,10.980392%,14.117647%);fill-opacity:1;" d="M 22.667969 15.242188 C 24.160156 15.382812 23.347656 15.828125 23.25 15.910156 C 23.15625 15.996094 22.601562 16.738281 22.667969 15.242188 "/>
<path style=" stroke:none;fill-rule:nonzero;fill:rgb(92.941176%,10.980392%,14.117647%);fill-opacity:1;" d="M 22.714844 15.042969 C 23.308594 13.667969 23.480469 14.578125 23.53125 14.695312 C 23.582031 14.8125 24.117188 15.566406 22.714844 15.042969 "/>
<path style=" stroke:none;fill-rule:nonzero;fill:rgb(100%,100%,100%);fill-opacity:1;" d="M 23.003906 15.085938 C 23.003906 15.074219 23 15.0625 23 15.050781 C 23.117188 14.960938 23.246094 14.867188 23.246094 14.867188 L 23.234375 14.839844 C 23.234375 14.839844 23.082031 14.867188 22.9375 14.890625 C 22.867188 14.773438 22.742188 14.691406 22.601562 14.679688 C 22.554688 14.542969 22.511719 14.40625 22.511719 14.40625 L 22.480469 14.410156 C 22.480469 14.410156 22.460938 14.550781 22.441406 14.691406 C 22.351562 14.714844 22.273438 14.765625 22.214844 14.835938 C 22.183594 14.875 22.160156 14.917969 22.144531 14.960938 C 21.996094 14.960938 21.84375 14.960938 21.84375 14.960938 L 21.835938 14.992188 C 21.835938 14.992188 21.980469 15.0625 22.113281 15.125 C 22.113281 15.136719 22.113281 15.152344 22.113281 15.164062 C 22.125 15.28125 22.179688 15.382812 22.265625 15.460938 C 22.21875 15.605469 22.167969 15.769531 22.167969 15.769531 L 22.191406 15.785156 C 22.191406 15.785156 22.3125 15.660156 22.421875 15.546875 C 22.476562 15.566406 22.539062 15.574219 22.597656 15.570312 C 22.660156 15.5625 22.714844 15.546875 22.769531 15.519531 C 22.894531 15.609375 23.035156 15.710938 23.035156 15.710938 L 23.058594 15.691406 C 23.058594 15.691406 22.976562 15.539062 22.90625 15.40625 C 22.980469 15.3125 23.015625 15.199219 23.003906 15.085938 "/>
<path style=" stroke:none;fill-rule:nonzero;fill:rgb(92.941176%,10.980392%,14.117647%);fill-opacity:1;" d="M 22.535156 14.859375 C 22.464844 14.867188 22.402344 14.898438 22.355469 14.953125 C 22.3125 15.007812 22.289062 15.074219 22.296875 15.144531 C 22.308594 15.292969 22.4375 15.398438 22.582031 15.386719 C 22.652344 15.378906 22.714844 15.347656 22.761719 15.292969 C 22.808594 15.238281 22.828125 15.171875 22.824219 15.101562 C 22.808594 14.953125 22.679688 14.847656 22.535156 14.859375 "/>
<path style=" stroke:none;fill-rule:nonzero;fill:rgb(92.941176%,10.980392%,14.117647%);fill-opacity:1;" d="M 2.585938 14.933594 C 3.707031 13.945312 2.789062 14.0625 2.664062 14.050781 C 2.539062 14.042969 1.652344 13.765625 2.585938 14.933594 "/>
<path style=" stroke:none;fill-rule:nonzero;fill:rgb(100%,100%,100%);fill-opacity:1;" d="M 3.011719 15.125 C 3.144531 15.0625 3.289062 14.992188 3.289062 14.992188 L 3.28125 14.960938 C 3.28125 14.960938 3.128906 14.960938 2.980469 14.960938 C 2.964844 14.917969 2.941406 14.875 2.910156 14.835938 C 2.847656 14.765625 2.769531 14.714844 2.683594 14.691406 C 2.664062 14.550781 2.644531 14.410156 2.644531 14.410156 L 2.613281 14.40625 C 2.613281 14.40625 2.566406 14.542969 2.523438 14.679688 C 2.382812 14.691406 2.257812 14.773438 2.183594 14.890625 C 2.042969 14.867188 1.890625 14.839844 1.890625 14.839844 L 1.878906 14.867188 C 1.878906 14.867188 2.007812 14.960938 2.125 15.050781 C 2.125 15.0625 2.121094 15.074219 2.121094 15.085938 C 2.109375 15.203125 2.144531 15.3125 2.21875 15.40625 C 2.148438 15.539062 2.066406 15.691406 2.066406 15.691406 L 2.089844 15.710938 C 2.089844 15.710938 2.230469 15.609375 2.355469 15.519531 C 2.410156 15.546875 2.464844 15.5625 2.527344 15.570312 C 2.589844 15.574219 2.648438 15.566406 2.703125 15.546875 C 2.8125 15.660156 2.929688 15.785156 2.929688 15.785156 L 2.957031 15.769531 C 2.957031 15.769531 2.90625 15.605469 2.859375 15.460938 C 2.945312 15.382812 3 15.277344 3.011719 15.164062 C 3.011719 15.152344 3.011719 15.136719 3.011719 15.125 "/>
<path style=" stroke:none;fill-rule:nonzero;fill:rgb(92.941176%,10.980392%,14.117647%);fill-opacity:1;" d="M 2.769531 14.953125 C 2.722656 14.898438 2.660156 14.867188 2.589844 14.859375 C 2.445312 14.847656 2.316406 14.953125 2.300781 15.101562 C 2.296875 15.171875 2.316406 15.238281 2.363281 15.292969 C 2.410156 15.347656 2.472656 15.378906 2.542969 15.386719 C 2.6875 15.398438 2.816406 15.292969 2.828125 15.144531 C 2.835938 15.074219 2.8125 15.007812 2.769531 14.953125 "/>
<path style=" stroke:none;fill-rule:nonzero;fill:rgb(100%,100%,100%);fill-opacity:1;" d="M 2.75 8.710938 C 2.125 8.601562 1.523438 9.023438 1.414062 9.648438 C 1.300781 10.277344 1.722656 10.875 2.347656 10.988281 C 2.976562 11.097656 3.578125 10.675781 3.6875 10.050781 C 3.796875 9.421875 3.378906 8.824219 2.75 8.710938 "/>
<path style=" stroke:none;fill-rule:nonzero;fill:rgb(92.941176%,10.980392%,14.117647%);fill-opacity:1;" d="M 3.011719 9.585938 C 3 9.578125 2.984375 9.570312 2.960938 9.554688 C 2.867188 9.492188 2.683594 9.367188 2.675781 9.363281 C 2.652344 9.347656 2.625 9.332031 2.601562 9.3125 C 2.519531 9.257812 2.445312 9.210938 2.375 9.171875 C 2.347656 9.15625 2.324219 9.140625 2.296875 9.128906 C 2.1875 9.074219 2.082031 9.039062 1.957031 9.027344 C 1.859375 9.097656 1.777344 9.183594 1.707031 9.28125 C 1.996094 9.386719 2.277344 9.554688 2.859375 9.914062 C 2.894531 9.839844 3.003906 9.601562 3.011719 9.585938 "/>
<path style=" stroke:none;fill-rule:nonzero;fill:rgb(92.941176%,10.980392%,14.117647%);fill-opacity:1;" d="M 2.742188 10.207031 C 2.753906 10.175781 2.804688 10.046875 2.828125 9.996094 C 2.226562 9.625 1.949219 9.460938 1.664062 9.359375 C 1.617188 9.4375 1.585938 9.527344 1.5625 9.617188 C 1.726562 9.84375 2.167969 10.066406 2.742188 10.207031 "/>
<path style=" stroke:none;fill-rule:nonzero;fill:rgb(92.941176%,10.980392%,14.117647%);fill-opacity:1;" d="M 2.679688 9.261719 C 2.902344 9.128906 3.15625 9.164062 3.351562 9.230469 C 3.28125 9.136719 3.191406 9.054688 3.085938 8.988281 C 2.902344 8.953125 2.644531 8.945312 2.441406 9.109375 C 2.515625 9.152344 2.59375 9.203125 2.679688 9.261719 "/>
<path style=" stroke:none;fill-rule:nonzero;fill:rgb(92.941176%,10.980392%,14.117647%);fill-opacity:1;" d="M 1.785156 10.332031 C 1.8125 10.351562 1.84375 10.371094 1.878906 10.390625 C 1.941406 10.425781 2.015625 10.457031 2.089844 10.484375 C 2.121094 10.496094 2.152344 10.507812 2.183594 10.519531 C 2.296875 10.554688 2.554688 10.621094 2.574219 10.625 C 2.578125 10.617188 2.671875 10.378906 2.710938 10.285156 C 2.261719 10.175781 1.773438 9.984375 1.542969 9.730469 C 1.527344 9.847656 1.535156 9.960938 1.558594 10.070312 C 1.609375 10.179688 1.6875 10.261719 1.785156 10.332031 "/>
<path style=" stroke:none;fill-rule:nonzero;fill:rgb(92.941176%,10.980392%,14.117647%);fill-opacity:1;" d="M 2.585938 10.71875 L 2.496094 10.695312 C 2.410156 10.671875 2.316406 10.648438 2.21875 10.621094 C 2.265625 10.71875 2.339844 10.796875 2.417969 10.855469 C 2.519531 10.867188 2.625 10.867188 2.722656 10.847656 C 2.652344 10.792969 2.585938 10.71875 2.585938 10.71875 "/>
<path style=" stroke:none;fill-rule:nonzero;fill:rgb(92.941176%,10.980392%,14.117647%);fill-opacity:1;" d="M 3.519531 9.554688 C 3.5 9.484375 3.472656 9.417969 3.4375 9.355469 C 3.261719 9.277344 2.992188 9.203125 2.757812 9.316406 L 3.082031 9.527344 C 3.148438 9.523438 3.210938 9.519531 3.265625 9.523438 C 3.296875 9.523438 3.328125 9.523438 3.355469 9.527344 C 3.417969 9.53125 3.472656 9.542969 3.519531 9.554688 "/>
<path style=" stroke:none;fill-rule:nonzero;fill:rgb(92.941176%,10.980392%,14.117647%);fill-opacity:1;" d="M 3.355469 9.613281 C 3.347656 10.144531 3.097656 10.554688 2.878906 10.808594 C 3.21875 10.691406 3.484375 10.402344 3.550781 10.027344 C 3.574219 9.898438 3.570312 9.773438 3.546875 9.652344 C 3.492188 9.636719 3.429688 9.621094 3.355469 9.613281 "/>
<path style=" stroke:none;fill-rule:nonzero;fill:rgb(92.941176%,10.980392%,14.117647%);fill-opacity:1;" d="M 2.359375 9.0625 C 2.511719 8.929688 2.691406 8.886719 2.855469 8.882812 C 2.8125 8.871094 2.769531 8.859375 2.726562 8.851562 C 2.492188 8.808594 2.261719 8.851562 2.066406 8.957031 C 2.171875 8.976562 2.265625 9.015625 2.359375 9.0625 "/>
<path style=" stroke:none;fill-rule:nonzero;fill:rgb(92.941176%,10.980392%,14.117647%);fill-opacity:1;" d="M 3.09375 9.613281 C 3.015625 9.773438 2.972656 9.871094 2.933594 9.960938 C 2.921875 9.988281 2.910156 10.015625 2.902344 10.042969 C 2.882812 10.085938 2.828125 10.226562 2.828125 10.226562 L 2.792969 10.308594 L 2.652344 10.660156 C 2.691406 10.710938 2.738281 10.753906 2.785156 10.789062 C 2.996094 10.546875 3.261719 10.140625 3.269531 9.609375 C 3.214844 9.609375 3.15625 9.609375 3.09375 9.613281 "/>
<path style=" stroke:none;fill-rule:nonzero;fill:rgb(92.941176%,10.980392%,14.117647%);fill-opacity:1;" d="M 2.113281 10.585938 C 2.042969 10.558594 1.972656 10.53125 1.902344 10.5 C 1.929688 10.578125 1.964844 10.644531 2 10.703125 C 2.078125 10.753906 2.160156 10.792969 2.25 10.820312 C 2.191406 10.753906 2.140625 10.675781 2.113281 10.585938 "/>
<path style=" stroke:none;fill-rule:nonzero;fill:rgb(92.941176%,10.980392%,14.117647%);fill-opacity:1;" d="M 1.800781 10.441406 C 1.75 10.414062 1.707031 10.382812 1.664062 10.347656 C 1.710938 10.429688 1.769531 10.507812 1.839844 10.574219 C 1.824219 10.53125 1.808594 10.488281 1.800781 10.441406 "/>
<path style=" stroke:none;fill-rule:nonzero;fill:rgb(100%,100%,100%);fill-opacity:1;" d="M 21.3125 10.050781 C 21.421875 10.679688 22.023438 11.097656 22.648438 10.988281 C 23.277344 10.878906 23.699219 10.277344 23.585938 9.648438 C 23.476562 9.023438 22.875 8.601562 22.25 8.710938 C 21.621094 8.824219 21.203125 9.421875 21.3125 10.050781 "/>
<path style=" stroke:none;fill-rule:nonzero;fill:rgb(92.941176%,10.980392%,14.117647%);fill-opacity:1;" d="M 21.988281 9.585938 C 21.996094 9.578125 22.015625 9.570312 22.039062 9.554688 C 22.132812 9.492188 22.316406 9.367188 22.320312 9.363281 C 22.347656 9.347656 22.375 9.332031 22.398438 9.3125 C 22.480469 9.257812 22.554688 9.210938 22.625 9.171875 C 22.652344 9.15625 22.675781 9.140625 22.703125 9.128906 C 22.8125 9.074219 22.917969 9.039062 23.042969 9.027344 C 23.140625 9.097656 23.222656 9.183594 23.289062 9.28125 C 23.003906 9.386719 22.722656 9.554688 22.140625 9.914062 C 22.105469 9.839844 21.996094 9.601562 21.988281 9.585938 "/>
<path style=" stroke:none;fill-rule:nonzero;fill:rgb(92.941176%,10.980392%,14.117647%);fill-opacity:1;" d="M 22.257812 10.207031 C 22.246094 10.175781 22.195312 10.046875 22.171875 9.996094 C 22.769531 9.625 23.050781 9.460938 23.335938 9.359375 C 23.382812 9.4375 23.414062 9.527344 23.4375 9.617188 C 23.273438 9.84375 22.832031 10.066406 22.257812 10.207031 "/>
<path style=" stroke:none;fill-rule:nonzero;fill:rgb(92.941176%,10.980392%,14.117647%);fill-opacity:1;" d="M 22.320312 9.261719 C 22.097656 9.128906 21.84375 9.164062 21.644531 9.230469 C 21.71875 9.136719 21.808594 9.054688 21.914062 8.988281 C 22.097656 8.953125 22.355469 8.945312 22.558594 9.109375 C 22.484375 9.152344 22.40625 9.203125 22.320312 9.261719 "/>
<path style=" stroke:none;fill-rule:nonzero;fill:rgb(92.941176%,10.980392%,14.117647%);fill-opacity:1;" d="M 23.214844 10.332031 C 23.1875 10.351562 23.15625 10.371094 23.121094 10.390625 C 23.054688 10.425781 22.984375 10.457031 22.910156 10.484375 C 22.878906 10.496094 22.847656 10.507812 22.816406 10.519531 C 22.703125 10.554688 22.445312 10.621094 22.425781 10.625 C 22.421875 10.617188 22.324219 10.378906 22.289062 10.285156 C 22.734375 10.175781 23.222656 9.984375 23.457031 9.730469 C 23.472656 9.847656 23.464844 9.960938 23.441406 10.070312 C 23.390625 10.179688 23.3125 10.261719 23.214844 10.332031 "/>
<path style=" stroke:none;fill-rule:nonzero;fill:rgb(92.941176%,10.980392%,14.117647%);fill-opacity:1;" d="M 22.414062 10.71875 L 22.503906 10.695312 C 22.589844 10.671875 22.683594 10.648438 22.78125 10.621094 C 22.734375 10.71875 22.660156 10.796875 22.582031 10.855469 C 22.480469 10.867188 22.375 10.867188 22.277344 10.847656 C 22.347656 10.792969 22.414062 10.71875 22.414062 10.71875 "/>
<path style=" stroke:none;fill-rule:nonzero;fill:rgb(92.941176%,10.980392%,14.117647%);fill-opacity:1;" d="M 21.480469 9.554688 C 21.5 9.484375 21.527344 9.417969 21.5625 9.355469 C 21.738281 9.277344 22.007812 9.203125 22.238281 9.316406 L 21.917969 9.527344 C 21.851562 9.523438 21.789062 9.519531 21.730469 9.523438 C 21.703125 9.523438 21.671875 9.523438 21.644531 9.527344 C 21.582031 9.53125 21.527344 9.542969 21.480469 9.554688 "/>
<path style=" stroke:none;fill-rule:nonzero;fill:rgb(92.941176%,10.980392%,14.117647%);fill-opacity:1;" d="M 21.644531 9.613281 C 21.652344 10.144531 21.902344 10.554688 22.121094 10.808594 C 21.78125 10.691406 21.515625 10.402344 21.449219 10.027344 C 21.425781 9.898438 21.429688 9.773438 21.453125 9.652344 C 21.507812 9.636719 21.570312 9.621094 21.644531 9.613281 "/>
<path style=" stroke:none;fill-rule:nonzero;fill:rgb(92.941176%,10.980392%,14.117647%);fill-opacity:1;" d="M 22.640625 9.0625 C 22.488281 8.929688 22.308594 8.886719 22.144531 8.882812 C 22.1875 8.871094 22.230469 8.859375 22.273438 8.851562 C 22.507812 8.808594 22.738281 8.851562 22.933594 8.957031 C 22.828125 8.976562 22.734375 9.015625 22.640625 9.0625 "/>
<path style=" stroke:none;fill-rule:nonzero;fill:rgb(92.941176%,10.980392%,14.117647%);fill-opacity:1;" d="M 21.90625 9.613281 C 21.984375 9.773438 22.027344 9.871094 22.066406 9.960938 C 22.078125 9.988281 22.085938 10.015625 22.097656 10.042969 C 22.117188 10.085938 22.171875 10.226562 22.171875 10.226562 L 22.203125 10.308594 L 22.347656 10.660156 C 22.308594 10.710938 22.261719 10.753906 22.214844 10.789062 C 22.003906 10.546875 21.738281 10.140625 21.730469 9.609375 C 21.785156 9.609375 21.84375 9.609375 21.90625 9.613281 "/>
<path style=" stroke:none;fill-rule:nonzero;fill:rgb(92.941176%,10.980392%,14.117647%);fill-opacity:1;" d="M 22.886719 10.585938 C 22.957031 10.558594 23.027344 10.53125 23.097656 10.5 C 23.070312 10.578125 23.035156 10.644531 23 10.703125 C 22.921875 10.753906 22.839844 10.792969 22.75 10.820312 C 22.808594 10.753906 22.859375 10.675781 22.886719 10.585938 "/>
<path style=" stroke:none;fill-rule:nonzero;fill:rgb(92.941176%,10.980392%,14.117647%);fill-opacity:1;" d="M 23.199219 10.441406 C 23.25 10.414062 23.292969 10.382812 23.335938 10.347656 C 23.289062 10.429688 23.230469 10.507812 23.160156 10.574219 C 23.175781 10.53125 23.191406 10.488281 23.199219 10.441406 "/>
</g>
</svg>
