<?xml version="1.0" encoding="UTF-8"?>
<svg xmlns="http://www.w3.org/2000/svg" xmlns:xlink="http://www.w3.org/1999/xlink" width="35pt" height="25pt" viewBox="0 0 35 25" version="1.1">
<defs>
<clipPath id="clip1">
  <path d="M 18.640625 5.300781 L 18.726562 5.300781 L 18.726562 5.820312 L 18.640625 5.820312 Z M 18.640625 5.300781 "/>
</clipPath>
</defs>
<g id="surface1">
<path style=" stroke:none;fill-rule:nonzero;fill:rgb(100%,100%,100%);fill-opacity:1;" d="M 13.886719 19.796875 C 13.886719 19.796875 11.085938 18.394531 9.722656 16.242188 C 9.730469 18.089844 9.640625 20.398438 9.640625 20.398438 L 13.921875 21.238281 Z M 13.886719 19.796875 "/>
<path style=" stroke:none;fill-rule:nonzero;fill:rgb(100%,100%,100%);fill-opacity:1;" d="M 21.277344 19.835938 C 21.277344 19.835938 24.074219 18.542969 25.4375 16.390625 C 25.429688 18.238281 25.523438 20.398438 25.523438 20.398438 L 21.242188 21.238281 Z M 21.277344 19.835938 "/>
<path style=" stroke:none;fill-rule:nonzero;fill:rgb(100%,100%,100%);fill-opacity:1;" d="M 21.308594 22.535156 L 13.867188 22.535156 L 13.867188 19.136719 L 21.308594 19.136719 Z M 21.308594 22.535156 "/>
<path style=" stroke:none;fill-rule:nonzero;fill:rgb(100%,100%,100%);fill-opacity:1;" d="M 19.800781 19.386719 C 19.800781 20.59375 18.8125 21.570312 17.59375 21.570312 C 16.375 21.570312 15.386719 20.59375 15.386719 19.386719 C 15.386719 18.183594 16.375 17.207031 17.59375 17.207031 C 18.8125 17.207031 19.800781 18.183594 19.800781 19.386719 "/>
<path style=" stroke:none;fill-rule:nonzero;fill:rgb(100%,100%,100%);fill-opacity:1;" d="M 8.695312 20.527344 L 8.695312 17.339844 L 8.503906 17.269531 L 8.503906 16.839844 L 8.695312 16.753906 L 8.695312 16.453125 L 8.503906 16.382812 L 8.503906 15.867188 L 9.128906 15.277344 L 9.128906 15.136719 C 9.128906 15.136719 9.152344 15.011719 9.3125 15.011719 L 9.496094 15.011719 C 9.496094 15.011719 9.640625 15.035156 9.640625 15.136719 L 9.640625 15.265625 L 10.28125 15.871094 L 10.273438 16.382812 L 10.085938 16.453125 L 10.085938 16.75 L 10.277344 16.835938 L 10.277344 20.21875 Z M 8.695312 20.527344 "/>
<path style=" stroke:none;fill-rule:nonzero;fill:rgb(100%,100%,100%);fill-opacity:1;" d="M 26.542969 20.527344 L 26.542969 17.339844 L 26.730469 17.269531 L 26.730469 16.839844 L 26.542969 16.753906 L 26.542969 16.453125 L 26.730469 16.382812 L 26.730469 15.867188 L 26.105469 15.277344 L 26.105469 15.136719 C 26.105469 15.136719 26.085938 15.011719 25.925781 15.011719 L 25.742188 15.011719 C 25.742188 15.011719 25.597656 15.035156 25.597656 15.136719 L 25.597656 15.265625 L 24.957031 15.871094 L 24.960938 16.382812 L 25.152344 16.453125 L 25.152344 16.75 L 24.957031 16.835938 L 24.957031 20.21875 Z M 26.542969 20.527344 "/>
<path style=" stroke:none;fill-rule:nonzero;fill:rgb(100%,100%,100%);fill-opacity:1;" d="M 17.398438 25 C 15.851562 25 14.863281 24.46875 13.820312 23.910156 C 13.269531 23.613281 12.699219 23.308594 12.027344 23.082031 C 10.128906 22.445312 8.882812 23.226562 8.828125 23.261719 L 8.578125 22.871094 C 8.636719 22.832031 10.054688 21.933594 12.175781 22.644531 C 12.882812 22.882812 13.472656 23.195312 14.039062 23.5 C 15.117188 24.078125 16.132812 24.625 17.800781 24.523438 C 19.363281 24.429688 20.4375 23.898438 21.476562 23.382812 C 21.921875 23.164062 22.339844 22.957031 22.78125 22.792969 C 22.8125 22.78125 22.84375 22.765625 22.882812 22.753906 C 23.441406 22.53125 25.132812 21.863281 26.59375 22.976562 L 26.3125 23.347656 C 25.058594 22.394531 23.601562 22.96875 23.054688 23.183594 C 23.011719 23.199219 22.976562 23.214844 22.945312 23.226562 C 22.523438 23.386719 22.117188 23.585938 21.683594 23.800781 C 20.652344 24.308594 19.484375 24.886719 17.832031 24.988281 C 17.683594 24.996094 17.539062 25 17.398438 25 "/>
<path style=" stroke:none;fill-rule:nonzero;fill:rgb(100%,100%,100%);fill-opacity:1;" d="M 25.6875 24.160156 L 25.359375 23.949219 C 25.285156 23.902344 25.089844 23.871094 24.894531 23.902344 C 24.859375 23.910156 24.824219 23.917969 24.785156 23.925781 C 24.621094 23.960938 24.417969 24.007812 24.257812 23.878906 C 24.191406 23.824219 24.113281 23.722656 24.113281 23.539062 C 24.113281 23.394531 24.175781 23.269531 24.285156 23.183594 C 24.648438 22.902344 25.539062 23.097656 25.804688 23.164062 C 25.980469 23.214844 26.175781 23.210938 26.210938 23.175781 C 26.300781 22.175781 26.710938 21.449219 26.9375 21.113281 C 25.292969 20.117188 22.773438 20.65625 21.828125 21.261719 C 20.417969 22.160156 19.242188 22.71875 17.746094 22.722656 C 16.464844 22.726562 15.382812 22.199219 14.238281 21.640625 C 13.597656 21.324219 12.933594 21 12.207031 20.757812 C 10.675781 20.242188 8.933594 20.820312 8.273438 21.085938 C 8.519531 21.421875 8.894531 22.085938 8.933594 23.039062 C 8.96875 23.082031 9.164062 23.09375 9.335938 23.054688 C 9.609375 23 10.507812 22.847656 10.855469 23.144531 C 10.964844 23.238281 11.019531 23.367188 11.011719 23.507812 C 11.003906 23.691406 10.917969 23.789062 10.851562 23.839844 C 10.6875 23.960938 10.484375 23.90625 10.320312 23.859375 C 10.285156 23.851562 10.25 23.839844 10.214844 23.835938 C 10.019531 23.792969 9.824219 23.8125 9.75 23.859375 L 9.410156 24.054688 L 9.398438 23.515625 C 9.265625 23.542969 8.886719 23.59375 8.652344 23.414062 C 8.539062 23.328125 8.476562 23.207031 8.472656 23.058594 C 8.417969 21.84375 7.742188 21.167969 7.734375 21.160156 L 7.5 20.929688 L 7.796875 20.785156 C 7.894531 20.738281 10.25 19.609375 12.351562 20.316406 C 13.109375 20.570312 13.789062 20.902344 14.441406 21.222656 C 15.53125 21.757812 16.5625 22.261719 17.726562 22.261719 L 17.742188 22.261719 C 19.128906 22.253906 20.238281 21.726562 21.578125 20.871094 C 22.683594 20.164062 25.578125 19.558594 27.40625 20.863281 L 27.613281 21.011719 L 27.445312 21.203125 C 27.441406 21.210938 26.785156 21.988281 26.671875 23.210938 C 26.660156 23.359375 26.589844 23.476562 26.472656 23.558594 C 26.234375 23.722656 25.863281 23.65625 25.726562 23.625 Z M 25.6875 24.160156 "/>
<path style=" stroke:none;fill-rule:nonzero;fill:rgb(100%,100%,100%);fill-opacity:1;" d="M 10.832031 23.144531 C 10.832031 23.144531 10.597656 22.914062 10.503906 22.742188 C 10.3125 22.40625 8.824219 23.070312 8.824219 23.070312 L 9.230469 23.160156 "/>
<path style=" stroke:none;fill-rule:nonzero;fill:rgb(100%,100%,100%);fill-opacity:1;" d="M 24.230469 23.234375 C 24.230469 23.234375 24.46875 23.007812 24.566406 22.839844 C 24.765625 22.507812 26.238281 23.207031 26.238281 23.207031 L 25.832031 23.285156 "/>
<path style=" stroke:none;fill-rule:nonzero;fill:rgb(100%,100%,100%);fill-opacity:1;" d="M 8.652344 23.160156 C 8.652344 23.160156 8.617188 22.242188 8.414062 21.839844 C 8.207031 21.433594 8.125 21.023438 8.125 21.023438 C 8.125 21.023438 9.375 20.394531 10.1875 20.378906 C 11 20.363281 13.023438 20.714844 13.652344 21.0625 C 14.28125 21.410156 15.980469 22.34375 16.863281 22.535156 C 17.746094 22.722656 19.199219 22.496094 20.109375 22.121094 C 21.019531 21.75 21.628906 21.101562 22 20.9375 C 22.367188 20.777344 23.558594 20.34375 24.359375 20.273438 C 25.160156 20.199219 26.121094 20.527344 26.664062 20.632812 C 27.207031 20.734375 27.128906 20.9375 27.128906 20.9375 L 26.476562 23.019531 C 26.476562 23.019531 25.429688 22.664062 24.730469 22.644531 C 24.03125 22.621094 22.839844 23.148438 22.46875 23.285156 C 22.101562 23.421875 20.476562 24.101562 19.957031 24.304688 C 19.433594 24.511719 17.667969 24.980469 16.664062 24.757812 C 15.65625 24.53125 13.703125 23.539062 13.191406 23.285156 C 12.683594 23.03125 10.832031 22.421875 10.589844 22.539062 C 10.34375 22.65625 8.652344 23.160156 8.652344 23.160156 "/>
<path style=" stroke:none;fill-rule:nonzero;fill:rgb(100%,100%,100%);fill-opacity:1;" d="M 18.847656 15.453125 C 18.851562 15.457031 18.855469 15.457031 18.859375 15.457031 L 18.796875 15.46875 Z M 26.074219 3.324219 C 26.035156 3.210938 25.84375 3.121094 25.0625 3.121094 C 24.761719 3.121094 24.476562 3.132812 24.472656 3.132812 C 24.460938 3.136719 24.449219 3.136719 24.4375 3.140625 C 23.957031 3.175781 23.496094 3.289062 23.082031 3.46875 C 23.632812 2.800781 24.492188 2.386719 25.011719 2.179688 C 25.039062 2.171875 25.113281 2.136719 25.132812 2.109375 C 25.15625 2.070312 25.199219 2.035156 25.164062 1.96875 C 25.101562 1.859375 24.867188 1.832031 24.707031 1.832031 C 24.539062 1.832031 24.296875 1.855469 23.996094 1.898438 C 23.851562 1.914062 23.710938 1.9375 23.578125 1.96875 C 23.570312 1.96875 23.5625 1.96875 23.558594 1.972656 C 22.960938 2.105469 22.394531 2.375 21.921875 2.75 C 21.855469 2.800781 21.789062 2.855469 21.726562 2.910156 L 22.109375 2.261719 C 22.316406 1.925781 22.539062 1.613281 22.773438 1.335938 C 22.789062 1.320312 22.800781 1.296875 22.804688 1.273438 C 22.8125 1.226562 22.867188 1.152344 22.835938 1.113281 C 22.816406 1.089844 22.773438 1.050781 22.695312 1.050781 C 22.628906 1.050781 22.398438 1.074219 21.527344 1.738281 C 20.707031 2.3125 20 3.054688 19.488281 3.894531 C 19.28125 4.261719 18.921875 4.949219 18.800781 5.429688 C 18.792969 5.382812 18.789062 5.332031 18.78125 5.285156 C 18.761719 5.09375 18.75 4.890625 18.746094 4.652344 C 18.742188 4.367188 18.753906 4.113281 18.765625 3.949219 C 18.769531 3.878906 18.757812 3.71875 18.691406 3.703125 C 18.625 3.683594 18.523438 3.820312 18.496094 3.882812 C 18.070312 4.859375 17.957031 5.671875 17.933594 6.15625 L 17.777344 7.582031 C 17.757812 7.679688 17.683594 8.15625 17.683594 8.15625 C 17.566406 7.949219 17.484375 7.796875 17.394531 7.574219 C 17.390625 7.566406 17.386719 7.558594 17.382812 7.550781 L 17.246094 7.335938 C 17.242188 7.332031 17.238281 7.324219 17.234375 7.320312 C 17.03125 7.078125 16.824219 6.953125 16.589844 6.8125 C 16.253906 6.609375 15.835938 6.355469 15.21875 5.640625 C 14.878906 5.246094 14.484375 4.449219 14.355469 3.898438 C 14.101562 2.8125 14.125 1.511719 14.417969 0.34375 C 14.445312 0.265625 14.460938 0.125 14.425781 0.0742188 C 14.402344 0.0390625 14.351562 0.0117188 14.304688 0.0117188 C 14.214844 0.0117188 14.132812 0.09375 13.5625 1 C 13.558594 1.003906 13.558594 1.003906 13.558594 1.007812 C 13.183594 1.601562 12.917969 2.285156 12.792969 2.980469 C 12.765625 3.132812 12.746094 3.285156 12.730469 3.433594 C 12.597656 3.105469 12.488281 2.761719 12.402344 2.417969 C 12.222656 1.671875 12.160156 0.914062 12.230469 0.230469 C 12.234375 0.1875 12.242188 0.0742188 12.210938 0.0429688 C 12.183594 0.015625 12.144531 0 12.101562 0 C 11.972656 0 11.78125 0.160156 11.378906 1.234375 C 10.996094 2.257812 10.875 3.195312 10.992188 4.21875 C 10.558594 3.652344 10.363281 2.859375 10.1875 2.144531 C 10.144531 1.964844 10.101562 1.789062 10.054688 1.625 C 10.035156 1.539062 9.972656 1.339844 9.898438 1.375 C 9.890625 1.378906 9.886719 1.382812 9.882812 1.386719 C 9.882812 1.386719 9.878906 1.386719 9.878906 1.386719 C 9.875 1.386719 9.875 1.390625 9.871094 1.394531 C 9.867188 1.394531 9.863281 1.398438 9.863281 1.402344 C 9.847656 1.417969 9.789062 1.59375 9.78125 1.613281 C 9.757812 1.65625 9.742188 1.722656 9.730469 1.820312 C 9.730469 1.828125 9.730469 1.832031 9.730469 1.835938 C 9.730469 1.867188 9.730469 1.902344 9.726562 1.933594 C 9.726562 1.972656 9.722656 2.007812 9.722656 2.046875 C 9.671875 2.582031 9.628906 3.972656 10.34375 5.421875 L 10.359375 5.460938 C 10.367188 5.484375 10.378906 5.503906 10.386719 5.527344 C 10.464844 5.691406 10.554688 5.839844 10.636719 5.984375 C 10.664062 6.035156 10.691406 6.082031 10.71875 6.128906 C 10.816406 6.300781 10.902344 6.40625 10.992188 6.507812 C 10.589844 6.425781 9.996094 6.304688 9.707031 6.261719 C 9.640625 6.253906 9.578125 6.289062 9.554688 6.351562 C 9.53125 6.414062 9.554688 6.484375 9.609375 6.519531 C 9.851562 6.679688 10.285156 7.070312 10.746094 7.5 L 10.738281 7.5 L 11.550781 8.257812 L 11.625 8.328125 C 11.890625 8.578125 12.167969 8.835938 12.429688 9.074219 L 11.875 9.019531 C 11.8125 9.011719 11.753906 9.046875 11.730469 9.105469 C 11.703125 9.164062 11.722656 9.230469 11.769531 9.269531 L 13.070312 10.320312 L 13.066406 10.320312 L 13.636719 10.773438 C 13.640625 10.777344 13.644531 10.78125 13.648438 10.785156 L 14.621094 11.570312 C 14.648438 11.589844 14.675781 11.601562 14.707031 11.601562 L 14.957031 11.609375 C 14.429688 11.828125 13.945312 11.835938 13.378906 11.644531 C 12.941406 11.5 12.523438 11.273438 12.167969 10.988281 C 12.117188 10.945312 11.988281 10.871094 11.9375 10.910156 C 11.886719 10.949219 11.925781 11.089844 11.949219 11.152344 C 12.058594 11.421875 12.261719 11.660156 12.46875 11.875 C 11.796875 11.785156 11.183594 11.601562 10.484375 11.28125 C 10.429688 11.253906 10.324219 11.1875 10.28125 11.234375 C 10.242188 11.28125 10.273438 11.433594 10.308594 11.484375 C 10.625 11.976562 10.878906 12.3125 11.128906 12.574219 C 11.394531 12.847656 11.742188 13.132812 11.914062 13.234375 C 11.945312 13.253906 12.035156 13.304688 12.453125 13.304688 C 12.609375 13.304688 12.785156 13.296875 12.933594 13.285156 C 12.953125 13.28125 12.96875 13.28125 12.988281 13.277344 C 12.570312 13.425781 12.1875 13.480469 11.855469 13.441406 C 11.78125 13.429688 11.621094 13.4375 11.601562 13.507812 C 11.585938 13.578125 11.722656 13.6875 11.789062 13.714844 C 12.285156 13.890625 12.773438 14.011719 13.238281 14.074219 C 13.390625 14.117188 13.828125 14.230469 14.300781 14.273438 C 14.332031 14.273438 14.359375 14.273438 14.390625 14.273438 C 14.429688 14.277344 14.46875 14.28125 14.503906 14.285156 C 14.683594 14.300781 14.855469 14.316406 15.035156 14.316406 C 15.1875 14.316406 15.335938 14.308594 15.488281 14.28125 C 15.488281 14.300781 15.496094 14.320312 15.503906 14.335938 L 15.585938 14.496094 C 15.554688 14.503906 15.527344 14.515625 15.503906 14.539062 C 15.464844 14.585938 15.453125 14.652344 15.484375 14.703125 L 15.660156 15.035156 C 15.664062 15.042969 15.667969 15.046875 15.675781 15.054688 C 15.675781 15.054688 15.679688 15.0625 15.6875 15.070312 C 15.679688 15.074219 15.671875 15.078125 15.664062 15.082031 C 15.617188 15.117188 15.59375 15.175781 15.609375 15.234375 C 15.699219 15.601562 15.878906 15.730469 16.007812 15.824219 C 16.097656 15.886719 16.152344 15.925781 16.179688 16.027344 C 16.195312 16.09375 16.226562 16.167969 16.257812 16.25 C 16.328125 16.417969 16.429688 16.671875 16.363281 16.773438 C 16.28125 16.90625 16.222656 16.945312 16.125 17.011719 C 16.0625 17.050781 15.988281 17.101562 15.894531 17.183594 C 15.675781 17.382812 15.660156 17.648438 15.851562 17.96875 L 15.863281 17.988281 C 15.890625 18.039062 15.949219 18.066406 16.007812 18.058594 C 16.066406 18.046875 16.113281 18.003906 16.125 17.945312 C 16.167969 17.71875 16.539062 17.539062 16.613281 17.53125 C 16.742188 17.523438 16.863281 17.515625 16.945312 17.433594 C 17.082031 17.296875 17.820312 17.289062 17.820312 17.289062 C 17.820312 17.289062 17.90625 17.292969 18.039062 17.320312 C 18.066406 17.332031 18.09375 17.34375 18.117188 17.359375 C 18.140625 17.375 18.167969 17.382812 18.195312 17.378906 C 18.210938 17.378906 18.457031 17.480469 18.476562 17.503906 C 18.515625 17.546875 18.933594 17.777344 18.980469 17.804688 C 19.007812 17.820312 19.25 18.144531 19.285156 18.144531 C 19.34375 18.226562 19.363281 18.203125 19.367188 18.117188 C 19.523438 18.023438 19.667969 17.816406 19.722656 17.59375 C 19.777344 17.375 19.742188 17.164062 19.628906 16.984375 C 19.621094 16.976562 19.613281 16.964844 19.605469 16.957031 C 19.578125 16.9375 19.515625 16.886719 19.441406 16.824219 C 19.335938 16.746094 19.164062 16.609375 19.128906 16.570312 C 19.027344 16.449219 18.976562 16.320312 18.925781 16.171875 C 18.964844 16.171875 19.003906 16.152344 19.027344 16.121094 C 19.054688 16.085938 19.0625 16.042969 19.054688 16 L 19.035156 15.917969 C 19.007812 15.792969 18.972656 15.652344 18.949219 15.5 L 18.945312 15.492188 C 18.953125 15.492188 18.957031 15.492188 18.964844 15.492188 C 19.042969 15.492188 19.105469 15.429688 19.105469 15.351562 C 19.105469 15.324219 19.101562 15.296875 19.085938 15.277344 L 18.929688 14.855469 C 18.945312 14.871094 18.957031 14.882812 18.960938 14.886719 C 19 14.929688 19.09375 14.996094 19.144531 14.976562 C 19.199219 14.960938 19.199219 14.855469 19.203125 14.800781 C 19.226562 14.519531 19.441406 14.230469 19.675781 14.066406 C 19.6875 14.101562 19.703125 14.128906 19.703125 14.136719 C 19.730469 14.183594 19.730469 14.285156 19.785156 14.285156 C 19.785156 14.285156 19.785156 14.285156 19.789062 14.285156 C 19.839844 14.285156 19.882812 14.210938 19.960938 14.128906 C 20.054688 14.027344 20.136719 13.941406 20.242188 13.910156 L 20.730469 14.109375 C 20.757812 14.195312 20.820312 14.335938 20.925781 14.421875 C 21.015625 14.496094 21.105469 14.554688 21.269531 14.65625 C 21.285156 14.667969 21.304688 14.679688 21.324219 14.691406 C 21.308594 14.699219 21.292969 14.703125 21.273438 14.710938 C 21.21875 14.730469 21.058594 14.785156 21.054688 14.84375 C 21.054688 14.902344 21.214844 14.957031 21.273438 14.976562 C 21.378906 15.015625 21.5 15.039062 21.617188 15.039062 C 21.855469 15.039062 22.066406 14.953125 22.195312 14.804688 C 22.300781 14.679688 22.339844 14.523438 22.3125 14.351562 C 22.289062 14.222656 22.238281 13.90625 22.222656 13.804688 L 22.355469 13.371094 C 22.359375 13.355469 22.359375 13.34375 22.359375 13.328125 C 22.359375 13.125 22.300781 12.894531 22.1875 12.648438 L 22.183594 12.632812 C 22.175781 12.613281 22.167969 12.597656 22.15625 12.585938 C 22.152344 12.574219 22.144531 12.5625 22.140625 12.550781 C 22.109375 12.484375 22.070312 12.417969 22.023438 12.34375 C 21.671875 11.765625 21.175781 11.292969 21.152344 11.273438 C 21.109375 11.234375 21.027344 11.164062 20.976562 11.191406 C 20.921875 11.214844 20.910156 11.328125 20.914062 11.386719 L 20.917969 11.417969 C 20.882812 11.335938 20.753906 11.199219 20.722656 11.15625 C 20.660156 11.0625 20.613281 10.964844 20.597656 10.898438 C 21.015625 8.949219 22.304688 7.65625 22.316406 7.640625 C 22.339844 7.617188 22.355469 7.589844 22.359375 7.554688 C 22.636719 4.769531 25.816406 3.546875 25.847656 3.535156 C 25.859375 3.527344 25.941406 3.503906 25.953125 3.496094 C 26.0625 3.414062 26.082031 3.351562 26.074219 3.324219 "/>
<path style=" stroke:none;fill-rule:nonzero;fill:rgb(16.078431%,17.647059%,41.960784%);fill-opacity:1;" d="M 17.402344 24.847656 C 15.882812 24.847656 14.910156 24.324219 13.882812 23.773438 C 13.324219 23.476562 12.75 23.167969 12.070312 22.941406 C 10.097656 22.277344 8.769531 23.121094 8.757812 23.128906 L 8.648438 22.964844 C 8.707031 22.925781 10.070312 22.058594 12.132812 22.75 C 12.828125 22.984375 13.414062 23.296875 13.976562 23.601562 C 15.070312 24.1875 16.101562 24.742188 17.808594 24.636719 C 19.398438 24.542969 20.484375 24.003906 21.535156 23.484375 C 21.976562 23.269531 22.390625 23.0625 22.828125 22.898438 C 22.859375 22.886719 22.894531 22.875 22.933594 22.859375 C 23.527344 22.621094 25.109375 22 26.511719 23.066406 L 26.390625 23.222656 C 25.078125 22.222656 23.574219 22.816406 23.003906 23.042969 C 22.964844 23.058594 22.929688 23.074219 22.898438 23.082031 C 22.46875 23.246094 22.058594 23.449219 21.625 23.664062 C 20.605469 24.167969 19.449219 24.738281 17.820312 24.835938 C 17.675781 24.84375 17.535156 24.847656 17.402344 24.847656 "/>
<path style=" stroke:none;fill-rule:nonzero;fill:rgb(10.588235%,27.058824%,56.078431%);fill-opacity:1;" d="M 17.195312 23.285156 L 17.152344 23.28125 L 17.140625 23.613281 L 17.179688 23.613281 C 17.300781 23.617188 17.371094 23.566406 17.375 23.449219 C 17.378906 23.34375 17.316406 23.289062 17.195312 23.285156 "/>
<path style=" stroke:none;fill-rule:nonzero;fill:rgb(10.588235%,27.058824%,56.078431%);fill-opacity:1;" d="M 18.195312 23.722656 L 18.421875 23.691406 L 18.257812 23.320312 Z M 18.195312 23.722656 "/>
<path style=" stroke:none;fill-rule:nonzero;fill:rgb(10.588235%,27.058824%,56.078431%);fill-opacity:1;" d="M 14.878906 23.132812 L 14.957031 22.738281 L 14.675781 23.03125 Z M 14.878906 23.132812 "/>
<path style=" stroke:none;fill-rule:nonzero;fill:rgb(10.588235%,27.058824%,56.078431%);fill-opacity:1;" d="M 10.84375 21.128906 L 10.769531 21.125 L 10.75 21.453125 L 10.824219 21.460938 C 10.941406 21.464844 11.011719 21.410156 11.015625 21.300781 C 11.023438 21.199219 10.960938 21.136719 10.84375 21.128906 "/>
<path style=" stroke:none;fill-rule:nonzero;fill:rgb(10.588235%,27.058824%,56.078431%);fill-opacity:1;" d="M 20.378906 23.101562 L 20.585938 23.007812 L 20.324219 22.699219 Z M 20.378906 23.101562 "/>
<path style=" stroke:none;fill-rule:nonzero;fill:rgb(10.588235%,27.058824%,56.078431%);fill-opacity:1;" d="M 25.816406 22.25 C 25.722656 22.257812 25.636719 22.1875 25.628906 22.09375 C 25.621094 21.996094 25.691406 21.914062 25.789062 21.90625 C 25.882812 21.898438 25.96875 21.96875 25.976562 22.0625 C 25.984375 22.160156 25.910156 22.242188 25.816406 22.25 M 25.546875 21.269531 C 25.484375 21.210938 25.414062 21.164062 25.316406 21.152344 C 25.148438 21.136719 25.023438 21.25 25.003906 21.460938 C 24.980469 21.671875 25.085938 21.808594 25.253906 21.824219 C 25.339844 21.835938 25.421875 21.8125 25.511719 21.773438 L 25.527344 22.074219 C 25.421875 22.113281 25.3125 22.132812 25.171875 22.117188 C 24.796875 22.074219 24.597656 21.8125 24.640625 21.421875 C 24.679688 21.042969 24.945312 20.8125 25.324219 20.855469 C 25.449219 20.867188 25.546875 20.902344 25.628906 20.957031 Z M 24.394531 22.078125 C 24.300781 22.085938 24.21875 22.015625 24.210938 21.917969 C 24.203125 21.824219 24.273438 21.738281 24.367188 21.730469 C 24.464844 21.722656 24.546875 21.792969 24.554688 21.890625 C 24.5625 21.984375 24.492188 22.070312 24.394531 22.078125 M 23.886719 22.15625 L 23.53125 22.230469 L 23.277344 21.023438 L 24.039062 20.863281 L 24.101562 21.160156 L 23.695312 21.242188 L 23.734375 21.4375 L 24.027344 21.375 L 24.136719 21.65625 L 23.796875 21.730469 Z M 22.300781 22.710938 L 21.835938 21.570312 L 22.589844 21.261719 L 22.695312 21.527344 L 22.273438 21.699219 L 22.34375 21.863281 L 22.660156 21.734375 L 22.808594 21.980469 L 22.449219 22.128906 L 22.523438 22.308594 L 22.960938 22.132812 L 23.070312 22.398438 Z M 21.863281 22.945312 C 21.523438 23.113281 21.214844 22.992188 21.042969 22.640625 C 20.878906 22.296875 20.980469 21.960938 21.324219 21.796875 C 21.433594 21.742188 21.539062 21.71875 21.636719 21.71875 L 21.730469 22.03125 C 21.648438 22.011719 21.5625 22.011719 21.476562 22.050781 C 21.324219 22.125 21.28125 22.289062 21.371094 22.480469 C 21.464844 22.671875 21.625 22.730469 21.78125 22.65625 C 21.859375 22.617188 21.914062 22.554688 21.96875 22.472656 L 22.140625 22.71875 C 22.074219 22.808594 21.992188 22.882812 21.863281 22.945312 M 20.929688 23.398438 L 20.773438 23.226562 L 20.421875 23.386719 L 20.449219 23.597656 L 20.128906 23.746094 L 20.007812 22.441406 L 20.378906 22.273438 L 21.242188 23.191406 Z M 19.253906 24.019531 L 18.890625 22.84375 L 19.238281 22.734375 L 19.511719 23.613281 L 19.84375 23.511719 L 19.984375 23.792969 Z M 18.640625 24.160156 L 18.539062 23.953125 L 18.15625 24.007812 L 18.125 24.21875 L 17.773438 24.269531 L 18.027344 22.984375 L 18.429688 22.929688 L 19 24.054688 Z M 17.191406 23.878906 L 17.132812 23.878906 L 17.121094 24.25 L 16.757812 24.234375 L 16.800781 23.003906 L 17.226562 23.019531 C 17.542969 23.027344 17.734375 23.171875 17.722656 23.457031 C 17.714844 23.746094 17.5 23.890625 17.191406 23.878906 M 16.070312 24.113281 L 15.34375 23.878906 L 15.71875 22.707031 L 16.070312 22.820312 L 15.785156 23.695312 L 16.117188 23.804688 Z M 15.148438 23.761719 L 14.792969 23.648438 L 14.828125 23.417969 L 14.480469 23.246094 L 14.335938 23.402344 L 14.019531 23.242188 L 14.953125 22.328125 L 15.320312 22.511719 Z M 13.480469 22.945312 L 13.914062 22.125 L 13.621094 21.96875 L 13.761719 21.703125 L 14.636719 22.160156 L 14.542969 22.453125 L 14.238281 22.292969 L 13.804688 23.117188 Z M 13.105469 21.898438 C 13.324219 22.09375 13.394531 22.230469 13.3125 22.417969 C 13.199219 22.683594 12.960938 22.703125 12.730469 22.601562 C 12.566406 22.53125 12.445312 22.441406 12.339844 22.328125 L 12.507812 22.074219 C 12.609375 22.199219 12.730469 22.300781 12.84375 22.347656 C 12.910156 22.378906 12.964844 22.371094 12.984375 22.324219 C 13.003906 22.277344 12.988281 22.242188 12.855469 22.121094 C 12.660156 21.941406 12.585938 21.820312 12.671875 21.621094 C 12.773438 21.386719 13.003906 21.351562 13.226562 21.445312 C 13.390625 21.515625 13.480469 21.585938 13.566406 21.6875 L 13.402344 21.9375 C 13.3125 21.824219 13.207031 21.742188 13.125 21.703125 C 13.054688 21.675781 13.015625 21.683594 12.996094 21.722656 C 12.976562 21.769531 12.992188 21.800781 13.105469 21.898438 M 11.992188 22.308594 L 11.636719 22.214844 L 11.75 21.796875 L 11.546875 20.949219 L 11.933594 21.003906 L 12.035156 21.519531 L 12.371094 21.136719 L 12.738281 21.234375 L 12.105469 21.886719 Z M 10.996094 22.121094 L 10.792969 21.710938 L 10.738281 21.707031 L 10.714844 22.089844 L 10.351562 22.066406 L 10.425781 20.839844 L 10.898438 20.867188 C 11.214844 20.886719 11.386719 21.039062 11.371094 21.300781 C 11.363281 21.46875 11.28125 21.578125 11.136719 21.644531 L 11.386719 22.082031 Z M 9.859375 22.15625 C 9.488281 22.226562 9.222656 22.03125 9.148438 21.648438 C 9.078125 21.269531 9.261719 20.976562 9.636719 20.902344 C 9.761719 20.878906 9.867188 20.886719 9.960938 20.914062 L 9.96875 21.238281 C 9.894531 21.199219 9.8125 21.175781 9.71875 21.191406 C 9.550781 21.226562 9.464844 21.371094 9.507812 21.578125 C 9.546875 21.789062 9.6875 21.886719 9.855469 21.855469 C 9.941406 21.839844 10.007812 21.792969 10.085938 21.726562 L 10.1875 22.011719 C 10.097656 22.078125 10 22.128906 9.859375 22.15625 M 21.703125 21.066406 C 20.308594 21.957031 19.171875 22.488281 17.742188 22.492188 C 15.8125 22.5 14.316406 21.222656 12.28125 20.535156 C 10.242188 19.851562 7.898438 20.996094 7.898438 20.996094 C 7.898438 20.996094 8.644531 21.726562 8.703125 23.046875 C 8.703125 23.046875 10.0625 22.160156 12.101562 22.84375 C 14.136719 23.53125 15.195312 24.894531 17.816406 24.738281 C 20.097656 24.601562 21.398438 23.542969 22.863281 22.992188 C 23.320312 22.820312 24.996094 22.039062 26.445312 23.140625 C 26.578125 21.851562 27.269531 21.054688 27.269531 21.054688 C 25.535156 19.8125 22.726562 20.410156 21.703125 21.066406 "/>
<path style=" stroke:none;fill-rule:nonzero;fill:rgb(76.862745%,7.058824%,18.039216%);fill-opacity:1;" d="M 9.996094 23.484375 C 10.097656 23.484375 10.199219 23.496094 10.28125 23.515625 C 10.320312 23.523438 10.363281 23.535156 10.40625 23.542969 C 10.496094 23.570312 10.621094 23.605469 10.660156 23.574219 C 10.671875 23.566406 10.683594 23.535156 10.683594 23.492188 C 10.6875 23.449219 10.671875 23.417969 10.644531 23.394531 C 10.503906 23.273438 10.082031 23.28125 9.71875 23.324219 L 9.726562 23.515625 C 9.808594 23.492188 9.902344 23.484375 9.996094 23.484375 M 24.867188 23.363281 C 24.699219 23.363281 24.558594 23.386719 24.488281 23.441406 C 24.457031 23.464844 24.441406 23.496094 24.441406 23.539062 C 24.441406 23.582031 24.449219 23.613281 24.460938 23.621094 C 24.5 23.652344 24.625 23.625 24.714844 23.605469 C 24.757812 23.59375 24.800781 23.585938 24.84375 23.578125 C 25 23.554688 25.21875 23.550781 25.398438 23.609375 L 25.410156 23.417969 C 25.230469 23.386719 25.035156 23.363281 24.867188 23.363281 M 25.570312 23.921875 L 25.433594 23.835938 C 25.320312 23.761719 25.085938 23.734375 24.871094 23.769531 C 24.835938 23.773438 24.796875 23.785156 24.757812 23.792969 C 24.605469 23.824219 24.449219 23.859375 24.34375 23.773438 C 24.28125 23.722656 24.25 23.644531 24.25 23.539062 C 24.25 23.4375 24.289062 23.351562 24.367188 23.289062 C 24.699219 23.035156 25.660156 23.269531 25.769531 23.296875 C 25.867188 23.324219 26.160156 23.378906 26.289062 23.289062 C 26.324219 23.265625 26.339844 23.230469 26.347656 23.179688 C 26.445312 22.074219 26.949219 21.316406 27.132812 21.074219 C 25.460938 19.957031 22.796875 20.511719 21.75 21.148438 C 20.5625 21.875 19.269531 22.582031 17.742188 22.589844 L 17.726562 22.589844 C 16.484375 22.589844 15.421875 22.066406 14.296875 21.515625 C 13.652344 21.203125 12.984375 20.875 12.25 20.628906 C 10.527344 20.050781 8.554688 20.8125 8.058594 21.027344 C 8.265625 21.277344 8.753906 21.96875 8.796875 23.042969 C 8.800781 23.09375 8.816406 23.128906 8.851562 23.15625 C 8.976562 23.25 9.269531 23.207031 9.367188 23.1875 C 9.476562 23.164062 10.453125 22.976562 10.769531 23.246094 C 10.84375 23.3125 10.882812 23.398438 10.875 23.5 C 10.871094 23.605469 10.835938 23.683594 10.773438 23.730469 C 10.660156 23.8125 10.503906 23.769531 10.355469 23.730469 C 10.316406 23.71875 10.277344 23.710938 10.242188 23.703125 C 10.03125 23.65625 9.796875 23.675781 9.679688 23.742188 L 9.539062 23.820312 L 9.53125 23.351562 C 9.484375 23.359375 9.445312 23.367188 9.40625 23.375 C 9.363281 23.386719 8.953125 23.472656 8.734375 23.308594 C 8.65625 23.246094 8.609375 23.160156 8.605469 23.050781 C 8.550781 21.785156 7.835938 21.070312 7.828125 21.0625 L 7.730469 20.96875 L 7.855469 20.910156 C 7.953125 20.859375 10.257812 19.757812 12.3125 20.445312 C 13.058594 20.695312 13.730469 21.027344 14.382812 21.34375 C 15.484375 21.886719 16.53125 22.394531 17.726562 22.394531 L 17.742188 22.394531 C 19.074219 22.390625 20.226562 21.851562 21.652344 20.984375 C 22.753906 20.3125 25.59375 19.734375 27.328125 20.976562 L 27.414062 21.035156 L 27.34375 21.117188 C 27.335938 21.125 26.652344 21.929688 26.539062 23.199219 C 26.527344 23.304688 26.480469 23.390625 26.398438 23.445312 C 26.171875 23.601562 25.765625 23.496094 25.722656 23.480469 C 25.683594 23.472656 25.644531 23.464844 25.601562 23.453125 Z M 25.570312 23.921875 "/>
<path style=" stroke:none;fill-rule:nonzero;fill:rgb(76.862745%,7.058824%,18.039216%);fill-opacity:1;" d="M 17.402344 24.863281 C 15.886719 24.863281 14.910156 24.339844 13.886719 23.789062 C 13.328125 23.492188 12.75 23.183594 12.070312 22.953125 C 10.105469 22.292969 8.769531 23.136719 8.753906 23.144531 L 8.652344 22.984375 C 8.707031 22.949219 10.074219 22.082031 12.132812 22.773438 C 12.828125 23.007812 13.410156 23.320312 13.976562 23.621094 C 15.070312 24.207031 16.101562 24.761719 17.808594 24.660156 C 19.398438 24.5625 20.488281 24.027344 21.539062 23.507812 C 21.976562 23.289062 22.394531 23.082031 22.832031 22.917969 C 22.859375 22.90625 22.894531 22.894531 22.933594 22.878906 C 23.53125 22.644531 25.109375 22.019531 26.511719 23.085938 L 26.394531 23.238281 C 25.082031 22.238281 23.570312 22.832031 23.003906 23.058594 C 22.964844 23.074219 22.929688 23.085938 22.898438 23.097656 C 22.46875 23.261719 22.058594 23.464844 21.625 23.679688 C 20.605469 24.183594 19.449219 24.753906 17.820312 24.851562 C 17.675781 24.859375 17.539062 24.863281 17.402344 24.863281 "/>
<path style=" stroke:none;fill-rule:nonzero;fill:rgb(76.862745%,7.058824%,18.039216%);fill-opacity:1;" d="M 10.679688 23.421875 C 10.21875 23.046875 10.039062 22.679688 10.03125 22.664062 L 10.203125 22.582031 C 10.207031 22.585938 10.375 22.925781 10.800781 23.273438 Z M 10.679688 23.421875 "/>
<path style=" stroke:none;fill-rule:nonzero;fill:rgb(76.862745%,7.058824%,18.039216%);fill-opacity:1;" d="M 24.464844 23.464844 L 24.351562 23.308594 C 24.847656 22.949219 24.90625 22.5625 24.90625 22.558594 L 25.097656 22.585938 C 25.09375 22.605469 25.023438 23.054688 24.464844 23.464844 "/>
<path style=" stroke:none;fill-rule:nonzero;fill:rgb(15.294118%,25.098039%,60.784314%);fill-opacity:1;" d="M 19.753906 13.292969 C 19.769531 13.308594 19.78125 13.320312 19.792969 13.332031 C 19.792969 13.332031 19.789062 13.316406 19.753906 13.292969 "/>
<path style=" stroke:none;fill-rule:nonzero;fill:rgb(15.294118%,25.098039%,60.784314%);fill-opacity:1;" d="M 18.726562 5.820312 C 18.695312 5.675781 18.664062 5.5 18.640625 5.300781 C 18.660156 5.464844 18.6875 5.636719 18.726562 5.820312 "/>
<g clip-path="url(#clip1)" clip-rule="nonzero">
<path style=" stroke:none;fill-rule:nonzero;fill:rgb(100%,100%,100%);fill-opacity:1;" d="M 18.726562 5.820312 C 18.695312 5.675781 18.664062 5.5 18.640625 5.300781 C 18.660156 5.464844 18.6875 5.636719 18.726562 5.820312 "/>
</g>
<path style=" stroke:none;fill-rule:nonzero;fill:rgb(10.588235%,27.058824%,56.078431%);fill-opacity:1;" d="M 22.015625 14.605469 C 21.960938 14.671875 21.878906 14.730469 21.792969 14.769531 C 21.695312 14.808594 21.589844 14.828125 21.511719 14.808594 C 21.515625 14.808594 21.515625 14.808594 21.519531 14.808594 C 21.527344 14.804688 21.535156 14.800781 21.539062 14.796875 C 21.546875 14.792969 21.554688 14.789062 21.558594 14.785156 C 21.753906 14.664062 21.648438 14.433594 21.445312 14.199219 L 21.441406 14.199219 L 20.972656 13.789062 L 20.945312 13.769531 L 20.941406 13.761719 L 20.945312 13.761719 L 20.957031 13.757812 L 20.960938 13.753906 L 20.980469 13.75 L 21.050781 13.789062 L 21.289062 13.925781 L 21.308594 13.933594 L 21.414062 13.992188 L 21.527344 14.058594 C 21.53125 14.058594 21.53125 14.058594 21.53125 14.058594 C 21.640625 14.03125 21.757812 14 21.777344 13.996094 C 21.859375 13.976562 21.902344 13.953125 21.929688 13.933594 C 21.929688 13.949219 22.132812 14.453125 22.015625 14.605469 M 21.488281 14.507812 L 21.316406 14.367188 L 21.195312 14.269531 L 21.15625 14.152344 L 21.117188 14.023438 L 21.113281 14.019531 C 21.25 14.097656 21.359375 14.246094 21.429688 14.359375 C 21.445312 14.386719 21.519531 14.535156 21.519531 14.535156 Z M 20.605469 13.347656 L 20.386719 12.957031 L 19.832031 12.675781 L 20.285156 13.203125 C 20.046875 13.066406 19.640625 12.851562 19.199219 12.769531 C 19.199219 12.769531 19.574219 13.117188 19.753906 13.292969 C 19.789062 13.316406 19.792969 13.332031 19.792969 13.332031 C 19.78125 13.320312 19.769531 13.308594 19.753906 13.292969 C 19.699219 13.257812 19.582031 13.214844 19.308594 13.199219 C 19.054688 13.171875 18.75 13.105469 18.476562 12.953125 C 18.476562 12.953125 18.53125 13.03125 18.644531 13.128906 C 18.644531 13.128906 18.648438 13.128906 18.648438 13.132812 C 18.648438 13.132812 18.648438 13.132812 18.652344 13.132812 C 18.753906 13.222656 18.910156 13.324219 19.117188 13.390625 C 19.132812 13.394531 19.339844 13.480469 19.359375 13.488281 C 19.207031 13.546875 19.082031 13.617188 18.976562 13.699219 C 18.777344 13.855469 18.648438 14.042969 18.574219 14.234375 C 18.445312 14.566406 18.328125 15.164062 18.417969 15.503906 C 18.132812 15.117188 17.878906 14.621094 18.019531 14.058594 C 17.582031 14.304688 17.300781 14.226562 16.996094 14.179688 C 16.859375 14.367188 16.671875 14.820312 16.648438 15.210938 C 16.625 15.167969 16.601562 15.125 16.578125 15.078125 C 16.464844 14.835938 16.40625 14.5625 16.394531 14.296875 C 16.386719 14.191406 16.386719 14.089844 16.394531 13.996094 L 17.394531 13.285156 L 15.941406 13.164062 C 15.964844 13.148438 15.992188 13.128906 16.015625 13.113281 C 16.574219 12.71875 17.265625 12.445312 17.957031 12.476562 C 18.011719 12.480469 18.0625 12.484375 18.117188 12.488281 C 17.671875 12.242188 16.886719 12.253906 16.425781 12.398438 C 15.792969 12.59375 15.542969 12.605469 14.871094 12.488281 C 15.578125 12.34375 15.550781 12.324219 15.972656 12.125 C 16.316406 11.933594 16.972656 11.578125 17.796875 11.726562 C 17.597656 11.640625 17.421875 11.554688 17.175781 11.496094 C 16.9375 11.441406 16.546875 11.390625 16.125 11.480469 C 16.125 11.480469 16.410156 11.171875 16.945312 11.097656 C 16.21875 10.441406 14.070312 9.414062 14.070312 9.414062 C 17.117188 10.132812 18.414062 11.566406 18.609375 11.796875 C 18.621094 11.808594 18.632812 11.816406 18.648438 11.828125 C 18.53125 11.566406 17.855469 9.988281 16 8.832031 C 15.746094 8.671875 15.460938 8.558594 15.199219 8.410156 C 14.78125 8.164062 14.394531 7.894531 14.042969 7.601562 L 14.042969 7.605469 C 10.59375 4.867188 11.878906 1.097656 11.878906 1.097656 C 11.765625 1.972656 11.914062 2.828125 12.167969 3.589844 C 12.328125 4.074219 12.53125 4.519531 12.738281 4.90625 C 12.96875 5.34375 13.207031 5.703125 13.390625 5.964844 C 13.820312 6.488281 14.328125 6.9375 14.921875 7.261719 C 14.921875 7.261719 12.316406 5.488281 13.796875 1.710938 C 13.738281 1.871094 12.714844 4.898438 16.5625 7.539062 C 16.636719 7.589844 16.691406 7.585938 16.710938 7.640625 C 17.222656 8.871094 19.195312 10.835938 19.5625 11.777344 C 19.546875 11.585938 19.527344 11.390625 19.511719 11.199219 C 19.734375 11.4375 19.90625 11.730469 19.996094 12.042969 C 20.011719 11.851562 20.03125 11.5625 20.046875 11.371094 C 20.363281 11.546875 20.835938 11.910156 21.226562 12.332031 C 21.226562 12.332031 21.222656 12.328125 21.214844 12.320312 C 21.203125 12.304688 21.191406 12.292969 21.179688 12.28125 C 21.183594 12.285156 21.191406 12.292969 21.195312 12.296875 C 21.199219 12.300781 21.199219 12.304688 21.203125 12.308594 C 21.210938 12.3125 21.214844 12.316406 21.214844 12.320312 C 21.21875 12.324219 21.222656 12.328125 21.226562 12.332031 L 21.210938 12.050781 L 21.203125 11.921875 C 21.203125 11.921875 21.789062 12.644531 21.992188 13.207031 C 22.003906 13.238281 22.011719 13.269531 22.019531 13.300781 C 22.019531 13.457031 21.996094 13.5625 21.96875 13.632812 C 21.945312 13.691406 21.855469 13.789062 21.835938 13.804688 C 21.824219 13.816406 21.8125 13.820312 21.8125 13.820312 C 21.84375 13.796875 21.847656 13.746094 21.847656 13.699219 C 21.847656 13.640625 21.835938 13.578125 21.8125 13.507812 C 21.792969 13.441406 21.769531 13.378906 21.746094 13.332031 C 21.726562 13.277344 21.707031 13.242188 21.707031 13.242188 C 21.71875 13.371094 21.714844 13.46875 21.699219 13.535156 C 21.699219 13.539062 21.699219 13.539062 21.695312 13.542969 C 21.667969 13.671875 21.609375 13.707031 21.589844 13.714844 C 21.589844 13.714844 21.585938 13.714844 21.585938 13.714844 C 21.582031 13.695312 21.578125 13.675781 21.574219 13.65625 C 21.558594 13.609375 21.539062 13.5625 21.519531 13.515625 C 21.453125 13.351562 21.210938 12.890625 21.128906 12.730469 C 21.0625 12.828125 21.152344 13.054688 21.152344 13.054688 C 21.183594 13.117188 21.257812 13.269531 21.257812 13.269531 C 21.191406 13.421875 21.289062 13.59375 21.425781 13.660156 C 21.386719 13.675781 21.261719 13.65625 21.171875 13.605469 C 21.203125 13.671875 21.324219 13.832031 21.382812 13.878906 C 21.210938 13.835938 20.820312 13.523438 20.605469 13.347656 M 22.054688 12.699219 C 22.050781 12.683594 22.046875 12.675781 22.046875 12.675781 C 22.046875 12.675781 22.046875 12.679688 22.050781 12.691406 C 22.039062 12.664062 22.023438 12.636719 22.011719 12.609375 C 21.980469 12.542969 21.941406 12.476562 21.902344 12.417969 C 21.558594 11.847656 21.054688 11.378906 21.054688 11.378906 L 21.0625 11.515625 C 21.066406 11.515625 21.066406 11.515625 21.066406 11.515625 L 21.082031 11.734375 C 21.082031 11.734375 19.464844 10.792969 18.777344 9.929688 C 18.242188 9.257812 17.625 8.527344 17.261719 7.628906 L 17.125 7.414062 C 16.660156 6.859375 16.175781 6.964844 15.113281 5.734375 C 14.75 5.3125 14.34375 4.480469 14.21875 3.929688 C 13.949219 2.769531 13.996094 1.449219 14.285156 0.296875 C 14.285156 0.296875 14.417969 -0.09375 13.683594 1.074219 C 13.3125 1.660156 13.054688 2.324219 12.933594 3.003906 C 12.871094 3.351562 12.839844 3.703125 12.851562 4.046875 C 12.601562 3.550781 12.402344 3.007812 12.265625 2.449219 C 12.085938 1.714844 12.015625 0.949219 12.089844 0.21875 C 12.089844 0.21875 11.960938 0.0898438 11.511719 1.285156 C 11.066406 2.480469 10.996094 3.5 11.199219 4.640625 C 10.378906 3.945312 10.191406 2.667969 9.917969 1.660156 C 9.917969 1.660156 9.917969 1.660156 9.917969 1.664062 C 9.914062 1.664062 9.910156 1.667969 9.90625 1.679688 C 9.894531 1.699219 9.882812 1.742188 9.875 1.835938 C 9.875 1.90625 9.863281 1.980469 9.863281 2.054688 C 9.8125 2.558594 9.765625 3.929688 10.472656 5.367188 C 10.488281 5.398438 10.5 5.433594 10.515625 5.464844 C 10.617188 5.679688 10.734375 5.867188 10.84375 6.058594 C 11.019531 6.371094 11.160156 6.449219 11.359375 6.726562 C 11.339844 6.722656 10.128906 6.46875 9.6875 6.402344 C 9.957031 6.578125 10.445312 7.023438 11 7.542969 C 11 7.542969 12.667969 7.679688 13.976562 8.648438 C 13.976562 8.648438 12.84375 8.09375 11.484375 7.996094 C 11.5625 8.074219 11.644531 8.148438 11.722656 8.222656 C 12.113281 8.589844 12.5 8.953125 12.847656 9.257812 L 12.84375 9.257812 L 11.859375 9.160156 L 13.273438 10.304688 L 13.527344 10.3125 C 13.527344 10.3125 14.003906 10.296875 14.472656 10.402344 C 14.972656 10.515625 15.242188 10.679688 15.242188 10.679688 C 14.960938 10.582031 14.496094 10.570312 14.214844 10.585938 C 14.011719 10.601562 13.882812 10.65625 13.738281 10.675781 L 13.820312 10.742188 L 14.710938 11.460938 L 15.507812 11.480469 C 14.835938 11.898438 14.175781 12.0625 13.332031 11.78125 C 12.882812 11.628906 12.449219 11.394531 12.082031 11.097656 C 12.230469 11.464844 12.578125 11.777344 12.847656 12.054688 C 11.957031 11.988281 11.238281 11.78125 10.425781 11.410156 C 10.738281 11.890625 10.984375 12.21875 11.230469 12.476562 C 11.476562 12.734375 11.816406 13.011719 11.988281 13.113281 C 12.09375 13.175781 12.59375 13.175781 12.921875 13.144531 C 12.980469 13.136719 13.039062 13.128906 13.085938 13.121094 C 13.160156 13.109375 13.253906 13.089844 13.355469 13.066406 C 13.691406 12.988281 14.097656 12.875 14.078125 12.890625 C 13.929688 12.984375 13.769531 13.078125 13.601562 13.164062 C 13.5 13.214844 13.398438 13.265625 13.292969 13.308594 C 12.820312 13.511719 12.304688 13.640625 11.835938 13.582031 C 12.363281 13.769531 12.910156 13.90625 13.46875 13.957031 C 13.660156 13.976562 13.730469 13.972656 13.894531 13.894531 C 14.144531 13.78125 14.347656 13.6875 14.546875 13.59375 C 14.648438 13.542969 14.746094 13.496094 14.847656 13.445312 C 14.984375 13.375 15.128906 13.300781 15.289062 13.210938 C 15.195312 13.296875 15.101562 13.378906 15.007812 13.457031 C 14.953125 13.5 14.898438 13.546875 14.84375 13.59375 C 14.652344 13.75 14.449219 13.914062 14.214844 14.117188 C 14.839844 14.164062 15.207031 14.265625 16.039062 14.003906 C 16.039062 14.003906 15.867188 14.132812 15.628906 14.273438 L 15.875 14.757812 L 15.609375 14.636719 L 15.785156 14.964844 C 15.785156 14.964844 15.910156 15.121094 16.089844 15.25 L 16.148438 15.445312 C 16.011719 15.40625 15.835938 15.257812 15.746094 15.199219 C 15.886719 15.757812 16.21875 15.648438 16.316406 15.988281 C 16.378906 16.21875 16.621094 16.628906 16.484375 16.847656 C 16.324219 17.105469 16.21875 17.085938 15.992188 17.292969 C 15.726562 17.527344 15.929688 17.824219 15.984375 17.917969 C 16.039062 17.640625 16.246094 17.460938 16.363281 17.425781 C 16.546875 17.371094 16.765625 17.414062 16.847656 17.332031 C 17.136719 17.042969 17.761719 16.96875 18.191406 17.238281 C 17.992188 16.917969 17.890625 16.925781 17.492188 16.8125 C 18.195312 16.859375 18.242188 17.011719 18.585938 17.410156 C 18.613281 17.183594 18.425781 16.894531 18.261719 16.753906 C 18.210938 16.710938 17.652344 16.632812 17.109375 16.585938 C 16.921875 16.570312 16.84375 16.324219 16.816406 16.195312 C 16.847656 16.210938 17.003906 16.292969 17.152344 16.292969 C 17.113281 16.101562 17.0625 15.882812 17.03125 15.753906 C 17.082031 15.777344 17.136719 15.8125 17.257812 15.816406 L 17.179688 15.496094 C 17.144531 15.238281 17.058594 15.050781 17.304688 14.660156 C 17.441406 14.753906 17.503906 14.796875 17.5625 14.867188 C 17.5625 14.867188 17.613281 15.109375 17.671875 15.242188 C 17.683594 15.265625 17.925781 15.472656 17.933594 15.5 L 17.515625 15.378906 C 17.515625 15.378906 17.65625 15.695312 17.929688 15.875 C 18.09375 15.933594 18.238281 16 18.285156 16.0625 C 18.335938 16.128906 18.417969 16.304688 18.378906 16.402344 C 18.347656 16.476562 18.125 16.148438 17.660156 16.542969 C 17.976562 16.546875 18.359375 16.632812 18.441406 16.730469 C 18.546875 16.855469 18.625 16.972656 18.699219 17.015625 C 19.039062 17.21875 19.0625 17.328125 19.035156 17.722656 C 19.246094 17.5625 19.1875 17.140625 19.15625 17.039062 C 19.433594 17.371094 19.371094 17.824219 19.285156 18 C 19.496094 17.886719 19.746094 17.425781 19.507812 17.0625 C 19.445312 17.003906 19.09375 16.742188 19.023438 16.664062 C 18.847656 16.460938 18.804688 16.234375 18.71875 16.003906 C 18.777344 16.007812 18.855469 16.03125 18.917969 16.03125 C 18.886719 15.894531 18.839844 15.71875 18.808594 15.523438 C 18.804688 15.503906 18.800781 15.484375 18.796875 15.46875 C 18.796875 15.460938 18.796875 15.453125 18.796875 15.445312 C 18.789062 15.417969 18.785156 15.386719 18.78125 15.359375 C 18.78125 15.351562 18.78125 15.34375 18.78125 15.335938 C 18.777344 15.304688 18.773438 15.277344 18.769531 15.246094 C 18.882812 15.320312 18.964844 15.347656 18.964844 15.347656 L 18.765625 14.820312 L 18.765625 14.816406 C 18.769531 14.777344 18.777344 14.738281 18.78125 14.699219 C 18.78125 14.695312 18.785156 14.691406 18.785156 14.691406 C 18.789062 14.652344 18.796875 14.617188 18.804688 14.582031 C 18.808594 14.574219 18.808594 14.570312 18.808594 14.5625 C 18.816406 14.53125 18.828125 14.496094 18.839844 14.464844 C 18.839844 14.457031 18.84375 14.449219 18.847656 14.441406 C 18.859375 14.402344 18.875 14.363281 18.890625 14.324219 C 18.804688 14.515625 19.0625 14.789062 19.0625 14.789062 C 19.097656 14.371094 19.472656 13.976562 19.789062 13.835938 C 19.769531 13.953125 19.832031 14.070312 19.832031 14.070312 C 19.925781 13.871094 20.113281 13.792969 20.25 13.761719 L 20.777344 13.972656 L 20.847656 14.003906 C 20.847656 14.003906 20.894531 14.21875 21.015625 14.3125 C 21.128906 14.40625 21.25 14.476562 21.535156 14.660156 C 21.515625 14.730469 21.449219 14.796875 21.320312 14.84375 C 21.730469 14.996094 22.246094 14.8125 22.171875 14.375 C 22.144531 14.21875 22.078125 13.792969 22.078125 13.792969 L 22.175781 13.476562 L 22.203125 13.382812 L 22.207031 13.371094 L 22.21875 13.328125 C 22.21875 13.125 22.152344 12.910156 22.054688 12.699219 "/>
<path style=" stroke:none;fill-rule:nonzero;fill:rgb(10.588235%,27.058824%,56.078431%);fill-opacity:1;" d="M 24.480469 3.277344 L 24.503906 3.277344 C 23.847656 3.316406 23.195312 3.507812 22.65625 3.851562 C 23.101562 2.984375 24.085938 2.394531 24.957031 2.050781 C 24.957031 2.050781 25.066406 1.882812 24.011719 2.039062 C 23.875 2.054688 23.738281 2.078125 23.605469 2.105469 C 23.605469 2.105469 23.601562 2.109375 23.601562 2.109375 C 23.023438 2.234375 22.472656 2.492188 22.007812 2.859375 C 21.746094 3.066406 21.511719 3.308594 21.3125 3.578125 C 20.425781 4.761719 20.125 5.792969 20.125 5.792969 C 20.125 5.792969 19.996094 4.269531 21.945312 2.257812 C 22.160156 1.898438 22.398438 1.558594 22.664062 1.246094 C 22.664062 1.246094 22.710938 1.019531 21.609375 1.855469 C 20.808594 2.410156 20.113281 3.144531 19.613281 3.960938 C 19.429688 4.285156 19.046875 5.011719 18.933594 5.488281 C 18.933594 5.503906 18.933594 5.519531 18.9375 5.53125 C 18.9375 5.53125 18.949219 5.820312 19 6.203125 C 19.066406 6.664062 19.253906 7.304688 19.253906 7.304688 C 19.125 7.039062 18.894531 6.457031 18.820312 6.191406 C 18.78125 6.0625 18.75 5.9375 18.726562 5.820312 C 18.710938 5.746094 18.699219 5.675781 18.6875 5.605469 C 18.679688 5.566406 18.671875 5.527344 18.667969 5.488281 C 18.65625 5.425781 18.648438 5.363281 18.640625 5.300781 C 18.617188 5.078125 18.609375 4.867188 18.605469 4.65625 C 18.601562 4.375 18.613281 4.121094 18.625 3.9375 C 18.117188 5.097656 18.070312 5.992188 18.070312 6.351562 C 18.046875 6.578125 18.03125 6.75 18.023438 6.890625 C 18.152344 7.265625 18.386719 7.761719 18.804688 8.394531 C 18.804688 8.394531 18.429688 8.183594 17.988281 7.410156 C 17.96875 7.582031 17.9375 7.777344 17.871094 8.078125 C 18.371094 8.929688 18.871094 9.582031 19.328125 10.082031 L 19.328125 9.070312 C 19.488281 9.234375 19.601562 9.359375 19.679688 9.457031 C 19.75 9.128906 19.851562 8.730469 19.992188 8.3125 C 20.875 5.683594 21.921875 4.882812 21.921875 4.882812 C 20.960938 6.386719 20.078125 9.429688 20.113281 10.851562 C 20.300781 11.011719 20.464844 11.136719 20.605469 11.234375 C 20.53125 11.121094 20.46875 10.996094 20.453125 10.894531 C 20.878906 8.867188 22.21875 7.542969 22.21875 7.542969 C 22.507812 4.632812 25.800781 3.402344 25.800781 3.402344 C 26.066406 3.207031 24.480469 3.277344 24.480469 3.277344 "/>
<path style=" stroke:none;fill-rule:nonzero;fill:rgb(82.745098%,82.352941%,82.352941%);fill-opacity:1;" d="M 24.972656 20.027344 L 24.972656 18.382812 C 24.800781 18.515625 24.640625 18.632812 24.488281 18.738281 L 24.488281 19.222656 L 24.238281 19.222656 L 24.238281 18.910156 C 23.167969 19.617188 22.640625 19.691406 22.640625 19.691406 C 23.359375 19.320312 23.875 18.960938 24.238281 18.652344 L 24.238281 18.027344 C 22.925781 19.15625 21.746094 19.734375 21.308594 19.929688 C 21.308594 19.960938 21.308594 20.058594 21.308594 20.191406 L 23.5625 20.191406 C 24.011719 20.117188 24.492188 20.082031 24.972656 20.101562 "/>
<path style=" stroke:none;fill-rule:nonzero;fill:rgb(65.490196%,64.705882%,65.098039%);fill-opacity:1;" d="M 22.941406 20.324219 C 22.589844 20.414062 22.269531 20.527344 22 20.648438 L 22 20.324219 Z M 22.941406 20.324219 "/>
<path style=" stroke:none;fill-rule:nonzero;fill:rgb(65.490196%,64.705882%,65.098039%);fill-opacity:1;" d="M 20.109375 21.703125 C 20.023438 21.742188 19.867188 21.808594 19.800781 21.839844 L 19.800781 20.820312 L 20.109375 20.820312 Z M 20.109375 21.703125 "/>
<path style=" stroke:none;fill-rule:nonzero;fill:rgb(65.490196%,64.705882%,65.098039%);fill-opacity:1;" d="M 20.109375 20.695312 L 19.800781 20.695312 L 19.800781 19.917969 L 20.109375 19.917969 Z M 20.109375 20.695312 "/>
<path style=" stroke:none;fill-rule:nonzero;fill:rgb(65.490196%,64.705882%,65.098039%);fill-opacity:1;" d="M 21.183594 21.0625 L 21.183594 20.820312 L 20.90625 20.820312 L 20.90625 21.285156 C 21 21.234375 21.089844 21.175781 21.183594 21.121094 Z M 21.183594 21.0625 "/>
<path style=" stroke:none;fill-rule:nonzero;fill:rgb(65.490196%,64.705882%,65.098039%);fill-opacity:1;" d="M 21.183594 20.695312 L 20.90625 20.695312 L 20.90625 19.917969 L 21.183594 19.917969 Z M 21.183594 20.695312 "/>
<path style=" stroke:none;fill-rule:nonzero;fill:rgb(65.490196%,64.705882%,65.098039%);fill-opacity:1;" d="M 20.445312 21.335938 L 20.445312 20.820312 L 20.234375 20.820312 L 20.234375 21.644531 C 20.304688 21.613281 20.375 21.574219 20.445312 21.539062 Z M 20.445312 21.335938 "/>
<path style=" stroke:none;fill-rule:nonzero;fill:rgb(65.490196%,64.705882%,65.098039%);fill-opacity:1;" d="M 20.445312 20.695312 L 20.234375 20.695312 L 20.234375 19.917969 L 20.445312 19.917969 Z M 20.445312 20.695312 "/>
<path style=" stroke:none;fill-rule:nonzero;fill:rgb(65.490196%,64.705882%,65.098039%);fill-opacity:1;" d="M 20.78125 20.695312 L 20.570312 20.695312 L 20.570312 19.917969 L 20.78125 19.917969 Z M 20.78125 20.695312 "/>
<path style=" stroke:none;fill-rule:nonzero;fill:rgb(65.490196%,64.705882%,65.098039%);fill-opacity:1;" d="M 20.78125 21.28125 L 20.78125 20.820312 L 20.566406 20.820312 L 20.566406 21.472656 C 20.640625 21.4375 20.710938 21.398438 20.78125 21.359375 Z M 20.78125 21.28125 "/>
<path style=" stroke:none;fill-rule:nonzero;fill:rgb(65.490196%,64.705882%,65.098039%);fill-opacity:1;" d="M 21.183594 19.261719 L 19.800781 19.261719 L 19.800781 19.796875 L 21.183594 19.796875 Z M 21.183594 19.261719 "/>
<path style=" stroke:none;fill-rule:nonzero;fill:rgb(65.490196%,64.705882%,65.098039%);fill-opacity:1;" d="M 14.292969 21.144531 C 14.191406 21.097656 14.089844 21.046875 13.988281 20.996094 L 13.988281 20.816406 L 14.292969 20.816406 Z M 14.292969 21.144531 "/>
<path style=" stroke:none;fill-rule:nonzero;fill:rgb(65.490196%,64.705882%,65.098039%);fill-opacity:1;" d="M 14.296875 20.695312 L 13.988281 20.695312 L 13.988281 19.917969 L 14.296875 19.917969 Z M 14.296875 20.695312 "/>
<path style=" stroke:none;fill-rule:nonzero;fill:rgb(65.490196%,64.705882%,65.098039%);fill-opacity:1;" d="M 15.085938 21.53125 C 15.179688 21.574219 15.273438 21.617188 15.367188 21.660156 L 15.371094 21.058594 L 15.371094 20.820312 L 15.085938 20.820312 Z M 15.085938 21.53125 "/>
<path style=" stroke:none;fill-rule:nonzero;fill:rgb(65.490196%,64.705882%,65.098039%);fill-opacity:1;" d="M 15.371094 20.695312 L 15.09375 20.695312 L 15.09375 19.917969 L 15.371094 19.917969 Z M 15.371094 20.695312 "/>
<path style=" stroke:none;fill-rule:nonzero;fill:rgb(65.490196%,64.705882%,65.098039%);fill-opacity:1;" d="M 14.628906 20.695312 L 14.414062 20.695312 L 14.414062 19.917969 L 14.628906 19.917969 Z M 14.628906 20.695312 "/>
<path style=" stroke:none;fill-rule:nonzero;fill:rgb(65.490196%,64.705882%,65.098039%);fill-opacity:1;" d="M 14.964844 20.695312 L 14.753906 20.695312 L 14.753906 19.917969 L 14.964844 19.917969 Z M 14.964844 20.695312 "/>
<path style=" stroke:none;fill-rule:nonzero;fill:rgb(65.490196%,64.705882%,65.098039%);fill-opacity:1;" d="M 15.371094 19.261719 L 13.988281 19.261719 L 13.988281 19.796875 L 15.371094 19.796875 Z M 15.371094 19.261719 "/>
<path style=" stroke:none;fill-rule:nonzero;fill:rgb(65.490196%,64.705882%,65.098039%);fill-opacity:1;" d="M 14.753906 21.371094 C 14.816406 21.402344 14.898438 21.445312 14.964844 21.476562 L 14.964844 20.820312 L 14.75 20.820312 L 14.75 21.320312 Z M 14.753906 21.371094 "/>
<path style=" stroke:none;fill-rule:nonzero;fill:rgb(65.490196%,64.705882%,65.098039%);fill-opacity:1;" d="M 13.652344 20.839844 C 13.722656 20.871094 13.796875 20.90625 13.867188 20.9375 L 13.867188 20.324219 L 13.652344 20.324219 Z M 13.652344 20.839844 "/>
<path style=" stroke:none;fill-rule:nonzero;fill:rgb(65.490196%,64.705882%,65.098039%);fill-opacity:1;" d="M 14.414062 21.207031 L 14.453125 21.222656 C 14.511719 21.25 14.570312 21.28125 14.628906 21.308594 L 14.628906 20.820312 L 14.414062 20.820312 Z M 14.414062 21.207031 "/>
<path style=" stroke:none;fill-rule:nonzero;fill:rgb(82.745098%,82.352941%,82.352941%);fill-opacity:1;" d="M 10.257812 19.445312 L 10.257812 18.382812 C 10.429688 18.515625 10.59375 18.632812 10.746094 18.738281 L 10.746094 19.222656 L 10.996094 19.222656 L 10.996094 18.910156 C 12.0625 19.617188 12.59375 19.691406 12.59375 19.691406 C 11.871094 19.320312 11.355469 18.960938 10.996094 18.652344 L 10.996094 18.027344 C 12.253906 19.105469 13.386719 19.6875 13.867188 19.902344 L 13.867188 20.191406 C 13.867188 20.191406 11.949219 20.203125 11.902344 20.191406 C 11.34375 20.070312 10.78125 20.0625 10.257812 20.117188 "/>
<path style=" stroke:none;fill-rule:nonzero;fill:rgb(65.490196%,64.705882%,65.098039%);fill-opacity:1;" d="M 13.191406 20.640625 C 12.925781 20.53125 12.566406 20.382812 12.363281 20.316406 L 13.191406 20.316406 Z M 13.191406 20.640625 "/>
<path style=" stroke:none;fill-rule:nonzero;fill:rgb(65.490196%,64.705882%,65.098039%);fill-opacity:1;" d="M 13.316406 20.621094 L 13.316406 20.324219 L 13.53125 20.324219 L 13.53125 20.621094 L 13.527344 20.78125 C 13.507812 20.773438 13.425781 20.738281 13.316406 20.691406 Z M 13.316406 20.621094 "/>
<path style=" stroke:none;fill-rule:nonzero;fill:rgb(65.490196%,64.705882%,65.098039%);fill-opacity:1;" d="M 21.542969 20.820312 L 21.542969 20.324219 L 21.308594 20.324219 L 21.308594 21.046875 C 21.382812 21 21.460938 20.949219 21.539062 20.898438 Z M 21.542969 20.820312 "/>
<path style=" stroke:none;fill-rule:nonzero;fill:rgb(65.490196%,64.705882%,65.098039%);fill-opacity:1;" d="M 21.878906 20.648438 L 21.878906 20.324219 L 21.664062 20.324219 L 21.664062 20.648438 L 21.667969 20.820312 C 21.730469 20.785156 21.800781 20.746094 21.878906 20.707031 Z M 21.878906 20.648438 "/>
<path style=" stroke:none;fill-rule:nonzero;fill:rgb(65.490196%,64.705882%,65.098039%);fill-opacity:1;" d="M 19.679688 19.796875 L 19.679688 19.417969 C 19.679688 18.261719 18.742188 17.324219 17.585938 17.324219 C 16.429688 17.324219 15.492188 18.261719 15.492188 19.417969 L 15.492188 19.796875 L 15.851562 19.796875 C 15.828125 19.683594 15.816406 19.566406 15.816406 19.449219 C 15.816406 18.476562 16.601562 17.6875 17.574219 17.6875 C 18.546875 17.6875 19.332031 18.476562 19.332031 19.449219 C 19.332031 19.566406 19.320312 19.683594 19.296875 19.796875 Z M 19.679688 19.796875 "/>
<path style=" stroke:none;fill-rule:nonzero;fill:rgb(82.745098%,82.352941%,82.352941%);fill-opacity:1;" d="M 10.746094 18.273438 L 10.746094 17.800781 L 10.257812 17.308594 L 10.257812 17.863281 C 10.324219 17.964844 10.472656 18.167969 10.746094 18.429688 Z M 10.746094 18.273438 "/>
<path style=" stroke:none;fill-rule:nonzero;fill:rgb(82.745098%,82.352941%,82.352941%);fill-opacity:1;" d="M 24.972656 17.863281 C 24.90625 17.964844 24.761719 18.167969 24.488281 18.429688 L 24.488281 17.800781 L 24.972656 17.308594 Z M 24.972656 17.863281 "/>
<path style=" stroke:none;fill-rule:nonzero;fill:rgb(65.490196%,64.705882%,65.098039%);fill-opacity:1;" d="M 17.234375 21.460938 C 17.179688 21.460938 17.140625 21.496094 17.140625 21.558594 C 17.140625 21.621094 17.171875 21.65625 17.234375 21.65625 C 17.273438 21.65625 17.308594 21.644531 17.34375 21.617188 L 17.34375 21.613281 C 17.34375 21.515625 17.300781 21.460938 17.234375 21.460938 "/>
<path style=" stroke:none;fill-rule:nonzero;fill:rgb(65.490196%,64.705882%,65.098039%);fill-opacity:1;" d="M 17.765625 21.460938 C 17.691406 21.460938 17.652344 21.53125 17.652344 21.660156 C 17.652344 21.789062 17.691406 21.859375 17.765625 21.859375 C 17.835938 21.859375 17.875 21.789062 17.875 21.660156 C 17.875 21.53125 17.835938 21.460938 17.765625 21.460938 "/>
<path style=" stroke:none;fill-rule:nonzero;fill:rgb(65.490196%,64.705882%,65.098039%);fill-opacity:1;" d="M 18.25 21.941406 C 18.183594 21.941406 18.128906 21.925781 18.085938 21.902344 L 18.101562 21.8125 C 18.144531 21.835938 18.191406 21.855469 18.25 21.855469 C 18.3125 21.855469 18.359375 21.824219 18.359375 21.761719 C 18.359375 21.707031 18.324219 21.671875 18.261719 21.671875 C 18.226562 21.671875 18.199219 21.679688 18.175781 21.691406 L 18.109375 21.675781 L 18.128906 21.390625 L 18.429688 21.390625 L 18.441406 21.476562 L 18.207031 21.476562 L 18.199219 21.601562 C 18.21875 21.597656 18.242188 21.589844 18.28125 21.589844 C 18.386719 21.589844 18.457031 21.652344 18.457031 21.753906 C 18.457031 21.875 18.371094 21.941406 18.25 21.941406 M 17.765625 21.941406 C 17.636719 21.941406 17.546875 21.839844 17.546875 21.660156 C 17.546875 21.480469 17.636719 21.378906 17.765625 21.378906 C 17.894531 21.378906 17.980469 21.480469 17.980469 21.660156 C 17.980469 21.839844 17.894531 21.941406 17.765625 21.941406 M 17.128906 21.941406 L 17.113281 21.855469 C 17.222656 21.835938 17.308594 21.785156 17.335938 21.695312 C 17.296875 21.71875 17.253906 21.734375 17.207031 21.734375 C 17.109375 21.734375 17.042969 21.675781 17.042969 21.566406 C 17.042969 21.453125 17.125 21.378906 17.234375 21.378906 C 17.355469 21.378906 17.4375 21.457031 17.4375 21.609375 C 17.4375 21.796875 17.308594 21.90625 17.128906 21.941406 M 16.914062 21.929688 L 16.8125 21.929688 L 16.8125 21.488281 L 16.699219 21.53125 L 16.6875 21.449219 L 16.824219 21.390625 L 16.914062 21.390625 Z M 19.269531 19.921875 C 19.0625 20.664062 18.382812 21.207031 17.574219 21.207031 C 16.765625 21.207031 16.085938 20.664062 15.878906 19.921875 L 15.492188 19.917969 L 15.492188 21.714844 C 16.21875 22.03125 16.945312 22.261719 17.738281 22.261719 L 17.753906 22.261719 C 18.441406 22.257812 19.0625 22.125 19.675781 21.886719 L 19.679688 19.917969 Z M 19.269531 19.921875 "/>
<path style=" stroke:none;fill-rule:nonzero;fill:rgb(65.490196%,64.705882%,65.098039%);fill-opacity:1;" d="M 9.78125 17.082031 C 9.855469 17.09375 9.925781 17.113281 9.992188 17.132812 L 9.992188 18.070312 C 9.925781 18.050781 9.855469 18.035156 9.78125 18.019531 Z M 9.78125 17.082031 "/>
<path style=" stroke:none;fill-rule:nonzero;fill:rgb(65.490196%,64.705882%,65.098039%);fill-opacity:1;" d="M 9.660156 18 C 9.59375 17.992188 9.523438 17.988281 9.449219 17.984375 L 9.449219 17.046875 C 9.484375 17.046875 9.519531 17.046875 9.554688 17.050781 C 9.589844 17.054688 9.625 17.058594 9.660156 17.0625 Z M 9.660156 18 "/>
<path style=" stroke:none;fill-rule:nonzero;fill:rgb(65.490196%,64.705882%,65.098039%);fill-opacity:1;" d="M 9.117188 18 C 9.1875 17.992188 9.257812 17.988281 9.328125 17.984375 L 9.328125 17.046875 C 9.257812 17.046875 9.1875 17.054688 9.117188 17.0625 Z M 9.117188 18 "/>
<path style=" stroke:none;fill-rule:nonzero;fill:rgb(65.490196%,64.705882%,65.098039%);fill-opacity:1;" d="M 8.789062 18.074219 C 8.855469 18.050781 8.921875 18.035156 8.996094 18.019531 L 8.996094 17.082031 C 8.921875 17.09375 8.855469 17.113281 8.789062 17.132812 Z M 8.789062 18.074219 "/>
<path style=" stroke:none;fill-rule:nonzero;fill:rgb(65.490196%,64.705882%,65.098039%);fill-opacity:1;" d="M 8.597656 16.316406 C 8.644531 16.296875 8.691406 16.277344 8.742188 16.261719 L 8.742188 16.375 Z M 8.597656 16.316406 "/>
<path style=" stroke:none;fill-rule:nonzero;fill:rgb(65.490196%,64.705882%,65.098039%);fill-opacity:1;" d="M 9.328125 16.648438 C 9.257812 16.648438 9.1875 16.652344 9.117188 16.664062 L 9.117188 16.171875 C 9.1875 16.164062 9.257812 16.160156 9.328125 16.15625 Z M 9.328125 16.648438 "/>
<path style=" stroke:none;fill-rule:nonzero;fill:rgb(65.490196%,64.705882%,65.098039%);fill-opacity:1;" d="M 9.660156 16.171875 C 9.59375 16.164062 9.523438 16.160156 9.449219 16.15625 L 9.449219 16.648438 C 9.523438 16.648438 9.59375 16.652344 9.660156 16.664062 Z M 9.660156 16.171875 "/>
<path style=" stroke:none;fill-rule:nonzero;fill:rgb(65.490196%,64.705882%,65.098039%);fill-opacity:1;" d="M 9.78125 16.191406 C 9.855469 16.207031 9.925781 16.222656 9.992188 16.246094 L 9.992188 16.734375 C 9.925781 16.710938 9.855469 16.695312 9.78125 16.683594 Z M 9.78125 16.191406 "/>
<path style=" stroke:none;fill-rule:nonzero;fill:rgb(65.490196%,64.705882%,65.098039%);fill-opacity:1;" d="M 8.996094 16.683594 C 8.925781 16.695312 8.855469 16.714844 8.789062 16.734375 L 8.789062 16.246094 C 8.855469 16.222656 8.925781 16.207031 8.996094 16.191406 Z M 8.996094 16.683594 "/>
<path style=" stroke:none;fill-rule:nonzero;fill:rgb(65.490196%,64.705882%,65.098039%);fill-opacity:1;" d="M 10.039062 16.261719 C 10.089844 16.277344 10.136719 16.296875 10.183594 16.316406 L 10.039062 16.375 Z M 10.039062 16.261719 "/>
<path style=" stroke:none;fill-rule:nonzero;fill:rgb(65.490196%,64.705882%,65.098039%);fill-opacity:1;" d="M 8.597656 17.207031 C 8.644531 17.183594 8.691406 17.164062 8.742188 17.148438 L 8.742188 17.261719 Z M 8.597656 17.207031 "/>
<path style=" stroke:none;fill-rule:nonzero;fill:rgb(65.490196%,64.705882%,65.098039%);fill-opacity:1;" d="M 10.039062 17.148438 C 10.089844 17.164062 10.136719 17.183594 10.183594 17.207031 L 10.039062 17.261719 Z M 10.039062 17.148438 "/>
<path style=" stroke:none;fill-rule:nonzero;fill:rgb(65.490196%,64.705882%,65.098039%);fill-opacity:1;" d="M 10.183594 16 C 9.964844 15.898438 9.6875 15.839844 9.390625 15.839844 C 9.089844 15.839844 8.816406 15.898438 8.597656 16 L 8.597656 16.203125 C 8.816406 16.101562 9.089844 16.042969 9.390625 16.042969 C 9.6875 16.042969 9.964844 16.105469 10.183594 16.203125 Z M 10.183594 16 "/>
<path style=" stroke:none;fill-rule:nonzero;fill:rgb(65.490196%,64.705882%,65.098039%);fill-opacity:1;" d="M 10.183594 16.894531 C 9.964844 16.796875 9.6875 16.734375 9.390625 16.734375 C 9.089844 16.734375 8.816406 16.792969 8.597656 16.894531 L 8.597656 17.097656 C 8.816406 17 9.089844 16.9375 9.390625 16.9375 C 9.6875 16.9375 9.964844 17 10.183594 17.097656 Z M 10.183594 16.894531 "/>
<path style=" stroke:none;fill-rule:nonzero;fill:rgb(65.490196%,64.705882%,65.098039%);fill-opacity:1;" d="M 10.183594 15.910156 C 9.964844 15.808594 9.6875 15.75 9.390625 15.75 C 9.089844 15.75 8.816406 15.808594 8.597656 15.910156 L 9.226562 15.308594 C 9.28125 15.304688 9.335938 15.304688 9.390625 15.304688 C 9.445312 15.304688 9.5 15.304688 9.550781 15.308594 Z M 10.183594 15.910156 "/>
<path style=" stroke:none;fill-rule:nonzero;fill:rgb(65.490196%,64.705882%,65.098039%);fill-opacity:1;" d="M 9.226562 15.144531 L 9.226562 15.242188 C 9.28125 15.238281 9.335938 15.234375 9.390625 15.234375 C 9.445312 15.234375 9.5 15.238281 9.550781 15.242188 L 9.550781 15.144531 C 9.550781 15.105469 9.472656 15.105469 9.449219 15.101562 C 9.429688 15.101562 9.410156 15.101562 9.390625 15.101562 C 9.367188 15.101562 9.347656 15.101562 9.328125 15.101562 C 9.304688 15.105469 9.226562 15.101562 9.226562 15.144531 "/>
<path style=" stroke:none;fill-rule:nonzero;fill:rgb(65.490196%,64.705882%,65.098039%);fill-opacity:1;" d="M 9.992188 19.089844 C 9.925781 19.070312 9.855469 19.054688 9.78125 19.039062 L 9.78125 18.125 C 9.855469 18.140625 9.925781 18.15625 9.992188 18.175781 Z M 9.992188 19.089844 "/>
<path style=" stroke:none;fill-rule:nonzero;fill:rgb(65.490196%,64.705882%,65.098039%);fill-opacity:1;" d="M 9.660156 19.019531 C 9.59375 19.011719 9.523438 19.007812 9.449219 19.003906 L 9.449219 18.089844 C 9.523438 18.09375 9.59375 18.097656 9.660156 18.105469 Z M 9.660156 19.019531 "/>
<path style=" stroke:none;fill-rule:nonzero;fill:rgb(65.490196%,64.705882%,65.098039%);fill-opacity:1;" d="M 9.328125 19.003906 C 9.257812 19.007812 9.1875 19.011719 9.117188 19.019531 L 9.117188 18.105469 C 9.1875 18.097656 9.257812 18.09375 9.328125 18.089844 Z M 9.328125 19.003906 "/>
<path style=" stroke:none;fill-rule:nonzero;fill:rgb(65.490196%,64.705882%,65.098039%);fill-opacity:1;" d="M 8.996094 19.039062 C 8.925781 19.054688 8.855469 19.070312 8.789062 19.089844 L 8.789062 18.175781 C 8.855469 18.15625 8.925781 18.140625 8.996094 18.125 Z M 8.996094 19.039062 "/>
<path style=" stroke:none;fill-rule:nonzero;fill:rgb(65.490196%,64.705882%,65.098039%);fill-opacity:1;" d="M 26.238281 17.082031 C 26.308594 17.09375 26.378906 17.113281 26.445312 17.132812 L 26.445312 18.070312 C 26.378906 18.050781 26.308594 18.035156 26.238281 18.019531 Z M 26.238281 17.082031 "/>
<path style=" stroke:none;fill-rule:nonzero;fill:rgb(65.490196%,64.705882%,65.098039%);fill-opacity:1;" d="M 26.113281 18 C 26.046875 17.992188 25.976562 17.988281 25.90625 17.984375 L 25.90625 17.046875 C 25.941406 17.046875 25.972656 17.046875 26.007812 17.050781 C 26.042969 17.054688 26.078125 17.058594 26.113281 17.0625 Z M 26.113281 18 "/>
<path style=" stroke:none;fill-rule:nonzero;fill:rgb(65.490196%,64.705882%,65.098039%);fill-opacity:1;" d="M 25.574219 18 C 25.640625 17.992188 25.710938 17.988281 25.785156 17.984375 L 25.785156 17.046875 C 25.710938 17.046875 25.640625 17.054688 25.574219 17.0625 Z M 25.574219 18 "/>
<path style=" stroke:none;fill-rule:nonzero;fill:rgb(65.490196%,64.705882%,65.098039%);fill-opacity:1;" d="M 25.242188 18.074219 C 25.308594 18.050781 25.378906 18.035156 25.453125 18.019531 L 25.453125 17.082031 C 25.378906 17.09375 25.308594 17.113281 25.242188 17.132812 Z M 25.242188 18.074219 "/>
<path style=" stroke:none;fill-rule:nonzero;fill:rgb(65.490196%,64.705882%,65.098039%);fill-opacity:1;" d="M 25.054688 16.316406 C 25.097656 16.296875 25.144531 16.277344 25.195312 16.261719 L 25.195312 16.375 Z M 25.054688 16.316406 "/>
<path style=" stroke:none;fill-rule:nonzero;fill:rgb(65.490196%,64.705882%,65.098039%);fill-opacity:1;" d="M 25.785156 16.648438 C 25.710938 16.648438 25.640625 16.652344 25.574219 16.664062 L 25.574219 16.171875 C 25.640625 16.164062 25.710938 16.160156 25.785156 16.15625 Z M 25.785156 16.648438 "/>
<path style=" stroke:none;fill-rule:nonzero;fill:rgb(65.490196%,64.705882%,65.098039%);fill-opacity:1;" d="M 26.113281 16.171875 C 26.046875 16.164062 25.976562 16.160156 25.90625 16.15625 L 25.90625 16.648438 C 25.976562 16.648438 26.046875 16.652344 26.113281 16.664062 Z M 26.113281 16.171875 "/>
<path style=" stroke:none;fill-rule:nonzero;fill:rgb(65.490196%,64.705882%,65.098039%);fill-opacity:1;" d="M 26.238281 16.191406 C 26.308594 16.207031 26.378906 16.222656 26.445312 16.246094 L 26.445312 16.734375 C 26.378906 16.710938 26.308594 16.695312 26.238281 16.683594 Z M 26.238281 16.191406 "/>
<path style=" stroke:none;fill-rule:nonzero;fill:rgb(65.490196%,64.705882%,65.098039%);fill-opacity:1;" d="M 25.453125 16.683594 C 25.378906 16.695312 25.308594 16.714844 25.242188 16.734375 L 25.242188 16.246094 C 25.308594 16.222656 25.378906 16.207031 25.453125 16.191406 Z M 25.453125 16.683594 "/>
<path style=" stroke:none;fill-rule:nonzero;fill:rgb(65.490196%,64.705882%,65.098039%);fill-opacity:1;" d="M 26.492188 16.261719 C 26.542969 16.277344 26.59375 16.296875 26.636719 16.316406 L 26.492188 16.375 Z M 26.492188 16.261719 "/>
<path style=" stroke:none;fill-rule:nonzero;fill:rgb(65.490196%,64.705882%,65.098039%);fill-opacity:1;" d="M 25.054688 17.207031 C 25.097656 17.183594 25.144531 17.164062 25.195312 17.148438 L 25.195312 17.261719 Z M 25.054688 17.207031 "/>
<path style=" stroke:none;fill-rule:nonzero;fill:rgb(65.490196%,64.705882%,65.098039%);fill-opacity:1;" d="M 26.492188 17.148438 C 26.542969 17.164062 26.59375 17.183594 26.636719 17.207031 L 26.492188 17.261719 Z M 26.492188 17.148438 "/>
<path style=" stroke:none;fill-rule:nonzero;fill:rgb(65.490196%,64.705882%,65.098039%);fill-opacity:1;" d="M 26.636719 16 C 26.421875 15.898438 26.144531 15.839844 25.84375 15.839844 C 25.546875 15.839844 25.269531 15.898438 25.050781 16 L 25.050781 16.203125 C 25.269531 16.101562 25.546875 16.042969 25.84375 16.042969 C 26.144531 16.042969 26.421875 16.105469 26.636719 16.203125 Z M 26.636719 16 "/>
<path style=" stroke:none;fill-rule:nonzero;fill:rgb(65.490196%,64.705882%,65.098039%);fill-opacity:1;" d="M 26.636719 16.894531 C 26.421875 16.796875 26.144531 16.734375 25.84375 16.734375 C 25.546875 16.734375 25.269531 16.792969 25.050781 16.894531 L 25.050781 17.097656 C 25.269531 17 25.546875 16.9375 25.84375 16.9375 C 26.144531 16.9375 26.421875 17 26.636719 17.097656 Z M 26.636719 16.894531 "/>
<path style=" stroke:none;fill-rule:nonzero;fill:rgb(65.490196%,64.705882%,65.098039%);fill-opacity:1;" d="M 26.636719 15.910156 C 26.421875 15.808594 26.144531 15.75 25.84375 15.75 C 25.546875 15.75 25.269531 15.808594 25.050781 15.910156 L 25.679688 15.308594 C 25.734375 15.304688 25.789062 15.304688 25.84375 15.304688 C 25.898438 15.304688 25.953125 15.304688 26.007812 15.308594 Z M 26.636719 15.910156 "/>
<path style=" stroke:none;fill-rule:nonzero;fill:rgb(65.490196%,64.705882%,65.098039%);fill-opacity:1;" d="M 25.679688 15.144531 L 25.679688 15.242188 C 25.734375 15.238281 25.789062 15.234375 25.84375 15.234375 C 25.898438 15.234375 25.953125 15.238281 26.007812 15.242188 L 26.007812 15.144531 C 26.007812 15.105469 25.925781 15.105469 25.90625 15.101562 C 25.886719 15.101562 25.863281 15.101562 25.84375 15.101562 C 25.824219 15.101562 25.804688 15.101562 25.785156 15.101562 C 25.761719 15.105469 25.679688 15.101562 25.679688 15.144531 "/>
<path style=" stroke:none;fill-rule:nonzero;fill:rgb(65.490196%,64.705882%,65.098039%);fill-opacity:1;" d="M 26.445312 19.089844 C 26.378906 19.070312 26.308594 19.054688 26.238281 19.039062 L 26.238281 18.125 C 26.308594 18.140625 26.378906 18.15625 26.445312 18.175781 Z M 26.445312 19.089844 "/>
<path style=" stroke:none;fill-rule:nonzero;fill:rgb(65.490196%,64.705882%,65.098039%);fill-opacity:1;" d="M 26.113281 19.019531 C 26.046875 19.011719 25.976562 19.007812 25.90625 19.003906 L 25.90625 18.089844 C 25.976562 18.09375 26.046875 18.097656 26.113281 18.105469 Z M 26.113281 19.019531 "/>
<path style=" stroke:none;fill-rule:nonzero;fill:rgb(65.490196%,64.705882%,65.098039%);fill-opacity:1;" d="M 25.785156 19.003906 C 25.710938 19.007812 25.640625 19.011719 25.574219 19.019531 L 25.574219 18.105469 C 25.640625 18.097656 25.710938 18.09375 25.785156 18.089844 Z M 25.785156 19.003906 "/>
<path style=" stroke:none;fill-rule:nonzero;fill:rgb(65.490196%,64.705882%,65.098039%);fill-opacity:1;" d="M 25.453125 19.039062 C 25.378906 19.054688 25.308594 19.070312 25.242188 19.089844 L 25.242188 18.175781 C 25.308594 18.15625 25.378906 18.140625 25.453125 18.125 Z M 25.453125 19.039062 "/>
<path style=" stroke:none;fill-rule:nonzero;fill:rgb(65.490196%,64.705882%,65.098039%);fill-opacity:1;" d="M 8.996094 20.347656 C 8.921875 20.367188 8.855469 20.386719 8.789062 20.40625 C 8.789062 20.285156 8.789062 19.949219 8.789062 19.949219 L 8.789062 19.203125 C 8.789062 19.203125 8.925781 19.164062 8.996094 19.152344 Z M 9.332031 20.261719 C 9.257812 20.277344 9.1875 20.296875 9.117188 20.3125 C 9.117188 20.261719 9.117188 19.835938 9.117188 19.835938 L 9.117188 19.132812 C 9.117188 19.132812 9.257812 19.117188 9.328125 19.117188 L 9.332031 19.835938 Z M 9.660156 19.132812 C 9.59375 19.125 9.449219 19.117188 9.449219 19.117188 L 9.449219 19.835938 C 9.449219 19.835938 9.449219 20.175781 9.449219 20.234375 C 9.519531 20.21875 9.589844 20.203125 9.660156 20.191406 Z M 9.992188 19.808594 L 9.992188 19.203125 C 9.925781 19.183594 9.78125 19.152344 9.78125 19.152344 L 9.78125 20.167969 C 9.78125 20.167969 9.917969 20.144531 9.988281 20.136719 Z M 25.453125 19.933594 L 25.453125 19.152344 C 25.378906 19.164062 25.242188 19.203125 25.242188 19.203125 L 25.242188 20.015625 C 25.242188 20.015625 25.246094 20.03125 25.246094 20.125 C 25.3125 20.128906 25.382812 20.136719 25.453125 20.144531 M 25.785156 19.890625 L 25.785156 19.117188 C 25.710938 19.117188 25.574219 19.132812 25.574219 19.132812 L 25.574219 19.890625 C 25.574219 19.890625 25.570312 20.089844 25.570312 20.160156 C 25.644531 20.171875 25.714844 20.183594 25.785156 20.199219 M 26.117188 20.273438 C 26.046875 20.253906 25.976562 20.238281 25.90625 20.222656 C 25.90625 20.167969 25.90625 19.890625 25.90625 19.890625 L 25.90625 19.117188 C 25.90625 19.117188 26.046875 19.125 26.117188 19.132812 Z M 26.445312 20.375 C 26.375 20.351562 26.304688 20.328125 26.234375 20.308594 C 26.234375 20.25 26.238281 19.855469 26.238281 19.855469 L 26.238281 19.152344 C 26.238281 19.152344 26.378906 19.183594 26.445312 19.203125 Z M 26.445312 20.375 "/>
<path style=" stroke:none;fill-rule:nonzero;fill:rgb(76.862745%,7.058824%,18.039216%);fill-opacity:1;" d="M 16.898438 20.046875 C 17.179688 20.203125 17.453125 20.273438 17.628906 20.308594 C 17.632812 20.308594 17.636719 20.308594 17.640625 20.308594 C 17.652344 20.308594 17.664062 20.304688 17.675781 20.296875 C 17.6875 20.285156 17.695312 20.273438 17.695312 20.253906 C 17.710938 19.953125 17.640625 19.6875 17.613281 19.585938 C 17.609375 19.570312 17.597656 19.558594 17.582031 19.550781 C 17.222656 19.375 16.929688 19.183594 16.714844 18.980469 C 16.558594 18.832031 16.445312 18.679688 16.378906 18.53125 C 16.371094 18.511719 16.351562 18.5 16.332031 18.496094 C 16.3125 18.496094 16.292969 18.503906 16.28125 18.519531 C 16.160156 18.691406 16.074219 18.890625 16.027344 19.09375 C 16.027344 19.105469 16.027344 19.117188 16.03125 19.128906 C 16.210938 19.523438 16.503906 19.832031 16.898438 20.046875 "/>
<path style=" stroke:none;fill-rule:nonzero;fill:rgb(76.862745%,7.058824%,18.039216%);fill-opacity:1;" d="M 16.789062 18.894531 C 16.800781 18.902344 16.816406 18.910156 16.828125 18.910156 L 16.832031 18.910156 C 16.851562 18.90625 16.863281 18.898438 16.875 18.886719 C 17.292969 18.316406 17.753906 18.109375 18.066406 18.03125 C 18.09375 18.023438 18.109375 18.003906 18.109375 17.976562 C 18.113281 17.953125 18.097656 17.929688 18.074219 17.921875 C 17.914062 17.871094 17.75 17.84375 17.578125 17.84375 C 17.367188 17.84375 17.15625 17.886719 16.957031 17.972656 C 16.769531 18.054688 16.601562 18.167969 16.457031 18.3125 C 16.441406 18.324219 16.4375 18.34375 16.441406 18.363281 C 16.464844 18.457031 16.539062 18.652344 16.789062 18.894531 "/>
<path style=" stroke:none;fill-rule:nonzero;fill:rgb(76.862745%,7.058824%,18.039216%);fill-opacity:1;" d="M 16.953125 18.96875 C 16.9375 18.992188 16.941406 19.027344 16.964844 19.042969 C 17.140625 19.179688 17.351562 19.308594 17.597656 19.429688 C 17.605469 19.433594 17.613281 19.4375 17.621094 19.4375 C 17.636719 19.4375 17.652344 19.429688 17.664062 19.417969 C 17.808594 19.246094 18.226562 18.839844 18.921875 18.734375 C 18.941406 18.730469 18.957031 18.71875 18.964844 18.703125 C 18.972656 18.6875 18.972656 18.667969 18.960938 18.652344 C 18.839844 18.433594 18.664062 18.246094 18.457031 18.109375 C 18.449219 18.105469 18.441406 18.101562 18.429688 18.101562 C 18.367188 18.097656 18.128906 18.101562 17.828125 18.234375 C 17.5 18.378906 17.203125 18.625 16.953125 18.96875 "/>
<path style=" stroke:none;fill-rule:nonzero;fill:rgb(76.862745%,7.058824%,18.039216%);fill-opacity:1;" d="M 19.066406 18.871094 C 19.058594 18.847656 19.03125 18.832031 19.007812 18.835938 C 18.882812 18.851562 18.761719 18.875 18.644531 18.914062 C 18.632812 18.917969 18.621094 18.925781 18.613281 18.941406 C 18.605469 18.953125 18.605469 18.96875 18.609375 18.984375 C 18.652344 19.109375 18.722656 19.367188 18.734375 19.671875 C 18.742188 19.863281 18.726562 20.046875 18.683594 20.214844 C 18.65625 20.328125 18.621094 20.4375 18.570312 20.535156 C 18.5625 20.558594 18.566406 20.589844 18.589844 20.605469 C 18.597656 20.613281 18.609375 20.617188 18.621094 20.617188 C 18.636719 20.617188 18.648438 20.609375 18.660156 20.601562 C 18.832031 20.441406 18.964844 20.25 19.054688 20.03125 C 19.203125 19.660156 19.207031 19.246094 19.066406 18.871094 "/>
<path style=" stroke:none;fill-rule:nonzero;fill:rgb(76.862745%,7.058824%,18.039216%);fill-opacity:1;" d="M 17.660156 20.445312 C 17.652344 20.433594 17.640625 20.425781 17.625 20.421875 C 17.453125 20.390625 17.183594 20.320312 16.902344 20.175781 C 16.5625 20.003906 16.292969 19.765625 16.09375 19.472656 C 16.082031 19.449219 16.054688 19.441406 16.03125 19.449219 C 16.007812 19.457031 15.992188 19.480469 15.992188 19.503906 C 16 19.695312 16.042969 19.882812 16.117188 20.058594 C 16.226562 20.320312 16.40625 20.546875 16.636719 20.714844 C 16.855469 20.875 17.113281 20.980469 17.382812 21.011719 C 17.386719 21.011719 17.390625 21.011719 17.390625 21.011719 C 17.40625 21.011719 17.421875 21.003906 17.433594 20.992188 C 17.550781 20.855469 17.632812 20.6875 17.671875 20.488281 C 17.671875 20.472656 17.671875 20.457031 17.660156 20.445312 "/>
<path style=" stroke:none;fill-rule:nonzero;fill:rgb(76.862745%,7.058824%,18.039216%);fill-opacity:1;" d="M 18.503906 19.027344 C 18.5 19.011719 18.488281 19 18.476562 18.996094 C 18.460938 18.988281 18.445312 18.988281 18.429688 18.996094 C 18.050781 19.164062 17.816406 19.410156 17.734375 19.507812 C 17.722656 19.523438 17.71875 19.542969 17.722656 19.558594 C 17.753906 19.664062 17.808594 19.878906 17.8125 20.132812 C 17.816406 20.292969 17.800781 20.445312 17.769531 20.582031 C 17.734375 20.710938 17.683594 20.832031 17.617188 20.9375 C 17.605469 20.957031 17.605469 20.976562 17.613281 20.996094 C 17.625 21.011719 17.644531 21.023438 17.664062 21.023438 L 17.667969 21.023438 C 17.824219 21.015625 17.984375 20.980469 18.140625 20.921875 C 18.148438 20.917969 18.152344 20.914062 18.160156 20.910156 C 18.324219 20.753906 18.445312 20.570312 18.523438 20.359375 C 18.589844 20.183594 18.621094 19.988281 18.625 19.777344 C 18.625 19.453125 18.550781 19.167969 18.503906 19.027344 "/>
</g>
</svg>
