<?xml version="1.0" encoding="UTF-8"?>
<svg xmlns="http://www.w3.org/2000/svg" xmlns:xlink="http://www.w3.org/1999/xlink" width="35pt" height="25pt" viewBox="0 0 35 25" version="1.1">
<g id="surface1">
<path style=" stroke:none;fill-rule:nonzero;fill:rgb(99.215686%,87.45098%,7.058824%);fill-opacity:1;" d="M 23.699219 0.960938 L 27.078125 4.246094 C 27.078125 4.246094 25.597656 5.386719 25.289062 7.300781 C 25.050781 8.828125 25.589844 10.46875 26.886719 12.179688 C 26.886719 12.179688 28.363281 13.886719 28.363281 16.234375 C 28.363281 16.234375 28.5625 19.726562 25.097656 21.457031 C 25.097656 21.457031 23.269531 22.433594 20.292969 22.707031 C 20.292969 22.707031 18.359375 22.878906 17.1875 23.980469 C 16.015625 22.878906 14.082031 22.707031 14.082031 22.707031 C 11.105469 22.433594 9.277344 21.457031 9.277344 21.457031 C 5.8125 19.726562 6.011719 16.234375 6.011719 16.234375 C 6.011719 13.886719 7.488281 12.179688 7.488281 12.179688 C 8.785156 10.46875 9.320312 8.828125 9.085938 7.300781 C 8.777344 5.386719 7.296875 4.246094 7.296875 4.246094 L 10.675781 0.960938 C 11.890625 1.8125 13.648438 1.84375 13.90625 1.84375 C 13.925781 1.84375 13.9375 1.84375 13.9375 1.84375 C 16.148438 1.824219 17.1875 1.003906 17.1875 1.003906 C 17.1875 1.003906 18.226562 1.824219 20.4375 1.84375 C 20.4375 1.84375 20.449219 1.84375 20.46875 1.84375 C 20.722656 1.84375 22.484375 1.8125 23.699219 0.960938 M 23.773438 0.0625 L 23.296875 0.394531 C 22.25 1.128906 20.648438 1.148438 20.46875 1.148438 L 20.441406 1.148438 C 18.925781 1.136719 17.9375 0.695312 17.621094 0.457031 L 17.1875 0.167969 L 16.753906 0.457031 C 16.4375 0.695312 15.445312 1.136719 13.933594 1.148438 L 13.90625 1.148438 C 13.726562 1.148438 12.125 1.128906 11.078125 0.394531 L 10.601562 0.0625 L 10.1875 0.464844 L 6.808594 3.753906 L 6.234375 4.308594 L 6.871094 4.796875 C 6.878906 4.804688 8.136719 5.804688 8.394531 7.410156 C 8.601562 8.738281 8.113281 10.199219 6.941406 11.75 C 6.757812 11.96875 5.316406 13.765625 5.3125 16.222656 C 5.308594 16.386719 5.292969 17.3125 5.6875 18.425781 C 6.078125 19.539062 6.964844 21.078125 8.957031 22.074219 C 9.128906 22.164062 11.015625 23.125 14.019531 23.398438 C 14.035156 23.398438 15.730469 23.566406 16.707031 24.488281 L 17.1875 24.9375 L 17.667969 24.488281 C 18.644531 23.566406 20.339844 23.398438 20.355469 23.398438 C 23.359375 23.125 25.246094 22.164062 25.417969 22.074219 C 27.410156 21.078125 28.296875 19.539062 28.6875 18.425781 C 29.082031 17.3125 29.066406 16.386719 29.058594 16.222656 C 29.058594 13.765625 27.617188 11.96875 27.433594 11.75 C 26.261719 10.199219 25.773438 8.738281 25.980469 7.40625 C 26.238281 5.785156 27.492188 4.808594 27.503906 4.796875 L 28.140625 4.308594 L 27.566406 3.753906 L 24.1875 0.464844 Z M 23.773438 0.0625 "/>
<path style=" stroke:none;fill-rule:nonzero;fill:rgb(12.54902%,29.411765%,62.745098%);fill-opacity:1;" d="M 23.699219 0.964844 L 27.078125 4.25 C 27.078125 4.25 25.597656 5.386719 25.289062 7.304688 C 25.054688 8.828125 25.589844 10.46875 26.886719 12.179688 C 26.886719 12.179688 28.363281 13.886719 28.363281 16.238281 C 28.363281 16.238281 28.5625 19.730469 25.097656 21.460938 C 25.097656 21.460938 23.269531 22.4375 20.292969 22.707031 C 20.292969 22.707031 18.359375 22.878906 17.1875 23.984375 C 16.015625 22.878906 14.082031 22.707031 14.082031 22.707031 C 11.105469 22.4375 9.277344 21.460938 9.277344 21.460938 C 5.8125 19.730469 6.011719 16.238281 6.011719 16.238281 C 6.011719 13.886719 7.488281 12.179688 7.488281 12.179688 C 8.785156 10.46875 9.320312 8.828125 9.085938 7.304688 C 8.777344 5.386719 7.296875 4.25 7.296875 4.25 L 10.675781 0.964844 C 11.890625 1.8125 13.652344 1.84375 13.90625 1.84375 C 13.925781 1.84375 13.9375 1.84375 13.9375 1.84375 C 16.148438 1.824219 17.1875 1.003906 17.1875 1.003906 C 17.1875 1.003906 18.226562 1.824219 20.4375 1.84375 C 20.4375 1.84375 20.445312 1.84375 20.46875 1.84375 C 20.722656 1.84375 22.484375 1.8125 23.699219 0.964844 "/>
<path style=" stroke:none;fill-rule:nonzero;fill:rgb(5.490196%,13.333333%,29.019608%);fill-opacity:1;" d="M 10.726562 1.46875 C 11.992188 2.199219 13.582031 2.242188 13.90625 2.242188 C 13.929688 2.242188 13.941406 2.242188 13.941406 2.242188 C 15.671875 2.226562 16.738281 1.738281 17.1875 1.476562 C 17.636719 1.738281 18.703125 2.226562 20.429688 2.242188 C 20.429688 2.242188 20.441406 2.242188 20.46875 2.242188 C 20.792969 2.242188 22.382812 2.203125 23.648438 1.46875 L 26.496094 4.238281 C 26.003906 4.71875 25.132812 5.761719 24.894531 7.242188 C 24.640625 8.878906 25.203125 10.621094 26.566406 12.417969 L 26.574219 12.429688 L 26.582031 12.4375 C 26.597656 12.453125 27.964844 14.070312 27.960938 16.234375 L 27.960938 16.246094 L 27.964844 16.257812 C 27.964844 16.292969 28.113281 19.507812 24.917969 21.105469 L 24.914062 21.105469 L 24.90625 21.109375 C 24.890625 21.121094 23.117188 22.050781 20.257812 22.3125 C 20.175781 22.320312 18.441406 22.484375 17.1875 23.460938 C 15.933594 22.484375 14.195312 22.320312 14.117188 22.3125 C 11.839844 22.105469 10.078125 21.433594 9.46875 21.109375 L 9.460938 21.105469 L 9.457031 21.105469 C 8.125 20.441406 7.210938 19.429688 6.734375 18.097656 C 6.371094 17.089844 6.410156 16.265625 6.410156 16.257812 L 6.414062 16.246094 L 6.414062 16.234375 C 6.410156 14.070312 7.777344 12.453125 7.792969 12.4375 L 7.800781 12.429688 L 7.808594 12.417969 C 9.171875 10.621094 9.734375 8.878906 9.480469 7.242188 C 9.242188 5.761719 8.371094 4.71875 7.878906 4.238281 Z M 23.699219 0.964844 C 22.484375 1.8125 20.722656 1.84375 20.46875 1.84375 C 20.445312 1.84375 20.4375 1.84375 20.4375 1.84375 C 18.226562 1.824219 17.1875 1.003906 17.1875 1.003906 C 17.1875 1.003906 16.148438 1.824219 13.9375 1.84375 C 13.9375 1.84375 13.925781 1.84375 13.90625 1.84375 C 13.648438 1.84375 11.890625 1.8125 10.675781 0.964844 L 7.296875 4.25 C 7.296875 4.25 8.777344 5.386719 9.085938 7.304688 C 9.320312 8.828125 8.785156 10.46875 7.488281 12.179688 C 7.488281 12.179688 6.011719 13.886719 6.011719 16.238281 C 6.011719 16.238281 5.8125 19.730469 9.277344 21.460938 C 9.277344 21.460938 11.105469 22.4375 14.082031 22.707031 C 14.082031 22.707031 16.015625 22.878906 17.1875 23.984375 C 18.359375 22.878906 20.292969 22.707031 20.292969 22.707031 C 23.269531 22.4375 25.097656 21.460938 25.097656 21.460938 C 28.5625 19.730469 28.363281 16.238281 28.363281 16.238281 C 28.363281 13.886719 26.886719 12.179688 26.886719 12.179688 C 25.589844 10.46875 25.050781 8.828125 25.289062 7.304688 C 25.597656 5.386719 27.078125 4.25 27.078125 4.25 Z M 23.699219 0.964844 "/>
<path style=" stroke:none;fill-rule:nonzero;fill:rgb(100%,100%,100%);fill-opacity:1;" d="M 11.382812 5.515625 C 11.382812 5.753906 11.40625 5.917969 11.441406 6.023438 C 11.398438 6.019531 11.335938 6.015625 11.265625 6.015625 C 11.199219 6.015625 11.128906 6.019531 11.082031 6.023438 C 11.109375 5.847656 11.121094 5.671875 11.121094 5.484375 L 11.121094 4.484375 C 11.121094 4.214844 11.101562 4.160156 10.988281 4.160156 C 10.960938 4.160156 10.921875 4.167969 10.871094 4.179688 L 10.714844 4.214844 C 10.664062 4.226562 10.632812 4.238281 10.601562 4.25 L 10.578125 4.230469 C 10.601562 4.1875 10.632812 4.113281 10.648438 4.050781 C 10.730469 4.042969 10.785156 4.035156 10.878906 4.015625 L 11.210938 3.945312 C 11.269531 3.933594 11.335938 3.917969 11.398438 3.898438 L 11.421875 3.921875 C 11.394531 4.109375 11.382812 4.316406 11.382812 4.441406 Z M 11.382812 5.515625 "/>
<path style=" stroke:none;fill-rule:nonzero;fill:rgb(100%,100%,100%);fill-opacity:1;" d="M 13.292969 5.460938 C 13.292969 5.820312 12.996094 6.078125 12.578125 6.078125 C 12.199219 6.078125 11.941406 5.855469 11.941406 5.53125 C 11.941406 5.25 12.125 5.085938 12.425781 4.917969 C 12.21875 4.796875 12.046875 4.648438 12.046875 4.390625 C 12.046875 4.085938 12.316406 3.839844 12.652344 3.839844 C 12.980469 3.839844 13.222656 4.050781 13.222656 4.332031 C 13.222656 4.597656 13.039062 4.734375 12.8125 4.855469 C 13.046875 4.984375 13.292969 5.148438 13.292969 5.460938 M 12.171875 5.515625 C 12.171875 5.753906 12.347656 5.929688 12.59375 5.929688 C 12.84375 5.929688 13.035156 5.75 13.035156 5.515625 C 13.035156 5.28125 12.859375 5.15625 12.578125 5 C 12.371094 5.101562 12.171875 5.257812 12.171875 5.515625 M 13.003906 4.339844 C 13.003906 4.136719 12.851562 3.984375 12.648438 3.984375 C 12.445312 3.984375 12.296875 4.132812 12.296875 4.332031 C 12.296875 4.546875 12.480469 4.664062 12.667969 4.773438 C 12.835938 4.679688 13.003906 4.566406 13.003906 4.339844 "/>
<path style=" stroke:none;fill-rule:nonzero;fill:rgb(100%,100%,100%);fill-opacity:1;" d="M 20.890625 6.039062 L 21.984375 4.183594 L 21.273438 4.183594 C 21.148438 4.183594 21.015625 4.203125 20.90625 4.28125 L 20.878906 4.269531 C 20.914062 4.171875 20.941406 4.011719 20.953125 3.9375 C 21.035156 3.945312 21.117188 3.945312 21.207031 3.945312 L 21.984375 3.945312 C 22.085938 3.945312 22.132812 3.945312 22.226562 3.933594 C 22.226562 3.964844 22.25 4.101562 22.261719 4.136719 C 22.097656 4.316406 21.90625 4.640625 21.71875 4.984375 C 21.449219 5.472656 21.332031 5.765625 21.304688 6.058594 C 21.304688 6.058594 21.054688 6.0625 20.90625 6.074219 Z M 20.890625 6.039062 "/>
<path style=" stroke:none;fill-rule:nonzero;fill:rgb(100%,100%,100%);fill-opacity:1;" d="M 23.796875 5.503906 C 23.796875 5.863281 23.496094 6.125 23.078125 6.125 C 22.703125 6.125 22.441406 5.898438 22.441406 5.574219 C 22.441406 5.292969 22.628906 5.132812 22.929688 4.960938 C 22.71875 4.839844 22.546875 4.691406 22.546875 4.4375 C 22.546875 4.128906 22.816406 3.886719 23.15625 3.886719 C 23.484375 3.886719 23.722656 4.09375 23.722656 4.378906 C 23.722656 4.640625 23.539062 4.777344 23.316406 4.902344 C 23.550781 5.027344 23.796875 5.191406 23.796875 5.503906 M 22.671875 5.558594 C 22.671875 5.796875 22.851562 5.972656 23.097656 5.972656 C 23.34375 5.972656 23.539062 5.792969 23.539062 5.5625 C 23.539062 5.324219 23.359375 5.199219 23.078125 5.046875 C 22.871094 5.144531 22.671875 5.300781 22.671875 5.558594 M 23.503906 4.382812 C 23.503906 4.179688 23.355469 4.027344 23.148438 4.027344 C 22.949219 4.027344 22.796875 4.175781 22.796875 4.375 C 22.796875 4.589844 22.980469 4.710938 23.171875 4.820312 C 23.339844 4.722656 23.503906 4.609375 23.503906 4.382812 "/>
<path style=" stroke:none;fill-rule:nonzero;fill:rgb(5.490196%,13.333333%,29.019608%);fill-opacity:1;" d="M 22.015625 14.378906 C 22.027344 14.402344 21.988281 14.441406 21.828125 14.46875 C 21.828125 14.46875 21.457031 14.539062 21.058594 14.507812 L 21.058594 9.636719 C 21.433594 9.46875 21.347656 9.171875 21.347656 9.171875 C 21.929688 8.753906 21.308594 8.253906 21.308594 8.253906 C 20.867188 7.882812 20.179688 7.699219 20.179688 7.699219 L 17.617188 3.46875 C 17.554688 3.371094 17.511719 3.320312 17.476562 3.292969 C 17.503906 3.246094 17.515625 3.195312 17.515625 3.136719 C 17.515625 2.953125 17.367188 2.808594 17.1875 2.808594 C 17.003906 2.808594 16.855469 2.953125 16.855469 3.136719 C 16.855469 3.183594 16.867188 3.230469 16.886719 3.269531 C 16.789062 3.359375 16.746094 3.453125 16.746094 3.453125 L 14.046875 7.738281 C 13.332031 7.980469 13.03125 8.34375 13.03125 8.34375 C 12.632812 8.824219 13.039062 9.117188 13.039062 9.117188 C 12.867188 9.5625 13.328125 9.777344 13.328125 9.777344 L 13.328125 14.136719 C 12.925781 14.164062 12.558594 14.097656 12.558594 14.097656 C 12.398438 14.066406 12.359375 14.027344 12.371094 14.003906 C 12.21875 14.3125 12.664062 14.839844 17.308594 15.144531 C 19.808594 15.308594 22.207031 14.925781 22.015625 14.378906 "/>
<path style=" stroke:none;fill-rule:nonzero;fill:rgb(100%,100%,100%);fill-opacity:1;" d="M 15.839844 18.925781 C 15.789062 19.105469 15.777344 19.152344 15.734375 19.308594 C 15.492188 19.386719 15.191406 19.460938 14.914062 19.460938 C 14.105469 19.460938 13.589844 18.914062 13.589844 18.113281 C 13.589844 17.296875 14.109375 16.734375 14.859375 16.734375 C 15.507812 16.734375 15.910156 17.121094 15.910156 17.746094 C 15.910156 17.796875 15.910156 18.023438 15.820312 18.023438 L 15.148438 18.023438 C 14.875 18.023438 14.492188 18.027344 14.320312 18.039062 C 14.332031 18.660156 14.667969 19.015625 15.226562 19.015625 C 15.453125 19.015625 15.585938 18.972656 15.773438 18.84375 C 15.816406 18.8125 15.863281 18.839844 15.839844 18.925781 M 14.917969 17.699219 C 15.144531 17.695312 15.234375 17.625 15.234375 17.460938 C 15.234375 17.214844 15.054688 17.039062 14.820312 17.039062 C 14.484375 17.039062 14.339844 17.289062 14.3125 17.714844 Z M 14.917969 17.699219 "/>
<path style=" stroke:none;fill-rule:nonzero;fill:rgb(100%,100%,100%);fill-opacity:1;" d="M 16.84375 17.390625 L 17.035156 17.140625 C 17.273438 16.828125 17.4375 16.726562 17.6875 16.726562 C 17.78125 16.726562 17.820312 16.734375 17.917969 16.777344 C 17.84375 17.046875 17.765625 17.328125 17.71875 17.492188 C 17.707031 17.527344 17.675781 17.578125 17.628906 17.523438 C 17.527344 17.410156 17.507812 17.367188 17.386719 17.367188 C 17.238281 17.367188 17.113281 17.449219 17.023438 17.59375 C 16.949219 17.71875 16.917969 17.816406 16.917969 18.070312 L 16.917969 18.5 C 16.917969 18.953125 16.949219 19.144531 17.023438 19.371094 C 16.9375 19.367188 16.769531 19.363281 16.601562 19.363281 C 16.4375 19.363281 16.273438 19.367188 16.171875 19.371094 C 16.21875 19.066406 16.234375 18.8125 16.234375 18.429688 L 16.234375 17.796875 C 16.234375 17.542969 16.214844 17.089844 16.125 16.808594 C 16.328125 16.808594 16.640625 16.796875 16.851562 16.785156 Z M 16.84375 17.390625 "/>
<path style=" stroke:none;fill-rule:nonzero;fill:rgb(100%,100%,100%);fill-opacity:1;" d="M 18.097656 17.148438 C 18.101562 17.132812 18.167969 16.894531 18.191406 16.808594 C 18.261719 16.8125 18.386719 16.816406 18.515625 16.816406 C 18.515625 16.609375 18.503906 16.5 18.496094 16.339844 C 18.679688 16.285156 19.023438 16.132812 19.167969 16.039062 C 19.222656 16.007812 19.25 16.054688 19.246094 16.113281 C 19.242188 16.175781 19.203125 16.347656 19.195312 16.816406 L 19.566406 16.816406 C 19.695312 16.816406 19.839844 16.8125 19.972656 16.78125 C 19.992188 16.777344 20.023438 16.785156 20.011719 16.828125 C 19.988281 16.902344 19.929688 17.121094 19.902344 17.210938 C 19.695312 17.1875 19.570312 17.183594 19.429688 17.183594 L 19.195312 17.183594 C 19.183594 17.359375 19.179688 17.574219 19.179688 17.722656 L 19.179688 18.324219 C 19.179688 18.726562 19.222656 19.023438 19.574219 19.023438 C 19.6875 19.023438 19.78125 19 19.917969 18.929688 C 19.941406 18.917969 19.996094 18.921875 19.976562 18.992188 C 19.945312 19.109375 19.914062 19.214844 19.875 19.347656 C 19.558594 19.433594 19.425781 19.457031 19.253906 19.457031 C 18.800781 19.457031 18.503906 19.257812 18.503906 18.609375 L 18.503906 17.800781 C 18.503906 17.542969 18.503906 17.355469 18.496094 17.179688 C 18.355469 17.179688 18.207031 17.195312 18.132812 17.207031 C 18.117188 17.210938 18.082031 17.203125 18.097656 17.148438 "/>
<path style=" stroke:none;fill-rule:nonzero;fill:rgb(100%,100%,100%);fill-opacity:1;" d="M 10.085938 17.203125 C 10.402344 17.203125 10.726562 17.179688 10.851562 17.160156 C 10.902344 17.152344 10.894531 17.199219 10.894531 17.199219 C 10.855469 17.339844 10.800781 17.527344 10.765625 17.648438 C 10.429688 17.617188 10.246094 17.609375 10.015625 17.609375 L 9.644531 17.609375 L 9.644531 18.351562 C 9.644531 18.832031 9.695312 18.988281 10.269531 18.988281 C 10.59375 18.988281 10.765625 18.988281 11.117188 18.722656 C 11.179688 18.675781 11.257812 18.703125 11.222656 18.828125 C 11.1875 18.957031 11.074219 19.359375 11.0625 19.390625 C 10.476562 19.371094 10.085938 19.367188 9.738281 19.367188 C 9.300781 19.367188 9.019531 19.367188 8.78125 19.371094 C 8.824219 19.097656 8.855469 18.777344 8.855469 18.382812 L 8.855469 16.742188 C 8.855469 16.476562 8.84375 15.972656 8.75 15.738281 C 8.929688 15.746094 9.050781 15.746094 9.179688 15.746094 L 10.167969 15.746094 C 10.519531 15.746094 10.660156 15.738281 11.046875 15.730469 C 10.976562 15.980469 10.902344 16.246094 10.875 16.347656 C 10.84375 16.449219 10.792969 16.371094 10.78125 16.359375 C 10.621094 16.125 10.304688 16.097656 10.003906 16.097656 C 9.910156 16.097656 9.800781 16.101562 9.667969 16.105469 C 9.664062 16.195312 9.648438 16.445312 9.648438 16.671875 L 9.648438 17.203125 Z M 10.085938 17.203125 "/>
<path style=" stroke:none;fill-rule:nonzero;fill:rgb(100%,100%,100%);fill-opacity:1;" d="M 12.339844 19.363281 C 12.238281 19.363281 12.105469 19.367188 12.003906 19.371094 C 11.96875 19.144531 11.925781 18.996094 11.847656 18.765625 L 11.5 17.710938 C 11.394531 17.394531 11.265625 17.050781 11.035156 16.785156 C 11.382812 16.792969 11.65625 16.777344 11.988281 16.753906 C 12.007812 17.007812 12.066406 17.253906 12.140625 17.5 L 12.335938 18.164062 C 12.382812 18.320312 12.484375 18.671875 12.484375 18.671875 C 12.519531 18.558594 12.5625 18.449219 12.597656 18.347656 L 12.90625 17.5625 C 12.957031 17.425781 13.027344 17.21875 13.046875 17.003906 C 13.046875 16.929688 13.050781 16.863281 13.046875 16.773438 C 13.121094 16.777344 13.257812 16.777344 13.367188 16.777344 C 13.472656 16.777344 13.644531 16.765625 13.726562 16.753906 C 13.796875 16.746094 13.789062 16.789062 13.761719 16.820312 C 13.582031 17.050781 13.4375 17.359375 13.300781 17.679688 L 12.800781 18.835938 C 12.71875 19.023438 12.683594 19.15625 12.636719 19.367188 C 12.585938 19.363281 12.460938 19.363281 12.339844 19.363281 "/>
<path style=" stroke:none;fill-rule:nonzero;fill:rgb(100%,100%,100%);fill-opacity:1;" d="M 20.0625 18.148438 C 20.0625 17.324219 20.566406 16.730469 21.503906 16.730469 C 22.335938 16.730469 22.804688 17.199219 22.804688 18.015625 C 22.804688 18.894531 22.246094 19.457031 21.375 19.457031 C 20.550781 19.457031 20.0625 18.972656 20.0625 18.148438 M 22.058594 18.148438 C 22.058594 17.417969 21.828125 17.027344 21.417969 17.027344 C 20.980469 17.027344 20.8125 17.417969 20.8125 18.042969 C 20.8125 18.777344 21.035156 19.164062 21.433594 19.164062 C 21.839844 19.164062 22.058594 18.816406 22.058594 18.148438 "/>
<path style=" stroke:none;fill-rule:nonzero;fill:rgb(100%,100%,100%);fill-opacity:1;" d="M 23.070312 17.710938 C 23.070312 17.453125 23.046875 17.066406 22.957031 16.78125 C 23.191406 16.78125 23.519531 16.78125 23.746094 16.761719 L 23.730469 17.21875 L 23.945312 17.039062 C 24.210938 16.820312 24.425781 16.726562 24.695312 16.726562 C 25.308594 16.726562 25.515625 17.070312 25.515625 17.671875 L 25.515625 18.363281 C 25.515625 18.847656 25.550781 19.144531 25.625 19.371094 C 25.539062 19.367188 25.359375 19.363281 25.195312 19.363281 C 25.023438 19.363281 24.851562 19.367188 24.757812 19.371094 C 24.808594 19.085938 24.824219 18.746094 24.824219 18.363281 L 24.824219 17.898438 C 24.824219 17.589844 24.800781 17.230469 24.359375 17.230469 C 24.203125 17.230469 24.046875 17.292969 23.929688 17.40625 C 23.796875 17.539062 23.757812 17.652344 23.757812 17.984375 L 23.757812 18.363281 C 23.757812 18.847656 23.789062 19.144531 23.867188 19.371094 C 23.785156 19.367188 23.609375 19.363281 23.441406 19.363281 C 23.261719 19.363281 23.097656 19.367188 23.003906 19.371094 C 23.054688 19.085938 23.070312 18.746094 23.070312 18.363281 Z M 23.070312 17.710938 "/>
<path style=" stroke:none;fill-rule:nonzero;fill:rgb(100%,100%,100%);fill-opacity:1;" d="M 13.257812 8.929688 C 13.257812 8.929688 13.933594 8.03125 17.230469 8.066406 C 17.230469 8.066406 20.285156 7.96875 21.230469 8.949219 C 21.230469 8.949219 21.46875 8.773438 21.230469 8.511719 C 21.230469 8.511719 20.625 7.699219 17.246094 7.664062 C 17.246094 7.664062 14.316406 7.59375 13.257812 8.523438 C 13.257812 8.523438 13.082031 8.703125 13.257812 8.929688 "/>
<path style=" stroke:none;fill-rule:nonzero;fill:rgb(100%,100%,100%);fill-opacity:1;" d="M 15.960938 13.878906 C 15.140625 13.863281 15.234375 14.355469 15.234375 14.355469 C 16.328125 14.507812 18.625 14.519531 20.503906 14.25 L 20.503906 13.738281 C 19.023438 13.917969 18.265625 13.941406 15.960938 13.878906 "/>
<path style=" stroke:none;fill-rule:nonzero;fill:rgb(100%,100%,100%);fill-opacity:1;" d="M 16.3125 6.15625 C 16.3125 6.15625 17.734375 5.886719 19.039062 6.480469 C 19.039062 6.480469 18.496094 5.625 17.109375 5.679688 C 17.109375 5.679688 16.308594 5.703125 16.3125 6.15625 "/>
<path style=" stroke:none;fill-rule:nonzero;fill:rgb(100%,100%,100%);fill-opacity:1;" d="M 15.96875 7.144531 C 15.96875 7.144531 18.058594 6.902344 19.585938 7.453125 C 19.585938 7.453125 19.085938 6.484375 16.585938 6.6875 C 16.585938 6.6875 16.035156 6.734375 15.96875 7.144531 "/>
<path style=" stroke:none;fill-rule:nonzero;fill:rgb(100%,100%,100%);fill-opacity:1;" d="M 17.308594 8.617188 C 17.308594 8.617188 19.984375 8.574219 21.066406 9.292969 C 21.066406 9.292969 21.109375 9.324219 21.148438 9.285156 C 21.148438 9.285156 21.175781 9.242188 21.136719 9.207031 C 21.136719 9.207031 20.398438 8.417969 17.308594 8.417969 C 17.308594 8.417969 14.210938 8.347656 13.277344 9.273438 C 13.277344 9.273438 13.222656 9.324219 13.269531 9.371094 C 13.269531 9.371094 13.308594 9.402344 13.339844 9.371094 C 13.339844 9.371094 14.078125 8.585938 17.308594 8.617188 "/>
<path style=" stroke:none;fill-rule:nonzero;fill:rgb(100%,100%,100%);fill-opacity:1;" d="M 17.269531 3.890625 C 17.269531 3.890625 16.996094 3.855469 16.886719 4.226562 C 16.886719 4.226562 17.242188 4.140625 17.648438 4.304688 C 17.648438 4.304688 17.5 3.894531 17.269531 3.890625 "/>
<path style=" stroke:none;fill-rule:nonzero;fill:rgb(100%,100%,100%);fill-opacity:1;" d="M 16.578125 5.195312 C 16.578125 5.195312 17.542969 5.011719 18.332031 5.402344 C 18.332031 5.402344 17.898438 4.691406 17.226562 4.738281 C 17.226562 4.738281 16.632812 4.71875 16.578125 5.195312 "/>
<path style=" stroke:none;fill-rule:nonzero;fill:rgb(100%,100%,100%);fill-opacity:1;" d="M 20.503906 10.097656 L 20.503906 9.628906 C 18.96875 9.101562 16.78125 9.21875 16.570312 9.21875 C 14.988281 9.203125 15.230469 9.859375 15.230469 9.859375 C 15.847656 9.75 18.140625 9.589844 20.503906 10.097656 "/>
<path style=" stroke:none;fill-rule:nonzero;fill:rgb(100%,100%,100%);fill-opacity:1;" d="M 22.015625 14.378906 C 21.992188 14.3125 21.863281 14.316406 21.808594 14.320312 C 21.605469 14.34375 21.40625 14.367188 21.273438 14.367188 C 21.25 14.367188 21.226562 14.363281 21.207031 14.363281 L 21.207031 9.726562 C 21.445312 9.585938 21.507812 9.382812 21.507812 9.238281 C 21.660156 9.105469 21.742188 8.953125 21.746094 8.78125 C 21.753906 8.429688 21.4375 8.164062 21.398438 8.136719 C 21.015625 7.8125 20.457031 7.625 20.277344 7.570312 L 17.742188 3.390625 C 17.710938 3.335938 17.679688 3.292969 17.652344 3.257812 C 17.660156 3.21875 17.664062 3.175781 17.664062 3.136719 C 17.664062 2.871094 17.453125 2.65625 17.1875 2.65625 C 16.921875 2.65625 16.707031 2.871094 16.707031 3.136719 C 16.707031 3.167969 16.710938 3.199219 16.714844 3.230469 C 16.660156 3.296875 16.628906 3.355469 16.613281 3.378906 L 13.949219 7.613281 C 13.238281 7.867188 12.929688 8.234375 12.917969 8.246094 C 12.757812 8.441406 12.6875 8.636719 12.710938 8.824219 C 12.730469 8.980469 12.808594 9.09375 12.867188 9.160156 C 12.785156 9.503906 12.996094 9.746094 13.175781 9.863281 L 13.175781 13.992188 L 13.113281 13.992188 C 12.976562 13.992188 12.78125 13.96875 12.578125 13.949219 C 12.523438 13.941406 12.402344 13.941406 12.371094 14.003906 C 12.359375 14.027344 12.398438 14.066406 12.558594 14.097656 C 12.558594 14.097656 12.925781 14.164062 13.328125 14.136719 L 13.328125 9.777344 C 13.328125 9.777344 12.867188 9.5625 13.039062 9.117188 C 13.039062 9.117188 12.632812 8.824219 13.03125 8.34375 C 13.03125 8.34375 13.332031 7.980469 14.046875 7.738281 L 16.746094 3.453125 C 16.746094 3.453125 16.789062 3.359375 16.886719 3.269531 C 16.867188 3.230469 16.855469 3.183594 16.855469 3.136719 C 16.855469 2.953125 17.003906 2.808594 17.1875 2.808594 C 17.367188 2.808594 17.515625 2.953125 17.515625 3.136719 C 17.515625 3.195312 17.503906 3.246094 17.476562 3.292969 C 17.511719 3.320312 17.554688 3.371094 17.617188 3.46875 L 20.179688 7.699219 C 20.179688 7.699219 20.867188 7.882812 21.308594 8.253906 C 21.308594 8.253906 21.929688 8.753906 21.347656 9.171875 C 21.347656 9.171875 21.433594 9.46875 21.058594 9.636719 L 21.058594 14.507812 C 21.457031 14.539062 21.828125 14.46875 21.828125 14.46875 C 21.976562 14.441406 22.019531 14.40625 22.015625 14.382812 C 22.015625 14.378906 22.015625 14.378906 22.015625 14.378906 "/>
<path style=" stroke:none;fill-rule:nonzero;fill:rgb(100%,100%,100%);fill-opacity:1;" d="M 15.234375 11 C 15.628906 10.980469 16.015625 10.96875 16.386719 10.960938 L 16.386719 10.410156 C 16.246094 10.414062 16.105469 10.414062 15.964844 10.417969 C 15.152344 10.433594 15.234375 11 15.234375 11 "/>
<path style=" stroke:none;fill-rule:nonzero;fill:rgb(100%,100%,100%);fill-opacity:1;" d="M 20.503906 11.117188 L 20.503906 10.609375 C 19.773438 10.457031 19.089844 10.425781 17.953125 10.386719 L 17.953125 10.96875 C 19.230469 10.96875 20.285156 11.097656 20.503906 11.117188 "/>
<path style=" stroke:none;fill-rule:nonzero;fill:rgb(100%,100%,100%);fill-opacity:1;" d="M 16.832031 11.3125 L 17.535156 11.3125 L 17.535156 11.164062 L 16.832031 11.164062 Z M 16.832031 11.3125 "/>
<path style=" stroke:none;fill-rule:nonzero;fill:rgb(100%,100%,100%);fill-opacity:1;" d="M 15.960938 12.734375 C 15.148438 12.730469 15.234375 13.234375 15.234375 13.234375 C 16.445312 13.328125 18.480469 13.351562 20.503906 13.199219 L 20.503906 12.691406 C 20.132812 12.703125 18.230469 12.75 15.960938 12.734375 "/>
<path style=" stroke:none;fill-rule:nonzero;fill:rgb(100%,100%,100%);fill-opacity:1;" d="M 17.535156 10.097656 L 16.832031 10.097656 L 16.832031 10.957031 L 17.535156 10.957031 Z M 17.535156 10.097656 "/>
<path style=" stroke:none;fill-rule:nonzero;fill:rgb(100%,100%,100%);fill-opacity:1;" d="M 15.96875 11.546875 C 15.175781 11.546875 15.222656 12.125 15.222656 12.125 C 17.621094 12.085938 19.78125 12.144531 20.503906 12.167969 L 20.492188 11.636719 C 19.84375 11.5625 18.042969 11.53125 15.96875 11.546875 "/>
</g>
</svg>
