<?xml version="1.0" encoding="UTF-8"?>
<svg xmlns="http://www.w3.org/2000/svg" xmlns:xlink="http://www.w3.org/1999/xlink" width="19pt" height="25pt" viewBox="0 0 19 25" version="1.1">
<g id="surface1">
<path style=" stroke:none;fill-rule:nonzero;fill:rgb(100%,100%,100%);fill-opacity:1;" d="M 18.59375 1.175781 C 18.566406 1.167969 14.410156 0 9.550781 0 C 9.535156 0 9.519531 0 9.507812 0 C 9.492188 0 9.476562 0 9.464844 0 C 4.605469 0 0.449219 1.167969 0.417969 1.175781 C 0.171875 1.246094 0 1.46875 0 1.722656 L 0 14.828125 L 0.0117188 14.933594 C 0.0234375 15.019531 1.300781 21.484375 9.273438 24.941406 C 9.347656 24.972656 9.425781 24.988281 9.503906 24.988281 C 9.507812 24.988281 9.507812 24.988281 9.507812 24.988281 C 9.585938 24.988281 9.664062 24.972656 9.738281 24.941406 C 17.710938 21.484375 18.992188 15.019531 19.003906 14.933594 L 19.011719 14.828125 L 19.011719 1.722656 C 19.011719 1.46875 18.84375 1.246094 18.59375 1.175781 Z M 18.59375 1.175781 "/>
<path style=" stroke:none;fill-rule:nonzero;fill:rgb(0%,0%,0%);fill-opacity:1;" d="M 18.503906 1.492188 C 18.488281 1.488281 14.296875 0.335938 9.507812 0.328125 C 4.714844 0.335938 0.523438 1.492188 0.511719 1.492188 C 0.40625 1.523438 0.332031 1.617188 0.332031 1.722656 L 0.332031 14.828125 L 0.335938 14.875 C 0.34375 14.910156 1.578125 21.246094 9.410156 24.640625 C 9.441406 24.652344 9.472656 24.660156 9.507812 24.660156 C 9.539062 24.660156 9.574219 24.652344 9.605469 24.640625 C 17.4375 21.246094 18.671875 14.910156 18.675781 14.875 L 18.679688 14.828125 L 18.679688 1.722656 C 18.679688 1.617188 18.605469 1.523438 18.503906 1.492188 Z M 18.503906 1.492188 "/>
<path style=" stroke:none;fill-rule:nonzero;fill:rgb(100%,100%,100%);fill-opacity:1;" d="M 9.507812 0.808594 C 7.535156 0.808594 5.664062 1.011719 4.152344 1.242188 L 4.152344 20.515625 C 5.421875 21.820312 7.152344 23.125 9.507812 24.160156 C 11.863281 23.125 13.59375 21.820312 14.859375 20.515625 L 14.859375 1.242188 C 13.347656 1.011719 11.480469 0.808594 9.507812 0.808594 Z M 9.507812 0.808594 "/>
<path style=" stroke:none;fill-rule:nonzero;fill:rgb(0%,0%,0%);fill-opacity:1;" d="M 6.886719 18.648438 C 6.148438 17.917969 5.808594 17.050781 5.8125 16.183594 C 5.8125 15.148438 6.289062 14.117188 7.125 13.292969 C 7.777344 12.648438 8.558594 12.21875 9.375 12.0625 L 8.238281 10.9375 C 7.933594 11.238281 6.757812 12.398438 6.320312 12.828125 L 6.324219 12.828125 L 6.148438 13.003906 L 6.082031 13.0625 C 6.042969 13.097656 5.976562 13.132812 5.90625 13.128906 C 5.824219 13.136719 5.734375 13.089844 5.679688 13.027344 L 5.054688 12.40625 C 4.996094 12.351562 4.945312 12.269531 4.953125 12.183594 C 4.949219 12.113281 4.984375 12.050781 5.027344 12 L 9.34375 7.738281 L 8.394531 6.800781 C 8.089844 7.101562 6.914062 8.257812 6.476562 8.691406 L 6.480469 8.691406 L 6.304688 8.863281 L 6.238281 8.925781 C 6.199219 8.957031 6.136719 8.992188 6.0625 8.992188 C 5.976562 8.996094 5.894531 8.953125 5.835938 8.890625 L 5.210938 8.265625 C 5.152344 8.214844 5.105469 8.132812 5.109375 8.046875 C 5.105469 7.972656 5.140625 7.910156 5.183594 7.863281 L 10.007812 3.097656 C 10.109375 3 10.246094 2.9375 10.398438 2.9375 C 10.550781 2.933594 10.6875 2.996094 10.78125 3.09375 L 13.992188 6.265625 C 14.027344 6.308594 14.0625 6.371094 14.0625 6.441406 C 14.066406 6.523438 14.023438 6.609375 13.960938 6.664062 L 13.929688 6.695312 L 13.925781 6.695312 C 13.910156 6.710938 13.882812 6.734375 13.855469 6.765625 C 13.792969 6.824219 13.710938 6.90625 13.632812 6.984375 C 13.46875 7.144531 13.308594 7.304688 13.308594 7.304688 L 13.234375 7.375 L 10.523438 4.695312 L 9.289062 5.914062 L 13.835938 10.402344 C 13.871094 10.445312 13.90625 10.511719 13.902344 10.582031 C 13.910156 10.664062 13.863281 10.746094 13.800781 10.804688 L 13.078125 11.515625 L 10.367188 8.835938 L 9.132812 10.054688 L 11.371094 12.261719 C 11.785156 12.4375 12.183594 12.703125 12.546875 13.058594 C 13.242188 13.757812 13.640625 14.597656 13.640625 15.4375 C 13.640625 16.042969 13.429688 16.644531 12.988281 17.175781 L 12.914062 17.265625 L 11.855469 16.21875 L 11.898438 16.152344 C 12.09375 15.820312 12.210938 15.480469 12.210938 15.144531 C 12.210938 14.746094 12.050781 14.34375 11.648438 13.945312 C 11.214844 13.519531 10.746094 13.347656 10.265625 13.347656 C 9.539062 13.347656 8.785156 13.757812 8.191406 14.347656 C 7.59375 14.933594 7.179688 15.679688 7.179688 16.398438 C 7.179688 16.871094 7.355469 17.335938 7.785156 17.761719 C 8.148438 18.121094 8.554688 18.273438 8.972656 18.273438 C 9.445312 18.273438 9.933594 18.070312 10.367188 17.71875 L 10.4375 17.660156 L 11.480469 18.6875 L 11.398438 18.761719 C 10.734375 19.34375 9.957031 19.644531 9.183594 19.644531 C 8.371094 19.644531 7.558594 19.308594 6.886719 18.648438 Z M 6.886719 18.648438 "/>
<path style=" stroke:none;fill-rule:nonzero;fill:rgb(80%,0%,0%);fill-opacity:1;" d="M 9.808594 12.203125 L 9.601562 12.230469 C 8.769531 12.34375 7.949219 12.765625 7.269531 13.4375 C 6.46875 14.226562 6.015625 15.210938 6.015625 16.183594 C 6.015625 17 6.332031 17.808594 7.03125 18.503906 C 7.671875 19.132812 8.425781 19.4375 9.183594 19.4375 C 9.871094 19.4375 10.566406 19.1875 11.179688 18.679688 L 10.425781 17.933594 C 9.980469 18.273438 9.476562 18.476562 8.972656 18.476562 C 8.503906 18.476562 8.039062 18.300781 7.640625 17.90625 C 7.175781 17.445312 6.972656 16.921875 6.972656 16.398438 C 6.976562 15.601562 7.421875 14.816406 8.042969 14.203125 C 8.667969 13.589844 9.460938 13.144531 10.265625 13.144531 C 10.796875 13.144531 11.328125 13.34375 11.792969 13.800781 C 12.226562 14.226562 12.417969 14.6875 12.414062 15.144531 C 12.414062 15.503906 12.300781 15.851562 12.113281 16.183594 L 12.898438 16.960938 C 13.265625 16.484375 13.433594 15.960938 13.433594 15.4375 C 13.433594 14.664062 13.066406 13.871094 12.398438 13.203125 C 12.050781 12.855469 11.667969 12.605469 11.273438 12.441406 L 11.253906 12.433594 L 8.84375 10.054688 L 10.367188 8.550781 L 13.078125 11.226562 L 13.65625 10.660156 C 13.707031 10.605469 13.691406 10.625 13.699219 10.582031 C 13.695312 10.5625 13.695312 10.558594 13.683594 10.542969 L 9 5.914062 L 10.523438 4.410156 L 13.234375 7.089844 C 13.390625 6.933594 13.753906 6.578125 13.8125 6.519531 C 13.863281 6.464844 13.851562 6.488281 13.855469 6.441406 C 13.855469 6.421875 13.851562 6.421875 13.839844 6.402344 L 10.636719 3.238281 C 10.574219 3.175781 10.496094 3.140625 10.398438 3.140625 C 10.304688 3.140625 10.21875 3.179688 10.15625 3.242188 L 5.335938 8 C 5.316406 8.023438 5.316406 8.027344 5.316406 8.046875 C 5.320312 8.085938 5.308594 8.066406 5.359375 8.125 L 5.984375 8.746094 C 6.039062 8.796875 6.019531 8.785156 6.0625 8.789062 C 6.082031 8.789062 6.085938 8.785156 6.105469 8.773438 L 6.15625 8.722656 L 6.15625 8.71875 L 6.164062 8.714844 C 6.167969 8.710938 6.171875 8.703125 6.183594 8.695312 C 6.199219 8.679688 6.222656 8.65625 6.25 8.628906 C 6.308594 8.570312 6.394531 8.484375 6.496094 8.382812 C 6.699219 8.183594 6.96875 7.917969 7.238281 7.652344 C 7.78125 7.117188 8.320312 6.585938 8.320312 6.585938 L 8.394531 6.511719 L 9.636719 7.738281 L 5.179688 12.136719 C 5.160156 12.160156 5.160156 12.164062 5.15625 12.183594 C 5.164062 12.226562 5.152344 12.207031 5.203125 12.261719 L 5.828125 12.886719 C 5.882812 12.933594 5.859375 12.921875 5.90625 12.925781 C 5.925781 12.925781 5.929688 12.925781 5.945312 12.914062 L 6.007812 12.851562 C 6.011719 12.847656 6.015625 12.84375 6.023438 12.835938 C 6.039062 12.820312 6.066406 12.796875 6.09375 12.765625 C 6.152344 12.707031 6.238281 12.625 6.339844 12.523438 C 6.542969 12.324219 6.8125 12.054688 7.082031 11.789062 C 7.625 11.257812 8.164062 10.722656 8.164062 10.722656 L 8.238281 10.652344 L 9.660156 12.058594 L 9.589844 12.128906 L 9.660156 12.058594 Z M 9.808594 12.203125 "/>
</g>
</svg>
