<?xml version="1.0" encoding="UTF-8"?>
<svg xmlns="http://www.w3.org/2000/svg" xmlns:xlink="http://www.w3.org/1999/xlink" width="35pt" height="25pt" viewBox="0 0 35 25" version="1.1">
<g id="surface1">
<path style=" stroke:none;fill-rule:nonzero;fill:rgb(12.941176%,11.764706%,12.156863%);fill-opacity:1;" d="M 25.320312 17.859375 C 23.457031 20.0625 20.664062 21.464844 17.539062 21.464844 C 14.449219 21.464844 11.679688 20.09375 9.816406 17.925781 L 7.605469 20.570312 C 10.085938 23.21875 13.628906 24.878906 17.554688 24.878906 C 21.507812 24.878906 25.0625 23.203125 27.542969 20.523438 L 25.320312 17.859375 "/>
<path style="fill:none;stroke-width:2.356;stroke-linecap:butt;stroke-linejoin:miter;stroke:rgb(100%,100%,100%);stroke-opacity:1;stroke-miterlimit:4;" d="M 202.5625 143.589375 C 187.65625 161.3025 165.3125 172.577344 140.3125 172.577344 C 115.59375 172.577344 93.4375 161.55375 78.53125 144.123281 L 60.84375 165.385312 C 80.6875 186.67875 109.03125 200.026406 140.4375 200.026406 C 172.0625 200.026406 200.5 186.553125 220.34375 165.008437 Z M 202.5625 143.589375 " transform="matrix(0.125,0,0,0.124378,0,0)"/>
<path style=" stroke:none;fill-rule:nonzero;fill:rgb(12.941176%,11.764706%,12.156863%);fill-opacity:1;" d="M 23.574219 7.734375 L 23.574219 19.472656 C 23.574219 19.8125 23.359375 20.105469 23.054688 20.21875 L 17.578125 22.332031 L 12.097656 20.21875 C 11.796875 20.105469 11.578125 19.8125 11.578125 19.472656 L 11.582031 7.734375 L 23.574219 7.734375 "/>
<path style="fill:none;stroke-width:2.356;stroke-linecap:butt;stroke-linejoin:miter;stroke:rgb(100%,100%,100%);stroke-opacity:1;stroke-miterlimit:4;" d="M 188.59375 62.184375 L 188.59375 156.560156 C 188.59375 159.2925 186.875 161.647969 184.4375 162.55875 L 140.625 179.549531 L 96.78125 162.55875 C 94.375 161.647969 92.625 159.2925 92.625 156.560156 L 92.65625 62.184375 Z M 188.59375 62.184375 " transform="matrix(0.125,0,0,0.124378,0,0)"/>
<path style=" stroke:none;fill-rule:nonzero;fill:rgb(100%,100%,100%);fill-opacity:1;" d="M 11.863281 16.796875 L 11.863281 9.5625 L 23.285156 9.5625 L 23.289062 16.796875 L 11.863281 16.796875 "/>
<path style=" stroke:none;fill-rule:nonzero;fill:rgb(92.941176%,10.196078%,23.137255%);fill-opacity:1;" d="M 23.289062 16.117188 C 23.1875 16.277344 22.941406 16.390625 22.65625 16.390625 C 22.363281 16.390625 22.117188 16.277344 22.019531 16.117188 C 21.917969 16.277344 21.671875 16.390625 21.382812 16.390625 C 21.09375 16.390625 20.851562 16.277344 20.75 16.117188 C 20.648438 16.277344 20.402344 16.390625 20.113281 16.390625 C 19.824219 16.390625 19.578125 16.277344 19.480469 16.117188 L 19.476562 16.117188 C 19.375 16.277344 19.128906 16.390625 18.84375 16.390625 C 18.554688 16.390625 18.308594 16.277344 18.210938 16.117188 C 18.109375 16.277344 17.859375 16.390625 17.574219 16.390625 C 17.285156 16.390625 17.039062 16.277344 16.9375 16.117188 L 16.941406 16.117188 C 16.839844 16.277344 16.59375 16.390625 16.304688 16.390625 C 16.015625 16.390625 15.769531 16.277344 15.667969 16.117188 C 15.570312 16.277344 15.320312 16.390625 15.035156 16.390625 C 14.746094 16.390625 14.5 16.277344 14.398438 16.117188 C 14.296875 16.277344 14.050781 16.390625 13.765625 16.390625 C 13.476562 16.390625 13.230469 16.277344 13.128906 16.117188 L 13.128906 16.121094 C 13.027344 16.28125 12.78125 16.390625 12.496094 16.390625 C 12.207031 16.390625 11.960938 16.277344 11.859375 16.117188 L 11.859375 16.101562 L 11.863281 19.300781 C 11.863281 19.625 12.070312 19.898438 12.359375 20.007812 L 17.578125 22.023438 L 22.792969 20.007812 C 23.082031 19.898438 23.289062 19.625 23.289062 19.300781 L 23.289062 16.105469 L 23.289062 16.117188 "/>
<path style=" stroke:none;fill-rule:nonzero;fill:rgb(0%,68.235294%,93.72549%);fill-opacity:1;" d="M 23.289062 15.785156 C 23.1875 15.941406 22.941406 16.054688 22.65625 16.054688 C 22.363281 16.054688 22.117188 15.941406 22.019531 15.785156 C 21.917969 15.941406 21.671875 16.054688 21.382812 16.054688 C 21.09375 16.054688 20.851562 15.941406 20.75 15.785156 C 20.648438 15.941406 20.402344 16.054688 20.113281 16.054688 C 19.824219 16.054688 19.578125 15.941406 19.480469 15.785156 L 19.476562 15.785156 C 19.375 15.941406 19.128906 16.054688 18.84375 16.054688 C 18.554688 16.054688 18.308594 15.941406 18.210938 15.785156 C 18.109375 15.941406 17.859375 16.054688 17.574219 16.054688 C 17.285156 16.054688 17.039062 15.941406 16.9375 15.785156 L 16.941406 15.785156 C 16.839844 15.941406 16.59375 16.054688 16.304688 16.054688 C 16.015625 16.054688 15.769531 15.941406 15.667969 15.785156 C 15.570312 15.941406 15.320312 16.054688 15.035156 16.054688 C 14.746094 16.054688 14.5 15.941406 14.398438 15.785156 C 14.296875 15.941406 14.050781 16.054688 13.765625 16.054688 C 13.476562 16.054688 13.230469 15.941406 13.128906 15.785156 L 13.128906 15.789062 C 13.027344 15.949219 12.78125 16.054688 12.496094 16.054688 C 12.207031 16.054688 11.960938 15.941406 11.859375 15.785156 L 11.859375 15.386719 C 11.960938 15.546875 12.207031 15.664062 12.496094 15.664062 C 12.78125 15.664062 13.027344 15.550781 13.128906 15.390625 C 13.230469 15.550781 13.476562 15.664062 13.765625 15.664062 C 14.050781 15.664062 14.296875 15.546875 14.398438 15.386719 C 14.5 15.546875 14.746094 15.664062 15.035156 15.664062 C 15.320312 15.664062 15.570312 15.550781 15.667969 15.390625 C 15.769531 15.550781 16.015625 15.664062 16.304688 15.664062 C 16.59375 15.664062 16.839844 15.546875 16.941406 15.386719 L 16.9375 15.386719 C 17.039062 15.546875 17.285156 15.664062 17.574219 15.664062 C 17.859375 15.664062 18.109375 15.550781 18.210938 15.390625 C 18.308594 15.550781 18.554688 15.664062 18.84375 15.664062 C 19.128906 15.664062 19.375 15.546875 19.476562 15.386719 L 19.480469 15.386719 C 19.578125 15.546875 19.824219 15.664062 20.113281 15.664062 C 20.402344 15.664062 20.648438 15.550781 20.75 15.390625 C 20.851562 15.550781 21.09375 15.664062 21.382812 15.664062 C 21.671875 15.664062 21.917969 15.546875 22.019531 15.386719 C 22.117188 15.546875 22.363281 15.664062 22.65625 15.664062 C 22.941406 15.664062 23.1875 15.550781 23.289062 15.390625 L 23.289062 15.785156 "/>
<path style=" stroke:none;fill-rule:nonzero;fill:rgb(0%,68.235294%,93.72549%);fill-opacity:1;" d="M 23.289062 15.070312 C 23.1875 15.230469 22.941406 15.339844 22.65625 15.339844 C 22.363281 15.339844 22.117188 15.226562 22.019531 15.070312 C 21.917969 15.226562 21.671875 15.339844 21.382812 15.339844 C 21.09375 15.339844 20.851562 15.230469 20.75 15.070312 C 20.648438 15.230469 20.402344 15.339844 20.113281 15.339844 C 19.824219 15.339844 19.578125 15.226562 19.480469 15.070312 L 19.476562 15.070312 C 19.375 15.226562 19.128906 15.339844 18.84375 15.339844 C 18.554688 15.339844 18.308594 15.230469 18.210938 15.070312 C 18.109375 15.230469 17.859375 15.339844 17.574219 15.339844 C 17.285156 15.339844 17.039062 15.226562 16.9375 15.070312 L 16.941406 15.070312 C 16.839844 15.226562 16.59375 15.339844 16.304688 15.339844 C 16.015625 15.339844 15.769531 15.230469 15.667969 15.070312 C 15.570312 15.230469 15.320312 15.339844 15.035156 15.339844 C 14.746094 15.339844 14.5 15.226562 14.398438 15.070312 C 14.296875 15.226562 14.050781 15.339844 13.765625 15.339844 C 13.476562 15.339844 13.230469 15.230469 13.128906 15.070312 L 13.128906 15.074219 C 13.027344 15.234375 12.78125 15.339844 12.496094 15.339844 C 12.207031 15.339844 11.960938 15.226562 11.859375 15.070312 L 11.859375 14.675781 C 11.960938 14.832031 12.207031 14.949219 12.496094 14.949219 C 12.78125 14.949219 13.027344 14.835938 13.128906 14.675781 C 13.230469 14.835938 13.476562 14.949219 13.765625 14.949219 C 14.050781 14.949219 14.296875 14.832031 14.398438 14.675781 C 14.5 14.832031 14.746094 14.949219 15.035156 14.949219 C 15.320312 14.949219 15.570312 14.835938 15.667969 14.675781 C 15.769531 14.835938 16.015625 14.949219 16.304688 14.949219 C 16.59375 14.949219 16.839844 14.832031 16.941406 14.675781 L 16.9375 14.675781 C 17.039062 14.832031 17.285156 14.949219 17.574219 14.949219 C 17.859375 14.949219 18.109375 14.835938 18.210938 14.675781 C 18.308594 14.835938 18.554688 14.949219 18.84375 14.949219 C 19.128906 14.949219 19.375 14.832031 19.476562 14.675781 L 19.480469 14.675781 C 19.578125 14.832031 19.824219 14.949219 20.113281 14.949219 C 20.402344 14.949219 20.648438 14.835938 20.75 14.675781 C 20.851562 14.835938 21.09375 14.949219 21.382812 14.949219 C 21.671875 14.949219 21.917969 14.832031 22.019531 14.675781 C 22.117188 14.832031 22.363281 14.949219 22.65625 14.949219 C 22.941406 14.949219 23.1875 14.835938 23.289062 14.675781 L 23.289062 15.070312 "/>
<path style=" stroke:none;fill-rule:nonzero;fill:rgb(12.941176%,11.764706%,12.156863%);fill-opacity:1;" d="M 18.414062 19.757812 C 18.414062 19.757812 18.972656 20.628906 18.679688 20.386719 C 18.464844 20.199219 18.171875 19.777344 17.957031 19.425781 L 16.808594 19.871094 C 16.808594 19.871094 16.148438 20.667969 16.292969 20.316406 C 16.398438 20.0625 16.726562 19.648438 16.992188 19.335938 L 16.207031 18.390625 C 16.207031 18.390625 15.238281 18.015625 15.621094 18.042969 C 15.875 18.0625 16.398438 18.25 16.773438 18.402344 L 17.429688 17.363281 C 17.429688 17.363281 17.492188 16.328125 17.582031 16.699219 C 17.648438 16.957031 17.628906 17.507812 17.597656 17.914062 L 18.796875 18.207031 C 18.796875 18.207031 19.804688 17.945312 19.476562 18.144531 C 19.246094 18.289062 18.746094 18.4375 18.34375 18.535156 L 18.414062 19.757812 "/>
<path style="fill:none;stroke-width:1.441;stroke-linecap:butt;stroke-linejoin:miter;stroke:rgb(12.941176%,11.764706%,12.156863%);stroke-opacity:1;stroke-miterlimit:4;" d="M 147.3125 158.852812 C 147.3125 158.852812 151.78125 165.856406 149.4375 163.909219 C 147.71875 162.401719 145.375 159.009844 143.65625 156.183281 L 134.46875 159.763594 C 134.46875 159.763594 129.1875 166.170469 130.34375 163.343906 C 131.1875 161.3025 133.8125 157.973437 135.9375 155.460937 L 129.65625 147.860625 C 129.65625 147.860625 121.90625 144.845625 124.96875 145.065469 C 127 145.2225 131.1875 146.73 134.1875 147.954844 L 139.4375 139.600781 C 139.4375 139.600781 139.9375 131.278125 140.65625 134.261719 C 141.1875 136.334531 141.03125 140.762812 140.78125 144.029062 L 150.375 146.384531 C 150.375 146.384531 158.4375 144.280312 155.8125 145.882031 C 153.96875 147.044062 149.96875 148.2375 146.75 149.022656 Z M 147.3125 158.852812 " transform="matrix(0.125,0,0,0.124378,0,0)"/>
<path style=" stroke:none;fill-rule:nonzero;fill:rgb(100%,100%,100%);fill-opacity:1;" d="M 17.5 19.527344 C 17.503906 19.546875 17.519531 19.558594 17.53125 19.558594 C 17.546875 19.558594 17.554688 19.546875 17.566406 19.527344 C 17.578125 19.5 17.589844 19.429688 17.585938 19.285156 C 17.585938 19.285156 17.59375 18.796875 17.957031 19.320312 C 18.984375 20.792969 17.523438 20.800781 17.523438 20.800781 L 17.539062 20.800781 C 17.539062 20.800781 16.078125 20.792969 17.101562 19.320312 C 17.46875 18.796875 17.472656 19.285156 17.472656 19.285156 C 17.472656 19.429688 17.480469 19.5 17.5 19.53125 L 17.5 19.527344 "/>
<path style="fill:none;stroke-width:1.441;stroke-linecap:butt;stroke-linejoin:miter;stroke:rgb(12.941176%,11.764706%,12.156863%);stroke-opacity:1;stroke-miterlimit:4;" d="M 140 156.999844 L 140.25 157.251094 L 140.53125 156.999844 C 140.625 156.78 140.6875 156.214687 140.6875 155.052656 C 140.6875 155.052656 140.75 151.126875 143.65625 155.335312 C 151.875 167.175469 140.1875 167.238281 140.1875 167.238281 L 140.3125 167.238281 C 140.3125 167.238281 128.625 167.175469 136.8125 155.335312 C 139.75 151.126875 139.78125 155.052656 139.78125 155.052656 C 139.78125 156.214687 139.84375 156.78 140 157.03125 Z M 140 156.999844 " transform="matrix(0.125,0,0,0.124378,0,0)"/>
<path style=" stroke:none;fill-rule:nonzero;fill:rgb(100%,100%,100%);fill-opacity:1;" d="M 16.746094 18.9375 C 16.734375 18.953125 16.726562 18.964844 16.734375 18.976562 C 16.734375 18.992188 16.75 19 16.769531 19 L 16.765625 19 C 16.800781 19.003906 16.867188 18.996094 17.007812 18.949219 C 17.007812 18.949219 17.476562 18.804688 17.089844 19.308594 C 16 20.734375 15.542969 19.359375 15.542969 19.359375 L 15.542969 19.367188 C 15.542969 19.367188 15.101562 17.984375 16.824219 18.5 C 17.441406 18.683594 16.972656 18.84375 16.972656 18.84375 C 16.832031 18.882812 16.769531 18.914062 16.746094 18.9375 "/>
<path style="fill:none;stroke-width:1.441;stroke-linecap:butt;stroke-linejoin:miter;stroke:rgb(12.941176%,11.764706%,12.156863%);stroke-opacity:1;stroke-miterlimit:4;" d="M 133.96875 152.2575 C 133.875 152.383125 133.875 152.571562 133.875 152.571562 L 134.15625 152.76 L 134.125 152.76 C 134.125 152.76 134.9375 152.728594 136.0625 152.351719 C 136.0625 152.351719 139.8125 151.189687 136.71875 155.241094 C 128 166.704375 124.34375 155.649375 124.34375 155.649375 L 124.34375 155.712187 C 124.34375 155.712187 120.8125 144.594375 134.59375 148.74 C 139.53125 150.216094 135.78125 151.50375 135.78125 151.50375 C 134.65625 151.817812 134.15625 152.069062 133.96875 152.2575 Z M 133.96875 152.2575 " transform="matrix(0.125,0,0,0.124378,0,0)"/>
<path style=" stroke:none;fill-rule:nonzero;fill:rgb(100%,100%,100%);fill-opacity:1;" d="M 17.074219 18.042969 C 17.058594 18.03125 17.042969 18.03125 17.03125 18.042969 C 17.019531 18.046875 17.019531 18.0625 17.019531 18.082031 L 17.019531 18.078125 C 17.027344 18.113281 17.054688 18.175781 17.148438 18.289062 C 17.148438 18.289062 17.429688 18.6875 16.824219 18.480469 C 15.125 17.890625 16.300781 17.03125 16.300781 17.03125 L 16.292969 17.035156 C 16.292969 17.035156 17.476562 16.1875 17.519531 17.980469 C 17.53125 18.617188 17.238281 18.222656 17.238281 18.222656 C 17.15625 18.105469 17.105469 18.058594 17.074219 18.042969 "/>
<path style="fill:none;stroke-width:1.441;stroke-linecap:butt;stroke-linejoin:miter;stroke:rgb(12.941176%,11.764706%,12.156863%);stroke-opacity:1;stroke-miterlimit:4;" d="M 136.59375 145.065469 L 136.25 145.065469 L 136.15625 145.379531 L 136.15625 145.348125 C 136.15625 145.348125 136.4375 146.133281 137.1875 147.044062 C 137.1875 147.044062 139.4375 150.2475 134.59375 148.582969 C 121 143.840625 130.40625 136.93125 130.40625 136.93125 L 130.34375 136.962656 C 130.34375 136.962656 139.8125 130.1475 140.15625 144.562969 C 140.25 149.682187 137.90625 146.510156 137.90625 146.510156 C 137.25 145.567969 136.84375 145.191094 136.59375 145.065469 Z M 136.59375 145.065469 " transform="matrix(0.125,0,0,0.124378,0,0)"/>
<path style=" stroke:none;fill-rule:nonzero;fill:rgb(100%,100%,100%);fill-opacity:1;" d="M 18.039062 18.078125 C 18.042969 18.0625 18.039062 18.042969 18.027344 18.035156 C 18.015625 18.03125 18 18.03125 17.984375 18.042969 C 17.957031 18.054688 17.90625 18.101562 17.820312 18.222656 C 17.820312 18.222656 17.527344 18.613281 17.539062 17.976562 C 17.582031 16.1875 18.765625 17.03125 18.765625 17.03125 L 18.757812 17.027344 C 18.757812 17.027344 19.933594 17.886719 18.230469 18.476562 C 17.628906 18.6875 17.910156 18.289062 17.910156 18.289062 C 18 18.171875 18.03125 18.113281 18.039062 18.078125 "/>
<path style="fill:none;stroke-width:1.441;stroke-linecap:butt;stroke-linejoin:miter;stroke:rgb(12.941176%,11.764706%,12.156863%);stroke-opacity:1;stroke-miterlimit:4;" d="M 144.3125 145.348125 L 144.21875 145.002656 L 143.875 145.065469 C 143.65625 145.159687 143.25 145.536562 142.5625 146.510156 C 142.5625 146.510156 140.21875 149.650781 140.3125 144.531562 C 140.65625 130.1475 150.125 136.93125 150.125 136.93125 L 150.0625 136.899844 C 150.0625 136.899844 159.46875 143.809219 145.84375 148.551562 C 141.03125 150.2475 143.28125 147.044062 143.28125 147.044062 C 144 146.101875 144.3125 145.348125 144.3125 145.348125 Z M 144.3125 145.348125 " transform="matrix(0.125,0,0,0.124378,0,0)"/>
<path style=" stroke:none;fill-rule:nonzero;fill:rgb(100%,100%,100%);fill-opacity:1;" d="M 18.300781 19 C 18.316406 19 18.332031 18.992188 18.335938 18.976562 C 18.34375 18.964844 18.332031 18.953125 18.320312 18.9375 C 18.296875 18.914062 18.234375 18.878906 18.09375 18.839844 C 18.09375 18.839844 17.628906 18.683594 18.242188 18.5 C 19.96875 17.984375 19.527344 19.367188 19.527344 19.367188 L 19.527344 19.359375 C 19.527344 19.359375 19.070312 20.734375 17.980469 19.308594 C 17.589844 18.804688 18.058594 18.949219 18.058594 18.949219 C 18.199219 18.996094 18.269531 19.003906 18.300781 19 "/>
<path style="fill:none;stroke-width:1.441;stroke-linecap:butt;stroke-linejoin:miter;stroke:rgb(12.941176%,11.764706%,12.156863%);stroke-opacity:1;stroke-miterlimit:4;" d="M 146.40625 152.76 L 146.6875 152.571562 C 146.6875 152.571562 146.65625 152.383125 146.5625 152.2575 C 146.375 152.069062 145.875 151.786406 144.75 151.472344 C 144.75 151.472344 141.03125 150.216094 145.9375 148.74 C 159.75 144.594375 156.21875 155.712187 156.21875 155.712187 L 156.21875 155.649375 C 156.21875 155.649375 152.5625 166.704375 143.84375 155.241094 C 140.71875 151.189687 144.46875 152.351719 144.46875 152.351719 C 145.59375 152.728594 146.40625 152.76 146.40625 152.76 Z M 146.40625 152.76 " transform="matrix(0.125,0,0,0.124378,0,0)"/>
<path style=" stroke:none;fill-rule:nonzero;fill:rgb(12.941176%,11.764706%,12.156863%);fill-opacity:1;" d="M 16.53125 17.351562 C 16.53125 17.351562 16.421875 17.425781 16.324219 17.457031 C 16.230469 17.484375 16.1875 17.554688 16.175781 17.574219 C 16.175781 17.574219 16.121094 17.695312 16.089844 17.644531 C 16.050781 17.597656 16.125 17.503906 16.125 17.503906 C 16.136719 17.484375 16.179688 17.414062 16.273438 17.382812 C 16.367188 17.355469 16.476562 17.28125 16.476562 17.28125 C 16.476562 17.28125 16.582031 17.199219 16.640625 17.117188 C 16.699219 17.039062 16.777344 17.019531 16.800781 17.015625 C 16.800781 17.015625 16.910156 16.976562 16.949219 17.023438 C 16.984375 17.078125 16.851562 17.085938 16.851562 17.085938 C 16.828125 17.09375 16.75 17.109375 16.691406 17.1875 C 16.636719 17.269531 16.53125 17.351562 16.53125 17.351562 "/>
<path style=" stroke:none;fill-rule:nonzero;fill:rgb(12.941176%,11.764706%,12.156863%);fill-opacity:1;" d="M 18.527344 17.347656 C 18.527344 17.347656 18.421875 17.269531 18.367188 17.1875 C 18.308594 17.109375 18.230469 17.089844 18.210938 17.082031 C 18.210938 17.082031 18.074219 17.074219 18.109375 17.023438 C 18.148438 16.972656 18.257812 17.015625 18.257812 17.015625 C 18.28125 17.015625 18.363281 17.035156 18.417969 17.117188 C 18.476562 17.195312 18.582031 17.28125 18.582031 17.28125 C 18.582031 17.28125 18.691406 17.351562 18.785156 17.382812 C 18.878906 17.414062 18.921875 17.480469 18.929688 17.5 C 18.929688 17.5 19.003906 17.59375 18.972656 17.644531 C 18.933594 17.695312 18.882812 17.570312 18.882812 17.570312 C 18.867188 17.550781 18.828125 17.484375 18.734375 17.453125 C 18.640625 17.421875 18.527344 17.347656 18.527344 17.347656 "/>
<path style=" stroke:none;fill-rule:nonzero;fill:rgb(12.941176%,11.764706%,12.156863%);fill-opacity:1;" d="M 19.148438 19.238281 C 19.148438 19.238281 19.195312 19.117188 19.253906 19.035156 C 19.316406 18.960938 19.304688 18.875 19.300781 18.855469 C 19.300781 18.855469 19.273438 18.722656 19.332031 18.742188 C 19.390625 18.765625 19.386719 18.882812 19.386719 18.882812 C 19.386719 18.902344 19.398438 18.984375 19.339844 19.0625 C 19.277344 19.140625 19.230469 19.269531 19.230469 19.269531 C 19.230469 19.269531 19.195312 19.398438 19.199219 19.492188 C 19.199219 19.59375 19.140625 19.652344 19.128906 19.671875 C 19.128906 19.671875 19.0625 19.769531 19.003906 19.75 C 18.941406 19.730469 19.046875 19.644531 19.046875 19.644531 C 19.058594 19.625 19.113281 19.5625 19.113281 19.46875 C 19.113281 19.371094 19.148438 19.238281 19.148438 19.238281 "/>
<path style=" stroke:none;fill-rule:nonzero;fill:rgb(12.941176%,11.764706%,12.156863%);fill-opacity:1;" d="M 17.53125 20.40625 C 17.53125 20.40625 17.667969 20.410156 17.757812 20.441406 C 17.851562 20.472656 17.925781 20.441406 17.949219 20.433594 C 17.949219 20.433594 18.0625 20.363281 18.0625 20.425781 C 18.0625 20.484375 17.949219 20.523438 17.949219 20.523438 C 17.925781 20.527344 17.851562 20.5625 17.757812 20.53125 C 17.667969 20.5 17.53125 20.492188 17.53125 20.492188 C 17.53125 20.492188 17.394531 20.5 17.304688 20.53125 C 17.210938 20.5625 17.136719 20.527344 17.113281 20.523438 C 17.113281 20.523438 17 20.484375 17 20.425781 C 17 20.363281 17.113281 20.433594 17.113281 20.433594 C 17.136719 20.441406 17.210938 20.472656 17.304688 20.441406 C 17.394531 20.410156 17.53125 20.40625 17.53125 20.40625 "/>
<path style=" stroke:none;fill-rule:nonzero;fill:rgb(12.941176%,11.764706%,12.156863%);fill-opacity:1;" d="M 15.917969 19.238281 C 15.917969 19.238281 15.957031 19.371094 15.953125 19.46875 C 15.953125 19.566406 16.007812 19.625 16.023438 19.644531 C 16.023438 19.644531 16.125 19.730469 16.066406 19.75 C 16.007812 19.769531 15.9375 19.671875 15.9375 19.671875 C 15.925781 19.652344 15.871094 19.59375 15.871094 19.492188 C 15.871094 19.398438 15.835938 19.269531 15.835938 19.269531 C 15.835938 19.269531 15.789062 19.140625 15.730469 19.0625 C 15.671875 18.984375 15.679688 18.902344 15.679688 18.882812 C 15.679688 18.882812 15.679688 18.765625 15.738281 18.742188 C 15.792969 18.722656 15.765625 18.855469 15.765625 18.855469 C 15.761719 18.875 15.753906 18.960938 15.816406 19.035156 C 15.875 19.117188 15.917969 19.238281 15.917969 19.238281 "/>
<path style=" stroke:none;fill-rule:nonzero;fill:rgb(100%,76.862745%,5.098039%);fill-opacity:1;" d="M 17.523438 18.386719 C 17.34375 18.386719 17.195312 18.535156 17.195312 18.714844 C 17.195312 18.898438 17.34375 19.042969 17.523438 19.042969 C 17.707031 19.042969 17.855469 18.898438 17.855469 18.714844 C 17.855469 18.535156 17.707031 18.386719 17.523438 18.386719 "/>
<path style="fill:none;stroke-width:0.571;stroke-linecap:butt;stroke-linejoin:miter;stroke:rgb(100%,76.862745%,5.098039%);stroke-opacity:1;stroke-miterlimit:4;" d="M 140.1875 147.829219 C 138.75 147.829219 137.5625 149.022656 137.5625 150.467344 C 137.5625 151.943437 138.75 153.105469 140.1875 153.105469 C 141.65625 153.105469 142.84375 151.943437 142.84375 150.467344 C 142.84375 149.022656 141.65625 147.829219 140.1875 147.829219 Z M 140.1875 147.829219 " transform="matrix(0.125,0,0,0.124378,0,0)"/>
<path style=" stroke:none;fill-rule:nonzero;fill:rgb(12.941176%,11.764706%,12.156863%);fill-opacity:1;" d="M 18.148438 12.449219 L 18.191406 13.332031 L 18.941406 12.847656 L 19.179688 13.230469 L 18.292969 13.742188 L 18.292969 13.925781 C 18.292969 13.925781 19.324219 14.5 18.066406 14.480469 L 18.066406 14.484375 C 17.625 14.851562 17.210938 14.488281 17.210938 14.488281 C 15.953125 14.511719 16.984375 13.9375 16.984375 13.9375 L 16.984375 13.753906 L 16.199219 13.148438 L 16.386719 12.746094 L 17.085938 13.34375 L 17.128906 12.460938 L 18.148438 12.449219 "/>
<path style=" stroke:none;fill-rule:nonzero;fill:rgb(13.333333%,69.803922%,29.803922%);fill-opacity:1;" d="M 19.082031 13.207031 C 19.8125 14.035156 20.347656 13.164062 20.347656 13.164062 C 21.265625 12.941406 20.71875 12.292969 20.71875 12.292969 C 21.679688 11.667969 20.550781 11.175781 20.550781 11.175781 C 20.546875 10.34375 19.832031 10.40625 19.832031 10.40625 C 19.089844 9.761719 18.378906 10.476562 18.378906 10.476562 C 17.265625 9.554688 16.421875 10.621094 16.421875 10.621094 C 16.421875 10.621094 15.707031 10.128906 15.390625 10.898438 C 15.390625 10.898438 14.253906 10.867188 14.679688 12.003906 C 14.679688 12.003906 13.804688 12.878906 14.945312 13.308594 C 14.945312 13.308594 15.554688 14.425781 16.390625 13.359375 C 16.390625 13.359375 16.902344 13.390625 16.820312 12.671875 C 16.820312 12.671875 17.472656 12.941406 18.089844 12.640625 C 18.089844 12.640625 18.285156 13.082031 18.710938 12.835938 C 18.710938 12.835938 18.644531 13.121094 19.054688 13.175781 L 19.082031 13.207031 "/>
<path style="fill:none;stroke-width:5.901;stroke-linecap:butt;stroke-linejoin:miter;stroke:rgb(12.941176%,11.764706%,12.156863%);stroke-opacity:1;stroke-miterlimit:4;" d="M 152.65625 106.184531 C 158.5 112.842656 162.78125 105.839062 162.78125 105.839062 C 170.125 104.048906 165.75 98.835469 165.75 98.835469 C 173.4375 93.810469 164.40625 89.853281 164.40625 89.853281 C 164.40625 83.16375 158.65625 83.66625 158.65625 83.66625 C 152.71875 78.484219 147.03125 84.231562 147.03125 84.231562 C 138.125 76.819687 131.375 85.393594 131.375 85.393594 C 131.375 85.393594 125.65625 81.436406 123.125 87.623437 C 123.125 87.623437 114.03125 87.372187 117.4375 96.511406 C 117.4375 96.511406 110.4375 103.546406 119.5625 107.001094 C 119.5625 107.001094 124.4375 115.983281 131.125 107.409375 C 131.125 107.409375 135.21875 107.660625 134.5625 101.881875 C 134.5625 101.881875 139.78125 104.048906 144.71875 101.630625 C 144.71875 101.630625 146.28125 105.179531 149.6875 103.200937 C 149.6875 103.200937 149.15625 105.493594 152.4375 105.933281 Z M 152.65625 106.184531 " transform="matrix(0.125,0,0,0.124378,0,0)"/>
<path style=" stroke:none;fill-rule:nonzero;fill:rgb(100%,76.078431%,5.490196%);fill-opacity:1;" d="M 9.335938 20.347656 L 9.390625 20.390625 C 9.203125 20.730469 9.175781 20.96875 9.304688 21.078125 C 9.398438 21.160156 9.523438 21.125 9.636719 21 C 9.6875 20.945312 9.71875 20.882812 9.71875 20.832031 C 9.71875 20.761719 9.664062 20.683594 9.605469 20.5625 C 9.496094 20.335938 9.5 20.152344 9.699219 19.921875 C 9.898438 19.695312 10.160156 19.621094 10.324219 19.761719 C 10.398438 19.828125 10.4375 19.917969 10.441406 20.03125 L 10.570312 19.992188 L 10.617188 20.03125 L 10.21875 20.515625 L 10.171875 20.46875 C 10.328125 20.148438 10.359375 19.953125 10.242188 19.855469 C 10.152344 19.773438 10.035156 19.800781 9.933594 19.921875 C 9.800781 20.070312 9.878906 20.15625 9.976562 20.339844 C 10.027344 20.441406 10.070312 20.523438 10.046875 20.644531 C 10.027344 20.753906 9.960938 20.878906 9.859375 21 C 9.640625 21.246094 9.390625 21.320312 9.21875 21.167969 C 9.128906 21.089844 9.089844 21 9.09375 20.859375 L 8.9375 20.910156 L 8.890625 20.871094 L 9.335938 20.347656 "/>
<path style=" stroke:none;fill-rule:nonzero;fill:rgb(100%,76.078431%,5.490196%);fill-opacity:1;" d="M 10.832031 20.511719 C 11.011719 20.425781 11.164062 20.429688 11.296875 20.523438 C 11.433594 20.617188 11.492188 20.753906 11.472656 20.960938 C 11.457031 21.144531 11.371094 21.351562 11.226562 21.5625 C 11.078125 21.765625 10.9375 21.902344 10.757812 21.984375 C 10.566406 22.074219 10.402344 22.074219 10.277344 21.984375 C 10.144531 21.894531 10.089844 21.753906 10.109375 21.539062 C 10.125 21.335938 10.199219 21.160156 10.347656 20.949219 C 10.492188 20.742188 10.660156 20.589844 10.832031 20.511719 M 10.347656 21.878906 C 10.488281 21.976562 10.699219 21.816406 10.992188 21.398438 C 11.285156 20.976562 11.363281 20.730469 11.222656 20.628906 C 11.082031 20.53125 10.875 20.691406 10.578125 21.109375 C 10.285156 21.527344 10.207031 21.78125 10.347656 21.878906 Z M 10.347656 21.878906 "/>
<path style=" stroke:none;fill-rule:nonzero;fill:rgb(100%,76.078431%,5.490196%);fill-opacity:1;" d="M 12.300781 21.328125 L 12.238281 21.292969 C 12.183594 21.265625 12.160156 21.285156 12.117188 21.371094 L 11.710938 22.125 C 11.5625 22.398438 11.554688 22.558594 11.714844 22.640625 C 11.785156 22.675781 11.859375 22.675781 11.925781 22.640625 C 12.027344 22.582031 12.097656 22.464844 12.199219 22.277344 L 12.492188 21.730469 C 12.578125 21.574219 12.59375 21.484375 12.488281 21.425781 C 12.488281 21.425781 12.480469 21.421875 12.480469 21.421875 L 12.539062 21.3125 L 12.882812 21.496094 L 12.824219 21.605469 C 12.714844 21.566406 12.660156 21.621094 12.574219 21.777344 L 12.273438 22.339844 C 12.183594 22.503906 12.117188 22.625 12.015625 22.710938 C 11.863281 22.839844 11.71875 22.855469 11.554688 22.765625 C 11.308594 22.636719 11.277344 22.402344 11.453125 22.066406 L 11.890625 21.253906 C 11.9375 21.167969 11.941406 21.136719 11.886719 21.109375 L 11.824219 21.074219 L 11.878906 20.964844 L 12.359375 21.21875 L 12.300781 21.328125 "/>
<path style=" stroke:none;fill-rule:nonzero;fill:rgb(100%,76.078431%,5.490196%);fill-opacity:1;" d="M 13.628906 21.914062 C 13.578125 21.898438 13.554688 21.917969 13.519531 22.003906 L 13.066406 23.140625 C 13.03125 23.226562 13.03125 23.257812 13.089844 23.28125 L 13.15625 23.308594 L 13.109375 23.421875 L 12.609375 23.222656 L 12.652344 23.105469 L 12.71875 23.132812 C 12.777344 23.15625 12.796875 23.132812 12.832031 23.046875 L 13.285156 21.910156 C 13.320312 21.824219 13.320312 21.796875 13.273438 21.777344 C 13.167969 21.734375 13.015625 21.875 12.863281 22.183594 L 12.796875 22.15625 L 13.054688 21.570312 L 13.925781 21.914062 L 13.707031 22.515625 L 13.644531 22.492188 C 13.742188 22.167969 13.730469 21.957031 13.628906 21.914062 "/>
<path style=" stroke:none;fill-rule:nonzero;fill:rgb(100%,76.078431%,5.490196%);fill-opacity:1;" d="M 14.375 23.6875 C 14.433594 23.703125 14.449219 23.675781 14.472656 23.585938 L 14.621094 23.050781 L 14.257812 22.953125 L 14.113281 23.488281 C 14.085938 23.578125 14.089844 23.609375 14.148438 23.625 L 14.21875 23.644531 L 14.183594 23.761719 L 13.664062 23.625 L 13.695312 23.503906 L 13.765625 23.519531 C 13.824219 23.539062 13.839844 23.515625 13.867188 23.421875 L 14.179688 22.257812 C 14.207031 22.167969 14.207031 22.136719 14.144531 22.117188 L 14.078125 22.101562 L 14.109375 21.980469 L 14.628906 22.125 L 14.597656 22.242188 L 14.53125 22.222656 C 14.472656 22.207031 14.453125 22.234375 14.425781 22.324219 L 14.296875 22.808594 L 14.660156 22.90625 L 14.789062 22.421875 C 14.816406 22.332031 14.816406 22.296875 14.753906 22.28125 L 14.6875 22.261719 L 14.71875 22.144531 L 15.238281 22.289062 L 15.210938 22.40625 L 15.136719 22.386719 C 15.078125 22.371094 15.0625 22.398438 15.035156 22.488281 L 14.722656 23.652344 C 14.699219 23.742188 14.699219 23.773438 14.757812 23.789062 L 14.828125 23.808594 L 14.796875 23.925781 L 14.269531 23.789062 L 14.304688 23.667969 L 14.375 23.6875 "/>
<path style=" stroke:none;fill-rule:nonzero;fill:rgb(100%,76.078431%,5.490196%);fill-opacity:1;" d="M 15.753906 23.960938 L 15.824219 23.96875 C 15.855469 23.96875 15.867188 23.953125 15.875 23.917969 C 15.875 23.902344 15.875 23.878906 15.875 23.851562 L 15.847656 23.582031 L 15.488281 23.527344 L 15.4375 23.648438 C 15.421875 23.683594 15.410156 23.730469 15.40625 23.761719 C 15.390625 23.867188 15.425781 23.910156 15.53125 23.929688 L 15.511719 24.050781 L 15.113281 23.992188 L 15.132812 23.871094 C 15.222656 23.863281 15.28125 23.765625 15.359375 23.585938 L 15.878906 22.359375 L 15.980469 22.375 L 16.148438 23.917969 C 16.15625 23.992188 16.175781 24.023438 16.226562 24.03125 L 16.210938 24.15625 L 15.738281 24.085938 L 15.753906 23.960938 M 15.546875 23.386719 L 15.835938 23.433594 L 15.78125 22.84375 Z M 15.546875 23.386719 "/>
<path style=" stroke:none;fill-rule:nonzero;fill:rgb(100%,76.078431%,5.490196%);fill-opacity:1;" d="M 16.804688 23.769531 C 16.796875 23.988281 16.824219 24.070312 16.957031 24.078125 L 16.953125 24.203125 L 16.546875 24.191406 L 16.546875 24.066406 C 16.671875 24.058594 16.699219 23.980469 16.703125 23.765625 L 16.730469 22.746094 C 16.734375 22.65625 16.722656 22.621094 16.664062 22.613281 L 16.589844 22.613281 L 16.59375 22.492188 L 17.050781 22.503906 L 17.25 23.523438 L 17.480469 22.511719 L 17.933594 22.523438 L 17.929688 22.648438 L 17.859375 22.644531 C 17.796875 22.644531 17.785156 22.671875 17.785156 22.765625 L 17.753906 23.972656 C 17.753906 24.066406 17.761719 24.097656 17.824219 24.097656 L 17.894531 24.097656 L 17.890625 24.222656 L 17.363281 24.210938 L 17.367188 24.085938 L 17.429688 24.085938 C 17.488281 24.089844 17.503906 24.058594 17.503906 23.96875 L 17.539062 22.695312 L 17.1875 24.207031 L 17.121094 24.207031 L 16.828125 22.6875 L 16.804688 23.769531 "/>
<path style=" stroke:none;fill-rule:nonzero;fill:rgb(100%,76.078431%,5.490196%);fill-opacity:1;" d="M 18.730469 24.03125 L 18.820312 24.023438 L 18.832031 24.144531 L 18.273438 24.203125 L 18.257812 24.078125 L 18.335938 24.070312 C 18.398438 24.0625 18.402344 24.035156 18.394531 23.941406 L 18.277344 22.742188 C 18.273438 22.648438 18.257812 22.621094 18.195312 22.625 L 18.121094 22.632812 L 18.109375 22.507812 L 18.730469 22.449219 C 18.988281 22.425781 19.132812 22.578125 19.164062 22.890625 C 19.199219 23.226562 19.058594 23.394531 18.742188 23.425781 C 18.699219 23.433594 18.652344 23.433594 18.601562 23.4375 L 18.648438 23.917969 C 18.660156 24.015625 18.671875 24.035156 18.730469 24.03125 M 18.589844 23.304688 C 18.605469 23.308594 18.628906 23.308594 18.660156 23.304688 C 18.851562 23.285156 18.921875 23.199219 18.894531 22.921875 C 18.871094 22.648438 18.796875 22.566406 18.628906 22.582031 C 18.539062 22.589844 18.523438 22.609375 18.535156 22.738281 Z M 18.589844 23.304688 "/>
<path style=" stroke:none;fill-rule:nonzero;fill:rgb(100%,76.078431%,5.490196%);fill-opacity:1;" d="M 19.992188 22.355469 C 19.941406 22.367188 19.933594 22.394531 19.953125 22.484375 L 20.199219 23.683594 C 20.21875 23.777344 20.234375 23.800781 20.296875 23.789062 L 20.363281 23.773438 L 20.390625 23.898438 L 19.863281 24.003906 L 19.835938 23.886719 L 19.90625 23.867188 C 19.96875 23.855469 19.96875 23.824219 19.953125 23.734375 L 19.703125 22.539062 C 19.683594 22.449219 19.667969 22.421875 19.617188 22.433594 C 19.507812 22.457031 19.457031 22.660156 19.5 22.996094 L 19.429688 23.011719 L 19.324219 22.382812 L 20.238281 22.191406 L 20.394531 22.8125 L 20.324219 22.828125 C 20.226562 22.503906 20.101562 22.332031 19.992188 22.355469 "/>
<path style=" stroke:none;fill-rule:nonzero;fill:rgb(100%,76.078431%,5.490196%);fill-opacity:1;" d="M 20.65625 22.296875 C 20.699219 22.105469 20.792969 21.984375 20.949219 21.933594 C 21.105469 21.882812 21.253906 21.921875 21.40625 22.058594 C 21.542969 22.183594 21.65625 22.378906 21.738281 22.617188 C 21.816406 22.855469 21.835938 23.050781 21.796875 23.242188 C 21.753906 23.449219 21.65625 23.578125 21.503906 23.628906 C 21.351562 23.675781 21.207031 23.636719 21.046875 23.492188 C 20.898438 23.359375 20.796875 23.191406 20.71875 22.949219 C 20.640625 22.707031 20.621094 22.480469 20.65625 22.296875 M 21.464844 23.503906 C 21.625 23.453125 21.625 23.1875 21.46875 22.703125 C 21.308594 22.21875 21.15625 22.003906 20.988281 22.058594 C 20.828125 22.113281 20.828125 22.375 20.988281 22.859375 C 21.148438 23.34375 21.300781 23.558594 21.464844 23.503906 Z M 21.464844 23.503906 "/>
<path style=" stroke:none;fill-rule:nonzero;fill:rgb(100%,76.078431%,5.490196%);fill-opacity:1;" d="M 22.320312 23.171875 C 22.429688 23.101562 22.417969 23.019531 22.328125 22.832031 L 21.898438 21.90625 L 21.851562 21.875 C 21.808594 21.839844 21.773438 21.816406 21.722656 21.84375 L 21.707031 21.851562 L 21.652344 21.742188 L 21.980469 21.589844 L 22.917969 22.324219 L 22.648438 21.746094 C 22.550781 21.539062 22.496094 21.488281 22.367188 21.546875 L 22.316406 21.433594 L 22.691406 21.257812 L 22.746094 21.371094 C 22.640625 21.429688 22.648438 21.507812 22.742188 21.707031 L 23.292969 22.882812 L 23.210938 22.921875 L 22.050781 22.007812 L 22.414062 22.796875 C 22.503906 22.992188 22.566406 23.050781 22.691406 23 L 22.746094 23.109375 L 22.375 23.28125 L 22.320312 23.171875 "/>
<path style=" stroke:none;fill-rule:nonzero;fill:rgb(100%,76.078431%,5.490196%);fill-opacity:1;" d="M 24.464844 20.863281 L 24.40625 20.902344 C 24.15625 20.632812 24.003906 20.585938 23.824219 20.707031 C 23.757812 20.753906 23.746094 20.773438 23.8125 20.875 L 24.097656 21.289062 C 24.105469 21.285156 24.109375 21.28125 24.113281 21.277344 C 24.21875 21.207031 24.210938 21.097656 24.09375 20.894531 L 24.152344 20.851562 L 24.597656 21.496094 L 24.535156 21.539062 C 24.386719 21.355469 24.289062 21.3125 24.1875 21.378906 C 24.183594 21.386719 24.175781 21.390625 24.171875 21.390625 L 24.492188 21.859375 C 24.546875 21.9375 24.566406 21.957031 24.621094 21.921875 L 24.703125 21.863281 L 24.773438 21.96875 L 24.304688 22.289062 L 24.234375 22.183594 L 24.292969 22.144531 C 24.347656 22.109375 24.335938 22.078125 24.285156 22.003906 L 23.601562 21.007812 C 23.546875 20.929688 23.519531 20.910156 23.472656 20.945312 L 23.410156 20.984375 L 23.339844 20.882812 L 24.105469 20.363281 L 24.464844 20.863281 "/>
<path style=" stroke:none;fill-rule:nonzero;fill:rgb(100%,76.078431%,5.490196%);fill-opacity:1;" d="M 25.839844 21.207031 C 25.746094 21.289062 25.625 21.3125 25.488281 21.285156 C 25.277344 21.246094 25.058594 21.097656 24.859375 20.863281 C 24.703125 20.683594 24.601562 20.492188 24.558594 20.308594 C 24.511719 20.101562 24.554688 19.953125 24.679688 19.84375 C 24.761719 19.777344 24.851562 19.753906 24.96875 19.777344 L 24.949219 19.632812 L 24.992188 19.59375 L 25.457031 20.097656 L 25.410156 20.15625 C 25.105469 19.898438 24.894531 19.824219 24.773438 19.921875 C 24.628906 20.046875 24.726562 20.277344 25.066406 20.667969 C 25.40625 21.066406 25.613281 21.191406 25.773438 21.058594 C 25.890625 20.953125 25.867188 20.75 25.6875 20.460938 L 25.773438 20.445312 C 26.003906 20.785156 26.023438 21.054688 25.839844 21.207031 "/>
<path style=" stroke:none;fill-rule:nonzero;fill:rgb(100%,100%,100%);fill-opacity:1;" d="M 7.605469 6.910156 L 7.878906 7.46875 L 7.117188 7.675781 L 7.355469 8.144531 L 8.117188 7.9375 L 8.355469 8.410156 L 7.59375 8.613281 L 7.828125 9.082031 L 8.589844 8.878906 L 8.832031 9.347656 L 8.0625 9.550781 L 8.300781 10.019531 L 9.066406 9.816406 L 9.410156 10.46875 C 9.550781 10.429688 9.695312 10.382812 9.832031 10.324219 L 8.046875 6.785156 C 7.917969 6.839844 7.773438 6.882812 7.605469 6.910156 "/>
<path style=" stroke:none;fill-rule:nonzero;fill:rgb(100%,100%,100%);fill-opacity:1;" d="M 9.699219 7.105469 C 9.644531 6.855469 10.21875 6.558594 10.679688 6.1875 L 10.070312 4.972656 C 9.828125 5.105469 9.5625 5.308594 9.292969 5.609375 C 9.222656 5.683594 9.160156 5.757812 9.097656 5.835938 L 9.699219 7.105469 "/>
<path style=" stroke:none;fill-rule:nonzero;fill:rgb(92.941176%,10.196078%,23.137255%);fill-opacity:1;" d="M 11.0625 4.949219 C 10.914062 4.75 10.535156 4.722656 10.070312 4.972656 L 10.679688 6.1875 C 11.101562 5.84375 11.425781 5.4375 11.0625 4.949219 "/>
<path style=" stroke:none;fill-rule:nonzero;fill:rgb(92.941176%,10.196078%,23.137255%);fill-opacity:1;" d="M 8.046875 6.785156 L 9.832031 10.324219 C 10.328125 10.117188 10.742188 9.828125 10.878906 9.613281 L 10.113281 7.988281 L 9.734375 7.183594 C 9.714844 7.15625 9.703125 7.132812 9.699219 7.105469 L 9.097656 5.835938 C 8.800781 6.207031 8.539062 6.578125 8.046875 6.785156 "/>
<path style=" stroke:none;fill-rule:nonzero;fill:rgb(92.941176%,10.196078%,23.137255%);fill-opacity:1;" d="M 7.605469 6.910156 C 7.367188 6.953125 7.085938 6.964844 6.746094 6.933594 L 7.117188 7.675781 L 7.878906 7.46875 L 7.605469 6.910156 "/>
<path style=" stroke:none;fill-rule:nonzero;fill:rgb(92.941176%,10.196078%,23.137255%);fill-opacity:1;" d="M 8.117188 7.9375 L 7.355469 8.144531 L 7.59375 8.613281 L 8.355469 8.410156 L 8.117188 7.9375 "/>
<path style=" stroke:none;fill-rule:nonzero;fill:rgb(92.941176%,10.196078%,23.137255%);fill-opacity:1;" d="M 8.589844 8.878906 L 7.828125 9.082031 L 8.0625 9.550781 L 8.832031 9.347656 L 8.589844 8.878906 "/>
<path style=" stroke:none;fill-rule:nonzero;fill:rgb(92.941176%,10.196078%,23.137255%);fill-opacity:1;" d="M 8.300781 10.019531 L 8.578125 10.578125 C 8.847656 10.59375 9.132812 10.546875 9.410156 10.46875 L 9.066406 9.816406 L 8.300781 10.019531 "/>
<path style=" stroke:none;fill-rule:nonzero;fill:rgb(100%,100%,100%);fill-opacity:1;" d="M 10.667969 6.199219 L 11.003906 6.871094 C 11.246094 6.667969 11.503906 6.429688 11.777344 6.199219 L 11.144531 5.074219 C 11.371094 5.511719 11.058594 5.878906 10.667969 6.199219 "/>
<path style=" stroke:none;fill-rule:nonzero;fill:rgb(92.941176%,10.196078%,23.137255%);fill-opacity:1;" d="M 9.734375 7.183594 C 9.75 7.207031 9.777344 7.230469 9.808594 7.253906 C 10.152344 7.492188 10.550781 7.25 11.003906 6.871094 L 10.667969 6.199219 C 10.164062 6.601562 9.523438 6.917969 9.734375 7.183594 "/>
<path style="fill:none;stroke-width:4.704;stroke-linecap:butt;stroke-linejoin:miter;stroke:rgb(12.941176%,11.764706%,12.156863%);stroke-opacity:1;stroke-miterlimit:4;" d="M 77.875 57.756094 C 74.8125 53.798906 94.875 48.428437 88.5 39.791719 C 86.71875 37.342031 80.65625 38.095781 74.34375 45.099375 C 69.46875 50.469844 67.3125 56.876719 53.96875 55.746094 L 68.625 85.048125 C 76.03125 85.425 85.09375 80.368594 87.03125 77.259375 Z M 77.875 57.756094 " transform="matrix(0.125,0,0,0.124378,0,0)"/>
<path style="fill:none;stroke-width:4.704;stroke-linecap:butt;stroke-linejoin:miter;stroke:rgb(12.941176%,11.764706%,12.156863%);stroke-opacity:1;stroke-miterlimit:4;" d="M 94.21875 49.841719 C 87.9375 55.117969 82.65625 61.242187 78.46875 58.321406 C 78.21875 58.132969 78 57.944531 77.875 57.756094 C 74.9375 53.955937 93.3125 48.868125 89.15625 40.796719 Z M 94.21875 49.841719 " transform="matrix(0.125,0,0,0.124378,0,0)"/>
<path style=" stroke:none;fill-rule:nonzero;fill:rgb(100%,100%,100%);fill-opacity:1;" d="M 27.308594 6.910156 L 27.035156 7.46875 L 27.792969 7.675781 L 27.558594 8.144531 L 26.796875 7.9375 L 26.558594 8.410156 L 27.320312 8.613281 L 27.085938 9.082031 L 26.324219 8.878906 L 26.082031 9.347656 L 26.847656 9.550781 L 26.613281 10.019531 L 25.84375 9.816406 L 25.503906 10.46875 C 25.359375 10.429688 25.21875 10.382812 25.082031 10.324219 L 26.863281 6.785156 C 26.996094 6.839844 27.136719 6.882812 27.308594 6.910156 "/>
<path style=" stroke:none;fill-rule:nonzero;fill:rgb(100%,100%,100%);fill-opacity:1;" d="M 25.214844 7.105469 C 25.265625 6.855469 24.695312 6.558594 24.234375 6.1875 L 24.84375 4.972656 C 25.085938 5.105469 25.351562 5.308594 25.621094 5.609375 C 25.691406 5.683594 25.753906 5.757812 25.816406 5.835938 L 25.214844 7.105469 "/>
<path style=" stroke:none;fill-rule:nonzero;fill:rgb(92.941176%,10.196078%,23.137255%);fill-opacity:1;" d="M 23.847656 4.949219 C 23.996094 4.75 24.375 4.722656 24.84375 4.972656 L 24.234375 6.1875 C 23.8125 5.84375 23.484375 5.4375 23.847656 4.949219 "/>
<path style=" stroke:none;fill-rule:nonzero;fill:rgb(92.941176%,10.196078%,23.137255%);fill-opacity:1;" d="M 26.863281 6.785156 L 25.082031 10.324219 C 24.585938 10.117188 24.171875 9.828125 24.03125 9.613281 L 25.179688 7.183594 C 25.199219 7.15625 25.210938 7.132812 25.214844 7.105469 L 25.816406 5.835938 C 26.117188 6.207031 26.371094 6.578125 26.863281 6.785156 "/>
<path style=" stroke:none;fill-rule:nonzero;fill:rgb(92.941176%,10.196078%,23.137255%);fill-opacity:1;" d="M 27.308594 6.910156 C 27.546875 6.953125 27.828125 6.964844 28.167969 6.933594 L 27.792969 7.675781 L 27.035156 7.46875 L 27.308594 6.910156 "/>
<path style=" stroke:none;fill-rule:nonzero;fill:rgb(92.941176%,10.196078%,23.137255%);fill-opacity:1;" d="M 26.796875 7.9375 L 27.558594 8.144531 L 27.320312 8.613281 L 26.558594 8.410156 L 26.796875 7.9375 "/>
<path style=" stroke:none;fill-rule:nonzero;fill:rgb(92.941176%,10.196078%,23.137255%);fill-opacity:1;" d="M 26.324219 8.878906 L 27.085938 9.082031 L 26.847656 9.550781 L 26.082031 9.347656 L 26.324219 8.878906 "/>
<path style=" stroke:none;fill-rule:nonzero;fill:rgb(92.941176%,10.196078%,23.137255%);fill-opacity:1;" d="M 26.613281 10.019531 L 26.332031 10.578125 C 26.066406 10.59375 25.78125 10.546875 25.503906 10.46875 L 25.84375 9.816406 L 26.613281 10.019531 "/>
<path style=" stroke:none;fill-rule:nonzero;fill:rgb(100%,100%,100%);fill-opacity:1;" d="M 24.246094 6.199219 L 23.90625 6.871094 C 23.667969 6.667969 23.40625 6.429688 23.136719 6.199219 L 23.769531 5.074219 C 23.542969 5.511719 23.855469 5.878906 24.246094 6.199219 "/>
<path style=" stroke:none;fill-rule:nonzero;fill:rgb(92.941176%,10.196078%,23.137255%);fill-opacity:1;" d="M 25.179688 7.183594 C 25.160156 7.207031 25.132812 7.230469 25.101562 7.253906 C 24.761719 7.492188 24.363281 7.25 23.90625 6.871094 L 24.246094 6.199219 C 24.75 6.601562 25.386719 6.917969 25.179688 7.183594 "/>
<path style="fill:none;stroke-width:4.704;stroke-linecap:butt;stroke-linejoin:miter;stroke:rgb(12.941176%,11.764706%,12.156863%);stroke-opacity:1;stroke-miterlimit:4;" d="M 201.4375 57.756094 C 204.5 53.798906 184.4375 48.428437 190.78125 39.791719 C 192.59375 37.342031 198.65625 38.095781 204.96875 45.099375 C 209.84375 50.469844 212 56.876719 225.34375 55.746094 L 210.65625 85.048125 C 203.28125 85.425 194.21875 80.368594 192.25 77.259375 Z M 201.4375 57.756094 " transform="matrix(0.125,0,0,0.124378,0,0)"/>
<path style="fill:none;stroke-width:4.704;stroke-linecap:butt;stroke-linejoin:miter;stroke:rgb(12.941176%,11.764706%,12.156863%);stroke-opacity:1;stroke-miterlimit:4;" d="M 185.09375 49.841719 C 191.375 55.117969 196.625 61.242187 200.8125 58.321406 C 201.0625 58.132969 201.28125 57.944531 201.4375 57.756094 C 204.375 53.955937 185.96875 48.868125 190.15625 40.796719 Z M 185.09375 49.841719 " transform="matrix(0.125,0,0,0.124378,0,0)"/>
<path style=" stroke:none;fill-rule:nonzero;fill:rgb(100%,100%,100%);fill-opacity:1;" d="M 19.746094 6.078125 C 19.582031 6.210938 19.300781 6.402344 18.980469 6.59375 L 18.980469 9.113281 C 19.339844 8.894531 19.703125 8.664062 20.046875 8.480469 L 20.046875 5.867188 C 19.929688 5.945312 19.824219 6.019531 19.746094 6.078125 "/>
<path style=" stroke:none;fill-rule:nonzero;fill:rgb(100%,100%,100%);fill-opacity:1;" d="M 21.457031 5.394531 C 21.441406 5.394531 21.425781 5.398438 21.410156 5.398438 L 21.050781 8.121094 C 21.0625 8.121094 21.078125 8.117188 21.09375 8.117188 C 21.390625 8.117188 21.664062 8.214844 21.925781 8.363281 L 22.734375 5.886719 C 22.335938 5.605469 21.910156 5.394531 21.457031 5.394531 "/>
<path style=" stroke:none;fill-rule:nonzero;fill:rgb(100%,100%,100%);fill-opacity:1;" d="M 25.101562 7.253906 C 24.765625 7.488281 24.367188 7.253906 23.917969 6.878906 L 22.863281 9.070312 C 23.292969 9.4375 23.671875 9.742188 24.03125 9.609375 L 25.179688 7.183594 C 25.160156 7.207031 25.132812 7.230469 25.101562 7.253906 "/>
<path style=" stroke:none;fill-rule:nonzero;fill:rgb(100%,100%,100%);fill-opacity:1;" d="M 9.808594 7.253906 C 9.777344 7.230469 9.75 7.207031 9.734375 7.183594 L 10.878906 9.609375 C 11.242188 9.746094 11.621094 9.4375 12.050781 9.070312 L 10.992188 6.878906 C 10.542969 7.253906 10.148438 7.488281 9.808594 7.253906 "/>
<path style=" stroke:none;fill-rule:nonzero;fill:rgb(100%,100%,100%);fill-opacity:1;" d="M 17.457031 7.246094 C 17.351562 7.246094 17.210938 7.210938 17.050781 7.15625 L 17.050781 9.691406 C 17.199219 9.742188 17.335938 9.769531 17.457031 9.769531 C 17.578125 9.769531 17.714844 9.742188 17.859375 9.691406 L 17.859375 7.15625 C 17.703125 7.210938 17.5625 7.246094 17.457031 7.246094 "/>
<path style=" stroke:none;fill-rule:nonzero;fill:rgb(100%,100%,100%);fill-opacity:1;" d="M 13.457031 5.394531 C 13.003906 5.394531 12.574219 5.605469 12.179688 5.886719 L 12.992188 8.363281 C 13.246094 8.214844 13.523438 8.117188 13.820312 8.117188 C 13.832031 8.117188 13.847656 8.121094 13.863281 8.121094 L 13.5 5.398438 C 13.488281 5.398438 13.472656 5.394531 13.457031 5.394531 "/>
<path style=" stroke:none;fill-rule:nonzero;fill:rgb(100%,100%,100%);fill-opacity:1;" d="M 15.164062 6.078125 C 15.089844 6.019531 14.988281 5.945312 14.867188 5.867188 L 14.867188 8.480469 C 15.210938 8.664062 15.574219 8.894531 15.929688 9.113281 L 15.929688 6.59375 C 15.613281 6.398438 15.328125 6.210938 15.164062 6.078125 "/>
<path style=" stroke:none;fill-rule:nonzero;fill:rgb(92.941176%,10.196078%,23.137255%);fill-opacity:1;" d="M 15.929688 6.59375 L 15.929688 9.113281 C 16.328125 9.355469 16.71875 9.578125 17.050781 9.691406 L 17.050781 7.15625 C 16.71875 7.035156 16.300781 6.816406 15.929688 6.59375 "/>
<path style=" stroke:none;fill-rule:nonzero;fill:rgb(92.941176%,10.196078%,23.137255%);fill-opacity:1;" d="M 13.5 5.398438 L 13.863281 8.121094 C 14.144531 8.132812 14.492188 8.277344 14.867188 8.480469 L 14.867188 5.867188 C 14.523438 5.652344 14.027344 5.414062 13.5 5.398438 "/>
<path style=" stroke:none;fill-rule:nonzero;fill:rgb(92.941176%,10.196078%,23.137255%);fill-opacity:1;" d="M 10.992188 6.878906 L 12.050781 9.070312 C 12.335938 8.824219 12.644531 8.550781 12.992188 8.363281 L 12.179688 5.886719 C 11.75 6.191406 11.355469 6.578125 10.992188 6.878906 "/>
<path style=" stroke:none;fill-rule:nonzero;fill:rgb(92.941176%,10.196078%,23.137255%);fill-opacity:1;" d="M 17.859375 7.15625 L 17.859375 9.691406 C 18.195312 9.578125 18.582031 9.355469 18.980469 9.113281 L 18.980469 6.59375 C 18.613281 6.816406 18.195312 7.035156 17.859375 7.15625 "/>
<path style=" stroke:none;fill-rule:nonzero;fill:rgb(92.941176%,10.196078%,23.137255%);fill-opacity:1;" d="M 20.046875 5.867188 L 20.046875 8.480469 C 20.421875 8.277344 20.765625 8.132812 21.050781 8.121094 L 21.410156 5.398438 C 20.886719 5.414062 20.390625 5.652344 20.046875 5.867188 "/>
<path style=" stroke:none;fill-rule:nonzero;fill:rgb(92.941176%,10.196078%,23.137255%);fill-opacity:1;" d="M 22.734375 5.886719 L 21.925781 8.363281 C 22.265625 8.550781 22.574219 8.824219 22.863281 9.070312 L 23.917969 6.878906 C 23.558594 6.578125 23.164062 6.191406 22.734375 5.886719 "/>
<path style="fill:none;stroke-width:4.704;stroke-linecap:butt;stroke-linejoin:miter;stroke:rgb(12.941176%,11.764706%,12.156863%);stroke-opacity:1;stroke-miterlimit:4;" d="M 139.65625 78.547031 C 147 78.547031 161.03125 65.262187 168.75 65.262187 C 179 65.262187 186 79.614844 192.25 77.259375 L 201.4375 57.756094 C 201.28125 57.944531 201.0625 58.132969 200.8125 58.321406 C 193.9375 63.189375 184.125 43.372031 171.65625 43.372031 C 165.8125 43.372031 160.40625 46.98375 157.96875 48.868125 C 154.375 51.7575 143.78125 58.258594 139.65625 58.258594 C 135.5625 58.258594 124.9375 51.7575 121.3125 48.868125 C 118.90625 46.98375 113.46875 43.372031 107.65625 43.372031 C 95.1875 43.372031 85.375 63.157969 78.46875 58.321406 C 78.21875 58.132969 78 57.944531 77.875 57.756094 L 87.03125 77.259375 C 93.3125 79.614844 100.3125 65.262187 110.5625 65.262187 C 118.25 65.262187 132.34375 78.547031 139.65625 78.547031 Z M 139.65625 78.547031 " transform="matrix(0.125,0,0,0.124378,0,0)"/>
<path style=" stroke:none;fill-rule:nonzero;fill:rgb(12.941176%,11.764706%,12.156863%);fill-opacity:1;" d="M 17.496094 4.769531 C 19.863281 4.769531 21.785156 3.734375 21.785156 2.460938 C 21.785156 1.183594 19.863281 0.148438 17.496094 0.148438 C 15.128906 0.148438 13.207031 1.183594 13.207031 2.460938 C 13.207031 3.734375 15.128906 4.769531 17.496094 4.769531 "/>
<path style="fill:none;stroke-width:2.356;stroke-linecap:butt;stroke-linejoin:miter;stroke:rgb(100%,100%,100%);stroke-opacity:1;stroke-miterlimit:4;" d="M 139.96875 38.347031 C 158.90625 38.347031 174.28125 30.024375 174.28125 19.785937 C 174.28125 9.516094 158.90625 1.193437 139.96875 1.193437 C 121.03125 1.193437 105.65625 9.516094 105.65625 19.785937 C 105.65625 30.024375 121.03125 38.347031 139.96875 38.347031 Z M 139.96875 38.347031 " transform="matrix(0.125,0,0,0.124378,0,0)"/>
<path style=" stroke:none;fill-rule:nonzero;fill:rgb(100%,76.078431%,5.490196%);fill-opacity:1;" d="M 17.5 4.394531 C 19.605469 4.394531 21.3125 3.527344 21.3125 2.460938 C 21.3125 1.390625 19.605469 0.523438 17.5 0.523438 C 15.394531 0.523438 13.691406 1.390625 13.691406 2.460938 C 13.691406 3.527344 15.394531 4.394531 17.5 4.394531 "/>
<path style="fill:none;stroke-width:0.002;stroke-linecap:butt;stroke-linejoin:miter;stroke:rgb(12.941176%,11.764706%,12.156863%);stroke-opacity:1;stroke-miterlimit:4;" d="M 140 35.332031 C 156.84375 35.332031 170.5 28.359844 170.5 19.785937 C 170.5 11.180625 156.84375 4.208437 140 4.208437 C 123.15625 4.208437 109.53125 11.180625 109.53125 19.785937 C 109.53125 28.359844 123.15625 35.332031 140 35.332031 Z M 140 35.332031 " transform="matrix(0.125,0,0,0.124378,0,0)"/>
<path style=" stroke:none;fill-rule:nonzero;fill:rgb(100%,100%,100%);fill-opacity:1;" d="M 17.503906 3.929688 C 19.214844 3.929688 20.609375 3.378906 20.609375 2.695312 C 20.609375 2.015625 19.214844 1.460938 17.503906 1.460938 C 15.789062 1.460938 14.398438 2.015625 14.398438 2.695312 C 14.398438 3.378906 15.789062 3.929688 17.503906 3.929688 "/>
<path style="fill:none;stroke-width:9.436;stroke-linecap:butt;stroke-linejoin:miter;stroke:rgb(12.941176%,11.764706%,12.156863%);stroke-opacity:1;stroke-miterlimit:4;" d="M 140.03125 31.594687 C 153.71875 31.594687 164.875 27.166406 164.875 21.670312 C 164.875 16.205625 153.71875 11.745937 140.03125 11.745937 C 126.3125 11.745937 115.1875 16.205625 115.1875 21.670312 C 115.1875 27.166406 126.3125 31.594687 140.03125 31.594687 Z M 140.03125 31.594687 " transform="matrix(0.125,0,0,0.124378,0,0)"/>
<path style=" stroke:none;fill-rule:nonzero;fill:rgb(100%,100%,100%);fill-opacity:1;" d="M 17.492188 1.816406 C 15.84375 1.816406 14.507812 3.148438 14.507812 4.789062 C 14.507812 6.429688 15.84375 7.761719 17.492188 7.761719 L 17.457031 7.761719 C 19.105469 7.761719 20.445312 6.429688 20.445312 4.789062 C 20.445312 3.148438 19.105469 1.816406 17.457031 1.816406 L 17.492188 1.816406 "/>
<path style="fill:none;stroke-width:4.704;stroke-linecap:butt;stroke-linejoin:miter;stroke:rgb(12.941176%,11.764706%,12.156863%);stroke-opacity:1;stroke-miterlimit:4;" d="M 139.9375 14.603906 C 126.75 14.603906 116.0625 25.313437 116.0625 38.504062 C 116.0625 51.694687 126.75 62.404219 139.9375 62.404219 L 139.65625 62.404219 C 152.84375 62.404219 163.5625 51.694687 163.5625 38.504062 C 163.5625 25.313437 152.84375 14.603906 139.65625 14.603906 Z M 139.9375 14.603906 " transform="matrix(0.125,0,0,0.124378,0,0)"/>
<path style=" stroke:none;fill-rule:nonzero;fill:rgb(12.941176%,11.764706%,12.156863%);fill-opacity:1;" d="M 16.996094 7.246094 L 16.382812 6.207031 L 15.257812 6.023438 L 14.972656 6.378906 C 14.988281 6.398438 14.992188 6.417969 15.007812 6.433594 L 15.054688 6.503906 C 15.433594 7.03125 15.976562 7.433594 16.613281 7.628906 L 16.730469 7.652344 L 16.996094 7.246094 "/>
<path style=" stroke:none;fill-rule:nonzero;fill:rgb(12.941176%,11.764706%,12.156863%);fill-opacity:1;" d="M 16.226562 4.378906 L 16.710938 5.859375 L 18.238281 5.859375 L 18.722656 4.378906 L 17.472656 3.476562 L 16.226562 4.378906 "/>
<path style=" stroke:none;fill-rule:nonzero;fill:rgb(12.941176%,11.764706%,12.156863%);fill-opacity:1;" d="M 17.472656 2.878906 L 17.472656 2.875 L 18.402344 2.269531 L 18.402344 1.972656 C 18.109375 1.875 17.800781 1.820312 17.472656 1.816406 C 17.152344 1.820312 16.839844 1.875 16.546875 1.972656 L 16.546875 2.269531 L 17.472656 2.878906 "/>
<path style=" stroke:none;fill-rule:nonzero;fill:rgb(12.941176%,11.764706%,12.156863%);fill-opacity:1;" d="M 15.753906 3.90625 L 15.785156 2.726562 L 15.542969 2.539062 C 15.417969 2.648438 15.300781 2.765625 15.195312 2.894531 L 15.183594 2.90625 C 14.84375 3.320312 14.613281 3.824219 14.539062 4.378906 L 14.804688 4.496094 L 15.753906 3.90625 "/>
<path style=" stroke:none;fill-rule:nonzero;fill:rgb(12.941176%,11.764706%,12.156863%);fill-opacity:1;" d="M 18.570312 6.207031 L 17.957031 7.246094 L 18.222656 7.652344 L 18.332031 7.628906 C 18.980469 7.433594 19.535156 7.019531 19.914062 6.480469 L 19.9375 6.441406 C 19.953125 6.421875 19.964844 6.398438 19.976562 6.378906 L 19.691406 6.023438 L 18.570312 6.207031 "/>
<path style=" stroke:none;fill-rule:nonzero;fill:rgb(12.941176%,11.764706%,12.156863%);fill-opacity:1;" d="M 19.199219 3.90625 L 20.144531 4.496094 L 20.410156 4.378906 C 20.335938 3.824219 20.105469 3.3125 19.761719 2.898438 C 19.65625 2.769531 19.53125 2.652344 19.40625 2.539062 L 19.164062 2.726562 L 19.199219 3.90625 "/>
</g>
</svg>
