<?xml version="1.0" encoding="UTF-8"?>
<svg xmlns="http://www.w3.org/2000/svg" xmlns:xlink="http://www.w3.org/1999/xlink" width="21pt" height="25pt" viewBox="0 0 21 25" version="1.1">
<g id="surface1">
<path style=" stroke:none;fill-rule:evenodd;fill:rgb(100%,100%,100%);fill-opacity:1;" d="M 20.59375 17.082031 L 20.585938 17.074219 L 19.574219 16.175781 L 19.359375 15.972656 C 19.15625 15.765625 18.839844 15.511719 18.300781 15.527344 C 18.210938 15.527344 18.121094 15.535156 18.03125 15.554688 C 18.125 15.117188 18.195312 14.652344 18.238281 14.167969 C 18.265625 13.828125 18.28125 13.496094 18.285156 13.171875 C 18.285156 13.164062 18.285156 13.042969 18.285156 13.042969 L 18.277344 12.78125 L 18.277344 12.800781 L 18.277344 0 L 2.664062 0 L 2.664062 12.800781 L 2.667969 12.777344 L 2.660156 13.042969 L 2.660156 13.171875 C 2.660156 13.496094 2.675781 13.828125 2.707031 14.167969 C 2.75 14.652344 2.816406 15.113281 2.910156 15.550781 C 2.828125 15.535156 2.742188 15.527344 2.65625 15.527344 C 2.117188 15.511719 1.800781 15.765625 1.597656 15.972656 L 1.378906 16.175781 L 0.367188 17.074219 L 0.359375 17.082031 C 0.0117188 17.4375 -0.0234375 17.785156 0.0078125 18.011719 C 0.101562 18.660156 0.910156 19.136719 0.992188 19.183594 L 1.464844 18.804688 C 1.800781 18.671875 1.996094 18.859375 1.996094 18.859375 C 2.027344 18.878906 2.140625 18.972656 2.210938 19.347656 L 2.25 19.566406 C 1.988281 19.800781 1.800781 19.964844 1.800781 19.964844 L 1.960938 20.203125 C 2.425781 20.894531 2.605469 21.105469 2.910156 21.453125 C 4.933594 23.773438 7.542969 25 10.449219 25 L 10.496094 25 C 13.402344 25 16.007812 23.773438 18.035156 21.453125 C 18.335938 21.105469 18.515625 20.894531 18.984375 20.203125 L 19.140625 19.964844 C 19.140625 19.964844 18.960938 19.804688 18.703125 19.578125 L 18.746094 19.347656 C 18.816406 18.972656 18.929688 18.878906 18.960938 18.859375 C 18.960938 18.859375 19.15625 18.671875 19.488281 18.804688 L 19.964844 19.183594 C 20.046875 19.136719 20.855469 18.660156 20.945312 18.011719 C 20.980469 17.785156 20.945312 17.4375 20.59375 17.082031 Z M 20.59375 17.082031 "/>
<path style=" stroke:none;fill-rule:evenodd;fill:rgb(10.588235%,26.666667%,61.176471%);fill-opacity:1;" d="M 19.378906 16.351562 C 19.378906 16.351562 19.890625 17.46875 18.335938 17.585938 L 19.9375 18.863281 C 19.9375 18.863281 21.222656 18.097656 20.414062 17.277344 Z M 19.378906 16.351562 "/>
<path style=" stroke:none;fill-rule:evenodd;fill:rgb(87.843137%,22.745098%,24.313725%);fill-opacity:1;" d="M 19.054688 17.078125 C 19.339844 16.773438 19.066406 16.261719 19.066406 16.261719 C 19.066406 16.261719 18.820312 15.792969 18.324219 15.8125 C 18.203125 15.8125 18.082031 15.832031 17.957031 15.875 C 17.855469 16.285156 17.730469 16.671875 17.582031 17.03125 C 17.5625 17.085938 17.386719 17.519531 17.039062 18.109375 C 17.082031 18.148438 17.144531 18.203125 17.226562 18.277344 L 18.429688 19.332031 C 18.578125 18.296875 19.148438 18.550781 19.148438 18.550781 L 17.800781 17.453125 C 18.828125 17.414062 19.054688 17.078125 19.054688 17.078125 Z M 19.054688 17.078125 "/>
<path style=" stroke:none;fill-rule:evenodd;fill:rgb(10.588235%,26.666667%,61.176471%);fill-opacity:1;" d="M 1.566406 16.363281 C 1.566406 16.363281 1.054688 17.480469 2.605469 17.597656 L 1.003906 18.875 C 1.003906 18.875 -0.277344 18.113281 0.53125 17.292969 Z M 1.566406 16.363281 "/>
<path style=" stroke:none;fill-rule:evenodd;fill:rgb(87.843137%,22.745098%,24.313725%);fill-opacity:1;" d="M 1.886719 17.089844 C 1.601562 16.785156 1.875 16.273438 1.875 16.273438 C 1.875 16.273438 2.121094 15.804688 2.617188 15.828125 C 2.738281 15.824219 2.863281 15.847656 2.984375 15.886719 C 3.085938 16.296875 3.210938 16.6875 3.359375 17.046875 C 3.378906 17.097656 3.554688 17.53125 3.90625 18.125 C 3.863281 18.160156 3.796875 18.21875 3.71875 18.289062 L 2.515625 19.347656 C 2.367188 18.308594 1.792969 18.5625 1.792969 18.5625 L 3.144531 17.46875 C 2.117188 17.425781 1.886719 17.089844 1.886719 17.089844 Z M 1.886719 17.089844 "/>
<path style=" stroke:none;fill-rule:evenodd;fill:rgb(10.588235%,26.666667%,61.176471%);fill-opacity:1;" d="M 16.628906 18.175781 C 17.066406 17.476562 17.277344 16.949219 17.289062 16.914062 L 17.285156 16.929688 C 17.617188 16.132812 17.832031 15.195312 17.921875 14.136719 C 17.949219 13.8125 17.964844 13.484375 17.96875 13.171875 C 17.96875 13.125 17.96875 13.082031 17.96875 13.042969 C 17.96875 12.953125 17.964844 12.871094 17.960938 12.800781 C 17.960938 12.777344 17.960938 0.320312 17.960938 0.320312 L 2.980469 0.320312 C 2.980469 0.320312 2.980469 12.777344 2.980469 12.800781 C 2.976562 12.871094 2.976562 12.953125 2.976562 13.042969 C 2.976562 13.082031 2.976562 13.125 2.976562 13.171875 C 2.976562 13.484375 2.992188 13.8125 3.023438 14.136719 C 3.113281 15.191406 3.324219 16.125 3.65625 16.917969 C 3.679688 16.984375 3.890625 17.5 4.3125 18.179688 L 2.222656 20.019531 C 2.6875 20.710938 2.859375 20.910156 3.148438 21.242188 C 5.109375 23.488281 7.632812 24.679688 10.449219 24.679688 L 10.496094 24.679688 C 13.308594 24.679688 15.835938 23.488281 17.796875 21.242188 C 18.082031 20.910156 18.257812 20.710938 18.722656 20.019531 Z M 16.628906 18.175781 "/>
<path style=" stroke:none;fill-rule:evenodd;fill:rgb(100%,100%,100%);fill-opacity:1;" d="M 10.472656 1.023438 L 3.667969 1.023438 L 3.667969 12.8125 C 3.667969 12.8125 3.558594 14.902344 4.292969 16.65625 C 4.292969 16.65625 6.035156 21.183594 10.449219 21.183594 L 10.472656 21.183594 C 14.886719 21.183594 16.652344 16.65625 16.652344 16.65625 C 17.382812 14.902344 17.273438 12.8125 17.273438 12.8125 L 17.273438 1.023438 Z M 10.472656 1.023438 "/>
<path style=" stroke:none;fill-rule:evenodd;fill:rgb(87.843137%,22.745098%,24.313725%);fill-opacity:1;" d="M 9.210938 7.722656 L 11.71875 7.722656 L 11.71875 17.714844 L 9.210938 17.714844 Z M 9.210938 7.722656 "/>
<path style=" stroke:none;fill-rule:evenodd;fill:rgb(87.843137%,22.745098%,24.313725%);fill-opacity:1;" d="M 7.148438 3.949219 L 7.148438 2.265625 C 6.808594 2.28125 6.492188 2.363281 6.1875 2.503906 L 6.382812 1.878906 L 8.820312 1.878906 L 8.558594 2.433594 C 8.347656 2.328125 8.117188 2.269531 7.835938 2.265625 L 7.835938 3.949219 C 7.835938 4.214844 7.871094 4.449219 7.976562 4.675781 L 7.007812 4.675781 C 7.113281 4.449219 7.148438 4.214844 7.148438 3.949219 Z M 7.148438 3.949219 "/>
<path style=" stroke:none;fill-rule:evenodd;fill:rgb(87.843137%,22.745098%,24.313725%);fill-opacity:1;" d="M 11.84375 3.949219 L 11.84375 2.605469 C 11.84375 2.339844 11.808594 2.105469 11.703125 1.878906 L 12.671875 1.878906 C 12.566406 2.105469 12.53125 2.339844 12.53125 2.605469 L 12.53125 3.144531 L 13.371094 2.179688 C 13.453125 2.082031 13.496094 1.996094 13.496094 1.914062 C 13.496094 1.902344 13.492188 1.890625 13.492188 1.878906 L 14.574219 1.878906 C 14.316406 2.042969 14.117188 2.191406 13.984375 2.335938 L 13.265625 3.128906 L 14.242188 4.300781 C 14.335938 4.414062 14.460938 4.535156 14.625 4.675781 L 13.542969 4.675781 C 13.546875 4.640625 13.550781 4.609375 13.550781 4.578125 C 13.550781 4.46875 13.5 4.378906 13.414062 4.273438 L 12.53125 3.195312 L 12.53125 3.949219 C 12.53125 4.214844 12.566406 4.449219 12.671875 4.675781 L 11.703125 4.675781 C 11.808594 4.449219 11.84375 4.214844 11.84375 3.949219 Z M 11.84375 3.949219 "/>
<path style=" stroke:none;fill-rule:evenodd;fill:rgb(87.843137%,22.745098%,24.313725%);fill-opacity:1;" d="M 14.890625 3.949219 L 14.890625 2.605469 C 14.890625 2.339844 14.855469 2.105469 14.75 1.878906 L 16.625 1.878906 L 16.3125 2.425781 C 16.117188 2.347656 15.875 2.308594 15.578125 2.300781 L 15.578125 3.074219 L 16.527344 3.074219 L 16.171875 3.578125 C 16.039062 3.492188 15.859375 3.457031 15.640625 3.457031 C 15.617188 3.457031 15.601562 3.457031 15.578125 3.457031 L 15.578125 4.257812 C 15.671875 4.261719 15.761719 4.265625 15.851562 4.265625 C 16.242188 4.265625 16.570312 4.222656 16.84375 4.117188 L 16.582031 4.675781 L 14.75 4.675781 C 14.855469 4.449219 14.890625 4.214844 14.890625 3.949219 Z M 14.890625 3.949219 "/>
<path style="fill-rule:evenodd;fill:rgb(87.843137%,22.745098%,24.313725%);fill-opacity:1;stroke-width:1.674653;stroke-linecap:butt;stroke-linejoin:miter;stroke:rgb(87.843137%,22.745098%,24.313725%);stroke-opacity:1;stroke-miterlimit:4;" d="M 2372.085442 1298.16678 C 2365.485605 1298.16678 2360.810721 1302.557022 2360.810721 1309.378782 C 2360.810721 1316.335627 2365.69185 1320.793412 2372.979169 1320.793412 C 2377.104067 1320.793412 2380.128992 1319.442568 2382.878924 1316.470712 L 2381.8477 1323.83281 C 2378.341537 1325.183654 2374.629129 1325.859076 2370.641727 1325.859076 C 2366.173088 1325.859076 2362.391932 1324.845943 2359.22951 1322.752135 C 2354.623375 1319.712737 2352.354681 1315.660206 2352.354681 1310.527 C 2352.354681 1305.191167 2354.898368 1300.530756 2359.435755 1297.288731 C 2363.423156 1294.519502 2368.235537 1293.033574 2373.666652 1293.033574 C 2376.279088 1293.033574 2379.235264 1293.438827 2382.260189 1294.316875 L 2382.260189 1302.286853 C 2379.097768 1299.585166 2375.729101 1298.16678 2372.085442 1298.16678 Z M 2372.085442 1298.16678 " transform="matrix(0.0568196,0,0,0.0578342,-126.366861,-69.49644)"/>
<path style="fill-rule:evenodd;fill:rgb(87.843137%,22.745098%,24.313725%);fill-opacity:1;stroke-width:1.674653;stroke-linecap:butt;stroke-linejoin:miter;stroke:rgb(87.843137%,22.745098%,24.313725%);stroke-opacity:1;stroke-miterlimit:4;" d="M 2389.066271 1317.078592 L 2389.066271 1301.678973 C 2389.066271 1298.639575 2388.653781 1295.937888 2387.48506 1293.303742 L 2398.416039 1293.303742 C 2397.247318 1295.937888 2396.834828 1298.639575 2396.834828 1301.678973 L 2396.834828 1317.078592 C 2396.834828 1320.11799 2397.247318 1322.887219 2398.416039 1325.453822 L 2387.48506 1325.453822 C 2388.653781 1322.887219 2389.066271 1320.11799 2389.066271 1317.078592 Z M 2389.066271 1317.078592 " transform="matrix(0.0568196,0,0,0.0578342,-126.366861,-69.49644)"/>
<path style="fill-rule:evenodd;fill:rgb(87.843137%,22.745098%,24.313725%);fill-opacity:1;stroke-width:1.674653;stroke-linecap:butt;stroke-linejoin:miter;stroke:rgb(87.843137%,22.745098%,24.313725%);stroke-opacity:1;stroke-miterlimit:4;" d="M 2412.165698 1317.078592 L 2412.165698 1297.761527 C 2408.315793 1297.964153 2404.740882 1298.842202 2401.303467 1300.463214 L 2403.503413 1293.303742 L 2431.071479 1293.303742 L 2428.115302 1299.652708 C 2425.709112 1298.436948 2423.096677 1297.829069 2419.934255 1297.761527 L 2419.934255 1317.078592 C 2419.934255 1320.11799 2420.346745 1322.887219 2421.515466 1325.453822 L 2410.584487 1325.453822 C 2411.753208 1322.887219 2412.165698 1320.11799 2412.165698 1317.078592 Z M 2412.165698 1317.078592 " transform="matrix(0.0568196,0,0,0.0578342,-126.366861,-69.49644)"/>
<path style="fill-rule:evenodd;fill:rgb(87.843137%,22.745098%,24.313725%);fill-opacity:1;stroke-width:1.674653;stroke-linecap:butt;stroke-linejoin:miter;stroke:rgb(87.843137%,22.745098%,24.313725%);stroke-opacity:1;stroke-miterlimit:4;" d="M 2455.202131 1325.453822 L 2444.202403 1325.453822 C 2445.371124 1322.887219 2445.783614 1320.11799 2445.783614 1317.078592 L 2445.783614 1310.391915 L 2437.533819 1298.639575 C 2436.227601 1296.815936 2434.715139 1294.992297 2433.133928 1293.303742 L 2443.996159 1293.303742 C 2443.92741 1293.573911 2443.92741 1293.84408 2443.92741 1294.046706 C 2443.92741 1294.857213 2444.133655 1295.532635 2444.477397 1296.072972 L 2450.114757 1304.380661 L 2454.720893 1296.680852 C 2455.202131 1295.937888 2455.408376 1295.127381 2455.408376 1294.316875 C 2455.408376 1293.979164 2455.339627 1293.641453 2455.339627 1293.303742 L 2465.30813 1293.303742 C 2463.383178 1294.992297 2461.801967 1296.815936 2460.495749 1298.774659 L 2453.62092 1309.108614 L 2453.62092 1317.078592 C 2453.62092 1320.11799 2453.964661 1322.887219 2455.202131 1325.453822 Z M 2455.202131 1325.453822 " transform="matrix(0.0568196,0,0,0.0578342,-126.366861,-69.49644)"/>
<path style=" stroke:none;fill-rule:evenodd;fill:rgb(87.843137%,22.745098%,24.313725%);fill-opacity:1;" d="M 10.085938 2.195312 C 9.644531 2.195312 9.4375 2.71875 9.4375 3.269531 C 9.4375 3.816406 9.644531 4.339844 10.085938 4.339844 C 10.53125 4.339844 10.734375 3.816406 10.734375 3.269531 C 10.734375 2.71875 10.53125 2.195312 10.085938 2.195312 Z M 11.519531 3.28125 C 11.519531 4.203125 10.878906 4.703125 10.089844 4.703125 C 9.300781 4.703125 8.660156 4.230469 8.660156 3.28125 C 8.660156 2.496094 9.300781 1.859375 10.089844 1.859375 C 10.878906 1.859375 11.519531 2.496094 11.519531 3.28125 Z M 11.519531 3.28125 "/>
<path style="fill-rule:evenodd;fill:rgb(10.588235%,26.666667%,61.176471%);fill-opacity:1;stroke-width:1.911375;stroke-linecap:butt;stroke-linejoin:miter;stroke:rgb(10.588235%,26.666667%,61.176471%);stroke-opacity:1;stroke-miterlimit:4;" d="M 2389.272515 1543.142284 C 2389.272515 1537.603825 2390.509985 1534.834595 2393.191168 1534.834595 C 2395.803604 1534.834595 2397.109821 1537.603825 2397.109821 1543.142284 C 2397.109821 1548.613201 2395.734855 1551.382431 2393.191168 1551.382431 C 2390.372488 1551.382431 2389.272515 1548.748286 2389.272515 1543.142284 Z M 2397.866052 1533.010956 C 2401.440964 1531.862739 2403.228419 1529.025968 2403.228419 1525.040979 C 2403.228419 1519.367435 2399.791005 1516.192952 2393.53491 1516.192952 C 2386.935073 1516.192952 2383.085169 1519.772688 2383.085169 1525.040979 C 2383.085169 1529.025968 2385.010121 1531.930282 2388.516284 1532.943414 L 2388.516284 1533.348667 C 2384.047645 1534.496885 2381.778951 1538.009078 2381.778951 1543.479995 C 2381.778951 1550.234214 2385.903849 1553.20607 2393.191168 1554.624456 C 2400.478488 1556.042841 2404.534637 1552.530648 2404.534637 1545.641345 C 2404.534637 1540.710766 2402.128447 1534.429342 2397.866052 1533.348667 Z M 2389.47876 1525.581316 C 2389.47876 1521.326158 2390.71623 1519.097266 2393.191168 1519.097266 C 2395.803604 1519.097266 2396.834828 1521.191074 2396.834828 1525.581316 C 2396.834828 1529.836474 2395.597359 1531.930282 2393.191168 1531.930282 C 2390.71623 1531.930282 2389.47876 1529.836474 2389.47876 1525.581316 Z M 2389.47876 1525.581316 " transform="matrix(0.0568196,0,0,0.0578342,-126.366861,-69.49644)"/>
<path style=" stroke:none;fill-rule:evenodd;fill:rgb(10.588235%,26.666667%,61.176471%);fill-opacity:1;" d="M 10.890625 19.25 C 10.890625 19.246094 10.890625 19.242188 10.890625 19.242188 C 10.890625 18.707031 11 18.398438 11.238281 18.398438 C 11.351562 18.398438 11.4375 18.460938 11.515625 18.589844 L 11.53125 18.582031 C 11.535156 18.484375 11.550781 18.378906 11.566406 18.265625 C 11.460938 18.214844 11.238281 18.191406 11.128906 18.191406 C 10.613281 18.191406 10.4375 18.789062 10.4375 19.609375 C 10.4375 20.230469 10.667969 20.535156 11.101562 20.464844 C 11.492188 20.402344 11.734375 20.179688 11.734375 19.699219 C 11.734375 19.3125 11.546875 19.082031 11.25 19.082031 C 11.089844 19.082031 10.960938 19.148438 10.890625 19.25 Z M 11.296875 19.789062 C 11.296875 20.125 11.230469 20.292969 11.101562 20.292969 C 10.964844 20.292969 10.898438 20.121094 10.898438 19.773438 C 10.898438 19.46875 10.960938 19.316406 11.097656 19.316406 C 11.242188 19.316406 11.296875 19.46875 11.296875 19.789062 Z M 11.296875 19.789062 "/>
<path style="fill:none;stroke-width:1.930251;stroke-linecap:butt;stroke-linejoin:miter;stroke:rgb(10.588235%,26.666667%,61.176471%);stroke-opacity:1;stroke-miterlimit:4;" d="M 2415.671861 1534.496885 L 2415.671861 1534.3618 C 2415.671861 1525.108521 2417.596813 1519.772688 2421.790459 1519.772688 C 2423.78416 1519.772688 2425.296622 1520.853363 2426.671588 1523.082255 L 2426.946581 1522.947171 C 2427.01533 1521.258616 2427.290323 1519.434977 2427.565316 1517.476254 C 2425.709112 1516.598206 2421.790459 1516.192952 2419.865507 1516.192952 C 2410.790732 1516.192952 2407.697059 1526.526907 2407.697059 1540.710766 C 2407.697059 1551.449973 2411.753208 1556.718263 2419.384269 1555.502504 C 2426.259098 1554.421829 2430.521493 1550.571925 2430.521493 1542.264236 C 2430.521493 1535.577559 2427.221574 1531.592571 2421.996704 1531.592571 C 2419.178024 1531.592571 2416.90933 1532.740788 2415.671861 1534.496885 Z M 2422.821684 1543.817706 C 2422.821684 1549.626334 2421.652963 1552.530648 2419.384269 1552.530648 C 2416.978078 1552.530648 2415.809357 1549.558792 2415.809357 1543.547537 C 2415.809357 1538.279247 2416.90933 1535.645102 2419.315521 1535.645102 C 2421.859207 1535.645102 2422.821684 1538.279247 2422.821684 1543.817706 Z M 2422.821684 1543.817706 " transform="matrix(0.0568196,0,0,0.0578342,-126.366861,-69.49644)"/>
<path style="fill-rule:evenodd;fill:rgb(10.588235%,26.666667%,61.176471%);fill-opacity:1;stroke-width:1.600423;stroke-linecap:butt;stroke-linejoin:miter;stroke:rgb(10.588235%,26.666667%,61.176471%);stroke-opacity:1;stroke-miterlimit:4;" d="M 2435.127628 1545.236092 C 2436.365098 1547.600068 2439.596268 1547.802695 2439.596268 1547.802695 C 2446.333601 1547.532526 2445.508621 1536.995945 2445.508621 1536.995945 C 2444.821138 1531.525028 2440.69624 1532.20045 2437.396322 1532.470619 C 2436.846336 1532.538161 2436.090105 1532.605703 2435.608866 1532.673246 L 2435.677615 1528.755799 C 2436.021356 1528.755799 2436.433846 1528.755799 2436.777588 1528.755799 C 2440.352499 1528.418088 2442.758689 1527.337413 2443.446172 1523.825219 C 2443.858662 1521.731412 2443.446172 1518.354302 2439.802513 1518.489387 C 2435.746363 1518.556929 2435.05888 1521.596327 2433.890159 1523.149797 L 2433.477669 1522.879629 L 2432.996431 1518.219218 C 2435.127628 1515.720157 2440.421247 1515.314904 2440.421247 1515.314904 C 2445.921111 1514.842109 2450.183505 1517.881507 2450.527247 1522.204207 C 2450.870988 1525.37869 2449.702267 1526.661991 2445.783614 1528.48563 L 2445.852362 1528.823341 C 2450.38975 1528.553172 2452.177206 1530.0391 2453.20843 1533.213583 C 2454.927137 1538.346789 2454.377151 1551.585057 2431.965207 1552.59819 C 2431.965207 1552.59819 2433.752663 1550.571925 2434.371397 1545.506261 Z M 2435.127628 1545.236092 " transform="matrix(0.0568196,0,0,0.0578342,-126.366861,-69.49644)"/>
<path style="fill-rule:evenodd;fill:rgb(10.588235%,26.666667%,61.176471%);fill-opacity:1;stroke-width:1.72312;stroke-linecap:butt;stroke-linejoin:miter;stroke:rgb(10.588235%,26.666667%,61.176471%);stroke-opacity:1;stroke-miterlimit:4;" d="M 2378.066543 1550.639467 C 2374.354135 1549.221081 2368.648027 1546.181683 2368.648027 1546.181683 C 2368.991768 1543.142284 2369.679251 1536.658234 2369.679251 1525.919027 C 2369.679251 1524.703268 2369.541755 1523.892762 2369.473006 1522.204207 C 2367.685551 1522.947171 2368.441782 1522.339291 2366.654326 1523.352424 L 2364.660626 1520.380568 C 2369.473006 1518.759555 2371.466707 1518.556929 2376.141591 1516.057868 L 2377.035319 1516.530663 C 2376.897822 1526.189196 2376.966571 1531.592571 2376.966571 1534.699511 C 2376.966571 1538.6845 2377.516557 1545.101008 2377.860298 1549.018454 C 2377.929047 1549.82896 2378.066543 1550.639467 2378.066543 1550.639467 Z M 2378.066543 1550.639467 " transform="matrix(0.0568196,0,0,0.0578342,-126.366861,-69.49644)"/>
<path style=" stroke:none;fill-rule:evenodd;fill:rgb(87.843137%,22.745098%,24.313725%);fill-opacity:1;" d="M 6.828125 19.0625 C 6.632812 18.886719 6.441406 18.695312 6.257812 18.488281 C 5.351562 17.460938 4.933594 16.410156 4.929688 16.398438 L 4.929688 16.390625 L 4.925781 16.382812 C 4.40625 15.144531 4.351562 13.6875 4.351562 13.105469 C 4.351562 12.945312 4.355469 12.855469 4.355469 12.851562 L 4.355469 12.832031 C 4.355469 12.832031 4.355469 10.667969 4.355469 5.265625 L 6.820312 5.265625 Z M 6.828125 19.0625 "/>
<path style=" stroke:none;fill-rule:evenodd;fill:rgb(87.843137%,22.745098%,24.313725%);fill-opacity:1;" d="M 14.117188 19.0625 C 14.3125 18.886719 14.503906 18.695312 14.6875 18.488281 C 15.59375 17.460938 16.007812 16.410156 16.011719 16.398438 L 16.019531 16.382812 C 16.535156 15.144531 16.59375 13.6875 16.59375 13.105469 C 16.59375 12.945312 16.589844 12.855469 16.589844 12.851562 L 16.585938 12.832031 C 16.585938 12.832031 16.585938 10.667969 16.585938 5.265625 L 14.125 5.265625 Z M 14.117188 19.0625 "/>
<path style=" stroke:none;fill-rule:evenodd;fill:rgb(100%,100%,100%);fill-opacity:1;" d="M 8.382812 22.90625 C 8.410156 22.914062 8.433594 22.921875 8.457031 22.929688 C 8.824219 23.027344 9.050781 22.910156 9.136719 22.578125 C 9.210938 22.285156 9.089844 22.121094 8.78125 22.039062 C 8.652344 22.007812 8.527344 21.988281 8.414062 21.957031 C 8.371094 21.945312 8.320312 21.929688 8.261719 21.90625 C 8.207031 22.199219 8.144531 22.460938 8.085938 22.691406 C 8.03125 22.898438 7.96875 23.15625 7.863281 23.460938 C 7.941406 23.476562 8.007812 23.488281 8.054688 23.5 C 8.105469 23.515625 8.167969 23.535156 8.242188 23.5625 C 8.273438 23.367188 8.296875 23.253906 8.304688 23.21875 Z M 8.425781 22.746094 L 8.511719 22.394531 C 8.527344 22.335938 8.539062 22.292969 8.546875 22.265625 C 8.550781 22.253906 8.558594 22.21875 8.574219 22.160156 C 8.613281 22.164062 8.636719 22.171875 8.648438 22.171875 C 8.796875 22.210938 8.847656 22.324219 8.800781 22.507812 C 8.742188 22.734375 8.632812 22.800781 8.425781 22.746094 Z M 8.425781 22.746094 "/>
<path style=" stroke:none;fill-rule:evenodd;fill:rgb(100%,100%,100%);fill-opacity:1;" d="M 9.40625 23.0625 C 9.40625 23.585938 9.683594 23.875 10.179688 23.875 C 10.691406 23.871094 10.988281 23.554688 10.984375 23 C 10.984375 22.488281 10.703125 22.199219 10.214844 22.199219 C 9.714844 22.199219 9.40625 22.511719 9.40625 23.0625 Z M 9.78125 23.039062 C 9.78125 22.601562 9.945312 22.355469 10.195312 22.355469 C 10.449219 22.355469 10.613281 22.597656 10.613281 23.039062 C 10.613281 23.476562 10.445312 23.71875 10.199219 23.71875 C 9.945312 23.71875 9.78125 23.480469 9.78125 23.039062 Z M 9.78125 23.039062 "/>
<path style=" stroke:none;fill-rule:evenodd;fill:rgb(100%,100%,100%);fill-opacity:1;" d="M 11.882812 22.308594 C 11.898438 22.441406 11.914062 22.550781 11.929688 22.636719 C 11.9375 22.671875 11.941406 22.707031 11.945312 22.734375 C 12.003906 23.070312 12.058594 23.390625 12.132812 23.695312 C 12.042969 23.707031 11.980469 23.710938 11.941406 23.71875 C 11.890625 23.726562 11.828125 23.742188 11.75 23.765625 C 11.722656 23.472656 11.683594 23.210938 11.644531 22.96875 C 11.621094 22.839844 11.582031 22.640625 11.53125 22.371094 C 11.40625 22.390625 11.285156 22.421875 11.167969 22.460938 C 11.167969 22.417969 11.164062 22.375 11.15625 22.339844 C 11.152344 22.320312 11.144531 22.289062 11.132812 22.238281 C 11.355469 22.210938 11.535156 22.1875 11.675781 22.160156 C 11.808594 22.136719 11.988281 22.097656 12.214844 22.050781 C 12.21875 22.101562 12.222656 22.132812 12.226562 22.152344 C 12.230469 22.1875 12.238281 22.230469 12.25 22.273438 C 12.128906 22.277344 12.007812 22.289062 11.882812 22.308594 Z M 11.882812 22.308594 "/>
<path style=" stroke:none;fill-rule:evenodd;fill:rgb(100%,100%,100%);fill-opacity:1;" d="M 13.199219 21.917969 C 13.230469 22.042969 13.269531 22.152344 13.296875 22.234375 C 13.308594 22.265625 13.320312 22.296875 13.328125 22.324219 C 13.441406 22.648438 13.546875 22.957031 13.671875 23.242188 C 13.582031 23.265625 13.519531 23.285156 13.480469 23.296875 C 13.433594 23.316406 13.375 23.339844 13.300781 23.375 C 13.230469 23.089844 13.148438 22.835938 13.070312 22.605469 C 13.027344 22.484375 12.953125 22.292969 12.859375 22.035156 C 12.742188 22.078125 12.625 22.128906 12.519531 22.1875 C 12.507812 22.144531 12.5 22.101562 12.488281 22.070312 C 12.480469 22.050781 12.464844 22.019531 12.445312 21.972656 C 12.660156 21.910156 12.835938 21.851562 12.96875 21.804688 C 13.097656 21.761719 13.269531 21.691406 13.480469 21.605469 C 13.492188 21.652344 13.503906 21.6875 13.507812 21.707031 C 13.519531 21.738281 13.535156 21.777344 13.554688 21.820312 C 13.433594 21.84375 13.316406 21.875 13.199219 21.917969 Z M 13.199219 21.917969 "/>
<path style=" stroke:none;fill-rule:evenodd;fill:rgb(100%,100%,100%);fill-opacity:1;" d="M 14.214844 22.257812 C 14.191406 22.210938 14.164062 22.164062 14.140625 22.117188 C 14.125 22.085938 14.109375 22.058594 14.09375 22.027344 C 13.980469 21.824219 13.871094 21.617188 13.734375 21.421875 C 13.910156 21.332031 14.03125 21.273438 14.09375 21.238281 C 14.1875 21.183594 14.316406 21.105469 14.464844 21.015625 C 14.484375 21.054688 14.496094 21.089844 14.507812 21.113281 C 14.523438 21.132812 14.539062 21.160156 14.566406 21.199219 C 14.460938 21.242188 14.367188 21.292969 14.273438 21.34375 C 14.234375 21.363281 14.195312 21.386719 14.15625 21.410156 C 14.210938 21.515625 14.261719 21.617188 14.316406 21.71875 L 14.375 21.828125 C 14.472656 21.765625 14.597656 21.6875 14.757812 21.589844 C 14.777344 21.632812 14.792969 21.667969 14.804688 21.6875 C 14.8125 21.707031 14.835938 21.738281 14.863281 21.78125 C 14.722656 21.84375 14.585938 21.914062 14.457031 21.980469 L 14.578125 22.207031 C 14.636719 22.308594 14.6875 22.398438 14.734375 22.476562 C 14.859375 22.40625 14.984375 22.328125 15.113281 22.234375 C 15.132812 22.277344 15.148438 22.308594 15.160156 22.335938 C 15.171875 22.355469 15.191406 22.386719 15.222656 22.429688 C 15.011719 22.539062 14.855469 22.617188 14.761719 22.671875 C 14.691406 22.710938 14.601562 22.761719 14.496094 22.832031 C 14.410156 22.625 14.3125 22.4375 14.214844 22.257812 Z M 14.214844 22.257812 "/>
<path style=" stroke:none;fill-rule:evenodd;fill:rgb(100%,100%,100%);fill-opacity:1;" d="M 15.699219 22.054688 C 15.753906 22 15.800781 21.960938 15.835938 21.929688 C 15.871094 21.902344 15.921875 21.867188 15.988281 21.824219 C 15.886719 21.714844 15.796875 21.601562 15.703125 21.480469 L 15.519531 21.238281 C 15.882812 21.386719 16.136719 21.503906 16.277344 21.59375 C 16.335938 21.539062 16.386719 21.492188 16.433594 21.457031 C 16.472656 21.425781 16.535156 21.382812 16.617188 21.328125 C 16.382812 21.242188 16.101562 21.132812 15.773438 20.976562 C 15.917969 20.839844 15.921875 20.644531 15.785156 20.464844 C 15.609375 20.234375 15.414062 20.230469 15.171875 20.421875 C 15.054688 20.515625 14.953125 20.617188 14.855469 20.695312 C 14.816406 20.726562 14.773438 20.753906 14.726562 20.785156 C 14.925781 21.007812 15.09375 21.222656 15.234375 21.40625 C 15.25 21.425781 15.265625 21.449219 15.285156 21.46875 C 15.40625 21.628906 15.546875 21.816406 15.699219 22.054688 Z M 15.445312 21.144531 L 15.25 20.886719 C 15.207031 20.835938 15.15625 20.765625 15.09375 20.675781 C 15.117188 20.65625 15.128906 20.648438 15.132812 20.644531 C 15.285156 20.527344 15.398438 20.535156 15.519531 20.691406 C 15.652344 20.863281 15.628906 21 15.453125 21.140625 C 15.449219 21.140625 15.445312 21.144531 15.445312 21.144531 Z M 15.445312 21.144531 "/>
<path style=" stroke:none;fill-rule:evenodd;fill:rgb(100%,100%,100%);fill-opacity:1;" d="M 16.617188 20.636719 L 16.640625 20.609375 C 16.8125 20.71875 16.953125 20.707031 17.066406 20.574219 C 17.171875 20.453125 17.167969 20.324219 17.0625 20.226562 C 16.957031 20.136719 16.859375 20.175781 16.675781 20.246094 C 16.414062 20.347656 16.25 20.386719 16.058594 20.214844 C 15.835938 20.015625 15.816406 19.738281 16.039062 19.480469 C 16.128906 19.375 16.234375 19.304688 16.355469 19.265625 C 16.410156 19.359375 16.464844 19.445312 16.527344 19.53125 L 16.511719 19.550781 C 16.347656 19.480469 16.230469 19.496094 16.136719 19.601562 C 16.039062 19.714844 16.054688 19.839844 16.136719 19.917969 C 16.242188 20.007812 16.34375 19.949219 16.550781 19.867188 C 16.792969 19.777344 16.953125 19.730469 17.152344 19.910156 C 17.398438 20.128906 17.40625 20.429688 17.160156 20.714844 C 17.066406 20.820312 16.964844 20.898438 16.859375 20.941406 C 16.773438 20.832031 16.691406 20.730469 16.617188 20.636719 Z M 16.617188 20.636719 "/>
<path style=" stroke:none;fill-rule:evenodd;fill:rgb(87.843137%,22.745098%,24.313725%);fill-opacity:1;" d="M 5.890625 3.246094 C 5.792969 3.175781 5.5625 3.066406 5.292969 2.90625 C 5.078125 2.78125 4.917969 2.675781 4.921875 2.527344 C 4.929688 2.363281 5.074219 2.222656 5.320312 2.230469 C 5.574219 2.238281 5.835938 2.410156 6.027344 2.648438 L 6.019531 1.949219 C 5.84375 1.894531 5.671875 1.867188 5.488281 1.863281 C 4.742188 1.835938 4.28125 2.152344 4.261719 2.652344 C 4.25 2.972656 4.453125 3.179688 4.84375 3.398438 C 5.195312 3.597656 5.492188 3.6875 5.5 3.9375 C 5.492188 4.121094 5.328125 4.277344 5.066406 4.269531 C 4.804688 4.261719 4.535156 4.074219 4.332031 3.804688 L 4.339844 4.59375 C 4.523438 4.652344 4.75 4.683594 4.941406 4.691406 C 5.722656 4.71875 6.195312 4.363281 6.214844 3.804688 C 6.214844 3.582031 6.109375 3.40625 5.890625 3.246094 Z M 5.890625 3.246094 "/>
<path style=" stroke:none;fill-rule:evenodd;fill:rgb(100%,100%,100%);fill-opacity:1;" d="M 4.777344 19.726562 C 4.679688 19.8125 4.597656 19.890625 4.535156 19.953125 C 4.511719 19.976562 4.488281 20 4.46875 20.019531 C 4.226562 20.261719 3.996094 20.488281 3.792969 20.722656 C 3.734375 20.652344 3.695312 20.601562 3.667969 20.574219 C 3.632812 20.535156 3.582031 20.492188 3.523438 20.4375 C 3.742188 20.253906 3.9375 20.070312 4.109375 19.898438 C 4.199219 19.808594 4.339844 19.660156 4.527344 19.46875 C 4.441406 19.375 4.347656 19.289062 4.25 19.214844 C 4.28125 19.1875 4.316406 19.160156 4.339844 19.136719 C 4.355469 19.121094 4.375 19.09375 4.40625 19.058594 C 4.558594 19.226562 4.679688 19.367188 4.78125 19.46875 C 4.875 19.570312 5.007812 19.699219 5.171875 19.859375 C 5.136719 19.890625 5.109375 19.910156 5.097656 19.925781 C 5.070312 19.953125 5.042969 19.980469 5.015625 20.015625 C 4.941406 19.914062 4.863281 19.820312 4.777344 19.726562 Z M 4.777344 19.726562 "/>
<path style=" stroke:none;fill-rule:evenodd;fill:rgb(100%,100%,100%);fill-opacity:1;" d="M 4.847656 20.820312 C 4.867188 20.796875 4.886719 20.769531 4.902344 20.75 C 5.050781 20.570312 5.214844 20.359375 5.390625 20.113281 C 5.449219 20.175781 5.492188 20.222656 5.523438 20.246094 C 5.566406 20.28125 5.621094 20.316406 5.683594 20.359375 C 5.597656 20.453125 5.515625 20.546875 5.4375 20.644531 L 5.277344 20.839844 C 5.378906 20.929688 5.445312 20.992188 5.480469 21.023438 C 5.546875 21.078125 5.625 21.136719 5.714844 21.207031 L 5.875 21.007812 C 5.953125 20.910156 6.027344 20.8125 6.097656 20.707031 C 6.160156 20.769531 6.207031 20.816406 6.238281 20.84375 C 6.269531 20.871094 6.324219 20.90625 6.394531 20.953125 C 6.191406 21.171875 6.023438 21.378906 5.875 21.5625 C 5.855469 21.582031 5.835938 21.605469 5.816406 21.632812 C 5.699219 21.78125 5.550781 21.964844 5.390625 22.195312 C 5.332031 22.140625 5.289062 22.097656 5.25 22.066406 C 5.210938 22.03125 5.160156 21.996094 5.09375 21.949219 C 5.175781 21.863281 5.25 21.777344 5.324219 21.6875 L 5.585938 21.363281 C 5.5 21.285156 5.425781 21.222656 5.363281 21.167969 C 5.320312 21.132812 5.25 21.078125 5.152344 21 L 4.890625 21.324219 C 4.816406 21.414062 4.746094 21.507812 4.679688 21.605469 C 4.625 21.546875 4.578125 21.5 4.539062 21.46875 C 4.5 21.4375 4.449219 21.398438 4.386719 21.355469 C 4.578125 21.148438 4.726562 20.96875 4.847656 20.820312 Z M 4.847656 20.820312 "/>
<path style=" stroke:none;fill-rule:evenodd;fill:rgb(100%,100%,100%);fill-opacity:1;" d="M 6.28125 22.023438 C 6.308594 21.976562 6.332031 21.929688 6.359375 21.882812 C 6.371094 21.851562 6.386719 21.824219 6.402344 21.792969 C 6.515625 21.585938 6.621094 21.382812 6.710938 21.160156 C 6.878906 21.261719 6.992188 21.328125 7.058594 21.363281 C 7.15625 21.417969 7.285156 21.484375 7.445312 21.5625 C 7.417969 21.601562 7.398438 21.628906 7.386719 21.652344 C 7.375 21.675781 7.363281 21.707031 7.347656 21.746094 C 7.25 21.683594 7.160156 21.628906 7.066406 21.578125 C 7.027344 21.554688 6.988281 21.53125 6.949219 21.515625 C 6.890625 21.617188 6.835938 21.714844 6.78125 21.816406 L 6.722656 21.925781 C 6.824219 21.976562 6.960938 22.042969 7.128906 22.125 C 7.101562 22.164062 7.082031 22.195312 7.070312 22.21875 C 7.058594 22.238281 7.046875 22.269531 7.027344 22.316406 C 6.898438 22.230469 6.769531 22.152344 6.640625 22.082031 L 6.523438 22.308594 C 6.464844 22.410156 6.417969 22.503906 6.382812 22.585938 C 6.507812 22.65625 6.640625 22.71875 6.789062 22.78125 C 6.761719 22.816406 6.746094 22.847656 6.730469 22.875 C 6.722656 22.894531 6.707031 22.929688 6.6875 22.976562 C 6.480469 22.855469 6.332031 22.769531 6.238281 22.714844 C 6.167969 22.675781 6.074219 22.628906 5.957031 22.574219 C 6.085938 22.390625 6.1875 22.203125 6.28125 22.023438 Z M 6.28125 22.023438 "/>
</g>
</svg>
