<?xml version="1.0" encoding="UTF-8"?>
<svg xmlns="http://www.w3.org/2000/svg" xmlns:xlink="http://www.w3.org/1999/xlink" width="35pt" height="25pt" viewBox="0 0 35 25" version="1.1">
<g id="surface1">
<path style=" stroke:none;fill-rule:evenodd;fill:rgb(100%,100%,100%);fill-opacity:1;" d="M 27.210938 17.082031 L 27.207031 17.074219 L 26.175781 16.175781 L 25.957031 15.972656 C 25.746094 15.765625 25.425781 15.511719 24.875 15.527344 C 24.785156 15.527344 24.695312 15.535156 24.605469 15.554688 C 24.699219 15.117188 24.769531 14.652344 24.8125 14.167969 C 24.84375 13.828125 24.859375 13.496094 24.859375 13.171875 C 24.859375 13.164062 24.859375 13.042969 24.859375 13.042969 L 24.855469 12.78125 L 24.855469 12.800781 L 24.855469 0 L 8.964844 0 L 8.964844 12.800781 L 8.964844 12.777344 L 8.957031 13.042969 L 8.957031 13.171875 C 8.960938 13.496094 8.976562 13.828125 9.003906 14.167969 C 9.046875 14.652344 9.117188 15.113281 9.210938 15.550781 C 9.125 15.535156 9.039062 15.527344 8.953125 15.527344 C 8.402344 15.511719 8.082031 15.765625 7.875 15.972656 L 7.65625 16.175781 L 6.625 17.074219 L 6.617188 17.082031 C 6.261719 17.4375 6.226562 17.785156 6.261719 18.011719 C 6.355469 18.660156 7.175781 19.136719 7.261719 19.183594 L 7.742188 18.804688 C 8.082031 18.671875 8.28125 18.859375 8.28125 18.859375 C 8.3125 18.878906 8.429688 18.972656 8.5 19.347656 L 8.542969 19.566406 C 8.273438 19.800781 8.082031 19.964844 8.082031 19.964844 L 8.246094 20.203125 C 8.722656 20.894531 8.902344 21.105469 9.210938 21.453125 C 11.273438 23.773438 13.925781 25 16.886719 25 L 16.933594 25 C 19.890625 25 22.546875 23.773438 24.605469 21.453125 C 24.914062 21.105469 25.097656 20.894531 25.570312 20.203125 L 25.734375 19.964844 C 25.734375 19.964844 25.550781 19.804688 25.285156 19.578125 L 25.328125 19.347656 C 25.402344 18.972656 25.515625 18.878906 25.550781 18.859375 C 25.550781 18.859375 25.746094 18.671875 26.085938 18.804688 L 26.570312 19.183594 C 26.652344 19.136719 27.476562 18.660156 27.570312 18.011719 C 27.605469 17.785156 27.566406 17.4375 27.210938 17.082031 Z M 27.210938 17.082031 "/>
<path style=" stroke:none;fill-rule:evenodd;fill:rgb(10.588235%,26.666667%,61.176471%);fill-opacity:1;" d="M 25.972656 16.351562 C 25.972656 16.351562 26.496094 17.46875 24.914062 17.585938 L 26.542969 18.863281 C 26.542969 18.863281 27.851562 18.097656 27.027344 17.277344 Z M 25.972656 16.351562 "/>
<path style=" stroke:none;fill-rule:evenodd;fill:rgb(87.843137%,22.745098%,24.313725%);fill-opacity:1;" d="M 25.648438 17.078125 C 25.933594 16.773438 25.660156 16.261719 25.660156 16.261719 C 25.660156 16.261719 25.40625 15.792969 24.902344 15.8125 C 24.777344 15.8125 24.652344 15.832031 24.53125 15.875 C 24.425781 16.285156 24.296875 16.671875 24.148438 17.03125 C 24.125 17.085938 23.949219 17.519531 23.59375 18.109375 C 23.636719 18.148438 23.703125 18.203125 23.785156 18.277344 L 25.007812 19.332031 C 25.160156 18.296875 25.742188 18.550781 25.742188 18.550781 L 24.367188 17.453125 C 25.414062 17.414062 25.648438 17.078125 25.648438 17.078125 Z M 25.648438 17.078125 "/>
<path style=" stroke:none;fill-rule:evenodd;fill:rgb(10.588235%,26.666667%,61.176471%);fill-opacity:1;" d="M 7.84375 16.363281 C 7.84375 16.363281 7.320312 17.480469 8.902344 17.597656 L 7.273438 18.875 C 7.273438 18.875 5.96875 18.113281 6.789062 17.292969 Z M 7.84375 16.363281 "/>
<path style=" stroke:none;fill-rule:evenodd;fill:rgb(87.843137%,22.745098%,24.313725%);fill-opacity:1;" d="M 8.171875 17.089844 C 7.882812 16.785156 8.160156 16.273438 8.160156 16.273438 C 8.160156 16.273438 8.410156 15.804688 8.914062 15.828125 C 9.039062 15.824219 9.164062 15.847656 9.289062 15.886719 C 9.390625 16.296875 9.519531 16.6875 9.671875 17.046875 L 9.667969 17.046875 C 9.691406 17.097656 9.867188 17.53125 10.222656 18.125 C 10.183594 18.160156 10.117188 18.21875 10.035156 18.289062 L 8.808594 19.347656 C 8.65625 18.308594 8.074219 18.5625 8.074219 18.5625 L 9.449219 17.46875 C 8.402344 17.425781 8.171875 17.089844 8.171875 17.089844 Z M 8.171875 17.089844 "/>
<path style=" stroke:none;fill-rule:evenodd;fill:rgb(10.588235%,26.666667%,61.176471%);fill-opacity:1;" d="M 23.175781 18.175781 C 23.621094 17.476562 23.835938 16.949219 23.847656 16.914062 L 23.84375 16.929688 C 24.179688 16.132812 24.398438 15.195312 24.492188 14.136719 C 24.519531 13.8125 24.535156 13.484375 24.539062 13.171875 C 24.539062 13.125 24.539062 13.082031 24.539062 13.042969 C 24.539062 12.953125 24.535156 12.871094 24.53125 12.800781 C 24.53125 12.777344 24.53125 0.320312 24.53125 0.320312 L 9.285156 0.320312 C 9.285156 0.320312 9.285156 12.777344 9.285156 12.800781 C 9.28125 12.871094 9.277344 12.953125 9.277344 13.042969 C 9.277344 13.082031 9.277344 13.125 9.28125 13.171875 C 9.28125 13.484375 9.296875 13.8125 9.324219 14.136719 C 9.417969 15.191406 9.636719 16.125 9.96875 16.917969 C 9.996094 16.984375 10.207031 17.5 10.640625 18.179688 L 8.511719 20.019531 C 8.984375 20.710938 9.160156 20.910156 9.453125 21.242188 C 11.449219 23.488281 14.019531 24.679688 16.886719 24.679688 L 16.933594 24.679688 C 19.796875 24.679688 22.367188 23.488281 24.363281 21.242188 C 24.65625 20.910156 24.832031 20.710938 25.304688 20.019531 Z M 23.175781 18.175781 "/>
<path style=" stroke:none;fill-rule:evenodd;fill:rgb(100%,100%,100%);fill-opacity:1;" d="M 16.910156 1.023438 L 9.984375 1.023438 L 9.984375 12.8125 C 9.984375 12.8125 9.871094 14.902344 10.617188 16.65625 C 10.617188 16.65625 12.390625 21.183594 16.886719 21.183594 L 16.910156 21.183594 C 21.402344 21.183594 23.199219 16.65625 23.199219 16.65625 C 23.945312 14.902344 23.832031 12.8125 23.832031 12.8125 L 23.832031 1.023438 Z M 16.910156 1.023438 "/>
<path style=" stroke:none;fill-rule:evenodd;fill:rgb(87.843137%,22.745098%,24.313725%);fill-opacity:1;" d="M 15.625 17.714844 L 15.625 7.722656 L 18.179688 7.722656 L 18.179688 17.714844 Z M 15.625 17.714844 "/>
<path style=" stroke:none;fill-rule:evenodd;fill:rgb(87.843137%,22.745098%,24.313725%);fill-opacity:1;" d="M 13.527344 3.949219 L 13.527344 2.265625 C 13.179688 2.28125 12.859375 2.363281 12.546875 2.503906 L 12.746094 1.878906 L 15.226562 1.878906 L 14.960938 2.433594 C 14.746094 2.328125 14.511719 2.269531 14.226562 2.265625 L 14.226562 3.949219 C 14.226562 4.214844 14.261719 4.449219 14.371094 4.675781 L 13.382812 4.675781 C 13.488281 4.449219 13.527344 4.214844 13.527344 3.949219 Z M 13.527344 3.949219 "/>
<path style=" stroke:none;fill-rule:evenodd;fill:rgb(87.843137%,22.745098%,24.313725%);fill-opacity:1;" d="M 18.304688 3.949219 L 18.304688 2.605469 C 18.304688 2.339844 18.269531 2.105469 18.164062 1.878906 L 19.148438 1.878906 C 19.042969 2.105469 19.007812 2.339844 19.007812 2.605469 L 19.007812 3.144531 L 19.859375 2.179688 C 19.945312 2.082031 19.988281 1.996094 19.988281 1.914062 C 19.988281 1.902344 19.984375 1.890625 19.984375 1.878906 L 21.085938 1.878906 C 20.824219 2.042969 20.621094 2.191406 20.484375 2.335938 L 19.753906 3.128906 L 20.746094 4.300781 C 20.839844 4.414062 20.96875 4.535156 21.132812 4.675781 L 20.03125 4.675781 C 20.039062 4.640625 20.042969 4.609375 20.042969 4.578125 C 20.042969 4.46875 19.992188 4.378906 19.902344 4.273438 L 19.007812 3.195312 L 19.007812 3.949219 C 19.007812 4.214844 19.042969 4.449219 19.148438 4.675781 L 18.164062 4.675781 C 18.269531 4.449219 18.304688 4.214844 18.304688 3.949219 Z M 18.304688 3.949219 "/>
<path style=" stroke:none;fill-rule:evenodd;fill:rgb(87.843137%,22.745098%,24.313725%);fill-opacity:1;" d="M 21.40625 3.949219 L 21.40625 2.605469 C 21.40625 2.339844 21.371094 2.105469 21.261719 1.878906 L 23.167969 1.878906 L 22.855469 2.425781 C 22.65625 2.347656 22.410156 2.308594 22.109375 2.300781 L 22.109375 3.074219 L 23.074219 3.074219 L 22.710938 3.578125 C 22.574219 3.492188 22.390625 3.457031 22.171875 3.457031 C 22.148438 3.457031 22.128906 3.457031 22.109375 3.457031 L 22.109375 4.257812 C 22.199219 4.261719 22.292969 4.265625 22.382812 4.265625 C 22.785156 4.265625 23.117188 4.222656 23.394531 4.117188 L 23.128906 4.675781 L 21.261719 4.675781 C 21.371094 4.449219 21.40625 4.214844 21.40625 3.949219 Z M 21.40625 3.949219 "/>
<path style="fill-rule:evenodd;fill:rgb(87.843137%,22.745098%,24.313725%);fill-opacity:1;stroke-width:1.674653;stroke-linecap:butt;stroke-linejoin:miter;stroke:rgb(87.843137%,22.745098%,24.313725%);stroke-opacity:1;stroke-miterlimit:4;" d="M 2372.121625 1298.166823 C 2365.502491 1298.166823 2360.774538 1302.557065 2360.774538 1309.378826 C 2360.774538 1316.335671 2365.705117 1320.793455 2372.999673 1320.793455 C 2377.119747 1320.793455 2380.159145 1319.442611 2382.928375 1316.470755 L 2381.8477 1323.832853 C 2378.335506 1325.183697 2374.620686 1325.859119 2370.635697 1325.859119 C 2366.177913 1325.859119 2362.39555 1324.845986 2359.221068 1322.752178 C 2354.628199 1319.71278 2352.331765 1315.660249 2352.331765 1310.527043 C 2352.331765 1305.19121 2354.898368 1300.530799 2359.423694 1297.288775 C 2363.408683 1294.519545 2368.27172 1293.033617 2373.607553 1293.033617 C 2376.30924 1293.033617 2379.213554 1293.43887 2382.252953 1294.316918 L 2382.252953 1302.286896 C 2379.07847 1299.585209 2375.701361 1298.166823 2372.121625 1298.166823 Z M 2372.121625 1298.166823 " transform="matrix(0.0578342,0,0,0.0578342,-122.373413,-69.496443)"/>
<path style="fill-rule:evenodd;fill:rgb(87.843137%,22.745098%,24.313725%);fill-opacity:1;stroke-width:1.674653;stroke-linecap:butt;stroke-linejoin:miter;stroke:rgb(87.843137%,22.745098%,24.313725%);stroke-opacity:1;stroke-miterlimit:4;" d="M 2389.074713 1317.078635 L 2389.074713 1301.679017 C 2389.074713 1298.639618 2388.66946 1295.937931 2387.453701 1293.303786 L 2398.463077 1293.303786 C 2397.247318 1295.937931 2396.842065 1298.639618 2396.842065 1301.679017 L 2396.842065 1317.078635 C 2396.842065 1320.118033 2397.247318 1322.887263 2398.463077 1325.453866 L 2387.453701 1325.453866 C 2388.66946 1322.887263 2389.074713 1320.118033 2389.074713 1317.078635 Z M 2389.074713 1317.078635 " transform="matrix(0.0578342,0,0,0.0578342,-122.373413,-69.496443)"/>
<path style="fill-rule:evenodd;fill:rgb(87.843137%,22.745098%,24.313725%);fill-opacity:1;stroke-width:1.674653;stroke-linecap:butt;stroke-linejoin:miter;stroke:rgb(87.843137%,22.745098%,24.313725%);stroke-opacity:1;stroke-miterlimit:4;" d="M 2412.174141 1317.078635 L 2412.174141 1297.76157 C 2408.324236 1297.964196 2404.7445 1298.842245 2401.299849 1300.463257 L 2403.528741 1293.303786 L 2431.085952 1293.303786 L 2428.114096 1299.652751 C 2425.75012 1298.436992 2423.115975 1297.829112 2419.941492 1297.76157 L 2419.941492 1317.078635 C 2419.941492 1320.118033 2420.346745 1322.887263 2421.562504 1325.453866 L 2410.553128 1325.453866 C 2411.768887 1322.887263 2412.174141 1320.118033 2412.174141 1317.078635 Z M 2412.174141 1317.078635 " transform="matrix(0.0578342,0,0,0.0578342,-122.373413,-69.496443)"/>
<path style="fill-rule:evenodd;fill:rgb(87.843137%,22.745098%,24.313725%);fill-opacity:1;stroke-width:1.674653;stroke-linecap:butt;stroke-linejoin:miter;stroke:rgb(87.843137%,22.745098%,24.313725%);stroke-opacity:1;stroke-miterlimit:4;" d="M 2455.198512 1325.453866 L 2444.189136 1325.453866 C 2445.404896 1322.887263 2445.810149 1320.118033 2445.810149 1317.078635 L 2445.810149 1310.391958 L 2437.570002 1298.639618 C 2436.219158 1296.815979 2434.73323 1294.99234 2433.112218 1293.303786 L 2443.98651 1293.303786 C 2443.98651 1293.573954 2443.98651 1293.844123 2443.98651 1294.04675 C 2443.98651 1294.857256 2444.189136 1295.532678 2444.526847 1296.073015 L 2450.065306 1304.380704 L 2454.725717 1296.680895 C 2455.198512 1295.937931 2455.401139 1295.127425 2455.401139 1294.316918 C 2455.401139 1293.979208 2455.333597 1293.641497 2455.333597 1293.303786 L 2465.262298 1293.303786 C 2463.438659 1294.99234 2461.817646 1296.815979 2460.534345 1298.774703 L 2453.5775 1309.108657 L 2453.5775 1317.078635 C 2453.5775 1320.118033 2453.982753 1322.887263 2455.198512 1325.453866 Z M 2455.198512 1325.453866 " transform="matrix(0.0578342,0,0,0.0578342,-122.373413,-69.496443)"/>
<path style=" stroke:none;fill-rule:evenodd;fill:rgb(87.843137%,22.745098%,24.313725%);fill-opacity:1;" d="M 16.515625 2.195312 C 16.066406 2.195312 15.855469 2.71875 15.855469 3.269531 C 15.855469 3.816406 16.066406 4.339844 16.515625 4.339844 C 16.96875 4.339844 17.179688 3.816406 17.179688 3.269531 C 17.179688 2.71875 16.96875 2.195312 16.515625 2.195312 Z M 17.976562 3.28125 C 17.976562 4.203125 17.324219 4.703125 16.519531 4.703125 C 15.714844 4.703125 15.0625 4.230469 15.0625 3.28125 C 15.0625 2.496094 15.714844 1.859375 16.519531 1.859375 C 17.324219 1.859375 17.976562 2.496094 17.976562 3.28125 Z M 17.976562 3.28125 "/>
<path style="fill-rule:evenodd;fill:rgb(10.588235%,26.666667%,61.176471%);fill-opacity:1;stroke-width:1.911375;stroke-linecap:butt;stroke-linejoin:miter;stroke:rgb(10.588235%,26.666667%,61.176471%);stroke-opacity:1;stroke-miterlimit:4;" d="M 2389.27734 1543.142327 C 2389.27734 1537.603868 2390.493099 1534.834639 2393.194787 1534.834639 C 2395.828932 1534.834639 2397.112233 1537.603868 2397.112233 1543.142327 C 2397.112233 1548.613244 2395.693847 1551.382474 2393.194787 1551.382474 C 2390.358015 1551.382474 2389.27734 1548.748329 2389.27734 1543.142327 Z M 2397.855197 1533.011 C 2401.434933 1531.862783 2403.258572 1529.026011 2403.258572 1525.041022 C 2403.258572 1519.367478 2399.813921 1516.192996 2393.532498 1516.192996 C 2386.913363 1516.192996 2383.063459 1519.772731 2383.063459 1525.041022 C 2383.063459 1529.026011 2384.95464 1531.930325 2388.466834 1532.943458 L 2388.466834 1533.348711 C 2384.076592 1534.496928 2381.780157 1538.009121 2381.780157 1543.480038 C 2381.780157 1550.234257 2385.900231 1553.206113 2393.194787 1554.624499 C 2400.489343 1556.042885 2404.541874 1552.530691 2404.541874 1545.641388 C 2404.541874 1540.710809 2402.177897 1534.429386 2397.855197 1533.348711 Z M 2389.479966 1525.581359 C 2389.479966 1521.326202 2390.763268 1519.09731 2393.194787 1519.09731 C 2395.828932 1519.09731 2396.842065 1521.191117 2396.842065 1525.581359 C 2396.842065 1529.836517 2395.626305 1531.930325 2393.194787 1531.930325 C 2390.695726 1531.930325 2389.479966 1529.836517 2389.479966 1525.581359 Z M 2389.479966 1525.581359 " transform="matrix(0.0578342,0,0,0.0578342,-122.373413,-69.496443)"/>
<path style=" stroke:none;fill-rule:evenodd;fill:rgb(10.588235%,26.666667%,61.176471%);fill-opacity:1;" d="M 17.335938 19.25 C 17.335938 19.246094 17.335938 19.242188 17.335938 19.242188 C 17.335938 18.707031 17.445312 18.398438 17.6875 18.398438 C 17.804688 18.398438 17.890625 18.460938 17.972656 18.589844 L 17.988281 18.582031 C 17.992188 18.484375 18.007812 18.378906 18.023438 18.265625 C 17.914062 18.214844 17.691406 18.191406 17.578125 18.191406 C 17.050781 18.191406 16.875 18.789062 16.875 19.609375 C 16.875 20.230469 17.109375 20.535156 17.550781 20.464844 C 17.949219 20.402344 18.191406 20.179688 18.191406 19.699219 C 18.191406 19.3125 18 19.082031 17.699219 19.082031 C 17.539062 19.082031 17.40625 19.148438 17.335938 19.25 Z M 17.75 19.789062 C 17.75 20.125 17.683594 20.292969 17.550781 20.292969 C 17.410156 20.292969 17.339844 20.121094 17.339844 19.773438 C 17.339844 19.46875 17.410156 19.316406 17.542969 19.316406 C 17.691406 19.316406 17.75 19.46875 17.75 19.789062 Z M 17.75 19.789062 "/>
<path style="fill:none;stroke-width:1.930251;stroke-linecap:butt;stroke-linejoin:miter;stroke:rgb(10.588235%,26.666667%,61.176471%);stroke-opacity:1;stroke-miterlimit:4;" d="M 2415.686334 1534.496928 L 2415.686334 1534.361843 C 2415.686334 1525.108564 2417.577515 1519.772731 2421.765131 1519.772731 C 2423.791396 1519.772731 2425.277324 1520.853406 2426.69571 1523.082299 L 2426.965879 1522.947214 C 2427.033421 1521.25866 2427.30359 1519.435021 2427.573759 1517.476297 C 2425.682578 1516.598249 2421.832673 1516.192996 2419.87395 1516.192996 C 2410.755755 1516.192996 2407.716356 1526.52695 2407.716356 1540.710809 C 2407.716356 1551.450016 2411.768887 1556.718307 2419.401154 1555.502547 C 2426.290457 1554.421872 2430.478073 1550.571968 2430.478073 1542.264279 C 2430.478073 1535.577603 2427.168506 1531.592614 2421.967757 1531.592614 C 2419.198528 1531.592614 2416.902094 1532.740831 2415.686334 1534.496928 Z M 2422.845806 1543.817749 C 2422.845806 1549.626377 2421.697589 1552.530691 2419.401154 1552.530691 C 2416.969636 1552.530691 2415.753876 1549.558835 2415.753876 1543.547581 C 2415.753876 1538.27929 2416.969636 1535.645145 2419.26607 1535.645145 C 2421.832673 1535.645145 2422.845806 1538.27929 2422.845806 1543.817749 Z M 2422.845806 1543.817749 " transform="matrix(0.0578342,0,0,0.0578342,-122.373413,-69.496443)"/>
<path style="fill-rule:evenodd;fill:rgb(10.588235%,26.666667%,61.176471%);fill-opacity:1;stroke-width:1.600423;stroke-linecap:butt;stroke-linejoin:miter;stroke:rgb(10.588235%,26.666667%,61.176471%);stroke-opacity:1;stroke-miterlimit:4;" d="M 2435.138483 1545.236135 C 2436.421785 1547.600112 2439.596268 1547.802738 2439.596268 1547.802738 C 2446.282944 1547.532569 2445.53998 1536.995989 2445.53998 1536.995989 C 2444.797016 1531.525072 2440.744485 1532.200493 2437.434918 1532.470662 C 2436.89458 1532.538204 2436.084074 1532.605747 2435.611279 1532.673289 L 2435.678821 1528.755842 C 2436.016532 1528.755842 2436.421785 1528.755842 2436.827038 1528.755842 C 2440.339232 1528.418131 2442.77075 1527.337456 2443.446172 1523.825263 C 2443.851425 1521.731455 2443.37863 1518.354346 2439.798894 1518.48943 C 2435.746363 1518.556972 2435.070941 1521.59637 2433.922724 1523.149841 L 2433.449929 1522.879672 L 2432.977134 1518.219261 C 2435.138483 1515.7202 2440.474316 1515.314947 2440.474316 1515.314947 C 2445.945233 1514.842152 2450.132848 1517.88155 2450.538102 1522.20425 C 2450.875812 1525.378733 2449.660053 1526.662034 2445.810149 1528.485673 L 2445.877691 1528.823384 C 2450.403017 1528.553215 2452.159114 1530.039144 2453.239789 1533.213626 C 2454.928344 1538.346832 2454.388006 1551.585101 2431.964001 1552.598233 C 2431.964001 1552.598233 2433.720098 1550.571968 2434.395519 1545.506304 Z M 2435.138483 1545.236135 " transform="matrix(0.0578342,0,0,0.0578342,-122.373413,-69.496443)"/>
<path style="fill-rule:evenodd;fill:rgb(10.588235%,26.666667%,61.176471%);fill-opacity:1;stroke-width:1.72312;stroke-linecap:butt;stroke-linejoin:miter;stroke:rgb(10.588235%,26.666667%,61.176471%);stroke-opacity:1;stroke-miterlimit:4;" d="M 2378.065337 1550.63951 C 2374.350517 1549.221124 2368.676974 1546.181726 2368.676974 1546.181726 C 2369.014684 1543.142327 2369.690106 1536.658278 2369.690106 1525.91907 C 2369.690106 1524.703311 2369.555022 1523.892805 2369.48748 1522.20425 C 2367.663841 1522.947214 2368.406805 1522.339334 2366.650708 1523.352467 L 2364.624442 1520.380611 C 2369.419938 1518.759599 2371.446203 1518.556972 2376.106614 1516.057911 L 2377.052204 1516.530707 C 2376.91712 1526.189239 2376.984662 1531.592614 2376.984662 1534.699554 C 2376.984662 1538.684543 2377.525 1545.101051 2377.862711 1549.018498 C 2377.930253 1549.829004 2378.065337 1550.63951 2378.065337 1550.63951 Z M 2378.065337 1550.63951 " transform="matrix(0.0578342,0,0,0.0578342,-122.373413,-69.496443)"/>
<path style=" stroke:none;fill-rule:evenodd;fill:rgb(87.843137%,22.745098%,24.313725%);fill-opacity:1;" d="M 13.199219 19.0625 C 13 18.886719 12.808594 18.695312 12.621094 18.488281 C 11.695312 17.460938 11.273438 16.410156 11.269531 16.398438 L 11.261719 16.382812 C 10.738281 15.144531 10.679688 13.6875 10.679688 13.105469 C 10.679688 12.945312 10.683594 12.855469 10.683594 12.847656 L 10.683594 12.832031 C 10.683594 12.832031 10.683594 10.667969 10.683594 5.265625 L 13.191406 5.265625 Z M 13.199219 19.0625 "/>
<path style=" stroke:none;fill-rule:evenodd;fill:rgb(87.843137%,22.745098%,24.313725%);fill-opacity:1;" d="M 20.617188 19.0625 C 20.816406 18.886719 21.011719 18.695312 21.199219 18.488281 C 22.121094 17.460938 22.542969 16.410156 22.546875 16.398438 L 22.554688 16.382812 C 23.082031 15.144531 23.140625 13.6875 23.140625 13.105469 C 23.140625 12.945312 23.136719 12.855469 23.136719 12.847656 L 23.132812 12.832031 C 23.132812 12.832031 23.132812 10.667969 23.132812 5.265625 L 20.625 5.265625 Z M 20.617188 19.0625 "/>
<path style=" stroke:none;fill-rule:evenodd;fill:rgb(100%,100%,100%);fill-opacity:1;" d="M 14.785156 22.90625 C 14.808594 22.914062 14.835938 22.921875 14.859375 22.929688 C 15.234375 23.027344 15.464844 22.910156 15.550781 22.578125 C 15.625 22.285156 15.503906 22.121094 15.1875 22.039062 C 15.058594 22.007812 14.929688 21.988281 14.8125 21.957031 C 14.769531 21.945312 14.71875 21.929688 14.65625 21.90625 C 14.605469 22.199219 14.539062 22.460938 14.480469 22.691406 C 14.425781 22.898438 14.359375 23.15625 14.253906 23.460938 C 14.335938 23.476562 14.398438 23.488281 14.449219 23.5 C 14.5 23.515625 14.5625 23.535156 14.636719 23.5625 C 14.671875 23.367188 14.695312 23.253906 14.703125 23.21875 Z M 14.824219 22.746094 L 14.914062 22.394531 C 14.929688 22.335938 14.941406 22.292969 14.949219 22.265625 C 14.953125 22.253906 14.960938 22.21875 14.976562 22.160156 C 15.015625 22.164062 15.039062 22.171875 15.050781 22.171875 C 15.203125 22.210938 15.253906 22.324219 15.207031 22.507812 C 15.148438 22.734375 15.039062 22.800781 14.824219 22.746094 Z M 14.824219 22.746094 "/>
<path style=" stroke:none;fill-rule:evenodd;fill:rgb(100%,100%,100%);fill-opacity:1;" d="M 15.824219 23.0625 C 15.824219 23.585938 16.105469 23.875 16.613281 23.875 C 17.132812 23.871094 17.433594 23.554688 17.433594 23 C 17.429688 22.488281 17.140625 22.199219 16.648438 22.199219 C 16.136719 22.199219 15.824219 22.511719 15.824219 23.0625 Z M 16.203125 23.039062 C 16.203125 22.601562 16.371094 22.355469 16.628906 22.355469 C 16.882812 22.355469 17.050781 22.597656 17.054688 23.039062 C 17.054688 23.476562 16.882812 23.71875 16.628906 23.71875 C 16.371094 23.71875 16.203125 23.480469 16.203125 23.039062 Z M 16.203125 23.039062 "/>
<path style=" stroke:none;fill-rule:evenodd;fill:rgb(100%,100%,100%);fill-opacity:1;" d="M 18.34375 22.308594 C 18.359375 22.441406 18.378906 22.550781 18.394531 22.636719 C 18.398438 22.671875 18.40625 22.707031 18.410156 22.734375 C 18.46875 23.070312 18.523438 23.390625 18.601562 23.695312 C 18.507812 23.707031 18.441406 23.710938 18.402344 23.71875 C 18.351562 23.726562 18.289062 23.742188 18.210938 23.765625 C 18.183594 23.472656 18.144531 23.210938 18.101562 22.96875 C 18.082031 22.839844 18.039062 22.640625 17.988281 22.371094 C 17.859375 22.390625 17.738281 22.421875 17.617188 22.460938 C 17.617188 22.417969 17.613281 22.375 17.605469 22.339844 C 17.601562 22.320312 17.59375 22.289062 17.582031 22.238281 C 17.804688 22.210938 17.992188 22.1875 18.136719 22.160156 C 18.269531 22.136719 18.453125 22.097656 18.683594 22.050781 C 18.6875 22.101562 18.691406 22.132812 18.695312 22.152344 C 18.699219 22.1875 18.707031 22.230469 18.71875 22.273438 C 18.597656 22.277344 18.46875 22.289062 18.34375 22.308594 Z M 18.34375 22.308594 "/>
<path style=" stroke:none;fill-rule:evenodd;fill:rgb(100%,100%,100%);fill-opacity:1;" d="M 19.683594 21.917969 C 19.71875 22.042969 19.753906 22.152344 19.785156 22.234375 C 19.796875 22.265625 19.808594 22.296875 19.816406 22.324219 C 19.929688 22.648438 20.039062 22.957031 20.164062 23.242188 C 20.074219 23.265625 20.011719 23.285156 19.972656 23.296875 C 19.925781 23.316406 19.863281 23.339844 19.789062 23.375 C 19.714844 23.089844 19.632812 22.835938 19.550781 22.605469 C 19.507812 22.484375 19.4375 22.292969 19.339844 22.035156 C 19.21875 22.078125 19.101562 22.128906 18.992188 22.1875 C 18.980469 22.144531 18.972656 22.101562 18.960938 22.070312 C 18.953125 22.050781 18.9375 22.019531 18.917969 21.972656 C 19.136719 21.910156 19.316406 21.851562 19.453125 21.804688 C 19.582031 21.761719 19.753906 21.691406 19.972656 21.605469 C 19.984375 21.652344 19.992188 21.6875 20 21.707031 C 20.011719 21.738281 20.027344 21.777344 20.046875 21.820312 C 19.925781 21.84375 19.804688 21.875 19.683594 21.917969 Z M 19.683594 21.917969 "/>
<path style=" stroke:none;fill-rule:evenodd;fill:rgb(100%,100%,100%);fill-opacity:1;" d="M 20.71875 22.257812 C 20.695312 22.210938 20.667969 22.164062 20.640625 22.117188 C 20.625 22.085938 20.609375 22.058594 20.59375 22.027344 C 20.480469 21.824219 20.367188 21.617188 20.230469 21.421875 C 20.410156 21.332031 20.53125 21.273438 20.59375 21.238281 C 20.691406 21.183594 20.820312 21.105469 20.976562 21.015625 C 20.992188 21.054688 21.007812 21.089844 21.019531 21.113281 C 21.03125 21.132812 21.050781 21.160156 21.074219 21.199219 C 20.96875 21.242188 20.871094 21.292969 20.777344 21.34375 C 20.738281 21.363281 20.699219 21.386719 20.660156 21.410156 C 20.714844 21.515625 20.765625 21.617188 20.820312 21.71875 L 20.882812 21.828125 C 20.980469 21.765625 21.109375 21.6875 21.273438 21.589844 C 21.289062 21.632812 21.308594 21.667969 21.316406 21.6875 C 21.328125 21.707031 21.347656 21.738281 21.378906 21.78125 C 21.234375 21.84375 21.097656 21.914062 20.964844 21.980469 L 21.089844 22.207031 C 21.144531 22.308594 21.199219 22.398438 21.25 22.476562 C 21.375 22.40625 21.503906 22.328125 21.632812 22.234375 C 21.652344 22.277344 21.667969 22.308594 21.683594 22.335938 C 21.691406 22.355469 21.714844 22.386719 21.742188 22.429688 C 21.527344 22.539062 21.371094 22.617188 21.277344 22.671875 C 21.207031 22.710938 21.113281 22.761719 21.003906 22.832031 C 20.917969 22.625 20.820312 22.4375 20.71875 22.257812 Z M 20.71875 22.257812 "/>
<path style=" stroke:none;fill-rule:evenodd;fill:rgb(100%,100%,100%);fill-opacity:1;" d="M 22.226562 22.054688 C 22.285156 22 22.332031 21.960938 22.371094 21.929688 C 22.40625 21.902344 22.457031 21.867188 22.523438 21.824219 C 22.421875 21.714844 22.328125 21.601562 22.234375 21.480469 L 22.046875 21.238281 C 22.417969 21.386719 22.671875 21.503906 22.820312 21.59375 C 22.878906 21.539062 22.929688 21.492188 22.976562 21.457031 C 23.015625 21.425781 23.078125 21.382812 23.164062 21.328125 C 22.925781 21.242188 22.640625 21.132812 22.304688 20.976562 C 22.449219 20.839844 22.457031 20.644531 22.316406 20.464844 C 22.136719 20.234375 21.941406 20.230469 21.691406 20.421875 C 21.570312 20.515625 21.472656 20.617188 21.371094 20.695312 C 21.332031 20.726562 21.289062 20.753906 21.238281 20.785156 C 21.445312 21.007812 21.613281 21.222656 21.753906 21.40625 C 21.773438 21.425781 21.789062 21.449219 21.804688 21.46875 C 21.929688 21.628906 22.074219 21.816406 22.226562 22.054688 Z M 21.972656 21.144531 L 21.769531 20.886719 C 21.730469 20.835938 21.675781 20.765625 21.613281 20.675781 C 21.636719 20.65625 21.648438 20.648438 21.65625 20.644531 C 21.804688 20.527344 21.925781 20.535156 22.046875 20.691406 C 22.179688 20.863281 22.15625 21 21.976562 21.140625 C 21.976562 21.140625 21.972656 21.144531 21.972656 21.144531 Z M 21.972656 21.144531 "/>
<path style=" stroke:none;fill-rule:evenodd;fill:rgb(100%,100%,100%);fill-opacity:1;" d="M 23.164062 20.636719 L 23.1875 20.609375 C 23.363281 20.71875 23.503906 20.707031 23.621094 20.574219 C 23.726562 20.453125 23.722656 20.324219 23.617188 20.226562 C 23.511719 20.136719 23.410156 20.175781 23.222656 20.246094 C 22.957031 20.347656 22.789062 20.386719 22.59375 20.214844 C 22.367188 20.015625 22.347656 19.738281 22.574219 19.480469 C 22.667969 19.375 22.773438 19.304688 22.898438 19.265625 C 22.953125 19.359375 23.011719 19.445312 23.074219 19.53125 L 23.058594 19.550781 C 22.890625 19.480469 22.769531 19.496094 22.675781 19.601562 C 22.578125 19.714844 22.589844 19.839844 22.675781 19.917969 C 22.78125 20.007812 22.886719 19.949219 23.097656 19.867188 C 23.34375 19.777344 23.503906 19.730469 23.710938 19.910156 C 23.957031 20.128906 23.96875 20.429688 23.714844 20.714844 C 23.621094 20.820312 23.515625 20.898438 23.414062 20.941406 C 23.324219 20.832031 23.242188 20.730469 23.164062 20.636719 Z M 23.164062 20.636719 "/>
<path style=" stroke:none;fill-rule:evenodd;fill:rgb(87.843137%,22.745098%,24.313725%);fill-opacity:1;" d="M 12.246094 3.246094 C 12.148438 3.175781 11.914062 3.066406 11.636719 2.90625 C 11.421875 2.78125 11.253906 2.675781 11.261719 2.527344 C 11.265625 2.363281 11.414062 2.222656 11.667969 2.230469 C 11.925781 2.238281 12.191406 2.410156 12.386719 2.648438 L 12.375 1.949219 C 12.199219 1.894531 12.023438 1.867188 11.835938 1.863281 C 11.078125 1.835938 10.605469 2.152344 10.589844 2.652344 C 10.578125 2.972656 10.785156 3.179688 11.179688 3.398438 C 11.535156 3.597656 11.839844 3.6875 11.847656 3.9375 C 11.84375 4.121094 11.671875 4.277344 11.40625 4.269531 C 11.140625 4.261719 10.863281 4.074219 10.660156 3.804688 L 10.667969 4.59375 C 10.851562 4.652344 11.085938 4.683594 11.28125 4.691406 C 12.074219 4.71875 12.554688 4.363281 12.574219 3.804688 C 12.574219 3.582031 12.46875 3.40625 12.246094 3.246094 Z M 12.246094 3.246094 "/>
<path style=" stroke:none;fill-rule:evenodd;fill:rgb(100%,100%,100%);fill-opacity:1;" d="M 11.113281 19.726562 C 11.011719 19.8125 10.929688 19.890625 10.867188 19.953125 C 10.84375 19.976562 10.820312 20 10.796875 20.019531 C 10.550781 20.261719 10.320312 20.488281 10.113281 20.722656 C 10.054688 20.652344 10.011719 20.601562 9.980469 20.574219 C 9.945312 20.535156 9.898438 20.492188 9.835938 20.4375 C 10.0625 20.253906 10.253906 20.070312 10.429688 19.898438 C 10.523438 19.808594 10.667969 19.660156 10.859375 19.46875 C 10.769531 19.375 10.671875 19.289062 10.574219 19.214844 C 10.609375 19.1875 10.640625 19.160156 10.667969 19.136719 C 10.683594 19.121094 10.703125 19.09375 10.738281 19.058594 C 10.886719 19.226562 11.015625 19.367188 11.113281 19.46875 C 11.210938 19.570312 11.347656 19.699219 11.515625 19.859375 C 11.476562 19.890625 11.453125 19.910156 11.4375 19.925781 C 11.410156 19.953125 11.382812 19.980469 11.355469 20.015625 C 11.28125 19.914062 11.199219 19.820312 11.113281 19.726562 Z M 11.113281 19.726562 "/>
<path style=" stroke:none;fill-rule:evenodd;fill:rgb(100%,100%,100%);fill-opacity:1;" d="M 11.183594 20.820312 C 11.203125 20.796875 11.222656 20.769531 11.242188 20.75 C 11.390625 20.570312 11.558594 20.359375 11.734375 20.113281 C 11.796875 20.175781 11.839844 20.222656 11.875 20.246094 C 11.914062 20.28125 11.96875 20.316406 12.035156 20.359375 C 11.949219 20.453125 11.867188 20.546875 11.785156 20.644531 L 11.625 20.839844 C 11.726562 20.929688 11.792969 20.992188 11.828125 21.023438 C 11.894531 21.078125 11.976562 21.136719 12.066406 21.207031 L 12.230469 21.007812 C 12.308594 20.910156 12.382812 20.8125 12.457031 20.707031 C 12.519531 20.769531 12.566406 20.816406 12.597656 20.84375 C 12.632812 20.871094 12.6875 20.90625 12.757812 20.953125 C 12.550781 21.171875 12.378906 21.378906 12.226562 21.5625 C 12.210938 21.582031 12.191406 21.605469 12.171875 21.632812 C 12.050781 21.78125 11.902344 21.964844 11.734375 22.195312 C 11.679688 22.140625 11.632812 22.097656 11.59375 22.066406 C 11.554688 22.03125 11.5 21.996094 11.433594 21.949219 C 11.515625 21.863281 11.59375 21.777344 11.671875 21.6875 L 11.9375 21.363281 C 11.847656 21.285156 11.773438 21.222656 11.710938 21.167969 C 11.667969 21.132812 11.59375 21.078125 11.492188 21 L 11.226562 21.324219 C 11.152344 21.414062 11.082031 21.507812 11.015625 21.605469 C 10.957031 21.546875 10.910156 21.5 10.867188 21.46875 C 10.832031 21.4375 10.777344 21.398438 10.714844 21.355469 C 10.910156 21.148438 11.0625 20.96875 11.183594 20.820312 Z M 11.183594 20.820312 "/>
<path style=" stroke:none;fill-rule:evenodd;fill:rgb(100%,100%,100%);fill-opacity:1;" d="M 12.644531 22.023438 C 12.667969 21.976562 12.695312 21.929688 12.722656 21.882812 C 12.738281 21.851562 12.753906 21.824219 12.769531 21.792969 C 12.878906 21.585938 12.988281 21.382812 13.082031 21.160156 C 13.25 21.261719 13.367188 21.328125 13.433594 21.363281 C 13.53125 21.417969 13.664062 21.484375 13.828125 21.5625 C 13.800781 21.601562 13.78125 21.628906 13.769531 21.652344 C 13.757812 21.675781 13.746094 21.707031 13.726562 21.746094 C 13.632812 21.683594 13.539062 21.628906 13.445312 21.578125 C 13.402344 21.554688 13.363281 21.53125 13.324219 21.515625 C 13.265625 21.617188 13.207031 21.714844 13.152344 21.816406 L 13.09375 21.925781 C 13.199219 21.976562 13.335938 22.042969 13.507812 22.125 C 13.476562 22.164062 13.457031 22.195312 13.445312 22.21875 C 13.4375 22.238281 13.421875 22.269531 13.402344 22.316406 C 13.269531 22.230469 13.140625 22.152344 13.011719 22.082031 L 12.886719 22.308594 C 12.832031 22.410156 12.785156 22.503906 12.75 22.585938 C 12.875 22.65625 13.007812 22.71875 13.160156 22.78125 C 13.132812 22.816406 13.117188 22.847656 13.101562 22.875 C 13.089844 22.894531 13.078125 22.929688 13.054688 22.976562 C 12.847656 22.855469 12.695312 22.769531 12.601562 22.714844 C 12.527344 22.675781 12.433594 22.628906 12.316406 22.574219 C 12.445312 22.390625 12.546875 22.203125 12.644531 22.023438 Z M 12.644531 22.023438 "/>
</g>
</svg>
