<?xml version="1.0" encoding="UTF-8"?>
<svg xmlns="http://www.w3.org/2000/svg" xmlns:xlink="http://www.w3.org/1999/xlink" width="26pt" height="25pt" viewBox="0 0 26 25" version="1.1">
<g id="surface1">
<path style=" stroke:none;fill-rule:evenodd;fill:rgb(32.156863%,60%,77.647059%);fill-opacity:1;" d="M 14.210938 20.019531 C 16.941406 19.632812 18.523438 18.710938 19.847656 17.84375 L 19.257812 17.105469 C 19.113281 17.199219 18.902344 17.328125 18.746094 17.414062 L 14.210938 20.019531 M 6.097656 17.84375 C 7.453125 18.757812 9.433594 19.769531 11.792969 20.035156 L 7.125 17.367188 C 6.976562 17.285156 6.828125 17.195312 6.6875 17.105469 Z M 25.945312 13.6875 L 25.804688 14.402344 C 25.785156 14.5 25.460938 16.613281 23.929688 18.289062 L 25.125 19.808594 L 24.976562 19.984375 C 24.933594 20.035156 23.765625 21.402344 21.757812 22.597656 C 19.90625 23.699219 17.117188 25 12.972656 25 C 8.980469 25 5.976562 23.683594 4.164062 22.582031 C 2.191406 21.382812 0.992188 20.054688 0.949219 20.003906 L 0.800781 19.828125 L 0.9375 19.644531 L 1.984375 18.339844 C 0.453125 16.640625 0.128906 14.359375 0.109375 14.257812 L 0 13.6875 L 2.707031 14.976562 L 3.660156 12.1875 L 3.660156 0 L 22.289062 0 L 22.285156 11.582031 C 22.285156 11.75 22.277344 11.9375 22.269531 12.097656 L 23.242188 14.976562 Z M 25.945312 13.6875 "/>
<path style=" stroke:none;fill-rule:evenodd;fill:rgb(37.647059%,13.333333%,23.137255%);fill-opacity:1;" d="M 18.535156 16.859375 L 12.976562 20.039062 L 7.414062 16.859375 C 5.402344 15.734375 4.25 13.800781 4.25 11.5625 L 4.246094 0.585938 L 21.703125 0.585938 L 21.699219 11.582031 C 21.699219 13.902344 20.519531 15.761719 18.535156 16.859375 "/>
<path style=" stroke:none;fill-rule:evenodd;fill:rgb(37.647059%,13.333333%,23.137255%);fill-opacity:1;" d="M 13.011719 20.6875 C 17.652344 20.6875 21.113281 17.722656 22.039062 16.871094 L 24.375 19.8125 C 23.582031 20.542969 19.785156 24.414062 12.972656 24.414062 C 6.414062 24.414062 2.367188 20.640625 1.570312 19.808594 L 3.914062 16.871094 C 4.296875 17.230469 5.136719 17.960938 6.289062 18.671875 C 7.769531 19.585938 10.125 20.675781 12.929688 20.6875 L 13.011719 20.6875 "/>
<path style=" stroke:none;fill-rule:evenodd;fill:rgb(37.647059%,13.333333%,23.137255%);fill-opacity:1;" d="M 22.039062 15.9375 L 20.488281 16.109375 C 21.214844 15.375 21.808594 14.371094 22.054688 13.320312 L 22.902344 15.789062 L 25.113281 14.734375 C 24.820312 15.773438 24.355469 16.851562 23.546875 17.8125 L 22.039062 15.9375 "/>
<path style=" stroke:none;fill-rule:evenodd;fill:rgb(37.647059%,13.333333%,23.137255%);fill-opacity:1;" d="M 21.476562 16.578125 C 21.1875 16.804688 20.886719 17.121094 20.328125 17.507812 L 19.734375 16.765625 L 21.476562 16.578125 "/>
<path style=" stroke:none;fill-rule:evenodd;fill:rgb(37.647059%,13.333333%,23.137255%);fill-opacity:1;" d="M 6.210938 16.765625 L 5.617188 17.507812 C 5.113281 17.140625 4.722656 16.808594 4.46875 16.578125 L 6.210938 16.765625 "/>
<path style=" stroke:none;fill-rule:evenodd;fill:rgb(37.647059%,13.333333%,23.137255%);fill-opacity:1;" d="M 2.355469 17.863281 C 1.429688 16.789062 1.058594 15.496094 0.835938 14.734375 L 2.75 15.648438 L 3.046875 15.789062 L 3.890625 13.320312 C 4.164062 14.324219 4.707031 15.324219 5.457031 16.109375 L 3.90625 15.9375 L 2.355469 17.863281 "/>
<path style=" stroke:none;fill-rule:nonzero;fill:rgb(100%,100%,100%);fill-opacity:1;" d="M 4.441406 18.265625 L 3.800781 19.5 C 4.148438 19.175781 4.816406 18.5625 4.816406 18.5625 L 5.144531 18.8125 L 4.539062 20.09375 L 4.542969 20.097656 C 4.539062 20.09375 5.546875 19.09375 5.546875 19.09375 L 5.9375 19.34375 L 4.121094 21.035156 L 3.773438 20.785156 C 4.035156 20.292969 4.503906 19.324219 4.503906 19.324219 C 4.125 19.6875 3.730469 20.015625 3.28125 20.421875 L 2.949219 20.15625 L 4.105469 17.96875 L 4.441406 18.265625 "/>
<path style=" stroke:none;fill-rule:nonzero;fill:rgb(100%,100%,100%);fill-opacity:1;" d="M 6.078125 19.433594 L 6.871094 19.882812 L 6.644531 20.265625 L 6.238281 20.046875 L 5.980469 20.484375 L 6.320312 20.6875 L 6.082031 21.082031 L 5.742188 20.878906 L 5.472656 21.347656 L 5.886719 21.589844 L 5.660156 21.96875 L 4.851562 21.507812 L 6.078125 19.433594 "/>
<path style=" stroke:none;fill-rule:nonzero;fill:rgb(100%,100%,100%);fill-opacity:1;" d="M 6.273438 21.601562 C 6.304688 21.707031 6.378906 21.808594 6.476562 21.851562 C 6.617188 21.917969 6.765625 21.867188 6.820312 21.757812 C 6.96875 21.4375 6.472656 21.0625 6.714844 20.542969 C 6.878906 20.1875 7.214844 20.027344 7.539062 20.179688 C 7.640625 20.226562 7.75 20.3125 7.832031 20.421875 L 7.625 20.863281 C 7.574219 20.769531 7.488281 20.671875 7.410156 20.636719 C 7.3125 20.589844 7.214844 20.59375 7.148438 20.734375 C 7.023438 21 7.539062 21.367188 7.257812 21.964844 C 7.0625 22.378906 6.707031 22.480469 6.347656 22.3125 C 6.222656 22.25 6.128906 22.175781 6.058594 22.050781 L 6.273438 21.601562 "/>
<path style=" stroke:none;fill-rule:nonzero;fill:rgb(100%,100%,100%);fill-opacity:1;" d="M 8.597656 21.09375 L 7.929688 22.941406 L 7.503906 22.789062 L 8.171875 20.941406 L 7.894531 20.839844 L 8.042969 20.421875 L 9.023438 20.773438 L 8.875 21.191406 L 8.597656 21.09375 "/>
<path style=" stroke:none;fill-rule:nonzero;fill:rgb(100%,100%,100%);fill-opacity:1;" d="M 10.597656 23.59375 L 10.15625 23.515625 L 10.328125 22.550781 L 9.933594 22.476562 L 9.726562 23.4375 L 9.285156 23.339844 L 9.777344 20.976562 L 10.214844 21.074219 L 10.011719 22.058594 L 10.40625 22.132812 L 10.59375 21.152344 L 11.039062 21.226562 L 10.597656 23.59375 "/>
<path style=" stroke:none;fill-rule:nonzero;fill:rgb(100%,100%,100%);fill-opacity:1;" d="M 12.089844 21.339844 L 12.34375 23.757812 L 11.914062 23.738281 L 11.859375 23.273438 L 11.40625 23.238281 L 11.285156 23.683594 L 10.859375 23.636719 L 11.640625 21.304688 L 12.089844 21.339844 M 11.835938 22.902344 L 11.769531 22.09375 L 11.53125 22.878906 Z M 11.835938 22.902344 "/>
<path style=" stroke:none;fill-rule:nonzero;fill:rgb(100%,100%,100%);fill-opacity:1;" d="M 13.230469 21.367188 L 13.523438 22.757812 L 13.53125 22.757812 L 13.714844 21.347656 L 14.199219 21.316406 L 14.554688 23.695312 L 14.117188 23.734375 L 13.921875 22.28125 L 13.914062 22.28125 L 13.722656 23.757812 L 13.410156 23.769531 L 13.105469 22.3125 L 13.097656 22.3125 L 13.027344 23.773438 L 12.582031 23.765625 L 12.742188 21.363281 L 13.230469 21.367188 "/>
<path style=" stroke:none;fill-rule:nonzero;fill:rgb(100%,100%,100%);fill-opacity:1;" d="M 15.628906 21.101562 L 15.980469 22.804688 C 16.011719 22.96875 16.101562 23.015625 16.183594 22.996094 C 16.269531 22.980469 16.332031 22.902344 16.296875 22.738281 L 15.945312 21.03125 L 16.386719 20.933594 L 16.746094 22.683594 C 16.824219 23.050781 16.707031 23.367188 16.28125 23.457031 C 15.855469 23.546875 15.621094 23.296875 15.546875 22.933594 L 15.1875 21.179688 L 15.628906 21.101562 "/>
<path style=" stroke:none;fill-rule:nonzero;fill:rgb(100%,100%,100%);fill-opacity:1;" d="M 17.019531 20.734375 L 17.945312 21.886719 L 17.949219 21.886719 L 17.507812 20.574219 L 17.910156 20.417969 L 18.683594 22.703125 L 18.308594 22.839844 L 17.375 21.714844 L 17.371094 21.714844 L 17.769531 23.027344 L 17.363281 23.15625 L 16.644531 20.859375 L 17.019531 20.734375 "/>
<path style=" stroke:none;fill-rule:nonzero;fill:rgb(100%,100%,100%);fill-opacity:1;" d="M 19.132812 22.519531 L 18.144531 20.320312 L 18.558594 20.140625 L 19.546875 22.339844 L 19.132812 22.519531 "/>
<path style=" stroke:none;fill-rule:nonzero;fill:rgb(100%,100%,100%);fill-opacity:1;" d="M 19.621094 20.078125 L 20.5625 21.820312 L 20.164062 22.035156 L 19.222656 20.296875 L 18.960938 20.433594 L 18.753906 20.039062 L 19.679688 19.550781 L 19.902344 19.933594 L 19.621094 20.078125 "/>
<path style=" stroke:none;fill-rule:nonzero;fill:rgb(100%,100%,100%);fill-opacity:1;" d="M 19.875 19.433594 L 20.625 18.949219 L 20.875 19.308594 L 20.492188 19.566406 L 20.757812 19.992188 L 21.082031 19.777344 L 21.339844 20.152344 L 20.996094 20.367188 L 21.320312 20.824219 L 21.714844 20.566406 L 21.964844 20.941406 L 21.152344 21.472656 L 19.875 19.433594 "/>
<path style=" stroke:none;fill-rule:nonzero;fill:rgb(100%,100%,100%);fill-opacity:1;" d="M 20.820312 18.796875 L 21.191406 18.527344 C 21.671875 18.175781 22.160156 18.429688 22.566406 18.992188 C 22.976562 19.554688 23.085938 20.128906 22.601562 20.480469 L 22.234375 20.75 L 20.820312 18.796875 M 22.335938 20.125 L 22.371094 20.101562 C 22.5625 19.960938 22.441406 19.625 22.183594 19.269531 C 21.925781 18.917969 21.671875 18.722656 21.480469 18.863281 L 21.445312 18.886719 Z M 22.335938 20.125 "/>
<path style=" stroke:none;fill-rule:nonzero;fill:rgb(96.862745%,76.078431%,25.098039%);fill-opacity:1;" d="M 8.613281 2.246094 L 9.292969 3.019531 L 8.695312 3.707031 L 7.945312 4.382812 C 7.945312 4.382812 6.882812 5.070312 6.804688 5.121094 C 6.726562 5.167969 6.660156 5.164062 6.601562 5.117188 C 6.546875 5.070312 6.558594 4.964844 6.617188 4.902344 L 7.195312 4.078125 C 7.300781 3.90625 7.253906 3.722656 7.238281 3.617188 C 7.226562 3.507812 7.257812 3.464844 7.316406 3.40625 C 7.371094 3.355469 8.34375 2.484375 8.613281 2.246094 "/>
<path style=" stroke:none;fill-rule:nonzero;fill:rgb(96.862745%,76.078431%,25.098039%);fill-opacity:1;" d="M 12.425781 9.046875 L 8.3125 4.421875 L 8.707031 4.050781 L 12.800781 8.648438 L 12.425781 9.046875 "/>
<path style=" stroke:none;fill-rule:nonzero;fill:rgb(96.862745%,76.078431%,25.098039%);fill-opacity:1;" d="M 13.511719 9.457031 L 18.585938 15.152344 C 18.585938 15.152344 18.582031 15.277344 18.445312 15.40625 C 18.332031 15.515625 18.1875 15.519531 18.1875 15.519531 L 13.152344 9.867188 L 13.511719 9.457031 "/>
<path style=" stroke:none;fill-rule:nonzero;fill:rgb(96.862745%,76.078431%,25.098039%);fill-opacity:1;" d="M 16.636719 3.03125 L 17.261719 3.703125 L 18.011719 4.378906 C 18.011719 4.378906 19.074219 5.066406 19.152344 5.113281 C 19.234375 5.164062 19.296875 5.160156 19.355469 5.113281 C 19.414062 5.066406 19.398438 4.960938 19.339844 4.898438 L 18.761719 4.074219 C 18.65625 3.902344 18.703125 3.71875 18.71875 3.613281 C 18.730469 3.503906 18.703125 3.460938 18.640625 3.402344 C 18.585938 3.351562 17.59375 2.480469 17.335938 2.246094 L 16.636719 3.03125 "/>
<path style=" stroke:none;fill-rule:nonzero;fill:rgb(96.862745%,76.078431%,25.098039%);fill-opacity:1;" d="M 7.761719 15.519531 L 17.644531 4.421875 L 17.246094 4.050781 L 7.363281 15.152344 C 7.363281 15.152344 7.367188 15.277344 7.503906 15.40625 C 7.617188 15.515625 7.761719 15.519531 7.761719 15.519531 "/>
<path style=" stroke:none;fill-rule:nonzero;fill:rgb(96.862745%,76.078431%,25.098039%);fill-opacity:1;" d="M 9.761719 16.597656 C 9.773438 16.578125 11 14.820312 12.96875 14.820312 C 14.964844 14.820312 16.136719 16.601562 16.148438 16.621094 L 16.414062 16.453125 C 16.363281 16.371094 15.136719 14.507812 12.972656 14.507812 C 10.832031 14.507812 9.554688 16.34375 9.503906 16.421875 L 9.761719 16.597656 "/>
<path style=" stroke:none;fill-rule:nonzero;fill:rgb(96.862745%,76.078431%,25.098039%);fill-opacity:1;" d="M 6.726562 7.734375 L 6.726562 6.777344 L 7.226562 6.777344 L 7.226562 7.203125 L 7.675781 7.203125 L 7.675781 6.777344 L 8.175781 6.777344 L 8.175781 7.203125 L 8.617188 7.203125 L 8.617188 6.777344 L 9.128906 6.777344 L 9.128906 7.734375 L 6.726562 7.734375 "/>
<path style=" stroke:none;fill-rule:nonzero;fill:rgb(96.862745%,76.078431%,25.098039%);fill-opacity:1;" d="M 16.824219 7.734375 L 16.824219 6.777344 L 17.335938 6.777344 L 17.335938 7.203125 L 17.773438 7.203125 L 17.773438 6.777344 L 18.277344 6.777344 L 18.277344 7.203125 L 18.726562 7.203125 L 18.726562 6.777344 L 19.226562 6.777344 L 19.226562 7.734375 L 16.824219 7.734375 "/>
<path style=" stroke:none;fill-rule:nonzero;fill:rgb(96.862745%,76.078431%,25.098039%);fill-opacity:1;" d="M 13.691406 9.25 L 14.515625 8.3125 L 14.90625 8.3125 L 14.90625 7.917969 L 15.40625 7.917969 L 15.40625 8.3125 L 15.855469 8.3125 L 15.855469 7.90625 L 16.355469 7.90625 L 16.355469 8.3125 L 16.777344 8.3125 L 16.339844 12.050781 L 19.738281 12.050781 L 20.109375 13.839844 C 20.109375 13.839844 19.417969 13.429688 18.410156 13.429688 C 18.117188 13.429688 17.816406 13.472656 17.519531 13.566406 L 13.691406 9.25 "/>
<path style=" stroke:none;fill-rule:nonzero;fill:rgb(96.862745%,76.078431%,25.098039%);fill-opacity:1;" d="M 8.425781 13.5625 C 8.132812 13.472656 7.824219 13.429688 7.539062 13.429688 C 6.53125 13.429688 5.84375 13.839844 5.84375 13.839844 L 6.214844 12.050781 L 9.613281 12.050781 L 9.171875 8.3125 L 9.59375 8.3125 L 9.59375 7.90625 L 10.097656 7.90625 L 10.097656 8.3125 L 10.546875 8.3125 L 10.546875 7.917969 L 11.046875 7.917969 L 11.046875 8.3125 L 11.40625 8.3125 L 12.238281 9.269531 L 8.425781 13.5625 "/>
<path style=" stroke:none;fill-rule:nonzero;fill:rgb(96.862745%,76.078431%,25.098039%);fill-opacity:1;" d="M 11.644531 3.972656 L 11.644531 2.90625 L 12.195312 2.90625 L 12.195312 3.386719 L 12.6875 3.386719 L 12.6875 2.90625 L 13.238281 2.90625 L 13.238281 3.386719 L 13.722656 3.386719 L 13.722656 2.917969 L 14.28125 2.917969 L 14.28125 3.972656 L 11.644531 3.972656 "/>
<path style=" stroke:none;fill-rule:nonzero;fill:rgb(96.862745%,76.078431%,25.098039%);fill-opacity:1;" d="M 11.984375 14.351562 C 11.984375 14.351562 11.984375 12.570312 11.984375 12.570312 C 11.984375 12.226562 12.191406 11.582031 12.976562 11.582031 C 13.757812 11.582031 13.96875 12.226562 13.96875 12.570312 L 13.96875 14.355469 L 13.96875 14.351562 C 14.980469 14.589844 15.53125 15.121094 15.53125 15.121094 C 15.816406 14.675781 16.15625 14.324219 16.527344 14.058594 L 12.976562 10.058594 L 9.421875 14.058594 C 9.792969 14.324219 10.132812 14.675781 10.421875 15.121094 C 10.421875 15.121094 10.96875 14.589844 11.976562 14.351562 L 11.984375 14.351562 "/>
<path style=" stroke:none;fill-rule:nonzero;fill:rgb(96.862745%,76.078431%,25.098039%);fill-opacity:1;" d="M 12.246094 14.300781 L 12.246094 12.550781 C 12.246094 12.480469 12.296875 11.847656 12.976562 11.847656 C 13.65625 11.847656 13.707031 12.480469 13.707031 12.550781 C 13.707031 12.550781 13.707031 14.300781 13.707031 14.300781 L 13.703125 14.296875 C 13.480469 14.257812 13.234375 14.234375 12.972656 14.234375 L 12.980469 14.234375 C 12.714844 14.234375 12.46875 14.257812 12.242188 14.296875 L 12.246094 14.300781 "/>
<path style=" stroke:none;fill-rule:nonzero;fill:rgb(96.862745%,76.078431%,25.098039%);fill-opacity:1;" d="M 9.292969 11.789062 L 6.5625 11.789062 L 7.023438 7.996094 L 8.851562 7.996094 L 9.292969 11.789062 M 8.386719 9.296875 L 8.066406 9.296875 L 8.066406 8.847656 L 7.800781 8.847656 L 7.800781 9.296875 L 7.472656 9.296875 L 7.472656 9.558594 L 7.800781 9.558594 L 7.800781 10.261719 L 8.066406 10.261719 L 8.066406 9.558594 L 8.386719 9.558594 Z M 8.386719 9.296875 "/>
<path style=" stroke:none;fill-rule:nonzero;fill:rgb(96.862745%,76.078431%,25.098039%);fill-opacity:1;" d="M 17.097656 7.996094 L 18.929688 7.996094 L 19.386719 11.789062 L 16.660156 11.789062 L 17.097656 7.996094 M 18.445312 9.296875 L 18.121094 9.296875 L 18.121094 8.847656 L 17.855469 8.847656 L 17.855469 9.296875 L 17.527344 9.296875 L 17.527344 9.558594 L 17.855469 9.558594 L 17.855469 10.261719 L 18.121094 10.261719 L 18.121094 9.558594 L 18.445312 9.558594 Z M 18.445312 9.296875 "/>
<path style=" stroke:none;fill-rule:nonzero;fill:rgb(96.862745%,76.078431%,25.098039%);fill-opacity:1;" d="M 11.554688 6.84375 L 12.078125 4.222656 L 13.871094 4.222656 L 14.402344 6.851562 L 12.980469 8.4375 L 11.554688 6.84375 M 13.441406 5.367188 L 13.121094 5.367188 L 13.121094 4.921875 L 12.855469 4.921875 L 12.855469 5.367188 L 12.523438 5.367188 L 12.523438 5.632812 L 12.855469 5.632812 L 12.855469 6.335938 L 13.121094 6.335938 L 13.121094 5.632812 L 13.441406 5.632812 Z M 13.441406 5.367188 "/>
</g>
</svg>
