<?xml version="1.0" encoding="UTF-8"?>
<svg xmlns="http://www.w3.org/2000/svg" xmlns:xlink="http://www.w3.org/1999/xlink" width="35pt" height="25pt" viewBox="0 0 35 25" version="1.1">
<g id="surface1">
<path style=" stroke:none;fill-rule:nonzero;fill:rgb(13.72549%,12.156863%,12.54902%);fill-opacity:1;" d="M 4.800781 9.464844 L 4.671875 9.378906 C 4.691406 9.105469 4.417969 8.902344 4.417969 8.902344 L 4.417969 8.566406 C 4.4375 8.421875 4.4375 8.289062 4.4375 8.171875 L 4.4375 7.898438 C 4.4375 7.839844 4.472656 7.832031 4.507812 7.835938 C 4.546875 7.835938 4.726562 8.007812 4.726562 8.007812 C 4.835938 8.105469 4.925781 8.1875 5.179688 8.328125 C 5.472656 8.476562 5.5625 8.476562 5.707031 8.480469 C 5.78125 8.484375 5.835938 8.484375 5.890625 8.496094 C 5.925781 8.5 5.980469 8.515625 6.015625 8.554688 C 6.035156 8.570312 6.035156 8.601562 5.996094 8.660156 C 5.960938 8.710938 5.90625 8.777344 5.816406 8.855469 C 5.796875 8.871094 5.34375 9.25 5.109375 9.464844 Z M 4.800781 9.464844 "/>
<path style=" stroke:none;fill-rule:nonzero;fill:rgb(13.72549%,12.156863%,12.54902%);fill-opacity:1;" d="M 4.855469 3.050781 C 5.199219 2.210938 6.414062 -0.128906 8.28125 0.707031 C 9.914062 1.457031 9.804688 3.757812 9.152344 5.1875 C 8.191406 7.261719 6.703125 8.59375 5.308594 7.820312 C 3.820312 6.992188 4.328125 4.371094 4.855469 3.050781 "/>
<path style=" stroke:none;fill-rule:nonzero;fill:rgb(13.72549%,12.156863%,12.54902%);fill-opacity:1;" d="M 32.042969 11.25 C 31.988281 11.058594 31.699219 10.964844 31.699219 10.964844 C 31.699219 10.730469 31.371094 10.652344 31.371094 10.652344 L 31.351562 10.625 C 31.28125 10.367188 30.988281 10.421875 30.988281 10.421875 L 30.988281 10.367188 C 30.933594 10.191406 30.664062 10.253906 30.664062 10.253906 C 30.535156 10.039062 30.300781 10.222656 30.300781 10.222656 C 30.226562 10.363281 30.066406 10.363281 30.066406 10.363281 C 29.703125 10.378906 29.683594 10.570312 29.683594 10.570312 L 29.59375 10.847656 C 29.355469 11.320312 29.484375 11.507812 29.484375 11.507812 C 29.574219 11.671875 29.609375 11.773438 29.609375 11.773438 C 29.648438 12.15625 29.773438 12.453125 29.773438 12.453125 C 29.574219 12.484375 29.539062 12.71875 29.539062 12.71875 C 29.484375 12.929688 28.832031 13.644531 28.832031 13.644531 C 28.648438 13.742188 28.777344 13.964844 28.777344 13.964844 C 28.140625 14.574219 27.816406 14.757812 27.816406 14.757812 C 26.507812 15.59375 25.492188 16.757812 25.492188 16.757812 C 24.679688 16.589844 23.625 16.8125 23.625 16.8125 L 23.625 16.695312 C 23.0625 16.824219 22.410156 17.160156 22.410156 17.160156 C 22.265625 17.238281 22.011719 17.175781 22.011719 17.175781 C 21.121094 16.707031 19.527344 16.851562 19.527344 16.851562 C 18.730469 17.042969 18.527344 17.125 18.527344 17.125 L 16.96875 17.191406 L 16.878906 16.929688 C 16.859375 16.855469 16.730469 16.8125 16.730469 16.8125 L 16.714844 16.8125 C 16.714844 16.714844 16.695312 16.628906 16.675781 16.542969 L 16.640625 15.601562 L 17.039062 15.082031 C 17.148438 15.089844 16.949219 13.796875 16.949219 13.796875 C 16.984375 13.597656 16.660156 12.859375 16.660156 12.859375 C 16.75 12.3125 16.351562 11.929688 16.351562 11.929688 C 16.351562 11.929688 16.132812 11.640625 16.078125 11.453125 C 16.042969 11.265625 15.460938 10.960938 15.0625 10.824219 C 14.679688 10.6875 13.957031 10.828125 13.121094 11.367188 C 12.289062 11.902344 12.140625 13.015625 12.140625 13.1875 C 12.140625 13.351562 12.449219 14.191406 12.414062 14.203125 C 12.378906 14.207031 12.214844 14.148438 12.339844 14.625 C 12.449219 15.101562 13.03125 15.464844 13.03125 15.464844 C 13.15625 15.503906 13.394531 16.335938 13.503906 16.683594 L 13.394531 16.730469 L 13.300781 16.894531 L 13.101562 17.046875 C 13.011719 17.074219 12.851562 17.089844 12.632812 17.101562 C 12.433594 17.042969 11.617188 16.839844 10.382812 17.042969 L 9.148438 16.421875 L 9.078125 16.546875 C 8.75 16.449219 8.371094 16.382812 7.96875 16.414062 C 7.96875 16.414062 7.097656 14.660156 6.300781 14.042969 L 6.300781 13.976562 C 6.375 13.929688 6.300781 13.742188 6.300781 13.652344 C 6.300781 13.5625 6.046875 13.28125 6.046875 13.28125 L 5.703125 12.722656 C 5.703125 12.722656 5.59375 12.445312 5.539062 12.285156 C 5.503906 12.125 5.359375 12.21875 5.359375 12.21875 C 5.304688 12.035156 5.285156 11.84375 5.339844 11.792969 C 5.410156 11.746094 5.703125 10.636719 5.71875 10.480469 C 5.738281 10.324219 5.449219 9.738281 5.394531 9.59375 C 5.757812 9.289062 6.425781 8.699219 6.589844 8.597656 C 7.933594 7.8125 9.09375 6.777344 9.636719 5.300781 C 10.507812 2.976562 10.074219 0.984375 8.566406 0.226562 L 8.511719 0.195312 L 8.441406 0.15625 L 8.367188 0.125 C 6.933594 -0.359375 5.300781 0.464844 4.285156 2.703125 C 3.632812 4.140625 3.597656 5.664062 3.960938 7.269531 C 4.03125 7.609375 4.050781 8.144531 4.03125 8.699219 L 4.03125 8.792969 L 3.617188 8.867188 C 3.433594 8.945312 3.488281 9.0625 3.488281 9.0625 L 3.597656 9.691406 L 3.578125 9.710938 C 3.488281 9.734375 3.378906 9.785156 3.359375 9.96875 L 3.359375 9.984375 C 3.140625 10.023438 3.140625 10.351562 3.140625 10.351562 C 2.835938 10.449219 2.941406 10.726562 2.941406 10.726562 C 2.726562 10.867188 2.925781 11.074219 2.980469 11.179688 C 3.035156 11.289062 3.339844 11.941406 3.339844 11.941406 L 2.996094 12.832031 C 2.582031 13.863281 2.144531 14.890625 2.144531 14.890625 C 2.144531 14.933594 2.109375 14.953125 2.089844 14.96875 L 2.035156 15 C 2.035156 15.003906 2 15.023438 2 15.121094 C 2.035156 15.203125 2.21875 15.324219 2.453125 15.433594 C 2.6875 15.550781 2.78125 15.570312 2.871094 15.554688 C 2.925781 15.480469 2.925781 15.449219 2.925781 15.433594 C 2.925781 15.414062 2.90625 15.390625 2.90625 15.375 C 2.90625 15.351562 2.90625 15.316406 2.925781 15.28125 C 2.925781 15.28125 3.25 14.484375 3.613281 13.585938 L 3.886719 12.957031 L 3.941406 13.035156 C 3.921875 13.046875 3.851562 13.074219 3.886719 13.175781 C 3.941406 13.285156 3.941406 13.34375 3.996094 13.398438 C 4.050781 13.453125 4.066406 13.484375 4.105469 13.59375 C 4.125 13.703125 4.105469 13.890625 4.140625 13.945312 C 4.160156 13.960938 4.175781 14.003906 4.210938 14.050781 C 4.230469 14.175781 4.304688 14.296875 4.320312 14.472656 C 4.335938 14.621094 4.414062 14.59375 4.414062 14.59375 C 4.414062 14.59375 4.429688 14.589844 4.449219 14.585938 C 4.757812 15.335938 5.554688 17.5 6.679688 18.542969 C 6.679688 18.542969 7.132812 18.625 7.511719 18.90625 L 7.496094 18.941406 L 7.402344 19.085938 C 7.402344 19.085938 7.695312 19.226562 7.910156 19.371094 C 8.128906 19.507812 9.144531 20.101562 9.707031 20.335938 L 10.035156 21.949219 L 10.160156 21.949219 C 7.601562 22.628906 5.261719 23.671875 3.269531 24.992188 C 7.1875 23.179688 11.972656 22.109375 17.125 22.109375 C 22.277344 22.109375 27.046875 23.179688 30.964844 24.992188 C 28.027344 23.046875 24.363281 21.707031 20.335938 21.246094 C 20.625 20.636719 21.242188 20.347656 21.242188 20.347656 C 21.441406 20.210938 23.257812 20.003906 23.257812 20.003906 L 23.257812 19.867188 C 25.503906 19.367188 26.613281 18.515625 26.613281 18.515625 C 27.066406 18.445312 27.121094 18.328125 27.121094 18.328125 C 27.175781 18.242188 27.445312 18.042969 27.445312 18.042969 C 28.734375 17.171875 30.09375 14.757812 30.09375 14.757812 C 30.367188 14.855469 30.457031 14.574219 30.457031 14.574219 C 30.566406 14.421875 31.183594 13.617188 31.183594 13.617188 C 31.363281 13.445312 31.253906 13.316406 31.253906 13.316406 L 31.164062 13.199219 L 31.199219 13.164062 C 31.292969 13.070312 31.402344 12.757812 31.453125 12.6875 C 31.507812 12.617188 31.691406 12.21875 31.691406 12.21875 C 31.726562 12.09375 31.925781 11.691406 31.925781 11.691406 C 32.089844 11.480469 32.035156 11.246094 32.035156 11.246094 "/>
<path style=" stroke:none;fill-rule:nonzero;fill:rgb(13.72549%,12.156863%,12.54902%);fill-opacity:1;" d="M 4.800781 9.464844 L 4.671875 9.378906 C 4.691406 9.105469 4.417969 8.902344 4.417969 8.902344 L 4.417969 8.566406 C 4.4375 8.421875 4.4375 8.289062 4.4375 8.171875 L 4.4375 7.898438 C 4.4375 7.839844 4.472656 7.832031 4.507812 7.835938 C 4.546875 7.835938 4.726562 8.007812 4.726562 8.007812 C 4.835938 8.105469 4.925781 8.1875 5.179688 8.328125 C 5.472656 8.476562 5.5625 8.476562 5.707031 8.480469 C 5.78125 8.484375 5.835938 8.484375 5.890625 8.496094 C 5.925781 8.5 5.980469 8.515625 6.015625 8.554688 C 6.035156 8.570312 6.035156 8.601562 5.996094 8.660156 C 5.960938 8.710938 5.90625 8.777344 5.816406 8.855469 C 5.796875 8.871094 5.34375 9.25 5.109375 9.464844 Z M 4.800781 9.464844 "/>
<path style=" stroke:none;fill-rule:nonzero;fill:rgb(13.72549%,12.156863%,12.54902%);fill-opacity:1;" d="M 4.855469 3.050781 C 5.199219 2.210938 6.414062 -0.128906 8.28125 0.707031 C 9.914062 1.457031 9.804688 3.757812 9.152344 5.1875 C 8.191406 7.261719 6.703125 8.59375 5.308594 7.820312 C 3.820312 6.992188 4.328125 4.371094 4.855469 3.050781 "/>
<path style=" stroke:none;fill-rule:nonzero;fill:rgb(13.72549%,12.156863%,12.54902%);fill-opacity:1;" d="M 32.042969 11.25 C 31.988281 11.058594 31.699219 10.964844 31.699219 10.964844 C 31.699219 10.730469 31.371094 10.652344 31.371094 10.652344 L 31.351562 10.625 C 31.28125 10.367188 30.988281 10.421875 30.988281 10.421875 L 30.988281 10.367188 C 30.933594 10.191406 30.664062 10.253906 30.664062 10.253906 C 30.535156 10.039062 30.300781 10.222656 30.300781 10.222656 C 30.226562 10.363281 30.066406 10.363281 30.066406 10.363281 C 29.703125 10.378906 29.683594 10.570312 29.683594 10.570312 L 29.59375 10.847656 C 29.355469 11.320312 29.484375 11.507812 29.484375 11.507812 C 29.574219 11.671875 29.609375 11.773438 29.609375 11.773438 C 29.648438 12.15625 29.773438 12.453125 29.773438 12.453125 C 29.574219 12.484375 29.539062 12.71875 29.539062 12.71875 C 29.484375 12.929688 28.832031 13.644531 28.832031 13.644531 C 28.648438 13.742188 28.777344 13.964844 28.777344 13.964844 C 28.140625 14.574219 27.816406 14.757812 27.816406 14.757812 C 26.507812 15.59375 25.492188 16.757812 25.492188 16.757812 C 24.679688 16.589844 23.625 16.8125 23.625 16.8125 L 23.625 16.695312 C 23.0625 16.824219 22.410156 17.160156 22.410156 17.160156 C 22.265625 17.238281 22.011719 17.175781 22.011719 17.175781 C 21.121094 16.707031 19.527344 16.851562 19.527344 16.851562 C 18.730469 17.042969 18.527344 17.125 18.527344 17.125 L 16.96875 17.191406 L 16.878906 16.929688 C 16.859375 16.855469 16.730469 16.8125 16.730469 16.8125 L 16.714844 16.8125 C 16.714844 16.714844 16.695312 16.628906 16.675781 16.542969 L 16.640625 15.601562 L 17.039062 15.082031 C 17.148438 15.089844 16.949219 13.796875 16.949219 13.796875 C 16.984375 13.597656 16.660156 12.859375 16.660156 12.859375 C 16.75 12.3125 16.351562 11.929688 16.351562 11.929688 C 16.351562 11.929688 16.132812 11.640625 16.078125 11.453125 C 16.042969 11.265625 15.460938 10.960938 15.0625 10.824219 C 14.679688 10.6875 13.957031 10.828125 13.121094 11.367188 C 12.289062 11.902344 12.140625 13.015625 12.140625 13.1875 C 12.140625 13.351562 12.449219 14.191406 12.414062 14.203125 C 12.378906 14.207031 12.214844 14.148438 12.339844 14.625 C 12.449219 15.101562 13.03125 15.464844 13.03125 15.464844 C 13.15625 15.503906 13.394531 16.335938 13.503906 16.683594 L 13.394531 16.730469 L 13.300781 16.894531 L 13.101562 17.046875 C 13.011719 17.074219 12.851562 17.089844 12.632812 17.101562 C 12.433594 17.042969 11.617188 16.839844 10.382812 17.042969 L 9.148438 16.421875 L 9.078125 16.546875 C 8.75 16.449219 8.371094 16.382812 7.96875 16.414062 C 7.96875 16.414062 7.097656 14.660156 6.300781 14.042969 L 6.300781 13.976562 C 6.375 13.929688 6.300781 13.742188 6.300781 13.652344 C 6.300781 13.5625 6.046875 13.28125 6.046875 13.28125 L 5.703125 12.722656 C 5.703125 12.722656 5.59375 12.445312 5.539062 12.285156 C 5.503906 12.125 5.359375 12.21875 5.359375 12.21875 C 5.304688 12.035156 5.285156 11.84375 5.339844 11.792969 C 5.410156 11.746094 5.703125 10.636719 5.71875 10.480469 C 5.738281 10.324219 5.449219 9.738281 5.394531 9.59375 C 5.757812 9.289062 6.425781 8.699219 6.589844 8.597656 C 7.933594 7.8125 9.09375 6.777344 9.636719 5.300781 C 10.507812 2.976562 10.074219 0.984375 8.566406 0.226562 L 8.511719 0.195312 L 8.441406 0.15625 L 8.367188 0.125 C 6.933594 -0.359375 5.300781 0.464844 4.285156 2.703125 C 3.632812 4.140625 3.597656 5.664062 3.960938 7.269531 C 4.03125 7.609375 4.050781 8.144531 4.03125 8.699219 L 4.03125 8.792969 L 3.617188 8.867188 C 3.433594 8.945312 3.488281 9.0625 3.488281 9.0625 L 3.597656 9.691406 L 3.578125 9.710938 C 3.488281 9.734375 3.378906 9.785156 3.359375 9.96875 L 3.359375 9.984375 C 3.140625 10.023438 3.140625 10.351562 3.140625 10.351562 C 2.835938 10.449219 2.941406 10.726562 2.941406 10.726562 C 2.726562 10.867188 2.925781 11.074219 2.980469 11.179688 C 3.035156 11.289062 3.339844 11.941406 3.339844 11.941406 L 2.996094 12.832031 C 2.582031 13.863281 2.144531 14.890625 2.144531 14.890625 C 2.144531 14.933594 2.109375 14.953125 2.089844 14.96875 L 2.035156 15 C 2.035156 15.003906 2 15.023438 2 15.121094 C 2.035156 15.203125 2.21875 15.324219 2.453125 15.433594 C 2.6875 15.550781 2.78125 15.570312 2.871094 15.554688 C 2.925781 15.480469 2.925781 15.449219 2.925781 15.433594 C 2.925781 15.414062 2.90625 15.390625 2.90625 15.375 C 2.90625 15.351562 2.90625 15.316406 2.925781 15.28125 C 2.925781 15.28125 3.25 14.484375 3.613281 13.585938 L 3.886719 12.957031 L 3.941406 13.035156 C 3.921875 13.046875 3.851562 13.074219 3.886719 13.175781 C 3.941406 13.285156 3.941406 13.34375 3.996094 13.398438 C 4.050781 13.453125 4.066406 13.484375 4.105469 13.59375 C 4.125 13.703125 4.105469 13.890625 4.140625 13.945312 C 4.160156 13.960938 4.175781 14.003906 4.210938 14.050781 C 4.230469 14.175781 4.304688 14.296875 4.320312 14.472656 C 4.335938 14.621094 4.414062 14.59375 4.414062 14.59375 C 4.414062 14.59375 4.429688 14.589844 4.449219 14.585938 C 4.757812 15.335938 5.554688 17.5 6.679688 18.542969 C 6.679688 18.542969 7.132812 18.625 7.511719 18.90625 L 7.496094 18.941406 L 7.402344 19.085938 C 7.402344 19.085938 7.695312 19.226562 7.910156 19.371094 C 8.128906 19.507812 9.144531 20.101562 9.707031 20.335938 L 10.035156 21.949219 L 10.160156 21.949219 C 7.601562 22.628906 5.261719 23.671875 3.269531 24.992188 C 7.1875 23.179688 11.972656 22.109375 17.125 22.109375 C 22.277344 22.109375 27.046875 23.179688 30.964844 24.992188 C 28.027344 23.046875 24.363281 21.707031 20.335938 21.246094 C 20.625 20.636719 21.242188 20.347656 21.242188 20.347656 C 21.441406 20.210938 23.257812 20.003906 23.257812 20.003906 L 23.257812 19.867188 C 25.503906 19.367188 26.613281 18.515625 26.613281 18.515625 C 27.066406 18.445312 27.121094 18.328125 27.121094 18.328125 C 27.175781 18.242188 27.445312 18.042969 27.445312 18.042969 C 28.734375 17.171875 30.09375 14.757812 30.09375 14.757812 C 30.367188 14.855469 30.457031 14.574219 30.457031 14.574219 C 30.566406 14.421875 31.183594 13.617188 31.183594 13.617188 C 31.363281 13.445312 31.253906 13.316406 31.253906 13.316406 L 31.164062 13.199219 L 31.199219 13.164062 C 31.292969 13.070312 31.402344 12.757812 31.453125 12.6875 C 31.507812 12.617188 31.691406 12.21875 31.691406 12.21875 C 31.726562 12.09375 31.925781 11.691406 31.925781 11.691406 C 32.089844 11.480469 32.035156 11.246094 32.035156 11.246094 "/>
</g>
</svg>
