<?xml version="1.0" encoding="UTF-8"?>
<svg xmlns="http://www.w3.org/2000/svg" xmlns:xlink="http://www.w3.org/1999/xlink" width="18pt" height="18pt" viewBox="0 0 18 18" version="1.1">
<g id="surface1">
<path style=" stroke:none;fill-rule:nonzero;fill:rgb(100%,100%,100%);fill-opacity:1;" d="M 1.003906 9.003906 L 8.992188 16.988281 L 16.980469 9 C 14.316406 6.339844 11.65625 3.675781 8.992188 1.015625 Z M 1.003906 9.003906 "/>
<path style=" stroke:none;fill-rule:nonzero;fill:rgb(50.196078%,50.196078%,50.196078%);fill-opacity:1;" d="M 4.589844 4.601562 L 0.1875 9.003906 L 8.992188 17.808594 L 13.394531 13.402344 L 17.796875 9 L 13.394531 4.597656 C 10.976562 2.179688 8.992188 0.195312 8.992188 0.195312 C 8.992188 0.195312 7.011719 2.179688 4.589844 4.601562 Z M 12.699219 5.296875 L 16.402344 9 L 12.699219 12.707031 L 8.992188 16.414062 L 5.289062 12.707031 L 1.582031 9 L 5.289062 5.296875 C 7.324219 3.257812 8.992188 1.59375 8.992188 1.59375 C 8.992188 1.59375 10.660156 3.257812 12.699219 5.296875 Z M 12.699219 5.296875 "/>
<path style=" stroke:none;fill-rule:nonzero;fill:rgb(25.098039%,25.098039%,25.098039%);fill-opacity:1;" d="M 9.09375 4.425781 C 8.148438 4.425781 6.761719 5.078125 6.761719 6.21875 C 6.761719 6.695312 7.023438 7 7.402344 7 C 8.074219 7 8.210938 5.925781 9.09375 5.925781 C 9.535156 5.925781 9.964844 6.273438 9.964844 6.75 C 9.964844 7.378906 9.546875 7.554688 9.125 7.671875 C 8.695312 7.792969 8.273438 7.859375 8.273438 8.25 L 8.273438 9.335938 C 8.273438 9.769531 8.558594 10.082031 9.03125 10.082031 C 9.472656 10.082031 9.789062 9.769531 9.789062 9.335938 L 9.789062 8.945312 C 10.871094 8.660156 11.605469 7.957031 11.605469 6.75 C 11.605469 5.296875 10.449219 4.425781 9.09375 4.425781 Z M 9.050781 10.6875 C 9.035156 10.6875 9.023438 10.6875 9.007812 10.691406 C 8.773438 10.699219 8.554688 10.796875 8.382812 10.972656 C 8.328125 11.023438 8.296875 11.066406 8.253906 11.125 C 8.160156 11.269531 8.109375 11.410156 8.082031 11.597656 C 8.078125 11.632812 8.078125 11.804688 8.082031 11.847656 C 8.105469 12.050781 8.183594 12.234375 8.308594 12.390625 C 8.335938 12.429688 8.398438 12.492188 8.4375 12.523438 C 8.550781 12.621094 8.683594 12.691406 8.820312 12.726562 C 8.910156 12.75 8.957031 12.753906 9.054688 12.753906 C 9.148438 12.753906 9.199219 12.75 9.28125 12.726562 C 9.511719 12.671875 9.71875 12.523438 9.855469 12.316406 C 9.957031 12.164062 10.015625 11.996094 10.03125 11.808594 C 10.035156 11.757812 10.03125 11.632812 10.023438 11.589844 C 10.007812 11.460938 9.976562 11.355469 9.925781 11.25 C 9.777344 10.949219 9.5 10.738281 9.183594 10.695312 C 9.148438 10.691406 9.097656 10.6875 9.050781 10.6875 Z M 9.050781 10.6875 "/>
</g>
</svg>
