<?xml version="1.0" encoding="UTF-8"?>
<svg xmlns="http://www.w3.org/2000/svg" xmlns:xlink="http://www.w3.org/1999/xlink" width="27pt" height="18pt" viewBox="0 0 27 18" version="1.1">
<g id="surface1">
<rect x="0" y="0" width="27" height="18" style="fill:rgb(100%,100%,100%);fill-opacity:1;stroke:none;"/>
<path style=" stroke:none;fill-rule:nonzero;fill:rgb(0%,21.960784%,65.882353%);fill-opacity:1;" d="M 10 2 L 27 2 L 27 4 L 10 4 Z M 10 2 "/>
<path style=" stroke:none;fill-rule:nonzero;fill:rgb(0%,21.960784%,65.882353%);fill-opacity:1;" d="M 10 6 L 27 6 L 27 8 L 10 8 Z M 10 6 "/>
<path style=" stroke:none;fill-rule:nonzero;fill:rgb(0%,21.960784%,65.882353%);fill-opacity:1;" d="M 0 10 L 27 10 L 27 12 L 0 12 Z M 0 10 "/>
<path style=" stroke:none;fill-rule:nonzero;fill:rgb(0%,21.960784%,65.882353%);fill-opacity:1;" d="M 0 14 L 27 14 L 27 16 L 0 16 Z M 0 14 "/>
<path style="fill-rule:nonzero;fill:rgb(98.823529%,81.960784%,8.627451%);fill-opacity:1;stroke-width:0.6;stroke-linecap:square;stroke-linejoin:miter;stroke:rgb(0%,0%,0%);stroke-opacity:1;stroke-miterlimit:20;" d="M 1.494526 8.990253 L 6.009105 12.00178 C -1.983574 24.998637 6.996621 27.006064 -0.0062516 33.020164 C 3.007773 26.006131 -3.008755 27.998575 -2.983645 15.99576 " transform="matrix(0.101627,0.0420952,-0.0420952,0.101627,5,5)"/>
<path style="fill:none;stroke-width:0.6;stroke-linecap:butt;stroke-linejoin:miter;stroke:rgb(0%,0%,0%);stroke-opacity:1;stroke-miterlimit:20;" d="M -0.0175498 11.000315 C -2.008822 24.009727 4.489606 28.006066 -0.0062516 33.020164 " transform="matrix(0.101627,0.0420952,-0.0420952,0.101627,5,5)"/>
<path style="fill-rule:nonzero;fill:rgb(98.823529%,81.960784%,8.627451%);fill-opacity:1;stroke-width:0.6;stroke-linecap:butt;stroke-linejoin:miter;stroke:rgb(0%,0%,0%);stroke-opacity:1;stroke-miterlimit:20;" d="M 0.000000000000014211 0.000000000000014211 L 6.00142 0.000000000000014211 L 0.000000000000014211 32.990057 L -6.00142 0.000000000000014211 L 0.000000000000014211 0.000000000000014211 L 0.000000000000014211 32.990057 " transform="matrix(0.11,0,0,0.11,5,5)"/>
<path style="fill-rule:nonzero;fill:rgb(98.823529%,81.960784%,8.627451%);fill-opacity:1;stroke-width:0.6;stroke-linecap:square;stroke-linejoin:miter;stroke:rgb(0%,0%,0%);stroke-opacity:1;stroke-miterlimit:20;" d="M 1.499383 9.000379 L 5.98012 12.009478 C -2.012834 24.996071 6.997603 26.998641 0.0062516 33.020164 C 2.993634 25.993576 -2.992652 28.01113 -3.017762 16.008315 " transform="matrix(0.0420952,0.101627,-0.101627,0.0420952,5,5)"/>
<path style="fill:none;stroke-width:0.6;stroke-linecap:butt;stroke-linejoin:miter;stroke:rgb(0%,0%,0%);stroke-opacity:1;stroke-miterlimit:20;" d="M 0.0175498 11.000315 C -1.987586 24.007161 4.50571 28.003638 0.0062516 33.020164 " transform="matrix(0.0420952,0.101627,-0.101627,0.0420952,5,5)"/>
<path style="fill-rule:nonzero;fill:rgb(98.823529%,81.960784%,8.627451%);fill-opacity:1;stroke-width:0.6;stroke-linecap:butt;stroke-linejoin:miter;stroke:rgb(0%,0%,0%);stroke-opacity:1;stroke-miterlimit:20;" d="M 0.000000000000014211 -0.000000000000001294 L 5.976258 -0.000000000000000881 L 0.000000000000014211 32.994968 L -5.976258 -0.000000000000001707 L 0.000000000000014211 -0.000000000000001294 L 0.000000000000014211 32.994968 " transform="matrix(0.0777817,0.0777817,-0.0777817,0.0777817,5,5)"/>
<path style="fill-rule:nonzero;fill:rgb(98.823529%,81.960784%,8.627451%);fill-opacity:1;stroke-width:0.6;stroke-linecap:square;stroke-linejoin:miter;stroke:rgb(0%,0%,0%);stroke-opacity:1;stroke-miterlimit:20;" d="M 1.494526 8.990253 L 6.009105 12.00178 C -1.983574 24.998637 6.996621 27.006064 -0.0062516 33.020164 C 3.007773 26.006131 -3.008755 27.998575 -2.983645 15.99576 " transform="matrix(-0.0420952,0.101627,-0.101627,-0.0420952,5,5)"/>
<path style="fill:none;stroke-width:0.6;stroke-linecap:butt;stroke-linejoin:miter;stroke:rgb(0%,0%,0%);stroke-opacity:1;stroke-miterlimit:20;" d="M -0.0175498 11.000315 C -2.008822 24.009727 4.489606 28.006066 -0.0062516 33.020164 " transform="matrix(-0.0420952,0.101627,-0.101627,-0.0420952,5,5)"/>
<path style="fill-rule:nonzero;fill:rgb(98.823529%,81.960784%,8.627451%);fill-opacity:1;stroke-width:0.6;stroke-linecap:butt;stroke-linejoin:miter;stroke:rgb(0%,0%,0%);stroke-opacity:1;stroke-miterlimit:20;" d="M 0.000000000000014211 -0.000000000000007105 L 6.00142 -0.000000000000007105 L 0.000000000000014211 32.990057 L -6.00142 -0.000000000000007105 L 0.000000000000014211 -0.000000000000007105 L 0.000000000000014211 32.990057 " transform="matrix(0.000000000000000007,0.11,-0.11,0.000000000000000007,5,5)"/>
<path style="fill-rule:nonzero;fill:rgb(98.823529%,81.960784%,8.627451%);fill-opacity:1;stroke-width:0.6;stroke-linecap:square;stroke-linejoin:miter;stroke:rgb(0%,0%,0%);stroke-opacity:1;stroke-miterlimit:20;" d="M 1.499383 9.000379 L 5.98012 12.009478 C -2.012834 24.996071 6.997603 26.998641 0.0062516 33.020164 C 2.993634 25.993576 -2.992652 28.01113 -3.017762 16.008315 " transform="matrix(-0.101627,0.0420952,-0.0420952,-0.101627,5,5)"/>
<path style="fill:none;stroke-width:0.6;stroke-linecap:butt;stroke-linejoin:miter;stroke:rgb(0%,0%,0%);stroke-opacity:1;stroke-miterlimit:20;" d="M 0.0175498 11.000315 C -1.987586 24.007161 4.50571 28.003638 0.0062516 33.020164 " transform="matrix(-0.101627,0.0420952,-0.0420952,-0.101627,5,5)"/>
<path style="fill-rule:nonzero;fill:rgb(98.823529%,81.960784%,8.627451%);fill-opacity:1;stroke-width:0.6;stroke-linecap:butt;stroke-linejoin:miter;stroke:rgb(0%,0%,0%);stroke-opacity:1;stroke-miterlimit:20;" d="M -0.000000000000002587 -0.000000000000014211 L 5.976258 -0.000000000000014211 L -0.000000000000007146 32.994968 L -5.976258 -0.000000000000014211 L -0.000000000000002587 -0.000000000000014211 L -0.000000000000007146 32.994968 " transform="matrix(-0.0777817,0.0777817,-0.0777817,-0.0777817,5,5)"/>
<path style="fill-rule:nonzero;fill:rgb(98.823529%,81.960784%,8.627451%);fill-opacity:1;stroke-width:0.6;stroke-linecap:square;stroke-linejoin:miter;stroke:rgb(0%,0%,0%);stroke-opacity:1;stroke-miterlimit:20;" d="M 1.494526 8.990253 L 6.009105 12.00178 C -1.983574 24.998637 6.996621 27.006064 -0.0062516 33.020164 C 3.007773 26.006131 -3.008755 27.998575 -2.983645 15.99576 " transform="matrix(-0.101627,-0.0420952,0.0420952,-0.101627,5,5)"/>
<path style="fill:none;stroke-width:0.6;stroke-linecap:butt;stroke-linejoin:miter;stroke:rgb(0%,0%,0%);stroke-opacity:1;stroke-miterlimit:20;" d="M -0.0175498 11.000315 C -2.008822 24.009727 4.489606 28.006066 -0.0062516 33.020164 " transform="matrix(-0.101627,-0.0420952,0.0420952,-0.101627,5,5)"/>
<path style="fill-rule:nonzero;fill:rgb(98.823529%,81.960784%,8.627451%);fill-opacity:1;stroke-width:0.6;stroke-linecap:butt;stroke-linejoin:miter;stroke:rgb(0%,0%,0%);stroke-opacity:1;stroke-miterlimit:20;" d="M -0.000000000000014211 -0.000000000000014211 L 6.00142 -0.000000000000007105 L -0.000000000000021316 32.990057 L -6.00142 -0.000000000000014211 L -0.000000000000014211 -0.000000000000014211 L -0.000000000000021316 32.990057 " transform="matrix(-0.11,0.000000000000000013,-0.000000000000000013,-0.11,5,5)"/>
<path style="fill-rule:nonzero;fill:rgb(98.823529%,81.960784%,8.627451%);fill-opacity:1;stroke-width:0.6;stroke-linecap:square;stroke-linejoin:miter;stroke:rgb(0%,0%,0%);stroke-opacity:1;stroke-miterlimit:20;" d="M 1.499383 9.000379 L 5.98012 12.009478 C -2.012834 24.996071 6.997603 26.998641 0.0062516 33.020164 C 2.993634 25.993576 -2.992652 28.01113 -3.017762 16.008315 " transform="matrix(-0.0420952,-0.101627,0.101627,-0.0420952,5,5)"/>
<path style="fill:none;stroke-width:0.6;stroke-linecap:butt;stroke-linejoin:miter;stroke:rgb(0%,0%,0%);stroke-opacity:1;stroke-miterlimit:20;" d="M 0.0175498 11.000315 C -1.987586 24.007161 4.50571 28.003638 0.0062516 33.020164 " transform="matrix(-0.0420952,-0.101627,0.101627,-0.0420952,5,5)"/>
<path style="fill-rule:nonzero;fill:rgb(98.823529%,81.960784%,8.627451%);fill-opacity:1;stroke-width:0.6;stroke-linecap:butt;stroke-linejoin:miter;stroke:rgb(0%,0%,0%);stroke-opacity:1;stroke-miterlimit:20;" d="M -0.000000000000014211 0.000000000000002587 L 5.976258 0.000000000000003413 L -0.000000000000028422 32.994968 L -5.976258 0.000000000000001762 L -0.000000000000014211 0.000000000000002587 L -0.000000000000028422 32.994968 " transform="matrix(-0.0777817,-0.0777817,0.0777817,-0.0777817,5,5)"/>
<path style="fill-rule:nonzero;fill:rgb(98.823529%,81.960784%,8.627451%);fill-opacity:1;stroke-width:0.6;stroke-linecap:square;stroke-linejoin:miter;stroke:rgb(0%,0%,0%);stroke-opacity:1;stroke-miterlimit:20;" d="M 1.494526 8.990253 L 6.009105 12.00178 C -1.983574 24.998637 6.996621 27.006064 -0.0062516 33.020164 C 3.007773 26.006131 -3.008755 27.998575 -2.983645 15.99576 " transform="matrix(0.0420952,-0.101627,0.101627,0.0420952,5,5)"/>
<path style="fill:none;stroke-width:0.6;stroke-linecap:butt;stroke-linejoin:miter;stroke:rgb(0%,0%,0%);stroke-opacity:1;stroke-miterlimit:20;" d="M -0.0175498 11.000315 C -2.008822 24.009727 4.489606 28.006066 -0.0062516 33.020164 " transform="matrix(0.0420952,-0.101627,0.101627,0.0420952,5,5)"/>
<path style="fill-rule:nonzero;fill:rgb(98.823529%,81.960784%,8.627451%);fill-opacity:1;stroke-width:0.6;stroke-linecap:butt;stroke-linejoin:miter;stroke:rgb(0%,0%,0%);stroke-opacity:1;stroke-miterlimit:20;" d="M -0.000000000000014211 0.000000000000014211 L 6.00142 0.000000000000014211 L -0.000000000000021316 32.990057 L -6.00142 0.000000000000007105 L -0.000000000000014211 0.000000000000014211 L -0.000000000000021316 32.990057 " transform="matrix(-0.00000000000000002,-0.11,0.11,-0.00000000000000002,5,5)"/>
<path style="fill-rule:nonzero;fill:rgb(98.823529%,81.960784%,8.627451%);fill-opacity:1;stroke-width:0.6;stroke-linecap:square;stroke-linejoin:miter;stroke:rgb(0%,0%,0%);stroke-opacity:1;stroke-miterlimit:20;" d="M 1.499383 9.000379 L 5.98012 12.009478 C -2.012834 24.996071 6.997603 26.998641 0.0062516 33.020164 C 2.993634 25.993576 -2.992652 28.01113 -3.017762 16.008315 " transform="matrix(0.101627,-0.0420952,0.0420952,0.101627,5,5)"/>
<path style="fill:none;stroke-width:0.6;stroke-linecap:butt;stroke-linejoin:miter;stroke:rgb(0%,0%,0%);stroke-opacity:1;stroke-miterlimit:20;" d="M 0.0175498 11.000315 C -1.987586 24.007161 4.50571 28.003638 0.0062516 33.020164 " transform="matrix(0.101627,-0.0420952,0.0420952,0.101627,5,5)"/>
<path style="fill-rule:nonzero;fill:rgb(98.823529%,81.960784%,8.627451%);fill-opacity:1;stroke-width:0.6;stroke-linecap:butt;stroke-linejoin:miter;stroke:rgb(0%,0%,0%);stroke-opacity:1;stroke-miterlimit:20;" d="M 0.000000000000003881 0.000000000000014211 L 5.976258 0.000000000000014211 L -0.000000000000002957 32.994968 L -5.976258 0.000000000000014211 L 0.000000000000003881 0.000000000000014211 L -0.000000000000002957 32.994968 " transform="matrix(0.0777817,-0.0777817,0.0777817,0.0777817,5,5)"/>
<path style="fill-rule:nonzero;fill:rgb(98.823529%,81.960784%,8.627451%);fill-opacity:1;stroke-width:0.6;stroke-linecap:butt;stroke-linejoin:miter;stroke:rgb(0%,0%,0%);stroke-opacity:1;stroke-miterlimit:20;" d="M 11.008523 0.000000000000014211 C 11.008523 6.072443 6.072443 11.008523 0.000000000000014211 11.008523 C -6.072443 11.008523 -11.008523 6.072443 -11.008523 0.000000000000014211 C -11.008523 -6.072443 -6.072443 -11.008523 0.000000000000014211 -11.008523 C 6.072443 -11.008523 11.008523 -6.072443 11.008523 0.000000000000014211 Z M 11.008523 0.000000000000014211 " transform="matrix(0.11,0,0,0.11,5,5)"/>
<path style=" stroke:none;fill-rule:nonzero;fill:rgb(0%,0%,0%);fill-opacity:1;" d="M 5.890625 4.515625 C 5.8125 4.605469 5.769531 4.449219 5.496094 4.449219 C 5.21875 4.449219 5.175781 4.613281 5.132812 4.582031 C 5.089844 4.550781 5.363281 4.351562 5.449219 4.339844 C 5.539062 4.328125 5.792969 4.417969 5.890625 4.515625 M 5.570312 4.613281 C 5.648438 4.679688 5.582031 4.824219 5.507812 4.824219 C 5.429688 4.824219 5.285156 4.691406 5.351562 4.605469 "/>
<path style=" stroke:none;fill-rule:nonzero;fill:rgb(0%,0%,0%);fill-opacity:1;" d="M 5.210938 4.714844 C 5.21875 4.582031 5.328125 4.558594 5.507812 4.558594 C 5.683594 4.558594 5.757812 4.691406 5.824219 4.726562 C 5.746094 4.726562 5.683594 4.613281 5.507812 4.613281 C 5.328125 4.613281 5.328125 4.613281 5.210938 4.726562 M 5.242188 4.746094 C 5.285156 4.679688 5.339844 4.8125 5.460938 4.8125 C 5.582031 4.8125 5.648438 4.78125 5.726562 4.726562 C 5.804688 4.671875 5.617188 4.855469 5.496094 4.855469 C 5.375 4.855469 5.210938 4.789062 5.242188 4.746094 "/>
<path style=" stroke:none;fill-rule:nonzero;fill:rgb(0%,0%,0%);fill-opacity:1;" d="M 5.617188 4.8125 C 5.757812 4.734375 5.671875 4.625 5.617188 4.605469 C 5.636719 4.625 5.726562 4.734375 5.617188 4.8125 M 5 5.472656 C 5.066406 5.472656 5.089844 5.449219 5.175781 5.449219 C 5.265625 5.449219 5.472656 5.570312 5.59375 5.527344 C 5.339844 5.628906 5.441406 5.5625 5 5.5625 L 4.945312 5.5625 M 5.636719 5.628906 C 5.59375 5.550781 5.605469 5.570312 5.515625 5.449219 C 5.605469 5.515625 5.628906 5.550781 5.636719 5.628906 M 5 5.738281 C 5.273438 5.738281 5.230469 5.683594 5.59375 5.527344 C 5.328125 5.5625 5.273438 5.648438 5 5.648438 L 4.945312 5.648438 M 5 5.328125 C 5.078125 5.328125 5.097656 5.273438 5.1875 5.273438 C 5.273438 5.273438 5.394531 5.308594 5.449219 5.351562 C 5.460938 5.363281 5.417969 5.265625 5.328125 5.253906 C 5.242188 5.242188 5.273438 5.097656 5.175781 5.078125 C 5.175781 5.121094 5.210938 5.109375 5.21875 5.175781 C 5.21875 5.230469 5.121094 5.230469 5.097656 5.175781 C 5.121094 5.265625 5.054688 5.265625 5 5.265625 "/>
<path style=" stroke:none;fill-rule:nonzero;fill:rgb(0%,0%,0%);fill-opacity:1;" d="M 4.109375 4.515625 C 4.1875 4.605469 4.230469 4.449219 4.503906 4.449219 C 4.78125 4.449219 4.824219 4.613281 4.867188 4.582031 C 4.910156 4.550781 4.636719 4.351562 4.550781 4.339844 C 4.460938 4.328125 4.207031 4.417969 4.109375 4.515625 M 4.429688 4.613281 C 4.351562 4.679688 4.417969 4.824219 4.492188 4.824219 C 4.570312 4.824219 4.714844 4.691406 4.648438 4.605469 "/>
<path style=" stroke:none;fill-rule:nonzero;fill:rgb(0%,0%,0%);fill-opacity:1;" d="M 4.789062 4.714844 C 4.78125 4.582031 4.671875 4.558594 4.492188 4.558594 C 4.316406 4.558594 4.242188 4.691406 4.175781 4.726562 C 4.253906 4.726562 4.316406 4.613281 4.492188 4.613281 C 4.671875 4.613281 4.671875 4.613281 4.789062 4.726562 M 4.757812 4.746094 C 4.714844 4.679688 4.660156 4.8125 4.539062 4.8125 C 4.417969 4.8125 4.351562 4.78125 4.273438 4.726562 C 4.195312 4.671875 4.382812 4.855469 4.503906 4.855469 C 4.625 4.855469 4.789062 4.789062 4.757812 4.746094 "/>
<path style=" stroke:none;fill-rule:nonzero;fill:rgb(0%,0%,0%);fill-opacity:1;" d="M 4.382812 4.8125 C 4.242188 4.734375 4.328125 4.625 4.382812 4.605469 C 4.363281 4.625 4.273438 4.734375 4.382812 4.8125 M 5 5.472656 C 4.933594 5.472656 4.910156 5.449219 4.824219 5.449219 C 4.734375 5.449219 4.527344 5.570312 4.40625 5.527344 C 4.660156 5.628906 4.558594 5.5625 5 5.5625 L 5.054688 5.5625 M 4.363281 5.628906 C 4.40625 5.550781 4.394531 5.570312 4.484375 5.449219 C 4.394531 5.515625 4.371094 5.550781 4.363281 5.628906 M 5 5.738281 C 4.726562 5.738281 4.769531 5.683594 4.40625 5.527344 C 4.671875 5.5625 4.726562 5.648438 5 5.648438 L 5.054688 5.648438 M 5 5.328125 C 4.921875 5.328125 4.902344 5.273438 4.8125 5.273438 C 4.726562 5.273438 4.605469 5.308594 4.550781 5.351562 C 4.539062 5.363281 4.582031 5.265625 4.671875 5.253906 C 4.757812 5.242188 4.726562 5.097656 4.824219 5.078125 C 4.824219 5.121094 4.789062 5.109375 4.78125 5.175781 C 4.78125 5.230469 4.878906 5.230469 4.902344 5.175781 C 4.878906 5.265625 4.945312 5.265625 5 5.265625 "/>
<path style=" stroke:none;fill-rule:nonzero;fill:rgb(0%,0%,0%);fill-opacity:1;" d="M 5 5.835938 C 4.945312 5.835938 4.800781 5.867188 5 5.867188 C 5.199219 5.867188 5.054688 5.835938 5 5.835938 "/>
</g>
</svg>
