<?xml version="1.0" encoding="UTF-8"?>
<svg xmlns="http://www.w3.org/2000/svg" xmlns:xlink="http://www.w3.org/1999/xlink" width="35pt" height="25pt" viewBox="0 0 35 25" version="1.1">
<g id="surface1">
<path style=" stroke:none;fill-rule:nonzero;fill:rgb(0%,0%,0%);fill-opacity:1;" d="M 18.273438 0.460938 C 18.273438 0.460938 17.871094 -0.144531 16.921875 0.03125 C 15.972656 0.210938 16.140625 1.074219 16.140625 1.074219 C 16.140625 1.074219 15.972656 1.714844 16.210938 1.953125 C 16.210938 1.953125 16.167969 2.265625 16.351562 2.449219 C 16.351562 2.449219 16.09375 2.667969 16.148438 2.941406 C 16.199219 3.21875 16.269531 3.691406 16.191406 3.769531 C 16.117188 3.84375 16.574219 3.386719 16.574219 3.183594 C 16.574219 3.183594 16.980469 3.816406 16.859375 3.9375 L 16.8125 3.894531 L 16.511719 4.273438 L 16.574219 4.328125 C 16.574219 4.328125 16.15625 4.59375 15.945312 4.664062 C 15.730469 4.738281 15.640625 5.21875 15.640625 5.449219 C 15.640625 5.679688 15.648438 6.628906 15.800781 7.386719 C 15.953125 8.140625 16.335938 8.796875 16.28125 8.933594 C 16.226562 9.066406 16.289062 9.304688 16.175781 9.527344 C 16.058594 9.75 15.863281 10.167969 15.863281 10.425781 C 15.863281 10.683594 15.703125 11.074219 15.570312 11.207031 C 15.4375 11.339844 15.023438 11.6875 14.960938 11.816406 C 14.894531 11.949219 14.792969 12.226562 14.839844 12.273438 C 14.839844 12.273438 13.515625 13.085938 13.644531 13.320312 C 13.644531 13.320312 12.039062 14.050781 10.878906 14.203125 C 9.714844 14.359375 8.671875 14.671875 8.117188 15.175781 C 7.519531 15.71875 6.683594 16.824219 7.796875 17.832031 C 8.910156 18.839844 10.894531 18.097656 11.519531 17.515625 C 12.085938 16.984375 12.378906 16.070312 12.710938 15.5 C 13.042969 14.933594 13.5 13.742188 13.828125 13.742188 C 13.886719 13.742188 13.882812 13.914062 14.019531 13.777344 C 14.152344 13.640625 15.097656 12.878906 15.097656 12.878906 C 15.097656 12.878906 15.3125 13.078125 15.402344 12.984375 C 15.496094 12.890625 15.585938 12.707031 15.585938 12.707031 C 15.585938 12.707031 15.757812 12.683594 15.8125 12.628906 L 15.9375 12.597656 C 15.9375 12.597656 16.042969 12.84375 15.878906 13.007812 C 15.710938 13.175781 15.832031 13.234375 15.832031 13.234375 C 15.832031 13.234375 15.035156 15.058594 14.90625 15.402344 C 14.777344 15.746094 14.667969 16.125 14.347656 16.550781 C 14.03125 16.976562 13.4375 17.746094 13.046875 17.960938 C 12.65625 18.175781 12.109375 19.074219 11.742188 19.714844 C 11.375 20.355469 11.0625 21.058594 10.914062 21.207031 C 10.765625 21.355469 10.550781 21.445312 10.550781 21.570312 C 10.550781 21.695312 10.402344 21.84375 10.402344 21.84375 C 10.402344 21.84375 10.109375 21.984375 9.917969 22.171875 C 9.726562 22.363281 9.207031 22.714844 9.046875 22.796875 C 8.886719 22.875 8.65625 23.265625 8.886719 23.5 C 9.117188 23.730469 9.921875 24.417969 10.042969 24.296875 C 10.164062 24.179688 10.542969 23.832031 10.65625 23.71875 C 10.765625 23.609375 10.84375 23.5 10.957031 23.285156 C 11.074219 23.070312 11.382812 22.484375 11.25 22.441406 C 11.25 22.441406 11.355469 21.976562 11.617188 21.71875 C 11.875 21.460938 12.601562 20.839844 12.957031 20.351562 C 13.3125 19.863281 13.675781 19.027344 14.023438 18.839844 C 14.371094 18.65625 14.878906 18.078125 15.132812 17.820312 C 15.390625 17.5625 16.289062 16.441406 16.769531 15.652344 C 17.25 14.859375 17.726562 14.222656 17.96875 13.980469 C 18.214844 13.734375 18.457031 13.277344 18.644531 12.984375 C 18.644531 12.984375 19.035156 12.707031 19.292969 12.964844 C 19.292969 12.964844 20.023438 14.386719 20.386719 14.894531 C 20.75 15.402344 21.277344 16.183594 21.605469 17 C 21.933594 17.820312 22.003906 18.085938 22.003906 18.386719 C 22.003906 18.691406 21.78125 19.570312 21.949219 20.058594 C 22.121094 20.546875 22.351562 21.4375 22.414062 21.917969 C 22.476562 22.394531 22.5 23.082031 22.5 23.082031 L 22.445312 23.136719 C 22.445312 23.136719 22.40625 23.640625 22.332031 23.878906 C 22.261719 24.121094 22.15625 24.582031 22.414062 24.671875 C 22.671875 24.761719 22.867188 24.589844 23.035156 24.761719 C 23.203125 24.929688 23.765625 25 24.15625 25 C 24.546875 25 24.617188 24.875 24.554688 24.589844 C 24.492188 24.308594 23.914062 23.710938 23.914062 23.710938 C 23.914062 23.710938 24.625 23.488281 24.550781 23.074219 C 24.476562 22.664062 24.144531 22.664062 23.621094 22.875 C 23.621094 22.875 23.492188 22.660156 23.398438 22.75 C 23.398438 22.75 23.390625 20.910156 23.445312 20.15625 C 23.496094 19.402344 23.398438 18.972656 23.328125 18.476562 C 23.257812 17.980469 23.265625 17.292969 23.152344 16.984375 C 23.035156 16.671875 22.945312 15.980469 22.945312 15.714844 C 22.945312 15.445312 22.636719 13.953125 22.492188 13.542969 C 22.351562 13.136719 21.996094 12.132812 21.996094 12.132812 C 21.996094 12.132812 22.304688 11.757812 22.457031 11.757812 C 22.457031 11.757812 22.246094 10.292969 21.988281 10.035156 C 21.730469 9.777344 21.863281 9.25 21.597656 8.984375 C 21.328125 8.71875 20.992188 7.792969 20.992188 7.792969 C 20.992188 7.792969 20.832031 7.046875 20.832031 6.78125 C 20.832031 6.515625 20.671875 6.222656 20.855469 6.039062 C 21.039062 5.855469 21.140625 5.414062 20.996094 5.164062 C 20.996094 5.164062 21.425781 5.863281 21.992188 5.910156 C 22.5625 5.957031 24.101562 6.039062 24.480469 5.921875 C 24.859375 5.804688 25.851562 5.609375 26.367188 5.890625 C 26.882812 6.175781 26.980469 6.136719 26.980469 6.136719 C 26.980469 6.136719 27.394531 6.113281 27.628906 6.015625 C 27.859375 5.921875 27.96875 5.730469 27.882812 5.644531 C 27.882812 5.644531 28.09375 5.585938 28.125 5.40625 C 28.152344 5.230469 28.007812 5.3125 28.007812 5.3125 C 28.007812 5.3125 28 5.242188 27.878906 5.183594 C 27.757812 5.128906 27.609375 5.246094 27.550781 5.246094 C 27.492188 5.246094 27.101562 5.164062 26.933594 5.082031 C 26.769531 4.996094 26.625 4.855469 26.769531 4.855469 C 26.910156 4.855469 27.039062 4.835938 27.101562 4.71875 C 27.160156 4.601562 27.1875 4.496094 27.054688 4.496094 C 26.921875 4.496094 26.769531 4.578125 26.65625 4.605469 C 26.542969 4.636719 26.253906 4.628906 26.175781 4.707031 C 26.09375 4.789062 25.949219 4.921875 25.71875 4.921875 C 25.488281 4.921875 24.820312 5.03125 24.261719 4.960938 C 23.703125 4.890625 23.230469 4.753906 22.957031 4.753906 C 22.6875 4.753906 22.222656 4.773438 22.097656 4.648438 C 21.976562 4.523438 21.78125 4.144531 21.648438 4.078125 C 21.519531 4.015625 21.289062 3.867188 21.175781 3.617188 C 21.0625 3.367188 20.699219 2.59375 20.503906 2.472656 C 20.308594 2.355469 19.90625 2.082031 19.472656 2.390625 C 19.472656 2.390625 18.976562 2.542969 18.875 2.324219 C 18.875 2.324219 19.023438 2.398438 19.230469 2.320312 C 19.230469 2.320312 18.851562 2.375 18.851562 2.195312 C 18.851562 2.195312 19.003906 2.324219 19.070312 2.253906 C 19.070312 2.253906 18.824219 2.171875 18.863281 2.066406 C 18.863281 2.066406 18.9375 2.011719 18.9375 1.957031 C 18.9375 1.90625 18.875 1.84375 18.875 1.84375 C 18.875 1.84375 18.824219 1.617188 18.773438 1.566406 C 18.726562 1.515625 18.726562 1.367188 18.726562 1.332031 C 18.726562 1.292969 18.628906 1.171875 18.578125 1.21875 C 18.578125 1.21875 18.628906 0.644531 18.273438 0.460938 "/>
<path style=" stroke:none;fill-rule:nonzero;fill:rgb(100%,100%,100%);fill-opacity:1;" d="M 17.199219 8.878906 C 17.21875 8.898438 17.441406 8.570312 17.269531 8.453125 C 17.097656 8.332031 17.09375 8.773438 17.199219 8.878906 "/>
<path style=" stroke:none;fill-rule:nonzero;fill:rgb(100%,100%,100%);fill-opacity:1;" d="M 13.304688 13.847656 C 13.304688 13.847656 13.015625 14.117188 12.878906 14.464844 C 12.746094 14.8125 12.527344 15.269531 12.425781 15.167969 C 12.324219 15.066406 12.285156 14.902344 12.101562 14.703125 C 11.992188 14.585938 11.488281 14.476562 11.578125 14.386719 C 11.664062 14.296875 12.023438 14.242188 12.335938 14.113281 C 12.675781 13.972656 13.15625 13.792969 13.304688 13.847656 "/>
<path style=" stroke:none;fill-rule:nonzero;fill:rgb(100%,100%,100%);fill-opacity:1;" d="M 23.746094 23.300781 C 23.746094 23.300781 24.402344 23.550781 24.402344 23.292969 C 24.402344 23.035156 24.199219 22.769531 24.046875 22.824219 C 23.898438 22.875 23.421875 23.210938 23.746094 23.300781 "/>
<path style=" stroke:none;fill-rule:nonzero;fill:rgb(0%,0%,0%);fill-opacity:1;" d="M 20.015625 13.785156 C 20.015625 13.410156 19.710938 13.109375 19.339844 13.109375 C 18.964844 13.109375 18.664062 13.410156 18.664062 13.785156 C 18.664062 14.15625 18.964844 14.460938 19.339844 14.460938 C 19.710938 14.460938 20.015625 14.15625 20.015625 13.785156 "/>
<path style=" stroke:none;fill-rule:nonzero;fill:rgb(100%,100%,100%);fill-opacity:1;" d="M 16.402344 2.09375 C 16.402344 2.09375 16.675781 2.566406 16.964844 2.414062 C 17.25 2.265625 17.636719 1.96875 17.957031 1.90625 C 18.28125 1.84375 18.667969 1.90625 18.667969 1.757812 C 18.667969 1.605469 18.59375 1.296875 18.59375 1.296875 C 18.59375 1.296875 18.660156 1.707031 18.617188 1.738281 C 18.574219 1.769531 18.425781 1.847656 18.082031 1.84375 C 17.742188 1.835938 17.566406 1.972656 17.386719 2.105469 C 17.207031 2.234375 16.90625 2.558594 16.675781 2.351562 C 16.445312 2.148438 16.402344 2.09375 16.402344 2.09375 "/>
<path style=" stroke:none;fill-rule:nonzero;fill:rgb(100%,100%,100%);fill-opacity:1;" d="M 18.335938 1.144531 C 18.335938 1.144531 17.726562 1.054688 17.0625 1.375 C 17.0625 1.375 17.589844 0.964844 18.335938 1.144531 "/>
<path style=" stroke:none;fill-rule:nonzero;fill:rgb(100%,100%,100%);fill-opacity:1;" d="M 18.273438 0.648438 C 18.273438 0.648438 17.332031 0.0976562 16.230469 1.273438 C 16.230469 1.273438 17.300781 0.238281 18.273438 0.648438 "/>
<path style=" stroke:none;fill-rule:nonzero;fill:rgb(100%,100%,100%);fill-opacity:1;" d="M 16.882812 4.148438 C 16.882812 4.148438 17.589844 5.082031 18.039062 5.136719 C 18.488281 5.191406 18.871094 5.144531 18.871094 5.144531 C 18.871094 5.144531 19.007812 5.277344 18.917969 5.386719 C 18.824219 5.5 18.949219 5.492188 19.023438 5.339844 C 19.097656 5.183594 19.109375 5.433594 19.015625 5.605469 C 19.015625 5.605469 19.121094 5.511719 19.144531 5.308594 C 19.171875 5.101562 19.160156 5.308594 19.160156 5.308594 C 19.160156 5.308594 19.257812 5.417969 19.214844 5.550781 C 19.214844 5.550781 19.296875 5.53125 19.257812 5.375 C 19.21875 5.21875 19.207031 5.175781 19.257812 5.101562 C 19.308594 5.027344 19.328125 5.246094 19.320312 5.324219 C 19.3125 5.40625 19.433594 5.238281 19.390625 5.070312 C 19.34375 4.902344 19.339844 4.730469 19.394531 4.648438 C 19.449219 4.566406 19.5 4.691406 19.46875 4.839844 C 19.4375 4.988281 19.511719 4.585938 19.464844 4.417969 C 19.414062 4.25 19.617188 4.386719 19.601562 4.503906 C 19.582031 4.625 19.574219 4.636719 19.582031 4.625 C 19.589844 4.609375 19.644531 4.578125 19.601562 4.292969 C 19.558594 4.007812 19.636719 4.21875 19.636719 4.289062 C 19.636719 4.355469 19.6875 4.242188 19.632812 4.039062 C 19.574219 3.832031 19.75 3.890625 19.75 3.9375 C 19.75 3.988281 19.800781 3.875 19.710938 3.703125 C 19.625 3.527344 19.824219 3.832031 19.730469 3.628906 C 19.636719 3.421875 19.65625 3.3125 19.65625 3.3125 C 19.65625 3.3125 19.753906 3.242188 19.863281 3.398438 C 19.96875 3.554688 20.453125 3.996094 20.570312 4.105469 C 20.6875 4.21875 20.8125 4.457031 20.808594 4.625 C 20.800781 4.792969 20.886719 5.121094 20.925781 5.3125 C 20.960938 5.507812 20.96875 5.523438 20.855469 5.84375 C 20.746094 6.160156 20.683594 6.875 20.761719 7.136719 C 20.84375 7.398438 20.800781 7.453125 20.863281 7.707031 C 20.925781 7.964844 21.082031 8.1875 21.1875 8.4375 C 21.292969 8.683594 21.769531 9.53125 21.902344 9.976562 C 22.03125 10.425781 22.03125 10.96875 22.199219 11.246094 C 22.367188 11.527344 22.4375 11.730469 22.4375 11.730469 C 22.4375 11.730469 22.050781 11.980469 21.875 12.03125 C 21.703125 12.082031 21.019531 12.203125 20.84375 12.144531 C 20.671875 12.082031 20.347656 12.066406 20.171875 12.117188 C 20 12.167969 19.476562 12.15625 19.289062 12.09375 C 19.101562 12.03125 18.492188 12.003906 18.429688 12.179688 C 18.367188 12.355469 18.207031 12.890625 17.933594 12.953125 C 17.660156 13.011719 17.25 12.816406 17.027344 12.976562 C 16.800781 13.136719 16.503906 13.164062 16.355469 13.148438 C 16.203125 13.136719 16.019531 13.125 16.019531 13.125 C 16.019531 13.125 16.074219 12.945312 16.042969 12.785156 C 16.011719 12.621094 15.925781 12.570312 16.023438 12.570312 C 16.125 12.570312 16.515625 12.371094 16.523438 12.1875 C 16.527344 12 16.367188 11.527344 16.507812 11.433594 C 16.652344 11.339844 17.242188 10.695312 17.375 10.183594 C 17.503906 9.671875 17.417969 9.535156 17.324219 9.367188 C 17.230469 9.199219 17.1875 9.050781 17.238281 8.957031 C 17.285156 8.863281 17.398438 8.710938 17.367188 8.566406 C 17.335938 8.421875 17.230469 8.328125 17.167969 8.1875 C 17.105469 8.042969 17.03125 7.886719 17.042969 7.628906 C 17.054688 7.367188 17.105469 6.894531 17.105469 6.894531 C 17.105469 6.894531 17.742188 6.960938 17.640625 6.246094 C 17.542969 5.53125 17.15625 4.898438 16.949219 4.667969 C 16.746094 4.4375 16.507812 4.332031 16.507812 4.332031 C 16.507812 4.332031 16.734375 4.0625 16.882812 4.148438 "/>
<path style=" stroke:none;fill-rule:nonzero;fill:rgb(0%,0%,0%);fill-opacity:1;" d="M 20.632812 6.265625 C 20.632812 6.265625 19.90625 8.484375 18.058594 9.417969 C 18.058594 9.417969 19.832031 8.28125 20.632812 6.265625 "/>
<path style=" stroke:none;fill-rule:nonzero;fill:rgb(0%,0%,0%);fill-opacity:1;" d="M 17.332031 7.859375 C 17.332031 7.859375 18.347656 8.1875 18.785156 7.535156 C 18.785156 7.535156 18.207031 8.148438 17.332031 7.859375 "/>
<path style=" stroke:none;fill-rule:nonzero;fill:rgb(0%,0%,0%);fill-opacity:1;" d="M 17.3125 8.289062 C 17.3125 8.289062 18.039062 8.738281 18.886719 8.054688 C 18.886719 8.054688 18.105469 8.699219 17.3125 8.289062 "/>
<path style=" stroke:none;fill-rule:nonzero;fill:rgb(0%,0%,0%);fill-opacity:1;" d="M 17.414062 8.847656 C 17.414062 8.847656 18.011719 8.4375 18.28125 8.847656 C 18.28125 8.847656 18.03125 8.511719 17.414062 8.847656 "/>
<path style=" stroke:none;fill-rule:nonzero;fill:rgb(0%,0%,0%);fill-opacity:1;" d="M 20 6.796875 C 20.011719 6.753906 19.308594 8.300781 18.898438 8.578125 C 18.898438 8.578125 19.773438 7.46875 20 6.796875 "/>
<path style=" stroke:none;fill-rule:nonzero;fill:rgb(0%,0%,0%);fill-opacity:1;" d="M 20.714844 7.703125 C 20.714844 7.730469 21.128906 8.074219 20.269531 9.519531 C 19.410156 10.96875 18.441406 11.769531 18.441406 11.769531 C 18.441406 11.769531 20.230469 9.765625 20.519531 8.925781 C 20.808594 8.085938 20.714844 7.703125 20.714844 7.703125 "/>
<path style=" stroke:none;fill-rule:nonzero;fill:rgb(0%,0%,0%);fill-opacity:1;" d="M 21.398438 9.335938 C 21.398438 9.335938 21.84375 11.191406 21.109375 12.03125 C 21.109375 12.03125 21.78125 10.808594 21.398438 9.335938 "/>
<path style=" stroke:none;fill-rule:nonzero;fill:rgb(0%,0%,0%);fill-opacity:1;" d="M 19.1875 10.128906 C 19.222656 10.085938 17.703125 12.011719 16.414062 12.449219 C 16.414062 12.449219 17.648438 11.9375 19.1875 10.128906 "/>
<path style=" stroke:none;fill-rule:nonzero;fill:rgb(100%,100%,100%);fill-opacity:1;" d="M 18.375 12.664062 C 18.375 12.664062 18.796875 12.757812 18.71875 13.011719 C 18.71875 13.011719 18.886719 12.703125 18.375 12.664062 "/>
<path style=" stroke:none;fill-rule:nonzero;fill:rgb(100%,100%,100%);fill-opacity:1;" d="M 19.402344 12.898438 C 19.402344 12.898438 19.589844 12.683594 19.832031 12.589844 C 20.074219 12.496094 20.398438 12.1875 20.398438 12.1875 C 20.398438 12.1875 19.449219 12.90625 19.402344 12.898438 "/>
<path style=" stroke:none;fill-rule:nonzero;fill:rgb(100%,100%,100%);fill-opacity:1;" d="M 16.277344 12 C 16.277344 12 16.355469 11.664062 15.886719 11.53125 C 15.886719 11.53125 16.222656 11.59375 16.277344 12 "/>
<path style=" stroke:none;fill-rule:nonzero;fill:rgb(100%,100%,100%);fill-opacity:1;" d="M 14.003906 13.683594 C 14.003906 13.683594 13.636719 13.671875 13.671875 13.292969 C 13.671875 13.292969 13.5625 13.667969 14.003906 13.683594 "/>
<path style=" stroke:none;fill-rule:nonzero;fill:rgb(100%,100%,100%);fill-opacity:1;" d="M 8.898438 15.070312 C 9.089844 14.953125 7.507812 15.875 7.648438 16.871094 C 7.648438 16.871094 7.554688 15.910156 8.898438 15.070312 "/>
<path style=" stroke:none;fill-rule:nonzero;fill:rgb(100%,100%,100%);fill-opacity:1;" d="M 8.636719 17.953125 C 8.636719 17.953125 10.148438 18.515625 11.601562 17.003906 C 11.601562 17.003906 10.277344 18.402344 8.636719 17.953125 "/>
<path style=" stroke:none;fill-rule:nonzero;fill:rgb(100%,100%,100%);fill-opacity:1;" d="M 12.152344 16.023438 C 12.152344 16.023438 12.527344 15.316406 11.734375 14.773438 C 11.734375 14.773438 12.328125 15.238281 12.152344 16.023438 "/>
<path style=" stroke:none;fill-rule:nonzero;fill:rgb(100%,100%,100%);fill-opacity:1;" d="M 23.320312 22.742188 C 23.320312 22.742188 22.964844 22.75 22.851562 22.878906 C 22.742188 23.011719 22.742188 23.046875 22.683594 23.046875 C 22.628906 23.046875 22.582031 23.046875 22.582031 23.046875 C 22.582031 23.046875 22.671875 23.109375 22.777344 22.929688 C 22.882812 22.753906 23.3125 22.683594 23.320312 22.742188 "/>
<path style=" stroke:none;fill-rule:nonzero;fill:rgb(100%,100%,100%);fill-opacity:1;" d="M 11.222656 22.433594 C 11.222656 22.433594 11.074219 22.125 10.933594 22.050781 C 10.796875 21.976562 10.484375 21.84375 10.484375 21.84375 C 10.484375 21.84375 10.828125 21.980469 10.953125 22.105469 C 11.078125 22.230469 11.222656 22.433594 11.222656 22.433594 "/>
<path style=" stroke:none;fill-rule:nonzero;fill:rgb(100%,100%,100%);fill-opacity:1;" d="M 26.121094 21.699219 C 26.121094 21.699219 26.070312 21.664062 26.074219 21.726562 C 26.082031 21.792969 26.125 21.792969 26.125 21.855469 C 26.128906 21.914062 26.140625 21.988281 26.140625 22.023438 C 26.144531 22.054688 26.191406 22.117188 26.257812 22.113281 C 26.324219 22.109375 26.316406 22.054688 26.402344 22.085938 C 26.484375 22.117188 26.515625 22.148438 26.542969 22.121094 C 26.566406 22.09375 26.613281 21.941406 26.613281 21.941406 C 26.613281 21.941406 26.542969 21.832031 26.558594 21.785156 C 26.570312 21.738281 26.589844 21.722656 26.523438 21.738281 C 26.460938 21.757812 26.183594 21.757812 26.121094 21.699219 "/>
<path style=" stroke:none;fill-rule:nonzero;fill:rgb(100%,100%,100%);fill-opacity:1;" d="M 24.996094 21.554688 C 24.996094 21.554688 25.019531 21.5 25.019531 21.550781 C 25.023438 21.605469 25.015625 21.640625 24.988281 21.640625 C 24.960938 21.640625 24.914062 21.675781 24.84375 21.691406 C 24.773438 21.710938 24.613281 21.695312 24.640625 21.71875 C 24.664062 21.738281 24.554688 21.746094 24.550781 21.703125 C 24.550781 21.65625 24.597656 21.640625 24.59375 21.589844 C 24.59375 21.535156 24.605469 21.5 24.628906 21.523438 C 24.652344 21.542969 24.917969 21.558594 24.996094 21.554688 "/>
</g>
</svg>
