<?xml version="1.0" encoding="UTF-8"?>
<svg xmlns="http://www.w3.org/2000/svg" xmlns:xlink="http://www.w3.org/1999/xlink" width="34pt" height="20pt" viewBox="0 0 34 20" version="1.1">
<g id="surface1">
<path style=" stroke:none;fill-rule:nonzero;fill:rgb(10.196078%,9.803922%,10.196078%);fill-opacity:1;" d="M 0 0 C 0 0 0.515625 1.78125 2.523438 3.175781 L 1.355469 3.050781 C 1.355469 3.050781 2.585938 4.769531 4.800781 5.851562 L 3.589844 5.742188 C 3.589844 5.742188 5.210938 8.3125 8.507812 9.578125 C 8.507812 9.578125 8.835938 11.679688 11.6875 13.570312 C 11.6875 13.570312 14.398438 15.121094 14.710938 16.542969 C 14.710938 16.542969 19.929688 16.203125 25.640625 20.007812 C 25.640625 20.007812 26.988281 14.527344 33.976562 13.867188 C 33.976562 13.867188 33.984375 10.894531 30.019531 8.917969 C 30.019531 8.917969 28.398438 2.746094 18.566406 2.078125 L 10.277344 2.09375 C 10.277344 2.09375 3.957031 1.679688 0 0 Z M 0 0 "/>
<path style="fill-rule:nonzero;fill:rgb(51.764706%,8.627451%,10.980392%);fill-opacity:1;stroke-width:1;stroke-linecap:butt;stroke-linejoin:miter;stroke:rgb(0%,0%,0%);stroke-opacity:1;stroke-miterlimit:4;" d="M 70.615901 151.680078 C 70.615901 151.680078 92.206204 179.990234 153.38704 194.295898 L 98.18966 189.276367 C 98.18966 189.276367 118.782721 209.103516 180.013419 224.111914 L 124.61659 219.293164 C 124.61659 219.293164 155.680699 248.908398 203.997105 256.889453 L 174.378998 261.607813 C 174.378998 261.607813 177.121415 276.616211 227.98079 309.494141 C 227.98079 309.494141 244.784329 323.599023 241.29398 327.112695 C 241.29398 327.112695 268.917601 327.413867 317.184145 350.102148 C 317.184145 350.102148 363.406342 326.510352 298.884743 257.592188 C 298.884743 257.592188 269.316498 225.01543 236.008594 203.682422 C 236.008594 203.682422 286.219761 191.685742 348.796737 227.675781 C 348.796737 227.675781 380.708502 251.719336 409.977574 239.722656 C 409.977574 239.722656 398.010662 179.086719 285.222518 169.499414 L 162.810983 169.499414 C 162.810983 169.298633 110.904504 165.283008 70.615901 151.680078 Z M 70.615901 151.680078 " transform="matrix(0.078341,0,0,0.077821,-3.149309,-10.202335)"/>
<path style="fill-rule:nonzero;fill:rgb(100%,100%,100%);fill-opacity:1;stroke-width:1;stroke-linecap:butt;stroke-linejoin:miter;stroke:rgb(0%,0%,0%);stroke-opacity:1;stroke-miterlimit:4;" d="M 308.807307 224.212305 C 308.807307 224.212305 315.488833 276.41543 366.697243 273.805273 C 366.697243 273.805273 384.697472 269.488477 388.287546 250.81582 L 381.306847 250.81582 C 381.306847 250.81582 375.323392 269.789648 357.323162 266.075195 C 357.323162 266.075195 346.503079 265.924609 335.982169 250.113086 L 352.985156 247.804102 C 353.084881 247.904492 323.217463 238.517969 308.807307 224.212305 Z M 308.807307 224.212305 " transform="matrix(0.078341,0,0,0.077821,-3.149309,-10.202335)"/>
<path style="fill-rule:nonzero;fill:rgb(99.215686%,74.117647%,7.058824%);fill-opacity:1;stroke-width:1;stroke-linecap:butt;stroke-linejoin:miter;stroke:rgb(0%,0%,0%);stroke-opacity:1;stroke-miterlimit:4;" d="M 377.517325 297.29668 C 377.517325 297.29668 429.523529 287.809766 464.576608 304.976562 C 464.576608 304.976562 420.099586 306.783594 390.381756 331.981641 C 390.381756 331.981641 393.124173 313.007812 377.517325 297.29668 Z M 377.517325 297.29668 " transform="matrix(0.078341,0,0,0.077821,-3.149309,-10.202335)"/>
<path style="fill-rule:nonzero;fill:rgb(99.215686%,74.117647%,7.058824%);fill-opacity:1;stroke-width:1;stroke-linecap:butt;stroke-linejoin:miter;stroke:rgb(0%,0%,0%);stroke-opacity:1;stroke-miterlimit:4;" d="M 378.215395 284.697656 C 378.215395 284.697656 435.207812 282.187891 464.875781 301.011133 C 457.895083 273.30332 409.977574 251.719336 413.916682 253.576562 C 413.916682 253.576562 404.393015 275.913477 378.215395 284.697656 Z M 378.215395 284.697656 " transform="matrix(0.078341,0,0,0.077821,-3.149309,-10.202335)"/>
</g>
</svg>
