<?xml version="1.0" encoding="UTF-8"?>
<svg xmlns="http://www.w3.org/2000/svg" xmlns:xlink="http://www.w3.org/1999/xlink" width="37pt" height="20pt" viewBox="0 0 37 20" version="1.1">
<g id="surface1">
<path style=" stroke:none;fill-rule:nonzero;fill:rgb(0%,0%,0%);fill-opacity:1;" d="M 33.875 2.042969 C 33.882812 2.023438 33.886719 2.003906 33.894531 1.988281 L 33.90625 1.941406 C 33.851562 1.789062 33.746094 1.777344 33.519531 1.792969 C 33.195312 1.855469 32.890625 1.894531 32.636719 1.921875 L 32.59375 1.925781 L 32.566406 1.929688 C 32.527344 1.933594 32.492188 1.933594 32.453125 1.9375 L 32.4375 1.9375 C 32.109375 1.964844 31.902344 1.96875 31.902344 1.96875 C 32.742188 2.597656 32.839844 3.578125 32.839844 3.578125 L 32.882812 3.542969 C 33.527344 3.074219 33.875 2.042969 33.875 2.042969 "/>
<path style=" stroke:none;fill-rule:nonzero;fill:rgb(81.960784%,82.745098%,83.137255%);fill-opacity:1;" d="M 25.15625 7.242188 C 25.570312 8.464844 24.871094 10.101562 24.871094 10.101562 C 25.789062 9.316406 26.511719 7.699219 26.511719 7.699219 C 28.023438 7.394531 28.855469 7.699219 28.855469 7.699219 C 29.050781 8.878906 28.613281 9.839844 28.613281 9.839844 C 29.488281 9.140625 29.882812 7.285156 29.882812 7.285156 C 29.882812 7.285156 29.535156 6.960938 27.980469 6.851562 C 26.425781 6.742188 25.15625 7.242188 25.15625 7.242188 M 26.289062 11.914062 C 26.289062 11.914062 25.832031 13.179688 25.363281 13.648438 C 25.363281 13.648438 25.96875 13.980469 27.023438 13.882812 C 28.078125 13.785156 28.332031 13.394531 28.433594 13.007812 C 28.53125 12.617188 28.433594 12.070312 28.253906 11.664062 C 28.253906 11.664062 28.335938 12.695312 27.609375 13.21875 C 27.609375 13.21875 26.832031 13.382812 26.324219 13.226562 C 26.324219 13.226562 26.523438 12.8125 26.289062 11.914062 "/>
<path style=" stroke:none;fill-rule:nonzero;fill:rgb(81.960784%,82.745098%,83.137255%);fill-opacity:1;" d="M 23.800781 2.074219 L 23.832031 2.078125 L 23.800781 2.074219 C 23.164062 1.953125 22.894531 2.433594 22.894531 2.433594 C 22.691406 2.730469 22.769531 2.871094 22.769531 2.871094 C 24.734375 2.839844 25.792969 3.152344 25.792969 3.152344 C 25.792969 3.152344 25.0625 2.355469 23.882812 2.089844 Z M 31.644531 3.078125 C 31.386719 2.839844 30.835938 2.527344 30.234375 2.648438 C 29.628906 2.769531 29.59375 3.421875 29.59375 3.421875 C 30.25 2.820312 31.644531 3.078125 31.644531 3.078125 "/>
<path style=" stroke:none;fill-rule:nonzero;fill:rgb(0%,60%,84.705882%);fill-opacity:1;" d="M 17.035156 4.363281 C 17.035156 4.363281 20.269531 3.746094 23.96875 4.617188 C 24.101562 4.496094 24.253906 4.375 24.433594 4.253906 C 24.433594 4.253906 21.039062 3.316406 17.035156 4.363281 M 17.050781 5.621094 C 17.050781 5.621094 19.886719 4.917969 23.34375 5.394531 C 23.410156 5.261719 23.5 5.125 23.617188 4.980469 C 22.367188 4.839844 19.835938 4.726562 17.050781 5.621094 M 17.121094 6.839844 C 17.121094 6.839844 19.800781 6.015625 23.179688 6.25 C 23.164062 6.128906 23.164062 5.984375 23.195312 5.820312 C 21.839844 5.785156 19.558594 5.90625 17.121094 6.839844 M 9.21875 15.25 L 9.222656 15.25 L 9.238281 15.253906 C 9.296875 15.257812 9.484375 15.273438 9.496094 15.277344 C 9.523438 15.277344 9.847656 15.3125 9.847656 15.3125 C 10.308594 15.363281 10.777344 15.429688 11.246094 15.507812 C 12.304688 11.640625 15.289062 9.574219 15.289062 9.574219 C 11.253906 11.519531 9.558594 14.683594 9.21875 15.25 M 28.242188 9.894531 C 27.992188 8.726562 28.65625 7.929688 28.65625 7.929688 C 27.140625 9.253906 28.058594 10.578125 28.519531 11.609375 C 28.976562 12.636719 28.792969 13.394531 28.335938 13.917969 C 27.875 14.445312 26.613281 14.488281 25.765625 14.332031 C 24.917969 14.171875 24.480469 13.277344 24.25 12.226562 C 24.019531 11.175781 24.433594 9.320312 24.433594 9.320312 C 23.816406 10.261719 23.816406 12.179688 24.296875 13.734375 C 24.777344 15.289062 26.039062 15.679688 26.957031 15.679688 C 27.875 15.679688 29.527344 14.902344 29.273438 13.050781 C 29.019531 11.199219 28.496094 11.058594 28.242188 9.894531 M 18.375 10.839844 C 16.792969 9.242188 16.742188 7.433594 16.742188 7.433594 C 16.742188 7.433594 16.199219 9.542969 17.492188 11.121094 C 18.78125 12.699219 21.921875 12.871094 21.921875 12.871094 C 21.921875 12.871094 19.957031 12.4375 18.375 10.839844 M 26.382812 3.925781 C 28.242188 4.644531 28.21875 5.757812 28.21875 5.757812 C 28.503906 4.691406 29.820312 4.121094 29.820312 4.121094 C 29.820312 4.121094 29.140625 3.796875 28.199219 3.730469 C 27.257812 3.664062 26.382812 3.925781 26.382812 3.925781 M 23.800781 2.074219 C 22.679688 1.851562 21.601562 2.300781 21.550781 2.320312 L 21.546875 2.324219 C 22.578125 2.339844 22.894531 2.433594 22.894531 2.433594 C 22.894531 2.433594 23.164062 1.953125 23.800781 2.074219 "/>
<path style=" stroke:none;fill-rule:nonzero;fill:rgb(0%,60%,84.705882%);fill-opacity:1;" d="M 27.445312 16.585938 C 27.433594 16.589844 26.773438 16.820312 25.960938 16.675781 C 25.960938 16.675781 27.039062 17.714844 28.132812 19.988281 L 28.132812 19.992188 L 28.175781 19.988281 C 28.070312 18.953125 27.625 17.214844 27.523438 16.894531 Z M 27.445312 16.585938 "/>
<path style=" stroke:none;fill-rule:nonzero;fill:rgb(0%,0%,0%);fill-opacity:1;" d="M 32.214844 5.695312 C 32.195312 5.574219 32.160156 5.464844 32.117188 5.375 C 32.117188 5.375 32.082031 5.285156 31.976562 5.148438 C 31.882812 5.035156 31.78125 4.945312 31.691406 4.855469 C 31.488281 4.667969 31.125 4.554688 31.125 4.554688 C 31.378906 4.746094 31.570312 5.019531 31.589844 5.414062 C 31.648438 6.632812 30.390625 7.125 30.390625 7.125 C 30.6875 6.925781 31.21875 6.257812 31.078125 5.394531 C 30.941406 4.53125 29.820312 4.121094 29.820312 4.121094 C 29.820312 4.121094 28.503906 4.691406 28.21875 5.757812 C 28.21875 5.757812 28.242188 4.644531 26.382812 3.925781 C 26.382812 3.925781 27.257812 3.664062 28.199219 3.730469 C 29.140625 3.796875 29.820312 4.121094 29.820312 4.121094 C 29.820312 4.121094 29.992188 3.664062 30.917969 3.507812 C 31.839844 3.351562 32.839844 3.578125 32.839844 3.578125 C 32.65625 3.242188 32.441406 2.753906 31.515625 2.375 C 30.585938 1.996094 29.753906 2.339844 29.753906 2.339844 C 29.753906 2.339844 29.691406 1.890625 29.015625 1.457031 C 27.921875 0.75 25.019531 0.328125 24.460938 0.296875 C 23.898438 0.269531 24.878906 0.628906 25.269531 0.851562 C 25.714844 1.101562 26.214844 1.53125 26.257812 1.941406 C 26.269531 2.050781 26.242188 2.144531 26.191406 2.226562 C 26.152344 2.109375 26.070312 1.964844 25.925781 1.78125 C 25.132812 0.761719 23.113281 0.324219 21.601562 0.421875 C 20.089844 0.523438 18.886719 1.09375 18.886719 1.09375 C 18.90625 1.234375 18.332031 1.71875 16.746094 1.894531 C 15.234375 2.058594 14.167969 1.78125 13.78125 1.726562 C 13.773438 1.722656 13.761719 1.722656 13.753906 1.722656 C 13.597656 1.703125 13.480469 1.710938 13.433594 1.820312 L 13.425781 1.835938 L 13.421875 1.855469 C 13.417969 1.933594 13.464844 2.042969 13.464844 2.042969 L 13.441406 2 C 13.550781 2.207031 14.191406 3.386719 15.039062 3.992188 C 15.039062 3.992188 15.546875 3.886719 16.148438 3.820312 C 16.148438 3.820312 6.863281 8.324219 3.101562 15.363281 C 4.742188 15.171875 6.898438 15.046875 9.238281 15.253906 L 9.222656 15.25 L 9.21875 15.25 C 9.558594 14.683594 11.253906 11.519531 15.289062 9.574219 C 15.289062 9.574219 12.304688 11.640625 11.246094 15.507812 C 12.59375 15.738281 13.972656 16.089844 15.320312 16.613281 C 19.65625 18.296875 23.3125 20.058594 27.433594 20.023438 L 28.132812 19.992188 L 28.132812 19.988281 C 27.039062 17.714844 25.960938 16.675781 25.960938 16.675781 C 26.773438 16.820312 27.433594 16.589844 27.445312 16.585938 C 27.507812 16.5625 27.558594 16.542969 27.601562 16.519531 C 28.949219 15.796875 29.175781 14.570312 29.285156 13.695312 C 29.414062 12.679688 29.230469 12.027344 29.230469 12.027344 C 29.230469 12.027344 31.566406 8.976562 32.15625 6.574219 C 32.15625 6.574219 32.292969 6.140625 32.214844 5.695312 M 30.234375 2.648438 C 30.835938 2.527344 31.386719 2.839844 31.644531 3.078125 C 31.644531 3.078125 30.25 2.820312 29.59375 3.421875 C 29.59375 3.421875 29.628906 2.769531 30.234375 2.648438 M 21.546875 2.324219 L 21.550781 2.324219 C 21.605469 2.296875 22.730469 1.828125 23.882812 2.089844 C 25.058594 2.359375 25.792969 3.15625 25.792969 3.15625 C 25.792969 3.15625 24.734375 2.839844 22.769531 2.871094 C 22.769531 2.871094 22.691406 2.730469 22.894531 2.433594 C 22.894531 2.433594 22.582031 2.339844 21.546875 2.324219 Z M 24.433594 4.253906 C 24.253906 4.375 24.101562 4.496094 23.96875 4.617188 C 20.269531 3.746094 17.035156 4.363281 17.035156 4.363281 C 21.039062 3.316406 24.433594 4.253906 24.433594 4.253906 M 17.488281 11.121094 C 16.199219 9.542969 16.742188 7.433594 16.742188 7.433594 C 16.742188 7.433594 16.792969 9.242188 18.375 10.839844 C 19.957031 12.4375 21.921875 12.871094 21.921875 12.871094 C 21.921875 12.871094 18.78125 12.699219 17.488281 11.121094 M 23.179688 6.25 C 19.800781 6.015625 17.121094 6.839844 17.121094 6.839844 C 19.558594 5.90625 21.839844 5.785156 23.195312 5.820312 C 23.164062 5.984375 23.164062 6.128906 23.179688 6.25 M 23.34375 5.390625 C 19.886719 4.917969 17.050781 5.621094 17.050781 5.621094 C 19.835938 4.726562 22.367188 4.839844 23.617188 4.980469 C 23.5 5.125 23.410156 5.261719 23.34375 5.390625 M 29.273438 13.050781 C 29.527344 14.902344 27.875 15.679688 26.957031 15.679688 C 26.039062 15.679688 24.777344 15.289062 24.296875 13.734375 C 23.816406 12.179688 23.816406 10.261719 24.433594 9.320312 C 24.433594 9.320312 24.019531 11.175781 24.25 12.226562 C 24.480469 13.277344 24.917969 14.167969 25.765625 14.332031 C 26.613281 14.488281 27.875 14.445312 28.335938 13.917969 C 28.792969 13.390625 28.976562 12.636719 28.519531 11.609375 C 28.058594 10.578125 27.140625 9.253906 28.65625 7.929688 C 28.65625 7.929688 27.992188 8.726562 28.242188 9.894531 C 28.496094 11.058594 29.019531 11.199219 29.273438 13.050781 M 27.609375 13.21875 C 28.332031 12.695312 28.253906 11.660156 28.253906 11.660156 C 28.433594 12.070312 28.53125 12.617188 28.433594 13.007812 C 28.332031 13.394531 28.078125 13.785156 27.023438 13.882812 C 25.96875 13.980469 25.363281 13.648438 25.363281 13.648438 C 25.832031 13.179688 26.289062 11.914062 26.289062 11.914062 C 26.523438 12.8125 26.324219 13.226562 26.324219 13.226562 C 26.832031 13.382812 27.609375 13.21875 27.609375 13.21875 M 28.613281 9.839844 C 28.613281 9.839844 29.050781 8.878906 28.855469 7.699219 C 28.855469 7.699219 28.023438 7.394531 26.511719 7.699219 C 26.511719 7.699219 25.789062 9.316406 24.871094 10.101562 C 24.871094 10.101562 25.570312 8.464844 25.15625 7.242188 C 25.15625 7.242188 26.425781 6.742188 27.980469 6.851562 C 29.535156 6.957031 29.882812 7.285156 29.882812 7.285156 C 29.882812 7.285156 29.488281 9.140625 28.613281 9.839844 "/>
<path style=" stroke:none;fill-rule:nonzero;fill:rgb(0%,60%,84.705882%);fill-opacity:1;" d="M 36.882812 7.238281 C 35.519531 6.496094 33.972656 6.265625 32.785156 6.21875 L 32.777344 6.21875 L 32.785156 6.21875 C 32.832031 6.070312 32.886719 5.878906 32.9375 5.675781 L 32.980469 5.671875 C 35.359375 5.59375 36.617188 6.21875 36.617188 6.21875 L 36.496094 6.128906 C 35.339844 5.59375 34.113281 5.398438 33.054688 5.367188 L 33.011719 5.367188 C 33.046875 5.203125 33.09375 4.871094 33.105469 4.871094 L 33.128906 4.871094 C 34.957031 4.890625 35.957031 5.324219 35.957031 5.324219 L 35.835938 5.230469 C 34.929688 4.84375 34 4.667969 33.132812 4.609375 C 33.136719 4.273438 33.082031 3.996094 32.953125 3.757812 C 33.625 3.175781 33.871094 2.292969 33.90625 1.945312 L 33.90625 1.941406 C 33.910156 1.929688 33.914062 1.898438 33.917969 1.890625 L 33.917969 1.871094 C 33.921875 1.859375 33.921875 1.847656 33.921875 1.839844 L 33.921875 1.820312 L 33.917969 1.789062 L 33.914062 1.773438 L 33.90625 1.746094 L 33.902344 1.734375 L 33.890625 1.710938 L 33.886719 1.699219 L 33.871094 1.679688 L 33.839844 1.648438 L 33.820312 1.632812 L 33.8125 1.628906 L 33.792969 1.617188 L 33.785156 1.613281 L 33.765625 1.605469 L 33.757812 1.601562 L 33.738281 1.59375 L 33.730469 1.589844 L 33.710938 1.585938 L 33.707031 1.585938 L 33.691406 1.582031 L 33.6875 1.582031 L 33.671875 1.578125 L 33.65625 1.578125 C 32.496094 1.589844 31.546875 1.199219 31.546875 1.199219 L 31.46875 1.167969 C 28.890625 0.230469 26.21875 -0.0390625 23.839844 0.00390625 L 23.835938 0.00390625 C 22.773438 0.0117188 21.996094 0.0976562 21.996094 0.0976562 C 18.582031 0.386719 16.128906 1.203125 16.128906 1.203125 C 16.128906 1.203125 15.199219 1.464844 13.960938 1.402344 C 13.960938 1.402344 13.5 1.394531 13.410156 1.6875 C 13.332031 1.871094 13.324219 2.09375 13.496094 2.578125 C 13.699219 3.136719 14.507812 4.183594 14.511719 4.191406 C 12.070312 5.179688 5.703125 8.738281 0 15.894531 C 0 15.894531 1.207031 15.582031 3.101562 15.363281 C 6.863281 8.324219 16.148438 3.820312 16.148438 3.820312 C 15.546875 3.886719 15.039062 3.992188 15.039062 3.992188 C 14.191406 3.386719 13.550781 2.207031 13.441406 2 L 13.464844 2.042969 C 13.464844 2.042969 13.417969 1.933594 13.421875 1.855469 L 13.425781 1.835938 L 13.433594 1.820312 C 13.480469 1.707031 13.597656 1.703125 13.753906 1.722656 C 13.761719 1.722656 13.773438 1.722656 13.78125 1.726562 C 14.167969 1.785156 15.234375 2.058594 16.746094 1.894531 C 18.332031 1.71875 18.90625 1.234375 18.886719 1.09375 C 18.886719 1.09375 20.089844 0.523438 21.601562 0.421875 C 23.113281 0.320312 25.132812 0.761719 25.925781 1.78125 C 26.070312 1.964844 26.152344 2.109375 26.191406 2.226562 C 26.242188 2.144531 26.269531 2.050781 26.257812 1.941406 C 26.214844 1.53125 25.714844 1.101562 25.269531 0.851562 C 24.878906 0.628906 23.902344 0.269531 24.460938 0.296875 C 25.019531 0.328125 27.921875 0.75 29.015625 1.457031 C 29.691406 1.890625 29.753906 2.339844 29.753906 2.339844 C 29.753906 2.339844 30.585938 1.996094 31.515625 2.375 C 32.441406 2.753906 32.65625 3.242188 32.839844 3.578125 C 32.839844 3.578125 32.742188 2.597656 31.902344 1.964844 C 31.902344 1.964844 32.109375 1.964844 32.441406 1.9375 L 32.453125 1.9375 L 32.566406 1.925781 L 32.59375 1.925781 L 32.636719 1.921875 C 32.890625 1.894531 33.191406 1.855469 33.519531 1.792969 C 33.746094 1.777344 33.851562 1.789062 33.90625 1.941406 L 33.894531 1.988281 C 33.886719 2.003906 33.882812 2.023438 33.875 2.042969 C 33.875 2.042969 33.527344 3.074219 32.882812 3.542969 L 32.839844 3.578125 C 32.839844 3.578125 31.839844 3.351562 30.917969 3.507812 C 29.992188 3.664062 29.820312 4.121094 29.820312 4.121094 C 29.820312 4.121094 30.941406 4.53125 31.078125 5.394531 C 31.21875 6.257812 30.6875 6.925781 30.390625 7.121094 C 30.390625 7.121094 31.648438 6.632812 31.589844 5.414062 C 31.570312 5.019531 31.378906 4.746094 31.125 4.554688 C 31.125 4.554688 31.488281 4.667969 31.691406 4.855469 C 31.78125 4.945312 31.882812 5.035156 31.976562 5.148438 C 32.082031 5.285156 32.117188 5.375 32.117188 5.375 C 32.160156 5.464844 32.195312 5.570312 32.214844 5.695312 C 32.292969 6.140625 32.15625 6.574219 32.15625 6.574219 C 31.566406 8.976562 29.234375 12.027344 29.234375 12.027344 C 30.996094 10.527344 32.171875 7.875 32.6875 6.539062 C 35.464844 6.570312 36.984375 7.339844 36.984375 7.339844 Z M 36.882812 7.238281 "/>
</g>
</svg>
