<?xml version="1.0" encoding="UTF-8"?>
<svg xmlns="http://www.w3.org/2000/svg" xmlns:xlink="http://www.w3.org/1999/xlink" width="30pt" height="20pt" viewBox="0 0 30 20" version="1.1">
<g id="surface1">
<path style=" stroke:none;fill-rule:nonzero;fill:rgb(100%,100%,100%);fill-opacity:1;" d="M 24.402344 11.125 L 29.660156 11.125 C 28.191406 20.808594 9.082031 23.183594 3.414062 13.1875 C 2.464844 11.511719 1.308594 10.769531 0.371094 10.347656 C 1.414062 9.941406 2.945312 8.550781 3.453125 7.226562 C 6.910156 -1.847656 24.195312 -1.71875 28.949219 6.410156 L 22.699219 6.410156 C 17.652344 2.4375 7.5625 4.269531 7.5625 10.347656 C 7.5625 14.605469 19.558594 19.445312 24.402344 11.125 Z M 28.550781 11.902344 L 24.996094 11.902344 C 20.148438 20.222656 6.65625 15.804688 6.65625 10.347656 C 6.65625 3.605469 17.894531 1.613281 22.941406 5.59375 L 27.292969 5.59375 C 22.375 -0.0859375 8.429688 -1.433594 4.125 7.652344 C 3.753906 8.65625 3.070312 9.550781 2.070312 10.339844 C 3.011719 10.769531 3.6875 11.585938 4.203125 12.640625 C 9.808594 22.726562 27.082031 18.859375 28.550781 11.902344 Z M 28.550781 11.902344 "/>
<path style=" stroke:none;fill-rule:nonzero;fill:rgb(87.45098%,38.039216%,3.137255%);fill-opacity:1;" d="M 24.996094 11.902344 L 28.550781 11.902344 C 27.082031 18.859375 9.808594 22.726562 4.203125 12.640625 C 3.683594 11.59375 3.011719 10.769531 2.070312 10.339844 C 3.078125 9.550781 3.761719 8.648438 4.125 7.652344 C 8.429688 -1.433594 22.378906 -0.0859375 27.285156 5.585938 L 22.933594 5.585938 C 17.886719 1.613281 6.648438 3.601562 6.648438 10.339844 C 6.65625 15.804688 20.148438 20.222656 24.996094 11.902344 Z M 24.996094 11.902344 "/>
<path style="fill:none;stroke-width:11.34;stroke-linecap:square;stroke-linejoin:round;stroke:rgb(1.176471%,9.411765%,18.431373%);stroke-opacity:1;stroke-miterlimit:4;" d="M 470.218021 200.270535 C 397.324792 73.987527 132.285729 71.983035 79.277917 213.087137 C 71.491458 233.678738 48.012292 255.302957 32.020104 261.620145 C 46.395104 268.301785 64.124271 279.782059 78.678958 305.779715 C 165.587812 461.218973 458.598229 424.287723 481.119062 273.70784 L 400.499271 273.70784 C 326.228437 403.088699 142.288333 327.829129 142.288333 261.620145 C 142.288333 167.105301 297.119062 138.617215 374.384687 200.39202 L 470.218021 200.39202 Z M 470.218021 200.270535 " transform="matrix(0.0652174,0,0,0.0643087,-1.717174,-6.47679)"/>
</g>
</svg>
