<?xml version="1.0" encoding="UTF-8"?>
<svg xmlns="http://www.w3.org/2000/svg" xmlns:xlink="http://www.w3.org/1999/xlink" width="22pt" height="20pt" viewBox="0 0 22 20" version="1.1">
<g id="surface1">
<path style="fill-rule:nonzero;fill:rgb(100%,100%,100%);fill-opacity:1;stroke-width:2;stroke-linecap:butt;stroke-linejoin:miter;stroke:rgb(2.352941%,9.803922%,18.039216%);stroke-opacity:1;stroke-miterlimit:10;" d="M 360.132379 124.26565 C 454.230036 195.912525 382.577692 206.722681 309.120306 217.138306 C 309.120306 217.138306 278.120661 208.537525 224.283303 181.788306 C 102.403686 121.188306 140.780462 92.70315 236.604681 75.501587 C 83.333019 8.667994 -44.511087 125.133618 96.517678 238.206275 L 57.826982 265.902368 C 89.611428 285.392212 155.377763 326.26565 145.881669 388.917212 L 113.233942 412.273462 L 212.982166 457.486743 L 291.7762 421.821119 C 292.404041 387.102369 354.324851 369.111743 381.00809 298.569556 C 527.608942 264.797681 490.330888 135.785962 360.132379 124.26565 Z M 360.132379 124.26565 " transform="matrix(0.0497738,0,0,0.049505,-1.722016,-2.718171)"/>
<path style=" stroke:none;fill-rule:nonzero;fill:rgb(69.803922%,11.764706%,20.784314%);fill-opacity:1;" d="M 17.519531 3.988281 C 20.667969 6.441406 18.480469 8.003906 14.648438 8.429688 C 15.621094 12.5 12.644531 16.226562 9.492188 19.113281 L 12.378906 17.8125 C 12.59375 16.15625 15.523438 15.296875 16.914062 11.628906 C 23.433594 10.183594 22.367188 5.523438 17.519531 3.988281 Z M 17.519531 3.988281 "/>
<path style=" stroke:none;fill-rule:nonzero;fill:rgb(2.352941%,9.803922%,18.039216%);fill-opacity:1;" d="M 12.867188 8.359375 C 3.699219 4.835938 3.089844 1.949219 8.808594 0.949219 C 1.65625 -0.984375 -2.519531 4.171875 4.5625 9.09375 L 2.664062 10.445312 C 4.679688 11.785156 6.820312 13.773438 6.09375 16.894531 L 5.136719 17.574219 L 8.816406 19.230469 C 12.234375 15.503906 14.027344 11.886719 12.867188 8.359375 Z M 10.558594 14.03125 L 9.148438 12.433594 L 7.53125 12.671875 L 8.277344 11.445312 L 6.867188 9.855469 L 8.742188 10.691406 L 9.488281 9.46875 L 9.894531 11.210938 L 11.765625 12.050781 L 10.148438 12.292969 Z M 12.867188 8.359375 C 3.699219 4.835938 3.089844 1.949219 8.808594 0.949219 C 1.65625 -0.984375 -2.519531 4.171875 4.5625 9.09375 L 2.664062 10.445312 C 4.679688 11.785156 6.820312 13.773438 6.09375 16.894531 L 5.136719 17.574219 L 8.816406 19.230469 C 12.234375 15.503906 14.027344 11.886719 12.867188 8.359375 Z M 10.558594 14.03125 L 9.148438 12.433594 L 7.53125 12.671875 L 8.277344 11.445312 L 6.867188 9.855469 L 8.742188 10.691406 L 9.488281 9.46875 L 9.894531 11.210938 L 11.765625 12.050781 L 10.148438 12.292969 Z M 10.558594 14.03125 "/>
<path style=" stroke:none;fill-rule:nonzero;fill:rgb(69.803922%,11.764706%,20.784314%);fill-opacity:1;" d="M 17.519531 3.988281 C 20.667969 6.441406 18.480469 8.003906 14.648438 8.429688 C 15.621094 12.5 12.644531 16.226562 9.492188 19.113281 L 12.378906 17.8125 C 12.59375 16.15625 15.523438 15.296875 16.914062 11.628906 C 23.433594 10.183594 22.367188 5.523438 17.519531 3.988281 Z M 17.519531 3.988281 "/>
</g>
</svg>
