<?xml version="1.0" encoding="UTF-8"?>
<svg xmlns="http://www.w3.org/2000/svg" xmlns:xlink="http://www.w3.org/1999/xlink" width="28pt" height="20pt" viewBox="0 0 28 20" version="1.1">
<g id="surface1">
<path style=" stroke:none;fill-rule:nonzero;fill:rgb(0.392157%,33.72549%,47.45098%);fill-opacity:1;" d="M 5.726562 13.574219 C 5.5625 13.707031 5.40625 13.753906 5.203125 13.667969 C 4.984375 13.582031 5.5625 13.796875 5.816406 13.75 C 5.933594 13.605469 5.945312 13.527344 6 13.425781 C 6.117188 13.21875 6.21875 12.773438 6.121094 12.554688 C 5.972656 12.890625 6 13.34375 5.726562 13.574219 "/>
<path style=" stroke:none;fill-rule:nonzero;fill:rgb(0%,55.294118%,59.215686%);fill-opacity:1;" d="M 4.042969 13.246094 C 4.441406 13.402344 4.5 13.429688 4.898438 13.597656 C 4.921875 13.605469 5.359375 13.75 5.5625 13.730469 C 5.554688 13.6875 5.605469 13.765625 5.761719 13.574219 C 6 13.285156 6.035156 12.941406 6.128906 12.582031 C 6.082031 12.335938 5.878906 12.863281 5.578125 12.871094 C 5.164062 12.945312 5.046875 12.886719 4.730469 12.828125 C 4.179688 12.769531 3.894531 12.761719 3.738281 12.828125 C 3.617188 12.851562 3.523438 13.011719 3.523438 13.011719 "/>
<path style=" stroke:none;fill-rule:nonzero;fill:rgb(0%,55.294118%,59.215686%);fill-opacity:1;" d="M 21.542969 10.5 C 21.636719 10.253906 21.648438 10.179688 21.730469 9.933594 C 21.714844 9.921875 21.773438 9.738281 21.757812 9.726562 C 21.644531 9.8125 21.40625 10.070312 21.296875 10.164062 C 20.855469 10.546875 20.402344 10.90625 19.933594 11.25 C 19.921875 11.460938 19.9375 11.75 19.902344 11.960938 C 19.8125 12.449219 19.707031 12.9375 19.613281 13.425781 C 19.589844 13.582031 19.640625 13.578125 19.640625 13.578125 C 19.878906 13.417969 19.996094 13.289062 20.03125 13.257812 C 20.742188 12.574219 21.023438 11.917969 21.417969 10.867188 "/>
<path style=" stroke:none;fill-rule:nonzero;fill:rgb(0.392157%,33.72549%,47.45098%);fill-opacity:1;" d="M 27.652344 4.199219 C 27.367188 4.265625 27.214844 4.328125 26.929688 4.402344 C 26.34375 4.5625 25.796875 4.816406 25.269531 5.113281 C 23.9375 5.859375 22.796875 6.863281 21.644531 7.851562 C 21.148438 8.277344 20.65625 8.710938 20.160156 9.136719 C 19.425781 9.773438 19.167969 10.007812 18.421875 10.667969 C 18.246094 10.839844 17.816406 11.15625 17.585938 11.316406 C 17.75 10.980469 17.9375 10.730469 17.980469 10.660156 C 18.300781 10.117188 18.640625 9.582031 18.953125 9.035156 C 19.390625 8.277344 19.878906 7.570312 20.589844 7.042969 C 20.835938 6.859375 21.351562 6.460938 22.910156 5.558594 C 22.84375 5.558594 21.402344 6.300781 21.347656 6.324219 C 20.421875 6.707031 19.453125 7.527344 18.929688 8.398438 C 18.394531 9.285156 17.890625 10.195312 17.320312 11.0625 C 16.425781 12.421875 15.375 13.648438 14.042969 14.601562 C 13.949219 14.667969 13.835938 14.703125 13.722656 14.734375 C 13.722656 14.730469 13.726562 14.730469 13.726562 14.726562 C 13.992188 14.265625 14.226562 13.792969 14.417969 13.308594 L 14.5 13.207031 C 14.390625 13.253906 14.289062 13.3125 14.25 13.328125 C 13.261719 13.789062 12.269531 14.230469 11.214844 14.535156 C 10.417969 14.765625 9.605469 14.929688 8.773438 14.976562 C 7.945312 15.023438 7.113281 14.996094 6.304688 14.796875 C 6.175781 14.765625 6.046875 14.730469 5.917969 14.695312 C 5.90625 14.691406 5.890625 14.6875 5.878906 14.6875 C 4.617188 14.34375 4.503906 14.109375 3.988281 13.734375 C 3.863281 13.597656 3.6875 13.332031 3.472656 13.199219 C 3.621094 13.445312 3.84375 13.808594 3.992188 14.058594 C 2.699219 14.40625 0.679688 13.191406 0 11.632812 C 0.0078125 11.90625 0.0585938 12 0.105469 12.128906 C 0.335938 12.652344 0.675781 13.09375 1.121094 13.453125 C 1.601562 13.84375 1.808594 13.980469 2.746094 14.273438 C 3.101562 14.351562 3.179688 14.375 3.859375 14.390625 C 3.960938 14.402344 4.304688 14.34375 4.402344 14.351562 C 4.527344 14.40625 4.402344 14.355469 4.632812 14.46875 C 5.136719 14.710938 5.964844 15.003906 6.667969 15.167969 C 7.144531 15.277344 7.621094 15.378906 8.101562 15.464844 C 8.332031 15.503906 8.570312 15.503906 8.804688 15.507812 C 9.652344 15.515625 10.496094 15.523438 11.335938 15.371094 C 12.125 15.230469 12.902344 15.035156 13.65625 14.738281 C 13.628906 14.882812 13.902344 14.890625 14.054688 14.824219 C 14.144531 14.785156 14.238281 14.746094 14.316406 14.691406 C 14.554688 14.53125 14.773438 14.34375 15.023438 14.203125 C 15.421875 13.976562 15.839844 13.785156 16.242188 13.566406 C 17.527344 12.875 18.765625 12.117188 19.933594 11.25 C 20.402344 10.90625 20.855469 10.546875 21.296875 10.164062 C 21.402344 10.105469 21.660156 9.851562 21.707031 9.8125 C 21.625 10.0625 21.523438 10.433594 21.429688 10.675781 C 20.902344 12.347656 20.28125 12.941406 19.640625 13.578125 C 19.699219 13.597656 19.722656 13.589844 19.800781 13.550781 C 19.847656 13.535156 20.792969 12.628906 21.121094 12.023438 C 21.554688 11.222656 21.882812 10.269531 22.15625 9.402344 C 22.15625 9.402344 22.296875 9.25 22.5 9.058594 C 23.097656 8.472656 23.660156 7.886719 24.269531 7.3125 C 24.585938 7.015625 24.898438 6.710938 25.242188 6.453125 C 25.933594 5.9375 26.648438 5.453125 27.347656 4.945312 C 27.605469 4.757812 27.925781 4.609375 27.976562 4.199219 C 27.953125 4.15625 27.921875 4.136719 27.867188 4.152344 "/>
<path style=" stroke:none;fill-rule:nonzero;fill:rgb(0.392157%,33.72549%,47.45098%);fill-opacity:1;" d="M 8.875 14.539062 C 9.613281 14.378906 10.339844 14.175781 11.039062 13.886719 C 12.355469 13.335938 13.582031 12.625 14.769531 11.84375 C 14.816406 11.816406 14.925781 11.742188 14.933594 11.691406 C 14.984375 11.457031 15.019531 11.296875 15.019531 11.0625 C 15.085938 11.035156 15.058594 10.875 15.0625 10.847656 C 15.019531 10.875 14.925781 10.980469 14.882812 11.007812 C 14.71875 11.132812 14.5625 11.253906 14.410156 11.375 C 13.101562 12.421875 11.722656 13.359375 10.148438 13.941406 C 9.089844 14.332031 7.984375 14.550781 6.851562 14.621094 C 6.582031 14.628906 6.300781 14.601562 6.058594 14.648438 C 6.804688 14.730469 8.191406 14.683594 8.875 14.539062 Z M 8.875 14.539062 "/>
<path style=" stroke:none;fill-rule:nonzero;fill:rgb(0.392157%,33.72549%,47.45098%);fill-opacity:1;" d="M 12.828125 7.90625 C 13.1875 7.925781 13.476562 7.867188 13.867188 7.898438 C 14.726562 7.957031 14.902344 7.683594 15.296875 7.332031 C 14.5625 7.519531 14.539062 7.507812 14.019531 7.523438 C 13.167969 7.546875 12.828125 7.566406 12.3125 7.671875 C 11.78125 7.78125 11.460938 7.929688 11.273438 8.027344 C 11.109375 8.140625 10.96875 8.160156 10.6875 8.566406 C 10.996094 8.566406 12.324219 7.914062 12.632812 7.902344 "/>
<path style=" stroke:none;fill-rule:nonzero;fill:rgb(0.392157%,33.72549%,47.45098%);fill-opacity:1;" d="M 23 4.84375 C 23.265625 4.757812 23.53125 4.679688 23.792969 4.597656 C 23.988281 4.535156 24.402344 4.359375 24.59375 4.277344 C 24.464844 4.261719 24.007812 4.296875 23.898438 4.304688 C 23.601562 4.316406 23.472656 4.316406 23.175781 4.328125 C 22.777344 4.347656 22.367188 4.453125 22 4.875 C 22.28125 4.710938 22.753906 4.640625 22.960938 4.636719 C 23.167969 4.632812 23.136719 4.691406 23 4.84375 "/>
<path style=" stroke:none;fill-rule:nonzero;fill:rgb(0%,55.294118%,59.215686%);fill-opacity:1;" d="M 22.3125 4.671875 C 22.3125 4.671875 22.667969 4.460938 23.125 4.386719 C 23.574219 4.3125 24.027344 4.398438 24.488281 4.285156 C 24.296875 4.367188 24.191406 4.429688 23.792969 4.597656 C 23.53125 4.679688 23.265625 4.757812 23 4.84375 C 22.542969 4.980469 22.417969 5.003906 21.96875 5.265625 C 21.84375 5.332031 21.722656 5.433594 21.574219 5.558594 C 21.722656 5.273438 21.773438 5.089844 21.996094 4.90625 M 3.550781 13.320312 C 4.257812 14.148438 5.242188 14.691406 6.308594 14.65625 C 6.488281 14.648438 7.109375 14.636719 7.289062 14.625 C 8.425781 14.554688 9.089844 14.332031 10.148438 13.941406 C 11.722656 13.359375 13.101562 12.421875 14.410156 11.375 C 14.5625 11.253906 14.71875 11.132812 14.882812 11.007812 C 14.925781 10.972656 14.972656 10.9375 15.015625 10.902344 C 15.015625 10.910156 15.015625 10.917969 15.015625 10.925781 C 15.011719 10.953125 15.007812 10.980469 15.003906 11.003906 C 14.910156 11.816406 14.707031 12.578125 14.417969 13.308594 C 14.226562 13.792969 13.917969 14.289062 13.652344 14.75 C 13.628906 14.789062 13.671875 14.804688 13.667969 14.804688 C 13.78125 14.773438 13.949219 14.667969 14.042969 14.601562 C 15.375 13.648438 16.425781 12.421875 17.320312 11.0625 C 17.890625 10.195312 18.394531 9.285156 18.929688 8.398438 C 19.453125 7.527344 20.117188 7.078125 21.121094 6.511719 C 22.785156 5.535156 22.847656 5.632812 23.570312 5.246094 C 24.328125 4.839844 25.117188 4.503906 25.949219 4.265625 C 26.523438 4.105469 27.195312 3.859375 27.792969 3.835938 C 27.921875 3.828125 27.925781 3.835938 28 3.867188 C 27.960938 3.449219 27.292969 3.355469 26.808594 3.472656 C 26.390625 3.585938 25.984375 3.722656 25.566406 3.832031 C 25.40625 3.871094 25.230469 3.886719 25.070312 3.867188 C 24.921875 3.847656 24.773438 3.820312 24.628906 3.789062 C 22.6875 3.214844 20.765625 3.914062 20.765625 3.914062 C 20.347656 4.035156 19.941406 4.191406 19.539062 4.363281 C 18.859375 4.65625 18.230469 5.039062 17.613281 5.445312 C 16.800781 5.980469 16.027344 6.574219 15.335938 7.261719 C 15.15625 7.421875 14.480469 7.832031 14.371094 7.832031 C 13.976562 7.828125 13.132812 7.839844 12.738281 7.855469 C 12.429688 7.867188 12.210938 7.867188 11.769531 7.976562 C 11.269531 8.078125 10.722656 8.386719 10.59375 8.742188 C 10.589844 8.886719 10.753906 8.859375 10.769531 8.859375 C 11.144531 8.871094 11.402344 8.800781 11.777344 8.800781 C 12.054688 8.796875 12.3125 8.859375 12.546875 8.992188 C 12.9375 9.222656 12.996094 9.675781 12.679688 9.992188 C 12.113281 10.558594 11.546875 11.128906 10.96875 11.683594 C 10.410156 12.226562 9.8125 12.714844 9.152344 13.128906 C 8.476562 13.554688 7.746094 13.84375 6.960938 13.945312 C 6.464844 14.011719 5.949219 14.003906 5.453125 13.941406 C 4.878906 13.871094 4.335938 13.636719 3.863281 13.296875 C 3.128906 12.765625 2.296875 12.496094 1.425781 12.359375 C 1.085938 12.304688 0.792969 12.195312 0.523438 11.992188 C 0.449219 11.9375 0.195312 11.722656 0.0859375 11.628906 C -0.0390625 11.511719 0.0078125 11.65625 0.015625 11.707031 C 0.695312 13.261719 2.910156 14.496094 4.207031 14.148438 "/>
<path style=" stroke:none;fill-rule:nonzero;fill:rgb(96.078431%,50.588235%,12.156863%);fill-opacity:1;" d="M 24.046875 10.285156 C 24.328125 10.113281 24.613281 9.953125 24.90625 9.800781 C 25.113281 9.695312 25.488281 9.554688 25.722656 9.449219 C 25.410156 9.460938 25.144531 9.417969 24.972656 9.40625 C 24.660156 9.378906 24.210938 9.257812 23.917969 9.070312 C 23.769531 8.976562 23.695312 8.871094 23.699219 8.675781 C 23.699219 8.574219 23.710938 8.476562 23.753906 8.320312 C 23.5625 8.515625 23.363281 8.699219 23.167969 8.910156 C 23.171875 8.980469 23.179688 9.257812 23.191406 9.457031 C 23.21875 9.921875 23.210938 10.390625 23.132812 10.859375 C 23.054688 11.363281 22.9375 11.851562 22.769531 12.328125 C 22.335938 13.566406 21.546875 14.550781 20.570312 15.390625 C 19.90625 15.957031 19.140625 16.347656 18.308594 16.621094 C 17.632812 16.839844 16.9375 16.910156 16.242188 16.964844 C 16.09375 16.972656 15.78125 16.960938 15.628906 16.949219 C 15.320312 16.929688 15.167969 16.910156 14.867188 16.851562 C 13.933594 16.667969 13.0625 16.328125 12.269531 15.78125 C 12.171875 15.714844 12.101562 15.664062 12.023438 15.613281 C 11.804688 15.648438 11.476562 15.691406 11.261719 15.714844 C 10.984375 15.75 10.707031 15.792969 10.484375 15.828125 C 10.304688 16.222656 10.148438 16.566406 9.992188 16.914062 C 10.148438 16.851562 10.269531 16.757812 10.398438 16.671875 C 10.789062 16.394531 11.183594 16.117188 11.691406 16.109375 C 11.839844 16.109375 12.007812 16.085938 12.101562 16.25 C 12.269531 16.550781 12.253906 16.878906 12.230469 17.207031 C 12.222656 17.328125 12.214844 17.449219 12.203125 17.617188 C 12.320312 17.554688 12.398438 17.511719 12.480469 17.472656 C 12.753906 17.335938 13.023438 17.191406 13.308594 17.078125 C 13.511719 16.996094 13.644531 17.074219 13.671875 17.253906 C 13.707031 17.488281 13.738281 17.726562 13.742188 17.960938 C 13.753906 18.628906 13.746094 19.296875 13.746094 19.988281 C 13.820312 19.890625 13.902344 19.808594 13.957031 19.710938 C 14.09375 19.464844 14.195312 19.203125 14.34375 18.964844 C 14.617188 18.527344 14.898438 18.089844 15.203125 17.671875 C 15.375 17.4375 15.644531 17.449219 15.8125 17.675781 C 15.992188 17.917969 16.132812 18.191406 16.292969 18.453125 C 16.308594 18.421875 16.347656 18.367188 16.378906 18.304688 C 16.546875 17.988281 16.734375 17.6875 17.007812 17.453125 C 17.234375 17.257812 17.53125 17.28125 17.683594 17.539062 C 17.871094 17.863281 18.03125 18.203125 18.199219 18.539062 C 18.289062 18.714844 18.367188 18.894531 18.457031 19.085938 C 18.488281 18.945312 18.492188 18.730469 18.515625 18.625 C 18.519531 18.589844 18.546875 18.25 18.546875 18.21875 C 18.5625 17.890625 18.558594 18.097656 18.601562 17.648438 C 18.667969 17.265625 18.808594 17.175781 19.097656 17.234375 C 19.195312 17.253906 19.289062 17.316406 19.375 17.371094 C 19.496094 17.445312 19.609375 17.53125 19.722656 17.609375 C 19.753906 17.433594 19.75 17.226562 19.773438 17.066406 C 19.796875 16.890625 19.835938 16.765625 19.875 16.59375 C 19.960938 16.4375 20.128906 16.507812 20.179688 16.523438 C 20.347656 16.570312 20.394531 16.605469 20.535156 16.703125 C 20.929688 16.980469 21.308594 17.277344 21.691406 17.570312 C 21.894531 17.726562 22.089844 17.886719 22.289062 18.046875 C 21.929688 17.296875 21.886719 17.242188 21.820312 17.121094 C 21.613281 16.652344 21.371094 16.195312 21.300781 15.683594 C 21.253906 15.367188 21.199219 15.128906 21.691406 15.070312 C 21.957031 15.039062 22.234375 15.074219 22.507812 15.089844 C 22.671875 15.097656 22.832031 15.125 22.964844 15.140625 C 22.824219 14.753906 22.683594 14.382812 22.554688 14.007812 C 22.464844 13.738281 22.648438 13.546875 22.960938 13.558594 C 23.167969 13.550781 23.289062 13.558594 23.449219 13.578125 C 23.558594 13.589844 23.667969 13.609375 23.78125 13.625 C 23.949219 13.644531 24.121094 13.648438 24.289062 13.683594 C 24.867188 13.734375 25.0625 13.773438 25.523438 13.835938 C 25.308594 13.726562 25.234375 13.707031 25.128906 13.636719 C 24.488281 13.324219 23.972656 12.933594 23.460938 12.433594 C 23.269531 12.222656 23.257812 12.15625 23.308594 11.953125 C 23.492188 11.695312 24.449219 11.574219 25.105469 11.515625 C 24.929688 11.394531 24.796875 11.308594 24.664062 11.214844 C 24.453125 11.0625 24.226562 10.925781 24.042969 10.746094 C 23.867188 10.570312 23.871094 10.394531 24.046875 10.285156 "/>
<path style=" stroke:none;fill-rule:nonzero;fill:rgb(96.078431%,50.588235%,12.156863%);fill-opacity:1;" d="M 8.097656 10.019531 C 9.007812 10.359375 8.363281 11.355469 7.535156 11.84375 C 7.996094 11.847656 8.0625 11.859375 8.300781 11.902344 C 8.753906 11.988281 8.9375 12.195312 8.769531 12.671875 C 8.722656 12.808594 8.664062 12.9375 8.59375 13.109375 C 9.089844 12.847656 9.339844 12.664062 9.585938 12.457031 C 9.371094 12 9.316406 11.707031 9.25 11.371094 C 9.164062 10.945312 9.105469 10.511719 9.066406 10.078125 C 9.042969 9.832031 9.066406 9.578125 9.097656 9.328125 C 9.148438 8.898438 9.191406 8.460938 9.292969 8.039062 C 9.570312 6.902344 10.125 5.898438 10.902344 5.03125 C 11.800781 4.035156 12.886719 3.332031 14.183594 2.972656 C 14.742188 2.816406 15.3125 2.734375 15.886719 2.703125 C 16.535156 2.703125 16.855469 2.710938 17.617188 2.851562 C 18.382812 3.019531 19.113281 3.296875 19.785156 3.707031 C 19.945312 3.792969 20.03125 3.835938 20.03125 3.835938 C 20.394531 3.707031 20.84375 3.574219 21.445312 3.40625 C 21.371094 3.230469 21.390625 3.195312 21.421875 3.03125 C 20.617188 3.390625 20.234375 3.417969 19.980469 3.316406 C 19.628906 3.175781 19.714844 2.617188 19.808594 2.238281 C 19.847656 2.078125 19.96875 1.734375 20.085938 1.472656 C 19.761719 1.847656 19.679688 1.941406 19.5625 2.03125 C 19.160156 2.355469 18.875 2.644531 18.570312 2.503906 C 18.203125 2.382812 18.335938 0.75 18.390625 0 C 18.078125 0.761719 17.90625 1.097656 17.683594 1.546875 C 17.546875 1.820312 17.351562 2.0625 17.15625 2.300781 C 17.019531 2.460938 16.902344 2.4375 16.75 2.304688 C 16.449219 1.980469 16.359375 1.601562 16.234375 1.195312 C 16.117188 1.554688 16.070312 1.765625 15.953125 1.972656 C 15.773438 2.292969 15.410156 2.363281 15.121094 2.144531 C 14.773438 1.878906 14.558594 1.511719 14.367188 1.128906 C 14.207031 0.867188 14.140625 0.617188 14.035156 0.410156 C 13.984375 0.789062 13.949219 1.207031 13.878906 1.585938 C 13.832031 1.839844 13.746094 2.152344 13.660156 2.394531 C 13.617188 2.507812 13.507812 2.59375 13.378906 2.546875 C 13.207031 2.484375 13.042969 2.40625 12.882812 2.316406 C 12.78125 2.261719 12.609375 2.035156 12.515625 1.960938 C 12.582031 2.320312 12.710938 3.011719 12.449219 3.214844 C 11.84375 3.683594 10.320312 2.199219 9.945312 1.90625 C 10.210938 2.589844 11.011719 3.851562 10.753906 4.507812 C 10.550781 4.878906 9.851562 4.703125 9.320312 4.496094 C 9.636719 4.890625 9.972656 5.398438 9.824219 5.679688 C 9.363281 6.3125 7.621094 5.59375 7.09375 5.429688 C 7.371094 5.667969 7.71875 5.855469 7.976562 6.042969 C 8.382812 6.335938 8.761719 6.535156 9.039062 6.972656 C 9.355469 7.441406 8.460938 7.738281 7.992188 7.769531 C 8.453125 7.925781 8.859375 8.214844 8.8125 8.445312 C 8.714844 9.105469 7.597656 9.242188 6.292969 9.40625 "/>
</g>
</svg>
