<?xml version="1.0" encoding="UTF-8"?>
<svg xmlns="http://www.w3.org/2000/svg" xmlns:xlink="http://www.w3.org/1999/xlink" width="16pt" height="20pt" viewBox="0 0 16 20" version="1.1">
<g id="surface1">
<path style=" stroke:none;fill-rule:nonzero;fill:rgb(100%,100%,100%);fill-opacity:1;" d="M 14.207031 6.390625 L 14.042969 6.152344 C 13.75 5.742188 13.390625 5.328125 12.949219 4.925781 C 11.25 3.390625 8.441406 3.105469 8.320312 3.09375 L 8.058594 3.070312 C 8.058594 3.070312 8.054688 3.464844 8.027344 3.578125 L 8.027344 3.589844 C 8.015625 3.644531 8.003906 3.695312 7.992188 3.746094 C 7.671875 3.542969 7.449219 3.339844 7.339844 3.148438 C 7.140625 2.792969 7.078125 2.46875 7.015625 2.15625 C 6.972656 1.933594 6.929688 1.722656 6.84375 1.519531 C 6.617188 0.984375 6.289062 0.527344 5.871094 0.164062 C 5.796875 0.0976562 5.71875 0.0273438 5.601562 0.0273438 C 5.550781 0.0273438 5.480469 0.0390625 5.410156 0.0976562 C 5.359375 0.140625 5.207031 0.292969 5.378906 0.546875 C 5.378906 0.550781 5.65625 1.0625 5.761719 1.789062 C 5.769531 1.851562 5.777344 1.914062 5.78125 1.980469 L 5.789062 2.054688 L 5.757812 2.023438 L 5.753906 1.980469 L 5.734375 1.792969 C 5.65625 1.25 5.480469 0.832031 5.398438 0.652344 L 5.355469 0.5625 L 5.351562 0.5625 L 5.300781 0.46875 C 5.210938 0.253906 5.34375 0.117188 5.390625 0.0742188 C 5.46875 0.0117188 5.546875 0 5.597656 0 C 5.699219 0 5.769531 0.0429688 5.832031 0.0898438 L 5.890625 0.140625 L 6.042969 0.28125 C 6.390625 0.625 6.667969 1.035156 6.867188 1.507812 C 6.957031 1.714844 7 1.929688 7.042969 2.152344 C 7.097656 2.425781 7.152344 2.707031 7.296875 3.003906 L 7.367188 3.136719 L 7.410156 3.207031 C 7.496094 3.328125 7.632812 3.457031 7.8125 3.589844 L 7.972656 3.695312 L 7.996094 3.585938 L 8 3.570312 C 8.019531 3.480469 8.027344 3.164062 8.027344 3.085938 L 8.027344 3.070312 L 8.0625 3.039062 L 8.324219 3.066406 L 8.488281 3.085938 C 9.128906 3.167969 11.472656 3.554688 12.96875 4.90625 C 13.410156 5.308594 13.773438 5.722656 14.066406 6.132812 L 14.066406 6.136719 L 14.222656 6.359375 Z M 14.207031 6.390625 "/>
<path style=" stroke:none;fill-rule:nonzero;fill:rgb(0%,0%,0.784314%);fill-opacity:1;" d="M 15.660156 12.921875 C 15.574219 12.902344 15.351562 12.847656 15.351562 12.847656 C 15.515625 12.382812 15.515625 12.089844 15.515625 12.089844 C 15.660156 12.015625 15.949219 11.898438 15.949219 11.898438 C 15.851562 11.386719 15.503906 10.988281 15.503906 10.988281 C 15.535156 10.882812 15.601562 10.699219 15.601562 10.632812 C 15.601562 10.5625 15.476562 10.449219 15.339844 10.359375 C 15.207031 10.273438 15.1875 10.121094 15.1875 9.933594 C 15.1875 9.75 15.109375 9.519531 15.082031 9.511719 C 15.050781 9.5 15.425781 9.382812 15.539062 9.054688 C 15.65625 8.722656 15.660156 8.457031 15.660156 8.457031 C 15.503906 8.683594 14.902344 8.773438 14.902344 8.773438 C 14.855469 8.261719 14.445312 6.609375 12.785156 5.109375 C 11.128906 3.609375 8.304688 3.339844 8.304688 3.339844 C 8.308594 3.425781 8.296875 3.523438 8.273438 3.632812 C 8.25 3.773438 8.207031 3.941406 8.136719 4.074219 L 8.121094 4.101562 C 7.730469 3.890625 7.320312 3.605469 7.132812 3.269531 C 6.769531 2.628906 6.816406 2.074219 6.621094 1.617188 C 6.308594 0.875 5.851562 0.46875 5.714844 0.351562 C 5.636719 0.28125 5.613281 0.261719 5.570312 0.292969 C 5.53125 0.324219 5.558594 0.371094 5.589844 0.417969 C 5.621094 0.464844 5.90625 1.011719 6.011719 1.757812 C 6.117188 2.503906 5.976562 3.675781 6.324219 4.433594 C 6.539062 4.902344 6.898438 5.273438 7.136719 5.488281 L 7.160156 5.507812 L 7.238281 5.585938 C 6.742188 5.632812 6.28125 5.613281 5.792969 5.339844 C 5.003906 4.941406 4.398438 4.015625 4.289062 3.035156 L 4.277344 2.917969 C 4.246094 2.648438 4.257812 2.382812 4.246094 2.113281 C 4.234375 1.867188 4.207031 1.625 4.164062 1.382812 C 4.148438 1.277344 4.125 1.171875 4.097656 1.066406 C 4.089844 1 4.070312 0.9375 4.050781 0.875 C 4.039062 0.835938 4.027344 0.792969 4.011719 0.75 C 3.980469 0.660156 3.941406 0.570312 3.890625 0.488281 C 3.828125 0.386719 3.757812 0.289062 3.679688 0.203125 C 3.632812 0.152344 3.582031 0.101562 3.523438 0.0625 C 3.523438 0.0625 3.472656 0.0273438 3.433594 0.046875 C 3.433594 0.046875 3.386719 0.0820312 3.4375 0.183594 C 3.4375 0.183594 3.449219 0.207031 3.464844 0.242188 C 3.472656 0.261719 3.484375 0.285156 3.492188 0.3125 C 3.5 0.339844 3.507812 0.367188 3.511719 0.398438 C 3.550781 0.609375 3.578125 1.066406 3.410156 1.941406 C 3.394531 2.070312 3.378906 2.195312 3.355469 2.320312 C 3.289062 2.730469 3.222656 3.195312 3.210938 3.675781 L 3.210938 3.773438 C 3.207031 4.199219 3.289062 7.011719 6.183594 7.894531 C 6.171875 7.953125 6.160156 8.011719 6.148438 8.070312 C 5.953125 9.308594 6.027344 9.828125 6.027344 9.828125 L 6.027344 9.84375 C 5.433594 10.066406 4.765625 10.367188 4.058594 10.773438 C 3.269531 11.207031 2.410156 11.796875 1.570312 12.605469 C 1.414062 12.753906 1.265625 12.90625 1.128906 13.054688 L 1.027344 13.160156 L 1.019531 13.167969 C 0.578125 13.644531 0.242188 14.085938 0 14.445312 C 1.308594 13.496094 3.351562 13.214844 3.976562 13.175781 C 4.632812 13.136719 5.296875 13.027344 5.296875 13.027344 C 5.296875 13.027344 5.554688 13.164062 5.863281 13.234375 C 6.214844 13.3125 6.582031 13.199219 6.582031 13.199219 C 6.714844 13.878906 7.191406 14.316406 7.316406 14.417969 C 7.285156 14.621094 7.316406 15.296875 7.546875 15.671875 C 7.796875 16.078125 8.203125 16.347656 8.203125 16.347656 C 8.203125 16.347656 8.175781 16.714844 8.269531 16.976562 C 8.367188 17.238281 8.589844 17.476562 8.589844 17.476562 C 8.589844 17.476562 8.488281 17.648438 8.472656 17.863281 C 8.460938 18.078125 8.589844 18.199219 8.589844 18.199219 C 8.589844 18.199219 8.472656 18.347656 8.453125 18.464844 C 8.433594 18.582031 8.507812 18.761719 8.507812 18.761719 C 8.507812 18.761719 8.4375 18.890625 8.414062 18.988281 C 8.394531 19.089844 8.453125 19.210938 8.453125 19.210938 C 8.40625 19.304688 8.265625 19.738281 8.472656 19.914062 C 8.679688 20.089844 8.9375 19.761719 8.9375 19.761719 C 9.015625 19.738281 9.164062 19.640625 9.234375 19.53125 C 9.320312 19.394531 9.320312 19.269531 9.320312 19.269531 C 9.320312 19.269531 9.433594 19.195312 9.527344 19.011719 C 9.605469 18.863281 9.597656 18.765625 9.597656 18.765625 C 9.597656 18.765625 10.042969 18.292969 10.136719 17.703125 C 10.21875 17.199219 10.097656 16.734375 10.097656 16.734375 C 10.097656 16.734375 10.4375 16.222656 10.421875 15.632812 C 10.648438 15.472656 11.203125 15.113281 11.890625 14.84375 C 11.914062 15.238281 11.976562 15.582031 11.851562 16.21875 C 11.695312 17.011719 10.992188 17.59375 10.992188 17.59375 C 11.976562 17.488281 12.632812 16.617188 12.890625 15.988281 C 13.105469 15.476562 13.296875 14.75 13.386719 14.421875 C 14.347656 14.234375 15.222656 14.183594 15.515625 14.140625 C 15.898438 14.082031 15.996094 13.996094 16.007812 13.851562 C 16.015625 13.707031 15.976562 13.445312 15.949219 13.269531 C 15.917969 13.097656 15.746094 12.941406 15.660156 12.921875 "/>
<path style=" stroke:none;fill-rule:nonzero;fill:rgb(100%,100%,100%);fill-opacity:1;" d="M 4.242188 2.878906 L 4.230469 2.71875 C 4.21875 2.515625 4.226562 2.316406 4.214844 2.113281 C 4.207031 1.871094 4.179688 1.628906 4.136719 1.386719 C 4.117188 1.285156 4.097656 1.179688 4.070312 1.074219 L 4.070312 1.070312 C 4.058594 1.007812 4.042969 0.945312 4.023438 0.882812 L 3.984375 0.761719 L 3.933594 0.628906 L 3.867188 0.503906 L 3.769531 0.359375 L 3.660156 0.222656 L 3.585938 0.148438 L 3.507812 0.0859375 L 3.484375 0.078125 L 3.449219 0.0742188 C 3.445312 0.0820312 3.441406 0.09375 3.445312 0.121094 L 3.464844 0.171875 L 3.492188 0.230469 L 3.519531 0.304688 L 3.539062 0.390625 L 3.539062 0.394531 L 3.5625 0.601562 C 3.582031 0.863281 3.566406 1.289062 3.441406 1.945312 L 3.4375 1.949219 L 3.386719 2.328125 C 3.316406 2.734375 3.25 3.199219 3.238281 3.675781 L 3.242188 3.773438 C 3.234375 4.199219 3.316406 6.988281 6.191406 7.867188 L 6.210938 7.902344 L 6.175781 8.074219 L 6.117188 8.480469 C 6.007812 9.355469 6.046875 9.769531 6.054688 9.820312 L 6.054688 9.839844 L 6.035156 9.867188 C 5.445312 10.089844 4.777344 10.394531 4.074219 10.796875 L 4.070312 10.796875 C 3.382812 11.175781 2.640625 11.675781 1.90625 12.332031 L 1.59375 12.625 L 1.363281 12.851562 C 1.289062 12.925781 1.21875 13 1.148438 13.074219 L 1.046875 13.179688 L 1.039062 13.1875 L 0.804688 13.453125 C 0.578125 13.710938 0.386719 13.957031 0.222656 14.179688 L 0.113281 14.335938 L 0.238281 14.25 C 1.550781 13.433594 3.386719 13.183594 3.976562 13.148438 C 4.464844 13.121094 4.960938 13.050781 5.179688 13.015625 L 5.292969 13 L 5.308594 13 L 5.320312 13.007812 C 5.375 13.035156 5.605469 13.144531 5.871094 13.207031 C 6.171875 13.269531 6.488281 13.195312 6.558594 13.175781 L 6.574219 13.171875 L 6.613281 13.195312 C 6.742188 13.863281 7.214844 14.296875 7.335938 14.394531 L 7.347656 14.421875 C 7.316406 14.621094 7.347656 15.292969 7.574219 15.65625 C 7.785156 16.003906 8.121094 16.257812 8.203125 16.3125 L 8.21875 16.324219 L 8.230469 16.351562 L 8.230469 16.367188 C 8.226562 16.441406 8.214844 16.746094 8.296875 16.96875 C 8.378906 17.191406 8.558594 17.398438 8.601562 17.449219 L 8.613281 17.457031 L 8.613281 17.492188 L 8.609375 17.5 C 8.597656 17.523438 8.550781 17.617188 8.523438 17.738281 L 8.503906 17.867188 L 8.503906 17.933594 C 8.515625 18.082031 8.597656 18.167969 8.609375 18.179688 L 8.613281 18.21875 L 8.59375 18.242188 C 8.570312 18.277344 8.527344 18.34375 8.5 18.410156 L 8.484375 18.472656 L 8.480469 18.472656 L 8.480469 18.535156 C 8.484375 18.605469 8.507812 18.679688 8.523438 18.722656 L 8.53125 18.75 L 8.53125 18.773438 L 8.527344 18.78125 C 8.519531 18.800781 8.484375 18.863281 8.460938 18.929688 L 8.441406 18.996094 L 8.441406 19.046875 C 8.441406 19.097656 8.460938 19.152344 8.472656 19.179688 L 8.480469 19.199219 L 8.480469 19.226562 C 8.429688 19.320312 8.304688 19.734375 8.492188 19.890625 C 8.582031 19.96875 8.683594 19.933594 8.765625 19.878906 C 8.847656 19.824219 8.910156 19.75 8.914062 19.746094 L 8.929688 19.734375 C 9 19.714844 9.144531 19.617188 9.210938 19.515625 C 9.289062 19.394531 9.292969 19.28125 9.292969 19.269531 L 9.304688 19.246094 C 9.316406 19.238281 9.414062 19.167969 9.503906 19 C 9.578125 18.859375 9.566406 18.769531 9.566406 18.769531 L 9.574219 18.746094 L 9.59375 18.722656 C 9.667969 18.640625 9.945312 18.304688 10.066406 17.882812 L 10.109375 17.699219 L 10.128906 17.539062 C 10.160156 17.167969 10.09375 16.84375 10.078125 16.761719 L 10.070312 16.742188 L 10.074219 16.71875 L 10.089844 16.699219 C 10.152344 16.59375 10.40625 16.140625 10.390625 15.632812 L 10.40625 15.609375 C 10.636719 15.449219 11.191406 15.085938 11.882812 14.816406 L 11.921875 14.84375 C 11.941406 15.234375 12.003906 15.585938 11.878906 16.226562 C 11.761719 16.832031 11.332031 17.308594 11.125 17.511719 L 11.082031 17.550781 L 11.167969 17.539062 C 12.039062 17.355469 12.625 16.5625 12.867188 15.976562 C 13.078125 15.46875 13.269531 14.742188 13.359375 14.414062 L 13.382812 14.394531 C 14.34375 14.207031 15.222656 14.15625 15.511719 14.113281 C 15.847656 14.0625 15.945312 13.992188 15.972656 13.894531 L 15.976562 13.851562 L 15.976562 13.726562 C 15.96875 13.585938 15.941406 13.40625 15.921875 13.277344 C 15.902344 13.15625 15.800781 13.042969 15.722656 12.988281 L 15.652344 12.953125 L 15.34375 12.875 L 15.324219 12.835938 C 15.476562 12.40625 15.484375 12.125 15.484375 12.09375 L 15.5 12.066406 C 15.574219 12.027344 15.683594 11.980469 15.773438 11.941406 L 15.914062 11.882812 L 15.882812 11.742188 C 15.773438 11.378906 15.554688 11.097656 15.5 11.027344 L 15.484375 11.007812 L 15.476562 10.980469 C 15.507812 10.875 15.574219 10.6875 15.574219 10.632812 C 15.574219 10.585938 15.464844 10.472656 15.324219 10.386719 C 15.175781 10.289062 15.160156 10.121094 15.160156 9.933594 C 15.160156 9.746094 15.074219 9.539062 15.070312 9.539062 L 15.0625 9.53125 L 15.050781 9.515625 C 15.042969 9.476562 15.167969 9.429688 15.25 9.371094 C 15.324219 9.320312 15.40625 9.246094 15.464844 9.148438 L 15.515625 9.042969 L 15.5625 8.890625 C 15.601562 8.742188 15.617188 8.617188 15.625 8.542969 L 15.625 8.535156 L 15.613281 8.546875 C 15.421875 8.707031 15.035156 8.78125 14.933594 8.800781 L 14.90625 8.804688 L 14.875 8.777344 C 14.828125 8.273438 14.417969 6.625 12.765625 5.132812 C 11.324219 3.828125 8.984375 3.457031 8.425781 3.382812 L 8.332031 3.371094 L 8.328125 3.480469 L 8.300781 3.636719 L 8.300781 3.640625 L 8.25 3.863281 C 8.238281 3.902344 8.226562 3.941406 8.210938 3.980469 L 8.160156 4.085938 L 8.148438 4.113281 L 8.109375 4.125 C 7.765625 3.941406 7.40625 3.699219 7.191406 3.410156 L 7.109375 3.285156 L 7.003906 3.074219 C 6.785156 2.59375 6.765625 2.164062 6.65625 1.800781 L 6.597656 1.628906 L 6.472656 1.367188 C 6.175781 0.796875 5.816406 0.476562 5.699219 0.371094 C 5.613281 0.300781 5.609375 0.300781 5.589844 0.316406 C 5.574219 0.328125 5.578125 0.347656 5.613281 0.402344 C 5.644531 0.449219 5.867188 0.875 5.992188 1.484375 L 6.039062 1.753906 L 6.070312 2.054688 C 6.121094 2.792969 6.050781 3.769531 6.351562 4.421875 C 6.5625 4.882812 6.917969 5.253906 7.15625 5.464844 L 7.179688 5.488281 L 7.183594 5.488281 L 7.257812 5.566406 L 7.242188 5.613281 C 6.804688 5.65625 6.394531 5.648438 5.964844 5.457031 L 5.777344 5.363281 L 5.640625 5.289062 C 4.960938 4.878906 4.4375 4.085938 4.289062 3.222656 L 4.261719 3.039062 L 4.246094 2.921875 Z M 16 13.667969 L 16.003906 13.722656 C 16.007812 13.773438 16.007812 13.816406 16.007812 13.851562 C 15.996094 13.996094 15.902344 14.082031 15.515625 14.140625 C 15.222656 14.183594 14.347656 14.234375 13.386719 14.421875 C 13.296875 14.75 13.105469 15.476562 12.894531 15.988281 C 12.632812 16.617188 11.976562 17.488281 10.992188 17.59375 C 10.992188 17.59375 11.695312 17.011719 11.851562 16.21875 C 11.976562 15.582031 11.914062 15.238281 11.894531 14.84375 C 11.203125 15.113281 10.648438 15.472656 10.421875 15.632812 C 10.4375 16.222656 10.101562 16.734375 10.101562 16.734375 C 10.101562 16.734375 10.21875 17.199219 10.136719 17.703125 C 10.042969 18.292969 9.597656 18.765625 9.597656 18.765625 C 9.597656 18.765625 9.609375 18.863281 9.527344 19.011719 C 9.433594 19.195312 9.320312 19.269531 9.320312 19.269531 C 9.320312 19.269531 9.320312 19.394531 9.234375 19.53125 C 9.164062 19.640625 9.015625 19.738281 8.9375 19.761719 C 8.9375 19.761719 8.679688 20.089844 8.472656 19.914062 C 8.265625 19.738281 8.40625 19.304688 8.453125 19.210938 C 8.453125 19.210938 8.394531 19.089844 8.414062 18.988281 C 8.4375 18.890625 8.507812 18.761719 8.507812 18.761719 C 8.507812 18.761719 8.433594 18.582031 8.453125 18.464844 C 8.472656 18.347656 8.589844 18.199219 8.589844 18.199219 C 8.589844 18.199219 8.460938 18.078125 8.476562 17.863281 C 8.488281 17.648438 8.589844 17.476562 8.589844 17.476562 C 8.589844 17.476562 8.367188 17.238281 8.269531 16.976562 C 8.175781 16.714844 8.203125 16.347656 8.203125 16.347656 C 8.203125 16.347656 7.796875 16.078125 7.546875 15.671875 C 7.320312 15.296875 7.285156 14.621094 7.316406 14.417969 C 7.191406 14.316406 6.714844 13.878906 6.585938 13.199219 C 6.585938 13.199219 6.21875 13.3125 5.867188 13.234375 C 5.554688 13.164062 5.296875 13.027344 5.296875 13.027344 C 5.296875 13.027344 4.632812 13.136719 3.976562 13.175781 C 3.351562 13.214844 1.308594 13.496094 0 14.445312 C 0.242188 14.085938 0.578125 13.644531 1.019531 13.167969 L 1.027344 13.160156 L 1.128906 13.054688 C 1.269531 12.90625 1.414062 12.753906 1.574219 12.605469 C 2.410156 11.796875 3.269531 11.207031 4.058594 10.773438 C 4.765625 10.367188 5.433594 10.066406 6.027344 9.84375 L 6.027344 9.828125 C 6.027344 9.828125 5.953125 9.308594 6.148438 8.070312 C 6.160156 8.011719 6.171875 7.953125 6.183594 7.894531 C 3.289062 7.011719 3.207031 4.203125 3.210938 3.773438 L 3.210938 3.675781 C 3.222656 3.195312 3.289062 2.730469 3.359375 2.320312 C 3.378906 2.195312 3.394531 2.070312 3.410156 1.941406 C 3.578125 1.066406 3.550781 0.609375 3.511719 0.398438 C 3.507812 0.367188 3.5 0.339844 3.492188 0.3125 C 3.484375 0.285156 3.476562 0.261719 3.464844 0.242188 C 3.453125 0.207031 3.4375 0.183594 3.4375 0.183594 C 3.390625 0.0820312 3.4375 0.046875 3.4375 0.046875 C 3.472656 0.0273438 3.523438 0.0625 3.523438 0.0625 C 3.582031 0.101562 3.632812 0.152344 3.679688 0.203125 C 3.761719 0.289062 3.828125 0.386719 3.890625 0.488281 C 3.941406 0.574219 3.984375 0.660156 4.011719 0.75 C 4.027344 0.792969 4.039062 0.835938 4.050781 0.875 C 4.070312 0.9375 4.089844 1 4.101562 1.066406 C 4.125 1.171875 4.148438 1.277344 4.167969 1.382812 C 4.207031 1.625 4.234375 1.867188 4.246094 2.113281 C 4.257812 2.382812 4.246094 2.648438 4.277344 2.917969 L 4.289062 3.035156 C 4.402344 4.015625 5.003906 4.941406 5.792969 5.339844 C 6.285156 5.613281 6.742188 5.632812 7.242188 5.585938 L 7.164062 5.507812 L 7.136719 5.488281 C 6.898438 5.273438 6.539062 4.902344 6.324219 4.433594 C 5.976562 3.675781 6.117188 2.503906 6.011719 1.757812 C 5.90625 1.015625 5.621094 0.464844 5.59375 0.417969 C 5.558594 0.371094 5.535156 0.324219 5.574219 0.292969 C 5.613281 0.261719 5.640625 0.28125 5.71875 0.351562 C 5.851562 0.46875 6.308594 0.875 6.625 1.617188 C 6.816406 2.074219 6.769531 2.628906 7.132812 3.269531 C 7.324219 3.605469 7.730469 3.890625 8.121094 4.101562 L 8.136719 4.074219 C 8.207031 3.941406 8.25 3.773438 8.273438 3.632812 C 8.296875 3.523438 8.308594 3.425781 8.304688 3.339844 C 8.304688 3.339844 11.128906 3.613281 12.789062 5.109375 C 14.445312 6.609375 14.855469 8.261719 14.902344 8.773438 C 14.902344 8.773438 15.507812 8.683594 15.660156 8.457031 C 15.660156 8.457031 15.65625 8.722656 15.542969 9.054688 C 15.429688 9.371094 15.078125 9.492188 15.082031 9.507812 L 15.082031 9.511719 C 15.109375 9.519531 15.1875 9.75 15.1875 9.933594 C 15.1875 10.121094 15.207031 10.273438 15.34375 10.359375 C 15.476562 10.449219 15.601562 10.5625 15.601562 10.632812 C 15.601562 10.699219 15.535156 10.882812 15.507812 10.988281 C 15.507812 10.988281 15.851562 11.386719 15.949219 11.898438 C 15.949219 11.898438 15.660156 12.015625 15.515625 12.089844 C 15.515625 12.089844 15.515625 12.382812 15.351562 12.847656 C 15.351562 12.847656 15.574219 12.902344 15.660156 12.921875 C 15.746094 12.941406 15.921875 13.097656 15.949219 13.273438 C 15.964844 13.359375 15.980469 13.46875 15.992188 13.574219 Z M 16 13.667969 "/>
<path style=" stroke:none;fill-rule:nonzero;fill:rgb(100%,77.254902%,18.431373%);fill-opacity:1;" d="M 8.023438 14.519531 L 8.023438 14.53125 C 8.023438 14.566406 8.027344 14.601562 8.027344 14.636719 L 7.984375 14.660156 C 7.679688 14.445312 6.894531 14.042969 6.765625 13.070312 L 6.746094 12.867188 L 6.742188 12.539062 C 6.75 12.222656 6.777344 11.933594 6.832031 11.695312 L 6.835938 11.6875 L 6.65625 11.886719 C 5.605469 12.972656 4.425781 12.902344 3.359375 13.011719 C 3.195312 13.03125 2.558594 13.160156 2.394531 13.195312 L 2.367188 13.148438 C 2.773438 12.710938 3.480469 12.066406 3.941406 11.75 C 4.835938 11.140625 6.378906 10.503906 6.378906 10.503906 L 6.402344 10.554688 L 6.40625 10.554688 C 5.949219 10.808594 5.550781 11.160156 5.332031 11.375 L 5.320312 11.386719 L 5.601562 11.210938 C 6.210938 10.835938 7.066406 10.34375 7.066406 10.34375 L 7.097656 10.386719 C 6.792969 10.679688 6.070312 11.324219 5.4375 11.824219 L 5.160156 12.035156 L 5.445312 11.875 C 6.039062 11.535156 6.523438 11.167969 6.820312 10.886719 C 7.320312 10.410156 8.066406 9.957031 8.40625 9.78125 L 8.441406 9.785156 C 8.601562 9.945312 8.839844 10.09375 9.050781 10.183594 L 9.054688 10.230469 C 8.550781 10.585938 8.203125 10.804688 8.019531 11.210938 L 8.003906 11.25 L 8.1875 11.058594 C 8.324219 10.925781 8.5 10.769531 8.710938 10.628906 L 8.929688 10.496094 C 9.042969 10.433594 9.164062 10.359375 9.289062 10.269531 L 9.3125 10.265625 C 9.378906 10.28125 9.484375 10.296875 9.59375 10.308594 L 9.871094 10.324219 L 9.882812 10.324219 L 9.90625 10.3125 L 9.933594 10.363281 L 9.828125 10.429688 L 9.453125 10.691406 C 8.589844 11.257812 7.855469 11.585938 7.609375 12.632812 L 7.585938 12.761719 L 7.660156 12.5625 C 7.792969 12.25 8.007812 11.882812 8.363281 11.601562 L 8.523438 11.488281 L 8.964844 11.222656 C 9.457031 10.9375 10.078125 10.578125 10.527344 10.121094 L 10.535156 10.113281 C 10.933594 9.929688 11.203125 9.636719 11.363281 9.230469 L 11.421875 9.050781 L 11.425781 9.050781 L 11.425781 9.039062 L 11.453125 9.015625 C 11.601562 9 11.75 8.980469 11.90625 8.964844 L 11.9375 9 C 11.925781 9.136719 11.898438 9.3125 11.847656 9.5 L 11.792969 9.6875 L 11.789062 9.6875 L 11.695312 9.953125 C 11.582031 10.222656 11.417969 10.511719 11.175781 10.808594 C 10.667969 11.429688 10.070312 11.847656 9.445312 12.574219 L 9.175781 12.90625 L 9.054688 13.070312 C 8.476562 13.894531 8.320312 14.691406 8.304688 14.792969 L 8.300781 14.804688 L 8.246094 14.804688 C 8.144531 14.058594 8.324219 13.484375 8.476562 13.160156 L 8.496094 13.125 L 8.425781 13.226562 C 8.308594 13.402344 8.1875 13.640625 8.121094 13.898438 C 8.058594 14.136719 8.035156 14.285156 8.027344 14.394531 Z M 7.828125 14.519531 L 8 14.636719 C 7.992188 14.5 7.972656 14.367188 8.09375 13.890625 C 8.226562 13.363281 8.585938 12.9375 8.671875 12.871094 C 8.671875 12.871094 8.113281 13.621094 8.273438 14.800781 C 8.273438 14.800781 8.429688 13.832031 9.152344 12.886719 C 9.878906 11.9375 10.574219 11.496094 11.152344 10.789062 C 11.472656 10.394531 11.65625 10.019531 11.765625 9.679688 C 11.851562 9.425781 11.890625 9.175781 11.910156 8.996094 C 11.753906 9.007812 11.605469 9.027344 11.457031 9.042969 L 11.453125 9.058594 C 11.300781 9.5625 11.011719 9.925781 10.546875 10.140625 C 9.941406 10.757812 9.042969 11.1875 8.539062 11.511719 C 7.648438 12.082031 7.503906 13.207031 7.503906 13.207031 C 7.601562 11.480469 8.65625 11.257812 9.8125 10.40625 L 9.917969 10.339844 L 9.882812 10.351562 C 9.738281 10.351562 9.441406 10.328125 9.308594 10.292969 C 9.179688 10.382812 9.058594 10.457031 8.945312 10.519531 C 8.339844 10.851562 7.921875 11.390625 7.921875 11.390625 C 8.085938 10.84375 8.46875 10.613281 9.039062 10.207031 C 8.824219 10.121094 8.585938 9.96875 8.421875 9.804688 C 8.082031 9.980469 7.335938 10.433594 6.839844 10.90625 C 6.445312 11.28125 5.707031 11.816406 4.835938 12.226562 C 5.519531 11.773438 6.675781 10.753906 7.078125 10.367188 C 7.078125 10.367188 5.5625 11.246094 5.128906 11.542969 C 5.128906 11.542969 5.691406 10.917969 6.390625 10.53125 C 6.390625 10.53125 4.847656 11.164062 3.957031 11.773438 C 3.5 12.089844 2.792969 12.730469 2.386719 13.167969 C 2.554688 13.128906 3.1875 13.003906 3.359375 12.984375 C 4.5 12.867188 5.75 12.957031 6.84375 11.636719 L 6.894531 11.574219 C 6.796875 11.898438 6.757812 12.359375 6.777344 12.867188 C 6.804688 13.695312 7.292969 14.144531 7.675781 14.417969 Z M 5.539062 12.871094 L 5.691406 12.820312 C 6.042969 12.679688 6.359375 12.378906 6.507812 12.222656 C 6.566406 12.164062 6.597656 12.128906 6.597656 12.128906 L 6.644531 12.152344 C 6.597656 12.324219 6.621094 12.832031 6.628906 12.957031 L 6.632812 12.984375 L 6.613281 13.011719 C 6.613281 13.011719 6.386719 13.101562 6.113281 13.101562 C 5.835938 13.101562 5.507812 12.929688 5.507812 12.925781 L 5.519531 12.875 L 5.535156 12.871094 Z M 5.542969 12.898438 L 5.523438 12.902344 C 5.523438 12.902344 5.84375 13.070312 6.113281 13.070312 C 6.382812 13.070312 6.601562 12.984375 6.601562 12.984375 C 6.601562 12.984375 6.558594 12.351562 6.617188 12.144531 C 6.617188 12.144531 6.109375 12.757812 5.542969 12.898438 Z M 5.542969 12.898438 "/>
<path style=" stroke:none;fill-rule:nonzero;fill:rgb(100%,100%,100%);fill-opacity:1;" d="M 3.921875 2.578125 L 3.945312 2.417969 L 3.949219 2.335938 L 3.949219 2.296875 L 3.953125 2.289062 L 3.953125 2.285156 L 3.976562 2.273438 C 4.019531 2.269531 4.035156 2.386719 4.046875 2.488281 C 4.054688 2.640625 4.0625 2.796875 4.078125 2.941406 L 4.089844 3.058594 C 4.210938 4.117188 4.84375 5.082031 5.699219 5.515625 C 6.386719 5.902344 7.027344 5.820312 7.714844 5.730469 L 8.109375 5.683594 L 8.429688 5.660156 C 8.53125 5.65625 8.625 5.65625 8.714844 5.660156 L 8.894531 5.675781 L 9.082031 5.699219 C 9.410156 5.746094 9.703125 5.839844 9.886719 5.914062 L 10.03125 5.976562 L 10.035156 5.976562 L 10.222656 6.078125 C 10.652344 6.347656 10.976562 6.816406 11.050781 7.308594 L 11.050781 7.328125 L 11.078125 7.480469 C 11.082031 7.53125 11.085938 7.585938 11.085938 7.640625 L 11.070312 7.640625 L 11.066406 7.71875 C 11.050781 7.851562 11.019531 7.980469 10.972656 8.101562 L 10.945312 8.089844 L 10.921875 8.082031 L 10.917969 8.082031 C 10.941406 8.003906 10.960938 7.917969 10.964844 7.828125 L 10.964844 7.800781 L 10.957031 7.828125 C 10.9375 7.925781 10.902344 8.019531 10.863281 8.109375 L 10.835938 8.097656 L 10.8125 8.085938 L 10.808594 8.089844 C 10.855469 7.9375 10.875 7.773438 10.859375 7.605469 C 10.839844 7.390625 10.769531 7.195312 10.660156 7.027344 L 10.65625 7.027344 L 10.691406 7.121094 C 10.746094 7.277344 10.777344 7.441406 10.792969 7.601562 C 10.851562 8.269531 10.390625 8.734375 9.84375 8.910156 L 9.78125 8.929688 L 9.910156 8.921875 C 9.957031 8.914062 10.007812 8.902344 10.058594 8.886719 L 10.066406 8.886719 C 10.136719 8.882812 10.21875 8.867188 10.308594 8.835938 L 10.398438 8.800781 L 10.476562 8.757812 C 10.503906 8.742188 10.535156 8.722656 10.566406 8.703125 L 10.582031 8.726562 L 10.59375 8.746094 L 10.601562 8.746094 C 10.332031 8.996094 9.976562 9.148438 9.582031 9.148438 C 9.0625 9.148438 8.605469 8.882812 8.335938 8.480469 L 8.363281 8.4375 C 8.546875 8.460938 8.730469 8.488281 8.867188 8.511719 L 8.960938 8.53125 L 8.957031 8.527344 C 8.675781 8.351562 8.316406 8.230469 8.222656 8.199219 L 8.199219 8.195312 L 8.195312 8.195312 C 7.828125 8.082031 7.332031 7.980469 6.839844 7.859375 L 6.351562 7.730469 L 6.117188 7.65625 C 5.027344 7.292969 4.25 6.605469 3.804688 5.613281 L 3.722656 5.410156 L 3.644531 5.195312 C 3.480469 4.699219 3.433594 4.253906 3.421875 3.988281 L 3.417969 3.769531 L 3.417969 3.683594 C 3.421875 3.28125 3.464844 2.898438 3.511719 2.582031 L 3.558594 2.285156 L 3.5625 2.242188 L 3.566406 2.242188 L 3.617188 2.25 L 3.617188 2.246094 L 3.621094 2.246094 L 3.621094 2.324219 C 3.621094 2.507812 3.628906 2.683594 3.632812 2.824219 L 3.636719 2.875 L 3.65625 2.761719 C 3.667969 2.679688 3.679688 2.597656 3.6875 2.511719 C 3.703125 2.34375 3.738281 2.148438 3.746094 1.984375 C 3.75 1.917969 3.753906 1.855469 3.75 1.792969 L 3.792969 1.765625 C 3.832031 1.789062 3.835938 1.867188 3.835938 1.875 C 3.851562 1.953125 3.882812 2.496094 3.894531 2.683594 L 3.894531 2.753906 L 3.90625 2.671875 L 3.90625 2.667969 Z M 4.027344 2.683594 L 4.015625 2.492188 C 4.007812 2.371094 3.984375 2.300781 3.980469 2.300781 L 3.976562 2.304688 L 3.980469 2.335938 C 3.980469 2.449219 3.953125 2.5625 3.933594 2.671875 L 3.886719 3.050781 L 3.878906 3.019531 C 3.871094 2.980469 3.871094 2.945312 3.871094 2.90625 C 3.871094 2.832031 3.867188 2.757812 3.863281 2.683594 C 3.855469 2.496094 3.824219 1.949219 3.808594 1.882812 C 3.804688 1.863281 3.796875 1.800781 3.78125 1.789062 C 3.78125 1.855469 3.777344 1.917969 3.777344 1.984375 C 3.769531 2.152344 3.730469 2.347656 3.714844 2.515625 C 3.699219 2.683594 3.667969 2.847656 3.644531 3.011719 L 3.628906 3.125 L 3.625 3.125 C 3.617188 3.023438 3.589844 2.695312 3.59375 2.324219 L 3.59375 2.246094 L 3.585938 2.289062 C 3.523438 2.648438 3.453125 3.148438 3.445312 3.683594 L 3.445312 3.769531 C 3.441406 3.9375 3.449219 4.632812 3.746094 5.398438 C 4.203125 6.566406 5.082031 7.339844 6.359375 7.703125 C 6.996094 7.882812 7.707031 8.015625 8.207031 8.167969 L 8.207031 8.164062 C 8.207031 8.164062 8.753906 8.328125 9.085938 8.582031 C 9.085938 8.582031 8.726562 8.511719 8.359375 8.464844 C 8.625 8.859375 9.070312 9.117188 9.582031 9.117188 C 9.96875 9.117188 10.316406 8.96875 10.582031 8.726562 C 10.515625 8.769531 10.457031 8.804688 10.414062 8.824219 C 10.285156 8.886719 10.164062 8.90625 10.070312 8.914062 C 9.859375 8.980469 9.648438 8.953125 9.59375 8.941406 L 9.605469 8.941406 C 10.238281 8.828125 10.828125 8.34375 10.761719 7.605469 C 10.734375 7.289062 10.636719 6.949219 10.441406 6.738281 C 10.6875 6.949219 10.855469 7.253906 10.886719 7.601562 C 10.902344 7.773438 10.882812 7.941406 10.835938 8.097656 C 10.917969 7.921875 10.964844 7.730469 10.964844 7.527344 C 11.011719 7.742188 10.996094 7.929688 10.945312 8.089844 C 11.007812 7.933594 11.042969 7.761719 11.046875 7.582031 L 11.054688 7.640625 C 11.054688 7.53125 11.042969 7.429688 11.023438 7.328125 L 11.023438 7.3125 C 10.9375 6.761719 10.535156 6.234375 10.019531 6.003906 C 9.867188 5.921875 9.398438 5.75 8.890625 5.703125 C 8.660156 5.679688 8.414062 5.679688 8.113281 5.710938 C 7.976562 5.726562 7.847656 5.742188 7.71875 5.761719 C 7.03125 5.847656 6.382812 5.933594 5.683594 5.539062 C 4.824219 5.105469 4.183594 4.128906 4.0625 3.0625 L 4.050781 2.945312 C 4.039062 2.871094 4.035156 2.796875 4.03125 2.71875 Z M 4.027344 2.683594 "/>
<path style=" stroke:none;fill-rule:nonzero;fill:rgb(100%,77.254902%,18.431373%);fill-opacity:1;" d="M 9.238281 15.722656 C 9.113281 16.066406 9.027344 16.382812 8.992188 16.503906 L 8.949219 16.523438 C 8.574219 16.296875 7.988281 15.992188 7.769531 15.648438 C 7.476562 15.195312 7.480469 14.605469 7.480469 14.601562 L 7.53125 14.582031 C 7.664062 14.703125 8.027344 14.90625 8.359375 15.089844 C 8.636719 15.242188 9.078125 15.574219 9.230469 15.691406 Z M 9.214844 15.714844 C 9.058594 15.597656 8.617188 15.265625 8.347656 15.117188 C 8.015625 14.929688 7.652344 14.726562 7.511719 14.601562 C 7.511719 14.601562 7.507812 15.1875 7.792969 15.632812 C 8.003906 15.964844 8.585938 16.269531 8.964844 16.496094 C 9 16.375 9.085938 16.058594 9.214844 15.714844 Z M 8.550781 14.519531 L 8.558594 14.5 C 8.605469 14.296875 8.683594 14.0625 8.800781 13.796875 C 9.0625 13.203125 9.71875 12.480469 9.722656 12.480469 L 9.761719 12.480469 C 9.984375 12.710938 10.277344 13.183594 10.160156 13.804688 C 10.046875 14.417969 9.753906 14.628906 9.464844 15.203125 C 9.414062 15.304688 9.367188 15.410156 9.320312 15.515625 L 9.277344 15.527344 C 9.097656 15.382812 8.765625 15.175781 8.488281 15.003906 L 8.476562 14.976562 C 8.480469 14.921875 8.488281 14.851562 8.5 14.769531 Z M 8.898438 13.667969 L 8.828125 13.808594 C 8.597656 14.332031 8.515625 14.753906 8.503906 14.980469 C 8.78125 15.152344 9.113281 15.359375 9.292969 15.503906 C 9.339844 15.398438 9.386719 15.292969 9.4375 15.191406 C 9.730469 14.609375 10.019531 14.402344 10.132812 13.796875 C 10.25 13.191406 9.960938 12.726562 9.742188 12.5 C 9.742188 12.5 9.238281 13.050781 8.941406 13.582031 Z M 7.242188 8.117188 L 7.257812 8.121094 L 7.253906 8.179688 L 6.785156 8.273438 C 6.640625 8.304688 6.496094 8.339844 6.367188 8.375 L 6.332031 8.34375 C 6.34375 8.242188 6.355469 8.136719 6.375 8.03125 L 6.390625 7.945312 L 6.425781 7.921875 C 6.539062 7.949219 6.65625 7.976562 6.773438 8.003906 L 7.085938 8.078125 Z M 7.234375 8.148438 L 7.082031 8.109375 C 6.976562 8.082031 6.871094 8.058594 6.765625 8.03125 C 6.648438 8.003906 6.535156 7.980469 6.417969 7.949219 L 6.402344 8.035156 C 6.386719 8.140625 6.371094 8.242188 6.359375 8.347656 C 6.621094 8.28125 6.929688 8.207031 7.230469 8.152344 L 7.25 8.152344 Z M 7.234375 8.148438 "/>
<path style=" stroke:none;fill-rule:nonzero;fill:rgb(100%,100%,100%);fill-opacity:1;" d="M 7.539062 5.023438 L 7.378906 5.253906 L 7.339844 5.261719 C 7.125 5.101562 6.789062 4.804688 6.582031 4.398438 L 6.503906 4.21875 L 6.421875 3.96875 C 6.261719 3.394531 6.292969 2.859375 6.277344 2.496094 L 6.261719 2.332031 L 6.207031 1.925781 L 6.210938 1.921875 L 6.261719 1.917969 L 6.261719 1.914062 L 6.265625 1.910156 L 6.347656 2.214844 L 6.34375 2.167969 C 6.332031 2.023438 6.3125 1.867188 6.28125 1.742188 L 6.335938 1.730469 L 6.335938 1.726562 C 6.339844 1.730469 6.445312 2.023438 6.511719 2.300781 L 6.515625 2.316406 L 6.515625 2.289062 C 6.515625 2.191406 6.515625 2.078125 6.503906 1.964844 L 6.558594 1.953125 C 6.578125 2.011719 6.59375 2.074219 6.609375 2.136719 L 6.652344 2.332031 C 6.796875 3.148438 7.03125 3.707031 7.996094 4.304688 L 8.007812 4.34375 C 7.917969 4.476562 7.8125 4.632812 7.703125 4.792969 Z M 6.757812 4.625 L 6.808594 4.703125 C 6.992188 4.941406 7.207031 5.125 7.355469 5.238281 C 7.554688 4.957031 7.808594 4.59375 7.980469 4.328125 C 7.011719 3.726562 6.769531 3.15625 6.621094 2.335938 C 6.597656 2.207031 6.566406 2.082031 6.53125 1.960938 C 6.558594 2.273438 6.535156 2.5625 6.535156 2.5625 C 6.496094 2.261719 6.3125 1.738281 6.3125 1.738281 C 6.386719 2.074219 6.402344 2.617188 6.402344 2.617188 C 6.382812 2.425781 6.300781 2.128906 6.234375 1.917969 C 6.257812 2.070312 6.277344 2.210938 6.292969 2.328125 C 6.339844 2.730469 6.246094 3.453125 6.53125 4.207031 C 6.578125 4.332031 6.636719 4.445312 6.703125 4.550781 Z M 6.757812 4.625 "/>
<path style=" stroke:none;fill-rule:nonzero;fill:rgb(34.509804%,18.039216%,56.470588%);fill-opacity:1;" d="M 11.261719 8.859375 L 11.238281 8.957031 C 11.054688 9.625 10.449219 10.113281 9.726562 10.113281 C 9.1875 10.113281 8.714844 9.839844 8.429688 9.421875 L 8.332031 9.253906 L 7.855469 9.351562 L 7.433594 9.441406 L 7.292969 9.480469 C 7.097656 9.53125 6.746094 9.625 6.507812 9.699219 L 6.328125 9.757812 L 6.316406 9.761719 L 6.316406 9.757812 L 6.304688 9.765625 C 6.292969 9.761719 6.28125 9.757812 6.277344 9.746094 C 6.265625 9.730469 6.261719 9.707031 6.257812 9.664062 C 6.253906 9.617188 6.25 9.546875 6.25 9.433594 L 6.265625 8.964844 L 6.300781 8.566406 L 6.324219 8.542969 C 6.460938 8.503906 6.613281 8.46875 6.773438 8.429688 L 7.261719 8.332031 L 7.765625 8.257812 L 7.773438 8.257812 C 7.867188 8.28125 7.957031 8.304688 8.042969 8.332031 L 8.0625 8.347656 C 8.332031 8.933594 8.929688 9.320312 9.582031 9.320312 L 9.667969 9.320312 L 9.695312 9.316406 L 9.753906 9.3125 L 9.789062 9.308594 L 9.835938 9.304688 L 9.875 9.296875 L 9.917969 9.289062 L 9.957031 9.277344 L 10 9.269531 L 10.078125 9.246094 L 10.121094 9.230469 L 10.15625 9.222656 L 10.15625 9.21875 L 10.199219 9.203125 L 10.230469 9.191406 L 10.277344 9.167969 L 10.304688 9.15625 L 10.351562 9.132812 L 10.378906 9.121094 L 10.425781 9.09375 L 10.445312 9.082031 L 10.496094 9.050781 L 10.496094 9.046875 L 10.515625 9.039062 L 10.515625 9.035156 L 10.566406 9 L 10.582031 8.992188 L 10.628906 8.949219 L 10.644531 8.941406 L 10.695312 8.898438 L 10.703125 8.890625 L 10.703125 8.886719 L 10.753906 8.839844 L 10.761719 8.835938 L 10.8125 8.78125 L 10.816406 8.777344 L 10.867188 8.722656 L 10.867188 8.71875 L 10.871094 8.714844 L 10.917969 8.65625 L 10.917969 8.652344 L 10.964844 8.589844 C 10.980469 8.566406 10.996094 8.542969 11.011719 8.519531 C 11.136719 8.316406 11.21875 8.082031 11.25 7.828125 L 11.253906 7.746094 L 11.257812 7.746094 C 11.257812 7.71875 11.257812 7.691406 11.257812 7.660156 L 11.257812 7.65625 L 11.285156 7.632812 C 11.402344 7.617188 11.878906 7.570312 12.386719 7.546875 L 12.894531 7.535156 L 13.40625 7.554688 C 13.882812 7.582031 14.246094 7.636719 14.386719 7.664062 L 14.40625 7.679688 C 14.425781 7.730469 14.445312 7.78125 14.464844 7.832031 L 14.46875 7.847656 L 14.503906 7.945312 L 14.511719 7.972656 L 14.539062 8.054688 L 14.550781 8.082031 L 14.550781 8.085938 L 14.574219 8.160156 L 14.582031 8.1875 L 14.601562 8.257812 L 14.609375 8.285156 L 14.625 8.347656 L 14.648438 8.429688 L 14.648438 8.433594 L 14.65625 8.457031 L 14.667969 8.507812 L 14.671875 8.53125 L 14.683594 8.578125 L 14.695312 8.636719 L 14.695312 8.640625 L 14.699219 8.652344 L 14.699219 8.65625 L 14.707031 8.6875 L 14.722656 8.757812 L 14.722656 8.765625 L 14.691406 8.796875 C 13.800781 8.679688 13.09375 8.667969 11.824219 8.785156 L 11.265625 8.84375 Z M 10.816406 8.820312 L 10.773438 8.863281 L 10.722656 8.910156 L 10.710938 8.917969 L 10.660156 8.964844 L 10.648438 8.972656 L 10.597656 9.015625 L 10.582031 9.023438 L 10.53125 9.0625 L 10.511719 9.074219 L 10.460938 9.105469 L 10.441406 9.117188 L 10.390625 9.144531 L 10.367188 9.160156 L 10.316406 9.183594 L 10.289062 9.195312 L 10.242188 9.21875 L 10.210938 9.230469 L 10.128906 9.257812 L 10.085938 9.273438 L 10.046875 9.285156 L 10.003906 9.296875 L 9.964844 9.308594 L 9.925781 9.316406 L 9.878906 9.324219 L 9.839844 9.332031 L 9.792969 9.335938 L 9.753906 9.34375 L 9.695312 9.347656 L 9.667969 9.347656 C 9.640625 9.351562 9.609375 9.351562 9.582031 9.351562 C 8.917969 9.351562 8.3125 8.957031 8.035156 8.359375 C 7.949219 8.335938 7.859375 8.308594 7.769531 8.285156 C 7.609375 8.304688 7.441406 8.328125 7.265625 8.359375 C 6.941406 8.417969 6.605469 8.496094 6.328125 8.570312 C 6.316406 8.714844 6.296875 8.949219 6.296875 8.96875 C 6.277344 9.378906 6.277344 9.570312 6.285156 9.660156 C 6.292969 9.75 6.308594 9.734375 6.308594 9.734375 C 6.546875 9.640625 7.425781 9.414062 7.425781 9.414062 C 7.683594 9.355469 7.988281 9.289062 8.347656 9.222656 C 8.601562 9.734375 9.121094 10.082031 9.726562 10.082031 C 10.484375 10.082031 11.109375 9.539062 11.242188 8.816406 C 12.894531 8.636719 13.675781 8.632812 14.695312 8.769531 L 14.691406 8.761719 L 14.679688 8.695312 L 14.671875 8.660156 L 14.667969 8.644531 L 14.65625 8.585938 L 14.644531 8.539062 L 14.640625 8.515625 L 14.628906 8.464844 L 14.621094 8.441406 L 14.605469 8.382812 L 14.597656 8.355469 L 14.582031 8.292969 L 14.574219 8.265625 L 14.554688 8.199219 L 14.546875 8.167969 L 14.523438 8.09375 L 14.511719 8.066406 L 14.484375 7.980469 L 14.476562 7.957031 L 14.441406 7.859375 L 14.4375 7.84375 C 14.417969 7.792969 14.398438 7.742188 14.378906 7.691406 C 14.195312 7.65625 13.613281 7.570312 12.890625 7.566406 C 12.234375 7.5625 11.445312 7.644531 11.289062 7.660156 L 11.289062 7.664062 C 11.289062 7.691406 11.285156 7.71875 11.285156 7.746094 L 11.285156 7.75 C 11.28125 7.777344 11.28125 7.804688 11.277344 7.832031 C 11.25 8.089844 11.164062 8.328125 11.035156 8.539062 C 11.019531 8.558594 11.003906 8.582031 10.988281 8.605469 L 10.941406 8.671875 L 10.941406 8.675781 L 10.890625 8.734375 L 10.886719 8.738281 L 10.835938 8.796875 L 10.832031 8.800781 Z M 10.816406 8.820312 "/>
<path style=" stroke:none;fill-rule:nonzero;fill:rgb(97.254902%,79.215686%,87.058824%);fill-opacity:1;" d="M 12.253906 8.90625 L 12.246094 8.921875 L 12.257812 8.910156 Z M 12.042969 13.667969 L 12.03125 13.683594 C 12.03125 13.683594 11.511719 13.789062 11.191406 13.421875 L 11.128906 13.339844 L 11.03125 13.167969 C 10.828125 12.765625 10.839844 12.347656 10.859375 12.148438 L 10.871094 12.082031 L 10.769531 12.113281 C 10.707031 12.128906 10.628906 12.144531 10.550781 12.136719 L 10.476562 12.125 L 10.421875 12.105469 C 10.375 12.082031 10.339844 12.042969 10.3125 12 L 10.316406 11.964844 C 10.628906 11.6875 10.957031 11.425781 11.285156 11.054688 L 11.3125 11.042969 C 11.398438 11.0625 11.480469 11.082031 11.550781 11.101562 L 11.722656 11.148438 L 11.792969 11.175781 C 11.960938 11.246094 12.117188 11.390625 12.164062 11.550781 C 12.191406 11.636719 12.210938 11.824219 12.226562 11.988281 L 12.230469 12.105469 L 12.25 12.03125 C 12.296875 11.800781 12.308594 11.667969 12.316406 11.585938 C 12.324219 11.488281 12.316406 11.269531 12.175781 11.089844 L 12.109375 11.015625 L 12.058594 10.976562 C 11.921875 10.890625 11.65625 10.808594 11.539062 10.742188 L 11.53125 10.699219 C 11.960938 10.105469 12.121094 9.226562 12.152344 9.015625 L 12.160156 8.976562 L 12.160156 8.945312 L 12.183594 8.914062 L 12.242188 8.90625 L 12.261719 8.90625 L 12.269531 8.898438 C 12.359375 8.894531 12.6875 8.855469 12.78125 8.851562 L 12.808594 8.890625 L 12.789062 8.957031 C 12.761719 9.066406 12.71875 9.292969 12.761719 9.488281 L 12.777344 9.539062 L 12.800781 9.527344 C 12.910156 9.46875 13.167969 9.355469 13.5 9.378906 C 13.941406 9.410156 14.632812 9.617188 14.910156 9.507812 L 14.949219 9.523438 C 14.949219 9.523438 15.050781 9.753906 15.070312 9.960938 L 15.074219 10.050781 C 15.070312 10.207031 15.105469 10.328125 15.152344 10.398438 L 15.203125 10.453125 L 15.289062 10.503906 L 15.367188 10.539062 L 15.414062 10.566406 L 15.4375 10.589844 C 15.480469 10.648438 15.472656 10.757812 15.449219 10.835938 C 15.421875 10.949219 15.332031 10.964844 15.25 10.945312 C 15.183594 10.929688 14.824219 10.878906 14.4375 10.953125 L 14.40625 10.929688 C 14.382812 10.859375 14.339844 10.679688 14.433594 10.582031 C 14.476562 10.535156 14.53125 10.507812 14.589844 10.496094 L 14.640625 10.488281 L 14.613281 10.480469 C 14.585938 10.476562 14.554688 10.472656 14.523438 10.472656 C 14.425781 10.472656 14.34375 10.523438 14.289062 10.585938 L 14.25 10.65625 L 14.238281 10.722656 C 14.234375 10.800781 14.25 10.90625 14.261719 10.964844 L 14.242188 10.996094 C 13.820312 11.121094 13.214844 11.453125 12.714844 12.09375 C 12.246094 12.703125 12.089844 13.445312 12.058594 13.621094 L 12.054688 13.660156 Z M 11.828125 13.667969 C 11.945312 13.671875 12.027344 13.65625 12.027344 13.65625 C 12.027344 13.65625 12.148438 12.78125 12.695312 12.078125 C 13.195312 11.429688 13.808594 11.097656 14.234375 10.96875 C 14.21875 10.890625 14.191406 10.726562 14.222656 10.648438 C 14.265625 10.539062 14.382812 10.441406 14.523438 10.441406 C 14.667969 10.441406 14.828125 10.519531 14.828125 10.519531 C 14.753906 10.503906 14.554688 10.492188 14.453125 10.601562 C 14.375 10.683594 14.410156 10.851562 14.429688 10.921875 C 14.824219 10.851562 15.1875 10.898438 15.253906 10.917969 C 15.328125 10.9375 15.398438 10.921875 15.421875 10.832031 C 15.449219 10.738281 15.449219 10.625 15.398438 10.589844 C 15.347656 10.550781 15.269531 10.539062 15.1875 10.476562 C 15.105469 10.414062 15.039062 10.265625 15.046875 10.046875 C 15.050781 9.832031 14.921875 9.53125 14.921875 9.53125 C 14.625 9.652344 13.929688 9.441406 13.496094 9.410156 C 13.066406 9.378906 12.761719 9.582031 12.761719 9.582031 C 12.644531 9.285156 12.78125 8.882812 12.78125 8.882812 C 12.6875 8.882812 12.363281 8.921875 12.273438 8.929688 C 12.269531 8.933594 12.238281 8.9375 12.1875 8.945312 L 12.1875 8.972656 C 12.1875 8.972656 12.050781 10.027344 11.550781 10.714844 C 11.683594 10.789062 12.011719 10.886719 12.128906 10.992188 C 12.34375 11.191406 12.355469 11.472656 12.34375 11.585938 C 12.335938 11.699219 12.316406 11.898438 12.214844 12.296875 C 12.214844 12.296875 12.1875 11.726562 12.136719 11.558594 C 12.085938 11.386719 11.894531 11.234375 11.710938 11.175781 C 11.628906 11.152344 11.476562 11.109375 11.304688 11.070312 C 10.976562 11.449219 10.648438 11.707031 10.335938 11.984375 C 10.371094 12.039062 10.417969 12.082031 10.480469 12.097656 C 10.667969 12.144531 10.90625 12.035156 10.90625 12.035156 C 10.90625 12.035156 10.753906 12.730469 11.152344 13.324219 C 11.339844 13.601562 11.632812 13.660156 11.828125 13.667969 Z M 11.828125 13.667969 "/>
<path style=" stroke:none;fill-rule:nonzero;fill:rgb(100%,77.254902%,18.431373%);fill-opacity:1;" d="M 15.332031 9.101562 L 15.308594 9.136719 C 15.222656 9.238281 15.097656 9.332031 14.910156 9.367188 L 14.808594 9.382812 L 14.613281 9.390625 C 14.203125 9.390625 14.089844 9.277344 13.726562 9.230469 L 13.714844 9.175781 C 13.714844 9.175781 13.75 9.15625 13.8125 9.128906 L 13.914062 9.09375 L 13.84375 9.085938 C 13.738281 9.085938 13.613281 9.085938 13.492188 9.105469 L 13.394531 9.125 L 13.292969 9.15625 C 13.082031 9.226562 12.988281 9.316406 12.984375 9.324219 L 12.9375 9.304688 L 12.933594 9.300781 C 12.933594 9.269531 12.902344 8.976562 13.066406 8.871094 C 13.191406 8.785156 13.527344 8.789062 13.761719 8.808594 L 13.953125 8.824219 L 14.152344 8.847656 C 14.378906 8.875 14.703125 8.910156 14.925781 8.882812 L 15.011719 8.871094 L 15.183594 8.828125 C 15.328125 8.789062 15.410156 8.757812 15.429688 8.746094 L 15.433594 8.746094 L 15.476562 8.773438 C 15.476562 8.773438 15.460938 8.898438 15.378906 9.035156 Z M 14.085938 9.078125 C 13.855469 9.125 13.730469 9.199219 13.730469 9.199219 C 14.15625 9.257812 14.234375 9.394531 14.804688 9.351562 C 15.375 9.3125 15.445312 8.769531 15.445312 8.769531 C 15.445312 8.769531 15.3125 8.832031 15.019531 8.898438 C 14.722656 8.964844 14.125 8.875 13.949219 8.851562 C 13.769531 8.832031 13.234375 8.792969 13.082031 8.894531 C 12.929688 8.996094 12.964844 9.300781 12.964844 9.300781 C 12.964844 9.300781 13.085938 9.175781 13.386719 9.097656 C 13.6875 9.019531 14.085938 9.078125 14.085938 9.078125 Z M 7.707031 5.097656 L 7.808594 4.945312 L 8.089844 4.558594 C 8.179688 4.433594 8.25 4.3125 8.304688 4.195312 C 8.445312 3.894531 8.472656 3.65625 8.476562 3.628906 L 8.476562 3.625 L 8.507812 3.601562 C 9.929688 3.664062 11.636719 4.292969 13.015625 5.601562 C 13.625 6.183594 14.03125 6.867188 14.289062 7.453125 L 14.261719 7.492188 C 14.007812 7.449219 13.484375 7.390625 12.890625 7.386719 C 12.230469 7.378906 11.433594 7.46875 11.28125 7.488281 L 11.25 7.464844 L 11.25 7.460938 L 11.242188 7.394531 L 11.238281 7.375 L 11.226562 7.320312 L 11.230469 7.316406 C 11.144531 6.675781 10.667969 6.058594 10.066406 5.804688 C 9.851562 5.703125 9.390625 5.550781 8.910156 5.503906 C 8.667969 5.476562 8.410156 5.480469 8.09375 5.515625 C 7.957031 5.527344 7.824219 5.546875 7.695312 5.5625 C 7.601562 5.574219 7.507812 5.585938 7.414062 5.597656 L 7.390625 5.550781 L 7.398438 5.542969 L 7.441406 5.480469 Z M 8.339844 4.191406 L 8.332031 4.210938 C 8.277344 4.324219 8.207031 4.449219 8.113281 4.574219 C 7.980469 4.753906 7.710938 5.125 7.46875 5.496094 C 7.457031 5.507812 7.414062 5.570312 7.414062 5.570312 C 7.503906 5.558594 7.597656 5.546875 7.691406 5.535156 C 7.820312 5.515625 7.953125 5.5 8.089844 5.484375 C 8.40625 5.453125 8.667969 5.449219 8.914062 5.476562 C 9.398438 5.519531 9.859375 5.675781 10.078125 5.777344 C 10.691406 6.035156 11.171875 6.660156 11.257812 7.3125 L 11.257812 7.316406 L 11.265625 7.367188 L 11.269531 7.390625 L 11.277344 7.460938 C 11.429688 7.441406 12.226562 7.351562 12.890625 7.355469 C 13.484375 7.359375 14.011719 7.421875 14.265625 7.464844 C 14.003906 6.882812 13.601562 6.199219 12.996094 5.621094 C 11.621094 4.316406 9.921875 3.695312 8.503906 3.628906 C 8.503906 3.628906 8.488281 3.824219 8.382812 4.089844 Z M 9.195312 17.714844 C 9.191406 17.714844 8.867188 17.542969 8.636719 17.210938 C 8.457031 16.949219 8.441406 16.628906 8.441406 16.503906 L 8.484375 16.476562 C 8.710938 16.609375 8.96875 16.738281 9.125 16.832031 C 9.292969 16.9375 9.429688 17.042969 9.53125 17.128906 L 9.535156 17.164062 C 9.375 17.449219 9.234375 17.703125 9.234375 17.703125 Z M 9.207031 17.6875 C 9.207031 17.6875 9.351562 17.433594 9.511719 17.148438 C 9.410156 17.0625 9.277344 16.960938 9.109375 16.859375 C 8.957031 16.761719 8.699219 16.632812 8.46875 16.503906 C 8.46875 16.625 8.484375 16.941406 8.660156 17.195312 C 8.886719 17.519531 9.207031 17.6875 9.207031 17.6875 Z M 0.980469 13.667969 L 0.972656 13.671875 L 0.9375 13.628906 C 1.453125 13.0625 2.488281 12.050781 3.335938 11.480469 C 5.890625 9.757812 8.003906 9.476562 8.160156 9.445312 L 8.183594 9.453125 L 8.230469 9.492188 L 8.238281 9.5 C 8.257812 9.53125 8.28125 9.5625 8.304688 9.59375 L 8.289062 9.636719 C 7.222656 9.929688 4.949219 10.894531 3.625 11.828125 C 3.050781 12.226562 2.425781 12.863281 2.046875 13.257812 L 2.03125 13.265625 C 1.847656 13.320312 1.636719 13.398438 1.445312 13.476562 Z M 8.28125 9.609375 C 8.257812 9.578125 8.234375 9.546875 8.214844 9.515625 L 8.167969 9.472656 C 8.007812 9.507812 5.902344 9.785156 3.351562 11.503906 C 2.507812 12.074219 1.472656 13.082031 0.960938 13.648438 C 1.179688 13.550781 1.652344 13.351562 2.023438 13.238281 C 2.40625 12.84375 3.03125 12.207031 3.605469 11.804688 C 4.9375 10.867188 7.210938 9.902344 8.28125 9.609375 Z M 13.507812 13.667969 L 13.496094 13.691406 C 13.445312 13.792969 13.421875 13.859375 13.421875 13.859375 L 13.367188 13.84375 C 13.472656 13.117188 13.800781 12.53125 14.035156 12.191406 L 14.15625 12.023438 L 14.117188 12.050781 C 13.675781 12.398438 13.351562 13.011719 13.164062 14.210938 L 13.117188 14.496094 C 12.867188 15.859375 12.46875 16.394531 12.464844 16.394531 L 12.414062 16.371094 L 12.460938 16.214844 L 12.464844 16.210938 L 12.523438 15.914062 C 12.644531 15.257812 12.640625 14.84375 12.773438 13.945312 C 12.871094 13.304688 13.082031 12.816406 13.226562 12.542969 L 13.289062 12.433594 L 13.226562 12.492188 C 12.796875 12.925781 12.554688 13.695312 12.464844 14.765625 C 12.347656 16.121094 12.023438 16.601562 12.019531 16.605469 L 11.96875 16.582031 C 12.164062 15.914062 12.078125 15.167969 12.109375 14.664062 C 12.140625 14.164062 12.164062 13.476562 12.445312 12.828125 C 12.695312 12.257812 13.226562 11.707031 13.816406 11.367188 L 14.074219 11.234375 L 14.203125 11.179688 C 14.832031 10.9375 15.320312 11.074219 15.320312 11.074219 L 15.332031 11.082031 C 15.699219 11.425781 15.726562 11.792969 15.726562 11.796875 L 15.703125 11.824219 L 15.679688 11.832031 C 15.578125 11.859375 15.179688 11.984375 14.695312 12.269531 L 14.484375 12.402344 L 14.394531 12.464844 C 14.066406 12.71875 13.804688 13.117188 13.632812 13.425781 Z M 13.425781 13.667969 L 13.394531 13.847656 C 13.394531 13.847656 13.8125 12.8125 14.46875 12.378906 C 15.128906 11.941406 15.695312 11.796875 15.695312 11.796875 C 15.695312 11.796875 15.671875 11.441406 15.3125 11.101562 C 15.3125 11.101562 14.769531 10.949219 14.085938 11.261719 C 13.402344 11.574219 12.75 12.195312 12.472656 12.839844 C 12.191406 13.484375 12.167969 14.164062 12.136719 14.667969 C 12.109375 15.167969 12.191406 15.914062 11.996094 16.589844 C 11.996094 16.589844 12.316406 16.113281 12.433594 14.761719 C 12.539062 13.539062 12.84375 12.699219 13.402344 12.304688 C 13.402344 12.304688 12.953125 12.925781 12.800781 13.949219 C 12.648438 14.972656 12.679688 15.371094 12.492188 16.21875 L 12.445312 16.378906 C 12.445312 16.378906 12.890625 15.777344 13.136719 14.207031 C 13.347656 12.832031 13.75 12.21875 14.300781 11.894531 C 14.300781 11.894531 13.652344 12.601562 13.433594 13.636719 Z M 13.425781 13.667969 "/>
<path style=" stroke:none;fill-rule:nonzero;fill:rgb(97.254902%,79.215686%,87.058824%);fill-opacity:1;" d="M 11.117188 13.667969 L 11.164062 13.710938 C 11.320312 13.828125 11.503906 13.902344 11.742188 13.902344 C 11.804688 13.902344 11.882812 13.898438 11.964844 13.898438 L 11.992188 13.929688 C 11.957031 14.160156 11.9375 14.40625 11.929688 14.589844 L 11.910156 14.613281 C 11.816406 14.644531 11.730469 14.675781 11.664062 14.703125 C 11.449219 14.792969 11.140625 14.945312 10.886719 15.074219 L 10.433594 15.308594 L 10.433594 15.3125 L 10.40625 15.324219 L 10.363281 15.304688 C 10.304688 14.90625 10.183594 14.570312 10.15625 14.492188 L 10.148438 14.476562 L 10.148438 14.457031 C 10.148438 14.457031 10.167969 14.410156 10.191406 14.332031 C 10.257812 14.128906 10.371094 13.71875 10.347656 13.394531 L 10.328125 13.261719 L 10.277344 13.0625 C 10.148438 12.621094 9.984375 12.378906 9.964844 12.347656 L 9.960938 12.34375 L 9.964844 12.308594 L 10.039062 12.226562 L 10.082031 12.230469 C 10.207031 12.402344 10.410156 12.425781 10.460938 12.429688 L 10.46875 12.433594 L 10.496094 12.453125 L 10.503906 12.480469 C 10.527344 12.585938 10.632812 12.976562 10.777344 13.246094 L 10.839844 13.355469 L 10.917969 13.464844 C 10.96875 13.523438 11.019531 13.582031 11.078125 13.636719 Z M 11.90625 14.519531 L 11.921875 14.277344 C 11.933594 14.160156 11.945312 14.042969 11.964844 13.925781 C 11.882812 13.929688 11.804688 13.929688 11.742188 13.929688 C 11.296875 13.929688 11.023438 13.671875 10.816406 13.371094 C 10.609375 13.066406 10.46875 12.460938 10.46875 12.460938 C 10.46875 12.460938 10.210938 12.453125 10.058594 12.246094 L 9.984375 12.324219 C 9.984375 12.324219 10.214844 12.648438 10.355469 13.253906 C 10.464844 13.714844 10.175781 14.464844 10.175781 14.464844 C 10.175781 14.464844 10.324219 14.84375 10.390625 15.300781 L 10.417969 15.285156 C 10.417969 15.285156 11.21875 14.859375 11.652344 14.679688 C 11.71875 14.648438 11.804688 14.617188 11.902344 14.585938 Z M 15.21875 13.890625 C 15.378906 13.898438 15.535156 13.890625 15.601562 13.882812 L 15.632812 13.882812 L 15.652344 13.933594 C 15.574219 13.996094 15.394531 13.984375 15.304688 13.996094 C 15.207031 14.011719 14.613281 14.03125 13.886719 14.140625 C 13.753906 14.160156 13.613281 14.183594 13.464844 14.214844 L 13.429688 14.175781 C 13.476562 14.050781 13.519531 13.957031 13.574219 13.871094 L 13.601562 13.859375 L 13.605469 13.859375 C 14.140625 13.859375 15 13.886719 15.21875 13.890625 Z M 15.214844 13.921875 C 15 13.914062 14.140625 13.886719 13.605469 13.886719 L 13.601562 13.886719 C 13.546875 13.972656 13.503906 14.058594 13.457031 14.1875 C 13.605469 14.15625 13.75 14.128906 13.882812 14.109375 C 14.609375 14 15.207031 13.980469 15.300781 13.96875 C 15.398438 13.957031 15.574219 13.960938 15.636719 13.910156 C 15.636719 13.910156 15.433594 13.925781 15.214844 13.921875 Z M 15.792969 13.667969 L 15.773438 13.71875 C 15.761719 13.738281 15.75 13.753906 15.734375 13.765625 C 15.675781 13.808594 15.601562 13.800781 15.558594 13.800781 C 15.492188 13.796875 15.335938 13.792969 15.09375 13.773438 L 14.832031 13.746094 C 14.636719 13.722656 14.367188 13.707031 14.148438 13.699219 C 13.925781 13.6875 13.753906 13.683594 13.753906 13.683594 L 13.726562 13.644531 C 14.0625 12.710938 15.226562 12.210938 15.226562 12.210938 L 15.265625 12.234375 C 15.28125 12.445312 15.171875 12.769531 15.117188 12.917969 L 15.101562 12.960938 L 15.210938 12.960938 C 15.296875 12.964844 15.402344 12.976562 15.484375 13.007812 C 15.640625 13.070312 15.738281 13.140625 15.796875 13.464844 C 15.8125 13.546875 15.8125 13.609375 15.800781 13.65625 Z M 14.152344 13.667969 L 14.5 13.6875 C 14.621094 13.695312 14.738281 13.707031 14.832031 13.71875 C 15.21875 13.765625 15.472656 13.765625 15.558594 13.769531 C 15.601562 13.773438 15.667969 13.777344 15.71875 13.742188 C 15.765625 13.703125 15.796875 13.628906 15.769531 13.46875 C 15.710938 13.152344 15.625 13.097656 15.472656 13.035156 C 15.320312 12.972656 15.058594 12.988281 15.058594 12.988281 C 15.058594 12.988281 15.257812 12.503906 15.238281 12.238281 C 15.238281 12.238281 14.085938 12.734375 13.753906 13.652344 C 13.753906 13.652344 13.925781 13.660156 14.148438 13.667969 Z M 14.152344 13.667969 "/>
<path style=" stroke:none;fill-rule:nonzero;fill:rgb(100%,77.254902%,18.431373%);fill-opacity:1;" d="M 9.273438 16.722656 L 9.152344 16.644531 L 9.140625 16.617188 C 9.292969 16.003906 9.648438 15.230469 9.796875 15.027344 C 9.839844 14.96875 9.917969 14.847656 9.964844 14.769531 L 10.015625 14.769531 C 10.0625 14.859375 10.191406 15.085938 10.226562 15.371094 C 10.28125 15.789062 10.117188 16.242188 9.90625 16.625 C 9.847656 16.734375 9.707031 16.863281 9.636719 16.988281 L 9.589844 16.992188 C 9.5625 16.960938 9.523438 16.925781 9.472656 16.878906 Z M 9.992188 14.785156 C 9.941406 14.863281 9.863281 14.984375 9.820312 15.046875 C 9.675781 15.242188 9.320312 16.015625 9.167969 16.621094 C 9.214844 16.652344 9.253906 16.675781 9.289062 16.699219 C 9.457031 16.816406 9.554688 16.910156 9.609375 16.972656 C 9.683594 16.84375 9.824219 16.714844 9.882812 16.609375 C 10.089844 16.230469 10.25 15.785156 10.199219 15.375 C 10.164062 15.097656 10.039062 14.871094 9.992188 14.785156 Z M 9.394531 17.625 C 9.578125 17.289062 9.84375 16.933594 9.84375 16.933594 L 9.894531 16.941406 C 9.894531 16.945312 10.019531 17.332031 9.957031 17.71875 L 9.921875 17.882812 L 9.859375 18.039062 C 9.707031 18.394531 9.449219 18.679688 9.449219 18.679688 L 9.402344 18.679688 L 9.398438 18.667969 C 9.375 18.636719 9.292969 18.53125 9.214844 18.453125 L 9.136719 18.386719 L 9.101562 18.367188 L 9.089844 18.332031 C 9.148438 18.167969 9.265625 17.859375 9.394531 17.625 Z M 9.417969 17.640625 C 9.289062 17.871094 9.175781 18.175781 9.117188 18.339844 L 9.152344 18.363281 C 9.273438 18.445312 9.425781 18.660156 9.425781 18.660156 C 9.425781 18.660156 9.757812 18.292969 9.894531 17.871094 C 10.027344 17.453125 9.867188 16.953125 9.867188 16.953125 C 9.867188 16.953125 9.605469 17.308594 9.417969 17.640625 Z M 8.09375 13.890625 C 8.226562 13.363281 8.585938 12.9375 8.671875 12.871094 C 8.671875 12.871094 8.113281 13.621094 8.273438 14.800781 C 8.273438 14.800781 8.429688 13.832031 9.152344 12.886719 C 9.878906 11.9375 10.574219 11.496094 11.152344 10.789062 C 11.472656 10.394531 11.65625 10.019531 11.765625 9.679688 C 11.851562 9.425781 11.890625 9.175781 11.910156 8.996094 C 11.753906 9.007812 11.605469 9.027344 11.457031 9.042969 L 11.453125 9.058594 C 11.300781 9.5625 11.011719 9.925781 10.546875 10.140625 C 9.941406 10.757812 9.042969 11.1875 8.539062 11.511719 C 7.648438 12.082031 7.503906 13.207031 7.503906 13.207031 C 7.601562 11.480469 8.65625 11.257812 9.8125 10.40625 L 9.917969 10.339844 L 9.882812 10.351562 C 9.738281 10.351562 9.441406 10.328125 9.308594 10.292969 C 9.179688 10.382812 9.058594 10.457031 8.945312 10.519531 C 8.339844 10.851562 7.921875 11.390625 7.921875 11.390625 C 8.085938 10.84375 8.46875 10.613281 9.039062 10.207031 C 8.824219 10.121094 8.585938 9.96875 8.421875 9.804688 C 8.082031 9.980469 7.335938 10.433594 6.839844 10.90625 C 6.445312 11.28125 5.707031 11.816406 4.835938 12.226562 C 5.519531 11.773438 6.675781 10.753906 7.078125 10.367188 C 7.078125 10.367188 5.5625 11.246094 5.128906 11.542969 C 5.128906 11.542969 5.691406 10.917969 6.390625 10.53125 C 6.390625 10.53125 4.847656 11.164062 3.957031 11.773438 C 3.5 12.089844 2.792969 12.730469 2.386719 13.167969 C 2.554688 13.128906 3.1875 13.003906 3.359375 12.984375 C 4.5 12.867188 5.75 12.957031 6.84375 11.636719 L 6.894531 11.574219 C 6.800781 11.898438 6.757812 12.355469 6.777344 12.867188 C 6.816406 13.96875 7.671875 14.40625 8 14.636719 C 7.992188 14.5 7.972656 14.367188 8.09375 13.890625 M 5.542969 12.898438 L 5.523438 12.902344 C 5.523438 12.902344 5.84375 13.070312 6.113281 13.070312 C 6.382812 13.070312 6.601562 12.984375 6.601562 12.984375 C 6.601562 12.984375 6.558594 12.351562 6.617188 12.144531 C 6.617188 12.144531 6.109375 12.757812 5.542969 12.898438 "/>
<path style=" stroke:none;fill-rule:nonzero;fill:rgb(100%,100%,100%);fill-opacity:1;" d="M 8.207031 8.167969 L 8.207031 8.164062 C 8.207031 8.164062 8.753906 8.328125 9.085938 8.582031 C 9.085938 8.582031 8.726562 8.511719 8.359375 8.464844 C 8.625 8.859375 9.070312 9.117188 9.582031 9.117188 C 9.96875 9.117188 10.316406 8.96875 10.582031 8.726562 C 10.519531 8.769531 10.460938 8.804688 10.414062 8.824219 C 10.285156 8.886719 10.164062 8.90625 10.070312 8.914062 C 9.859375 8.980469 9.648438 8.953125 9.59375 8.941406 L 9.605469 8.941406 C 10.238281 8.832031 10.832031 8.34375 10.761719 7.605469 C 10.734375 7.289062 10.636719 6.949219 10.441406 6.738281 C 10.6875 6.949219 10.855469 7.253906 10.886719 7.601562 C 10.902344 7.773438 10.882812 7.941406 10.835938 8.097656 C 10.917969 7.921875 10.964844 7.730469 10.964844 7.527344 C 11.011719 7.742188 10.996094 7.929688 10.945312 8.089844 C 11.007812 7.933594 11.042969 7.761719 11.046875 7.582031 L 11.054688 7.644531 L 11.054688 7.640625 C 11.054688 7.53125 11.042969 7.429688 11.023438 7.328125 L 11.023438 7.3125 C 10.9375 6.761719 10.535156 6.234375 10.019531 6.003906 C 9.867188 5.921875 9.398438 5.75 8.890625 5.703125 C 8.660156 5.679688 8.414062 5.679688 8.113281 5.710938 C 7.980469 5.726562 7.847656 5.742188 7.71875 5.761719 C 7.03125 5.847656 6.382812 5.933594 5.683594 5.539062 C 4.824219 5.105469 4.183594 4.128906 4.0625 3.0625 L 4.050781 2.945312 C 4.03125 2.796875 4.027344 2.640625 4.015625 2.492188 C 4.003906 2.359375 3.980469 2.285156 3.976562 2.304688 L 3.980469 2.335938 C 3.980469 2.449219 3.953125 2.5625 3.933594 2.671875 C 3.914062 2.804688 3.886719 3.058594 3.886719 3.050781 L 3.878906 3.019531 C 3.871094 2.980469 3.871094 2.945312 3.871094 2.90625 C 3.871094 2.832031 3.867188 2.757812 3.863281 2.683594 C 3.855469 2.496094 3.824219 1.949219 3.808594 1.882812 C 3.804688 1.863281 3.796875 1.800781 3.78125 1.789062 C 3.78125 1.855469 3.777344 1.917969 3.777344 1.984375 C 3.769531 2.152344 3.730469 2.347656 3.714844 2.515625 C 3.699219 2.683594 3.667969 2.847656 3.644531 3.011719 C 3.636719 3.058594 3.628906 3.152344 3.625 3.136719 L 3.625 3.125 C 3.617188 3.023438 3.589844 2.695312 3.59375 2.324219 L 3.59375 2.246094 L 3.585938 2.289062 C 3.523438 2.648438 3.453125 3.148438 3.445312 3.683594 L 3.445312 3.769531 C 3.441406 3.9375 3.449219 4.632812 3.746094 5.398438 C 4.199219 6.566406 5.082031 7.339844 6.359375 7.703125 C 6.996094 7.882812 7.707031 8.015625 8.207031 8.167969 "/>
<path style=" stroke:none;fill-rule:nonzero;fill:rgb(100%,77.254902%,18.431373%);fill-opacity:1;" d="M 9.214844 15.714844 C 9.058594 15.597656 8.617188 15.265625 8.347656 15.117188 C 8.015625 14.929688 7.652344 14.726562 7.511719 14.601562 C 7.511719 14.601562 7.507812 15.1875 7.792969 15.632812 C 8.003906 15.964844 8.585938 16.269531 8.964844 16.496094 C 9 16.375 9.085938 16.058594 9.214844 15.714844 M 8.503906 14.980469 C 8.78125 15.152344 9.113281 15.359375 9.296875 15.503906 C 9.339844 15.398438 9.386719 15.292969 9.4375 15.191406 C 9.730469 14.609375 10.019531 14.402344 10.132812 13.796875 C 10.25 13.191406 9.960938 12.726562 9.742188 12.5 C 9.742188 12.5 9.085938 13.222656 8.828125 13.808594 C 8.597656 14.332031 8.515625 14.753906 8.503906 14.980469 M 7.234375 8.148438 L 7.082031 8.109375 C 6.976562 8.082031 6.871094 8.058594 6.765625 8.03125 C 6.648438 8.003906 6.535156 7.980469 6.417969 7.949219 L 6.402344 8.035156 C 6.386719 8.140625 6.371094 8.242188 6.359375 8.347656 C 6.621094 8.28125 6.929688 8.207031 7.230469 8.152344 L 7.25 8.152344 L 7.234375 8.148438 "/>
<path style=" stroke:none;fill-rule:nonzero;fill:rgb(100%,100%,100%);fill-opacity:1;" d="M 7.980469 4.328125 C 7.011719 3.726562 6.769531 3.15625 6.621094 2.335938 C 6.597656 2.207031 6.566406 2.082031 6.53125 1.960938 C 6.558594 2.269531 6.535156 2.5625 6.535156 2.5625 C 6.496094 2.261719 6.3125 1.738281 6.3125 1.738281 C 6.386719 2.074219 6.402344 2.617188 6.402344 2.617188 C 6.382812 2.425781 6.300781 2.128906 6.234375 1.917969 C 6.257812 2.070312 6.277344 2.210938 6.292969 2.328125 C 6.339844 2.730469 6.246094 3.453125 6.53125 4.207031 C 6.714844 4.699219 7.117188 5.054688 7.355469 5.238281 C 7.554688 4.957031 7.808594 4.59375 7.980469 4.328125 "/>
<path style=" stroke:none;fill-rule:nonzero;fill:rgb(30.980392%,14.901961%,50.980392%);fill-opacity:1;" d="M 11.289062 7.660156 L 11.289062 7.664062 C 11.285156 7.691406 11.285156 7.71875 11.285156 7.746094 L 11.285156 7.75 C 11.28125 7.777344 11.28125 7.804688 11.277344 7.832031 C 11.246094 8.089844 11.164062 8.328125 11.035156 8.535156 C 11.019531 8.558594 11.003906 8.582031 10.988281 8.605469 L 10.941406 8.671875 L 10.941406 8.675781 L 10.890625 8.734375 L 10.886719 8.738281 L 10.835938 8.796875 L 10.832031 8.800781 L 10.78125 8.855469 L 10.773438 8.863281 L 10.722656 8.910156 L 10.710938 8.917969 L 10.660156 8.964844 L 10.648438 8.972656 L 10.597656 9.015625 L 10.582031 9.023438 L 10.53125 9.0625 L 10.511719 9.074219 L 10.460938 9.105469 L 10.441406 9.117188 L 10.390625 9.144531 L 10.367188 9.160156 L 10.316406 9.183594 L 10.289062 9.195312 L 10.242188 9.21875 L 10.210938 9.230469 L 10.128906 9.257812 L 10.085938 9.273438 L 10.046875 9.285156 L 10.003906 9.296875 L 9.964844 9.308594 L 9.925781 9.316406 L 9.878906 9.324219 L 9.839844 9.332031 L 9.792969 9.335938 L 9.753906 9.34375 L 9.695312 9.347656 L 9.667969 9.347656 C 9.640625 9.351562 9.609375 9.351562 9.582031 9.351562 C 8.917969 9.351562 8.3125 8.957031 8.035156 8.359375 C 7.949219 8.335938 7.859375 8.308594 7.769531 8.285156 C 7.609375 8.304688 7.441406 8.328125 7.265625 8.359375 C 6.941406 8.417969 6.605469 8.496094 6.328125 8.570312 C 6.316406 8.714844 6.296875 8.949219 6.296875 8.96875 C 6.257812 9.792969 6.308594 9.734375 6.308594 9.734375 C 6.546875 9.640625 7.425781 9.414062 7.425781 9.414062 C 7.683594 9.355469 7.988281 9.289062 8.347656 9.222656 C 8.601562 9.734375 9.121094 10.082031 9.726562 10.082031 C 10.484375 10.082031 11.109375 9.539062 11.242188 8.816406 C 12.894531 8.636719 13.675781 8.632812 14.695312 8.769531 L 14.691406 8.761719 L 14.679688 8.695312 L 14.671875 8.660156 L 14.667969 8.644531 L 14.65625 8.585938 L 14.644531 8.539062 L 14.640625 8.515625 L 14.628906 8.464844 L 14.621094 8.441406 L 14.605469 8.382812 L 14.597656 8.355469 L 14.582031 8.292969 L 14.574219 8.265625 L 14.554688 8.199219 L 14.546875 8.167969 L 14.523438 8.09375 L 14.511719 8.066406 L 14.484375 7.980469 L 14.476562 7.957031 L 14.441406 7.859375 L 14.4375 7.84375 C 14.417969 7.792969 14.398438 7.742188 14.378906 7.691406 C 14.195312 7.65625 13.613281 7.570312 12.890625 7.566406 C 12.234375 7.558594 11.445312 7.644531 11.289062 7.660156 "/>
<path style=" stroke:none;fill-rule:nonzero;fill:rgb(92.941176%,73.72549%,63.529412%);fill-opacity:1;" d="M 13.910156 9.703125 C 13.960938 9.761719 14.054688 9.894531 14.058594 9.941406 L 14.058594 9.976562 L 14.054688 9.988281 L 14.054688 9.992188 C 14.050781 10.0625 14.015625 10.390625 13.941406 10.484375 C 13.929688 10.5 13.917969 10.519531 13.902344 10.535156 C 13.8125 10.617188 13.660156 10.695312 13.375 10.894531 C 13.058594 11.113281 12.808594 11.5625 12.808594 11.5625 C 12.808594 11.5625 12.898438 11.136719 13.09375 10.894531 C 13.335938 10.59375 13.652344 10.394531 13.847656 10.292969 L 13.933594 9.898438 C 13.867188 9.855469 13.78125 9.808594 13.703125 9.792969 C 13.53125 9.765625 13.246094 9.769531 13.070312 9.710938 L 13.074219 9.707031 C 13.285156 9.683594 13.40625 9.621094 13.714844 9.570312 C 14.027344 9.519531 14.265625 9.609375 14.265625 9.609375 C 14.058594 9.621094 13.910156 9.703125 13.910156 9.703125 M 14.921875 9.53125 C 14.625 9.652344 13.929688 9.441406 13.5 9.410156 C 13.066406 9.378906 12.761719 9.582031 12.761719 9.582031 C 12.644531 9.285156 12.78125 8.882812 12.78125 8.882812 C 12.691406 8.882812 12.363281 8.921875 12.273438 8.929688 C 12.269531 8.933594 12.238281 8.9375 12.1875 8.945312 L 12.1875 8.972656 C 12.1875 8.972656 12.050781 10.027344 11.554688 10.714844 C 11.683594 10.789062 12.011719 10.886719 12.128906 10.992188 C 12.34375 11.191406 12.355469 11.472656 12.34375 11.585938 C 12.335938 11.699219 12.316406 11.898438 12.214844 12.296875 C 12.214844 12.296875 12.191406 11.726562 12.136719 11.558594 C 12.085938 11.386719 11.894531 11.234375 11.710938 11.175781 C 11.628906 11.152344 11.476562 11.109375 11.308594 11.070312 C 10.980469 11.449219 10.648438 11.707031 10.335938 11.984375 C 10.371094 12.039062 10.417969 12.082031 10.480469 12.097656 C 10.667969 12.144531 10.90625 12.035156 10.90625 12.035156 C 10.90625 12.035156 10.753906 12.730469 11.152344 13.324219 C 11.449219 13.769531 12.027344 13.65625 12.027344 13.65625 C 12.027344 13.65625 12.148438 12.78125 12.695312 12.078125 C 13.195312 11.429688 13.808594 11.097656 14.234375 10.96875 C 14.21875 10.890625 14.191406 10.726562 14.222656 10.648438 C 14.265625 10.539062 14.382812 10.441406 14.523438 10.441406 C 14.667969 10.441406 14.832031 10.519531 14.832031 10.519531 C 14.753906 10.503906 14.554688 10.492188 14.453125 10.601562 C 14.375 10.683594 14.410156 10.851562 14.429688 10.921875 C 14.824219 10.851562 15.1875 10.898438 15.253906 10.917969 C 15.328125 10.9375 15.398438 10.921875 15.421875 10.832031 C 15.449219 10.738281 15.449219 10.625 15.398438 10.589844 C 15.347656 10.550781 15.269531 10.539062 15.1875 10.476562 C 15.105469 10.414062 15.039062 10.265625 15.046875 10.046875 C 15.050781 9.832031 14.921875 9.53125 14.921875 9.53125 "/>
<path style=" stroke:none;fill-rule:nonzero;fill:rgb(100%,77.254902%,18.431373%);fill-opacity:1;" d="M 13.082031 8.894531 C 12.929688 8.996094 12.964844 9.300781 12.964844 9.300781 C 12.964844 9.300781 13.085938 9.175781 13.386719 9.097656 C 13.6875 9.019531 14.085938 9.078125 14.085938 9.078125 C 13.855469 9.125 13.730469 9.199219 13.730469 9.199219 C 14.15625 9.257812 14.234375 9.394531 14.804688 9.351562 C 15.375 9.3125 15.445312 8.769531 15.445312 8.769531 C 15.445312 8.769531 15.3125 8.832031 15.019531 8.898438 C 14.722656 8.964844 14.125 8.875 13.949219 8.851562 C 13.769531 8.832031 13.234375 8.792969 13.082031 8.894531 M 7.414062 5.570312 C 7.503906 5.558594 7.597656 5.546875 7.691406 5.535156 C 7.820312 5.515625 7.953125 5.5 8.089844 5.484375 C 8.40625 5.453125 8.667969 5.449219 8.914062 5.476562 C 9.398438 5.519531 9.859375 5.675781 10.078125 5.777344 C 10.691406 6.035156 11.171875 6.660156 11.257812 7.3125 L 11.257812 7.316406 L 11.265625 7.367188 L 11.269531 7.390625 L 11.277344 7.460938 C 11.429688 7.441406 12.226562 7.351562 12.890625 7.355469 C 13.484375 7.359375 14.011719 7.421875 14.265625 7.464844 C 14.003906 6.882812 13.601562 6.199219 12.996094 5.625 C 11.621094 4.316406 9.921875 3.695312 8.503906 3.628906 C 8.503906 3.628906 8.484375 3.882812 8.332031 4.210938 C 8.277344 4.324219 8.207031 4.449219 8.113281 4.574219 C 7.980469 4.753906 7.710938 5.125 7.464844 5.496094 C 7.457031 5.511719 7.414062 5.570312 7.414062 5.570312 M 9.207031 17.6875 C 9.207031 17.6875 9.351562 17.433594 9.511719 17.148438 C 9.410156 17.0625 9.277344 16.960938 9.109375 16.859375 C 8.957031 16.761719 8.699219 16.632812 8.46875 16.503906 C 8.46875 16.625 8.484375 16.941406 8.660156 17.195312 C 8.886719 17.519531 9.207031 17.6875 9.207031 17.6875 M 8.28125 9.609375 C 8.257812 9.578125 8.234375 9.546875 8.214844 9.515625 L 8.167969 9.472656 C 8.007812 9.507812 5.902344 9.785156 3.351562 11.503906 C 2.507812 12.074219 1.472656 13.082031 0.960938 13.648438 C 1.179688 13.550781 1.652344 13.351562 2.023438 13.238281 C 2.40625 12.84375 3.03125 12.207031 3.605469 11.804688 C 4.9375 10.867188 7.210938 9.902344 8.28125 9.609375 M 14.46875 12.378906 C 15.128906 11.941406 15.695312 11.796875 15.695312 11.796875 C 15.695312 11.796875 15.671875 11.441406 15.3125 11.101562 C 15.3125 11.101562 14.769531 10.949219 14.085938 11.261719 C 13.402344 11.574219 12.753906 12.195312 12.472656 12.839844 C 12.191406 13.484375 12.167969 14.164062 12.140625 14.664062 C 12.109375 15.167969 12.191406 15.914062 11.996094 16.589844 C 11.996094 16.589844 12.316406 16.113281 12.433594 14.761719 C 12.539062 13.539062 12.84375 12.695312 13.402344 12.304688 C 13.402344 12.304688 12.953125 12.925781 12.800781 13.949219 C 12.648438 14.972656 12.679688 15.371094 12.492188 16.21875 L 12.445312 16.378906 C 12.445312 16.378906 12.894531 15.777344 13.136719 14.207031 C 13.347656 12.832031 13.75 12.214844 14.300781 11.894531 C 14.300781 11.894531 13.5625 12.699219 13.394531 13.847656 C 13.394531 13.847656 13.8125 12.8125 14.46875 12.378906 "/>
<path style=" stroke:none;fill-rule:nonzero;fill:rgb(92.941176%,73.72549%,63.529412%);fill-opacity:1;" d="M 10.816406 13.371094 C 10.609375 13.066406 10.46875 12.460938 10.46875 12.460938 C 10.46875 12.460938 10.210938 12.453125 10.058594 12.246094 L 9.984375 12.328125 C 9.984375 12.328125 10.214844 12.648438 10.355469 13.253906 C 10.464844 13.714844 10.175781 14.464844 10.175781 14.464844 C 10.175781 14.464844 10.324219 14.84375 10.390625 15.300781 L 10.417969 15.285156 C 10.417969 15.285156 11.21875 14.859375 11.652344 14.679688 C 11.71875 14.648438 11.804688 14.617188 11.902344 14.585938 C 11.910156 14.40625 11.929688 14.15625 11.964844 13.925781 C 11.882812 13.929688 11.804688 13.929688 11.742188 13.929688 C 11.296875 13.929688 11.023438 13.671875 10.816406 13.371094 M 15.214844 13.921875 C 15 13.914062 14.140625 13.886719 13.605469 13.886719 L 13.601562 13.886719 C 13.546875 13.972656 13.503906 14.058594 13.457031 14.1875 C 13.605469 14.15625 13.75 14.128906 13.882812 14.109375 C 14.609375 14 15.207031 13.980469 15.300781 13.96875 C 15.398438 13.957031 15.574219 13.960938 15.636719 13.910156 C 15.636719 13.910156 15.433594 13.925781 15.214844 13.921875 "/>
<path style=" stroke:none;fill-rule:nonzero;fill:rgb(100%,77.254902%,18.431373%);fill-opacity:1;" d="M 8.730469 18.003906 C 8.769531 18.144531 8.875 18.214844 8.976562 18.269531 C 9.042969 18.058594 9.128906 17.828125 9.128906 17.828125 C 8.972656 17.75 8.820312 17.613281 8.820312 17.613281 C 8.761719 17.691406 8.660156 17.777344 8.730469 18.003906 "/>
<path style=" stroke:none;fill-rule:nonzero;fill:rgb(92.941176%,73.72549%,63.529412%);fill-opacity:1;" d="M 15.472656 13.035156 C 15.320312 12.972656 15.058594 12.988281 15.058594 12.988281 C 15.058594 12.988281 15.257812 12.503906 15.238281 12.238281 C 15.238281 12.238281 14.085938 12.734375 13.753906 13.652344 C 13.753906 13.652344 14.445312 13.671875 14.832031 13.71875 C 15.21875 13.765625 15.472656 13.765625 15.558594 13.769531 C 15.644531 13.777344 15.824219 13.785156 15.769531 13.46875 C 15.710938 13.152344 15.625 13.097656 15.472656 13.035156 "/>
<path style=" stroke:none;fill-rule:nonzero;fill:rgb(100%,77.254902%,18.431373%);fill-opacity:1;" d="M 8.640625 19.324219 C 8.546875 19.4375 8.507812 19.664062 8.566406 19.730469 C 8.621094 19.800781 8.703125 19.792969 8.753906 19.734375 C 8.800781 19.679688 8.816406 19.589844 8.746094 19.496094 C 8.691406 19.417969 8.640625 19.324219 8.640625 19.324219 M 9.992188 14.785156 C 9.941406 14.863281 9.863281 14.984375 9.820312 15.046875 C 9.675781 15.242188 9.320312 16.015625 9.167969 16.621094 C 9.214844 16.652344 9.253906 16.675781 9.289062 16.699219 C 9.457031 16.816406 9.554688 16.910156 9.609375 16.972656 C 9.683594 16.84375 9.824219 16.714844 9.882812 16.609375 C 10.089844 16.230469 10.25 15.785156 10.199219 15.375 C 10.164062 15.097656 10.039062 14.871094 9.992188 14.785156 M 8.878906 18.96875 C 8.757812 18.886719 8.679688 18.796875 8.679688 18.796875 C 8.519531 19.074219 8.59375 19.136719 8.816406 19.304688 C 8.96875 19.414062 8.941406 19.5625 8.941406 19.5625 C 8.941406 19.5625 9.148438 19.457031 9.136719 19.324219 C 9.125 19.234375 9 19.050781 8.878906 18.96875 M 9.417969 17.640625 C 9.289062 17.871094 9.175781 18.175781 9.117188 18.339844 L 9.152344 18.363281 C 9.273438 18.445312 9.425781 18.660156 9.425781 18.660156 C 9.425781 18.660156 9.757812 18.292969 9.894531 17.871094 C 10.027344 17.453125 9.867188 16.953125 9.867188 16.953125 C 9.867188 16.953125 9.605469 17.308594 9.417969 17.640625 M 8.988281 18.460938 C 8.824219 18.382812 8.738281 18.273438 8.738281 18.273438 C 8.738281 18.273438 8.636719 18.40625 8.675781 18.5625 C 8.710938 18.722656 8.859375 18.792969 9.015625 18.871094 C 9.171875 18.949219 9.230469 19.109375 9.230469 19.109375 C 9.339844 19.03125 9.394531 18.910156 9.332031 18.78125 C 9.273438 18.652344 9.152344 18.539062 8.988281 18.460938 "/>
<path style=" stroke:none;fill-rule:nonzero;fill:rgb(0%,0%,0.784314%);fill-opacity:1;" d="M 13.714844 9.570312 C 13.40625 9.621094 13.285156 9.683594 13.074219 9.707031 L 13.070312 9.710938 C 13.246094 9.769531 13.53125 9.765625 13.703125 9.792969 C 13.78125 9.808594 13.867188 9.855469 13.933594 9.898438 L 13.847656 10.292969 C 13.652344 10.394531 13.335938 10.59375 13.09375 10.894531 C 12.898438 11.136719 12.808594 11.5625 12.808594 11.5625 C 12.808594 11.5625 13.058594 11.113281 13.375 10.894531 C 13.660156 10.695312 13.8125 10.617188 13.902344 10.535156 C 13.917969 10.519531 13.929688 10.5 13.941406 10.484375 C 14.015625 10.390625 14.050781 10.0625 14.054688 9.992188 L 14.054688 9.988281 L 14.058594 9.976562 L 14.058594 9.941406 C 14.054688 9.894531 13.960938 9.761719 13.910156 9.703125 C 13.910156 9.703125 14.058594 9.621094 14.265625 9.609375 C 14.265625 9.609375 14.027344 9.519531 13.714844 9.570312 "/>
<path style=" stroke:none;fill-rule:nonzero;fill:rgb(97.254902%,79.215686%,87.058824%);fill-opacity:1;" d="M 13.226562 9.714844 L 13.390625 9.734375 C 13.503906 9.742188 13.621094 9.75 13.707031 9.765625 C 13.792969 9.78125 13.882812 9.828125 13.949219 9.875 L 13.960938 9.90625 L 13.875 10.296875 L 13.859375 10.316406 C 13.691406 10.40625 13.429688 10.570312 13.210938 10.808594 L 13.117188 10.914062 L 13.058594 10.996094 C 12.996094 11.097656 12.945312 11.21875 12.910156 11.324219 L 12.890625 11.382812 L 12.914062 11.34375 C 12.996094 11.230469 13.109375 11.082031 13.242188 10.964844 L 13.359375 10.871094 L 13.695312 10.644531 C 13.738281 10.617188 13.773438 10.59375 13.804688 10.574219 L 13.878906 10.515625 L 13.914062 10.46875 L 13.917969 10.464844 C 13.980469 10.386719 14.019531 10.058594 14.027344 9.988281 L 14.027344 9.976562 L 14.03125 9.945312 C 14.027344 9.914062 13.9375 9.78125 13.886719 9.71875 L 13.894531 9.675781 C 13.898438 9.675781 13.9375 9.65625 14 9.632812 L 14.113281 9.601562 L 14.085938 9.597656 C 13.992188 9.582031 13.863281 9.574219 13.722656 9.597656 C 13.488281 9.636719 13.363281 9.679688 13.226562 9.710938 Z M 14.058594 9.941406 L 14.058594 9.976562 L 14.054688 9.988281 L 14.054688 9.992188 C 14.050781 10.0625 14.015625 10.390625 13.941406 10.484375 C 13.929688 10.5 13.917969 10.519531 13.902344 10.535156 C 13.8125 10.617188 13.660156 10.695312 13.375 10.894531 C 13.058594 11.113281 12.808594 11.5625 12.808594 11.5625 C 12.808594 11.5625 12.898438 11.136719 13.09375 10.894531 C 13.335938 10.59375 13.652344 10.394531 13.847656 10.292969 L 13.933594 9.898438 C 13.867188 9.855469 13.78125 9.808594 13.703125 9.792969 C 13.53125 9.765625 13.246094 9.769531 13.070312 9.710938 L 13.074219 9.707031 C 13.285156 9.683594 13.40625 9.621094 13.714844 9.570312 C 14.027344 9.519531 14.265625 9.609375 14.265625 9.609375 C 14.058594 9.621094 13.910156 9.703125 13.910156 9.703125 C 13.960938 9.761719 14.054688 9.894531 14.058594 9.941406 Z M 14.058594 9.941406 "/>
</g>
</svg>
