<?xml version="1.0" encoding="UTF-8"?>
<svg xmlns="http://www.w3.org/2000/svg" xmlns:xlink="http://www.w3.org/1999/xlink" width="15pt" height="20pt" viewBox="0 0 15 20" version="1.1">
<g id="surface1">
<path style=" stroke:none;fill-rule:evenodd;fill:rgb(0%,22.745098%,45.098039%);fill-opacity:1;" d="M 0.632812 14.691406 L 0.667969 2.554688 C 3.027344 4.632812 6.625 2.53125 7.5 0.847656 C 9.195312 3.910156 13.40625 3.777344 14.296875 2.519531 L 14.328125 15.0625 C 14.3125 17.816406 9.097656 16.5 7.480469 19.179688 C 5.839844 16.265625 0.738281 17.925781 0.632812 14.691406 Z M 0.632812 14.691406 "/>
<path style=" stroke:none;fill-rule:evenodd;fill:rgb(100%,100%,100%);fill-opacity:1;" d="M 1.234375 14.382812 L 1.265625 8.300781 L 13.699219 8.296875 L 13.730469 14.707031 C 13.738281 17.226562 8.957031 15.972656 7.480469 18.332031 C 5.984375 15.765625 1.257812 17.300781 1.234375 14.382812 Z M 1.234375 14.382812 "/>
<path style=" stroke:none;fill-rule:evenodd;fill:rgb(100%,100%,100%);fill-opacity:1;" d="M 5.875 7.609375 C 6.035156 6.816406 6.261719 6.109375 6.546875 5.484375 L 6.28125 5.339844 L 6.375 5.167969 C 7.023438 5.320312 6.972656 5.414062 7.167969 5.53125 L 7.042969 5.75 L 6.730469 5.609375 C 6.320312 6.265625 6.191406 6.960938 6.0625 7.65625 C 7.757812 7.566406 10.101562 6.214844 8.988281 3.230469 C 8.738281 3.34375 8.5 3.488281 8.289062 3.6875 L 8.507812 3.890625 L 8.351562 4.03125 C 8.191406 3.859375 8.019531 3.707031 7.695312 3.703125 L 7.898438 3.558594 L 8.164062 3.589844 C 8.292969 3.433594 8.511719 3.277344 8.847656 3.117188 C 6.359375 3.101562 5.203125 4.890625 5.875 7.609375 Z M 5.875 7.609375 "/>
<path style=" stroke:none;fill-rule:nonzero;fill:rgb(100%,100%,100%);fill-opacity:1;" d="M 2.695312 5.597656 L 2.132812 5.195312 L 1.570312 5.605469 L 1.777344 4.933594 L 1.21875 4.523438 L 1.910156 4.511719 L 2.125 3.847656 L 2.347656 4.511719 L 3.039062 4.511719 L 2.484375 4.933594 Z M 2.695312 5.597656 "/>
<path style=" stroke:none;fill-rule:nonzero;fill:rgb(100%,100%,100%);fill-opacity:1;" d="M 5.078125 5.597656 L 4.515625 5.195312 L 3.953125 5.605469 L 4.160156 4.933594 L 3.601562 4.523438 L 4.292969 4.511719 L 4.507812 3.847656 L 4.730469 4.511719 L 5.421875 4.511719 L 4.867188 4.933594 Z M 5.078125 5.597656 "/>
<path style=" stroke:none;fill-rule:nonzero;fill:rgb(100%,100%,100%);fill-opacity:1;" d="M 2.695312 7.730469 L 2.132812 7.328125 L 1.570312 7.738281 L 1.777344 7.066406 L 1.21875 6.652344 L 1.910156 6.644531 L 2.125 5.980469 L 2.347656 6.644531 L 3.039062 6.644531 L 2.484375 7.0625 Z M 2.695312 7.730469 "/>
<path style=" stroke:none;fill-rule:nonzero;fill:rgb(100%,100%,100%);fill-opacity:1;" d="M 5.078125 7.730469 L 4.515625 7.328125 L 3.953125 7.738281 L 4.160156 7.066406 L 3.601562 6.652344 L 4.292969 6.644531 L 4.507812 5.980469 L 4.730469 6.644531 L 5.421875 6.644531 L 4.867188 7.0625 Z M 5.078125 7.730469 "/>
<path style=" stroke:none;fill-rule:nonzero;fill:rgb(100%,100%,100%);fill-opacity:1;" d="M 11.039062 5.597656 L 10.472656 5.195312 L 9.910156 5.605469 L 10.117188 4.933594 L 9.558594 4.523438 L 10.25 4.511719 L 10.46875 3.847656 L 10.6875 4.511719 L 11.378906 4.511719 L 10.824219 4.933594 Z M 11.039062 5.597656 "/>
<path style=" stroke:none;fill-rule:nonzero;fill:rgb(100%,100%,100%);fill-opacity:1;" d="M 13.421875 5.597656 L 12.855469 5.195312 L 12.296875 5.605469 L 12.5 4.933594 L 11.941406 4.523438 L 12.632812 4.511719 L 12.851562 3.847656 L 13.070312 4.511719 L 13.765625 4.511719 L 13.207031 4.933594 Z M 13.421875 5.597656 "/>
<path style=" stroke:none;fill-rule:nonzero;fill:rgb(100%,100%,100%);fill-opacity:1;" d="M 11.039062 7.730469 L 10.472656 7.328125 L 9.910156 7.738281 L 10.117188 7.066406 L 9.558594 6.652344 L 10.25 6.644531 L 10.46875 5.980469 L 10.6875 6.644531 L 11.378906 6.644531 L 10.824219 7.0625 Z M 11.039062 7.730469 "/>
<path style=" stroke:none;fill-rule:nonzero;fill:rgb(100%,100%,100%);fill-opacity:1;" d="M 13.421875 7.730469 L 12.855469 7.328125 L 12.296875 7.738281 L 12.5 7.066406 L 11.941406 6.652344 L 12.632812 6.644531 L 12.851562 5.980469 L 13.070312 6.644531 L 13.765625 6.644531 L 13.207031 7.0625 Z M 13.421875 7.730469 "/>
<path style=" stroke:none;fill-rule:evenodd;fill:rgb(0%,22.745098%,45.098039%);fill-opacity:1;" d="M 6.5625 4.867188 C 6.941406 4.988281 7.132812 5.148438 7.308594 5.308594 L 7.464844 5.089844 C 7.273438 4.871094 6.964844 4.773438 6.65625 4.679688 Z M 6.5625 4.867188 "/>
<path style=" stroke:none;fill-rule:evenodd;fill:rgb(0%,22.745098%,45.098039%);fill-opacity:1;" d="M 6.871094 4.472656 C 7.25 4.59375 7.445312 4.753906 7.621094 4.914062 L 7.773438 4.695312 C 7.585938 4.476562 7.277344 4.378906 6.964844 4.285156 Z M 6.871094 4.472656 "/>
<path style=" stroke:none;fill-rule:evenodd;fill:rgb(0%,22.745098%,45.098039%);fill-opacity:1;" d="M 7.292969 4.015625 C 7.671875 4.136719 7.863281 4.296875 8.039062 4.457031 L 8.195312 4.238281 C 8.003906 4.019531 7.695312 3.921875 7.386719 3.828125 Z M 7.292969 4.015625 "/>
<path style=" stroke:none;fill-rule:evenodd;fill:rgb(85.490196%,12.941176%,15.294118%);fill-opacity:1;" d="M 1.988281 8.886719 L 2 9.769531 L 2.46875 9.972656 L 2.5 14.230469 L 1.988281 14.433594 L 1.988281 15.097656 L 3.839844 15.570312 L 3.824219 14.765625 L 3.464844 14.386719 L 3.449219 12.132812 L 4.695312 15.757812 L 5.644531 16.058594 L 5.691406 9.972656 L 6 9.722656 L 6 8.886719 L 4.242188 8.886719 L 4.242188 9.722656 L 4.648438 9.957031 L 4.664062 12.75 L 3.417969 8.871094 Z M 1.988281 8.886719 "/>
<path style=" stroke:none;fill-rule:evenodd;fill:rgb(85.490196%,12.941176%,15.294118%);fill-opacity:1;" d="M 6.359375 15.554688 L 6.375 16.230469 L 8.179688 16.910156 L 8.179688 16.121094 L 7.789062 15.695312 L 7.789062 12.652344 L 8.367188 12.667969 L 8.644531 13.03125 L 9.113281 13.015625 L 9.128906 11.347656 L 8.597656 11.328125 L 8.382812 11.691406 L 7.804688 11.707031 L 7.804688 9.894531 L 8.523438 9.925781 L 8.785156 10.542969 L 9.488281 10.527344 L 9.503906 8.917969 L 6.3125 8.917969 L 6.328125 9.738281 L 6.730469 10.007812 L 6.777344 15.347656 Z M 6.359375 15.554688 "/>
<path style=" stroke:none;fill-rule:evenodd;fill:rgb(85.490196%,12.941176%,15.294118%);fill-opacity:1;" d="M 9.8125 8.902344 L 9.8125 9.753906 L 10.140625 9.941406 L 10.1875 14.78125 L 9.8125 15.222656 L 9.84375 15.949219 L 12.972656 15.050781 L 12.941406 13.046875 L 12.179688 13.03125 L 12.070312 14.230469 L 11.308594 14.480469 L 11.324219 9.992188 L 11.710938 9.675781 L 11.695312 8.886719 Z M 9.8125 8.902344 "/>
</g>
</svg>
