<?xml version="1.0" encoding="UTF-8"?>
<svg xmlns="http://www.w3.org/2000/svg" xmlns:xlink="http://www.w3.org/1999/xlink" width="25pt" height="20pt" viewBox="0 0 25 20" version="1.1">
<g id="surface1">
<path style=" stroke:none;fill-rule:nonzero;fill:rgb(69.803922%,11.764706%,20.784314%);fill-opacity:1;" d="M 24.285156 0.253906 L 20.550781 0.253906 L 20.558594 9.234375 C 20.558594 9.453125 20.503906 10.546875 19.613281 10.546875 C 19.285156 10.546875 19.140625 10.433594 19.050781 10.34375 C 18.773438 10.054688 18.71875 9.5 18.71875 9.3125 L 18.710938 0.253906 L 12.671875 0.253906 L 12.671875 3.914062 L 13.359375 3.914062 C 13.988281 3.914062 14.195312 4.078125 14.257812 4.148438 C 14.316406 4.21875 14.324219 4.308594 14.324219 4.359375 L 14.324219 4.398438 L 14.316406 4.449219 L 14.316406 10.5625 C 14.316406 11.734375 14.695312 12.738281 15.421875 13.464844 C 16.171875 14.222656 17.246094 14.644531 18.449219 14.644531 C 19.339844 14.644531 20.046875 14.429688 20.585938 14.167969 L 20.585938 14.429688 C 20.585938 15.046875 20.566406 15.570312 20.476562 15.683594 C 20.449219 15.707031 20.316406 15.777344 19.691406 15.777344 L 1.785156 15.777344 L 1.785156 19.984375 L 21.046875 19.984375 C 22.457031 19.984375 23.527344 19.566406 24.214844 18.765625 C 24.902344 17.957031 24.992188 16.984375 24.992188 16.484375 C 24.992188 16.359375 25 16.265625 24.992188 16.203125 L 24.992188 0.253906 Z M 1.769531 14.378906 L 6.054688 14.378906 L 6.046875 5.015625 L 6.039062 4.96875 C 6.039062 4.960938 6 4.589844 6.210938 4.351562 C 6.40625 4.132812 6.777344 4.085938 7.050781 4.085938 C 7.347656 4.085938 7.5625 4.15625 7.707031 4.300781 C 7.90625 4.503906 7.949219 4.855469 7.949219 4.976562 L 7.949219 4.996094 L 7.953125 12.054688 L 7.953125 12.027344 C 7.949219 12.132812 7.933594 13.109375 8.574219 13.78125 C 8.945312 14.167969 9.457031 14.378906 10.046875 14.378906 L 13.71875 14.378906 L 13.71875 10.6875 L 12.933594 10.792969 C 12.84375 10.808594 12.554688 10.808594 12.402344 10.671875 C 12.28125 10.5625 12.246094 10.335938 12.246094 10.167969 L 12.246094 3.507812 L 12.246094 3.535156 C 12.246094 3.472656 12.300781 2.054688 11.324219 1.023438 C 10.683594 0.34375 9.773438 0 8.628906 0 C 7.453125 0 6.597656 0.335938 5.992188 0.742188 L 5.992188 0.257812 L 0 0.257812 L 0 4.089844 L 0.832031 3.910156 C 1 3.875 1.40625 3.851562 1.589844 4.027344 C 1.730469 4.15625 1.769531 4.398438 1.769531 4.625 Z M 1.769531 14.378906 "/>
<path style=" stroke:none;fill-rule:nonzero;fill:rgb(14.509804%,19.215686%,41.568627%);fill-opacity:1;" d="M 14.691406 10.554688 C 14.691406 11.621094 15.035156 12.535156 15.675781 13.1875 C 16.351562 13.875 17.335938 14.253906 18.4375 14.253906 C 19.613281 14.253906 20.449219 13.84375 20.949219 13.5 L 20.949219 13.78125 C 20.949219 14.019531 20.957031 14.238281 20.957031 14.441406 C 20.957031 15.25 20.921875 15.746094 20.738281 15.9375 C 20.597656 16.078125 20.289062 16.140625 19.683594 16.140625 L 2.148438 16.160156 L 2.148438 19.605469 L 21.03125 19.59375 C 22.328125 19.59375 23.300781 19.226562 23.917969 18.503906 C 24.53125 17.796875 24.621094 16.933594 24.621094 16.484375 C 24.621094 16.34375 24.613281 16.253906 24.609375 16.210938 C 24.609375 16.175781 24.59375 0.632812 24.59375 0.632812 L 20.9375 0.632812 L 20.945312 9.226562 C 20.945312 9.296875 20.921875 10.917969 19.621094 10.925781 C 19.269531 10.925781 18.996094 10.820312 18.789062 10.601562 C 18.339844 10.132812 18.355469 9.304688 18.355469 9.296875 C 18.355469 9.292969 18.347656 0.632812 18.347656 0.632812 L 13.050781 0.632812 L 13.050781 3.523438 L 13.359375 3.523438 C 13.9375 3.523438 14.347656 3.65625 14.550781 3.902344 C 14.753906 4.148438 14.695312 4.449219 14.695312 4.464844 L 14.695312 10.554688 Z M 2.148438 13.992188 L 5.675781 13.992188 L 5.667969 5.03125 L 5.667969 5.011719 C 5.667969 5.003906 5.605469 4.46875 5.921875 4.097656 C 6.148438 3.832031 6.527344 3.699219 7.046875 3.699219 C 7.445312 3.699219 7.761719 3.808594 7.96875 4.027344 C 8.320312 4.398438 8.3125 4.96875 8.3125 4.976562 C 8.3125 4.984375 8.320312 12.050781 8.320312 12.050781 C 8.320312 12.078125 8.292969 12.941406 8.835938 13.507812 C 9.140625 13.824219 9.539062 13.984375 10.042969 13.984375 L 13.339844 13.984375 L 13.339844 11.109375 L 12.988281 11.15625 C 12.980469 11.15625 12.480469 11.226562 12.15625 10.949219 C 11.96875 10.785156 11.875 10.511719 11.875 10.148438 L 11.867188 3.488281 C 11.867188 3.445312 11.90625 2.183594 11.039062 1.269531 C 10.46875 0.667969 9.65625 0.363281 8.621094 0.363281 C 7.074219 0.363281 6.136719 0.984375 5.605469 1.53125 L 5.605469 0.625 L 0.371094 0.625 L 0.371094 3.601562 L 0.75 3.515625 C 0.757812 3.515625 1.445312 3.363281 1.839844 3.71875 C 2.039062 3.902344 2.140625 4.195312 2.140625 4.597656 L 2.140625 13.992188 Z M 2.148438 13.992188 "/>
</g>
</svg>
