<?xml version="1.0" encoding="UTF-8"?>
<svg xmlns="http://www.w3.org/2000/svg" xmlns:xlink="http://www.w3.org/1999/xlink" width="22pt" height="20pt" viewBox="0 0 22 20" version="1.1">
<g id="surface1">
<path style=" stroke:none;fill-rule:nonzero;fill:rgb(0%,0%,0%);fill-opacity:1;" d="M 21.578125 0 C 21.578125 0 21.96875 1.125 21.96875 2.738281 C 21.96875 4.355469 21.523438 5.371094 21.410156 5.769531 C 21.410156 5.769531 21.277344 5.976562 21.074219 6.113281 L 21.308594 6.300781 C 21.308594 6.300781 20.8125 7.78125 20.382812 8.691406 C 19.914062 9.6875 18.808594 11.632812 17.953125 12.300781 L 15.183594 16.75 C 15.183594 16.75 14.566406 16.847656 14.148438 16.515625 C 13.738281 16.183594 13.761719 15.871094 13.761719 15.871094 L 15.4375 13.390625 C 15.4375 13.390625 14.882812 13.484375 14.160156 13.484375 C 13.4375 13.484375 11.722656 13.421875 9.507812 12.425781 C 7.296875 11.433594 6.199219 10.886719 4.597656 10.886719 C 3.128906 10.886719 1.472656 12 0.996094 13.910156 C 0.996094 13.910156 0 12.726562 0 11.242188 C 0 9.757812 1.417969 8.703125 1.980469 8.414062 C 2.558594 8.117188 2.742188 7.847656 2.742188 7.445312 C 2.742188 6.945312 2.253906 6.238281 1.578125 5.621094 L 3.195312 5.070312 L 2.878906 4.628906 C 2.878906 4.628906 3.957031 4.816406 4.863281 3.722656 C 4.863281 3.722656 4.246094 3.664062 2.058594 4.664062 C 2.074219 4.609375 2.671875 2.992188 5.417969 1.667969 C 8.203125 0.324219 10.5 0.691406 12.980469 1.691406 C 15.464844 2.691406 16.140625 3.007812 17.753906 3.007812 C 19.371094 3.007812 20.558594 2.425781 21.117188 2.054688 C 21.117188 2.066406 21.445312 1.042969 21.578125 0 Z M 15.496094 16.675781 C 15.496094 16.675781 15.871094 17.320312 15.472656 18.34375 C 15.070312 19.367188 13.9375 20.414062 12.441406 19.773438 C 12.441406 19.773438 12.347656 19.957031 12.152344 19.957031 C 11.953125 19.953125 11.847656 19.785156 11.839844 19.703125 C 11.835938 19.621094 11.847656 19.515625 11.90625 19.46875 C 11.90625 19.46875 11.484375 19.070312 11.453125 18.894531 C 11.421875 18.714844 11.484375 18.667969 11.519531 18.644531 C 11.546875 18.628906 11.648438 18.628906 11.746094 18.722656 C 11.839844 18.824219 11.875 18.863281 11.875 18.863281 L 13.1875 16.847656 C 13.1875 16.847656 12.753906 16.332031 12.769531 15.722656 C 12.769531 15.722656 13.152344 15.394531 13.75 15.597656 C 13.75 15.597656 13.371094 15.8125 13.695312 16.332031 C 14.015625 16.851562 14.726562 16.96875 14.871094 16.976562 C 15.007812 16.992188 15.441406 16.96875 15.496094 16.675781 Z M 14.558594 18.957031 C 14.996094 18.253906 14.792969 17.640625 14.792969 17.640625 C 14.625 17.664062 14.421875 17.609375 14.421875 17.609375 L 13.070312 19.566406 C 13.296875 19.632812 14.125 19.664062 14.558594 18.957031 Z M 14.558594 18.957031 "/>
<path style=" stroke:none;fill-rule:nonzero;fill:rgb(100%,100%,100%);fill-opacity:1;" d="M 14.792969 17.640625 C 14.792969 17.640625 14.996094 18.253906 14.558594 18.957031 C 14.125 19.664062 13.296875 19.632812 13.070312 19.566406 L 14.421875 17.609375 C 14.421875 17.609375 14.625 17.65625 14.792969 17.640625 Z M 14.792969 17.640625 "/>
<path style=" stroke:none;fill-rule:nonzero;fill:rgb(74.901961%,75.294118%,75.294118%);fill-opacity:1;" d="M 14.625 16.140625 C 14.625 16.140625 14.386719 16.148438 14.285156 15.863281 L 16.078125 13.265625 L 16.65625 13.09375 Z M 14.625 16.140625 "/>
<path style=" stroke:none;fill-rule:nonzero;fill:rgb(69.803922%,11.764706%,20.784314%);fill-opacity:1;" d="M 0.800781 12.335938 C 0.800781 12.335938 -0.0351562 11.171875 1.390625 9.65625 C 1.390625 9.65625 2.109375 9.300781 2.898438 9.445312 C 2.898438 9.445312 1.609375 9.679688 1.328125 10.738281 C 1.328125 10.738281 2.003906 9.589844 4.160156 9.691406 C 4.160156 9.691406 3.558594 8.953125 2.144531 9.09375 C 2.144531 9.09375 2.457031 8.726562 3.683594 8.5625 C 3.683594 8.5625 3.082031 8.457031 2.613281 8.578125 C 2.613281 8.578125 3.265625 8.152344 3.265625 7.273438 C 3.265625 6.390625 2.398438 5.785156 2.398438 5.785156 C 2.398438 5.785156 3 5.507812 3.769531 5.347656 C 3.769531 5.347656 3.644531 5.023438 3.445312 4.90625 C 3.445312 4.90625 4.847656 4.976562 5.617188 3.277344 C 5.617188 3.277344 5.4375 3.1875 5.21875 3.1875 C 4.851562 3.1875 4.121094 3.355469 3.261719 3.757812 C 3.261719 3.757812 3.78125 3.136719 5.246094 2.410156 C 6.714844 1.679688 7.722656 1.667969 7.722656 1.667969 C 7.722656 1.667969 8.085938 1.664062 8.289062 1.761719 C 8.289062 1.761719 7.601562 1.78125 6.492188 2.300781 C 6.492188 2.300781 7.285156 2.164062 7.996094 2.164062 C 8.539062 2.164062 9.164062 2.335938 9.535156 2.472656 C 9.535156 2.472656 9.300781 2.046875 8.597656 1.921875 C 8.597656 1.921875 8.703125 1.828125 9.097656 1.828125 C 9.546875 1.828125 10.21875 2.183594 10.21875 2.183594 C 10.21875 2.183594 9.949219 1.804688 9.320312 1.597656 C 9.320312 1.597656 10.753906 1.460938 13.21875 2.460938 C 15.476562 3.378906 16.355469 3.519531 17.6875 3.519531 C 19.167969 3.519531 20.84375 2.898438 21.535156 2.445312 C 21.535156 2.445312 21.589844 2.824219 21.511719 3.242188 C 21.425781 3.703125 21.101562 4.03125 19.394531 4.042969 C 19.394531 4.042969 20.34375 4.480469 21.285156 4.285156 C 21.285156 4.285156 21.125 5.1875 20.617188 6.542969 C 20.230469 7.589844 19.5625 9.070312 18.683594 10.460938 C 18.394531 10.921875 18.160156 11.285156 17.761719 11.75 C 17.761719 11.75 17.007812 12.082031 16.210938 12.324219 C 16.210938 12.324219 16.585938 11.898438 16.605469 11.617188 C 16.605469 11.617188 15.90625 12.308594 15.234375 12.585938 C 15.234375 12.585938 14.570312 12.816406 13.398438 12.816406 C 9.707031 12.816406 7.410156 10.34375 4.257812 10.34375 C 1.699219 10.347656 0.800781 12.335938 0.800781 12.335938 Z M 12.84375 19.402344 C 12.84375 19.402344 12.492188 19.484375 12.167969 19.054688 C 12.167969 19.054688 12.121094 19.011719 12.1875 18.917969 L 13.398438 17.058594 C 13.398438 17.058594 13.6875 17.3125 14.214844 17.539062 C 14.214844 17.539062 13.863281 17.609375 13.527344 17.382812 C 13.527344 17.382812 13.480469 17.675781 13.8125 17.863281 C 13.8125 17.863281 13.449219 17.871094 13.257812 17.738281 C 13.257812 17.738281 13.207031 18.019531 13.582031 18.226562 C 13.582031 18.226562 13.230469 18.320312 13.015625 18.160156 C 13.015625 18.160156 12.960938 18.367188 13.285156 18.605469 C 13.285156 18.605469 12.933594 18.632812 12.710938 18.539062 C 12.710938 18.539062 12.722656 18.816406 13.015625 19.007812 C 13.015625 19.007812 12.644531 19.035156 12.449219 18.921875 C 12.453125 18.917969 12.441406 19.152344 12.84375 19.402344 Z M 12.84375 19.402344 "/>
<path style=" stroke:none;fill-rule:nonzero;fill:rgb(0%,0%,0%);fill-opacity:1;" d="M 8.644531 10.347656 L 8.613281 10.390625 L 8.351562 10.539062 L 7.972656 10.65625 L 7.292969 10.679688 L 7.058594 10.5625 L 6.929688 10.539062 L 6.886719 10.507812 L 6.820312 10.527344 C 6.820312 10.527344 6.492188 10.296875 6.261719 10.195312 L 6.082031 9.957031 L 6.074219 9.929688 L 6.039062 9.917969 C 6.039062 9.917969 6.058594 9.863281 6.035156 9.773438 L 5.96875 9.566406 L 5.925781 9.5625 L 5.832031 9.433594 L 5.910156 9.105469 L 6.210938 8.796875 L 6.300781 8.644531 L 6.335938 8.640625 L 6.335938 8.605469 L 6.574219 8.449219 L 6.878906 8.457031 L 7.003906 8.507812 L 7.027344 8.617188 L 7.089844 8.738281 L 7.117188 8.757812 L 7.488281 8.761719 L 7.695312 8.8125 L 7.847656 8.78125 L 7.988281 8.644531 C 7.988281 8.644531 7.828125 8.394531 7.601562 8.207031 C 7.601562 8.207031 7.367188 7.769531 7.296875 7.699219 L 7.238281 7.605469 L 6.976562 7.070312 L 7.160156 6.941406 C 7.160156 6.941406 7.046875 6.910156 6.929688 6.910156 L 6.777344 6.539062 L 6.761719 6.226562 L 6.773438 5.675781 C 6.773438 5.675781 6.796875 5.390625 6.839844 5.261719 C 6.878906 5.128906 6.953125 4.957031 6.964844 4.691406 L 7.148438 4.382812 L 7.214844 4.125 C 7.214844 4.125 7.21875 4.09375 7.25 4.058594 C 7.25 4.058594 7.480469 3.769531 7.53125 3.640625 L 7.75 3.402344 C 7.75 3.402344 7.78125 3.355469 8.132812 3.140625 L 8.042969 3.445312 C 8.042969 3.445312 8.046875 3.792969 8 3.992188 C 7.972656 4.125 7.921875 4.203125 7.921875 4.203125 L 7.929688 4.53125 C 7.929688 4.53125 7.90625 5.035156 8.042969 5.425781 C 8.042969 5.425781 8.191406 5.75 8.234375 5.910156 C 8.234375 5.910156 8.429688 6.367188 8.578125 6.726562 C 8.578125 6.726562 8.65625 6.921875 9.027344 7.308594 L 9.382812 7.6875 C 9.382812 7.6875 9.695312 7.871094 9.785156 7.953125 C 9.785156 7.953125 9.746094 7.886719 9.742188 7.839844 C 9.734375 7.792969 9.730469 7.617188 9.730469 7.617188 C 9.730469 7.617188 9.640625 7.53125 9.640625 7.4375 L 9.914062 6.632812 C 9.914062 6.632812 9.621094 6.285156 9.675781 5.785156 L 9.777344 5.78125 C 9.777344 5.78125 9.808594 5.78125 9.796875 5.761719 L 9.683594 5.621094 L 9.722656 4.816406 L 9.855469 4.863281 C 9.855469 4.863281 9.921875 4.757812 9.9375 4.5625 C 9.957031 4.367188 9.980469 4.140625 10.320312 3.792969 C 10.375 3.738281 10.703125 3.238281 11.234375 3.101562 C 11.761719 2.964844 12.039062 2.851562 12.039062 2.851562 L 12.269531 2.886719 C 12.269531 2.886719 12.519531 2.769531 12.96875 2.769531 C 13.414062 2.769531 13.625 2.882812 13.777344 2.992188 C 13.933594 3.105469 14.617188 3.644531 14.636719 3.6875 C 14.65625 3.726562 14.636719 3.761719 14.636719 3.761719 C 14.636719 3.761719 14.679688 3.847656 14.964844 4.105469 C 14.964844 4.105469 15.035156 4.183594 15.109375 4.371094 C 15.171875 4.5625 15.171875 4.628906 15.171875 4.628906 C 15.171875 4.628906 15.160156 4.710938 15.144531 4.78125 C 15.144531 4.78125 15.171875 4.847656 15.171875 4.886719 C 15.171875 4.921875 15.078125 5.34375 14.851562 5.652344 C 14.792969 5.734375 14.707031 5.785156 14.695312 5.851562 L 14.898438 5.882812 C 14.898438 5.882812 14.660156 6.226562 14.375 6.5625 C 14.253906 6.757812 14.078125 6.917969 13.953125 7.011719 C 13.953125 7.011719 13.898438 6.980469 13.800781 7 L 13.808594 7.117188 C 13.808594 7.117188 13.480469 7.324219 13.410156 7.355469 C 13.410156 7.355469 13.1875 7.886719 13.03125 8.148438 L 12.832031 8.242188 C 12.832031 8.242188 12.730469 8.308594 12.652344 8.425781 L 12.390625 8.574219 C 12.390625 8.574219 13.414062 8.347656 13.648438 8.273438 C 13.878906 8.195312 13.886719 8.140625 14.023438 8.105469 C 14.160156 8.066406 14.367188 8.03125 14.367188 8.03125 C 14.367188 8.03125 14.613281 7.871094 14.636719 7.863281 C 14.660156 7.859375 14.792969 7.894531 14.832031 7.917969 L 14.84375 7.722656 C 14.84375 7.722656 15.078125 7.585938 15.203125 7.507812 C 15.328125 7.433594 15.496094 7.253906 15.621094 7.164062 C 15.746094 7.078125 15.894531 7 15.949219 6.957031 C 15.996094 6.917969 16.539062 6.4375 16.789062 6.042969 C 16.867188 5.921875 16.933594 5.746094 16.933594 5.746094 L 17.1875 5.554688 C 17.1875 5.554688 17.195312 5.445312 17.25 5.355469 C 17.308594 5.265625 17.445312 5.082031 17.445312 5.082031 C 17.445312 5.082031 17.46875 5.101562 17.488281 5.195312 C 17.503906 5.289062 17.535156 5.324219 17.535156 5.324219 C 17.535156 5.324219 17.539062 5.539062 17.558594 5.652344 L 17.511719 5.863281 L 17.5 6.152344 C 17.5 6.152344 17.414062 6.320312 17.367188 6.4375 C 17.324219 6.550781 17.296875 6.78125 17.296875 6.78125 L 17.09375 7.105469 C 17.09375 7.105469 16.96875 7.457031 16.753906 7.726562 C 16.539062 8 16.324219 8.261719 16.324219 8.261719 L 16.128906 8.460938 L 15.800781 8.679688 C 15.800781 8.679688 15.765625 8.703125 15.6875 8.757812 C 15.644531 8.785156 15.566406 8.847656 15.53125 8.871094 C 15.511719 8.882812 15.484375 8.886719 15.410156 8.929688 C 15.15625 9.066406 14.582031 9.355469 14.078125 9.628906 C 14.078125 9.628906 13.988281 9.667969 13.890625 9.6875 C 13.796875 9.703125 13.617188 9.714844 13.617188 9.78125 C 13.625 9.847656 13.652344 9.953125 13.652344 9.953125 C 13.652344 9.953125 13.671875 10.011719 13.777344 10.054688 C 13.777344 10.054688 13.84375 10.042969 13.945312 10.070312 C 14.039062 10.101562 14.128906 10.164062 14.128906 10.164062 C 14.128906 10.164062 14.253906 10.1875 14.316406 10.21875 C 14.316406 10.21875 14.355469 10.1875 14.410156 10.160156 C 14.464844 10.128906 14.523438 10.082031 14.542969 10.046875 L 14.714844 10.042969 C 14.714844 10.042969 14.875 10.105469 14.964844 10.128906 C 14.964844 10.128906 15.023438 10.296875 15.058594 10.355469 L 15.054688 10.394531 L 15.070312 10.414062 L 15.046875 10.585938 C 15.046875 10.585938 15.085938 10.871094 15.070312 10.964844 C 15.070312 10.964844 14.976562 11.171875 14.929688 11.261719 C 14.929688 11.261719 14.78125 11.320312 14.757812 11.335938 L 14.726562 11.324219 C 14.726562 11.324219 14.417969 11.496094 14.398438 11.597656 L 14.355469 11.589844 C 14.355469 11.589844 14.367188 11.609375 14.34375 11.617188 C 14.320312 11.621094 14.015625 11.761719 14.015625 11.761719 C 14.015625 11.761719 13.640625 11.769531 13.308594 11.835938 L 13.246094 11.792969 L 13.140625 11.796875 C 13.140625 11.796875 13.109375 11.757812 12.78125 11.792969 C 12.78125 11.792969 12.3125 11.554688 12.246094 11.53125 L 11.996094 11.277344 L 11.949219 11.214844 L 11.90625 11.128906 L 11.871094 11.046875 C 11.871094 11.046875 11.859375 11.03125 11.804688 11.042969 C 11.75 11.054688 11.585938 11.078125 11.375 11.152344 C 11.375 11.152344 11.054688 11.140625 10.839844 11.195312 C 10.839844 11.195312 10.613281 11.152344 10.355469 11.164062 C 10.355469 11.164062 10.125 11.136719 10.085938 11.136719 C 10.085938 11.136719 9.6875 10.96875 9.460938 10.921875 C 9.460938 10.921875 9.367188 10.886719 9.332031 10.863281 C 9.300781 10.839844 9.195312 10.746094 8.992188 10.628906 C 8.992188 10.632812 8.8125 10.457031 8.644531 10.347656 Z M 8.644531 10.347656 "/>
<path style=" stroke:none;fill-rule:nonzero;fill:rgb(85.882353%,38.039216%,14.901961%);fill-opacity:1;" d="M 9.445312 9.308594 C 9.445312 9.308594 9.820312 9.273438 9.9375 9.277344 L 10.011719 9.203125 L 10.035156 9.070312 L 10.300781 9.058594 C 10.300781 9.058594 10.261719 9.203125 10.21875 9.242188 C 10.21875 9.242188 10.199219 9.265625 10.238281 9.265625 C 10.273438 9.265625 10.476562 9.273438 10.476562 9.273438 C 10.476562 9.273438 10.503906 9.265625 10.511719 9.242188 C 10.515625 9.21875 10.535156 9.113281 10.578125 9.09375 C 10.617188 9.078125 10.691406 9.082031 10.691406 9.082031 L 10.804688 9.105469 L 10.820312 9.117188 L 10.796875 9.1875 L 10.726562 9.273438 C 10.726562 9.273438 10.714844 9.296875 10.742188 9.296875 C 10.765625 9.296875 10.933594 9.332031 10.980469 9.355469 C 10.980469 9.355469 11.023438 9.378906 11.035156 9.347656 C 11.046875 9.324219 11.066406 9.277344 11.066406 9.277344 L 11.066406 9.1875 C 11.066406 9.1875 11.066406 9.164062 11.101562 9.164062 C 11.136719 9.164062 11.269531 9.207031 11.292969 9.230469 C 11.292969 9.230469 11.308594 9.25 11.296875 9.285156 C 11.285156 9.320312 11.257812 9.394531 11.238281 9.421875 L 11.445312 9.527344 C 11.445312 9.527344 11.488281 9.46875 11.523438 9.445312 L 11.542969 9.332031 C 11.542969 9.332031 11.535156 9.300781 11.578125 9.3125 L 11.757812 9.402344 C 11.757812 9.402344 11.769531 9.414062 11.761719 9.4375 C 11.75 9.460938 11.726562 9.550781 11.726562 9.550781 C 11.726562 9.550781 11.722656 9.5625 11.699219 9.574219 C 11.671875 9.585938 11.667969 9.621094 11.6875 9.640625 L 12 9.816406 L 11.691406 9.710938 C 11.691406 9.710938 11.667969 9.710938 11.660156 9.722656 L 11.601562 9.835938 C 11.601562 9.835938 11.488281 9.847656 11.359375 9.824219 C 11.359375 9.824219 11.363281 9.75 11.421875 9.628906 L 11.214844 9.550781 L 11.132812 9.640625 L 11.101562 9.78125 C 11.101562 9.78125 11.03125 9.804688 10.957031 9.804688 C 10.886719 9.804688 10.839844 9.773438 10.839844 9.773438 L 10.894531 9.621094 C 10.894531 9.621094 10.917969 9.527344 10.957031 9.492188 C 10.957031 9.492188 10.953125 9.449219 10.707031 9.425781 C 10.707031 9.425781 10.628906 9.539062 10.582031 9.726562 C 10.582031 9.726562 10.46875 9.746094 10.351562 9.652344 L 10.386719 9.542969 L 10.453125 9.46875 L 10.453125 9.402344 C 10.453125 9.402344 10.3125 9.371094 10.214844 9.378906 C 10.214844 9.378906 10.152344 9.410156 10.125 9.527344 L 10.105469 9.609375 L 9.988281 9.589844 L 9.875 9.507812 C 9.875 9.507812 9.902344 9.410156 9.945312 9.378906 C 9.945312 9.378906 9.957031 9.355469 9.933594 9.355469 C 9.898438 9.34375 9.445312 9.308594 9.445312 9.308594 Z M 9.503906 10.261719 C 9.503906 10.261719 10.183594 10.65625 10.46875 10.714844 C 10.808594 10.792969 10.691406 10.414062 10.691406 10.414062 C 10.691406 10.414062 11.105469 10.609375 11.601562 10.609375 C 12.097656 10.609375 12.53125 10.414062 12.675781 10.296875 C 12.820312 10.175781 12.664062 10.117188 12.640625 10.058594 C 12.609375 10 12.496094 9.824219 12.460938 9.738281 C 12.429688 9.65625 12.277344 9.507812 12.277344 9.507812 C 12.277344 9.507812 11.8125 9.148438 11.667969 9.078125 C 11.53125 9.007812 11.363281 8.941406 11.296875 8.898438 C 11.234375 8.863281 11.125 8.839844 11.125 8.839844 L 10.980469 8.8125 C 10.980469 8.8125 10.863281 8.796875 10.796875 8.78125 C 10.796875 8.78125 10.546875 8.769531 10.457031 8.75 C 10.457031 8.75 10.390625 8.757812 10.367188 8.757812 C 10.367188 8.757812 10.199219 8.804688 9.898438 8.8125 C 9.898438 8.8125 9.371094 8.976562 9.175781 9.023438 C 9.175781 9.023438 9.121094 9.035156 9.015625 9.101562 C 9.015625 9.101562 8.777344 9.226562 8.679688 9.25 C 8.679688 9.25 8.609375 9.277344 8.589844 9.332031 L 8.488281 9.425781 L 8.5 9.628906 C 8.5 9.628906 8.6875 9.863281 8.726562 9.976562 C 8.726562 9.976562 9.167969 10.402344 9.257812 10.515625 C 9.257812 10.515625 9.46875 10.605469 9.507812 10.644531 C 9.507812 10.644531 9.597656 10.632812 9.597656 10.539062 C 9.59375 10.457031 9.503906 10.261719 9.503906 10.261719 Z M 9.503906 10.261719 "/>
<path style=" stroke:none;fill-rule:nonzero;fill:rgb(100%,100%,100%);fill-opacity:1;" d="M 10.128906 7.714844 C 10.128906 7.714844 10.160156 7.53125 10.230469 7.402344 C 10.300781 7.273438 10.3125 6.824219 10.3125 6.824219 C 10.3125 6.824219 10.375 6.929688 10.445312 7.21875 C 10.445312 7.21875 10.488281 7.484375 10.476562 7.5625 L 10.492188 7.585938 L 10.671875 7.402344 L 10.910156 7.519531 C 10.910156 7.519531 10.929688 7.527344 10.917969 7.578125 C 10.910156 7.632812 10.878906 7.816406 10.878906 7.816406 L 11.105469 7.585938 L 11.371094 7.679688 C 11.371094 7.679688 11.386719 7.6875 11.382812 7.738281 L 11.375 7.976562 L 11.597656 7.726562 L 11.886719 7.746094 C 11.886719 7.746094 11.894531 7.761719 11.898438 7.785156 C 11.90625 7.8125 11.925781 8.023438 11.925781 8.023438 L 12.078125 7.785156 L 12.097656 7.769531 L 12.390625 7.761719 L 12.40625 7.882812 C 12.40625 7.882812 12.175781 8.390625 11.167969 8.308594 C 11.167969 8.308594 11.285156 8.414062 11.773438 8.445312 C 11.773438 8.445312 11.6875 8.53125 11.351562 8.53125 C 11.019531 8.53125 10.570312 8.320312 10.421875 8.09375 C 10.265625 7.863281 10.128906 7.714844 10.128906 7.714844 Z M 10.628906 6.527344 C 10.628906 6.527344 10.636719 6.6875 10.617188 6.75 L 10.761719 6.835938 L 10.804688 6.726562 C 10.804688 6.726562 10.660156 6.550781 10.636719 6.515625 Z M 10.945312 6.773438 L 10.894531 6.910156 C 10.894531 6.910156 10.886719 6.945312 10.917969 6.957031 C 10.945312 6.96875 11.101562 7.046875 11.101562 7.046875 L 11.179688 6.859375 L 11.09375 6.738281 Z M 11.25 7.066406 C 11.25 7.066406 11.234375 7.09375 11.257812 7.101562 C 11.285156 7.105469 11.472656 7.171875 11.484375 7.164062 C 11.496094 7.160156 11.507812 7.164062 11.519531 7.140625 C 11.53125 7.117188 11.585938 6.980469 11.585938 6.980469 L 11.488281 6.824219 L 11.332031 6.875 C 11.332031 6.875 11.316406 6.886719 11.304688 6.917969 C 11.296875 6.945312 11.25 7.066406 11.25 7.066406 Z M 11.667969 7.175781 C 11.667969 7.175781 11.660156 7.214844 11.703125 7.214844 C 11.746094 7.214844 11.941406 7.230469 11.941406 7.230469 L 12.019531 7.035156 L 11.90625 6.910156 L 11.761719 6.96875 C 11.761719 6.96875 11.726562 7 11.710938 7.046875 C 11.691406 7.101562 11.667969 7.175781 11.667969 7.175781 Z M 12.214844 7.03125 L 12.152344 7.207031 C 12.152344 7.207031 12.132812 7.238281 12.175781 7.238281 L 12.339844 7.238281 L 12.402344 7.082031 C 12.402344 7.082031 12.40625 7.066406 12.394531 7.058594 C 12.390625 7.054688 12.289062 6.992188 12.289062 6.992188 Z M 10.011719 5.289062 L 9.972656 5.816406 C 9.972656 5.816406 9.972656 5.886719 10.011719 5.953125 C 10.046875 6.019531 10.195312 6.082031 10.195312 6.082031 C 10.195312 6.082031 10.566406 6.1875 10.605469 6.410156 L 10.953125 6.628906 L 11.148438 6.609375 L 11.296875 6.761719 L 11.519531 6.714844 L 11.6875 6.863281 L 11.929688 6.804688 L 12.109375 6.921875 L 12.339844 6.839844 L 12.507812 6.945312 C 12.507812 6.945312 12.628906 6.917969 12.742188 6.921875 C 12.742188 6.921875 12.867188 6.816406 12.90625 6.75 L 12.769531 6.457031 C 12.769531 6.457031 12.890625 6.507812 13.144531 6.507812 C 13.402344 6.507812 13.742188 6.449219 13.988281 6.171875 C 13.988281 6.171875 13.914062 5.992188 13.914062 5.769531 C 13.914062 5.550781 14.152344 5.214844 14.417969 5.070312 L 14.410156 4.863281 C 14.410156 4.863281 14.367188 4.621094 14.328125 4.550781 C 14.292969 4.484375 14.160156 4.324219 13.851562 4.1875 C 13.539062 4.046875 12.996094 3.875 12.996094 3.875 C 12.996094 3.875 13.503906 3.78125 13.945312 3.804688 C 13.945312 3.804688 13.707031 3.527344 12.804688 3.410156 C 12.804688 3.410156 13.164062 3.3125 13.550781 3.394531 C 13.550781 3.394531 13.433594 3.253906 13.132812 3.242188 C 13.132812 3.242188 13.097656 3.171875 12.820312 3.171875 C 12.542969 3.171875 12.507812 3.203125 12.429688 3.207031 C 12.402344 3.207031 12.226562 3.242188 11.988281 3.289062 C 11.875 3.3125 11.738281 3.320312 11.609375 3.359375 C 11.246094 3.46875 10.863281 3.644531 10.703125 3.929688 C 10.703125 3.929688 10.832031 3.871094 10.945312 3.851562 C 10.945312 3.851562 10.527344 4.21875 10.476562 4.3125 C 10.421875 4.410156 10.34375 4.605469 10.300781 4.664062 C 10.261719 4.722656 10.273438 4.859375 10.300781 4.941406 C 10.300781 4.941406 10.488281 4.492188 10.90625 4.332031 C 10.90625 4.332031 10.433594 4.746094 10.355469 5.421875 Z M 10.875 4.691406 L 11.476562 4.65625 C 11.476562 4.65625 11.585938 4.980469 12.210938 5.164062 C 12.210938 5.164062 12.042969 5.203125 12 5.265625 C 11.960938 5.332031 11.746094 5.664062 11.339844 5.664062 C 11.058594 5.664062 10.765625 5.308594 10.765625 5.308594 C 10.765625 5.308594 10.785156 5.078125 11.261719 4.859375 Z M 12.460938 5.21875 L 12.507812 5.207031 C 12.507812 5.207031 12.496094 5.226562 12.792969 5.226562 C 13.085938 5.226562 13.433594 5.054688 13.433594 5.054688 L 13.9375 5.308594 L 13.46875 5.289062 C 13.46875 5.289062 13.628906 5.515625 13.628906 5.664062 C 13.628906 5.8125 13.597656 5.839844 13.582031 5.859375 C 13.5625 5.875 13.296875 5.976562 13.097656 5.976562 C 12.902344 5.976562 12.765625 5.933594 12.6875 5.851562 C 12.609375 5.761719 12.527344 5.550781 12.554688 5.335938 Z M 11.535156 6.148438 C 11.535156 6.148438 11.871094 5.988281 12.167969 5.542969 L 12.199219 5.503906 C 12.199219 5.503906 12.222656 5.484375 12.222656 5.507812 C 12.222656 5.53125 12.164062 5.992188 12.328125 6.289062 C 12.328125 6.289062 12.339844 6.308594 12.3125 6.324219 L 11.925781 6.527344 C 11.925781 6.527344 11.929688 6.484375 11.964844 6.378906 C 12 6.273438 12.039062 6.078125 12.03125 5.976562 C 12.03125 5.976562 11.847656 6.1875 11.746094 6.492188 C 11.746094 6.492188 11.726562 6.484375 11.714844 6.460938 C 11.703125 6.445312 11.535156 6.148438 11.535156 6.148438 Z M 12.246094 9.195312 L 12.007812 9.019531 L 12.109375 8.988281 L 12.15625 8.980469 L 12.191406 8.976562 L 12.382812 8.941406 L 12.453125 8.933594 C 12.453125 8.933594 12.800781 8.785156 13.160156 8.726562 C 13.515625 8.667969 13.4375 8.679688 13.503906 8.652344 C 13.570312 8.628906 13.855469 8.507812 13.855469 8.507812 C 13.855469 8.507812 14.125 8.390625 14.148438 8.378906 C 14.171875 8.367188 14.386719 8.230469 14.59375 8.183594 C 14.808594 8.136719 15.042969 7.945312 15.085938 7.929688 C 15.113281 7.917969 15.347656 7.722656 15.585938 7.550781 C 15.6875 7.480469 15.804688 7.433594 15.882812 7.378906 C 16.15625 7.195312 16.394531 6.882812 16.394531 6.882812 C 16.394531 6.882812 16.582031 6.714844 16.628906 6.679688 C 16.675781 6.644531 17.09375 6.070312 17.195312 5.882812 C 17.195312 5.882812 17.242188 6.023438 16.925781 6.710938 L 16.8125 7.007812 C 16.8125 7.007812 16.6875 7.171875 16.644531 7.261719 C 16.605469 7.347656 16.480469 7.445312 16.269531 7.828125 C 16.269531 7.828125 15.90625 8.175781 15.8125 8.273438 C 15.8125 8.273438 15.394531 8.507812 14.957031 8.8125 L 14.351562 9.136719 C 14.351562 9.136719 13.742188 9.289062 13.332031 9.480469 C 13.332031 9.480469 12.933594 9.53125 12.667969 9.609375 L 12.464844 9.382812 C 12.464844 9.382812 13.59375 9.058594 13.6875 9.007812 L 13.777344 8.933594 L 14.40625 8.703125 C 14.40625 8.703125 14.582031 8.566406 14.761719 8.46875 C 14.828125 8.433594 14.886719 8.421875 14.945312 8.394531 C 15.15625 8.308594 15.410156 8.078125 15.507812 7.929688 L 15.132812 8.125 C 15.132812 8.125 14.84375 8.273438 14.695312 8.359375 C 14.546875 8.449219 14.105469 8.628906 14.105469 8.628906 L 13.585938 8.824219 C 13.585938 8.824219 13.457031 8.859375 13.265625 8.941406 C 13.082031 9.023438 12.792969 9.117188 12.621094 9.128906 C 12.472656 9.148438 12.246094 9.195312 12.246094 9.195312 Z M 12.199219 10.929688 L 12.203125 10.910156 C 12.203125 10.910156 12.382812 10.816406 12.617188 10.734375 C 12.675781 10.714844 12.792969 10.640625 12.871094 10.5625 C 12.960938 10.472656 13.015625 10.378906 13.015625 10.378906 L 13.015625 10.171875 L 12.972656 10.011719 C 12.972656 10.011719 13.015625 9.8125 12.917969 9.675781 C 12.917969 9.675781 13.175781 9.609375 13.273438 9.589844 C 13.273438 9.589844 13.371094 9.859375 13.289062 10.140625 C 13.289062 10.140625 13.265625 10.207031 13.335938 10.21875 C 13.335938 10.21875 13.480469 10.207031 13.5625 10.277344 C 13.59375 10.300781 13.765625 10.335938 13.765625 10.335938 C 13.765625 10.335938 13.851562 10.332031 13.9375 10.421875 C 13.980469 10.46875 14.089844 10.460938 14.089844 10.460938 C 14.089844 10.460938 14.21875 10.46875 14.304688 10.550781 C 14.378906 10.632812 14.523438 10.566406 14.523438 10.566406 L 14.582031 10.402344 C 14.582031 10.402344 14.617188 10.320312 14.695312 10.355469 C 14.773438 10.390625 14.75 10.433594 14.75 10.433594 L 14.667969 10.726562 C 14.667969 10.726562 14.671875 10.75 14.726562 10.757812 C 14.78125 10.761719 14.851562 10.910156 14.746094 10.988281 C 14.746094 10.988281 14.71875 10.992188 14.714844 10.964844 L 14.703125 10.898438 C 14.703125 10.898438 14.691406 10.882812 14.679688 10.921875 C 14.660156 10.964844 14.613281 11.042969 14.613281 11.042969 C 14.613281 11.042969 14.554688 11.046875 14.511719 11.019531 C 14.511719 11.019531 14.328125 11.273438 14.292969 11.300781 C 14.253906 11.324219 13.824219 11.53125 13.355469 11.542969 L 13.230469 11.507812 C 13.222656 11.503906 12.578125 11.5625 12.199219 10.929688 Z M 8.679688 8.824219 C 8.679688 8.824219 8.519531 8.675781 8.417969 8.617188 C 8.417969 8.617188 8.144531 8.816406 7.996094 9.125 L 7.933594 9.136719 C 7.933594 9.136719 7.839844 9.082031 7.769531 9.082031 C 7.695312 9.082031 7.703125 9.101562 7.644531 9.101562 C 7.582031 9.101562 7.476562 9.058594 7.429688 9.058594 C 7.382812 9.058594 7.242188 9.082031 7.207031 9.082031 C 7.171875 9.082031 7.113281 9.035156 6.988281 9.035156 C 6.867188 9.035156 6.855469 9.058594 6.816406 9.058594 C 6.773438 9.058594 6.71875 9.035156 6.660156 8.988281 L 6.726562 8.824219 C 6.726562 8.824219 6.742188 8.761719 6.671875 8.738281 C 6.59375 8.714844 6.550781 8.804688 6.550781 8.804688 C 6.550781 8.804688 6.476562 8.96875 6.4375 9.058594 L 6.421875 9.078125 C 6.421875 9.078125 6.386719 9.066406 6.355469 9.066406 C 6.320312 9.066406 6.175781 9.089844 6.175781 9.226562 C 6.175781 9.226562 6.175781 9.261719 6.1875 9.265625 C 6.1875 9.265625 6.234375 9.203125 6.300781 9.1875 C 6.300781 9.1875 6.261719 9.285156 6.261719 9.332031 C 6.261719 9.359375 6.335938 9.359375 6.335938 9.359375 C 6.335938 9.359375 6.355469 9.359375 6.355469 9.402344 C 6.347656 9.4375 6.34375 9.480469 6.34375 9.597656 C 6.34375 9.710938 6.355469 9.710938 6.355469 9.710938 C 6.355469 9.710938 6.503906 10.011719 6.964844 10.238281 C 6.964844 10.238281 7.003906 10.253906 7.027344 10.253906 C 7.054688 10.253906 7.167969 10.273438 7.269531 10.332031 C 7.367188 10.382812 7.589844 10.371094 7.589844 10.371094 C 7.589844 10.371094 7.976562 10.390625 8.449219 10.136719 C 8.449219 10.136719 8.136719 9.710938 8.097656 9.390625 L 8.289062 9.183594 L 8.347656 9.152344 C 8.347656 9.160156 8.425781 8.945312 8.679688 8.824219 Z M 8.941406 8.871094 C 8.941406 8.871094 8.699219 8.644531 8.527344 8.539062 C 8.351562 8.433594 8.300781 8.300781 8.300781 8.300781 C 8.300781 8.300781 7.984375 7.929688 7.839844 7.859375 L 7.535156 7.359375 C 7.535156 7.359375 7.261719 6.640625 7.171875 6.5625 C 7.171875 6.5625 7.113281 6.148438 7.089844 6.035156 C 7.058594 5.921875 7.105469 5.824219 7.105469 5.824219 C 7.105469 5.824219 7.171875 5.378906 7.183594 5.089844 L 7.453125 4.324219 C 7.453125 4.324219 7.507812 4.125 7.65625 3.953125 C 7.65625 3.953125 7.546875 4.519531 7.566406 4.792969 C 7.566406 4.792969 7.621094 5.054688 7.632812 5.140625 C 7.644531 5.230469 7.644531 5.457031 7.683594 5.550781 C 7.695312 5.578125 7.722656 5.699219 7.722656 5.699219 C 7.722656 5.699219 7.828125 5.886719 7.851562 5.953125 C 7.871094 6.011719 8.03125 6.527344 8.03125 6.527344 C 8.03125 6.527344 8.160156 6.769531 8.175781 6.792969 L 8.386719 7.007812 C 8.386719 7.007812 8.613281 7.390625 8.753906 7.527344 C 8.835938 7.609375 8.878906 7.710938 8.878906 7.710938 L 9.414062 8.125 C 9.414062 8.125 9.5625 8.300781 9.605469 8.347656 C 9.648438 8.390625 9.890625 8.539062 9.925781 8.597656 C 9.925781 8.597656 9.742188 8.617188 9.640625 8.679688 C 9.640625 8.679688 9.3125 8.4375 9.167969 8.390625 C 9.167969 8.390625 9.003906 8.203125 8.953125 8.175781 C 8.953125 8.175781 8.878906 8.058594 8.765625 7.917969 C 8.667969 7.796875 8.539062 7.667969 8.4375 7.566406 C 8.4375 7.566406 8.238281 7.332031 8.0625 7.046875 C 8 6.957031 7.941406 6.828125 7.894531 6.738281 C 7.757812 6.507812 7.65625 6.34375 7.644531 6.320312 L 7.660156 6.617188 L 7.757812 6.882812 C 7.757812 6.882812 7.953125 7.125 8.011719 7.355469 L 8.40625 7.839844 C 8.40625 7.839844 8.441406 7.90625 8.449219 7.941406 C 8.449219 7.941406 8.972656 8.507812 9.269531 8.757812 Z M 8.941406 8.871094 "/>
<path style=" stroke:none;fill-rule:nonzero;fill:rgb(0%,0%,0%);fill-opacity:1;" d="M 12.59375 10.929688 C 12.59375 10.929688 13.046875 10.757812 13.230469 10.359375 C 13.230469 10.359375 13.347656 10.527344 13.265625 10.699219 C 13.265625 10.699219 13.421875 10.679688 13.515625 10.617188 C 13.515625 10.617188 13.558594 10.726562 13.523438 10.792969 C 13.523438 10.792969 13.660156 10.804688 13.765625 10.710938 C 13.765625 10.710938 13.832031 10.773438 13.789062 10.894531 C 13.789062 10.894531 13.9375 10.910156 14.035156 10.816406 C 14.035156 10.816406 14.089844 10.894531 14.050781 10.992188 C 14.050781 10.992188 14.203125 10.992188 14.363281 10.871094 C 14.363281 10.871094 14.238281 11.273438 13.910156 11.34375 C 13.910156 11.34375 13.765625 11.332031 13.605469 11.253906 C 13.445312 11.175781 13.152344 11.035156 12.65625 11.113281 C 12.652344 11.113281 12.5625 11.082031 12.59375 10.929688 Z M 8.066406 10.019531 C 8.066406 10.019531 7.886719 9.769531 7.886719 9.5625 C 7.886719 9.433594 7.921875 9.296875 7.921875 9.296875 C 7.921875 9.296875 7.746094 9.347656 7.660156 9.550781 C 7.660156 9.550781 7.648438 9.574219 7.632812 9.554688 C 7.613281 9.539062 7.53125 9.480469 7.507812 9.394531 C 7.507812 9.394531 7.441406 9.402344 7.375 9.53125 C 7.375 9.53125 7.355469 9.5625 7.320312 9.539062 C 7.285156 9.515625 7.226562 9.425781 7.214844 9.382812 C 7.214844 9.382812 7.140625 9.394531 7.054688 9.527344 C 7.054688 9.527344 6.933594 9.515625 6.902344 9.371094 C 6.902344 9.371094 6.800781 9.394531 6.753906 9.527344 C 6.753906 9.527344 6.730469 9.53125 6.707031 9.507812 C 6.6875 9.484375 6.589844 9.410156 6.582031 9.3125 C 6.582031 9.3125 6.503906 9.335938 6.503906 9.589844 C 6.503906 9.8125 6.636719 9.882812 6.636719 9.882812 C 6.636719 9.882812 6.785156 9.929688 7.09375 9.917969 C 7.40625 9.90625 7.703125 10.035156 7.839844 10.117188 C 7.871094 10.136719 7.910156 10.160156 7.960938 10.125 Z M 15.035156 12.574219 C 15.035156 12.574219 16.1875 10.933594 17.46875 8.152344 C 17.46875 8.152344 17.335938 9.628906 16.289062 11.09375 C 16.175781 11.261719 15.78125 12.070312 15.035156 12.574219 Z M 15.035156 12.574219 "/>
</g>
</svg>
