<?xml version="1.0" encoding="UTF-8"?>
<svg xmlns="http://www.w3.org/2000/svg" xmlns:xlink="http://www.w3.org/1999/xlink" width="35pt" height="25pt" viewBox="0 0 35 25" version="1.1">
<g id="surface1">
<path style=" stroke:none;fill-rule:nonzero;fill:rgb(10.196078%,9.803922%,10.196078%);fill-opacity:1;" d="M 0 2.125 C 0 2.125 0.53125 3.972656 2.597656 5.417969 L 1.394531 5.289062 C 1.394531 5.289062 2.664062 7.074219 4.945312 8.195312 L 3.695312 8.082031 C 3.695312 8.082031 5.367188 10.746094 8.765625 12.058594 C 8.765625 12.058594 9.101562 14.238281 12.039062 16.199219 C 12.039062 16.199219 14.832031 17.804688 15.15625 19.28125 C 15.15625 19.28125 20.53125 18.929688 26.414062 22.875 C 26.414062 22.875 27.800781 17.191406 35 16.507812 C 35 16.507812 35.007812 13.425781 30.925781 11.375 C 30.925781 11.375 29.253906 4.976562 19.125 4.28125 L 10.585938 4.296875 C 10.589844 4.296875 4.074219 3.867188 0 2.125 Z M 0 2.125 "/>
<path style="fill-rule:nonzero;fill:rgb(51.764706%,8.627451%,10.980392%);fill-opacity:1;stroke-width:0.6456;stroke-linecap:butt;stroke-linejoin:miter;stroke:rgb(0%,0%,0%);stroke-opacity:1;stroke-miterlimit:4;" d="M 19.625 30.3125 C 19.625 30.3125 33.5625 48.5625 73.09375 57.8125 L 37.4375 54.59375 C 37.4375 54.59375 50.75 67.375 90.25 77.0625 L 54.5 73.9375 C 54.5 73.9375 74.5625 93.0625 105.75 98.21875 L 86.65625 101.25 C 86.65625 101.25 88.375 110.9375 121.25 132.1875 C 121.25 132.1875 132.09375 141.28125 129.84375 143.53125 C 129.84375 143.53125 147.65625 143.75 178.84375 158.40625 C 178.84375 158.40625 208.65625 143.15625 167.03125 98.6875 C 167.03125 98.6875 147.90625 77.625 126.40625 63.875 C 126.40625 63.875 158.8125 56.125 199.21875 79.375 C 199.21875 79.375 219.84375 94.875 238.75 87.125 C 238.75 87.125 231 48 158.1875 41.8125 L 79.15625 41.8125 C 79.15625 41.65625 45.65625 39.09375 19.625 30.3125 Z M 19.625 30.3125 " transform="matrix(0.125,0,0,0.125,0,0)"/>
<path style="fill-rule:nonzero;fill:rgb(100%,100%,100%);fill-opacity:1;stroke-width:0.6456;stroke-linecap:butt;stroke-linejoin:miter;stroke:rgb(0%,0%,0%);stroke-opacity:1;stroke-miterlimit:4;" d="M 173.40625 77.125 C 173.40625 77.125 177.75 110.8125 210.78125 109.125 C 210.78125 109.125 222.40625 106.34375 224.75 94.28125 L 220.21875 94.28125 C 220.21875 94.28125 216.34375 106.5625 204.71875 104.15625 C 204.71875 104.15625 197.75 104.03125 190.96875 93.84375 L 201.9375 92.34375 C 202 92.40625 182.71875 86.34375 173.40625 77.125 Z M 173.40625 77.125 " transform="matrix(0.125,0,0,0.125,0,0)"/>
<path style="fill-rule:nonzero;fill:rgb(99.215686%,74.117647%,7.058824%);fill-opacity:1;stroke-width:0.6456;stroke-linecap:butt;stroke-linejoin:miter;stroke:rgb(0%,0%,0%);stroke-opacity:1;stroke-miterlimit:4;" d="M 217.75 124.3125 C 217.75 124.3125 251.34375 118.1875 274 129.28125 C 274 129.28125 245.28125 130.4375 226.09375 146.71875 C 226.09375 146.71875 227.84375 134.4375 217.75 124.3125 Z M 217.75 124.3125 " transform="matrix(0.125,0,0,0.125,0,0)"/>
<path style="fill-rule:nonzero;fill:rgb(99.215686%,74.117647%,7.058824%);fill-opacity:1;stroke-width:0.6456;stroke-linecap:butt;stroke-linejoin:miter;stroke:rgb(0%,0%,0%);stroke-opacity:1;stroke-miterlimit:4;" d="M 218.21875 116.1875 C 218.21875 116.1875 255 114.5625 274.1875 126.6875 C 269.65625 108.8125 238.75 94.875 241.25 96.09375 C 241.25 96.09375 235.125 110.5 218.21875 116.1875 Z M 218.21875 116.1875 " transform="matrix(0.125,0,0,0.125,0,0)"/>
</g>
</svg>
