<?xml version="1.0" encoding="UTF-8"?>
<svg xmlns="http://www.w3.org/2000/svg" xmlns:xlink="http://www.w3.org/1999/xlink" width="28pt" height="20pt" viewBox="0 0 28 20" version="1.1">
<g id="surface1">
<path style=" stroke:none;fill-rule:nonzero;fill:rgb(86.27451%,87.843137%,89.803922%);fill-opacity:1;" d="M 22.988281 8.011719 C 22.988281 8.011719 24.230469 7.820312 24.460938 6.644531 C 24.683594 5.46875 23.894531 4.527344 22.464844 3.871094 C 20.394531 2.921875 17.910156 2.015625 12.6875 0.835938 C 9.859375 0.203125 9.074219 0 9.074219 0 L 3.5 6 L 8.277344 5.847656 C 8.277344 5.847656 6.699219 8.273438 6.960938 12.261719 C 7.226562 16.246094 8.902344 18.234375 10.234375 19.128906 C 11.140625 19.734375 12.378906 20 12.378906 20 C 12.378906 20 11.738281 19.085938 11.925781 17.949219 C 12.117188 16.816406 12.566406 16.203125 12.898438 15.597656 C 13.234375 14.992188 15.421875 10.667969 15.421875 10.667969 C 15.421875 10.667969 16.214844 10.667969 16.550781 10.707031 C 16.886719 10.746094 17.117188 10.898438 17.117188 11.085938 C 17.117188 11.277344 16.894531 11.539062 16.894531 11.539062 C 16.894531 11.539062 18.015625 11.613281 19.488281 11.046875 C 20.957031 10.476562 21.445312 9.527344 21.445312 9.527344 C 21.445312 9.527344 20.804688 8.730469 20.054688 8.125 C 19.300781 7.519531 18.695312 7.144531 18.695312 7.144531 L 22.007812 7.144531 C 22.007812 7.144531 22.644531 7.144531 22.867188 7.335938 C 23.101562 7.523438 22.988281 8.011719 22.988281 8.011719 Z M 22.988281 8.011719 "/>
<path style=" stroke:none;fill-rule:nonzero;fill:rgb(100%,100%,100%);fill-opacity:1;" d="M 23.347656 7.539062 C 23.347656 7.539062 24.058594 7.316406 24.15625 6.574219 C 24.25 5.832031 23.835938 5.300781 23.609375 5.070312 C 23.386719 4.84375 22.386719 4.121094 20.640625 3.492188 C 19.199219 2.976562 17.011719 2.394531 13.074219 1.503906 C 10.523438 0.921875 9.445312 0.835938 9.445312 0.835938 L 5.347656 5.296875 L 9.578125 5.277344 C 9.578125 5.277344 7.824219 7.445312 7.675781 11.730469 C 7.457031 18.179688 11.777344 19.546875 11.777344 19.546875 C 11.777344 19.546875 11.363281 18.789062 11.476562 17.914062 C 11.589844 17.046875 11.964844 16.363281 12.378906 15.605469 C 12.789062 14.84375 15.046875 10.328125 15.046875 10.328125 L 16.628906 10.328125 C 16.914062 10.328125 17.308594 10.480469 17.460938 10.6875 C 17.605469 10.894531 17.53125 11.066406 17.53125 11.066406 C 17.53125 11.066406 18.621094 11.144531 19.355469 10.820312 C 20.429688 10.347656 20.992188 9.621094 20.992188 9.621094 C 20.992188 9.621094 20.238281 8.710938 19.125 8.007812 C 18.015625 7.304688 17.078125 6.832031 17.078125 6.832031 L 22.324219 6.832031 C 22.324219 6.832031 22.960938 6.832031 23.152344 7.007812 C 23.347656 7.179688 23.347656 7.539062 23.347656 7.539062 Z M 23.347656 7.539062 "/>
<path style=" stroke:none;fill-rule:nonzero;fill:rgb(8.627451%,7.843137%,7.45098%);fill-opacity:1;" d="M 23.570312 7.066406 C 23.570312 7.066406 23.90625 6.878906 23.90625 6.304688 C 23.90625 5.867188 23.492188 5.355469 23.15625 5.109375 C 22.820312 4.863281 22.085938 4.40625 20.882812 4.007812 C 19.679688 3.605469 17.140625 2.980469 14.960938 2.527344 C 12.777344 2.070312 9.21875 1.484375 9.21875 1.484375 L 9.542969 1.957031 L 7.191406 4.503906 L 15.539062 5.167969 L 15.46875 5.261719 L 9.878906 5.261719 L 10.292969 5.679688 L 9.390625 7.296875 L 14.09375 6.3125 L 13.960938 6.445312 L 8.46875 8.320312 L 8.9375 8.628906 C 8.9375 8.628906 8.765625 8.953125 8.652344 9.632812 C 8.539062 10.316406 8.460938 10.960938 8.460938 10.960938 L 13.167969 8.054688 L 13.148438 8.167969 L 7.960938 12.34375 L 8.449219 12.472656 C 8.449219 12.472656 8.46875 13.363281 8.558594 13.894531 C 8.652344 14.425781 8.804688 15.03125 8.804688 15.03125 L 13.054688 9.988281 L 13.054688 10.160156 L 8.859375 16.382812 L 9.273438 16.382812 C 9.273438 16.382812 9.5 17.046875 10.027344 17.726562 C 10.554688 18.414062 11.324219 18.964844 11.324219 18.964844 C 11.324219 18.964844 11.035156 18.367188 11.152344 17.367188 C 11.226562 16.726562 11.867188 15.664062 12.167969 15.058594 C 12.472656 14.453125 16.308594 6.804688 16.308594 6.804688 L 15.574219 6.40625 L 22.707031 6.40625 C 22.707031 6.40625 23.140625 6.464844 23.347656 6.632812 C 23.550781 6.800781 23.570312 7.066406 23.570312 7.066406 Z M 23.570312 7.066406 "/>
<path style=" stroke:none;fill-rule:nonzero;fill:rgb(100%,100%,100%);fill-opacity:1;" d="M 23.628906 6.59375 C 23.628906 6.59375 23.722656 6.234375 23.554688 5.925781 C 23.386719 5.621094 23.007812 5.414062 23.007812 5.414062 L 23.082031 5.792969 L 21.128906 6.039062 L 21.054688 6.152344 L 22.949219 6.152344 C 22.949219 6.152344 23.144531 6.164062 23.367188 6.296875 C 23.546875 6.410156 23.628906 6.59375 23.628906 6.59375 Z M 22.707031 5.585938 C 22.707031 5.585938 22.503906 5.300781 22.164062 5.09375 C 21.828125 4.886719 21.222656 4.601562 21.222656 4.601562 C 21.222656 4.601562 21.636719 4.953125 21.839844 5.199219 C 22.046875 5.445312 22.105469 5.566406 22.105469 5.566406 Z M 22.707031 5.585938 "/>
<path style=" stroke:none;fill-rule:nonzero;fill:rgb(69.019608%,9.019608%,25.882353%);fill-opacity:1;" d="M 20.46875 4.957031 C 20.46875 4.957031 17.957031 4.273438 15.050781 3.707031 C 12.140625 3.132812 9.992188 2.792969 9.992188 2.792969 L 9.332031 3.574219 L 20.449219 5.089844 Z M 13.714844 5.8125 L 10.703125 5.871094 L 10.320312 6.558594 L 13.675781 5.914062 Z M 12.691406 7.582031 L 9.425781 8.769531 L 9.210938 9.640625 L 12.636719 7.714844 Z M 12.234375 9.804688 L 9.058594 12.503906 C 9.058594 12.503906 9.070312 12.855469 9.097656 13.027344 C 9.128906 13.199219 9.171875 13.40625 9.171875 13.40625 L 12.238281 9.953125 Z M 12.800781 11.980469 C 12.800781 11.980469 11.890625 13.339844 11.269531 14.292969 C 10.652344 15.253906 10.039062 16.175781 10.039062 16.175781 C 10.039062 16.175781 10.183594 16.460938 10.273438 16.613281 C 10.367188 16.765625 10.519531 16.953125 10.519531 16.953125 L 12.867188 12.066406 Z M 12.800781 11.980469 "/>
<path style=" stroke:none;fill-rule:nonzero;fill:rgb(8.627451%,7.843137%,7.45098%);fill-opacity:1;" d="M 16.574219 6.953125 C 16.574219 6.953125 18.238281 7.777344 19.128906 8.382812 C 20.023438 8.988281 20.636719 9.640625 20.636719 9.640625 C 20.636719 9.640625 20.445312 9.929688 19.996094 10.222656 C 19.546875 10.519531 19.070312 10.59375 19.070312 10.59375 C 19.070312 10.59375 19.429688 10.273438 19.457031 10.109375 C 19.488281 9.949219 19.417969 9.914062 19.328125 9.914062 L 18.289062 9.914062 C 18.289062 9.914062 18.121094 10.035156 18.128906 10.292969 C 18.140625 10.550781 18.261719 10.710938 18.261719 10.710938 C 18.261719 10.710938 17.933594 10.664062 17.695312 10.386719 C 17.464844 10.109375 17.464844 9.914062 17.464844 9.914062 L 15.320312 9.914062 L 16.667969 7.246094 Z M 16.574219 6.953125 "/>
<path style=" stroke:none;fill-rule:nonzero;fill:rgb(69.019608%,9.019608%,25.882353%);fill-opacity:1;" d="M 16.351562 9.066406 L 18.746094 9.433594 L 18.6875 9.550781 L 16.082031 9.550781 Z M 16.351562 9.066406 "/>
</g>
</svg>
