<?xml version="1.0" encoding="UTF-8"?>
<svg xmlns="http://www.w3.org/2000/svg" xmlns:xlink="http://www.w3.org/1999/xlink" width="28pt" height="20pt" viewBox="0 0 28 20" version="1.1">
<g id="surface1">
<path style=" stroke:none;fill-rule:nonzero;fill:rgb(81.960784%,70.196078%,21.176471%);fill-opacity:1;" d="M 20.839844 5.644531 C 20.839844 6.195312 20.621094 6.539062 20.621094 6.539062 C 20.375 5.636719 19.117188 4.4375 19.117188 4.4375 C 19.335938 4.71875 19.269531 5.285156 19.269531 5.285156 C 19.183594 5.21875 18.570312 4.800781 18.570312 4.800781 C 17.34375 3.921875 15.328125 2.996094 12.230469 2.996094 C 4.40625 2.996094 1.101562 8.078125 0.960938 8.296875 C 0.960938 8.296875 0.203125 9.398438 0 10.019531 L 1.671875 9.007812 C 1.683594 9 3.054688 8.15625 5.183594 8.15625 C 5.347656 8.15625 5.742188 8.175781 5.828125 8.359375 C 6.035156 8.792969 5.382812 10.117188 4.640625 11.074219 L 3.046875 13.136719 L 5.300781 11.835938 C 5.308594 11.832031 6.207031 11.320312 7.707031 11.320312 C 8.003906 11.320312 8.136719 11.367188 8.175781 11.386719 C 8.167969 11.472656 8.089844 11.648438 8.007812 11.765625 L 6.90625 13.269531 L 8.617188 12.550781 C 8.632812 12.542969 9.679688 12.109375 11.183594 12.109375 C 12.0625 12.109375 12.671875 12.285156 12.839844 12.585938 C 12.996094 12.867188 12.804688 13.320312 12.722656 13.460938 L 12.367188 14.054688 L 13.035156 14.222656 C 13.109375 14.242188 13.207031 14.265625 13.585938 14.1875 C 13.585938 14.242188 13.582031 14.296875 13.582031 14.347656 C 13.582031 15.222656 13.996094 15.890625 14.023438 15.929688 L 14.6875 17.003906 L 14.945312 15.777344 C 15.175781 14.691406 16.03125 14.222656 16.566406 14.027344 L 16.71875 14.609375 L 17.25 14.390625 C 17.730469 14.195312 18.519531 13.617188 18.8125 13.398438 C 19.046875 13.355469 19.65625 13.257812 20.40625 13.257812 C 20.847656 13.257812 21.359375 13.296875 21.910156 13.34375 C 22.59375 13.398438 23.378906 13.460938 24.214844 13.460938 C 25.414062 13.460938 26.515625 13.25 26.972656 13.152344 C 27.085938 13.230469 27.949219 13.808594 27.949219 13.808594 L 27.992188 12.898438 C 28 12.824219 28 12.746094 28 12.667969 C 28 10.765625 26.835938 9.554688 25.566406 8.863281 L 25.644531 8.855469 L 24.277344 7.996094 C 24.089844 7.875 23.714844 7.785156 23.351562 7.714844 L 23.417969 7.574219 L 22.808594 7.414062 C 22.210938 7.25 21.703125 7.230469 21.3125 7.257812 C 21.507812 6.292969 20.839844 5.644531 20.839844 5.644531 Z M 20.839844 5.644531 "/>
<path style=" stroke:none;fill-rule:nonzero;fill:rgb(0%,0%,0%);fill-opacity:1;" d="M 1.398438 8.582031 C 1.398438 8.582031 4.601562 3.523438 12.234375 3.523438 C 17.855469 3.523438 19.734375 6.683594 19.734375 6.683594 C 19.734375 6.683594 19.835938 6.203125 19.699219 5.964844 C 19.699219 5.964844 20.34375 6.648438 20.375 7.476562 C 20.375 7.476562 20.75 7.097656 20.75 6.957031 C 20.75 6.957031 20.925781 7.546875 20.75 7.886719 C 20.75 7.886719 21.535156 7.617188 22.691406 7.921875 L 22.585938 8.132812 C 22.585938 8.132812 23.742188 8.273438 24.023438 8.441406 C 24.023438 8.441406 23.378906 8.476562 23.378906 8.652344 C 23.378906 8.652344 27.671875 9.304688 27.5 12.886719 L 27.089844 12.613281 C 27.089844 12.613281 25.726562 12.957031 24.230469 12.957031 C 22.734375 12.957031 21.4375 12.753906 20.410156 12.753906 L 18.605469 12.929688 C 18.605469 12.929688 17.578125 13.71875 17.070312 13.929688 L 16.933594 13.410156 C 16.933594 13.410156 14.855469 13.71875 14.445312 15.683594 C 14.445312 15.683594 13.765625 14.621094 14.273438 13.515625 C 14.273438 13.515625 13.28125 13.789062 13.152344 13.753906 C 13.152344 13.753906 14.445312 11.621094 11.175781 11.621094 C 9.539062 11.621094 8.417969 12.101562 8.417969 12.101562 C 8.417969 12.101562 9.375 10.828125 7.707031 10.828125 L 5.042969 11.417969 C 5.042969 11.417969 7.941406 7.667969 5.183594 7.667969 C 2.863281 7.652344 1.398438 8.582031 1.398438 8.582031 Z M 1.398438 8.582031 "/>
<path style=" stroke:none;fill-rule:nonzero;fill:rgb(100%,100%,100%);fill-opacity:1;" d="M 18.5 8.996094 C 18.5 8.996094 16.253906 8.582031 15.277344 9.148438 C 15.277344 9.148438 17.777344 9.148438 18.753906 9.71875 C 18.753906 9.71875 14.308594 9.09375 12.46875 10.59375 C 12.46875 10.59375 15.179688 9.917969 17.273438 10.128906 C 17.273438 10.128906 16.503906 10.4375 17.324219 10.957031 C 18.140625 11.472656 18.652344 11.570312 18.445312 12.453125 L 18.867188 11.816406 L 19.34375 12.296875 C 19.34375 12.296875 20.570312 12.195312 21.421875 12.296875 C 22.277344 12.402344 23.433594 12.507812 24.082031 12.507812 C 24.726562 12.507812 26.5 12.269531 26.5 12.269531 C 26.5 12.269531 22.785156 10.792969 19.449219 10.792969 C 19.074219 10.792969 18.664062 10.863281 18.902344 11.273438 C 18.902344 11.273438 17.742188 10.703125 17.742188 10.386719 L 18.632812 10.242188 C 19.039062 10.242188 26.398438 10.996094 27.148438 12.339844 C 27.148438 12.339844 27.148438 9.273438 21.046875 8.660156 L 21.730469 9.246094 L 20.640625 9.144531 L 21.285156 9.730469 C 21.292969 9.71875 19.585938 9.128906 18.5 8.996094 Z M 18.5 8.996094 "/>
<path style=" stroke:none;fill-rule:nonzero;fill:rgb(17.647059%,12.54902%,38.431373%);fill-opacity:1;" d="M 3.117188 7.441406 C 3.117188 7.441406 6.492188 4.035156 12.214844 4.035156 C 17.222656 4.035156 19.371094 6.875 19.371094 6.875 C 19.371094 6.875 20.292969 8.269531 19.78125 8.785156 C 19.269531 9.304688 19.171875 7.496094 17.886719 7.085938 L 18.960938 7.449219 C 18.960938 7.449219 17.785156 5.902344 15.796875 6.257812 C 15.796875 6.257812 16.921875 6.519531 17.222656 6.875 C 17.222656 6.875 14.722656 7.132812 14.621094 7.335938 C 14.621094 7.335938 16.558594 7.75 16.664062 8.058594 C 16.664062 8.058594 14.828125 8.105469 14.316406 8.574219 C 14.316406 8.574219 17.738281 8.730469 18.507812 8.988281 C 18.507812 8.988281 16.253906 8.574219 15.285156 9.144531 C 15.285156 9.144531 17.785156 9.144531 18.753906 9.710938 C 18.753906 9.710938 14.308594 9.085938 12.46875 10.582031 C 12.46875 10.582031 15.179688 9.910156 17.273438 10.121094 C 17.273438 10.121094 16.503906 10.429688 17.324219 10.949219 C 18.140625 11.464844 18.652344 11.5625 18.445312 12.445312 C 18.445312 12.445312 18.035156 13.070312 17.417969 13.320312 L 17.371094 12.597656 C 17.371094 12.597656 15.429688 12.753906 14.554688 14.558594 C 14.554688 14.558594 14.710938 13.058594 15.121094 12.703125 L 13.996094 13.070312 C 13.996094 13.070312 15.121094 11.210938 12.3125 11.054688 L 9.347656 11.359375 C 9.347656 11.359375 9.707031 9.96875 6.535156 10.535156 C 6.542969 10.542969 9.554688 5.53125 3.117188 7.441406 Z M 3.117188 7.441406 "/>
<path style=" stroke:none;fill-rule:nonzero;fill:rgb(100%,100%,100%);fill-opacity:1;" d="M 14.601562 5.285156 C 14.285156 4.824219 13.527344 4.609375 12.261719 4.609375 C 8.703125 4.609375 6.6875 5.628906 6.605469 5.671875 L 5.238281 6.433594 L 6.816406 6.25 C 6.84375 6.246094 9.054688 5.757812 10.808594 5.710938 C 8.445312 6.011719 7.609375 9.945312 7.570312 10.121094 L 7.488281 10.511719 L 11.148438 10.332031 L 11.238281 10.210938 C 11.390625 10.046875 12.453125 9.546875 13.351562 9.183594 L 13.460938 9.132812 L 13.789062 8.414062 L 13.792969 8.371094 C 13.800781 8.335938 13.800781 8.296875 13.800781 8.261719 C 13.800781 8.0625 13.734375 7.886719 13.601562 7.734375 C 13.433594 7.546875 13.179688 7.414062 12.902344 7.316406 C 14.28125 6.972656 14.671875 6.011719 14.6875 5.972656 C 14.710938 5.921875 14.820312 5.613281 14.601562 5.285156 Z M 10 9.484375 C 10.183594 8.972656 10.578125 8.078125 10.675781 7.8125 C 10.871094 7.8125 11.859375 7.757812 11.859375 8.34375 C 11.859375 8.609375 11.414062 9.492188 10 9.484375 Z M 10.996094 7.058594 C 11.175781 6.695312 11.503906 5.839844 11.578125 5.691406 C 11.816406 5.726562 12.714844 5.820312 12.660156 6.210938 C 12.589844 6.695312 12.097656 7.0625 11.976562 7.121094 Z M 10.996094 7.058594 "/>
<path style=" stroke:none;fill-rule:nonzero;fill:rgb(81.960784%,70.196078%,21.176471%);fill-opacity:1;" d="M 11.496094 7.394531 L 10.578125 7.34375 L 11.132812 6 C 8.730469 5.949219 7.863281 10.179688 7.863281 10.179688 L 10.980469 10.023438 C 11.183594 9.71875 13.226562 8.890625 13.226562 8.890625 L 13.480469 8.324219 C 13.609375 7.425781 11.496094 7.394531 11.496094 7.394531 Z M 12.160156 8.476562 C 11.667969 9.8125 9.859375 9.820312 9.554688 9.820312 L 10.539062 7.503906 C 10.539062 7.496094 12.546875 7.414062 12.160156 8.476562 Z M 12.261719 4.914062 C 8.738281 4.914062 6.742188 5.949219 6.742188 5.949219 C 6.742188 5.949219 9.964844 5.230469 11.800781 5.433594 C 14.199219 5.699219 12.414062 7.085938 12.414062 7.085938 C 14.003906 6.875 14.410156 5.847656 14.410156 5.847656 C 14.410156 5.847656 14.765625 4.914062 12.261719 4.914062 Z M 12.261719 4.914062 "/>
<path style=" stroke:none;fill-rule:nonzero;fill:rgb(77.647059%,20%,17.254902%);fill-opacity:1;" d="M 18.261719 7.9375 C 18.261719 7.640625 18.003906 7.398438 17.679688 7.398438 C 17.359375 7.398438 17.101562 7.640625 17.101562 7.9375 C 17.101562 8.234375 17.359375 8.476562 17.679688 8.476562 C 18.003906 8.476562 18.261719 8.234375 18.261719 7.9375 Z M 18.261719 7.9375 "/>
<path style=" stroke:none;fill-rule:nonzero;fill:rgb(100%,100%,100%);fill-opacity:1;" d="M 18.324219 8.03125 C 18.324219 7.722656 18.089844 7.476562 17.800781 7.476562 C 17.507812 7.476562 17.273438 7.722656 17.273438 8.03125 C 17.273438 8.332031 17.507812 8.582031 17.800781 8.582031 C 18.089844 8.582031 18.324219 8.332031 18.324219 8.03125 Z M 18.324219 8.03125 "/>
<path style=" stroke:none;fill-rule:nonzero;fill:rgb(77.647059%,20%,17.254902%);fill-opacity:1;" d="M 18.324219 8.0625 C 18.324219 7.835938 18.136719 7.652344 17.90625 7.652344 C 17.667969 7.652344 17.480469 7.835938 17.480469 8.0625 C 17.480469 8.292969 17.667969 8.476562 17.90625 8.476562 C 18.136719 8.476562 18.324219 8.292969 18.324219 8.0625 Z M 18.324219 8.0625 "/>
<path style=" stroke:none;fill-rule:nonzero;fill:rgb(0%,0%,0%);fill-opacity:1;" d="M 18.363281 8.042969 C 18.363281 7.824219 18.199219 7.644531 18 7.644531 C 17.800781 7.644531 17.640625 7.824219 17.640625 8.042969 C 17.640625 8.261719 17.800781 8.441406 18 8.441406 C 18.199219 8.441406 18.363281 8.261719 18.363281 8.042969 Z M 18.363281 8.042969 "/>
</g>
</svg>
