<?xml version="1.0" encoding="UTF-8"?>
<svg xmlns="http://www.w3.org/2000/svg" xmlns:xlink="http://www.w3.org/1999/xlink" width="35pt" height="25pt" viewBox="0 0 35 25" version="1.1">
<g id="surface1">
<path style=" stroke:none;fill-rule:nonzero;fill:rgb(81.960784%,70.196078%,21.176471%);fill-opacity:1;" d="M 26.050781 7.054688 C 26.050781 7.746094 25.773438 8.171875 25.773438 8.171875 C 25.46875 7.042969 23.894531 5.546875 23.894531 5.546875 C 24.171875 5.898438 24.085938 6.605469 24.085938 6.605469 C 23.980469 6.523438 23.210938 6.003906 23.210938 6.003906 C 21.675781 4.902344 19.160156 3.746094 15.289062 3.746094 C 5.507812 3.746094 1.378906 10.097656 1.203125 10.371094 C 1.203125 10.371094 0.253906 11.75 0 12.523438 L 2.085938 11.261719 C 2.105469 11.25 3.820312 10.195312 6.476562 10.195312 C 6.6875 10.195312 7.179688 10.21875 7.285156 10.449219 C 7.542969 10.992188 6.726562 12.644531 5.800781 13.839844 L 3.808594 16.421875 L 6.625 14.792969 C 6.636719 14.789062 7.757812 14.148438 9.632812 14.148438 C 10.003906 14.148438 10.167969 14.210938 10.21875 14.234375 C 10.210938 14.339844 10.113281 14.558594 10.011719 14.710938 L 8.632812 16.589844 L 10.773438 15.6875 C 10.789062 15.679688 12.097656 15.136719 13.980469 15.136719 C 15.078125 15.136719 15.839844 15.355469 16.050781 15.730469 C 16.246094 16.082031 16.003906 16.648438 15.902344 16.824219 L 15.457031 17.570312 L 16.292969 17.777344 C 16.386719 17.804688 16.507812 17.832031 16.980469 17.734375 C 16.980469 17.804688 16.976562 17.875 16.976562 17.933594 C 16.976562 19.027344 17.496094 19.863281 17.527344 19.914062 L 18.359375 21.253906 L 18.679688 19.722656 C 18.96875 18.367188 20.039062 17.777344 20.707031 17.535156 L 20.898438 18.257812 L 21.5625 17.988281 C 22.164062 17.742188 23.148438 17.019531 23.515625 16.746094 C 23.808594 16.695312 24.570312 16.570312 25.507812 16.570312 C 26.0625 16.570312 26.699219 16.621094 27.386719 16.675781 C 28.246094 16.746094 29.222656 16.824219 30.269531 16.824219 C 31.765625 16.824219 33.144531 16.5625 33.714844 16.441406 C 33.855469 16.539062 34.9375 17.261719 34.9375 17.261719 L 34.988281 16.125 C 35 16.027344 35 15.933594 35 15.835938 C 35 13.457031 33.542969 11.945312 31.957031 11.078125 L 32.054688 11.070312 L 30.347656 9.992188 C 30.113281 9.84375 29.644531 9.730469 29.1875 9.640625 L 29.273438 9.46875 L 28.511719 9.265625 C 27.765625 9.0625 27.128906 9.039062 26.640625 9.074219 C 26.882812 7.867188 26.050781 7.054688 26.050781 7.054688 Z M 26.050781 7.054688 "/>
<path style=" stroke:none;fill-rule:nonzero;fill:rgb(0%,0%,0%);fill-opacity:1;" d="M 1.75 10.726562 C 1.75 10.726562 5.75 4.402344 15.292969 4.402344 C 22.320312 4.402344 24.667969 8.355469 24.667969 8.355469 C 24.667969 8.355469 24.796875 7.753906 24.621094 7.453125 C 24.621094 7.453125 25.429688 8.3125 25.46875 9.34375 C 25.46875 9.34375 25.9375 8.871094 25.9375 8.699219 C 25.9375 8.699219 26.15625 9.433594 25.9375 9.859375 C 25.9375 9.859375 26.917969 9.523438 28.363281 9.90625 L 28.234375 10.167969 C 28.234375 10.167969 29.679688 10.34375 30.027344 10.554688 C 30.027344 10.554688 29.222656 10.59375 29.222656 10.8125 C 29.222656 10.8125 34.589844 11.628906 34.375 16.105469 L 33.863281 15.765625 C 33.863281 15.765625 32.15625 16.195312 30.289062 16.195312 C 28.414062 16.195312 26.796875 15.941406 25.515625 15.941406 L 23.257812 16.160156 C 23.257812 16.160156 21.972656 17.148438 21.339844 17.410156 L 21.167969 16.761719 C 21.167969 16.761719 18.566406 17.148438 18.058594 19.605469 C 18.058594 19.605469 17.207031 18.277344 17.839844 16.894531 C 17.839844 16.894531 16.601562 17.238281 16.4375 17.191406 C 16.4375 17.191406 18.058594 14.523438 13.96875 14.523438 C 11.925781 14.523438 10.523438 15.128906 10.523438 15.128906 C 10.523438 15.128906 11.714844 13.539062 9.632812 13.539062 L 6.304688 14.273438 C 6.304688 14.273438 9.925781 9.582031 6.476562 9.582031 C 3.578125 9.5625 1.75 10.726562 1.75 10.726562 Z M 1.75 10.726562 "/>
<path style=" stroke:none;fill-rule:nonzero;fill:rgb(100%,100%,100%);fill-opacity:1;" d="M 23.125 11.246094 C 23.125 11.246094 20.316406 10.726562 19.097656 11.4375 C 19.097656 11.4375 22.222656 11.4375 23.445312 12.144531 C 23.445312 12.144531 17.882812 11.367188 15.589844 13.238281 C 15.589844 13.238281 18.972656 12.398438 21.589844 12.664062 C 21.589844 12.664062 20.632812 13.046875 21.652344 13.695312 C 22.675781 14.339844 23.3125 14.464844 23.054688 15.566406 L 23.582031 14.769531 L 24.183594 15.371094 C 24.183594 15.371094 25.710938 15.242188 26.777344 15.371094 C 27.84375 15.503906 29.289062 15.636719 30.101562 15.636719 C 30.910156 15.636719 33.128906 15.335938 33.128906 15.335938 C 33.128906 15.335938 28.484375 13.492188 24.3125 13.492188 C 23.84375 13.492188 23.332031 13.578125 23.628906 14.09375 C 23.628906 14.09375 22.179688 13.378906 22.179688 12.984375 L 23.289062 12.800781 C 23.800781 12.800781 32.996094 13.746094 33.933594 15.425781 C 33.933594 15.425781 33.933594 11.59375 26.308594 10.824219 L 27.160156 11.558594 L 25.800781 11.429688 L 26.605469 12.164062 C 26.613281 12.144531 24.484375 11.410156 23.125 11.246094 Z M 23.125 11.246094 "/>
<path style=" stroke:none;fill-rule:nonzero;fill:rgb(17.647059%,12.54902%,38.431373%);fill-opacity:1;" d="M 3.898438 9.304688 C 3.898438 9.304688 8.117188 5.042969 15.269531 5.042969 C 21.53125 5.042969 24.214844 8.59375 24.214844 8.59375 C 24.214844 8.59375 25.367188 10.335938 24.726562 10.980469 C 24.085938 11.628906 23.964844 9.371094 22.359375 8.855469 L 23.703125 9.308594 C 23.703125 9.308594 22.230469 7.375 19.746094 7.824219 C 19.746094 7.824219 21.152344 8.148438 21.53125 8.59375 C 21.53125 8.59375 18.402344 8.917969 18.273438 9.171875 C 18.273438 9.171875 20.699219 9.6875 20.828125 10.074219 C 20.828125 10.074219 18.535156 10.132812 17.894531 10.71875 C 17.894531 10.71875 22.171875 10.914062 23.132812 11.234375 C 23.132812 11.234375 20.316406 10.71875 19.105469 11.429688 C 19.105469 11.429688 22.230469 11.429688 23.445312 12.136719 C 23.445312 12.136719 17.882812 11.355469 15.589844 13.230469 C 15.589844 13.230469 18.972656 12.390625 21.59375 12.652344 C 21.59375 12.652344 20.632812 13.039062 21.652344 13.683594 C 22.675781 14.332031 23.3125 14.453125 23.054688 15.554688 C 23.054688 15.554688 22.546875 16.335938 21.773438 16.648438 L 21.710938 15.746094 C 21.710938 15.746094 19.289062 15.941406 18.195312 18.199219 C 18.195312 18.199219 18.386719 16.324219 18.898438 15.882812 L 17.496094 16.335938 C 17.496094 16.335938 18.898438 14.015625 15.390625 13.816406 L 11.683594 14.199219 C 11.683594 14.199219 12.132812 12.460938 8.167969 13.167969 C 8.175781 13.179688 11.941406 6.914062 3.898438 9.304688 Z M 3.898438 9.304688 "/>
<path style=" stroke:none;fill-rule:nonzero;fill:rgb(100%,100%,100%);fill-opacity:1;" d="M 18.25 6.605469 C 17.855469 6.03125 16.90625 5.761719 15.328125 5.761719 C 10.878906 5.761719 8.359375 7.039062 8.253906 7.089844 L 6.546875 8.042969 L 8.523438 7.8125 C 8.554688 7.808594 11.320312 7.195312 13.511719 7.140625 C 10.558594 7.515625 9.507812 12.433594 9.464844 12.652344 L 9.363281 13.140625 L 13.933594 12.914062 L 14.046875 12.765625 C 14.238281 12.554688 15.5625 11.933594 16.6875 11.480469 L 16.828125 11.417969 L 17.234375 10.515625 L 17.242188 10.464844 C 17.253906 10.421875 17.253906 10.371094 17.253906 10.324219 C 17.253906 10.078125 17.167969 9.859375 17.003906 9.667969 C 16.792969 9.433594 16.472656 9.265625 16.128906 9.144531 C 17.851562 8.714844 18.34375 7.515625 18.359375 7.464844 C 18.386719 7.402344 18.527344 7.015625 18.25 6.605469 Z M 12.5 11.855469 C 12.730469 11.21875 13.222656 10.101562 13.347656 9.765625 C 13.589844 9.765625 14.824219 9.695312 14.824219 10.429688 C 14.828125 10.761719 14.265625 11.867188 12.5 11.855469 Z M 13.742188 8.820312 C 13.96875 8.367188 14.378906 7.296875 14.472656 7.117188 C 14.769531 7.15625 15.890625 7.273438 15.824219 7.761719 C 15.734375 8.367188 15.125 8.828125 14.972656 8.898438 Z M 13.742188 8.820312 "/>
<path style=" stroke:none;fill-rule:nonzero;fill:rgb(81.960784%,70.196078%,21.176471%);fill-opacity:1;" d="M 14.367188 9.242188 L 13.222656 9.179688 L 13.917969 7.5 C 10.914062 7.4375 9.832031 12.722656 9.832031 12.722656 L 13.726562 12.527344 C 13.980469 12.144531 16.535156 11.113281 16.535156 11.113281 L 16.851562 10.402344 C 17.007812 9.28125 14.367188 9.242188 14.367188 9.242188 Z M 15.199219 10.59375 C 14.582031 12.265625 12.324219 12.277344 11.941406 12.277344 L 13.171875 9.382812 C 13.171875 9.371094 15.683594 9.265625 15.199219 10.59375 Z M 15.328125 6.144531 C 10.921875 6.144531 8.425781 7.4375 8.425781 7.4375 C 8.425781 7.4375 12.453125 6.539062 14.75 6.792969 C 17.746094 7.125 15.519531 8.855469 15.519531 8.855469 C 17.503906 8.59375 18.015625 7.308594 18.015625 7.308594 C 18.015625 7.308594 18.457031 6.144531 15.328125 6.144531 Z M 15.328125 6.144531 "/>
<path style=" stroke:none;fill-rule:nonzero;fill:rgb(77.647059%,20%,17.254902%);fill-opacity:1;" d="M 22.828125 9.921875 C 22.828125 9.550781 22.503906 9.25 22.101562 9.25 C 21.703125 9.25 21.375 9.550781 21.375 9.921875 C 21.375 10.292969 21.703125 10.59375 22.101562 10.59375 C 22.503906 10.59375 22.828125 10.292969 22.828125 9.921875 Z M 22.828125 9.921875 "/>
<path style=" stroke:none;fill-rule:nonzero;fill:rgb(100%,100%,100%);fill-opacity:1;" d="M 22.90625 10.039062 C 22.90625 9.65625 22.613281 9.34375 22.25 9.34375 C 21.886719 9.34375 21.59375 9.65625 21.59375 10.039062 C 21.59375 10.417969 21.886719 10.726562 22.25 10.726562 C 22.613281 10.726562 22.90625 10.417969 22.90625 10.039062 Z M 22.90625 10.039062 "/>
<path style=" stroke:none;fill-rule:nonzero;fill:rgb(77.647059%,20%,17.254902%);fill-opacity:1;" d="M 22.90625 10.078125 C 22.90625 9.796875 22.671875 9.5625 22.382812 9.5625 C 22.085938 9.5625 21.851562 9.796875 21.851562 10.078125 C 21.851562 10.367188 22.085938 10.59375 22.382812 10.59375 C 22.671875 10.59375 22.90625 10.367188 22.90625 10.078125 Z M 22.90625 10.078125 "/>
<path style=" stroke:none;fill-rule:nonzero;fill:rgb(0%,0%,0%);fill-opacity:1;" d="M 22.953125 10.054688 C 22.953125 9.777344 22.75 9.554688 22.5 9.554688 C 22.25 9.554688 22.050781 9.777344 22.050781 10.054688 C 22.050781 10.328125 22.25 10.554688 22.5 10.554688 C 22.75 10.554688 22.953125 10.328125 22.953125 10.054688 Z M 22.953125 10.054688 "/>
</g>
</svg>
