<?xml version="1.0" encoding="UTF-8"?>
<svg xmlns="http://www.w3.org/2000/svg" xmlns:xlink="http://www.w3.org/1999/xlink" width="28pt" height="20pt" viewBox="0 0 28 20" version="1.1">
<g id="surface1">
<path style=" stroke:none;fill-rule:nonzero;fill:rgb(100%,100%,100%);fill-opacity:1;" d="M 27.75 3.363281 C 27.34375 2.617188 25.820312 2.34375 24.730469 2.425781 C 24.027344 1.453125 23.101562 0.59375 21.90625 0.0625 C 21.878906 0.132812 21.835938 0.238281 21.808594 0.320312 C 21.464844 0.21875 20.671875 0.0273438 20.019531 0.0195312 L 20.011719 0.242188 C 19.308594 0.335938 18.320312 0.460938 17.988281 0.53125 C 18.039062 0.699219 18.050781 0.78125 18.09375 0.886719 C 15.695312 1.546875 13.507812 2.804688 11.539062 4.488281 C 11.625 4.515625 11.683594 4.550781 11.714844 4.558594 C 9.574219 5.363281 8.003906 6.613281 6.636719 7.882812 C 5.027344 8.128906 2.125 8.503906 2.125 8.503906 L 0 12.699219 L 5.632812 11.519531 C 5.164062 12.84375 3.878906 14.019531 2.695312 14.816406 C 2.539062 15.632812 2.117188 16.398438 1.367188 16.886719 C 1.714844 17.28125 1.285156 17.773438 1.222656 18.183594 C 1.699219 18.800781 2.671875 19.980469 2.671875 19.980469 L 3.273438 17.488281 L 4.480469 16.261719 C 4.40625 16.46875 4.429688 16.707031 4.457031 16.789062 C 4.347656 17.011719 4.050781 17.289062 4.023438 17.671875 C 4.480469 18.265625 5.359375 19.335938 5.359375 19.335938 C 5.359375 19.335938 5.992188 17.65625 6.277344 16.800781 L 11.15625 12.324219 C 11.519531 12.265625 12.421875 12.277344 13.074219 12.296875 L 13.347656 12.03125 L 14.726562 11.925781 C 14.839844 12.105469 14.902344 12.222656 14.976562 12.363281 C 14.726562 12.507812 14.515625 12.617188 14.277344 12.730469 L 13.65625 14.9375 C 13.65625 14.9375 14.847656 14.300781 15.460938 13.976562 C 15.675781 14.015625 16.195312 13.996094 16.464844 13.9375 C 16.332031 14.5625 16.109375 15.859375 16.109375 15.859375 C 16.109375 15.859375 17.167969 15.292969 17.660156 15.035156 C 19.015625 15.042969 20.371094 14.5 20.738281 14.3125 C 21.777344 13.902344 21.472656 11.351562 21.472656 11.351562 C 21.679688 11.328125 21.941406 11.265625 22.140625 11.328125 C 22.730469 11.476562 22.34375 13.664062 22.34375 13.664062 L 23.703125 12.375 L 23.847656 12.5625 C 23.847656 12.5625 24.664062 11.550781 25.027344 11.015625 C 26.023438 11.019531 26.261719 10.398438 26.386719 9.96875 C 26.886719 8.253906 27.464844 8.375 27.683594 7.441406 C 27.820312 7.074219 28.285156 4.257812 27.75 3.363281 Z M 0.703125 12.15625 L 2.351562 8.847656 L 24.648438 5.605469 C 23.964844 5.964844 23.902344 6.746094 24.230469 7.15625 C 18.363281 8.421875 0.703125 12.15625 0.703125 12.15625 Z M 6.128906 16.492188 C 5.816406 17.199219 5.28125 18.6875 5.28125 18.6875 C 5.28125 18.6875 4.667969 17.980469 4.414062 17.636719 C 4.40625 17.375 4.6875 17.105469 4.832031 16.851562 C 4.808594 16.78125 4.792969 16.671875 4.8125 16.601562 C 5.308594 16.246094 5.621094 15.722656 5.726562 15.152344 C 7.410156 12.519531 10.589844 12.394531 10.589844 12.394531 Z M 20.539062 14.019531 C 19.171875 14.699219 17.554688 14.707031 17.554688 14.707031 L 16.597656 15.210938 C 16.597656 15.210938 16.785156 14.320312 16.859375 13.90625 C 17.917969 13.734375 19.410156 13.453125 19.960938 12.617188 C 20.144531 12.34375 20.269531 11.886719 20.394531 11.539062 C 20.640625 11.5 20.847656 11.46875 21.101562 11.433594 C 21.097656 11.433594 21.378906 13.601562 20.539062 14.019531 Z M 27.605469 5.574219 C 27.542969 6.4375 27.425781 7.511719 26.96875 8.023438 C 26.53125 8.523438 26.191406 9.257812 25.933594 10.011719 C 25.804688 10.460938 25.628906 10.664062 24.8125 10.703125 C 24.507812 11.144531 24.214844 11.613281 23.851562 12.011719 L 23.746094 11.863281 C 23.390625 12.199219 23.207031 12.386719 22.820312 12.738281 C 22.863281 12.296875 22.882812 11.695312 22.738281 11.375 C 22.519531 11.019531 22.15625 10.933594 21.785156 10.988281 L 20.082031 11.25 C 19.976562 11.605469 19.863281 12.105469 19.601562 12.46875 C 19.214844 13.378906 16.027344 13.695312 15.460938 13.617188 C 15.058594 13.816406 14.671875 14.0625 14.25 14.257812 C 14.363281 13.832031 14.628906 12.9375 14.628906 12.9375 C 14.628906 12.9375 15.183594 12.65625 15.449219 12.507812 C 15.414062 12.417969 15.394531 12.382812 15.335938 12.25 C 15.824219 12.128906 16.390625 11.886719 16.777344 11.511719 C 16.777344 11.511719 14.3125 11.675781 13.15625 11.757812 C 13.085938 11.84375 13.015625 11.929688 12.929688 11.980469 C 10.296875 11.867188 7.796875 12.222656 5.960938 14.070312 C 5.371094 14.65625 4.726562 15.296875 4.34375 15.96875 C 3.875 16.457031 3.464844 16.867188 2.976562 17.355469 L 2.457031 19.238281 L 1.640625 18.164062 C 1.527344 18.015625 2.03125 17.34375 1.773438 16.996094 C 2.359375 16.574219 2.839844 15.746094 2.976562 15.054688 C 4.175781 14.25 5.652344 12.84375 6.089844 11.417969 C 6.089844 11.417969 24.375 7.472656 24.636719 7.417969 C 24.519531 7.765625 24.585938 8.234375 24.976562 8.417969 C 25.171875 8.460938 25.378906 8.398438 25.539062 8.285156 C 25.453125 8.203125 25.289062 8.09375 25.246094 7.933594 C 25.164062 7.730469 25.28125 7.542969 25.410156 7.398438 C 25.171875 6.882812 25.363281 6.285156 25.675781 5.859375 C 25.898438 5.574219 26.242188 5.25 26.484375 4.988281 L 7.246094 7.773438 C 7.246094 7.773438 9.765625 5.429688 12.558594 4.59375 C 12.480469 4.558594 12.273438 4.476562 12.117188 4.421875 C 14.105469 2.804688 16.332031 1.613281 18.527344 1.097656 C 18.496094 0.984375 18.464844 0.902344 18.425781 0.78125 C 18.496094 0.773438 20.292969 0.503906 20.292969 0.503906 L 20.28125 0.363281 C 20.71875 0.363281 21.640625 0.597656 21.992188 0.71875 L 22.0625 0.5625 C 23.40625 1.160156 24.507812 2.761719 24.507812 2.761719 C 25.394531 2.667969 26.324219 2.773438 27.035156 3.148438 C 27.699219 3.484375 27.664062 4.71875 27.605469 5.574219 Z M 27.605469 5.574219 "/>
<path style=" stroke:none;fill-rule:nonzero;fill:rgb(74.901961%,12.54902%,14.901961%);fill-opacity:1;" d="M 24.648438 5.597656 L 2.351562 8.847656 L 0.703125 12.15625 C 0.703125 12.15625 18.371094 8.421875 24.230469 7.15625 C 23.902344 6.738281 23.964844 5.960938 24.648438 5.597656 Z M 24.648438 5.597656 "/>
<path style=" stroke:none;fill-rule:nonzero;fill:rgb(9.803922%,27.843137%,52.941176%);fill-opacity:1;" d="M 27.042969 3.148438 C 26.328125 2.773438 25.402344 2.667969 24.511719 2.761719 C 24.511719 2.761719 23.414062 1.152344 22.066406 0.5625 L 22 0.71875 C 21.648438 0.597656 20.726562 0.363281 20.289062 0.363281 L 20.300781 0.503906 C 20.300781 0.503906 18.5 0.773438 18.433594 0.78125 C 18.46875 0.902344 18.5 0.984375 18.53125 1.097656 C 16.339844 1.613281 14.105469 2.8125 12.121094 4.421875 C 12.273438 4.476562 12.480469 4.5625 12.566406 4.59375 C 9.777344 5.429688 7.253906 7.773438 7.253906 7.773438 L 26.492188 4.988281 C 26.246094 5.25 25.902344 5.574219 25.683594 5.859375 C 25.371094 6.285156 25.175781 6.882812 25.414062 7.398438 C 25.28125 7.546875 25.171875 7.730469 25.25 7.929688 C 25.296875 8.09375 25.464844 8.203125 25.546875 8.285156 C 25.382812 8.398438 25.171875 8.460938 24.980469 8.417969 C 24.585938 8.234375 24.523438 7.761719 24.644531 7.417969 C 24.386719 7.46875 6.097656 11.417969 6.097656 11.417969 C 5.660156 12.84375 4.175781 14.25 2.984375 15.054688 C 2.847656 15.746094 2.367188 16.570312 1.777344 16.996094 C 2.035156 17.335938 1.535156 18.011719 1.648438 18.164062 L 2.464844 19.238281 L 2.984375 17.355469 C 3.472656 16.863281 3.878906 16.457031 4.347656 15.96875 C 4.730469 15.296875 5.375 14.660156 5.964844 14.070312 C 7.808594 12.222656 10.300781 11.867188 12.9375 11.980469 C 13.023438 11.929688 13.09375 11.84375 13.160156 11.757812 C 14.320312 11.675781 16.785156 11.511719 16.785156 11.511719 C 16.390625 11.886719 15.832031 12.125 15.339844 12.25 C 15.398438 12.382812 15.417969 12.417969 15.460938 12.507812 C 15.191406 12.65625 14.632812 12.9375 14.632812 12.9375 C 14.632812 12.9375 14.371094 13.832031 14.257812 14.257812 C 14.675781 14.0625 15.066406 13.816406 15.464844 13.617188 C 16.03125 13.703125 19.222656 13.378906 19.617188 12.46875 C 19.878906 12.109375 19.984375 11.605469 20.097656 11.25 L 21.796875 10.988281 C 22.160156 10.941406 22.53125 11.019531 22.75 11.375 C 22.894531 11.695312 22.875 12.292969 22.832031 12.738281 C 23.214844 12.394531 23.402344 12.195312 23.757812 11.863281 L 23.863281 12.011719 C 24.234375 11.613281 24.527344 11.144531 24.824219 10.703125 C 25.640625 10.664062 25.816406 10.460938 25.945312 10.011719 C 26.199219 9.25 26.535156 8.523438 26.980469 8.023438 C 27.4375 7.511719 27.558594 6.445312 27.621094 5.574219 C 27.664062 4.71875 27.699219 3.484375 27.042969 3.148438 Z M 20.394531 11.53125 C 20.269531 11.886719 20.144531 12.34375 19.960938 12.613281 C 19.402344 13.453125 17.917969 13.726562 16.859375 13.902344 C 16.777344 14.320312 16.597656 15.203125 16.597656 15.203125 L 17.554688 14.699219 C 17.554688 14.699219 19.171875 14.6875 20.539062 14.015625 C 21.382812 13.597656 21.101562 11.417969 21.101562 11.417969 C 20.847656 11.464844 20.640625 11.5 20.394531 11.53125 Z M 5.726562 15.140625 C 5.621094 15.714844 5.308594 16.230469 4.8125 16.59375 C 4.792969 16.65625 4.808594 16.765625 4.832031 16.839844 C 4.695312 17.101562 4.414062 17.367188 4.414062 17.625 C 4.664062 17.972656 5.28125 18.675781 5.28125 18.675781 C 5.28125 18.675781 5.816406 17.1875 6.128906 16.480469 L 10.597656 12.371094 C 10.589844 12.382812 7.410156 12.507812 5.726562 15.140625 Z M 5.726562 15.140625 "/>
</g>
</svg>
