<?xml version="1.0" encoding="UTF-8"?>
<svg xmlns="http://www.w3.org/2000/svg" xmlns:xlink="http://www.w3.org/1999/xlink" width="35pt" height="25pt" viewBox="0 0 35 25" version="1.1">
<g id="surface1">
<path style=" stroke:none;fill-rule:nonzero;fill:rgb(0%,0%,0%);fill-opacity:1;" d="M 32.058594 4.957031 C 32.066406 4.941406 32.066406 4.921875 32.074219 4.90625 L 32.085938 4.863281 C 32.035156 4.71875 31.933594 4.707031 31.71875 4.722656 C 31.414062 4.78125 31.125 4.816406 30.886719 4.84375 L 30.84375 4.847656 L 30.820312 4.851562 C 30.78125 4.855469 30.75 4.855469 30.710938 4.859375 L 30.695312 4.859375 C 30.386719 4.882812 30.191406 4.886719 30.191406 4.886719 C 30.984375 5.484375 31.078125 6.410156 31.078125 6.410156 L 31.117188 6.378906 C 31.726562 5.933594 32.058594 4.957031 32.058594 4.957031 "/>
<path style=" stroke:none;fill-rule:nonzero;fill:rgb(81.960784%,82.745098%,83.137255%);fill-opacity:1;" d="M 23.804688 9.878906 C 24.199219 11.035156 23.535156 12.585938 23.535156 12.585938 C 24.40625 11.84375 25.089844 10.3125 25.089844 10.3125 C 26.519531 10.023438 27.308594 10.3125 27.308594 10.3125 C 27.492188 11.429688 27.078125 12.335938 27.078125 12.335938 C 27.90625 11.675781 28.277344 9.917969 28.277344 9.917969 C 28.277344 9.917969 27.949219 9.613281 26.480469 9.507812 C 25.007812 9.40625 23.804688 9.878906 23.804688 9.878906 M 24.878906 14.300781 C 24.878906 14.300781 24.445312 15.496094 24.003906 15.941406 C 24.003906 15.941406 24.574219 16.253906 25.574219 16.164062 C 26.570312 16.070312 26.8125 15.703125 26.90625 15.335938 C 27 14.964844 26.90625 14.449219 26.738281 14.0625 C 26.738281 14.0625 26.816406 15.039062 26.128906 15.535156 C 26.128906 15.535156 25.390625 15.691406 24.910156 15.542969 C 24.910156 15.542969 25.101562 15.148438 24.878906 14.300781 "/>
<path style=" stroke:none;fill-rule:nonzero;fill:rgb(81.960784%,82.745098%,83.137255%);fill-opacity:1;" d="M 22.523438 4.988281 L 22.554688 4.992188 L 22.523438 4.988281 C 21.921875 4.875 21.664062 5.328125 21.664062 5.328125 C 21.472656 5.609375 21.546875 5.742188 21.546875 5.742188 C 23.40625 5.714844 24.410156 6.007812 24.410156 6.007812 C 24.410156 6.007812 23.71875 5.253906 22.601562 5.003906 Z M 29.945312 5.9375 C 29.703125 5.714844 29.179688 5.417969 28.613281 5.53125 C 28.039062 5.648438 28.003906 6.265625 28.003906 6.265625 C 28.625 5.695312 29.945312 5.9375 29.945312 5.9375 "/>
<path style=" stroke:none;fill-rule:nonzero;fill:rgb(0%,60%,84.705882%);fill-opacity:1;" d="M 16.121094 7.15625 C 16.121094 7.15625 19.183594 6.570312 22.683594 7.394531 C 22.808594 7.28125 22.953125 7.164062 23.121094 7.050781 C 23.121094 7.050781 19.910156 6.164062 16.121094 7.15625 M 16.136719 8.34375 C 16.136719 8.34375 18.820312 7.679688 22.089844 8.128906 C 22.152344 8.003906 22.238281 7.875 22.351562 7.738281 C 21.167969 7.605469 18.773438 7.5 16.136719 8.34375 M 16.203125 9.5 C 16.203125 9.5 18.738281 8.71875 21.9375 8.941406 C 21.921875 8.824219 21.921875 8.6875 21.949219 8.535156 C 20.667969 8.5 18.507812 8.613281 16.203125 9.5 M 8.722656 17.457031 L 8.726562 17.457031 L 8.742188 17.460938 C 8.796875 17.464844 8.976562 17.480469 8.988281 17.484375 C 9.011719 17.484375 9.320312 17.515625 9.320312 17.515625 C 9.753906 17.5625 10.199219 17.628906 10.644531 17.699219 C 11.644531 14.042969 14.46875 12.085938 14.46875 12.085938 C 10.648438 13.925781 9.046875 16.921875 8.722656 17.457031 M 26.726562 12.390625 C 26.488281 11.285156 27.117188 10.53125 27.117188 10.53125 C 25.683594 11.78125 26.554688 13.035156 26.988281 14.011719 C 27.421875 14.984375 27.246094 15.703125 26.816406 16.195312 C 26.378906 16.695312 25.183594 16.734375 24.382812 16.589844 C 23.582031 16.4375 23.167969 15.589844 22.949219 14.597656 C 22.730469 13.601562 23.121094 11.84375 23.121094 11.84375 C 22.539062 12.738281 22.539062 14.550781 22.992188 16.023438 C 23.449219 17.492188 24.640625 17.863281 25.511719 17.863281 C 26.378906 17.863281 27.941406 17.128906 27.703125 15.375 C 27.460938 13.625 26.96875 13.492188 26.726562 12.390625 M 17.390625 13.285156 C 15.890625 11.773438 15.84375 10.058594 15.84375 10.058594 C 15.84375 10.058594 15.328125 12.054688 16.554688 13.550781 C 17.773438 15.042969 20.746094 15.207031 20.746094 15.207031 C 20.746094 15.207031 18.886719 14.796875 17.390625 13.285156 M 24.96875 6.742188 C 26.726562 7.421875 26.703125 8.472656 26.703125 8.472656 C 26.972656 7.464844 28.21875 6.925781 28.21875 6.925781 C 28.21875 6.925781 27.578125 6.617188 26.6875 6.554688 C 25.796875 6.492188 24.96875 6.742188 24.96875 6.742188 M 22.523438 4.988281 C 21.460938 4.777344 20.441406 5.203125 20.394531 5.222656 L 20.390625 5.226562 C 21.367188 5.238281 21.664062 5.328125 21.664062 5.328125 C 21.664062 5.328125 21.921875 4.875 22.523438 4.988281 "/>
<path style=" stroke:none;fill-rule:nonzero;fill:rgb(0%,60%,84.705882%);fill-opacity:1;" d="M 25.972656 18.722656 C 25.960938 18.726562 25.335938 18.941406 24.566406 18.804688 C 24.566406 18.804688 25.589844 19.789062 26.621094 21.941406 L 26.621094 21.945312 L 26.664062 21.941406 C 26.5625 20.960938 26.140625 19.316406 26.046875 19.011719 Z M 25.972656 18.722656 "/>
<path style=" stroke:none;fill-rule:nonzero;fill:rgb(0%,0%,0%);fill-opacity:1;" d="M 30.484375 8.414062 C 30.46875 8.300781 30.433594 8.195312 30.394531 8.113281 C 30.394531 8.113281 30.359375 8.027344 30.261719 7.898438 C 30.171875 7.789062 30.074219 7.707031 29.992188 7.621094 C 29.796875 7.441406 29.453125 7.335938 29.453125 7.335938 C 29.695312 7.515625 29.875 7.777344 29.894531 8.148438 C 29.949219 9.300781 28.761719 9.769531 28.761719 9.769531 C 29.039062 9.578125 29.542969 8.949219 29.410156 8.128906 C 29.28125 7.3125 28.21875 6.925781 28.21875 6.925781 C 28.21875 6.925781 26.972656 7.464844 26.703125 8.472656 C 26.703125 8.472656 26.726562 7.421875 24.96875 6.742188 C 24.96875 6.742188 25.796875 6.492188 26.6875 6.554688 C 27.578125 6.617188 28.21875 6.925781 28.21875 6.925781 C 28.21875 6.925781 28.382812 6.492188 29.257812 6.34375 C 30.132812 6.195312 31.078125 6.410156 31.078125 6.410156 C 30.902344 6.09375 30.699219 5.632812 29.824219 5.273438 C 28.945312 4.914062 28.15625 5.238281 28.15625 5.238281 C 28.15625 5.238281 28.097656 4.816406 27.457031 4.40625 C 26.425781 3.734375 23.675781 3.335938 23.148438 3.304688 C 22.617188 3.28125 23.542969 3.621094 23.914062 3.832031 C 24.335938 4.066406 24.808594 4.476562 24.847656 4.863281 C 24.859375 4.964844 24.835938 5.054688 24.785156 5.132812 C 24.75 5.023438 24.671875 4.886719 24.535156 4.710938 C 23.785156 3.746094 21.875 3.332031 20.441406 3.425781 C 19.011719 3.519531 17.875 4.058594 17.875 4.058594 C 17.890625 4.195312 17.347656 4.652344 15.847656 4.816406 C 14.417969 4.972656 13.40625 4.710938 13.042969 4.660156 C 13.035156 4.65625 13.023438 4.65625 13.015625 4.65625 C 12.867188 4.636719 12.757812 4.644531 12.714844 4.746094 L 12.707031 4.761719 L 12.703125 4.78125 C 12.699219 4.855469 12.742188 4.957031 12.742188 4.957031 L 12.71875 4.917969 C 12.824219 5.113281 13.429688 6.230469 14.230469 6.804688 C 14.230469 6.804688 14.710938 6.703125 15.28125 6.640625 C 15.28125 6.640625 6.496094 10.902344 2.933594 17.5625 C 4.488281 17.382812 6.527344 17.265625 8.742188 17.460938 L 8.726562 17.457031 L 8.722656 17.457031 C 9.046875 16.921875 10.648438 13.925781 14.46875 12.085938 C 14.46875 12.085938 11.644531 14.042969 10.644531 17.699219 C 11.917969 17.917969 13.222656 18.25 14.5 18.746094 C 18.601562 20.339844 22.0625 22.007812 25.960938 21.972656 L 26.625 21.945312 L 26.625 21.941406 C 25.589844 19.789062 24.566406 18.804688 24.566406 18.804688 C 25.335938 18.941406 25.960938 18.726562 25.972656 18.722656 C 26.03125 18.699219 26.078125 18.679688 26.121094 18.660156 C 27.394531 17.972656 27.609375 16.8125 27.714844 15.984375 C 27.835938 15.023438 27.664062 14.40625 27.664062 14.40625 C 27.664062 14.40625 29.871094 11.519531 30.429688 9.246094 C 30.429688 9.246094 30.558594 8.835938 30.484375 8.414062 M 28.613281 5.53125 C 29.179688 5.417969 29.703125 5.710938 29.945312 5.9375 C 29.945312 5.9375 28.625 5.695312 28.003906 6.261719 C 28.003906 6.261719 28.039062 5.644531 28.613281 5.53125 M 20.390625 5.226562 L 20.394531 5.226562 C 20.445312 5.199219 21.511719 4.753906 22.601562 5.003906 C 23.714844 5.257812 24.410156 6.011719 24.410156 6.011719 C 24.410156 6.011719 23.40625 5.710938 21.546875 5.742188 C 21.546875 5.742188 21.472656 5.609375 21.664062 5.328125 C 21.664062 5.328125 21.371094 5.238281 20.390625 5.226562 Z M 23.121094 7.050781 C 22.953125 7.164062 22.808594 7.28125 22.683594 7.394531 C 19.179688 6.570312 16.121094 7.15625 16.121094 7.15625 C 19.910156 6.164062 23.121094 7.050781 23.121094 7.050781 M 16.550781 13.550781 C 15.328125 12.054688 15.84375 10.058594 15.84375 10.058594 C 15.84375 10.058594 15.890625 11.773438 17.390625 13.285156 C 18.886719 14.796875 20.746094 15.207031 20.746094 15.207031 C 20.746094 15.207031 17.773438 15.042969 16.550781 13.550781 M 21.9375 8.941406 C 18.738281 8.71875 16.203125 9.5 16.203125 9.5 C 18.507812 8.613281 20.667969 8.5 21.949219 8.535156 C 21.921875 8.6875 21.921875 8.824219 21.9375 8.941406 M 22.089844 8.125 C 18.820312 7.679688 16.136719 8.34375 16.136719 8.34375 C 18.773438 7.5 21.167969 7.605469 22.351562 7.738281 C 22.238281 7.875 22.152344 8.003906 22.089844 8.125 M 27.703125 15.375 C 27.941406 17.128906 26.378906 17.863281 25.511719 17.863281 C 24.640625 17.863281 23.449219 17.492188 22.992188 16.023438 C 22.539062 14.550781 22.539062 12.738281 23.121094 11.84375 C 23.121094 11.84375 22.730469 13.601562 22.949219 14.597656 C 23.167969 15.589844 23.582031 16.433594 24.382812 16.589844 C 25.183594 16.734375 26.378906 16.695312 26.816406 16.195312 C 27.246094 15.699219 27.421875 14.984375 26.988281 14.011719 C 26.554688 13.035156 25.683594 11.78125 27.117188 10.53125 C 27.117188 10.53125 26.488281 11.285156 26.726562 12.390625 C 26.96875 13.492188 27.460938 13.625 27.703125 15.375 M 26.128906 15.535156 C 26.8125 15.039062 26.738281 14.058594 26.738281 14.058594 C 26.90625 14.449219 27 14.964844 26.90625 15.335938 C 26.8125 15.703125 26.570312 16.070312 25.574219 16.164062 C 24.574219 16.253906 24.003906 15.941406 24.003906 15.941406 C 24.445312 15.496094 24.878906 14.300781 24.878906 14.300781 C 25.101562 15.148438 24.910156 15.542969 24.910156 15.542969 C 25.390625 15.691406 26.128906 15.535156 26.128906 15.535156 M 27.078125 12.335938 C 27.078125 12.335938 27.492188 11.429688 27.308594 10.3125 C 27.308594 10.3125 26.519531 10.023438 25.089844 10.3125 C 25.089844 10.3125 24.40625 11.84375 23.535156 12.585938 C 23.535156 12.585938 24.199219 11.035156 23.804688 9.878906 C 23.804688 9.878906 25.007812 9.40625 26.480469 9.507812 C 27.949219 9.609375 28.277344 9.917969 28.277344 9.917969 C 28.277344 9.917969 27.90625 11.675781 27.078125 12.335938 "/>
<path style=" stroke:none;fill-rule:nonzero;fill:rgb(0%,60%,84.705882%);fill-opacity:1;" d="M 34.902344 9.875 C 33.613281 9.171875 32.148438 8.953125 31.027344 8.910156 L 31.019531 8.910156 L 31.027344 8.910156 C 31.070312 8.769531 31.121094 8.589844 31.171875 8.398438 L 31.210938 8.394531 C 33.460938 8.320312 34.652344 8.910156 34.652344 8.910156 L 34.539062 8.824219 C 33.445312 8.320312 32.28125 8.132812 31.28125 8.105469 L 31.242188 8.105469 C 31.273438 7.949219 31.316406 7.636719 31.328125 7.636719 L 31.351562 7.636719 C 33.082031 7.652344 34.027344 8.0625 34.027344 8.0625 L 33.914062 7.976562 C 33.054688 7.609375 32.175781 7.441406 31.355469 7.386719 C 31.359375 7.070312 31.308594 6.808594 31.183594 6.582031 C 31.820312 6.03125 32.054688 5.195312 32.085938 4.867188 L 32.085938 4.863281 C 32.089844 4.851562 32.09375 4.820312 32.097656 4.816406 L 32.097656 4.796875 C 32.101562 4.785156 32.101562 4.773438 32.101562 4.765625 L 32.101562 4.75 L 32.097656 4.71875 L 32.09375 4.703125 L 32.082031 4.667969 L 32.070312 4.644531 L 32.070312 4.632812 L 32.054688 4.613281 L 32.023438 4.585938 L 32.003906 4.570312 L 32 4.566406 L 31.980469 4.554688 L 31.972656 4.550781 L 31.953125 4.542969 L 31.945312 4.542969 L 31.921875 4.53125 L 31.902344 4.527344 L 31.898438 4.527344 L 31.882812 4.523438 L 31.878906 4.523438 L 31.867188 4.519531 L 31.851562 4.519531 C 30.753906 4.53125 29.855469 4.160156 29.855469 4.160156 L 29.78125 4.132812 C 27.339844 3.242188 24.8125 2.988281 22.5625 3.03125 L 22.558594 3.03125 C 21.550781 3.035156 20.816406 3.117188 20.816406 3.117188 C 17.585938 3.390625 15.265625 4.164062 15.265625 4.164062 C 15.265625 4.164062 14.382812 4.410156 13.210938 4.351562 C 13.210938 4.351562 12.777344 4.34375 12.691406 4.621094 C 12.617188 4.796875 12.609375 5.007812 12.773438 5.464844 C 12.964844 5.992188 13.730469 6.984375 13.734375 6.992188 C 11.421875 7.925781 5.398438 11.292969 0 18.066406 C 0 18.066406 1.140625 17.769531 2.933594 17.5625 C 6.496094 10.902344 15.28125 6.640625 15.28125 6.640625 C 14.710938 6.703125 14.230469 6.804688 14.230469 6.804688 C 13.429688 6.230469 12.824219 5.113281 12.71875 4.917969 L 12.742188 4.957031 C 12.742188 4.957031 12.699219 4.855469 12.703125 4.78125 L 12.707031 4.761719 L 12.710938 4.75 C 12.757812 4.640625 12.867188 4.636719 13.015625 4.65625 C 13.023438 4.65625 13.035156 4.65625 13.042969 4.660156 C 13.40625 4.714844 14.417969 4.972656 15.847656 4.820312 C 17.347656 4.652344 17.890625 4.195312 17.875 4.0625 C 17.875 4.0625 19.011719 3.519531 20.441406 3.425781 C 21.875 3.328125 23.785156 3.746094 24.535156 4.710938 C 24.671875 4.886719 24.75 5.023438 24.785156 5.132812 C 24.835938 5.054688 24.859375 4.964844 24.847656 4.863281 C 24.808594 4.476562 24.335938 4.066406 23.914062 3.832031 C 23.542969 3.621094 22.621094 3.28125 23.148438 3.308594 C 23.675781 3.335938 26.421875 3.734375 27.457031 4.40625 C 28.097656 4.816406 28.15625 5.238281 28.15625 5.238281 C 28.15625 5.238281 28.945312 4.914062 29.824219 5.273438 C 30.699219 5.632812 30.902344 6.09375 31.078125 6.410156 C 31.078125 6.410156 30.984375 5.484375 30.191406 4.886719 C 30.191406 4.886719 30.386719 4.886719 30.699219 4.859375 L 30.710938 4.859375 L 30.820312 4.847656 L 30.84375 4.847656 L 30.886719 4.84375 C 31.125 4.820312 31.410156 4.78125 31.722656 4.722656 C 31.933594 4.707031 32.035156 4.71875 32.085938 4.863281 L 32.074219 4.90625 C 32.066406 4.921875 32.066406 4.941406 32.058594 4.960938 C 32.058594 4.960938 31.726562 5.933594 31.117188 6.378906 L 31.078125 6.410156 C 31.078125 6.410156 30.132812 6.199219 29.257812 6.34375 C 28.382812 6.492188 28.21875 6.925781 28.21875 6.925781 C 28.21875 6.925781 29.28125 7.3125 29.410156 8.132812 C 29.542969 8.949219 29.039062 9.582031 28.757812 9.765625 C 28.757812 9.765625 29.949219 9.304688 29.894531 8.148438 C 29.875 7.777344 29.695312 7.515625 29.453125 7.335938 C 29.453125 7.335938 29.796875 7.445312 29.992188 7.621094 C 30.074219 7.707031 30.171875 7.789062 30.261719 7.898438 C 30.359375 8.027344 30.394531 8.113281 30.394531 8.113281 C 30.433594 8.199219 30.46875 8.296875 30.484375 8.414062 C 30.558594 8.835938 30.429688 9.246094 30.429688 9.246094 C 29.871094 11.519531 27.664062 14.40625 27.664062 14.40625 C 29.332031 12.988281 30.445312 10.476562 30.933594 9.214844 C 33.5625 9.242188 35 9.972656 35 9.972656 Z M 34.902344 9.875 "/>
</g>
</svg>
