<?xml version="1.0" encoding="UTF-8"?>
<svg xmlns="http://www.w3.org/2000/svg" xmlns:xlink="http://www.w3.org/1999/xlink" width="35pt" height="25pt" viewBox="0 0 35 25" version="1.1">
<g id="surface1">
<path style=" stroke:none;fill-rule:nonzero;fill:rgb(100%,100%,100%);fill-opacity:1;" d="M 28.441406 13.832031 L 34.570312 13.832031 C 32.859375 25.28125 10.585938 28.085938 3.980469 16.273438 C 2.871094 14.289062 1.527344 13.414062 0.429688 12.914062 C 1.648438 12.433594 3.433594 10.792969 4.027344 9.226562 C 8.054688 -1.5 28.199219 -1.347656 33.742188 8.261719 L 26.457031 8.261719 C 20.574219 3.5625 8.816406 5.730469 8.816406 12.914062 C 8.816406 17.945312 22.792969 23.667969 28.441406 13.832031 Z M 33.277344 14.753906 L 29.132812 14.753906 C 23.484375 24.589844 7.757812 19.367188 7.757812 12.914062 C 7.757812 4.945312 20.855469 2.589844 26.738281 7.296875 L 31.808594 7.296875 C 26.078125 0.582031 9.828125 -1.011719 4.808594 9.726562 C 4.375 10.914062 3.578125 11.96875 2.414062 12.90625 C 3.507812 13.414062 4.300781 14.378906 4.902344 15.625 C 11.429688 27.546875 31.566406 22.976562 33.277344 14.753906 Z M 33.277344 14.753906 "/>
<path style=" stroke:none;fill-rule:nonzero;fill:rgb(87.45098%,38.039216%,3.137255%);fill-opacity:1;" d="M 29.132812 14.753906 L 33.277344 14.753906 C 31.566406 22.976562 11.429688 27.546875 4.902344 15.625 C 4.292969 14.386719 3.507812 13.414062 2.414062 12.90625 C 3.585938 11.96875 4.382812 10.90625 4.808594 9.726562 C 9.828125 -1.011719 26.085938 0.582031 31.800781 7.289062 L 26.730469 7.289062 C 20.847656 2.589844 7.75 4.9375 7.75 12.90625 C 7.757812 19.367188 23.484375 24.589844 29.132812 14.753906 Z M 29.132812 14.753906 "/>
<path style=" stroke:none;fill-rule:nonzero;fill:rgb(1.176471%,9.411765%,18.431373%);fill-opacity:1;" d="M 18.890625 24.316406 C 12.0625 24.316406 6.347656 21.386719 3.605469 16.484375 C 2.503906 14.519531 1.160156 13.726562 0.25 13.304688 C 0.09375 13.230469 -0.00390625 13.070312 0 12.898438 C 0.00390625 12.726562 0.113281 12.574219 0.273438 12.511719 C 1.410156 12.066406 3.082031 10.5 3.625 9.074219 C 4.625 6.40625 6.675781 4.210938 9.546875 2.734375 C 12.160156 1.394531 15.320312 0.683594 18.695312 0.683594 C 21.886719 0.683594 24.988281 1.320312 27.667969 2.527344 C 30.554688 3.828125 32.78125 5.730469 34.113281 8.039062 C 34.152344 8.101562 34.171875 8.179688 34.171875 8.253906 L 34.171875 8.261719 C 34.171875 8.5 33.976562 8.691406 33.742188 8.691406 L 26.457031 8.691406 C 26.359375 8.691406 26.265625 8.660156 26.1875 8.597656 C 24.285156 7.074219 21.539062 6.199219 18.65625 6.199219 C 13.980469 6.199219 9.246094 8.507812 9.246094 12.914062 C 9.246094 14.203125 10.359375 15.664062 12.222656 16.828125 C 14.207031 18.066406 16.71875 18.777344 19.109375 18.777344 C 22.976562 18.777344 26.160156 16.945312 28.070312 13.617188 C 28.144531 13.484375 28.289062 13.402344 28.441406 13.402344 L 34.570312 13.402344 C 34.695312 13.402344 34.8125 13.457031 34.894531 13.550781 C 34.976562 13.648438 35.015625 13.773438 34.996094 13.898438 C 34.527344 17.027344 32.585938 19.695312 29.382812 21.613281 C 26.46875 23.355469 22.742188 24.316406 18.890625 24.316406 Z M 1.359375 12.914062 C 2.289062 13.457031 3.40625 14.367188 4.355469 16.0625 C 6.945312 20.691406 12.378906 23.453125 18.890625 23.453125 C 25.570312 23.453125 32.800781 20.300781 34.054688 14.265625 L 28.6875 14.265625 C 26.605469 17.730469 23.214844 19.640625 19.109375 19.640625 C 16.5625 19.640625 13.882812 18.882812 11.765625 17.558594 C 9.617188 16.21875 8.382812 14.527344 8.382812 12.914062 C 8.382812 7.941406 13.550781 5.339844 18.65625 5.339844 C 21.714844 5.339844 24.53125 6.222656 26.605469 7.832031 L 32.964844 7.832031 C 30.34375 3.988281 24.84375 1.546875 18.695312 1.546875 C 13.21875 1.546875 6.597656 3.601562 4.429688 9.378906 C 3.910156 10.746094 2.554688 12.160156 1.359375 12.914062 Z M 1.359375 12.914062 "/>
</g>
</svg>
