<?xml version="1.0" encoding="UTF-8"?>
<svg xmlns="http://www.w3.org/2000/svg" xmlns:xlink="http://www.w3.org/1999/xlink" width="28pt" height="20pt" viewBox="0 0 28 20" version="1.1">
<g id="surface1">
<path style=" stroke:none;fill-rule:nonzero;fill:rgb(100%,100%,100%);fill-opacity:1;" d="M 22.753906 11.066406 L 27.65625 11.066406 C 26.285156 20.222656 8.46875 22.46875 3.183594 13.019531 C 2.296875 11.429688 1.21875 10.730469 0.34375 10.332031 C 1.316406 9.949219 2.746094 8.632812 3.222656 7.382812 C 6.445312 -1.199219 22.558594 -1.078125 26.992188 6.609375 L 21.167969 6.609375 C 16.460938 2.851562 7.050781 4.582031 7.050781 10.332031 C 7.050781 14.355469 18.234375 18.933594 22.753906 11.066406 Z M 26.621094 11.800781 L 23.308594 11.800781 C 18.789062 19.671875 6.207031 15.492188 6.207031 10.332031 C 6.207031 3.957031 16.683594 2.074219 21.390625 5.835938 L 25.449219 5.835938 C 20.863281 0.46875 7.859375 -0.808594 3.847656 7.78125 C 3.5 8.730469 2.863281 9.578125 1.933594 10.324219 C 2.808594 10.730469 3.441406 11.503906 3.921875 12.5 C 9.144531 22.035156 25.253906 18.382812 26.621094 11.800781 Z M 26.621094 11.800781 "/>
<path style=" stroke:none;fill-rule:nonzero;fill:rgb(87.45098%,38.039216%,3.137255%);fill-opacity:1;" d="M 23.308594 11.800781 L 26.621094 11.800781 C 25.253906 18.382812 9.144531 22.035156 3.921875 12.5 C 3.433594 11.511719 2.808594 10.730469 1.933594 10.324219 C 2.867188 9.578125 3.507812 8.726562 3.847656 7.78125 C 7.859375 -0.808594 20.867188 0.46875 25.441406 5.832031 L 21.386719 5.832031 C 16.679688 2.074219 6.199219 3.953125 6.199219 10.324219 C 6.207031 15.492188 18.789062 19.671875 23.308594 11.800781 Z M 23.308594 11.800781 "/>
<path style=" stroke:none;fill-rule:nonzero;fill:rgb(1.176471%,9.411765%,18.431373%);fill-opacity:1;" d="M 15.113281 19.453125 C 9.648438 19.453125 5.078125 17.109375 2.882812 13.1875 C 2 11.617188 0.929688 10.984375 0.199219 10.644531 C 0.0742188 10.585938 -0.00390625 10.457031 0 10.320312 C 0.00390625 10.183594 0.0898438 10.058594 0.21875 10.007812 C 1.128906 9.652344 2.46875 8.398438 2.898438 7.257812 C 3.699219 5.125 5.339844 3.371094 7.636719 2.1875 C 9.726562 1.113281 12.257812 0.546875 14.957031 0.546875 C 17.507812 0.546875 19.992188 1.058594 22.132812 2.023438 C 24.441406 3.0625 26.226562 4.585938 27.289062 6.429688 C 27.320312 6.484375 27.335938 6.542969 27.335938 6.601562 L 27.335938 6.609375 C 27.335938 6.800781 27.183594 6.953125 26.992188 6.953125 L 21.167969 6.953125 C 21.089844 6.953125 21.011719 6.925781 20.953125 6.878906 C 19.425781 5.660156 17.230469 4.960938 14.925781 4.960938 C 11.183594 4.960938 7.398438 6.804688 7.398438 10.332031 C 7.398438 11.363281 8.285156 12.53125 9.777344 13.460938 C 11.367188 14.453125 13.375 15.019531 15.289062 15.019531 C 18.382812 15.019531 20.925781 13.554688 22.453125 10.894531 C 22.515625 10.789062 22.628906 10.722656 22.753906 10.722656 L 27.65625 10.722656 C 27.753906 10.722656 27.851562 10.765625 27.917969 10.839844 C 27.980469 10.917969 28.011719 11.019531 27.996094 11.117188 C 27.621094 13.621094 26.070312 15.757812 23.503906 17.292969 C 21.175781 18.683594 18.195312 19.453125 15.113281 19.453125 Z M 1.089844 10.328125 C 1.832031 10.765625 2.722656 11.496094 3.484375 12.847656 C 5.554688 16.554688 9.902344 18.761719 15.113281 18.761719 C 20.457031 18.761719 26.242188 16.242188 27.242188 11.410156 L 22.949219 11.410156 C 21.285156 14.1875 18.570312 15.710938 15.289062 15.710938 C 13.25 15.710938 11.105469 15.105469 9.410156 14.046875 C 7.691406 12.976562 6.707031 11.621094 6.707031 10.332031 C 6.707031 6.351562 10.839844 4.269531 14.925781 4.269531 C 17.371094 4.269531 19.625 4.976562 21.285156 6.265625 L 26.371094 6.265625 C 24.273438 3.191406 19.875 1.238281 14.957031 1.238281 C 10.578125 1.238281 5.277344 2.882812 3.542969 7.503906 C 3.128906 8.597656 2.042969 9.726562 1.089844 10.328125 Z M 1.089844 10.328125 "/>
</g>
</svg>
