<?xml version="1.0" encoding="UTF-8"?>
<svg xmlns="http://www.w3.org/2000/svg" xmlns:xlink="http://www.w3.org/1999/xlink" width="35pt" height="25pt" viewBox="0 0 35 25" version="1.1">
<g id="surface1">
<path style=" stroke:none;fill-rule:nonzero;fill:rgb(100%,100%,100%);fill-opacity:1;" d="M 0.207031 17.019531 L 4.679688 24.703125 L 25.332031 24.703125 C 31.996094 24.703125 34.882812 21.222656 34.882812 17.488281 C 34.882812 15.019531 33.125 13.015625 31.339844 12.101562 C 31.15625 12.007812 31.179688 11.839844 31.304688 11.746094 C 32.871094 10.585938 33.917969 9.109375 33.917969 6.8125 C 33.917969 4.105469 31.980469 0.296875 24.402344 0.296875 L 4.871094 0.296875 L 0.445312 8.011719 L 3.695312 8.011719 C 4.058594 8.011719 4.355469 8.304688 4.355469 8.671875 L 4.355469 16.367188 C 4.355469 16.726562 4.058594 17.019531 3.695312 17.019531 L 0.207031 17.019531 "/>
<path style=" stroke:none;fill-rule:nonzero;fill:rgb(0%,0%,0%);fill-opacity:1;" d="M 25.332031 24.820312 L 4.609375 24.820312 L 0 16.902344 L 3.695312 16.902344 C 3.992188 16.902344 4.234375 16.660156 4.234375 16.367188 L 4.234375 8.671875 C 4.234375 8.375 3.992188 8.132812 3.695312 8.132812 L 0.238281 8.132812 L 4.800781 0.179688 L 24.402344 0.179688 C 27.824219 0.179688 30.410156 0.945312 32.082031 2.453125 C 33.785156 3.984375 34.039062 5.839844 34.039062 6.8125 C 34.039062 8.898438 33.191406 10.496094 31.378906 11.839844 C 31.34375 11.867188 31.324219 11.898438 31.324219 11.925781 C 31.328125 11.957031 31.367188 11.984375 31.394531 11.996094 C 33.1875 12.914062 35 14.96875 35 17.488281 C 35 19.492188 34.175781 21.300781 32.683594 22.585938 C 30.984375 24.046875 28.441406 24.820312 25.332031 24.820312 Z M 4.746094 24.582031 L 25.332031 24.582031 C 32.292969 24.582031 34.761719 20.761719 34.761719 17.488281 C 34.761719 15.070312 33.015625 13.09375 31.285156 12.207031 C 31.125 12.125 31.09375 12.007812 31.089844 11.945312 C 31.078125 11.835938 31.132812 11.726562 31.234375 11.648438 C 32.984375 10.351562 33.800781 8.816406 33.800781 6.8125 C 33.800781 5.882812 33.558594 4.097656 31.921875 2.628906 C 30.296875 1.160156 27.765625 0.417969 24.402344 0.417969 L 4.9375 0.417969 L 0.652344 7.894531 L 3.695312 7.894531 C 4.125 7.894531 4.472656 8.242188 4.472656 8.671875 L 4.472656 16.367188 C 4.472656 16.792969 4.125 17.140625 3.695312 17.140625 L 0.414062 17.140625 Z M 4.746094 24.582031 "/>
<path style=" stroke:none;fill-rule:nonzero;fill:rgb(94.117647%,30.588235%,13.72549%);fill-opacity:1;" d="M 19.773438 10.800781 L 16.5625 10.800781 L 16.5625 7.710938 C 16.5625 7.382812 16.824219 7.121094 17.152344 7.121094 L 19.773438 7.121094 C 21.304688 7.121094 21.878906 7.910156 21.878906 8.925781 C 21.886719 10.011719 21.3125 10.800781 19.773438 10.800781 M 19.773438 17.910156 L 17.152344 17.910156 C 16.824219 17.910156 16.5625 17.648438 16.5625 17.320312 L 16.5625 14.230469 L 19.773438 14.230469 C 21.304688 14.230469 21.878906 14.984375 21.878906 16.042969 C 21.886719 17.125 21.3125 17.910156 19.773438 17.910156 Z M 28.929688 12.277344 C 28.691406 12.222656 28.734375 11.9375 28.90625 11.863281 C 31.027344 11.0625 32.257812 9.632812 32.257812 7.121094 C 32.292969 3.746094 29.304688 1.425781 24.460938 1.425781 L 6.085938 1.425781 L 2.859375 7.121094 L 5.078125 7.121094 C 5.515625 7.121094 5.871094 7.480469 5.871094 7.917969 L 5.871094 17.105469 C 5.871094 17.542969 5.511719 17.902344 5.078125 17.902344 L 2.890625 17.902344 L 6.140625 23.566406 L 25.339844 23.566406 C 30.820312 23.566406 33.078125 19.925781 33.078125 17.242188 C 33.078125 14.890625 31.339844 12.855469 28.929688 12.277344 Z M 28.929688 12.277344 "/>
<path style=" stroke:none;fill-rule:nonzero;fill:rgb(0%,0%,0%);fill-opacity:1;" d="M 12.335938 21.960938 C 8.929688 15.558594 8.03125 8.195312 9.300781 1.433594 L 6.085938 1.433594 L 2.859375 7.128906 L 5.078125 7.128906 C 5.515625 7.128906 5.871094 7.488281 5.871094 7.925781 L 5.871094 14.976562 C 7.53125 17.65625 9.921875 20.230469 12.335938 21.960938 M 28.40625 2.0625 C 24.507812 7.84375 22.394531 15.214844 23.339844 21.929688 C 24.5 16.28125 27.53125 11.0625 32.25 7.289062 L 32.257812 7.121094 C 32.285156 4.800781 30.878906 2.976562 28.40625 2.0625 Z M 21.871094 1.433594 C 21.257812 3.03125 20.613281 4.96875 20.074219 7.136719 C 19.980469 7.128906 19.875 7.128906 19.773438 7.128906 L 17.152344 7.128906 C 16.824219 7.128906 16.5625 7.390625 16.5625 7.71875 L 16.5625 10.808594 L 19.320312 10.808594 C 19.136719 11.921875 18.984375 13.0625 18.890625 14.238281 L 16.5625 14.238281 L 16.5625 17.328125 C 16.5625 17.65625 16.824219 17.917969 17.152344 17.917969 L 18.753906 17.917969 C 18.777344 19.769531 18.945312 21.667969 19.296875 23.582031 L 16.90625 23.582031 C 15.015625 19.023438 12.417969 11.300781 15 1.441406 Z M 21.871094 1.433594 "/>
</g>
</svg>
