<?xml version="1.0" encoding="UTF-8"?>
<svg xmlns="http://www.w3.org/2000/svg" xmlns:xlink="http://www.w3.org/1999/xlink" width="35pt" height="25pt" viewBox="0 0 35 25" version="1.1">
<g id="surface1">
<path style=" stroke:none;fill-rule:nonzero;fill:rgb(5.098039%,14.509804%,29.803922%);fill-opacity:1;" d="M 22.515625 15.441406 L 30.625 9.539062 L 20.601562 9.539062 L 17.503906 0 L 14.402344 9.542969 L 4.375 9.542969 L 12.488281 15.445312 L 9.390625 25 L 17.503906 19.097656 L 25.613281 25 Z M 22.515625 15.441406 "/>
<path style=" stroke:none;fill-rule:nonzero;fill:rgb(100%,100%,100%);fill-opacity:1;" d="M 21.675781 15.179688 L 28.433594 10.261719 L 20.082031 10.261719 L 17.503906 2.308594 L 14.925781 10.261719 L 6.570312 10.261719 L 13.328125 15.179688 L 10.746094 23.132812 L 17.503906 18.214844 L 24.257812 23.132812 Z M 21.675781 15.179688 "/>
<path style=" stroke:none;fill-rule:nonzero;fill:rgb(5.098039%,14.509804%,29.803922%);fill-opacity:1;" d="M 21.03125 14.96875 L 26.734375 10.816406 L 19.679688 10.816406 L 17.503906 4.101562 L 15.324219 10.816406 L 8.269531 10.816406 L 13.972656 14.96875 L 11.796875 21.683594 L 17.503906 17.535156 L 23.207031 21.683594 Z M 21.03125 14.96875 "/>
</g>
</svg>
