<?xml version="1.0" encoding="UTF-8" standalone="no"?>
<svg
   xmlns:dc="http://purl.org/dc/elements/1.1/"
   xmlns:cc="http://creativecommons.org/ns#"
   xmlns:rdf="http://www.w3.org/1999/02/22-rdf-syntax-ns#"
   xmlns:svg="http://www.w3.org/2000/svg"
   xmlns="http://www.w3.org/2000/svg"
   xmlns:sodipodi="http://sodipodi.sourceforge.net/DTD/sodipodi-0.dtd"
   xmlns:inkscape="http://www.inkscape.org/namespaces/inkscape"
   width="429.29999"
   height="408.29999"
   viewBox="0 0 429.29999 408.29999"
   id="svg2"
   version="1.1"
   inkscape:version="0.48.4 r9939"
   sodipodi:docname="dallas-cowboys.svg">
  <metadata
     id="metadata18">
    <rdf:RDF>
      <cc:Work
         rdf:about="">
        <dc:format>image/svg+xml</dc:format>
        <dc:type
           rdf:resource="http://purl.org/dc/dcmitype/StillImage" />
      </cc:Work>
    </rdf:RDF>
  </metadata>
  <defs
     id="defs16" />
  <sodipodi:namedview
     pagecolor="#ffffff"
     bordercolor="#666666"
     borderopacity="1"
     objecttolerance="10"
     gridtolerance="10"
     guidetolerance="10"
     inkscape:pageopacity="0"
     inkscape:pageshadow="2"
     inkscape:window-width="640"
     inkscape:window-height="480"
     id="namedview14"
     showgrid="false"
     inkscape:zoom="0.4609375"
     inkscape:cx="213.9"
     inkscape:cy="204.2"
     inkscape:window-x="65"
     inkscape:window-y="24"
     inkscape:window-maximized="0"
     inkscape:current-layer="svg2" />
  <g
     id="g4"
     transform="translate(-42.1,-51.9)">
    <g
       id="g6">
      <path
         d="M 338.8,304.1 471.4,207.7 H 307.5 L 256.8,51.9 206.1,207.8 h -164 l 132.7,96.4 -50.7,156 132.7,-96.4 132.7,96.4 -50.7,-156.1 z"
         id="path8"
         inkscape:connector-curvature="0"
         style="fill:#0d254c" />
      <path
         d="M 325.1,299.8 435.6,219.5 H 299 L 256.8,89.6 214.6,219.5 H 78 l 110.5,80.3 -42.2,129.9 110.5,-80.3 110.5,80.3 -42.2,-129.9 z"
         id="path10"
         inkscape:connector-curvature="0"
         style="fill:#ffffff" />
      <path
         d="m 314.5,296.4 93.3,-67.8 H 292.4 L 256.8,118.9 221.2,228.6 H 105.8 l 93.3,67.8 -35.6,109.6 93.3,-67.7 93.3,67.7 -35.6,-109.6 z"
         id="path12"
         inkscape:connector-curvature="0"
         style="fill:#0d254c" />
    </g>
  </g>
</svg>
