<?xml version="1.0" encoding="UTF-8"?>
<svg xmlns="http://www.w3.org/2000/svg" xmlns:xlink="http://www.w3.org/1999/xlink" width="28pt" height="20pt" viewBox="0 0 28 20" version="1.1">
<g id="surface1">
<path style=" stroke:none;fill-rule:nonzero;fill:rgb(7.45098%,14.901961%,29.411765%);fill-opacity:1;" d="M 0 6.199219 C 0 6.199219 -0.144531 8.96875 3.054688 10.734375 C 3.054688 10.734375 4.339844 11.425781 7.378906 11.992188 C 10.042969 12.484375 11.46875 13.535156 12.039062 14.195312 C 12.765625 15.035156 13.476562 16.566406 13.796875 17.902344 C 13.796875 17.902344 13.796875 18.25 14.046875 18.238281 C 14.046875 18.238281 14.261719 18.25 14.25 17.941406 C 14.25 17.941406 14.171875 15.835938 14.777344 14.820312 C 15.234375 13.988281 16.058594 13.269531 17.429688 12.765625 C 17.429688 12.765625 18.339844 13.472656 19.632812 13.472656 C 20.570312 13.472656 21.40625 13.066406 21.40625 13.066406 C 21.40625 13.066406 23.050781 13.644531 23.242188 14.546875 C 23.242188 14.546875 23.253906 14.765625 23.199219 14.917969 L 25.265625 15.027344 L 26.390625 13.996094 C 26.390625 13.996094 24.292969 13.839844 24.253906 13.234375 C 24.253906 13.234375 24.21875 12.949219 24.78125 12.949219 C 24.78125 12.949219 26.089844 12.929688 27.304688 14.765625 L 28 12.910156 C 28 12.910156 27.46875 12.644531 27.476562 12.148438 C 27.476562 12.148438 27.460938 11.847656 27.699219 11.238281 L 26.828125 10.84375 C 26.828125 10.84375 26.359375 10.402344 23.554688 8.625 L 23.914062 8.386719 L 20.804688 7.03125 C 20.804688 7.03125 19.808594 5.441406 17.035156 5.433594 C 17.035156 5.433594 14.867188 1.839844 11.410156 1.839844 C 11.410156 1.839844 10.136719 1.761719 8.671875 2.535156 C 8.671875 2.535156 8.089844 2.808594 7.523438 3.132812 C 7.523438 3.132812 6.339844 3.964844 4.980469 2.152344 C 4.980469 2.152344 4.488281 4.292969 5.972656 5.210938 C 5.972656 5.210938 4.554688 5.507812 4.058594 4.28125 C 4.058594 4.28125 3.601562 3.335938 3.726562 1.761719 C 3.726562 1.761719 2.640625 2.753906 2.640625 4.667969 C 2.640625 4.667969 2.625 5.886719 3.429688 6.722656 C 3.429688 6.722656 3.023438 6.65625 2.382812 7.070312 C 2.371094 7.0625 1.25 7.882812 0 6.199219 Z M 0 6.199219 "/>
<path style=" stroke:none;fill-rule:nonzero;fill:rgb(87.058824%,38.431373%,14.901961%);fill-opacity:1;" d="M 5.300781 3.09375 C 5.300781 3.09375 5.507812 4.984375 7.097656 4.984375 C 7.097656 4.984375 7.722656 4.984375 8.292969 4.765625 C 8.863281 4.550781 9.699219 4.121094 10.808594 4.121094 C 10.808594 4.121094 12.261719 3.976562 13.070312 5.597656 C 13.070312 5.597656 14.921875 5.496094 16.652344 5.824219 C 16.652344 5.824219 14.679688 2.304688 11.253906 2.355469 C 11.253906 2.355469 10.253906 2.304688 8.914062 2.980469 L 8.378906 3.234375 C 7.984375 3.421875 7.832031 3.519531 7.832031 3.519531 C 7.832031 3.519531 7.273438 3.847656 6.742188 3.835938 C 6.730469 3.84375 6.039062 3.902344 5.300781 3.09375 Z M 3.332031 3.15625 C 3.332031 3.15625 2.417969 5.722656 4.429688 6.871094 C 4.804688 7.113281 5.40625 7.34375 6.078125 7.363281 C 6.078125 7.363281 8.824219 6.035156 11.824219 5.683594 C 11.824219 5.683594 11.476562 4.933594 10.125 4.933594 C 10.125 4.933594 9.292969 4.882812 7.796875 5.304688 C 7.796875 5.304688 7.394531 5.410156 6.921875 5.574219 C 6.234375 5.742188 5.101562 5.914062 4.367188 5.449219 C 4.351562 5.453125 3.359375 4.953125 3.332031 3.15625 Z M 0.75 7.476562 C 0.75 7.476562 0.996094 8.847656 2.554688 8.847656 C 2.554688 8.847656 3.644531 8.875 5.175781 7.929688 C 5.175781 7.929688 4.644531 7.722656 4.378906 7.542969 C 4.378906 7.542969 3.816406 7.113281 3.222656 7.277344 C 3.222656 7.277344 3.117188 7.296875 2.566406 7.535156 C 2.566406 7.535156 2.183594 7.785156 1.636719 7.785156 C 1.628906 7.785156 1.078125 7.773438 0.75 7.476562 Z M 0.75 7.476562 "/>
<path style=" stroke:none;fill-rule:nonzero;fill:rgb(100%,100%,100%);fill-opacity:1;" d="M 9.144531 11.902344 C 9.144531 11.902344 12.242188 8.585938 16.707031 9.738281 C 16.707031 9.738281 16.925781 12.335938 19.691406 12.488281 C 19.691406 12.488281 20.628906 12.546875 21.519531 11.914062 L 23.253906 12.566406 L 21.429688 11.40625 C 21.429688 11.40625 20.847656 11.984375 19.796875 11.984375 C 18.746094 11.984375 17.464844 10.902344 17.574219 9.371094 C 17.574219 9.371094 15.660156 8.394531 13.527344 7.894531 L 14.167969 8.917969 C 14.167969 8.917969 10.019531 8.652344 6.613281 11.320312 C 6.613281 11.320312 3.371094 10.589844 2.980469 9.964844 C 2.980469 9.964844 9.660156 4.46875 18.214844 6.695312 C 18.214844 6.695312 18.3125 6.546875 18.070312 6.34375 C 18.070312 6.34375 17.746094 6.101562 17.269531 5.953125 C 17.269531 5.953125 19.359375 5.835938 20.457031 7.445312 L 22.863281 8.472656 L 22.613281 8.652344 C 22.613281 8.652344 26.285156 10.964844 26.53125 11.28125 L 27.042969 11.503906 C 27.042969 11.503906 26.675781 12.585938 27.429688 13.167969 L 27.152344 13.910156 C 27.152344 13.910156 25.921875 12.574219 24.691406 12.523438 C 24.691406 12.523438 23.789062 12.503906 23.789062 13.234375 C 23.789062 13.234375 23.679688 14.019531 25.488281 14.246094 L 25.109375 14.589844 L 23.738281 14.503906 C 23.738281 14.503906 23.769531 13.367188 21.371094 12.484375 C 21.371094 12.484375 19.398438 13.671875 17.527344 12.207031 C 17.527344 12.207031 14.121094 13.035156 13.816406 16.203125 C 13.816406 16.203125 13.445312 15.007812 12.605469 13.980469 C 12.605469 13.980469 13.058594 12.367188 15.476562 11.554688 C 15.476562 11.554688 13.300781 11.4375 11.769531 13.199219 C 11.769531 13.199219 10.75 12.367188 9.144531 11.902344 Z M 9.144531 11.902344 "/>
<path style=" stroke:none;fill-rule:nonzero;fill:rgb(7.45098%,14.901961%,29.411765%);fill-opacity:1;" d="M 20.273438 8.148438 C 20.273438 8.148438 21.972656 8.40625 24.882812 10.816406 L 22.128906 9.292969 C 22.128906 9.292969 21.953125 9.382812 21.835938 9.484375 C 21.835938 9.484375 21.214844 8.753906 20.273438 8.148438 Z M 20.273438 8.148438 "/>
<path style=" stroke:none;fill-rule:nonzero;fill:rgb(87.058824%,38.431373%,14.901961%);fill-opacity:1;" d="M 21.652344 8.664062 C 21.652344 8.664062 21.515625 8.785156 21.574219 8.988281 C 21.574219 8.988281 21.640625 9.183594 21.863281 9.1875 C 21.863281 9.1875 22.109375 9.195312 22.15625 8.917969 L 22.039062 8.855469 L 21.738281 9.085938 L 21.816406 8.742188 Z M 21.652344 8.664062 "/>
<path style=" stroke:none;fill-rule:nonzero;fill:rgb(7.45098%,14.901961%,29.411765%);fill-opacity:1;" d="M 26.554688 11.578125 C 26.554688 11.578125 26.320312 11.667969 26.320312 11.882812 C 26.320312 11.882812 26.265625 12.097656 26.734375 12.578125 C 26.734375 12.578125 26.039062 12.058594 25.90625 11.753906 C 25.90625 11.753906 25.785156 11.519531 26.125 11.519531 C 26.125 11.515625 26.328125 11.515625 26.554688 11.578125 Z M 18.613281 6.855469 C 18.613281 6.855469 19.042969 6.863281 19.097656 6.753906 C 19.097656 6.753906 19.203125 6.644531 18.621094 6.367188 C 18.621094 6.367188 19.515625 6.554688 19.917969 7.285156 C 19.917969 7.292969 19.339844 7.023438 18.613281 6.855469 Z M 18.613281 6.855469 "/>
</g>
</svg>
