<?xml version="1.0" encoding="UTF-8"?>
<svg xmlns="http://www.w3.org/2000/svg" xmlns:xlink="http://www.w3.org/1999/xlink" width="35pt" height="25pt" viewBox="0 0 35 25" version="1.1">
<g id="surface1">
<path style=" stroke:none;fill-rule:nonzero;fill:rgb(7.45098%,14.901961%,29.411765%);fill-opacity:1;" d="M 0 7.746094 C 0 7.746094 -0.179688 11.214844 3.816406 13.417969 C 3.816406 13.417969 5.425781 14.28125 9.222656 14.988281 C 12.554688 15.605469 14.335938 16.917969 15.046875 17.742188 C 15.957031 18.792969 16.84375 20.707031 17.246094 22.378906 C 17.246094 22.378906 17.246094 22.8125 17.558594 22.796875 C 17.558594 22.796875 17.828125 22.8125 17.808594 22.429688 C 17.808594 22.429688 17.714844 19.792969 18.46875 18.527344 C 19.042969 17.484375 20.074219 16.589844 21.785156 15.957031 C 21.785156 15.957031 22.925781 16.839844 24.542969 16.839844 C 25.710938 16.839844 26.757812 16.332031 26.757812 16.332031 C 26.757812 16.332031 28.816406 17.054688 29.054688 18.179688 C 29.054688 18.179688 29.070312 18.453125 29 18.648438 L 31.582031 18.785156 L 32.988281 17.492188 C 32.988281 17.492188 30.367188 17.300781 30.316406 16.539062 C 30.316406 16.539062 30.273438 16.1875 30.980469 16.1875 C 30.980469 16.1875 32.613281 16.164062 34.132812 18.453125 L 35 16.140625 C 35 16.140625 34.335938 15.804688 34.34375 15.1875 C 34.34375 15.1875 34.328125 14.8125 34.621094 14.046875 L 33.535156 13.554688 C 33.535156 13.554688 32.949219 13.003906 29.441406 10.78125 L 29.894531 10.484375 L 26.003906 8.789062 C 26.003906 8.789062 24.761719 6.800781 21.296875 6.792969 C 21.296875 6.792969 18.585938 2.296875 14.265625 2.296875 C 14.265625 2.296875 12.671875 2.203125 10.84375 3.171875 C 10.84375 3.171875 10.113281 3.507812 9.402344 3.914062 C 9.402344 3.914062 7.921875 4.957031 6.226562 2.691406 C 6.226562 2.691406 5.609375 5.367188 7.46875 6.511719 C 7.46875 6.511719 5.695312 6.886719 5.070312 5.351562 C 5.070312 5.351562 4.5 4.171875 4.65625 2.203125 C 4.65625 2.203125 3.296875 3.445312 3.296875 5.835938 C 3.296875 5.835938 3.28125 7.359375 4.289062 8.402344 C 4.289062 8.402344 3.78125 8.320312 2.980469 8.835938 C 2.964844 8.828125 1.5625 9.855469 0 7.746094 Z M 0 7.746094 "/>
<path style=" stroke:none;fill-rule:nonzero;fill:rgb(87.058824%,38.431373%,14.901961%);fill-opacity:1;" d="M 6.625 3.867188 C 6.625 3.867188 6.886719 6.230469 8.871094 6.230469 C 8.871094 6.230469 9.65625 6.230469 10.367188 5.957031 C 11.078125 5.6875 12.125 5.148438 13.511719 5.148438 C 13.511719 5.148438 15.324219 4.972656 16.339844 7 C 16.339844 7 18.652344 6.871094 20.816406 7.28125 C 20.816406 7.28125 18.347656 2.882812 14.066406 2.945312 C 14.066406 2.945312 12.816406 2.882812 11.144531 3.726562 L 10.472656 4.042969 C 9.980469 4.277344 9.789062 4.398438 9.789062 4.398438 C 9.789062 4.398438 9.09375 4.8125 8.429688 4.796875 C 8.414062 4.804688 7.546875 4.875 6.625 3.867188 Z M 4.167969 3.945312 C 4.167969 3.945312 3.019531 7.152344 5.539062 8.585938 C 6.003906 8.894531 6.757812 9.179688 7.597656 9.203125 C 7.597656 9.203125 11.03125 7.546875 14.777344 7.101562 C 14.777344 7.101562 14.34375 6.167969 12.65625 6.167969 C 12.65625 6.167969 11.617188 6.101562 9.75 6.632812 C 9.75 6.632812 9.242188 6.761719 8.648438 6.964844 C 7.792969 7.175781 6.378906 7.394531 5.457031 6.808594 C 5.441406 6.816406 4.199219 6.191406 4.167969 3.945312 Z M 0.9375 9.347656 C 0.9375 9.347656 1.242188 11.058594 3.195312 11.058594 C 3.195312 11.058594 4.558594 11.09375 6.472656 9.910156 C 6.472656 9.910156 5.808594 9.652344 5.472656 9.429688 C 5.472656 9.429688 4.769531 8.894531 4.027344 9.097656 C 4.027344 9.097656 3.898438 9.121094 3.210938 9.417969 C 3.210938 9.417969 2.726562 9.734375 2.042969 9.734375 C 2.035156 9.734375 1.347656 9.71875 0.9375 9.347656 Z M 0.9375 9.347656 "/>
<path style=" stroke:none;fill-rule:nonzero;fill:rgb(100%,100%,100%);fill-opacity:1;" d="M 11.429688 14.875 C 11.429688 14.875 15.300781 10.734375 20.882812 12.175781 C 20.882812 12.175781 21.160156 15.417969 24.613281 15.613281 C 24.613281 15.613281 25.785156 15.683594 26.902344 14.890625 L 29.070312 15.707031 L 26.789062 14.257812 C 26.789062 14.257812 26.0625 14.980469 24.746094 14.980469 C 23.429688 14.980469 21.832031 13.625 21.96875 11.710938 C 21.96875 11.710938 19.574219 10.492188 16.910156 9.871094 L 17.710938 11.148438 C 17.710938 11.148438 12.523438 10.816406 8.269531 14.152344 C 8.269531 14.152344 4.214844 13.238281 3.722656 12.457031 C 3.722656 12.457031 12.074219 5.582031 22.769531 8.371094 C 22.769531 8.371094 22.890625 8.183594 22.585938 7.929688 C 22.585938 7.929688 22.179688 7.625 21.585938 7.441406 C 21.585938 7.441406 24.199219 7.296875 25.570312 9.308594 L 28.578125 10.589844 L 28.265625 10.816406 C 28.265625 10.816406 32.855469 13.707031 33.164062 14.105469 L 33.804688 14.378906 C 33.804688 14.378906 33.347656 15.734375 34.289062 16.460938 L 33.9375 17.390625 C 33.9375 17.390625 32.402344 15.714844 30.867188 15.652344 C 30.867188 15.652344 29.734375 15.628906 29.734375 16.539062 C 29.734375 16.539062 29.597656 17.527344 31.859375 17.808594 L 31.390625 18.238281 L 29.671875 18.128906 C 29.671875 18.128906 29.710938 16.710938 26.710938 15.605469 C 26.710938 15.605469 24.246094 17.085938 21.910156 15.257812 C 21.910156 15.257812 17.652344 16.292969 17.269531 20.257812 C 17.269531 20.257812 16.804688 18.761719 15.757812 17.476562 C 15.757812 17.476562 16.320312 15.460938 19.347656 14.441406 C 19.347656 14.441406 16.625 14.296875 14.714844 16.5 C 14.714844 16.5 13.4375 15.460938 11.429688 14.875 Z M 11.429688 14.875 "/>
<path style=" stroke:none;fill-rule:nonzero;fill:rgb(7.45098%,14.901961%,29.411765%);fill-opacity:1;" d="M 25.339844 10.1875 C 25.339844 10.1875 27.464844 10.507812 31.105469 13.519531 L 27.660156 11.613281 C 27.660156 11.613281 27.441406 11.726562 27.296875 11.855469 C 27.296875 11.855469 26.519531 10.945312 25.339844 10.1875 Z M 25.339844 10.1875 "/>
<path style=" stroke:none;fill-rule:nonzero;fill:rgb(87.058824%,38.431373%,14.901961%);fill-opacity:1;" d="M 27.066406 10.832031 C 27.066406 10.832031 26.894531 10.980469 26.964844 11.238281 C 26.964844 11.238281 27.050781 11.476562 27.328125 11.488281 C 27.328125 11.488281 27.636719 11.496094 27.695312 11.148438 L 27.550781 11.066406 L 27.171875 11.359375 L 27.273438 10.925781 Z M 27.066406 10.832031 "/>
<path style=" stroke:none;fill-rule:nonzero;fill:rgb(7.45098%,14.901961%,29.411765%);fill-opacity:1;" d="M 33.195312 14.472656 C 33.195312 14.472656 32.902344 14.585938 32.902344 14.851562 C 32.902344 14.851562 32.832031 15.121094 33.414062 15.722656 C 33.414062 15.722656 32.546875 15.074219 32.382812 14.691406 C 32.382812 14.691406 32.230469 14.402344 32.65625 14.402344 C 32.65625 14.394531 32.910156 14.394531 33.195312 14.472656 Z M 23.265625 8.570312 C 23.265625 8.570312 23.804688 8.578125 23.871094 8.441406 C 23.871094 8.441406 24.003906 8.304688 23.273438 7.960938 C 23.273438 7.960938 24.390625 8.195312 24.898438 9.105469 C 24.898438 9.113281 24.175781 8.78125 23.265625 8.570312 Z M 23.265625 8.570312 "/>
</g>
</svg>
