<?xml version="1.0" encoding="UTF-8"?>
<svg xmlns="http://www.w3.org/2000/svg" xmlns:xlink="http://www.w3.org/1999/xlink" width="35pt" height="25pt" viewBox="0 0 35 25" version="1.1">
<g id="surface1">
<path style=" stroke:none;fill-rule:nonzero;fill:rgb(94.901961%,78.431373%,0%);fill-opacity:1;" d="M 35 12.496094 C 35 18.933594 27.164062 24.144531 17.5 24.144531 C 7.835938 24.144531 0 18.933594 0 12.496094 C 0 6.066406 7.835938 0.855469 17.5 0.855469 C 26.421875 0.855469 33.921875 5.324219 34.894531 11.226562 "/>
<path style=" stroke:none;fill-rule:nonzero;fill:rgb(19.215686%,24.705882%,21.176471%);fill-opacity:1;" d="M 33.183594 8.367188 C 36.644531 14.097656 32.429688 20.613281 23.773438 22.90625 C 15.109375 25.207031 5.273438 22.410156 1.800781 16.675781 C -1.664062 10.941406 2.550781 4.425781 11.210938 2.136719 C 19.847656 -0.15625 29.648438 2.609375 33.144531 8.316406 "/>
<path style=" stroke:none;fill-rule:nonzero;fill:rgb(100%,100%,100%);fill-opacity:1;" d="M 2.605469 12.433594 C 2.597656 7.328125 10.019531 2.894531 18.101562 3.066406 C 26.480469 3.050781 30.644531 7.664062 31.597656 9.472656 L 24.914062 9.472656 C 23.433594 6.976562 21.484375 5.933594 17.195312 5.960938 C 11.210938 6.285156 8.492188 9.742188 8.621094 12.371094 C 8.660156 13.867188 9.222656 17.988281 16.890625 18.101562 C 20.273438 17.972656 24.328125 17.789062 25.117188 14.507812 L 14.886719 14.527344 L 14.886719 11.878906 L 32.328125 12 C 32.53125 16.839844 27.703125 21.867188 16.914062 22.03125 C 7.753906 21.96875 2.445312 16.539062 2.605469 12.433594 Z M 2.605469 12.433594 "/>
</g>
</svg>
