<?xml version="1.0" encoding="UTF-8" standalone="no"?>
<svg
   xmlns:dc="http://purl.org/dc/elements/1.1/"
   xmlns:cc="http://creativecommons.org/ns#"
   xmlns:rdf="http://www.w3.org/1999/02/22-rdf-syntax-ns#"
   xmlns:svg="http://www.w3.org/2000/svg"
   xmlns="http://www.w3.org/2000/svg"
   xmlns:sodipodi="http://sodipodi.sourceforge.net/DTD/sodipodi-0.dtd"
   xmlns:inkscape="http://www.inkscape.org/namespaces/inkscape"
   width="337.20111"
   height="360.53333"
   viewBox="0 0 337.20111 360.53333"
   id="svg2"
   version="1.1"
   inkscape:version="0.48.4 r9939"
   sodipodi:docname="indianapolis-colts.svg">
  <metadata
     id="metadata34">
    <rdf:RDF>
      <cc:Work
         rdf:about="">
        <dc:format>image/svg+xml</dc:format>
        <dc:type
           rdf:resource="http://purl.org/dc/dcmitype/StillImage" />
      </cc:Work>
    </rdf:RDF>
  </metadata>
  <defs
     id="defs32" />
  <sodipodi:namedview
     pagecolor="#ffffff"
     bordercolor="#666666"
     borderopacity="1"
     objecttolerance="10"
     gridtolerance="10"
     guidetolerance="10"
     inkscape:pageopacity="0"
     inkscape:pageshadow="2"
     inkscape:window-width="640"
     inkscape:window-height="480"
     id="namedview30"
     showgrid="false"
     inkscape:zoom="0.4609375"
     inkscape:cx="169.3"
     inkscape:cy="181.3"
     inkscape:window-x="65"
     inkscape:window-y="24"
     inkscape:window-maximized="0"
     inkscape:current-layer="svg2" />
  <g
     id="g4"
     transform="translate(-86.7,-76.766667)">
    <g
       id="g6">
      <path
         d="m 371.2,128.7 c -6.4,-9 -3.8,-13.7 0.6,-14.3 3.1,-0.4 6.8,0 8.7,0 3.4,0 9.9,0.4 9.3,-6.2 -0.6,-7.5 -2.2,-14.6 -4,-23.3 -1.9,-8.7 -2.5,-8.1 -14.3,-8.1 0,0 -2.2,-0.3 -20.2,0.9 -18,1.2 -32.3,3.7 -33,28 -0.6,24.3 5,32.4 14.9,47.9 9.9,15.6 39.8,63.5 39.8,107 0,80 -70.3,114.5 -117.6,114.5 -47.3,0 -117.6,-34.4 -117.6,-114.5 0,-43.6 29.9,-91.5 39.8,-107 10,-15.6 15.6,-23.6 14.9,-47.9 -0.6,-24.3 -14.9,-26.7 -33,-28 -18,-1.2 -20.2,-0.9 -20.2,-0.9 -11.8,0 -12.4,-0.6 -14.3,8.1 -1.9,8.7 -3.4,15.9 -4,23.3 -0.6,6.6 5.9,6.2 9.3,6.2 1.9,0 5.6,-0.5 8.7,0 4.5,0.6 7,5.4 0.6,14.3 -25.7,36 -52.9,80.5 -52.9,133.8 0,87.7 75.3,174.8 168.6,174.8 93.3,0 168.6,-87.1 168.6,-174.8 0.2,-53.3 -26.9,-97.8 -52.7,-133.8 z M 346,135 c -2.8,0 -5.1,-2.3 -5.1,-5.1 0,-2.8 2.3,-5.1 5.1,-5.1 2.8,0 5.1,2.3 5.1,5.1 0,2.8 -2.3,5.1 -5.1,5.1 z M 165,124.9 c 2.8,0 5.1,2.3 5.1,5.1 0,2.8 -2.3,5.1 -5.1,5.1 -2.8,0 -5.1,-2.3 -5.1,-5.1 0,-2.8 2.3,-5.1 5.1,-5.1 z m -50.4,128.9 c -2.8,0 -5.1,-2.3 -5.1,-5.1 0,-2.8 2.3,-5.1 5.1,-5.1 2.8,0 5.1,2.3 5.1,5.1 0,2.9 -2.3,5.1 -5.1,5.1 z M 139.5,354 c -2.8,0 -5.1,-2.3 -5.1,-5.1 0,-2.8 2.3,-5.1 5.1,-5.1 2.8,0 5.1,2.3 5.1,5.1 0,2.8 -2.3,5.1 -5.1,5.1 z m 116,57.2 c -2.8,0 -5.1,-2.3 -5.1,-5.1 0,-2.8 2.3,-5.1 5.1,-5.1 2.8,0 5.1,2.3 5.1,5.1 0,2.9 -2.3,5.1 -5.1,5.1 z m 116,-57.2 c -2.8,0 -5.1,-2.3 -5.1,-5.1 0,-2.8 2.3,-5.1 5.1,-5.1 2.8,0 5.1,2.3 5.1,5.1 0,2.8 -2.3,5.1 -5.1,5.1 z m 24.9,-100.2 c -2.8,0 -5.1,-2.3 -5.1,-5.1 0,-2.8 2.3,-5.1 5.1,-5.1 2.8,0 5.1,2.3 5.1,5.1 0,2.9 -2.3,5.1 -5.1,5.1 z"
         id="path8"
         inkscape:connector-curvature="0"
         style="fill:#023a79" />
      <g
         id="g10"
         style="fill:#ffffff">
        <circle
           cx="346"
           cy="129.89999"
           r="5.0999999"
           id="circle12"
           sodipodi:cx="346"
           sodipodi:cy="129.89999"
           sodipodi:rx="5.0999999"
           sodipodi:ry="5.0999999"
           d="m 351.1,129.89999 c 0,2.81666 -2.28335,5.1 -5.1,5.1 -2.81665,0 -5.1,-2.28334 -5.1,-5.1 0,-2.81665 2.28335,-5.1 5.1,-5.1 2.81665,0 5.1,2.28335 5.1,5.1 z" />
        <path
           d="M 346,129.9"
           id="path14"
           inkscape:connector-curvature="0" />
        <circle
           cx="165"
           cy="129.89999"
           r="5.0999999"
           id="circle16"
           sodipodi:cx="165"
           sodipodi:cy="129.89999"
           sodipodi:rx="5.0999999"
           sodipodi:ry="5.0999999"
           d="m 170.1,129.89999 c 0,2.81666 -2.28335,5.1 -5.1,5.1 -2.81665,0 -5.1,-2.28334 -5.1,-5.1 0,-2.81665 2.28335,-5.1 5.1,-5.1 2.81665,0 5.1,2.28335 5.1,5.1 z" />
        <path
           d="m 109.5,248.8 c 0,-2.8 2.3,-5.1 5.1,-5.1 2.8,0 5.1,2.3 5.1,5.1 0,2.8 -2.3,5.1 -5.1,5.1 -2.8,-0.1 -5.1,-2.3 -5.1,-5.1 z"
           id="path18"
           inkscape:connector-curvature="0" />
        <circle
           cx="139.5"
           cy="348.89999"
           r="5.0999999"
           id="circle20"
           sodipodi:cx="139.5"
           sodipodi:cy="348.89999"
           sodipodi:rx="5.0999999"
           sodipodi:ry="5.0999999"
           d="m 144.6,348.89999 c 0,2.81666 -2.28335,5.1 -5.1,5.1 -2.81665,0 -5.1,-2.28334 -5.1,-5.1 0,-2.81665 2.28335,-5.1 5.1,-5.1 2.81665,0 5.1,2.28335 5.1,5.1 z" />
        <path
           d="m 255.5,401.1 c 2.8,0 5.1,2.3 5.1,5.1 0,2.8 -2.3,5.1 -5.1,5.1 -2.8,0 -5.1,-2.3 -5.1,-5.1 0,-2.8 2.3,-5.1 5.1,-5.1 z"
           id="path22"
           inkscape:connector-curvature="0" />
        <circle
           cx="371.5"
           cy="348.89999"
           r="5.0999999"
           id="circle24"
           sodipodi:cx="371.5"
           sodipodi:cy="348.89999"
           sodipodi:rx="5.0999999"
           sodipodi:ry="5.0999999"
           d="m 376.6,348.89999 c 0,2.81666 -2.28335,5.1 -5.1,5.1 -2.81665,0 -5.1,-2.28334 -5.1,-5.1 0,-2.81665 2.28335,-5.1 5.1,-5.1 2.81665,0 5.1,2.28335 5.1,5.1 z" />
        <path
           d="M 371.5,348.9"
           id="path26"
           inkscape:connector-curvature="0" />
        <path
           d="m 391.4,248.8 c 0,-2.8 2.3,-5.1 5.1,-5.1 2.8,0 5.1,2.3 5.1,5.1 0,2.8 -2.3,5.1 -5.1,5.1 -2.9,-0.1 -5.1,-2.3 -5.1,-5.1 z"
           id="path28"
           inkscape:connector-curvature="0" />
      </g>
    </g>
  </g>
</svg>
