<?xml version="1.0" encoding="UTF-8"?>
<svg xmlns="http://www.w3.org/2000/svg" xmlns:xlink="http://www.w3.org/1999/xlink" width="28pt" height="20pt" viewBox="0 0 28 20" version="1.1">
<g id="surface1">
<path style=" stroke:none;fill-rule:nonzero;fill:rgb(0.784314%,22.745098%,47.45098%);fill-opacity:1;" d="M 20.542969 2.882812 C 20.183594 2.382812 20.328125 2.121094 20.578125 2.089844 C 20.753906 2.066406 20.960938 2.089844 21.066406 2.089844 C 21.261719 2.089844 21.625 2.109375 21.59375 1.746094 C 21.558594 1.328125 21.46875 0.9375 21.367188 0.453125 C 21.261719 -0.03125 21.226562 0 20.5625 0 C 20.5625 0 20.4375 -0.015625 19.417969 0.0507812 C 18.402344 0.117188 17.597656 0.261719 17.558594 1.605469 C 17.523438 2.953125 17.839844 3.40625 18.398438 4.265625 C 18.957031 5.128906 20.644531 7.785156 20.644531 10.199219 C 20.644531 14.636719 16.675781 16.550781 14.003906 16.550781 C 11.335938 16.550781 7.367188 14.640625 7.367188 10.199219 C 7.367188 7.78125 9.054688 5.125 9.613281 4.265625 C 10.175781 3.398438 10.492188 2.953125 10.453125 1.605469 C 10.417969 0.261719 9.613281 0.125 8.59375 0.0507812 C 7.574219 -0.015625 7.449219 0 7.449219 0 C 6.785156 0 6.75 -0.03125 6.644531 0.453125 C 6.535156 0.9375 6.453125 1.335938 6.417969 1.746094 C 6.382812 2.109375 6.75 2.089844 6.941406 2.089844 C 7.050781 2.089844 7.257812 2.0625 7.433594 2.089844 C 7.6875 2.121094 7.828125 2.386719 7.46875 2.882812 C 6.019531 4.878906 4.480469 7.347656 4.480469 10.304688 C 4.480469 15.167969 8.734375 20 13.996094 20 C 19.265625 20 23.519531 15.167969 23.519531 10.304688 C 23.53125 7.347656 22 4.878906 20.542969 2.882812 Z M 19.121094 3.230469 C 18.960938 3.230469 18.832031 3.101562 18.832031 2.949219 C 18.832031 2.792969 18.960938 2.664062 19.121094 2.664062 C 19.277344 2.664062 19.40625 2.792969 19.40625 2.949219 C 19.40625 3.101562 19.277344 3.230469 19.121094 3.230469 Z M 8.902344 2.671875 C 9.0625 2.671875 9.191406 2.796875 9.191406 2.953125 C 9.191406 3.109375 9.0625 3.234375 8.902344 3.234375 C 8.746094 3.234375 8.617188 3.109375 8.617188 2.953125 C 8.617188 2.796875 8.746094 2.671875 8.902344 2.671875 Z M 6.058594 9.824219 C 5.898438 9.824219 5.769531 9.695312 5.769531 9.542969 C 5.769531 9.386719 5.898438 9.253906 6.058594 9.253906 C 6.214844 9.253906 6.34375 9.386719 6.34375 9.542969 C 6.34375 9.703125 6.214844 9.824219 6.058594 9.824219 Z M 7.460938 15.382812 C 7.304688 15.382812 7.171875 15.25 7.171875 15.097656 C 7.171875 14.941406 7.304688 14.8125 7.460938 14.8125 C 7.617188 14.8125 7.75 14.941406 7.75 15.097656 C 7.75 15.25 7.617188 15.382812 7.460938 15.382812 Z M 14.011719 18.554688 C 13.851562 18.554688 13.722656 18.425781 13.722656 18.269531 C 13.722656 18.113281 13.851562 17.988281 14.011719 17.988281 C 14.171875 17.988281 14.300781 18.113281 14.300781 18.269531 C 14.300781 18.429688 14.171875 18.554688 14.011719 18.554688 Z M 20.5625 15.382812 C 20.402344 15.382812 20.273438 15.25 20.273438 15.097656 C 20.273438 14.941406 20.402344 14.8125 20.5625 14.8125 C 20.71875 14.8125 20.847656 14.941406 20.847656 15.097656 C 20.847656 15.25 20.71875 15.382812 20.5625 15.382812 Z M 21.964844 9.824219 C 21.808594 9.824219 21.675781 9.695312 21.675781 9.542969 C 21.675781 9.386719 21.808594 9.253906 21.964844 9.253906 C 22.121094 9.253906 22.253906 9.386719 22.253906 9.542969 C 22.253906 9.703125 22.121094 9.824219 21.964844 9.824219 Z M 21.964844 9.824219 "/>
<path style=" stroke:none;fill-rule:nonzero;fill:rgb(100%,100%,100%);fill-opacity:1;" d="M 19.40625 2.949219 C 19.40625 3.105469 19.277344 3.230469 19.121094 3.230469 C 18.960938 3.230469 18.832031 3.105469 18.832031 2.949219 C 18.832031 2.792969 18.960938 2.664062 19.121094 2.664062 C 19.277344 2.664062 19.40625 2.792969 19.40625 2.949219 Z M 19.40625 2.949219 "/>
<path style=" stroke:none;fill-rule:nonzero;fill:rgb(100%,100%,100%);fill-opacity:1;" d="M 9.191406 2.949219 C 9.191406 3.105469 9.0625 3.230469 8.902344 3.230469 C 8.742188 3.230469 8.617188 3.105469 8.617188 2.949219 C 8.617188 2.792969 8.742188 2.664062 8.902344 2.664062 C 9.0625 2.664062 9.191406 2.792969 9.191406 2.949219 Z M 9.191406 2.949219 "/>
<path style=" stroke:none;fill-rule:nonzero;fill:rgb(100%,100%,100%);fill-opacity:1;" d="M 5.769531 9.546875 C 5.769531 9.390625 5.898438 9.261719 6.058594 9.261719 C 6.214844 9.261719 6.34375 9.390625 6.34375 9.546875 C 6.34375 9.703125 6.214844 9.828125 6.058594 9.828125 C 5.898438 9.824219 5.769531 9.703125 5.769531 9.546875 Z M 5.769531 9.546875 "/>
<path style=" stroke:none;fill-rule:nonzero;fill:rgb(100%,100%,100%);fill-opacity:1;" d="M 7.75 15.097656 C 7.75 15.253906 7.621094 15.378906 7.460938 15.378906 C 7.300781 15.378906 7.171875 15.253906 7.171875 15.097656 C 7.171875 14.941406 7.300781 14.8125 7.460938 14.8125 C 7.621094 14.8125 7.75 14.941406 7.75 15.097656 Z M 7.75 15.097656 "/>
<path style=" stroke:none;fill-rule:nonzero;fill:rgb(100%,100%,100%);fill-opacity:1;" d="M 14.011719 17.992188 C 14.171875 17.992188 14.300781 18.121094 14.300781 18.273438 C 14.300781 18.429688 14.171875 18.5625 14.011719 18.5625 C 13.851562 18.5625 13.722656 18.429688 13.722656 18.273438 C 13.722656 18.121094 13.851562 17.992188 14.011719 17.992188 Z M 14.011719 17.992188 "/>
<path style=" stroke:none;fill-rule:nonzero;fill:rgb(100%,100%,100%);fill-opacity:1;" d="M 20.847656 15.097656 C 20.847656 15.253906 20.71875 15.378906 20.5625 15.378906 C 20.402344 15.378906 20.273438 15.253906 20.273438 15.097656 C 20.273438 14.941406 20.402344 14.8125 20.5625 14.8125 C 20.71875 14.8125 20.847656 14.941406 20.847656 15.097656 Z M 20.847656 15.097656 "/>
<path style=" stroke:none;fill-rule:nonzero;fill:rgb(100%,100%,100%);fill-opacity:1;" d="M 21.683594 9.546875 C 21.683594 9.390625 21.8125 9.261719 21.96875 9.261719 C 22.128906 9.261719 22.257812 9.390625 22.257812 9.546875 C 22.257812 9.703125 22.128906 9.828125 21.96875 9.828125 C 21.808594 9.824219 21.683594 9.703125 21.683594 9.546875 Z M 21.683594 9.546875 "/>
</g>
</svg>
