<?xml version="1.0" encoding="UTF-8"?>
<svg xmlns="http://www.w3.org/2000/svg" xmlns:xlink="http://www.w3.org/1999/xlink" width="35pt" height="25pt" viewBox="0 0 35 25" version="1.1">
<g id="surface1">
<path style=" stroke:none;fill-rule:nonzero;fill:rgb(100%,100%,100%);fill-opacity:1;" d="M 25.683594 24.878906 C 25.691406 24.878906 26.53125 24.667969 26.53125 24.667969 C 27.566406 24.410156 28.222656 24.234375 28.613281 24.054688 L 28.949219 23.886719 L 29.144531 23.5625 C 29.195312 23.464844 30.492188 21.273438 31.132812 18.226562 C 31.308594 18.058594 31.984375 17.449219 31.984375 17.449219 L 32.003906 17.242188 L 32.027344 16.960938 C 32.058594 16.710938 32.066406 16.453125 32.066406 16.199219 C 32.066406 15.746094 32.027344 15.265625 31.960938 14.789062 C 33.453125 13.953125 34.109375 12.742188 34.503906 11.769531 C 34.828125 10.972656 34.992188 10.066406 34.992188 9.136719 C 34.992188 8.214844 34.828125 7.261719 34.511719 6.339844 C 34 4.839844 32.84375 2.734375 30.21875 1.179688 C 28.585938 0.214844 26.292969 -0.191406 24.066406 0.0820312 C 21.484375 0.410156 19.261719 1.636719 17.800781 3.527344 C 17.691406 3.679688 17.582031 3.832031 17.476562 4 L 17.425781 4.011719 C 9.195312 5.292969 2.648438 10.679688 2.375 10.910156 L 0.0078125 12.875 L 3.082031 13.125 C 8.488281 13.558594 12.308594 15.453125 14.5625 16.96875 C 17.035156 18.625 18.226562 20.199219 18.238281 20.21875 L 19.03125 21.304688 L 20.054688 20.421875 C 20.230469 20.273438 20.394531 20.101562 20.535156 19.910156 L 20.570312 19.945312 L 20.796875 20.140625 C 20.949219 20.261719 21.070312 20.371094 21.230469 20.546875 C 21.265625 20.632812 21.289062 20.730469 21.289062 20.839844 C 21.289062 21.113281 21.257812 21.195312 21.1875 21.371094 L 21.148438 21.449219 C 21.0625 21.664062 20.894531 21.964844 20.894531 21.976562 L 20.648438 22.433594 L 25.214844 25 "/>
<path style=" stroke:none;fill-rule:nonzero;fill:rgb(7.45098%,14.901961%,29.411765%);fill-opacity:1;" d="M 21.046875 18.695312 L 21.101562 18.742188 L 21.101562 18.722656 Z M 28.769531 11.148438 L 28.691406 11.226562 Z M 28.769531 11.148438 "/>
<path style=" stroke:none;fill-rule:nonzero;fill:rgb(78.823529%,68.627451%,45.490196%);fill-opacity:1;" d="M 29.957031 1.644531 C 27.03125 -0.0820312 21.265625 -0.101562 18.226562 3.859375 C 18.074219 4.054688 17.9375 4.265625 17.800781 4.480469 C 17.671875 4.503906 17.574219 4.523438 17.515625 4.53125 C 9.414062 5.796875 2.984375 11.09375 2.710938 11.316406 L 1.351562 12.453125 L 3.117188 12.59375 C 13.820312 13.453125 18.605469 19.839844 18.660156 19.902344 L 19.121094 20.53125 L 19.710938 20.023438 C 20.035156 19.75 20.261719 19.421875 20.40625 19.101562 C 20.550781 19.238281 20.71875 19.378906 20.914062 19.554688 C 21.179688 19.792969 21.378906 19.910156 21.679688 20.273438 C 21.777344 20.457031 21.824219 20.664062 21.824219 20.859375 C 21.824219 21.292969 21.746094 21.433594 21.636719 21.671875 C 21.539062 21.910156 21.355469 22.238281 21.355469 22.238281 L 25.265625 24.445312 L 25.53125 24.375 L 26.378906 24.152344 C 27.359375 23.910156 28.023438 23.738281 28.367188 23.574219 L 28.558594 23.476562 L 28.679688 23.292969 C 28.726562 23.195312 30.027344 20.988281 30.632812 17.949219 C 30.847656 17.753906 31.46875 17.1875 31.46875 17.1875 L 31.492188 16.914062 C 31.511719 16.675781 31.527344 16.4375 31.527344 16.207031 C 31.527344 15.613281 31.46875 15.039062 31.359375 14.503906 C 32.914062 13.769531 33.566406 12.628906 34 11.574219 C 35.140625 8.773438 34.238281 4.175781 29.957031 1.644531 Z M 29.957031 1.644531 "/>
<path style=" stroke:none;fill-rule:nonzero;fill:rgb(7.45098%,14.901961%,29.411765%);fill-opacity:1;" d="M 32.996094 6.109375 C 30.523438 0.101562 23.710938 1.296875 23.710938 1.296875 L 23.765625 1.289062 C 24.109375 1.265625 26.128906 1.148438 28.144531 1.980469 C 29.921875 2.714844 31.898438 4.539062 32.375 6.957031 C 32.492188 7.535156 32.535156 8.066406 32.535156 8.542969 L 32.535156 8.671875 C 32.507812 10.148438 32.070312 11.140625 31.917969 11.457031 C 31.710938 11.875 31.21875 12.496094 30.882812 12.746094 C 30.601562 12.945312 30.347656 13.039062 30.140625 13.039062 C 30.105469 13.039062 30.074219 13.039062 30.035156 13.027344 L 29.9375 13 C 29.75 12.910156 29.683594 12.691406 29.257812 12.085938 C 28.976562 11.691406 28.613281 11.300781 28.613281 11.300781 C 28.648438 11.269531 28.683594 11.238281 28.710938 11.203125 L 28.753906 11.148438 C 28.789062 11.105469 28.832031 11.0625 28.867188 11.007812 C 28.976562 10.867188 29.0625 10.695312 29.136719 10.511719 L 29.144531 10.496094 C 29.171875 10.433594 29.191406 10.367188 29.203125 10.304688 C 29.550781 9.066406 29.171875 7.132812 27.609375 5.886719 C 25.945312 4.558594 24.15625 4.441406 22.695312 5.027344 C 20.25 6.011719 18.769531 8.957031 20.515625 11.378906 C 21.363281 12.550781 22.738281 12.628906 23.597656 11.972656 C 24.398438 11.355469 24.941406 9.476562 22.960938 8.464844 C 24.539062 8.335938 26.46875 10.226562 25.519531 12.671875 C 25.453125 12.847656 25.375 13.019531 25.285156 13.179688 C 23.914062 15.496094 20.167969 15.242188 18.367188 13.082031 C 16.621094 10.980469 16.320312 8.164062 17.160156 5.816406 C 17.222656 5.644531 17.289062 5.480469 17.363281 5.308594 C 10.148438 6.871094 5.46875 11.257812 5.46875 11.257812 C 15.578125 13.363281 19.242188 19.476562 19.242188 19.476562 C 19.613281 19.15625 19.816406 18.722656 19.933594 18.359375 C 19.238281 17.207031 19.535156 16.125 19.535156 16.125 C 19.6875 16.90625 19.96875 17.472656 20.25 17.882812 C 20.375 18.046875 20.929688 18.597656 21.039062 18.695312 L 21.089844 18.730469 L 21.089844 18.75 C 21.59375 19.199219 22.195312 19.707031 22.3125 19.902344 C 22.855469 20.882812 22.28125 22 22.28125 22 L 25.335938 23.683594 C 26.019531 23.488281 27.613281 23.140625 28.058594 22.929688 C 28.058594 22.929688 29.417969 20.652344 29.976562 17.589844 L 30.777344 16.851562 C 31.078125 16.011719 30.546875 14.167969 30.546875 14.167969 C 30.609375 14.148438 30.679688 14.132812 30.742188 14.105469 C 30.902344 14.050781 31.058594 13.984375 31.21875 13.894531 C 32.964844 12.917969 34.566406 9.910156 32.996094 6.109375 Z M 32.996094 6.109375 "/>
<path style=" stroke:none;fill-rule:nonzero;fill:rgb(100%,100%,100%);fill-opacity:1;" d="M 32.542969 8.554688 C 32.542969 8.074219 32.496094 7.542969 32.386719 6.96875 C 31.90625 4.546875 29.921875 2.722656 28.15625 1.992188 C 26.128906 1.15625 24.121094 1.269531 23.773438 1.296875 C 23.695312 1.308594 23.609375 1.316406 23.523438 1.332031 C 20.773438 1.722656 19.101562 3.699219 19.101562 3.699219 C 21.59375 1.753906 25.332031 1.519531 27.808594 2.527344 C 30.28125 3.546875 32.074219 5.609375 32.550781 8.675781 L 32.550781 8.652344 Z M 24.515625 20.609375 C 24.539062 20.488281 24.894531 20.457031 24.894531 20.457031 C 25.148438 21.351562 24.753906 21.925781 24.734375 22.019531 C 24.710938 21.597656 24.777344 20.847656 24.515625 20.609375 Z M 18.378906 13.070312 C 16.632812 10.972656 16.328125 8.152344 17.167969 5.804688 C 16.664062 6.585938 15.507812 8.890625 16.9375 12.0625 C 18.671875 15.90625 23.414062 16.058594 25.007812 13.65625 C 25.117188 13.496094 25.214844 13.328125 25.292969 13.167969 C 23.925781 15.480469 20.179688 15.222656 18.378906 13.070312 Z M 27.480469 16.570312 C 27.480469 16.253906 27.742188 15.992188 28.058594 15.992188 L 28.082031 15.992188 C 28.015625 15.675781 27.871094 15.328125 27.609375 14.984375 C 27.609375 14.984375 27.625 15.320312 27.554688 15.613281 C 27.261719 15.773438 27.058594 16.070312 27.058594 16.429688 C 27.058594 16.929688 27.472656 17.351562 27.980469 17.351562 C 27.980469 17.351562 28.015625 17.265625 28.046875 17.136719 C 27.742188 17.144531 27.480469 16.886719 27.480469 16.570312 Z M 27.480469 16.570312 "/>
<path style=" stroke:none;fill-rule:nonzero;fill:rgb(7.45098%,14.901961%,29.411765%);fill-opacity:1;" d="M 28.121094 16.816406 L 28.101562 16.863281 C 27.984375 16.90625 27.792969 16.871094 27.710938 16.6875 C 27.925781 16.808594 28.09375 16.675781 28.136719 16.632812 L 28.144531 16.621094 C 28.144531 16.621094 28.15625 16.710938 28.121094 16.816406 Z M 28.121094 16.816406 "/>
<path style=" stroke:none;fill-rule:nonzero;fill:rgb(100%,100%,100%);fill-opacity:1;" d="M 28.144531 16.621094 L 28.136719 16.632812 C 28.09375 16.675781 27.925781 16.808594 27.710938 16.6875 C 27.792969 16.871094 27.984375 16.90625 28.101562 16.863281 L 28.121094 16.816406 C 28.15625 16.710938 28.144531 16.621094 28.144531 16.621094 Z M 29.910156 16.472656 C 29.980469 13.558594 27.554688 11.617188 27.554688 11.617188 C 27.554688 11.617188 29.332031 13.84375 29.125 16.453125 L 28.636719 16.90625 C 28.648438 17.613281 28.613281 18.960938 27.925781 20.476562 C 27.21875 19.1875 25.648438 18.332031 25.003906 18.179688 C 24.558594 18.429688 23.589844 18.96875 23.023438 19.597656 C 23.121094 19.730469 23.261719 20.101562 23.28125 20.226562 C 23.414062 20.945312 23.316406 21.46875 23.199219 21.839844 C 23.199219 21.839844 24.285156 22.453125 24.265625 22.414062 C 24.570312 21.390625 24.167969 20.921875 23.871094 20.394531 C 24.164062 20.21875 24.84375 19.839844 25.160156 19.707031 C 25.476562 20.148438 25.648438 20.882812 25.300781 21.925781 C 25.195312 22.238281 25.046875 22.554688 24.960938 22.78125 C 24.960938 22.789062 25.378906 23.019531 25.378906 23 C 25.929688 22.890625 26.433594 22.511719 26.628906 21.988281 C 26.6875 21.832031 26.664062 21.714844 26.644531 21.589844 C 26.589844 21.664062 26.519531 21.769531 26.421875 21.832031 C 26.28125 21.5 26.28125 21.246094 26.457031 21.054688 C 26.546875 20.957031 26.652344 20.910156 26.773438 20.910156 C 26.960938 20.902344 27.101562 21.023438 27.164062 21.160156 C 27.4375 21.832031 26.804688 22.53125 26.804688 22.53125 C 26.804688 22.53125 27.402344 22.5 27.578125 22.414062 C 27.9375 21.695312 29.039062 19.339844 29.347656 16.980469 Z M 29.910156 16.472656 "/>
</g>
</svg>
