<?xml version="1.0" encoding="UTF-8"?>
<svg xmlns="http://www.w3.org/2000/svg" xmlns:xlink="http://www.w3.org/1999/xlink" width="28pt" height="20pt" viewBox="0 0 28 20" version="1.1">
<g id="surface1">
<path style=" stroke:none;fill-rule:nonzero;fill:rgb(0.392157%,33.72549%,47.45098%);fill-opacity:1;" d="M 5.726562 13.582031 C 5.5625 13.714844 5.40625 13.761719 5.203125 13.675781 C 4.984375 13.589844 5.5625 13.804688 5.816406 13.757812 C 5.933594 13.613281 5.945312 13.53125 6 13.433594 C 6.117188 13.226562 6.21875 12.78125 6.121094 12.5625 C 5.972656 12.898438 6 13.347656 5.726562 13.582031 "/>
<path style=" stroke:none;fill-rule:nonzero;fill:rgb(0%,55.294118%,59.215686%);fill-opacity:1;" d="M 4.042969 13.253906 C 4.441406 13.410156 4.5 13.4375 4.898438 13.605469 C 4.921875 13.613281 5.359375 13.757812 5.5625 13.738281 C 5.554688 13.695312 5.605469 13.773438 5.761719 13.582031 C 6 13.289062 6.035156 12.949219 6.128906 12.589844 C 6.082031 12.34375 5.878906 12.871094 5.578125 12.878906 C 5.164062 12.953125 5.046875 12.894531 4.730469 12.835938 C 4.179688 12.777344 3.894531 12.769531 3.738281 12.835938 C 3.617188 12.855469 3.523438 13.019531 3.523438 13.019531 "/>
<path style=" stroke:none;fill-rule:nonzero;fill:rgb(0%,55.294118%,59.215686%);fill-opacity:1;" d="M 21.542969 10.507812 C 21.636719 10.261719 21.648438 10.1875 21.730469 9.941406 C 21.714844 9.929688 21.773438 9.746094 21.757812 9.734375 C 21.644531 9.820312 21.40625 10.078125 21.296875 10.171875 C 20.855469 10.554688 20.402344 10.914062 19.933594 11.257812 C 19.921875 11.46875 19.9375 11.757812 19.902344 11.96875 C 19.8125 12.457031 19.707031 12.945312 19.613281 13.429688 C 19.589844 13.585938 19.640625 13.585938 19.640625 13.585938 C 19.878906 13.421875 19.996094 13.292969 20.03125 13.261719 C 20.742188 12.578125 21.023438 11.921875 21.417969 10.871094 "/>
<path style=" stroke:none;fill-rule:nonzero;fill:rgb(0.392157%,33.72549%,47.45098%);fill-opacity:1;" d="M 27.652344 4.207031 C 27.367188 4.273438 27.214844 4.335938 26.929688 4.40625 C 26.34375 4.570312 25.796875 4.824219 25.269531 5.117188 C 23.9375 5.863281 22.796875 6.867188 21.644531 7.855469 C 21.148438 8.28125 20.65625 8.71875 20.160156 9.144531 C 19.425781 9.78125 19.167969 10.015625 18.421875 10.671875 C 18.246094 10.84375 17.816406 11.160156 17.585938 11.320312 C 17.75 10.984375 17.9375 10.734375 17.980469 10.664062 C 18.300781 10.121094 18.640625 9.589844 18.953125 9.039062 C 19.390625 8.28125 19.878906 7.578125 20.589844 7.046875 C 20.835938 6.863281 21.351562 6.46875 22.910156 5.5625 C 22.84375 5.5625 21.402344 6.304688 21.347656 6.328125 C 20.421875 6.714844 19.453125 7.53125 18.929688 8.402344 C 18.394531 9.289062 17.890625 10.199219 17.320312 11.066406 C 16.425781 12.425781 15.375 13.652344 14.042969 14.605469 C 13.949219 14.671875 13.835938 14.710938 13.722656 14.738281 C 13.722656 14.734375 13.726562 14.734375 13.726562 14.730469 C 13.992188 14.273438 14.226562 13.796875 14.417969 13.3125 L 14.5 13.210938 C 14.390625 13.257812 14.289062 13.316406 14.25 13.332031 C 13.261719 13.792969 12.269531 14.234375 11.214844 14.539062 C 10.417969 14.769531 9.605469 14.933594 8.773438 14.980469 C 7.945312 15.027344 7.113281 15 6.304688 14.800781 C 6.175781 14.769531 6.046875 14.734375 5.917969 14.699219 C 5.90625 14.695312 5.890625 14.691406 5.878906 14.691406 C 4.617188 14.347656 4.503906 14.113281 3.988281 13.738281 C 3.863281 13.601562 3.6875 13.335938 3.472656 13.203125 C 3.621094 13.449219 3.84375 13.8125 3.992188 14.0625 C 2.699219 14.410156 0.679688 13.199219 0 11.640625 C 0.0078125 11.910156 0.0585938 12.007812 0.105469 12.136719 C 0.335938 12.65625 0.675781 13.097656 1.121094 13.460938 C 1.601562 13.847656 1.808594 13.984375 2.746094 14.28125 C 3.101562 14.355469 3.179688 14.382812 3.859375 14.398438 C 3.960938 14.40625 4.304688 14.347656 4.402344 14.355469 C 4.527344 14.410156 4.402344 14.359375 4.632812 14.472656 C 5.136719 14.71875 5.964844 15.011719 6.667969 15.171875 C 7.144531 15.28125 7.621094 15.382812 8.101562 15.46875 C 8.332031 15.511719 8.570312 15.511719 8.804688 15.515625 C 9.652344 15.523438 10.496094 15.53125 11.335938 15.378906 C 12.125 15.238281 12.902344 15.042969 13.65625 14.746094 C 13.628906 14.890625 13.902344 14.898438 14.054688 14.832031 C 14.144531 14.789062 14.238281 14.753906 14.316406 14.699219 C 14.554688 14.535156 14.773438 14.347656 15.023438 14.210938 C 15.421875 13.980469 15.839844 13.789062 16.242188 13.574219 C 17.527344 12.882812 18.765625 12.125 19.933594 11.257812 C 20.402344 10.910156 20.855469 10.554688 21.296875 10.171875 C 21.402344 10.113281 21.660156 9.859375 21.707031 9.820312 C 21.625 10.070312 21.523438 10.441406 21.429688 10.683594 C 20.902344 12.355469 20.28125 12.949219 19.640625 13.585938 C 19.699219 13.601562 19.722656 13.59375 19.800781 13.558594 C 19.847656 13.542969 20.792969 12.636719 21.121094 12.03125 C 21.554688 11.230469 21.882812 10.277344 22.15625 9.410156 C 22.15625 9.410156 22.296875 9.257812 22.5 9.066406 C 23.097656 8.480469 23.660156 7.894531 24.269531 7.320312 C 24.585938 7.023438 24.898438 6.71875 25.242188 6.460938 C 25.933594 5.945312 26.648438 5.460938 27.347656 4.953125 C 27.605469 4.765625 27.925781 4.617188 27.976562 4.207031 C 27.953125 4.160156 27.921875 4.144531 27.867188 4.15625 "/>
<path style=" stroke:none;fill-rule:nonzero;fill:rgb(0.392157%,33.72549%,47.45098%);fill-opacity:1;" d="M 8.875 14.542969 C 9.613281 14.382812 10.339844 14.179688 11.039062 13.894531 C 12.355469 13.34375 13.582031 12.632812 14.769531 11.847656 C 14.816406 11.824219 14.925781 11.746094 14.933594 11.699219 C 14.984375 11.464844 15.019531 11.304688 15.019531 11.070312 C 15.085938 11.042969 15.058594 10.882812 15.0625 10.855469 C 15.019531 10.882812 14.925781 10.988281 14.882812 11.015625 C 14.71875 11.140625 14.5625 11.261719 14.410156 11.382812 C 13.101562 12.429688 11.722656 13.367188 10.148438 13.949219 C 9.089844 14.339844 7.984375 14.558594 6.851562 14.628906 C 6.582031 14.636719 6.300781 14.609375 6.058594 14.65625 C 6.804688 14.734375 8.191406 14.691406 8.875 14.542969 Z M 8.875 14.542969 "/>
<path style=" stroke:none;fill-rule:nonzero;fill:rgb(0.392157%,33.72549%,47.45098%);fill-opacity:1;" d="M 12.828125 7.910156 C 13.1875 7.929688 13.476562 7.871094 13.867188 7.90625 C 14.726562 7.964844 14.902344 7.691406 15.296875 7.339844 C 14.5625 7.527344 14.539062 7.515625 14.019531 7.53125 C 13.167969 7.550781 12.828125 7.574219 12.3125 7.675781 C 11.78125 7.785156 11.460938 7.933594 11.273438 8.03125 C 11.109375 8.148438 10.96875 8.164062 10.6875 8.574219 C 10.996094 8.574219 12.324219 7.921875 12.632812 7.90625 "/>
<path style=" stroke:none;fill-rule:nonzero;fill:rgb(0.392157%,33.72549%,47.45098%);fill-opacity:1;" d="M 23 4.847656 C 23.265625 4.765625 23.53125 4.683594 23.792969 4.601562 C 23.988281 4.539062 24.402344 4.363281 24.59375 4.28125 C 24.464844 4.269531 24.007812 4.300781 23.898438 4.308594 C 23.601562 4.320312 23.472656 4.320312 23.175781 4.332031 C 22.777344 4.351562 22.367188 4.457031 22 4.878906 C 22.28125 4.714844 22.753906 4.644531 22.960938 4.640625 C 23.167969 4.636719 23.136719 4.699219 23 4.847656 "/>
<path style=" stroke:none;fill-rule:nonzero;fill:rgb(0%,55.294118%,59.215686%);fill-opacity:1;" d="M 22.3125 4.675781 C 22.3125 4.675781 22.667969 4.46875 23.125 4.390625 C 23.574219 4.316406 24.027344 4.402344 24.488281 4.289062 C 24.296875 4.371094 24.191406 4.433594 23.792969 4.601562 C 23.53125 4.683594 23.265625 4.761719 23 4.847656 C 22.542969 4.984375 22.417969 5.007812 21.96875 5.269531 C 21.84375 5.335938 21.722656 5.4375 21.574219 5.5625 C 21.722656 5.277344 21.773438 5.09375 21.996094 4.910156 M 3.550781 13.328125 C 4.257812 14.15625 5.242188 14.699219 6.308594 14.660156 C 6.488281 14.65625 7.109375 14.644531 7.289062 14.632812 C 8.425781 14.5625 9.089844 14.339844 10.148438 13.949219 C 11.722656 13.367188 13.101562 12.429688 14.410156 11.382812 C 14.5625 11.261719 14.71875 11.140625 14.882812 11.015625 C 14.925781 10.976562 14.972656 10.945312 15.015625 10.90625 C 15.015625 10.917969 15.015625 10.921875 15.015625 10.929688 C 15.011719 10.957031 15.007812 10.984375 15.003906 11.007812 C 14.910156 11.820312 14.707031 12.585938 14.417969 13.3125 C 14.226562 13.796875 13.917969 14.292969 13.652344 14.753906 C 13.628906 14.792969 13.671875 14.808594 13.667969 14.808594 C 13.78125 14.78125 13.949219 14.671875 14.042969 14.605469 C 15.375 13.65625 16.425781 12.425781 17.320312 11.066406 C 17.890625 10.199219 18.394531 9.289062 18.929688 8.402344 C 19.453125 7.53125 20.117188 7.082031 21.121094 6.515625 C 22.785156 5.539062 22.847656 5.636719 23.570312 5.25 C 24.328125 4.84375 25.117188 4.507812 25.949219 4.269531 C 26.523438 4.109375 27.195312 3.863281 27.792969 3.839844 C 27.921875 3.832031 27.925781 3.839844 28 3.871094 C 27.960938 3.453125 27.292969 3.359375 26.808594 3.476562 C 26.390625 3.589844 25.984375 3.726562 25.566406 3.835938 C 25.40625 3.875 25.230469 3.890625 25.070312 3.871094 C 24.921875 3.851562 24.773438 3.824219 24.628906 3.792969 C 22.6875 3.21875 20.765625 3.917969 20.765625 3.917969 C 20.347656 4.039062 19.941406 4.195312 19.539062 4.367188 C 18.859375 4.660156 18.230469 5.042969 17.613281 5.449219 C 16.800781 5.984375 16.027344 6.578125 15.335938 7.265625 C 15.15625 7.425781 14.480469 7.835938 14.371094 7.835938 C 13.976562 7.832031 13.132812 7.84375 12.738281 7.859375 C 12.429688 7.871094 12.210938 7.871094 11.769531 7.980469 C 11.269531 8.082031 10.722656 8.390625 10.59375 8.746094 C 10.589844 8.890625 10.753906 8.863281 10.769531 8.863281 C 11.144531 8.875 11.402344 8.804688 11.777344 8.804688 C 12.054688 8.800781 12.3125 8.863281 12.546875 8.996094 C 12.9375 9.226562 12.996094 9.679688 12.679688 9.996094 C 12.113281 10.5625 11.546875 11.132812 10.96875 11.6875 C 10.410156 12.230469 9.8125 12.71875 9.152344 13.132812 C 8.476562 13.558594 7.746094 13.847656 6.960938 13.949219 C 6.464844 14.015625 5.949219 14.007812 5.453125 13.945312 C 4.878906 13.875 4.335938 13.640625 3.863281 13.300781 C 3.128906 12.769531 2.296875 12.5 1.425781 12.363281 C 1.085938 12.308594 0.792969 12.199219 0.523438 11.996094 C 0.449219 11.941406 0.195312 11.726562 0.0859375 11.632812 C -0.0390625 11.515625 0.0078125 11.660156 0.015625 11.710938 C 0.695312 13.265625 2.910156 14.5 4.207031 14.152344 "/>
<path style=" stroke:none;fill-rule:nonzero;fill:rgb(96.078431%,50.588235%,12.156863%);fill-opacity:1;" d="M 24.046875 10.289062 C 24.328125 10.117188 24.613281 9.960938 24.90625 9.804688 C 25.113281 9.699219 25.488281 9.558594 25.722656 9.453125 C 25.410156 9.464844 25.144531 9.421875 24.972656 9.410156 C 24.660156 9.382812 24.210938 9.261719 23.917969 9.074219 C 23.769531 8.980469 23.695312 8.875 23.699219 8.679688 C 23.699219 8.578125 23.710938 8.480469 23.753906 8.324219 C 23.5625 8.519531 23.363281 8.703125 23.167969 8.914062 C 23.171875 8.984375 23.179688 9.261719 23.191406 9.460938 C 23.21875 9.925781 23.210938 10.394531 23.132812 10.863281 C 23.054688 11.367188 22.9375 11.855469 22.769531 12.332031 C 22.335938 13.570312 21.546875 14.554688 20.570312 15.394531 C 19.90625 15.960938 19.140625 16.351562 18.308594 16.625 C 17.632812 16.84375 16.9375 16.917969 16.242188 16.96875 C 16.09375 16.976562 15.78125 16.96875 15.628906 16.957031 C 15.320312 16.9375 15.167969 16.917969 14.867188 16.855469 C 13.933594 16.671875 13.0625 16.335938 12.269531 15.785156 C 12.171875 15.71875 12.101562 15.667969 12.023438 15.617188 C 11.804688 15.65625 11.476562 15.695312 11.261719 15.71875 C 10.984375 15.757812 10.707031 15.796875 10.484375 15.835938 C 10.304688 16.226562 10.148438 16.574219 9.992188 16.921875 C 10.148438 16.855469 10.269531 16.765625 10.398438 16.675781 C 10.789062 16.402344 11.183594 16.121094 11.691406 16.113281 C 11.839844 16.113281 12.007812 16.09375 12.101562 16.253906 C 12.269531 16.554688 12.253906 16.882812 12.230469 17.210938 C 12.222656 17.332031 12.214844 17.453125 12.203125 17.621094 C 12.320312 17.558594 12.398438 17.515625 12.480469 17.476562 C 12.753906 17.34375 13.023438 17.199219 13.308594 17.085938 C 13.511719 17.003906 13.644531 17.082031 13.671875 17.261719 C 13.707031 17.496094 13.738281 17.734375 13.742188 17.96875 C 13.753906 18.636719 13.746094 19.300781 13.746094 19.992188 C 13.820312 19.894531 13.902344 19.8125 13.957031 19.71875 C 14.09375 19.46875 14.195312 19.210938 14.34375 18.96875 C 14.617188 18.53125 14.898438 18.09375 15.203125 17.675781 C 15.375 17.441406 15.644531 17.453125 15.8125 17.679688 C 15.992188 17.921875 16.132812 18.195312 16.292969 18.457031 C 16.308594 18.425781 16.347656 18.371094 16.378906 18.308594 C 16.546875 17.992188 16.734375 17.691406 17.007812 17.457031 C 17.234375 17.261719 17.53125 17.285156 17.683594 17.542969 C 17.871094 17.867188 18.03125 18.207031 18.199219 18.542969 C 18.289062 18.71875 18.367188 18.898438 18.457031 19.089844 C 18.488281 18.949219 18.492188 18.734375 18.515625 18.628906 C 18.519531 18.59375 18.546875 18.253906 18.546875 18.222656 C 18.5625 17.898438 18.558594 18.101562 18.601562 17.65625 C 18.667969 17.273438 18.808594 17.179688 19.097656 17.238281 C 19.195312 17.257812 19.289062 17.320312 19.375 17.375 C 19.496094 17.449219 19.609375 17.535156 19.722656 17.613281 C 19.753906 17.4375 19.75 17.230469 19.773438 17.070312 C 19.796875 16.894531 19.835938 16.769531 19.875 16.597656 C 19.960938 16.441406 20.128906 16.511719 20.179688 16.527344 C 20.347656 16.574219 20.394531 16.609375 20.535156 16.707031 C 20.929688 16.984375 21.308594 17.28125 21.691406 17.574219 C 21.894531 17.730469 22.089844 17.890625 22.289062 18.050781 C 21.929688 17.300781 21.886719 17.25 21.820312 17.125 C 21.613281 16.65625 21.371094 16.199219 21.300781 15.6875 C 21.253906 15.371094 21.199219 15.132812 21.691406 15.074219 C 21.957031 15.042969 22.234375 15.078125 22.507812 15.09375 C 22.671875 15.101562 22.832031 15.128906 22.964844 15.144531 C 22.824219 14.757812 22.683594 14.386719 22.554688 14.011719 C 22.464844 13.742188 22.648438 13.550781 22.960938 13.5625 C 23.167969 13.554688 23.289062 13.5625 23.449219 13.585938 C 23.558594 13.59375 23.667969 13.613281 23.78125 13.628906 C 23.949219 13.648438 24.121094 13.652344 24.289062 13.6875 C 24.867188 13.738281 25.0625 13.777344 25.523438 13.839844 C 25.308594 13.730469 25.234375 13.710938 25.128906 13.640625 C 24.488281 13.328125 23.972656 12.9375 23.460938 12.4375 C 23.269531 12.226562 23.257812 12.160156 23.308594 11.957031 C 23.492188 11.699219 24.449219 11.578125 25.105469 11.519531 C 24.929688 11.398438 24.796875 11.3125 24.664062 11.21875 C 24.453125 11.066406 24.226562 10.929688 24.042969 10.75 C 23.867188 10.578125 23.871094 10.402344 24.046875 10.289062 "/>
<path style=" stroke:none;fill-rule:nonzero;fill:rgb(96.078431%,50.588235%,12.156863%);fill-opacity:1;" d="M 8.097656 10.027344 C 9.007812 10.363281 8.363281 11.359375 7.535156 11.847656 C 7.996094 11.851562 8.0625 11.863281 8.300781 11.90625 C 8.753906 11.992188 8.9375 12.203125 8.769531 12.675781 C 8.722656 12.8125 8.664062 12.941406 8.59375 13.113281 C 9.089844 12.851562 9.339844 12.667969 9.585938 12.464844 C 9.371094 12.007812 9.316406 11.714844 9.25 11.378906 C 9.164062 10.953125 9.105469 10.519531 9.066406 10.085938 C 9.042969 9.839844 9.066406 9.585938 9.097656 9.335938 C 9.148438 8.90625 9.191406 8.46875 9.292969 8.046875 C 9.570312 6.90625 10.125 5.90625 10.902344 5.035156 C 11.800781 4.039062 12.886719 3.339844 14.183594 2.976562 C 14.742188 2.824219 15.3125 2.738281 15.886719 2.710938 C 16.535156 2.710938 16.855469 2.71875 17.617188 2.855469 C 18.382812 3.027344 19.113281 3.300781 19.785156 3.714844 C 19.945312 3.796875 20.03125 3.84375 20.03125 3.84375 C 20.394531 3.714844 20.84375 3.582031 21.445312 3.410156 C 21.371094 3.234375 21.390625 3.203125 21.421875 3.035156 C 20.617188 3.398438 20.234375 3.421875 19.980469 3.324219 C 19.628906 3.183594 19.714844 2.625 19.808594 2.246094 C 19.847656 2.085938 19.96875 1.742188 20.085938 1.480469 C 19.761719 1.855469 19.679688 1.949219 19.5625 2.039062 C 19.160156 2.363281 18.875 2.652344 18.570312 2.511719 C 18.203125 2.390625 18.335938 0.757812 18.390625 0.0078125 C 18.078125 0.769531 17.90625 1.105469 17.683594 1.554688 C 17.546875 1.828125 17.351562 2.070312 17.15625 2.308594 C 17.019531 2.46875 16.902344 2.445312 16.75 2.3125 C 16.449219 1.988281 16.359375 1.609375 16.234375 1.203125 C 16.117188 1.5625 16.070312 1.773438 15.953125 1.980469 C 15.773438 2.300781 15.410156 2.371094 15.121094 2.152344 C 14.773438 1.886719 14.558594 1.519531 14.367188 1.136719 C 14.207031 0.875 14.140625 0.625 14.035156 0.417969 C 13.984375 0.796875 13.949219 1.214844 13.878906 1.59375 C 13.832031 1.847656 13.746094 2.160156 13.660156 2.402344 C 13.617188 2.515625 13.507812 2.601562 13.378906 2.554688 C 13.207031 2.492188 13.042969 2.414062 12.882812 2.324219 C 12.78125 2.269531 12.609375 2.042969 12.515625 1.96875 C 12.582031 2.328125 12.710938 3.019531 12.449219 3.21875 C 11.84375 3.691406 10.320312 2.207031 9.945312 1.910156 C 10.210938 2.59375 11.011719 3.855469 10.753906 4.515625 C 10.550781 4.886719 9.851562 4.710938 9.320312 4.503906 C 9.636719 4.898438 9.972656 5.40625 9.824219 5.6875 C 9.363281 6.320312 7.621094 5.601562 7.09375 5.4375 C 7.371094 5.675781 7.71875 5.863281 7.976562 6.050781 C 8.382812 6.34375 8.761719 6.542969 9.039062 6.980469 C 9.355469 7.449219 8.460938 7.746094 7.992188 7.777344 C 8.453125 7.933594 8.859375 8.222656 8.8125 8.453125 C 8.714844 9.113281 7.597656 9.25 6.292969 9.414062 "/>
</g>
</svg>
