<?xml version="1.0" encoding="UTF-8"?>
<svg xmlns="http://www.w3.org/2000/svg" xmlns:xlink="http://www.w3.org/1999/xlink" width="35pt" height="25pt" viewBox="0 0 35 25" version="1.1">
<g id="surface1">
<path style=" stroke:none;fill-rule:nonzero;fill:rgb(0.392157%,33.72549%,47.45098%);fill-opacity:1;" d="M 7.160156 16.976562 C 6.953125 17.140625 6.757812 17.199219 6.503906 17.09375 C 6.230469 16.984375 6.953125 17.253906 7.269531 17.195312 C 7.417969 17.015625 7.433594 16.917969 7.5 16.789062 C 7.648438 16.53125 7.773438 15.972656 7.652344 15.699219 C 7.464844 16.121094 7.5 16.6875 7.160156 16.976562 "/>
<path style=" stroke:none;fill-rule:nonzero;fill:rgb(0%,55.294118%,59.215686%);fill-opacity:1;" d="M 5.054688 16.566406 C 5.550781 16.761719 5.625 16.792969 6.125 17.003906 C 6.152344 17.015625 6.699219 17.195312 6.953125 17.171875 C 6.945312 17.117188 7.007812 17.214844 7.203125 16.976562 C 7.5 16.613281 7.542969 16.183594 7.660156 15.734375 C 7.601562 15.425781 7.347656 16.085938 6.972656 16.097656 C 6.457031 16.1875 6.308594 16.117188 5.914062 16.042969 C 5.226562 15.96875 4.867188 15.960938 4.671875 16.042969 C 4.523438 16.070312 4.40625 16.273438 4.40625 16.273438 "/>
<path style=" stroke:none;fill-rule:nonzero;fill:rgb(0%,55.294118%,59.215686%);fill-opacity:1;" d="M 26.929688 13.132812 C 27.046875 12.824219 27.0625 12.730469 27.164062 12.425781 C 27.144531 12.410156 27.21875 12.179688 27.195312 12.164062 C 27.054688 12.273438 26.757812 12.59375 26.621094 12.710938 C 26.070312 13.191406 25.503906 13.640625 24.917969 14.070312 C 24.902344 14.332031 24.921875 14.695312 24.878906 14.957031 C 24.765625 15.570312 24.632812 16.179688 24.515625 16.789062 C 24.488281 16.984375 24.550781 16.980469 24.550781 16.980469 C 24.847656 16.78125 24.996094 16.617188 25.039062 16.578125 C 25.925781 15.726562 26.277344 14.90625 26.773438 13.589844 "/>
<path style=" stroke:none;fill-rule:nonzero;fill:rgb(0.392157%,33.72549%,47.45098%);fill-opacity:1;" d="M 34.566406 5.257812 C 34.207031 5.339844 34.019531 5.417969 33.660156 5.511719 C 32.929688 5.710938 32.246094 6.027344 31.585938 6.398438 C 29.921875 7.332031 28.496094 8.585938 27.054688 9.820312 C 26.433594 10.355469 25.820312 10.894531 25.199219 11.429688 C 24.28125 12.222656 23.960938 12.515625 23.027344 13.34375 C 22.808594 13.558594 22.269531 13.953125 21.980469 14.152344 C 22.1875 13.734375 22.421875 13.421875 22.476562 13.332031 C 22.875 12.652344 23.300781 11.984375 23.691406 11.300781 C 24.238281 10.355469 24.847656 9.46875 25.738281 8.8125 C 26.042969 8.582031 26.6875 8.082031 28.636719 6.957031 C 28.554688 6.957031 26.753906 7.882812 26.683594 7.914062 C 25.527344 8.390625 24.316406 9.417969 23.660156 10.503906 C 22.992188 11.613281 22.363281 12.75 21.648438 13.835938 C 20.53125 15.535156 19.21875 17.066406 17.554688 18.257812 C 17.4375 18.34375 17.292969 18.386719 17.152344 18.425781 C 17.152344 18.421875 17.15625 18.421875 17.15625 18.414062 C 17.488281 17.839844 17.78125 17.25 18.023438 16.644531 L 18.125 16.515625 C 17.988281 16.574219 17.859375 16.648438 17.8125 16.667969 C 16.578125 17.242188 15.335938 17.796875 14.019531 18.175781 C 13.023438 18.464844 12.007812 18.667969 10.964844 18.726562 C 9.929688 18.785156 8.890625 18.753906 7.878906 18.503906 C 7.71875 18.464844 7.558594 18.421875 7.398438 18.375 C 7.382812 18.371094 7.363281 18.367188 7.347656 18.367188 C 5.769531 17.9375 5.628906 17.644531 4.984375 17.175781 C 4.828125 17.003906 4.609375 16.671875 4.339844 16.507812 C 4.527344 16.8125 4.804688 17.269531 4.988281 17.582031 C 3.375 18.015625 0.851562 16.496094 0 14.546875 C 0.0078125 14.890625 0.0742188 15.007812 0.132812 15.167969 C 0.421875 15.824219 0.84375 16.375 1.402344 16.824219 C 2.003906 17.3125 2.261719 17.484375 3.433594 17.847656 C 3.878906 17.945312 3.976562 17.976562 4.824219 17.996094 C 4.953125 18.011719 5.382812 17.9375 5.503906 17.945312 C 5.660156 18.015625 5.503906 17.953125 5.792969 18.09375 C 6.421875 18.394531 7.457031 18.761719 8.335938 18.96875 C 8.929688 19.105469 9.527344 19.230469 10.128906 19.339844 C 10.414062 19.386719 10.714844 19.386719 11.007812 19.390625 C 12.066406 19.402344 13.121094 19.410156 14.171875 19.222656 C 15.15625 19.046875 16.128906 18.800781 17.070312 18.429688 C 17.035156 18.609375 17.378906 18.621094 17.570312 18.539062 C 17.679688 18.488281 17.796875 18.441406 17.894531 18.371094 C 18.195312 18.171875 18.464844 17.9375 18.777344 17.761719 C 19.277344 17.476562 19.800781 17.238281 20.304688 16.964844 C 21.910156 16.101562 23.457031 15.152344 24.917969 14.070312 C 25.503906 13.640625 26.070312 13.191406 26.621094 12.710938 C 26.753906 12.640625 27.074219 12.320312 27.132812 12.273438 C 27.03125 12.585938 26.902344 13.050781 26.789062 13.351562 C 26.128906 15.441406 25.351562 16.183594 24.550781 16.980469 C 24.625 17.003906 24.652344 16.996094 24.75 16.945312 C 24.808594 16.925781 25.992188 15.792969 26.402344 15.035156 C 26.945312 14.035156 27.351562 12.84375 27.695312 11.761719 C 27.695312 11.761719 27.871094 11.570312 28.125 11.332031 C 28.871094 10.597656 29.574219 9.867188 30.335938 9.148438 C 30.734375 8.777344 31.125 8.394531 31.554688 8.074219 C 32.417969 7.429688 33.3125 6.824219 34.183594 6.1875 C 34.507812 5.953125 34.90625 5.769531 34.972656 5.257812 C 34.941406 5.203125 34.902344 5.179688 34.835938 5.199219 "/>
<path style=" stroke:none;fill-rule:nonzero;fill:rgb(0.392157%,33.72549%,47.45098%);fill-opacity:1;" d="M 11.09375 18.179688 C 12.015625 17.980469 12.925781 17.726562 13.800781 17.367188 C 15.445312 16.675781 16.976562 15.789062 18.460938 14.8125 C 18.519531 14.777344 18.65625 14.683594 18.667969 14.621094 C 18.730469 14.328125 18.773438 14.128906 18.773438 13.835938 C 18.855469 13.800781 18.824219 13.601562 18.828125 13.566406 C 18.773438 13.601562 18.65625 13.734375 18.601562 13.765625 C 18.398438 13.921875 18.203125 14.074219 18.011719 14.226562 C 16.375 15.535156 14.652344 16.707031 12.683594 17.433594 C 11.363281 17.921875 9.980469 18.195312 8.5625 18.285156 C 8.226562 18.292969 7.875 18.257812 7.574219 18.316406 C 8.507812 18.421875 10.238281 18.363281 11.09375 18.179688 Z M 11.09375 18.179688 "/>
<path style=" stroke:none;fill-rule:nonzero;fill:rgb(0.392157%,33.72549%,47.45098%);fill-opacity:1;" d="M 16.035156 9.890625 C 16.484375 9.914062 16.84375 9.839844 17.335938 9.878906 C 18.40625 9.953125 18.628906 9.613281 19.121094 9.171875 C 18.203125 9.40625 18.171875 9.390625 17.523438 9.410156 C 16.460938 9.441406 16.035156 9.464844 15.390625 9.597656 C 14.726562 9.734375 14.324219 9.917969 14.089844 10.042969 C 13.886719 10.183594 13.710938 10.207031 13.359375 10.714844 C 13.746094 10.714844 15.40625 9.898438 15.789062 9.886719 "/>
<path style=" stroke:none;fill-rule:nonzero;fill:rgb(0.392157%,33.72549%,47.45098%);fill-opacity:1;" d="M 28.75 6.0625 C 29.082031 5.953125 29.414062 5.855469 29.742188 5.753906 C 29.984375 5.675781 30.503906 5.457031 30.742188 5.355469 C 30.582031 5.335938 30.011719 5.378906 29.875 5.386719 C 29.503906 5.402344 29.339844 5.402344 28.96875 5.417969 C 28.472656 5.441406 27.960938 5.574219 27.5 6.101562 C 27.851562 5.894531 28.441406 5.808594 28.699219 5.804688 C 28.960938 5.796875 28.921875 5.871094 28.75 6.0625 "/>
<path style=" stroke:none;fill-rule:nonzero;fill:rgb(0%,55.294118%,59.215686%);fill-opacity:1;" d="M 27.890625 5.847656 C 27.890625 5.847656 28.335938 5.582031 28.90625 5.492188 C 29.46875 5.398438 30.035156 5.503906 30.609375 5.363281 C 30.371094 5.464844 30.238281 5.542969 29.742188 5.753906 C 29.414062 5.855469 29.082031 5.953125 28.75 6.0625 C 28.179688 6.234375 28.023438 6.261719 27.460938 6.589844 C 27.304688 6.671875 27.152344 6.800781 26.96875 6.957031 C 27.152344 6.597656 27.21875 6.371094 27.496094 6.140625 M 4.4375 16.65625 C 5.320312 17.691406 6.554688 18.371094 7.886719 18.328125 C 8.109375 18.316406 8.886719 18.304688 9.113281 18.289062 C 10.53125 18.199219 11.363281 17.921875 12.683594 17.433594 C 14.652344 16.707031 16.375 15.535156 18.011719 14.226562 C 18.203125 14.074219 18.398438 13.921875 18.601562 13.765625 C 18.65625 13.722656 18.714844 13.679688 18.769531 13.636719 C 18.769531 13.644531 18.769531 13.65625 18.769531 13.664062 C 18.765625 13.699219 18.757812 13.734375 18.753906 13.761719 C 18.636719 14.777344 18.382812 15.730469 18.023438 16.644531 C 17.785156 17.25 17.398438 17.867188 17.066406 18.445312 C 17.035156 18.492188 17.089844 18.511719 17.085938 18.511719 C 17.226562 18.472656 17.4375 18.34375 17.554688 18.257812 C 19.21875 17.066406 20.53125 15.535156 21.648438 13.835938 C 22.363281 12.75 22.992188 11.613281 23.664062 10.503906 C 24.316406 9.417969 25.148438 8.855469 26.402344 8.148438 C 28.480469 6.925781 28.558594 7.046875 29.464844 6.566406 C 30.410156 6.058594 31.398438 5.636719 32.4375 5.339844 C 33.152344 5.140625 33.992188 4.832031 34.742188 4.800781 C 34.902344 4.792969 34.90625 4.800781 35 4.839844 C 34.949219 4.320312 34.117188 4.203125 33.511719 4.347656 C 32.988281 4.488281 32.480469 4.660156 31.957031 4.796875 C 31.757812 4.847656 31.539062 4.867188 31.339844 4.839844 C 31.152344 4.816406 30.964844 4.78125 30.785156 4.742188 C 28.359375 4.027344 25.957031 4.898438 25.957031 4.898438 C 25.433594 5.050781 24.925781 5.246094 24.421875 5.460938 C 23.574219 5.828125 22.789062 6.304688 22.015625 6.8125 C 21 7.484375 20.035156 8.226562 19.167969 9.085938 C 18.945312 9.285156 18.101562 9.796875 17.964844 9.796875 C 17.472656 9.792969 16.414062 9.808594 15.921875 9.828125 C 15.539062 9.839844 15.265625 9.839844 14.710938 9.976562 C 14.085938 10.105469 13.402344 10.492188 13.242188 10.933594 C 13.238281 11.117188 13.441406 11.082031 13.460938 11.082031 C 13.929688 11.097656 14.253906 11.007812 14.722656 11.007812 C 15.066406 11.003906 15.390625 11.082031 15.683594 11.246094 C 16.171875 11.535156 16.246094 12.101562 15.847656 12.496094 C 15.140625 13.207031 14.433594 13.917969 13.710938 14.613281 C 13.011719 15.289062 12.265625 15.902344 11.441406 16.417969 C 10.59375 16.949219 9.683594 17.3125 8.699219 17.4375 C 8.082031 17.523438 7.4375 17.511719 6.816406 17.433594 C 6.097656 17.347656 5.417969 17.054688 4.828125 16.628906 C 3.910156 15.964844 2.871094 15.628906 1.78125 15.457031 C 1.359375 15.386719 0.992188 15.25 0.65625 14.996094 C 0.5625 14.929688 0.246094 14.660156 0.109375 14.542969 C -0.046875 14.398438 0.0117188 14.578125 0.0195312 14.640625 C 0.871094 16.585938 3.636719 18.128906 5.257812 17.691406 "/>
<path style=" stroke:none;fill-rule:nonzero;fill:rgb(96.078431%,50.588235%,12.156863%);fill-opacity:1;" d="M 30.058594 12.863281 C 30.410156 12.648438 30.765625 12.449219 31.132812 12.257812 C 31.390625 12.125 31.859375 11.949219 32.152344 11.820312 C 31.761719 11.832031 31.429688 11.78125 31.214844 11.765625 C 30.824219 11.730469 30.265625 11.578125 29.898438 11.34375 C 29.710938 11.226562 29.617188 11.097656 29.625 10.851562 C 29.625 10.726562 29.636719 10.601562 29.691406 10.40625 C 29.453125 10.652344 29.203125 10.882812 28.960938 11.144531 C 28.964844 11.234375 28.976562 11.578125 28.988281 11.828125 C 29.023438 12.410156 29.011719 12.996094 28.914062 13.582031 C 28.820312 14.210938 28.671875 14.820312 28.460938 15.417969 C 27.917969 16.964844 26.933594 18.195312 25.714844 19.246094 C 24.882812 19.953125 23.925781 20.441406 22.886719 20.785156 C 22.039062 21.058594 21.171875 21.144531 20.304688 21.214844 C 20.117188 21.222656 19.726562 21.207031 19.535156 21.195312 C 19.148438 21.167969 18.960938 21.144531 18.585938 21.070312 C 17.417969 20.84375 16.328125 20.417969 15.335938 19.734375 C 15.214844 19.652344 15.125 19.585938 15.027344 19.523438 C 14.753906 19.566406 14.34375 19.621094 14.078125 19.652344 C 13.730469 19.695312 13.382812 19.75 13.105469 19.792969 C 12.882812 20.285156 12.6875 20.714844 12.492188 21.148438 C 12.683594 21.070312 12.835938 20.953125 12.996094 20.847656 C 13.488281 20.5 13.980469 20.152344 14.613281 20.144531 C 14.800781 20.144531 15.007812 20.113281 15.128906 20.320312 C 15.335938 20.695312 15.316406 21.105469 15.289062 21.515625 C 15.277344 21.667969 15.269531 21.820312 15.253906 22.027344 C 15.398438 21.949219 15.5 21.898438 15.601562 21.847656 C 15.941406 21.675781 16.28125 21.496094 16.636719 21.355469 C 16.890625 21.253906 17.054688 21.351562 17.089844 21.574219 C 17.132812 21.867188 17.171875 22.164062 17.179688 22.457031 C 17.191406 23.292969 17.183594 24.128906 17.183594 24.992188 C 17.273438 24.871094 17.378906 24.769531 17.445312 24.644531 C 17.617188 24.339844 17.742188 24.011719 17.929688 23.714844 C 18.269531 23.167969 18.621094 22.621094 19.003906 22.097656 C 19.21875 21.804688 19.554688 21.820312 19.765625 22.101562 C 19.992188 22.40625 20.164062 22.746094 20.367188 23.074219 C 20.386719 23.035156 20.433594 22.964844 20.472656 22.886719 C 20.683594 22.492188 20.917969 22.117188 21.257812 21.824219 C 21.542969 21.578125 21.914062 21.609375 22.105469 21.929688 C 22.339844 22.335938 22.539062 22.761719 22.75 23.179688 C 22.859375 23.402344 22.960938 23.625 23.070312 23.863281 C 23.109375 23.6875 23.117188 23.421875 23.144531 23.289062 C 23.148438 23.246094 23.183594 22.820312 23.183594 22.78125 C 23.203125 22.371094 23.199219 22.628906 23.25 22.066406 C 23.335938 21.589844 23.511719 21.476562 23.871094 21.550781 C 23.992188 21.574219 24.109375 21.652344 24.21875 21.722656 C 24.371094 21.8125 24.511719 21.921875 24.652344 22.019531 C 24.691406 21.800781 24.6875 21.539062 24.714844 21.339844 C 24.746094 21.121094 24.792969 20.964844 24.84375 20.75 C 24.949219 20.554688 25.160156 20.640625 25.226562 20.660156 C 25.433594 20.71875 25.492188 20.765625 25.667969 20.886719 C 26.164062 21.234375 26.636719 21.605469 27.113281 21.96875 C 27.367188 22.164062 27.613281 22.367188 27.863281 22.566406 C 27.414062 21.628906 27.359375 21.558594 27.273438 21.410156 C 27.015625 20.824219 26.714844 20.25 26.625 19.613281 C 26.566406 19.214844 26.5 18.917969 27.113281 18.84375 C 27.445312 18.804688 27.792969 18.851562 28.132812 18.871094 C 28.339844 18.878906 28.539062 18.914062 28.707031 18.933594 C 28.53125 18.449219 28.355469 17.984375 28.191406 17.515625 C 28.082031 17.179688 28.308594 16.941406 28.699219 16.957031 C 28.960938 16.945312 29.109375 16.957031 29.3125 16.980469 C 29.449219 16.996094 29.585938 17.019531 29.726562 17.039062 C 29.9375 17.0625 30.152344 17.066406 30.359375 17.113281 C 31.082031 17.175781 31.328125 17.222656 31.902344 17.300781 C 31.636719 17.164062 31.542969 17.140625 31.410156 17.054688 C 30.609375 16.664062 29.964844 16.175781 29.324219 15.550781 C 29.085938 15.285156 29.070312 15.203125 29.136719 14.949219 C 29.363281 14.625 30.5625 14.476562 31.382812 14.402344 C 31.160156 14.25 30.996094 14.144531 30.828125 14.027344 C 30.566406 13.835938 30.28125 13.664062 30.054688 13.441406 C 29.835938 13.21875 29.839844 13 30.058594 12.863281 "/>
<path style=" stroke:none;fill-rule:nonzero;fill:rgb(96.078431%,50.588235%,12.156863%);fill-opacity:1;" d="M 10.121094 12.53125 C 11.261719 12.957031 10.453125 14.203125 9.417969 14.8125 C 9.996094 14.816406 10.078125 14.832031 10.375 14.886719 C 10.941406 14.992188 11.171875 15.25 10.960938 15.847656 C 10.902344 16.019531 10.832031 16.179688 10.742188 16.394531 C 11.363281 16.066406 11.675781 15.835938 11.984375 15.578125 C 11.714844 15.007812 11.644531 14.640625 11.5625 14.222656 C 11.457031 13.6875 11.382812 13.148438 11.332031 12.605469 C 11.304688 12.296875 11.332031 11.980469 11.371094 11.667969 C 11.4375 11.128906 11.488281 10.582031 11.617188 10.054688 C 11.960938 8.636719 12.65625 7.378906 13.628906 6.296875 C 14.75 5.050781 16.109375 4.171875 17.730469 3.722656 C 18.429688 3.527344 19.140625 3.425781 19.859375 3.386719 C 20.667969 3.386719 21.070312 3.394531 22.023438 3.570312 C 22.976562 3.78125 23.890625 4.128906 24.730469 4.640625 C 24.933594 4.75 25.039062 4.800781 25.039062 4.800781 C 25.492188 4.640625 26.054688 4.476562 26.808594 4.265625 C 26.714844 4.046875 26.738281 4 26.777344 3.796875 C 25.773438 4.246094 25.292969 4.28125 24.976562 4.152344 C 24.535156 3.976562 24.644531 3.277344 24.761719 2.804688 C 24.808594 2.605469 24.960938 2.175781 25.109375 1.847656 C 24.703125 2.316406 24.601562 2.433594 24.453125 2.546875 C 23.949219 2.953125 23.59375 3.3125 23.214844 3.136719 C 22.753906 2.984375 22.921875 0.945312 22.988281 0.0078125 C 22.597656 0.960938 22.382812 1.378906 22.105469 1.941406 C 21.933594 2.28125 21.691406 2.585938 21.445312 2.882812 C 21.273438 3.082031 21.128906 3.054688 20.9375 2.886719 C 20.5625 2.484375 20.449219 2.007812 20.292969 1.5 C 20.148438 1.949219 20.089844 2.214844 19.941406 2.472656 C 19.71875 2.875 19.261719 2.960938 18.902344 2.6875 C 18.46875 2.355469 18.199219 1.898438 17.960938 1.417969 C 17.757812 1.089844 17.675781 0.777344 17.542969 0.519531 C 17.480469 0.992188 17.4375 1.515625 17.347656 1.988281 C 17.289062 2.308594 17.183594 2.699219 17.074219 3 C 17.023438 3.140625 16.886719 3.25 16.722656 3.191406 C 16.507812 3.113281 16.304688 3.015625 16.105469 2.902344 C 15.976562 2.835938 15.761719 2.550781 15.644531 2.457031 C 15.726562 2.90625 15.890625 3.773438 15.5625 4.027344 C 14.804688 4.613281 12.902344 2.757812 12.433594 2.390625 C 12.765625 3.246094 13.765625 4.820312 13.441406 5.640625 C 13.1875 6.105469 12.316406 5.886719 11.652344 5.628906 C 12.046875 6.121094 12.464844 6.753906 12.28125 7.105469 C 11.703125 7.898438 9.527344 7 8.867188 6.792969 C 9.214844 7.09375 9.648438 7.328125 9.972656 7.5625 C 10.480469 7.925781 10.953125 8.175781 11.300781 8.722656 C 11.695312 9.308594 10.578125 9.679688 9.992188 9.71875 C 10.566406 9.914062 11.074219 10.277344 11.015625 10.5625 C 10.894531 11.390625 9.496094 11.558594 7.867188 11.765625 "/>
</g>
</svg>
