<?xml version="1.0" encoding="UTF-8"?>
<svg xmlns="http://www.w3.org/2000/svg" xmlns:xlink="http://www.w3.org/1999/xlink" width="35pt" height="25pt" viewBox="0 0 35 25" version="1.1">
<g id="surface1">
<path style=" stroke:none;fill-rule:nonzero;fill:rgb(0%,0%,0%);fill-opacity:1;" d="M 24.964844 14.058594 C 25.011719 13.796875 25.160156 13.503906 25.03125 13.222656 C 25.171875 13.144531 25.328125 13.066406 25.480469 12.988281 C 25.488281 12.8125 25.429688 12.292969 24.847656 11.921875 C 24.847656 11.921875 25.105469 11.832031 24.984375 11.308594 C 24.273438 11.367188 24.457031 10.570312 24.265625 10.171875 C 24.859375 9.832031 25.007812 9.136719 24.828125 8.695312 C 24.648438 9.011719 24.410156 9.277344 24.078125 9.328125 C 22.453125 5.113281 18.3125 4.054688 15.851562 4.191406 C 15.851562 4.191406 15.777344 4.800781 15.640625 5.042969 C 13.851562 4.578125 13.902344 2.625 13.058594 1.402344 C 12.855469 1.125 12.324219 0.445312 11.714844 0.335938 C 11.59375 0.316406 11.550781 0.402344 11.5625 0.449219 C 12.824219 1.304688 12.953125 2.753906 13.074219 4.152344 C 13.179688 5.328125 13.917969 5.996094 14.6875 6.570312 C 14.644531 6.609375 14.578125 6.734375 14.542969 6.8125 C 13.550781 7.09375 12.359375 6.929688 11.535156 6.375 C 9.863281 5.28125 10.273438 3.195312 9.8125 1.546875 C 9.675781 1.121094 9.457031 0.535156 9.019531 0.304688 C 8.878906 0.230469 8.746094 0.3125 8.8125 0.402344 C 9.132812 0.859375 9.367188 1.363281 9.394531 1.9375 C 9.40625 3.414062 9.042969 4.980469 9.613281 6.367188 C 10.457031 8.25 12.015625 9.609375 13.910156 10.007812 C 13.851562 10.671875 13.914062 11.246094 14.027344 11.871094 C 11.992188 12.972656 10.417969 14.128906 7.808594 18.167969 C 7.726562 18.332031 7.804688 18.484375 8.023438 18.28125 C 10.582031 15.902344 14.800781 14.726562 17.453125 18.6875 C 18.726562 20.695312 18.613281 22.109375 18.535156 23.429688 C 18.535156 23.886719 18.253906 24.527344 18.667969 24.703125 C 19.113281 24.894531 19.554688 23.769531 19.554688 23.613281 C 19.652344 23.515625 19.699219 23.316406 19.707031 23.171875 C 19.796875 23.101562 19.847656 22.78125 19.824219 22.609375 C 20.09375 22.292969 20.328125 21.507812 20.035156 21.046875 C 20.132812 20.78125 20.144531 20.097656 19.980469 19.726562 C 20.070312 19.328125 20.164062 18.417969 19.835938 18 C 20.3125 17.460938 20.9375 17.023438 21.5625 16.757812 C 21.714844 17.933594 21.949219 19.429688 20.917969 20.238281 C 20.851562 20.285156 20.863281 20.363281 20.988281 20.328125 C 22.644531 19.773438 22.996094 16.621094 23.109375 16.226562 C 23.660156 15.941406 25.230469 15.515625 25.699219 15.34375 C 26.191406 15.15625 25.851562 14.492188 25.660156 14.257812 C 25.5625 14.132812 25.285156 14.074219 24.964844 14.058594 Z M 24.707031 11.429688 L 24.730469 11.609375 C 24.390625 11.691406 23.882812 12.023438 23.773438 11.800781 C 23.675781 11.605469 24.121094 11.570312 24.195312 11.472656 C 24.238281 11.417969 24.203125 11.328125 24.101562 11.308594 C 23.855469 11.3125 23.722656 11.316406 23.625 11.347656 C 23.417969 11.519531 23.433594 11.941406 23.523438 12.082031 C 23.078125 12.285156 22.632812 12.738281 22.378906 13.007812 C 22.265625 12.425781 22.691406 12.007812 23.117188 11.707031 C 23.214844 11.613281 23.15625 11.027344 23.082031 10.726562 C 23 10.691406 22.863281 10.726562 22.851562 10.660156 C 22.851562 10.59375 23.382812 10.578125 23.605469 10.570312 C 23.550781 10.203125 23.992188 10.140625 24.125 10.351562 C 24.289062 10.710938 24.175781 11.371094 24.707031 11.429688 Z M 24.683594 9.210938 C 24.652344 9.492188 24.46875 9.746094 24.214844 9.890625 C 23.507812 10.203125 22.566406 9.746094 21.914062 10.191406 C 21.925781 9.949219 22.046875 9.609375 22.417969 9.585938 C 23.347656 9.546875 24.011719 9.851562 24.683594 9.210938 Z M 23.703125 9.328125 C 22.429688 9.257812 21.035156 9.453125 19.878906 9.800781 C 19.707031 11.589844 17.59375 12.261719 16.359375 10.890625 C 16.359375 10.890625 15.890625 10.996094 14.476562 11.640625 C 14.300781 11.40625 14.152344 10.835938 14.421875 10.707031 C 14.789062 10.507812 15.066406 10.34375 15.449219 10.253906 C 15.765625 10.179688 16.277344 10.34375 16.527344 10.410156 C 17.929688 11.257812 19.363281 11.277344 19.722656 8.777344 C 19.722656 8.777344 21.539062 8.328125 23.257812 8.445312 C 23.257812 8.445312 23.527344 8.816406 23.703125 9.328125 Z M 14.308594 10.40625 L 14.308594 10.09375 L 14.84375 10.171875 C 14.679688 10.222656 14.492188 10.316406 14.308594 10.40625 Z M 16.085938 4.433594 C 21.511719 4.570312 23.078125 8.164062 23.078125 8.164062 C 22.039062 8.074219 20.703125 8.265625 19.652344 8.492188 C 19.089844 7.066406 18.238281 6.480469 14.988281 6.761719 C 15.433594 5.949219 15.976562 5.417969 16.085938 4.433594 Z M 13.824219 5.296875 C 13.546875 4.78125 13.359375 4.125 13.289062 3.484375 C 13.292969 3.460938 13.308594 3.460938 13.320312 3.46875 C 13.382812 3.816406 13.441406 4.097656 13.589844 4.34375 C 13.621094 4.375 13.671875 4.363281 13.660156 4.3125 C 13.546875 3.988281 13.429688 3.613281 13.371094 3.195312 C 13.382812 3.179688 13.398438 3.15625 13.410156 3.1875 C 13.515625 3.453125 13.675781 3.902344 13.792969 4.035156 C 13.8125 4.058594 13.871094 4.050781 13.867188 4.003906 C 13.820312 3.867188 13.714844 3.589844 13.679688 3.453125 C 13.660156 3.40625 13.699219 3.425781 13.710938 3.4375 C 14.011719 4.261719 14.464844 4.695312 15.039062 5.042969 C 15.246094 5.1875 15.175781 5.761719 14.707031 5.859375 C 14.308594 5.929688 14.007812 5.597656 13.824219 5.296875 Z M 14.402344 9.097656 C 14.285156 8.949219 13.773438 9.351562 13.707031 9.277344 C 13.667969 9.246094 13.9375 9.140625 13.871094 9.09375 C 13.699219 8.976562 13.398438 9.210938 13.359375 9.164062 C 13.328125 9.117188 13.46875 9.09375 13.425781 9.027344 C 13.300781 8.902344 12.863281 9.148438 12.824219 9.074219 C 12.796875 9.023438 13.148438 8.957031 13.078125 8.863281 C 12.960938 8.75 12.601562 8.988281 12.074219 8.75 C 10.125 7.722656 9.605469 5.675781 9.546875 4.824219 C 9.554688 4.792969 9.554688 4.785156 9.570312 4.808594 C 9.726562 5.558594 10.019531 6.59375 10.695312 7.113281 C 10.730469 7.136719 10.769531 7.085938 10.746094 7.066406 C 10.027344 6.5 9.753906 5.222656 9.71875 4.121094 C 9.714844 4.078125 9.730469 4.074219 9.746094 4.113281 C 9.792969 4.945312 10.027344 5.949219 10.695312 6.578125 C 10.726562 6.601562 10.773438 6.566406 10.746094 6.53125 C 10.097656 5.753906 9.910156 4.765625 9.910156 3.8125 C 9.917969 3.773438 9.941406 3.789062 9.941406 3.800781 C 9.980469 4.933594 10.492188 5.898438 11.425781 6.628906 C 13.164062 7.933594 16.066406 6.554688 17.714844 7.109375 C 20.175781 7.832031 19.410156 10 18.671875 10.375 C 18.503906 10.199219 18.390625 10.445312 18.320312 10.40625 C 18.246094 10.359375 18.40625 10.285156 18.308594 10.226562 C 18.21875 10.1875 18.105469 10.328125 18.019531 10.289062 C 17.972656 10.269531 18.105469 10.171875 18.039062 10.128906 C 17.890625 10.03125 17.714844 10.335938 17.640625 10.289062 C 17.582031 10.25 17.890625 10.101562 17.769531 9.996094 C 17.605469 9.875 17.390625 10.199219 17.320312 10.144531 C 17.214844 10.066406 17.765625 9.824219 17.554688 9.726562 C 17.4375 9.667969 17.070312 10.050781 16.992188 9.976562 C 16.929688 9.921875 17.441406 9.710938 17.296875 9.605469 C 17.175781 9.539062 16.550781 9.980469 16.457031 9.910156 C 16.386719 9.855469 17.007812 9.554688 16.863281 9.441406 C 16.683594 9.316406 16.085938 9.953125 15.972656 9.84375 C 15.882812 9.769531 16.480469 9.535156 16.335938 9.390625 C 16.195312 9.257812 15.589844 9.863281 15.425781 9.746094 C 15.351562 9.695312 16.035156 9.421875 15.855469 9.285156 C 15.675781 9.183594 14.957031 9.769531 14.894531 9.675781 C 14.835938 9.601562 15.496094 9.355469 15.40625 9.242188 C 15.222656 9.0625 14.558594 9.644531 14.476562 9.5625 C 14.394531 9.480469 15 9.28125 14.886719 9.195312 C 14.703125 9.0625 14.089844 9.542969 14.027344 9.445312 C 13.972656 9.355469 14.539062 9.28125 14.402344 9.097656 Z M 9.898438 16.566406 C 9.378906 16.917969 8.972656 17.214844 8.460938 17.71875 C 8.417969 17.753906 8.394531 17.695312 8.441406 17.636719 C 11.53125 13.023438 15.21875 11.546875 16.113281 11.316406 C 16.289062 11.285156 16.273438 11.378906 16.203125 11.425781 C 14.507812 12.078125 11.695312 13.753906 10.492188 15.785156 C 10.308594 16.09375 10.164062 16.386719 9.898438 16.566406 Z M 12.230469 15.867188 C 11.582031 16.050781 11.039062 16.195312 10.476562 16.394531 C 10.425781 16.417969 10.34375 16.40625 10.375 16.339844 C 11.695312 13.949219 14.132812 12.515625 16.472656 11.496094 C 16.542969 11.460938 16.59375 11.542969 16.535156 11.566406 C 14.800781 12.410156 13.546875 14.089844 12.503906 15.667969 C 12.476562 15.707031 12.324219 15.839844 12.230469 15.867188 Z M 12.855469 15.808594 C 12.765625 15.773438 12.773438 15.679688 12.792969 15.621094 C 13.910156 14.253906 14.785156 12.511719 16.484375 11.8125 C 16.617188 11.773438 16.796875 11.679688 16.9375 11.738281 C 17.269531 11.875 17.828125 12.082031 18.519531 11.898438 C 19.894531 11.472656 20.070312 10.144531 20.070312 10.144531 C 20.410156 10.054688 20.75 9.949219 21.117188 9.910156 C 20.71875 12.210938 17.515625 13.164062 17.386719 15.574219 C 16.4375 15.757812 15.25 15.015625 15.070312 13.902344 C 14.832031 14.375 14.515625 14.933594 13.960938 15.417969 C 13.644531 15.667969 13.175781 15.910156 12.855469 15.808594 Z M 19.089844 18.679688 C 18.878906 18.511719 18.691406 18.3125 18.4375 18.234375 C 18.40625 17.339844 19.023438 16.324219 19.226562 16.015625 C 19.304688 15.890625 19.386719 15.972656 19.433594 16.132812 C 19.878906 17.496094 19.199219 18.066406 19.089844 18.679688 Z M 19.671875 18.164062 C 19.890625 18.304688 19.777344 19.425781 19.535156 20 C 19.363281 19.757812 19.160156 19.550781 19.050781 19.4375 C 19.203125 19.070312 19.566406 18.121094 19.671875 18.164062 Z M 19.300781 13.707031 C 19.265625 13.726562 19.167969 13.59375 19.113281 13.621094 C 19.050781 13.65625 19.273438 13.96875 19.273438 13.96875 C 19.28125 15.828125 18.292969 16.214844 18.300781 17.351562 C 18.101562 17.191406 17.84375 16.964844 17.589844 16.867188 C 17.144531 15.113281 19.304688 12.792969 19.425781 12.894531 C 19.476562 12.953125 19.347656 13.667969 19.300781 13.707031 Z M 13.855469 15.777344 C 14.371094 15.457031 14.757812 14.898438 14.960938 14.484375 C 15.019531 14.628906 15.109375 14.792969 15.164062 14.933594 C 14.902344 15.253906 14.515625 15.695312 14.128906 15.835938 C 13.992188 15.863281 13.765625 15.867188 13.855469 15.777344 Z M 16.402344 17.007812 C 15.800781 16.492188 15.15625 16.164062 14.425781 15.953125 C 14.707031 15.746094 15.085938 15.398438 15.308594 15.105469 C 15.347656 15.140625 15.402344 15.199219 15.429688 15.230469 C 15.402344 15.96875 15.773438 16.542969 16.425781 16.882812 C 16.527344 16.929688 16.460938 17.066406 16.402344 17.007812 Z M 15.6875 15.457031 C 16.207031 15.804688 16.757812 15.960938 17.339844 15.921875 L 17.339844 16.765625 C 15.71875 16.578125 15.6875 15.457031 15.6875 15.457031 Z M 17.367188 17.972656 C 17.195312 17.871094 16.503906 17.226562 16.757812 17.019531 C 17.027344 16.738281 18.222656 17.535156 18.222656 17.535156 C 18.214844 17.730469 18.164062 17.914062 18.183594 18.117188 C 18.183594 18.117188 17.550781 18.101562 17.367188 17.972656 Z M 17.875 18.863281 C 17.785156 18.699219 17.613281 18.5 17.710938 18.375 C 17.871094 18.230469 18.597656 18.476562 18.972656 18.882812 C 18.933594 19.066406 18.878906 19.195312 18.835938 19.378906 C 18.464844 19.320312 18.066406 19.253906 17.875 18.863281 Z M 18.503906 20.117188 C 18.429688 19.980469 18.3125 19.667969 18.4375 19.5625 C 18.589844 19.480469 19.230469 19.792969 19.445312 20.179688 C 19.476562 20.273438 19.300781 20.605469 19.234375 20.617188 C 19.167969 20.648438 18.613281 20.371094 18.503906 20.117188 Z M 19.503906 21.449219 C 19.503906 21.585938 19.394531 21.761719 19.339844 21.757812 C 19.269531 21.777344 18.746094 21.472656 18.707031 21.167969 C 18.679688 21.015625 18.660156 20.730469 18.738281 20.699219 C 18.882812 20.660156 19.390625 21.128906 19.503906 21.449219 Z M 18.71875 24.527344 C 18.558594 24.433594 18.652344 24.074219 18.769531 23.875 C 18.863281 23.945312 18.945312 24.058594 19.035156 24.15625 C 19 24.246094 18.878906 24.589844 18.71875 24.527344 Z M 19.128906 23.964844 C 18.992188 23.824219 18.941406 23.703125 18.769531 23.59375 C 18.710938 23.539062 18.761719 23.398438 18.804688 23.410156 C 18.945312 23.476562 19.152344 23.695312 19.203125 23.890625 C 19.21875 23.941406 19.175781 24 19.128906 23.964844 Z M 19.273438 23.617188 C 19.148438 23.449219 18.976562 23.277344 18.8125 23.140625 C 18.738281 23.097656 18.820312 22.960938 18.90625 22.980469 C 19.101562 23.046875 19.257812 23.320312 19.34375 23.53125 C 19.355469 23.601562 19.296875 23.640625 19.273438 23.617188 Z M 19.40625 23.246094 C 19.339844 23.082031 19 22.742188 18.808594 22.574219 C 18.707031 22.496094 18.882812 22.324219 18.953125 22.378906 C 19.242188 22.605469 19.59375 23.09375 19.40625 23.246094 Z M 19.519531 22.839844 C 19.382812 22.519531 19.144531 22.226562 18.855469 22.03125 C 18.75 21.972656 18.761719 21.726562 18.855469 21.75 C 19.195312 21.867188 19.535156 22.28125 19.613281 22.621094 C 19.648438 22.75 19.578125 22.945312 19.519531 22.839844 Z M 19.914062 21.335938 C 20.027344 21.417969 19.941406 22.023438 19.738281 22.292969 L 19.484375 21.945312 C 19.621094 21.730469 19.835938 21.285156 19.914062 21.335938 Z M 19.621094 21.285156 C 19.578125 21.082031 19.453125 20.972656 19.394531 20.785156 C 19.441406 20.71875 19.765625 20.007812 19.835938 20.03125 C 19.953125 20.089844 19.832031 20.949219 19.621094 21.285156 Z M 19.816406 17.699219 C 20 16.933594 19.699219 16.253906 19.417969 15.621094 C 19.519531 15.125 19.539062 14.707031 19.601562 14.207031 C 19.640625 14.101562 19.769531 14.082031 19.816406 14.152344 C 19.953125 15.265625 20.40625 15.65625 21.398438 15.601562 L 21.46875 16.347656 C 20.835938 16.613281 20.300781 17.15625 19.816406 17.699219 Z M 21.414062 15.257812 C 20.496094 15.53125 19.96875 14.96875 20.050781 13.707031 C 19.941406 13.53125 19.640625 13.929688 19.601562 13.804688 C 19.59375 12.476562 20.175781 12.410156 20.398438 12.089844 C 20.613281 12.117188 20.851562 12.199219 20.96875 12.355469 C 21.324219 12.910156 21.234375 13.582031 21.449219 14.203125 C 21.5 14.3125 21.601562 14.203125 21.601562 14.203125 C 21.371094 13.347656 21.621094 12.132812 20.582031 11.773438 C 21 11.203125 21.164062 10.578125 21.339844 9.90625 C 21.40625 9.828125 21.554688 9.8125 21.632812 9.84375 C 21.601562 10.105469 21.496094 10.335938 21.535156 10.640625 C 21.558594 10.816406 21.898438 10.421875 22.097656 10.328125 C 22.378906 10.183594 22.828125 10.21875 23.21875 10.277344 C 23.296875 10.289062 23.285156 10.367188 23.207031 10.378906 C 22.828125 10.417969 22.246094 10.492188 22.214844 10.660156 C 22.214844 10.78125 22.652344 10.902344 22.914062 10.910156 C 22.953125 11.050781 22.992188 11.230469 22.96875 11.394531 C 22.484375 11.628906 21.867188 12.242188 22.210938 13.257812 C 21.832031 13.832031 21.585938 14.550781 21.414062 15.257812 Z M 23.078125 15.574219 C 22.660156 16.84375 22.46875 18.535156 21.929688 19.269531 C 21.921875 19.285156 21.890625 19.28125 21.902344 19.253906 C 22.539062 17.984375 22.425781 16.84375 22.796875 15.621094 C 22.816406 15.574219 22.765625 15.515625 22.726562 15.582031 C 22.300781 16.144531 22.226562 18.375 21.867188 19.0625 C 21.855469 19.085938 21.816406 19.09375 21.828125 19.039062 C 22.257812 17.425781 21.921875 15.878906 22.585938 14.640625 C 22.609375 14.597656 22.535156 14.527344 22.46875 14.601562 C 22.175781 15.125 21.835938 16.199219 21.929688 17.472656 C 21.9375 17.542969 21.878906 17.554688 21.867188 17.476562 C 21.683594 15.992188 21.539062 14.507812 22.585938 13.222656 C 23.027344 12.683594 23.6875 12.179688 24.128906 12.066406 C 25.167969 11.847656 25.3125 12.824219 25.3125 12.824219 C 24.089844 13.171875 23.433594 14.496094 23.078125 15.574219 Z M 23.421875 15.675781 C 23.363281 15.640625 23.367188 15.515625 23.425781 15.492188 C 23.789062 15.394531 24.816406 15.160156 24.867188 15.269531 C 24.886719 15.300781 23.5 15.71875 23.421875 15.675781 Z M 25.664062 15.039062 C 24.894531 15 24.160156 15.078125 23.496094 15.222656 C 23.621094 14.46875 24.628906 13.324219 24.828125 13.433594 C 25.019531 13.539062 24.605469 14.074219 24.839844 14.238281 C 25.015625 14.339844 25.222656 14.269531 25.367188 14.324219 C 25.695312 14.476562 25.773438 15.007812 25.664062 15.039062 Z M 25.664062 15.039062 "/>
<path style=" stroke:none;fill-rule:nonzero;fill:rgb(23.529412%,11.764706%,36.862745%);fill-opacity:1;" d="M 19.722656 8.777344 C 19.363281 11.277344 17.929688 11.257812 16.527344 10.410156 C 16.277344 10.34375 15.765625 10.179688 15.449219 10.253906 C 15.066406 10.34375 14.789062 10.507812 14.421875 10.707031 C 14.152344 10.835938 14.300781 11.40625 14.476562 11.640625 C 15.890625 10.996094 16.359375 10.890625 16.359375 10.890625 C 17.59375 12.261719 19.707031 11.589844 19.878906 9.800781 C 21.035156 9.453125 22.429688 9.257812 23.703125 9.328125 C 23.527344 8.816406 23.257812 8.445312 23.257812 8.445312 C 21.539062 8.328125 19.722656 8.777344 19.722656 8.777344 Z M 19.722656 8.777344 "/>
<path style=" stroke:none;fill-rule:nonzero;fill:rgb(100%,100%,100%);fill-opacity:1;" d="M 25.875 14.082031 C 25.769531 13.953125 25.582031 13.863281 25.308594 13.816406 C 25.34375 13.679688 25.371094 13.527344 25.351562 13.363281 C 25.433594 13.324219 25.605469 13.234375 25.605469 13.234375 C 25.691406 13.191406 25.746094 13.105469 25.753906 13.007812 C 25.773438 12.691406 25.640625 12.234375 25.234375 11.871094 C 25.292969 11.730469 25.316406 11.527344 25.25 11.246094 C 25.222656 11.113281 25.097656 11.023438 24.960938 11.035156 C 24.761719 11.050781 24.714844 11.015625 24.644531 10.5625 C 24.628906 10.46875 24.613281 10.375 24.59375 10.285156 C 25.15625 9.84375 25.289062 9.164062 25.082031 8.59375 C 24.996094 8.347656 24.6875 8.398438 24.589844 8.558594 C 24.46875 8.753906 24.359375 8.898438 24.234375 8.976562 C 23.472656 7.171875 22.152344 5.757812 20.402344 4.882812 C 19.011719 4.1875 17.347656 3.832031 15.839844 3.917969 C 15.707031 3.925781 15.597656 4.023438 15.578125 4.15625 C 15.5625 4.308594 15.519531 4.53125 15.476562 4.703125 C 14.59375 4.359375 14.28125 3.535156 13.953125 2.664062 C 13.769531 2.179688 13.578125 1.675781 13.285156 1.246094 C 13.003906 0.855469 12.4375 0.1875 11.761719 0.0625 C 11.222656 0.015625 11.210938 0.5625 11.40625 0.679688 C 12.566406 1.464844 12.6875 2.84375 12.800781 4.175781 C 12.902344 5.34375 13.578125 6.046875 14.269531 6.597656 C 13.394531 6.785156 12.378906 6.613281 11.6875 6.148438 C 11.6875 6.148438 11.683594 6.148438 11.683594 6.148438 C 10.617188 5.445312 10.457031 4.316406 10.34375 3.058594 C 10.269531 2.246094 10.074219 1.46875 10.074219 1.464844 C 9.902344 0.921875 9.65625 0.328125 9.148438 0.0625 C 8.957031 -0.0429688 8.734375 -0.015625 8.605469 0.128906 C 8.496094 0.25 8.488281 0.425781 8.589844 0.5625 C 9.128906 1.300781 9.160156 1.960938 9.113281 2.6875 C 8.886719 4.683594 8.996094 5.695312 9.480469 6.777344 C 10.621094 8.96875 12.335938 9.90625 13.621094 10.222656 C 13.59375 10.777344 13.648438 11.273438 13.722656 11.726562 C 11.882812 12.734375 10.222656 13.921875 7.574219 18.019531 C 7.355469 18.304688 7.625 18.953125 8.210938 18.484375 C 9.828125 16.980469 11.835938 16.203125 13.574219 16.40625 C 15.027344 16.578125 16.253906 17.394531 17.222656 18.835938 C 18.421875 20.734375 18.363281 22.25 18.214844 23.808594 C 18.179688 24.207031 18.070312 24.746094 18.5625 24.957031 C 18.734375 25.03125 18.929688 25.007812 19.105469 24.894531 C 19.46875 24.65625 19.738281 24.03125 19.8125 23.734375 C 19.917969 23.585938 19.957031 23.398438 19.972656 23.277344 C 20.078125 23.105469 20.105469 22.855469 20.105469 22.699219 C 20.386719 22.292969 20.578125 21.542969 20.328125 21.015625 C 20.410156 20.664062 20.402344 20.089844 20.265625 19.703125 C 20.316406 19.433594 20.445312 18.601562 20.179688 18.039062 C 20.511719 17.695312 20.910156 17.394531 21.335938 17.171875 C 21.421875 18.21875 21.621094 19.269531 20.75 20.019531 C 20.53125 20.191406 20.546875 20.726562 21.074219 20.589844 C 22.679688 20.070312 23.191406 17.382812 23.347656 16.417969 C 23.742188 16.242188 25.632812 15.660156 25.792969 15.601562 C 26.066406 15.5 26.167969 15.308594 26.207031 15.164062 C 26.3125 14.761719 26.035156 14.28125 25.875 14.082031 Z M 25.699219 15.34375 C 25.230469 15.515625 23.660156 15.941406 23.109375 16.226562 C 22.996094 16.621094 22.644531 19.773438 20.988281 20.328125 C 20.863281 20.363281 20.851562 20.285156 20.917969 20.238281 C 21.949219 19.429688 21.714844 17.933594 21.5625 16.757812 C 20.9375 17.023438 20.3125 17.460938 19.835938 18 C 20.164062 18.417969 20.070312 19.328125 19.980469 19.726562 C 20.144531 20.097656 20.132812 20.78125 20.035156 21.046875 C 20.328125 21.507812 20.09375 22.292969 19.824219 22.609375 C 19.847656 22.78125 19.796875 23.101562 19.707031 23.171875 C 19.699219 23.316406 19.652344 23.515625 19.554688 23.613281 C 19.554688 23.769531 19.113281 24.894531 18.667969 24.703125 C 18.253906 24.527344 18.535156 23.886719 18.535156 23.429688 C 18.613281 22.109375 18.726562 20.695312 17.453125 18.6875 C 14.800781 14.726562 10.582031 15.902344 8.023438 18.28125 C 7.804688 18.484375 7.726562 18.332031 7.804688 18.167969 C 10.417969 14.128906 11.992188 12.972656 14.027344 11.871094 C 13.914062 11.246094 13.851562 10.671875 13.910156 10.007812 C 12.015625 9.609375 10.457031 8.25 9.613281 6.367188 C 9.042969 4.980469 9.40625 3.414062 9.394531 1.9375 C 9.367188 1.363281 9.132812 0.859375 8.8125 0.402344 C 8.746094 0.3125 8.878906 0.230469 9.019531 0.304688 C 9.457031 0.535156 9.675781 1.121094 9.8125 1.546875 C 10.273438 3.195312 9.863281 5.28125 11.535156 6.375 C 12.359375 6.929688 13.550781 7.09375 14.542969 6.8125 C 14.578125 6.734375 14.644531 6.609375 14.6875 6.570312 C 13.917969 5.996094 13.179688 5.328125 13.074219 4.152344 C 12.953125 2.753906 12.824219 1.304688 11.5625 0.449219 C 11.550781 0.402344 11.59375 0.316406 11.710938 0.335938 C 12.324219 0.445312 12.855469 1.125 13.058594 1.402344 C 13.902344 2.625 13.851562 4.578125 15.640625 5.042969 C 15.777344 4.800781 15.851562 4.191406 15.851562 4.191406 C 18.3125 4.058594 22.457031 5.113281 24.082031 9.328125 C 24.410156 9.277344 24.648438 9.011719 24.828125 8.695312 C 25.007812 9.136719 24.863281 9.832031 24.265625 10.171875 C 24.457031 10.570312 24.273438 11.367188 24.984375 11.308594 C 25.105469 11.832031 24.847656 11.921875 24.847656 11.921875 C 25.429688 12.292969 25.488281 12.8125 25.480469 12.988281 C 25.328125 13.066406 25.171875 13.144531 25.03125 13.222656 C 25.160156 13.503906 25.011719 13.796875 24.964844 14.058594 C 25.285156 14.074219 25.5625 14.132812 25.660156 14.257812 C 25.851562 14.492188 26.191406 15.15625 25.699219 15.34375 Z M 25.699219 15.34375 "/>
<path style=" stroke:none;fill-rule:nonzero;fill:rgb(100%,100%,100%);fill-opacity:1;" d="M 15.039062 5.042969 C 14.464844 4.695312 14.011719 4.261719 13.710938 3.4375 C 13.699219 3.425781 13.660156 3.410156 13.679688 3.453125 C 13.714844 3.589844 13.820312 3.867188 13.867188 4.003906 C 13.871094 4.050781 13.8125 4.058594 13.792969 4.035156 C 13.675781 3.902344 13.515625 3.453125 13.410156 3.1875 C 13.398438 3.15625 13.386719 3.179688 13.371094 3.195312 C 13.429688 3.613281 13.546875 3.988281 13.660156 4.3125 C 13.671875 4.363281 13.621094 4.375 13.589844 4.34375 C 13.441406 4.097656 13.382812 3.816406 13.320312 3.46875 C 13.308594 3.460938 13.292969 3.460938 13.289062 3.484375 C 13.359375 4.125 13.546875 4.78125 13.824219 5.296875 C 14.007812 5.597656 14.308594 5.929688 14.707031 5.859375 C 15.175781 5.761719 15.246094 5.1875 15.039062 5.042969 Z M 15.039062 5.042969 "/>
<path style=" stroke:none;fill-rule:nonzero;fill:rgb(100%,100%,100%);fill-opacity:1;" d="M 14.886719 9.195312 C 14.996094 9.28125 14.394531 9.480469 14.476562 9.5625 C 14.558594 9.644531 15.222656 9.0625 15.40625 9.238281 C 15.496094 9.355469 14.835938 9.601562 14.890625 9.675781 C 14.957031 9.769531 15.675781 9.183594 15.855469 9.285156 C 16.035156 9.421875 15.351562 9.695312 15.425781 9.746094 C 15.589844 9.863281 16.195312 9.257812 16.335938 9.390625 C 16.480469 9.535156 15.882812 9.769531 15.96875 9.84375 C 16.085938 9.953125 16.683594 9.316406 16.863281 9.441406 C 17.007812 9.554688 16.386719 9.855469 16.457031 9.910156 C 16.546875 9.980469 17.171875 9.539062 17.292969 9.605469 C 17.441406 9.710938 16.925781 9.921875 16.988281 9.976562 C 17.070312 10.050781 17.4375 9.667969 17.554688 9.726562 C 17.765625 9.824219 17.214844 10.066406 17.320312 10.144531 C 17.390625 10.199219 17.605469 9.875 17.769531 9.996094 C 17.890625 10.097656 17.582031 10.25 17.640625 10.289062 C 17.714844 10.335938 17.890625 10.03125 18.039062 10.128906 C 18.105469 10.171875 17.972656 10.265625 18.019531 10.289062 C 18.105469 10.328125 18.21875 10.1875 18.308594 10.226562 C 18.40625 10.285156 18.246094 10.359375 18.320312 10.40625 C 18.390625 10.445312 18.503906 10.199219 18.671875 10.375 C 19.410156 10 20.175781 7.832031 17.714844 7.109375 C 16.066406 6.554688 13.164062 7.933594 11.425781 6.628906 C 10.492188 5.898438 9.980469 4.933594 9.941406 3.800781 C 9.941406 3.785156 9.917969 3.773438 9.910156 3.8125 C 9.910156 4.765625 10.097656 5.753906 10.746094 6.53125 C 10.773438 6.566406 10.726562 6.601562 10.695312 6.578125 C 10.027344 5.949219 9.792969 4.945312 9.746094 4.113281 C 9.730469 4.074219 9.714844 4.078125 9.71875 4.121094 C 9.753906 5.222656 10.027344 6.5 10.746094 7.066406 C 10.769531 7.085938 10.730469 7.136719 10.695312 7.113281 C 10.019531 6.59375 9.726562 5.554688 9.570312 4.808594 C 9.554688 4.785156 9.550781 4.792969 9.546875 4.820312 C 9.605469 5.675781 10.125 7.722656 12.074219 8.75 C 12.601562 8.988281 12.960938 8.75 13.074219 8.859375 C 13.148438 8.957031 12.796875 9.023438 12.824219 9.074219 C 12.859375 9.148438 13.300781 8.902344 13.425781 9.027344 C 13.46875 9.09375 13.328125 9.117188 13.359375 9.164062 C 13.398438 9.210938 13.699219 8.976562 13.871094 9.09375 C 13.9375 9.140625 13.664062 9.246094 13.707031 9.277344 C 13.773438 9.351562 14.285156 8.949219 14.398438 9.097656 C 14.539062 9.28125 13.972656 9.355469 14.027344 9.445312 C 14.089844 9.542969 14.703125 9.0625 14.886719 9.195312 Z M 14.886719 9.195312 "/>
<path style=" stroke:none;fill-rule:nonzero;fill:rgb(93.333333%,77.647059%,64.705882%);fill-opacity:1;" d="M 22.96875 11.394531 C 22.992188 11.230469 22.953125 11.050781 22.914062 10.910156 C 22.652344 10.902344 22.214844 10.78125 22.214844 10.65625 C 22.246094 10.492188 22.828125 10.417969 23.207031 10.378906 C 23.289062 10.367188 23.296875 10.289062 23.21875 10.277344 C 22.828125 10.21875 22.378906 10.183594 22.097656 10.328125 C 21.898438 10.421875 21.558594 10.816406 21.535156 10.636719 C 21.496094 10.335938 21.601562 10.105469 21.632812 9.84375 C 21.554688 9.8125 21.40625 9.828125 21.339844 9.90625 C 21.164062 10.578125 21 11.203125 20.582031 11.773438 C 21.621094 12.132812 21.371094 13.347656 21.605469 14.203125 C 21.605469 14.203125 21.5 14.3125 21.449219 14.203125 C 21.234375 13.582031 21.324219 12.910156 20.96875 12.355469 C 20.851562 12.199219 20.613281 12.117188 20.398438 12.089844 C 20.175781 12.410156 19.59375 12.476562 19.601562 13.804688 C 19.640625 13.929688 19.941406 13.53125 20.050781 13.707031 C 19.96875 14.96875 20.496094 15.53125 21.414062 15.257812 C 21.585938 14.550781 21.832031 13.832031 22.210938 13.257812 C 21.867188 12.242188 22.484375 11.628906 22.96875 11.394531 Z M 22.96875 11.394531 "/>
<path style=" stroke:none;fill-rule:nonzero;fill:rgb(93.333333%,77.647059%,64.705882%);fill-opacity:1;" d="M 23.605469 10.570312 C 23.382812 10.578125 22.851562 10.59375 22.851562 10.660156 C 22.863281 10.726562 23 10.691406 23.078125 10.726562 C 23.15625 11.027344 23.214844 11.613281 23.117188 11.707031 C 22.691406 12.007812 22.265625 12.425781 22.378906 13.007812 C 22.632812 12.738281 23.078125 12.285156 23.523438 12.082031 C 23.433594 11.941406 23.417969 11.519531 23.625 11.347656 C 23.722656 11.316406 23.855469 11.3125 24.097656 11.308594 C 24.203125 11.328125 24.238281 11.417969 24.195312 11.472656 C 24.117188 11.570312 23.675781 11.605469 23.773438 11.800781 C 23.882812 12.023438 24.390625 11.691406 24.730469 11.609375 L 24.707031 11.429688 C 24.171875 11.371094 24.289062 10.710938 24.125 10.351562 C 23.992188 10.140625 23.546875 10.203125 23.605469 10.570312 Z M 23.605469 10.570312 "/>
<path style=" stroke:none;fill-rule:nonzero;fill:rgb(93.333333%,77.647059%,64.705882%);fill-opacity:1;" d="M 25.367188 14.324219 C 25.222656 14.269531 25.015625 14.339844 24.839844 14.238281 C 24.605469 14.074219 25.019531 13.539062 24.828125 13.433594 C 24.628906 13.324219 23.621094 14.46875 23.496094 15.222656 C 24.160156 15.078125 24.894531 15 25.664062 15.039062 C 25.773438 15.007812 25.695312 14.476562 25.367188 14.324219 Z M 25.367188 14.324219 "/>
<path style=" stroke:none;fill-rule:nonzero;fill:rgb(93.333333%,77.647059%,64.705882%);fill-opacity:1;" d="M 19.816406 14.152344 C 19.769531 14.082031 19.640625 14.101562 19.601562 14.207031 C 19.539062 14.707031 19.519531 15.125 19.417969 15.621094 C 19.699219 16.253906 20 16.933594 19.816406 17.699219 C 20.300781 17.15625 20.835938 16.613281 21.46875 16.347656 L 21.398438 15.601562 C 20.40625 15.65625 19.953125 15.265625 19.816406 14.152344 Z M 19.816406 14.152344 "/>
<path style=" stroke:none;fill-rule:nonzero;fill:rgb(93.333333%,77.647059%,64.705882%);fill-opacity:1;" d="M 23.425781 15.492188 C 23.367188 15.515625 23.363281 15.640625 23.421875 15.679688 C 23.5 15.71875 24.886719 15.304688 24.867188 15.269531 C 24.816406 15.160156 23.789062 15.394531 23.425781 15.492188 Z M 23.425781 15.492188 "/>
<path style=" stroke:none;fill-rule:nonzero;fill:rgb(93.333333%,74.901961%,10.588235%);fill-opacity:1;" d="M 14.308594 10.09375 L 14.308594 10.40625 C 14.492188 10.316406 14.679688 10.222656 14.84375 10.171875 Z M 14.308594 10.09375 "/>
<path style=" stroke:none;fill-rule:nonzero;fill:rgb(93.333333%,74.901961%,10.588235%);fill-opacity:1;" d="M 19.652344 8.492188 C 20.703125 8.265625 22.039062 8.074219 23.078125 8.164062 C 23.078125 8.164062 21.511719 4.570312 16.085938 4.433594 C 15.976562 5.417969 15.433594 5.949219 14.988281 6.761719 C 18.238281 6.480469 19.089844 7.066406 19.652344 8.492188 Z M 19.652344 8.492188 "/>
<path style=" stroke:none;fill-rule:nonzero;fill:rgb(93.333333%,74.901961%,10.588235%);fill-opacity:1;" d="M 22.417969 9.585938 C 22.046875 9.609375 21.925781 9.949219 21.914062 10.191406 C 22.566406 9.746094 23.507812 10.203125 24.214844 9.890625 C 24.46875 9.746094 24.652344 9.492188 24.683594 9.210938 C 24.011719 9.851562 23.347656 9.546875 22.417969 9.585938 Z M 22.417969 9.585938 "/>
<path style=" stroke:none;fill-rule:nonzero;fill:rgb(93.333333%,74.901961%,10.588235%);fill-opacity:1;" d="M 15.070312 13.902344 C 15.25 15.015625 16.4375 15.757812 17.386719 15.574219 C 17.515625 13.164062 20.71875 12.210938 21.117188 9.910156 C 20.75 9.949219 20.410156 10.054688 20.070312 10.144531 C 20.070312 10.144531 19.894531 11.472656 18.519531 11.898438 C 17.828125 12.082031 17.269531 11.875 16.9375 11.738281 C 16.796875 11.679688 16.617188 11.773438 16.484375 11.8125 C 14.785156 12.511719 13.910156 14.253906 12.792969 15.621094 C 12.773438 15.679688 12.761719 15.773438 12.855469 15.808594 C 13.175781 15.910156 13.644531 15.667969 13.960938 15.417969 C 14.515625 14.933594 14.832031 14.375 15.070312 13.902344 Z M 15.070312 13.902344 "/>
<path style=" stroke:none;fill-rule:nonzero;fill:rgb(93.333333%,74.901961%,10.588235%);fill-opacity:1;" d="M 16.203125 11.425781 C 16.273438 11.378906 16.289062 11.285156 16.113281 11.316406 C 15.21875 11.546875 11.53125 13.023438 8.441406 17.636719 C 8.394531 17.695312 8.417969 17.753906 8.460938 17.71875 C 8.972656 17.214844 9.378906 16.917969 9.898438 16.566406 C 10.164062 16.386719 10.308594 16.09375 10.492188 15.785156 C 11.695312 13.753906 14.507812 12.078125 16.203125 11.425781 Z M 16.203125 11.425781 "/>
<path style=" stroke:none;fill-rule:nonzero;fill:rgb(93.333333%,74.901961%,10.588235%);fill-opacity:1;" d="M 16.535156 11.566406 C 16.59375 11.542969 16.542969 11.460938 16.472656 11.496094 C 14.132812 12.515625 11.695312 13.949219 10.375 16.339844 C 10.34375 16.40625 10.425781 16.417969 10.476562 16.394531 C 11.039062 16.195312 11.582031 16.050781 12.230469 15.867188 C 12.324219 15.839844 12.476562 15.707031 12.503906 15.667969 C 13.546875 14.089844 14.800781 12.410156 16.535156 11.566406 Z M 16.535156 11.566406 "/>
<path style=" stroke:none;fill-rule:nonzero;fill:rgb(93.333333%,74.901961%,10.588235%);fill-opacity:1;" d="M 25.3125 12.824219 C 25.3125 12.824219 25.167969 11.847656 24.128906 12.066406 C 23.6875 12.179688 23.027344 12.683594 22.585938 13.222656 C 21.539062 14.507812 21.683594 15.988281 21.867188 17.476562 C 21.878906 17.554688 21.9375 17.542969 21.929688 17.472656 C 21.835938 16.199219 22.175781 15.125 22.46875 14.601562 C 22.535156 14.527344 22.609375 14.597656 22.585938 14.640625 C 21.921875 15.875 22.253906 17.425781 21.828125 19.039062 C 21.816406 19.09375 21.855469 19.085938 21.867188 19.0625 C 22.226562 18.375 22.300781 16.144531 22.726562 15.582031 C 22.765625 15.515625 22.816406 15.574219 22.796875 15.621094 C 22.421875 16.84375 22.539062 17.984375 21.902344 19.253906 C 21.890625 19.28125 21.921875 19.285156 21.929688 19.269531 C 22.46875 18.535156 22.660156 16.84375 23.078125 15.574219 C 23.433594 14.496094 24.089844 13.171875 25.3125 12.824219 Z M 25.3125 12.824219 "/>
<path style=" stroke:none;fill-rule:nonzero;fill:rgb(93.333333%,74.901961%,10.588235%);fill-opacity:1;" d="M 19.425781 12.894531 C 19.304688 12.792969 17.144531 15.113281 17.589844 16.867188 C 17.84375 16.964844 18.101562 17.191406 18.300781 17.351562 C 18.292969 16.214844 19.28125 15.828125 19.273438 13.96875 C 19.273438 13.96875 19.050781 13.65625 19.113281 13.621094 C 19.167969 13.59375 19.265625 13.726562 19.300781 13.707031 C 19.347656 13.667969 19.476562 12.953125 19.425781 12.894531 Z M 19.425781 12.894531 "/>
<path style=" stroke:none;fill-rule:nonzero;fill:rgb(93.333333%,74.901961%,10.588235%);fill-opacity:1;" d="M 15.164062 14.933594 C 15.109375 14.792969 15.019531 14.628906 14.960938 14.484375 C 14.757812 14.898438 14.371094 15.457031 13.855469 15.777344 C 13.765625 15.867188 13.992188 15.863281 14.128906 15.835938 C 14.515625 15.695312 14.902344 15.253906 15.164062 14.933594 Z M 15.164062 14.933594 "/>
<path style=" stroke:none;fill-rule:nonzero;fill:rgb(93.333333%,74.901961%,10.588235%);fill-opacity:1;" d="M 16.425781 16.882812 C 15.773438 16.542969 15.402344 15.96875 15.429688 15.230469 C 15.402344 15.199219 15.347656 15.140625 15.308594 15.105469 C 15.085938 15.398438 14.707031 15.746094 14.425781 15.953125 C 15.15625 16.164062 15.800781 16.492188 16.402344 17.007812 C 16.460938 17.066406 16.527344 16.929688 16.425781 16.882812 Z M 16.425781 16.882812 "/>
<path style=" stroke:none;fill-rule:nonzero;fill:rgb(93.333333%,74.901961%,10.588235%);fill-opacity:1;" d="M 17.339844 15.921875 C 16.757812 15.960938 16.207031 15.804688 15.6875 15.457031 C 15.6875 15.457031 15.71875 16.578125 17.339844 16.765625 Z M 17.339844 15.921875 "/>
<path style=" stroke:none;fill-rule:nonzero;fill:rgb(93.333333%,74.901961%,10.588235%);fill-opacity:1;" d="M 19.226562 16.015625 C 19.023438 16.324219 18.40625 17.339844 18.4375 18.234375 C 18.691406 18.3125 18.878906 18.511719 19.089844 18.679688 C 19.199219 18.066406 19.878906 17.496094 19.433594 16.132812 C 19.386719 15.972656 19.304688 15.890625 19.226562 16.015625 Z M 19.226562 16.015625 "/>
<path style=" stroke:none;fill-rule:nonzero;fill:rgb(93.333333%,74.901961%,10.588235%);fill-opacity:1;" d="M 18.222656 17.535156 C 18.222656 17.535156 17.027344 16.738281 16.757812 17.019531 C 16.503906 17.226562 17.195312 17.871094 17.367188 17.972656 C 17.550781 18.101562 18.183594 18.117188 18.183594 18.117188 C 18.164062 17.914062 18.214844 17.730469 18.222656 17.535156 Z M 18.222656 17.535156 "/>
<path style=" stroke:none;fill-rule:nonzero;fill:rgb(93.333333%,74.901961%,10.588235%);fill-opacity:1;" d="M 19.535156 20 C 19.777344 19.425781 19.890625 18.304688 19.671875 18.164062 C 19.566406 18.121094 19.203125 19.070312 19.050781 19.4375 C 19.160156 19.550781 19.363281 19.757812 19.535156 20 Z M 19.535156 20 "/>
<path style=" stroke:none;fill-rule:nonzero;fill:rgb(93.333333%,74.901961%,10.588235%);fill-opacity:1;" d="M 18.972656 18.886719 C 18.597656 18.476562 17.871094 18.230469 17.710938 18.375 C 17.613281 18.5 17.785156 18.699219 17.875 18.863281 C 18.066406 19.253906 18.464844 19.320312 18.835938 19.378906 C 18.878906 19.195312 18.933594 19.066406 18.972656 18.886719 Z M 18.972656 18.886719 "/>
<path style=" stroke:none;fill-rule:nonzero;fill:rgb(93.333333%,74.901961%,10.588235%);fill-opacity:1;" d="M 19.234375 20.617188 C 19.300781 20.605469 19.476562 20.273438 19.445312 20.179688 C 19.230469 19.792969 18.589844 19.480469 18.4375 19.566406 C 18.3125 19.667969 18.429688 19.980469 18.503906 20.117188 C 18.613281 20.371094 19.167969 20.648438 19.234375 20.617188 Z M 19.234375 20.617188 "/>
<path style=" stroke:none;fill-rule:nonzero;fill:rgb(93.333333%,74.901961%,10.588235%);fill-opacity:1;" d="M 19.394531 20.785156 C 19.453125 20.972656 19.578125 21.082031 19.621094 21.285156 C 19.832031 20.949219 19.953125 20.089844 19.835938 20.03125 C 19.765625 20.007812 19.441406 20.71875 19.394531 20.785156 Z M 19.394531 20.785156 "/>
<path style=" stroke:none;fill-rule:nonzero;fill:rgb(93.333333%,74.901961%,10.588235%);fill-opacity:1;" d="M 18.738281 20.699219 C 18.660156 20.730469 18.679688 21.015625 18.707031 21.167969 C 18.746094 21.472656 19.269531 21.777344 19.339844 21.753906 C 19.394531 21.761719 19.503906 21.585938 19.503906 21.449219 C 19.390625 21.128906 18.882812 20.660156 18.738281 20.699219 Z M 18.738281 20.699219 "/>
<path style=" stroke:none;fill-rule:nonzero;fill:rgb(93.333333%,74.901961%,10.588235%);fill-opacity:1;" d="M 19.484375 21.945312 L 19.738281 22.292969 C 19.941406 22.023438 20.027344 21.417969 19.914062 21.335938 C 19.835938 21.285156 19.621094 21.730469 19.484375 21.945312 Z M 19.484375 21.945312 "/>
<path style=" stroke:none;fill-rule:nonzero;fill:rgb(93.333333%,74.901961%,10.588235%);fill-opacity:1;" d="M 18.855469 21.75 C 18.761719 21.726562 18.75 21.972656 18.855469 22.03125 C 19.144531 22.226562 19.382812 22.519531 19.519531 22.839844 C 19.578125 22.945312 19.648438 22.75 19.613281 22.621094 C 19.535156 22.28125 19.195312 21.867188 18.855469 21.75 Z M 18.855469 21.75 "/>
<path style=" stroke:none;fill-rule:nonzero;fill:rgb(93.333333%,74.901961%,10.588235%);fill-opacity:1;" d="M 18.953125 22.378906 C 18.882812 22.324219 18.707031 22.496094 18.808594 22.574219 C 19 22.742188 19.339844 23.082031 19.40625 23.246094 C 19.59375 23.09375 19.242188 22.605469 18.953125 22.378906 Z M 18.953125 22.378906 "/>
<path style=" stroke:none;fill-rule:nonzero;fill:rgb(93.333333%,74.901961%,10.588235%);fill-opacity:1;" d="M 18.90625 22.980469 C 18.820312 22.960938 18.738281 23.097656 18.8125 23.140625 C 18.976562 23.277344 19.148438 23.449219 19.273438 23.617188 C 19.296875 23.640625 19.355469 23.601562 19.34375 23.53125 C 19.257812 23.320312 19.097656 23.046875 18.90625 22.980469 Z M 18.90625 22.980469 "/>
<path style=" stroke:none;fill-rule:nonzero;fill:rgb(93.333333%,74.901961%,10.588235%);fill-opacity:1;" d="M 18.804688 23.410156 C 18.761719 23.398438 18.710938 23.539062 18.769531 23.59375 C 18.941406 23.703125 18.992188 23.824219 19.128906 23.964844 C 19.175781 24 19.21875 23.941406 19.203125 23.890625 C 19.152344 23.695312 18.945312 23.476562 18.804688 23.410156 Z M 18.804688 23.410156 "/>
<path style=" stroke:none;fill-rule:nonzero;fill:rgb(93.333333%,74.901961%,10.588235%);fill-opacity:1;" d="M 18.769531 23.875 C 18.652344 24.074219 18.558594 24.433594 18.71875 24.527344 C 18.878906 24.589844 19 24.246094 19.035156 24.15625 C 18.945312 24.058594 18.863281 23.945312 18.769531 23.875 Z M 18.769531 23.875 "/>
</g>
</svg>
