<?xml version="1.0" encoding="UTF-8"?>
<svg xmlns="http://www.w3.org/2000/svg" xmlns:xlink="http://www.w3.org/1999/xlink" width="35pt" height="25pt" viewBox="0 0 35 25" version="1.1">
<g id="surface1">
<path style=" stroke:none;fill-rule:nonzero;fill:rgb(0%,0%,0.784314%);fill-opacity:1;" d="M 27.136719 16.164062 C 27.027344 16.140625 26.746094 16.066406 26.746094 16.066406 C 26.953125 15.484375 26.953125 15.121094 26.953125 15.121094 C 27.136719 15.023438 27.5 14.878906 27.5 14.878906 C 27.378906 14.234375 26.941406 13.738281 26.941406 13.738281 C 26.976562 13.601562 27.0625 13.375 27.0625 13.289062 C 27.0625 13.203125 26.90625 13.058594 26.734375 12.949219 C 26.566406 12.839844 26.539062 12.644531 26.539062 12.414062 C 26.539062 12.183594 26.441406 11.890625 26.40625 11.878906 C 26.371094 11.867188 26.839844 11.71875 26.984375 11.308594 C 27.132812 10.894531 27.136719 10.558594 27.136719 10.558594 C 26.941406 10.84375 26.183594 10.957031 26.183594 10.957031 C 26.121094 10.316406 25.605469 8.242188 23.519531 6.359375 C 21.433594 4.476562 17.875 4.140625 17.875 4.140625 C 17.882812 4.242188 17.867188 4.367188 17.835938 4.503906 C 17.808594 4.679688 17.757812 4.890625 17.667969 5.058594 L 17.648438 5.09375 C 17.15625 4.828125 16.640625 4.46875 16.40625 4.050781 C 15.949219 3.242188 16.003906 2.546875 15.761719 1.976562 C 15.363281 1.042969 14.792969 0.535156 14.621094 0.386719 C 14.523438 0.300781 14.488281 0.273438 14.4375 0.316406 C 14.390625 0.355469 14.421875 0.414062 14.464844 0.472656 C 14.5 0.53125 14.859375 1.21875 14.992188 2.152344 C 15.125 3.085938 14.949219 4.5625 15.386719 5.507812 C 15.65625 6.097656 16.109375 6.5625 16.410156 6.832031 L 16.441406 6.859375 L 16.539062 6.957031 C 15.914062 7.015625 15.332031 6.992188 14.714844 6.648438 C 13.722656 6.148438 12.964844 4.984375 12.824219 3.757812 L 12.808594 3.609375 C 12.769531 3.273438 12.785156 2.9375 12.769531 2.597656 C 12.757812 2.292969 12.722656 1.984375 12.667969 1.683594 C 12.644531 1.550781 12.617188 1.417969 12.585938 1.289062 L 12.585938 1.28125 C 12.570312 1.203125 12.550781 1.125 12.527344 1.046875 C 12.511719 0.992188 12.492188 0.941406 12.476562 0.890625 C 12.4375 0.773438 12.386719 0.664062 12.324219 0.5625 C 12.246094 0.433594 12.160156 0.3125 12.058594 0.203125 C 11.996094 0.136719 11.933594 0.078125 11.863281 0.0234375 C 11.863281 0.0234375 11.796875 -0.015625 11.75 0.0078125 C 11.75 0.0078125 11.691406 0.0507812 11.753906 0.179688 C 11.753906 0.179688 11.769531 0.207031 11.789062 0.25 C 11.800781 0.273438 11.8125 0.304688 11.820312 0.339844 C 11.832031 0.371094 11.839844 0.40625 11.84375 0.445312 C 11.894531 0.710938 11.929688 1.285156 11.71875 2.382812 L 11.71875 2.386719 C 11.699219 2.542969 11.679688 2.703125 11.652344 2.859375 C 11.5625 3.375 11.480469 3.957031 11.464844 4.5625 L 11.46875 4.679688 C 11.460938 5.21875 11.566406 8.742188 15.210938 9.851562 C 15.191406 9.929688 15.175781 10 15.164062 10.070312 C 14.917969 11.625 15.011719 12.28125 15.011719 12.28125 L 15.011719 12.296875 C 14.265625 12.578125 13.421875 12.957031 12.535156 13.464844 C 11.539062 14.007812 10.460938 14.75 9.40625 15.761719 C 9.207031 15.953125 9.019531 16.140625 8.84375 16.328125 L 8.71875 16.460938 L 8.710938 16.472656 C 8.152344 17.070312 7.730469 17.625 7.425781 18.074219 C 9.074219 16.882812 11.644531 16.527344 12.433594 16.480469 C 13.257812 16.433594 14.09375 16.292969 14.09375 16.292969 C 14.09375 16.292969 14.417969 16.464844 14.808594 16.550781 C 15.25 16.648438 15.710938 16.507812 15.710938 16.507812 C 15.878906 17.363281 16.476562 17.914062 16.636719 18.035156 C 16.59375 18.292969 16.636719 19.140625 16.925781 19.613281 C 17.238281 20.121094 17.75 20.460938 17.75 20.460938 C 17.75 20.460938 17.714844 20.921875 17.835938 21.25 C 17.957031 21.578125 18.238281 21.878906 18.238281 21.878906 C 18.238281 21.878906 18.109375 22.09375 18.09375 22.363281 C 18.074219 22.632812 18.238281 22.785156 18.238281 22.785156 C 18.238281 22.785156 18.089844 22.972656 18.066406 23.117188 C 18.042969 23.265625 18.132812 23.488281 18.132812 23.488281 C 18.132812 23.488281 18.042969 23.648438 18.015625 23.773438 C 17.992188 23.898438 18.066406 24.054688 18.066406 24.054688 C 18.007812 24.167969 17.828125 24.714844 18.089844 24.933594 C 18.347656 25.15625 18.671875 24.746094 18.671875 24.746094 C 18.773438 24.714844 18.960938 24.59375 19.050781 24.453125 C 19.160156 24.285156 19.160156 24.125 19.160156 24.125 C 19.160156 24.125 19.296875 24.035156 19.417969 23.804688 C 19.519531 23.617188 19.503906 23.492188 19.503906 23.492188 C 19.503906 23.492188 20.066406 22.902344 20.1875 22.160156 C 20.285156 21.53125 20.136719 20.945312 20.136719 20.945312 C 20.136719 20.945312 20.5625 20.300781 20.542969 19.5625 C 20.832031 19.363281 21.527344 18.910156 22.394531 18.574219 C 22.417969 19.070312 22.496094 19.5 22.34375 20.300781 C 22.148438 21.296875 21.261719 22.023438 21.261719 22.023438 C 22.5 21.890625 23.324219 20.796875 23.652344 20.011719 C 23.917969 19.367188 24.164062 18.457031 24.277344 18.042969 C 25.484375 17.808594 26.585938 17.746094 26.953125 17.691406 C 27.4375 17.621094 27.558594 17.511719 27.570312 17.328125 C 27.582031 17.144531 27.535156 16.820312 27.5 16.601562 C 27.460938 16.382812 27.246094 16.1875 27.136719 16.164062 "/>
<path style=" stroke:none;fill-rule:nonzero;fill:rgb(100%,100%,100%);fill-opacity:1;" d="M 12.769531 3.5625 L 12.75 3.359375 C 12.738281 3.105469 12.746094 2.851562 12.734375 2.597656 C 12.71875 2.292969 12.6875 1.988281 12.632812 1.6875 C 12.609375 1.558594 12.582031 1.425781 12.550781 1.296875 L 12.550781 1.289062 C 12.535156 1.210938 12.515625 1.132812 12.492188 1.054688 L 12.441406 0.902344 L 12.378906 0.738281 L 12.292969 0.578125 L 12.167969 0.394531 L 12.03125 0.226562 L 11.941406 0.136719 L 11.84375 0.0546875 L 11.839844 0.0546875 L 11.8125 0.0429688 L 11.769531 0.0390625 L 11.765625 0.0390625 C 11.761719 0.046875 11.753906 0.0664062 11.761719 0.101562 L 11.785156 0.160156 L 11.785156 0.164062 L 11.820312 0.234375 L 11.855469 0.332031 L 11.878906 0.4375 L 11.878906 0.441406 L 11.914062 0.703125 C 11.933594 1.03125 11.914062 1.5625 11.753906 2.386719 L 11.753906 2.394531 L 11.6875 2.867188 C 11.601562 3.378906 11.515625 3.960938 11.503906 4.5625 L 11.503906 4.683594 C 11.5 5.214844 11.601562 8.71875 15.21875 9.820312 L 15.246094 9.863281 L 15.199219 10.078125 L 15.128906 10.585938 C 14.988281 11.6875 15.039062 12.203125 15.046875 12.269531 L 15.046875 12.292969 L 15.023438 12.332031 C 14.28125 12.609375 13.4375 12.988281 12.550781 13.496094 C 11.683594 13.972656 10.75 14.597656 9.824219 15.421875 L 9.429688 15.789062 L 9.140625 16.070312 C 9.050781 16.164062 8.960938 16.257812 8.871094 16.351562 L 8.746094 16.484375 L 8.734375 16.496094 L 8.4375 16.828125 C 8.152344 17.152344 7.910156 17.460938 7.707031 17.738281 L 7.566406 17.9375 L 7.726562 17.828125 C 9.378906 16.804688 11.6875 16.488281 12.429688 16.445312 C 13.046875 16.410156 13.671875 16.320312 13.945312 16.28125 L 14.085938 16.257812 L 14.109375 16.261719 L 14.125 16.269531 C 14.191406 16.300781 14.480469 16.445312 14.816406 16.515625 C 15.191406 16.601562 15.589844 16.503906 15.683594 16.480469 L 15.703125 16.476562 L 15.75 16.503906 C 15.910156 17.34375 16.503906 17.886719 16.660156 18.007812 L 16.671875 18.042969 C 16.632812 18.292969 16.675781 19.136719 16.957031 19.59375 C 17.226562 20.03125 17.648438 20.347656 17.75 20.417969 L 17.769531 20.433594 L 17.789062 20.464844 L 17.785156 20.484375 C 17.78125 20.574219 17.765625 20.960938 17.871094 21.238281 C 17.972656 21.519531 18.199219 21.78125 18.253906 21.839844 L 18.265625 21.855469 L 18.269531 21.898438 L 18.265625 21.90625 C 18.246094 21.9375 18.1875 22.054688 18.152344 22.203125 L 18.128906 22.367188 L 18.128906 22.449219 C 18.144531 22.636719 18.25 22.746094 18.261719 22.757812 L 18.265625 22.808594 L 18.246094 22.835938 C 18.214844 22.882812 18.160156 22.964844 18.125 23.046875 L 18.101562 23.125 L 18.101562 23.207031 C 18.105469 23.292969 18.136719 23.390625 18.152344 23.441406 L 18.167969 23.476562 L 18.164062 23.507812 L 18.160156 23.511719 C 18.148438 23.535156 18.105469 23.621094 18.078125 23.703125 L 18.054688 23.78125 L 18.050781 23.847656 C 18.050781 23.914062 18.074219 23.980469 18.089844 24.015625 L 18.097656 24.039062 L 18.097656 24.070312 C 18.039062 24.1875 17.878906 24.710938 18.113281 24.910156 C 18.226562 25.003906 18.359375 24.960938 18.460938 24.890625 C 18.5625 24.824219 18.640625 24.730469 18.644531 24.722656 L 18.664062 24.710938 C 18.75 24.6875 18.9375 24.566406 19.019531 24.433594 C 19.117188 24.285156 19.121094 24.140625 19.121094 24.128906 L 19.121094 24.125 L 19.140625 24.097656 C 19.152344 24.089844 19.277344 24 19.386719 23.789062 C 19.480469 23.613281 19.46875 23.5 19.46875 23.496094 L 19.476562 23.46875 L 19.5 23.441406 C 19.597656 23.335938 19.945312 22.917969 20.097656 22.386719 L 20.148438 22.15625 L 20.175781 21.953125 C 20.210938 21.488281 20.132812 21.085938 20.109375 20.980469 L 20.101562 20.957031 L 20.105469 20.925781 L 20.125 20.898438 C 20.203125 20.769531 20.523438 20.199219 20.507812 19.566406 L 20.523438 19.535156 C 20.8125 19.332031 21.511719 18.878906 22.382812 18.539062 L 22.429688 18.570312 C 22.457031 19.066406 22.535156 19.503906 22.378906 20.308594 C 22.230469 21.066406 21.691406 21.667969 21.429688 21.921875 L 21.375 21.96875 L 21.480469 21.953125 C 22.578125 21.722656 23.316406 20.730469 23.621094 19.996094 C 23.886719 19.355469 24.128906 18.445312 24.242188 18.035156 L 24.269531 18.007812 C 25.480469 17.773438 26.585938 17.710938 26.949219 17.65625 C 27.371094 17.59375 27.496094 17.507812 27.527344 17.382812 L 27.535156 17.328125 L 27.535156 17.171875 C 27.523438 16.996094 27.492188 16.769531 27.464844 16.605469 C 27.4375 16.453125 27.3125 16.3125 27.214844 16.242188 L 27.128906 16.199219 L 26.738281 16.101562 L 26.714844 16.054688 C 26.90625 15.511719 26.917969 15.164062 26.917969 15.125 L 26.917969 15.121094 L 26.9375 15.089844 C 27.027344 15.039062 27.167969 14.980469 27.28125 14.929688 L 27.457031 14.855469 L 27.414062 14.683594 C 27.277344 14.226562 27.003906 13.871094 26.933594 13.785156 L 26.914062 13.761719 L 26.90625 13.726562 C 26.941406 13.59375 27.027344 13.359375 27.027344 13.289062 C 27.027344 13.230469 26.890625 13.089844 26.714844 12.980469 C 26.527344 12.859375 26.503906 12.644531 26.503906 12.414062 C 26.503906 12.175781 26.398438 11.917969 26.394531 11.914062 L 26.382812 11.910156 L 26.382812 11.90625 L 26.371094 11.886719 C 26.359375 11.839844 26.515625 11.777344 26.621094 11.707031 C 26.714844 11.640625 26.816406 11.550781 26.890625 11.425781 L 26.953125 11.296875 L 27.011719 11.101562 C 27.0625 10.917969 27.082031 10.761719 27.09375 10.664062 L 27.09375 10.65625 L 27.078125 10.671875 C 26.835938 10.875 26.351562 10.96875 26.222656 10.988281 L 26.1875 10.992188 L 26.148438 10.960938 C 26.085938 10.328125 25.574219 8.261719 23.496094 6.386719 C 21.679688 4.75 18.734375 4.285156 18.027344 4.191406 L 17.910156 4.179688 L 17.90625 4.3125 L 17.871094 4.511719 L 17.808594 4.796875 C 17.796875 4.84375 17.777344 4.890625 17.761719 4.941406 L 17.699219 5.078125 L 17.679688 5.109375 L 17.628906 5.125 C 17.199219 4.890625 16.746094 4.585938 16.476562 4.226562 L 16.375 4.070312 L 16.238281 3.804688 C 15.964844 3.199219 15.941406 2.660156 15.804688 2.207031 L 15.730469 1.992188 L 15.574219 1.664062 C 15.199219 0.945312 14.746094 0.542969 14.597656 0.414062 C 14.492188 0.320312 14.488281 0.320312 14.460938 0.34375 C 14.441406 0.359375 14.449219 0.386719 14.492188 0.453125 C 14.53125 0.507812 14.808594 1.042969 14.96875 1.808594 L 15.027344 2.148438 L 15.066406 2.523438 C 15.128906 3.449219 15.042969 4.675781 15.417969 5.492188 C 15.6875 6.074219 16.132812 6.539062 16.433594 6.804688 L 16.464844 6.835938 L 16.5625 6.929688 L 16.539062 6.992188 C 15.992188 7.042969 15.472656 7.035156 14.929688 6.792969 L 14.699219 6.679688 L 14.527344 6.582031 C 13.667969 6.070312 13.011719 5.074219 12.820312 3.992188 L 12.789062 3.761719 L 12.769531 3.613281 Z M 27.5625 17.097656 L 27.570312 17.167969 C 27.574219 17.226562 27.574219 17.28125 27.570312 17.328125 C 27.558594 17.511719 27.4375 17.621094 26.953125 17.691406 C 26.585938 17.746094 25.484375 17.808594 24.277344 18.042969 C 24.164062 18.457031 23.921875 19.367188 23.652344 20.011719 C 23.324219 20.800781 22.5 21.890625 21.261719 22.023438 C 21.261719 22.023438 22.148438 21.296875 22.34375 20.300781 C 22.5 19.5 22.417969 19.070312 22.394531 18.574219 C 21.527344 18.910156 20.832031 19.363281 20.542969 19.5625 C 20.5625 20.300781 20.136719 20.945312 20.136719 20.945312 C 20.136719 20.945312 20.285156 21.53125 20.1875 22.160156 C 20.070312 22.902344 19.503906 23.492188 19.503906 23.492188 C 19.503906 23.492188 19.519531 23.617188 19.417969 23.804688 C 19.296875 24.035156 19.160156 24.125 19.160156 24.125 C 19.160156 24.125 19.160156 24.285156 19.050781 24.453125 C 18.960938 24.59375 18.773438 24.714844 18.671875 24.746094 C 18.671875 24.746094 18.351562 25.15625 18.089844 24.933594 C 17.832031 24.714844 18.007812 24.167969 18.066406 24.054688 C 18.066406 24.054688 17.992188 23.898438 18.019531 23.773438 C 18.042969 23.648438 18.132812 23.488281 18.132812 23.488281 C 18.132812 23.488281 18.042969 23.265625 18.066406 23.117188 C 18.09375 22.972656 18.238281 22.785156 18.238281 22.785156 C 18.238281 22.785156 18.078125 22.632812 18.09375 22.363281 C 18.109375 22.09375 18.238281 21.878906 18.238281 21.878906 C 18.238281 21.878906 17.957031 21.578125 17.835938 21.25 C 17.714844 20.921875 17.75 20.460938 17.75 20.460938 C 17.75 20.460938 17.238281 20.121094 16.925781 19.613281 C 16.636719 19.140625 16.597656 18.292969 16.636719 18.035156 C 16.480469 17.914062 15.878906 17.363281 15.714844 16.507812 C 15.714844 16.507812 15.25 16.648438 14.808594 16.550781 C 14.417969 16.464844 14.09375 16.292969 14.09375 16.292969 C 14.09375 16.292969 13.257812 16.433594 12.433594 16.480469 C 11.648438 16.527344 9.074219 16.882812 7.425781 18.074219 C 7.734375 17.625 8.152344 17.070312 8.710938 16.472656 L 8.71875 16.460938 L 8.847656 16.328125 C 9.023438 16.140625 9.207031 15.953125 9.40625 15.761719 C 10.460938 14.75 11.539062 14.007812 12.535156 13.464844 C 13.421875 12.957031 14.265625 12.578125 15.011719 12.296875 L 15.011719 12.28125 C 15.011719 12.28125 14.921875 11.625 15.164062 10.070312 C 15.179688 10 15.195312 9.929688 15.210938 9.851562 C 11.566406 8.742188 11.464844 5.21875 11.46875 4.679688 L 11.464844 4.558594 C 11.480469 3.957031 11.566406 3.375 11.652344 2.859375 C 11.679688 2.703125 11.699219 2.542969 11.71875 2.386719 L 11.71875 2.382812 C 11.929688 1.285156 11.894531 0.710938 11.847656 0.445312 C 11.839844 0.40625 11.832031 0.371094 11.820312 0.339844 C 11.8125 0.304688 11.800781 0.273438 11.789062 0.25 C 11.769531 0.207031 11.753906 0.179688 11.753906 0.179688 C 11.691406 0.0507812 11.75 0.0078125 11.75 0.0078125 C 11.796875 -0.015625 11.863281 0.0234375 11.863281 0.0234375 C 11.933594 0.078125 12 0.136719 12.058594 0.203125 C 12.160156 0.3125 12.246094 0.433594 12.324219 0.5625 C 12.386719 0.664062 12.4375 0.773438 12.476562 0.890625 C 12.496094 0.941406 12.511719 0.992188 12.527344 1.046875 C 12.550781 1.125 12.574219 1.203125 12.585938 1.28125 L 12.585938 1.289062 C 12.617188 1.417969 12.648438 1.550781 12.671875 1.683594 C 12.722656 1.984375 12.757812 2.292969 12.769531 2.597656 C 12.785156 2.9375 12.769531 3.273438 12.808594 3.609375 L 12.824219 3.757812 C 12.964844 4.984375 13.726562 6.148438 14.71875 6.648438 C 15.335938 6.992188 15.914062 7.015625 16.539062 6.957031 L 16.441406 6.859375 L 16.410156 6.832031 C 16.109375 6.5625 15.65625 6.097656 15.386719 5.507812 C 14.949219 4.5625 15.125 3.085938 14.992188 2.152344 C 14.859375 1.21875 14.503906 0.53125 14.464844 0.472656 C 14.421875 0.414062 14.390625 0.355469 14.441406 0.316406 C 14.492188 0.273438 14.523438 0.300781 14.621094 0.386719 C 14.792969 0.535156 15.367188 1.042969 15.761719 1.976562 C 16.003906 2.546875 15.949219 3.242188 16.40625 4.050781 C 16.640625 4.46875 17.15625 4.828125 17.648438 5.09375 L 17.667969 5.058594 C 17.757812 4.890625 17.808594 4.679688 17.839844 4.503906 C 17.867188 4.367188 17.882812 4.242188 17.878906 4.140625 C 17.878906 4.140625 21.433594 4.480469 23.519531 6.359375 C 25.605469 8.238281 26.121094 10.316406 26.183594 10.957031 C 26.183594 10.957031 26.941406 10.84375 27.136719 10.558594 C 27.136719 10.558594 27.132812 10.894531 26.988281 11.308594 C 26.84375 11.707031 26.402344 11.859375 26.40625 11.878906 C 26.445312 11.890625 26.542969 12.183594 26.542969 12.414062 C 26.542969 12.644531 26.566406 12.839844 26.734375 12.949219 C 26.90625 13.058594 27.0625 13.203125 27.0625 13.289062 C 27.0625 13.375 26.976562 13.601562 26.941406 13.738281 C 26.941406 13.738281 27.378906 14.234375 27.5 14.878906 C 27.5 14.878906 27.136719 15.023438 26.953125 15.121094 C 26.953125 15.121094 26.953125 15.484375 26.75 16.066406 C 26.75 16.066406 27.027344 16.140625 27.136719 16.164062 C 27.246094 16.1875 27.464844 16.382812 27.5 16.601562 C 27.519531 16.710938 27.539062 16.847656 27.554688 16.976562 Z M 27.5625 17.097656 "/>
<path style=" stroke:none;fill-rule:nonzero;fill:rgb(100%,77.254902%,18.431373%);fill-opacity:1;" d="M 17.523438 18.167969 L 17.523438 18.179688 C 17.527344 18.226562 17.527344 18.269531 17.53125 18.3125 L 17.476562 18.34375 C 17.089844 18.074219 16.105469 17.570312 15.941406 16.347656 L 15.917969 16.09375 L 15.914062 15.683594 C 15.921875 15.285156 15.957031 14.921875 16.027344 14.621094 L 16.027344 14.609375 L 15.804688 14.863281 C 14.480469 16.226562 13 16.136719 11.65625 16.277344 C 11.449219 16.296875 10.648438 16.460938 10.4375 16.503906 L 10.40625 16.445312 C 10.917969 15.894531 11.804688 15.089844 12.386719 14.691406 C 13.511719 13.925781 15.457031 13.128906 15.457031 13.128906 L 15.480469 13.191406 L 15.488281 13.191406 C 14.914062 13.507812 14.414062 13.953125 14.136719 14.222656 L 14.121094 14.234375 L 14.476562 14.011719 C 15.246094 13.546875 16.316406 12.925781 16.320312 12.925781 L 16.363281 12.984375 C 15.976562 13.347656 15.066406 14.160156 14.269531 14.785156 L 13.921875 15.046875 L 14.28125 14.851562 C 15.027344 14.421875 15.640625 13.957031 16.011719 13.605469 C 16.640625 13.011719 17.582031 12.441406 18.007812 12.222656 L 18.050781 12.226562 C 18.253906 12.429688 18.550781 12.613281 18.816406 12.722656 L 18.824219 12.785156 C 18.191406 13.234375 17.753906 13.503906 17.519531 14.015625 L 17.5 14.066406 L 17.730469 13.824219 C 17.902344 13.65625 18.125 13.460938 18.390625 13.285156 L 18.667969 13.117188 C 18.808594 13.039062 18.960938 12.945312 19.121094 12.835938 L 19.148438 12.832031 C 19.230469 12.851562 19.367188 12.867188 19.5 12.882812 L 19.851562 12.902344 L 19.863281 12.902344 L 19.894531 12.886719 L 19.929688 12.949219 L 19.796875 13.035156 L 19.324219 13.363281 C 18.238281 14.074219 17.3125 14.484375 17.007812 15.800781 L 16.976562 15.960938 L 17.070312 15.710938 C 17.234375 15.320312 17.503906 14.859375 17.949219 14.503906 L 18.152344 14.363281 L 18.710938 14.03125 C 19.332031 13.671875 20.109375 13.222656 20.675781 12.644531 L 20.6875 12.636719 C 21.1875 12.410156 21.523438 12.039062 21.726562 11.53125 L 21.804688 11.304688 L 21.808594 11.289062 L 21.839844 11.257812 C 22.027344 11.242188 22.214844 11.214844 22.414062 11.199219 L 22.453125 11.238281 C 22.433594 11.410156 22.402344 11.632812 22.339844 11.867188 L 22.265625 12.105469 L 22.144531 12.433594 C 22.003906 12.773438 21.796875 13.136719 21.492188 13.507812 C 20.851562 14.289062 20.101562 14.8125 19.3125 15.722656 L 18.976562 16.140625 L 18.824219 16.347656 C 18.097656 17.382812 17.898438 18.382812 17.878906 18.511719 L 17.875 18.523438 L 17.804688 18.523438 C 17.675781 17.589844 17.90625 16.871094 18.09375 16.460938 L 18.117188 16.414062 L 18.03125 16.542969 C 17.882812 16.765625 17.730469 17.0625 17.648438 17.386719 C 17.570312 17.683594 17.539062 17.875 17.527344 18.007812 Z M 17.277344 18.167969 L 17.496094 18.3125 C 17.484375 18.144531 17.460938 17.972656 17.613281 17.375 C 17.777344 16.71875 18.234375 16.183594 18.339844 16.097656 C 18.339844 16.097656 17.636719 17.039062 17.839844 18.515625 C 17.839844 18.515625 18.035156 17.304688 18.945312 16.117188 C 19.859375 14.929688 20.738281 14.371094 21.464844 13.484375 C 21.867188 12.992188 22.097656 12.519531 22.230469 12.09375 C 22.34375 11.773438 22.394531 11.460938 22.414062 11.234375 C 22.21875 11.25 22.03125 11.273438 21.84375 11.292969 L 21.839844 11.3125 C 21.648438 11.949219 21.285156 12.402344 20.699219 12.667969 C 19.941406 13.445312 18.804688 13.984375 18.171875 14.390625 C 17.054688 15.105469 16.871094 16.519531 16.871094 16.519531 C 16.992188 14.351562 18.324219 14.070312 19.777344 13.007812 L 19.910156 12.921875 L 19.863281 12.9375 C 19.683594 12.9375 19.3125 12.90625 19.140625 12.863281 C 18.980469 12.972656 18.828125 13.070312 18.683594 13.148438 C 17.925781 13.5625 17.394531 14.238281 17.394531 14.238281 C 17.601562 13.554688 18.082031 13.265625 18.804688 12.757812 C 18.535156 12.644531 18.234375 12.457031 18.023438 12.253906 C 17.601562 12.472656 16.660156 13.039062 16.035156 13.632812 C 15.535156 14.105469 14.609375 14.773438 13.511719 15.292969 C 14.375 14.722656 15.828125 13.441406 16.335938 12.957031 C 16.335938 12.957031 14.425781 14.058594 13.878906 14.429688 C 13.878906 14.429688 14.589844 13.644531 15.46875 13.160156 C 15.46875 13.160156 13.527344 13.957031 12.40625 14.722656 C 11.828125 15.117188 10.941406 15.921875 10.429688 16.46875 C 10.640625 16.421875 11.441406 16.261719 11.652344 16.242188 C 13.089844 16.09375 14.660156 16.203125 16.039062 14.546875 L 16.101562 14.46875 C 15.984375 14.878906 15.933594 15.453125 15.953125 16.09375 C 15.992188 17.132812 16.605469 17.699219 17.085938 18.039062 Z M 14.398438 16.097656 L 14.589844 16.035156 C 15.035156 15.855469 15.433594 15.480469 15.617188 15.285156 C 15.6875 15.210938 15.726562 15.164062 15.726562 15.164062 L 15.789062 15.199219 C 15.726562 15.414062 15.761719 16.050781 15.769531 16.203125 L 15.773438 16.238281 L 15.75 16.273438 C 15.746094 16.273438 15.46875 16.386719 15.121094 16.386719 C 14.769531 16.386719 14.359375 16.167969 14.359375 16.167969 L 14.371094 16.101562 L 14.394531 16.097656 Z M 14.402344 16.132812 L 14.375 16.136719 C 14.375 16.136719 14.785156 16.351562 15.121094 16.351562 C 15.460938 16.351562 15.738281 16.242188 15.738281 16.242188 C 15.738281 16.242188 15.679688 15.449219 15.753906 15.1875 C 15.753906 15.1875 15.113281 15.957031 14.402344 16.132812 Z M 14.402344 16.132812 "/>
<path style=" stroke:none;fill-rule:nonzero;fill:rgb(100%,100%,100%);fill-opacity:1;" d="M 12.359375 3.183594 L 12.394531 2.980469 L 12.398438 2.878906 L 12.398438 2.832031 L 12.402344 2.816406 L 12.433594 2.796875 C 12.488281 2.796875 12.507812 2.941406 12.519531 3.070312 C 12.527344 3.261719 12.539062 3.457031 12.558594 3.640625 L 12.574219 3.785156 C 12.726562 5.117188 13.523438 6.328125 14.597656 6.867188 L 14.601562 6.867188 C 15.464844 7.355469 16.269531 7.25 17.136719 7.140625 L 17.632812 7.078125 L 18.035156 7.050781 C 18.164062 7.046875 18.28125 7.046875 18.398438 7.050781 L 18.621094 7.070312 L 18.859375 7.097656 C 19.269531 7.160156 19.640625 7.273438 19.871094 7.367188 L 20.054688 7.449219 L 20.292969 7.574219 C 20.835938 7.910156 21.242188 8.5 21.335938 9.121094 L 21.335938 9.140625 L 21.367188 9.332031 C 21.375 9.398438 21.378906 9.464844 21.378906 9.535156 L 21.359375 9.535156 L 21.355469 9.632812 C 21.335938 9.800781 21.296875 9.960938 21.234375 10.113281 L 21.203125 10.097656 L 21.171875 10.085938 L 21.167969 10.085938 C 21.199219 9.992188 21.21875 9.886719 21.226562 9.769531 L 21.226562 9.738281 L 21.21875 9.773438 C 21.191406 9.894531 21.148438 10.011719 21.097656 10.121094 L 21.066406 10.105469 L 21.035156 10.09375 L 21.03125 10.097656 C 21.089844 9.90625 21.113281 9.699219 21.09375 9.488281 C 21.070312 9.222656 20.980469 8.976562 20.839844 8.765625 L 20.835938 8.765625 L 20.882812 8.886719 C 20.953125 9.078125 20.992188 9.285156 21.007812 9.484375 C 21.085938 10.324219 20.503906 10.90625 19.8125 11.128906 L 19.738281 11.152344 L 19.898438 11.140625 C 19.960938 11.132812 20.023438 11.121094 20.089844 11.097656 L 20.097656 11.097656 C 20.183594 11.089844 20.289062 11.074219 20.402344 11.035156 L 20.515625 10.988281 L 20.613281 10.9375 C 20.644531 10.917969 20.683594 10.894531 20.722656 10.867188 L 20.761719 10.921875 L 20.769531 10.921875 C 20.429688 11.234375 19.980469 11.425781 19.484375 11.425781 C 18.832031 11.425781 18.257812 11.09375 17.917969 10.589844 L 17.953125 10.53125 C 18.183594 10.5625 18.414062 10.597656 18.585938 10.628906 L 18.703125 10.652344 L 18.699219 10.648438 C 18.347656 10.425781 17.894531 10.273438 17.773438 10.238281 L 17.746094 10.230469 L 17.742188 10.230469 C 17.277344 10.089844 16.65625 9.960938 16.035156 9.808594 L 15.421875 9.644531 L 15.125 9.554688 C 13.753906 9.097656 12.777344 8.238281 12.214844 6.992188 L 12.109375 6.738281 L 12.011719 6.46875 C 11.808594 5.84375 11.75 5.285156 11.730469 4.953125 L 11.726562 4.679688 L 11.726562 4.570312 C 11.734375 4.0625 11.785156 3.582031 11.84375 3.183594 L 11.902344 2.816406 L 11.914062 2.761719 L 11.917969 2.761719 L 11.980469 2.773438 L 11.980469 2.765625 L 11.984375 2.765625 L 11.984375 2.863281 C 11.984375 3.097656 11.992188 3.316406 12 3.492188 L 12.003906 3.554688 L 12.027344 3.410156 C 12.042969 3.308594 12.054688 3.203125 12.066406 3.101562 C 12.085938 2.890625 12.132812 2.640625 12.140625 2.433594 C 12.144531 2.355469 12.148438 2.273438 12.148438 2.195312 L 12.203125 2.164062 C 12.246094 2.191406 12.253906 2.292969 12.257812 2.300781 C 12.277344 2.398438 12.316406 3.078125 12.328125 3.3125 L 12.328125 3.402344 L 12.34375 3.296875 Z M 12.496094 3.316406 L 12.484375 3.074219 C 12.46875 2.921875 12.441406 2.832031 12.433594 2.832031 L 12.433594 2.875 C 12.4375 3.019531 12.402344 3.160156 12.378906 3.300781 L 12.316406 3.773438 L 12.308594 3.734375 C 12.300781 3.6875 12.300781 3.640625 12.296875 3.597656 C 12.296875 3.503906 12.296875 3.410156 12.289062 3.316406 C 12.277344 3.082031 12.238281 2.394531 12.21875 2.308594 C 12.214844 2.285156 12.207031 2.207031 12.183594 2.195312 C 12.183594 2.273438 12.183594 2.355469 12.179688 2.4375 C 12.167969 2.644531 12.121094 2.894531 12.101562 3.105469 C 12.082031 3.3125 12.042969 3.519531 12.011719 3.726562 L 11.992188 3.871094 L 11.988281 3.867188 C 11.976562 3.742188 11.945312 3.328125 11.949219 2.863281 L 11.949219 2.765625 L 11.9375 2.820312 C 11.863281 3.269531 11.769531 3.894531 11.761719 4.570312 L 11.761719 4.675781 C 11.757812 4.886719 11.769531 5.757812 12.144531 6.722656 C 12.714844 8.1875 13.820312 9.160156 15.429688 9.609375 C 16.230469 9.835938 17.128906 10.007812 17.753906 10.195312 C 17.753906 10.195312 18.445312 10.394531 18.863281 10.71875 C 18.863281 10.71875 18.410156 10.625 17.945312 10.566406 C 18.28125 11.0625 18.84375 11.390625 19.484375 11.390625 C 19.972656 11.390625 20.414062 11.203125 20.742188 10.894531 C 20.664062 10.949219 20.589844 10.992188 20.53125 11.023438 C 20.371094 11.097656 20.214844 11.125 20.097656 11.132812 C 19.835938 11.21875 19.570312 11.179688 19.5 11.167969 L 19.515625 11.164062 C 20.3125 11.027344 21.054688 10.417969 20.972656 9.488281 C 20.9375 9.09375 20.816406 8.667969 20.566406 8.402344 C 20.878906 8.667969 21.089844 9.046875 21.128906 9.484375 C 21.148438 9.703125 21.125 9.910156 21.066406 10.105469 C 21.164062 9.886719 21.226562 9.648438 21.226562 9.390625 C 21.285156 9.664062 21.265625 9.898438 21.199219 10.097656 C 21.28125 9.902344 21.324219 9.6875 21.328125 9.460938 L 21.339844 9.535156 C 21.339844 9.398438 21.328125 9.269531 21.300781 9.144531 L 21.300781 9.125 C 21.195312 8.429688 20.6875 7.769531 20.039062 7.480469 C 19.84375 7.378906 19.253906 7.164062 18.617188 7.105469 C 18.328125 7.070312 18.015625 7.074219 17.636719 7.117188 C 17.46875 7.132812 17.304688 7.15625 17.140625 7.175781 C 16.277344 7.285156 15.457031 7.390625 14.582031 6.898438 C 13.496094 6.351562 12.691406 5.128906 12.539062 3.789062 L 12.523438 3.644531 C 12.511719 3.550781 12.503906 3.457031 12.5 3.359375 Z M 12.496094 3.316406 "/>
<path style=" stroke:none;fill-rule:nonzero;fill:rgb(100%,77.254902%,18.431373%);fill-opacity:1;" d="M 19.054688 19.679688 C 18.894531 20.105469 18.785156 20.503906 18.746094 20.660156 L 18.691406 20.679688 C 18.21875 20.394531 17.480469 20.015625 17.203125 19.585938 C 16.835938 19.011719 16.84375 18.273438 16.84375 18.269531 L 16.902344 18.242188 C 17.074219 18.394531 17.53125 18.652344 17.949219 18.882812 C 18.292969 19.074219 18.851562 19.488281 19.042969 19.636719 Z M 19.023438 19.664062 C 18.828125 19.519531 18.273438 19.105469 17.929688 18.914062 C 17.511719 18.683594 17.058594 18.429688 16.878906 18.269531 C 16.878906 18.269531 16.875 19.003906 17.234375 19.566406 C 17.503906 19.980469 18.234375 20.363281 18.710938 20.648438 C 18.75 20.492188 18.863281 20.09375 19.023438 19.664062 Z M 18.191406 18.167969 L 18.195312 18.140625 C 18.257812 17.890625 18.359375 17.589844 18.503906 17.261719 C 18.832031 16.515625 19.660156 15.609375 19.660156 15.609375 L 19.714844 15.605469 C 19.996094 15.898438 20.363281 16.492188 20.214844 17.265625 C 20.070312 18.039062 19.703125 18.304688 19.335938 19.027344 C 19.273438 19.148438 19.214844 19.28125 19.160156 19.417969 L 19.101562 19.429688 C 18.875 19.25 18.457031 18.988281 18.109375 18.773438 L 18.09375 18.742188 C 18.097656 18.671875 18.109375 18.582031 18.125 18.480469 Z M 18.625 17.097656 L 18.535156 17.273438 C 18.246094 17.933594 18.144531 18.460938 18.128906 18.742188 C 18.476562 18.960938 18.894531 19.21875 19.125 19.402344 C 19.179688 19.269531 19.242188 19.136719 19.304688 19.007812 C 19.675781 18.28125 20.035156 18.019531 20.179688 17.261719 C 20.324219 16.5 19.964844 15.917969 19.6875 15.632812 C 19.6875 15.632812 19.054688 16.324219 18.679688 16.992188 Z M 16.539062 10.136719 L 16.558594 10.140625 L 16.554688 10.210938 L 16.53125 10.214844 L 15.96875 10.328125 C 15.785156 10.371094 15.605469 10.414062 15.441406 10.457031 L 15.394531 10.417969 C 15.410156 10.289062 15.425781 10.15625 15.449219 10.027344 L 15.449219 10.023438 L 15.46875 9.917969 L 15.515625 9.890625 C 15.65625 9.921875 15.804688 9.957031 15.949219 9.992188 L 16.347656 10.085938 Z M 16.53125 10.167969 L 16.335938 10.121094 C 16.207031 10.089844 16.074219 10.058594 15.941406 10.027344 C 15.796875 9.992188 15.648438 9.957031 15.503906 9.921875 L 15.484375 10.03125 C 15.460938 10.160156 15.445312 10.292969 15.429688 10.421875 C 15.757812 10.335938 16.148438 10.246094 16.523438 10.179688 L 16.550781 10.175781 Z M 16.53125 10.167969 "/>
<path style=" stroke:none;fill-rule:nonzero;fill:rgb(100%,100%,100%);fill-opacity:1;" d="M 16.917969 6.25 L 16.714844 6.539062 L 16.664062 6.546875 C 16.394531 6.347656 15.972656 5.976562 15.710938 5.46875 L 15.613281 5.242188 L 15.507812 4.929688 C 15.308594 4.207031 15.34375 3.535156 15.324219 3.078125 L 15.308594 2.875 L 15.238281 2.359375 L 15.242188 2.359375 L 15.308594 2.351562 L 15.304688 2.347656 L 15.308594 2.347656 L 15.414062 2.726562 L 15.410156 2.667969 C 15.394531 2.484375 15.367188 2.292969 15.335938 2.136719 L 15.398438 2.121094 L 15.402344 2.117188 C 15.402344 2.117188 15.535156 2.484375 15.621094 2.832031 L 15.625 2.851562 L 15.628906 2.816406 C 15.628906 2.695312 15.625 2.554688 15.613281 2.410156 L 15.683594 2.398438 C 15.703125 2.472656 15.726562 2.550781 15.746094 2.628906 L 15.796875 2.875 C 15.980469 3.894531 16.277344 4.597656 17.492188 5.347656 L 17.503906 5.398438 C 17.394531 5.566406 17.257812 5.761719 17.121094 5.960938 Z M 15.929688 5.753906 L 15.996094 5.847656 C 16.226562 6.148438 16.496094 6.378906 16.683594 6.519531 C 16.933594 6.164062 17.253906 5.710938 17.472656 5.378906 C 16.25 4.625 15.945312 3.90625 15.761719 2.878906 C 15.730469 2.714844 15.691406 2.558594 15.648438 2.410156 C 15.679688 2.796875 15.652344 3.160156 15.652344 3.160156 C 15.605469 2.785156 15.367188 2.128906 15.367188 2.128906 C 15.464844 2.550781 15.484375 3.230469 15.484375 3.230469 C 15.457031 2.992188 15.355469 2.617188 15.273438 2.355469 C 15.304688 2.546875 15.328125 2.722656 15.34375 2.867188 C 15.40625 3.375 15.285156 4.28125 15.644531 5.226562 C 15.703125 5.382812 15.777344 5.523438 15.863281 5.65625 Z M 15.929688 5.753906 "/>
<path style=" stroke:none;fill-rule:nonzero;fill:rgb(34.509804%,18.039216%,56.470588%);fill-opacity:1;" d="M 21.601562 11.066406 L 21.570312 11.1875 C 21.339844 12.023438 20.578125 12.636719 19.667969 12.636719 C 18.992188 12.636719 18.394531 12.292969 18.039062 11.769531 L 17.914062 11.5625 L 17.3125 11.679688 L 16.78125 11.796875 L 16.605469 11.84375 C 16.359375 11.90625 15.917969 12.023438 15.617188 12.117188 L 15.390625 12.191406 L 15.378906 12.195312 L 15.375 12.191406 L 15.359375 12.199219 C 15.347656 12.199219 15.335938 12.191406 15.324219 12.175781 C 15.3125 12.15625 15.308594 12.128906 15.304688 12.074219 C 15.296875 12.015625 15.292969 11.925781 15.292969 11.785156 L 15.3125 11.199219 L 15.355469 10.695312 L 15.382812 10.664062 C 15.554688 10.621094 15.75 10.570312 15.949219 10.527344 L 16.566406 10.402344 L 17.199219 10.308594 L 17.210938 10.308594 C 17.328125 10.339844 17.441406 10.371094 17.550781 10.402344 L 17.570312 10.421875 C 17.914062 11.160156 18.667969 11.644531 19.484375 11.644531 L 19.59375 11.640625 L 19.625 11.640625 L 19.699219 11.632812 L 19.703125 11.632812 L 19.746094 11.628906 L 19.804688 11.621094 L 19.855469 11.613281 L 19.910156 11.601562 L 20.011719 11.578125 L 20.0625 11.5625 L 20.109375 11.550781 L 20.113281 11.550781 L 20.164062 11.53125 L 20.207031 11.519531 L 20.207031 11.515625 L 20.265625 11.496094 L 20.304688 11.480469 L 20.363281 11.453125 L 20.398438 11.4375 L 20.457031 11.40625 L 20.488281 11.390625 L 20.546875 11.355469 L 20.574219 11.339844 L 20.636719 11.300781 L 20.660156 11.289062 L 20.722656 11.242188 L 20.742188 11.230469 L 20.804688 11.179688 L 20.820312 11.167969 L 20.886719 11.113281 L 20.898438 11.101562 L 20.960938 11.042969 L 21.035156 10.96875 L 21.039062 10.960938 L 21.042969 10.960938 L 21.101562 10.890625 L 21.105469 10.886719 L 21.167969 10.808594 L 21.226562 10.726562 L 21.226562 10.722656 C 21.246094 10.695312 21.265625 10.667969 21.285156 10.640625 C 21.441406 10.382812 21.546875 10.085938 21.582031 9.773438 L 21.59375 9.667969 L 21.59375 9.664062 C 21.59375 9.632812 21.597656 9.597656 21.597656 9.5625 L 21.597656 9.558594 L 21.628906 9.523438 C 21.777344 9.507812 22.375 9.445312 23.015625 9.417969 L 23.652344 9.402344 L 24.300781 9.425781 C 24.902344 9.460938 25.359375 9.53125 25.53125 9.5625 L 25.558594 9.585938 C 25.585938 9.648438 25.609375 9.714844 25.628906 9.773438 L 25.636719 9.792969 L 25.679688 9.917969 L 25.691406 9.949219 L 25.738281 10.089844 L 25.765625 10.1875 L 25.769531 10.1875 L 25.777344 10.222656 L 25.804688 10.308594 L 25.8125 10.34375 L 25.835938 10.421875 L 25.84375 10.457031 L 25.863281 10.527344 L 25.871094 10.558594 L 25.886719 10.625 L 25.894531 10.652344 L 25.90625 10.710938 L 25.910156 10.734375 L 25.921875 10.785156 L 25.921875 10.789062 L 25.925781 10.808594 L 25.929688 10.808594 L 25.953125 10.9375 L 25.957031 10.945312 L 25.914062 10.984375 C 24.796875 10.835938 23.90625 10.824219 22.3125 10.972656 L 21.605469 11.046875 Z M 21.039062 11.015625 L 20.988281 11.066406 L 20.921875 11.128906 L 20.910156 11.140625 L 20.84375 11.195312 L 20.828125 11.207031 L 20.761719 11.257812 L 20.742188 11.273438 L 20.679688 11.316406 L 20.65625 11.332031 L 20.59375 11.371094 L 20.566406 11.386719 L 20.503906 11.421875 L 20.472656 11.441406 L 20.410156 11.46875 L 20.378906 11.484375 L 20.316406 11.511719 L 20.21875 11.550781 L 20.175781 11.566406 L 20.121094 11.585938 L 20.074219 11.597656 L 20.019531 11.613281 L 19.917969 11.636719 L 19.859375 11.648438 L 19.8125 11.65625 L 19.75 11.664062 L 19.703125 11.667969 L 19.628906 11.675781 L 19.59375 11.679688 C 19.558594 11.679688 19.523438 11.679688 19.484375 11.679688 C 18.652344 11.679688 17.886719 11.1875 17.539062 10.4375 C 17.433594 10.40625 17.320312 10.375 17.203125 10.34375 C 17.003906 10.367188 16.792969 10.398438 16.570312 10.4375 C 16.160156 10.507812 15.738281 10.609375 15.390625 10.699219 C 15.375 10.882812 15.351562 11.175781 15.347656 11.199219 C 15.324219 11.71875 15.328125 11.957031 15.339844 12.070312 C 15.347656 12.179688 15.363281 12.164062 15.363281 12.164062 C 15.664062 12.046875 16.773438 11.761719 16.773438 11.761719 C 17.097656 11.6875 17.480469 11.605469 17.933594 11.519531 C 18.25 12.160156 18.90625 12.601562 19.667969 12.601562 C 20.621094 12.601562 21.410156 11.914062 21.574219 11.011719 C 23.652344 10.785156 24.636719 10.78125 25.917969 10.949219 L 25.917969 10.941406 L 25.898438 10.859375 L 25.890625 10.816406 L 25.886719 10.792969 L 25.875 10.742188 L 25.871094 10.71875 L 25.859375 10.664062 L 25.828125 10.539062 L 25.808594 10.464844 L 25.800781 10.433594 L 25.777344 10.355469 L 25.769531 10.320312 L 25.742188 10.234375 L 25.734375 10.195312 L 25.65625 9.960938 L 25.648438 9.929688 L 25.601562 9.808594 L 25.597656 9.789062 C 25.574219 9.726562 25.550781 9.664062 25.523438 9.597656 C 25.292969 9.554688 24.5625 9.445312 23.652344 9.441406 C 22.828125 9.433594 21.828125 9.539062 21.632812 9.558594 L 21.632812 9.5625 C 21.632812 9.597656 21.632812 9.632812 21.628906 9.667969 L 21.628906 9.671875 C 21.625 9.707031 21.625 9.742188 21.621094 9.777344 C 21.582031 10.097656 21.476562 10.398438 21.3125 10.660156 C 21.296875 10.6875 21.277344 10.71875 21.257812 10.746094 L 21.199219 10.828125 L 21.195312 10.832031 L 21.132812 10.910156 L 21.128906 10.914062 L 21.066406 10.984375 L 21.058594 10.992188 Z M 21.039062 11.015625 "/>
<path style=" stroke:none;fill-rule:nonzero;fill:rgb(97.254902%,79.215686%,87.058824%);fill-opacity:1;" d="M 22.847656 11.121094 L 22.835938 11.140625 L 22.855469 11.125 Z M 22.585938 17.097656 L 22.570312 17.117188 C 22.570312 17.117188 21.914062 17.25 21.511719 16.789062 L 21.433594 16.6875 L 21.308594 16.472656 C 21.054688 15.964844 21.066406 15.441406 21.09375 15.191406 L 21.105469 15.105469 L 20.984375 15.148438 C 20.902344 15.167969 20.804688 15.183594 20.707031 15.179688 L 20.609375 15.164062 L 20.542969 15.136719 C 20.484375 15.105469 20.441406 15.058594 20.40625 15.007812 L 20.414062 14.960938 C 20.804688 14.613281 21.21875 14.285156 21.628906 13.816406 L 21.664062 13.804688 C 21.773438 13.828125 21.875 13.855469 21.960938 13.878906 L 22.179688 13.9375 L 22.269531 13.96875 C 22.476562 14.0625 22.679688 14.238281 22.738281 14.4375 C 22.773438 14.550781 22.796875 14.785156 22.8125 14.992188 L 22.820312 15.136719 L 22.84375 15.042969 C 22.90625 14.753906 22.917969 14.589844 22.925781 14.484375 C 22.9375 14.363281 22.929688 14.085938 22.753906 13.859375 L 22.667969 13.769531 L 22.605469 13.722656 C 22.433594 13.613281 22.097656 13.507812 21.949219 13.425781 L 21.9375 13.371094 C 22.480469 12.625 22.679688 11.523438 22.722656 11.261719 L 22.730469 11.207031 L 22.730469 11.171875 L 22.761719 11.136719 L 22.835938 11.125 L 22.847656 11.121094 L 22.859375 11.125 L 22.871094 11.113281 C 22.984375 11.109375 23.394531 11.058594 23.511719 11.054688 L 23.546875 11.105469 L 23.523438 11.1875 C 23.488281 11.324219 23.433594 11.605469 23.488281 11.855469 L 23.507812 11.917969 L 23.539062 11.902344 C 23.675781 11.828125 24 11.6875 24.417969 11.71875 C 24.972656 11.757812 25.839844 12.015625 26.195312 11.875 L 26.238281 11.894531 C 26.238281 11.898438 26.367188 12.183594 26.394531 12.445312 L 26.398438 12.558594 C 26.394531 12.757812 26.4375 12.90625 26.5 12.996094 L 26.5625 13.066406 L 26.667969 13.125 L 26.769531 13.171875 L 26.828125 13.207031 L 26.855469 13.234375 C 26.910156 13.308594 26.898438 13.445312 26.871094 13.546875 C 26.835938 13.6875 26.722656 13.707031 26.617188 13.679688 C 26.539062 13.660156 26.085938 13.601562 25.597656 13.691406 L 25.554688 13.664062 C 25.53125 13.574219 25.472656 13.347656 25.589844 13.226562 C 25.644531 13.167969 25.714844 13.136719 25.789062 13.117188 L 25.851562 13.105469 L 25.820312 13.097656 C 25.78125 13.089844 25.742188 13.085938 25.707031 13.085938 C 25.585938 13.085938 25.476562 13.148438 25.414062 13.234375 L 25.363281 13.320312 L 25.347656 13.402344 C 25.34375 13.5 25.363281 13.632812 25.378906 13.707031 L 25.351562 13.746094 C 24.820312 13.902344 24.058594 14.320312 23.429688 15.125 C 22.835938 15.886719 22.644531 16.820312 22.605469 17.039062 L 22.597656 17.085938 Z M 22.3125 17.097656 C 22.460938 17.101562 22.5625 17.082031 22.5625 17.082031 C 22.5625 17.082031 22.714844 15.984375 23.402344 15.101562 C 24.035156 14.292969 24.804688 13.871094 25.34375 13.714844 C 25.324219 13.613281 25.289062 13.40625 25.328125 13.308594 C 25.378906 13.171875 25.527344 13.050781 25.707031 13.050781 C 25.886719 13.050781 26.089844 13.148438 26.089844 13.148438 C 25.996094 13.128906 25.746094 13.113281 25.617188 13.25 C 25.519531 13.351562 25.5625 13.5625 25.589844 13.652344 C 26.085938 13.5625 26.539062 13.625 26.625 13.644531 C 26.71875 13.667969 26.804688 13.652344 26.835938 13.539062 C 26.867188 13.421875 26.867188 13.28125 26.804688 13.234375 C 26.742188 13.1875 26.640625 13.171875 26.539062 13.09375 C 26.4375 13.015625 26.355469 12.828125 26.363281 12.554688 C 26.371094 12.285156 26.207031 11.910156 26.207031 11.910156 C 25.832031 12.058594 24.960938 11.792969 24.414062 11.753906 C 23.871094 11.714844 23.488281 11.972656 23.488281 11.972656 C 23.339844 11.597656 23.511719 11.089844 23.511719 11.089844 C 23.398438 11.09375 22.988281 11.144531 22.871094 11.148438 C 22.871094 11.15625 22.828125 11.164062 22.765625 11.171875 L 22.765625 11.207031 C 22.765625 11.207031 22.59375 12.53125 21.964844 13.394531 C 22.128906 13.484375 22.542969 13.609375 22.691406 13.742188 C 22.960938 13.988281 22.976562 14.34375 22.960938 14.484375 C 22.949219 14.628906 22.929688 14.878906 22.800781 15.378906 C 22.800781 15.378906 22.765625 14.660156 22.703125 14.449219 C 22.640625 14.238281 22.398438 14.042969 22.167969 13.972656 C 22.0625 13.9375 21.871094 13.886719 21.65625 13.839844 C 21.242188 14.3125 20.828125 14.640625 20.4375 14.988281 C 20.476562 15.050781 20.535156 15.105469 20.617188 15.128906 C 20.855469 15.1875 21.152344 15.046875 21.152344 15.046875 C 21.152344 15.046875 20.960938 15.921875 21.464844 16.667969 C 21.699219 17.015625 22.070312 17.089844 22.3125 17.097656 Z M 22.3125 17.097656 "/>
<path style=" stroke:none;fill-rule:nonzero;fill:rgb(100%,77.254902%,18.431373%);fill-opacity:1;" d="M 26.726562 11.371094 L 26.695312 11.414062 C 26.585938 11.542969 26.429688 11.65625 26.195312 11.703125 L 26.0625 11.71875 L 25.816406 11.730469 C 25.304688 11.730469 25.160156 11.585938 24.699219 11.527344 L 24.6875 11.460938 C 24.6875 11.460938 24.730469 11.433594 24.808594 11.402344 L 24.9375 11.355469 L 24.847656 11.351562 C 24.714844 11.347656 24.558594 11.351562 24.410156 11.371094 L 24.285156 11.398438 L 24.160156 11.433594 C 23.890625 11.523438 23.773438 11.640625 23.769531 11.644531 L 23.707031 11.625 L 23.707031 11.621094 C 23.703125 11.578125 23.664062 11.210938 23.871094 11.078125 C 24.03125 10.96875 24.453125 10.976562 24.746094 10.996094 L 24.984375 11.019531 L 25.238281 11.050781 C 25.523438 11.085938 25.929688 11.125 26.210938 11.09375 L 26.320312 11.078125 L 26.535156 11.023438 C 26.71875 10.976562 26.820312 10.933594 26.84375 10.921875 L 26.851562 10.917969 L 26.902344 10.957031 C 26.902344 10.957031 26.882812 11.113281 26.785156 11.285156 Z M 25.15625 11.339844 C 24.867188 11.394531 24.707031 11.492188 24.707031 11.492188 C 25.246094 11.5625 25.339844 11.734375 26.058594 11.683594 C 26.777344 11.632812 26.867188 10.953125 26.867188 10.953125 C 26.867188 10.953125 26.699219 11.03125 26.328125 11.113281 C 25.957031 11.195312 25.207031 11.082031 24.980469 11.054688 C 24.757812 11.03125 24.082031 10.980469 23.890625 11.105469 C 23.699219 11.234375 23.742188 11.621094 23.742188 11.621094 C 23.742188 11.621094 23.898438 11.460938 24.273438 11.363281 C 24.65625 11.265625 25.15625 11.339844 25.15625 11.339844 Z M 17.125 6.34375 L 17.253906 6.15625 L 17.609375 5.667969 C 17.722656 5.511719 17.8125 5.355469 17.878906 5.214844 C 18.058594 4.835938 18.09375 4.535156 18.09375 4.5 L 18.097656 4.496094 L 18.132812 4.464844 C 19.925781 4.546875 22.070312 5.332031 23.804688 6.976562 C 24.574219 7.707031 25.082031 8.566406 25.414062 9.296875 L 25.375 9.347656 C 25.058594 9.296875 24.394531 9.21875 23.652344 9.214844 C 22.816406 9.207031 21.816406 9.320312 21.625 9.34375 L 21.585938 9.316406 L 21.585938 9.3125 L 21.574219 9.226562 L 21.574219 9.222656 L 21.570312 9.199219 L 21.558594 9.132812 L 21.558594 9.128906 C 21.453125 8.324219 20.855469 7.550781 20.097656 7.230469 C 19.824219 7.101562 19.242188 6.910156 18.640625 6.855469 C 18.335938 6.820312 18.011719 6.824219 17.613281 6.867188 C 17.441406 6.882812 17.273438 6.90625 17.109375 6.925781 C 16.992188 6.941406 16.875 6.957031 16.757812 6.96875 L 16.726562 6.914062 L 16.734375 6.898438 L 16.792969 6.824219 Z M 17.921875 5.207031 L 17.910156 5.230469 C 17.84375 5.375 17.753906 5.53125 17.636719 5.6875 C 17.46875 5.914062 17.132812 6.378906 16.824219 6.84375 C 16.8125 6.859375 16.753906 6.933594 16.753906 6.933594 C 16.871094 6.921875 16.988281 6.90625 17.105469 6.890625 C 17.269531 6.871094 17.4375 6.847656 17.609375 6.832031 C 18.007812 6.789062 18.339844 6.785156 18.644531 6.820312 C 19.253906 6.875 19.835938 7.066406 20.113281 7.195312 C 20.882812 7.523438 21.488281 8.304688 21.59375 9.125 L 21.609375 9.21875 L 21.621094 9.308594 C 21.8125 9.285156 22.816406 9.171875 23.652344 9.179688 C 24.398438 9.183594 25.0625 9.261719 25.378906 9.3125 C 25.054688 8.582031 24.546875 7.726562 23.78125 7.003906 C 22.054688 5.363281 19.914062 4.582031 18.132812 4.5 C 18.132812 4.5 18.109375 4.746094 17.976562 5.082031 Z M 19 22.175781 C 18.996094 22.175781 18.585938 21.960938 18.296875 21.542969 C 18.070312 21.214844 18.050781 20.8125 18.050781 20.65625 L 18.105469 20.625 C 18.390625 20.789062 18.714844 20.949219 18.910156 21.070312 C 19.121094 21.203125 19.292969 21.332031 19.421875 21.441406 L 19.429688 21.484375 C 19.226562 21.84375 19.046875 22.160156 19.046875 22.160156 Z M 19.015625 22.144531 C 19.015625 22.144531 19.195312 21.824219 19.398438 21.46875 C 19.273438 21.359375 19.101562 21.230469 18.890625 21.101562 C 18.699219 20.984375 18.375 20.820312 18.085938 20.65625 C 18.085938 20.8125 18.105469 21.203125 18.328125 21.523438 C 18.609375 21.933594 19.015625 22.144531 19.015625 22.144531 Z M 8.660156 17.097656 L 8.648438 17.105469 L 8.609375 17.046875 C 9.253906 16.335938 10.558594 15.070312 11.625 14.351562 C 14.839844 12.191406 17.5 11.839844 17.699219 11.800781 L 17.726562 11.808594 L 17.785156 11.859375 L 17.792969 11.867188 C 17.820312 11.90625 17.847656 11.945312 17.875 11.984375 L 17.855469 12.042969 C 16.519531 12.40625 13.65625 13.617188 11.988281 14.789062 C 11.269531 15.289062 10.480469 16.089844 10 16.582031 L 9.984375 16.589844 C 9.75 16.664062 9.484375 16.761719 9.246094 16.855469 Z M 17.847656 12.007812 C 17.820312 11.96875 17.789062 11.925781 17.761719 11.886719 L 17.703125 11.835938 C 17.507812 11.875 14.855469 12.222656 11.644531 14.382812 C 10.582031 15.097656 9.277344 16.363281 8.632812 17.070312 C 8.910156 16.949219 9.503906 16.703125 9.972656 16.554688 C 10.453125 16.0625 11.242188 15.265625 11.964844 14.757812 C 13.640625 13.585938 16.503906 12.371094 17.847656 12.007812 Z M 24.425781 17.097656 L 24.414062 17.128906 C 24.351562 17.257812 24.316406 17.335938 24.316406 17.335938 L 24.25 17.320312 C 24.382812 16.410156 24.796875 15.671875 25.089844 15.246094 L 25.242188 15.035156 L 25.195312 15.070312 C 24.640625 15.503906 24.226562 16.273438 23.996094 17.777344 L 23.933594 18.136719 C 23.617188 19.847656 23.121094 20.519531 23.117188 20.523438 L 23.054688 20.492188 L 23.113281 20.292969 L 23.113281 20.289062 L 23.1875 19.917969 C 23.34375 19.09375 23.332031 18.570312 23.503906 17.445312 C 23.625 16.640625 23.890625 16.027344 24.074219 15.683594 L 24.152344 15.550781 L 24.070312 15.625 C 23.535156 16.167969 23.230469 17.132812 23.113281 18.476562 C 22.964844 20.175781 22.558594 20.78125 22.554688 20.785156 L 22.488281 20.753906 C 22.734375 19.917969 22.628906 18.980469 22.667969 18.347656 C 22.707031 17.71875 22.734375 16.859375 23.089844 16.042969 C 23.402344 15.328125 24.074219 14.636719 24.816406 14.210938 L 25.140625 14.042969 L 25.300781 13.976562 C 26.09375 13.671875 26.707031 13.84375 26.710938 13.84375 L 26.726562 13.851562 C 27.1875 14.285156 27.21875 14.742188 27.21875 14.75 L 27.191406 14.785156 L 27.160156 14.792969 C 27.03125 14.832031 26.527344 14.988281 25.921875 15.34375 L 25.65625 15.507812 L 25.546875 15.589844 C 25.128906 15.90625 24.796875 16.410156 24.585938 16.792969 Z M 24.324219 17.097656 L 24.285156 17.324219 C 24.285156 17.324219 24.808594 16.023438 25.636719 15.476562 C 26.464844 14.933594 27.179688 14.75 27.179688 14.75 C 27.179688 14.75 27.152344 14.304688 26.699219 13.878906 C 26.699219 13.878906 26.015625 13.6875 25.15625 14.078125 C 24.292969 14.46875 23.476562 15.25 23.121094 16.058594 C 22.769531 16.867188 22.742188 17.722656 22.703125 18.351562 C 22.664062 18.980469 22.769531 19.917969 22.523438 20.765625 C 22.523438 20.765625 22.929688 20.164062 23.078125 18.472656 C 23.210938 16.9375 23.589844 15.878906 24.296875 15.386719 C 24.296875 15.386719 23.730469 16.167969 23.539062 17.453125 C 23.34375 18.734375 23.382812 19.234375 23.148438 20.300781 L 23.085938 20.5 C 23.085938 20.5 23.652344 19.742188 23.957031 17.773438 C 24.226562 16.050781 24.730469 15.277344 25.421875 14.871094 C 25.421875 14.871094 24.609375 15.757812 24.332031 17.058594 Z M 24.324219 17.097656 "/>
<path style=" stroke:none;fill-rule:nonzero;fill:rgb(97.254902%,79.215686%,87.058824%);fill-opacity:1;" d="M 21.414062 17.097656 L 21.476562 17.152344 C 21.671875 17.296875 21.90625 17.390625 22.203125 17.390625 C 22.285156 17.390625 22.378906 17.390625 22.484375 17.386719 L 22.519531 17.429688 C 22.476562 17.714844 22.453125 18.027344 22.441406 18.253906 L 22.417969 18.285156 C 22.296875 18.324219 22.1875 18.363281 22.105469 18.398438 C 21.835938 18.511719 21.449219 18.703125 21.128906 18.863281 L 20.558594 19.160156 L 20.554688 19.160156 L 20.523438 19.179688 L 20.46875 19.152344 C 20.398438 18.652344 20.246094 18.230469 20.207031 18.132812 L 20.199219 18.113281 L 20.199219 18.085938 C 20.199219 18.085938 20.222656 18.027344 20.253906 17.933594 C 20.335938 17.679688 20.480469 17.160156 20.449219 16.753906 L 20.425781 16.585938 L 20.359375 16.335938 C 20.199219 15.785156 19.992188 15.480469 19.964844 15.441406 L 19.960938 15.4375 L 19.964844 15.390625 L 20.0625 15.289062 L 20.117188 15.292969 C 20.273438 15.507812 20.53125 15.542969 20.589844 15.546875 L 20.601562 15.546875 L 20.636719 15.574219 L 20.644531 15.609375 C 20.679688 15.738281 20.808594 16.230469 20.988281 16.570312 L 21.070312 16.703125 L 21.167969 16.839844 C 21.230469 16.917969 21.296875 16.992188 21.367188 17.058594 Z M 22.410156 18.167969 L 22.433594 17.859375 C 22.445312 17.71875 22.460938 17.566406 22.484375 17.421875 C 22.382812 17.425781 22.285156 17.425781 22.203125 17.425781 C 21.644531 17.425781 21.296875 17.101562 21.039062 16.722656 C 20.78125 16.34375 20.601562 15.582031 20.601562 15.582031 C 20.601562 15.582031 20.277344 15.574219 20.089844 15.316406 L 19.992188 15.414062 C 19.992188 15.414062 20.28125 15.816406 20.460938 16.578125 C 20.597656 17.15625 20.234375 18.097656 20.234375 18.097656 C 20.234375 18.097656 20.421875 18.570312 20.503906 19.148438 L 20.539062 19.125 C 20.539062 19.125 21.546875 18.589844 22.089844 18.363281 C 22.175781 18.328125 22.285156 18.289062 22.40625 18.25 Z M 26.578125 17.378906 C 26.785156 17.386719 26.976562 17.375 27.058594 17.371094 L 27.101562 17.367188 L 27.128906 17.429688 C 27.03125 17.511719 26.804688 17.496094 26.691406 17.511719 C 26.5625 17.527344 25.816406 17.550781 24.902344 17.691406 C 24.738281 17.714844 24.558594 17.746094 24.371094 17.78125 L 24.332031 17.734375 C 24.390625 17.578125 24.445312 17.460938 24.511719 17.351562 L 24.542969 17.335938 L 24.550781 17.335938 C 25.222656 17.335938 26.304688 17.371094 26.578125 17.378906 Z M 26.578125 17.414062 C 26.304688 17.40625 25.222656 17.371094 24.550781 17.371094 L 24.542969 17.371094 C 24.476562 17.476562 24.421875 17.589844 24.363281 17.746094 C 24.550781 17.710938 24.730469 17.679688 24.898438 17.652344 C 25.8125 17.515625 26.5625 17.492188 26.683594 17.476562 C 26.808594 17.460938 27.027344 17.46875 27.105469 17.402344 C 27.105469 17.402344 26.851562 17.421875 26.578125 17.414062 Z M 27.304688 17.097656 L 27.277344 17.164062 C 27.265625 17.1875 27.25 17.203125 27.230469 17.21875 C 27.15625 17.273438 27.058594 17.265625 27.007812 17.261719 C 26.925781 17.257812 26.726562 17.257812 26.425781 17.230469 L 26.089844 17.195312 C 25.847656 17.167969 25.507812 17.148438 25.230469 17.136719 C 24.953125 17.121094 24.734375 17.117188 24.734375 17.117188 L 24.703125 17.070312 C 25.125 15.898438 26.589844 15.269531 26.589844 15.269531 L 26.640625 15.300781 C 26.660156 15.5625 26.523438 15.96875 26.453125 16.15625 L 26.433594 16.210938 L 26.570312 16.210938 C 26.675781 16.214844 26.8125 16.230469 26.914062 16.269531 C 27.113281 16.351562 27.234375 16.4375 27.308594 16.84375 C 27.324219 16.945312 27.324219 17.023438 27.3125 17.085938 Z M 25.238281 17.097656 L 25.675781 17.125 C 25.828125 17.132812 25.972656 17.144531 26.09375 17.160156 C 26.582031 17.21875 26.898438 17.222656 27.007812 17.226562 C 27.0625 17.230469 27.148438 17.234375 27.207031 17.1875 C 27.269531 17.144531 27.308594 17.046875 27.273438 16.847656 C 27.203125 16.449219 27.09375 16.378906 26.898438 16.304688 C 26.707031 16.226562 26.378906 16.246094 26.378906 16.246094 C 26.378906 16.246094 26.628906 15.636719 26.605469 15.300781 C 26.605469 15.300781 25.152344 15.929688 24.738281 17.082031 C 24.738281 17.082031 24.953125 17.085938 25.234375 17.097656 Z M 25.238281 17.097656 "/>
<path style=" stroke:none;fill-rule:nonzero;fill:rgb(100%,77.254902%,18.431373%);fill-opacity:1;" d="M 19.097656 20.933594 L 18.949219 20.835938 L 18.933594 20.796875 C 19.125 20.027344 19.570312 19.058594 19.753906 18.804688 C 19.8125 18.730469 19.910156 18.578125 19.96875 18.480469 L 20.03125 18.484375 C 20.089844 18.59375 20.25 18.878906 20.296875 19.238281 C 20.363281 19.761719 20.160156 20.328125 19.894531 20.808594 C 19.820312 20.945312 19.640625 21.109375 19.554688 21.265625 L 19.496094 21.269531 C 19.460938 21.230469 19.414062 21.183594 19.347656 21.128906 Z M 20 18.5 C 19.9375 18.597656 19.839844 18.75 19.785156 18.828125 C 19.601562 19.070312 19.15625 20.042969 18.964844 20.804688 C 19.023438 20.839844 19.074219 20.875 19.117188 20.902344 C 19.328125 21.050781 19.453125 21.167969 19.523438 21.246094 C 19.613281 21.082031 19.792969 20.917969 19.863281 20.789062 C 20.125 20.3125 20.328125 19.753906 20.261719 19.242188 C 20.21875 18.890625 20.058594 18.609375 20 18.5 Z M 19.25 22.066406 C 19.484375 21.644531 19.816406 21.199219 19.816406 21.195312 L 19.878906 21.207031 C 19.878906 21.207031 20.039062 21.695312 19.960938 22.179688 L 19.910156 22.386719 L 19.835938 22.582031 C 19.640625 23.03125 19.320312 23.386719 19.316406 23.386719 L 19.261719 23.386719 L 19.253906 23.375 C 19.226562 23.332031 19.125 23.203125 19.023438 23.101562 L 18.925781 23.019531 L 18.882812 22.992188 L 18.867188 22.949219 C 18.941406 22.742188 19.085938 22.359375 19.25 22.066406 Z M 19.28125 22.082031 C 19.121094 22.375 18.972656 22.757812 18.902344 22.960938 L 18.945312 22.988281 C 19.097656 23.089844 19.292969 23.363281 19.292969 23.363281 C 19.292969 23.363281 19.707031 22.898438 19.878906 22.375 C 20.046875 21.847656 19.84375 21.21875 19.84375 21.21875 C 19.84375 21.21875 19.511719 21.664062 19.28125 22.082031 Z M 17.613281 17.375 C 17.78125 16.71875 18.234375 16.183594 18.339844 16.097656 C 18.339844 16.097656 17.636719 17.039062 17.839844 18.515625 C 17.839844 18.515625 18.035156 17.304688 18.945312 16.117188 C 19.859375 14.929688 20.738281 14.371094 21.464844 13.484375 C 21.867188 12.992188 22.097656 12.515625 22.230469 12.089844 C 22.34375 11.773438 22.394531 11.460938 22.414062 11.234375 C 22.21875 11.25 22.03125 11.273438 21.84375 11.292969 L 21.839844 11.3125 C 21.648438 11.949219 21.285156 12.402344 20.699219 12.667969 C 19.941406 13.445312 18.804688 13.984375 18.171875 14.390625 C 17.054688 15.105469 16.871094 16.519531 16.871094 16.519531 C 16.992188 14.351562 18.324219 14.070312 19.777344 13.007812 L 19.910156 12.917969 L 19.863281 12.9375 C 19.683594 12.9375 19.3125 12.90625 19.140625 12.863281 C 18.980469 12.972656 18.828125 13.070312 18.683594 13.148438 C 17.921875 13.5625 17.394531 14.238281 17.394531 14.238281 C 17.601562 13.554688 18.082031 13.261719 18.804688 12.753906 C 18.535156 12.644531 18.234375 12.457031 18.023438 12.25 C 17.601562 12.472656 16.660156 13.039062 16.035156 13.632812 C 15.535156 14.105469 14.609375 14.773438 13.511719 15.289062 C 14.375 14.722656 15.828125 13.441406 16.335938 12.957031 C 16.335938 12.957031 14.425781 14.058594 13.878906 14.429688 C 13.878906 14.429688 14.589844 13.644531 15.46875 13.160156 C 15.46875 13.160156 13.527344 13.957031 12.40625 14.71875 C 11.828125 15.117188 10.941406 15.921875 10.429688 16.46875 C 10.640625 16.421875 11.441406 16.261719 11.652344 16.242188 C 13.089844 16.09375 14.660156 16.203125 16.039062 14.546875 L 16.101562 14.46875 C 15.984375 14.878906 15.933594 15.453125 15.957031 16.09375 C 16.003906 17.476562 17.078125 18.023438 17.496094 18.3125 C 17.484375 18.144531 17.460938 17.972656 17.613281 17.375 M 14.402344 16.132812 L 14.375 16.136719 C 14.375 16.136719 14.785156 16.351562 15.121094 16.351562 C 15.460938 16.351562 15.738281 16.242188 15.738281 16.242188 C 15.738281 16.242188 15.679688 15.449219 15.753906 15.1875 C 15.753906 15.1875 15.113281 15.957031 14.402344 16.132812 "/>
<path style=" stroke:none;fill-rule:nonzero;fill:rgb(100%,100%,100%);fill-opacity:1;" d="M 17.753906 10.195312 L 17.753906 10.191406 C 17.753906 10.191406 18.445312 10.394531 18.863281 10.71875 C 18.863281 10.71875 18.410156 10.625 17.945312 10.566406 C 18.28125 11.0625 18.84375 11.390625 19.484375 11.390625 C 19.972656 11.390625 20.414062 11.199219 20.742188 10.894531 C 20.664062 10.949219 20.589844 10.992188 20.53125 11.023438 C 20.371094 11.097656 20.21875 11.125 20.097656 11.132812 C 19.835938 11.21875 19.570312 11.179688 19.5 11.167969 L 19.515625 11.164062 C 20.3125 11.027344 21.058594 10.417969 20.972656 9.488281 C 20.9375 9.09375 20.816406 8.667969 20.566406 8.402344 C 20.878906 8.667969 21.089844 9.046875 21.128906 9.484375 C 21.148438 9.699219 21.125 9.910156 21.066406 10.105469 C 21.164062 9.886719 21.226562 9.648438 21.226562 9.390625 C 21.289062 9.664062 21.265625 9.898438 21.203125 10.097656 C 21.28125 9.902344 21.324219 9.6875 21.328125 9.460938 L 21.34375 9.539062 L 21.34375 9.535156 C 21.34375 9.398438 21.328125 9.269531 21.300781 9.144531 L 21.300781 9.125 C 21.195312 8.429688 20.6875 7.769531 20.039062 7.480469 C 19.84375 7.378906 19.253906 7.164062 18.617188 7.105469 C 18.328125 7.070312 18.015625 7.074219 17.636719 7.117188 C 17.46875 7.132812 17.304688 7.15625 17.140625 7.175781 C 16.277344 7.285156 15.457031 7.390625 14.582031 6.898438 C 13.496094 6.351562 12.691406 5.128906 12.539062 3.789062 L 12.523438 3.644531 C 12.5 3.457031 12.492188 3.261719 12.484375 3.074219 C 12.46875 2.90625 12.4375 2.816406 12.433594 2.835938 L 12.433594 2.875 C 12.4375 3.019531 12.402344 3.160156 12.378906 3.300781 C 12.351562 3.46875 12.320312 3.785156 12.316406 3.773438 L 12.308594 3.734375 C 12.300781 3.6875 12.300781 3.640625 12.296875 3.597656 C 12.296875 3.5 12.296875 3.410156 12.292969 3.316406 C 12.277344 3.082031 12.238281 2.394531 12.222656 2.308594 C 12.214844 2.285156 12.207031 2.207031 12.183594 2.195312 C 12.1875 2.273438 12.183594 2.355469 12.179688 2.4375 C 12.167969 2.644531 12.121094 2.894531 12.101562 3.101562 C 12.082031 3.3125 12.046875 3.519531 12.015625 3.726562 C 12.003906 3.785156 11.992188 3.898438 11.992188 3.882812 L 11.988281 3.871094 C 11.976562 3.742188 11.945312 3.328125 11.949219 2.863281 L 11.949219 2.765625 L 11.9375 2.820312 C 11.863281 3.269531 11.769531 3.894531 11.761719 4.570312 L 11.761719 4.675781 C 11.757812 4.886719 11.769531 5.761719 12.144531 6.722656 C 12.714844 8.1875 13.820312 9.160156 15.429688 9.609375 C 16.230469 9.835938 17.128906 10.007812 17.753906 10.195312 "/>
<path style=" stroke:none;fill-rule:nonzero;fill:rgb(100%,77.254902%,18.431373%);fill-opacity:1;" d="M 19.023438 19.664062 C 18.828125 19.519531 18.273438 19.105469 17.929688 18.914062 C 17.511719 18.683594 17.058594 18.429688 16.878906 18.269531 C 16.878906 18.269531 16.875 19.003906 17.234375 19.566406 C 17.503906 19.980469 18.234375 20.363281 18.710938 20.648438 C 18.75 20.492188 18.863281 20.09375 19.023438 19.664062 M 18.128906 18.742188 C 18.476562 18.960938 18.894531 19.21875 19.125 19.402344 C 19.179688 19.269531 19.242188 19.136719 19.304688 19.007812 C 19.675781 18.28125 20.039062 18.019531 20.179688 17.261719 C 20.324219 16.5 19.964844 15.917969 19.6875 15.632812 C 19.6875 15.632812 18.859375 16.539062 18.535156 17.273438 C 18.246094 17.933594 18.144531 18.460938 18.128906 18.742188 M 16.53125 10.167969 L 16.335938 10.121094 C 16.207031 10.089844 16.074219 10.058594 15.941406 10.027344 C 15.796875 9.992188 15.648438 9.957031 15.503906 9.921875 L 15.484375 10.03125 C 15.460938 10.160156 15.445312 10.292969 15.429688 10.421875 C 15.757812 10.335938 16.148438 10.246094 16.523438 10.179688 L 16.550781 10.175781 L 16.53125 10.167969 "/>
<path style=" stroke:none;fill-rule:nonzero;fill:rgb(100%,100%,100%);fill-opacity:1;" d="M 17.472656 5.378906 C 16.25 4.625 15.945312 3.90625 15.761719 2.878906 C 15.730469 2.714844 15.691406 2.558594 15.648438 2.410156 C 15.683594 2.796875 15.652344 3.160156 15.652344 3.160156 C 15.605469 2.785156 15.367188 2.128906 15.367188 2.128906 C 15.464844 2.550781 15.488281 3.230469 15.488281 3.230469 C 15.457031 2.992188 15.355469 2.617188 15.273438 2.355469 C 15.304688 2.546875 15.328125 2.722656 15.34375 2.867188 C 15.40625 3.375 15.285156 4.28125 15.644531 5.226562 C 15.878906 5.839844 16.382812 6.292969 16.683594 6.519531 C 16.933594 6.167969 17.253906 5.710938 17.472656 5.378906 "/>
<path style=" stroke:none;fill-rule:nonzero;fill:rgb(30.980392%,14.901961%,50.980392%);fill-opacity:1;" d="M 21.632812 9.558594 L 21.632812 9.5625 C 21.632812 9.597656 21.628906 9.632812 21.628906 9.667969 C 21.625 9.707031 21.621094 9.742188 21.617188 9.777344 C 21.582031 10.097656 21.476562 10.398438 21.3125 10.660156 C 21.296875 10.6875 21.277344 10.71875 21.257812 10.746094 L 21.199219 10.828125 L 21.195312 10.832031 L 21.132812 10.90625 L 21.128906 10.914062 L 21.066406 10.984375 L 21.058594 10.992188 L 20.996094 11.058594 L 20.988281 11.066406 L 20.921875 11.128906 L 20.910156 11.140625 L 20.84375 11.195312 L 20.828125 11.207031 L 20.761719 11.257812 L 20.742188 11.273438 L 20.679688 11.316406 L 20.65625 11.332031 L 20.59375 11.371094 L 20.566406 11.386719 L 20.503906 11.421875 L 20.472656 11.441406 L 20.410156 11.46875 L 20.378906 11.484375 L 20.316406 11.511719 L 20.21875 11.550781 L 20.175781 11.566406 L 20.121094 11.585938 L 20.074219 11.597656 L 20.019531 11.613281 L 19.917969 11.636719 L 19.859375 11.648438 L 19.8125 11.65625 L 19.75 11.664062 L 19.703125 11.667969 L 19.628906 11.675781 L 19.59375 11.679688 C 19.558594 11.679688 19.523438 11.679688 19.484375 11.679688 C 18.652344 11.679688 17.886719 11.1875 17.539062 10.4375 C 17.433594 10.40625 17.320312 10.375 17.203125 10.34375 C 17.003906 10.367188 16.792969 10.398438 16.570312 10.4375 C 16.160156 10.507812 15.738281 10.609375 15.394531 10.699219 C 15.375 10.882812 15.351562 11.175781 15.347656 11.199219 C 15.300781 12.234375 15.363281 12.164062 15.363281 12.164062 C 15.664062 12.042969 16.773438 11.761719 16.773438 11.761719 C 17.097656 11.683594 17.480469 11.605469 17.933594 11.519531 C 18.25 12.160156 18.90625 12.597656 19.667969 12.597656 C 20.621094 12.597656 21.410156 11.914062 21.574219 11.011719 C 23.652344 10.785156 24.636719 10.78125 25.917969 10.949219 L 25.917969 10.941406 L 25.898438 10.855469 L 25.890625 10.8125 L 25.886719 10.792969 L 25.875 10.742188 L 25.871094 10.71875 L 25.859375 10.660156 L 25.851562 10.632812 L 25.828125 10.539062 L 25.808594 10.464844 L 25.800781 10.433594 L 25.777344 10.355469 L 25.769531 10.320312 L 25.742188 10.234375 L 25.734375 10.195312 L 25.65625 9.960938 L 25.648438 9.929688 L 25.601562 9.804688 L 25.597656 9.789062 C 25.574219 9.726562 25.550781 9.664062 25.523438 9.597656 C 25.292969 9.554688 24.5625 9.445312 23.652344 9.441406 C 22.824219 9.433594 21.828125 9.539062 21.632812 9.558594 "/>
<path style=" stroke:none;fill-rule:nonzero;fill:rgb(92.941176%,73.72549%,63.529412%);fill-opacity:1;" d="M 24.933594 12.121094 C 25 12.199219 25.113281 12.367188 25.121094 12.421875 L 25.117188 12.46875 L 25.117188 12.484375 C 25.109375 12.574219 25.066406 12.988281 24.972656 13.101562 C 24.957031 13.125 24.941406 13.148438 24.921875 13.167969 C 24.8125 13.269531 24.621094 13.367188 24.261719 13.617188 C 23.863281 13.894531 23.546875 14.457031 23.546875 14.457031 C 23.546875 14.457031 23.660156 13.925781 23.90625 13.621094 C 24.210938 13.242188 24.609375 12.992188 24.855469 12.863281 L 24.964844 12.371094 C 24.878906 12.3125 24.773438 12.253906 24.671875 12.238281 C 24.457031 12.199219 24.097656 12.203125 23.878906 12.132812 L 23.882812 12.128906 C 24.144531 12.097656 24.296875 12.019531 24.691406 11.957031 C 25.082031 11.890625 25.382812 12.007812 25.382812 12.007812 C 25.121094 12.019531 24.933594 12.121094 24.933594 12.121094 M 26.207031 11.910156 C 25.832031 12.058594 24.960938 11.792969 24.414062 11.753906 C 23.871094 11.714844 23.488281 11.972656 23.488281 11.972656 C 23.339844 11.597656 23.511719 11.09375 23.511719 11.09375 C 23.398438 11.09375 22.988281 11.144531 22.871094 11.152344 C 22.871094 11.15625 22.828125 11.164062 22.765625 11.171875 L 22.765625 11.207031 C 22.765625 11.207031 22.59375 12.53125 21.964844 13.394531 C 22.128906 13.484375 22.542969 13.609375 22.691406 13.742188 C 22.960938 13.988281 22.976562 14.34375 22.964844 14.484375 C 22.949219 14.628906 22.929688 14.878906 22.800781 15.378906 C 22.800781 15.378906 22.769531 14.660156 22.703125 14.449219 C 22.640625 14.238281 22.398438 14.042969 22.167969 13.972656 C 22.0625 13.941406 21.871094 13.886719 21.65625 13.839844 C 21.242188 14.3125 20.828125 14.640625 20.4375 14.988281 C 20.476562 15.050781 20.535156 15.105469 20.617188 15.128906 C 20.855469 15.1875 21.152344 15.046875 21.152344 15.046875 C 21.152344 15.046875 20.960938 15.921875 21.464844 16.667969 C 21.839844 17.222656 22.5625 17.082031 22.5625 17.082031 C 22.5625 17.082031 22.71875 15.984375 23.402344 15.101562 C 24.035156 14.292969 24.804688 13.871094 25.34375 13.714844 C 25.324219 13.613281 25.289062 13.40625 25.328125 13.308594 C 25.378906 13.171875 25.527344 13.050781 25.707031 13.050781 C 25.886719 13.050781 26.089844 13.148438 26.089844 13.148438 C 25.996094 13.128906 25.746094 13.113281 25.617188 13.25 C 25.519531 13.351562 25.5625 13.5625 25.589844 13.65625 C 26.085938 13.5625 26.539062 13.625 26.625 13.648438 C 26.71875 13.671875 26.804688 13.65625 26.835938 13.539062 C 26.867188 13.421875 26.867188 13.28125 26.804688 13.234375 C 26.742188 13.1875 26.640625 13.171875 26.539062 13.09375 C 26.4375 13.015625 26.355469 12.828125 26.363281 12.554688 C 26.371094 12.285156 26.207031 11.910156 26.207031 11.910156 "/>
<path style=" stroke:none;fill-rule:nonzero;fill:rgb(100%,77.254902%,18.431373%);fill-opacity:1;" d="M 23.890625 11.105469 C 23.699219 11.234375 23.742188 11.621094 23.742188 11.621094 C 23.742188 11.621094 23.898438 11.460938 24.273438 11.363281 C 24.65625 11.265625 25.15625 11.339844 25.15625 11.339844 C 24.867188 11.394531 24.707031 11.492188 24.707031 11.492188 C 25.246094 11.5625 25.339844 11.734375 26.058594 11.683594 C 26.777344 11.632812 26.867188 10.953125 26.867188 10.953125 C 26.867188 10.953125 26.699219 11.03125 26.328125 11.113281 C 25.957031 11.195312 25.207031 11.082031 24.980469 11.054688 C 24.757812 11.03125 24.082031 10.976562 23.890625 11.105469 M 16.753906 6.933594 C 16.871094 6.921875 16.988281 6.90625 17.105469 6.890625 C 17.269531 6.871094 17.4375 6.847656 17.609375 6.832031 C 18.007812 6.789062 18.339844 6.785156 18.644531 6.820312 C 19.253906 6.875 19.835938 7.066406 20.113281 7.195312 C 20.882812 7.523438 21.488281 8.304688 21.59375 9.125 L 21.609375 9.21875 L 21.621094 9.308594 C 21.8125 9.285156 22.816406 9.171875 23.652344 9.179688 C 24.398438 9.183594 25.0625 9.261719 25.378906 9.3125 C 25.050781 8.582031 24.546875 7.726562 23.78125 7.003906 C 22.050781 5.363281 19.914062 4.582031 18.132812 4.5 C 18.132812 4.5 18.105469 4.820312 17.910156 5.230469 C 17.84375 5.375 17.753906 5.53125 17.636719 5.6875 C 17.46875 5.914062 17.132812 6.378906 16.824219 6.84375 C 16.8125 6.859375 16.753906 6.933594 16.753906 6.933594 M 19.015625 22.144531 C 19.015625 22.144531 19.195312 21.824219 19.398438 21.46875 C 19.273438 21.359375 19.101562 21.230469 18.890625 21.101562 C 18.699219 20.984375 18.375 20.820312 18.085938 20.65625 C 18.085938 20.8125 18.105469 21.203125 18.328125 21.523438 C 18.609375 21.933594 19.015625 22.144531 19.015625 22.144531 M 17.847656 12.007812 C 17.820312 11.96875 17.789062 11.925781 17.761719 11.886719 L 17.703125 11.835938 C 17.507812 11.875 14.855469 12.222656 11.644531 14.382812 C 10.582031 15.097656 9.277344 16.363281 8.632812 17.070312 C 8.910156 16.949219 9.503906 16.703125 9.972656 16.554688 C 10.453125 16.0625 11.242188 15.265625 11.964844 14.757812 C 13.640625 13.585938 16.503906 12.371094 17.847656 12.007812 M 25.636719 15.476562 C 26.464844 14.933594 27.179688 14.75 27.179688 14.75 C 27.179688 14.75 27.152344 14.304688 26.699219 13.878906 C 26.699219 13.878906 26.015625 13.6875 25.15625 14.078125 C 24.296875 14.46875 23.476562 15.25 23.125 16.058594 C 22.769531 16.867188 22.742188 17.722656 22.703125 18.351562 C 22.664062 18.980469 22.769531 19.917969 22.523438 20.765625 C 22.523438 20.765625 22.929688 20.164062 23.078125 18.472656 C 23.210938 16.9375 23.589844 15.878906 24.296875 15.386719 C 24.296875 15.386719 23.730469 16.167969 23.539062 17.453125 C 23.347656 18.734375 23.382812 19.234375 23.148438 20.300781 L 23.085938 20.5 C 23.085938 20.5 23.652344 19.742188 23.960938 17.773438 C 24.226562 16.050781 24.730469 15.277344 25.425781 14.871094 C 25.425781 14.871094 24.496094 15.878906 24.285156 17.324219 C 24.285156 17.324219 24.808594 16.023438 25.636719 15.476562 "/>
<path style=" stroke:none;fill-rule:nonzero;fill:rgb(92.941176%,73.72549%,63.529412%);fill-opacity:1;" d="M 21.039062 16.722656 C 20.78125 16.34375 20.601562 15.582031 20.601562 15.582031 C 20.601562 15.582031 20.277344 15.574219 20.085938 15.316406 L 19.992188 15.414062 C 19.992188 15.414062 20.28125 15.820312 20.460938 16.578125 C 20.597656 17.160156 20.234375 18.101562 20.234375 18.101562 C 20.234375 18.101562 20.421875 18.574219 20.503906 19.148438 L 20.539062 19.128906 C 20.539062 19.128906 21.546875 18.589844 22.089844 18.367188 C 22.175781 18.328125 22.285156 18.289062 22.40625 18.25 C 22.417969 18.023438 22.4375 17.710938 22.484375 17.421875 C 22.378906 17.425781 22.285156 17.425781 22.203125 17.425781 C 21.644531 17.425781 21.296875 17.101562 21.039062 16.722656 M 26.578125 17.414062 C 26.304688 17.40625 25.222656 17.371094 24.550781 17.371094 L 24.542969 17.371094 C 24.476562 17.476562 24.421875 17.589844 24.363281 17.746094 C 24.550781 17.710938 24.730469 17.679688 24.898438 17.652344 C 25.8125 17.515625 26.5625 17.492188 26.683594 17.476562 C 26.808594 17.460938 27.027344 17.46875 27.105469 17.402344 C 27.105469 17.402344 26.851562 17.421875 26.578125 17.414062 "/>
<path style=" stroke:none;fill-rule:nonzero;fill:rgb(100%,77.254902%,18.431373%);fill-opacity:1;" d="M 18.414062 22.539062 C 18.464844 22.714844 18.59375 22.804688 18.722656 22.871094 C 18.808594 22.609375 18.914062 22.316406 18.914062 22.316406 C 18.71875 22.21875 18.527344 22.050781 18.527344 22.050781 C 18.457031 22.144531 18.328125 22.253906 18.414062 22.539062 "/>
<path style=" stroke:none;fill-rule:nonzero;fill:rgb(92.941176%,73.72549%,63.529412%);fill-opacity:1;" d="M 26.898438 16.304688 C 26.707031 16.226562 26.378906 16.246094 26.378906 16.246094 C 26.378906 16.246094 26.628906 15.636719 26.605469 15.304688 C 26.605469 15.304688 25.152344 15.929688 24.738281 17.082031 C 24.738281 17.082031 25.609375 17.101562 26.09375 17.160156 C 26.582031 17.21875 26.898438 17.222656 27.007812 17.226562 C 27.117188 17.234375 27.34375 17.246094 27.273438 16.847656 C 27.199219 16.449219 27.09375 16.378906 26.898438 16.304688 "/>
<path style=" stroke:none;fill-rule:nonzero;fill:rgb(100%,77.254902%,18.431373%);fill-opacity:1;" d="M 18.300781 24.195312 C 18.183594 24.335938 18.132812 24.621094 18.207031 24.707031 C 18.277344 24.792969 18.378906 24.78125 18.441406 24.710938 C 18.503906 24.640625 18.523438 24.527344 18.4375 24.410156 C 18.367188 24.3125 18.300781 24.195312 18.300781 24.195312 M 20 18.5 C 19.9375 18.597656 19.839844 18.75 19.785156 18.828125 C 19.601562 19.070312 19.15625 20.042969 18.964844 20.804688 C 19.023438 20.839844 19.074219 20.875 19.117188 20.902344 C 19.328125 21.050781 19.453125 21.167969 19.523438 21.246094 C 19.613281 21.082031 19.792969 20.917969 19.863281 20.789062 C 20.125 20.3125 20.328125 19.753906 20.261719 19.242188 C 20.21875 18.890625 20.058594 18.609375 20 18.5 M 18.597656 23.75 C 18.445312 23.648438 18.347656 23.53125 18.347656 23.53125 C 18.148438 23.878906 18.246094 23.960938 18.523438 24.167969 C 18.714844 24.308594 18.679688 24.496094 18.679688 24.496094 C 18.679688 24.496094 18.941406 24.363281 18.921875 24.195312 C 18.914062 24.082031 18.75 23.851562 18.597656 23.75 M 19.28125 22.082031 C 19.121094 22.375 18.972656 22.757812 18.902344 22.960938 L 18.945312 22.988281 C 19.097656 23.089844 19.292969 23.363281 19.292969 23.363281 C 19.292969 23.363281 19.707031 22.898438 19.878906 22.375 C 20.046875 21.847656 19.84375 21.21875 19.84375 21.21875 C 19.84375 21.21875 19.511719 21.664062 19.28125 22.082031 M 18.738281 23.113281 C 18.53125 23.015625 18.421875 22.875 18.421875 22.875 C 18.421875 22.875 18.296875 23.042969 18.34375 23.242188 C 18.390625 23.441406 18.574219 23.527344 18.769531 23.625 C 18.96875 23.726562 19.042969 23.925781 19.042969 23.925781 C 19.183594 23.828125 19.25 23.679688 19.171875 23.515625 C 19.097656 23.351562 18.949219 23.210938 18.738281 23.113281 "/>
<path style=" stroke:none;fill-rule:nonzero;fill:rgb(0%,0%,0.784314%);fill-opacity:1;" d="M 24.691406 11.953125 C 24.296875 12.019531 24.144531 12.097656 23.882812 12.128906 L 23.878906 12.132812 C 24.097656 12.203125 24.457031 12.199219 24.671875 12.238281 C 24.773438 12.253906 24.878906 12.3125 24.964844 12.371094 L 24.855469 12.859375 C 24.609375 12.992188 24.210938 13.242188 23.90625 13.617188 C 23.660156 13.921875 23.546875 14.457031 23.546875 14.457031 C 23.546875 14.457031 23.863281 13.890625 24.261719 13.617188 C 24.621094 13.367188 24.8125 13.269531 24.921875 13.167969 C 24.941406 13.148438 24.957031 13.125 24.972656 13.101562 C 25.066406 12.984375 25.109375 12.574219 25.117188 12.484375 L 25.117188 12.464844 L 25.121094 12.421875 C 25.113281 12.363281 25 12.199219 24.933594 12.121094 C 24.933594 12.121094 25.121094 12.019531 25.382812 12.003906 C 25.382812 12.007812 25.082031 11.890625 24.691406 11.953125 "/>
<path style=" stroke:none;fill-rule:nonzero;fill:rgb(97.254902%,79.215686%,87.058824%);fill-opacity:1;" d="M 24.070312 12.136719 L 24.28125 12.160156 C 24.421875 12.171875 24.566406 12.183594 24.675781 12.203125 C 24.789062 12.222656 24.898438 12.28125 24.984375 12.339844 L 25 12.378906 L 24.890625 12.867188 L 24.871094 12.894531 C 24.660156 13.007812 24.332031 13.210938 24.050781 13.507812 L 23.933594 13.640625 L 23.863281 13.746094 C 23.78125 13.875 23.71875 14.027344 23.671875 14.15625 L 23.648438 14.230469 L 23.679688 14.183594 C 23.78125 14.039062 23.925781 13.855469 24.089844 13.703125 L 24.238281 13.585938 L 24.664062 13.304688 C 24.71875 13.269531 24.761719 13.242188 24.800781 13.214844 L 24.894531 13.140625 L 24.941406 13.082031 L 24.941406 13.078125 C 25.023438 12.980469 25.074219 12.570312 25.082031 12.480469 L 25.082031 12.464844 L 25.085938 12.425781 C 25.078125 12.390625 24.96875 12.21875 24.90625 12.144531 L 24.917969 12.089844 C 24.917969 12.089844 24.964844 12.0625 25.046875 12.035156 L 25.191406 11.996094 L 25.152344 11.988281 C 25.035156 11.96875 24.875 11.960938 24.695312 11.988281 C 24.40625 12.039062 24.246094 12.09375 24.070312 12.132812 Z M 25.121094 12.421875 L 25.117188 12.46875 L 25.117188 12.484375 C 25.109375 12.574219 25.066406 12.988281 24.972656 13.101562 C 24.957031 13.125 24.941406 13.148438 24.921875 13.167969 C 24.8125 13.269531 24.621094 13.367188 24.261719 13.617188 C 23.863281 13.894531 23.546875 14.457031 23.546875 14.457031 C 23.546875 14.457031 23.660156 13.921875 23.90625 13.621094 C 24.210938 13.242188 24.609375 12.992188 24.855469 12.863281 L 24.964844 12.371094 C 24.878906 12.3125 24.773438 12.253906 24.671875 12.238281 C 24.457031 12.199219 24.097656 12.203125 23.878906 12.132812 L 23.882812 12.128906 C 24.144531 12.097656 24.296875 12.019531 24.691406 11.957031 C 25.082031 11.890625 25.382812 12.007812 25.382812 12.007812 C 25.121094 12.019531 24.933594 12.121094 24.933594 12.121094 C 25 12.199219 25.113281 12.367188 25.121094 12.421875 Z M 25.121094 12.421875 "/>
</g>
</svg>
