<?xml version="1.0" encoding="UTF-8"?>
<svg xmlns="http://www.w3.org/2000/svg" xmlns:xlink="http://www.w3.org/1999/xlink" width="28pt" height="20pt" viewBox="0 0 28 20" version="1.1">
<g id="surface1">
<path style=" stroke:none;fill-rule:nonzero;fill:rgb(69.803922%,11.764706%,20.784314%);fill-opacity:1;" d="M 25.796875 0.253906 L 22.058594 0.253906 L 22.066406 9.242188 C 22.066406 9.460938 22.011719 10.554688 21.121094 10.554688 C 20.792969 10.554688 20.648438 10.441406 20.558594 10.351562 C 20.28125 10.0625 20.226562 9.507812 20.226562 9.320312 L 20.21875 0.253906 L 14.175781 0.253906 L 14.175781 3.917969 L 14.863281 3.917969 C 15.492188 3.917969 15.699219 4.082031 15.761719 4.152344 C 15.820312 4.222656 15.828125 4.3125 15.828125 4.363281 L 15.828125 4.402344 L 15.820312 4.453125 L 15.820312 10.570312 C 15.820312 11.742188 16.199219 12.75 16.925781 13.476562 C 17.675781 14.234375 18.75 14.65625 19.957031 14.65625 C 20.847656 14.65625 21.554688 14.441406 22.09375 14.179688 L 22.09375 14.441406 C 22.09375 15.058594 22.074219 15.582031 21.984375 15.695312 C 21.957031 15.71875 21.824219 15.789062 21.199219 15.789062 L 3.277344 15.789062 L 3.277344 20 L 22.554688 20 C 23.96875 20 25.039062 19.582031 25.726562 18.78125 C 26.414062 17.972656 26.503906 16.996094 26.503906 16.496094 C 26.503906 16.371094 26.511719 16.277344 26.503906 16.214844 L 26.503906 0.253906 Z M 3.261719 14.390625 L 7.550781 14.390625 L 7.542969 5.019531 L 7.535156 4.972656 C 7.535156 4.964844 7.496094 4.59375 7.707031 4.355469 C 7.902344 4.136719 8.273438 4.089844 8.546875 4.089844 C 8.847656 4.089844 9.0625 4.160156 9.207031 4.304688 C 9.40625 4.507812 9.449219 4.859375 9.449219 4.980469 L 9.449219 5 L 9.453125 12.0625 L 9.453125 12.035156 C 9.449219 12.140625 9.433594 13.121094 10.074219 13.792969 C 10.445312 14.179688 10.957031 14.390625 11.546875 14.390625 L 15.222656 14.390625 L 15.222656 10.695312 L 14.4375 10.800781 C 14.347656 10.816406 14.058594 10.816406 13.90625 10.679688 C 13.785156 10.570312 13.75 10.34375 13.75 10.175781 L 13.75 3.511719 L 13.75 3.539062 C 13.75 3.476562 13.804688 2.054688 12.824219 1.023438 C 12.183594 0.34375 11.273438 0 10.128906 0 C 8.953125 0 8.09375 0.335938 7.488281 0.742188 L 7.488281 0.257812 L 1.492188 0.257812 L 1.492188 4.09375 L 2.324219 3.914062 C 2.492188 3.878906 2.898438 3.855469 3.082031 4.03125 C 3.222656 4.160156 3.261719 4.402344 3.261719 4.628906 Z M 3.261719 14.390625 "/>
<path style=" stroke:none;fill-rule:nonzero;fill:rgb(14.509804%,19.215686%,41.568627%);fill-opacity:1;" d="M 16.195312 10.5625 C 16.195312 11.628906 16.539062 12.542969 17.179688 13.199219 C 17.855469 13.886719 18.84375 14.265625 19.945312 14.265625 C 21.121094 14.265625 21.957031 13.855469 22.457031 13.511719 L 22.457031 13.792969 C 22.457031 14.03125 22.464844 14.25 22.464844 14.453125 C 22.464844 15.261719 22.429688 15.757812 22.246094 15.949219 C 22.105469 16.089844 21.796875 16.152344 21.191406 16.152344 L 3.644531 16.171875 L 3.644531 19.621094 L 22.539062 19.609375 C 23.839844 19.609375 24.8125 19.242188 25.429688 18.519531 C 26.042969 17.8125 26.132812 16.945312 26.132812 16.496094 C 26.132812 16.355469 26.125 16.265625 26.121094 16.222656 C 26.121094 16.1875 26.105469 0.632812 26.105469 0.632812 L 22.445312 0.632812 L 22.453125 9.234375 C 22.453125 9.304688 22.429688 10.925781 21.128906 10.933594 C 20.777344 10.933594 20.503906 10.828125 20.296875 10.609375 C 19.847656 10.140625 19.863281 9.3125 19.863281 9.304688 C 19.863281 9.300781 19.855469 0.632812 19.855469 0.632812 L 14.554688 0.632812 L 14.554688 3.527344 L 14.863281 3.527344 C 15.441406 3.527344 15.851562 3.660156 16.054688 3.90625 C 16.257812 4.152344 16.199219 4.453125 16.199219 4.46875 L 16.199219 10.5625 Z M 3.640625 14.003906 L 7.171875 14.003906 L 7.164062 5.035156 L 7.164062 5.015625 C 7.164062 5.007812 7.101562 4.472656 7.417969 4.101562 C 7.644531 3.835938 8.023438 3.703125 8.542969 3.703125 C 8.945312 3.703125 9.261719 3.8125 9.46875 4.03125 C 9.820312 4.402344 9.8125 4.972656 9.8125 4.980469 C 9.8125 4.988281 9.820312 12.058594 9.820312 12.058594 C 9.820312 12.085938 9.792969 12.953125 10.335938 13.519531 C 10.640625 13.835938 11.039062 13.996094 11.542969 13.996094 L 14.84375 13.996094 L 14.84375 11.117188 L 14.492188 11.164062 C 14.484375 11.164062 13.984375 11.234375 13.65625 10.957031 C 13.46875 10.792969 13.375 10.519531 13.375 10.15625 L 13.367188 3.492188 C 13.367188 3.449219 13.40625 2.183594 12.539062 1.269531 C 11.96875 0.667969 11.15625 0.363281 10.121094 0.363281 C 8.570312 0.363281 7.632812 0.984375 7.101562 1.53125 L 7.101562 0.625 L 1.863281 0.625 L 1.863281 3.605469 L 2.242188 3.519531 C 2.25 3.519531 2.9375 3.367188 3.332031 3.722656 C 3.53125 3.90625 3.632812 4.199219 3.632812 4.601562 L 3.632812 14.003906 Z M 3.640625 14.003906 "/>
</g>
</svg>
