<?xml version="1.0" encoding="UTF-8"?>
<svg xmlns="http://www.w3.org/2000/svg" xmlns:xlink="http://www.w3.org/1999/xlink" width="35pt" height="25pt" viewBox="0 0 35 25" version="1.1">
<g id="surface1">
<path style=" stroke:none;fill-rule:nonzero;fill:rgb(0%,0%,0%);fill-opacity:1;" d="M 25.390625 9.902344 C 23.59375 8.828125 21.832031 9.078125 20.492188 9.695312 C 20.433594 9.246094 20.316406 8.746094 20.128906 8.164062 C 19.84375 7.300781 19.53125 6.476562 19.257812 5.75 C 18.902344 4.796875 18.625 3.972656 18.472656 3.425781 L 17.496094 0 L 16.484375 3.4375 C 16.328125 3.976562 16.066406 4.804688 15.707031 5.765625 C 15.4375 6.492188 15.125 7.3125 14.847656 8.179688 C 14.65625 8.757812 14.539062 9.253906 14.480469 9.707031 C 13.144531 9.097656 11.371094 8.855469 9.585938 9.921875 C 8.121094 10.804688 7.335938 12.328125 7.535156 13.910156 C 7.71875 15.34375 8.679688 16.472656 10.039062 16.859375 L 11.046875 17.140625 L 11.296875 16.101562 C 11.332031 15.960938 11.699219 14.65625 12.84375 14.671875 C 13.644531 14.691406 14.308594 15.414062 14.636719 15.878906 C 14.527344 16.210938 14.476562 16.601562 14.527344 17.023438 L 14.078125 16.410156 L 13.265625 17.03125 C 12.527344 17.585938 11.464844 18.972656 12.121094 20.601562 C 12.414062 21.316406 13.027344 21.796875 13.859375 21.96875 C 14.367188 22.078125 14.945312 22.050781 15.480469 21.929688 C 15.691406 22.625 16.074219 23.460938 16.773438 24.214844 L 17.515625 25 L 18.246094 24.210938 C 18.945312 23.457031 19.332031 22.613281 19.535156 21.925781 C 20.074219 22.042969 20.652344 22.066406 21.160156 21.960938 C 21.992188 21.789062 22.605469 21.300781 22.894531 20.59375 C 23.546875 18.957031 22.480469 17.578125 21.753906 17.019531 L 20.9375 16.40625 L 20.484375 17.019531 C 20.535156 16.59375 20.476562 16.195312 20.375 15.871094 C 20.703125 15.40625 21.363281 14.683594 22.164062 14.664062 C 23.308594 14.636719 23.679688 15.941406 23.714844 16.085938 L 23.964844 17.132812 C 23.964844 17.128906 24.972656 16.835938 24.972656 16.835938 C 26.332031 16.449219 27.289062 15.320312 27.472656 13.882812 C 27.644531 12.300781 26.851562 10.777344 25.390625 9.902344 "/>
<path style=" stroke:none;fill-rule:nonzero;fill:rgb(100%,100%,100%);fill-opacity:1;" d="M 17.148438 3.578125 C 17.027344 4.171875 16.707031 5.027344 16.335938 6.007812 C 16.066406 6.730469 15.757812 7.550781 15.480469 8.394531 C 15.21875 9.214844 15.105469 9.820312 15.105469 10.386719 C 15.105469 10.570312 15.125 10.742188 15.148438 10.921875 C 14.125 10.203125 12.109375 9.21875 9.910156 10.542969 C 8.691406 11.269531 8.03125 12.523438 8.203125 13.816406 C 8.351562 14.964844 9.117188 15.863281 10.199219 16.171875 L 10.523438 16.261719 L 10.605469 15.929688 C 10.628906 15.847656 11.109375 13.929688 12.839844 13.964844 C 14.230469 13.992188 15.148438 15.386719 15.394531 15.808594 C 15.28125 16.039062 15.183594 16.335938 15.183594 16.6875 C 15.183594 17.070312 15.308594 17.492188 15.628906 17.929688 C 15.5 18.101562 15.289062 18.316406 15.046875 18.335938 C 14.699219 18.371094 14.347656 17.996094 14.117188 17.679688 L 13.921875 17.410156 L 13.660156 17.609375 C 13.128906 18.019531 12.25 19.109375 12.746094 20.34375 C 12.941406 20.832031 13.371094 21.160156 13.976562 21.28125 C 14.605469 21.414062 15.402344 21.296875 15.960938 21.039062 C 16.070312 21.6875 16.378906 22.789062 17.261719 23.734375 L 17.496094 23.988281 L 17.734375 23.734375 C 18.621094 22.789062 18.925781 21.6875 19.03125 21.039062 C 19.59375 21.296875 20.386719 21.40625 21.011719 21.277344 C 21.617188 21.152344 22.039062 20.828125 22.242188 20.335938 C 22.734375 19.105469 21.855469 18.011719 21.324219 17.605469 L 21.066406 17.40625 L 20.863281 17.667969 C 20.636719 17.992188 20.285156 18.371094 19.9375 18.335938 C 19.691406 18.324219 19.488281 18.105469 19.363281 17.929688 C 19.679688 17.5 19.804688 17.074219 19.804688 16.691406 C 19.804688 16.335938 19.707031 16.027344 19.589844 15.808594 C 19.835938 15.386719 20.746094 13.992188 22.136719 13.960938 C 23.871094 13.914062 24.359375 15.835938 24.378906 15.917969 L 24.460938 16.25 L 24.785156 16.15625 C 25.871094 15.847656 26.632812 14.941406 26.78125 13.792969 C 26.941406 12.5 26.28125 11.246094 25.0625 10.519531 C 22.859375 9.199219 20.84375 10.195312 19.824219 10.917969 C 19.84375 10.75 19.867188 10.578125 19.867188 10.402344 C 19.867188 9.824219 19.757812 9.210938 19.492188 8.394531 C 19.214844 7.550781 18.902344 6.730469 18.628906 6.019531 C 18.253906 5.03125 17.9375 4.183594 17.808594 3.582031 L 17.492188 2.050781 L 17.148438 3.578125 "/>
<path style=" stroke:none;fill-rule:nonzero;fill:rgb(0%,0%,0%);fill-opacity:1;" d="M 17.492188 23.492188 C 18.742188 22.148438 18.75 20.457031 18.75 20.457031 C 19.308594 21.015625 21.449219 21.398438 21.929688 20.191406 C 22.457031 18.875 21.113281 17.859375 21.113281 17.859375 C 19.816406 19.640625 18.945312 17.898438 18.945312 17.898438 C 19.9375 16.800781 19.195312 15.820312 19.195312 15.820312 C 19.257812 15.613281 20.355469 13.65625 22.113281 13.613281 C 24.140625 13.570312 24.679688 15.828125 24.679688 15.828125 C 26.800781 15.222656 27.210938 12.191406 24.875 10.800781 C 21.914062 9.035156 19.332031 11.730469 19.332031 11.730469 C 19.570312 10.722656 19.632812 9.972656 19.15625 8.503906 C 18.496094 6.507812 17.695312 4.730469 17.46875 3.65625 C 17.242188 4.730469 16.449219 6.515625 15.792969 8.507812 C 15.316406 9.988281 15.382812 10.726562 15.628906 11.742188 C 15.628906 11.742188 13.035156 9.058594 10.078125 10.832031 C 7.75 12.226562 8.164062 15.261719 10.289062 15.859375 C 10.289062 15.859375 10.824219 13.597656 12.84375 13.636719 C 14.601562 13.671875 15.699219 15.632812 15.769531 15.828125 C 15.769531 15.828125 15.03125 16.820312 16.019531 17.914062 C 16.019531 17.914062 15.152344 19.660156 13.851562 17.878906 C 13.851562 17.878906 12.519531 18.902344 13.046875 20.214844 C 13.527344 21.417969 15.671875 21.035156 16.222656 20.464844 C 16.222656 20.460938 16.238281 22.15625 17.492188 23.492188 "/>
<path style=" stroke:none;fill-rule:nonzero;fill:rgb(77.647059%,65.882353%,46.27451%);fill-opacity:1;" d="M 22.800781 10.714844 C 20.390625 10.714844 18.417969 13.519531 18.417969 13.519531 C 18.503906 13.0625 19.53125 10.996094 18.601562 8.527344 C 17.667969 6.058594 17.476562 5.0625 17.476562 5.0625 L 17.46875 5.089844 L 17.46875 5.0625 C 17.46875 5.0625 17.277344 6.058594 16.355469 8.527344 C 15.433594 10.996094 16.460938 13.0625 16.550781 13.519531 C 16.550781 13.519531 14.566406 10.71875 12.152344 10.71875 C 9.746094 10.71875 7.734375 13.53125 9.964844 15.195312 C 9.964844 15.195312 10.613281 13.125 12.863281 13.113281 C 14.515625 13.113281 16.175781 14.933594 16.242188 15.832031 C 16.242188 15.832031 15.484375 16.933594 16.539062 17.84375 C 16.539062 17.84375 15.402344 20.292969 13.832031 18.527344 C 13.832031 18.527344 12.617188 20.078125 14.195312 20.457031 C 15.457031 20.75 16.695312 19.445312 16.695312 19.445312 C 16.695312 19.445312 16.566406 21.515625 17.492188 22.636719 L 17.492188 22.628906 L 17.496094 22.636719 C 18.429688 21.511719 18.292969 19.441406 18.292969 19.441406 C 18.292969 19.441406 19.53125 20.742188 20.785156 20.441406 C 22.367188 20.066406 21.15625 18.511719 21.15625 18.511719 C 19.585938 20.273438 18.445312 17.828125 18.445312 17.828125 C 19.492188 16.914062 18.738281 15.820312 18.738281 15.820312 C 18.804688 14.914062 20.453125 13.09375 22.109375 13.09375 C 24.359375 13.09375 25.011719 15.164062 25.011719 15.164062 C 27.230469 13.515625 25.214844 10.707031 22.800781 10.714844 "/>
</g>
</svg>
