<?xml version="1.0" encoding="UTF-8"?>
<svg xmlns="http://www.w3.org/2000/svg" xmlns:xlink="http://www.w3.org/1999/xlink" width="35pt" height="25pt" viewBox="0 0 35 25" version="1.1">
<g id="surface1">
<path style=" stroke:none;fill-rule:nonzero;fill:rgb(100%,100%,100%);fill-opacity:1;" d="M 34.070312 5.578125 C 30.8125 6.519531 28.132812 4.269531 24.089844 4.34375 L 24.082031 4.34375 C 24.082031 4.34375 18.523438 4.179688 13.183594 6.183594 C 7.800781 8.101562 4.117188 9.558594 0.628906 9.96875 C -0.183594 10.101562 -0.261719 11.339844 0.710938 11.40625 C 3.929688 11.523438 6.109375 11.300781 8.238281 10.875 C 7.933594 11.808594 8.878906 11.898438 8.894531 11.902344 C 11.417969 12.21875 13.472656 11.960938 15.46875 11.542969 C 14.957031 12.15625 15.367188 12.710938 15.804688 12.800781 C 23.339844 14.128906 26.210938 17.949219 28.972656 20.660156 C 29.746094 20.554688 31.398438 19.578125 30.867188 17.585938 C 30.867188 17.585938 31.070312 17.144531 31.070312 16.796875 L 32.023438 16.226562 C 32.023438 16.226562 31.617188 14.21875 31.570312 13.984375 C 32.09375 13.710938 33.039062 13.238281 33.039062 13.238281 C 33.039062 13.238281 34.753906 7.191406 34.964844 6.40625 C 35.167969 5.730469 34.441406 5.464844 34.070312 5.578125 Z M 0.734375 10.6875 C 6.757812 9.863281 11.734375 7.011719 16.847656 5.855469 C 17.007812 6.480469 17.300781 7.730469 17.300781 7.730469 C 9.976562 9.261719 9.199219 10.953125 0.734375 10.6875 Z M 8.898438 11.179688 C 12.902344 10.601562 15.320312 9.109375 17.589844 8.632812 C 17.726562 9.1875 17.894531 9.761719 18.007812 10.210938 C 12.054688 11.832031 8.898438 11.179688 8.898438 11.179688 Z M 32.441406 12.753906 C 31.867188 13.027344 31.308594 13.316406 30.753906 13.621094 C 30.949219 14.367188 31.050781 15.152344 31.230469 15.890625 L 30.359375 16.394531 L 30.359375 16.929688 L 30.085938 17.644531 C 30.40625 18.070312 30.316406 18.683594 30.058594 19.109375 C 29.851562 19.457031 29.503906 19.71875 29.167969 19.910156 C 29.167969 19.910156 24.269531 13.257812 15.933594 12.097656 C 18.28125 11.730469 19.167969 10.65625 23.226562 10.664062 C 21.789062 9.875 19.945312 9.808594 18.261719 10.1875 C 18.171875 9.832031 17.855469 8.550781 17.855469 8.550781 C 18.945312 8.246094 20.066406 8.117188 21.210938 8.035156 C 20.113281 7.617188 18.898438 7.574219 17.636719 7.679688 C 17.484375 7.054688 17.355469 6.4375 17.183594 5.789062 C 19.339844 5.292969 21.753906 5.042969 24.058594 5.0625 C 26.761719 5.078125 30.375 6.300781 30.375 6.300781 C 31.601562 6.640625 33.019531 6.640625 34.265625 6.269531 C 34.09375 7.042969 32.441406 12.753906 32.441406 12.753906 Z M 30.820312 8.792969 C 30.738281 8.460938 30.578125 7.527344 30.527344 7.4375 L 29.707031 8.503906 C 29.707031 8.503906 28.59375 8.214844 27.980469 8.09375 C 28.367188 8.503906 28.746094 8.867188 29.09375 9.277344 C 28.769531 9.769531 28.351562 10.242188 28.003906 10.71875 L 29.90625 10.101562 C 30.367188 10.558594 30.851562 11.066406 31.304688 11.507812 C 31.222656 10.90625 31.046875 10.300781 30.988281 9.738281 L 32.421875 9.253906 C 31.917969 9.058594 31.351562 8.957031 30.820312 8.792969 Z M 30.820312 8.792969 "/>
<path style=" stroke:none;fill-rule:nonzero;fill:rgb(5.098039%,14.509804%,29.803922%);fill-opacity:1;" d="M 30.382812 6.300781 C 30.382812 6.300781 26.769531 5.078125 24.066406 5.0625 C 21.757812 5.042969 19.347656 5.289062 17.195312 5.789062 C 17.363281 6.449219 17.492188 7.054688 17.644531 7.679688 C 18.902344 7.570312 20.121094 7.617188 21.21875 8.035156 C 20.074219 8.117188 18.953125 8.246094 17.863281 8.550781 C 17.863281 8.550781 18.175781 9.832031 18.265625 10.1875 C 19.953125 9.808594 21.789062 9.875 23.234375 10.664062 C 19.1875 10.65625 18.292969 11.730469 15.945312 12.097656 C 24.285156 13.269531 29.171875 19.910156 29.171875 19.910156 C 29.511719 19.71875 29.851562 19.457031 30.070312 19.109375 C 30.316406 18.683594 30.40625 18.070312 30.09375 17.644531 L 30.367188 16.929688 L 30.367188 16.394531 L 31.238281 15.890625 C 31.0625 15.15625 30.957031 14.355469 30.761719 13.621094 C 31.320312 13.316406 31.875 13.027344 32.449219 12.753906 C 32.449219 12.753906 34.101562 7.042969 34.28125 6.261719 C 33.03125 6.640625 31.609375 6.640625 30.382812 6.300781 Z M 29.390625 15.582031 L 29.183594 15.847656 C 29.414062 15.9375 29.679688 16.089844 29.90625 16.179688 L 29.890625 16.46875 L 29.253906 16.484375 L 28.449219 17.121094 C 28.449219 17.121094 29.066406 17.015625 29.390625 16.929688 L 29.988281 16.929688 C 29.921875 17.105469 29.851562 17.257812 29.78125 17.414062 L 29.1875 17.433594 C 29.1875 17.433594 29.550781 17.863281 29.796875 18.136719 C 30.070312 18.605469 29.308594 19.183594 29.308594 19.183594 C 27.9375 17.660156 26.457031 16.058594 24.640625 15.023438 C 24.824219 14.742188 25.097656 14.589844 25.421875 14.625 C 26.101562 14.75 26.683594 15.210938 26.839844 15.378906 C 27.050781 15.605469 27.429688 16.179688 27.550781 16.257812 C 27.496094 15.800781 27.335938 15.332031 27.21875 14.871094 L 25.171875 13.46875 C 25.390625 12.894531 26.125 12.5 26.777344 12.476562 C 27.40625 12.460938 28.011719 12.460938 28.480469 12.832031 C 27.414062 12.816406 27.027344 13.355469 26.867188 13.847656 C 26.859375 13.886719 29.046875 13.839844 29.046875 13.839844 C 29.125 13.613281 29.15625 13.371094 29.320312 13.183594 C 29.488281 12.945312 29.796875 12.859375 30.070312 12.859375 C 30.117188 13.03125 30.601562 15.5625 30.601562 15.5625 C 30.175781 15.566406 29.8125 15.558594 29.390625 15.582031 Z M 31.308594 11.492188 C 30.859375 11.050781 30.367188 10.542969 29.917969 10.085938 C 29.289062 10.300781 28.640625 10.496094 28.011719 10.703125 C 28.351562 10.226562 28.769531 9.761719 29.097656 9.261719 C 28.753906 8.855469 28.375 8.488281 27.984375 8.078125 C 28.609375 8.199219 29.714844 8.488281 29.714844 8.488281 L 30.539062 7.421875 C 30.585938 7.511719 30.746094 8.445312 30.828125 8.777344 C 31.359375 8.9375 31.921875 9.050781 32.441406 9.210938 L 31.003906 9.695312 C 31.050781 10.285156 31.238281 10.890625 31.308594 11.492188 Z M 31.308594 11.492188 "/>
<path style=" stroke:none;fill-rule:nonzero;fill:rgb(83.921569%,83.921569%,83.921569%);fill-opacity:1;" d="M 29.320312 13.183594 C 29.15625 13.378906 29.125 13.621094 29.046875 13.839844 C 29.046875 13.839844 26.855469 13.886719 26.867188 13.847656 C 27.027344 13.355469 27.40625 12.816406 28.480469 12.832031 C 28.019531 12.46875 27.40625 12.460938 26.777344 12.476562 C 26.132812 12.496094 25.390625 12.894531 25.171875 13.46875 L 27.21875 14.871094 C 27.335938 15.332031 27.496094 15.800781 27.550781 16.257812 C 27.4375 16.179688 27.050781 15.605469 26.839844 15.378906 C 26.683594 15.210938 26.101562 14.75 25.421875 14.625 C 25.097656 14.589844 24.824219 14.742188 24.640625 15.023438 C 26.457031 16.058594 27.9375 17.660156 29.308594 19.183594 C 29.308594 19.183594 30.074219 18.605469 29.796875 18.136719 C 29.542969 17.863281 29.1875 17.433594 29.1875 17.433594 L 29.78125 17.414062 C 29.851562 17.257812 29.921875 17.105469 29.988281 16.929688 L 29.390625 16.929688 C 29.066406 17.015625 28.445312 17.121094 28.445312 17.121094 L 29.253906 16.484375 L 29.890625 16.46875 L 29.90625 16.179688 C 29.675781 16.089844 29.414062 15.925781 29.183594 15.847656 L 29.390625 15.582031 C 29.8125 15.558594 30.175781 15.566406 30.59375 15.558594 C 30.59375 15.558594 30.109375 13.03125 30.058594 12.847656 C 29.796875 12.859375 29.488281 12.945312 29.320312 13.183594 Z M 29.320312 13.183594 "/>
<path style=" stroke:none;fill-rule:nonzero;fill:rgb(75.294118%,0%,11.372549%);fill-opacity:1;" d="M 17.589844 8.628906 C 15.320312 9.109375 12.902344 10.597656 8.898438 11.179688 C 8.898438 11.179688 12.054688 11.832031 18.007812 10.210938 C 17.894531 9.761719 17.71875 9.1875 17.589844 8.628906 Z M 16.839844 5.851562 C 11.722656 7.003906 6.757812 9.863281 0.730469 10.679688 C 9.199219 10.945312 9.976562 9.253906 17.289062 7.722656 C 17.289062 7.722656 17 6.480469 16.839844 5.851562 Z M 16.839844 5.851562 "/>
</g>
</svg>
