<?xml version="1.0" encoding="UTF-8"?>
<svg xmlns="http://www.w3.org/2000/svg" xmlns:xlink="http://www.w3.org/1999/xlink" width="28pt" height="20pt" viewBox="0 0 28 20" version="1.1">
<g id="surface1">
<path style=" stroke:none;fill-rule:nonzero;fill:rgb(0%,22.745098%,45.098039%);fill-opacity:1;" d="M 6.53125 15.101562 L 6.566406 1.863281 C 9.140625 4.128906 13.066406 1.835938 14.019531 0 C 15.871094 3.339844 20.464844 3.195312 21.4375 1.824219 L 21.46875 15.507812 C 21.453125 18.511719 15.765625 17.078125 14 20 C 12.210938 16.820312 6.644531 18.632812 6.53125 15.101562 Z M 6.53125 15.101562 "/>
<path style=" stroke:none;fill-rule:nonzero;fill:rgb(100%,100%,100%);fill-opacity:1;" d="M 7.1875 14.765625 L 7.21875 8.132812 L 20.785156 8.128906 L 20.820312 15.121094 C 20.828125 17.871094 15.609375 16.5 14 19.074219 C 12.367188 16.273438 7.210938 17.949219 7.1875 14.765625 Z M 7.1875 14.765625 "/>
<path style=" stroke:none;fill-rule:nonzero;fill:rgb(100%,100%,100%);fill-opacity:1;" d="M 12.25 7.378906 C 12.421875 6.511719 12.671875 5.742188 12.980469 5.058594 L 12.691406 4.902344 L 12.792969 4.714844 C 13.5 4.878906 13.445312 4.980469 13.660156 5.109375 L 13.523438 5.347656 L 13.179688 5.195312 C 12.734375 5.910156 12.59375 6.667969 12.453125 7.429688 C 14.300781 7.332031 16.859375 5.855469 15.644531 2.597656 C 15.371094 2.722656 15.113281 2.882812 14.882812 3.097656 L 15.121094 3.320312 L 14.949219 3.472656 C 14.777344 3.285156 14.589844 3.121094 14.234375 3.113281 L 14.457031 2.957031 L 14.746094 2.992188 C 14.886719 2.820312 15.125 2.652344 15.492188 2.476562 C 12.777344 2.460938 11.515625 4.410156 12.25 7.378906 Z M 12.25 7.378906 "/>
<path style=" stroke:none;fill-rule:nonzero;fill:rgb(100%,100%,100%);fill-opacity:1;" d="M 8.78125 5.183594 L 8.164062 4.742188 L 7.550781 5.191406 L 7.777344 4.457031 L 7.167969 4.011719 L 7.921875 3.996094 L 8.15625 3.273438 L 8.398438 3.996094 L 9.15625 3.996094 L 8.550781 4.457031 Z M 8.78125 5.183594 "/>
<path style=" stroke:none;fill-rule:nonzero;fill:rgb(100%,100%,100%);fill-opacity:1;" d="M 11.378906 5.183594 L 10.765625 4.742188 L 10.152344 5.191406 L 10.378906 4.457031 L 9.769531 4.011719 L 10.523438 3.996094 L 10.757812 3.273438 L 11 3.996094 L 11.753906 3.996094 L 11.148438 4.457031 Z M 11.378906 5.183594 "/>
<path style=" stroke:none;fill-rule:nonzero;fill:rgb(100%,100%,100%);fill-opacity:1;" d="M 8.78125 7.507812 L 8.164062 7.070312 L 7.550781 7.519531 L 7.777344 6.785156 L 7.167969 6.332031 L 7.921875 6.324219 L 8.15625 5.601562 L 8.398438 6.324219 L 9.15625 6.324219 L 8.550781 6.78125 Z M 8.78125 7.507812 "/>
<path style=" stroke:none;fill-rule:nonzero;fill:rgb(100%,100%,100%);fill-opacity:1;" d="M 11.378906 7.507812 L 10.765625 7.070312 L 10.152344 7.519531 L 10.378906 6.785156 L 9.769531 6.332031 L 10.523438 6.324219 L 10.757812 5.601562 L 11 6.324219 L 11.753906 6.324219 L 11.148438 6.78125 Z M 11.378906 7.507812 "/>
<path style=" stroke:none;fill-rule:nonzero;fill:rgb(100%,100%,100%);fill-opacity:1;" d="M 17.882812 5.183594 L 17.265625 4.742188 L 16.652344 5.191406 L 16.875 4.457031 L 16.265625 4.011719 L 17.019531 3.996094 L 17.261719 3.273438 L 17.5 3.996094 L 18.253906 3.996094 L 17.648438 4.457031 Z M 17.882812 5.183594 "/>
<path style=" stroke:none;fill-rule:nonzero;fill:rgb(100%,100%,100%);fill-opacity:1;" d="M 20.480469 5.183594 L 19.863281 4.742188 L 19.253906 5.191406 L 19.476562 4.457031 L 18.867188 4.011719 L 19.621094 3.996094 L 19.859375 3.273438 L 20.097656 3.996094 L 20.855469 3.996094 L 20.246094 4.457031 Z M 20.480469 5.183594 "/>
<path style=" stroke:none;fill-rule:nonzero;fill:rgb(100%,100%,100%);fill-opacity:1;" d="M 17.882812 7.507812 L 17.265625 7.070312 L 16.652344 7.519531 L 16.875 6.785156 L 16.265625 6.332031 L 17.019531 6.324219 L 17.261719 5.601562 L 17.5 6.324219 L 18.253906 6.324219 L 17.648438 6.78125 Z M 17.882812 7.507812 "/>
<path style=" stroke:none;fill-rule:nonzero;fill:rgb(100%,100%,100%);fill-opacity:1;" d="M 20.480469 7.507812 L 19.863281 7.070312 L 19.253906 7.519531 L 19.476562 6.785156 L 18.867188 6.332031 L 19.621094 6.324219 L 19.859375 5.601562 L 20.097656 6.324219 L 20.855469 6.324219 L 20.246094 6.78125 Z M 20.480469 7.507812 "/>
<path style=" stroke:none;fill-rule:nonzero;fill:rgb(0%,22.745098%,45.098039%);fill-opacity:1;" d="M 13 4.386719 C 13.410156 4.515625 13.621094 4.691406 13.8125 4.867188 L 13.984375 4.628906 C 13.773438 4.390625 13.4375 4.28125 13.101562 4.179688 Z M 13 4.386719 "/>
<path style=" stroke:none;fill-rule:nonzero;fill:rgb(0%,22.745098%,45.098039%);fill-opacity:1;" d="M 13.335938 3.953125 C 13.75 4.085938 13.960938 4.261719 14.152344 4.4375 L 14.320312 4.199219 C 14.113281 3.960938 13.777344 3.851562 13.4375 3.75 Z M 13.335938 3.953125 "/>
<path style=" stroke:none;fill-rule:nonzero;fill:rgb(0%,22.745098%,45.098039%);fill-opacity:1;" d="M 13.796875 3.457031 C 14.207031 3.589844 14.417969 3.761719 14.609375 3.9375 L 14.78125 3.699219 C 14.570312 3.460938 14.234375 3.355469 13.898438 3.25 Z M 13.796875 3.457031 "/>
<path style=" stroke:none;fill-rule:nonzero;fill:rgb(85.490196%,12.941176%,15.294118%);fill-opacity:1;" d="M 8.007812 8.769531 L 8.019531 9.734375 L 8.53125 9.957031 L 8.566406 14.601562 L 8.007812 14.820312 L 8.007812 15.546875 L 10.027344 16.0625 L 10.011719 15.183594 L 9.617188 14.769531 L 9.601562 12.3125 L 10.960938 16.265625 L 11.996094 16.59375 L 12.046875 9.957031 L 12.386719 9.683594 L 12.386719 8.769531 L 10.46875 8.769531 L 10.46875 9.683594 L 10.910156 9.9375 L 10.925781 12.984375 L 9.566406 8.753906 Z M 8.007812 8.769531 "/>
<path style=" stroke:none;fill-rule:nonzero;fill:rgb(85.490196%,12.941176%,15.294118%);fill-opacity:1;" d="M 12.777344 16.046875 L 12.792969 16.78125 L 14.761719 17.523438 L 14.761719 16.664062 L 14.335938 16.199219 L 14.335938 12.878906 L 14.96875 12.894531 L 15.269531 13.292969 L 15.78125 13.273438 L 15.796875 11.457031 L 15.21875 11.433594 L 14.984375 11.832031 L 14.351562 11.847656 L 14.351562 9.871094 L 15.136719 9.902344 L 15.421875 10.578125 L 16.191406 10.558594 L 16.207031 8.804688 L 12.726562 8.804688 L 12.742188 9.699219 L 13.179688 9.992188 L 13.234375 15.820312 Z M 12.777344 16.046875 "/>
<path style=" stroke:none;fill-rule:nonzero;fill:rgb(85.490196%,12.941176%,15.294118%);fill-opacity:1;" d="M 16.542969 8.789062 L 16.542969 9.714844 L 16.902344 9.921875 L 16.953125 15.203125 L 16.542969 15.683594 L 16.578125 16.476562 L 19.992188 15.496094 L 19.957031 13.308594 L 19.125 13.292969 L 19.007812 14.601562 L 18.175781 14.875 L 18.195312 9.976562 L 18.617188 9.632812 L 18.597656 8.769531 Z M 16.542969 8.789062 "/>
</g>
</svg>
