<?xml version="1.0" encoding="UTF-8"?>
<svg xmlns="http://www.w3.org/2000/svg" xmlns:xlink="http://www.w3.org/1999/xlink" width="28pt" height="20pt" viewBox="0 0 28 20" version="1.1">
<g id="surface1">
<path style=" stroke:none;fill-rule:nonzero;fill:rgb(60.784314%,67.058824%,71.372549%);fill-opacity:1;" d="M 14 0.078125 C 8.519531 0.078125 4.078125 4.519531 4.078125 10 C 4.078125 15.480469 8.519531 19.921875 14 19.921875 C 19.480469 19.921875 23.921875 15.480469 23.921875 10 C 23.921875 4.519531 19.480469 0.078125 14 0.078125 Z M 14 18.402344 C 9.359375 18.402344 5.589844 14.640625 5.589844 9.996094 C 5.589844 5.351562 9.355469 1.585938 14 1.585938 C 18.644531 1.585938 22.410156 5.351562 22.410156 9.996094 C 22.414062 14.640625 18.644531 18.402344 14 18.402344 Z M 14 18.402344 "/>
<path style=" stroke:none;fill-rule:nonzero;fill:rgb(0%,0%,0%);fill-opacity:1;" d="M 14 20 C 8.484375 20 4 15.515625 4 10 C 4 4.484375 8.484375 0 14 0 C 19.515625 0 24 4.484375 24 10 C 24 15.515625 19.515625 20 14 20 Z M 14 0.15625 C 8.570312 0.15625 4.15625 4.570312 4.15625 10 C 4.15625 15.429688 8.570312 19.84375 14 19.84375 C 19.429688 19.84375 23.84375 15.429688 23.84375 10 C 23.84375 4.570312 19.429688 0.15625 14 0.15625 Z M 14 18.480469 C 9.320312 18.480469 5.515625 14.675781 5.515625 9.996094 C 5.515625 5.316406 9.320312 1.507812 14 1.507812 C 18.679688 1.507812 22.484375 5.316406 22.484375 9.996094 C 22.488281 12.257812 21.609375 14.390625 20.007812 15.992188 C 18.402344 17.597656 16.269531 18.480469 14 18.480469 Z M 14 1.664062 C 9.40625 1.664062 5.667969 5.402344 5.667969 9.996094 C 5.667969 14.589844 9.40625 18.324219 14 18.324219 C 16.230469 18.324219 18.324219 17.457031 19.898438 15.882812 C 21.46875 14.308594 22.332031 12.21875 22.332031 9.996094 C 22.332031 5.402344 18.59375 1.664062 14 1.664062 Z M 14 1.664062 "/>
<path style=" stroke:none;fill-rule:nonzero;fill:rgb(100%,100%,100%);fill-opacity:1;" d="M 9.667969 9.804688 C 9.667969 9.671875 9.636719 9.632812 9.535156 9.632812 C 9.410156 9.632812 9.417969 9.746094 9.417969 9.867188 L 9.417969 9.917969 L 9.671875 9.917969 L 9.671875 9.804688 Z M 8.566406 9.632812 C 8.441406 9.632812 8.449219 9.746094 8.449219 9.863281 L 8.449219 9.917969 L 8.703125 9.917969 L 8.703125 9.804688 C 8.695312 9.671875 8.664062 9.632812 8.566406 9.632812 Z M 11.175781 9.804688 C 11.175781 9.671875 11.144531 9.632812 11.046875 9.632812 C 10.921875 9.632812 10.925781 9.746094 10.925781 9.867188 L 10.925781 9.917969 L 11.179688 9.917969 L 11.179688 9.804688 Z M 14 1.585938 C 9.355469 1.585938 5.589844 5.351562 5.589844 9.996094 C 5.589844 14.640625 9.355469 18.402344 14 18.402344 C 18.644531 18.402344 22.410156 14.640625 22.410156 9.996094 C 22.414062 5.351562 18.644531 1.585938 14 1.585938 Z M 7.011719 10.765625 C 6.683594 10.765625 6.570312 10.554688 6.570312 10.25 L 6.570312 10.125 L 6.839844 10.125 L 6.839844 10.222656 C 6.835938 10.390625 6.878906 10.511719 7.011719 10.511719 C 7.125 10.511719 7.183594 10.441406 7.183594 10.3125 C 7.183594 10.210938 7.140625 10.140625 7.074219 10.082031 C 6.933594 9.953125 6.757812 9.859375 6.644531 9.6875 C 6.597656 9.609375 6.578125 9.519531 6.578125 9.425781 C 6.578125 9.132812 6.714844 8.972656 7 8.972656 C 7.433594 8.972656 7.421875 9.367188 7.425781 9.535156 L 7.164062 9.535156 C 7.164062 9.378906 7.152344 9.226562 7 9.226562 C 6.90625 9.226562 6.851562 9.269531 6.851562 9.386719 C 6.851562 9.519531 6.917969 9.570312 7.007812 9.632812 C 7.09375 9.699219 7.261719 9.824219 7.339844 9.910156 C 7.433594 10.019531 7.464844 10.117188 7.464844 10.269531 C 7.464844 10.601562 7.277344 10.765625 7.011719 10.765625 Z M 8.042969 9.65625 L 7.933594 9.65625 L 7.933594 10.457031 C 7.941406 10.511719 8.011719 10.503906 8.042969 10.496094 L 8.042969 10.730469 C 7.894531 10.75 7.6875 10.765625 7.6875 10.527344 L 7.6875 9.65625 L 7.582031 9.65625 L 7.582031 9.441406 L 7.679688 9.441406 L 7.679688 9.335938 L 7.933594 9.085938 L 7.933594 9.441406 L 8.042969 9.441406 Z M 8.949219 10.144531 L 8.449219 10.144531 L 8.449219 10.332031 C 8.449219 10.503906 8.503906 10.535156 8.578125 10.535156 C 8.671875 10.535156 8.695312 10.457031 8.691406 10.289062 L 8.945312 10.289062 C 8.957031 10.582031 8.851562 10.761719 8.597656 10.761719 C 8.308594 10.761719 8.1875 10.601562 8.195312 10.222656 L 8.195312 9.886719 C 8.183594 9.578125 8.3125 9.410156 8.5625 9.410156 C 8.914062 9.410156 8.949219 9.621094 8.949219 9.972656 Z M 9.164062 10.222656 L 9.164062 9.886719 C 9.152344 9.582031 9.28125 9.410156 9.53125 9.410156 C 9.882812 9.410156 9.921875 9.621094 9.921875 9.972656 L 9.921875 10.152344 L 9.417969 10.152344 L 9.417969 10.335938 C 9.417969 10.507812 9.472656 10.539062 9.546875 10.539062 C 9.640625 10.539062 9.667969 10.457031 9.660156 10.296875 L 9.914062 10.296875 C 9.925781 10.585938 9.820312 10.765625 9.566406 10.765625 C 9.277344 10.761719 9.15625 10.601562 9.164062 10.222656 Z M 13.910156 18.386719 C 13.464844 16.011719 12.640625 14.695312 9.660156 14.1875 C 12.636719 13.6875 13.460938 12.363281 13.910156 9.988281 C 13.464844 7.617188 12.640625 6.296875 9.660156 5.789062 C 12.636719 5.28125 13.460938 3.964844 13.910156 1.589844 C 14.359375 3.964844 15.183594 5.28125 18.164062 5.789062 C 15.1875 6.296875 14.363281 7.617188 13.910156 9.988281 C 14.359375 12.363281 15.183594 13.679688 18.164062 14.1875 C 15.183594 14.695312 14.359375 16.019531 13.910156 18.386719 Z M 10.175781 10.726562 L 10.175781 9.015625 L 10.429688 9.015625 L 10.429688 10.726562 Z M 11.054688 10.535156 C 11.148438 10.535156 11.175781 10.457031 11.167969 10.289062 L 11.421875 10.289062 C 11.433594 10.582031 11.332031 10.761719 11.078125 10.761719 C 10.785156 10.761719 10.667969 10.601562 10.671875 10.222656 L 10.671875 9.886719 C 10.660156 9.578125 10.792969 9.410156 11.039062 9.410156 C 11.390625 9.410156 11.429688 9.621094 11.429688 9.972656 L 11.429688 10.148438 L 10.925781 10.148438 L 10.925781 10.335938 C 10.925781 10.503906 10.984375 10.535156 11.054688 10.535156 Z M 11.90625 9.667969 C 11.9375 9.574219 11.96875 9.523438 12.003906 9.488281 C 12.078125 9.414062 12.125 9.417969 12.160156 9.417969 L 12.160156 9.773438 C 12.019531 9.757812 11.910156 9.796875 11.910156 9.984375 L 11.910156 10.730469 L 11.65625 10.730469 L 11.65625 9.445312 L 11.902344 9.445312 Z M 12.609375 10.535156 C 12.683594 10.535156 12.734375 10.472656 12.714844 10.390625 C 12.710938 10.316406 12.636719 10.273438 12.589844 10.234375 L 12.449219 10.117188 C 12.324219 10.015625 12.242188 9.894531 12.242188 9.714844 C 12.242188 9.519531 12.378906 9.402344 12.621094 9.402344 C 12.863281 9.402344 12.980469 9.554688 12.972656 9.828125 L 12.71875 9.828125 C 12.726562 9.683594 12.6875 9.632812 12.605469 9.632812 C 12.542969 9.632812 12.496094 9.664062 12.496094 9.734375 C 12.496094 9.8125 12.542969 9.84375 12.589844 9.886719 L 12.796875 10.050781 C 12.859375 10.09375 12.964844 10.21875 12.96875 10.304688 C 12.988281 10.527344 12.941406 10.761719 12.59375 10.761719 C 12.460938 10.761719 12.210938 10.695312 12.238281 10.300781 L 12.492188 10.300781 C 12.476562 10.539062 12.554688 10.535156 12.609375 10.535156 Z M 18.164062 14.183594 C 17.71875 11.808594 16.894531 10.492188 13.910156 9.984375 C 16.886719 9.476562 17.710938 8.160156 18.164062 5.785156 C 18.609375 8.160156 19.433594 9.476562 22.414062 9.984375 C 19.4375 10.492188 18.609375 11.808594 18.164062 14.183594 Z M 18.164062 14.183594 "/>
<path style=" stroke:none;fill-rule:nonzero;fill:rgb(13.72549%,12.156863%,12.54902%);fill-opacity:1;" d="M 7.007812 9.636719 C 6.921875 9.574219 6.851562 9.523438 6.851562 9.394531 C 6.851562 9.28125 6.90625 9.234375 7 9.234375 C 7.152344 9.234375 7.164062 9.382812 7.164062 9.539062 L 7.425781 9.539062 C 7.425781 9.367188 7.4375 8.980469 7 8.980469 C 6.714844 8.980469 6.578125 9.140625 6.578125 9.429688 C 6.578125 9.523438 6.601562 9.617188 6.644531 9.695312 C 6.753906 9.863281 6.929688 9.957031 7.074219 10.089844 C 7.140625 10.144531 7.183594 10.210938 7.183594 10.316406 C 7.183594 10.445312 7.132812 10.519531 7.011719 10.519531 C 6.878906 10.519531 6.835938 10.398438 6.839844 10.226562 L 6.839844 10.128906 L 6.570312 10.128906 L 6.570312 10.253906 C 6.570312 10.558594 6.683594 10.773438 7.011719 10.773438 C 7.277344 10.773438 7.457031 10.601562 7.457031 10.28125 C 7.457031 10.128906 7.425781 10.03125 7.332031 9.921875 C 7.261719 9.828125 7.101562 9.703125 7.007812 9.636719 Z M 7.933594 9.085938 L 7.679688 9.335938 L 7.679688 9.441406 L 7.582031 9.441406 L 7.582031 9.65625 L 7.6875 9.65625 L 7.6875 10.527344 C 7.6875 10.765625 7.894531 10.75 8.042969 10.730469 L 8.042969 10.496094 C 8.011719 10.503906 7.941406 10.507812 7.933594 10.457031 L 7.933594 9.65625 L 8.042969 9.65625 L 8.042969 9.441406 L 7.933594 9.441406 Z M 8.5625 9.402344 C 8.3125 9.402344 8.183594 9.574219 8.195312 9.878906 L 8.195312 10.21875 C 8.1875 10.597656 8.308594 10.757812 8.597656 10.757812 C 8.855469 10.757812 8.957031 10.574219 8.945312 10.285156 L 8.691406 10.285156 C 8.695312 10.445312 8.671875 10.527344 8.578125 10.527344 C 8.5 10.527344 8.449219 10.496094 8.449219 10.328125 L 8.449219 10.140625 L 8.949219 10.140625 L 8.949219 9.972656 C 8.949219 9.621094 8.914062 9.402344 8.5625 9.402344 Z M 8.695312 9.917969 L 8.441406 9.917969 L 8.441406 9.863281 C 8.441406 9.75 8.4375 9.632812 8.5625 9.632812 C 8.660156 9.632812 8.691406 9.671875 8.691406 9.804688 Z M 9.914062 10.289062 L 9.660156 10.289062 C 9.667969 10.449219 9.640625 10.535156 9.546875 10.535156 C 9.46875 10.535156 9.417969 10.503906 9.417969 10.332031 L 9.417969 10.144531 L 9.921875 10.144531 L 9.921875 9.972656 C 9.921875 9.621094 9.882812 9.410156 9.53125 9.410156 C 9.28125 9.410156 9.152344 9.582031 9.164062 9.886719 L 9.164062 10.222656 C 9.15625 10.601562 9.277344 10.761719 9.566406 10.761719 C 9.828125 10.761719 9.925781 10.582031 9.914062 10.289062 Z M 9.417969 9.863281 C 9.417969 9.75 9.410156 9.632812 9.535156 9.632812 C 9.636719 9.632812 9.667969 9.671875 9.667969 9.804688 L 9.667969 9.917969 L 9.410156 9.917969 L 9.410156 9.863281 Z M 10.175781 9.015625 L 10.429688 9.015625 L 10.429688 10.726562 L 10.175781 10.726562 Z M 11.429688 10.144531 L 11.429688 9.972656 C 11.429688 9.621094 11.390625 9.410156 11.039062 9.410156 C 10.792969 9.410156 10.660156 9.582031 10.671875 9.886719 L 10.671875 10.222656 C 10.667969 10.601562 10.785156 10.761719 11.078125 10.761719 C 11.335938 10.761719 11.433594 10.582031 11.421875 10.289062 L 11.175781 10.289062 C 11.179688 10.449219 11.152344 10.535156 11.0625 10.535156 C 10.984375 10.535156 10.929688 10.503906 10.929688 10.332031 L 10.929688 10.144531 Z M 10.925781 9.863281 C 10.925781 9.75 10.921875 9.632812 11.046875 9.632812 C 11.148438 9.632812 11.175781 9.671875 11.175781 9.804688 L 11.175781 9.917969 L 10.921875 9.917969 L 10.921875 9.863281 Z M 11.65625 9.441406 L 11.65625 10.726562 L 11.910156 10.726562 L 11.910156 9.980469 C 11.914062 9.789062 12.019531 9.75 12.160156 9.765625 L 12.160156 9.414062 C 12.125 9.414062 12.070312 9.414062 12.003906 9.480469 C 11.96875 9.519531 11.9375 9.570312 11.90625 9.664062 L 11.902344 9.664062 L 11.902344 9.433594 L 11.65625 9.433594 Z M 12.242188 10.300781 C 12.210938 10.695312 12.464844 10.761719 12.601562 10.761719 C 12.949219 10.761719 12.996094 10.527344 12.972656 10.304688 C 12.964844 10.21875 12.863281 10.097656 12.800781 10.050781 L 12.59375 9.886719 C 12.546875 9.84375 12.5 9.8125 12.5 9.734375 C 12.5 9.664062 12.546875 9.632812 12.609375 9.632812 C 12.699219 9.632812 12.734375 9.6875 12.726562 9.828125 L 12.980469 9.828125 C 12.984375 9.554688 12.871094 9.402344 12.625 9.402344 C 12.382812 9.402344 12.246094 9.519531 12.246094 9.714844 C 12.246094 9.902344 12.332031 10.019531 12.457031 10.117188 L 12.59375 10.234375 C 12.640625 10.273438 12.714844 10.3125 12.71875 10.390625 C 12.734375 10.472656 12.6875 10.535156 12.617188 10.535156 C 12.558594 10.535156 12.480469 10.539062 12.5 10.300781 Z M 12.242188 10.300781 "/>
<path style=" stroke:none;fill-rule:nonzero;fill:rgb(94.509804%,78.431373%,9.019608%);fill-opacity:1;" d="M 13.910156 9.996094 C 14.359375 7.621094 15.183594 6.304688 18.164062 5.796875 C 15.1875 5.289062 14.363281 3.972656 13.910156 1.597656 C 13.464844 3.972656 12.640625 5.289062 9.660156 5.796875 C 12.636719 6.304688 13.464844 7.625 13.910156 9.996094 Z M 13.910156 9.996094 "/>
<path style=" stroke:none;fill-rule:nonzero;fill:rgb(12.54902%,25.490196%,50.980392%);fill-opacity:1;" d="M 13.910156 9.996094 C 13.464844 12.367188 12.640625 13.6875 9.660156 14.195312 C 12.636719 14.703125 13.460938 16.019531 13.910156 18.394531 C 14.359375 16.019531 15.183594 14.703125 18.164062 14.195312 C 15.183594 13.6875 14.359375 12.367188 13.910156 9.996094 Z M 13.910156 9.996094 "/>
<path style=" stroke:none;fill-rule:nonzero;fill:rgb(74.901961%,12.54902%,14.901961%);fill-opacity:1;" d="M 18.164062 5.785156 C 17.71875 8.160156 16.894531 9.476562 13.910156 9.984375 C 16.886719 10.492188 17.710938 11.808594 18.164062 14.183594 C 18.609375 11.808594 19.433594 10.492188 22.414062 9.984375 C 19.4375 9.480469 18.609375 8.160156 18.164062 5.785156 Z M 18.164062 5.785156 "/>
</g>
</svg>
