<?xml version="1.0" encoding="UTF-8"?>
<svg xmlns="http://www.w3.org/2000/svg" xmlns:xlink="http://www.w3.org/1999/xlink" width="35pt" height="25pt" viewBox="0 0 35 25" version="1.1">
<g id="surface1">
<path style=" stroke:none;fill-rule:nonzero;fill:rgb(100%,100%,100%);fill-opacity:1;" d="M 29.339844 17.484375 C 27.742188 17.164062 25.652344 17.078125 24.765625 17.078125 L 3.714844 17.078125 C 2.40625 17.078125 1.046875 17.078125 0.351562 16 C -0.351562 14.910156 0.03125 13.832031 1.222656 11.6875 C 1.304688 11.53125 4.917969 4.714844 4.917969 4.714844 C 4.917969 4.714844 5.289062 5.171875 5.65625 5.464844 C 6.027344 5.75 6.40625 5.910156 7.402344 5.910156 C 9.191406 5.910156 20.695312 5.882812 20.8125 5.882812 C 23.152344 5.882812 25.507812 6.125 27.039062 7.808594 C 27.828125 7.894531 30.390625 8.230469 32.507812 9.25 C 33.742188 9.847656 34.558594 10.730469 34.859375 11.816406 C 34.953125 12.144531 35 12.492188 35 12.847656 C 35 13.871094 34.609375 15.015625 33.863281 16.195312 C 32.28125 18.695312 30.8125 19.566406 30.75 19.621094 C 29.847656 20.257812 28.980469 20.285156 28.980469 20.285156 C 28.980469 20.285156 29.761719 19.386719 30.03125 18.488281 C 30.304688 17.585938 29.339844 17.484375 29.339844 17.484375 Z M 29.339844 17.484375 "/>
<path style=" stroke:none;fill-rule:nonzero;fill:rgb(0%,16.078431%,36.862745%);fill-opacity:1;" d="M 32.257812 9.804688 C 29.847656 8.644531 26.753906 8.398438 26.753906 8.398438 C 25.40625 6.738281 23.125 6.496094 20.820312 6.496094 C 20.820312 6.496094 9.214844 6.519531 7.410156 6.519531 C 5.3125 6.519531 5.097656 5.683594 5.097656 5.683594 L 2.277344 10.988281 L 9.59375 10.988281 C 11.898438 10.988281 12.007812 10.753906 13.539062 9.628906 C 15.164062 8.429688 16.453125 8 17.992188 8 C 19.523438 8 20.539062 8.34375 22.238281 9.105469 C 23.945312 9.863281 24.855469 10.238281 25.871094 9.796875 C 25.871094 9.796875 25.066406 10.882812 22.652344 9.863281 C 20.238281 8.847656 19.589844 8.628906 18.121094 8.628906 C 16.679688 8.628906 15.019531 9.328125 12.9375 11.410156 L 15.414062 13.414062 C 15.414062 13.414062 14.835938 14.304688 14.46875 14.875 C 14.089844 15.445312 14.125 15.824219 14.332031 16.101562 C 14.527344 16.378906 14.785156 16.507812 15.695312 16.507812 C 16.617188 16.507812 23.960938 16.492188 24.777344 16.492188 C 25.488281 16.492188 27.726562 16.5625 29.472656 16.90625 C 31.785156 17.371094 30.296875 19.335938 30.296875 19.335938 C 30.296875 19.335938 31.84375 18.304688 33.382812 15.886719 C 35.085938 13.175781 34.652344 10.964844 32.257812 9.804688 Z M 32.257812 9.804688 "/>
<path style=" stroke:none;fill-rule:nonzero;fill:rgb(100%,100%,100%);fill-opacity:1;" d="M 28 10.238281 C 26.910156 9.976562 27.847656 9.339844 27.847656 9.339844 C 26.273438 9.65625 25.6875 10.953125 25.550781 11.304688 C 25.523438 11.359375 25.5 11.402344 25.472656 11.464844 C 24.605469 13.226562 23.8125 13.128906 22.328125 13.128906 L 19.773438 13.128906 C 17.710938 13.128906 16.75 14.160156 15.757812 15.910156 L 16.925781 15.910156 C 17.992188 14.3125 18.800781 13.890625 20.910156 13.769531 C 25.722656 13.769531 29.566406 15.160156 31.59375 16.222656 C 34.476562 11.351562 30.1875 10.546875 28 10.238281 Z M 19.03125 15.894531 C 19.574219 15.074219 20.667969 14.796875 22.429688 14.902344 C 26.789062 15.152344 29.289062 16.007812 31.242188 16.734375 C 28.84375 15.324219 24.558594 14.304688 21.585938 14.3125 C 20.132812 14.324219 18.863281 14.574219 18.121094 15.894531 Z M 23.710938 11.058594 C 23.140625 11.851562 22.394531 12.128906 20.273438 11.980469 C 17.804688 11.808594 18.441406 10.773438 18.726562 10.253906 L 18.714844 10.253906 C 18.792969 10.105469 18.933594 9.863281 19.070312 9.613281 C 17.175781 9.492188 15.792969 10.964844 15.792969 10.964844 C 17.203125 12.359375 18.140625 12.507812 19.421875 12.507812 L 21.800781 12.507812 C 24.019531 12.507812 24.554688 11.507812 24.761719 11.058594 C 24.382812 11.109375 24.039062 11.101562 23.710938 11.058594 Z M 23.710938 11.058594 "/>
<path style=" stroke:none;fill-rule:nonzero;fill:rgb(30.196078%,74.117647%,21.960784%);fill-opacity:1;" d="M 22.632812 10.824219 L 22.496094 10.761719 C 22.28125 10.996094 21.90625 11.128906 21.542969 11.082031 C 21.0625 11.019531 20.789062 10.667969 20.925781 10.304688 C 20.941406 10.253906 20.976562 10.199219 21.007812 10.148438 C 20.769531 10.054688 20.519531 9.960938 20.28125 9.871094 C 19.792969 10.667969 19.496094 11.203125 21.210938 11.34375 C 22.277344 11.4375 22.558594 11.246094 22.785156 10.867188 C 22.722656 10.855469 22.679688 10.839844 22.632812 10.824219 Z M 22.632812 10.824219 "/>
<path style=" stroke:none;fill-rule:nonzero;fill:rgb(69.803922%,71.764706%,73.333333%);fill-opacity:1;" d="M 14.070312 13.855469 C 13.195312 15.394531 12.84375 15.742188 13.460938 16.472656 L 3.714844 16.472656 C 2.277344 16.472656 1.339844 16.421875 0.859375 15.671875 C 0.394531 14.945312 0.488281 14.253906 1.742188 11.980469 L 10.03125 11.980469 C 11.460938 11.980469 11.832031 12.058594 12.601562 12.664062 C 13.375 13.277344 14.070312 13.855469 14.070312 13.855469 Z M 14.070312 13.855469 "/>
</g>
</svg>
