<?xml version="1.0" encoding="UTF-8"?>
<svg xmlns="http://www.w3.org/2000/svg" xmlns:xlink="http://www.w3.org/1999/xlink" width="35pt" height="25pt" viewBox="0 0 35 25" version="1.1">
<g id="surface1">
<path style=" stroke:none;fill-rule:nonzero;fill:rgb(100%,100%,100%);fill-opacity:1;" d="M 11.3125 14.574219 C 11.347656 14.988281 11.496094 15.800781 11.960938 16.714844 C 12.546875 17.84375 13.773438 19.34375 16.292969 20.195312 C 16.695312 20.824219 17.160156 21.410156 17.703125 21.941406 C 19.625 23.855469 22.167969 24.90625 24.875 24.898438 C 27.585938 24.898438 30.128906 23.835938 32.042969 21.914062 C 33.957031 19.992188 35.007812 17.449219 35 14.738281 C 35 12.03125 33.9375 9.484375 32.015625 7.574219 C 30.496094 6.054688 28.59375 5.082031 26.488281 4.746094 C 23.652344 2.171875 20.328125 3.097656 20.191406 3.132812 L 19.980469 3.199219 C 18.964844 3.535156 18.433594 3.152344 18.09375 2.878906 C 17.71875 2.585938 17.296875 2.28125 16.90625 2.054688 C 15.550781 1.292969 13.628906 1.265625 12 1.917969 C 10.929688 2.28125 10.398438 1.804688 10.078125 1.585938 C 7.960938 0.132812 5.363281 -0.226562 2.597656 0.386719 C 0.742188 0.800781 0 1.175781 0 1.175781 C 0 1.175781 1.273438 1.359375 2.597656 1.917969 C 3.6875 2.375 4.558594 2.960938 5.21875 4.011719 C 5.21875 4.011719 5.628906 4.617188 5.363281 4.800781 C 5.0625 5 4.75 4.507812 4.75 4.507812 C 4.742188 4.863281 4.742188 5.210938 4.757812 5.476562 C 4.914062 8.277344 5.484375 9.972656 6.835938 11.253906 C 7.449219 11.839844 8.492188 12.40625 10.09375 13.035156 C 10.847656 13.339844 11.25 13.714844 11.3125 14.574219 Z M 11.3125 14.574219 "/>
<path style=" stroke:none;fill-rule:nonzero;fill:rgb(0%,17.647059%,39.607843%);fill-opacity:1;" d="M 31.578125 8.03125 C 30.101562 6.566406 28.234375 5.640625 26.214844 5.347656 C 23.578125 2.832031 20.390625 3.757812 20.390625 3.757812 C 21.070312 3.855469 21.519531 4.257812 21.34375 4.707031 C 21.226562 5 20.738281 5.019531 20.511719 5.019531 C 19.796875 5.027344 19.183594 4.589844 18.691406 4.195312 C 18.175781 3.785156 17.34375 3.042969 16.601562 2.621094 C 15.210938 1.84375 13.007812 1.933594 11.414062 2.960938 C 12.367188 3.023438 13.519531 3.296875 14.195312 3.867188 C 14.582031 4.1875 15.066406 4.816406 14.671875 5.121094 C 14.324219 5.375 13.464844 5.246094 13.023438 4.992188 C 12.328125 4.589844 11.695312 3.976562 11.320312 3.535156 C 8.796875 0.5625 5.21875 0.398438 2.261719 1.121094 C 4.199219 1.660156 5.492188 2.765625 6.289062 4.671875 C 7.085938 6.574219 7.707031 7.378906 9.023438 7.902344 C 9.847656 8.222656 10.066406 8.285156 10.003906 8.652344 C 9.914062 9.183594 8.933594 8.925781 8.191406 8.644531 C 7.285156 8.285156 6.085938 7.308594 5.382812 5.476562 C 5.511719 7.847656 5.96875 9.53125 7.304688 10.804688 C 7.871094 11.34375 8.914062 11.902344 10.542969 12.535156 C 11.585938 12.9375 12.410156 13.175781 13.1875 13.871094 C 14.09375 14.683594 13.710938 15.214844 13.105469 15.113281 C 12.429688 14.996094 11.945312 14.308594 11.945312 14.308594 C 11.945312 14.308594 11.945312 18.171875 16.722656 19.664062 C 17.117188 20.324219 17.601562 20.9375 18.160156 21.492188 C 19.953125 23.289062 22.34375 24.265625 24.878906 24.265625 C 27.414062 24.265625 29.800781 23.269531 31.585938 21.476562 C 33.378906 19.683594 34.359375 17.292969 34.359375 14.757812 C 34.359375 12.203125 33.371094 9.824219 31.578125 8.03125 Z M 31.578125 8.03125 "/>
<path style=" stroke:none;fill-rule:nonzero;fill:rgb(39.215686%,56.078431%,80%);fill-opacity:1;" d="M 31.0625 8.515625 C 29.636719 7.085938 27.816406 6.21875 25.839844 6 C 24.136719 4.304688 22.441406 4.386719 22.441406 4.386719 C 23.183594 4.855469 22.800781 5.890625 21.152344 6.117188 C 19.511719 6.347656 17.425781 5.789062 16.421875 4.605469 C 15.375 3.390625 14.589844 3.335938 14.589844 3.335938 C 15.496094 3.902344 15.558594 4.578125 16.109375 5.613281 C 16.65625 6.648438 17.792969 7.023438 18.78125 7.085938 C 19.824219 7.152344 19.84375 7.628906 19.011719 8.121094 C 18.09375 8.660156 17.289062 8.148438 16.703125 7.574219 C 15.777344 6.65625 14.855469 6.484375 13.574219 6.492188 C 12.292969 6.511719 10.609375 6.675781 9.179688 6.144531 C 7.753906 5.613281 6.808594 3.738281 6.808594 3.738281 C 7.515625 6.226562 9.078125 7.40625 10.535156 7.691406 C 12.457031 8.066406 13.785156 8.523438 14.597656 9.183594 C 15.394531 9.824219 15.816406 10.464844 16.109375 11.351562 C 16.335938 12.039062 16.382812 12.945312 16.15625 13 C 15.890625 13.066406 15.835938 12.699219 15.523438 12.058594 C 15.175781 11.351562 14.761719 10.804688 13.941406 10.363281 C 12.8125 9.761719 11.714844 9.796875 10.589844 9.816406 C 9.703125 9.824219 9.179688 9.722656 9.179688 9.722656 C 9.179688 9.722656 9.214844 9.84375 10.664062 10.171875 C 12.273438 10.539062 13.839844 11.445312 14.882812 13.660156 C 15.769531 15.542969 15.304688 16.871094 13.34375 16.277344 C 13.34375 16.277344 14.257812 18.308594 17.253906 19.03125 C 17.636719 19.710938 18.121094 20.339844 18.679688 20.90625 C 20.335938 22.566406 22.542969 23.480469 24.875 23.480469 C 27.21875 23.480469 29.417969 22.566406 31.074219 20.90625 C 32.730469 19.25 33.644531 17.054688 33.644531 14.710938 C 33.636719 12.367188 32.722656 10.171875 31.0625 8.515625 Z M 31.0625 8.515625 "/>
<path style=" stroke:none;fill-rule:nonzero;fill:rgb(100%,100%,100%);fill-opacity:1;" d="M 24.867188 6.375 C 27.09375 6.375 29.1875 7.242188 30.761719 8.816406 C 32.335938 10.390625 33.207031 12.488281 33.207031 14.710938 C 33.207031 19.304688 29.460938 23.050781 24.867188 23.050781 C 22.644531 23.050781 20.546875 22.179688 18.972656 20.605469 C 17.398438 19.03125 16.53125 16.9375 16.53125 14.710938 C 16.53125 12.488281 17.398438 10.390625 18.972656 8.816406 C 20.546875 7.242188 22.644531 6.375 24.867188 6.375 Z M 24.867188 6.375 "/>
<path style=" stroke:none;fill-rule:nonzero;fill:rgb(0%,17.647059%,39.607843%);fill-opacity:1;" d="M 24.878906 22.335938 C 20.667969 22.34375 17.253906 18.929688 17.242188 14.730469 C 17.234375 10.519531 20.640625 7.105469 24.851562 7.097656 C 29.058594 7.085938 32.472656 10.5 32.484375 14.703125 C 32.492188 18.914062 29.085938 22.328125 24.878906 22.335938 Z M 24.878906 22.335938 "/>
<path style=" stroke:none;fill-rule:nonzero;fill:rgb(100%,100%,100%);fill-opacity:1;" d="M 23 13.175781 L 20.738281 13.175781 L 20 14.5 L 19 11.664062 L 30.714844 11.664062 L 29.71875 14.5 L 28.976562 13.175781 L 26.753906 13.175781 L 24.878906 21.402344 Z M 23 13.175781 "/>
<path style=" stroke:none;fill-rule:nonzero;fill:rgb(77.254902%,78.823529%,81.960784%);fill-opacity:1;" d="M 30.714844 11.664062 L 19 11.664062 L 19.191406 12.203125 L 24.777344 12.203125 L 23 13.175781 L 24.875 21.402344 L 24.875 12.195312 L 30.523438 12.195312 Z M 30.714844 11.664062 "/>
<path style=" stroke:none;fill-rule:nonzero;fill:rgb(75.294118%,0%,11.372549%);fill-opacity:1;" d="M 19.121094 5.082031 C 17.417969 5.039062 16.730469 4.359375 15.679688 3.519531 C 14.386719 2.484375 12.949219 2.769531 12.949219 2.769531 C 13.8125 2.273438 15.496094 2.253906 16.710938 3.324219 C 17.792969 4.269531 18.324219 4.78125 19.121094 5.082031 Z M 4.621094 1.339844 C 4.621094 1.339844 6.214844 1.304688 7.597656 3.792969 C 8.757812 5.886719 10.992188 6.308594 12.621094 5.84375 C 12.621094 5.84375 10.480469 5.789062 9.300781 3.699219 C 8.101562 1.578125 6.515625 0.992188 4.621094 1.339844 Z M 13.621094 13.402344 C 13.621094 13.402344 13.390625 11.085938 10.09375 10.417969 C 6.773438 9.742188 6.34375 8.011719 6.34375 8.011719 C 6.34375 8.011719 6.359375 10.511719 9.226562 11.269531 C 11.222656 11.808594 12.6875 12.113281 13.621094 13.402344 Z M 26.011719 10.933594 L 25.5625 9.59375 L 26.699219 8.761719 L 25.289062 8.773438 L 24.851562 7.433594 L 24.429688 8.78125 L 23.019531 8.789062 L 24.171875 9.605469 L 23.742188 10.949219 L 24.878906 10.109375 Z M 20.988281 15.65625 L 20.054688 16.707031 L 18.761719 16.140625 L 19.476562 17.347656 L 18.542969 18.398438 L 19.917969 18.089844 L 20.628906 19.304688 L 20.757812 17.90625 L 22.132812 17.605469 L 20.839844 17.046875 Z M 27.585938 17.648438 L 28.96875 17.925781 L 29.125 19.324219 L 29.820312 18.097656 L 31.203125 18.382812 L 30.25 17.347656 L 30.945312 16.121094 L 29.664062 16.707031 L 28.710938 15.664062 L 28.875 17.0625 Z M 27.585938 17.648438 "/>
</g>
</svg>
