<?xml version="1.0" encoding="UTF-8" standalone="no"?>
<!-- Created with Inkscape (http://www.inkscape.org/) -->

<svg
   xmlns:dc="http://purl.org/dc/elements/1.1/"
   xmlns:cc="http://creativecommons.org/ns#"
   xmlns:rdf="http://www.w3.org/1999/02/22-rdf-syntax-ns#"
   xmlns:svg="http://www.w3.org/2000/svg"
   xmlns="http://www.w3.org/2000/svg"
   version="1.1"
   width="280"
   height="200"
   viewBox="0 0 280.00001 200"
   id="svg2"
   xml:space="preserve"><metadata
     id="metadata210"><rdf:RDF><cc:Work
         rdf:about=""><dc:format>image/svg+xml</dc:format><dc:type
           rdf:resource="http://purl.org/dc/dcmitype/StillImage" /><dc:title></dc:title></cc:Work></rdf:RDF></metadata><defs
     id="defs4" /><path
     d="m 215.35392,42.192175 -0.53977,-2.86386 -2.84725,-0.59458 c -0.19377,-0.036 -19.0383,-3.99157 -35.80733,-13.35211 C 152.26494,11.997952 144.21371,3.5514317 144.14284,3.4733717 L 140.95014,-1.525879e-5 137.75688,3.4562097 c -0.0825,0.08803 -8.15089,8.5533683 -32.02835,21.9226453 -16.760174,9.35445 -35.619659,13.31889 -35.814531,13.35488 l -2.851122,0.59458 -0.530918,2.86386 c -3.328894,17.87737 -3.376505,35.88982 -0.135636,53.56955 l 1.447706,7.039225 0.403032,1.62818 c 4.561796,18.54724 12.61857,35.87377 23.971021,51.50512 12.311318,16.96224 27.959828,31.17024 46.500428,42.24256 l 2.22056,1.32813 2.22885,-1.32813 c 18.53895,-11.07232 34.18192,-25.28032 46.49877,-42.24256 11.35245,-15.63135 19.40812,-32.95179 23.96992,-51.50512 l 1.85073,-8.667405 c 3.24143,-17.67973 3.19824,-35.68554 -0.13342,-53.56955"
     id="path6" /><path
     d="m 211.08942,42.983845 c 0,0 -19.52383,-4.02368 -37.04356,-13.81826 -25.20005,-14.105582 -33.1007,-22.7630303 -33.1007,-22.7630303 0,0 -7.91118,8.6574483 -33.10071,22.7630303 -17.5297,9.79458 -37.049095,13.81826 -37.049095,13.81826 -3.600164,19.32729 -3.177202,38.67728 0.896858,57.107705 H 210.18813 c 4.07738,-18.430985 4.49592,-37.780975 0.90129,-57.107705"
     id="path8"
     style="fill:#f89728" /><path
     d="m 140.94737,194.44765 c 36.66765,-21.89385 60.81085,-56.16268 69.24131,-94.35499 H 71.691106 c 8.443752,38.19231 32.570894,72.46114 69.256264,94.35499"
     id="path10"
     style="fill:#b30838" /><path
     d="m 124.75853,160.21647 v -2.18236 c 0,-0.3986 0,-0.59181 -0.24857,-0.59181 -0.31058,0 -1.54902,0.63499 -1.90666,0.78835 -0.0825,0.0349 -0.16885,0.072 -0.23418,0.072 -0.0504,0 -0.13286,-0.0925 -0.13286,-0.19377 0,-0.098 0.0825,-0.17605 0.16331,-0.22532 0.0703,-0.0432 3.23644,-2.13087 3.81386,-2.5638 0.14727,-0.0952 0.29453,-0.21646 0.42463,-0.21646 0.15169,0 0.1993,0.18767 0.1993,0.3521 0,0.13287 -0.10131,1.77544 -0.10131,4.32485 v 3.0781 c 0,1.5994 0,3.01112 0.0681,3.7502 0.0476,0.53147 0.13287,0.77395 0.65714,0.89519 0.25135,0.0437 0.95721,0.0985 1.09118,0.0985 0.0653,0 0.14726,0.0487 0.14726,0.16719 0,0.11515 -0.0819,0.14726 -0.26296,0.14726 -1.2545,0 -2.30692,-0.0493 -2.75591,-0.0493 -0.37258,0 -1.75994,0.0493 -2.82067,0.0493 -0.17771,0 -0.27404,-0.0321 -0.27404,-0.14726 0,-0.11847 0.062,-0.16719 0.13287,-0.16719 0.18048,0 1.01921,-0.0548 1.31816,-0.12124 0.52704,-0.11516 0.60898,-0.34048 0.65936,-0.87195 0.062,-0.73908 0.098,-2.1508 0.0797,-3.75019 l -0.0177,-2.64241 z"
     id="path12"
     style="fill:#010101" /><path
     d="m 124.75853,160.21646 v -2.18235 c 0,-0.3986 0,-0.59182 -0.24857,-0.59182 -0.31058,0 -1.54902,0.635 -1.90666,0.78835 -0.0825,0.0349 -0.16885,0.072 -0.23418,0.072 -0.0504,0 -0.13286,-0.0925 -0.13286,-0.19376 0,-0.098 0.0825,-0.17605 0.16331,-0.22532 0.0703,-0.0432 3.23644,-2.13087 3.81386,-2.5638 0.14726,-0.0952 0.29453,-0.21646 0.42463,-0.21646 0.15169,0 0.1993,0.18767 0.1993,0.3521 0,0.13286 -0.10131,1.77544 -0.10131,4.32485 v 3.0781 c 0,1.5994 0,3.01112 0.0681,3.7502 0.0476,0.53147 0.13287,0.77395 0.65714,0.89519 0.25135,0.0437 0.95721,0.0985 1.09118,0.0985 0.0653,0 0.14726,0.0487 0.14726,0.17051 0,0.11238 -0.0819,0.14449 -0.26297,0.14449 -1.25449,0 -2.30691,-0.0493 -2.7559,-0.0493 -0.37258,0 -1.75994,0.0493 -2.82067,0.0493 -0.17771,0 -0.27404,-0.0321 -0.27404,-0.14449 0,-0.12124 0.062,-0.17051 0.13287,-0.17051 0.18048,0 1.01921,-0.0548 1.31816,-0.12125 0.52704,-0.11515 0.60898,-0.34047 0.65935,-0.87194 0.062,-0.73908 0.098,-2.1508 0.0797,-3.7502 l -0.0177,-2.64241 z"
     id="path14"
     style="fill:none;stroke:#000000;stroke-width:0.16500001;stroke-miterlimit:10" /><path
     d="m 139.47475,159.62742 c 0,4.65978 -4.03918,7.59063 -6.07926,8.56056 -0.0792,0.0432 -0.16165,0.0664 -0.2912,0.0664 -0.072,0 -0.15446,-0.0836 -0.15446,-0.17052 0,-0.12124 0.11516,-0.21646 0.19764,-0.2768 1.71179,-1.05409 4.28444,-3.78785 4.28444,-7.71188 0,-2.94523 -1.23567,-4.24125 -2.50733,-4.24125 -1.18252,0 -1.97475,1.06516 -1.97475,2.47743 0,2.54332 1.63262,3.14399 2.19398,3.14399 0.57632,0 0.90683,-0.098 1.12052,-0.1993 0.17771,-0.098 0.26518,-0.17605 0.32774,-0.17605 0.0648,0 0.1301,0.0664 0.1301,0.14449 0,0.0487 -0.0493,0.15889 -0.0825,0.18159 -0.47611,0.51707 -1.33089,0.76509 -2.17239,0.76509 -2.37501,0 -3.36211,-1.81309 -3.36211,-3.21042 0,-2.24934 1.67912,-3.88029 4.21967,-3.88029 2.68337,0 4.1499,2.00077 4.1499,4.52692"
     id="path16"
     style="fill:#010101" /><path
     d="m 139.47475,159.62742 c 0,4.65978 -4.03918,7.59063 -6.07926,8.56056 -0.0792,0.0432 -0.16165,0.0664 -0.2912,0.0664 -0.072,0 -0.15446,-0.0836 -0.15446,-0.17052 0,-0.12124 0.11516,-0.21646 0.19764,-0.27681 1.71178,-1.05408 4.28444,-3.78784 4.28444,-7.71187 0,-2.94523 -1.23567,-4.24125 -2.50733,-4.24125 -1.18252,0 -1.97475,1.06516 -1.97475,2.47743 0,2.54331 1.63262,3.14399 2.19398,3.14399 0.57632,0 0.90683,-0.098 1.12052,-0.1993 0.17771,-0.098 0.26518,-0.17605 0.32774,-0.17605 0.0648,0 0.1301,0.0664 0.1301,0.14449 0,0.0487 -0.0493,0.15889 -0.0825,0.18159 -0.47611,0.51707 -1.33089,0.76509 -2.17239,0.76509 -2.37501,0 -3.36211,-1.81309 -3.36211,-3.21042 0,-2.24934 1.67912,-3.87752 4.21967,-3.87752 2.68337,0 4.1499,1.998 4.1499,4.52415 z"
     id="path18"
     style="fill:none;stroke:#000000;stroke-width:0.16500001;stroke-miterlimit:10" /><path
     d="m 141.17546,167.86744 c -0.11571,0 -0.22809,-0.098 -0.22809,-0.23086 0,-0.13287 0.16055,-0.2829 0.32608,-0.43625 2.30526,-2.04118 5.58654,-4.64539 5.58654,-8.15365 0,-2.63023 -1.43663,-3.16447 -2.26041,-3.16447 -0.7042,0 -1.25173,0.13563 -1.74832,0.60067 -0.38698,0.38698 -0.69147,1.1637 -0.69147,1.59386 0,0.17051 -0.0476,0.32608 -0.20927,0.32608 -0.0864,0 -0.13397,-0.12124 -0.15113,-0.32608 -0.0144,-0.14449 -0.0969,-1.52743 -0.0969,-2.00686 0,-0.15003 0.0172,-0.21646 0.20041,-0.3377 0.63832,-0.33217 1.52909,-0.62947 2.97956,-0.62947 2.90151,0 4.13164,1.5994 4.13164,3.54259 0,3.23091 -3.53705,6.04549 -5.66626,7.76115 -0.0825,0.0548 -0.0493,0.10961 0.0332,0.10961 h 1.12328 c 0.28124,0 2.22333,-0.0116 2.83507,-0.0925 1.13768,-0.1384 1.67469,-0.70199 1.87676,-1.48425 0.046,-0.1993 0.0952,-0.26573 0.1993,-0.26573 0.10962,0 0.12955,0.15003 0.12955,0.31501 0,0.2685 -0.31169,1.81863 -0.47611,2.37612 -0.13287,0.44732 -0.39861,0.50213 -1.43497,0.50213 h -6.45849 z"
     id="path20"
     style="fill:#010101" /><path
     d="m 141.17546,167.86744 c -0.11571,0 -0.22809,-0.098 -0.22809,-0.23086 0,-0.13287 0.16055,-0.2829 0.32608,-0.43625 2.30526,-2.04118 5.58654,-4.64539 5.58654,-8.15366 0,-2.63023 -1.43663,-3.16114 -2.26041,-3.16114 -0.7042,0 -1.25173,0.13286 -1.74832,0.5979 -0.38698,0.38975 -0.69147,1.1637 -0.69147,1.59386 0,0.17052 -0.0476,0.32608 -0.20927,0.32608 -0.0864,0 -0.13397,-0.12124 -0.15113,-0.32608 -0.0144,-0.14449 -0.0969,-1.52742 -0.0969,-2.00686 0,-0.15003 0.0172,-0.21646 0.20041,-0.3377 0.63832,-0.33217 1.52909,-0.62946 2.97956,-0.62946 2.90151,0 4.13164,1.59939 4.13164,3.54259 0,3.2309 -3.53705,6.04548 -5.66626,7.76114 -0.0825,0.0548 -0.0493,0.10962 0.0332,0.10962 h 1.12328 c 0.28124,0 2.22333,-0.0116 2.83507,-0.0897 1.13768,-0.14173 1.67469,-0.70475 1.87676,-1.48701 0.046,-0.1993 0.0952,-0.26574 0.1993,-0.26574 0.10962,0 0.12955,0.1528 0.12955,0.31501 0,0.2685 -0.31169,1.81863 -0.47611,2.37612 -0.13287,0.44732 -0.39861,0.50213 -1.43497,0.50213 h -6.45849 z"
     id="path22"
     style="fill:none;stroke:#000000;stroke-width:0.16500001;stroke-miterlimit:10" /><path
     d="m 159.25213,155.3834 c 0.31169,0 0.39252,0.0548 0.39252,0.13287 0,0.10408 -0.0637,0.23694 -0.11516,0.30282 -1.36577,1.96313 -3.93787,8.57219 -4.18644,10.70029 -0.026,0.28622 0,0.39252 0,0.62338 0,0.32608 -1.32813,1.00481 -2.07329,1.00481 -0.18768,0 -0.23086,-0.0487 -0.23086,-0.19321 0,-0.17605 0.0316,-0.42463 0.11515,-0.68427 0.45895,-1.5994 2.56989,-6.50776 4.84193,-10.34764 h -4.26728 c -0.4595,0 -1.1493,0.0316 -1.54514,0.29729 -0.30283,0.1993 -0.51375,0.73299 -0.54863,0.99319 -0.0144,0.13287 -0.0637,0.22532 -0.16166,0.22532 -0.11515,0 -0.13286,-0.0925 -0.13286,-0.26297 0,-0.60344 0.24802,-2.55549 0.24802,-2.72545 0,-0.15556 0.0637,-0.23086 0.16165,-0.23086 0.098,0 0.47943,0.16443 2.22609,0.16443 h 5.27596 z"
     id="path24"
     style="fill:#010101" /><path
     d="m 159.25213,155.3834 c 0.31169,0 0.39252,0.0548 0.39252,0.13286 0,0.10408 -0.0637,0.23695 -0.11516,0.30283 -1.36577,1.96313 -3.93787,8.57219 -4.18644,10.70029 -0.026,0.28622 0,0.39252 0,0.62338 0,0.32608 -1.32813,1.00481 -2.07329,1.00481 -0.18768,0 -0.23086,-0.0487 -0.23086,-0.19321 0,-0.17605 0.0315,-0.42463 0.11515,-0.68427 0.45895,-1.5994 2.56989,-6.50776 4.84193,-10.34764 h -4.26728 c -0.4595,0 -1.1493,0.0316 -1.54514,0.29729 -0.30283,0.1993 -0.51375,0.73299 -0.54863,0.99319 -0.0144,0.13287 -0.0637,0.22532 -0.16166,0.22532 -0.11515,0 -0.13287,-0.0925 -0.13287,-0.26297 0,-0.60344 0.24802,-2.55549 0.24802,-2.72545 0,-0.15557 0.0637,-0.23086 0.16166,-0.23086 0.098,0 0.47943,0.16443 2.22609,0.16443 h 5.27596 z"
     id="path26"
     style="fill:none;stroke:#000000;stroke-width:0.16500001;stroke-miterlimit:10" /><path
     d="m 124.75853,159.61579 v -2.17405 c 0,-0.40137 0,-0.60067 -0.24857,-0.60067 -0.31058,0 -1.54348,0.64109 -1.90666,0.79444 -0.0825,0.0349 -0.16885,0.072 -0.23418,0.072 -0.0448,0 -0.13286,-0.0836 -0.13286,-0.18768 0,-0.098 0.088,-0.18158 0.16331,-0.23086 0.0703,-0.0404 3.23644,-2.13086 3.81386,-2.56102 0.14118,-0.10408 0.29453,-0.22533 0.42463,-0.22533 0.15169,0 0.1993,0.18768 0.1993,0.35764 0,0.12678 -0.10131,1.776 -0.10131,4.3254 v 3.07811 c 0,1.59939 0,3.01721 0.0681,3.73857 0.0476,0.54254 0.13287,0.78558 0.65714,0.90682 0.25135,0.0432 0.95721,0.0925 1.09118,0.0925 0.0653,0 0.14726,0.0548 0.14726,0.18214 0,0.10962 -0.0819,0.13287 -0.26296,0.13287 -1.2545,0 -2.30692,-0.0432 -2.75591,-0.0432 -0.37258,0 -1.75994,0.0432 -2.81458,0.0432 -0.1838,0 -0.28013,-0.0233 -0.28013,-0.13287 0,-0.12677 0.062,-0.18214 0.13287,-0.18214 0.18048,0 1.01921,-0.0493 1.31816,-0.10961 0.52704,-0.12124 0.60898,-0.34657 0.65936,-0.88911 0.062,-0.72191 0.098,-2.13917 0.0797,-3.73857 l -0.0177,-2.6485 z"
     id="path28"
     style="fill:#c9cacc" /><path
     d="m 124.75853,159.61579 v -2.17405 c 0,-0.40137 0,-0.60067 -0.24857,-0.60067 -0.31058,0 -1.54349,0.64385 -1.90666,0.79444 -0.0825,0.0349 -0.16885,0.072 -0.23418,0.072 -0.0448,0 -0.13286,-0.0836 -0.13286,-0.18768 0,-0.098 0.088,-0.18158 0.16331,-0.23086 0.0703,-0.0404 3.23644,-2.13086 3.81386,-2.56102 0.14117,-0.10408 0.29453,-0.22533 0.42463,-0.22533 0.15169,0 0.1993,0.18768 0.1993,0.35764 0,0.12678 -0.10131,1.776 -0.10131,4.3254 v 3.07811 c 0,1.59939 0,3.0172 0.0681,3.73857 0.0476,0.54586 0.13287,0.78558 0.65714,0.90682 0.25135,0.0432 0.95721,0.0925 1.09118,0.0925 0.0653,0 0.14726,0.0548 0.14726,0.18214 0,0.10962 -0.0819,0.13287 -0.26297,0.13287 -1.25449,0 -2.30691,-0.0432 -2.7559,-0.0432 -0.37258,0 -1.75994,0.0432 -2.81458,0.0432 -0.1838,0 -0.28013,-0.0233 -0.28013,-0.13287 0,-0.12678 0.062,-0.18214 0.13287,-0.18214 0.18048,0 1.01921,-0.0493 1.31816,-0.10961 0.52704,-0.12124 0.60898,-0.3438 0.65935,-0.88911 0.062,-0.72192 0.098,-2.13917 0.0797,-3.73857 l -0.0177,-2.6485 z"
     id="path30"
     style="fill:none;stroke:#c9cacc;stroke-width:0.16500001;stroke-miterlimit:10" /><path
     d="m 139.47475,159.03283 c 0,4.65979 -4.03918,7.59063 -6.07926,8.56057 -0.0853,0.0432 -0.16165,0.0664 -0.29729,0.0664 -0.0664,0 -0.14892,-0.0924 -0.14892,-0.17605 0,-0.1157 0.11515,-0.21092 0.19764,-0.27736 1.71178,-1.05353 4.28444,-3.7823 4.28444,-7.70578 0,-2.94468 -1.23568,-4.25011 -2.5018,-4.25011 -1.18806,0 -1.98083,1.06848 -1.98083,2.48574 0,2.54386 1.63261,3.15007 2.19398,3.15007 0.57631,0 0.90682,-0.10408 1.12052,-0.1993 0.17771,-0.10962 0.26518,-0.18768 0.32774,-0.18768 0.0648,0 0.1301,0.072 0.1301,0.15003 0,0.0437 -0.0493,0.1445 -0.0825,0.18214 -0.47611,0.51708 -1.3309,0.7568 -2.17239,0.7568 -2.37502,0 -3.36211,-1.80479 -3.36211,-3.20489 0,-2.24657 1.67911,-3.87752 4.21966,-3.87752 2.68448,-5.6e-4 4.15101,2.00021 4.15101,4.52691"
     id="path32"
     style="fill:#c9cacc" /><path
     d="m 139.47475,159.03283 c 0,4.65979 -4.03918,7.59063 -6.07926,8.56057 -0.0853,0.0432 -0.16165,0.0664 -0.29729,0.0664 -0.0664,0 -0.14892,-0.0924 -0.14892,-0.17605 0,-0.1157 0.11515,-0.21092 0.19764,-0.27736 1.71178,-1.05353 4.28443,-3.7823 4.28443,-7.70578 0,-2.94468 -1.23567,-4.25011 -2.50179,-4.25011 -1.18806,0 -1.98083,1.06848 -1.98083,2.48573 0,2.54387 1.63261,3.15008 2.19398,3.15008 0.57631,0 0.90682,-0.10408 1.12052,-0.1993 0.17771,-0.10962 0.26518,-0.18768 0.32774,-0.18768 0.0648,0 0.1301,0.072 0.1301,0.15003 0,0.0437 -0.0493,0.1445 -0.0825,0.18214 -0.47611,0.51708 -1.3309,0.75956 -2.17239,0.75956 -2.37502,0 -3.36211,-1.80755 -3.36211,-3.20765 0,-2.24657 1.67911,-3.87752 4.21966,-3.87752 2.68448,-5.6e-4 4.15101,2.00021 4.15101,4.52691 z"
     id="path34"
     style="fill:none;stroke:#c9cacc;stroke-width:0.16500001;stroke-miterlimit:10" /><path
     d="m 141.17546,167.27286 c -0.11571,0 -0.22809,-0.0897 -0.22809,-0.23695 0,-0.12678 0.16055,-0.2829 0.32608,-0.43016 2.30526,-2.04727 5.58654,-4.63986 5.58654,-8.15366 0,-2.63023 -1.43663,-3.16115 -2.26041,-3.16115 -0.7042,0 -1.25173,0.13287 -1.74832,0.59182 -0.38698,0.38975 -0.69147,1.16924 -0.69147,1.59995 0,0.17605 -0.0476,0.32054 -0.20927,0.32054 -0.0864,0 -0.13397,-0.12124 -0.15113,-0.32054 -0.0172,-0.14449 -0.0969,-1.52743 -0.0969,-2.01239 0,-0.15003 0.0172,-0.21647 0.20041,-0.33217 0.63832,-0.33217 1.52909,-0.62947 2.97956,-0.62947 2.90151,0 4.13164,1.59995 4.13164,3.54868 0,3.21928 -3.53705,6.03442 -5.66626,7.75506 -0.0825,0.0548 -0.0493,0.11515 0.0332,0.11515 h 1.12328 c 0.28124,0 2.22333,-0.0232 2.83507,-0.10131 1.13768,-0.13564 1.67469,-0.7042 1.87676,-1.47816 0.046,-0.2076 0.10076,-0.2685 0.1993,-0.2685 0.11515,0 0.12955,0.1528 0.12955,0.30892 0,0.27459 -0.31169,1.82472 -0.47611,2.38221 -0.13287,0.44732 -0.39861,0.50213 -1.43497,0.50213 h -6.45849 z"
     id="path36"
     style="fill:#c9cacc" /><path
     d="m 141.17546,167.27286 c -0.11571,0 -0.22809,-0.0897 -0.22809,-0.23695 0,-0.12678 0.16055,-0.2829 0.32608,-0.43016 2.30526,-2.04727 5.58654,-4.63986 5.58654,-8.15366 0,-2.63023 -1.43663,-3.16115 -2.26041,-3.16115 -0.7042,0 -1.25173,0.13287 -1.74832,0.59182 -0.38698,0.38974 -0.69147,1.16924 -0.69147,1.59995 0,0.17605 -0.0476,0.32054 -0.20927,0.32054 -0.0864,0 -0.13397,-0.12124 -0.15113,-0.32054 -0.0172,-0.14449 -0.0969,-1.52743 -0.0969,-2.00963 0,-0.1528 0.0172,-0.21923 0.20041,-0.33494 0.63832,-0.33216 1.52909,-0.62946 2.97956,-0.62946 2.90151,0 4.13164,1.59995 4.13164,3.55145 0,3.21651 -3.53705,6.03165 -5.66626,7.75229 -0.0825,0.0548 -0.0493,0.11515 0.0332,0.11515 h 1.12328 c 0.28124,0 2.22333,-0.0232 2.83507,-0.10131 1.13768,-0.13564 1.67469,-0.7042 1.87676,-1.47816 0.046,-0.2076 0.10076,-0.2685 0.1993,-0.2685 0.11515,0 0.12955,0.1528 0.12955,0.30892 0,0.27459 -0.31169,1.82471 -0.47611,2.38221 -0.13287,0.44732 -0.39861,0.50213 -1.43497,0.50213 h -6.45849 z"
     id="path38"
     style="fill:none;stroke:#c9cacc;stroke-width:0.16500001;stroke-miterlimit:10" /><path
     d="m 159.25213,154.78826 c 0.31169,0 0.39252,0.0609 0.39252,0.13287 0,0.10408 -0.0637,0.23695 -0.11516,0.29729 -1.36577,1.96921 -3.93787,8.57219 -4.18644,10.71136 -0.026,0.27737 0,0.39252 0,0.61784 0,0.32054 -1.32813,1.00481 -2.07329,1.00481 -0.18768,0 -0.23086,-0.0493 -0.23086,-0.1993 0,-0.17051 0.0316,-0.413 0.11515,-0.67873 0.45895,-1.5994 2.56989,-6.51385 4.84193,-10.35373 h -4.26728 c -0.4595,0 -1.1493,0.0288 -1.54514,0.29729 -0.30283,0.1993 -0.51375,0.73908 -0.54863,1.00481 -0.0144,0.13287 -0.0637,0.2137 -0.16166,0.2137 -0.11515,0 -0.13286,-0.0808 -0.13286,-0.24802 0,-0.62669 0.24248,-2.5638 0.24248,-2.73431 0,-0.16442 0.0692,-0.23695 0.16719,-0.23695 0.098,0 0.47943,0.17052 2.22609,0.17052 h 5.27596 z"
     id="path40"
     style="fill:#c9cacc" /><path
     d="m 159.25213,154.78826 c 0.31169,0 0.39252,0.0609 0.39252,0.13287 0,0.10408 -0.0637,0.23695 -0.11516,0.29729 -1.36577,1.96921 -3.93787,8.57219 -4.18644,10.71136 -0.026,0.28013 0,0.39252 0,0.61784 0,0.32054 -1.32813,1.00481 -2.07329,1.00481 -0.18768,0 -0.23086,-0.0493 -0.23086,-0.1993 0,-0.17051 0.0315,-0.413 0.11515,-0.67873 0.45895,-1.5994 2.56989,-6.51385 4.84193,-10.35373 h -4.26728 c -0.4595,0 -1.1493,0.0316 -1.54514,0.29729 -0.30283,0.1993 -0.51375,0.73908 -0.54863,1.00481 -0.0144,0.13287 -0.0637,0.2137 -0.16166,0.2137 -0.11515,0 -0.13287,-0.0808 -0.13287,-0.24802 0,-0.62669 0.24249,-2.5638 0.24249,-2.73431 0,-0.16442 0.0692,-0.23695 0.16719,-0.23695 0.098,0 0.47943,0.17052 2.22609,0.17052 h 5.27596 z"
     id="path42"
     style="fill:none;stroke:#c9cacc;stroke-width:0.16500001;stroke-miterlimit:10" /><path
     d="m 91.937952,126.06611 c 0,-4.7002 0,-5.56661 -0.06477,-6.55371 -0.06201,-1.048 -0.307811,-1.54459 -1.330893,-1.76991 -0.251342,-0.0609 -0.775062,-0.0897 -1.206883,-0.0897 -0.339367,0 -0.525382,-0.0603 -0.525382,-0.28013 0,-0.21037 0.214803,-0.2768 0.679841,-0.2768 1.63815,0 3.588539,0.10131 4.240145,0.10131 1.04966,0 3.39976,-0.10131 4.36083,-0.10131 1.94763,0 4.0176,0.18767 5.68786,1.33089 0.86585,0.58905 2.09931,2.17128 2.09931,4.23571 0,2.28921 -0.95831,4.39129 -4.07406,6.9263 2.74593,3.46452 4.884,6.21876 6.7054,8.13594 1.73558,1.7987 3.00724,2.01516 3.46452,2.10208 0.34103,0.0664 0.62116,0.0952 0.86365,0.0952 0.25411,0 0.37258,0.098 0.37258,0.24248 0,0.24858 -0.20927,0.31501 -0.58185,0.31501 h -2.93638 c -1.73503,0 -2.50733,-0.15003 -3.31727,-0.58628 -1.32646,-0.71582 -2.50179,-2.16851 -4.23129,-4.54408 -1.2412,-1.70901 -2.66344,-3.81109 -3.06481,-4.27004 -0.15446,-0.18768 -0.3438,-0.21923 -0.55584,-0.21923 l -2.69112,-0.0603 c -0.15446,0 -0.24525,0.0603 -0.24525,0.24249 v 0.43625 c 0,2.8788 0,5.32689 0.15003,6.61737 0.0952,0.90073 0.28123,1.57947 1.20688,1.70071 0.4678,0.0664 1.14764,0.12678 1.51746,0.12678 0.24857,0 0.37258,0.098 0.37258,0.24248 0,0.22532 -0.222,0.31501 -0.61506,0.31501 -1.80479,0 -4.08957,-0.0897 -4.550175,-0.0897 -0.589047,0 -2.539437,0.0897 -3.771786,0.0897 -0.4058,0 -0.622264,-0.0897 -0.622264,-0.31501 0,-0.14449 0.12401,-0.24248 0.493825,-0.24248 0.467806,0 0.837621,-0.0603 1.118858,-0.12678 0.615068,-0.12124 0.773955,-0.79942 0.895197,-1.70071 0.157227,-1.29048 0.157227,-3.73857 0.157227,-6.57973 v -5.44979 z m 3.647778,2.44255 c 0,0.34047 0.062,0.46781 0.27736,0.5514 0.64552,0.23086 1.57615,0.32055 2.35453,0.32055 1.2329,0 1.63151,-0.13287 2.1901,-0.53148 0.9251,-0.67541 1.82749,-2.10484 1.82749,-4.63653 0,-4.39128 -2.90316,-5.65906 -4.73674,-5.65906 -0.76952,0 -1.32812,0.0316 -1.63538,0.12124 -0.21536,0.0609 -0.27736,0.18214 -0.27736,0.43016 v 9.40372 z"
     id="path44"
     style="fill:#010101" /><path
     d="m 111.9163,128.78602 c 0,-5.28094 3.49774,-12.11478 12.77137,-12.11478 7.7019,0 12.49733,4.48983 12.49733,11.55729 0,7.08795 -4.94601,12.68058 -12.80459,12.68058 -8.87834,5.5e-4 -12.46411,-6.6517 -12.46411,-12.12309 m 20.93831,0.59514 c 0,-6.93515 -3.99157,-11.23121 -9.05605,-11.23121 -3.56861,0 -7.6161,1.97475 -7.6161,9.68053 0,6.42693 3.55699,11.53459 9.49009,11.53459 2.17405,0 7.18206,-1.04799 7.18206,-9.98391"
     id="path46"
     style="fill:#010101" /><path
     d="m 142.01253,117.47398 c 0.0897,-0.52538 0.2757,-0.79942 0.52427,-0.79942 0.24802,0 0.43127,0.13841 0.83596,0.95001 l 8.44209,17.19642 8.41331,-17.41289 c 0.24802,-0.49105 0.39528,-0.73354 0.6815,-0.73354 0.27127,0 0.45895,0.2973 0.5514,0.95001 l 2.81458,18.92869 c 0.2829,1.94319 0.58905,2.84115 1.5158,3.12405 0.89797,0.28013 1.51581,0.31169 1.91995,0.31169 0.27736,0 0.49659,0.0288 0.49659,0.21037 0,0.24857 -0.37535,0.3438 -0.80551,0.3438 -0.77673,0 -5.044,-0.0637 -6.27967,-0.15612 -0.71029,-0.0609 -0.8952,-0.15612 -0.8952,-0.34103 0,-0.15557 0.11848,-0.24802 0.33494,-0.33771 0.19045,-0.0664 0.28013,-0.4678 0.15612,-1.33975 l -1.85351,-13.4429 h -0.12456 l -6.74138,13.795 c -0.71029,1.4466 -0.86586,1.72673 -1.14322,1.72673 -0.2829,0 -0.58905,-0.61784 -1.08287,-1.54459 -0.74517,-1.41781 -3.18163,-6.14957 -3.55975,-7.02206 -0.27736,-0.6494 -2.13364,-4.29607 -3.21374,-6.61738 h -0.12401 l -1.60826,12.05721 c -0.0592,0.55693 -0.0924,0.9644 -0.0924,1.4549 0,0.58628 0.40524,0.86586 0.92675,0.99319 0.56192,0.12124 0.99042,0.15612 1.301,0.15612 0.24802,0 0.46614,0.0637 0.46614,0.21369 0,0.27736 -0.2829,0.34103 -0.74516,0.34103 -1.29768,0 -2.6939,-0.0924 -3.24641,-0.0924 -0.59071,0 -2.07163,0.0924 -3.06482,0.0924 -0.30781,0 -0.55583,-0.0637 -0.55583,-0.34103 0,-0.15003 0.18325,-0.21369 0.4966,-0.21369 0.24857,0 0.46337,0 0.92841,-0.0952 0.86309,-0.18767 1.11166,-1.39455 1.26778,-2.44255 l 3.06316,-19.91302 z"
     id="path48"
     style="fill:#010101" /><path
     d="m 175.91431,132.59435 c -0.16442,0 -0.21923,0.0548 -0.28622,0.24248 l -1.66859,4.24125 c -0.30615,0.76787 -0.46172,1.5158 -0.46172,1.89116 0,0.55195 0.27681,0.95609 1.2329,0.95609 h 0.46504 c 0.36926,0 0.46172,0.0603 0.46172,0.24248 0,0.24858 -0.17882,0.30892 -0.51985,0.30892 -0.9871,0 -2.31577,-0.0897 -3.27962,-0.0897 -0.34047,0 -2.03841,0.0897 -3.64944,0.0897 -0.40414,0 -0.58904,-0.0603 -0.58904,-0.30892 0,-0.18214 0.12677,-0.24248 0.37535,-0.24248 0.27736,0 0.71029,-0.0349 0.95831,-0.0664 1.41781,-0.18214 2.00409,-1.23567 2.62746,-2.78026 l 7.75505,-19.17394 c 0.37535,-0.89797 0.56026,-1.23014 0.87195,-1.23014 0.2768,0 0.4678,0.27128 0.7734,0.98156 0.74184,1.70071 5.69062,14.07237 7.66869,18.77589 1.17533,2.78026 2.07606,3.21042 2.72545,3.36654 0.46504,0.0925 0.92399,0.12678 1.29934,0.12678 0.24248,0 0.3986,0.0316 0.3986,0.24248 0,0.24858 -0.27681,0.30892 -1.42058,0.30892 -1.11443,0 -3.37207,0 -5.84397,-0.0603 -0.56026,-0.0288 -0.92952,-0.0288 -0.92952,-0.24858 0,-0.18214 0.12124,-0.24248 0.43293,-0.2768 0.21369,-0.0609 0.43348,-0.34103 0.28289,-0.71029 l -2.47743,-6.36659 c -0.0692,-0.16442 -0.15888,-0.21923 -0.31168,-0.21923 h -6.89142 z m 6.30569,-1.55013 c 0.15003,0 0.18214,-0.0836 0.15003,-0.18214 l -2.78635,-7.60779 c -0.0233,-0.12678 -0.0576,-0.28013 -0.15003,-0.28013 -0.098,0 -0.1528,0.1528 -0.18214,0.28013 l -2.84392,7.579 c -0.0349,0.12678 0,0.21093 0.11515,0.21093 H 182.22 z"
     id="path50"
     style="fill:#010101" /><path
     d="m 91.937952,125.37907 c 0,-4.7002 0,-5.56661 -0.06477,-6.55371 -0.06201,-1.05408 -0.307811,-1.54459 -1.330893,-1.76991 -0.251342,-0.0548 -0.775062,-0.0952 -1.206883,-0.0952 -0.339367,0 -0.525382,-0.0548 -0.525382,-0.28013 0,-0.20484 0.214803,-0.27127 0.679841,-0.27127 1.63815,0 3.588539,0.0897 4.240145,0.0897 1.04966,0 3.39976,-0.0897 4.36083,-0.0897 1.94763,0 4.0176,0.19376 5.68786,1.32535 0.86585,0.5885 2.09931,2.17073 2.09931,4.24126 0,2.2892 -0.95831,4.39128 -4.07406,6.92629 2.74593,3.46453 4.884,6.21877 6.7054,8.13594 1.73558,1.79316 3.00724,2.00963 3.46452,2.10762 0.34103,0.0603 0.62116,0.0836 0.86365,0.0836 0.25411,0 0.37258,0.098 0.37258,0.24802 0,0.24858 -0.20927,0.31446 -0.58185,0.31446 h -2.93638 c -1.73503,0 -2.50733,-0.15557 -3.31727,-0.58628 -1.32646,-0.72192 -2.50179,-2.16852 -4.23129,-4.54408 -1.2412,-1.70348 -2.66344,-3.8111 -3.06481,-4.27005 -0.15446,-0.18767 -0.3438,-0.21923 -0.55584,-0.21923 l -2.69112,-0.0664 c -0.15446,0 -0.24525,0.0664 -0.24525,0.24802 v 0.43625 c 0,2.8788 0,5.31803 0.15003,6.61737 0.0952,0.8952 0.28123,1.57947 1.20688,1.69517 0.4678,0.0664 1.14764,0.12678 1.51746,0.12678 0.24857,0 0.37258,0.098 0.37258,0.24802 0,0.22532 -0.222,0.31446 -0.61506,0.31446 -1.80479,0 -4.08957,-0.0897 -4.550175,-0.0897 -0.589047,0 -2.539437,0.0897 -3.771786,0.0897 -0.4058,0 -0.622264,-0.0897 -0.622264,-0.31446 0,-0.15003 0.12401,-0.24802 0.493825,-0.24802 0.467806,0 0.837621,-0.0603 1.118858,-0.12678 0.615068,-0.11515 0.773955,-0.79997 0.895197,-1.69517 0.157227,-1.29934 0.157227,-3.73857 0.157227,-6.58582 v -5.44204 z m 3.647778,2.44255 c 0,0.34657 0.062,0.46172 0.27736,0.55749 0.64552,0.21038 1.57615,0.30892 2.35453,0.30892 1.2329,0 1.63151,-0.12124 2.1901,-0.51929 0.9251,-0.68704 1.82749,-2.11647 1.82749,-4.64816 0,-4.38575 -2.90316,-5.65906 -4.73674,-5.65906 -0.76952,0 -1.32812,0.0371 -1.63538,0.12124 -0.21536,0.0603 -0.27736,0.18767 -0.27736,0.43625 v 9.40261 z"
     id="path52"
     style="fill:#f89728" /><path
     d="m 111.9163,128.09898 c 0,-5.28648 3.49774,-12.12031 12.77137,-12.12031 7.7019,0 12.49733,4.4865 12.49733,11.56614 0,7.07965 -4.94601,12.67781 -12.80459,12.67781 -8.87834,0 -12.46411,-6.65225 -12.46411,-12.12364 m 20.93831,0.58905 c 0,-6.92961 -3.99157,-11.23121 -9.05605,-11.23121 -3.56861,0 -7.6161,1.98638 -7.6161,9.68662 0,6.42693 3.55699,11.5285 9.49009,11.5285 2.17405,0 7.18206,-1.05353 7.18206,-9.98391"
     id="path54"
     style="fill:#f89728" /><path
     d="m 142.01253,116.77532 c 0.0897,-0.52538 0.2757,-0.79997 0.52427,-0.79997 0.24802,0 0.43127,0.15888 0.83596,0.95831 l 8.44209,17.19365 8.41331,-17.4068 c 0.24802,-0.49659 0.39528,-0.74516 0.6815,-0.74516 0.27127,0 0.46448,0.30891 0.5514,0.95831 l 2.82067,18.92591 c 0.27681,1.94596 0.58296,2.84725 1.51027,3.13292 0.89796,0.27127 1.5158,0.30283 1.91994,0.30283 0.27736,0 0.49659,0.0288 0.49659,0.21092 0,0.25411 -0.37535,0.34657 -0.80551,0.34657 -0.77672,0 -5.04399,-0.0609 -6.27967,-0.1528 -0.71029,-0.0664 -0.89519,-0.15612 -0.89519,-0.33771 0,-0.15888 0.11847,-0.25411 0.33493,-0.34656 0.19045,-0.0603 0.28013,-0.46448 0.15612,-1.33089 l -1.8535,-13.4573 h -0.12457 l -6.74138,13.80109 c -0.71029,1.4549 -0.86585,1.73227 -1.14322,1.73227 -0.28289,0 -0.58904,-0.61784 -1.08287,-1.55013 -0.74517,-1.41781 -3.18163,-6.15012 -3.55975,-7.01597 -0.27736,-0.65272 -2.13364,-4.30216 -3.21374,-6.61461 h -0.12401 l -1.60826,12.05388 c -0.0592,0.56026 -0.0924,0.9644 -0.0924,1.45491 0,0.58295 0.40525,0.86585 0.92675,0.99318 0.56192,0.12125 0.99042,0.1528 1.301,0.1528 0.24802,0 0.46615,0.0603 0.46615,0.21647 0,0.28012 -0.2829,0.34047 -0.74517,0.34047 -1.29768,0 -2.6939,-0.0924 -3.24641,-0.0924 -0.5907,0 -2.07163,0.0924 -3.06481,0.0924 -0.30781,0 -0.55583,-0.0603 -0.55583,-0.34047 0,-0.15612 0.18324,-0.21647 0.49659,-0.21647 0.24857,0 0.46338,0 0.92841,-0.0924 0.86309,-0.18768 1.11166,-1.39456 1.26778,-2.44532 l 3.06261,-19.92188 z"
     id="path56"
     style="fill:#f89728" /><path
     d="m 175.91431,131.90122 c -0.16442,0 -0.21923,0.0664 -0.28622,0.24248 l -1.66859,4.24735 c -0.30615,0.7734 -0.46172,1.51247 -0.46172,1.88229 0,0.55417 0.27681,0.95831 1.2329,0.95831 h 0.46504 c 0.36926,0 0.46172,0.0609 0.46172,0.24857 0,0.24858 -0.17882,0.30892 -0.51985,0.30892 -0.9871,0 -2.31577,-0.0897 -3.27962,-0.0897 -0.34047,0 -2.03841,0.0897 -3.64944,0.0897 -0.40414,0 -0.58904,-0.0603 -0.58904,-0.30892 0,-0.18767 0.12677,-0.24857 0.37535,-0.24857 0.27736,0 0.71029,-0.0288 0.95831,-0.0664 1.41781,-0.17605 2.00409,-1.23014 2.62746,-2.77473 l 7.75505,-19.17394 c 0.37535,-0.89796 0.56026,-1.23844 0.87195,-1.23844 0.2768,0 0.4678,0.27404 0.7734,0.98157 0.74184,1.70901 5.69062,14.07513 7.66869,18.77588 1.17533,2.78635 2.07606,3.21928 2.72545,3.36931 0.46504,0.0985 0.92399,0.12678 1.29934,0.12678 0.24248,0 0.3986,0.0377 0.3986,0.24857 0,0.24858 -0.27681,0.30892 -1.42058,0.30892 -1.11443,0 -3.37207,0 -5.84397,-0.0603 -0.56026,-0.0288 -0.92952,-0.0288 -0.92952,-0.24858 0,-0.18767 0.12124,-0.24857 0.43293,-0.2768 0.21369,-0.0548 0.43348,-0.34103 0.28289,-0.71583 l -2.47743,-6.36935 c -0.0692,-0.15003 -0.15888,-0.21647 -0.31168,-0.21647 h -6.89142 z m 6.30569,-1.54459 c 0.15003,0 0.18214,-0.0924 0.15003,-0.18214 l -2.78635,-7.61665 c -0.0233,-0.12124 -0.0576,-0.27127 -0.15003,-0.27127 -0.098,0 -0.1528,0.15003 -0.18214,0.27127 l -2.84392,7.58454 c -0.0349,0.12124 0,0.2137 0.11515,0.2137 H 182.22 z"
     id="path58"
     style="fill:#f89728" /><line
     stroke-miterlimit="10"
     x1="70.591072"
     y1="100.09267"
     x2="211.2948"
     y2="100.09267"
     id="line60"
     style="fill:none;stroke:#000000;stroke-width:0.41800001;stroke-linecap:round;stroke-miterlimit:10" /><path
     d="m 198.10823,88.001135 c -0.38089,-0.48497 -0.81437,-1.00482 -1.25837,-1.54348 -1.98638,-2.41211 -6.4153,-8.35573 -6.4153,-8.35573 0,-19.30238 -3.45291,-22.89978 -7.01044,-25.93138 -3.13569,-2.66953 -8.13595,-4.0353 -13.50381,-4.86351 -1.45822,-0.22976 -3.06039,-0.32775 -4.90503,-0.32775 -1.78431,0 -3.59463,0.0925 -5.33576,0.18879 -1.44106,0.0825 -26.61453,1.13934 -34.69013,-0.22366 -3.521,-0.59514 -8.40168,0.0908 -11.30484,0.44012 -1.33089,0.1528 -8.59821,1.31484 -9.453,-0.0592 -0.16442,-0.26019 -0.15279,-0.83153 -0.0819,-1.47815 0.098,-1.01201 0.51099,-2.24215 -0.27736,-3.34495 -1.08841,-1.5158 -2.27648,-3.14564 -2.9303,-3.14564 -0.20649,0 -2.00353,1.47261 -2.44255,1.91717 -0.73188,0.73908 -0.96274,1.94983 -0.93118,3.36045 0.0188,0.86585 -0.0376,0.697 -0.10242,0.76233 -0.10962,0.10961 -4.736741,0.10961 -5.910407,0.19598 -0.0028,-0.23695 -0.04207,-1.43774 -0.828763,-2.58152 -0.508219,-0.73298 -0.931182,-3.18163 -0.931182,-3.18163 0,0 -1.675796,2.90317 -2.240484,3.68432 -0.631123,0.85423 -1.280514,1.74389 -1.661402,2.76752 -0.145601,0.38975 -0.174389,0.86032 -0.207606,1.3154 -0.01439,0.32884 -0.06477,1.01754 -0.197641,1.12605 -0.889107,0.64829 -1.382933,1.54016 -1.472619,2.66234 -0.01716,0.32442 0.07363,0.76178 0.168853,1.27 0.06477,0.32331 0.172175,0.83153 0.172175,1.07401 -0.08969,0.0653 -0.174943,0.12124 -0.266843,0.18048 -0.791117,0.50213 -1.87399,1.21131 -1.805896,2.45861 0.10408,1.88672 0.538669,2.61971 1.13602,3.6439 0.167193,0.28843 0.339367,0.57631 0.52815,0.93118 0.265736,0.50545 0.37812,1.23014 0.493826,1.92714 0.157227,0.98156 -0.759562,2.05558 -0.132868,2.67341 0.821566,0.80275 2.945237,0.84759 3.864794,0.84759 0.24802,0 1.21408,-0.026 1.444937,-0.026 0.35819,0 0.636659,0.0205 0.871946,0.0681 1.771571,0.34657 3.55145,0.48497 5.26323,0.62946 2.36172,0.18325 4.59058,0.36373 6.8355,1.02364 4.13883,1.21685 8.2212,2.92033 12.47242,5.18849 0.23085,0.12401 0.45064,0.23363 0.65437,0.3438 1.57614,0.8127 1.91274,0.70309 2.65182,2.86717 0.73908,2.17239 -0.62337,19.1147 -0.92288,20.86469 -0.47611,2.829525 -1.37684,4.539085 -2.84669,5.075545 -1.96589,0.71029 -2.77306,2.24768 -3.55145,3.73912 -0.24857,0.48497 -0.21203,1.06516 -0.51375,1.55012 0,0 -0.64275,0.7042 -0.42629,0.88358 0.21204,0.18435 2.20893,-0.29453 2.20893,-0.29453 0.67984,0.0404 -0.0537,0.39861 0.62669,0.39861 1.68189,0 3.71311,-0.0116 5.78031,-1.19803 0.86585,0 0.28566,1.1028 1.08675,0.95554 2.46857,-0.44787 2.69943,-2.3501 2.99838,-4.16762 0.50545,-3.05485 0.43182,-3.58743 0.7723,-3.87033 0.33936,-0.28456 1.43663,0.18048 1.72949,-0.15169 0.22366,-0.24857 -0.0216,-2.477425 0.10519,-4.490925 0.18048,-2.86995 0.96717,-6.23815 1.82472,-9.00789 l 0.0448,-0.14449 c 0.18602,-0.61175 0.46615,-1.35692 0.7651,-2.13807 0.80717,-2.11647 1.78873,-4.68581 1.67303,-6.74858 0.88191,0.15003 1.0264,0.20373 1.52908,0.90073 0.0736,0.10962 0.21093,0.32941 0.35764,0.5586 0.97326,1.59386 1.47262,2.04008 2.11094,2.04008 0.0648,0 0.13563,-0.006 0.1921,-0.0233 1.04966,-0.27128 1.61545,-1.16204 2.20893,-2.33294 0.59182,-1.14322 1.19802,-2.33294 2.18568,-2.55051 0.0376,-0.007 0.0797,-0.0188 0.13563,-0.0188 0.80108,0 2.20893,0.71582 3.01001,1.95758 1.77157,2.74428 3.28128,0.826 3.42301,0.60012 0.20484,-0.31611 1.62431,-2.66068 1.97309,-3.20488 0.42739,-0.65382 0.69313,-0.71583 0.79112,-0.71583 h 0.0233 c 0.86585,0.13287 4.62546,4.64816 5.96521,4.34367 1.29934,-0.1456 2.74261,-5.09437 3.53982,-5.09437 0.0377,0 0.0781,0.006 0.12124,0.0172 0.18768,0.15723 0.635,0.83153 0.93838,1.28052 0.99928,1.52023 1.21851,2.53057 2.00686,2.53057 0.25411,0 0.69313,-0.21812 0.9561,-0.87748 0.072,-0.18048 0.37535,-0.92287 0.41853,-1.00481 0.0493,0.0592 0.71582,2.30803 2.34456,0.31335 -0.0172,-0.0244 -0.0288,-0.0592 -0.0404,-0.0897 -0.006,0.0188 -0.0116,0.0305 -0.0172,0.0415 0.006,-0.0116 0.0116,-0.0232 0.0172,-0.0415 -0.006,-0.0116 -0.0116,-0.0172 -0.0172,-0.0321 0.006,0.0144 0.0116,0.0205 0.0172,0.0321 0.21923,-0.50822 3.23367,2.45972 4.67141,3.62785 1.30487,1.20079 2.40823,2.2593 2.50069,2.33847 3.1008,2.76199 6.95507,6.20327 7.70578,9.93077 0.43016,2.15522 0.32608,4.63985 -0.28013,7.00158 -0.13287,0.49382 -0.2602,0.783915 -0.38089,0.860315 -0.12124,0.0908 -0.4595,0.10408 -0.88357,0.10961 -0.19321,0.006 -0.40414,0.0144 -0.64663,0.0377 -1.06238,0.0592 -1.7843,1.19249 -2.43092,2.19121 -0.28844,0.46061 -0.66711,0.84316 -0.86641,1.18253 -0.19598,0.34047 0.12124,0.90793 0.31168,1.02363 0.19598,0.12124 2.10762,0.57023 2.67951,0.57023 0.16719,0 0.32884,-0.0116 0.45617,-0.0537 0.41023,0.15169 0.90074,0.23694 1.46653,0.23694 1.67469,0 3.7502,-0.69755 4.34257,-1.85074 1.00481,-1.96589 1.68631,-4.101175 2.3501,-6.172805 0.0692,-0.23086 0.14726,-0.47058 0.22532,-0.70144 0.1384,-0.45507 0.34656,-0.96273 0.54863,-1.49587 0.72469,-1.89835 1.95759,-3.9268 1.40896,-5.7947 -0.28622,-0.98488 -1.28218,-1.94153 -1.91718,-2.78468 -0.56026,-0.75071 -2.67396,-3.50938 -3.3145,-4.47101 1.97475,1.91275 7.455,4.74228 8.84624,8.05678 0.49105,1.16204 -0.0172,6.02832 -0.10132,7.33209 -0.0432,0.61507 -0.072,1.24729 -0.0925,1.87842 -0.0603,1.992455 -0.64109,2.350095 -2.64186,2.553825 -1.73226,0.17771 -2.53168,2.7415 -2.95631,4.12167 -0.0232,0.0781 -0.0459,0.15003 -0.0692,0.21923 l -0.20207,0.64109 0.67265,0.11515 c 0.25687,0.0404 0.54586,0.0952 0.85478,0.15612 1.25006,0.23086 3.35768,1.01367 4.82753,1.01367 1.75275,0 2.98233,-0.41853 3.76182,-1.27332 1.00758,-1.09173 1.39179,-3.06038 1.73836,-4.79265 0.12677,-0.64662 0.84869,-2.967935 1.10834,-3.805555 1.64756,-5.30198 3.27851,-7.32877 0.50102,-10.37199 M 86.396255,62.495485 c -0.606209,0.37535 -0.834299,-0.67984 -0.834299,-0.67984 -0.164424,-0.42296 -0.183247,-0.86032 0.05924,-1.03526 0.458948,0.28456 1.00592,0.27847 1.167576,0.5442 0.171621,0.29287 -0.07695,0.97603 -0.392514,1.1709"
     id="path62" /><path
     d="m 189.96343,103.34958 c -0.19377,0.36372 -0.86918,0.43736 -1.10613,0.51929 -0.4905,0.20816 -0.94668,0.50379 -0.92343,0.84316 0,0.13287 -0.0808,1.75275 0,1.89115 0.098,0.18214 0.75624,0.413 0.90074,0.18768 0.10408,-0.1445 -0.006,-1.28605 0.12124,-2.06721 0.0233,-0.10795 0.0985,-0.57299 0.32331,-0.67707 0.0808,-0.0199 0.86087,-0.3748 0.68427,-0.697"
     id="path64"
     style="fill:#c9cacc" /><path
     d="m 133.6712,75.147275 c 0.59513,-0.0592 1.43054,-0.2065 1.7151,-0.006 0.29009,0.21204 0.697,0.95112 0.67707,1.40453 -0.0271,0.44898 -1.50251,2.82233 -1.5994,2.93195 -0.0952,0.10961 -0.24248,0.45064 -0.50822,0.0985 -0.26684,-0.36372 -0.73022,-4.00596 -0.73022,-4.00596 0,0 -0.0769,-0.36428 0.44567,-0.42352"
     id="path66"
     style="fill:#c9cacc" /><path
     d="m 197.476,89.213555 c -0.80551,-1.16758 -2.82344,-3.23368 -3.62895,-4.22852 -1.07402,-1.31484 -5.99401,-7.08961 -5.99401,-7.08961 0,0 -1.41448,-8.73108 -2.02069,-10.71136 -0.38089,-1.27055 -1.44937,-10.46944 -8.56943,-15.46582 0.38421,-0.64386 4.99473,2.97568 6.66388,5.79193 3.02551,5.11154 4.31599,18.45811 4.31599,18.45811 0,0 1.91994,-20.38525 -8.86671,-24.69902 -7.7379,-3.23478 -11.60103,-2.71383 -11.60103,-2.71383 0,0 -5.35845,3.21651 -2.12478,9.33009 0.61784,1.19249 7.66869,12.00074 8.11934,12.84943 4.01039,7.51866 16.7574,16.27244 19.07871,18.65299 0.12124,0.13286 2.31855,1.56341 2.46581,3.15727 0.0288,0.29563 -2.97956,-1.72673 -2.9397,-1.35138 0.41023,3.76957 -0.0349,11.007545 -0.0925,11.831875 -0.0692,0.95831 -0.12124,1.09672 -0.7042,1.31097 -0.57742,0.20373 -1.18363,-0.34657 -1.53628,0.64108 -0.39251,1.09727 -0.24802,1.90832 0.76233,1.90832 1.01035,0 2.54663,0.53424 3.52266,-3.18053 0.97602,-3.751845 3.1008,-10.421255 3.74189,-12.875435 0.1528,-0.5813 -0.31224,-1.21796 -0.59237,-1.61656"
     id="path68"
     style="fill:#c9cacc" /><path
     d="m 89.675877,43.127785 c 0,0 0.848693,2.49459 0.830424,3.19326 -0.01163,0.70862 -0.229751,0.76177 -0.229751,0.76177 l -2.513417,1.09727 c 0,0 0.546973,-0.635 0.832639,-1.43055 0.293416,-0.80385 1.097267,-2.86496 1.080105,-3.62175"
     id="path70"
     style="fill:#c9cacc" /><path
     d="m 119.68851,105.91946 c -0.0531,0.036 -0.12124,0.0432 -0.14117,0.0116 l -0.16055,-0.21812 c -0.0172,-0.0305 0.006,-0.0897 0.062,-0.13398 l 0.12678,-0.0825 c 0.0531,-0.0387 0.12401,-0.0448 0.14283,-0.0144 l 0.15889,0.21812 c 0.0271,0.0305 -0.006,0.0869 -0.0592,0.13453 l -0.12955,0.0847 z"
     id="path72"
     style="fill:#c9cacc" /><path
     d="m 177.76505,101.9063 c 0,0 -0.31168,-0.0985 -0.48496,0.12678 -0.23695,0.32165 -0.34657,1.54016 -0.34657,1.54016 0,0 0.29453,0.36926 0.83153,0.15114 0.53701,-0.20207 1.62819,-1.02032 1.28162,-1.28605 -0.3521,-0.26685 -1.28162,-0.53203 -1.28162,-0.53203"
     id="path74"
     style="fill:#c9cacc" /><path
     d="m 176.80065,101.32279 c 0,0 -0.48496,-0.006 -0.7042,0.23695 -0.23639,0.26573 -0.66101,0.98156 -0.63499,1.27608 0.0349,0.28733 0.45618,0.76676 0.66987,0.47334 0.21314,-0.29563 1.20633,-2.01516 0.66932,-1.98637"
     id="path76"
     style="fill:#c9cacc" /><path
     d="m 84.533337,55.952855 c -0.566902,0.8891 1.06405,1.66749 1.475387,1.18806 0.310579,-1.21131 -0.922324,-1.64978 -1.475387,-1.18806"
     id="path78"
     style="fill:#c9cacc" /><path
     d="m 86.684689,56.409035 c -0.0089,-0.006 -0.01163,-0.0116 -0.01163,-0.0116 0,0 0.0028,0.006 0.01163,0.0116"
     id="path80"
     style="fill:#c9cacc" /><path
     d="m 97.66511,57.523465 c -0.82433,-0.97603 -1.43054,-2.60421 -0.88911,-2.9087 0.53978,-0.29619 1.06129,0.11515 1.39179,0.30449 0.49106,0.27127 0.73908,0.0908 0.7042,-0.56469 -0.0244,-0.50933 -0.0808,-0.98765 -0.13729,-1.44937 -0.16443,-1.3929 -0.89797,-2.92309 -1.47096,-3.53539 -0.94668,-1.01755 -3.667154,-2.20561 -5.367309,-1.05685 -0.490504,0.33493 -0.860319,0.87914 -1.176434,1.52299 -0.115152,0.23418 0.219232,0.55583 0.112937,0.82268 -0.623925,1.5158 -1.572269,3.27298 -2.681162,4.40457 -0.04761,0.0592 3.769572,0.37535 9.164008,4.33647 0.47943,0.34103 -0.43182,2.26817 -0.74461,2.17737 -0.16443,-0.0232 0.54697,-1.62265 0.0116,-1.9216 -2.47135,-1.38736 -3.936769,-1.57338 -5.797473,-2.23661 -0.446214,-0.15556 -1.74389,0.66268 -2.074399,0.35266 -0.464484,-0.60621 -1.880634,-1.29491 -2.025127,-1.36301 0.05315,0.0288 0.230857,0.16332 0.292862,0.7568 0.17605,1.52853 -2.670643,0 -0.25577,2.44809 0.680394,0.67707 1.330893,1.20079 1.833576,0.98156 0.775063,-0.0116 0.422963,0.098 0.50213,0.27736 l 0.411337,0.97602 c 0.07363,0.18325 0.166085,0.17163 0.200962,-0.0232 l 0.188783,-1.02917 c 0.03322,-0.19487 0.22809,-0.35099 0.428499,-0.34546 0,0 3.652205,0.0825 4.39184,0.15612 0.74184,0.0797 0.78502,0.34657 0.78502,0.34657 0.036,0.19764 0.32332,0.61783 -0.29452,1.11443 -0.45009,0.35819 -1.528534,-0.39252 -2.392175,0.30781 -0.865855,0.697 -2.59812,1.01367 -2.59812,1.01367 -0.205391,0.036 -0.422963,-0.0736 -0.50379,-0.26297 l -0.440125,-0.98765 c -0.0764,-0.18602 -0.152798,-0.18048 -0.171621,0.026 l -0.108509,1.28937 c -0.01882,0.19653 -0.07806,0.35819 -0.126778,0.36926 -0.05647,0 -0.166085,-0.14449 -0.251342,-0.32442 l -0.03322,-0.062 c -0.08526,-0.18602 -0.265735,-0.20041 -0.392513,-0.0592 l -0.222001,0.25965 c -0.130099,0.15778 -0.322204,0.13453 -0.422962,-0.0371 l -0.08803,-0.13453 c -0.101312,-0.17882 -0.266843,-0.17882 -0.372584,0 l -0.137297,0.21369 c -0.102418,0.17495 -0.245251,0.15612 -0.304488,-0.0288 l -0.04927,-0.14006 c -0.05924,-0.18934 -0.180479,-0.19487 -0.256878,-0.0205 -0.05924,0.13286 -0.145601,0.16054 -0.207606,0.0792 -0.12401,0.12678 -0.212035,0.2137 -0.25411,0.25411 -0.109616,0.10408 -0.357636,0.3294 -0.369262,0.53867 -0.0089,0.2065 0.251342,0.32221 1.511372,0.58185 1.261691,0.25522 7.118399,-2.1364 8.966369,-1.74389 2.13806,0.44345 2.9624,-1.3093 3.108,-3.58577 0,-0.0592 -0.0188,-0.18325 -0.0448,-0.36373 -0.37646,-0.60621 -0.9179,-1.22404 -1.34363,-1.72672"
     id="path82"
     style="fill:#c9cacc" /><path
     d="m 91.910825,50.657515 c 0,0 0.733541,-1.27775 1.635382,-1.53186 0.667103,-0.18933 1.360233,0.19211 2.390513,0.88524 1.03803,0.68869 1.57947,1.76659 2.59425,1.48424 0.35099,-0.0985 -0.78116,1.17367 -1.77434,0.80994 -0.23972,-0.0897 -1.7295,-2.56712 -3.178867,-2.53058 0,0 -0.93395,0.17993 -1.666938,0.88302"
     id="path84" /><path
     d="m 94.56652,49.466685 c -1.21574,-0.3449 -1.9216,0.48497 -1.9216,0.48497 0.316115,-0.81271 1.76437,-0.29895 2.39328,-0.0393 0.34933,0.15169 0.8343,0.94724 1.18087,1.6066 -0.39141,-0.38809 -0.9251,-0.80385 -1.38737,-0.8487 -0.919553,-0.0819 -1.00481,1.13492 -1.00481,1.13492 l -0.465037,0.58019 c 0,0 0.05924,0.14726 0.766757,0.14726 0.70586,0 3.17444,-0.026 3.50384,-0.32774 0.32552,-0.29231 -1.73614,-2.34955 -3.06593,-2.73819 m 0.2602,2.63466 c -0.21923,0 -0.3986,-0.22532 -0.3986,-0.50213 0,-0.26574 0.17937,-0.49659 0.3986,-0.49659 0.22255,0 0.50822,0.23085 0.50822,0.51375 0,0.26574 -0.28622,0.48497 -0.50822,0.48497"
     id="path86" /><path
     d="m 113.5013,104.77016 c 0,0 -0.93672,1.88229 -0.95831,2.07883 -0.0205,0.19376 0.0216,0.32054 0.13121,0.32054 0.10795,0 0.44289,0.0952 0.68261,-0.072 0.23528,-0.17051 1.12605,-2.03122 1.2412,-2.29252 0.0294,-0.0709 -0.70143,-0.48387 -1.09671,-0.0349"
     id="path88"
     style="fill:#c9cacc" /><path
     d="m 186.26195,90.945815 c 0.47334,-1.66749 -1.08287,-1.84742 -1.62541,0.31058 -0.17882,0.74461 -2.33571,8.57662 -2.5638,10.626105 -0.0205,0.10241 0.0576,0.20373 0.15557,0.0825 0.0293,0.70919 3.8288,-10.273995 4.03364,-11.019165"
     id="path90"
     style="fill:#c9cacc" /><path
     d="m 174.03479,64.707185 c -0.009,0.0476 -0.10131,0.0681 -0.20761,0.0532 l -0.7734,-0.13287 c -0.11294,-0.0244 -0.19044,-0.0764 -0.18491,-0.12124 l 0.0232,-0.10685 c 0.006,-0.0448 0.10408,-0.062 0.2137,-0.0504 l 0.76787,0.1384 c 0.098,0.0188 0.18767,0.0753 0.18214,0.11515 l -0.021,0.10464 z"
     id="path92"
     style="fill:#c9cacc" /><path
     d="m 173.74303,65.030495 c -0.006,0.0476 -0.0664,0.0736 -0.1384,0.062 l -0.51708,-0.0913 c -0.0781,-0.0127 -0.13287,-0.0576 -0.11515,-0.10408 l 0.0144,-0.10408 c 0.0116,-0.0531 0.0781,-0.0736 0.1528,-0.0592 l 0.50545,0.0897 c 0.0753,0.0116 0.12678,0.0565 0.11571,0.10242 l -0.0177,0.10463 z"
     id="path94"
     style="fill:#c9cacc" /><path
     d="m 116.51242,48.376615 c -3.78397,0.72192 -9.08484,1.0408 -11.96752,0.64663 -2.27979,-0.31335 -2.38055,-1.71345 -1.96921,-2.95631 -2.11094,2.08436 -3.23811,1.26888 -3.28572,1.01201 -0.0797,-0.33051 0.78116,0 1.33975,-0.55583 0.56469,-0.54698 0.89631,-2.51896 0.45342,-3.47062 -0.44788,-0.94669 0.0371,-0.77507 0.0371,-0.77507 0,0 1.17644,0.11848 1.69185,1.52577 0.33051,-1.40729 -1.61822,-3.15893 -2.25045,-2.7559 -0.62946,0.39971 -1.90389,1.44494 -1.72673,2.97402 0.22809,1.89005 0.0897,2.824 -0.52261,2.80352 -4.13441,-0.18602 -8.7643,-0.73908 -11.335293,1.93876 0,0 3.117965,-2.05447 5.512908,-1.83081 2.388855,0.21923 7.292785,0.7042 7.588965,6.45461 0,0 -0.0537,1.29491 0.0565,2.79742 0.0537,0.79555 -0.70309,0.28622 -0.69423,0.63832 0.0288,1.59386 1.16204,1.35082 1.06959,2.72545 -0.39252,5.65298 -3.00005,5.53727 -3.00005,5.53727 0,0 3.14897,0.44013 4.70906,-4.84192 -0.006,3.02994 -0.32497,3.79227 -1.54902,4.97479 2.40657,0.15114 4.29607,-2.12201 4.35254,-2.46581 0.35652,0.57466 1.03913,2.4337 2.83783,3.19326 -0.888,-1.46653 -0.67098,-3.24197 -0.48773,-4.81591 0.53977,3.52931 1.4394,4.84581 3.25803,5.61423 -0.73355,-0.73908 -2.22,-2.33848 -1.77434,-5.20233 0.3449,2.44809 3.20765,4.62656 3.20765,4.62656 0,0 -0.91125,-1.47261 -1.15318,-4.0652 1.22736,2.63743 2.54497,2.85555 2.54497,2.85555 0,0 -2.03399,-2.14083 -2.38166,-4.91998 -0.0421,-0.0504 1.42778,1.89004 2.62414,1.89004 -0.91955,-1.1028 -2.37612,-2.6723 -2.53667,-4.65425 0.91679,1.18419 1.57947,1.95759 2.63743,2.07883 -0.89188,-1.02806 -1.62542,-2.66621 -1.90389,-4.64705 1.02087,1.28051 0.84593,1.70181 2.76476,2.22886 -0.74184,-0.72469 -1.25283,-2.71992 -0.88357,-3.681 0.33051,0.67154 1.60494,1.35692 3.12406,1.55511 -0.49051,-0.31335 -1.27886,-2.2045 -1.16481,-2.95631 0.68981,0.34047 2.17682,0.84316 3.35325,0.6815 -0.5586,-0.3294 -0.95277,-1.99357 -0.78115,-2.38332 0.31335,0.20041 2.55826,0.16609 3.03326,0 -0.72856,-0.45341 -1.35968,-1.13325 -1.19083,-1.07124 0.54144,0.1921 1.42778,-0.27127 2.58096,-0.45452 1.22737,-0.19487 1.44217,-0.2065 2.2117,-0.19487 -0.74683,-0.36152 -5.46862,-0.78725 -8.43102,-0.0543"
     id="path96"
     style="fill:#c9cacc" /><path
     d="m 154.6383,71.977265 c 0,0 -2.4254,-0.16331 -2.60975,0.58185 -0.17937,0.74628 1.10557,4.69024 1.29934,5.16247 0.30282,0.74517 1.11996,-0.98156 1.11996,-0.98156 0.25965,-0.47223 1.25339,-2.78801 1.25339,-3.10357 0.006,-0.39473 0.0315,-1.66528 -1.06294,-1.65919"
     id="path98"
     style="fill:#c9cacc" /><path
     d="m 166.29136,76.711795 c -0.15612,0.0681 -0.30615,0.098 -0.42186,0.1384 0.11516,0.0421 0.23086,0.0753 0.33494,0.0808 0.006,-0.0687 0.041,-0.14505 0.0869,-0.21923"
     id="path100"
     style="fill:#c9cacc" /><path
     d="m 145.15984,72.352065 c 0,0 -2.4182,-0.15003 -2.60698,0.58905 -0.18879,0.74517 0.84758,4.19807 1.0109,4.6775 0.24248,0.72026 0.75956,-0.36926 0.75956,-0.36926 0.26131,-0.46781 2.19121,-2.92199 2.1973,-3.23533 -0.001,-0.38366 -0.25798,-1.66749 -1.36078,-1.66196"
     id="path102"
     style="fill:#c9cacc" /><path
     d="m 162.13094,48.457445 c -0.75071,0.0421 -7.07079,0.7507 -11.28657,0.76233 -3.36045,0.0127 -6.91024,-0.15003 -8.80582,-0.0819 -0.14892,-0.0205 -0.38698,0 -0.60621,0.0305 -2.82068,-0.12124 -11.85181,-0.26684 -11.85181,-0.26684 -0.67431,-0.13564 -9.83389,2.23605 -11.16201,12.4237 -0.8188,6.2769 -0.41853,8.28486 1.00038,11.26442 0.84427,1.77434 2.54221,5.04677 2.48297,7.60337 -0.0233,1.07124 -1.92437,-4.4782 -1.89558,-3.84874 0.2757,6.44852 -0.84593,20.96987 -1.48701,24.053505 -0.7651,3.67545 -1.50418,1.81586 -2.3645,3.35048 -0.13453,0.24249 -2.01405,3.65774 -1.97198,3.70148 0.0404,0.0288 0.94281,-0.10962 1.90001,-0.1993 1.11332,-0.0376 2.02568,-3.06205 2.78635,-3.06205 0.12401,0 -0.83706,2.43535 -0.6887,2.39494 0.78835,-0.19321 2.0744,-0.52815 1.98915,0.10408 0.28566,0.0897 0.51098,-0.0576 0.68537,-0.2685 0.23086,-0.27737 1.27498,-4.9748 1.91551,-7.416235 0.1445,-0.39972 1.19083,-0.16886 1.47539,-0.0592 0.57023,-1.15042 -0.33936,-4.98753 1.30321,-10.31885 1.62985,-5.23887 3.34384,-9.7835 2.57543,-11.13322 -0.0825,-0.15446 -2.85832,3.53539 -2.92808,3.38979 -0.17328,-0.4213 9.05328,-15.91978 7.26455,-23.94666 -0.0349,-0.28733 -0.16166,-0.61175 -0.16166,-0.84316 -0.006,-0.062 1.06682,0.38698 2.40048,0.73908 1.7295,0.53258 3.24973,0.81271 3.76958,2.81237 0.62337,3.85704 2.4121,9.324 6.0488,9.65451 -1.65309,-1.51303 -3.76625,-9.20331 -3.50383,-12.36336 1.02031,5.15528 4.16042,12.62467 6.7519,12.28641 -0.53092,-0.83043 -2.69224,-5.53174 -2.69224,-8.4886 0.93396,2.45418 3.16558,7.83145 4.84913,7.87021 4.40291,0.0897 5.52343,-1.91551 8.77703,-2.64906 7.29001,-1.64756 9.20165,1.15042 10.31608,1.72673 -0.88911,-0.86032 -3.93234,-6.17282 -5.95359,-10.31774 -1.61102,-3.28294 1.10889,-6.56146 5.72273,-8.59821 0.91291,-0.40414 -5.21396,-0.34767 -6.65446,-0.30615"
     id="path104"
     style="fill:#c9cacc" /><path
     d="m 165.27215,76.792625 c 0,0 -0.24248,-0.2137 -0.44732,-0.24802 -0.0664,-0.0116 -0.10961,-0.0172 -0.15003,-0.0172 -0.0925,0 -0.1384,0.0172 -0.1384,0.0172 l -0.098,0.0476 0.0288,-0.10131 c 0.0116,-0.0681 0.10408,-0.19488 0.28843,-0.19488 0.0692,0 0.14172,0.0172 0.21923,0.0476 0.28622,0.10242 0.37535,0.38975 0.37535,0.39529 l 0.0548,0.16885 -0.13287,-0.11515 z"
     id="path106" /><path
     d="m 163.17893,76.394575 c 0.0172,-0.062 0.10408,-0.19488 0.29452,-0.19488 0.0664,0 0.13841,0.0144 0.21924,0.0393 0.046,0.0232 0.12677,0.0703 0.12677,0.0703 l 0.0576,0.0321 -0.19598,0.15169 -0.0232,-0.0116 c 0,0 -0.0781,-0.0277 -0.11848,-0.0332 -0.0609,-0.0116 -0.11293,-0.0172 -0.15279,-0.0172 -0.0952,0 -0.13841,0.0172 -0.13841,0.0172 l -0.098,0.0448 0.0288,-0.0985 z"
     id="path108" /><path
     d="m 163.67552,76.284955 c 0.0404,0.0172 0.11516,0.0592 0.11516,0.0592 l -0.11516,0.0908 c 0,0 -0.0869,-0.0349 -0.12677,-0.0404 -0.22533,-0.0415 -0.32332,0.0116 -0.32332,0.0116 0,0 0.072,-0.25411 0.45009,-0.12124"
     id="path110" /><path
     d="m 167.6682,104.34277 c -2.58372,0 -2.91866,-4.19807 -2.97679,-4.948775 -0.62337,-0.0448 -1.29934,-0.47334 -1.76105,-0.83707 -0.0232,-0.0172 -0.0692,-0.0476 -0.12124,-0.0736 0.0116,0.31058 0.026,0.63223 0.0316,0.93395 0.026,0.48497 0.12124,1.738355 0.15889,2.073295 l 0.009,0.0349 c 0.0548,0.47335 0.18767,1.58224 -0.90074,2.18845 -0.32331,0.16719 -0.67873,0.26518 -1.06515,0.26518 -0.32941,0 -0.62338,-0.0681 -0.81991,-0.10962 -0.046,-0.006 -0.0869,-0.0172 -0.12124,-0.0233 l -0.19044,-0.0172 c -0.27681,-0.0387 -0.65825,-0.0864 -0.94669,-0.10408 h -0.0808 c -0.54254,0 -2.07606,0.0985 -2.32131,0.12124 -0.0576,0.006 -0.10961,0.0116 -0.16719,0.0116 -0.86586,0 -1.57061,-0.69147 -1.58224,-0.70309 -0.43624,-0.4285 -0.47334,-1.10834 -0.0869,-1.6531 l 0.0985,-0.1445 0.14449,-0.10961 c 0.0864,-0.0565 0.35764,-0.24249 0.74462,-0.29895 0.31777,-0.20373 0.8199,-0.4966 1.57946,-0.91956 -0.6671,-1.297675 -3.60625,-5.797465 -1.04245,-7.216385 0.94391,-0.51541 2.4049,-1.03526 3.77621,-1.35691 0.0116,-0.0897 0.0349,-0.17494 0.0576,-0.25411 0.0288,-0.10408 0.0576,-0.45341 0.0172,-0.73354 -0.3986,0.21812 -0.80274,0.33328 -1.13768,0.33328 -0.11515,0 -0.21923,-0.0116 -0.32331,-0.0349 -0.87195,-0.18325 -1.998,-1.47262 -2.13087,-1.64424 -0.19598,-0.26574 -0.93506,-1.61711 -1.62265,-2.90039 -1.86513,-0.0869 -2.03841,-0.13841 -2.16575,-0.17772 -0.19044,-0.0648 -0.40414,-0.13286 -1.61656,-1.14487 -0.3986,-0.34491 -0.60067,-0.80441 -0.537,-1.25893 0.052,-0.37535 0.28843,-0.7042 0.62946,-0.87748 0.0288,-0.0116 0.046,-0.0244 0.0808,-0.0387 0.15556,-0.20927 0.41576,-0.42296 0.85423,-0.51376 l 0.12124,-0.0305 h 0.14726 c 0.29785,0 0.5514,0.10408 0.7651,0.2364 0.0172,-0.1445 0.052,-0.2901 0.12678,-0.42296 0.22532,-0.43736 0.68426,-0.7031 1.23013,-0.7031 0.30006,0 0.62337,0.0797 0.99319,0.24249 l 0.052,0.0288 0.0576,0.036 c 0.12125,0.0736 0.13841,0.0736 0.13841,0.0736 0.22809,0.0476 0.76842,0.21204 0.94723,0.2829 0.31169,0.13397 0.53701,0.30615 1.12329,1.3165 l 0.92675,0.93395 c 0.42463,-0.98765 0.93562,-1.43055 1.12329,-1.59386 0.26574,-0.22975 0.59182,-0.32774 0.93284,-0.43127 0.0664,-0.0233 0.16166,-0.0537 0.23695,-0.0736 0.13287,-0.12124 0.29453,-0.23363 0.46781,-0.33051 0.009,-0.0504 0.0288,-0.10408 0.046,-0.1456 -0.13841,-0.19487 -0.30615,-0.44898 -0.44179,-0.66268 -0.38089,-0.635 -0.33217,-1.20522 -0.30338,-1.56064 l 0.006,-0.11515 c 0.0548,-0.98157 1.29048,-1.81753 1.30211,-1.82306 0.1384,-0.0925 0.2912,-0.16609 0.42462,-0.21923 0.24802,-0.2901 0.68095,-0.77396 0.9871,-1.04689 0.24857,-0.23695 0.58351,-0.39528 0.90073,-0.51099 0.26518,-0.55029 0.82599,-0.81603 1.68576,-0.81603 0.27127,0 1.16647,0.0653 1.46099,0.10851 0.635,0.10408 1.06516,0.50379 1.28495,0.98765 0.5514,0.18602 0.90073,0.68261 0.96716,1.35082 l 0.19322,0.21093 c 0.14172,0.13841 0.44455,0.50213 0.54586,1.04966 0.34047,0.64662 0.2829,1.42224 0.24248,1.76714 -0.0172,1.05076 -0.28843,1.66915 -0.58018,2.01959 -0.0371,0.12678 -0.0664,0.22809 -0.10962,0.31335 1.00758,0.62337 1.31927,2.01959 1.41172,2.56988 0.0864,0.32221 0.47943,1.69185 0.68095,2.58152 0.2829,1.27165 -0.15612,2.47134 -0.20207,2.6042 l -0.0576,0.13841 -0.0869,0.12124 c -0.0808,0.10962 -0.51375,0.67431 -0.69257,0.89631 -0.34047,0.40303 -0.70752,0.58185 -1.02197,0.65105 0.10684,0.42739 0.21646,0.88911 0.28843,1.31816 0.80828,1.00758 1.2473,2.40048 1.2473,2.89707 0,0.3222 -0.10132,0.67098 -0.20207,0.92232 h 0.006 c 0.0864,0.24858 0.098,0.56193 0.0864,1.23568 0.34656,0.38088 0.64108,0.91955 0.95277,1.525755 0.0349,0.0736 0.0576,0.12678 0.0753,0.15003 1.5302,3.34495 -2.31577,3.6046 -2.55217,3.52211 -0.49604,0.46725 -2.12976,0.52649 -2.39882,0.52649"
     id="path112" /><path
     d="m 167.41742,76.065165 c -0.22809,-0.0421 -1.05686,-0.10407 -1.29325,-0.10407 -1.14045,0 -0.54587,0.57742 -0.54587,0.57742 0,0 -0.90959,0.12124 -1.28494,0.46614 -0.38089,0.34933 -1.07402,1.15651 -1.07402,1.15651 0,0 -0.30614,0.10961 -0.49105,0.23085 -0.18436,0.11516 -0.71306,0.5193 -0.79112,0.96274 -0.0576,0.29563 -0.098,0.65936 0.1384,1.05243 0.23086,0.39417 0.62947,0.91678 0.62947,0.91678 0,0 0.098,0.18602 0,0.40525 -0.0952,0.22532 -0.25411,0.78669 -0.25411,0.78669 0,0 -0.55141,0.2685 -0.71306,0.45452 -0.16443,0.18933 -0.93284,0.30172 -1.12882,0.46171 -0.18491,0.16166 -0.68151,0.59902 -1.02198,1.76715 -0.3986,0.34601 -0.60621,0.78945 -0.60621,0.78945 l -2.04118,-2.05391 c 0,0 -0.26851,-0.826 -0.64386,-0.9644 -0.13287,-0.0476 -1.0336,-0.34601 -1.24729,-0.43736 -0.7568,-0.28456 -0.88911,-0.0648 -0.73908,0.14726 0.15612,0.21038 0.61783,0.4285 0.73908,0.49106 0.10961,0.0648 0.16165,0.87305 -1.74998,0.5669 -0.0864,-0.0232 -0.60621,-0.33051 -0.92399,-0.46614 -0.82544,-0.26518 -0.68095,0.52261 -0.51376,0.66877 0.17882,0.1384 1.00759,0.99318 1.2008,1.05519 0.18214,0.0592 2.51231,0.15723 2.51231,0.15723 0,0 1.60216,3.01997 1.82472,3.31283 0.23085,0.30173 1.11996,1.15042 1.47815,1.22405 0.36373,0.0819 1.43774,-0.31058 1.96312,-1.2866 l 0.2137,3.94396 c 0,0 -3.66106,0.8199 -4.33371,1.37573 -1.37739,1.09007 1.05962,5.24773 1.87953,6.350525 0.25964,0.36373 0.0781,0.44345 0.0781,0.44345 0,0 -2.56657,1.41006 -2.59535,1.52576 -0.24249,-0.0681 -0.44456,0.0797 -0.44456,0.0797 0,0 -0.12124,0.17438 -0.0404,0.25964 0.0864,0.0825 0.51375,0.4058 0.84869,0.37535 0.31778,-0.0376 2.13087,-0.1384 2.55826,-0.12124 0.42739,0.0188 0.95831,0.0897 1.23567,0.12124 0.27127,0.0305 0.8487,0.25411 1.32204,0 0.46171,-0.2602 0.38698,-0.70309 0.3377,-1.14045 -0.0548,-0.44012 -0.17328,-2.149685 -0.17328,-2.149685 0,0 -0.0432,-1.98084 -0.0864,-2.22332 0.49936,0.0648 1.31373,0.25411 1.46376,0.16166 0.25688,-0.1445 0.51984,0.29286 0.51984,0.29286 0,0 0.8343,0.65991 1.21851,0.59182 0.37259,-0.0709 0.44456,-0.10132 0.63223,-0.65992 0.14118,-0.2004 0.26297,-0.15003 0.26297,0.36927 0,0.53258 -0.26297,5.342945 2.02679,5.247715 1.40895,-0.0565 2.4193,-0.73354 2.4193,-0.73354 0,0 0.39251,0.54421 0.94115,0.3521 1.44937,-0.52261 0.65825,-1.83081 0.53092,-2.03122 -0.10962,-0.20096 -0.77341,-1.647555 -1.18917,-1.675785 0.0205,-0.6123 -0.0808,-1.52909 -0.18768,-1.77711 0.0747,-0.13287 0.31778,-0.67154 0.31778,-0.92564 0,-0.25411 -0.413,-1.60826 -1.18695,-2.42374 -0.17329,-1.27165 -0.80828,-3.18772 -0.80828,-3.18772 0,0 0.84315,0.30172 1.09726,0.33383 0.25965,0.036 0.46781,-0.0853 0.635,-0.28566 0.17605,-0.20539 0.65548,-0.84925 0.65548,-0.84925 0,0 0.37812,-0.98433 0.1528,-1.97198 -0.21923,-0.97603 -0.68704,-2.58982 -0.68704,-2.58982 0,0 -0.21646,-1.56784 -0.99318,-1.92437 -0.77341,-0.3521 -0.92953,-0.32331 -0.92953,-0.32331 0,0 -0.24857,-0.33051 -0.0637,-0.40414 0.18767,-0.062 0.47943,-0.28456 0.56026,-0.38697 0.0897,-0.098 0.222,-0.64829 0.222,-0.64829 0,0 0.4595,-0.21923 0.4595,-1.52853 0,0 0.14726,-0.90793 -0.1993,-1.33975 0,-0.38698 -0.2746,-0.64109 -0.2746,-0.64109 l -0.49659,-0.53258 c 0,0 0.0664,-0.6743 -0.23695,-0.7507 -0.31168,-0.0736 -0.537,-0.1528 -0.537,-0.1528 0,0 -0.0111,-0.70475 -0.54808,-0.78448"
     id="path114"
     style="fill:#c9cacc" /><path
     d="m 163.29131,78.467315 c 0.24858,-0.0116 0.43016,0.3986 0.44179,0.49105 0.0116,0.0797 -0.046,0.0797 -0.17328,0.0537 -0.12124,-0.0188 -0.23086,-0.28456 -0.48774,-0.2613 -0.25411,0.0127 -0.2602,0.19598 -0.34933,0.17771 -0.0985,-0.0122 0.31446,-0.44954 0.56856,-0.46116"
     id="path116" /><path
     d="m 165.22565,77.797435 c 0.27127,0.0924 0.3521,0.36373 0.3521,0.36373 0,0 -0.25411,-0.2137 -0.47611,-0.25411 -0.22532,-0.0476 -0.32331,0.006 -0.32331,0.006 0,0 0.0753,-0.25355 0.44732,-0.11515"
     id="path118" /><path
     d="m 167.81547,79.887885 c -0.0349,-0.0853 -0.0753,-0.13286 -0.13841,-0.13286 l -0.046,0.006 -0.0288,0.0233 c -0.10408,0.13841 -0.21923,0.19598 -0.36372,0.19598 -0.16775,0 -0.30615,-0.10408 -0.30615,-0.10408 0,0 -0.0288,0.36982 0.37535,0.36982 0.30615,0 0.49106,-0.27293 0.49659,-0.28456 l 0.0288,-0.0315 -0.0177,-0.0415 z"
     id="path120" /><path
     d="m 169.02844,92.274495 -0.23972,-1.08011 -0.11238,-0.38697 -1.96312,-3.67269 -0.072,-0.13841 c -0.0692,-0.062 -0.12401,-0.1384 -0.28013,-0.29009 -0.046,-0.0376 -0.0172,-0.0969 0.0432,-0.0914 0.68427,0.0853 1.87952,-0.24248 2.16242,-0.3521 0.0808,0.098 1.98084,2.33294 2.12478,2.24049 0.14726,-0.0969 -1.91717,-2.82234 -1.93433,-2.82953 0,-0.0172 0.19598,-1.12606 0.15003,-1.25837 -0.0925,-0.26574 -0.64663,-0.67431 -0.87195,-0.67431 l -0.0349,0.009 c -0.0404,-0.0797 -0.0808,-0.14173 -0.0897,-0.15889 l -0.0316,-0.0532 c -0.15003,-0.26573 -0.26573,-0.44344 -0.34656,-0.57188 0.38089,0.12844 0.76233,0.24968 0.79111,0.26131 l 0.20761,0.0116 0.22532,-0.30726 -1.60548,-0.53866 c -0.14118,-0.0448 -0.30006,-0.351 -0.30615,-0.60621 -0.0116,-0.17771 1.10889,-1.27941 0.89519,-1.34418 -0.43292,-0.15169 -1.45822,0.9572 -1.48424,1.28162 -0.0232,0.21369 0.0985,0.68704 0.2829,0.87194 -0.0637,0.0925 -0.11239,0.19045 -0.11239,0.30615 -1.99246,0.13287 -2.70552,0.84759 -2.79188,1.21685 0,0 1.59386,-0.62669 2.15688,-0.72025 -0.36926,0.35099 0.21647,1.02197 0.21647,1.02197 -0.072,-0.0233 -0.25965,-0.15003 -0.45895,-0.006 -0.37258,0.29563 0.0116,0.90793 0.0836,1.04633 -0.15003,0.003 -0.25965,0.0332 -0.31169,0.0914 -0.19598,0.22532 0.17882,0.69866 0.44455,0.99429 0.12678,0.13841 -0.45341,0.10242 -2.13086,-1.15041 0.052,1.21851 2.06443,1.94596 2.70829,1.95149 0.0177,0.0293 2.59867,4.76553 2.68559,4.92608 m -3.34661,-6.50222 c 0.11515,-0.12678 0.43016,0.17439 0.52538,0.098 0.0897,-0.0808 -0.66711,-0.94724 -0.42739,-1.12772 0.2829,-0.18933 0.60953,0.48497 0.75956,0.36926 0.15889,-0.12677 0.10131,-0.18933 0.0576,-0.29895 -0.0205,-0.052 -0.34657,-0.64109 -0.3521,-0.64662 -0.0172,-0.0288 -0.36982,-0.57023 -0.13841,-0.68593 0.23695,-0.0819 0.48497,0.31611 0.53424,0.38421 0.0172,0.0172 0.46449,0.80994 0.64939,0.72468 0.17882,-0.10961 -0.33493,-1.29491 -0.33493,-1.29491 -0.0316,-0.10961 -0.24802,-0.41687 -0.14118,-0.50213 0.10962,-0.0864 0.222,-0.062 0.52815,0.34491 0.0288,0.036 0.8487,1.52576 0.95278,1.47262 0,0 0.0172,-0.29896 -0.10962,-0.52871 0.16166,0.12678 0.47943,0.22366 0.46172,0.44289 -0.006,0.0764 -0.0288,0.71583 -0.15003,0.87195 -0.35819,0.43736 -2.04728,1.00481 -2.57266,0.91956 -0.0487,-0.0526 -0.38089,-0.37978 -0.24248,-0.5431"
     id="path122" /><path
     d="m 160.99602,92.101215 -0.27681,0.16885 -0.42185,0.25965 c 0.072,0.17162 1.72673,4.18644 3.40695,5.44979 l 0.046,-0.15446 c -2.24602,-3.03879 -2.75424,-5.72383 -2.75424,-5.72383"
     id="path124" /><path
     d="m 167.19209,94.162325 c -1.00758,0.14449 -1.71787,3.47062 -1.71787,3.47062 0.24249,-0.31335 0.25411,0.23086 0.25411,0.23086 0,0 0.81105,-2.82953 1.51027,-3.11963 0.71305,-0.29176 1.76991,-0.16442 1.76991,-0.16442 0,0 -0.79998,-0.57466 -1.81642,-0.41743"
     id="path126" /><path
     d="m 159.43704,88.913495 c 0.11571,-0.0736 -0.27681,-3.22814 -0.27681,-3.22814 l -0.14449,0.15612 -0.24858,-0.15612 c -0.13286,0.27183 0.55417,3.30177 0.66988,3.22814"
     id="path128" /><path
     d="m 160.17612,86.378485 0.24248,2.57542 0.44455,-0.24857 -0.12124,-1.89558 c 0,0 0.22532,0.10131 0.30338,0.036 0.0781,-0.0692 -0.35542,-0.45618 -0.37867,-0.92952 -0.0172,-0.34546 0.37535,-0.79665 0.30615,-0.83596 -0.0692,-0.0415 -0.20207,0.0914 -0.20207,0.0914 0.0232,-0.31335 0.046,-0.65825 0.0692,-0.87749 0.0288,-0.30781 0.43902,-0.93118 0.43902,-0.93118 -0.91845,0.32497 -1.08564,1.36854 -1.08564,1.36854 l -0.0576,0.81548 c 0,0.0127 -0.0808,0.2613 -0.0808,0.43348 0,0.17882 0.11515,0.39805 0.11515,0.39805 h 0.006 z"
     id="path130" /><path
     d="m 170.49773,98.833735 c 0,0 -0.0233,3.131245 -0.6898,3.921255 h 0.36926 c 0.13287,-0.12124 0.3986,-1.12771 0.49106,-1.5086 0.10076,-0.42019 0.0836,-2.134735 0.0836,-2.134735 l -0.25411,-0.27792 z"
     id="path132" /><path
     d="m 159.07885,94.537675 c -0.11847,0.65991 2.59535,3.18163 2.59535,3.18163 l 0.74517,-0.34601 c 0,0 -2.57265,-1.88284 -3.34052,-2.83562"
     id="path134" /><path
     d="m 166.50173,77.208385 c 0.0376,0.0421 0.0233,0.26574 -0.0116,0.4285 0,0.009 -0.0781,0.32221 0.34324,0.5359 0.27736,0.13287 0.43902,0.36373 0.54587,0.52538 0.026,0.036 0.0493,0.0747 0.0603,0.098 0.0753,0.0853 0.0985,0.16166 0.0404,0.36373 -0.0232,0.0853 -0.0637,0.1384 -0.10131,0.18601 -0.0376,0.0371 -0.0836,0.0963 -0.0548,0.17162 l 0.006,0.0233 c 0.0233,0.0913 0.098,0.31334 0.30006,0.3986 0.0404,0.0305 0.1445,0.17217 0.0288,0.51542 l -0.0349,0.0969 c -0.12677,0.36926 -0.0172,1.25449 0.19598,1.19526 0.21924,-0.0565 0.17938,-0.826 0.23695,-0.91679 0.12678,-0.16885 0.2137,-0.63666 0.16775,-0.89077 -0.0116,-0.0908 -0.046,-0.15557 -0.10408,-0.18601 -0.19598,-0.12678 -0.25965,-0.22976 -0.25965,-0.25965 0,-0.009 0.0288,-0.0504 0.052,-0.0797 0.046,-0.0504 0.0925,-0.12124 0.13287,-0.20761 0.0692,-0.16719 0.0232,-0.40967 -0.046,-0.5669 -0.0637,-0.1384 -0.45064,-0.62946 -0.67597,-0.70863 -0.19598,-0.0565 -0.31168,-0.16885 -0.31168,-0.27847 -0.003,-0.0504 0.006,-0.12678 0.0116,-0.20041 0.0288,-0.17494 0.0404,-0.33383 -0.0315,-0.43182 -0.65548,-0.90793 -1.61656,-0.79831 -1.61656,-0.79831 l -0.41853,0.45452 c 0,-5.6e-4 0.74516,-0.37591 1.54458,0.53202"
     id="path136" /><path
     d="m 161.30494,83.139275 c 0.12124,0.0792 0.76233,0.16885 1.9144,0.90184 0.17329,-0.29009 -1.03913,-0.9644 -1.60493,-1.15041 -0.33494,0 -0.35819,0.0736 -0.36926,0.10408 -0.0122,0.0349 -0.0122,0.0852 0.0598,0.14449"
     id="path138" /><path
     d="m 157.82879,100.92419 c -1.01035,-1.385695 -3.21042,-1.442165 -3.94397,-0.73908 -0.0432,-0.0421 -0.072,-0.0681 -0.10961,-0.098 -0.30892,-0.241375 -1.19803,-0.773955 -1.62819,-1.016435 -0.67264,-0.71029 -0.95609,-0.88357 -1.10003,-0.95831 -0.55417,-0.33383 -1.61379,-0.70863 -2.51785,-0.92509 -0.17328,-1.9216 -0.32054,-2.37059 -0.42462,-2.56823 0.009,-0.062 0.21702,-1.76271 0.18214,-2.82953 0.57188,0.10408 1.32812,0.22366 1.94042,0.22366 0.34048,0 0.61175,-0.0376 0.83707,-0.11958 0.58905,-0.15446 1.56175,-0.49106 1.96036,-1.13602 l 0.0925,-0.1384 0.0404,-0.16277 c 0.0376,-0.1384 0.29729,-1.39898 -0.45341,-2.58704 -0.51375,-0.80718 -1.9515,-2.32132 -2.75701,-3.08973 0.0376,-0.4429 0.0603,-0.88911 0.0603,-0.89631 0.0321,-0.36206 -0.0664,-0.73908 -0.49107,-1.17643 -0.12678,-0.13287 -1.09118,-1.23014 -1.36854,-1.39733 -0.2602,-0.15446 -0.68704,-0.27293 -1.0336,-0.27293 -0.12678,0 -0.23972,0.0188 -0.35819,0.0531 -0.94115,0.2065 -0.85146,1.6531 -0.81382,1.77434 -0.12124,-0.0709 -0.24857,-0.13286 -0.38088,-0.1921 -0.32608,-0.35764 -0.79998,-0.56469 -1.27055,-0.66268 -0.24249,-0.17439 -0.59901,-0.35542 -1.05796,-0.35542 -0.0321,0 -0.0681,0 -0.10408,0.006 -0.60787,0.036 -0.62337,0.10131 -0.91956,0.3377 -0.45452,0.0969 -0.86585,0.36373 -1.1792,0.75071 -0.25965,0.14726 -0.58185,0.41466 -0.83264,0.85478 -0.27847,0.22366 -0.57742,0.59348 -0.8199,1.24176 l -0.0908,0.2364 c -0.21646,0.56468 -0.45784,1.19968 -0.28456,1.85959 0.01,0.009 0.0127,0.0388 0.0188,0.0565 -0.52705,0.14449 -1.26889,0.44898 -1.68023,1.25339 -0.18048,0.36372 -0.37535,0.8426 -0.53092,1.26612 -0.22809,0.0144 -2.87437,0.33936 -2.8179,1.58832 0.0172,0.39252 0.2065,0.78226 0.56469,1.03084 -0.24858,0.42296 -0.26574,0.86751 -0.0448,1.24286 0.19045,0.33051 0.45342,0.56691 0.7496,0.68261 0.0996,0.31612 0.24802,0.64386 0.47223,0.92786 0.26131,0.33383 0.54421,0.57908 0.78393,0.75071 -0.49383,0.16165 -1.02087,0.39805 -1.523,0.76177 -0.73354,0.4966 -1.82306,1.58833 -0.87748,3.28018 0.15003,0.259635 0.61506,0.773395 2.93638,3.053185 -0.0808,0.0952 -1.90721,3.45124 1.07844,3.5902 0.68039,1.14598 3.00724,-0.50102 3.08641,-0.54587 0.17439,0.0388 3.3001,0.0504 2.46857,-2.35563 0.21647,-0.0349 1.29491,-0.33383 1.35138,-0.33937 0.34933,0.1528 1.1172,0.46615 1.57338,0.51099 0.20483,0.0172 0.53977,0.0305 0.78835,0.0305 0.31777,0 1.09117,-0.0127 1.46376,-0.0864 0.098,-0.0172 0.2076,-0.0476 0.32884,-0.0681 0.32608,0.52427 0.83431,1.17643 1.49256,1.54625 0.78558,0.45009 2.58428,1.25283 3.1844,1.52134 0.11848,0.12124 1.38294,1.16923 2.21447,1.16923 2.65071,0 1.83081,-2.4121 1.87399,-2.54663 0.21757,-0.62448 0.61008,-3.33831 -0.12899,-4.33758"
     id="path140" /><path
     d="m 148.55516,88.179955 c -0.10685,-0.13287 -1.13491,-0.39861 -1.55621,-0.4429 -0.1445,-0.14615 -0.61784,-0.29009 -0.61784,-0.29009 0,0 0.64663,-0.48497 0.62946,-0.8188 -0.44732,-2.29419 -1.22404,-2.47134 -1.22404,-2.47134 0,0 -0.24249,-0.52096 -0.89686,-0.60068 -0.11238,-0.49105 -1.07125,-0.57299 -1.07125,-0.57299 0,0 -0.23971,-0.31777 -0.62337,-0.29895 -0.27736,0.0205 -0.36705,0.13287 -0.50822,0.30449 0,0 -0.57465,-0.0925 -0.95831,0.56745 0,0 -0.45452,0.0969 -0.73354,0.75957 0,0 -0.33604,0.0836 -0.64109,0.87914 -0.20649,0.54254 -0.45175,1.07844 -0.34933,1.48424 0.11239,0.40414 0.4429,0.82434 0.4429,0.82434 0,0 -0.31058,0.25411 -0.65272,0.36095 -0.34601,0.10242 -1.18252,0.16609 -1.52576,0.8487 -0.34601,0.67984 -0.77341,1.98637 -0.77341,1.98637 0,0 -0.2076,-0.12124 -0.45894,-0.1456 -0.22256,-0.0233 -1.23291,0.0188 -1.45823,0.18435 -0.12401,0.0825 -0.56469,0.13841 -0.55306,0.30615 0.0271,0.49051 0.80385,0.31723 0.80385,0.31723 l -0.17605,1.03969 c 0,0 -0.32608,0.31722 -0.23972,0.4678 0.088,0.15169 0.23972,0.20761 0.34214,0.17439 0.13287,-0.0232 0.3438,-0.27293 0.3438,-0.27293 0,0 0,1.01478 0.45175,1.58777 0.44898,0.57189 0.96993,0.77506 0.96993,0.77506 0,0 0.33937,0.13564 0.635,0 0.30172,-0.11515 0.86032,-0.56192 0.90793,-0.73354 0.0421,-0.16885 0.18934,-0.74517 0.18934,-0.74517 0,0 0.23971,-0.91346 0.34933,-0.93671 0.10242,-0.0188 0.21203,0.12677 0.21203,0.12677 v 1.85351 c 0,0 -0.73354,1.38017 -0.73354,1.73835 -0.38698,0.0476 -2.05724,-0.13286 -3.50051,0.90794 -1.18253,0.80717 -0.76787,1.55178 -0.55583,1.93322 0.21037,0.38698 3.82272,3.864235 3.92956,3.991565 -0.0476,0.12125 0.062,0.27571 -0.10684,0.27571 h -0.38975 c 0,0 -0.55029,-0.2137 -0.64386,0 -0.23085,0.52538 0.351,0.47777 0.37536,0.56745 0.0144,0.0969 -0.47058,-0.0709 -0.54144,0.2065 -0.098,0.34047 0.009,0.65936 0.23971,0.93949 0.1445,0.1921 0.5193,0.10131 0.62614,0.14006 0.11571,0.046 0.1517,0.22366 0.43736,0.2829 0.63278,0.24857 2.03122,-0.88911 2.21447,-0.86032 0.67984,0.34103 1.47261,-0.2829 1.52023,-0.66545 0.0537,-0.38697 -0.006,-0.57631 -0.14561,-0.87194 -0.1384,-0.28622 -0.57631,-0.75347 -0.57631,-0.75347 0,0 0.54144,-0.16886 0.65714,-0.222 0,0 0.0764,-0.0565 0.25965,0.0305 0.17771,0.0908 0.97879,0.23694 1.21574,0.22532 0.23971,-0.007 1.13159,-0.43902 1.26999,-0.36373 0.14118,0.0764 1.0253,0.44622 1.35415,0.47224 0.32608,0.036 1.58832,0.0305 1.94042,-0.0377 0.34657,-0.0648 1.05686,-0.27847 1.05686,-0.27847 0,0 0.58628,1.36854 1.47815,1.87842 0.8952,0.50213 3.28848,1.55179 3.28848,1.55179 0,0 0.96163,0.99318 1.59663,0.99318 0.62946,0 0.79112,-0.54033 0.79112,-0.6671 -0.006,-0.13287 -0.0233,-0.81714 0.10408,-1.16924 0.12677,-0.36926 0.24248,-1.4549 0.27127,-1.96312 0.0376,-0.50822 0.21369,-1.92437 -1.14931,-2.13087 -0.21369,-0.036 -0.68095,-0.11515 -0.7651,-0.11515 -0.1993,0.0172 -0.10131,0.48496 -0.16442,0.30781 -0.0781,-0.21647 -0.30615,-0.26685 -0.3986,-0.23363 -0.24802,0.11238 -0.35764,0.32442 -0.3521,0.44013 0.0172,0.2076 0.10961,0.76952 0.10961,0.76952 0,0 -1.10834,-0.88523 -1.41172,-1.13325 -0.30283,-0.24857 -1.61988,-1.004805 -1.61988,-1.004805 0,0 -0.71306,-0.75071 -0.92952,-0.84316 -0.12124,-0.14449 -1.99246,-0.99928 -3.00281,-0.98156 -0.0172,-0.76842 -0.0576,-2.56269 -0.4966,-3.4363 0.006,-0.24082 0.27681,-2.75977 0.11515,-3.423 -0.0692,-0.2901 0.37536,-0.51376 0.60068,-0.51376 0.22532,0 2.37889,0.49106 2.9624,0.24138 0,0 1.14321,-0.28844 1.39732,-0.70586 0,0 0.23086,-0.94004 -0.31777,-1.79483 -0.54863,-0.86032 -2.46581,-2.82344 -2.9624,-3.22813 0.0637,-0.4966 0.10962,-1.39013 0.10962,-1.39013 0,0 0,-0.19211 -0.12678,-0.31335 -0.13841,-0.1384 -1.01035,-1.13934 -1.13159,-1.24176 -0.0985,-0.0925 -0.4966,-0.22532 -0.65825,-0.17771 -0.16166,0.0504 -0.10962,0.39528 -0.0172,0.48497 0.098,0.10297 0.36373,0.3222 0.36373,0.3222 l 0.1384,0.38698 c 0,0 -0.17937,0.0925 -0.21369,0.17771 -0.0288,0.0764 -0.0288,0.52095 0.0349,0.62337 0.0637,0.0897 0.27736,0.13287 0.27736,0.13287 0,0 -0.19598,0.43459 -0.38698,0.44732 -0.16775,-0.23639 -0.44179,-0.95 -0.67873,-0.71582 -0.11294,0.11515 -0.17052,0.31057 -0.10685,0.50545 0.052,0.18601 0.36981,1.09671 0.53147,1.26612 0.16719,0.16165 0.28843,0.25411 0.28843,0.25411 0,0 1.20799,1.87676 1.26889,2.22277"
     id="path142"
     style="fill:#c9cacc" /><path
     d="m 137.00009,97.274755 c 1.72949,-0.18048 4.884,5.168005 4.98753,5.283155 0.10961,0.1157 0.30448,-0.13287 0.30448,-0.13287 -0.13231,-0.2303 -2.88821,-5.912065 -5.29201,-5.150285"
     id="path144" /><path
     d="m 136.772,91.610155 c 0.30781,-0.0476 0.80994,-0.635 0.72745,-0.66545 -0.0764,-0.0316 -0.33494,0.35543 -0.79831,0.35543 -0.14893,0 -0.32774,-0.036 -0.52096,-0.0709 l -0.046,-0.0116 c -0.0565,0.10297 -0.45894,0.16774 -0.45894,0.16774 l 0.0504,0.24802 0.39529,-0.0963 c 0.0653,0.0255 0.34379,0.12069 0.65105,0.0731"
     id="path146" /><path
     d="m 139.3823,88.382575 c -0.36373,0.0421 0.0531,4.95431 0.0531,4.95431 l 0.37867,-0.49106 c -0.0504,-0.27681 -0.0985,-1.71344 -0.0925,-1.91828 0.12844,0.0836 1.80147,-0.2685 2.17406,-0.89796 0,0 -1.1709,0.21203 -1.46653,0.14726 -0.52705,-0.0853 -0.66545,-0.31058 -0.69147,-0.47224 0.003,-0.0504 -0.19819,-1.33366 -0.35542,-1.32203"
     id="path148" /><path
     d="m 139.15698,96.126005 -0.33051,0.23694 c 2.38165,1.25837 3.82825,5.907085 3.83988,5.953035 l 0.0116,0.0504 0.76953,0.26684 c 0,5.5e-4 -1.81863,-5.398855 -4.29052,-6.507195"
     id="path150" /><path
     d="m 144.78448,102.36802 c 0.10408,0.16331 0.64773,-0.12678 0.64773,-0.12678 v -0.0537 c 0,-0.0205 -0.0592,-2.256535 1.74002,-3.971085 0,0 -1.96478,0.39639 -2.38775,4.151565"
     id="path152" /><path
     d="m 154.52591,101.96388 -0.44732,-0.30726 c 0,0 0.21093,1.00481 0.1993,1.44494 -0.009,0.0753 -0.0288,0.0925 -0.0603,0.12124 -0.0172,0.0188 -0.0233,0.0305 -0.0404,0.0387 -0.16442,0.18048 -0.0493,0.88357 -0.0493,0.88357 0,0 0.19377,-0.40137 0.39861,-0.62946 0.0177,-0.0205 0.0321,-0.0387 0.0548,-0.0565 0.0952,-0.0913 0.11571,-0.16165 0.0637,-0.56192 -0.009,-0.13508 -0.11903,-0.93339 -0.11903,-0.93339"
     id="path154" /><path
     d="m 147.42025,88.336065 c -0.0864,0.0116 -0.24802,1.18806 -0.24248,1.34529 0,0.0232 -0.046,0.79278 -0.90683,0.65825 -0.85866,-0.1384 -1.21242,-0.30006 -1.21242,-0.30006 0.30449,0.60455 1.73227,0.90073 2.08492,1.39733 0.0747,0.10408 0.13287,0.65382 0.1445,0.72191 h 0.28289 v -0.98156 l 0.2829,-0.0853 c -0.12733,-2.05281 -0.34656,-2.77307 -0.43348,-2.75591"
     id="path156" /><path
     d="m 141.59953,87.435335 c -0.51376,0 -1.27498,0.0792 -1.301,0.0864 l -0.86364,0.1849 0.25134,0.19045 c 0.0172,-0.006 1.14045,-0.23086 1.88673,-0.23086 0.12401,0 0.22366,0.006 0.30283,0.0288 0.64551,0.14006 1.42057,0.41687 1.4322,0.30449 0.003,-0.10242 -0.91679,-0.46061 -1.35415,-0.54144 -0.0825,-0.0111 -0.20096,-0.0227 -0.35431,-0.0227"
     id="path158" /><path
     d="m 147.1833,87.758645 0.0576,-0.036 0.0232,-0.026 0.0233,-0.0476 -0.0288,-0.0648 -0.34656,-0.20096 c -0.0349,0 -1.68908,-0.006 -1.68908,-0.006 -0.40691,0.0116 -1.68742,0.52538 -1.60494,0.62337 0.0819,0.0913 1.01201,-0.30172 1.65255,-0.38089 0.67153,-0.0869 1.85517,0.1384 1.91274,0.1384"
     id="path160" /><path
     d="m 145.85518,84.588085 c 0.3294,-0.34601 -0.30615,-0.73907 -0.31778,-0.78668 0,0 0.44179,0.58019 0.0836,0.41687 -0.30449,-0.48497 -1.50418,-0.83707 -1.54625,-0.88357 -0.062,-0.0753 0.15169,-0.27847 0.81271,0.21812 0.0421,-0.0853 -0.3593,-0.47777 -0.93395,-0.43735 -0.0116,-0.0792 -0.0648,-0.1672 -0.11848,-0.20041 -0.009,-0.006 -0.0172,-0.006 -0.0172,-0.006 -0.0232,0 -0.0592,0 -0.0476,0.0116 0.0504,0.0565 0.13564,0.19487 0.0415,0.20649 -0.11238,0.0116 -0.18048,-0.18601 -0.20373,-0.21812 -0.0587,-0.10962 -0.33438,0.0448 -0.17439,0.16609 0.0404,0.0404 0.11571,0.0637 0.1838,0.11404 0.0819,0.0476 0.046,0.0781 -0.0244,0.0476 -0.0936,-0.0288 -0.1921,-0.0476 -0.31888,-0.0476 -0.1301,0 -0.24857,0.0305 -0.36096,0.0781 -0.0504,0.0116 -0.0963,-0.0127 -0.0371,-0.0592 0.0487,-0.0448 0.12401,-0.062 0.17051,-0.0924 0.23086,-0.16166 -0.1528,-0.4285 -0.21812,-0.0476 -0.0448,0.0709 -0.0897,0.12124 -0.12401,0.13453 -0.17439,0.0116 0.0116,-0.26131 0.003,-0.26131 0,0 -0.0205,0.0244 -0.0305,0.0305 -0.0548,0.0349 -0.12678,0.10408 -0.14173,0.18048 -0.0448,-0.006 -0.71195,0.0376 -0.80717,0.40137 0.49383,-0.36373 0.75347,-0.33937 0.72191,-0.20041 -0.009,0.0592 -0.60011,0.3986 -0.84038,0.62337 -0.18602,0.13841 -0.46615,0.47943 -0.5193,0.49106 -0.0952,0.0172 -0.10961,-0.17439 0.0172,-0.4285 -0.31058,0.30726 -0.25135,0.54974 -0.16886,0.67707 -0.15612,0.37535 -0.12401,0.8487 0.0808,1.22405 0.17605,0.31058 1.26169,1.23013 1.35415,1.16757 0.0913,-0.0648 -1.1244,-1.13159 -1.21519,-1.59109 -0.19211,-1.09671 1.28605,-2.06 1.76382,-2.11647 0.0244,0 0.0869,0.1384 0.35819,0.12124 0.3377,-0.0127 0.37535,-0.12124 0.37535,-0.12124 0.38255,-0.0476 2.18568,0.635 1.998,1.96921 -0.0664,0.42019 -0.23196,0.92232 -0.15889,0.97603 0.072,0.0432 0.14727,-0.18048 0.3294,-0.54421 0.19875,-0.38199 0.20429,-0.85534 0.031,-1.21353"
     id="path162" /><path
     d="m 150.56756,90.559395 c -0.23086,-0.25411 -2.15412,-2.56989 -2.1652,-2.57543 -0.0177,-0.0349 -0.0637,-0.10961 -0.13286,-0.10961 -0.0376,0 -0.28013,0.0127 -0.28844,0.0692 0.40414,0.67597 1.32259,1.74998 1.97198,2.27536 0.29121,0.26076 0.53369,0.41411 0.61452,0.34048"
     id="path164" /><path
     d="m 138.66647,103.14197 c 0.098,0.12678 0.26574,0.37535 0.26574,0.37535 0,0 0.23639,-0.58185 0.64828,-0.8127 0.40414,-0.22809 1.11166,-0.54421 1.41615,-0.55583 -1.16259,-0.29619 -2.28256,0.56136 -2.33017,0.99318"
     id="path166" /><path
     d="m 138.08573,93.706145 c 0.21812,0.006 0.28456,-0.20761 0.28733,-0.43736 l 0.0432,-0.0421 c 0.006,-0.006 0.21369,-0.19211 0.34656,-0.61175 0.10131,0.5586 0.38089,1.67303 0.17439,1.96313 l -0.31888,0.33493 0.33328,-0.19044 c 0.13009,-0.0459 0.34102,-0.2829 0.27459,-0.67707 -0.0349,-0.21204 -0.36207,-1.98638 -0.36207,-1.98638 l -0.0161,-0.0736 c -0.0172,-0.23086 -0.0853,-0.44898 -0.21536,-0.61783 -0.21646,-0.29619 -0.56136,-0.44899 -0.78945,-0.46781 0,0 0.91678,0.61175 0.79831,1.26003 -0.10962,0.61784 -0.22532,0.66822 -0.22532,0.67431 l -0.12678,-0.14616 -0.0116,0.36373 c -0.0199,0.18048 -0.0792,0.25411 -0.19764,0.24857 -0.3521,-0.006 -0.6123,0.47334 -0.98765,0.36373 -0.3521,-0.10242 -0.53867,-0.39529 -0.76067,-0.56469 -0.20096,-0.15612 0.10685,-0.46781 0.10685,-0.46781 0,0 -0.0116,-0.12124 -0.10242,-0.18491 -0.0952,-0.0637 -0.253,0.33051 -0.253,0.33051 0,0 -0.21203,0.54144 0.0869,0.73354 0.52538,0.34546 0.35487,0.33937 0.92232,0.51099 0.57023,0.1755 0.52594,-0.32663 0.99319,-0.31556"
     id="path168" /><path
     d="m 162.97077,76.735045 c -0.38698,0 -0.8808,-0.24248 -1.00204,-0.92288 -0.0432,-0.13287 -0.38366,-0.92509 -0.67265,-1.61102 -1.66306,-3.88749 -1.53019,-2.46581 -1.37407,-3.08364 0.27681,-1.11443 1.80423,-1.24841 2.93638,-1.24841 0.26296,0 0.46171,0.0127 0.53424,0.0188 0.54863,0.006 1.02751,0.2065 1.40341,0.57022 0.61784,0.61175 0.7734,1.51414 0.7734,1.93434 0,0.046 -0.83153,2.5566 -1.25283,3.31283 l -0.0172,0.0305 c -0.6123,0.98765 -1.14322,0.99928 -1.32259,0.99928 h -0.006 z"
     id="path170" /><path
     d="m 163.36107,70.729975 c 0,0 -2.42262,-0.15612 -2.61584,0.58295 -0.18214,0.74517 1.53906,3.56861 2.06444,4.3542 0.37535,0.55859 0.76177,-0.36927 0.76177,-0.36927 0.2602,-0.46061 1.13769,-2.59313 1.14322,-2.9087 0,-0.39362 -0.25964,-1.66527 -1.35359,-1.65918"
     id="path172"
     style="fill:#c9cacc" /><path
     d="m 94.52334,46.655975 c 0,0 6.75633,0.42297 7.94107,8.05069 0.38089,-1.40453 -1.15042,-6.02279 -3.08918,-7.14885 -0.21923,-0.12677 -1.05519,-0.53866 -0.43736,-1.90111 -2.27093,-0.32885 -4.41453,0.99927 -4.41453,0.99927"
     id="path174" /><path
     d="m 126.76539,49.739615 c 0,0 4.12721,-1.55787 5.106,5.07002 0.44621,-2.42373 -0.11294,-5.30641 -1.7832,-6.17891 -1.67303,-0.87139 -3.3228,1.10889 -3.3228,1.10889"
     id="path176" /><path
     d="m 107.33125,56.830885 c 0,0 0.41134,1.3929 0.84869,1.66749 0.4429,0.26519 1.58777,-1.44826 1.58777,-1.44826 0,0 -0.79831,2.06555 -1.50583,2.59314 -0.5669,-0.43182 -0.78946,-0.95886 -0.93063,-2.81237"
     id="path178" /><path
     d="m 109.00594,58.389875 c 0,0 0.66268,1.38016 1.10003,1.65309 0.4429,0.26297 1.46376,-1.3702 1.46376,-1.3702 0,0 -0.90793,2.11482 -1.3785,2.51619 -0.42352,-0.38144 -1.25339,-0.87804 -1.18529,-2.79908"
     id="path180" /><path
     d="m 105.15388,60.746065 c 0,0 0.80717,1.48424 1.29214,1.67911 0.82433,0.33217 0.88357,-1.84243 0.88357,-1.84243 0,0 0.34933,2.40934 -0.56137,3.19935 -0.76233,-0.43791 -1.16204,-0.73355 -1.61434,-3.03603"
     id="path182" /><path
     d="m 107.20669,59.868025 c 0,0 0.43791,1.3093 0.85201,1.62265 0.41023,0.31058 1.27055,-2.02845 1.27055,-2.02845 0,0 -0.28013,2.31245 -0.93395,3.46619 -0.42296,-0.48497 -1.13214,-1.21242 -1.18861,-3.06039"
     id="path184" /><path
     d="m 108.88138,60.924875 c 0.006,0.062 0.79277,1.23014 1.27774,1.45491 0.49659,0.21203 0.81548,-1.79427 0.81548,-1.79427 0,0 0.14117,2.29086 -0.45175,2.95631 -0.34324,-0.24249 -1.47539,-0.82268 -1.64147,-2.61695"
     id="path186" /><path
     d="m 109.32925,55.381525 c 0,0 0.7723,1.75662 1.28605,2.02844 0.51376,0.26297 1.28328,-1.62264 1.28328,-1.62264 0,0 -0.39417,2.05447 -1.31373,2.69555 -0.62614,-0.54365 -0.81824,-0.90737 -1.2556,-3.10135"
     id="path188" /><path
     d="m 108.02991,53.874025 c 0,0 0.48497,1.3093 0.92288,1.54071 0.43736,0.23363 1.19969,-1.54071 1.19969,-1.54071 0,0 -0.45175,2.2654 -1.15208,2.95686 -0.47389,-0.38144 -0.69312,-1.0109 -0.97049,-2.95686"
     id="path190" /><path
     d="m 110.70056,53.412305 c 0,0 0.40414,1.13159 0.78392,1.37408 0.37258,0.24248 0.9572,-0.75071 0.9572,-0.75071 0,0 -0.23363,1.57061 -0.92841,1.78265 -0.28733,-0.25688 -0.60068,-0.76621 -0.81271,-2.40602"
     id="path192" /><path
     d="m 112.76222,52.084185 c 0,0 0.22533,1.06682 0.54698,1.29214 0.30449,0.22809 0.87748,-0.74794 0.87748,-0.74794 0,0 -0.0736,1.18806 -0.91125,1.71511 -0.30671,-0.36982 -0.67652,-0.82323 -0.51321,-2.25931"
     id="path194" /><path
     d="m 114.68493,50.530735 c 0,0 0.22532,1.06128 0.53867,1.28937 0.31279,0.22366 0.88357,-0.7507 0.88357,-0.7507 0,0 -0.10685,1.44826 -0.88634,1.61102 0.0963,0.13564 -0.68316,-0.86032 -0.5359,-2.14969"
     id="path196" /><path
     d="m 105.58459,58.176175 c 0,0 0.70309,1.2473 1.03194,1.28328 0.32497,0.0321 0.95167,-1.28328 0.95167,-1.28328 0,0 -0.29619,1.76825 -0.95167,2.12644 -0.29286,-0.35819 -0.87194,-0.92565 -1.03194,-2.12644"
     id="path198" /><path
     d="m 109.77104,52.239745 c 0,0 0.29618,1.04966 0.6206,1.25339 0.32497,0.2137 0.8343,-0.8044 0.8343,-0.8044 0,0 -0.16609,1.50251 -0.73354,1.92603 -0.36041,-0.32608 -0.79499,-0.86641 -0.72136,-2.37502"
     id="path200" /><path
     d="m 140.06657,68.691555 c -1.14045,-0.39251 -2.54221,-2.76752 -2.96794,-3.78064 -0.42573,-1.02364 -1.19525,-4.02202 -0.73022,-5.11763 0.24525,1.08398 0.9024,3.40253 1.39899,4.44609 0.74461,1.56341 1.6841,3.60294 2.29917,4.45218"
     id="path202"
     style="fill:#c9cacc" /><path
     d="m 164.70913,99.284385 c -0.20761,-0.42906 -1.29934,-0.86032 -1.77822,-0.92842 -0.43846,-0.0653 -0.53424,-0.0764 -0.57465,0.36926 -0.0376,0.36373 -0.0548,0.74794 0.0172,1.12883 0.11847,0.665435 0.17051,0.470565 0.7651,0.503785 0.45009,0.0349 0.85478,0.10242 1.29324,0.0703 0.42186,-0.0244 0.51099,-0.036 0.51099,-0.428495 -0.006,-0.28456 0.10685,-0.63666 -0.23418,-0.73908"
     id="path204" /><text
     x="151.33807"
     y="200"
     id="text206"
     style="font-size:5.54673481px;font-family:HelveticaNeue-MediumCond">TM</text>
</svg>