<?xml version="1.0" encoding="UTF-8" standalone="no"?>
<!-- Created with Inkscape (http://www.inkscape.org/) -->

<svg
   xmlns:dc="http://purl.org/dc/elements/1.1/"
   xmlns:cc="http://creativecommons.org/ns#"
   xmlns:rdf="http://www.w3.org/1999/02/22-rdf-syntax-ns#"
   xmlns:svg="http://www.w3.org/2000/svg"
   xmlns="http://www.w3.org/2000/svg"
   version="1.1"
   width="280"
   height="200"
   viewBox="0 0 223.99999 159.99999"
   id="svg2">
  <metadata
     id="metadata58">
    <rdf:RDF>
      <cc:Work
         rdf:about="">
        <dc:format>image/svg+xml</dc:format>
        <dc:type
           rdf:resource="http://purl.org/dc/dcmitype/StillImage" />
        <dc:title></dc:title>
      </cc:Work>
    </rdf:RDF>
  </metadata>
  <defs
     id="defs56" />
  <path
     d="m 111.73565,0.26636258 c 6.17443,-0.78342 12.53342,0.18198 18.24966,2.62129002 4.09779,1.73333 7.87679,4.17522 11.25698,7.06109 3.47053,2.9478304 6.5229,6.3680304 9.22034,10.0308704 3.03946,4.14037 5.62074,8.60728 7.80192,13.25488 4.47594,9.5714 7.25857,19.8862 8.66149,30.34426 1.19772,8.94027 1.35905,18.00445 0.63758,26.99118 -1.04284,12.228817 -3.88354,24.371177 -8.99964,35.554577 -3.89903,8.44983 -9.10031,16.42599 -15.98588,22.75013 -3.16336,2.89104 -6.68165,5.40779 -10.52905,7.29213 -4.62953,2.31024 -9.74821,3.6267 -14.9211,3.8332 h -2.33219 c -5.11739,-0.21941 -10.18058,-1.52296 -14.76622,-3.79448 -4.14167,-2.02631 -7.9168,-4.77538 -11.25698,-7.93745 -4.29138,-4.05261 -7.89872,-8.77636 -10.94592,-13.82276 -4.6618,-7.7374 -7.99165,-16.23369 -10.23092,-24.97133 -1.46487,-5.73561 -2.462541,-11.587377 -3.026551,-17.477857 -0.34202,-3.33244 -0.45689,-6.68036 -0.56917,-10.02699 v -4.23718 c 0.0813,-1.44422 0.0658,-2.89232 0.17424,-4.33526 0.39751,-7.82258 1.54489,-15.61288 3.505381,-23.19798 2.5787,-9.91729 6.56291,-19.53515 12.32304,-28.04047 4.60242,-6.78361 10.41289,-12.8986704 17.54626,-17.0377504 4.34946,-2.5245 9.1855,-4.25008002 14.18673,-4.85410002 z"
     id="path4"
     style="fill:#f0c60b" />
  <path
     d="m 104.15313,6.0252026 c 3.7235,-1.47908 7.72062,-2.33348 11.73451,-2.29735 5.9163,-0.0891 11.76678,1.7101 16.84674,4.6889 4.3998,2.5670904 8.25881,5.9847104 11.60415,9.8101704 4.45143,5.10835 7.98907,10.96141 10.82332,17.10228 0.0981,0.20263 0.0387,0.40914 -0.0878,0.58466 -1.23902,1.94887 -2.6342,3.79836 -4.15974,5.53298 -0.32782,0.39106 -0.72663,0.72534 -1.01057,1.15254 -0.062,1.57071 -0.005,3.14917 -0.0245,4.72246 v 36.22958 c 4.78182,0.001 9.56494,-0.001 14.34676,0.001 0.0219,1.08026 -0.10196,2.15408 -0.1381,3.23176 -5.81046,-0.006 -11.61964,0 -17.4301,-0.004 -0.006,-13.7079 0.0116,-27.41709 -0.009,-41.12499 -3.45763,3.00332 -7.37214,5.48135 -11.56285,7.33084 -0.15617,0.0891 -0.42204,0.16004 -0.37687,0.39752 -0.0116,11.13178 0,22.26485 -0.006,33.39792 -5.66075,-0.001 -11.3228,0.003 -16.98355,-0.003 -0.0103,4.06681 -0.001,8.13362 -0.004,12.20043 5.66204,-0.005 11.32538,-0.001 16.98871,-0.001 -0.004,17.112607 0.0103,34.227797 -0.008,51.341697 l -10e-4,0.0516 c -1.04542,0.64532 -2.06631,1.31645 -3.16594,1.85852 -0.0155,-16.66218 0.001,-33.34242 -0.009,-50.01751 -4.59985,-0.0168 -9.19969,-0.003 -13.80083,-0.008 0.001,18.00573 0,36.00889 0.001,54.01333 -4.42044,0.32266 -8.88219,-0.49044 -13.02773,-2.0263 v -0.0516 c -0.0155,-32.76422 0.003,-65.534887 -0.009,-98.304257 -4.76247,-1.09188 -9.34037,-2.94783 -13.54528,-5.4336 -0.0155,31.65426 0.001,63.308527 -0.008,94.961497 -1.0609,-0.90345 -1.97726,-1.96177 -2.92459,-2.98138 -4.0126,-4.46562 -7.30374,-9.55074 -10.01408,-14.9082 -0.0568,-0.10712 -0.0865,-0.21812 -0.0929,-0.33427 0.0206,-29.054917 0.001,-58.109827 0.009,-87.164737 -0.0413,-0.47883 0.12519,-1.02219 -0.14456,-1.45326 -0.50851,-0.72147 -1.03638,-1.43132 -1.51263,-2.17473 -0.0271,-0.14584 0.0865,-0.29685 0.13036,-0.43624 3.68607,-8.1504 8.62148,-15.86069 15.23602,-21.94864 3.62024,-3.31824 7.76191,-6.1137704 12.33594,-7.9374404 z"
     id="path6"
     style="fill:#114fa2" />
  <g
     transform="matrix(0.12906411,0,0,0.12906411,63.999999,-0.03952742)"
     id="g8"
     style="fill:#fefefd">
    <path
       d="m 380.19,58.89 c 10.59,-1 21.17,-2.32 31.82,-2.47 7.31,-0.21 14.73,-0.41 21.9,1.3 19.2,4.07 37.66,10.96 55.87,18.15 0.07,13.39 0.07,26.77 0,40.16 -5.56,-5.7 -12.66,-9.56 -19.91,-12.66 -11,-4.76 -22.66,-7.67 -34.04,-11.35 -2.16,-0.67 -4.55,-1.12 -6.73,-0.32 -2.96,1.65 -2.79,5.4 -2.78,8.32 0.14,19.75 -0.17,39.51 0.16,59.25 6.52,-0.07 13.05,-0.03 19.57,-0.01 6.69,0.16 12.88,-2.86 18.74,-5.73 0.04,15.79 0.03,31.57 0.01,47.36 -3.5,-4.66 -8.81,-8.02 -14.78,-7.98 -7.77,-0.02 -15.58,-0.39 -23.33,0.28 0.1,24.61 0,49.22 0.05,73.83 0.2,8.45 3.31,16.52 7.71,23.65 -18.49,-0.03 -36.98,0.06 -55.47,-0.05 4.21,-7.25 9.53,-14.84 8.82,-23.63 -0.05,-62.33 -0.01,-124.66 -0.03,-186.99 -0.04,-7.7 -3.96,-14.57 -7.58,-21.11 z"
       id="path10" />
    <path
       d="m 296.98,82.02 c 12.61,-2.31 26.18,-0.01 36.98,7.05 8.67,5.66 15.03,14.74 17.05,24.93 4.12,21.26 -3.45,43.16 -16.03,60.24 14.47,3.66 27.19,14.05 32.95,27.92 5.7,13.72 6.43,29.49 2.44,43.77 -5.33,18.32 -20.33,32.36 -37.34,40.12 -6.67,2.91 -13.69,5.76 -21.08,5.74 -30.72,-0.08 -61.43,-0.24 -92.14,-0.39 5.86,-6.07 9.56,-14.14 9.89,-22.62 0.76,-8.93 -0.24,-17.88 0.35,-26.83 -0.37,-12.97 -0.25,-25.96 -0.03,-38.93 -0.51,-17.34 0.2,-34.7 -0.3,-52.04 -0.21,-5.66 -3.59,-11.75 -9.71,-12.46 16.81,-15.45 33.7,-30.93 52.29,-44.25 7.54,-5.26 15.47,-10.55 24.68,-12.25 z"
       id="path12" />
    <path
       d="m 524.88,125.88 c 9.7,-4.33 20.66,-6.22 31.18,-4.27 11.32,1.93 22.13,8 29.06,17.24 1.16,1.15 0.04,2.57 -0.48,3.71 -4.63,8.22 -8.83,16.68 -13.57,24.83 l -0.6,0.4 c -3.76,-3.84 -8.02,-7.39 -13.22,-9.02 -10.88,-3.81 -23.44,1.41 -29.93,10.58 -6.82,9.3 -9.08,21.03 -9.8,32.31 -0.6,11.94 -0.03,24.53 5.65,35.32 3.92,7.57 11.29,13.26 19.72,14.79 11.42,2.53 22.86,-2.8 31.9,-9.42 3.54,10.26 7.57,20.35 11.16,30.61 -10.1,10.93 -25.38,15.54 -39.93,15.55 -17.22,0.3 -34.65,-6.45 -46.49,-19.09 -11.23,-12.03 -16.98,-28.18 -18.97,-44.3 -2.45,-20.56 -0.85,-42.07 7.53,-61.2 7.2,-16.5 20.19,-30.74 36.79,-38.04 z"
       id="path14" />
  </g>
  <path
     d="m 101.45053,15.870213 c 0.54723,-0.25942 1.18868,-0.36913 1.77721,-0.19747 0.69437,0.28781 1.09705,1.01444 1.2416,1.72042 0.18198,0.75374 -0.0374,1.55264 -0.43882,2.20055 -0.63112,1.02735 -1.59265,1.79399 -2.5787,2.46125 -1.00154,0.64919 -2.06115,1.21578 -3.17885,1.63137 -0.006,-1.78367 -0.001,-3.56604 -0.004,-5.34971 0.92797,-0.97314 1.95145,-1.89337 3.18143,-2.46641 z"
     id="path16"
     style="fill:#114fa2" />
  <path
     d="m 98.40075,28.860513 c 1.25321,-1.14222 2.80843,-1.97468 4.47207,-2.32445 1.09059,-0.2065 2.36574,-0.15874 3.22402,0.63758 0.73179,0.65565 1.06607,1.64299 1.15383,2.59806 0.0607,0.9241 -0.5098,1.78109 -1.28419,2.24443 -1.39776,0.84666 -3.07043,1.01315 -4.66566,1.1435 -0.9654,0.0323 -1.93726,0.0542 -2.90007,-0.0426 -0.005,-1.4197 -0.004,-2.83812 0,-4.25653 z"
     id="path18"
     style="fill:#114fa2" />
  <path
     d="m 155.16185,35.329203 c 0.65048,1.61588 1.39647,3.19305 2.00307,4.827 4.08747,10.52389 6.28414,21.7344 6.91784,32.99008 0.21296,3.46408 0.19489,6.93719 0.14326,10.40644 -4.78182,-0.003 -9.56494,0 -14.34676,-0.001 v -36.22958 c 0.0194,-1.57329 -0.0374,-3.15175 0.0245,-4.72246 0.28394,-0.4272 0.68275,-0.76148 1.01057,-1.15254 1.52554,-1.73462 2.92072,-3.58411 4.15974,-5.53298 0.12648,-0.17552 0.18585,-0.38203 0.0878,-0.58466 z"
     id="path20"
     style="fill:#fefefd" />
  <path
     d="m 75.25826,39.106913 c 0.38719,-0.9241 0.7447,-1.8624 1.19255,-2.75939 0.47625,0.74341 1.00412,1.45326 1.51263,2.17473 0.26975,0.43107 0.10326,0.97443 0.14456,1.45326 -0.008,29.05491 0.0116,58.10982 -0.009,87.164737 -0.87763,-1.61072 -1.59265,-3.30792 -2.32186,-4.99091 -4.59726,-10.94851 -7.0611,-22.728187 -7.80838,-34.558207 -0.0542,-1.71913 -0.20134,-3.43439 -0.19231,-5.15482 -0.006,-2.7994 -0.0568,-5.60267 0.10584,-8.39949 0.58079,-11.93069 2.91556,-23.82782 7.37601,-34.92991 z"
     id="path22"
     style="fill:#ec4336" />
  <g
     transform="matrix(0.12906411,0,0,0.12906411,63.999999,-0.03952742)"
     id="g24"
     style="fill:#fefefd">
    <path
       d="m 421.4,310.69 c 7.64,-1.43 15.64,1.35 21.13,6.76 9.13,8.58 13.04,21.34 13.57,33.57 0.24,12.61 -3.16,25.81 -11.72,35.37 -5.53,6.21 -14.09,10.21 -22.47,8.63 -7.63,-1.18 -13.87,-6.53 -18.19,-12.67 -6.27,-9.11 -8.78,-20.41 -8.48,-31.35 0.31,-10.36 3.28,-20.84 9.55,-29.19 4.05,-5.42 9.88,-9.79 16.61,-11.12 z"
       id="path26" />
    <path
       d="m 481.68,313.46 c 6.77,-2.52 14.56,-3.8 21.45,-0.92 9.82,3.36 17.17,12.3 18.98,22.48 1.19,7.92 1.16,16.28 -1.64,23.87 -3.43,10.05 -11.17,18.54 -20.94,22.74 -8.73,3.86 -18.99,4.15 -27.91,0.76 0.03,-3.73 0.02,-7.46 0.01,-11.19 6.33,0.85 13.22,1.69 19.11,-1.38 3.32,-1.64 5.51,-4.78 6.89,-8.12 -9.2,-0.11 -19.44,-2.22 -25.59,-9.67 -5.13,-6.09 -5.48,-14.64 -4.23,-22.14 1.44,-7.41 6.8,-13.77 13.87,-16.43 z"
       id="path28" />
    <path
       d="m 336.84,315.62 c 10.23,-6.4 24.72,-5.56 33.49,3 8.75,8.63 11.47,21.53 11.42,33.42 0.3,8.82 -1.37,17.93 -6.12,25.48 -5.28,8.33 -14.65,14.4 -24.69,14.32 -8.35,0.32 -16.71,-2.57 -23.38,-7.52 -0.64,-4.34 -0.1,-8.83 -0.21,-13.23 7.93,3.41 16.79,8.06 25.58,5.28 5.48,-1.66 7.86,-7.69 7.62,-12.99 -7.38,1.67 -15.26,4.11 -22.75,1.84 -9.8,-3.41 -14.53,-14.42 -14.44,-24.18 -0.74,-10.12 4.75,-20.31 13.48,-25.42 z"
       id="path30" />
    <path
       d="m 277.61,322.43 c 6.62,-0.4 13.4,-3.46 16.1,-9.89 5.59,0.42 11.17,0.92 16.77,1.09 0.03,23.46 0.03,46.92 0,70.37 -6.71,-2.38 -13.25,-5.22 -19.88,-7.8 -0.02,-14.99 -0.03,-29.99 0,-44.98 -4.11,1.72 -8.6,1.74 -12.98,1.61 0.01,-3.47 0.01,-6.94 -0.01,-10.4 z"
       id="path32" />
  </g>
  <g
     transform="matrix(0.12906411,0,0,0.12906411,63.999999,-0.03952742)"
     id="g34"
     style="fill:#114fa2">
    <path
       d="m 348.43,326.61 c 4.3,-1.31 9.36,0.32 11.49,4.42 2.8,5.28 3.18,12.98 -1.79,17.14 -3.21,3.37 -8.95,4.51 -12.73,1.42 -7.12,-5.77 -6.17,-19.76 3.03,-22.98 z"
       id="path36" />
    <path
       d="m 492.42,326.57 c 7.24,-2.32 13.86,5.66 12.22,12.54 -0.6,6.77 -9.17,11.56 -14.82,7.13 -7,-4.76 -5.55,-16.99 2.6,-19.67 z"
       id="path38" />
    <path
       d="m 424.1,327.94 c 3.41,-0.69 6.68,1.54 8.82,4.01 4.57,5.58 5.91,13 6.26,20.01 -0.2,7.06 -1.55,14.49 -5.95,20.21 -2.25,2.95 -6,5.26 -9.82,4.27 -4.47,-1.3 -7.24,-5.49 -8.99,-9.53 -3.95,-9.57 -3.75,-20.74 0.39,-30.21 1.85,-3.9 4.86,-7.79 9.29,-8.76 z"
       id="path40" />
  </g>
  <path
     d="m 135.08593,52.986463 c 4.19071,-1.84949 8.10522,-4.32752 11.56285,-7.33084 0.0206,13.7079 0.003,27.41709 0.009,41.12499 5.81046,0.004 11.61964,-0.003 17.4301,0.004 -0.21811,4.08359 -0.69436,8.14911 -1.29709,12.19269 -5.3781,10e-4 -10.7562,-0.003 -16.13301,10e-4 v 27.204127 c 0.0103,4.23589 -0.0219,8.46919 0.0168,12.7154 -3.41116,4.34946 -7.35149,8.35045 -11.97844,11.42217 0.0181,-17.1139 0.004,-34.22909 0.008,-51.341697 -5.66333,0 -11.32667,-0.004 -16.98871,0.001 0.003,-4.06681 -0.006,-8.13362 0.004,-12.20043 5.66075,0.005 11.3228,10e-4 16.98355,0.003 0.006,-11.13307 -0.005,-22.26614 0.006,-33.39792 -0.0452,-0.23748 0.2207,-0.30846 0.37687,-0.39752 z"
     id="path42"
     style="fill:#ec4336" />
  <path
     d="m 91.13831,50.402603 c 4.20491,2.48577 8.78281,4.34172 13.54528,5.4336 0.0116,32.76937 -0.006,65.540037 0.009,98.304257 -5.08383,-1.91015 -9.6256,-5.05931 -13.56206,-8.77636 0.009,-31.65297 -0.008,-63.307237 0.008,-94.961497 z"
     id="path44"
     style="fill:#ec4336" />
  <path
     d="m 126.73548,55.805223 c 1.61975,-0.36783 3.20208,-0.87634 4.78699,-1.3655 0.004,9.54559 -0.005,19.09246 0.004,28.63804 -0.0413,0.13939 0.0955,0.49044 -0.15488,0.46721 -4.5508,0.0155 -9.1016,0.001 -13.6524,0.008 0,-8.83702 0.001,-17.67404 0,-26.51106 3.0343,-0.13165 6.05827,-0.53949 9.01642,-1.23644 z"
     id="path46"
     style="fill:#fefefd" />
  <path
     d="m 146.65782,98.978463 c 5.37681,-0.004 10.75491,0 16.13301,-0.001 -0.17295,1.081547 -0.33428,2.166977 -0.58337,3.235627 -4.1094,-0.0155 -8.2188,-0.004 -12.3282,-0.006 0.001,10.3561 -0.003,20.71221 0.001,31.06444 -0.0181,0.43882 0.0787,0.90345 -0.12649,1.30355 -0.98217,1.47133 -1.97597,2.94266 -3.07947,4.32365 -0.0387,-4.24621 -0.006,-8.47951 -0.0168,-12.7154 V 98.979203 z"
     id="path48"
     style="fill:#114fa2" />
  <path
     d="m 117.71906,102.20506 c 4.60114,0.005 9.20098,-0.009 13.80083,0.008 0.0103,16.67509 -0.006,33.35533 0.009,50.01751 -4.25782,2.27153 -8.9777,3.74286 -13.80857,3.98808 -0.001,-18.00444 0,-36.0076 -0.001,-54.01333 z"
     id="path50"
     style="fill:#fefefd" />
  <path
     d="m 149.87926,102.20635 c 4.1094,0.003 8.2188,-0.009 12.3282,0.006 -2.12827,10.88011 -5.81692,21.54855 -11.64933,31.01927 -0.2749,0.43882 -0.56272,0.87764 -0.80407,1.34227 0.20522,-0.4001 0.10842,-0.86473 0.12649,-1.30355 -0.004,-10.35223 0,-20.70834 -0.001,-31.06444 z"
     id="path52"
     style="fill:#fefefd" />
</svg>
