<?xml version="1.0" encoding="UTF-8" standalone="no"?>
<!-- Created with Inkscape (http://www.inkscape.org/) -->

<svg
   xmlns:dc="http://purl.org/dc/elements/1.1/"
   xmlns:cc="http://creativecommons.org/ns#"
   xmlns:rdf="http://www.w3.org/1999/02/22-rdf-syntax-ns#"
   xmlns:svg="http://www.w3.org/2000/svg"
   xmlns="http://www.w3.org/2000/svg"
   version="1.0"
   width="280"
   height="200"
   viewBox="0 0 279.99999 200"
   id="Ebene_1"
   xml:space="preserve"><metadata
     id="metadata77"><rdf:RDF><cc:Work
         rdf:about=""><dc:format>image/svg+xml</dc:format><dc:type
           rdf:resource="http://purl.org/dc/dcmitype/StillImage" /><dc:title></dc:title></cc:Work></rdf:RDF></metadata><defs
     id="defs75" /><ellipse
     cx="185.838"
     cy="283"
     rx="185.838"
     ry="283"
     transform="matrix(0.35335689,0,0,0.35335689,75.999998,0)"
     id="ellipse3"
     style="fill:#ffffff" /><path
     d="M 141.66749,3.47456 V 196.5258 c 34.34806,0 62.19293,-43.21626 62.19293,-96.52545 0,-53.31024 -27.84487,-96.52579 -62.19293,-96.52579 z"
     id="path5"
     style="fill:#b50f24" /><path
     d="m 79.474558,100.00035 c 0,53.30919 27.844872,96.52545 62.192932,96.52545 V 3.47456 c -34.34841,0 -62.192932,43.21555 -62.192932,96.52579 z"
     id="path7"
     style="fill:#101e32" /><path
     d="m 187.72827,62.63922 h -46.06078 v 102.8106 c 21.79682,-7.07102 49.5629,-39.52332 49.5629,-80.79752 0,-12.16749 -3.50212,-22.01308 -3.50212,-22.01308 z"
     id="path9"
     style="fill:#101e32" /><path
     d="m 95.606708,62.63922 c 0,0 -3.50247,9.84559 -3.50247,22.01308 0,41.2742 27.766432,73.7265 49.563252,80.79752 V 62.63922 H 95.606708 z"
     id="path11"
     style="fill:#b50f24" /><path
     d="m 101.11696,51.27208 -0.0954,-0.0813 c 0.01,-0.0466 0.0187,-0.0933 0.0187,-0.17456 0,-0.23286 -0.73427,-0.53533 -1.54523,-0.53533 -0.77279,0 -1.774202,0.40742 -1.774202,1.59399 0,1.18693 1.001762,1.59364 1.774202,1.59364 0.33392,0 1.60283,-0.31378 1.60283,-0.65124 0,-0.0696 -0.0385,-0.11625 -0.0576,-0.1742 l 0.1053,-0.0816 0.98233,1.82651 -0.11448,0.0813 c -0.0286,-0.0813 -0.0668,-0.0933 -0.13357,-0.0933 -0.19082,0 -1.07774,0.62827 -2.49894,0.62827 -1.526152,0 -3.147712,-1.047 -3.147712,-3.12968 0,-2.08269 1.62156,-3.12933 3.147712,-3.12933 0.76289,0 1.30671,0.11625 1.68834,0.24417 0.37208,0.12791 0.56254,0.22085 0.65795,0.22085 0.0572,0 0.10494,-0.035 0.14311,-0.0929 l 0.10459,0.035 -0.85795,1.91978 z"
     id="path13"
     style="fill:#ffffff" /><path
     d="m 104.39752,53.80813 c -0.2477,0.84947 -0.3053,1.00035 -0.3053,1.07032 0,0.07 0.0385,0.11625 0.17209,0.11625 v 0.13993 h -1.68869 V 54.9947 c 0.13357,-0.035 0.19081,-0.0813 0.24805,-0.26749 0.0859,-0.26749 1.69788,-5.38657 1.69788,-5.45619 0,-0.0813 -0.10459,-0.10459 -0.19081,-0.11625 v -0.13958 h 2.4894 v 0.13958 c -0.10495,0.0117 -0.17173,0.035 -0.17173,0.15124 0,0.0929 1.1735,3.57138 1.76502,5.33993 0.0954,0.2795 0.15265,0.34911 0.26713,0.34911 v 0.13993 h -1.87915 v -0.13993 c 0.13357,-0.0113 0.18127,-0.0696 0.18127,-0.13993 0,-0.0466 -0.28586,-0.89576 -0.32402,-1.04699 h -2.26114 z m 0.23852,-0.93039 h 1.77421 l -0.92509,-2.76855 -0.84912,2.76855 z"
     id="path15"
     style="fill:#ffffff" /><path
     d="m 113.66855,52.91237 h -1.23004 c -0.1053,0 -0.13356,0.0933 -0.1431,0.23251 h -0.11449 v -1.62863 h 0.11449 c 0.01,0.15124 0.0378,0.20955 0.1431,0.20955 h 2.81379 v 0.13992 c -0.11449,0.0113 -0.15265,0.0696 -0.15265,0.19753 v 1.93145 c 0,0.10459 0.0191,0.19788 0.11448,0.19788 h 0.0477 v 0.13958 c -0.85866,0.58162 -1.89824,0.87243 -3.07138,0.87243 -1.59329,0 -3.1,-1.02367 -3.1,-3.12968 0,-2.10601 1.50706,-3.12933 3.1,-3.12933 0.62933,0 0.90601,0.058 1.55442,0.27915 0.31484,0.1046 0.62014,0.30213 0.69646,0.30213 0.0573,0 0.1046,-0.0463 0.13357,-0.0929 l 0.11449,0.0466 -0.62014,1.53568 -0.11449,-0.0813 c 0.01,-0.0233 0.0191,-0.07 0.0191,-0.12827 0,-0.22084 -0.94452,-0.5583 -1.73604,-0.5583 -0.90601,0 -1.73569,0.59364 -1.73569,1.84982 0,1.25619 1.00106,1.80318 1.83109,1.80318 0.52474,0 0.94453,-0.0813 1.33534,-0.22084 v -0.7682 z"
     id="path17"
     style="fill:#ffffff" /><path
     d="m 117.66502,53.71519 h 3.28127 c 0.10459,0 0.14311,-0.0583 0.17173,-0.32544 h 0.11449 v 2.04735 h -0.11449 c -0.0286,-0.24417 -0.0668,-0.30212 -0.17173,-0.30212 h -4.97915 v -0.13993 c 0.23851,-0.023 0.26713,-0.10459 0.26713,-0.20918 v -5.42191 c 0,-0.1046 -0.0286,-0.18587 -0.26713,-0.20919 v -0.13958 h 1.96501 v 0.13958 c -0.23851,0.0233 -0.26713,0.10459 -0.26713,0.20919 v 4.35123 z"
     id="path19"
     style="fill:#ffffff" /><path
     d="M 122.05265,55.13463 V 54.9947 c 0.23816,-0.023 0.26714,-0.10459 0.26714,-0.20919 v -5.42155 c 0,-0.1046 -0.029,-0.18587 -0.26714,-0.20919 v -0.13958 h 1.96466 v 0.13958 c -0.23851,0.0233 -0.26678,0.10459 -0.26678,0.20919 v 5.42155 c 0,0.1046 0.0286,0.18622 0.26678,0.20919 v 0.13993 h -1.96466 z"
     id="path21"
     style="fill:#ffffff" /><path
     d="m 126.71661,53.80813 c -0.24806,0.84947 -0.30495,1.00035 -0.30495,1.07032 0,0.07 0.0378,0.11625 0.17138,0.11625 v 0.13993 H 124.8947 V 54.9947 c 0.13321,-0.035 0.19081,-0.0813 0.24805,-0.26749 0.0859,-0.26749 1.69788,-5.38657 1.69788,-5.45619 0,-0.0813 -0.10459,-0.10459 -0.19081,-0.11625 v -0.13958 h 2.4894 v 0.13958 c -0.10495,0.0117 -0.17173,0.035 -0.17173,0.15124 0,0.0929 1.17314,3.57138 1.76466,5.33993 0.0958,0.2795 0.15265,0.34911 0.26679,0.34911 v 0.13993 h -1.87915 v -0.13993 c 0.13356,-0.0113 0.18127,-0.0696 0.18127,-0.13993 0,-0.0466 -0.28587,-0.89576 -0.32403,-1.04699 h -2.26042 z m 0.23851,-0.93039 h 1.77421 l -0.92509,-2.76855 -0.84912,2.76855 z"
     id="path23"
     style="fill:#ffffff" /><path
     d="m 133.47915,54.78551 c 0,0.1046 0.0286,0.18622 0.26714,0.20919 v 0.13993 h -1.96502 V 54.9947 c 0.23816,-0.023 0.26678,-0.10459 0.26678,-0.20919 v -5.42155 c 0,-0.1046 -0.0286,-0.18587 -0.26678,-0.20919 v -0.13958 h 3.49081 c 1.41166,0 2.01308,0.60495 2.01308,1.9311 0,1.07032 -0.57279,1.64028 -1.36467,1.90777 l 1.12615,1.93145 c 0.0859,0.15124 0.17138,0.20919 0.27633,0.20919 v 0.13993 h -1.98375 V 54.9947 c 0.13357,-0.0113 0.20989,-0.0696 0.20989,-0.20919 0,-0.10494 -1.0113,-1.71024 -1.13533,-1.95441 h -0.93428 v 1.95441 z m 0,-3.18798 h 1.60247 c 0.56255,0 0.73428,-0.30212 0.73428,-0.63993 0,-0.33781 -0.17138,-0.63993 -0.73428,-0.63993 h -1.60247 v 1.27986 z"
     id="path25"
     style="fill:#ffffff" /><path
     d="M 138.39081,55.13463 V 54.9947 c 0.23816,-0.023 0.26643,-0.10459 0.26643,-0.20919 v -5.42155 c 0,-0.1046 -0.0283,-0.18587 -0.26643,-0.20919 v -0.13958 h 1.96467 v 0.13958 c -0.23817,0.0233 -0.26679,0.10459 -0.26679,0.20919 v 5.42155 c 0,0.1046 0.029,0.18622 0.26679,0.20919 v 0.13993 h -1.96467 z"
     id="path27"
     style="fill:#ffffff" /><path
     d="m 151.33463,51.27208 -0.0958,-0.0813 c 0.01,-0.0466 0.0194,-0.0933 0.0194,-0.17456 0,-0.23286 -0.73463,-0.53533 -1.54558,-0.53533 -0.77244,0 -1.77421,0.40742 -1.77421,1.59399 0,1.18693 1.00177,1.59364 1.77421,1.59364 0.33392,0 1.60212,-0.31378 1.60212,-0.65124 0,-0.0696 -0.0375,-0.11625 -0.0565,-0.1742 l 0.10495,-0.0816 0.98198,1.82651 -0.11414,0.0813 c -0.0286,-0.0813 -0.0664,-0.0933 -0.13357,-0.0933 -0.19081,0 -1.07773,0.62827 -2.49894,0.62827 -1.52614,0 -3.1477,-1.047 -3.1477,-3.12968 0,-2.08269 1.62156,-3.12933 3.1477,-3.12933 0.76326,0 1.30672,0.11625 1.68834,0.24417 0.37174,0.12791 0.56255,0.22085 0.65795,0.22085 0.0572,0 0.10495,-0.035 0.14311,-0.0929 l 0.1046,0.035 -0.85795,1.91978 z"
     id="path29"
     style="fill:#ffffff" /><path
     d="m 155.80707,53.80813 c -0.24806,0.84947 -0.30531,1.00035 -0.30531,1.07032 0,0.07 0.0382,0.11625 0.17174,0.11625 v 0.13993 h -1.68834 V 54.9947 c 0.13357,-0.035 0.19081,-0.0813 0.24805,-0.26749 0.0859,-0.26749 1.69753,-5.38657 1.69753,-5.45619 0,-0.0813 -0.10459,-0.10459 -0.19011,-0.11625 v -0.13958 h 2.4894 v 0.13958 c -0.10494,0.0117 -0.17137,0.035 -0.17137,0.15124 0,0.0929 1.17314,3.57138 1.76431,5.33993 0.0954,0.2795 0.15265,0.34911 0.26713,0.34911 v 0.13993 h -1.87879 v -0.13993 c 0.13321,-0.0113 0.18091,-0.0696 0.18091,-0.13993 0,-0.0466 -0.28621,-0.89576 -0.32402,-1.04699 h -2.26113 z m 0.23816,-0.93039 h 1.7742 l -0.92509,-2.76855 -0.84911,2.76855 z"
     id="path31"
     style="fill:#ffffff" /><path
     d="m 163.76184,53.71519 h 3.28127 c 0.10494,0 0.14275,-0.0583 0.17138,-0.32544 h 0.11448 v 2.04735 h -0.11448 c -0.0286,-0.24417 -0.0664,-0.30212 -0.17138,-0.30212 h -4.97915 v -0.13993 c 0.23816,-0.023 0.26713,-0.10459 0.26713,-0.20918 v -5.42191 c 0,-0.1046 -0.029,-0.18587 -0.26713,-0.20919 v -0.13958 h 1.96501 v 0.13958 c -0.23887,0.0233 -0.26713,0.10459 -0.26713,0.20919 v 4.35123 z"
     id="path33"
     style="fill:#ffffff" /><path
     d="m 173.90141,51.27208 -0.0958,-0.0813 c 0.01,-0.0466 0.0191,-0.0933 0.0191,-0.17456 0,-0.23286 -0.73427,-0.53533 -1.54523,-0.53533 -0.77243,0 -1.7742,0.40742 -1.7742,1.59399 0,1.18693 1.00177,1.59364 1.7742,1.59364 0.33393,0 1.60248,-0.31378 1.60248,-0.65124 0,-0.0696 -0.0382,-0.11625 -0.0573,-0.1742 l 0.1053,-0.0816 0.98198,1.82651 -0.11449,0.0813 c -0.0283,-0.0813 -0.0664,-0.0933 -0.13321,-0.0933 -0.19081,0 -1.07809,0.62827 -2.49929,0.62827 -1.52651,0 -3.147,-1.047 -3.147,-3.12968 0,-2.08269 1.62049,-3.12933 3.147,-3.12933 0.76289,0 1.30706,0.11625 1.68833,0.24417 0.37209,0.12791 0.5629,0.22085 0.65831,0.22085 0.0569,0 0.10495,-0.035 0.14311,-0.0929 l 0.10459,0.035 -0.85795,1.91978 z"
     id="path35"
     style="fill:#ffffff" /><path
     d="M 177.03851,55.13463 V 54.9947 c 0.23852,-0.023 0.26714,-0.10459 0.26714,-0.20919 v -5.42155 c 0,-0.1046 -0.0286,-0.18587 -0.26714,-0.20919 v -0.13958 h 1.96538 v 0.13958 c -0.23887,0.0233 -0.26714,0.10459 -0.26714,0.20919 v 5.42155 c 0,0.1046 0.0283,0.18622 0.26714,0.20919 v 0.13993 h -1.96538 z"
     id="path37"
     style="fill:#ffffff" /><path
     d="m 187.10176,52.07491 c 0,2.03604 -1.35441,3.12968 -2.97561,3.12968 -1.62191,0 -2.97668,-1.09364 -2.97668,-3.12968 0,-2.03604 1.35477,-3.12933 2.97668,-3.12933 1.6212,0 2.97561,1.09329 2.97561,3.12933 z m -4.54028,0 c 0,1.09364 0.73392,1.71025 1.56467,1.71025 0.82933,0 1.5636,-0.61661 1.5636,-1.71025 0,-1.09364 -0.73427,-1.71025 -1.5636,-1.71025 -0.83075,0 -1.56467,0.61661 -1.56467,1.71025 z"
     id="path39"
     style="fill:#ffffff" /><path
     d="m 130.79434,175.99541 v -1.87315 h 0.11449 c 0,0.0809 0.01,0.27915 0.1053,0.27915 0.0477,0 0.53392,-0.25583 0.61979,-0.27915 v -0.37208 c 0,-0.1629 -0.11449,-0.19824 -0.19081,-0.2099 v -0.13922 h 1.86996 v 0.13922 c -0.13357,0.0117 -0.24805,0.047 -0.24805,0.2099 v 5.4212 c 0,0.16325 0.11413,0.19788 0.22897,0.20989 v 0.13958 h -1.89859 v -0.13958 c 0.12403,-0.012 0.23852,-0.0466 0.23852,-0.20989 v -3.69965 c -0.65795,0.19823 -0.71555,0.20954 -0.72509,0.52332 h -0.11449 z"
     id="path41"
     style="fill:#ffffff" /><path
     d="m 136.79399,177.70565 0.0954,0.0583 v 0.10494 c 0.01,0.40707 0.6106,0.58163 1.23039,0.58163 0.80106,0 1.56431,-0.52367 1.64063,-1.62898 -0.65866,0.40707 -1.15441,0.60531 -1.79364,0.60531 -0.98233,0 -1.86007,-0.77951 -1.86007,-2.04771 0,-1.5007 1.25901,-2.04735 2.27951,-2.04735 1.59293,0 2.65194,0.98869 2.65194,3.02474 0,2.0477 -1.35442,3.23427 -2.91837,3.23427 -0.49612,0 -0.91626,-0.0933 -1.22085,-0.19752 -0.30601,-0.1053 -0.48657,-0.19859 -0.52474,-0.19859 -0.0763,0 -0.14346,0.035 -0.21978,0.12827 l -0.11414,-0.058 0.75371,-1.55937 z m 0.553,-2.32685 c 0,0.68657 0.68693,0.86113 1.04912,0.86113 0.36255,0 1.04912,-0.17421 1.04912,-0.86113 0,-0.68587 -0.68657,-0.86113 -1.04912,-0.86113 -0.36219,0 -1.04912,0.17491 -1.04912,0.86113 z"
     id="path43"
     style="fill:#ffffff" /><path
     d="m 146.8947,178.14806 c 0.15265,0 0.20989,-0.047 0.23851,-0.26785 h 0.11449 v 1.90778 h -0.11449 c -0.0194,-0.22085 -0.0954,-0.2675 -0.28586,-0.2675 h -4.23534 c -0.12367,0 -0.19081,0.0583 -0.19081,0.2675 h -0.11484 c -0.076,-2.16361 1.84134,-3.00142 3.08162,-3.94382 0.19082,-0.13993 0.27668,-0.26749 0.27668,-0.53569 0,-0.29046 -0.2007,-0.60424 -0.67703,-0.60424 -0.88763,0 -1.60283,0.77915 -1.60283,1.08163 0,0.047 0.0191,0.1166 0.0382,0.17455 l -0.11414,0.10495 -1.01166,-1.73357 0.1053,-0.0929 c 0.0378,0.0459 0.0958,0.0929 0.17138,0.0929 0.1053,0 0.33357,-0.25618 0.72544,-0.50035 0.40035,-0.25583 0.94382,-0.5 1.66891,-0.5 1.08763,0 2.06996,0.83745 2.06996,2.00106 0,1.7212 -1.94594,1.9424 -2.72791,2.81555 h 2.58445 z"
     id="path45"
     style="fill:#ffffff" /><path
     d="m 153.75265,176.46078 c 0,1.79152 -1.18304,3.12933 -2.5947,3.12933 -1.41166,0 -2.5947,-1.33781 -2.5947,-3.12933 0,-1.79188 1.18304,-3.12933 2.5947,-3.12933 1.41166,0 2.5947,1.33745 2.5947,3.12933 z m -3.77739,0 c 0,0.86113 0.35265,1.75689 1.18304,1.75689 0.82968,0 1.18269,-0.89576 1.18269,-1.75689 0,-0.86113 -0.35301,-1.75654 -1.18269,-1.75654 -0.83039,3.5e-4 -1.18304,0.89576 -1.18304,1.75654 z"
     id="path47"
     style="fill:#ffffff" /><polygon
     points="247.161,230.627 124.516,230.627 124.516,353.273 247.161,353.273 247.161,344.513 "
     transform="matrix(0.35335689,0,0,0.35335689,75.999998,0)"
     id="polygon49"
     style="fill:#ffffff" /><polygon
     points="241.32,236.468 130.356,236.468 130.356,347.432 241.32,347.432 241.32,344.513 "
     transform="matrix(0.35335689,0,0,0.35335689,75.999998,0)"
     id="polygon51"
     style="fill:#101e32" /><rect
     width="16.510954"
     height="16.510246"
     x="124.12544"
     y="85.620483"
     id="rect53"
     style="fill:#ffffff" /><rect
     width="16.509188"
     height="16.510246"
     x="142.69965"
     y="104.19434"
     id="rect55"
     style="fill:#ffffff" /><rect
     width="16.510954"
     height="16.510246"
     x="124.12544"
     y="104.19434"
     id="rect57"
     style="fill:#ffffff" /><rect
     width="16.509188"
     height="16.510246"
     x="142.69965"
     y="85.620483"
     id="rect59"
     style="fill:#ffffff" /><rect
     width="2.0628974"
     height="16.510246"
     x="140.63638"
     y="104.19434"
     id="rect61"
     style="fill:#b50f24" /><rect
     width="2.0628974"
     height="16.510246"
     x="140.63638"
     y="85.620483"
     id="rect63"
     style="fill:#b50f24" /><path
     d="m 138.76608,91.31166 c 0,-2.41661 -1.98516,-5.26396 -5.91732,-5.26396 -4.05548,0 -5.65795,1.70106 -5.65795,4.56113 0,0.13887 -0.005,0.27421 -0.0117,0.40672 3.0636,-0.57279 6.58375,0.70424 7.85053,2.53427 0,0 -4.73251,-0.46395 -8.19081,-0.52897 -0.35336,1.17067 -0.84523,1.88622 -0.84523,2.2477 0,0.45618 1.34346,0.53004 1.34346,0.83816 0,0.13251 -0.0484,0.1887 -0.0484,0.29682 0,0.22085 0.4,0.3258 0.4,0.40954 0,0.14841 -0.41625,0.19011 -0.41625,0.42509 0,0.0809 0.17597,0.47421 0.25123,0.65831 0.43393,1.05406 0.65513,1.01378 1.55159,1.01378 0,0 0.64806,0.28692 2.04735,0.40141 0.16007,1.42968 1.29364,2.39152 1.73817,2.39152 0.15159,0 0.19717,-0.10848 0.45759,-0.39046 0.2311,-0.24982 0.62898,-0.59329 1.41308,-1.13816 0.50247,-0.35018 1.21554,-0.73392 2.09717,-1.27562 0.49505,-0.30247 1.64028,-0.7947 1.64028,-1.07845 0,-0.35123 -0.54169,-0.70282 -0.54169,-2.07173 3.5e-4,-2.11978 0.83887,-2.43922 0.83887,-4.4371 z"
     id="path65" /><path
     d="m 157.33993,91.31166 c 0,-2.41661 -1.98481,-5.26396 -5.91732,-5.26396 -4.05547,0 -5.65795,1.70106 -5.65795,4.56113 0,0.13887 -0.005,0.27421 -0.0113,0.40672 3.06396,-0.57279 6.58375,0.70424 7.85089,2.53427 0,0 -4.73286,-0.46395 -8.19081,-0.52897 -0.35336,1.17067 -0.84523,1.88622 -0.84523,2.2477 0,0.45618 1.34346,0.53004 1.34346,0.83816 0,0.13251 -0.0484,0.1887 -0.0484,0.29682 0,0.22085 0.39965,0.3258 0.39965,0.40954 0,0.14841 -0.41626,0.19011 -0.41626,0.42509 0,0.0809 0.17562,0.47421 0.25124,0.65831 0.43392,1.05406 0.65512,1.01378 1.55159,1.01378 0,0 0.64841,0.28692 2.0477,0.40141 0.15972,1.42968 1.29329,2.39152 1.73816,2.39152 0.1523,0 0.19718,-0.10848 0.45795,-0.39046 0.23075,-0.24982 0.62898,-0.59329 1.41202,-1.13816 0.50353,-0.35018 1.21625,-0.73392 2.09823,-1.27562 0.4947,-0.30247 1.64028,-0.7947 1.64028,-1.07845 0,-0.35123 -0.54205,-0.70282 -0.54205,-2.07173 -3.5e-4,-2.11978 0.83817,-2.43922 0.83817,-4.4371 z"
     id="path67" /><path
     d="m 138.76608,109.88516 c 0,-2.41696 -1.98516,-5.26396 -5.91732,-5.26396 -4.05548,0 -5.65795,1.70106 -5.65795,4.56113 0,0.13887 -0.005,0.27421 -0.0117,0.40636 3.0636,-0.57244 6.58375,0.7046 7.85053,2.53428 0,0 -4.73251,-0.46361 -8.19081,-0.52827 -0.35336,1.17067 -0.84523,1.88622 -0.84523,2.24735 0,0.45618 1.34346,0.53039 1.34346,0.83816 0,0.13251 -0.0484,0.18869 -0.0484,0.29718 0,0.22084 0.4,0.32579 0.4,0.40883 0,0.14876 -0.41625,0.19046 -0.41625,0.42579 0,0.0809 0.17597,0.47421 0.25123,0.6576 0.43393,1.05442 0.65513,1.01449 1.55159,1.01449 0,0 0.64806,0.28692 2.04735,0.40141 0.16007,1.43004 1.29364,2.39152 1.73817,2.39152 0.15159,0 0.19717,-0.10848 0.45759,-0.39046 0.2311,-0.24947 0.62898,-0.59328 1.41308,-1.13816 0.50247,-0.35018 1.21554,-0.73392 2.09717,-1.27527 0.49505,-0.30318 1.64028,-0.7954 1.64028,-1.07879 0,-0.35089 -0.54169,-0.70248 -0.54169,-2.07174 3.5e-4,-2.12014 0.83887,-2.43957 0.83887,-4.43745 z"
     id="path69" /><path
     d="m 157.33993,109.88516 c 0,-2.41696 -1.98481,-5.26396 -5.91732,-5.26396 -4.05547,0 -5.65795,1.70106 -5.65795,4.56113 0,0.13887 -0.005,0.27421 -0.0113,0.40636 3.06396,-0.57244 6.58375,0.7046 7.85089,2.53428 0,0 -4.73286,-0.46361 -8.19081,-0.52827 -0.35336,1.17067 -0.84523,1.88622 -0.84523,2.24735 0,0.45618 1.34346,0.53039 1.34346,0.83816 0,0.13251 -0.0484,0.18869 -0.0484,0.29718 0,0.22084 0.39965,0.32579 0.39965,0.40883 0,0.14876 -0.41626,0.19046 -0.41626,0.42579 0,0.0809 0.17562,0.47421 0.25124,0.6576 0.43392,1.05442 0.65512,1.01449 1.55159,1.01449 0,0 0.64841,0.28692 2.0477,0.40141 0.15972,1.43004 1.29329,2.39152 1.73816,2.39152 0.1523,0 0.19718,-0.10848 0.45795,-0.39046 0.23075,-0.24947 0.62898,-0.59328 1.41202,-1.13816 0.50353,-0.35018 1.21625,-0.73392 2.09823,-1.27527 0.4947,-0.30318 1.64028,-0.7954 1.64028,-1.07879 0,-0.35089 -0.54205,-0.70248 -0.54205,-2.07174 -3.5e-4,-2.12014 0.83817,-2.43957 0.83817,-4.43745 z"
     id="path71" /></svg>