<?xml version="1.0" encoding="UTF-8" standalone="no"?>
<!-- Created with Inkscape (http://www.inkscape.org/) -->

<svg
   xmlns:dc="http://purl.org/dc/elements/1.1/"
   xmlns:cc="http://creativecommons.org/ns#"
   xmlns:rdf="http://www.w3.org/1999/02/22-rdf-syntax-ns#"
   xmlns:svg="http://www.w3.org/2000/svg"
   xmlns="http://www.w3.org/2000/svg"
   version="1.0"
   width="280"
   height="201.94"
   id="svg5517">
  <defs
     id="defs5519" />
  <metadata
     id="metadata5522">
    <rdf:RDF>
      <cc:Work
         rdf:about="">
        <dc:format>image/svg+xml</dc:format>
        <dc:type
           rdf:resource="http://purl.org/dc/dcmitype/StillImage" />
        <dc:title></dc:title>
      </cc:Work>
    </rdf:RDF>
  </metadata>
  <g
     transform="translate(-168.47928,-151.7475)"
     id="layer2"
     style="display:inline">
    <path
       d="m 310.88829,351.98985 c 0,0 -36.93615,-32.7255 -60.80803,-92.93694 -23.92464,-60.34453 -22.33428,-87.72594 -22.33428,-87.72594 0,0 37.00969,-18.27165 82.82771,-18.32207 46.2038,-0.0504 83.4697,18.12038 83.4697,18.12038 0,0 -1.53482,38.51169 -21.42088,89.18053 -20.01721,51.00296 -61.73422,91.68404 -61.73422,91.68404 z"
       id="path5536"
       style="fill:#ffffff;fill-opacity:1;fill-rule:nonzero;stroke:#0066b4;stroke-width:2.49999809;stroke-linecap:round;stroke-miterlimit:4;stroke-opacity:1;stroke-dasharray:none" />
    <path
       d="m 311.4655,158.36505 c -43.49298,0.0508 -77.86826,15.49206 -77.86826,15.49206 0,0 0.59203,7.48341 1.80968,15.19917 1.21764,7.71575 3.05447,15.65942 3.05447,15.65942 0,0 33.98888,-14.12107 73.04595,-13.79744 39.22492,0.32362 71.76977,13.7556 71.76976,13.7556 10e-6,0 2.2926,-7.14067 3.30553,-15.43976 1.01411,-8.30875 1.75737,-15.11547 1.75737,-15.11547 0,-1e-5 -32.99317,-15.80435 -76.8745,-15.75358 z m -6.80981,6.46462 c 0.0461,-0.002 0.0894,0.001 0.13598,0 0.0477,-0.001 0.0983,0 0.14645,0 2.10788,2e-5 3.73426,0.97298 4.87461,2.90803 1.14033,1.92526 1.70506,4.61925 1.70507,8.09645 0,2.52443 -0.24165,4.60329 -0.7427,6.22402 -0.4953,1.61093 -1.22082,2.86212 -2.16533,3.7658 -0.93876,0.89386 -2.10949,1.34941 -3.51474,1.34941 -1.4283,0 -2.60737,-0.39559 -3.54612,-1.17158 -0.933,-0.77599 -1.69872,-2.00244 -2.2804,-3.68211 -0.58169,-1.67967 -0.86823,-3.78328 -0.86823,-6.30771 0,-3.52632 0.57414,-6.26789 1.72599,-8.23244 1.09849,-1.8735 2.60867,-2.86285 4.52942,-2.94987 z m 10.11534,0.42888 3.88086,0.13598 -0.59625,16.16154 6.05665,0.21967 -0.19875,5.28257 -9.92705,-0.36611 0.78454,-21.43365 z m -23.6722,0.48118 c 0.008,-3.3e-4 0.013,2.7e-4 0.0209,0 1.35107,-0.0447 2.42252,0.4226 3.22185,1.39125 0.8807,1.05915 1.43315,2.63155 1.64231,4.72817 0.21494,2.15488 -0.0382,3.88125 -0.75316,5.17797 -0.70879,1.29611 -1.92028,2.03665 -3.62981,2.20717 l -2.32224,0.23013 0.795,7.91863 -4.25744,0.42888 -2.13395,-21.34996 7.0504,-0.70086 c 0.12366,-0.0123 0.2469,-0.0263 0.36612,-0.0314 z m 35.92149,0.2406 4.14238,0.28243 -1.16113,21.42319 -4.4248,-0.30336 1.44355,-21.40226 z m -47.58499,1.05651 4.45618,21.18259 -3.87039,0.81593 -3.39968,-16.15108 0.38704,16.78917 -3.50428,0.73223 -6.39139,-15.52344 3.39967,16.15108 -3.89132,0.81592 -4.44573,-21.18259 6.23449,-1.30757 5.12566,12.38528 -0.31381,-13.39995 6.21356,-1.30757 z m 62.4808,0.0418 10.04212,1.45402 -0.66948,4.64448 -5.96251,-0.86823 -0.54394,3.77626 5.09428,0.73223 -0.63809,4.37251 -5.09429,-0.7427 -1.27618,8.8287 -4.07961,-0.58579 3.1277,-21.61148 z m -37.12446,2.80343 c -0.72214,0.0554 -1.30879,0.53898 -1.75737,1.43309 -0.47802,0.95282 -0.72178,2.5279 -0.72178,4.72816 -1e-5,2.18064 0.23906,3.74399 0.71133,4.69679 0.47801,0.9528 1.12783,1.4331 1.94565,1.43309 0.84085,0 1.48491,-0.46855 1.94566,-1.40171 0.46073,-0.93315 0.69039,-2.60468 0.6904,-5.02106 -1e-5,-2.03328 -0.23801,-3.51256 -0.72178,-4.44573 -0.47803,-0.94296 -1.13255,-1.42262 -1.95612,-1.42263 -0.0185,0 -0.034,-5.3e-4 -0.0523,0 -0.0298,8.5e-4 -0.0543,-0.002 -0.0837,0 z m -15.05271,0.36612 c -0.0513,0.004 -0.10275,0.0155 -0.15691,0.0209 l -1.20296,0.11506 0.47072,4.75955 1.03559,-0.0941 c 0.81734,-0.0815 1.37611,-0.36704 1.66323,-0.83684 0.28612,-0.47948 0.39302,-1.05773 0.32428,-1.74691 -0.0668,-0.66974 -0.26278,-1.22592 -0.59625,-1.66323 -0.30743,-0.40311 -0.81936,-0.59007 -1.51678,-0.55441 -0.007,3.8e-4 -0.0136,-6e-4 -0.0209,0 z m 73.60035,0.94144 c 0.002,-2e-5 0.01,-6e-5 0.0105,0 0.004,0 0.0173,-1e-4 0.0209,0 0.0261,-0.002 0.0574,5.7e-4 0.0837,0 0.61942,-0.0131 1.26373,0.0833 1.92474,0.27198 1.67012,0.47673 2.83003,1.37826 3.48336,2.69882 0.65933,1.32231 0.90891,3.13474 0.75316,5.43948 l -3.97501,0.20921 c 0.0524,-0.66346 0.0558,-1.15555 0,-1.4854 -0.0901,-0.55226 -0.26625,-1.00304 -0.52303,-1.35987 -0.25678,-0.3568 -0.59422,-0.59427 -1.00421,-0.71131 -0.92852,-0.26503 -1.7998,0.10986 -2.62559,1.12973 -0.61971,0.75472 -1.19951,2.05728 -1.72599,3.90178 -0.65211,2.2846 -0.87245,3.91615 -0.66948,4.89554 0.20564,0.97003 0.70884,1.5686 1.51678,1.79921 0.78382,0.22373 1.47815,0.0469 2.07119,-0.52303 0.59906,-0.56819 1.17361,-1.4699 1.72599,-2.71974 l 3.10678,2.70928 c -0.68751,1.49479 -1.44164,2.68731 -2.25948,3.58797 -0.81786,0.90065 -1.68059,1.50672 -2.60467,1.82013 -0.91807,0.31513 -1.97131,0.30766 -3.15908,-0.0314 -1.44102,-0.41132 -2.53164,-1.06941 -3.26369,-1.97705 -0.72336,-0.91528 -1.18527,-2.2936 -1.3808,-4.12145 -0.19554,-1.82784 0.0759,-4.0131 0.80547,-6.56922 0.9728,-3.40813 2.30064,-5.8601 3.98546,-7.35376 1.1246,-0.99693 2.34217,-1.5342 3.66119,-1.60046 0.004,2e-5 0.0168,-1.9e-4 0.0209,0 10e-4,-2e-5 0.009,9e-5 0.0105,0 0.001,-0.001 0.01,-0.01 0.0105,-0.0105 z m -104.75184,0.3975 1.15066,4.34113 -5.63823,1.49586 0.85776,3.24276 5.23027,-1.39125 1.10882,4.15284 -5.24073,1.39125 1.06697,4.00638 5.8056,-1.5377 1.22389,4.6131 -9.1739,2.42685 -5.39764,-20.35621 9.00653,-2.38501 z m 89.43761,13.31627 4.01685,0.78454 -1.08789,5.54409 -4.00639,-0.795 1.07743,-5.53363 z m 20.61773,4.68632 3.94362,1.09836 -1.51678,5.43948 -3.94362,-1.09835 1.51678,-5.43949 z"
       id="path6412"
       style="fill:#0066b3;fill-opacity:1;fill-rule:nonzero;stroke:none" />
    <path
       d="m 309.01672,196.12075 c -39.6334,0.4145 -69.54166,13.72424 -69.54166,13.72423 0,0 6.92187,33.82848 26.02582,71.74884 l 90.34768,0 c 19.04678,-37.7016 26.42333,-71.74883 26.42332,-71.74884 0,0 -30.79474,-13.72432 -71.3618,-13.72423 -0.47541,0 -0.94992,-0.004 -1.42263,0 -0.15573,0.001 -0.3153,-0.002 -0.47073,0 z m 1.51678,14.44601 c 0.0103,-4e-4 0.0315,3.7e-4 0.0418,0 0.0104,-4e-4 0.0314,3.3e-4 0.0418,0 0.0104,-3.8e-4 0.0314,2.9e-4 0.0418,0 8.1e-4,-8e-5 0.008,-3e-5 0.0105,0 0.007,5e-5 0.014,-9e-5 0.0209,0 0.002,3e-5 0.01,7e-5 0.0105,0 8.1e-4,-7e-5 0.008,-2e-5 0.0105,0 0.007,4e-5 0.014,-8e-5 0.0209,0 0.002,2e-5 0.01,6e-5 0.0105,0 0.0739,-0.005 0.14454,0 0.21967,0 1.92327,0 3.48337,1.57056 3.48336,3.49382 10e-6,1.4124 -0.84157,2.63337 -2.05026,3.18 l 24.72871,0 0,1.61093 -51.64368,0 0,-1.61093 24.04878,0 c -1.20869,-0.54663 -2.05027,-1.7676 -2.05027,-3.18 0,-1.77706 1.33451,-3.27867 3.05448,-3.49382 z m 0.2929,1.68415 c -8.1e-4,8.1e-4 -0.009,0.009 -0.0105,0.0105 -0.92117,0.0702 -1.65276,0.84971 -1.65276,1.78875 0,0.98523 0.80352,1.77829 1.78875,1.77829 0.98523,0 1.7783,-0.79306 1.7783,-1.77829 0,-0.98523 -0.79307,-1.78875 -1.7783,-1.78875 -0.002,0 -0.008,9e-5 -0.0105,0 -0.0294,-0.002 -0.0652,-0.009 -0.0942,-0.0105 -0.002,0 -0.008,-1.1e-4 -0.0105,0 -10e-4,-7e-5 -0.01,1e-5 -0.0105,0 z m -5.73238,9.8329 c 0.002,4e-5 0.009,5e-5 0.0105,0 0.009,7e-5 0.0228,-1.4e-4 0.0314,0 8.1e-4,-3e-5 0.008,-3e-5 0.0105,0 8.1e-4,-1e-4 0.008,-3e-5 0.0105,0 0.009,7e-5 0.023,2.5e-4 0.0314,0 0.002,4e-5 0.01,4e-5 0.0105,0 0.009,5e-5 0.0234,1.9e-4 0.0314,0 0.001,-1.1e-4 0.008,-4e-5 0.0105,0 0.0147,-3.2e-4 0.0326,-2.2e-4 0.0418,0 0.002,1e-4 0.008,2e-5 0.0105,0 0.002,-5e-5 0.009,2e-5 0.0105,0 0,0 1.84971,0.19614 2.92895,1.07744 1.07924,0.8813 1.39125,2.44777 1.39125,2.44777 l 0.0105,7.99185 2.60468,0 0.0314,-7.91863 c 0,-1e-5 0.31663,-1.67321 1.41217,-2.56283 0.87152,-0.7077 2.23033,-0.93496 2.75113,-0.99375 0.002,3e-5 0.009,4e-5 0.0105,0 0.009,6e-5 0.0228,-1.5e-4 0.0314,0 8.2e-4,-3e-5 0.008,-4e-5 0.0105,0 8.1e-4,-1e-4 0.008,-4e-5 0.0105,0 0.009,6e-5 0.023,2.4e-4 0.0314,0 0.002,3e-5 0.01,3e-5 0.0105,0 0.009,4e-5 0.0234,1.8e-4 0.0314,0 0.0333,-0.003 0.0596,-8.1e-4 0.0732,0 0.001,1e-5 0.009,2e-5 0.0105,0 0,0 1.84971,0.19613 2.92895,1.07744 1.07925,0.8813 1.39125,2.44776 1.39125,2.44776 l 0.0105,7.95001 2.50006,0 0.0314,-7.95001 c 0,0 0.32709,-1.66275 1.42263,-2.55237 0.90263,-0.73297 2.32855,-0.95348 2.80342,-1.00421 8.1e-4,-1.1e-4 0.008,-4e-5 0.0105,0 0.009,6e-5 0.0231,2.3e-4 0.0314,0 0.002,3e-5 0.01,3e-5 0.0105,0 0.009,4e-5 0.0235,1.7e-4 0.0314,0 0.004,-1.7e-4 0.017,-1.8e-4 0.0209,0 0.001,2e-5 0.009,2e-5 0.0105,0 0.0115,-8.2e-4 0.0249,-8e-5 0.0314,0 0.002,7e-5 0.009,-1.1e-4 0.0105,0 0,0 1.84972,0.19613 2.92895,1.07743 1.07924,0.88131 1.39125,2.44777 1.39125,2.44777 l 0.0105,7.98139 4.5608,0 0,1.34941 -51.92613,0 0,-1.34941 4.72817,0 0.0314,-7.84541 c 0,0 0.31664,-1.67321 1.41217,-2.56283 0.87151,-0.70769 2.23032,-0.93496 2.75113,-0.99375 0.002,4e-5 0.009,5e-5 0.0105,0 0.009,7e-5 0.0228,-1.5e-4 0.0314,0 8.1e-4,-3e-5 0.008,-3e-5 0.0105,0 8.1e-4,-1e-4 0.008,-3e-5 0.0105,0 0.009,6e-5 0.023,2.4e-4 0.0314,0 0.002,3e-5 0.01,4e-5 0.0105,0 0.009,5e-5 0.0234,1.8e-4 0.0314,0 10e-4,-1.1e-4 0.008,-4e-5 0.0105,0 0.0147,-3.2e-4 0.0326,-2.3e-4 0.0418,0 0.002,1e-4 0.008,2e-5 0.0105,0 0.002,-5e-5 0.009,2e-5 0.0105,0 0,0 1.84972,0.19614 2.92895,1.07744 1.07925,0.8813 1.39126,2.44776 1.39126,2.44776 l 0.0105,7.87679 2.57329,0 0.0209,-7.96047 c 0,0 0.3271,-1.67321 1.42264,-2.56283 0.87151,-0.7077 2.23031,-0.93496 2.75112,-0.99376 z m -20.67003,13.8393 53.05586,0 0,1.35987 -24.44628,0 c 1.99182,0.81211 3.39968,2.77017 3.39968,5.05244 0,1.94835 -1.02372,3.657 -2.56283,4.62356 l 37.68932,0 0,1.41217 -81.46669,0 0,-1.41217 37.98222,0 c -1.53423,-0.96693 -2.55236,-2.67657 -2.55236,-4.62356 0,-2.26777 1.39392,-4.22478 3.36829,-5.05244 l -24.46721,0 0,-1.35987 z m 26.06767,3.26369 c -1.58585,0.21633 -2.79297,1.60846 -2.79297,3.25322 0,1.79376 1.45947,3.24277 3.25323,3.24277 1.79376,0 3.25324,-1.44901 3.25323,-3.24277 0,-1.79375 -1.45948,-3.25323 -3.25323,-3.25322 -0.056,0 -0.112,-0.003 -0.16737,0 -0.0268,0.001 -0.057,-0.002 -0.0837,0 -0.0102,2.3e-4 -0.0316,-3.2e-4 -0.0418,0 -0.0102,2.7e-4 -0.0317,-3.6e-4 -0.0418,0 -0.0102,3.1e-4 -0.0317,-4e-4 -0.0418,0 -0.0101,3.4e-4 -0.0317,-4.1e-4 -0.0418,0 -0.0101,3.8e-4 -0.0318,-4.1e-4 -0.0418,0 z m -20.96292,0.0837 c 0.0607,-0.005 0.55801,-0.0365 0.85776,0.18829 0.13068,0.098 0.21859,0.13407 0.27198,0.17783 0.002,0.002 0.009,0.009 0.0105,0.0105 0.001,0.002 0.008,0.008 0.0105,0.0105 0.002,0.004 0.009,0.0172 0.0105,0.0209 0.0435,0.0753 0.0735,0.21948 0.11507,0.55441 l -0.0419,1.51678 -1.71553,-0.0105 c 1e-4,-0.001 7e-5,-0.009 0,-0.0105 -0.0345,-0.0817 -0.27744,-0.55427 -1.43309,-1.29711 -1.16165,-0.74669 -3.50311,-1.09439 -3.9227,-1.15066 l 5.83698,-0.0105 z m 42.43841,0.11507 c 0.004,-0.001 0.007,0.001 0.0105,0 8.1e-4,3e-5 0.01,-1.5e-4 0.0105,0 4.1e-4,1e-5 0.008,2e-5 0.0105,0 4e-4,1e-5 0.008,2e-5 0.0105,0 4.1e-4,1e-5 0.008,2e-5 0.0105,0 4e-4,1e-5 0.008,2e-5 0.0105,0 4.1e-4,1e-5 0.008,2e-5 0.0105,0 4e-4,1e-5 0.008,1e-5 0.0105,0 8.1e-4,2e-5 0.01,-1.1e-4 0.0105,0 8.2e-4,2e-5 0.01,-1.1e-4 0.0105,0 0.004,-2.5e-4 0.0169,-3e-4 0.0209,0 10e-4,3e-5 0.009,5e-5 0.0105,0 0.004,-2.2e-4 0.017,-2.6e-4 0.0209,0 10e-4,3e-5 0.009,5e-5 0.0105,0 0.002,4e-5 0.009,5e-5 0.0105,0 0.009,1e-5 0.0227,-2e-4 0.0314,0 10e-4,-2e-5 0.008,-3e-5 0.0105,0 0.001,-1e-4 0.008,-4e-5 0.0105,0 0.009,-1e-5 0.0229,-1.7e-4 0.0314,0 0.002,-2e-5 0.008,1.1e-4 0.0105,0 0.1117,-0.006 0.20032,0.007 0.21967,0.0105 l 5.82653,0.0105 c -0.41899,0.0553 -2.76105,0.39351 -3.92271,1.1402 -1.15565,0.74283 -1.38824,1.21612 -1.42263,1.2971 -7e-5,10e-4 -9e-5,0.009 0,0.0105 l -1.72599,0.0105 -0.0418,-1.51678 c 0.0386,-0.31183 0.0665,-0.45451 0.1046,-0.53349 0.005,-0.009 0.0167,-0.0253 0.0209,-0.0314 0.002,-0.002 0.009,-0.009 0.0105,-0.0105 0.005,-0.005 0.0158,-0.0158 0.0209,-0.0209 8.1e-4,-8.1e-4 0.008,-0.008 0.0105,-0.0105 0.0527,-0.0371 0.13114,-0.067 0.25105,-0.15691 0.009,-0.007 0.0221,-0.0147 0.0314,-0.0209 0.0976,-0.0639 0.22782,-0.13944 0.3452,-0.17783 z m -37.48011,0.76362 c 0.002,-3e-5 0.01,-7e-5 0.0105,0 0.004,-1e-5 0.0173,-1.1e-4 0.0209,0 0.0265,-0.002 0.0582,8.1e-4 0.0837,0 2.12486,-0.0595 4.35281,0.586 4.60264,0.65901 -0.31961,0.0505 -5.42658,0.88165 -5.47086,2.34316 -0.0439,1.44872 2.99061,2.60165 3.34737,2.7302 -0.58996,0.11646 -6.94096,1.27915 -6.44369,-3.00217 0.23279,-2.00425 1.96206,-2.63798 3.80764,-2.71974 0.004,3e-5 0.0168,-1.9e-4 0.0209,0 10e-4,-2e-5 0.009,9e-5 0.0105,0 0.001,-0.001 0.01,-0.01 0.0105,-0.0105 z m 31.72681,0 c 0.0288,-0.002 0.0548,0.002 0.0837,0 0.0293,-0.002 0.0542,0.002 0.0837,0 0.0299,-0.002 0.0642,0.001 0.0942,0 0.0305,-0.001 0.0636,0.001 0.0941,0 0.063,-0.002 0.12516,0.001 0.18829,0 2.0659,-0.0361 4.17593,0.49739 4.43527,2.7302 0.50516,4.34928 -6.05412,3.08517 -6.46461,3.00217 0.25765,-0.0915 3.42348,-1.2538 3.37875,-2.7302 -0.0443,-1.46151 -5.16172,-2.29262 -5.48132,-2.34316 0.13102,-0.0388 1.77233,-0.544 3.58796,-0.65901 z m -15.77449,0.47072 c 0.004,1e-4 0.0174,-1.1e-4 0.0209,0 0.004,9e-5 0.0174,-1.1e-4 0.0209,0 0.004,9e-5 0.0174,-1.1e-4 0.0209,0 0.004,9e-5 0.0174,-1e-4 0.0209,0 0.004,8e-5 0.0174,-1e-4 0.0209,0 0.004,8e-5 0.0174,-9e-5 0.0209,0 0.004,8e-5 0.0174,-9e-5 0.0209,0 0.004,8e-5 0.0174,-9e-5 0.0209,0 0.004,7e-5 0.0174,-9e-5 0.0209,0 0.004,7e-5 0.0174,-8e-5 0.0209,0 0.004,6e-5 0.0174,-8e-5 0.0209,0 0.004,6e-5 0.0174,-7e-5 0.0209,0 0.004,5e-5 0.0174,-7e-5 0.0209,0 0.004,5e-5 0.0174,-7e-5 0.0209,0 8.1e-4,-1.1e-4 0.008,-3e-5 0.0105,0 0.007,6e-5 0.0139,-1.4e-4 0.0209,0 0.002,3e-5 0.01,9e-5 0.0105,0 8.1e-4,-9e-5 0.008,-3e-5 0.0105,0 0.007,4e-5 0.014,-1.2e-4 0.0209,0 0.002,3e-5 0.01,7e-5 0.0105,0 0.0375,-0.003 0.077,4.1e-4 0.11507,0 0.008,-9e-5 0.0132,0 0.0209,0 0.98622,0 1.78875,0.80252 1.78875,1.78875 0,0.98624 -0.80252,1.78876 -1.78875,1.78876 -0.98624,-1e-5 -1.78875,-0.80252 -1.78875,-1.78876 -1e-5,-0.81639 0.52839,-1.56839 1.27618,-1.78875 z m 23.70358,2.87665 c 8.1e-4,1e-5 0.009,-5e-5 0.0105,0 8.1e-4,1e-5 0.009,-4e-5 0.0105,0 8.1e-4,0 0.009,-3e-5 0.0105,0 0.009,-1.7e-4 0.0229,-3.2e-4 0.0314,0 0.002,4e-5 0.008,3e-5 0.0105,0 0.0784,-8.1e-4 0.13882,0.009 0.15691,0.0105 l 5.82652,0.0105 c -0.418,0.0563 -2.75059,0.40396 -3.91224,1.15066 -1.19551,0.76845 -1.41114,1.24098 -1.4331,1.2971 l -1.71552,0.0209 -0.0418,-1.51677 c 0.043,-0.34648 0.0686,-0.49146 0.11507,-0.56487 0.002,-0.002 0.009,-0.009 0.0105,-0.0105 0.005,-0.005 0.0168,-0.0169 0.0209,-0.0209 0.002,-0.002 0.008,-0.009 0.0105,-0.0105 0.002,-0.002 0.009,-0.009 0.0105,-0.0105 0.0535,-0.0377 0.1349,-0.0698 0.25105,-0.15691 0.16986,-0.1274 0.40507,-0.17334 0.58579,-0.18829 0.004,9e-5 0.0173,1e-5 0.0209,0 0.004,-0.002 0.0172,-0.009 0.0209,-0.0105 z m -46.75861,0.0732 c 8.1e-4,0 0.009,-5e-5 0.0105,0 0.10811,-0.006 0.55707,-0.0111 0.83684,0.19875 0.11991,0.0899 0.19836,0.11976 0.25105,0.15691 0.004,0.002 0.0173,0.009 0.0209,0.0105 8.1e-4,8.1e-4 0.01,0.009 0.0105,0.0105 0.006,0.007 0.0157,0.0227 0.0209,0.0314 0.003,0.005 0.008,0.0168 0.0105,0.0209 0.0381,0.079 0.0659,0.22166 0.1046,0.53349 l -0.0418,1.51678 -1.71553,-0.0105 c 9e-5,-0.001 7e-5,-0.009 0,-0.0105 -0.0345,-0.0817 -0.27744,-0.55427 -1.43309,-1.29711 -1.16165,-0.74669 -3.50371,-1.0849 -3.92271,-1.14019 l 5.83698,-0.0105 c 8.2e-4,-10e-4 0.01,-0.01 0.0105,-0.0105 z m -19.46706,5.7533 86.01701,0 0,1.34941 -42.31288,0 c 0.96164,0.10747 2.76677,0.5145 3.89132,1.8829 1.59523,1.94112 1.85152,3.44152 1.85152,3.44152 l 0,1.6946 36.55958,0 0,1.34941 -36.55958,0 0.0105,17.0716 5.48132,0 0.0314,-9.26804 c 0,10e-6 0.36781,-1.96475 1.62139,-3.01263 1.03506,-0.86523 2.67155,-1.12288 3.21138,-1.18204 0.002,4e-5 0.009,4e-5 0.0105,0 0.009,6e-5 0.0229,-1.6e-4 0.0314,0 8.2e-4,-3e-5 0.008,-3e-5 0.0105,0 8.1e-4,-10e-5 0.008,-4e-5 0.0105,0 0.009,5e-5 0.0232,2.1e-4 0.0314,0 0.005,-1.9e-4 0.0172,-2e-4 0.0209,0 0.001,2e-5 0.009,2e-5 0.0105,0 0.004,-1.4e-4 0.0167,-1.4e-4 0.0209,0 0.001,2e-5 0.008,-2e-5 0.0105,0 0.002,2e-5 0.009,2e-5 0.0105,0 0.004,5e-5 0.009,-8e-5 0.0105,0 -10e-6,0 2.11245,0.23809 3.34737,1.27618 1.23494,1.03809 1.59,2.87665 1.59,2.87665 l 0.0105,9.30988 4.04823,0 0.0314,-9.26804 c 0,10e-6 0.36781,-1.96475 1.62138,-3.01263 1.03507,-0.86523 2.67156,-1.12288 3.21139,-1.18204 0.002,4e-5 0.009,4e-5 0.0105,0 0.009,6e-5 0.0229,-1.6e-4 0.0314,0 8.1e-4,-3e-5 0.008,-3e-5 0.0105,0 8.1e-4,-10e-5 0.008,-4e-5 0.0105,0 0.009,5e-5 0.0232,2.1e-4 0.0314,0 0.005,-1.9e-4 0.0172,-2e-4 0.0209,0 10e-4,2e-5 0.009,2e-5 0.0105,0 0.004,-1.4e-4 0.0167,-1.4e-4 0.0209,0 0.001,2e-5 0.008,-2e-5 0.0105,0 8.1e-4,-8e-5 0.008,-3e-5 0.0105,0 0.007,-1.1e-4 0.0175,-1.9e-4 0.0209,0 1e-5,0 2.11245,0.23809 3.34738,1.27618 1.23493,1.03809 1.59,2.87665 1.59,2.87665 l 0.0105,9.30988 7.03994,0 0,1.34941 -86.03793,0 0,-1.34941 7.07132,0 0.0314,-9.24711 c 0,0 0.36781,-1.96476 1.62139,-3.01264 1.03285,-0.86336 2.67644,-1.11352 3.22185,-1.17158 0.002,4e-5 0.009,5e-5 0.0105,0 0.009,6e-5 0.0229,-1.5e-4 0.0314,0 8.1e-4,-3e-5 0.008,-3e-5 0.0105,0 8.1e-4,-1e-4 0.008,-4e-5 0.0105,0 0.009,5e-5 0.0232,2.1e-4 0.0314,0 0.005,-1.9e-4 0.0173,-2e-4 0.0209,0 0.001,3e-5 0.009,3e-5 0.0105,0 10e-4,-9e-5 0.008,-4e-5 0.0105,0 0.0122,-2.9e-4 0.0249,-2.7e-4 0.0314,0 8.1e-4,6e-5 0.008,3e-5 0.0105,0 0,-1e-5 2.11244,0.22764 3.34737,1.26572 1.23493,1.03809 1.59,2.88711 1.59,2.88711 l 0.0105,9.2785 4.06915,0 0.0314,-9.21574 c 0,1e-5 0.3678,-1.96474 1.62139,-3.01263 1.0294,-0.86049 2.66151,-1.11238 3.21138,-1.17158 0.002,4e-5 0.009,5e-5 0.0105,0 0.009,6e-5 0.0229,-1.5e-4 0.0314,0 10e-4,-3e-5 0.008,-3e-5 0.0105,0 8.1e-4,-1e-4 0.008,-3e-5 0.0105,0 0.009,6e-5 0.0231,2.2e-4 0.0314,0 0.0381,-0.004 0.0686,-0.001 0.0837,0 10e-4,2e-5 0.009,3e-5 0.0105,0 0,0 2.11245,0.22764 3.34738,1.26573 1.23493,1.03808 1.59,2.88711 1.59,2.88711 l 0.0105,9.24711 5.41855,0 0.0314,-17.0716 -36.57004,0 0,-1.34941 7.70942,0 c -1.71548,-0.21666 -3.04402,-1.68838 -3.04402,-3.46244 0,-1.86316 1.46549,-3.39988 3.30553,-3.49381 0.0594,-0.003 0.11773,0 0.17783,0 1.92327,-1e-5 3.48336,1.57055 3.48336,3.49381 10e-6,1.77407 -1.32854,3.24578 -3.04402,3.46244 l 27.99241,0 0,-1.78875 c 0,0 0.42049,-1.73313 2.03981,-3.69257 0.77997,-0.9438 1.85852,-1.37133 2.75112,-1.5377 l -12.27021,0 c 1.71779,0.2161 3.044,1.70755 3.04401,3.48336 1e-5,1.92326 -1.5601,3.48336 -3.48336,3.48336 -1.92326,-10e-6 -3.48336,-1.5601 -3.48336,-3.48336 0,-1.77581 1.32621,-3.26726 3.04402,-3.48336 l -28.22254,0 0,-1.34941 z m 18.05489,1.35987 c 0.0137,-0.002 0.0281,0.001 0.0418,0 0.0104,-3.8e-4 0.0314,2.9e-4 0.0418,0 8.1e-4,-8e-5 0.008,-2e-5 0.0105,0 0.007,5e-5 0.014,-9e-5 0.0209,0 0.002,2e-5 0.01,6e-5 0.0105,0 8.1e-4,-7e-5 0.008,-2e-5 0.0105,0 0.007,4e-5 0.014,-8e-5 0.0209,0 0.002,2e-5 0.01,6e-5 0.0105,0 8.2e-4,-6e-5 0.008,-2e-5 0.0105,0 0.007,3e-5 0.014,-7e-5 0.0209,0 0.002,-2e-5 0.009,9e-5 0.0105,0 0.0292,-0.002 0.0543,8.2e-4 0.0837,0 0.0299,-8.1e-4 0.0641,0 0.0941,0 1.92327,0 3.48336,1.57056 3.48336,3.49382 0,1.92327 -1.5601,3.48336 -3.48336,3.48336 -1.92326,0 -3.48336,-1.56009 -3.48336,-3.48336 0,-1.79196 1.35575,-3.29851 3.09632,-3.49382 z m 38.88182,0.0209 c 0.0104,-4e-4 0.0315,3.7e-4 0.0418,0 0.0104,-4e-4 0.0314,3.3e-4 0.0418,0 0.0104,-3.8e-4 0.0314,2.9e-4 0.0419,0 8.1e-4,-8e-5 0.008,-3e-5 0.0105,0 0.007,5e-5 0.014,-1e-4 0.0209,0 0.002,3e-5 0.01,7e-5 0.0105,0 8.2e-4,-7e-5 0.008,-2e-5 0.0105,0 0.007,4e-5 0.014,-8e-5 0.0209,0 0.002,2e-5 0.01,6e-5 0.0105,0 0.0289,-0.002 0.0546,10e-4 0.0837,0 0.0447,-0.002 0.0909,0 0.13599,0 1.92326,0 3.48336,1.57056 3.48336,3.49382 0,1.92326 -1.5601,3.48337 -3.48336,3.48336 -1.92327,0 -3.48336,-1.56009 -3.48337,-3.48336 0,-1.77774 1.33374,-3.2795 3.05449,-3.49382 z m 10.25133,0 c 0.0104,-4e-4 0.0315,3.7e-4 0.0418,0 0.0104,-4e-4 0.0314,3.3e-4 0.0418,0 0.0104,-3.8e-4 0.0314,2.9e-4 0.0418,0 8.2e-4,-8e-5 0.008,-3e-5 0.0105,0 0.007,5e-5 0.014,-1e-4 0.0209,0 0.002,3e-5 0.01,7e-5 0.0105,0 8.1e-4,-7e-5 0.008,-2e-5 0.0105,0 0.007,4e-5 0.014,-8e-5 0.0209,0 0.002,2e-5 0.01,6e-5 0.0105,0 8.1e-4,-6e-5 0.008,-2e-5 0.0105,0 0.007,3e-5 0.014,-8e-5 0.0209,0 0.002,-3e-5 0.009,9e-5 0.0105,0 0.0442,-0.002 0.0914,4.1e-4 0.13599,0 0.015,-1.9e-4 0.0268,0 0.0418,0 1.92327,0 3.48336,1.57055 3.48336,3.49382 10e-6,1.92326 -1.5601,3.48336 -3.48336,3.48336 -1.92325,0 -3.48336,-1.5601 -3.48336,-3.48336 0,-1.77785 1.33345,-3.27965 3.05448,-3.49382 z m 10.20948,0 c 0.0104,-4e-4 0.0315,3.7e-4 0.0419,0 0.0104,-4e-4 0.0314,3.3e-4 0.0418,0 0.0104,-3.8e-4 0.0314,2.9e-4 0.0418,0 8.1e-4,-8e-5 0.008,-3e-5 0.0105,0 0.007,5e-5 0.014,-1e-4 0.0209,0 0.002,3e-5 0.01,7e-5 0.0105,0 8.1e-4,-7e-5 0.008,-2e-5 0.0105,0 0.007,4e-5 0.014,-8e-5 0.0209,0 0.002,2e-5 0.01,6e-5 0.0105,0 8.1e-4,-6e-5 0.008,-2e-5 0.0105,0 0.007,3e-5 0.014,-8e-5 0.0209,0 0.002,-3e-5 0.009,9e-5 0.0105,0 0.0593,-0.003 0.11772,0 0.17782,0 1.92327,0 3.48336,1.57056 3.48336,3.49382 10e-6,1.92326 -1.56009,3.48336 -3.48336,3.48336 -1.92325,0 -3.48335,-1.5601 -3.48335,-3.48336 -1e-5,-1.77752 1.33394,-3.27921 3.05447,-3.49382 z m -49.09131,1.65276 c -0.82224,0.16252 -1.44355,0.92065 -1.44355,1.78876 0,0.98523 0.80351,1.77829 1.78875,1.77829 0.98523,0 1.7783,-0.79306 1.7783,-1.77829 0,-0.98523 -0.79308,-1.78876 -1.7783,-1.78876 -0.0462,0 -0.0907,-0.004 -0.13599,0 -8.1e-4,7e-5 -0.008,3e-5 -0.0105,0 -0.007,-1.1e-4 -0.014,4e-5 -0.0209,0 -0.002,-2e-5 -0.01,-9e-5 -0.0105,0 -8.1e-4,9e-5 -0.008,3e-5 -0.0105,0 -0.007,-1.3e-4 -0.014,6e-5 -0.0209,0 -0.002,-3e-5 -0.01,-1e-4 -0.0105,0 -0.004,-6e-5 -0.0174,5e-5 -0.0209,0 -0.004,-7e-5 -0.0174,5e-5 -0.0209,0 -0.004,-7e-5 -0.0174,6e-5 -0.0209,0 -0.004,-7e-5 -0.0174,6e-5 -0.0209,0 -0.004,-8e-5 -0.0174,7e-5 -0.0209,0 -0.006,10e-4 -0.0145,-0.001 -0.0209,0 z m -10.19902,0.0209 c -0.83186,0.15436 -1.46448,0.91382 -1.46448,1.78875 0,0.98523 0.80352,1.7783 1.78875,1.77829 0.98523,0 1.77829,-0.79305 1.77829,-1.77829 0,-0.98523 -0.79306,-1.78875 -1.77829,-1.78875 -0.0462,0 -0.0907,-0.003 -0.13598,0 -8.1e-4,7e-5 -0.008,1e-5 -0.0105,0 -0.002,-1e-5 -0.01,-8e-5 -0.0105,0 -8.1e-4,7e-5 -0.008,3e-5 -0.0105,0 -0.007,-1.3e-4 -0.014,5e-5 -0.0209,0 -0.002,-4e-5 -0.01,-1e-4 -0.0105,0 -0.007,2.4e-4 -0.0244,3.3e-4 -0.0314,0 -0.002,-1e-5 -0.009,-9e-5 -0.0105,0 -0.004,-7e-5 -0.0174,5e-5 -0.0209,0 -0.004,-8e-5 -0.0174,6e-5 -0.0209,0 -0.004,-8e-5 -0.0174,6e-5 -0.0209,0 -0.007,0.001 -0.0144,-0.001 -0.0209,0 z m 38.88183,0.0209 c -0.81269,0.17045 -1.42264,0.92744 -1.42264,1.78875 0,0.98523 0.80352,1.7783 1.78875,1.77829 0.98523,0 1.7783,-0.79306 1.77829,-1.77829 0,-0.98523 -0.79306,-1.78875 -1.77829,-1.78875 -0.0462,0 -0.0907,-0.003 -0.13599,0 -8.1e-4,7e-5 -0.008,2e-5 -0.0105,0 -0.007,-1.2e-4 -0.014,4e-5 -0.0209,0 -0.002,-3e-5 -0.01,-9e-5 -0.0105,0 -8.1e-4,9e-5 -0.008,3e-5 -0.0105,0 -0.007,-1.4e-4 -0.014,6e-5 -0.0209,0 -0.002,-4e-5 -0.01,-1.1e-4 -0.0105,0 -0.004,-7e-5 -0.0174,5e-5 -0.0209,0 -0.004,-7e-5 -0.0174,5e-5 -0.0209,0 -0.004,-7e-5 -0.0174,6e-5 -0.0209,0 -0.004,-8e-5 -0.0174,6e-5 -0.0209,0 -0.004,-9e-5 -0.0174,6e-5 -0.0209,0 -0.004,-9e-5 -0.0174,7e-5 -0.0209,0 -0.006,0.001 -0.0145,-0.001 -0.0209,0 z m 10.25132,0 c -0.81268,0.17045 -1.42263,0.92743 -1.42263,1.78875 0,0.98523 0.80352,1.77829 1.78875,1.77829 0.98523,0 1.7783,-0.79306 1.7783,-1.77829 0,-0.98523 -0.79307,-1.78876 -1.7783,-1.78875 -0.0462,0 -0.0907,-0.004 -0.13599,0 -8.1e-4,7e-5 -0.008,2e-5 -0.0105,0 -0.007,-1.2e-4 -0.014,4e-5 -0.0209,0 -0.002,-3e-5 -0.01,-9e-5 -0.0105,0 -8.1e-4,9e-5 -0.008,3e-5 -0.0105,0 -0.007,-1.4e-4 -0.014,6e-5 -0.0209,0 -0.002,-4e-5 -0.01,-1.1e-4 -0.0105,0 -0.004,-7e-5 -0.0174,5e-5 -0.0209,0 -0.004,-7e-5 -0.0174,5e-5 -0.0209,0 -0.004,-7e-5 -0.0174,6e-5 -0.0209,0 -0.004,-8e-5 -0.0174,6e-5 -0.0209,0 -0.004,-9e-5 -0.0174,6e-5 -0.0209,0 -0.004,-9e-5 -0.0174,7e-5 -0.0209,0 -0.006,0.001 -0.0145,-0.001 -0.0209,0 z m 10.16765,0 c -0.7937,0.18571 -1.38079,0.94084 -1.38079,1.78875 0,0.98523 0.80351,1.77829 1.78875,1.77829 0.98523,0 1.77829,-0.79306 1.77829,-1.77829 0,-0.98523 -0.79307,-1.78875 -1.77829,-1.78875 -0.0462,0 -0.0907,-0.003 -0.13599,0 -8.1e-4,7e-5 -0.008,2e-5 -0.0105,0 -0.007,-1.2e-4 -0.014,4e-5 -0.0209,0 -0.002,-3e-5 -0.01,-9e-5 -0.0105,0 -8.1e-4,9e-5 -0.008,3e-5 -0.0105,0 -0.007,-1.4e-4 -0.014,6e-5 -0.0209,0 -0.002,-4e-5 -0.01,-1.1e-4 -0.0105,0 -0.004,-7e-5 -0.0174,5e-5 -0.0209,0 -0.004,-7e-5 -0.0174,5e-5 -0.0209,0 -0.004,-7e-5 -0.0174,6e-5 -0.0209,0 -0.004,-8e-5 -0.0174,6e-5 -0.0209,0 -0.004,-9e-5 -0.0174,6e-5 -0.0209,0 -0.004,-9e-5 -0.0174,7e-5 -0.0209,0 -0.004,-9e-5 -0.0174,7e-5 -0.0209,0 -0.004,-9e-5 -0.0174,8e-5 -0.0209,0 -0.006,0.001 -0.0147,-0.002 -0.0209,0 z m -69.59397,0.0314 c -0.83172,0.15445 -1.46448,0.91392 -1.46448,1.78875 0,0.98523 0.80352,1.77829 1.78875,1.77829 0.98523,0 1.77829,-0.79306 1.77829,-1.77829 0,-0.98523 -0.79307,-1.78876 -1.77829,-1.78875 -0.0462,0 -0.0907,-0.004 -0.13598,0 -0.0135,0.001 -0.029,4.1e-4 -0.0418,0 -0.004,-1e-5 -0.0155,-9e-5 -0.0209,0 -0.007,2.4e-4 -0.0244,3.3e-4 -0.0314,0 -0.002,-1e-5 -0.009,-9e-5 -0.0105,0 -0.004,-7e-5 -0.0174,5e-5 -0.0209,0 -0.004,-7e-5 -0.0174,6e-5 -0.0209,0 -0.004,-8e-5 -0.0174,6e-5 -0.0209,0 -0.007,0.001 -0.0144,-0.001 -0.0209,0 z m -9.25758,31.08872 c 0.74718,1.45689 1.5001,2.88944 2.25948,4.29928 l 83.86214,0 c 0.7297,-1.35403 1.45678,-2.72541 2.1758,-4.12145 0.0308,-0.0599 0.0633,-0.11791 0.0941,-0.17783 l -88.39156,0 z m 3.30553,6.22402 c 19.16073,34.8244 41.13085,54.74 41.13084,54.74001 0,0 21.64998,-20.22642 40.6392,-54.74001 l -81.77004,0 z m 24.54042,8.59857 2.77205,0 0,17.84568 -3.38922,0 0,-11.69488 c -0.54736,0.6066 -1.07549,1.09982 -1.59,1.47493 -0.50905,0.37514 -1.15296,0.73425 -1.92474,1.07744 l 0,-3.99593 c 1.13851,-0.53474 2.02751,-1.17448 2.65698,-1.92474 0.62946,-0.75024 1.11915,-1.68106 1.47493,-2.7825 z m 10.54423,0 c 0.0267,-0.002 0.0567,0.002 0.0837,0 0.0278,-0.002 0.0556,0.001 0.0837,0 0.0762,-0.003 0.15188,0 0.23013,0 1.20418,1e-5 2.16957,0.3035 2.89757,0.91007 0.72797,0.5986 1.30403,1.55974 1.73645,2.87664 0.43788,1.30896 0.659,3.03347 0.65901,5.18843 -10e-6,3.1686 -0.45625,5.49018 -1.37033,6.96672 -0.9141,1.46857 -2.177,2.20718 -3.79718,2.20718 -0.95788,1e-5 -1.7171,-0.16194 -2.26993,-0.48119 -0.55284,-0.32723 -1.01406,-0.80009 -1.38079,-1.42263 -0.36673,-0.62254 -0.65025,-1.39889 -0.84731,-2.3327 l 3.32646,-0.60671 c 0.0876,0.67841 0.23134,1.15374 0.43934,1.43309 0.20799,0.27934 0.46256,0.41842 0.76362,0.41842 0.5364,10e-6 0.96467,-0.39188 1.26572,-1.18204 0.21894,-0.58263 0.38217,-1.81942 0.49165,-3.70303 -0.39958,0.5986 -0.81288,1.03868 -1.23434,1.31803 -0.42148,0.27934 -0.91165,0.41842 -1.46448,0.41842 -1.0783,0 -1.98579,-0.55629 -2.7302,-1.67369 -0.73894,-1.11739 -1.10882,-2.5285 -1.10882,-4.23652 0,-1.16525 0.18719,-2.23269 0.56487,-3.19046 0.37768,-0.95774 0.89631,-1.67845 1.55862,-2.16534 0.57299,-0.4281 1.27493,-0.68418 2.10257,-0.74269 z m 11.51706,0 c 0.0296,-0.002 0.0641,0.001 0.0941,0 0.031,-10e-4 0.0628,8.1e-4 0.0941,0 0.0851,-0.002 0.17343,0 0.26151,0 1.17682,1e-5 2.0893,0.19472 2.74067,0.58579 0.65682,0.3911 1.16548,0.99559 1.5377,1.80967 0.37767,0.80613 0.57532,1.7141 0.57533,2.71974 -1e-5,1.06951 -0.21615,2.09122 -0.64856,3.06494 -0.42694,0.97374 -1.21013,2.03566 -2.34316,3.20093 -0.67325,0.67842 -1.12998,1.16173 -1.35987,1.43309 -0.22442,0.27137 -0.48848,0.61754 -0.795,1.05652 l 5.21981,0 0,3.975 -10.03166,0 c 0.11495,-1.44463 0.46585,-2.80011 1.04606,-4.06915 0.58567,-1.27701 1.68084,-2.77653 3.28461,-4.50849 0.97976,-1.0615 1.60921,-1.86566 1.88289,-2.41639 0.27368,-0.5507 0.40796,-1.07422 0.40797,-1.56908 -10e-6,-0.53474 -0.13429,-0.99519 -0.40797,-1.37033 -0.26821,-0.38309 -0.61461,-0.57532 -1.02513,-0.57533 -0.42695,1e-5 -0.77238,0.19472 -1.04605,0.58579 -0.26821,0.3911 -0.4509,1.08151 -0.54395,2.07119 l -3.34738,-0.38704 c 0.13137,-1.37278 0.37147,-2.44516 0.72178,-3.21139 0.35031,-0.77417 0.84,-1.36076 1.47494,-1.76783 0.55405,-0.35905 1.28816,-0.57804 2.20718,-0.62763 z m 11.41244,0 c 0.0235,-0.002 0.0496,0.001 0.0732,0 0.0363,-0.002 0.0678,0.001 0.1046,0 0.0771,-0.003 0.16157,0 0.24059,0 0.81009,1e-5 1.46751,0.14405 1.98751,0.43934 0.51998,0.28735 0.94776,0.66931 1.27618,1.1402 0.32841,0.46295 0.58797,0.95616 0.77408,1.47494 0.19157,0.51082 0.34531,1.11283 0.46027,1.79921 0.22441,1.30896 0.33472,2.6694 0.33473,4.09007 -1e-5,3.18456 -0.36989,5.51109 -1.10882,6.98764 -0.73894,1.47655 -2.01181,2.21764 -3.81809,2.21764 -1.01263,1e-5 -1.83424,-0.22997 -2.45823,-0.70086 -0.62399,-0.47091 -1.13813,-1.16131 -1.5377,-2.07119 -0.2901,-0.64649 -0.51573,-1.52912 -0.67993,-2.64652 -0.15874,-1.12536 -0.23013,-2.36711 -0.23013,-3.72395 -1e-5,-3.33619 0.40284,-5.67566 1.22388,-7.00856 0.75728,-1.22124 1.87887,-1.89528 3.35783,-1.99796 z m -22.61569,3.04402 c -0.36576,0.058 -0.67555,0.31149 -0.93098,0.73223 -0.29011,0.48688 -0.42889,1.21254 -0.42889,2.18625 0,0.98171 0.14876,1.73025 0.44981,2.24902 0.30652,0.5188 0.68588,0.78455 1.14019,0.78454 0.47073,1e-5 0.85959,-0.26078 1.17159,-0.76362 0.31198,-0.50282 0.47072,-1.22104 0.47072,-2.15487 0,-0.94976 -0.16323,-1.68287 -0.49164,-2.21763 -0.32843,-0.54272 -0.73224,-0.81591 -1.20296,-0.81592 -0.0364,0 -0.0792,-0.002 -0.11507,0 -0.001,1e-4 -0.008,5e-5 -0.0105,0 -0.004,1.3e-4 -0.0173,2.7e-4 -0.0209,0 -10e-4,-10e-6 -0.009,-9e-5 -0.0105,0 -0.006,8.1e-4 -0.0151,-8.1e-4 -0.0209,0 z m 22.76214,0.19874 c -0.47674,0.0686 -0.82219,0.48716 -1.04605,1.23435 -0.24632,0.81411 -0.36612,2.32905 -0.36612,4.53988 0,2.23478 0.12928,3.75963 0.3975,4.58171 0.27367,0.81409 0.66752,1.22388 1.18204,1.22388 0.33936,0 0.63237,-0.16936 0.87868,-0.51256 0.25178,-0.35117 0.43946,-0.90252 0.55441,-1.65277 0.12041,-0.75024 0.17783,-1.92645 0.17783,-3.51474 -10e-6,-2.33055 -0.13429,-3.88818 -0.40796,-4.68632 -0.26821,-0.80611 -0.67154,-1.21341 -1.21342,-1.21343 -0.0259,0 -0.0584,-0.002 -0.0837,0 -0.002,1.5e-4 -0.008,-2e-5 -0.0105,0 -0.004,-9e-5 -0.0164,2e-4 -0.0209,0 -0.002,-6e-5 -0.008,0 -0.0105,0 -0.002,1.1e-4 -0.008,-2.3e-4 -0.0105,0 -0.008,8.2e-4 -0.0134,-0.001 -0.0209,0 z"
       id="path6415"
       style="fill:#0066b3;fill-opacity:1;fill-rule:nonzero;stroke:none" />
    <path
       d="m 290.08556,217.62143 20.83253,-11.42896 21.02542,11.42896"
       id="path9945"
       style="fill:none;stroke:#fefefe;stroke-width:1.99999869;stroke-linecap:butt;stroke-linejoin:miter;stroke-miterlimit:4;stroke-opacity:1;stroke-dasharray:none" />
    <path
       d="m 264.75178,280.16647 c 0,0 0.70131,-1.04664 1.70012,-1.95514 0.99882,-0.90851 2.29516,-1.67887 2.29516,-1.67887 l -0.0212,-27.9032 16.19363,-11.96458 0.0638,-18.82882 25.94805,-14.04723 26.09683,14.34475 0,18.63755 16.06612,12.00709 -0.0212,27.94571 c 0,0 1.43979,0.63223 2.40142,1.46634 0.96163,0.83412 1.44509,2.04015 1.44509,2.04015"
       id="path1338"
       style="fill:none;stroke:#ffffff;stroke-width:4.99999619;stroke-linecap:round;stroke-linejoin:round;stroke-miterlimit:4;stroke-opacity:1;stroke-dasharray:none" />
  </g>
</svg>
