<?xml version="1.0" encoding="UTF-8" standalone="no"?>
<!-- Created with Inkscape (http://www.inkscape.org/) -->

<svg
   xmlns:dc="http://purl.org/dc/elements/1.1/"
   xmlns:cc="http://creativecommons.org/ns#"
   xmlns:rdf="http://www.w3.org/1999/02/22-rdf-syntax-ns#"
   xmlns:svg="http://www.w3.org/2000/svg"
   xmlns="http://www.w3.org/2000/svg"
   version="1.1"
   width="280"
   height="200"
   viewBox="0 0 279999.99 199874.21"
   id="svg2"
   xml:space="preserve"
   style="fill-rule:evenodd"><metadata
     id="metadata34"><rdf:RDF><cc:Work
         rdf:about=""><dc:format>image/svg+xml</dc:format><dc:type
           rdf:resource="http://purl.org/dc/dcmitype/StillImage" /><dc:title></dc:title></cc:Work></rdf:RDF></metadata><defs
     id="defs4"><style
       type="text/css"
       id="style6" /></defs><g
     transform="matrix(0.33322115,0,0,0.33322115,67933.022,-258.97644)"
     id="Genoa_x0020_CFC_x0020_-_x0020_Ayun_x0020_G._x0020_Aribowo"><metadata
       id="CorelCorpID_0Corel-Layer" /><path
       d="m 417012,442245 0,-425244 -400018,0 0,425244 0,10 c 2,702 -32,99827 99934,99827 89209,0 99003,26571 100080,32357 1129,-5784 11144,-32357 100070,-32357 99913,0 99932,-99509 99935,-99838 l -1,0 z m 280,-425384 0,425384 0,0 0,1 c -3,287 0,100116 -100214,100116 -99373,0 -99931,33100 -99936,33195 -4,72 -61,130 -134,133 -77,3 -142,-57 -145,-134 -4,-95 -242,-33194 -99936,-33194 -100271,0 -100211,-99455 -100213,-100106 l 0,-11 0,-425381 0,-4 c 0,-77 63,-140 140,-140 l 400295,0 4,0 c 77,0 140,63 140,140 z"
       id="path10"
       style="fill:#000000;fill-rule:nonzero" /><path
       d="m 16854,1875 400295,0 14985,0 0,14985 0,425385 -58,117 c -3,329 0,114845 -115000,114845 -65346,0 -79686,6061 -99466,39966 C 196857,563431 182462,557207 116925,557207 1645,557207 1927,442690 1925,442362 l -58,-117 0,-425385 0,-14985 14985,0 2,0 z m 385309,29971 -370326,0 0,410399 -58,0 c 25,3368 1433,84992 85146,84992 56848,0 85588,11764 100125,23612 14570,-11838 43311,-23612 100026,-23612 83509,0 85112,-81624 85145,-84992 l -58,0 0,-410399 z"
       id="path12"
       style="fill:#ffcc29;fill-rule:nonzero" /><path
       d="m 16854,210 400295,0 14985,0 1658,0 0,1665 0,14985 7,0 0,425385 -66,269 c -44,4538 -2202,116359 -116657,116359 -32464,0 -52219,1490 -66202,7145 -13796,5580 -22125,15365 -31827,31995 l -1400,2399 -1455,-2366 c -10187,-16564 -18778,-26359 -32749,-31966 -14142,-5676 -33958,-7207 -66518,-7207 C 2260,558873 302,447179 267,442513 l -66,-268 0,-425385 0,-14985 0,-1665 1665,0 14985,0 2,0 z m 400295,3330 -400295,0 -2,0 -13320,0 0,13320 0,425264 58,238 0,10 -7,0 c 2,1253 197,113170 113342,113170 32975,0 53126,1583 67754,7454 14116,5665 22941,15197 32894,30970 9504,-15847 18093,-25381 32065,-31032 14467,-5851 34556,-7393 67438,-7393 112792,0 113336,-111768 113341,-113170 l -7,0 0,-10 58,-238 0,-425264 7,0 0,-13320 -13327,0 z m -16650,29971 -366996,0 0,408734 0,1665 -16,0 c 247,5604 1752,23602 10960,41326 10583,20373 31428,40335 72479,40335 28568,0 50114,2967 66365,7428 15614,4286 26362,9963 33761,15728 7415,-5761 18170,-11437 33771,-15724 16238,-4462 37752,-7432 66254,-7432 40951,0 61792,-19962 72399,-40335 9226,-17721 10774,-35715 11035,-41326 l -12,0 0,-1665 0,-408734 z m -368661,-3330 370326,0 1665,0 0,1665 0,408734 67,0 -16,1678 c -17,1715 -433,23351 -11451,44513 -11080,21280 -32794,42130 -75352,42130 -28213,0 -49429,2918 -65382,7302 -15839,4352 -26466,10139 -33597,15933 l -1049,852 -1046,-852 c -7115,-5799 -17734,-11585 -33584,-15937 -15966,-4383 -37214,-7298 -65493,-7298 -42661,0 -64377,-20850 -75432,-42130 C 30499,465606 30134,443966 30122,442251 l -12,-1672 63,0 0,-408734 0,-1665 1665,0 z"
       id="path14"
       style="fill:#000000;fill-rule:nonzero" /><path
       d="m 16854,16860 400295,0 0,425385 c 0,0 0,99977 -100073,99977 -99508,0 -100075,33328 -100075,33328 0,0 -250,-33328 -100076,-33328 -100317,0 -100073,-99977 -100073,-99977 l 0,-425385 2,0 z"
       id="path16"
       style="fill:#ff0000" /><path
       d="m 216874,16860 200278,0 0,425385 c 0,0 0,99977 -100073,99977 -99508,0 -100076,33328 -100076,33328 l -129,-558690 0,0 z"
       id="path18"
       style="fill:#0e1e7d" /><polygon
       points="417112,142320 16854,142320 16854,17280 417152,16860 "
       id="polygon20"
       style="fill:#ffffff" /><polygon
       points="205232,142320 205232,91353 16854,91353 16854,67830 205232,67830 205232,16860 228779,16860 228779,67830 417152,67830 417152,91353 228779,91353 228779,142320 "
       id="polygon22"
       style="fill:#ff0000" /><path
       d="m 16854,15195 400295,0 1665,0 0,1665 0,425385 -7,13 c -3,291 0,101629 -101731,101629 -97911,0 -98413,31650 -98417,31741 l -3317,-13 c -4,-91 -204,-31728 -98417,-31728 C 14946,543887 15196,442549 15193,442258 l -7,-13 0,-425385 0,-1665 1665,0 2,0 z m 398630,3330 -396967,0 0,423720 -6,0 c 1,751 -2,98312 98415,98312 76054,0 95250,19578 100096,29419 4916,-9833 24222,-29419 100055,-29419 98177,0 98411,-97562 98414,-98312 l -7,0 0,-423720 z"
       id="path24"
       style="fill:#000000;fill-rule:nonzero" /><path
       d="m 169796,390978 -972,1491 c -1969,-2905 -10136,-5512 -10830,-9084 l 11528,-7226 c -1,1 1805,11473 274,14818 l 0,0 z"
       id="path26"
       style="fill:#fad412" /><path
       d="m 133659,230852 c 3874,4889 4176,13118 11639,14689 3673,5877 -1015,12544 2052,18645 1148,1802 3281,2926 4975,4204 1949,1226 7060,4311 10638,6309 1018,-1867 2314,-3514 3929,-4787 l 2982,-2164 c -1830,-3947 302,-7441 2967,-10698 3914,-5094 10049,-9570 10440,-15971 -2451,-6269 -4397,-12793 -8485,-18198 -3336,-4405 -6045,-7087 -12824,-10661 -2556,-1673 -3111,-2114 -4362,-2728 10040,-1260 12126,-1459 17686,750 4818,1904 14864,9052 14864,9052 -7151,-7571 -16000,-12711 -25973,-12788 -5148,330 -10505,688 -15241,2011 960,-7780 3666,-17678 12336,-20391 4407,-1639 9074,-684 12660,1975 2292,-3830 5744,-6738 10356,-6457 9067,956 16358,7507 26065,6429 775,1454 2121,3102 3846,3466 3585,525 6207,-1892 8846,-3738 5624,-4846 7905,-12120 5256,-19096 -482,-1176 -1080,-2285 -1778,-3346 5414,-776 10637,2608 13185,7177 1821,3815 1148,8568 407,12439 l -1451,6059 c 34,201 -43,630 318,544 1956,-1330 3500,-3482 5210,-5284 2250,1364 1806,4540 1497,6713 -1296,6028 -3914,11639 -7732,16876 4182,5643 7464,11766 9574,18479 l 206,173 1334,3497 28809,-28842 c 2837,211 8179,3075 9439,5684 1459,2747 1275,6565 -546,9024 0,0 -30288,25347 -29553,26309 l 48406,-40282 c 4220,163 11445,5827 13139,9729 2232,4840 1179,10429 -2568,14179 l -984,885 190,-15 -51036,35837 441,-191 55294,-38343 c 3794,1155 8732,7516 9300,11327 577,4185 -1246,8167 -4754,10532 l -8562,4780 389,77 -51309,29544 55973,-31380 c 3571,2312 6084,9324 5658,13636 -330,2898 -1864,5848 -4473,7578 l -56126,25936 40239,-18118 c 3047,2661 3021,10059 1840,13945 -797,3093 -3700,5933 -6624,6967 l -36723,16216 c -1509,92 -1324,2016 -2209,2973 -4238,7039 -12809,6495 -17754,12467 -584,208 -1158,442 -1722,695 l 2129,3768 c 2879,15038 9839,28745 23851,37205 7512,3580 9768,11349 12692,18056 941,3985 2250,7908 2142,12281 7935,4135 16002,7917 24797,9352 3237,445 7507,484 9917,-1973 3794,-3694 3589,-9210 2200,-13994 -1879,-6741 -4660,-12998 -7139,-19414 l -9105,-21414 c -4263,-11053 -8763,-22241 -9015,-35151 25,-6652 2262,-13624 8414,-17352 4808,-2944 10960,-1525 15186,1719 4089,3007 6965,6961 9145,10778 l 0,0 c 1716,3043 3136,6232 4118,9643 3543,1574 7489,2445 10256,5836 1834,2044 3265,4279 4501,6640 -68,477 253,526 238,965 l 210,244 c 1244,8794 345,17235 -632,25383 l -13349,-8148 c -7756,-5085 -13290,-12454 -11935,-21964 176,-1707 685,-3313 1247,-4902 516,-3025 -194,-6500 -1200,-9290 -2423,-4274 -6130,-9654 -11473,-10633 -2682,-197 -4559,2299 -5587,4441 -2505,6213 -728,14305 898,20726 1658,6108 3861,11927 6114,17716 l 7198,16975 c 3759,9009 7713,17883 10105,27596 2040,8109 -463,16012 -7031,21000 -8621,5204 -19009,1753 -27316,-1148 -3839,-1476 -7612,-3216 -11332,-5062 -520,5123 -1746,10003 -5424,14127 -1750,2145 -3710,3901 -5721,5559 -6926,4617 -15236,7053 -20243,14886 1084,379 2460,259 3719,321 7089,-126 13476,-2379 20599,-2562 5337,-52 11133,3741 13028,8788 855,1979 1198,4555 931,6763 l 85,65 c -236,2114 -1192,4000 -1602,6071 -995,3000 -1878,6151 -3480,9009 -250,345 -411,742 -664,1093 l 82,65 c -1304,1878 -2053,3938 -3332,5846 -2744,4138 -7265,7710 -7966,12484 0,1099 139,2250 692,3136 5328,4917 13238,1864 18988,5568 755,580 1348,1228 1769,1975 l -1899,1701 c 1730,3341 3399,7704 2693,11401 l 0,0 c -2777,-1683 -7854,-1932 -10662,-4267 l -582,521 c -1000,65 -1960,-22 -2781,-515 -2985,-5596 -9371,-5722 -13686,-9756 -8296,2641 -6710,12071 -10180,18074 -274,364 -579,793 -937,1074 l -1018,-395 c -2229,2794 -6514,4395 -9552,5311 -1050,-2312 -1619,-6543 -1107,-9445 l -968,-376 c -1392,-1304 -52,-2922 429,-4215 2654,-4667 7052,-8154 10325,-12503 -3901,-2170 -6754,1956 -9993,3229 -2586,3501 -4951,8852 -9765,9296 l -506,-105 -813,-427 c -2180,2815 -5522,4380 -8841,4998 -927,-2957 -1270,-6928 -208,-9757 l -1549,-814 c -379,-2629 277,-5327 2629,-6998 3096,-2664 7466,-3162 10133,-6360 -2522,-1262 -5380,-3263 -6781,-5764 l 459,-1192 c -2859,-1652 -4694,-5280 -5998,-7917 2618,-1660 6558,-2649 9722,-1738 l 156,-405 c 3389,846 6485,3130 9152,5781 5626,2608 13163,4704 19078,960 2155,-1478 3074,-4019 4494,-6056 2327,-4278 4559,-8593 4362,-13658 -176,-1984 -874,-3685 -2303,-5009 -1577,-833 -3402,-1414 -5213,-870 l -8550,2796 c -1509,781 -3290,1337 -5015,1852 l -11743,2849 c -5003,568 -5321,593 -10290,-1041 -6772,-2093 -9815,-3818 -12143,-8216 -4100,-7518 -6926,-16049 -6648,-25504 367,-9731 506,-20297 9472,-26541 5264,-4015 11987,-5251 17550,-8683 3994,-2880 5843,-7430 5093,-12234 l -96,614 c 358,3015 -1013,7886 -3423,9858 -3790,2669 -8334,4611 -12396,6735 -5615,2543 -10851,4617 -13262,10725 -2809,6627 -3031,12071 -3158,19537 83,7710 1697,15130 4704,21469 -3469,1917 -10611,5688 -12850,9512 3167,6374 12013,3876 14288,11032 l 559,2002 -1522,806 492,21 0,0 c 580,4510 287,8945 -2290,12556 -1947,-2834 -5801,-4691 -6673,-8095 l -593,314 c -639,-118 -1618,-34 -1721,-919 -1015,-2460 -3507,-5056 -6266,-5493 -5676,-912 -10627,1842 -15612,3410 -1840,2691 -3136,5719 -5658,8028 l -871,497 c -437,-343 -874,-658 -1308,-953 -2407,2301 -5900,3804 -9087,4113 -340,-655 -392,-1654 -411,-2509 20,-2278 749,-4388 1947,-6301 -409,-317 -820,-659 -1229,-1032 1478,-2204 3898,-4053 4608,-6793 -4105,-580 -5907,4694 -10127,3889 -149,-60 -290,-133 -422,-218 -2904,2237 -7618,3349 -10889,2738 246,-2883 2273,-6640 4552,-9152 -188,-83 -379,-156 -575,-217 l -632,-675 2068,-1617 c 2611,-821 5608,-911 7856,-2438 l 726,-824 c -1840,-2104 -4825,-90 -7016,-1022 -101,-239 -184,-488 -253,-743 -3369,435 -6547,-1245 -9338,-3188 1549,-2760 3881,-5072 6747,-6075 l -107,-234 c 750,-808 2247,-2183 4667,-2355 19612,608 23710,7263 37745,-5003 -3733,-9808 -17840,-11769 -19275,-25352 -105,-10985 4846,-21155 13716,-28541 6297,-4179 12636,-8278 20397,-9617 1715,-2809 832,-6821 -100,-9840 -1046,-3018 -7758,-10465 -13651,-16538 -5253,848 -10768,1218 -16135,1566 l -16548,988 -3315,362 c 1738,4417 6940,6451 10519,9315 1592,1213 2481,2916 2151,4985 l -163,731 c -2855,1540 -5438,3574 -8583,4555 -827,396 -1485,1099 -2166,1787 l -3886,2123 c -3186,-503 -3861,-3903 -4855,-6346 -1065,-3883 -2509,-7556 -3809,-11302 -626,-1338 -1630,-2578 -3003,-3427 -4559,5093 -10334,7843 -16861,9118 -744,197 -1287,-587 -1729,-1028 l -249,-366 c -3685,1600 -9149,2585 -11984,1508 685,-2836 3956,-7353 6910,-9406 -176,-911 -335,-1935 215,-2663 2261,-3049 7312,-1244 8964,-5003 -1138,-849 -2546,-1013 -3919,-1256 -3374,-500 -6954,-306 -10105,-1510 -472,-223 -1001,-580 -1309,-1024 l 133,-1233 c -3593,-893 -7930,-3754 -9623,-6277 2387,-2194 7140,-4476 10782,-4435 l 11,-111 c 2607,-1784 6200,-960 8864,-49 l 6476,2627 c 500,52 1138,-43 1200,-636 -420,-2852 -3803,-4287 -6130,-5241 -2314,-1017 -5120,-1534 -6695,-3867 -327,-710 -309,-1531 -124,-2267 l 1119,-910 c -1980,-3235 -2471,-9461 -1856,-12596 2878,177 7890,2681 10914,5224 l 1870,-1522 c 2994,293 4065,3645 5818,5615 1172,1873 2241,3797 2701,6037 4118,3994 7642,13118 15050,10173 l 20544,-9067 -277,-3363 0,0 -1765,-4825 c -7322,-9903 -12188,-21088 -14194,-33765 -5563,-4510 -15212,-8441 -20840,-10704 -3478,3272 -5738,8546 -10192,10097 -803,201 -1596,101 -2297,-139 l -618,-756 c -2578,1462 -6916,2703 -9261,2245 166,-2179 1501,-6869 3098,-9781 l -1146,-1400 c -272,-1800 867,-3364 2235,-4450 l 10423,-7910 c -2929,-2614 -3612,-7308 -7953,-8281 -2916,-274 -5984,-105 -8938,-321 -750,-105 -1521,-645 -1941,-1311 l 158,-908 c -3747,-1093 -8697,-5311 -10221,-8064 2368,-1763 8217,-2978 12090,-2671 l 23,-132 913,-880 c 4787,-321 8842,1660 13213,2645 420,43 1075,114 1386,-234 379,-450 -49,-947 -231,-1348 -2265,-3053 -5846,-5401 -7833,-8593 2,-1071 278,-2051 695,-2985 l -370,363 c -2898,-2275 -4195,-6889 -4248,-10496 3443,-319 9254,773 11745,3141 l 0,0 -136,133 c 484,-84 1007,-84 1578,26 759,172 1484,393 2138,906 l 0,0 z"
       id="path28"
       style="fill:#fad412" /><path
       d="m 175133,331467 -1663,-4550 c -3768,-5114 -6891,-10566 -9311,-16376 -2269,-5448 -3927,-11216 -4923,-17328 -2152,-1693 -4909,-3312 -7788,-4783 -4148,-2121 -8580,-3946 -11859,-5268 -987,1012 -1897,2198 -2802,3379 -2061,2691 -4121,5378 -7293,6481 l -87,28 c -484,120 -967,158 -1431,130 -512,-30 -1000,-139 -1449,-292 l -462,-322 -87,-107 c -1100,544 -2388,1034 -3678,1399 -2002,565 -4062,839 -5511,556 l -902,-175 69,-910 c 123,-1617 848,-4520 1842,-7137 l 0,-5 c 324,-853 680,-1680 1059,-2435 l -719,-878 -222,-498 c -158,-1048 56,-2031 498,-2911 l 1,1 c 493,-981 1270,-1828 2114,-2498 l 20,-12 9498,-7208 c -762,-878 -1368,-1859 -1969,-2831 -1178,-1908 -2344,-3789 -4614,-4323 -1493,-136 -3053,-156 -4611,-175 -1430,-16 -2867,-35 -4225,-134 l -69,-8 c -531,-73 -1057,-294 -1515,-602 l 0,-4 c -459,-310 -867,-721 -1153,-1176 l -145,-720 9,-51 c -1373,-533 -2825,-1371 -4193,-2353 -2500,-1796 -4778,-4120 -5764,-5900 l -433,-783 717,-536 c 1511,-1123 4242,-2032 7046,-2520 1759,-306 3572,-450 5159,-384 l 722,-695 643,-286 c 3525,-236 6601,688 9673,1611 1266,380 2534,763 3776,1045 l 143,33 -34,-65 c -967,-1283 -2210,-2471 -3448,-3655 -1613,-1541 -3228,-3083 -4379,-4932 l -153,-542 c 1,-758 117,-1470 315,-2149 -1282,-1141 -2247,-2686 -2929,-4372 -861,-2129 -1278,-4515 -1308,-6586 l -13,-944 946,-89 c 1966,-181 4645,67 7093,720 2022,541 3922,1371 5210,2481 369,-2 757,33 1169,111 l 33,8 c 426,96 849,210 1256,370 442,173 874,405 1288,729 l 173,169 c 1368,1726 2291,3790 3213,5851 1682,3763 3370,7535 7831,8473 l 433,91 231,371 c 2088,3341 1728,6777 1365,10233 -302,2885 -606,5794 709,8451 752,1150 2055,2045 3315,2911 l 1,-2 c 472,323 941,647 1362,962 1553,976 4999,3063 8120,4870 l 1537,883 c 996,-1616 2212,-3049 3676,-4204 l 32,-23 2331,-1692 c -692,-1958 -552,-3817 87,-5594 688,-1918 1947,-3697 3337,-5395 l 4,2 c 1092,-1417 2317,-2756 3546,-4097 3128,-3413 6290,-6862 6644,-11069 -397,-1022 -841,-2214 -1281,-3395 -1877,-5037 -3757,-10077 -6983,-14342 -1630,-2151 -3101,-3879 -4968,-5483 -1880,-1613 -4196,-3139 -7514,-4889 l -84,-52 -1590,-1049 -5,0 c -1261,-838 -1798,-1195 -2655,-1616 l 325,-1941 c 3569,-447 6142,-762 8247,-884 -493,-32 -991,-49 -1492,-54 -2557,162 -5167,335 -7712,628 -2529,290 -5005,703 -7310,1347 l -1481,415 188,-1529 c 490,-3979 1435,-8513 3377,-12426 1995,-4016 5030,-7369 9674,-8823 l 0,1 c 2301,-844 4670,-1037 6933,-684 2036,317 3988,1076 5737,2191 1204,-1788 2676,-3341 4414,-4423 1817,-1134 3918,-1754 6298,-1611 l 44,5 c 3981,420 7567,1852 11150,3285 l 0,1 c 4674,1868 9352,3737 14699,3143 l 688,-76 328,615 c 378,708 911,1473 1564,2061 463,418 981,741 1532,870 2674,388 4876,-1217 6993,-2761 l -1,-1 c 317,-232 641,-468 1062,-763 2683,-2323 4557,-5225 5422,-8370 839,-3048 735,-6339 -488,-9561 l 1,0 c -222,-541 -476,-1075 -754,-1596 -281,-527 -591,-1045 -922,-1549 l -888,-1350 1599,-230 c 2830,-405 5608,232 8032,1550 2587,1409 4779,3608 6194,6145 l 28,56 c 989,2070 1301,4369 1266,6656 -34,2237 -396,4445 -774,6417 l -13,44 -965,4030 c 610,-616 1199,-1293 1789,-1969 l -2,-1 c 474,-544 948,-1090 1515,-1686 l 569,-600 705,426 c 1456,880 2036,2298 2198,3825 145,1365 -52,2772 -215,3914 l -13,69 c -663,3087 -1667,6072 -2992,8951 -1218,2649 -2717,5218 -4477,7705 1944,2677 3687,5465 5206,8370 1595,3053 2941,6233 3998,9546 l 270,377 769,2016 27686,-27716 336,-336 464,34 c 1647,121 4013,1025 6057,2256 1862,1120 3515,2552 4216,3971 l 2,-1 c 824,1550 1181,3398 1072,5197 -67,1103 -310,2197 -730,3197 l 16401,-13649 692,-238 c 2268,87 5240,1552 7878,3504 2751,2037 5206,4654 6155,6821 l 2,-1 c 1200,2607 1522,5420 1040,8085 -249,1376 -712,2714 -1378,3964 l 160,-111 405,-281 476,145 c 2050,624 4347,2551 6213,4824 1955,2382 3488,5202 3806,7336 l 0,7 c 315,2283 -24,4514 -919,6497 -898,1992 -2359,3735 -4277,5028 l -77,44 -2929,1636 c 1670,1298 3081,3466 4069,5848 1165,2807 1767,5970 1531,8378 l 0,12 c -185,1640 -727,3300 -1598,4775 l -2,-1 c -821,1392 -1936,2629 -3326,3549 l -136,76 -14908,6889 c 1103,1394 1739,3382 2019,5506 403,3050 83,6460 -608,8734 -440,1668 -1414,3258 -2663,4573 -1302,1370 -2920,2459 -4549,3046 l -36701,16207 -353,85 c -270,17 -439,478 -614,957 l 0,4 c -196,534 -396,1082 -809,1574 -2448,4026 -6128,5679 -9817,7334 -2927,1312 -5864,2632 -7992,5202 l -447,313 -608,229 1561,2765 117,310 c 1418,7404 3838,14477 7623,20731 3761,6214 8880,11629 15713,15763 6797,3264 9440,9649 11969,15769 l 1,-1 c 404,975 812,1962 1169,2781 l 61,176 c 182,774 389,1574 590,2368 779,3055 1567,6134 1582,9525 3767,1954 7561,3813 11425,5358 l 0,1 c 4034,1611 8172,2893 12478,3598 1543,212 3328,328 4994,101 1568,-212 3031,-734 4054,-1776 l 16,-15 c 1538,-1498 2347,-3338 2655,-5303 388,-2477 0,-5172 -725,-7670 l -5,-13 c -1392,-4993 -3299,-9751 -5203,-14506 -622,-1549 -1247,-3111 -1891,-4778 l -1,0 -9105,-21414 -12,-33 -467,-1209 c -4149,-10744 -8371,-21673 -8617,-34296 l 0,-16 c 13,-3716 695,-7539 2321,-10892 1420,-2927 3554,-5499 6585,-7335 l -1,-1 c 2477,-1516 5267,-1974 7999,-1666 3011,341 5957,1619 8328,3433 2120,1560 3923,3362 5477,5266 1542,1890 2839,3882 3953,5834 l 0,4 c 887,1574 1692,3167 2387,4781 644,1494 1215,3033 1692,4619 622,264 1281,519 1939,776 l 4,0 c 2949,1150 5930,2313 8250,5149 938,1049 1778,2149 2537,3287 764,1142 1451,2325 2083,3534 l 87,499 7,-5 2,-1 8,8 c 83,152 167,306 213,520 l 238,521 c 630,4461 719,8834 525,13119 -194,4281 -665,8445 -1154,12525 l -191,1588 -1364,-832 -13349,-8148 -28,-16 c -4263,-2795 -7885,-6275 -10137,-10422 -2001,-3681 -2919,-7871 -2252,-12546 l 1,0 c 95,-903 275,-1772 502,-2614 218,-811 484,-1606 763,-2397 203,-1261 180,-2613 7,-3954 -209,-1617 -634,-3221 -1140,-4643 -1172,-2063 -2650,-4382 -4454,-6284 -1745,-1841 -3809,-3305 -6201,-3764 -861,-50 -1628,279 -2285,800 -961,763 -1713,1924 -2235,2999 -1184,2936 -1353,6356 -1032,9812 325,3509 1165,7090 1969,10263 l 1,0 c 826,3044 1784,6001 2809,8905 1045,2957 2153,5840 3266,8705 l 7188,16953 4,4 1310,3124 -1,1 c 3357,7985 6710,15957 8842,24615 l 1,0 c 1075,4273 941,8507 -337,12326 -1262,3772 -3642,7136 -7071,9740 l -89,65 c -4537,2739 -9512,3205 -14427,2606 l -5,0 c -4804,-586 -9544,-2197 -13752,-3666 l -29,-12 c -1976,-758 -3896,-1570 -5766,-2412 -1443,-649 -2895,-1336 -4348,-2044 -280,2127 -709,4209 -1412,6213 -869,2485 -2152,4843 -4073,7005 -903,1107 -1861,2113 -2846,3052 -976,930 -1989,1802 -3013,2646 l -80,60 c -2049,1366 -4193,2533 -6336,3697 -4663,2536 -9340,5080 -12714,9589 304,14 621,18 936,21 363,4 730,8 1052,22 3466,-67 6823,-665 10185,-1265 l 0,-1 c 3364,-601 6737,-1203 10356,-1295 l 16,0 c 2900,-28 5915,988 8443,2692 2494,1681 4536,4050 5553,6759 455,1064 772,2275 941,3502 145,1057 184,2138 107,3162 l 89,70 -62,567 c -143,1300 -528,2479 -910,3658 l 0,4 c -267,822 -537,1652 -703,2494 l -33,120 -483,1485 -1,0 c -836,2592 -1690,5241 -3075,7710 l -64,96 c -52,74 -106,162 -161,257 l 131,106 -540,781 c -634,916 -1144,1904 -1654,2891 -504,976 -1010,1957 -1666,2937 l 1,1 c -903,1364 -1977,2648 -3048,3928 -2142,2564 -4287,5127 -4745,8064 4,471 35,946 119,1381 71,371 184,722 351,1025 2617,2335 6032,2642 9450,2948 3217,288 6442,580 9285,2410 l 72,53 c 430,331 815,682 1147,1050 l -2,2 c 352,390 651,802 893,1232 l 403,715 -615,552 -1312,1175 c 621,1261 1216,2641 1679,4062 786,2410 1199,4955 752,7293 l -278,1449 -1262,-765 c -1073,-650 -2649,-1095 -4280,-1554 -2032,-572 -4146,-1166 -5813,-2277 l -556,234 c -560,36 -1126,28 -1682,-61 -596,-96 -1168,-283 -1694,-600 l -373,-399 c -1604,-3007 -4412,-4333 -7270,-5683 -1974,-932 -3975,-1879 -5744,-3387 -4481,1717 -5534,5996 -6589,10284 -611,2488 -1226,4982 -2471,7137 l -68,100 -80,107 c -293,392 -622,830 -1043,1161 l -458,359 -546,-211 -345,-134 c -1176,1256 -2711,2261 -4317,3062 -1788,894 -3679,1546 -5244,2016 l -859,258 -372,-820 c -578,-1274 -1021,-3071 -1237,-4923 -170,-1449 -205,-2951 -64,-4282 l -208,-80 -334,-209 c -1646,-1543 -876,-3124 -182,-4549 l 4,-4 c 138,-281 272,-554 351,-769 l 68,-148 c 1639,-2884 3882,-5290 6134,-7709 1165,-1250 2336,-2506 3404,-3811 -1684,-273 -3255,807 -4808,1878 -926,638 -1850,1275 -2846,1713 -437,608 -896,1305 -1361,2018 -2208,3364 -4631,7060 -8970,7460 l -298,-16 -506,-105 -273,-96 -78,-41 c -853,955 -1834,1760 -2894,2425 -1845,1159 -3941,1900 -6019,2286 l -894,166 -272,-869 c -581,-1851 -944,-4091 -906,-6231 20,-1154 157,-2285 440,-3324 l -787,-414 -464,-245 -75,-519 c -223,-1546 -118,-3130 421,-4568 l 0,-4 c 486,-1293 1319,-2457 2572,-3364 1460,-1252 3141,-2038 4810,-2817 1529,-714 3053,-1425 4287,-2492 -1070,-614 -2150,-1345 -3124,-2172 -1153,-979 -2169,-2102 -2864,-3346 l -236,-421 175,-451 160,-414 c -1074,-774 -1996,-1786 -2798,-2887 l -4,0 c -1190,-1635 -2111,-3472 -2861,-4986 l -409,-828 779,-493 c 1584,-1004 3616,-1782 5692,-2094 1318,-198 2668,-211 3945,22 l 161,-420 881,221 c 1808,451 3535,1283 5160,2354 1547,1018 2997,2250 4334,3566 2694,1235 5818,2339 8956,2698 3103,357 6229,-17 8953,-1730 1315,-902 2161,-2358 2995,-3795 378,-652 757,-1304 1200,-1947 1133,-2080 2241,-4176 3039,-6352 777,-2117 1257,-4323 1175,-6682 l -1,0 c -77,-885 -270,-1700 -593,-2423 -302,-674 -721,-1288 -1276,-1826 -683,-352 -1407,-646 -2132,-796 -722,-149 -1465,-158 -2196,61 l -8451,2764 c -779,398 -1619,738 -2477,1042 -881,311 -1769,584 -2636,843 l -52,12 -11744,2849 -129,25 c -2562,292 -3930,443 -5366,305 -1435,-136 -2803,-553 -5353,-1390 -3468,-1073 -6000,-2061 -7983,-3360 -2052,-1344 -3503,-2993 -4751,-5355 l 1,-1 c -560,-1027 -1095,-2072 -1605,-3136 -3412,1877 -9106,5050 -11308,8188 1386,2291 3819,3182 6221,4063 3275,1200 6506,2387 7851,6618 l 13,36 559,2003 221,793 -733,389 -437,231 c 255,2197 301,4376 -15,6456 -345,2271 -1120,4434 -2509,6382 l -852,1195 -833,-1211 c -686,-999 -1692,-1917 -2694,-2831 -1486,-1354 -2976,-2717 -3767,-4541 l -147,22 -307,-40 c -936,-108 -1990,-229 -2222,-1618 -486,-1121 -1318,-2274 -2346,-3175 -919,-806 -1988,-1404 -3082,-1577 -4081,-655 -7884,755 -11600,2132 -1067,395 -2129,790 -3200,1137 -483,728 -933,1477 -1379,2226 -1190,1992 -2386,3992 -4238,5687 l -186,136 -870,497 -596,340 -541,-424 c -199,-156 -399,-307 -598,-453 -871,738 -1844,1385 -2873,1927 -1956,1032 -4135,1698 -6197,1898 l -686,65 -320,-611 c -233,-447 -364,-978 -434,-1521 -63,-482 -84,-984 -93,-1443 l 0,-28 c 12,-1459 289,-2850 775,-4162 239,-645 528,-1274 866,-1886 -196,-166 -392,-337 -589,-517 l -652,-595 492,-735 c 532,-796 1151,-1514 1774,-2239 l 0,-4 c 786,-912 1584,-1840 2135,-2855 -984,286 -1871,968 -2758,1650 -1702,1308 -3412,2619 -6008,2123 l -128,-36 c -1293,884 -2838,1581 -4438,2046 -2310,673 -4763,880 -6745,510 l -915,-171 78,-922 c 149,-1751 885,-3772 1926,-5669 610,-1113 1330,-2193 2101,-3159 l -405,-433 -765,-818 882,-689 2068,-1617 325,-173 c 908,-286 1870,-488 2829,-688 1597,-333 3196,-671 4474,-1436 -664,-209 -1480,-113 -2298,-16 -1182,139 -2370,278 -3536,-217 l -542,-543 -23,-56 c -1302,50 -2569,-169 -3795,-567 -1935,-631 -3749,-1707 -5415,-2866 l -765,-534 456,-813 c 1007,-1795 2332,-3418 3909,-4657 812,-638 1691,-1178 2633,-1588 l 243,-261 c 417,-449 1049,-1062 1927,-1594 l 0,-5 c 888,-536 2020,-985 3419,-1084 l 100,0 c 5808,180 10263,884 14018,1478 8503,1343 13275,2094 22465,-5746 -1599,-3562 -4777,-6082 -8040,-8671 -4980,-3951 -10153,-8056 -11023,-16286 l -5,-97 c -54,-5632 1186,-11060 3573,-16027 2396,-4989 5953,-9512 10513,-13309 l 89,-69 c 3164,-2098 6342,-4181 9750,-5929 3286,-1686 6753,-3040 10550,-3755 548,-1122 678,-2468 581,-3845 -117,-1639 -553,-3324 -999,-4770 l 1,0 c -621,-1736 -3378,-5196 -6759,-8998 -1984,-2232 -4174,-4567 -6277,-6744 -1442,224 -2903,413 -4371,576 -3772,421 -7592,675 -11335,917 l -4,0 -16535,987 -1805,197 c 1358,2161 3760,3722 6108,5243 1193,772 2373,1539 3449,2397 l 1,-1 c 960,731 1709,1629 2156,2665 425,985 577,2092 385,3296 l -12,60 -163,731 -103,461 -412,223 c -433,234 -861,481 -1287,733 430,3741 913,9916 -212,12375 -21,47 -46,91 -73,133 l 1,0 -972,1491 c -308,475 -944,609 -1419,301 -130,-84 -233,-192 -309,-314 -720,-1031 -2565,-2146 -4475,-3300 -1795,-1085 -3648,-2202 -4924,-3482 l -962,526 -646,112 c -3283,-518 -4298,-3298 -5206,-5796 -138,-381 -277,-759 -446,-1176 l -36,-117 c -764,-2786 -1731,-5477 -2696,-8162 -351,-978 -703,-1959 -1071,-3016 -280,-589 -650,-1162 -1100,-1676 -246,-281 -519,-546 -814,-786 -2210,2318 -4679,4136 -7359,5541 -2927,1534 -6096,2574 -9447,3228 l 0,-1 c -1178,278 -1873,-476 -2452,-1102 l -52,-56 c -1516,591 -3241,1079 -4941,1385 -2650,476 -5289,517 -7074,-160 -499,-188 -766,-724 -627,-1229 444,-1810 1814,-4197 3490,-6277 1013,-1257 2152,-2423 3287,-3305 -142,-949 -149,-1956 516,-2837 l 1,1 c 1276,-1713 3115,-2126 4931,-2532 1307,-293 2600,-582 3410,-1484 -674,-274 -1445,-406 -2214,-537 l -412,-71 c -1077,-159 -2208,-249 -3336,-337 -2370,-184 -4743,-372 -6986,-1229 l -72,-32 c -317,-149 -659,-350 -965,-590 l 1,-1 c -284,-222 -546,-484 -751,-778 l -176,-692 41,-377 c -1239,-393 -2520,-971 -3732,-1659 -2359,-1338 -4509,-3125 -5630,-4796 -286,-426 -209,-987 158,-1324 l -1,-2 c 1483,-1364 3813,-2754 6253,-3661 1584,-588 3231,-979 4748,-1038 1498,-988 3234,-1257 4959,-1151 1672,104 3325,561 4723,1038 l 56,20 6110,2479 c -311,-809 -972,-1473 -1760,-2027 l 1,-1 c -1097,-769 -2467,-1342 -3581,-1799 l -24,-8 c -551,-242 -1077,-439 -1607,-636 l -1,5 c -2033,-755 -4129,-1534 -5524,-3601 l -80,-145 c -211,-459 -318,-947 -344,-1432 -27,-514 36,-1031 156,-1513 l 349,-546 461,-374 c -588,-1196 -1023,-2621 -1318,-4105 l -1,0 c -601,-3017 -647,-6353 -240,-8428 103,-526 591,-878 1115,-825 1933,130 4670,1176 7204,2578 l 84,51 c 1250,696 2461,1485 3512,2298 l 1229,-1001 744,-225 c 2619,255 3916,2227 5171,4134 426,647 848,1290 1317,1817 l 105,141 c 601,961 1180,1942 1674,2984 456,967 839,1986 1091,3081 1024,1040 1996,2340 2998,3678 l 4,0 c 2825,3780 5935,7936 10697,6071 l 0,-1 19873,-8771 -206,-2506 z m 117601,180150 -5989,5361 c 1358,766 3084,1252 4748,1719 1190,335 2352,663 3391,1090 43,-1582 -299,-3266 -832,-4899 -369,-1129 -828,-2235 -1318,-3271 z m -38634,14875 -7991,-3099 c -65,1034 -21,2166 108,3275 146,1261 405,2479 740,3468 1265,-411 2673,-937 4013,-1606 1142,-569 2234,-1244 3130,-2038 z m -21775,-9331 -6793,-3572 c -163,744 -245,1548 -259,2373 -28,1577 191,3223 563,4690 1529,-371 3037,-965 4383,-1811 761,-477 1471,-1035 2106,-1680 z m -3018,-27780 2820,-7311 c -928,-123 -1911,-93 -2885,54 -1457,218 -2886,700 -4097,1335 625,1237 1365,2605 2254,3826 l -2,1 c 571,783 1204,1510 1911,2095 z m -15887,-8386 -6824,3612 c 638,1436 1951,2632 3260,3825 709,647 1420,1296 2057,2002 735,-1348 1182,-2804 1413,-4323 249,-1646 249,-3369 94,-5115 z m -56465,-982 c -187,-224 -362,-456 -534,-687 -184,-246 -368,-491 -553,-696 l -84,-105 c -558,-818 -1231,-1715 -1997,-2467 -402,-395 -834,-753 -1289,-1039 -765,928 -1486,1992 -2092,3097 -715,1304 -1265,2654 -1527,3879 1476,104 3174,-108 4810,-584 1163,-339 2286,-812 3266,-1396 z m -3763,-14781 c -51,-347 -92,-695 -133,-1044 -98,-832 -197,-1668 -428,-2339 l -24,-72 c -212,-798 -491,-1578 -798,-2342 -152,-378 -322,-775 -502,-1178 -683,323 -1329,730 -1933,1205 -1120,880 -2098,1994 -2899,3237 1301,852 2674,1605 4079,2064 861,279 1743,452 2637,470 z m 18412,23878 c -688,-422 -1375,-811 -2058,-1198 -1158,-656 -2308,-1308 -3461,-2108 -224,433 -421,876 -589,1329 -408,1105 -642,2264 -653,3465 9,389 27,809 77,1196 l 27,187 c 1548,-251 3149,-793 4618,-1569 721,-380 1407,-815 2039,-1301 z M 158905,290432 c -232,-3778 151,-8090 1381,-12002 362,-1147 797,-2263 1310,-3322 l -1582,-906 c -3175,-1837 -6694,-3970 -8237,-4942 l -72,-48 c -426,-321 -863,-622 -1302,-923 l 0,-4 c -1450,-996 -2950,-2027 -3919,-3547 l -52,-92 c -1612,-3207 -1274,-6428 -939,-9623 313,-2970 622,-5922 -857,-8581 -5142,-1289 -6991,-5419 -8834,-9541 -848,-1897 -1696,-3796 -2870,-5310 -214,-153 -441,-270 -677,-362 -295,-117 -609,-202 -928,-274 l 0,1 c -2044,-390 -3440,1165 -4824,2710 -520,581 -1040,1161 -1588,1662 -439,703 -848,1416 -1147,2152 -261,642 -440,1304 -480,1995 1016,1536 2451,2908 3886,4279 1328,1269 2659,2541 3737,3993 l 108,186 93,177 5,8 c 346,634 740,1351 -15,2248 l -16,24 c -657,737 -1620,637 -2246,573 l 0,-1 -133,-20 c -1376,-309 -2676,-701 -3972,-1091 -2782,-835 -5567,-1672 -8581,-1548 l -394,378 -1916,11005 c 103,107 220,206 345,290 l 1,-2 c 197,133 408,230 606,265 1373,98 2727,117 4073,132 l 4,0 c 1626,20 3255,41 4858,191 l 128,20 c 3146,705 4544,2967 5960,5260 733,1185 1474,2386 2452,3258 l 928,828 -992,751 -10404,7896 1,2 c -639,509 -1217,1126 -1560,1809 l 0,4 c -223,442 -345,922 -322,1423 l 7532,9211 c 209,56 425,92 638,105 259,15 526,-4 786,-65 2557,-918 4414,-3340 6274,-5769 1099,-1435 2205,-2877 3489,-4085 l 478,-449 606,244 c 3347,1345 8118,3283 12651,5600 2317,1184 4565,2468 6525,3825 z m -38612,-4918 c -199,449 -393,923 -577,1408 l -1,-1 c -742,1953 -1321,4051 -1579,5556 1036,-2 2319,-233 3607,-596 1012,-287 2014,-653 2895,-1056 l -4344,-5311 z m 2106,-49941 c 264,-496 555,-981 859,-1463 l 184,-221 c 536,-476 1035,-1035 1534,-1591 931,-1039 1866,-2081 3007,-2750 -911,-499 -2014,-908 -3179,-1218 -1836,-491 -3795,-730 -5400,-712 123,1578 485,3290 1118,4853 474,1171 1095,2247 1877,3100 z m -10287,22093 1459,-8379 c -1270,-3 -2696,132 -4098,375 -2051,356 -4021,936 -5357,1639 1017,1397 2748,3049 4642,4411 1115,802 2274,1491 3354,1955 z m 16988,-8739 58,13 m 333,90 c 29,5 51,4 61,-7 l 2,2 c 47,-60 0,-34 -63,5 z m -4460,123000 -3937,-5785 c -810,705 -1625,1575 -2377,2509 -1220,1514 -2251,3171 -2797,4553 1377,247 3188,143 5047,-190 1395,-251 2802,-630 4065,-1087 z m -10416,-21443 896,-8290 c -1077,126 -2228,431 -3357,849 -1827,679 -3577,1650 -4864,2650 1032,1197 2633,2435 4382,3427 968,551 1975,1022 2944,1363 z m 7099,-21424 7090,-5771 c -874,-644 -1864,-1273 -2885,-1841 l -70,-35 c -1911,-1057 -3902,-1889 -5453,-2204 -192,1836 -83,4345 380,6676 l -1,0 1,4 c 229,1150 539,2244 937,3171 z m 47292,51042 c -1726,1055 -3479,2071 -5481,2704 -571,295 -1108,840 -1650,1391 l -153,155 -241,181 -1031,564 c 1079,932 2607,1857 4094,2754 1555,940 3070,1856 4149,2840 l 198,-306 c 822,-1919 495,-6788 115,-10283 z m 73826,-43686 c -4036,2014 -7565,5140 -11085,8257 l -402,357 c -1825,1908 -3293,4062 -4754,6205 -1682,2466 -3362,4930 -5623,7115 l -125,100 c -1618,1131 -3218,542 -4701,-2 -321,-118 -637,-234 -897,-310 l -89,-32 c -1122,-448 -2212,-972 -3272,-1543 -881,-474 -1754,-987 -2619,-1522 l -7518,3963 -221,84 c -1378,358 -2784,667 -4212,936 1820,1900 3666,3886 5364,5795 3550,3992 6470,7703 7172,9730 l 13,33 c 484,1570 958,3405 1087,5227 135,1920 -108,3835 -1093,5448 l -243,398 -461,80 c -3768,650 -7200,1975 -10452,3643 -3264,1674 -6397,3726 -9519,5798 -4306,3598 -7661,7868 -9918,12569 -2243,4668 -3412,9771 -3370,15068 790,7339 5612,11166 10255,14850 3684,2922 7266,5764 8954,10203 l 254,667 -539,471 c -10278,8982 -15404,8175 -24686,6709 -3676,-581 -8035,-1270 -13691,-1450 -1009,76 -1827,403 -2473,792 l -2,-4 c -393,239 -728,506 -1006,761 251,556 503,1130 754,1756 334,831 639,1684 875,2576 298,893 405,1799 511,2701 l 0,3 c 87,754 176,1507 374,2157 610,124 1361,35 2108,-52 1731,-203 3459,-407 4888,1226 l 595,679 -595,675 -726,824 -197,169 c -1659,1126 -3577,1529 -5490,1930 -831,173 -1665,349 -2464,589 l -857,671 c 923,421 1753,1055 2489,1777 870,854 1613,1837 2224,2731 216,246 413,509 610,771 390,519 791,1053 1249,1273 1653,262 2968,-745 4274,-1751 l 4,-4 c 1631,-1252 3260,-2506 5695,-2162 l 1140,161 -288,1114 c -532,2057 -1839,3578 -3119,5064 l -1,-1 c -378,439 -755,877 -1096,1312 1525,1257 3075,2137 4640,3024 1360,771 2734,1549 4146,2591 l 184,-105 c 1577,-1473 2678,-3315 3774,-5148 530,-887 1062,-1773 1641,-2624 l 542,-402 c 1138,-358 2291,-785 3450,-1214 3959,-1467 8011,-2969 12629,-2228 1505,238 2923,1016 4111,2058 1299,1141 2348,2620 2942,4060 l 72,273 c 9,87 229,-60 436,-36 l 76,9 9562,-5061 -337,-1209 1,0 c -1048,-3236 -3802,-4247 -6593,-5270 -2948,-1080 -5937,-2176 -7627,-5580 l -244,-493 280,-478 c 2214,-3782 8638,-7364 12400,-9434 -1337,-2989 -2381,-6195 -3115,-9545 -805,-3676 -1239,-7537 -1281,-11476 l 0,-24 c 63,-3770 153,-7034 581,-10204 432,-3196 1210,-6292 2647,-9690 l -1,0 c 2143,-5429 6269,-7825 10953,-9998 1086,-559 2198,-1060 3320,-1536 984,-506 1961,-989 2941,-1473 3010,-1487 6095,-3013 8764,-4886 983,-813 1784,-2228 2324,-3785 l 0,-4 c 617,-1774 885,-3703 715,-5142 l 8,-277 96,-615 2025,0 c 406,2602 104,5141 -842,7416 -939,2256 -2516,4259 -4665,5807 l -60,41 c -2543,1568 -5261,2670 -7977,3771 -846,343 -1691,685 -2528,1041 l -380,197 -52,28 -896,404 c -632,285 -1257,566 -1872,852 -1318,677 -2584,1436 -3760,2333 l -36,29 c -8294,5777 -8660,15663 -9004,24911 l -30,821 c -134,4615 490,9010 1646,13169 1162,4174 2863,8117 4877,11809 l 8,12 c 1076,2034 2316,3449 4058,4591 1806,1182 4184,2105 7476,3122 l 16,5 c 2416,793 3697,1186 4912,1302 1203,114 2493,-27 4895,-300 l 11615,-2817 0,-1 c 855,-255 1724,-521 2541,-811 810,-287 1592,-604 2298,-969 l 153,-64 8550,-2796 23,-8 c 1080,-323 2158,-314 3194,-100 991,203 1932,593 2792,1047 l 217,157 c 821,762 1434,1631 1863,2591 425,952 674,1984 770,3081 l 0,49 c 105,2684 -429,5157 -1295,7517 -842,2298 -2005,4491 -3192,6670 l -61,97 c -390,559 -766,1207 -1141,1854 -952,1639 -1914,3298 -3614,4463 l -32,20 c -3181,2013 -6773,2460 -10311,2054 -3449,-396 -6849,-1609 -9744,-2950 l -293,-204 c -1291,-1284 -2682,-2476 -4144,-3439 -1171,-771 -2397,-1402 -3666,-1822 l -3820,9905 c 556,862 1309,1664 2156,2381 1222,1038 2633,1908 3946,2565 l 1157,579 -828,994 c -1635,1961 -3760,2954 -5896,3951 -1537,719 -3086,1442 -4353,2534 l -76,57 c -930,660 -1546,1513 -1900,2457 l -1,0 c -351,940 -455,1988 -364,3047 l 10808,5685 204,42 c 3259,-387 5366,-3600 7289,-6528 525,-803 1043,-1590 1600,-2344 l 450,-345 c 884,-348 1798,-976 2711,-1606 2432,-1676 4896,-3372 8152,-1562 l 1028,571 -706,939 c -1361,1809 -2885,3445 -4400,5071 -2155,2313 -4299,4614 -5816,7262 -118,300 -255,584 -395,869 l 1,1 c -351,721 -738,1515 -365,2033 l 11792,4573 c 100,-124 199,-257 294,-383 l 37,-49 c 1081,-1893 1658,-4226 2229,-6556 1232,-5013 2463,-10015 8504,-11938 l 571,-183 436,408 c 1644,1536 3683,2500 5690,3448 3082,1456 6107,2886 8043,6292 233,110 482,180 738,222 275,43 575,57 888,50 l 9507,-8512 -167,-196 -5,0 c -244,-272 -521,-526 -824,-763 -2425,-1551 -5380,-1817 -8329,-2082 -3820,-342 -7641,-685 -10775,-3579 l -177,-214 c -348,-556 -563,-1186 -689,-1837 -118,-611 -159,-1238 -159,-1841 l 12,-148 c 520,-3542 2870,-6351 5217,-9160 1034,-1235 2071,-2476 2911,-3743 l 5,-4 c 580,-865 1065,-1806 1548,-2741 401,-777 801,-1553 1270,-2319 l -113,-92 560,-783 c 109,-152 193,-302 273,-448 l 0,-4 c 104,-188 210,-378 345,-575 1284,-2299 2102,-4833 2901,-7310 l 0,-3 461,-1419 c 188,-924 475,-1805 758,-2681 l 1,0 c 290,-894 581,-1788 741,-2697 l -74,-58 70,-569 c 124,-1025 104,-2142 -44,-3229 -147,-1073 -421,-2115 -807,-3007 l -20,-44 c -862,-2295 -2621,-4322 -4783,-5779 -2195,-1480 -4790,-2366 -7261,-2345 -3424,86 -6737,679 -10043,1269 l -4,0 c -3441,614 -6878,1227 -10561,1293 l -64,0 c -345,-16 -668,-21 -987,-23 -1030,-10 -2068,-22 -3021,-355 l -1225,-428 697,-1091 c 3698,-5786 9040,-8693 14364,-11588 2089,-1135 4181,-2275 6132,-3572 972,-801 1933,-1630 2863,-2515 929,-884 1829,-1830 2674,-2866 l 31,-36 c 1741,-1951 2905,-4088 3692,-6342 800,-2288 1225,-4713 1477,-7201 l 149,-1478 1325,658 c 1830,908 3692,1799 5589,2653 1892,852 3774,1651 5625,2361 4096,1431 8708,2998 13328,3562 4499,547 9027,139 13103,-2316 3049,-2338 5167,-5342 6292,-8705 1154,-3446 1269,-7284 290,-11175 l 0,-5 c -2095,-8513 -5417,-16410 -8743,-24319 l -4,-4 -1310,-3124 1,-1 -7195,-16971 -12,-28 c -1135,-2920 -2260,-5846 -3292,-8767 -1051,-2977 -2026,-5988 -2858,-9050 l -4,-20 c -820,-3240 -1681,-6911 -2023,-10598 -348,-3747 -153,-7484 1168,-10759 l 29,-61 c 636,-1326 1581,-2788 2834,-3783 1045,-831 2296,-1347 3749,-1241 l 112,16 c 2915,534 5360,2240 7390,4383 1970,2078 3550,4561 4791,6753 l 72,161 c 567,1572 1045,3359 1278,5170 201,1561 224,3147 -30,4638 l -44,169 c -272,770 -532,1545 -744,2331 -208,770 -368,1549 -450,2334 l -4,39 c -599,4208 223,7973 2019,11277 2076,3822 5459,7059 9461,9682 l 11955,7298 c 417,-3552 792,-7154 955,-10784 184,-4072 106,-8224 -468,-12452 l -9,-10 -221,-624 -20,12 -6,-9 22,-13 -24,-69 0,77 c -121,-216 -239,-435 -252,-785 -565,-1064 -1172,-2098 -1838,-3093 -714,-1070 -1504,-2103 -2387,-3088 l -32,-36 c -1975,-2418 -4709,-3485 -7412,-4540 l 0,-1 c -812,-316 -1625,-633 -2463,-1006 l -443,-197 -132,-458 c -477,-1659 -1065,-3269 -1739,-4834 -686,-1591 -1452,-3116 -2280,-4585 l -1,1 c -1064,-1863 -2297,-3760 -3760,-5552 -1449,-1776 -3130,-3455 -5099,-4904 l -16,-13 c -2093,-1606 -4686,-2737 -7322,-3035 -2308,-260 -4651,118 -6707,1376 l -4,0 c -2661,1612 -4545,3883 -5801,6476 -1480,3055 -2105,6565 -2118,9988 239,12253 4396,23010 8480,33586 l 454,1176 1,0 9105,21414 12,33 c 591,1532 1244,3158 1897,4787 1924,4804 3850,9610 5275,14723 l -1,0 c 796,2746 1217,5738 777,8541 -373,2376 -1358,4610 -3234,6445 -1386,1413 -3265,2103 -5244,2371 -1879,255 -3850,131 -5541,-101 l -28,-5 c -4476,-729 -8764,-2057 -12936,-3722 l -4,0 c -4159,-1662 -8185,-3654 -12168,-5730 l -567,-296 16,-640 c 82,-3348 -721,-6495 -1518,-9616 -195,-769 -392,-1539 -580,-2327 -424,-973 -780,-1836 -1144,-2716 l 0,-5 c -2386,-5774 -4879,-11800 -11009,-14721 l -89,-48 c -7159,-4322 -12517,-9986 -16451,-16486 -3890,-6427 -6383,-13674 -7850,-21250 l -1569,-2780 z m 105505,4665 2,11 4,-1 1,-14 -7,5 z m 2,11 2,16 1,-17 -4,1 z m -1784,980 -2,-5 0,6 2,-1 z M 200173,200170 c -1266,-2250 -3812,-3089 -6299,-2796 -1136,293 -2436,880 -2744,2179 -179,775 83,1608 463,2247 1207,1624 3062,2389 4966,2417 1481,4 2929,-450 3648,-1802 349,-679 257,-1547 -34,-2244 l 0,0 z m 32734,123480 -19317,10630 -798,-1454 19399,-10668 c 674,-309 1339,-849 1861,-1506 482,-608 836,-1308 953,-2002 262,-1408 240,-2873 -71,-4273 -189,-855 -487,-1626 -904,-2133 l -20651,11557 c -396,222 -901,83 -1126,-311 -226,-397 -89,-905 308,-1132 l 29453,-16869 c 523,-432 927,-976 1211,-1570 321,-671 493,-1409 514,-2126 7,-1106 -415,-2561 -1086,-3848 -506,-968 -1142,-1827 -1826,-2339 l -28712,19568 c -393,226 -884,162 -1144,-209 -262,-374 -166,-904 211,-1156 49,-35 30890,-21667 30889,-21669 781,-630 1347,-1436 1659,-2326 303,-869 369,-1828 160,-2788 -478,-1817 -2865,-4422 -4648,-5079 -3915,3256 -28487,23782 -28487,23598 -337,180 -766,106 -1022,-197 -293,-349 -249,-871 100,-1164 2178,-1834 26133,-22014 26532,-22493 828,-990 1311,-2176 1422,-3388 275,-3067 -1546,-5001 -3999,-6504 -1196,-731 -2459,-1269 -3394,-1335 l -24338,24143 -1169,-1174 24804,-24610 c 836,-371 3500,667 4959,1561 3018,1850 5119,4339 4783,8068 -54,583 -175,1160 -358,1718 4076,1121 8204,6290 6216,10190 -957,1876 -1820,2832 -3451,3938 887,678 1675,1724 2278,2881 791,1518 1287,3272 1273,4643 0,912 -282,1991 -675,2810 -390,815 -1078,1752 -1829,2267 l -7558,4329 c 588,735 985,1728 1220,2793 581,2622 441,5594 -1201,7663 -671,843 -1541,1547 -2442,1967 z m -55559,9658 12824,-5544 c -9232,-24444 -3610,-64791 29906,-63363 l 23905,-17002 c 729,-568 1709,316 1213,1098 l -24666,17585 c -32952,-1751 -38184,39854 -28133,62809 l -36102,15737 -36,13 c -6246,2482 -9856,-2346 -13136,-6733 l 2,-1 c -1024,-1367 -2012,-2690 -3009,-3657 l -289,-530 c -210,-1024 -568,-1994 -1007,-2923 -436,-919 -963,-1816 -1515,-2702 -514,-590 -973,-1289 -1436,-1994 -909,-1381 -1845,-2805 -3265,-3152 l -11404,9283 c -30,199 -45,400 -35,595 12,208 50,413 124,600 1030,1469 2786,2122 4490,2754 l 0,5 c 602,224 1203,448 1721,675 l -1,1 c 1205,495 2682,1115 3954,2007 l 4,0 c 1397,981 2519,2269 2777,4025 l 3,257 c -79,751 -512,1184 -1078,1408 -398,158 -859,180 -1247,140 l 1,-11 -283,-56 -6459,-2620 c -1255,-426 -2718,-833 -4145,-921 -1194,-75 -2375,74 -3384,621 l -1200,11105 103,85 4,0 c 168,130 355,245 533,331 1956,740 4168,915 6378,1086 l 5,0 c 1154,90 2312,182 3472,353 l 24,5 436,76 c 1352,230 2710,463 3925,1370 l 656,487 -330,750 c -1093,2487 -3209,2961 -5351,3440 -1444,323 -2907,652 -3729,1760 l -4,8 c -308,407 -135,1283 11,2027 l 0,8 43,225 5049,7419 154,162 8,8 c 209,225 464,499 491,492 l 64,-16 c 3175,-619 6160,-1596 8891,-3027 2720,-1425 5210,-3315 7403,-5765 l 574,-641 729,452 c 752,464 1408,1035 1961,1666 587,671 1067,1422 1431,2199 l 40,100 c 335,967 712,2011 1085,3053 969,2701 1943,5407 2720,8226 140,345 299,779 457,1219 675,1858 1424,3914 3271,4404 l 3420,-1869 49,-49 c 688,-699 1372,-1391 2303,-1836 l 136,-57 c 2018,-629 3842,-1748 5662,-2866 769,-471 1539,-944 2327,-1385 l 54,-240 c 120,-784 21,-1503 -253,-2137 -303,-705 -830,-1328 -1512,-1847 l -16,-15 c -984,-786 -2139,-1536 -3306,-2292 -3046,-1974 -6173,-4004 -7530,-7450 l -491,-1248 1339,-146 3315,-362 48,-5 16543,-988 c 3729,-240 7531,-495 11239,-908 3657,-407 7247,-975 10622,-1844 l 7938,-4184 524,-277 502,317 c 981,619 1982,1218 3002,1766 994,536 1999,1022 3010,1427 342,101 660,218 982,337 973,358 2022,743 2754,295 2077,-2020 3683,-4376 5291,-6736 1511,-2216 3030,-4443 4983,-6485 l 61,-56 450,-399 c 4306,-3815 8625,-7641 13975,-9628 2401,-2784 5484,-4169 8558,-5548 3406,-1529 6803,-3055 8924,-6578 l 130,-165 c 186,-201 335,-606 478,-999 l 1,0 c 394,-1078 775,-2114 2220,-2286 l 36570,-16148 72,-28 c 1347,-477 2701,-1389 3797,-2542 1035,-1088 1834,-2383 2176,-3710 l 12,-45 c 618,-2034 899,-5106 536,-7873 -239,-1819 -754,-3480 -1626,-4542 l -39584,17822 -853,-1869 8,-4 0,-1 76,-34 55967,-25862 c 1095,-741 1980,-1729 2632,-2835 l 0,-5 c 722,-1224 1171,-2598 1325,-3953 l 1,0 c 202,-2078 -344,-4862 -1387,-7377 -843,-2033 -1999,-3858 -3321,-4930 l -55400,31059 -1014,-1784 9,-6 -1,-2 229,-128 50740,-29216 -43,-276 8497,-4744 c 1590,-1074 2801,-2517 3542,-4161 737,-1634 1017,-3476 759,-5362 l -1,0 c -264,-1774 -1618,-4213 -3356,-6331 -1491,-1815 -3234,-3361 -4773,-4001 l -54864,38044 -177,96 -441,191 -996,-1780 50785,-35661 -36,-85 980,-881 c 1709,-1726 2803,-3868 3213,-6127 409,-2258 135,-4646 -885,-6863 l -8,-24 c -797,-1837 -3002,-4154 -5507,-6009 -2187,-1619 -4561,-2858 -6356,-3072 l -48085,40015 -824,685 -647,-849 c -126,-165 33,-544 425,-1093 l -265,-317 1798,-1495 c 6414,-6914 26163,-23484 27661,-24738 734,-1039 1143,-2360 1226,-3719 86,-1432 -194,-2896 -839,-4112 l -15,-36 c -503,-1041 -1869,-2186 -3447,-3136 -1604,-965 -3383,-1696 -4695,-1912 l -28453,28484 -1123,1125 -565,-1482 -1239,-3249 -322,-482 c -1037,-3304 -2364,-6459 -3937,-9472 -1581,-3025 -3419,-5924 -5479,-8701 l -449,-604 445,-610 c 1865,-2557 3441,-5216 4708,-7970 1255,-2728 2210,-5556 2839,-8478 146,-1025 320,-2282 203,-3377 l 0,-4 c -68,-647 -244,-1255 -605,-1728 l -789,900 -4,0 c -1213,1392 -2430,2788 -3924,3803 l -334,148 c -979,237 -1366,-252 -1526,-931 -36,-157 -43,-293 -48,-417 l 0,-5 1,-19 16,-406 1441,-6015 -2,0 c 363,-1895 710,-4001 741,-6060 l 0,-5 c 32,-1991 -227,-3967 -1044,-5700 -1229,-2198 -3131,-4104 -5373,-5324 -1586,-863 -3346,-1381 -5157,-1415 l 124,229 c 310,582 598,1187 853,1812 l 12,24 c 1381,3641 1498,7367 546,10823 -978,3553 -3083,6817 -6092,9411 l -84,64 c -279,195 -675,485 -1073,776 l -4,0 c -2453,1789 -5007,3651 -8504,3139 l -61,-13 c -968,-203 -1821,-712 -2543,-1363 -654,-589 -1211,-1310 -1652,-2024 -5557,435 -10285,-1455 -15012,-3342 l -4,0 c -3439,-1374 -6880,-2751 -10555,-3145 -1919,-117 -3618,387 -5090,1306 -1735,1080 -3179,2743 -4322,4652 l -581,972 -911,-674 c -1708,-1265 -3677,-2116 -5735,-2437 -1947,-303 -3984,-134 -5956,598 l -52,21 c -4023,1259 -6680,4216 -8445,7768 -1582,3186 -2463,6864 -2972,10270 1980,-464 4037,-786 6124,-1027 2598,-299 5240,-474 7828,-638 l 72,0 c 4929,39 9591,1270 13916,3399 4692,2309 8986,5675 12797,9710 l -1346,1535 c -28,-20 -9926,-7064 -14643,-8928 l 0,-4 c -2661,-1057 -4484,-1540 -6813,-1604 -1866,-51 -4120,161 -7409,556 l 252,168 -1,2 1525,1006 c 3446,1819 5872,3421 7870,5136 2013,1730 3568,3551 5274,5803 3395,4488 5330,9676 7263,14864 423,1136 844,2268 1358,3580 l 69,434 c -304,5028 -3769,8810 -7198,12550 -1217,1328 -2431,2654 -3454,3985 l -17,28 c -1271,1554 -2415,3155 -2999,4784 -551,1531 -617,3136 169,4832 l 356,766 -685,496 -2956,2145 c -2521,1991 -4225,4993 -5272,8315 -1290,4099 -1584,8669 -1195,12487 939,6456 2626,12524 5001,18226 2377,5708 5448,11055 9152,16064 l 141,261 1765,4824 61,269 175,2135 z"
       id="path30"
       style="fill:#000000;fill-rule:nonzero" /></g></svg>