<?xml version="1.0" encoding="UTF-8" standalone="no"?>
<!-- Created with Inkscape (http://www.inkscape.org/) -->

<svg
   xmlns:dc="http://purl.org/dc/elements/1.1/"
   xmlns:cc="http://creativecommons.org/ns#"
   xmlns:rdf="http://www.w3.org/1999/02/22-rdf-syntax-ns#"
   xmlns:svg="http://www.w3.org/2000/svg"
   xmlns="http://www.w3.org/2000/svg"
   version="1.0"
   width="280"
   height="200"
   viewBox="0 0 280.00001 199.99999"
   id="Ebene_1"
   xml:space="preserve"><metadata
     id="metadata135"><rdf:RDF><cc:Work
         rdf:about=""><dc:format>image/svg+xml</dc:format><dc:type
           rdf:resource="http://purl.org/dc/dcmitype/StillImage" /><dc:title></dc:title></cc:Work></rdf:RDF></metadata><defs
     id="defs133" /><path
     d="m 134.50377,-2.1615602e-5 c 21.05257,0 40.19596,11.276799615602 54.0875,29.441889615602 13.79935,18.0972 22.34761,43.08345 22.34761,70.569882 0,27.48757 -8.54826,52.42792 -22.34761,70.56911 -13.89154,18.14347 -33.03531,29.41913 -54.0875,29.41913 -21.14361,0 -40.28663,-11.27566 -54.15502,-29.41913 C 66.5255,152.43929 58,127.49894 58,100.01137 58,72.524938 66.5255,47.539068 80.34875,29.441488 94.21714,11.276778 113.36016,-2.1615602e-5 134.50377,-2.1615602e-5 l 0,0 z"
     id="path3"
     style="fill-rule:evenodd" /><path
     d="m 134.50377,1.5229984 c -20.59775,0 -39.30871,11.0036796 -52.83646,28.8057496 -13.6408,17.84646 -22.09877,42.49207 -22.09877,69.682622 0,27.14541 8.45759,51.78988 22.09877,69.63785 13.52775,17.80132 32.23833,28.85013 52.83646,28.85013 20.50785,0 39.21804,-11.04881 52.79056,-28.85013 13.61804,-17.84797 22.05325,-42.49282 22.05325,-69.63785 0,-27.190932 -8.43483,-51.836162 -22.05325,-69.683002 C 173.72181,12.526678 155.01162,1.5229984 134.50377,1.5229984 l 0,0 z"
     id="path5"
     style="fill:#eacc00;fill-rule:evenodd" /><path
     d="m 134.50377,7.0016984 c 13.45985,0 26.07797,5.1843396 36.76338,14.1642796 11.0033,9.25305 19.93848,22.55321 25.69067,38.28564 l 0.22685,0.72794 -0.70442,0.24998 c -8.20724,3.02404 -17.93788,5.45594 -28.66881,7.09314 -10.2985,1.5913 -21.5753,2.47818 -33.30691,2.47818 -11.79952,0 -23.07555,-0.88688 -33.39757,-2.47818 -10.73169,-1.63682 -20.46157,-4.0691 -28.62367,-7.09314 l -0.75032,-0.24998 0.27274,-0.72794 c 5.70668,-15.73243 14.64186,-29.03296 25.64553,-38.28564 10.70742,-8.97994 23.34829,-14.1642796 36.85253,-14.1642796 l 0,0 z"
     id="path7"
     style="fill-rule:evenodd" /><path
     d="m 198.70769,64.658718 0.22797,0.84136 c 1.63682,5.43318 2.90948,11.07196 3.75084,16.96033 0.81898,5.70592 1.25028,11.57154 1.25028,17.619622 0,4.02358 -0.20446,7.95763 -0.56786,11.84503 -0.3634,3.97844 -0.95478,7.86584 -1.68272,11.68686 l -0.20446,0.90888 -0.88688,-0.34216 c -8.34379,-3.1606 -18.52925,-5.72792 -30.01012,-7.5013 -11.07196,-1.68272 -23.30354,-2.61588 -36.08097,-2.61588 -12.8681,0 -25.09929,0.93354 -36.17125,2.61588 -11.43535,1.77376 -21.66633,4.3407 -30.01013,7.5013 l -0.88688,0.34216 -0.15894,-0.90888 c -0.75069,-3.82064 -1.31931,-7.70804 -1.68271,-11.68686 -0.40968,-3.8874 -0.59138,-7.82145 -0.59138,-11.84503 0,-6.047702 0.45519,-11.913322 1.25066,-17.619622 0.8406,-5.88837 2.09163,-11.52715 3.72845,-16.96033 l 0.27274,-0.84136 0.79584,0.34102 c 8.20724,3.20574 18.02854,5.77458 29.00945,7.57072 10.59476,1.68196 22.21257,2.61436 34.44377,2.61436 12.14054,0 23.78073,-0.9324 34.35273,-2.61436 10.98091,-1.79652 20.84849,-4.36536 29.03221,-7.57072 l 0.81936,-0.34102 0,0 z"
     id="path9"
     style="fill-rule:evenodd" /><path
     d="m 200.43592,129.20366 -0.18208,0.66004 c -4.72875,18.59677 -13.70945,34.55567 -25.34927,45.81122 -11.41335,10.95778 -25.39479,17.45878 -40.40042,17.45878 -15.0963,0 -29.07849,-6.50138 -40.44557,-17.45878 C 82.37287,164.41937 73.39255,148.46085 68.68655,129.8637 l -0.15932,-0.66004 0.6369,-0.22684 c 8.4117,-3.04718 18.52926,-5.50336 29.87395,-7.1857 10.91226,-1.63606 22.89385,-2.50056 35.46645,-2.50056 12.50393,0 24.50867,0.8645 35.37616,2.50056 11.34432,1.68272 21.5074,4.13852 29.87357,7.1857 l 0.68166,0.22684 0,0 z"
     id="path11"
     style="fill-rule:evenodd" /><path
     d="m 185.88511,62.157398 c 3.27402,-0.86412 6.36558,-1.84128 9.2762,-2.8871 -2.5017,-6.79725 -5.63878,-13.11807 -9.2762,-18.82475 v 21.71185 l 0,0 z"
     id="path13"
     style="fill:#172983;fill-rule:evenodd" /><path
     d="m 163.01288,66.658938 c 1.5693,-0.20446 3.04718,-0.45444 4.56982,-0.63614 2.31924,-0.38616 4.61647,-0.79584 6.88906,-1.22752 v -38.5819 c -1.38684,-1.36408 -2.79606,-2.63712 -4.2508,-3.86502 -2.2961,-1.9547 -4.70638,-3.7057 -7.20808,-5.297 v 49.60758 l 0,0 z"
     id="path15"
     style="fill:#172983;fill-rule:evenodd" /><path
     d="m 83.03139,40.445548 c -3.6378,5.70668 -6.7525,12.0275 -9.27582,18.82475 2.90986,1.04582 6.0018,2.02298 9.27582,2.8871 v -21.71185 l 0,0 z"
     id="path17"
     style="fill:#172983;fill-rule:evenodd" /><path
     d="m 105.90324,17.050978 c -2.47818,1.5913 -4.91084,3.3423 -7.20694,5.297 -1.43236,1.2279 -2.8651,2.50094 -4.20642,3.86502 v 38.5819 c 2.2282,0.43168 4.5243,0.84136 6.88906,1.22752 1.4775,0.1817 3.00052,0.43168 4.5243,0.63614 v -49.60758 l 0,0 z"
     id="path19"
     style="fill:#172983;fill-rule:evenodd" /><path
     d="m 174.47176,64.795278 c 3.97843,-0.77308 7.79831,-1.65958 11.41335,-2.63788 v -21.71185 c -3.38744,-5.297 -7.22932,-10.09404 -11.41335,-14.23217 v 38.5819 l 0,0 z"
     id="path21"
     style="fill:#ffed00;fill-rule:evenodd" /><path
     d="m 94.48988,26.213378 c -4.22841,4.13813 -8.04753,8.93517 -11.45849,14.23217 v 21.71185 c 3.61504,0.97792 7.43416,1.8648 11.45849,2.63788 v -38.5819 l 0,0 z"
     id="path23"
     style="fill:#ffed00;fill-rule:evenodd" /><path
     d="m 140.20969,60.202318 v 8.1621 c 3.86502,-0.091 7.66251,-0.2955 11.36783,-0.56862 v -22.50769 c -3.79636,4.97874 -7.59271,9.93548 -11.36783,14.91421 l 0,0 z"
     id="path25"
     style="fill:#172983;fill-rule:evenodd" /><path
     d="m 117.3386,45.151548 v 22.64425 c 3.72846,0.27274 7.52519,0.4772 11.41335,0.56862 v -8.27552 c -3.79674,-4.97874 -7.59348,-9.95823 -11.41335,-14.93735 l 0,0 z"
     id="path27"
     style="fill:#172983;fill-rule:evenodd" /><path
     d="m 149.44036,21.552898 0.34102,-0.4552 0.40892,0.34102 c 0.54548,0.4772 0.97792,0.95478 1.38684,1.52302 v -11.4805 c -3.68293,-1.27304 -7.45691,-2.1826796 -11.36783,-2.6371196 V 33.443448 c 3.06994,-3.97882 6.16263,-7.9345 9.23105,-11.89055 l 0,0 z"
     id="path29"
     style="fill:#e32219;fill-rule:evenodd" /><path
     d="m 117.47554,22.962118 c 0.3634,-0.56862 0.84135,-1.04582 1.36407,-1.52302 l 0.43169,-0.34102 0.34102,0.4552 c 3.04603,3.91016 6.09283,7.82031 9.13963,11.73123 V 8.8441184 c -3.88816,0.45444 -7.73041,1.3640796 -11.41335,2.6371196 v 11.6861 c 0.0455,-0.0683 0.091,-0.13694 0.13694,-0.20522 l 0,0 z"
     id="path31"
     style="fill:#008f2f;fill-rule:evenodd" /><path
     d="m 152.41888,24.439618 c 1.66034,0.25074 3.20612,0.65966 4.3885,1.36483 1.31818,0.81785 2.2282,1.95471 2.47818,3.7057 0.0224,0.1817 0.0679,0.27274 0.0899,0.31826 0.0235,0 0.069,0.0224 0.15894,0.0224 l 3.47848,-0.0224 v -12.77743 c -3.63742,-2.2961 -7.45692,-4.13738 -11.43536,-5.57012 v 11.48126 c 0.34102,0.47758 0.61452,0.95478 0.84136,1.4775 l 0,0 z"
     id="path33"
     style="fill:#ffed00;fill-rule:evenodd" /><path
     d="m 157.48866,42.650988 h -0.90888 v -0.0455 l -2.34162,0.0455 c -0.20446,0 -0.40892,0 -0.52234,0.0679 -0.13656,0.0235 -0.25112,0.13656 -0.34216,0.22798 -0.61338,0.79584 -1.20476,1.56854 -1.79576,2.34162 v 22.50769 c 3.91092,-0.27274 7.73042,-0.6589 11.43536,-1.13686 v -24.05347 l -5.5246,0.0451 0,0 z"
     id="path35"
     style="fill:#ffed00;fill-rule:evenodd" /><path
     d="m 109.65446,29.828408 c 0.0683,-0.0455 0.0907,-0.13656 0.0907,-0.31826 0.2735,-1.75099 1.18238,-2.88785 2.50094,-3.7057 1.18238,-0.70517 2.7054,-1.11409 4.38812,-1.36483 0.20446,-0.45444 0.43168,-0.88612 0.70442,-1.27228 v -11.6861 c -3.95568,1.43236 -7.79832,3.27402 -11.43536,5.57012 v 12.77743 l 3.61466,0.0224 c 0.0683,-3.8e-4 0.13656,-0.0228 0.13656,-0.0228 l 0,0 z"
     id="path37"
     style="fill:#ffed00;fill-rule:evenodd" /><path
     d="m 115.65664,42.946488 c -0.1138,-0.091 -0.20522,-0.20446 -0.29626,-0.22798 -0.1817,-0.0679 -0.34064,-0.0679 -0.59062,-0.0679 l -2.2961,-0.0455 v 0.0455 h -0.90964 l -5.66116,-0.0455 v 24.05347 c 3.7057,0.47796 7.5252,0.86412 11.43536,1.13686 v -22.64425 c -0.56786,-0.72718 -1.11372,-1.45436 -1.68158,-2.20468 l 0,0 z"
     id="path39"
     style="fill:#ffed00;fill-rule:evenodd" /><path
     d="m 134.52653,67.659618 c -1.90918,-2.5237 -3.84188,-5.04702 -5.77458,-7.57072 v 8.27552 c 1.88718,0.0455 3.8195,0.0683 5.75182,0.0683 1.90994,0 3.79674,-0.0228 5.70592,-0.0683 v -8.1621 c -1.90918,2.47818 -3.79636,4.97912 -5.68316,7.4573 l 0,0 z"
     id="path41"
     style="fill:#ffed00;fill-rule:evenodd" /><path
     d="m 134.52653,40.718288 c 1.88718,-2.43266 3.77398,-4.86532 5.68316,-7.27522 V 8.8437384 c -1.90918,-0.20446 -3.79636,-0.31826 -5.70592,-0.31826 -1.93194,0 -3.86464,0.1138 -5.75182,0.31826 V 33.284128 c 1.9327,2.47818 3.84188,4.95598 5.77458,7.43416 l 0,0 z"
     id="path43"
     style="fill:#ffffff;fill-rule:evenodd" /><path
     d="m 130.20669,44.196768 -0.20446,3.06956 c 3.00128,0 6.0477,0 9.09412,0 l -0.20446,-3.06956 c -2.91024,0 -5.77534,0 -8.6852,0 l 0,0 z"
     id="path45"
     style="fill:#eacc00;fill-rule:evenodd" /><path
     d="m 129.63883,52.381628 -0.20446,3.0688 c 3.40944,0 6.82002,0 10.23098,0 l -0.24998,-3.0688 c -3.2285,0 -6.50328,0 -9.77654,0 l 0,0 z"
     id="path47"
     style="fill:#eacc00;fill-rule:evenodd" /><polygon
     points="213.069,113.875 211.991,98.711 202.879,110.399 201.74,111.778 191.612,98.711 190.532,113.875 213.069,113.875 "
     transform="matrix(0.37933246,0,0,0.37933246,58,-2.1615602e-5)"
     id="polygon49"
     style="fill:#eacc00;fill-rule:evenodd" /><polygon
     points="189.633,127.301 189.034,135.391 214.446,135.391 214.446,135.391 213.907,127.301 "
     transform="matrix(0.37933246,0,0,0.37933246,58,-2.1615602e-5)"
     id="polygon51"
     style="fill:#eacc00;fill-rule:evenodd" /><polygon
     points="201.74,173.87 215.884,155.35 215.465,148.816 188.134,148.816 187.655,155.35 201.74,173.87 "
     transform="matrix(0.37933246,0,0,0.37933246,58,-2.1615602e-5)"
     id="polygon53"
     style="fill:#eacc00;fill-rule:evenodd" /><path
     d="m 111.3368,41.627928 c -0.40968,-1.0462 -0.54548,-2.18268 -0.68242,-3.3423 -0.27274,-2.18268 -1.13686,-4.38736 -3.88816,-5.1153 v 8.4576 h 4.57058 l 0,0 z"
     id="path55"
     style="fill:#eacc00;fill-rule:evenodd" /><path
     d="m 157.69312,41.627928 c 0.43244,-1.0462 0.569,-2.18268 0.70556,-3.3423 0.27236,-2.18268 1.13572,-4.38736 3.8874,-5.1153 v 8.4576 h -4.59296 l 0,0 z"
     id="path57"
     style="fill:#eacc00;fill-rule:evenodd" /><path
     d="m 118.31652,23.507978 c -0.34102,0.49996 -0.61414,1.00068 -0.84136,1.54578 l -0.091,0.31826 -0.31826,0.0235 c -0.84136,0.11342 -1.63644,0.27237 -2.38714,0.4772 -0.70442,0.20446 -1.36408,0.47721 -1.88718,0.77308 -1.09134,0.63614 -1.79576,1.59092 -2.00022,3.00052 -0.0683,0.40968 -0.20522,0.68242 -0.40968,0.88688 -0.22722,0.22798 -0.54548,0.2955 -0.86412,0.2955 h -2.7733 v 1.2279 c 3.7057,0.8406 4.61534,3.47772 4.95598,6.13798 0.13656,1.20514 0.27274,2.43266 0.77346,3.43334 h 2.20506 0.091 c 0.38616,0 0.68166,0.0451 0.95478,0.13618 0.2955,0.13656 0.56862,0.31826 0.77308,0.61414 l 11.70885,15.30075 1.50026,-21.50739 -10.57162,-13.57251 c -0.2955,0.27198 -0.56824,0.61376 -0.81859,0.90888 l 0,0 z m -6.27492,7.16179 0.0683,-0.52272 c 0.0224,-0.56862 0.36378,-1.1141 0.84136,-1.47788 0.43168,-0.36378 1.04582,-0.56862 1.72748,-0.56862 0.68166,0 1.25028,0.20446 1.72824,0.56862 0.45444,0.36378 0.77308,0.90964 0.84136,1.47788 l 0.0679,0.52272 h -5.27462 l 0,0 z"
     id="path59"
     style="fill:#eacc00;fill-rule:evenodd" /><path
     d="m 159.53478,30.828708 c -0.3634,0 -0.63576,-0.0679 -0.86336,-0.2955 -0.20446,-0.20446 -0.34102,-0.4772 -0.40892,-0.88688 -0.20446,-1.4096 -0.95478,-2.36438 -2.00022,-3.00052 -0.569,-0.2955 -1.18238,-0.56862 -1.88832,-0.77308 -0.7268,-0.20521 -1.54464,-0.36378 -2.38714,-0.4772 l -0.31788,-0.0235 -0.13542,-0.31826 c -0.18208,-0.5451 -0.45558,-1.04582 -0.79698,-1.54578 -0.24998,-0.29512 -0.49996,-0.6369 -0.81784,-0.90888 l -10.52647,13.57251 1.47788,21.50739 11.68571,-15.30075 c 0.20446,-0.2955 0.47796,-0.4772 0.77232,-0.61414 0.2735,-0.091 0.569,-0.13618 0.91002,-0.13618 h 0.13542 2.1603 c 0.52348,-1.00068 0.68242,-2.2282 0.81898,-3.43334 0.29436,-2.65988 1.25028,-5.297 4.93322,-6.13798 v -1.2279 h -2.7513 l 0,0 z m -7.79718,-0.15894 0.0444,-0.52272 c 0.069,-0.56862 0.41006,-1.1141 0.8645,-1.47788 0.45444,-0.36378 1.06896,-0.56862 1.7271,-0.56862 0.63804,0 1.25142,0.20446 1.72824,0.56862 0.47796,0.36378 0.77346,0.90964 0.84136,1.47788 l 0.069,0.52272 h -5.27462 l 0,0 z"
     id="path61"
     style="fill:#eacc00;fill-rule:evenodd" /><path
     d="m 83.03139,159.62309 v -33.17073 c -4.5243,1.11372 -8.77548,2.36476 -12.61812,3.70722 2.84234,10.91111 7.1618,20.89287 12.61812,29.46351 l 0,0 z"
     id="path63"
     style="fill:#172983;fill-rule:evenodd" /><path
     d="m 94.48988,124.08722 v 49.83632 c 0.20447,0.18208 0.43244,0.4313 0.68242,0.63576 3.36468,3.27402 6.9342,6.11674 10.73094,8.4815 v -60.61164 c -2.2282,0.27122 -4.4564,0.56672 -6.61556,0.88688 -1.6372,0.22684 -3.25164,0.49996 -4.7978,0.77118 l 0,0 z"
     id="path65"
     style="fill:#172983;fill-rule:evenodd" /><path
     d="m 185.88511,126.45198 v 33.17111 c 5.50222,-8.57064 9.82092,-18.5524 12.66364,-29.46351 -3.88854,-1.34246 -8.11696,-2.59388 -12.66364,-3.7076 l 0,0 z"
     id="path67"
     style="fill:#172983;fill-rule:evenodd" /><path
     d="m 163.01288,122.42916 v 60.61164 c 3.7975,-2.36476 7.41254,-5.20786 10.77646,-8.4815 0.20446,-0.20446 0.43244,-0.4533 0.68242,-0.63576 v -49.83632 c -1.5913,-0.27122 -3.20498,-0.54472 -4.84218,-0.77118 -2.1603,-0.32016 -4.3426,-0.61566 -6.6167,-0.88688 l 0,0 z"
     id="path69"
     style="fill:#172983;fill-rule:evenodd" /><path
     d="m 185.88511,126.45198 c -3.61504,-0.88688 -7.43492,-1.65806 -11.41335,-2.36476 v 49.83632 c 4.18403,-4.1609 8.02591,-8.95718 11.41335,-14.30045 v -33.17111 l 0,0 z"
     id="path71"
     style="fill:#ffed00;fill-rule:evenodd" /><path
     d="m 94.48988,124.08722 c -3.97843,0.7067 -7.79831,1.47788 -11.45849,2.36476 v 33.17111 c 3.41058,5.34327 7.2297,10.13955 11.45849,14.30045 v -49.83632 l 0,0 z"
     id="path73"
     style="fill:#ffed00;fill-rule:evenodd" /><path
     d="M 151.57752,133.84251 V 121.3822 c -3.70532,-0.24884 -7.50243,-0.40892 -11.36783,-0.49996 v 12.96027 h 11.36783 l 0,0 z"
     id="path75"
     style="fill:#172983;fill-rule:evenodd" /><path
     d="m 150.62274,170.2406 c -1.18238,1.13572 -2.93262,1.77376 -5.36565,1.77376 h -5.04778 v 19.25719 c 3.91092,-0.43358 7.6849,-1.36484 11.36783,-2.66064 v -19.62173 c -0.2496,0.45558 -0.56748,0.88688 -0.9544,1.25142 l 0,0 z"
     id="path77"
     style="fill:#172983;fill-rule:evenodd" /><path
     d="m 128.75195,133.84251 v -12.96027 c -3.88816,0.091 -7.68489,0.25112 -11.41335,0.49996 v 12.46031 h 11.41335 l 0,0 z"
     id="path79"
     style="fill:#172983;fill-rule:evenodd" /><path
     d="m 123.68141,172.01436 c -2.45504,0 -4.20565,-0.63804 -5.38765,-1.77376 -0.38692,-0.36454 -0.68242,-0.79584 -0.95516,-1.25142 v 19.62173 c 3.68294,1.2958 7.52519,2.22706 11.41335,2.66064 v -19.25719 h -5.07054 l 0,0 z"
     id="path81"
     style="fill:#172983;fill-rule:evenodd" /><path
     d="m 151.57752,121.3822 v 12.46031 h 0.91002 v 31.12385 c 0,1.5693 -0.2955,2.93186 -0.91002,4.02282 v 19.62173 c 3.97844,-1.38684 7.79832,-3.29602 11.43536,-5.57011 v -60.61164 c -3.70494,-0.43358 -7.52444,-0.77346 -11.43536,-1.04696 l 0,0 z"
     id="path83"
     style="fill:#ffed00;fill-rule:evenodd" /><path
     d="m 140.20969,133.84251 v -12.96027 c -1.90918,-0.0444 -3.79636,-0.069 -5.70592,-0.069 -1.93194,0 -3.86464,0.0243 -5.75182,0.069 v 12.96027 h 11.45774 l 0,0 z"
     id="path85"
     style="fill:#ffed00;fill-rule:evenodd" /><path
     d="m 139.34633,172.01436 c -0.97678,0 -1.77376,0.40892 -2.50056,1.0223 -0.77346,0.63804 -1.4096,1.52264 -1.97822,2.36476 l -0.36378,0.54472 -0.40892,-0.54472 c -0.59138,-0.8425 -1.22752,-1.7271 -1.95546,-2.36476 -0.72718,-0.61338 -1.56854,-1.0223 -2.54608,-1.0223 h -0.84136 v 19.25719 c 1.88718,0.20446 3.8195,0.33988 5.75182,0.33988 1.90994,0 3.79674,-0.13542 5.70592,-0.33988 v -19.25719 h -0.86336 l 0,0 z"
     id="path87"
     style="fill:#ffed00;fill-rule:evenodd" /><path
     d="m 116.42972,164.96636 v -31.12385 h 0.90888 V 121.3822 c -3.91016,0.2735 -7.72966,0.61338 -11.43536,1.04696 v 60.61164 c 3.63742,2.27371 7.47968,4.1829 11.43536,5.57011 v -19.62173 c -0.61338,-1.11334 -0.90888,-2.4539 -0.90888,-4.02282 l 0,0 z"
     id="path89"
     style="fill:#ffed00;fill-rule:evenodd" /><path
     d="m 151.53314,164.96636 c 0,1.95584 -0.45558,3.54752 -1.54692,4.59182 -1.0003,0.97792 -2.56846,1.52264 -4.72875,1.52264 h -5.91114 c -1.20476,0 -2.25058,0.49996 -3.09156,1.25142 -0.68242,0.569 -1.25028,1.27342 -1.751,1.97822 -0.5451,-0.70442 -1.11372,-1.40922 -1.773,-1.97822 -0.86412,-0.75108 -1.88718,-1.25142 -3.13746,-1.25142 h -5.9119 c -2.18192,0 -3.72807,-0.54472 -4.75151,-1.52264 -1.09134,-1.04468 -1.54578,-2.63598 -1.54578,-4.59182 v -30.21459 h 34.14864 v 30.21459 l 3.8e-4,0 z m -31.78389,-27.91887 v 26.60069 c 0,1.81814 0.22684,3.06729 1.0003,3.90978 0.75032,0.8645 2.02298,1.22676 4.09186,1.22676 h 5.52498 c 0.8186,0 1.52302,0.2735 2.13716,0.70442 0.6369,0.43358 1.20476,1.09134 1.65958,1.79804 l 0.34064,0.47568 0.2955,-0.47568 c 0.4772,-0.7067 0.99992,-1.36484 1.65958,-1.79804 l 0,0 c 0.59138,-0.4313 1.31818,-0.70442 2.1603,-0.70442 h 5.50108 c 2.04687,0 3.29715,-0.36226 4.06985,-1.22676 0.79584,-0.84249 1.0003,-2.09164 1.0003,-3.90978 v -26.60069 h -29.44113 l 0,0 z"
     id="path91"
     style="fill:#eacc00;fill-rule:evenodd" /><path
     d="m 148.44006,137.82095 h -27.96363 v 25.82723 c 0,1.61368 0.20446,2.70502 0.81785,3.38744 0.61413,0.65776 1.68309,0.97792 3.54675,0.97792 h 5.52498 c 0.97754,0 1.84128,0.29322 2.56884,0.84022 0.56862,0.40892 1.1141,0.93126 1.56854,1.54692 0.43168,-0.61566 0.9324,-1.138 1.50102,-1.54692 l 0,0 c 0.75032,-0.54662 1.5913,-0.84022 2.61512,-0.84022 h 5.50108 c 1.81927,0 2.8871,-0.32016 3.54751,-0.97792 0.59138,-0.68242 0.77232,-1.77376 0.77232,-3.38744 v -25.82723 l -3.8e-4,0 z"
     id="path93"
     style="fill:#172983;fill-rule:evenodd" /><path
     d="m 120.47643,154.50855 v 2.09164 h 9.8213 v 11.41335 h 0.0683 c 0.6589,0 1.22752,0.13542 1.773,0.36226 v -13.86725 h -11.66258 l 0,0 z"
     id="path95"
     style="fill:#eacc00;fill-rule:evenodd" /><polygon
     points="195.447,396.108 195.447,363.325 190.592,363.325 190.592,391.55 164.701,391.55 164.701,396.108 195.447,396.108 "
     transform="matrix(0.37933246,0,0,0.37933246,58,-2.1615602e-5)"
     id="polygon97"
     style="fill:#eacc00;fill-rule:evenodd" /><path
     d="m 135.70891,151.03007 v -13.20912 h -2.84158 v 13.20912 h -12.3909 v 2.70502 h 12.3909 v 15.07163 c 0.0451,0 0.0679,0.0467 0.0679,0.0467 0.56862,0.40892 1.1141,0.93126 1.56854,1.54692 0.31826,-0.47796 0.77308,-0.93354 1.20514,-1.32008 v -15.34513 h 12.73153 v -2.70502 h -12.73153 l 0,0 z"
     id="path99"
     style="fill:#eacc00;fill-rule:evenodd" /><path
     d="m 136.45885,154.50855 v 14.07171 c 0.6369,-0.36226 1.34132,-0.56672 2.1603,-0.56672 h 0.0679 v -11.41335 h 9.75301 v -2.09164 h -11.98121 l 0,0 z"
     id="path101"
     style="fill:#eacc00;fill-rule:evenodd" /><polygon
     points="212.708,391.55 212.708,363.325 206.834,363.325 206.834,396.108 238.419,396.108 238.419,391.55 212.708,391.55 "
     transform="matrix(0.37933246,0,0,0.37933246,58,-2.1615602e-5)"
     id="polygon103"
     style="fill:#eacc00;fill-rule:evenodd" /><path
     d="m 197.66187,66.749978 c -8.09382,3.06956 -17.80132,5.61564 -28.55539,7.32074 -10.68542,1.72824 -22.39427,2.68264 -34.60271,2.68264 -12.29948,0 -24.00795,-0.95478 -34.69337,-2.68264 -10.75369,-1.70548 -20.41681,-4.25156 -28.55539,-7.32074 -1.4775,5.09254 -2.63788,10.41268 -3.4102,15.91489 -0.79621,5.6384 -1.25066,11.4585 -1.25066,17.415162 0,3.9792 0.20522,7.86659 0.56862,11.70961 0.34102,3.6139 0.86412,7.11476 1.50026,10.59324 8.2759,-3.0229 18.2569,-5.50108 29.44227,-7.2058 11.14062,-1.70472 23.46247,-2.63826 36.39885,-2.63826 12.89085,0 25.16757,0.93354 36.30743,2.63826 11.18651,1.70472 21.21189,4.1829 29.44226,7.2058 0.68242,-3.47848 1.18238,-6.97896 1.52378,-10.59324 0.3634,-3.84302 0.54548,-7.73041 0.54548,-11.70961 0,-5.956662 -0.40892,-11.776762 -1.2279,-17.415162 -0.79621,-5.50221 -1.95508,-10.82197 -3.43333,-15.91489 l 0,0 z"
     id="path105"
     style="fill:#ffffff;fill-rule:evenodd" /><path
     d="m 167.65174,106.15049 c -0.70442,-1.52492 -3.524,-7.502442 -4.22842,-8.935562 -0.90888,0 -7.048,0 -9.18516,0 0,2.2282 0,11.231652 0,13.505372 2.06926,0.15781 4.11538,0.36227 6.20664,0.569 0,-1.45588 0,-7.18569 0,-8.63929 0.0679,0.13542 0.13656,0.27122 0.20446,0.4313 0.6589,1.31818 3.31954,7.11703 4.02396,8.68405 3.06956,0.43358 6.13798,0.8645 9.18515,1.34246 0,-2.63826 0,-13.231872 0,-15.868992 -2.06925,0 -4.11537,-0.0235 -6.20663,-0.0235 0,1.4775 0,7.479302 0,8.935182 l 0,0 z"
     id="path107"
     style="fill-rule:evenodd" /><path
     d="m 114.747,89.098728 c -2.47818,-0.0683 -4.93322,-0.13618 -7.38902,-0.20446 0,-0.59138 0,-1.18238 0,-1.77376 2.2282,0.0683 4.41088,0.15932 6.63908,0.22798 0,-1.27342 0,-2.56922 0,-3.8195 -2.2282,-0.13656 -4.41088,-0.27274 -6.63908,-0.40967 0,-0.52273 0,-1.1141 0,-1.63682 2.38714,0.15932 4.7519,0.31826 7.13904,0.45519 0,-1.25065 0,-2.52369 0,-3.77473 -4.8198,-0.43168 -9.61684,-0.93202 -14.41388,-1.59092 0,2.75054 0,13.61803 0,16.34657 4.91046,0 9.75302,0 14.66386,0 0,-0.6369 0,-3.18298 0,-3.81988 l 0,0 z"
     id="path109"
     style="fill-rule:evenodd" /><path
     d="m 157.82968,90.553468 c 0.9324,-0.0224 4.66086,-0.0907 5.57012,-0.0907 0.22798,0.79584 0.43244,1.63682 0.66004,2.45542 2.63712,0 5.31976,0 7.93374,-0.0235 -1.0003,-2.7733 -5.04664,-13.36805 -6.07008,-15.91413 -1.75024,0.20446 -3.50086,0.40892 -5.27424,0.56862 -1.50026,0.1817 -3.00166,0.31826 -4.47878,0.45444 -1.09134,2.56922 -5.29776,12.52745 -6.34358,14.96011 2.38714,0 4.8198,-0.0455 7.25246,-0.0455 0.22798,-0.7727 0.50034,-1.59168 0.75032,-2.36476 l 0,0 z m 2.81958,-9.6616 c 0,-0.0683 0.0455,-0.13655 0.0455,-0.20521 0.27236,1.00068 1.38684,4.97911 1.6592,5.97941 -0.54548,0.0455 -1.11372,0.0683 -1.70472,0.0683 -0.56786,0.0455 -1.13686,0.0679 -1.70472,0.0679 0.2955,-1.0003 1.40922,-4.95597 1.70472,-5.91038 l 0,0 z"
     id="path111"
     style="fill-rule:evenodd" /><path
     d="m 192.25107,97.305968 c -1.77376,-0.0224 -8.45722,-0.0224 -10.02652,-0.0679 -1.06782,2.909862 -5.38766,13.686692 -6.479,16.209252 2.50056,0.47796 4.97874,0.95592 7.45692,1.47788 0.24998,-0.86449 0.47682,-1.7491 0.75032,-2.63598 0.95478,0.18208 4.7519,0.95364 5.70668,1.1581 0.22798,1.06896 0.47682,2.1603 0.70442,3.22964 2.70616,0.74918 5.41118,1.5693 8.1162,2.43152 -1.04582,-3.90978 -5.20558,-18.41469 -6.22902,-21.802512 l 0,0 z m -5.3888,11.004812 c -0.61338,-0.091 -1.18124,-0.16007 -1.75024,-0.27349 0.24998,-1.138 0.569,-2.2961 0.8645,-3.4341 0.27236,-1.09134 0.56786,-2.20506 0.88574,-3.3184 0,-0.091 0.0235,-0.16008 0.0235,-0.2735 0.31788,1.25142 0.59138,2.50056 0.88688,3.75198 0.27236,1.25141 0.54548,2.54721 0.84136,3.81836 -0.6149,-0.0907 -1.18276,-0.15743 -1.75176,-0.27085 l 0,0 z"
     id="path113"
     style="fill-rule:evenodd" /><path
     d="m 85.73717,85.824708 c 1.1141,0.1138 2.2961,0.1817 3.45572,0.27274 0,1.15962 0,5.6384 0,6.79726 2.38714,0 4.79703,0 7.18417,0 0,-2.81882 0,-14.05009 0,-16.84615 -2.38714,-0.40968 -4.79703,-0.86412 -7.18417,-1.31932 0,1.0462 0,5.11606 0,6.13836 -1.15962,-0.1817 -2.34162,-0.34064 -3.45572,-0.49958 0,-1.0462 0,-5.32052 0,-6.36634 -2.43266,-0.52272 -4.8198,-1.13686 -7.2297,-1.77376 0,3.43334 0,17.18831 0,20.62127 2.4099,0 4.79704,0 7.2297,0 0,-1.1361 0,-5.84172 0,-7.02448 l 0,0 z"
     id="path115"
     style="fill-rule:evenodd" /><path
     d="m 149.2359,92.964128 c 0,-0.65966 0,-3.2285 0,-3.86502 -2.31923,0.0451 -4.61533,0.0683 -6.93343,0.11342 0,-1.773 0,-8.63892 0,-10.41267 -0.2735,0 -0.54548,0.0455 -0.81898,0.0455 -2.20506,0.0228 -4.43326,0.0683 -6.61556,0.091 0,2.34162 0,11.68609 0,14.02771 2.1823,0 11.77638,0 14.36797,0 l 0,0 z"
     id="path117"
     style="fill-rule:evenodd" /><path
     d="m 132.43489,92.964128 c 0,-0.65966 0,-3.11508 0,-3.75198 -2.34162,0 -4.66048,0 -6.97972,-0.0451 0,-1.72824 0,-8.63929 0,-10.39029 -1.63682,-0.0679 -3.27402,-0.13618 -4.91084,-0.20446 -0.8406,-0.0679 -1.68196,-0.11342 -2.52331,-0.15894 0,2.4099 0,12.11777 0,14.55043 0.84135,3.8e-4 10.45743,3.8e-4 14.41387,3.8e-4 l 0,0 z"
     id="path119"
     style="fill-rule:evenodd" /><path
     d="m 186.86227,92.077248 c 0.41006,-0.20446 0.79698,-0.47796 1.18238,-0.77308 1.59244,-1.2958 2.36476,-3.11508 2.36476,-5.29776 0,-1.63644 -0.45444,-2.88709 -1.38684,-3.66017 -0.47682,-0.43244 -1.2279,-0.77308 -2.1603,-1.04582 -0.88574,-0.22722 -1.88604,-0.43244 -3.11394,-0.56862 -0.34102,-0.0683 -0.79584,-0.0907 -1.34132,-0.15894 -1.5693,-0.13656 -2.34162,-0.54548 -2.34162,-1.18238 0,-0.38616 0.13542,-0.68166 0.40892,-0.95478 0.2735,-0.2735 0.6369,-0.43244 1.11372,-0.54548 0.54662,-0.0683 0.95592,-0.0228 1.2279,0.20446 0.24998,0.24998 0.43244,0.61414 0.45444,1.18238 1.18238,-0.20522 5.43432,-0.9324 6.3891,-1.11448 0,-0.13618 0,-0.29512 0,-0.43168 0,-1.79576 -0.68242,-3.04604 -2.00022,-3.66018 -0.24998,-0.13656 -0.52348,-0.22722 -0.79698,-0.2955 -1.2958,-0.2955 -2.93186,-0.20446 -5.00112,0.22722 -2.77406,0.61414 -4.8877,1.50026 -6.45662,2.7054 -1.54578,1.2279 -2.31924,2.61436 -2.31924,4.29708 0,1.13686 0.36454,2.02373 1.11448,2.7054 0.75032,0.65965 1.93156,1.18237 3.54638,1.50101 0.68242,0.1817 1.5913,0.31788 2.72816,0.52272 1.15924,0.15894 1.88718,0.34064 2.27372,0.49958 0.22684,0.069 0.38692,0.22798 0.49996,0.43244 0.13656,0.24998 0.20446,0.4772 0.20446,0.8186 0,0.40892 -0.18208,0.77308 -0.47796,1.02306 -0.29588,0.24998 -0.75032,0.38692 -1.27228,0.43168 -0.6589,0.0235 -1.09134,-0.11342 -1.38684,-0.38616 -0.31902,-0.2955 -0.47796,-0.72718 -0.47796,-1.34132 0,-0.0683 0,-0.091 0,-0.15932 -2.2961,0.15932 -4.59182,0.29626 -6.88905,0.38692 -0.0455,0.1138 -0.0455,0.1817 -0.0455,0.24998 0,0.091 0,0.22798 0,0.36378 0,1.6592 0.75107,2.90986 2.22819,3.79636 1.5014,0.8645 3.61504,1.34208 6.3891,1.34208 2.13678,-3.8e-4 3.8874,-0.36454 5.34214,-1.11448 l 0,0 z"
     id="path121"
     style="fill-rule:evenodd" /><path
     d="m 148.8725,98.715568 c -1.72823,-1.18238 -4.13738,-1.75024 -7.36587,-1.75024 0,0 0,0 -0.0235,0 -3.18298,0 -5.63802,0.56786 -7.36588,1.72748 -0.86412,0.56862 -1.52378,1.27304 -1.95546,2.092022 -0.43168,0.81784 -0.63614,1.7491 -0.63614,2.79606 0,1.04468 0.20446,1.93156 0.63614,2.75168 0.40968,0.79583 1.04582,1.47787 1.9327,2.04498 1.68196,1.16037 4.0691,1.72937 7.18418,1.82041 0.0679,0 0.13656,0 0.20446,0 3.25164,0.0668 5.66116,-0.36454 7.36588,-1.41149 0.86449,-0.54472 1.50139,-1.20476 1.95583,-2.06699 0.4313,-0.79584 0.6369,-1.75137 0.6369,-2.86509 0,-1.11372 -0.2056,-2.09164 -0.6369,-2.93376 -0.45406,-0.8406 -1.09096,-1.590922 -1.93232,-2.205062 l 0,0 z m -4.95635,7.434922 c -0.47796,0.49996 -1.2958,0.74918 -2.43266,0.70442 -1.15924,0 -1.9547,-0.2735 -2.43266,-0.72681 -0.47682,-0.47795 -0.70442,-1.29579 -0.70442,-2.50283 0,-1.2958 0.2735,-2.15802 0.70442,-2.63598 0.47796,-0.43244 1.27342,-0.68242 2.43266,-0.68242 0.0235,0 0.0235,0 0.0235,0 1.15924,0 1.97708,0.24998 2.43265,0.68242 0.47683,0.4313 0.68129,1.27342 0.68129,2.45618 -3.8e-4,1.31818 -0.22722,2.20506 -0.7048,2.70502 l 0,0 z"
     id="path123"
     style="fill-rule:evenodd" /><path
     d="m 100.60586,106.55941 c 2.25058,-0.20446 4.5243,-0.36454 6.7745,-0.54473 0,-1.18237 0,-2.38941 0,-3.61617 -2.25058,0.11342 -4.5243,0.20446 -6.7745,0.34216 0,-0.569 0,-1.11562 0,-1.66034 2.43266,-0.091 4.84256,-0.16008 7.27522,-0.22798 0,-1.204762 0,-2.432662 0,-3.637802 -4.91084,0 -9.82206,0 -14.71013,0.0235 0,2.7054 0,13.504232 0,16.209252 5.00225,-0.81784 9.98099,-1.54464 14.98287,-2.13602 0,-0.59138 0,-3.06955 0,-3.66055 -2.5237,0.22684 -5.07054,0.4313 -7.54796,0.70442 0,-0.61338 0,-1.18238 0,-1.79576 l 0,0 z"
     id="path125"
     style="fill-rule:evenodd" /><path
     d="m 125.63763,103.44547 c 1.2958,-0.22912 2.22782,-0.59138 2.90986,-1.11562 0.63614,-0.49996 0.97754,-1.13572 0.97754,-1.8868 0,-1.181622 -0.59138,-2.022982 -1.77376,-2.522942 -1.15924,-0.4772 -3.2505,-0.75032 -6.18388,-0.75032 -0.34064,0 -7.07037,0.0451 -10.07127,0.0451 0,2.29648 0,11.480502 0,13.778872 2.47818,-0.25112 4.9336,-0.45558 7.38864,-0.59138 0,-0.79584 0,-1.61595 0,-2.38714 0,-0.82011 0,-1.61595 0,-2.41141 0.1138,-0.0224 0.54548,-0.0668 0.72793,-0.0668 0.34102,-0.0243 0.6589,0.0444 0.93202,0.18019 1.38684,0.61565 1.72824,2.77406 2.13716,4.4564 2.50094,-0.11342 5.00226,-0.18208 7.5252,-0.24885 -0.81822,-3.02517 -1.45512,-6.07045 -4.56944,-6.47937 l 0,0 z m -4.18366,-1.18238 c -0.22722,0.11342 -0.52272,0.20446 -0.90964,0.27122 -0.34101,0.069 -0.70442,0.1157 -1.11409,0.1157 -0.13618,0.0224 -0.22722,0.0224 -0.29513,0.0224 -0.0683,-0.0224 -0.18207,-0.0224 -0.20521,-0.0224 0,-0.82012 0,-1.66034 0,-2.5017 0.091,0 0.22722,0 0.34102,0 0.13618,-0.0455 0.27274,-0.0455 0.49996,-0.0455 0.27274,0 0.54548,0 0.77308,0.0455 0.45519,0.0228 0.77345,0.0907 1.04582,0.2276 0.38691,0.1817 0.59137,0.4772 0.59137,0.88726 0,0.40854 -0.24998,0.7488 -0.72718,0.99992 l 0,0 z"
     id="path127"
     style="fill-rule:evenodd" /><path
     d="m 80.23533,109.81104 -3.8195,-12.572972 c -2.61436,0 -4.8198,0 -7.4114,0.0455 1.61406,6.479762 4.95598,13.458712 6.9562,20.142172 3.29678,-0.90888 5.16082,-1.31818 8.5035,-2.09164 l 6.97972,-18.096432 -7.36626,0.0455 -3.84226,12.527832 0,0 z"
     id="path129"
     style="fill-rule:evenodd" /></svg>