<?xml version="1.0" encoding="UTF-8" standalone="no"?>
<!-- Created with Inkscape (http://www.inkscape.org/) -->

<svg
   xmlns:dc="http://purl.org/dc/elements/1.1/"
   xmlns:cc="http://creativecommons.org/ns#"
   xmlns:rdf="http://www.w3.org/1999/02/22-rdf-syntax-ns#"
   xmlns:svg="http://www.w3.org/2000/svg"
   xmlns="http://www.w3.org/2000/svg"
   version="1.0"
   width="280"
   height="200"
   viewBox="0 0 279.99999 200"
   id="Ebene_1"
   xml:space="preserve"><metadata
     id="metadata35"><rdf:RDF><cc:Work
         rdf:about=""><dc:format>image/svg+xml</dc:format><dc:type
           rdf:resource="http://purl.org/dc/dcmitype/StillImage" /><dc:title></dc:title></cc:Work></rdf:RDF></metadata><defs
     id="defs33" /><path
     d="m 166.33374,19.83445 c 0,0 -19.63724,-0.11174 -20.76651,-0.11803 C 145.21239,18.6445 139.03949,0 139.03949,0 c 0,0 -6.17327,18.6445 -6.52811,19.71642 -1.12927,0.006 -20.76874,0.11803 -20.76874,0.11803 0,0 15.82132,11.63205 16.73118,12.30103 -0.34263,1.07599 -6.30426,19.7882 -6.30426,19.7882 0,0 15.9523,-11.45444 16.86956,-12.11306 0.91726,0.65862 16.86956,12.11306 16.86956,12.11306 0,0 -5.96126,-18.71258 -6.30426,-19.7882 0.91023,-0.66898 16.72932,-12.30103 16.72932,-12.30103 z"
     id="path3"
     style="fill:#ae9962" /><circle
     cx="196.86301"
     cy="343.66101"
     r="196.86301"
     transform="matrix(0.37001132,0,0,0.37001132,65.999989,0)"
     id="circle5"
     style="fill:#ae9962" /><circle
     cx="196.86301"
     cy="343.66101"
     r="180.77901"
     transform="matrix(0.37001132,0,0,0.37001132,65.999989,0)"
     id="circle7"
     style="fill:#0055a0" /><circle
     cx="196.86301"
     cy="343.66101"
     r="158.702"
     transform="matrix(0.37001132,0,0,0.37001132,65.999989,0)"
     id="circle9"
     style="fill:#ae9962" /><circle
     cx="196.86301"
     cy="343.66101"
     r="151.05901"
     transform="matrix(0.37001132,0,0,0.37001132,65.999989,0)"
     id="circle11" /><circle
     cx="196.86301"
     cy="343.66101"
     r="130.244"
     transform="matrix(0.37001132,0,0,0.37001132,65.999989,0)"
     id="circle13"
     style="fill:#ae9962" /><path
     d="m 141.83677,127.01748 c 0.0192,17.26103 0.12581,38.01978 0.51876,40.44372 0.68896,4.21998 2.01064,5.59457 2.01064,5.59457 h -11.79004 c 0,0 1.31872,-1.37459 2.0062,-5.59457 0.39481,-2.42394 0.50174,-23.18232 0.51876,-40.44372 h 6.73568 z"
     id="path15"
     style="fill:#ffffff" /><path
     d="m 96.273209,128.10199 c 0,-23.51274 19.057431,-42.57647 42.566841,-42.57647 17.90485,0 33.22702,11.05779 39.51462,26.71519 h -6.18289 c -5.92906,-12.44866 -18.626,-21.05105 -33.33173,-21.05105 -20.38503,0 -36.90678,16.52507 -36.90678,36.91455 0,18.51055 13.62345,33.84086 31.3851,36.50642 v 0.68193 c -0.0277,0.31266 -0.0555,0.55798 -0.081,0.733 -0.26049,1.59215 -0.65122,2.97378 -1.08006,4.13413 -20.33323,-3.208 -35.884071,-20.81498 -35.884071,-42.0577 m 47.429161,37.92357 c -0.0451,-0.27344 -0.0814,-0.71524 -0.12617,-1.30725 15.64075,-2.00214 28.21817,-13.79736 31.39398,-29.04404 h 5.76662 c -3.22723,17.97441 -17.72317,32.03336 -35.91847,34.58902 -0.44402,-1.18033 -0.84918,-2.59599 -1.11596,-4.23773"
     id="path17"
     style="fill:#ffffff" /><path
     d="m 121.09135,98.03894 h 12.77871 v 6.58768 h -4.88341 v 14.78565 h 17.09785 v 6.19584 h -15.25593 l -8.56724,-14.70425 v -10.51905 c -3.7e-4,-1.22844 -1.16998,-2.34587 -1.16998,-2.34587 m 22.02825,0 h 12.25737 v 8.37076 c 0,0 -1.45341,-1.78308 -3.51992,-1.78308 h -8.73782 v -6.58768 z"
     id="path19"
     style="fill:#ffffff" /><path
     d="m 117.89297,119.23059 c 0,0 15.54566,24.41631 15.54566,24.92545 v -10.17939 c 0,0 -14.53146,-24.27311 -15.18268,-25.57814 -0.52504,-1.04713 -1.93072,-4.98849 -2.47019,-6.51775 -2.05319,1.77976 -3.894,3.79706 -5.48246,6.00825 0.37075,0.61718 1.00643,1.75644 1.10855,2.4676 0.14505,1.0142 -1.83192,29.24903 -2.09833,30.50596 -0.29675,1.38865 -0.97905,2.84279 -1.39235,3.64387 1.89446,3.52398 4.37945,6.68351 7.324,9.34537 0.0655,-1.16183 0.20351,-3.65756 0.25457,-4.98368 0.0703,-1.76791 2.39323,-29.63754 2.39323,-29.63754 z"
     id="path21"
     style="fill:#ffffff" /><path
     d="m 127.78337,138.54407 -5.82767,-9.64286 c 0,0 -0.36742,22.31205 -0.51025,23.98006 -0.11803,1.31798 -1.17589,3.57616 -1.61806,4.47196 2.87943,1.84303 6.04932,3.2709 9.42493,4.20333 -0.42366,-1.13335 -1.19884,-3.32566 -1.25323,-4.3221 -0.0725,-1.37867 -0.21572,-18.69039 -0.21572,-18.69039 z"
     id="path23"
     style="fill:#ffffff" /><path
     d="m 168.89089,144.87312 c -0.34707,-0.63679 -1.23547,-2.36918 -1.58624,-4.00981 -0.26714,-1.25693 -2.24152,-29.49176 -2.10092,-30.50596 0.12358,-0.85102 1.01013,-2.3122 1.29282,-2.76102 -1.61806,-2.2049 -3.48995,-4.2111 -5.57311,-5.97605 -0.44956,1.27727 -2.00694,5.66561 -2.56122,6.77897 -0.65344,1.30503 -15.17823,25.57814 -15.17823,25.57814 v 10.17902 c 0,-0.50914 15.54121,-24.92545 15.54121,-24.92545 0,0 2.32219,27.86926 2.39101,29.63791 0.0607,1.47561 0.22349,4.39907 0.27603,5.32113 3.00524,-2.64003 5.54943,-5.79067 7.49865,-9.31688 z"
     id="path25"
     style="fill:#ffffff" /><path
     d="m 141.82197,92.4266 -0.007,25.70284 h -6.77638 V 92.48766 c 1.22732,-0.12581 2.46945,-0.19019 3.72416,-0.19019 1.03307,0 2.05134,0.0422 3.05888,0.12913"
     id="path27"
     style="fill:#ffffff" /><path
     d="m 145.85177,80.93553 c 0,0 -1.99547,1.8619 -3.2635,3.52473 -1.24657,-0.10471 -2.50979,-0.1591 -3.78818,-0.1591 -1.47079,0 -2.92198,0.071 -4.34985,0.20905 -1.26988,-1.69354 -3.30383,-3.57505 -3.30383,-3.57505 h 14.70536 z"
     id="path29"
     style="fill:#ffffff" /></svg>