<?xml version="1.0" encoding="UTF-8" standalone="no"?>
<!-- Created with Inkscape (http://www.inkscape.org/) -->

<svg
   xmlns:dc="http://purl.org/dc/elements/1.1/"
   xmlns:cc="http://creativecommons.org/ns#"
   xmlns:rdf="http://www.w3.org/1999/02/22-rdf-syntax-ns#"
   xmlns:svg="http://www.w3.org/2000/svg"
   xmlns="http://www.w3.org/2000/svg"
   version="1.0"
   width="280"
   height="200"
   id="svg1366">
  <metadata
     id="metadata1371">
    <rdf:RDF>
      <cc:Work
         rdf:about="">
        <dc:format>image/svg+xml</dc:format>
        <dc:type
           rdf:resource="http://purl.org/dc/dcmitype/StillImage" />
        <dc:title></dc:title>
        <dc:creator>
          <cc:Agent>
            <dc:title>Angelo Romano</dc:title>
          </cc:Agent>
        </dc:creator>
        <dc:rights>
          <cc:Agent>
            <dc:title />
          </cc:Agent>
        </dc:rights>
        <cc:license
           rdf:resource="http://web.resource.org/cc/PublicDomain" />
      </cc:Work>
      <cc:License
         rdf:about="http://web.resource.org/cc/PublicDomain">
        <cc:permits
           rdf:resource="http://web.resource.org/cc/Reproduction" />
        <cc:permits
           rdf:resource="http://web.resource.org/cc/Distribution" />
        <cc:permits
           rdf:resource="http://web.resource.org/cc/DerivativeWorks" />
      </cc:License>
    </rdf:RDF>
  </metadata>
  <defs
     id="defs1369" />
  <g
     transform="translate(-235.47589,-325.00006)"
     id="layer1" />
  <g
     transform="translate(-235.47589,-325.00006)"
     id="layer2">
    <g
       transform="matrix(0.33388992,0,0,0.33388992,76.232274,273.79391)"
       id="g7655">
      <path
         d="m 898.42711,741.98324 c 63.8155,-26.04038 117.61969,-60.84415 151.96869,-98.30249 24.915,-27.17038 39.5326,-55.2991 45.2262,-87.02919 1.5643,-8.71719 1.7091,-22.89963 1.7132,-167.69889 l 0,-158.17641 -211.47927,0 -211.47929,0 -0.28439,148.16523 c -0.28744,149.75478 0.0639,169.16296 3.34362,184.70598 14.54224,68.91735 82.85229,131.4052 194.42144,177.85043 6.87432,2.86168 12.97923,5.23706 13.56647,5.2785 0.58722,0.0414 6.43666,-2.1155 12.99873,-4.79316 z"
         id="path5816"
         style="fill:#ffffff;fill-opacity:1" />
      <path
         d="m 875.13691,748.32838 c -5.49947,-2.18963 -11.12391,-4.46451 -12.49878,-5.05529 -1.37487,-0.5908 -3.84962,-1.61597 -5.49946,-2.27818 -3.67337,-1.47438 -48.83039,-23.9341 -52.97893,-26.35008 -18.52949,-10.79107 -47.78757,-30.61488 -57.171,-38.73623 -0.63833,-0.55249 -3.09643,-2.57964 -5.46243,-4.50479 -5.52679,-4.49701 -25.85346,-25.00171 -31.229,-31.50252 -2.27417,-2.75022 -4.58683,-5.5078 -5.13925,-6.12796 -0.55242,-0.62016 -1.67933,-2.13792 -2.50425,-3.3728 -0.82492,-1.23488 -2.0623,-2.83301 -2.74973,-3.55139 -0.68743,-0.71838 -1.24988,-1.75083 -1.24988,-2.29432 0,-0.54349 -0.37308,-1.13818 -0.82907,-1.32154 -2.52421,-1.01496 -16.0376,-26.32305 -19.66892,-36.83627 -0.095,-0.27503 -0.44678,-1.1751 -0.78174,-2.00016 -1.00619,-2.47838 -4.47264,-15.00097 -6.36728,-23.00184 -1.66516,-7.03178 -1.79544,-20.01837 -2.08446,-207.76662 l -0.3083,-200.26602 217.00009,0 217.00008,0 0,194.79181 c 0,129.06963 -0.3517,197.65107 -1.0424,203.26626 -0.9059,7.3645 -4.9721,25.56365 -6.6974,29.97617 -0.3227,0.82506 -0.6817,1.83764 -0.798,2.25018 -0.1162,0.41253 -0.3238,0.97507 -0.4613,1.2501 -0.1375,0.27502 -0.3222,0.83756 -0.4104,1.2501 -0.088,0.41253 -0.7228,1.76264 -1.41,3.00024 -0.6873,1.2376 -1.0274,2.25018 -0.7558,2.25018 1.3718,0 -13.1834,25.95992 -18.7923,33.51695 -1.721,2.31873 -4.029,5.47606 -5.1289,7.01628 -1.0999,1.54022 -2.4524,3.28865 -3.0055,3.8854 -0.5531,0.59676 -4.7172,5.43003 -9.2535,10.74062 -4.5362,5.31059 -11.058,12.05202 -14.4928,14.98097 -3.4347,2.92893 -7.1847,6.23452 -8.3333,7.34573 -1.1486,1.11122 -3.6233,3.22794 -5.4995,4.70382 -1.8761,1.47588 -6.3358,5.00994 -9.9105,7.85347 -11.3894,9.05995 -32.87491,23.24511 -52.99477,34.98817 -4.19302,2.44727 -44.97692,22.66005 -47.99529,23.78678 -1.92482,0.71852 -4.84953,1.91036 -6.49937,2.64855 -5.81343,2.60112 -23.00392,9.54949 -23.49769,9.49774 -0.27498,-0.0288 -4.99951,-1.84389 -10.49897,-4.03351 z m 23.06553,-6.78207 c 63.81551,-26.01342 117.61966,-60.78115 151.96876,-98.20073 24.915,-27.14224 39.5326,-55.24184 45.2262,-86.93908 1.5642,-8.70816 1.7091,-22.87592 1.7132,-167.52529 l 0,-158.01264 -211.47932,0 -211.47928,0 -0.28439,148.01184 c -0.28744,149.59973 0.0639,168.98782 3.34362,184.51476 14.54224,68.846 82.85228,131.26915 194.42142,177.66631 6.87432,2.85876 12.97924,5.23163 13.56647,5.27303 0.58723,0.0414 6.43666,-2.11328 12.99872,-4.7882 z m -28.565,-20.539 c -21.2482,-9.23839 -34.00162,-15.35316 -33.96016,-16.28258 0.0201,-0.45007 2.05467,-2.09757 4.5213,-3.66108 2.46664,-1.56352 7.51221,-5.61384 11.21239,-9.00072 9.83247,-8.99994 46.78705,-47.5857 63.8447,-66.6628 27.72543,-31.00782 29.59418,-32.93062 34.14825,-35.13559 4.88606,-2.36573 14.53062,-2.96112 16.47437,-1.01703 0.84791,0.84806 0.5576,1.9184 -1.14509,4.2218 -1.25453,1.69716 -2.03259,3.33416 -1.72901,3.63779 0.30358,0.30364 3.47288,-0.18178 7.04289,-1.07869 7.48156,-1.87964 14.81936,-2.10775 17.7275,-0.5511 1.9225,1.02909 1.93559,1.16968 0.27924,3.00024 -1.65773,1.8321 -1.64733,1.92058 0.22588,1.92058 1.08001,0 2.83709,-0.66075 3.9046,-1.46832 2.72424,-2.06088 7.47856,-1.87783 14.7212,0.56677 7.7673,2.62165 12.2559,2.19313 21.4564,-2.04842 3.8468,-1.77341 8.0662,-3.07275 9.3765,-2.88743 2.2827,0.32286 2.3845,0.67832 2.4336,8.49567 0.057,9.05181 0.8906,10.79234 6.2414,13.02936 l 3.2929,1.37669 -6.1741,7.46539 c -7.6765,9.28202 -24.6868,25.76884 -35.9168,34.81127 -19.60842,15.78892 -52.04204,35.79305 -80.48359,49.64 -14.41068,7.01594 -40.03347,18.04844 -41.75957,17.98057 -0.67992,-0.0267 -7.76058,-2.88529 -15.7348,-6.35237 z m -61.49397,-30.85826 -4.99951,-3.244 6.3978,-0.3016 c 7.69073,-0.36254 9.05885,0.59976 5.91769,4.16235 l -2.31647,2.62725 -4.99951,-3.244 z m -32.24364,-20.99542 c -1.77008,-1.2376 -3.2261,-2.58771 -3.2356,-3.00024 -0.01,-0.41254 2.45748,-0.75006 5.48218,-0.75006 4.43013,0 5.49946,0.31886 5.49946,1.63989 0,1.44164 -2.59562,4.24104 -4.01368,4.32878 -0.28273,0.0175 -1.96228,-0.98077 -3.73236,-2.21837 z m -28.10096,-23.09763 -3.34564,-3.45243 3.0393,-0.66766 c 3.00207,-0.65948 7.15618,0.72797 7.15618,2.39013 0,0.46976 -0.78845,1.82797 -1.7521,3.01825 l -1.75211,2.16415 -3.34563,-3.45244 z m -17.7484,-21.24006 c -1.66938,0.49607 -2.86021,-0.35121 -5.80256,-4.1285 -2.03615,-2.61396 -3.34073,-4.86067 -2.89905,-4.99269 m 327.67964,-4.86033 c -1.4073,-3.36855 -1.4002,-4.16485 0.077,-8.68067 2.2738,-6.95286 5.8851,-12.33893 12.6642,-18.88778 5.7109,-5.51706 9.863,-7.85018 9.8341,-5.52604 -0.047,3.80534 -16.7971,34.1895 -19.9074,36.11214 -0.6786,0.41947 -1.7271,-0.7667 -2.6674,-3.01765 z m -327.52231,4.99152 c -0.62877,-0.003 -16.14135,-27.44898 -14.661,-28.68384 1.48033,-1.23487 18.03795,-16.19633 36.7947,-33.24769 18.75675,-17.05137 34.49998,-31.14202 34.98495,-31.31257 1.00639,-0.3539 51.02332,32.65066 51.00368,33.65567 -0.007,0.36142 -15.86802,4.81927 -35.24655,9.90633 -19.37853,5.08705 -3.45257,34.34506 -17.94732,38.19622 -14.49475,3.85115 -31.85602,-13.69818 -71.13778,-14.94778 m 323.32503,-17.58323 c -16.792,-7.93667 -40.05489,-20.87783 -39.77132,-22.12476 0.3825,-1.68188 47.05192,-53.43697 53.50612,-59.33679 7.8632,-7.18781 15.2167,-10.45901 23.5115,-10.45901 l 6.7494,0 0,-3.00024 c -0.01,-5.38139 -3.2194,-9.13307 -9.3465,-10.9146 -3.4058,-0.99025 -8.2236,-3.66705 -12.6858,-7.04818 -9.0062,-6.82434 -11.76,-7.29409 -26.9591,-4.59874 -6.3244,1.12154 -15.6499,2.04383 -20.7233,2.04953 l -9.22431,0.0104 0.99492,2.61731 0.99492,2.61731 -10.09034,-0.40536 -10.09034,-0.40535 0.61681,3.28848 0.61682,3.28849 -9.64845,0 -9.64843,0 -5.64538,-5.7883 c -11.79173,-12.09025 -42.40271,-57.17325 -40.56071,-59.73669 0.50527,-0.70316 38.48999,-35.38927 84.41049,-77.08021 l 83.4918,-75.80173 0.2749,20.44636 c 0.1511,11.2455 0.1248,79.40108 -0.058,151.45685 -0.3545,139.37424 -0.1799,133.99463 -4.8133,148.25649 -0.9307,2.86484 -1.2929,3.11709 -3.0926,2.15378 -1.1965,-0.64048 -3.8495,-0.81948 -6.4236,-0.4334 -5.7765,0.86639 -5.9598,-1.39477 -0.4235,-5.22479 4.6539,-3.21965 4.8612,-3.81725 1.6072,-4.6341 -3.4796,-0.87347 -6.5,0.60565 -11.0683,5.42032 -5.7905,6.10271 -11.4171,9.9813 -14.3987,9.92541 -1.4298,-0.0268 -6.8742,-2.06908 -12.0987,-4.53843 z"
         id="path1449"
         style="fill:#000000" />
      <path
         d="m 837.42712,156.92068 c 0.80529,1.11176 2.43579,4.25005 2.02831,4.8389 -0.008,0.0116 10e-4,0.0504 0,0.0625 -8.5e-4,0.006 10e-4,0.0263 0,0.0313 -0.003,0.008 -0.0269,0.0256 -0.0312,0.0313 -10e-4,0.001 0.002,0.0304 0,0.0313 -0.004,0.001 -0.0267,-7.7e-4 -0.0313,0 -0.0105,5.5e-4 -0.0494,0.001 -0.0625,0 -0.0216,-0.004 -0.0655,-0.0339 -0.0937,-0.0313 -0.67393,0.0639 -4.74456,-2.60899 -5.99284,-3.99531 -1.09192,-1.21267 3.48278,-1.93565 4.18326,-0.9686 z m 241.34858,8.68296 c 2.8924,-0.2232 5.8342,0.99114 8.1555,3.7503 3.6275,4.31179 5.193,11.95601 5.0932,25.03325 -0.1174,15.38841 -1.7086,22.49185 -5.9369,26.72089 -2.6164,2.61689 -4.0969,3.28151 -7.2805,3.28151 -3.3017,0 -4.5041,-0.59543 -6.9993,-3.43778 -4.2708,-4.86502 -5.4881,-11.92883 -4.9995,-29.00232 0.3323,-11.61557 0.7851,-14.89073 2.531,-18.7515 2.1067,-4.65899 5.7178,-7.30738 9.4365,-7.59435 z m -350.37188,0.37503 c 0.11793,-0.017 0.24791,-0.007 0.34371,0 0.0563,0.006 0.13765,0.0165 0.18748,0.0313 0.0733,0.0244 0.15683,0.0804 0.21873,0.12501 0.0609,0.0468 0.13425,0.12019 0.18748,0.18751 0.0234,0.0309 0.0713,0.09 0.0937,0.12501 0.17231,0.27948 0.33361,0.68734 0.53119,1.21885 0.60548,1.62878 0.37328,2.47867 -0.90616,3.21901 -0.95054,0.55004 -3.1149,2.18875 -4.81203,3.65654 -4.71309,4.07626 -4.237,9.37732 1.74983,19.43906 7.16863,12.04793 7.4231,18.29639 1.03115,24.68947 -4.58447,4.58529 -9.18789,6.36589 -10.06151,3.90656 -0.33487,-0.94264 -0.77054,-2.00232 -0.96866,-2.37519 -0.003,-0.006 -0.029,-0.025 -0.0312,-0.0313 -6.7e-4,-0.003 4.5e-4,-0.0278 0,-0.0313 -3e-5,-0.004 -1.9e-4,-0.0275 0,-0.0313 6.1e-4,-0.004 -8.2e-4,-0.0272 0,-0.0313 10e-4,-0.004 -10e-4,-0.0269 0,-0.0313 0.16392,-0.50299 1.68715,-1.66109 3.62464,-2.75022 7.59582,-4.26985 7.74531,-10.22545 0.56244,-21.3142 -5.09305,-7.86253 -6.23329,-12.19339 -4.62454,-17.56391 1.57407,-5.25475 4.75461,-8.98736 9.53031,-11.12589 1.71462,-0.76779 2.70654,-1.22097 3.34343,-1.3126 z m 138.23645,0.0937 6.03066,0.65631 c 13.38592,1.39936 15.46723,5.26654 15.46723,28.65854 0,13.77982 -0.23401,15.99813 -2.15604,20.15786 -1.35712,2.93713 -3.31153,5.26435 -5.21824,6.2505 -1.69061,0.8744 -5.47335,1.59388 -8.56166,1.59388 l -5.56195,0 0,-28.65854 0,-28.65855 z m -181.98217,0.15627 0,25.002 c 0,21.3911 0.21774,25.21977 1.56235,26.56462 0.8642,0.86436 2.3814,1.59388 3.37467,1.59388 4.14465,0 4.51847,-2.1479 4.90577,-28.1585 l 0.37496,-24.84574 2.37477,0 2.40601,0 0,25.03325 c 0,27.28426 -0.49644,30.05253 -5.62444,32.00256 -4.69061,1.78368 -9.30152,1.15098 -11.87384,-1.62513 -3.20237,-3.45603 -3.68172,-8.40461 -3.31218,-33.90896 l 0.31247,-21.00168 2.74973,-0.34378 2.74973,-0.31252 z m 92.99089,0 0,28.56478 0,28.59604 -3.03095,0 -2.99971,0 0.24998,-28.25226 0.28122,-28.25226 2.74973,-0.34378 2.74973,-0.31252 z m -16.15467,0.15626 c 0.2608,-0.0143 0.54446,0 0.81242,0 2.10728,0 3.2293,0.0421 3.78088,0.37503 0.0486,0.031 0.11664,0.0891 0.15624,0.12501 0.006,0.006 0.0251,0.025 0.0312,0.0313 0.0294,0.032 0.0699,0.0893 0.0937,0.12501 0.0136,0.0219 0.0507,0.0705 0.0625,0.0938 0.0111,0.0238 0.0219,0.0685 0.0313,0.0938 0.11096,0.32562 0.0863,0.79864 0,1.40636 -0.24199,1.70417 -1.14511,2.37152 -3.71839,2.75022 -6.77348,0.99684 -9.03339,7.25288 -9.06161,25.002 -0.0271,17.03414 2.00562,22.02828 9.15535,22.37679 1.26594,0.0617 2.09803,0.19941 2.62474,0.53129 0.0803,0.0526 0.18229,0.1242 0.24998,0.18752 0.43516,0.42326 0.62625,1.09118 0.74993,2.15642 0.0993,0.85539 0.12577,1.47134 0,1.87515 -0.0155,0.046 -0.0422,0.1151 -0.0625,0.15626 -0.0255,0.0483 -0.0608,0.11441 -0.0937,0.15626 -0.0228,0.0272 -0.0674,0.0692 -0.0937,0.0938 -0.0136,0.012 -0.0479,0.0512 -0.0625,0.0625 -0.0226,0.0165 -0.069,0.0473 -0.0937,0.0625 -0.50122,0.28975 -1.44978,0.31414 -3.09345,0.31253 -5.36052,-0.005 -9.59354,-2.93836 -12.40504,-8.62569 -2.21521,-4.48117 -2.39786,-6.02696 -2.40601,-19.84534 -0.007,-12.13283 0.33898,-15.90127 1.81232,-19.72033 2.40403,-6.23148 6.22726,-9.49229 11.53012,-9.78203 z m 28.68469,0 c 0.77884,-0.0181 1.66573,0 2.65599,0 5.46337,0 7.16962,0.0405 7.59301,0.84382 0.15639,0.32446 0.11799,0.79552 0.0312,1.40636 -0.20534,1.44607 -1.11643,2.35734 -2.56224,2.5627 l -2.24978,0.31253 0,25.93957 0,25.93958 -2.99971,0 -2.99971,0 0,-26.00208 0,-26.00208 -2.9997,0 c -3.05259,0 -3.48683,-0.62076 -2.40602,-3.43778 0.40763,-1.06247 1.7312,-1.46489 5.93692,-1.56262 z m 21.99785,0 c 0.77883,-0.0181 1.66572,0 2.65599,0 5.46336,0 7.16961,0.0405 7.593,0.84382 0.1564,0.32446 0.11799,0.79552 0.0313,1.40636 -0.20534,1.44607 -1.11643,2.35734 -2.56225,2.5627 l -2.24978,0.31253 0,25.93957 0,25.93958 -2.99971,0 -2.9997,0 0,-26.00208 0,-26.00208 -2.99971,0 c -3.05259,0 -3.48683,-0.62076 -2.40601,-3.43778 0.40763,-1.06247 1.7312,-1.46489 5.93692,-1.56262 z m 81.46076,0 2.99971,0 2.9997,0 0,28.50228 0,28.50228 -2.9997,0 -2.99971,0 0,-28.50228 0,-28.50228 z m 18.99814,0 4.74953,0.0313 c 11.33029,0.13466 16.24841,4.86547 16.24841,15.62625 0,10.70557 -3.1135,15.38945 -11.2489,16.87635 l -3.74963,0.68756 0,11.87595 0,11.9072 -2.9997,0 -2.99971,0 0,-28.50228 0,-28.50228 z m 50.995,0 2.49976,0 2.49975,0 0,26.00208 0,26.00208 3.99961,0 c 1.85607,0 2.86743,0.0647 3.40592,0.43753 0.0477,0.0348 0.11588,0.085 0.15623,0.12501 0.0131,0.0137 0.0502,0.0482 0.0625,0.0625 0.0179,0.0219 0.0462,0.0704 0.0625,0.0938 0.24645,0.37353 0.31247,0.95515 0.31247,1.78139 0,0.71561 -0.0259,1.22897 -0.21873,1.59388 -0.4732,0.83672 -1.92377,0.90632 -6.28064,0.90632 l -6.49936,0 0,-28.50228 0,-28.50228 z m 19.99804,0 6.03066,0 c 3.9632,0 5.42732,0.1436 6.21814,1.03133 0.26174,0.30434 0.47054,0.72082 0.65619,1.21885 0.22254,0.59698 0.34665,1.04158 0.34371,1.37511 -0.001,0.0354 0.005,0.092 0,0.12501 -0.004,0.0243 -0.0252,0.0708 -0.0312,0.0938 -0.007,0.0226 -0.0225,0.0724 -0.0313,0.0937 -0.006,0.014 -0.024,0.0491 -0.0313,0.0625 -0.0155,0.0263 -0.043,0.0694 -0.0625,0.0938 -0.005,0.006 -0.0259,0.0254 -0.0313,0.0313 -0.006,0.006 -0.0254,0.0256 -0.0313,0.0313 -0.006,0.006 -0.0248,0.0258 -0.0312,0.0313 -0.0467,0.0371 -0.12736,0.0928 -0.18748,0.12501 -0.48792,0.24757 -1.41072,0.34751 -2.93722,0.46879 l -3.87462,0.31253 0,11.43841 0,11.46967 4.49956,0 c 2.8091,0 3.88411,0.0937 4.28083,0.87507 0.17536,0.36656 0.21873,0.90748 0.21873,1.62513 0,0.82529 -0.06,1.37773 -0.31247,1.75014 -0.0909,0.12679 -0.22691,0.25702 -0.37496,0.34378 -0.60827,0.33798 -1.74567,0.40628 -3.81213,0.40628 l -4.49956,0 0,9.50076 c 0,6.01018 0.0195,8.22065 0.65619,9.03197 0.3578,0.42673 0.9104,0.46879 1.74983,0.46879 3.72817,0 5.5932,1.01841 5.5932,3.094 0,0.31447 -0.0385,0.59262 -0.12499,0.81256 -0.0495,0.11719 -0.12937,0.25041 -0.21873,0.34378 -0.63548,0.62742 -2.34407,0.75006 -6.65559,0.75006 l -6.99932,0 0,-11.53217 c 0,-9.32838 -0.28663,-11.66034 -1.49985,-12.12597 -0.82492,-0.31662 -1.49985,-1.65274 -1.49985,-2.96899 0,-1.46057 0.58449,-2.37519 1.49985,-2.37519 0.0394,0 0.0875,-0.0267 0.12499,-0.0313 0.0555,-0.009 0.1363,-0.0108 0.18748,-0.0313 0.0925,-0.0413 0.20222,-0.12978 0.28122,-0.21876 0.73573,-0.88664 0.90616,-4.14964 0.90616,-13.71985 l 0,-14.00112 z m 19.998,0 4.7496,0.0313 c 11.2917,0.1342 15.239,4.21108 16.0297,16.53257 0.4212,6.56479 0.1696,7.98971 -2.3123,13.06355 l -2.781,5.68795 2.9997,10.28208 3.031,10.25082 -2.4685,0.62505 c -1.1702,0.29373 -2.3848,0.32779 -2.906,0.12501 -0.036,-0.0154 -0.096,-0.0444 -0.125,-0.0625 -0.01,-0.005 -0.025,-0.0264 -0.031,-0.0313 -0.01,-0.005 -0.026,-0.0261 -0.031,-0.0313 0,-0.004 -0.028,-0.0268 -0.031,-0.0313 -0.4149,-0.62308 -2.2522,-5.85246 -4.1871,-11.9072 l -3.6559,-11.37591 2.9372,-2.93773 c 3.3374,-3.338 4.4097,-8.46232 3.3122,-15.78252 -0.7302,-4.87019 -4.1194,-9.43825 -6.9993,-9.43825 -0.053,0 -0.1069,-0.0108 -0.1563,0 -1.1888,0.32161 -1.3748,4.28405 -1.3748,26.00208 l 0,26.00208 -2.9997,0 -2.9998,0 0,-28.50228 0,-28.50228 z m -165.3275,0.96883 c 0.003,9.6e-4 0.0277,-0.003 0.0312,0 0.9648,1.02057 11.3026,50.47835 11.31139,54.28559 0.003,1.26957 -0.81162,1.75014 -2.93721,1.75014 -2.27741,0 -3.0013,-0.50127 -3.24968,-2.25018 -0.28712,-2.02203 -0.87005,-2.25018 -5.81193,-2.25018 -3.16589,0 -4.55983,0.0886 -5.21824,0.68755 -0.0235,0.0224 -0.0721,0.07 -0.0937,0.0938 -0.28719,0.33104 -0.40797,0.82119 -0.49995,1.46887 -0.24835,1.74891 -0.97225,2.25018 -3.24968,2.25018 -1.08299,0 -1.80698,-0.10749 -2.24978,-0.37503 -0.0152,-0.01 -0.0479,-0.0212 -0.0625,-0.0313 -0.10006,-0.0723 -0.20917,-0.18414 -0.28122,-0.28128 -0.01,-0.0142 -0.0217,-0.0478 -0.0312,-0.0625 -0.0139,-0.0225 -0.0498,-0.07 -0.0625,-0.0938 -0.18553,-0.36239 -0.24997,-0.88866 -0.24997,-1.59388 0,-1.12157 -0.33047,-2.1811 -0.74993,-2.59395 -0.0549,-0.0504 -0.12957,-0.0978 -0.18748,-0.12501 -0.008,-0.003 -0.0229,-0.0284 -0.0313,-0.0313 -1.44635,-0.49483 -0.0156,-4.81288 1.59359,-4.81288 0.42794,0 0.80816,-0.11039 1.0624,-0.25002 0.0137,-0.008 0.0496,-0.023 0.0625,-0.0313 0.006,-0.004 0.0252,-0.027 0.0313,-0.0313 0.0116,-0.009 0.0518,-0.0224 0.0625,-0.0313 0.005,-0.005 0.0264,-0.0267 0.0312,-0.0313 0.0232,-0.0231 0.0456,-0.0692 0.0625,-0.0938 0.006,-0.01 0.0261,-0.0211 0.0312,-0.0313 0.002,-0.005 -0.002,-0.0261 0,-0.0313 0.002,-0.005 0.0298,-0.026 0.0313,-0.0313 0.001,-0.005 -9e-4,-0.026 0,-0.0313 6e-4,-0.005 -3e-4,-0.0259 0,-0.0313 0,-0.004 -3e-4,-0.0262 0,-0.0313 0.15406,-1.61567 10.00438,-43.67819 10.62396,-45.34738 0.002,-0.005 0.0289,-0.0274 0.0313,-0.0313 z m 105.95836,0 c 0.006,0.003 0.0236,0.0219 0.0313,0.0313 1.02156,1.55252 11.25463,50.92029 11.31139,54.75438 0.0107,0.7199 -1.21854,1.2501 -2.90597,1.2501 -2.2774,0 -3.0013,-0.50127 -3.24968,-2.25018 -0.28712,-2.02203 -0.87005,-2.25018 -5.81193,-2.25018 -3.16589,0 -4.55983,0.0886 -5.21824,0.68755 -0.0234,0.0224 -0.0721,0.07 -0.0937,0.0938 -0.28719,0.33104 -0.40797,0.82119 -0.49995,1.46887 -0.24834,1.74891 -0.97224,2.25018 -3.24968,2.25018 -0.92209,0 -1.58802,-0.0687 -2.03105,-0.25002 -0.10869,-0.0466 -0.22727,-0.12404 -0.31247,-0.18752 -0.0347,-0.0271 -0.094,-0.0635 -0.12499,-0.0937 -0.0303,-0.031 -0.067,-0.0907 -0.0937,-0.12501 -0.2816,-0.37858 -0.37496,-0.95876 -0.37496,-1.8439 0,-0.96688 -0.24866,-1.83471 -0.59369,-2.25018 -0.0311,-0.0352 -0.0923,-0.0969 -0.12499,-0.12501 -0.0825,-0.0658 -0.19119,-0.10883 -0.28122,-0.12501 -0.0181,-0.002 -0.0442,0 -0.0625,0 -0.13399,0 -0.25687,-0.0573 -0.34371,-0.12501 -0.0139,-0.0121 -0.0499,-0.0487 -0.0625,-0.0625 -0.018,-0.0219 -0.0472,-0.0683 -0.0625,-0.0937 -0.51743,-0.95811 0.69859,-4.12435 2.28102,-5.28168 0.8629,-0.68813 3.46381,-9.91853 6.34313,-22.5018 2.69914,-11.79588 5.16601,-22.11427 5.49946,-22.93933 0.002,-0.005 0.029,-0.028 0.0313,-0.0313 z m 93.39714,-1.68098 c 0,-0.002 0.029,0.002 0.031,0 0,-4.3e-4 0.029,8e-5 0.031,0 0.01,0.007 0.024,0.0218 0.031,0.0313 0,0.005 0.027,0.0252 0.031,0.0313 0.5111,0.83287 2.4282,10.27972 4.3746,17.15097 1.9464,6.87125 3.9117,12.91536 4.4683,13.8136 0,0.007 0.027,0.0253 0.031,0.0313 0.01,0.0105 0.024,0.0236 0.031,0.0313 0.029,0.0312 0.063,0.0731 0.094,0.0938 0.023,0.0135 0.07,0.0236 0.094,0.0313 0.032,0.008 0.092,0.0334 0.125,0.0313 0.4208,-0.0578 0.9342,-0.89284 1.2499,-2.15642 3.4422,-13.77799 6.5814,-27.80455 7.4992,-28.8394 0.01,-0.008 0.024,-0.0245 0.031,-0.0313 0.01,-0.006 0.024,-0.0266 0.031,-0.0313 0,-0.002 0.028,0.002 0.031,0 0,-8.5e-4 0.028,4.8e-4 0.031,0 0,6.4e-4 0.029,-0.001 0.031,0 0,0.002 0.029,0.0287 0.031,0.0313 0.01,0.011 0.026,0.0481 0.031,0.0625 0.609,1.88229 6.6556,52.87863 6.6556,55.81031 0,1.11388 -0.8836,1.62513 -2.8748,1.62513 l -2.9059,0 -1.1874,-10.25082 c -0.9974,-8.49601 -1.5692,-12.96979 -2.2498,-13.87611 -0.011,-0.0138 -0.051,-0.0506 -0.063,-0.0625 -0.01,-0.006 -0.026,-0.0262 -0.031,-0.0313 -0.017,-0.0137 -0.045,-0.0217 -0.063,-0.0313 -0.01,-0.003 -0.025,-0.029 -0.031,-0.0313 -0.012,-0.004 -0.051,0.002 -0.063,0 -0.01,-4e-4 -0.025,-6e-5 -0.031,0 -0.01,5.2e-4 -0.025,-9.7e-4 -0.031,0 -0.024,0.006 -0.069,0.0182 -0.094,0.0313 -0.01,0.004 -0.025,0.0271 -0.031,0.0313 -0.6591,0.49505 -1.5109,3.60441 -2.906,8.96947 -1.5086,5.80124 -2.9786,10.60951 -3.4059,11.18839 0,0.004 -0.028,0.0276 -0.031,0.0313 0,0.002 -0.028,-0.002 -0.031,0 0,0.001 0,0.0306 0,0.0313 0,0 -0.026,-0.0289 -0.031,-0.0313 0,-0.002 -0.028,0.003 -0.031,0 -0.01,-0.0107 -0.02,-0.0466 -0.031,-0.0625 0,-0.006 -0.027,-0.0248 -0.031,-0.0313 -0.4778,-0.81028 -1.8945,-5.39419 -3.3434,-10.87587 -1.374,-5.19813 -2.7702,-9.35684 -3.3747,-10.15706 -0.01,-0.007 -0.026,-0.0251 -0.031,-0.0313 -0.01,-0.006 -0.026,-0.0262 -0.031,-0.0313 0,-0.004 -0.026,-0.0274 -0.031,-0.0313 -0.01,-0.007 -0.023,-0.0269 -0.031,-0.0313 0,-0.002 -0.027,10e-4 -0.031,0 0,-4.1e-4 -0.028,-1.9e-4 -0.031,0 0,10e-4 -0.028,-0.002 -0.031,0 0,0.003 0,0.028 0,0.0313 -0.01,0.008 -0.025,0.0215 -0.031,0.0313 -0.01,0.0109 -0.025,0.0494 -0.031,0.0625 -0.4039,0.85804 -1.1798,5.69752 -1.7811,11.15714 -0.6361,5.77546 -1.4031,11.2884 -1.6873,12.25098 -0.341,1.15477 -1.5211,1.75014 -3.4684,1.75014 -0.9913,0 -1.6547,-0.076 -2.0623,-0.25002 -0.024,-0.0107 -0.072,-0.0196 -0.094,-0.0313 -0.014,-0.008 -0.049,-0.0228 -0.063,-0.0313 -0.086,-0.0562 -0.1632,-0.14248 -0.2187,-0.21876 -0.016,-0.024 -0.049,-0.0677 -0.063,-0.0938 -0.01,-0.0133 -0.025,-0.0487 -0.031,-0.0625 -0.01,-0.0212 -0.024,-0.0713 -0.031,-0.0937 -0.095,-0.33535 -0.049,-0.80383 0.094,-1.46887 0.2662,-1.2376 1.9499,-13.63436 3.7183,-27.53345 1.6442,-12.92183 3.2887,-26.80647 3.8434,-27.87058 0,-0.008 0.027,-0.025 0.031,-0.0313 0,-0.003 0,-0.0288 0,-0.0313 z m 41.7459,5.18126 c -1.7965,0.10161 -3.6406,1.38369 -4.9683,3.78155 -1.677,3.02866 -2.3151,28.60108 -0.9062,36.2529 0.5829,3.16528 1.6748,6.09622 2.5935,7.06306 0.023,0.0236 0.071,0.0728 0.094,0.0938 0.03,0.0268 0.064,0.0716 0.094,0.0938 4.1626,3.0849 7.8658,-0.3348 8.8429,-8.1569 1.0184,-8.15257 0.1176,-33.73057 -1.2811,-36.2529 -1.1229,-2.02488 -2.7807,-2.9707 -4.4683,-2.87523 z m -206.76102,0.37503 0,23.56438 c 0,22.44186 0.0761,23.59564 1.87482,23.59564 1.03895,0 2.88548,-0.80317 4.09334,-1.78139 2.92934,-2.37246 4.3155,-13.9494 3.43717,-28.56479 -0.69699,-11.59779 -2.05359,-14.68745 -7.15555,-16.15754 l -2.24978,-0.6563 z m 45.99549,0.15626 0,11.00088 0,11.00088 2.49976,0 c 5.1562,0 8.50058,-6.89306 7.0618,-14.56367 -0.8201,-4.37238 -3.73859,-7.43809 -7.0618,-7.43809 l -2.49976,0 z m -80.74208,23.00184 c -0.0102,8.2e-4 -0.0211,0.0286 -0.0313,0.0313 -0.005,0.002 -0.0262,-0.002 -0.0313,0 -0.025,0.0132 -0.0691,0.0383 -0.0937,0.0625 -0.01,0.0105 -0.0215,0.0502 -0.0313,0.0625 -0.0585,0.0787 -0.13009,0.20472 -0.18748,0.34378 -1.19625,2.89901 -3.51747,16.34773 -3.12469,17.84518 0.002,0.006 -0.002,0.026 0,0.0313 0.002,0.005 -0.002,0.0268 0,0.0313 0.004,0.008 0.0268,0.0248 0.0313,0.0313 0.91595,0.91613 5.92064,0.59225 6.68684,-0.40628 0.006,-0.008 0.0263,-0.0232 0.0313,-0.0313 0.003,-0.005 -0.002,-0.026 0,-0.0313 0.005,-0.0115 0.027,-0.0491 0.0312,-0.0625 0.006,-0.0215 0.0261,-0.068 0.0313,-0.0938 0.19289,-1.06723 -0.29342,-5.36805 -1.15614,-10.0633 -0.84845,-4.61764 -1.43613,-6.99243 -1.90606,-7.59436 -0.005,-0.007 -0.0258,-0.0252 -0.0313,-0.0313 -0.005,-0.006 -0.0259,-0.0261 -0.0312,-0.0313 -0.005,-0.005 -0.0259,-0.0271 -0.0313,-0.0313 -0.0159,-0.0111 -0.0468,-0.0243 -0.0625,-0.0313 -0.005,-0.002 -0.0261,0.001 -0.0313,0 -0.005,-9.5e-4 -0.0261,-0.0308 -0.0313,-0.0313 -0.005,-4e-5 -0.0262,-4.1e-4 -0.0312,0 z m 105.89587,0.0938 c -0.005,0.003 -0.0264,0.0281 -0.0313,0.0313 -0.0437,0.0324 -0.11381,0.0892 -0.15624,0.15626 -0.0376,0.063 -0.0881,0.16048 -0.12498,0.25002 -1.18509,2.87628 -3.48263,16.32128 -3.09345,17.81393 0.002,0.006 -0.002,0.026 0,0.0313 0.002,0.005 -0.002,0.0268 0,0.0313 0.004,0.008 0.0268,0.0248 0.0313,0.0313 0.98312,0.98331 6.73932,0.5756 7.18679,-0.43753 0.002,-0.004 -10e-4,-0.0271 0,-0.0313 0.003,-0.008 0.0294,-0.0228 0.0313,-0.0313 7.4e-4,-0.004 -5.6e-4,-0.027 0,-0.0313 1.9e-4,-0.004 0,-0.0269 0,-0.0313 0,-0.60871 -0.73997,-5.21128 -1.65609,-10.21957 -0.79811,-4.36319 -1.38476,-6.6941 -1.84357,-7.37559 -0.0489,-0.0688 -0.1095,-0.12472 -0.15623,-0.15626 -0.005,-0.003 -0.0261,-0.0286 -0.0313,-0.0313 -0.005,-0.002 -0.0262,0.002 -0.0313,0 -0.005,-0.001 -0.0262,8e-4 -0.0312,0 -0.005,-3.6e-4 -0.0262,-9e-5 -0.0313,0 -0.005,5.3e-4 -0.0263,-9.7e-4 -0.0313,0 -0.005,0.001 -0.0263,-0.002 -0.0312,0 z m -238.13291,22.90808 c 0.28825,-0.0187 0.62493,0 0.9999,0 1.14572,0 1.86942,0.062 2.31227,0.34378 0.0236,0.0158 0.0717,0.0453 0.0937,0.0625 0.0502,0.0411 0.11402,0.10721 0.15624,0.15626 0.35244,0.43064 0.43745,1.1876 0.43745,2.4377 0,0.97925 -0.0611,1.64489 -0.24997,2.09392 -0.0249,0.0562 -0.0639,0.13811 -0.0937,0.18751 -0.0154,0.0242 -0.0458,0.0712 -0.0625,0.0938 -0.39467,0.50706 -1.15613,0.62505 -2.59349,0.62505 -1.0624,0 -1.77042,-0.0802 -2.21853,-0.31253 -0.0344,-0.0188 -0.0935,-0.0414 -0.12499,-0.0625 -0.5464,-0.38469 -0.65619,-1.14592 -0.65619,-2.62521 0,-1.10426 0.0562,-1.83534 0.31247,-2.28143 0.0149,-0.0247 0.0462,-0.0707 0.0625,-0.0938 0.0111,-0.015 0.0507,-0.0482 0.0625,-0.0625 0.0422,-0.049 0.106,-0.11514 0.15623,-0.15626 0.0514,-0.04 0.12728,-0.0922 0.18749,-0.12501 0.28996,-0.15035 0.69017,-0.2469 1.21863,-0.28127 z m 32.99676,0 c 0.28825,-0.0187 0.62494,0 0.9999,0 1.14572,0 1.86943,0.062 2.31228,0.34378 0.0236,0.0158 0.0717,0.0453 0.0937,0.0625 0.0502,0.0411 0.11402,0.10721 0.15623,0.15626 0.35245,0.43064 0.43746,1.1876 0.43746,2.4377 0,0.97925 -0.0611,1.64489 -0.24998,2.09392 -0.0249,0.0562 -0.0639,0.13811 -0.0937,0.18751 -0.0154,0.0242 -0.0458,0.0712 -0.0625,0.0938 -0.39467,0.50706 -1.15614,0.62505 -2.5935,0.62505 -1.06239,0 -1.77041,-0.0802 -2.21853,-0.31253 -0.0344,-0.0188 -0.0935,-0.0414 -0.12499,-0.0625 -0.54639,-0.38469 -0.65618,-1.14592 -0.65618,-2.62521 0,-1.10426 0.0562,-1.83534 0.31247,-2.28143 0.0149,-0.0247 0.0462,-0.0707 0.0625,-0.0938 0.0111,-0.015 0.0507,-0.0482 0.0625,-0.0625 0.0422,-0.049 0.106,-0.11514 0.15624,-0.15626 0.0514,-0.04 0.12728,-0.0922 0.18748,-0.12501 0.28996,-0.15035 0.69017,-0.2469 1.21863,-0.28127 z"
         id="path1495"
         style="fill:#c0a25e;fill-opacity:1" />
      <path
         d="m 898.06288,736.24388 c 62.31179,-25.43631 114.84812,-59.43271 148.38782,-96.02212 24.3279,-26.54008 38.6011,-54.01629 44.1605,-85.01032 1.5274,-8.51497 1.6688,-22.36841 1.6728,-163.80869 l 0,-154.50709 -206.49608,0 -206.49609,0 -0.27769,144.72816 c -0.28067,146.28082 0.0624,165.23878 3.26483,180.42125 14.19958,67.31863 80.9,128.35691 189.84018,173.72473 6.71233,2.7953 12.6734,5.11556 13.2468,5.15604 0.57339,0.0405 6.28499,-2.06642 12.69243,-4.68196 z"
         id="path1362"
         style="fill:#f7b7d3;fill-opacity:1" />
      <path
         d="m 897.70177,729.18913 c 60.5042,-24.83119 111.51653,-58.01883 144.08323,-93.73779 23.6222,-25.9087 37.4813,-52.73126 42.8795,-82.98795 1.4831,-8.3124 1.6204,-21.83628 1.6243,-159.91173 l 0,-150.83142 -200.50594,0 -200.50589,0 -0.26964,141.28512 c -0.27253,142.80085 0.0606,161.30781 3.17012,176.12909 13.78767,65.71714 78.55319,125.30335 184.33315,169.59188 6.51761,2.7288 12.30576,4.99386 12.86253,5.03338 0.55676,0.0395 6.10267,-2.01727 12.32424,-4.57058 z"
         id="path2240"
         style="fill:#ffffff;fill-opacity:1" />
      <path
         d="m 897.28755,722.95085 c 58.43079,-24.17267 107.69495,-56.48019 139.14565,-91.25189 22.8127,-25.22161 36.1969,-51.33285 41.4101,-80.78714 1.4322,-8.09196 1.5649,-21.25719 1.5686,-155.67094 l 0,-146.83142 -193.63476,0 -193.63478,0 -0.26039,137.53829 c -0.26319,139.01383 0.0585,157.02998 3.06148,171.45821 13.31518,63.97435 75.86126,121.98035 178.01626,165.09436 6.29426,2.65644 11.88405,4.86143 12.42174,4.8999 0.53768,0.0385 5.89354,-1.96376 11.9019,-4.44937 z"
         id="path3115"
         style="fill:#f7b7d3;fill-opacity:1" />
      <path
         d="m 897.28755,722.38319 c 58.43079,-24.17267 107.69495,-56.48019 139.14565,-91.25189 22.8127,-25.22161 36.1969,-51.33285 41.4101,-80.78714 1.4322,-8.09196 1.5649,-21.25719 1.5686,-155.67094 l 0,-146.83142 -373.58856,340.78815 c -0.12677,0.11564 0.14886,0.30932 0.22374,0.4639 24.76418,51.12433 82.22884,97.09844 166.91263,132.83881 6.29426,2.65644 11.88405,4.86143 12.42174,4.8999 0.53768,0.0385 5.89354,-1.96376 11.9019,-4.44937 z"
         id="path3990"
         style="fill:#221e1f;fill-opacity:1" />
      <g
         transform="matrix(0.979021,0,0,0.997902,-631.0192,-8.471772)"
         id="g5810">
        <path
           d="m 1459.4956,241.08021 c -0.6551,0.0786 -1.2207,0.32436 -1.6562,0.75 -7.2024,7.03874 -9.0221,14.26588 -7.1563,28.34375 0.7666,5.78414 0.6529,6.32645 -1.3437,7.40625 -2.512,1.35861 -8.7106,-0.99648 -14.5938,-5.53125 l -3.5,-2.65625 -1.4375,2.84375 c -4.1816,8.17511 -6.2114,17.99306 -6.2187,30.3125 -0.01,11.23597 0.2378,12.69509 2.9062,18.78125 5.5698,12.70373 3.6133,16.49381 -6.0312,11.625 -3.2355,-1.63337 -6.1948,-3.1131 -6.5625,-3.28125 0,-0.001 -0.028,7.7e-4 -0.031,0 0,3e-5 -0.028,-2.9e-4 -0.031,0 0,8.1e-4 -0.028,-0.001 -0.031,0 -0.011,0.005 -0.051,0.0242 -0.063,0.0313 -0.4494,0.31783 -1.3152,2.18387 -2.0625,4.53125 -5.8281,18.30666 -4.5988,35.25664 3.7813,51.96875 4.2577,8.49118 1.8157,11.88282 -6.0313,8.375 -2.4266,-1.08479 -6.0092,-3.2083 -7.9687,-4.71875 -1.7758,-1.36883 -3.455,-2.33286 -3.9688,-2.28125 0,5.9e-4 -0.027,-7.4e-4 -0.031,0 -0.01,0.002 -0.025,0.0285 -0.031,0.0313 0,10e-4 -0.028,-0.002 -0.031,0 -0.01,0.004 -0.027,0.0267 -0.031,0.0313 0,0.006 -0.026,0.0228 -0.031,0.0313 -0.3042,0.57587 -0.9156,4.73859 -1.4063,9.5 -1.6618,16.12683 1.366,32.67312 8.7188,47.4375 1.9035,3.82201 3.327,7.94914 3.1562,9.15625 -0.462,3.26646 -5.0055,2.51442 -11.5937,-1.90625 -2.6568,-1.78264 -5.1166,-3.07388 -5.875,-3.125 -0.01,-2.6e-4 -0.025,6e-5 -0.031,0 -0.012,2.7e-4 -0.052,-10e-4 -0.063,0 -0.01,0.001 -0.022,0.029 -0.031,0.0313 0,10e-4 -0.027,-0.002 -0.031,0 0,0.002 -0.028,-0.002 -0.031,0 0,0.002 0,0.0289 0,0.0313 -0.041,0.041 -0.089,0.10997 -0.125,0.1875 -0.9636,2.22627 -0.1768,17.60455 1.3125,24.09375 2.9307,12.77035 11.214,26.39599 20.6562,33.96875 2.5916,2.07843 22.2161,15.43829 43.5938,29.6875 29.6877,19.78828 37.8696,25.62256 38.7812,27.78125 0.014,0.0355 0.052,0.0915 0.063,0.125 0.01,0.033 0.026,0.0938 0.031,0.125 0,0.0154 0,0.0476 0,0.0625 9e-4,0.0147 -10e-5,0.0482 0,0.0625 0.01,1.7463 -0.8197,2.45449 -3.75,3.21875 -2.0735,0.54078 -29.576,7.90769 -61.0938,16.375 -31.5177,8.4673 -58.2067,15.55095 -59.3125,15.71875 -2.5301,0.38393 -8.2637,2.54271 -8.5312,3.1875 -4e-4,0.002 10e-5,0.0289 0,0.0313 0,1.55783 4.2941,8.42305 6.6875,10.6875 4.0584,3.84002 14.2259,8.55512 22.6875,10.5 7.9648,1.83076 9.8124,2.88415 9.8125,5.65625 -10e-5,3.45707 -8.2707,7.25 -15.8125,7.25 -1.4134,0 -2.6309,0.19996 -3.0938,0.46875 -0.069,0.0435 -0.1282,0.10949 -0.1562,0.15625 0,0.006 -0.029,0.0253 -0.031,0.0313 -7e-4,0.003 5e-4,0.0283 0,0.0313 -2e-4,0.003 0,0.0282 0,0.0313 5e-4,0.003 -7e-4,0.0276 0,0.0313 0.1174,0.4864 2.0515,2.66416 4.375,4.96875 5.3799,5.33577 11.4607,7.37655 22.0625,7.375 9.5852,-0.001 10.7559,0.43717 10.75,3.84375 0,2.62112 -4.0888,8.00417 -7.7812,10.25 -0.3716,0.226 -0.6712,0.43459 -0.8438,0.625 -0.01,0.006 -0.026,0.0249 -0.031,0.0313 -0.01,0.0127 -0.022,0.0498 -0.031,0.0625 0,0.006 -0.027,0.0249 -0.031,0.0313 -0.01,0.0128 -0.025,0.0496 -0.031,0.0625 0,0.006 -0.028,0.0248 -0.031,0.0313 -0.01,0.013 0,0.0493 0,0.0625 0,0.0132 -0.029,0.0491 -0.031,0.0625 0,0.0135 0,0.0488 0,0.0625 -8e-4,0.0138 -2e-4,0.0485 0,0.0625 7e-4,0.0141 0,0.0482 0,0.0625 0.01,0.0434 0.015,0.1102 0.031,0.15625 0.024,0.062 0.084,0.15074 0.125,0.21875 0.2906,0.46466 0.9726,1.09732 2.125,2.0625 3.7548,3.14471 10.7028,5.59375 15.8437,5.59375 2.1496,-10e-6 4.7742,0.48405 5.8438,1.0625 0.9005,0.48712 1.474,0.6362 1.75,0.46875 0.03,-0.0212 0.071,-0.0637 0.094,-0.0937 0.03,-0.0446 0.079,-0.12555 0.094,-0.1875 0.011,-0.0552 0,-0.11953 0,-0.1875 0,-0.0131 0,-0.0497 0,-0.0625 9e-4,-0.006 0.03,-0.025 0.031,-0.0313 0,-0.0124 0,-0.0503 0,-0.0625 0,-0.006 0.028,-0.0253 0.031,-0.0313 0,-0.006 0,-0.0254 0,-0.0313 0.044,-0.0695 0.1336,-0.158 0.2187,-0.21875 0.022,-0.015 0.069,-0.048 0.094,-0.0625 1.8471,-1.04746 9.8954,-0.63611 11.5312,0.78125 0.014,0.013 0.049,0.0494 0.063,0.0625 0.013,0.0132 0.051,0.0491 0.063,0.0625 1.8467,2.2488 0.8691,4.8957 -2.4687,6.625 -1.6549,0.85739 -3.2493,1.87521 -3.5313,2.25 -0.3146,0.37659 -1.7893,0.98863 -3.3125,1.375 l -2.8125,0.71875 2.1563,2.34375 c 1.1927,1.28301 4.4951,3.3934 7.3437,4.6875 4.6401,2.10794 6.6898,2.3614 19.75,2.375 7.8924,0.008 14.9356,0.36987 15.8125,0.8125 0.01,0.004 0.026,-0.004 0.031,0 0.6912,0.45207 1.235,1.61758 1.2187,2.5625 -0.034,1.97912 -4.635,7.35716 -8.4375,9.875 -1.317,0.87208 -2.3992,1.90908 -2.5625,2.40625 -0.01,0.0244 -0.029,0.0723 -0.031,0.0937 0,0.003 -3e-4,0.0277 0,0.0313 0,0.007 0.029,0.0234 0.031,0.0313 0,0.004 0,0.0271 0,0.0313 0.2199,0.50853 2.0469,1.74169 4.25,2.84375 4.8404,2.42122 11.8834,2.78878 18.2188,0.9375 12.7123,-3.71477 29.0672,-19.85145 100.8437,-99.5625 16.1615,-17.9481 19.3153,-20.125 29.1563,-20.125 6.8694,2e-5 8.8999,1.42524 8.0937,5.6875 -0.1514,0.80064 -0.2359,1.35428 -0.1875,1.71875 0.01,0.0347 0.023,0.0939 0.031,0.125 0,0.0151 0.026,0.0483 0.031,0.0625 0.011,0.0276 0.017,0.0695 0.031,0.0937 0.01,0.0117 0.023,0.0516 0.031,0.0625 0,0.005 0.027,0.0262 0.031,0.0313 0.023,0.0243 0.065,0.0431 0.094,0.0625 0.012,0.007 0.05,0.0246 0.063,0.0313 0.01,0.003 0.024,0.0283 0.031,0.0313 0.021,0.008 0.071,0.0245 0.094,0.0313 0.4186,0.10937 1.1763,-0.0179 2.4063,-0.28125 10.7675,-2.30507 20.75,-1.30505 20.75,2.09375 -10e-5,0.37712 0.04,0.65719 0.1562,0.8125 0.012,0.0138 0.05,0.0507 0.063,0.0625 0.014,0.0109 0.048,0.0223 0.063,0.0313 0.039,0.0199 0.1079,0.0546 0.1563,0.0625 0.3013,0.0328 0.7926,-0.14864 1.5,-0.53125 2.9228,-1.58083 7.1317,-1.28886 13.625,0.96875 8.3328,2.89726 12.5921,2.59036 21.625,-1.53125 8.7529,-3.99385 11.1687,-4.29475 13.625,-1.8125 1.423,1.43817 1.5853,2.91445 1.0312,9.09375 -0.5912,6.59155 -0.4538,7.62069 1.375,9.46875 2.7415,2.77047 5.5745,2.83085 4.125,0.0937 -3.2707,-6.176 1.477,-18.86191 10.75,-28.6875 6.1576,-6.52478 10.5871,-9.4618 12.9063,-8.5625 0.01,0.002 0.025,-0.002 0.031,0 0.01,10e-4 0.026,-8.7e-4 0.031,0 0,3.5e-4 0.027,1.6e-4 0.031,0 0,-10e-4 0.029,0.002 0.031,0 0,-0.003 -9e-4,-0.0282 0,-0.0313 -10e-5,-0.004 5e-4,-0.0269 0,-0.0313 0,-0.005 0,-0.0261 0,-0.0313 -0.01,-0.0167 -0.021,-0.0423 -0.031,-0.0625 -0.011,-0.0213 -0.047,-0.0693 -0.063,-0.0937 -0.565,-0.87252 -3.401,-3.48681 -6.4062,-2.90625 -2.8634,0.55315 -6.2813,-0.72699 -6.2813,-2.34375 0.043,-0.55799 1.4357,-2.5869 3.125,-4.53125 1.2778,-1.47067 1.9816,-2.39661 2.1563,-2.9375 0.01,-0.0234 0.026,-0.0718 0.031,-0.0937 0,-0.0143 0,-0.0488 0,-0.0625 8e-4,-0.007 -6e-4,-0.0247 0,-0.0313 7e-4,-0.0127 2e-4,-0.0504 0,-0.0625 -3e-4,-0.006 5e-4,-0.0255 0,-0.0313 -7e-4,-0.006 10e-4,-0.0258 0,-0.0313 0,-0.005 0,-0.0261 0,-0.0313 0,-0.005 -0.029,-0.0264 -0.031,-0.0313 0,-0.005 0,-0.0267 0,-0.0313 -0.01,-0.009 -0.025,-0.0229 -0.031,-0.0313 -0.01,-0.0121 -0.02,-0.0516 -0.031,-0.0625 -0.012,-0.0105 -0.049,-0.0219 -0.063,-0.0313 -0.01,-0.003 -0.026,-0.0285 -0.031,-0.0313 -0.022,-0.0104 -0.069,-0.0228 -0.094,-0.0313 -0.1163,-0.0357 -0.2871,-0.0625 -0.4688,-0.0625 -0.038,0.002 -0.1082,0.019 -0.1562,0.0313 -1.2106,0.34481 -5.2857,3.62582 -9.375,7.5625 -4.3261,4.16442 -9.0748,7.87266 -10.5625,8.25 -3.7132,0.9418 -12.9443,-2.95921 -34.6563,-14.625 -20.8692,-11.21296 -22.1875,-12.01998 -22.1875,-13.75 0,-1.96445 48.2243,-56.18762 55.5313,-62.4375 8.5445,-7.30834 15.8097,-10.6841 23.125,-10.78125 3.3223,-0.0441 4.7712,-0.16883 5.375,-0.75 0.05,-0.0513 0.1172,-0.12871 0.1562,-0.1875 0.043,-0.0685 0.095,-0.17081 0.125,-0.25 0.1035,-0.29213 0.1238,-0.66581 0.125,-1.125 0.01,-3.38199 -3.9319,-7.06928 -9.5312,-8.875 -2.7648,-0.89158 -7.2979,-3.4232 -10.0625,-5.65625 -9.7276,-7.85688 -12.0254,-8.27442 -29.1563,-5.09375 -6.0191,1.11757 -14.2409,2.03125 -18.2812,2.03125 -4.5736,1e-5 -6.3484,0.10161 -7,0.75 -0.064,0.0676 -0.1443,0.17009 -0.1875,0.25 -0.1325,0.2621 -0.1563,0.61833 -0.1563,1.03125 -10e-5,2.66679 -3.4222,3.44403 -12.1562,2.8125 -3.7876,-0.27385 -5.5047,-0.37451 -6.1875,-0.0313 -0.065,0.0351 -0.1419,0.0806 -0.1875,0.125 -0.068,0.0718 -0.1282,0.18463 -0.1563,0.28125 -0.081,0.32393 0.028,0.79574 0.1875,1.4375 0.415,1.6713 0,2.64539 -1.4687,3.4375 -2.8574,1.54537 -15.6551,1.35619 -19.5313,-0.28125 -3.7484,-1.58351 -11.8984,-10.19376 -19.9062,-21.03125 -6.3427,-8.58399 -28.0136,-42.2298 -28.3438,-44 -0.1191,-0.63836 -0.7531,-1.62668 -1.4062,-2.1875 -0.9227,-0.7923 -69.6067,-107.56245 -103.75,-161.28125 -2.4753,-3.8946 -6.3989,-6.15218 -8.9688,-5.84375 z m -8.3125,46.4375 c 0.013,-0.002 0.018,0.002 0.031,0 0.01,-9.9e-4 0.024,7.4e-4 0.031,0 0.021,-0.001 0.071,-8.2e-4 0.094,0 1.9457,0.13297 9.109,8.40841 36.2187,41.71875 75.6227,92.91925 119.6776,148.41432 123.2188,155.21875 0.9259,1.77927 1.0538,3.02356 0.5625,3.6875 -0.079,0.10187 -0.2043,0.20702 -0.3125,0.28125 -0.043,0.0277 -0.1097,0.0701 -0.1563,0.0937 -1.4401,0.69364 -4.7696,-0.50381 -8.7187,-3.65625 -20.4986,-16.36328 -95.5197,-90.37281 -120.3125,-118.6875 -16.9826,-19.39507 -28.3727,-34.58538 -33.0625,-44.09375 -3.363,-6.81811 -3.6786,-8.21511 -3.625,-15.78125 0.071,-10.03639 2.7025,-18.23583 6.0312,-18.78125 z m -20.7187,55 c 0.7719,-0.0698 1.6729,0.10221 2.25,0.4375 3.8691,2.24791 136.2018,129.77727 153.2812,147.71875 5.3869,5.65866 8.6047,9.83169 8.5625,11.03125 0,0.0184 0,0.0456 0,0.0625 -0.093,0.49206 -0.2542,0.91166 -0.4687,1.21875 -1.42,1.95983 -5.6854,-0.082 -16.0313,-7.34375 -20.8471,-14.63243 -59.0665,-43.32555 -113.125,-84.96875 -11.2114,-8.63637 -21.5789,-17.3194 -23.0625,-19.28125 -7.004,-9.26268 -12.0195,-24.2979 -13.1875,-39.625 -0.4039,-5.3008 -0.4124,-7.44889 0.1563,-8.40625 0.043,-0.0688 0.1068,-0.16164 0.1562,-0.21875 0.014,-0.0159 0.048,-0.0475 0.063,-0.0625 0.061,-0.0585 0.1491,-0.14074 0.2188,-0.1875 0.1062,-0.0682 0.2479,-0.13831 0.375,-0.1875 0.2472,-0.0957 0.5104,-0.16017 0.8125,-0.1875 z m -13.5625,61.8125 c 0.1424,-0.012 0.3026,0 0.4687,0 2.0327,0 41.3154,27.5118 105.7813,74.09375 47.5214,34.33793 57.4621,42.07998 57.4687,44.6875 0,0.52505 -0.042,0.93597 -0.1562,1.25 -0.018,0.0454 -0.042,0.11479 -0.063,0.15625 -0.1089,0.20349 -0.2804,0.38182 -0.5,0.5 -0.5485,0.28103 -1.5061,0.33285 -3.0625,0.3125 -2.0803,-0.0272 -7.2711,-1.35981 -11.5625,-2.96875 -19.9,-7.4611 -60.5884,-29.27445 -112.125,-60.09375 -16.6963,-9.98458 -24.0284,-17.403 -30.8125,-31.25 -3.6376,-7.42486 -7.125,-18.78585 -7.125,-23.25 0,-1.60091 0.1425,-2.49414 0.5625,-2.96875 0.01,-0.006 0.025,-0.025 0.031,-0.0313 0.012,-0.0122 0.05,-0.0509 0.063,-0.0625 0.01,-0.006 0.025,-0.0258 0.031,-0.0313 0.041,-0.0321 0.1109,-0.0668 0.1562,-0.0937 0.023,-0.013 0.07,-0.0507 0.094,-0.0625 0.2052,-0.0952 0.4533,-0.16245 0.75,-0.1875 z m -2.2813,58.6875 c 0.6555,-0.0757 1.4071,0.0518 2.25,0.375 4.3775,1.67873 89.5141,46.63049 125.6563,66.34375 18.1279,9.88769 23.2255,13.00111 23.7812,15.21875 0.09,0.38693 0.045,0.75931 -0.094,1.125 -0.9482,2.49232 -5.5287,2.05562 -19.4063,-1.84375 -29.7241,-8.35197 -88.9058,-33.05807 -111.7812,-46.65625 -8.5474,-5.08088 -17.0519,-12.77152 -20.3438,-18.4375 -4.5247,-7.78802 -4.2014,-15.64693 -0.063,-16.125 z m 293.9353,7.11826 c 3.5207,-0.0784 4.5155,-0.71202 5.2208,-0.0576 0.024,0.0232 0.072,0.0694 0.094,0.0937 0.036,0.0413 0.093,0.11159 0.125,0.15625 0.093,0.13604 0.1861,0.30082 0.25,0.46875 0.9803,2.57692 -1.9649,5.39485 -5.5935,6.12688 -4.069,0.82082 -3.8364,0.83578 -7.8125,-0.90625 -1.4412,-0.63141 -2.2889,-1.12861 -2.7188,-1.78125 -0.3861,-0.60771 -0.4403,-1.37863 -0.3125,-2.5 0.3161,-2.77391 0.9861,-1.21642 8.5603,-1.50674 0.8059,-0.0309 1.7087,0.0972 2.1875,-0.0937 z m -197.6853,105.10049 c 0.048,-0.006 0.095,0 0.125,0 1.2732,-10e-6 5.4344,1.24674 9.25,2.75 5.6599,2.22985 6.9375,3.13916 6.9375,4.96875 -10e-5,1.96972 -2.4988,3.21601 -20.4375,10.375 -27.4477,10.9539 -54.5069,20.79377 -67.9062,24.6875 -15.3859,4.471 -28.4604,5.07752 -37.9688,1.71875 -7.4632,-2.63643 -10.875,-5.16815 -10.875,-8.03125 0,-0.19117 0.033,-0.3763 0.063,-0.53125 0.022,-0.10177 0.054,-0.22536 0.094,-0.3125 0.424,-0.86598 1.925,-1.03125 6.4062,-1.03125 7.189,0 7.0604,0.0316 73.7188,-21.9375 20.6268,-6.79819 38.5776,-12.3979 40.5937,-12.65625 z m 25.5,9.40625 c 0.8183,-0.0563 1.5648,0.007 2.4063,0.0937 2.7735,0.28443 6.8436,1.12946 9.0625,1.875 7.3125,2.4569 5.8736,4.14327 -13.7813,16.21875 -31.8974,19.597 -58.44,33.71609 -73.9375,39.28125 -8.7896,3.15634 -26.0366,4.1656 -31.9375,1.875 -6.1666,-2.3938 -9.052,-4.74014 -8.7187,-7.09375 0.2184,-1.54427 1.1277,-2.21877 3.3125,-2.4375 10.0174,-1.00279 23.9141,-6.97564 74.1562,-31.9375 29.5964,-14.70434 35.4948,-17.60347 39.4375,-17.875 z m 27.6875,5.25 c 0.6364,-0.0419 1.2129,0.0561 1.875,0.15625 15.1888,2.29754 15.2548,3.28909 0.875,15.25 -35.5262,29.55017 -70.8708,52.79778 -87.9687,57.84375 -7.3164,2.15927 -15.7112,2.03873 -20.8438,-0.3125 -6.5914,-3.01947 -6.56,-6.15973 0.094,-7.78125 6.9525,-1.69433 14.6341,-6.46495 72.0312,-44.59375 25.8842,-17.19473 30.6951,-20.34881 33.9375,-20.5625 z m 23.125,3.5625 6.375,0.375 c 6.6378,0.36642 8.8628,1.79653 7.2813,4.75 -1.812,3.38332 -47.7625,50.99636 -59.3438,61.5625 -14.8332,13.533 -14.8342,13.76351 -23.7187,17.6875 -14.3579,6.34133 -41.1395,5.17636 -25.3438,-3.5625 6.6259,-3.66576 14.0001,-9.33582 59.4688,-49.5625 l 35.2812,-31.25 z"
           id="path4867"
           style="fill:#c5a55e;fill-opacity:1" />
        <path
           d="m 1492.4359,674.27289 c 6.6259,-3.66575 13.9782,-9.3483 59.4469,-49.57498 l 35.3005,-31.23067 6.3728,0.3518 c 6.6378,0.36642 8.846,1.81626 7.2645,4.76973 -1.8119,3.3833 -47.7379,50.98394 -59.3192,61.55008 -14.8332,13.53301 -14.8583,13.77069 -23.7428,17.69468 -14.3578,6.3413 -41.1184,5.17822 -25.3227,-3.56064 z m -34.4504,-11.43981 c -6.5915,-3.01947 -6.5492,-6.1689 0.1045,-7.79042 6.9526,-1.69432 14.6317,-6.44656 72.0288,-44.57536 30.9642,-20.5694 31.7857,-21.03793 35.8213,-20.42753 15.1889,2.29751 15.2465,3.31564 0.8667,15.27655 -35.5261,29.55014 -70.8795,52.79219 -87.9774,57.83816 -7.3163,2.15928 -15.7113,2.02983 -20.8439,-0.3214 z m -29.8109,-18.83916 c -6.1666,-2.39381 -9.0523,-4.74228 -8.719,-7.09589 0.2185,-1.54428 1.1435,-2.22275 3.3283,-2.44148 10.0175,-1.00279 23.8889,-6.9797 74.131,-31.94156 35.739,-17.75621 36.9605,-18.27492 41.8563,-17.77284 2.7736,0.28442 6.8584,1.12711 9.0773,1.87265 7.3125,2.45692 5.8698,4.15548 -13.7851,16.23096 -31.8974,19.59701 -58.4643,33.70147 -73.9618,39.26663 -8.7895,3.15632 -26.0261,4.17213 -31.927,1.88153 z m -27.294,-24.26851 c -7.4632,-2.63643 -10.8757,-5.15088 -10.8757,-8.01398 0,-1.6313 0.8553,-1.87701 6.5344,-1.87701 7.189,0 7.0672,0.0362 73.7255,-21.93289 21.122,-6.96132 39.4451,-12.65696 40.7182,-12.65696 1.2732,0 5.4365,1.22994 9.2521,2.7332 5.6599,2.22987 6.9373,3.14616 6.9373,4.97575 0,1.9697 -2.4851,3.23437 -20.4238,10.39336 -27.4477,10.95389 -54.5036,20.78855 -67.9029,24.68228 -15.3859,4.47102 -28.4567,5.05502 -37.9651,1.69625 z m 145.9218,-75.47934 c -29.724,-8.352 -88.915,-33.05288 -111.7904,-46.65106 -8.5473,-5.08088 -17.0369,-12.78731 -20.3288,-18.45329 -5.2413,-9.0214 -3.9793,-18.11744 2.1856,-15.75316 4.3774,1.67873 89.5205,46.62963 125.6626,66.34289 21.386,11.66475 24.6103,13.89245 23.673,16.35603 -0.9481,2.49231 -5.5244,2.05796 -19.402,-1.84141 z m 18.4584,-21.87583 c -19.8999,-7.46109 -60.5903,-29.26548 -112.127,-60.08478 -16.6963,-9.98457 -24.0204,-17.41824 -30.8046,-31.26524 -3.6376,-7.42487 -7.1097,-18.77243 -7.1097,-23.23658 0,-2.84607 0.3781,-3.45355 2.1494,-3.45355 2.0327,0 41.3033,27.50873 105.7692,74.09068 47.5215,34.33795 57.4773,42.07719 57.4839,44.68471 0,1.97665 -0.5107,2.28228 -3.7767,2.23958 -2.0802,-0.0272 -7.2931,-1.36588 -11.5845,-2.97482 z m 12.7979,-26.71446 c -20.8471,-14.63244 -59.0679,-43.34727 -113.1264,-84.99047 -11.2114,-8.63636 -21.5977,-17.30765 -23.0813,-19.2695 -7.004,-9.26267 -12.0037,-24.30661 -13.1717,-39.63371 -0.5442,-7.14214 -0.3987,-8.51713 0.9567,-9.04178 0.8791,-0.3403 2.2553,-0.23708 3.0582,0.22941 3.8691,2.2479 136.2162,129.7986 153.2956,147.74008 5.5162,5.79446 8.7672,10.0038 8.5627,11.08643 -0.6999,3.70495 -4.5094,2.29138 -16.4938,-6.12046 z m 24.0918,-10.7824 c -20.4986,-16.36327 -95.5308,-90.37916 -120.3237,-118.69385 -16.9826,-19.39506 -28.3766,-34.59059 -33.0664,-44.09896 -3.363,-6.8181 -3.6815,-8.20275 -3.6279,-15.76889 0.072,-10.07574 2.7315,-18.29356 6.0787,-18.78081 1.7446,-0.25394 8.5906,7.60149 36.3509,41.71128 75.6227,92.91924 119.6815,148.42071 123.2227,155.22514 2.856,5.48788 -1.9831,5.71547 -8.6343,0.40609 z m 98.6819,-8.84018 c -2.795,-1.22455 -3.294,-1.93087 -3.0258,-4.28391 0.3161,-2.77392 0.4401,-1.23515 8.0143,-1.52547 6.4472,-0.24714 7.7985,-1.60498 8.3437,-0.17198 0.9803,2.57691 -1.8759,6.14566 -5.5045,6.87769 -4.0689,0.82083 -3.8516,0.8457 -7.8277,-0.89633 z"
           id="path5807"
           style="fill:#ffffff;fill-opacity:1" />
      </g>
    </g>
  </g>
</svg>
