<?xml version="1.0" encoding="UTF-8" standalone="no"?>
<!-- Created with Inkscape (http://www.inkscape.org/) -->

<svg
   xmlns:dc="http://purl.org/dc/elements/1.1/"
   xmlns:cc="http://creativecommons.org/ns#"
   xmlns:rdf="http://www.w3.org/1999/02/22-rdf-syntax-ns#"
   xmlns:svg="http://www.w3.org/2000/svg"
   xmlns="http://www.w3.org/2000/svg"
   version="1.0"
   width="280"
   height="200"
   viewBox="0 0 279.99999 200"
   id="Ebene_1"
   xml:space="preserve"><metadata
     id="metadata39"><rdf:RDF><cc:Work
         rdf:about=""><dc:format>image/svg+xml</dc:format><dc:type
           rdf:resource="http://purl.org/dc/dcmitype/StillImage" /><dc:title></dc:title></cc:Work></rdf:RDF></metadata><defs
     id="defs37" /><path
     d="m 220.04346,0 v 102.22014 c 0,32.17421 -20.42332,56.52756 -39.7788,72.43322 -19.49752,16.02862 -38.93922,24.35335 -39.14063,24.4424 L 139.04876,200 l -2.11201,-0.90424 c -0.2,-0.089 -19.64771,-8.41378 -39.146294,-24.4424 -19.34983,-15.90601 -39.79046,-40.25937 -39.79046,-72.43322 V 0 H 220.04346 z"
     id="path3"
     style="fill:#004888" /><polygon
     points="228.955,14.516 443.092,14.516 443.092,88.474 14.771,88.474 14.771,14.516 "
     transform="matrix(0.35335689,0,0,0.35335689,57.999996,0)"
     id="polygon5"
     style="fill:#fcc400" /><path
     d="m 139.04876,38.16078 v 155.93145 0.0951 c 0,0 -75.685874,-32.41343 -75.685874,-91.96714 V 38.16083 h 75.685874 z"
     id="path7"
     style="fill:#ffffff" /><path
     d="m 111.6212,38.16078 v 45.39717 h 27.42756 v 16.83039 H 111.6212 v 78.04028 c -5.4682,-3.81767 -11.24417,-8.32191 -16.824744,-13.4424 V 100.38834 H 63.362536 V 83.55795 h 31.43392 V 38.16078 H 111.6212 z"
     id="path9" /><path
     d="m 171.14558,175.03322 c 3.8848,-2.92262 7.87632,-6.18234 11.74063,-9.73534 V 38.16078 h -11.74063 v 136.87244 z"
     id="path11"
     style="fill:#fcc400" /><path
     d="m 149.22968,189.0947 c 3.38092,-1.85795 7.4,-4.17279 11.75547,-6.98975 V 38.16078 H 149.22968 V 189.0947 z"
     id="path13"
     style="fill:#fcc400" /><path
     d="M 193.08763,38.16078 V 154.8947 c 4.34912,-5.01237 8.37844,-10.49788 11.71307,-16.43922 V 38.16078 h -11.71307 z"
     id="path15"
     style="fill:#fcc400" /><path
     d="m 78.057946,9.47845 c 1.06466,0 2.00106,0.16501 2.76148,0.48798 0.77703,0.30813 1.39046,0.71555 1.88127,1.25018 0.48516,0.51413 0.82827,1.12473 1.04453,1.8007 0.21448,0.65866 0.32544,1.34064 0.32544,2.06926 0,0.71555 -0.11096,1.39188 -0.32544,2.07668 -0.21626,0.66007 -0.55937,1.26184 -1.04453,1.79647 -0.49081,0.50671 -1.10424,0.91873 -1.8636,1.25441 -0.77845,0.30813 -1.67491,0.47774 -2.77915,0.47774 h -4.02191 v 6.22156 h -3.83251 V 9.47845 h 7.85442 z m -1.06749,8.22544 c 0.45406,0 0.88515,-0.0322 1.28374,-0.0979 0.39435,-0.0746 0.75936,-0.18834 1.07067,-0.39011 0.31696,-0.2 0.53887,-0.43816 0.75371,-0.79435 0.16219,-0.34169 0.27173,-0.79293 0.27173,-1.33498 0,-0.55936 -0.10954,-1.01943 -0.27173,-1.36396 -0.21449,-0.32296 -0.43675,-0.60035 -0.75371,-0.78586 -0.31095,-0.17986 -0.67632,-0.30247 -1.07067,-0.37703 -0.39859,-0.0625 -0.82968,-0.0993 -1.28374,-0.0993 h -2.95442 v 5.24311 h 2.95442 z"
     id="path17"
     style="fill:#004888" /><path
     d="m 93.785856,9.51802 6.498944,17.39576 h -3.972444 l -1.31872,-3.88198 h -6.51803 l -1.36996,3.88198 h -3.84558 l 6.58516,-17.39576 h 3.94063 z m 0.21449,10.66007 -2.20389,-6.38233 h -0.0392 l -2.26678,6.38233 h 4.50989 z"
     id="path19"
     style="fill:#004888" /><path
     d="m 111.64134,9.47845 c 0.7788,0 1.48092,0.1371 2.11201,0.37985 0.61343,0.24241 1.17597,0.6046 1.62403,1.047 0.43392,0.43675 0.77562,0.95088 1.02968,1.51731 0.21767,0.59435 0.34347,1.21096 0.34347,1.86926 0,1.04594 -0.21485,1.92191 -0.65159,2.66396 -0.42792,0.75654 -1.1364,1.32615 -2.11202,1.71449 v 0.048 c 0.46891,0.14311 0.86749,0.34029 1.15654,0.60884 0.32721,0.26431 0.55936,0.59894 0.75512,0.95795 0.2,0.36219 0.34311,0.73922 0.4364,1.18445 0.089,0.45725 0.14311,0.89965 0.17809,1.33357 0.0219,0.26855 0.0336,0.59859 0.0541,0.96678 0.0219,0.37103 0.0396,0.74205 0.0936,1.14806 0.0145,0.36785 0.10636,0.75654 0.2,1.10106 0.0689,0.34876 0.21202,0.64841 0.37668,0.89364 h -3.80989 c -0.21343,-0.54488 -0.34488,-1.2212 -0.39435,-1.98905 -0.0569,-0.76537 -0.11095,-1.48975 -0.2159,-2.17455 -0.13145,-0.90848 -0.42191,-1.58764 -0.8311,-2.00389 -0.43392,-0.41307 -1.12473,-0.63074 -2.08268,-0.63074 h -3.82191 v 6.79858 h -3.82791 V 9.4784 h 9.38763 z m -1.37279,7.89964 c 0.86466,0 1.53498,-0.18834 1.98339,-0.59434 0.43392,-0.38693 0.65124,-1.01202 0.65124,-1.88834 0,-0.84877 -0.21767,-1.46785 -0.65124,-1.86078 -0.44841,-0.37951 -1.11873,-0.57385 -1.98339,-0.57385 h -4.18728 v 4.91731 h 4.18728 z"
     id="path21"
     style="fill:#004888" /><polygon
     points="219.093,41.232 206.979,76.166 198.601,76.166 186.544,41.596 186.4,41.596 186.4,76.166 176.236,76.166 176.236,26.936 191.496,26.936 203.052,60.761 203.197,60.761 214.088,26.936 229.368,26.936 229.368,76.166 219.201,76.166 219.201,41.232 "
     transform="matrix(0.35335689,0,0,0.35335689,57.999996,0)"
     id="polygon23"
     style="fill:#004888" /><path
     d="m 151.50671,9.51802 6.51802,17.39576 h -3.97244 l -1.33215,-3.88198 h -6.50177 l -1.3788,3.88198 h -3.84099 l 6.58693,-17.39576 h 3.9212 z m 0.23357,10.66007 -2.20247,-6.38233 h -0.0527 l -2.25653,6.38233 h 4.51166 z"
     id="path25"
     style="fill:#004888" /><polygon
     points="343.666,26.936 343.666,36 319.854,36 319.854,47.395 340.492,47.395 340.492,55.826 319.854,55.826 319.854,76.166 309.03,76.166 309.03,26.936 "
     transform="matrix(0.35335689,0,0,0.35335689,57.999996,0)"
     id="polygon27"
     style="fill:#004888" /><rect
     width="3.8279152"
     height="3.7473497"
     x="178.03143"
     y="23.166077"
     id="rect29"
     style="fill:#004888" /><path
     d="m 196.64381,14.13887 c -0.23533,-0.35194 -0.50813,-0.68799 -0.85159,-0.95654 -0.33887,-0.27915 -0.74205,-0.49646 -1.15229,-0.64982 -0.43393,-0.1371 -0.90248,-0.23498 -1.3788,-0.23498 -0.84417,0 -1.56396,0.1841 -2.18022,0.51413 -0.59151,0.31979 -1.09823,0.77703 -1.46183,1.32756 -0.35937,0.55937 -0.64983,1.19894 -0.83251,1.92332 -0.15477,0.71555 -0.22933,1.44135 -0.22933,2.20106 0,0.72439 0.0742,1.43569 0.22933,2.13075 0.18268,0.68339 0.47314,1.30848 0.83251,1.87809 0.3636,0.54028 0.87032,0.9742 1.46183,1.3159 0.61626,0.33463 1.3364,0.48056 2.18022,0.48056 1.21236,0 2.10318,-0.35229 2.76925,-1.06466 0.6675,-0.69647 1.04417,-1.66184 1.21237,-2.82615 h 3.69647 c -0.0862,1.09541 -0.36219,2.09435 -0.75937,2.94311 -0.39752,0.87597 -0.93604,1.63428 -1.60636,2.24594 -0.66607,0.61625 -1.44452,1.10989 -2.34417,1.43851 -0.88657,0.30212 -1.87809,0.48481 -2.96784,0.48481 -1.31272,0 -2.51767,-0.22368 -3.57067,-0.71131 -1.05901,-0.4424 -1.96573,-1.08657 -2.70778,-1.9 -0.73886,-0.8106 -1.29823,-1.76714 -1.70141,-2.86537 -0.37668,-1.08233 -0.57668,-2.26678 -0.57668,-3.53145 0,-1.28975 0.2,-2.5106 0.57668,-3.61025 0.40318,-1.12155 0.96255,-2.08833 1.70141,-2.93109 0.74205,-0.82368 1.64877,-1.46643 2.70778,-1.92368 1.05265,-0.46431 2.25795,-0.71554 3.57067,-0.71554 0.95972,0 1.88127,0.13427 2.7371,0.41625 0.83958,0.28198 1.62085,0.66749 2.2887,1.20778 0.66607,0.52438 1.22226,1.16395 1.68091,1.95123 0.43393,0.77385 0.6993,1.65901 0.8106,2.67986 h -3.70388 c -0.0541,-0.43074 -0.21484,-0.84982 -0.4311,-1.21802"
     id="path31"
     style="fill:#004888" /><rect
     width="3.8469965"
     height="3.7473497"
     x="203.75336"
     y="23.166077"
     id="rect33"
     style="fill:#004888" /></svg>