<?xml version="1.0" encoding="UTF-8" standalone="no"?>
<!-- Created with Inkscape (http://www.inkscape.org/) -->

<svg
   xmlns:dc="http://purl.org/dc/elements/1.1/"
   xmlns:cc="http://creativecommons.org/ns#"
   xmlns:rdf="http://www.w3.org/1999/02/22-rdf-syntax-ns#"
   xmlns:svg="http://www.w3.org/2000/svg"
   xmlns="http://www.w3.org/2000/svg"
   version="1.1"
   width="280"
   height="200"
   id="svg2"
   xml:space="preserve"><metadata
     id="metadata8"><rdf:RDF><cc:Work
         rdf:about=""><dc:format>image/svg+xml</dc:format><dc:type
           rdf:resource="http://purl.org/dc/dcmitype/StillImage" /><dc:title></dc:title></cc:Work></rdf:RDF></metadata><defs
     id="defs6"><clipPath
       id="clipPath16"><path
         d="m -15.903,-12.1769 412.4199,0 0,517.295 -412.4199,0 0,-517.295 z"
         id="path18" /></clipPath><clipPath
       id="clipPath54"><path
         d="m 357.733,261.4691 0,23.511 17.929,0 0,-23.511"
         id="path56" /></clipPath><clipPath
       id="clipPath62"><path
         d="m 365.5168,284.2453 c -0.0682,-0.0189 -0.1562,-0.0163 -0.2416,-0.0135 -0.0809,0.003 -0.1596,0.005 -0.2167,-0.0106 l -0.3377,0 0,-0.024 -0.2894,0 0,-0.0239 -0.2411,0 0,-0.0241 -0.2171,0 0,-0.024 -0.217,0 c -0.2042,-0.0577 -0.4767,-0.0621 -0.6755,-0.12 -0.1044,-0.008 -0.209,-0.016 -0.3136,-0.024 l 0,-0.024 c -0.0883,-0.008 -0.1769,-0.016 -0.2653,-0.024 -0.3145,-0.0944 -0.6877,-0.1383 -0.989,-0.24 -0.0643,-0.008 -0.1285,-0.0159 -0.1929,-0.024 -0.1093,-0.0368 -0.2543,-0.0835 -0.3618,-0.12 l -0.0964,0 c -0.3377,-0.112 -0.6755,-0.224 -1.013,-0.336 l 0,-0.024 -0.0483,0 0,-0.024 c -0.0482,-0.008 -0.0965,-0.016 -0.1448,-0.024 l 0,-0.024 c -0.0321,-0.008 -0.0643,-0.016 -0.0964,-0.024 l 0,-0.024 -0.0723,0 0,-0.0239 -0.0484,0 0,-0.0241 -0.0722,0 0,-0.024 c -0.0482,-0.016 -0.0965,-0.032 -0.1448,-0.048 l 0,-0.024 -0.0482,0 0,-0.024 -0.0483,0 0,-0.0239 -0.0481,0 0,-0.0241 -0.0483,0 -0.0483,-0.048 -0.0483,0 0,-0.024 c -0.0241,-0.008 -0.0482,-0.016 -0.0724,-0.024 -0.008,-0.0159 -0.0159,-0.032 -0.024,-0.048 l -0.0483,0 c -0.024,-0.032 -0.0481,-0.064 -0.0724,-0.096 -0.0723,-0.064 -0.1446,-0.128 -0.217,-0.192 l 0,-0.0479 c -0.0161,-0.008 -0.0321,-0.0161 -0.0482,-0.0241 -0.008,-0.032 -0.0162,-0.0641 -0.0242,-0.0959 l -0.0241,0 c -0.0161,-0.0481 -0.0322,-0.0961 -0.0483,-0.1441 l -0.024,0 c -0.1537,-0.3499 -0.0965,-0.9527 -0.0965,-1.44 l 0,-2.904 c -0.008,-3.3836 -0.0161,-6.7683 -0.0242,-10.152 0.0869,0.0196 0.1671,0.0666 0.2413,0.096 0.0482,0.008 0.0965,0.016 0.1446,0.024 l 0,0.024 0.0725,0 0,0.0239 0.0723,0 0,0.024 0.0724,0 0,0.0241 0.0723,0 0,0.0239 0.0724,0 0,0.024 0.0724,0 0,0.024 c 0.434,0.104 0.8683,0.208 1.3025,0.3121 0.5145,0.0799 1.0291,0.16 1.5437,0.24 0.1446,0.008 0.2894,0.016 0.434,0.024 l 0,0.024 0.2171,0 0,0.0239 0.2653,0 0,0.0241 0.2653,0 0,0.0239 0.2894,0 0,0.024 0.3378,0 0,0.0241 0.5789,0.024 0.2653,0 0,0.024 0.5789,0 c 0.1806,0.0509 0.4776,0.024 0.6995,0.024 0.3376,0.008 0.6754,0.016 1.013,0.024 l 1.013,0 0,-0.024 0.0965,0 c 0.0752,-0.002 0.1577,6e-4 0.2417,0.003 0.1823,0.005 0.3711,0.0106 0.506,-0.027 0.0765,-0.0215 0.1786,-0.0169 0.2801,-0.0123 0.1005,0.005 0.2006,0.009 0.2747,-0.0117 0.3537,-0.016 0.7075,-0.032 1.0612,-0.0481 l 0,-0.024 0.2654,0 0,-0.0239 0.2653,0 0,-0.0241 0.2171,0 0,-0.0239 0.217,0 0,-0.024 0.193,0 0,-0.024 0.1929,0 c 0.5146,-0.088 1.0293,-0.1761 1.5438,-0.264 l 0,-0.0241 c 0.0723,-0.008 0.1447,-0.0159 0.217,-0.0239 l 0,-0.024 0.0966,0 0,-0.0241 0.0964,0 0,-0.024 0.0965,0 0,-0.0239 c 0.0643,-0.008 0.1287,-0.0161 0.1929,-0.0241 l 0,-0.024 c 0.0563,-0.008 0.1126,-0.0159 0.1689,-0.0238 l 0,-0.0241 0.0723,0 0,-0.024 0.0724,0 0,-0.024 0.0723,0 0,-0.024 0.0965,0 0,-0.024 0.0724,0 0,-0.0239 0.0482,0 0,-0.0242 0.0724,0 0,-0.0239 0.0722,0 0,-0.0239 0.0725,0 0,-0.024 0.0723,0 0,-0.024 0.0724,0 c 0.0638,-0.0258 0.1022,-0.065 0.193,-0.0721 l 0,11.112 0,1.9681 c 1e-4,0.2985 0.0476,0.76 -0.024,1.0079 l 0,0.144 -0.0243,0 0,0.096 -0.0241,0 -0.0241,0.144 -0.0241,0 c -0.0161,0.048 -0.0322,0.096 -0.0483,0.1441 l -0.0241,0 0,0.0479 -0.024,0 c -0.008,0.024 -0.0161,0.048 -0.0241,0.0721 -0.0162,0.008 -0.0323,0.0159 -0.0484,0.0239 l 0,0.048 c -0.024,0.016 -0.0482,0.032 -0.0723,0.048 -0.0563,0.064 -0.1126,0.128 -0.1688,0.192 l -0.0483,0 c -0.008,0.016 -0.0161,0.032 -0.0241,0.0481 -0.0241,0.008 -0.0483,0.0159 -0.0724,0.0239 l 0,0.024 c -0.0321,0.008 -0.0642,0.0159 -0.0965,0.024 -0.008,0.016 -0.016,0.032 -0.0241,0.048 l -0.0482,0 0,0.0241 -0.0724,0 0,0.0239 -0.0481,0 0,0.024 c -0.0484,0.016 -0.0966,0.032 -0.1447,0.048 l 0,0.024 c -0.0403,0.008 -0.0806,0.016 -0.1207,0.024 l 0,0.0241 -0.0483,0 0,0.0239 -0.0723,0 0,0.024 -0.0483,0 0,0.024 c -0.0482,0.008 -0.0965,0.016 -0.1446,0.024 l 0,0.024 -0.0483,0 0,0.024 c -0.0483,0.008 -0.0965,0.016 -0.1447,0.024 l 0,0.024 -0.0483,0 0,0.024 c -0.0481,0.008 -0.0965,0.016 -0.1447,0.024 l 0,0.024 -0.0724,0 0,0.024 -0.0724,0 0,0.0239 -0.0723,0 0,0.024 -0.0724,0 0,0.024 -0.0723,0 0,0.024 -0.0724,0 0,0.024 -0.0964,0 0,0.024 -0.0723,0 0,0.024 -0.0725,0 0,0.024 -0.0964,0 c -0.2892,0.1033 -0.6403,0.1674 -0.9406,0.2641 -0.0725,0.008 -0.1449,0.016 -0.2171,0.024 l 0,0.024 -0.1207,0 0,0.024 -0.1206,0 0,0.024 -0.1206,0 0,0.0239 -0.1446,0 c -0.3194,0.0965 -0.7323,0.0966 -1.0613,0.1921 l -0.1931,0 0,0.024 -0.1929,0 0,0.024 c -0.2573,0.016 -0.5146,0.0321 -0.7719,0.048 l 0,0.024 c -0.1767,0.008 -0.3537,0.016 -0.5306,0.0241 l -0.2653,0 0,0.0239 -1.3748,0 c -0.1299,0 -0.2833,0.009 -0.4287,0.009 -0.1275,0 -0.249,-0.007 -0.3432,-0.0329 m 0.6994,-16.1281 c -0.0328,-0.0287 -0.1026,-0.0269 -0.1688,-0.025 -0.0165,5e-4 -0.0328,9e-4 -0.0481,9e-4 l -0.5066,0 c -0.5869,-0.024 -1.1739,-0.0479 -1.7607,-0.072 l 0,-0.024 -0.3377,0 0,-0.0238 -0.3136,0 0,-0.0241 -0.2654,0 0,-0.024 -0.2411,0 0,-0.024 -0.2413,0 0,-0.024 -0.217,0 0,-0.024 -0.1929,0 0,-0.0239 -0.1931,0 0,-0.0242 -0.1687,0 c -0.1405,-0.0405 -0.3447,-0.0551 -0.4824,-0.0959 l -0.1448,0 0,-0.024 c -0.0964,-0.008 -0.193,-0.016 -0.2893,-0.024 -0.3138,-0.0941 -0.6917,-0.1351 -0.9891,-0.24 l -0.2893,-0.0481 0,-0.0239 c -0.0804,-0.016 -0.1609,-0.0321 -0.2413,-0.0481 l 0,-0.024 -0.0723,0 0,-0.0239 -0.0724,0 0,-0.024 c -0.0483,-0.008 -0.0965,-0.016 -0.1447,-0.024 l 0,-0.024 -0.0483,0 0,-0.024 -0.0724,0 0,-0.024 -0.0481,0 0,-0.0239 -0.0724,0 c -0.0805,-0.0561 -0.1609,-0.1122 -0.2413,-0.1681 -0.2307,-0.3141 -0.1446,-1.1649 -0.1447,-1.704 -10e-5,-0.4709 -0.0764,-1.2577 0.1207,-1.5361 l 0.0482,-0.024 c 0.0241,-0.032 0.0482,-0.0639 0.0724,-0.0959 l 0.0481,0 c 0.008,-0.016 0.0161,-0.032 0.0243,-0.048 0.0402,-0.008 0.0803,-0.016 0.1205,-0.024 l 0,-0.0241 0.0482,0 0,-0.0239 c 0.0484,-0.008 0.0965,-0.016 0.1448,-0.024 l 0,-0.0241 0.0482,0 0,-0.024 c 0.0482,-0.008 0.0965,-0.016 0.1448,-0.0239 0.2353,-0.0925 0.5243,-0.1607 0.7718,-0.2401 l 0.3136,-0.0479 0,-0.024 0.1205,0 0,-0.024 0.1207,0 0,-0.024 0.1206,0 0,-0.0241 c 0.1849,-0.0239 0.3698,-0.0479 0.5547,-0.072 0.2448,-0.0725 0.5707,-0.072 0.8201,-0.1439 l 0.2171,0 0,-0.024 0.1929,0 0,-0.024 c 0.1609,-0.008 0.3217,-0.0161 0.4824,-0.0241 l 0,-0.0239 0.2653,0 0,-0.024 0.2653,0 c 0.0338,-0.005 -0.009,-0.0147 0.0243,-0.0241 l 0.3134,0 0,-0.024 0.3619,0 0,-0.0238 c 0.225,-0.008 0.4501,-0.0161 0.6753,-0.0241 l 0.3136,0 c 0.121,-0.0341 0.302,-0.0303 0.4698,-0.0264 0.0546,10e-4 0.1079,0.002 0.1572,0.002 0.2734,-0.008 0.5469,-0.016 0.8201,-0.024 l 1.0613,0 c 0.1866,0 0.4318,-0.0168 0.5789,0.024 l 0.7478,0 0,0.024 c 0.2974,0.008 0.595,0.016 0.8924,0.0241 l 0,0.0238 0.3376,0 c 0,0 0.002,0.0201 0.0483,0.024 l 0.2653,0 0,0.0241 0.2654,0 0,0.024 0.2411,0 c 0.2934,0.0826 0.6763,0.0606 0.9648,0.144 0.2893,0.0399 0.5789,0.0799 0.8683,0.12 l 0,0.024 0.1207,0 0,0.0239 0.1205,0 0,0.0241 0.0966,0 0,0.024 0.1205,0 0,0.024 c 0.0965,0.016 0.193,0.032 0.2896,0.048 l 0,0.0239 c 0.0963,0.0161 0.1928,0.0321 0.2894,0.048 l 0,0.024 c 0.0562,0.008 0.1123,0.0161 0.1687,0.0241 l 0,0.024 0.0724,0 0,0.0239 0.0723,0 0,0.0241 0.0724,0 0,0.024 0.0723,0 0,0.024 c 0.0484,0.008 0.0965,0.016 0.1449,0.024 l 0,0.0239 0.0481,0 0,0.024 c 0.0483,0.008 0.0965,0.016 0.1448,0.0241 l 0,0.024 0.0482,0 0,0.0239 0.0483,0 0,0.0241 0.0481,0 0,0.024 0.0725,0 c 0.008,0.016 0.016,0.032 0.024,0.048 l 0.0484,0 0.0241,0.048 c 0.0401,0.032 0.0803,0.0639 0.1205,0.096 0.008,0.032 0.0161,0.0639 0.0241,0.096 l 0.0241,0 c 0.0765,0.1741 0.0483,0.4998 0.0483,0.744 l 0,1.5119 c 1e-4,0.2515 0.0265,0.6142 -0.0724,0.7681 -0.0241,0.016 -0.0482,0.0319 -0.0723,0.048 l 0,0.048 c -0.0643,0.0479 -0.1287,0.096 -0.193,0.1439 l -0.0482,0 0,0.0241 -0.0723,0 0,0.024 c -0.0323,0.008 -0.0643,0.016 -0.0966,0.024 l 0,0.024 -0.0723,0 0,0.024 -0.0483,0 0,0.024 c -0.0481,0.008 -0.0965,0.0159 -0.1446,0.024 l 0,0.0239 -0.0725,0 0,0.024 -0.0722,0 0,0.0241 -0.0724,0 0,0.024 -0.0723,0 0,0.0239 -0.0725,0 0,0.0241 c -0.0562,0.008 -0.1125,0.016 -0.1688,0.024 l 0,0.024 c -0.0643,0.008 -0.1286,0.016 -0.1929,0.024 l 0,0.0239 c -0.1368,0.024 -0.2735,0.0481 -0.4101,0.0721 -0.2175,0.0694 -0.4978,0.1005 -0.7236,0.168 l -0.2895,0.024 0,0.0239 -0.1447,0 0,0.024 -0.1688,0 0,0.0241 -0.1689,0 0,0.024 c -0.201,0.0159 -0.4019,0.0319 -0.6029,0.048 l 0,0.024 -0.2172,0 0,0.024 -0.2653,0 0,0.0241 -0.2653,0 0,0.0238 -0.3136,0 0,0.024 -0.3618,0 0,0.0241 c -0.217,0.008 -0.4341,0.0159 -0.6513,0.0239 l -0.3134,0 c -0.1504,0.0423 -0.3427,0.0338 -0.5356,0.0254 -0.1309,-0.006 -0.2622,-0.0115 -0.381,-0.001 -0.2651,0.0226 -0.5655,0.0282 -0.8676,0.0282 -0.2039,0 -0.4088,-0.003 -0.6038,-0.004"
         id="path64" /></clipPath><clipPath
       id="clipPath80"><path
         d="m 356.267,18.5031 13.2451,0 0,72.257 -13.2451,0 0,-72.257 z"
         id="path82" /></clipPath><clipPath
       id="clipPath92"><path
         d="m 350.8087,97.871 24.821,0 0,61.0861 -24.821,0 0,-61.0861 z"
         id="path94" /></clipPath><clipPath
       id="clipPath100"><path
         d="m 356.5148,100.753 14.414,0 0,55.0395 -14.414,0 0,-55.0395 z"
         id="path102" /></clipPath><clipPath
       id="clipPath122"><path
         d="m 345.827,498.8981 31.181,0 0,39.685 -31.181,0 0,-39.685 z"
         id="path124" /></clipPath><clipPath
       id="clipPath130"><path
         d="m 348.39,501.4701 27.3733,0 0,35.2301 -27.3733,0 0,-35.2301 z"
         id="path132" /></clipPath><clipPath
       id="clipPath138"><path
         d="m 375.7487,527.3179 -0.0177,-7.721 c 0.1993,-2.8839 -0.5448,-5.6881 -1.6477,-8.1863 -1.9534,-4.5318 -7.5483,-9.183 -12.2661,-9.9405 l 0.0134,0.0135 c -6.7376,1.608 -12.4386,8.0665 -13.2361,14.9238 -0.1863,1.0631 -0.2193,1.9802 -0.1994,3.2294 l 0.0128,6.6976 0,10.3658 27.3408,0"
         id="path140" /></clipPath></defs><g
     transform="matrix(0.83333333,0,0,-0.83333333,10.386482,479.84691)"
     id="g10"><g
       transform="translate(-57.653797,-57.653797)"
       id="g24"><g
         transform="matrix(6.8123565,0,0,6.8123565,-2244.167,-3022.723)"
         id="g118"><g
           clip-path="url(#clipPath122)"
           id="g120"><g
             id="g126"><g
               clip-path="url(#clipPath130)"
               id="g128"><g
                 id="g134"><g
                   clip-path="url(#clipPath138)"
                   id="g136"><path
                     d="m 348.4079,536.7002 27.3408,0 0,-9.3823 -0.0177,-7.721 c 0.1993,-2.8839 -0.5448,-5.6881 -1.6477,-8.1863 -1.9534,-4.5318 -7.5483,-9.183 -12.2661,-9.9405 l 0.0134,0.0135 c -6.7376,1.608 -12.4386,8.0665 -13.2361,14.9238 -0.1863,1.0631 -0.2193,1.9802 -0.1994,3.2294"
                     id="path142"
                     style="fill:#ffffff;fill-opacity:1;fill-rule:nonzero;stroke:none" /><path
                     d="m 375.7471,535.8762 -0.01,0.8272 -7.2352,-9e-4 -20.0925,-11.1211 -0.0157,-4.7752"
                     id="path144"
                     style="fill:#0063a8;fill-opacity:1;fill-rule:nonzero;stroke:none" /><path
                     d="m 376.3455,531.3313 -27.8457,-15.147 -0.0116,-2.023 27.8708,15.1367"
                     id="path146"
                     style="fill:#ee1d23;fill-opacity:1;fill-rule:nonzero;stroke:none" /><path
                     d="m 376.3455,529.338 -27.8457,-15.1473 -0.0116,-2.0227 27.8708,15.4689"
                     id="path148"
                     style="fill:#231f20;fill-opacity:1;fill-rule:nonzero;stroke:none" /><path
                     d="m 379.0002,525.0189 -30.5004,-16.9411 -0.0116,-4.8138 29.1962,16.0006"
                     id="path150"
                     style="fill:#0063a8;fill-opacity:1;fill-rule:nonzero;stroke:none" /><path
                     d="m 357.3208,505.9048 -0.3106,-0.1702 -0.0588,0.1073 -0.003,-0.002 c -0.0139,-0.1175 -0.076,-0.2088 -0.2044,-0.2792 -0.1513,-0.0829 -0.3403,-0.0659 -0.4464,0.1277 l -0.3174,0.5788 0.322,0.1765 0.2425,-0.4422 c 0.0535,-0.0978 0.1023,-0.1597 0.1966,-0.108 0.0554,0.0302 0.1134,0.0981 0.0394,0.233 l -0.2443,0.4456 0.3221,0.1766"
                     id="path152"
                     style="fill:#0063a8;fill-opacity:1;fill-rule:nonzero;stroke:none" /><path
                     d="m 357.3345,506.3311 0.3383,0.1856 0.1765,-0.3221 -0.3383,-0.1853"
                     id="path154"
                     style="fill:#0063a8;fill-opacity:1;fill-rule:nonzero;stroke:none" /><path
                     d="m 358.2974,507.1213 c -0.022,0.0323 -0.0486,0.0538 -0.0795,0.06 -0.0294,0.007 -0.0623,0.002 -0.0965,-0.0169 -0.1236,-0.0677 -0.0826,-0.1848 -0.0265,-0.2874 0.0562,-0.1024 0.1321,-0.1984 0.2557,-0.1306 0.0699,0.0383 0.0874,0.1221 0.0574,0.1922 l 0.3074,0.1686 c 0.0948,-0.2462 -0.0153,-0.4737 -0.243,-0.5985 -0.2537,-0.1391 -0.5532,-0.0749 -0.6995,0.1918 -0.1462,0.2667 -0.0401,0.5555 0.2137,0.6946 0.2211,0.1213 0.4695,0.1155 0.6165,-0.1063"
                     id="path156"
                     style="fill:#0063a8;fill-opacity:1;fill-rule:nonzero;stroke:none" /><path
                     d="m 358.8713,507.1736 0.3383,0.1855 0.1766,-0.3221 -0.3383,-0.1854"
                     id="path158"
                     style="fill:#0063a8;fill-opacity:1;fill-rule:nonzero;stroke:none" /><path
                     d="m 360.2795,508.305 c -0.0168,0.0269 -0.0431,0.04 -0.0722,0.043 -0.0285,0.006 -0.0589,-6e-4 -0.085,-0.0148 -0.0455,-0.025 -0.0922,-0.0632 -0.0619,-0.1186 0.0134,-0.0245 0.0391,-0.025 0.0615,-0.0234 0.0661,0.007 0.1917,0.0671 0.3187,0.0901 0.126,0.0247 0.255,0.013 0.3308,-0.1253 0.1284,-0.234 -0.0612,-0.4206 -0.2662,-0.5329 -0.1984,-0.1088 -0.4599,-0.1485 -0.5843,0.0667 l 0.3074,0.1685 c 0.0176,-0.0283 0.044,-0.0456 0.08,-0.0535 0.0243,-0.006 0.0605,0.002 0.0996,0.0229 0.0423,0.0231 0.1,0.076 0.0733,0.1248 -0.0267,0.0488 -0.0624,0.0483 -0.2263,-0.008 -0.2688,-0.0923 -0.4108,-0.0685 -0.4901,0.0761 -0.1168,0.2131 0.0822,0.3941 0.2513,0.4868 0.1822,0.0999 0.4294,0.1697 0.5561,-0.0421"
                     id="path160"
                     style="fill:#0063a8;fill-opacity:1;fill-rule:nonzero;stroke:none" /><path
                     d="m 361.3593,508.6114 c -0.0283,-0.0408 -0.066,-0.0762 -0.1046,-0.1101 -0.0627,-0.0555 -0.0902,-0.0939 -0.059,-0.1509 0.0213,-0.039 0.0851,-0.0547 0.1436,-0.0227 0.0732,0.0402 0.106,0.1154 0.0627,0.2058 l -0.0427,0.0779 z m 0.4133,-0.0208 c 0.0348,-0.0634 0.0773,-0.1333 0.1424,-0.1672 l -0.3285,-0.18 c -0.0206,0.0182 -0.0442,0.0496 -0.0551,0.0734 l -0.003,-0.002 c -0.0255,-0.1155 -0.1122,-0.1926 -0.2163,-0.2497 -0.1627,-0.089 -0.3404,-0.085 -0.4376,0.0921 -0.1462,0.2667 0.1714,0.4282 0.3187,0.5491 0.0394,0.0322 0.0762,0.0695 0.0469,0.1231 -0.0313,0.0568 -0.0965,0.0485 -0.1486,0.0201 -0.0992,-0.0544 -0.0911,-0.1155 -0.0731,-0.1523 l -0.2992,-0.164 c -0.1204,0.2429 0.0827,0.4048 0.2826,0.5146 0.4033,0.2211 0.4919,0.0518 0.5811,-0.1109"
                     id="path162"
                     style="fill:#0063a8;fill-opacity:1;fill-rule:nonzero;stroke:none" /><path
                     d="m 361.5824,509.3387 0.3107,0.1703 0.0614,-0.1121 0.003,0.002 c 0.0116,0.1331 0.0863,0.2206 0.2034,0.285 0.0911,0.0499 0.2145,0.0561 0.2999,-0.007 0.008,0.0168 0.006,0.1744 0.2156,0.2894 0.2163,0.1186 0.3715,0.009 0.4464,-0.1275 l 0.3174,-0.579 -0.3221,-0.1765 -0.2504,0.4569 c -0.0437,0.0797 -0.0911,0.1469 -0.1887,0.0933 -0.0812,-0.0445 -0.0741,-0.1232 -0.026,-0.2109 l 0.2505,-0.4571 -0.322,-0.1763 -0.2505,0.4568 c -0.0437,0.0797 -0.091,0.1469 -0.1886,0.0933 -0.0814,-0.0445 -0.0742,-0.1231 -0.0261,-0.2109 l 0.2505,-0.4571 -0.322,-0.1763"
                     id="path164"
                     style="fill:#0063a8;fill-opacity:1;fill-rule:nonzero;stroke:none" /><path
                     d="m 363.9482,509.8151 c 0.1155,0.0632 0.0817,0.1864 0.0274,0.2856 -0.0553,0.1009 -0.1411,0.1957 -0.2566,0.1323 -0.1154,-0.0634 -0.0817,-0.1866 -0.0264,-0.2875 0.0544,-0.0991 0.1402,-0.1938 0.2556,-0.1304 z m -0.798,0.383 0.3106,0.1704 0.0508,-0.0928 0.003,0.002 c 0.0112,0.076 0.027,0.1629 0.1847,0.2494 0.2391,0.1309 0.4839,-0.0416 0.5997,-0.2529 0.1088,-0.1984 0.1643,-0.481 -0.1186,-0.6362 -0.0961,-0.0527 -0.2054,-0.0574 -0.2934,-0.0128 l -0.003,-0.002 0.2006,-0.3661 -0.322,-0.1765"
                     id="path166"
                     style="fill:#0063a8;fill-opacity:1;fill-rule:nonzero;stroke:none" /><path
                     d="m 364.7468,510.7964 c -0.1155,-0.0634 -0.0818,-0.1864 -0.0273,-0.2858 0.0553,-0.1008 0.1411,-0.1955 0.2566,-0.1322 0.1154,0.0634 0.0816,0.1864 0.0264,0.2874 -0.0544,0.099 -0.1402,0.1939 -0.2557,0.1306 z m 0.7981,-0.3833 -0.3106,-0.1702 -0.0509,0.0928 -0.003,-0.002 c -0.0112,-0.076 -0.0271,-0.1629 -0.1848,-0.2494 -0.2391,-0.1309 -0.4839,0.0415 -0.5997,0.2529 -0.1088,0.1986 -0.1643,0.481 0.1187,0.6362 0.0958,0.0526 0.2053,0.0576 0.2933,0.0128 l 0.003,0.002 -0.2247,0.4098 0.3221,0.1766"
                     id="path168"
                     style="fill:#0063a8;fill-opacity:1;fill-rule:nonzero;stroke:none" /><path
                     d="m 365.7991,511.3732 c -0.122,-0.0669 -0.0732,-0.1946 -0.0241,-0.2839 0.0489,-0.0896 0.1312,-0.2009 0.2533,-0.1341 0.1217,0.0669 0.0721,0.196 0.0232,0.2856 -0.049,0.0893 -0.1304,0.1992 -0.2524,0.1324 z m 0.3575,-0.6522 c -0.3172,-0.1738 -0.5752,-0.0426 -0.7037,0.1917 -0.1283,0.2342 -0.0994,0.5208 0.2178,0.6947 0.3172,0.1738 0.5744,0.044 0.7027,-0.1903 0.1285,-0.2339 0.1003,-0.5222 -0.2168,-0.6961"
                     id="path170"
                     style="fill:#0063a8;fill-opacity:1;fill-rule:nonzero;stroke:none" /><path
                     d="m 366.2825,511.9152 0.3088,0.1693 0.0741,-0.1349 0.003,0.002 c -0.003,0.1295 0.0346,0.2223 0.1517,0.2864 0.0327,0.018 0.0663,0.03 0.1016,0.0388 l 0.1559,-0.2847 c -0.0388,-0.006 -0.0733,-0.0128 -0.1384,-0.0483 -0.1269,-0.0696 -0.1541,-0.1818 -0.0553,-0.3624 l 0.1829,-0.3333 -0.322,-0.1766"
                     id="path172"
                     style="fill:#0063a8;fill-opacity:1;fill-rule:nonzero;stroke:none" /><path
                     d="m 367.0108,512.3146 0.3221,0.1765 0.4627,-0.844 -0.3219,-0.1767 -0.4629,0.8442 z m 0.2723,0.2675 -0.322,-0.1765 -0.124,0.2259 0.322,0.1767"
                     id="path174"
                     style="fill:#0063a8;fill-opacity:1;fill-rule:nonzero;stroke:none" /><path
                     d="m 368.2855,512.4083 c -0.0283,-0.0407 -0.0659,-0.0763 -0.1044,-0.1102 -0.0628,-0.0554 -0.0904,-0.0939 -0.0591,-0.1507 0.0213,-0.0391 0.085,-0.0549 0.1435,-0.0229 0.0733,0.0402 0.1061,0.1154 0.0629,0.2058 l -0.0429,0.078 z m 0.4133,-0.0207 c 0.0349,-0.0636 0.0774,-0.1333 0.1426,-0.1674 l -0.3287,-0.18 c -0.0206,0.0182 -0.0441,0.0498 -0.055,0.0734 l -0.003,-0.002 c -0.0255,-0.1153 -0.1122,-0.1926 -0.2163,-0.2496 -0.1626,-0.0891 -0.3405,-0.0851 -0.4376,0.0922 -0.1463,0.2667 0.1713,0.4281 0.3187,0.5491 0.0394,0.0322 0.0763,0.0693 0.0467,0.1229 -0.031,0.0569 -0.0963,0.0486 -0.1485,0.0201 -0.0992,-0.0544 -0.091,-0.1155 -0.0731,-0.1521 l -0.2992,-0.1642 c -0.1203,0.2429 0.0827,0.405 0.2827,0.5146 0.4032,0.2211 0.4919,0.0518 0.5812,-0.1108"
                     id="path176"
                     style="fill:#0063a8;fill-opacity:1;fill-rule:nonzero;stroke:none" /><path
                     d="m 369.3446,512.7589 c 0.008,-0.0152 0.0184,-0.0273 0.0284,-0.0358 0.0333,-0.0288 0.078,-0.0142 0.1124,0.005 0.0304,0.0165 0.0712,0.0522 0.0467,0.0966 -0.0171,0.0312 -0.0478,0.0255 -0.1675,-0.002 -0.1099,-0.0252 -0.2328,-0.0587 -0.2992,0.0626 -0.0762,0.1389 0.01,0.2637 0.1334,0.3317 0.1306,0.0713 0.2731,0.0849 0.3584,-0.0589 l -0.175,-0.0958 c -0.009,0.0244 -0.0276,0.0342 -0.0482,0.0358 -0.0211,0.003 -0.0445,-0.005 -0.063,-0.0147 -0.0253,-0.0138 -0.0627,-0.0432 -0.0443,-0.0768 0.0268,-0.0412 0.1177,-0.003 0.2158,0.0196 0.0979,0.0231 0.2037,0.0298 0.2642,-0.0806 0.0857,-0.1565 -0.0304,-0.2861 -0.1642,-0.3594 -0.0683,-0.0372 -0.2762,-0.1195 -0.383,0.0714"
                     id="path178"
                     style="fill:#0063a8;fill-opacity:1;fill-rule:nonzero;stroke:none" /><path
                     d="m 369.7833,512.9533 0.175,0.0962 0.0916,-0.1667 -0.1752,-0.0962"
                     id="path180"
                     style="fill:#0063a8;fill-opacity:1;fill-rule:nonzero;stroke:none" /><path
                     d="m 370.3219,513.1752 c 0.0596,0.0328 0.0422,0.0965 0.0142,0.148 -0.0288,0.0522 -0.0731,0.1012 -0.1328,0.0683 -0.06,-0.0327 -0.0424,-0.0964 -0.0138,-0.1486 0.028,-0.0515 0.0725,-0.1003 0.1324,-0.0677 z m -0.4132,0.1985 0.1608,0.0881 0.0264,-0.048 0.002,8e-4 c 0.006,0.0394 0.0141,0.0843 0.0958,0.1291 0.1237,0.0679 0.2503,-0.0214 0.3102,-0.1309 0.0565,-0.1027 0.0852,-0.2491 -0.0612,-0.3292 -0.0498,-0.0273 -0.1063,-0.0298 -0.152,-0.007 l -0.002,-8e-4 0.1038,-0.1894 -0.1667,-0.0914"
                     id="path182"
                     style="fill:#0063a8;fill-opacity:1;fill-rule:nonzero;stroke:none" /><path
                     d="m 370.61,513.4064 0.1751,0.0962 0.0913,-0.1667 -0.175,-0.096"
                     id="path184"
                     style="fill:#0063a8;fill-opacity:1;fill-rule:nonzero;stroke:none" /><path
                     d="m 371.1721,513.777 -0.1554,0.1557 -0.002,-10e-4 0.0433,-0.2169 0.1138,0.0622 z m -0.3574,0.3066 0.1809,0.0993 0.5483,-0.4811 -0.192,-0.1051 -0.0721,0.072 -0.1912,-0.105 0.0201,-0.1004 -0.1859,-0.1022"
                     id="path186"
                     style="fill:#0063a8;fill-opacity:1;fill-rule:nonzero;stroke:none" /><path
                     d="m 371.5902,513.7271 0.1752,0.0961 -0.0914,0.1667 -0.1752,-0.0961"
                     id="path188"
                     style="fill:#0063a8;fill-opacity:1;fill-rule:nonzero;stroke:none" /><path
                     d="m 348.4079,536.7002 27.3408,0 0,-9.3823 -0.0177,-7.721 c 0.1993,-2.8839 -0.5448,-5.6881 -1.6477,-8.1863 -0.59378,-1.37754 -1.52403,-2.76611 -2.66383,-4.053 -0.12629,-0.14258 -0.25514,-0.28391 -0.3864,-0.42384 -2.58141,-2.752 -6.09103,-4.96193 -9.21587,-5.46366 l 0.0134,0.0135 c -6.7376,1.608 -12.4386,8.0665 -13.2361,14.9238 -0.1863,1.0631 -0.2193,1.9802 -0.1994,3.2294 z"
                     id="path190"
                     style="fill:none;stroke:#231f20;stroke-width:1.99290013;stroke-linecap:square;stroke-linejoin:miter;stroke-miterlimit:2;stroke-opacity:1;stroke-dasharray:none" /><path
                     d="m 362.6546,531.0125 c 0.2657,-0.1597 -0.1197,-0.5184 0.226,-0.6115 0.3587,0.1597 0.8636,0.1331 1.1828,-0.0928 0.2258,-0.2394 0.4914,-0.4919 0.3852,-0.8239 -0.226,0.1462 -0.5182,0.2524 -0.7975,0.1593 -0.239,-0.0796 -0.5446,-0.1993 -0.6112,-0.4784 0.2791,-0.1328 0.5582,0.1062 0.8905,0.0266 1.6878,-0.0401 2.8174,-0.6113 4.4385,-0.1197 0.6912,0.1728 1.3819,0.3722 2.0999,0.4784 0.1196,-0.0131 0.279,-0.1062 0.1993,-0.2259 -0.4918,-0.6378 -1.2227,-1.1032 -1.8474,-1.5946 -0.6643,-0.4918 -1.4217,-0.864 -1.9801,-1.4753 0.2393,-0.2789 0.5184,-0.558 0.824,-0.8239 0.4518,0.1197 0.7308,0.3056 1.2092,0.1597 0.8109,-0.1066 1.8074,-0.1197 2.5252,0.2525 l 0.1859,0 c -0.6909,-0.6116 -1.4749,-1.1562 -2.2326,-1.6881 -0.0132,-0.558 0.7577,-0.4518 1.0233,-0.8236 0.0797,-0.9037 0.4122,-1.6881 0.9302,-2.3923 -0.3587,-0.1729 -0.9036,0.6911 -1.0896,-0.0663 -0.4388,-1.1562 -0.638,-2.4189 -0.638,-3.761 -0.3587,0.1994 -0.6112,0.6248 -0.8637,0.957 -0.3853,0.3454 -0.3322,1.1163 -0.9835,1.1428 -0.8104,0.1194 -1.5812,-0.1065 -2.0731,-0.7974 -0.1729,-0.3722 -0.2391,-0.9037 0.0665,-1.2492 0.4254,-0.6247 1.063,-0.8903 1.6877,-1.1426 -0.1063,-0.1463 -0.3987,-0.08 -0.5715,-0.1862 -0.7971,-0.2261 -1.568,-0.5052 -2.2723,-0.9305 -1.4753,-0.8504 -3.0166,-2.0067 -4.0801,-3.4819 -0.0662,-0.0397 -0.0928,-0.1459 -0.1859,-0.1193 0.3987,1.5283 0.4253,3.5215 -0.5184,4.8105 -0.1593,-0.0264 -0.2124,-0.2123 -0.3187,-0.3185 -0.319,-0.5186 -0.5184,-1.0901 -0.5715,-1.7147 -0.3722,-0.0929 -0.7044,0.1462 -1.0765,0.1596 -1.329,0.2125 -2.6444,0.4384 -3.9603,0.6643 0.5715,0.505 1.1696,1.1431 1.7277,1.6877 l -0.1062,0.0932 c -0.5716,-0.1063 -1.0631,-0.4119 -1.6481,-0.4785 l 0,0.226 c 0.2259,0.5846 0.5584,1.1295 0.6912,1.7542 -0.1597,0.1197 -0.3587,-0.0666 -0.5315,-0.093 -0.279,-0.1729 -0.5849,-0.3191 -0.9302,-0.3191 0.0797,0.3455 0.3587,0.6115 0.4519,0.9571 0.0265,0.1859 0.3452,0.4384 0.0531,0.5712 -0.4122,-0.0131 -0.771,-0.1729 -1.0766,-0.4384 0.0532,0.3986 0.7606,0.7309 0.9735,1.1427 -0.2791,0.1596 -0.8371,-0.01 -1.1561,-0.0496 -0.2394,-0.0931 -0.482,-0.1395 -0.6548,-0.3523 -0.0531,-0.2125 0.1066,-0.608 -0.2124,-0.7143 -0.3722,-0.0931 -0.8638,-0.1197 -1.1828,0.0666 -0.04,0.6644 -0.1728,1.2889 -0.2525,1.9401 0.319,0.2923 0.7975,0.3322 1.2359,0.2525 0.1463,-0.0665 0.3191,-0.093 0.4518,-0.2127 0.0931,-0.3454 -0.2077,-0.7591 0.1113,-0.9319 0.6113,0.2259 1.2042,0.2077 1.8954,0.2477 0.1463,0.3056 0.2659,0.7507 0.4784,1.0297 -0.0666,0.1994 -0.3721,0.3456 -0.2524,0.5716 0.4652,0.4252 1.1161,0.3986 1.6876,0.319 0.2128,0.239 0.1062,0.6777 0.2259,0.9965 l -0.1328,0.0931 c -1.103,-0.1328 -2.3257,-0.0665 -3.3091,0.186 0.2394,0.2258 0.5715,0.3589 0.8506,0.5449 1.2758,0.8106 2.2727,2.0732 3.3488,3.1229 1.0633,0.2259 2.2061,0.0134 3.0036,0.7974 0.0665,0.1462 -0.1063,0.1331 -0.1594,0.1994 -0.6513,0.0665 -1.1031,-0.3456 -1.6612,-0.5181 0.6509,0.5977 0.8237,1.9002 1.9799,1.6877 0.04,0.0266 0.0265,0.0662 0.0265,0.1062 -0.2389,0.1859 -0.5846,0.0401 -0.8502,0 0.0531,0.2394 0.3322,0.505 0.5712,0.6912 0.6911,0.5978 1.5018,0.9037 2.3523,1.0896 0.2925,0 0.5981,0.04 0.7974,-0.1594"
                     id="path192"
                     style="fill:#ffffff;fill-opacity:1;fill-rule:nonzero;stroke:none" /><path
                     d="m 362.6546,531.0125 c 0.2657,-0.1597 -0.1197,-0.5184 0.226,-0.6115 0.3587,0.1597 0.8636,0.1331 1.1828,-0.0928 0.2258,-0.2394 0.4914,-0.4919 0.3852,-0.8239 -0.226,0.1462 -0.5182,0.2524 -0.7975,0.1593 -0.239,-0.0796 -0.5446,-0.1993 -0.6112,-0.4784 0.2791,-0.1328 0.5582,0.1062 0.8905,0.0266 1.6878,-0.0401 2.8174,-0.6113 4.4385,-0.1197 0.6912,0.1728 1.3819,0.3722 2.0999,0.4784 0.1196,-0.0131 0.279,-0.1062 0.1993,-0.2259 -0.4918,-0.6378 -1.2227,-1.1032 -1.8474,-1.5946 -0.6643,-0.4918 -1.4217,-0.864 -1.9801,-1.4753 0.2393,-0.2789 0.5184,-0.558 0.824,-0.8239 0.4518,0.1197 0.7308,0.3056 1.2092,0.1597 0.8109,-0.1066 1.8074,-0.1197 2.5252,0.2525 l 0.1859,0 c -0.6909,-0.6116 -1.4749,-1.1562 -2.2326,-1.6881 -0.0132,-0.558 0.7577,-0.4518 1.0233,-0.8236 0.0797,-0.9037 0.4122,-1.6881 0.9302,-2.3923 -0.3587,-0.1729 -0.9036,0.6911 -1.0896,-0.0663 -0.4388,-1.1562 -0.638,-2.4189 -0.638,-3.761 -0.3587,0.1994 -0.6112,0.6248 -0.8637,0.957 -0.3853,0.3454 -0.3322,1.1163 -0.9835,1.1428 -0.8104,0.1194 -1.5812,-0.1065 -2.0731,-0.7974 -0.1729,-0.3722 -0.2391,-0.9037 0.0665,-1.2492 0.4254,-0.6247 1.063,-0.8903 1.6877,-1.1426 -0.1063,-0.1463 -0.3987,-0.08 -0.5715,-0.1862 -0.7971,-0.2261 -1.568,-0.5052 -2.2723,-0.9305 -1.4753,-0.8504 -3.0166,-2.0067 -4.0801,-3.4819 -0.0662,-0.0397 -0.0928,-0.1459 -0.1859,-0.1193 0.3987,1.5283 0.4253,3.5215 -0.5184,4.8105 -0.1593,-0.0264 -0.2124,-0.2123 -0.3187,-0.3185 -0.319,-0.5186 -0.5184,-1.0901 -0.5715,-1.7147 -0.3722,-0.0929 -0.7044,0.1462 -1.0765,0.1596 -1.329,0.2125 -2.6444,0.4384 -3.9603,0.6643 0.5715,0.505 1.1696,1.1431 1.7277,1.6877 l -0.1062,0.0932 c -0.5716,-0.1063 -1.0631,-0.4119 -1.6481,-0.4785 l 0,0.226 c 0.2259,0.5846 0.5584,1.1295 0.6912,1.7542 -0.1597,0.1197 -0.3587,-0.0666 -0.5315,-0.093 -0.279,-0.1729 -0.5849,-0.3191 -0.9302,-0.3191 0.0797,0.3455 0.3587,0.6115 0.4519,0.9571 0.0265,0.1859 0.3452,0.4384 0.0531,0.5712 -0.4122,-0.0131 -0.771,-0.1729 -1.0766,-0.4384 0.0532,0.3986 0.7606,0.7309 0.9735,1.1427 -0.2791,0.1596 -0.8371,-0.01 -1.1561,-0.0496 -0.2394,-0.0931 -0.482,-0.1395 -0.6548,-0.3523 -0.0531,-0.2125 0.1066,-0.608 -0.2124,-0.7143 -0.3722,-0.0931 -0.8638,-0.1197 -1.1828,0.0666 -0.04,0.6644 -0.1728,1.2889 -0.2525,1.9401 0.319,0.2923 0.7975,0.3322 1.2359,0.2525 0.1463,-0.0665 0.3191,-0.093 0.4518,-0.2127 0.0931,-0.3454 -0.2077,-0.7591 0.1113,-0.9319 0.6113,0.2259 1.2042,0.2077 1.8954,0.2477 0.1463,0.3056 0.2659,0.7507 0.4784,1.0297 -0.0666,0.1994 -0.3721,0.3456 -0.2524,0.5716 0.4652,0.4252 1.1161,0.3986 1.6876,0.319 0.2128,0.239 0.1062,0.6777 0.2259,0.9965 l -0.1328,0.0931 c -1.103,-0.1328 -2.3257,-0.0665 -3.3091,0.186 0.2394,0.2258 0.5715,0.3589 0.8506,0.5449 1.2758,0.8106 2.2727,2.0732 3.3488,3.1229 1.0633,0.2259 2.2061,0.0134 3.0036,0.7974 0.0665,0.1462 -0.1063,0.1331 -0.1594,0.1994 -0.6513,0.0665 -1.1031,-0.3456 -1.6612,-0.5181 0.6509,0.5977 0.8237,1.9002 1.9799,1.6877 0.04,0.0266 0.0265,0.0662 0.0265,0.1062 -0.2389,0.1859 -0.5846,0.0401 -0.8502,0 0.0531,0.2394 0.3322,0.505 0.5712,0.6912 0.6911,0.5978 1.5018,0.9037 2.3523,1.0896 0.2925,0 0.5981,0.04 0.7974,-0.1594 z"
                     id="path194"
                     style="fill:none;stroke:#ffffff;stroke-width:1.91999996;stroke-linecap:square;stroke-linejoin:round;stroke-miterlimit:2;stroke-opacity:1;stroke-dasharray:none" /><path
                     d="m 362.6546,531.0125 c 0.2657,-0.1597 -0.1197,-0.5184 0.226,-0.6115 0.3587,0.1597 0.8636,0.1331 1.1828,-0.0928 0.2258,-0.2394 0.4914,-0.4919 0.3852,-0.8239 -0.226,0.1462 -0.5182,0.2524 -0.7975,0.1593 -0.239,-0.0796 -0.5446,-0.1993 -0.6112,-0.4784 0.2791,-0.1328 0.5582,0.1062 0.8905,0.0266 1.6878,-0.0401 2.8174,-0.6113 4.4385,-0.1197 0.6912,0.1728 1.3819,0.3722 2.0999,0.4784 0.1196,-0.0131 0.279,-0.1062 0.1993,-0.2259 -0.4918,-0.6378 -1.2227,-1.1032 -1.8474,-1.5946 -0.6643,-0.4918 -1.4217,-0.864 -1.9801,-1.4753 0.2393,-0.2789 0.5184,-0.558 0.824,-0.8239 0.4518,0.1197 0.7308,0.3056 1.2092,0.1597 0.8109,-0.1066 1.8074,-0.1197 2.5252,0.2525 l 0.1859,0 c -0.6909,-0.6116 -1.4749,-1.1562 -2.2326,-1.6881 -0.0132,-0.558 0.7577,-0.4518 1.0233,-0.8236 0.0797,-0.9037 0.4122,-1.6881 0.9302,-2.3923 -0.3587,-0.1729 -0.9036,0.6911 -1.0896,-0.0663 -0.4388,-1.1562 -0.638,-2.4189 -0.638,-3.761 -0.3587,0.1994 -0.6112,0.6248 -0.8637,0.957 -0.3853,0.3454 -0.3322,1.1163 -0.9835,1.1428 -0.8104,0.1194 -1.5812,-0.1065 -2.0731,-0.7974 -0.1729,-0.3722 -0.2391,-0.9037 0.0665,-1.2492 0.4254,-0.6247 1.063,-0.8903 1.6877,-1.1426 -0.1063,-0.1463 -0.3987,-0.08 -0.5715,-0.1862 -0.7971,-0.2261 -1.568,-0.5052 -2.2723,-0.9305 -1.4753,-0.8504 -3.0166,-2.0067 -4.0801,-3.4819 -0.0662,-0.0397 -0.0928,-0.1459 -0.1859,-0.1193 0.3987,1.5283 0.4253,3.5215 -0.5184,4.8105 -0.1593,-0.0264 -0.2124,-0.2123 -0.3187,-0.3185 -0.319,-0.5186 -0.5184,-1.0901 -0.5715,-1.7147 -0.3722,-0.0929 -0.7044,0.1462 -1.0765,0.1596 -1.329,0.2125 -2.6444,0.4384 -3.9603,0.6643 0.5715,0.505 1.1696,1.1431 1.7277,1.6877 l -0.1062,0.0932 c -0.5716,-0.1063 -1.0631,-0.4119 -1.6481,-0.4785 l 0,0.226 c 0.2259,0.5846 0.5584,1.1295 0.6912,1.7542 -0.1597,0.1197 -0.3587,-0.0666 -0.5315,-0.093 -0.279,-0.1729 -0.5849,-0.3191 -0.9302,-0.3191 0.0797,0.3455 0.3587,0.6115 0.4519,0.9571 0.0265,0.1859 0.3452,0.4384 0.0531,0.5712 -0.4122,-0.0131 -0.771,-0.1729 -1.0766,-0.4384 0.0532,0.3986 0.7606,0.7309 0.9735,1.1427 -0.2791,0.1596 -0.8371,-0.01 -1.1561,-0.0496 -0.2394,-0.0931 -0.482,-0.1395 -0.6548,-0.3523 -0.0531,-0.2125 0.1066,-0.608 -0.2124,-0.7143 -0.3722,-0.0931 -0.8638,-0.1197 -1.1828,0.0666 -0.04,0.6644 -0.1728,1.2889 -0.2525,1.9401 0.319,0.2923 0.7975,0.3322 1.2359,0.2525 0.1463,-0.0665 0.3191,-0.093 0.4518,-0.2127 0.0931,-0.3454 -0.2077,-0.7591 0.1113,-0.9319 0.6113,0.2259 1.2042,0.2077 1.8954,0.2477 0.1463,0.3056 0.2659,0.7507 0.4784,1.0297 -0.0666,0.1994 -0.3721,0.3456 -0.2524,0.5716 0.4652,0.4252 1.1161,0.3986 1.6876,0.319 0.2128,0.239 0.1062,0.6777 0.2259,0.9965 l -0.1328,0.0931 c -1.103,-0.1328 -2.3257,-0.0665 -3.3091,0.186 0.2394,0.2258 0.5715,0.3589 0.8506,0.5449 1.2758,0.8106 2.2727,2.0732 3.3488,3.1229 1.0633,0.2259 2.2061,0.0134 3.0036,0.7974 0.0665,0.1462 -0.1063,0.1331 -0.1594,0.1994 -0.6513,0.0665 -1.1031,-0.3456 -1.6612,-0.5181 0.6509,0.5977 0.8237,1.9002 1.9799,1.6877 0.04,0.0266 0.0265,0.0662 0.0265,0.1062 -0.2389,0.1859 -0.5846,0.0401 -0.8502,0 0.0531,0.2394 0.3322,0.505 0.5712,0.6912 0.6911,0.5978 1.5018,0.9037 2.3523,1.0896 0.2925,0 0.5981,0.04 0.7974,-0.1594"
                     id="path196"
                     style="fill:#231f20;fill-opacity:1;fill-rule:nonzero;stroke:none" /><path
                     d="m 353.5612,519.9591 c -0.2791,0.2589 -0.9366,0.0397 -1.2556,0 -0.2394,-0.0931 -0.482,-0.1395 -0.6548,-0.3523 -0.0531,-0.2125 0.1066,-0.608 -0.2124,-0.7143 -0.3722,-0.0931 -0.8638,-0.1197 -1.1828,0.0666 -0.04,0.6644 -0.1728,1.2889 -0.2525,1.9401 0.319,0.2923 0.7975,0.3322 1.2359,0.2525 0.1463,-0.0665 0.3191,-0.093 0.4518,-0.2127 0.0931,-0.3454 -0.2077,-0.7591 0.1113,-0.9319 0.5899,0.2182 1.521,0.2348 2.1872,0.2765"
                     id="path198"
                     style="fill:#231f20;fill-opacity:1;fill-rule:nonzero;stroke:none" /></g></g></g></g></g></g></g></g></svg>