<?xml version="1.0" encoding="UTF-8" standalone="no"?>
<!-- Created with Inkscape (http://www.inkscape.org/) -->

<svg
   xmlns:dc="http://purl.org/dc/elements/1.1/"
   xmlns:cc="http://creativecommons.org/ns#"
   xmlns:rdf="http://www.w3.org/1999/02/22-rdf-syntax-ns#"
   xmlns:svg="http://www.w3.org/2000/svg"
   xmlns="http://www.w3.org/2000/svg"
   version="1.1"
   width="280"
   height="200"
   id="svg3026">
  <defs
     id="defs3028" />
  <metadata
     id="metadata3031">
    <rdf:RDF>
      <cc:Work
         rdf:about="">
        <dc:format>image/svg+xml</dc:format>
        <dc:type
           rdf:resource="http://purl.org/dc/dcmitype/StillImage" />
        <dc:title></dc:title>
      </cc:Work>
    </rdf:RDF>
  </metadata>
  <g
     transform="translate(-268.86464,-432.36218)"
     id="layer1">
    <path
       d="m 303.93519,631.50841 -3.06986,0.85377 -6.9e-4,-162.93173 c 0,-29.93446 63.29062,-37.06827 106.12256,-37.06827 42.83122,0 106.14816,7.13381 106.14816,37.06827 l 0,162.93173 c -37.06087,-10.30726 -67.94139,-13.36747 -106.12135,-13.24964 -34.42854,-0.10612 -67.26998,2.43659 -103.07882,12.39587 z m 1.77232,-5.50437 c 35.18651,-9.42111 67.58781,-11.83833 101.3065,-11.73443 33.71816,-0.10386 66.09389,2.31332 101.27903,11.73443 l 0,-156.57359 c 0,-23.8926 -55.26635,-32.22419 -101.30584,-32.22419 -46.03879,0 -101.27969,8.33159 -101.27969,32.22419 l 0,156.57359"
       id="path22"
       style="fill:#bfb379;fill-opacity:1;fill-rule:nonzero;stroke:none" />
    <path
       d="m 457.07516,501.43412 c 24.56028,-51.471 -129.84971,-62.78912 -141.38221,6.62064 -2.5627,21.14316 19.59614,36.54469 64.71093,46.34416 -107.85153,-39.29626 23.49268,-96.31942 76.67128,-52.9648"
       id="path14"
       style="fill:#00a650;fill-opacity:1;fill-rule:nonzero;stroke:none" />
    <path
       d="m 357.60005,514.49565 c -21.83273,52.68501 132.95794,55.90722 140.84147,-14.01112 1.45357,-21.24776 -21.48167,-35.46898 -67.04787,-42.89367 109.76073,33.59803 -18.41912,97.41647 -73.7936,56.90479"
       id="path16"
       style="fill:#ed1c24;fill-opacity:1;fill-rule:nonzero;stroke:none" />
    <path
       d="m 389.86004,587.91915 0,-10.28369 3.02165,0 c 4.58104,0 6.5312,2.43721 6.5312,5.06881 0,2.48554 -2.04735,5.21488 -6.58008,5.21488 l -2.97277,0 z m 18.8141,18.42407 -9.94429,-15.88949 c 2.48625,-0.73119 6.23979,-3.80169 6.23979,-8.28554 0,-3.8989 -3.11954,-8.33442 -11.64906,-8.33442 l -9.01728,0 0,32.50945 5.60508,0 0,-14.67053 3.31447,0 9.2115,15.15776 6.23979,-0.48723 z m 9.27147,0 0,-32.50945 -5.55674,0 0,32.50945 5.55674,0 z m 24.2433,-4.14287 -14.03793,0 0,-10.52766 9.8462,0 0,-4.14286 -9.8462,0 0,-9.55337 13.45278,0 0,-4.14269 -19.05716,0 0,32.50945 19.64231,0 0,-4.14287 z m -61.73265,0 -14.0381,0 0,-10.52766 9.84638,0 0,-4.14286 -9.84638,0 0,-9.55337 13.45227,0 0,-4.14269 -19.05647,0 0,32.50945 19.6423,0 0,-4.14287 z m 78.34501,-4.91306 13.14621,0 3.30141,9.13108 6.6,0 -13.58668,-36.79838 -3.57484,0 -15.07095,36.79838 5.66506,0 3.51979,-9.13108 z m 11.82671,-4.29016 -10.2867,0 5.4458,-14.46589 4.8409,14.46589 z m -137.78386,7.31587 -1.92528,4.29033 c 1.48568,0.71444 4.89594,2.53018 11.16659,2.53018 6.71097,0 13.09117,-4.18062 13.09117,-10.67109 0,-5.83034 -5.6656,-8.85533 -9.29636,-11.16587 -4.07053,-2.58539 -7.59034,-4.1254 -7.59034,-7.64538 0,-2.25464 2.20031,-3.96012 5.83036,-3.96012 3.46546,0 5.88538,1.09989 7.31532,1.76 l 1.81574,-4.40059 c -1.70548,-0.76966 -4.73065,-2.03484 -10.06619,-2.03484 -6.32568,0 -11.16588,4.12488 -11.16588,9.57066 0,6.32517 4.95044,8.80101 8.69076,11.11086 3.9601,2.41992 7.81066,4.23494 7.81066,7.8657 0,2.80466 -2.91543,4.89454 -6.27048,4.89454 -5.0607,0 -8.08569,-1.59453 -9.40607,-2.14438"
       id="path20"
       style="fill:#1c63b7;fill-opacity:1;fill-rule:evenodd;stroke:none" />
    <path
       d="m 415.90949,504.01652 c 1.05155,0.60154 1.66209,1.31897 1.66209,2.08933 0,2.12303 -4.63768,3.84438 -10.35831,3.84438 -1.11629,0 -2.19747,-0.0662 -3.21321,-0.18751 l 11.90943,-5.7462 z m -18.52813,3.30211 c -0.42655,-0.38174 -0.52569,-0.78905 -0.52569,-1.21278 0,-2.12303 4.6375,-3.84439 10.3576,-3.84439 0.78888,0 1.55731,0.033 2.29591,0.0951 l -12.12782,4.96208 z m -3.42543,1.38778 -21.14845,8.65211 c -6.45323,-2.817 -10.33625,-6.44229 -10.33625,-10.39887 0,-8.96365 19.93584,-16.23064 44.52842,-16.23064 9.04215,0 17.37992,0.98187 24.43964,2.66953 l -18.79328,7.67219 c -1.66703,-0.33358 -3.5034,-0.51828 -5.43274,-0.51828 -7.60745,0 -13.77474,2.86869 -13.77474,6.4072 0,0.60559 0.0951,1.19144 0.5174,1.74676 z m 5.12209,3.43707 -17.12024,8.23933 c 7.13538,1.77234 15.75645,2.808 25.04187,2.808 24.59328,0 44.52912,-7.26627 44.52912,-16.23116 0,-4.99243 -6.26996,-9.459 -15.91365,-12.43653 l -17.58401,8.46936 c 1.85224,1.09159 2.9576,2.46967 2.9576,3.96717 0,3.53903 -6.16728,6.40773 -13.77544,6.40773 -3.02587,0 -5.84888,-0.45407 -8.13525,-1.2239"
       id="path18"
       style="fill:#bfb379;fill-opacity:1;fill-rule:evenodd;stroke:none" />
  </g>
</svg>
