<?xml version="1.0" encoding="UTF-8" standalone="no"?>
<!-- Created with Inkscape (http://www.inkscape.org/) -->

<svg
   xmlns:dc="http://purl.org/dc/elements/1.1/"
   xmlns:cc="http://creativecommons.org/ns#"
   xmlns:rdf="http://www.w3.org/1999/02/22-rdf-syntax-ns#"
   xmlns:svg="http://www.w3.org/2000/svg"
   xmlns="http://www.w3.org/2000/svg"
   version="1.0"
   width="280"
   height="200"
   viewBox="0 0 280 200"
   id="Ebene_1"
   xml:space="preserve"><metadata
     id="metadata171"><rdf:RDF><cc:Work
         rdf:about=""><dc:format>image/svg+xml</dc:format><dc:type
           rdf:resource="http://purl.org/dc/dcmitype/StillImage" /><dc:title></dc:title></cc:Work></rdf:RDF></metadata><defs
     id="defs169" /><path
     d="M 140.00035,0 C 195.22933,0 240,44.76996 240,99.99859 240,155.22756 195.22933,200 140.00035,200 84.77032,200 40,155.22756 40,99.99859 40,44.76996 84.77032,0 140.00035,0 z"
     id="path3" /><circle
     cx="283.00101"
     cy="283"
     r="189.131"
     transform="matrix(0.35335689,0,0,0.35335689,40,0)"
     id="circle5"
     style="fill:#ffffff" /><path
     d="m 167.10212,106.55724 24.14664,31.58128 c 7.93357,-10.64382 12.63039,-23.84276 12.63039,-38.13923 0,-35.28056 -28.59788,-63.87844 -63.87774,-63.87844 -35.28268,0 -63.88056,28.59788 -63.88056,63.87844 0,14.29647 4.69682,27.49541 12.63074,38.13923 l 24.14629,-31.58128 c 0.2742,4.06997 1.20247,11.03605 4.23852,18.36361 l -18.29576,23.9265 c 11.11731,9.37738 25.47738,15.03216 41.16113,15.03216 15.68268,0 30.04205,-5.65478 41.15865,-15.03181 l -18.29611,-23.92685 c 3.03569,-7.32756 3.96396,-14.29399 4.23781,-18.36361 z"
     id="path7" /><path
     d="m 90.38445,29.36184 c -1.18798,-4.59541 4.59894,-15.01096 15.74205,-17.52438 0,0 -14.55123,22.12332 -15.74205,17.52438 z"
     id="path9"
     style="fill:#d6b61a" /><path
     d="m 84.3,38.1265 c 1.59576,2.23251 5.19258,-16.63427 4.29965,-20.50212 0,0 -5.19258,9.52262 -5.48834,14.11908 0,0 -1.78481,2.21732 1.18869,6.38304 z"
     id="path11"
     style="fill:#d6b61a" /><path
     d="m 84.59753,45.39965 c 0,0 1.02685,-6.84276 4.00212,-10.54735 2.97526,-3.70354 17.82261,-15.01096 18.71766,-16.33534 0,0 -0.69045,8.16255 -5.49045,11.73993 C 93.6583,36.3417 84.59753,45.39965 84.59753,45.39965 z"
     id="path13"
     style="fill:#d6b61a" /><path
     d="m 84.00424,48.97173 c 0,0 5.653,-10.25124 18.41625,-10.54947 0,0 -5.27208,5.11025 -9.35653,7.27562 -3.3205,1.76042 -9.05972,3.27385 -9.05972,3.27385 z"
     id="path15"
     style="fill:#d6b61a" /><path
     d="m 68.26113,66.92862 c 0.29859,0.89293 4.59894,-7.70495 6.98057,-10.68092 2.37844,-2.97526 8.00424,-17.0947 4.5954,-20.20459 0,0 -3.70353,6.97738 -5.78692,9.35654 -1.12085,1.28268 -3.92898,8.36431 -5.19223,13.65865 -1.08339,4.54735 -0.73251,7.45831 -0.59682,7.87032 z"
     id="path17"
     style="fill:#d6b61a" /><path
     d="m 67.66749,72.28551 c 0,0 12.46855,-6.08551 13.95477,-16.33639 0,0 -5.40353,4.02402 -8.16784,7.27561 -2.71484,3.19435 -5.78693,9.06078 -5.78693,9.06078 z"
     id="path19"
     style="fill:#d6b61a" /><path
     d="m 64.69152,97.81413 c 0.27244,5.95301 7.44028,-8.30247 5.35724,-20.63462 0,0 -5.95335,7.57208 -5.35724,20.63462 z"
     id="path21"
     style="fill:#d6b61a" /><path
     d="m 62.17668,93.81201 c 0,0 -0.72827,-4.46254 0.59611,-11.73745 1.32262,-7.27668 2.21696,-11.14311 1.6212,-15.74028 -0.59364,-4.59824 -2.81166,-6.97739 -2.81166,-6.97739 0,0 -1.19046,5.19258 -2.08339,8.16608 -0.89187,2.97491 -1.19046,12.76572 -1.19046,15.14487 0,7.27633 3.8682,11.14417 3.8682,11.14417 z"
     id="path23"
     style="fill:#d6b61a" /><path
     d="m 69.16184,49.39152 c 0,0 8.76466,-11.56113 7.27314,-19.13216 0,0 -3.69328,1.19294 -5.78162,7.57068 -2.0887,6.37915 -1.49152,11.56148 -1.49152,11.56148 z"
     id="path25"
     style="fill:#d6b61a" /><path
     d="m 66.77244,60.24735 c 0,0 0.29858,-9.17527 -0.59682,-12.4583 -0.89364,-3.28128 -2.08728,-7.57138 -2.08728,-7.57138 0,0 -2.90318,6.20919 -2.19965,9.77102 1.49152,7.57173 4.88375,10.25866 4.88375,10.25866 z"
     id="path27"
     style="fill:#d6b61a" /><path
     d="m 56.30247,74.86325 c 0,0 1.47456,-12.54311 1.2311,-15.98551 -0.24594,-3.44558 -0.49258,-5.65689 -1.96891,-5.65689 -1.47703,0 -1.9689,2.70388 -2.21201,5.90318 -0.24594,3.19611 2.94982,15.73922 2.94982,15.73922 z"
     id="path29"
     style="fill:#d6b61a" /><path
     d="m 57.28763,88.88233 c 0.73534,1.47456 -0.98516,-5.90318 -1.47703,-8.3636 -0.49187,-2.45866 -3.19647,-7.87032 -4.18092,-9.09824 -0.98445,-1.23003 -2.21484,-2.953 -2.21484,-2.953 0,0 -0.73604,3.93498 0,6.88834 0.73887,2.94982 7.13428,12.05018 7.87279,13.5265 z"
     id="path31"
     style="fill:#d6b61a" /><path
     d="m 71.30424,125.52756 c 0,0 0.98445,-9.83922 0.24594,-14.01908 -0.73499,-4.18198 -1.7205,-6.14876 -2.70389,-7.62438 -0.98445,-1.47527 -1.96714,4.18198 -1.96714,4.18198 0,0 0.49011,7.13074 1.47456,10.57526 0.98445,3.44205 2.95053,6.88622 2.95053,6.88622 z"
     id="path33"
     style="fill:#d6b61a" /><path
     d="m 67.36926,121.34735 c 0,0 -1.96608,-5.65901 -2.70389,-10.08657 -0.73851,-4.4258 -1.96714,-10.08127 -3.19753,-12.29612 -1.23003,-2.21236 -3.93427,-7.62332 -8.60777,-8.36219 0,0 2.21201,6.14983 3.19647,10.08516 0.98445,3.93428 2.70459,10.08481 4.91943,13.52721 2.21237,3.44276 6.39329,7.13251 6.39329,7.13251 z"
     id="path35"
     style="fill:#d6b61a" /><path
     d="m 59.99152,117.16572 c 0,0 -4.91944,-7.62438 -9.10035,-9.34735 -4.18092,-1.72296 -4.91838,-1.96537 -6.88481,-1.96537 0,0 0.73781,4.18022 4.67279,6.39329 l 6.147,2.95053 5.16537,1.9689 z"
     id="path37"
     style="fill:#d6b61a" /><path
     d="m 56.79505,109.54134 c 0,0 -2.21448,-8.11625 -4.18092,-11.56077 -1.96855,-3.44241 -3.93498,-5.65477 -7.62438,-7.1311 0,0 1.47456,4.67279 2.70495,8.11519 0,0 1.2311,3.68834 5.16537,7.13075 l 3.93498,3.44593 z"
     id="path39"
     style="fill:#d6b61a" /><path
     d="m 80.15795,146.92332 c 0,0 -4.18092,-4.18021 -5.65442,-7.13074 -1.47632,-2.95194 -5.16537,-9.59293 -7.38021,-12.29647 -2.21237,-2.70777 -4.91943,-5.65724 -11.06678,-6.14876 0,0 3.68904,4.42615 4.91943,7.1311 1.22756,2.70636 7.37739,11.31448 9.83887,13.03568 2.4583,1.72262 9.34311,5.40919 9.34311,5.40919 z"
     id="path41"
     style="fill:#d6b61a" /><path
     d="m 84.33887,148.40071 c 2.46148,2.45865 -1.4735,-13.52721 -8.60777,-19.43039 0,0 -0.24594,4.91943 0.98445,9.34558 0,0 5.16537,7.62403 7.62332,10.08481 z"
     id="path43"
     style="fill:#d6b61a" /><path
     d="m 72.78057,146.67951 c 0,0 -4.18092,-4.67386 -11.55831,-6.88658 -7.38021,-2.21484 -8.36219,-0.49187 -8.36219,-0.49187 0,0 4.91696,4.18021 7.86997,4.91943 2.95088,0.73605 12.05053,2.45902 12.05053,2.45902 z"
     id="path45"
     style="fill:#d6b61a" /><path
     d="m 63.92686,137.57809 c 0,0 -4.67386,-8.85371 -8.60778,-11.55866 0,0 -1.72297,-1.96855 -6.63993,-3.19646 0,0 2.21202,6.39328 4.42756,7.62438 l 7.37739,4.91767 3.44276,2.21307 z"
     id="path47"
     style="fill:#d6b61a" /><path
     d="m 102.53993,164.87845 c 0,0 -4.67385,-1.47527 -8.36184,-3.68834 -3.6894,-2.2152 -7.87032,-7.38022 -12.29717,-9.34559 -4.42686,-1.97032 -5.90389,-2.46219 -12.29717,-1.97032 0,0 5.65795,3.68976 7.87031,5.9046 0,0 10.82227,7.62438 15.98516,8.36184 l 9.10071,0.73781 z"
     id="path49"
     style="fill:#d6b61a" /><path
     d="m 106.47527,165.12438 c 0,0 -5.41202,-9.09965 -8.11591,-10.82226 -2.70388,-1.71979 -5.4113,-2.70459 -8.60883,-3.44276 0,0 2.46148,5.65937 5.41201,7.3788 2.95053,1.7212 11.31273,6.88622 11.31273,6.88622 z"
     id="path51"
     style="fill:#d6b61a" /><path
     d="m 95.16254,166.84558 c 3.19647,-0.24381 -7.37738,-2.45865 -14.26607,-2.21307 0,0 -4.18092,0.24594 -8.60778,1.47738 0,0 4.42686,2.45866 9.83887,2.45866 0,0 9.83816,-1.4788 13.03498,-1.72297 z"
     id="path53"
     style="fill:#d6b61a" /><path
     d="m 82.61943,162.17208 c 2.94983,0.9834 -7.86996,-6.8848 -11.31519,-7.86996 -3.4424,-0.98198 -5.65548,-1.22792 -8.85477,-0.98198 0,0 2.46148,3.4424 7.13428,5.4099 4.67385,1.96819 10.08233,2.46042 13.03568,3.44204 z"
     id="path55"
     style="fill:#d6b61a" /><path
     d="m 134.02155,173.24064 c 0,0 -5.41095,-4.42757 -10.82332,-5.90318 -5.4113,-1.47527 -5.65371,-1.47527 -11.06572,-0.98163 0,0 4.42685,3.93428 9.83781,5.40813 5.40954,1.47668 12.05123,1.47668 12.05123,1.47668 z"
     id="path57"
     style="fill:#d6b61a" /><path
     d="m 128.11767,175.45336 c 0,0 -9.09965,-1.22792 -13.7735,-2.95089 -4.67279,-1.71908 -6.63887,-3.19611 -11.31272,-3.68975 -4.67279,-0.49187 -9.83816,1.2311 -11.06573,3.19859 0,0 8.36114,1.72261 10.57421,2.706 2.21484,0.98198 11.5583,3.19682 14.7576,2.70495 0.86749,-0.13392 3.53993,-0.34099 4.81943,-0.56961 3.43322,-0.61555 6.00071,-1.39929 6.00071,-1.39929 z"
     id="path59"
     style="fill:#d6b61a" /><path
     d="m 108.19717,178.89929 c 1.22863,0.24417 -11.06819,-4.18198 -15.73922,-3.93604 -4.67279,0.24594 -5.16572,-0.73781 -8.36466,0.24594 0,0 5.16537,3.93427 8.36466,3.93427 3.19717,3.6e-4 14.50883,-0.49152 15.73922,-0.24417 z"
     id="path61"
     style="fill:#d6b61a" /><path
     d="m 120.24841,179.63534 c 2.21484,0 -5.90389,4.18021 -14.01979,5.40954 -8.11519,1.23109 -8.85371,0.2477 -8.85371,0.2477 0,0 5.65725,-3.93604 10.33074,-4.67385 4.6728,-0.73922 10.32792,-0.98339 12.54276,-0.98339 z"
     id="path63"
     style="fill:#d6b61a" /><path
     d="m 136.47986,175.94558 c 0,0 -8.60778,6.64241 -10.32756,8.36184 -1.72297,1.72297 -8.85477,8.11625 -17.21661,7.62615 0,0 5.90141,-4.91802 7.13145,-6.64099 1.23039,-1.7212 8.85371,-6.88657 13.28162,-7.62403 4.42686,-0.73957 7.1311,-1.72297 7.1311,-1.72297 z"
     id="path65"
     style="fill:#d6b61a" /><path
     d="m 138.20247,177.66855 c 0,0 -1.96855,7.37633 -5.90388,12.29611 -3.93428,4.91944 -5.40884,4.91944 -5.40884,4.91944 0,0 0,-5.16537 1.96643,-7.86855 1.96891,-2.70813 9.34629,-9.347 9.34629,-9.347 z"
     id="path67"
     style="fill:#d6b61a" /><path
     d="m 189.61201,29.36184 c 1.19046,-4.59541 -4.59576,-15.01096 -15.74028,-17.52438 0,0 14.55018,22.12332 15.74028,17.52438 z"
     id="path69"
     style="fill:#d6b61a" /><path
     d="m 195.69682,38.1265 c -1.59258,2.23251 -5.19293,-16.63427 -4.29717,-20.50212 0,0 5.1894,9.52262 5.48728,14.11908 0,0 1.78586,2.21732 -1.19011,6.38304 z"
     id="path71"
     style="fill:#d6b61a" /><path
     d="m 195.40141,45.39965 c 0,0 -1.02544,-6.84276 -4.00176,-10.54735 -2.97774,-3.70354 -17.82615,-15.01096 -18.71838,-16.33534 0,0 0.68834,8.16255 5.49117,11.73993 8.16714,6.08481 17.22897,15.14276 17.22897,15.14276 z"
     id="path73"
     style="fill:#d6b61a" /><path
     d="m 195.99505,48.97173 c 0,0 -5.65194,-10.25124 -18.41802,-10.54947 0,0 5.27421,5.11025 9.35937,7.27562 3.32014,1.76042 9.05865,3.27385 9.05865,3.27385 z"
     id="path75"
     style="fill:#d6b61a" /><path
     d="m 211.73569,66.92862 c -0.29505,0.89293 -4.59576,-7.70495 -6.97809,-10.68092 -2.37915,-2.97526 -8.00248,-17.0947 -4.59612,-20.20459 0,0 3.70354,6.97738 5.78799,9.35654 1.11943,1.28268 3.92898,8.36431 5.19258,13.65865 1.08339,4.54735 0.73215,7.45831 0.59364,7.87032 z"
     id="path77"
     style="fill:#d6b61a" /><path
     d="m 212.33251,72.28551 c 0,0 -12.46926,-6.08551 -13.95654,-16.33639 0,0 5.40424,4.02402 8.17032,7.27561 2.71307,3.19435 5.78622,9.06078 5.78622,9.06078 z"
     id="path79"
     style="fill:#d6b61a" /><path
     d="m 215.30671,97.81413 c -0.26961,5.95301 -7.43957,-8.30247 -5.35547,-20.63462 0,0 5.95088,7.57208 5.35547,20.63462 z"
     id="path81"
     style="fill:#d6b61a" /><path
     d="m 217.81979,93.81201 c 0,0 0.73074,-4.46254 -0.59364,-11.73745 -1.32438,-7.27668 -2.21802,-11.14311 -1.62262,-15.74028 0.59647,-4.59824 2.81308,-6.97739 2.81308,-6.97739 0,0 1.19046,5.19258 2.08268,8.16608 0.89364,2.97491 1.1887,12.76572 1.1887,15.14487 3.5e-4,7.27633 -3.8682,11.14417 -3.8682,11.14417 z"
     id="path83"
     style="fill:#d6b61a" /><path
     d="m 210.83852,49.39152 c 0,0 -8.76573,-11.56113 -7.2735,-19.13216 0,0 3.69364,1.19294 5.78304,7.57068 2.08551,6.37915 1.49046,11.56148 1.49046,11.56148 z"
     id="path85"
     style="fill:#d6b61a" /><path
     d="m 213.22756,60.24735 c 0,0 -0.30176,-9.17527 0.59682,-12.4583 0.89364,-3.28128 2.08551,-7.57138 2.08551,-7.57138 0,0 2.90177,6.20919 2.20142,9.77102 -1.49188,7.57173 -4.88375,10.25866 -4.88375,10.25866 z"
     id="path87"
     style="fill:#d6b61a" /><path
     d="m 223.69788,74.86325 c 0,0 -1.47739,-12.54311 -1.2311,-15.98551 0.24559,-3.44558 0.49152,-5.65689 1.96856,-5.65689 1.47349,0 1.96537,2.70388 2.2113,5.90318 0.24594,3.19611 -2.94876,15.73922 -2.94876,15.73922 z"
     id="path89"
     style="fill:#d6b61a" /><path
     d="m 222.71237,88.88233 c -0.73781,1.47456 0.98551,-5.90318 1.47703,-8.3636 0.49187,-2.45866 3.19647,-7.87032 4.18021,-9.09824 0.98163,-1.23003 2.21308,-2.953 2.21308,-2.953 0,0 0.7378,3.93498 0,6.88834 -0.73958,2.94982 -7.13287,12.05018 -7.87032,13.5265 z"
     id="path91"
     style="fill:#d6b61a" /><path
     d="m 208.69329,125.52756 c 0,0 -0.98198,-9.83922 -0.24771,-14.01908 0.73923,-4.18198 1.72297,-6.14876 2.70813,-7.62438 0.98198,-1.47527 1.96572,4.18198 1.96572,4.18198 0,0 -0.49187,7.13074 -1.47385,10.57526 -0.98339,3.44205 -2.95229,6.88622 -2.95229,6.88622 z"
     id="path93"
     style="fill:#d6b61a" /><path
     d="m 212.62756,121.34735 c 0,0 1.96855,-5.65901 2.70636,-10.08657 0.73958,-4.4258 1.96679,-10.08127 3.19824,-12.29612 1.22932,-2.21236 3.93462,-7.62332 8.60777,-8.36219 0,0 -2.21307,6.14983 -3.19647,10.08516 -0.98551,3.93428 -2.70812,10.08481 -4.91979,13.52721 -2.21448,3.44276 -6.39611,7.13251 -6.39611,7.13251 z"
     id="path95"
     style="fill:#d6b61a" /><path
     d="m 220.00777,117.16572 c 0,0 4.91944,-7.62438 9.09965,-9.34735 4.18163,-1.72296 4.91767,-1.96537 6.88622,-1.96537 0,0 -0.73746,4.18022 -4.6735,6.39329 l -6.14876,2.95053 -5.16361,1.9689 z"
     id="path97"
     style="fill:#d6b61a" /><path
     d="m 223.20601,109.54134 c 0,0 2.21484,-8.11625 4.17986,-11.56077 1.96572,-3.44241 3.93462,-5.65477 7.62296,-7.1311 0,0 -1.4742,4.67279 -2.70318,8.11519 0,0 -1.23109,3.68834 -5.16537,7.13075 l -3.93427,3.44593 z"
     id="path99"
     style="fill:#d6b61a" /><path
     d="m 199.83781,146.92332 c 0,0 4.18198,-4.18021 5.65901,-7.13074 1.47703,-2.95194 5.16537,-9.59293 7.37845,-12.29647 2.21307,-2.70777 4.91766,-5.65724 11.06855,-6.14876 0,0 -3.68834,4.42615 -4.91979,7.1311 -1.2311,2.70636 -7.37845,11.31448 -9.83922,13.03568 -2.45866,1.72262 -9.347,5.40919 -9.347,5.40919 z"
     id="path101"
     style="fill:#d6b61a" /><path
     d="m 195.6576,148.40071 c -2.45901,2.45865 1.47703,-13.52721 8.60812,-19.43039 0,0 0.24559,4.91943 -0.98197,9.34558 0,0 -5.16538,7.62403 -7.62615,10.08481 z"
     id="path103"
     style="fill:#d6b61a" /><path
     d="m 207.21802,146.67951 c 0,0 4.18163,-4.67386 11.55866,-6.88658 7.37809,-2.21484 8.3636,-0.49187 8.3636,-0.49187 0,0 -4.91943,4.18021 -7.86996,4.91943 -2.95124,0.73605 -12.0523,2.45902 -12.0523,2.45902 z"
     id="path105"
     style="fill:#d6b61a" /><path
     d="m 216.0735,137.57809 c 0,0 4.6735,-8.85371 8.60742,-11.55866 0,0 1.71943,-1.96855 6.63922,-3.19646 0,0 -2.21307,6.39328 -4.42756,7.62438 l -7.37703,4.91767 -3.44205,2.21307 z"
     id="path107"
     style="fill:#d6b61a" /><path
     d="m 177.46007,164.87845 c 0,0 4.67385,-1.47527 8.36219,-3.68834 3.68834,-2.2152 7.86997,-7.38022 12.29611,-9.34559 4.4258,-1.97032 5.90142,-2.46219 12.29788,-1.97032 0,0 -5.65865,3.68976 -7.87173,5.9046 0,0 -10.82049,7.62438 -15.98445,8.36184 l -9.1,0.73781 z"
     id="path109"
     style="fill:#d6b61a" /><path
     d="m 173.52261,165.12438 c 0,0 5.41096,-9.09965 8.11944,-10.82226 2.70283,-1.71979 5.40777,-2.70459 8.60777,-3.44276 0,0 -2.46219,5.65937 -5.41307,7.3788 -2.95053,1.7212 -11.31414,6.88622 -11.31414,6.88622 z"
     id="path111"
     style="fill:#d6b61a" /><path
     d="m 184.83675,166.84558 c -3.1947,-0.24381 7.3788,-2.45865 14.26714,-2.21307 0,0 4.17986,0.24594 8.60742,1.47738 0,0 -4.42756,2.45866 -9.83887,2.45866 0,0 -9.83746,-1.4788 -13.03569,-1.72297 z"
     id="path113"
     style="fill:#d6b61a" /><path
     d="m 197.38092,162.17208 c -2.95124,0.9834 7.86961,-6.8848 11.31272,-7.86996 3.4424,-0.98198 5.65724,-1.22792 8.85371,-0.98198 0,0 -2.45901,3.4424 -7.1311,5.4099 -4.67349,1.96819 -10.08515,2.46042 -13.03533,3.44204 z"
     id="path115"
     style="fill:#d6b61a" /><path
     d="m 145.97774,173.24064 c 0,0 5.41095,-4.42757 10.82049,-5.90318 5.41131,-1.47527 5.6576,-1.47527 11.06855,-0.98163 0,0 -4.42756,3.93428 -9.83745,5.40813 -5.41272,1.47668 -12.05159,1.47668 -12.05159,1.47668 z"
     id="path117"
     style="fill:#d6b61a" /><path
     d="m 151.88057,175.45336 c 0,0 9.1,-1.22792 13.77173,-2.95089 4.67385,-1.71908 6.6424,-3.19611 11.31625,-3.68975 4.6735,-0.49187 9.83887,1.2311 11.06643,3.19859 0,0 -8.3636,1.72261 -10.57526,2.706 -2.21449,0.98198 -11.56184,3.19682 -14.75866,2.70495 -0.86961,-0.13392 -3.53922,-0.34099 -4.81943,-0.56961 -3.43145,-0.61555 -6.00106,-1.39929 -6.00106,-1.39929 z"
     id="path119"
     style="fill:#d6b61a" /><path
     d="m 171.80283,178.89929 c -1.2311,0.24417 11.06678,-4.18198 15.73851,-3.93604 4.67421,0.24594 5.16537,-0.73781 8.36219,0.24594 0,0 -5.16183,3.93427 -8.36219,3.93427 -3.19646,3.6e-4 -14.50883,-0.49152 -15.73851,-0.24417 z"
     id="path121"
     style="fill:#d6b61a" /><path
     d="m 159.75088,179.63534 c -2.21448,0 5.90142,4.18021 14.01944,5.40954 8.11625,1.23109 8.85194,0.2477 8.85194,0.2477 0,0 -5.65336,-3.93604 -10.32756,-4.67385 -4.6735,-0.73922 -10.33074,-0.98339 -12.54382,-0.98339 z"
     id="path123"
     style="fill:#d6b61a" /><path
     d="m 143.52049,175.94558 c 0,0 8.6046,6.64241 10.32757,8.36184 1.72296,1.72297 8.85371,8.11625 17.21554,7.62615 0,0 -5.90247,-4.91802 -7.13074,-6.64099 -1.23109,-1.7212 -8.85371,-6.88657 -13.28127,-7.62403 -4.42827,-0.73957 -7.1311,-1.72297 -7.1311,-1.72297 z"
     id="path125"
     style="fill:#d6b61a" /><path
     d="m 141.79753,177.66855 c 0,0 1.96572,7.37633 5.90282,12.29611 3.93605,4.91944 5.40848,4.91944 5.40848,4.91944 0,0 0,-5.16537 -1.96572,-7.86855 -1.96891,-2.70813 -9.34558,-9.347 -9.34558,-9.347 z"
     id="path127"
     style="fill:#d6b61a" /><path
     d="m 95.78657,87.99541 c -0.82085,-0.56714 -2.0318,-1.0046 -3.63145,-1.3152 l -6.03109,-1.1735 C 84.91166,85.27102 84.15866,85.01237 83.86678,84.7318 83.57314,84.44099 83.44452,83.92898 83.48693,83.19011 l -0.42969,-0.0845 -0.83251,4.29258 0.42721,0.0823 c 0.21626,-0.65866 0.50954,-1.07845 0.88022,-1.2576 0.36289,-0.1788 1.17597,-0.14664 2.43356,0.0993 l 6.03287,1.17067 c 1.4788,0.28834 2.54275,0.64629 3.19646,1.0735 1.16573,0.76573 1.60071,1.90353 1.30742,3.41767 -0.2689,1.38233 -1.06925,2.20212 -2.40388,2.45583 -0.7311,0.13463 -1.70283,0.082 -2.91767,-0.15371 l -7.4106,-1.43958 c -0.8523,-0.16643 -1.37456,-0.37738 -1.56855,-0.63321 -0.19859,-0.25937 -0.26113,-0.75053 -0.18163,-1.47385 l -0.42897,-0.0848 -1.02509,5.25936 0.43074,0.0848 c 0.20601,-0.68587 0.44664,-1.10919 0.72756,-1.26749 0.27633,-0.16714 0.83604,-0.16714 1.68057,-0.002 l 7.24099,1.40671 c 1.43463,0.27809 2.62508,0.30883 3.57703,0.0848 1.76961,-0.40812 2.84911,-1.61378 3.23851,-3.61731 0.39576,-2.02579 -0.16395,-3.56148 -1.67491,-4.60777 z"
     id="path129"
     style="fill:#ffffff" /><path
     d="m 99.71413,74.84806 c -0.68586,-0.71131 -1.49152,-1.29223 -2.4166,-1.74241 -2.56749,-1.25229 -4.76007,-1.28198 -6.57986,-0.0837 -1.00884,0.66042 -1.84417,1.66784 -2.50283,3.01519 l -1.95159,4.00106 0.34594,0.16961 c 0.31554,-0.52756 0.60883,-0.82261 0.88162,-0.89046 0.27244,-0.0643 0.74382,0.0678 1.42297,0.39753 l 8.2576,4.02756 c 0.70035,0.34241 1.09823,0.63852 1.19293,0.8894 0.0898,0.24594 0.0375,0.65972 -0.15442,1.23534 l 0.33569,0.16184 2.01272,-4.12439 c 0.54029,-1.10883 0.82085,-2.12473 0.84135,-3.05724 0.0145,-0.50742 -0.0657,-1.04134 -0.23923,-1.60601 C 100.88445,76.35234 100.4,75.5541 99.71413,74.8481 z m -0.0399,7.11908 c -0.18162,0.37385 -0.3477,0.59434 -0.50459,0.6689 -0.15442,0.0696 -0.38092,0.0297 -0.68445,-0.11696 L 89.04985,77.9159 c -0.30777,-0.14912 -0.47986,-0.3053 -0.51484,-0.46466 -0.0297,-0.16714 0.0346,-0.41555 0.19682,-0.74877 0.65371,-1.33993 1.59046,-2.21484 2.80636,-2.62685 1.42438,-0.47739 3.08728,-0.25442 4.99082,0.67597 2.13356,1.03852 3.36113,2.34947 3.68162,3.93004 0.20919,1.03144 0.03,2.12473 -0.5364,3.28551 z"
     id="path131"
     style="fill:#ffffff" /><path
     d="m 105.55018,72.6629 c -0.27279,0.0424 -0.72969,-0.1788 -1.36926,-0.66043 L 96.84311,66.4742 c -0.60707,-0.45795 -0.93781,-0.83003 -0.9894,-1.11943 -0.0569,-0.29329 0.0993,-0.71802 0.47209,-1.2795 l -0.30601,-0.23145 -2.94311,3.90565 0.30636,0.23145 c 0.43745,-0.51555 0.80565,-0.78339 1.10141,-0.80884 0.29329,-0.0297 0.73993,0.18481 1.34629,0.6417 l 7.33781,5.53074 c 0.63958,0.47986 0.97774,0.85972 1.01237,1.13534 0.0322,0.27385 -0.13216,0.69434 -0.48657,1.26749 l 0.29752,0.22367 2.94311,-3.90212 -0.29823,-0.22614 c -0.4523,0.50212 -0.8152,0.77632 -1.08657,0.82014 z"
     id="path133"
     style="fill:#ffffff" /><path
     d="m 108.3,69.43145 c -0.4258,-0.0788 -1.01731,-0.53922 -1.77244,-1.37703 l -5.38374,-5.98022 13.00989,3.52474 0.20848,-0.18905 -7.27314,-8.07879 c -0.7258,-0.8053 -1.11096,-1.38976 -1.15831,-1.75513 -0.0449,-0.36466 0.13675,-0.78763 0.55124,-1.26996 l -0.25618,-0.2834 -2.88304,2.5947 0.25618,0.28693 c 0.49682,-0.35795 0.8841,-0.51237 1.16572,-0.46749 0.42721,0.0763 1.02439,0.53427 1.78481,1.3795 l 4.6212,5.13499 -11.3848,-3.13216 -2.10283,1.89788 0.25618,0.28339 c 0.26043,-0.2166 0.48163,-0.34876 0.66396,-0.39611 0.18057,-0.0541 0.48163,-0.0297 0.89859,0.0731 l 0.39081,0.0965 6.0947,6.76608 c 0.72827,0.80989 1.12332,1.39223 1.18092,1.74735 0.0541,0.34841 -0.14417,0.78516 -0.59187,1.30742 l 0.2484,0.27562 2.88375,-2.59718 -0.24841,-0.27632 c -0.49717,0.33816 -0.88445,0.48481 -1.16007,0.43463 z"
     id="path135"
     style="fill:#ffffff" /><path
     d="m 110.5417,52.48657 c 0.26113,0.11449 0.56113,0.49258 0.90706,1.14099 l 4.31343,8.11096 c 0.36467,0.68869 0.51378,1.16325 0.44523,1.4219 -0.0703,0.24841 -0.35442,0.5523 -0.853,0.90742 l 0.17632,0.33075 7.88728,-4.19364 -0.97668,-3.43287 -0.4053,0.21697 c 0.17633,1.23781 0.10177,2.11731 -0.2212,2.64205 -0.33074,0.51731 -0.98692,1.03851 -1.97632,1.5636 -0.91166,0.48516 -1.47633,0.74346 -1.69753,0.77491 -0.21378,0.0332 -0.41802,-0.13392 -0.61131,-0.49682 l -2.39964,-4.51413 2.24523,-1.19223 c 0.6166,-0.32897 1.07173,-0.42403 1.36431,-0.28127 0.29152,0.13392 0.67879,0.5265 1.16572,1.17244 l 0.34099,-0.18057 -2.24452,-4.22085 -0.34099,0.18057 c 0.27138,0.76325 0.38339,1.30565 0.33321,1.62862 -0.0466,0.32297 -0.38268,0.64876 -1.00388,0.97951 l -2.24453,1.19293 -2.16325,-4.06926 c -0.12615,-0.23922 -0.18904,-0.41025 -0.1841,-0.51979 0.005,-0.11696 0.11449,-0.23074 0.32827,-0.34487 l 1.97915,-1.05407 c 0.85477,-0.45265 1.46855,-0.62897 1.8417,-0.52261 0.37562,0.10707 0.83781,0.52933 1.38975,1.27279 l 0.37067,-0.19682 -1.4424,-2.59187 -7.75053,4.12085 0.1788,0.33851 c 0.56749,-0.24099 0.98198,-0.30035 1.24806,-0.1841 z"
     id="path137"
     style="fill:#ffffff" /><path
     d="m 124.32261,45.47774 c -0.88268,0.23498 -1.50318,0.75972 -1.85936,1.57208 -0.35548,0.81414 -0.39682,1.72297 -0.12897,2.72792 0.20353,0.76042 0.61625,1.3947 1.2378,1.90353 0.33216,0.26608 0.74771,0.50707 1.24453,0.72156 l 1.64841,0.69505 c 0.94699,0.40035 1.58374,0.72155 1.91131,0.96219 0.50282,0.38092 0.84028,0.89541 1.01413,1.54417 0.19435,0.72085 0.15689,1.3318 -0.10848,1.83392 -0.26113,0.50177 -0.64594,0.82262 -1.15583,0.95725 -0.94028,0.25371 -1.85265,0 -2.73428,-0.75866 -0.50706,-0.43428 -1.01413,-1.06573 -1.52438,-1.88905 l -0.36714,0.0975 1.61272,4.12155 0.35018,-0.095 c -0.0223,-0.1689 -0.0194,-0.33003 0.004,-0.49187 0.0297,-0.15937 0.13923,-0.26608 0.3258,-0.3152 0.0763,-0.0205 0.41449,0.0145 1.01413,0.10354 0.60212,0.0897 1.15053,0.0675 1.64311,-0.0647 0.98163,-0.26289 1.69223,-0.83039 2.13499,-1.70035 0.44452,-0.86961 0.52932,-1.82862 0.24841,-2.87597 -0.20849,-0.77739 -0.56714,-1.40636 -1.0735,-1.8841 -0.50954,-0.46714 -1.29576,-0.92262 -2.35477,-1.36254 l -1.69082,-0.7053 c -0.63321,-0.26114 -1.12367,-0.54453 -1.47349,-0.84806 -0.34523,-0.29823 -0.58693,-0.70106 -0.7258,-1.21484 -0.15194,-0.57244 -0.10954,-1.05972 0.12721,-1.46431 0.23816,-0.41308 0.57915,-0.6781 1.01413,-0.79294 0.56113,-0.15194 1.19541,-0.0502 1.90106,0.30248 0.71414,0.35335 1.3728,1.13357 1.97386,2.34452 l 0.38339,-0.10424 -1.48905,-4.15371 -0.32897,0.0898 c 0.0152,0.22544 0,0.40707 -0.0466,0.54347 -0.0399,0.13745 -0.1583,0.23144 -0.35795,0.28409 -0.0721,0.0194 -0.39505,-0.0127 -0.96926,-0.0943 -0.56996,-0.0929 -1.0371,-0.0869 -1.4,0.0106 z"
     id="path139"
     style="fill:#ffffff" /><path
     d="m 131.59329,44.46784 c 0.6166,0.0103 1.01943,0.12403 1.21272,0.33993 0.19152,0.20848 0.31378,0.67916 0.36643,1.41025 l 0.64099,9.16502 c 0.0544,0.77738 -0.002,1.27032 -0.17103,1.4788 -0.16466,0.19894 -0.54699,0.36042 -1.14876,0.4848 l 0.0279,0.37067 8.90955,-0.62155 0.50388,-3.53498 -0.45795,0.0322 c -0.34275,1.20318 -0.7682,1.97915 -1.27703,2.32403 -0.50954,0.33746 -1.32261,0.54664 -2.43816,0.6265 -1.03216,0.0721 -1.65371,0.077 -1.86714,0.017 -0.20848,-0.0594 -0.32827,-0.29328 -0.35866,-0.70035 l -0.35512,-5.10353 2.53604,-0.17633 c 0.69611,-0.0477 1.15053,0.0526 1.36184,0.29859 0.21201,0.2424 0.4053,0.75795 0.58692,1.54806 l 0.38587,-0.0269 -0.33428,-4.77032 -0.38657,0.0272 c -0.0629,0.8053 -0.17986,1.34735 -0.35618,1.62297 -0.17385,0.27314 -0.61378,0.43569 -1.3152,0.48516 l -2.53498,0.1788 -0.32332,-4.59824 c -0.017,-0.26855 -0.005,-0.45265 0.0424,-0.54947 0.0527,-0.10424 0.19859,-0.16607 0.43923,-0.18127 l 2.23992,-0.15689 c 0.96432,-0.0668 1.59576,0.023 1.89435,0.27138 0.29859,0.24841 0.54947,0.82473 0.753,1.72721 l 0.41732,-0.0297 -0.2629,-2.95336 -8.75689,0.61131 0.0258,0.38303 z"
     id="path141"
     style="fill:#ffffff" /><path
     d="m 148.85159,50.24452 c -0.65477,2.14771 -0.67491,4.09718 -0.0611,5.85124 0.66466,1.89859 1.96714,3.14488 3.90883,3.73852 1.18234,0.36113 2.40142,0.29328 3.65972,-0.20672 0.74099,-0.29505 1.40565,-0.69788 1.99894,-1.20742 l -0.20671,-0.52261 c -0.73605,0.47314 -1.38022,0.80035 -1.92969,0.97774 -0.96007,0.31802 -1.90282,0.33215 -2.83886,0.0466 -1.294,-0.39541 -2.17916,-1.31944 -2.65902,-2.7788 -0.47491,-1.46184 -0.40353,-3.19894 0.21379,-5.21272 0.66784,-2.19011 1.59576,-3.78587 2.77561,-4.79329 1.18516,-1.00035 2.41485,-1.30918 3.67633,-0.92403 1.25336,0.38304 2.07032,1.27032 2.45724,2.65725 0.2,0.73604 0.26431,1.64311 0.19859,2.72438 l 0.41555,0.12721 1.38021,-5.12297 -0.37633,-0.11449 c -0.13745,0.23039 -0.29823,0.38233 -0.48833,0.45265 -0.18834,0.0721 -0.36608,0.0813 -0.53605,0.0297 -0.0813,-0.0279 -0.43109,-0.26607 -1.04452,-0.71908 -0.61378,-0.45194 -1.24806,-0.77738 -1.89929,-0.97668 -1.87562,-0.5742 -3.63923,-0.2583 -5.28764,0.94983 -1.56501,1.153 -2.68586,2.82862 -3.35724,5.02367 z"
     id="path143"
     style="fill:#ffffff" /><path
     d="m 159.27032,60.74417 c -0.35972,0.18127 -0.73569,0.1841 -1.12933,0.0103 l -0.19682,0.31554 2.77774,1.73569 0.19858,-0.31554 c -0.30848,-0.23923 -0.50035,-0.43075 -0.57491,-0.57244 -0.12226,-0.23322 -0.088,-0.49965 0.0965,-0.79541 0.0933,-0.14912 0.25088,-0.32827 0.47844,-0.53498 0.23216,-0.21131 0.89046,-0.77491 1.97032,-1.69505 l 3.66643,2.29187 -0.46961,2.04876 c -0.0678,0.29081 -0.14593,0.55937 -0.23569,0.8053 -0.0901,0.24347 -0.16113,0.40954 -0.21378,0.49435 -0.16077,0.25618 -0.32403,0.38233 -0.4848,0.37738 -0.15583,-0.012 -0.45442,-0.12402 -0.89541,-0.33215 l -0.19505,0.31519 3.56466,2.22756 0.19505,-0.31625 c -0.29328,-0.2629 -0.45971,-0.51449 -0.50706,-0.75795 -0.0371,-0.24311 0.0357,-0.76996 0.21696,-1.57809 l 2.71307,-12.11025 -0.27244,-0.16961 -8.29116,6.7689 c -1.24452,1.01378 -2.04735,1.6106 -2.41166,1.78693 z m 8.92509,-6.23145 -1.39188,5.83852 -3.22367,-2.01378 4.61555,-3.82474 z"
     id="path145"
     style="fill:#ffffff" /><path
     d="m 176.54064,71.55724 c -1.2417,0.49188 -2.14523,0.65619 -2.7205,0.48516 -0.57279,-0.17208 -1.35972,-0.7954 -2.36042,-1.86961 -0.2576,-0.27632 -0.43074,-0.46537 -0.52262,-0.57491 -0.0866,-0.10106 -0.16431,-0.20601 -0.23392,-0.31025 -0.11873,-0.17385 -0.15265,-0.32968 -0.1053,-0.46466 0.0576,-0.13463 0.17314,-0.28057 0.33922,-0.4364 l 7.25795,-6.76643 c 0.50212,-0.47067 0.89894,-0.69859 1.19046,-0.69187 0.29506,0.0103 0.66502,0.22579 1.10919,0.64099 l 0.28163,-0.26113 -3.18799,-3.41555 -0.27986,0.26113 c 0.37986,0.48516 0.54452,0.86996 0.50035,1.15583 -0.0438,0.28127 -0.33215,0.67138 -0.86643,1.17103 l -6.72049,6.26678 c -0.56997,0.53251 -0.99046,0.79788 -1.25513,0.79788 -0.25936,-0.002 -0.6272,-0.19859 -1.09858,-0.58693 l -0.27491,0.25442 6.06607,6.50177 3.16608,-1.85124 -0.2848,-0.30601 z"
     id="path147"
     style="fill:#ffffff" /><path
     d="m 181.48869,81.83534 0.17279,-0.45937 c -0.75936,-0.12191 -1.36855,-0.28798 -1.82791,-0.49505 -0.80707,-0.353 -1.43463,-0.89717 -1.87385,-1.63039 -0.60919,-1.01413 -0.64276,-2.13498 -0.1053,-3.3629 0.54947,-1.22862 1.61272,-2.31731 3.1947,-3.2636 1.71484,-1.03463 3.25441,-1.52968 4.60954,-1.49152 1.3583,0.0417 2.33498,0.55901 2.93215,1.55088 0.59188,0.98163 0.60318,2.03816 0.0438,3.16431 -0.30177,0.59682 -0.79011,1.22509 -1.46502,1.88905 l 0.19329,0.32544 3.89682,-2.52085 -0.17809,-0.29858 c -0.22403,0.0721 -0.41555,0.0753 -0.58163,0.0102 -0.16431,-0.0643 -0.28481,-0.16183 -0.36608,-0.29505 -0.0389,-0.0654 -0.12544,-0.42579 -0.25759,-1.0795 -0.13393,-0.65372 -0.35619,-1.23534 -0.6629,-1.74735 -0.88375,-1.47209 -2.21661,-2.29682 -3.99364,-2.47598 -1.69435,-0.1689 -3.40177,0.26608 -5.12474,1.29965 -1.68268,1.01237 -2.83887,2.26749 -3.46784,3.76926 -0.67809,1.62544 -0.55795,3.19894 0.35618,4.72014 0.55619,0.92473 1.38905,1.59576 2.49788,2.00848 0.65619,0.23887 1.32403,0.36749 2.00742,0.38269 z"
     id="path149"
     style="fill:#ffffff" /><path
     d="m 182.60459,85.853 8.68905,-2.99046 c 0.71731,-0.24841 1.21095,-0.31307 1.47915,-0.19434 0.27456,0.11731 0.5424,0.48516 0.79682,1.10919 l 0.3629,-0.12721 -1.59223,-4.62014 -0.36113,0.12402 c 0.17951,0.64841 0.19965,1.10389 0.0523,1.36255 -0.13887,0.25866 -0.56643,0.51201 -1.28516,0.75972 l -8.68799,2.99045 c -0.75653,0.26114 -1.2583,0.32827 -1.50918,0.20424 -0.24276,-0.1272 -0.50212,-0.50035 -0.77668,-1.11413 l -0.35265,0.11944 1.59046,4.62367 0.353,-0.12226 c -0.16325,-0.65301 -0.18374,-1.1053 -0.0731,-1.35654 0.12049,-0.25124 0.56007,-0.50707 1.31448,-0.7682 z"
     id="path151"
     style="fill:#ffffff" /><path
     d="m 196.03357,91.5371 c -0.23216,-1.46678 -1.0258,-2.60494 -2.3894,-3.42049 -1.48905,-0.88445 -3.32014,-1.15583 -5.49788,-0.8099 -2.07244,0.32827 -3.69011,1.10848 -4.847,2.34382 -1.13604,1.21343 -1.58198,2.58516 -1.33922,4.11661 0.22544,1.42933 1.00389,2.55547 2.33004,3.38056 1.48692,0.91979 3.3371,1.20318 5.54841,0.85195 2.17738,-0.34523 3.83568,-1.16502 4.97173,-2.46043 1.04876,-1.1954 1.45547,-2.53003 1.22332,-4.00212 z m -1.83145,2.80672 c -0.87986,0.8477 -2.43145,1.44735 -4.65654,1.8 -2.19964,0.34841 -3.853,0.25865 -4.96395,-0.26891 -1.1053,-0.52226 -1.73287,-1.26254 -1.88375,-2.22403 -0.1576,-0.98268 0.22403,-1.89152 1.13816,-2.73039 0.92226,-0.83674 2.45513,-1.4272 4.60212,-1.76784 2.15195,-0.33922 3.79152,-0.25265 4.9212,0.25936 1.13817,0.51697 1.7841,1.26502 1.93817,2.2417 0.14947,0.9477 -0.2152,1.84311 -1.09541,2.69011 z"
     id="path153"
     style="fill:#ffffff" /><path
     d="m 117.25265,12.39682 c 0.28693,-0.20954 0.52756,-0.33322 0.72155,-0.37562 0.3,-0.0647 0.52156,0.0127 0.66043,0.22898 0.1424,0.21342 0.25866,0.54947 0.35618,0.99894 L 121.76431,26.3 c 0.17915,0.84452 0.15689,1.42438 -0.0668,1.73746 -0.22297,0.31272 -0.78516,0.59364 -1.68304,0.84205 l 0.0897,0.42296 6.35866,-1.34982 -0.0848,-0.39611 c -0.84947,0.1424 -1.44841,0.14735 -1.79929,0.0159 -0.3477,-0.13216 -0.60106,-0.55937 -0.75548,-1.28269 l -3.60707,-16.9682 c -0.0177,-0.0841 -0.0332,-0.13568 -0.0424,-0.15441 -0.007,-0.0272 -0.0293,-0.0618 -0.0696,-0.10177 l -0.13463,0.0283 -3.5788,3.51449 0.0838,0.3954 c 0.23887,-0.20883 0.49752,-0.40989 0.77809,-0.60671 z"
     id="path155"
     style="fill:#ffffff" /><path
     d="m 129.63463,15.00671 c 0.41201,0.57668 1.15795,1.33711 2.23922,2.2841 -0.94452,0.91237 -1.59823,1.68587 -1.9636,2.31732 -0.55442,0.9735 -0.79011,2.0682 -0.7053,3.28586 0.0989,1.41661 0.62403,2.53074 1.57279,3.3417 0.95972,0.79965 2.06113,1.15477 3.31131,1.0682 1.3947,-0.0993 2.47349,-0.64629 3.23639,-1.64311 0.77067,-0.99718 1.10636,-2.18516 1.00954,-3.56431 -0.0848,-1.21767 -0.4424,-2.2523 -1.07173,-3.10177 -0.62403,-0.86325 -1.62791,-1.85265 -3.01519,-2.96855 0.91236,-0.72862 1.56537,-1.35937 1.95865,-1.89859 0.68163,-0.94275 0.98198,-1.97385 0.90495,-3.09576 -0.0799,-1.10318 -0.50954,-2.04523 -1.29823,-2.82862 -0.7841,-0.78269 -1.79435,-1.1311 -3.02933,-1.04382 -1.33993,0.0951 -2.40389,0.61131 -3.1841,1.55089 -0.77314,0.94028 -1.11661,2.04346 -1.02933,3.30848 0.0795,1.11166 0.43216,2.10565 1.06396,2.98798 z m 6.06502,5.59788 c 0.52897,0.60884 0.82756,1.43463 0.90212,2.47845 0.0618,0.92014 -0.10919,1.70247 -0.51626,2.347 -0.4106,0.64629 -1.05653,0.99894 -1.93675,1.06148 -0.83498,0.0569 -1.55406,-0.2841 -2.15265,-1.02262 -0.59187,-0.7378 -0.93286,-1.76183 -1.02403,-3.07455 -0.0527,-0.7682 0.0424,-1.57386 0.28304,-2.41802 0.2417,-0.84559 0.67138,-1.54912 1.29576,-2.11379 1.57774,1.21096 2.62898,2.12333 3.14877,2.74205 z M 130.80813,8.94452 c 0.41979,-0.58657 0.98092,-0.90706 1.68728,-0.95477 0.91236,-0.0647 1.61342,0.20848 2.10282,0.81979 0.49435,0.60212 0.77562,1.3576 0.84029,2.26749 0.0721,1.04488 -0.10177,1.95089 -0.52651,2.72191 -0.24593,0.45018 -0.70636,1.01661 -1.38303,1.70071 -0.92933,-0.61873 -1.69258,-1.29294 -2.29082,-2.02156 -0.5894,-0.73851 -0.91767,-1.5583 -0.98021,-2.45795 -0.0544,-0.79541 0.12721,-1.48657 0.55018,-2.07562 z"
     id="path157"
     style="fill:#ffffff" /><path
     d="m 145.15901,24.70353 c -0.63428,0.62898 -1.44841,1.13605 -2.43675,1.52191 -0.55159,0.21343 -1.23639,0.39929 -2.05053,0.55866 l 0.0647,0.5841 c 1.28727,-0.0891 2.36537,-0.28587 3.23392,-0.5841 1.54841,-0.52898 2.87067,-1.43216 3.96113,-2.70459 0.93745,-1.10566 1.69081,-2.3887 2.25724,-3.85195 0.56643,-1.46431 0.91555,-2.92332 1.04099,-4.37774 0.18339,-2.06819 -0.11343,-3.98021 -0.88516,-5.73463 -0.77173,-1.76254 -1.99929,-2.71978 -3.68339,-2.86572 -1.4159,-0.12474 -2.6371,0.43428 -3.6629,1.67562 -1.01908,1.23957 -1.61766,2.88021 -1.79576,4.91873 -0.14063,1.59823 0.11696,3.00742 0.77315,4.23321 0.66643,1.2152 1.64841,1.87915 2.95088,1.99364 0.32756,0.0269 0.69859,0.002 1.10742,-0.0774 0.78163,-0.13393 1.48021,-0.44523 2.09435,-0.92933 l 0.43286,-0.33816 c -0.19011,0.79257 -0.58693,1.76501 -1.18056,2.91731 -0.58728,1.14664 -1.32827,2.16572 -2.22156,3.06042 z m 2.46714,-6.2636 c -0.58516,0.31555 -1.1364,0.44947 -1.65548,0.4053 -1.13427,-0.1 -1.86325,-0.76148 -2.19788,-1.98693 -0.32579,-1.22332 -0.42721,-2.5325 -0.30495,-3.9325 0.14771,-1.69223 0.49011,-2.94559 1.02262,-3.75619 0.5424,-0.80989 1.18869,-1.18268 1.93993,-1.11837 1.03109,0.0922 1.76184,0.78092 2.19081,2.07314 0.42403,1.29046 0.55124,2.9311 0.37633,4.92191 -0.0322,0.38304 -0.0866,0.88269 -0.16643,1.50424 -0.0781,0.60883 -0.13357,0.96148 -0.17103,1.05371 -0.0993,0.24382 -0.4424,0.52191 -1.03392,0.83569 z"
     id="path159"
     style="fill:#ffffff" /><path
     d="m 156.38481,29.16325 c 1.40424,0.3477 2.71307,-0.0526 3.92579,-1.20565 1.2205,-1.15053 2.04664,-2.57774 2.47032,-4.28375 0.47173,-1.90071 0.43569,-3.46431 -0.11343,-4.69222 -0.55124,-1.22615 -1.41767,-1.98658 -2.60283,-2.28234 -0.60388,-0.14841 -1.24346,-0.14841 -1.9113,0 -0.37809,0.0848 -0.84276,0.24417 -1.39223,0.4834 0.43286,-0.96997 1.01414,-1.91449 1.75018,-2.82933 0.73604,-0.91484 1.4583,-1.64064 2.17067,-2.17739 0.69187,-0.52897 1.42085,-0.89187 2.18445,-1.08869 0.76997,-0.20424 1.64841,-0.29576 2.63534,-0.27809 l 0.0594,-0.47562 c -2.32685,-0.57845 -4.66855,-0.11378 -7.02579,1.39823 -2.67598,1.8364 -4.42262,4.40142 -5.24347,7.69046 -0.63781,2.55301 -0.6106,4.73286 0.0813,6.5371 0.69506,1.80742 1.70213,2.87598 3.01167,3.20389 z m -1.21767,-8.2629 c 0.29364,-1.17526 0.61378,-1.98586 0.96466,-2.43357 0.59576,-0.76325 1.46891,-0.99964 2.62544,-0.71307 1.24983,0.31307 1.93817,1.3371 2.06043,3.06961 0.0746,1.03852 -0.041,2.17739 -0.35301,3.41555 -0.31554,1.26749 -0.79328,2.3265 -1.43109,3.17703 -0.63958,0.84276 -1.40247,1.15053 -2.28622,0.92933 -1.11908,-0.27845 -1.75866,-1.21095 -1.91802,-2.79399 -0.15406,-1.58304 -0.0389,-3.13216 0.33781,-4.65089 z"
     id="path161"
     style="fill:#ffffff" /><path
     d="m 117.13604,124.92049 c 3.67421,8.8675 10.43498,18.26361 22.86396,23.69364 12.42862,-5.43003 19.19011,-14.82614 22.86396,-23.69364 L 140,95.02049 l -22.86396,29.9 z"
     id="path163"
     style="fill:#ffffff" /><path
     d="M 167.20389,70.81131 H 140 112.79611 v 32.0795 c 0,0 -0.0526,1.3735 0.10177,3.66643 L 140,71.10954 l 27.10212,35.44735 c 0.15477,-2.29293 0.10177,-3.66643 0.10177,-3.66643 V 70.81131 z"
     id="path165"
     style="fill:#ffffff" /></svg>