<?xml version="1.0" encoding="UTF-8" standalone="no"?>
<svg
   xmlns:dc="http://purl.org/dc/elements/1.1/"
   xmlns:cc="http://creativecommons.org/ns#"
   xmlns:rdf="http://www.w3.org/1999/02/22-rdf-syntax-ns#"
   xmlns:svg="http://www.w3.org/2000/svg"
   xmlns="http://www.w3.org/2000/svg"
   xml:space="preserve"
   enable-background="new 0 0 400 400.869"
   viewBox="0 0 279.99999 200.00001"
   height="200"
   width="280"
   y="0px"
   x="0px"
   id="Layer_1"
   version="1.1"><metadata
     id="metadata53"><rdf:RDF><cc:Work
         rdf:about=""><dc:format>image/svg+xml</dc:format><dc:type
           rdf:resource="http://purl.org/dc/dcmitype/StillImage" /><dc:title></dc:title></cc:Work></rdf:RDF></metadata><defs
     id="defs51" /><g
     transform="matrix(0.55033502,0,0,0.55033502,29.598973,-10.306124)"
     id="g3"><circle
       style="fill:#ed1c24"
       id="circle5"
       r="150.931"
       cy="198.09801"
       cx="200.96899" /><path
       style="fill:#808285"
       id="path7"
       d="m 200.97,70.287 c -70.476,0 -127.813,57.335 -127.813,127.811 0,70.477 57.337,127.811 127.813,127.811 70.475,0 127.812,-57.334 127.812,-127.811 0,-70.476 -57.337,-127.811 -127.812,-127.811 z m 0,232.505 c -57.728,0 -104.694,-46.965 -104.694,-104.693 0,-57.728 46.966,-104.694 104.694,-104.694 57.728,0 104.693,46.965 104.693,104.693 0,57.728 -46.965,104.694 -104.693,104.694 z" /><path
       style="fill:#cf9c51"
       id="path9"
       d="m 96.275,198.098 c 0,57.728 46.966,104.693 104.694,104.693 57.728,0 104.693,-46.965 104.693,-104.693 0,-57.728 -46.964,-104.693 -104.692,-104.693 -57.728,0 -104.695,46.965 -104.695,104.693 z" /><g
       id="g11"><path
         style="fill:#0a4a9b"
         id="path13"
         d="m 200.97,18.727 0,196.127 c 22.347,-17.209 41.486,-29.283 41.486,-90.932 0,-24.917 13.87,-32.438 22.473,-32.438 l 0,-35.021 c -20.161,0 -37.194,-16.279 -37.194,-37.736" /><path
         style="fill:#ed1c24"
         id="path15"
         d="m 168.789,180.177 32.181,0 0,-33.651 -40.444,0 c 1.44,14.351 4.324,25.122 8.263,33.651 z M 137.01,91.485 c 7.391,0 18.663,5.564 21.693,22.933 l 42.266,0 0,-33.651 -63.959,0 0,10.718 z m 37.195,-72.758 c 0,12.442 -5.734,23.137 -14.479,29.932 l 41.244,0 0,-29.932 -26.765,0 z" /><path
         style="fill:#ffffff"
         id="path17"
         d="m 159.483,123.923 c 0,8.424 0.369,15.892 1.043,22.603 l 40.444,0 0,-32.108 -42.266,0 c 0.496,2.846 0.779,5.998 0.779,9.505 z m 41.487,90.931 0,-34.677 -32.181,0 c 7.703,16.677 19.414,24.846 32.181,34.677 z M 159.726,48.659 c -6.335,4.923 -14.246,7.804 -22.715,7.804 l 0,24.304 63.959,0 0,-32.108 -41.244,0 z" /></g><g
       id="g19"><path
         style="fill:#cf9c51"
         id="path21"
         d="m 216.769,41.54 c -8.626,0 -11.56,8.189 -11.56,15.595 0,10.962 5.652,23.633 5.652,23.633 l 0,2.312 -1.477,0 0,1.528 -1.738,0 0,5.832 1.738,0 c -1.987,4.835 -1.49,51.257 -1.49,51.257 0,0 -3.351,3.48 -3.351,9.061 0,7.316 6.081,13.031 14.025,13.031 9.929,0 14.77,-5.342 14.77,-14.028 0,-6.332 -1.242,-8.812 -5.959,-11.171 0,0 -0.247,-44.432 -2.606,-48.151 l 1.489,0 0,-5.588 -1.613,-0.62 0,-2.607 c 0,0 5.088,-7.572 5.088,-21.719 0.001,-13.032 -5.832,-18.365 -12.968,-18.365 z" /><path
         style="fill:#ffffff"
         id="path23"
         d="m 208.888,63.255 c 0,-0.869 1.49,0 1.49,0 0,0 1.86,2.73 5.335,2.73 5.462,0 7.695,-1.985 10.178,-4.467 0.349,7.425 -1.502,14.888 -3.972,21.222 l -1.737,0 c 0,0 0.124,-5.46 2.979,-13.279 -0.089,-1.002 -1.551,-0.932 -2.481,0 -2.235,4.22 -2.483,13.404 -2.483,13.404 l -4.593,0 c -0.001,-7.075 -4.716,-15.266 -4.716,-19.61 z m 1.985,23.084 0,2.854 c 3.601,0 4.84,0.993 8.441,0.993 2.108,0 3.97,-0.868 3.97,-0.868 l 0,-3.103 c 0,0 -1.736,-0.869 -3.97,-0.869 -2.235,0 -3.227,0.993 -5.337,0.993 -1.242,0 -3.104,0 -3.104,0 z" /><path
         style="fill:#ed1c24"
         id="path25"
         d="m 224.526,109.921 0,13.155 -13.527,-19.982 c 0,0 -0.311,-8.377 0.497,-9.184 2.667,1.054 13.03,16.011 13.03,16.011 z m -13.031,27.427 c -0.559,0.559 0,7.322 0,7.322 l 4.218,3.104 4.343,0 0,-3.104 c 10e-4,0 -4.343,-6.205 -8.561,-7.322 z" /><path
         style="fill:#808285"
         id="path27"
         d="m 224.526,129.778 0,11.046 c 0,0 -10.364,-10.984 -13.527,-15.267 0,-1.117 -0.807,-12.099 0,-12.906 4.749,5.214 13.527,17.127 13.527,17.127 z m -6.454,-37.357 4.964,6.081 0,-5.832 -4.964,-0.249 z" /><path
         style="fill:#ffffff"
         id="path29"
         d="m 210.75,151.125 c 0,1.861 1.737,4.095 1.737,4.095 0,0 0,2.111 -0.992,2.111 -2.235,0 -3.849,-2.979 -3.849,-6.826 0,-1.615 0.869,-4.717 1.861,-4.717 0.993,-0.001 1.243,1.489 1.243,5.337 z m 4.22,-1.738 c -0.746,0 -1.614,1.612 -1.614,2.73 0,2.854 2.233,7.694 3.351,7.694 1.116,0 2.172,-1.117 2.172,-2.172 -2.886,-3.94 -1.8,-8.252 -3.909,-8.252 z m 5.087,0 c -1.24,2.979 0.994,9.06 3.352,9.06 1.241,0 2.606,-1.239 2.606,-2.605 -4.468,-3.227 -1.118,-6.455 -5.958,-6.455 z m 4.717,-2.235 c 0,1.862 2.111,6.827 4.096,6.827 1.117,0 1.985,-1.986 1.985,-4.592 0,-1.117 -2.729,-3.662 -3.661,-3.662 -0.931,0 -2.42,0.806 -2.42,1.427 z" /></g><g
       id="g31"><path
         id="path33"
         d="m 7.997,129.341 0,30.329 c 0,83.808 59.963,122.468 118.998,122.468 l 0,-152.797 -30.792,0 0,120.387 C 63.329,235.804 39.02,210.833 39.02,129.341 l -31.023,0 z" /><path
         style="fill:#ffffff"
         id="path35"
         d="m 100.827,133.965 c 0,8.55 0,122.742 0,122.742 L 94.4,253.985 c -30.602,-12.96 -58.939,-36.606 -59.956,-120.02 -5.488,0 -16.289,0 -21.824,0 0,6.643 0,25.705 0,25.705 0,79.203 54.375,115.827 109.75,117.751 0,-8.582 0,-135.037 0,-143.457 -5.497,0.001 -16.044,0.001 -21.543,0.001 z" /></g><g
       id="g37"><path
         id="path39"
         d="m 271.534,129.341 0,26.717 c 0,91.561 63.01,126.08 120.47,126.08 l 0,-25.905 c -53.769,0 -87.979,-37.905 -87.979,-95.991 l 56.854,0 0,36.92 31.125,0 0,-67.821 -120.47,0 z" /><path
         style="fill:#ffffff"
         id="path41"
         d="m 276.157,133.965 c 0,6.324 0,22.093 0,22.093 0,87.074 58.873,119.575 111.224,121.371 0,-4.993 0,-12.032 0,-16.779 -53.582,-2.137 -87.982,-41 -87.982,-100.408 l 0,-4.624 66.103,0 c 0,0 0,29.843 0,36.92 5.535,0 16.344,0 21.879,0 0,-7.443 0,-51.131 0,-58.574 -8.211,0.001 -103.014,0.001 -111.224,0.001 z" /></g><g
       id="g43"><path
         id="path45"
         d="m 251.583,224.805 c 0,0 -20.865,-0.888 -30.853,-0.888 -7.251,0 -19.389,-0.256 -29.809,3.169 -14.777,4.859 -27.238,19.247 -27.238,35.896 0,38.84 66.59,49.496 66.59,73.693 0,11.537 -10.876,19.311 -25.083,19.311 l -41.507,0 0,26.156 50.831,0 c 16.204,0 48.168,-16.17 48.168,-47.021 0,-22.199 -14.777,-33.773 -29.945,-43.929 -17.9,-11.987 -36.647,-20.134 -36.647,-29.985 0,-8.881 5.772,-11.987 36.848,-11.987 4.662,0 18.646,0.223 18.646,0.223 l 0,-24.638 z" /><path
         style="fill:#ffffff"
         id="path47"
         d="m 192.367,231.478 c -11.957,3.932 -24.059,16.016 -24.059,31.505 0,19.134 18.79,30.792 36.961,42.066 15.236,9.451 29.629,18.379 29.629,31.626 0,13.867 -12.495,23.934 -29.707,23.934 0,0 -29.582,0 -36.883,0 0,4.92 0,11.986 0,16.91 7.641,0 46.207,0 46.207,0 14.779,0 43.543,-14.967 43.543,-42.398 0,-19.774 -13.193,-30.246 -27.892,-40.087 -4.378,-2.932 -8.797,-5.623 -13.07,-8.225 -14.317,-8.721 -25.628,-15.607 -25.628,-25.602 l 0,0 c 0,-14.301 12.226,-16.61 41.472,-16.61 0,0 8.75,0.104 14.022,0.167 0,-4.774 0,-10.931 0,-15.517 -6.657,-0.258 -19.224,-0.706 -26.229,-0.706 l -1.427,-0.001 c -7.122,-0.016 -17.881,-0.04 -26.939,2.938 z" /></g></g></svg>