<?xml version="1.0" encoding="UTF-8"?>
<!-- Generator: Adobe Illustrator 12.0.0, SVG Export Plug-In  -->
<!DOCTYPE svg PUBLIC "-//W3C//DTD SVG 1.1//EN" "http://www.w3.org/Graphics/SVG/1.1/DTD/svg11.dtd" [
	<!ENTITY ns_flows "http://ns.adobe.com/Flows/1.0/">
	<!ENTITY ns_svg "http://www.w3.org/2000/svg">
	<!ENTITY ns_xlink "http://www.w3.org/1999/xlink">
]>
<svg version="1.1" xmlns="http://www.w3.org/2000/svg" xmlns:xlink="http://www.w3.org/1999/xlink" xmlns:a="http://ns.adobe.com/AdobeSVGViewerExtensions/3.0/" width="193" height="193" viewBox="0 0 193 193" enable-background="new 0 0 193 193" xml:space="preserve">
<defs>
</defs>
<polygon opacity="0" fill-rule="evenodd" clip-rule="evenodd" fill="#FFFFFF" points="0,0 192.7558594,0 192.7558594,192.7558594   0,192.7558594 0,0 "/>
<path fill-rule="evenodd" clip-rule="evenodd" fill="#005F27" d="M142.8027344,156.7929688  c2.1386719,4.7285156-5.0673828,6.5302734-8.6699219,3.2646484l-2.5898438-0.5625l1.3515625-2.8154297  c3.828125,2.5898438,7.2050781,4.1669922,11.5966797,5.7431641c-3.828125,1.5761719-7.65625,3.1523438-11.8222656,3.828125  l0.4501953,0.1123047l4.1660156,1.4638672c-6.6435547,2.5898438-15.8759766,6.6425781-23.0820313,3.0400391  c-1.4638672,4.0537109-4.1660156,7.5439453-7.9941406,10.2460938c-6.6435547,4.3916016-12.7236328,3.6035156-20.3798828,1.1259766  c-4.7290039-1.6884766-5.9677734-5.4042969-5.9677734-11.5976563c-10.4716797,3.3779297-5.9677734,7.8818359-11.9350586,9.6835938  c-6.8681641,2.1396484-16.7768555-2.2519531-7.6567383-8.4443359c2.9277344-2.0273438,6.1928711-3.4912109,9.4580078-4.9550781  c-28.7114258-10.921875-45.2636719-34.6787109-47.1772461-63.9541016  c-10.246582-1.9140625-9.4580078-13.1733398-7.9946289-20.8300781c1.8017578-9.6831055,24.3208008-15.6508789,31.6396484-3.1523438  c4.0532227-10.246582,11.0341797-18.9165039,19.9291992-24.8842773l-2.9272461-6.4179688  c-1.5761719-0.4501953-2.7021484-1.9135742-2.7021484-3.6030273c0-0.4501953,0.1123047-0.9003906,0.2250977-1.3510742  L55.878418,32.3740234l-0.9008789,0.5629883l-5.9672852-11.484375L54.8652344,18.75v-0.2250977l5.8549805-2.8149414  l1.8012695-0.9008789l5.7421875-2.3642578l4.5043945,8.6699219l1.5761719-0.4506836l1.4638672-0.3378906l1.6889648,4.9545898  l-1.4638672-0.9008789l-1.0136719,1.6889648l-1.3510742-5.1796875c2.8149414-0.7880859,5.6298828-1.3510742,8.4448242-1.9135742  l1.2387695,4.503418l-1.2387695-0.7880859l-1.1259766,1.4638672l-0.6757813-4.8417969c1.6889648-0.2250977,0,0,1.6889648-0.2250977  L81.6630859,8.7290039c4.7290039-0.112793,7.4311523-0.112793,7.65625-0.112793c-0.1123047,0,0.112793,0,0,0  c3.152832-0.1123047,6.4179688-0.1123047,9.5703125-0.1123047l7.4316406,0.1123047V18.75l0.5634766,0.112793l1.5761719,0.112793  l-0.7880859,4.6162109l-0.7880859-1.3510742l-1.5771484,1.0131836L106.2089844,18.75  c2.8144531,0.4501953,5.5175781,0.9008789,8.2197266,1.5761719l-0.7890625,4.9545898l-0.7880859-1.4638672l-1.6884766,0.9008789  l1.1259766-4.8417969c1.1259766,0.2250977,2.2519531,0.4501953,3.265625,0.7880859l4.2783203-9.1201172l19.7041016,8.8950195  l-6.0800781,11.4848633l-0.9003906-0.4501953l-1.5771484,3.6025391l-2.8144531,6.7558594  c0.2255859,0.4506836,0.3378906,1.0136719,0.3378906,1.5766602c0,1.5761719-1.0136719,2.9277344-2.4775391,3.4907227  l-2.8144531,6.7553711c14.6376953,9.2329102,24.3203125,25.671875,24.3203125,44.137207  c0,23.6455078-15.6503906,44.0253906-37.8320313,50.4433594c1.1259766,0.7880859,2.0273438,1.5761719,2.8144531,2.4775391  c4.5048828-5.0673828,3.8291016-4.5039063,6.9814453-11.2597656c0.6757813,2.5898438,1.3515625,5.1796875,2.0263672,7.8818359  c3.265625-3.828125,4.6171875-6.7558594,6.7558594-11.2597656c0.5634766,2.1396484,1.0136719,4.1660156,1.5761719,6.0800781  c1.6894531-4.8417969,4.8417969-9.3457031,7.4316406-13.8496094l0.3378906,1.3515625  c1.0136719-0.3378906,2.2519531-0.4501953,3.1523438,0l0.1132813-0.5634766  c0.3369141-4.9541016,1.9140625-9.9082031,3.2646484-14.75l1.9150391,3.7158203  c0-0.1123047,0.1123047-0.1123047,0.2246094-0.1123047c-1.9140625-5.0673828-1.5761719-10.5839844-1.2382813-15.8759766  l2.1386719,1.1259766c-0.5625-2.3652344-0.7880859-4.8417969-1.125-7.2060547  c4.2783203,1.4638672,8.7822266,2.8144531,11.7089844,6.4179688v-0.9013672  c-4.2783203,0.9013672-9.9082031-1.5761719-13.9619141-3.1523438c1.6894531-2.0268555,3.1533203-3.940918,5.1796875-5.6298828  c-2.8144531-2.7021484-4.0537109-6.0800781-5.1796875-9.4580078c-5.4042969-3.6030273,1.6894531-9.3457031,7.4316406-4.5039063  l4.1660156,1.4638672c-0.1123047-0.3378906-0.2246094-0.7885742-0.3378906-1.1259766l1.6894531,1.1259766  c-13.8496094,1.6889648-18.578125-7.4311523-23.4199219-17.902832c3.7148438,1.6889648,7.0927734,3.3779297,11.2597656,3.940918  c-1.1259766-4.7290039-0.2255859-9.6831055,0.2246094-14.4121094c4.1660156,5.8544922,4.9541016,6.9804688,10.359375,11.3720703  c0.3369141,0.2250977,0.5625,0.4501953,0.9003906,0.7880859c4.2783203-4.7290039,4.0537109-4.7290039,7.3183594-11.1469727  c1.2392578,4.8413086,2.9277344,10.2460938,1.8017578,15.3129883c1.4638672,0.2250977,2.4765625,1.2382813,2.7021484,2.7021484  c2.3642578-0.675293,4.8417969-1.2382813,7.2060547-1.8012695c-3.4902344,4.8413086-4.2783203,5.6293945-6.1923828,11.034668  c-0.3378906,0.9003906-0.6757813,1.8012695-1.1259766,2.5893555c1.2382813,0.3378906,2.0263672,1.4633789,1.9140625,2.9272461  c1.2382813-0.3378906,2.5898438-0.4501953,3.828125-0.675293c-0.1123047,2.5898438-0.1123047,5.1796875-0.7880859,7.769043  c2.1396484,0.112793,4.2783203,0.7880859,6.3056641,1.4638672c-1.9140625,3.828125-3.9414063,7.7685547-7.5439453,10.3583984  c1.6884766,0.1132813,3.4902344,0.2255859,5.0664063,0.3378906c-1.9140625,4.0537109-3.828125,9.1201172-7.3183594,12.0478516  c1.4638672,0.2255859,2.8144531,0.4501953,4.2783203,0.5634766c-2.4765625,4.6162109-5.1796875,9.0078125-9.9082031,11.5966797  c2.2519531,0.3378906,4.390625,1.1259766,6.6425781,1.8017578c-3.3769531,4.3916016-6.9804688,8.4443359-12.2724609,10.4716797  c3.0400391,4.2783203-3.828125,7.3183594-7.8818359,5.0664063h-4.1660156  c3.4902344,1.1259766,6.4179688,3.1533203,9.3457031,5.0673828  C151.359375,153.8652344,147.4189453,156.1171875,142.8027344,156.7929688L142.8027344,156.7929688z"/>
<path fill-rule="evenodd" clip-rule="evenodd" fill="#FFE800" d="M104.4072266,34.9638672l-1.0136719-5.8549805  c2.9277344,0.112793,5.7431641,0.675293,8.4453125,1.5761719l-3.8291016,4.8417969  C106.8847656,35.3017578,105.6455078,35.1894531,104.4072266,34.9638672L104.4072266,34.9638672z"/>
<path fill-rule="evenodd" clip-rule="evenodd" fill="#FFE800" d="M86.5043945,21.0019531l-1.3510742,7.6567383  c-3.0400391,0.1123047-7.2060547,0.9008789-9.5708008,2.0263672l-5.2919922-6.3051758  c1.2387695-0.4501953,2.7026367-0.5629883,4.0537109-1.0131836l1.2382813,3.4902344l1.8017578-0.4501953l-0.9008789-3.6030273  c1.3510742-0.3378906,2.5898438-0.6757813,3.940918-0.9008789l0.7880859,3.0400391l2.2519531-0.2250977l-0.5629883-3.152832  C84.0273438,21.3398438,85.265625,21.1147461,86.5043945,21.0019531L86.5043945,21.0019531z"/>
<path fill-rule="evenodd" clip-rule="evenodd" fill="#FFE800" d="M124.1113281,45.6601563l-2.2519531,5.0673828  c-7.65625-4.2788086-17.2265625-6.980957-26.6850586-6.980957c-9.6831055,0-19.9296875,2.9272461-27.8110352,7.5439453  l-2.4770508-5.1796875C82.4511719,35.8647461,105.1953125,34.9638672,124.1113281,45.6601563L124.1113281,45.6601563z"/>
<path fill-rule="evenodd" clip-rule="evenodd" fill="#FFFFFF" d="M60.9453125,98.1298828  c0,18.8037109,15.3129883,34.1171875,34.2290039,34.1171875c18.8032227,0,34.1166992-15.3134766,34.1166992-34.1171875  c0-18.9160156-15.3134766-34.2290039-34.1166992-34.2290039C76.2583008,63.9008789,60.9453125,79.2138672,60.9453125,98.1298828  L60.9453125,98.1298828z M57.5673828,98.1298828c0-20.8300781,16.8896484-37.6064453,37.6069336-37.6064453  s37.4946289,16.7763672,37.4946289,37.6064453c0,20.7177734-16.7773438,37.4951172-37.4946289,37.4951172  S57.5673828,118.8476563,57.5673828,98.1298828L57.5673828,98.1298828z"/>
<path fill-rule="evenodd" clip-rule="evenodd" fill="#FFE800" d="M25.2524414,102.4091797  c1.8012695,31.9775391,21.6186523,57.0859375,55.9599609,65.4179688c7.09375,1.6884766,13.7368164,1.8017578,19.4790039,1.3505859  c0.4501953,0.1132813,0.5634766,0.2255859,0.5634766,0.3378906c0.1123047,0.5634766,0.1123047,0.6757813,0,0.9013672  l-2.9277344,0.2246094v6.1933594c-3.7158203-3.4912109-11.3720703-6.5302734-15.0878906-0.4501953  c0.5629883,1.9140625,1.6889648,2.8144531,3.3779297,3.3769531c7.4311523,2.4775391,12.4980469,3.0410156,18.015625-0.6748047  c6.4179688-4.3916016,8.8945313-10.921875,8.4443359-19.2539063c-0.2255859-6.0800781-3.9404297-10.0214844-11.0341797-11.7099609  c-2.7021484,0.4501953-4.0537109,0.3378906-6.8686523,0.3378906c-27.9238281,0-50.4428711-22.5195313-50.4428711-50.3310547  c0-3.4902344,0.3378906-6.8681641,1.0136719-10.2460938c-0.2255859-18.2402344-26.6855469-14.8623047-28.4868164-4.9541016  c-0.5629883,2.3642578-0.6757813,5.0668945-0.7885742,7.9941406c-0.1123047,4.0537109,0.9008789,6.7558594,3.152832,8.3320313  c3.7158203-2.4770508,2.5898438-10.1333008,2.0268555-13.0610352c1.3510742-0.1123047,2.7021484,0,4.1660156,0  c0-0.5629883,0.2250977-1.2382813,0.4501953-1.8012695c0.4506836-0.4501953,0.7880859-0.3378906,1.2387695,0.2250977  C26.0405273,90.9238281,25.1396484,95.878418,25.2524414,102.4091797L25.2524414,102.4091797z"/>
<path fill-rule="evenodd" clip-rule="evenodd" fill="#FFFFFF" d="M48.8974609,98.1298828  c0,25.4472656,20.7177734,46.1650391,46.2768555,46.1650391c25.4467773,0,46.1645508-20.7177734,46.1645508-46.1650391  c0-25.559082-20.7177734-46.2763672-46.1645508-46.2763672C69.6152344,51.8535156,48.8974609,72.5708008,48.8974609,98.1298828  L48.8974609,98.1298828z M45.6323242,98.1298828c0-27.3603516,22.1811523-49.5419922,49.5419922-49.5419922  c27.2485352,0,49.4301758,22.1816406,49.4301758,49.5419922c0,27.2480469-22.1816406,49.4296875-49.4301758,49.4296875  C67.8134766,147.5595703,45.6323242,125.3779297,45.6323242,98.1298828L45.6323242,98.1298828z"/>
<path fill-rule="evenodd" clip-rule="evenodd" fill="#FFE800" d="M67.5883789,51.7407227  c7.9941406-4.7290039,17.4526367-7.4311523,27.4736328-7.4311523c9.7954102,0,18.8032227,2.5898438,26.6850586,7.0932617  l-1.2382813,2.7021484c-7.4316406-4.2783203-16.2138672-6.7553711-25.3344727-6.7553711  c-9.4580078,0-18.578125,2.7021484-26.1220703,7.2060547L67.5883789,51.7407227L67.5883789,51.7407227z"/>
<path fill-rule="evenodd" clip-rule="evenodd" fill="#FFE800" d="M103.1689453,28.0957031l-1.3515625-7.206543  c1.3515625,0.112793,2.5898438,0.2255859,3.9414063,0.4506836l-0.4511719,2.8149414l2.1396484,0.5629883l0.5625-3.152832  c1.3515625,0.3378906,2.5898438,0.5629883,3.7167969,0.7880859l-0.4511719,3.3779297l2.1396484,0.5629883l0.6757813-3.3779297  c1.0126953,0.2255859,2.0263672,0.5629883,3.0400391,0.7885742l-4.7294922,6.1928711  C109.3613281,28.996582,106.3212891,28.3208008,103.1689453,28.0957031L103.1689453,28.0957031z"/>
<path fill-rule="evenodd" clip-rule="evenodd" fill="#FFE800" d="M62.7470703,44.3095703  c0-0.4506836,0.3374023-0.9008789,0.7880859-1.1259766c9.2329102-5.4047852,20.0419922-8.5576172,31.6391602-8.5576172  c10.9223633,0,21.168457,2.9277344,30.175293,7.6567383c0.4511719,0.3378906,0.7890625,0.7880859,0.7890625,1.3510742  c0,0.6757813-0.5634766,1.3510742-1.3515625,1.3510742c-0.3378906,0-0.5634766-0.1123047-0.9003906-0.3378906  c-8.5576172-4.6162109-18.3535156-7.2060547-28.7124023-7.2060547c-11.0341797,0-21.2807617,2.9272461-30.1757813,7.9946289  c-0.1123047,0-0.2250977,0.1123047-0.3378906,0.2246094c-0.2250977,0-0.2250977,0.1132813-0.4501953,0.1132813  C63.4223633,45.7734375,62.7470703,45.0976563,62.7470703,44.3095703L62.7470703,44.3095703z"/>
<path fill-rule="evenodd" clip-rule="evenodd" fill="#FFE800" d="M85.1533203,29.3339844l-1.0131836,5.8554688  c-1.4638672,0.2246094-2.9277344,0.449707-4.2788086,0.9003906l-3.7158203-4.7290039  C79.0732422,30.347168,82.1132813,29.671875,85.1533203,29.3339844L85.1533203,29.3339844z"/>
<path fill-rule="evenodd" clip-rule="evenodd" fill="#FFE800" d="M82.9013672,174.5830078  c3.4907227-3.4902344,9.4580078-3.6035156,14.1870117-0.2255859c-0.1123047-1.3505859,0.112793-2.4765625,0-3.7158203  c-4.0532227,0-8.8950195-0.1123047-14.1870117-1.1259766C82.6762695,171.7675781,82.6762695,173.4570313,82.9013672,174.5830078  L82.9013672,174.5830078z"/>
<path fill-rule="evenodd" clip-rule="evenodd" fill="#FFE800" d="M23.1132813,95.765625  c-0.5629883,1.6894531-1.1259766,3.1523438-1.9145508,4.0537109c0.9008789,0.2246094,1.9145508,0.5625,3.0405273,0.5625  c-0.2255859-3.3779297,0.4501953-7.65625,1.3505859-12.9482422c-0.7875977,0-1.5761719,0-2.4765625,0.112793  C23.4506836,90.6992188,23.4506836,93.5136719,23.1132813,95.765625L23.1132813,95.765625z"/>
<path fill-rule="evenodd" clip-rule="evenodd" fill="#BDCC0D" d="M60.7202148,174.5830078  c3.0400391-1.9140625,7.769043-4.5039063,14.5244141-7.3193359c1.4638672,0.5634766,2.8154297,0.9013672,4.2792969,1.2392578  c-1.3515625,0.4501953-2.4775391,0.9003906-3.4907227,1.2382813c-3.152832,1.0136719-5.5170898,3.9404297-6.7558594,7.09375  c-0.5629883,1.4638672-6.4179688,3.1523438-9.6831055,0.9003906  C58.4682617,177.0595703,59.03125,175.7089844,60.7202148,174.5830078L60.7202148,174.5830078z"/>
<path fill-rule="evenodd" clip-rule="evenodd" fill="#BDCC0D" d="M157.7773438,77.7504883  c-8.4443359-3.3779297-12.2724609-9.7958984-11.2597656-19.2539063  C151.8095703,65.9277344,159.5791016,65.0268555,157.7773438,77.7504883L157.7773438,77.7504883z"/>
<path fill-rule="evenodd" clip-rule="evenodd" fill="#BDCC0D" d="M138.1865234,67.2788086  c3.4902344,1.5761719,6.6425781,1.5761719,9.5703125,2.0268555c1.2382813,3.4907227,5.0664063,7.09375,9.6826172,8.6699219  C148.5449219,79.3266602,142.1269531,75.8364258,138.1865234,67.2788086L138.1865234,67.2788086z"/>
<path fill-rule="evenodd" clip-rule="evenodd" fill="#BDCC0D" d="M162.6191406,59.7348633  c1.6894531,6.5307617,0.2255859,11.7099609-4.2783203,15.4257813c0.2246094-2.7021484-0.1123047-4.9541016-1.9140625-7.769043  C158.2285156,65.0268555,160.9306641,63.3378906,162.6191406,59.7348633L162.6191406,59.7348633z"/>
<path fill-rule="evenodd" clip-rule="evenodd" fill="#BDCC0D" d="M169.4873047,73.0214844  c-3.4902344,5.0668945-1.4638672,9.6831055-8.3320313,11.9350586c-0.3378906-1.4638672-0.6748047-2.9277344-1.1259766-4.3911133  C161.4931641,76.7368164,164.6464844,74.2597656,169.4873047,73.0214844L169.4873047,73.0214844z"/>
<path fill-rule="evenodd" clip-rule="evenodd" fill="#BDCC0D" d="M159.6914063,91.2617188  c0.1132813,1.1259766,0.2255859,2.3647461,0.3378906,3.6035156c-6.8681641-0.2255859-11.3720703-3.8286133-13.6240234-10.8095703  C151.8095703,87.3208008,156.7646484,85.5195313,159.6914063,91.2617188L159.6914063,91.2617188z"/>
<path fill-rule="evenodd" clip-rule="evenodd" fill="#BDCC0D" d="M147.7568359,97.5673828  c1.5761719-2.0268555,3.1523438-3.4907227,4.7285156-4.5039063c2.703125,1.4638672,5.2919922,2.1391602,7.4316406,2.0268555  c0.1123047,0.7880859,0.1123047,1.5761719,0.1123047,2.2514648C158.3408203,100.2695313,154.625,100.1572266,147.7568359,97.5673828  L147.7568359,97.5673828z"/>
<path fill-rule="evenodd" clip-rule="evenodd" fill="#BDCC0D" d="M171.0644531,87.996582  c-0.3378906,7.2060547-3.3789063,11.7104492-8.7832031,13.1733398c0.1123047-2.2519531,0.1123047-4.503418,0-6.7553711  C163.7451172,90.9238281,166.6728516,88.784668,171.0644531,87.996582L171.0644531,87.996582z"/>
<path fill-rule="evenodd" clip-rule="evenodd" fill="#BDCC0D" d="M162.1689453,104.4355469  c0.1123047-0.9003906,0.1123047-2.0263672,0.1123047-3.0400391c3.265625-0.7880859,5.8554688-2.7021484,7.4316406-6.0800781  c1.9140625-0.3378906,3.9404297-0.112793,5.9677734,0.5629883  C172.3027344,102.4091797,168.1367188,105.4492188,162.1689453,104.4355469L162.1689453,104.4355469z"/>
<path fill-rule="evenodd" clip-rule="evenodd" fill="#BDCC0D" d="M144.3789063,80.3398438  c0.2255859-0.7880859,1.6894531-1.0131836,3.265625-0.5629883c1.5761719,0.3383789,2.7021484,1.2387695,2.5888672,2.0268555  c-0.1123047,0.6757813-1.5761719,0.9008789-3.2646484,0.4506836  C145.3925781,81.9165039,144.2666016,81.015625,144.3789063,80.3398438L144.3789063,80.3398438z"/>
<path fill-rule="evenodd" clip-rule="evenodd" fill="#BDCC0D" d="M165.3212891,70.8818359  c0.5634766,0.4506836,0.2255859,1.9145508-0.7880859,3.2651367c-1.1259766,1.2387695-2.3642578,1.9145508-2.9267578,1.4638672  c-0.5634766-0.4501953-0.2255859-1.9135742,0.7871094-3.1523438  C163.4072266,71.1074219,164.7587891,70.5444336,165.3212891,70.8818359L165.3212891,70.8818359z"/>
<path fill-rule="evenodd" clip-rule="evenodd" fill="#BDCC0D" d="M162.8447266,89.2353516  c-0.5634766-0.5629883,0-1.9145508,1.2382813-3.0405273c1.2382813-1.1254883,2.5898438-1.4638672,3.0400391-0.9008789  c0.5625,0.5634766,0,1.8017578-1.2382813,2.9277344C164.6464844,89.2353516,163.2949219,89.6855469,162.8447266,89.2353516  L162.8447266,89.2353516z"/>
<path fill-rule="evenodd" clip-rule="evenodd" fill="#BDCC0D" d="M164.0830078,108.1513672  c-0.3378906-0.6757813,0.4501953-1.8017578,1.6894531-2.7021484c1.3505859-0.9013672,2.8144531-1.1259766,3.2646484-0.5634766  c0.3378906,0.5634766-0.4501953,1.8017578-1.6884766,2.7021484  C165.9970703,108.6015625,164.5332031,108.8271484,164.0830078,108.1513672L164.0830078,108.1513672z"/>
<path fill-rule="evenodd" clip-rule="evenodd" fill="#BDCC0D" d="M158.7910156,112.3173828  c-0.1123047,0.6757813-0.2255859,1.3505859-0.3378906,2.0263672c-5.2919922-1.6884766-8.2197266-6.3046875-9.4580078-14.75  C155.3007813,101.8457031,158.3408203,105.7871094,158.7910156,112.3173828L158.7910156,112.3173828z"/>
<path fill-rule="evenodd" clip-rule="evenodd" fill="#BDCC0D" d="M172.8652344,107.25  c-3.4902344,7.3193359-5.9667969,11.0351563-12.9482422,10.4716797c0.4501953-1.8007813,0.9003906-3.7158203,1.2382813-5.5175781  c0.9013672-1.4628906,2.0273438-2.4765625,3.3779297-3.2646484c0.9013672,0,1.9140625-0.3378906,2.9277344-1.1259766  l0.2246094-0.1123047C169.1494141,107.3632813,170.9511719,107.1376953,172.8652344,107.25L172.8652344,107.25z"/>
<path fill-rule="evenodd" clip-rule="evenodd" fill="#BDCC0D" d="M156.0888672,122.3388672  c-0.2255859,0.7880859-0.5634766,1.5761719-0.9003906,2.2509766c-6.4179688-2.9267578-8.6708984-9.6826172-7.9951172-18.578125  C152.9365234,109.0517578,156.9892578,116.3710938,156.0888672,122.3388672L156.0888672,122.3388672z"/>
<path fill-rule="evenodd" clip-rule="evenodd" fill="#BDCC0D" d="M169.8251953,119.6357422  c-3.7158203,6.7558594-9.4580078,9.5712891-13.8486328,9.0078125c0.9003906-1.8017578,1.6884766-3.7158203,2.3642578-5.6298828  C161.1552734,119.9736328,165.0966797,118.8476563,169.8251953,119.6357422L169.8251953,119.6357422z"/>
<path fill-rule="evenodd" clip-rule="evenodd" fill="#BDCC0D" d="M147.1933594,123.4638672  c-0.6757813-1.3505859-0.6757813-2.7021484,0-3.1523438c0.7880859-0.3378906,1.9140625,0.4501953,2.5898438,1.8017578  c0.7880859,1.3505859,0.7880859,2.7021484,0.1132813,3.1523438  C149.2207031,125.7158203,147.9814453,124.8154297,147.1933594,123.4638672L147.1933594,123.4638672z"/>
<path fill-rule="evenodd" clip-rule="evenodd" fill="#BDCC0D" d="M144.8291016,121.0996094  c2.4775391,4.8417969,5.0673828,9.4580078,5.2919922,13.1738281c-1.1259766,1.5761719-2.3642578,3.1523438-3.7158203,4.7294922  C142.0146484,135.3994141,142.6894531,129.2070313,144.8291016,121.0996094L144.8291016,121.0996094z"/>
<path fill-rule="evenodd" clip-rule="evenodd" fill="#BDCC0D" d="M166.3349609,132.359375  c-4.8417969,6.1923828-11.9355469,9.2324219-17.1142578,7.2060547c1.6884766-2.1396484,3.3779297-4.5039063,4.7285156-6.9804688  C157.6650391,131.1210938,162.6191406,131.1210938,166.3349609,132.359375L166.3349609,132.359375z"/>
<path fill-rule="evenodd" clip-rule="evenodd" fill="#BDCC0D" d="M137.6230469,134.8359375  c-0.3378906-1.3505859,0.2255859-2.5888672,1.1259766-2.9267578c0.7880859-0.1123047,1.8017578,0.9003906,2.1396484,2.3642578  c0.3369141,1.3515625-0.2255859,2.5898438-1.0136719,2.8154297  C138.8613281,137.3134766,137.8486328,136.2998047,137.6230469,134.8359375L137.6230469,134.8359375z"/>
<path fill-rule="evenodd" clip-rule="evenodd" fill="#BDCC0D" d="M153.3867188,145.0830078  c-1.5771484,0-2.8154297-0.5634766-2.8154297-1.4638672c-0.1123047-0.7880859,1.2382813-1.4638672,2.8154297-1.4638672  c1.5761719-0.1123047,2.8144531,0.5625,2.8144531,1.4638672  C156.2011719,144.4072266,154.9628906,145.0830078,153.3867188,145.0830078L153.3867188,145.0830078z"/>
<path fill-rule="evenodd" clip-rule="evenodd" fill="#BDCC0D" d="M137.3974609,147.6728516  c-1.5761719,1.2382813-3.1523438,2.3642578-4.7285156,3.3769531c-3.0400391-3.7148438-0.6757813-8.5566406,3.6025391-16.1005859  C137.3974609,140.2412109,138.1865234,144.7451172,137.3974609,147.6728516L137.3974609,147.6728516z"/>
<path fill-rule="evenodd" clip-rule="evenodd" fill="#BDCC0D" d="M150.9091797,151.6132813  c-6.0800781,3.4902344-12.6103516,4.5039063-15.8759766,1.1259766c2.1396484-1.4638672,4.1660156-2.9277344,5.9677734-4.6162109  C144.2666016,148.3476563,147.8691406,149.6992188,150.9091797,151.6132813L150.9091797,151.6132813z"/>
<path fill-rule="evenodd" clip-rule="evenodd" fill="#BDCC0D" d="M137.6230469,159.4951172  c-1.5761719-0.2255859-2.7021484-1.2382813-2.4775391-2.0273438c0.1132813-0.7880859,1.5771484-1.2382813,3.0410156-0.9003906  c1.5761719,0.3378906,2.7021484,1.2382813,2.4765625,2.1396484  C140.5507813,159.4951172,139.0869141,159.8330078,137.6230469,159.4951172L137.6230469,159.4951172z"/>
<path fill-rule="evenodd" clip-rule="evenodd" fill="#BDCC0D" d="M117.6933594,160.5087891  c0.6757813-0.5634766,0.9013672-1.0136719,1.4638672-1.8017578c8.6699219-3.7158203,15.7636719-8.1074219,21.5058594-13.0615234  l-1.3505859-8.3320313c0.2246094,0,0.3369141,0,0.5625,0l2.1396484,6.9814453  c4.0537109-3.8291016,7.3183594-7.7695313,10.0205078-12.2734375l-2.4765625-6.3056641  c0.2246094,0,0.2246094-0.1123047,0.4501953-0.1123047l2.8144531,4.9541016  c5.1796875-9.4580078,7.6572266-20.2666016,7.6572266-32.4277344c0-4.2783203-0.4511719-8.331543-1.1259766-12.2724609  l-9.1210938-3.7158203c0.3378906-0.4501953,0.3378906-0.5629883,0.2255859-0.7880859l8.5576172,3.1523438  c-0.4511719-2.2514648-1.0136719-4.2783203-1.6894531-6.3051758c0.1123047-0.1123047,0.5634766-0.2250977,0.5634766-0.2250977  c0.2246094-0.6757813,0.2246094-1.3510742,0.2246094-2.0268555c0.4501953,0.6757813,0.5634766,1.2387695,0.7880859,1.9140625  l2.1396484-2.2519531c0.1123047,0.3378906,0.2246094,0.4506836,0.4501953,0.5629883l-2.2519531,2.8154297  c1.0136719,3.4902344,1.8017578,6.9804688,2.2519531,10.5839844l0.9003906-0.5629883  c0,0.1123047,0.1132813,0.2250977,0.2255859,0.3374023l-1.0126953,1.4638672  c0.2246094,2.3642578,0.4501953,4.7290039,0.4501953,7.3183594c0,3.7158203-0.3378906,7.3193359-0.7890625,10.921875  l2.4775391-1.4638672c0,0.2255859,0,0.4511719,0.2255859,0.6757813l-2.9277344,2.3642578  c-2.0263672,12.6113281-6.9804688,23.5332031-15.0878906,32.3154297l4.3916016,0.2255859  c0,0.1123047-0.1132813,0.2246094-0.1132813,0.4501953c0,0.2246094,0.1132813,0.3378906,0.1132813,0.5625h-5.6298828  c-4.1660156,4.2792969-9.1201172,8.1074219-14.9755859,11.3730469l5.2919922,1.5761719  c-0.2246094,0.4501953-0.1123047,0.6748047-0.1123047,0.7880859l-6.7558594-1.5771484  c-3.1523438,1.6894531-6.0800781,3.0410156-9.6835938,4.3916016  C118.2568359,160.6210938,117.9189453,160.6210938,117.6933594,160.5087891L117.6933594,160.5087891z"/>
<path fill-rule="evenodd" clip-rule="evenodd" fill="#BDCC0D" d="M137.9609375,162.6474609  c-7.09375,2.9277344-14.5253906,2.3652344-16.8896484-2.5898438c2.4775391-0.9003906,4.8417969-1.9140625,7.2060547-3.2646484  C131.2050781,158.1435547,134.4707031,161.296875,137.9609375,162.6474609L137.9609375,162.6474609z"/>
<path fill-rule="evenodd" clip-rule="evenodd" fill="#BDCC0D" d="M127.6025391,154.0908203  c-1.8017578,1.0126953-3.6035156,1.9130859-5.4052734,2.8144531c-5.1787109-3.9404297,2.8154297-8.2197266,5.4052734-13.7363281  C128.8408203,147.6728516,128.953125,151.5009766,127.6025391,154.0908203L127.6025391,154.0908203z"/>
<path fill-rule="evenodd" clip-rule="evenodd" fill="#BDCC0D" d="M118.8193359,146.4335938  c1.6894531,6.3056641,1.8017578,11.3720703-1.5761719,14.0751953c-0.9003906-0.2255859-3.0400391,0.1123047-3.828125,0.9003906  v-1.5761719c0-1.9140625-0.4501953-3.4912109-1.1259766-4.9541016  C113.8652344,152.4013672,117.3554688,149.6992188,118.8193359,146.4335938L118.8193359,146.4335938z"/>
<path fill-rule="evenodd" clip-rule="evenodd" fill="#BDCC0D" d="M112.8515625,167.2636719  c0.4511719-1.6884766,0.5634766-3.4902344,0.6757813-5.2919922c0.6757813-0.5625,2.0273438-1.0126953,4.1660156-1.0126953  c4.0537109,1.0126953,8.7822266,5.8544922,12.7236328,7.2060547  C124.3369141,170.5292969,116.7929688,171.4306641,112.8515625,167.2636719L112.8515625,167.2636719z"/>
<path fill-rule="evenodd" clip-rule="evenodd" fill="#008837" d="M56.4414063,98.1298828  c0,21.28125,17.3398438,38.6210938,38.7329102,38.6210938c21.2807617,0,38.6206055-17.3398438,38.6206055-38.6210938  c0-21.3930664-17.3398438-38.7329102-38.6206055-38.7329102C73.78125,59.3969727,56.4414063,76.7368164,56.4414063,98.1298828  L56.4414063,98.1298828z M49.3476563,98.1298828c0-25.3334961,20.4926758-45.8261719,45.8266602-45.8261719  c25.2211914,0,45.8266602,20.4926758,45.8266602,45.8261719c0,25.3339844-20.6054688,45.7138672-45.8266602,45.7138672  C69.840332,143.84375,49.3476563,123.4638672,49.3476563,98.1298828L49.3476563,98.1298828z"/>
<path fill-rule="evenodd" clip-rule="evenodd" fill="#008837" d="M87.6303711,110.1777344  c2.0268555,1.3515625,4.3911133,2.2519531,6.980957,2.3642578v11.1474609  c-1.6889648-2.8144531-4.6162109-4.9541016-9.1201172-6.3056641c-1.8017578-0.4501953-3.3779297-1.0126953-4.7290039-1.6884766  L87.6303711,110.1777344L87.6303711,110.1777344z M94.6113281,81.2407227v3.152832  c-7.2060547,0.2250977-13.0610352,6.4179688-13.0610352,14.0742188c0,1.2392578,0.2250977,2.4775391,0.5629883,3.6035156  l-7.65625,6.5302734c-0.7885742-2.9277344-0.5634766-6.4179688,0.7875977-10.4716797  c2.2524414-6.7553711,1.1264648-11.3720703-3.3774414-13.2861328l6.0800781-7.2060547  C83.5771484,79.8896484,89.2070313,81.128418,94.6113281,81.2407227L94.6113281,81.2407227z"/>
<path fill-rule="evenodd" clip-rule="evenodd" fill="#FFFFFF" d="M87.7431641,65.7026367  c2.2519531-0.5629883,4.5039063-0.9008789,6.8681641-0.9008789v15.6508789c-1.1259766,0-2.2519531,0-3.3779297-0.112793  L87.7431641,65.7026367L87.7431641,65.7026367z"/>
<path fill-rule="evenodd" clip-rule="evenodd" fill="#FFFFFF" d="M62.7470703,90.2485352  c0.5625-2.1391602,1.2382813-4.1660156,2.1391602-6.0805664l10.3583984,4.9545898  c0.4506836,1.2387695,0.5634766,2.7021484,0.3378906,4.1660156L62.7470703,90.2485352L62.7470703,90.2485352z"/>
<path fill-rule="evenodd" clip-rule="evenodd" fill="#FFFFFF" d="M94.6113281,131.3457031  c-2.2519531,0-4.3911133-0.2246094-6.5302734-0.7880859l2.4765625-10.1337891  c1.6894531,1.1259766,2.9277344,2.703125,4.0537109,4.7294922V131.3457031L94.6113281,131.3457031z"/>
<path fill-rule="evenodd" clip-rule="evenodd" fill="#FFFFFF" d="M102.3808594,130.5576172  c-2.1396484,0.5634766-4.3916016,0.7880859-6.7558594,0.7880859v-6.0800781  c1.0131836-2.1386719,2.3642578-3.828125,4.2783203-4.9541016L102.3808594,130.5576172L102.3808594,130.5576172z"/>
<polygon fill-rule="evenodd" clip-rule="evenodd" fill="#FFE800" points="95.1743164,90.9238281 95.1743164,90.1362305   96.1875,90.0234375 95.1743164,90.9238281 "/>
<path fill-rule="evenodd" clip-rule="evenodd" fill="#FFE800" d="M108.0097656,98.3554688  c0,4.7285156-2.3642578,8.7822266-5.9667969,11.1464844c2.8144531-3.1523438,4.3916016-8.8945313,3.7158203-13.7363281  l1.6884766-1.3510742C107.7851563,95.765625,108.0097656,97.0039063,108.0097656,98.3554688L108.0097656,98.3554688z"/>
<path fill-rule="evenodd" clip-rule="evenodd" fill="#FFE800" d="M92.2470703,106.5751953l2.7021484-2.2519531v3.3779297  c-0.7880859,0-1.4638672,0.1123047-2.3647461,0.2246094C92.472168,107.4755859,92.359375,107.0253906,92.2470703,106.5751953  L92.2470703,106.5751953z"/>
<path fill-rule="evenodd" clip-rule="evenodd" fill="#FFE800" d="M88.9814453,109.1650391l1.0136719-0.7890625l0.112793,0.2255859  C89.7700195,108.8271484,89.3193359,108.9394531,88.9814453,109.1650391L88.9814453,109.1650391z"/>
<path fill-rule="evenodd" clip-rule="evenodd" fill="#FFE800" d="M87.5180664,97.4550781l-2.3647461,2.0263672  c-0.1123047-3.265625,0.3378906-6.8686523,1.4638672-10.921875c0.3378906-0.2250977,0.7880859-0.5629883,1.1259766-0.7880859  c0.4501953,0.3378906,0.9008789,0.5629883,1.3510742,0.9008789C88.1933594,91.1494141,87.6303711,94.0766602,87.5180664,97.4550781  L87.5180664,97.4550781z"/>
<path fill-rule="evenodd" clip-rule="evenodd" fill="#FFE800" d="M100.4667969,86.4204102l-3.6035156,3.0395508  c-2.9272461,0.2255859-5.7421875-0.449707-8.5571289-2.1391602c2.0268555-1.2382813,4.2783203-2.0268555,6.8681641-2.0268555  C97.0883789,85.2939453,98.8896484,85.7446289,100.4667969,86.4204102L100.4667969,86.4204102z"/>
<path fill-rule="evenodd" clip-rule="evenodd" fill="#FFE800" d="M95.1743164,111.5292969  c-2.2519531,0-4.3911133-0.5634766-6.1928711-1.5761719c4.5039063-2.1396484,7.8818359-2.1396484,12.1601563,0.1123047  C99.3408203,110.9658203,97.3134766,111.5292969,95.1743164,111.5292969L95.1743164,111.5292969z"/>
<path fill-rule="evenodd" clip-rule="evenodd" fill="#FFFFFF" d="M81.1000977,67.9545898  c1.8012695-0.9008789,3.6030273-1.5761719,5.5170898-2.0268555l3.4907227,14.2998047  c-1.1264648-0.1123047-2.2524414-0.3378906-3.378418-0.6757813L81.1000977,67.9545898L81.1000977,67.9545898z"/>
<path fill-rule="evenodd" clip-rule="evenodd" fill="#FFFFFF" d="M74.4570313,72.0078125  c1.6884766-1.4633789,3.6030273-2.7021484,5.6298828-3.6030273l5.2919922,10.921875  c-2.2524414-0.5629883-4.5043945-1.3510742-6.7558594-2.2519531L74.4570313,72.0078125L74.4570313,72.0078125z"/>
<path fill-rule="evenodd" clip-rule="evenodd" fill="#FFFFFF" d="M69.2773438,77.074707  c1.3510742-1.5761719,2.8149414-3.0400391,4.2783203-4.3911133l3.7158203,4.6162109l-3.1523438,3.7158203L69.2773438,77.074707  L69.2773438,77.074707z"/>
<path fill-rule="evenodd" clip-rule="evenodd" fill="#FFFFFF" d="M65.3364258,83.1547852  c0.9008789-1.8012695,2.0268555-3.6030273,3.3779297-5.2919922l4.8413086,3.940918l-2.9272461,3.3779297  c1.5766602,0.5629883,2.7026367,1.3510742,3.4907227,2.3647461L65.3364258,83.1547852L65.3364258,83.1547852z"/>
<path fill-rule="evenodd" clip-rule="evenodd" fill="#FFFFFF" d="M75.4702148,94.4145508  c-0.2255859,1.0131836-0.4506836,2.1391602-0.7885742,3.2651367l-12.8354492,0.1123047  c0.1123047-2.2514648,0.3378906-4.390625,0.675293-6.5302734L75.4702148,94.4145508L75.4702148,94.4145508z"/>
<path fill-rule="evenodd" clip-rule="evenodd" fill="#FFFFFF" d="M74.3442383,98.6933594  c-0.4506836,1.3505859-0.6757813,2.4765625-0.7885742,3.7158203l-11.0341797,2.3642578  c-0.3374023-1.9140625-0.5629883-4.0537109-0.675293-6.0800781H74.3442383L74.3442383,98.6933594z"/>
<path fill-rule="evenodd" clip-rule="evenodd" fill="#FFFFFF" d="M73.3310547,103.6474609  c-0.112793,1.4638672,0,2.7021484,0.2246094,3.9404297l-8.7822266,4.1669922  c-0.9008789-1.9150391-1.4638672-3.8291016-2.0263672-5.8554688L73.3310547,103.6474609L73.3310547,103.6474609z"/>
<path fill-rule="evenodd" clip-rule="evenodd" fill="#FFFFFF" d="M73.8935547,108.7138672  c0.3378906,1.4638672,1.1259766,2.703125,1.9145508,3.9414063l-7.09375,5.6298828  c-1.3510742-1.6894531-2.5898438-3.6035156-3.4907227-5.5175781L73.8935547,108.7138672L73.8935547,108.7138672z"/>
<path fill-rule="evenodd" clip-rule="evenodd" fill="#FFFFFF" d="M76.4833984,113.4433594  c1.0136719,1.0136719,2.2519531,1.9140625,3.7158203,2.7021484l-6.1928711,7.65625  c-1.6889648-1.4628906-3.2651367-3.0400391-4.7290039-4.7285156L76.4833984,113.4433594L76.4833984,113.4433594z"/>
<path fill-rule="evenodd" clip-rule="evenodd" fill="#FFFFFF" d="M81.1000977,116.5957031  c1.1259766,0.5634766,2.3642578,1.0136719,3.828125,1.3515625l-4.8413086,9.7958984  c-1.9145508-0.9013672-3.7158203-2.0273438-5.4052734-3.3779297L81.1000977,116.5957031L81.1000977,116.5957031z"/>
<path fill-rule="evenodd" clip-rule="evenodd" fill="#FFFFFF" d="M85.8291016,118.2851563  c1.3510742,0.4501953,2.7021484,0.9003906,3.828125,1.5761719l-2.4770508,10.5839844  c-2.1391602-0.5634766-4.2788086-1.3515625-6.1928711-2.2519531L85.8291016,118.2851563L85.8291016,118.2851563z"/>
<path fill-rule="evenodd" clip-rule="evenodd" fill="#FFFFFF" d="M108.9111328,128.3056641  c-1.8017578,0.9013672-3.7158203,1.5761719-5.6298828,2.0273438l-2.4765625-10.5839844  c0.9003906-0.5634766,2.0263672-1.0136719,3.3769531-1.3515625L108.9111328,128.3056641L108.9111328,128.3056641z"/>
<path fill-rule="evenodd" clip-rule="evenodd" fill="#FFFFFF" d="M115.5546875,124.3652344  c-1.8017578,1.3505859-3.7158203,2.5898438-5.7431641,3.6025391l-4.7285156-9.9082031  c1.4638672-0.3378906,2.9267578-0.9003906,4.1660156-1.4638672L115.5546875,124.3652344L115.5546875,124.3652344z"/>
<path fill-rule="evenodd" clip-rule="evenodd" fill="#FFFFFF" d="M120.7333984,119.4111328  c-1.3505859,1.5761719-2.8144531,3.0400391-4.5039063,4.2783203l-6.0800781-7.65625  c1.2392578-0.5634766,2.3642578-1.4638672,3.265625-2.3652344L120.7333984,119.4111328L120.7333984,119.4111328z"/>
<path fill-rule="evenodd" clip-rule="evenodd" fill="#FFFFFF" d="M124.7871094,113.2177734  c-1.0136719,1.9140625-2.1396484,3.7158203-3.4902344,5.4052734l-7.09375-5.7431641  c0.9003906-1.125,1.5761719-2.3642578,2.0263672-3.7148438L124.7871094,113.2177734L124.7871094,113.2177734z"/>
<path fill-rule="evenodd" clip-rule="evenodd" fill="#FFFFFF" d="M127.3769531,106.4628906  c-0.5634766,2.0263672-1.2382813,4.0527344-2.1396484,5.8544922l-8.6699219-4.1660156  c0.2255859-1.2392578,0.4511719-2.7021484,0.3378906-4.0537109L127.3769531,106.4628906L127.3769531,106.4628906z"/>
<path fill-rule="evenodd" clip-rule="evenodd" fill="#FFFFFF" d="M116.7929688,102.9716797  c-0.1123047-1.3515625-0.4501953-2.7021484-0.9013672-4.2783203h12.4990234c0,2.3642578-0.3378906,4.6162109-0.7880859,6.7558594  L116.7929688,102.9716797L116.7929688,102.9716797z"/>
<path fill-rule="evenodd" clip-rule="evenodd" fill="#FFFFFF" d="M115.6669922,97.6796875  c-0.3378906-1.0131836-0.6757813-1.9140625-0.9013672-2.9272461L127.8271484,91.9375  c0.3378906,1.9140625,0.5634766,3.828125,0.5634766,5.7421875H115.6669922L115.6669922,97.6796875z"/>
<path fill-rule="evenodd" clip-rule="evenodd" fill="#FFFFFF" d="M114.6533203,93.5136719  c-0.2246094-1.3510742-0.1123047-2.8144531,0.1123047-3.9404297l10.8095703-5.0673828  c0.9003906,1.9145508,1.4638672,4.0537109,2.0273438,6.1933594L114.6533203,93.5136719L114.6533203,93.5136719z"/>
<path fill-rule="evenodd" clip-rule="evenodd" fill="#FFFFFF" d="M116.7929688,81.9165039l4.8417969-3.940918  c1.3505859,1.8012695,2.5888672,3.7158203,3.4902344,5.7426758l-9.7958984,4.503418  c0.9003906-1.3510742,2.1396484-2.3642578,4.1660156-3.1523438L116.7929688,81.9165039L116.7929688,81.9165039z"/>
<path fill-rule="evenodd" clip-rule="evenodd" fill="#FFFFFF" d="M112.9648438,77.2998047l3.7158203-4.6162109  c1.5761719,1.3510742,2.9267578,2.8149414,4.2783203,4.3911133l-4.9541016,3.940918L112.9648438,77.2998047L112.9648438,77.2998047z  "/>
<path fill-rule="evenodd" clip-rule="evenodd" fill="#FFFFFF" d="M105.0830078,79.3266602L110.375,68.5175781  c1.9140625,0.9003906,3.7158203,2.1391602,5.4042969,3.4902344L111.7265625,77.1875  C109.3613281,77.9755859,107.2226563,78.7636719,105.0830078,79.3266602L105.0830078,79.3266602z"/>
<path fill-rule="evenodd" clip-rule="evenodd" fill="#FFFFFF" d="M103.7314453,79.5517578  c-1.3505859,0.3378906-2.5898438,0.5634766-3.9404297,0.6757813l3.3779297-14.5249023  c2.1386719,0.5629883,4.2783203,1.3510742,6.1923828,2.2519531L103.7314453,79.5517578L103.7314453,79.5517578z"/>
<path fill-rule="evenodd" clip-rule="evenodd" fill="#FFFFFF" d="M95.3999023,64.8017578  c2.2514648,0,4.503418,0.3378906,6.6430664,0.6757813l-3.3779297,14.9750977c-1.1259766,0-2.1396484,0-3.152832,0  L95.3999023,64.8017578L95.3999023,64.8017578z"/>
<path fill-rule="evenodd" clip-rule="evenodd" fill="#FFFFFF" d="M101.1416016,85.7446289  c-1.6884766-0.9008789-3.715332-1.3510742-5.6293945-1.3510742v-3.152832c4.503418,0,9.1206055-0.9008789,13.8491211-2.4770508  L101.1416016,85.7446289L101.1416016,85.7446289z M95.625,123.6894531l-0.112793-11.1474609  c7.3188477-0.2246094,13.2866211-6.4169922,13.2866211-14.0742188c0-1.5761719-0.2255859-3.1523438-0.6757813-4.6162109  l6.1923828-4.8413086c-0.7880859,2.2514648-0.5625,5.4042969,0.7880859,9.1196289  c3.265625,10.2460938-0.3378906,16.5517578-10.3583984,19.2539063C100.3535156,118.7353516,97.2011719,120.875,95.625,123.6894531  L95.625,123.6894531z"/>
<path fill-rule="evenodd" clip-rule="evenodd" fill="#FFE800" d="M108.7988281,35.7519531l9.6826172-12.7231445  l12.6113281,5.9677734l-5.5175781,12.9482422l-0.5625-0.4501953l4.6162109-11.3725586  c-2.8154297-1.0131836-6.0800781,2.0268555-9.6835938,9.0078125  C116.3427734,37.6660156,112.6269531,36.5400391,108.7988281,35.7519531L108.7988281,35.7519531z"/>
<path fill-rule="evenodd" clip-rule="evenodd" fill="#FFE800" d="M68.8266602,39.8056641  c-3.828125-6.4179688-6.9804688-9.1206055-9.5703125-7.9946289l4.8413086,10.4716797l-0.7880859,0.4501953  c-4.2783203-8.7822266-5.6298828-11.8227539-6.1923828-12.7231445l11.9350586-5.9677734l10.2460938,12.1601563  C75.6953125,37.1030273,72.0922852,38.3417969,68.8266602,39.8056641L68.8266602,39.8056641z"/>
<polygon fill-rule="evenodd" clip-rule="evenodd" fill="#FFE800" points="55.878418,29.8974609 70.7412109,22.4658203   67.2504883,15.597168 63.8725586,17.1738281 65.2236328,20.1010742 62.859375,21.2270508 61.3955078,18.1870117   57.9052734,19.8759766 59.3686523,23.1416016 57.2294922,24.0419922 55.7661133,21.1147461 52.1630859,22.690918   55.878418,29.8974609 "/>
<path fill-rule="evenodd" clip-rule="evenodd" fill="#FFE800" d="M94.2734375,20.8891602  c-3.0400391,0.2255859-4.7285156,4.8417969-4.7285156,13.6245117c-1.6894531,0.1123047-3.152832,0.3378906-4.8417969,0.5625  l2.5893555-15.2001953h13.8491211l2.5898438,14.9755859c-1.5761719-0.2255859-3.1523438-0.3378906-4.8417969-0.4506836  C99.1152344,25.6181641,97.6513672,20.5517578,94.2734375,20.8891602L94.2734375,20.8891602z"/>
<polygon fill-rule="evenodd" clip-rule="evenodd" fill="#FFE800" points="120.9589844,14.921875 117.5810547,22.015625   132.4433594,28.996582 136.2714844,21.6777344 132.5566406,19.8759766 130.9794922,23.0288086 129.0654297,22.015625   130.4169922,19.3129883 126.5888672,17.6240234 125.2373047,20.6640625 122.9853516,19.5380859 124.3369141,16.6108398   120.9589844,14.921875 "/>
<polygon fill-rule="evenodd" clip-rule="evenodd" fill="#FFE800" points="84.3652344,19.3129883 103.9570313,19.3129883   103.9570313,11.2060547 99.453125,11.09375 99.453125,14.2460938 96.5253906,14.4711914 96.6381836,11.09375 91.7963867,11.09375   91.9091797,14.5839844 88.644043,14.5839844 88.644043,11.2060547 84.0273438,11.3188477 84.3652344,19.3129883 "/>
<path fill-rule="evenodd" clip-rule="evenodd" fill="#FFE800" d="M102.8310547,98.1298828l2.3642578-1.9140625  c0.5634766,4.5039063-1.3505859,9.7958984-3.7158203,13.1738281c-0.3378906-0.2246094-0.7880859-0.4501953-1.1259766-0.5625  C102.2675781,106.0117188,103.1689453,101.5078125,102.8310547,98.1298828L102.8310547,98.1298828z"/>
<path fill-rule="evenodd" clip-rule="evenodd" fill="#FFE800" d="M99.1152344,101.0576172l3.1523438-2.4765625  c0.2255859,3.1523438-0.4501953,6.6425781-2.2519531,10.0205078c-0.6748047-0.2255859-1.2382813-0.3378906-1.9140625-0.5625  C98.7773438,105.4492188,99.1152344,103.1972656,99.1152344,101.0576172L99.1152344,101.0576172z"/>
<path fill-rule="evenodd" clip-rule="evenodd" fill="#FFE800" d="M95.2871094,104.0976563l3.3779297-2.7021484  c-0.1123047,2.7021484-0.5634766,4.9541016-1.0136719,6.5302734c-0.7880859-0.1123047-1.5761719-0.2246094-2.3642578-0.2246094  V104.0976563L95.2871094,104.0976563z"/>
<path fill-rule="evenodd" clip-rule="evenodd" fill="#FFE800" d="M92.359375,89.7983398  c0.7880859,0.1123047,1.5766602,0.2250977,2.3647461,0.3378906l0.112793,1.1254883l-3.152832,2.7026367  C91.7963867,92.5004883,92.0214844,91.1494141,92.359375,89.7983398L92.359375,89.7983398z"/>
<path fill-rule="evenodd" clip-rule="evenodd" fill="#FFE800" d="M90.2202148,108.1513672l1.6889648-1.3515625  c0.1123047,0.3378906,0.1123047,0.7880859,0.4501953,1.2392578c-0.675293,0.1123047-1.3510742,0.3369141-2.0263672,0.5625  L90.2202148,108.1513672L90.2202148,108.1513672z"/>
<path fill-rule="evenodd" clip-rule="evenodd" fill="#FFE800" d="M89.5449219,88.784668  c0.675293,0.3378906,1.3505859,0.5629883,2.0263672,0.7885742c-0.2250977,1.6884766-0.3378906,3.3774414-0.5629883,4.8413086  l-2.9272461,2.5893555C88.1933594,93.8515625,88.644043,91.2617188,89.5449219,88.784668L89.5449219,88.784668z"/>
<path fill-rule="evenodd" clip-rule="evenodd" fill="#FFE800" d="M82.3383789,98.3554688  c0-3.7158203,1.4638672-6.980957,3.940918-9.3452148c-1.3510742,3.3774414-1.8012695,7.0932617-1.5761719,10.9213867  l-2.0268555,1.5761719C82.4511719,100.6074219,82.3383789,99.4814453,82.3383789,98.3554688L82.3383789,98.3554688z"/>
<path fill-rule="evenodd" clip-rule="evenodd" fill="#FFFFFF" d="M118.2568359,84.730957l-5.9677734-7.0932617l-0.6757813,0.2250977  l-36.9316406,31.3022461c0.9008789,2.5898438,2.8154297,4.6162109,5.4052734,6.0800781l34.7919922-27.6987305  C115.6669922,86.4204102,116.7929688,85.4067383,118.2568359,84.730957L118.2568359,84.730957z"/>
<path fill-rule="evenodd" clip-rule="evenodd" fill="#005F27" d="M32.0083008,87.3208008l1.6889648,0.2255859  c-0.9008789,0.675293-1.4638672,1.4638672-1.4638672,2.2519531c-0.112793,0.4501953,0,0.9008789,0.1123047,1.1254883  c0.2255859,0.3378906,0.5629883,0.4506836,0.9008789,0.5629883c0.4506836,0,0.7880859-0.2250977,1.1259766-0.5629883  c0.2255859-0.1123047,0.4506836-0.4501953,0.7885742-0.9003906c0.5629883-0.7880859,1.0131836-1.3510742,1.3505859-1.5766602  c0.5629883-0.4501953,1.1259766-0.675293,1.8017578-0.5629883c0.7880859,0,1.3510742,0.2255859,1.6889648,0.7885742  c0.4506836,0.5629883,0.5629883,1.2382813,0.5629883,2.0268555c0,0.7875977-0.2250977,1.4633789-0.7880859,2.1391602  l-1.4638672-0.112793c0.6757813-0.6757813,1.0131836-1.4638672,1.1259766-2.1391602  c0-0.3378906-0.112793-0.6757813-0.3378906-1.0131836c-0.1123047-0.3378906-0.3378906-0.4506836-0.7880859-0.4506836  c-0.4501953-0.1123047-1.0131836,0.4506836-1.8017578,1.5766602c0,0-0.1123047,0-0.1123047,0.1123047  c-0.5629883,0.7880859-1.0131836,1.2382813-1.3510742,1.5761719c-0.4501953,0.3378906-1.1259766,0.4506836-1.9140625,0.3378906  c-0.7885742,0-1.3515625-0.3378906-1.6889648-0.9008789c-0.4506836-0.5629883-0.5634766-1.1254883-0.5634766-2.0263672  S31.3325195,88.109375,32.0083008,87.3208008L32.0083008,87.3208008z"/>
<polygon fill-rule="evenodd" clip-rule="evenodd" fill="#005F27" points="30.6572266,94.4145508 40.0024414,94.3022461   40.1152344,99.9316406 38.9892578,99.9316406 38.8764648,95.5405273 36.0615234,95.6533203 36.0615234,99.8193359   34.8232422,99.8193359 34.8232422,95.6533203 31.8955078,95.765625 32.0083008,100.1572266 30.7695313,100.1572266   30.6572266,94.4145508 "/>
<polygon fill-rule="evenodd" clip-rule="evenodd" fill="#005F27" points="30.9946289,104.8857422 39.1015625,104.3232422   38.8764648,100.8320313 40.1152344,100.7197266 40.7905273,108.9394531 39.4394531,109.0517578 39.2143555,105.5615234   31.1074219,106.125 30.9946289,104.8857422 "/>
<path fill-rule="evenodd" clip-rule="evenodd" fill="#005F27" d="M40.9033203,109.3896484l0.2250977,1.2382813l-5.2919922,1.0136719  c-1.0131836,0.1132813-1.5761719,0.3378906-1.8017578,0.6757813c-0.5629883,0.6757813-0.7880859,1.4638672-0.5629883,2.4765625  c0.112793,0.6757813,0.3378906,1.3515625,0.7885742,1.8017578c0.5629883,0.4511719,1.1259766,0.5634766,1.9140625,0.4511719  l5.8549805-1.0136719l0.2250977,1.3505859l-5.9672852,1.0136719c-1.0136719,0.2255859-2.0268555-0.1123047-2.7026367-0.7880859  c-0.6757813-0.5625-1.2387695-1.4638672-1.3510742-2.5898438c-0.3378906-1.4638672,0-2.7021484,0.7880859-3.6025391  c0.3378906-0.3378906,0.6757813-0.5634766,1.1259766-0.7890625c0.3378906-0.1123047,0.7880859-0.2246094,1.3510742-0.3369141  L40.9033203,109.3896484L40.9033203,109.3896484z M42.2543945,112.3173828l2.5898438,0.9003906l0.2250977,1.2392578  l-2.5898438-1.4638672L42.2543945,112.3173828L42.2543945,112.3173828z"/>
<path fill-rule="evenodd" clip-rule="evenodd" fill="#005F27" d="M38.4262695,121.3251953l-2.7021484,0.9003906l0.5629883,1.8017578  c0.4501953,1.1259766,1.1254883,1.5761719,2.0263672,1.2382813s1.1259766-1.1259766,0.5629883-2.4765625L38.4262695,121.3251953  L38.4262695,121.3251953z M34.034668,121.4375l8.7827148-3.1523438L43.8305664,120.875  c0.3378906,0.7880859,0.4506836,1.4638672,0.112793,2.1386719c-0.112793,0.6757813-0.5629883,1.1259766-1.3510742,1.4638672  c-0.9008789,0.3378906-1.6889648,0.1123047-2.3647461-0.6757813c0.112793,0.6757813,0,1.2392578-0.2250977,1.6894531  c-0.3378906,0.5625-0.6757813,1.0136719-1.3510742,1.1259766c-0.7880859,0.3378906-1.4638672,0.2246094-2.1396484-0.2255859  c-0.5629883-0.4501953-1.0131836-1.0136719-1.3505859-1.8017578L34.034668,121.4375L34.034668,121.4375z M39.5522461,120.875  l0.3378906,0.7880859c0.4501953,1.3505859,1.1259766,1.8007813,2.1391602,1.4638672  c0.7880859-0.3378906,1.0131836-0.9013672,0.5629883-2.0273438l-0.3378906-1.1259766L39.5522461,120.875L39.5522461,120.875z"/>
<path fill-rule="evenodd" clip-rule="evenodd" fill="#005F27" d="M41.3535156,129.09375l1.2387695,2.5898438l2.3642578-2.9277344  L41.3535156,129.09375L41.3535156,129.09375z M36.2871094,128.0810547l10.2460938-0.5634766l0.4501953,0.7880859  l-6.4179688,7.9941406l-0.675293-1.2382813l1.9135742-2.2519531l-1.8012695-3.7158203l-3.0400391,0.3378906L36.2871094,128.0810547  L36.2871094,128.0810547z"/>
<polygon fill-rule="evenodd" clip-rule="evenodd" fill="#005F27" points="41.4663086,137.3134766 49.2353516,132.1337891   50.0234375,133.1474609 43.1552734,137.7636719 45.6323242,141.4794922 44.7314453,142.1552734 41.4663086,137.3134766 "/>
<polygon fill-rule="evenodd" clip-rule="evenodd" fill="#005F27" points="47.6586914,141.0292969 48.4472656,140.2412109   50.8115234,142.9433594 49.9111328,143.6191406 47.6586914,141.0292969 "/>
<path fill-rule="evenodd" clip-rule="evenodd" fill="#005F27" d="M49.1225586,146.4335938  c0.4506836,0,1.1259766-0.2246094,2.1396484-0.4501953c0.9008789-0.1123047,1.6884766-0.3378906,2.1391602-0.3378906  c1.4638672-0.4501953,2.4770508-0.9003906,2.9277344-1.4638672c0.4501953-0.4501953,0.5629883-0.9003906,0.5629883-1.2382813  c-0.112793-0.4501953-0.2255859-0.7880859-0.6757813-1.1259766c-0.4501953-0.4501953-1.2387695-0.6757813-2.2519531-0.4501953  l1.0131836-1.2392578c0.9008789,0.1132813,1.6889648,0.3378906,2.2519531,0.7890625  c0.6757813,0.5625,1.0131836,1.2382813,1.0131836,1.9140625c0,0.7880859-0.2250977,1.4638672-0.7875977,2.1396484  c-0.5629883,0.6748047-1.4638672,1.125-2.5898438,1.4628906c-0.6757813,0.2255859-1.8017578,0.4501953-3.0400391,0.5634766  l2.7021484,2.3642578L53.6264648,150.375L49.1225586,146.4335938L49.1225586,146.4335938z"/>
<path fill-rule="evenodd" clip-rule="evenodd" fill="#005F27" d="M58.4682617,148.1230469  c-0.5629883,0.7880859-0.7885742,1.4638672-1.0131836,2.0263672c-0.3378906,0.9003906-0.112793,1.5761719,0.4501953,1.9140625  s1.1259766,0.3378906,2.0263672-0.3378906c0.4506836-0.4501953,0.9008789-0.9003906,1.3515625-1.5761719  c0.5629883-0.9003906,0.9008789-1.4638672,1.0131836-2.0263672c0.3378906-1.0136719,0.112793-1.6894531-0.3378906-1.9140625  c-0.675293-0.4511719-1.2382813-0.3378906-2.0268555,0.2246094  C59.3686523,146.8837891,58.918457,147.4472656,58.4682617,148.1230469L58.4682617,148.1230469z M57.3422852,147.3349609  c0.675293-1.0136719,1.4633789-1.6894531,2.2519531-2.2519531c1.1259766-0.5634766,2.0268555-0.5634766,3.0400391,0  c0.9008789,0.5625,1.2382813,1.5761719,1.0131836,2.8144531c-0.1123047,0.9013672-0.5629883,1.9140625-1.2382813,2.9277344  c-0.6757813,1.0136719-1.3510742,1.8017578-2.2519531,2.2519531c-1.1259766,0.6757813-2.0268555,0.6757813-3.0400391,0  c-0.9008789-0.5634766-1.2387695-1.4638672-1.0136719-2.7021484  C56.2163086,149.3613281,56.6665039,148.4609375,57.3422852,147.3349609L57.3422852,147.3349609z"/>
<polygon fill-rule="evenodd" clip-rule="evenodd" fill="#005F27" points="62.4091797,152.9648438 62.9716797,152.0634766   66.1245117,153.6396484 65.5615234,154.6533203 62.4091797,152.9648438 "/>
<polygon fill-rule="evenodd" clip-rule="evenodd" fill="#005F27" points="67.9262695,158.3691406 71.3041992,149.5869141   72.5424805,150.1494141 69.1650391,158.9316406 67.9262695,158.3691406 "/>
<polygon fill-rule="evenodd" clip-rule="evenodd" fill="#005F27" points="75.0195313,160.7333984 77.3842773,151.6132813   78.7353516,151.9511719 76.1455078,161.0712891 75.0195313,160.7333984 "/>
<polygon fill-rule="evenodd" clip-rule="evenodd" fill="#005F27" points="80.3115234,159.2695313 80.5366211,158.2568359   84.0273438,158.8193359 83.8022461,159.9453125 80.3115234,159.2695313 "/>
<path fill-rule="evenodd" clip-rule="evenodd" fill="#005F27" d="M89.5449219,157.3554688L89.5449219,157.3554688  c0.1123047-0.1123047,0.1123047-0.3378906,0.1123047-0.5625c0.112793-0.5634766,0-1.0136719-0.2250977-1.3515625  c-0.2250977-0.4501953-0.6757813-0.6757813-1.2387695-0.7880859c-0.4501953,0-0.7880859,0.1123047-1.1259766,0.3378906  c-0.3378906,0.3378906-0.4501953,0.6757813-0.4501953,1.1259766c-0.112793,0.4501953,0,0.9003906,0.3378906,1.1259766  c0.2250977,0.3378906,0.5629883,0.5625,1.0131836,0.5625C88.53125,157.9189453,89.0942383,157.8056641,89.5449219,157.3554688  L89.5449219,157.3554688z M89.2070313,158.8193359c-0.5629883,0.2255859-1.1259766,0.3378906-1.5766602,0.2255859  c-0.7880859,0-1.4638672-0.3378906-1.8012695-0.9013672c-0.5634766-0.5625-0.6757813-1.2382813-0.5634766-2.0263672  c0-0.7880859,0.3378906-1.5761719,0.9008789-2.0263672c0.6757813-0.5634766,1.3515625-0.6757813,2.2519531-0.5634766  c0.9008789,0,1.6894531,0.4501953,2.0268555,1.1259766c0.4501953,0.6757813,0.6757813,1.4638672,0.5629883,2.3642578  c-0.2250977,2.4775391-1.6889648,4.5039063-4.3911133,6.0800781l-0.5629883-1.0126953  C87.6303711,161.1835938,88.7563477,160.0576172,89.2070313,158.8193359L89.2070313,158.8193359z"/>
<polygon fill-rule="evenodd" clip-rule="evenodd" fill="#005F27" points="94.3862305,163.3232422 94.3862305,153.9775391   95.7373047,153.9775391 95.7373047,163.3232422 94.3862305,163.3232422 "/>
<path fill-rule="evenodd" clip-rule="evenodd" fill="#005F27" d="M100.1289063,158.59375  c0.1123047,0.9013672,0.2246094,1.5771484,0.4501953,2.1396484c0.3378906,0.9013672,0.9003906,1.3515625,1.5761719,1.2382813  c0.6757813-0.1123047,1.1259766-0.5625,1.3515625-1.4628906c0.1123047-0.6757813,0.2246094-1.3515625,0.1123047-2.2519531  c-0.1123047-0.9013672-0.2255859-1.5771484-0.4501953-2.1396484c-0.4511719-0.9003906-0.9013672-1.3515625-1.6894531-1.2382813  c-0.5625,0-1.1259766,0.5625-1.2382813,1.4628906C100.015625,157.0175781,100.015625,157.6933594,100.1289063,158.59375  L100.1289063,158.59375z M98.7773438,158.7070313c-0.1123047-1.2392578,0-2.3652344,0.3378906-3.1523438  c0.4501953-1.2392578,1.2382813-1.9150391,2.3642578-2.0273438c1.1259766,0,1.9140625,0.4501953,2.4775391,1.4638672  c0.5625,0.9003906,0.9003906,1.9140625,0.9003906,3.1523438c0.2255859,1.2392578,0,2.2519531-0.3378906,3.1533203  c-0.3378906,1.2382813-1.1259766,1.9140625-2.2519531,1.9140625c-1.1259766,0.1123047-1.9140625-0.3378906-2.5888672-1.3515625  C99.1152344,160.9589844,98.8896484,159.9453125,98.7773438,158.7070313L98.7773438,158.7070313z"/>
<polygon fill-rule="evenodd" clip-rule="evenodd" fill="#005F27" points="89.4321289,106.0117188 84.3652344,103.421875   85.3789063,102.6337891 88.3061523,104.0976563 87.5180664,100.9453125 88.53125,100.0439453 89.8823242,105.6738281   89.4321289,106.0117188 "/>
<path fill-rule="evenodd" clip-rule="evenodd" fill="#005F27" d="M91.5712891,103.5351563  c-0.112793-0.2255859-0.112793-0.3378906-0.112793-0.5634766c0-0.2246094,0.112793-0.3378906,0.2255859-0.4501953  c0.1123047-0.1123047,0.3374023-0.1123047,0.5629883-0.1123047c0.1123047,0,0.3374023,0,0.3374023,0.2246094  c0.2255859,0.1132813,0.2255859,0.3378906,0.2255859,0.4501953c0,0.1132813-0.112793,0.3378906-0.2255859,0.4511719  c-0.2250977,0.1123047-0.3374023,0.2246094-0.5629883,0.2246094  C91.9091797,103.6474609,91.7963867,103.5351563,91.5712891,103.5351563L91.5712891,103.5351563z"/>
<polygon fill-rule="evenodd" clip-rule="evenodd" fill="#005F27" points="93.7104492,102.5214844 90.4453125,98.4677734   93.0351563,96.3286133 93.5981445,97.1171875 92.0214844,98.3554688 92.6972656,99.2558594 94.2734375,98.1298828   94.9492188,98.8056641 93.3730469,100.0439453 94.7241211,101.7333984 93.7104492,102.5214844 "/>
<path fill-rule="evenodd" clip-rule="evenodd" fill="#005F27" d="M96.4130859,99.4814453  c-0.112793-0.1123047-0.112793-0.2255859-0.112793-0.4501953c0-0.1132813,0.112793-0.3378906,0.2250977-0.4501953  c0.112793-0.1132813,0.3378906-0.2255859,0.5629883-0.2255859c0.112793,0.1123047,0.3378906,0.2255859,0.3378906,0.3378906  c0.2250977,0.1123047,0.2250977,0.2246094,0.2250977,0.5625c0,0.1132813-0.1123047,0.2255859-0.2250977,0.3378906  c-0.2250977,0.2255859-0.3378906,0.2255859-0.5629883,0.2255859C96.7504883,99.8193359,96.6381836,99.7070313,96.4130859,99.4814453  L96.4130859,99.4814453z"/>
<path fill-rule="evenodd" clip-rule="evenodd" fill="#005F27" d="M101.8173828,95.4277344  c-0.3378906,0.6757813-0.6757813,1.2387695-1.2382813,1.5761719c-0.5634766,0.5634766-1.3515625,0.7880859-2.0263672,0.7880859  c-0.7890625-0.1123047-1.3515625-0.4501953-1.9145508-1.1254883c-0.4506836-0.5629883-0.675293-1.2387695-0.5629883-2.0268555  c0.2250977-0.675293,0.5629883-1.3510742,1.2382813-1.8012695c0.4501953-0.4506836,1.0136719-0.6757813,1.6894531-0.9008789  l0.7880859,1.0131836c-0.6757813,0-1.2382813,0.3378906-1.8017578,0.5629883  c-0.3378906,0.3378906-0.5629883,0.7885742-0.6757813,1.1259766c0,0.4506836,0.112793,0.9008789,0.4501953,1.2387695  c0.2255859,0.4501953,0.6757813,0.5629883,1.1259766,0.675293c0.3378906,0,0.6757813-0.1123047,1.1259766-0.4501953  c0.4511719-0.3378906,0.7890625-0.9008789,1.0136719-1.6889648L101.8173828,95.4277344L101.8173828,95.4277344z"/>
<path fill-rule="evenodd" clip-rule="evenodd" fill="#005F27" d="M102.1552734,94.8652344  c-0.1123047-0.112793-0.1123047-0.3378906-0.1123047-0.4506836c0-0.2250977,0.1123047-0.3378906,0.2246094-0.4501953  c0.1132813-0.112793,0.3378906-0.112793,0.5634766-0.112793c0.1123047,0,0.3378906,0,0.3378906,0.2250977  c0.2246094,0.112793,0.2246094,0.3378906,0.2246094,0.4506836c0,0.1123047-0.1123047,0.3378906-0.2246094,0.4501953  c-0.2255859,0.112793-0.3378906,0.2250977-0.5634766,0.112793C102.4931641,95.090332,102.2675781,94.9775391,102.1552734,94.8652344  L102.1552734,94.8652344z"/>
</svg>