<?xml version="1.0" encoding="UTF-8" standalone="no"?>
<!-- Generator: Adobe Illustrator 14.0.0, SVG Export Plug-In . SVG Version: 6.00 Build 43363)  -->

<svg
   xmlns:dc="http://purl.org/dc/elements/1.1/"
   xmlns:cc="http://creativecommons.org/ns#"
   xmlns:rdf="http://www.w3.org/1999/02/22-rdf-syntax-ns#"
   xmlns:svg="http://www.w3.org/2000/svg"
   xmlns="http://www.w3.org/2000/svg"
   xmlns:sodipodi="http://sodipodi.sourceforge.net/DTD/sodipodi-0.dtd"
   xmlns:inkscape="http://www.inkscape.org/namespaces/inkscape"
   version="1.1"
   id="Layer_1"
   x="0px"
   y="0px"
   width="171.11925"
   height="240.00098"
   viewBox="0 0 171.11925 240.00098"
   xml:space="preserve"
   inkscape:version="0.48.4 r9939"
   sodipodi:docname="chicago_white_sox.svg"><metadata
     id="metadata17"><rdf:RDF><cc:Work
         rdf:about=""><dc:format>image/svg+xml</dc:format><dc:type
           rdf:resource="http://purl.org/dc/dcmitype/StillImage" /></cc:Work></rdf:RDF></metadata><defs
     id="defs15" /><sodipodi:namedview
     pagecolor="#ffffff"
     bordercolor="#666666"
     borderopacity="1"
     objecttolerance="10"
     gridtolerance="10"
     guidetolerance="10"
     inkscape:pageopacity="0"
     inkscape:pageshadow="2"
     inkscape:window-width="640"
     inkscape:window-height="480"
     id="namedview13"
     showgrid="false"
     inkscape:zoom="0.944"
     inkscape:cx="85.559946"
     inkscape:cy="120.00098"
     inkscape:window-x="65"
     inkscape:window-y="24"
     inkscape:window-maximized="0"
     inkscape:current-layer="Layer_1" /><g
     id="g3"
     transform="translate(-4.940054,-5.0000001)"><path
       style="fill:#ffffff"
       d="m 31.204,25.047 c -6.213,6.6 -12.199,19.699 -13.058,28.58 -0.279,2.839 -0.413,5.473 -0.413,7.943 0,8.902 1.822,15.717 5.791,22.359 4.985,8.312 12.873,15.148 22.815,19.762 9.38,4.351 22.886,10.413 24.498,11.072 0.553,0.221 1.269,0.558 2.033,0.932 -3.097,2.244 -4.919,3.561 -6.389,4.635 -8.359,-1.907 -18.873,-0.442 -21.316,0.137 -9.931,2.349 -19.038,6.826 -25.648,12.599 -6.734,5.889 -11.78,12.651 -13.492,18.098 -1.91,6.053 -1.296,10.355 1.825,12.778 4.59,3.576 10.521,-0.084 12.459,-1.296 3.998,-2.528 11.354,-7.152 20.621,-8.521 8.064,-1.201 18.877,-0.101 23.845,3.145 0,2.938 0,6.404 0,8.785 -1.196,1.096 -2.471,2.26 -2.471,2.26 -1.253,1.254 -1.917,2.965 -1.917,4.74 0,0.827 0.142,1.67 0.442,2.481 0.843,2.259 2.739,3.213 2.739,3.213 16.033,9.765 16.028,9.765 26.815,16.344 -0.153,0.058 -0.474,0.068 -0.595,0.121 -1.422,0.627 -4.719,2.691 -4.719,8.454 v 23.465 l 13.947,13.326 c 3.087,3.097 6.089,3.603 8.054,3.471 2.444,-0.147 4.656,-1.338 6.221,-3.355 0,0 9.286,-11.914 15.037,-19.293 4.262,6.594 10.982,16.981 10.982,16.981 -0.073,-0.116 0.158,0.363 0.158,0.363 0.779,1.675 2.407,5.151 6.21,6.136 1.686,0.438 4.361,0.49 7.464,-1.765 4.171,-3.033 13.868,-10.597 15.532,-12.262 l 0.306,-0.311 c 1.148,-1.127 2.897,-2.854 2.897,-5.693 V 202.33 c 0,-2.407 -1.291,-5.452 -4.256,-6.643 -2.16,-0.869 -4.636,-0.869 -7.596,1.538 -1.312,1.075 -3.565,2.702 -6.848,5.184 -1.901,-3.034 -2.912,-4.656 -4.351,-6.948 2.818,-3.555 9.528,-12.009 13.273,-16.738 0.484,0.384 1.464,1.153 1.464,1.153 l 0.164,0.11 c 3.944,2.628 6.952,1.654 8.391,0.838 3.918,-2.213 3.997,-7.143 3.929,-8.597 l 0.011,-18.814 -11.856,-12.262 c -1.717,-1.938 -4.113,-2.934 -6.578,-2.729 -2.519,0.206 -4.847,1.628 -6.205,3.804 -0.638,0.916 -6.273,8 -12.125,15.29 0,-5.425 0,-21.495 0,-24.619 0.727,-0.727 1.475,-1.479 1.475,-1.479 1.059,-0.922 3.466,-3.897 3.466,-7.374 0,-0.833 -0.143,-1.691 -0.469,-2.56 -0.69,-1.822 -2.323,-3.882 -5.952,-4.735 1.064,-4.119 1.491,-8.101 1.533,-11.172 0.005,-0.29 0.011,-0.574 0.011,-0.864 0,-8.217 -1.901,-15.143 -5.631,-20.605 -4.456,-6.495 -7.896,-8.675 -12.657,-11.699 L 119.838,71.63 C 114.291,68.09 85.2,52.8 83.962,52.146 83.857,52.093 72.806,46.621 72.806,46.621 65.511,42.929 64.99,40.343 64.99,38.942 c 0,-0.09 0.005,-0.169 0.01,-0.248 0.164,-0.848 2.149,-3.914 6.315,-3.914 4.272,0 7.269,0.137 12.894,2.022 8.906,2.986 9.159,6.616 9.165,7.959 -0.026,0.326 -0.295,4.087 -0.295,4.087 l 18.524,12.657 27.763,-35.648 -22.543,-15.08 -2.981,2.992 c -1.006,1 -1.633,1.569 -2.001,1.849 -0.438,-0.074 -1.606,-0.274 -1.606,-0.274 l -4.973,-1.886 C 97.436,10.299 84.336,5 72.412,5 51.569,5 40.624,14.908 31.204,25.047"
       id="path5"
       inkscape:connector-curvature="0" /><path
       style="fill:#c4cdd3"
       d="M 33.993,27.744 C 28.376,33.717 22.764,45.979 21.99,53.98 c -0.256,2.681 -0.396,5.172 -0.396,7.495 0,8.169 1.644,14.379 5.225,20.358 4.569,7.621 11.851,13.91 21.063,18.188 9.802,4.545 22.923,10.423 24.361,11.014 2.686,1.09 6.758,3.308 7.832,4.456 -1.406,1.017 -12.146,8.807 -12.831,9.302 -7.063,-2.292 -18.172,-1.012 -21.322,-0.264 -9.312,2.202 -17.813,6.363 -23.939,11.713 -6.118,5.347 -10.832,11.583 -12.31,16.276 -1.338,4.266 -1.196,7.068 0.442,8.338 1.578,1.227 4.135,0.727 7.812,-1.549 3.926,-2.48 12.078,-7.601 22.227,-9.112 7.511,-1.122 15.075,-0.253 20.737,1.153 0,0 4.372,1.349 7.833,3.677 0,1.074 0,12.151 0,12.988 -0.601,0.538 -3.676,3.355 -3.676,3.355 -0.511,0.506 -0.722,1.19 -0.722,1.844 0,0.379 0.074,0.748 0.195,1.063 0.279,0.759 1.022,1.144 1.022,1.144 l 38.223,23.297 c 0,0 9.086,-6.932 10.666,-8.138 0.616,1.037 1.406,2.349 1.839,3.07 -0.827,1.017 -10.619,12.983 -11.825,14.453 -1.38,-1.222 -8.543,-7.611 -8.543,-7.611 -2.128,-1.959 -3.787,-1.669 -4.583,-1.322 -1.443,0.633 -2.27,2.35 -2.27,4.709 v 21.759 l 12.768,12.204 c 2.022,2.018 3.787,2.359 4.919,2.286 1.259,-0.079 2.412,-0.711 3.255,-1.785 0,0 14.754,-18.946 18.604,-23.882 1.453,2.244 14.137,21.864 14.137,21.864 l 0.427,0.854 c 0.637,1.358 1.591,3.402 3.534,3.908 1.228,0.315 2.581,-0.059 4.04,-1.117 4.15,-3.028 13.71,-10.513 15.069,-11.877 l 0.315,-0.312 c 0.938,-0.927 1.681,-1.664 1.681,-2.797 v -22.443 c 0,-1.059 -0.596,-2.391 -1.754,-2.881 -0.774,-0.332 -2.038,-0.405 -3.624,1.122 0.074,-0.063 -7.7,5.81 -10.34,7.806 -1.021,-1.633 -7.6,-12.119 -8.279,-13.204 0.863,-1.075 16.444,-20.722 17.64,-22.223 1.18,0.933 4.509,3.545 4.509,3.545 1.696,1.127 3.076,1.358 4.182,0.732 1.976,-1.117 1.881,-4.478 1.859,-4.856 v -17.387 l -10.829,-11.214 c -0.874,-0.985 -2.002,-1.476 -3.191,-1.375 -1.228,0.1 -2.413,0.837 -3.087,1.912 -0.574,0.911 -8.949,11.377 -14.838,18.709 -1.532,-1.223 -3.703,-2.102 -4.877,-2.491 0,-1.443 0,-28.591 0,-29.396 0.39,-0.39 2.876,-2.913 2.876,-2.913 0.405,-0.357 2.064,-2.275 2.064,-4.281 0,-0.385 -0.053,-0.769 -0.195,-1.148 -0.632,-1.669 -2.57,-2.512 -5.762,-2.512 -0.053,0 -1.054,0.089 -2.022,0.184 2.349,-5.325 3.033,-11.05 3.092,-15.106 0.01,-0.269 0.016,-0.532 0.016,-0.801 0,-7.39 -1.659,-13.552 -4.936,-18.33 -3.977,-5.805 -6.795,-7.601 -11.478,-10.571 l -1.248,-0.795 C 112.163,71.615 83.172,56.377 81.94,55.734 81.914,55.718 70.853,50.24 70.853,50.24 62.136,45.826 60.745,42.002 60.745,38.805 c 0,-0.147 0,-0.29 0.011,-0.432 0.089,-2.634 3.861,-7.764 10.424,-7.764 4.561,0 8.006,0.158 14.211,2.233 8.064,2.708 11.982,6.626 11.982,11.988 -0.005,0.005 -0.137,1.907 -0.137,1.907 l 13.437,9.181 22.738,-29.191 -16.129,-10.787 -0.621,0.616 c -3.466,3.471 -3.604,3.439 -7.312,2.702 -0.969,-0.195 -3.055,-1.043 -5.704,-2.112 C 96.082,14.091 83.42,8.972 72.27,8.972 c -19.236,0 -29.086,8.88 -38.277,18.772 m 34.121,99.048 14.458,-10.497 v -0.537 c -0.168,-2.439 -7.089,-5.646 -9.528,-6.7 C 71.669,108.468 58.349,102.532 48.778,98.087 39.956,93.994 32.989,87.99 28.644,80.737 25.473,75.433 22.724,68.554 24.112,54.18 24.834,46.701 30.285,34.791 35.547,29.198 44.417,19.659 53.887,11.1 72.27,11.1 c 10.734,0 23.159,5.02 30.586,8.017 2.85,1.159 4.92,1.991 6.089,2.223 4.071,0.816 5.151,0.669 8.586,-2.676 1.19,0.795 11.224,7.511 12.799,8.559 -1.274,1.638 -18.988,24.376 -20.104,25.82 -1.375,-0.938 -9.924,-6.779 -10.782,-7.369 0.026,-0.374 0.053,-0.769 0.053,-0.769 0,-6.374 -4.52,-11.087 -13.431,-14.074 -6.494,-2.18 -10.266,-2.349 -14.885,-2.349 -8.011,0 -12.431,6.395 -12.546,9.813 -0.211,5.525 3.276,9.797 11.267,13.847 0.016,0 11.077,5.483 11.077,5.483 0.279,0.147 30.123,15.822 35.453,19.23 l 1.259,0.8 c 4.594,2.923 7.132,4.524 10.872,9.976 3.123,4.577 4.661,10.598 4.54,17.893 -0.063,4.261 -0.742,10.466 -3.565,15.87 l -0.911,1.733 5.63,-0.527 c 2.022,0.011 3.397,0.421 3.666,1.143 0.354,0.938 -0.832,2.691 -1.274,3.081 l -3.677,3.745 0.074,0.342 v 31.387 l 0.764,0.232 c 1.701,0.495 4.698,1.706 5.52,2.839 l 0.816,1.122 0.869,-1.08 c 1.518,-1.88 14.812,-18.403 15.67,-19.763 0.326,-0.516 0.9,-0.874 1.465,-0.927 0.516,-0.037 0.995,0.185 1.427,0.669 0,0 8.807,9.128 10.298,10.661 0,0.816 0,16.581 0,16.581 0,0.079 0.005,0.163 0.005,0.253 0,1.037 -0.253,2.396 -0.785,2.696 -0.337,0.189 -1.048,-0.037 -1.886,-0.601 0,-0.005 -6.114,-4.804 -6.114,-4.804 l -19.89,25.066 10.309,16.439 12.288,-9.286 c 0.764,-0.732 1.228,-0.864 1.422,-0.785 0.253,0.11 0.458,0.601 0.458,0.927 v 22.443 c 0,0.248 -0.489,0.728 -1.048,1.285 l -0.332,0.327 c -1.19,1.19 -10.466,8.485 -14.821,11.65 -0.917,0.664 -1.675,0.928 -2.26,0.78 -0.964,-0.253 -1.639,-1.696 -2.128,-2.75 l -0.569,-1.105 -15.759,-24.382 -20.453,26.251 c -0.326,0.411 -0.879,0.917 -1.706,0.964 -0.99,0.063 -2.123,-0.516 -3.276,-1.664 0,0 -11.514,-11.009 -12.151,-11.608 0,-0.869 0,-20.854 0,-20.854 0,-1.712 0.521,-2.549 1,-2.765 0.537,-0.232 1.401,0.126 2.302,0.953 0.016,0.016 10.208,9.102 10.208,9.102 l 14.185,-17.329 -3.84,-6.395 c 0,0 -10.355,7.906 -11.388,8.702 -1.206,-0.732 -37.055,-22.581 -37.112,-22.617 -0.037,-0.085 -0.074,-0.19 -0.074,-0.316 0,-0.143 0.037,-0.279 0.095,-0.343 l 4.288,-3.908 0.016,-0.479 v -14.648 l -0.495,-0.311 c -2.892,-1.854 -5.23,-3.213 -9.402,-4.267 -7.037,-1.78 -15.333,-2.091 -21.111,-1.169 -10.577,1.686 -19.006,6.862 -23.046,9.417 -3.89,2.407 -5.104,1.886 -5.386,1.67 -0.587,-0.464 -0.869,-2.313 0.295,-6.021 1.346,-4.276 5.928,-10.286 11.669,-15.312 5.875,-5.13 14.05,-9.123 23.036,-11.245 3.529,-0.837 14.505,-1.928 20.71,0.332 l 0.537,0.189 0.448,-0.322 z"
       id="path7"
       inkscape:connector-curvature="0" /><path
       style="fill:#231f20"
       d="m 168.279,238.003 h -1.602 v 4.367 h -1.09 v -4.367 h -1.591 v -0.948 h 4.282 m 7.264,5.315 h -1.079 v -4.225 h -0.026 l -1.533,4.225 h -1.053 l -1.485,-4.225 h -0.026 v 4.225 h -1.085 v -5.315 h 1.88 l 1.238,3.472 h 0.026 l 1.274,-3.472 h 1.869 v 5.315 z"
       id="path9"
       inkscape:connector-curvature="0" /><path
       style="fill:#231f20"
       d="m 168.143,172.964 v -15.943 l -9.972,-8.965 -27.615,34.284 -3.877,-6.188 c 3.36,-2.513 7.701,-5.736 8.186,-5.979 0.79,-0.4 2.781,-1.591 3.781,-1.591 0.901,0 -1.4,-3.987 -7.974,-3.987 v -35.279 l 3.787,-4.187 c 0,0 -4.609,0.727 -6.784,0.063 -0.459,-0.142 -1.228,-0.511 -2.176,-1 1.238,-1.975 2.35,-4.214 3.182,-6.826 4.52,-14.295 1.559,-27.489 -9.17,-35.622 C 111.984,76.04 81.05,60.386 81.05,60.386 c 0,0 -18.714,-9.17 -20.731,-11.188 -1.443,-1.443 -4.377,-3.687 -4.377,-10.761 0,-4.219 4.693,-8.87 6.715,-9.823 3.245,-1.538 4.303,-2.265 10.861,-2.36 3.713,-0.052 7.164,0.838 7.627,0.89 4.082,0.432 13.747,3.619 18.74,10.366 1.901,1.907 2.281,7.5 2.281,7.5 l 7.779,4.983 16.945,-22.123 -9.176,-6.178 c -2.591,2.792 -7.568,2.986 -9.56,1.996 -1.996,-1 -19.104,-7.232 -21.532,-8.006 -4.583,-1.464 -14.548,-2.56 -19.926,-1.765 -5.383,0.801 -14.216,2.434 -21.132,9.771 -8.064,8.564 -8.169,15.443 -8.169,19.13 0,5.783 1.496,13.426 7.969,19.899 9.339,9.333 23.518,15.18 26.71,16.944 5.672,3.134 23.528,12.478 26.104,13.979 10.971,6.379 15.153,13.158 13.963,21.727 -0.063,0.421 -0.195,0.816 -0.29,1.217 -4.804,-2.823 -11.556,-7.079 -14.269,-9.786 0,0 -1.638,1.743 -2.691,2.786 l -7.953,5.957 c 0.938,-3.866 1.048,-10.476 0.885,-11.135 -0.206,-0.8 -0.8,-7.179 -6.378,-11.161 C 77.658,90.538 69.188,85.471 61.914,81.884 58.79,80.341 48.63,74.199 43.774,70.154 c 0,0 -8.367,-7.8 -9.663,-12.588 -2.497,-5.483 -2.597,-18.435 -1.298,-19.731 0,0 -3.187,3.587 -5.38,10.766 -1.069,3.503 -1.793,8.069 -1.793,11.161 0,5.178 0.893,14.248 6.582,21.922 2.501,3.382 6.428,7.227 10.579,9.976 5.083,3.35 10.197,5.32 10.54,5.567 1.396,0.996 14.553,6.547 15.749,7.148 1.19,0.6 7.221,3.402 8.501,4.087 4.545,2.428 6.884,3.987 8.317,7.854 L 72.27,126.529 c 0,0 0.6,1.09 0.6,2.786 0,0 0,0.479 0,1.29 -1.838,-0.605 -3.708,-1.138 -5.578,-1.459 -8.965,-1.527 -14.421,-1.433 -21.521,0.321 -7.875,1.944 -16.144,5.12 -23.916,12.895 -8.777,8.774 -8.669,14.658 -8.669,14.658 l 8.765,-5.172 c 7.334,-4.125 16.984,-6.584 23.821,-6.584 16.291,0 24.745,4.703 27.099,7.321 0,8.175 0,15.453 0,15.796 0,3.14 -0.942,3.534 -1.643,4.135 -0.269,0.231 -0.495,0.247 -1.443,0.896 0,0 1.201,0.447 1.496,0.748 0.795,0.595 31.824,19.336 31.824,19.336 l 12.014,-8.802 5.932,9.449 -16.486,20.474 -11.361,-10.366 v 19.336 l 12.957,11.962 22.87,-28.717 18.777,29.907 15.153,-12.151 v -19.136 l -12.156,9.165 -12.32,-19.646 22.28,-27.984 m -70.055,-37.071 7.078,-5.183 c 1.923,1.601 4.188,3.055 6.442,4.351 -0.147,0.131 -0.269,0.231 -0.269,0.231 0,0 -8.159,6.984 -13.252,7.7 v -7.099 z m 12.394,45.439 -12.394,-7.568 v -18.778 c 5.193,-0.921 17.86,-6.957 24.413,-13.515 0.084,1.237 0.058,13.784 0.037,22.285 l -7.611,-12.12 -11.588,8.238 v 14.748 l 6.41,-4.251 4.804,7.653 -4.071,3.308 z"
       id="path11"
       inkscape:connector-curvature="0" /></g></svg>