<?xml version="1.0" encoding="UTF-8"?>
<svg xmlns="http://www.w3.org/2000/svg" xmlns:xlink="http://www.w3.org/1999/xlink" width="33pt" height="23pt" viewBox="0 0 33 23" version="1.1">
<g id="surface1">
<path style=" stroke:none;fill-rule:nonzero;fill:rgb(29.411765%,56.470588%,80.392157%);fill-opacity:1;" d="M 7.738281 5.910156 C 10.160156 4.40625 11.558594 4.386719 11.558594 4.386719 L 11.664062 4.507812 L 17.054688 0 L 22.238281 4.414062 L 22.414062 4.238281 C 22.414062 4.238281 23.820312 4.457031 25.550781 5.546875 C 27.933594 7.046875 29.511719 8.679688 29.511719 8.679688 L 28.296875 8.679688 L 29.148438 9.746094 L 29.09375 9.980469 C 29.09375 9.980469 30.324219 9.957031 30.960938 10.070312 C 31.464844 10.164062 32.007812 10.546875 32.007812 10.546875 L 32.730469 10.292969 L 32.730469 15.382812 L 30.742188 15.382812 C 30.742188 15.382812 31.632812 15.921875 31.9375 16.28125 C 32.101562 16.480469 32.269531 16.667969 32.382812 16.898438 C 32.511719 17.164062 32.679688 17.511719 32.679688 18.113281 L 32.679688 20.785156 C 32.679688 21.050781 32.519531 21.617188 32.378906 21.851562 C 32.097656 22.308594 31.734375 22.652344 31.234375 22.832031 C 30.683594 23.027344 29.835938 23.007812 29.339844 22.847656 C 29.058594 22.757812 28.597656 22.417969 28.597656 22.417969 L 28.167969 22.796875 L 27.175781 22.253906 L 27.175781 22.9375 L 23.996094 22.9375 L 23.042969 22.183594 L 23.042969 22.9375 L 18.664062 22.9375 C 18.664062 22.9375 18.324219 22.503906 18.144531 22.253906 C 17.796875 22.515625 17.441406 22.839844 16.964844 22.917969 C 16.625 22.96875 16.300781 22.972656 15.980469 22.921875 C 15.617188 22.863281 15.300781 22.703125 15.003906 22.476562 C 14.769531 22.296875 14.574219 22.035156 14.378906 21.828125 C 13.777344 22.203125 13.074219 22.734375 12.59375 22.886719 C 12.300781 22.984375 11.507812 22.992188 11.105469 22.816406 C 10.535156 22.570312 9.910156 21.816406 9.910156 21.816406 C 9.910156 21.816406 8.480469 22.832031 8.050781 22.925781 C 7.617188 23.019531 7.144531 23.007812 6.738281 22.859375 C 6.410156 22.734375 6.164062 22.546875 5.894531 22.3125 C 5.476562 22.566406 4.886719 22.933594 4.886719 22.933594 L 2.945312 22.933594 L 2.84375 22.8125 L 2.640625 22.933594 L 0.03125 22.933594 L 0.03125 20.363281 C 0.03125 20.363281 0.355469 20.347656 0.355469 20.058594 L 0.355469 12.984375 C 0.355469 12.691406 0 12.6875 0 12.6875 L 0 10.070312 L 5.070312 10.070312 L 4.730469 9.359375 L 5.367188 8.675781 L 4.289062 8.675781 C 4.289062 8.675781 5.832031 7.09375 7.738281 5.910156 "/>
<path style="fill:none;stroke-width:0.8663;stroke-linecap:butt;stroke-linejoin:miter;stroke:rgb(99.215686%,72.156863%,15.294118%);stroke-opacity:1;stroke-miterlimit:4;" d="M 213.011364 75.450758 C 213.011364 75.450758 207.215909 67.190228 193.125 56.392334 C 179.034091 45.622633 169.517045 39.476573 169.517045 39.476573 L 167.045455 41.872973 L 169.517045 39.476573 C 169.517045 39.476573 178.465909 40.858027 192.017045 49.766995 C 203.267045 57.153543 211.278409 64.258163 211.278409 64.258163 L 202.528409 64.258163 M 43.238636 73.082552 C 43.238636 73.082552 52.982955 63.045867 62.272727 56.533299 C 71.534091 50.020731 87.102273 39.984046 87.102273 39.984046 L 89.318182 42.352253 L 87.102273 39.984046 C 87.102273 39.984046 74.857955 41.985745 59.914773 52.276166 C 45.482955 62.171886 44.005682 64.540092 44.005682 64.540092 L 52.244318 64.540092 " transform="matrix(0.1375,0,0,0.138554,-0.6875,-0.700114)"/>
<path style=" stroke:none;fill-rule:nonzero;fill:rgb(0%,17.647059%,38.431373%);fill-opacity:1;" d="M 17.015625 0.515625 L 7.023438 8.730469 L 27.414062 9.285156 Z M 17.015625 0.515625 "/>
<path style=" stroke:none;fill-rule:nonzero;fill:rgb(100%,100%,100%);fill-opacity:1;" d="M 18.984375 3.988281 L 18.96875 5.308594 L 17.777344 4.179688 L 17.097656 6.003906 L 16.234375 4.128906 L 15.230469 4.890625 L 14.875 3.882812 L 12.121094 4.976562 L 17.015625 0.929688 L 22.0625 5.257812 Z M 18.984375 3.988281 "/>
<path style=" stroke:none;fill-rule:nonzero;fill:rgb(0%,17.647059%,38.431373%);fill-opacity:1;" d="M 0.566406 10.515625 L 6.785156 10.515625 C 6.785156 10.515625 12.902344 9.027344 16.707031 9.027344 C 20.515625 9.027344 27.242188 10.171875 27.242188 10.171875 L 30.539062 10.414062 L 31.109375 14.929688 L 29.105469 14.929688 L 31.421875 17.882812 L 31.050781 20.769531 L 28.839844 21.671875 L 28.144531 22.210938 L 26.308594 21.339844 L 24.40625 22.539062 L 24.101562 22.539062 L 22.417969 21.308594 L 18.820312 22.539062 L 17.914062 21.289062 L 15.164062 20.769531 L 12.785156 22.347656 L 10.660156 20.855469 L 8.230469 22.363281 L 6.328125 21.21875 L 4.644531 22.539062 L 3.488281 21.566406 L 2.351562 22.539062 L 1.296875 21.117188 L 0.890625 11.265625 Z M 0.566406 10.515625 "/>
<path style="fill:none;stroke-width:0.1245;stroke-linecap:butt;stroke-linejoin:miter;stroke:rgb(0%,0%,0%);stroke-opacity:1;stroke-miterlimit:4;" d="M 9.119318 80.94838 L 54.346591 80.94838 C 54.346591 80.94838 98.835227 70.206872 126.505682 70.206872 C 154.204545 70.206872 203.125 78.467402 203.125 78.467402 L 227.102273 80.215364 L 231.25 112.806397 L 216.676136 112.806397 L 233.522727 134.120255 L 230.823864 154.954834 L 214.744318 161.467402 L 209.6875 165.358027 L 196.335227 159.071003 L 182.5 167.726234 L 180.284091 167.726234 L 168.039773 158.817266 L 141.875 167.726234 L 135.284091 158.704495 L 115.284091 154.954834 L 97.982955 166.34478 L 82.528409 155.575079 L 64.857955 166.457552 L 51.022727 158.197022 L 38.778409 167.726234 L 30.369318 160.706193 L 22.102273 167.726234 L 14.431818 157.464005 L 11.477273 86.361424 Z M 9.119318 80.94838 " transform="matrix(0.1375,0,0,0.138554,-0.6875,-0.700114)"/>
<path style="fill-rule:nonzero;fill:rgb(99.215686%,72.156863%,15.294118%);fill-opacity:1;stroke-width:0.7468;stroke-linecap:butt;stroke-linejoin:miter;stroke:rgb(100%,100%,100%);stroke-opacity:1;stroke-miterlimit:4;" d="M 7.670455 80.976573 L 20 80.976573 L 30.255682 129.130106 L 30.369318 100.204155 C 30.369318 100.204155 30.426136 96.821003 29.517045 95.890636 C 28.579545 94.960269 27.414773 93.71978 27.414773 93.71978 L 27.414773 80.976573 L 41.363636 80.976573 L 41.363636 93.71978 C 41.363636 93.71978 40.142045 95.270391 39.517045 95.890636 C 38.892045 96.51088 38.778409 100.204155 38.778409 100.204155 L 38.778409 167.726234 L 28.522727 167.726234 L 18.75 120.728611 L 18.75 147.427321 C 18.75 147.427321 19.232955 151.036016 19.886364 152.191927 C 20.482955 153.319644 22.102273 154.560133 22.102273 154.560133 L 22.102273 167.726234 L 7.670455 167.726234 L 7.670455 154.560133 C 7.670455 154.560133 8.75 153.939889 9.630682 153.065908 C 10.482955 152.191927 10.596591 148.808774 10.596591 148.808774 L 10.596591 100.204155 C 10.596591 100.204155 10.113636 96.905582 9.488636 95.890636 C 8.863636 94.903883 7.670455 93.71978 7.670455 93.71978 Z M 7.670455 80.976573 " transform="matrix(0.1375,0,0,0.138554,-0.6875,-0.700114)"/>
<path style=" stroke:none;fill-rule:nonzero;fill:rgb(99.215686%,72.156863%,15.294118%);fill-opacity:1;" d="M 5.171875 13.351562 L 5.171875 15.121094 C 5.171875 15.121094 5.328125 15.132812 5.410156 15.226562 C 5.5625 15.402344 5.511719 15.78125 5.511719 15.78125 L 5.511719 20.558594 C 5.511719 20.558594 5.664062 22.558594 7.414062 22.558594 C 9.164062 22.558594 9.316406 20.523438 9.316406 20.523438 L 9.316406 14.21875 C 9.316406 14.21875 9.300781 13.542969 9.402344 13.421875 C 9.503906 13.300781 9.675781 13.054688 9.675781 13.054688 L 9.675781 11.214844 C 9.675781 11.214844 9.214844 11.351562 8.484375 11.667969 C 7.753906 11.980469 7.550781 12.066406 7.550781 12.066406 L 7.550781 13.890625 C 7.550781 13.890625 7.71875 13.957031 7.71875 14.0625 L 7.71875 19.640625 C 7.71875 19.640625 7.730469 20.097656 7.40625 20.097656 C 7.082031 20.097656 7.089844 19.777344 7.089844 19.65625 L 7.089844 14.742188 C 7.089844 14.742188 7.058594 14.359375 7.125 14.253906 C 7.195312 14.148438 7.261719 13.941406 7.261719 13.941406 L 7.261719 12.1875 C 7.261719 12.1875 6.75 12.414062 6.054688 12.8125 C 5.359375 13.210938 5.171875 13.351562 5.171875 13.351562 "/>
<path style="fill:none;stroke-width:0.7468;stroke-linecap:butt;stroke-linejoin:miter;stroke:rgb(100%,100%,100%);stroke-opacity:1;stroke-miterlimit:4;" d="M 42.613636 101.416451 L 42.613636 114.187851 C 42.613636 114.187851 43.75 114.272429 44.346591 114.94906 C 45.454545 116.217742 45.085227 118.952457 45.085227 118.952457 L 45.085227 153.432416 C 45.085227 153.432416 46.193182 167.867198 58.920455 167.867198 C 71.647727 167.867198 72.755682 153.178679 72.755682 153.178679 L 72.755682 107.675283 C 72.755682 107.675283 72.642045 102.797905 73.380682 101.923924 C 74.119318 101.049943 75.369318 99.273788 75.369318 99.273788 L 75.369318 85.994916 C 75.369318 85.994916 72.017045 86.981668 66.704545 89.265296 C 61.392045 91.520731 59.914773 92.140976 59.914773 92.140976 L 59.914773 105.307076 C 59.914773 105.307076 61.136364 105.786356 61.136364 106.547565 L 61.136364 146.807076 C 61.136364 146.807076 61.221591 150.105649 58.863636 150.105649 C 56.505682 150.105649 56.5625 147.793829 56.5625 146.919848 L 56.5625 111.453136 C 56.5625 111.453136 56.335227 108.690228 56.818182 107.929019 C 57.329545 107.16781 57.8125 105.673584 57.8125 105.673584 L 57.8125 93.014957 C 57.8125 93.014957 54.090909 94.650147 49.034091 97.525826 C 43.977273 100.401505 42.613636 101.416451 42.613636 101.416451 Z M 42.613636 101.416451 " transform="matrix(0.1375,0,0,0.138554,-0.6875,-0.700114)"/>
<path style=" stroke:none;fill-rule:nonzero;fill:rgb(99.215686%,72.156863%,15.294118%);fill-opacity:1;" d="M 13.625 11.46875 L 13.914062 11.304688 L 13.914062 14.972656 L 12.257812 14.972656 L 12.257812 13.488281 C 12.257812 13.488281 12.308594 13.039062 11.949219 13.039062 C 11.542969 13.039062 11.578125 13.453125 11.578125 13.453125 L 11.578125 19.554688 C 11.578125 19.554688 11.542969 20.109375 11.933594 20.109375 C 12.324219 20.109375 12.257812 19.554688 12.257812 19.554688 L 12.257812 17.433594 L 12.003906 17.433594 L 12.003906 16.042969 L 13.914062 16.042969 L 13.914062 21.011719 C 13.914062 21.011719 13.292969 22.558594 11.917969 22.558594 C 10.539062 22.558594 9.964844 21.097656 9.964844 20.855469 L 9.964844 12.570312 C 9.964844 12.570312 10.183594 10.625 12.019531 10.625 C 13.074219 10.625 13.625 11.46875 13.625 11.46875 "/>
<path style="fill:none;stroke-width:0.7468;stroke-linecap:butt;stroke-linejoin:miter;stroke:rgb(100%,100%,100%);stroke-opacity:1;stroke-miterlimit:4;" d="M 104.090909 87.827457 L 106.193182 86.643353 L 106.193182 113.116519 L 94.147727 113.116519 L 94.147727 102.403204 C 94.147727 102.403204 94.517045 99.161016 91.903409 99.161016 C 88.948864 99.161016 89.204545 102.149467 89.204545 102.149467 L 89.204545 146.186832 C 89.204545 146.186832 88.948864 150.190228 91.789773 150.190228 C 94.630682 150.190228 94.147727 146.186832 94.147727 146.186832 L 94.147727 130.878068 L 92.301136 130.878068 L 92.301136 120.841383 L 106.193182 120.841383 L 106.193182 156.702796 C 106.193182 156.702796 101.676136 167.867198 91.676136 167.867198 C 81.647727 167.867198 77.471591 157.323041 77.471591 155.575079 L 77.471591 95.777864 C 77.471591 95.777864 79.0625 81.737783 92.414773 81.737783 C 100.085227 81.737783 104.090909 87.827457 104.090909 87.827457 Z M 104.090909 87.827457 " transform="matrix(0.1375,0,0,0.138554,-0.6875,-0.700114)"/>
<path style="fill-rule:nonzero;fill:rgb(99.215686%,72.156863%,15.294118%);fill-opacity:1;stroke-width:0.7468;stroke-linecap:butt;stroke-linejoin:miter;stroke:rgb(100%,100%,100%);stroke-opacity:1;stroke-miterlimit:4;" d="M 139.0625 83.119236 L 139.0625 113.116519 L 126.875 113.116519 L 126.875 99.161016 C 126.875 99.161016 127.130682 95.129427 124.289773 95.129427 C 121.448864 95.129427 121.818182 98.540772 121.818182 99.020052 L 121.818182 146.215024 C 121.818182 146.215024 121.5625 150.190228 124.403409 150.190228 C 127.272727 150.190228 127.017045 146.215024 127.017045 146.215024 L 127.017045 130.906261 L 124.914773 130.906261 L 124.914773 120.841383 L 139.0625 120.841383 L 139.0625 156.702796 C 139.0625 156.702796 134.659091 167.78262 124.772727 167.78262 C 112.8125 167.78262 109.659091 155.575079 109.659091 155.575079 L 109.659091 90.872293 C 109.659091 90.872293 110.9375 77.678 124.602273 77.678 C 132.073864 77.678 136.448864 84.105989 136.448864 84.105989 Z M 139.0625 83.119236 " transform="matrix(0.1375,0,0,0.138554,-0.6875,-0.700114)"/>
<path style="fill-rule:nonzero;fill:rgb(99.215686%,72.156863%,15.294118%);fill-opacity:1;stroke-width:0.7468;stroke-linecap:butt;stroke-linejoin:miter;stroke:rgb(100%,100%,100%);stroke-opacity:1;stroke-miterlimit:4;" d="M 141.875 78.83391 C 141.875 78.83391 144.943182 78.721139 155.568182 80.863802 C 166.193182 82.978272 169.147727 84.105989 169.147727 84.105989 L 169.147727 113.116519 L 160 113.116519 C 160 113.116519 160.369318 102.544168 158.778409 99.894033 C 157.727273 98.174264 156.164773 97.413054 156.164773 97.413054 L 156.164773 120.841383 L 162.840909 120.841383 L 162.840909 130.878068 L 155.9375 130.878068 L 155.9375 152.050962 C 155.9375 152.050962 158.892045 151.317946 159.630682 147.427321 C 160.255682 144.185133 160 137.644372 160 137.644372 L 169.147727 137.644372 L 169.147727 167.726234 L 141.875 167.726234 L 141.875 154.447361 C 141.875 154.447361 144.318182 153.798924 144.318182 150.303 L 144.318182 97.018353 C 144.318182 94.509182 141.875 92.76122 141.875 92.76122 Z M 141.875 78.83391 " transform="matrix(0.1375,0,0,0.138554,-0.6875,-0.700114)"/>
<path style="fill-rule:nonzero;fill:rgb(99.215686%,72.156863%,15.294118%);fill-opacity:1;stroke-width:0.7468;stroke-linecap:butt;stroke-linejoin:miter;stroke:rgb(100%,100%,100%);stroke-opacity:1;stroke-miterlimit:4;" d="M 172.727273 85.120935 C 172.727273 85.120935 178.778409 86.248652 190.397727 91.746274 C 202.017045 97.27209 206.107955 99.781261 206.107955 99.781261 L 206.107955 113.116519 L 198.693182 113.116519 C 198.693182 113.116519 198.835227 110.43819 198.181818 108.549264 C 197.443182 106.350215 195.710227 105.05334 195.710227 105.05334 L 195.710227 147.540092 C 195.710227 147.540092 195.710227 150.556736 196.704545 151.93819 C 197.698864 153.319644 198.806818 154.306397 198.806818 154.306397 L 198.806818 167.726234 L 180.284091 167.726234 L 180.284091 154.560133 C 180.284091 154.560133 181.619318 153.939889 182.357955 152.812171 C 183.125 151.684454 183.721591 147.681057 183.721591 147.681057 L 183.721591 103.023448 C 183.721591 103.023448 180.880682 103.925622 180.880682 107.562511 L 180.880682 113.116519 L 172.727273 113.116519 Z M 172.727273 85.120935 " transform="matrix(0.1375,0,0,0.138554,-0.6875,-0.700114)"/>
<path style=" stroke:none;fill-rule:nonzero;fill:rgb(99.215686%,72.156863%,15.294118%);fill-opacity:1;" d="M 31.863281 11.023438 L 32.253906 10.867188 L 32.253906 14.933594 L 30.675781 14.933594 L 30.675781 13.265625 C 30.675781 13.265625 30.691406 12.550781 30.183594 12.550781 C 29.671875 12.550781 29.742188 13.265625 29.742188 13.265625 L 29.742188 14.742188 C 29.742188 14.933594 29.875 15.277344 30.234375 15.539062 C 31.234375 16.269531 31.59375 16.53125 31.78125 16.738281 C 31.964844 16.945312 32.222656 17.46875 32.222656 17.761719 L 32.222656 21.011719 C 32.222656 21.167969 31.914062 22.539062 30.183594 22.539062 C 29.28125 22.539062 28.570312 21.878906 28.570312 21.878906 L 28.144531 22.210938 L 28.144531 18.648438 L 29.707031 18.648438 L 29.707031 19.804688 C 29.707031 19.804688 29.65625 20.386719 30.164062 20.386719 C 30.675781 20.386719 30.625 19.804688 30.625 19.804688 L 30.625 18.371094 C 30.625 18.371094 30.539062 17.851562 30.285156 17.695312 C 29.492188 17.207031 28.855469 16.722656 28.585938 16.441406 C 28.363281 16.21875 28.125 15.609375 28.125 15.105469 L 28.125 12.378906 C 28.125 12.082031 28.238281 11.449219 28.621094 11.058594 C 28.984375 10.683594 29.535156 10.398438 30.300781 10.398438 C 31.320312 10.398438 31.863281 11.023438 31.863281 11.023438 "/>
<path style="fill:none;stroke-width:0.7468;stroke-linecap:butt;stroke-linejoin:miter;stroke:rgb(100%,100%,100%);stroke-opacity:1;stroke-miterlimit:4;" d="M 236.732955 84.613462 L 239.573864 83.485745 L 239.573864 112.806397 L 228.096591 112.806397 L 228.096591 100.796207 C 228.096591 100.796207 228.210227 95.636899 224.517045 95.636899 C 220.795455 95.636899 221.306818 100.796207 221.306818 100.796207 L 221.306818 111.453136 C 221.306818 112.83459 222.272727 115.315568 224.886364 117.204495 C 232.159091 122.476573 234.772727 124.3655 236.136364 125.859726 C 237.471591 127.353951 239.346591 131.131804 239.346591 133.246274 L 239.346591 156.702796 C 239.346591 157.830514 237.102273 167.726234 224.517045 167.726234 C 217.954545 167.726234 212.784091 162.961628 212.784091 162.961628 L 209.6875 165.358027 L 209.6875 139.646071 L 221.051136 139.646071 L 221.051136 147.991179 C 221.051136 147.991179 220.681818 152.191927 224.375 152.191927 C 228.096591 152.191927 227.727273 147.991179 227.727273 147.991179 L 227.727273 137.644372 C 227.727273 137.644372 227.102273 133.894712 225.255682 132.766995 C 219.488636 129.242878 214.857955 125.746954 212.897727 123.717062 C 211.278409 122.110065 209.545455 117.711967 209.545455 114.075079 L 209.545455 94.39641 C 209.545455 92.253747 210.369318 87.686492 213.153409 84.867198 C 215.795455 82.160677 219.801136 80.102592 225.369318 80.102592 C 232.784091 80.102592 236.732955 84.613462 236.732955 84.613462 Z M 236.732955 84.613462 " transform="matrix(0.1375,0,0,0.138554,-0.6875,-0.700114)"/>
<path style="fill-rule:nonzero;fill:rgb(29.411765%,56.470588%,80.392157%);fill-opacity:1;stroke-width:0.8663;stroke-linecap:butt;stroke-linejoin:miter;stroke:rgb(99.215686%,72.156863%,15.294118%);stroke-opacity:1;stroke-miterlimit:4;" d="M 43.238636 73.082552 C 43.238636 73.082552 77.954545 53.516655 126.647727 53.516655 C 175.340909 53.516655 213.011364 75.591723 213.011364 75.591723 L 201.534091 92.648448 C 201.534091 92.648448 171.505682 73.956533 126.647727 73.956533 C 81.789773 73.956533 53.977273 90.618557 53.977273 90.618557 L 43.238636 73.082552 " transform="matrix(0.1375,0,0,0.138554,-0.6875,-0.700114)"/>
<path style=" stroke:none;fill-rule:nonzero;fill:rgb(100%,100%,100%);fill-opacity:1;" d="M 8.195312 10.253906 L 8.675781 10.089844 C 9.078125 9.949219 9.175781 9.699219 9.085938 9.425781 C 8.992188 9.152344 8.765625 9.015625 8.363281 9.152344 L 7.882812 9.320312 Z M 7.222656 9.234375 C 7.210938 9.207031 7.195312 9.1875 7.097656 9.214844 L 7.085938 9.175781 L 8.339844 8.738281 C 9.035156 8.496094 9.484375 8.75 9.644531 9.230469 C 9.792969 9.671875 9.566406 10.203125 8.863281 10.445312 L 7.648438 10.871094 L 7.636719 10.832031 C 7.730469 10.792969 7.730469 10.765625 7.722656 10.738281 Z M 7.222656 9.234375 "/>
<path style=" stroke:none;fill-rule:nonzero;fill:rgb(100%,100%,100%);fill-opacity:1;" d="M 12.476562 8.824219 L 12.429688 8.835938 C 12.410156 8.792969 12.375 8.765625 12.296875 8.78125 L 11.570312 8.933594 L 11.628906 9.242188 L 12.886719 8.980469 C 12.929688 8.972656 12.941406 8.953125 12.9375 8.867188 L 12.984375 8.859375 L 13.101562 9.4375 L 13.054688 9.449219 C 13.03125 9.394531 13.011719 9.378906 12.96875 9.390625 L 11.015625 9.796875 L 11.003906 9.753906 C 11.101562 9.726562 11.109375 9.703125 11.101562 9.671875 L 10.792969 8.117188 C 10.789062 8.085938 10.773438 8.066406 10.671875 8.082031 L 10.664062 8.039062 L 12.617188 7.632812 C 12.664062 7.625 12.675781 7.605469 12.671875 7.527344 L 12.71875 7.515625 L 12.832031 8.097656 L 12.785156 8.105469 C 12.757812 8.03125 12.742188 8.019531 12.699219 8.027344 L 11.441406 8.289062 L 11.496094 8.566406 L 12.222656 8.414062 C 12.300781 8.398438 12.324219 8.359375 12.328125 8.3125 L 12.371094 8.304688 Z M 12.476562 8.824219 "/>
<path style=" stroke:none;fill-rule:nonzero;fill:rgb(100%,100%,100%);fill-opacity:1;" d="M 14.355469 7.492188 C 14.355469 7.460938 14.34375 7.4375 14.242188 7.4375 L 14.238281 7.398438 L 15.203125 7.34375 L 15.203125 7.382812 C 15.113281 7.390625 15.09375 7.414062 15.09375 7.433594 C 15.097656 7.472656 15.820312 8.058594 16.113281 8.300781 L 16.066406 7.394531 C 16.0625 7.355469 16.03125 7.339844 15.976562 7.339844 L 15.976562 7.296875 L 16.707031 7.257812 L 16.707031 7.296875 C 16.609375 7.308594 16.597656 7.332031 16.601562 7.363281 L 16.6875 8.949219 C 16.6875 8.980469 16.703125 9.003906 16.800781 9.003906 L 16.804688 9.042969 L 16.046875 9.085938 L 16.042969 9.046875 C 16.113281 9.042969 16.132812 9.027344 16.132812 9.003906 C 16.128906 8.960938 16.027344 8.921875 14.921875 7.980469 L 14.980469 9.046875 C 14.980469 9.078125 14.992188 9.101562 15.09375 9.101562 L 15.097656 9.140625 L 14.339844 9.183594 L 14.335938 9.144531 C 14.433594 9.132812 14.445312 9.109375 14.445312 9.078125 Z M 14.355469 7.492188 "/>
<path style=" stroke:none;fill-rule:nonzero;fill:rgb(100%,100%,100%);fill-opacity:1;" d="M 18.667969 9.15625 L 18.671875 9.117188 C 18.71875 9.117188 18.734375 9.105469 18.734375 9.09375 C 18.738281 9.0625 18.171875 7.617188 18.101562 7.433594 C 18.074219 7.351562 18.058594 7.335938 18.019531 7.328125 L 18.023438 7.285156 L 18.839844 7.375 L 18.835938 7.417969 C 18.769531 7.414062 18.753906 7.425781 18.75 7.449219 C 18.75 7.476562 18.800781 7.5625 19.199219 8.539062 C 19.765625 7.695312 19.839844 7.605469 19.84375 7.566406 C 19.847656 7.542969 19.835938 7.53125 19.789062 7.519531 L 19.792969 7.480469 L 20.476562 7.554688 L 20.472656 7.597656 C 20.441406 7.601562 20.421875 7.605469 20.40625 7.632812 C 20.355469 7.738281 19.445312 9.121094 19.4375 9.167969 C 19.4375 9.183594 19.457031 9.199219 19.492188 9.203125 L 19.488281 9.25 Z M 18.667969 9.15625 "/>
<path style=" stroke:none;fill-rule:nonzero;fill:rgb(100%,100%,100%);fill-opacity:1;" d="M 22.984375 9.300781 L 22.9375 9.289062 C 22.933594 9.242188 22.914062 9.203125 22.839844 9.183594 L 22.117188 9 L 22.042969 9.304688 L 23.285156 9.625 C 23.328125 9.636719 23.347656 9.621094 23.378906 9.542969 L 23.425781 9.554688 L 23.285156 10.128906 L 23.238281 10.117188 C 23.242188 10.058594 23.230469 10.039062 23.1875 10.027344 L 21.253906 9.53125 L 21.261719 9.492188 C 21.363281 9.511719 21.378906 9.492188 21.386719 9.460938 L 21.761719 7.921875 C 21.769531 7.890625 21.765625 7.867188 21.667969 7.835938 L 21.679688 7.796875 L 23.613281 8.289062 C 23.65625 8.300781 23.675781 8.289062 23.707031 8.214844 L 23.75 8.226562 L 23.613281 8.800781 L 23.566406 8.789062 C 23.570312 8.710938 23.558594 8.691406 23.519531 8.679688 L 22.273438 8.359375 L 22.207031 8.636719 L 22.925781 8.820312 C 23.003906 8.839844 23.039062 8.8125 23.0625 8.773438 L 23.109375 8.785156 Z M 22.984375 9.300781 "/>
<path style=" stroke:none;fill-rule:nonzero;fill:rgb(100%,100%,100%);fill-opacity:1;" d="M 25.398438 9.707031 L 26.023438 9.960938 C 26.242188 10.050781 26.339844 9.996094 26.375 9.902344 C 26.410156 9.8125 26.375 9.703125 26.15625 9.613281 L 25.53125 9.359375 Z M 25.0625 10.578125 C 25.050781 10.605469 25.054688 10.632812 25.144531 10.675781 L 25.128906 10.714844 L 24.363281 10.402344 L 24.378906 10.367188 C 24.472656 10.398438 24.492188 10.378906 24.503906 10.351562 L 25.074219 8.875 C 25.085938 8.847656 25.085938 8.820312 24.992188 8.777344 L 25.007812 8.738281 L 26.367188 9.289062 C 26.917969 9.511719 27.089844 9.769531 26.949219 10.132812 C 26.835938 10.421875 26.554688 10.488281 26.21875 10.4375 L 26.453125 11.136719 C 26.46875 11.191406 26.496094 11.222656 26.539062 11.238281 L 26.523438 11.277344 L 25.75 10.964844 L 25.765625 10.925781 C 25.820312 10.945312 25.855469 10.941406 25.867188 10.902344 C 25.878906 10.875 25.65625 10.277344 25.632812 10.191406 L 25.269531 10.042969 Z M 25.0625 10.578125 "/>
<path style=" stroke:none;fill-rule:nonzero;fill:rgb(0%,17.647059%,38.431373%);fill-opacity:1;" d="M 32.578125 22.472656 L 32.578125 22.519531 L 32.445312 22.519531 L 32.445312 22.878906 L 32.394531 22.878906 L 32.394531 22.519531 L 32.265625 22.519531 L 32.265625 22.472656 Z M 32.578125 22.472656 "/>
<path style=" stroke:none;fill-rule:nonzero;fill:rgb(0%,17.647059%,38.431373%);fill-opacity:1;" d="M 32.625 22.878906 L 32.625 22.472656 L 32.699219 22.472656 L 32.8125 22.820312 L 32.929688 22.472656 L 33 22.472656 L 33 22.878906 L 32.949219 22.878906 L 32.949219 22.550781 L 32.839844 22.878906 L 32.789062 22.878906 L 32.679688 22.550781 L 32.679688 22.878906 Z M 32.625 22.878906 "/>
</g>
</svg>
