<?xml version="1.0" encoding="UTF-8"?>
<svg xmlns="http://www.w3.org/2000/svg" xmlns:xlink="http://www.w3.org/1999/xlink" width="27pt" height="23pt" viewBox="0 0 27 23" version="1.1">
<g id="surface1">
<path style=" stroke:none;fill-rule:nonzero;fill:rgb(74.509804%,75.294118%,76.078431%);fill-opacity:1;" d="M 22.542969 3.175781 C 20.875 1.136719 18.472656 0.0117188 15.777344 0.0078125 L 5 0 L 0 22.996094 L 9.199219 23.003906 L 10.519531 17.4375 C 11.757812 17.4375 15.003906 17.441406 15 17.441406 C 18.082031 17.460938 20.613281 16.40625 22.3125 14.382812 C 25.40625 10.980469 24.863281 6.003906 22.542969 3.175781 "/>
<path style=" stroke:none;fill-rule:nonzero;fill:rgb(0%,17.647059%,38.431373%);fill-opacity:1;" d="M 10.050781 16.832031 L 8.730469 22.398438 L 0.742188 22.390625 L 5.480469 0.605469 L 15.777344 0.613281 C 18.339844 0.617188 20.535156 1.667969 22.085938 3.5625 C 24.367188 6.347656 24.589844 10.980469 21.859375 13.992188 C 20.183594 15.980469 17.726562 16.851562 15.007812 16.832031 L 10.050781 16.832031 "/>
<path style=" stroke:none;fill-rule:nonzero;fill:rgb(100%,77.254902%,14.901961%);fill-opacity:1;" d="M 4.421875 5.449219 L 8.933594 5.449219 C 9.453125 5.449219 10.003906 5.890625 9.765625 6.558594 C 9.617188 6.96875 9.503906 7.445312 9.453125 7.894531 C 9.410156 8.246094 9.796875 8.464844 10.015625 8.464844 L 19.210938 8.472656 C 19.386719 8.472656 19.476562 8.421875 19.476562 8.339844 C 19.476562 8.257812 19.46875 7.949219 19.433594 7.730469 C 19.402344 7.527344 19.371094 7.488281 19.207031 7.488281 C 18.058594 7.488281 17.59375 6.972656 16.390625 6.1875 C 15.1875 5.40625 13.425781 4.953125 11.914062 4.953125 L 4.53125 4.949219 L 4.421875 5.449219 "/>
<path style=" stroke:none;fill-rule:nonzero;fill:rgb(100%,77.254902%,14.901961%);fill-opacity:1;" d="M 9.992188 11.472656 C 9.832031 11.125 9.683594 10.714844 9.59375 10.339844 C 9.480469 9.855469 9.078125 9.464844 8.386719 9.464844 L 3.550781 9.460938 L 3.667969 8.910156 L 19.351562 8.921875 C 19.507812 8.921875 19.476562 8.988281 19.464844 9.164062 C 19.457031 9.339844 19.417969 9.664062 19.390625 9.855469 C 19.367188 10.046875 19.210938 10 19.0625 10.003906 C 18.707031 10.011719 18.050781 10.097656 17.671875 10.386719 C 17.019531 10.882812 15.632812 11.75 14.855469 12 C 14.019531 12.269531 10.898438 13.238281 9.980469 11.457031 "/>
<path style=" stroke:none;fill-rule:nonzero;fill:rgb(100%,77.254902%,14.901961%);fill-opacity:1;" d="M 2.679688 13.457031 L 10.871094 13.464844 C 11.230469 13.464844 11.542969 13.550781 11.785156 13.753906 C 12.476562 14.332031 13.375 14.75 14.324219 15.03125 C 14.753906 15.15625 15.488281 14.992188 16.144531 14.617188 C 17.785156 13.679688 18.839844 11.894531 19.1875 10.746094 C 19.277344 10.445312 19.101562 10.472656 18.875 10.488281 C 18.183594 10.535156 17.457031 11.167969 16.503906 11.785156 C 15.546875 12.398438 13.601562 12.984375 11.757812 12.980469 L 2.785156 12.976562 L 2.679688 13.457031 "/>
<path style=" stroke:none;fill-rule:nonzero;fill:rgb(100%,77.254902%,14.901961%);fill-opacity:1;" d="M 14.695312 2.359375 C 14.808594 2.339844 15.226562 2.3125 15.453125 2.40625 C 17.007812 3.027344 18.484375 4.664062 19.097656 6.40625 C 19.214844 6.742188 19.246094 6.957031 19.097656 6.972656 C 18.382812 7.054688 18.050781 6.695312 17.210938 6.121094 C 16.375 5.546875 15.601562 5.15625 14.539062 4.8125 C 13.492188 4.476562 11.582031 4.425781 11.335938 4.417969 C 11.089844 4.410156 11.121094 4.304688 11.230469 4.199219 C 12.144531 3.273438 13.371094 2.605469 14.695312 2.359375 "/>
<path style=" stroke:none;fill-rule:nonzero;fill:rgb(100%,77.254902%,14.901961%);fill-opacity:1;" d="M 22.15625 8.332031 C 22.164062 8.398438 22.09375 8.476562 22.011719 8.476562 C 22.003906 8.476562 20.214844 8.472656 20.214844 8.472656 C 19.988281 8.472656 19.980469 8.363281 19.976562 8.230469 C 19.964844 8.097656 19.929688 7.832031 19.921875 7.671875 C 19.914062 7.519531 19.859375 7.34375 20.058594 7.257812 C 20.558594 7.042969 21.03125 6.550781 21.246094 6.125 C 21.320312 5.980469 21.425781 5.746094 21.550781 5.945312 C 21.976562 6.632812 22.105469 7.480469 22.15625 8.332031 "/>
<path style=" stroke:none;fill-rule:nonzero;fill:rgb(100%,77.254902%,14.901961%);fill-opacity:1;" d="M 21.515625 11.59375 C 21.488281 11.65625 21.371094 11.699219 21.332031 11.601562 C 21.070312 10.890625 20.453125 10.40625 20.023438 10.164062 C 19.890625 10.089844 19.882812 10.003906 19.898438 9.875 C 19.917969 9.746094 19.96875 9.335938 19.976562 9.160156 C 19.984375 9.023438 20.039062 8.921875 20.140625 8.921875 L 22.011719 8.921875 C 22.078125 8.921875 22.15625 8.984375 22.15625 9.035156 C 22.15625 9.9375 21.890625 10.828125 21.515625 11.59375 "/>
<path style=" stroke:none;fill-rule:nonzero;fill:rgb(100%,77.254902%,14.901961%);fill-opacity:1;" d="M 16.65625 15.144531 C 16.523438 15.164062 16.238281 15.117188 16.6875 14.851562 C 18.046875 14.050781 19.257812 12.175781 19.582031 11.101562 C 19.703125 10.691406 19.71875 10.667969 19.871094 10.710938 C 20.078125 10.773438 20.40625 11.058594 20.660156 11.410156 C 20.910156 11.757812 21.019531 12.441406 20.875 12.636719 C 19.894531 13.960938 18.347656 14.894531 16.65625 15.144531 "/>
<path style=" stroke:none;fill-rule:nonzero;fill:rgb(100%,77.254902%,14.901961%);fill-opacity:1;" d="M 20.109375 6.65625 C 19.792969 6.828125 19.734375 6.796875 19.667969 6.558594 C 19.074219 4.460938 17.335938 2.910156 16.621094 2.453125 C 16.488281 2.367188 16.523438 2.308594 16.621094 2.320312 C 18.324219 2.550781 19.996094 3.492188 20.835938 4.777344 C 21.3125 5.515625 20.414062 6.492188 20.109375 6.65625 "/>
<path style=" stroke:none;fill-rule:nonzero;fill:rgb(0%,17.647059%,38.431373%);fill-opacity:1;" d="M 12.945312 19.222656 C 12.921875 19.308594 12.605469 20.664062 12.585938 20.734375 C 12.523438 20.734375 11.847656 20.734375 11.746094 20.734375 C 11.769531 20.628906 12.082031 19.292969 12.097656 19.222656 C 12.164062 19.222656 12.839844 19.222656 12.945312 19.222656 M 11.554688 18.609375 L 10.53125 22.960938 L 11.222656 22.960938 C 11.222656 22.960938 11.582031 21.417969 11.601562 21.347656 C 11.671875 21.347656 12.703125 21.347656 12.703125 21.347656 C 12.96875 21.347656 13.171875 21.183594 13.234375 20.921875 L 13.671875 19.054688 C 13.683594 19.011719 13.6875 18.972656 13.6875 18.933594 C 13.6875 18.859375 13.667969 18.792969 13.625 18.742188 C 13.558594 18.65625 13.445312 18.609375 13.296875 18.609375 Z M 11.554688 18.609375 "/>
<path style=" stroke:none;fill-rule:nonzero;fill:rgb(0%,17.647059%,38.431373%);fill-opacity:1;" d="M 12.945312 19.222656 C 12.921875 19.308594 12.605469 20.664062 12.585938 20.734375 C 12.523438 20.734375 11.847656 20.734375 11.746094 20.734375 C 11.769531 20.628906 12.082031 19.292969 12.097656 19.222656 C 12.164062 19.222656 12.839844 19.222656 12.945312 19.222656 Z M 11.554688 18.609375 L 10.53125 22.960938 L 11.222656 22.960938 C 11.222656 22.960938 11.582031 21.417969 11.601562 21.347656 C 11.671875 21.347656 12.703125 21.347656 12.703125 21.347656 C 12.96875 21.347656 13.171875 21.183594 13.234375 20.921875 L 13.671875 19.054688 C 13.683594 19.011719 13.6875 18.972656 13.6875 18.933594 C 13.6875 18.859375 13.667969 18.792969 13.625 18.742188 C 13.558594 18.65625 13.445312 18.609375 13.296875 18.609375 Z M 11.554688 18.609375 "/>
<path style=" stroke:none;fill-rule:nonzero;fill:rgb(0%,17.647059%,38.431373%);fill-opacity:1;" d="M 15.214844 21.417969 C 15.191406 21.511719 15.003906 22.316406 14.988281 22.382812 C 14.925781 22.382812 14.328125 22.382812 14.226562 22.382812 C 14.25 22.285156 14.441406 21.480469 14.457031 21.417969 C 14.519531 21.417969 15.113281 21.417969 15.214844 21.417969 M 14.667969 19.460938 C 14.402344 19.460938 14.230469 19.597656 14.171875 19.855469 L 13.992188 20.628906 L 14.664062 20.628906 C 14.664062 20.628906 14.78125 20.117188 14.796875 20.050781 C 14.863281 20.050781 15.433594 20.050781 15.535156 20.050781 C 15.511719 20.148438 15.367188 20.757812 15.355469 20.820312 C 15.285156 20.820312 14.375 20.820312 14.375 20.820312 C 14.078125 20.820312 13.882812 20.988281 13.808594 21.304688 L 13.511719 22.570312 C 13.503906 22.601562 13.5 22.632812 13.5 22.664062 C 13.5 22.738281 13.519531 22.804688 13.5625 22.859375 C 13.628906 22.941406 13.738281 22.988281 13.867188 22.988281 C 13.871094 22.988281 13.886719 22.988281 13.886719 22.988281 C 14.128906 22.96875 14.65625 22.929688 14.863281 22.90625 C 14.863281 22.917969 14.851562 22.960938 14.851562 22.960938 L 15.523438 22.960938 L 16.25 19.878906 C 16.277344 19.746094 16.269531 19.640625 16.210938 19.566406 C 16.152344 19.496094 16.058594 19.460938 15.929688 19.460938 Z M 14.667969 19.460938 "/>
<path style=" stroke:none;fill-rule:nonzero;fill:rgb(0%,17.647059%,38.431373%);fill-opacity:1;" d="M 15.214844 21.417969 C 15.191406 21.511719 15.003906 22.316406 14.988281 22.382812 C 14.925781 22.382812 14.328125 22.382812 14.226562 22.382812 C 14.25 22.285156 14.441406 21.480469 14.457031 21.417969 C 14.519531 21.417969 15.113281 21.417969 15.214844 21.417969 Z M 14.667969 19.460938 C 14.402344 19.460938 14.230469 19.597656 14.171875 19.855469 L 13.992188 20.628906 L 14.664062 20.628906 C 14.664062 20.628906 14.78125 20.117188 14.796875 20.050781 C 14.863281 20.050781 15.433594 20.050781 15.535156 20.050781 C 15.511719 20.148438 15.367188 20.757812 15.355469 20.820312 C 15.285156 20.820312 14.375 20.820312 14.375 20.820312 C 14.078125 20.820312 13.882812 20.988281 13.808594 21.304688 L 13.511719 22.570312 C 13.503906 22.601562 13.5 22.632812 13.5 22.664062 C 13.5 22.738281 13.519531 22.804688 13.5625 22.859375 C 13.628906 22.941406 13.738281 22.988281 13.867188 22.988281 C 13.871094 22.988281 13.886719 22.988281 13.886719 22.988281 C 14.128906 22.96875 14.65625 22.929688 14.863281 22.90625 C 14.863281 22.917969 14.851562 22.960938 14.851562 22.960938 L 15.523438 22.960938 L 16.25 19.878906 C 16.277344 19.746094 16.269531 19.640625 16.210938 19.566406 C 16.152344 19.496094 16.058594 19.460938 15.929688 19.460938 Z M 14.667969 19.460938 "/>
<path style=" stroke:none;fill-rule:nonzero;fill:rgb(0%,17.647059%,38.431373%);fill-opacity:1;" d="M 17.488281 19.460938 C 17.230469 19.460938 17.0625 19.597656 17 19.855469 L 16.371094 22.542969 C 16.339844 22.675781 16.347656 22.78125 16.410156 22.855469 C 16.460938 22.925781 16.558594 22.960938 16.6875 22.960938 L 17.929688 22.960938 C 18.191406 22.960938 18.355469 22.828125 18.417969 22.566406 L 18.660156 21.519531 L 18 21.519531 C 18 21.519531 17.816406 22.304688 17.800781 22.371094 C 17.734375 22.371094 17.183594 22.371094 17.082031 22.371094 C 17.109375 22.261719 17.609375 20.121094 17.628906 20.050781 C 17.691406 20.050781 18.246094 20.050781 18.34375 20.050781 C 18.320312 20.152344 18.210938 20.621094 18.210938 20.621094 L 18.871094 20.621094 L 19.046875 19.878906 C 19.078125 19.742188 19.066406 19.640625 19.011719 19.5625 C 18.957031 19.496094 18.863281 19.460938 18.730469 19.460938 L 17.488281 19.460938 "/>
<path style=" stroke:none;fill-rule:nonzero;fill:rgb(0%,17.647059%,38.431373%);fill-opacity:1;" d="M 17.488281 19.460938 C 17.230469 19.460938 17.0625 19.597656 17 19.855469 L 16.371094 22.542969 C 16.339844 22.675781 16.347656 22.78125 16.410156 22.855469 C 16.460938 22.925781 16.558594 22.960938 16.6875 22.960938 L 17.929688 22.960938 C 18.191406 22.960938 18.355469 22.828125 18.417969 22.566406 L 18.660156 21.519531 L 18 21.519531 C 18 21.519531 17.816406 22.304688 17.800781 22.371094 C 17.734375 22.371094 17.183594 22.371094 17.082031 22.371094 C 17.109375 22.261719 17.609375 20.121094 17.628906 20.050781 C 17.691406 20.050781 18.246094 20.050781 18.34375 20.050781 C 18.320312 20.152344 18.210938 20.621094 18.210938 20.621094 L 18.871094 20.621094 L 19.046875 19.878906 C 19.078125 19.742188 19.066406 19.640625 19.011719 19.5625 C 18.957031 19.496094 18.863281 19.460938 18.730469 19.460938 Z M 17.488281 19.460938 "/>
<path style=" stroke:none;fill-rule:nonzero;fill:rgb(0%,17.647059%,38.431373%);fill-opacity:1;" d="M 21.070312 20.050781 C 21.050781 20.140625 20.902344 20.765625 20.886719 20.828125 C 20.824219 20.828125 20.273438 20.828125 20.175781 20.828125 C 20.195312 20.738281 20.34375 20.113281 20.359375 20.050781 C 20.421875 20.050781 20.972656 20.050781 21.070312 20.050781 M 20.21875 19.460938 C 19.960938 19.460938 19.792969 19.597656 19.730469 19.855469 L 19.101562 22.542969 C 19.070312 22.675781 19.082031 22.78125 19.140625 22.855469 C 19.191406 22.925781 19.285156 22.960938 19.417969 22.960938 L 20.667969 22.960938 C 20.792969 22.960938 20.898438 22.929688 20.980469 22.863281 C 21.0625 22.796875 21.121094 22.699219 21.152344 22.566406 L 21.382812 21.585938 L 20.710938 21.585938 C 20.710938 21.585938 20.539062 22.304688 20.523438 22.371094 C 20.460938 22.371094 19.914062 22.371094 19.8125 22.371094 C 19.839844 22.265625 20.027344 21.460938 20.042969 21.394531 C 20.113281 21.394531 21.269531 21.394531 21.269531 21.394531 L 21.464844 21.238281 L 21.78125 19.878906 C 21.796875 19.832031 21.796875 19.785156 21.796875 19.746094 C 21.796875 19.671875 21.78125 19.613281 21.746094 19.5625 C 21.691406 19.496094 21.597656 19.460938 21.464844 19.460938 Z M 20.21875 19.460938 "/>
<path style=" stroke:none;fill-rule:nonzero;fill:rgb(0%,17.647059%,38.431373%);fill-opacity:1;" d="M 21.070312 20.050781 C 21.050781 20.140625 20.902344 20.765625 20.886719 20.828125 C 20.824219 20.828125 20.273438 20.828125 20.175781 20.828125 C 20.195312 20.738281 20.34375 20.113281 20.359375 20.050781 C 20.421875 20.050781 20.972656 20.050781 21.070312 20.050781 Z M 20.21875 19.460938 C 19.960938 19.460938 19.792969 19.597656 19.730469 19.855469 L 19.101562 22.542969 C 19.070312 22.675781 19.082031 22.78125 19.140625 22.855469 C 19.191406 22.925781 19.285156 22.960938 19.417969 22.960938 L 20.667969 22.960938 C 20.792969 22.960938 20.898438 22.929688 20.980469 22.863281 C 21.0625 22.796875 21.121094 22.699219 21.152344 22.566406 L 21.382812 21.585938 L 20.710938 21.585938 C 20.710938 21.585938 20.539062 22.304688 20.523438 22.371094 C 20.460938 22.371094 19.914062 22.371094 19.8125 22.371094 C 19.839844 22.265625 20.027344 21.460938 20.042969 21.394531 C 20.113281 21.394531 21.269531 21.394531 21.269531 21.394531 L 21.464844 21.238281 L 21.78125 19.878906 C 21.796875 19.832031 21.796875 19.785156 21.796875 19.746094 C 21.796875 19.671875 21.78125 19.613281 21.746094 19.5625 C 21.691406 19.496094 21.597656 19.460938 21.464844 19.460938 Z M 20.21875 19.460938 "/>
<path style=" stroke:none;fill-rule:nonzero;fill:rgb(0%,17.647059%,38.431373%);fill-opacity:1;" d="M 24.148438 19.429688 C 23.878906 19.460938 23.441406 19.515625 23.253906 19.542969 C 23.257812 19.535156 23.273438 19.460938 23.273438 19.460938 L 22.601562 19.460938 L 21.78125 22.960938 L 22.453125 22.960938 C 22.453125 22.960938 23.109375 20.171875 23.125 20.101562 C 23.1875 20.101562 23.695312 20.101562 23.792969 20.101562 C 23.769531 20.203125 23.683594 20.621094 23.683594 20.621094 L 24.359375 20.621094 L 24.527344 19.851562 C 24.558594 19.71875 24.546875 19.617188 24.492188 19.542969 C 24.429688 19.464844 24.324219 19.425781 24.175781 19.425781 C 24.167969 19.429688 24.148438 19.429688 24.148438 19.429688 "/>
<path style=" stroke:none;fill-rule:nonzero;fill:rgb(0%,17.647059%,38.431373%);fill-opacity:1;" d="M 24.148438 19.429688 C 23.878906 19.460938 23.441406 19.515625 23.253906 19.542969 C 23.257812 19.535156 23.273438 19.460938 23.273438 19.460938 L 22.601562 19.460938 L 21.78125 22.960938 L 22.453125 22.960938 C 22.453125 22.960938 23.109375 20.171875 23.125 20.101562 C 23.1875 20.101562 23.695312 20.101562 23.792969 20.101562 C 23.769531 20.203125 23.683594 20.621094 23.683594 20.621094 L 24.359375 20.621094 L 24.527344 19.851562 C 24.558594 19.71875 24.546875 19.617188 24.492188 19.542969 C 24.429688 19.464844 24.324219 19.425781 24.175781 19.425781 C 24.167969 19.429688 24.148438 19.429688 24.148438 19.429688 Z M 24.148438 19.429688 "/>
<path style=" stroke:none;fill-rule:nonzero;fill:rgb(0%,17.647059%,38.431373%);fill-opacity:1;" d="M 25.371094 19.460938 C 25.238281 19.460938 25 19.511719 24.921875 19.855469 L 24.722656 20.691406 C 24.714844 20.722656 24.707031 20.773438 24.707031 20.828125 C 24.707031 20.886719 24.71875 20.949219 24.757812 20.996094 C 24.761719 20.996094 24.761719 21 24.761719 21.003906 C 24.765625 21.003906 24.765625 21.003906 24.765625 21.007812 L 24.765625 21.003906 C 24.769531 21.011719 24.78125 21.019531 24.800781 21.03125 C 25.570312 21.5625 25.773438 21.710938 25.824219 21.753906 C 25.8125 21.804688 25.6875 22.347656 25.679688 22.371094 C 25.617188 22.371094 25.113281 22.371094 25.019531 22.371094 C 25.042969 22.265625 25.199219 21.601562 25.199219 21.601562 L 24.527344 21.601562 L 24.304688 22.542969 C 24.273438 22.679688 24.285156 22.789062 24.34375 22.859375 C 24.394531 22.925781 24.480469 22.960938 24.589844 22.960938 L 25.855469 22.960938 C 26.089844 22.960938 26.246094 22.824219 26.308594 22.5625 L 26.523438 21.648438 C 26.527344 21.621094 26.539062 21.574219 26.539062 21.519531 C 26.539062 21.445312 26.523438 21.355469 26.449219 21.277344 L 26.445312 21.273438 L 26.4375 21.269531 C 26.082031 21.035156 25.519531 20.660156 25.421875 20.585938 C 25.433594 20.53125 25.539062 20.09375 25.546875 20.050781 C 25.609375 20.050781 26.125 20.050781 26.226562 20.050781 C 26.203125 20.152344 26.09375 20.628906 26.09375 20.628906 L 26.765625 20.628906 L 26.9375 19.878906 C 26.96875 19.746094 26.953125 19.640625 26.898438 19.5625 C 26.859375 19.515625 26.785156 19.460938 26.644531 19.460938 L 25.371094 19.460938 "/>
<path style=" stroke:none;fill-rule:nonzero;fill:rgb(0%,17.647059%,38.431373%);fill-opacity:1;" d="M 25.371094 19.460938 C 25.238281 19.460938 25 19.511719 24.921875 19.855469 L 24.722656 20.691406 C 24.714844 20.722656 24.707031 20.773438 24.707031 20.828125 C 24.707031 20.886719 24.71875 20.949219 24.757812 20.996094 C 24.761719 20.996094 24.761719 21 24.761719 21.003906 C 24.765625 21.003906 24.765625 21.003906 24.765625 21.007812 L 24.765625 21.003906 C 24.769531 21.011719 24.78125 21.019531 24.800781 21.03125 C 25.570312 21.5625 25.773438 21.710938 25.824219 21.753906 C 25.8125 21.804688 25.6875 22.347656 25.679688 22.371094 C 25.617188 22.371094 25.113281 22.371094 25.019531 22.371094 C 25.042969 22.265625 25.199219 21.601562 25.199219 21.601562 L 24.527344 21.601562 L 24.304688 22.542969 C 24.273438 22.679688 24.285156 22.789062 24.34375 22.859375 C 24.394531 22.925781 24.480469 22.960938 24.589844 22.960938 L 25.855469 22.960938 C 26.089844 22.960938 26.246094 22.824219 26.308594 22.5625 L 26.523438 21.648438 C 26.527344 21.621094 26.539062 21.574219 26.539062 21.519531 C 26.539062 21.445312 26.523438 21.355469 26.449219 21.277344 L 26.445312 21.273438 L 26.4375 21.269531 C 26.082031 21.035156 25.519531 20.660156 25.421875 20.585938 C 25.433594 20.53125 25.539062 20.09375 25.546875 20.050781 C 25.609375 20.050781 26.125 20.050781 26.226562 20.050781 C 26.203125 20.152344 26.09375 20.628906 26.09375 20.628906 L 26.765625 20.628906 L 26.9375 19.878906 C 26.96875 19.746094 26.953125 19.640625 26.898438 19.5625 C 26.859375 19.515625 26.785156 19.460938 26.644531 19.460938 Z M 25.371094 19.460938 "/>
</g>
</svg>
