<?xml version="1.0" encoding="UTF-8"?>
<svg xmlns="http://www.w3.org/2000/svg" xmlns:xlink="http://www.w3.org/1999/xlink" width="19pt" height="23pt" viewBox="0 0 19 23" version="1.1">
<defs>
<clipPath id="clip1">
  <path d="M 3 19 L 5 19 L 5 22 L 3 22 Z M 3 19 "/>
</clipPath>
<clipPath id="clip2">
  <path d="M 4.074219 21.8125 L 4.136719 21.585938 L 3.800781 21.585938 L 4.421875 19.292969 L 3.921875 19.292969 L 4.042969 19.503906 L 3.417969 21.8125 Z M 4.074219 21.8125 "/>
</clipPath>
<linearGradient id="linear0" gradientUnits="userSpaceOnUse" x1="-162.7505" y1="467.88281" x2="-157.99719" y2="467.88281" gradientTransform="matrix(0,0.532412,0.538553,0,-248.058697,105.94306)">
<stop offset="0" style="stop-color:rgb(100%,100%,100%);stop-opacity:1;"/>
<stop offset="0.1461" style="stop-color:rgb(100%,100%,100%);stop-opacity:1;"/>
<stop offset="0.2818" style="stop-color:rgb(98.039216%,98.431373%,98.431373%);stop-opacity:1;"/>
<stop offset="0.4423" style="stop-color:rgb(92.54902%,93.72549%,94.509804%);stop-opacity:1;"/>
<stop offset="0.6148" style="stop-color:rgb(83.137255%,85.882353%,87.843137%);stop-opacity:1;"/>
<stop offset="0.7079" style="stop-color:rgb(76.862745%,80.784314%,83.137255%);stop-opacity:1;"/>
<stop offset="1" style="stop-color:rgb(76.862745%,80.784314%,83.137255%);stop-opacity:1;"/>
</linearGradient>
<clipPath id="clip3">
  <path d="M 4 19 L 7 19 L 7 22 L 4 22 Z M 4 19 "/>
</clipPath>
<clipPath id="clip4">
  <path d="M 5.847656 19.730469 L 5.59375 20.941406 L 5.402344 20.941406 Z M 5.640625 19.496094 L 4.765625 21.8125 L 5.089844 21.8125 L 5.316406 21.171875 L 5.550781 21.171875 L 5.410156 21.8125 L 5.746094 21.8125 L 6.214844 19.292969 L 5.535156 19.292969 Z M 5.640625 19.496094 "/>
</clipPath>
<linearGradient id="linear1" gradientUnits="userSpaceOnUse" x1="-162.7549" y1="470.18951" x2="-158.00211" y2="470.18951" gradientTransform="matrix(0,0.53246,0.538602,0,-247.756026,105.953707)">
<stop offset="0" style="stop-color:rgb(100%,100%,100%);stop-opacity:1;"/>
<stop offset="0.1461" style="stop-color:rgb(100%,100%,100%);stop-opacity:1;"/>
<stop offset="0.2818" style="stop-color:rgb(98.039216%,98.431373%,98.431373%);stop-opacity:1;"/>
<stop offset="0.4423" style="stop-color:rgb(92.54902%,93.72549%,94.509804%);stop-opacity:1;"/>
<stop offset="0.6148" style="stop-color:rgb(83.137255%,85.882353%,87.843137%);stop-opacity:1;"/>
<stop offset="0.7079" style="stop-color:rgb(76.862745%,80.784314%,83.137255%);stop-opacity:1;"/>
<stop offset="1" style="stop-color:rgb(76.862745%,80.784314%,83.137255%);stop-opacity:1;"/>
</linearGradient>
<clipPath id="clip5">
  <path d="M 6 19 L 8 19 L 8 22 L 6 22 Z M 6 19 "/>
</clipPath>
<clipPath id="clip6">
  <path d="M 6.332031 21.8125 L 7.1875 21.8125 L 7.25 21.585938 L 6.789062 21.585938 L 7.859375 19.292969 L 6.945312 19.292969 L 7.074219 19.511719 L 7.40625 19.511719 Z M 6.332031 21.8125 "/>
</clipPath>
<linearGradient id="linear2" gradientUnits="userSpaceOnUse" x1="-162.7588" y1="472.54691" x2="-158.0065" y2="472.54691" gradientTransform="matrix(0,0.532517,0.53866,0,-247.445802,105.964364)">
<stop offset="0" style="stop-color:rgb(100%,100%,100%);stop-opacity:1;"/>
<stop offset="0.1461" style="stop-color:rgb(100%,100%,100%);stop-opacity:1;"/>
<stop offset="0.2818" style="stop-color:rgb(98.039216%,98.431373%,98.431373%);stop-opacity:1;"/>
<stop offset="0.4423" style="stop-color:rgb(92.54902%,93.72549%,94.509804%);stop-opacity:1;"/>
<stop offset="0.6148" style="stop-color:rgb(83.137255%,85.882353%,87.843137%);stop-opacity:1;"/>
<stop offset="0.7079" style="stop-color:rgb(76.862745%,80.784314%,83.137255%);stop-opacity:1;"/>
<stop offset="1" style="stop-color:rgb(76.862745%,80.784314%,83.137255%);stop-opacity:1;"/>
</linearGradient>
<clipPath id="clip7">
  <path d="M 7 19 L 10 19 L 10 22 L 7 22 Z M 7 19 "/>
</clipPath>
<clipPath id="clip8">
  <path d="M 8.488281 19.292969 L 8.613281 19.503906 L 7.988281 21.8125 L 8.683594 21.8125 L 8.746094 21.585938 L 8.371094 21.585938 C 8.371094 21.585938 8.613281 20.691406 8.640625 20.585938 L 8.980469 20.585938 L 9.039062 20.359375 L 8.703125 20.359375 L 8.933594 19.511719 L 9.304688 19.511719 L 9.367188 19.292969 Z M 8.488281 19.292969 "/>
</clipPath>
<linearGradient id="linear3" gradientUnits="userSpaceOnUse" x1="-162.7588" y1="474.8652" x2="-158.0065" y2="474.8652" gradientTransform="matrix(0,0.532517,0.53866,0,-247.113331,105.964364)">
<stop offset="0" style="stop-color:rgb(100%,100%,100%);stop-opacity:1;"/>
<stop offset="0.1461" style="stop-color:rgb(100%,100%,100%);stop-opacity:1;"/>
<stop offset="0.2818" style="stop-color:rgb(98.039216%,98.431373%,98.431373%);stop-opacity:1;"/>
<stop offset="0.4423" style="stop-color:rgb(92.54902%,93.72549%,94.509804%);stop-opacity:1;"/>
<stop offset="0.6148" style="stop-color:rgb(83.137255%,85.882353%,87.843137%);stop-opacity:1;"/>
<stop offset="0.7079" style="stop-color:rgb(76.862745%,80.784314%,83.137255%);stop-opacity:1;"/>
<stop offset="1" style="stop-color:rgb(76.862745%,80.784314%,83.137255%);stop-opacity:1;"/>
</linearGradient>
<clipPath id="clip9">
  <path d="M 9 19 L 11 19 L 11 22 L 9 22 Z M 9 19 "/>
</clipPath>
<clipPath id="clip10">
  <path d="M 10.402344 19.5 C 10.402344 19.5 10.519531 19.488281 10.558594 19.503906 C 10.589844 19.519531 10.59375 19.550781 10.578125 19.613281 L 10.417969 20.199219 C 10.394531 20.285156 10.375 20.300781 10.359375 20.316406 C 10.339844 20.335938 10.292969 20.359375 10.195312 20.359375 L 10.167969 20.359375 Z M 10.523438 19.292969 L 9.953125 19.292969 L 10.078125 19.503906 L 9.453125 21.8125 L 9.773438 21.8125 C 9.773438 21.8125 10.074219 20.699219 10.105469 20.585938 L 10.132812 20.585938 C 10.195312 20.585938 10.238281 20.589844 10.261719 20.613281 C 10.285156 20.628906 10.292969 20.664062 10.277344 20.726562 L 9.980469 21.8125 L 10.300781 21.8125 L 10.589844 20.757812 C 10.617188 20.660156 10.636719 20.566406 10.570312 20.503906 C 10.546875 20.484375 10.515625 20.472656 10.515625 20.472656 C 10.515625 20.472656 10.542969 20.464844 10.589844 20.441406 C 10.617188 20.425781 10.648438 20.40625 10.671875 20.375 C 10.6875 20.351562 10.707031 20.328125 10.722656 20.265625 L 10.890625 19.644531 C 10.890625 19.644531 10.898438 19.625 10.898438 19.621094 C 10.921875 19.535156 10.945312 19.429688 10.84375 19.359375 C 10.75 19.292969 10.628906 19.292969 10.523438 19.292969 Z M 10.523438 19.292969 "/>
</clipPath>
<linearGradient id="linear4" gradientUnits="userSpaceOnUse" x1="-162.7632" y1="477.1055" x2="-158.0126" y2="477.1055" gradientTransform="matrix(0,0.532575,0.538718,0,-246.826935,105.976276)">
<stop offset="0" style="stop-color:rgb(100%,100%,100%);stop-opacity:1;"/>
<stop offset="0.1461" style="stop-color:rgb(100%,100%,100%);stop-opacity:1;"/>
<stop offset="0.2818" style="stop-color:rgb(98.039216%,98.431373%,98.431373%);stop-opacity:1;"/>
<stop offset="0.4423" style="stop-color:rgb(92.54902%,93.72549%,94.509804%);stop-opacity:1;"/>
<stop offset="0.6148" style="stop-color:rgb(83.137255%,85.882353%,87.843137%);stop-opacity:1;"/>
<stop offset="0.7079" style="stop-color:rgb(76.862745%,80.784314%,83.137255%);stop-opacity:1;"/>
<stop offset="1" style="stop-color:rgb(76.862745%,80.784314%,83.137255%);stop-opacity:1;"/>
</linearGradient>
<clipPath id="clip11">
  <path d="M 11 19 L 13 19 L 13 22 L 11 22 Z M 11 19 "/>
</clipPath>
<clipPath id="clip12">
  <path d="M 12.011719 19.292969 L 11.59375 19.292969 L 11.652344 19.398438 L 11.703125 19.488281 C 11.675781 19.53125 11.660156 19.582031 11.644531 19.628906 L 11.613281 19.746094 C 11.585938 19.851562 11.5625 19.953125 11.5625 20.039062 C 11.558594 20.121094 11.585938 20.226562 11.613281 20.300781 C 11.640625 20.371094 11.796875 20.757812 11.808594 20.8125 C 11.820312 20.867188 11.828125 20.90625 11.792969 21.046875 L 11.652344 21.550781 C 11.640625 21.609375 11.628906 21.640625 11.527344 21.640625 C 11.429688 21.640625 11.433594 21.601562 11.445312 21.550781 L 11.621094 20.914062 L 11.296875 20.914062 L 11.144531 21.472656 C 11.121094 21.5625 11.105469 21.65625 11.160156 21.726562 C 11.210938 21.796875 11.316406 21.828125 11.484375 21.828125 C 11.851562 21.828125 11.949219 21.660156 11.996094 21.476562 C 11.996094 21.476562 12.097656 21.113281 12.121094 21.023438 C 12.164062 20.863281 12.152344 20.792969 12.136719 20.707031 C 12.121094 20.621094 12.085938 20.546875 12.0625 20.484375 L 11.941406 20.183594 C 11.910156 20.097656 11.894531 20.039062 11.894531 19.964844 C 11.894531 19.886719 11.917969 19.804688 11.949219 19.699219 L 11.988281 19.554688 C 12 19.503906 12.011719 19.46875 12.117188 19.464844 C 12.160156 19.464844 12.183594 19.472656 12.195312 19.488281 C 12.207031 19.5 12.207031 19.519531 12.195312 19.554688 L 12.054688 20.066406 L 12.378906 20.066406 L 12.496094 19.636719 C 12.519531 19.550781 12.539062 19.453125 12.484375 19.378906 C 12.433594 19.3125 12.332031 19.28125 12.167969 19.28125 C 12.105469 19.28125 12.058594 19.285156 12.011719 19.292969 "/>
</clipPath>
<linearGradient id="linear5" gradientUnits="userSpaceOnUse" x1="-162.7773" y1="479.49219" x2="-158.0224" y2="479.49219" gradientTransform="matrix(0,0.532709,0.538854,0,-246.554586,106.003742)">
<stop offset="0" style="stop-color:rgb(100%,100%,100%);stop-opacity:1;"/>
<stop offset="0.1461" style="stop-color:rgb(100%,100%,100%);stop-opacity:1;"/>
<stop offset="0.2818" style="stop-color:rgb(98.039216%,98.431373%,98.431373%);stop-opacity:1;"/>
<stop offset="0.4423" style="stop-color:rgb(92.54902%,93.72549%,94.509804%);stop-opacity:1;"/>
<stop offset="0.6148" style="stop-color:rgb(83.137255%,85.882353%,87.843137%);stop-opacity:1;"/>
<stop offset="0.7079" style="stop-color:rgb(76.862745%,80.784314%,83.137255%);stop-opacity:1;"/>
<stop offset="1" style="stop-color:rgb(76.862745%,80.784314%,83.137255%);stop-opacity:1;"/>
</linearGradient>
<clipPath id="clip13">
  <path d="M 1 19 L 4 19 L 4 22 L 1 22 Z M 1 19 "/>
</clipPath>
<clipPath id="clip14">
  <path d="M 2.339844 20.585938 L 2.367188 20.585938 C 2.425781 20.585938 2.46875 20.589844 2.492188 20.613281 C 2.515625 20.628906 2.523438 20.664062 2.507812 20.726562 L 2.292969 21.523438 C 2.277344 21.566406 2.269531 21.585938 2.242188 21.601562 C 2.21875 21.613281 2.1875 21.617188 2.121094 21.617188 L 2.058594 21.617188 Z M 2.632812 19.5 C 2.632812 19.5 2.75 19.488281 2.789062 19.503906 C 2.824219 19.519531 2.824219 19.550781 2.808594 19.613281 L 2.648438 20.199219 C 2.625 20.285156 2.609375 20.300781 2.59375 20.316406 C 2.570312 20.335938 2.527344 20.359375 2.425781 20.359375 L 2.402344 20.359375 Z M 2.78125 19.292969 L 2.195312 19.292969 L 2.308594 19.503906 L 1.683594 21.8125 L 2.066406 21.8125 C 2.171875 21.8125 2.316406 21.824219 2.449219 21.75 C 2.585938 21.671875 2.609375 21.542969 2.632812 21.464844 L 2.824219 20.757812 C 2.851562 20.660156 2.875 20.566406 2.804688 20.503906 C 2.78125 20.484375 2.75 20.472656 2.75 20.472656 C 2.75 20.472656 2.78125 20.464844 2.824219 20.441406 C 2.851562 20.425781 2.878906 20.40625 2.90625 20.375 C 2.925781 20.351562 2.941406 20.328125 2.957031 20.265625 L 3.128906 19.625 C 3.132812 19.617188 3.136719 19.609375 3.136719 19.605469 C 3.160156 19.523438 3.175781 19.425781 3.082031 19.359375 C 2.992188 19.296875 2.871094 19.292969 2.796875 19.292969 C 2.792969 19.292969 2.785156 19.292969 2.78125 19.292969 "/>
</clipPath>
<linearGradient id="linear6" gradientUnits="userSpaceOnUse" x1="-162.75681" y1="465.71091" x2="-158.0034" y2="465.71091" gradientTransform="matrix(0,0.532488,0.538631,0,-248.417507,105.959658)">
<stop offset="0" style="stop-color:rgb(100%,100%,100%);stop-opacity:1;"/>
<stop offset="0.1461" style="stop-color:rgb(100%,100%,100%);stop-opacity:1;"/>
<stop offset="0.2818" style="stop-color:rgb(98.039216%,98.431373%,98.431373%);stop-opacity:1;"/>
<stop offset="0.4423" style="stop-color:rgb(92.54902%,93.72549%,94.509804%);stop-opacity:1;"/>
<stop offset="0.6148" style="stop-color:rgb(83.137255%,85.882353%,87.843137%);stop-opacity:1;"/>
<stop offset="0.7079" style="stop-color:rgb(76.862745%,80.784314%,83.137255%);stop-opacity:1;"/>
<stop offset="1" style="stop-color:rgb(76.862745%,80.784314%,83.137255%);stop-opacity:1;"/>
</linearGradient>
<clipPath id="clip15">
  <path d="M 10 16 L 12 16 L 12 19 L 10 19 Z M 10 16 "/>
</clipPath>
<clipPath id="clip16">
  <path d="M 11.085938 18.660156 L 10.75 18.660156 L 11.375 16.367188 L 10.875 16.363281 L 10.992188 16.578125 L 10.367188 18.886719 L 11.023438 18.886719 Z M 11.085938 18.660156 "/>
</clipPath>
<linearGradient id="linear7" gradientUnits="userSpaceOnUse" x1="-166.91409" y1="477.85059" x2="-162.15581" y2="477.85059" gradientTransform="matrix(0,0.52968,0.53579,0,-245.156234,104.772398)">
<stop offset="0" style="stop-color:rgb(100%,100%,100%);stop-opacity:1;"/>
<stop offset="0.1461" style="stop-color:rgb(100%,100%,100%);stop-opacity:1;"/>
<stop offset="0.2818" style="stop-color:rgb(98.039216%,98.431373%,98.431373%);stop-opacity:1;"/>
<stop offset="0.4423" style="stop-color:rgb(92.54902%,93.72549%,94.509804%);stop-opacity:1;"/>
<stop offset="0.6148" style="stop-color:rgb(83.137255%,85.882353%,87.843137%);stop-opacity:1;"/>
<stop offset="0.7079" style="stop-color:rgb(76.862745%,80.784314%,83.137255%);stop-opacity:1;"/>
<stop offset="1" style="stop-color:rgb(76.862745%,80.784314%,83.137255%);stop-opacity:1;"/>
</linearGradient>
<clipPath id="clip17">
  <path d="M 7 16 L 9 16 L 9 19 L 7 19 Z M 7 16 "/>
</clipPath>
<clipPath id="clip18">
  <path d="M 8.132812 16.804688 L 7.882812 18.015625 L 7.691406 18.015625 Z M 7.929688 16.570312 L 7.054688 18.882812 L 7.378906 18.886719 L 7.605469 18.246094 L 7.839844 18.246094 C 7.8125 18.371094 7.699219 18.886719 7.699219 18.886719 L 8.035156 18.886719 L 8.503906 16.367188 L 7.824219 16.367188 Z M 7.929688 16.570312 "/>
</clipPath>
<linearGradient id="linear8" gradientUnits="userSpaceOnUse" x1="-166.93851" y1="473.33011" x2="-162.187" y2="473.33011" gradientTransform="matrix(0,0.530083,0.536197,0,-246.016517,104.853272)">
<stop offset="0" style="stop-color:rgb(100%,100%,100%);stop-opacity:1;"/>
<stop offset="0.1461" style="stop-color:rgb(100%,100%,100%);stop-opacity:1;"/>
<stop offset="0.2818" style="stop-color:rgb(98.039216%,98.431373%,98.431373%);stop-opacity:1;"/>
<stop offset="0.4423" style="stop-color:rgb(92.54902%,93.72549%,94.509804%);stop-opacity:1;"/>
<stop offset="0.6148" style="stop-color:rgb(83.137255%,85.882353%,87.843137%);stop-opacity:1;"/>
<stop offset="0.7079" style="stop-color:rgb(76.862745%,80.784314%,83.137255%);stop-opacity:1;"/>
<stop offset="1" style="stop-color:rgb(76.862745%,80.784314%,83.137255%);stop-opacity:1;"/>
</linearGradient>
<clipPath id="clip19">
  <path d="M 5 16 L 7 16 L 7 19 L 5 19 Z M 5 16 "/>
</clipPath>
<clipPath id="clip20">
  <path d="M 6.363281 16.570312 C 6.363281 16.570312 6.476562 16.5625 6.515625 16.578125 C 6.550781 16.589844 6.554688 16.621094 6.535156 16.6875 L 6.378906 17.269531 C 6.355469 17.359375 6.335938 17.375 6.320312 17.390625 C 6.296875 17.410156 6.253906 17.433594 6.15625 17.433594 L 6.128906 17.433594 Z M 6.480469 16.367188 L 5.914062 16.367188 L 6.039062 16.578125 L 5.414062 18.886719 L 5.734375 18.886719 L 6.066406 17.65625 L 6.09375 17.65625 C 6.15625 17.65625 6.199219 17.664062 6.222656 17.683594 C 6.242188 17.703125 6.253906 17.738281 6.234375 17.800781 L 5.941406 18.886719 L 6.261719 18.886719 L 6.550781 17.828125 C 6.578125 17.730469 6.597656 17.640625 6.53125 17.578125 C 6.507812 17.554688 6.476562 17.546875 6.476562 17.546875 C 6.476562 17.546875 6.503906 17.539062 6.546875 17.515625 C 6.578125 17.5 6.605469 17.480469 6.628906 17.449219 C 6.648438 17.425781 6.664062 17.398438 6.683594 17.339844 L 6.851562 16.71875 C 6.851562 16.71875 6.855469 16.699219 6.859375 16.695312 C 6.882812 16.609375 6.90625 16.503906 6.804688 16.433594 C 6.714844 16.367188 6.597656 16.367188 6.492188 16.367188 C 6.488281 16.367188 6.484375 16.367188 6.480469 16.367188 "/>
</clipPath>
<linearGradient id="linear9" gradientUnits="userSpaceOnUse" x1="-166.8989" y1="470.89059" x2="-162.1456" y2="470.89059" gradientTransform="matrix(0,0.52947,0.535577,0,-246.039337,104.72981)">
<stop offset="0" style="stop-color:rgb(100%,100%,100%);stop-opacity:1;"/>
<stop offset="0.1461" style="stop-color:rgb(100%,100%,100%);stop-opacity:1;"/>
<stop offset="0.2818" style="stop-color:rgb(98.039216%,98.431373%,98.431373%);stop-opacity:1;"/>
<stop offset="0.4423" style="stop-color:rgb(92.54902%,93.72549%,94.509804%);stop-opacity:1;"/>
<stop offset="0.6148" style="stop-color:rgb(83.137255%,85.882353%,87.843137%);stop-opacity:1;"/>
<stop offset="0.7079" style="stop-color:rgb(76.862745%,80.784314%,83.137255%);stop-opacity:1;"/>
<stop offset="1" style="stop-color:rgb(76.862745%,80.784314%,83.137255%);stop-opacity:1;"/>
</linearGradient>
<clipPath id="clip21">
  <path d="M 8 16 L 10 16 L 10 19 L 8 19 Z M 8 16 "/>
</clipPath>
<clipPath id="clip22">
  <path d="M 9.964844 16.367188 L 9.46875 16.363281 L 9.585938 16.578125 L 8.960938 18.886719 L 9.285156 18.886719 Z M 9.964844 16.367188 "/>
</clipPath>
<linearGradient id="linear10" gradientUnits="userSpaceOnUse" x1="-166.91409" y1="475.7764" x2="-162.15581" y2="475.7764" gradientTransform="matrix(0,0.52968,0.53579,0,-245.451975,104.772398)">
<stop offset="0" style="stop-color:rgb(100%,100%,100%);stop-opacity:1;"/>
<stop offset="0.1461" style="stop-color:rgb(100%,100%,100%);stop-opacity:1;"/>
<stop offset="0.2818" style="stop-color:rgb(98.039216%,98.431373%,98.431373%);stop-opacity:1;"/>
<stop offset="0.4423" style="stop-color:rgb(92.54902%,93.72549%,94.509804%);stop-opacity:1;"/>
<stop offset="0.6148" style="stop-color:rgb(83.137255%,85.882353%,87.843137%);stop-opacity:1;"/>
<stop offset="0.7079" style="stop-color:rgb(76.862745%,80.784314%,83.137255%);stop-opacity:1;"/>
<stop offset="1" style="stop-color:rgb(76.862745%,80.784314%,83.137255%);stop-opacity:1;"/>
</linearGradient>
<clipPath id="clip23">
  <path d="M 3 16 L 6 16 L 6 19 L 3 19 Z M 3 16 "/>
</clipPath>
<clipPath id="clip24">
  <path d="M 3.984375 18.886719 L 4.304688 18.886719 L 4.929688 16.585938 L 5.171875 16.585938 L 5.277344 16.367188 L 4.332031 16.367188 L 4.457031 16.585938 L 4.605469 16.585938 Z M 3.984375 18.886719 "/>
</clipPath>
<linearGradient id="linear11" gradientUnits="userSpaceOnUse" x1="-166.89841" y1="468.63281" x2="-162.1416" y2="468.63281" gradientTransform="matrix(0,0.529498,0.535606,0,-246.371187,104.734717)">
<stop offset="0" style="stop-color:rgb(100%,100%,100%);stop-opacity:1;"/>
<stop offset="0.1461" style="stop-color:rgb(100%,100%,100%);stop-opacity:1;"/>
<stop offset="0.2818" style="stop-color:rgb(98.039216%,98.431373%,98.431373%);stop-opacity:1;"/>
<stop offset="0.4423" style="stop-color:rgb(92.54902%,93.72549%,94.509804%);stop-opacity:1;"/>
<stop offset="0.6148" style="stop-color:rgb(83.137255%,85.882353%,87.843137%);stop-opacity:1;"/>
<stop offset="0.7079" style="stop-color:rgb(76.862745%,80.784314%,83.137255%);stop-opacity:1;"/>
<stop offset="1" style="stop-color:rgb(76.862745%,80.784314%,83.137255%);stop-opacity:1;"/>
</linearGradient>
</defs>
<g id="surface1">
<path style=" stroke:none;fill-rule:nonzero;fill:rgb(76.862745%,80.784314%,83.137255%);fill-opacity:1;" d="M 18.984375 0 L 6.257812 0 L 0 23 L 12.726562 23 Z M 18.984375 0 "/>
<path style=" stroke:none;fill-rule:nonzero;fill:rgb(13.72549%,12.156863%,12.54902%);fill-opacity:1;" d="M 18.367188 0.46875 L 12.363281 22.53125 L 0.621094 22.53125 L 6.621094 0.46875 Z M 18.367188 0.46875 "/>
<path style=" stroke:none;fill-rule:nonzero;fill:rgb(76.862745%,80.784314%,83.137255%);fill-opacity:1;" d="M 9.421875 11.207031 L 9.8125 10.820312 C 9.367188 10.683594 9.113281 10.378906 9.113281 9.992188 C 9.113281 9.789062 9.199219 9.609375 9.339844 9.480469 L 14.4375 4.4375 L 14.152344 4.4375 L 9.355469 8.710938 L 8.941406 9.078125 C 8.699219 9.308594 8.546875 9.632812 8.546875 9.992188 C 8.546875 10.074219 8.554688 10.15625 8.570312 10.238281 C 8.660156 10.6875 9.039062 11.074219 9.421875 11.207031 "/>
<path style=" stroke:none;fill-rule:nonzero;fill:rgb(76.862745%,80.784314%,83.137255%);fill-opacity:1;" d="M 8.828125 11.792969 L 9.214844 11.414062 C 8.617188 11.109375 8.285156 10.609375 8.285156 9.992188 C 8.285156 9.578125 8.449219 9.203125 8.722656 8.929688 L 13.261719 4.4375 L 13 4.4375 L 8.753906 8.144531 C 8.695312 8.191406 8.332031 8.519531 8.285156 8.578125 C 7.929688 8.945312 7.714844 9.445312 7.714844 9.992188 C 7.714844 10.089844 7.722656 10.183594 7.738281 10.277344 C 7.835938 10.941406 8.253906 11.5 8.828125 11.792969 "/>
<path style=" stroke:none;fill-rule:nonzero;fill:rgb(76.862745%,80.784314%,83.137255%);fill-opacity:1;" d="M 8.222656 12.390625 L 8.617188 12.003906 C 7.886719 11.5625 7.453125 10.839844 7.453125 9.992188 C 7.453125 9.367188 7.703125 8.796875 8.109375 8.375 L 12.089844 4.4375 L 11.847656 4.4375 L 8.148438 7.582031 C 8.03125 7.675781 7.71875 7.960938 7.621094 8.074219 C 7.164062 8.585938 6.886719 9.257812 6.886719 9.992188 C 6.886719 10.101562 6.894531 10.210938 6.90625 10.316406 C 7.007812 11.191406 7.511719 11.945312 8.222656 12.390625 "/>
<path style=" stroke:none;fill-rule:nonzero;fill:rgb(76.862745%,80.784314%,83.137255%);fill-opacity:1;" d="M 7.617188 12.992188 L 8.015625 12.597656 C 7.160156 12.011719 6.621094 11.070312 6.621094 9.992188 C 6.621094 9.152344 6.953125 8.390625 7.492188 7.824219 L 10.914062 4.4375 L 10.695312 4.4375 L 7.546875 7.015625 C 7.371094 7.15625 7.105469 7.402344 6.960938 7.574219 C 6.398438 8.222656 6.054688 9.070312 6.054688 9.992188 C 6.054688 10.117188 6.0625 10.238281 6.074219 10.359375 C 6.183594 11.445312 6.769531 12.390625 7.617188 12.992188 "/>
<path style=" stroke:none;fill-rule:nonzero;fill:rgb(76.862745%,80.784314%,83.137255%);fill-opacity:1;" d="M 5.242188 10.398438 C 5.359375 11.695312 6.027344 12.835938 7.011719 13.589844 L 7.417969 13.191406 C 6.429688 12.460938 5.792969 11.300781 5.792969 9.992188 C 5.792969 8.941406 6.203125 7.984375 6.878906 7.273438 L 9.738281 4.4375 L 9.542969 4.4375 L 6.945312 6.445312 C 6.710938 6.632812 6.496094 6.84375 6.300781 7.070312 C 5.628906 7.863281 5.222656 8.882812 5.222656 9.992188 C 5.222656 10.128906 5.230469 10.265625 5.242188 10.398438 "/>
<path style=" stroke:none;fill-rule:nonzero;fill:rgb(88.235294%,22.745098%,24.313725%);fill-opacity:1;" d="M 10.332031 8.855469 L 9.941406 9.242188 C 10.386719 9.378906 10.640625 9.683594 10.640625 10.070312 C 10.640625 10.273438 10.554688 10.453125 10.417969 10.582031 L 5.316406 15.628906 L 5.601562 15.628906 L 10.402344 11.351562 L 10.8125 10.984375 C 11.054688 10.753906 11.207031 10.429688 11.207031 10.070312 C 11.207031 9.984375 11.199219 9.90625 11.183594 9.828125 C 11.09375 9.371094 10.714844 8.988281 10.332031 8.855469 "/>
<path style=" stroke:none;fill-rule:nonzero;fill:rgb(88.235294%,22.745098%,24.313725%);fill-opacity:1;" d="M 10.925781 8.265625 L 10.539062 8.648438 C 11.140625 8.953125 11.472656 9.453125 11.472656 10.070312 C 11.472656 10.484375 11.304688 10.859375 11.03125 11.132812 L 6.492188 15.628906 L 6.753906 15.628906 L 11.003906 11.917969 C 11.0625 11.871094 11.425781 11.542969 11.472656 11.484375 C 11.824219 11.117188 12.039062 10.617188 12.039062 10.070312 C 12.039062 9.972656 12.03125 9.878906 12.015625 9.785156 C 11.917969 9.121094 11.5 8.5625 10.925781 8.265625 "/>
<path style=" stroke:none;fill-rule:nonzero;fill:rgb(88.235294%,22.745098%,24.313725%);fill-opacity:1;" d="M 11.53125 7.667969 L 11.140625 8.058594 C 11.867188 8.5 12.300781 9.222656 12.300781 10.070312 C 12.300781 10.695312 12.054688 11.265625 11.644531 11.6875 L 7.667969 15.628906 L 7.90625 15.628906 L 11.605469 12.480469 C 11.722656 12.386719 12.035156 12.101562 12.132812 11.988281 C 12.589844 11.476562 12.871094 10.804688 12.871094 10.070312 C 12.871094 9.960938 12.863281 9.851562 12.847656 9.746094 C 12.746094 8.871094 12.242188 8.117188 11.53125 7.667969 "/>
<path style=" stroke:none;fill-rule:nonzero;fill:rgb(88.235294%,22.745098%,24.313725%);fill-opacity:1;" d="M 12.136719 7.070312 L 11.738281 7.464844 C 12.597656 8.050781 13.132812 8.992188 13.132812 10.070312 C 13.132812 10.910156 12.800781 11.671875 12.261719 12.238281 L 8.839844 15.628906 L 9.058594 15.628906 L 12.207031 13.050781 C 12.382812 12.910156 12.648438 12.660156 12.792969 12.492188 C 13.355469 11.839844 13.699219 10.992188 13.699219 10.070312 C 13.699219 9.945312 13.695312 9.824219 13.679688 9.703125 C 13.570312 8.617188 12.984375 7.671875 12.136719 7.070312 "/>
<path style=" stroke:none;fill-rule:nonzero;fill:rgb(88.235294%,22.745098%,24.313725%);fill-opacity:1;" d="M 14.511719 9.664062 C 14.398438 8.367188 13.726562 7.226562 12.742188 6.472656 L 12.335938 6.871094 C 13.324219 7.601562 13.964844 8.761719 13.964844 10.070312 C 13.964844 11.121094 13.550781 12.078125 12.878906 12.789062 L 10.015625 15.628906 L 10.210938 15.628906 L 12.808594 13.613281 C 13.042969 13.429688 13.257812 13.21875 13.453125 12.992188 C 14.125 12.199219 14.53125 11.179688 14.53125 10.070312 C 14.53125 9.933594 14.523438 9.796875 14.511719 9.664062 "/>
<g clip-path="url(#clip1)" clip-rule="nonzero">
<g clip-path="url(#clip2)" clip-rule="nonzero">
<path style=" stroke:none;fill-rule:nonzero;fill:url(#linear0);" d="M 3.417969 19.292969 L 4.421875 19.292969 L 4.421875 21.8125 L 3.417969 21.8125 Z M 3.417969 19.292969 "/>
</g>
</g>
<g clip-path="url(#clip3)" clip-rule="nonzero">
<g clip-path="url(#clip4)" clip-rule="nonzero">
<path style=" stroke:none;fill-rule:nonzero;fill:url(#linear1);" d="M 4.765625 19.292969 L 6.214844 19.292969 L 6.214844 21.8125 L 4.765625 21.8125 Z M 4.765625 19.292969 "/>
</g>
</g>
<g clip-path="url(#clip5)" clip-rule="nonzero">
<g clip-path="url(#clip6)" clip-rule="nonzero">
<path style=" stroke:none;fill-rule:nonzero;fill:url(#linear2);" d="M 6.332031 19.292969 L 7.859375 19.292969 L 7.859375 21.8125 L 6.332031 21.8125 Z M 6.332031 19.292969 "/>
</g>
</g>
<g clip-path="url(#clip7)" clip-rule="nonzero">
<g clip-path="url(#clip8)" clip-rule="nonzero">
<path style=" stroke:none;fill-rule:nonzero;fill:url(#linear3);" d="M 7.988281 19.292969 L 9.367188 19.292969 L 9.367188 21.8125 L 7.988281 21.8125 Z M 7.988281 19.292969 "/>
</g>
</g>
<g clip-path="url(#clip9)" clip-rule="nonzero">
<g clip-path="url(#clip10)" clip-rule="nonzero">
<path style=" stroke:none;fill-rule:nonzero;fill:url(#linear4);" d="M 9.453125 19.292969 L 10.945312 19.292969 L 10.945312 21.8125 L 9.453125 21.8125 Z M 9.453125 19.292969 "/>
</g>
</g>
<g clip-path="url(#clip11)" clip-rule="nonzero">
<g clip-path="url(#clip12)" clip-rule="nonzero">
<path style=" stroke:none;fill-rule:nonzero;fill:url(#linear5);" d="M 11.105469 19.28125 L 12.539062 19.28125 L 12.539062 21.828125 L 11.105469 21.828125 Z M 11.105469 19.28125 "/>
</g>
</g>
<g clip-path="url(#clip13)" clip-rule="nonzero">
<g clip-path="url(#clip14)" clip-rule="nonzero">
<path style=" stroke:none;fill-rule:nonzero;fill:url(#linear6);" d="M 1.683594 19.292969 L 3.175781 19.292969 L 3.175781 21.824219 L 1.683594 21.824219 Z M 1.683594 19.292969 "/>
</g>
</g>
<g clip-path="url(#clip15)" clip-rule="nonzero">
<g clip-path="url(#clip16)" clip-rule="nonzero">
<path style=" stroke:none;fill-rule:nonzero;fill:url(#linear7);" d="M 10.367188 16.363281 L 11.375 16.363281 L 11.375 18.886719 L 10.367188 18.886719 Z M 10.367188 16.363281 "/>
</g>
</g>
<g clip-path="url(#clip17)" clip-rule="nonzero">
<g clip-path="url(#clip18)" clip-rule="nonzero">
<path style=" stroke:none;fill-rule:nonzero;fill:url(#linear8);" d="M 7.054688 16.367188 L 8.503906 16.367188 L 8.503906 18.886719 L 7.054688 18.886719 Z M 7.054688 16.367188 "/>
</g>
</g>
<g clip-path="url(#clip19)" clip-rule="nonzero">
<g clip-path="url(#clip20)" clip-rule="nonzero">
<path style=" stroke:none;fill-rule:nonzero;fill:url(#linear9);" d="M 5.414062 16.367188 L 6.90625 16.367188 L 6.90625 18.886719 L 5.414062 18.886719 Z M 5.414062 16.367188 "/>
</g>
</g>
<g clip-path="url(#clip21)" clip-rule="nonzero">
<g clip-path="url(#clip22)" clip-rule="nonzero">
<path style=" stroke:none;fill-rule:nonzero;fill:url(#linear10);" d="M 8.960938 16.363281 L 9.964844 16.363281 L 9.964844 18.886719 L 8.960938 18.886719 Z M 8.960938 16.363281 "/>
</g>
</g>
<g clip-path="url(#clip23)" clip-rule="nonzero">
<g clip-path="url(#clip24)" clip-rule="nonzero">
<path style=" stroke:none;fill-rule:nonzero;fill:url(#linear11);" d="M 3.984375 16.367188 L 5.277344 16.367188 L 5.277344 18.886719 L 3.984375 18.886719 Z M 3.984375 16.367188 "/>
</g>
</g>
<path style=" stroke:none;fill-rule:nonzero;fill:rgb(88.235294%,22.745098%,24.313725%);fill-opacity:1;" d="M 6.320312 17.390625 C 6.335938 17.375 6.355469 17.359375 6.378906 17.269531 L 6.539062 16.6875 C 6.554688 16.621094 6.550781 16.589844 6.515625 16.578125 C 6.476562 16.5625 6.363281 16.570312 6.363281 16.570312 C 6.363281 16.570312 6.363281 16.570312 6.363281 16.574219 C 6.375 16.574219 6.382812 16.574219 6.394531 16.578125 C 6.429688 16.589844 6.429688 16.621094 6.414062 16.6875 L 6.253906 17.269531 C 6.230469 17.359375 6.214844 17.375 6.195312 17.390625 C 6.183594 17.398438 6.132812 17.421875 6.132812 17.421875 L 6.128906 17.433594 L 6.15625 17.433594 C 6.253906 17.433594 6.296875 17.410156 6.320312 17.390625 M 3.859375 18.886719 L 3.984375 18.886719 L 4.605469 16.585938 L 4.484375 16.585938 Z M 5.472656 20.941406 L 5.597656 20.941406 L 5.847656 19.730469 L 5.558594 20.515625 Z M 7.054688 18.882812 L 7.929688 16.570312 L 7.824219 16.367188 L 7.699219 16.367188 L 7.804688 16.570312 L 6.929688 18.882812 Z M 4.457031 16.585938 L 4.332031 16.367188 L 4.207031 16.367188 L 4.335938 16.585938 Z M 5.414062 18.886719 L 6.039062 16.578125 L 5.914062 16.367188 L 5.792969 16.367188 L 5.914062 16.578125 L 5.285156 18.886719 Z M 6.222656 17.683594 C 6.199219 17.664062 6.15625 17.65625 6.09375 17.65625 L 6.066406 17.65625 C 6.066406 17.65625 6.066406 17.664062 6.066406 17.667969 C 6.078125 17.671875 6.089844 17.675781 6.101562 17.683594 C 6.121094 17.703125 6.128906 17.738281 6.109375 17.800781 L 5.816406 18.886719 L 5.941406 18.886719 L 6.234375 17.800781 C 6.253906 17.738281 6.242188 17.703125 6.222656 17.683594 M 11.613281 20.300781 C 11.582031 20.226562 11.558594 20.121094 11.5625 20.039062 C 11.5625 19.953125 11.585938 19.847656 11.613281 19.746094 L 11.644531 19.628906 C 11.65625 19.582031 11.675781 19.53125 11.703125 19.488281 L 11.59375 19.292969 L 11.46875 19.292969 L 11.578125 19.488281 C 11.550781 19.53125 11.53125 19.582031 11.519531 19.632812 L 11.488281 19.75 C 11.460938 19.851562 11.441406 19.953125 11.4375 20.039062 C 11.433594 20.121094 11.460938 20.226562 11.488281 20.300781 C 11.515625 20.375 11.675781 20.757812 11.683594 20.8125 C 11.695312 20.867188 11.707031 20.90625 11.667969 21.046875 L 11.53125 21.550781 C 11.519531 21.59375 11.511719 21.621094 11.46875 21.632812 C 11.484375 21.640625 11.503906 21.640625 11.53125 21.640625 C 11.628906 21.640625 11.640625 21.609375 11.65625 21.550781 L 11.792969 21.046875 C 11.828125 20.90625 11.820312 20.867188 11.808594 20.8125 C 11.796875 20.757812 11.640625 20.371094 11.613281 20.300781 M 7.574219 18.886719 L 7.699219 18.886719 L 7.839844 18.246094 L 7.714844 18.246094 Z M 8.960938 18.886719 L 9.585938 16.578125 L 9.46875 16.363281 L 9.34375 16.363281 L 9.464844 16.578125 L 8.835938 18.886719 Z M 12.105469 19.28125 C 12.085938 19.28125 12.0625 19.28125 12.042969 19.28125 C 11.988281 19.28125 11.9375 19.285156 11.894531 19.292969 L 12.011719 19.292969 C 12.039062 19.289062 12.074219 19.285156 12.105469 19.28125 M 10.875 16.363281 L 10.75 16.363281 L 10.867188 16.578125 L 10.246094 18.886719 L 10.367188 18.886719 L 10.992188 16.578125 Z M 10.558594 19.503906 C 10.519531 19.488281 10.402344 19.496094 10.402344 19.496094 L 10.402344 19.5 C 10.414062 19.5 10.425781 19.503906 10.433594 19.507812 C 10.46875 19.519531 10.46875 19.550781 10.453125 19.613281 L 10.292969 20.199219 C 10.269531 20.289062 10.253906 20.300781 10.234375 20.316406 C 10.222656 20.328125 10.203125 20.339844 10.171875 20.347656 C 10.171875 20.351562 10.167969 20.359375 10.167969 20.359375 L 10.195312 20.359375 C 10.292969 20.359375 10.339844 20.335938 10.359375 20.316406 C 10.375 20.300781 10.394531 20.285156 10.417969 20.199219 L 10.578125 19.613281 C 10.59375 19.550781 10.589844 19.519531 10.558594 19.503906 M 7.757812 18.015625 L 7.691406 18.015625 L 7.882812 18.015625 L 8.132812 16.804688 L 7.847656 17.59375 Z M 2.789062 19.503906 C 2.75 19.488281 2.632812 19.496094 2.632812 19.496094 L 2.632812 19.5 C 2.632812 19.5 2.65625 19.503906 2.664062 19.507812 C 2.699219 19.519531 2.703125 19.550781 2.683594 19.613281 L 2.527344 20.199219 C 2.5 20.289062 2.484375 20.300781 2.46875 20.316406 C 2.453125 20.328125 2.402344 20.347656 2.402344 20.347656 L 2.402344 20.359375 L 2.425781 20.359375 C 2.523438 20.359375 2.570312 20.335938 2.589844 20.316406 C 2.609375 20.300781 2.625 20.285156 2.648438 20.199219 L 2.808594 19.613281 C 2.824219 19.550781 2.824219 19.519531 2.789062 19.503906 M 12.058594 20.066406 L 12.195312 19.554688 C 12.207031 19.519531 12.207031 19.5 12.195312 19.488281 C 12.1875 19.472656 12.160156 19.464844 12.117188 19.464844 C 12.089844 19.464844 12.070312 19.46875 12.050781 19.472656 C 12.0625 19.476562 12.070312 19.480469 12.074219 19.488281 C 12.082031 19.5 12.082031 19.523438 12.070312 19.558594 L 11.933594 20.066406 Z M 10.132812 20.585938 L 10.105469 20.585938 L 10.105469 20.59375 C 10.105469 20.59375 10.128906 20.605469 10.136719 20.613281 C 10.160156 20.628906 10.167969 20.664062 10.152344 20.726562 L 9.855469 21.8125 L 9.980469 21.8125 L 10.277344 20.726562 C 10.292969 20.664062 10.285156 20.628906 10.261719 20.609375 C 10.238281 20.589844 10.195312 20.585938 10.132812 20.585938 M 8.488281 19.292969 L 8.367188 19.292969 L 8.488281 19.503906 L 7.863281 21.8125 L 8.5625 21.8125 L 7.988281 21.8125 L 8.613281 19.503906 Z M 11.160156 21.726562 C 11.105469 21.65625 11.121094 21.5625 11.144531 21.472656 L 11.296875 20.914062 L 11.171875 20.914062 L 11.019531 21.472656 C 10.996094 21.5625 10.980469 21.65625 11.035156 21.726562 C 11.085938 21.796875 11.191406 21.828125 11.359375 21.828125 C 11.382812 21.828125 11.402344 21.828125 11.425781 21.828125 C 11.289062 21.820312 11.203125 21.789062 11.160156 21.726562 M 10.078125 19.503906 L 9.953125 19.292969 L 9.832031 19.292969 L 9.953125 19.503906 L 9.328125 21.8125 L 9.453125 21.8125 Z M 7.070312 19.511719 L 6.945312 19.292969 L 6.824219 19.292969 L 6.949219 19.511719 Z M 7.28125 19.511719 L 6.210938 21.8125 L 6.332031 21.8125 L 7.40625 19.511719 Z M 1.683594 21.8125 L 2.308594 19.507812 L 2.195312 19.292969 L 2.070312 19.292969 L 2.1875 19.507812 L 1.5625 21.8125 Z M 2.367188 20.585938 L 2.339844 20.585938 L 2.335938 20.59375 C 2.335938 20.59375 2.363281 20.605469 2.371094 20.613281 C 2.390625 20.628906 2.402344 20.664062 2.382812 20.726562 L 2.167969 21.523438 C 2.15625 21.566406 2.144531 21.585938 2.121094 21.601562 C 2.105469 21.609375 2.058594 21.613281 2.058594 21.613281 L 2.058594 21.617188 L 2.117188 21.617188 C 2.1875 21.617188 2.21875 21.613281 2.242188 21.601562 C 2.269531 21.585938 2.28125 21.5625 2.292969 21.523438 L 2.507812 20.726562 C 2.523438 20.664062 2.515625 20.632812 2.492188 20.613281 C 2.46875 20.589844 2.425781 20.585938 2.367188 20.585938 M 3.921875 19.292969 L 3.800781 19.292969 L 3.917969 19.503906 L 3.292969 21.8125 L 3.417969 21.8125 L 4.042969 19.503906 Z M 4.765625 21.8125 L 5.640625 19.496094 L 5.535156 19.292969 L 5.410156 19.292969 L 5.515625 19.496094 L 4.640625 21.8125 Z M 5.410156 21.8125 L 5.550781 21.171875 L 5.425781 21.171875 L 5.285156 21.8125 Z M 5.410156 21.8125 "/>
<path style=" stroke:none;fill-rule:nonzero;fill:rgb(100%,100%,100%);fill-opacity:1;" d="M 11.035156 3.675781 L 10.671875 3.675781 L 11.324219 1.496094 L 11.144531 1.496094 L 10.996094 1.167969 L 12.097656 1.167969 L 12 1.496094 L 11.6875 1.496094 Z M 11.035156 3.675781 "/>
<path style=" stroke:none;fill-rule:nonzero;fill:rgb(100%,100%,100%);fill-opacity:1;" d="M 7.691406 1.167969 L 7.058594 1.167969 L 7.222656 1.472656 L 6.5625 3.675781 L 6.925781 3.675781 L 7.210938 2.714844 L 7.363281 2.714844 C 7.640625 2.714844 7.84375 2.542969 7.949219 2.199219 L 8.109375 1.65625 C 8.21875 1.289062 8.066406 1.167969 7.691406 1.167969 M 7.734375 1.707031 L 7.554688 2.300781 C 7.523438 2.414062 7.40625 2.414062 7.300781 2.414062 L 7.585938 1.464844 L 7.648438 1.464844 C 7.773438 1.464844 7.785156 1.53125 7.734375 1.707031 "/>
<path style=" stroke:none;fill-rule:nonzero;fill:rgb(100%,100%,100%);fill-opacity:1;" d="M 9.117188 1.117188 C 9.035156 1.117188 8.949219 1.132812 8.855469 1.167969 L 8.390625 1.167969 L 8.550781 1.46875 C 8.539062 1.488281 8.53125 1.515625 8.523438 1.542969 L 7.996094 3.304688 C 7.898438 3.632812 8.121094 3.726562 8.339844 3.726562 C 8.566406 3.726562 8.839844 3.632812 8.9375 3.304688 L 9.464844 1.542969 C 9.5625 1.214844 9.34375 1.117188 9.117188 1.117188 M 9.09375 1.574219 L 8.585938 3.269531 C 8.550781 3.398438 8.503906 3.425781 8.433594 3.425781 C 8.355469 3.425781 8.328125 3.398438 8.367188 3.269531 L 8.875 1.574219 C 8.910156 1.445312 8.957031 1.417969 9.03125 1.417969 C 9.105469 1.417969 9.132812 1.445312 9.09375 1.574219 "/>
<path style=" stroke:none;fill-rule:nonzero;fill:rgb(100%,100%,100%);fill-opacity:1;" d="M 10.4375 1.167969 L 9.714844 1.167969 L 9.875 1.464844 L 9.214844 3.675781 L 9.574219 3.675781 L 9.929688 2.476562 C 10.101562 2.46875 10.136719 2.53125 10.089844 2.679688 C 9.9375 3.1875 9.792969 3.675781 9.792969 3.675781 L 10.152344 3.675781 C 10.152344 3.675781 10.253906 3.328125 10.46875 2.601562 C 10.53125 2.375 10.40625 2.339844 10.40625 2.339844 C 10.585938 2.269531 10.59375 2.1875 10.648438 2.003906 L 10.769531 1.597656 C 10.867188 1.273438 10.726562 1.167969 10.4375 1.167969 M 10.417969 1.589844 L 10.273438 2.070312 C 10.246094 2.160156 10.195312 2.230469 10.070312 2.230469 L 10.003906 2.230469 L 10.234375 1.464844 L 10.320312 1.464844 C 10.398438 1.464844 10.445312 1.496094 10.417969 1.589844 "/>
<path style=" stroke:none;fill-rule:nonzero;fill:rgb(100%,100%,100%);fill-opacity:1;" d="M 11.789062 3.675781 L 12.609375 3.675781 L 12.707031 3.347656 L 12.25 3.347656 L 12.898438 1.167969 L 12.289062 1.167969 L 12.449219 1.46875 Z M 11.789062 3.675781 "/>
<path style=" stroke:none;fill-rule:nonzero;fill:rgb(100%,100%,100%);fill-opacity:1;" d="M 13.632812 1.167969 L 13.792969 1.464844 L 12.890625 3.675781 L 13.214844 3.675781 L 13.5 2.996094 L 13.753906 2.996094 L 13.617188 3.675781 L 13.984375 3.675781 L 14.457031 1.167969 Z M 13.816406 2.667969 L 13.628906 2.667969 L 14.03125 1.625 L 14.054688 1.625 Z M 13.816406 2.667969 "/>
<path style=" stroke:none;fill-rule:nonzero;fill:rgb(100%,100%,100%);fill-opacity:1;" d="M 15.613281 1.167969 L 14.820312 1.167969 L 14.980469 1.464844 L 14.320312 3.675781 L 14.617188 3.675781 L 15.246094 1.535156 L 15.261719 1.535156 L 14.902344 3.675781 L 15.433594 3.675781 L 16.183594 1.167969 L 15.886719 1.167969 L 15.257812 3.308594 L 15.246094 3.308594 Z M 15.613281 1.167969 "/>
<path style=" stroke:none;fill-rule:nonzero;fill:rgb(100%,100%,100%);fill-opacity:1;" d="M 17.042969 1.167969 L 16.355469 1.167969 L 16.515625 1.472656 L 15.859375 3.675781 L 16.371094 3.675781 C 16.652344 3.675781 16.863281 3.460938 16.9375 3.222656 L 17.382812 1.734375 C 17.511719 1.292969 17.398438 1.167969 17.042969 1.167969 M 17.042969 1.652344 L 16.585938 3.1875 C 16.535156 3.351562 16.484375 3.375 16.394531 3.375 L 16.308594 3.375 L 16.878906 1.464844 L 16.964844 1.464844 C 17.054688 1.464844 17.09375 1.492188 17.042969 1.652344 "/>
</g>
</svg>
