<?xml version="1.0" encoding="UTF-8"?>
<svg xmlns="http://www.w3.org/2000/svg" xmlns:xlink="http://www.w3.org/1999/xlink" width="43pt" height="23pt" viewBox="0 0 43 23" version="1.1">
<defs>
<clipPath id="clip1">
  <path d="M 15 5 L 25 5 L 25 18 L 15 18 Z M 15 5 "/>
</clipPath>
<clipPath id="clip2">
  <path d="M 21.339844 10.273438 L 19.710938 10.273438 L 20.925781 8.117188 L 20.925781 5.820312 L 19.664062 5.820312 L 18.996094 7.050781 L 18.882812 8.050781 L 17.109375 11.21875 L 17.40625 11.964844 L 18.511719 11.964844 L 18.007812 13.242188 L 17.066406 12.222656 L 17.175781 13.71875 L 15.546875 13.789062 L 16.84375 14.703125 L 15.917969 16.082031 L 17.410156 15.59375 L 18.023438 17.078125 L 18.492188 15.464844 L 20.15625 15.890625 L 19.082031 14.648438 L 20.402344 13.554688 L 19.039062 13.636719 L 20.515625 11.964844 L 22.457031 11.964844 L 24.605469 8.144531 L 24.605469 5.820312 L 23.398438 5.820312 L 22.703125 7.058594 L 22.582031 8.050781 Z M 21.339844 10.273438 "/>
</clipPath>
<clipPath id="clip3">
  <path d="M 15 5 L 25 5 L 25 18 L 15 18 Z M 15 5 "/>
</clipPath>
<clipPath id="clip4">
  <path d="M 21.339844 10.273438 L 19.710938 10.273438 L 20.925781 8.117188 L 20.925781 5.820312 L 19.664062 5.820312 L 18.996094 7.050781 L 18.882812 8.050781 L 17.109375 11.21875 L 17.40625 11.964844 L 18.511719 11.964844 L 18.007812 13.242188 L 17.066406 12.222656 L 17.175781 13.71875 L 15.546875 13.789062 L 16.84375 14.703125 L 15.917969 16.082031 L 17.410156 15.59375 L 18.023438 17.078125 L 18.492188 15.464844 L 20.15625 15.890625 L 19.082031 14.648438 L 20.402344 13.554688 L 19.039062 13.636719 L 20.515625 11.964844 L 22.457031 11.964844 L 24.605469 8.144531 L 24.605469 5.820312 L 23.398438 5.820312 L 22.703125 7.058594 L 22.582031 8.050781 Z M 21.339844 10.273438 "/>
</clipPath>
<clipPath id="clip5">
  <path d="M 24 5 L 32 5 L 32 13 L 24 13 Z M 24 5 "/>
</clipPath>
<clipPath id="clip6">
  <path d="M 29.332031 8.765625 L 26.894531 8.351562 L 27.050781 7.386719 L 29.488281 7.800781 C 29.597656 7.820312 29.667969 7.921875 29.648438 8.027344 L 29.558594 8.601562 C 29.542969 8.699219 29.460938 8.765625 29.367188 8.765625 C 29.355469 8.765625 29.34375 8.765625 29.332031 8.765625 M 24.9375 11.558594 L 26.304688 11.789062 L 26.6875 9.558594 L 28.449219 9.859375 L 29.128906 9.976562 C 29.234375 9.992188 29.308594 10.09375 29.289062 10.203125 L 29 11.882812 C 28.941406 12.234375 29.144531 12.257812 29.230469 12.277344 C 29.332031 12.292969 30.40625 12.484375 30.40625 12.484375 C 30.371094 12.449219 30.304688 12.328125 30.359375 12.085938 L 30.695312 10.113281 C 30.726562 9.921875 30.632812 9.75 30.46875 9.675781 C 30.699219 9.648438 30.804688 9.46875 30.835938 9.28125 L 30.867188 9.113281 L 31.160156 7.339844 C 31.207031 7.070312 31.023438 6.816406 30.753906 6.769531 L 25.890625 5.941406 Z M 24.9375 11.558594 "/>
</clipPath>
<clipPath id="clip7">
  <path d="M 24 5 L 32 5 L 32 13 L 24 13 Z M 24 5 "/>
</clipPath>
<clipPath id="clip8">
  <path d="M 29.332031 8.765625 L 26.894531 8.351562 L 27.050781 7.386719 L 29.488281 7.800781 C 29.597656 7.820312 29.667969 7.921875 29.648438 8.027344 L 29.558594 8.601562 C 29.542969 8.699219 29.460938 8.765625 29.367188 8.765625 C 29.355469 8.765625 29.34375 8.765625 29.332031 8.765625 M 24.9375 11.558594 L 26.304688 11.789062 L 26.6875 9.558594 L 28.449219 9.859375 L 29.128906 9.976562 C 29.234375 9.992188 29.308594 10.09375 29.289062 10.203125 L 29 11.882812 C 28.941406 12.234375 29.144531 12.257812 29.230469 12.277344 C 29.332031 12.292969 30.40625 12.484375 30.40625 12.484375 C 30.371094 12.449219 30.304688 12.328125 30.359375 12.085938 L 30.695312 10.113281 C 30.726562 9.921875 30.632812 9.75 30.46875 9.675781 C 30.699219 9.648438 30.804688 9.46875 30.835938 9.28125 L 30.867188 9.113281 L 31.160156 7.339844 C 31.207031 7.070312 31.023438 6.816406 30.753906 6.769531 L 25.890625 5.941406 Z M 24.9375 11.558594 "/>
</clipPath>
<clipPath id="clip9">
  <path d="M 11 6 L 18 6 L 18 13 L 11 13 Z M 11 6 "/>
</clipPath>
<clipPath id="clip10">
  <path d="M 13.207031 7.894531 L 15.636719 7.429688 C 15.746094 7.410156 15.847656 7.480469 15.871094 7.589844 L 15.980469 8.15625 C 16 8.265625 15.933594 8.371094 15.824219 8.390625 L 13.386719 8.851562 Z M 16.46875 6.023438 L 11.617188 6.945312 L 12.675781 12.539062 L 14.035156 12.28125 L 13.617188 10.058594 L 17.109375 9.394531 C 17.378906 9.34375 17.554688 9.085938 17.503906 8.8125 L 17.046875 6.417969 C 17 6.179688 16.792969 6.015625 16.558594 6.015625 C 16.527344 6.015625 16.496094 6.015625 16.46875 6.023438 "/>
</clipPath>
<clipPath id="clip11">
  <path d="M 11 6 L 18 6 L 18 13 L 11 13 Z M 11 6 "/>
</clipPath>
<clipPath id="clip12">
  <path d="M 13.207031 7.894531 L 15.636719 7.429688 C 15.746094 7.410156 15.847656 7.480469 15.871094 7.589844 L 15.980469 8.15625 C 16 8.265625 15.933594 8.371094 15.824219 8.390625 L 13.386719 8.851562 Z M 16.46875 6.023438 L 11.617188 6.945312 L 12.675781 12.539062 L 14.035156 12.28125 L 13.617188 10.058594 L 17.109375 9.394531 C 17.378906 9.34375 17.554688 9.085938 17.503906 8.8125 L 17.046875 6.417969 C 17 6.179688 16.792969 6.015625 16.558594 6.015625 C 16.527344 6.015625 16.496094 6.015625 16.46875 6.023438 "/>
</clipPath>
<clipPath id="clip13">
  <path d="M 31 7 L 38 7 L 38 15 L 31 15 Z M 31 7 "/>
</clipPath>
<clipPath id="clip14">
  <path d="M 32.871094 7.820312 L 32.175781 9.96875 L 32.117188 10.15625 C 32.03125 10.417969 32.171875 10.699219 32.433594 10.785156 L 33.984375 11.289062 L 35.46875 11.773438 C 35.578125 11.804688 35.625 11.9375 35.59375 12.042969 L 35.410156 12.605469 C 35.378906 12.707031 35.265625 12.765625 35.160156 12.730469 L 33.152344 12.074219 C 33.050781 12.042969 32.992188 11.929688 33.027344 11.824219 L 33.140625 11.46875 L 31.828125 11.042969 L 31.421875 12.292969 C 31.339844 12.554688 31.480469 12.835938 31.742188 12.917969 L 35.804688 14.242188 C 36.066406 14.328125 36.347656 14.1875 36.429688 13.925781 L 37.121094 11.789062 L 37.199219 11.554688 C 37.28125 11.292969 37.140625 11.011719 36.882812 10.929688 L 34.316406 10.09375 L 33.84375 9.941406 C 33.742188 9.90625 33.683594 9.792969 33.71875 9.6875 L 33.898438 9.132812 C 33.933594 9.03125 34.042969 8.972656 34.148438 9.007812 L 36.15625 9.660156 C 36.257812 9.695312 36.316406 9.808594 36.285156 9.910156 L 36.171875 10.226562 L 37.488281 10.65625 L 37.878906 9.453125 C 37.964844 9.191406 37.820312 8.914062 37.5625 8.828125 L 33.496094 7.503906 C 33.445312 7.488281 33.390625 7.480469 33.339844 7.480469 C 33.132812 7.480469 32.941406 7.613281 32.871094 7.820312 "/>
</clipPath>
<clipPath id="clip15">
  <path d="M 31 7 L 38 7 L 38 15 L 31 15 Z M 31 7 "/>
</clipPath>
<clipPath id="clip16">
  <path d="M 32.871094 7.820312 L 32.175781 9.96875 L 32.117188 10.15625 C 32.03125 10.417969 32.171875 10.699219 32.433594 10.785156 L 33.984375 11.289062 L 35.46875 11.773438 C 35.578125 11.804688 35.625 11.9375 35.59375 12.042969 L 35.410156 12.605469 C 35.378906 12.707031 35.265625 12.765625 35.160156 12.730469 L 33.152344 12.074219 C 33.050781 12.042969 32.992188 11.929688 33.027344 11.824219 L 33.140625 11.46875 L 31.828125 11.042969 L 31.421875 12.292969 C 31.339844 12.554688 31.480469 12.835938 31.742188 12.917969 L 35.804688 14.242188 C 36.066406 14.328125 36.347656 14.1875 36.429688 13.925781 L 37.121094 11.789062 L 37.199219 11.554688 C 37.28125 11.292969 37.140625 11.011719 36.882812 10.929688 L 34.316406 10.09375 L 33.84375 9.941406 C 33.742188 9.90625 33.683594 9.792969 33.71875 9.6875 L 33.898438 9.132812 C 33.933594 9.03125 34.042969 8.972656 34.148438 9.007812 L 36.15625 9.660156 C 36.257812 9.695312 36.316406 9.808594 36.285156 9.910156 L 36.171875 10.226562 L 37.488281 10.65625 L 37.878906 9.453125 C 37.964844 9.191406 37.820312 8.914062 37.5625 8.828125 L 33.496094 7.503906 C 33.445312 7.488281 33.390625 7.480469 33.339844 7.480469 C 33.132812 7.480469 32.941406 7.613281 32.871094 7.820312 "/>
</clipPath>
<clipPath id="clip17">
  <path d="M 5 7 L 12 7 L 12 15 L 5 15 Z M 5 7 "/>
</clipPath>
<clipPath id="clip18">
  <path d="M 9.480469 7.527344 L 5.417969 8.851562 C 5.160156 8.9375 5.015625 9.21875 5.101562 9.476562 L 5.796875 11.625 L 5.859375 11.8125 C 5.941406 12.074219 6.222656 12.21875 6.480469 12.132812 L 8.03125 11.628906 L 9.519531 11.140625 C 9.621094 11.109375 9.738281 11.183594 9.773438 11.289062 L 9.957031 11.851562 C 9.988281 11.953125 9.933594 12.066406 9.828125 12.097656 L 7.820312 12.753906 C 7.71875 12.785156 7.605469 12.730469 7.570312 12.628906 L 7.457031 12.269531 L 6.140625 12.699219 L 6.546875 13.949219 C 6.632812 14.210938 6.914062 14.351562 7.171875 14.269531 L 11.238281 12.941406 C 11.496094 12.859375 11.636719 12.578125 11.554688 12.320312 L 10.863281 10.179688 L 10.785156 9.945312 C 10.703125 9.6875 10.421875 9.542969 10.164062 9.628906 L 7.597656 10.464844 L 7.128906 10.617188 C 7.023438 10.652344 6.914062 10.59375 6.878906 10.488281 L 6.699219 9.933594 C 6.664062 9.832031 6.722656 9.71875 6.824219 9.683594 L 8.835938 9.03125 C 8.9375 8.996094 9.050781 9.054688 9.082031 9.15625 L 9.1875 9.476562 L 10.496094 9.046875 L 10.105469 7.847656 C 10.039062 7.636719 9.84375 7.503906 9.636719 7.503906 C 9.585938 7.503906 9.535156 7.511719 9.480469 7.527344 "/>
</clipPath>
<clipPath id="clip19">
  <path d="M 5 7 L 12 7 L 12 15 L 5 15 Z M 5 7 "/>
</clipPath>
<clipPath id="clip20">
  <path d="M 9.480469 7.527344 L 5.417969 8.851562 C 5.160156 8.9375 5.015625 9.21875 5.101562 9.476562 L 5.796875 11.625 L 5.859375 11.8125 C 5.941406 12.074219 6.222656 12.21875 6.480469 12.132812 L 8.03125 11.628906 L 9.519531 11.140625 C 9.621094 11.109375 9.738281 11.183594 9.773438 11.289062 L 9.957031 11.851562 C 9.988281 11.953125 9.933594 12.066406 9.828125 12.097656 L 7.820312 12.753906 C 7.71875 12.785156 7.605469 12.730469 7.570312 12.628906 L 7.457031 12.269531 L 6.140625 12.699219 L 6.546875 13.949219 C 6.632812 14.210938 6.914062 14.351562 7.171875 14.269531 L 11.238281 12.941406 C 11.496094 12.859375 11.636719 12.578125 11.554688 12.320312 L 10.863281 10.179688 L 10.785156 9.945312 C 10.703125 9.6875 10.421875 9.542969 10.164062 9.628906 L 7.597656 10.464844 L 7.128906 10.617188 C 7.023438 10.652344 6.914062 10.59375 6.878906 10.488281 L 6.699219 9.933594 C 6.664062 9.832031 6.722656 9.71875 6.824219 9.683594 L 8.835938 9.03125 C 8.9375 8.996094 9.050781 9.054688 9.082031 9.15625 L 9.1875 9.476562 L 10.496094 9.046875 L 10.105469 7.847656 C 10.039062 7.636719 9.84375 7.503906 9.636719 7.503906 C 9.585938 7.503906 9.535156 7.511719 9.480469 7.527344 "/>
</clipPath>
</defs>
<g id="surface1">
<path style=" stroke:none;fill-rule:evenodd;fill:rgb(76.862745%,80.784314%,83.137255%);fill-opacity:1;" d="M 41.597656 7.554688 C 41.738281 7.074219 41.953125 6.328125 41.953125 6.328125 L 40.34375 5.671875 C 40.277344 5.644531 40.203125 5.617188 40.132812 5.589844 L 40.414062 4.773438 L 38.886719 4.277344 C 39.003906 3.871094 39.074219 3.628906 39.078125 3.621094 L 39.257812 3.007812 L 38.65625 2.804688 C 32.957031 0.863281 27.667969 0 21.5 0 C 15.332031 0 10.039062 0.863281 4.34375 2.800781 L 3.742188 3.007812 L 3.921875 3.621094 C 3.921875 3.628906 3.992188 3.871094 4.113281 4.277344 L 2.585938 4.773438 L 2.863281 5.589844 C 2.796875 5.617188 2.726562 5.644531 2.65625 5.671875 L 1.042969 6.328125 C 1.042969 6.328125 1.261719 7.074219 1.402344 7.554688 C 0.949219 7.71875 0 8.058594 0 8.058594 L 3.457031 18.628906 C 3.457031 18.628906 4.378906 18.300781 4.886719 18.113281 C 5.09375 18.664062 5.347656 19.328125 5.347656 19.328125 L 7.175781 18.574219 C 7.234375 18.546875 7.292969 18.527344 7.351562 18.503906 L 7.539062 19.101562 L 8.210938 18.804688 C 8.757812 18.566406 10.433594 17.882812 12.722656 17.277344 C 11.910156 18.492188 11.046875 19.78125 11.046875 19.78125 C 11.046875 19.78125 15.808594 18.21875 16.28125 18.066406 C 16.449219 18.476562 18.355469 23.074219 18.355469 23.074219 C 18.355469 23.074219 19.738281 18.320312 19.863281 17.878906 C 20.25 17.976562 25.832031 19.417969 25.832031 19.417969 C 25.832031 19.417969 24.25 17.582031 23.082031 16.234375 C 28.464844 16.277344 33.332031 18.175781 34.789062 18.804688 L 35.460938 19.09375 L 35.648438 18.503906 C 35.707031 18.527344 35.761719 18.550781 35.820312 18.574219 L 37.648438 19.328125 C 37.648438 19.328125 37.902344 18.664062 38.113281 18.113281 C 38.621094 18.300781 39.539062 18.628906 39.539062 18.628906 L 43 8.058594 C 43 8.058594 42.050781 7.71875 41.597656 7.554688 "/>
<path style=" stroke:none;fill-rule:evenodd;fill:rgb(3.921569%,10.588235%,13.72549%);fill-opacity:1;" d="M 40.738281 7.992188 C 40.753906 7.945312 41.101562 6.742188 41.101562 6.742188 L 40.078125 6.324219 C 39.816406 6.21875 39.550781 6.113281 39.289062 6.011719 L 39.566406 5.195312 L 38.0625 4.710938 C 38.300781 3.921875 38.441406 3.433594 38.441406 3.433594 C 33.191406 1.648438 28.007812 0.667969 21.5 0.667969 C 14.988281 0.667969 9.804688 1.648438 4.558594 3.433594 C 4.558594 3.433594 4.699219 3.921875 4.933594 4.710938 L 3.433594 5.195312 L 3.710938 6.011719 C 3.445312 6.113281 3.179688 6.21875 2.917969 6.324219 L 1.894531 6.742188 C 1.894531 6.742188 2.246094 7.945312 2.257812 7.992188 C 2.175781 8.023438 0.878906 8.492188 0.878906 8.492188 L 3.898438 17.722656 C 3.898438 17.722656 5.238281 17.238281 5.296875 17.21875 C 5.296875 17.21875 5.746094 18.40625 5.746094 18.40625 L 6.910156 17.921875 C 7.191406 17.804688 7.472656 17.695312 7.753906 17.585938 C 7.855469 17.910156 7.925781 18.125 7.949219 18.191406 C 8.609375 17.910156 10.964844 16.941406 14.085938 16.265625 C 13.367188 17.332031 12.433594 18.730469 12.433594 18.730469 C 12.433594 18.730469 16.535156 17.382812 16.601562 17.363281 C 16.632812 17.4375 18.261719 21.371094 18.261719 21.371094 C 18.261719 21.371094 19.453125 17.273438 19.476562 17.191406 C 19.578125 17.214844 24.21875 18.414062 24.21875 18.414062 C 24.21875 18.414062 22.691406 16.648438 21.78125 15.59375 C 28.09375 15.285156 33.933594 17.714844 35.050781 18.191406 C 35.074219 18.125 35.140625 17.910156 35.246094 17.585938 C 35.527344 17.695312 35.804688 17.804688 36.089844 17.925781 L 37.25 18.40625 L 37.699219 17.21875 C 37.757812 17.238281 39.097656 17.722656 39.097656 17.722656 L 42.117188 8.492188 C 42.117188 8.492188 40.820312 8.023438 40.738281 7.992188 "/>
<path style=" stroke:none;fill-rule:evenodd;fill:rgb(100%,100%,100%);fill-opacity:1;" d="M 39.46875 8.640625 C 39.46875 8.640625 39.773438 7.601562 39.84375 7.351562 C 39.769531 7.320312 39.691406 7.289062 39.691406 7.289062 C 34.085938 5.007812 27.632812 3.753906 21.523438 3.753906 C 15.382812 3.753906 8.914062 5.007812 3.308594 7.289062 C 3.308594 7.289062 3.230469 7.320312 3.15625 7.351562 C 3.226562 7.601562 3.527344 8.640625 3.527344 8.640625 C 3.527344 8.640625 2.441406 9.03125 2.179688 9.125 C 2.285156 9.453125 4.441406 16.035156 4.550781 16.382812 C 4.828125 16.285156 5.90625 15.894531 5.90625 15.894531 C 5.90625 15.894531 6.242188 16.777344 6.339844 17.035156 C 6.425781 16.996094 6.515625 16.960938 6.515625 16.960938 C 9.578125 15.695312 12.511719 14.832031 15.460938 14.34375 C 15.84375 14.613281 16.152344 14.832031 16.152344 14.832031 C 16.152344 14.832031 14.855469 16.769531 14.6875 17.019531 C 14.976562 16.925781 17.125 16.21875 17.125 16.21875 C 17.125 16.21875 17.996094 18.320312 18.109375 18.59375 C 18.191406 18.308594 18.839844 16.074219 18.839844 16.074219 C 18.839844 16.074219 21.269531 16.699219 21.589844 16.78125 C 21.375 16.53125 19.800781 14.707031 19.800781 14.707031 C 19.800781 14.707031 20.285156 14.292969 20.796875 13.855469 C 21.03125 13.851562 21.261719 13.847656 21.5 13.847656 C 26.589844 13.847656 31.347656 14.835938 36.484375 16.964844 C 36.484375 16.964844 36.574219 16.996094 36.660156 17.035156 C 36.757812 16.777344 37.09375 15.894531 37.09375 15.894531 C 37.09375 15.894531 38.171875 16.285156 38.449219 16.382812 C 38.558594 16.035156 40.714844 9.453125 40.820312 9.125 C 40.554688 9.03125 39.46875 8.640625 39.46875 8.640625 "/>
<path style="fill:none;stroke-width:0.2662;stroke-linecap:butt;stroke-linejoin:miter;stroke:rgb(13.72549%,12.156863%,12.54902%);stroke-opacity:1;stroke-miterlimit:3.864;" d="M 225.290698 52.875957 C 225.290698 52.875957 226.991279 47.093348 227.383721 45.702043 C 226.969477 45.52813 226.53343 45.354217 226.53343 45.354217 C 195.247093 32.658565 159.229651 25.680304 125.130814 25.680304 C 90.857558 25.680304 54.752907 32.658565 23.46657 45.354217 C 23.46657 45.354217 23.030523 45.52813 22.616279 45.702043 C 23.008721 47.093348 24.6875 52.875957 24.6875 52.875957 C 24.6875 52.875957 18.626453 55.04987 17.165698 55.571609 C 17.75436 57.397696 29.789244 94.02813 30.399709 95.962913 C 31.947674 95.419435 37.965116 93.245522 37.965116 93.245522 C 37.965116 93.245522 39.840116 98.158565 40.385174 99.593348 C 40.864826 99.375957 41.366279 99.180304 41.366279 99.180304 C 58.459302 92.136826 74.832849 87.332478 91.293605 84.615087 C 93.430233 86.115087 95.152616 87.332478 95.152616 87.332478 C 95.152616 87.332478 87.914244 98.115087 86.976744 99.506391 C 88.590116 98.984652 100.581395 95.04987 100.581395 95.04987 C 100.581395 95.04987 105.443314 106.745522 106.075581 108.267261 C 106.53343 106.680304 110.152616 94.245522 110.152616 94.245522 C 110.152616 94.245522 123.713663 97.723783 125.501453 98.180304 C 124.302326 96.789 115.515988 86.636826 115.515988 86.636826 C 115.515988 86.636826 118.219477 84.332478 121.075581 81.897696 C 122.383721 81.875957 123.670058 81.854217 125 81.854217 C 153.40843 81.854217 179.963663 87.354217 208.633721 99.202043 C 208.633721 99.202043 209.135174 99.375957 209.614826 99.593348 C 210.159884 98.158565 212.034884 93.245522 212.034884 93.245522 C 212.034884 93.245522 218.052326 95.419435 219.600291 95.962913 C 220.210756 94.02813 232.24564 57.397696 232.834302 55.571609 C 231.351744 55.04987 225.290698 52.875957 225.290698 52.875957 Z M 225.290698 52.875957 " transform="matrix(0.179167,0,0,0.179688,-0.895833,-0.860523)"/>
<path style=" stroke:none;fill-rule:evenodd;fill:rgb(100%,100%,100%);fill-opacity:1;" d="M 3.308594 7.289062 C 3.308594 7.289062 3.230469 7.320312 3.152344 7.351562 C 3.226562 7.601562 3.527344 8.640625 3.527344 8.640625 C 3.527344 8.640625 2.441406 9.03125 2.179688 9.125 C 2.285156 9.453125 4.441406 16.035156 4.550781 16.382812 C 4.828125 16.28125 5.90625 15.894531 5.90625 15.894531 C 5.90625 15.894531 6.242188 16.777344 6.335938 17.035156 C 6.425781 16.996094 6.515625 16.964844 6.515625 16.964844 C 11.648438 14.835938 16.410156 13.847656 21.5 13.847656 C 26.589844 13.847656 31.347656 14.835938 36.484375 16.964844 C 36.484375 16.964844 36.574219 16.996094 36.660156 17.035156 C 36.757812 16.777344 37.09375 15.894531 37.09375 15.894531 C 37.09375 15.894531 38.171875 16.28125 38.445312 16.382812 C 38.558594 16.035156 40.714844 9.453125 40.820312 9.125 C 40.554688 9.03125 39.46875 8.640625 39.46875 8.640625 C 39.46875 8.640625 39.773438 7.601562 39.84375 7.351562 C 39.769531 7.320312 39.691406 7.289062 39.691406 7.289062 C 34.085938 5.011719 27.632812 3.753906 21.523438 3.753906 C 15.382812 3.753906 8.914062 5.007812 3.308594 7.289062 "/>
<path style=" stroke:none;fill-rule:evenodd;fill:rgb(76.862745%,80.784314%,83.137255%);fill-opacity:1;" d="M 38.09375 15.660156 C 37.707031 15.519531 36.765625 15.179688 36.765625 15.179688 C 36.765625 15.179688 36.464844 15.96875 36.339844 16.300781 C 31.269531 14.25 26.542969 13.289062 21.5 13.289062 C 16.453125 13.289062 11.726562 14.25 6.660156 16.300781 C 6.53125 15.96875 6.230469 15.179688 6.230469 15.179688 C 6.230469 15.179688 5.289062 15.519531 4.90625 15.660156 C 4.699219 15.035156 3.074219 10.0625 2.878906 9.46875 C 3.261719 9.332031 4.210938 8.988281 4.210938 8.988281 C 4.210938 8.988281 3.941406 8.054688 3.835938 7.6875 C 9.300781 5.511719 15.566406 4.316406 21.523438 4.316406 C 27.449219 4.316406 33.699219 5.511719 39.164062 7.6875 C 39.058594 8.054688 38.785156 8.988281 38.785156 8.988281 C 38.785156 8.988281 39.738281 9.332031 40.117188 9.46875 C 39.925781 10.0625 38.296875 15.035156 38.09375 15.660156 "/>
<path style=" stroke:none;fill-rule:evenodd;fill:rgb(100%,100%,100%);fill-opacity:1;" d="M 30.859375 12.265625 L 31.710938 7.433594 C 31.710938 7.433594 31.726562 7.265625 31.726562 7.265625 C 31.730469 7.042969 31.660156 6.828125 31.53125 6.644531 C 31.371094 6.417969 31.125 6.261719 30.847656 6.214844 L 25.429688 5.296875 L 25.054688 7.527344 C 25.054688 7.527344 24.332031 11.804688 24.296875 12.019531 C 24.601562 12.070312 26.460938 12.382812 26.761719 12.4375 C 26.816406 12.121094 27.144531 10.207031 27.144531 10.207031 L 28.675781 10.464844 L 28.640625 10.65625 C 28.640625 10.65625 28.433594 11.9375 28.421875 12.019531 C 28.382812 12.320312 28.445312 12.40625 28.53125 12.535156 C 28.621094 12.667969 28.777344 12.757812 28.960938 12.8125 C 28.9375 12.804688 31.519531 13.4375 31.519531 13.4375 Z M 29.1875 8.453125 L 27.210938 8.121094 L 27.265625 7.777344 L 29.246094 8.109375 Z M 29.1875 8.453125 "/>
<path style=" stroke:none;fill-rule:evenodd;fill:rgb(100%,100%,100%);fill-opacity:1;" d="M 12.085938 12.144531 L 10.636719 7.671875 C 10.460938 7.117188 9.863281 6.8125 9.308594 6.992188 L 5.246094 8.316406 C 4.976562 8.40625 4.757812 8.589844 4.632812 8.84375 C 4.554688 8.996094 4.515625 9.15625 4.515625 9.324219 C 4.515625 9.433594 4.53125 9.542969 4.566406 9.652344 L 6.015625 14.121094 C 6.195312 14.679688 6.792969 14.980469 7.34375 14.800781 C 7.34375 14.800781 7.332031 14.808594 7.324219 14.808594 C 7.359375 14.796875 7.660156 14.699219 11.410156 13.476562 C 11.847656 13.335938 12.140625 12.929688 12.140625 12.46875 C 12.140625 12.359375 12.121094 12.25 12.085938 12.144531 M 7.179688 10.320312 L 7.070312 9.992188 L 8.863281 9.402344 L 8.96875 9.730469 Z M 7.867188 12.398438 L 7.757812 12.066406 L 9.550781 11.476562 L 9.660156 11.808594 Z M 7.867188 12.398438 "/>
<path style=" stroke:none;fill-rule:evenodd;fill:rgb(100%,100%,100%);fill-opacity:1;" d="M 18.054688 8.710938 C 18.054688 8.714844 17.59375 6.3125 17.59375 6.3125 C 17.542969 6.035156 17.386719 5.796875 17.152344 5.636719 C 16.921875 5.476562 16.640625 5.421875 16.363281 5.472656 C 16.363281 5.472656 11.3125 6.433594 10.964844 6.5 C 11.011719 6.75 11.988281 11.917969 11.988281 11.917969 L 12.125 12.648438 L 12.230469 13.199219 C 12.230469 13.199219 14.390625 12.785156 14.691406 12.730469 C 14.632812 12.414062 14.269531 10.507812 14.269531 10.507812 L 17.214844 9.945312 C 17.492188 9.894531 17.730469 9.738281 17.890625 9.503906 C 18.015625 9.316406 18.078125 9.101562 18.074219 8.878906 Z M 13.601562 8.5 L 13.535156 8.160156 L 15.507812 7.78125 L 15.574219 8.121094 Z M 13.601562 8.5 "/>
<path style=" stroke:none;fill-rule:evenodd;fill:rgb(100%,100%,100%);fill-opacity:1;" d="M 16.503906 11.148438 C 16.511719 11.320312 16.652344 13.238281 16.652344 13.238281 C 16.652344 13.238281 14.351562 13.332031 14.046875 13.34375 C 14.296875 13.523438 16.152344 14.832031 16.152344 14.832031 C 16.152344 14.832031 14.855469 16.769531 14.6875 17.015625 C 14.976562 16.925781 17.125 16.21875 17.125 16.21875 C 17.125 16.21875 17.996094 18.320312 18.109375 18.59375 C 18.191406 18.308594 18.839844 16.074219 18.839844 16.074219 C 18.839844 16.074219 21.269531 16.699219 21.589844 16.78125 C 21.375 16.53125 19.800781 14.707031 19.800781 14.707031 C 19.800781 14.707031 21.710938 13.074219 21.933594 12.890625 C 21.667969 12.886719 20.457031 12.871094 20.457031 12.871094 L 20.769531 12.53125 L 22.785156 12.53125 L 25.167969 8.292969 L 25.167969 5.257812 L 23.074219 5.257812 L 22.160156 6.878906 C 22.160156 6.878906 22.058594 7.699219 22.039062 7.871094 C 21.953125 8.027344 21.242188 9.292969 21.007812 9.710938 L 20.671875 9.710938 C 21.027344 9.082031 21.488281 8.265625 21.488281 8.265625 L 21.488281 5.257812 L 19.328125 5.257812 L 18.449219 6.875 C 18.449219 6.875 18.355469 7.695312 18.335938 7.875 C 18.246094 8.035156 16.503906 11.148438 16.503906 11.148438 "/>
<g clip-path="url(#clip1)" clip-rule="nonzero">
<g clip-path="url(#clip2)" clip-rule="evenodd">
<path style=" stroke:none;fill-rule:evenodd;fill:rgb(3.921569%,10.588235%,13.72549%);fill-opacity:1;" d="M 21.339844 10.273438 L 19.710938 10.273438 L 20.925781 8.117188 L 20.925781 5.820312 L 19.664062 5.820312 L 18.996094 7.046875 L 18.882812 8.050781 L 17.109375 11.21875 L 17.40625 11.964844 L 18.511719 11.964844 L 18.007812 13.242188 L 17.066406 12.222656 L 17.175781 13.71875 L 15.546875 13.789062 L 16.84375 14.703125 L 15.917969 16.082031 L 17.410156 15.59375 L 18.023438 17.078125 L 18.492188 15.460938 L 20.15625 15.890625 L 19.082031 14.648438 L 20.402344 13.550781 L 19.039062 13.636719 L 20.515625 11.964844 L 22.457031 11.964844 L 24.605469 8.144531 L 24.605469 5.820312 L 23.402344 5.820312 L 22.703125 7.058594 L 22.582031 8.050781 Z M 21.339844 10.273438 "/>
</g>
</g>
<g clip-path="url(#clip3)" clip-rule="nonzero">
<g clip-path="url(#clip4)" clip-rule="nonzero">
<path style="fill:none;stroke-width:0.2662;stroke-linecap:butt;stroke-linejoin:miter;stroke:rgb(13.72549%,12.156863%,12.54902%);stroke-opacity:1;stroke-miterlimit:3.864;" d="M 124.106105 61.962913 L 115.014535 61.962913 L 121.795058 49.962913 L 121.795058 37.180304 L 114.752907 37.180304 L 111.024709 44.006391 L 110.392442 49.593348 L 100.494186 67.223783 L 102.151163 71.375957 L 108.321221 71.375957 L 105.508721 78.484652 L 100.25436 72.810739 L 100.864826 81.136826 L 91.773256 81.52813 L 99.011628 86.615087 L 93.844477 94.289 L 102.172965 91.571609 L 105.59593 99.832478 L 108.212209 90.832478 L 117.5 93.223783 L 111.50436 86.310739 L 118.873547 80.202043 L 111.264535 80.680304 L 119.505814 71.375957 L 130.34157 71.375957 L 142.332849 50.115087 L 142.332849 37.180304 L 135.617733 37.180304 L 131.715116 44.071609 L 131.039244 49.593348 Z M 124.106105 61.962913 " transform="matrix(0.179167,0,0,0.179688,-0.895833,-0.860523)"/>
</g>
</g>
<path style=" stroke:none;fill-rule:evenodd;fill:rgb(100%,100%,100%);fill-opacity:1;" d="M 38.347656 8.820312 C 38.21875 8.570312 38 8.382812 37.734375 8.292969 L 33.667969 6.96875 C 33.402344 6.882812 33.113281 6.90625 32.863281 7.035156 C 32.613281 7.160156 32.425781 7.378906 32.339844 7.648438 L 30.890625 12.121094 C 30.855469 12.226562 30.839844 12.339844 30.839844 12.449219 C 30.839844 12.613281 30.878906 12.777344 30.953125 12.925781 C 31.082031 13.179688 31.300781 13.367188 31.570312 13.453125 L 35.632812 14.777344 C 35.902344 14.867188 36.1875 14.84375 36.4375 14.714844 C 36.6875 14.585938 36.875 14.367188 36.960938 14.097656 L 38.414062 9.625 C 38.445312 9.519531 38.464844 9.40625 38.464844 9.296875 C 38.464844 9.132812 38.425781 8.96875 38.347656 8.820312 M 35.214844 12.351562 L 33.421875 11.761719 L 33.53125 11.433594 L 35.320312 12.023438 Z M 35.902344 10.277344 L 34.113281 9.6875 L 34.21875 9.355469 L 36.007812 9.949219 Z M 35.902344 10.277344 "/>
<path style=" stroke:none;fill-rule:evenodd;fill:rgb(76.862745%,80.784314%,83.137255%);fill-opacity:1;" d="M 24.136719 6.152344 L 23.570312 6.152344 L 23.140625 6.925781 L 23.726562 6.925781 Z M 24.136719 6.152344 "/>
<path style=" stroke:none;fill-rule:evenodd;fill:rgb(76.862745%,80.784314%,83.137255%);fill-opacity:1;" d="M 20.070312 6.925781 L 20.476562 6.152344 L 19.863281 6.152344 L 19.4375 6.925781 Z M 20.070312 6.925781 "/>
<path style=" stroke:none;fill-rule:evenodd;fill:rgb(76.862745%,80.784314%,83.137255%);fill-opacity:1;" d="M 21.566406 10.570312 L 18.472656 10.570312 L 19.761719 8.296875 L 19.152344 8.296875 L 17.597656 11.050781 L 19.324219 11.050781 L 18.058594 13.941406 L 17.492188 13.324219 L 17.550781 14.101562 L 16.699219 14.136719 L 17.375 14.613281 L 16.894531 15.332031 L 17.671875 15.078125 L 17.988281 15.847656 L 18.234375 15.007812 L 19.097656 15.230469 L 18.539062 14.582031 L 19.226562 14.015625 L 18.261719 14.074219 L 18.195312 14.074219 L 20.191406 11.050781 L 21.921875 11.050781 L 23.449219 8.296875 L 22.855469 8.296875 Z M 17.878906 14.761719 C 17.761719 14.761719 17.667969 14.667969 17.667969 14.546875 C 17.667969 14.433594 17.761719 14.335938 17.878906 14.335938 C 17.996094 14.335938 18.09375 14.433594 18.09375 14.546875 C 18.09375 14.667969 17.996094 14.761719 17.878906 14.761719 "/>
<path style=" stroke:none;fill-rule:evenodd;fill:rgb(76.862745%,80.784314%,83.137255%);fill-opacity:1;" d="M 19.855469 7.902344 L 19.910156 7.238281 L 19.355469 7.238281 L 19.285156 7.898438 Z M 19.855469 7.902344 "/>
<path style=" stroke:none;fill-rule:evenodd;fill:rgb(76.862745%,80.784314%,83.137255%);fill-opacity:1;" d="M 23.046875 7.238281 L 22.976562 7.898438 L 23.546875 7.902344 L 23.601562 7.238281 Z M 23.046875 7.238281 "/>
<path style="fill-rule:evenodd;fill:rgb(100%,100%,100%);fill-opacity:1;stroke-width:0.2662;stroke-linecap:butt;stroke-linejoin:miter;stroke:rgb(13.72549%,12.156863%,12.54902%);stroke-opacity:1;stroke-miterlimit:3.864;" d="M 43.502907 31.593348 C 43.938953 33.180304 44.854651 33.354217 46.90407 32.810739 L 49.62936 32.071609 C 52.638081 31.267261 53.204942 30.767261 52.681686 28.789 C 52.114826 26.636826 51.242733 26.658565 47.75436 27.593348 C 45.334302 28.245522 45.050872 28.310739 44.876453 27.658565 C 44.767442 27.267261 45.072674 27.006391 45.574128 26.875957 L 48.081395 26.202043 C 49.106105 25.919435 49.236919 26.136826 49.367733 26.658565 L 51.635174 26.071609 L 51.569767 25.832478 C 51.22093 24.52813 50.741279 23.723783 48.146802 24.419435 L 45.007267 25.267261 C 42.151163 26.02813 42.303779 27.071609 42.652616 28.419435 C 43.132267 30.223783 43.655523 30.52813 47.034884 29.615087 C 49.934593 28.832478 50.218023 28.810739 50.392442 29.441174 C 50.523256 30.006391 50.065407 30.202043 49.585756 30.310739 L 46.81686 31.04987 C 46.184593 31.223783 45.857558 31.267261 45.639535 30.484652 L 43.372093 31.093348 Z M 43.502907 31.593348 " transform="matrix(0.179167,0,0,0.179688,-0.895833,-0.860523)"/>
<path style=" stroke:none;fill-rule:evenodd;fill:rgb(100%,100%,100%);fill-opacity:1;" d="M 9.792969 4.417969 L 10.25 4.320312 L 10.316406 4.058594 L 11.148438 3.882812 L 11.324219 4.09375 L 11.777344 3.996094 L 10.765625 2.816406 L 10.230469 2.929688 Z M 10.5625 3.183594 L 10.933594 3.625 L 10.410156 3.738281 Z M 10.5625 3.183594 "/>
<path style="fill:none;stroke-width:0.2662;stroke-linecap:butt;stroke-linejoin:miter;stroke:rgb(13.72549%,12.156863%,12.54902%);stroke-opacity:1;stroke-miterlimit:3.864;" d="M 59.65843 29.375957 L 62.209302 28.832478 L 62.579942 27.375957 L 67.223837 26.397696 L 68.204942 27.571609 L 70.734012 27.02813 L 65.087209 20.462913 L 62.100291 21.093348 L 59.65843 29.375957 M 63.953488 22.506391 L 66.024709 24.962913 L 63.103198 25.593348 Z M 63.953488 22.506391 " transform="matrix(0.179167,0,0,0.179688,-0.895833,-0.860523)"/>
<path style="fill-rule:evenodd;fill:rgb(100%,100%,100%);fill-opacity:1;stroke-width:0.2662;stroke-linecap:butt;stroke-linejoin:miter;stroke:rgb(13.72549%,12.156863%,12.54902%);stroke-opacity:1;stroke-miterlimit:3.864;" d="M 78.822674 20.04987 L 84.011628 24.810739 L 87.587209 24.245522 L 86.388081 16.723783 L 84.077035 17.093348 L 84.949128 22.54987 L 84.927326 22.54987 L 79.738372 17.789 L 76.162791 18.354217 L 77.361919 25.854217 L 79.651163 25.484652 L 78.800872 20.04987 Z M 78.822674 20.04987 " transform="matrix(0.179167,0,0,0.179688,-0.895833,-0.860523)"/>
<path style=" stroke:none;fill-rule:evenodd;fill:rgb(100%,100%,100%);fill-opacity:1;" d="M 17.316406 3.246094 L 17.78125 3.222656 L 17.890625 2.972656 L 18.734375 2.929688 L 18.878906 3.164062 L 19.34375 3.140625 L 18.523438 1.816406 L 17.980469 1.84375 Z M 18.265625 2.144531 L 18.5625 2.644531 L 18.03125 2.671875 Z M 18.265625 2.144531 "/>
<path style="fill:none;stroke-width:0.2662;stroke-linecap:butt;stroke-linejoin:miter;stroke:rgb(13.72549%,12.156863%,12.54902%);stroke-opacity:1;stroke-miterlimit:3.864;" d="M 101.649709 22.854217 L 104.244186 22.723783 L 104.854651 21.332478 L 109.563953 21.093348 L 110.37064 22.397696 L 112.965116 22.267261 L 108.386628 14.897696 L 105.356105 15.04987 L 101.649709 22.854217 M 106.947674 16.723783 L 108.604651 19.506391 L 105.639535 19.658565 Z M 106.947674 16.723783 " transform="matrix(0.179167,0,0,0.179688,-0.895833,-0.860523)"/>
<path style="fill-rule:evenodd;fill:rgb(100%,100%,100%);fill-opacity:1;stroke-width:0.2662;stroke-linecap:butt;stroke-linejoin:miter;stroke:rgb(13.72549%,12.156863%,12.54902%);stroke-opacity:1;stroke-miterlimit:3.864;" d="M 122.013081 16.52813 L 126.395349 22.04987 L 130.014535 22.04987 L 130.014535 14.441174 L 127.681686 14.441174 L 127.681686 19.984652 L 127.659884 19.984652 L 123.277616 14.441174 L 119.680233 14.441174 L 119.680233 22.04987 L 122.013081 22.04987 Z M 122.013081 16.52813 " transform="matrix(0.179167,0,0,0.179688,-0.895833,-0.860523)"/>
<path style="fill-rule:evenodd;fill:rgb(100%,100%,100%);fill-opacity:1;stroke-width:0.2662;stroke-linecap:butt;stroke-linejoin:miter;stroke:rgb(13.72549%,12.156863%,12.54902%);stroke-opacity:1;stroke-miterlimit:3.864;" d="M 142.52907 22.484652 L 142.8125 16.767261 L 146.104651 16.941174 L 146.19186 15.04987 L 137.318314 14.593348 L 137.209302 16.462913 L 140.501453 16.636826 L 140.196221 22.354217 Z M 142.52907 22.484652 " transform="matrix(0.179167,0,0,0.179688,-0.895833,-0.860523)"/>
<path style="fill-rule:evenodd;fill:rgb(100%,100%,100%);fill-opacity:1;stroke-width:0.2662;stroke-linecap:butt;stroke-linejoin:miter;stroke:rgb(13.72549%,12.156863%,12.54902%);stroke-opacity:1;stroke-miterlimit:3.864;" d="M 152.797965 20.52813 C 152.55814 22.767261 153.757267 23.419435 155.850291 23.636826 L 159.556686 24.02813 C 161.649709 24.245522 162.936047 23.854217 163.175872 21.636826 L 163.415698 19.375957 C 163.655523 17.158565 162.456395 16.506391 160.363372 16.289 L 156.656977 15.897696 C 154.563953 15.680304 153.255814 16.071609 153.037791 18.289 L 152.797965 20.52813 M 155.348837 19.267261 C 155.436047 18.332478 155.741279 17.767261 156.940407 17.897696 L 159.665698 18.180304 C 160.886628 18.310739 161.061047 18.897696 160.952035 19.854217 L 160.864826 20.658565 C 160.755814 21.767261 160.494186 22.158565 159.382267 22.02813 L 156.417151 21.723783 C 155.327035 21.615087 155.130814 21.180304 155.261628 20.071609 Z M 155.348837 19.267261 " transform="matrix(0.179167,0,0,0.179688,-0.895833,-0.860523)"/>
<path style="fill-rule:evenodd;fill:rgb(100%,100%,100%);fill-opacity:1;stroke-width:0.2662;stroke-linecap:butt;stroke-linejoin:miter;stroke:rgb(13.72549%,12.156863%,12.54902%);stroke-opacity:1;stroke-miterlimit:3.864;" d="M 173.422965 20.289 L 176.780523 26.506391 L 180.356105 27.136826 L 181.664244 19.636826 L 179.353198 19.223783 L 178.415698 24.658565 L 178.393895 24.658565 L 175.036337 18.462913 L 171.482558 17.832478 L 170.152616 25.332478 L 172.463663 25.723783 L 173.401163 20.289 Z M 173.422965 20.289 " transform="matrix(0.179167,0,0,0.179688,-0.895833,-0.860523)"/>
<path style="fill-rule:evenodd;fill:rgb(100%,100%,100%);fill-opacity:1;stroke-width:0.2662;stroke-linecap:butt;stroke-linejoin:miter;stroke:rgb(13.72549%,12.156863%,12.54902%);stroke-opacity:1;stroke-miterlimit:3.864;" d="M 189.31686 21.180304 L 187.747093 28.615087 L 190.036337 29.093348 L 191.606105 21.658565 Z M 189.31686 21.180304 " transform="matrix(0.179167,0,0,0.179688,-0.895833,-0.860523)"/>
<path style="fill-rule:evenodd;fill:rgb(100%,100%,100%);fill-opacity:1;stroke-width:0.2662;stroke-linecap:butt;stroke-linejoin:miter;stroke:rgb(13.72549%,12.156863%,12.54902%);stroke-opacity:1;stroke-miterlimit:3.864;" d="M 197.928779 28.289 C 197.361919 30.441174 198.430233 31.267261 200.457849 31.810739 L 204.055233 32.789 C 206.104651 33.332478 207.434593 33.136826 208.001453 30.984652 L 208.611919 28.810739 C 209.178779 26.658565 208.110465 25.810739 206.082849 25.289 L 202.463663 24.310739 C 200.436047 23.767261 199.084302 23.941174 198.517442 26.093348 L 197.928779 28.289 M 200.632267 27.419435 C 200.893895 26.506391 201.264535 26.006391 202.44186 26.332478 L 205.079942 27.02813 C 206.27907 27.354217 206.344477 27.962913 206.104651 28.875957 L 205.886628 29.680304 C 205.603198 30.745522 205.276163 31.093348 204.207849 30.810739 L 201.329942 30.02813 C 200.261628 29.745522 200.152616 29.267261 200.414244 28.202043 Z M 200.632267 27.419435 " transform="matrix(0.179167,0,0,0.179688,-0.895833,-0.860523)"/>
<path style=" stroke:none;fill-rule:evenodd;fill:rgb(100%,100%,100%);fill-opacity:1;" d="M 6.898438 4.816406 C 6.976562 5.101562 7.140625 5.132812 7.507812 5.035156 L 7.996094 4.902344 C 8.535156 4.757812 8.636719 4.667969 8.542969 4.3125 C 8.441406 3.925781 8.285156 3.929688 7.660156 4.097656 C 7.226562 4.214844 7.175781 4.226562 7.144531 4.109375 C 7.125 4.039062 7.179688 3.992188 7.269531 3.96875 L 7.71875 3.847656 C 7.902344 3.796875 7.925781 3.835938 7.949219 3.929688 L 8.355469 3.824219 L 8.34375 3.78125 C 8.28125 3.546875 8.195312 3.402344 7.730469 3.527344 L 7.167969 3.679688 C 6.65625 3.816406 6.683594 4.003906 6.746094 4.246094 C 6.832031 4.570312 6.925781 4.625 7.53125 4.460938 C 8.050781 4.320312 8.101562 4.316406 8.132812 4.429688 C 8.15625 4.53125 8.074219 4.566406 7.988281 4.585938 L 7.492188 4.71875 C 7.378906 4.75 7.320312 4.757812 7.28125 4.617188 L 6.875 4.726562 Z M 6.898438 4.816406 "/>
<path style=" stroke:none;fill-rule:evenodd;fill:rgb(100%,100%,100%);fill-opacity:1;" d="M 9.792969 4.417969 L 10.25 4.320312 L 10.316406 4.058594 L 11.148438 3.882812 L 11.324219 4.09375 L 11.777344 3.996094 L 10.765625 2.816406 L 10.230469 2.929688 Z M 10.5625 3.183594 L 10.933594 3.625 L 10.410156 3.738281 Z M 10.5625 3.183594 "/>
<path style=" stroke:none;fill-rule:evenodd;fill:rgb(100%,100%,100%);fill-opacity:1;" d="M 13.226562 2.742188 L 14.15625 3.597656 L 14.796875 3.496094 L 14.582031 2.144531 L 14.167969 2.210938 L 14.324219 3.191406 L 14.320312 3.191406 L 13.390625 2.335938 L 12.75 2.4375 L 12.964844 3.785156 L 13.375 3.71875 L 13.222656 2.742188 Z M 13.226562 2.742188 "/>
<path style=" stroke:none;fill-rule:evenodd;fill:rgb(100%,100%,100%);fill-opacity:1;" d="M 17.316406 3.246094 L 17.78125 3.222656 L 17.890625 2.972656 L 18.734375 2.929688 L 18.878906 3.164062 L 19.34375 3.140625 L 18.523438 1.816406 L 17.980469 1.84375 Z M 18.265625 2.144531 L 18.5625 2.644531 L 18.03125 2.671875 Z M 18.265625 2.144531 "/>
<path style=" stroke:none;fill-rule:evenodd;fill:rgb(100%,100%,100%);fill-opacity:1;" d="M 20.964844 2.109375 L 21.75 3.101562 L 22.398438 3.101562 L 22.398438 1.734375 L 21.980469 1.734375 L 21.980469 2.730469 L 21.976562 2.730469 L 21.191406 1.734375 L 20.546875 1.734375 L 20.546875 3.101562 L 20.964844 3.101562 Z M 20.964844 2.109375 "/>
<path style=" stroke:none;fill-rule:evenodd;fill:rgb(100%,100%,100%);fill-opacity:1;" d="M 24.640625 3.179688 L 24.691406 2.152344 L 25.28125 2.183594 L 25.296875 1.84375 L 23.707031 1.761719 L 23.6875 2.097656 L 24.277344 2.128906 L 24.222656 3.15625 Z M 24.640625 3.179688 "/>
<path style=" stroke:none;fill-rule:evenodd;fill:rgb(100%,100%,100%);fill-opacity:1;" d="M 26.480469 2.828125 C 26.4375 3.230469 26.652344 3.347656 27.027344 3.386719 L 27.691406 3.457031 C 28.066406 3.496094 28.296875 3.425781 28.339844 3.027344 L 28.382812 2.621094 C 28.425781 2.222656 28.210938 2.105469 27.835938 2.066406 L 27.171875 1.996094 C 26.796875 1.957031 26.5625 2.027344 26.523438 2.425781 L 26.480469 2.828125 M 26.9375 2.601562 C 26.953125 2.433594 27.007812 2.332031 27.222656 2.355469 L 27.710938 2.40625 C 27.929688 2.429688 27.960938 2.535156 27.941406 2.707031 L 27.925781 2.851562 C 27.90625 3.050781 27.859375 3.121094 27.660156 3.097656 L 27.128906 3.042969 C 26.933594 3.023438 26.898438 2.945312 26.921875 2.746094 Z M 26.9375 2.601562 "/>
<path style=" stroke:none;fill-rule:evenodd;fill:rgb(100%,100%,100%);fill-opacity:1;" d="M 30.175781 2.785156 L 30.777344 3.902344 L 31.417969 4.015625 L 31.652344 2.667969 L 31.238281 2.59375 L 31.070312 3.570312 L 31.066406 3.570312 L 30.464844 2.457031 L 29.828125 2.34375 L 29.589844 3.691406 L 30.003906 3.761719 L 30.171875 2.785156 Z M 30.175781 2.785156 "/>
<path style=" stroke:none;fill-rule:evenodd;fill:rgb(100%,100%,100%);fill-opacity:1;" d="M 33.023438 2.945312 L 32.742188 4.28125 L 33.152344 4.367188 L 33.433594 3.03125 Z M 33.023438 2.945312 "/>
<path style=" stroke:none;fill-rule:evenodd;fill:rgb(100%,100%,100%);fill-opacity:1;" d="M 34.566406 4.222656 C 34.464844 4.609375 34.65625 4.757812 35.019531 4.855469 L 35.664062 5.03125 C 36.03125 5.128906 36.269531 5.09375 36.371094 4.707031 L 36.480469 4.316406 C 36.582031 3.929688 36.390625 3.777344 36.027344 3.683594 L 35.378906 3.507812 C 35.015625 3.410156 34.773438 3.441406 34.671875 3.828125 L 34.566406 4.222656 M 35.050781 4.066406 C 35.097656 3.902344 35.164062 3.8125 35.375 3.871094 L 35.847656 3.996094 C 36.0625 4.054688 36.074219 4.164062 36.03125 4.328125 L 35.992188 4.472656 C 35.941406 4.664062 35.882812 4.726562 35.691406 4.675781 L 35.175781 4.535156 C 34.984375 4.484375 34.964844 4.398438 35.011719 4.207031 Z M 35.050781 4.066406 "/>
<g clip-path="url(#clip5)" clip-rule="nonzero">
<g clip-path="url(#clip6)" clip-rule="evenodd">
<path style=" stroke:none;fill-rule:evenodd;fill:rgb(3.921569%,10.588235%,13.72549%);fill-opacity:1;" d="M 30.753906 6.769531 L 25.890625 5.941406 L 24.9375 11.558594 L 26.304688 11.789062 L 26.6875 9.558594 L 28.449219 9.859375 L 29.128906 9.976562 C 29.234375 9.992188 29.308594 10.09375 29.289062 10.203125 L 29 11.882812 C 28.941406 12.234375 29.144531 12.257812 29.230469 12.277344 C 29.332031 12.292969 30.402344 12.484375 30.402344 12.484375 C 30.371094 12.449219 30.304688 12.328125 30.359375 12.085938 L 30.695312 10.113281 C 30.726562 9.921875 30.632812 9.75 30.46875 9.675781 C 30.699219 9.648438 30.804688 9.46875 30.835938 9.28125 L 30.867188 9.113281 L 31.160156 7.339844 C 31.203125 7.070312 31.023438 6.816406 30.753906 6.769531 M 29.652344 8.027344 L 29.558594 8.601562 C 29.539062 8.710938 29.4375 8.78125 29.332031 8.761719 L 26.894531 8.351562 L 27.050781 7.386719 L 29.488281 7.800781 C 29.597656 7.820312 29.667969 7.921875 29.652344 8.027344 "/>
</g>
</g>
<g clip-path="url(#clip7)" clip-rule="nonzero">
<g clip-path="url(#clip8)" clip-rule="nonzero">
<path style="fill:none;stroke-width:0.2662;stroke-linecap:butt;stroke-linejoin:miter;stroke:rgb(13.72549%,12.156863%,12.54902%);stroke-opacity:1;stroke-miterlimit:3.864;" d="M 176.649709 42.462913 L 149.505814 37.854217 L 144.186047 69.115087 L 151.81686 70.397696 L 153.953488 57.984652 L 163.786337 59.658565 L 167.579942 60.310739 C 168.168605 60.397696 168.582849 60.962913 168.473837 61.571609 L 166.860465 70.919435 C 166.53343 72.875957 167.667151 73.006391 168.146802 73.115087 C 168.713663 73.202043 174.6875 74.267261 174.6875 74.267261 C 174.513081 74.071609 174.142442 73.397696 174.447674 72.04987 L 176.322674 61.071609 C 176.497093 60.006391 175.973837 59.04987 175.05814 58.636826 C 176.344477 58.484652 176.93314 57.484652 177.107558 56.441174 L 177.281977 55.506391 L 178.917151 45.636826 C 179.156977 44.136826 178.15407 42.723783 176.649709 42.462913 Z M 170.501453 49.462913 L 169.978198 52.658565 C 169.869186 53.267261 169.302326 53.658565 168.713663 53.54987 L 155.109012 51.267261 L 155.981105 45.897696 L 169.585756 48.202043 C 170.196221 48.310739 170.588663 48.875957 170.501453 49.462913 Z M 170.501453 49.462913 " transform="matrix(0.179167,0,0,0.179688,-0.895833,-0.860523)"/>
</g>
</g>
<g clip-path="url(#clip9)" clip-rule="nonzero">
<g clip-path="url(#clip10)" clip-rule="evenodd">
<path style=" stroke:none;fill-rule:evenodd;fill:rgb(3.921569%,10.588235%,13.72549%);fill-opacity:1;" d="M 13.386719 8.851562 L 15.824219 8.390625 C 15.933594 8.371094 16.003906 8.265625 15.980469 8.15625 L 15.871094 7.589844 C 15.847656 7.480469 15.746094 7.410156 15.636719 7.429688 L 13.207031 7.894531 L 13.386719 8.851562 M 14.035156 12.28125 L 12.675781 12.539062 L 11.617188 6.945312 L 16.464844 6.023438 C 16.734375 5.972656 16.992188 6.148438 17.046875 6.417969 L 17.503906 8.816406 C 17.554688 9.085938 17.378906 9.34375 17.109375 9.394531 L 13.617188 10.058594 Z M 14.035156 12.28125 "/>
</g>
</g>
<g clip-path="url(#clip11)" clip-rule="nonzero">
<g clip-path="url(#clip12)" clip-rule="nonzero">
<path style="fill:none;stroke-width:0.2662;stroke-linecap:butt;stroke-linejoin:miter;stroke:rgb(13.72549%,12.156863%,12.54902%);stroke-opacity:1;stroke-miterlimit:3.864;" d="M 79.71657 54.04987 L 93.321221 51.484652 C 93.931686 51.375957 94.324128 50.789 94.193314 50.180304 L 93.582849 47.02813 C 93.452035 46.419435 92.885174 46.02813 92.274709 46.136826 L 78.713663 48.723783 L 79.71657 54.04987 M 83.335756 73.136826 L 75.748547 74.571609 L 69.840116 43.441174 L 96.896802 38.310739 C 98.401163 38.02813 99.840116 39.006391 100.145349 40.506391 L 102.696221 53.854217 C 102.979651 55.354217 101.998547 56.789 100.494186 57.071609 L 81.002907 60.767261 Z M 83.335756 73.136826 " transform="matrix(0.179167,0,0,0.179688,-0.895833,-0.860523)"/>
</g>
</g>
<g clip-path="url(#clip13)" clip-rule="nonzero">
<g clip-path="url(#clip14)" clip-rule="evenodd">
<path style=" stroke:none;fill-rule:evenodd;fill:rgb(3.921569%,10.588235%,13.72549%);fill-opacity:1;" d="M 35.472656 11.773438 C 35.574219 11.808594 35.625 11.9375 35.59375 12.042969 L 35.410156 12.605469 C 35.375 12.707031 35.265625 12.765625 35.160156 12.730469 L 33.152344 12.074219 C 33.050781 12.042969 32.992188 11.929688 33.023438 11.824219 L 33.140625 11.46875 L 31.828125 11.042969 L 31.425781 12.292969 C 31.339844 12.554688 31.480469 12.835938 31.742188 12.917969 L 35.804688 14.242188 C 36.066406 14.328125 36.347656 14.183594 36.429688 13.925781 L 37.121094 11.789062 L 37.199219 11.554688 C 37.28125 11.292969 37.140625 11.015625 36.882812 10.929688 L 34.316406 10.09375 L 33.84375 9.9375 C 33.742188 9.90625 33.683594 9.792969 33.71875 9.6875 L 33.898438 9.132812 C 33.933594 9.03125 34.042969 8.972656 34.148438 9.007812 L 36.15625 9.660156 C 36.257812 9.695312 36.316406 9.808594 36.28125 9.910156 L 36.171875 10.226562 L 37.488281 10.65625 L 37.878906 9.453125 C 37.960938 9.191406 37.820312 8.914062 37.5625 8.828125 L 33.496094 7.503906 C 33.238281 7.417969 32.957031 7.5625 32.871094 7.820312 L 32.175781 9.96875 L 32.117188 10.160156 C 32.03125 10.417969 32.171875 10.699219 32.433594 10.785156 L 33.984375 11.289062 Z M 35.472656 11.773438 "/>
</g>
</g>
<g clip-path="url(#clip15)" clip-rule="nonzero">
<g clip-path="url(#clip16)" clip-rule="nonzero">
<path style="fill:none;stroke-width:0.2662;stroke-linecap:butt;stroke-linejoin:miter;stroke:rgb(13.72549%,12.156863%,12.54902%);stroke-opacity:1;stroke-miterlimit:3.864;" d="M 202.986919 70.310739 C 203.553779 70.506391 203.837209 71.223783 203.662791 71.810739 L 202.638081 74.941174 C 202.44186 75.506391 201.831395 75.832478 201.242733 75.636826 L 190.036337 71.984652 C 189.469477 71.810739 189.142442 71.180304 189.31686 70.593348 L 189.97093 68.615087 L 182.645349 66.245522 L 180.399709 73.202043 C 179.920058 74.658565 180.704942 76.223783 182.165698 76.680304 L 204.840116 84.04987 C 206.300872 84.52813 207.87064 83.723783 208.328488 82.289 L 212.1875 70.397696 L 212.623547 69.093348 C 213.081395 67.636826 212.296512 66.093348 210.857558 65.615087 L 196.53343 60.962913 L 193.895349 60.093348 C 193.328488 59.919435 193.001453 59.289 193.197674 58.702043 L 194.200581 55.615087 C 194.396802 55.04987 195.007267 54.723783 195.59593 54.919435 L 206.802326 58.54987 C 207.369186 58.745522 207.696221 59.375957 207.5 59.941174 L 206.889535 61.702043 L 214.236919 64.093348 L 216.417151 57.397696 C 216.875 55.941174 216.090116 54.397696 214.651163 53.919435 L 191.954942 46.54987 C 190.515988 46.071609 188.946221 46.875957 188.46657 48.310739 L 184.585756 60.267261 L 184.258721 61.332478 C 183.77907 62.767261 184.563953 64.332478 186.024709 64.810739 L 194.680233 67.615087 Z M 202.986919 70.310739 " transform="matrix(0.179167,0,0,0.179688,-0.895833,-0.860523)"/>
</g>
</g>
<g clip-path="url(#clip17)" clip-rule="nonzero">
<g clip-path="url(#clip18)" clip-rule="evenodd">
<path style=" stroke:none;fill-rule:evenodd;fill:rgb(3.921569%,10.588235%,13.72549%);fill-opacity:1;" d="M 8.03125 11.628906 L 6.480469 12.132812 C 6.222656 12.21875 5.941406 12.074219 5.859375 11.8125 L 5.796875 11.625 L 5.097656 9.476562 C 5.015625 9.21875 5.15625 8.9375 5.417969 8.851562 L 9.484375 7.527344 C 9.742188 7.445312 10.023438 7.585938 10.105469 7.847656 L 10.496094 9.050781 L 9.1875 9.476562 L 9.082031 9.160156 C 9.050781 9.054688 8.9375 8.996094 8.835938 9.03125 L 6.824219 9.683594 C 6.722656 9.71875 6.664062 9.832031 6.699219 9.9375 L 6.878906 10.488281 C 6.910156 10.59375 7.023438 10.652344 7.128906 10.617188 L 7.597656 10.464844 L 10.164062 9.628906 C 10.421875 9.542969 10.703125 9.6875 10.785156 9.945312 L 10.863281 10.183594 L 11.554688 12.320312 C 11.636719 12.578125 11.496094 12.859375 11.238281 12.945312 L 7.171875 14.269531 C 6.910156 14.351562 6.632812 14.210938 6.546875 13.949219 L 6.144531 12.699219 L 7.457031 12.269531 L 7.570312 12.628906 C 7.605469 12.730469 7.71875 12.789062 7.820312 12.753906 L 9.828125 12.097656 C 9.933594 12.066406 9.988281 11.953125 9.957031 11.851562 L 9.773438 11.289062 C 9.738281 11.183594 9.621094 11.109375 9.519531 11.140625 Z M 8.03125 11.628906 "/>
</g>
</g>
<g clip-path="url(#clip19)" clip-rule="nonzero">
<g clip-path="url(#clip20)" clip-rule="nonzero">
<path style="fill:none;stroke-width:0.2662;stroke-linecap:butt;stroke-linejoin:miter;stroke:rgb(13.72549%,12.156863%,12.54902%);stroke-opacity:1;stroke-miterlimit:3.864;" d="M 49.825581 69.506391 L 41.170058 72.310739 C 39.731105 72.789 38.161337 71.984652 37.703488 70.52813 L 37.354651 69.484652 L 33.452035 57.52813 C 32.994186 56.093348 33.77907 54.52813 35.239826 54.04987 L 57.936047 46.680304 C 59.375 46.223783 60.944767 47.006391 61.402616 48.462913 L 63.582849 55.158565 L 56.27907 57.52813 L 55.690407 55.767261 C 55.515988 55.180304 54.883721 54.854217 54.31686 55.04987 L 43.088663 58.680304 C 42.521802 58.875957 42.194767 59.506391 42.390988 60.093348 L 43.393895 63.158565 C 43.568314 63.745522 44.200581 64.071609 44.789244 63.875957 L 47.405523 63.02813 L 61.729651 58.375957 C 63.168605 57.897696 64.738372 58.702043 65.196221 60.136826 L 65.632267 61.462913 L 69.491279 73.354217 C 69.949128 74.789 69.164244 76.354217 67.725291 76.832478 L 45.02907 84.202043 C 43.568314 84.658565 42.020349 83.875957 41.540698 82.419435 L 39.295058 75.462913 L 46.62064 73.071609 L 47.252907 75.071609 C 47.449128 75.636826 48.081395 75.962913 48.648256 75.767261 L 59.854651 72.115087 C 60.443314 71.941174 60.748547 71.310739 60.574128 70.745522 L 59.549419 67.615087 C 59.353198 67.02813 58.699128 66.615087 58.132267 66.789 Z M 49.825581 69.506391 " transform="matrix(0.179167,0,0,0.179688,-0.895833,-0.860523)"/>
</g>
</g>
</g>
</svg>
