<?xml version="1.0" encoding="UTF-8"?>
<svg xmlns="http://www.w3.org/2000/svg" xmlns:xlink="http://www.w3.org/1999/xlink" width="51pt" height="23pt" viewBox="0 0 51 23" version="1.1">
<defs>
<clipPath id="clip1">
  <path d="M 0 0 L 35 0 L 35 22.980469 L 0 22.980469 Z M 0 0 "/>
</clipPath>
<clipPath id="clip2">
  <path d="M 11 8 L 26 8 L 26 22.980469 L 11 22.980469 Z M 11 8 "/>
</clipPath>
<clipPath id="clip3">
  <path d="M 24 8 L 38 8 L 38 22.980469 L 24 22.980469 Z M 24 8 "/>
</clipPath>
<clipPath id="clip4">
  <path d="M 36 8 L 51 8 L 51 22.980469 L 36 22.980469 Z M 36 8 "/>
</clipPath>
<clipPath id="clip5">
  <path d="M 0 9 L 14 9 L 14 22.980469 L 0 22.980469 Z M 0 9 "/>
</clipPath>
<clipPath id="clip6">
  <path d="M 2 9 L 7 9 L 7 22.980469 L 2 22.980469 Z M 2 9 "/>
</clipPath>
<clipPath id="clip7">
  <path d="M 7 9 L 12 9 L 12 22.980469 L 7 22.980469 Z M 7 9 "/>
</clipPath>
</defs>
<g id="surface1">
<path style=" stroke:none;fill-rule:nonzero;fill:rgb(100%,100%,100%);fill-opacity:1;" d="M 37.023438 20.480469 L 33.988281 20.480469 L 34 20.449219 L 38.738281 9.710938 L 41.835938 9.710938 Z M 16.894531 16.535156 L 17.6875 14.828125 L 18.0625 16.535156 Z M 44.667969 20.476562 L 44.679688 20.453125 L 50.082031 8.203125 L 50.34375 7.621094 L 48.34375 7.621094 L 48.34375 7.625 L 39.660156 7.625 L 39.660156 7.621094 L 25.097656 7.621094 L 24.980469 7.835938 L 24.273438 9.085938 L 23.925781 9.707031 L 31.160156 9.707031 L 26.765625 19.535156 L 23.214844 7.917969 L 23.125 7.625 L 18.046875 7.625 L 17.933594 7.875 L 11.59375 22.214844 L 11.335938 22.800781 L 14.277344 22.800781 L 14.382812 22.535156 L 15.777344 19.035156 L 18.640625 19.035156 L 19.675781 22.503906 L 19.765625 22.800781 L 25.792969 22.800781 L 25.792969 22.796875 L 50.023438 22.796875 L 50.132812 22.542969 L 50.78125 21.058594 L 51.035156 20.476562 Z M 44.667969 20.476562 "/>
<g clip-path="url(#clip1)" clip-rule="nonzero">
<path style=" stroke:none;fill-rule:nonzero;fill:rgb(100%,100%,100%);fill-opacity:1;" d="M 18.285156 0 L 18.171875 0.246094 C 17.761719 1.167969 13.042969 11.554688 12.996094 11.660156 C 12.886719 11.890625 12.71875 12.074219 12.582031 12.203125 C 12.5 12.089844 12.414062 11.980469 12.324219 11.875 C 12.246094 11.777344 12.164062 11.683594 12.085938 11.597656 C 12.078125 11.589844 12.074219 11.585938 12.070312 11.578125 C 12.027344 11.535156 11.984375 11.484375 11.941406 11.441406 L 11.824219 11.324219 L 11.554688 11.066406 L 11.546875 11.074219 C 10.320312 10.003906 8.707031 9.351562 6.9375 9.351562 C 3.105469 9.351562 0 12.402344 0 16.167969 C 0 19.929688 3.105469 22.980469 6.9375 22.980469 C 10.769531 22.980469 13.875 19.929688 13.875 16.167969 C 13.875 16.078125 13.871094 15.988281 13.871094 15.898438 C 14.5625 14.371094 17.515625 7.941406 17.675781 7.523438 C 17.8125 7.167969 17.902344 7.007812 18.601562 6.945312 C 18.769531 6.933594 19.679688 6.910156 23.839844 6.910156 C 26.363281 6.910156 29.117188 6.917969 29.675781 6.925781 L 29.921875 6.925781 L 29.921875 6.929688 L 31.914062 6.929688 L 32.019531 6.675781 L 34.640625 0.578125 L 34.890625 0 Z M 18.285156 0 "/>
</g>
<g clip-path="url(#clip2)" clip-rule="nonzero">
<path style=" stroke:none;fill-rule:nonzero;fill:rgb(4.705882%,13.72549%,25.098039%);fill-opacity:1;" d="M 16.226562 16.949219 L 17.820312 13.519531 L 18.570312 16.949219 Z M 20.867188 8.085938 L 18.289062 8.085938 L 11.964844 22.378906 L 13.980469 22.378906 L 15.480469 18.617188 L 18.945312 18.617188 L 20.066406 22.378906 L 25.214844 22.378906 Z M 20.867188 8.085938 "/>
</g>
<g clip-path="url(#clip3)" clip-rule="nonzero">
<path style=" stroke:none;fill-rule:nonzero;fill:rgb(4.705882%,13.72549%,25.098039%);fill-opacity:1;" d="M 37.054688 8.039062 L 25.347656 8.039062 L 24.640625 9.292969 L 31.808594 9.292969 L 25.953125 22.378906 L 35.976562 22.378906 L 36.632812 20.894531 L 31.390625 20.894531 Z M 37.054688 8.039062 "/>
</g>
<path style=" stroke:none;fill-rule:nonzero;fill:rgb(0%,27.843137%,10.588235%);fill-opacity:1;" d="M 39.019531 8.039062 L 37.945312 8.039062 L 32.421875 20.285156 L 33.730469 20.285156 Z M 39.019531 8.039062 "/>
<g clip-path="url(#clip4)" clip-rule="nonzero">
<path style=" stroke:none;fill-rule:nonzero;fill:rgb(4.705882%,13.72549%,25.098039%);fill-opacity:1;" d="M 47.730469 8.042969 L 39.769531 8.042969 L 39.160156 9.292969 L 42.484375 9.292969 L 36.632812 22.378906 L 49.746094 22.378906 L 50.394531 20.894531 L 42.066406 20.894531 Z M 47.730469 8.042969 "/>
</g>
<path style=" stroke:none;fill-rule:nonzero;fill:rgb(0%,27.843137%,10.588235%);fill-opacity:1;" d="M 49.699219 8.039062 L 48.621094 8.039062 L 43.214844 20.285156 L 44.292969 20.285156 Z M 49.699219 8.039062 "/>
<g clip-path="url(#clip5)" clip-rule="nonzero">
<path style=" stroke:none;fill-rule:nonzero;fill:rgb(100%,100%,100%);fill-opacity:1;" d="M 13.472656 16.160156 C 13.472656 19.6875 10.5625 22.542969 6.972656 22.542969 C 3.382812 22.542969 0.476562 19.6875 0.476562 16.160156 C 0.476562 12.632812 3.382812 9.773438 6.972656 9.773438 C 10.5625 9.773438 13.472656 12.632812 13.472656 16.160156 "/>
</g>
<path style=" stroke:none;fill-rule:nonzero;fill:rgb(4.705882%,13.72549%,25.098039%);fill-opacity:1;" d="M 4.613281 15.949219 C 4.5 14.265625 3.683594 12.648438 2.421875 11.605469 C 2.367188 11.652344 2.273438 11.753906 2.277344 11.75 C 1.234375 12.804688 0.558594 14.222656 0.476562 15.949219 Z M 4.613281 15.949219 "/>
<path style=" stroke:none;fill-rule:nonzero;fill:rgb(4.705882%,13.72549%,25.098039%);fill-opacity:1;" d="M 1.9375 20.195312 L 2.238281 20.542969 L 2.515625 20.808594 C 3.691406 19.820312 4.46875 18.203125 4.609375 16.519531 L 0.488281 16.519531 C 0.546875 17.960938 1.167969 19.308594 1.9375 20.195312 "/>
<g clip-path="url(#clip6)" clip-rule="nonzero">
<path style=" stroke:none;fill-rule:nonzero;fill:rgb(97.647059%,62.745098%,10.588235%);fill-opacity:1;" d="M 2.824219 11.230469 L 2.738281 11.316406 C 4.136719 12.496094 4.9375 14.140625 5.027344 15.941406 L 6.621094 15.941406 L 6.621094 9.785156 C 5.03125 9.878906 3.785156 10.421875 2.824219 11.230469 M 2.863281 21.105469 C 3.957031 22 5.425781 22.511719 6.621094 22.539062 L 6.621094 16.492188 L 5.03125 16.492188 C 4.96875 18.273438 4.207031 19.921875 2.863281 21.105469 "/>
</g>
<path style=" stroke:none;fill-rule:nonzero;fill:rgb(4.705882%,13.72549%,25.098039%);fill-opacity:1;" d="M 11.417969 20.828125 L 11.667969 20.578125 C 11.667969 20.578125 11.773438 20.472656 11.910156 20.316406 C 12.8125 19.296875 13.390625 17.9375 13.464844 16.523438 L 9.351562 16.523438 C 9.492188 18.210938 10.246094 19.832031 11.417969 20.828125 "/>
<g clip-path="url(#clip7)" clip-rule="nonzero">
<path style=" stroke:none;fill-rule:nonzero;fill:rgb(0%,27.843137%,10.588235%);fill-opacity:1;" d="M 8.804688 16.5 L 7.175781 16.5 L 7.179688 22.542969 C 8.453125 22.488281 9.792969 22.121094 11.019531 21.15625 C 9.671875 19.96875 8.867188 18.28125 8.804688 16.5 M 11.125 11.300781 L 11.152344 11.269531 L 11.132812 11.253906 L 11.078125 11.207031 C 10.109375 10.394531 8.667969 9.824219 7.179688 9.777344 L 7.175781 9.964844 L 7.175781 15.949219 L 8.808594 15.949219 C 8.898438 14.144531 9.730469 12.46875 11.125 11.300781 "/>
</g>
<path style=" stroke:none;fill-rule:nonzero;fill:rgb(0%,27.843137%,10.588235%);fill-opacity:1;" d="M 22.816406 8.039062 L 21.730469 8.039062 L 25.761719 21.226562 L 26.402344 19.785156 Z M 22.816406 8.039062 "/>
<path style=" stroke:none;fill-rule:nonzero;fill:rgb(4.705882%,13.72549%,25.098039%);fill-opacity:1;" d="M 18.558594 0.417969 C 18.140625 1.347656 13.378906 11.832031 13.378906 11.832031 C 13.113281 12.390625 12.597656 12.726562 12.570312 12.746094 L 12.503906 12.789062 L 12.378906 12.601562 C 12.144531 12.246094 11.925781 12 11.648438 11.722656 L 11.542969 11.613281 C 10.28125 12.652344 9.457031 14.265625 9.339844 15.945312 L 13.46875 15.945312 C 13.464844 15.835938 13.464844 15.773438 13.464844 15.773438 L 13.464844 15.726562 C 13.507812 15.644531 17.097656 7.863281 17.28125 7.378906 C 17.480469 6.859375 17.71875 6.605469 18.5625 6.53125 C 19.320312 6.46875 28.65625 6.496094 29.679688 6.507812 L 32.296875 0.417969 Z M 18.558594 0.417969 "/>
<path style=" stroke:none;fill-rule:nonzero;fill:rgb(0%,27.843137%,10.588235%);fill-opacity:1;" d="M 34.253906 0.417969 L 33.175781 0.417969 L 30.558594 6.511719 L 31.632812 6.511719 Z M 34.253906 0.417969 "/>
</g>
</svg>
