<?xml version="1.0" encoding="UTF-8" standalone="no"?>
<!-- Generator: Adobe Illustrator 13.0.0, SVG Export Plug-In . SVG Version: 6.00 Build 14948)  -->

<svg
   xmlns:dc="http://purl.org/dc/elements/1.1/"
   xmlns:cc="http://creativecommons.org/ns#"
   xmlns:rdf="http://www.w3.org/1999/02/22-rdf-syntax-ns#"
   xmlns:svg="http://www.w3.org/2000/svg"
   xmlns="http://www.w3.org/2000/svg"
   xmlns:sodipodi="http://sodipodi.sourceforge.net/DTD/sodipodi-0.dtd"
   xmlns:inkscape="http://www.inkscape.org/namespaces/inkscape"
   version="1.1"
   id="Layer_1"
   x="0px"
   y="0px"
   width="289.71423"
   height="247.3813"
   viewBox="0 0 289.71423 247.3813"
   enable-background="new 0 0 300 250"
   xml:space="preserve"
   inkscape:version="0.48.4 r9939"
   sodipodi:docname="detroit-pistons.svg"><metadata
     id="metadata259"><rdf:RDF><cc:Work
         rdf:about=""><dc:format>image/svg+xml</dc:format><dc:type
           rdf:resource="http://purl.org/dc/dcmitype/StillImage" /></cc:Work></rdf:RDF></metadata><defs
     id="defs257" /><sodipodi:namedview
     pagecolor="#ffffff"
     bordercolor="#666666"
     borderopacity="1"
     objecttolerance="10"
     gridtolerance="10"
     guidetolerance="10"
     inkscape:pageopacity="0"
     inkscape:pageshadow="2"
     inkscape:window-width="640"
     inkscape:window-height="480"
     id="namedview255"
     showgrid="false"
     inkscape:zoom="0.944"
     inkscape:cx="144.28022"
     inkscape:cy="124.53163"
     inkscape:window-x="65"
     inkscape:window-y="24"
     inkscape:window-maximized="0"
     inkscape:current-layer="Layer_1" /><path
     d="m 116.47822,144.85468 c 0,8.648 -5.213,13.721 -15.493,15.064 l -0.137,0.014 c -6.729001,0.618 -12.203001,1.22 -17.765001,1.928 l -3.321,0.415 -0.075,-14.449 -0.066,-2.202 v -0.009 c 2.861,-0.345 4.824,-0.574 6.266,-0.752 1.901,-0.265 3.793,-0.499 5.699,-0.733 -0.018,-2.552 -0.053,-9.913 -0.066,-12.416 -3.838,-0.778 -9.604,-2.586 -12.376,-8.768 -0.066,-0.128 -0.11,-0.27 -0.164,-0.42 v 34.479 c -0.071,0.005 -0.124,0.018 -0.177,0.036 v 5.288 l -2.317,0.336 c -4.651,0.649 -9.493,1.401 -14.971,2.316 14.808,10.471 38.423,20.746 75.104001,22.819 0.566,-9.427 -3.555,-19.353 -10.028,-29.682 l -0.637,0.009 v -1.017 c -2.812,-4.382 -6.018,-8.834 -9.475,-13.361 v 1.105 z"
     id="path3"
     inkscape:connector-curvature="0"
     style="fill:#ed174c" /><path
     d="m 56.704219,101.62168 c 1.225,-0.212 2.379,-0.407 3.511,-0.606 v -0.254 c 5.456,-0.972999 10.709,-1.854999 16.125,-2.652999 0.884,-0.144 1.773,-0.263 2.64,-0.398 v 7.388999 c 0.593,-2.191 1.738,-4.057 3.343,-5.541999 -9.543,-14.15 -17.156,-29.152 -19.102,-44.95 -12.3,14.37 -20.436,31.815 -23.752,50.329999 0.221,-0.051 0.459,-0.106 0.685,-0.146 1.026,-0.239 2.631,-0.583 3.409,-0.756 0.212,-0.055 0.362,-0.078 0.424,-0.104 0.318,-0.064 0.624,-0.126 0.942,-0.186 0,0 0.048,-0.009 0.071,-0.022 0.057,0 0.102,-0.015 0.084,-0.015 0.004,0 0.018,0 0.026,0.011 0.195,-0.038 0.469,-0.068 0.557,-0.086 3.763,-0.363 6.208,0.113 7.791,1.466 0,0.004 0,0.004 0.009,0.004 0.106,0.1 0.221,0.201 0.318,0.31 0.018,0.013 0.035,0.026 0.053,0.04 0.08,0.095 0.177,0.199 0.265,0.307 0.027,0.018 0.036,0.047 0.062,0.078 0.106,0.117 0.204,0.259 0.292,0.407 v -4.238 l 2.247,-0.386 z"
     id="path5"
     inkscape:connector-curvature="0"
     style="fill:#ed174c" /><path
     d="m 42.060219,144.96968 c 0,0 -0.155,0.044 -0.402,0.098 2.356,3.599 6.424,8.843 12.889,14.449 -0.053,-7.587 -0.071,-15.144 -0.071,-22.607 -2.464,4.002 -6.69,6.804 -12.416,8.06"
     id="path7"
     inkscape:connector-curvature="0"
     style="fill:#ed174c" /><path
     d="m 54.581219,165.30468 c -5.739,-4.612 -9.939,-9.14 -12.928,-12.981 4.678,16.841 13.477,32.352 25.945,45.284 7.114,7.371 15.126,13.579 23.77,18.531 14.489001,2.427 25.795001,0.822 33.568001,-4.864 5.881,-4.307 9.604,-10.828 11.129,-19.37 -40.651001,-2.229 -65.655001,-14.215 -80.600001,-25.905 l -0.875,0.149 -0.009,-0.844 z"
     id="path9"
     inkscape:connector-curvature="0"
     style="fill:#ed174c" /><path
     d="m 234.35122,165.01668 c -1.632,-0.3 -3.316,-0.597 -5.045,-0.893 l -3.038,-0.549 -3.126,-0.49 c -5.876,-0.942 -11.92,-1.791 -18.469,-2.596 l -0.725,-0.088 c -3.228,8.276 -5.771,16.138 -7.296,22.991 16.9,-4.138 29.192,-10.708 37.699,-18.375"
     id="path11"
     inkscape:connector-curvature="0"
     style="fill:#ed174c" /><path
     d="m 231.65822,100.25568 c 5.793,0.99 11.368,2.074 17.143,3.278 -3.051,-15.810999 -9.617,-30.399999 -18.854,-42.921999 3.268,11.381 4.471,24.522 0.761,39.582999 0.296,0.06 0.61,0.108 0.95,0.168 v -0.107 z"
     id="path13"
     inkscape:connector-curvature="0"
     style="fill:#ed174c" /><path
     d="m 91.943219,96.184681 c 0,0.013 0,0.049 0.013,0.095 -0.013,-0.021 -0.013,-0.072 -0.013,-0.095"
     id="path15"
     inkscape:connector-curvature="0"
     style="fill:#ed174c" /><path
     d="m 160.38022,85.557681 c -0.058,-0.009 -0.12,-0.018 -0.177,-0.022 h -0.094 c -3.135,-0.422 -4.748,-1.707 -5.602,-2.971 0,0.223 -0.014,1.156 -0.014,1.156 -0.013,0.42 -0.018,0.851 -0.03,1.271 -4.104,0 -8.202,-0.013 -12.292,-0.062 0.106,-7.353 0.212,-14.715 0.305,-22.063 -0.093,0.08 -0.177,0.166 -0.288,0.256 -0.433,0.362 -0.964,0.634 -1.565,0.851 -0.088,6.144 -0.172,12.117 -0.274,18.292 -0.283,0.004 -0.553,0.018 -0.818,0.029 -0.018,0.946 -0.018,1.525 -0.018,1.525 -0.022,0.385 -0.036,0.778 -0.066,1.172 -4.09,0.19 -8.189,0.363 -12.283,0.498 0,0 0.226,-17.896 0.248,-20.388 -0.672,0.038 -1.875,0.1 -2.865,0.15 -0.014,0.035 -0.014,0.077 -0.014,0.113 0,0.009 -4.187,0.349 -6.451,0.526 -0.009,0.352 -0.009,0.688 -0.009,1.042 1.724,-0.168 3.347,-0.327 5.014,-0.427 -0.026,2.337 -0.057,4.563 -0.08,6.942 -0.287,0.018 -0.575,0.026 -0.853,0.053 0,0.526 0,1.046 -0.013,1.568 -0.027,0.367 -0.044,0.743 -0.062,1.118 0,0 -2.498,0.208 -4.147,0.347 -0.018,0.526 -0.026,1.048 -0.036,1.577 2.538,-0.246 4.904,-0.436 7.331,-0.644 0,1.897 -0.035,3.705 -0.058,5.564 -0.278,0.02 -0.553,0.046 -0.831,0.064 -0.018,0.855 -0.031,1.72 -0.04,2.58 -0.473,0.042 -0.955,0.073 -1.441,0.108 -5.164,0.376 -10.408,0.897 -16.116,1.559 -0.641,0.077 -1.278,0.164 -1.928,0.236 0.013,-0.946 0.022,-1.879 0.035,-2.812 -1.22,1.928 -3.347,3.254 -6.146001,3.69 -4.603,0.666 -9.033,1.399 -13.888,2.336 -0.716,0.135 -1.415,0.266 -2.118,0.407 0,0 0.248,-18.712 0.27,-20.872 -0.884,-0.137 -1.685,-0.404 -2.405,-0.924 -0.765,-0.575 -1.715,-1.671 -1.698,-3.504 0.009,-0.141 0.026,-0.285 0.035,-0.435 0,-0.056 0.009,-0.104 0.027,-0.159 0.097,-0.546 0.194,-1.104 0.292,-1.643 0.305,-0.064 0.628,-0.122 0.946,-0.195 0.99,-0.186 1.981,-0.376 2.98,-0.557 v -0.044 c 6.159,-1.229 12.075,-2.255 18.332001,-3.166 h 0.027 c 1.702,-0.181 2.883,-0.082 3.714,0.303 v -0.778 c 0.433,-0.046 0.858,-0.095 1.291,-0.146 0.946,-0.1 1.879,-0.19 2.794,-0.294 v -0.117 c 4.678,-0.535 9.108,-0.968 13.707,-1.34 v -0.022 c 0.478,-0.038 0.946,-0.069 1.437,-0.108 0.279,-0.02 0.57,-0.033 0.845,-0.051 0.075,-0.004 0.15,-0.004 0.221,-0.014 v 0.009 c 0.53,-0.033 1.065,-0.064 1.583,-0.086 v -0.026 c 5.66,-0.363 11.027,-0.58 16.784,-0.666 0.349,0 0.743,0 1.167,0.004 0.026,0.058 0.026,0.126 0.026,0.203 h 1.592 v -0.228 c 3.847,-0.026 7.623,0.02 11.465,0.128 -4.223,-19.198 -9.422,-32.786 -15.015,-39.219 -27.293,0.275 -53.031001,10.769 -72.773001,29.795 -1.171,1.136 -2.317,2.291 -3.422,3.458 0.999,16.437 8.63,31.903 18.756,46.817 0.46,-0.219 0.946,-0.367 1.459,-0.476 2.45,-0.639 5.779,-0.875 7.525,-1.083 l -0.221,0.046 c 0.053,-0.004 0.098,-0.014 0.15,-0.018 0.204,0 0.416,-0.055 0.602,-0.082 2.264,-0.294 13.035001,-1.322 21.665001,-1.861 0.159,-0.009 0.301,-0.022 0.442,-0.022 0.712,-0.06 1.141,-0.086 1.141,-0.086 l 0.367,-0.018 c 0.142,0 0.296,-0.011 0.446,-0.02 h 0.031 c 2.242,-0.104 4.461,-0.199 6.681,-0.274 10.957,-0.486 21.542,-0.595 32.613,-0.358 0.894,0 1.742,0.058 2.477,0.058 0.154,0.721 0.154,1.404 0.154,2.146 v 0.367 c 0,0.721 -0.093,2.213 -0.751,3.844 1.109,-1.127 2.462,-2.074 3.992,-2.852 -0.397,-3.692 -0.84,-7.339 -1.313,-10.947 -0.916,-0.045 -1.835,-0.081 -2.754,-0.128"
     id="path17"
     inkscape:connector-curvature="0"
     style="fill:#ed174c" /><path
     d="m 107.87822,113.11768 c 0.88,0.285 1.716,0.544 2.45,0.856 1.198,0.422 1.963,0.833 2.662,1.291 2.061,1.287 3.135,2.803 3.321,4.795 0.048,0.765 0.084,1.937 0.11,3.559 0.088,1.711 0.115,4.639 0.115,10.002 l -0.018,3.523 c 3.343,4.258 6.531,8.472 9.436,12.628 v -38.102 c -2.812,0.122 -9.718,0.398 -9.718,0.398 v -3.599 c -2.052,2.222 -4.762,3.504 -8.145,3.802 0,0 -0.938,0.078 -2.145,0.19 0.518,0.186 1.065,0.367 1.663,0.562 0,0.095 0.146,0.064 0.269,0.095"
     id="path19"
     inkscape:connector-curvature="0"
     style="fill:#ed174c" /><path
     d="m 140.68622,187.99168 c 7.738,0.301 16.015,0.247 24.893,-0.248 0.946,-9.099 1.494,-19.052 1.685,-29.474 -5.872,-1.813 -11.12,-5.633 -11.178,-14.201 v -32.813 c 0.014,-1.167 0.106,-2.29 0.27,-3.354 -0.177,0.159 -0.354,0.32 -0.539,0.488 l -0.07,0.056 c -1.424,1.107 -1.945,1.87 -3.855,2.341 v 47.04 l -20.542,0.239 c 6.113,10.215 9.91,20.189 9.336,29.926"
     id="path21"
     inkscape:connector-curvature="0"
     style="fill:#ed174c" /><path
     d="m 192.22722,184.40068 c 1.804,-9.249 5.461,-20.002 10.059,-30.963 v -0.39 c -0.553,0.871 -1.242,1.693 -2.038,2.437 -4.178,3.789 -11.076,5.235 -21.798,4.559 -2.052,-0.164 -4.576,-0.358 -7.185,-0.818 -0.177,9.869 -0.694,19.41 -1.579,28.254 8.234,-0.608 15.737,-1.647 22.541,-3.079"
     id="path23"
     inkscape:connector-curvature="0"
     style="fill:#ed174c" /><path
     d="m 226.41922,100.68868 v -1.261999 c 0,0 0.106,0.022 0.318,0.06 4.815,-18.957 1.354,-34.614 -4.377,-48.035 -18.57,-20.065 -44.781,-33.016 -74.078,-34.119 6.296,9.12 10.872,24.444 14.078,39.444 2.335,0.479 3.387,1.453 3.855,3.164 1.424,-1.236 3.343,-1.773 5.076,-1.972 0.553,-0.082 1.114,-0.11 1.671,-0.119 0.345,-0.071 0.672,-0.13 1.035,-0.181 1.445,-0.195 3.002,-0.126 4.678,0.028 2.617,0.234 5.376,0.506 7.233,1.811 v -0.553 c 1.362,0.199 2.724,0.385 4.09,0.566 v -0.602 c 2.569,0.316 5.01,0.67 7.614,1.021 0.394,0.073 0.796,0.137 1.233,0.168 0,0.237 -0.014,0.462 -0.014,0.694 0.495,0.075 0.978,0.157 1.473,0.239 v -0.691 c 5.642,0.851 11.054,1.811 16.651,2.969 0.425,0.086 0.782,0.177 1.185,0.263 0,0.312 0,0.592 0.04,0.919 v 0.186 c 0,0.424 -0.102,1.508 -0.924,2.35 -0.177,1.003 -0.734,2.303 -2.308,3.214 -0.372,0.203 -0.787,0.307 -1.212,0.407 -0.084,5.9 -0.177,11.622 -0.243,17.566 -0.296,-0.048 -0.57,-0.108 -0.854,-0.148 -0.009,1.063 -0.018,1.725 -0.018,1.725 -0.026,0.562 -0.044,1.119 -0.062,1.68 -4.06,-0.708 -8.127,-1.435 -12.195,-2.182 0,0 0.257,-18.382 0.257,-20.167 -0.623,-0.091 -1.273,-0.195 -1.901,-0.294 -0.079,5.6 -0.163,11.142 -0.256,16.857 -0.271,-0.046 -0.531,-0.082 -0.814,-0.12 0,0.557 -0.004,1.119 -0.021,1.676 -0.018,0.535 -0.035,1.055 -0.049,1.585 -4.032,-0.531 -8.047,-1.083 -12.079,-1.654 0.018,-1.004 0.03,-2.014 0.048,-3.02 -0.216,0.219 -0.464,0.431 -0.729,0.621 -2.108,1.453 -5.544,2.047 -10.275,1.685 -0.11,-0.009 -0.234,-0.013 -0.345,-0.026 -1.716,-0.142 -4.767,-0.422 -7.101,-1.744 0.45,3.413 0.866,6.913 1.255,10.477 0.801,-0.217 1.646,-0.411 2.534,-0.562 0.035,0 0.075,-0.009 0.11,-0.009 0.915,-0.276 1.893,-0.502 2.936,-0.674 2.591,-0.427 5.554,-0.471 9.869,-0.172 l 0.026,0.004 c 7.494,0.583 15.179,1.205 18.446,7.520999 v -4.478999 l 4.771,-0.166 c 1.304,-0.038 2.829,0.057 4.475,0.325 4.006,0.241 9.688,1.78 14.219,6.085999 0.232,-0.793 0.467,-1.58 0.679,-2.36"
     id="path25"
     inkscape:connector-curvature="0"
     style="fill:#ed174c" /><path
     d="m 197.59522,205.42068 c 2.405,2.887 6.91,3.294 13.348,1.251 2.477,-1.994 4.886,-4.09 7.198,-6.327 10.196,-9.815 18.15,-21.338 23.66,-33.917 -0.827,-0.159 -1.649,-0.327 -2.48,-0.486 -9.325,9.28 -23.452,17.204 -43.517,21.847 -1.331,8.064 -0.946,14.338 1.791,17.632"
     id="path27"
     inkscape:connector-curvature="0"
     style="fill:#ed174c" /><path
     d="m 194.45622,208.02968 c -3.383,-4.067 -4.099,-10.895 -2.949,-19.326 -6.773,1.353 -14.188,2.334 -22.263,2.896 -1.834,15.657 -4.903,28.855 -9.475,37.424 15.78,-2.281 30.738,-8.082 43.932,-17.014 -3.948,-0.041 -7.057,-1.349 -9.245,-3.98"
     id="path29"
     inkscape:connector-curvature="0"
     style="fill:#ed174c" /><path
     d="m 140.16422,192.09868 c -1.654,9.749 -6.04,17.505 -12.809,22.479 -6.57,4.798 -15.214,7.044 -25.782,6.726 12.689,5.549 26.471,8.587 40.74,8.852 4.178,0.071 8.304,-0.119 12.394,-0.513 4.965,-7.41 8.396,-20.927 10.43,-37.777 -8.896,0.467 -17.209,0.52 -24.973,0.233"
     id="path31"
     inkscape:connector-curvature="0"
     style="fill:#ed174c" /><path
     d="m 262.46822,142.29468 c -1.641,-0.885 -3.329,-1.87 -4.921,-3.056 -0.61,4.528 -1.508,9.339 -2.636,13.672 l 0.773,0.181 v -0.035 c 2.335,0.562 4.563,1.074 6.818,1.605 0.009,-1.256 0.009,-3.056 0.009,-4.612 0,-2.904 -0.012,-5.946 -0.043,-7.755"
     id="path33"
     inkscape:connector-curvature="0"
     style="fill:#0067b1" /><path
     d="m 31.174219,106.86568 c 8.427,-55.803999 57.223,-98.5709987 115.145001,-97.5209987 56.339,1.0279997 102.548,42.8349997 110.936,96.7089987 1.688,-0.208 3.599,-0.062 5.721,0.462 v 0.013 c 0.142,0.046 1.42,0.38 1.628,0.431 0.035,0.009 0.093,0.018 0.142,0.026 h -0.027 c 0.598,0.155 1.345,0.345 2.176,0.557 -3.396,-26.082999 -15.007,-50.335999 -33.656,-69.668999 -22.952,-23.808 -53.748,-37.24899972 -86.746,-37.85299972 C 82.539219,-1.1453187 28.888219,47.132681 21.447219,109.32368 c 1.667,-0.44 3.356,-0.869 5.023,-1.287 1.582,-0.415 3.139,-0.809 4.704,-1.171"
     id="path35"
     inkscape:connector-curvature="0"
     style="fill:#0067b1" /><path
     d="m 250.67122,168.24568 v -2.667 c 0,0.005 -0.013,0.005 -0.013,0.022 v 2.645 l -0.991,-0.213 c -17.654,41.81 -59.434,70.891 -107.504,70.011 -52.130001,-0.946 -95.956001,-37.446 -108.792001,-85.494 v 13.122 c -0.013,0.005 -0.013,0.005 -0.022,0.005 v 4.59 0.026 l -1.724,0.438 c -0.54,0.119 -1.07,0.252 -1.601,0.371 18.313,43.985 61.361,75.348 111.970001,76.258 32.988,0.61 64.258,-11.703 88.071,-34.66 12.69,-12.252 22.431,-26.715 28.864,-42.562 -1.985,-0.473 -4.002,-0.928 -6.177,-1.419 l -2.081,-0.473 z"
     id="path37"
     inkscape:connector-curvature="0"
     style="fill:#0067b1" /><path
     d="m 116.50922,138.33268 -0.031,5.417 c 3.458,4.527 6.663,8.979 9.475,13.361 v -7.34 c -2.905,-4.156 -6.093,-8.37 -9.436,-12.628 l -0.008,1.19 z"
     id="path39"
     inkscape:connector-curvature="0"
     style="fill:#ffffff" /><path
     d="m 241.80122,166.42768 c -5.51,12.579 -13.464,24.102 -23.66,33.917 -2.313,2.237 -4.722,4.333 -7.198,6.327 -6.438,2.043 -10.942,1.636 -13.348,-1.251 -2.737,-3.294 -3.122,-9.568 -1.791,-17.633 20.064,-4.643 34.191,-12.566 43.517,-21.847 -1.623,-0.314 -3.272,-0.615 -4.97,-0.925 -8.507,7.667 -20.799,14.237 -37.698,18.376 1.525,-6.854 4.068,-14.715 7.296,-22.991 l -1.663,-0.195 v -6.769 c -4.598,10.961 -8.255,21.714 -10.059,30.963 -6.805,1.433 -14.308,2.472 -22.541,3.078 0.885,-8.844 1.402,-18.385 1.579,-28.254 -1.331,-0.229 -2.68,-0.548 -4.002,-0.955 -0.19,10.422 -0.738,20.375 -1.685,29.474 -8.878,0.495 -17.155,0.549 -24.893,0.248 0.575,-9.736 -3.223,-19.711 -9.338,-29.925 l -4.758,0.053 c 6.473,10.329 10.594,20.255 10.028,29.682 -36.681001,-2.073 -60.296001,-12.349 -75.104001,-22.819 -1.233,0.199 -2.502,0.411 -3.812,0.637 l -2.237,0.381 c 14.945,11.69 39.949,23.677 80.600001,25.905 -1.525,8.542 -5.248,15.063 -11.129,19.37 -7.773,5.687 -19.079,7.291 -33.568001,4.864 -8.644,-4.952 -16.656,-11.16 -23.77,-18.531 -12.469,-12.933 -21.268,-28.443 -25.945,-45.284 2.989,3.842 7.189,8.369 12.928,12.981 l -0.026,-2.321 c 0,-1.159 -0.009,-2.309 -0.009,-3.467 -6.464,-5.606 -10.532,-10.851 -12.889,-14.449 -2.131,0.469 -6.835,1.477 -8.286,1.79 v 2.162 3.454 c 13.057,47.734 56.887,84.623 108.792001,85.569 48.07,0.88 89.85,-28.201 107.504,-70.011 l -2.25,-0.473 c -1.874,-0.393 -3.736,-0.765 -5.615,-1.131 m -99.488,63.727 c -14.269,-0.265 -28.05,-3.303 -40.74,-8.852 10.567,0.318 19.211,-1.928 25.782,-6.726 6.769,-4.974 11.155,-12.729 12.809,-22.479 7.764,0.287 16.077,0.234 24.972,-0.234 -2.033,16.851 -5.465,30.367 -10.43,37.777 -4.089,0.395 -8.215,0.585 -12.393,0.514 m 17.456,-1.132 c 4.571,-8.568 7.641,-21.767 9.475,-37.424 8.074,-0.562 15.489,-1.543 22.263,-2.896 -1.149,8.432 -0.434,15.259 2.949,19.326 2.188,2.631 5.297,3.939 9.245,3.979 -13.193,8.933 -28.151,14.734 -43.932,17.015"
     id="path41"
     inkscape:connector-curvature="0"
     style="fill:#ffffff" /><path
     d="m 165.31322,83.254681 c -0.018,0.389 -0.018,0.761 -0.026,1.146 v 1.379 c -0.716,-0.036 -1.437,-0.062 -2.153,-0.093 0.474,3.608 0.916,7.255 1.313,10.947 1.176,-0.59 2.48,-1.083 3.908,-1.459 -0.389,-3.563 -0.805,-7.063 -1.255,-10.477 -0.673,-0.389 -1.291,-0.859 -1.787,-1.443"
     id="path43"
     inkscape:connector-curvature="0"
     style="fill:#ffffff" /><path
     d="m 250.65822,131.11368 v 34.487 c 0,-0.018 0.013,-0.018 0.013,-0.022 v -10.611 -3.055 l 4.24,0.999 c 1.128,-4.333 2.025,-9.144 2.636,-13.672 -2.724,-2.025 -5.201,-4.603 -6.889,-8.126"
     id="path45"
     inkscape:connector-curvature="0"
     style="fill:#ffffff" /><path
     d="m 225.74222,103.04968 c 0.226,0.216 0.456,0.433 0.677,0.659 v -3.02 c -0.212,0.78 -0.447,1.567 -0.677,2.361"
     id="path47"
     inkscape:connector-curvature="0"
     style="fill:#ffffff" /><path
     d="m 63.221219,54.607681 c 1.946,15.798 9.56,30.8 19.101,44.949 0.955,-0.882 2.052,-1.687 3.352,-2.235 -10.125,-14.914 -17.757,-30.38 -18.756,-46.817 1.105,-1.167 2.25,-2.321 3.422,-3.458 19.742,-19.026 45.480001,-29.52 72.774001,-29.792 5.593,6.433 10.792,20.021 15.015,39.219 1.025,0.035 2.074,0.066 3.112,0.104 h 0.066 c 0.027,0 0.063,0.022 0.084,0.022 0.358,0.051 0.668,0.108 0.969,0.177 -3.206,-15 -7.782,-30.325 -14.078,-39.444 29.297,1.103 55.508,14.054 74.078,34.119 5.73,13.421 9.192,29.078 4.377,48.035 0.602,0.108 2.052,0.363 3.971,0.708999 3.71,-15.061999 2.507,-28.201999 -0.761,-39.582999 9.236,12.522 15.803,27.111 18.854,42.921999 0.509,0.108 0.999,0.212 1.517,0.316 v 0.073 l 0.341,0.073 v 6.288 c 0.663,-1.198 1.573,-2.191 2.728,-2.925 1.119,-0.701 2.41,-1.127 3.869,-1.304 -8.388,-53.873999 -54.597,-95.681999 -110.936,-96.7089987 -57.922001,-1.05 -106.718001,41.7169997 -115.145001,97.5209987 0.301,-0.064 0.606,-0.146 0.906,-0.212 0.69,-0.168 1.38,-0.336 2.083,-0.504 1.76,-0.416 3.524,-0.855 5.306,-1.236 3.315,-18.510999 11.451,-35.928999 23.751,-50.307999"
     id="path49"
     inkscape:connector-curvature="0"
     style="fill:#ffffff" /><path
     d="m 33.349219,170.29168 v -0.026 -4.59 c -6.424,1.512 -12.805,3.056 -19.229,4.877 v -47.058 c -4.7179999,0.742 -6.7959999,-1.057 -7.6979999,-2.459 -0.425,-0.718 -1.066,-2.427 -1.097,-4.121 0.031,-0.973 0.243,-1.881 0.827,-2.62 0.27,-0.323 0.464,-0.617 0.774,-0.946 4.6339999,-1.351 9.2099999,-2.622 13.7379999,-3.827 -5.531,1.413 -11.1779999,3.089 -17.0979999,4.773 l -0.796,0.225 c 0,0 -2.86099995,2.487 -2.76799995,5.819 v 0.135 c 0.026,2.105 0.805,3.688 1.51199995,4.833 0.964,1.503 3.108,3.656 7.366,3.851 v 47.337 l 3.4219999,-0.95 c 5.996,-1.672 12.009,-3.117 17.722,-4.444 0.53,-0.119 1.061,-0.252 1.601,-0.371 l 1.724,-0.438 z"
     id="path51"
     inkscape:connector-curvature="0"
     style="fill:#002d62" /><path
     d="m 26.469219,108.03768 c 1.658,-0.424 3.316,-0.831 4.979,-1.236 -0.097,0.029 -0.186,0.046 -0.274,0.064 -1.565,0.362 -3.122,0.756 -4.705,1.172"
     id="path53"
     inkscape:connector-curvature="0"
     style="fill:#002d62" /><path
     d="m 42.060219,144.96968 c 5.726,-1.256 9.953,-4.059 12.416,-8.061 0,7.464 0.018,15.021 0.071,22.607 0,1.158 0.009,2.308 0.009,3.467 l 0.026,2.321 0.009,0.844 0.875,-0.149 2.237,-0.381 c 1.309,-0.226 2.578,-0.438 3.812,-0.637 5.479,-0.915 10.32,-1.667 14.971,-2.316 l 2.317,-0.336 v -5.288 c -6.217,0.897 -12.27,1.888 -18.491,2.962 -0.159,-19.928 -0.062,-39.062 -0.097,-58.987 -1.132,0.199 -2.286,0.394 -3.511,0.606 l -2.246,0.385 v 4.238 c 1.999,2.984 1.928,8.485 1.928,16.822 0,0.372 -0.026,0.716 -0.026,1.079 v 0.871 c -0.058,7.711 -4.669,12.862 -12.597,14.631 -3.501,0.752 -6.867,1.512 -10.391,2.344 v 4.867 c 2.264,-0.49 6.973,-1.503 8.286,-1.79 0.247,-0.055 0.402,-0.099 0.402,-0.099"
     id="path55"
     inkscape:connector-curvature="0"
     style="fill:#002d62" /><path
     d="m 40.154219,104.79168 c 1.189,-0.276 2.388,-0.543 3.595,-0.811 -0.053,0.024 -0.124,0.038 -0.186,0.055 -0.778,0.172 -2.383,0.517 -3.409,0.756"
     id="path57"
     inkscape:connector-curvature="0"
     style="fill:#002d62" /><path
     d="m 226.41922,100.68868 v 3.02 c 1.95,2.025 3.647,4.596 4.828,7.866 0.129,0.458 0.283,0.833 0.411,1.318 v -12.528 c -0.34,-0.06 -0.654,-0.108 -0.95,-0.168 -1.919,-0.346999 -3.369,-0.600999 -3.971,-0.708999 -0.212,-0.038 -0.318,-0.06 -0.318,-0.06 v 1.260999 z"
     id="path59"
     inkscape:connector-curvature="0"
     style="fill:#002d62" /><path
     d="m 289.64222,118.00768 v -0.139 c 0,0.226 0.004,0.458 0.004,0.683 0,0.058 -0.469,2.169 -1.667,3.378 -1.592,1.879 -4.019,2.392 -7.114,1.535 -3.063,-0.823 -6.088,-1.625 -9.152,-2.458 v 1.317 c 0,1.923 1.477,3.382 3.953,5.191 1.074,0.287 2.052,0.549 2.052,0.549 5.447,1.512 8.444,-0.827 9.754,-2.37 -0.045,0.049 -0.08,0.097 -0.129,0.142 l 0.142,-0.155 c -0.013,0 -0.013,0.009 -0.013,0.014 0,-0.005 0.013,-0.014 0.013,-0.014 1.693,-1.83 2.229,-4.519 2.229,-5.149 l -0.072,-2.524 z"
     id="path61"
     inkscape:connector-curvature="0"
     style="fill:#002d62" /><path
     d="m 262.97522,106.51668 c -2.122,-0.524 -4.032,-0.67 -5.721,-0.462 -1.459,0.177 -2.75,0.604 -3.869,1.304 -1.154,0.734 -2.064,1.727 -2.728,2.925 v -6.288 l -0.341,-0.073 v 59.237 c -6.018,-1.3 -11.837,-2.414 -18.026,-3.498 0,0 -3.334,-8.184 -6.128,-14.984 v 13.928 c -6.138,-1.003 -12.23,-1.856 -18.39,-2.626 v -58.960999 -0.055 c 0.721,-0.026 2.104,-0.031 2.104,-0.031 0.518,-0.016 1.065,0 1.646,0.031 -1.646,-0.268 -3.171,-0.362 -4.475,-0.325 l -4.771,0.166 v 4.478999 c 0.995,1.961 1.609,4.45 1.637,7.66 v 33.082 c 0,0 -0.036,1.37 -0.036,1.41 -0.039,2.932 -1.083,5.372 -3.086,7.238 -3.511,3.245 -9.908,4.527 -19.592,3.908 -7.804,-0.605 -19.592,-1.525 -19.676,-13.424 v -33.097 c 0.063,-7.114 3.162,-11.541999 9.476,-13.456999 -0.035,0 -0.075,0.009 -0.11,0.009 -0.889,0.15 -1.733,0.345 -2.534,0.562 -1.428,0.376 -2.732,0.869 -3.908,1.459 -1.53,0.778 -2.883,1.725 -3.992,2.852 -0.5,1.193999 -1.287,2.466999 -2.587,3.563999 -1.627,1.289 -3.652,2.009 -6.005,2.23 v 47.038 c -6.481,-0.062 -12.729,0 -19.189,0.221 v -46.91 c -3.374,0.082 -6.385,0.221 -9.625,0.394 V 93.563681 c 0.973,-0.056 1.937,-0.095 2.914,-0.135 -2.219,0.075 -4.439,0.17 -6.681,0.274 0,0.716 0.181,1.346 0.181,2.056 0,0.491 0.062,0.915 0.062,1.373 0,0.462 -0.062,0.864 -0.062,1.253 v 0.091 c 0,0.038 -0.035,0.055 -0.035,0.055 0,0.429 -0.363,1.954999 -1.406,3.634999 -1.627,2.544 -4.006,3.944 -7.26,4.233 -3.068,0.221 -6.066,0.479 -9.166,0.798 v 1.285 c 0.022,2.069 1.663,3.007 4.351,3.979 1.207,-0.113 2.145,-0.19 2.145,-0.19 3.382,-0.298 6.093,-1.581 8.145,-3.802 v 3.599 c 0,0 6.906,-0.276 9.718,-0.398 v 38.102 7.34 1.017 l 0.637,-0.009 4.758,-0.053 20.542,-0.239 v -47.04 c 1.91,-0.471 2.432,-1.233 3.855,-2.341 l 0.07,-0.056 c 0.186,-0.168 0.362,-0.329 0.539,-0.488 -0.163,1.063 -0.256,2.187 -0.27,3.354 v 32.813 c 0.058,8.568 5.306,12.389 11.178,14.201 1.322,0.407 2.671,0.726 4.002,0.955 2.608,0.46 5.133,0.654 7.185,0.818 10.722,0.677 17.62,-0.77 21.798,-4.559 0.796,-0.743 1.485,-1.565 2.038,-2.437 v 0.39 6.769 l 1.663,0.195 0.725,0.088 c 6.549,0.805 12.593,1.653 18.469,2.596 l 3.126,0.49 3.038,0.549 c 1.729,0.296 3.413,0.593 5.045,0.893 1.697,0.31 3.347,0.61 4.97,0.925 0.831,0.159 1.653,0.327 2.48,0.486 1.879,0.366 3.74,0.738 5.615,1.132 l 2.25,0.473 0.991,0.213 v -2.645 -34.487 c 1.688,3.523 4.165,6.102 6.889,8.126 1.592,1.186 3.28,2.171 4.921,3.056 0.031,1.809 0.044,4.851 0.044,7.755 0,1.557 0,3.356 -0.009,4.612 1.658,0.38 3.325,0.778 5.071,1.193 0,-3.431 0.063,-15.431 -0.097,-17.199 0,-0.071 -0.159,-0.093 -0.222,-0.124 -0.114,-0.062 -0.31,-0.146 -0.424,-0.199 -4.378,-2.264 -9.591,-5.465 -11.982,-11.642 -0.593,-1.508 -0.663,-3.909 -0.708,-6.433 -0.062,-3.496 0.553,-8.512 0.553,-8.947 0.885,-3.902 4.408,-5.664 9.909,-4.351 -0.208,-0.051 -1.486,-0.385 -1.628,-0.431 v -0.014 z"
     id="path63"
     inkscape:connector-curvature="0"
     style="fill:#002d62" /><path
     d="m 264.66122,106.98268 c 0.189,0.06 1.272,0.323 2.913,0.738 -0.229,-0.055 -0.46,-0.108 -0.681,-0.177 -0.831,-0.212 -1.578,-0.402 -2.176,-0.557 -0.021,0 -0.043,0 -0.056,-0.004"
     id="path65"
     inkscape:connector-curvature="0"
     style="fill:#002d62" /><path
     d="m 287.63022,113.18568 -0.513,-0.15 c 0.558,0.168 1.114,0.367 1.676,0.548 l -1.163,-0.398 z"
     id="path67"
     inkscape:connector-curvature="0"
     style="fill:#002d62" /><path
     d="m 289.50122,113.82868 h -0.009 c 0,0.977 0.066,1.955 0.11,2.947 l -0.101,-2.947 z"
     id="path69"
     inkscape:connector-curvature="0"
     style="fill:#002d62" /><path
     d="m 286.44122,139.98268 c 0.013,0.212 0.018,0.429 0.026,0.659 10e-4,-0.217 0.013,-0.438 -0.026,-0.659"
     id="path71"
     inkscape:connector-curvature="0"
     style="fill:#002d62" /><path
     d="m 286.52922,163.49168 c 0,0 -0.062,0.854 -0.389,1.49 -1.937,3.719 -6.04,4.97 -12.54,3.568 0.036,0 -0.021,-0.022 -0.021,-0.022 -6.173,-1.609 -11.744,-2.979 -17.895,-4.346 v -11.09 l -0.773,-0.181 -4.24,-0.999 v 3.055 10.611 2.667 l 2.083,0.473 c 2.175,0.491 4.191,0.946 6.177,1.419 3.745,0.885 7.344,1.796 11.558,2.883 l 0.049,0.018 0.084,0.04 c 9.515,2.061 13.454,-1.561 15.219,-4.952 0.535,-1.034 0.667,-2.197 0.689,-2.524 l 0.014,-0.102 0.021,-4.063 0.04,-7.959 c 0,-0.38 0,-0.849 -0.004,-1.349 -0.005,4.63 -0.071,9.06 -0.071,11.279 v 0.084 z"
     id="path73"
     inkscape:connector-curvature="0"
     style="fill:#002d62" /><path
     d="m 35.790219,118.00768 c -0.58,0.142 -1.194,0.263 -1.769,0.345 -0.314,0.086 -0.593,0.113 -0.867,0.199 v 12.553 c 1.317,-0.318 2.573,-0.606 3.895,-0.894 0,-1.459 -0.057,-11.12 -0.057,-11.492 -0.313,-0.689 -0.468,-0.824 -1.202,-0.711"
     id="path75"
     inkscape:connector-curvature="0"
     style="fill:#002d62" /><path
     d="m 181.63722,106.96968 -0.07,-0.009 h -0.053 c -0.106,-0.022 -0.213,-0.022 -0.314,-0.022 -0.058,0.416 -0.093,0.838 -0.093,1.262 v 0.172 l -0.026,0.164 c -0.044,0.411 -0.066,0.855 -0.066,1.313 0,0.307 0,0.619 0,0.937 l 0.031,0.9 v 23.476 0.097 c -0.031,0.469 -0.031,0.876 -0.031,1.229 0,1.777 0.394,2.229 2.958,2.44 0.133,0.005 0.518,0.022 0.518,0.022 h 0.154 c 0,-0.322 0.058,-1.737 0.058,-1.737 v -23.213 c 0,-2.962 0,-5.524 -0.425,-6.38 -0.19,-0.366 -1.535,-0.556 -2.641,-0.651"
     id="path77"
     inkscape:connector-curvature="0"
     style="fill:#002d62" /><path
     d="m 97.360219,126.32068 0,0 c 0.022,0 0.035,0 0,0"
     id="path79"
     inkscape:connector-curvature="0"
     style="fill:#002d62" /><path
     d="m 79.143219,122.94668 c 2.772,6.182 8.538,7.989 12.376,8.768 0.026,2.9 0.053,10.254 0.066,12.416 1.932,-0.203 3.869,-0.425 5.867,-0.654 0,-5.801 -0.093,-11.342 -0.093,-17.155 -0.049,0.004 -0.212,0.004 -0.212,-0.058 -0.146,-0.022 -0.274,-0.049 -0.424,-0.049 -4.391,-0.743 -9.59,-2.069 -11.987,-7.377 -0.575,-1.317 -0.699,-3.663 -0.699,-6.23 0,-3.409 0.23,-6.933 0.394,-7.983 v 0.204 c 0,-0.46 0.155,-0.896 0.155,-1.322 0.77,-3.571999 3.387,-6.092999 7.371,-7.202999 0.018,0 0.031,-0.009 0.049,-0.018 0.765,-0.208 1.574,-0.372 2.432,-0.475 l 0.221,-0.046 c -1.747,0.208 -5.076,0.444 -7.525,1.083 -0.54,0.13 -1.035,0.298 -1.459,0.476 -1.3,0.548 -2.396,1.353 -3.352,2.235 -1.605,1.484999 -2.75,3.351999 -3.343,5.541999 v 17.427 c 0.052,0.149 0.096,0.291 0.163,0.419 m 12.813,-26.665999 c -0.013,-0.046 -0.013,-0.082 -0.013,-0.095 0,0.022 0,0.073 0.013,0.095"
     id="path81"
     inkscape:connector-curvature="0"
     style="fill:#002d62" /><path
     d="m 79.620219,145.62368 0.066,2.202 0.075,14.449 3.321,-0.415 c 5.562,-0.708 11.036,-1.31 17.765001,-1.928 l 0.137,-0.014 c 10.28,-1.344 15.493,-6.416 15.493,-15.064 v -1.104 l 0.031,-5.417 0.009,-1.189 0.018,-3.523 c 0,-5.363 -0.026,-8.291 -0.115,-10.002 0.035,1.786 0.035,4.126 0.035,7.079 0,3.175 -0.062,6.81 -0.062,11.244 0,8.768 -5.898,11.314 -12.902,12.123 0.035,-0.004 -0.027,0 -0.027,0 -6.155001,0.558 -11.863001,1.163 -17.863001,1.941 0,-3.749 -0.071,-7.375 -0.071,-11.098 0.071,-0.009 0.15,-0.018 0.217,-0.026 -3.107,0.371 -6.127,0.742 -6.127,0.742"
     id="path83"
     inkscape:connector-curvature="0"
     style="fill:#002d62" /><path
     d="m 157.37322,63.640681 v -0.199 c 0.035,-1.209 -0.168,-1.433 -0.203,-1.459 -0.142,-0.091 -0.717,-0.113 -1.203,-0.108 h -0.15 c -0.062,0 -0.106,-0.018 -0.172,-0.018 -0.031,1.771 -0.031,3.486 -0.054,5.271 0.544,-0.009 1.065,0.018 1.614,0.04 0.062,-0.055 0.062,-0.113 0.062,-0.168 v -0.027 c 0,-0.113 0.026,-0.221 0.026,-0.338 0.08,-0.734 0.063,-0.929 0.08,-2.061 v -0.933 z"
     id="path85"
     inkscape:connector-curvature="0"
     style="fill:#ed174c" /><path
     d="m 157.37322,63.640681 v -0.199 c 0.035,-1.209 -0.168,-1.433 -0.203,-1.459 -0.142,-0.091 -0.717,-0.113 -1.203,-0.108 h -0.15 c -0.062,0 -0.106,-0.018 -0.172,-0.018 -0.031,1.771 -0.031,3.486 -0.054,5.271 0.544,-0.009 1.065,0.018 1.614,0.04 0.062,-0.055 0.062,-0.113 0.062,-0.168 v -0.027 c 0,-0.113 0.026,-0.221 0.026,-0.338 0.08,-0.734 0.063,-0.929 0.08,-2.061 v -0.933 z"
     id="path87"
     inkscape:connector-curvature="0"
     style="fill:#002d62" /><path
     d="m 157.98322,79.465681 c -0.089,-0.11 -0.15,-0.288 -0.173,-1.775 0,-0.177 -0.022,-0.314 -0.022,-0.513 -0.062,-1.068 -0.088,-3.301 -0.062,-4.061 0,-0.281 0.062,-1.105 -2.047,-1.167 h -0.173 c -0.062,3.478 -0.093,6.774 -0.146,10.245 -3.056,-0.071 -6.04,-0.088 -9.068,-0.04 0.11,-8.662 0.256,-16.943 0.371,-25.581 h -1.592 c 0.035,0.234 0.044,0.484 0.044,0.719 v 0.172 c 0,0.458 -0.114,1.649 -1.025,2.699 -0.212,0.842 -0.659,1.837 -1.614,2.704 -0.093,7.348 -0.199,14.71 -0.305,22.063 4.09,0.049 8.188,0.062 12.292,0.062 0.013,-0.42 0.018,-0.851 0.03,-1.271 0,0 0.014,-0.933 0.014,-1.156 0.854,1.264 2.467,2.549 5.602,2.971 h 0.094 c 0.057,0.004 0.119,0.013 0.177,0.022 0.919,0.046 1.839,0.082 2.754,0.128 -0.123,-0.988 -0.265,-1.999 -0.406,-2.985 -2.535,-0.384 -4.153,-1.481 -4.745,-3.236"
     id="path89"
     inkscape:connector-curvature="0"
     style="fill:#ed174c" /><path
     d="m 157.98322,79.465681 c -0.089,-0.11 -0.15,-0.288 -0.173,-1.775 0,-0.177 -0.022,-0.314 -0.022,-0.513 -0.062,-1.068 -0.088,-3.301 -0.062,-4.061 0,-0.281 0.062,-1.105 -2.047,-1.167 h -0.173 c -0.062,3.478 -0.093,6.774 -0.146,10.245 -3.056,-0.071 -6.04,-0.088 -9.068,-0.04 0.11,-8.662 0.256,-16.943 0.371,-25.581 h -1.592 c 0.035,0.234 0.044,0.484 0.044,0.719 v 0.172 c 0,0.458 -0.114,1.649 -1.025,2.699 -0.212,0.842 -0.659,1.837 -1.614,2.704 -0.093,7.348 -0.199,14.71 -0.305,22.063 4.09,0.049 8.188,0.062 12.292,0.062 0.013,-0.42 0.018,-0.851 0.03,-1.271 0,0 0.014,-0.933 0.014,-1.156 0.854,1.264 2.467,2.549 5.602,2.971 h 0.094 c 0.057,0.004 0.119,0.013 0.177,0.022 0.919,0.046 1.839,0.082 2.754,0.128 -0.123,-0.988 -0.265,-1.999 -0.406,-2.985 -2.535,-0.384 -4.153,-1.481 -4.745,-3.236"
     id="path91"
     inkscape:connector-curvature="0"
     style="fill:#002d62" /><path
     d="m 162.97422,82.732681 c 0,-0.022 -0.021,0 -0.058,0 -0.062,-0.009 -0.123,-0.018 -0.189,-0.031 0.142,0.986 0.283,1.997 0.406,2.985 0.717,0.031 1.438,0.057 2.153,0.093 v -1.38 c 0.009,-0.385 0.009,-0.756 0.026,-1.146 -0.132,-0.141 -0.256,-0.29 -0.362,-0.449 -0.653,-0.017 -1.308,-0.041 -1.976,-0.072"
     id="path93"
     inkscape:connector-curvature="0"
     style="fill:#ffffff" /><path
     d="m 162.97422,82.732681 c 0,-0.022 -0.021,0 -0.058,0 -0.062,-0.009 -0.123,-0.018 -0.189,-0.031 0.142,0.986 0.283,1.997 0.406,2.985 0.717,0.031 1.438,0.057 2.153,0.093 v -1.38 c 0.009,-0.385 0.009,-0.756 0.026,-1.146 -0.132,-0.141 -0.256,-0.29 -0.362,-0.449 -0.653,-0.017 -1.308,-0.041 -1.976,-0.072"
     id="path95"
     inkscape:connector-curvature="0"
     style="fill:#002d62" /><path
     d="m 188.13722,64.378681 c -0.07,4.826 -0.146,9.427 -0.212,14.253 0,0.194 -0.026,0.402 -0.026,0.597 -0.036,0.951 -0.372,1.758 -0.965,2.403 -0.186,0.971 -0.654,1.826 -1.384,2.531 -0.018,1.006 -0.03,2.016 -0.048,3.02 4.032,0.57 8.047,1.123 12.079,1.654 0.014,-0.531 0.031,-1.05 0.049,-1.585 0.018,-0.557 0.021,-1.119 0.021,-1.676 -2.675,-0.389 -5.301,-0.756 -8.029,-1.054 0.115,-8.457 0.261,-16.548 0.376,-25.001 -1.366,-0.181 -2.728,-0.367 -4.09,-0.566 v 0.553 c 1.354,0.941 2.229,2.426 2.229,4.871"
     id="path97"
     inkscape:connector-curvature="0"
     style="fill:#ed174c" /><path
     d="m 188.13722,64.378681 c -0.07,4.826 -0.146,9.427 -0.212,14.253 0,0.194 -0.026,0.402 -0.026,0.597 -0.036,0.951 -0.372,1.758 -0.965,2.403 -0.186,0.971 -0.654,1.826 -1.384,2.531 -0.018,1.006 -0.03,2.016 -0.048,3.02 4.032,0.57 8.047,1.123 12.079,1.654 0.014,-0.531 0.031,-1.05 0.049,-1.585 0.018,-0.557 0.021,-1.119 0.021,-1.676 -2.675,-0.389 -5.301,-0.756 -8.029,-1.054 0.115,-8.457 0.261,-16.548 0.376,-25.001 -1.366,-0.181 -2.728,-0.367 -4.09,-0.566 v 0.553 c 1.354,0.941 2.229,2.426 2.229,4.871"
     id="path99"
     inkscape:connector-curvature="0"
     style="fill:#002d62" /><path
     d="m 140.65922,61.814681 c -0.013,0.734 -0.026,1.446 -0.036,2.16 0.602,-0.217 1.132,-0.489 1.565,-0.851 0.11,-0.091 0.194,-0.177 0.288,-0.256 0.013,-0.522 0.018,-1.028 0.031,-1.554 -0.565,0.249 -1.185,0.426 -1.848,0.501"
     id="path101"
     inkscape:connector-curvature="0"
     style="fill:#ed174c" /><path
     d="m 140.65922,61.814681 c -0.013,0.734 -0.026,1.446 -0.036,2.16 0.602,-0.217 1.132,-0.489 1.565,-0.851 0.11,-0.091 0.194,-0.177 0.288,-0.256 0.013,-0.522 0.018,-1.028 0.031,-1.554 -0.565,0.249 -1.185,0.426 -1.848,0.501"
     id="path103"
     inkscape:connector-curvature="0"
     style="fill:#002d62" /><path
     d="m 125.29022,57.147681 c -0.274,0.018 -0.566,0.031 -0.845,0.051 -0.491,0.04 -0.959,0.071 -1.437,0.108 v 0.022 c 0.416,-0.038 0.836,-0.073 1.26,-0.104 0.337,-0.017 0.695,-0.055 1.022,-0.077"
     id="path105"
     inkscape:connector-curvature="0"
     style="fill:#ed174c" /><path
     d="m 125.29022,57.147681 c -0.274,0.018 -0.566,0.031 -0.845,0.051 -0.491,0.04 -0.959,0.071 -1.437,0.108 v 0.022 c 0.416,-0.038 0.836,-0.073 1.26,-0.104 0.337,-0.017 0.695,-0.055 1.022,-0.077"
     id="path107"
     inkscape:connector-curvature="0"
     style="fill:#002d62" /><path
     d="m 131.55122,62.214681 c -1.539,0.095 -3.006,0.179 -4.537,0.29 0.027,-1.826 0.058,-3.599 0.08,-5.447 -0.517,0.022 -1.052,0.053 -1.583,0.086 -0.027,1.828 -0.062,3.585 -0.062,5.378 -0.279,0.027 -0.557,0.044 -0.845,0.062 0,0.557 0,1.114 -0.018,1.671 -0.018,0.332 -0.031,0.666 -0.04,0.997 0.99,-0.051 2.193,-0.113 2.865,-0.15 -0.022,2.492 -0.248,20.388 -0.248,20.388 4.094,-0.135 8.193,-0.308 12.283,-0.498 0.031,-0.394 0.044,-0.787 0.066,-1.172 0,0 0,-0.579 0.018,-1.525 -2.777,0.08 -5.514,0.186 -8.25,0.376 0.09,-6.942 0.174,-13.521 0.271,-20.456"
     id="path109"
     inkscape:connector-curvature="0"
     style="fill:#ed174c" /><path
     d="m 131.55122,62.214681 c -1.539,0.095 -3.006,0.179 -4.537,0.29 0.027,-1.826 0.058,-3.599 0.08,-5.447 -0.517,0.022 -1.052,0.053 -1.583,0.086 -0.027,1.828 -0.062,3.585 -0.062,5.378 -0.279,0.027 -0.557,0.044 -0.845,0.062 0,0.557 0,1.114 -0.018,1.671 -0.018,0.332 -0.031,0.666 -0.04,0.997 0.99,-0.051 2.193,-0.113 2.865,-0.15 -0.022,2.492 -0.248,20.388 -0.248,20.388 4.094,-0.135 8.193,-0.308 12.283,-0.498 0.031,-0.394 0.044,-0.787 0.066,-1.172 0,0 0,-0.579 0.018,-1.525 -2.777,0.08 -5.514,0.186 -8.25,0.376 0.09,-6.942 0.174,-13.521 0.271,-20.456"
     id="path111"
     inkscape:connector-curvature="0"
     style="fill:#002d62" /><path
     d="m 144.09122,60.162681 c -0.177,0.195 -0.363,0.389 -0.602,0.57 -0.283,0.23 -0.624,0.42 -0.981,0.58 -0.013,0.526 -0.018,1.032 -0.031,1.554 0.954,-0.866 1.401,-1.861 1.614,-2.704"
     id="path113"
     inkscape:connector-curvature="0"
     style="fill:#ed174c" /><path
     d="m 144.09122,60.162681 c -0.177,0.195 -0.363,0.389 -0.602,0.57 -0.283,0.23 -0.624,0.42 -0.981,0.58 -0.013,0.526 -0.018,1.032 -0.031,1.554 0.954,-0.866 1.401,-1.861 1.614,-2.704"
     id="path115"
     inkscape:connector-curvature="0"
     style="fill:#002d62" /><path
     d="m 144.09122,60.162681 c -0.177,0.195 -0.363,0.389 -0.602,0.57 -0.283,0.23 -0.624,0.42 -0.981,0.58 -0.013,0.526 -0.018,1.032 -0.031,1.554 0.954,-0.866 1.401,-1.861 1.614,-2.704"
     id="path117"
     inkscape:connector-curvature="0"
     style="fill:#002d62" /><path
     d="m 213.76422,68.009681 c 0,0.893 -0.009,1.762 -0.026,2.648 0.425,-0.1 0.84,-0.204 1.212,-0.407 1.573,-0.911 2.131,-2.211 2.308,-3.214 -0.19,0.194 -0.402,0.384 -0.672,0.548 -0.775,0.411 -1.699,0.557 -2.822,0.425"
     id="path119"
     inkscape:connector-curvature="0"
     style="fill:#ed174c" /><path
     d="m 213.76422,68.009681 c 0,0.893 -0.009,1.762 -0.026,2.648 0.425,-0.1 0.84,-0.204 1.212,-0.407 1.573,-0.911 2.131,-2.211 2.308,-3.214 -0.19,0.194 -0.402,0.384 -0.672,0.548 -0.775,0.411 -1.699,0.557 -2.822,0.425"
     id="path121"
     inkscape:connector-curvature="0"
     style="fill:#002d62" /><path
     d="m 200.62422,69.132681 c 0,1.784 -0.257,20.167 -0.257,20.167 4.068,0.747 8.136,1.475 12.195,2.182 0.018,-0.562 0.035,-1.119 0.062,-1.68 0,0 0.009,-0.661 0.018,-1.725 -2.732,-0.517 -5.386,-0.979 -8.162,-1.444 0.089,-6.829 0.177,-13.335 0.266,-20.162 -1.539,-0.254 -2.963,-0.496 -4.488,-0.73 0.014,-1.576 0.04,-3.137 0.049,-4.7 -0.495,-0.082 -0.978,-0.164 -1.473,-0.239 -0.035,2.702 -0.07,5.37 -0.11,8.036 0.626,0.1 1.277,0.204 1.9,0.295"
     id="path123"
     inkscape:connector-curvature="0"
     style="fill:#ed174c" /><path
     d="m 200.62422,69.132681 c 0,1.784 -0.257,20.167 -0.257,20.167 4.068,0.747 8.136,1.475 12.195,2.182 0.018,-0.562 0.035,-1.119 0.062,-1.68 0,0 0.009,-0.661 0.018,-1.725 -2.732,-0.517 -5.386,-0.979 -8.162,-1.444 0.089,-6.829 0.177,-13.335 0.266,-20.162 -1.539,-0.254 -2.963,-0.496 -4.488,-0.73 0.014,-1.576 0.04,-3.137 0.049,-4.7 -0.495,-0.082 -0.978,-0.164 -1.473,-0.239 -0.035,2.702 -0.07,5.37 -0.11,8.036 0.626,0.1 1.277,0.204 1.9,0.295"
     id="path125"
     inkscape:connector-curvature="0"
     style="fill:#002d62" /><path
     d="m 109.30222,58.786681 c -0.915,0.104 -1.848,0.194 -2.794,0.294 -0.433,0.051 -0.858,0.1 -1.291,0.146 v 0.778 c 1.937,0.907 1.879,3.414 1.813,7.797 -0.058,3.803 -0.111,7.475 -0.142,11.277 -0.036,1.437 -0.447,2.699 -1.167,3.731 -0.199,0.71 -0.482,1.357 -0.871,1.957 -0.013,0.933 -0.022,1.866 -0.035,2.812 0.65,-0.073 1.287,-0.159 1.928,-0.236 5.708,-0.661 10.952,-1.183 16.116,-1.559 0.487,-0.036 0.969,-0.066 1.441,-0.108 0.009,-0.86 0.022,-1.725 0.04,-2.58 -5.169,0.38 -10.236,0.902 -15.409,1.543 0.115,-8.733 0.256,-17.101 0.371,-25.852"
     id="path127"
     inkscape:connector-curvature="0"
     style="fill:#ed174c" /><path
     d="m 109.30222,58.786681 c -0.915,0.104 -1.848,0.194 -2.794,0.294 -0.433,0.051 -0.858,0.1 -1.291,0.146 v 0.778 c 1.937,0.907 1.879,3.414 1.813,7.797 -0.058,3.803 -0.111,7.475 -0.142,11.277 -0.036,1.437 -0.447,2.699 -1.167,3.731 -0.199,0.71 -0.482,1.357 -0.871,1.957 -0.013,0.933 -0.022,1.866 -0.035,2.812 0.65,-0.073 1.287,-0.159 1.928,-0.236 5.708,-0.661 10.952,-1.183 16.116,-1.559 0.487,-0.036 0.969,-0.066 1.441,-0.108 0.009,-0.86 0.022,-1.725 0.04,-2.58 -5.169,0.38 -10.236,0.902 -15.409,1.543 0.115,-8.733 0.256,-17.101 0.371,-25.852"
     id="path129"
     inkscape:connector-curvature="0"
     style="fill:#002d62" /><path
     d="m 117.93322,76.533681 c 1.649,-0.139 4.147,-0.347 4.147,-0.347 0.018,-0.375 0.035,-0.751 0.062,-1.118 0.013,-0.522 0.013,-1.042 0.013,-1.568 -1.371,0.091 -2.737,0.228 -4.188,0.376 0.001,0.897 -0.025,1.78 -0.034,2.657"
     id="path131"
     inkscape:connector-curvature="0"
     style="fill:#ed174c" /><path
     d="m 117.93322,76.533681 c 1.649,-0.139 4.147,-0.347 4.147,-0.347 0.018,-0.375 0.035,-0.751 0.062,-1.118 0.013,-0.522 0.013,-1.042 0.013,-1.568 -1.371,0.091 -2.737,0.228 -4.188,0.376 0.001,0.897 -0.025,1.78 -0.034,2.657"
     id="path133"
     inkscape:connector-curvature="0"
     style="fill:#002d62" /><path
     d="m 122.92922,62.716681 c -1.592,0.122 -3.157,0.258 -4.793,0.416 -0.026,0.919 -0.044,1.835 -0.053,2.759 2.264,-0.177 6.451,-0.517 6.451,-0.526 0,-0.036 0,-0.078 0.014,-0.113 -0.92,0.044 -1.663,0.09 -1.663,0.09 0.009,-0.88 0.035,-1.762 0.044,-2.626"
     id="path135"
     inkscape:connector-curvature="0"
     style="fill:#ed174c" /><path
     d="m 122.92922,62.716681 c -1.592,0.122 -3.157,0.258 -4.793,0.416 -0.026,0.919 -0.044,1.835 -0.053,2.759 2.264,-0.177 6.451,-0.517 6.451,-0.526 0,-0.036 0,-0.078 0.014,-0.113 -0.92,0.044 -1.663,0.09 -1.663,0.09 0.009,-0.88 0.035,-1.762 0.044,-2.626"
     id="path137"
     inkscape:connector-curvature="0"
     style="fill:#002d62" /><path
     d="m 124.60522,62.583681 c -0.566,0.042 -1.119,0.093 -1.676,0.133 -0.009,0.864 -0.035,1.746 -0.044,2.626 0,0 0.743,-0.046 1.663,-0.09 0.009,-0.332 0.022,-0.666 0.04,-0.997 0.017,-0.557 0.017,-1.114 0.017,-1.672"
     id="path139"
     inkscape:connector-curvature="0"
     style="fill:#ed174c" /><path
     d="m 124.60522,62.583681 c -0.566,0.042 -1.119,0.093 -1.676,0.133 -0.009,0.864 -0.035,1.746 -0.044,2.626 0,0 0.743,-0.046 1.663,-0.09 0.009,-0.332 0.022,-0.666 0.04,-0.997 0.017,-0.557 0.017,-1.114 0.017,-1.672"
     id="path141"
     inkscape:connector-curvature="0"
     style="fill:#002d62" /><path
     d="m 124.60522,62.583681 c -0.566,0.042 -1.119,0.093 -1.676,0.133 -0.009,0.864 -0.035,1.746 -0.044,2.626 0,0 0.743,-0.046 1.663,-0.09 0.009,-0.332 0.022,-0.666 0.04,-0.997 0.017,-0.557 0.017,-1.114 0.017,-1.672"
     id="path143"
     inkscape:connector-curvature="0"
     style="fill:#002d62" /><path
     d="m 97.877219,66.673681 c -0.009,-0.026 -0.009,-0.055 0,-0.055 0,-0.343 -0.093,-0.747 -0.234,-0.809 -0.141,-0.038 -0.495,-0.013 -1.499,0.157 -0.058,5.072 -0.115,9.926 -0.195,14.991 0.632,-0.139 1.176,-0.19 1.813,-0.303 0.022,-2.536 0.142,-5.66 0.168,-8.421 0.026,-2.653 0.088,-4.795 -0.026,-5.507 0,-0.026 -0.027,-0.035 -0.027,-0.053"
     id="path145"
     inkscape:connector-curvature="0"
     style="fill:#ed174c" /><path
     d="m 97.877219,66.673681 c -0.009,-0.026 -0.009,-0.055 0,-0.055 0,-0.343 -0.093,-0.747 -0.234,-0.809 -0.141,-0.038 -0.495,-0.013 -1.499,0.157 -0.058,5.072 -0.115,9.926 -0.195,14.991 0.632,-0.139 1.176,-0.19 1.813,-0.303 0.022,-2.536 0.142,-5.66 0.168,-8.421 0.026,-2.653 0.088,-4.795 -0.026,-5.507 0,-0.026 -0.027,-0.035 -0.027,-0.053"
     id="path147"
     inkscape:connector-curvature="0"
     style="fill:#002d62" /><path
     d="m 100.81322,85.712681 c -4.749001,0.709 -9.245001,1.499 -14.016001,2.398 0.115,-6.995 0.212,-13.669 0.292,-20.633 -1.327,0.038 -2.251,-0.226 -2.989,-0.747 -1.035,-0.765 -1.154,-1.868 -1.154,-2.498 0,-0.226 0.022,-0.411 0.022,-0.449 0.088,-0.29 0.097,-0.557 0.177,-0.874 -0.999,0.181 -1.99,0.372 -2.98,0.557 -0.318,0.073 -0.641,0.13 -0.946,0.195 -0.097,0.539 -0.194,1.096 -0.292,1.643 -0.018,0.055 -0.027,0.104 -0.027,0.159 -0.009,0.15 -0.026,0.294 -0.035,0.435 -0.018,1.833 0.933,2.93 1.698,3.504 0.721,0.52 1.521,0.787 2.405,0.924 -0.022,2.16 -0.27,20.872 -0.27,20.872 0.703,-0.142 1.401,-0.272 2.118,-0.407 4.855,-0.937 9.285,-1.671 13.888,-2.336 2.799001,-0.436 4.925001,-1.762 6.146001,-3.69 0,-0.323 0.014,-0.639 0.018,-0.955 -1.031,0.965 -2.401,1.622 -4.055,1.902"
     id="path149"
     inkscape:connector-curvature="0"
     style="fill:#ed174c" /><path
     d="m 100.81322,85.712681 c -4.749001,0.709 -9.245001,1.499 -14.016001,2.398 0.115,-6.995 0.212,-13.669 0.292,-20.633 -1.327,0.038 -2.251,-0.226 -2.989,-0.747 -1.035,-0.765 -1.154,-1.868 -1.154,-2.498 0,-0.226 0.022,-0.411 0.022,-0.449 0.088,-0.29 0.097,-0.557 0.177,-0.874 -0.999,0.181 -1.99,0.372 -2.98,0.557 -0.318,0.073 -0.641,0.13 -0.946,0.195 -0.097,0.539 -0.194,1.096 -0.292,1.643 -0.018,0.055 -0.027,0.104 -0.027,0.159 -0.009,0.15 -0.026,0.294 -0.035,0.435 -0.018,1.833 0.933,2.93 1.698,3.504 0.721,0.52 1.521,0.787 2.405,0.924 -0.022,2.16 -0.27,20.872 -0.27,20.872 0.703,-0.142 1.401,-0.272 2.118,-0.407 4.855,-0.937 9.285,-1.671 13.888,-2.336 2.799001,-0.436 4.925001,-1.762 6.146001,-3.69 0,-0.323 0.014,-0.639 0.018,-0.955 -1.031,0.965 -2.401,1.622 -4.055,1.902"
     id="path151"
     inkscape:connector-curvature="0"
     style="fill:#002d62" /><path
     d="m 104.86722,83.811681 c -0.004,0.316 -0.018,0.632 -0.018,0.955 0.389,-0.599 0.672,-1.247 0.871,-1.957 -0.247,0.368 -0.53,0.697 -0.853,1.002"
     id="path153"
     inkscape:connector-curvature="0"
     style="fill:#ed174c" /><path
     d="m 104.86722,83.811681 c -0.004,0.316 -0.018,0.632 -0.018,0.955 0.389,-0.599 0.672,-1.247 0.871,-1.957 -0.247,0.368 -0.53,0.697 -0.853,1.002"
     id="path155"
     inkscape:connector-curvature="0"
     style="fill:#002d62" /><path
     d="m 104.86722,83.811681 c -0.004,0.316 -0.018,0.632 -0.018,0.955 0.389,-0.599 0.672,-1.247 0.871,-1.957 -0.247,0.368 -0.53,0.697 -0.853,1.002"
     id="path157"
     inkscape:connector-curvature="0"
     style="fill:#002d62" /><path
     d="m 166.53922,66.207681 c 0,0.168 -0.054,0.307 -0.054,0.475 v 0.372 c -0.018,1.375 -0.357,2.35 -1.132,3.228 -0.03,0.117 -0.075,0.237 -0.128,0.358 0.602,0.787 1.043,1.766 1.043,2.613 -0.018,1.707 -0.035,3.354 -0.062,5.007 0.313,2.101 0.614,4.256 0.894,6.438 2.334,1.322 5.385,1.603 7.101,1.744 0.11,0.013 0.234,0.018 0.345,0.026 4.731,0.363 8.167,-0.232 10.275,-1.685 0.266,-0.19 0.514,-0.402 0.729,-0.621 0.005,-0.502 0.018,-1.013 0.022,-1.512 -1.791,0.92 -4.59,1.249 -8.313,0.975 -3.02,-0.25 -9.232,-0.562 -9.285,-5.909 0.084,-4.822 0.142,-9.453 0.194,-14.275 0.084,-3.093 1.636,-4.932 4.793,-5.593 -0.557,0.009 -1.118,0.038 -1.671,0.119 -1.733,0.199 -3.652,0.736 -5.076,1.972 0.395,1.486 0.346,3.511 0.325,6.268"
     id="path159"
     inkscape:connector-curvature="0"
     style="fill:#ed174c" /><path
     d="m 166.53922,66.207681 c 0,0.168 -0.054,0.307 -0.054,0.475 v 0.372 c -0.018,1.375 -0.357,2.35 -1.132,3.228 -0.03,0.117 -0.075,0.237 -0.128,0.358 0.602,0.787 1.043,1.766 1.043,2.613 -0.018,1.707 -0.035,3.354 -0.062,5.007 0.313,2.101 0.614,4.256 0.894,6.438 2.334,1.322 5.385,1.603 7.101,1.744 0.11,0.013 0.234,0.018 0.345,0.026 4.731,0.363 8.167,-0.232 10.275,-1.685 0.266,-0.19 0.514,-0.402 0.729,-0.621 0.005,-0.502 0.018,-1.013 0.022,-1.512 -1.791,0.92 -4.59,1.249 -8.313,0.975 -3.02,-0.25 -9.232,-0.562 -9.285,-5.909 0.084,-4.822 0.142,-9.453 0.194,-14.275 0.084,-3.093 1.636,-4.932 4.793,-5.593 -0.557,0.009 -1.118,0.038 -1.671,0.119 -1.733,0.199 -3.652,0.736 -5.076,1.972 0.395,1.486 0.346,3.511 0.325,6.268"
     id="path161"
     inkscape:connector-curvature="0"
     style="fill:#002d62" /><path
     d="m 166.14922,82.856681 c -0.287,-0.011 -0.57,-0.024 -0.836,-0.029 v 0.427 c 0.496,0.584 1.114,1.055 1.787,1.444 -0.279,-2.182 -0.58,-4.337 -0.894,-6.438 -0.022,1.521 -0.043,3.037 -0.057,4.596"
     id="path163"
     inkscape:connector-curvature="0"
     style="fill:#ffffff" /><path
     d="m 166.14922,82.856681 c -0.287,-0.011 -0.57,-0.024 -0.836,-0.029 v 0.427 c 0.496,0.584 1.114,1.055 1.787,1.444 -0.279,-2.182 -0.58,-4.337 -0.894,-6.438 -0.022,1.521 -0.043,3.037 -0.057,4.596"
     id="path165"
     inkscape:connector-curvature="0"
     style="fill:#002d62" /><path
     d="m 178.47222,77.168681 c 0.114,0.046 0.226,0.046 0.336,0.038 0.097,-0.314 0.066,-0.648 0.097,-1.015 0.031,-3.387 0.089,-6.602 0.111,-9.993 0.021,-1.269 0,-2.39 -0.164,-2.839 0,-0.06 -0.124,-0.172 -1.079,-0.281 -0.102,0.009 -0.194,0.009 -0.256,0.009 -0.084,0.531 -0.111,1.068 -0.15,1.671 v 0.583 c -0.049,3.414 -0.084,6.692 -0.129,10.105 0,0.022 0.022,0.055 0,0.055 v 0.402 c -0.039,0.389 0,0.81 0.195,1 0.146,0.143 0.464,0.247 1.039,0.265"
     id="path167"
     inkscape:connector-curvature="0"
     style="fill:#ed174c" /><path
     d="m 178.47222,77.168681 c 0.114,0.046 0.226,0.046 0.336,0.038 0.097,-0.314 0.066,-0.648 0.097,-1.015 0.031,-3.387 0.089,-6.602 0.111,-9.993 0.021,-1.269 0,-2.39 -0.164,-2.839 0,-0.06 -0.124,-0.172 -1.079,-0.281 -0.102,0.009 -0.194,0.009 -0.256,0.009 -0.084,0.531 -0.111,1.068 -0.15,1.671 v 0.583 c -0.049,3.414 -0.084,6.692 -0.129,10.105 0,0.022 0.022,0.055 0,0.055 v 0.402 c -0.039,0.389 0,0.81 0.195,1 0.146,0.143 0.464,0.247 1.039,0.265"
     id="path169"
     inkscape:connector-curvature="0"
     style="fill:#002d62" /><path
     d="m 165.14522,70.518681 c 0.022,0.035 0.054,0.086 0.08,0.122 0.053,-0.122 0.098,-0.241 0.128,-0.358 -0.075,0.072 -0.136,0.158 -0.208,0.236"
     id="path171"
     inkscape:connector-curvature="0"
     style="fill:#ed174c" /><path
     d="m 165.14522,70.518681 c 0.022,0.035 0.054,0.086 0.08,0.122 0.053,-0.122 0.098,-0.241 0.128,-0.358 -0.075,0.072 -0.136,0.158 -0.208,0.236"
     id="path173"
     inkscape:connector-curvature="0"
     style="fill:#002d62" /><path
     d="m 165.14522,70.518681 c 0.022,0.035 0.054,0.086 0.08,0.122 0.053,-0.122 0.098,-0.241 0.128,-0.358 -0.075,0.072 -0.136,0.158 -0.208,0.236"
     id="path175"
     inkscape:connector-curvature="0"
     style="fill:#002d62" /><path
     d="m 164.95122,82.805681 c 0.106,0.159 0.23,0.308 0.362,0.449 v -0.427 c -0.123,-0.018 -0.238,-0.018 -0.362,-0.022"
     id="path177"
     inkscape:connector-curvature="0"
     style="fill:#ffffff" /><path
     d="m 164.95122,82.805681 c 0.106,0.159 0.23,0.308 0.362,0.449 v -0.427 c -0.123,-0.018 -0.238,-0.018 -0.362,-0.022"
     id="path179"
     inkscape:connector-curvature="0"
     style="fill:#002d62" /><path
     d="m 164.95122,82.805681 c 0.106,0.159 0.23,0.308 0.362,0.449 v -0.427 c -0.123,-0.018 -0.238,-0.018 -0.362,-0.022"
     id="path181"
     inkscape:connector-curvature="0"
     style="fill:#002d62" /><path
     d="m 185.57322,82.650681 c -0.005,0.5 -0.018,1.01 -0.022,1.512 0.729,-0.705 1.198,-1.561 1.384,-2.531 -0.358,0.391 -0.805,0.73 -1.362,1.019"
     id="path183"
     inkscape:connector-curvature="0"
     style="fill:#ed174c" /><path
     d="m 185.57322,82.650681 c -0.005,0.5 -0.018,1.01 -0.022,1.512 0.729,-0.705 1.198,-1.561 1.384,-2.531 -0.358,0.391 -0.805,0.73 -1.362,1.019"
     id="path185"
     inkscape:connector-curvature="0"
     style="fill:#002d62" /><path
     d="m 185.57322,82.650681 c -0.005,0.5 -0.018,1.01 -0.022,1.512 0.729,-0.705 1.198,-1.561 1.384,-2.531 -0.358,0.391 -0.805,0.73 -1.362,1.019"
     id="path187"
     inkscape:connector-curvature="0"
     style="fill:#002d62" /><path
     d="m 158.54022,66.985681 c 0.084,-1.176 0.133,-1.154 0.115,-3.328 0.075,-2.825 -0.787,-2.726 -2.839,-2.794 -0.486,0 -0.981,0.004 -1.401,-0.027 -0.04,2.458 -0.075,4.795 -0.098,7.258 0.978,0.014 2.021,0.036 2.993,0.056 0.783,0.027 1.23,-0.621 1.23,-1.165 m -1.274,-0.013 v 0.027 c 0,0.055 0,0.113 -0.062,0.168 -0.549,-0.022 -1.07,-0.049 -1.614,-0.04 0.022,-1.784 0.022,-3.5 0.054,-5.271 0.065,0 0.11,0.018 0.172,0.018 h 0.15 c 0.486,-0.004 1.062,0.018 1.203,0.108 0.035,0.026 0.238,0.25 0.203,1.459 v 0.199 0.933 c -0.018,1.132 0,1.326 -0.08,2.061 0.001,0.117 -0.026,0.225 -0.026,0.338"
     id="path189"
     inkscape:connector-curvature="0"
     style="fill:#0067b1" /><path
     d="m 146.66422,56.345681 v 0.228 c -0.115,8.638 -0.261,16.919 -0.371,25.581 3.028,-0.049 6.013,-0.031 9.068,0.04 0.053,-3.471 0.084,-6.767 0.146,-10.245 h 0.173 c 2.108,0.062 2.047,0.887 2.047,1.167 -0.026,0.76 0,2.993 0.062,4.061 0,0.199 0.022,0.336 0.022,0.513 0.022,1.488 0.084,1.665 0.173,1.775 0.592,1.755 2.21,2.852 4.744,3.236 0.066,0.014 0.128,0.022 0.189,0.031 0.036,0 0.058,-0.022 0.058,0 0.668,0.031 1.322,0.055 1.977,0.073 0.124,0.004 0.239,0.004 0.362,0.022 0.266,0.004 0.549,0.018 0.836,0.029 0.014,-1.559 0.035,-3.075 0.058,-4.596 0.026,-1.653 0.044,-3.3 0.062,-5.007 0,-0.847 -0.441,-1.826 -1.043,-2.613 -0.026,-0.036 -0.058,-0.086 -0.08,-0.122 0.071,-0.078 0.133,-0.164 0.208,-0.237 0.774,-0.877 1.114,-1.853 1.132,-3.228 v -0.372 c 0,-0.168 0.054,-0.307 0.054,-0.475 0.021,-2.757 0.07,-4.782 -0.323,-6.268 -0.469,-1.711 -1.521,-2.684 -3.855,-3.164 -0.301,-0.068 -0.61,-0.126 -0.969,-0.177 -0.021,0 -0.057,-0.022 -0.084,-0.022 h -0.066 c -1.038,-0.037 -2.087,-0.068 -3.112,-0.104 -3.845,-0.106 -7.622,-0.153 -11.468,-0.126 m 14.555,1.222 c 3.948,0.517 4.134,1.713 4.041,8.553 v 0.498 c 0,0.113 -0.035,0.259 -0.035,0.367 0,1.468 -0.371,2.41 -1.649,3.413 0.066,0.108 0.177,0.197 0.274,0.276 0.658,0.756 1.118,1.784 1.181,2.554 -0.063,2.911 -0.098,5.666 -0.124,8.608 -0.628,-0.046 -1.207,-0.068 -1.844,-0.091 -1.928,-0.254 -3.32,-1.001 -3.86,-2.496 -0.084,-0.217 -0.142,-1.548 -0.142,-1.548 0,-0.362 -0.097,-3.608 -0.097,-4.569 0.026,-1.525 -1.468,-2.1 -3.285,-2.173 -0.5,-0.022 -0.925,-0.022 -1.42,-0.048 -0.062,3.5 -0.084,6.805 -0.142,10.24 -2.171,-0.018 -4.306,-0.005 -6.561,-0.018 0.119,-8.063 0.238,-15.76 0.354,-23.805 4.475,0.009 8.826,0.064 13.309,0.239"
     id="path191"
     inkscape:connector-curvature="0"
     style="fill:#0067b1" /><path
     d="m 197.65222,85.575681 c 0.283,0.038 0.544,0.073 0.814,0.12 0.093,-5.715 0.177,-11.257 0.256,-16.857 0.04,-2.667 0.075,-5.334 0.11,-8.036 0,-0.232 0.014,-0.458 0.014,-0.694 -0.438,-0.031 -0.84,-0.095 -1.233,-0.168 -2.604,-0.352 -5.045,-0.705 -7.614,-1.021 v 0.602 c -0.115,8.454 -0.261,16.545 -0.376,25.001 2.728,0.297 5.354,0.664 8.029,1.053 m -6.415,-25.516 c 2.157,0.271 4.188,0.552 6.345,0.873 -0.115,7.97 -0.212,15.617 -0.318,23.606 -2.167,-0.303 -4.209,-0.583 -6.376,-0.855 0.127,-7.994 0.239,-15.644 0.349,-23.624"
     id="path193"
     inkscape:connector-curvature="0"
     style="fill:#0067b1" /><path
     d="m 142.50822,61.312681 c 0.358,-0.159 0.699,-0.35 0.981,-0.58 0.239,-0.181 0.425,-0.375 0.602,-0.57 0.911,-1.05 1.025,-2.242 1.025,-2.699 v -0.172 c 0,-0.234 -0.009,-0.484 -0.044,-0.719 0,-0.077 0,-0.146 -0.026,-0.203 -0.425,-0.004 -0.818,-0.004 -1.167,-0.004 -5.757,0.086 -11.125,0.303 -16.784,0.666 v 0.026 c -0.022,1.848 -0.053,3.621 -0.08,5.447 1.53,-0.11 2.998,-0.194 4.537,-0.29 -0.097,6.935 -0.181,13.514 -0.27,20.456 2.737,-0.19 5.474,-0.296 8.25,-0.376 0.265,-0.011 0.535,-0.024 0.818,-0.029 0.102,-6.174 0.186,-12.148 0.274,-18.292 0.009,-0.714 0.022,-1.426 0.036,-2.16 0.662,-0.074 1.282,-0.251 1.848,-0.501 m -3.118,-0.444 c -0.071,6.915 -0.172,13.525 -0.283,20.46 -2.224,0.064 -4.302,0.155 -6.552,0.258 0.084,-6.908 0.181,-13.51 0.287,-20.423 -1.561,0.093 -3.029,0.148 -4.554,0.261 0.022,-1.181 0.022,-2.313 0.058,-3.471 5.249,-0.323 10.271,-0.521 15.502,-0.582 -0.001,-0.003 0.309,3.565 -4.458,3.497"
     id="path195"
     inkscape:connector-curvature="0"
     style="fill:#0067b1" /><path
     d="m 204.74522,66.470681 c -0.089,6.827 -0.177,13.333 -0.266,20.162 2.776,0.464 5.43,0.927 8.162,1.444 0.283,0.04 0.558,0.1 0.854,0.148 0.066,-5.944 0.159,-11.666 0.243,-17.566 0.018,-0.887 0.026,-1.755 0.026,-2.648 1.123,0.132 2.047,-0.013 2.821,-0.424 0.27,-0.164 0.481,-0.354 0.672,-0.548 0.822,-0.842 0.924,-1.926 0.924,-2.35 v -0.186 c -0.04,-0.327 -0.04,-0.608 -0.04,-0.919 -0.402,-0.086 -0.76,-0.177 -1.185,-0.263 -5.598,-1.158 -11.01,-2.118 -16.651,-2.969 v 0.692 c -0.009,1.563 -0.035,3.124 -0.049,4.7 1.526,0.231 2.95,0.473 4.489,0.727 m -3.189,-4.941 c 5.204,0.807 10.165,1.713 15.4,2.777 0,0 0.234,3.608 -4.422,2.544 -0.088,6.796 -0.207,13.32 -0.291,20.158 -2.211,-0.431 -4.343,-0.789 -6.486,-1.152 0.075,-6.809 0.159,-13.333 0.247,-20.151 -1.525,-0.259 -2.958,-0.526 -4.487,-0.756 0,-1.161 0.039,-2.268 0.039,-3.42"
     id="path197"
     inkscape:connector-curvature="0"
     style="fill:#0067b1" /><path
     d="m 122.92922,62.716681 c 0.557,-0.04 1.11,-0.091 1.676,-0.133 0.288,-0.018 0.566,-0.035 0.845,-0.062 0,-1.793 0.035,-3.55 0.062,-5.378 v -0.009 c -0.071,0.009 -0.146,0.009 -0.221,0.014 -0.327,0.022 -0.686,0.06 -1.021,0.077 -0.424,0.031 -0.844,0.066 -1.26,0.104 -4.598,0.372 -9.028,0.805 -13.707,1.34 v 0.117 c -0.115,8.752 -0.256,17.12 -0.372,25.853 5.173,-0.641 10.24,-1.163 15.409,-1.543 0.278,-0.018 0.553,-0.044 0.831,-0.064 0.022,-1.859 0.058,-3.667 0.058,-5.564 -2.427,0.208 -4.793,0.398 -7.331,0.644 0.009,-0.529 0.018,-1.05 0.036,-1.577 0.009,-0.877 0.035,-1.76 0.035,-2.657 1.45,-0.148 2.817,-0.285 4.188,-0.376 0.278,-0.026 0.566,-0.035 0.853,-0.053 0.022,-2.379 0.053,-4.605 0.08,-6.942 -1.667,0.1 -3.29,0.259 -5.014,0.427 0,-0.354 0,-0.69 0.009,-1.042 0.009,-0.924 0.026,-1.839 0.053,-2.759 1.634,-0.159 3.199,-0.295 4.791,-0.417 m -6.053,-0.467 c -0.04,1.97 -0.04,3.862 -0.08,5.803 1.685,-0.179 3.352,-0.325 5.014,-0.455 -0.022,1.66 -0.048,3.276 -0.071,4.934 -1.675,0.122 -3.312,0.281 -5.027,0.453 -0.031,2.118 -0.058,4.13 -0.08,6.243 2.538,-0.271 4.899,-0.462 7.322,-0.652 0,1.187 -0.026,2.363 -0.026,3.546 -2.313,0.181 -4.501,0.372 -6.809,0.61 -2.396,0.232 -4.554,0.458 -6.916,0.738 0.115,-8.091 0.221,-15.855 0.345,-23.951 4.607,-0.531 9.086,-0.938 13.698,-1.287 -0.031,1.127 -0.031,2.255 -0.062,3.391 -2.422,0.201 -4.783,0.391 -7.308,0.627"
     id="path199"
     inkscape:connector-curvature="0"
     style="fill:#0067b1" /><path
     d="m 82.946219,64.233681 c 0,0.63 0.119,1.733 1.154,2.498 0.738,0.521 1.663,0.785 2.989,0.747 -0.08,6.964 -0.177,13.638 -0.292,20.633 4.771,-0.899 9.268,-1.689 14.016001,-2.398 1.654,-0.281 3.024,-0.938 4.055,-1.901 0.323,-0.305 0.605,-0.634 0.853,-1.001 0.721,-1.032 1.132,-2.294 1.167,-3.731 0.031,-3.803 0.084,-7.475 0.142,-11.277 0.066,-4.384 0.124,-6.891 -1.813,-7.797 -0.831,-0.385 -2.012,-0.484 -3.714,-0.303 h -0.018 c -6.265001,0.911 -12.181001,1.937 -18.340001,3.166 v 0.044 c -0.08,0.316 -0.088,0.583 -0.177,0.874 0,0.035 -0.022,0.22 -0.022,0.446 m 1.291,-0.571 c 5.867,-1.154 11.412,-2.105 17.204001,-2.947 4.669,-0.54 4.435,1.081 4.329,8.019 -0.066,3.559 -0.12,6.948 -0.155,10.494 -0.142,3.038 -1.985,5.003 -4.78,5.492 -4.346001,0.621 -8.432001,1.342 -12.769001,2.142 0.11,-6.937 0.199,-13.587 0.287,-20.524 -4.749,0.68 -4.116,-2.676 -4.116,-2.676"
     id="path201"
     inkscape:connector-curvature="0"
     style="fill:#0067b1" /><path
     d="m 99.137219,66.414681 c 0,0 0.12,-1.43 -0.968,-1.62 -0.013,0 -0.442,-0.164 -3.263,0.398 -0.08,5.75 -0.132,11.224 -0.221,16.974 1.459,-0.23 2.817,-0.48 4.285,-0.692 -0.001,0 0.362,-12.957 0.167,-15.06 m -1.207,5.819 c -0.026,2.761 -0.146,5.885 -0.168,8.421 -0.637,0.113 -1.181,0.164 -1.813,0.303 0.08,-5.065 0.137,-9.919 0.195,-14.991 1.003,-0.17 1.357,-0.194 1.499,-0.157 0.142,0.062 0.234,0.466 0.234,0.809 -0.009,0 -0.009,0.029 0,0.055 0,0.018 0.027,0.026 0.027,0.053 0.114,0.712 0.052,2.854 0.026,5.507"
     id="path203"
     inkscape:connector-curvature="0"
     style="fill:#0067b1" /><path
     d="m 178.43622,78.178681 c 0.5,0.044 0.982,0.04 1.478,0.013 0.229,-0.625 0.229,-1.191 0.229,-1.87 0.062,-3.387 0.08,-6.632 0.133,-10.015 0.035,-3.332 -0.014,-3.953 -2.472,-4.221 -0.486,-0.04 -0.871,-0.057 -1.357,-0.018 -0.283,1.019 -0.31,2.091 -0.31,3.166 -0.07,3.426 -0.079,6.688 -0.142,10.136 -0.034,1.319 -0.145,2.546 2.441,2.809 m -1.198,-2.273 v -0.402 c 0.022,0 0,-0.033 0,-0.055 0.045,-3.413 0.08,-6.692 0.129,-10.105 v -0.584 c 0.039,-0.604 0.066,-1.141 0.15,-1.671 0.062,0 0.154,0 0.256,-0.009 0.955,0.108 1.079,0.221 1.079,0.281 0.164,0.449 0.186,1.57 0.164,2.839 -0.022,3.391 -0.08,6.605 -0.111,9.993 -0.03,0.367 0,0.701 -0.097,1.015 -0.11,0.009 -0.222,0.009 -0.336,-0.038 -0.575,-0.018 -0.894,-0.122 -1.039,-0.263 -0.195,-0.191 -0.234,-0.612 -0.195,-1.001"
     id="path205"
     inkscape:connector-curvature="0"
     style="fill:#0067b1" /><path
     d="m 168.17022,63.441681 c -0.053,4.822 -0.11,9.453 -0.194,14.275 0.053,5.348 6.266,5.659 9.285,5.909 3.723,0.274 6.521,-0.055 8.313,-0.975 0.557,-0.29 1.004,-0.628 1.361,-1.019 0.593,-0.646 0.929,-1.453 0.965,-2.403 0,-0.194 0.026,-0.402 0.026,-0.597 0.066,-4.826 0.142,-9.427 0.212,-14.253 0,-2.445 -0.875,-3.931 -2.229,-4.872 -1.857,-1.305 -4.616,-1.577 -7.233,-1.811 -1.676,-0.154 -3.232,-0.223 -4.678,-0.028 -0.363,0.051 -0.69,0.11 -1.035,0.181 -3.158,0.661 -4.709,2.501 -4.793,5.593 m 6.12,-4.786 c 1.188,-0.164 2.621,-0.122 4.354,0.022 4.762,0.427 8.18,0.807 8.216,5.547 -0.058,4.826 -0.12,9.431 -0.178,14.257 0,0.19 -0.03,0.394 -0.03,0.593 -0.08,3.27 -4.201,3.966 -9.369,3.537 -5.045,-0.427 -7.985,-1.278 -8.039,-4.831 0.054,-4.824 0.111,-9.418 0.195,-14.286 0.119,-3.323 2.052,-4.514 4.851,-4.839"
     id="path207"
     inkscape:connector-curvature="0"
     style="fill:#0067b1" /><path
     d="m 147.55722,81.134681 c 2.255,0.013 4.39,0 6.561,0.018 0.058,-3.436 0.08,-6.741 0.142,-10.24 0.495,0.026 0.92,0.026 1.42,0.048 1.817,0.073 3.312,0.648 3.285,2.173 0,0.961 0.097,4.207 0.097,4.569 0,0 0.058,1.331 0.142,1.548 0.54,1.494 1.933,2.242 3.86,2.496 0.637,0.022 1.216,0.044 1.844,0.091 0.026,-2.942 0.062,-5.697 0.124,-8.608 -0.063,-0.77 -0.522,-1.797 -1.181,-2.554 -0.098,-0.08 -0.208,-0.168 -0.274,-0.276 1.278,-1.003 1.649,-1.945 1.649,-3.413 0,-0.108 0.035,-0.254 0.035,-0.367 v -0.498 c 0.093,-6.84 -0.093,-8.036 -4.041,-8.553 -4.483,-0.175 -8.834,-0.23 -13.309,-0.239 -0.115,8.044 -0.235,15.742 -0.354,23.805 m 6.858,-20.297 c 0.42,0.031 0.915,0.027 1.401,0.027 2.052,0.068 2.914,-0.031 2.839,2.794 0.018,2.173 -0.031,2.151 -0.115,3.328 0,0.543 -0.446,1.191 -1.229,1.165 -0.973,-0.02 -2.016,-0.042 -2.993,-0.056 0.022,-2.463 0.057,-4.8 0.097,-7.258"
     id="path209"
     inkscape:connector-curvature="0"
     style="fill:#ffffff" /><path
     d="m 197.58222,60.932681 c -2.157,-0.321 -4.188,-0.602 -6.345,-0.873 -0.11,7.98 -0.222,15.63 -0.35,23.624 2.167,0.272 4.209,0.553 6.376,0.855 0.107,-7.989 0.204,-15.636 0.319,-23.606"
     id="path211"
     inkscape:connector-curvature="0"
     style="fill:#ffffff" /><path
     d="m 143.84722,57.372681 c -5.231,0.06 -10.253,0.259 -15.502,0.582 -0.035,1.159 -0.035,2.291 -0.058,3.471 1.525,-0.113 2.994,-0.168 4.554,-0.261 -0.106,6.913 -0.203,13.515 -0.287,20.423 2.25,-0.104 4.329,-0.194 6.552,-0.258 0.111,-6.935 0.212,-13.545 0.283,-20.46 4.768,0.067 4.458,-3.501 4.458,-3.497"
     id="path213"
     inkscape:connector-curvature="0"
     style="fill:#ffffff" /><path
     d="m 205.75822,85.856681 c 2.144,0.363 4.275,0.721 6.486,1.152 0.084,-6.838 0.203,-13.362 0.291,-20.158 4.656,1.063 4.422,-2.544 4.422,-2.544 -5.235,-1.063 -10.196,-1.97 -15.4,-2.777 0,1.152 -0.039,2.26 -0.039,3.42 1.529,0.229 2.962,0.497 4.487,0.756 -0.088,6.818 -0.172,13.342 -0.247,20.151"
     id="path215"
     inkscape:connector-curvature="0"
     style="fill:#ffffff" /><path
     d="m 124.24722,58.233681 c -4.612,0.349 -9.091,0.756 -13.698,1.287 -0.124,8.096 -0.23,15.86 -0.345,23.951 2.361,-0.281 4.519,-0.506 6.916,-0.738 2.308,-0.239 4.497,-0.429 6.809,-0.61 0,-1.183 0.026,-2.359 0.026,-3.546 -2.423,0.19 -4.784,0.38 -7.322,0.652 0.022,-2.113 0.048,-4.125 0.08,-6.243 1.715,-0.172 3.352,-0.332 5.027,-0.453 0.022,-1.658 0.049,-3.274 0.071,-4.934 -1.662,0.13 -3.329,0.276 -5.014,0.455 0.04,-1.941 0.04,-3.833 0.08,-5.803 2.524,-0.236 4.886,-0.426 7.309,-0.625 0.03,-1.138 0.03,-2.266 0.061,-3.393"
     id="path217"
     inkscape:connector-curvature="0"
     style="fill:#ffffff" /><path
     d="m 88.353219,66.337681 c -0.088,6.938 -0.177,13.587 -0.287,20.524 4.337,-0.8 8.423,-1.521 12.769001,-2.142 2.794,-0.489 4.638,-2.454 4.78,-5.492 0.035,-3.546 0.088,-6.935 0.155,-10.494 0.106,-6.938 0.34,-8.558 -4.329,-8.019 -5.792001,0.842 -11.337001,1.793 -17.204001,2.947 0,10e-4 -0.633,3.357 4.116,2.676 m 6.552,-1.145 c 2.821,-0.562 3.25,-0.398 3.263,-0.398 1.088,0.19 0.968,1.62 0.968,1.62 0.195,2.103 -0.168,15.06 -0.168,15.06 -1.468,0.212 -2.825,0.462 -4.285,0.692 0.09,-5.75 0.143,-11.224 0.222,-16.974"
     id="path219"
     inkscape:connector-curvature="0"
     style="fill:#ffffff" /><path
     d="m 169.24422,77.780681 c 0.054,3.553 2.994,4.404 8.039,4.831 5.168,0.429 9.289,-0.268 9.369,-3.537 0,-0.199 0.03,-0.402 0.03,-0.593 0.058,-4.826 0.12,-9.431 0.178,-14.257 -0.036,-4.74 -3.454,-5.12 -8.216,-5.547 -1.733,-0.144 -3.166,-0.186 -4.354,-0.022 -2.799,0.325 -4.731,1.517 -4.851,4.839 -0.084,4.868 -0.141,9.462 -0.195,14.286 m 6.752,-2.41 c 0.063,-3.449 0.071,-6.71 0.142,-10.136 0,-1.075 0.026,-2.147 0.31,-3.166 0.486,-0.04 0.871,-0.022 1.357,0.018 2.458,0.268 2.507,0.889 2.472,4.221 -0.053,3.382 -0.071,6.627 -0.133,10.015 0,0.679 0,1.245 -0.229,1.87 -0.495,0.026 -0.978,0.031 -1.478,-0.013 -2.587,-0.264 -2.476,-1.491 -2.441,-2.809"
     id="path221"
     inkscape:connector-curvature="0"
     style="fill:#ffffff" /><path
     d="m 78.979219,122.52668 v -17.427 -7.388999 c -0.867,0.135 -1.755,0.254 -2.64,0.398 -5.416,0.798 -10.669,1.68 -16.125,2.652999 v 0.254 c 0.035,19.926 -0.062,39.06 0.097,58.987 6.221,-1.074 12.274,-2.064 18.491,-2.962 0.053,-0.019 0.106,-0.031 0.177,-0.036 v -34.478 z m -2.639,32.613 c -4.527,0.698 -8.856,1.349 -13.423,2.148 0,-18.526 -0.058,-36.225 -0.058,-54.756 4.563,-0.825 8.954,-1.481 13.481,-2.168 v 54.776 z"
     id="path223"
     inkscape:connector-curvature="0"
     style="fill:#0067b1" /><path
     d="m 117.29622,93.826681 c -0.142,0 -0.283,0.014 -0.442,0.022 -8.63,0.539 -19.401001,1.567 -21.665001,1.861 -0.186,0.026 -0.398,0.082 -0.602,0.082 -0.053,0.004 -0.097,0.014 -0.15,0.018 -0.857,0.104 -1.667,0.267 -2.432,0.475 -0.018,0.009 -0.031,0.018 -0.049,0.018 -3.983,1.11 -6.601,3.63 -7.371,7.202999 0,0.427 -0.155,0.862 -0.155,1.322 v -0.204 c -0.164,1.05 -0.394,4.574 -0.394,7.983 0,2.567 0.124,4.913 0.699,6.23 2.396,5.308 7.596,6.634 11.987,7.377 0.15,0 0.278,0.026 0.424,0.049 0,0.062 0.164,0.062 0.212,0.058 0.035,0 0.022,0 0,0 0,5.813 0.093,11.354 0.093,17.155 -1.999,0.229 -3.935,0.451 -5.867,0.654 -1.906,0.234 -3.798,0.469 -5.699,0.733 -0.053,0 -0.098,0.01 -0.137,0.019 -0.066,0.009 -0.146,0.018 -0.217,0.026 0,3.723 0.071,7.349 0.071,11.098 6,-0.778 11.708,-1.384 17.863001,-1.941 0,0 0.062,-0.004 0.027,0 7.003,-0.809 12.902,-3.355 12.902,-12.123 0,-4.435 0.062,-8.069 0.062,-11.244 0,-2.953 0,-5.293 -0.035,-7.079 -0.026,-1.623 -0.062,-2.794 -0.11,-3.559 -0.186,-1.992 -1.26,-3.508 -3.321,-4.795 -0.699,-0.458 -1.463,-0.869 -2.662,-1.291 -0.734,-0.312 -1.57,-0.571 -2.45,-0.856 -0.124,-0.031 -0.27,0 -0.27,-0.095 -0.597,-0.195 -1.145,-0.376 -1.663,-0.562 -2.688,-0.973 -4.329,-1.91 -4.351,-3.979 v -1.285 c 3.1,-0.318 6.097,-0.577 9.166,-0.798 3.254,-0.29 5.633,-1.689 7.26,-4.233 1.043,-1.68 1.406,-3.205999 1.406,-3.634999 0,0 0.035,-0.018 0.035,-0.055 v -0.091 c 0,-0.389 0.062,-0.792 0.062,-1.253 0,-0.458 -0.062,-0.882 -0.062,-1.373 0,-0.71 -0.181,-1.34 -0.181,-2.056 h -0.031 c -0.715,0.051 -1.299,0.09 -1.953,0.124 m -0.469,4.558 c 0,0 -0.221,1.404 -1.105,2.811999 -1.012,1.453 -2.299,2.68 -4.961,2.947 -3.966,0.307 -7.817,0.621 -11.810001,1.05 v 3.546 c 0.186,3.975 3.842001,5.233 7.490001,6.407 0.884,0.285 1.782,0.575 2.658,0.911 0.866,0.292 1.539,0.688 2.272,1.063 1.317,0.855 2.149,1.771 2.295,3.283 0.283,4.121 0.124,22.475 0.102,22.505 0,0.394 -0.177,2.423 -0.522,3.237 -1.609,3.763 -5.284,4.934 -9.833,5.566 -5.275001,0.433 -10.063001,1.057 -15.215001,1.72 0,-2.237 -0.026,-4.403 -0.026,-6.605 4.117,-0.544 7.963,-0.973 11.925001,-1.345 0,-6.95 -0.097,-13.552 -0.097,-20.502 -0.274001,-0.482 -0.800001,-0.659 -1.234001,-0.796 -0.451,-0.119 -0.977,-0.15 -1.277,-0.199 -4.842,-0.778 -8.463,-2.125 -10.267,-6.245 -1.101,-2.766 -0.146,-13.117 -0.146,-13.251 0,0 -0.066,-0.385 0.084,-0.924 0.765,-3.283 3.37,-5.119999 7.473,-5.515999 0.194,-0.108 0.442,-0.053 0.619,-0.108 2.816,-0.347 17.597001,-1.611 21.577001,-1.833 0.158,0.54 0.158,1.391 -0.002,2.277"
     id="path225"
     inkscape:connector-curvature="0"
     style="fill:#0067b1" /><path
     d="m 248.80122,103.53368 c -5.774,-1.205 -11.35,-2.288 -17.143,-3.278 v 0.108 12.528 c -0.128,-0.484 -0.282,-0.86 -0.411,-1.318 -1.181,-3.27 -2.878,-5.841 -4.828,-7.866 -0.221,-0.226 -0.451,-0.442 -0.677,-0.659 -4.531,-4.306999 -10.213,-5.844999 -14.219,-6.085999 -0.58,-0.031 -1.128,-0.046 -1.646,-0.031 0,0 -1.384,0.004 -2.104,0.031 v 0.055 58.960999 c 6.159,0.77 12.252,1.623 18.39,2.626 v -13.928 c 2.794,6.801 6.128,14.984 6.128,14.984 6.189,1.084 12.009,2.198 18.026,3.498 v -59.237 -0.072 c -0.517,-0.104 -1.008,-0.208 -1.516,-0.316 m -1.132,56.814 c -4.536,-0.946 -8.852,-1.8 -13.548,-2.626 -3.523,-8.777 -7.039,-17.129 -10.559,-25.821 v 24.013 c -4.55,-0.686 -8.617,-1.291 -13.185,-1.884 0,-18.557 0.031,-36.289 0.031,-54.832999 0,0 13.433,-0.582 18.3,12.576999 1.619,4.777 3.056,9.345 4.506,14.087 0.46,1.181 0.637,2.264 1.074,3.409 v -26.302 c 4.528,0.833 8.821,1.656 13.38,2.602 v 54.778 z"
     id="path227"
     inkscape:connector-curvature="0"
     style="fill:#0067b1" /><path
     d="m 271.71322,122.32268 v -1.317 c 3.064,0.833 6.089,1.636 9.152,2.458 3.096,0.857 5.522,0.345 7.114,-1.535 1.198,-1.209 1.667,-3.32 1.667,-3.378 0,-0.226 -0.004,-0.458 -0.004,-0.683 -0.014,-0.362 -0.022,-0.729 -0.04,-1.092 -0.044,-0.993 -0.11,-1.97 -0.11,-2.947 v -0.022 c -0.234,-0.073 -0.474,-0.146 -0.699,-0.223 -0.562,-0.182 -1.118,-0.38 -1.676,-0.548 -0.084,-0.031 -0.163,-0.049 -0.247,-0.086 -6.031,-1.811 -14.777,-4.079 -19.296,-5.229 -1.641,-0.416 -2.724,-0.679 -2.913,-0.738 0.013,0.004 0.035,0.004 0.057,0.004 h 0.027 c -0.049,-0.009 -0.106,-0.018 -0.142,-0.026 -5.501,-1.313 -9.024,0.449 -9.909,4.351 0,0.436 -0.614,5.452 -0.553,8.947 0.045,2.524 0.115,4.925 0.708,6.433 2.392,6.177 7.604,9.378 11.982,11.642 0.114,0.054 0.31,0.138 0.424,0.199 0.063,0.031 0.222,0.053 0.222,0.124 0.159,1.769 0.097,13.769 0.097,17.199 -1.746,-0.415 -3.413,-0.813 -5.071,-1.193 -2.255,-0.531 -4.483,-1.044 -6.818,-1.605 v 0.035 11.09 c 6.15,1.366 11.722,2.736 17.895,4.346 0,0 0.058,0.022 0.021,0.022 6.5,1.401 10.604,0.15 12.54,-3.568 0.327,-0.637 0.389,-1.49 0.389,-1.49 v -0.084 c 0,-2.22 0.066,-6.649 0.071,-11.279 v -0.557 c 0,-4.293 -0.036,-8.405 -0.133,-10.93 -0.009,-0.23 -0.014,-0.447 -0.026,-0.659 -0.014,-0.354 -0.04,-0.672 -0.054,-0.938 -0.159,-2.061 -1.225,-3.943 -3.276,-5.938 -0.747,-0.726 -1.477,-1.411 -2.675,-2.207 -0.738,-0.574 -1.623,-1.123 -2.353,-1.688 -0.093,-0.058 -0.282,-0.168 -0.371,-0.257 -0.738,-0.513 -1.433,-0.99 -2.047,-1.441 -2.477,-1.81 -3.953,-3.269 -3.953,-5.192 m 4.833,8.375 c 0.889,0.584 1.772,1.203 2.67,1.835 0.73,0.623 1.525,1.233 2.265,1.879 1.33,1.317 2.144,2.556 2.303,4.06 0.248,4.099 0.115,22.678 0.115,24.282 0,0 0.035,0.367 -0.274,0.796 -1.459,3.281 -4.554,4.24 -10.111,2.72 -5.125,-1.402 -10.09,-2.543 -15.197,-3.741 v -6.614 c 3.953,0.92 7.924,1.84 11.89,2.865 0,-6.946 -0.102,-13.614 -0.102,-20.556 -0.301,-0.521 -0.782,-0.885 -1.247,-1.207 -0.433,-0.261 -0.981,-0.482 -1.251,-0.65 -4.851,-2.493 -8.503,-5.129 -10.271,-9.873 -1.105,-3.144 -0.186,-13.18 -0.186,-13.315 0,0 0.005,-0.321 0.115,-0.865 0.773,-3.024 3.343,-3.913 7.481,-2.885 0.159,0 17.42,4.514 22.103,5.887 0,0.743 0.093,1.521 0.093,2.294 0,0.345 -0.46,1.481 -1.202,2.512 -1.044,0.997 -2.37,1.766 -4.873,1.083 -3.948,-1.083 -7.844,-2.113 -11.792,-3.115 v 3.577 c -0.002,3.954 3.946,6.573 7.471,9.031"
     id="path229"
     inkscape:connector-curvature="0"
     style="fill:#0067b1" /><path
     d="m 161.20622,95.274681 c 0,-0.743 0,-1.426 -0.154,-2.146 -0.734,0 -1.583,-0.058 -2.477,-0.058 -11.071,-0.237 -21.656,-0.128 -32.613,0.358 -0.977,0.04 -1.941,0.08 -2.914,0.135 v 12.458999 c 3.241,-0.172 6.252,-0.312 9.625,-0.394 v 46.91 c 6.46,-0.221 12.708,-0.282 19.189,-0.221 v -47.038 c 2.353,-0.221 4.378,-0.942 6.005,-2.23 1.3,-1.097 2.087,-2.37 2.587,-3.563999 0.658,-1.631 0.751,-3.124 0.751,-3.844 v -0.367 z m -11.987,7.801999 v 46.982 c -4.687,-0.057 -9.223,0 -13.915,0.138 v -46.912 c -3.223,0.086 -6.248,0.168 -9.617,0.345 v -7.919999 c 11.125,-0.548 21.728,-0.635 32.887,-0.376 0.001,0 0.762,8.252999 -9.355,7.742999"
     id="path231"
     inkscape:connector-curvature="0"
     style="fill:#0067b1" /><path
     d="m 6.1532191,114.29568 c -0.583,0.738 -0.796,1.647 -0.827,2.62 0.031,1.693 0.672,3.402 1.097,4.121 0.902,1.402 2.98,3.201 7.6979999,2.459 v 47.058 c 6.424,-1.821 12.805,-3.365 19.229,-4.877 0.009,0 0.009,0 0.022,-0.005 v -13.122 -0.075 -3.454 -2.162 -4.867 c 3.524,-0.832 6.889,-1.592 10.391,-2.344 7.928,-1.769 12.54,-6.92 12.597,-14.631 v -0.871 c 0,-0.362 0.026,-0.707 0.026,-1.079 0,-8.337 0.071,-13.837 -1.928,-16.822 -0.088,-0.148 -0.186,-0.29 -0.292,-0.407 -0.026,-0.031 -0.035,-0.06 -0.062,-0.078 -0.088,-0.108 -0.186,-0.212 -0.265,-0.307 -0.018,-0.013 -0.035,-0.026 -0.053,-0.04 -0.098,-0.108 -0.212,-0.21 -0.318,-0.31 -0.009,0 -0.009,0 -0.009,-0.004 -1.583,-1.353 -4.028,-1.829 -7.791,-1.466 -0.088,0.018 -0.362,0.048 -0.557,0.086 -0.04,0.004 -0.075,0.004 -0.11,0.004 -0.022,0.014 -0.071,0.022 -0.071,0.022 -0.318,0.06 -0.624,0.122 -0.942,0.186 -0.071,0.026 -0.15,0.044 -0.239,0.049 -1.207,0.268 -2.405,0.535 -3.595,0.811 -0.226,0.04 -0.464,0.095 -0.685,0.146 -1.787,0.394 -3.551,0.805 -5.306,1.211 -0.703,0.168 -1.393,0.336 -2.083,0.504 -0.208,0.048 -0.429,0.099 -0.632,0.148 -1.662,0.405 -3.32,0.812 -4.979,1.236 -1.667,0.418 -3.356,0.847 -5.023,1.287 -0.261,0.068 -0.521,0.133 -0.782,0.199 -4.528,1.205 -9.104,2.476 -13.7379999,3.827 -0.309,0.33 -0.503,0.625 -0.773,0.947 m 1.905,0.995 c 12.4419999,-3.604 24.3939999,-6.637 36.8709999,-9.327 8.268,-0.822 8.821,1.658 8.821,17.532 0,0.429 -0.035,0.8 -0.035,1.171 v 0.862 c -0.027,6.77 -3.917,10.519 -9.953,11.858 -4.391,0.978 -8.608,1.919 -13.03,2.967 v 23.682 c -4.687,1.088 -9.285,2.286 -13.967,3.542 -0.155,-15.829 -0.035,-31.074 -0.035,-46.939 -10.1129999,2.94 -8.6719999,-5.348 -8.6719999,-5.348"
     id="path233"
     inkscape:connector-curvature="0"
     style="fill:#0067b1" /><path
     d="m 39.526219,131.81568 c 0,-0.261 0.093,-0.601 0.093,-0.88 0.146,-2.913 0.093,-9.554 0.093,-9.554 0,-0.63 -0.036,-1.231 -0.036,-1.888 0,-0.683 -0.018,-1.309 -0.15,-1.915 -0.455,-1.26 -1.339,-2.12 -3.396,-1.888 -0.743,0.088 -1.499,0.252 -2.547,0.51 -1.003,0.177 -2.021,0.436 -3.064,0.688 v 17.129 c 2.511,-0.632 4.811,-1.172 7.295,-1.72 0.58,-0.164 1.133,-0.313 1.712,-0.482 m -6.371,-0.711 v -12.553 c 0.274,-0.086 0.553,-0.113 0.867,-0.199 0.575,-0.082 1.189,-0.204 1.769,-0.345 0.734,-0.112 0.889,0.022 1.203,0.712 0,0.372 0.057,10.033 0.057,11.492 -1.323,0.286 -2.579,0.575 -3.896,0.893"
     id="path235"
     inkscape:connector-curvature="0"
     style="fill:#0067b1" /><path
     d="m 62.916219,157.28768 c 4.567,-0.8 8.896,-1.45 13.423,-2.148 v -54.776 c -4.527,0.688 -8.918,1.344 -13.481,2.168 0.001,18.531 0.058,36.23 0.058,54.756"
     id="path237"
     inkscape:connector-curvature="0"
     style="fill:#ffffff" /><path
     d="m 95.251219,97.940681 c -0.177,0.055 -0.425,0 -0.619,0.108 -4.103,0.396 -6.708,2.232999 -7.473,5.515999 -0.15,0.539 -0.084,0.924 -0.084,0.924 0,0.135 -0.955,10.486 0.146,13.251 1.804,4.121 5.425,5.467 10.267,6.245 0.3,0.049 0.827,0.08 1.277,0.199 0.434,0.137 0.959,0.313 1.234,0.796 0,6.95 0.097,13.552 0.097,20.502 -3.961001,0.372 -7.808001,0.801 -11.925001,1.345 0,2.202 0.026,4.368 0.026,6.605 5.151,-0.663 9.94,-1.287 15.215001,-1.72 4.549,-0.633 8.224,-1.804 9.833,-5.566 0.345,-0.814 0.522,-2.844 0.522,-3.237 0.022,-0.03 0.181,-18.385 -0.102,-22.505 -0.146,-1.512 -0.978,-2.427 -2.295,-3.283 -0.734,-0.376 -1.406,-0.771 -2.272,-1.063 -0.875,-0.336 -1.773,-0.625 -2.658,-0.911 -3.647,-1.174 -7.304001,-2.432 -7.490001,-6.407 v -3.546 c 3.993001,-0.429 7.844001,-0.743 11.810001,-1.05 2.662,-0.268 3.949,-1.495 4.961,-2.947 0.884,-1.407999 1.105,-2.811999 1.105,-2.811999 0.159,-0.886 0.159,-1.737 0,-2.277 -3.978,0.221 -18.759001,1.486 -21.575001,1.833"
     id="path239"
     inkscape:connector-curvature="0"
     style="fill:#ffffff" /><path
     d="m 183.83122,93.762681 -0.026,-0.004 c -4.315,-0.298 -7.278,-0.254 -9.869,0.172 -1.043,0.172 -2.021,0.398 -2.936,0.674 -6.313,1.915 -9.413,6.342999 -9.476,13.456999 v 33.097 c 0.084,11.898 11.872,12.818 19.676,13.424 9.684,0.619 16.081,-0.663 19.592,-3.908 2.003,-1.866 3.047,-4.307 3.086,-7.238 0,-0.04 0.036,-1.41 0.036,-1.41 v -33.082 c -0.027,-3.21 -0.642,-5.699 -1.637,-7.66 -3.268,-6.316999 -10.952,-6.938999 -18.446,-7.521999 m 17.386,48.262999 c 0,0.455 -0.031,0.91 -0.031,1.37 -0.093,7.543 -8.741,9.206 -19.777,8.489 -10.718,-0.831 -17.129,-2.547 -17.187,-10.727 v -33.066 c 0.058,-7.673 4.099,-10.498999 10.143,-11.499999 2.636,-0.424 5.576,-0.407 9.255,-0.148 10.143,0.8 17.496,1.521 17.598,12.499999 v 33.082 z"
     id="path241"
     inkscape:connector-curvature="0"
     style="fill:#0067b1" /><path
     d="m 181.87222,104.28068 c -0.857,-0.115 -1.648,-0.055 -2.507,-0.033 -0.159,0.146 -0.278,0.258 -0.469,0.349 -0.305,1.114 -0.495,2.313 -0.495,3.604 -0.15,1.227 -0.058,2.48 -0.058,3.486 v 23.476 c -0.119,3.112 -0.058,5.995 5.435,6.451 0.854,0.039 1.772,0.123 2.781,0.039 0.181,-0.11 0.313,-0.212 0.464,-0.354 0.155,-0.707 0.155,-1.335 0.301,-2.052 0,-0.685 0.066,-1.344 0.066,-2.033 v -23.213 c 0,-7.714 -0.035,-9.235 -5.518,-9.72 m 2.83,32.934 c 0,0 -0.058,1.415 -0.058,1.737 h -0.154 c 0,0 -0.385,-0.018 -0.518,-0.022 -2.564,-0.212 -2.958,-0.663 -2.958,-2.44 0,-0.354 0,-0.761 0.031,-1.229 v -0.097 -23.476 l -0.031,-0.9 c 0,-0.318 0,-0.63 0,-0.937 0,-0.458 0.022,-0.902 0.066,-1.313 l 0.026,-0.164 v -0.172 c 0,-0.424 0.035,-0.847 0.093,-1.262 0.102,0 0.208,0 0.314,0.022 h 0.053 l 0.07,0.009 c 1.105,0.095 2.45,0.285 2.64,0.652 0.425,0.855 0.425,3.417 0.425,6.38 v 23.212 z"
     id="path243"
     inkscape:connector-curvature="0"
     style="fill:#0067b1" /><path
     d="m 183.61922,96.443681 c -3.679,-0.259 -6.619,-0.276 -9.255,0.148 -6.044,1.001 -10.085,3.826999 -10.143,11.499999 v 33.066 c 0.058,8.18 6.469,9.896 17.187,10.727 11.036,0.717 19.685,-0.946 19.777,-8.489 0,-0.46 0.031,-0.915 0.031,-1.37 v -33.082 c -0.101,-10.978999 -7.455,-11.698999 -17.597,-12.499999 m 3.771,40.770999 c 0,0.689 -0.066,1.349 -0.066,2.033 -0.146,0.717 -0.146,1.345 -0.301,2.052 -0.15,0.142 -0.283,0.243 -0.464,0.354 -1.009,0.084 -1.928,0 -2.781,-0.039 -5.492,-0.456 -5.554,-3.339 -5.435,-6.451 v -23.476 c 0,-1.006 -0.093,-2.259 0.058,-3.486 0,-1.291 0.19,-2.489 0.495,-3.604 0.19,-0.091 0.31,-0.204 0.469,-0.349 0.858,-0.022 1.649,-0.082 2.507,0.033 5.483,0.484 5.519,2.005 5.519,9.721 v 23.212 z"
     id="path245"
     inkscape:connector-curvature="0"
     style="fill:#ffffff" /><path
     d="m 234.28922,129.26968 c -0.438,-1.146 -0.614,-2.229 -1.074,-3.409 -1.45,-4.742 -2.887,-9.31 -4.506,-14.087 -4.867,-13.158999 -18.3,-12.576999 -18.3,-12.576999 0,18.543999 -0.031,36.275999 -0.031,54.832999 4.567,0.593 8.635,1.198 13.185,1.884 v -24.013 c 3.52,8.692 7.035,17.044 10.559,25.821 4.696,0.826 9.012,1.68 13.548,2.626 v -54.778 c -4.559,-0.946 -8.852,-1.769 -13.38,-2.602 v 26.302 z"
     id="path247"
     inkscape:connector-curvature="0"
     style="fill:#ffffff" /><path
     d="m 269.07322,121.66668 v -3.577 c 3.948,1.001 7.844,2.032 11.792,3.115 2.503,0.683 3.829,-0.086 4.873,-1.083 0.742,-1.03 1.202,-2.167 1.202,-2.512 0,-0.773 -0.093,-1.552 -0.093,-2.294 -4.683,-1.373 -21.943,-5.887 -22.103,-5.887 -4.139,-1.028 -6.708,-0.139 -7.481,2.885 -0.11,0.544 -0.115,0.865 -0.115,0.865 0,0.135 -0.92,10.171 0.186,13.315 1.769,4.744 5.421,7.38 10.271,9.873 0.27,0.168 0.818,0.39 1.251,0.65 0.465,0.322 0.946,0.686 1.247,1.207 0,6.941 0.102,13.609 0.102,20.556 -3.966,-1.025 -7.937,-1.945 -11.89,-2.865 v 6.614 c 5.107,1.198 10.072,2.339 15.197,3.741 5.558,1.521 8.652,0.562 10.111,-2.72 0.31,-0.429 0.274,-0.796 0.274,-0.796 0,-1.604 0.133,-20.184 -0.115,-24.282 -0.159,-1.504 -0.973,-2.742 -2.303,-4.06 -0.739,-0.646 -1.534,-1.256 -2.265,-1.879 -0.897,-0.632 -1.781,-1.251 -2.67,-1.835 -3.523,-2.458 -7.471,-5.077 -7.471,-9.031"
     id="path249"
     inkscape:connector-curvature="0"
     style="fill:#ffffff" /><path
     d="m 125.68822,95.709681 v 7.918999 c 3.369,-0.177 6.394,-0.259 9.617,-0.345 v 46.912 c 4.691,-0.138 9.228,-0.194 13.915,-0.138 v -46.982 c 10.116,0.511 9.355,-7.741999 9.355,-7.741999 -11.159,-0.258 -21.762,-0.172 -32.887,0.376"
     id="path251"
     inkscape:connector-curvature="0"
     style="fill:#ffffff" /><path
     d="m 16.729219,120.63868 c 0,15.865 -0.12,31.11 0.035,46.939 4.682,-1.256 9.281,-2.454 13.967,-3.542 v -23.682 c 4.422,-1.048 8.64,-1.989 13.03,-2.967 6.036,-1.34 9.926,-5.089 9.953,-11.858 v -0.862 c 0,-0.371 0.035,-0.742 0.035,-1.171 0,-15.874 -0.553,-18.354 -8.821,-17.532 -12.478,2.69 -24.429,5.724 -36.8709999,9.327 0.001,0 -1.44,8.288 8.6719999,5.348 m 13.791,-3.75 c 1.043,-0.252 2.061,-0.51 3.064,-0.688 1.048,-0.258 1.804,-0.422 2.547,-0.51 2.056,-0.232 2.94,0.627 3.396,1.888 0.133,0.606 0.15,1.231 0.15,1.915 0,0.657 0.036,1.258 0.036,1.888 0,0 -0.036,6.132 -0.093,9.554 0,0.279 -0.093,0.619 -0.093,0.88 -0.579,0.169 -1.132,0.318 -1.711,0.482 -2.485,0.548 -4.784,1.088 -7.295,1.72 v -17.129 z"
     id="path253"
     inkscape:connector-curvature="0"
     style="fill:#ffffff" /></svg>