<?xml version="1.0" encoding="UTF-8"?>
<!-- Generator: Adobe Illustrator 13.0.0, SVG Export Plug-In . SVG Version: 6.00 Build 14948)  -->
<!DOCTYPE svg PUBLIC "-//W3C//DTD SVG 1.1//EN" "http://www.w3.org/Graphics/SVG/1.1/DTD/svg11.dtd">
<svg version="1.1" id="Layer_1" xmlns="http://www.w3.org/2000/svg" xmlns:xlink="http://www.w3.org/1999/xlink" x="0px" y="0px" width="192.756px" height="192.756px" viewBox="0 0 192.756 192.756" enable-background="new 0 0 192.756 192.756" xml:space="preserve">
<g>
	<polygon fill-rule="evenodd" clip-rule="evenodd" fill="#FFFFFF" points="0,0 192.756,0 192.756,192.756 0,192.756 0,0  "/>
	<path fill-rule="evenodd" clip-rule="evenodd" d="M177.583,134.659c-6.31-2.713-12.651-5.198-19.223-7.29   c-5.427-1.7-10.592-3.073-15.659-4.25l-1.602-0.359l-0.262,1.602l-3.008,17.457l-0.229,1.275l1.177,0.425   c7.879,3.04,15.528,6.604,23.08,10.331L177.583,134.659L177.583,134.659z"/>
	<path fill-rule="evenodd" clip-rule="evenodd" d="M15.173,134.659c6.31-2.713,12.652-5.198,19.223-7.29   c5.427-1.7,10.625-3.073,15.692-4.25l1.569-0.359l0.294,1.602l3.007,17.457l0.196,1.275l-1.177,0.425   c-7.878,3.04-15.528,6.604-23.08,10.331L15.173,134.659L15.173,134.659z"/>
	<path fill-rule="evenodd" clip-rule="evenodd" d="M96.411,184.252l-1.896-1.145c-24.159-14.744-42.466-31.154-54.791-51.097   c-12.357-20.007-18.601-43.38-18.601-72.116v-22.23L96.411,8.504l75.222,29.161v22.23c0,28.736-6.244,52.109-18.602,72.116   c-12.324,19.942-30.631,36.353-54.757,51.097L96.411,184.252L96.411,184.252z"/>
	<path fill-rule="evenodd" clip-rule="evenodd" fill="#FFFFFF" d="M96.411,180.035c-47.402-28.933-71.692-64.107-71.692-120.141   V40.116l71.692-27.755l71.626,27.755v19.778C168.037,115.928,143.747,151.103,96.411,180.035L96.411,180.035z"/>
	<path fill-rule="evenodd" clip-rule="evenodd" fill="#00904C" d="M96.411,175.36c22.099-13.796,38.902-29.03,50.181-47.305   c11.604-18.765,17.457-40.864,17.457-68.161V42.83L96.411,16.611L28.708,42.83v17.065c0,27.297,5.884,49.396,17.457,68.161   C57.476,146.33,74.246,161.564,96.411,175.36L96.411,175.36z"/>
	<path fill-rule="evenodd" clip-rule="evenodd" fill="#FFF200" d="M96.411,32.238c32.822,0,59.662,26.807,59.662,59.694   c0,23.08-13.273,43.185-32.561,53.123c-8.173,4.185-17.392,5.231-27.101,5.231c-11.311,0-21.903-1.864-30.926-7.356   c-17.228-10.493-28.768-29.455-28.768-50.998C36.717,59.044,63.523,32.238,96.411,32.238L96.411,32.238z"/>
	<path fill-rule="evenodd" clip-rule="evenodd" fill="#00904C" d="M20.142,135.869l11.573,14.122   c5.557-2.713,10.755-5.067,15.594-7.094c-2.746-3.53-5.264-7.127-7.584-10.887c-0.523-0.85-1.013-1.699-1.537-2.582   c-0.948,0.294-1.896,0.588-2.876,0.883C30.538,131.848,25.503,133.646,20.142,135.869L20.142,135.869z"/>
	<path fill-rule="evenodd" clip-rule="evenodd" fill="#00904C" d="M96.411,35.441c31.056,0,56.425,25.369,56.425,56.491   c0,31.056-25.369,56.424-56.425,56.424c-31.122,0-56.49-25.368-56.49-56.424C39.92,60.81,65.289,35.441,96.411,35.441   L96.411,35.441z"/>
	<path fill-rule="evenodd" clip-rule="evenodd" fill="#FFF200" d="M141.623,112.985c-0.426,0.556-0.785,0.915-1.112,1.078   c-0.457,0.229-0.915,0.229-1.373,0.033c-0.49-0.229-0.817-0.622-0.98-1.145c-0.163-0.687-0.033-1.471,0.359-2.419l1.504-3.335   l0.164,0.065c-0.131,0.327-0.196,0.523-0.164,0.687c0,0.131,0.033,0.229,0.098,0.327c0.066,0.065,0.295,0.196,0.654,0.359   l4.282,1.896c0.36,0.163,0.589,0.229,0.687,0.229c0.131,0,0.229-0.032,0.327-0.131c0.098-0.098,0.229-0.261,0.359-0.588   l0.196,0.098l-1.405,3.139c-0.359,0.784-0.654,1.274-0.948,1.536c-0.262,0.262-0.556,0.393-0.915,0.458   c-0.36,0.065-0.687,0.032-0.981-0.098c-0.326-0.132-0.556-0.393-0.686-0.72C141.524,114.097,141.524,113.606,141.623,112.985   L141.623,112.985z"/>
	<path fill-rule="evenodd" clip-rule="evenodd" fill="#00904C" d="M142.179,111.089l-2.125-0.948l-0.229-0.098   c-0.196-0.065-0.327-0.099-0.457-0.033c-0.131,0.033-0.229,0.163-0.327,0.327c-0.099,0.262-0.164,0.523-0.131,0.785   c0,0.261,0.098,0.522,0.262,0.719c0.163,0.229,0.392,0.392,0.653,0.523c0.327,0.13,0.621,0.163,0.948,0.13   c0.294-0.032,0.556-0.13,0.752-0.359C141.753,111.938,141.949,111.579,142.179,111.089L142.179,111.089z"/>
	<path fill-rule="evenodd" clip-rule="evenodd" fill="#00904C" d="M142.538,111.252c-0.196,0.458-0.294,0.817-0.294,1.112   c0.032,0.261,0.098,0.49,0.229,0.686c0.131,0.196,0.359,0.36,0.653,0.491c0.262,0.131,0.523,0.195,0.785,0.163   c0.229-0.032,0.457-0.131,0.621-0.327c0.196-0.163,0.393-0.49,0.621-0.947L142.538,111.252L142.538,111.252z"/>
	<path fill-rule="evenodd" clip-rule="evenodd" fill="#FFF200" d="M148.945,101.021l-0.784,3.628l-0.196-0.032l0.065-0.196   c0.032-0.262,0.065-0.458,0.032-0.588c-0.032-0.099-0.098-0.197-0.196-0.262c-0.098-0.065-0.359-0.131-0.752-0.229l-3.465-0.719   c-0.621-0.131-1.046-0.196-1.275-0.131c-0.229,0.033-0.425,0.163-0.621,0.359c-0.163,0.196-0.294,0.458-0.359,0.784   c-0.098,0.393-0.065,0.72,0.033,1.014c0.13,0.327,0.326,0.589,0.588,0.785c0.294,0.195,0.784,0.359,1.536,0.522l2.877,0.621   c0.327,0.065,0.557,0.065,0.72,0.033c0.131-0.033,0.229-0.099,0.327-0.196c0.098-0.131,0.195-0.327,0.261-0.621l0.196,0.033   l-0.522,2.451l-0.196-0.065l0.032-0.131c0.033-0.196,0.033-0.359-0.032-0.522c-0.033-0.131-0.131-0.262-0.294-0.36   c-0.099-0.065-0.295-0.13-0.589-0.196l-2.681-0.556c-0.817-0.195-1.405-0.359-1.766-0.556c-0.327-0.196-0.621-0.522-0.817-1.014   c-0.229-0.49-0.261-1.111-0.098-1.83c0.131-0.621,0.294-1.079,0.522-1.341c0.327-0.392,0.688-0.653,1.079-0.784   c0.393-0.098,0.851-0.098,1.438,0.033l3.466,0.719c0.425,0.065,0.653,0.098,0.784,0.065c0.098-0.033,0.196-0.065,0.262-0.163   c0.098-0.099,0.163-0.295,0.229-0.589L148.945,101.021L148.945,101.021z"/>
	<path fill-rule="evenodd" clip-rule="evenodd" fill="#FFF200" d="M144.564,99.124l-2.517-0.425l0.457-6.407h0.196l-0.032,0.261   c0,0.196,0.032,0.359,0.098,0.49c0.032,0.099,0.098,0.197,0.229,0.262c0.099,0.033,0.295,0.065,0.654,0.098l4.74,0.327   c0.359,0.032,0.621,0.032,0.687,0c0.098-0.033,0.196-0.131,0.262-0.229c0.098-0.131,0.131-0.262,0.163-0.491v-0.229h0.196   l-0.262,3.858l-0.196-0.033l0.033-0.294c0-0.229-0.033-0.393-0.099-0.523c-0.032-0.098-0.131-0.164-0.229-0.229   c-0.098-0.033-0.294-0.065-0.654-0.098l-4.608-0.327c-0.36-0.033-0.589-0.033-0.688,0c-0.131,0.065-0.196,0.13-0.261,0.261   c-0.033,0.065-0.065,0.294-0.099,0.622l-0.032,0.588c-0.033,0.393,0.032,0.72,0.131,0.981c0.13,0.261,0.326,0.49,0.588,0.719   c0.295,0.196,0.687,0.393,1.242,0.621V99.124L144.564,99.124z"/>
	<path fill-rule="evenodd" clip-rule="evenodd" fill="#FFF200" d="M149.926,90.853l-2.484,0.229v-0.229   c0.621-0.196,1.079-0.523,1.406-0.98c0.294-0.458,0.425-0.948,0.392-1.504c-0.032-0.458-0.196-0.85-0.49-1.209   c-0.294-0.327-0.653-0.588-1.079-0.72c-0.556-0.163-1.177-0.229-1.83-0.163c-0.621,0.033-1.21,0.163-1.732,0.392   c-0.523,0.196-0.883,0.491-1.112,0.85c-0.261,0.393-0.359,0.85-0.294,1.406c0.033,0.425,0.163,0.85,0.393,1.209   c0.229,0.36,0.621,0.719,1.145,1.079l-0.621,0.065c-0.458-0.36-0.818-0.752-1.047-1.177c-0.229-0.425-0.359-0.915-0.392-1.504   c-0.099-0.751,0-1.471,0.261-2.092c0.262-0.621,0.654-1.111,1.21-1.471c0.556-0.393,1.144-0.589,1.798-0.654   c0.687-0.065,1.34,0.065,1.994,0.359s1.177,0.752,1.569,1.34c0.392,0.556,0.621,1.209,0.653,1.896c0.065,0.491,0,1.046-0.163,1.635   c-0.099,0.327-0.163,0.523-0.131,0.621c0,0.098,0.032,0.196,0.131,0.294c0.098,0.066,0.229,0.099,0.425,0.131V90.853   L149.926,90.853z"/>
	<path fill-rule="evenodd" clip-rule="evenodd" fill="#FFF200" d="M143.29,78.823l-2.484,0.556l-2.093-6.048l0.196-0.065   l0.065,0.229c0.065,0.196,0.163,0.327,0.294,0.425c0.065,0.065,0.164,0.13,0.294,0.13c0.099,0,0.327-0.065,0.654-0.164l4.479-1.536   c0.359-0.131,0.589-0.229,0.654-0.294s0.131-0.164,0.163-0.294c0-0.13,0-0.294-0.065-0.49l-0.098-0.229l0.196-0.065l1.241,3.628   l-0.163,0.065l-0.098-0.294c-0.099-0.196-0.164-0.327-0.294-0.425c-0.066-0.098-0.164-0.131-0.295-0.131   c-0.098,0-0.326,0.033-0.653,0.164l-4.349,1.503c-0.359,0.099-0.588,0.197-0.653,0.262c-0.065,0.098-0.131,0.197-0.131,0.327   c0,0.098,0.065,0.294,0.163,0.621l0.196,0.556c0.131,0.36,0.295,0.654,0.49,0.85c0.229,0.196,0.49,0.327,0.817,0.425   c0.36,0.065,0.817,0.098,1.406,0.065L143.29,78.823L143.29,78.823z"/>
	<path fill-rule="evenodd" clip-rule="evenodd" fill="#FFF200" d="M140.74,71.5l-2.354,1.046l-3.204-5.558l0.196-0.098l0.098,0.196   c0.098,0.196,0.229,0.327,0.359,0.393c0.099,0.065,0.196,0.065,0.327,0.065c0.098-0.033,0.294-0.098,0.621-0.294l4.086-2.387   c0.327-0.163,0.523-0.294,0.589-0.392c0.065-0.065,0.098-0.164,0.098-0.327c0-0.131-0.065-0.294-0.163-0.458l-0.131-0.196   l0.196-0.098l1.896,3.334l-0.164,0.098l-0.163-0.294c-0.099-0.164-0.196-0.295-0.327-0.36c-0.098-0.065-0.196-0.098-0.327-0.065   c-0.098,0-0.294,0.098-0.621,0.261l-3.988,2.321c-0.326,0.163-0.522,0.294-0.588,0.393c-0.065,0.098-0.065,0.196-0.065,0.327   c0.032,0.098,0.131,0.294,0.294,0.588l0.294,0.523c0.196,0.327,0.425,0.588,0.654,0.719c0.262,0.163,0.556,0.262,0.883,0.262   c0.359,0,0.817-0.033,1.373-0.196L140.74,71.5L140.74,71.5z"/>
	<path fill-rule="evenodd" clip-rule="evenodd" fill="#FFF200" d="M134.725,62.837l-1.602-1.995l-0.752,0.229   c-0.229,0.065-0.425,0.131-0.523,0.229c-0.163,0.131-0.229,0.294-0.196,0.49c0,0.098,0.131,0.294,0.327,0.621l-0.131,0.131   l-1.504-1.863l0.131-0.131c0.196,0.163,0.425,0.262,0.654,0.294c0.261,0,0.653-0.065,1.242-0.196l6.113-1.635l0.032,0.065   l-2.942,5.754c-0.294,0.556-0.425,0.948-0.457,1.144c0,0.164,0.065,0.327,0.195,0.523l-0.163,0.131l-2.19-2.713l0.164-0.131   l0.065,0.098c0.195,0.229,0.327,0.36,0.457,0.393c0.099,0.032,0.196,0,0.295-0.065c0.032-0.033,0.065-0.065,0.13-0.131   c0-0.032,0.066-0.163,0.196-0.392L134.725,62.837L134.725,62.837z"/>
	<polygon fill-rule="evenodd" clip-rule="evenodd" fill="#00904C" points="134.921,62.445 136.163,60.058 133.548,60.745    134.921,62.445  "/>
	<path fill-rule="evenodd" clip-rule="evenodd" fill="#FFF200" d="M131.129,56.103c0.392,0.588,0.621,1.046,0.653,1.406   c0.065,0.49-0.065,0.948-0.425,1.308c-0.359,0.425-0.817,0.588-1.405,0.556c-0.654-0.065-1.373-0.425-2.125-1.112l-2.681-2.517   l0.131-0.131c0.229,0.229,0.425,0.36,0.556,0.393s0.229,0.033,0.359-0.033c0.098-0.033,0.262-0.196,0.556-0.458l3.171-3.433   c0.262-0.294,0.425-0.49,0.458-0.588c0.032-0.098,0.032-0.229-0.033-0.36c-0.032-0.131-0.163-0.294-0.425-0.523l0.131-0.13   l2.55,2.354c0.589,0.556,0.98,1.014,1.111,1.34c0.164,0.36,0.196,0.687,0.164,1.046c-0.065,0.36-0.196,0.654-0.426,0.883   c-0.229,0.262-0.556,0.392-0.915,0.425S131.685,56.429,131.129,56.103L131.129,56.103z"/>
	<path fill-rule="evenodd" clip-rule="evenodd" fill="#00904C" d="M129.526,54.958l-1.568,1.7l-0.196,0.196   c-0.131,0.13-0.196,0.294-0.196,0.425c0,0.13,0.065,0.261,0.229,0.392c0.196,0.196,0.425,0.327,0.687,0.392   c0.262,0.066,0.523,0.066,0.785,0c0.261-0.098,0.49-0.261,0.687-0.457c0.229-0.262,0.392-0.523,0.457-0.851   c0.065-0.294,0.033-0.555-0.098-0.85C130.181,55.645,129.919,55.351,129.526,54.958L129.526,54.958z"/>
	<path fill-rule="evenodd" clip-rule="evenodd" fill="#00904C" d="M129.82,54.664c0.36,0.359,0.654,0.556,0.916,0.654   c0.262,0.065,0.49,0.065,0.719,0c0.229-0.065,0.458-0.197,0.688-0.425c0.229-0.229,0.359-0.49,0.392-0.719   c0.065-0.229,0.033-0.458-0.065-0.686c-0.098-0.262-0.359-0.556-0.719-0.883L129.82,54.664L129.82,54.664z"/>
	<path fill-rule="evenodd" clip-rule="evenodd" fill="#FFF200" d="M128.448,49.205l-1.046,1.634l-0.164-0.098   c0.164-0.425,0.229-0.785,0.196-1.013c0-0.261-0.098-0.491-0.229-0.719c-0.065-0.131-0.262-0.262-0.556-0.458l-0.458-0.262   l-2.942,4.708c-0.196,0.327-0.294,0.523-0.327,0.621c0,0.098,0.033,0.196,0.099,0.327s0.163,0.229,0.359,0.359l0.196,0.131   l-0.099,0.164l-3.203-2.027l0.098-0.164l0.196,0.131c0.196,0.131,0.359,0.164,0.49,0.196c0.099,0,0.229-0.033,0.327-0.131   c0.065-0.032,0.196-0.229,0.393-0.523l2.941-4.708l-0.425-0.294c-0.425-0.262-0.752-0.359-1.079-0.294   c-0.392,0.065-0.784,0.327-1.144,0.72l-0.164-0.098l1.047-1.667L128.448,49.205L128.448,49.205z"/>
	<path fill-rule="evenodd" clip-rule="evenodd" fill="#FFF200" d="M117.889,43.091c1.079,0.425,1.798,1.111,2.158,2.06   c0.359,0.948,0.326,1.896-0.099,2.877c-0.393,0.85-0.948,1.471-1.732,1.896c-1.014,0.556-2.125,0.556-3.302,0.032   c-1.178-0.523-1.929-1.34-2.224-2.419c-0.229-0.883-0.13-1.733,0.262-2.615c0.425-0.98,1.111-1.635,2.092-1.994   C115.992,42.568,116.94,42.634,117.889,43.091L117.889,43.091z"/>
	<path fill-rule="evenodd" clip-rule="evenodd" fill="#00904C" d="M117.823,43.418c-0.621-0.261-1.21-0.163-1.798,0.327   c-0.49,0.392-0.916,1.046-1.341,1.994c-0.522,1.144-0.687,2.06-0.522,2.778c0.098,0.491,0.425,0.85,0.915,1.079   c0.327,0.131,0.654,0.196,0.948,0.131c0.359-0.098,0.719-0.327,1.078-0.719c0.393-0.36,0.72-0.916,1.047-1.667   c0.392-0.883,0.588-1.569,0.621-2.06c0.033-0.49-0.033-0.915-0.196-1.209C118.379,43.811,118.15,43.582,117.823,43.418   L117.823,43.418z"/>
	<path fill-rule="evenodd" clip-rule="evenodd" fill="#FFF200" d="M108.44,39.92c1.145,0.196,1.995,0.719,2.551,1.569   s0.719,1.798,0.49,2.844c-0.196,0.916-0.621,1.635-1.275,2.19c-0.883,0.785-1.962,1.014-3.236,0.752   c-1.274-0.294-2.157-0.915-2.681-1.929c-0.393-0.784-0.49-1.667-0.294-2.583c0.229-1.046,0.752-1.863,1.635-2.386   C106.479,39.822,107.428,39.659,108.44,39.92L108.44,39.92z"/>
	<path fill-rule="evenodd" clip-rule="evenodd" fill="#00904C" d="M108.44,40.28c-0.621-0.131-1.209,0.098-1.667,0.687   c-0.392,0.458-0.687,1.21-0.915,2.223c-0.262,1.21-0.229,2.158,0.065,2.812c0.196,0.458,0.588,0.751,1.111,0.882   c0.359,0.065,0.687,0.033,0.948-0.065c0.359-0.164,0.653-0.49,0.948-0.915c0.261-0.458,0.49-1.079,0.653-1.864   c0.196-0.948,0.262-1.667,0.196-2.157c-0.098-0.491-0.229-0.883-0.458-1.112C109.095,40.509,108.801,40.345,108.44,40.28   L108.44,40.28z"/>
	<path fill-rule="evenodd" clip-rule="evenodd" fill="#FFF200" d="M99.647,39.103l-0.196,2.942l0.196,0.033   c0.326,0,0.588-0.033,0.817-0.098c0.195-0.065,0.359-0.229,0.522-0.458c0.164-0.196,0.262-0.49,0.359-0.883h0.164l-0.262,3.629   l-0.163-0.033c-0.033-0.687-0.164-1.144-0.458-1.373c-0.294-0.229-0.621-0.392-0.98-0.392l-0.229-0.033l-0.163,2.224   c0,0.359,0,0.588,0.032,0.686c0.033,0.098,0.099,0.164,0.229,0.262c0.098,0.065,0.261,0.131,0.457,0.131l0.229,0.033v0.164   l-3.76-0.262v-0.196l0.261,0.033c0.196,0,0.36,0,0.491-0.065c0.098-0.065,0.196-0.13,0.229-0.261   c0.065-0.065,0.099-0.294,0.131-0.654l0.327-4.741c0-0.359,0-0.588-0.032-0.687c-0.033-0.098-0.099-0.196-0.196-0.261   c-0.131-0.065-0.294-0.131-0.491-0.131l-0.229-0.033v-0.196l6.048,0.425l-0.131,2.06h-0.196c0-0.491-0.13-0.85-0.294-1.111   c-0.196-0.229-0.49-0.425-0.85-0.556c-0.229-0.065-0.621-0.131-1.177-0.164L99.647,39.103L99.647,39.103z"/>
	<path fill-rule="evenodd" clip-rule="evenodd" fill="#FFF200" d="M85.067,39.757l4.217,3.857l-0.458-3.073   c-0.065-0.425-0.196-0.687-0.327-0.817c-0.196-0.196-0.491-0.229-0.916-0.164v-0.196l2.354-0.393v0.196   c-0.294,0.098-0.458,0.196-0.556,0.261c-0.098,0.065-0.164,0.196-0.196,0.327c-0.033,0.163-0.033,0.392,0.032,0.719l0.916,5.95   l-0.164,0.033l-5.754-5.165l0.719,4.511c0.065,0.425,0.196,0.687,0.393,0.785c0.229,0.131,0.458,0.164,0.686,0.131l0.164-0.033   l0.033,0.196l-2.517,0.392l-0.033-0.196c0.393-0.065,0.654-0.196,0.785-0.359c0.131-0.197,0.164-0.458,0.098-0.85l-0.817-5.035   l-0.164-0.163c-0.196-0.164-0.327-0.262-0.458-0.294c-0.131-0.033-0.294-0.065-0.523-0.033l-0.032-0.196L85.067,39.757   L85.067,39.757z"/>
	<path fill-rule="evenodd" clip-rule="evenodd" fill="#FFF200" d="M79.706,46.72l-2.387,0.915l-0.033,0.752   c0,0.261,0.033,0.458,0.065,0.588c0.098,0.196,0.196,0.294,0.393,0.327c0.131,0.033,0.359-0.033,0.719-0.131l0.065,0.196   l-2.256,0.85l-0.065-0.196c0.229-0.131,0.392-0.294,0.49-0.523c0.098-0.229,0.164-0.622,0.196-1.242l0.327-6.277l0.098-0.032   l4.544,4.576c0.458,0.425,0.752,0.687,0.948,0.785c0.163,0.033,0.359,0.033,0.555-0.033l0.065,0.197l-3.236,1.242l-0.098-0.164   l0.164-0.065c0.229-0.098,0.425-0.196,0.49-0.327c0.066-0.065,0.066-0.164,0.033-0.261c-0.033-0.065-0.065-0.131-0.098-0.164   c-0.032-0.032-0.13-0.13-0.294-0.326L79.706,46.72L79.706,46.72z"/>
	<polygon fill-rule="evenodd" clip-rule="evenodd" fill="#00904C" points="79.378,46.393 77.516,44.464 77.352,47.178    79.378,46.393  "/>
	<path fill-rule="evenodd" clip-rule="evenodd" fill="#FFF200" d="M68.95,46.066c0.981-0.588,1.962-0.751,2.942-0.49   c0.981,0.294,1.733,0.883,2.256,1.831c0.425,0.785,0.588,1.634,0.458,2.484c-0.163,1.177-0.817,2.06-1.961,2.681   c-1.145,0.621-2.223,0.719-3.27,0.294c-0.85-0.327-1.471-0.915-1.929-1.732c-0.523-0.948-0.654-1.896-0.359-2.876   C67.381,47.275,68.002,46.523,68.95,46.066L68.95,46.066z"/>
	<path fill-rule="evenodd" clip-rule="evenodd" fill="#00904C" d="M69.179,46.328c-0.588,0.327-0.85,0.85-0.817,1.602   c0,0.621,0.262,1.406,0.784,2.288c0.588,1.079,1.21,1.766,1.896,2.092c0.458,0.196,0.916,0.164,1.406-0.098   c0.294-0.163,0.523-0.393,0.654-0.653c0.164-0.36,0.196-0.785,0.098-1.308c-0.065-0.523-0.327-1.144-0.687-1.831   c-0.49-0.85-0.915-1.438-1.275-1.766c-0.392-0.327-0.752-0.49-1.079-0.523C69.8,46.099,69.473,46.164,69.179,46.328L69.179,46.328z   "/>
	<path fill-rule="evenodd" clip-rule="evenodd" fill="#FFF200" d="M58.489,54.337l2.812-2.452l0.131,0.164l-0.164,0.098   c-0.196,0.196-0.327,0.36-0.359,0.458c-0.033,0.131-0.065,0.229,0,0.327c0.032,0.098,0.164,0.327,0.425,0.622l2.321,2.68   c0.425,0.491,0.752,0.785,0.981,0.883c0.196,0.065,0.425,0.098,0.687,0.065c0.261-0.033,0.522-0.164,0.784-0.392   c0.294-0.262,0.49-0.556,0.588-0.85c0.065-0.327,0.065-0.654-0.033-0.981c-0.098-0.294-0.392-0.752-0.882-1.34l-1.929-2.223   c-0.229-0.229-0.392-0.393-0.556-0.458c-0.13-0.065-0.261-0.065-0.36-0.033c-0.196,0.033-0.392,0.164-0.588,0.327l-0.13-0.131   l1.863-1.634l0.131,0.13l-0.098,0.098c-0.164,0.131-0.262,0.294-0.294,0.425c-0.065,0.163-0.065,0.327,0,0.49   c0.033,0.099,0.164,0.262,0.36,0.491l1.798,2.06c0.556,0.654,0.916,1.144,1.079,1.504c0.163,0.359,0.163,0.817,0.065,1.34   c-0.131,0.523-0.458,1.013-1.046,1.504c-0.458,0.425-0.883,0.654-1.242,0.751c-0.491,0.131-0.948,0.131-1.308,0   c-0.393-0.13-0.785-0.425-1.177-0.882l-2.321-2.681c-0.262-0.294-0.458-0.49-0.556-0.523c-0.098-0.065-0.196-0.065-0.327-0.033   c-0.131,0.033-0.294,0.131-0.523,0.327L58.489,54.337L58.489,54.337z"/>
	<path fill-rule="evenodd" clip-rule="evenodd" fill="#FFF200" d="M56.691,56.004l1.994,1.602l-0.131,0.13   c-0.687-0.229-1.34-0.294-1.896-0.163c-0.588,0.163-1.046,0.458-1.406,0.882c-0.359,0.425-0.523,0.85-0.491,1.34   c0,0.458,0.164,0.915,0.491,1.373c0.327,0.458,0.719,0.883,1.177,1.242c0.523,0.425,1.046,0.752,1.569,0.948   c0.49,0.196,0.948,0.229,1.373,0.099c0.425-0.131,0.785-0.393,1.111-0.752c0.098-0.164,0.196-0.294,0.294-0.458   c0.065-0.164,0.163-0.36,0.229-0.556l-1.177-0.948c-0.229-0.164-0.36-0.262-0.458-0.294c-0.098,0-0.196,0-0.327,0.065   c-0.13,0.033-0.261,0.131-0.359,0.261l-0.131,0.164l-0.131-0.131l2.19-2.747l0.164,0.131c-0.164,0.228-0.262,0.392-0.262,0.523   c-0.033,0.098,0,0.229,0.033,0.359c0.033,0.065,0.164,0.164,0.36,0.327l1.177,0.948c-0.131,0.49-0.294,0.948-0.556,1.406   c-0.229,0.458-0.49,0.916-0.85,1.308c-0.425,0.556-0.85,0.916-1.275,1.145c-0.425,0.261-0.883,0.392-1.341,0.49   c-0.457,0.065-0.882,0.065-1.308-0.033c-0.522-0.098-1.046-0.36-1.503-0.752c-0.85-0.654-1.308-1.537-1.406-2.615   c-0.098-1.046,0.196-2.027,0.915-2.942c0.229-0.262,0.458-0.491,0.687-0.687c0.131-0.098,0.36-0.262,0.654-0.425   c0.327-0.196,0.523-0.327,0.556-0.359c0.065-0.098,0.098-0.197,0.098-0.294c0-0.098-0.065-0.262-0.163-0.425L56.691,56.004   L56.691,56.004z"/>
	<path fill-rule="evenodd" clip-rule="evenodd" fill="#FFF200" d="M48.126,68.525l2.354,0.948l-0.065,0.196   c-0.752-0.065-1.373,0.065-1.896,0.393c-0.49,0.294-0.85,0.719-1.079,1.242c-0.196,0.49-0.229,0.948-0.065,1.406   c0.131,0.458,0.425,0.85,0.883,1.177c0.424,0.359,0.915,0.621,1.471,0.85c0.622,0.262,1.209,0.392,1.766,0.458   c0.556,0.033,1.013-0.065,1.373-0.327c0.359-0.229,0.621-0.588,0.817-1.046c0.065-0.164,0.098-0.327,0.13-0.523   c0.065-0.196,0.065-0.392,0.065-0.588l-1.373-0.556c-0.262-0.098-0.458-0.163-0.556-0.163c-0.065,0.033-0.164,0.065-0.294,0.163   c-0.098,0.066-0.196,0.197-0.261,0.36l-0.065,0.164l-0.164-0.065l1.308-3.236l0.164,0.065c-0.065,0.262-0.098,0.425-0.098,0.556   s0.065,0.229,0.164,0.327c0.065,0.065,0.196,0.131,0.458,0.229l1.373,0.556c0.033,0.523,0,1.014-0.098,1.504   c-0.099,0.523-0.229,1.014-0.425,1.504c-0.262,0.654-0.588,1.144-0.916,1.471c-0.327,0.36-0.719,0.654-1.111,0.85   c-0.425,0.196-0.85,0.327-1.275,0.359c-0.556,0.065-1.112-0.033-1.667-0.262c-1.014-0.425-1.7-1.111-2.125-2.092   c-0.392-0.98-0.392-2.027,0.065-3.105c0.131-0.327,0.262-0.621,0.425-0.85c0.098-0.131,0.261-0.327,0.523-0.621   c0.229-0.262,0.392-0.425,0.392-0.49c0.033-0.098,0.065-0.196,0-0.294c-0.032-0.098-0.13-0.229-0.294-0.393L48.126,68.525   L48.126,68.525z"/>
	<path fill-rule="evenodd" clip-rule="evenodd" fill="#FFF200" d="M44.072,81.732l5.166-2.485l-3.04-0.687   c-0.425-0.098-0.719-0.098-0.883,0c-0.262,0.098-0.425,0.36-0.49,0.752l-0.196-0.033l0.523-2.321l0.196,0.033   c-0.033,0.294-0.033,0.523,0.032,0.621c0.033,0.13,0.099,0.229,0.229,0.327c0.131,0.065,0.36,0.163,0.687,0.229l5.852,1.373   l-0.033,0.164l-6.963,3.4l4.479,1.046c0.393,0.098,0.687,0.065,0.883-0.098c0.164-0.164,0.294-0.359,0.359-0.588l0.033-0.164   l0.196,0.033l-0.588,2.518l-0.196-0.065c0.098-0.393,0.065-0.654-0.032-0.85c-0.131-0.196-0.393-0.327-0.752-0.425l-4.969-1.144   l-0.229,0.131c-0.196,0.098-0.359,0.196-0.458,0.294c-0.065,0.098-0.13,0.261-0.196,0.458l-0.196-0.033L44.072,81.732   L44.072,81.732z"/>
	<path fill-rule="evenodd" clip-rule="evenodd" fill="#FFF200" d="M50.414,86.244l0.196,0.033l-0.327,3.759l-0.196-0.033   l0.033-0.229c0-0.229,0-0.393-0.065-0.523c-0.033-0.098-0.131-0.164-0.229-0.229c-0.098-0.033-0.327-0.098-0.686-0.131   l-4.708-0.393c-0.36-0.032-0.621-0.032-0.719,0c-0.065,0.033-0.164,0.098-0.229,0.197c-0.098,0.13-0.131,0.261-0.163,0.49   l-0.033,0.229l-0.196-0.033l0.327-3.759l0.196,0.032v0.229c-0.033,0.229,0,0.393,0.065,0.523c0.033,0.098,0.131,0.164,0.229,0.229   c0.098,0.065,0.294,0.098,0.654,0.131l4.74,0.393c0.359,0.032,0.588,0.032,0.687,0.032c0.098-0.065,0.196-0.13,0.261-0.229   c0.099-0.131,0.131-0.262,0.164-0.49V86.244L50.414,86.244z"/>
	<path fill-rule="evenodd" clip-rule="evenodd" fill="#FFF200" d="M43.353,94.253h-0.196l-0.098-3.825h0.229v0.229   c0,0.229,0.033,0.392,0.099,0.523c0.065,0.065,0.13,0.164,0.261,0.196c0.099,0.033,0.327,0.065,0.687,0.065l3.531-0.065   c0.687-0.032,1.177,0.033,1.503,0.164c0.327,0.131,0.589,0.393,0.818,0.719c0.196,0.359,0.327,0.784,0.327,1.275   c0,0.621-0.131,1.112-0.458,1.471c-0.327,0.392-0.654,0.588-1.046,0.588c-0.261,0-0.458-0.065-0.621-0.229   c-0.13-0.13-0.229-0.327-0.229-0.556c0-0.196,0.065-0.392,0.196-0.522c0.131-0.164,0.294-0.229,0.523-0.229   c0.099,0,0.164,0,0.262,0.033c0.032,0,0.098,0.065,0.261,0.164c0.13,0.098,0.229,0.131,0.294,0.131   c0.098,0,0.196-0.065,0.262-0.131c0.098-0.164,0.131-0.327,0.131-0.556c0-0.131-0.065-0.262-0.131-0.359   c-0.065-0.098-0.196-0.164-0.36-0.196c-0.163-0.065-0.621-0.065-1.373-0.033l-3.857,0.065c-0.392,0-0.621,0.033-0.687,0.065   c-0.098,0.033-0.196,0.13-0.261,0.229c-0.066,0.131-0.098,0.294-0.098,0.491L43.353,94.253L43.353,94.253z"/>
	<path fill-rule="evenodd" clip-rule="evenodd" fill="#FFF200" d="M50.25,96.019l0.196-0.033l0.458,3.727l-0.196,0.033l-0.033-0.229   c0-0.229-0.065-0.393-0.164-0.49c-0.065-0.099-0.163-0.164-0.294-0.196c-0.065-0.033-0.294,0-0.653,0.032l-4.708,0.589   c-0.359,0.032-0.588,0.098-0.686,0.131c-0.099,0.064-0.164,0.13-0.196,0.262c-0.065,0.13-0.098,0.293-0.065,0.49l0.033,0.229   l-0.196,0.033l-0.458-3.728l0.196-0.032l0.033,0.229c0.033,0.229,0.065,0.393,0.164,0.49c0.066,0.099,0.164,0.164,0.294,0.196   c0.065,0.033,0.294,0,0.654-0.032l4.708-0.589c0.392-0.032,0.621-0.065,0.687-0.131c0.098-0.065,0.164-0.131,0.229-0.261   c0.033-0.131,0.065-0.294,0.033-0.491L50.25,96.019L50.25,96.019z"/>
	<path fill-rule="evenodd" clip-rule="evenodd" fill="#FFF200" d="M45.347,105.891l2.844-0.784l-0.065-0.164   c-0.098-0.425-0.327-0.719-0.687-0.816c-0.327-0.131-0.751-0.131-1.307-0.033l-0.066-0.196l3.629-1.046l0.066,0.196   c-0.393,0.163-0.687,0.326-0.916,0.523c-0.196,0.229-0.327,0.425-0.36,0.621c-0.033,0.195,0,0.457,0.065,0.784l1.961-0.556   c0.393-0.098,0.621-0.196,0.687-0.262c0.098-0.032,0.131-0.131,0.164-0.229s0-0.262-0.033-0.458l-0.131-0.425   c-0.196-0.621-0.49-1.111-0.883-1.373c-0.425-0.327-0.948-0.458-1.635-0.458l-0.032-0.195l2.288-0.327l1.7,5.982l-0.164,0.065   l-0.065-0.262c-0.065-0.196-0.164-0.327-0.261-0.425c-0.065-0.099-0.164-0.131-0.294-0.164c-0.098,0-0.327,0.033-0.654,0.131   l-4.577,1.308c-0.327,0.099-0.49,0.164-0.556,0.196c-0.13,0.065-0.196,0.164-0.229,0.262c-0.065,0.163-0.065,0.359,0,0.589   l0.065,0.229l-0.196,0.065l-1.667-5.819l2.06-0.589l0.065,0.197c-0.49,0.261-0.785,0.49-0.98,0.719   c-0.164,0.262-0.229,0.556-0.262,0.915c0,0.196,0.065,0.556,0.229,1.079L45.347,105.891L45.347,105.891z"/>
	<path fill-rule="evenodd" clip-rule="evenodd" fill="#FFF200" d="M50.12,110.762c-0.131-0.687-0.164-1.209-0.065-1.536   c0.131-0.523,0.425-0.85,0.915-1.079c0.49-0.196,0.981-0.196,1.471,0.065c0.622,0.294,1.145,0.948,1.537,1.863l1.504,3.367   l-0.164,0.065c-0.164-0.294-0.262-0.49-0.36-0.588c-0.13-0.065-0.229-0.131-0.327-0.131c-0.131,0-0.359,0.065-0.719,0.229   l-4.283,1.929c-0.327,0.131-0.556,0.262-0.621,0.359c-0.098,0.065-0.131,0.196-0.131,0.327s0.065,0.359,0.196,0.654l-0.196,0.064   l-1.405-3.138c-0.327-0.752-0.491-1.341-0.491-1.7c0-0.392,0.066-0.719,0.262-1.014c0.196-0.294,0.425-0.522,0.719-0.653   c0.327-0.131,0.654-0.163,1.014-0.033C49.335,109.944,49.695,110.238,50.12,110.762L50.12,110.762z"/>
	<path fill-rule="evenodd" clip-rule="evenodd" fill="#00A651" d="M51.133,112.43l2.125-0.948l0.261-0.099   c0.164-0.098,0.262-0.196,0.327-0.326c0.033-0.131,0.033-0.262-0.033-0.458c-0.13-0.229-0.294-0.458-0.49-0.621   c-0.229-0.164-0.458-0.262-0.752-0.294c-0.262,0-0.523,0.032-0.785,0.163c-0.327,0.131-0.556,0.326-0.752,0.588   c-0.164,0.229-0.261,0.523-0.229,0.817C50.807,111.546,50.937,111.938,51.133,112.43L51.133,112.43z"/>
	<path fill-rule="evenodd" clip-rule="evenodd" fill="#00A651" d="M50.774,112.593c-0.196-0.458-0.425-0.785-0.622-0.948   c-0.196-0.163-0.425-0.262-0.653-0.294c-0.229-0.033-0.523,0-0.785,0.131c-0.294,0.131-0.523,0.294-0.654,0.49   s-0.196,0.425-0.196,0.687s0.098,0.621,0.294,1.078L50.774,112.593L50.774,112.593z"/>
	<path fill-rule="evenodd" clip-rule="evenodd" fill="#FFF200" d="M96.378,48.648c23.832,0,43.25,19.451,43.25,43.284   c0,23.799-19.418,43.25-43.25,43.25s-43.283-19.451-43.283-43.25C53.095,68.1,72.546,48.648,96.378,48.648L96.378,48.648z"/>
	<path fill-rule="evenodd" clip-rule="evenodd" fill="#00904C" d="M96.378,51.231c22.394,0,40.7,18.274,40.7,40.701   c0,22.393-18.307,40.667-40.7,40.667s-40.7-18.274-40.7-40.667C55.678,69.506,73.984,51.231,96.378,51.231L96.378,51.231z"/>
	<path fill-rule="evenodd" clip-rule="evenodd" fill="#FFF200" d="M75.946,124.46c-10.789-6.833-18.013-18.896-18.013-32.528   c0-13.698,7.224-25.728,18.013-32.561v29.651h-5.002v-2.354c0-1.471-1.21-2.681-2.681-2.681c-1.471,0-2.681,1.209-2.681,2.681   v10.069c0,1.438,1.209,2.648,2.681,2.648c1.471,0,2.681-1.21,2.681-2.648v-2.387h5.002V124.46L75.946,124.46z"/>
	<path fill-rule="evenodd" clip-rule="evenodd" fill="#FFF200" d="M79.248,63.752v63.159l8.336,1.504V71.892   c0-0.523-1.308-1.765-1.798-2.255C83.694,67.577,81.274,65.452,79.248,63.752L79.248,63.752z"/>
	<path fill-rule="evenodd" clip-rule="evenodd" fill="#FFF200" d="M90.886,129.952V72.48c0-3.171-6.342-8.5-11.082-12.553   c-0.589-0.523-0.556-0.393-0.556-1.177v-1.242c5.165-2.583,10.984-4.054,17.13-4.054c0,0,0.033,0,0,0   c6.146,0,11.933,1.471,17.098,4.054v1.242c0,0.785,0.065,0.654-0.523,1.177c-4.74,4.054-11.049,9.382-11.049,12.553v57.472   C98.241,130.475,94.547,130.475,90.886,129.952L90.886,129.952z"/>
	<path fill-rule="evenodd" clip-rule="evenodd" fill="#FFF200" d="M113.476,63.752v63.159l-8.304,1.504V71.892   c0-0.523,1.308-1.765,1.798-2.255C109.063,67.577,111.481,65.452,113.476,63.752L113.476,63.752z"/>
	<path fill-rule="evenodd" clip-rule="evenodd" fill="#FFF200" d="M116.777,59.372c10.068,6.342,16.999,17.163,17.914,29.651h-3.269   v-2.354c0-1.471-1.209-2.681-2.681-2.681c-1.438,0-2.648,1.209-2.648,2.681v10.069c0,1.438,1.21,2.648,2.648,2.648   c1.472,0,2.681-1.21,2.681-2.648v-2.387h3.302c-0.784,12.651-7.78,23.701-17.947,30.109V59.372L116.777,59.372z"/>
	<path fill-rule="evenodd" clip-rule="evenodd" fill="#00904C" d="M172.613,135.869l-11.572,14.122   c-5.558-2.713-10.723-5.067-15.594-7.094c2.746-3.53,5.264-7.127,7.584-10.887c0.523-0.85,1.047-1.699,1.537-2.582   c0.948,0.294,1.896,0.588,2.877,0.883C162.251,131.848,167.252,133.646,172.613,135.869L172.613,135.869z"/>
	
		<path fill-rule="evenodd" clip-rule="evenodd" fill="#00904C" stroke="#000000" stroke-width="3.0889" stroke-miterlimit="2.6131" d="   M96.411,149.468c16.378,0,34.064,3.106,54.136,10.625l10.363-23.995c-21.511-8.99-43.021-12.815-64.5-12.815   c-21.511,0-43.054,3.825-64.565,12.815l10.396,23.995C62.281,152.574,80,149.468,96.411,149.468L96.411,149.468z"/>
	<path fill-rule="evenodd" clip-rule="evenodd" fill="#FFF200" d="M96.411,113.867c8.892,0,16.182,7.258,16.182,16.215   c0,8.925-7.29,16.215-16.182,16.215c-8.958,0-16.215-7.29-16.215-16.215C80.196,121.125,87.453,113.867,96.411,113.867   L96.411,113.867z"/>
	<polygon fill-rule="evenodd" clip-rule="evenodd" fill="#FFF200" points="130.214,148.193 135.215,132.796 137.536,133.548    137.568,133.646 143.943,146.396 147.017,136.915 147.114,136.653 150.155,137.667 145.153,153.031 142.864,152.28    142.832,152.182 136.457,139.399 133.352,148.945 133.286,149.174 130.214,148.193  "/>
	<path fill-rule="evenodd" clip-rule="evenodd" fill="#FFF200" d="M66.073,130.965l2.092,11.998   c0.033,0.131,0.131,0.229,0.261,0.326c0.098,0.066,0.262,0.132,0.36,0.099l6.865-1.209c0.098,0,0.229-0.131,0.327-0.262   c0.065-0.131,0.131-0.327,0.098-0.458l-2.092-11.899l3.465-0.589l2.125,12.03c0.131,0.72,0.164,1.341,0.164,1.863   c-0.033,0.523-0.164,0.948-0.327,1.309c-0.229,0.326-0.523,0.588-0.981,0.816c-0.424,0.229-0.948,0.393-1.569,0.491l-8.042,1.438   c-0.654,0.098-1.209,0.13-1.667,0.065c-0.49-0.065-0.882-0.197-1.177-0.458c-0.294-0.229-0.556-0.621-0.785-1.111   c-0.196-0.491-0.359-1.079-0.49-1.798l-2.125-12.031L66.073,130.965L66.073,130.965z"/>
	<path fill-rule="evenodd" clip-rule="evenodd" fill="#FFF200" d="M58.947,135.443l-11.344,3.694   c-0.098,0.033-0.196,0.099-0.229,0.164c-0.032,0.098-0.032,0.195,0,0.326l2.681,8.238c0.033,0.065,0.098,0.131,0.196,0.196   c0.065,0.032,0.131,0.065,0.164,0.032l7.879-2.55c0.065-0.032,0.098-0.098,0.164-0.163c0.032-0.098,0.065-0.229,0.032-0.294   l-0.719-2.158c0-0.065-0.065-0.131-0.163-0.163c-0.065-0.065-0.131-0.065-0.196-0.065l-4.413,1.438l-0.981-3.008l7.944-2.582   l1.765,5.361c0.229,0.687,0.36,1.308,0.393,1.83c0.065,0.523,0,0.981-0.131,1.341c-0.163,0.359-0.425,0.687-0.817,0.947   c-0.392,0.262-0.882,0.524-1.503,0.72l-8.5,2.746c-0.621,0.196-1.144,0.294-1.635,0.327c-0.49,0-0.882-0.099-1.242-0.294   c-0.327-0.197-0.622-0.557-0.883-1.014c-0.262-0.458-0.523-1.014-0.752-1.7l-2.55-7.846c-0.229-0.72-0.359-1.308-0.393-1.831   c-0.065-0.522,0-0.98,0.131-1.34s0.425-0.687,0.817-0.98c0.393-0.263,0.883-0.491,1.504-0.688l11.77-3.824L58.947,135.443   L58.947,135.443z"/>
	<path fill-rule="evenodd" clip-rule="evenodd" fill="#FFF200" d="M116.581,145.35l0.784-4.446l7.944,1.405l-0.785,4.446   l3.466,0.589l2.125-12.031c0.131-0.719,0.163-1.34,0.131-1.83c0-0.556-0.131-0.98-0.327-1.308c-0.196-0.36-0.49-0.621-0.948-0.851   c-0.425-0.229-0.948-0.392-1.602-0.49l-8.042-1.405c-0.621-0.131-1.177-0.163-1.635-0.098c-0.49,0.064-0.882,0.229-1.177,0.457   c-0.327,0.262-0.556,0.621-0.784,1.111c-0.196,0.49-0.36,1.079-0.491,1.798l-2.125,12.03L116.581,145.35L116.581,145.35z"/>
	<path fill-rule="evenodd" clip-rule="evenodd" fill="#00904C" d="M117.954,137.602l0.752-4.25c0.032-0.098,0.131-0.229,0.229-0.327   c0.131-0.065,0.262-0.131,0.393-0.098l6.865,1.21c0.098,0.032,0.229,0.13,0.294,0.261c0.098,0.131,0.164,0.327,0.131,0.458   l-0.719,4.151L117.954,137.602L117.954,137.602z"/>
	<path fill-rule="evenodd" clip-rule="evenodd" fill="#FFFFFF" d="M111.22,156.497c-0.033,0.359-0.131,0.719-0.294,1.046   c-0.131,0.294-0.359,0.589-0.621,0.817c-0.458,0.425-0.916,0.85-1.438,1.341c-0.49,0.425-0.948,0.85-1.406,1.274l3.335,0.294   l-0.131,1.406l-5.558-0.49l0.098-1.308c0.687-0.556,1.341-1.145,1.994-1.766c0.426-0.393,0.785-0.719,1.112-0.98   c0.294-0.295,0.588-0.557,0.817-0.72c0.294-0.294,0.457-0.653,0.49-1.046c0.032-0.359-0.033-0.719-0.262-1.014   c-0.099-0.131-0.196-0.229-0.327-0.294c-0.262-0.163-0.621-0.196-0.915-0.065c-0.621,0.229-0.784,0.915-0.784,1.536l-1.635-0.392   c0.032-0.425,0.131-0.851,0.326-1.242c0.523-0.916,1.635-1.472,2.681-1.373c0.393,0.032,0.72,0.131,1.046,0.294   c0.327,0.163,0.589,0.393,0.851,0.687c0.229,0.262,0.393,0.589,0.523,0.915C111.22,155.745,111.252,156.104,111.22,156.497   L111.22,156.497z"/>
	<path fill-rule="evenodd" clip-rule="evenodd" fill="#FFFFFF" d="M102.818,157.249c0,0.621-0.099,1.21-0.229,1.732   c-0.13,0.49-0.326,0.948-0.588,1.373c-0.295,0.49-0.687,0.85-1.145,1.111c-0.458,0.229-0.948,0.359-1.536,0.327   c-0.229,0-0.458-0.032-0.687-0.065c-0.425-0.098-0.883-0.294-1.243-0.523c-0.229-0.163-0.392-0.326-0.555-0.522l0.719-1.21   c0.131,0.131,0.262,0.294,0.425,0.425c0.229,0.164,0.523,0.327,0.785,0.426c0.131,0.032,0.262,0.065,0.359,0.065   c0.294,0,0.556-0.065,0.817-0.164c0.229-0.131,0.425-0.327,0.621-0.621c0.163-0.229,0.294-0.458,0.393-0.752   c0.065-0.163,0.098-0.359,0.131-0.556c-0.131,0.065-0.295,0.131-0.458,0.164c-0.327,0.064-0.687,0.098-1.046,0.098   c-0.359-0.033-0.72-0.098-1.014-0.229c-0.294-0.099-0.589-0.295-0.851-0.523c-0.261-0.294-0.49-0.589-0.621-0.948   s-0.196-0.752-0.196-1.177c0.033-0.49,0.131-0.883,0.262-1.242c0.163-0.393,0.392-0.687,0.687-0.948   c0.261-0.229,0.555-0.392,0.882-0.49s0.687-0.164,1.079-0.131c1.046,0.032,1.831,0.425,2.354,1.177   C102.654,154.765,102.851,155.843,102.818,157.249L102.818,157.249z"/>
	<path fill-rule="evenodd" clip-rule="evenodd" fill="#00904C" d="M101.249,156.66c0,0-0.033,0.033-0.033,0   c0-0.032,0.033-0.098,0.033-0.163c0-0.262-0.033-0.49-0.065-0.72c-0.032-0.229-0.098-0.457-0.196-0.686v0.032   c-0.131-0.294-0.294-0.49-0.457-0.654c-0.196-0.131-0.393-0.195-0.654-0.195c-0.196,0-0.359,0.032-0.49,0.098   c-0.163,0.065-0.327,0.163-0.458,0.327c-0.131,0.131-0.229,0.261-0.294,0.425c-0.065,0.163-0.098,0.327-0.098,0.49   c0,0.262,0.032,0.49,0.098,0.687c0.098,0.196,0.196,0.359,0.359,0.49c0.131,0.131,0.229,0.196,0.359,0.262   c0.099,0.065,0.196,0.099,0.295,0.099c0.359,0,0.687-0.033,0.948-0.099C100.856,156.955,101.053,156.824,101.249,156.66   L101.249,156.66z"/>
	<path fill-rule="evenodd" clip-rule="evenodd" fill="#FFFFFF" d="M94.057,157.021c0.033,0.62,0,1.177-0.098,1.699   c-0.098,0.556-0.229,1.014-0.458,1.438c-0.262,0.523-0.622,0.948-1.046,1.21c-0.425,0.294-0.948,0.457-1.504,0.49   c-0.229,0-0.458,0-0.687-0.033c-0.229-0.032-0.458-0.098-0.687-0.163c-0.458-0.131-0.85-0.359-1.209-0.719l0.621-1.275   c0.262,0.262,0.523,0.425,0.85,0.588c0.229,0.099,0.523,0.197,0.785,0.197c0.294-0.033,0.556-0.099,0.785-0.262   c0.229-0.131,0.425-0.36,0.588-0.622c0.131-0.261,0.229-0.522,0.327-0.816c0.033-0.164,0.065-0.359,0.065-0.556   c-0.131,0.098-0.294,0.163-0.458,0.196c-0.294,0.098-0.622,0.163-1.013,0.195c-0.36,0-0.719-0.032-1.014-0.13   c-0.327-0.099-0.621-0.262-0.883-0.458c-0.327-0.262-0.556-0.556-0.719-0.883c-0.164-0.359-0.261-0.752-0.294-1.177   c-0.032-0.458,0.033-0.883,0.164-1.242c0.098-0.393,0.294-0.72,0.588-1.014c0.229-0.229,0.523-0.425,0.85-0.556   c0.294-0.131,0.654-0.229,1.046-0.229c1.046-0.065,1.863,0.262,2.452,0.981C93.665,154.568,93.959,155.614,94.057,157.021   L94.057,157.021z"/>
	<path fill-rule="evenodd" clip-rule="evenodd" fill="#00904C" d="M92.422,156.563c0,0-0.033,0.032-0.033,0c0-0.033,0-0.099,0-0.196   c0-0.229-0.033-0.458-0.098-0.687c-0.066-0.229-0.164-0.458-0.262-0.654c-0.163-0.261-0.327-0.457-0.522-0.588   c-0.197-0.099-0.425-0.163-0.654-0.131c-0.196,0-0.359,0.032-0.49,0.131c-0.163,0.065-0.294,0.196-0.425,0.359   c-0.098,0.131-0.196,0.295-0.262,0.458c-0.033,0.163-0.065,0.327-0.033,0.49c0,0.262,0.065,0.49,0.131,0.687   c0.098,0.163,0.229,0.327,0.425,0.458c0.13,0.098,0.229,0.196,0.359,0.229c0.098,0.033,0.229,0.065,0.327,0.065   c0.327-0.032,0.654-0.098,0.916-0.196C92.03,156.89,92.259,156.759,92.422,156.563L92.422,156.563z"/>
	<path fill-rule="evenodd" clip-rule="evenodd" fill="#FFFFFF" d="M83.236,162.773l-0.72-6.636l-0.915,0.098l-0.131-1.144   c0.621-0.066,0.883-0.622,1.014-1.275l1.405-0.131l0.948,8.893L83.236,162.773L83.236,162.773z"/>
	<path fill-rule="evenodd" clip-rule="evenodd" d="M95.757,115.861c3.955-0.163,7.323,1.112,10.232,3.728   c2.909,2.647,4.413,5.949,4.643,9.872c0.195,3.988-1.079,7.389-3.728,10.298c-2.647,2.942-5.917,4.479-9.873,4.643   c-3.956,0.163-7.355-1.079-10.265-3.727c-2.909-2.648-4.446-5.95-4.642-9.906c-0.196-3.955,1.046-7.355,3.727-10.297   C88.5,117.562,91.801,116.025,95.757,115.861L95.757,115.861z"/>
	<path fill-rule="evenodd" clip-rule="evenodd" fill="#FFFFFF" d="M93.436,141.852l-0.033,0.032c-0.621,0.359-1.177,0.621-1.7,0.785   l-0.033,0.032c-2.125-0.817-3.956-2.125-5.459-3.923c-0.163-0.49-0.196-1.21-0.131-2.093l0.033-0.457l0.032-0.033   c0.785-0.588,1.438-0.98,2.027-1.078h0.065l0.033,0.032c1.373,1.668,2.975,2.976,4.838,3.988l0.033-0.032v0.065   c0.196,1.046,0.261,1.961,0.261,2.647L93.436,141.852L93.436,141.852z"/>
	<path fill-rule="evenodd" clip-rule="evenodd" fill="#FFFFFF" d="M83.432,130.05l-0.032,0.032l-0.36,0.033l-0.033-0.099   c0-3.89,1.471-7.159,4.414-9.84h0.032h0.033c0.262,0.033,0.556,0.131,0.785,0.327l0.065,0.065h-0.033   c-1.079,1.602-1.831,3.302-2.354,5.165l-1.667,2.55L83.432,130.05L83.432,130.05z"/>
	<path fill-rule="evenodd" clip-rule="evenodd" fill="#FFFFFF" d="M100.432,142.57l0.065-0.065c1.014-0.85,1.896-1.863,2.55-2.909   l0.033-0.033c1.732-0.588,3.203-1.438,4.413-2.615l0.032-0.032v0.032c0.164,0.033,0.229,0.065,0.262,0.099l0.098,0.032   l-0.065,0.065c-1.732,2.779-4.118,4.708-7.159,5.721l-0.064,0.033L100.432,142.57L100.432,142.57z"/>
	<path fill-rule="evenodd" clip-rule="evenodd" fill="#FFFFFF" d="M104.942,127.304l-0.032-0.065   c-0.294-1.504-0.817-3.073-1.536-4.707v-0.065l1.209-1.472l0.033,0.033c0.883,0.229,1.798,0.686,2.681,1.307l0.033,0.033   c1.241,1.733,2.026,3.662,2.354,5.786h-0.033l0.033,0.033c-0.36,0.883-0.785,1.471-1.341,1.766l-0.032,0.032l-0.033-0.065   C107.362,128.808,106.25,127.925,104.942,127.304L104.942,127.304z"/>
	<path fill-rule="evenodd" clip-rule="evenodd" fill="#FFFFFF" d="M103.701,120.242v0.033l-1.242,1.602l-0.033-0.032   c-1.896-0.262-3.661-0.327-5.263-0.164l-0.033,0.032v-0.032c-1.014-1.144-1.994-2.026-2.909-2.746h-0.033l0.033-0.065   c0.751-0.915,1.471-1.634,2.255-2.157h0.033c1.798,0,3.53,0.359,5.197,1.046C102.524,118.575,103.178,119.359,103.701,120.242   L103.701,120.242z"/>
	<path fill-rule="evenodd" clip-rule="evenodd" fill="#FFFFFF" d="M99.517,143.191h-0.099c-0.948,0.229-1.765,0.327-2.386,0.359   c-1.112,0.033-2.223-0.032-3.433-0.262l-0.163-0.098l0.785-0.425c1.699,0.327,3.433,0.359,5.165,0.262h0.032l0.033,0.032   L99.517,143.191L99.517,143.191z"/>
	<path fill-rule="evenodd" clip-rule="evenodd" fill="#FFFFFF" d="M107.591,130.899l-0.065,1.373l-0.588,3.629l-0.033,0.033   c-1.308,1.242-2.746,2.124-4.282,2.615l-0.033,0.032l-0.032-0.032c-1.079-0.295-2.092-0.981-3.04-2.093l-0.033-0.032l0.033-0.033   c0.359-1.209,0.588-2.419,0.653-3.661l0.033-1.896l-0.033-0.032h0.065c1.504-0.981,2.845-1.831,4.185-2.518v0.033h0.032   c1.275,0.687,2.354,1.569,3.139,2.55V130.899L107.591,130.899z"/>
	<path fill-rule="evenodd" clip-rule="evenodd" fill="#FFFFFF" d="M98.372,136.261l-0.032,0.065   c-1.406,0.948-2.91,1.569-4.544,1.929l-0.033-0.032c-1.863-0.948-3.433-2.288-4.838-3.956l-0.033-0.032   c0.033-0.131,0.033-0.458,0.098-0.98l0.425-3.531l0.065-0.065l5.656-1.994l0.033-0.032l0.033,0.032l1.177,0.654   c1.013,0.653,1.929,1.405,2.681,2.288l0.033,0.033v2.059C98.993,133.842,98.765,135.051,98.372,136.261L98.372,136.261z"/>
	<path fill-rule="evenodd" clip-rule="evenodd" fill="#FFFFFF" d="M89.153,128.611l-0.425-0.556l-0.032,0.032   c0-0.098-0.065-0.163-0.131-0.261l-1.504-2.027l0.033-0.032c0.425-1.7,1.209-3.335,2.321-4.871v-0.065l0.032,0.032   c1.275-0.687,2.518-1.111,3.727-1.274h0.065v0.032c1.242,0.948,2.19,1.831,3.007,2.746h0.033l-0.033,0.033   c-0.588,1.177-1.046,2.582-1.471,4.184v0.033h-0.032l-5.558,1.961L89.153,128.611L89.153,128.611z"/>
	<path fill-rule="evenodd" clip-rule="evenodd" fill="#FFFFFF" d="M83.367,131.292v0.032l0.589,2.257L85.034,136v0.032l-0.098,1.079   c0-0.065-0.065-0.131-0.131-0.229c-1.013-1.733-1.569-3.564-1.732-5.525l-0.033-0.065H83.367L83.367,131.292z"/>
</g>
</svg>