<?xml version="1.0" encoding="UTF-8" standalone="no"?>
<!-- Created with Inkscape (http://www.inkscape.org/) -->

<svg
   xmlns:dc="http://purl.org/dc/elements/1.1/"
   xmlns:cc="http://creativecommons.org/ns#"
   xmlns:rdf="http://www.w3.org/1999/02/22-rdf-syntax-ns#"
   xmlns:svg="http://www.w3.org/2000/svg"
   xmlns="http://www.w3.org/2000/svg"
   xmlns:sodipodi="http://sodipodi.sourceforge.net/DTD/sodipodi-0.dtd"
   xmlns:inkscape="http://www.inkscape.org/namespaces/inkscape"
   width="280"
   height="200"
   id="svg10142"
   version="1.1"
   inkscape:version="0.48.4 r9939"
   sodipodi:docname="cricket.svg">
  <defs
     id="defs10144">
    <clipPath
       clipPathUnits="userSpaceOnUse"
       id="clipPath1132">
      <path
         inkscape:connector-curvature="0"
         d="m 479.291,741.385 82.683,0 0,51.024 -82.683,0 0,-51.024 z"
         id="path1134" />
    </clipPath>
  </defs>
  <sodipodi:namedview
     id="base"
     pagecolor="#ffffff"
     bordercolor="#666666"
     borderopacity="1.0"
     inkscape:pageopacity="0.0"
     inkscape:pageshadow="2"
     inkscape:zoom="1.979899"
     inkscape:cx="36.601065"
     inkscape:cy="102.37879"
     inkscape:document-units="px"
     inkscape:current-layer="layer1"
     showgrid="false"
     fit-margin-top="0"
     fit-margin-left="0"
     fit-margin-right="0"
     fit-margin-bottom="0"
     inkscape:window-width="1535"
     inkscape:window-height="1176"
     inkscape:window-x="65"
     inkscape:window-y="24"
     inkscape:window-maximized="1" />
  <metadata
     id="metadata10147">
    <rdf:RDF>
      <cc:Work
         rdf:about="">
        <dc:format>image/svg+xml</dc:format>
        <dc:type
           rdf:resource="http://purl.org/dc/dcmitype/StillImage" />
        <dc:title></dc:title>
      </cc:Work>
    </rdf:RDF>
  </metadata>
  <g
     inkscape:label="Layer 1"
     inkscape:groupmode="layer"
     id="layer1"
     transform="translate(-420.74554,-460.93782)">
    <g
       transform="matrix(3.3864523,0,0,-3.3864523,-1202.3526,3157.6031)"
       id="g1130"
       clip-path="url(#clipPath1132)">
      <g
         id="g1136"
         transform="translate(522.6107,770.0178)">
        <path
           inkscape:connector-curvature="0"
           d="m 0,0 c -0.253,-2.202 -0.424,-4.389 -0.512,-6.564 -0.088,-2.177 -0.133,-4.378 -0.133,-6.603 0,-2.201 0.038,-4.39 0.114,-6.565 0.075,-2.176 0.253,-4.363 0.531,-6.565 l -8.273,0 c 0.305,2.176 0.488,4.358 0.551,6.547 0.063,2.187 0.096,4.382 0.096,6.583 0,2.225 -0.039,4.426 -0.115,6.603 C -7.817,-4.389 -7.994,-2.202 -8.273,0 L 0,0 z"
           style="fill:#19398a;fill-opacity:1;fill-rule:nonzero;stroke:none"
           id="path1138" />
      </g>
      <g
         id="g1140"
         transform="translate(536.8401,760.9111)">
        <path
           inkscape:connector-curvature="0"
           d="m 0,0 c -0.101,-0.684 -0.299,-1.291 -0.589,-1.822 -0.29,-0.532 -0.701,-0.967 -1.232,-1.31 -0.516,-0.33 -1.565,-0.552 -2.39,-0.536 l 0,9.663 c 0.1,0.024 0.277,0.039 0.531,0.039 1.416,0 2.409,-0.285 2.978,-0.855 C -0.133,4.61 0.152,3.578 0.152,2.087 0.152,1.378 0.101,0.683 0,0 M 7.002,5.786 C 6.559,6.634 5.95,7.304 5.179,7.797 4.407,8.29 3.51,8.631 2.486,8.822 1.461,9.011 0.38,9.107 -0.759,9.107 l -11.08,0 c 0.278,-2.202 0.456,-4.389 0.531,-6.565 0.077,-2.176 0.115,-4.377 0.115,-6.602 0,-2.201 -0.038,-4.39 -0.115,-6.565 -0.075,-2.176 -0.253,-4.364 -0.531,-6.565 l 8.273,0 c -0.229,1.694 -0.393,3.39 -0.494,5.085 -0.101,1.694 -0.151,3.402 -0.151,5.122 l 0,1.902 c 0.442,-0.139 1.806,-0.361 2.087,-0.384 0.303,-0.025 0.605,-0.038 0.91,-0.038 1.264,0 2.435,0.171 3.51,0.513 1.074,0.341 2.011,0.847 2.807,1.518 0.797,0.669 1.424,1.511 1.878,2.523 0.457,1.011 0.684,2.175 0.684,3.491 0,1.315 -0.221,2.396 -0.663,3.244"
           style="fill:#19398a;fill-opacity:1;fill-rule:nonzero;stroke:none"
           id="path1142" />
      </g>
      <g
         id="g1144"
         transform="translate(561.6721,743.7213)">
        <path
           inkscape:connector-curvature="0"
           d="m 0,0 c -1.873,0.128 -3.77,0.144 -5.642,0.169 -1.872,0.026 -2.343,0.038 -4.189,0.038 0,0 -5.704,-0.182 -6.16,-0.207 0.279,2.201 0.456,4.389 0.532,6.565 0.074,2.175 0.113,4.364 0.113,6.565 0,2.225 -0.039,4.426 -0.113,6.602 -0.076,2.176 -0.253,4.363 -0.532,6.565 l 8.272,0 c -0.254,-2.202 -0.423,-4.389 -0.512,-6.565 -0.089,-2.176 -0.132,-4.377 -0.132,-6.602 0,-0.735 0.005,-1.467 0.018,-2.201 0.013,-0.735 0.019,-1.468 0.019,-2.202 0,-0.834 0.012,-1.681 0.038,-2.541 0.024,-0.86 0.1,-1.709 0.228,-2.543 3.169,-0.78 7.123,0.354 8.362,0.531 L 0,0 z"
           style="fill:#19398a;fill-opacity:1;fill-rule:nonzero;stroke:none"
           id="path1146" />
      </g>
      <g
         id="g1148"
         transform="translate(538.1355,772.3646)">
        <path
           inkscape:connector-curvature="0"
           d="m 0,0 0.663,4.003 3.815,0 0.441,2.663 -3.812,0 0.346,2.07 4.783,0 0.441,2.666 -8.266,0 L -3.485,0 0,0 z m -4.443,0 0.442,2.664 -4.787,0 1.454,8.738 -3.482,0 L -12.712,0 -4.443,0 z m -14.941,0 c 3.753,-0.084 6.009,1.892 6.77,5.936 0.539,3.668 -1.045,5.488 -4.763,5.466 l -4.763,0 L -24.034,0 l 4.65,0 z m 0.282,8.736 0.716,0 c 0.99,0.009 1.66,-0.185 2.028,-0.593 0.347,-0.432 0.422,-1.24 0.227,-2.416 -0.356,-2.074 -1.419,-3.099 -3.188,-3.063 l -0.791,0 1.008,6.072 z"
           style="fill:#000000;fill-opacity:1;fill-rule:evenodd;stroke:none"
           id="path1150" />
      </g>
      <g
         id="g1152"
         transform="translate(548.3722,783.1117)">
        <path
           inkscape:connector-curvature="0"
           d="m 0,0 -2.868,-5.071 5.74,0 L 0,0 z m 3.21,5.686 -2.989,-5.287 5.977,0 -2.988,5.287 z m 6.298,-11.147 -2.988,-5.286 5.981,0 -2.993,5.286 z m -6.29,-0.209 -2.871,-5.077 5.734,0 -2.863,5.077 z m -3.098,-4.673 -2.756,4.873 5.514,0 -2.758,-4.873 z m -3.21,4.882 -2.99,-5.286 5.981,0 -2.991,5.286 z m 9.388,-4.882 -2.756,4.873 5.515,0 -2.759,-4.873 z m -3.088,5.469 -2.758,4.87 5.514,0 -2.756,-4.87 z M 6.408,0 3.539,-5.071 l 5.74,0 L 6.408,0 z"
           style="fill:#000000;fill-opacity:1;fill-rule:evenodd;stroke:none"
           id="path1154" />
      </g>
      <g
         id="g1156"
         transform="translate(505.9269,790.5592)">
        <path
           inkscape:connector-curvature="0"
           d="m 0,0 c -5.452,4.113 -14.654,1.133 -20.732,-6.635 0.263,0.019 0.589,0.04 0.92,0.066 5.454,5.478 12.781,7.199 17.397,3.716 5.232,-3.948 4.996,-13.086 -0.526,-20.412 -2.842,-3.768 -6.531,-6.318 -10.154,-7.373 4.244,0.993 8.718,3.966 12.133,8.495 C 5.11,-14.093 5.54,-4.18 0,0"
           style="fill:#5091cd;fill-opacity:1;fill-rule:nonzero;stroke:none"
           id="path1158" />
      </g>
      <g
         id="g1160"
         transform="translate(511.3834,756.7421)">
        <path
           inkscape:connector-curvature="0"
           d="m 0,0 c -0.108,-0.096 -0.137,-0.154 -0.195,-0.236 -0.085,-0.079 -0.085,-0.088 -0.169,-0.173 -0.147,-0.156 -0.104,-0.156 -0.295,-0.305 -0.092,-0.091 -0.145,-0.124 -0.305,-0.261 -0.182,-0.169 -0.304,-0.233 -0.533,-0.416 -0.217,-0.178 -0.382,-0.333 -0.626,-0.533 -0.08,-0.06 -0.33,-0.217 -0.785,-0.449 -0.19,-0.117 -0.427,-0.236 -0.685,-0.178 0.219,0.209 0.429,0.489 0.746,0.749 0.454,0.367 1.189,0.482 1.158,1.132 -0.016,0.326 -0.134,0.616 -0.255,0.91 0.078,0.05 0.165,0.102 0.225,0.148 0.139,0.106 0.322,0.196 0.476,0.275 0.218,0.11 0.442,0.129 0.686,0.08 0.242,-0.049 0.382,-0.28 0.495,-0.488 C -0.012,0.161 0.025,0.068 0,0 m -7.816,-1.488 c -0.592,0.207 -1.316,0.52 -2.167,0.335 -0.009,-0.018 -0.024,-0.024 -0.024,-0.047 0.053,0.062 0.649,-0.004 0.481,-0.024 -0.467,-0.028 -0.99,-0.05 -1.351,-0.167 0.686,0.661 2.193,0.515 2.992,0.071 0.129,-0.065 0.149,-0.074 0.257,-0.14 0.083,-0.176 -0.021,-0.083 -0.188,-0.028 m -3.791,-9.981 c -0.025,-0.227 0.023,-0.374 -0.237,-0.334 -0.414,0.065 -0.423,0.387 -0.592,0.636 -0.195,0.284 -0.301,0.485 -0.301,0.485 0.096,0.243 0.152,0.151 0.39,0.2 0.226,0.05 0.48,0.152 0.595,0.152 0.118,0 0.062,0.082 0.137,-0.379 0.067,-0.386 0.036,-0.512 0.008,-0.76 m -5.638,-3.045 c -0.179,-0.188 -0.476,-0.18 -1.161,-0.151 -0.683,0.032 -0.639,0.056 -1.03,0.226 -0.327,0.138 -0.433,0.089 -0.359,0.949 0.078,0.91 0.789,0.742 1.561,0.498 0.784,-0.245 0.789,-0.326 0.826,-0.49 0.038,-0.166 0.194,-0.653 0.194,-0.653 0,0 0.088,-0.255 -0.031,-0.379 M 0.147,0.027 C 0.136,0.159 0.06,0.351 0.008,0.431 -0.119,0.617 -0.301,0.767 -0.52,0.824 -1.042,0.963 -1.568,0.621 -1.964,0.289 -2.043,0.478 -2.121,0.67 -2.174,0.874 L -2.558,1.692 C -2.704,2.046 -2.988,2.259 -3.063,2.681 -3.842,3.825 -4.208,5.378 -5.381,6.13 -5.62,6.427 -5.871,6.715 -6.172,6.95 -6.489,7.49 -7.12,7.693 -7.308,8.324 -7.35,8.465 -7.308,8.66 -7.379,8.805 -7.427,8.9 -7.56,8.933 -7.695,9.048 -7.8,9.138 -7.893,9.272 -7.98,9.336 -8.064,9.396 -8.155,9.45 -8.245,9.504 -10.225,7.392 -12.439,5.736 -14.699,4.6 c 0.021,-0.028 0.043,-0.058 0.063,-0.085 0.202,-0.301 0.476,-0.562 0.521,-0.94 0.019,-0.167 0.1,-0.314 0.12,-0.474 0.014,-0.133 0.069,-0.239 0.122,-0.357 0.061,-0.143 0.047,-0.293 0.06,-0.444 0.008,-0.125 0.064,-0.228 0.093,-0.346 0.013,-0.055 -0.017,-0.113 0,-0.165 0.011,-0.037 0.052,-0.048 0.067,-0.082 0.036,-0.085 0.018,-0.221 0.042,-0.316 0.034,-0.17 0.09,-0.343 0.076,-0.521 -0.023,-0.366 0.056,-0.746 0.085,-1.109 0.049,-0.549 0.065,-1.099 0.049,-1.648 -0.012,-0.285 -0.031,-0.569 -0.058,-0.85 -0.015,-0.143 -0.033,-0.287 -0.051,-0.429 -0.013,-0.089 -0.007,-0.357 -0.065,-0.421 -0.306,-0.336 -0.415,-0.779 -0.7,-1.109 -0.213,-0.247 -0.535,-0.441 -0.796,-0.65 -0.155,-0.127 -0.31,-0.257 -0.467,-0.384 -0.119,-0.099 -0.276,-0.179 -0.363,-0.312 -0.065,-0.095 -0.103,-0.217 -0.154,-0.324 -0.119,-0.254 -0.251,-0.504 -0.38,-0.757 -0.091,-0.174 -0.154,-0.36 -0.239,-0.536 -0.079,-0.154 -0.185,-0.282 -0.281,-0.425 -0.113,-0.17 -0.147,-0.372 -0.3,-0.524 -0.112,-0.114 -0.23,-0.25 -0.304,-0.352 -0.224,-0.288 -0.321,-0.4 -0.526,-0.701 -0.203,-0.306 -0.389,-0.665 -0.627,-0.918 -0.21,-0.224 -0.506,-0.404 -0.746,-0.602 -0.252,-0.206 -0.487,-0.347 -0.744,-0.611 -0.162,-0.327 -0.125,-0.707 -0.197,-1.054 -0.03,-0.146 -0.12,-0.255 -0.12,-0.411 0,-0.171 0.084,-0.364 0.12,-0.55 0.068,-0.351 -0.016,-0.842 0.279,-1.1 0.345,-0.301 0.912,-0.45 1.347,-0.45 0.727,0.068 1.274,0.12 2.017,0.174 0.191,0.087 0.145,0.466 0.138,0.529 -0.009,0.114 -0.071,0.178 0.005,0.291 0.979,1.207 1.776,2.595 2.989,3.566 0.169,-0.241 0.378,-0.462 0.577,-0.722 0.18,-0.227 0.357,-0.577 0.58,-0.722 0.262,-0.176 0.549,-0.317 0.915,-0.338 0.402,0.214 0.207,1.899 0.604,2.556 0.294,0.056 0.516,0.191 0.797,0.263 1.795,1.807 3.811,3.648 5.736,5.401 0.279,0.254 0.567,0.576 0.845,0.747 0.51,0.314 1.119,0.423 1.639,0.7 0.847,0.998 2.233,2.594 2.078,2.939"
           style="fill:#19398a;fill-opacity:1;fill-rule:nonzero;stroke:none"
           id="path1162" />
      </g>
      <g
         id="g1164"
         transform="translate(483.6324,781.6899)">
        <path
           inkscape:connector-curvature="0"
           d="m 0,0 c -1.052,-1.677 -1.874,-3.405 -2.467,-5.125 0.703,1.713 1.649,3.415 2.865,5.025 0.028,0.038 0.058,0.075 0.087,0.113 C 0.322,0.007 0.161,0.004 0,0"
           style="fill:#5091cd;fill-opacity:1;fill-rule:nonzero;stroke:none"
           id="path1166" />
      </g>
      <g
         id="g1168"
         transform="translate(492.7466,775.5934)">
        <path
           inkscape:connector-curvature="0"
           d="m 0,0 c 0.06,-0.261 0.109,-0.526 0.138,-0.797 0.285,0.074 0.553,0.215 0.798,0.316 0.005,0.004 0.012,0.009 0.018,0.011 0.068,0.046 0.116,0.083 0.156,0.099 C 1.111,-0.098 1.083,0.172 1.029,0.438 1.007,0.437 0.984,0.433 0.963,0.429 0.662,0.249 0.294,0.124 -0.002,0.028 -0.002,0.019 0,0.01 0,0 M -0.169,0.14 C -0.21,0.336 -0.255,0.593 -0.355,0.765 -0.36,0.769 -0.361,0.776 -0.364,0.779 -0.559,0.716 -0.754,0.651 -0.95,0.593 -1.077,0.55 -1.206,0.506 -1.34,0.469 -1.41,0.263 -1.483,0.056 -1.55,-0.151 c -0.008,-0.022 -0.01,-0.041 -0.014,-0.061 0.109,0.016 0.216,0.032 0.333,0.056 0.305,0.063 0.607,0.144 0.903,0.239 0.055,0.016 0.105,0.038 0.159,0.057 M 0.806,1.146 C 0.781,1.159 0.751,1.161 0.719,1.15 0.711,1.148 0.704,1.143 0.696,1.141 0.686,1.133 0.678,1.131 0.671,1.131 0.484,1.058 0.294,0.998 0.135,0.941 0.044,0.909 -0.053,0.88 -0.144,0.85 -0.163,0.842 -0.178,0.836 -0.197,0.83 -0.193,0.776 -0.187,0.728 -0.181,0.678 -0.136,0.511 -0.09,0.347 -0.047,0.182 0.237,0.281 0.518,0.388 0.793,0.513 0.861,0.546 0.925,0.582 0.989,0.621 0.967,0.7 0.948,0.779 0.924,0.856 0.891,0.953 0.852,1.05 0.806,1.146 M 8.969,-8.262 C 8.947,-8.169 8.924,-8.078 8.919,-7.972 8.358,-7.16 7.872,-6.31 7.349,-5.489 7.176,-5.213 7.01,-4.894 6.822,-4.645 6.645,-4.417 6.37,-4.218 6.145,-3.993 5.47,-3.315 4.751,-2.708 4.047,-2.089 4.577,-1.048 5.07,0.079 5.639,1.069 5.831,1.4 6.085,1.751 6.218,2.083 6.321,2.338 6.362,2.662 6.436,2.95 6.658,3.84 6.846,4.668 7.085,5.554 7.225,5.665 7.358,5.781 7.349,6.036 7.15,6.061 7.053,6.19 6.916,6.277 6.542,6.101 5.802,6.175 5.735,6.517 5.647,6.983 6.307,7.021 6.362,7.337 6.192,7.333 5.886,7.184 5.809,7.313 5.965,7.429 6.166,7.504 6.315,7.628 6.019,7.879 5.593,7.998 5.23,8.182 5.181,8.561 4.997,8.799 5.012,9.242 5.058,9.365 5.127,9.43 5.163,9.597 5.185,9.664 5.185,9.696 5.14,9.805 5.026,9.809 4.932,9.786 4.868,9.821 4.741,9.944 4.871,10.189 4.771,10.352 4.718,10.179 4.703,9.968 4.603,9.845 4.596,9.975 4.554,10.07 4.506,10.159 4.532,9.798 4.647,9.526 4.725,9.218 4.455,9.262 4.356,9.138 4.124,9.146 4.124,9.072 4.098,9.023 4.047,9.002 3.504,8.815 2.847,8.744 2.358,8.496 2.14,8.723 2.084,9.119 1.88,9.363 1.971,8.997 2.179,8.711 2.289,8.301 3.002,8.497 3.572,8.834 4.337,8.977 4.411,9.059 4.587,9.109 4.725,9.05 4.741,8.918 4.839,8.758 4.771,8.616 4.495,8.656 4.66,8.621 4.484,8.566 4.425,8.599 4.413,8.518 4.307,8.503 4.186,8.462 4.124,8.462 4.011,8.39 3.892,8.338 3.913,8.327 3.794,8.311 3.689,8.262 3.812,8.311 3.689,8.262 3.574,8.242 3.562,8.229 3.448,8.191 3.275,8.14 3.338,8.158 3.19,8.117 2.964,8.055 3.101,8.093 2.864,8.03 2.52,7.957 2.828,8.039 2.505,7.941 2.356,8.145 2.209,8.35 2.024,8.52 1.948,8.453 1.924,8.637 1.902,8.807 1.703,8.875 1.641,9.077 1.636,9.339 1.569,9.351 1.469,9.188 1.348,9.171 1.161,9.246 1.025,9.497 0.77,9.531 0.562,9.562 0.237,9.451 -0.025,9.411 -0.227,9.381 -0.425,9.375 -0.586,9.329 -1.854,9.208 -6.218,8.5 -7.019,8.375 c 0.838,0.074 5.567,0.641 6.613,0.876 0.463,0.037 0.943,0.17 1.369,0.16 C 1.006,9.351 1.045,9.285 1.032,9.171 0.378,8.951 -0.305,8.886 -0.99,8.784 -1.386,8.725 -2.637,8.469 -2.872,8.423 -3.884,8.221 -5.033,8.011 -6.15,7.82 -6.476,7.764 -6.815,7.711 -7.138,7.651 -9.07,7.299 -11.118,7.15 -13.14,7.386 c -0.162,0.024 -0.226,-0.011 -0.258,-0.041 0.022,0.085 0.086,0.17 0.154,0.208 0.249,0.118 0.551,0.233 0.848,0.291 l 0.144,0 c 0.058,0.051 -0.09,0.022 -0.144,0.024 -0.25,0.008 -0.663,-0.005 -0.844,0 C -13.288,7.803 -13.375,7.71 -13.393,7.602 -13.4,7.589 -13.455,7.326 -13.455,7.313 l 0,-0.024 c 0.083,-0.399 0.141,-0.82 0.359,-1.086 0.703,-0.009 1.345,-0.207 2.003,-0.215 0.535,-0.008 1.071,0.073 1.593,0.097 0.429,0.019 0.861,0.012 1.301,0.047 0.765,0.062 1.547,0.26 2.314,0.385 2.362,0.386 4.689,0.811 6.896,1.28 C 1.224,8.019 1.382,8.344 1.853,8.182 2.028,7.81 2.169,7.403 2.313,7.001 2.667,6.893 2.93,6.613 3.374,6.783 3.175,7.696 4.022,7.775 4.578,8.061 4.548,7.97 4.598,7.936 4.603,7.868 5.098,7.859 5.034,7.287 5.252,7.001 4.772,7.175 4.284,6.98 3.976,6.808 3.859,6.744 3.617,6.615 3.591,6.517 3.538,6.329 3.67,5.932 3.71,5.65 3.754,5.344 3.849,5.007 3.833,4.758 3.81,4.459 3.623,4.139 3.541,3.89 3.436,3.565 3.356,3.292 3.278,2.974 2.628,2.385 2.078,1.698 1.372,1.165 1.343,1.265 1.33,1.382 1.307,1.489 1.228,1.415 1.134,1.351 1.029,1.295 1.022,1.292 1.018,1.29 1.013,1.286 0.992,1.274 0.972,1.265 0.95,1.254 0.973,1.199 0.988,1.141 1,1.082 1.052,0.965 1.094,0.848 1.126,0.725 1.142,0.735 1.157,0.744 1.169,0.754 1.219,0.799 1.269,0.844 1.32,0.891 1.357,0.948 1.391,1.005 1.444,1.046 1.498,0.906 1.438,0.828 1.355,0.756 1.299,0.69 1.237,0.628 1.164,0.57 1.241,0.231 1.269,-0.121 1.262,-0.452 0.335,-1.139 -0.964,-1.38 -2.094,-1.447 c -0.332,-0.019 -0.656,0.259 -0.917,0.44 -0.221,0.154 -0.44,0.316 -0.656,0.481 -0.002,0.001 -0.006,0.006 -0.01,0.01 -0.288,0.206 -0.551,0.463 -0.609,0.839 0,0.006 -0.002,0.009 -0.004,0.015 0.001,-0.003 0.002,-0.003 0.004,0 -0.017,0.119 -0.015,0.249 0.014,0.395 0.02,-0.102 0.028,-0.213 0.037,-0.325 0.021,-0.054 0.052,-0.109 0.068,-0.18 0.091,-0.298 0.351,-0.454 0.584,-0.63 0.351,-0.265 0.704,-0.529 1.08,-0.755 0.143,-0.084 0.246,-0.147 0.405,-0.139 l 0,0.003 c 0,0 0.002,0 0.002,-0.002 0.101,0.297 0.204,0.609 0.308,0.908 -0.065,-0.005 -0.128,-0.017 -0.19,-0.02 -0.428,-0.023 -0.875,-0.208 -1.218,0.082 -0.105,0.051 -0.179,0.128 -0.206,0.238 0.161,-0.011 0.242,-0.103 0.332,-0.184 0.053,-0.018 0.105,-0.031 0.145,-0.041 0.037,-0.01 0.079,-0.013 0.117,-0.018 0.246,0 0.475,0.017 0.702,0.037 0.01,0.004 0.019,0.004 0.03,0.004 0.118,0.022 0.229,0.037 0.338,0.052 0.064,0.195 0.131,0.392 0.198,0.588 0.009,0.022 0.012,0.04 0.02,0.057 C -1.674,0.373 -1.826,0.34 -1.975,0.307 -2.426,0.187 -2.877,0.073 -3.332,-0.034 c -0.092,-0.019 -0.172,-0.018 -0.25,-0.003 -0.002,-0.002 -0.01,-0.004 -0.012,-0.004 -0.003,0.002 -0.007,0.005 -0.007,0.007 -0.106,0.026 -0.196,0.087 -0.275,0.206 -0.008,0.015 -0.026,0.067 -0.045,0.132 -0.097,0.157 -0.145,0.349 -0.084,0.596 -0.017,-0.384 0.245,-0.751 0.498,-0.81 0.106,-0.001 0.227,0.043 0.314,0.062 0.065,0.014 0.13,0.031 0.193,0.047 0.003,0.001 0.006,0.002 0.007,0.002 10e-4,0.001 0.004,0.001 0.007,0.001 0.466,0.113 0.924,0.233 1.384,0.361 0.633,0.178 1.267,0.364 1.887,0.594 0.069,0.026 0.14,0.055 0.212,0.083 0.05,0.021 0.068,0.027 0.09,0.034 0.097,0.04 0.192,0.085 0.286,0.13 0.004,0.005 0.007,0.005 0.009,0.007 0.069,0.037 0.124,0.066 0.185,0.098 0.045,0.029 0.094,0.056 0.137,0.089 0.02,0.017 0.037,0.03 0.05,0.036 C 1.262,1.784 1.253,1.751 1.206,1.875 1.121,1.853 0.99,1.772 0.906,1.756 0.634,1.696 0.704,1.704 0.478,1.673 0.418,1.915 0.276,2.08 0.216,2.321 0.544,2.517 0.973,2.61 0.986,3.118 0.554,3.258 0.33,3.447 -0.069,3.62 -0.137,3.71 -0.314,3.994 -0.408,4.182 -0.572,4.445 -0.523,4.326 -0.75,4.612 -0.926,4.837 -1.15,5.061 -1.336,5.154 -1.506,5.237 -1.78,5.326 -2.005,5.385 -2.228,5.444 -2.451,5.551 -2.678,5.554 -2.834,5.557 -3.034,5.492 -3.209,5.457 -3.711,5.357 -3.859,5.287 -4.175,5.047 -4.314,4.94 -4.5,4.82 -4.584,4.71 -4.621,4.661 -4.722,4.545 -4.754,4.493 -4.823,4.374 -4.887,4.328 -4.945,4.22 -5.05,4.024 -5.048,4.001 -5.115,3.866 -5.279,3.532 -5.43,3.186 -5.495,2.771 -5.486,1.598 -4.81,1.133 -4.584,0.178 c 0.016,0.129 -0.073,0.28 0,0.385 0.079,-0.121 0.05,-0.353 0.073,-0.531 0.18,-0.205 0.49,-0.282 0.581,-0.577 -0.229,0.041 -0.412,0.387 -0.591,0.399 0.286,-0.242 0.544,-0.509 0.855,-0.665 0.046,-0.023 0.115,0 0.168,-0.025 0.263,-0.12 0.46,-0.436 0.697,-0.506 0.11,-0.033 0.137,0.016 0.219,-0.103 -0.545,-0.093 -0.705,0.639 -1.032,0.488 -0.245,-0.111 -0.301,-0.075 -0.585,-0.12 -0.045,-0.227 0.243,-0.559 0.284,-0.774 0.188,-0.27 0.007,-0.402 0.169,-0.698 0.17,-0.152 0.272,-0.192 0.417,-0.287 0.082,-0.571 0.027,-1.177 0.216,-1.737 0.212,-0.415 0.701,-0.693 1.039,-1.059 0.367,-0.402 0.868,-0.83 1.153,-1.112 0.994,-0.964 1.946,-1.769 2.97,-2.699 0.258,-0.234 0.879,-0.676 1.01,-0.965 0.115,-0.248 0.159,-0.585 0.239,-0.891 0.084,-0.301 0.215,-0.628 0.243,-0.892 0.056,-0.478 -0.121,-0.934 0,-1.447 0.021,-0.081 0.072,-0.171 0.136,-0.264 1.971,1.273 3.836,2.928 5.446,4.93 0.118,0.149 0.231,0.295 0.344,0.446 -0.133,0.129 -0.285,0.233 -0.498,0.264 M -1.665,-0.48 C -1.668,-0.487 -1.669,-0.496 -1.674,-0.505 -1.746,-0.718 -1.816,-0.93 -1.889,-1.143 -1.91,-1.205 -1.92,-1.251 -1.933,-1.279 c 0.458,0.038 0.912,0.103 1.354,0.21 0.084,0.02 0.163,0.046 0.246,0.07 0.11,0.046 0.24,0.104 0.329,0.137 -0.007,0.069 -0.009,0.14 -0.013,0.164 -0.025,0.231 -0.066,0.459 -0.119,0.685 -0.029,-0.01 -0.065,-0.021 -0.093,-0.03 -0.255,-0.083 -0.513,-0.157 -0.773,-0.215 -0.208,-0.055 -0.415,-0.103 -0.615,-0.12 -0.018,-0.035 -0.03,-0.068 -0.048,-0.102 m 4.072,10.736 c -0.039,0.256 0.141,0.286 0.287,0.358 0.051,0.004 0.101,0.006 0.157,0.01 0.123,-0.017 0.187,-0.164 0.257,-0.225 0.013,0.12 0.078,0.185 0.136,0.257 0.094,0.008 0.192,0.021 0.288,0.032 0.148,-0.024 0.136,-0.206 0.252,-0.264 -0.019,0.302 0.419,0.373 0.602,0.194 -0.002,0.085 -0.036,0.139 -0.049,0.217 L 2.244,10.618 c -0.119,0.003 -0.225,0 -0.27,-0.026 0.26,0.004 0.298,-0.216 0.433,-0.336 m 2.627,0.563 c 0.132,0.004 0.26,-0.005 0.397,-0.035 0.017,-0.005 0.039,-0.005 0.052,-0.006 0.051,-0.023 0.056,-0.093 0.132,-0.09 0.082,0.057 0.223,0.053 0.361,0.048 0.102,-0.051 0.141,-0.166 0.219,-0.239 0.051,0.199 0.34,0.253 0.505,0.145 0.111,-0.074 0.053,-0.197 0.168,-0.243 -0.026,0.168 0.079,0.203 0.18,0.239 C 7.14,10.624 7.156,10.597 7.198,10.554 7.205,10.546 7.245,10.445 7.245,10.445 7.291,10.291 7.329,10.134 7.384,9.982 7.423,9.873 7.437,9.74 7.473,9.676 l -0.002,10e-4 0,-0.121 C 7.392,9.514 7.29,9.497 7.182,9.483 7.213,9.392 7.284,9.345 7.302,9.242 7.107,9.091 6.844,9.322 6.651,9.242 6.658,9.072 6.807,9.044 6.846,8.904 6.719,8.674 6.454,8.872 6.243,8.88 6.145,8.886 6.067,8.815 5.976,8.833 5.885,8.852 5.806,9.016 5.735,8.929 5.714,8.839 5.999,8.79 5.952,8.665 6.321,8.685 6.569,8.356 6.916,8.326 7.005,8.32 7.116,8.366 7.206,8.35 7.475,8.305 7.728,7.847 7.755,7.146 7.755,7.306 7.881,8.238 7.881,8.4 8.047,8.466 8.159,8.59 8.316,8.665 8.338,8.954 8.357,9.252 8.386,9.531 8.117,9.577 7.831,9.614 7.56,9.663 7.489,9.899 7.37,10.536 7.099,10.66 7.102,10.662 7.105,10.663 7.11,10.664 6.886,10.789 6.523,10.796 6.28,10.809 6.109,10.818 5.937,10.82 5.77,10.815 5.692,10.813 5.534,10.777 5.461,10.805 5.293,10.87 5.191,10.905 5.012,10.883 4.956,10.854 4.939,10.833 4.935,10.821 4.898,10.782 4.85,10.732 4.915,10.713 c 0.012,0.06 0.065,0.078 0.119,0.106"
           style="fill:#19398a;fill-opacity:1;fill-rule:nonzero;stroke:none"
           id="path1170" />
      </g>
    </g>
  </g>
</svg>
