<?xml version="1.0" encoding="UTF-8" standalone="no"?>
<!-- Created with Inkscape (http://www.inkscape.org/) -->

<svg
   xmlns:dc="http://purl.org/dc/elements/1.1/"
   xmlns:cc="http://creativecommons.org/ns#"
   xmlns:rdf="http://www.w3.org/1999/02/22-rdf-syntax-ns#"
   xmlns:svg="http://www.w3.org/2000/svg"
   xmlns="http://www.w3.org/2000/svg"
   xmlns:xlink="http://www.w3.org/1999/xlink"
   version="1.1"
   width="280"
   height="200"
   viewBox="0 0 280 200"
   id="Layer_1"
   xml:space="preserve"><metadata
     id="metadata168"><rdf:RDF><cc:Work
         rdf:about=""><dc:format>image/svg+xml</dc:format><dc:type
           rdf:resource="http://purl.org/dc/dcmitype/StillImage" /><dc:title></dc:title></cc:Work></rdf:RDF></metadata><defs
     id="defs166" /><g
     transform="matrix(2.7712346,0,0,2.7712346,39.699321,-3.9212971)"
     id="g3"><g
       id="g5"><defs
         id="defs7"><rect
           width="62.566002"
           height="72.168999"
           x="3.717"
           y="1.416"
           id="SVGID_1_" /></defs><clipPath
         id="SVGID_2_"><use
           id="use11"
           style="overflow:visible"
           x="0"
           y="0"
           width="70"
           height="75"
           xlink:href="#SVGID_1_" /></clipPath><path
         d="M 34.794,73.516 C 34.322,73.35 31.51,72.24 31.15,72.083 25.811,69.772 20.688,67.397 16.706,63.762 12.312,59.746 9.9,54.616 9.332,48.075 9.281,47.485 9.243,46.846 9.215,46.124 8.983,45.677 8.843,45.267 8.759,44.952 c 0.005,0.139 0.024,0.291 0.038,0.414 0.007,0.05 0.013,0.1 0.018,0.148 L 8.91,46.372 8.374,45.695 C 7.502,44.592 7.16,43.302 7.468,42.437 7.265,42.39 7.058,42.301 6.855,42.213 6.658,42.128 6.435,42.031 6.315,42.031 c -0.014,0 -0.022,0.002 -0.025,0.002 0,0.002 -0.006,0.012 -0.011,0.032 l -0.011,0.036 -0.021,0.032 c 0.001,0.011 0.019,0.063 0.03,0.094 0.029,0.085 0.069,0.201 0.02,0.325 L 6.215,42.759 6,42.7 C 4.702,42.34 3.459,41.295 3.798,39.852 3.892,39.446 4.146,39.192 4.37,38.968 4.386,38.952 4.402,38.936 4.418,38.92 4.413,38.907 4.408,38.894 4.403,38.88 4.364,38.785 4.316,38.666 4.322,38.485 4.328,38.363 4.373,38.263 4.409,38.183 4.421,38.154 4.44,38.114 4.446,38.09 4.431,38.057 4.398,37.999 4.376,37.961 4.344,37.905 4.312,37.848 4.287,37.795 4.04,37.236 4.006,36.574 4.188,35.907 4.119,35.877 4.045,35.831 3.992,35.75 L 3.973,35.721 3.962,35.686 C 3.787,35.108 3.521,34.235 3.943,33.436 3.994,33.34 4.066,33.255 4.136,33.173 4.205,33.093 4.29,32.992 4.302,32.932 4.319,32.845 4.309,32.71 4.299,32.567 4.28,32.296 4.259,31.989 4.383,31.719 l 0.04,-0.085 0.086,-0.038 C 4.824,31.457 5.137,31.303 5.439,31.154 6.168,30.795 6.92,30.425 7.812,30.214 7.803,30.178 7.792,30.142 7.78,30.104 7.749,30.004 7.714,29.891 7.702,29.751 L 7.69,29.608 7.807,29.526 C 8.232,29.232 8.7,28.966 9.201,28.735 V 2.281 L 10.727,4.5 c 1.626,2.366 4.104,3.612 7.365,3.702 0.128,0.004 0.256,0.005 0.385,0.005 1.457,0 3.025,-0.23 4.661,-0.685 C 23.19,7.506 23.253,7.5 23.327,7.5 c 0.364,0 1.063,0.179 2.121,0.451 2.111,0.542 5.646,1.449 9.12,1.449 0.155,0 0.311,-0.002 0.465,-0.006 h 0.017 c 0.161,0.004 0.315,0.006 0.47,0.006 3.474,-0.001 7.01,-0.908 9.122,-1.45 1.057,-0.271 1.755,-0.45 2.12,-0.45 0.074,0 0.136,0.007 0.189,0.022 1.637,0.455 3.205,0.685 4.661,0.685 0.129,0 0.257,-0.001 0.384,-0.005 3.261,-0.09 5.739,-1.336 7.366,-3.702 l 1.525,-2.218 v 26.495 c 0.467,0.222 0.906,0.474 1.305,0.75 l 0.117,0.08 -0.011,0.142 c -0.011,0.142 -0.047,0.258 -0.079,0.359 -0.012,0.037 -0.023,0.072 -0.032,0.106 0.891,0.211 1.641,0.58 2.369,0.938 0.304,0.15 0.618,0.304 0.936,0.444 l 0.087,0.038 0.039,0.086 c 0.122,0.269 0.101,0.574 0.083,0.844 -0.011,0.144 -0.02,0.28 -0.003,0.367 0.012,0.062 0.098,0.163 0.167,0.243 0.069,0.082 0.141,0.166 0.192,0.261 0.39,0.739 0.204,1.518 -0.02,2.252 l -0.01,0.033 -0.019,0.029 c -0.053,0.082 -0.127,0.128 -0.197,0.159 0.182,0.664 0.149,1.326 -0.097,1.885 -0.026,0.055 -0.058,0.112 -0.09,0.167 -0.022,0.039 -0.056,0.099 -0.071,0.132 0.006,0.019 0.025,0.061 0.038,0.09 0.036,0.081 0.081,0.181 0.086,0.3 0.006,0.183 -0.042,0.301 -0.08,0.396 -0.006,0.014 -0.011,0.028 -0.016,0.041 0.016,0.017 0.033,0.033 0.049,0.05 0.223,0.224 0.476,0.477 0.571,0.884 0.34,1.444 -0.903,2.488 -2.202,2.847 l -0.214,0.059 -0.082,-0.206 c -0.05,-0.124 -0.01,-0.24 0.02,-0.324 0.011,-0.031 0.029,-0.084 0.027,-0.102 l -0.021,-0.031 -0.008,-0.03 c -0.006,-0.02 -0.012,-0.03 -0.014,-0.033 h -0.002 c -0.002,0 -0.01,-0.001 -0.021,-0.001 -0.12,0 -0.343,0.096 -0.54,0.181 -0.203,0.088 -0.41,0.177 -0.612,0.224 0.308,0.865 -0.035,2.155 -0.907,3.258 l -0.536,0.678 0.095,-0.859 c 0.006,-0.048 0.012,-0.097 0.018,-0.147 0.015,-0.123 0.033,-0.274 0.039,-0.413 -0.072,0.27 -0.185,0.607 -0.361,0.979 -0.027,0.799 -0.068,1.5 -0.124,2.142 -0.567,6.54 -2.98,11.671 -7.375,15.687 -3.978,3.633 -9.102,6.009 -14.443,8.321 -0.357,0.156 -3.159,1.263 -3.641,1.432 l -0.247,0.07 -0.256,-0.069 z"
         clip-path="url(#SVGID_2_)"
         id="path13" /><path
         d="m 65.305,38.989 c 0.033,-0.199 0.132,-0.278 0.125,-0.497 -0.007,-0.15 -0.136,-0.292 -0.125,-0.43 0.007,-0.08 0.13,-0.256 0.182,-0.37 0.233,-0.528 0.275,-1.198 0.019,-1.934 0.09,-0.055 0.239,-0.058 0.294,-0.144 0.193,-0.632 0.396,-1.385 0.039,-2.064 -0.096,-0.179 -0.344,-0.366 -0.383,-0.571 -0.06,-0.3 0.097,-0.805 -0.063,-1.157 -1.138,-0.499 -2.141,-1.147 -3.481,-1.415 -10e-4,-0.27 0.121,-0.427 0.139,-0.677 -0.437,-0.303 -0.909,-0.567 -1.412,-0.795 V 3.079 l -1.072,1.56 C 57.892,7.074 55.348,8.356 52.004,8.449 50.412,8.495 48.671,8.256 46.886,7.76 46.157,7.558 40.551,9.771 35.05,9.641 H 35.044 35.04 C 29.538,9.771 23.932,7.558 23.204,7.76 21.419,8.256 19.678,8.495 18.085,8.449 14.74,8.356 12.196,7.074 10.523,4.639 L 9.449,3.079 v 25.816 c -0.536,0.238 -1.038,0.514 -1.5,0.835 0.021,0.25 0.139,0.407 0.138,0.677 -1.338,0.268 -2.343,0.916 -3.478,1.415 -0.163,0.352 -0.005,0.857 -0.063,1.157 -0.041,0.205 -0.288,0.392 -0.384,0.571 -0.358,0.679 -0.154,1.432 0.038,2.064 0.056,0.086 0.205,0.089 0.294,0.144 -0.256,0.736 -0.214,1.406 0.02,1.934 0.051,0.114 0.175,0.29 0.182,0.37 0.011,0.138 -0.119,0.28 -0.126,0.43 -0.007,0.219 0.092,0.298 0.126,0.497 -0.264,0.281 -0.56,0.504 -0.656,0.919 -0.331,1.406 1.034,2.277 2.027,2.552 0.039,-0.098 -0.141,-0.292 -0.026,-0.465 0.185,-0.629 1.23,0.356 1.823,0.212 -0.5,0.693 -0.271,2.1 0.705,3.334 -0.057,-0.517 -0.191,-1.202 0.316,-1.234 0.018,0.198 0.13,0.912 0.576,1.751 0.025,0.676 0.062,1.342 0.118,1.995 0.563,6.476 2.949,11.554 7.295,15.525 3.948,3.606 9.052,5.974 14.376,8.277 0.385,0.168 3.455,1.379 3.668,1.441 l 0.122,0.035 v 0.002 l 0.004,-0.001 0.006,0.001 v -0.002 l 0.122,-0.035 c 0.213,-0.062 3.284,-1.273 3.668,-1.441 5.322,-2.303 10.426,-4.671 14.375,-8.277 4.346,-3.971 6.733,-9.049 7.295,-15.525 0.062,-0.713 0.1,-1.441 0.125,-2.181 0.367,-0.757 0.464,-1.381 0.48,-1.565 0.508,0.032 0.373,0.718 0.316,1.234 0.976,-1.234 1.207,-2.64 0.705,-3.334 0.594,0.144 1.638,-0.841 1.823,-0.211 0.115,0.173 -0.064,0.367 -0.026,0.464 0.995,-0.274 2.358,-1.146 2.028,-2.551 -0.098,-0.416 -0.394,-0.639 -0.656,-0.92"
         clip-path="url(#SVGID_2_)"
         id="path15"
         style="fill:#ed1d24" /></g><g
       id="g17"><path
         d="M 22.776,7.881 C 22.538,7.925 26.513,4.876 25.064,4.623 23.036,4.195 22.123,2.637 21.655,1.759 21.317,4.453 20.24,4.787 17.546,4.317 c 1.06,1.628 2.962,2.875 5.23,3.564"
         id="path19"
         style="fill:#ed1d24;fill-rule:evenodd" /><path
         d="m 21.552,1.745 c -0.152,1.201 -0.446,1.904 -0.953,2.28 -0.65,0.481 -1.683,0.423 -3.035,0.188 l -0.239,-0.042 0.134,0.203 c 1.049,1.611 2.926,2.892 5.287,3.608 L 22.82,8.004 22.86,7.923 C 22.888,7.88 23.099,7.692 23.302,7.51 24.436,6.494 25.633,5.364 25.474,4.808 25.43,4.655 25.299,4.557 25.082,4.518 23.246,4.132 22.335,2.814 21.75,1.709 l -0.157,-0.294 -0.041,0.33 z m -0.827,2.449 c 0.509,-0.377 0.812,-1.053 0.984,-2.128 0.613,1.086 1.552,2.284 3.333,2.659 0.199,0.035 0.222,0.115 0.23,0.14 0.004,0.02 0.007,0.041 0.007,0.064 0,0.527 -1.472,1.847 -2.117,2.424 C 22.924,7.566 22.8,7.679 22.73,7.754 20.553,7.079 18.813,5.913 17.781,4.458 c 1.278,0.205 2.278,0.229 2.944,-0.264"
         id="path21"
         style="fill-rule:evenodd" /><path
         d="m 47.254,7.881 c 0.237,0.044 -3.739,-3.005 -2.287,-3.258 2.027,-0.428 2.941,-1.986 3.407,-2.864 0.339,2.694 1.416,3.028 4.11,2.558 -1.06,1.628 -2.962,2.875 -5.23,3.564"
         id="path23"
         style="fill:#ed1d24;fill-rule:evenodd" /><path
         d="m 48.283,1.709 c -0.589,1.105 -1.497,2.423 -3.338,2.811 -0.211,0.037 -0.343,0.135 -0.387,0.288 -0.159,0.556 1.037,1.686 2.17,2.702 0.203,0.182 0.415,0.37 0.442,0.413 l 0.044,0.064 0.071,-0.005 c 2.36,-0.716 4.239,-1.998 5.288,-3.608 L 52.705,4.171 52.466,4.213 C 51.116,4.448 50.083,4.506 49.431,4.025 48.925,3.649 48.63,2.946 48.479,1.745 L 48.438,1.415 48.283,1.709 z M 46.87,7.353 C 46.225,6.776 44.752,5.456 44.752,4.929 44.752,4.906 44.755,4.885 44.76,4.865 44.767,4.84 44.79,4.76 44.985,4.727 46.771,4.35 47.71,3.152 48.323,2.066 c 0.171,1.075 0.474,1.751 0.984,2.128 0.666,0.493 1.667,0.469 2.944,0.264 C 51.219,5.913 49.477,7.079 47.3,7.754 47.233,7.679 47.106,7.566 46.87,7.353"
         id="path25"
         style="fill-rule:evenodd" /></g><g
       id="g27"><defs
         id="defs29"><path
           d="m 35.05,8.923 0,0 -0.006,-10e-4 H 35.04 V 8.923 C 32.751,8.981 30.44,8.734 28.471,7.916 24.945,9.678 21.237,10.598 18.028,10.508 15.503,10.437 13.302,9.757 11.508,8.512 v 29.701 l -0.017,2.642 c -0.007,0.838 -0.016,1.66 -0.016,2.465 0,1.591 0.031,3.113 0.157,4.555 0.523,6.02 2.63,10.524 6.632,14.181 3.712,3.394 8.648,5.677 13.803,7.909 0.337,0.145 2.082,0.833 2.973,1.177 v 0.004 c 0.002,0 0.003,-0.001 0.004,-0.001 0.001,0 0.005,0.001 0.006,0.001 v -0.004 c 0.891,-0.344 2.637,-1.032 2.971,-1.177 5.157,-2.232 10.091,-4.515 13.804,-7.909 4.002,-3.657 6.109,-8.161 6.633,-14.181 0.125,-1.442 0.156,-2.964 0.156,-4.555 0,-0.805 -0.008,-1.627 -0.016,-2.465 L 58.58,38.213 v -29.7 c -1.793,1.245 -3.995,1.925 -6.519,1.996 -3.208,0.09 -6.917,-0.83 -10.442,-2.592 -1.969,0.817 -4.281,1.064 -6.569,1.006"
           id="SVGID_3_" /></defs><clipPath
         id="SVGID_4_"><use
           id="use33"
           style="overflow:visible"
           x="0"
           y="0"
           width="70"
           height="75"
           xlink:href="#SVGID_3_" /></clipPath><linearGradient
         x1="-79.451202"
         y1="460.64749"
         x2="-78.451202"
         y2="460.64749"
         id="SVGID_5_"
         gradientUnits="userSpaceOnUse"
         gradientTransform="matrix(17.010541,0,0,-17.010541,1341.3274,7851.546)"><stop
           id="stop36"
           style="stop-color:#a7a9ac;stop-opacity:1"
           offset="0" /><stop
           id="stop38"
           style="stop-color:#f2f2f3;stop-opacity:1"
           offset="0.34999999" /><stop
           id="stop40"
           style="stop-color:#fafafa;stop-opacity:1"
           offset="0.46219999" /><stop
           id="stop42"
           style="stop-color:#ffffff;stop-opacity:1"
           offset="0.50910002" /><stop
           id="stop44"
           style="stop-color:#fefefe;stop-opacity:1"
           offset="0.52029997" /><stop
           id="stop46"
           style="stop-color:#f2f3f3;stop-opacity:1"
           offset="0.64999998" /><stop
           id="stop48"
           style="stop-color:#a7a9ac;stop-opacity:1"
           offset="1" /></linearGradient><rect
         width="47.139"
         height="63.23"
         x="11.475"
         y="7.9169998"
         clip-path="url(#SVGID_4_)"
         id="rect50"
         style="fill:url(#SVGID_5_)" /></g><g
       id="g52"><path
         d="M 39.007,10.022 C 31.293,10.689 24.183,9.851 19.668,7.299 20.87,6.565 21.917,5.709 23.302,4.9 c 6.489,3.319 17.715,2.628 24.336,-0.332 1.083,1.072 1.778,1.472 2.725,2.544 -1.905,0.926 -6.916,2.527 -11.356,2.91"
         id="path54"
         style="fill:#ed1d24;fill-rule:evenodd" /><path
         d="M 47.594,4.472 C 41.18,7.341 29.906,8.159 23.35,4.806 L 23.298,4.78 23.249,4.808 C 22.482,5.256 21.82,5.718 21.178,6.164 20.65,6.533 20.15,6.881 19.612,7.209 l -0.153,0.093 0.158,0.089 c 4.365,2.467 11.255,3.438 19.4,2.736 4.467,-0.385 9.438,-1.97 11.391,-2.92 L 50.532,7.147 50.441,7.042 C 49.896,6.423 49.427,6.024 48.933,5.6 48.558,5.28 48.172,4.948 47.713,4.493 L 47.66,4.442 47.594,4.472 z m 0.02,0.219 c 0.442,0.434 0.819,0.759 1.182,1.068 0.458,0.393 0.895,0.772 1.39,1.318 C 48.093,8.059 43.161,9.558 38.998,9.916 30.991,10.609 24.218,9.672 19.879,7.287 20.362,6.986 20.82,6.672 21.299,6.338 21.923,5.902 22.57,5.454 23.31,5.019 29.905,8.357 41.16,7.549 47.614,4.691"
         id="path56"
         style="fill-rule:evenodd" /><path
         d="M 28.4,7.179 28.021,7.111 27.2,7.932 27.194,7.931 27.365,6.991 27.02,6.929 26.629,9.086 26.972,9.148 27.099,8.449 27.338,8.213 27.685,9.277 28.075,9.348 27.613,7.975 28.4,7.179 z m 0.019,2.216 0.345,0.051 0.06,-0.401 -0.345,-0.052 -0.06,0.402 z m 2.6,-0.344 C 30.998,9.272 30.977,9.485 30.745,9.464 30.55,9.441 30.527,9.291 30.545,9.112 l 0.01,-0.107 -0.331,-0.033 -0.012,0.141 c -0.022,0.287 0.056,0.566 0.502,0.613 0.348,0.036 0.602,-0.108 0.648,-0.589 l 0.152,-1.58 -0.347,-0.033 -0.148,1.527 z m 0.857,0.73 0.349,0.024 0.027,-0.405 -0.35,-0.024 -0.026,0.405 z m 2.895,-1.217 -0.644,-0.003 0.004,-0.877 -0.35,-0.002 -0.011,2.192 0.35,10e-4 0.005,-1.019 0.646,0.002 -0.006,1.02 0.35,0.002 0.012,-2.192 -0.352,-0.003 -0.004,0.879 z m 0.932,1.297 0.35,-0.011 -0.014,-0.406 -0.35,0.012 0.014,0.405 z m 2.355,-2.352 -0.691,0.07 0.223,2.18 0.349,-0.036 -0.092,-0.9 0.305,-0.031 C 38.561,8.75 38.764,8.473 38.724,8.082 38.687,7.71 38.476,7.466 38.058,7.509 M 38.067,8.536 37.82,8.561 37.742,7.807 37.966,7.783 c 0.277,-0.028 0.387,0.105 0.411,0.341 0.028,0.274 -0.125,0.392 -0.31,0.412 M 39.283,9.16 39.34,9.56 39.687,9.51 39.628,9.108 39.283,9.16 z M 41.688,6.891 41.883,7.747 41.254,7.89 41.06,7.034 40.72,7.111 41.207,9.249 41.547,9.17 41.321,8.178 41.949,8.034 42.175,9.028 42.518,8.95 42.031,6.813 41.688,6.891 z m 1.625,1.415 -0.337,0.096 0.111,0.389 0.336,-0.094 -0.11,-0.391 z"
         id="path58" /></g><g
       id="g60"><defs
         id="defs62"><polygon
           points="13.925,27.01 13.505,26.798 12.815,27.045 12.456,26.557 11.751,27.083 11.621,28.583 10.982,28.786 9.843,29.291 8.461,29.83 8.416,30.627 7.928,30.696 6.544,31.282 5.055,32.005 4.91,32.892 4.305,34.272 4.822,35.38 4.856,36.512 5.042,37.558 4.927,38.774 4.902,40.091 5.421,41.201 7.229,41.623 8.402,42.309 9.198,44.425 11.23,47.404 12.333,45.822 13.001,43.048 14.321,43.078 14.785,44.026 15.392,45.885 16.242,47.018 17.412,47.501 16.402,46.066 15.701,42.604 14.397,40.813 14.985,37.155 17.463,36.093 21.474,34.56 20.413,33.733 17.228,33.498 17.463,31.61 18.996,30.194 19.588,28.662 14.515,28.308 "
           id="SVGID_6_" /></defs><clipPath
         id="SVGID_7_"><use
           id="use66"
           style="overflow:visible"
           x="0"
           y="0"
           width="70"
           height="75"
           xlink:href="#SVGID_6_" /></clipPath><linearGradient
         x1="-79.451202"
         y1="460.64749"
         x2="-78.451202"
         y2="460.64749"
         id="SVGID_8_"
         gradientUnits="userSpaceOnUse"
         gradientTransform="matrix(6.1953614,0,0,-6.1953614,479.45799,2868.6625)"><stop
           id="stop69"
           style="stop-color:#a7a9ac;stop-opacity:1"
           offset="0" /><stop
           id="stop71"
           style="stop-color:#bebfc1;stop-opacity:1"
           offset="0.124" /><stop
           id="stop73"
           style="stop-color:#f8f8f8;stop-opacity:1"
           offset="0.38260001" /><stop
           id="stop75"
           style="stop-color:#ffffff;stop-opacity:1"
           offset="0.41209999" /><stop
           id="stop77"
           style="stop-color:#cdcecf;stop-opacity:1"
           offset="0.73369998" /><stop
           id="stop79"
           style="stop-color:#a7a9ac;stop-opacity:1"
           offset="1" /></linearGradient><rect
         width="17.169001"
         height="20.945"
         x="4.3049998"
         y="26.556999"
         clip-path="url(#SVGID_7_)"
         id="rect81"
         style="fill:url(#SVGID_8_)" /></g><g
       id="g83"><defs
         id="defs85"><rect
           width="62.566002"
           height="72.168999"
           x="3.717"
           y="1.416"
           id="SVGID_9_" /></defs><clipPath
         id="SVGID_10_"><use
           id="use89"
           style="overflow:visible"
           x="0"
           y="0"
           width="70"
           height="75"
           xlink:href="#SVGID_9_" /></clipPath><path
         d="m 24.273,26.966 c -0.525,-0.094 -2.27,-1.185 -3.674,-0.098 1.791,-0.545 3.346,1.033 4.439,0.969 0.942,-0.056 1.248,-0.492 1.559,-0.839 -0.577,0.147 -1.365,0.306 -2.324,-0.032 M 8.757,32.889 c 0.474,-0.325 1.123,-0.451 1.651,-0.713 -0.85,0.044 -1.574,0.228 -2.195,0.53 0.173,0.068 0.327,0.156 0.544,0.183 m 9.254,4.629 c 0.392,0.229 0.693,0.499 1.143,0.65 0.805,0.269 1.402,0.094 2.098,0.07 0.919,-0.032 1.761,0.186 2.485,0.525 -0.342,-0.574 -0.869,-1.107 -1.672,-1.267 -1.409,-0.281 -2.672,0.295 -4.054,0.022 m -6.05,-5.621 c 0.419,-0.341 1.013,-0.484 1.644,-0.585 0.039,-0.004 0.006,-0.042 -0.022,-0.051 -1.151,0.028 -2.168,0.206 -2.864,0.751 0.061,0.14 0.158,0.259 0.28,0.402 0.073,0.084 0.216,0.32 0.334,0.351 0.139,0.036 0.403,-0.084 0.609,-0.097 0.919,-0.059 1.769,0.3 2.473,0.412 -0.438,-0.645 -1.296,-1.118 -2.454,-1.183 m 3.629,-4.19 c 0.682,-1.027 2.944,-1.927 5.024,-1.661 -2.657,-0.93 -4.373,-0.428 -5.329,0.279 3.85,-4.481 6.849,-1.211 6.99,-0.731 -0.594,-1.681 -3.643,-2.933 -6.36,-1.404 -1.688,1.009 -2.314,2.45 -3.016,2.063 -0.232,-0.119 -0.006,-0.736 0.074,-0.905 -1.078,0.386 -1.806,1.56 -1.901,2.974 -1.172,0.32 -2.221,0.782 -3.124,1.408 0.021,0.25 0.14,0.407 0.139,0.677 -1.339,0.268 -2.343,0.916 -3.479,1.415 -0.162,0.351 -0.004,0.857 -0.063,1.157 -0.04,0.205 -0.288,0.392 -0.383,0.571 -0.358,0.678 -0.155,1.432 0.037,2.064 0.057,0.086 0.205,0.089 0.295,0.143 -0.256,0.737 -0.215,1.407 0.019,1.935 0.052,0.114 0.175,0.29 0.182,0.37 0.012,0.138 -0.119,0.28 -0.126,0.43 -0.007,0.219 0.092,0.298 0.126,0.497 -0.263,0.281 -0.559,0.504 -0.656,0.919 -0.331,1.406 1.034,2.277 2.027,2.552 0.039,-0.098 -0.14,-0.292 -0.026,-0.465 0.185,-0.63 1.23,0.356 1.823,0.211 -0.5,0.694 -0.271,2.101 0.705,3.335 -0.057,-0.517 -0.191,-1.202 0.316,-1.234 0.039,0.415 0.481,3.087 3.559,4.449 -0.459,-0.402 -0.697,-1.205 -0.402,-1.52 0.293,0.725 0.862,1.549 1.924,2.066 -0.316,-0.46 -0.701,-2.514 -0.425,-2.645 0.833,1.791 3.308,4.739 6.449,2.699 0.101,-0.067 0.519,-0.37 0.75,-0.712 0.186,-0.278 0.432,-0.711 0.748,-1.402 -3.551,1.621 -4.487,-0.07 -4.49,-2.847 0,0 1.114,2.701 3.536,2.636 -0.848,-0.368 -1.686,-1.04 -2.021,-1.944 0.885,0.728 2.573,-0.349 2.964,-1.299 -0.024,-0.077 -1.605,0.762 -2.927,-0.098 2.927,0.098 5.046,-2.499 5.422,-3.335 -2.087,2.049 -6.014,1.32 -7.616,0.09 1.839,0.124 4.18,-0.605 5.417,-1.882 -2.283,0.587 -4.813,-0.337 -6.037,-1.551 1.008,0.07 1.661,-0.268 2.378,-0.648 3.809,-2.02 3.939,-1.293 4.858,-0.872 0.055,-1.281 -0.716,-1.928 -2.001,-2.097 0.476,-0.196 0.652,-0.516 0.858,-0.908 -0.683,0.307 -1.554,0.397 -2.491,0.411 0.087,-0.159 0.274,-0.197 0.417,-0.287 0.136,-0.085 0.264,-0.193 0.419,-0.288 0.239,-0.142 0.764,-0.313 0.768,-0.655 0.004,-0.294 -0.329,-0.376 -0.663,-0.344 -0.476,0.047 -0.951,0.263 -1.339,0.549 -0.395,0.29 -0.653,0.673 -0.888,1.036 -0.043,-0.752 0.106,-1.424 0.529,-1.828 0.714,-0.683 3.57,-0.488 4.446,0.046 -0.263,-0.432 -2.311,-1.175 -2.883,-1.404 1.559,-1.325 4.357,-0.169 5.378,0.313 -2.96,-4.209 -8.105,-3.197 -9.931,-2.329 M 5.593,33.626 C 5.465,34.07 5.353,34.533 5.195,34.943 4.854,34.581 4.854,32.802 5.593,33.626 M 5.246,35.848 C 6.033,36.792 7.567,36.006 8.572,35.815 8.42,36.187 8.17,36.45 7.991,36.789 7.838,36.774 7.833,36.624 7.724,36.571 7.563,36.659 7.502,36.861 7.352,36.961 7.227,36.897 7.188,36.756 7.089,36.665 6.937,37.028 6.828,37.442 6.723,37.857 6.505,37.545 6.325,37.197 6.334,36.677 6.156,36.749 6.049,36.9 5.935,37.044 5.803,36.929 5.766,36.727 5.711,36.542 5.535,36.713 5.474,37.018 5.392,37.299 5.104,37.031 5.07,36.323 5.246,35.848 m 0.073,2.787 c 0.141,0.145 0.186,0.382 0.269,0.581 0.125,-0.032 0.198,-0.122 0.263,-0.218 0.202,0.051 0.236,0.257 0.412,0.33 0.073,-0.271 0.212,-0.469 0.316,-0.705 0.151,0.21 0.265,0.457 0.442,0.641 0.074,-0.091 0.117,-0.214 0.194,-0.298 0.274,0.186 0.464,0.451 0.72,0.655 C 7.258,39.897 5.968,39.74 5.222,39.48 5.148,39.209 5.221,38.861 5.319,38.635 m 14.777,9.852 c -3.545,2.397 -5.273,-0.595 -5.958,-4.959 0,0 1.883,5.989 5.958,4.959 m -4.347,-7.55 c 1.233,1.404 3.665,1.648 3.665,1.648 -3.87,0.433 -3.665,-1.648 -3.665,-1.648 M 17,47.172 c 0,0 -1.784,-0.787 -1.809,-2.785 -0.091,-2.576 -1.714,-3.016 -1.437,-2.949 0.766,0.187 1.508,0.891 1.981,2.148 0.474,1.466 -0.099,2.529 1.265,3.586 M 16.242,31.913 c -0.107,0.423 -0.056,0.812 -0.164,1.177 -0.313,1.051 -1.17,1.312 -1.967,1.88 0.629,0.138 1.237,-0.138 1.805,-0.319 0.851,-0.268 1.684,-0.579 2.824,-0.522 0.725,0.036 1.281,0.247 1.812,0.506 -1.44,-0.012 -2.521,0.242 -3.593,0.74 -1.15,0.537 -2.429,1.159 -4.045,0.744 -0.13,0.7 0.867,1.173 1.15,1.66 0.167,0.294 0.219,1.476 0,2.494 -0.164,0.742 -2.064,0.416 -3.106,0.285 -0.146,0.124 -0.117,0.381 -0.212,0.557 -0.02,0.284 0.039,0.65 0.278,1.097 0.913,1.709 1.537,2.679 1.107,3.125 -0.002,0 -0.002,0 -0.002,0.002 0.061,-0.113 0.224,-0.74 -1.64,-2.291 -0.241,0.784 -0.31,2.044 0.657,3.687 C 9.721,45.11 9.421,43.594 10.153,42.7 9.876,42.384 9.616,41.987 9.562,41.583 8.4,41.744 6.451,40.971 5.52,40.5 c 1.323,0.06 2.695,0.177 3.447,-0.413 -0.311,0.11 -0.594,0.249 -1.043,0.203 1.33,-0.523 2.19,-1.961 1.981,-3.967 0.546,0.924 0.236,2.663 -0.409,3.328 0.646,-0.276 0.994,-1.054 1.094,-2.03 0.085,-0.829 -0.028,-1.979 -0.402,-2.34 C 10.065,35.161 9.841,35.108 9.644,35.098 9.026,35.069 8.406,35.363 7.782,35.516 7.145,35.674 6.491,35.811 5.866,35.546 5.824,34.876 6.322,33.71 7.029,33.649 7.47,33.61 7.633,33.899 7.752,34.228 8.184,34.055 8.38,33.613 8.566,33.163 7.698,32.789 6.281,32.92 5.771,32.22 6.729,31.461 7.993,31.054 9.448,30.864 9.401,30.655 9.123,30.448 9.005,30.223 c 0.253,-0.299 0.674,-0.428 1.064,-0.563 0.399,-0.138 0.847,-0.233 1.277,-0.319 -0.137,0.299 -0.35,0.51 -0.521,0.771 0.855,-0.074 1.903,-0.447 2.964,-0.31 0.778,0.101 1.31,0.51 1.816,0.867 0.66,-0.733 1.687,-1.188 3.125,-0.945 -1.163,0.222 -2.17,0.944 -2.488,2.189"
         clip-path="url(#SVGID_10_)"
         id="path91"
         style="fill:#ed1d24;fill-rule:evenodd" /></g><g
       id="g93"><defs
         id="defs95"><polygon
           points="61.571,29.83 60.187,29.291 59.048,28.786 58.409,28.583 58.28,27.083 57.573,26.557 57.215,27.045 56.526,26.798 56.107,27.01 55.516,28.308 50.443,28.662 51.034,30.194 52.566,31.61 52.804,33.498 49.618,33.733 48.557,34.56 52.566,36.093 55.044,37.155 55.634,40.813 55.715,41.259 54.33,42.604 54.32,42.979 53.426,46.25 52.797,47.403 54.225,46.528 55.008,45.13 55.452,42.791 57.03,43.048 58.511,47.741 60.262,45.314 60.461,44.377 61.743,43.562 61.799,42.026 62.934,41.688 64.609,41.201 65.129,40.091 65.103,38.774 64.988,37.558 65.174,36.512 65.208,35.38 65.726,34.272 65.12,32.892 64.976,32.005 63.486,31.282 62.101,30.696 61.613,30.627 "
           id="SVGID_11_" /></defs><clipPath
         id="SVGID_12_"><use
           id="use99"
           style="overflow:visible"
           x="0"
           y="0"
           width="70"
           height="75"
           xlink:href="#SVGID_11_" /></clipPath><linearGradient
         x1="-79.451698"
         y1="460.64749"
         x2="-78.451698"
         y2="460.64749"
         id="SVGID_13_"
         gradientUnits="userSpaceOnUse"
         gradientTransform="matrix(6.1955779,0,0,-6.1955779,495.43906,2868.7955)"><stop
           id="stop102"
           style="stop-color:#a7a9ac;stop-opacity:1"
           offset="0" /><stop
           id="stop104"
           style="stop-color:#bebfc1;stop-opacity:1"
           offset="0.1222" /><stop
           id="stop106"
           style="stop-color:#f8f8f8;stop-opacity:1"
           offset="0.377" /><stop
           id="stop108"
           style="stop-color:#ffffff;stop-opacity:1"
           offset="0.4061" /><stop
           id="stop110"
           style="stop-color:#cdcecf;stop-opacity:1"
           offset="0.73089999" /><stop
           id="stop112"
           style="stop-color:#a7a9ac;stop-opacity:1"
           offset="1" /></linearGradient><rect
         width="17.169001"
         height="21.184999"
         x="48.556999"
         y="26.556999"
         clip-path="url(#SVGID_12_)"
         id="rect114"
         style="fill:url(#SVGID_13_)" /></g><g
       id="g116"><polygon
         points="28.655,45.547 31.21,37.165 29.321,30.799 32.434,30.799 33.586,35.075 34.869,30.799 37.776,30.799 35.568,37.629 38.104,45.547 34.624,45.547 33.144,40.806 31.752,45.547 "
         id="polygon118"
         style="fill:#ed1d24" /><polygon
         points="31.21,37.165 29.321,30.799 32.434,30.799 33.586,35.075 34.869,30.799 37.776,30.799 35.568,37.629 38.104,45.547 34.624,45.547 33.144,40.806 31.752,45.547 28.655,45.547 "
         id="polygon120"
         style="fill:none;stroke:#000000;stroke-width:0.07902615;stroke-miterlimit:10" /><rect
         width="3.237"
         height="14.748"
         x="38.472"
         y="30.799"
         id="rect122"
         style="fill:#ed1d24" /><rect
         width="3.237"
         height="14.748"
         x="38.472"
         y="30.799"
         id="rect124"
         style="fill:none;stroke:#000000;stroke-width:0.07902615;stroke-miterlimit:10" /><path
         d="m 16.111,56.509 2.065,1.52 c 0,0 1.511,-2.28 1.734,-2.614 0.175,0.128 0.404,0.298 0.404,0.298 0.761,0.56 1.489,0.782 2.165,0.66 0.648,-0.118 1.222,-0.548 1.706,-1.277 0.955,-1.443 0.756,-2.87 -0.534,-3.82 l -2.736,-2.017 -4.804,7.25 z m 5.762,-4.057 c 0.063,0.046 0.131,0.097 0.131,0.097 0.141,0.103 0.264,0.235 0.264,0.442 0,0.146 -0.06,0.327 -0.216,0.562 -0.167,0.254 -0.331,0.396 -0.493,0.425 -0.12,0.024 -0.251,-0.02 -0.4,-0.131 0,0 -0.072,-0.053 -0.142,-0.104 0.168,-0.256 0.679,-1.024 0.856,-1.291"
         id="path126" /><path
         d="m 23.504,58.702 c -0.796,2.141 -0.324,3.389 1.577,4.178 0.934,0.388 1.652,0.44 2.263,0.167 0.66,-0.294 1.184,-0.979 1.599,-2.097 l 1.984,-5.325 -2.346,-0.972 -2.176,5.845 c -0.159,0.427 -0.298,0.564 -0.386,0.603 -0.044,0.02 -0.112,0.033 -0.255,-0.024 -0.167,-0.071 -0.377,-0.158 -0.102,-0.896 l 2.176,-5.837 -2.347,-0.972 -1.987,5.33 z"
         id="path128" /><path
         d="m 30.104,64.738 2.408,0.303 c 0,0 0.259,-2.295 0.433,-3.843 0.237,1.591 0.592,3.973 0.592,3.973 l 2.694,0.341 1.008,-8.937 -2.408,-0.305 c 0,0 -0.252,2.236 -0.427,3.782 -0.224,-1.591 -0.552,-3.906 -0.552,-3.906 l -2.739,-0.345 -1.009,8.937 z"
         id="path130" /><path
         d="m 38.34,56.081 1.431,6.278 c 0.178,0.774 -0.029,0.828 -0.139,0.853 -0.1,0.026 -0.147,0.009 -0.18,-0.012 -0.068,-0.042 -0.196,-0.186 -0.308,-0.676 L 39,61.886 l -2.305,0.582 0.092,0.399 c 0.235,1.032 0.635,1.714 1.22,2.081 0.543,0.342 1.224,0.403 2.082,0.186 1.913,-0.482 2.587,-1.66 2.121,-3.706 l -1.365,-5.98 -2.505,0.633 z"
         id="path132" /><path
         d="m 41.565,54.957 2.081,8.839 2.379,-1.311 c 0,0 -0.368,-1.124 -0.459,-1.402 0.227,-0.125 0.883,-0.487 1.117,-0.617 0.172,0.246 0.835,1.198 0.835,1.198 l 2.373,-1.31 -5.704,-6.841 -2.622,1.444 z m 2.765,2.201 c 0.535,0.743 0.988,1.374 1.146,1.595 -0.193,0.105 -0.358,0.196 -0.559,0.307 -0.084,-0.272 -0.314,-1.018 -0.587,-1.902"
         id="path134" /><path
         d="m 47.492,50.575 -2.537,2.297 5.473,6.715 2.546,-2.305 c 1.277,-1.154 1.386,-2.52 0.308,-3.845 -0.487,-0.595 -1.249,-0.985 -2.021,-0.765 0.047,-0.16 0.079,-0.326 0.079,-0.494 0,-0.491 -0.196,-1.002 -0.586,-1.482 -0.429,-0.527 -0.939,-0.825 -1.475,-0.868 -0.587,-0.045 -1.189,0.207 -1.787,0.747 m 0.849,1.923 c 0.081,-0.073 0.169,-0.104 0.265,-0.097 0.151,0.011 0.313,0.115 0.449,0.28 0.109,0.134 0.185,0.302 0.185,0.459 0,0.115 -0.04,0.224 -0.137,0.312 0,0 -0.105,0.093 -0.207,0.188 -0.184,-0.229 -0.593,-0.73 -0.771,-0.947 0.106,-0.096 0.216,-0.195 0.216,-0.195 m 2.034,2.369 c 0.083,-0.075 0.191,-0.11 0.312,-0.102 0.187,0.016 0.381,0.136 0.548,0.339 0.181,0.222 0.252,0.431 0.252,0.605 0,0.155 -0.058,0.282 -0.148,0.362 0,0 -0.139,0.126 -0.265,0.24 -0.202,-0.247 -0.782,-0.958 -0.974,-1.195 0.129,-0.117 0.275,-0.249 0.275,-0.249"
         id="path136" /><path
         d="m 20.972,49.585 2.548,1.879 c 1.296,0.954 1.276,2.299 0.479,3.501 -0.931,1.405 -2.174,1.579 -3.552,0.561 l -0.593,-0.437 -1.735,2.615 -1.699,-1.251 4.552,-6.868 z m -0.264,4.215 0.32,0.234 c 0.428,0.317 0.83,0.226 1.211,-0.351 0.377,-0.568 0.327,-1.004 -0.102,-1.321 l -0.319,-0.237 -1.11,1.675 z"
         id="path138"
         style="fill:#ed1d24" /><path
         d="m 27.549,54.474 -2.096,5.625 c -0.281,0.753 -0.136,1.042 0.227,1.193 0.362,0.149 0.653,0.043 0.934,-0.712 l 2.096,-5.626 1.928,0.801 -1.905,5.112 c -0.814,2.185 -1.948,2.471 -3.565,1.799 -1.619,-0.67 -2.265,-1.696 -1.453,-3.88 l 1.906,-5.112 1.928,0.8 z"
         id="path140"
         style="fill:#ed1d24" /><polygon
         points="35.03,56.529 36.989,56.776 36.033,65.253 33.734,64.963 32.928,59.55 32.905,59.546 32.313,64.785 30.354,64.537 31.311,56.059 33.654,56.354 34.417,61.75 34.44,61.753 "
         id="polygon142"
         style="fill:#ed1d24" /><path
         d="m 40.677,55.729 1.314,5.752 c 0.458,2.015 -0.257,3 -1.957,3.429 -1.733,0.438 -2.631,-0.35 -3.029,-2.096 l -0.039,-0.175 1.866,-0.471 0.094,0.409 c 0.181,0.796 0.45,0.939 0.76,0.861 0.312,-0.078 0.488,-0.335 0.306,-1.129 L 38.61,56.25 40.677,55.729 z"
         id="path144"
         style="fill:#ed1d24" /><path
         d="m 41.824,55.076 2.309,-1.272 5.407,6.483 -1.955,1.077 -0.832,-1.198 -1.46,0.804 0.458,1.404 -1.953,1.076 -1.974,-8.374 z m 1.919,0.877 -0.019,0.012 1.061,3.429 1.028,-0.565 -2.07,-2.876 z"
         id="path146"
         style="fill:#ed1d24" /><path
         d="m 45.267,52.897 2.375,-2.148 c 1.122,-1.017 2.162,-0.858 2.939,0.096 0.551,0.676 0.766,1.534 0.214,2.281 l 0.015,0.017 c 0.859,-0.638 1.762,-0.215 2.3,0.444 0.899,1.104 1.024,2.338 -0.285,3.523 l -2.374,2.148 -5.184,-6.361 z m 3.605,1.073 0.379,-0.343 c 0.321,-0.291 0.253,-0.755 -0.024,-1.094 -0.29,-0.357 -0.715,-0.499 -1.035,-0.207 l -0.38,0.342 1.06,1.302 z m 2.178,2.672 0.44,-0.397 c 0.286,-0.261 0.339,-0.772 -0.082,-1.289 -0.399,-0.49 -0.896,-0.521 -1.183,-0.262 l -0.438,0.398 1.263,1.55 z"
         id="path148"
         style="fill:#ed1d24" /><path
         d="m 34.174,13.287 c 0,0 0.002,3.547 0.002,4.031 -0.404,-1.751 -0.982,-4.24 -0.982,-4.24 l -0.189,0.011 -2.602,0.144 0.005,0.219 0.029,9.73 2.435,-0.004 c 0,0 -0.008,-4.278 -0.008,-4.287 0.418,1.75 1.024,4.286 1.024,4.286 h 2.729 l 0.006,-10.112 -2.451,-0.01 0.002,0.232 z m 4.491,0.391 c -0.782,0.723 -1.102,2.011 -1.105,4.453 -0.004,2.12 0.06,3.808 0.905,4.65 0.395,0.396 0.937,0.588 1.655,0.588 0.696,0 1.22,-0.203 1.577,-0.565 0.003,0.051 0.02,0.381 0.02,0.381 l 1.878,0.005 0.023,-5.444 -3.193,-0.185 0.002,0.245 -0.005,1.894 c 0,0 0.521,0.019 0.742,0.025 -0.023,0.791 -0.112,1.288 -0.272,1.446 -0.038,0.034 -0.087,0.066 -0.207,0.064 -0.401,-0.004 -0.486,-0.545 -0.48,-3.044 0.005,-1.563 0.027,-2.687 0.288,-2.929 0.036,-0.034 0.093,-0.068 0.237,-0.057 0.102,0.006 0.214,0.045 0.283,0.279 0.07,0.224 0.103,0.573 0.101,1.037 l -10e-4,0.214 2.505,0.191 0.004,-0.248 c 0.01,-2.912 -1.73,-3.504 -2.77,-3.597 -0.953,-0.077 -1.667,0.119 -2.187,0.597 m -11.836,-0.13 0.006,0.208 0.036,9.434 2.571,-0.008 -0.032,-9.911 -2.581,0.277 z m -0.694,0.024 -2.376,0.357 -0.048,0.119 c 0,0 -0.685,1.577 -1.129,2.602 -0.003,-0.971 -0.008,-2.509 -0.008,-2.509 l -2.552,0.548 0.004,0.186 v 8.343 l 2.572,-0.013 c 0,0 -0.005,-2.311 -0.005,-2.43 0.022,-0.041 0.086,-0.148 0.172,-0.295 0.261,0.628 1.127,2.717 1.127,2.717 l 0.155,0.001 2.76,-0.01 -0.145,-0.324 c -0.787,-1.757 -1.549,-3.398 -2.266,-4.887 0.095,-0.193 2.169,-4.471 2.169,-4.471 l -0.43,0.066 z m 19.1,0.692 c -0.543,0.448 -0.82,1.209 -0.824,2.261 -0.007,2.01 1.195,2.628 2.161,3.123 0.724,0.371 1.134,0.609 1.133,1.155 -0.002,0.203 -0.06,0.376 -0.163,0.474 -0.072,0.071 -0.167,0.105 -0.282,0.102 -0.128,-0.004 -0.466,-0.016 -0.464,-0.815 0,-0.001 0.002,-0.43 0.002,-0.43 l -0.219,-0.01 -2.284,-0.111 v 0.24 l -0.001,0.32 c -0.004,0.938 0.22,1.621 0.684,2.085 0.484,0.484 1.223,0.718 2.259,0.714 2.06,-0.011 3.103,-0.929 3.1,-2.726 10e-4,-1.815 -1.207,-2.482 -2.177,-3.017 -0.773,-0.426 -1.249,-0.719 -1.249,-1.294 0.002,-0.175 0.054,-0.325 0.139,-0.396 0.062,-0.053 0.144,-0.069 0.253,-0.053 0.298,0.048 0.402,0.456 0.4,0.791 l -0.001,0.403 0.202,0.031 2.217,0.337 0.002,-0.268 c 0,-1.869 -0.882,-2.913 -2.779,-3.287 -0.895,-0.171 -1.603,-0.045 -2.109,0.371"
         id="path150" /></g><g
       id="g152"><defs
         id="defs154"><rect
           width="62.566002"
           height="72.168999"
           x="3.717"
           y="1.416"
           id="SVGID_14_" /></defs><clipPath
         id="SVGID_15_"><use
           id="use158"
           style="overflow:visible"
           x="0"
           y="0"
           width="70"
           height="75"
           xlink:href="#SVGID_14_" /></clipPath><path
         d="m 26.166,13.801 c -0.75,0.098 -1.497,0.211 -2.243,0.337 -0.514,1.217 -1.03,2.409 -1.548,3.566 -0.007,10e-4 -0.013,10e-4 -0.021,0.002 -0.004,-1.092 -0.007,-2.186 -0.01,-3.28 -0.698,0.138 -1.393,0.287 -2.087,0.449 v 8.111 c 0.704,-0.003 1.407,-0.007 2.11,-0.011 -0.001,-0.755 -0.004,-1.509 -0.005,-2.264 0.145,-0.247 0.294,-0.496 0.439,-0.749 0.413,0.976 0.83,1.978 1.245,3.006 0.801,-0.005 1.603,-0.007 2.405,-0.01 -0.771,-1.722 -1.542,-3.39 -2.31,-4.981 0.674,-1.355 1.35,-2.752 2.025,-4.176 m 0.899,-0.047 c 0.011,3.068 0.023,6.136 0.035,9.204 0.704,-0.003 1.407,-0.004 2.111,-0.006 -0.011,-3.142 -0.02,-6.283 -0.032,-9.425 -0.704,0.063 -1.409,0.14 -2.114,0.227 m 7.34,-0.466 c 0,1.984 0.002,3.969 0.004,5.952 h -0.023 c -0.456,-1.981 -0.914,-3.957 -1.373,-5.919 -0.792,0.028 -1.584,0.072 -2.374,0.132 0.009,3.166 0.018,6.332 0.027,9.499 0.659,-0.003 1.316,-0.004 1.975,-0.004 -0.004,-1.978 -0.006,-3.959 -0.01,-5.937 0.007,0 0.015,0 0.022,-10e-4 0.475,1.969 0.947,3.95 1.418,5.938 0.771,0 1.542,0 2.315,0 0.002,-3.219 0.005,-6.436 0.005,-9.652 -0.661,-0.015 -1.324,-0.019 -1.986,-0.008 m 6.342,1.687 c 0.251,0.017 0.409,0.176 0.488,0.445 0.078,0.256 0.111,0.627 0.11,1.103 0.682,0.042 1.365,0.094 2.044,0.154 0.01,-2.214 -1.053,-3.229 -2.557,-3.365 -2.508,-0.203 -3.037,1.608 -3.042,4.82 -0.004,3.184 0.186,5.008 2.33,5.006 0.716,0 1.465,-0.214 1.751,-1.009 0.008,0 0.016,0 0.023,0 0.013,0.275 0.028,0.552 0.041,0.826 0.478,0.001 0.955,0.002 1.43,0.004 0.008,-1.664 0.014,-3.33 0.02,-4.994 -0.908,-0.063 -1.817,-0.117 -2.727,-0.158 -0.001,0.557 -0.003,1.113 -0.005,1.671 0.251,0.008 0.5,0.016 0.75,0.026 -0.017,1.644 -0.28,1.97 -0.722,1.963 -0.647,-0.008 -0.712,-0.703 -0.706,-3.275 0.006,-2.574 0.078,-3.268 0.772,-3.217 m 5.935,1.36 c 10e-4,-0.396 0.207,-0.748 0.658,-0.676 0.405,0.064 0.597,0.517 0.594,1.019 v 0.203 c 0.655,0.092 1.308,0.191 1.96,0.299 -10e-4,-1.731 -0.77,-2.702 -2.594,-3.061 -1.772,-0.337 -2.651,0.568 -2.659,2.407 -0.009,3.224 3.299,2.579 3.293,4.278 -10e-4,0.467 -0.25,0.818 -0.68,0.805 -0.409,-0.012 -0.691,-0.293 -0.689,-1.046 0,-0.07 0,-0.14 0.001,-0.21 -0.68,-0.036 -1.36,-0.069 -2.04,-0.098 0,0.107 -0.001,0.213 -0.001,0.319 -0.008,1.896 0.965,2.573 2.712,2.567 1.861,-0.011 2.87,-0.783 2.869,-2.495 0.003,-2.958 -3.427,-2.596 -3.424,-4.311"
         clip-path="url(#SVGID_15_)"
         id="path160"
         style="fill:#ed1d24" /><path
         d="m 43.401,26.998 c 0.312,0.348 0.618,0.784 1.56,0.84 1.093,0.064 2.649,-1.514 4.439,-0.97 -1.404,-1.086 -3.147,0.004 -3.673,0.099 -0.96,0.337 -1.746,0.179 -2.326,0.031 m 18.387,5.709 c -0.622,-0.302 -1.347,-0.486 -2.196,-0.53 0.529,0.262 1.178,0.388 1.651,0.713 0.217,-0.028 0.369,-0.116 0.545,-0.183 m -13.851,4.79 c -0.804,0.16 -1.332,0.693 -1.673,1.267 0.723,-0.34 1.567,-0.557 2.486,-0.525 0.696,0.024 1.292,0.199 2.097,-0.07 0.45,-0.151 0.751,-0.421 1.143,-0.65 -1.383,0.272 -2.644,-0.304 -4.053,-0.022 m 7.648,-4.416 c 0.704,-0.112 1.554,-0.471 2.472,-0.412 0.206,0.013 0.47,0.133 0.609,0.097 0.119,-0.031 0.261,-0.267 0.334,-0.351 0.122,-0.143 0.22,-0.262 0.28,-0.402 -0.697,-0.545 -1.713,-0.724 -2.864,-0.752 -0.028,0.009 -0.061,0.047 -0.021,0.052 0.629,0.101 1.224,0.243 1.643,0.585 -1.158,0.064 -2.014,0.538 -2.453,1.183 M 44.479,30.036 c 1.021,-0.482 3.82,-1.638 5.378,-0.313 -0.574,0.229 -2.619,0.972 -2.883,1.404 0.876,-0.534 3.733,-0.729 4.447,-0.046 0.422,0.404 0.571,1.076 0.528,1.827 -0.234,-0.362 -0.493,-0.745 -0.888,-1.035 -0.388,-0.286 -0.863,-0.502 -1.34,-0.549 -0.332,-0.032 -0.666,0.05 -0.662,0.344 0.005,0.342 0.53,0.513 0.767,0.655 0.156,0.094 0.284,0.203 0.419,0.288 0.145,0.089 0.332,0.127 0.418,0.286 -0.937,-0.013 -1.81,-0.103 -2.49,-0.41 0.206,0.392 0.382,0.712 0.856,0.908 -1.284,0.169 -2.054,0.816 -2,2.096 0.919,-0.42 1.049,-1.147 4.857,0.872 0.718,0.381 1.372,0.719 2.379,0.649 -1.224,1.214 -3.755,2.137 -6.037,1.551 1.237,1.277 3.578,2.006 5.418,1.882 -1.604,1.23 -5.529,1.959 -7.618,-0.088 0.377,0.834 2.497,3.431 5.424,3.333 -1.323,0.86 -2.904,0.021 -2.927,0.098 0.39,0.95 2.08,2.028 2.963,1.3 -0.334,0.903 -1.173,1.575 -2.022,1.944 2.424,0.064 3.537,-2.637 3.537,-2.637 -0.003,2.777 -0.938,4.468 -4.489,2.848 0.316,0.69 0.561,1.124 0.748,1.401 0.23,0.342 0.646,0.645 0.749,0.712 3.141,2.04 5.617,-0.908 6.45,-2.699 0.275,0.132 -0.11,2.186 -0.425,2.645 1.061,-0.517 1.629,-1.341 1.922,-2.066 0.295,0.315 0.058,1.118 -0.401,1.52 3.078,-1.362 3.521,-4.034 3.558,-4.449 0.508,0.032 0.374,0.718 0.316,1.234 0.976,-1.234 1.207,-2.64 0.706,-3.335 0.593,0.145 1.637,-0.841 1.822,-0.21 0.116,0.173 -0.064,0.367 -0.025,0.464 0.994,-0.274 2.358,-1.147 2.027,-2.551 -0.098,-0.417 -0.393,-0.639 -0.656,-0.92 0.033,-0.2 0.132,-0.278 0.125,-0.497 -0.007,-0.151 -0.136,-0.292 -0.125,-0.431 0.008,-0.079 0.131,-0.255 0.182,-0.369 0.233,-0.528 0.276,-1.199 0.019,-1.935 0.09,-0.054 0.239,-0.057 0.295,-0.143 0.192,-0.632 0.396,-1.386 0.038,-2.064 -0.096,-0.18 -0.344,-0.366 -0.383,-0.572 -0.06,-0.3 0.097,-0.805 -0.063,-1.156 -1.138,-0.499 -2.141,-1.148 -3.48,-1.416 -0.002,-0.269 0.12,-0.426 0.139,-0.676 -0.904,-0.626 -1.952,-1.088 -3.124,-1.408 -0.095,-1.415 -0.823,-2.588 -1.9,-2.974 0.079,0.169 0.306,0.785 0.072,0.905 -0.7,0.387 -1.327,-1.054 -3.015,-2.063 -2.716,-1.529 -5.766,-0.277 -6.359,1.404 0.14,-0.48 3.139,-3.75 6.989,0.731 -0.955,-0.708 -2.673,-1.209 -5.329,-0.279 2.081,-0.267 4.342,0.634 5.024,1.661 -1.825,-0.868 -6.971,-1.88 -9.931,2.329 m 20.327,4.907 c -0.157,-0.411 -0.269,-0.873 -0.399,-1.317 0.739,-0.824 0.739,0.955 0.399,1.317 m -0.198,2.356 c -0.082,-0.281 -0.143,-0.586 -0.32,-0.758 -0.054,0.185 -0.091,0.388 -0.225,0.503 -0.112,-0.144 -0.219,-0.296 -0.397,-0.367 0.007,0.52 -0.17,0.868 -0.388,1.18 -0.106,-0.415 -0.215,-0.829 -0.368,-1.192 -0.098,0.09 -0.137,0.231 -0.261,0.296 -0.15,-0.1 -0.212,-0.302 -0.373,-0.39 -0.109,0.053 -0.112,0.203 -0.266,0.218 -0.181,-0.339 -0.43,-0.602 -0.582,-0.974 1.005,0.191 2.54,0.977 3.326,0.033 0.177,0.475 0.142,1.183 -0.146,1.451 m 0.168,2.181 c -0.744,0.26 -2.034,0.417 -2.712,0.141 0.257,-0.205 0.446,-0.469 0.721,-0.655 0.076,0.084 0.119,0.207 0.192,0.298 0.179,-0.185 0.291,-0.431 0.443,-0.641 0.102,0.236 0.243,0.434 0.316,0.704 0.176,-0.072 0.209,-0.278 0.411,-0.33 0.066,0.097 0.139,0.187 0.264,0.219 0.083,-0.199 0.128,-0.436 0.27,-0.581 0.098,0.226 0.171,0.573 0.095,0.845 m -8.916,4.048 c -0.683,4.364 -2.411,7.357 -5.956,4.959 4.075,1.031 5.956,-4.959 5.956,-4.959 m -5.274,-0.941 c 0,0 2.433,-0.245 3.666,-1.648 0,0 0.204,2.08 -3.666,1.648 m 3.679,0.999 c 0.474,-1.257 1.215,-1.961 1.981,-2.146 0.277,-0.068 -1.348,0.371 -1.437,2.946 C 54.784,46.385 53,47.172 53,47.172 c 1.365,-1.056 0.792,-2.119 1.265,-3.586 M 51.271,29.725 c 1.438,-0.244 2.465,0.212 3.125,0.945 0.506,-0.357 1.039,-0.766 1.816,-0.867 1.06,-0.138 2.11,0.236 2.964,0.309 -0.17,-0.26 -0.384,-0.471 -0.521,-0.77 0.431,0.086 0.877,0.18 1.277,0.319 0.39,0.135 0.812,0.263 1.065,0.563 -0.118,0.225 -0.396,0.432 -0.443,0.641 1.453,0.189 2.718,0.597 3.676,1.356 -0.511,0.7 -1.929,0.568 -2.796,0.943 0.187,0.45 0.383,0.892 0.815,1.065 0.119,-0.329 0.282,-0.618 0.723,-0.579 0.707,0.061 1.205,1.227 1.163,1.897 -0.625,0.265 -1.28,0.127 -1.917,-0.03 -0.623,-0.153 -1.242,-0.447 -1.862,-0.418 -0.195,0.009 -0.42,0.063 -0.542,0.183 -0.374,0.361 -0.487,1.511 -0.403,2.34 0.1,0.976 0.446,1.754 1.094,2.03 -0.644,-0.665 -0.955,-2.404 -0.409,-3.328 -0.208,2.005 0.651,3.444 1.982,3.967 -0.45,0.047 -0.733,-0.094 -1.043,-0.203 0.75,0.59 2.123,0.474 3.446,0.414 -0.931,0.47 -2.881,1.243 -4.043,1.083 -0.054,0.403 -0.314,0.8 -0.591,1.117 0.733,0.893 0.433,2.41 -0.993,4.034 0.967,-1.642 0.898,-2.903 0.658,-3.687 -1.865,1.552 -1.702,2.178 -1.641,2.292 0,-0.002 0,-0.003 -0.002,-0.003 -0.43,-0.445 0.194,-1.417 1.108,-3.125 0.239,-0.447 0.296,-0.812 0.276,-1.096 -0.094,-0.177 -0.065,-0.434 -0.211,-0.558 -1.042,0.13 -2.942,0.457 -3.105,-0.286 -0.219,-1.018 -0.168,-2.2 0,-2.494 0.285,-0.487 1.279,-0.96 1.15,-1.661 -1.616,0.416 -2.894,-0.206 -4.044,-0.743 -1.073,-0.498 -2.155,-0.752 -3.594,-0.74 0.531,-0.259 1.088,-0.47 1.812,-0.506 1.141,-0.058 1.974,0.254 2.824,0.522 0.569,0.181 1.175,0.456 1.805,0.318 -0.797,-0.567 -1.654,-0.828 -1.966,-1.879 -0.108,-0.365 -0.058,-0.754 -0.165,-1.177 -0.318,-1.245 -1.327,-1.967 -2.488,-2.188"
         clip-path="url(#SVGID_15_)"
         id="path162"
         style="fill:#ed1d24;fill-rule:evenodd" /></g></g></svg>