<?xml version="1.0" encoding="UTF-8" standalone="no"?>
<!-- Generator: Adobe Illustrator 15.0.2, SVG Export Plug-In . SVG Version: 6.00 Build 0)  -->

<svg
   xmlns:dc="http://purl.org/dc/elements/1.1/"
   xmlns:cc="http://creativecommons.org/ns#"
   xmlns:rdf="http://www.w3.org/1999/02/22-rdf-syntax-ns#"
   xmlns:svg="http://www.w3.org/2000/svg"
   xmlns="http://www.w3.org/2000/svg"
   xmlns:sodipodi="http://sodipodi.sourceforge.net/DTD/sodipodi-0.dtd"
   xmlns:inkscape="http://www.inkscape.org/namespaces/inkscape"
   version="1.1"
   id="Capa_1"
   x="0px"
   y="0px"
   width="156.39999"
   height="210.60001"
   viewBox="0 0 156.39999 651.54377"
   xml:space="preserve"
   inkscape:version="0.48.4 r9939"
   sodipodi:docname="UD Almería - Còpia.svg"><metadata
   id="metadata69"><rdf:RDF><cc:Work
       rdf:about=""><dc:format>image/svg+xml</dc:format><dc:type
         rdf:resource="http://purl.org/dc/dcmitype/StillImage" /></cc:Work></rdf:RDF></metadata><defs
   id="defs67" /><sodipodi:namedview
   pagecolor="#ffffff"
   bordercolor="#666666"
   borderopacity="1"
   objecttolerance="10"
   gridtolerance="10"
   guidetolerance="10"
   inkscape:pageopacity="0"
   inkscape:pageshadow="2"
   inkscape:window-width="1920"
   inkscape:window-height="1018"
   id="namedview65"
   showgrid="false"
   fit-margin-top="0"
   fit-margin-left="0"
   fit-margin-right="0"
   fit-margin-bottom="0"
   inkscape:zoom="3.8034187"
   inkscape:cx="78.199997"
   inkscape:cy="105.3"
   inkscape:window-x="-8"
   inkscape:window-y="-8"
   inkscape:window-maximized="1"
   inkscape:current-layer="Capa_1" />

<path
   d="M 74.414293,647.19688 C 34.605717,613.81147 2.5681305,581.41432 -35.489078,527.1893 -89.112963,450.14992 -132.65192,363.86211 -151.05446,249.18326 c -7.36833,-49.23666 -10.63912,-96.57452 -10.04561,-143.57732 -0.0518,-2.82269 1.20354,-3.9322 3.51808,-3.9322 l 134.308533,0 C -22.834296,46.322661 27.695008,2.4276087 78.575143,2.1110322 129.8915,1.7917415 179.68444,46.563354 179.68444,101.69187 l 134.69193,0 c 2.44096,0 3.87392,1.40319 3.87392,3.75792 0.59251,47.0028 -2.85979,94.41788 -10.07614,143.6762 -14.46394,98.43845 -58.67074,198.32127 -115.37962,277.85795 -40.7677,57.314 -72.18521,88.12645 -110.006618,120.35121 -4.397427,3.11122 -4.420226,3.11122 -8.373619,-0.13827 z"
   id="path5"
   inkscape:connector-curvature="0"
   sodipodi:nodetypes="ccccscscsccccc" />
<path
   d="m -20.45807,100.78125 c 0,2.54778 -0.915495,3.54314 -3.394221,3.54314 l -134.692439,0 c -0.18052,45.84706 2.42648,94.29372 9.61461,141.75544 15.8172,103.355 57.874386,198.3675 118.534149,283.77912 31.4528649,44.14231 67.93815,84.42564 108.917441,117.35243 40.97926,-32.92679 77.46455,-73.21012 108.91743,-117.35243 60.65974,-85.41162 102.71689,-180.42412 118.53411,-283.77912 7.18916,-47.46172 9.7951,-95.90838 9.61565,-141.75544 l -135.49511,0 c -1.9494,0 -3.17775,-1.35812 -3.17775,-3.75885 0,-50.241507 -45.23486,-95.8576196 -97.807026,-95.8576196 -52.572213,0 -99.566844,45.8307846 -99.566844,96.0733296 z"
   id="path7"
   inkscape:connector-curvature="0"
   style="fill:#febb13"
   sodipodi:nodetypes="sscccccccssss" />
<path
   d="M 65.407675,129.79699 H 4.8556739 l 0,0 H -133.22736 c 0.433,35.863 2.686,71.9 7.537,107.417 H -8.9183264 l 74.3260014,-68.261 v -39.156 z"
   id="path9"
   inkscape:connector-curvature="0" />
<path
   d="m 282.31964,237.21399 c 4.851,-35.517 7.104,-71.553 7.537,-107.417 h -113.568 l 0,0 H 91.222675 v 39.155 l 74.325965,68.261 h 116.771 z"
   id="path11"
   inkscape:connector-curvature="0" />
<path
   d="m 259.53764,336.92099 c 7.796,-23.996 14.12,-48.685 18.625,-73.806 h -122.664 l -77.183965,-70.947 -77.1850011,70.947 H -121.53236 c 4.504,25.121 10.828,49.81 18.62501,73.806 h 362.44499 z"
   id="path13"
   inkscape:connector-curvature="0" />
<path
   d="m 78.314675,615.25199 c 34.476965,-29.54 64.969965,-64.19 91.216965,-101.266 33.351,-46.952 60.898,-97.628 80.996,-151.077 H -93.898328 c 20.097003,53.448 47.645003,104.125 80.995003,151.077 26.248,37.076 56.741,71.726 91.218,101.266 z"
   id="path15"
   inkscape:connector-curvature="0" />
<path
   d="m 60.296675,134.90799 h -50.33 l 0,0 H -128.03036 c 0.26,16.027 0.953,32.139 1.993,48.338 1.126,16.545 2.772,32.832 4.851,48.857 h 110.276035 l 71.207,-65.403 v -31.792 z"
   id="path17"
   inkscape:connector-curvature="0"
   style="fill:#ffffff" />
<path
   d="m 277.81565,232.10299 c 2.079,-16.025 3.725,-32.312 4.851,-48.857 1.04,-16.199 1.732,-32.312 1.993,-48.338 h -108.371 l 0,0 H 96.332671 v 31.792 l 71.206979,65.403 h 110.276 z"
   id="path19"
   inkscape:connector-curvature="0"
   style="fill:#ffffff" />
<path
   d="m 255.81264,331.81099 c 3.465,-10.742 6.584,-21.657 9.355,-32.832 2.599,-10.222 4.851,-20.444 6.844,-30.666 h -118.419 l -75.277965,-69.215 -75.2790012,69.215 H -115.38236 c 1.993,10.222 4.245,20.443 6.844,30.666 2.772,11.175 5.89101,22.09 9.355027,32.832 H 255.81264 z"
   id="path21"
   inkscape:connector-curvature="0"
   style="fill:#00579e" />
<path
   d="m -72.762325,198.23199 v -49.637 h -24.602003 v 50.244 c 0,3.985 2.339,7.364 7.450003,10.829 7.45,4.591 19.404,6.843 35.95,6.843 27.98,0 41.667,-6.324 41.667,-19.404 v -49.118 h -25.122 v 49.118 c 0,7.362 -5.717,11.435 -16.545,11.435 -12.561,-0.001 -18.798,-3.466 -18.798,-10.31 z"
   id="path23"
   inkscape:connector-curvature="0"
   style="fill:#e10e18" />
<path
   d="m 236.23465,181.07999 c 0,-14.813 -8.576,-22.783 -25.121,-24.515 l -17.672,-0.606 v 50.85 l 18.798,-1.126 c 14.553,-2.427 23.995,-7.537 23.995,-24.603 l 0,0 z m 23.995,0.607 c 0,27.894 -34.13,33.092 -54.834,33.092 h -36.47 v -67.31 h 33.611 c 38.289,0 57.693,11.348 57.693,34.218 z"
   id="path25"
   inkscape:connector-curvature="0"
   style="fill:#e10e18" />
<path
   d="m 78.314675,30.436991 c 40.454965,0 73.458965,33.178 73.458965,73.632999 H 4.8556739 c 0,-40.454999 33.0050011,-73.632999 73.4590011,-73.632999 z"
   id="path27"
   inkscape:connector-curvature="0" />
<path
   d="m 78.314675,98.61098 c 12.647,0 23.041975,-10.394989 23.041975,-23.128989 0,-12.734 -10.395975,-23.128 -23.041975,-23.128 -12.647,0 -23.043,10.395 -23.043,23.128 0,12.735 10.396,23.128989 23.043,23.128989 z"
   id="path29"
   inkscape:connector-curvature="0"
   style="fill:#febb13" />
<path
   d="m 78.314675,35.547991 c 35.949965,0 65.575965,28.067 68.087965,63.409989 H 94.080675 c 7.449975,-5.109999 12.473965,-13.686989 12.473965,-23.475989 0,-15.506 -12.733965,-28.24 -28.239965,-28.24 -15.506,0 -28.24,12.734 -28.24,28.24 0,9.79 5.024,18.36599 12.475,23.475989 h -52.323 c 2.512,-35.342989 32.137,-63.409989 68.088,-63.409989 z"
   id="path31"
   inkscape:connector-curvature="0"
   style="fill:#ffffff" />
<rect
   x="179.06166"
   y="275.32999"
   width="11.955"
   height="47.904999"
   id="rect33"
   style="fill:#ffffff" />
<polygon
   points="205.31,407.037 229.306,407.037 229.306,412.754 193.355,412.754 193.355,364.763 205.31,364.763 "
   id="polygon35"
   style="fill:#ffffff"
   transform="translate(-228.26135,-88.914009)" />
<polygon
   points="303.458,412.754 303.458,364.763 337.068,364.763 337.068,371.087 315.412,371.087 315.412,384.774 334.816,384.774 334.816,391.618 315.412,391.618 315.412,406.431 337.068,406.431 337.068,412.754 "
   id="polygon37"
   style="fill:#ffffff"
   transform="translate(-228.26135,-88.914009)" />
<polygon
   points="288.038,412.754 276.083,412.754 276.083,377.931 263.523,393.87 261.271,393.87 249.229,378.45 249.229,412.754 237.275,412.754 237.275,364.763 249.229,364.763 262.743,381.916 276.083,364.763 288.038,364.763 "
   id="polygon39"
   style="fill:#ffffff"
   transform="translate(-228.26135,-88.914009)" />
<path
   d="m 150.47365,289.53599 c 0,-6.93 -6.063,-7.363 -11.435,-7.363 v 14.813 c 5.372,10e-4 11.435,0.173 11.435,-7.45 l 0,0 z m -7.362,13.687 h -4.072 v 20.617 h -11.435 v -47.991 h 11.435 c 6.064,0 14.986,0.693 20.098,4.678 3.118,2.599 5.024,7.276 3.985,11.261 -1.126,4.332 -5.284,7.19 -9.789,8.663 9.009,2.512 14.121,15.073 16.026,23.389 h -12.56 c -2.6,-5.717 -7.018,-19.231 -13.688,-20.617 z"
   id="path41"
   inkscape:connector-curvature="0"
   style="fill:#ffffff" />
<path
   d="m 225.23365,287.89099 -6.844,19.404 h 13.687 l -6.843,-19.404 0,0 z m -24.516,36.469 18.278,-48.511 h 13.08 l 17.759,48.511 h -12.042 l -3.378,-10.828 h -17.758 l -3.985,10.828 h -11.954 z"
   id="path43"
   inkscape:connector-curvature="0"
   style="fill:#ffffff" />
<path
   d="m -68.604325,287.89099 6.844,19.404 h -13.688 l 6.844,-19.404 0,0 z m 24.516,36.469 -18.278,-48.511 h -13.081 l -17.758,48.511 h 12.041 l 3.379,-10.828 h 17.758 l 3.985,10.828 h 11.954 z"
   id="path45"
   inkscape:connector-curvature="0"
   style="fill:#ffffff" />
<path
   d="m 78.314675,398.59899 c -15.939,0 -30.406,6.498 -40.888,17.065 -3.119,3.119 -4.678,8.923 -2.252,12.994 1.559,2.513 3.378,4.852 5.457,6.931 4.332,4.244 8.836,0.953 11.608,-3.033 12.561,-18.364 28.154,-27.027 48.337985,-29.453 -6.842985,-2.858 -14.379985,-4.504 -22.262985,-4.504 l 0,0 z m -49.55,28.067 c 3.292,7.537 8.576,13.34 15.246,17.759 6.843,4.504 15.246,7.45 24.602,9.095 6.063,1.041 6.15,1.473 7.016,8.75 0.52,3.725 0.174,7.363 -0.172,11.175 0.086,5.804 -5.371,8.662 -9.616,7.45 -24.515,-4.678 -37.249,-15.68 -44.525,-34.045 1.212,-7.277 3.811,-14.034 7.449,-20.184 l 0,0 z m -8.23,31.012 c 0.434,19.925 11.001,37.337 26.681,47.472 6.237,3.985 13.167,5.024 18.538,-2.166 1.993,-2.686 3.726,-5.458 5.111,-8.403 2.772,-6.063 -1.992,-7.969 -6.583,-8.749 -22.437,-4.072 -35.431,-12.994 -43.747,-28.154 l 0,0 z m 42.88,54.661 c 7.71,-7.45 12.561,-16.025 14.9,-25.295 2.425,-8.576 3.378,-17.498 2.079,-26.161 -0.953,-6.15 -0.78,-7.97 3.292,-13.081 2.772,-3.552 6.584,-6.41 10.135,-9.009 3.897989,-3.292 8.315975,-0.26 9.874975,3.812 10.04799,24.775 2.77199,46.951 -11.780975,70.081 -4.332,1.04 -8.922,1.56 -13.6,1.56 -5.111,0 -10.136,-0.694 -14.9,-1.907 l 0,0 z m 36.989985,-2.425 c 13.51398,-23.649 18.53698,-45.912 8.40198,-69.734 -1.818,-4.418 -2.772,-9.789 3.292,-11.348 2.858,-0.78 5.89,-1.213 8.921,-1.213 6.498,-0.346 9.183,2.772 11.262,8.057 2.426,6.497 3.812,13.427 3.812,20.79 0.001,23.995 -14.813,44.699 -35.68898,53.448 l 0,0 z m 25.03498,-86.886 c -8.143,-0.78 -15.766,0.867 -22.86899,4.331 -7.709975,3.638 -14.986975,9.443 -21.049975,16.892 -2.946,3.465 -4.592,5.544 -9.79,4.852 -4.764,-0.693 -9.269,-1.733 -13.34,-3.119 -4.852,-1.646 -4.765,-7.017 -2.253,-10.569 13.254,-19.491 29.886,-27.114 52.582965,-28.153 6.497,4.071 12.214,9.443 16.719,15.766 z"
   id="path47"
   inkscape:connector-curvature="0"
   style="fill:#b96817;fill-opacity:1" />
<path
   d="M 3.2096738,368.01999 H -46.946325 v 83.162 c 11.695,20.53 24.429,40.455 38.2019986,59.859 3.898,5.458 7.88300024,10.915 11.9550002,16.286 v -159.307 z"
   id="path49"
   inkscape:connector-curvature="0"
   style="fill:#e10e18" />
<path
   d="m 153.41965,527.32599 c 4.071,-5.371 8.056,-10.828 11.954,-16.286 13.773,-19.404 26.507,-39.329 38.203,-59.859 v -83.162 h -50.157 v 159.307 z"
   id="path51"
   inkscape:connector-curvature="0"
   style="fill:#e10e18" />
<path
   d="m 103.34865,399.03299 v -31.013 H 53.279675 v 31.013 c 7.709,-3.379 16.199,-5.285 25.035,-5.285 8.836,0 17.325,1.906 25.033975,5.285 z"
   id="path53"
   inkscape:connector-curvature="0"
   style="fill:#e10e18" />
<path
   d="m 78.314675,608.49499 c 8.576,-7.536 16.892,-15.333 25.033975,-23.475 v -71.121 c -7.708975,3.379 -16.198975,5.198 -25.033975,5.198 -8.836,0 -17.326,-1.819 -25.035,-5.198 v 71.121 c 8.143,8.142 16.459,15.939 25.035,23.475 z"
   id="path55"
   inkscape:connector-curvature="0"
   style="fill:#e10e18" />
<path
   d="m -46.947325,368.01999 h -39.502 c 9.183,23.736 19.924,46.952 32.052,69.475 2.426,4.591 4.938,9.096 7.45,13.687 v -83.162 z"
   id="path57"
   inkscape:connector-curvature="0"
   style="fill:#ffffff" />
<path
   d="M 53.279675,368.01999 H 3.2096738 v 159.306 c 9.8750012,13.081 20.3570012,25.728 31.3590012,37.943 6.063,6.756 12.301,13.34 18.711,19.751 v -71.121 c -22.089,-9.702 -37.596,-31.878 -37.596,-57.433 0,-25.641 15.507,-47.731 37.596,-57.433 v -31.013 z"
   id="path59"
   inkscape:connector-curvature="0"
   style="fill:#ffffff" />
<path
   d="m 203.57665,451.18099 c 2.512,-4.591 5.024,-9.096 7.45,-13.687 12.128,-22.522 22.87,-45.739 32.052,-69.475 h -39.501 v 83.162 z"
   id="path61"
   inkscape:connector-curvature="0"
   style="fill:#ffffff" />
<path
   d="m 103.34865,585.01999 c 6.411,-6.411 12.648,-12.995 18.712,-19.751 11.002,-12.215 21.483,-24.862 31.359,-37.943 v -159.306 h -50.071 v 31.013 c 22.09,9.702 37.597,31.792 37.597,57.433 0,25.555 -15.506,47.731 -37.597,57.433 v 71.121 z"
   id="path63"
   inkscape:connector-curvature="0"
   style="fill:#ffffff" />
</svg>