<?xml version="1.0" encoding="UTF-8"?>
<!DOCTYPE svg PUBLIC "-//W3C//DTD SVG 1.0//EN" "http://www.w3.org/TR/2001/REC-SVG-20010904/DTD/svg10.dtd">
<svg fill-opacity="1" xmlns:xlink="http://www.w3.org/1999/xlink" color-rendering="auto" color-interpolation="auto" stroke="black" text-rendering="auto" stroke-linecap="square" stroke-miterlimit="10" stroke-opacity="1" shape-rendering="auto" fill="black" stroke-dasharray="none" font-weight="normal" stroke-width="1" xmlns="http://www.w3.org/2000/svg" font-family="'Dialog'" font-style="normal" stroke-linejoin="miter" font-size="12" stroke-dashoffset="0" image-rendering="auto">
  <!--Unicode Character 'AMERICAN FOOTBALL' (U+1F3C8)-->
  <defs id="genericDefs"/>
  <g>
    <g>
      <path d="M278.7188 126.5625 L278.2969 146.9531 Q278.0156 157.2188 269.4375 186.4688 Q266.2031 197.7188 253.8281 228.0938 Q252.2812 232.0312 241.875 247.2188 Q213.4688 288.8438 174.5156 311.4844 Q169.875 314.1562 161.7188 316.9688 Q150.4688 320.7656 148.5 321.6094 Q129.6562 329.3438 104.2031 335.8125 Q100.2656 336.9375 92.5312 338.7656 Q87.0469 339.75 64.5469 339.75 Q48.0938 339.75 37.6875 333.5625 Q35.8594 332.4375 25.0312 321.4688 Q20.6719 316.9688 18.5625 313.1719 Q11.5312 300.0938 11.5312 270.9844 Q11.5312 257.4844 16.4531 231.0469 Q18.2812 225.5625 21.375 214.5938 Q24.75 199.5469 38.9531 175.0781 Q43.4531 169.7344 51.75 159.4688 Q80.8594 122.3438 114.8906 99.7031 Q124.875 93.0938 144 85.3594 Q153.2812 81.5625 170.4375 77.4844 Q175.2188 76.7812 184.7812 75.0938 Q198.2812 72.4219 203.0625 72.5625 L209.9531 72.5625 Q211.6406 72.5625 232.0312 74.25 Q243.2812 75.2344 250.875 78.8906 Q260.8594 83.8125 272.3906 98.7188 Q279.1406 107.4375 278.7188 126.5625 ZM267.4688 120.2344 Q267.4688 119.1094 265.2891 112.2188 Q263.1094 105.3281 262.4062 104.3438 Q254.8125 93.5156 247.3594 89.7188 Q243.9844 88.0312 224.7188 85.3594 Q222.6094 85.0781 219.2344 85.0781 Q199.2656 85.0781 192.0938 86.3438 Q188.8594 86.9062 179.0156 87.8906 L179.8594 89.4375 Q189 90.4219 187.1719 90.4219 Q189 90.4219 192.2344 89.5781 Q196.1719 88.4531 197.4375 88.3125 Q204.75 87.3281 217.2656 87.3281 Q217.9688 87.3281 220.4297 88.4531 Q222.8906 89.5781 223.5938 89.5781 Q223.4531 89.5781 226.4062 87.75 L227.5312 89.7188 Q226.8281 90.5625 225.5625 91.5469 Q220.9219 92.9531 205.1719 92.9531 Q204.4688 92.9531 203.2031 92.5312 Q201.9375 92.1094 201.2344 92.1094 Q198.8438 92.1094 194.625 93.375 Q217.9688 106.7344 251.5781 143.2969 Q253.2656 141.0469 255.5156 136.5469 Q256.7812 131.625 258.0469 112.7812 Q258.4688 110.6719 258.8906 106.3125 L259.875 104.625 Q262.4062 106.0312 262.4062 113.0625 Q262.4062 134.7188 256.2188 149.2031 Q258.3281 151.875 262.5469 157.2188 Q267.4688 142.4531 267.4688 120.2344 ZM260.8594 167.7656 Q258.75 162.2812 255.0938 154.6875 Q253.5469 152.7188 244.5469 143.0156 Q220.3594 117 201.7969 103.6406 Q190.9688 95.9062 183.2344 92.7422 Q175.5 89.5781 171.8438 89.5781 Q169.875 89.5781 153.4219 96.6094 Q157.6406 98.7188 165.6562 103.5 Q193.0781 123.8906 209.1094 139.9219 Q225.1406 155.9531 232.4531 163.8281 Q245.1094 177.4688 253.8281 189.7031 L260.8594 167.7656 ZM158.2031 105.3281 Q149.7656 99 147.2344 99 Q148.3594 99 141.75 101.1094 Q121.9219 107.2969 91.5469 135.4219 Q63.2812 161.5781 51.3281 181.5469 Q48.5156 185.0625 43.7344 192.375 Q37.9688 203.9062 37.9688 208.4062 Q37.9688 210.2344 44.7188 219.2344 L50.625 206.5781 Q45 197.0156 45 198 Q45 195.4688 47.1094 191.4609 Q49.2188 187.4531 51.4688 187.4531 Q52.1719 187.4531 53.2266 188.1562 Q54.2812 188.8594 54.9844 188.8594 Q55.9688 188.8594 57.0938 186.3281 Q54.4219 184.5 54.4219 182.5312 Q54.4219 180.9844 54.5625 180.4219 Q59.7656 173.25 62.0156 173.25 Q63.1406 173.25 65.1094 174.5156 L66.2344 173.5312 Q65.3906 172.4062 63.9844 170.0156 Q70.875 162 72.4219 162 Q73.125 162 75.9375 163.6875 L78.3281 161.2969 Q76.2188 158.2031 76.2188 157.6406 Q76.2188 156.375 79.5938 153.0703 Q82.9688 149.7656 84.2344 149.7656 Q84.6562 149.7656 85.2188 149.9766 Q85.7812 150.1875 86.2031 150.1875 Q86.9062 150.1875 89.0156 147.375 Q88.7344 145.8281 88.7344 144.9844 Q88.7344 143.5781 92.0391 140.4141 Q95.3438 137.25 96.6094 137.25 Q97.1719 137.25 100.2656 139.3594 Q101.1094 138.5156 102.6562 136.5469 Q100.8281 133.3125 100.8281 133.5938 Q100.8281 132.0469 108.9844 125.0156 Q113.0625 127.2656 111.9375 127.2656 Q112.9219 127.2656 113.3438 126.1406 Q112.6406 122.625 112.6406 122.4844 L112.6406 121.9219 Q118.2656 115.5938 121.0781 115.5938 Q122.625 115.5938 123.8203 116.7188 Q125.0156 117.8438 125.8594 118.125 Q127.5469 117.2812 128.25 115.7344 Q126.4219 113.7656 126.4219 112.5 Q126.4219 111.0938 130.7109 108.5625 Q135 106.0312 136.6875 106.0312 Q137.1094 106.0312 141.1875 109.0547 Q145.2656 112.0781 145.8281 112.0781 Q147.375 112.0781 158.2031 105.3281 ZM148.6406 125.2969 Q143.8594 117.7031 136.2656 111.6562 Q134.4375 112.6406 133.7344 116.4375 Q124.5938 123.3281 124.5938 123.3281 Q124.0312 123.3281 122.6953 122.2734 Q121.3594 121.2188 120.7969 121.2188 Q119.9531 121.2188 117.8438 123.4688 Q118.4062 124.4531 119.5312 126.5625 Q112.5 132.4688 111.7969 132.4688 Q111.2344 132.4688 110.3203 131.8359 Q109.4062 131.2031 108.8438 131.2031 Q108.2812 131.2031 107.0156 132.6094 Q108.7031 137.6719 108.7031 136.8281 Q108.7031 137.5312 104.5547 141.0469 Q100.4062 144.5625 99.5625 144.5625 Q99.5625 144.5625 96.3281 142.875 Q94.6406 145.4062 93.5156 146.5312 Q95.2031 149.7656 95.2031 149.625 Q95.2031 150.4688 92.3203 153.3516 Q89.4375 156.2344 88.5938 156.2344 Q88.7344 156.2344 85.5 154.5469 Q84.375 155.5312 81.8438 157.3594 Q83.5312 160.5938 83.5312 160.5938 Q83.5312 161.4375 80.0156 165.5859 Q76.5 169.7344 75.7969 169.7344 Q76.6406 169.7344 71.5781 168.0469 Q70.1719 168.75 70.1719 169.875 Q70.1719 170.4375 70.7344 171.4219 Q71.2969 172.4062 71.2969 172.9688 Q67.6406 177.75 65.1094 180.1406 Q64.125 179.5781 62.0156 178.875 Q60.1875 182.25 60.1875 182.1094 Q60.1875 181.4062 62.2969 185.4844 Q55.2656 194.9062 54.9844 194.9062 Q54.5625 194.9062 54.0703 194.6953 Q53.5781 194.4844 53.1562 194.4844 Q52.4531 194.4844 50.625 197.7188 Q59.0625 206.7188 64.2656 209.6719 Q65.9531 207.1406 66.6562 205.0312 Q59.625 199.9688 59.625 199.2656 Q59.625 197.4375 62.0156 194.4141 Q64.4062 191.3906 66.2344 191.3906 Q67.6406 191.3906 70.5938 193.6406 Q73.6875 196.3125 74.6719 196.5938 Q76.2188 193.6406 76.2188 193.7812 Q76.2188 193.2188 73.4062 190.7578 Q70.5938 188.2969 70.5938 187.7344 Q75.0938 179.2969 77.2031 179.2969 Q77.4844 179.2969 83.3906 182.25 Q85.6406 178.875 85.6406 177.75 Q85.6406 177.3281 83.5312 175.1484 Q81.4219 172.9688 81.4219 171.8438 Q81.4219 170.2969 83.7422 168.2578 Q86.0625 166.2188 87.6094 166.2188 Q90 166.2188 93.375 168.8906 Q96.0469 166.3594 96.6094 165.0938 Q91.8281 160.1719 91.8281 158.9062 Q91.8281 157.2188 94.0078 155.0391 Q96.1875 152.8594 97.875 152.8594 Q99.5625 152.8594 101.5312 154.9688 Q103.5 157.0781 104.625 157.6406 L107.8594 154.4062 Q105.1875 150.8906 105.1875 148.6406 Q105.1875 147.0938 107.2266 144.7734 Q109.2656 142.4531 110.8125 142.4531 Q111.375 142.4531 113.9766 144.6328 Q116.5781 146.8125 117.1406 146.8125 Q117.4219 146.8125 121.6406 144 Q121.3594 143.2969 119.5312 141.3281 Q118.2656 139.9219 118.2656 138.5156 Q118.2656 137.1094 121.7812 134.3672 Q125.2969 131.625 126.8438 131.625 Q128.3906 131.625 130.0781 134.4375 Q131.7656 137.25 132.75 137.25 Q132.1875 137.25 135.5625 135.8438 Q135.2812 134.8594 132.8203 131.7656 Q130.3594 128.6719 130.3594 127.2656 Q130.3594 125.5781 133.3828 123.1875 Q136.4062 120.7969 138.2344 120.7969 Q139.2188 120.7969 141.0469 123.75 Q142.3125 125.7188 143.5781 127.6875 Q146.5312 126.9844 148.6406 125.2969 ZM237.9375 177.75 Q226.8281 165.6562 204.0469 141.75 Q197.8594 135.5625 176.7656 118.125 Q173.5312 115.0312 170.2969 111.9375 Q165.9375 108.1406 162.7031 108.1406 Q159.6094 108.1406 155.3906 111.2344 Q152.2969 113.9062 149.0625 116.5781 Q155.5312 125.5781 155.5312 126 Q155.5312 127.6875 151.7344 130.2891 Q147.9375 132.8906 146.25 132.8906 Q141.75 132.8906 137.5312 126.8438 L136.8281 127.9688 Q141.6094 133.4531 141.6094 134.4375 Q141.6094 136.4062 137.3906 139.4297 Q133.1719 142.4531 131.0625 142.4531 Q129.7969 142.4531 128.1094 140.4141 Q126.4219 138.375 125.8594 138.0938 L124.3125 139.0781 Q127.8281 145.8281 127.8281 144.8438 Q127.8281 146.8125 122.8359 149.4141 Q117.8438 152.0156 115.5938 152.0156 Q115.875 152.0156 110.25 147.6562 L109.5469 148.7812 Q113.4844 155.25 113.4844 154.9688 Q113.4844 156.5156 110.3906 159.8906 Q107.2969 163.2656 105.6094 163.2656 Q102.2344 163.2656 98.5781 158.4844 L97.4531 159.6094 Q102.2344 163.4062 102.2344 166.6406 Q102.2344 168.3281 98.6484 171.6328 Q95.0625 174.9375 93.2344 174.9375 Q93.7969 174.9375 87.6094 170.1562 L85.6406 172.125 Q90.9844 177.4688 90.9844 178.0312 Q90.9844 180.8438 88.5938 184.6406 Q86.0625 188.8594 83.3906 188.8594 Q82.8281 188.8594 78.1875 185.3438 L77.0625 186.4688 Q81.4219 192.0938 81.4219 192.2344 Q81.4219 193.9219 78.1172 198.2812 Q74.8125 202.6406 73.4062 202.6406 Q71.4375 202.6406 69.3281 200.6016 Q67.2188 198.5625 65.8125 198.2812 Q71.8594 203.3438 71.8594 207.4219 Q71.8594 209.1094 69.1875 212.8359 Q66.5156 216.5625 64.8281 216.5625 Q64.5469 216.5625 55.5469 210.0938 Q52.875 213.1875 50.3438 216.2812 Q47.1094 220.2188 47.1094 223.4531 Q47.1094 226.5469 48.0234 227.7422 Q48.9375 228.9375 60.0469 241.875 Q67.3594 250.3125 82.2656 266.7656 Q94.0781 277.3125 117.1406 298.9688 Q119.1094 297.8438 122.9062 296.1562 Q124.5938 296.0156 127.6875 295.3125 Q132.4688 292.5 142.0312 287.0156 Q156.6562 278.8594 165.9375 270.5625 Q219.5156 222.75 234.2812 189.1406 Q235.4062 185.3438 237.9375 177.75 ZM251.4375 196.4531 Q251.4375 195.75 243.2812 184.9219 Q241.5938 187.3125 238.9219 192.375 Q235.8281 200.25 227.3906 213.1875 Q224.8594 216.1406 219.9375 221.9062 Q218.9531 223.875 216.5625 227.5312 Q212.0625 233.7188 200.6719 245.6719 Q198.5625 247.6406 194.7656 251.7188 Q194.7656 251.7188 193.3594 254.6719 L191.6719 254.9531 Q188.8594 257.7656 183.0938 263.25 Q177.3281 268.7344 166.5 277.7344 Q165.375 278.1562 163.4062 279.2812 Q161.0156 281.3906 156.2344 285.3281 Q145.125 293.9062 131.3438 300.0938 Q126.9844 302.0625 123.4688 304.875 Q126.4219 306.4219 131.7656 309.9375 Q134.8594 312.4688 134.4375 312.4688 Q139.5 312.4688 148.0781 308.3906 Q170.1562 297.9844 185.7656 287.0156 Q188.1562 285.75 192.375 282.7969 Q211.3594 266.0625 221.625 252.9844 Q240.0469 229.3594 250.1719 200.3906 Q251.4375 196.7344 251.4375 196.4531 ZM128.6719 314.5781 Q121.9219 310.5 113.4844 302.625 Q106.5938 295.875 99.5625 289.2656 Q92.1094 283.0781 78.8906 270 Q56.9531 244.6875 55.8281 243.2812 Q42.8906 227.5312 35.5781 214.4531 Q28.4062 229.9219 28.4062 232.875 Q28.4062 236.9531 31.6406 244.2656 Q34.1719 250.0312 39.5156 258.0469 Q52.875 278.2969 89.2969 311.2031 Q90.8438 313.0312 94.0781 316.125 Q102.0938 322.0312 106.7344 322.0312 Q109.6875 322.0312 128.6719 314.5781 ZM96.0469 323.5781 Q93.375 321.4688 88.1719 317.25 Q76.5 321.4688 70.875 322.3828 Q65.25 323.2969 52.4531 323.2969 Q44.8594 323.2969 43.5938 320.9062 L45.2812 319.9219 Q55.5469 319.6406 75.9375 316.2656 Q77.4844 315.8438 82.2656 312.1875 Q54 287.2969 35.4375 261.2812 Q34.4531 259.1719 32.0625 255.2344 Q31.5 260.0156 31.5 261.8438 Q31.5 263.1094 31.7812 265.7109 Q32.0625 268.3125 32.0625 269.5781 Q32.0625 272.1094 31.5 277.2422 Q30.9375 282.375 30.9375 284.9062 Q30.9375 288.1406 28.4062 288.1406 Q27.5625 288.1406 27.1406 287.4375 Q27.5625 286.4531 28.2656 284.4844 Q26.7188 275.4844 26.7188 276.75 Q26.7188 273.0938 27.1406 265.3594 Q27.2812 262.8281 28.4062 256.6406 Q29.3906 250.875 29.3906 248.0625 Q29.3906 240.75 26.8594 240.4688 Q26.4375 244.8281 25.3125 253.6875 Q24.0469 260.7188 24.0469 281.25 Q24.0469 283.5 25.875 295.5234 Q27.7031 307.5469 28.125 308.3906 Q30.375 310.0781 34.5938 313.5938 Q36.9844 316.8281 42.4688 322.7344 Q44.4375 324.4219 51.6094 326.25 Q58.7812 328.0781 62.0156 328.0781 Q78.0469 328.0781 96.0469 323.5781 ZM161.5781 115.7344 Q159.75 118.5469 157.2188 118.5469 Q155.6719 118.5469 155.1094 117.9844 Q155.3906 116.4375 157.3594 115.5938 Q158.9062 115.1719 160.5938 114.6094 L161.5781 115.7344 ZM165.5156 119.6719 Q165.0938 121.2188 164.8125 122.7656 Q164.25 125.0156 162.2812 125.0156 Q160.7344 125.0156 160.7344 123.1875 Q160.7344 123.3281 163.5469 117.7031 L165.5156 119.6719 ZM159.4688 131.9062 Q159.4688 132.1875 155.25 136.4062 Q154.6875 135.8438 153.4219 134.8594 Q154.2656 133.1719 157.3594 130.3594 L159.4688 130.3594 L159.4688 131.9062 ZM148.2188 143.1562 L143.1562 148.0781 Q141.1875 147.0938 141.1875 146.1094 Q141.1875 144.8438 143.4375 143.5078 Q145.6875 142.1719 147.0938 142.0312 L148.2188 143.1562 ZM138.0938 150.3281 Q138.0938 150.75 134.1562 155.8125 L132.6094 155.8125 Q132.6094 155.3906 131.625 154.4062 L135.7031 150.3281 L138.0938 150.3281 ZM128.25 161.4375 Q127.125 162.2812 125.0156 164.1094 L122.7656 164.1094 Q122.2031 163.5469 122.2031 162.8438 Q122.2031 162 125.2969 158.9062 L127.6875 158.9062 Q127.9688 159.75 128.25 161.4375 ZM119.9531 168.0469 Q119.9531 169.5938 115.3125 172.2656 Q115.3125 172.125 114.8203 171.5625 Q114.3281 171 114.3281 170.4375 Q114.3281 169.875 118.4062 165.7969 Q119.9531 167.3438 119.9531 168.0469 ZM155.5312 208.9688 Q155.5312 211.3594 152.9297 213.9609 Q150.3281 216.5625 147.9375 216.5625 Q145.2656 216.5625 143.0156 214.3125 Q140.7656 212.0625 140.7656 209.3906 Q140.7656 207 143.5078 204.3984 Q146.25 201.7969 148.6406 201.7969 Q151.1719 201.7969 153.3516 204.1172 Q155.5312 206.4375 155.5312 208.9688 ZM111.2344 176.4844 Q110.6719 178.0312 107.7188 181.2656 Q107.1562 181.4062 106.5938 181.4062 Q105.8906 180.9844 104.7656 180 L109.2656 175.3594 Q110.1094 175.3594 111.2344 176.4844 ZM103.0781 185.2031 Q103.0781 185.9062 100.2656 188.7188 L97.875 188.7188 L97.875 186.3281 L100.9688 183.2344 L102.5156 183.2344 Q102.5156 183.375 102.7969 184.0078 Q103.0781 184.6406 103.0781 185.2031 ZM94.7812 194.2031 Q91.9688 199.125 90 199.125 L89.7188 199.125 Q89.7188 198.9844 89.4375 198.4922 Q89.1562 198 89.1562 197.4375 Q89.1562 196.875 93.2344 192.7969 L94.7812 194.2031 ZM87.0469 203.7656 Q85.7812 205.4531 81.9844 209.25 Q81.9844 209.1094 81.4922 208.6875 Q81 208.2656 81 207.7031 Q83.3906 202.2188 85.0781 202.2188 Q86.3438 202.2188 87.0469 203.7656 ZM75.2344 216.4219 Q73.8281 217.9688 70.875 220.5 L69.3281 220.5 L69.3281 218.3906 Q70.875 217.125 74.3906 214.875 Q74.3906 215.5781 75.2344 216.4219 ZM63.9844 222.8906 Q63.9844 224.7188 58.5 226.125 L57.0938 224.5781 Q58.6406 223.4531 61.5938 221.3438 L63 221.3438 Q63.9844 222.3281 63.9844 222.8906 ZM57.5156 218.5312 Q57.5156 221.0625 55.2656 222.6094 Q54.5625 222.6094 53.1562 221.2031 Q54 218.9531 56.9531 216.1406 Q56.9531 216.5625 57.2344 217.3359 Q57.5156 218.1094 57.5156 218.5312 Z" stroke="none"/>
    </g>
  </g>
</svg>