<?xml version="1.0" encoding="UTF-8"?>
<!DOCTYPE svg PUBLIC "-//W3C//DTD SVG 1.0//EN" "http://www.w3.org/TR/2001/REC-SVG-20010904/DTD/svg10.dtd">
<svg fill-opacity="1" xmlns:xlink="http://www.w3.org/1999/xlink" color-rendering="auto" color-interpolation="auto" stroke="black" text-rendering="auto" stroke-linecap="square" stroke-miterlimit="10" stroke-opacity="1" shape-rendering="auto" fill="black" stroke-dasharray="none" font-weight="normal" stroke-width="1" xmlns="http://www.w3.org/2000/svg" font-family="'Dialog'" font-style="normal" stroke-linejoin="miter" font-size="12" stroke-dashoffset="0" image-rendering="auto">
  <!--Unicode Character 'BASEBALL' (U+26BE)-->
  <defs id="genericDefs"/>
  <g>
    <g>
      <path d="M283.3594 206.1562 Q283.3594 263.8125 242.5078 304.6641 Q201.6562 345.5156 144 345.5156 Q86.3438 345.5156 45.4922 304.6641 Q4.6406 263.8125 4.6406 206.1562 Q4.6406 148.5 45.4922 107.6484 Q86.3438 66.7969 144 66.7969 Q201.6562 66.7969 242.5078 107.6484 Q283.3594 148.5 283.3594 206.1562 ZM276.4688 206.1562 Q276.4688 175.2188 262.9688 147.7969 Q249.8906 121.2188 226.6875 102.6562 Q217.4062 110.5312 209.8125 119.1094 L199.9688 110.5312 Q207.2812 102.0938 215.8594 94.9219 Q183.2344 73.6875 144 73.6875 Q104.7656 73.6875 72.1406 94.9219 Q80.7188 102.0938 88.0312 110.5312 L78.1875 119.1094 Q70.5938 110.5312 61.3125 102.6562 Q38.1094 121.2188 25.0312 147.7969 Q11.5312 175.2188 11.5312 206.1562 Q11.5312 237.0938 25.0312 264.5156 Q38.1094 291.0938 61.3125 309.6562 Q70.5938 301.7812 78.1875 293.2031 L88.0312 301.7812 Q80.7188 310.2188 72.1406 317.3906 Q104.7656 338.625 144 338.625 Q183.2344 338.625 215.8594 317.3906 Q207.2812 310.2188 199.9688 301.7812 L209.8125 293.2031 Q217.4062 301.7812 226.6875 309.6562 Q249.8906 291.0938 262.9688 264.5156 Q276.4688 237.0938 276.4688 206.1562 ZM200.25 131.3438 Q191.9531 143.1562 186.4688 156.0938 L174.7969 151.7344 Q180.9844 136.4062 190.4062 122.7656 L200.25 131.3438 ZM181.5469 170.7188 Q177.8906 184.0781 177.0469 198.4219 L164.3906 198.4219 Q165.375 181.9688 169.7344 166.3594 L181.5469 170.7188 ZM113.2031 151.7344 L101.5312 156.0938 Q96.0469 143.1562 87.75 131.3438 L97.5938 122.7656 Q107.0156 136.4062 113.2031 151.7344 ZM181.5469 241.5938 L169.7344 245.9531 Q165.375 230.3438 164.3906 213.8906 L177.0469 213.8906 Q177.8906 228.2344 181.5469 241.5938 ZM123.6094 198.4219 L110.9531 198.4219 Q110.1094 184.0781 106.4531 170.7188 L118.2656 166.3594 Q122.625 181.9688 123.6094 198.4219 ZM200.25 280.9688 L190.4062 289.5469 Q180.9844 275.9062 174.7969 260.5781 L186.4688 256.2188 Q191.9531 269.1562 200.25 280.9688 ZM123.6094 213.8906 Q122.625 230.3438 118.2656 245.9531 L106.4531 241.5938 Q110.1094 228.2344 110.9531 213.8906 L123.6094 213.8906 ZM113.2031 260.5781 Q107.0156 275.9062 97.5938 289.5469 L87.75 280.9688 Q96.0469 269.1562 101.5312 256.2188 L113.2031 260.5781 Z" stroke="none"/>
    </g>
  </g>
</svg>