<?xml version="1.0" encoding="UTF-8"?>
<!DOCTYPE svg PUBLIC "-//W3C//DTD SVG 1.0//EN" "http://www.w3.org/TR/2001/REC-SVG-20010904/DTD/svg10.dtd">
<svg fill-opacity="1" xmlns:xlink="http://www.w3.org/1999/xlink" color-rendering="auto" color-interpolation="auto" stroke="black" text-rendering="auto" stroke-linecap="square" stroke-miterlimit="10" stroke-opacity="1" shape-rendering="auto" fill="black" stroke-dasharray="none" font-weight="normal" stroke-width="1" xmlns="http://www.w3.org/2000/svg" font-family="'Dialog'" font-style="normal" stroke-linejoin="miter" font-size="12" stroke-dashoffset="0" image-rendering="auto">
  <!--Unicode Character 'BASKETBALL AND HOOP' (U+1F3C0)-->
  <defs id="genericDefs"/>
  <g>
    <g>
      <path d="M204.1875 128.25 Q204.1875 156.2344 181.6875 174.6562 Q178.0312 177.0469 170.8594 182.1094 Q169.1719 183.375 155.1094 215.5781 Q142.1719 245.3906 139.3594 253.2656 Q137.9531 259.7344 135 272.25 Q131.2031 287.1562 131.2031 301.3594 Q131.2031 306.2812 133.6641 316.2656 Q136.125 326.25 138.375 330.6094 L131.3438 332.8594 L123.4688 307.8281 L112.7812 323.0156 L119.3906 333.7031 L115.0312 335.9531 Q113.3438 333 109.8281 327.2344 Q107.2969 329.9062 101.9531 336.9375 L97.7344 333.1406 L106.0312 321.8906 L93.9375 299.8125 L81.4219 321.8906 L89.7188 333.1406 L85.5 336.9375 L78.0469 327.2344 Q75.7969 329.9062 72.4219 335.9531 L68.0625 333.7031 L74.8125 323.0156 L63.9844 307.8281 L56.1094 332.8594 L49.2188 330.6094 Q56.25 310.2188 56.25 301.3594 Q56.25 284.7656 48.5156 254.6719 Q48.5156 254.3906 42.6094 240.8906 Q11.5312 168.8906 11.5312 166.9219 Q11.5312 157.0781 27.4219 151.5938 Q38.9531 147.6562 59.625 145.9688 Q72.4219 145.125 85.3594 144.4219 Q82.6875 136.4062 82.6875 128.25 Q82.6875 103.5 100.6875 85.5 Q118.6875 67.5 143.4375 67.5 Q168.1875 67.5 186.1875 85.5 Q204.1875 103.5 204.1875 128.25 ZM186.8906 99.2812 Q185.4844 96.4688 179.2266 89.7891 Q172.9688 83.1094 170.4375 81.8438 Q159.3281 76.3594 152.4375 76.3594 Q151.4531 76.3594 145.9688 79.4531 Q138.375 83.6719 128.1094 96.75 Q117.8438 109.8281 110.5312 114.0469 Q111.0938 117 112.7812 120.9375 L114.75 120.9375 Q129.7969 110.9531 144.8438 105.75 Q152.8594 102.9375 169.875 100.125 Q174.9375 99.2812 173.5312 99.2812 L186.8906 99.2812 ZM140.9062 77.3438 Q125.1562 79.4531 114.1875 87.1875 Q108.7031 91.125 108.7031 98.0156 Q108.7031 102.7969 109.6875 108 Q110.25 108.5625 111.2344 108.5625 Q114.8906 105.75 120.9375 99.7031 Q130.6406 85.7812 140.9062 77.3438 ZM195.3281 132.0469 Q195.3281 110.25 190.4062 106.1719 Q186.75 103.2188 183.375 103.2188 Q169.0312 103.2188 156.0938 107.1562 Q152.0156 108 144.1406 110.5312 Q133.5938 115.0312 114.8906 125.4375 Q115.0312 127.2656 119.5312 135.9844 Q124.7344 132.8906 134.1562 132.8906 Q143.5781 132.8906 162.1406 138.4453 Q180.7031 144 190.125 144 Q191.3906 144 192.5156 143.8594 Q195.3281 141.1875 195.3281 132.0469 ZM190.4062 148.3594 Q191.25 148.3594 186.4688 148.3594 Q183.5156 148.3594 150.3281 140.0625 Q137.25 136.8281 136.8281 136.8281 L134.0156 136.8281 Q127.8281 136.8281 122.0625 139.6406 L122.0625 141.1875 Q135.8438 162.2812 146.8125 169.7344 Q148.3594 171 151.7344 172.9688 Q159.1875 175.7812 162.5625 175.7812 Q168.0469 175.7812 173.9531 171.1406 Q183.5156 163.5469 188.7188 153.5625 Q190.5469 149.9062 190.4062 148.3594 ZM106.0312 112.0781 L106.0312 110.5312 Q105.6094 108.9844 105.0469 106.7344 Q104.625 103.7812 104.625 98.7188 L104.625 95.3438 Q100.4062 99.8438 95.0625 111.0938 L96.0469 112.0781 Q99.5625 113.0625 101.25 113.0625 Q102.0938 113.0625 103.6406 112.5703 Q105.1875 112.0781 106.0312 112.0781 ZM108.7031 124.0312 Q108.2812 120.7969 106.4531 116.1562 Q103.7812 117.1406 100.2656 117.1406 Q96.8906 117.1406 93.375 116.2969 L91.5469 131.7656 Q91.125 134.8594 93.0938 140.3438 Q99.7031 127.6875 108.7031 124.0312 ZM154.6875 178.5938 Q146.9531 176.4844 136.8281 166.9219 Q128.25 158.625 123.0469 150.1875 Q118.4062 142.5938 117.4219 142.5938 Q116.1562 142.5938 113.7656 145.8984 Q111.375 149.2031 111.0938 150.75 Q110.9531 151.7344 110.9531 156.9375 Q110.9531 159.75 114.6094 167.2031 Q120.9375 179.7188 142.0312 179.7188 Q145.6875 179.7188 154.6875 178.5938 ZM114.8906 137.1094 Q114.8906 136.2656 110.8125 128.1094 Q106.5938 128.3906 101.25 135.9141 Q95.9062 143.4375 95.9062 147.9375 Q95.9062 153 103.6406 162.4219 Q105.4688 164.6719 109.9688 166.3594 Q109.9688 166.2188 107.5781 160.7344 Q106.5938 158.4844 106.5938 154.8281 Q106.5938 148.6406 107.4375 146.9531 Q107.8594 145.9688 111.375 141.75 Q114.8906 137.5312 114.8906 137.1094 ZM159.4688 186.8906 Q149.3438 189.4219 142.4531 189 L142.4531 226.9688 L159.4688 186.8906 ZM122.4844 185.2031 Q111.6562 181.125 104.4844 174.9375 L107.0156 186.75 L113.7656 186.75 Q115.3125 186.75 118.125 186.0469 Q121.5 185.3438 122.4844 185.2031 ZM101.25 187.1719 Q99.8438 180.1406 98.1562 172.8984 Q96.4688 165.6562 91.6875 160.3125 L85.7812 187.1719 L101.25 187.1719 ZM120.6562 193.5 Q108.4219 193.5 108.4219 193.5 L112.5 215.0156 L120.6562 193.5 ZM136.9688 233.0156 L136.9688 190.4062 Q133.875 190.8281 127.8281 191.8125 Q121.7812 207 115.875 222.6094 L124.875 249.0469 Q136.9688 234.5625 136.9688 233.0156 ZM87.4688 151.875 L74.5312 151.875 Q72.1406 151.875 51.75 154.2656 Q55.5469 164.3906 63 184.7812 Q74.9531 186.75 74.1094 186.75 L80.4375 186.75 L87.4688 151.875 ZM56.5312 182.6719 L50.625 167.7656 L50.625 182.8125 Q51.1875 182.6719 56.5312 182.6719 ZM134.7188 243.7031 Q131.9062 247.5 126.8438 255.2344 L130.2188 268.0312 Q130.9219 259.7344 134.7188 243.7031 ZM107.8594 221.2031 L102.9375 194.7656 L84.5156 194.7656 L79.5938 221.2031 Q81.5625 227.5312 86.2031 236.6719 Q93.7969 251.5781 93.7969 251.7188 Q99.1406 241.7344 107.8594 221.2031 ZM79.0312 193.5 Q78.4688 193.6406 68.2031 193.5 L66.7969 193.5 L74.9531 215.0156 L79.0312 193.5 ZM45.5625 180.9844 L45.5625 154.5469 Q19.9688 160.5938 19.9688 167.3438 Q19.9688 176.0625 45.5625 180.9844 ZM120.2344 252.9844 L111.6562 226.9688 L95.9062 257.2031 L106.3125 275.9062 L120.2344 252.9844 ZM71.7188 222.4688 Q67.6406 212.2031 59.625 191.8125 Q56.5312 191.3906 50.4844 190.4062 L50.4844 232.875 Q50.4844 234.8438 62.5781 249.0469 L71.7188 222.4688 ZM127.6875 275.3438 Q126.2812 269.4375 122.625 259.5938 L109.6875 280.6875 L124.4531 296.7188 L127.6875 275.3438 ZM45 226.9688 L45 189 Q40.9219 188.4375 25.7344 183.375 L45 226.9688 ZM91.5469 257.2031 L75.7969 226.9688 L67.2188 252.9844 L81.1406 275.9062 L91.5469 257.2031 ZM103.5 279.7031 Q99.7031 273.6562 93.5156 265.7812 L83.9531 279.7031 L93.9375 293.2031 L103.5 279.7031 ZM120.2344 301.3594 L106.3125 283.5 L98.5781 296.4375 L109.8281 318.375 L120.2344 301.3594 ZM60.6094 255.2344 Q57.9375 251.4375 52.7344 243.7031 Q53.2969 245.25 57.2344 268.0312 L60.6094 255.2344 ZM77.7656 280.6875 L64.8281 259.5938 Q63 264.7969 59.7656 275.3438 L63 296.7188 L77.7656 280.6875 ZM88.875 296.4375 Q84.6562 289.4062 80.7188 283.5 L67.2188 301.3594 L77.2031 318.375 L88.875 296.4375 Z" stroke="none"/>
    </g>
  </g>
</svg>