<?xml version="1.0" encoding="UTF-8"?>
<svg xmlns="http://www.w3.org/2000/svg" xmlns:xlink="http://www.w3.org/1999/xlink" width="35pt" height="25pt" viewBox="0 0 35 25" version="1.1">
<g id="surface1">
<path style=" stroke:none;fill-rule:evenodd;fill:rgb(70.980392%,61.176471%,47.843137%);fill-opacity:1;" d="M 18.34375 0 L 26.9375 9.113281 L 18.34375 25 L 9.75 9.113281 Z M 18.34375 0 "/>
<path style=" stroke:none;fill-rule:evenodd;fill:rgb(100%,100%,100%);fill-opacity:1;" d="M 18.34375 1.042969 L 10.792969 9.113281 L 18.34375 15.625 L 25.894531 9.113281 Z M 18.34375 1.042969 "/>
<path style=" stroke:none;fill-rule:evenodd;fill:rgb(80.784314%,0%,0%);fill-opacity:1;" d="M 18.34375 2.605469 C 15.832031 4.863281 17.457031 7.605469 17.457031 8.28125 C 17.457031 8.28125 16.15625 6.457031 16.15625 6.355469 C 16.148438 6.328125 16.121094 6.234375 16.109375 6.210938 C 16.109375 6.207031 16.105469 6.203125 16.105469 6.199219 C 16.101562 6.195312 16.101562 6.195312 16.101562 6.195312 C 16.097656 6.195312 16.097656 6.191406 16.097656 6.1875 C 16.132812 6.171875 16.15625 6.136719 16.15625 6.09375 C 16.15625 6.035156 16.109375 5.988281 16.050781 5.988281 C 16.003906 5.988281 15.960938 6.023438 15.953125 6.066406 C 15.910156 6.050781 15.863281 6.042969 15.816406 6.042969 C 15.769531 6.042969 15.726562 6.050781 15.683594 6.066406 C 15.671875 6.023438 15.632812 5.988281 15.582031 5.988281 C 15.527344 5.988281 15.480469 6.035156 15.480469 6.09375 C 15.480469 6.136719 15.503906 6.171875 15.539062 6.1875 C 15.5 6.242188 15.480469 6.308594 15.480469 6.378906 C 15.480469 6.4375 15.492188 6.488281 15.515625 6.535156 C 15.492188 6.554688 15.480469 6.582031 15.480469 6.613281 C 15.480469 6.671875 15.527344 6.71875 15.582031 6.71875 C 15.617188 6.71875 15.644531 6.703125 15.664062 6.679688 C 15.699219 6.699219 15.800781 6.714844 15.84375 6.71875 C 16.207031 6.925781 17.042969 8.019531 17.457031 9.0625 C 17.355469 9.0625 17.199219 8.90625 17.199219 8.90625 C 15.894531 7.34375 14.332031 6.980469 13.550781 8.800781 C 13.550781 8.800781 13.03125 9.582031 14.332031 10.105469 C 14.800781 10.207031 15.269531 10.261719 16.050781 10.988281 C 16.3125 10.417969 15.167969 8.800781 15.636719 9.0625 C 16.050781 9.167969 17.667969 9.6875 17.71875 11.667969 C 17.71875 11.667969 17.300781 11.667969 16.9375 11.667969 C 16.9375 11.796875 16.9375 11.925781 16.9375 11.925781 C 16.9375 11.925781 17.71875 11.925781 17.71875 11.925781 C 17.71875 11.925781 17.613281 12.761719 17.199219 12.96875 C 17.355469 13.074219 17.71875 12.96875 17.71875 12.96875 C 17.71875 14.269531 19.019531 14.269531 19.019531 12.96875 C 19.019531 12.96875 19.386719 13.074219 19.542969 12.96875 C 19.125 12.761719 19.019531 11.925781 19.019531 11.925781 C 19.019531 11.925781 19.800781 11.925781 19.800781 11.925781 C 19.800781 11.925781 19.800781 11.796875 19.800781 11.667969 C 19.4375 11.667969 19.019531 11.667969 19.019531 11.667969 C 19.074219 9.6875 20.6875 9.167969 21.105469 9.0625 C 21.574219 8.800781 20.375 10.417969 20.636719 10.988281 C 21.417969 10.261719 21.9375 10.207031 22.40625 10.105469 C 23.707031 9.582031 23.1875 8.800781 23.1875 8.800781 C 22.40625 6.980469 20.792969 7.34375 19.488281 8.90625 C 19.488281 8.90625 19.332031 9.0625 19.230469 9.0625 C 19.644531 8.019531 20.480469 6.925781 20.84375 6.71875 C 20.886719 6.714844 20.988281 6.699219 21.023438 6.679688 C 21.042969 6.703125 21.070312 6.71875 21.105469 6.71875 C 21.160156 6.71875 21.207031 6.671875 21.207031 6.613281 C 21.207031 6.582031 21.195312 6.554688 21.171875 6.535156 C 21.195312 6.488281 21.207031 6.4375 21.207031 6.378906 C 21.207031 6.308594 21.1875 6.242188 21.148438 6.1875 C 21.183594 6.171875 21.207031 6.136719 21.207031 6.09375 C 21.207031 6.035156 21.160156 5.988281 21.105469 5.988281 C 21.054688 5.988281 21.015625 6.023438 21.003906 6.066406 C 20.960938 6.050781 20.917969 6.042969 20.871094 6.042969 C 20.824219 6.042969 20.777344 6.050781 20.738281 6.066406 C 20.726562 6.023438 20.683594 5.988281 20.636719 5.988281 C 20.578125 5.988281 20.53125 6.035156 20.53125 6.09375 C 20.53125 6.136719 20.554688 6.171875 20.589844 6.1875 C 20.589844 6.191406 20.589844 6.195312 20.585938 6.195312 C 20.585938 6.195312 20.585938 6.195312 20.582031 6.199219 C 20.582031 6.203125 20.578125 6.207031 20.578125 6.210938 C 20.566406 6.234375 20.539062 6.328125 20.53125 6.355469 C 20.53125 6.457031 19.28125 8.28125 19.28125 8.28125 C 19.28125 7.605469 20.855469 4.863281 18.34375 2.605469 Z M 18.34375 2.605469 "/>
<path style=" stroke:none;fill-rule:evenodd;fill:rgb(25.882353%,3.921569%,57.254902%);fill-opacity:1;" d="M 11.574219 10.9375 L 18.34375 16.667969 L 25.113281 10.9375 L 18.34375 23.699219 Z M 11.574219 10.9375 "/>
<path style=" stroke:none;fill-rule:nonzero;fill:rgb(98.039216%,98.039216%,100%);fill-opacity:1;" d="M 16.832031 16.71875 L 16.105469 18.4375 L 16.730469 18.4375 L 16.832031 18.125 L 17.300781 18.125 L 17.40625 18.4375 L 18.082031 18.4375 L 17.355469 16.71875 Z M 17.09375 17.292969 L 17.25 17.8125 L 16.9375 17.8125 Z M 17.09375 17.292969 "/>
<path style=" stroke:none;fill-rule:evenodd;fill:rgb(98.039216%,98.039216%,100%);fill-opacity:1;" d="M 19.753906 16.667969 C 19.246094 16.667969 18.828125 17.074219 18.828125 17.574219 C 18.828125 18.074219 19.246094 18.480469 19.753906 18.480469 C 20.125 18.480469 20.4375 18.277344 20.582031 17.96875 L 20.113281 17.8125 C 20.113281 17.8125 20.011719 18.019531 19.75 18.019531 C 19.59375 18.019531 19.332031 17.886719 19.332031 17.574219 C 19.332031 17.261719 19.59375 17.136719 19.75 17.136719 C 20.011719 17.136719 20.113281 17.34375 20.113281 17.34375 L 20.582031 17.1875 C 20.460938 16.828125 20.164062 16.667969 19.753906 16.667969 Z M 19.753906 16.667969 "/>
<path style=" stroke:none;fill-rule:evenodd;fill:rgb(83.137255%,0.784314%,1.960784%);fill-opacity:1;" d="M 17.824219 19.0625 L 19.074219 19.0625 L 19.074219 19.53125 L 18.34375 19.53125 L 18.34375 19.738281 L 18.96875 19.738281 L 18.96875 20.15625 L 18.34375 20.15625 L 18.34375 20.78125 L 17.824219 20.78125 Z M 17.824219 19.0625 "/>
</g>
</svg>
