<?xml version="1.0" encoding="UTF-8"?>
<svg xmlns="http://www.w3.org/2000/svg" xmlns:xlink="http://www.w3.org/1999/xlink" width="35pt" height="25pt" viewBox="0 0 35 25" version="1.1">
<g id="surface1">
<path style=" stroke:none;fill-rule:nonzero;fill:rgb(100%,100%,100%);fill-opacity:1;" d="M 25.207031 12.496094 C 25.207031 19.363281 21.832031 24.929688 17.667969 24.929688 C 13.503906 24.929688 10.125 19.363281 10.125 12.496094 C 10.125 5.628906 13.503906 0.0625 17.667969 0.0625 C 21.832031 0.0625 25.207031 5.628906 25.207031 12.496094 Z M 25.207031 12.496094 "/>
<path style=" stroke:none;fill-rule:nonzero;fill:rgb(0%,44.313725%,73.72549%);fill-opacity:1;" d="M 16.898438 0.0859375 C 18.023438 -0.109375 19.207031 0.121094 20.191406 0.679688 C 21.441406 1.371094 22.40625 2.46875 23.148438 3.660156 C 23.402344 4.066406 23.628906 4.492188 23.839844 4.929688 C 23.359375 5.507812 22.878906 6.085938 22.398438 6.660156 C 21.167969 5.667969 19.605469 5.078125 18.015625 5.019531 C 16.472656 4.957031 14.910156 5.390625 13.625 6.242188 C 12.230469 7.148438 11.164062 8.535156 10.65625 10.105469 C 10.160156 11.597656 10.175781 13.25 10.703125 14.734375 C 11.140625 16.003906 11.953125 17.132812 12.992188 17.996094 C 12.480469 18.605469 11.972656 19.226562 11.460938 19.835938 C 10.570312 17.832031 10.125 15.652344 10.019531 13.472656 C 9.890625 10.472656 10.367188 7.40625 11.703125 4.691406 C 12.25 3.59375 12.945312 2.554688 13.84375 1.703125 C 14.683594 0.90625 15.734375 0.28125 16.898438 0.0859375 Z M 16.898438 0.0859375 "/>
<path style=" stroke:none;fill-rule:nonzero;fill:rgb(100%,100%,100%);fill-opacity:1;" d="M 18.230469 2.714844 C 18.347656 2.722656 18.460938 2.730469 18.574219 2.742188 C 18.742188 3.339844 18.894531 3.941406 19.058594 4.539062 C 18.925781 4.527344 18.796875 4.515625 18.667969 4.503906 C 18.628906 4.347656 18.589844 4.1875 18.558594 4.027344 C 18.371094 4.003906 18.179688 3.988281 17.992188 3.976562 C 17.925781 4.125 17.855469 4.273438 17.789062 4.421875 C 17.660156 4.414062 17.535156 4.402344 17.40625 4.390625 C 17.683594 3.832031 17.957031 3.273438 18.230469 2.714844 Z M 18.230469 2.714844 "/>
<path style=" stroke:none;fill-rule:nonzero;fill:rgb(100%,100%,100%);fill-opacity:1;" d="M 16.011719 2.816406 C 16.128906 2.800781 16.246094 2.785156 16.363281 2.769531 C 16.425781 3.238281 16.480469 3.707031 16.542969 4.175781 C 16.816406 4.148438 17.089844 4.113281 17.363281 4.082031 C 17.378906 4.191406 17.386719 4.300781 17.398438 4.414062 C 17.007812 4.449219 16.617188 4.503906 16.226562 4.546875 C 16.152344 3.972656 16.082031 3.394531 16.011719 2.816406 Z M 16.011719 2.816406 "/>
<path style=" stroke:none;fill-rule:nonzero;fill:rgb(100%,100%,100%);fill-opacity:1;" d="M 19.101562 4.507812 C 19.273438 3.949219 19.445312 3.394531 19.605469 2.835938 C 19.726562 2.867188 19.84375 2.90625 19.964844 2.9375 C 20.085938 3.367188 20.195312 3.796875 20.324219 4.226562 C 20.429688 3.863281 20.535156 3.5 20.652344 3.140625 C 20.761719 3.171875 20.875 3.203125 20.988281 3.238281 C 20.820312 3.796875 20.648438 4.355469 20.480469 4.914062 C 20.363281 4.878906 20.25 4.847656 20.136719 4.8125 C 20.019531 4.378906 19.894531 3.949219 19.769531 3.515625 C 19.664062 3.878906 19.550781 4.246094 19.4375 4.609375 C 19.328125 4.574219 19.214844 4.542969 19.101562 4.507812 Z M 19.101562 4.507812 "/>
<path style=" stroke:none;fill-rule:nonzero;fill:rgb(100%,100%,100%);fill-opacity:1;" d="M 14.75 3.171875 C 14.859375 3.140625 14.96875 3.109375 15.082031 3.078125 C 15.449219 3.582031 15.8125 4.085938 16.179688 4.589844 C 16.054688 4.621094 15.929688 4.65625 15.804688 4.695312 C 15.707031 4.554688 15.613281 4.417969 15.515625 4.285156 C 15.335938 4.335938 15.15625 4.386719 14.976562 4.4375 C 14.964844 4.597656 14.976562 4.765625 14.933594 4.921875 C 14.828125 4.976562 14.703125 4.996094 14.585938 5.027344 C 14.640625 4.410156 14.691406 3.789062 14.75 3.171875 Z M 14.75 3.171875 "/>
<path style=" stroke:none;fill-rule:nonzero;fill:rgb(0%,44.705882%,73.72549%);fill-opacity:1;" d="M 18.140625 3.65625 C 18.210938 3.515625 18.28125 3.375 18.347656 3.238281 C 18.386719 3.386719 18.421875 3.535156 18.457031 3.6875 C 18.351562 3.675781 18.246094 3.664062 18.140625 3.65625 Z M 18.140625 3.65625 "/>
<path style=" stroke:none;fill-rule:nonzero;fill:rgb(100%,100%,100%);fill-opacity:1;" d="M 21 3.578125 C 21.046875 3.476562 21.09375 3.378906 21.144531 3.277344 C 21.585938 3.484375 22.027344 3.6875 22.472656 3.886719 C 22.425781 3.988281 22.378906 4.085938 22.332031 4.183594 C 22.164062 4.113281 21.996094 4.039062 21.828125 3.960938 C 21.628906 4.386719 21.425781 4.816406 21.222656 5.242188 C 21.117188 5.195312 21.003906 5.148438 20.898438 5.097656 C 21.09375 4.667969 21.300781 4.238281 21.503906 3.808594 C 21.335938 3.734375 21.167969 3.65625 21 3.578125 Z M 21 3.578125 "/>
<path style=" stroke:none;fill-rule:nonzero;fill:rgb(100%,100%,100%);fill-opacity:1;" d="M 12.765625 3.984375 C 13.207031 3.78125 13.652344 3.578125 14.097656 3.371094 C 14.144531 3.472656 14.191406 3.574219 14.238281 3.671875 C 14.070312 3.75 13.902344 3.828125 13.734375 3.902344 C 13.9375 4.332031 14.144531 4.761719 14.339844 5.191406 C 14.230469 5.242188 14.121094 5.289062 14.011719 5.335938 C 13.816406 4.90625 13.609375 4.480469 13.410156 4.050781 C 13.242188 4.128906 13.078125 4.207031 12.910156 4.28125 C 12.859375 4.183594 12.8125 4.082031 12.765625 3.984375 Z M 12.765625 3.984375 "/>
<path style=" stroke:none;fill-rule:nonzero;fill:rgb(0%,44.313725%,73.72549%);fill-opacity:1;" d="M 15.039062 3.613281 C 15.128906 3.746094 15.21875 3.875 15.308594 4.003906 C 15.207031 4.03125 15.105469 4.054688 15.007812 4.082031 C 15.019531 3.925781 15.03125 3.769531 15.039062 3.613281 Z M 15.039062 3.613281 "/>
<path style=" stroke:none;fill-rule:nonzero;fill:rgb(100%,100%,100%);fill-opacity:1;" d="M 21.332031 5.257812 C 21.851562 4.902344 22.359375 4.53125 22.878906 4.175781 C 22.972656 4.238281 23.070312 4.304688 23.164062 4.367188 C 23.011719 4.96875 22.859375 5.570312 22.707031 6.171875 C 22.597656 6.101562 22.492188 6.027344 22.382812 5.953125 C 22.429688 5.796875 22.472656 5.636719 22.515625 5.480469 C 22.359375 5.378906 22.207031 5.277344 22.054688 5.171875 C 21.917969 5.273438 21.78125 5.371094 21.644531 5.46875 C 21.542969 5.398438 21.4375 5.328125 21.332031 5.257812 Z M 21.332031 5.257812 "/>
<path style=" stroke:none;fill-rule:nonzero;fill:rgb(100%,100%,100%);fill-opacity:1;" d="M 12.074219 4.496094 C 12.171875 4.433594 12.269531 4.375 12.367188 4.3125 C 12.863281 4.691406 13.371094 5.0625 13.871094 5.433594 C 13.757812 5.503906 13.648438 5.578125 13.535156 5.644531 C 13.40625 5.542969 13.277344 5.441406 13.148438 5.339844 C 12.992188 5.4375 12.835938 5.539062 12.679688 5.636719 C 12.71875 5.800781 12.753906 5.960938 12.792969 6.121094 C 12.691406 6.191406 12.585938 6.257812 12.476562 6.324219 C 12.347656 5.714844 12.203125 5.109375 12.074219 4.496094 Z M 12.074219 4.496094 "/>
<path style=" stroke:none;fill-rule:nonzero;fill:rgb(0%,44.705882%,73.72549%);fill-opacity:1;" d="M 22.339844 4.964844 C 22.464844 4.875 22.589844 4.78125 22.71875 4.695312 C 22.679688 4.839844 22.640625 4.988281 22.597656 5.132812 C 22.511719 5.074219 22.425781 5.019531 22.339844 4.964844 Z M 22.339844 4.964844 "/>
<path style=" stroke:none;fill-rule:nonzero;fill:rgb(0%,44.313725%,73.333333%);fill-opacity:1;" d="M 12.488281 4.84375 C 12.609375 4.9375 12.734375 5.03125 12.855469 5.125 C 12.769531 5.183594 12.683594 5.242188 12.597656 5.300781 C 12.5625 5.148438 12.523438 4.996094 12.488281 4.84375 Z M 12.488281 4.84375 "/>
<path style=" stroke:none;fill-rule:nonzero;fill:rgb(13.72549%,12.156863%,12.54902%);fill-opacity:1;" d="M 22.628906 6.851562 C 23.074219 6.308594 23.523438 5.769531 23.976562 5.230469 C 25.199219 8.011719 25.585938 11.101562 25.363281 14.109375 C 25.183594 16.347656 24.640625 18.574219 23.601562 20.578125 C 22.828125 22.054688 21.757812 23.449219 20.285156 24.304688 C 19.496094 24.761719 18.582031 25.039062 17.660156 25.015625 C 16.453125 25.019531 15.292969 24.511719 14.359375 23.777344 C 13.148438 22.816406 12.257812 21.511719 11.597656 20.136719 C 12.136719 19.480469 12.683594 18.832031 13.222656 18.175781 C 14.46875 19.125 16.035156 19.667969 17.609375 19.679688 C 19.007812 19.710938 20.410156 19.324219 21.597656 18.601562 C 22.761719 17.894531 23.726562 16.867188 24.347656 15.664062 C 24.941406 14.511719 25.222656 13.199219 25.140625 11.910156 C 25.03125 9.980469 24.101562 8.121094 22.628906 6.851562 Z M 22.628906 6.851562 "/>
<path style=" stroke:none;fill-rule:nonzero;fill:rgb(0%,44.313725%,73.72549%);fill-opacity:1;" d="M 15.027344 6.273438 C 16.242188 5.738281 17.625 5.589844 18.933594 5.820312 C 20.035156 6.023438 21.089844 6.496094 21.953125 7.203125 C 21.554688 7.679688 21.15625 8.160156 20.757812 8.640625 C 20.425781 8.566406 20.097656 8.472656 19.785156 8.339844 C 18.9375 7.953125 18.019531 7.746094 17.101562 7.597656 C 16.796875 7.558594 16.492188 7.484375 16.183594 7.515625 C 15.597656 7.585938 15.050781 8.066406 15.023438 8.667969 C 15.019531 8.882812 14.8125 8.992188 14.691406 9.140625 C 14.421875 9.460938 14.136719 9.78125 13.953125 10.160156 C 13.882812 10.410156 13.886719 10.703125 13.6875 10.898438 C 13.292969 11.3125 12.921875 11.746094 12.515625 12.140625 C 12.460938 12.214844 12.46875 12.316406 12.503906 12.394531 C 12.605469 12.542969 12.78125 12.632812 12.875 12.785156 C 12.9375 12.9375 12.902344 13.109375 12.890625 13.265625 C 12.804688 13.34375 12.757812 13.441406 12.761719 13.554688 C 12.8125 13.566406 12.914062 13.59375 12.964844 13.609375 C 12.910156 13.609375 12.800781 13.601562 12.746094 13.601562 C 12.808594 13.972656 12.855469 14.417969 12.585938 14.726562 C 12.492188 14.960938 12.734375 15.148438 12.917969 15.25 C 13.515625 15.5625 14.199219 15.660156 14.863281 15.742188 C 14.386719 16.3125 13.914062 16.882812 13.441406 17.453125 C 12.207031 16.457031 11.359375 15.011719 11.097656 13.460938 C 10.882812 12.214844 11.035156 10.90625 11.542969 9.746094 C 12.203125 8.210938 13.472656 6.941406 15.027344 6.273438 Z M 15.027344 6.273438 "/>
<path style=" stroke:none;fill-rule:nonzero;fill:rgb(13.72549%,12.156863%,12.54902%);fill-opacity:1;" d="M 21.09375 8.695312 C 21.457031 8.261719 21.816406 7.824219 22.179688 7.390625 C 22.515625 7.703125 22.84375 8.027344 23.109375 8.398438 C 22.519531 8.785156 21.769531 8.785156 21.09375 8.695312 Z M 21.09375 8.695312 "/>
<path style=" stroke:none;fill-rule:nonzero;fill:rgb(13.72549%,12.156863%,12.54902%);fill-opacity:1;" d="M 16.597656 8.550781 C 17.394531 8.367188 18.242188 8.414062 19.019531 8.664062 C 19.5 8.804688 19.96875 8.972656 20.410156 9.203125 C 21.304688 9.597656 22.324219 9.832031 23.292969 9.609375 C 23.136719 9.992188 22.699219 10.140625 22.316406 10.183594 C 21.40625 10.277344 20.496094 10.023438 19.6875 9.621094 C 19.195312 9.34375 18.667969 9.132812 18.128906 8.957031 C 17.335938 8.71875 16.441406 8.738281 15.6875 9.097656 C 15.867188 8.773438 16.257812 8.648438 16.597656 8.550781 Z M 16.597656 8.550781 "/>
<path style=" stroke:none;fill-rule:nonzero;fill:rgb(13.72549%,12.156863%,12.54902%);fill-opacity:1;" d="M 16.105469 10.296875 C 16.222656 9.894531 16.664062 9.730469 17.046875 9.675781 C 17.953125 9.554688 18.878906 9.761719 19.714844 10.105469 C 20.3125 10.386719 20.945312 10.589844 21.59375 10.734375 C 22.335938 10.867188 23.144531 10.800781 23.8125 10.429688 C 23.664062 10.789062 23.246094 10.933594 22.898438 11.039062 C 22.246094 11.207031 21.554688 11.222656 20.894531 11.101562 C 20.261719 10.96875 19.632812 10.804688 19.039062 10.550781 C 18.109375 10.214844 17.074219 10.027344 16.105469 10.296875 Z M 16.105469 10.296875 "/>
<path style=" stroke:none;fill-rule:nonzero;fill:rgb(13.72549%,12.156863%,12.54902%);fill-opacity:1;" d="M 23.96875 11.191406 C 24.050781 11.101562 24.078125 10.984375 24.097656 10.871094 L 24.140625 10.867188 C 24.167969 11.300781 23.875 11.675781 23.527344 11.90625 C 22.894531 12.328125 22.117188 12.476562 21.363281 12.492188 C 20.660156 12.488281 19.941406 12.367188 19.320312 12.03125 C 19.0625 11.898438 18.867188 11.664062 18.585938 11.5625 C 17.863281 11.277344 17.066406 11.242188 16.300781 11.289062 C 16.367188 11.203125 16.445312 11.117188 16.550781 11.074219 C 16.851562 10.941406 17.1875 10.921875 17.511719 10.917969 C 18.308594 10.945312 19.113281 11.113281 19.8125 11.496094 C 20.050781 11.660156 20.332031 11.730469 20.613281 11.789062 C 21.398438 11.949219 22.226562 11.933594 23 11.722656 C 23.355469 11.621094 23.726562 11.476562 23.96875 11.191406 Z M 23.96875 11.191406 "/>
<path style=" stroke:none;fill-rule:nonzero;fill:rgb(13.72549%,12.156863%,12.54902%);fill-opacity:1;" d="M 24.054688 12.257812 C 24.082031 12.167969 24.136719 12.085938 24.195312 12.011719 C 24.292969 12.429688 23.992188 12.8125 23.65625 13.027344 C 22.949219 13.484375 22.082031 13.617188 21.25 13.617188 C 20.433594 13.585938 19.554688 13.429688 18.929688 12.867188 C 18.449219 12.535156 17.835938 12.449219 17.261719 12.480469 C 17.734375 12.195312 18.339844 12.167969 18.859375 12.328125 C 19.101562 12.398438 19.273438 12.59375 19.503906 12.691406 C 19.851562 12.847656 20.222656 12.933594 20.601562 12.992188 C 21.253906 13.085938 21.921875 13.082031 22.570312 12.984375 C 22.964844 12.921875 23.359375 12.824219 23.707031 12.628906 C 23.855469 12.542969 24.003906 12.425781 24.054688 12.257812 Z M 24.054688 12.257812 "/>
<path style=" stroke:none;fill-rule:nonzero;fill:rgb(13.72549%,12.156863%,12.54902%);fill-opacity:1;" d="M 22.128906 14.15625 C 22.898438 14.097656 23.597656 13.742188 24.269531 13.398438 C 23.929688 13.949219 23.304688 14.261719 22.695312 14.4375 C 21.742188 14.699219 20.699219 14.683594 19.769531 14.351562 C 19.441406 14.238281 19.164062 14.03125 18.839844 13.914062 C 18.476562 13.777344 18.089844 13.699219 17.703125 13.667969 C 18.296875 13.503906 18.960938 13.488281 19.542969 13.710938 C 20.3125 14.171875 21.253906 14.238281 22.128906 14.15625 Z M 22.128906 14.15625 "/>
<path style=" stroke:none;fill-rule:nonzero;fill:rgb(13.72549%,12.156863%,12.54902%);fill-opacity:1;" d="M 19.035156 14.546875 C 20.570312 15.324219 22.472656 15.449219 24.054688 14.742188 C 23.46875 15.425781 22.585938 15.855469 21.675781 15.859375 C 20.644531 15.886719 19.636719 15.367188 19.035156 14.546875 Z M 19.035156 14.546875 "/>
<path style=" stroke:none;fill-rule:nonzero;fill:rgb(13.72549%,12.156863%,12.54902%);fill-opacity:1;" d="M 23.246094 15.742188 C 23.328125 15.742188 23.410156 15.742188 23.492188 15.742188 C 22.789062 16.898438 21.722656 17.84375 20.472656 18.398438 C 19.191406 18.972656 17.722656 19.128906 16.34375 18.839844 C 15.378906 18.640625 14.460938 18.222656 13.675781 17.636719 C 14.167969 17.035156 14.667969 16.441406 15.160156 15.839844 C 15.320312 15.925781 15.472656 16.023438 15.585938 16.164062 C 16.304688 16.996094 16.953125 17.886719 17.570312 18.792969 C 18.890625 18.8125 20.21875 18.445312 21.3125 17.710938 C 22.089844 17.203125 22.746094 16.519531 23.246094 15.742188 Z M 23.246094 15.742188 "/>
<path style=" stroke:none;fill-rule:nonzero;fill:rgb(100%,100%,100%);fill-opacity:1;" d="M 19.328125 20.113281 C 19.820312 19.976562 20.308594 19.839844 20.800781 19.699219 C 20.828125 19.800781 20.855469 19.902344 20.886719 20.007812 C 20.589844 20.59375 20.484375 21.273438 20.574219 21.921875 C 20.4375 21.957031 20.304688 21.996094 20.171875 22.035156 C 20.070312 21.417969 20.199219 20.789062 20.414062 20.210938 C 20.089844 20.300781 19.761719 20.390625 19.4375 20.484375 C 19.398438 20.359375 19.363281 20.238281 19.328125 20.113281 Z M 19.328125 20.113281 "/>
<path style=" stroke:none;fill-rule:nonzero;fill:rgb(100%,100%,100%);fill-opacity:1;" d="M 15.085938 19.761719 C 15.1875 19.792969 15.289062 19.824219 15.390625 19.855469 C 15.171875 20.527344 14.960938 21.199219 14.738281 21.871094 C 14.609375 21.832031 14.476562 21.789062 14.347656 21.75 C 14.488281 21.304688 14.636719 20.859375 14.777344 20.414062 C 14.628906 20.367188 14.480469 20.320312 14.332031 20.273438 C 14.367188 20.171875 14.398438 20.066406 14.433594 19.960938 C 14.558594 19.984375 14.6875 20.023438 14.816406 20.011719 C 14.949219 19.988281 15.007812 19.855469 15.085938 19.761719 Z M 15.085938 19.761719 "/>
<path style=" stroke:none;fill-rule:nonzero;fill:rgb(100%,100%,100%);fill-opacity:1;" d="M 15.859375 20.390625 C 16.167969 19.988281 16.914062 20.097656 17.085938 20.570312 C 17.199219 20.882812 17.15625 21.226562 17.074219 21.542969 C 16.988281 21.839844 16.828125 22.167969 16.507812 22.273438 C 16.21875 22.355469 15.855469 22.273438 15.695312 22.007812 C 15.605469 21.871094 15.601562 21.707031 15.613281 21.554688 C 15.742188 21.570312 15.867188 21.585938 15.996094 21.601562 C 15.988281 21.757812 16.050781 21.957031 16.246094 21.953125 C 16.488281 21.984375 16.59375 21.726562 16.671875 21.546875 C 16.410156 21.628906 16.097656 21.609375 15.890625 21.417969 C 15.609375 21.15625 15.632812 20.679688 15.859375 20.390625 Z M 15.859375 20.390625 "/>
<path style=" stroke:none;fill-rule:nonzero;fill:rgb(100%,100%,100%);fill-opacity:1;" d="M 18.144531 20.25 C 18.382812 20.175781 18.671875 20.210938 18.851562 20.390625 C 19.070312 20.605469 19.132812 20.917969 19.164062 21.207031 C 19.183594 21.515625 19.167969 21.855469 18.980469 22.117188 C 18.742188 22.460938 18.152344 22.472656 17.902344 22.132812 C 17.675781 21.828125 17.636719 21.429688 17.652344 21.0625 C 17.667969 20.742188 17.796875 20.359375 18.144531 20.25 Z M 18.144531 20.25 "/>
<path style=" stroke:none;fill-rule:nonzero;fill:rgb(13.72549%,12.156863%,12.54902%);fill-opacity:1;" d="M 16.304688 20.527344 C 16.480469 20.453125 16.730469 20.578125 16.738281 20.777344 C 16.753906 20.953125 16.691406 21.195312 16.488281 21.234375 C 16.34375 21.257812 16.160156 21.203125 16.105469 21.054688 C 16.054688 20.867188 16.105469 20.613281 16.304688 20.527344 Z M 16.304688 20.527344 "/>
<path style=" stroke:none;fill-rule:nonzero;fill:rgb(13.72549%,12.156863%,12.54902%);fill-opacity:1;" d="M 18.292969 20.589844 C 18.507812 20.515625 18.660156 20.726562 18.695312 20.90625 C 18.765625 21.203125 18.800781 21.53125 18.695312 21.828125 C 18.636719 22.003906 18.382812 22.085938 18.25 21.941406 C 18.070312 21.710938 18.0625 21.398438 18.054688 21.117188 C 18.070312 20.929688 18.089844 20.671875 18.292969 20.589844 Z M 18.292969 20.589844 "/>
</g>
</svg>
