<?xml version="1.0" encoding="UTF-8"?>
<svg xmlns="http://www.w3.org/2000/svg" xmlns:xlink="http://www.w3.org/1999/xlink" width="35pt" height="25pt" viewBox="0 0 35 25" version="1.1">
<g id="surface1">
<path style=" stroke:none;fill-rule:nonzero;fill:rgb(7.843137%,6.666667%,6.27451%);fill-opacity:1;" d="M 9.136719 0 C 14.628906 0 20.121094 0 25.617188 0 C 26.582031 1.050781 27.542969 2.101562 28.503906 3.15625 C 27.640625 4.839844 27.199219 6.714844 27.039062 8.589844 C 26.960938 9.496094 26.964844 10.421875 27.160156 11.3125 C 27.320312 12.121094 27.613281 12.894531 27.8125 13.691406 C 28.0625 14.671875 28.238281 15.683594 28.160156 16.695312 C 28.101562 17.433594 27.890625 18.160156 27.511719 18.792969 C 27.09375 19.492188 26.5 20.074219 25.84375 20.546875 C 25.21875 20.996094 24.542969 21.367188 23.839844 21.671875 C 23.03125 22.019531 22.183594 22.261719 21.367188 22.589844 C 19.921875 23.15625 18.621094 24.03125 17.414062 25 L 17.339844 25 C 16.359375 24.21875 15.308594 23.511719 14.179688 22.960938 C 13.359375 22.546875 12.488281 22.238281 11.628906 21.917969 C 10.769531 21.601562 9.90625 21.253906 9.152344 20.722656 C 8.320312 20.128906 7.570312 19.390625 7.09375 18.480469 C 6.734375 17.804688 6.5625 17.039062 6.550781 16.273438 C 6.535156 15.105469 6.839844 13.96875 7.175781 12.859375 C 8.167969 9.671875 7.785156 6.109375 6.25 3.15625 C 7.210938 2.105469 8.171875 1.050781 9.136719 0 "/>
<path style=" stroke:none;fill-rule:nonzero;fill:rgb(92.156863%,11.372549%,15.294118%);fill-opacity:1;" d="M 9.128906 0.160156 C 9.164062 0.101562 9.238281 0.105469 9.296875 0.105469 C 14.722656 0.109375 20.152344 0.101562 25.578125 0.109375 C 26.507812 1.132812 27.445312 2.148438 28.375 3.171875 C 27.601562 4.703125 27.175781 6.390625 26.980469 8.085938 C 26.875 9.074219 26.824219 10.078125 27.003906 11.054688 C 27.164062 12.035156 27.535156 12.964844 27.765625 13.925781 C 27.976562 14.804688 28.121094 15.707031 28.058594 16.613281 C 28.015625 17.277344 27.847656 17.9375 27.539062 18.527344 C 27.164062 19.242188 26.597656 19.839844 25.960938 20.328125 C 25.367188 20.777344 24.71875 21.152344 24.042969 21.464844 C 23.351562 21.785156 22.617188 22.015625 21.898438 22.273438 C 21.261719 22.503906 20.636719 22.765625 20.039062 23.09375 C 19.109375 23.589844 18.246094 24.207031 17.417969 24.863281 C 17.363281 24.917969 17.308594 24.832031 17.261719 24.804688 C 15.949219 23.761719 14.492188 22.890625 12.925781 22.292969 C 12.085938 21.960938 11.222656 21.683594 10.398438 21.308594 C 9.582031 20.9375 8.832031 20.421875 8.203125 19.789062 C 7.65625 19.246094 7.203125 18.605469 6.941406 17.878906 C 6.59375 16.929688 6.597656 15.886719 6.773438 14.902344 C 6.90625 14.089844 7.152344 13.300781 7.386719 12.511719 C 8.195312 9.578125 7.875 6.367188 6.59375 3.617188 C 6.527344 3.464844 6.441406 3.324219 6.386719 3.171875 C 6.445312 3.082031 6.527344 3.007812 6.597656 2.929688 C 7.441406 2.007812 8.285156 1.082031 9.128906 0.160156 "/>
<path style=" stroke:none;fill-rule:nonzero;fill:rgb(7.843137%,6.666667%,6.27451%);fill-opacity:1;" d="M 7.144531 3.28125 C 7.910156 2.429688 8.691406 1.59375 9.460938 0.746094 C 14.738281 0.742188 20.015625 0.746094 25.292969 0.746094 C 26.0625 1.589844 26.839844 2.429688 27.609375 3.28125 C 27.222656 4.105469 26.945312 4.972656 26.730469 5.855469 C 26.472656 6.929688 26.3125 8.03125 26.261719 9.136719 C 26.210938 9.960938 26.308594 10.789062 26.480469 11.59375 C 26.707031 12.664062 27.0625 13.703125 27.292969 14.769531 C 27.453125 15.535156 27.542969 16.335938 27.378906 17.105469 C 27.246094 17.769531 26.921875 18.382812 26.496094 18.902344 C 26.070312 19.414062 25.566406 19.851562 25.015625 20.214844 C 24.261719 20.710938 23.410156 21.019531 22.574219 21.335938 C 21.785156 21.625 21.003906 21.929688 20.25 22.300781 C 19.230469 22.792969 18.277344 23.410156 17.371094 24.082031 C 16.234375 23.214844 15.015625 22.441406 13.683594 21.910156 C 12.65625 21.496094 11.574219 21.214844 10.59375 20.699219 C 9.65625 20.214844 8.746094 19.609375 8.105469 18.757812 C 7.664062 18.171875 7.390625 17.460938 7.328125 16.726562 C 7.238281 15.832031 7.414062 14.933594 7.621094 14.066406 C 7.980469 12.589844 8.492188 11.128906 8.503906 9.59375 C 8.488281 8.441406 8.339844 7.292969 8.09375 6.167969 C 7.875 5.179688 7.578125 4.199219 7.144531 3.28125 "/>
<path style=" stroke:none;fill-rule:nonzero;fill:rgb(100%,100%,100%);fill-opacity:1;" d="M 7.269531 3.296875 C 8.015625 2.480469 8.761719 1.664062 9.507812 0.851562 C 14.753906 0.851562 20 0.851562 25.246094 0.851562 C 25.992188 1.667969 26.738281 2.480469 27.480469 3.296875 C 27.214844 3.882812 27 4.488281 26.820312 5.105469 C 25.359375 4.808594 23.878906 4.652344 22.398438 4.535156 C 20.261719 4.378906 18.117188 4.328125 15.976562 4.367188 C 13.882812 4.410156 11.789062 4.53125 9.710938 4.804688 C 9.117188 4.890625 8.523438 4.984375 7.933594 5.105469 C 7.753906 4.488281 7.535156 3.882812 7.269531 3.296875 "/>
<path style=" stroke:none;fill-rule:nonzero;fill:rgb(7.843137%,6.666667%,6.27451%);fill-opacity:1;" d="M 15.125 1.597656 C 15.285156 1.589844 15.441406 1.585938 15.601562 1.578125 C 15.632812 2.34375 15.65625 3.105469 15.683594 3.867188 C 15.523438 3.871094 15.367188 3.875 15.207031 3.882812 C 15.175781 3.121094 15.152344 2.359375 15.125 1.597656 "/>
<path style=" stroke:none;fill-rule:nonzero;fill:rgb(7.843137%,6.666667%,6.27451%);fill-opacity:1;" d="M 16.703125 1.597656 C 17.09375 1.59375 17.484375 1.582031 17.878906 1.582031 C 17.878906 1.746094 17.882812 1.90625 17.886719 2.070312 C 17.652344 2.074219 17.421875 2.082031 17.1875 2.082031 C 17.1875 2.21875 17.191406 2.347656 17.195312 2.480469 C 17.394531 2.476562 17.59375 2.472656 17.792969 2.472656 C 17.792969 2.625 17.796875 2.78125 17.800781 2.933594 C 17.601562 2.9375 17.402344 2.941406 17.203125 2.945312 C 17.207031 3.253906 17.214844 3.566406 17.21875 3.875 C 17.058594 3.878906 16.902344 3.882812 16.742188 3.886719 C 16.726562 3.125 16.714844 2.359375 16.703125 1.597656 "/>
<path style=" stroke:none;fill-rule:nonzero;fill:rgb(7.843137%,6.666667%,6.27451%);fill-opacity:1;" d="M 18.683594 1.609375 C 18.902344 1.53125 19.171875 1.550781 19.363281 1.695312 C 19.542969 1.84375 19.605469 2.082031 19.65625 2.296875 C 19.515625 2.339844 19.375 2.382812 19.238281 2.421875 C 19.203125 2.289062 19.144531 2.113281 18.980469 2.097656 C 18.804688 2.078125 18.703125 2.265625 18.671875 2.414062 C 18.625 2.667969 18.609375 2.9375 18.671875 3.191406 C 18.707031 3.34375 18.882812 3.449219 19.027344 3.371094 C 19.167969 3.289062 19.1875 3.105469 19.234375 2.960938 C 19.367188 3.03125 19.503906 3.097656 19.640625 3.164062 C 19.589844 3.394531 19.511719 3.640625 19.328125 3.800781 C 19.140625 3.957031 18.867188 3.949219 18.648438 3.875 C 18.40625 3.789062 18.285156 3.542969 18.214844 3.3125 C 18.128906 2.984375 18.140625 2.636719 18.203125 2.304688 C 18.257812 2.023438 18.402344 1.726562 18.683594 1.609375 "/>
<path style=" stroke:none;fill-rule:nonzero;fill:rgb(7.843137%,6.666667%,6.27451%);fill-opacity:1;" d="M 13.511719 1.695312 C 13.820312 1.683594 14.128906 1.644531 14.433594 1.660156 C 14.667969 1.6875 14.792969 1.917969 14.828125 2.125 C 14.875 2.394531 14.878906 2.703125 14.703125 2.929688 C 14.546875 3.113281 14.285156 3.09375 14.066406 3.105469 C 14.078125 3.386719 14.09375 3.667969 14.109375 3.949219 C 13.949219 3.960938 13.792969 3.964844 13.632812 3.972656 C 13.59375 3.214844 13.550781 2.453125 13.511719 1.695312 "/>
<path style=" stroke:none;fill-rule:nonzero;fill:rgb(7.843137%,6.666667%,6.27451%);fill-opacity:1;" d="M 21.269531 1.648438 C 21.386719 1.660156 21.503906 1.667969 21.621094 1.675781 C 21.570312 2.449219 21.511719 3.21875 21.460938 3.992188 C 21.316406 3.984375 21.171875 3.972656 21.027344 3.964844 C 21.0625 3.460938 21.097656 2.957031 21.132812 2.453125 C 20.996094 2.578125 20.839844 2.679688 20.664062 2.746094 C 20.671875 2.574219 20.683594 2.398438 20.703125 2.226562 C 20.96875 2.132812 21.167969 1.910156 21.269531 1.648438 "/>
<path style=" stroke:none;fill-rule:nonzero;fill:rgb(7.843137%,6.666667%,6.27451%);fill-opacity:1;" d="M 11.808594 1.789062 C 12.085938 1.769531 12.363281 1.746094 12.640625 1.730469 C 12.789062 1.722656 12.964844 1.734375 13.070312 1.859375 C 13.222656 2.03125 13.25 2.273438 13.238281 2.496094 C 13.226562 2.699219 13.121094 2.902344 12.929688 2.988281 C 13.105469 3.085938 13.183594 3.28125 13.261719 3.457031 C 13.332031 3.625 13.410156 3.789062 13.472656 3.960938 C 13.296875 3.980469 13.117188 3.988281 12.941406 4 C 12.824219 3.738281 12.71875 3.476562 12.589844 3.222656 C 12.558594 3.132812 12.464844 3.109375 12.382812 3.101562 C 12.398438 3.414062 12.425781 3.722656 12.445312 4.035156 C 12.285156 4.046875 12.128906 4.058594 11.96875 4.070312 C 11.914062 3.308594 11.863281 2.550781 11.808594 1.789062 "/>
<path style=" stroke:none;fill-rule:nonzero;fill:rgb(7.843137%,6.666667%,6.27451%);fill-opacity:1;" d="M 22.25 1.910156 C 22.476562 1.613281 23.015625 1.6875 23.167969 2.027344 C 23.320312 2.34375 23.300781 2.707031 23.265625 3.046875 C 23.226562 3.351562 23.171875 3.683594 22.953125 3.917969 C 22.769531 4.121094 22.4375 4.128906 22.21875 3.984375 C 22.0625 3.867188 22.011719 3.664062 21.988281 3.480469 C 22.128906 3.46875 22.273438 3.457031 22.414062 3.445312 C 22.4375 3.53125 22.429688 3.652344 22.53125 3.691406 C 22.621094 3.710938 22.6875 3.632812 22.722656 3.558594 C 22.785156 3.410156 22.796875 3.246094 22.828125 3.089844 C 22.734375 3.195312 22.605469 3.304688 22.453125 3.273438 C 22.222656 3.246094 22.105469 3.011719 22.0625 2.808594 C 22.007812 2.5 22.054688 2.160156 22.25 1.910156 "/>
<path style=" stroke:none;fill-rule:nonzero;fill:rgb(7.843137%,6.666667%,6.27451%);fill-opacity:1;" d="M 10.4375 1.929688 C 10.609375 1.910156 10.78125 1.886719 10.953125 1.871094 C 11.234375 2.605469 11.519531 3.335938 11.800781 4.066406 C 11.636719 4.085938 11.472656 4.109375 11.308594 4.128906 C 11.265625 4.007812 11.226562 3.886719 11.183594 3.765625 C 11.007812 3.792969 10.820312 3.785156 10.652344 3.839844 C 10.632812 3.960938 10.632812 4.085938 10.621094 4.207031 C 10.460938 4.230469 10.296875 4.25 10.136719 4.269531 C 10.238281 3.488281 10.332031 2.707031 10.4375 1.929688 "/>
<path style=" stroke:none;fill-rule:nonzero;fill:rgb(7.843137%,6.666667%,6.27451%);fill-opacity:1;" d="M 23.933594 1.9375 C 24.113281 1.859375 24.339844 1.871094 24.503906 1.984375 C 24.671875 2.113281 24.730469 2.335938 24.742188 2.535156 C 24.765625 2.929688 24.71875 3.324219 24.609375 3.703125 C 24.558594 3.867188 24.488281 4.039062 24.34375 4.148438 C 24.171875 4.277344 23.925781 4.265625 23.738281 4.171875 C 23.554688 4.058594 23.476562 3.832031 23.457031 3.625 C 23.429688 3.261719 23.476562 2.894531 23.554688 2.539062 C 23.613281 2.308594 23.703125 2.050781 23.933594 1.9375 "/>
<path style=" stroke:none;fill-rule:nonzero;fill:rgb(7.843137%,6.666667%,6.27451%);fill-opacity:1;" d="M 8.878906 2.074219 C 9.078125 2.011719 9.316406 2 9.492188 2.136719 C 9.660156 2.257812 9.75 2.457031 9.832031 2.644531 C 9.703125 2.710938 9.570312 2.773438 9.4375 2.835938 C 9.390625 2.746094 9.347656 2.636719 9.246094 2.585938 C 9.140625 2.527344 8.996094 2.578125 8.945312 2.6875 C 8.84375 2.875 8.878906 3.097656 8.90625 3.300781 C 8.9375 3.460938 8.960938 3.632812 9.066406 3.765625 C 9.148438 3.871094 9.320312 3.886719 9.417969 3.789062 C 9.519531 3.679688 9.511719 3.515625 9.527344 3.371094 C 9.675781 3.410156 9.820312 3.457031 9.96875 3.5 C 9.953125 3.761719 9.914062 4.058594 9.703125 4.242188 C 9.492188 4.40625 9.183594 4.425781 8.945312 4.316406 C 8.6875 4.15625 8.550781 3.863281 8.476562 3.582031 C 8.40625 3.269531 8.367188 2.933594 8.4375 2.617188 C 8.488281 2.382812 8.640625 2.152344 8.878906 2.074219 "/>
<path style=" stroke:none;fill-rule:nonzero;fill:rgb(7.843137%,6.666667%,6.27451%);fill-opacity:1;" d="M 25.234375 2.234375 C 25.476562 1.953125 25.996094 2.054688 26.136719 2.390625 C 26.269531 2.703125 26.234375 3.050781 26.183594 3.375 C 26.125 3.695312 26.050781 4.039062 25.8125 4.273438 C 25.625 4.460938 25.308594 4.460938 25.09375 4.324219 C 24.921875 4.199219 24.882812 3.976562 24.863281 3.78125 C 25.007812 3.777344 25.152344 3.773438 25.296875 3.769531 C 25.292969 3.878906 25.324219 4.074219 25.480469 4.023438 C 25.671875 3.902344 25.667969 3.648438 25.734375 3.457031 C 25.628906 3.539062 25.511719 3.640625 25.367188 3.609375 C 25.148438 3.582031 25.03125 3.359375 24.996094 3.167969 C 24.945312 2.84375 25.015625 2.484375 25.234375 2.234375 "/>
<path style=" stroke:none;fill-rule:nonzero;fill:rgb(100%,100%,100%);fill-opacity:1;" d="M 14.015625 2.128906 C 14.117188 2.136719 14.242188 2.101562 14.320312 2.179688 C 14.410156 2.285156 14.421875 2.457031 14.335938 2.570312 C 14.261719 2.644531 14.140625 2.632812 14.042969 2.644531 C 14.03125 2.472656 14.019531 2.300781 14.015625 2.128906 "/>
<path style=" stroke:none;fill-rule:nonzero;fill:rgb(100%,100%,100%);fill-opacity:1;" d="M 22.621094 2.128906 C 22.722656 2.09375 22.808594 2.183594 22.835938 2.273438 C 22.882812 2.421875 22.871094 2.589844 22.816406 2.738281 C 22.78125 2.832031 22.6875 2.925781 22.578125 2.886719 C 22.445312 2.808594 22.441406 2.632812 22.449219 2.496094 C 22.464844 2.363281 22.488281 2.195312 22.621094 2.128906 "/>
<path style=" stroke:none;fill-rule:nonzero;fill:rgb(100%,100%,100%);fill-opacity:1;" d="M 12.320312 2.21875 C 12.449219 2.21875 12.609375 2.160156 12.714844 2.257812 C 12.785156 2.355469 12.789062 2.515625 12.707031 2.609375 C 12.601562 2.675781 12.46875 2.667969 12.351562 2.683594 C 12.339844 2.527344 12.328125 2.371094 12.320312 2.21875 "/>
<path style=" stroke:none;fill-rule:nonzero;fill:rgb(100%,100%,100%);fill-opacity:1;" d="M 24.089844 2.339844 C 24.179688 2.257812 24.300781 2.351562 24.3125 2.453125 C 24.355469 2.679688 24.316406 2.910156 24.292969 3.140625 C 24.261719 3.328125 24.25 3.53125 24.160156 3.703125 C 24.125 3.777344 24.039062 3.832031 23.957031 3.789062 C 23.867188 3.707031 23.867188 3.570312 23.863281 3.457031 C 23.867188 3.207031 23.902344 2.957031 23.945312 2.707031 C 23.976562 2.578125 23.996094 2.4375 24.089844 2.339844 "/>
<path style=" stroke:none;fill-rule:nonzero;fill:rgb(100%,100%,100%);fill-opacity:1;" d="M 10.757812 2.5 C 10.851562 2.761719 10.933594 3.023438 11.023438 3.285156 C 10.914062 3.296875 10.800781 3.3125 10.691406 3.324219 C 10.714844 3.050781 10.734375 2.777344 10.757812 2.5 "/>
<path style=" stroke:none;fill-rule:nonzero;fill:rgb(100%,100%,100%);fill-opacity:1;" d="M 25.542969 2.503906 C 25.617188 2.441406 25.726562 2.476562 25.765625 2.558594 C 25.847656 2.714844 25.816406 2.902344 25.761719 3.0625 C 25.726562 3.160156 25.632812 3.269531 25.515625 3.230469 C 25.398438 3.179688 25.382812 3.03125 25.390625 2.917969 C 25.402344 2.773438 25.421875 2.601562 25.542969 2.503906 "/>
<path style=" stroke:none;fill-rule:nonzero;fill:rgb(92.156863%,11.372549%,15.294118%);fill-opacity:1;" d="M 9.710938 4.804688 C 11.789062 4.53125 13.882812 4.410156 15.976562 4.367188 C 18.117188 4.328125 20.261719 4.378906 22.398438 4.535156 C 23.878906 4.652344 25.359375 4.808594 26.820312 5.105469 C 26.789062 5.214844 26.757812 5.328125 26.726562 5.441406 C 25.550781 5.195312 24.355469 5.050781 23.160156 4.929688 C 21.496094 4.78125 19.824219 4.707031 18.148438 4.683594 C 15.101562 4.664062 12.042969 4.785156 9.027344 5.25 C 10.089844 6.449219 11 7.769531 11.867188 9.109375 C 13.128906 11.070312 14.375 13.042969 15.707031 14.957031 C 16.324219 15.878906 17.054688 16.722656 17.882812 17.457031 C 18.546875 18.050781 19.269531 18.582031 20.058594 18.996094 C 20.613281 19.285156 21.203125 19.519531 21.828125 19.585938 C 22.441406 19.636719 23.054688 19.484375 23.613281 19.234375 C 24.222656 18.953125 24.765625 18.527344 25.1875 18.007812 C 25.730469 17.339844 26.074219 16.527344 26.265625 15.691406 C 26.585938 14.296875 26.542969 12.84375 26.335938 11.4375 C 26.523438 12.335938 26.792969 13.21875 27.027344 14.109375 C 27.242188 14.949219 27.425781 15.820312 27.332031 16.691406 C 27.265625 17.386719 26.996094 18.054688 26.585938 18.613281 C 26.136719 19.21875 25.566406 19.730469 24.933594 20.140625 C 24.246094 20.585938 23.472656 20.882812 22.710938 21.171875 C 21.917969 21.460938 21.128906 21.761719 20.363281 22.125 C 19.304688 22.625 18.3125 23.253906 17.371094 23.949219 C 16.179688 23.050781 14.902344 22.253906 13.5 21.722656 C 12.585938 21.371094 11.636719 21.105469 10.757812 20.664062 C 9.75 20.160156 8.773438 19.515625 8.117188 18.582031 C 7.800781 18.121094 7.566406 17.59375 7.488281 17.035156 C 8.34375 17.859375 9.257812 18.613281 10.167969 19.371094 C 10.683594 19.785156 11.191406 20.21875 11.726562 20.605469 C 12.476562 21.144531 13.285156 21.613281 14.167969 21.894531 C 15.324219 22.277344 16.628906 22.261719 17.746094 21.753906 C 17.109375 21.808594 16.460938 21.722656 15.859375 21.515625 C 15.011719 21.234375 14.234375 20.769531 13.519531 20.234375 C 12.898438 19.765625 12.320312 19.234375 11.8125 18.644531 C 10.773438 17.449219 9.824219 16.183594 8.828125 14.953125 C 8.5 14.535156 8.148438 14.132812 7.824219 13.710938 C 8.003906 12.960938 8.230469 12.226562 8.386719 11.472656 C 8.417969 11.332031 8.433594 11.191406 8.472656 11.058594 L 8.496094 11.054688 C 9.210938 12.03125 9.925781 13.003906 10.621094 13.992188 C 10.792969 14.238281 10.953125 14.492188 11.117188 14.746094 C 11.871094 15.914062 12.683594 17.054688 13.636719 18.070312 C 14.648438 19.144531 15.824219 20.113281 17.226562 20.617188 C 18.109375 20.925781 19.082031 21.03125 19.988281 20.773438 C 20.496094 20.628906 21.003906 20.421875 21.398438 20.058594 C 20.84375 20.074219 20.285156 20.117188 19.730469 20.050781 C 19.015625 19.976562 18.328125 19.714844 17.722656 19.332031 C 16.917969 18.820312 16.238281 18.144531 15.609375 17.4375 C 14.734375 16.441406 13.96875 15.359375 13.238281 14.253906 C 12.460938 13.085938 11.773438 11.859375 11 10.6875 C 10.203125 9.476562 9.363281 8.28125 8.402344 7.191406 C 8.277344 6.488281 8.136719 5.789062 7.933594 5.105469 C 8.523438 4.984375 9.117188 4.890625 9.710938 4.804688 "/>
<path style=" stroke:none;fill-rule:nonzero;fill:rgb(100%,100%,100%);fill-opacity:1;" d="M 9.027344 5.25 C 12.042969 4.785156 15.101562 4.664062 18.148438 4.683594 C 19.824219 4.707031 21.496094 4.78125 23.160156 4.929688 C 24.355469 5.050781 25.550781 5.195312 26.726562 5.441406 C 26.472656 6.40625 26.296875 7.390625 26.207031 8.382812 C 26.15625 8.964844 26.121094 9.550781 26.160156 10.132812 C 26.167969 10.574219 26.265625 11.003906 26.335938 11.4375 C 26.542969 12.84375 26.585938 14.296875 26.265625 15.691406 C 26.074219 16.527344 25.730469 17.339844 25.1875 18.007812 C 24.765625 18.527344 24.222656 18.953125 23.613281 19.234375 C 23.054688 19.484375 22.441406 19.636719 21.828125 19.585938 C 21.203125 19.519531 20.613281 19.285156 20.058594 18.996094 C 19.269531 18.582031 18.546875 18.050781 17.882812 17.457031 C 17.054688 16.722656 16.324219 15.878906 15.707031 14.957031 C 14.375 13.042969 13.128906 11.070312 11.867188 9.109375 C 11 7.769531 10.089844 6.449219 9.027344 5.25 "/>
<path style=" stroke:none;fill-rule:nonzero;fill:rgb(7.843137%,6.666667%,6.27451%);fill-opacity:1;" d="M 24.15625 6.371094 C 24.261719 6.351562 24.363281 6.320312 24.464844 6.292969 C 24.40625 6.476562 24.289062 6.65625 24.101562 6.734375 C 24.066406 6.851562 23.980469 6.9375 23.871094 6.988281 C 23.867188 7.039062 23.867188 7.089844 23.863281 7.140625 C 23.8125 7.140625 23.761719 7.144531 23.710938 7.148438 C 23.738281 7.230469 23.765625 7.3125 23.792969 7.398438 C 23.726562 7.402344 23.660156 7.40625 23.589844 7.410156 C 23.59375 7.46875 23.59375 7.527344 23.59375 7.585938 C 23.519531 7.589844 23.441406 7.59375 23.367188 7.59375 C 23.382812 7.675781 23.398438 7.753906 23.414062 7.832031 C 23.34375 7.84375 23.273438 7.855469 23.203125 7.867188 C 23.214844 7.933594 23.230469 7.996094 23.242188 8.058594 C 23.160156 8.054688 23.078125 8.046875 22.996094 8.039062 C 22.996094 8.125 22.996094 8.207031 23 8.292969 C 22.890625 8.289062 22.785156 8.289062 22.675781 8.285156 C 22.707031 8.355469 22.734375 8.429688 22.765625 8.5 C 22.617188 8.503906 22.472656 8.53125 22.367188 8.644531 C 22.21875 8.644531 22.074219 8.644531 21.929688 8.644531 C 22.035156 8.824219 22.121094 9.023438 22.140625 9.234375 C 22.46875 9.285156 22.800781 9.324219 23.125 9.402344 C 23.3125 9.453125 23.53125 9.390625 23.699219 9.511719 C 23.765625 9.550781 23.785156 9.625 23.8125 9.6875 C 23.921875 9.675781 24.050781 9.652344 24.148438 9.726562 C 24.230469 9.777344 24.242188 9.878906 24.265625 9.964844 C 24.386719 9.988281 24.527344 10 24.617188 10.101562 C 24.707031 10.191406 24.699219 10.324219 24.714844 10.445312 C 24.925781 10.515625 24.988281 10.773438 24.996094 10.972656 C 25.007812 11.121094 24.90625 11.257812 24.753906 11.261719 C 24.710938 11.429688 24.519531 11.464844 24.371094 11.476562 C 24.21875 11.480469 24.058594 11.480469 23.914062 11.421875 C 23.699219 11.304688 23.441406 11.363281 23.214844 11.398438 C 22.972656 11.601562 22.679688 11.722656 22.449219 11.933594 C 22.277344 12.089844 22.117188 12.28125 22.066406 12.515625 C 22 12.789062 22.039062 13.074219 22.039062 13.351562 C 22.046875 14.5625 22.078125 15.773438 22.074219 16.984375 C 22.066406 17.09375 22.097656 17.21875 22.199219 17.277344 C 22.347656 17.359375 22.519531 17.378906 22.664062 17.46875 C 22.828125 17.570312 22.976562 17.722656 23.046875 17.90625 C 23.070312 17.988281 22.972656 17.996094 22.929688 17.953125 C 22.726562 17.828125 22.507812 17.703125 22.261719 17.699219 C 22.371094 17.855469 22.535156 17.964844 22.699219 18.0625 C 22.738281 18.089844 22.808594 18.125 22.777344 18.1875 C 22.703125 18.289062 22.5625 18.25 22.453125 18.246094 C 22.464844 18.265625 22.492188 18.304688 22.503906 18.324219 C 22.382812 18.398438 22.253906 18.304688 22.140625 18.269531 C 22.105469 18.351562 22.113281 18.449219 22.074219 18.527344 C 21.996094 18.542969 21.960938 18.449219 21.90625 18.410156 L 21.902344 18.492188 C 21.65625 18.472656 21.425781 18.382812 21.203125 18.289062 C 21.074219 18.292969 20.960938 18.242188 20.90625 18.125 C 20.835938 18.191406 20.765625 18.253906 20.695312 18.320312 C 20.6875 18.222656 20.683594 18.128906 20.675781 18.03125 C 20.582031 18.0625 20.480469 18.15625 20.390625 18.070312 C 20.421875 17.996094 20.457031 17.921875 20.492188 17.851562 C 20.441406 17.875 20.394531 17.902344 20.347656 17.929688 C 20.222656 17.800781 20.359375 17.5625 20.519531 17.539062 C 20.796875 17.507812 21.074219 17.382812 21.21875 17.132812 C 21.359375 16.902344 21.359375 16.621094 21.394531 16.359375 C 21.460938 15.496094 21.4375 14.632812 21.402344 13.769531 C 21.378906 13.234375 21.351562 12.644531 20.996094 12.21875 C 20.796875 12.03125 20.6875 11.777344 20.492188 11.589844 C 20.386719 11.488281 20.234375 11.453125 20.09375 11.441406 C 19.949219 11.554688 19.660156 11.582031 19.578125 11.386719 C 19.496094 11.425781 19.410156 11.417969 19.339844 11.367188 C 19.316406 11.511719 19.160156 11.582031 19.03125 11.574219 C 18.960938 11.53125 18.910156 11.457031 18.828125 11.433594 C 18.777344 11.457031 18.734375 11.484375 18.691406 11.511719 C 18.476562 11.34375 18.34375 11.046875 18.453125 10.785156 C 18.574219 10.507812 18.863281 10.265625 19.179688 10.292969 C 19.230469 10.125 19.273438 9.929688 19.445312 9.839844 C 19.507812 9.925781 19.570312 10.011719 19.632812 10.101562 C 19.644531 10.007812 19.636719 9.898438 19.714844 9.832031 C 19.808594 9.746094 19.941406 9.761719 20.054688 9.761719 C 20.070312 9.574219 20.285156 9.515625 20.441406 9.507812 C 20.535156 9.492188 20.605469 9.5625 20.660156 9.625 C 20.785156 9.621094 20.910156 9.605469 21.039062 9.597656 C 20.960938 9.300781 20.886719 8.964844 21.039062 8.683594 C 20.921875 8.664062 20.804688 8.644531 20.6875 8.621094 C 20.597656 8.605469 20.535156 8.53125 20.445312 8.507812 C 20.375 8.496094 20.304688 8.488281 20.234375 8.480469 C 20.25 8.425781 20.265625 8.367188 20.28125 8.308594 C 20.175781 8.316406 20.070312 8.320312 19.964844 8.320312 C 19.964844 8.246094 19.96875 8.167969 19.96875 8.09375 C 19.886719 8.09375 19.804688 8.101562 19.71875 8.105469 C 19.734375 8.0625 19.753906 7.980469 19.765625 7.9375 C 19.695312 7.925781 19.625 7.910156 19.550781 7.898438 C 19.566406 7.828125 19.582031 7.757812 19.597656 7.683594 C 19.523438 7.679688 19.445312 7.675781 19.367188 7.671875 C 19.371094 7.617188 19.375 7.566406 19.375 7.515625 C 19.308594 7.511719 19.242188 7.507812 19.171875 7.503906 C 19.203125 7.429688 19.230469 7.351562 19.257812 7.277344 C 19.207031 7.273438 19.15625 7.269531 19.101562 7.265625 C 19.101562 7.234375 19.101562 7.167969 19.101562 7.132812 C 19 7.085938 18.90625 7.015625 18.867188 6.902344 C 18.691406 6.828125 18.566406 6.671875 18.503906 6.492188 C 18.984375 6.691406 19.515625 6.433594 19.996094 6.621094 C 20.28125 6.734375 20.453125 7.003906 20.632812 7.234375 C 20.714844 7.359375 20.871094 7.378906 21.003906 7.410156 C 21.113281 7.132812 21.21875 6.835938 21.449219 6.636719 C 21.585938 6.519531 21.816406 6.5625 21.894531 6.722656 C 21.980469 6.890625 22.164062 7.042969 22.066406 7.25 C 22.007812 7.179688 21.941406 7.0625 21.832031 7.097656 C 21.726562 7.195312 21.796875 7.363281 21.914062 7.417969 C 22.039062 7.480469 22.183594 7.421875 22.273438 7.332031 C 22.496094 7.121094 22.683594 6.882812 22.882812 6.652344 C 22.988281 6.53125 23.117188 6.417969 23.28125 6.382812 C 23.570312 6.308594 23.867188 6.417969 24.15625 6.371094 "/>
<path style=" stroke:none;fill-rule:nonzero;fill:rgb(100%,100%,100%);fill-opacity:1;" d="M 23.039062 6.640625 C 23.222656 6.453125 23.5 6.449219 23.742188 6.472656 C 23.898438 6.488281 24.058594 6.46875 24.207031 6.519531 C 23.914062 6.574219 23.59375 6.511719 23.324219 6.664062 C 22.960938 6.847656 22.765625 7.226562 22.453125 7.472656 C 22.3125 7.59375 22.105469 7.652344 21.929688 7.566406 C 22.058594 7.542969 22.199219 7.535156 22.300781 7.445312 C 22.582031 7.210938 22.785156 6.898438 23.039062 6.640625 "/>
<path style=" stroke:none;fill-rule:nonzero;fill:rgb(100%,100%,100%);fill-opacity:1;" d="M 19.117188 6.726562 C 19.375 6.628906 19.660156 6.625 19.921875 6.703125 C 20.214844 6.800781 20.378906 7.078125 20.558594 7.308594 C 20.660156 7.449219 20.84375 7.472656 20.988281 7.542969 C 20.855469 7.578125 20.699219 7.585938 20.585938 7.496094 C 20.335938 7.3125 20.199219 7.015625 19.925781 6.859375 C 19.683594 6.714844 19.386719 6.761719 19.117188 6.726562 "/>
<path style=" stroke:none;fill-rule:nonzero;fill:rgb(100%,100%,100%);fill-opacity:1;" d="M 21.175781 7.253906 C 21.277344 7.042969 21.371094 6.761719 21.613281 6.671875 C 21.8125 6.652344 21.832031 6.886719 21.945312 6.996094 C 21.796875 6.945312 21.65625 7.078125 21.679688 7.230469 C 21.636719 7.25 21.589844 7.261719 21.542969 7.273438 C 21.492188 7.367188 21.34375 7.46875 21.402344 7.585938 C 21.457031 7.488281 21.519531 7.394531 21.59375 7.3125 C 21.617188 7.363281 21.644531 7.421875 21.667969 7.476562 L 21.679688 7.449219 C 21.664062 7.402344 21.636719 7.308594 21.621094 7.261719 C 21.640625 7.273438 21.683594 7.296875 21.703125 7.308594 C 21.765625 7.460938 21.898438 7.582031 21.898438 7.757812 C 21.917969 7.902344 21.761719 7.957031 21.664062 8.019531 C 21.523438 8.082031 21.476562 8.289062 21.5625 8.410156 C 21.589844 8.300781 21.53125 8.082031 21.6875 8.0625 C 21.738281 8.136719 21.644531 8.25 21.726562 8.320312 C 21.742188 8.226562 21.726562 8.125 21.761719 8.03125 C 21.824219 8.128906 21.914062 8.210938 21.988281 8.300781 C 21.90625 8.386719 21.816406 8.457031 21.734375 8.539062 C 21.714844 8.515625 21.695312 8.492188 21.675781 8.46875 C 21.691406 8.445312 21.71875 8.398438 21.734375 8.375 C 21.675781 8.417969 21.621094 8.46875 21.570312 8.519531 C 21.609375 8.539062 21.652344 8.5625 21.691406 8.582031 C 21.621094 8.644531 21.507812 8.691406 21.492188 8.796875 C 21.449219 8.976562 21.375 9.148438 21.304688 9.320312 C 21.226562 9.328125 21.152344 9.332031 21.078125 9.339844 C 21.054688 9.167969 21.035156 8.988281 21.089844 8.816406 C 21.128906 8.734375 21.195312 8.675781 21.257812 8.609375 C 21.125 8.605469 21.058594 8.480469 20.96875 8.40625 C 21.035156 8.277344 21.097656 8.148438 21.15625 8.019531 C 21.066406 7.972656 20.933594 7.910156 20.859375 8.019531 C 20.835938 8.027344 20.785156 8.042969 20.761719 8.054688 C 20.800781 7.964844 20.882812 7.917969 20.980469 7.929688 C 21.039062 7.863281 21.125 7.808594 21.144531 7.714844 C 21.144531 7.621094 21.125 7.527344 21.136719 7.433594 C 21.175781 7.425781 21.253906 7.414062 21.292969 7.40625 C 21.253906 7.355469 21.214844 7.304688 21.175781 7.253906 "/>
<path style=" stroke:none;fill-rule:nonzero;fill:rgb(7.843137%,6.666667%,6.27451%);fill-opacity:1;" d="M 21.597656 6.820312 C 21.671875 6.789062 21.742188 6.886719 21.671875 6.9375 C 21.59375 6.992188 21.511719 6.867188 21.597656 6.820312 "/>
<path style=" stroke:none;fill-rule:nonzero;fill:rgb(100%,100%,100%);fill-opacity:1;" d="M 19.457031 6.902344 C 19.464844 6.792969 19.644531 6.878906 19.710938 6.90625 C 19.636719 6.964844 19.535156 6.957031 19.457031 6.902344 "/>
<path style=" stroke:none;fill-rule:nonzero;fill:rgb(100%,100%,100%);fill-opacity:1;" d="M 19.679688 7.136719 C 19.707031 7.03125 19.800781 6.96875 19.90625 6.960938 C 19.863281 7.054688 19.78125 7.117188 19.679688 7.136719 "/>
<path style=" stroke:none;fill-rule:nonzero;fill:rgb(100%,100%,100%);fill-opacity:1;" d="M 22.996094 6.988281 C 23.085938 6.984375 23.164062 7.019531 23.214844 7.09375 C 23.125 7.097656 23.050781 7.054688 22.996094 6.988281 "/>
<path style=" stroke:none;fill-rule:nonzero;fill:rgb(100%,100%,100%);fill-opacity:1;" d="M 23.445312 6.972656 C 23.539062 6.949219 23.621094 6.976562 23.679688 7.046875 C 23.589844 7.0625 23.515625 7.023438 23.445312 6.972656 "/>
<path style=" stroke:none;fill-rule:nonzero;fill:rgb(100%,100%,100%);fill-opacity:1;" d="M 19.21875 7.167969 C 19.308594 7.089844 19.433594 7.035156 19.542969 7.105469 C 19.453125 7.191406 19.332031 7.179688 19.21875 7.167969 "/>
<path style=" stroke:none;fill-rule:nonzero;fill:rgb(100%,100%,100%);fill-opacity:1;" d="M 19.824219 7.253906 C 19.871094 7.140625 19.96875 7.042969 20.097656 7.054688 C 20.050781 7.171875 19.949219 7.246094 19.824219 7.253906 "/>
<path style=" stroke:none;fill-rule:nonzero;fill:rgb(100%,100%,100%);fill-opacity:1;" d="M 23.316406 7.128906 C 23.40625 7.132812 23.480469 7.179688 23.527344 7.25 C 23.4375 7.25 23.363281 7.207031 23.316406 7.128906 "/>
<path style=" stroke:none;fill-rule:nonzero;fill:rgb(100%,100%,100%);fill-opacity:1;" d="M 22.84375 7.167969 C 22.929688 7.175781 23.027344 7.199219 23.039062 7.296875 C 22.964844 7.273438 22.882812 7.246094 22.84375 7.167969 "/>
<path style=" stroke:none;fill-rule:nonzero;fill:rgb(100%,100%,100%);fill-opacity:1;" d="M 8.402344 7.191406 C 9.363281 8.28125 10.203125 9.476562 11 10.6875 C 11.773438 11.859375 12.460938 13.085938 13.238281 14.253906 C 13.96875 15.359375 14.734375 16.441406 15.609375 17.4375 C 16.238281 18.144531 16.917969 18.820312 17.722656 19.332031 C 18.328125 19.714844 19.015625 19.976562 19.730469 20.050781 C 20.285156 20.117188 20.84375 20.074219 21.398438 20.058594 C 21.003906 20.421875 20.496094 20.628906 19.988281 20.773438 C 19.082031 21.03125 18.109375 20.925781 17.226562 20.617188 C 15.824219 20.113281 14.648438 19.144531 13.636719 18.070312 C 12.683594 17.054688 11.871094 15.914062 11.117188 14.746094 C 10.953125 14.492188 10.792969 14.238281 10.621094 13.992188 C 9.925781 13.003906 9.210938 12.03125 8.496094 11.054688 L 8.484375 11.023438 C 8.503906 10.742188 8.566406 10.464844 8.582031 10.183594 C 8.660156 9.183594 8.535156 8.179688 8.402344 7.191406 "/>
<path style=" stroke:none;fill-rule:nonzero;fill:rgb(100%,100%,100%);fill-opacity:1;" d="M 20.019531 7.347656 C 20.039062 7.265625 20.109375 7.210938 20.195312 7.214844 C 20.148438 7.273438 20.089844 7.320312 20.019531 7.347656 "/>
<path style=" stroke:none;fill-rule:nonzero;fill:rgb(100%,100%,100%);fill-opacity:1;" d="M 19.484375 7.367188 C 19.574219 7.289062 19.691406 7.246094 19.8125 7.28125 C 19.734375 7.382812 19.605469 7.414062 19.484375 7.367188 "/>
<path style=" stroke:none;fill-rule:nonzero;fill:rgb(100%,100%,100%);fill-opacity:1;" d="M 22.730469 7.285156 C 22.8125 7.320312 22.875 7.382812 22.875 7.476562 C 22.800781 7.433594 22.746094 7.371094 22.730469 7.285156 "/>
<path style=" stroke:none;fill-rule:nonzero;fill:rgb(100%,100%,100%);fill-opacity:1;" d="M 20.109375 7.460938 C 20.160156 7.410156 20.21875 7.367188 20.28125 7.335938 C 20.261719 7.417969 20.199219 7.488281 20.109375 7.460938 "/>
<path style=" stroke:none;fill-rule:nonzero;fill:rgb(100%,100%,100%);fill-opacity:1;" d="M 23.164062 7.339844 C 23.257812 7.328125 23.316406 7.398438 23.359375 7.46875 C 23.269531 7.464844 23.210938 7.40625 23.164062 7.339844 "/>
<path style=" stroke:none;fill-rule:nonzero;fill:rgb(100%,100%,100%);fill-opacity:1;" d="M 22.582031 7.433594 C 22.667969 7.464844 22.71875 7.535156 22.734375 7.625 C 22.65625 7.585938 22.601562 7.519531 22.582031 7.433594 "/>
<path style=" stroke:none;fill-rule:nonzero;fill:rgb(100%,100%,100%);fill-opacity:1;" d="M 19.738281 7.625 C 19.722656 7.542969 19.804688 7.511719 19.863281 7.476562 C 19.867188 7.554688 19.796875 7.589844 19.738281 7.625 "/>
<path style=" stroke:none;fill-rule:nonzero;fill:rgb(100%,100%,100%);fill-opacity:1;" d="M 20.257812 7.640625 C 20.289062 7.59375 20.324219 7.550781 20.359375 7.511719 C 20.378906 7.515625 20.421875 7.527344 20.441406 7.53125 C 20.386719 7.578125 20.332031 7.625 20.257812 7.640625 "/>
<path style=" stroke:none;fill-rule:nonzero;fill:rgb(7.843137%,6.666667%,6.27451%);fill-opacity:1;" d="M 21.429688 7.878906 C 21.46875 7.757812 21.523438 7.640625 21.613281 7.550781 C 21.597656 7.703125 21.445312 7.816406 21.476562 7.988281 C 21.382812 7.894531 21.304688 7.785156 21.242188 7.667969 C 21.308594 7.734375 21.367188 7.804688 21.429688 7.878906 "/>
<path style=" stroke:none;fill-rule:nonzero;fill:rgb(100%,100%,100%);fill-opacity:1;" d="M 22.453125 7.589844 C 22.53125 7.621094 22.578125 7.683594 22.613281 7.757812 C 22.515625 7.757812 22.476562 7.667969 22.453125 7.589844 "/>
<path style=" stroke:none;fill-rule:nonzero;fill:rgb(100%,100%,100%);fill-opacity:1;" d="M 19.828125 7.835938 C 19.890625 7.742188 19.980469 7.675781 20.089844 7.65625 C 20.058594 7.765625 19.957031 7.886719 19.828125 7.835938 "/>
<path style=" stroke:none;fill-rule:nonzero;fill:rgb(100%,100%,100%);fill-opacity:1;" d="M 20.4375 7.761719 C 20.484375 7.703125 20.542969 7.652344 20.617188 7.628906 C 20.589844 7.710938 20.527344 7.769531 20.4375 7.761719 "/>
<path style=" stroke:none;fill-rule:nonzero;fill:rgb(100%,100%,100%);fill-opacity:1;" d="M 20.570312 7.960938 C 20.582031 7.84375 20.683594 7.792969 20.78125 7.757812 C 20.777344 7.875 20.667969 7.929688 20.570312 7.960938 "/>
<path style=" stroke:none;fill-rule:nonzero;fill:rgb(100%,100%,100%);fill-opacity:1;" d="M 22.910156 7.769531 C 22.976562 7.8125 23.039062 7.867188 23.035156 7.957031 C 22.964844 7.917969 22.90625 7.855469 22.910156 7.769531 "/>
<path style=" stroke:none;fill-rule:nonzero;fill:rgb(100%,100%,100%);fill-opacity:1;" d="M 20.078125 8.035156 C 20.125 7.921875 20.222656 7.84375 20.347656 7.824219 C 20.316406 7.949219 20.203125 8.023438 20.078125 8.035156 "/>
<path style=" stroke:none;fill-rule:nonzero;fill:rgb(100%,100%,100%);fill-opacity:1;" d="M 22.199219 7.84375 C 22.25 7.816406 22.320312 7.902344 22.28125 7.945312 C 22.226562 7.972656 22.160156 7.890625 22.199219 7.84375 "/>
<path style=" stroke:none;fill-rule:nonzero;fill:rgb(100%,100%,100%);fill-opacity:1;" d="M 22.652344 7.929688 C 22.769531 7.96875 22.835938 8.066406 22.859375 8.183594 C 22.734375 8.160156 22.664062 8.046875 22.652344 7.929688 "/>
<path style=" stroke:none;fill-rule:nonzero;fill:rgb(100%,100%,100%);fill-opacity:1;" d="M 22.40625 8.128906 C 22.484375 8.164062 22.535156 8.226562 22.558594 8.304688 C 22.464844 8.296875 22.429688 8.210938 22.40625 8.128906 "/>
<path style=" stroke:none;fill-rule:nonzero;fill:rgb(7.843137%,6.666667%,6.27451%);fill-opacity:1;" d="M 21.195312 8.488281 C 21.191406 8.371094 21.238281 8.257812 21.3125 8.167969 C 21.28125 8.277344 21.277344 8.402344 21.195312 8.488281 "/>
<path style=" stroke:none;fill-rule:nonzero;fill:rgb(100%,100%,100%);fill-opacity:1;" d="M 22.207031 8.460938 C 22.144531 8.441406 22.160156 8.289062 22.234375 8.324219 C 22.277344 8.355469 22.273438 8.460938 22.207031 8.460938 "/>
<path style=" stroke:none;fill-rule:nonzero;fill:rgb(7.843137%,6.666667%,6.27451%);fill-opacity:1;" d="M 21.328125 8.710938 C 21.367188 8.597656 21.433594 8.488281 21.535156 8.417969 C 21.460938 8.511719 21.445312 8.667969 21.328125 8.710938 "/>
<path style=" stroke:none;fill-rule:nonzero;fill:rgb(100%,100%,100%);fill-opacity:1;" d="M 21.542969 8.761719 C 21.613281 8.695312 21.691406 8.628906 21.769531 8.570312 C 21.867188 8.746094 21.972656 8.921875 22.019531 9.121094 C 21.925781 9.125 21.832031 9.125 21.742188 9.128906 C 21.683594 9 21.617188 8.878906 21.542969 8.761719 "/>
<path style=" stroke:none;fill-rule:nonzero;fill:rgb(100%,100%,100%);fill-opacity:1;" d="M 21.546875 8.917969 C 21.613281 9.035156 21.691406 9.167969 21.679688 9.308594 C 21.625 9.40625 21.503906 9.386719 21.417969 9.359375 C 21.441406 9.207031 21.503906 9.0625 21.546875 8.917969 "/>
<path style=" stroke:none;fill-rule:nonzero;fill:rgb(21.568627%,63.137255%,24.313725%);fill-opacity:1;" d="M 22.28125 9.621094 C 22.304688 9.507812 22.417969 9.53125 22.503906 9.53125 C 22.511719 9.554688 22.519531 9.601562 22.527344 9.625 C 22.445312 9.625 22.363281 9.621094 22.28125 9.621094 "/>
<path style=" stroke:none;fill-rule:nonzero;fill:rgb(21.568627%,63.137255%,24.313725%);fill-opacity:1;" d="M 22.6875 9.636719 C 22.792969 9.546875 22.945312 9.542969 23.046875 9.644531 C 22.957031 9.765625 22.769531 9.765625 22.6875 9.636719 "/>
<path style=" stroke:none;fill-rule:nonzero;fill:rgb(21.568627%,63.137255%,24.313725%);fill-opacity:1;" d="M 23.246094 9.714844 C 23.25 9.574219 23.449219 9.625 23.535156 9.65625 C 23.5 9.78125 23.332031 9.792969 23.246094 9.714844 "/>
<path style=" stroke:none;fill-rule:nonzero;fill:rgb(21.568627%,63.137255%,24.313725%);fill-opacity:1;" d="M 21.574219 9.714844 C 21.75 9.605469 21.957031 9.65625 22.144531 9.699219 C 22.15625 9.757812 22.171875 9.8125 22.1875 9.871094 C 22.15625 9.871094 22.097656 9.871094 22.070312 9.871094 C 22.089844 9.855469 22.125 9.828125 22.140625 9.8125 C 22.113281 9.785156 22.085938 9.761719 22.058594 9.734375 C 21.847656 9.808594 21.679688 9.988281 21.667969 10.21875 C 21.617188 10.121094 21.566406 10.023438 21.519531 9.925781 C 21.371094 10.042969 21.21875 10.171875 21.03125 10.21875 C 20.863281 10.269531 20.683594 10.246094 20.515625 10.210938 C 20.515625 10.332031 20.523438 10.480469 20.402344 10.554688 C 20.332031 10.496094 20.277344 10.421875 20.222656 10.347656 C 20.203125 10.445312 20.132812 10.511719 20.035156 10.527344 C 19.996094 10.597656 19.976562 10.691406 19.898438 10.730469 C 19.820312 10.742188 19.738281 10.730469 19.660156 10.734375 C 19.546875 10.832031 19.507812 10.992188 19.390625 11.089844 C 19.261719 11.164062 19.128906 11.070312 19.019531 11.011719 C 19.023438 11.085938 19.03125 11.15625 19.03125 11.230469 C 18.867188 11.226562 18.71875 11.117188 18.632812 10.980469 C 18.699219 10.691406 18.972656 10.496094 19.257812 10.46875 C 19.292969 10.335938 19.351562 10.207031 19.414062 10.082031 C 19.515625 10.171875 19.605469 10.269531 19.710938 10.351562 C 19.734375 10.203125 19.726562 10.023438 19.855469 9.917969 C 19.945312 9.851562 20.054688 9.917969 20.144531 9.953125 C 20.199219 9.875 20.246094 9.75 20.363281 9.761719 C 20.535156 9.789062 20.640625 9.972656 20.824219 9.976562 C 21.101562 10.007812 21.347656 9.851562 21.574219 9.714844 "/>
<path style=" stroke:none;fill-rule:nonzero;fill:rgb(21.568627%,63.137255%,24.313725%);fill-opacity:1;" d="M 23.46875 9.871094 C 23.570312 9.851562 23.671875 9.859375 23.773438 9.871094 C 23.824219 9.851562 23.824219 9.964844 23.769531 9.949219 C 23.652344 9.945312 23.496094 10 23.410156 9.894531 C 23.421875 9.890625 23.453125 9.878906 23.46875 9.871094 "/>
<path style=" stroke:none;fill-rule:nonzero;fill:rgb(21.568627%,63.137255%,24.313725%);fill-opacity:1;" d="M 22.382812 9.945312 C 22.476562 9.917969 22.609375 9.984375 22.59375 10.097656 C 22.570312 10.238281 22.335938 10.265625 22.28125 10.132812 C 22.230469 10.0625 22.304688 9.960938 22.382812 9.945312 "/>
<path style=" stroke:none;fill-rule:nonzero;fill:rgb(21.568627%,63.137255%,24.313725%);fill-opacity:1;" d="M 23.53125 10.203125 C 23.574219 10.203125 23.621094 10.207031 23.664062 10.210938 C 23.683594 10.25 23.695312 10.292969 23.703125 10.335938 C 23.628906 10.347656 23.554688 10.347656 23.492188 10.304688 C 23.503906 10.28125 23.519531 10.230469 23.53125 10.203125 "/>
<path style=" stroke:none;fill-rule:nonzero;fill:rgb(21.568627%,63.137255%,24.313725%);fill-opacity:1;" d="M 21.871094 10.269531 C 21.964844 10.210938 22.105469 10.246094 22.070312 10.378906 C 21.984375 10.386719 21.820312 10.410156 21.871094 10.269531 "/>
<path style=" stroke:none;fill-rule:nonzero;fill:rgb(21.568627%,63.137255%,24.313725%);fill-opacity:1;" d="M 23.203125 10.414062 C 23.222656 10.363281 23.207031 10.265625 23.289062 10.285156 C 23.378906 10.261719 23.394531 10.34375 23.40625 10.414062 C 23.335938 10.414062 23.269531 10.414062 23.203125 10.414062 "/>
<path style=" stroke:none;fill-rule:nonzero;fill:rgb(21.568627%,63.137255%,24.313725%);fill-opacity:1;" d="M 21.597656 10.375 C 21.664062 10.363281 21.78125 10.371094 21.738281 10.472656 C 21.671875 10.5 21.597656 10.5 21.535156 10.46875 C 21.523438 10.414062 21.542969 10.382812 21.597656 10.375 "/>
<path style=" stroke:none;fill-rule:nonzero;fill:rgb(21.568627%,63.137255%,24.313725%);fill-opacity:1;" d="M 20.996094 10.398438 C 21.0625 10.371094 21.148438 10.398438 21.179688 10.46875 C 21.148438 10.582031 20.890625 10.566406 20.941406 10.429688 C 20.957031 10.421875 20.980469 10.410156 20.996094 10.398438 "/>
<path style=" stroke:none;fill-rule:nonzero;fill:rgb(21.568627%,63.137255%,24.313725%);fill-opacity:1;" d="M 23.503906 10.523438 C 23.566406 10.472656 23.621094 10.589844 23.566406 10.628906 C 23.503906 10.679688 23.449219 10.5625 23.503906 10.523438 "/>
<path style=" stroke:none;fill-rule:nonzero;fill:rgb(21.568627%,63.137255%,24.313725%);fill-opacity:1;" d="M 24.285156 10.726562 C 24.355469 10.726562 24.441406 10.699219 24.488281 10.765625 C 24.519531 10.851562 24.414062 10.898438 24.34375 10.875 C 24.269531 10.867188 24.296875 10.777344 24.285156 10.726562 "/>
<path style=" stroke:none;fill-rule:nonzero;fill:rgb(100%,100%,100%);fill-opacity:1;" d="M 24.390625 10.996094 C 24.40625 10.988281 24.4375 10.972656 24.453125 10.964844 C 24.472656 10.972656 24.507812 10.984375 24.527344 10.992188 C 24.554688 11.050781 24.535156 11.105469 24.511719 11.160156 C 24.476562 11.160156 24.441406 11.160156 24.402344 11.160156 C 24.386719 11.125 24.371094 11.09375 24.359375 11.058594 C 24.367188 11.042969 24.382812 11.011719 24.390625 10.996094 "/>
<path style=" stroke:none;fill-rule:nonzero;fill:rgb(100%,100%,100%);fill-opacity:1;" d="M 20.554688 11.136719 C 20.585938 11.140625 20.652344 11.144531 20.683594 11.148438 C 20.753906 11.265625 20.835938 11.382812 20.867188 11.523438 C 20.816406 11.535156 20.761719 11.539062 20.707031 11.550781 C 20.652344 11.414062 20.597656 11.277344 20.554688 11.136719 "/>
<path style=" stroke:none;fill-rule:nonzero;fill:rgb(100%,100%,100%);fill-opacity:1;" d="M 20.949219 11.230469 C 21 11.261719 21.054688 11.289062 21.109375 11.320312 C 21.1875 11.566406 21.238281 11.820312 21.289062 12.074219 C 21.261719 12.09375 21.238281 12.117188 21.210938 12.136719 C 21.230469 12.160156 21.265625 12.207031 21.285156 12.234375 C 21.132812 12.121094 20.953125 12.019531 20.863281 11.847656 C 20.824219 11.777344 20.789062 11.707031 20.753906 11.640625 C 20.816406 11.675781 20.898438 11.691406 20.925781 11.765625 C 20.972656 11.898438 21.0625 12.003906 21.164062 12.097656 C 21.175781 12.070312 21.1875 12.042969 21.203125 12.019531 C 20.988281 11.8125 21.039062 11.492188 20.949219 11.230469 "/>
<path style=" stroke:none;fill-rule:nonzero;fill:rgb(100%,100%,100%);fill-opacity:1;" d="M 21.949219 11.230469 C 22.03125 11.261719 22.097656 11.324219 22.171875 11.371094 C 22.246094 11.414062 22.335938 11.378906 22.417969 11.367188 C 22.285156 11.597656 22.140625 11.832031 21.933594 12 C 21.976562 11.746094 21.964844 11.484375 21.949219 11.230469 "/>
<path style=" stroke:none;fill-rule:nonzero;fill:rgb(100%,100%,100%);fill-opacity:1;" d="M 21.617188 11.355469 C 21.671875 11.335938 21.722656 11.316406 21.777344 11.296875 C 21.796875 11.511719 21.84375 11.742188 21.765625 11.953125 C 21.71875 12.082031 21.699219 12.21875 21.671875 12.355469 C 21.625 12.21875 21.601562 12.074219 21.625 11.929688 C 21.652344 11.738281 21.636719 11.546875 21.617188 11.355469 "/>
<path style=" stroke:none;fill-rule:nonzero;fill:rgb(100%,100%,100%);fill-opacity:1;" d="M 22.523438 11.339844 C 22.636719 11.367188 22.75 11.382812 22.863281 11.398438 C 22.71875 11.53125 22.570312 11.65625 22.394531 11.738281 C 22.445312 11.609375 22.496094 11.476562 22.523438 11.339844 "/>
<path style=" stroke:none;fill-rule:nonzero;fill:rgb(100%,100%,100%);fill-opacity:1;" d="M 21.328125 11.390625 C 21.378906 11.386719 21.429688 11.386719 21.480469 11.386719 C 21.476562 11.453125 21.476562 11.515625 21.472656 11.582031 C 21.425781 11.554688 21.378906 11.53125 21.332031 11.507812 C 21.332031 11.476562 21.328125 11.417969 21.328125 11.390625 "/>
<path style=" stroke:none;fill-rule:nonzero;fill:rgb(100%,100%,100%);fill-opacity:1;" d="M 22.914062 11.390625 C 22.996094 11.390625 23.074219 11.390625 23.152344 11.390625 C 23.054688 11.457031 22.949219 11.515625 22.847656 11.578125 C 22.867188 11.515625 22.890625 11.453125 22.914062 11.390625 "/>
<path style=" stroke:none;fill-rule:nonzero;fill:rgb(100%,100%,100%);fill-opacity:1;" d="M 21.335938 11.679688 C 21.382812 11.765625 21.425781 11.851562 21.464844 11.941406 C 21.457031 11.957031 21.445312 11.988281 21.4375 12 C 21.441406 12.082031 21.449219 12.160156 21.449219 12.242188 C 21.40625 12.195312 21.363281 12.148438 21.328125 12.097656 C 21.316406 11.957031 21.332031 11.816406 21.335938 11.679688 "/>
<path style=" stroke:none;fill-rule:nonzero;fill:rgb(100%,100%,100%);fill-opacity:1;" d="M 21.871094 12.34375 C 21.859375 12.277344 21.835938 12.136719 21.953125 12.175781 C 21.925781 12.234375 21.898438 12.289062 21.871094 12.34375 "/>
<path style=" stroke:none;fill-rule:nonzero;fill:rgb(100%,100%,100%);fill-opacity:1;" d="M 7.820312 13.703125 L 7.824219 13.710938 C 8.148438 14.132812 8.5 14.535156 8.828125 14.953125 C 9.824219 16.183594 10.773438 17.449219 11.8125 18.644531 C 12.320312 19.234375 12.898438 19.765625 13.519531 20.234375 C 14.234375 20.769531 15.011719 21.234375 15.859375 21.515625 C 16.460938 21.722656 17.109375 21.808594 17.746094 21.753906 C 16.628906 22.261719 15.324219 22.277344 14.167969 21.894531 C 13.285156 21.613281 12.476562 21.144531 11.726562 20.605469 C 11.191406 20.21875 10.683594 19.785156 10.167969 19.371094 C 9.257812 18.613281 8.34375 17.859375 7.488281 17.035156 C 7.378906 16.527344 7.40625 16 7.457031 15.488281 C 7.53125 14.882812 7.671875 14.292969 7.820312 13.703125 "/>
<path style=" stroke:none;fill-rule:nonzero;fill:rgb(100%,100%,100%);fill-opacity:1;" d="M 21.53125 18.0625 C 21.644531 17.9375 21.824219 17.957031 21.972656 17.980469 C 21.914062 18.109375 21.882812 18.246094 21.910156 18.386719 C 21.769531 18.300781 21.613281 18.214844 21.53125 18.0625 "/>
</g>
</svg>
