<?xml version="1.0" encoding="UTF-8"?>
<svg xmlns="http://www.w3.org/2000/svg" xmlns:xlink="http://www.w3.org/1999/xlink" width="35pt" height="25pt" viewBox="0 0 35 25" version="1.1">
<g id="surface1">
<path style=" stroke:none;fill-rule:nonzero;fill:rgb(0%,0%,0%);fill-opacity:1;" d="M 17.738281 25 C 19.878906 24.105469 26.980469 19.304688 26.980469 10.058594 C 26.980469 6.183594 25.707031 3.46875 25.707031 3.46875 L 23.703125 3.46875 L 23.179688 2.660156 L 22.675781 0.253906 L 17.738281 0 L 12.804688 0.253906 L 12.300781 2.660156 L 11.777344 3.46875 L 9.773438 3.46875 C 9.773438 3.46875 8.5 6.183594 8.5 10.058594 C 8.5 19.304688 15.601562 24.105469 17.738281 25 "/>
<path style=" stroke:none;fill-rule:nonzero;fill:rgb(100%,100%,100%);fill-opacity:1;" d="M 22.761719 2.476562 C 22.652344 1.945312 22.4375 0.929688 22.371094 0.609375 C 21.863281 0.585938 17.777344 0.375 17.738281 0.371094 C 17.703125 0.375 13.617188 0.585938 13.109375 0.609375 C 13.042969 0.929688 12.828125 1.945312 12.71875 2.476562 Z M 22.761719 2.476562 "/>
<path style=" stroke:none;fill-rule:nonzero;fill:rgb(100%,100%,100%);fill-opacity:1;" d="M 17.738281 24.148438 C 18.777344 23.636719 20.777344 22.328125 22.566406 20.167969 C 24.980469 17.25 26.207031 13.847656 26.207031 10.058594 C 26.207031 7.023438 25.394531 4.734375 25.058594 3.84375 L 24.480469 3.84375 C 24.480469 3.84375 25.679688 6.417969 25.679688 10.019531 C 25.679688 18.546875 19.199219 22.84375 17.738281 23.460938 C 16.28125 22.84375 9.800781 18.546875 9.800781 10.019531 C 9.800781 6.417969 11 3.84375 11 3.84375 L 10.421875 3.84375 C 10.085938 4.734375 9.273438 7.023438 9.273438 10.058594 C 9.273438 13.847656 10.5 17.25 12.914062 20.167969 C 14.703125 22.328125 16.703125 23.636719 17.738281 24.148438 "/>
<path style=" stroke:none;fill-rule:nonzero;fill:rgb(100%,100%,100%);fill-opacity:1;" d="M 16.949219 22.167969 C 17.234375 22.371094 17.5 22.542969 17.738281 22.683594 C 17.980469 22.542969 18.246094 22.371094 18.53125 22.167969 L 18.53125 2.78125 L 16.949219 2.78125 Z M 22.101562 2.78125 L 20.386719 2.78125 L 20.386719 20.628906 C 20.78125 20.246094 21.179688 19.820312 21.574219 19.347656 C 21.757812 19.121094 21.933594 18.898438 22.101562 18.667969 Z M 13.378906 18.667969 C 13.546875 18.898438 13.722656 19.121094 13.90625 19.347656 C 14.300781 19.820312 14.699219 20.246094 15.09375 20.628906 L 15.09375 2.78125 L 13.378906 2.78125 Z M 13.378906 18.667969 "/>
<path style=" stroke:none;fill-rule:nonzero;fill:rgb(100%,100%,100%);fill-opacity:1;" d="M 10.5625 10.058594 C 10.5625 11.984375 10.90625 13.800781 11.589844 15.492188 L 11.589844 4.53125 L 11.523438 4.53125 C 11.222656 5.546875 10.5625 7.125 10.5625 10.058594 M 23.957031 4.53125 L 23.890625 4.53125 L 23.890625 15.492188 C 24.574219 13.800781 24.917969 11.984375 24.917969 10.058594 C 24.917969 7.125 24.257812 5.546875 23.957031 4.53125 "/>
<path style=" stroke:none;fill-rule:nonzero;fill:rgb(100%,100%,100%);fill-opacity:1;" d="M 17.925781 4.125 C 17.859375 4.234375 17.828125 4.429688 18.042969 4.734375 C 18.179688 4.929688 18.21875 5.15625 18.144531 5.296875 C 18.070312 5.433594 17.898438 5.457031 17.769531 5.453125 C 17.753906 5.453125 17.355469 5.433594 17.28125 5.09375 C 17.257812 4.980469 17.179688 4.898438 17.070312 4.875 C 16.949219 4.851562 16.820312 4.898438 16.75 4.996094 C 16.671875 5.105469 16.671875 5.246094 16.75 5.382812 C 16.882812 5.613281 16.84375 5.660156 16.757812 5.761719 C 16.71875 5.804688 16.613281 5.878906 16.523438 5.863281 C 16.460938 5.855469 16.40625 5.796875 16.367188 5.695312 C 16.320312 5.582031 16.226562 5.511719 16.121094 5.507812 C 16.019531 5.503906 15.921875 5.566406 15.871094 5.664062 C 15.8125 5.78125 15.835938 5.925781 15.9375 6.050781 C 16.09375 6.242188 16.066406 6.300781 16.054688 6.332031 C 16.015625 6.425781 15.964844 6.882812 15.992188 7.257812 C 16 7.320312 15.96875 7.367188 15.957031 7.375 C 15.894531 7.414062 15.832031 7.507812 15.679688 7.777344 L 15.5625 7.980469 C 15.488281 8.101562 15.417969 8.105469 15.234375 8.101562 L 15.15625 8.101562 C 14.964844 8.101562 14.832031 8.238281 14.785156 8.375 C 14.734375 8.507812 14.765625 8.644531 14.863281 8.722656 C 14.957031 8.796875 15.214844 9.035156 15.351562 9.199219 C 15.414062 9.273438 15.519531 9.316406 15.613281 9.300781 C 15.671875 9.292969 15.785156 9.253906 15.859375 9.089844 C 15.9375 8.914062 16.21875 8.566406 16.503906 8.402344 C 16.777344 8.25 17.15625 8.199219 17.386719 8.445312 C 17.445312 8.507812 17.511719 8.535156 17.582031 8.535156 C 17.695312 8.527344 17.769531 8.441406 17.8125 8.386719 L 17.832031 8.363281 C 17.855469 8.339844 17.957031 8.320312 17.996094 8.332031 C 18.105469 8.363281 18.183594 8.332031 18.25 8.277344 C 18.238281 8.289062 18.230469 8.304688 18.226562 8.324219 C 18.21875 8.34375 18.21875 8.363281 18.21875 8.382812 C 18.21875 8.460938 18.253906 8.53125 18.285156 8.582031 C 18.308594 8.617188 18.3125 8.636719 18.3125 8.644531 C 18.308594 8.640625 18.261719 8.65625 18.1875 8.636719 C 18.148438 8.628906 18.035156 8.601562 17.949219 8.667969 C 17.859375 8.734375 17.851562 8.847656 17.84375 8.945312 L 17.839844 9.003906 C 17.832031 9.109375 17.773438 9.246094 17.691406 9.289062 C 17.675781 9.296875 17.621094 9.328125 17.511719 9.269531 C 17.40625 9.210938 17.28125 9.160156 17.171875 9.222656 C 17.050781 9.289062 17.046875 9.449219 17.039062 9.589844 C 17.035156 9.71875 16.960938 9.835938 16.867188 9.878906 C 16.804688 9.902344 16.746094 9.890625 16.691406 9.84375 C 16.648438 9.804688 16.519531 9.695312 16.375 9.734375 C 16.230469 9.777344 16.179688 9.9375 16.132812 10.078125 L 16.121094 10.117188 C 16.113281 10.132812 16.09375 10.1875 16.003906 10.21875 C 15.855469 10.277344 15.601562 10.242188 15.445312 10.148438 C 15.316406 10.070312 15.203125 10.058594 15.113281 10.109375 C 14.960938 10.195312 14.957031 10.421875 14.957031 10.570312 C 14.957031 10.566406 14.957031 10.59375 14.957031 10.59375 C 14.941406 10.796875 14.921875 11.074219 14.433594 11.101562 C 14.335938 11.105469 14.15625 11.117188 14.09375 11.257812 C 14.027344 11.402344 14.140625 11.578125 14.257812 11.730469 C 14.363281 11.863281 14.40625 11.992188 14.382812 12.097656 C 14.363281 12.175781 14.304688 12.246094 14.222656 12.285156 C 14.222656 12.285156 14.210938 12.292969 14.210938 12.292969 C 14.085938 12.351562 13.96875 12.410156 13.949219 12.535156 C 13.925781 12.65625 14.003906 12.769531 14.128906 12.90625 C 14.179688 12.957031 14.199219 13.007812 14.191406 13.0625 C 14.179688 13.183594 14.058594 13.300781 14.015625 13.328125 C 14.015625 13.328125 13.996094 13.339844 13.996094 13.339844 C 13.929688 13.378906 13.800781 13.453125 13.796875 13.609375 C 13.796875 13.761719 13.925781 13.910156 14.21875 14.085938 C 14.300781 14.132812 14.308594 14.160156 14.308594 14.160156 C 14.3125 14.199219 14.199219 14.332031 14.136719 14.40625 C 14.050781 14.507812 13.941406 14.660156 14.007812 14.804688 C 14.074219 14.953125 14.273438 14.980469 14.457031 14.984375 C 14.796875 14.996094 14.910156 15 14.984375 15.4375 C 15.019531 15.636719 15.113281 15.699219 15.1875 15.71875 C 15.296875 15.742188 15.417969 15.679688 15.511719 15.546875 C 15.523438 15.527344 15.582031 15.503906 15.648438 15.519531 C 15.75 15.542969 15.820312 15.644531 15.847656 15.808594 C 15.859375 15.894531 15.902344 16.152344 16.09375 16.203125 C 16.210938 16.234375 16.339844 16.167969 16.457031 16.023438 C 16.496094 15.976562 16.53125 15.957031 16.539062 15.960938 C 16.539062 15.960938 16.582031 15.976562 16.636719 16.128906 C 16.703125 16.3125 16.800781 16.410156 16.929688 16.425781 C 17.109375 16.441406 17.25 16.277344 17.289062 16.214844 C 17.289062 16.21875 17.292969 16.210938 17.308594 16.210938 C 17.328125 16.210938 17.386719 16.222656 17.480469 16.328125 C 17.714844 16.59375 17.957031 16.683594 18.105469 16.738281 C 18.191406 16.769531 18.261719 16.886719 18.261719 16.933594 C 18.261719 16.9375 18.261719 16.941406 18.261719 16.941406 C 18.257812 16.941406 18.242188 16.964844 18.242188 16.964844 C 18.207031 17.003906 18.160156 17.054688 18.160156 17.128906 C 18.160156 17.136719 18.160156 17.148438 18.164062 17.160156 C 18.179688 17.261719 18.277344 17.320312 18.488281 17.4375 C 18.542969 17.46875 18.59375 17.535156 18.597656 17.585938 L 18.597656 17.589844 C 18.597656 17.601562 18.59375 17.625 18.550781 17.652344 C 18.476562 17.703125 18.378906 17.785156 18.378906 17.898438 C 18.378906 17.902344 18.378906 17.90625 18.378906 17.90625 C 18.382812 18.035156 18.507812 18.105469 18.589844 18.152344 C 18.625 18.171875 18.636719 18.191406 18.640625 18.199219 C 18.636719 18.199219 18.632812 18.207031 18.617188 18.214844 C 18.511719 18.28125 18.496094 18.363281 18.496094 18.40625 C 18.496094 18.410156 18.496094 18.410156 18.496094 18.410156 C 18.5 18.535156 18.613281 18.621094 18.683594 18.664062 C 18.691406 18.667969 18.710938 18.6875 18.710938 18.703125 C 18.710938 18.71875 18.679688 18.765625 18.574219 18.824219 C 18.449219 18.890625 18.414062 18.976562 18.40625 19.039062 C 18.40625 19.046875 18.40625 19.058594 18.40625 19.066406 C 18.40625 19.140625 18.441406 19.214844 18.507812 19.277344 C 18.523438 19.292969 18.527344 19.300781 18.527344 19.300781 C 18.527344 19.300781 18.523438 19.339844 18.425781 19.425781 L 18.40625 19.445312 C 18.40625 19.445312 18.292969 19.582031 17.996094 19.667969 C 17.835938 19.71875 17.777344 19.773438 17.714844 19.847656 L 17.667969 19.894531 C 17.585938 19.96875 17.550781 19.996094 17.410156 19.875 C 17.210938 19.699219 17.066406 19.796875 16.996094 19.847656 L 16.960938 19.867188 C 16.917969 19.890625 16.886719 19.910156 16.761719 19.785156 L 16.726562 19.753906 C 16.570312 19.59375 16.46875 19.492188 16.257812 19.410156 C 16.214844 19.394531 16.183594 19.371094 16.175781 19.347656 C 16.175781 19.34375 16.175781 19.339844 16.175781 19.335938 C 16.175781 19.320312 16.179688 19.304688 16.1875 19.292969 C 16.222656 19.246094 16.234375 19.203125 16.234375 19.164062 C 16.234375 19.078125 16.171875 19.015625 16.136719 18.976562 L 16.101562 18.941406 C 16.09375 18.929688 16.085938 18.902344 16.085938 18.871094 C 16.085938 18.867188 16.085938 18.863281 16.085938 18.859375 C 16.085938 18.824219 16.097656 18.804688 16.105469 18.800781 L 16.132812 18.777344 L 16.148438 18.730469 L 16.144531 18.742188 C 16.144531 18.742188 16.164062 18.707031 16.238281 18.644531 C 16.269531 18.625 16.328125 18.589844 16.457031 18.484375 C 16.507812 18.445312 16.574219 18.464844 16.617188 18.492188 C 16.730469 18.566406 16.808594 18.5625 16.882812 18.546875 C 16.882812 18.546875 16.886719 18.546875 16.886719 18.546875 C 16.890625 18.558594 16.898438 18.570312 16.898438 18.570312 C 16.914062 18.605469 16.925781 18.664062 16.925781 18.703125 C 16.925781 18.710938 16.921875 18.714844 16.921875 18.71875 C 16.914062 18.71875 16.910156 18.71875 16.894531 18.714844 C 16.664062 18.632812 16.546875 18.691406 16.488281 18.75 C 16.421875 18.820312 16.40625 18.921875 16.445312 19.015625 C 16.492188 19.136719 16.601562 19.34375 16.796875 19.375 C 16.925781 19.394531 17.054688 19.324219 17.179688 19.171875 C 17.179688 19.171875 17.203125 19.144531 17.21875 19.128906 C 17.269531 19.128906 17.3125 19.117188 17.34375 19.085938 C 17.425781 19.011719 17.453125 18.835938 17.441406 18.738281 C 17.441406 18.734375 17.507812 18.621094 17.507812 18.621094 C 17.554688 18.480469 17.574219 18.121094 17.339844 17.910156 C 17.207031 17.789062 17.179688 17.730469 17.15625 17.679688 L 17.128906 17.621094 C 17.050781 17.484375 16.929688 17.507812 16.851562 17.527344 L 16.78125 17.539062 C 16.707031 17.550781 16.683594 17.539062 16.597656 17.496094 L 16.535156 17.464844 C 16.335938 17.375 15.996094 17.472656 15.875 17.734375 C 15.804688 17.878906 15.703125 17.984375 15.589844 18.105469 L 15.527344 18.171875 C 15.378906 18.332031 15.25 18.507812 15.402344 18.804688 C 15.460938 18.914062 15.425781 18.953125 15.359375 19.03125 L 15.324219 19.074219 C 15.175781 19.265625 15.332031 19.441406 15.402344 19.515625 C 15.476562 19.601562 15.554688 19.738281 15.5625 19.859375 C 15.578125 20.070312 16.042969 20.796875 16.511719 20.832031 C 16.777344 20.851562 16.789062 20.867188 16.824219 20.902344 L 16.890625 20.96875 C 17.089844 21.132812 17.300781 21.125 17.5 20.945312 C 17.515625 20.933594 17.527344 20.929688 17.542969 20.929688 C 17.570312 20.933594 17.601562 20.949219 17.625 20.980469 C 17.742188 21.128906 18.011719 21.175781 18.285156 20.972656 C 18.332031 20.933594 18.386719 20.917969 18.414062 20.933594 C 18.605469 21.027344 18.75 20.835938 18.851562 20.699219 C 18.960938 20.554688 18.992188 20.550781 19.070312 20.542969 C 19.28125 20.527344 19.324219 20.417969 19.367188 20.242188 C 19.382812 20.1875 19.382812 20.1875 19.523438 20.1875 L 19.550781 20.1875 C 19.585938 20.1875 19.695312 20.1875 19.761719 20.097656 C 19.796875 20.054688 19.8125 20 19.8125 19.941406 C 19.8125 19.871094 19.792969 19.789062 19.769531 19.695312 C 19.769531 19.695312 19.769531 19.691406 19.765625 19.691406 C 19.785156 19.691406 19.804688 19.695312 19.804688 19.695312 L 19.890625 19.703125 C 20.015625 19.710938 20.121094 19.664062 20.164062 19.574219 C 20.183594 19.542969 20.191406 19.507812 20.191406 19.46875 C 20.191406 19.386719 20.148438 19.289062 20.0625 19.183594 C 20.03125 19.148438 20.023438 19.132812 20.023438 19.125 C 20.035156 19.117188 20.066406 19.097656 20.140625 19.085938 C 20.238281 19.066406 20.363281 18.988281 20.394531 18.855469 C 20.398438 18.835938 20.398438 18.816406 20.398438 18.792969 C 20.398438 18.722656 20.371094 18.621094 20.246094 18.527344 C 20.203125 18.496094 20.199219 18.46875 20.199219 18.457031 C 20.199219 18.457031 20.199219 18.457031 20.199219 18.453125 C 20.199219 18.394531 20.269531 18.308594 20.332031 18.265625 C 20.417969 18.203125 20.472656 18.101562 20.484375 17.980469 C 20.488281 17.964844 20.488281 17.949219 20.488281 17.933594 C 20.488281 17.789062 20.421875 17.636719 20.308594 17.523438 C 20.269531 17.480469 20.261719 17.449219 20.261719 17.429688 C 20.261719 17.425781 20.261719 17.421875 20.261719 17.417969 C 20.265625 17.363281 20.316406 17.300781 20.363281 17.269531 C 20.449219 17.210938 20.492188 17.128906 20.492188 17.042969 C 20.492188 17.035156 20.492188 17.023438 20.492188 17.015625 C 20.476562 16.878906 20.359375 16.769531 20.136719 16.675781 C 20.105469 16.664062 20.0625 16.644531 20.0625 16.5625 C 20.0625 16.535156 20.066406 16.503906 20.078125 16.464844 C 20.085938 16.429688 20.09375 16.386719 20.09375 16.339844 C 20.09375 16.296875 20.085938 16.25 20.054688 16.207031 C 19.992188 16.121094 19.890625 16.117188 19.777344 16.113281 L 19.742188 16.109375 C 19.691406 16.105469 19.640625 16.070312 19.617188 16.023438 C 19.613281 16.011719 19.609375 15.996094 19.609375 15.980469 C 19.609375 15.953125 19.621094 15.925781 19.640625 15.898438 C 19.664062 15.871094 19.714844 15.804688 19.714844 15.722656 C 19.714844 15.703125 19.710938 15.679688 19.703125 15.65625 C 19.65625 15.546875 19.53125 15.535156 19.433594 15.523438 L 19.332031 15.511719 C 19.210938 15.472656 19.15625 15.4375 19.15625 15.351562 C 19.15625 15.332031 19.15625 15.308594 19.164062 15.28125 C 19.175781 15.234375 19.183594 15.1875 19.183594 15.140625 C 19.183594 15.089844 19.171875 15.042969 19.140625 15 C 19.085938 14.929688 19.003906 14.925781 18.949219 14.921875 L 18.882812 14.914062 C 18.855469 14.90625 18.773438 14.839844 18.738281 14.738281 C 18.730469 14.703125 18.722656 14.671875 18.722656 14.640625 C 18.722656 14.5625 18.753906 14.484375 18.8125 14.40625 C 18.847656 14.363281 18.863281 14.308594 18.863281 14.257812 C 18.863281 14.203125 18.84375 14.148438 18.808594 14.109375 C 18.777344 14.078125 18.667969 13.984375 18.476562 14.109375 C 18.417969 14.144531 18.148438 14.117188 18.066406 14.015625 C 18.054688 14.003906 18.027344 13.96875 18.117188 13.875 C 18.203125 13.777344 18.242188 13.679688 18.222656 13.585938 C 18.199219 13.476562 18.113281 13.386719 17.953125 13.308594 C 17.902344 13.285156 17.882812 13.253906 17.886719 13.242188 C 17.886719 13.226562 17.9375 13.164062 18.140625 13.121094 C 18.332031 13.082031 18.367188 12.964844 18.371094 12.917969 C 18.386719 12.796875 18.292969 12.679688 18.117188 12.601562 C 18.074219 12.582031 18.066406 12.542969 18.070312 12.527344 C 18.078125 12.515625 18.117188 12.507812 18.183594 12.53125 C 18.34375 12.589844 18.460938 12.578125 18.535156 12.5 C 18.582031 12.453125 18.597656 12.394531 18.597656 12.332031 C 18.597656 12.253906 18.574219 12.175781 18.546875 12.109375 C 18.546875 12.105469 18.542969 12.097656 18.542969 12.078125 C 18.542969 12.039062 18.558594 11.972656 18.632812 11.917969 C 18.808594 11.792969 18.832031 11.824219 18.871094 11.882812 C 18.96875 12.011719 19.167969 12.054688 19.304688 11.96875 C 19.363281 11.933594 19.535156 11.796875 19.367188 11.460938 C 19.3125 11.347656 19.316406 11.246094 19.375 11.183594 C 19.445312 11.113281 19.601562 11.082031 19.792969 11.171875 C 19.925781 11.234375 20.078125 11.203125 20.15625 11.105469 C 20.199219 11.050781 20.277344 10.898438 20.09375 10.667969 C 20.035156 10.59375 20.0625 10.488281 20.105469 10.417969 C 20.175781 10.304688 20.335938 10.195312 20.558594 10.246094 C 20.726562 10.285156 20.9375 10.261719 21.03125 10.113281 C 21.121094 9.980469 21.078125 9.796875 20.90625 9.578125 C 20.824219 9.476562 20.839844 9.410156 20.84375 9.390625 C 20.886719 9.203125 21.21875 9.042969 21.328125 8.992188 L 21.363281 8.972656 C 21.445312 8.933594 21.585938 8.863281 21.585938 8.71875 C 21.589844 8.59375 21.480469 8.484375 21.230469 8.355469 C 21.132812 8.300781 20.984375 8.144531 20.976562 7.976562 C 20.972656 7.84375 21.0625 7.722656 21.242188 7.613281 C 21.390625 7.527344 21.414062 7.335938 21.34375 7.210938 C 21.277344 7.097656 21.128906 7.03125 20.945312 7.132812 L 20.898438 7.160156 C 20.703125 7.273438 20.664062 7.296875 20.507812 7.207031 C 20.433594 7.164062 20.386719 7.066406 20.390625 6.957031 C 20.390625 6.902344 20.410156 6.765625 20.554688 6.695312 C 20.671875 6.636719 20.75 6.515625 20.757812 6.378906 C 20.765625 6.253906 20.707031 6.136719 20.605469 6.074219 C 20.539062 6.03125 20.386719 5.972656 20.15625 6.097656 C 19.945312 6.210938 19.777344 6.25 19.695312 6.203125 C 19.625 6.164062 19.605469 6.058594 19.597656 5.972656 C 19.59375 5.910156 19.648438 5.839844 19.765625 5.765625 C 19.9375 5.652344 19.953125 5.472656 19.878906 5.351562 C 19.800781 5.226562 19.609375 5.152344 19.414062 5.265625 C 19.414062 5.265625 19.386719 5.285156 19.386719 5.285156 C 19.066406 5.480469 18.867188 5.480469 18.738281 5.285156 C 18.738281 5.277344 18.621094 5.070312 18.691406 4.683594 C 18.738281 4.445312 18.710938 4.261719 18.617188 4.132812 C 18.542969 4.03125 18.425781 3.972656 18.277344 3.957031 C 18.128906 3.941406 17.996094 4.003906 17.925781 4.125 "/>
<path style=" stroke:none;fill-rule:nonzero;fill:rgb(0%,0%,0%);fill-opacity:1;" d="M 16.53125 7.132812 C 16.546875 6.882812 16.644531 6.8125 16.726562 6.859375 C 16.804688 6.90625 16.789062 7.09375 16.789062 7.09375 L 16.945312 7.066406 C 16.984375 7 17.042969 6.742188 16.886719 6.617188 C 16.734375 6.496094 16.492188 6.570312 16.40625 6.746094 C 16.316406 6.925781 16.382812 7.15625 16.382812 7.15625 Z M 17.238281 18.296875 C 17.203125 18.203125 17.125 18.164062 17.082031 18.203125 C 17.042969 18.246094 17 18.328125 17.042969 18.367188 C 17.125 18.40625 17.203125 18.449219 17.242188 18.308594 C 17.242188 18.304688 17.242188 18.300781 17.238281 18.296875 M 16.976562 18.019531 C 16.917969 17.871094 16.785156 17.804688 16.71875 17.871094 C 16.652344 17.933594 16.589844 18.066406 16.652344 18.132812 C 16.785156 18.199219 16.917969 18.261719 16.976562 18.039062 C 16.976562 18.03125 16.976562 18.027344 16.976562 18.019531 M 15.9375 18.5 C 15.960938 18.378906 15.847656 18.324219 15.792969 18.378906 C 15.734375 18.4375 15.621094 18.550781 15.679688 18.664062 C 15.792969 18.71875 15.960938 18.664062 15.933594 18.515625 C 15.9375 18.511719 15.9375 18.503906 15.9375 18.5 M 16.382812 18.003906 C 16.410156 17.863281 16.277344 17.792969 16.207031 17.863281 C 16.140625 17.929688 16.003906 18.066406 16.070312 18.203125 C 16.207031 18.269531 16.410156 18.203125 16.382812 18.023438 C 16.382812 18.019531 16.382812 18.011719 16.382812 18.003906 M 15.882812 19.238281 C 15.835938 19.121094 15.734375 19.070312 15.679688 19.121094 C 15.628906 19.171875 15.578125 19.277344 15.628906 19.328125 C 15.734375 19.378906 15.835938 19.429688 15.882812 19.253906 C 15.882812 19.25 15.882812 19.246094 15.882812 19.238281 M 16.117188 19.734375 C 16.074219 19.617188 15.96875 19.566406 15.917969 19.617188 C 15.867188 19.671875 15.816406 19.773438 15.867188 19.824219 C 15.96875 19.875 16.074219 19.925781 16.121094 19.753906 C 16.121094 19.746094 16.121094 19.742188 16.117188 19.734375 M 16.46875 20.105469 C 16.410156 19.960938 16.285156 19.898438 16.222656 19.960938 C 16.160156 20.027344 16.09375 20.152344 16.160156 20.214844 C 16.285156 20.277344 16.410156 20.339844 16.46875 20.125 C 16.46875 20.121094 16.46875 20.113281 16.46875 20.105469 M 16.957031 20.332031 C 16.902344 20.1875 16.777344 20.125 16.710938 20.1875 C 16.648438 20.25 16.585938 20.375 16.648438 20.441406 C 16.777344 20.503906 16.902344 20.566406 16.960938 20.351562 C 16.960938 20.34375 16.960938 20.335938 16.957031 20.332031 M 17.269531 20.386719 C 17.230469 20.65625 17.402344 20.636719 17.5 20.625 C 17.597656 20.617188 17.671875 20.511719 17.605469 20.433594 C 17.5625 20.382812 17.316406 20.074219 17.269531 20.386719 M 17.972656 20.375 C 18.039062 20.464844 18.058594 20.554688 18.089844 20.585938 C 18.132812 20.628906 18.230469 20.59375 18.253906 20.5 C 18.269531 20.429688 18.199219 20.308594 18.148438 20.261719 C 18.019531 20.160156 17.910156 20.296875 17.972656 20.375 M 18.402344 20.128906 C 18.484375 20.207031 18.519531 20.289062 18.554688 20.316406 C 18.601562 20.351562 18.695312 20.300781 18.699219 20.199219 C 18.703125 20.128906 18.613281 20.023438 18.554688 19.988281 C 18.410156 19.910156 18.328125 20.066406 18.402344 20.128906 M 18.757812 19.886719 C 18.867188 19.941406 18.929688 20.015625 18.972656 20.03125 C 19.035156 20.054688 19.113281 19.972656 19.089844 19.871094 C 19.074219 19.792969 18.949219 19.710938 18.875 19.691406 C 18.703125 19.65625 18.664062 19.839844 18.757812 19.886719 M 19.011719 19.582031 C 19.136719 19.617188 19.21875 19.6875 19.265625 19.699219 C 19.335938 19.710938 19.40625 19.609375 19.363281 19.503906 C 19.332031 19.425781 19.183594 19.363281 19.101562 19.351562 C 18.910156 19.34375 18.902344 19.546875 19.011719 19.582031 M 19.058594 18.90625 C 19.046875 18.996094 19.082031 19.050781 19.167969 19.070312 C 19.253906 19.089844 19.273438 19.042969 19.425781 19.078125 C 19.632812 19.125 19.664062 19.050781 19.679688 18.949219 C 19.695312 18.851562 19.609375 18.738281 19.507812 18.765625 C 19.402344 18.792969 19.289062 18.773438 19.289062 18.773438 C 19.289062 18.773438 19.078125 18.710938 19.058594 18.90625 M 19.136719 18.25 C 19.140625 18.351562 19.234375 18.425781 19.351562 18.429688 C 19.511719 18.441406 19.578125 18.476562 19.683594 18.503906 C 19.789062 18.53125 19.988281 18.304688 19.765625 18.113281 C 19.605469 17.980469 19.347656 18.035156 19.347656 18.035156 C 19.261719 18.046875 19.125 18.097656 19.136719 18.25 M 19.109375 17.863281 C 19.109375 17.863281 19.648438 17.796875 19.777344 17.816406 C 19.910156 17.835938 19.960938 17.785156 19.980469 17.65625 C 20 17.523438 19.886719 17.371094 19.765625 17.410156 C 19.640625 17.449219 19.328125 17.515625 19.1875 17.507812 C 19.046875 17.5 18.941406 17.59375 18.9375 17.664062 C 18.929688 17.75 18.972656 17.871094 19.109375 17.863281 M 19.152344 16.976562 C 19.152344 16.976562 18.835938 16.953125 18.886719 17.191406 C 18.894531 17.230469 18.941406 17.339844 19.089844 17.28125 C 19.285156 17.207031 19.414062 17.148438 19.582031 17.144531 C 19.753906 17.136719 19.804688 16.953125 19.710938 16.855469 C 19.671875 16.8125 19.5625 16.800781 19.40625 16.894531 C 19.292969 16.964844 19.261719 16.96875 19.152344 16.976562 M 18.882812 16.238281 C 18.882812 16.238281 18.46875 16.285156 18.582031 16.554688 C 18.660156 16.738281 18.835938 16.71875 18.980469 16.617188 C 19.082031 16.546875 19.097656 16.519531 19.222656 16.488281 C 19.34375 16.457031 19.359375 16.324219 19.3125 16.273438 C 19.238281 16.191406 19.257812 16.203125 19.21875 16.140625 C 19.199219 16.109375 19.144531 16.097656 19.0625 16.15625 C 18.988281 16.210938 18.988281 16.207031 18.882812 16.238281 M 18.515625 15.625 C 18.515625 15.625 18.207031 15.945312 18.128906 16.011719 C 18.003906 16.113281 18.074219 16.261719 18.097656 16.285156 C 18.144531 16.332031 18.226562 16.367188 18.378906 16.226562 C 18.53125 16.085938 18.652344 15.976562 18.75 15.90625 C 18.878906 15.808594 18.875 15.664062 18.820312 15.578125 C 18.761719 15.480469 18.597656 15.53125 18.515625 15.625 M 18.105469 15.199219 C 18.105469 15.199219 17.808594 15.480469 17.628906 15.636719 C 17.453125 15.789062 17.597656 15.957031 17.632812 15.992188 C 17.664062 16.023438 17.8125 16.066406 17.933594 15.898438 C 18.058594 15.726562 18.226562 15.589844 18.355469 15.445312 C 18.488281 15.296875 18.460938 15.140625 18.398438 15.09375 C 18.332031 15.050781 18.242188 15.046875 18.105469 15.199219 M 17.808594 7.191406 C 17.820312 7.136719 17.769531 7.085938 17.761719 7.082031 C 17.75 7.074219 17.671875 7.015625 17.628906 7.121094 C 17.578125 7.238281 17.359375 7.484375 17.273438 7.644531 C 17.214844 7.75 17.296875 7.78125 17.3125 7.789062 C 17.332031 7.796875 17.394531 7.785156 17.445312 7.710938 C 17.492188 7.640625 17.800781 7.234375 17.808594 7.191406 M 17.207031 7.222656 C 17.210938 7.160156 17.148438 7.121094 17.136719 7.113281 C 17.125 7.109375 17.027344 7.0625 17 7.179688 C 16.964844 7.3125 16.769531 7.613281 16.699219 7.796875 C 16.65625 7.917969 16.75 7.9375 16.769531 7.941406 C 16.789062 7.945312 16.855469 7.921875 16.898438 7.835938 C 16.941406 7.753906 17.207031 7.269531 17.207031 7.222656 M 17.09375 6.15625 C 17.039062 6.121094 16.964844 6.144531 16.953125 6.152344 C 16.945312 6.15625 16.847656 6.207031 16.9375 6.296875 C 17.039062 6.402344 17.195312 6.726562 17.324219 6.890625 C 17.40625 6.996094 17.480469 6.933594 17.492188 6.917969 C 17.507812 6.90625 17.527344 6.84375 17.472656 6.753906 C 17.421875 6.679688 17.136719 6.1875 17.09375 6.15625 M 17.445312 5.972656 C 17.390625 5.933594 17.320312 5.957031 17.308594 5.964844 C 17.296875 5.972656 17.199219 6.019531 17.289062 6.109375 C 17.390625 6.214844 17.550781 6.542969 17.675781 6.703125 C 17.761719 6.808594 17.832031 6.746094 17.847656 6.734375 C 17.859375 6.71875 17.878906 6.65625 17.824219 6.570312 C 17.773438 6.492188 17.488281 6.003906 17.445312 5.972656 M 16.941406 15.5 C 16.890625 15.59375 16.953125 15.703125 16.96875 15.71875 C 16.980469 15.734375 17.09375 15.871094 17.21875 15.707031 C 17.367188 15.511719 17.875 15.15625 18.109375 14.902344 C 18.265625 14.738281 18.140625 14.644531 18.109375 14.625 C 18.082031 14.605469 17.972656 14.597656 17.839844 14.710938 C 17.722656 14.8125 16.980469 15.417969 16.941406 15.5 M 17.359375 14.457031 C 16.894531 14.765625 16.476562 14.839844 16.265625 15.09375 C 16.085938 15.308594 16.277344 15.765625 16.570312 15.507812 C 17.453125 14.722656 17.433594 14.78125 17.558594 14.671875 C 17.734375 14.511719 17.554688 14.328125 17.359375 14.457031 M 15.339844 15.136719 C 15.488281 15.257812 15.855469 15.152344 15.96875 15.03125 C 16.082031 14.910156 16.484375 14.597656 16.617188 14.554688 C 16.75 14.515625 16.75 14.371094 16.683594 14.324219 C 16.617188 14.277344 16.496094 14.308594 16.429688 14.355469 C 16.363281 14.402344 16.25 14.414062 16.0625 14.457031 C 15.875 14.496094 15.445312 14.75 15.414062 14.761719 C 15.253906 14.835938 15.195312 15.019531 15.339844 15.136719 M 15.972656 13.867188 C 15.824219 13.917969 15.742188 13.929688 15.328125 13.886719 C 15.085938 13.859375 14.839844 13.847656 14.738281 13.980469 C 14.667969 14.074219 14.554688 14.332031 14.746094 14.511719 C 15.15625 14.894531 16.132812 14.089844 16.132812 14.089844 C 16.25 13.972656 16.121094 13.820312 15.972656 13.867188 M 14.535156 12.949219 C 14.585938 13.066406 14.578125 13.21875 14.480469 13.359375 C 14.378906 13.503906 14.332031 13.664062 14.621094 13.632812 C 14.914062 13.601562 15.507812 13.683594 15.800781 13.6875 C 16.097656 13.695312 16.070312 13.613281 16.097656 13.527344 C 16.121094 13.445312 16.058594 13.359375 15.984375 13.339844 C 15.867188 13.3125 15.71875 13.324219 15.59375 13.261719 C 15.480469 13.203125 15.167969 13 15.035156 12.980469 C 14.90625 12.960938 14.746094 12.84375 14.746094 12.84375 C 14.632812 12.765625 14.484375 12.832031 14.535156 12.949219 M 14.703125 11.933594 C 14.726562 12.050781 14.746094 12.078125 14.703125 12.238281 C 14.609375 12.589844 14.726562 12.609375 14.886719 12.640625 C 15.050781 12.671875 15.109375 12.710938 15.390625 12.789062 C 16.332031 13.050781 16.339844 13.042969 16.371094 12.851562 C 16.386719 12.753906 16.296875 12.722656 16.207031 12.714844 C 15.496094 12.664062 14.914062 11.902344 14.914062 11.902344 C 14.855469 11.785156 14.675781 11.816406 14.703125 11.933594 M 15.191406 10.964844 C 15.113281 11.09375 15.105469 11.121094 15.011719 11.226562 C 14.632812 11.65625 15.632812 12.089844 15.800781 12.144531 C 15.96875 12.199219 16.238281 12.371094 16.238281 12.371094 C 16.859375 12.691406 16.890625 12.199219 16.652344 12.089844 C 16.425781 11.988281 16.015625 11.714844 15.84375 11.453125 C 15.675781 11.191406 15.359375 10.695312 15.191406 10.964844 M 15.757812 10.871094 C 15.757812 10.871094 16.1875 11.390625 16.585938 11.605469 C 16.710938 11.675781 16.699219 11.644531 16.792969 11.746094 C 16.898438 11.855469 17.28125 12.0625 17.425781 11.921875 C 17.574219 11.777344 17.589844 11.652344 17.425781 11.480469 C 17.277344 11.320312 17.214844 11.210938 17.109375 11.023438 C 17.003906 10.835938 16.71875 10.660156 16.644531 10.511719 C 16.589844 10.40625 16.492188 10.183594 16.304688 10.464844 C 16.117188 10.742188 15.613281 10.433594 15.757812 10.871094 M 17.359375 9.886719 C 17.277344 9.964844 17.253906 10.054688 17.109375 10.113281 C 16.960938 10.171875 16.902344 10.308594 17.027344 10.386719 C 17.152344 10.464844 17.367188 10.648438 17.621094 10.933594 C 17.871094 11.214844 17.972656 11 18.0625 10.953125 C 18.152344 10.910156 18.234375 10.773438 18.109375 10.671875 C 17.714844 10.347656 17.539062 9.941406 17.539062 9.941406 C 17.515625 9.839844 17.4375 9.804688 17.359375 9.886719 M 17.953125 9.875 C 18.039062 9.972656 18.257812 10.261719 18.382812 10.515625 C 18.503906 10.765625 18.714844 10.636719 18.765625 10.582031 C 18.816406 10.53125 18.832031 10.441406 18.792969 10.382812 C 18.746094 10.320312 18.707031 10.3125 18.667969 10.199219 C 18.566406 9.886719 18.539062 9.816406 18.476562 9.726562 C 18.433594 9.667969 18.441406 9.6875 18.363281 9.554688 C 18.269531 9.386719 18.066406 9.5 18.066406 9.5 C 17.820312 9.605469 17.867188 9.78125 17.953125 9.875 M 18.417969 9.246094 C 18.523438 9.542969 18.878906 9.832031 18.914062 9.855469 C 18.964844 9.890625 19.019531 9.921875 19.066406 10.011719 C 19.21875 10.320312 19.332031 10.085938 19.34375 10.03125 C 19.363281 9.964844 19.339844 9.917969 19.390625 9.855469 C 19.453125 9.78125 19.484375 9.699219 19.402344 9.644531 C 19.367188 9.621094 19.3125 9.609375 19.238281 9.527344 C 19.050781 9.308594 18.605469 9.039062 18.605469 9.039062 C 18.566406 9.015625 18.3125 8.949219 18.417969 9.246094 M 19.0625 8.667969 C 18.949219 8.667969 18.90625 8.746094 18.902344 8.855469 C 18.894531 9.109375 18.980469 9.019531 19.191406 9.132812 C 19.402344 9.242188 19.457031 9.324219 19.652344 9.507812 C 19.84375 9.691406 20.230469 9.339844 20.066406 9.097656 C 19.890625 8.847656 19.59375 8.785156 19.320312 8.734375 C 19.269531 8.722656 19.171875 8.667969 19.0625 8.667969 M 19.269531 8.503906 C 19.441406 8.597656 19.753906 8.597656 19.964844 8.710938 C 20.152344 8.808594 20.230469 8.824219 20.269531 8.757812 C 20.3125 8.695312 20.351562 8.6875 20.429688 8.648438 C 20.511719 8.605469 20.535156 8.527344 20.480469 8.460938 C 20.421875 8.398438 20.421875 8.425781 20.398438 8.300781 C 20.375 8.160156 20.421875 8.078125 20.132812 8.09375 C 19.847656 8.109375 19.273438 8.238281 19.273438 8.238281 C 19.203125 8.265625 19.039062 8.378906 19.269531 8.503906 M 19.671875 6.785156 C 19.632812 6.769531 19.558594 6.796875 19.484375 6.71875 C 19.378906 6.613281 19.296875 6.664062 19.1875 6.734375 C 19.085938 6.804688 18.785156 7.078125 18.734375 7.300781 C 18.667969 7.589844 18.851562 7.675781 19.050781 7.550781 C 19.253906 7.421875 19.632812 7.078125 19.632812 7.078125 C 19.820312 6.925781 19.722656 6.804688 19.671875 6.785156 M 19.722656 7.246094 C 19.359375 7.484375 19.378906 7.488281 19.109375 7.746094 C 18.960938 7.886719 19.09375 8.167969 19.394531 8.046875 C 19.539062 7.988281 19.652344 7.945312 19.789062 7.914062 C 19.894531 7.886719 19.972656 7.878906 20.082031 7.804688 C 20.21875 7.707031 20.132812 7.644531 20.046875 7.570312 C 19.929688 7.457031 19.949219 7.457031 19.917969 7.308594 C 19.898438 7.207031 19.792969 7.199219 19.722656 7.246094 M 18.675781 5.933594 C 18.675781 5.933594 18.304688 6.308594 18.128906 6.617188 C 18.128906 6.617188 17.988281 6.832031 18.238281 6.949219 C 18.492188 7.070312 18.519531 7.136719 18.71875 6.9375 C 18.917969 6.738281 19.039062 6.632812 19.140625 6.464844 C 19.246094 6.292969 19.171875 6.277344 19.105469 6.183594 C 19.039062 6.085938 19.039062 5.667969 18.675781 5.933594 M 15.15625 8.230469 C 15.371094 8.230469 15.539062 8.261719 15.671875 8.046875 C 15.789062 7.855469 15.964844 7.519531 16.023438 7.488281 C 16.082031 7.453125 16.128906 7.355469 16.121094 7.246094 C 16.09375 6.878906 16.148438 6.445312 16.171875 6.386719 C 16.195312 6.328125 16.246094 6.230469 16.039062 5.96875 C 15.828125 5.710938 16.148438 5.503906 16.246094 5.746094 C 16.417969 6.160156 16.753906 5.960938 16.855469 5.84375 C 16.957031 5.730469 17.039062 5.628906 16.863281 5.320312 C 16.6875 5.011719 17.105469 4.886719 17.15625 5.121094 C 17.25 5.566406 17.765625 5.582031 17.765625 5.582031 C 18.367188 5.601562 18.433594 5.070312 18.148438 4.660156 C 17.859375 4.25 18.070312 4.066406 18.265625 4.085938 C 18.453125 4.105469 18.648438 4.21875 18.566406 4.660156 C 18.480469 5.109375 18.632812 5.351562 18.632812 5.351562 C 18.902344 5.773438 19.386719 5.433594 19.480469 5.378906 C 19.722656 5.238281 19.914062 5.511719 19.695312 5.65625 C 19.601562 5.714844 19.457031 5.828125 19.46875 5.984375 C 19.5 6.359375 19.738281 6.46875 20.214844 6.210938 C 20.636719 5.984375 20.746094 6.453125 20.496094 6.578125 C 20.175781 6.742188 20.207031 7.183594 20.445312 7.320312 C 20.679688 7.453125 20.773438 7.378906 21.007812 7.246094 C 21.246094 7.113281 21.328125 7.414062 21.175781 7.503906 C 20.578125 7.863281 20.9375 8.34375 21.171875 8.46875 C 21.613281 8.699219 21.449219 8.785156 21.304688 8.859375 C 21.164062 8.929688 20.464844 9.226562 20.804688 9.660156 C 21.140625 10.089844 20.804688 10.171875 20.589844 10.121094 C 20.113281 10.007812 19.789062 10.492188 19.992188 10.746094 C 20.199219 11.003906 20.003906 11.128906 19.847656 11.054688 C 19.417969 10.851562 19.058594 11.128906 19.253906 11.515625 C 19.449219 11.90625 19.089844 11.957031 18.976562 11.804688 C 18.863281 11.652344 18.742188 11.679688 18.554688 11.816406 C 18.371094 11.949219 18.421875 12.144531 18.421875 12.144531 C 18.558594 12.480469 18.371094 12.460938 18.226562 12.410156 C 17.910156 12.296875 17.859375 12.625 18.0625 12.71875 C 18.269531 12.808594 18.320312 12.953125 18.113281 12.996094 C 17.652344 13.085938 17.703125 13.335938 17.898438 13.425781 C 18.09375 13.519531 18.164062 13.632812 18.023438 13.785156 C 17.667969 14.164062 18.371094 14.328125 18.546875 14.21875 C 18.71875 14.105469 18.769531 14.246094 18.710938 14.328125 C 18.441406 14.683594 18.710938 14.996094 18.84375 15.039062 C 18.976562 15.078125 19.101562 14.988281 19.039062 15.253906 C 18.976562 15.519531 19.160156 15.59375 19.292969 15.632812 C 19.429688 15.675781 19.695312 15.621094 19.542969 15.816406 C 19.386719 16.011719 19.550781 16.226562 19.734375 16.238281 C 19.921875 16.25 20.003906 16.238281 19.953125 16.433594 C 19.898438 16.628906 19.960938 16.742188 20.085938 16.792969 C 20.4375 16.941406 20.394531 17.089844 20.289062 17.164062 C 20.1875 17.234375 20.035156 17.429688 20.21875 17.613281 C 20.402344 17.800781 20.394531 18.066406 20.257812 18.160156 C 20.125 18.25 19.960938 18.476562 20.167969 18.628906 C 20.371094 18.785156 20.230469 18.9375 20.117188 18.960938 C 20.003906 18.980469 19.777344 19.042969 19.960938 19.265625 C 20.144531 19.492188 20.042969 19.585938 19.898438 19.574219 C 19.757812 19.566406 19.582031 19.492188 19.644531 19.730469 C 19.707031 19.964844 19.707031 20.058594 19.550781 20.058594 C 19.398438 20.058594 19.285156 20.046875 19.242188 20.210938 C 19.203125 20.375 19.179688 20.40625 19.058594 20.417969 C 18.933594 20.425781 18.875 20.457031 18.75 20.621094 C 18.628906 20.785156 18.554688 20.859375 18.472656 20.816406 C 18.390625 20.777344 18.289062 20.804688 18.207031 20.867188 C 18.003906 21.019531 17.804688 21 17.722656 20.898438 C 17.640625 20.796875 17.507812 20.765625 17.417969 20.847656 C 17.238281 21.007812 17.097656 20.96875 16.976562 20.867188 C 16.851562 20.765625 16.914062 20.734375 16.523438 20.703125 C 16.132812 20.671875 15.703125 20.007812 15.691406 19.851562 C 15.679688 19.699219 15.589844 19.535156 15.496094 19.429688 C 15.40625 19.328125 15.351562 19.246094 15.425781 19.152344 C 15.496094 19.0625 15.628906 18.960938 15.515625 18.742188 C 15.40625 18.527344 15.476562 18.414062 15.621094 18.261719 C 15.765625 18.105469 15.898438 17.984375 15.988281 17.789062 C 16.082031 17.59375 16.347656 17.523438 16.480469 17.582031 C 16.617188 17.644531 16.667969 17.6875 16.800781 17.664062 C 16.933594 17.644531 16.976562 17.613281 17.015625 17.6875 C 17.058594 17.757812 17.058594 17.828125 17.253906 18.003906 C 17.445312 18.179688 17.417969 18.488281 17.386719 18.578125 C 17.355469 18.671875 17.304688 18.660156 17.3125 18.753906 C 17.324219 18.847656 17.28125 19.011719 17.230469 19 C 17.179688 18.988281 17.160156 18.988281 17.078125 19.09375 C 16.78125 19.460938 16.605469 19.070312 16.5625 18.96875 C 16.523438 18.867188 16.585938 18.742188 16.851562 18.835938 C 17.117188 18.929688 17.058594 18.609375 17.015625 18.519531 C 16.976562 18.425781 16.945312 18.40625 16.882812 18.414062 C 16.820312 18.425781 16.78125 18.445312 16.6875 18.382812 C 16.59375 18.324219 16.472656 18.3125 16.378906 18.382812 C 16.199219 18.523438 16.164062 18.539062 16.164062 18.539062 C 16.039062 18.640625 16.023438 18.699219 16.023438 18.699219 C 15.941406 18.765625 15.929688 18.941406 16.007812 19.027344 C 16.082031 19.109375 16.136719 19.136719 16.082031 19.222656 C 16.023438 19.308594 16.015625 19.457031 16.210938 19.53125 C 16.40625 19.605469 16.492188 19.699219 16.667969 19.878906 C 16.847656 20.054688 16.941406 20.027344 17.023438 19.980469 C 17.109375 19.933594 17.175781 19.839844 17.324219 19.96875 C 17.558594 20.175781 17.671875 20.0625 17.753906 19.988281 C 17.839844 19.914062 17.847656 19.847656 18.035156 19.792969 C 18.382812 19.6875 18.507812 19.523438 18.507812 19.523438 C 18.703125 19.351562 18.675781 19.257812 18.59375 19.183594 C 18.515625 19.109375 18.496094 19.011719 18.632812 18.9375 C 18.957031 18.761719 18.816406 18.589844 18.746094 18.550781 C 18.679688 18.511719 18.550781 18.410156 18.6875 18.324219 C 18.820312 18.238281 18.78125 18.113281 18.652344 18.039062 C 18.519531 17.964844 18.417969 17.898438 18.621094 17.761719 C 18.828125 17.625 18.6875 17.398438 18.550781 17.324219 C 18.214844 17.140625 18.265625 17.136719 18.363281 17.023438 C 18.453125 16.914062 18.308594 16.675781 18.15625 16.617188 C 18.015625 16.566406 17.792969 16.488281 17.578125 16.242188 C 17.363281 16 17.214844 16.089844 17.179688 16.148438 C 17.144531 16.203125 16.902344 16.488281 16.757812 16.085938 C 16.617188 15.679688 16.421875 15.855469 16.355469 15.941406 C 16.285156 16.027344 16.054688 16.273438 15.972656 15.789062 C 15.894531 15.304688 15.503906 15.335938 15.40625 15.472656 C 15.308594 15.605469 15.15625 15.679688 15.109375 15.414062 C 15.023438 14.890625 14.828125 14.867188 14.460938 14.855469 C 14.097656 14.84375 14.019531 14.742188 14.234375 14.488281 C 14.453125 14.230469 14.53125 14.125 14.285156 13.976562 C 13.671875 13.605469 14.015625 13.488281 14.085938 13.4375 C 14.160156 13.386719 14.480469 13.089844 14.222656 12.816406 C 13.96875 12.542969 14.070312 12.503906 14.28125 12.402344 C 14.492188 12.300781 14.648438 12.019531 14.359375 11.652344 C 14.070312 11.28125 14.230469 11.242188 14.441406 11.230469 C 15.078125 11.195312 15.070312 10.769531 15.085938 10.570312 C 15.085938 10.382812 15.09375 10.089844 15.378906 10.257812 C 15.640625 10.417969 16.144531 10.445312 16.242188 10.15625 C 16.308594 9.957031 16.359375 9.730469 16.605469 9.941406 C 16.851562 10.152344 17.152344 9.910156 17.167969 9.59375 C 17.179688 9.335938 17.207031 9.253906 17.453125 9.382812 C 17.792969 9.566406 17.953125 9.210938 17.96875 9.015625 C 17.984375 8.851562 17.964844 8.71875 18.15625 8.765625 C 18.351562 8.808594 18.527344 8.722656 18.394531 8.515625 C 18.304688 8.367188 18.355469 8.320312 18.425781 8.285156 C 18.492188 8.253906 18.566406 8.15625 18.527344 8.023438 C 18.488281 7.898438 18.328125 7.933594 18.269531 8.035156 C 18.175781 8.210938 18.113281 8.230469 18.03125 8.207031 C 17.953125 8.183594 17.792969 8.210938 17.738281 8.273438 C 17.679688 8.335938 17.601562 8.480469 17.480469 8.355469 C 17.203125 8.0625 16.757812 8.109375 16.441406 8.292969 C 16.121094 8.472656 15.828125 8.84375 15.742188 9.035156 C 15.65625 9.230469 15.507812 9.183594 15.453125 9.117188 C 15.308594 8.945312 15.046875 8.707031 14.945312 8.621094 C 14.8125 8.511719 14.9375 8.230469 15.15625 8.230469 "/>
<path style=" stroke:none;fill-rule:nonzero;fill:rgb(0%,0%,0%);fill-opacity:1;" d="M 13.644531 1.726562 L 14.023438 1.726562 L 13.839844 1.089844 Z M 14.160156 2.207031 L 14.070312 1.882812 L 13.601562 1.882812 L 13.511719 2.207031 L 13.320312 2.207031 L 13.738281 0.882812 L 13.945312 0.882812 L 14.351562 2.207031 Z M 14.160156 2.207031 "/>
<path style=" stroke:none;fill-rule:nonzero;fill:rgb(0%,0%,0%);fill-opacity:1;" d="M 14.570312 2.003906 L 14.746094 2.003906 L 14.746094 2.207031 L 14.570312 2.207031 Z M 14.570312 2.003906 "/>
<path style=" stroke:none;fill-rule:nonzero;fill:rgb(0%,0%,0%);fill-opacity:1;" d="M 15.765625 1.796875 L 15.765625 1.828125 C 15.765625 1.953125 15.734375 2.050781 15.667969 2.121094 C 15.601562 2.191406 15.507812 2.226562 15.390625 2.226562 C 15.332031 2.226562 15.28125 2.21875 15.230469 2.203125 C 15.183594 2.1875 15.144531 2.164062 15.113281 2.136719 C 15.0625 2.089844 15.027344 2.023438 15.007812 1.9375 C 14.988281 1.851562 14.976562 1.710938 14.976562 1.515625 C 14.976562 1.378906 14.984375 1.273438 14.996094 1.203125 C 15.007812 1.128906 15.03125 1.066406 15.0625 1.019531 C 15.089844 0.96875 15.132812 0.933594 15.191406 0.90625 C 15.246094 0.878906 15.3125 0.867188 15.386719 0.867188 C 15.507812 0.867188 15.601562 0.898438 15.664062 0.96875 C 15.726562 1.035156 15.757812 1.132812 15.757812 1.261719 L 15.570312 1.261719 L 15.570312 1.242188 C 15.570312 1.164062 15.554688 1.105469 15.523438 1.066406 C 15.492188 1.027344 15.445312 1.007812 15.382812 1.007812 C 15.339844 1.007812 15.304688 1.015625 15.277344 1.03125 C 15.246094 1.046875 15.222656 1.066406 15.203125 1.097656 C 15.183594 1.128906 15.171875 1.171875 15.164062 1.234375 C 15.15625 1.292969 15.152344 1.410156 15.152344 1.578125 C 15.152344 1.78125 15.167969 1.914062 15.203125 1.984375 C 15.238281 2.050781 15.296875 2.085938 15.382812 2.085938 C 15.449219 2.085938 15.5 2.0625 15.535156 2.019531 C 15.566406 1.972656 15.582031 1.90625 15.582031 1.8125 L 15.582031 1.796875 Z M 15.765625 1.796875 "/>
<path style=" stroke:none;fill-rule:nonzero;fill:rgb(0%,0%,0%);fill-opacity:1;" d="M 15.996094 2.003906 L 16.171875 2.003906 L 16.171875 2.207031 L 15.996094 2.207031 Z M 15.996094 2.003906 "/>
<path style=" stroke:none;fill-rule:nonzero;fill:rgb(0%,0%,0%);fill-opacity:1;" d="M 17.195312 1.796875 L 17.195312 1.828125 C 17.195312 1.953125 17.164062 2.050781 17.097656 2.121094 C 17.03125 2.191406 16.9375 2.226562 16.816406 2.226562 C 16.761719 2.226562 16.710938 2.21875 16.660156 2.203125 C 16.613281 2.1875 16.570312 2.164062 16.542969 2.136719 C 16.492188 2.089844 16.457031 2.023438 16.433594 1.9375 C 16.414062 1.851562 16.40625 1.710938 16.40625 1.515625 C 16.40625 1.378906 16.410156 1.273438 16.425781 1.203125 C 16.4375 1.128906 16.457031 1.066406 16.488281 1.019531 C 16.519531 0.96875 16.5625 0.933594 16.617188 0.90625 C 16.675781 0.878906 16.742188 0.867188 16.816406 0.867188 C 16.9375 0.867188 17.027344 0.898438 17.089844 0.96875 C 17.15625 1.035156 17.1875 1.132812 17.1875 1.261719 L 17 1.261719 L 17 1.242188 C 17 1.164062 16.984375 1.105469 16.953125 1.066406 C 16.921875 1.027344 16.875 1.007812 16.808594 1.007812 C 16.769531 1.007812 16.734375 1.015625 16.703125 1.03125 C 16.675781 1.046875 16.648438 1.066406 16.632812 1.097656 C 16.613281 1.128906 16.597656 1.171875 16.589844 1.234375 C 16.582031 1.292969 16.578125 1.410156 16.578125 1.578125 C 16.578125 1.78125 16.597656 1.914062 16.628906 1.984375 C 16.664062 2.050781 16.722656 2.085938 16.808594 2.085938 C 16.878906 2.085938 16.929688 2.0625 16.960938 2.019531 C 16.996094 1.972656 17.011719 1.90625 17.011719 1.8125 L 17.011719 1.796875 Z M 17.195312 1.796875 "/>
<path style=" stroke:none;fill-rule:nonzero;fill:rgb(0%,0%,0%);fill-opacity:1;" d="M 17.414062 2.207031 L 17.414062 0.882812 L 18.078125 0.882812 L 18.078125 1.027344 L 17.589844 1.027344 L 17.589844 1.453125 L 18.0625 1.453125 L 18.0625 1.601562 L 17.589844 1.601562 L 17.589844 2.0625 L 18.078125 2.0625 L 18.078125 2.207031 Z M 17.414062 2.207031 "/>
<path style=" stroke:none;fill-rule:nonzero;fill:rgb(0%,0%,0%);fill-opacity:1;" d="M 18.214844 1.824219 L 18.40625 1.824219 L 18.40625 1.847656 C 18.40625 1.933594 18.421875 1.992188 18.453125 2.03125 C 18.484375 2.070312 18.535156 2.089844 18.601562 2.089844 C 18.667969 2.089844 18.71875 2.070312 18.761719 2.03125 C 18.804688 1.996094 18.824219 1.945312 18.824219 1.886719 C 18.824219 1.8125 18.742188 1.722656 18.578125 1.621094 C 18.554688 1.605469 18.539062 1.59375 18.527344 1.585938 C 18.398438 1.503906 18.316406 1.4375 18.28125 1.386719 C 18.246094 1.335938 18.230469 1.273438 18.230469 1.199219 C 18.230469 1.097656 18.265625 1.015625 18.339844 0.953125 C 18.410156 0.890625 18.503906 0.859375 18.621094 0.859375 C 18.742188 0.859375 18.832031 0.890625 18.894531 0.949219 C 18.960938 1.007812 18.992188 1.09375 18.992188 1.207031 L 18.992188 1.242188 L 18.808594 1.242188 L 18.808594 1.210938 C 18.808594 1.140625 18.792969 1.089844 18.761719 1.050781 C 18.726562 1.015625 18.679688 0.996094 18.613281 0.996094 C 18.554688 0.996094 18.503906 1.015625 18.46875 1.046875 C 18.429688 1.082031 18.410156 1.125 18.410156 1.175781 C 18.410156 1.261719 18.496094 1.359375 18.671875 1.472656 C 18.703125 1.496094 18.730469 1.511719 18.746094 1.519531 C 18.851562 1.589844 18.921875 1.648438 18.953125 1.695312 C 18.988281 1.742188 19.003906 1.796875 19.003906 1.863281 C 19.003906 1.980469 18.96875 2.070312 18.898438 2.132812 C 18.828125 2.195312 18.730469 2.230469 18.601562 2.230469 C 18.472656 2.230469 18.375 2.199219 18.3125 2.136719 C 18.246094 2.074219 18.214844 1.984375 18.214844 1.863281 C 18.214844 1.859375 18.214844 1.851562 18.214844 1.84375 C 18.214844 1.835938 18.214844 1.828125 18.214844 1.824219 "/>
<path style=" stroke:none;fill-rule:nonzero;fill:rgb(0%,0%,0%);fill-opacity:1;" d="M 19.238281 2.207031 L 19.238281 0.882812 L 19.898438 0.882812 L 19.898438 1.027344 L 19.414062 1.027344 L 19.414062 1.453125 L 19.882812 1.453125 L 19.882812 1.601562 L 19.414062 1.601562 L 19.414062 2.0625 L 19.898438 2.0625 L 19.898438 2.207031 Z M 19.238281 2.207031 "/>
<path style=" stroke:none;fill-rule:nonzero;fill:rgb(0%,0%,0%);fill-opacity:1;" d="M 20.828125 2.054688 C 20.824219 2.011719 20.824219 1.96875 20.820312 1.929688 C 20.820312 1.890625 20.820312 1.851562 20.820312 1.8125 L 20.820312 0.882812 L 20.980469 0.882812 L 20.980469 2.207031 L 20.746094 2.207031 L 20.234375 1.003906 C 20.238281 1.058594 20.242188 1.109375 20.246094 1.148438 C 20.246094 1.1875 20.25 1.222656 20.25 1.25 L 20.25 2.207031 L 20.089844 2.207031 L 20.089844 0.882812 L 20.339844 0.882812 Z M 20.828125 2.054688 "/>
<path style=" stroke:none;fill-rule:nonzero;fill:rgb(0%,0%,0%);fill-opacity:1;" d="M 21.457031 1.726562 L 21.835938 1.726562 L 21.648438 1.089844 Z M 21.96875 2.207031 L 21.878906 1.882812 L 21.410156 1.882812 L 21.320312 2.207031 L 21.128906 2.207031 L 21.546875 0.882812 L 21.753906 0.882812 L 22.160156 2.207031 Z M 21.96875 2.207031 "/>
</g>
</svg>
