<?xml version="1.0" encoding="UTF-8"?>
<svg xmlns="http://www.w3.org/2000/svg" xmlns:xlink="http://www.w3.org/1999/xlink" width="35pt" height="25pt" viewBox="0 0 35 25" version="1.1">
<g id="surface1">
<path style=" stroke:none;fill-rule:nonzero;fill:rgb(100%,83.529412%,0%);fill-opacity:1;" d="M 17.78125 25 C 25.4375 21.871094 28.027344 17.226562 28.027344 17.226562 C 31.1875 12.28125 30.5 0.015625 30.5 0.015625 C 30.5 0.015625 24.8125 2.351562 17.78125 0 C 10.753906 2.351562 5.0625 0.015625 5.0625 0.015625 C 5.0625 0.015625 4.375 12.28125 7.535156 17.226562 C 7.535156 17.226562 10.125 21.871094 17.78125 25 "/>
<path style=" stroke:none;fill-rule:nonzero;fill:rgb(9.019608%,16.078431%,51.372549%);fill-opacity:1;" d="M 8.707031 1.519531 C 7.480469 1.367188 6.496094 1.128906 5.886719 0.953125 C 5.808594 0.933594 5.738281 0.910156 5.667969 0.890625 C 5.652344 1.371094 5.640625 2.035156 5.640625 2.828125 C 5.640625 6.691406 5.957031 13.578125 8.070312 16.882812 L 8.089844 16.914062 C 8.097656 16.925781 8.738281 18.046875 10.277344 19.523438 C 11.664062 20.859375 14.089844 22.757812 17.78125 24.308594 C 21.472656 22.757812 23.898438 20.859375 25.285156 19.523438 C 26.824219 18.046875 27.464844 16.925781 27.472656 16.914062 L 27.492188 16.882812 C 29.605469 13.578125 29.921875 6.691406 29.921875 2.828125 C 29.921875 2.035156 29.910156 1.371094 29.894531 0.890625 C 29.226562 1.09375 28.179688 1.351562 26.855469 1.519531 C 24.730469 1.789062 21.445312 1.851562 17.78125 0.667969 C 14.117188 1.851562 10.832031 1.789062 8.707031 1.519531 "/>
<path style=" stroke:none;fill-rule:nonzero;fill:rgb(100%,83.529412%,0%);fill-opacity:1;" d="M 9.4375 3.035156 C 9.023438 2.980469 8.621094 2.90625 8.222656 2.820312 C 8.222656 2.835938 8.222656 2.851562 8.222656 2.863281 C 8.222656 3.949219 8.246094 5.269531 8.324219 6.679688 C 8.5625 11.046875 9.230469 14.378906 10.195312 16.058594 L 10.257812 16.171875 L 10.246094 16.15625 C 10.253906 16.164062 10.792969 17.183594 12.070312 18.523438 C 13.160156 19.667969 15.007812 21.269531 17.777344 22.644531 C 20.542969 21.269531 22.390625 19.667969 23.480469 18.523438 C 24.757812 17.183594 25.296875 16.164062 25.304688 16.15625 L 25.296875 16.171875 L 25.355469 16.058594 C 26.320312 14.378906 26.988281 11.046875 27.226562 6.679688 C 27.304688 5.269531 27.328125 3.949219 27.328125 2.863281 C 27.328125 2.851562 27.328125 2.835938 27.328125 2.824219 C 25.105469 3.292969 21.667969 3.566406 17.773438 2.269531 C 15.085938 3.160156 12.21875 3.425781 9.4375 3.035156 "/>
<path style=" stroke:none;fill-rule:nonzero;fill:rgb(9.019608%,16.078431%,51.372549%);fill-opacity:1;" d="M 16.203125 19.140625 C 16.203125 19.0625 16.203125 19.011719 16.15625 19.011719 C 16.132812 19.011719 16.011719 19.046875 16.007812 19.046875 C 15.992188 19.046875 15.988281 19.03125 15.988281 19.023438 C 15.988281 19.003906 16 18.996094 16.066406 18.976562 C 16.148438 18.953125 16.246094 18.921875 16.308594 18.890625 C 16.351562 18.871094 16.355469 18.859375 16.371094 18.859375 C 16.398438 18.859375 16.398438 18.878906 16.398438 18.910156 L 16.398438 19.824219 C 16.398438 19.953125 16.421875 19.988281 16.5 19.988281 C 16.558594 19.988281 16.582031 19.988281 16.582031 20.015625 C 16.582031 20.042969 16.554688 20.042969 16.527344 20.042969 C 16.492188 20.042969 16.40625 20.035156 16.257812 20.035156 C 16.179688 20.035156 16.074219 20.042969 16.058594 20.042969 C 16.039062 20.042969 16.015625 20.042969 16.015625 20.019531 C 16.015625 19.988281 16.066406 19.988281 16.085938 19.988281 C 16.195312 19.988281 16.203125 19.953125 16.203125 19.835938 L 16.203125 19.140625 "/>
<path style=" stroke:none;fill-rule:nonzero;fill:rgb(9.019608%,16.078431%,51.372549%);fill-opacity:1;" d="M 17.015625 20.109375 C 16.949219 20.140625 16.804688 20.203125 16.773438 20.203125 C 16.753906 20.203125 16.75 20.191406 16.75 20.183594 C 16.75 20.171875 16.757812 20.164062 16.777344 20.15625 C 16.996094 20.074219 17.414062 19.792969 17.414062 19.339844 C 17.414062 19.089844 17.285156 18.910156 17.140625 18.910156 C 16.988281 18.910156 16.929688 19.089844 16.929688 19.21875 C 16.929688 19.425781 17.058594 19.546875 17.171875 19.546875 C 17.210938 19.546875 17.242188 19.535156 17.269531 19.519531 C 17.273438 19.519531 17.285156 19.515625 17.289062 19.515625 C 17.300781 19.515625 17.308594 19.523438 17.308594 19.535156 C 17.308594 19.558594 17.210938 19.617188 17.09375 19.617188 C 16.871094 19.617188 16.742188 19.4375 16.742188 19.265625 C 16.742188 19.050781 16.921875 18.867188 17.164062 18.867188 C 17.472656 18.867188 17.609375 19.144531 17.609375 19.355469 C 17.609375 19.769531 17.242188 20 17.015625 20.109375 "/>
<path style=" stroke:none;fill-rule:nonzero;fill:rgb(9.019608%,16.078431%,51.372549%);fill-opacity:1;" d="M 18.539062 19.992188 C 18.539062 20.011719 18.535156 20.035156 18.492188 20.035156 L 17.789062 20.035156 C 17.773438 20.035156 17.75 20.03125 17.75 20.011719 C 17.75 19.984375 17.777344 19.957031 17.921875 19.796875 C 18.230469 19.457031 18.320312 19.347656 18.320312 19.183594 C 18.320312 18.964844 18.144531 18.945312 18.089844 18.945312 C 17.976562 18.945312 17.882812 19.011719 17.832031 19.085938 C 17.796875 19.136719 17.789062 19.144531 17.773438 19.144531 C 17.761719 19.144531 17.753906 19.132812 17.753906 19.121094 C 17.753906 19.09375 17.867188 18.867188 18.160156 18.867188 C 18.351562 18.867188 18.539062 18.960938 18.539062 19.148438 C 18.539062 19.320312 18.394531 19.449219 18.359375 19.476562 L 18.074219 19.71875 C 18.015625 19.765625 17.949219 19.832031 17.949219 19.84375 C 17.949219 19.863281 17.960938 19.863281 18 19.863281 L 18.367188 19.863281 C 18.457031 19.863281 18.46875 19.835938 18.484375 19.78125 C 18.492188 19.757812 18.5 19.746094 18.515625 19.746094 C 18.539062 19.746094 18.539062 19.773438 18.539062 19.789062 L 18.539062 19.992188 "/>
<path style=" stroke:none;fill-rule:nonzero;fill:rgb(9.019608%,16.078431%,51.372549%);fill-opacity:1;" d="M 18.980469 20.109375 C 18.914062 20.140625 18.769531 20.203125 18.742188 20.203125 C 18.722656 20.203125 18.71875 20.191406 18.71875 20.183594 C 18.71875 20.171875 18.726562 20.164062 18.746094 20.15625 C 18.960938 20.074219 19.382812 19.792969 19.382812 19.339844 C 19.382812 19.089844 19.25 18.910156 19.105469 18.910156 C 18.953125 18.910156 18.898438 19.089844 18.898438 19.21875 C 18.898438 19.425781 19.023438 19.546875 19.136719 19.546875 C 19.179688 19.546875 19.207031 19.535156 19.234375 19.519531 C 19.242188 19.519531 19.25 19.515625 19.257812 19.515625 C 19.265625 19.515625 19.273438 19.523438 19.273438 19.535156 C 19.273438 19.558594 19.175781 19.617188 19.058594 19.617188 C 18.835938 19.617188 18.707031 19.4375 18.707031 19.265625 C 18.707031 19.050781 18.886719 18.867188 19.128906 18.867188 C 19.441406 18.867188 19.574219 19.144531 19.574219 19.355469 C 19.574219 19.769531 19.207031 20 18.980469 20.109375 "/>
<path style=" stroke:none;fill-rule:nonzero;fill:rgb(9.019608%,16.078431%,51.372549%);fill-opacity:1;" d="M 10.910156 6.167969 L 10.835938 6.113281 L 10.785156 6.125 C 10.695312 6.265625 10.550781 6.402344 10.425781 6.464844 L 10.425781 4.308594 C 10.441406 4.300781 10.453125 4.292969 10.46875 4.28125 C 10.488281 4.261719 10.511719 4.238281 10.566406 4.183594 L 10.816406 3.921875 L 10.816406 3.875 L 10.757812 3.792969 L 10.703125 3.789062 L 10.585938 3.898438 C 10.535156 3.941406 10.496094 3.957031 10.472656 3.957031 C 10.421875 3.960938 10.355469 3.898438 10.285156 3.746094 L 10.226562 3.734375 L 9.246094 4.816406 L 9.246094 4.867188 L 9.316406 4.941406 L 9.371094 4.9375 L 9.554688 4.734375 L 9.554688 6.003906 L 9.453125 6.121094 L 9.453125 6.167969 L 9.523438 6.242188 L 9.574219 6.238281 L 9.929688 5.851562 L 9.9375 5.828125 L 9.9375 4.300781 L 10.027344 4.207031 C 10.101562 4.273438 10.167969 4.300781 10.265625 4.316406 L 10.265625 6.507812 C 10.21875 6.515625 10.1875 6.519531 10.140625 6.519531 C 9.5625 6.515625 9.199219 6.046875 9.199219 5.257812 C 9.199219 4.890625 9.289062 4.523438 9.445312 4.265625 C 9.515625 4.15625 9.601562 4.042969 9.738281 3.875 L 9.742188 3.828125 L 9.667969 3.738281 L 9.613281 3.734375 C 9.394531 3.964844 9.257812 4.117188 9.121094 4.316406 C 8.902344 4.617188 8.78125 5.015625 8.78125 5.421875 C 8.78125 5.851562 8.890625 6.21875 9.089844 6.476562 C 9.285156 6.734375 9.570312 6.886719 9.910156 6.886719 C 10.328125 6.886719 10.679688 6.648438 10.917969 6.214844 Z M 10.910156 6.167969 "/>
<path style=" stroke:none;fill-rule:nonzero;fill:rgb(9.019608%,16.078431%,51.372549%);fill-opacity:1;" d="M 12.066406 6.484375 L 12.066406 5.460938 L 12.273438 5.265625 L 12.273438 5.214844 L 12.210938 5.136719 L 12.15625 5.136719 L 12.054688 5.234375 L 11.859375 5.019531 L 11.808594 5.015625 L 11.351562 5.453125 L 11.351562 4.421875 C 11.351562 4.171875 11.363281 4.132812 11.484375 3.964844 L 11.476562 3.914062 L 11.410156 3.863281 L 11.363281 3.867188 C 11.265625 3.96875 11.199219 4.058594 11.152344 4.171875 C 11.140625 4.121094 11.132812 4.078125 11.117188 4.007812 L 11.070312 3.980469 L 10.988281 4.007812 L 10.964844 4.046875 C 10.996094 4.277344 10.996094 4.253906 10.996094 4.386719 L 10.996094 6.394531 L 10.785156 6.597656 L 10.78125 6.644531 L 10.84375 6.726562 L 10.898438 6.730469 L 11 6.628906 L 11.203125 6.847656 L 11.253906 6.847656 L 11.585938 6.535156 L 11.589844 6.488281 L 11.523438 6.402344 L 11.472656 6.402344 L 11.410156 6.457031 L 11.351562 6.394531 L 11.351562 5.691406 L 11.644531 5.410156 L 11.710938 5.476562 L 11.710938 6.558594 C 11.714844 6.566406 11.71875 6.796875 11.855469 6.882812 L 11.898438 6.875 L 12.1875 6.589844 L 12.175781 6.53125 C 12.128906 6.507812 12.105469 6.496094 12.066406 6.484375 Z M 12.066406 6.484375 "/>
<path style=" stroke:none;fill-rule:nonzero;fill:rgb(9.019608%,16.078431%,51.372549%);fill-opacity:1;" d="M 12.871094 4.445312 L 12.667969 4.238281 L 12.617188 4.238281 L 12.289062 4.554688 L 12.285156 4.605469 L 12.347656 4.679688 L 12.398438 4.683594 L 12.460938 4.628906 L 12.664062 4.839844 L 12.714844 4.839844 L 13.035156 4.523438 L 13.039062 4.480469 L 12.980469 4.394531 L 12.925781 4.390625 Z M 12.871094 4.445312 "/>
<path style=" stroke:none;fill-rule:nonzero;fill:rgb(9.019608%,16.078431%,51.372549%);fill-opacity:1;" d="M 13.019531 6.363281 L 12.9375 6.445312 C 12.894531 6.398438 12.878906 6.335938 12.878906 6.199219 L 12.878906 5.464844 L 13.074219 5.277344 L 13.078125 5.230469 L 13.015625 5.148438 L 12.960938 5.144531 L 12.863281 5.238281 L 12.660156 5.027344 L 12.609375 5.027344 L 12.238281 5.386719 L 12.238281 5.433594 L 12.304688 5.511719 L 12.355469 5.515625 L 12.457031 5.417969 L 12.523438 5.492188 L 12.523438 6.339844 C 12.523438 6.574219 12.585938 6.742188 12.71875 6.855469 L 12.765625 6.855469 L 13.136719 6.496094 L 13.140625 6.449219 L 13.074219 6.367188 Z M 13.019531 6.363281 "/>
<path style=" stroke:none;fill-rule:nonzero;fill:rgb(9.019608%,16.078431%,51.372549%);fill-opacity:1;" d="M 13.972656 5.027344 C 13.738281 5.246094 13.585938 5.308594 13.300781 5.308594 L 13.238281 5.308594 L 13.203125 5.34375 L 13.203125 5.449219 L 13.234375 5.484375 C 13.277344 5.488281 13.308594 5.492188 13.328125 5.492188 C 13.347656 5.492188 13.363281 5.492188 13.382812 5.492188 L 13.382812 6.398438 L 13.195312 6.59375 L 13.191406 6.640625 L 13.253906 6.722656 L 13.308594 6.726562 L 13.386719 6.644531 L 13.683594 6.855469 L 13.722656 6.855469 L 14.328125 6.410156 L 14.335938 6.363281 L 14.28125 6.273438 L 14.230469 6.265625 L 13.890625 6.519531 L 13.738281 6.421875 L 13.738281 6.199219 L 14.449219 5.679688 L 14.457031 5.628906 L 14.027344 5.03125 Z M 13.738281 5.988281 L 13.738281 5.417969 C 13.765625 5.410156 13.78125 5.402344 13.804688 5.390625 L 14.058594 5.746094 Z M 13.738281 5.988281 "/>
<path style=" stroke:none;fill-rule:nonzero;fill:rgb(9.019608%,16.078431%,51.372549%);fill-opacity:1;" d="M 15.835938 5.160156 L 15.722656 5.269531 L 15.503906 5.03125 L 15.453125 5.03125 L 15.121094 5.363281 L 15.117188 5.410156 L 15.179688 5.488281 L 15.230469 5.492188 L 15.300781 5.425781 L 15.394531 5.53125 L 15.394531 6.417969 C 15.273438 6.453125 15.246094 6.464844 15.160156 6.511719 L 15.019531 6.386719 L 15.019531 5.160156 L 14.984375 5.125 C 14.929688 5.125 14.902344 5.121094 14.867188 5.117188 C 14.753906 5.097656 14.679688 5.019531 14.679688 4.925781 C 14.679688 4.847656 14.714844 4.800781 14.832031 4.742188 L 14.851562 4.699219 L 14.820312 4.597656 L 14.773438 4.574219 C 14.570312 4.648438 14.433594 4.847656 14.433594 5.078125 C 14.433594 5.257812 14.515625 5.390625 14.664062 5.476562 L 14.664062 6.386719 L 14.472656 6.578125 L 14.46875 6.625 L 14.535156 6.707031 L 14.585938 6.710938 L 14.675781 6.617188 L 14.964844 6.855469 L 15.015625 6.851562 C 15.191406 6.644531 15.40625 6.558594 15.714844 6.558594 L 15.820312 6.558594 L 15.855469 6.523438 L 15.855469 6.417969 L 15.824219 6.382812 C 15.796875 6.375 15.773438 6.375 15.761719 6.375 C 15.757812 6.375 15.753906 6.375 15.75 6.375 L 15.75 5.480469 L 15.949219 5.285156 L 15.953125 5.238281 L 15.886719 5.160156 Z M 15.835938 5.160156 "/>
<path style=" stroke:none;fill-rule:nonzero;fill:rgb(9.019608%,16.078431%,51.372549%);fill-opacity:1;" d="M 17.324219 5.140625 L 17.222656 5.242188 L 16.957031 5.023438 L 16.910156 5.027344 C 16.679688 5.25 16.511719 5.3125 16.195312 5.3125 L 16.105469 5.3125 L 16.070312 5.347656 L 16.070312 5.453125 L 16.105469 5.488281 L 16.171875 5.488281 L 16.171875 6.40625 L 15.988281 6.589844 L 15.984375 6.636719 L 16.050781 6.71875 L 16.101562 6.722656 L 16.195312 6.628906 L 16.46875 6.855469 L 16.515625 6.855469 C 16.808594 6.613281 16.929688 6.570312 17.277344 6.566406 L 17.3125 6.566406 L 17.347656 6.53125 L 17.347656 6.425781 L 17.3125 6.390625 L 17.25 6.390625 L 17.25 5.453125 L 17.441406 5.269531 L 17.445312 5.21875 L 17.378906 5.144531 Z M 16.894531 5.488281 L 16.894531 6.425781 C 16.816406 6.445312 16.777344 6.460938 16.710938 6.496094 L 16.527344 6.351562 L 16.527344 5.464844 C 16.625 5.4375 16.667969 5.421875 16.753906 5.375 Z M 16.894531 5.488281 "/>
<path style=" stroke:none;fill-rule:nonzero;fill:rgb(9.019608%,16.078431%,51.372549%);fill-opacity:1;" d="M 19.804688 3.996094 L 19.683594 4.082031 L 19.375 3.734375 L 19.324219 3.730469 L 18.765625 4.179688 L 18.765625 3.816406 L 18.730469 3.78125 L 18.636719 3.78125 L 18.601562 3.816406 L 18.601562 4.308594 L 18.488281 4.40625 C 18.484375 4.269531 18.46875 4.175781 18.441406 4.09375 C 18.371094 3.882812 18.195312 3.726562 18.019531 3.722656 C 17.878906 3.722656 17.757812 3.8125 17.667969 3.953125 C 17.574219 4.097656 17.511719 4.296875 17.488281 4.535156 L 17.515625 4.574219 L 17.601562 4.597656 L 17.644531 4.566406 C 17.667969 4.347656 17.792969 4.203125 17.921875 4.207031 C 17.96875 4.207031 18.011719 4.226562 18.046875 4.269531 C 18.09375 4.324219 18.109375 4.371094 18.109375 4.519531 L 18.109375 5.054688 C 18.035156 5.054688 17.988281 5.0625 17.9375 5.082031 C 17.8125 5.132812 17.734375 5.285156 17.734375 5.453125 C 17.734375 5.554688 17.746094 5.628906 17.785156 5.75 L 17.832031 5.773438 L 17.925781 5.734375 L 17.945312 5.6875 C 17.929688 5.644531 17.925781 5.625 17.925781 5.585938 C 17.925781 5.535156 17.941406 5.488281 17.964844 5.457031 C 17.988281 5.425781 18.015625 5.410156 18.046875 5.410156 C 18.074219 5.414062 18.085938 5.417969 18.109375 5.4375 L 18.109375 6.324219 C 17.722656 6.4375 17.46875 6.757812 17.46875 7.144531 C 17.464844 7.53125 17.71875 7.835938 18.089844 7.859375 L 18.125 7.824219 L 18.125 7.722656 L 18.089844 7.6875 C 17.859375 7.679688 17.65625 7.453125 17.65625 7.199219 C 17.660156 6.945312 17.882812 6.734375 18.175781 6.734375 C 18.34375 6.734375 18.527344 6.804688 18.644531 6.917969 L 18.695312 6.914062 C 18.910156 6.667969 19.230469 6.53125 19.566406 6.53125 C 19.636719 6.53125 19.679688 6.535156 19.753906 6.550781 L 19.796875 6.527344 L 19.828125 6.414062 L 19.804688 6.367188 C 19.738281 6.351562 19.707031 6.347656 19.648438 6.34375 L 19.648438 4.34375 L 19.898438 4.140625 L 19.90625 4.09375 L 19.855469 4.007812 Z M 18.601562 4.542969 L 18.601562 6.351562 C 18.5625 6.335938 18.53125 6.328125 18.488281 6.320312 L 18.488281 4.632812 Z M 18.765625 4.976562 C 18.855469 5.007812 18.933594 5.023438 19.027344 5.023438 C 19.105469 5.023438 19.183594 5.007812 19.277344 4.976562 L 19.277344 5.652344 C 19.167969 5.617188 19.09375 5.601562 19.011719 5.601562 C 18.921875 5.601562 18.851562 5.613281 18.765625 5.648438 Z M 19.117188 4.125 L 19.277344 4.308594 L 19.277344 4.789062 C 19.183594 4.832031 19.105469 4.851562 19.019531 4.851562 C 18.90625 4.851562 18.839844 4.832031 18.765625 4.789062 L 18.765625 4.40625 Z M 18.765625 5.839844 C 18.859375 5.792969 18.925781 5.777344 19.027344 5.777344 C 19.105469 5.777344 19.179688 5.792969 19.277344 5.839844 L 19.277344 6.375 C 19.121094 6.410156 19.035156 6.445312 18.917969 6.515625 C 18.855469 6.472656 18.824219 6.453125 18.765625 6.421875 Z M 18.765625 5.839844 "/>
<path style=" stroke:none;fill-rule:nonzero;fill:rgb(9.019608%,16.078431%,51.372549%);fill-opacity:1;" d="M 20.96875 6.265625 L 20.628906 6.519531 L 20.476562 6.421875 L 20.476562 6.199219 L 21.1875 5.679688 L 21.199219 5.628906 L 20.765625 5.03125 L 20.710938 5.027344 C 20.476562 5.246094 20.324219 5.308594 20.039062 5.308594 L 19.976562 5.308594 L 19.941406 5.34375 L 19.941406 5.449219 L 19.972656 5.484375 C 20.015625 5.488281 20.046875 5.492188 20.066406 5.492188 C 20.085938 5.492188 20.101562 5.492188 20.121094 5.492188 L 20.121094 6.398438 L 19.933594 6.59375 L 19.933594 6.640625 L 19.992188 6.722656 L 20.046875 6.726562 L 20.125 6.644531 L 20.421875 6.855469 L 20.460938 6.855469 L 21.066406 6.410156 L 21.074219 6.363281 L 21.023438 6.273438 Z M 20.476562 5.988281 L 20.476562 5.417969 C 20.503906 5.410156 20.519531 5.402344 20.542969 5.390625 L 20.796875 5.746094 Z M 20.476562 5.988281 "/>
<path style=" stroke:none;fill-rule:nonzero;fill:rgb(9.019608%,16.078431%,51.372549%);fill-opacity:1;" d="M 22.339844 5.261719 L 22.261719 5.199219 L 22.210938 5.207031 L 22.167969 5.269531 C 22.160156 5.285156 22.148438 5.292969 22.144531 5.300781 C 22.136719 5.304688 22.132812 5.304688 22.132812 5.304688 C 22.132812 5.304688 22.125 5.304688 22.101562 5.277344 C 22.078125 5.253906 22.042969 5.210938 21.996094 5.136719 L 21.957031 5.085938 L 21.925781 5.035156 L 21.867188 5.03125 L 21.671875 5.316406 C 21.648438 5.230469 21.609375 5.15625 21.519531 5.03125 L 21.464844 5.027344 L 21.082031 5.386719 L 21.078125 5.433594 L 21.144531 5.515625 L 21.195312 5.519531 L 21.277344 5.441406 C 21.324219 5.507812 21.332031 5.5625 21.332031 5.703125 L 21.332031 6.394531 L 21.140625 6.589844 L 21.136719 6.636719 L 21.203125 6.71875 L 21.253906 6.71875 L 21.34375 6.625 L 21.636719 6.855469 L 21.679688 6.855469 L 22.09375 6.53125 L 22.101562 6.484375 L 22.050781 6.398438 L 21.996094 6.390625 L 21.84375 6.507812 L 21.6875 6.390625 L 21.6875 5.597656 L 21.761719 5.492188 C 21.84375 5.585938 21.917969 5.632812 22.007812 5.632812 C 22.078125 5.628906 22.152344 5.585938 22.199219 5.515625 L 22.347656 5.308594 Z M 22.339844 5.261719 "/>
<path style=" stroke:none;fill-rule:nonzero;fill:rgb(9.019608%,16.078431%,51.372549%);fill-opacity:1;" d="M 23.664062 5.140625 L 23.5625 5.242188 L 23.296875 5.023438 L 23.25 5.027344 C 23.019531 5.25 22.851562 5.3125 22.535156 5.3125 L 22.445312 5.3125 L 22.410156 5.347656 L 22.410156 5.453125 L 22.445312 5.488281 L 22.511719 5.488281 L 22.511719 6.40625 L 22.328125 6.589844 L 22.324219 6.636719 L 22.390625 6.71875 L 22.441406 6.722656 L 22.535156 6.628906 L 22.808594 6.855469 L 22.855469 6.855469 C 23.144531 6.609375 23.269531 6.570312 23.617188 6.566406 L 23.652344 6.566406 L 23.6875 6.53125 L 23.6875 6.425781 L 23.652344 6.390625 L 23.589844 6.390625 L 23.589844 5.453125 L 23.78125 5.269531 L 23.785156 5.21875 L 23.71875 5.144531 Z M 23.234375 5.488281 L 23.234375 6.425781 C 23.15625 6.445312 23.117188 6.460938 23.050781 6.496094 L 22.867188 6.351562 L 22.867188 5.464844 C 22.964844 5.4375 23.007812 5.421875 23.09375 5.375 Z M 23.234375 5.488281 "/>
<path style=" stroke:none;fill-rule:nonzero;fill:rgb(9.019608%,16.078431%,51.372549%);fill-opacity:1;" d="M 25.265625 6.367188 L 25.183594 6.449219 C 25.152344 6.394531 25.140625 6.324219 25.140625 6.195312 L 25.140625 5.457031 L 25.339844 5.269531 L 25.347656 5.222656 L 25.285156 5.140625 L 25.230469 5.136719 L 25.128906 5.230469 L 24.933594 5.027344 L 24.882812 5.027344 L 24.414062 5.476562 C 24.40625 5.25 24.367188 5.144531 24.246094 5.027344 L 24.195312 5.027344 L 23.820312 5.378906 L 23.8125 5.425781 L 23.875 5.507812 L 23.929688 5.511719 L 24.019531 5.425781 C 24.042969 5.476562 24.0625 5.570312 24.0625 5.683594 L 24.0625 6.40625 L 23.859375 6.597656 L 23.855469 6.644531 L 23.917969 6.726562 L 23.96875 6.730469 L 24.078125 6.632812 L 24.28125 6.851562 L 24.332031 6.851562 L 24.660156 6.535156 L 24.664062 6.488281 L 24.601562 6.410156 L 24.550781 6.402344 L 24.46875 6.476562 L 24.417969 6.417969 L 24.417969 5.714844 L 24.722656 5.417969 L 24.785156 5.476562 L 24.785156 6.332031 C 24.785156 6.570312 24.835938 6.722656 24.964844 6.851562 L 25.015625 6.855469 L 25.378906 6.503906 L 25.382812 6.453125 L 25.316406 6.371094 Z M 25.265625 6.367188 "/>
<path style=" stroke:none;fill-rule:nonzero;fill:rgb(9.019608%,16.078431%,51.372549%);fill-opacity:1;" d="M 26.722656 6.378906 L 26.671875 6.371094 L 26.585938 6.449219 C 26.550781 6.378906 26.539062 6.304688 26.535156 6.183594 L 26.535156 5.472656 L 26.738281 5.292969 L 26.742188 5.246094 L 26.683594 5.164062 L 26.628906 5.15625 L 26.519531 5.253906 L 26.316406 5.027344 L 26.261719 5.035156 C 26.160156 5.203125 26.039062 5.3125 25.882812 5.382812 C 25.910156 5.34375 25.925781 5.300781 25.925781 5.253906 C 25.925781 5.132812 25.832031 5.03125 25.714844 5.03125 C 25.597656 5.03125 25.507812 5.132812 25.507812 5.261719 C 25.507812 5.351562 25.542969 5.425781 25.640625 5.539062 L 25.816406 5.757812 L 25.671875 5.902344 C 25.472656 6.109375 25.398438 6.242188 25.398438 6.414062 C 25.394531 6.640625 25.527344 6.800781 25.78125 6.863281 L 25.816406 6.851562 L 26.191406 6.488281 C 26.210938 6.632812 26.25 6.734375 26.339844 6.847656 L 26.394531 6.855469 L 26.773438 6.511719 L 26.78125 6.464844 Z M 25.921875 5.890625 L 26.003906 5.992188 L 26.058594 5.996094 L 26.128906 5.925781 L 26.128906 5.878906 L 25.882812 5.570312 C 25.984375 5.539062 26.039062 5.507812 26.128906 5.441406 L 26.183594 5.496094 L 26.183594 6.257812 L 25.933594 6.492188 C 25.816406 6.472656 25.695312 6.34375 25.699219 6.230469 C 25.695312 6.175781 25.75 6.070312 25.84375 5.976562 Z M 25.921875 5.890625 "/>
<path style=" stroke:none;fill-rule:nonzero;fill:rgb(0%,41.568627%,69.803922%);fill-opacity:1;" d="M 10.402344 6.550781 L 10.355469 6.515625 L 10.355469 4.285156 L 10.375 4.253906 C 10.402344 4.242188 10.40625 4.238281 10.421875 4.226562 C 10.4375 4.214844 10.460938 4.1875 10.511719 4.132812 L 10.742188 3.894531 L 10.722656 3.867188 L 10.632812 3.953125 C 10.574219 4 10.523438 4.027344 10.472656 4.027344 C 10.378906 4.027344 10.308594 3.949219 10.242188 3.824219 L 9.320312 4.839844 L 9.34375 4.863281 L 9.5625 4.617188 L 9.625 4.640625 L 9.625 6.015625 L 9.617188 6.039062 L 9.527344 6.140625 L 9.546875 6.164062 L 9.867188 5.8125 L 9.867188 4.285156 L 9.875 4.261719 L 10 4.132812 L 10.050781 4.132812 C 10.136719 4.214844 10.183594 4.234375 10.304688 4.25 L 10.335938 4.285156 L 10.335938 6.539062 L 10.304688 6.574219 C 10.238281 6.585938 10.203125 6.589844 10.140625 6.589844 C 9.832031 6.589844 9.574219 6.460938 9.398438 6.226562 C 9.222656 5.996094 9.125 5.664062 9.125 5.257812 C 9.125 4.878906 9.21875 4.503906 9.386719 4.230469 C 9.453125 4.117188 9.539062 4.007812 9.667969 3.851562 L 9.636719 3.8125 C 9.4375 4.027344 9.308594 4.167969 9.179688 4.355469 C 8.96875 4.644531 8.851562 5.03125 8.851562 5.421875 C 8.855469 6.261719 9.277344 6.816406 9.910156 6.816406 C 10.289062 6.816406 10.613281 6.605469 10.839844 6.207031 L 10.824219 6.195312 C 10.710938 6.351562 10.550781 6.5 10.402344 6.550781 Z M 10.402344 6.550781 "/>
<path style=" stroke:none;fill-rule:nonzero;fill:rgb(0%,41.568627%,69.803922%);fill-opacity:1;" d="M 11.996094 6.511719 L 11.996094 5.445312 L 12.003906 5.417969 L 12.199219 5.238281 L 12.179688 5.214844 L 12.074219 5.3125 L 12.023438 5.308594 L 11.832031 5.09375 L 11.339844 5.5625 L 11.28125 5.535156 L 11.28125 4.421875 C 11.277344 4.1875 11.296875 4.101562 11.40625 3.949219 L 11.394531 3.941406 C 11.277344 4.0625 11.222656 4.164062 11.167969 4.328125 L 11.097656 4.320312 C 11.085938 4.199219 11.078125 4.15625 11.054688 4.0625 L 11.039062 4.066406 C 11.066406 4.261719 11.066406 4.257812 11.066406 4.386719 L 11.066406 6.40625 L 11.054688 6.433594 L 10.855469 6.625 L 10.875 6.648438 L 10.972656 6.550781 L 11.023438 6.550781 L 11.230469 6.773438 L 11.515625 6.503906 L 11.492188 6.480469 L 11.433594 6.535156 L 11.382812 6.53125 L 11.289062 6.433594 L 11.28125 6.40625 L 11.28125 5.675781 L 11.289062 5.652344 L 11.617188 5.332031 L 11.667969 5.332031 L 11.773438 5.4375 L 11.78125 5.464844 L 11.78125 6.558594 C 11.78125 6.558594 11.785156 6.609375 11.804688 6.671875 C 11.816406 6.722656 11.839844 6.773438 11.867188 6.804688 L 12.101562 6.574219 C 12.074219 6.5625 12.058594 6.554688 12.023438 6.546875 Z M 11.996094 6.511719 "/>
<path style=" stroke:none;fill-rule:nonzero;fill:rgb(0%,41.568627%,69.803922%);fill-opacity:1;" d="M 12.964844 6.519531 L 12.914062 6.523438 C 12.835938 6.453125 12.808594 6.363281 12.808594 6.199219 L 12.808594 5.449219 L 12.820312 5.421875 L 13 5.25 L 12.984375 5.222656 L 12.890625 5.316406 L 12.839844 5.3125 L 12.632812 5.101562 L 12.3125 5.414062 L 12.332031 5.4375 L 12.433594 5.339844 L 12.484375 5.34375 L 12.585938 5.453125 L 12.597656 5.476562 L 12.597656 6.339844 C 12.597656 6.546875 12.644531 6.683594 12.742188 6.777344 L 13.0625 6.46875 L 13.042969 6.441406 Z M 12.964844 6.519531 "/>
<path style=" stroke:none;fill-rule:nonzero;fill:rgb(0%,41.568627%,69.803922%);fill-opacity:1;" d="M 12.84375 4.519531 L 12.640625 4.3125 L 12.363281 4.585938 L 12.378906 4.605469 L 12.4375 4.550781 L 12.488281 4.550781 L 12.691406 4.765625 L 12.964844 4.496094 L 12.945312 4.472656 L 12.894531 4.519531 Z M 12.84375 4.519531 "/>
<path style=" stroke:none;fill-rule:nonzero;fill:rgb(0%,41.568627%,69.803922%);fill-opacity:1;" d="M 13.300781 5.378906 L 13.273438 5.378906 L 13.273438 5.417969 C 13.300781 5.421875 13.320312 5.421875 13.328125 5.421875 C 13.363281 5.421875 13.375 5.421875 13.414062 5.417969 L 13.453125 5.453125 L 13.453125 6.414062 L 13.445312 6.4375 L 13.269531 6.621094 L 13.285156 6.644531 L 13.355469 6.574219 L 13.402344 6.570312 L 13.703125 6.785156 L 14.257812 6.371094 L 14.242188 6.34375 L 13.914062 6.589844 L 13.871094 6.59375 L 13.683594 6.46875 L 13.667969 6.441406 L 13.667969 6.179688 L 13.679688 6.152344 L 14.378906 5.640625 L 13.992188 5.105469 C 13.765625 5.3125 13.585938 5.382812 13.300781 5.378906 Z M 14.128906 5.785156 L 13.722656 6.089844 L 13.667969 6.0625 L 13.667969 5.394531 L 13.691406 5.359375 C 13.738281 5.34375 13.753906 5.335938 13.804688 5.316406 L 13.847656 5.328125 L 14.136719 5.734375 Z M 14.128906 5.785156 "/>
<path style=" stroke:none;fill-rule:nonzero;fill:rgb(0%,41.568627%,69.803922%);fill-opacity:1;" d="M 15.746094 5.347656 L 15.695312 5.34375 L 15.476562 5.109375 L 15.191406 5.390625 L 15.210938 5.414062 L 15.277344 5.351562 L 15.328125 5.351562 L 15.453125 5.492188 L 15.464844 5.515625 L 15.464844 6.445312 L 15.4375 6.476562 C 15.285156 6.523438 15.28125 6.527344 15.175781 6.585938 L 15.132812 6.582031 L 14.960938 6.429688 L 14.949219 6.402344 L 14.949219 5.195312 C 14.910156 5.195312 14.882812 5.191406 14.855469 5.1875 C 14.714844 5.164062 14.609375 5.058594 14.609375 4.925781 C 14.605469 4.824219 14.667969 4.75 14.773438 4.691406 L 14.765625 4.65625 C 14.609375 4.730469 14.507812 4.886719 14.507812 5.078125 C 14.507812 5.242188 14.574219 5.34375 14.71875 5.421875 L 14.738281 5.453125 L 14.738281 6.402344 L 14.726562 6.429688 L 14.542969 6.605469 L 14.5625 6.632812 L 14.644531 6.542969 L 14.695312 6.539062 L 14.984375 6.777344 C 15.167969 6.574219 15.40625 6.484375 15.714844 6.484375 L 15.78125 6.484375 L 15.78125 6.449219 C 15.773438 6.449219 15.765625 6.449219 15.761719 6.449219 C 15.75 6.449219 15.734375 6.449219 15.726562 6.449219 L 15.679688 6.417969 L 15.679688 5.46875 L 15.691406 5.441406 L 15.875 5.257812 L 15.855469 5.238281 Z M 15.746094 5.347656 "/>
<path style=" stroke:none;fill-rule:nonzero;fill:rgb(0%,41.568627%,69.803922%);fill-opacity:1;" d="M 17.25 5.316406 L 17.199219 5.316406 L 16.9375 5.097656 C 16.710938 5.316406 16.511719 5.386719 16.195312 5.382812 L 16.140625 5.382812 L 16.140625 5.417969 L 16.207031 5.417969 L 16.246094 5.453125 L 16.246094 6.421875 L 16.234375 6.445312 L 16.058594 6.617188 L 16.082031 6.640625 L 16.167969 6.554688 L 16.214844 6.554688 L 16.492188 6.78125 C 16.769531 6.546875 16.933594 6.492188 17.277344 6.496094 L 17.277344 6.460938 L 17.214844 6.460938 L 17.179688 6.425781 L 17.179688 5.441406 L 17.191406 5.414062 L 17.367188 5.242188 L 17.347656 5.21875 Z M 16.96875 6.453125 L 16.941406 6.488281 C 16.832031 6.515625 16.8125 6.523438 16.722656 6.570312 L 16.683594 6.566406 L 16.46875 6.394531 L 16.457031 6.367188 L 16.457031 5.4375 L 16.484375 5.402344 C 16.605469 5.367188 16.636719 5.359375 16.742188 5.304688 L 16.78125 5.308594 L 16.953125 5.445312 L 16.96875 5.472656 Z M 16.96875 6.453125 "/>
<path style=" stroke:none;fill-rule:nonzero;fill:rgb(0%,41.568627%,69.803922%);fill-opacity:1;" d="M 19.703125 4.160156 L 19.652344 4.152344 L 19.34375 3.808594 L 18.753906 4.28125 L 18.695312 4.253906 L 18.695312 3.851562 L 18.671875 3.851562 L 18.671875 4.324219 L 18.660156 4.351562 L 18.476562 4.507812 L 18.417969 4.480469 C 18.417969 4.304688 18.402344 4.199219 18.371094 4.117188 C 18.3125 3.929688 18.148438 3.792969 18.019531 3.796875 C 17.910156 3.796875 17.808594 3.863281 17.726562 3.992188 C 17.648438 4.117188 17.589844 4.296875 17.5625 4.515625 L 17.578125 4.519531 C 17.617188 4.300781 17.75 4.136719 17.921875 4.136719 C 17.992188 4.136719 18.054688 4.167969 18.101562 4.226562 C 18.160156 4.292969 18.179688 4.371094 18.179688 4.519531 L 18.179688 5.089844 L 18.144531 5.125 C 18.050781 5.125 18.011719 5.128906 17.964844 5.148438 C 17.875 5.179688 17.804688 5.304688 17.804688 5.453125 C 17.804688 5.535156 17.816406 5.59375 17.84375 5.691406 L 17.867188 5.679688 C 17.855469 5.648438 17.851562 5.621094 17.855469 5.585938 C 17.855469 5.457031 17.929688 5.34375 18.046875 5.339844 C 18.046875 5.339844 18.046875 5.339844 18.050781 5.339844 C 18.097656 5.339844 18.136719 5.363281 18.167969 5.394531 L 18.179688 5.421875 L 18.179688 6.351562 L 18.152344 6.386719 C 17.78125 6.484375 17.539062 6.78125 17.539062 7.144531 C 17.539062 7.488281 17.746094 7.746094 18.054688 7.785156 L 18.054688 7.753906 C 17.792969 7.726562 17.585938 7.476562 17.585938 7.199219 C 17.585938 6.902344 17.847656 6.664062 18.175781 6.664062 C 18.351562 6.664062 18.535156 6.730469 18.667969 6.84375 C 18.894531 6.59375 19.222656 6.460938 19.566406 6.460938 C 19.628906 6.457031 19.675781 6.460938 19.738281 6.476562 L 19.75 6.429688 C 19.699219 6.417969 19.675781 6.414062 19.613281 6.410156 L 19.578125 6.375 L 19.578125 4.324219 L 19.59375 4.296875 L 19.832031 4.105469 L 19.8125 4.078125 Z M 18.671875 6.402344 L 18.625 6.4375 C 18.546875 6.40625 18.527344 6.402344 18.445312 6.382812 L 18.417969 6.347656 L 18.417969 4.613281 L 18.429688 4.585938 L 18.613281 4.441406 L 18.671875 4.46875 Z M 19.351562 6.402344 L 19.324219 6.4375 C 19.140625 6.480469 19.066406 6.507812 18.933594 6.589844 L 18.894531 6.585938 C 18.8125 6.527344 18.792969 6.515625 18.714844 6.476562 L 18.695312 6.445312 L 18.695312 5.820312 L 18.714844 5.789062 C 18.824219 5.726562 18.914062 5.707031 19.027344 5.707031 C 19.121094 5.707031 19.214844 5.726562 19.332031 5.789062 L 19.351562 5.820312 Z M 19.351562 5.699219 L 19.304688 5.734375 C 19.167969 5.6875 19.097656 5.671875 19.011719 5.671875 C 18.917969 5.671875 18.851562 5.6875 18.746094 5.734375 L 18.695312 5.699219 L 18.695312 4.925781 L 18.746094 4.890625 C 18.855469 4.9375 18.925781 4.953125 19.027344 4.953125 C 19.109375 4.953125 19.183594 4.9375 19.300781 4.890625 L 19.351562 4.925781 Z M 19.351562 4.808594 L 19.332031 4.839844 C 19.21875 4.898438 19.121094 4.921875 19.019531 4.921875 C 19.019531 4.921875 19.015625 4.921875 19.015625 4.921875 C 18.890625 4.921875 18.800781 4.898438 18.710938 4.839844 L 18.695312 4.808594 L 18.695312 4.390625 L 18.710938 4.363281 L 19.097656 4.046875 L 19.148438 4.050781 L 19.339844 4.269531 L 19.351562 4.292969 Z M 19.351562 4.808594 "/>
<path style=" stroke:none;fill-rule:nonzero;fill:rgb(0%,41.568627%,69.803922%);fill-opacity:1;" d="M 20.652344 6.589844 L 20.609375 6.59375 L 20.421875 6.46875 L 20.40625 6.441406 L 20.40625 6.179688 L 20.421875 6.152344 L 21.117188 5.640625 L 20.730469 5.105469 C 20.503906 5.3125 20.324219 5.382812 20.039062 5.378906 L 20.011719 5.378906 L 20.011719 5.417969 C 20.039062 5.421875 20.058594 5.421875 20.066406 5.421875 C 20.101562 5.421875 20.113281 5.421875 20.152344 5.417969 L 20.191406 5.453125 L 20.191406 6.414062 L 20.183594 6.4375 L 20.007812 6.621094 L 20.027344 6.644531 L 20.09375 6.574219 L 20.140625 6.570312 L 20.441406 6.785156 L 20.996094 6.371094 L 20.980469 6.34375 Z M 20.40625 5.394531 L 20.429688 5.359375 C 20.476562 5.34375 20.492188 5.335938 20.542969 5.316406 L 20.585938 5.328125 L 20.875 5.734375 L 20.871094 5.785156 L 20.460938 6.089844 L 20.40625 6.0625 Z M 20.40625 5.394531 "/>
<path style=" stroke:none;fill-rule:nonzero;fill:rgb(0%,41.568627%,69.803922%);fill-opacity:1;" d="M 22.132812 5.375 C 22.101562 5.375 22.074219 5.355469 22.046875 5.328125 C 22.019531 5.296875 21.984375 5.25 21.9375 5.179688 L 21.898438 5.128906 L 21.898438 5.125 L 21.894531 5.117188 L 21.683594 5.429688 L 21.617188 5.414062 C 21.601562 5.300781 21.582031 5.246094 21.484375 5.105469 L 21.15625 5.414062 L 21.175781 5.441406 L 21.257812 5.359375 L 21.3125 5.363281 C 21.386719 5.460938 21.40625 5.539062 21.40625 5.703125 L 21.40625 6.40625 L 21.394531 6.433594 L 21.210938 6.617188 L 21.230469 6.640625 L 21.316406 6.550781 L 21.363281 6.546875 L 21.65625 6.78125 L 22.023438 6.496094 L 22.007812 6.46875 L 21.863281 6.582031 L 21.820312 6.582031 L 21.632812 6.4375 L 21.617188 6.40625 L 21.617188 5.585938 L 21.625 5.566406 L 21.730469 5.410156 L 21.789062 5.410156 C 21.875 5.523438 21.941406 5.558594 22.007812 5.558594 C 22.046875 5.558594 22.105469 5.53125 22.140625 5.472656 L 22.269531 5.296875 L 22.25 5.277344 L 22.230469 5.308594 C 22.199219 5.351562 22.167969 5.375 22.132812 5.375 Z M 22.132812 5.375 "/>
<path style=" stroke:none;fill-rule:nonzero;fill:rgb(0%,41.568627%,69.803922%);fill-opacity:1;" d="M 23.589844 5.316406 L 23.539062 5.316406 L 23.277344 5.097656 C 23.050781 5.316406 22.851562 5.386719 22.535156 5.382812 L 22.480469 5.382812 L 22.480469 5.417969 L 22.546875 5.417969 L 22.585938 5.453125 L 22.585938 6.421875 L 22.574219 6.445312 L 22.398438 6.617188 L 22.417969 6.640625 L 22.507812 6.554688 L 22.554688 6.554688 L 22.832031 6.78125 C 23.109375 6.546875 23.273438 6.492188 23.617188 6.496094 L 23.617188 6.460938 L 23.554688 6.460938 L 23.519531 6.425781 L 23.519531 5.441406 L 23.53125 5.414062 L 23.707031 5.242188 L 23.6875 5.21875 Z M 23.308594 6.453125 L 23.28125 6.488281 C 23.171875 6.515625 23.152344 6.523438 23.0625 6.570312 L 23.023438 6.566406 L 22.808594 6.394531 L 22.796875 6.367188 L 22.796875 5.4375 L 22.824219 5.402344 C 22.945312 5.367188 22.976562 5.359375 23.082031 5.304688 L 23.121094 5.308594 L 23.292969 5.445312 L 23.308594 5.472656 Z M 23.308594 6.453125 "/>
<path style=" stroke:none;fill-rule:nonzero;fill:rgb(0%,41.568627%,69.803922%);fill-opacity:1;" d="M 25.203125 6.527344 L 25.152344 6.527344 C 25.089844 6.453125 25.066406 6.355469 25.066406 6.195312 L 25.066406 5.441406 L 25.078125 5.414062 L 25.269531 5.238281 L 25.25 5.214844 L 25.152344 5.304688 L 25.101562 5.304688 L 24.90625 5.101562 L 24.40625 5.585938 L 24.34375 5.558594 C 24.339844 5.289062 24.320312 5.210938 24.21875 5.101562 L 23.890625 5.40625 L 23.910156 5.433594 L 24 5.347656 L 24.050781 5.347656 C 24.105469 5.414062 24.132812 5.53125 24.132812 5.683594 L 24.132812 6.421875 L 24.121094 6.449219 L 23.929688 6.625 L 23.949219 6.652344 L 24.058594 6.554688 L 24.105469 6.558594 L 24.308594 6.777344 L 24.585938 6.503906 L 24.570312 6.480469 L 24.492188 6.554688 L 24.441406 6.550781 L 24.355469 6.453125 L 24.34375 6.429688 L 24.34375 5.699219 L 24.355469 5.675781 L 24.699219 5.339844 L 24.746094 5.339844 L 24.84375 5.4375 L 24.855469 5.464844 L 24.855469 6.332031 C 24.855469 6.546875 24.894531 6.667969 24.992188 6.777344 L 25.304688 6.472656 L 25.285156 6.445312 Z M 25.203125 6.527344 "/>
<path style=" stroke:none;fill-rule:nonzero;fill:rgb(0%,41.568627%,69.803922%);fill-opacity:1;" d="M 26.601562 6.53125 L 26.550781 6.523438 C 26.488281 6.429688 26.464844 6.332031 26.464844 6.183594 L 26.464844 5.457031 L 26.476562 5.433594 L 26.667969 5.261719 L 26.648438 5.238281 L 26.542969 5.328125 L 26.492188 5.328125 L 26.296875 5.109375 C 26.164062 5.316406 25.988281 5.441406 25.761719 5.496094 L 25.726562 5.488281 L 25.703125 5.460938 L 25.722656 5.402344 C 25.800781 5.390625 25.851562 5.328125 25.851562 5.253906 C 25.851562 5.171875 25.789062 5.101562 25.714844 5.101562 C 25.640625 5.101562 25.582031 5.164062 25.578125 5.261719 C 25.582031 5.328125 25.601562 5.382812 25.695312 5.496094 L 25.890625 5.738281 L 25.890625 5.785156 L 25.722656 5.953125 C 25.523438 6.160156 25.46875 6.265625 25.46875 6.414062 C 25.472656 6.609375 25.558594 6.722656 25.78125 6.789062 L 26.191406 6.386719 L 26.253906 6.410156 C 26.269531 6.574219 26.292969 6.664062 26.375 6.777344 L 26.703125 6.480469 L 26.6875 6.453125 Z M 26.253906 6.269531 L 26.242188 6.296875 L 25.972656 6.558594 L 25.941406 6.566406 C 25.777344 6.546875 25.628906 6.394531 25.628906 6.230469 C 25.628906 6.140625 25.691406 6.03125 25.792969 5.925781 L 25.898438 5.8125 L 25.953125 5.816406 L 26.035156 5.917969 L 26.054688 5.898438 L 25.796875 5.578125 L 25.8125 5.519531 C 25.957031 5.472656 25.992188 5.457031 26.109375 5.367188 L 26.15625 5.367188 L 26.242188 5.457031 L 26.253906 5.480469 Z M 26.253906 6.269531 "/>
<path style=" stroke:none;fill-rule:nonzero;fill:rgb(9.019608%,16.078431%,51.372549%);fill-opacity:1;" d="M 21.890625 15.101562 C 21.800781 14.917969 21.578125 14.390625 21.5 14.226562 C 21.414062 14.066406 20.933594 13.046875 20.765625 12.785156 C 20.605469 12.519531 20.390625 12.316406 20.0625 12.125 C 19.832031 11.992188 19.613281 11.96875 19.46875 11.96875 C 19.394531 11.96875 19.335938 11.976562 19.3125 11.976562 C 19.238281 11.976562 18.910156 12 18.789062 12.007812 C 18.789062 11.921875 18.789062 11.730469 18.789062 11.554688 C 18.789062 11.296875 18.8125 11.078125 18.828125 10.980469 C 18.859375 10.890625 18.917969 10.835938 18.964844 10.824219 C 19.011719 10.8125 19.070312 10.773438 19.125 10.734375 C 19.179688 10.699219 19.226562 10.664062 19.226562 10.664062 L 19.230469 10.664062 L 19.230469 10.660156 C 19.308594 10.589844 19.398438 10.542969 19.46875 10.515625 C 19.503906 10.5 19.535156 10.492188 19.558594 10.484375 C 19.582031 10.480469 19.59375 10.476562 19.59375 10.476562 C 19.96875 10.398438 20.046875 10.230469 20.058594 10.195312 C 20.066406 10.179688 20.085938 10.160156 20.101562 10.148438 C 20.109375 10.140625 20.121094 10.132812 20.125 10.128906 C 20.398438 10.105469 20.585938 9.953125 20.636719 9.890625 L 20.640625 9.886719 C 20.679688 9.824219 20.796875 9.742188 20.933594 9.683594 C 21.0625 9.636719 21.09375 9.550781 21.089844 9.503906 C 21.089844 9.5 21.089844 9.492188 21.089844 9.488281 C 21.089844 9.488281 21.089844 9.484375 21.089844 9.484375 C 21.085938 9.40625 21.019531 9.371094 20.96875 9.335938 C 20.917969 9.304688 20.867188 9.289062 20.863281 9.285156 L 20.851562 9.28125 L 20.839844 9.285156 C 20.835938 9.285156 20.828125 9.285156 20.824219 9.285156 C 20.792969 9.285156 20.78125 9.269531 20.769531 9.238281 C 20.761719 9.222656 20.761719 9.207031 20.757812 9.195312 C 20.757812 9.183594 20.757812 9.175781 20.757812 9.175781 L 20.757812 9.167969 L 20.753906 9.160156 C 20.714844 9.03125 20.609375 8.980469 20.519531 8.980469 C 20.46875 8.980469 20.421875 8.992188 20.382812 9.007812 C 20.359375 9.015625 20.332031 9.019531 20.300781 9.019531 C 20.238281 9.019531 20.167969 9.003906 20.101562 8.996094 C 20.035156 8.976562 19.992188 8.960938 19.941406 8.957031 C 19.90625 8.957031 19.871094 8.972656 19.84375 8.996094 C 19.769531 9.0625 19.777344 9.164062 19.777344 9.167969 L 19.777344 9.179688 C 19.777344 9.179688 19.78125 9.1875 19.78125 9.203125 C 19.78125 9.207031 19.78125 9.207031 19.78125 9.207031 C 19.769531 9.203125 19.753906 9.195312 19.742188 9.1875 C 19.703125 9.164062 19.664062 9.132812 19.605469 9.132812 C 19.589844 9.132812 19.574219 9.136719 19.558594 9.140625 C 19.492188 9.148438 19.464844 9.148438 19.378906 9.148438 C 19.332031 9.148438 19.289062 9.144531 19.230469 9.144531 C 19.199219 9.144531 19.164062 9.144531 19.121094 9.148438 L 19.113281 9.148438 C 18.988281 9.183594 18.84375 9.269531 18.761719 9.34375 C 18.761719 9.339844 18.761719 9.332031 18.761719 9.328125 C 18.757812 9.253906 18.785156 9.136719 18.785156 9.136719 L 18.785156 9.132812 L 18.789062 9.128906 C 18.792969 9.09375 18.792969 9.054688 18.792969 9.019531 C 18.792969 8.703125 18.636719 8.445312 18.636719 8.441406 L 18.632812 8.4375 L 18.632812 8.433594 C 18.53125 8.3125 18.363281 8.242188 18.183594 8.242188 C 18.125 8.242188 18.066406 8.25 18.007812 8.265625 C 17.738281 8.34375 17.640625 8.578125 17.640625 8.582031 C 17.578125 8.75 17.46875 9.015625 17.46875 9.015625 C 17.445312 9.078125 17.433594 9.136719 17.433594 9.195312 C 17.433594 9.363281 17.523438 9.484375 17.542969 9.507812 C 17.554688 9.527344 17.558594 9.546875 17.558594 9.578125 C 17.558594 9.628906 17.542969 9.695312 17.542969 9.765625 C 17.527344 9.847656 17.472656 9.941406 17.410156 10.011719 C 17.375 10.054688 17.269531 10.085938 17.238281 10.195312 C 17.234375 10.214844 17.210938 10.261719 17.1875 10.300781 C 17.164062 10.335938 17.144531 10.363281 17.144531 10.363281 L 17.140625 10.367188 C 17.128906 10.390625 17.117188 10.40625 17.109375 10.410156 C 17.105469 10.414062 17.105469 10.414062 17.101562 10.414062 C 17.101562 10.414062 17.101562 10.417969 17.101562 10.414062 C 17.097656 10.410156 17.089844 10.402344 17.085938 10.394531 C 17.082031 10.390625 17.082031 10.386719 17.082031 10.386719 C 17.070312 10.324219 17.011719 9.878906 16.949219 9.414062 C 16.882812 8.914062 16.8125 8.382812 16.808594 8.292969 L 16.808594 8.285156 C 16.785156 8.132812 16.664062 7.3125 16.664062 7.308594 L 16.664062 7.300781 L 16.660156 7.292969 C 16.605469 7.195312 16.5625 7.152344 16.503906 7.148438 C 16.460938 7.148438 16.433594 7.179688 16.425781 7.199219 C 16.410156 7.21875 16.40625 7.234375 16.40625 7.238281 L 16.40625 7.242188 C 16.402344 7.261719 16.402344 7.285156 16.402344 7.316406 C 16.402344 7.460938 16.429688 7.730469 16.429688 7.816406 L 16.429688 7.820312 C 16.441406 7.921875 16.671875 10.34375 16.691406 10.550781 C 16.683594 10.5625 16.664062 10.582031 16.644531 10.597656 C 16.621094 10.617188 16.597656 10.632812 16.597656 10.632812 L 16.589844 10.640625 C 16.53125 10.699219 16.511719 10.769531 16.511719 10.832031 C 16.511719 10.933594 16.554688 11.011719 16.554688 11.015625 L 16.558594 11.019531 C 16.582031 11.054688 16.585938 11.066406 16.582031 11.070312 C 16.585938 11.070312 16.578125 11.089844 16.570312 11.125 C 16.550781 11.167969 16.535156 11.238281 16.523438 11.289062 C 15.523438 10.753906 14.542969 10.492188 14.339844 10.441406 C 14.34375 10.410156 14.34375 10.378906 14.34375 10.351562 C 14.34375 9.832031 14.027344 9.636719 13.972656 9.605469 C 13.953125 9.585938 13.933594 9.570312 13.902344 9.570312 C 13.878906 9.566406 13.859375 9.582031 13.851562 9.59375 C 13.828125 9.628906 13.835938 9.65625 13.832031 9.660156 C 13.832031 9.792969 13.804688 9.851562 13.78125 9.878906 C 13.757812 9.902344 13.742188 9.902344 13.738281 9.902344 C 13.675781 9.898438 13.652344 9.871094 13.628906 9.824219 C 13.609375 9.78125 13.601562 9.71875 13.601562 9.664062 C 13.601562 9.613281 13.609375 9.574219 13.609375 9.574219 L 13.617188 9.515625 L 13.558594 9.523438 C 13.351562 9.542969 13.222656 9.652344 13.15625 9.777344 C 13.085938 9.90625 13.074219 10.050781 13.074219 10.160156 C 13.074219 10.257812 13.085938 10.328125 13.085938 10.332031 L 13.085938 10.335938 C 13.089844 10.339844 13.089844 10.34375 13.089844 10.347656 C 13.070312 10.332031 13.046875 10.320312 13.023438 10.320312 C 12.964844 10.324219 12.9375 10.367188 12.917969 10.394531 C 12.902344 10.425781 12.894531 10.453125 12.890625 10.453125 C 12.882812 10.484375 12.878906 10.515625 12.878906 10.546875 C 12.882812 10.75 13.035156 10.957031 13.058594 10.992188 C 13.09375 11.066406 13.105469 11.121094 13.105469 11.164062 C 13.105469 11.203125 13.097656 11.226562 13.089844 11.246094 C 13.082031 11.253906 13.078125 11.257812 13.078125 11.261719 C 13.074219 11.265625 13.074219 11.265625 13.074219 11.265625 L 13.066406 11.273438 L 13.0625 11.285156 C 13.027344 11.390625 13.011719 11.484375 13.011719 11.566406 C 13.011719 11.824219 13.152344 11.957031 13.183594 11.984375 C 13.265625 12.105469 13.285156 12.4375 13.28125 12.566406 C 13.28125 12.601562 13.28125 12.621094 13.28125 12.621094 C 13.28125 12.855469 13.386719 13.007812 13.492188 13.097656 C 13.597656 13.1875 13.699219 13.21875 13.703125 13.21875 C 13.761719 13.238281 13.816406 13.25 13.867188 13.25 C 13.996094 13.25 14.097656 13.191406 14.171875 13.109375 C 14.339844 12.921875 14.398438 12.625 14.421875 12.480469 C 14.625 12.671875 14.753906 13.117188 14.820312 13.574219 C 14.894531 14.074219 14.902344 14.589844 14.902344 14.816406 C 14.902344 14.890625 14.902344 14.933594 14.902344 14.933594 C 14.902344 14.988281 14.898438 15.046875 14.898438 15.101562 C 14.898438 16.042969 15.167969 16.472656 15.171875 16.476562 C 15.25 16.605469 15.355469 16.691406 15.472656 16.75 L 15.269531 17.242188 C 15.269531 17.246094 15.269531 17.246094 15.269531 17.25 C 15.269531 17.253906 15.273438 17.253906 15.277344 17.253906 L 15.722656 17.257812 C 15.726562 17.257812 15.730469 17.253906 15.730469 17.25 L 15.835938 16.855469 C 15.941406 16.871094 16.039062 16.875 16.117188 16.875 C 16.171875 16.875 16.21875 16.871094 16.246094 16.871094 C 16.246094 16.871094 16.265625 16.875 16.300781 16.875 L 16.246094 17.246094 C 16.242188 17.246094 16.246094 17.25 16.246094 17.253906 C 16.25 17.253906 16.25 17.253906 16.253906 17.253906 L 16.648438 17.257812 C 16.652344 17.257812 16.65625 17.253906 16.65625 17.253906 C 16.65625 17.25 16.660156 17.25 16.660156 17.246094 L 16.652344 16.839844 C 16.796875 16.816406 16.960938 16.765625 17.109375 16.679688 C 17.207031 16.625 17.21875 16.535156 17.21875 16.503906 C 17.21875 16.5 17.21875 16.496094 17.21875 16.496094 L 17.25 14.914062 C 17.449219 14.957031 17.652344 14.972656 17.84375 14.972656 C 18.230469 14.972656 18.546875 14.910156 18.546875 14.910156 L 18.554688 14.910156 L 18.5625 14.902344 C 18.578125 14.894531 18.589844 14.890625 18.597656 14.886719 L 18.597656 14.894531 L 18.601562 14.902344 C 18.601562 14.902344 19.335938 16.433594 19.414062 16.601562 C 19.496094 16.765625 19.597656 16.960938 19.722656 17.03125 C 19.789062 17.070312 19.871094 17.085938 19.957031 17.085938 C 20.207031 17.085938 20.523438 16.957031 20.832031 16.792969 L 20.8125 17.03125 L 20.683594 17.195312 C 20.683594 17.199219 20.683594 17.203125 20.683594 17.207031 C 20.683594 17.207031 20.6875 17.210938 20.691406 17.210938 L 21.160156 17.210938 C 21.164062 17.210938 21.164062 17.210938 21.167969 17.207031 C 21.167969 17.207031 21.167969 17.203125 21.167969 17.203125 L 21.140625 16.613281 C 21.1875 16.585938 21.234375 16.558594 21.277344 16.53125 C 21.707031 16.253906 22.046875 15.980469 22.050781 15.980469 L 22.058594 15.972656 L 22.0625 15.960938 C 22.085938 15.910156 22.09375 15.851562 22.09375 15.789062 C 22.09375 15.554688 21.972656 15.265625 21.890625 15.101562 Z M 21.890625 15.101562 "/>
<path style=" stroke:none;fill-rule:nonzero;fill:rgb(100%,83.529412%,0%);fill-opacity:1;" d="M 21.984375 15.917969 C 21.957031 15.9375 21.882812 15.996094 21.769531 16.078125 C 21.359375 16.386719 20.457031 17 19.957031 16.996094 C 19.882812 16.996094 19.816406 16.980469 19.765625 16.953125 C 19.683594 16.914062 19.570312 16.722656 19.496094 16.5625 C 19.417969 16.398438 18.730469 14.96875 18.683594 14.867188 C 18.683594 14.863281 18.679688 14.851562 18.671875 14.839844 C 18.664062 14.820312 18.632812 14.796875 18.597656 14.796875 C 18.574219 14.796875 18.550781 14.808594 18.523438 14.824219 C 18.5 14.828125 18.429688 14.839844 18.328125 14.851562 C 18.203125 14.867188 18.03125 14.882812 17.839844 14.882812 C 17.640625 14.882812 17.421875 14.867188 17.21875 14.8125 L 17.164062 14.800781 L 17.128906 16.5 C 17.128906 16.5 17.128906 16.5 17.128906 16.503906 C 17.125 16.519531 17.125 16.566406 17.066406 16.601562 L 17.085938 16.640625 L 17.066406 16.601562 C 16.785156 16.765625 16.433594 16.785156 16.300781 16.785156 C 16.269531 16.785156 16.25 16.78125 16.25 16.78125 C 16.214844 16.78125 16.171875 16.785156 16.117188 16.785156 C 15.871094 16.785156 15.4375 16.75 15.25 16.429688 C 15.25 16.429688 15.246094 16.425781 15.238281 16.414062 C 15.191406 16.324219 14.988281 15.910156 14.988281 15.101562 C 14.988281 15.046875 14.992188 14.992188 14.992188 14.933594 C 14.992188 14.933594 14.992188 14.890625 14.992188 14.8125 C 14.992188 14.585938 14.984375 14.070312 14.910156 13.5625 C 14.832031 13.054688 14.695312 12.554688 14.410156 12.359375 L 14.347656 12.3125 L 14.34375 12.390625 C 14.34375 12.390625 14.335938 12.4375 14.324219 12.511719 C 14.304688 12.625 14.265625 12.792969 14.191406 12.925781 C 14.113281 13.0625 14.011719 13.160156 13.867188 13.160156 C 13.828125 13.160156 13.78125 13.152344 13.730469 13.132812 C 13.730469 13.132812 13.707031 13.128906 13.675781 13.109375 C 13.570312 13.058594 13.371094 12.925781 13.371094 12.625 C 13.371094 12.625 13.371094 12.601562 13.371094 12.566406 C 13.367188 12.425781 13.363281 12.09375 13.25 11.925781 L 13.242188 11.917969 C 13.242188 11.917969 13.242188 11.917969 13.238281 11.914062 C 13.214844 11.890625 13.101562 11.78125 13.101562 11.566406 C 13.101562 11.496094 13.113281 11.414062 13.144531 11.324219 C 13.160156 11.300781 13.195312 11.25 13.195312 11.164062 C 13.195312 11.105469 13.179688 11.03125 13.136719 10.945312 L 13.132812 10.945312 L 13.132812 10.941406 C 13.132812 10.941406 13.089844 10.886719 13.050781 10.808594 C 13.007812 10.730469 12.96875 10.632812 12.96875 10.546875 C 12.96875 10.523438 12.972656 10.5 12.976562 10.480469 C 12.976562 10.480469 12.984375 10.460938 12.996094 10.4375 C 13 10.429688 13.007812 10.421875 13.015625 10.414062 C 13.019531 10.410156 13.023438 10.410156 13.023438 10.410156 C 13.023438 10.410156 13.027344 10.410156 13.039062 10.421875 C 13.042969 10.425781 13.050781 10.433594 13.066406 10.441406 C 13.078125 10.449219 13.09375 10.460938 13.125 10.460938 C 13.136719 10.464844 13.160156 10.457031 13.171875 10.4375 C 13.1875 10.421875 13.1875 10.40625 13.1875 10.390625 C 13.1875 10.367188 13.183594 10.34375 13.175781 10.3125 C 13.171875 10.300781 13.164062 10.242188 13.164062 10.160156 C 13.164062 10.058594 13.175781 9.925781 13.234375 9.820312 C 13.289062 9.726562 13.367188 9.648438 13.511719 9.621094 C 13.511719 9.632812 13.511719 9.648438 13.511719 9.664062 C 13.511719 9.722656 13.515625 9.796875 13.546875 9.863281 C 13.574219 9.929688 13.636719 9.988281 13.730469 9.992188 C 13.730469 9.992188 13.730469 9.992188 13.738281 9.992188 C 13.757812 9.996094 13.808594 9.988281 13.851562 9.9375 C 13.890625 9.890625 13.917969 9.8125 13.921875 9.683594 L 13.925781 9.683594 C 13.925781 9.683594 13.929688 9.683594 13.9375 9.691406 C 13.996094 9.726562 14.253906 9.898438 14.253906 10.351562 C 14.253906 10.390625 14.253906 10.429688 14.25 10.472656 L 14.246094 10.511719 L 14.28125 10.519531 C 14.285156 10.519531 14.5625 10.585938 14.984375 10.726562 C 15.40625 10.871094 15.96875 11.089844 16.53125 11.398438 L 16.582031 11.425781 L 16.597656 11.367188 C 16.597656 11.367188 16.605469 11.328125 16.617188 11.28125 C 16.628906 11.234375 16.640625 11.179688 16.652344 11.15625 L 16.65625 11.152344 L 16.65625 11.148438 C 16.660156 11.117188 16.671875 11.101562 16.671875 11.070312 C 16.671875 11.035156 16.660156 11.007812 16.632812 10.972656 C 16.632812 10.964844 16.625 10.953125 16.617188 10.933594 C 16.609375 10.90625 16.601562 10.871094 16.601562 10.832031 C 16.601562 10.789062 16.613281 10.742188 16.648438 10.707031 C 16.65625 10.699219 16.679688 10.683594 16.703125 10.667969 C 16.730469 10.640625 16.761719 10.617188 16.78125 10.578125 L 16.785156 10.566406 L 16.785156 10.554688 C 16.785156 10.554688 16.71875 9.894531 16.65625 9.222656 C 16.589844 8.554688 16.527344 7.871094 16.519531 7.8125 C 16.519531 7.714844 16.492188 7.449219 16.492188 7.316406 C 16.492188 7.289062 16.492188 7.269531 16.492188 7.257812 C 16.496094 7.257812 16.496094 7.257812 16.496094 7.253906 C 16.496094 7.25 16.5 7.242188 16.503906 7.238281 C 16.515625 7.242188 16.542969 7.269531 16.578125 7.332031 C 16.589844 7.414062 16.695312 8.148438 16.71875 8.296875 C 16.730469 8.515625 16.992188 10.402344 16.992188 10.40625 L 16.992188 10.410156 L 16.996094 10.414062 C 16.996094 10.417969 17.003906 10.4375 17.019531 10.457031 C 17.03125 10.476562 17.058594 10.503906 17.101562 10.503906 C 17.152344 10.503906 17.1875 10.46875 17.21875 10.414062 C 17.230469 10.394531 17.304688 10.292969 17.324219 10.214844 C 17.332031 10.167969 17.410156 10.132812 17.476562 10.074219 C 17.550781 9.992188 17.613281 9.882812 17.632812 9.777344 L 17.632812 9.769531 C 17.632812 9.714844 17.648438 9.648438 17.648438 9.578125 C 17.648438 9.539062 17.640625 9.496094 17.617188 9.457031 L 17.613281 9.453125 C 17.613281 9.453125 17.609375 9.449219 17.601562 9.433594 C 17.574219 9.398438 17.523438 9.304688 17.523438 9.195312 C 17.523438 9.148438 17.53125 9.101562 17.550781 9.050781 C 17.554688 9.050781 17.664062 8.785156 17.722656 8.613281 C 17.722656 8.613281 17.726562 8.601562 17.738281 8.585938 C 17.773438 8.527344 17.863281 8.398438 18.03125 8.351562 C 18.082031 8.339844 18.132812 8.332031 18.183594 8.332031 C 18.335938 8.332031 18.480469 8.394531 18.5625 8.488281 C 18.5625 8.492188 18.570312 8.507812 18.582031 8.527344 C 18.621094 8.609375 18.703125 8.804688 18.703125 9.019531 C 18.703125 9.050781 18.703125 9.085938 18.699219 9.117188 C 18.695312 9.136719 18.671875 9.242188 18.671875 9.328125 C 18.671875 9.351562 18.671875 9.375 18.679688 9.398438 C 18.683594 9.417969 18.710938 9.449219 18.746094 9.449219 C 18.761719 9.449219 18.777344 9.441406 18.789062 9.4375 L 18.796875 9.433594 L 18.800781 9.429688 C 18.859375 9.367188 19.015625 9.269531 19.132812 9.238281 C 19.171875 9.234375 19.203125 9.234375 19.230469 9.234375 C 19.285156 9.234375 19.324219 9.238281 19.378906 9.238281 C 19.464844 9.238281 19.5 9.238281 19.570312 9.230469 L 19.574219 9.230469 L 19.578125 9.226562 C 19.589844 9.226562 19.597656 9.222656 19.605469 9.222656 C 19.632812 9.222656 19.652344 9.238281 19.695312 9.265625 L 19.699219 9.265625 C 19.71875 9.277344 19.738281 9.289062 19.753906 9.296875 C 19.769531 9.304688 19.78125 9.316406 19.808594 9.316406 C 19.824219 9.320312 19.847656 9.308594 19.855469 9.292969 C 19.863281 9.277344 19.867188 9.265625 19.867188 9.257812 C 19.867188 9.234375 19.871094 9.21875 19.871094 9.203125 C 19.871094 9.183594 19.867188 9.171875 19.867188 9.164062 C 19.867188 9.15625 19.867188 9.140625 19.871094 9.125 C 19.875 9.101562 19.886719 9.078125 19.902344 9.066406 C 19.921875 9.050781 19.929688 9.046875 19.941406 9.046875 C 19.964844 9.046875 20.007812 9.0625 20.082031 9.082031 L 20.085938 9.085938 L 20.089844 9.085938 C 20.148438 9.089844 20.222656 9.109375 20.300781 9.109375 C 20.339844 9.109375 20.378906 9.105469 20.414062 9.089844 C 20.445312 9.082031 20.484375 9.070312 20.519531 9.070312 C 20.582031 9.074219 20.632812 9.089844 20.667969 9.183594 C 20.667969 9.199219 20.671875 9.234375 20.683594 9.269531 C 20.699219 9.316406 20.742188 9.378906 20.824219 9.375 C 20.832031 9.375 20.835938 9.375 20.84375 9.375 C 20.859375 9.382812 20.890625 9.394531 20.925781 9.414062 C 20.945312 9.429688 20.96875 9.445312 20.980469 9.457031 C 20.996094 9.472656 21 9.484375 21 9.484375 C 21 9.484375 21 9.484375 21 9.488281 L 21 9.5 C 21 9.5 21 9.503906 21 9.507812 C 21 9.519531 21.003906 9.558594 20.898438 9.601562 C 20.75 9.664062 20.628906 9.75 20.566406 9.835938 C 20.53125 9.878906 20.351562 10.027344 20.105469 10.039062 L 20.09375 10.039062 L 20.085938 10.046875 C 20.082031 10.050781 20.011719 10.089844 19.976562 10.15625 L 19.972656 10.164062 L 19.972656 10.167969 C 19.972656 10.167969 19.929688 10.3125 19.574219 10.390625 C 19.570312 10.390625 19.347656 10.433594 19.171875 10.59375 C 19.164062 10.601562 19.121094 10.628906 19.074219 10.660156 C 19.023438 10.695312 18.957031 10.734375 18.941406 10.738281 C 18.855469 10.761719 18.78125 10.839844 18.742188 10.953125 L 18.742188 10.960938 C 18.722656 11.066406 18.699219 11.289062 18.699219 11.554688 C 18.699219 11.792969 18.699219 12.054688 18.699219 12.054688 L 18.699219 12.105469 L 18.746094 12.101562 C 18.746094 12.101562 19.230469 12.066406 19.3125 12.066406 C 19.34375 12.066406 19.398438 12.058594 19.46875 12.058594 C 19.605469 12.058594 19.804688 12.082031 20.019531 12.203125 C 20.335938 12.390625 20.535156 12.578125 20.691406 12.835938 C 20.851562 13.085938 21.335938 14.105469 21.421875 14.265625 C 21.496094 14.425781 21.714844 14.953125 21.8125 15.140625 C 21.890625 15.296875 22.003906 15.585938 22.003906 15.789062 C 22.003906 15.835938 21.996094 15.882812 21.984375 15.917969 Z M 21.984375 15.917969 "/>
<path style=" stroke:none;fill-rule:nonzero;fill:rgb(9.019608%,16.078431%,51.372549%);fill-opacity:1;" d="M 16.859375 13.542969 C 16.84375 13.535156 16.824219 13.539062 16.8125 13.550781 L 16.488281 13.828125 C 16.484375 13.835938 16.480469 13.839844 16.476562 13.847656 C 16.433594 13.949219 16.410156 14.019531 16.378906 14.058594 C 16.351562 14.097656 16.308594 14.121094 16.199219 14.132812 L 16.1875 14.136719 C 16.152344 14.148438 16.105469 14.15625 16.050781 14.15625 C 15.945312 14.15625 15.808594 14.132812 15.679688 14.132812 C 15.621094 14.132812 15.601562 14.117188 15.589844 14.105469 C 15.578125 14.089844 15.574219 14.070312 15.574219 14.054688 C 15.574219 14.050781 15.574219 14.046875 15.574219 14.042969 C 16.070312 13.726562 16.246094 13.210938 16.246094 13.207031 C 16.292969 13.085938 16.410156 12.882812 16.515625 12.71875 C 16.617188 12.554688 16.707031 12.421875 16.707031 12.421875 C 16.714844 12.410156 16.71875 12.398438 16.714844 12.386719 C 16.710938 12.363281 16.710938 12.332031 16.710938 12.292969 C 16.710938 12.113281 16.75 11.832031 16.75 11.832031 C 16.75 11.816406 16.746094 11.800781 16.734375 11.789062 C 15.65625 10.910156 14.324219 10.757812 14.015625 10.730469 C 14.050781 10.640625 14.066406 10.542969 14.066406 10.457031 C 14.066406 10.25 13.988281 10.085938 13.984375 10.082031 C 13.980469 10.070312 13.964844 10.058594 13.949219 10.058594 C 13.9375 10.054688 13.921875 10.0625 13.910156 10.074219 C 13.820312 10.179688 13.742188 10.210938 13.679688 10.210938 C 13.617188 10.210938 13.558594 10.175781 13.515625 10.136719 C 13.492188 10.117188 13.476562 10.097656 13.464844 10.082031 C 13.453125 10.070312 13.449219 10.058594 13.449219 10.0625 C 13.4375 10.046875 13.421875 10.039062 13.402344 10.039062 C 13.386719 10.042969 13.371094 10.054688 13.367188 10.074219 C 13.367188 10.074219 13.332031 10.203125 13.332031 10.359375 C 13.332031 10.402344 13.335938 10.453125 13.34375 10.5 C 13.3125 10.5 13.277344 10.503906 13.242188 10.519531 C 13.195312 10.535156 13.148438 10.578125 13.148438 10.644531 C 13.148438 10.671875 13.15625 10.695312 13.167969 10.726562 C 13.171875 10.734375 13.175781 10.738281 13.179688 10.742188 C 13.179688 10.742188 13.191406 10.75 13.207031 10.765625 C 13.25 10.808594 13.34375 10.917969 13.34375 11.054688 C 13.34375 11.085938 13.339844 11.121094 13.328125 11.152344 C 13.28125 11.3125 13.25 11.4375 13.25 11.550781 C 13.25 11.632812 13.265625 11.707031 13.304688 11.78125 C 13.386719 11.949219 13.511719 12.09375 13.515625 12.539062 C 13.511719 12.550781 13.507812 12.582031 13.507812 12.621094 C 13.503906 12.734375 13.558594 12.933594 13.820312 12.992188 C 13.824219 12.992188 13.832031 12.992188 13.847656 12.992188 C 13.886719 12.992188 13.972656 12.976562 14.046875 12.886719 C 14.117188 12.796875 14.179688 12.640625 14.191406 12.359375 L 14.203125 12.300781 C 14.210938 12.238281 14.253906 12.125 14.292969 12.035156 C 14.308594 12.003906 14.320312 11.972656 14.332031 11.949219 L 14.390625 12.050781 C 14.394531 12.058594 14.402344 12.066406 14.410156 12.070312 C 14.738281 12.238281 14.933594 12.679688 15.039062 13.078125 C 15.09375 13.277344 15.125 13.46875 15.144531 13.605469 C 15.15625 13.726562 15.164062 13.808594 15.164062 13.828125 C 15.152344 13.898438 15.148438 13.992188 15.148438 14.105469 C 15.148438 14.746094 15.300781 15.941406 15.300781 15.941406 C 15.304688 15.957031 15.3125 15.972656 15.328125 15.976562 C 15.34375 15.984375 15.359375 15.980469 15.371094 15.972656 L 15.675781 15.761719 C 15.691406 15.75 15.699219 15.730469 15.695312 15.714844 L 15.382812 14.355469 C 15.378906 14.34375 15.378906 14.332031 15.375 14.324219 C 15.382812 14.328125 15.390625 14.335938 15.398438 14.347656 C 15.414062 14.363281 15.425781 14.378906 15.433594 14.386719 C 15.445312 14.421875 15.496094 14.566406 15.550781 14.734375 C 15.609375 14.917969 15.675781 15.132812 15.691406 15.214844 L 15.695312 15.226562 C 15.726562 15.289062 15.769531 15.453125 15.800781 15.601562 C 15.820312 15.691406 15.835938 15.777344 15.84375 15.828125 C 15.804688 15.847656 15.753906 15.894531 15.667969 16.007812 C 15.613281 16.070312 15.585938 16.128906 15.585938 16.191406 C 15.585938 16.261719 15.628906 16.320312 15.679688 16.367188 C 15.730469 16.417969 15.792969 16.457031 15.855469 16.5 C 15.957031 16.558594 16.089844 16.574219 16.222656 16.574219 C 16.402344 16.574219 16.578125 16.546875 16.648438 16.542969 L 16.65625 16.539062 C 16.824219 16.5 16.886719 16.347656 16.890625 16.34375 L 16.894531 16.328125 L 16.886719 13.582031 C 16.886719 13.566406 16.875 13.550781 16.859375 13.542969 Z M 16.859375 13.542969 "/>
<path style=" stroke:none;fill-rule:nonzero;fill:rgb(9.019608%,16.078431%,51.372549%);fill-opacity:1;" d="M 17.152344 12.625 C 17.148438 12.605469 17.132812 12.597656 17.113281 12.597656 L 16.847656 12.597656 C 16.839844 12.597656 16.828125 12.601562 16.820312 12.605469 C 16.699219 12.714844 16.507812 13.03125 16.433594 13.296875 C 16.386719 13.410156 16.242188 13.566406 16.109375 13.6875 C 15.976562 13.8125 15.855469 13.90625 15.855469 13.90625 C 15.84375 13.914062 15.835938 13.929688 15.835938 13.945312 C 15.839844 13.960938 15.847656 13.972656 15.859375 13.980469 C 15.929688 14.015625 15.992188 14.023438 16.046875 14.023438 C 16.132812 14.023438 16.191406 14 16.195312 14 C 16.257812 13.96875 16.308594 13.90625 16.371094 13.824219 C 16.550781 13.578125 16.761719 13.164062 16.761719 13.164062 L 16.765625 13.160156 C 16.792969 13.082031 16.890625 12.953125 16.976562 12.855469 C 17.066406 12.753906 17.144531 12.671875 17.144531 12.671875 C 17.15625 12.660156 17.160156 12.640625 17.152344 12.625 Z M 17.152344 12.625 "/>
<path style=" stroke:none;fill-rule:nonzero;fill:rgb(9.019608%,16.078431%,51.372549%);fill-opacity:1;" d="M 16.9375 12.351562 C 17.0625 12.445312 17.277344 12.4375 17.433594 12.441406 C 17.4375 12.441406 17.441406 12.441406 17.445312 12.441406 C 17.5625 12.441406 17.636719 12.382812 17.671875 12.3125 C 17.710938 12.238281 17.734375 12.160156 17.800781 12.085938 L 17.804688 12.074219 C 17.890625 11.902344 17.914062 11.730469 17.914062 11.589844 C 17.914062 11.398438 17.871094 11.261719 17.867188 11.261719 C 17.863281 11.242188 17.84375 11.230469 17.824219 11.230469 C 17.464844 11.230469 17.089844 11.480469 17.089844 11.484375 L 17.113281 11.519531 L 17.085938 11.484375 C 17.019531 11.539062 16.996094 11.632812 16.96875 11.75 C 16.941406 11.867188 16.921875 12.007812 16.882812 12.136719 C 16.875 12.160156 16.871094 12.1875 16.871094 12.210938 C 16.871094 12.269531 16.898438 12.320312 16.9375 12.351562 Z M 16.9375 12.351562 "/>
<path style=" stroke:none;fill-rule:nonzero;fill:rgb(9.019608%,16.078431%,51.372549%);fill-opacity:1;" d="M 20.632812 13.214844 C 20.292969 12.519531 19.960938 12.441406 19.648438 12.351562 C 19.542969 12.324219 19.433594 12.316406 19.320312 12.316406 C 19.074219 12.316406 18.816406 12.359375 18.632812 12.382812 C 18.609375 12.386719 18.589844 12.386719 18.570312 12.386719 C 18.523438 12.386719 18.496094 12.382812 18.480469 12.378906 C 18.480469 12.375 18.480469 12.375 18.480469 12.371094 C 18.476562 12.347656 18.476562 12.296875 18.476562 12.234375 C 18.476562 11.921875 18.519531 11.269531 18.523438 11.207031 C 18.613281 10.910156 18.636719 10.617188 18.636719 10.386719 C 18.636719 10.132812 18.609375 9.960938 18.609375 9.957031 C 18.558594 9.636719 18.363281 9.574219 18.277344 9.578125 C 18.257812 9.578125 18.242188 9.582031 18.234375 9.582031 C 17.925781 9.601562 17.789062 9.847656 17.785156 9.851562 C 17.777344 9.863281 17.777344 9.878906 17.785156 9.894531 C 17.792969 9.90625 17.808594 9.917969 17.824219 9.917969 L 18.105469 9.9375 C 18.054688 9.980469 17.96875 10.035156 17.851562 10.058594 C 17.582031 10.121094 17.421875 10.4375 17.335938 10.570312 C 17.296875 10.632812 17.246094 10.664062 17.203125 10.679688 C 17.179688 10.6875 17.160156 10.691406 17.148438 10.691406 C 17.136719 10.695312 17.128906 10.695312 17.128906 10.695312 C 17.117188 10.695312 17.105469 10.699219 17.09375 10.710938 C 17.09375 10.714844 17.046875 10.761719 17.046875 10.839844 C 17.046875 10.878906 17.0625 10.921875 17.097656 10.957031 L 17.109375 10.964844 C 17.132812 10.976562 17.15625 10.984375 17.183594 10.984375 C 17.289062 10.980469 17.355469 10.898438 17.511719 10.792969 L 17.515625 10.789062 C 17.6875 10.640625 17.765625 10.445312 17.78125 10.410156 C 17.882812 10.261719 17.964844 10.234375 18.019531 10.234375 C 18.03125 10.234375 18.042969 10.234375 18.054688 10.238281 C 18.039062 10.253906 18.023438 10.269531 18.011719 10.285156 C 17.992188 10.320312 17.972656 10.355469 17.917969 10.429688 C 17.851562 10.5 17.824219 10.5625 17.792969 10.625 C 17.757812 10.6875 17.714844 10.753906 17.609375 10.859375 C 17.410156 11.0625 17.242188 11.085938 17.074219 11.128906 C 17.039062 11.136719 17.011719 11.148438 16.992188 11.164062 C 16.96875 11.175781 16.953125 11.203125 16.953125 11.230469 C 16.957031 11.269531 16.976562 11.289062 16.992188 11.300781 C 17.007812 11.3125 17.023438 11.320312 17.023438 11.320312 L 17.035156 11.328125 C 17.066406 11.332031 17.097656 11.335938 17.128906 11.335938 C 17.28125 11.335938 17.445312 11.265625 17.683594 11.144531 C 17.992188 10.996094 18.125 10.785156 18.128906 10.78125 L 18.128906 10.773438 C 18.195312 10.640625 18.285156 10.53125 18.359375 10.453125 C 18.359375 10.453125 18.359375 10.449219 18.363281 10.449219 C 18.363281 10.449219 18.363281 10.449219 18.363281 10.453125 C 18.359375 10.503906 18.359375 10.550781 18.328125 10.648438 C 18.292969 10.742188 18.222656 10.863281 18.164062 10.957031 C 18.101562 11.050781 18.050781 11.121094 18.050781 11.121094 C 18.046875 11.128906 18.042969 11.144531 18.042969 11.15625 C 18.050781 11.179688 18.050781 11.21875 18.050781 11.265625 C 18.050781 11.503906 17.992188 11.9375 17.992188 11.9375 C 17.992188 11.949219 17.996094 11.960938 18 11.96875 C 18.046875 12.03125 18.195312 12.351562 18.339844 12.683594 C 18.488281 13.019531 18.640625 13.367188 18.710938 13.511719 C 18.84375 13.777344 19.191406 14.539062 19.234375 14.714844 C 19.234375 14.730469 19.238281 14.746094 19.238281 14.761719 C 19.238281 14.824219 19.21875 14.867188 19.203125 14.898438 C 19.195312 14.910156 19.191406 14.917969 19.183594 14.925781 C 19.144531 14.910156 19.082031 14.851562 19.039062 14.792969 C 18.980469 14.722656 18.941406 14.65625 18.941406 14.65625 C 18.933594 14.636719 18.910156 14.628906 18.890625 14.636719 C 18.871094 14.644531 18.855469 14.664062 18.859375 14.683594 C 18.867188 14.742188 18.910156 14.851562 18.976562 15.007812 C 19.179688 15.476562 19.585938 16.285156 19.742188 16.519531 C 19.800781 16.609375 19.851562 16.667969 19.898438 16.707031 C 19.941406 16.746094 19.988281 16.761719 20.035156 16.761719 C 20.105469 16.761719 20.15625 16.734375 20.226562 16.710938 C 20.335938 16.679688 20.449219 16.578125 20.539062 16.480469 C 20.625 16.394531 20.6875 16.3125 20.695312 16.296875 C 20.796875 16.191406 20.832031 16.066406 20.832031 15.949219 C 20.832031 15.804688 20.78125 15.671875 20.726562 15.582031 C 20.621094 15.414062 20.308594 15.171875 20.140625 15.019531 C 19.984375 14.878906 19.476562 14.421875 19.445312 14.394531 C 19.398438 14.339844 19.375 14.296875 19.371094 14.28125 C 19.375 14.28125 19.375 14.28125 19.378906 14.28125 C 19.421875 14.28125 19.515625 14.316406 19.546875 14.34375 C 19.589844 14.367188 19.800781 14.546875 20.015625 14.730469 C 20.238281 14.914062 20.464844 15.109375 20.570312 15.175781 C 20.75 15.304688 20.953125 15.527344 21.015625 15.628906 C 21.03125 15.648438 21.042969 15.742188 21.042969 15.84375 C 21.042969 16.054688 21.007812 16.320312 21.007812 16.320312 C 21.007812 16.339844 21.015625 16.355469 21.03125 16.367188 C 21.046875 16.375 21.066406 16.375 21.082031 16.363281 C 21.082031 16.363281 21.371094 16.132812 21.617188 15.902344 C 21.707031 15.824219 21.742188 15.730469 21.742188 15.636719 C 21.738281 15.429688 21.578125 15.238281 21.535156 15.105469 C 21.457031 14.886719 20.992188 13.921875 20.632812 13.214844 Z M 20.632812 13.214844 "/>
<path style=" stroke:none;fill-rule:nonzero;fill:rgb(9.019608%,16.078431%,51.372549%);fill-opacity:1;" d="M 18.324219 13.523438 L 18.316406 13.507812 C 18.308594 13.496094 18.308594 13.484375 18.308594 13.472656 C 18.308594 13.441406 18.324219 13.40625 18.347656 13.375 C 18.359375 13.363281 18.371094 13.351562 18.378906 13.339844 C 18.386719 13.332031 18.394531 13.328125 18.394531 13.328125 C 18.40625 13.316406 18.414062 13.296875 18.40625 13.28125 C 18.316406 13.03125 17.972656 12.464844 17.96875 12.464844 C 17.957031 12.445312 17.933594 12.4375 17.914062 12.445312 C 17.730469 12.519531 17.507812 12.691406 17.328125 12.859375 C 17.238281 12.941406 17.160156 13.023438 17.105469 13.089844 C 17.074219 13.125 17.050781 13.15625 17.035156 13.183594 C 17.019531 13.210938 17.007812 13.230469 17.003906 13.261719 C 17.003906 13.359375 17.074219 14.546875 17.074219 14.546875 C 17.074219 14.558594 17.082031 14.574219 17.09375 14.582031 C 17.207031 14.652344 17.390625 14.667969 17.589844 14.671875 C 17.902344 14.671875 18.257812 14.621094 18.363281 14.621094 C 18.46875 14.625 18.539062 14.574219 18.574219 14.527344 C 18.609375 14.480469 18.613281 14.433594 18.613281 14.429688 L 18.613281 14.417969 C 18.601562 14.332031 18.539062 14.144531 18.472656 13.957031 C 18.40625 13.769531 18.339844 13.582031 18.324219 13.523438 Z M 18.324219 13.523438 "/>
<path style=" stroke:none;fill-rule:nonzero;fill:rgb(9.019608%,16.078431%,51.372549%);fill-opacity:1;" d="M 17.917969 9.5 L 17.925781 9.503906 C 17.96875 9.519531 18.011719 9.539062 18.0625 9.539062 C 18.0625 9.539062 18.0625 9.539062 18.066406 9.539062 C 18.105469 9.539062 18.148438 9.515625 18.167969 9.476562 C 18.191406 9.433594 18.199219 9.378906 18.199219 9.300781 C 18.199219 9.28125 18.199219 9.261719 18.199219 9.238281 C 18.191406 9.070312 18.097656 8.96875 18.011719 8.925781 C 17.925781 8.875 17.84375 8.871094 17.839844 8.871094 C 17.824219 8.871094 17.808594 8.878906 17.800781 8.894531 C 17.746094 8.996094 17.722656 9.085938 17.722656 9.167969 C 17.722656 9.328125 17.820312 9.4375 17.917969 9.5 Z M 17.917969 9.5 "/>
<path style=" stroke:none;fill-rule:nonzero;fill:rgb(9.019608%,16.078431%,51.372549%);fill-opacity:1;" d="M 17.9375 8.785156 C 17.9375 8.785156 17.957031 8.792969 17.988281 8.8125 C 18.09375 8.871094 18.304688 9.023438 18.351562 9.292969 C 18.351562 9.308594 18.363281 9.320312 18.375 9.328125 C 18.382812 9.328125 18.386719 9.332031 18.394531 9.332031 C 18.402344 9.332031 18.410156 9.328125 18.417969 9.324219 C 18.421875 9.324219 18.546875 9.25 18.546875 9.058594 C 18.546875 9.011719 18.539062 8.960938 18.523438 8.898438 C 18.488281 8.773438 18.449219 8.6875 18.394531 8.625 C 18.339844 8.5625 18.269531 8.535156 18.191406 8.535156 C 18.175781 8.535156 18.160156 8.535156 18.148438 8.535156 C 18.078125 8.539062 18.023438 8.535156 17.976562 8.566406 C 17.925781 8.601562 17.910156 8.660156 17.90625 8.742188 C 17.90625 8.761719 17.917969 8.777344 17.9375 8.785156 Z M 17.9375 8.785156 "/>
<path style=" stroke:none;fill-rule:nonzero;fill:rgb(9.019608%,16.078431%,51.372549%);fill-opacity:1;" d="M 18.820312 10.5625 C 18.820312 10.5625 18.957031 10.523438 19.035156 10.464844 C 19.113281 10.40625 19.269531 10.328125 19.367188 10.289062 C 19.464844 10.25 19.753906 10.191406 19.871094 10.074219 C 19.988281 9.957031 19.96875 9.898438 20.066406 9.878906 C 20.164062 9.859375 20.476562 9.707031 20.496094 9.644531 C 20.515625 9.585938 20.652344 9.453125 20.652344 9.453125 C 20.574219 9.433594 20.496094 9.257812 20.496094 9.257812 C 20.398438 9.277344 20.242188 9.277344 20.144531 9.257812 C 20.046875 9.238281 20.066406 9.335938 20.027344 9.433594 C 19.988281 9.53125 19.9375 9.492188 19.675781 9.394531 C 19.269531 9.238281 18.800781 9.628906 18.800781 9.628906 C 18.859375 10.015625 18.820312 10.5625 18.820312 10.5625 Z M 18.820312 10.5625 "/>
</g>
</svg>
