<?xml version="1.0" encoding="UTF-8"?>
<svg xmlns="http://www.w3.org/2000/svg" xmlns:xlink="http://www.w3.org/1999/xlink" width="35pt" height="25pt" viewBox="0 0 35 25" version="1.1">
<g id="surface1">
<path style=" stroke:none;fill-rule:nonzero;fill:rgb(96.470588%,89.019608%,0%);fill-opacity:1;" d="M 17.59375 25 C 18.167969 25 28.441406 19.480469 28.441406 4.179688 L 28.441406 0 L 6.75 0 L 6.75 4.179688 C 6.75 19.480469 17.023438 25 17.59375 25 Z M 17.59375 25 "/>
<path style=" stroke:none;fill-rule:nonzero;fill:rgb(13.333333%,35.686275%,64.705882%);fill-opacity:1;" d="M 7.292969 3.320312 C 7.292969 3.820312 7.292969 4.179688 7.292969 4.179688 C 7.292969 7.542969 7.800781 10.683594 8.804688 13.515625 C 9.621094 15.8125 10.761719 17.914062 12.195312 19.753906 C 14.609375 22.855469 17.066406 24.222656 17.59375 24.4375 C 18.121094 24.222656 20.582031 22.855469 22.996094 19.753906 C 24.429688 17.914062 25.570312 15.8125 26.386719 13.515625 C 27.390625 10.683594 27.898438 7.542969 27.898438 4.179688 C 27.898438 4.179688 27.898438 3.820312 27.898438 3.320312 Z M 7.292969 3.320312 "/>
<path style=" stroke:none;fill-rule:nonzero;fill:rgb(96.470588%,89.019608%,0%);fill-opacity:1;" d="M 11.398438 18.644531 L 12.320312 17.71875 C 14.207031 15.835938 19.992188 11.597656 26 10.359375 L 26 9.03125 C 19.484375 10.28125 13.332031 14.863281 11.398438 16.796875 Z M 11.398438 18.644531 "/>
<path style=" stroke:none;fill-rule:nonzero;fill:rgb(20%,31.764706%,61.960784%);fill-opacity:1;" d="M 26 7.699219 L 25.753906 7.746094 C 19.5 8.949219 13.878906 12.90625 11.398438 15.03125 L 11.398438 16.796875 C 13.332031 14.863281 19.484375 10.28125 26 9.03125 Z M 26 7.699219 "/>
<path style=" stroke:none;fill-rule:nonzero;fill:rgb(51.764706%,51.764706%,51.764706%);fill-opacity:1;" d="M 21.253906 8.070312 C 21.027344 7.960938 20.6875 8.007812 20.6875 7.304688 C 21.050781 7.304688 21.175781 7.230469 21.175781 7.011719 C 20.964844 6.941406 20.710938 6.785156 20.710938 6.339844 C 20.710938 6.019531 20.445312 5.789062 20.050781 5.683594 C 19.988281 5.683594 19.964844 5.558594 19.964844 5.476562 C 19.964844 5.332031 20.050781 5.1875 20.050781 5.0625 C 19.867188 5.0625 19.585938 5.316406 19.585938 5.316406 L 19.585938 4.949219 C 19.464844 4.949219 19.402344 5.050781 19.402344 5.050781 L 18.957031 5.050781 L 18.675781 5.316406 L 17.53125 5.316406 C 17.191406 5.316406 17.117188 5.664062 17.117188 5.664062 C 16.277344 5.664062 16.003906 6.027344 16.003906 6.285156 C 16.003906 6.285156 15.875 6.589844 15.875 6.859375 C 15.875 7.046875 16.277344 7.066406 16.640625 7.066406 C 16.925781 7.066406 17.058594 6.898438 17.257812 6.804688 L 17.289062 6.824219 C 17.378906 6.875 17.4375 6.976562 17.453125 7.121094 C 17.363281 7.09375 17.265625 7.074219 17.148438 7.074219 C 16.671875 7.074219 16.28125 7.34375 15.828125 7.34375 C 15.4375 7.34375 15.445312 7.042969 15.152344 7.042969 C 15.039062 7.042969 14.882812 7.128906 14.882812 7.394531 C 14.882812 7.742188 15.238281 7.988281 15.660156 7.988281 C 16.386719 7.988281 16.257812 7.511719 17.171875 7.511719 C 17.265625 7.511719 17.347656 7.519531 17.425781 7.535156 C 17.414062 7.609375 17.394531 7.675781 17.375 7.734375 C 17.292969 7.691406 17.191406 7.65625 17.070312 7.65625 C 16.734375 7.65625 16.496094 7.949219 16.496094 8.148438 C 16.496094 8.265625 16.578125 8.371094 16.578125 8.371094 L 17.070312 8.371094 C 16.949219 8.492188 16.878906 8.640625 16.878906 8.640625 C 16.761719 8.640625 16.644531 8.679688 16.539062 8.746094 C 16.324219 8.628906 16.050781 8.515625 15.773438 8.515625 C 15.339844 8.515625 14.953125 8.261719 14.632812 7.949219 C 14.515625 7.832031 14.457031 7.699219 14.363281 7.59375 C 14.265625 7.480469 14.128906 7.402344 13.964844 7.28125 C 13.855469 7.210938 13.746094 7.097656 13.632812 7.097656 C 13.550781 7.097656 13.472656 7.179688 13.472656 7.179688 C 13.472656 7.179688 13.328125 6.980469 13.050781 6.980469 C 12.699219 6.980469 12.398438 7.242188 12.398438 7.535156 C 12.398438 7.933594 12.628906 8.046875 12.628906 8.046875 C 12.628906 8.046875 12.542969 8.21875 12.542969 8.386719 C 12.542969 8.929688 12.882812 9.113281 13.265625 9.113281 C 13.640625 9.113281 13.566406 9.007812 13.757812 9.007812 C 14.203125 9.007812 14.722656 9.941406 15.789062 9.941406 C 15.828125 9.941406 15.867188 9.9375 15.90625 9.933594 C 15.894531 10.007812 15.890625 10.082031 15.890625 10.15625 C 15.269531 10.15625 15.1875 10.550781 14.761719 10.550781 C 13.976562 10.550781 14.0625 10.15625 13.503906 10.15625 C 13.179688 10.15625 12.929688 10.304688 12.929688 10.519531 C 12.714844 10.519531 12.566406 10.824219 12.566406 11.0625 C 12.566406 11.417969 12.945312 11.554688 12.945312 11.554688 C 12.945312 11.554688 12.878906 11.691406 12.878906 11.808594 C 12.878906 12.105469 13.117188 12.160156 13.277344 12.160156 C 13.753906 12.160156 13.476562 11.878906 14.125 11.878906 C 15.058594 11.878906 14.941406 11.585938 15.238281 11.585938 C 15.671875 11.585938 15.785156 11.601562 16.199219 11.601562 C 17.664062 10.722656 19.324219 9.855469 21.105469 9.140625 C 21.109375 9.0625 21.113281 8.984375 21.113281 8.90625 C 21.113281 8.507812 20.984375 8.378906 20.984375 8.378906 C 20.984375 8.378906 21.253906 8.386719 21.253906 8.070312 Z M 21.253906 8.070312 "/>
<path style=" stroke:none;fill-rule:nonzero;fill:rgb(75.686275%,75.686275%,75.686275%);fill-opacity:1;" d="M 17.503906 7.132812 C 17.652344 7.179688 17.785156 7.234375 17.945312 7.234375 C 17.976562 7.234375 18.007812 7.230469 18.039062 7.230469 C 18.015625 6.929688 17.84375 6.75 17.515625 6.75 C 17.4375 6.75 17.371094 6.761719 17.308594 6.785156 C 17.394531 6.832031 17.480469 6.929688 17.503906 7.132812 Z M 17.503906 7.132812 "/>
<path style=" stroke:none;fill-rule:nonzero;fill:rgb(75.686275%,75.686275%,75.686275%);fill-opacity:1;" d="M 17.472656 7.542969 C 17.457031 7.621094 17.4375 7.695312 17.417969 7.757812 C 17.550781 7.839844 17.640625 7.941406 17.707031 7.941406 C 17.820312 7.941406 17.898438 7.859375 17.953125 7.746094 C 17.847656 7.671875 17.6875 7.585938 17.472656 7.542969 Z M 17.472656 7.542969 "/>
<path style=" stroke:none;fill-rule:nonzero;fill:rgb(75.686275%,75.686275%,75.686275%);fill-opacity:1;" d="M 14.925781 7.394531 C 14.925781 7.703125 15.25 7.945312 15.660156 7.945312 C 15.988281 7.945312 16.128906 7.847656 16.289062 7.734375 C 16.46875 7.609375 16.675781 7.46875 17.171875 7.46875 C 17.542969 7.46875 17.804688 7.585938 17.972656 7.703125 C 18.015625 7.589844 18.039062 7.453125 18.039062 7.304688 C 18.039062 7.304688 18.039062 7.289062 18.039062 7.273438 C 17.996094 7.277344 17.945312 7.277344 17.945312 7.277344 C 17.808594 7.277344 17.695312 7.242188 17.570312 7.203125 C 17.445312 7.160156 17.3125 7.121094 17.148438 7.121094 C 16.914062 7.121094 16.695312 7.1875 16.484375 7.253906 C 16.277344 7.320312 16.058594 7.390625 15.828125 7.390625 C 15.601562 7.390625 15.496094 7.296875 15.40625 7.210938 C 15.332031 7.140625 15.269531 7.085938 15.152344 7.085938 C 15.066406 7.085938 14.925781 7.152344 14.925781 7.394531 Z M 14.925781 7.394531 "/>
<path style=" stroke:none;fill-rule:nonzero;fill:rgb(75.686275%,75.686275%,75.686275%);fill-opacity:1;" d="M 19.695312 7.679688 C 19.707031 7.671875 19.71875 7.675781 19.726562 7.6875 C 19.988281 8.152344 20.460938 8.234375 20.882812 8.328125 L 20.988281 8.332031 C 20.988281 8.332031 21.078125 8.332031 21.140625 8.273438 C 21.179688 8.234375 21.199219 8.171875 21.207031 8.097656 C 21.171875 8.085938 21.109375 8.0625 21.109375 8.0625 C 20.902344 7.996094 20.644531 7.914062 20.644531 7.304688 L 20.644531 7.28125 C 20.640625 7.28125 20.640625 7.28125 20.640625 7.28125 C 20.625 7.28125 20.210938 7.257812 19.941406 6.894531 C 19.9375 6.882812 19.9375 6.871094 19.949219 6.863281 C 19.957031 6.855469 19.972656 6.859375 19.980469 6.867188 C 20.234375 7.214844 20.644531 7.257812 20.648438 7.257812 C 20.65625 7.257812 20.660156 7.257812 20.660156 7.261719 L 20.6875 7.261719 C 21.039062 7.261719 21.121094 7.1875 21.128906 7.042969 C 20.816406 6.921875 20.664062 6.691406 20.664062 6.339844 C 20.664062 6.101562 20.5 5.902344 20.203125 5.78125 C 20.175781 5.980469 20.050781 6.210938 20.050781 6.210938 C 20.050781 6.210938 20.074219 6.0625 20.074219 5.945312 C 20.074219 5.890625 20.058594 5.804688 20.042969 5.726562 C 20.042969 5.726562 20.039062 5.726562 20.039062 5.726562 L 20.042969 5.726562 C 19.953125 5.71875 19.921875 5.59375 19.921875 5.476562 C 19.921875 5.394531 19.945312 5.316406 19.96875 5.242188 C 19.980469 5.195312 19.992188 5.15625 20 5.113281 C 19.863281 5.148438 19.679688 5.289062 19.613281 5.347656 L 19.539062 5.417969 C 19.539062 5.417969 19.539062 5.082031 19.539062 5.003906 C 19.476562 5.023438 19.445312 5.070312 19.441406 5.074219 L 19.429688 5.09375 L 19.402344 5.09375 C 19.402344 5.09375 19.007812 5.09375 18.976562 5.09375 C 18.953125 5.117188 18.695312 5.359375 18.695312 5.359375 L 17.53125 5.359375 C 17.234375 5.359375 17.164062 5.664062 17.160156 5.675781 L 17.152344 5.710938 C 17.457031 5.710938 17.785156 5.804688 17.785156 5.804688 L 18.347656 5.804688 C 18.347656 5.804688 17.882812 6.144531 17.8125 6.25 C 17.5 5.9375 17.152344 5.710938 17.152344 5.710938 L 17.117188 5.710938 C 16.378906 5.710938 16.113281 5.988281 16.058594 6.203125 C 16.058594 6.203125 16.019531 6.476562 16.378906 6.476562 C 16.378906 6.476562 16.347656 6.605469 16.347656 6.667969 C 16.347656 6.980469 16.640625 7.019531 16.640625 7.019531 C 16.824219 7.019531 16.941406 6.945312 17.0625 6.867188 C 17.1875 6.785156 17.316406 6.703125 17.515625 6.703125 C 17.882812 6.703125 18.085938 6.917969 18.085938 7.304688 C 18.085938 7.632812 17.96875 7.988281 17.707031 7.988281 C 17.652344 7.988281 17.597656 7.945312 17.53125 7.894531 C 17.425781 7.8125 17.28125 7.699219 17.070312 7.699219 C 16.761719 7.699219 16.542969 7.96875 16.542969 8.148438 C 16.542969 8.222656 16.582031 8.292969 16.601562 8.328125 C 16.644531 8.328125 17.179688 8.328125 17.179688 8.328125 L 17.101562 8.402344 C 16.988281 8.515625 16.921875 8.660156 16.917969 8.660156 L 16.90625 8.6875 L 16.878906 8.6875 C 16.394531 8.6875 15.9375 9.402344 15.9375 10.15625 L 15.9375 10.199219 L 15.890625 10.199219 C 15.566406 10.199219 15.398438 10.3125 15.234375 10.417969 C 15.097656 10.511719 14.96875 10.597656 14.761719 10.597656 C 14.320312 10.597656 14.140625 10.472656 13.984375 10.363281 C 13.855469 10.277344 13.746094 10.199219 13.503906 10.199219 C 13.199219 10.199219 12.976562 10.335938 12.976562 10.519531 L 12.976562 10.542969 C 13.179688 10.542969 13.40625 10.648438 13.503906 10.742188 C 13.511719 10.753906 13.511719 10.765625 13.503906 10.773438 C 13.496094 10.785156 13.480469 10.785156 13.472656 10.773438 C 13.382812 10.683594 13.160156 10.589844 12.976562 10.589844 C 12.964844 10.589844 12.953125 10.578125 12.953125 10.566406 L 12.929688 10.566406 C 12.820312 10.566406 12.742188 10.664062 12.703125 10.726562 C 12.644531 10.824219 12.609375 10.949219 12.609375 11.0625 C 12.609375 11.378906 12.949219 11.507812 12.960938 11.511719 L 13.011719 11.53125 L 12.988281 11.574219 C 12.988281 11.578125 12.921875 11.707031 12.921875 11.808594 C 12.921875 12.0625 13.113281 12.113281 13.277344 12.113281 C 13.476562 12.113281 13.527344 12.066406 13.589844 12.003906 C 13.667969 11.925781 13.757812 11.832031 14.125 11.832031 C 14.707031 11.832031 14.867188 11.71875 14.984375 11.636719 C 15.054688 11.585938 15.117188 11.542969 15.238281 11.542969 L 16.242188 11.558594 C 16.25 11.558594 16.261719 11.558594 16.28125 11.554688 C 16.996094 11.128906 17.753906 10.703125 18.554688 10.300781 C 18.5 10.269531 18.460938 10.238281 18.457031 10.234375 L 18.425781 10.214844 L 18.460938 10.199219 C 18.464844 10.195312 18.738281 10.070312 18.738281 9.878906 C 18.738281 9.824219 18.699219 9.789062 18.65625 9.746094 C 18.597656 9.6875 18.53125 9.625 18.53125 9.507812 C 18.53125 9.46875 18.542969 9.425781 18.550781 9.394531 C 18.4375 9.460938 18.304688 9.507812 18.152344 9.507812 C 17.84375 9.507812 17.726562 9.363281 17.71875 9.355469 L 17.703125 9.335938 L 17.726562 9.324219 C 17.730469 9.320312 18.128906 9.085938 18.128906 8.800781 C 18.128906 8.78125 18.121094 8.773438 18.109375 8.753906 C 18.089844 8.71875 18.058594 8.671875 18.058594 8.539062 C 18.058594 8.304688 18.132812 8.09375 18.285156 7.898438 C 18.292969 7.886719 18.308594 7.886719 18.316406 7.890625 C 18.324219 7.898438 18.324219 7.902344 18.324219 7.910156 C 18.324219 7.914062 18.324219 7.921875 18.320312 7.925781 C 18.175781 8.113281 18.101562 8.316406 18.101562 8.539062 C 18.101562 8.65625 18.128906 8.699219 18.148438 8.730469 C 18.160156 8.75 18.175781 8.769531 18.175781 8.800781 C 18.175781 9.074219 17.867188 9.289062 17.773438 9.347656 C 17.816406 9.382812 17.929688 9.464844 18.152344 9.464844 C 18.742188 9.464844 18.996094 8.746094 19 8.738281 C 19.003906 8.726562 19.015625 8.71875 19.027344 8.722656 C 19.039062 8.730469 19.042969 8.742188 19.039062 8.753906 C 19.039062 8.757812 18.90625 9.132812 18.609375 9.351562 C 18.605469 9.371094 18.578125 9.445312 18.578125 9.507812 C 18.578125 9.605469 18.632812 9.660156 18.6875 9.710938 C 18.734375 9.757812 18.785156 9.804688 18.785156 9.878906 C 18.785156 10.058594 18.59375 10.179688 18.511719 10.222656 C 18.535156 10.234375 18.566406 10.253906 18.601562 10.277344 C 18.996094 10.078125 19.398438 9.882812 19.808594 9.695312 C 19.914062 9.421875 20.023438 9.085938 20.023438 8.898438 C 20.023438 8.722656 19.960938 8.5625 19.960938 8.558594 C 19.957031 8.546875 19.960938 8.535156 19.972656 8.53125 C 19.984375 8.527344 20 8.53125 20.003906 8.542969 C 20.007812 8.550781 20.070312 8.714844 20.070312 8.898438 C 20.070312 9.082031 19.96875 9.398438 19.867188 9.671875 C 20.257812 9.492188 20.65625 9.324219 21.058594 9.160156 C 21.0625 9.078125 21.066406 8.992188 21.066406 8.90625 C 21.066406 8.535156 20.953125 8.410156 20.953125 8.410156 L 20.886719 8.339844 C 20.507812 8.296875 19.960938 8.191406 19.6875 7.710938 C 19.679688 7.699219 19.683594 7.683594 19.695312 7.679688 Z M 19.695312 7.679688 "/>
<path style=" stroke:none;fill-rule:nonzero;fill:rgb(75.686275%,75.686275%,75.686275%);fill-opacity:1;" d="M 15.773438 8.558594 C 15.386719 8.558594 15.003906 8.371094 14.601562 7.980469 C 14.53125 7.914062 14.480469 7.835938 14.433594 7.765625 C 14.398438 7.714844 14.367188 7.664062 14.332031 7.621094 C 14.261719 7.542969 14.167969 7.480469 14.0625 7.40625 L 13.941406 7.316406 C 13.941406 7.320312 13.847656 7.253906 13.847656 7.253906 C 13.773438 7.199219 13.699219 7.144531 13.632812 7.144531 C 13.59375 7.144531 13.554688 7.167969 13.527344 7.191406 C 13.566406 7.308594 13.734375 7.679688 13.734375 7.679688 C 13.734375 7.679688 13.511719 7.484375 13.46875 7.246094 L 13.4375 7.203125 C 13.429688 7.195312 13.300781 7.023438 13.050781 7.023438 C 12.726562 7.023438 12.441406 7.261719 12.441406 7.535156 C 12.441406 7.898438 12.640625 8 12.648438 8.003906 L 12.6875 8.023438 L 12.667969 8.066406 C 12.667969 8.066406 12.585938 8.234375 12.585938 8.386719 C 12.585938 8.980469 13.011719 9.066406 13.265625 9.066406 C 13.472656 9.066406 13.53125 9.035156 13.585938 9.007812 C 13.625 8.984375 13.667969 8.964844 13.757812 8.964844 C 13.949219 8.964844 14.136719 9.109375 14.375 9.289062 C 14.722656 9.558594 15.15625 9.894531 15.789062 9.894531 C 15.828125 9.894531 15.871094 9.890625 15.910156 9.890625 C 15.972656 9.421875 16.199219 8.984375 16.496094 8.773438 C 16.292969 8.664062 16.03125 8.558594 15.773438 8.558594 Z M 14.03125 8.648438 C 13.722656 8.648438 13.296875 8.335938 13.296875 8.21875 C 13.4375 8.140625 13.585938 7.976562 13.640625 7.878906 C 13.734375 7.972656 13.90625 8.152344 13.972656 8.21875 C 13.972656 8.261719 13.917969 8.253906 13.917969 8.371094 C 13.917969 8.460938 14.253906 8.582031 14.253906 8.609375 C 14.253906 8.636719 14.117188 8.648438 14.03125 8.648438 Z M 14.03125 8.648438 "/>
<path style=" stroke:none;fill-rule:nonzero;fill:rgb(51.764706%,51.764706%,51.764706%);fill-opacity:1;" d="M 22.933594 8.476562 C 22.976562 7.457031 23.261719 7.328125 23.363281 7.328125 C 23.421875 7.328125 23.421875 7.503906 23.746094 7.503906 C 24.933594 7.503906 25.164062 6.605469 25.164062 5.945312 C 24.925781 5.945312 24.464844 6.253906 24.230469 6.253906 C 23.867188 6.253906 23.984375 6.09375 23.515625 6.09375 C 23.070312 6.09375 22.832031 6.300781 22.832031 6.9375 C 22.832031 6.972656 22.203125 7.25 22.203125 8.59375 C 22.203125 8.636719 22.203125 8.679688 22.207031 8.722656 C 22.445312 8.640625 22.6875 8.558594 22.933594 8.476562 Z M 22.933594 8.476562 "/>
<path style=" stroke:none;fill-rule:nonzero;fill:rgb(75.686275%,75.686275%,75.686275%);fill-opacity:1;" d="M 22.886719 8.492188 C 22.933594 7.375 23.257812 7.285156 23.363281 7.285156 C 23.402344 7.285156 23.425781 7.3125 23.445312 7.339844 C 23.480469 7.386719 23.539062 7.460938 23.746094 7.460938 C 24.90625 7.460938 25.105469 6.566406 25.117188 5.996094 C 25.007812 6.011719 24.855469 6.078125 24.707031 6.144531 C 24.527344 6.222656 24.355469 6.300781 24.230469 6.300781 C 24.050781 6.300781 23.976562 6.261719 23.90625 6.222656 C 23.832031 6.183594 23.753906 6.140625 23.515625 6.140625 C 23.0625 6.140625 22.875 6.371094 22.875 6.9375 C 22.875 6.964844 22.859375 6.980469 22.828125 7.003906 C 22.445312 7.300781 22.25 7.835938 22.25 8.59375 C 22.25 8.632812 22.25 8.671875 22.25 8.707031 C 22.460938 8.632812 22.675781 8.5625 22.886719 8.492188 Z M 22.886719 8.492188 "/>
<path style=" stroke:none;fill-rule:nonzero;fill:rgb(51.764706%,51.764706%,51.764706%);fill-opacity:1;" d="M 22.546875 11.382812 C 22.515625 12.292969 22.316406 13.296875 21.136719 13.296875 C 21.136719 12.820312 20.855469 12.453125 20.59375 12.214844 C 18.773438 13.066406 17.101562 14.0625 15.707031 15.015625 C 15.890625 15.210938 16.066406 15.414062 16.066406 15.558594 C 16.066406 15.742188 16.003906 15.804688 16.003906 15.804688 C 16.003906 15.804688 15.8125 15.804688 15.726562 15.804688 C 15.449219 15.804688 15.261719 15.625 15.113281 15.429688 C 14.597656 15.800781 14.128906 16.15625 13.714844 16.488281 C 13.816406 16.59375 13.9375 16.632812 14.003906 16.632812 C 15.070312 16.632812 15.175781 16.933594 16.296875 16.933594 C 17.316406 16.933594 17.632812 16.671875 17.632812 16.363281 C 17.632812 15.902344 17.351562 15.875 17.351562 15.632812 C 17.351562 15.453125 17.554688 15.289062 17.699219 15.289062 C 17.71875 15.289062 17.738281 15.289062 17.757812 15.289062 C 17.886719 16.25 19.164062 16.273438 19.164062 16.863281 C 19.164062 17.285156 18.710938 17.785156 18.320312 17.785156 C 17.847656 17.785156 18 17.628906 17.417969 17.628906 C 16.996094 17.628906 16.78125 17.804688 16.78125 18.050781 C 16.78125 18.25 16.925781 18.296875 16.925781 18.296875 C 16.925781 18.296875 16.765625 18.398438 16.765625 18.636719 C 16.765625 18.964844 17.253906 18.941406 17.253906 18.941406 C 17.253906 18.941406 17.171875 19.019531 17.171875 19.117188 C 17.171875 19.339844 17.460938 19.402344 17.859375 19.402344 C 18.46875 19.402344 18.644531 19.210938 18.875 19.210938 C 19.105469 19.210938 19.050781 19.234375 19.296875 19.234375 C 19.679688 19.234375 19.859375 18.460938 20.296875 17.933594 C 20.65625 17.503906 21.230469 17.722656 21.230469 17.078125 C 21.230469 16.488281 20.730469 16.578125 20.730469 15.925781 C 20.730469 15.007812 21.4375 15.359375 21.4375 14.164062 C 22.894531 13.886719 23.164062 13.203125 23.164062 11.644531 C 23.164062 11.480469 23.160156 11.3125 23.148438 11.164062 C 22.945312 11.234375 22.746094 11.308594 22.546875 11.382812 Z M 22.546875 11.382812 "/>
<path style=" stroke:none;fill-rule:nonzero;fill:rgb(75.686275%,75.686275%,75.686275%);fill-opacity:1;" d="M 22.59375 11.367188 C 22.566406 12.246094 22.386719 13.34375 21.136719 13.34375 L 21.089844 13.34375 L 21.089844 13.296875 C 21.089844 12.828125 20.808594 12.46875 20.546875 12.234375 C 19.695312 12.636719 18.875 13.066406 18.101562 13.511719 C 18.207031 13.703125 18.296875 13.871094 18.304688 13.882812 L 18.316406 13.910156 L 18.296875 13.933594 C 18.292969 13.9375 17.792969 14.523438 17.792969 15.128906 C 17.792969 15.746094 18.238281 16.007812 18.632812 16.238281 C 18.929688 16.410156 19.207031 16.574219 19.207031 16.863281 C 19.207031 17.316406 18.734375 17.832031 18.320312 17.832031 C 18.085938 17.832031 17.996094 17.792969 17.910156 17.753906 C 17.8125 17.714844 17.714844 17.671875 17.417969 17.671875 C 17.050781 17.671875 16.828125 17.8125 16.828125 18.050781 C 16.828125 18.210938 16.9375 18.25 16.941406 18.253906 L 17.027344 18.285156 L 16.953125 18.332031 C 16.945312 18.335938 16.8125 18.429688 16.8125 18.636719 C 16.8125 18.699219 16.832031 18.75 16.875 18.792969 C 16.996094 18.90625 17.246094 18.894531 17.25 18.894531 L 17.367188 18.890625 L 17.285156 18.972656 C 17.285156 18.972656 17.21875 19.039062 17.21875 19.117188 C 17.21875 19.28125 17.421875 19.355469 17.859375 19.355469 C 18.230469 19.355469 18.433594 19.285156 18.59375 19.230469 C 18.695312 19.195312 18.78125 19.167969 18.875 19.167969 C 18.992188 19.167969 19.039062 19.171875 19.085938 19.179688 C 19.128906 19.183594 19.175781 19.191406 19.296875 19.191406 C 19.503906 19.191406 19.660156 18.90625 19.835938 18.578125 C 19.957031 18.359375 20.089844 18.113281 20.261719 17.90625 C 20.414062 17.722656 20.601562 17.652344 20.769531 17.589844 C 21.011719 17.496094 21.1875 17.433594 21.1875 17.078125 C 21.1875 16.808594 21.074219 16.691406 20.957031 16.566406 C 20.832031 16.429688 20.683594 16.277344 20.683594 15.925781 C 20.683594 15.476562 20.855469 15.3125 21.019531 15.152344 C 21.203125 14.96875 21.394531 14.78125 21.394531 14.164062 L 21.394531 14.128906 L 21.429688 14.121094 C 22.886719 13.84375 23.121094 13.164062 23.121094 11.644531 C 23.121094 11.488281 23.113281 11.324219 23.105469 11.179688 C 22.933594 11.238281 22.761719 11.300781 22.59375 11.367188 Z M 22.59375 11.367188 "/>
<path style=" stroke:none;fill-rule:nonzero;fill:rgb(75.686275%,75.686275%,75.686275%);fill-opacity:1;" d="M 18.261719 13.902344 C 18.261719 13.902344 18.171875 13.730469 18.0625 13.535156 C 17.230469 14.015625 16.453125 14.507812 15.746094 14.988281 C 15.933594 15.191406 16.113281 15.398438 16.113281 15.558594 C 16.113281 15.753906 16.042969 15.828125 16.035156 15.835938 L 16.035156 15.839844 C 16.113281 15.847656 16.21875 15.851562 16.367188 15.84375 C 16.378906 15.84375 16.386719 15.84375 16.394531 15.835938 C 16.402344 15.828125 16.402344 15.8125 16.402344 15.8125 L 16.464844 15.808594 C 16.464844 15.8125 16.46875 15.851562 16.441406 15.878906 C 16.429688 15.894531 16.40625 15.910156 16.367188 15.910156 C 16.105469 15.921875 15.929688 15.902344 15.832031 15.851562 L 15.722656 15.851562 C 15.429688 15.851562 15.230469 15.65625 15.078125 15.457031 C 14.804688 15.652344 14.550781 15.839844 14.304688 16.027344 C 14.328125 16.042969 14.34375 16.050781 14.34375 16.050781 C 14.34375 16.050781 14.320312 16.046875 14.285156 16.042969 C 14.097656 16.1875 13.917969 16.328125 13.75 16.460938 C 13.839844 16.554688 13.949219 16.585938 14.003906 16.585938 C 14.539062 16.585938 14.839844 16.664062 15.128906 16.738281 C 15.425781 16.8125 15.734375 16.890625 16.296875 16.890625 C 17.144531 16.890625 17.589844 16.707031 17.589844 16.363281 C 17.589844 16.109375 17.5 16 17.425781 15.902344 C 17.363281 15.824219 17.308594 15.75 17.308594 15.632812 C 17.308594 15.433594 17.527344 15.242188 17.699219 15.242188 C 17.714844 15.242188 17.734375 15.242188 17.75 15.242188 C 17.75 15.207031 17.746094 15.167969 17.746094 15.128906 C 17.746094 14.5 18.261719 13.902344 18.261719 13.902344 Z M 18.261719 13.902344 "/>
<path style=" stroke:none;fill-rule:nonzero;fill:rgb(13.333333%,35.686275%,64.705882%);fill-opacity:1;" d="M 7.679688 0.984375 L 7.679688 2.636719 L 8.011719 2.636719 C 8.011719 2.636719 8.011719 1.984375 8.011719 1.933594 C 8.058594 1.933594 8.476562 1.933594 8.476562 1.933594 L 8.476562 1.628906 C 8.476562 1.628906 8.058594 1.628906 8.011719 1.628906 C 8.011719 1.585938 8.011719 1.332031 8.011719 1.289062 C 8.058594 1.289062 8.5 1.289062 8.5 1.289062 L 8.5 0.984375 Z M 7.679688 0.984375 "/>
<path style=" stroke:none;fill-rule:nonzero;fill:rgb(13.333333%,35.686275%,64.705882%);fill-opacity:1;" d="M 7.707031 2.609375 L 7.707031 1.011719 L 8.472656 1.011719 L 8.472656 1.261719 L 7.984375 1.261719 L 7.984375 1.65625 L 8.449219 1.65625 L 8.449219 1.90625 L 7.984375 1.90625 L 7.984375 2.609375 Z M 7.707031 2.609375 "/>
<path style=" stroke:none;fill-rule:nonzero;fill:rgb(13.333333%,35.686275%,64.705882%);fill-opacity:1;" d="M 8.761719 0.984375 L 8.761719 2.636719 L 9.09375 2.636719 C 9.09375 2.636719 9.09375 2.023438 9.09375 1.972656 C 9.121094 1.972656 9.15625 1.972656 9.15625 1.972656 C 9.203125 1.972656 9.238281 1.984375 9.261719 2.003906 C 9.273438 2.015625 9.296875 2.046875 9.320312 2.121094 L 9.492188 2.636719 L 9.855469 2.636719 L 9.625 1.976562 C 9.597656 1.898438 9.5625 1.847656 9.519531 1.816406 C 9.582031 1.796875 9.640625 1.761719 9.683594 1.703125 C 9.734375 1.632812 9.765625 1.542969 9.765625 1.445312 C 9.765625 1.238281 9.6875 1.097656 9.535156 1.035156 C 9.449219 1 9.304688 0.984375 9.089844 0.984375 Z M 9.15625 1.289062 C 9.242188 1.289062 9.304688 1.300781 9.34375 1.320312 C 9.394531 1.34375 9.421875 1.394531 9.421875 1.46875 C 9.421875 1.554688 9.394531 1.664062 9.15625 1.664062 C 9.15625 1.664062 9.121094 1.664062 9.09375 1.664062 C 9.09375 1.621094 9.09375 1.335938 9.09375 1.289062 C 9.121094 1.289062 9.15625 1.289062 9.15625 1.289062 Z M 9.15625 1.289062 "/>
<path style=" stroke:none;fill-rule:nonzero;fill:rgb(13.333333%,35.686275%,64.705882%);fill-opacity:1;" d="M 8.789062 2.609375 L 8.789062 1.011719 L 9.089844 1.011719 C 9.300781 1.011719 9.445312 1.027344 9.523438 1.058594 C 9.664062 1.121094 9.738281 1.246094 9.738281 1.445312 C 9.738281 1.539062 9.710938 1.621094 9.660156 1.6875 C 9.609375 1.757812 9.539062 1.800781 9.453125 1.8125 L 9.453125 1.816406 C 9.511719 1.824219 9.5625 1.878906 9.597656 1.984375 L 9.816406 2.609375 L 9.511719 2.609375 L 9.347656 2.109375 C 9.324219 2.046875 9.300781 2.003906 9.277344 1.984375 C 9.25 1.957031 9.210938 1.945312 9.15625 1.945312 L 9.066406 1.945312 L 9.066406 2.609375 Z M 9.066406 1.261719 L 9.066406 1.691406 L 9.15625 1.691406 C 9.351562 1.691406 9.449219 1.617188 9.449219 1.46875 C 9.449219 1.386719 9.417969 1.324219 9.355469 1.292969 C 9.3125 1.273438 9.246094 1.261719 9.15625 1.261719 Z M 9.066406 1.261719 "/>
<path style=" stroke:none;fill-rule:nonzero;fill:rgb(13.333333%,35.686275%,64.705882%);fill-opacity:1;" d="M 10.222656 1.191406 C 10.101562 1.34375 10.042969 1.550781 10.042969 1.804688 C 10.042969 2.0625 10.101562 2.269531 10.21875 2.421875 C 10.34375 2.582031 10.523438 2.664062 10.746094 2.664062 C 10.964844 2.664062 11.144531 2.582031 11.269531 2.417969 C 11.386719 2.265625 11.449219 2.058594 11.449219 1.804688 C 11.449219 1.554688 11.386719 1.347656 11.265625 1.195312 C 11.140625 1.035156 10.964844 0.957031 10.746094 0.957031 C 10.523438 0.957031 10.347656 1.035156 10.222656 1.191406 Z M 10.46875 2.191406 C 10.414062 2.089844 10.386719 1.960938 10.386719 1.804688 C 10.386719 1.65625 10.414062 1.527344 10.472656 1.429688 C 10.539062 1.316406 10.628906 1.261719 10.746094 1.261719 C 10.863281 1.261719 10.953125 1.316406 11.019531 1.429688 C 11.078125 1.527344 11.105469 1.65625 11.105469 1.804688 C 11.105469 1.960938 11.078125 2.089844 11.019531 2.191406 C 10.957031 2.304688 10.867188 2.359375 10.746094 2.359375 C 10.625 2.359375 10.535156 2.304688 10.46875 2.191406 Z M 10.46875 2.191406 "/>
<path style=" stroke:none;fill-rule:nonzero;fill:rgb(13.333333%,35.686275%,64.705882%);fill-opacity:1;" d="M 10.070312 1.804688 C 10.070312 1.554688 10.128906 1.355469 10.242188 1.210938 C 10.363281 1.058594 10.53125 0.980469 10.746094 0.980469 C 10.957031 0.980469 11.125 1.058594 11.246094 1.210938 C 11.363281 1.359375 11.421875 1.558594 11.421875 1.804688 C 11.421875 2.054688 11.363281 2.253906 11.246094 2.402344 C 11.125 2.558594 10.957031 2.636719 10.746094 2.636719 C 10.53125 2.636719 10.363281 2.558594 10.242188 2.40625 C 10.128906 2.257812 10.070312 2.058594 10.070312 1.804688 Z M 10.359375 1.804688 C 10.359375 1.96875 10.386719 2.101562 10.445312 2.203125 C 10.515625 2.324219 10.613281 2.386719 10.746094 2.386719 C 10.878906 2.386719 10.976562 2.324219 11.042969 2.203125 C 11.101562 2.101562 11.132812 1.96875 11.132812 1.804688 C 11.132812 1.648438 11.101562 1.519531 11.042969 1.414062 C 10.972656 1.292969 10.875 1.234375 10.746094 1.234375 C 10.617188 1.234375 10.519531 1.292969 10.449219 1.414062 C 10.390625 1.519531 10.359375 1.648438 10.359375 1.804688 Z M 10.359375 1.804688 "/>
<path style=" stroke:none;fill-rule:nonzero;fill:rgb(13.333333%,35.686275%,64.705882%);fill-opacity:1;" d="M 11.878906 1.070312 C 11.773438 1.164062 11.71875 1.296875 11.71875 1.46875 C 11.71875 1.628906 11.777344 1.753906 11.886719 1.84375 C 11.898438 1.851562 11.941406 1.878906 12.183594 2 C 12.277344 2.050781 12.324219 2.109375 12.324219 2.179688 C 12.324219 2.238281 12.300781 2.28125 12.253906 2.316406 C 12.210938 2.34375 12.164062 2.359375 12.105469 2.359375 C 12.007812 2.359375 11.910156 2.328125 11.808594 2.261719 L 11.773438 2.238281 L 11.742188 2.59375 L 11.761719 2.601562 C 11.90625 2.644531 12.03125 2.664062 12.121094 2.664062 C 12.28125 2.664062 12.40625 2.625 12.503906 2.546875 C 12.609375 2.460938 12.664062 2.328125 12.664062 2.152344 C 12.664062 1.992188 12.609375 1.863281 12.5 1.773438 C 12.480469 1.761719 12.433594 1.726562 12.203125 1.617188 C 12.109375 1.570312 12.0625 1.519531 12.0625 1.457031 C 12.0625 1.386719 12.082031 1.335938 12.125 1.300781 C 12.160156 1.273438 12.199219 1.261719 12.253906 1.261719 C 12.34375 1.261719 12.433594 1.285156 12.519531 1.328125 L 12.554688 1.347656 L 12.589844 1.023438 L 12.570312 1.015625 C 12.46875 0.976562 12.351562 0.957031 12.230469 0.957031 C 12.085938 0.957031 11.96875 0.996094 11.878906 1.070312 Z M 11.878906 1.070312 "/>
<path style=" stroke:none;fill-rule:nonzero;fill:rgb(13.333333%,35.686275%,64.705882%);fill-opacity:1;" d="M 12.558594 1.039062 L 12.535156 1.304688 C 12.441406 1.257812 12.347656 1.234375 12.253906 1.234375 C 12.195312 1.234375 12.148438 1.25 12.109375 1.28125 C 12.058594 1.320312 12.035156 1.378906 12.035156 1.457031 C 12.035156 1.527344 12.089844 1.589844 12.191406 1.640625 C 12.359375 1.722656 12.457031 1.773438 12.484375 1.796875 C 12.585938 1.878906 12.640625 2 12.640625 2.152344 C 12.640625 2.320312 12.585938 2.441406 12.484375 2.527344 C 12.394531 2.601562 12.273438 2.636719 12.121094 2.636719 C 12.03125 2.636719 11.914062 2.617188 11.769531 2.574219 L 11.796875 2.285156 C 11.898438 2.351562 12.003906 2.386719 12.105469 2.386719 C 12.167969 2.386719 12.222656 2.367188 12.269531 2.335938 C 12.324219 2.296875 12.351562 2.246094 12.351562 2.179688 C 12.351562 2.097656 12.296875 2.03125 12.195312 1.976562 C 12.015625 1.886719 11.917969 1.832031 11.902344 1.820312 C 11.800781 1.738281 11.746094 1.621094 11.746094 1.46875 C 11.746094 1.304688 11.796875 1.179688 11.898438 1.09375 C 11.984375 1.019531 12.09375 0.980469 12.230469 0.980469 C 12.351562 0.980469 12.460938 1 12.558594 1.039062 Z M 12.558594 1.039062 "/>
<path style=" stroke:none;fill-rule:nonzero;fill:rgb(13.333333%,35.686275%,64.705882%);fill-opacity:1;" d="M 12.957031 0.984375 L 13.289062 0.984375 L 13.289062 2.636719 L 12.957031 2.636719 Z M 12.957031 0.984375 "/>
<path style=" stroke:none;fill-rule:nonzero;fill:rgb(13.333333%,35.686275%,64.705882%);fill-opacity:1;" d="M 12.984375 2.609375 L 12.984375 1.011719 L 13.261719 1.011719 L 13.261719 2.609375 Z M 12.984375 2.609375 "/>
<path style=" stroke:none;fill-rule:nonzero;fill:rgb(13.333333%,35.686275%,64.705882%);fill-opacity:1;" d="M 14.503906 0.984375 C 14.503906 0.984375 14.503906 1.890625 14.503906 2.085938 C 14.421875 1.90625 14.019531 0.984375 14.019531 0.984375 L 13.636719 0.984375 L 13.636719 2.636719 L 13.957031 2.636719 C 13.957031 2.636719 13.957031 1.730469 13.957031 1.535156 C 14.035156 1.714844 14.4375 2.636719 14.4375 2.636719 L 14.820312 2.636719 L 14.820312 0.984375 Z M 14.503906 0.984375 "/>
<path style=" stroke:none;fill-rule:nonzero;fill:rgb(13.333333%,35.686275%,64.705882%);fill-opacity:1;" d="M 13.664062 2.609375 L 13.664062 1.011719 L 14.003906 1.011719 L 14.527344 2.207031 L 14.53125 2.207031 L 14.53125 1.011719 L 14.792969 1.011719 L 14.792969 2.609375 L 14.457031 2.609375 L 13.933594 1.414062 L 13.929688 1.414062 L 13.929688 2.609375 Z M 13.664062 2.609375 "/>
<path style=" stroke:none;fill-rule:nonzero;fill:rgb(13.333333%,35.686275%,64.705882%);fill-opacity:1;" d="M 15.304688 1.191406 C 15.183594 1.34375 15.125 1.550781 15.125 1.804688 C 15.125 2.0625 15.183594 2.269531 15.300781 2.421875 C 15.425781 2.582031 15.605469 2.664062 15.828125 2.664062 C 16.046875 2.664062 16.222656 2.582031 16.351562 2.417969 C 16.46875 2.265625 16.53125 2.058594 16.53125 1.804688 C 16.53125 1.554688 16.46875 1.347656 16.347656 1.195312 C 16.222656 1.035156 16.046875 0.957031 15.828125 0.957031 C 15.605469 0.957031 15.429688 1.035156 15.304688 1.191406 Z M 15.550781 2.191406 C 15.496094 2.089844 15.46875 1.960938 15.46875 1.804688 C 15.46875 1.65625 15.496094 1.527344 15.554688 1.429688 C 15.621094 1.316406 15.710938 1.261719 15.828125 1.261719 C 15.945312 1.261719 16.035156 1.316406 16.101562 1.429688 C 16.15625 1.527344 16.1875 1.65625 16.1875 1.804688 C 16.1875 1.960938 16.160156 2.089844 16.101562 2.191406 C 16.039062 2.304688 15.949219 2.359375 15.828125 2.359375 C 15.707031 2.359375 15.613281 2.304688 15.550781 2.191406 Z M 15.550781 2.191406 "/>
<path style=" stroke:none;fill-rule:nonzero;fill:rgb(13.333333%,35.686275%,64.705882%);fill-opacity:1;" d="M 15.152344 1.804688 C 15.152344 1.554688 15.210938 1.355469 15.324219 1.210938 C 15.445312 1.058594 15.613281 0.980469 15.828125 0.980469 C 16.039062 0.980469 16.207031 1.058594 16.328125 1.210938 C 16.445312 1.359375 16.503906 1.558594 16.503906 1.804688 C 16.503906 2.054688 16.445312 2.253906 16.328125 2.402344 C 16.207031 2.558594 16.039062 2.636719 15.828125 2.636719 C 15.613281 2.636719 15.445312 2.558594 15.324219 2.40625 C 15.207031 2.257812 15.152344 2.058594 15.152344 1.804688 Z M 15.441406 1.804688 C 15.441406 1.96875 15.46875 2.101562 15.527344 2.203125 C 15.597656 2.324219 15.695312 2.386719 15.828125 2.386719 C 15.957031 2.386719 16.058594 2.324219 16.125 2.203125 C 16.183594 2.101562 16.214844 1.96875 16.214844 1.804688 C 16.214844 1.648438 16.183594 1.519531 16.125 1.414062 C 16.054688 1.292969 15.957031 1.234375 15.828125 1.234375 C 15.699219 1.234375 15.601562 1.292969 15.53125 1.414062 C 15.46875 1.519531 15.441406 1.648438 15.441406 1.804688 Z M 15.441406 1.804688 "/>
<path style=" stroke:none;fill-rule:nonzero;fill:rgb(13.333333%,35.686275%,64.705882%);fill-opacity:1;" d="M 17.699219 0.984375 C 17.699219 0.984375 17.699219 1.890625 17.699219 2.085938 C 17.621094 1.902344 17.21875 0.984375 17.21875 0.984375 L 16.832031 0.984375 L 16.832031 2.636719 L 17.152344 2.636719 C 17.152344 2.636719 17.152344 1.730469 17.152344 1.535156 C 17.230469 1.714844 17.636719 2.636719 17.636719 2.636719 L 18.019531 2.636719 L 18.019531 0.984375 Z M 17.699219 0.984375 "/>
<path style=" stroke:none;fill-rule:nonzero;fill:rgb(13.333333%,35.686275%,64.705882%);fill-opacity:1;" d="M 16.859375 2.609375 L 16.859375 1.011719 L 17.199219 1.011719 L 17.722656 2.207031 L 17.726562 2.207031 L 17.726562 1.011719 L 17.992188 1.011719 L 17.992188 2.609375 L 17.652344 2.609375 L 17.128906 1.414062 L 17.125 1.414062 L 17.125 2.609375 Z M 16.859375 2.609375 "/>
<path style=" stroke:none;fill-rule:nonzero;fill:rgb(13.333333%,35.686275%,64.705882%);fill-opacity:1;" d="M 18.390625 0.984375 L 18.390625 2.636719 L 19.257812 2.636719 L 19.257812 2.328125 C 19.257812 2.328125 18.769531 2.328125 18.71875 2.328125 C 18.71875 2.285156 18.71875 1.980469 18.71875 1.933594 C 18.769531 1.933594 19.210938 1.933594 19.210938 1.933594 L 19.210938 1.628906 C 19.210938 1.628906 18.769531 1.628906 18.71875 1.628906 C 18.71875 1.585938 18.71875 1.332031 18.71875 1.289062 C 18.769531 1.289062 19.253906 1.289062 19.253906 1.289062 L 19.253906 0.984375 Z M 18.390625 0.984375 "/>
<path style=" stroke:none;fill-rule:nonzero;fill:rgb(13.333333%,35.686275%,64.705882%);fill-opacity:1;" d="M 18.417969 2.609375 L 18.417969 1.011719 L 19.226562 1.011719 L 19.226562 1.261719 L 18.691406 1.261719 L 18.691406 1.65625 L 19.183594 1.65625 L 19.183594 1.90625 L 18.691406 1.90625 L 18.691406 2.355469 L 19.234375 2.355469 L 19.234375 2.609375 Z M 18.417969 2.609375 "/>
<path style=" stroke:none;fill-rule:nonzero;fill:rgb(13.333333%,35.686275%,64.705882%);fill-opacity:1;" d="M 20.414062 1.1875 C 20.277344 1.339844 20.207031 1.558594 20.207031 1.835938 C 20.207031 2.105469 20.28125 2.316406 20.425781 2.457031 C 20.5625 2.59375 20.75 2.664062 20.988281 2.664062 C 21.078125 2.664062 21.183594 2.648438 21.308594 2.613281 L 21.328125 2.609375 L 21.316406 2.273438 L 21.277344 2.296875 C 21.207031 2.335938 21.109375 2.359375 20.988281 2.359375 C 20.851562 2.359375 20.746094 2.308594 20.667969 2.203125 C 20.589844 2.105469 20.550781 1.972656 20.550781 1.8125 C 20.550781 1.652344 20.589844 1.519531 20.667969 1.417969 C 20.75 1.3125 20.851562 1.261719 20.984375 1.261719 C 21.089844 1.261719 21.183594 1.289062 21.265625 1.34375 L 21.304688 1.367188 L 21.328125 1.03125 L 21.3125 1.023438 C 21.210938 0.976562 21.101562 0.957031 20.988281 0.957031 C 20.746094 0.957031 20.554688 1.03125 20.414062 1.1875 Z M 20.414062 1.1875 "/>
<path style=" stroke:none;fill-rule:nonzero;fill:rgb(13.333333%,35.686275%,64.705882%);fill-opacity:1;" d="M 21.289062 2.320312 L 21.300781 2.585938 C 21.179688 2.621094 21.074219 2.636719 20.988281 2.636719 C 20.757812 2.636719 20.578125 2.570312 20.445312 2.441406 C 20.304688 2.300781 20.234375 2.097656 20.234375 1.835938 C 20.234375 1.566406 20.300781 1.355469 20.4375 1.203125 C 20.570312 1.054688 20.753906 0.980469 20.988281 0.980469 C 21.097656 0.980469 21.203125 1.003906 21.300781 1.046875 L 21.28125 1.320312 C 21.195312 1.261719 21.09375 1.234375 20.984375 1.234375 C 20.84375 1.234375 20.730469 1.289062 20.644531 1.402344 C 20.5625 1.511719 20.523438 1.648438 20.523438 1.816406 C 20.523438 1.980469 20.5625 2.117188 20.644531 2.222656 C 20.730469 2.332031 20.84375 2.386719 20.988281 2.386719 C 21.117188 2.386719 21.214844 2.363281 21.289062 2.320312 Z M 21.289062 2.320312 "/>
<path style=" stroke:none;fill-rule:nonzero;fill:rgb(13.333333%,35.686275%,64.705882%);fill-opacity:1;" d="M 22 0.984375 L 21.445312 2.636719 L 21.789062 2.636719 C 21.789062 2.636719 21.898438 2.304688 21.910156 2.269531 C 21.945312 2.269531 22.394531 2.269531 22.429688 2.269531 C 22.441406 2.304688 22.546875 2.636719 22.546875 2.636719 L 22.910156 2.636719 L 22.351562 0.984375 Z M 22.171875 1.417969 C 22.207031 1.535156 22.320312 1.910156 22.335938 1.964844 C 22.28125 1.964844 22.058594 1.964844 22.003906 1.964844 C 22.023438 1.910156 22.136719 1.535156 22.171875 1.417969 Z M 22.171875 1.417969 "/>
<path style=" stroke:none;fill-rule:nonzero;fill:rgb(13.333333%,35.686275%,64.705882%);fill-opacity:1;" d="M 21.484375 2.609375 L 22.019531 1.011719 L 22.332031 1.011719 L 22.871094 2.609375 L 22.566406 2.609375 L 22.449219 2.242188 L 21.890625 2.242188 L 21.769531 2.609375 Z M 22.371094 1.992188 L 22.171875 1.332031 L 22.167969 1.332031 L 21.96875 1.992188 Z M 22.371094 1.992188 "/>
<path style=" stroke:none;fill-rule:nonzero;fill:rgb(13.333333%,35.686275%,64.705882%);fill-opacity:1;" d="M 23.140625 0.984375 L 23.140625 2.636719 L 24.007812 2.636719 L 24.007812 2.328125 C 24.007812 2.328125 23.523438 2.328125 23.472656 2.328125 C 23.472656 2.277344 23.472656 0.984375 23.472656 0.984375 Z M 23.140625 0.984375 "/>
<path style=" stroke:none;fill-rule:nonzero;fill:rgb(13.333333%,35.686275%,64.705882%);fill-opacity:1;" d="M 23.167969 2.609375 L 23.167969 1.011719 L 23.445312 1.011719 L 23.445312 2.355469 L 23.980469 2.355469 L 23.980469 2.609375 Z M 23.167969 2.609375 "/>
<path style=" stroke:none;fill-rule:nonzero;fill:rgb(13.333333%,35.686275%,64.705882%);fill-opacity:1;" d="M 24.390625 1.1875 C 24.25 1.339844 24.179688 1.558594 24.179688 1.835938 C 24.179688 2.105469 24.253906 2.316406 24.398438 2.457031 C 24.535156 2.59375 24.726562 2.664062 24.964844 2.664062 C 25.050781 2.664062 25.160156 2.648438 25.28125 2.613281 L 25.304688 2.609375 L 25.289062 2.273438 L 25.25 2.296875 C 25.179688 2.335938 25.085938 2.359375 24.964844 2.359375 C 24.828125 2.359375 24.722656 2.308594 24.640625 2.203125 C 24.5625 2.105469 24.523438 1.972656 24.523438 1.8125 C 24.523438 1.652344 24.5625 1.519531 24.640625 1.417969 C 24.722656 1.3125 24.824219 1.261719 24.957031 1.261719 C 25.0625 1.261719 25.160156 1.289062 25.238281 1.34375 L 25.277344 1.367188 L 25.300781 1.03125 L 25.285156 1.023438 C 25.183594 0.976562 25.078125 0.957031 24.964844 0.957031 C 24.71875 0.957031 24.527344 1.03125 24.390625 1.1875 Z M 24.390625 1.1875 "/>
<path style=" stroke:none;fill-rule:nonzero;fill:rgb(13.333333%,35.686275%,64.705882%);fill-opacity:1;" d="M 25.265625 2.320312 L 25.277344 2.585938 C 25.152344 2.621094 25.050781 2.636719 24.964844 2.636719 C 24.730469 2.636719 24.550781 2.570312 24.417969 2.441406 C 24.277344 2.300781 24.207031 2.097656 24.207031 1.835938 C 24.207031 1.566406 24.273438 1.355469 24.410156 1.203125 C 24.542969 1.054688 24.726562 0.980469 24.964844 0.980469 C 25.074219 0.980469 25.175781 1.003906 25.273438 1.046875 L 25.253906 1.320312 C 25.167969 1.261719 25.070312 1.234375 24.957031 1.234375 C 24.816406 1.234375 24.707031 1.289062 24.621094 1.402344 C 24.539062 1.511719 24.496094 1.648438 24.496094 1.816406 C 24.496094 1.980469 24.539062 2.117188 24.621094 2.222656 C 24.707031 2.332031 24.820312 2.386719 24.964844 2.386719 C 25.089844 2.386719 25.191406 2.363281 25.265625 2.320312 Z M 25.265625 2.320312 "/>
<path style=" stroke:none;fill-rule:nonzero;fill:rgb(13.333333%,35.686275%,64.705882%);fill-opacity:1;" d="M 25.546875 0.984375 L 25.878906 0.984375 L 25.878906 2.636719 L 25.546875 2.636719 Z M 25.546875 0.984375 "/>
<path style=" stroke:none;fill-rule:nonzero;fill:rgb(13.333333%,35.686275%,64.705882%);fill-opacity:1;" d="M 25.574219 2.609375 L 25.574219 1.011719 L 25.851562 1.011719 L 25.851562 2.609375 Z M 25.574219 2.609375 "/>
<path style=" stroke:none;fill-rule:nonzero;fill:rgb(13.333333%,35.686275%,64.705882%);fill-opacity:1;" d="M 26.351562 1.191406 C 26.234375 1.34375 26.171875 1.550781 26.171875 1.804688 C 26.171875 2.0625 26.230469 2.269531 26.351562 2.421875 C 26.476562 2.582031 26.652344 2.664062 26.875 2.664062 C 27.097656 2.664062 27.273438 2.582031 27.398438 2.417969 C 27.515625 2.265625 27.578125 2.058594 27.578125 1.804688 C 27.578125 1.554688 27.515625 1.347656 27.394531 1.195312 C 27.269531 1.035156 27.09375 0.957031 26.875 0.957031 C 26.652344 0.957031 26.476562 1.035156 26.351562 1.191406 Z M 26.515625 1.804688 C 26.515625 1.65625 26.542969 1.527344 26.601562 1.429688 C 26.667969 1.316406 26.757812 1.261719 26.875 1.261719 C 26.992188 1.261719 27.082031 1.316406 27.148438 1.429688 C 27.207031 1.527344 27.234375 1.65625 27.234375 1.804688 C 27.234375 1.960938 27.207031 2.089844 27.152344 2.191406 C 27.085938 2.304688 26.996094 2.359375 26.875 2.359375 C 26.753906 2.359375 26.664062 2.304688 26.597656 2.191406 C 26.542969 2.089844 26.515625 1.960938 26.515625 1.804688 Z M 26.515625 1.804688 "/>
<path style=" stroke:none;fill-rule:nonzero;fill:rgb(13.333333%,35.686275%,64.705882%);fill-opacity:1;" d="M 26.199219 1.804688 C 26.199219 1.554688 26.257812 1.355469 26.375 1.210938 C 26.492188 1.058594 26.660156 0.980469 26.875 0.980469 C 27.085938 0.980469 27.253906 1.058594 27.375 1.210938 C 27.492188 1.359375 27.550781 1.558594 27.550781 1.804688 C 27.550781 2.054688 27.492188 2.253906 27.378906 2.402344 C 27.253906 2.558594 27.089844 2.636719 26.875 2.636719 C 26.660156 2.636719 26.492188 2.558594 26.371094 2.40625 C 26.257812 2.257812 26.199219 2.058594 26.199219 1.804688 Z M 26.488281 1.804688 C 26.488281 1.96875 26.515625 2.101562 26.574219 2.203125 C 26.644531 2.324219 26.742188 2.386719 26.875 2.386719 C 27.007812 2.386719 27.105469 2.324219 27.175781 2.203125 C 27.234375 2.101562 27.261719 1.96875 27.261719 1.804688 C 27.261719 1.648438 27.230469 1.519531 27.171875 1.414062 C 27.101562 1.292969 27.003906 1.234375 26.875 1.234375 C 26.746094 1.234375 26.648438 1.292969 26.578125 1.414062 C 26.519531 1.519531 26.488281 1.648438 26.488281 1.804688 Z M 26.488281 1.804688 "/>
</g>
</svg>
