<?xml version="1.0" encoding="UTF-8"?>
<svg xmlns="http://www.w3.org/2000/svg" xmlns:xlink="http://www.w3.org/1999/xlink" width="35pt" height="25pt" viewBox="0 0 35 25" version="1.1">
<g id="surface1">
<path style=" stroke:none;fill-rule:nonzero;fill:rgb(0%,0%,0%);fill-opacity:1;" d="M 25.859375 18.394531 L 25.859375 0.683594 L 9.199219 0.683594 L 9.199219 18.398438 C 9.199219 18.425781 9.199219 22.554688 13.363281 22.554688 C 17.078125 22.554688 17.484375 23.660156 17.53125 23.902344 C 17.578125 23.660156 17.996094 22.554688 21.699219 22.554688 C 25.859375 22.554688 25.859375 18.410156 25.859375 18.394531 Z M 25.871094 0.679688 L 25.871094 18.394531 C 25.871094 18.40625 25.871094 22.566406 21.699219 22.566406 C 17.558594 22.566406 17.535156 23.945312 17.535156 23.949219 C 17.535156 23.953125 17.535156 23.953125 17.53125 23.953125 C 17.527344 23.953125 17.523438 23.953125 17.523438 23.949219 C 17.523438 23.945312 17.515625 22.566406 13.363281 22.566406 C 9.183594 22.566406 9.1875 18.421875 9.1875 18.398438 L 9.1875 0.679688 C 9.1875 0.675781 9.191406 0.671875 9.195312 0.671875 L 25.867188 0.671875 C 25.871094 0.671875 25.871094 0.675781 25.871094 0.679688 Z M 25.871094 0.679688 "/>
<path style=" stroke:none;fill-rule:nonzero;fill:rgb(100%,80%,16.078431%);fill-opacity:1;" d="M 9.195312 0.0546875 L 26.492188 0.0546875 L 26.492188 18.394531 L 26.488281 18.402344 C 26.488281 18.414062 26.488281 23.183594 21.699219 23.183594 C 18.976562 23.183594 18.378906 23.4375 17.554688 24.847656 C 16.691406 23.445312 16.089844 23.183594 13.363281 23.183594 C 8.558594 23.183594 8.570312 18.414062 8.570312 18.402344 L 8.570312 0.0546875 Z M 25.242188 1.300781 L 9.816406 1.300781 L 9.816406 18.394531 C 9.816406 18.535156 9.875 21.9375 13.363281 21.9375 C 15.730469 21.9375 16.925781 22.425781 17.53125 22.917969 C 18.140625 22.425781 19.335938 21.9375 21.699219 21.9375 C 25.175781 21.9375 25.242188 18.535156 25.246094 18.394531 L 25.242188 18.394531 Z M 25.242188 1.300781 "/>
<path style=" stroke:none;fill-rule:nonzero;fill:rgb(0%,0%,0%);fill-opacity:1;" d="M 9.195312 -0.015625 L 26.558594 -0.015625 L 26.558594 18.40625 C 26.554688 18.597656 26.464844 23.253906 21.699219 23.253906 C 20.347656 23.253906 19.523438 23.316406 18.941406 23.550781 C 18.367188 23.785156 18.019531 24.191406 17.617188 24.882812 L 17.558594 24.984375 L 17.496094 24.886719 C 17.074219 24.195312 16.714844 23.789062 16.132812 23.554688 C 15.542969 23.316406 14.71875 23.253906 13.363281 23.253906 C 8.585938 23.253906 8.503906 18.601562 8.503906 18.40625 L 8.5 18.394531 L 8.5 -0.015625 Z M 25.867188 0.121094 L 8.640625 0.121094 L 8.640625 18.402344 C 8.640625 18.453125 8.648438 23.117188 13.363281 23.117188 C 14.734375 23.117188 15.574219 23.179688 16.183594 23.425781 C 16.773438 23.660156 17.140625 24.058594 17.554688 24.714844 C 17.949219 24.054688 18.308594 23.660156 18.890625 23.421875 C 19.492188 23.179688 20.328125 23.117188 21.699219 23.117188 C 26.398438 23.117188 26.417969 18.460938 26.417969 18.402344 L 26.421875 18.390625 L 26.421875 0.121094 Z M 25.171875 1.371094 L 9.886719 1.371094 L 9.886719 18.464844 C 9.898438 18.699219 9.960938 19.449219 10.34375 20.1875 C 10.785156 21.035156 11.652344 21.867188 13.363281 21.867188 C 14.550781 21.867188 15.449219 21.992188 16.125 22.175781 C 16.777344 22.355469 17.222656 22.589844 17.53125 22.832031 C 17.839844 22.589844 18.289062 22.355469 18.9375 22.175781 C 19.617188 21.992188 20.511719 21.867188 21.699219 21.867188 C 23.40625 21.867188 24.273438 21.035156 24.714844 20.1875 C 25.097656 19.449219 25.164062 18.699219 25.175781 18.464844 L 25.171875 18.464844 Z M 9.816406 1.234375 L 25.3125 1.234375 L 25.3125 18.328125 L 25.316406 18.328125 L 25.3125 18.398438 C 25.3125 18.46875 25.296875 19.371094 24.835938 20.25 C 24.375 21.136719 23.472656 22.003906 21.699219 22.003906 C 20.523438 22.003906 19.640625 22.128906 18.976562 22.308594 C 18.316406 22.492188 17.871094 22.730469 17.574219 22.972656 L 17.53125 23.007812 L 17.488281 22.972656 C 17.191406 22.730469 16.75 22.492188 16.089844 22.308594 C 15.425781 22.128906 14.539062 22.003906 13.363281 22.003906 C 11.585938 22.003906 10.679688 21.136719 10.21875 20.25 C 9.761719 19.371094 9.746094 18.46875 9.746094 18.394531 L 9.746094 18.328125 L 9.75 18.328125 L 9.75 1.234375 Z M 9.816406 1.234375 "/>
<path style=" stroke:none;fill-rule:evenodd;fill:rgb(100%,0%,0%);fill-opacity:1;" d="M 9.195312 0.679688 L 25.867188 0.679688 L 25.867188 18.394531 C 25.867188 18.394531 25.867188 22.558594 21.699219 22.558594 C 17.554688 22.558594 17.53125 23.949219 17.53125 23.949219 C 17.53125 23.949219 17.519531 22.558594 13.363281 22.558594 C 9.183594 22.558594 9.195312 18.394531 9.195312 18.394531 Z M 9.195312 0.679688 "/>
<path style=" stroke:none;fill-rule:evenodd;fill:rgb(5.490196%,11.764706%,49.019608%);fill-opacity:1;" d="M 17.523438 0.679688 L 25.867188 0.679688 L 25.867188 18.394531 C 25.867188 18.394531 25.867188 22.558594 21.699219 22.558594 C 17.554688 22.558594 17.53125 23.949219 17.53125 23.949219 Z M 17.523438 0.679688 "/>
<path style=" stroke:none;fill-rule:evenodd;fill:rgb(100%,100%,100%);fill-opacity:1;" d="M 25.867188 5.902344 L 9.195312 5.902344 L 9.195312 0.695312 L 25.867188 0.679688 Z M 25.867188 5.902344 "/>
<path style=" stroke:none;fill-rule:evenodd;fill:rgb(100%,0%,0%);fill-opacity:1;" d="M 17.039062 5.902344 L 17.039062 3.78125 L 9.195312 3.78125 L 9.195312 2.800781 L 17.039062 2.800781 L 17.039062 0.679688 L 18.019531 0.679688 L 18.019531 2.800781 L 25.867188 2.800781 L 25.867188 3.78125 L 18.019531 3.78125 L 18.019531 5.902344 Z M 17.039062 5.902344 "/>
<path style=" stroke:none;fill-rule:nonzero;fill:rgb(0%,0%,0%);fill-opacity:1;" d="M 9.195312 0.609375 L 25.9375 0.609375 L 25.9375 18.398438 C 25.9375 18.410156 25.9375 22.628906 21.699219 22.628906 C 17.621094 22.628906 17.597656 23.949219 17.597656 23.953125 L 17.460938 23.953125 C 17.460938 23.949219 17.453125 22.628906 13.363281 22.628906 C 9.113281 22.628906 9.125 18.410156 9.125 18.398438 L 9.125 0.609375 Z M 25.796875 0.746094 L 9.261719 0.746094 L 9.261719 18.394531 C 9.261719 18.425781 9.261719 22.492188 13.363281 22.492188 C 16.53125 22.492188 17.328125 23.304688 17.53125 23.714844 C 17.734375 23.308594 18.539062 22.492188 21.699219 22.492188 C 25.789062 22.492188 25.796875 18.425781 25.796875 18.394531 Z M 25.796875 0.746094 "/>
<path style=" stroke:none;fill-rule:evenodd;fill:rgb(98.039216%,83.137255%,7.058824%);fill-opacity:1;" d="M 15.5625 16.261719 L 15.523438 16.324219 C 15.441406 16.203125 15.101562 16.09375 15.074219 15.945312 L 15.550781 15.644531 C 15.550781 15.644531 15.628906 16.121094 15.5625 16.261719 Z M 15.5625 16.261719 "/>
<path style=" stroke:none;fill-rule:evenodd;fill:rgb(98.039216%,83.137255%,7.058824%);fill-opacity:1;" d="M 14.058594 9.589844 C 14.21875 9.792969 14.234375 10.136719 14.542969 10.203125 C 14.695312 10.449219 14.5 10.726562 14.628906 10.980469 C 14.675781 11.054688 14.765625 11.101562 14.835938 11.15625 C 14.917969 11.207031 15.128906 11.335938 15.28125 11.417969 C 15.320312 11.339844 15.375 11.269531 15.441406 11.21875 L 15.566406 11.128906 C 15.492188 10.964844 15.578125 10.816406 15.691406 10.683594 C 15.855469 10.46875 16.109375 10.285156 16.125 10.015625 C 16.023438 9.757812 15.941406 9.484375 15.773438 9.257812 C 15.632812 9.074219 15.519531 8.964844 15.238281 8.816406 C 15.132812 8.746094 15.109375 8.726562 15.054688 8.703125 C 15.476562 8.648438 15.5625 8.640625 15.792969 8.734375 C 15.992188 8.8125 16.414062 9.109375 16.414062 9.109375 C 16.113281 8.792969 15.746094 8.582031 15.332031 8.578125 C 15.117188 8.589844 14.894531 8.605469 14.695312 8.660156 C 14.734375 8.335938 14.847656 7.925781 15.210938 7.8125 C 15.394531 7.742188 15.585938 7.78125 15.738281 7.894531 C 15.832031 7.734375 15.976562 7.613281 16.167969 7.625 C 16.546875 7.664062 16.847656 7.9375 17.253906 7.890625 C 17.285156 7.953125 17.34375 8.023438 17.414062 8.035156 C 17.5625 8.058594 17.671875 7.957031 17.78125 7.882812 C 18.015625 7.679688 18.113281 7.375 18 7.085938 C 17.980469 7.035156 17.957031 6.992188 17.925781 6.945312 C 18.152344 6.914062 18.371094 7.054688 18.476562 7.246094 C 18.550781 7.402344 18.523438 7.601562 18.492188 7.761719 L 18.433594 8.015625 C 18.433594 8.023438 18.429688 8.042969 18.445312 8.039062 C 18.527344 7.984375 18.59375 7.894531 18.664062 7.820312 C 18.757812 7.875 18.738281 8.007812 18.726562 8.097656 C 18.671875 8.347656 18.5625 8.582031 18.402344 8.800781 C 18.578125 9.035156 18.714844 9.292969 18.800781 9.570312 L 18.8125 9.578125 L 18.867188 9.722656 L 20.066406 8.523438 C 20.183594 8.53125 20.40625 8.648438 20.460938 8.757812 C 20.519531 8.875 20.511719 9.03125 20.4375 9.136719 C 20.4375 9.136719 19.175781 10.191406 19.207031 10.230469 L 21.222656 8.554688 C 21.398438 8.558594 21.699219 8.796875 21.769531 8.957031 C 21.863281 9.160156 21.820312 9.390625 21.664062 9.546875 L 21.621094 9.585938 L 21.628906 9.585938 L 19.503906 11.078125 L 19.523438 11.070312 L 21.824219 9.472656 C 21.984375 9.519531 22.1875 9.785156 22.210938 9.945312 C 22.238281 10.117188 22.160156 10.285156 22.015625 10.382812 L 21.65625 10.582031 L 21.675781 10.585938 L 19.535156 11.816406 L 21.867188 10.507812 C 22.015625 10.605469 22.121094 10.898438 22.105469 11.078125 C 22.089844 11.199219 22.027344 11.320312 21.917969 11.390625 L 19.578125 12.472656 L 21.257812 11.71875 C 21.382812 11.828125 21.382812 12.136719 21.332031 12.300781 C 21.300781 12.429688 21.179688 12.546875 21.058594 12.589844 L 19.527344 13.265625 C 19.464844 13.269531 19.472656 13.347656 19.433594 13.386719 C 19.257812 13.679688 18.902344 13.660156 18.695312 13.90625 C 18.671875 13.917969 18.648438 13.925781 18.625 13.9375 L 18.710938 14.09375 C 18.832031 14.71875 19.121094 15.289062 19.707031 15.644531 C 20.019531 15.792969 20.113281 16.117188 20.234375 16.394531 C 20.273438 16.5625 20.328125 16.726562 20.324219 16.90625 C 20.65625 17.078125 20.992188 17.238281 21.355469 17.296875 C 21.492188 17.316406 21.667969 17.316406 21.769531 17.214844 C 21.929688 17.058594 21.917969 16.832031 21.863281 16.632812 C 21.78125 16.351562 21.667969 16.089844 21.5625 15.824219 L 21.183594 14.929688 C 21.007812 14.46875 20.820312 14.003906 20.808594 13.464844 C 20.808594 13.191406 20.902344 12.898438 21.160156 12.742188 C 21.359375 12.621094 21.617188 12.679688 21.792969 12.816406 C 21.960938 12.941406 22.082031 13.105469 22.171875 13.265625 C 22.246094 13.390625 22.304688 13.523438 22.34375 13.667969 C 22.492188 13.730469 22.65625 13.769531 22.773438 13.910156 C 22.847656 13.996094 22.90625 14.085938 22.960938 14.1875 C 22.957031 14.207031 22.96875 14.207031 22.96875 14.226562 L 22.976562 14.234375 C 23.03125 14.601562 22.992188 14.953125 22.953125 15.292969 L 22.394531 14.953125 C 22.074219 14.742188 21.84375 14.433594 21.898438 14.039062 C 21.90625 13.96875 21.925781 13.902344 21.949219 13.835938 C 21.972656 13.707031 21.941406 13.5625 21.902344 13.449219 C 21.800781 13.269531 21.644531 13.046875 21.421875 13.003906 C 21.3125 12.996094 21.234375 13.101562 21.191406 13.191406 C 21.085938 13.449219 21.160156 13.785156 21.226562 14.054688 C 21.296875 14.308594 21.386719 14.550781 21.480469 14.792969 L 21.78125 15.5 C 21.9375 15.875 22.101562 16.242188 22.203125 16.648438 C 22.289062 16.984375 22.183594 17.316406 21.910156 17.523438 C 21.550781 17.738281 21.117188 17.59375 20.773438 17.476562 C 20.613281 17.414062 20.453125 17.339844 20.300781 17.265625 C 20.277344 17.476562 20.226562 17.679688 20.074219 17.851562 C 20 17.941406 19.917969 18.015625 19.835938 18.082031 C 19.546875 18.277344 19.203125 18.378906 18.992188 18.703125 C 19.039062 18.71875 19.09375 18.714844 19.148438 18.71875 C 19.441406 18.710938 19.707031 18.617188 20.003906 18.609375 C 20.226562 18.609375 20.46875 18.765625 20.546875 18.976562 C 20.582031 19.058594 20.597656 19.167969 20.585938 19.257812 L 20.589844 19.261719 C 20.582031 19.347656 20.539062 19.425781 20.523438 19.515625 C 20.484375 19.640625 20.445312 19.769531 20.378906 19.890625 C 20.367188 19.902344 20.363281 19.921875 20.351562 19.933594 L 20.355469 19.9375 C 20.300781 20.015625 20.269531 20.101562 20.214844 20.179688 C 20.101562 20.351562 19.914062 20.503906 19.882812 20.699219 C 19.882812 20.746094 19.890625 20.792969 19.914062 20.832031 C 20.136719 21.035156 20.464844 20.910156 20.703125 21.0625 C 20.734375 21.085938 20.761719 21.113281 20.777344 21.144531 L 20.699219 21.214844 C 20.769531 21.355469 20.839844 21.539062 20.8125 21.691406 C 20.695312 21.621094 20.484375 21.609375 20.367188 21.511719 L 20.34375 21.535156 C 20.300781 21.539062 20.261719 21.535156 20.226562 21.515625 C 20.101562 21.28125 19.835938 21.277344 19.65625 21.109375 C 19.3125 21.21875 19.375 21.609375 19.230469 21.859375 C 19.222656 21.875 19.207031 21.894531 19.191406 21.90625 L 19.152344 21.886719 C 19.058594 22.003906 18.878906 22.070312 18.753906 22.109375 C 18.710938 22.011719 18.6875 21.835938 18.707031 21.714844 L 18.667969 21.699219 C 18.609375 21.644531 18.664062 21.578125 18.683594 21.523438 C 18.796875 21.332031 18.976562 21.1875 19.113281 21.003906 C 18.953125 20.914062 18.832031 21.085938 18.699219 21.140625 C 18.589844 21.285156 18.492188 21.507812 18.292969 21.527344 L 18.269531 21.523438 L 18.238281 21.503906 C 18.144531 21.621094 18.007812 21.6875 17.867188 21.710938 C 17.828125 21.589844 17.816406 21.421875 17.859375 21.304688 L 17.796875 21.273438 C 17.78125 21.164062 17.808594 21.050781 17.90625 20.980469 C 18.035156 20.871094 18.214844 20.847656 18.328125 20.714844 C 18.222656 20.664062 18.101562 20.578125 18.042969 20.476562 L 18.0625 20.425781 C 17.945312 20.355469 17.867188 20.207031 17.8125 20.097656 C 17.921875 20.027344 18.085938 19.984375 18.21875 20.023438 L 18.226562 20.007812 C 18.367188 20.042969 18.496094 20.136719 18.605469 20.246094 C 18.839844 20.355469 19.15625 20.445312 19.402344 20.289062 C 19.492188 20.226562 19.527344 20.121094 19.589844 20.035156 C 19.683594 19.855469 19.777344 19.675781 19.769531 19.464844 C 19.761719 19.382812 19.734375 19.3125 19.671875 19.257812 C 19.609375 19.222656 19.53125 19.199219 19.457031 19.222656 L 19.101562 19.335938 C 19.039062 19.371094 18.964844 19.394531 18.890625 19.414062 L 18.402344 19.535156 C 18.195312 19.558594 18.179688 19.558594 17.972656 19.492188 C 17.691406 19.402344 17.566406 19.332031 17.46875 19.148438 C 17.296875 18.835938 17.179688 18.480469 17.191406 18.085938 C 17.207031 17.679688 17.210938 17.242188 17.585938 16.980469 C 17.804688 16.8125 18.085938 16.761719 18.316406 16.617188 C 18.484375 16.5 18.558594 16.308594 18.527344 16.109375 L 18.523438 16.132812 C 18.539062 16.261719 18.484375 16.464844 18.382812 16.546875 C 18.222656 16.65625 18.035156 16.738281 17.867188 16.824219 C 17.632812 16.933594 17.414062 17.019531 17.3125 17.273438 C 17.195312 17.546875 17.1875 17.773438 17.183594 18.085938 C 17.183594 18.40625 17.253906 18.714844 17.378906 18.980469 C 17.234375 19.058594 16.9375 19.21875 16.84375 19.375 C 16.976562 19.640625 17.34375 19.539062 17.4375 19.835938 L 17.460938 19.917969 L 17.398438 19.953125 L 17.417969 19.953125 C 17.441406 20.140625 17.429688 20.328125 17.324219 20.476562 C 17.242188 20.359375 17.082031 20.28125 17.046875 20.140625 L 17.019531 20.152344 C 16.992188 20.148438 16.953125 20.152344 16.949219 20.113281 C 16.90625 20.011719 16.800781 19.902344 16.6875 19.886719 C 16.449219 19.847656 16.246094 19.960938 16.039062 20.027344 C 15.960938 20.140625 15.90625 20.265625 15.800781 20.363281 L 15.765625 20.382812 C 15.746094 20.367188 15.730469 20.355469 15.710938 20.34375 C 15.609375 20.4375 15.464844 20.5 15.332031 20.515625 C 15.316406 20.488281 15.316406 20.445312 15.316406 20.410156 C 15.316406 20.316406 15.347656 20.226562 15.394531 20.148438 C 15.378906 20.132812 15.363281 20.121094 15.34375 20.105469 C 15.40625 20.011719 15.507812 19.9375 15.535156 19.820312 C 15.367188 19.796875 15.292969 20.015625 15.117188 19.984375 C 15.109375 19.980469 15.101562 19.976562 15.097656 19.976562 C 14.976562 20.066406 14.78125 20.113281 14.644531 20.089844 C 14.65625 19.96875 14.738281 19.8125 14.832031 19.707031 C 14.824219 19.703125 14.816406 19.699219 14.808594 19.699219 L 14.785156 19.671875 L 14.871094 19.601562 C 14.976562 19.570312 15.101562 19.566406 15.195312 19.5 L 15.226562 19.46875 C 15.152344 19.378906 15.027344 19.464844 14.933594 19.425781 C 14.929688 19.414062 14.925781 19.402344 14.925781 19.394531 C 14.785156 19.410156 14.652344 19.339844 14.535156 19.261719 C 14.601562 19.144531 14.695312 19.050781 14.816406 19.007812 L 14.8125 18.996094 C 14.84375 18.964844 14.90625 18.90625 15.007812 18.898438 C 15.824219 18.925781 15.992188 19.203125 16.578125 18.691406 C 16.421875 18.28125 15.835938 18.203125 15.777344 17.636719 C 15.769531 17.179688 15.976562 16.753906 16.347656 16.445312 C 16.609375 16.273438 16.875 16.101562 17.195312 16.046875 C 17.269531 15.929688 17.230469 15.761719 17.191406 15.636719 C 17.148438 15.511719 16.871094 15.199219 16.625 14.949219 C 16.40625 14.984375 16.175781 15 15.953125 15.011719 L 15.261719 15.054688 L 15.125 15.070312 C 15.195312 15.253906 15.414062 15.335938 15.5625 15.457031 C 15.628906 15.507812 15.664062 15.578125 15.652344 15.664062 L 15.644531 15.695312 C 15.527344 15.757812 15.417969 15.84375 15.289062 15.882812 C 15.253906 15.902344 15.226562 15.929688 15.199219 15.960938 L 15.035156 16.046875 C 14.902344 16.027344 14.875 15.886719 14.832031 15.785156 C 14.789062 15.621094 14.730469 15.46875 14.675781 15.3125 C 14.648438 15.257812 14.605469 15.207031 14.550781 15.167969 C 14.359375 15.382812 14.121094 15.496094 13.847656 15.550781 C 13.816406 15.558594 13.792969 15.523438 13.777344 15.507812 L 13.765625 15.492188 C 13.613281 15.558594 13.382812 15.597656 13.265625 15.554688 C 13.292969 15.4375 13.429688 15.246094 13.554688 15.164062 C 13.546875 15.125 13.539062 15.082031 13.5625 15.050781 C 13.65625 14.925781 13.867188 15 13.9375 14.84375 C 13.886719 14.808594 13.828125 14.800781 13.773438 14.789062 C 13.632812 14.769531 13.484375 14.777344 13.351562 14.726562 C 13.332031 14.71875 13.308594 14.703125 13.296875 14.683594 L 13.304688 14.632812 C 13.152344 14.597656 12.972656 14.476562 12.902344 14.371094 C 13 14.28125 13.199219 14.1875 13.351562 14.1875 L 13.351562 14.183594 C 13.460938 14.109375 13.609375 14.144531 13.722656 14.179688 L 13.992188 14.289062 C 14.011719 14.292969 14.039062 14.289062 14.039062 14.265625 C 14.023438 14.144531 13.882812 14.085938 13.785156 14.046875 C 13.6875 14.003906 13.570312 13.980469 13.507812 13.882812 C 13.492188 13.855469 13.492188 13.820312 13.5 13.789062 L 13.546875 13.753906 C 13.464844 13.617188 13.445312 13.359375 13.46875 13.226562 C 13.589844 13.234375 13.800781 13.339844 13.925781 13.445312 L 14.003906 13.382812 C 14.128906 13.394531 14.171875 13.535156 14.246094 13.617188 C 14.292969 13.695312 14.339844 13.773438 14.359375 13.867188 C 14.53125 14.035156 14.675781 14.414062 14.984375 14.289062 L 15.839844 13.914062 L 15.828125 13.773438 L 15.753906 13.570312 C 15.449219 13.160156 15.246094 12.695312 15.164062 12.164062 C 14.933594 11.976562 14.53125 11.8125 14.296875 11.71875 C 14.152344 11.855469 14.058594 12.074219 13.871094 12.140625 C 13.839844 12.148438 13.804688 12.144531 13.777344 12.136719 L 13.75 12.101562 C 13.644531 12.164062 13.460938 12.214844 13.363281 12.195312 C 13.371094 12.105469 13.425781 11.910156 13.492188 11.789062 L 13.445312 11.730469 C 13.433594 11.65625 13.480469 11.589844 13.539062 11.546875 L 13.972656 11.214844 C 13.851562 11.105469 13.824219 10.910156 13.640625 10.871094 C 13.519531 10.859375 13.390625 10.867188 13.269531 10.859375 C 13.238281 10.855469 13.207031 10.832031 13.1875 10.804688 L 13.195312 10.765625 C 13.039062 10.71875 12.832031 10.542969 12.769531 10.429688 C 12.867188 10.355469 13.113281 10.304688 13.273438 10.320312 L 13.273438 10.3125 L 13.3125 10.277344 C 13.511719 10.261719 13.679688 10.34375 13.863281 10.386719 C 13.878906 10.386719 13.90625 10.390625 13.921875 10.375 C 13.9375 10.359375 13.917969 10.335938 13.910156 10.320312 C 13.816406 10.191406 13.667969 10.09375 13.585938 9.960938 C 13.585938 9.917969 13.597656 9.878906 13.613281 9.839844 L 13.597656 9.851562 C 13.476562 9.757812 13.421875 9.566406 13.421875 9.417969 C 13.5625 9.402344 13.804688 9.449219 13.910156 9.546875 L 13.90625 9.550781 C 13.925781 9.550781 13.945312 9.550781 13.96875 9.554688 C 14 9.5625 14.03125 9.570312 14.058594 9.589844 Z M 14.058594 9.589844 "/>
<path style=" stroke:none;fill-rule:nonzero;fill:rgb(0%,0%,0%);fill-opacity:1;" d="M 15.785156 13.78125 L 15.71875 13.59375 C 15.558594 13.378906 15.429688 13.152344 15.328125 12.910156 C 15.234375 12.683594 15.164062 12.441406 15.125 12.1875 C 15.035156 12.117188 14.917969 12.050781 14.800781 11.988281 C 14.628906 11.902344 14.441406 11.824219 14.304688 11.769531 C 14.265625 11.8125 14.226562 11.863281 14.1875 11.910156 C 14.101562 12.023438 14.015625 12.132812 13.886719 12.179688 L 13.882812 12.183594 C 13.863281 12.1875 13.839844 12.1875 13.820312 12.1875 C 13.800781 12.1875 13.78125 12.179688 13.761719 12.175781 L 13.742188 12.160156 L 13.738281 12.15625 C 13.691406 12.179688 13.640625 12.199219 13.585938 12.214844 C 13.503906 12.238281 13.417969 12.25 13.355469 12.238281 L 13.320312 12.230469 L 13.320312 12.195312 C 13.328125 12.125 13.355469 12.003906 13.398438 11.894531 C 13.410156 11.859375 13.425781 11.824219 13.441406 11.792969 L 13.414062 11.757812 L 13.402344 11.738281 C 13.398438 11.695312 13.40625 11.652344 13.425781 11.617188 C 13.445312 11.574219 13.476562 11.539062 13.511719 11.511719 L 13.910156 11.210938 C 13.875 11.175781 13.851562 11.132812 13.828125 11.09375 C 13.777344 11.015625 13.730469 10.933594 13.632812 10.914062 C 13.570312 10.90625 13.507812 10.90625 13.441406 10.90625 C 13.382812 10.90625 13.324219 10.90625 13.265625 10.898438 L 13.261719 10.898438 C 13.242188 10.898438 13.21875 10.886719 13.199219 10.875 C 13.179688 10.863281 13.164062 10.84375 13.152344 10.824219 L 13.144531 10.796875 L 13.148438 10.792969 C 13.089844 10.769531 13.027344 10.738281 12.972656 10.695312 C 12.867188 10.621094 12.773438 10.523438 12.730469 10.449219 L 12.714844 10.417969 L 12.742188 10.394531 C 12.804688 10.347656 12.921875 10.308594 13.035156 10.289062 C 13.109375 10.277344 13.1875 10.269531 13.253906 10.273438 L 13.28125 10.246094 L 13.308594 10.234375 C 13.457031 10.222656 13.582031 10.261719 13.710938 10.300781 C 13.765625 10.316406 13.816406 10.332031 13.867188 10.34375 L 13.875 10.34375 C 13.832031 10.289062 13.78125 10.238281 13.730469 10.191406 C 13.664062 10.125 13.59375 10.0625 13.546875 9.984375 L 13.542969 9.960938 C 13.542969 9.929688 13.546875 9.902344 13.554688 9.871094 C 13.5 9.824219 13.460938 9.761719 13.433594 9.691406 C 13.394531 9.601562 13.378906 9.503906 13.378906 9.417969 L 13.378906 9.375 L 13.417969 9.375 C 13.5 9.367188 13.609375 9.375 13.710938 9.402344 C 13.796875 9.425781 13.875 9.460938 13.929688 9.507812 C 13.945312 9.507812 13.960938 9.507812 13.976562 9.511719 L 13.980469 9.511719 C 13.996094 9.515625 14.015625 9.519531 14.03125 9.527344 C 14.050781 9.535156 14.066406 9.542969 14.085938 9.558594 L 14.09375 9.5625 C 14.148438 9.636719 14.1875 9.722656 14.226562 9.808594 C 14.296875 9.964844 14.367188 10.121094 14.550781 10.160156 L 14.570312 10.164062 L 14.578125 10.179688 C 14.667969 10.320312 14.652344 10.460938 14.636719 10.605469 C 14.625 10.726562 14.613281 10.847656 14.667969 10.957031 C 14.699219 11.007812 14.753906 11.042969 14.804688 11.078125 C 14.824219 11.09375 14.84375 11.105469 14.859375 11.121094 C 14.925781 11.160156 15.070312 11.246094 15.199219 11.324219 L 15.261719 11.359375 C 15.304688 11.292969 15.355469 11.230469 15.417969 11.183594 L 15.515625 11.113281 C 15.484375 11.03125 15.492188 10.953125 15.519531 10.878906 C 15.546875 10.800781 15.601562 10.726562 15.65625 10.65625 C 15.703125 10.597656 15.753906 10.539062 15.804688 10.484375 C 15.9375 10.34375 16.066406 10.199219 16.082031 10.023438 C 16.066406 9.980469 16.046875 9.929688 16.027344 9.882812 C 15.949219 9.671875 15.871094 9.460938 15.738281 9.285156 C 15.671875 9.195312 15.609375 9.125 15.53125 9.054688 C 15.453125 8.988281 15.355469 8.925781 15.21875 8.851562 L 15.214844 8.851562 L 15.148438 8.808594 C 15.09375 8.773438 15.074219 8.757812 15.039062 8.738281 L 15.050781 8.660156 C 15.199219 8.640625 15.308594 8.625 15.394531 8.621094 C 15.375 8.621094 15.351562 8.621094 15.332031 8.621094 C 15.226562 8.625 15.117188 8.632812 15.011719 8.644531 C 14.90625 8.65625 14.804688 8.675781 14.707031 8.703125 L 14.644531 8.71875 L 14.652344 8.65625 C 14.671875 8.488281 14.710938 8.300781 14.792969 8.136719 C 14.875 7.96875 15.003906 7.832031 15.195312 7.769531 C 15.292969 7.734375 15.390625 7.726562 15.484375 7.742188 C 15.570312 7.753906 15.652344 7.785156 15.722656 7.832031 C 15.773438 7.757812 15.835938 7.695312 15.90625 7.648438 C 15.984375 7.601562 16.070312 7.574219 16.171875 7.582031 C 16.339844 7.597656 16.488281 7.660156 16.636719 7.71875 C 16.832031 7.796875 17.027344 7.875 17.25 7.851562 L 17.277344 7.847656 L 17.292969 7.871094 C 17.308594 7.902344 17.328125 7.933594 17.355469 7.957031 C 17.375 7.976562 17.398438 7.988281 17.421875 7.996094 C 17.53125 8.011719 17.625 7.945312 17.710938 7.878906 C 17.726562 7.871094 17.738281 7.859375 17.753906 7.847656 C 17.867188 7.75 17.945312 7.628906 17.980469 7.5 C 18.015625 7.371094 18.011719 7.234375 17.960938 7.101562 C 17.953125 7.078125 17.941406 7.054688 17.929688 7.035156 C 17.917969 7.011719 17.90625 6.992188 17.890625 6.96875 L 17.855469 6.914062 L 17.921875 6.902344 C 18.039062 6.886719 18.15625 6.914062 18.253906 6.96875 C 18.363281 7.027344 18.453125 7.117188 18.515625 7.222656 L 18.515625 7.226562 C 18.554688 7.3125 18.570312 7.410156 18.566406 7.503906 C 18.566406 7.597656 18.550781 7.6875 18.535156 7.769531 L 18.535156 7.773438 L 18.496094 7.941406 C 18.519531 7.914062 18.542969 7.886719 18.570312 7.859375 C 18.589844 7.835938 18.609375 7.8125 18.632812 7.789062 L 18.65625 7.761719 L 18.683594 7.78125 C 18.746094 7.816406 18.769531 7.878906 18.777344 7.941406 C 18.78125 7.996094 18.773438 8.054688 18.769531 8.105469 L 18.765625 8.105469 C 18.738281 8.234375 18.699219 8.359375 18.644531 8.480469 C 18.59375 8.589844 18.53125 8.695312 18.457031 8.800781 C 18.539062 8.910156 18.609375 9.027344 18.671875 9.148438 C 18.738281 9.277344 18.796875 9.410156 18.839844 9.546875 L 18.851562 9.5625 L 18.882812 9.644531 L 20.050781 8.476562 L 20.070312 8.480469 C 20.136719 8.484375 20.238281 8.523438 20.320312 8.574219 C 20.398438 8.621094 20.46875 8.679688 20.496094 8.738281 C 20.53125 8.804688 20.546875 8.878906 20.542969 8.953125 C 20.539062 9 20.527344 9.046875 20.511719 9.089844 L 21.195312 8.519531 L 21.222656 8.511719 C 21.316406 8.511719 21.441406 8.574219 21.550781 8.65625 C 21.667969 8.742188 21.769531 8.847656 21.808594 8.941406 C 21.859375 9.046875 21.871094 9.164062 21.851562 9.277344 C 21.839844 9.332031 21.820312 9.390625 21.792969 9.441406 L 21.800781 9.4375 L 21.816406 9.425781 L 21.835938 9.429688 C 21.921875 9.457031 22.019531 9.539062 22.097656 9.632812 C 22.175781 9.730469 22.242188 9.847656 22.253906 9.9375 C 22.269531 10.035156 22.253906 10.125 22.214844 10.207031 C 22.179688 10.292969 22.117188 10.363281 22.039062 10.417969 L 22.035156 10.421875 L 21.914062 10.488281 C 21.984375 10.542969 22.042969 10.632812 22.082031 10.730469 C 22.132812 10.847656 22.15625 10.980469 22.144531 11.082031 C 22.136719 11.148438 22.117188 11.21875 22.078125 11.28125 C 22.046875 11.339844 22 11.390625 21.941406 11.429688 L 21.933594 11.429688 L 21.316406 11.71875 C 21.359375 11.777344 21.386719 11.859375 21.398438 11.949219 C 21.414062 12.074219 21.402344 12.214844 21.375 12.3125 C 21.355469 12.378906 21.3125 12.445312 21.261719 12.5 C 21.207031 12.558594 21.140625 12.605469 21.074219 12.628906 L 19.542969 13.304688 L 19.53125 13.308594 C 19.519531 13.308594 19.511719 13.328125 19.503906 13.347656 C 19.496094 13.371094 19.488281 13.390625 19.46875 13.414062 C 19.367188 13.582031 19.214844 13.648438 19.0625 13.71875 C 18.9375 13.773438 18.816406 13.828125 18.726562 13.933594 L 18.710938 13.949219 L 18.683594 13.957031 L 18.75 14.074219 L 18.753906 14.085938 C 18.8125 14.394531 18.914062 14.6875 19.070312 14.949219 C 19.230469 15.207031 19.441406 15.433594 19.726562 15.605469 C 20.007812 15.742188 20.121094 16.007812 20.226562 16.261719 C 20.242188 16.304688 20.257812 16.34375 20.273438 16.378906 L 20.277344 16.386719 C 20.285156 16.417969 20.292969 16.449219 20.300781 16.484375 C 20.332031 16.613281 20.367188 16.738281 20.367188 16.882812 C 20.523438 16.960938 20.679688 17.039062 20.84375 17.105469 C 21.011719 17.171875 21.183594 17.226562 21.363281 17.253906 C 21.425781 17.261719 21.5 17.269531 21.570312 17.257812 C 21.636719 17.25 21.695312 17.226562 21.738281 17.183594 C 21.804688 17.121094 21.835938 17.042969 21.851562 16.960938 C 21.867188 16.859375 21.851562 16.746094 21.820312 16.644531 C 21.761719 16.433594 21.683594 16.238281 21.601562 16.039062 C 21.578125 15.972656 21.550781 15.910156 21.523438 15.839844 L 21.144531 14.949219 L 21.144531 14.945312 L 21.125 14.894531 C 20.953125 14.449219 20.777344 13.992188 20.765625 13.46875 L 20.765625 13.464844 C 20.765625 13.3125 20.796875 13.152344 20.863281 13.011719 C 20.921875 12.890625 21.011719 12.785156 21.136719 12.707031 C 21.242188 12.644531 21.355469 12.625 21.46875 12.636719 C 21.597656 12.652344 21.71875 12.707031 21.816406 12.78125 C 21.90625 12.847656 21.980469 12.921875 22.046875 13 C 22.109375 13.078125 22.164062 13.160156 22.210938 13.242188 C 22.246094 13.308594 22.28125 13.375 22.308594 13.441406 C 22.335938 13.503906 22.359375 13.570312 22.378906 13.636719 C 22.40625 13.644531 22.433594 13.65625 22.460938 13.667969 C 22.582031 13.714844 22.707031 13.765625 22.804688 13.882812 C 22.84375 13.925781 22.878906 13.972656 22.910156 14.019531 C 22.941406 14.066406 22.972656 14.117188 22.996094 14.164062 L 23 14.1875 C 23.003906 14.191406 23.007812 14.199219 23.011719 14.207031 L 23.019531 14.230469 C 23.046875 14.414062 23.050781 14.597656 23.042969 14.777344 C 23.035156 14.953125 23.015625 15.128906 22.992188 15.296875 L 22.984375 15.363281 L 22.929688 15.328125 L 22.375 14.992188 L 22.371094 14.988281 C 22.195312 14.875 22.042969 14.726562 21.949219 14.554688 C 21.867188 14.402344 21.828125 14.226562 21.855469 14.03125 C 21.859375 13.996094 21.867188 13.960938 21.875 13.925781 C 21.886719 13.890625 21.898438 13.855469 21.910156 13.824219 C 21.917969 13.773438 21.917969 13.714844 21.910156 13.660156 C 21.898438 13.59375 21.882812 13.527344 21.863281 13.464844 C 21.8125 13.378906 21.75 13.285156 21.675781 13.203125 C 21.601562 13.128906 21.515625 13.066406 21.417969 13.046875 C 21.382812 13.046875 21.351562 13.058594 21.324219 13.082031 C 21.28125 13.113281 21.25 13.160156 21.230469 13.207031 C 21.179688 13.328125 21.171875 13.46875 21.1875 13.613281 C 21.199219 13.761719 21.234375 13.910156 21.269531 14.042969 C 21.304688 14.167969 21.34375 14.292969 21.386719 14.414062 C 21.429688 14.535156 21.476562 14.65625 21.523438 14.777344 L 21.820312 15.480469 L 21.875 15.613281 C 22.015625 15.945312 22.15625 16.277344 22.242188 16.636719 C 22.289062 16.816406 22.28125 16.992188 22.230469 17.152344 C 22.175781 17.308594 22.078125 17.449219 21.933594 17.554688 L 21.933594 17.558594 C 21.742188 17.671875 21.535156 17.691406 21.332031 17.667969 C 21.128906 17.644531 20.933594 17.578125 20.757812 17.515625 C 20.675781 17.484375 20.59375 17.449219 20.515625 17.414062 C 20.457031 17.386719 20.394531 17.359375 20.335938 17.328125 C 20.324219 17.417969 20.304688 17.503906 20.277344 17.585938 C 20.242188 17.691406 20.1875 17.789062 20.105469 17.878906 C 20.070312 17.925781 20.027344 17.96875 19.988281 18.007812 C 19.949219 18.046875 19.90625 18.082031 19.863281 18.117188 L 19.859375 18.121094 C 19.773438 18.175781 19.683594 18.226562 19.59375 18.273438 C 19.402344 18.378906 19.207031 18.484375 19.066406 18.671875 C 19.078125 18.671875 19.09375 18.671875 19.105469 18.671875 C 19.121094 18.671875 19.136719 18.675781 19.148438 18.675781 C 19.292969 18.671875 19.433594 18.648438 19.574219 18.621094 C 19.714844 18.597656 19.855469 18.570312 20.003906 18.566406 C 20.125 18.566406 20.25 18.609375 20.355469 18.679688 C 20.460938 18.75 20.546875 18.847656 20.589844 18.960938 C 20.605469 19.003906 20.621094 19.054688 20.628906 19.105469 C 20.632812 19.152344 20.636719 19.195312 20.632812 19.238281 L 20.636719 19.242188 L 20.632812 19.265625 C 20.625 19.320312 20.609375 19.367188 20.59375 19.417969 C 20.582031 19.453125 20.574219 19.488281 20.566406 19.523438 L 20.5625 19.527344 L 20.542969 19.589844 C 20.507812 19.695312 20.472656 19.808594 20.414062 19.910156 L 20.414062 19.914062 C 20.410156 19.917969 20.410156 19.921875 20.40625 19.925781 L 20.410156 19.929688 L 20.390625 19.960938 C 20.363281 20 20.34375 20.039062 20.320312 20.082031 C 20.300781 20.121094 20.277344 20.164062 20.25 20.203125 C 20.214844 20.261719 20.167969 20.316406 20.125 20.367188 C 20.035156 20.476562 19.945312 20.582031 19.925781 20.703125 C 19.925781 20.722656 19.929688 20.742188 19.933594 20.761719 C 19.933594 20.777344 19.9375 20.792969 19.945312 20.804688 C 20.054688 20.902344 20.199219 20.914062 20.339844 20.925781 C 20.472656 20.9375 20.609375 20.949219 20.726562 21.027344 L 20.730469 21.03125 C 20.746094 21.042969 20.761719 21.058594 20.777344 21.074219 C 20.792969 21.089844 20.804688 21.105469 20.816406 21.125 L 20.832031 21.15625 L 20.804688 21.175781 L 20.75 21.226562 C 20.777344 21.277344 20.800781 21.335938 20.820312 21.394531 C 20.855469 21.496094 20.871094 21.601562 20.851562 21.699219 L 20.839844 21.757812 L 20.789062 21.726562 C 20.742188 21.699219 20.679688 21.683594 20.609375 21.664062 C 20.523438 21.640625 20.4375 21.613281 20.367188 21.566406 L 20.34375 21.578125 C 20.320312 21.578125 20.296875 21.578125 20.273438 21.574219 C 20.25 21.570312 20.226562 21.5625 20.203125 21.550781 L 20.1875 21.535156 C 20.121094 21.410156 20.003906 21.351562 19.886719 21.296875 C 19.804688 21.257812 19.71875 21.21875 19.644531 21.15625 C 19.460938 21.226562 19.414062 21.40625 19.371094 21.585938 C 19.347656 21.6875 19.320312 21.792969 19.269531 21.882812 L 19.261719 21.890625 C 19.25 21.90625 19.238281 21.925781 19.21875 21.9375 L 19.199219 21.953125 L 19.175781 21.945312 L 19.164062 21.9375 C 19.113281 21.992188 19.050781 22.035156 18.984375 22.066406 C 18.910156 22.105469 18.832031 22.132812 18.765625 22.152344 L 18.730469 22.160156 L 18.714844 22.128906 C 18.691406 22.074219 18.671875 22 18.664062 21.921875 C 18.65625 21.863281 18.652344 21.800781 18.660156 21.742188 L 18.652344 21.742188 L 18.636719 21.730469 C 18.570312 21.667969 18.601562 21.601562 18.628906 21.542969 C 18.636719 21.53125 18.640625 21.519531 18.644531 21.511719 L 18.648438 21.503906 C 18.714844 21.382812 18.808594 21.285156 18.902344 21.183594 C 18.949219 21.132812 19 21.078125 19.042969 21.023438 C 18.972656 21.011719 18.910156 21.058594 18.84375 21.101562 C 18.804688 21.128906 18.765625 21.15625 18.726562 21.175781 C 18.707031 21.199219 18.6875 21.226562 18.667969 21.257812 C 18.578125 21.398438 18.476562 21.550781 18.296875 21.570312 L 18.28125 21.566406 L 18.261719 21.5625 L 18.25 21.558594 L 18.246094 21.558594 C 18.210938 21.597656 18.171875 21.632812 18.125 21.660156 C 18.050781 21.707031 17.960938 21.738281 17.875 21.753906 L 17.839844 21.761719 L 17.828125 21.726562 C 17.804688 21.648438 17.789062 21.554688 17.789062 21.464844 C 17.789062 21.417969 17.796875 21.371094 17.808594 21.328125 L 17.773438 21.308594 L 17.753906 21.300781 L 17.753906 21.277344 C 17.742188 21.214844 17.746094 21.148438 17.769531 21.085938 C 17.789062 21.035156 17.824219 20.984375 17.878906 20.945312 C 17.9375 20.894531 18.007812 20.863281 18.078125 20.828125 C 18.140625 20.800781 18.203125 20.769531 18.257812 20.726562 C 18.210938 20.699219 18.167969 20.671875 18.125 20.636719 C 18.078125 20.59375 18.035156 20.546875 18.007812 20.496094 L 17.996094 20.480469 L 18.011719 20.441406 C 17.964844 20.410156 17.925781 20.367188 17.894531 20.324219 C 17.84375 20.253906 17.804688 20.179688 17.773438 20.113281 L 17.757812 20.082031 L 17.789062 20.058594 C 17.855469 20.019531 17.941406 19.984375 18.027344 19.972656 C 18.082031 19.964844 18.136719 19.964844 18.191406 19.972656 L 18.199219 19.957031 L 18.234375 19.964844 C 18.308594 19.984375 18.382812 20.019531 18.449219 20.0625 C 18.515625 20.105469 18.574219 20.15625 18.628906 20.210938 C 18.742188 20.261719 18.871094 20.308594 19.003906 20.324219 C 19.132812 20.339844 19.261719 20.324219 19.375 20.253906 C 19.429688 20.214844 19.464844 20.152344 19.5 20.09375 C 19.515625 20.066406 19.53125 20.039062 19.550781 20.011719 C 19.597656 19.925781 19.644531 19.839844 19.679688 19.75 C 19.710938 19.660156 19.730469 19.566406 19.726562 19.46875 C 19.722656 19.433594 19.714844 19.398438 19.703125 19.367188 C 19.691406 19.339844 19.671875 19.316406 19.648438 19.292969 C 19.621094 19.277344 19.589844 19.265625 19.558594 19.261719 C 19.53125 19.253906 19.5 19.253906 19.46875 19.261719 L 19.117188 19.378906 C 19.085938 19.394531 19.050781 19.410156 19.011719 19.421875 C 18.976562 19.433594 18.941406 19.445312 18.902344 19.457031 L 18.414062 19.574219 L 18.40625 19.578125 C 18.300781 19.589844 18.242188 19.59375 18.183594 19.589844 C 18.125 19.582031 18.066406 19.566406 17.960938 19.53125 C 17.816406 19.488281 17.710938 19.445312 17.628906 19.390625 C 17.542969 19.335938 17.480469 19.265625 17.429688 19.167969 C 17.40625 19.125 17.382812 19.082031 17.363281 19.039062 C 17.222656 19.117188 16.984375 19.246094 16.890625 19.378906 C 16.949219 19.472656 17.050781 19.511719 17.152344 19.546875 C 17.289062 19.597656 17.421875 19.648438 17.476562 19.824219 L 17.480469 19.824219 L 17.503906 19.910156 L 17.511719 19.941406 L 17.480469 19.957031 L 17.460938 19.96875 C 17.472656 20.058594 17.476562 20.148438 17.460938 20.234375 C 17.449219 20.332031 17.414062 20.421875 17.359375 20.5 L 17.320312 20.550781 L 17.289062 20.5 C 17.257812 20.460938 17.21875 20.421875 17.175781 20.382812 C 17.113281 20.328125 17.050781 20.269531 17.019531 20.195312 L 17.011719 20.195312 L 17 20.191406 C 16.960938 20.1875 16.917969 20.183594 16.90625 20.125 C 16.886719 20.078125 16.851562 20.03125 16.808594 19.992188 C 16.769531 19.960938 16.726562 19.933594 16.679688 19.929688 C 16.511719 19.902344 16.351562 19.960938 16.199219 20.015625 C 16.152344 20.035156 16.109375 20.050781 16.0625 20.0625 C 16.042969 20.09375 16.027344 20.125 16.007812 20.15625 C 15.957031 20.238281 15.90625 20.324219 15.832031 20.394531 L 15.824219 20.398438 L 15.785156 20.421875 L 15.761719 20.433594 L 15.738281 20.417969 C 15.730469 20.410156 15.722656 20.402344 15.714844 20.398438 C 15.679688 20.429688 15.636719 20.457031 15.59375 20.476562 C 15.511719 20.519531 15.421875 20.546875 15.335938 20.558594 L 15.308594 20.558594 L 15.292969 20.535156 C 15.285156 20.515625 15.277344 20.492188 15.277344 20.472656 C 15.273438 20.449219 15.273438 20.429688 15.273438 20.410156 C 15.273438 20.347656 15.285156 20.292969 15.304688 20.238281 C 15.316406 20.210938 15.328125 20.183594 15.339844 20.15625 C 15.332031 20.152344 15.324219 20.144531 15.316406 20.136719 L 15.289062 20.113281 L 15.308594 20.082031 C 15.332031 20.046875 15.359375 20.019531 15.382812 19.988281 C 15.417969 19.949219 15.449219 19.910156 15.472656 19.867188 C 15.429688 19.878906 15.394531 19.910156 15.359375 19.9375 C 15.285156 19.992188 15.214844 20.046875 15.105469 20.027344 L 15.101562 20.023438 C 15.046875 20.0625 14.984375 20.089844 14.917969 20.109375 C 14.820312 20.136719 14.71875 20.144531 14.636719 20.128906 L 14.597656 20.125 L 14.601562 20.085938 C 14.609375 20.011719 14.636719 19.929688 14.679688 19.847656 C 14.707031 19.800781 14.738281 19.757812 14.769531 19.71875 L 14.753906 19.699219 L 14.71875 19.664062 L 14.757812 19.636719 L 14.84375 19.570312 L 14.855469 19.5625 C 14.894531 19.550781 14.933594 19.542969 14.972656 19.535156 C 15.042969 19.519531 15.109375 19.503906 15.160156 19.472656 C 15.132812 19.464844 15.097656 19.46875 15.066406 19.472656 C 15.015625 19.480469 14.964844 19.484375 14.917969 19.464844 L 14.894531 19.441406 L 14.894531 19.4375 C 14.839844 19.441406 14.789062 19.433594 14.734375 19.414062 C 14.65625 19.390625 14.582031 19.34375 14.511719 19.296875 L 14.480469 19.273438 L 14.496094 19.238281 C 14.539062 19.164062 14.59375 19.097656 14.660156 19.046875 C 14.695312 19.019531 14.730469 18.996094 14.769531 18.980469 L 14.78125 18.96875 C 14.796875 18.949219 14.824219 18.925781 14.859375 18.902344 C 14.898438 18.878906 14.945312 18.859375 15.003906 18.855469 L 15.007812 18.855469 C 15.25 18.863281 15.433594 18.894531 15.589844 18.917969 C 15.945312 18.972656 16.144531 19.007812 16.527344 18.679688 C 16.460938 18.53125 16.328125 18.425781 16.191406 18.316406 C 15.984375 18.152344 15.769531 17.984375 15.734375 17.640625 L 15.734375 17.636719 C 15.730469 17.402344 15.78125 17.175781 15.882812 16.96875 C 15.980469 16.761719 16.128906 16.570312 16.320312 16.414062 L 16.324219 16.410156 C 16.453125 16.324219 16.585938 16.238281 16.730469 16.164062 C 16.867188 16.09375 17.011719 16.039062 17.167969 16.007812 C 17.191406 15.960938 17.195312 15.90625 17.191406 15.847656 C 17.1875 15.777344 17.167969 15.710938 17.152344 15.648438 C 17.125 15.578125 17.011719 15.433594 16.871094 15.273438 C 16.789062 15.179688 16.695312 15.082031 16.609375 14.992188 C 16.546875 15.003906 16.488281 15.011719 16.425781 15.015625 C 16.269531 15.035156 16.109375 15.046875 15.953125 15.054688 L 15.265625 15.097656 L 15.191406 15.105469 C 15.246094 15.195312 15.347656 15.257812 15.445312 15.324219 C 15.496094 15.355469 15.542969 15.386719 15.589844 15.421875 C 15.628906 15.453125 15.660156 15.492188 15.679688 15.535156 C 15.695312 15.574219 15.703125 15.621094 15.695312 15.671875 L 15.6875 15.703125 L 15.683594 15.722656 L 15.664062 15.734375 C 15.648438 15.742188 15.628906 15.753906 15.613281 15.761719 C 15.628906 15.917969 15.648438 16.175781 15.601562 16.277344 C 15.601562 16.28125 15.601562 16.28125 15.601562 16.285156 L 15.558594 16.347656 C 15.546875 16.367188 15.519531 16.371094 15.5 16.359375 C 15.496094 16.355469 15.492188 16.351562 15.488281 16.34375 C 15.457031 16.300781 15.378906 16.257812 15.300781 16.207031 C 15.226562 16.164062 15.148438 16.117188 15.097656 16.0625 L 15.054688 16.085938 L 15.027344 16.089844 C 14.890625 16.066406 14.851562 15.953125 14.8125 15.847656 C 14.804688 15.832031 14.800781 15.816406 14.792969 15.800781 L 14.792969 15.792969 C 14.761719 15.679688 14.71875 15.566406 14.679688 15.453125 C 14.664062 15.414062 14.648438 15.371094 14.636719 15.328125 C 14.625 15.304688 14.609375 15.28125 14.589844 15.257812 C 14.578125 15.246094 14.566406 15.234375 14.554688 15.226562 C 14.464844 15.324219 14.359375 15.398438 14.25 15.457031 C 14.125 15.519531 13.996094 15.5625 13.855469 15.589844 C 13.804688 15.601562 13.777344 15.570312 13.753906 15.546875 L 13.75 15.542969 C 13.6875 15.566406 13.617188 15.589844 13.546875 15.601562 C 13.433594 15.621094 13.324219 15.621094 13.25 15.59375 C 13.230469 15.585938 13.21875 15.5625 13.222656 15.542969 C 13.242188 15.46875 13.300781 15.367188 13.371094 15.28125 C 13.410156 15.230469 13.460938 15.179688 13.507812 15.144531 C 13.5 15.105469 13.5 15.0625 13.527344 15.027344 C 13.582031 14.953125 13.65625 14.9375 13.734375 14.921875 C 13.789062 14.90625 13.84375 14.894531 13.875 14.859375 C 13.847656 14.847656 13.816406 14.839844 13.785156 14.835938 L 13.765625 14.832031 C 13.722656 14.828125 13.675781 14.824219 13.628906 14.820312 C 13.527344 14.8125 13.429688 14.804688 13.335938 14.769531 L 13.332031 14.765625 C 13.320312 14.761719 13.304688 14.753906 13.292969 14.742188 C 13.28125 14.734375 13.269531 14.722656 13.261719 14.710938 L 13.253906 14.679688 L 13.257812 14.664062 C 13.203125 14.648438 13.152344 14.625 13.101562 14.597656 C 13.003906 14.539062 12.914062 14.464844 12.867188 14.394531 C 12.855469 14.378906 12.859375 14.355469 12.871094 14.339844 C 12.933594 14.285156 13.03125 14.226562 13.132812 14.1875 C 13.199219 14.164062 13.269531 14.148438 13.332031 14.144531 C 13.394531 14.105469 13.464844 14.09375 13.539062 14.097656 C 13.605469 14.101562 13.675781 14.121094 13.734375 14.140625 L 13.738281 14.140625 L 13.992188 14.246094 C 13.976562 14.210938 13.949219 14.183594 13.917969 14.160156 C 13.871094 14.128906 13.816406 14.105469 13.769531 14.085938 C 13.746094 14.074219 13.722656 14.066406 13.699219 14.058594 C 13.617188 14.027344 13.527344 13.996094 13.472656 13.910156 L 13.46875 13.902344 C 13.457031 13.882812 13.453125 13.863281 13.453125 13.84375 C 13.453125 13.820312 13.453125 13.800781 13.460938 13.78125 L 13.472656 13.757812 L 13.492188 13.742188 C 13.46875 13.691406 13.449219 13.632812 13.4375 13.570312 C 13.414062 13.445312 13.410156 13.304688 13.429688 13.21875 C 13.433594 13.199219 13.453125 13.183594 13.476562 13.183594 C 13.554688 13.191406 13.667969 13.234375 13.773438 13.292969 L 13.777344 13.292969 C 13.832031 13.324219 13.882812 13.355469 13.925781 13.390625 L 13.976562 13.347656 L 14.007812 13.339844 C 14.117188 13.351562 14.171875 13.433594 14.222656 13.511719 C 14.238281 13.539062 14.257812 13.566406 14.277344 13.585938 L 14.28125 13.59375 C 14.304688 13.632812 14.332031 13.675781 14.351562 13.71875 C 14.371094 13.757812 14.386719 13.800781 14.398438 13.847656 C 14.4375 13.890625 14.480469 13.941406 14.523438 14 C 14.640625 14.15625 14.769531 14.328125 14.96875 14.25 L 15.796875 13.886719 Z M 20.683594 21.285156 L 20.433594 21.507812 C 20.492188 21.539062 20.5625 21.5625 20.632812 21.582031 C 20.683594 21.59375 20.730469 21.609375 20.773438 21.625 C 20.777344 21.558594 20.761719 21.488281 20.738281 21.421875 C 20.722656 21.375 20.707031 21.328125 20.683594 21.285156 Z M 19.074219 21.90625 L 18.742188 21.777344 C 18.738281 21.820312 18.742188 21.867188 18.746094 21.914062 C 18.753906 21.964844 18.765625 22.015625 18.777344 22.058594 C 18.832031 22.039062 18.890625 22.019531 18.945312 21.988281 C 18.992188 21.964844 19.039062 21.9375 19.074219 21.90625 Z M 18.167969 21.515625 L 17.886719 21.367188 C 17.878906 21.398438 17.875 21.433594 17.875 21.464844 C 17.875 21.53125 17.882812 21.601562 17.898438 21.660156 C 17.960938 21.648438 18.023438 21.621094 18.082031 21.585938 C 18.113281 21.566406 18.140625 21.542969 18.167969 21.515625 Z M 18.042969 20.359375 L 18.160156 20.054688 C 18.121094 20.050781 18.082031 20.050781 18.039062 20.058594 C 17.980469 20.066406 17.921875 20.085938 17.871094 20.113281 C 17.894531 20.164062 17.925781 20.222656 17.964844 20.273438 C 17.988281 20.304688 18.011719 20.335938 18.042969 20.359375 Z M 17.382812 20.011719 L 17.097656 20.160156 C 17.125 20.21875 17.179688 20.269531 17.234375 20.320312 C 17.261719 20.347656 17.292969 20.375 17.320312 20.402344 C 17.347656 20.347656 17.367188 20.285156 17.378906 20.222656 C 17.386719 20.15625 17.386719 20.082031 17.382812 20.011719 Z M 15.027344 19.96875 C 15.019531 19.960938 15.015625 19.949219 15.007812 19.941406 C 15 19.929688 14.992188 19.921875 14.984375 19.910156 L 14.980469 19.90625 C 14.957031 19.875 14.929688 19.835938 14.898438 19.804688 C 14.878906 19.789062 14.863281 19.773438 14.84375 19.761719 C 14.8125 19.800781 14.78125 19.84375 14.757812 19.890625 C 14.726562 19.945312 14.703125 20 14.691406 20.050781 C 14.753906 20.054688 14.824219 20.046875 14.894531 20.027344 C 14.941406 20.011719 14.988281 19.992188 15.027344 19.96875 Z M 14.871094 19.355469 C 14.871094 19.339844 14.867188 19.324219 14.867188 19.308594 C 14.863281 19.277344 14.859375 19.242188 14.847656 19.210938 C 14.839844 19.175781 14.828125 19.144531 14.816406 19.113281 C 14.808594 19.097656 14.800781 19.078125 14.792969 19.0625 C 14.765625 19.078125 14.738281 19.09375 14.714844 19.113281 C 14.667969 19.148438 14.625 19.195312 14.59375 19.25 C 14.648438 19.285156 14.703125 19.316406 14.761719 19.335938 C 14.796875 19.347656 14.835938 19.351562 14.871094 19.355469 Z M 15.640625 20.347656 C 15.609375 20.332031 15.582031 20.3125 15.554688 20.296875 C 15.503906 20.269531 15.457031 20.242188 15.410156 20.210938 C 15.398438 20.230469 15.390625 20.246094 15.386719 20.265625 C 15.367188 20.3125 15.359375 20.359375 15.359375 20.410156 C 15.359375 20.425781 15.359375 20.445312 15.359375 20.460938 L 15.363281 20.46875 C 15.425781 20.457031 15.492188 20.433594 15.554688 20.402344 C 15.585938 20.386719 15.613281 20.367188 15.640625 20.347656 Z M 15.109375 12.074219 C 15.101562 11.914062 15.117188 11.734375 15.167969 11.574219 C 15.183594 11.523438 15.199219 11.480469 15.222656 11.433594 L 15.15625 11.398438 C 15.023438 11.320312 14.878906 11.230469 14.8125 11.191406 L 14.808594 11.1875 C 14.792969 11.175781 14.773438 11.164062 14.757812 11.152344 L 14.757812 11.148438 C 14.695312 11.109375 14.632812 11.066406 14.59375 11.003906 L 14.589844 11 C 14.523438 10.863281 14.539062 10.730469 14.550781 10.597656 C 14.566406 10.472656 14.578125 10.351562 14.515625 10.242188 C 14.300781 10.1875 14.226562 10.015625 14.148438 9.84375 C 14.113281 9.765625 14.078125 9.683594 14.027344 9.621094 C 14.019531 9.617188 14.011719 9.609375 14 9.605469 C 13.988281 9.601562 13.976562 9.597656 13.960938 9.59375 C 13.875 9.578125 13.820312 9.644531 13.761719 9.707031 C 13.738281 9.734375 13.71875 9.757812 13.695312 9.777344 C 13.675781 9.808594 13.660156 9.835938 13.648438 9.867188 C 13.636719 9.894531 13.628906 9.921875 13.625 9.949219 C 13.667969 10.015625 13.730469 10.070312 13.789062 10.128906 C 13.84375 10.179688 13.898438 10.234375 13.945312 10.292969 L 13.953125 10.308594 C 13.96875 10.335938 13.984375 10.367188 13.953125 10.402344 L 13.953125 10.40625 C 13.925781 10.4375 13.882812 10.429688 13.859375 10.429688 L 13.851562 10.429688 C 13.796875 10.414062 13.742188 10.398438 13.6875 10.382812 C 13.570312 10.347656 13.457031 10.3125 13.328125 10.316406 L 13.3125 10.332031 L 13.234375 10.792969 C 13.238281 10.796875 13.242188 10.800781 13.246094 10.804688 C 13.257812 10.808594 13.265625 10.8125 13.273438 10.816406 C 13.332031 10.820312 13.386719 10.820312 13.441406 10.820312 C 13.511719 10.820312 13.578125 10.824219 13.644531 10.828125 L 13.652344 10.828125 C 13.78125 10.859375 13.839844 10.953125 13.898438 11.046875 C 13.929688 11.097656 13.960938 11.148438 14 11.183594 L 14.039062 11.21875 L 14 11.25 L 13.566406 11.578125 C 13.539062 11.601562 13.515625 11.625 13.5 11.65625 C 13.492188 11.671875 13.484375 11.691406 13.488281 11.714844 L 13.800781 12.097656 C 13.808594 12.101562 13.816406 12.101562 13.828125 12.101562 C 13.835938 12.101562 13.847656 12.101562 13.859375 12.097656 C 13.964844 12.0625 14.042969 11.960938 14.121094 11.859375 C 14.167969 11.800781 14.214844 11.738281 14.265625 11.6875 L 14.285156 11.671875 L 14.3125 11.679688 C 14.449219 11.734375 14.648438 11.816406 14.839844 11.914062 C 14.933594 11.960938 15.027344 12.015625 15.109375 12.074219 Z M 13.503906 11.867188 C 13.492188 11.886719 13.484375 11.90625 13.476562 11.925781 C 13.445312 12.007812 13.421875 12.09375 13.414062 12.15625 C 13.457031 12.15625 13.507812 12.148438 13.5625 12.132812 C 13.605469 12.121094 13.644531 12.105469 13.683594 12.089844 Z M 13.589844 9.789062 C 13.601562 9.765625 13.613281 9.746094 13.625 9.726562 L 13.632812 9.71875 C 13.65625 9.699219 13.675781 9.675781 13.695312 9.652344 C 13.734375 9.609375 13.773438 9.566406 13.824219 9.535156 C 13.785156 9.515625 13.738281 9.5 13.691406 9.484375 C 13.613281 9.464844 13.53125 9.457031 13.464844 9.457031 C 13.46875 9.523438 13.484375 9.59375 13.511719 9.660156 C 13.53125 9.707031 13.558594 9.753906 13.589844 9.789062 Z M 13.160156 10.707031 L 13.222656 10.359375 C 13.167969 10.359375 13.109375 10.363281 13.050781 10.375 C 12.964844 10.390625 12.882812 10.414062 12.828125 10.441406 C 12.871094 10.5 12.941406 10.570312 13.023438 10.625 C 13.066406 10.660156 13.117188 10.6875 13.160156 10.707031 Z M 13.867188 10.34375 L 13.871094 10.34375 M 13.886719 10.347656 C 13.890625 10.34375 13.886719 10.347656 13.886719 10.347656 Z M 13.699219 15.472656 L 13.535156 15.230469 C 13.5 15.261719 13.46875 15.296875 13.4375 15.335938 C 13.386719 15.398438 13.34375 15.46875 13.320312 15.523438 C 13.378906 15.535156 13.453125 15.53125 13.53125 15.515625 C 13.589844 15.507812 13.648438 15.492188 13.699219 15.472656 Z M 13.265625 14.578125 L 13.304688 14.234375 C 13.257812 14.238281 13.210938 14.25 13.164062 14.269531 C 13.085938 14.296875 13.015625 14.335938 12.960938 14.378906 C 13.003906 14.429688 13.070312 14.480469 13.144531 14.523438 C 13.183594 14.542969 13.226562 14.5625 13.265625 14.578125 Z M 13.5625 13.6875 L 13.855469 13.445312 C 13.820312 13.417969 13.777344 13.394531 13.738281 13.367188 L 13.734375 13.367188 C 13.652344 13.324219 13.570312 13.289062 13.507812 13.277344 C 13.5 13.351562 13.503906 13.457031 13.523438 13.554688 C 13.53125 13.601562 13.542969 13.648438 13.5625 13.6875 Z M 15.53125 15.8125 C 15.460938 15.855469 15.386719 15.898438 15.304688 15.925781 C 15.277344 15.9375 15.257812 15.960938 15.234375 15.984375 L 15.226562 15.988281 L 15.21875 15.996094 L 15.175781 16.019531 C 15.21875 16.058594 15.285156 16.097656 15.34375 16.136719 C 15.410156 16.175781 15.472656 16.210938 15.519531 16.253906 L 15.527344 16.242188 C 15.5625 16.160156 15.546875 15.957031 15.53125 15.8125 Z M 18.605469 13.992188 C 18.4375 14.078125 18.292969 14.207031 18.144531 14.335938 L 18.128906 14.351562 C 18.050781 14.429688 17.992188 14.519531 17.929688 14.609375 C 17.859375 14.710938 17.789062 14.816406 17.695312 14.90625 L 17.691406 14.910156 C 17.621094 14.957031 17.554688 14.933594 17.496094 14.910156 C 17.480469 14.90625 17.46875 14.898438 17.457031 14.898438 L 17.453125 14.894531 C 17.40625 14.878906 17.359375 14.855469 17.316406 14.832031 C 17.28125 14.8125 17.242188 14.789062 17.207031 14.769531 L 16.894531 14.933594 L 16.886719 14.9375 C 16.828125 14.953125 16.769531 14.964844 16.710938 14.976562 C 16.785156 15.054688 16.863281 15.136719 16.933594 15.21875 C 17.082031 15.382812 17.203125 15.539062 17.234375 15.621094 L 17.234375 15.625 C 17.253906 15.6875 17.273438 15.765625 17.277344 15.839844 C 17.285156 15.921875 17.273438 16 17.234375 16.070312 L 17.222656 16.085938 L 17.203125 16.089844 C 17.046875 16.117188 16.902344 16.171875 16.769531 16.238281 C 16.632812 16.308594 16.5 16.394531 16.371094 16.480469 C 16.191406 16.632812 16.050781 16.808594 15.957031 17.003906 C 15.863281 17.199219 15.816406 17.410156 15.816406 17.632812 C 15.851562 17.9375 16.050781 18.097656 16.246094 18.25 C 16.398438 18.371094 16.546875 18.492188 16.617188 18.675781 L 16.628906 18.703125 L 16.605469 18.722656 C 16.179688 19.097656 15.964844 19.0625 15.578125 19.003906 C 15.425781 18.980469 15.242188 18.949219 15.007812 18.941406 C 14.964844 18.945312 14.933594 18.960938 14.90625 18.976562 C 14.886719 18.984375 14.875 18.996094 14.863281 19.007812 C 14.875 19.03125 14.882812 19.054688 14.894531 19.082031 C 14.90625 19.113281 14.921875 19.152344 14.929688 19.1875 C 14.941406 19.226562 14.949219 19.261719 14.953125 19.300781 C 14.957031 19.332031 14.960938 19.363281 14.96875 19.390625 C 14.992188 19.394531 15.023438 19.390625 15.054688 19.386719 C 15.128906 19.378906 15.199219 19.371094 15.257812 19.4375 L 15.285156 19.46875 L 15.257812 19.496094 L 15.230469 19.53125 L 15.21875 19.535156 C 15.152344 19.582031 15.070312 19.601562 14.992188 19.617188 C 14.957031 19.625 14.921875 19.632812 14.890625 19.640625 L 14.851562 19.667969 C 14.890625 19.6875 14.925781 19.714844 14.957031 19.742188 C 14.992188 19.777344 15.023438 19.820312 15.050781 19.859375 C 15.058594 19.867188 15.066406 19.878906 15.074219 19.890625 C 15.089844 19.910156 15.109375 19.933594 15.128906 19.941406 C 15.195312 19.953125 15.25 19.910156 15.304688 19.871094 C 15.375 19.816406 15.441406 19.765625 15.542969 19.78125 L 15.589844 19.785156 L 15.578125 19.832031 C 15.554688 19.917969 15.5 19.980469 15.449219 20.042969 C 15.433594 20.0625 15.417969 20.078125 15.402344 20.097656 C 15.464844 20.152344 15.53125 20.1875 15.597656 20.222656 C 15.652344 20.257812 15.710938 20.289062 15.769531 20.332031 L 15.777344 20.328125 C 15.84375 20.265625 15.886719 20.191406 15.933594 20.113281 C 15.957031 20.078125 15.976562 20.039062 16 20.003906 L 16.023438 19.988281 C 16.070312 19.972656 16.121094 19.953125 16.167969 19.9375 C 16.332031 19.875 16.5 19.8125 16.695312 19.84375 C 16.757812 19.855469 16.816406 19.886719 16.863281 19.929688 C 16.917969 19.976562 16.964844 20.039062 16.988281 20.097656 L 16.992188 20.109375 C 16.992188 20.113281 17 20.105469 17.007812 20.109375 L 17.011719 20.109375 L 17.410156 19.898438 L 17.394531 19.847656 C 17.351562 19.710938 17.238281 19.671875 17.121094 19.628906 C 17 19.582031 16.875 19.539062 16.804688 19.394531 L 16.792969 19.375 L 16.804688 19.355469 C 16.898438 19.199219 17.164062 19.046875 17.320312 18.960938 C 17.265625 18.835938 17.222656 18.703125 17.191406 18.566406 C 17.160156 18.410156 17.140625 18.25 17.140625 18.085938 C 17.140625 17.929688 17.144531 17.792969 17.164062 17.660156 C 17.179688 17.527344 17.214844 17.398438 17.273438 17.257812 C 17.363281 17.03125 17.535156 16.929688 17.730469 16.839844 C 17.773438 16.816406 17.820312 16.796875 17.867188 16.777344 C 17.910156 16.753906 17.949219 16.734375 17.992188 16.714844 C 18.117188 16.652344 18.246094 16.589844 18.355469 16.511719 C 18.394531 16.476562 18.429688 16.417969 18.453125 16.355469 C 18.476562 16.28125 18.488281 16.199219 18.480469 16.140625 L 18.480469 16.128906 L 18.488281 16.101562 L 18.570312 16.101562 C 18.585938 16.210938 18.574219 16.316406 18.535156 16.410156 C 18.496094 16.503906 18.429688 16.589844 18.339844 16.652344 L 18.339844 16.65625 C 18.234375 16.71875 18.121094 16.765625 18.007812 16.8125 C 17.972656 16.828125 17.9375 16.839844 17.902344 16.855469 L 17.886719 16.863281 L 17.882812 16.863281 L 17.847656 16.882812 C 17.820312 16.894531 17.792969 16.90625 17.769531 16.917969 C 17.714844 16.945312 17.660156 16.976562 17.613281 17.015625 L 17.609375 17.015625 C 17.265625 17.257812 17.25 17.667969 17.234375 18.054688 L 17.234375 18.085938 C 17.226562 18.28125 17.253906 18.460938 17.300781 18.636719 C 17.351562 18.808594 17.421875 18.972656 17.503906 19.128906 C 17.550781 19.214844 17.601562 19.273438 17.675781 19.320312 C 17.75 19.367188 17.847656 19.40625 17.984375 19.449219 L 17.988281 19.449219 C 18.085938 19.484375 18.140625 19.5 18.191406 19.503906 C 18.242188 19.507812 18.296875 19.503906 18.394531 19.492188 L 18.878906 19.375 C 18.914062 19.363281 18.949219 19.351562 18.984375 19.339844 C 19.019531 19.328125 19.050781 19.316406 19.082031 19.300781 L 19.085938 19.296875 L 19.441406 19.179688 L 19.445312 19.179688 C 19.488281 19.167969 19.535156 19.167969 19.578125 19.175781 C 19.617188 19.183594 19.65625 19.199219 19.691406 19.21875 L 19.703125 19.226562 C 19.738281 19.257812 19.761719 19.292969 19.78125 19.335938 C 19.796875 19.375 19.808594 19.417969 19.8125 19.460938 L 19.8125 19.464844 C 19.816406 19.578125 19.792969 19.679688 19.757812 19.777344 C 19.722656 19.875 19.675781 19.964844 19.625 20.054688 L 19.621094 20.058594 C 19.605469 20.082031 19.589844 20.109375 19.574219 20.136719 C 19.535156 20.207031 19.496094 20.273438 19.425781 20.324219 L 19.421875 20.324219 C 19.289062 20.40625 19.140625 20.425781 18.992188 20.410156 C 18.851562 20.394531 18.707031 20.34375 18.585938 20.285156 L 18.574219 20.277344 C 18.523438 20.222656 18.464844 20.175781 18.402344 20.132812 C 18.355469 20.101562 18.304688 20.078125 18.25 20.058594 L 18.089844 20.472656 C 18.113281 20.507812 18.144531 20.539062 18.179688 20.570312 C 18.230469 20.613281 18.289062 20.648438 18.34375 20.675781 L 18.394531 20.703125 L 18.359375 20.742188 C 18.289062 20.824219 18.203125 20.867188 18.113281 20.90625 C 18.050781 20.9375 17.984375 20.96875 17.933594 21.011719 L 17.929688 21.015625 C 17.890625 21.042969 17.863281 21.078125 17.851562 21.117188 C 17.835938 21.15625 17.832031 21.199219 17.835938 21.246094 L 18.285156 21.480469 L 18.292969 21.484375 C 18.429688 21.46875 18.515625 21.332031 18.597656 21.210938 C 18.617188 21.179688 18.640625 21.144531 18.664062 21.113281 L 18.683594 21.097656 C 18.71875 21.085938 18.757812 21.058594 18.796875 21.03125 C 18.898438 20.960938 19 20.890625 19.136719 20.96875 L 19.175781 20.992188 L 19.148438 21.03125 C 19.089844 21.105469 19.027344 21.171875 18.964844 21.242188 C 18.875 21.335938 18.785156 21.433594 18.722656 21.542969 C 18.71875 21.554688 18.710938 21.566406 18.707031 21.582031 C 18.691406 21.609375 18.675781 21.644531 18.691406 21.664062 L 19.183594 21.855469 C 19.1875 21.851562 19.191406 21.84375 19.195312 21.839844 L 19.195312 21.835938 C 19.242188 21.757812 19.265625 21.660156 19.289062 21.5625 C 19.339844 21.355469 19.390625 21.148438 19.644531 21.066406 L 19.667969 21.058594 L 19.683594 21.078125 C 19.753906 21.140625 19.839844 21.179688 19.921875 21.21875 C 20.050781 21.28125 20.175781 21.339844 20.257812 21.480469 C 20.265625 21.488281 20.277344 21.488281 20.289062 21.492188 C 20.300781 21.492188 20.3125 21.492188 20.324219 21.492188 L 20.722656 21.140625 L 20.714844 21.128906 C 20.703125 21.121094 20.691406 21.109375 20.679688 21.097656 C 20.578125 21.035156 20.457031 21.023438 20.332031 21.011719 C 20.171875 20.996094 20.015625 20.984375 19.882812 20.863281 L 19.875 20.855469 C 19.863281 20.832031 19.851562 20.804688 19.847656 20.777344 C 19.84375 20.753906 19.839844 20.726562 19.839844 20.699219 L 19.839844 20.695312 C 19.863281 20.546875 19.960938 20.429688 20.058594 20.3125 C 20.101562 20.261719 20.144531 20.210938 20.179688 20.15625 C 20.203125 20.121094 20.222656 20.082031 20.246094 20.042969 C 20.261719 20.011719 20.277344 19.976562 20.296875 19.945312 L 20.292969 19.941406 L 20.316406 19.910156 C 20.320312 19.902344 20.324219 19.898438 20.328125 19.890625 C 20.332031 19.882812 20.335938 19.875 20.34375 19.867188 C 20.394531 19.773438 20.429688 19.664062 20.460938 19.5625 L 20.480469 19.503906 C 20.488281 19.464844 20.5 19.429688 20.511719 19.390625 C 20.527344 19.355469 20.539062 19.316406 20.542969 19.28125 L 20.542969 19.253906 C 20.550781 19.210938 20.546875 19.164062 20.542969 19.117188 C 20.535156 19.074219 20.523438 19.03125 20.507812 18.992188 C 20.472656 18.894531 20.398438 18.8125 20.308594 18.75 C 20.21875 18.691406 20.109375 18.652344 20.007812 18.652344 C 19.863281 18.65625 19.726562 18.683594 19.589844 18.707031 L 19.585938 18.707031 C 19.445312 18.730469 19.300781 18.757812 19.148438 18.761719 L 19.144531 18.761719 C 19.132812 18.757812 19.117188 18.757812 19.105469 18.757812 C 19.0625 18.757812 19.019531 18.757812 18.976562 18.746094 L 18.925781 18.726562 L 18.957031 18.679688 C 19.109375 18.441406 19.332031 18.320312 19.554688 18.199219 C 19.640625 18.152344 19.730469 18.105469 19.808594 18.050781 C 19.851562 18.015625 19.890625 17.980469 19.929688 17.945312 C 19.96875 17.90625 20.003906 17.867188 20.039062 17.824219 L 20.042969 17.824219 C 20.113281 17.742188 20.164062 17.652344 20.195312 17.558594 C 20.230469 17.464844 20.246094 17.363281 20.257812 17.261719 L 20.261719 17.199219 L 20.320312 17.226562 C 20.394531 17.261719 20.472656 17.300781 20.550781 17.335938 C 20.628906 17.371094 20.707031 17.40625 20.785156 17.433594 C 20.957031 17.496094 21.148438 17.558594 21.339844 17.582031 C 21.527344 17.605469 21.71875 17.589844 21.886719 17.488281 C 22.011719 17.390625 22.101562 17.265625 22.148438 17.125 C 22.195312 16.980469 22.203125 16.820312 22.160156 16.660156 C 22.074219 16.304688 21.933594 15.976562 21.796875 15.644531 L 21.742188 15.515625 L 21.441406 14.808594 C 21.394531 14.683594 21.347656 14.5625 21.304688 14.441406 C 21.261719 14.316406 21.21875 14.191406 21.1875 14.066406 L 21.183594 14.0625 C 21.152344 13.929688 21.117188 13.777344 21.101562 13.621094 C 21.085938 13.464844 21.09375 13.3125 21.148438 13.175781 L 21.152344 13.171875 C 21.175781 13.117188 21.21875 13.054688 21.269531 13.015625 C 21.3125 12.980469 21.363281 12.957031 21.425781 12.960938 L 21.429688 12.964844 C 21.550781 12.984375 21.652344 13.054688 21.738281 13.144531 C 21.820312 13.230469 21.886719 13.335938 21.9375 13.425781 L 21.941406 13.433594 C 21.964844 13.5 21.984375 13.574219 21.992188 13.648438 C 22 13.714844 22.003906 13.78125 21.992188 13.84375 L 21.992188 13.847656 C 21.980469 13.882812 21.96875 13.914062 21.960938 13.945312 C 21.949219 13.980469 21.945312 14.011719 21.941406 14.042969 L 21.941406 14.046875 C 21.914062 14.21875 21.949219 14.378906 22.023438 14.515625 C 22.109375 14.675781 22.253906 14.808594 22.417969 14.917969 L 22.917969 15.222656 C 22.933594 15.074219 22.949219 14.925781 22.957031 14.773438 C 22.964844 14.605469 22.960938 14.429688 22.9375 14.253906 L 22.925781 14.226562 L 22.925781 14.230469 L 22.925781 14.226562 C 22.921875 14.21875 22.917969 14.210938 22.914062 14.195312 C 22.890625 14.152344 22.867188 14.109375 22.839844 14.066406 C 22.808594 14.023438 22.777344 13.980469 22.738281 13.9375 C 22.65625 13.835938 22.542969 13.792969 22.429688 13.746094 C 22.394531 13.734375 22.363281 13.722656 22.328125 13.707031 L 22.308594 13.695312 L 22.304688 13.679688 C 22.285156 13.609375 22.257812 13.542969 22.230469 13.476562 C 22.203125 13.410156 22.171875 13.347656 22.136719 13.285156 C 22.089844 13.207031 22.039062 13.128906 21.980469 13.054688 C 21.917969 12.980469 21.847656 12.910156 21.765625 12.851562 C 21.679688 12.78125 21.570312 12.734375 21.460938 12.722656 C 21.363281 12.710938 21.265625 12.726562 21.183594 12.78125 L 21.179688 12.78125 C 21.070312 12.847656 20.992188 12.941406 20.941406 13.050781 C 20.878906 13.175781 20.851562 13.324219 20.851562 13.464844 C 20.863281 13.976562 21.035156 14.425781 21.203125 14.867188 L 21.222656 14.914062 L 21.601562 15.804688 L 21.605469 15.808594 C 21.628906 15.871094 21.65625 15.9375 21.683594 16.007812 C 21.761719 16.207031 21.84375 16.40625 21.902344 16.621094 C 21.933594 16.734375 21.953125 16.859375 21.933594 16.976562 C 21.917969 17.074219 21.878906 17.167969 21.800781 17.246094 C 21.742188 17.304688 21.664062 17.332031 21.582031 17.34375 C 21.503906 17.355469 21.421875 17.347656 21.351562 17.339844 L 21.347656 17.339844 C 21.164062 17.308594 20.984375 17.253906 20.8125 17.183594 L 20.808594 17.183594 C 20.636719 17.113281 20.46875 17.03125 20.304688 16.945312 L 20.28125 16.933594 L 20.28125 16.90625 C 20.285156 16.765625 20.25 16.636719 20.21875 16.503906 C 20.210938 16.472656 20.203125 16.441406 20.191406 16.410156 C 20.175781 16.367188 20.160156 16.332031 20.144531 16.296875 C 20.046875 16.054688 19.941406 15.804688 19.6875 15.683594 L 19.683594 15.679688 C 19.386719 15.5 19.160156 15.265625 19 14.992188 C 18.835938 14.726562 18.730469 14.425781 18.671875 14.109375 Z M 23 14.1875 Z M 23 14.1875 Z M 22.925781 14.226562 Z M 16.828125 8.3125 C 16.777344 8.21875 16.671875 8.183594 16.566406 8.195312 C 16.519531 8.207031 16.464844 8.234375 16.453125 8.289062 C 16.445312 8.320312 16.457031 8.355469 16.472656 8.382812 C 16.523438 8.449219 16.597656 8.480469 16.679688 8.480469 C 16.742188 8.480469 16.800781 8.464844 16.832031 8.40625 C 16.84375 8.378906 16.839844 8.34375 16.828125 8.3125 Z M 18.191406 13.457031 L 17.386719 13.898438 L 17.355469 13.839844 L 18.164062 13.394531 C 18.191406 13.382812 18.21875 13.359375 18.242188 13.332031 C 18.261719 13.304688 18.273438 13.277344 18.28125 13.25 C 18.292969 13.191406 18.289062 13.128906 18.277344 13.070312 C 18.269531 13.035156 18.257812 13.003906 18.238281 12.980469 L 17.378906 13.460938 C 17.363281 13.472656 17.34375 13.464844 17.332031 13.449219 C 17.324219 13.433594 17.328125 13.410156 17.34375 13.402344 L 18.570312 12.699219 C 18.59375 12.683594 18.609375 12.660156 18.621094 12.632812 C 18.636719 12.605469 18.644531 12.574219 18.644531 12.546875 C 18.644531 12.5 18.625 12.4375 18.597656 12.386719 C 18.578125 12.34375 18.550781 12.308594 18.523438 12.289062 L 17.328125 13.101562 C 17.308594 13.113281 17.289062 13.109375 17.277344 13.09375 C 17.269531 13.078125 17.273438 13.058594 17.289062 13.046875 C 17.289062 13.046875 18.574219 12.144531 18.574219 12.144531 C 18.605469 12.117188 18.628906 12.085938 18.644531 12.046875 C 18.65625 12.011719 18.660156 11.972656 18.648438 11.929688 C 18.628906 11.855469 18.53125 11.746094 18.457031 11.71875 C 18.292969 11.855469 17.269531 12.710938 17.269531 12.703125 C 17.257812 12.710938 17.238281 12.707031 17.226562 12.695312 C 17.214844 12.679688 17.21875 12.65625 17.230469 12.644531 C 17.324219 12.570312 18.320312 11.730469 18.335938 11.707031 C 18.371094 11.667969 18.390625 11.617188 18.394531 11.566406 C 18.40625 11.441406 18.332031 11.359375 18.230469 11.296875 C 18.179688 11.265625 18.128906 11.242188 18.089844 11.242188 L 17.074219 12.246094 L 17.027344 12.199219 L 18.058594 11.171875 C 18.09375 11.15625 18.203125 11.199219 18.265625 11.238281 C 18.390625 11.316406 18.480469 11.417969 18.464844 11.574219 C 18.460938 11.597656 18.457031 11.621094 18.449219 11.644531 C 18.621094 11.691406 18.792969 11.90625 18.707031 12.070312 C 18.667969 12.148438 18.632812 12.1875 18.566406 12.234375 C 18.601562 12.261719 18.632812 12.304688 18.660156 12.355469 C 18.691406 12.417969 18.714844 12.488281 18.710938 12.546875 C 18.710938 12.585938 18.699219 12.628906 18.683594 12.664062 C 18.667969 12.699219 18.640625 12.738281 18.609375 12.757812 L 18.292969 12.9375 C 18.316406 12.96875 18.335938 13.011719 18.34375 13.054688 C 18.367188 13.164062 18.363281 13.289062 18.292969 13.375 C 18.265625 13.410156 18.230469 13.4375 18.191406 13.457031 Z M 15.878906 13.859375 L 16.414062 13.628906 C 16.027344 12.609375 16.261719 10.929688 17.660156 10.988281 L 18.652344 10.28125 C 18.683594 10.257812 18.726562 10.292969 18.703125 10.324219 L 17.675781 11.058594 C 16.304688 10.984375 16.085938 12.71875 16.503906 13.675781 L 15 14.332031 C 14.738281 14.433594 14.589844 14.234375 14.453125 14.050781 C 14.410156 13.992188 14.371094 13.9375 14.328125 13.898438 L 14.316406 13.875 C 14.308594 13.832031 14.292969 13.792969 14.273438 13.753906 C 14.253906 13.714844 14.234375 13.679688 14.210938 13.640625 C 14.1875 13.617188 14.171875 13.585938 14.152344 13.558594 C 14.113281 13.5 14.074219 13.441406 14.015625 13.425781 L 13.539062 13.8125 C 13.539062 13.820312 13.539062 13.832031 13.539062 13.839844 C 13.539062 13.847656 13.539062 13.855469 13.542969 13.863281 C 13.585938 13.925781 13.660156 13.953125 13.730469 13.976562 L 13.730469 13.980469 C 13.753906 13.988281 13.78125 13.996094 13.800781 14.007812 C 13.851562 14.027344 13.914062 14.054688 13.96875 14.089844 C 14.023438 14.132812 14.070312 14.183594 14.082031 14.257812 L 14.082031 14.269531 C 14.078125 14.300781 14.0625 14.316406 14.039062 14.328125 C 14.019531 14.332031 14.003906 14.335938 13.984375 14.332031 L 13.972656 14.332031 L 13.707031 14.222656 C 13.652344 14.203125 13.59375 14.1875 13.53125 14.183594 C 13.484375 14.179688 13.433594 14.1875 13.390625 14.207031 L 13.339844 14.671875 L 13.347656 14.675781 C 13.351562 14.679688 13.359375 14.683594 13.367188 14.6875 C 13.449219 14.71875 13.542969 14.726562 13.632812 14.734375 C 13.683594 14.738281 13.730469 14.742188 13.777344 14.75 L 13.796875 14.75 C 13.855469 14.761719 13.910156 14.769531 13.960938 14.808594 L 13.988281 14.828125 L 13.976562 14.859375 C 13.929688 14.964844 13.839844 14.984375 13.753906 15.003906 C 13.691406 15.015625 13.632812 15.03125 13.597656 15.078125 C 13.582031 15.09375 13.589844 15.128906 13.597656 15.160156 L 13.597656 15.171875 L 13.808594 15.480469 L 13.816406 15.488281 C 13.824219 15.496094 13.835938 15.507812 13.835938 15.507812 L 13.839844 15.507812 C 13.972656 15.480469 14.097656 15.441406 14.210938 15.382812 C 14.324219 15.320312 14.425781 15.242188 14.519531 15.140625 L 14.542969 15.113281 L 14.570312 15.132812 C 14.601562 15.152344 14.628906 15.175781 14.652344 15.203125 C 14.679688 15.230469 14.699219 15.261719 14.714844 15.292969 L 14.714844 15.296875 C 14.730469 15.339844 14.746094 15.382812 14.761719 15.425781 C 14.800781 15.539062 14.839844 15.652344 14.875 15.769531 C 14.878906 15.78125 14.886719 15.800781 14.894531 15.820312 C 14.921875 15.898438 14.953125 15.980469 15.027344 16.003906 L 15.171875 15.925781 L 15.171875 15.921875 C 15.203125 15.894531 15.230469 15.863281 15.269531 15.847656 L 15.273438 15.84375 C 15.359375 15.816406 15.433594 15.769531 15.511719 15.722656 C 15.542969 15.703125 15.574219 15.683594 15.609375 15.667969 L 15.609375 15.65625 C 15.613281 15.625 15.609375 15.59375 15.597656 15.566406 C 15.585938 15.539062 15.566406 15.511719 15.535156 15.492188 L 15.535156 15.488281 C 15.496094 15.457031 15.445312 15.425781 15.398438 15.394531 C 15.269531 15.3125 15.140625 15.226562 15.085938 15.085938 L 15.0625 15.03125 L 15.121094 15.027344 L 15.257812 15.011719 L 15.261719 15.011719 L 15.949219 14.96875 C 16.105469 14.960938 16.261719 14.949219 16.417969 14.933594 C 16.570312 14.914062 16.71875 14.890625 16.859375 14.855469 L 17.191406 14.679688 L 17.210938 14.667969 L 17.234375 14.683594 C 17.273438 14.707031 17.316406 14.734375 17.359375 14.757812 C 17.398438 14.777344 17.441406 14.796875 17.484375 14.816406 C 17.496094 14.820312 17.511719 14.824219 17.523438 14.828125 C 17.566406 14.84375 17.609375 14.859375 17.640625 14.84375 C 17.726562 14.757812 17.792969 14.660156 17.859375 14.5625 C 17.921875 14.46875 17.984375 14.375 18.066406 14.292969 L 18.070312 14.289062 L 18.089844 14.273438 C 18.265625 14.113281 18.449219 13.953125 18.671875 13.871094 C 18.769531 13.753906 18.898438 13.699219 19.027344 13.640625 C 19.167969 13.578125 19.308594 13.511719 19.398438 13.367188 L 19.402344 13.359375 C 19.410156 13.351562 19.417969 13.335938 19.421875 13.316406 C 19.441406 13.273438 19.457031 13.230469 19.515625 13.222656 L 21.039062 12.550781 L 21.042969 12.546875 C 21.097656 12.527344 21.15625 12.492188 21.199219 12.441406 C 21.242188 12.398438 21.277344 12.34375 21.292969 12.289062 L 21.292969 12.285156 C 21.316406 12.203125 21.328125 12.074219 21.3125 11.957031 C 21.304688 11.882812 21.28125 11.8125 21.246094 11.769531 L 19.597656 12.511719 L 19.5625 12.433594 L 19.566406 12.433594 L 21.898438 11.355469 C 21.941406 11.324219 21.980469 11.28125 22.007812 11.238281 C 22.035156 11.1875 22.054688 11.128906 22.0625 11.070312 C 22.070312 10.984375 22.046875 10.871094 22.003906 10.765625 C 21.96875 10.679688 21.921875 10.605469 21.867188 10.558594 L 19.558594 11.851562 L 19.515625 11.777344 L 19.527344 11.773438 L 21.640625 10.554688 L 21.636719 10.542969 L 21.992188 10.347656 C 22.058594 10.300781 22.109375 10.242188 22.136719 10.171875 C 22.167969 10.105469 22.179688 10.027344 22.171875 9.949219 C 22.160156 9.875 22.101562 9.773438 22.03125 9.6875 C 21.96875 9.609375 21.894531 9.546875 21.832031 9.519531 L 19.546875 11.105469 L 19.539062 11.109375 L 19.519531 11.117188 L 19.480469 11.042969 L 21.59375 9.558594 L 21.59375 9.554688 L 21.632812 9.515625 C 21.703125 9.445312 21.75 9.355469 21.769531 9.261719 C 21.785156 9.167969 21.773438 9.066406 21.730469 8.976562 C 21.695312 8.898438 21.605469 8.800781 21.5 8.722656 C 21.410156 8.65625 21.3125 8.605469 21.234375 8.597656 L 19.234375 10.261719 L 19.199219 10.292969 L 19.171875 10.257812 C 19.167969 10.25 19.171875 10.234375 19.191406 10.210938 L 19.179688 10.199219 L 19.253906 10.136719 C 19.519531 9.847656 20.34375 9.15625 20.40625 9.105469 C 20.4375 9.0625 20.453125 9.007812 20.457031 8.949219 C 20.460938 8.890625 20.449219 8.828125 20.421875 8.777344 C 20.402344 8.734375 20.34375 8.6875 20.277344 8.648438 C 20.210938 8.605469 20.136719 8.578125 20.082031 8.566406 L 18.898438 9.753906 L 18.851562 9.800781 L 18.828125 9.738281 L 18.773438 9.601562 L 18.761719 9.582031 C 18.71875 9.445312 18.664062 9.3125 18.597656 9.1875 C 18.53125 9.0625 18.457031 8.941406 18.371094 8.828125 L 18.351562 8.800781 L 18.371094 8.777344 C 18.445312 8.667969 18.511719 8.558594 18.566406 8.445312 C 18.617188 8.332031 18.65625 8.210938 18.683594 8.089844 C 18.691406 8.046875 18.695312 7.996094 18.691406 7.949219 C 18.6875 7.921875 18.683594 7.898438 18.667969 7.878906 L 18.632812 7.914062 C 18.582031 7.972656 18.53125 8.03125 18.46875 8.074219 L 18.457031 8.078125 C 18.414062 8.089844 18.398438 8.070312 18.394531 8.042969 C 18.390625 8.035156 18.390625 8.027344 18.390625 8.023438 L 18.390625 8.007812 L 18.453125 7.753906 C 18.46875 7.675781 18.480469 7.589844 18.484375 7.503906 C 18.484375 7.417969 18.472656 7.335938 18.4375 7.265625 C 18.386719 7.171875 18.308594 7.09375 18.214844 7.042969 C 18.148438 7.007812 18.074219 6.984375 18 6.984375 L 18.003906 6.996094 C 18.019531 7.019531 18.03125 7.042969 18.042969 7.070312 C 18.097656 7.222656 18.105469 7.378906 18.0625 7.519531 C 18.023438 7.667969 17.9375 7.804688 17.8125 7.914062 L 17.808594 7.917969 C 17.796875 7.925781 17.777344 7.9375 17.761719 7.949219 C 17.660156 8.023438 17.554688 8.101562 17.40625 8.078125 C 17.363281 8.070312 17.328125 8.050781 17.300781 8.023438 C 17.273438 7.996094 17.25 7.96875 17.230469 7.9375 C 17 7.957031 16.800781 7.878906 16.605469 7.796875 C 16.460938 7.742188 16.320312 7.683594 16.164062 7.667969 C 16.085938 7.664062 16.015625 7.683594 15.953125 7.722656 C 15.882812 7.765625 15.820312 7.835938 15.773438 7.914062 L 15.75 7.957031 L 15.710938 7.929688 C 15.640625 7.875 15.558594 7.839844 15.472656 7.828125 C 15.390625 7.8125 15.308594 7.820312 15.222656 7.851562 C 15.054688 7.90625 14.945312 8.027344 14.871094 8.175781 C 14.804688 8.308594 14.769531 8.460938 14.746094 8.605469 C 14.828125 8.585938 14.914062 8.570312 15 8.5625 C 15.109375 8.546875 15.21875 8.542969 15.328125 8.535156 L 15.332031 8.535156 C 15.535156 8.535156 15.730469 8.585938 15.910156 8.675781 C 16.105469 8.773438 16.285156 8.914062 16.445312 9.082031 L 16.386719 9.144531 C 16.386719 9.144531 15.972656 8.851562 15.777344 8.773438 C 15.667969 8.726562 15.589844 8.707031 15.492188 8.707031 C 15.417969 8.703125 15.324219 8.710938 15.183594 8.726562 L 15.195312 8.734375 L 15.257812 8.777344 C 15.402344 8.851562 15.503906 8.921875 15.585938 8.992188 C 15.671875 9.0625 15.734375 9.140625 15.808594 9.234375 C 15.949219 9.421875 16.027344 9.636719 16.109375 9.851562 C 16.125 9.898438 16.144531 9.945312 16.164062 10 L 16.167969 10.019531 C 16.15625 10.230469 16.011719 10.386719 15.867188 10.542969 C 15.816406 10.597656 15.769531 10.652344 15.726562 10.707031 L 15.722656 10.710938 C 15.671875 10.773438 15.625 10.839844 15.597656 10.910156 C 15.578125 10.972656 15.574219 11.039062 15.605469 11.109375 L 15.621094 11.140625 L 15.59375 11.164062 L 15.46875 11.25 C 15.363281 11.335938 15.292969 11.460938 15.25 11.597656 C 15.195312 11.769531 15.183594 11.960938 15.199219 12.117188 C 15.238281 12.386719 15.308594 12.640625 15.410156 12.878906 C 15.507812 13.113281 15.636719 13.335938 15.789062 13.546875 L 15.796875 13.558594 L 15.871094 13.757812 L 15.871094 13.769531 Z M 15.878906 13.859375 "/>
</g>
</svg>
