<?xml version="1.0" encoding="UTF-8"?>
<svg xmlns="http://www.w3.org/2000/svg" xmlns:xlink="http://www.w3.org/1999/xlink" width="35pt" height="25pt" viewBox="0 0 35 25" version="1.1">
<g id="surface1">
<path style=" stroke:none;fill-rule:evenodd;fill:rgb(0%,0%,0%);fill-opacity:1;" d="M 16.8125 0 C 19.445312 0 21.835938 1.410156 23.574219 3.679688 C 25.296875 5.941406 26.367188 9.066406 26.367188 12.5 C 26.367188 15.9375 25.296875 19.054688 23.574219 21.324219 C 21.835938 23.589844 19.445312 25 16.8125 25 C 14.171875 25 11.777344 23.589844 10.042969 21.324219 C 8.316406 19.054688 7.25 15.9375 7.25 12.5 C 7.25 9.066406 8.316406 5.941406 10.042969 3.679688 C 11.777344 1.410156 14.171875 0 16.8125 0 Z M 16.8125 0 "/>
<path style=" stroke:none;fill-rule:evenodd;fill:rgb(91.764706%,80%,0%);fill-opacity:1;" d="M 16.8125 0.191406 C 14.238281 0.191406 11.898438 1.566406 10.207031 3.792969 C 8.503906 6.023438 7.445312 9.101562 7.445312 12.5 C 7.445312 15.894531 8.503906 18.976562 10.207031 21.207031 C 11.898438 23.429688 14.238281 24.8125 16.8125 24.8125 C 19.375 24.8125 21.714844 23.429688 23.410156 21.207031 C 25.113281 18.976562 26.167969 15.894531 26.167969 12.5 C 26.167969 9.101562 25.113281 6.023438 23.410156 3.792969 C 21.714844 1.566406 19.375 0.191406 16.8125 0.191406 Z M 16.8125 0.191406 "/>
<path style=" stroke:none;fill-rule:evenodd;fill:rgb(0%,0%,0%);fill-opacity:1;" d="M 16.8125 0.875 C 18.496094 0.875 20.074219 1.523438 21.410156 2.644531 C 22.785156 3.800781 23.902344 5.464844 24.621094 7.429688 L 24.648438 7.523438 L 24.558594 7.554688 C 23.535156 7.933594 22.316406 8.234375 20.976562 8.441406 C 19.6875 8.640625 18.28125 8.75 16.8125 8.75 C 15.339844 8.75 13.929688 8.640625 12.636719 8.441406 C 11.296875 8.234375 10.082031 7.933594 9.058594 7.554688 L 8.964844 7.523438 L 9 7.429688 C 9.714844 5.464844 10.832031 3.800781 12.207031 2.644531 C 13.542969 1.523438 15.125 0.875 16.8125 0.875 Z M 16.8125 0.875 "/>
<path style=" stroke:none;fill-rule:evenodd;fill:rgb(0%,0%,0%);fill-opacity:1;" d="M 24.839844 8.082031 L 24.867188 8.1875 C 25.070312 8.867188 25.230469 9.570312 25.335938 10.308594 C 25.4375 11.019531 25.492188 11.753906 25.492188 12.511719 C 25.492188 13.011719 25.464844 13.503906 25.421875 13.992188 C 25.375 14.488281 25.300781 14.972656 25.210938 15.453125 L 25.183594 15.566406 L 25.074219 15.523438 C 24.03125 15.128906 22.757812 14.804688 21.324219 14.585938 C 19.9375 14.375 18.410156 14.257812 16.8125 14.257812 C 15.203125 14.257812 13.675781 14.375 12.292969 14.585938 C 10.863281 14.804688 9.582031 15.128906 8.539062 15.523438 L 8.429688 15.566406 L 8.410156 15.453125 C 8.316406 14.972656 8.246094 14.488281 8.199219 13.992188 C 8.148438 13.503906 8.125 13.011719 8.125 12.511719 C 8.125 11.753906 8.183594 11.019531 8.28125 10.308594 C 8.386719 9.570312 8.542969 8.867188 8.746094 8.1875 L 8.78125 8.082031 L 8.882812 8.125 C 9.90625 8.527344 11.136719 8.847656 12.507812 9.070312 C 13.832031 9.28125 15.285156 9.398438 16.8125 9.398438 C 18.332031 9.398438 19.785156 9.28125 21.105469 9.070312 C 22.480469 8.847656 23.714844 8.527344 24.734375 8.125 Z M 24.839844 8.082031 "/>
<path style=" stroke:none;fill-rule:evenodd;fill:rgb(0%,0%,0%);fill-opacity:1;" d="M 25.054688 16.152344 L 25.03125 16.234375 C 24.441406 18.558594 23.316406 20.550781 21.863281 21.960938 C 20.4375 23.328125 18.6875 24.140625 16.8125 24.140625 C 14.925781 24.140625 13.179688 23.328125 11.757812 21.960938 C 10.296875 20.550781 9.175781 18.558594 8.585938 16.234375 L 8.566406 16.152344 L 8.644531 16.121094 C 9.695312 15.742188 10.960938 15.433594 12.378906 15.222656 C 13.742188 15.019531 15.242188 14.910156 16.8125 14.910156 C 18.375 14.910156 19.875 15.019531 21.234375 15.222656 C 22.652344 15.433594 23.921875 15.742188 24.96875 16.121094 Z M 25.054688 16.152344 "/>
<path style=" stroke:none;fill-rule:evenodd;fill:rgb(9.019608%,16.078431%,51.372549%);fill-opacity:1;" d="M 23.234375 7.769531 C 23.644531 7.660156 24.03125 7.539062 24.394531 7.410156 C 24.082031 6.558594 23.691406 5.769531 23.234375 5.054688 Z M 23.234375 7.769531 "/>
<path style=" stroke:none;fill-rule:evenodd;fill:rgb(9.019608%,16.078431%,51.372549%);fill-opacity:1;" d="M 20.375 8.332031 C 20.574219 8.308594 20.757812 8.277344 20.949219 8.253906 C 21.238281 8.203125 21.523438 8.152344 21.808594 8.097656 L 21.808594 3.277344 C 21.636719 3.105469 21.460938 2.945312 21.277344 2.792969 C 20.992188 2.550781 20.6875 2.332031 20.375 2.132812 Z M 20.375 8.332031 "/>
<path style=" stroke:none;fill-rule:evenodd;fill:rgb(9.019608%,16.078431%,51.372549%);fill-opacity:1;" d="M 10.378906 5.054688 C 9.925781 5.769531 9.535156 6.558594 9.21875 7.410156 C 9.582031 7.539062 9.96875 7.660156 10.378906 7.769531 Z M 10.378906 5.054688 "/>
<path style=" stroke:none;fill-rule:evenodd;fill:rgb(9.019608%,16.078431%,51.372549%);fill-opacity:1;" d="M 13.238281 2.132812 C 12.929688 2.332031 12.625 2.550781 12.335938 2.792969 C 12.15625 2.945312 11.980469 3.105469 11.8125 3.277344 L 11.8125 8.097656 C 12.089844 8.152344 12.375 8.203125 12.671875 8.253906 C 12.855469 8.277344 13.046875 8.308594 13.238281 8.332031 Z M 13.238281 2.132812 "/>
<path style=" stroke:none;fill-rule:evenodd;fill:rgb(100%,92.941176%,0%);fill-opacity:1;" d="M 21.808594 8.097656 C 22.304688 8.003906 22.785156 7.890625 23.234375 7.769531 L 23.234375 5.054688 C 22.8125 4.394531 22.332031 3.792969 21.808594 3.277344 Z M 21.808594 8.097656 "/>
<path style=" stroke:none;fill-rule:evenodd;fill:rgb(100%,92.941176%,0%);fill-opacity:1;" d="M 11.8125 3.277344 C 11.28125 3.792969 10.804688 4.394531 10.378906 5.054688 L 10.378906 7.769531 C 10.832031 7.890625 11.308594 8.003906 11.8125 8.097656 Z M 11.8125 3.277344 "/>
<path style=" stroke:none;fill-rule:evenodd;fill:rgb(9.019608%,16.078431%,51.372549%);fill-opacity:1;" d="M 17.527344 7.523438 L 17.527344 8.546875 C 18.007812 8.535156 18.484375 8.507812 18.945312 8.472656 L 18.945312 5.660156 C 18.472656 6.285156 18 6.902344 17.527344 7.523438 Z M 17.527344 7.523438 "/>
<path style=" stroke:none;fill-rule:evenodd;fill:rgb(9.019608%,16.078431%,51.372549%);fill-opacity:1;" d="M 14.667969 5.644531 L 14.667969 8.472656 C 15.132812 8.507812 15.609375 8.535156 16.09375 8.546875 L 16.09375 7.511719 C 15.621094 6.890625 15.144531 6.265625 14.667969 5.644531 Z M 14.667969 5.644531 "/>
<path style=" stroke:none;fill-rule:evenodd;fill:rgb(89.019608%,13.333333%,9.803922%);fill-opacity:1;" d="M 18.679688 2.695312 L 18.722656 2.636719 L 18.773438 2.679688 C 18.84375 2.738281 18.894531 2.800781 18.945312 2.871094 L 18.945312 1.433594 C 18.488281 1.277344 18.015625 1.164062 17.527344 1.105469 L 17.527344 4.179688 C 17.910156 3.683594 18.296875 3.1875 18.679688 2.695312 Z M 18.679688 2.695312 "/>
<path style=" stroke:none;fill-rule:evenodd;fill:rgb(0%,56.078431%,18.431373%);fill-opacity:1;" d="M 14.683594 2.871094 C 14.730469 2.800781 14.789062 2.738281 14.855469 2.679688 L 14.910156 2.636719 L 14.953125 2.695312 C 15.332031 3.183594 15.714844 3.671875 16.09375 4.160156 L 16.09375 1.105469 C 15.609375 1.164062 15.128906 1.277344 14.667969 1.433594 L 14.667969 2.894531 C 14.671875 2.886719 14.679688 2.878906 14.683594 2.871094 Z M 14.683594 2.871094 "/>
<path style=" stroke:none;fill-rule:evenodd;fill:rgb(100%,92.941176%,0%);fill-opacity:1;" d="M 19.050781 3.054688 C 19.261719 3.085938 19.453125 3.136719 19.601562 3.226562 C 19.765625 3.328125 19.878906 3.46875 19.910156 3.6875 C 19.914062 3.710938 19.917969 3.722656 19.921875 3.730469 C 19.925781 3.730469 19.929688 3.730469 19.941406 3.730469 L 20.375 3.730469 L 20.375 2.132812 C 19.921875 1.84375 19.445312 1.613281 18.945312 1.433594 L 18.945312 2.871094 C 18.988281 2.929688 19.023438 2.988281 19.050781 3.054688 Z M 19.050781 3.054688 "/>
<path style=" stroke:none;fill-rule:evenodd;fill:rgb(100%,92.941176%,0%);fill-opacity:1;" d="M 19.6875 5.332031 L 19.574219 5.332031 L 19.574219 5.324219 L 19.28125 5.332031 C 19.253906 5.332031 19.230469 5.332031 19.214844 5.339844 C 19.199219 5.34375 19.183594 5.355469 19.171875 5.367188 C 19.09375 5.46875 19.019531 5.5625 18.945312 5.660156 L 18.945312 8.472656 C 19.4375 8.441406 19.914062 8.390625 20.375 8.332031 L 20.375 5.324219 Z M 19.6875 5.332031 "/>
<path style=" stroke:none;fill-rule:evenodd;fill:rgb(100%,92.941176%,0%);fill-opacity:1;" d="M 13.707031 3.730469 C 13.714844 3.722656 13.71875 3.710938 13.71875 3.6875 C 13.753906 3.46875 13.867188 3.328125 14.03125 3.226562 C 14.179688 3.136719 14.367188 3.085938 14.578125 3.054688 C 14.605469 3 14.632812 2.945312 14.667969 2.894531 L 14.667969 1.433594 C 14.171875 1.613281 13.691406 1.84375 13.238281 2.132812 L 13.238281 3.730469 L 13.691406 3.730469 C 13.699219 3.730469 13.707031 3.730469 13.707031 3.730469 Z M 13.707031 3.730469 "/>
<path style=" stroke:none;fill-rule:evenodd;fill:rgb(100%,92.941176%,0%);fill-opacity:1;" d="M 14.457031 5.367188 C 14.441406 5.355469 14.429688 5.34375 14.421875 5.339844 C 14.398438 5.332031 14.378906 5.332031 14.347656 5.332031 L 14.058594 5.324219 L 14.058594 5.332031 L 13.945312 5.332031 L 13.238281 5.324219 L 13.238281 8.332031 C 13.699219 8.390625 14.179688 8.441406 14.667969 8.472656 L 14.667969 5.644531 C 14.597656 5.554688 14.527344 5.460938 14.457031 5.367188 Z M 14.457031 5.367188 "/>
<path style=" stroke:none;fill-rule:evenodd;fill:rgb(100%,92.941176%,0%);fill-opacity:1;" d="M 16.816406 8.457031 C 16.578125 8.140625 16.335938 7.828125 16.09375 7.511719 L 16.09375 8.546875 C 16.328125 8.550781 16.570312 8.554688 16.8125 8.554688 C 17.050781 8.554688 17.289062 8.550781 17.527344 8.546875 L 17.527344 7.523438 C 17.289062 7.835938 17.050781 8.148438 16.816406 8.457031 Z M 16.816406 8.457031 "/>
<path style=" stroke:none;fill-rule:evenodd;fill:rgb(100%,100%,100%);fill-opacity:1;" d="M 16.816406 5.089844 C 17.050781 4.785156 17.289062 4.480469 17.527344 4.179688 L 17.527344 1.105469 C 17.289062 1.078125 17.050781 1.066406 16.8125 1.066406 C 16.570312 1.066406 16.328125 1.078125 16.09375 1.105469 L 16.09375 4.160156 C 16.335938 4.46875 16.574219 4.78125 16.816406 5.089844 Z M 16.816406 5.089844 "/>
<path style=" stroke:none;fill-rule:evenodd;fill:rgb(91.764706%,80%,0%);fill-opacity:1;" d="M 16.277344 5.523438 L 16.25 5.910156 C 16.625 5.910156 17.007812 5.910156 17.386719 5.910156 L 17.363281 5.523438 C 16.996094 5.523438 16.640625 5.523438 16.277344 5.523438 Z M 16.277344 5.523438 "/>
<path style=" stroke:none;fill-rule:evenodd;fill:rgb(91.764706%,80%,0%);fill-opacity:1;" d="M 16.203125 6.546875 L 16.179688 6.929688 C 16.605469 6.929688 17.03125 6.929688 17.457031 6.929688 L 17.425781 6.546875 C 17.023438 6.546875 16.613281 6.546875 16.203125 6.546875 Z M 16.203125 6.546875 "/>
<path style=" stroke:none;fill-rule:evenodd;fill:rgb(91.764706%,80%,0%);fill-opacity:1;" d="M 17.351562 5.398438 L 17.300781 4.679688 L 16.871094 5.234375 L 16.816406 5.300781 L 16.335938 4.679688 L 16.285156 5.398438 Z M 17.351562 5.398438 "/>
<path style=" stroke:none;fill-rule:evenodd;fill:rgb(91.764706%,80%,0%);fill-opacity:1;" d="M 16.242188 6.035156 L 16.214844 6.417969 L 17.417969 6.417969 L 17.394531 6.035156 Z M 16.242188 6.035156 "/>
<path style=" stroke:none;fill-rule:evenodd;fill:rgb(91.764706%,80%,0%);fill-opacity:1;" d="M 16.816406 8.246094 L 17.488281 7.367188 L 17.464844 7.054688 L 16.171875 7.054688 L 16.148438 7.367188 Z M 16.816406 8.246094 "/>
<path style=" stroke:none;fill-rule:evenodd;fill:rgb(91.764706%,80%,0%);fill-opacity:1;" d="M 13.917969 5.203125 C 13.867188 5.074219 13.847656 4.929688 13.832031 4.785156 C 13.796875 4.511719 13.691406 4.238281 13.347656 4.144531 L 13.347656 5.203125 Z M 13.917969 5.203125 "/>
<path style=" stroke:none;fill-rule:evenodd;fill:rgb(91.764706%,80%,0%);fill-opacity:1;" d="M 19.710938 5.203125 C 19.765625 5.074219 19.78125 4.929688 19.800781 4.785156 C 19.832031 4.511719 19.941406 4.238281 20.285156 4.144531 L 20.285156 5.203125 Z M 19.710938 5.203125 "/>
<path style=" stroke:none;fill-rule:evenodd;fill:rgb(91.764706%,80%,0%);fill-opacity:1;" d="M 14.789062 2.9375 C 14.746094 3 14.710938 3.0625 14.683594 3.132812 L 14.671875 3.171875 L 14.632812 3.175781 C 14.527344 3.1875 14.429688 3.207031 14.335938 3.234375 C 14.246094 3.257812 14.164062 3.292969 14.097656 3.332031 C 13.960938 3.410156 13.875 3.53125 13.847656 3.707031 C 13.839844 3.757812 13.824219 3.792969 13.796875 3.816406 C 13.769531 3.84375 13.730469 3.855469 13.691406 3.855469 L 13.34375 3.855469 L 13.34375 4.007812 C 13.804688 4.113281 13.921875 4.441406 13.960938 4.773438 C 13.980469 4.925781 13.996094 5.078125 14.058594 5.203125 L 14.347656 5.203125 C 14.394531 5.203125 14.429688 5.210938 14.464844 5.21875 C 14.503906 5.238281 14.535156 5.261719 14.5625 5.296875 L 16.027344 7.210938 L 16.214844 4.519531 L 14.890625 2.824219 C 14.855469 2.859375 14.820312 2.902344 14.789062 2.9375 Z M 14.003906 3.832031 L 14.015625 3.769531 C 14.015625 3.699219 14.058594 3.628906 14.117188 3.582031 C 14.171875 3.539062 14.25 3.511719 14.335938 3.511719 C 14.421875 3.511719 14.492188 3.539062 14.550781 3.582031 C 14.609375 3.628906 14.648438 3.699219 14.65625 3.769531 L 14.664062 3.832031 Z M 14.003906 3.832031 "/>
<path style=" stroke:none;fill-rule:evenodd;fill:rgb(91.764706%,80%,0%);fill-opacity:1;" d="M 19.941406 3.855469 C 19.894531 3.855469 19.863281 3.84375 19.832031 3.816406 C 19.808594 3.792969 19.792969 3.757812 19.78125 3.707031 C 19.757812 3.53125 19.664062 3.410156 19.53125 3.332031 C 19.460938 3.292969 19.386719 3.257812 19.296875 3.234375 C 19.207031 3.207031 19.105469 3.1875 19 3.175781 L 18.957031 3.171875 L 18.941406 3.132812 C 18.917969 3.0625 18.882812 3 18.84375 2.9375 C 18.8125 2.902344 18.78125 2.859375 18.738281 2.824219 L 17.425781 4.519531 L 17.609375 7.210938 L 19.070312 5.296875 C 19.09375 5.261719 19.128906 5.238281 19.167969 5.21875 C 19.199219 5.210938 19.238281 5.203125 19.28125 5.203125 L 19.566406 5.203125 C 19.632812 5.078125 19.652344 4.925781 19.667969 4.773438 C 19.707031 4.441406 19.824219 4.113281 20.285156 4.007812 L 20.285156 3.855469 Z M 18.96875 3.832031 L 18.972656 3.769531 C 18.980469 3.699219 19.023438 3.628906 19.082031 3.582031 C 19.136719 3.539062 19.214844 3.511719 19.296875 3.511719 C 19.375 3.511719 19.453125 3.539062 19.511719 3.582031 C 19.574219 3.628906 19.609375 3.699219 19.617188 3.769531 L 19.625 3.832031 Z M 18.96875 3.832031 "/>
<path style=" stroke:none;fill-rule:evenodd;fill:rgb(9.019608%,16.078431%,51.372549%);fill-opacity:1;" d="M 10.378906 19.953125 L 10.378906 15.804688 C 9.8125 15.945312 9.28125 16.101562 8.800781 16.269531 C 9.15625 17.632812 9.695312 18.882812 10.378906 19.953125 Z M 10.378906 19.953125 "/>
<path style=" stroke:none;fill-rule:evenodd;fill:rgb(9.019608%,16.078431%,51.372549%);fill-opacity:1;" d="M 11.8125 15.511719 L 11.8125 21.742188 C 11.835938 21.761719 11.867188 21.792969 11.898438 21.820312 C 12.316406 22.230469 12.761719 22.585938 13.238281 22.878906 L 13.238281 15.304688 C 12.960938 15.335938 12.679688 15.375 12.410156 15.414062 C 12.207031 15.441406 12.003906 15.476562 11.8125 15.511719 Z M 11.8125 15.511719 "/>
<path style=" stroke:none;fill-rule:evenodd;fill:rgb(9.019608%,16.078431%,51.372549%);fill-opacity:1;" d="M 23.234375 15.804688 L 23.234375 19.953125 C 23.921875 18.882812 24.464844 17.632812 24.820312 16.269531 C 24.332031 16.101562 23.804688 15.945312 23.234375 15.804688 Z M 23.234375 15.804688 "/>
<path style=" stroke:none;fill-rule:evenodd;fill:rgb(9.019608%,16.078431%,51.372549%);fill-opacity:1;" d="M 20.375 15.304688 L 20.375 22.878906 C 20.851562 22.585938 21.304688 22.230469 21.722656 21.820312 C 21.75 21.792969 21.777344 21.761719 21.808594 21.742188 L 21.808594 15.511719 C 21.609375 15.476562 21.410156 15.441406 21.203125 15.414062 C 20.933594 15.375 20.660156 15.335938 20.375 15.304688 Z M 20.375 15.304688 "/>
<path style=" stroke:none;fill-rule:evenodd;fill:rgb(100%,92.941176%,0%);fill-opacity:1;" d="M 23.234375 15.804688 C 22.785156 15.695312 22.304688 15.597656 21.808594 15.511719 L 21.808594 21.742188 C 22.332031 21.21875 22.8125 20.621094 23.234375 19.953125 Z M 23.234375 15.804688 "/>
<path style=" stroke:none;fill-rule:evenodd;fill:rgb(100%,92.941176%,0%);fill-opacity:1;" d="M 11.8125 15.511719 C 11.3125 15.597656 10.835938 15.695312 10.378906 15.804688 L 10.378906 19.953125 C 10.804688 20.621094 11.28125 21.21875 11.8125 21.742188 Z M 11.8125 15.511719 "/>
<path style=" stroke:none;fill-rule:evenodd;fill:rgb(9.019608%,16.078431%,51.372549%);fill-opacity:1;" d="M 18.945312 16.730469 L 18.945312 15.171875 C 18.484375 15.140625 18.007812 15.121094 17.527344 15.109375 L 17.527344 16.730469 Z M 18.945312 16.730469 "/>
<path style=" stroke:none;fill-rule:evenodd;fill:rgb(9.019608%,16.078431%,51.372549%);fill-opacity:1;" d="M 18.828125 21.28125 C 18.679688 21.421875 18.460938 21.5 18.15625 21.5 L 17.527344 21.5 L 17.527344 23.910156 C 18.015625 23.855469 18.488281 23.738281 18.945312 23.578125 L 18.945312 21.125 C 18.914062 21.179688 18.875 21.234375 18.828125 21.28125 Z M 18.828125 21.28125 "/>
<path style=" stroke:none;fill-rule:evenodd;fill:rgb(9.019608%,16.078431%,51.372549%);fill-opacity:1;" d="M 16.09375 16.730469 L 16.09375 15.109375 C 15.609375 15.121094 15.132812 15.140625 14.667969 15.171875 L 14.667969 16.730469 Z M 16.09375 16.730469 "/>
<path style=" stroke:none;fill-rule:evenodd;fill:rgb(9.019608%,16.078431%,51.372549%);fill-opacity:1;" d="M 15.460938 21.5 C 15.152344 21.5 14.933594 21.421875 14.785156 21.28125 C 14.738281 21.234375 14.703125 21.179688 14.667969 21.125 L 14.667969 23.578125 C 15.128906 23.738281 15.609375 23.855469 16.09375 23.910156 L 16.09375 21.5 Z M 15.460938 21.5 "/>
<path style=" stroke:none;fill-rule:evenodd;fill:rgb(100%,92.941176%,0%);fill-opacity:1;" d="M 18.945312 15.171875 L 18.945312 16.730469 L 19.0625 16.730469 L 19.0625 20.621094 C 19.0625 20.816406 19.023438 20.988281 18.945312 21.125 L 18.945312 23.578125 C 19.445312 23.402344 19.921875 23.164062 20.375 22.878906 L 20.375 15.304688 C 19.914062 15.25 19.4375 15.207031 18.945312 15.171875 Z M 18.945312 15.171875 "/>
<path style=" stroke:none;fill-rule:evenodd;fill:rgb(100%,92.941176%,0%);fill-opacity:1;" d="M 17.527344 16.730469 L 17.527344 15.109375 C 17.289062 15.105469 17.050781 15.101562 16.8125 15.101562 C 16.570312 15.101562 16.328125 15.105469 16.09375 15.109375 L 16.09375 16.730469 Z M 17.527344 16.730469 "/>
<path style=" stroke:none;fill-rule:evenodd;fill:rgb(100%,92.941176%,0%);fill-opacity:1;" d="M 17.417969 21.5 C 17.296875 21.5 17.195312 21.554688 17.105469 21.628906 C 17.007812 21.710938 16.929688 21.820312 16.859375 21.925781 L 16.8125 21.992188 L 16.761719 21.925781 C 16.6875 21.820312 16.609375 21.710938 16.515625 21.628906 C 16.425781 21.554688 16.320312 21.5 16.199219 21.5 L 16.09375 21.5 L 16.09375 23.910156 C 16.328125 23.933594 16.570312 23.953125 16.8125 23.953125 C 17.050781 23.953125 17.289062 23.933594 17.527344 23.910156 L 17.527344 21.5 Z M 17.417969 21.5 "/>
<path style=" stroke:none;fill-rule:evenodd;fill:rgb(100%,92.941176%,0%);fill-opacity:1;" d="M 14.554688 20.621094 L 14.554688 16.730469 L 14.667969 16.730469 L 14.667969 15.171875 C 14.179688 15.207031 13.699219 15.25 13.238281 15.304688 L 13.238281 22.878906 C 13.691406 23.164062 14.171875 23.402344 14.667969 23.578125 L 14.667969 21.125 C 14.589844 20.984375 14.554688 20.816406 14.554688 20.621094 Z M 14.554688 20.621094 "/>
<path style=" stroke:none;fill-rule:evenodd;fill:rgb(91.764706%,80%,0%);fill-opacity:1;" d="M 18.941406 20.621094 C 18.941406 20.867188 18.882812 21.0625 18.75 21.195312 C 18.625 21.316406 18.425781 21.386719 18.15625 21.386719 L 17.417969 21.386719 C 17.269531 21.386719 17.136719 21.449219 17.03125 21.542969 C 16.945312 21.613281 16.875 21.699219 16.8125 21.789062 C 16.746094 21.699219 16.671875 21.613281 16.589844 21.542969 C 16.484375 21.449219 16.355469 21.386719 16.199219 21.386719 L 15.460938 21.386719 C 15.1875 21.386719 14.996094 21.316406 14.867188 21.195312 C 14.730469 21.0625 14.671875 20.867188 14.671875 20.621094 L 14.671875 16.84375 L 18.941406 16.84375 Z M 14.96875 17.132812 L 14.96875 20.457031 C 14.96875 20.683594 14.996094 20.839844 15.09375 20.945312 C 15.1875 21.054688 15.347656 21.097656 15.605469 21.097656 L 16.296875 21.097656 C 16.398438 21.097656 16.484375 21.132812 16.5625 21.1875 C 16.640625 21.242188 16.714844 21.324219 16.769531 21.410156 L 16.8125 21.46875 L 16.851562 21.410156 C 16.910156 21.324219 16.976562 21.242188 17.058594 21.1875 C 17.132812 21.132812 17.222656 21.097656 17.328125 21.097656 L 18.015625 21.097656 C 18.269531 21.097656 18.425781 21.054688 18.523438 20.945312 C 18.625 20.839844 18.648438 20.683594 18.648438 20.457031 L 18.648438 17.132812 Z M 14.96875 17.132812 "/>
<path style=" stroke:none;fill-rule:evenodd;fill:rgb(9.019608%,16.078431%,51.372549%);fill-opacity:1;" d="M 18.554688 17.226562 L 15.058594 17.226562 L 15.058594 20.457031 C 15.058594 20.65625 15.085938 20.792969 15.160156 20.878906 C 15.238281 20.960938 15.371094 21 15.605469 21 L 16.296875 21 C 16.417969 21 16.527344 21.039062 16.617188 21.105469 C 16.6875 21.15625 16.757812 21.222656 16.8125 21.300781 C 16.867188 21.222656 16.929688 21.15625 17 21.105469 C 17.09375 21.039062 17.199219 21 17.328125 21 L 18.015625 21 C 18.242188 21 18.375 20.960938 18.457031 20.878906 C 18.53125 20.792969 18.554688 20.65625 18.554688 20.457031 Z M 18.554688 17.226562 "/>
<path style=" stroke:none;fill-rule:evenodd;fill:rgb(91.764706%,80%,0%);fill-opacity:1;" d="M 15.058594 19.3125 L 15.058594 19.574219 L 16.289062 19.574219 L 16.289062 21 L 16.296875 21 C 16.378906 21 16.449219 21.019531 16.515625 21.046875 L 16.515625 19.3125 Z M 15.058594 19.3125 "/>
<path style=" stroke:none;fill-rule:evenodd;fill:rgb(91.764706%,80%,0%);fill-opacity:1;" d="M 16.515625 18.78125 L 16.515625 17.226562 L 16.289062 17.226562 L 16.289062 18.566406 L 15.058594 18.566406 L 15.058594 18.78125 Z M 16.515625 18.78125 "/>
<path style=" stroke:none;fill-rule:evenodd;fill:rgb(91.764706%,80%,0%);fill-opacity:1;" d="M 16.964844 18.878906 L 16.964844 17.226562 L 16.609375 17.226562 L 16.609375 18.878906 L 15.058594 18.878906 L 15.058594 19.21875 L 16.609375 19.21875 L 16.609375 21.101562 C 16.613281 21.101562 16.617188 21.105469 16.617188 21.105469 C 16.6875 21.15625 16.757812 21.222656 16.8125 21.300781 C 16.851562 21.242188 16.910156 21.183594 16.964844 21.136719 L 16.964844 19.21875 L 18.554688 19.21875 L 18.554688 18.878906 Z M 16.964844 18.878906 "/>
<path style=" stroke:none;fill-rule:evenodd;fill:rgb(91.764706%,80%,0%);fill-opacity:1;" d="M 17.058594 19.3125 L 17.058594 21.074219 C 17.136719 21.027344 17.226562 21 17.328125 21 L 17.335938 21 L 17.335938 19.574219 L 18.554688 19.574219 L 18.554688 19.3125 Z M 17.058594 19.3125 "/>
<path style=" stroke:none;fill-rule:evenodd;fill:rgb(91.764706%,80%,0%);fill-opacity:1;" d="M 17.335938 18.566406 L 17.335938 17.226562 L 17.058594 17.226562 L 17.058594 18.78125 L 18.554688 18.78125 L 18.554688 18.566406 Z M 17.335938 18.566406 "/>
<path style=" stroke:none;fill-rule:evenodd;fill:rgb(100%,100%,100%);fill-opacity:1;" d="M 24.707031 8.34375 C 23.695312 8.726562 22.484375 9.046875 21.136719 9.257812 C 19.800781 9.476562 18.339844 9.59375 16.8125 9.59375 C 15.277344 9.59375 13.8125 9.476562 12.476562 9.257812 C 11.132812 9.046875 9.925781 8.726562 8.90625 8.34375 C 8.722656 8.980469 8.578125 9.644531 8.480469 10.332031 C 8.382812 11.039062 8.324219 11.765625 8.324219 12.511719 C 8.324219 13.007812 8.351562 13.492188 8.394531 13.972656 C 8.4375 14.425781 8.503906 14.863281 8.582031 15.296875 C 9.617188 14.921875 10.863281 14.609375 12.261719 14.398438 C 13.65625 14.183594 15.195312 14.066406 16.8125 14.066406 C 18.425781 14.066406 19.957031 14.183594 21.351562 14.398438 C 22.75 14.609375 24.003906 14.921875 25.03125 15.296875 C 25.117188 14.863281 25.179688 14.425781 25.222656 13.972656 C 25.269531 13.492188 25.289062 13.007812 25.289062 12.511719 C 25.289062 11.765625 25.238281 11.039062 25.136719 10.332031 C 25.039062 9.644531 24.890625 8.980469 24.707031 8.34375 Z M 24.707031 8.34375 "/>
<path style=" stroke:none;fill-rule:evenodd;fill:rgb(0%,0%,0%);fill-opacity:1;" d="M 20.957031 13.269531 C 20.867188 13.078125 20.515625 12.332031 20.429688 12.152344 C 20.3125 12.152344 19.546875 12.152344 19.28125 12.152344 C 19.28125 12.429688 19.28125 13.554688 19.28125 13.839844 C 19.539062 13.859375 19.792969 13.886719 20.054688 13.910156 C 20.054688 13.730469 20.054688 13.011719 20.054688 12.832031 C 20.0625 12.847656 20.074219 12.863281 20.082031 12.886719 C 20.164062 13.050781 20.496094 13.773438 20.585938 13.96875 C 20.96875 14.023438 21.351562 14.078125 21.730469 14.136719 C 21.730469 13.808594 21.730469 12.484375 21.730469 12.15625 C 21.472656 12.15625 21.21875 12.152344 20.957031 12.152344 C 20.957031 12.335938 20.957031 13.085938 20.957031 13.269531 Z M 20.957031 13.269531 "/>
<path style=" stroke:none;fill-rule:evenodd;fill:rgb(0%,0%,0%);fill-opacity:1;" d="M 14.34375 11.136719 C 14.035156 11.128906 13.726562 11.121094 13.417969 11.113281 C 13.417969 11.039062 13.417969 10.964844 13.417969 10.890625 C 13.699219 10.898438 13.972656 10.910156 14.25 10.917969 C 14.25 10.757812 14.25 10.597656 14.25 10.441406 C 13.972656 10.425781 13.699219 10.40625 13.417969 10.390625 C 13.417969 10.324219 13.417969 10.25 13.417969 10.183594 C 13.71875 10.207031 14.015625 10.226562 14.3125 10.242188 C 14.3125 10.085938 14.3125 9.925781 14.3125 9.769531 C 13.710938 9.714844 13.109375 9.652344 12.511719 9.570312 C 12.511719 9.914062 12.511719 11.273438 12.511719 11.613281 C 13.125 11.613281 13.730469 11.613281 14.34375 11.613281 C 14.34375 11.535156 14.34375 11.21875 14.34375 11.136719 Z M 14.34375 11.136719 "/>
<path style=" stroke:none;fill-rule:evenodd;fill:rgb(0%,0%,0%);fill-opacity:1;" d="M 19.730469 11.320312 C 19.84375 11.316406 20.3125 11.308594 20.425781 11.308594 C 20.453125 11.40625 20.480469 11.511719 20.507812 11.613281 C 20.835938 11.613281 21.171875 11.613281 21.5 11.613281 C 21.375 11.265625 20.867188 9.941406 20.742188 9.621094 C 20.523438 9.648438 20.304688 9.671875 20.082031 9.695312 C 19.894531 9.714844 19.707031 9.734375 19.519531 9.75 C 19.386719 10.070312 18.859375 11.316406 18.726562 11.621094 C 19.027344 11.621094 19.332031 11.613281 19.636719 11.613281 C 19.664062 11.519531 19.699219 11.414062 19.730469 11.320312 Z M 20.082031 10.113281 C 20.082031 10.101562 20.085938 10.09375 20.085938 10.085938 C 20.121094 10.210938 20.261719 10.707031 20.292969 10.832031 C 20.226562 10.839844 20.15625 10.84375 20.082031 10.84375 C 20.011719 10.847656 19.9375 10.851562 19.867188 10.851562 C 19.90625 10.726562 20.042969 10.230469 20.082031 10.113281 Z M 20.082031 10.113281 "/>
<path style=" stroke:none;fill-rule:evenodd;fill:rgb(0%,0%,0%);fill-opacity:1;" d="M 24.03125 12.164062 C 23.808594 12.160156 22.972656 12.160156 22.777344 12.15625 C 22.644531 12.519531 22.105469 13.867188 21.96875 14.179688 C 22.28125 14.242188 22.589844 14.300781 22.898438 14.367188 C 22.929688 14.257812 22.960938 14.148438 22.992188 14.035156 C 23.113281 14.058594 23.589844 14.15625 23.707031 14.179688 C 23.734375 14.316406 23.765625 14.449219 23.796875 14.585938 C 24.132812 14.679688 24.472656 14.78125 24.808594 14.886719 C 24.679688 14.398438 24.160156 12.585938 24.03125 12.164062 Z M 23.359375 13.539062 C 23.28125 13.527344 23.210938 13.519531 23.140625 13.503906 C 23.171875 13.363281 23.210938 13.21875 23.246094 13.074219 C 23.28125 12.9375 23.316406 12.800781 23.359375 12.660156 C 23.359375 12.648438 23.359375 12.640625 23.359375 12.625 C 23.402344 12.78125 23.433594 12.9375 23.472656 13.09375 C 23.503906 13.25 23.539062 13.414062 23.578125 13.574219 C 23.5 13.5625 23.429688 13.554688 23.359375 13.539062 Z M 23.359375 13.539062 "/>
<path style=" stroke:none;fill-rule:evenodd;fill:rgb(0%,0%,0%);fill-opacity:1;" d="M 10.71875 10.726562 C 10.855469 10.742188 11.003906 10.75 11.148438 10.761719 C 11.148438 10.90625 11.148438 11.46875 11.148438 11.613281 C 11.449219 11.613281 11.75 11.613281 12.046875 11.613281 C 12.046875 11.257812 12.046875 9.855469 12.046875 9.507812 C 11.75 9.453125 11.449219 9.398438 11.148438 9.339844 C 11.148438 9.472656 11.148438 9.980469 11.148438 10.109375 C 11.003906 10.085938 10.855469 10.066406 10.71875 10.046875 C 10.71875 9.914062 10.71875 9.382812 10.71875 9.25 C 10.414062 9.183594 10.113281 9.109375 9.8125 9.027344 C 9.8125 9.457031 9.8125 11.175781 9.8125 11.605469 C 10.113281 11.605469 10.414062 11.605469 10.71875 11.605469 C 10.71875 11.464844 10.71875 10.875 10.71875 10.726562 Z M 10.71875 10.726562 "/>
<path style=" stroke:none;fill-rule:evenodd;fill:rgb(0%,0%,0%);fill-opacity:1;" d="M 18.65625 11.621094 C 18.65625 11.539062 18.65625 11.21875 18.65625 11.136719 C 18.363281 11.144531 18.078125 11.144531 17.789062 11.152344 C 17.789062 10.929688 17.789062 10.070312 17.789062 9.851562 C 17.753906 9.851562 17.71875 9.855469 17.683594 9.855469 C 17.410156 9.859375 17.132812 9.863281 16.859375 9.867188 C 16.859375 10.160156 16.859375 11.328125 16.859375 11.621094 C 17.132812 11.621094 18.332031 11.621094 18.65625 11.621094 Z M 18.65625 11.621094 "/>
<path style=" stroke:none;fill-rule:evenodd;fill:rgb(0%,0%,0%);fill-opacity:1;" d="M 16.554688 11.621094 C 16.554688 11.539062 16.554688 11.230469 16.554688 11.152344 C 16.261719 11.152344 15.972656 11.152344 15.683594 11.144531 C 15.683594 10.929688 15.683594 10.066406 15.683594 9.847656 C 15.476562 9.839844 15.273438 9.828125 15.066406 9.820312 C 14.964844 9.8125 14.859375 9.808594 14.753906 9.800781 C 14.753906 10.101562 14.753906 11.316406 14.753906 11.621094 C 14.859375 11.621094 16.058594 11.621094 16.554688 11.621094 Z M 16.554688 11.621094 "/>
<path style=" stroke:none;fill-rule:evenodd;fill:rgb(0%,0%,0%);fill-opacity:1;" d="M 23.359375 11.507812 C 23.410156 11.484375 23.457031 11.449219 23.503906 11.414062 C 23.703125 11.25 23.800781 11.023438 23.800781 10.75 C 23.800781 10.546875 23.746094 10.390625 23.628906 10.292969 C 23.566406 10.238281 23.472656 10.195312 23.359375 10.164062 C 23.246094 10.132812 23.121094 10.109375 22.96875 10.089844 C 22.925781 10.082031 22.867188 10.082031 22.800781 10.070312 C 22.605469 10.054688 22.507812 10.003906 22.507812 9.921875 C 22.507812 9.875 22.523438 9.839844 22.558594 9.804688 C 22.59375 9.769531 22.640625 9.75 22.699219 9.734375 C 22.765625 9.726562 22.816406 9.734375 22.851562 9.761719 C 22.882812 9.792969 22.90625 9.839844 22.910156 9.910156 C 23.054688 9.882812 23.589844 9.792969 23.707031 9.769531 C 23.707031 9.753906 23.707031 9.734375 23.707031 9.714844 C 23.707031 9.492188 23.621094 9.335938 23.457031 9.257812 C 23.425781 9.242188 23.390625 9.230469 23.359375 9.222656 C 23.195312 9.183594 22.992188 9.195312 22.734375 9.25 C 22.386719 9.328125 22.121094 9.4375 21.925781 9.589844 C 21.730469 9.742188 21.636719 9.914062 21.636719 10.125 C 21.636719 10.269531 21.679688 10.378906 21.773438 10.464844 C 21.867188 10.546875 22.015625 10.613281 22.21875 10.652344 C 22.304688 10.675781 22.417969 10.691406 22.558594 10.714844 C 22.703125 10.738281 22.796875 10.757812 22.84375 10.777344 C 22.871094 10.789062 22.890625 10.808594 22.90625 10.832031 C 22.921875 10.863281 22.929688 10.894531 22.929688 10.9375 C 22.929688 10.988281 22.910156 11.03125 22.871094 11.0625 C 22.835938 11.09375 22.777344 11.113281 22.710938 11.117188 C 22.628906 11.121094 22.578125 11.101562 22.539062 11.070312 C 22.5 11.03125 22.480469 10.976562 22.480469 10.902344 C 22.480469 10.894531 22.480469 10.890625 22.480469 10.882812 C 22.191406 10.902344 21.90625 10.917969 21.617188 10.929688 C 21.613281 10.945312 21.613281 10.953125 21.613281 10.960938 C 21.613281 10.972656 21.613281 10.988281 21.613281 11.007812 C 21.613281 11.214844 21.707031 11.371094 21.890625 11.480469 C 22.078125 11.589844 22.34375 11.648438 22.691406 11.648438 C 22.957031 11.648438 23.175781 11.601562 23.359375 11.507812 Z M 23.359375 11.507812 "/>
<path style=" stroke:none;fill-rule:evenodd;fill:rgb(0%,0%,0%);fill-opacity:1;" d="M 18.609375 12.339844 C 18.394531 12.191406 18.09375 12.121094 17.6875 12.121094 C 17.6875 12.121094 17.6875 12.121094 17.683594 12.121094 C 17.289062 12.121094 16.980469 12.191406 16.765625 12.335938 C 16.65625 12.40625 16.574219 12.496094 16.519531 12.597656 C 16.464844 12.699219 16.441406 12.816406 16.441406 12.949219 C 16.441406 13.078125 16.464844 13.1875 16.519531 13.292969 C 16.570312 13.390625 16.652344 13.476562 16.761719 13.546875 C 16.972656 13.691406 17.269531 13.761719 17.660156 13.773438 C 17.667969 13.773438 17.675781 13.773438 17.683594 13.773438 C 18.09375 13.78125 18.394531 13.730469 18.605469 13.597656 C 18.714844 13.53125 18.792969 13.449219 18.851562 13.339844 C 18.90625 13.242188 18.929688 13.121094 18.929688 12.980469 C 18.929688 12.84375 18.90625 12.71875 18.851562 12.613281 C 18.792969 12.511719 18.714844 12.417969 18.609375 12.339844 Z M 17.988281 13.269531 C 17.929688 13.332031 17.828125 13.363281 17.683594 13.355469 C 17.539062 13.355469 17.441406 13.324219 17.382812 13.265625 C 17.320312 13.207031 17.292969 13.105469 17.292969 12.953125 C 17.292969 12.792969 17.328125 12.683594 17.382812 12.625 C 17.441406 12.570312 17.539062 12.539062 17.683594 12.539062 C 17.6875 12.539062 17.6875 12.539062 17.6875 12.539062 C 17.832031 12.539062 17.933594 12.570312 17.992188 12.625 C 18.050781 12.675781 18.078125 12.78125 18.078125 12.929688 C 18.078125 13.09375 18.050781 13.207031 17.988281 13.269531 Z M 17.988281 13.269531 "/>
<path style=" stroke:none;fill-rule:evenodd;fill:rgb(0%,0%,0%);fill-opacity:1;" d="M 12.574219 13.320312 C 12.855469 13.292969 13.140625 13.273438 13.421875 13.25 C 13.421875 13.105469 13.421875 12.953125 13.421875 12.800781 C 13.140625 12.8125 12.855469 12.824219 12.574219 12.84375 C 12.574219 12.769531 12.574219 12.703125 12.574219 12.636719 C 12.878906 12.625 13.179688 12.613281 13.484375 12.605469 C 13.484375 12.457031 13.484375 12.300781 13.484375 12.152344 C 12.871094 12.152344 12.257812 12.152344 11.644531 12.15625 C 11.644531 12.492188 11.644531 13.84375 11.644531 14.179688 C 12.273438 14.078125 12.894531 13.988281 13.519531 13.914062 C 13.519531 13.839844 13.519531 13.53125 13.519531 13.457031 C 13.203125 13.484375 12.886719 13.511719 12.574219 13.542969 C 12.574219 13.46875 12.574219 13.398438 12.574219 13.320312 Z M 12.574219 13.320312 "/>
<path style=" stroke:none;fill-rule:evenodd;fill:rgb(0%,0%,0%);fill-opacity:1;" d="M 15.703125 12.929688 C 15.867188 12.902344 15.984375 12.855469 16.070312 12.792969 C 16.148438 12.730469 16.191406 12.648438 16.191406 12.554688 C 16.191406 12.40625 16.117188 12.300781 15.96875 12.238281 C 15.824219 12.179688 15.5625 12.144531 15.195312 12.144531 C 15.152344 12.144531 14.3125 12.152344 13.9375 12.152344 C 13.9375 12.4375 13.9375 13.585938 13.9375 13.875 C 14.246094 13.84375 14.554688 13.816406 14.859375 13.800781 C 14.859375 13.699219 14.859375 13.597656 14.859375 13.5 C 14.859375 13.398438 14.859375 13.300781 14.859375 13.199219 C 14.875 13.199219 14.929688 13.191406 14.953125 13.191406 C 14.996094 13.1875 15.035156 13.199219 15.066406 13.214844 C 15.242188 13.292969 15.285156 13.5625 15.335938 13.773438 C 15.648438 13.757812 15.960938 13.75 16.277344 13.742188 C 16.171875 13.363281 16.09375 12.980469 15.703125 12.929688 Z M 15.183594 12.78125 C 15.152344 12.796875 15.117188 12.808594 15.066406 12.816406 C 15.027344 12.824219 14.980469 12.832031 14.929688 12.832031 C 14.910156 12.835938 14.898438 12.835938 14.890625 12.835938 C 14.882812 12.832031 14.867188 12.832031 14.867188 12.832031 C 14.867188 12.730469 14.867188 12.625 14.867188 12.519531 C 14.878906 12.519531 14.894531 12.519531 14.910156 12.519531 C 14.925781 12.511719 14.941406 12.511719 14.972656 12.511719 C 15.003906 12.511719 15.039062 12.511719 15.066406 12.519531 C 15.125 12.519531 15.164062 12.53125 15.199219 12.546875 C 15.246094 12.570312 15.273438 12.605469 15.273438 12.65625 C 15.273438 12.707031 15.242188 12.75 15.183594 12.78125 Z M 15.183594 12.78125 "/>
<path style=" stroke:none;fill-rule:evenodd;fill:rgb(0%,0%,0%);fill-opacity:1;" d="M 10.03125 13.726562 L 9.550781 12.15625 C 9.226562 12.15625 8.949219 12.15625 8.625 12.160156 C 8.828125 12.96875 9.246094 13.84375 9.496094 14.679688 C 9.90625 14.566406 10.140625 14.511719 10.558594 14.417969 L 11.429688 12.15625 L 10.507812 12.160156 Z M 10.03125 13.726562 "/>
</g>
</svg>
