<?xml version="1.0" encoding="UTF-8"?>
<svg xmlns="http://www.w3.org/2000/svg" xmlns:xlink="http://www.w3.org/1999/xlink" width="35pt" height="25pt" viewBox="0 0 35 25" version="1.1">
<g id="surface1">
<path style=" stroke:none;fill-rule:evenodd;fill:rgb(12.156863%,10.196078%,9.019608%);fill-opacity:1;" d="M 17.152344 0 C 21.382812 0 24.8125 5.597656 24.8125 12.5 C 24.8125 19.402344 21.382812 25 17.152344 25 C 12.921875 25 9.492188 19.402344 9.492188 12.5 C 9.492188 5.597656 12.921875 0 17.152344 0 Z M 17.152344 0 "/>
<path style=" stroke:none;fill-rule:evenodd;fill:rgb(100%,100%,100%);fill-opacity:1;" d="M 17.152344 0.960938 C 21.128906 0.960938 24.351562 6.066406 24.351562 12.355469 C 24.351562 18.644531 21.128906 23.746094 17.152344 23.746094 C 13.175781 23.746094 9.953125 18.644531 9.953125 12.355469 C 9.953125 6.066406 13.175781 0.960938 17.152344 0.960938 Z M 17.152344 0.960938 "/>
<path style=" stroke:none;fill-rule:evenodd;fill:rgb(12.156863%,10.196078%,9.019608%);fill-opacity:1;" d="M 17.152344 1.320312 C 17.597656 1.320312 18.03125 1.390625 18.453125 1.519531 L 18.453125 5.53125 C 18.007812 5.5 17.554688 5.484375 17.09375 5.484375 C 16.671875 5.484375 16.257812 5.496094 15.851562 5.523438 L 15.851562 1.519531 C 16.273438 1.390625 16.707031 1.320312 17.152344 1.320312 Z M 20.351562 2.605469 C 21.417969 3.515625 22.316406 4.867188 22.953125 6.507812 L 22.953125 6.515625 C 22.191406 6.214844 21.351562 5.972656 20.453125 5.800781 C 20.421875 5.3125 20.390625 4.832031 20.351562 4.363281 Z M 11.347656 6.464844 C 11.960938 4.902344 12.8125 3.605469 13.816406 2.707031 L 13.816406 4.367188 C 13.78125 4.835938 13.746094 5.3125 13.71875 5.800781 C 12.871094 5.964844 12.078125 6.1875 11.347656 6.464844 Z M 11.347656 6.464844 "/>
<path style=" stroke:none;fill-rule:evenodd;fill:rgb(12.156863%,10.196078%,9.019608%);fill-opacity:1;" d="M 13.597656 10.757812 C 12.769531 11.160156 11.992188 11.699219 11.28125 12.351562 L 11.28125 17.175781 C 11.902344 18.816406 12.804688 20.171875 13.882812 21.097656 L 13.882812 18.972656 C 13.699219 16.71875 13.59375 14.234375 13.59375 11.621094 C 13.59375 11.332031 13.597656 11.042969 13.597656 10.757812 Z M 18.511719 10.042969 C 18.066406 9.96875 17.613281 9.925781 17.152344 9.925781 C 16.730469 9.925781 16.316406 9.960938 15.910156 10.023438 L 15.910156 14.625 C 16.304688 14.425781 16.722656 14.320312 17.152344 14.320312 C 17.625 14.320312 18.082031 14.449219 18.511719 14.683594 Z M 23.023438 12.351562 C 22.308594 11.699219 21.53125 11.160156 20.703125 10.757812 C 20.707031 11.042969 20.707031 11.332031 20.707031 11.621094 C 20.707031 14.234375 20.605469 16.71875 20.417969 18.972656 L 20.417969 21.191406 C 21.484375 20.324219 22.382812 19.035156 23.023438 17.46875 Z M 23.023438 12.351562 "/>
<path style=" stroke:none;fill-rule:evenodd;fill:rgb(96.078431%,70.588235%,0%);fill-opacity:1;" d="M 17.058594 9.199219 C 19.5625 9.199219 21.972656 9.761719 23.925781 10.730469 C 23.953125 11.113281 23.96875 11.5 23.96875 11.894531 C 23.96875 12.039062 23.964844 12.183594 23.960938 12.328125 C 22 10.648438 19.582031 9.664062 17.058594 9.664062 C 14.53125 9.664062 12.265625 10.585938 10.339844 12.171875 C 10.335938 12.078125 10.335938 11.988281 10.335938 11.894531 C 10.335938 11.464844 10.351562 11.046875 10.386719 10.632812 C 12.300781 9.726562 14.550781 9.199219 17.058594 9.199219 Z M 17.058594 9.199219 "/>
<path style=" stroke:none;fill-rule:evenodd;fill:rgb(12.156863%,10.196078%,9.019608%);fill-opacity:1;" d="M 18.578125 17.46875 L 15.726562 17.46875 C 15.386719 17.46875 15.113281 17.71875 15.113281 18.023438 L 15.113281 18.972656 C 15.113281 20.34375 15.597656 21.128906 17.152344 22.421875 C 18.707031 21.128906 19.191406 20.34375 19.191406 18.972656 L 19.191406 18.023438 C 19.191406 17.71875 18.914062 17.46875 18.578125 17.46875 Z M 18.578125 17.46875 "/>
<path style=" stroke:none;fill-rule:evenodd;fill:rgb(100%,100%,100%);fill-opacity:1;" d="M 16.207031 17.796875 C 16.207031 17.796875 16.3125 17.964844 16.285156 17.984375 C 16.242188 18.011719 16.101562 17.925781 16.101562 17.925781 C 16.101562 17.925781 16.191406 18.125 16.246094 18.203125 C 16.269531 18.234375 16.316406 18.257812 16.332031 18.300781 C 16.390625 18.460938 16.199219 18.707031 16.382812 18.816406 C 16.441406 18.855469 16.515625 18.832031 16.585938 18.800781 C 16.585938 18.800781 16.605469 18.789062 16.621094 18.792969 C 16.652344 18.8125 16.613281 18.894531 16.609375 18.90625 C 16.535156 19.078125 16.46875 18.988281 16.386719 18.914062 C 16.214844 18.765625 16.203125 18.976562 16.152344 18.996094 C 15.960938 19.0625 15.980469 18.984375 15.917969 19.011719 C 15.878906 19.027344 15.871094 19.109375 15.859375 19.148438 C 15.835938 19.226562 15.78125 19.429688 15.957031 19.371094 C 16.058594 19.335938 16.089844 19.078125 16.1875 19.207031 C 16.308594 19.363281 16.144531 19.523438 16.308594 19.707031 C 16.351562 19.757812 16.40625 19.78125 16.457031 19.726562 C 16.476562 19.710938 16.492188 19.683594 16.5 19.65625 C 16.511719 19.628906 16.511719 19.578125 16.5 19.535156 C 16.464844 19.441406 16.382812 19.4375 16.414062 19.304688 C 16.449219 19.292969 16.453125 19.292969 16.488281 19.3125 C 16.550781 19.347656 16.640625 19.367188 16.691406 19.417969 C 16.773438 19.496094 16.839844 19.585938 16.941406 19.640625 C 16.972656 19.707031 16.902344 19.792969 16.878906 19.828125 C 16.835938 19.894531 16.78125 19.976562 16.765625 20.058594 C 16.738281 20.203125 16.878906 20.355469 16.71875 20.40625 C 16.53125 20.464844 16.222656 20.417969 16.207031 20.621094 C 16.203125 20.660156 16.191406 20.71875 16.222656 20.757812 C 16.246094 20.785156 16.3125 20.808594 16.351562 20.808594 C 16.507812 20.808594 16.371094 20.640625 16.496094 20.597656 C 16.558594 20.582031 16.628906 20.621094 16.679688 20.625 C 16.734375 20.628906 16.804688 20.625 16.851562 20.625 C 17.039062 20.617188 17.070312 20.542969 17.164062 20.484375 C 17.285156 20.410156 17.394531 20.621094 17.4375 20.699219 C 17.472656 20.761719 17.558594 20.792969 17.585938 20.863281 C 17.613281 20.941406 17.617188 21.058594 17.609375 21.125 C 17.601562 21.179688 17.542969 21.171875 17.519531 21.214844 C 17.480469 21.285156 17.46875 21.578125 17.582031 21.613281 C 17.671875 21.644531 17.828125 21.539062 17.796875 21.457031 C 17.789062 21.429688 17.746094 21.410156 17.738281 21.378906 C 17.699219 21.183594 18.035156 21.015625 18.042969 20.96875 C 18.058594 20.894531 17.933594 20.90625 17.960938 20.746094 C 17.980469 20.632812 18.097656 20.554688 18.152344 20.460938 C 18.183594 20.410156 18.171875 20.316406 18.207031 20.273438 C 18.238281 20.234375 18.289062 20.222656 18.3125 20.179688 C 18.4375 19.945312 18.292969 19.578125 18.199219 19.320312 C 18.171875 19.246094 18.027344 18.941406 18.125 18.90625 C 18.148438 18.894531 18.164062 18.90625 18.175781 18.910156 C 18.230469 18.964844 18.195312 19.054688 18.222656 19.121094 C 18.261719 19.207031 18.375 19.246094 18.453125 19.28125 C 18.445312 19.289062 18.46875 19.285156 18.472656 19.285156 C 18.449219 19.234375 18.429688 19.195312 18.429688 19.136719 C 18.425781 18.972656 18.402344 18.839844 18.296875 18.765625 C 18.242188 18.730469 18.148438 18.699219 18.070312 18.742188 C 17.757812 18.90625 18.066406 19.417969 18.148438 19.691406 C 18.183594 19.8125 18.097656 19.882812 18 19.839844 C 17.917969 19.804688 17.878906 19.609375 17.851562 19.519531 C 17.753906 19.148438 17.617188 18.476562 17.445312 18.28125 C 17.285156 18.101562 16.867188 18.019531 16.585938 17.96875 C 16.542969 17.960938 16.46875 17.949219 16.425781 17.933594 C 16.390625 17.917969 16.207031 17.796875 16.207031 17.796875 Z M 16.207031 17.796875 "/>
<path style=" stroke:none;fill-rule:evenodd;fill:rgb(12.156863%,10.196078%,9.019608%);fill-opacity:1;" d="M 22.578125 9.125 L 22.578125 9.121094 Z M 22.578125 7.6875 L 23.070312 7.855469 L 23.070312 7.8125 C 23.070312 7.710938 23.066406 7.621094 23.058594 7.546875 C 23.050781 7.472656 23.035156 7.414062 23.019531 7.367188 C 23.003906 7.324219 22.976562 7.277344 22.941406 7.234375 C 22.90625 7.1875 22.859375 7.140625 22.804688 7.097656 L 22.804688 7.09375 C 22.726562 7.03125 22.636719 6.972656 22.53125 6.929688 C 22.511719 6.917969 22.492188 6.910156 22.46875 6.902344 C 22.449219 6.894531 22.425781 6.886719 22.40625 6.878906 L 22.402344 6.878906 C 22.300781 6.84375 22.210938 6.828125 22.132812 6.824219 C 22.117188 6.824219 22.101562 6.824219 22.085938 6.828125 C 22.074219 6.828125 22.058594 6.828125 22.046875 6.832031 L 22.042969 6.832031 C 21.996094 6.839844 21.957031 6.851562 21.921875 6.875 C 21.890625 6.894531 21.867188 6.917969 21.847656 6.953125 C 21.824219 6.984375 21.808594 7.035156 21.800781 7.097656 C 21.789062 7.164062 21.78125 7.246094 21.78125 7.34375 C 21.78125 7.410156 21.785156 7.472656 21.792969 7.53125 C 21.800781 7.585938 21.8125 7.636719 21.828125 7.6875 C 21.851562 7.753906 21.878906 7.816406 21.910156 7.867188 C 21.914062 7.878906 21.921875 7.886719 21.929688 7.898438 C 21.933594 7.90625 21.941406 7.914062 21.949219 7.925781 L 21.914062 7.949219 L 21.949219 7.925781 C 21.972656 7.957031 22.011719 8 22.0625 8.058594 C 22.113281 8.117188 22.175781 8.1875 22.253906 8.265625 L 22.253906 8.269531 C 22.332031 8.351562 22.394531 8.417969 22.445312 8.472656 C 22.492188 8.53125 22.53125 8.574219 22.550781 8.609375 C 22.570312 8.636719 22.582031 8.675781 22.59375 8.722656 C 22.597656 8.726562 22.597656 8.738281 22.601562 8.746094 C 22.609375 8.804688 22.613281 8.871094 22.613281 8.949219 L 22.613281 8.953125 C 22.613281 9.007812 22.609375 9.050781 22.597656 9.085938 C 22.59375 9.089844 22.589844 9.097656 22.589844 9.105469 C 22.585938 9.109375 22.582031 9.117188 22.578125 9.121094 L 22.578125 9.125 L 22.542969 9.097656 L 22.578125 9.125 C 22.558594 9.148438 22.539062 9.160156 22.515625 9.167969 C 22.492188 9.171875 22.464844 9.171875 22.4375 9.164062 C 22.398438 9.148438 22.371094 9.128906 22.347656 9.105469 C 22.34375 9.101562 22.339844 9.09375 22.335938 9.089844 C 22.332031 9.082031 22.328125 9.078125 22.328125 9.070312 L 22.324219 9.070312 C 22.304688 9.03125 22.296875 8.957031 22.296875 8.855469 L 22.296875 8.570312 L 21.800781 8.402344 L 21.800781 8.511719 C 21.800781 8.609375 21.804688 8.695312 21.816406 8.773438 C 21.824219 8.847656 21.835938 8.914062 21.855469 8.96875 C 21.871094 9.023438 21.898438 9.078125 21.933594 9.132812 C 21.96875 9.1875 22.015625 9.238281 22.074219 9.292969 C 22.15625 9.367188 22.25 9.429688 22.355469 9.476562 C 22.375 9.484375 22.394531 9.496094 22.417969 9.503906 C 22.441406 9.511719 22.464844 9.519531 22.484375 9.527344 L 22.488281 9.527344 C 22.558594 9.554688 22.628906 9.570312 22.691406 9.574219 C 22.753906 9.582031 22.8125 9.582031 22.867188 9.570312 C 22.941406 9.558594 22.996094 9.53125 23.035156 9.496094 C 23.039062 9.488281 23.046875 9.484375 23.054688 9.476562 C 23.058594 9.46875 23.066406 9.457031 23.070312 9.449219 C 23.082031 9.429688 23.089844 9.402344 23.097656 9.367188 C 23.101562 9.351562 23.105469 9.332031 23.109375 9.3125 C 23.121094 9.25 23.125 9.171875 23.125 9.082031 C 23.125 8.957031 23.117188 8.84375 23.097656 8.75 C 23.082031 8.65625 23.054688 8.574219 23.019531 8.511719 C 22.984375 8.445312 22.925781 8.359375 22.839844 8.261719 C 22.753906 8.160156 22.640625 8.039062 22.503906 7.90625 C 22.453125 7.855469 22.414062 7.8125 22.382812 7.777344 C 22.351562 7.738281 22.332031 7.703125 22.316406 7.671875 C 22.308594 7.648438 22.300781 7.621094 22.292969 7.589844 L 22.289062 7.574219 C 22.285156 7.539062 22.28125 7.496094 22.28125 7.449219 C 22.28125 7.394531 22.289062 7.351562 22.300781 7.320312 C 22.300781 7.3125 22.304688 7.304688 22.308594 7.300781 C 22.3125 7.292969 22.316406 7.289062 22.316406 7.28125 L 22.320312 7.28125 L 22.316406 7.28125 L 22.320312 7.28125 C 22.335938 7.257812 22.355469 7.246094 22.378906 7.238281 C 22.402344 7.234375 22.425781 7.234375 22.449219 7.246094 C 22.472656 7.253906 22.492188 7.261719 22.507812 7.277344 C 22.527344 7.289062 22.539062 7.308594 22.550781 7.328125 C 22.558594 7.34375 22.5625 7.367188 22.566406 7.394531 L 22.570312 7.394531 L 22.570312 7.40625 C 22.574219 7.4375 22.578125 7.476562 22.578125 7.523438 Z M 21.519531 8.359375 L 21.519531 6.652344 L 20.964844 6.511719 L 20.964844 8.371094 C 20.964844 8.4375 20.964844 8.492188 20.960938 8.535156 C 20.957031 8.578125 20.953125 8.609375 20.945312 8.628906 L 20.945312 8.632812 C 20.929688 8.671875 20.902344 8.691406 20.863281 8.695312 L 20.859375 8.695312 C 20.855469 8.695312 20.847656 8.695312 20.839844 8.695312 C 20.832031 8.691406 20.824219 8.691406 20.820312 8.691406 L 20.816406 8.6875 C 20.792969 8.683594 20.773438 8.671875 20.753906 8.65625 C 20.738281 8.640625 20.726562 8.621094 20.71875 8.597656 C 20.710938 8.574219 20.707031 8.542969 20.703125 8.503906 C 20.699219 8.464844 20.699219 8.417969 20.699219 8.359375 L 20.699219 6.441406 L 20.144531 6.300781 L 20.144531 7.785156 C 20.144531 7.929688 20.144531 8.050781 20.148438 8.148438 C 20.152344 8.242188 20.15625 8.316406 20.160156 8.363281 C 20.164062 8.40625 20.175781 8.449219 20.191406 8.492188 C 20.207031 8.539062 20.226562 8.585938 20.253906 8.628906 C 20.277344 8.675781 20.3125 8.71875 20.351562 8.761719 C 20.390625 8.804688 20.4375 8.84375 20.492188 8.882812 C 20.570312 8.9375 20.65625 8.984375 20.75 9.015625 C 20.769531 9.023438 20.785156 9.03125 20.804688 9.035156 C 20.824219 9.042969 20.84375 9.046875 20.863281 9.054688 L 20.867188 9.054688 C 20.957031 9.074219 21.035156 9.085938 21.109375 9.085938 C 21.121094 9.085938 21.136719 9.082031 21.148438 9.082031 C 21.160156 9.082031 21.175781 9.078125 21.1875 9.078125 L 21.191406 9.074219 C 21.234375 9.066406 21.277344 9.054688 21.3125 9.035156 C 21.347656 9.015625 21.375 8.988281 21.402344 8.957031 C 21.429688 8.925781 21.453125 8.894531 21.46875 8.863281 C 21.484375 8.828125 21.496094 8.796875 21.5 8.761719 C 21.503906 8.730469 21.507812 8.691406 21.511719 8.640625 L 21.511719 8.609375 C 21.515625 8.542969 21.519531 8.460938 21.519531 8.367188 Z M 19.910156 6.730469 L 19.910156 6.296875 L 18.574219 6.101562 L 18.574219 6.535156 L 18.921875 6.585938 L 18.957031 6.589844 L 18.957031 8.671875 L 19.523438 8.753906 L 19.523438 6.671875 L 19.570312 6.679688 Z M 18.335938 8.632812 L 18.335938 6.113281 L 17.875 6.097656 L 17.875 7.226562 L 17.792969 7.238281 L 17.433594 6.082031 L 16.957031 6.066406 L 16.957031 8.582031 L 17.421875 8.597656 L 17.421875 7.460938 L 17.503906 7.449219 L 17.835938 8.613281 Z M 16.636719 6.074219 L 15.628906 6.144531 L 15.628906 8.660156 L 16.683594 8.585938 L 16.683594 8.152344 L 16.246094 8.183594 L 16.203125 8.1875 L 16.203125 7.527344 L 16.242188 7.523438 L 16.609375 7.5 L 16.609375 7.089844 L 16.246094 7.117188 L 16.203125 7.117188 L 16.203125 6.539062 L 16.242188 6.535156 L 16.636719 6.507812 Z M 15.117188 8.699219 L 15.433594 6.128906 L 14.839844 6.238281 L 14.796875 6.695312 C 14.773438 6.976562 14.746094 7.289062 14.722656 7.632812 L 14.707031 7.835938 L 14.691406 8.042969 L 14.691406 8.046875 L 14.609375 8.046875 C 14.585938 7.699219 14.546875 7.292969 14.5 6.832031 C 14.492188 6.746094 14.484375 6.65625 14.472656 6.554688 C 14.464844 6.476562 14.453125 6.394531 14.445312 6.308594 L 13.847656 6.417969 L 14.207031 8.867188 Z M 13.28125 9.042969 Z M 13.621094 8.117188 L 13.621094 6.433594 L 13.074219 6.597656 L 13.074219 8.484375 C 13.074219 8.546875 13.074219 8.601562 13.070312 8.644531 C 13.066406 8.691406 13.0625 8.726562 13.054688 8.746094 C 13.042969 8.785156 13.023438 8.8125 12.992188 8.832031 C 12.984375 8.835938 12.980469 8.839844 12.972656 8.84375 C 12.964844 8.847656 12.960938 8.847656 12.953125 8.851562 L 12.949219 8.851562 C 12.925781 8.859375 12.902344 8.859375 12.878906 8.851562 C 12.859375 8.84375 12.839844 8.824219 12.832031 8.796875 C 12.824219 8.78125 12.816406 8.75 12.816406 8.710938 C 12.8125 8.675781 12.808594 8.628906 12.808594 8.570312 L 12.808594 6.675781 L 12.261719 6.835938 L 12.261719 8.34375 C 12.261719 8.492188 12.265625 8.613281 12.265625 8.707031 C 12.269531 8.800781 12.273438 8.871094 12.277344 8.914062 C 12.28125 8.953125 12.292969 8.992188 12.304688 9.027344 C 12.320312 9.058594 12.339844 9.09375 12.367188 9.121094 C 12.390625 9.152344 12.417969 9.175781 12.457031 9.195312 C 12.492188 9.210938 12.539062 9.226562 12.589844 9.234375 C 12.664062 9.25 12.746094 9.246094 12.839844 9.230469 C 12.855469 9.226562 12.875 9.222656 12.894531 9.21875 C 12.910156 9.210938 12.929688 9.207031 12.953125 9.203125 L 12.953125 9.199219 C 13.046875 9.171875 13.128906 9.136719 13.199219 9.09375 C 13.214844 9.085938 13.230469 9.078125 13.242188 9.070312 C 13.253906 9.058594 13.269531 9.050781 13.28125 9.042969 L 13.308594 9.074219 L 13.28125 9.042969 C 13.328125 9.007812 13.371094 8.96875 13.40625 8.929688 C 13.445312 8.886719 13.476562 8.839844 13.503906 8.792969 C 13.53125 8.746094 13.554688 8.699219 13.570312 8.65625 C 13.589844 8.613281 13.597656 8.570312 13.605469 8.53125 C 13.609375 8.5 13.613281 8.457031 13.617188 8.402344 L 13.617188 8.371094 C 13.621094 8.304688 13.621094 8.222656 13.621094 8.125 Z M 11.945312 8.613281 L 11.945312 6.933594 L 11.414062 7.132812 L 11.414062 8.933594 C 11.414062 8.980469 11.414062 9.023438 11.414062 9.058594 C 11.410156 9.097656 11.410156 9.121094 11.40625 9.140625 C 11.40625 9.164062 11.398438 9.183594 11.390625 9.207031 C 11.382812 9.226562 11.371094 9.246094 11.355469 9.265625 C 11.339844 9.285156 11.320312 9.304688 11.300781 9.320312 C 11.28125 9.332031 11.257812 9.34375 11.234375 9.355469 C 11.222656 9.359375 11.203125 9.363281 11.179688 9.371094 L 11.179688 9.734375 L 11.433594 9.636719 C 11.527344 9.601562 11.605469 9.566406 11.667969 9.53125 C 11.679688 9.523438 11.691406 9.519531 11.699219 9.511719 C 11.710938 9.507812 11.71875 9.5 11.730469 9.496094 L 11.726562 9.496094 L 11.730469 9.492188 C 11.773438 9.460938 11.8125 9.421875 11.84375 9.378906 C 11.851562 9.371094 11.855469 9.363281 11.863281 9.351562 C 11.867188 9.339844 11.875 9.332031 11.878906 9.324219 C 11.902344 9.273438 11.921875 9.226562 11.929688 9.175781 C 11.933594 9.164062 11.933594 9.15625 11.9375 9.148438 C 11.9375 9.136719 11.9375 9.128906 11.9375 9.117188 L 11.941406 9.113281 C 11.941406 9.074219 11.945312 9.015625 11.945312 8.933594 C 11.945312 8.855469 11.945312 8.75 11.945312 8.613281 Z M 11.945312 8.613281 "/>
<path style=" stroke:none;fill-rule:evenodd;fill:rgb(12.156863%,10.196078%,9.019608%);fill-opacity:1;" d="M 18.421875 16.753906 C 18.425781 16.730469 18.503906 16.601562 18.59375 16.445312 C 18.820312 16.042969 19.136719 15.441406 18.570312 15.851562 C 18.421875 15.960938 18.328125 16.128906 18.152344 16.074219 L 18.152344 16.070312 C 17.976562 16.015625 17.875 15.828125 17.933594 15.652344 C 18.085938 15.191406 17.550781 15.253906 17.542969 15.613281 C 17.535156 16.0625 16.769531 16.0625 16.761719 15.613281 C 16.753906 15.253906 16.21875 15.191406 16.371094 15.652344 C 16.429688 15.828125 16.328125 16.015625 16.152344 16.070312 L 16.152344 16.074219 C 15.976562 16.128906 15.882812 15.960938 15.734375 15.851562 C 14.945312 15.28125 15.863281 16.667969 15.882812 16.753906 C 16.570312 16.546875 17.367188 16.476562 18.421875 16.753906 Z M 18.421875 16.753906 "/>
</g>
</svg>
