<?xml version="1.0" encoding="UTF-8"?>
<svg xmlns="http://www.w3.org/2000/svg" xmlns:xlink="http://www.w3.org/1999/xlink" width="35pt" height="25pt" viewBox="0 0 35 25" version="1.1">
<g id="surface2">
<path style=" stroke:none;fill-rule:nonzero;fill:rgb(14.117647%,52.54902%,75.686275%);fill-opacity:1;" d="M 26.972656 12.5 C 26.972656 19.402344 22.726562 25 17.488281 25 C 12.246094 25 8 19.402344 8 12.5 C 8 5.597656 12.246094 0 17.488281 0 C 22.726562 0 26.972656 5.597656 26.972656 12.5 "/>
<path style=" stroke:none;fill-rule:nonzero;fill:rgb(100%,100%,100%);fill-opacity:1;" d="M 26.617188 12.5 C 26.617188 19.207031 22.527344 24.640625 17.488281 24.640625 C 12.445312 24.640625 8.359375 19.207031 8.359375 12.5 C 8.359375 5.792969 12.445312 0.359375 17.488281 0.359375 C 22.527344 0.359375 26.617188 5.792969 26.617188 12.5 "/>
<path style=" stroke:none;fill-rule:nonzero;fill:rgb(14.117647%,52.54902%,75.686275%);fill-opacity:1;" d="M 24.859375 12.5 C 24.859375 17.925781 21.558594 22.324219 17.488281 22.324219 C 13.414062 22.324219 10.113281 17.925781 10.113281 12.5 C 10.113281 7.074219 13.414062 2.675781 17.488281 2.675781 C 21.558594 2.675781 24.859375 7.074219 24.859375 12.5 "/>
<path style=" stroke:none;fill-rule:nonzero;fill:rgb(74.117647%,61.568627%,38.431373%);fill-opacity:1;" d="M 16.417969 6.839844 L 17.488281 6.277344 L 18.558594 6.839844 L 18.351562 5.648438 L 19.21875 4.804688 L 18.023438 4.632812 L 17.488281 3.546875 L 16.953125 4.632812 L 15.757812 4.804688 L 16.621094 5.648438 Z M 21.320312 7.441406 C 21.320312 7.441406 20.335938 7.945312 19.570312 7.945312 C 18.800781 7.945312 17.601562 7.585938 17.601562 7.585938 L 17.339844 7.585938 C 17.339844 7.585938 16.402344 7.921875 15.5625 7.921875 C 14.722656 7.921875 13.644531 7.46875 13.644531 7.46875 C 13.644531 7.46875 12.070312 9.074219 12.070312 12.65625 C 12.070312 20.011719 17.554688 21.453125 17.554688 21.453125 C 17.554688 21.453125 22.90625 19.867188 22.90625 12.578125 C 22.90625 9.484375 21.320312 7.441406 21.320312 7.441406 "/>
<path style=" stroke:none;fill-rule:nonzero;fill:rgb(85.098039%,15.686275%,15.294118%);fill-opacity:1;" d="M 13.984375 8.371094 C 13.984375 8.371094 12.832031 10.128906 12.832031 12.175781 C 12.832031 19.882812 17.503906 20.621094 17.503906 20.621094 C 17.503906 20.621094 22.140625 19.882812 22.140625 12.175781 C 22.140625 10.226562 21.054688 8.433594 21.054688 8.433594 C 21.054688 8.433594 20.285156 8.65625 19.582031 8.65625 C 18.878906 8.65625 17.503906 8.273438 17.503906 8.273438 C 17.503906 8.273438 16.511719 8.691406 15.550781 8.691406 C 14.59375 8.691406 13.984375 8.371094 13.984375 8.371094 "/>
<path style=" stroke:none;fill-rule:nonzero;fill:rgb(100%,100%,100%);fill-opacity:1;" d="M 22.113281 13.167969 L 18.429688 13.167969 L 18.429688 8.5 C 17.929688 8.394531 17.503906 8.273438 17.503906 8.273438 C 17.503906 8.273438 17.125 8.433594 16.609375 8.554688 L 16.609375 13.167969 L 12.863281 13.167969 C 12.898438 13.832031 12.972656 14.4375 13.078125 14.992188 L 16.609375 14.992188 L 16.609375 20.308594 C 17.136719 20.5625 17.503906 20.621094 17.503906 20.621094 C 17.503906 20.621094 17.886719 20.558594 18.429688 20.289062 L 18.429688 14.992188 L 21.898438 14.992188 C 22.003906 14.4375 22.078125 13.832031 22.113281 13.167969 "/>
<path style=" stroke:none;fill-rule:nonzero;fill:rgb(14.117647%,52.54902%,75.686275%);fill-opacity:1;" d="M 11.832031 3.152344 L 12.257812 2.808594 L 13.210938 3.175781 L 13.210938 3.171875 L 12.65625 2.484375 L 13.050781 2.167969 L 14.089844 3.449219 L 13.683594 3.777344 L 12.703125 3.410156 L 12.695312 3.414062 L 13.265625 4.113281 L 12.871094 4.433594 Z M 11.832031 3.152344 "/>
<path style=" stroke:none;fill-rule:nonzero;fill:rgb(14.117647%,52.54902%,75.686275%);fill-opacity:1;" d="M 14.453125 1.441406 C 14.9375 1.226562 15.40625 1.410156 15.613281 1.871094 C 15.820312 2.328125 15.648438 2.800781 15.164062 3.019531 C 14.683594 3.234375 14.214844 3.050781 14.007812 2.59375 C 13.800781 2.132812 13.972656 1.660156 14.453125 1.441406 M 14.996094 2.644531 C 15.121094 2.589844 15.277344 2.425781 15.125 2.089844 C 14.972656 1.753906 14.746094 1.761719 14.625 1.816406 C 14.5 1.875 14.34375 2.039062 14.496094 2.375 C 14.644531 2.707031 14.871094 2.699219 14.996094 2.644531 "/>
<path style=" stroke:none;fill-rule:nonzero;fill:rgb(14.117647%,52.54902%,75.686275%);fill-opacity:1;" d="M 17.027344 2.527344 L 16.429688 2.585938 L 15.757812 0.992188 L 16.292969 0.941406 L 16.671875 1.910156 L 16.679688 1.910156 L 16.863281 0.886719 L 17.410156 0.835938 Z M 17.027344 2.527344 "/>
<path style=" stroke:none;fill-rule:nonzero;fill:rgb(14.117647%,52.54902%,75.686275%);fill-opacity:1;" d="M 18.433594 0.917969 L 18.953125 0.988281 L 19.359375 2.707031 L 18.8125 2.632812 L 18.769531 2.390625 L 18.222656 2.316406 L 18.113281 2.539062 L 17.578125 2.46875 Z M 18.710938 2.023438 L 18.625 1.5 L 18.617188 1.5 L 18.386719 1.980469 Z M 18.710938 2.023438 "/>
<path style=" stroke:none;fill-rule:nonzero;fill:rgb(14.117647%,52.54902%,75.686275%);fill-opacity:1;" d="M 20.28125 1.328125 L 21.203125 1.765625 C 21.480469 1.894531 21.648438 2.152344 21.515625 2.433594 C 21.441406 2.585938 21.289062 2.714844 21.101562 2.695312 C 21.210938 2.804688 21.226562 2.980469 21.152344 3.175781 C 21.125 3.253906 21.042969 3.429688 21.054688 3.519531 L 20.570312 3.289062 C 20.582031 3.203125 20.609375 3.121094 20.640625 3.042969 C 20.695312 2.894531 20.753906 2.738281 20.5625 2.648438 L 20.304688 2.527344 L 20.054688 3.046875 L 19.574219 2.816406 Z M 20.457031 2.207031 L 20.707031 2.328125 C 20.796875 2.371094 20.929688 2.414062 20.992188 2.28125 C 21.039062 2.1875 21.007812 2.105469 20.824219 2.019531 L 20.597656 1.910156 Z M 20.457031 2.207031 "/>
<path style=" stroke:none;fill-rule:nonzero;fill:rgb(14.117647%,52.54902%,75.686275%);fill-opacity:1;" d="M 22.753906 2.847656 L 23.15625 3.179688 L 22.585938 4.851562 L 22.160156 4.496094 L 22.253906 4.269531 L 21.828125 3.917969 L 21.617188 4.046875 L 21.203125 3.703125 Z M 22.398438 3.929688 L 22.601562 3.441406 L 22.597656 3.4375 L 22.144531 3.71875 Z M 22.398438 3.929688 "/>
<path style=" stroke:none;fill-rule:nonzero;fill:rgb(14.117647%,52.54902%,75.686275%);fill-opacity:1;" d="M 14.503906 22.585938 C 14.523438 22.535156 14.578125 22.367188 14.402344 22.257812 C 14.207031 22.136719 14.03125 22.277344 13.917969 22.449219 C 13.8125 22.625 13.761719 22.84375 13.957031 22.96875 C 14.097656 23.058594 14.210938 23 14.3125 22.890625 L 14.726562 23.152344 C 14.5625 23.410156 14.164062 23.550781 13.765625 23.296875 C 13.324219 23.019531 13.261719 22.570312 13.5 22.1875 C 13.757812 21.777344 14.195312 21.679688 14.617188 21.941406 C 14.988281 22.179688 15.078125 22.496094 14.910156 22.84375 Z M 14.503906 22.585938 "/>
<path style=" stroke:none;fill-rule:nonzero;fill:rgb(14.117647%,52.54902%,75.686275%);fill-opacity:1;" d="M 15.664062 22.453125 L 16.125 22.597656 L 16.234375 24.230469 L 15.746094 24.078125 L 15.742188 23.851562 L 15.253906 23.699219 L 15.121094 23.886719 L 14.648438 23.742188 Z M 15.746094 23.507812 L 15.746094 23.015625 L 15.742188 23.015625 L 15.457031 23.417969 Z M 15.746094 23.507812 "/>
<path style=" stroke:none;fill-rule:nonzero;fill:rgb(14.117647%,52.54902%,75.686275%);fill-opacity:1;" d="M 16.589844 22.734375 L 17.085938 22.738281 L 17.078125 23.875 L 17.789062 23.878906 L 17.789062 24.269531 L 16.582031 24.265625 Z M 16.589844 22.734375 "/>
<path style=" stroke:none;fill-rule:nonzero;fill:rgb(14.117647%,52.54902%,75.686275%);fill-opacity:1;" d="M 18.910156 23.175781 C 18.886719 23.125 18.804688 22.96875 18.605469 23.015625 C 18.378906 23.066406 18.355469 23.292969 18.398438 23.492188 C 18.445312 23.691406 18.566406 23.882812 18.792969 23.832031 C 18.957031 23.796875 18.992188 23.671875 18.992188 23.527344 L 19.464844 23.417969 C 19.535156 23.71875 19.351562 24.09375 18.890625 24.199219 C 18.382812 24.316406 18.019531 24.042969 17.917969 23.601562 C 17.808594 23.132812 18.050781 22.75 18.535156 22.640625 C 18.964844 22.542969 19.25 22.703125 19.378906 23.066406 Z M 18.910156 23.175781 "/>
<path style=" stroke:none;fill-rule:nonzero;fill:rgb(14.117647%,52.54902%,75.686275%);fill-opacity:1;" d="M 20.941406 21.640625 C 21.375 21.417969 21.820312 21.566406 22.035156 21.980469 C 22.246094 22.398438 22.109375 22.84375 21.671875 23.066406 C 21.238281 23.289062 20.792969 23.140625 20.582031 22.726562 C 20.371094 22.3125 20.507812 21.867188 20.941406 21.640625 M 21.5 22.726562 C 21.613281 22.671875 21.75 22.511719 21.59375 22.207031 C 21.4375 21.90625 21.226562 21.921875 21.117188 21.980469 C 21.003906 22.039062 20.867188 22.199219 21.023438 22.5 C 21.179688 22.800781 21.386719 22.785156 21.5 22.726562 "/>
<path style=" stroke:none;fill-rule:nonzero;fill:rgb(14.117647%,52.54902%,75.686275%);fill-opacity:1;" d="M 20.636719 23.238281 L 20.46875 23.3125 L 20.121094 22.496094 L 20.261719 22.4375 L 20.132812 22.136719 L 19.367188 22.464844 L 19.492188 22.765625 L 19.664062 22.691406 L 20.011719 23.503906 L 19.871094 23.566406 L 20 23.867188 L 20.765625 23.539062 Z M 20.636719 23.238281 "/>
<path style=" stroke:none;fill-rule:nonzero;fill:rgb(14.117647%,52.54902%,75.686275%);fill-opacity:1;" d="M 9.265625 12.160156 L 9.03125 12.160156 L 9.03125 11.90625 C 9.175781 11.90625 9.324219 11.839844 9.332031 11.636719 L 9.570312 11.636719 L 9.570312 12.867188 L 9.265625 12.867188 Z M 9.265625 12.160156 "/>
<path style=" stroke:none;fill-rule:nonzero;fill:rgb(14.117647%,52.54902%,75.686275%);fill-opacity:1;" d="M 9.332031 14.933594 C 9.339844 14.960938 9.359375 14.984375 9.382812 14.992188 C 9.40625 15.003906 9.433594 15.003906 9.453125 15 C 9.585938 14.980469 9.605469 14.828125 9.613281 14.726562 L 9.609375 14.722656 C 9.550781 14.800781 9.476562 14.84375 9.390625 14.855469 C 9.195312 14.886719 9.039062 14.769531 9.015625 14.519531 C 8.984375 14.222656 9.167969 14.03125 9.394531 13.996094 C 9.691406 13.953125 9.84375 14.207031 9.875 14.511719 C 9.910156 14.902344 9.785156 15.207031 9.476562 15.253906 C 9.292969 15.28125 9.121094 15.210938 9.066406 14.976562 Z M 9.277344 14.46875 C 9.289062 14.5625 9.363281 14.621094 9.441406 14.609375 C 9.515625 14.597656 9.578125 14.523438 9.570312 14.425781 C 9.558594 14.328125 9.492188 14.265625 9.410156 14.277344 C 9.335938 14.289062 9.269531 14.371094 9.277344 14.46875 "/>
<path style=" stroke:none;fill-rule:nonzero;fill:rgb(14.117647%,52.54902%,75.686275%);fill-opacity:1;" d="M 9.8125 15.976562 C 9.992188 15.933594 10.257812 16.027344 10.324219 16.496094 C 10.390625 16.964844 10.167969 17.171875 9.988281 17.214844 C 9.808594 17.257812 9.542969 17.160156 9.476562 16.691406 C 9.410156 16.222656 9.632812 16.015625 9.8125 15.976562 M 9.949219 16.949219 C 10.09375 16.914062 10.070312 16.6875 10.054688 16.558594 C 10.035156 16.433594 9.996094 16.207031 9.851562 16.242188 C 9.703125 16.273438 9.730469 16.5 9.75 16.628906 C 9.765625 16.757812 9.804688 16.980469 9.949219 16.949219 "/>
<path style=" stroke:none;fill-rule:nonzero;fill:rgb(14.117647%,52.54902%,75.686275%);fill-opacity:1;" d="M 10.390625 17.886719 C 10.644531 17.742188 10.816406 17.820312 10.871094 17.984375 C 10.914062 18.101562 10.886719 18.230469 10.808594 18.300781 L 10.808594 18.304688 C 10.917969 18.261719 11.027344 18.3125 11.078125 18.453125 C 11.167969 18.71875 10.972656 18.933594 10.785156 19.039062 C 10.585938 19.152344 10.34375 19.1875 10.25 18.914062 C 10.183594 18.722656 10.289062 18.613281 10.351562 18.5625 L 10.351562 18.558594 C 10.238281 18.582031 10.167969 18.523438 10.125 18.402344 C 10.039062 18.15625 10.234375 17.972656 10.390625 17.886719 M 10.546875 18.347656 C 10.613281 18.308594 10.679688 18.242188 10.644531 18.148438 C 10.609375 18.042969 10.53125 18.0625 10.464844 18.101562 C 10.394531 18.140625 10.339844 18.199219 10.375 18.300781 C 10.402344 18.390625 10.480469 18.382812 10.546875 18.347656 M 10.707031 18.804688 C 10.769531 18.769531 10.84375 18.695312 10.8125 18.597656 C 10.773438 18.488281 10.695312 18.488281 10.613281 18.535156 C 10.539062 18.578125 10.476562 18.652344 10.515625 18.765625 C 10.546875 18.863281 10.640625 18.84375 10.707031 18.804688 "/>
<path style=" stroke:none;fill-rule:nonzero;fill:rgb(14.117647%,52.54902%,75.686275%);fill-opacity:1;" d="M 25.566406 12.160156 L 25.328125 12.160156 L 25.328125 11.90625 C 25.476562 11.90625 25.621094 11.839844 25.628906 11.636719 L 25.867188 11.636719 L 25.867188 12.867188 L 25.566406 12.867188 Z M 25.566406 12.160156 "/>
<path style=" stroke:none;fill-rule:nonzero;fill:rgb(14.117647%,52.54902%,75.686275%);fill-opacity:1;" d="M 25.363281 14.667969 C 25.367188 14.695312 25.382812 14.722656 25.402344 14.738281 C 25.425781 14.753906 25.449219 14.757812 25.472656 14.757812 C 25.601562 14.765625 25.652344 14.621094 25.679688 14.523438 L 25.679688 14.519531 C 25.605469 14.582031 25.523438 14.609375 25.441406 14.605469 C 25.242188 14.59375 25.109375 14.449219 25.140625 14.199219 C 25.171875 13.902344 25.386719 13.753906 25.617188 13.765625 C 25.917969 13.78125 26.015625 14.0625 25.980469 14.367188 C 25.9375 14.757812 25.753906 15.027344 25.441406 15.011719 C 25.253906 15 25.101562 14.898438 25.097656 14.65625 Z M 25.410156 14.203125 C 25.398438 14.296875 25.460938 14.371094 25.535156 14.375 C 25.613281 14.378906 25.691406 14.316406 25.703125 14.21875 C 25.710938 14.125 25.65625 14.046875 25.578125 14.042969 C 25.5 14.039062 25.421875 14.105469 25.410156 14.203125 "/>
<path style=" stroke:none;fill-rule:nonzero;fill:rgb(14.117647%,52.54902%,75.686275%);fill-opacity:1;" d="M 25.324219 15.8125 C 25.507812 15.832031 25.726562 16.011719 25.632812 16.476562 C 25.542969 16.9375 25.261719 17.0625 25.078125 17.039062 C 24.894531 17.019531 24.675781 16.84375 24.769531 16.378906 C 24.859375 15.914062 25.140625 15.792969 25.324219 15.8125 M 25.128906 16.777344 C 25.28125 16.792969 25.332031 16.570312 25.355469 16.445312 C 25.378906 16.320312 25.417969 16.09375 25.273438 16.078125 C 25.121094 16.0625 25.074219 16.28125 25.046875 16.410156 C 25.019531 16.535156 24.980469 16.761719 25.128906 16.777344 "/>
<path style=" stroke:none;fill-rule:nonzero;fill:rgb(14.117647%,52.54902%,75.686275%);fill-opacity:1;" d="M 24.886719 17.828125 C 25.167969 17.921875 25.222656 18.101562 25.140625 18.253906 C 25.078125 18.363281 24.96875 18.429688 24.859375 18.417969 L 24.859375 18.421875 C 24.964844 18.472656 25 18.589844 24.929688 18.71875 C 24.792969 18.964844 24.5 18.964844 24.296875 18.898438 C 24.082031 18.824219 23.890625 18.667969 24.03125 18.414062 C 24.132812 18.238281 24.28125 18.242188 24.359375 18.253906 L 24.363281 18.25 C 24.273438 18.183594 24.265625 18.089844 24.328125 17.980469 C 24.453125 17.75 24.722656 17.773438 24.886719 17.828125 M 24.417969 18.679688 C 24.488281 18.703125 24.59375 18.710938 24.644531 18.621094 C 24.699219 18.519531 24.644531 18.460938 24.558594 18.429688 C 24.476562 18.402344 24.378906 18.40625 24.320312 18.511719 C 24.269531 18.601562 24.34375 18.65625 24.417969 18.679688 M 24.652344 18.253906 C 24.722656 18.277344 24.816406 18.285156 24.863281 18.195312 C 24.917969 18.097656 24.855469 18.054688 24.777344 18.027344 C 24.703125 18.003906 24.621094 18.003906 24.570312 18.097656 C 24.523438 18.179688 24.582031 18.230469 24.652344 18.253906 "/>
</g>
</svg>
