<?xml version="1.0" encoding="UTF-8"?>
<svg xmlns="http://www.w3.org/2000/svg" xmlns:xlink="http://www.w3.org/1999/xlink" width="35pt" height="25pt" viewBox="0 0 35 25" version="1.1">
<defs>
<clipPath id="clip1">
  <path d="M 8.75 0 L 28.175781 0 L 28.175781 25 L 8.75 25 Z M 8.75 0 "/>
</clipPath>
<clipPath id="clip2">
  <path d="M 28.164062 6.65625 L 28.152344 12.136719 C 28.292969 14.183594 27.765625 16.171875 26.984375 17.945312 C 25.597656 21.160156 21.625 24.460938 18.277344 25 L 18.289062 24.992188 C 13.507812 23.847656 9.460938 19.265625 8.894531 14.398438 C 8.761719 13.644531 8.738281 12.996094 8.753906 12.109375 L 8.761719 7.355469 L 8.761719 0 L 28.164062 0 "/>
</clipPath>
<clipPath id="clip3">
  <path d="M 8.75 0 L 28.175781 0 L 28.175781 12 L 8.75 12 Z M 8.75 0 "/>
</clipPath>
<clipPath id="clip4">
  <path d="M 28.164062 6.65625 L 28.152344 12.136719 C 28.292969 14.183594 27.765625 16.171875 26.984375 17.945312 C 25.597656 21.160156 21.625 24.460938 18.277344 25 L 18.289062 24.992188 C 13.507812 23.847656 9.460938 19.265625 8.894531 14.398438 C 8.761719 13.644531 8.738281 12.996094 8.753906 12.109375 L 8.761719 7.355469 L 8.761719 0 L 28.164062 0 "/>
</clipPath>
<clipPath id="clip5">
  <path d="M 8.75 3 L 28.175781 3 L 28.175781 16 L 8.75 16 Z M 8.75 3 "/>
</clipPath>
<clipPath id="clip6">
  <path d="M 28.164062 6.65625 L 28.152344 12.136719 C 28.292969 14.183594 27.765625 16.171875 26.984375 17.945312 C 25.597656 21.160156 21.625 24.460938 18.277344 25 L 18.289062 24.992188 C 13.507812 23.847656 9.460938 19.265625 8.894531 14.398438 C 8.761719 13.644531 8.738281 12.996094 8.753906 12.109375 L 8.761719 7.355469 L 8.761719 0 L 28.164062 0 "/>
</clipPath>
<clipPath id="clip7">
  <path d="M 8.75 5 L 28.175781 5 L 28.175781 18 L 8.75 18 Z M 8.75 5 "/>
</clipPath>
<clipPath id="clip8">
  <path d="M 28.164062 6.65625 L 28.152344 12.136719 C 28.292969 14.183594 27.765625 16.171875 26.984375 17.945312 C 25.597656 21.160156 21.625 24.460938 18.277344 25 L 18.289062 24.992188 C 13.507812 23.847656 9.460938 19.265625 8.894531 14.398438 C 8.761719 13.644531 8.738281 12.996094 8.753906 12.109375 L 8.761719 7.355469 L 8.761719 0 L 28.164062 0 "/>
</clipPath>
<clipPath id="clip9">
  <path d="M 8.75 8 L 28.175781 8 L 28.175781 24 L 8.75 24 Z M 8.75 8 "/>
</clipPath>
<clipPath id="clip10">
  <path d="M 28.164062 6.65625 L 28.152344 12.136719 C 28.292969 14.183594 27.765625 16.171875 26.984375 17.945312 C 25.597656 21.160156 21.625 24.460938 18.277344 25 L 18.289062 24.992188 C 13.507812 23.847656 9.460938 19.265625 8.894531 14.398438 C 8.761719 13.644531 8.738281 12.996094 8.753906 12.109375 L 8.761719 7.355469 L 8.761719 0 L 28.164062 0 "/>
</clipPath>
<clipPath id="clip11">
  <path d="M 14 21 L 16 21 L 16 23 L 14 23 Z M 14 21 "/>
</clipPath>
<clipPath id="clip12">
  <path d="M 28.164062 6.65625 L 28.152344 12.136719 C 28.292969 14.183594 27.765625 16.171875 26.984375 17.945312 C 25.597656 21.160156 21.625 24.460938 18.277344 25 L 18.289062 24.992188 C 13.507812 23.847656 9.460938 19.265625 8.894531 14.398438 C 8.761719 13.644531 8.738281 12.996094 8.753906 12.109375 L 8.761719 7.355469 L 8.761719 0 L 28.164062 0 "/>
</clipPath>
<clipPath id="clip13">
  <path d="M 15 21 L 16 21 L 16 22 L 15 22 Z M 15 21 "/>
</clipPath>
<clipPath id="clip14">
  <path d="M 28.164062 6.65625 L 28.152344 12.136719 C 28.292969 14.183594 27.765625 16.171875 26.984375 17.945312 C 25.597656 21.160156 21.625 24.460938 18.277344 25 L 18.289062 24.992188 C 13.507812 23.847656 9.460938 19.265625 8.894531 14.398438 C 8.761719 13.644531 8.738281 12.996094 8.753906 12.109375 L 8.761719 7.355469 L 8.761719 0 L 28.164062 0 "/>
</clipPath>
<clipPath id="clip15">
  <path d="M 15 20 L 17 20 L 17 22 L 15 22 Z M 15 20 "/>
</clipPath>
<clipPath id="clip16">
  <path d="M 28.164062 6.65625 L 28.152344 12.136719 C 28.292969 14.183594 27.765625 16.171875 26.984375 17.945312 C 25.597656 21.160156 21.625 24.460938 18.277344 25 L 18.289062 24.992188 C 13.507812 23.847656 9.460938 19.265625 8.894531 14.398438 C 8.761719 13.644531 8.738281 12.996094 8.753906 12.109375 L 8.761719 7.355469 L 8.761719 0 L 28.164062 0 "/>
</clipPath>
<clipPath id="clip17">
  <path d="M 16 20 L 17 20 L 17 22 L 16 22 Z M 16 20 "/>
</clipPath>
<clipPath id="clip18">
  <path d="M 28.164062 6.65625 L 28.152344 12.136719 C 28.292969 14.183594 27.765625 16.171875 26.984375 17.945312 C 25.597656 21.160156 21.625 24.460938 18.277344 25 L 18.289062 24.992188 C 13.507812 23.847656 9.460938 19.265625 8.894531 14.398438 C 8.761719 13.644531 8.738281 12.996094 8.753906 12.109375 L 8.761719 7.355469 L 8.761719 0 L 28.164062 0 "/>
</clipPath>
<clipPath id="clip19">
  <path d="M 16 19 L 18 19 L 18 21 L 16 21 Z M 16 19 "/>
</clipPath>
<clipPath id="clip20">
  <path d="M 28.164062 6.65625 L 28.152344 12.136719 C 28.292969 14.183594 27.765625 16.171875 26.984375 17.945312 C 25.597656 21.160156 21.625 24.460938 18.277344 25 L 18.289062 24.992188 C 13.507812 23.847656 9.460938 19.265625 8.894531 14.398438 C 8.761719 13.644531 8.738281 12.996094 8.753906 12.109375 L 8.761719 7.355469 L 8.761719 0 L 28.164062 0 "/>
</clipPath>
<clipPath id="clip21">
  <path d="M 17 19 L 19 19 L 19 21 L 17 21 Z M 17 19 "/>
</clipPath>
<clipPath id="clip22">
  <path d="M 28.164062 6.65625 L 28.152344 12.136719 C 28.292969 14.183594 27.765625 16.171875 26.984375 17.945312 C 25.597656 21.160156 21.625 24.460938 18.277344 25 L 18.289062 24.992188 C 13.507812 23.847656 9.460938 19.265625 8.894531 14.398438 C 8.761719 13.644531 8.738281 12.996094 8.753906 12.109375 L 8.761719 7.355469 L 8.761719 0 L 28.164062 0 "/>
</clipPath>
<clipPath id="clip23">
  <path d="M 18 18 L 20 18 L 20 21 L 18 21 Z M 18 18 "/>
</clipPath>
<clipPath id="clip24">
  <path d="M 28.164062 6.65625 L 28.152344 12.136719 C 28.292969 14.183594 27.765625 16.171875 26.984375 17.945312 C 25.597656 21.160156 21.625 24.460938 18.277344 25 L 18.289062 24.992188 C 13.507812 23.847656 9.460938 19.265625 8.894531 14.398438 C 8.761719 13.644531 8.738281 12.996094 8.753906 12.109375 L 8.761719 7.355469 L 8.761719 0 L 28.164062 0 "/>
</clipPath>
<clipPath id="clip25">
  <path d="M 19 18 L 21 18 L 21 20 L 19 20 Z M 19 18 "/>
</clipPath>
<clipPath id="clip26">
  <path d="M 28.164062 6.65625 L 28.152344 12.136719 C 28.292969 14.183594 27.765625 16.171875 26.984375 17.945312 C 25.597656 21.160156 21.625 24.460938 18.277344 25 L 18.289062 24.992188 C 13.507812 23.847656 9.460938 19.265625 8.894531 14.398438 C 8.761719 13.644531 8.738281 12.996094 8.753906 12.109375 L 8.761719 7.355469 L 8.761719 0 L 28.164062 0 "/>
</clipPath>
<clipPath id="clip27">
  <path d="M 20 17 L 21 17 L 21 19 L 20 19 Z M 20 17 "/>
</clipPath>
<clipPath id="clip28">
  <path d="M 28.164062 6.65625 L 28.152344 12.136719 C 28.292969 14.183594 27.765625 16.171875 26.984375 17.945312 C 25.597656 21.160156 21.625 24.460938 18.277344 25 L 18.289062 24.992188 C 13.507812 23.847656 9.460938 19.265625 8.894531 14.398438 C 8.761719 13.644531 8.738281 12.996094 8.753906 12.109375 L 8.761719 7.355469 L 8.761719 0 L 28.164062 0 "/>
</clipPath>
<clipPath id="clip29">
  <path d="M 20 17 L 22 17 L 22 19 L 20 19 Z M 20 17 "/>
</clipPath>
<clipPath id="clip30">
  <path d="M 28.164062 6.65625 L 28.152344 12.136719 C 28.292969 14.183594 27.765625 16.171875 26.984375 17.945312 C 25.597656 21.160156 21.625 24.460938 18.277344 25 L 18.289062 24.992188 C 13.507812 23.847656 9.460938 19.265625 8.894531 14.398438 C 8.761719 13.644531 8.738281 12.996094 8.753906 12.109375 L 8.761719 7.355469 L 8.761719 0 L 28.164062 0 "/>
</clipPath>
<clipPath id="clip31">
  <path d="M 21 17 L 23 17 L 23 19 L 21 19 Z M 21 17 "/>
</clipPath>
<clipPath id="clip32">
  <path d="M 28.164062 6.65625 L 28.152344 12.136719 C 28.292969 14.183594 27.765625 16.171875 26.984375 17.945312 C 25.597656 21.160156 21.625 24.460938 18.277344 25 L 18.289062 24.992188 C 13.507812 23.847656 9.460938 19.265625 8.894531 14.398438 C 8.761719 13.644531 8.738281 12.996094 8.753906 12.109375 L 8.761719 7.355469 L 8.761719 0 L 28.164062 0 "/>
</clipPath>
<clipPath id="clip33">
  <path d="M 21 16 L 23 16 L 23 18 L 21 18 Z M 21 16 "/>
</clipPath>
<clipPath id="clip34">
  <path d="M 28.164062 6.65625 L 28.152344 12.136719 C 28.292969 14.183594 27.765625 16.171875 26.984375 17.945312 C 25.597656 21.160156 21.625 24.460938 18.277344 25 L 18.289062 24.992188 C 13.507812 23.847656 9.460938 19.265625 8.894531 14.398438 C 8.761719 13.644531 8.738281 12.996094 8.753906 12.109375 L 8.761719 7.355469 L 8.761719 0 L 28.164062 0 "/>
</clipPath>
<clipPath id="clip35">
  <path d="M 22 16 L 24 16 L 24 18 L 22 18 Z M 22 16 "/>
</clipPath>
<clipPath id="clip36">
  <path d="M 28.164062 6.65625 L 28.152344 12.136719 C 28.292969 14.183594 27.765625 16.171875 26.984375 17.945312 C 25.597656 21.160156 21.625 24.460938 18.277344 25 L 18.289062 24.992188 C 13.507812 23.847656 9.460938 19.265625 8.894531 14.398438 C 8.761719 13.644531 8.738281 12.996094 8.753906 12.109375 L 8.761719 7.355469 L 8.761719 0 L 28.164062 0 "/>
</clipPath>
<clipPath id="clip37">
  <path d="M 23 16 L 24 16 L 24 18 L 23 18 Z M 23 16 "/>
</clipPath>
<clipPath id="clip38">
  <path d="M 28.164062 6.65625 L 28.152344 12.136719 C 28.292969 14.183594 27.765625 16.171875 26.984375 17.945312 C 25.597656 21.160156 21.625 24.460938 18.277344 25 L 18.289062 24.992188 C 13.507812 23.847656 9.460938 19.265625 8.894531 14.398438 C 8.761719 13.644531 8.738281 12.996094 8.753906 12.109375 L 8.761719 7.355469 L 8.761719 0 L 28.164062 0 "/>
</clipPath>
<clipPath id="clip39">
  <path d="M 23 16 L 25 16 L 25 17 L 23 17 Z M 23 16 "/>
</clipPath>
<clipPath id="clip40">
  <path d="M 28.164062 6.65625 L 28.152344 12.136719 C 28.292969 14.183594 27.765625 16.171875 26.984375 17.945312 C 25.597656 21.160156 21.625 24.460938 18.277344 25 L 18.289062 24.992188 C 13.507812 23.847656 9.460938 19.265625 8.894531 14.398438 C 8.761719 13.644531 8.738281 12.996094 8.753906 12.109375 L 8.761719 7.355469 L 8.761719 0 L 28.164062 0 "/>
</clipPath>
<clipPath id="clip41">
  <path d="M 24 16 L 25 16 L 25 17 L 24 17 Z M 24 16 "/>
</clipPath>
<clipPath id="clip42">
  <path d="M 28.164062 6.65625 L 28.152344 12.136719 C 28.292969 14.183594 27.765625 16.171875 26.984375 17.945312 C 25.597656 21.160156 21.625 24.460938 18.277344 25 L 18.289062 24.992188 C 13.507812 23.847656 9.460938 19.265625 8.894531 14.398438 C 8.761719 13.644531 8.738281 12.996094 8.753906 12.109375 L 8.761719 7.355469 L 8.761719 0 L 28.164062 0 "/>
</clipPath>
<clipPath id="clip43">
  <path d="M 24 15 L 26 15 L 26 17 L 24 17 Z M 24 15 "/>
</clipPath>
<clipPath id="clip44">
  <path d="M 28.164062 6.65625 L 28.152344 12.136719 C 28.292969 14.183594 27.765625 16.171875 26.984375 17.945312 C 25.597656 21.160156 21.625 24.460938 18.277344 25 L 18.289062 24.992188 C 13.507812 23.847656 9.460938 19.265625 8.894531 14.398438 C 8.761719 13.644531 8.738281 12.996094 8.753906 12.109375 L 8.761719 7.355469 L 8.761719 0 L 28.164062 0 "/>
</clipPath>
<clipPath id="clip45">
  <path d="M 25 16 L 26 16 L 26 17 L 25 17 Z M 25 16 "/>
</clipPath>
<clipPath id="clip46">
  <path d="M 28.164062 6.65625 L 28.152344 12.136719 C 28.292969 14.183594 27.765625 16.171875 26.984375 17.945312 C 25.597656 21.160156 21.625 24.460938 18.277344 25 L 18.289062 24.992188 C 13.507812 23.847656 9.460938 19.265625 8.894531 14.398438 C 8.761719 13.644531 8.738281 12.996094 8.753906 12.109375 L 8.761719 7.355469 L 8.761719 0 L 28.164062 0 "/>
</clipPath>
<clipPath id="clip47">
  <path d="M 8.75 0 L 28.175781 0 L 28.175781 25 L 8.75 25 Z M 8.75 0 "/>
</clipPath>
<clipPath id="clip48">
  <path d="M 28.164062 6.65625 L 28.152344 12.136719 C 28.292969 14.183594 27.765625 16.171875 26.984375 17.945312 C 25.597656 21.160156 21.625 24.460938 18.277344 25 L 18.289062 24.992188 C 13.507812 23.847656 9.460938 19.265625 8.894531 14.398438 C 8.761719 13.644531 8.738281 12.996094 8.753906 12.109375 L 8.761719 7.355469 L 8.761719 0 L 28.164062 0 "/>
</clipPath>
<clipPath id="clip49">
  <path d="M 9 3 L 26 3 L 26 19 L 9 19 Z M 9 3 "/>
</clipPath>
<clipPath id="clip50">
  <path d="M 28.164062 6.65625 L 28.152344 12.136719 C 28.292969 14.183594 27.765625 16.171875 26.984375 17.945312 C 25.597656 21.160156 21.625 24.460938 18.277344 25 L 18.289062 24.992188 C 13.507812 23.847656 9.460938 19.265625 8.894531 14.398438 C 8.761719 13.644531 8.738281 12.996094 8.753906 12.109375 L 8.761719 7.355469 L 8.761719 0 L 28.164062 0 "/>
</clipPath>
<clipPath id="clip51">
  <path d="M 8.75 2 L 27 2 L 27 19 L 8.75 19 Z M 8.75 2 "/>
</clipPath>
<clipPath id="clip52">
  <path d="M 28.164062 6.65625 L 28.152344 12.136719 C 28.292969 14.183594 27.765625 16.171875 26.984375 17.945312 C 25.597656 21.160156 21.625 24.460938 18.277344 25 L 18.289062 24.992188 C 13.507812 23.847656 9.460938 19.265625 8.894531 14.398438 C 8.761719 13.644531 8.738281 12.996094 8.753906 12.109375 L 8.761719 7.355469 L 8.761719 0 L 28.164062 0 "/>
</clipPath>
<clipPath id="clip53">
  <path d="M 9 3 L 26 3 L 26 19 L 9 19 Z M 9 3 "/>
</clipPath>
<clipPath id="clip54">
  <path d="M 28.164062 6.65625 L 28.152344 12.136719 C 28.292969 14.183594 27.765625 16.171875 26.984375 17.945312 C 25.597656 21.160156 21.625 24.460938 18.277344 25 L 18.289062 24.992188 C 13.507812 23.847656 9.460938 19.265625 8.894531 14.398438 C 8.761719 13.644531 8.738281 12.996094 8.753906 12.109375 L 8.761719 7.355469 L 8.761719 0 L 28.164062 0 "/>
</clipPath>
<clipPath id="clip55">
  <path d="M 9 11 L 13 11 L 13 13 L 9 13 Z M 9 11 "/>
</clipPath>
<clipPath id="clip56">
  <path d="M 28.164062 6.65625 L 28.152344 12.136719 C 28.292969 14.183594 27.765625 16.171875 26.984375 17.945312 C 25.597656 21.160156 21.625 24.460938 18.277344 25 L 18.289062 24.992188 C 13.507812 23.847656 9.460938 19.265625 8.894531 14.398438 C 8.761719 13.644531 8.738281 12.996094 8.753906 12.109375 L 8.761719 7.355469 L 8.761719 0 L 28.164062 0 "/>
</clipPath>
</defs>
<g id="surface1">
<g clip-path="url(#clip1)" clip-rule="nonzero">
<g clip-path="url(#clip2)" clip-rule="nonzero">
<path style=" stroke:none;fill-rule:nonzero;fill:rgb(100%,100%,100%);fill-opacity:1;" d="M 8.761719 0 L 28.164062 0 L 28.164062 6.65625 L 28.152344 12.136719 C 28.292969 14.183594 27.765625 16.171875 26.984375 17.945312 C 25.597656 21.160156 21.625 24.460938 18.277344 25 L 18.289062 24.992188 C 13.507812 23.847656 9.460938 19.265625 8.894531 14.398438 C 8.761719 13.644531 8.738281 12.996094 8.753906 12.109375 "/>
</g>
</g>
<g clip-path="url(#clip3)" clip-rule="nonzero">
<g clip-path="url(#clip4)" clip-rule="nonzero">
<path style=" stroke:none;fill-rule:nonzero;fill:rgb(0%,38.823529%,65.882353%);fill-opacity:1;" d="M 28.164062 0.585938 L 28.15625 -0.00390625 L 23.023438 0 L 8.765625 7.890625 L 8.753906 11.277344 "/>
</g>
</g>
<g clip-path="url(#clip5)" clip-rule="nonzero">
<g clip-path="url(#clip6)" clip-rule="nonzero">
<path style=" stroke:none;fill-rule:nonzero;fill:rgb(93.333333%,11.372549%,13.72549%);fill-opacity:1;" d="M 28.585938 3.808594 L 8.828125 14.558594 L 8.820312 15.992188 L 28.597656 5.253906 "/>
</g>
</g>
<g clip-path="url(#clip7)" clip-rule="nonzero">
<g clip-path="url(#clip8)" clip-rule="nonzero">
<path style=" stroke:none;fill-rule:nonzero;fill:rgb(13.72549%,12.156863%,12.54902%);fill-opacity:1;" d="M 28.585938 5.222656 L 8.828125 15.972656 L 8.820312 17.410156 L 28.597656 6.429688 "/>
</g>
</g>
<g clip-path="url(#clip9)" clip-rule="nonzero">
<g clip-path="url(#clip10)" clip-rule="nonzero">
<path style=" stroke:none;fill-rule:nonzero;fill:rgb(0%,38.823529%,65.882353%);fill-opacity:1;" d="M 30.472656 8.289062 L 8.828125 20.3125 L 8.820312 23.726562 L 29.539062 12.371094 "/>
</g>
</g>
<g clip-path="url(#clip11)" clip-rule="nonzero">
<g clip-path="url(#clip12)" clip-rule="nonzero">
<path style=" stroke:none;fill-rule:nonzero;fill:rgb(0%,38.823529%,65.882353%);fill-opacity:1;" d="M 15.085938 21.851562 L 14.867188 21.972656 L 14.824219 21.898438 C 14.8125 21.984375 14.769531 22.046875 14.679688 22.097656 C 14.570312 22.15625 14.4375 22.144531 14.363281 22.007812 L 14.136719 21.597656 L 14.363281 21.46875 L 14.535156 21.785156 C 14.574219 21.855469 14.609375 21.898438 14.675781 21.859375 C 14.714844 21.839844 14.757812 21.792969 14.703125 21.695312 L 14.53125 21.378906 L 14.757812 21.253906 "/>
</g>
</g>
<g clip-path="url(#clip13)" clip-rule="nonzero">
<g clip-path="url(#clip14)" clip-rule="nonzero">
<path style=" stroke:none;fill-rule:nonzero;fill:rgb(0%,38.823529%,65.882353%);fill-opacity:1;" d="M 15.097656 21.550781 L 15.335938 21.417969 L 15.460938 21.648438 L 15.222656 21.777344 "/>
</g>
</g>
<g clip-path="url(#clip15)" clip-rule="nonzero">
<g clip-path="url(#clip16)" clip-rule="nonzero">
<path style=" stroke:none;fill-rule:nonzero;fill:rgb(0%,38.823529%,65.882353%);fill-opacity:1;" d="M 15.78125 20.988281 C 15.765625 20.96875 15.746094 20.953125 15.722656 20.945312 C 15.703125 20.941406 15.679688 20.945312 15.65625 20.960938 C 15.566406 21.007812 15.597656 21.089844 15.636719 21.164062 C 15.675781 21.234375 15.730469 21.304688 15.816406 21.253906 C 15.867188 21.230469 15.878906 21.167969 15.859375 21.121094 L 16.078125 21 C 16.144531 21.175781 16.066406 21.335938 15.90625 21.425781 C 15.726562 21.523438 15.511719 21.476562 15.410156 21.289062 C 15.304688 21.097656 15.378906 20.894531 15.558594 20.796875 C 15.71875 20.710938 15.894531 20.714844 15.996094 20.871094 "/>
</g>
</g>
<g clip-path="url(#clip17)" clip-rule="nonzero">
<g clip-path="url(#clip18)" clip-rule="nonzero">
<path style=" stroke:none;fill-rule:nonzero;fill:rgb(0%,38.823529%,65.882353%);fill-opacity:1;" d="M 16.1875 20.953125 L 16.429688 20.820312 L 16.554688 21.050781 L 16.3125 21.179688 "/>
</g>
</g>
<g clip-path="url(#clip19)" clip-rule="nonzero">
<g clip-path="url(#clip20)" clip-rule="nonzero">
<path style=" stroke:none;fill-rule:nonzero;fill:rgb(0%,38.823529%,65.882353%);fill-opacity:1;" d="M 17.1875 20.148438 C 17.175781 20.128906 17.15625 20.121094 17.136719 20.121094 C 17.117188 20.113281 17.09375 20.121094 17.074219 20.128906 C 17.042969 20.148438 17.011719 20.175781 17.03125 20.214844 C 17.042969 20.230469 17.058594 20.230469 17.074219 20.230469 C 17.121094 20.226562 17.210938 20.183594 17.300781 20.167969 C 17.390625 20.148438 17.480469 20.15625 17.535156 20.253906 C 17.628906 20.421875 17.492188 20.554688 17.347656 20.632812 C 17.207031 20.710938 17.019531 20.738281 16.933594 20.585938 L 17.152344 20.46875 C 17.164062 20.488281 17.183594 20.5 17.207031 20.503906 C 17.226562 20.507812 17.25 20.503906 17.277344 20.488281 C 17.308594 20.472656 17.347656 20.433594 17.332031 20.398438 C 17.3125 20.367188 17.285156 20.367188 17.167969 20.40625 C 16.980469 20.472656 16.878906 20.453125 16.820312 20.351562 C 16.738281 20.199219 16.878906 20.070312 17 20.007812 C 17.128906 19.933594 17.304688 19.886719 17.394531 20.035156 "/>
</g>
</g>
<g clip-path="url(#clip21)" clip-rule="nonzero">
<g clip-path="url(#clip22)" clip-rule="nonzero">
<path style=" stroke:none;fill-rule:nonzero;fill:rgb(0%,38.823529%,65.882353%);fill-opacity:1;" d="M 17.953125 19.933594 C 17.933594 19.960938 17.90625 19.988281 17.878906 20.011719 C 17.835938 20.050781 17.816406 20.078125 17.835938 20.117188 C 17.851562 20.144531 17.898438 20.15625 17.9375 20.132812 C 17.992188 20.105469 18.015625 20.050781 17.984375 19.988281 Z M 18.246094 19.945312 C 18.269531 19.992188 18.300781 20.042969 18.347656 20.066406 L 18.113281 20.195312 C 18.101562 20.179688 18.082031 20.160156 18.074219 20.140625 L 18.074219 20.144531 C 18.054688 20.226562 17.992188 20.28125 17.917969 20.320312 C 17.804688 20.382812 17.679688 20.378906 17.609375 20.253906 C 17.503906 20.066406 17.730469 19.949219 17.835938 19.863281 C 17.863281 19.84375 17.890625 19.816406 17.867188 19.777344 C 17.847656 19.738281 17.800781 19.742188 17.761719 19.761719 C 17.691406 19.800781 17.699219 19.84375 17.710938 19.871094 L 17.5 19.988281 C 17.414062 19.816406 17.558594 19.699219 17.699219 19.621094 C 17.984375 19.464844 18.046875 19.585938 18.113281 19.703125 "/>
</g>
</g>
<g clip-path="url(#clip23)" clip-rule="nonzero">
<g clip-path="url(#clip24)" clip-rule="nonzero">
<path style=" stroke:none;fill-rule:nonzero;fill:rgb(0%,38.823529%,65.882353%);fill-opacity:1;" d="M 18.113281 19.417969 L 18.332031 19.296875 L 18.375 19.375 L 18.378906 19.375 C 18.386719 19.277344 18.4375 19.21875 18.523438 19.171875 C 18.585938 19.136719 18.675781 19.132812 18.734375 19.175781 C 18.742188 19.164062 18.738281 19.050781 18.886719 18.972656 C 19.042969 18.886719 19.152344 18.964844 19.203125 19.0625 L 19.429688 19.472656 L 19.203125 19.597656 L 19.023438 19.273438 C 18.992188 19.214844 18.960938 19.167969 18.890625 19.207031 C 18.832031 19.238281 18.835938 19.292969 18.871094 19.355469 L 19.050781 19.679688 L 18.820312 19.804688 L 18.644531 19.480469 C 18.613281 19.425781 18.578125 19.378906 18.507812 19.414062 C 18.453125 19.449219 18.457031 19.503906 18.492188 19.566406 L 18.667969 19.890625 L 18.441406 20.015625 "/>
</g>
</g>
<g clip-path="url(#clip25)" clip-rule="nonzero">
<g clip-path="url(#clip26)" clip-rule="nonzero">
<path style=" stroke:none;fill-rule:nonzero;fill:rgb(0%,38.823529%,65.882353%);fill-opacity:1;" d="M 19.789062 19.078125 C 19.871094 19.035156 19.847656 18.945312 19.808594 18.875 C 19.769531 18.804688 19.710938 18.738281 19.628906 18.78125 C 19.546875 18.828125 19.570312 18.914062 19.609375 18.984375 C 19.648438 19.054688 19.707031 19.125 19.789062 19.078125 Z M 19.222656 18.804688 L 19.445312 18.683594 L 19.480469 18.75 L 19.484375 18.75 C 19.492188 18.695312 19.5 18.632812 19.613281 18.574219 C 19.785156 18.480469 19.957031 18.601562 20.039062 18.753906 C 20.117188 18.894531 20.15625 19.09375 19.957031 19.203125 C 19.886719 19.242188 19.808594 19.246094 19.746094 19.214844 L 19.886719 19.472656 L 19.660156 19.597656 "/>
</g>
</g>
<g clip-path="url(#clip27)" clip-rule="nonzero">
<g clip-path="url(#clip28)" clip-rule="nonzero">
<path style=" stroke:none;fill-rule:nonzero;fill:rgb(0%,38.823529%,65.882353%);fill-opacity:1;" d="M 20.355469 18.382812 C 20.273438 18.425781 20.300781 18.515625 20.335938 18.585938 C 20.378906 18.65625 20.4375 18.722656 20.519531 18.679688 C 20.601562 18.632812 20.578125 18.546875 20.539062 18.472656 C 20.5 18.402344 20.4375 18.335938 20.355469 18.382812 Z M 20.921875 18.652344 L 20.703125 18.773438 L 20.667969 18.707031 L 20.664062 18.710938 C 20.65625 18.765625 20.644531 18.824219 20.535156 18.886719 C 20.363281 18.980469 20.191406 18.859375 20.109375 18.707031 C 20.03125 18.566406 19.992188 18.367188 20.191406 18.257812 C 20.261719 18.21875 20.339844 18.214844 20.402344 18.246094 L 20.242188 17.953125 L 20.472656 17.828125 "/>
</g>
</g>
<g clip-path="url(#clip29)" clip-rule="nonzero">
<g clip-path="url(#clip30)" clip-rule="nonzero">
<path style=" stroke:none;fill-rule:nonzero;fill:rgb(0%,38.823529%,65.882353%);fill-opacity:1;" d="M 21.105469 17.972656 C 21.015625 18.019531 21.050781 18.109375 21.085938 18.175781 C 21.121094 18.238281 21.179688 18.316406 21.265625 18.269531 C 21.351562 18.222656 21.316406 18.128906 21.28125 18.066406 C 21.25 18.003906 21.191406 17.925781 21.105469 17.972656 Z M 21.359375 18.433594 C 21.132812 18.558594 20.949219 18.464844 20.859375 18.300781 C 20.765625 18.132812 20.789062 17.929688 21.011719 17.804688 C 21.238281 17.683594 21.421875 17.773438 21.511719 17.941406 C 21.601562 18.105469 21.582031 18.3125 21.359375 18.433594 "/>
</g>
</g>
<g clip-path="url(#clip31)" clip-rule="nonzero">
<g clip-path="url(#clip32)" clip-rule="nonzero">
<path style=" stroke:none;fill-rule:nonzero;fill:rgb(0%,38.823529%,65.882353%);fill-opacity:1;" d="M 21.445312 17.589844 L 21.664062 17.46875 L 21.71875 17.5625 L 21.722656 17.5625 C 21.71875 17.46875 21.746094 17.40625 21.828125 17.359375 C 21.851562 17.347656 21.875 17.335938 21.902344 17.332031 L 22.011719 17.535156 C 21.984375 17.539062 21.960938 17.542969 21.914062 17.566406 C 21.824219 17.617188 21.804688 17.695312 21.875 17.824219 L 22.003906 18.0625 L 21.773438 18.1875 "/>
</g>
</g>
<g clip-path="url(#clip33)" clip-rule="nonzero">
<g clip-path="url(#clip34)" clip-rule="nonzero">
<path style=" stroke:none;fill-rule:nonzero;fill:rgb(0%,38.823529%,65.882353%);fill-opacity:1;" d="M 21.964844 17.304688 L 22.191406 17.179688 L 22.519531 17.777344 L 22.292969 17.902344 Z M 22.15625 17.113281 L 21.929688 17.238281 L 21.839844 17.078125 L 22.070312 16.953125 "/>
</g>
</g>
<g clip-path="url(#clip35)" clip-rule="nonzero">
<g clip-path="url(#clip36)" clip-rule="nonzero">
<path style=" stroke:none;fill-rule:nonzero;fill:rgb(0%,38.823529%,65.882353%);fill-opacity:1;" d="M 22.867188 17.238281 C 22.847656 17.265625 22.820312 17.292969 22.792969 17.316406 C 22.75 17.355469 22.730469 17.382812 22.753906 17.421875 C 22.765625 17.449219 22.8125 17.460938 22.855469 17.4375 C 22.90625 17.410156 22.929688 17.359375 22.898438 17.292969 Z M 23.160156 17.253906 C 23.1875 17.296875 23.214844 17.347656 23.261719 17.371094 L 23.03125 17.5 C 23.015625 17.484375 23 17.464844 22.992188 17.445312 L 22.988281 17.449219 C 22.96875 17.53125 22.910156 17.585938 22.835938 17.625 C 22.71875 17.6875 22.59375 17.6875 22.523438 17.558594 C 22.421875 17.371094 22.644531 17.257812 22.75 17.171875 C 22.777344 17.148438 22.804688 17.121094 22.785156 17.082031 C 22.761719 17.042969 22.714844 17.050781 22.679688 17.070312 C 22.609375 17.109375 22.613281 17.152344 22.625 17.175781 L 22.414062 17.292969 C 22.328125 17.121094 22.472656 17.007812 22.613281 16.929688 C 22.902344 16.773438 22.964844 16.890625 23.027344 17.007812 "/>
</g>
</g>
<g clip-path="url(#clip37)" clip-rule="nonzero">
<g clip-path="url(#clip38)" clip-rule="nonzero">
<path style=" stroke:none;fill-rule:nonzero;fill:rgb(0%,38.823529%,65.882353%);fill-opacity:1;" d="M 23.621094 16.988281 C 23.625 17 23.632812 17.007812 23.640625 17.015625 C 23.664062 17.035156 23.695312 17.023438 23.71875 17.011719 C 23.742188 17 23.769531 16.972656 23.753906 16.941406 C 23.742188 16.921875 23.71875 16.925781 23.632812 16.945312 C 23.554688 16.960938 23.46875 16.984375 23.421875 16.898438 C 23.367188 16.800781 23.429688 16.710938 23.515625 16.664062 C 23.609375 16.613281 23.710938 16.605469 23.769531 16.707031 L 23.644531 16.773438 C 23.640625 16.757812 23.625 16.75 23.613281 16.75 C 23.597656 16.746094 23.582031 16.753906 23.566406 16.757812 C 23.550781 16.769531 23.523438 16.789062 23.535156 16.8125 C 23.554688 16.84375 23.621094 16.816406 23.6875 16.800781 C 23.757812 16.78125 23.832031 16.777344 23.875 16.855469 C 23.9375 16.96875 23.855469 17.058594 23.761719 17.113281 C 23.710938 17.136719 23.5625 17.195312 23.488281 17.0625 "/>
</g>
</g>
<g clip-path="url(#clip39)" clip-rule="nonzero">
<g clip-path="url(#clip40)" clip-rule="nonzero">
<path style=" stroke:none;fill-rule:nonzero;fill:rgb(0%,38.823529%,65.882353%);fill-opacity:1;" d="M 23.929688 16.851562 L 24.054688 16.78125 L 24.121094 16.902344 L 23.996094 16.96875 "/>
</g>
</g>
<g clip-path="url(#clip41)" clip-rule="nonzero">
<g clip-path="url(#clip42)" clip-rule="nonzero">
<path style=" stroke:none;fill-rule:nonzero;fill:rgb(0%,38.823529%,65.882353%);fill-opacity:1;" d="M 24.3125 16.695312 C 24.355469 16.671875 24.34375 16.625 24.324219 16.589844 C 24.304688 16.550781 24.273438 16.515625 24.230469 16.539062 C 24.1875 16.5625 24.199219 16.609375 24.21875 16.644531 C 24.238281 16.683594 24.269531 16.71875 24.3125 16.695312 Z M 24.019531 16.554688 L 24.132812 16.492188 L 24.152344 16.523438 L 24.15625 16.523438 C 24.160156 16.496094 24.164062 16.464844 24.222656 16.433594 C 24.308594 16.382812 24.398438 16.449219 24.441406 16.523438 C 24.484375 16.597656 24.503906 16.703125 24.398438 16.757812 C 24.363281 16.777344 24.324219 16.78125 24.292969 16.765625 L 24.289062 16.765625 L 24.363281 16.898438 L 24.246094 16.964844 "/>
<path style=" stroke:none;fill-rule:nonzero;fill:rgb(0%,38.823529%,65.882353%);fill-opacity:1;" d="M 24.519531 16.53125 L 24.640625 16.460938 L 24.707031 16.578125 L 24.582031 16.648438 "/>
</g>
</g>
<g clip-path="url(#clip43)" clip-rule="nonzero">
<g clip-path="url(#clip44)" clip-rule="nonzero">
<path style=" stroke:none;fill-rule:nonzero;fill:rgb(0%,38.823529%,65.882353%);fill-opacity:1;" d="M 24.917969 16.265625 L 24.804688 16.15625 L 24.835938 16.3125 Z M 24.664062 16.050781 L 24.792969 15.980469 L 25.179688 16.320312 L 25.042969 16.394531 L 24.992188 16.34375 L 24.855469 16.417969 L 24.871094 16.488281 L 24.738281 16.5625 "/>
</g>
</g>
<g clip-path="url(#clip45)" clip-rule="nonzero">
<g clip-path="url(#clip46)" clip-rule="nonzero">
<path style=" stroke:none;fill-rule:nonzero;fill:rgb(0%,38.823529%,65.882353%);fill-opacity:1;" d="M 25.214844 16.300781 L 25.335938 16.234375 L 25.273438 16.117188 L 25.148438 16.183594 "/>
</g>
</g>
<g clip-path="url(#clip47)" clip-rule="nonzero">
<g clip-path="url(#clip48)" clip-rule="nonzero">
<path style="fill:none;stroke-width:1.9929;stroke-linecap:square;stroke-linejoin:miter;stroke:rgb(13.72549%,12.156863%,12.54902%);stroke-opacity:1;stroke-miterlimit:2;" d="M 348.406534 536.700199 L 375.748395 536.700199 L 375.748395 527.320185 L 375.731881 519.597087 C 375.93005 516.712622 375.186915 513.910728 374.085974 511.411593 C 373.491467 510.035417 372.561172 508.642727 371.421698 507.360132 C 371.29509 507.217009 371.162977 507.073887 371.030864 506.936269 C 368.449158 504.183918 364.942663 501.971027 361.815991 501.470099 L 361.832505 501.481109 C 355.094749 503.093987 349.391876 509.551003 348.593694 516.409864 C 348.406534 517.472271 348.373506 518.386052 348.395525 519.63562 Z M 348.406534 536.700199 " transform="matrix(0.70962,0,0,-0.70962,-238.474688,380.853445)"/>
</g>
</g>
<g clip-path="url(#clip49)" clip-rule="nonzero">
<g clip-path="url(#clip50)" clip-rule="nonzero">
<path style=" stroke:none;fill-rule:nonzero;fill:rgb(100%,100%,100%);fill-opacity:1;" d="M 18.871094 4.035156 C 19.0625 4.148438 18.789062 4.402344 19.03125 4.46875 C 19.289062 4.355469 19.644531 4.375 19.871094 4.535156 C 20.03125 4.707031 20.222656 4.886719 20.144531 5.121094 C 19.984375 5.015625 19.777344 4.941406 19.578125 5.007812 C 19.410156 5.0625 19.191406 5.148438 19.144531 5.347656 C 19.34375 5.441406 19.542969 5.273438 19.777344 5.328125 C 20.976562 5.355469 21.777344 5.761719 22.925781 5.414062 C 23.417969 5.289062 23.90625 5.148438 24.417969 5.074219 C 24.503906 5.082031 24.617188 5.148438 24.558594 5.234375 C 24.210938 5.6875 23.691406 6.015625 23.246094 6.367188 C 22.777344 6.714844 22.238281 6.980469 21.84375 7.414062 C 22.011719 7.609375 22.210938 7.808594 22.425781 7.996094 C 22.75 7.910156 22.945312 7.78125 23.285156 7.882812 C 23.859375 7.960938 24.566406 7.96875 25.078125 7.703125 L 25.210938 7.703125 C 24.71875 8.136719 24.164062 8.523438 23.625 8.902344 C 23.617188 9.296875 24.164062 9.222656 24.351562 9.488281 C 24.40625 10.128906 24.644531 10.683594 25.011719 11.183594 C 24.757812 11.308594 24.371094 10.695312 24.238281 11.230469 C 23.925781 12.050781 23.785156 12.949219 23.785156 13.902344 C 23.53125 13.757812 23.351562 13.457031 23.171875 13.222656 C 22.898438 12.976562 22.9375 12.429688 22.476562 12.410156 C 21.898438 12.324219 21.351562 12.484375 21.003906 12.976562 C 20.882812 13.242188 20.832031 13.617188 21.050781 13.863281 C 21.351562 14.304688 21.804688 14.496094 22.25 14.671875 C 22.171875 14.777344 21.964844 14.730469 21.84375 14.804688 C 21.277344 14.964844 20.730469 15.164062 20.230469 15.464844 C 19.183594 16.070312 18.089844 16.890625 17.335938 17.9375 C 17.289062 17.964844 17.269531 18.039062 17.203125 18.019531 C 17.484375 16.9375 17.503906 15.523438 16.835938 14.609375 C 16.722656 14.625 16.683594 14.757812 16.609375 14.832031 C 16.382812 15.203125 16.242188 15.605469 16.203125 16.050781 C 15.941406 16.117188 15.703125 15.945312 15.441406 15.9375 C 14.496094 15.785156 13.5625 15.625 12.628906 15.464844 C 13.035156 15.109375 13.460938 14.65625 13.855469 14.269531 L 13.78125 14.203125 C 13.375 14.277344 13.027344 14.496094 12.609375 14.542969 L 12.609375 14.382812 C 12.769531 13.964844 13.007812 13.578125 13.101562 13.136719 C 12.988281 13.050781 12.847656 13.183594 12.722656 13.203125 C 12.527344 13.324219 12.308594 13.429688 12.0625 13.429688 C 12.121094 13.183594 12.316406 12.996094 12.382812 12.75 C 12.402344 12.617188 12.628906 12.4375 12.421875 12.34375 C 12.128906 12.355469 11.875 12.46875 11.65625 12.65625 C 11.695312 12.371094 12.199219 12.136719 12.347656 11.84375 C 12.152344 11.730469 11.753906 11.851562 11.527344 11.878906 C 11.359375 11.945312 11.1875 11.980469 11.0625 12.128906 C 11.027344 12.28125 11.140625 12.5625 10.914062 12.636719 C 10.648438 12.703125 10.300781 12.722656 10.074219 12.589844 C 10.046875 12.117188 9.953125 11.675781 9.894531 11.210938 C 10.121094 11.003906 10.460938 10.976562 10.773438 11.035156 C 10.875 11.082031 11 11.097656 11.09375 11.183594 C 11.160156 11.429688 10.945312 11.722656 11.171875 11.847656 C 11.605469 11.683594 12.027344 11.699219 12.515625 11.671875 C 12.621094 11.453125 12.703125 11.136719 12.855469 10.9375 C 12.808594 10.796875 12.589844 10.695312 12.675781 10.535156 C 13.007812 10.230469 13.46875 10.25 13.875 10.308594 C 14.023438 10.136719 13.949219 9.828125 14.035156 9.601562 L 13.941406 9.535156 C 13.15625 9.628906 12.289062 9.582031 11.59375 9.402344 C 11.761719 9.242188 11.996094 9.148438 12.195312 9.015625 C 13.101562 8.441406 13.808594 7.542969 14.570312 6.800781 C 15.328125 6.640625 16.136719 6.789062 16.703125 6.234375 C 16.75 6.128906 16.628906 6.140625 16.589844 6.09375 C 16.128906 6.042969 15.808594 6.335938 15.410156 6.460938 C 15.875 6.035156 15.996094 5.109375 16.816406 5.261719 C 16.84375 5.242188 16.835938 5.214844 16.835938 5.1875 C 16.664062 5.054688 16.421875 5.160156 16.230469 5.1875 C 16.269531 5.015625 16.46875 4.828125 16.636719 4.695312 C 17.128906 4.273438 17.703125 4.054688 18.304688 3.921875 C 18.515625 3.921875 18.730469 3.894531 18.871094 4.035156 "/>
</g>
</g>
<g clip-path="url(#clip51)" clip-rule="nonzero">
<g clip-path="url(#clip52)" clip-rule="nonzero">
<path style="fill:none;stroke-width:1.92;stroke-linecap:square;stroke-linejoin:round;stroke:rgb(100%,100%,100%);stroke-opacity:1;stroke-miterlimit:2;" d="M 362.652706 531.013841 C 362.922436 530.854205 362.537107 530.496399 362.878399 530.402819 C 363.241709 530.562455 363.742637 530.534932 364.06191 530.309239 C 364.287603 530.067032 364.557333 529.813816 364.447239 529.483534 C 364.221546 529.63216 363.929797 529.73675 363.649057 529.64317 C 363.412355 529.566104 363.104092 529.445001 363.038035 529.164261 C 363.318775 529.032148 363.599515 529.26885 363.929797 529.191784 C 365.619741 529.153251 366.748205 528.580762 368.366588 529.070681 C 369.06018 529.246831 369.748268 529.445001 370.469384 529.54959 C 370.590488 529.538581 370.750124 529.445001 370.667554 529.323897 C 370.177635 528.685352 369.44551 528.222956 368.817974 527.727533 C 368.157409 527.237615 367.39776 526.863295 366.841785 526.252273 C 367.078487 525.977038 367.359227 525.696298 367.661986 525.432072 C 368.118876 525.553175 368.394111 525.734831 368.873021 525.591708 C 369.682212 525.481614 370.678563 525.470605 371.399679 525.844925 L 371.586839 525.844925 C 370.893247 525.233903 370.111579 524.688937 369.35193 524.154981 C 369.34092 523.599006 370.111579 523.703595 370.375805 523.329275 C 370.45287 522.426504 370.788657 521.644836 371.306099 520.940234 C 370.948294 520.764084 370.403328 521.628322 370.216168 520.874178 C 369.775792 519.71819 369.577623 518.452108 369.577623 517.108961 C 369.219817 517.312635 368.966601 517.736497 368.713384 518.066779 C 368.328055 518.413576 368.383102 519.184234 367.733547 519.211757 C 366.918851 519.332861 366.148193 519.107168 365.658274 518.413576 C 365.487628 518.039256 365.416067 517.510804 365.72433 517.164008 C 366.148193 516.541976 366.786738 516.272246 367.414274 516.024534 C 367.30418 515.875907 367.012431 515.941964 366.841785 515.837374 C 366.043603 515.611682 365.272945 515.330942 364.568343 514.90708 C 363.093082 514.053851 361.551765 512.897863 360.489358 511.422603 C 360.423301 511.38407 360.395778 511.27948 360.302198 511.307004 C 360.698536 512.831807 360.72606 514.824509 359.784756 516.11261 C 359.625119 516.090591 359.570072 515.903431 359.465483 515.798842 C 359.14621 515.275895 358.948041 514.70891 358.892994 514.081374 C 358.524179 513.987794 358.188392 514.230001 357.819577 514.241011 C 356.487439 514.455694 355.171814 514.681387 353.85619 514.90708 C 354.42868 515.408008 355.028692 516.046553 355.584667 516.591519 L 355.480078 516.685099 C 354.907589 516.580509 354.41767 516.272246 353.828667 516.20619 L 353.828667 516.431882 C 354.05436 517.020886 354.390147 517.565851 354.52226 518.187883 C 354.362623 518.308986 354.164454 518.121826 353.988303 518.094303 C 353.713068 517.923657 353.404805 517.77503 353.058008 517.77503 C 353.140579 518.121826 353.415814 518.386052 353.509394 518.732848 C 353.536918 518.920008 353.85619 519.173225 353.564441 519.305337 C 353.151588 519.288823 352.793783 519.129187 352.485519 518.864961 C 352.540566 519.266804 353.250673 519.597087 353.459852 520.009939 C 353.184617 520.169576 352.623137 519.99893 352.303864 519.960397 C 352.067162 519.866817 351.824955 519.817275 351.648804 519.608096 C 351.599262 519.393413 351.758899 518.997074 351.439626 518.892485 C 351.065306 518.798905 350.575387 518.771381 350.256115 518.958541 C 350.217582 519.62461 350.085469 520.246642 350.002898 520.901701 C 350.322171 521.193451 350.80108 521.231984 351.241456 521.149413 C 351.384579 521.083357 351.560729 521.061338 351.692842 520.940234 C 351.786422 520.593438 351.483663 520.180585 351.802936 520.004435 C 352.413958 520.235632 353.008466 520.213613 353.696554 520.252146 C 353.845181 520.56041 353.96078 521.006291 354.175463 521.287031 C 354.109407 521.4852 353.801143 521.628322 353.922247 521.854015 C 354.390147 522.283382 355.039702 522.255858 355.612191 522.173288 C 355.821369 522.415495 355.71678 522.850366 355.837884 523.169639 L 355.705771 523.263219 C 354.599325 523.131106 353.377281 523.197163 352.397444 523.450379 C 352.634146 523.676072 352.964429 523.808185 353.245168 523.995344 C 354.52226 524.804536 355.518611 526.070618 356.592028 527.116511 C 357.65994 527.342204 358.799414 527.133025 359.597596 527.914693 C 359.663652 528.06332 359.493006 528.046806 359.437959 528.112862 C 358.788404 528.184424 358.337019 527.771571 357.775539 527.59542 C 358.430599 528.195433 358.601245 529.500048 359.757232 529.285364 C 359.795765 529.312888 359.784756 529.351421 359.784756 529.389954 C 359.542549 529.577113 359.201257 529.428486 358.931527 529.389954 C 358.986574 529.63216 359.267314 529.896386 359.504016 530.083546 C 360.197608 530.678054 361.0068 530.986317 361.854524 531.173477 C 362.151778 531.173477 362.454537 531.21201 362.652706 531.013841 Z M 362.652706 531.013841 " transform="matrix(0.70962,0,0,-0.70962,-238.474688,380.853445)"/>
</g>
</g>
<g clip-path="url(#clip53)" clip-rule="nonzero">
<g clip-path="url(#clip54)" clip-rule="nonzero">
<path style=" stroke:none;fill-rule:nonzero;fill:rgb(13.72549%,12.156863%,12.54902%);fill-opacity:1;" d="M 18.871094 4.035156 C 19.0625 4.148438 18.789062 4.402344 19.03125 4.46875 C 19.289062 4.355469 19.644531 4.375 19.871094 4.535156 C 20.03125 4.707031 20.222656 4.886719 20.144531 5.121094 C 19.984375 5.015625 19.777344 4.941406 19.578125 5.007812 C 19.410156 5.0625 19.191406 5.148438 19.144531 5.347656 C 19.34375 5.441406 19.542969 5.273438 19.777344 5.328125 C 20.976562 5.355469 21.777344 5.761719 22.925781 5.414062 C 23.417969 5.289062 23.90625 5.148438 24.417969 5.074219 C 24.503906 5.082031 24.617188 5.148438 24.558594 5.234375 C 24.210938 5.6875 23.691406 6.015625 23.246094 6.367188 C 22.777344 6.714844 22.238281 6.980469 21.84375 7.414062 C 22.011719 7.609375 22.210938 7.808594 22.425781 7.996094 C 22.75 7.910156 22.945312 7.78125 23.285156 7.882812 C 23.859375 7.960938 24.566406 7.96875 25.078125 7.703125 L 25.210938 7.703125 C 24.71875 8.136719 24.164062 8.523438 23.625 8.902344 C 23.617188 9.296875 24.164062 9.222656 24.351562 9.488281 C 24.40625 10.128906 24.644531 10.683594 25.011719 11.183594 C 24.757812 11.308594 24.371094 10.695312 24.238281 11.230469 C 23.925781 12.050781 23.785156 12.949219 23.785156 13.902344 C 23.53125 13.757812 23.351562 13.457031 23.171875 13.222656 C 22.898438 12.976562 22.9375 12.429688 22.476562 12.410156 C 21.898438 12.324219 21.351562 12.484375 21.003906 12.976562 C 20.882812 13.242188 20.832031 13.617188 21.050781 13.863281 C 21.351562 14.304688 21.804688 14.496094 22.25 14.671875 C 22.171875 14.777344 21.964844 14.730469 21.84375 14.804688 C 21.277344 14.964844 20.730469 15.164062 20.230469 15.464844 C 19.183594 16.070312 18.089844 16.890625 17.335938 17.9375 C 17.289062 17.964844 17.269531 18.039062 17.203125 18.019531 C 17.484375 16.9375 17.503906 15.523438 16.835938 14.609375 C 16.722656 14.625 16.683594 14.757812 16.609375 14.832031 C 16.382812 15.203125 16.242188 15.605469 16.203125 16.050781 C 15.941406 16.117188 15.703125 15.945312 15.441406 15.9375 C 14.496094 15.785156 13.5625 15.625 12.628906 15.464844 C 13.035156 15.109375 13.460938 14.65625 13.855469 14.269531 L 13.78125 14.203125 C 13.375 14.277344 13.027344 14.496094 12.609375 14.542969 L 12.609375 14.382812 C 12.769531 13.964844 13.007812 13.578125 13.101562 13.136719 C 12.988281 13.050781 12.847656 13.183594 12.722656 13.203125 C 12.527344 13.324219 12.308594 13.429688 12.0625 13.429688 C 12.121094 13.183594 12.316406 12.996094 12.382812 12.75 C 12.402344 12.617188 12.628906 12.4375 12.421875 12.34375 C 12.128906 12.355469 11.875 12.46875 11.65625 12.65625 C 11.695312 12.371094 12.199219 12.136719 12.347656 11.84375 C 12.152344 11.730469 11.753906 11.851562 11.527344 11.878906 C 11.359375 11.945312 11.1875 11.980469 11.0625 12.128906 C 11.027344 12.28125 11.140625 12.5625 10.914062 12.636719 C 10.648438 12.703125 10.300781 12.722656 10.074219 12.589844 C 10.046875 12.117188 9.953125 11.675781 9.894531 11.210938 C 10.121094 11.003906 10.460938 10.976562 10.773438 11.035156 C 10.875 11.082031 11 11.097656 11.09375 11.183594 C 11.160156 11.429688 10.945312 11.722656 11.171875 11.847656 C 11.605469 11.683594 12.027344 11.699219 12.515625 11.671875 C 12.621094 11.453125 12.703125 11.136719 12.855469 10.9375 C 12.808594 10.796875 12.589844 10.695312 12.675781 10.535156 C 13.007812 10.230469 13.46875 10.25 13.875 10.308594 C 14.023438 10.136719 13.949219 9.828125 14.035156 9.601562 L 13.941406 9.535156 C 13.15625 9.628906 12.289062 9.582031 11.59375 9.402344 C 11.761719 9.242188 11.996094 9.148438 12.195312 9.015625 C 13.101562 8.441406 13.808594 7.542969 14.570312 6.800781 C 15.328125 6.640625 16.136719 6.789062 16.703125 6.234375 C 16.75 6.128906 16.628906 6.140625 16.589844 6.09375 C 16.128906 6.042969 15.808594 6.335938 15.410156 6.460938 C 15.875 6.035156 15.996094 5.109375 16.816406 5.261719 C 16.84375 5.242188 16.835938 5.214844 16.835938 5.1875 C 16.664062 5.054688 16.421875 5.160156 16.230469 5.1875 C 16.269531 5.015625 16.46875 4.828125 16.636719 4.695312 C 17.128906 4.273438 17.703125 4.054688 18.304688 3.921875 C 18.515625 3.921875 18.730469 3.894531 18.871094 4.035156 "/>
</g>
</g>
<g clip-path="url(#clip55)" clip-rule="nonzero">
<g clip-path="url(#clip56)" clip-rule="nonzero">
<path style=" stroke:none;fill-rule:nonzero;fill:rgb(13.72549%,12.156863%,12.54902%);fill-opacity:1;" d="M 12.417969 11.878906 C 12.222656 11.695312 11.753906 11.851562 11.527344 11.878906 C 11.359375 11.945312 11.1875 11.980469 11.0625 12.128906 C 11.027344 12.28125 11.140625 12.5625 10.914062 12.636719 C 10.648438 12.703125 10.300781 12.722656 10.074219 12.589844 C 10.046875 12.117188 9.953125 11.675781 9.894531 11.210938 C 10.121094 11.003906 10.460938 10.976562 10.773438 11.035156 C 10.875 11.082031 11 11.097656 11.09375 11.183594 C 11.160156 11.429688 10.945312 11.722656 11.171875 11.847656 C 11.589844 11.691406 12.25 11.679688 12.722656 11.648438 "/>
</g>
</g>
</g>
</svg>
