<?xml version="1.0" encoding="UTF-8"?>
<svg xmlns="http://www.w3.org/2000/svg" xmlns:xlink="http://www.w3.org/1999/xlink" width="35pt" height="25pt" viewBox="0 0 35 25" version="1.1">
<g id="surface1">
<path style=" stroke:none;fill-rule:nonzero;fill:rgb(65.490196%,64.705882%,65.098039%);fill-opacity:1;" d="M 21.097656 0.238281 L 21.304688 0 C 21.644531 0.488281 22.046875 1.285156 22.558594 1.585938 C 23.027344 1.859375 23.941406 2.132812 25.898438 2.140625 L 26.203125 2.140625 L 27.40625 3.742188 C 26.667969 5.011719 25.984375 6.65625 25.984375 8.160156 C 25.984375 8.558594 26.050781 9.101562 26.257812 9.792969 L 27.511719 10.144531 L 27.226562 10.71875 L 28.152344 11.136719 L 27.683594 11.761719 L 28.5625 12.425781 L 27.671875 13.097656 C 28.011719 13.984375 28.441406 15.375 28.441406 16.511719 C 28.441406 20.488281 25.214844 21.910156 19.070312 22.949219 L 19.507812 24.457031 L 17.871094 23.753906 L 16.726562 25 L 16.226562 23.722656 L 14.285156 24.308594 L 14.804688 22.875 C 8.953125 21.839844 5.871094 20.394531 5.871094 16.511719 C 5.871094 15.375 6.300781 13.984375 6.640625 13.097656 L 5.75 12.425781 L 6.628906 11.761719 L 6.160156 11.136719 L 7.085938 10.71875 L 6.800781 10.144531 L 8.054688 9.792969 C 8.261719 9.101562 8.328125 8.558594 8.328125 8.160156 C 8.328125 6.65625 7.640625 5.011719 6.910156 3.742188 L 8.109375 2.140625 L 8.414062 2.140625 C 9.46875 2.136719 11.519531 2.109375 12.214844 1.175781 C 12.5 0.800781 12.738281 0.386719 13.007812 0 C 14.179688 1.363281 15.15625 2.273438 17.074219 2.304688 L 17.234375 2.296875 C 18.960938 2.28125 19.992188 1.527344 21.097656 0.238281 "/>
<path style=" stroke:none;fill-rule:nonzero;fill:rgb(13.72549%,12.156863%,12.54902%);fill-opacity:1;" d="M 17.242188 2.972656 C 18.886719 2.957031 20.222656 2.261719 21.253906 1.0625 C 21.703125 1.710938 21.914062 2.804688 25.894531 2.816406 L 26.675781 3.855469 C 26.675781 3.855469 25.371094 6.101562 25.371094 8.226562 C 25.371094 8.757812 25.476562 9.472656 25.773438 10.359375 L 26.640625 10.601562 L 26.40625 11.082031 L 27.210938 11.445312 L 26.835938 11.949219 L 27.554688 12.492188 L 26.9375 12.960938 C 27.273438 13.757812 27.832031 15.363281 27.832031 16.578125 C 27.832031 20.121094 24.996094 21.460938 18.296875 22.53125 L 18.5625 23.457031 L 17.714844 23.09375 L 16.9375 23.9375 L 16.589844 23.046875 L 15.269531 23.445312 L 15.628906 22.46875 C 9.203125 21.410156 6.480469 20.054688 6.480469 16.578125 C 6.480469 15.363281 7.039062 13.757812 7.375 12.960938 L 6.757812 12.492188 L 7.476562 11.949219 L 7.101562 11.445312 L 7.90625 11.082031 L 7.671875 10.601562 L 8.539062 10.359375 C 8.832031 9.472656 8.9375 8.757812 8.9375 8.226562 C 8.9375 6.101562 7.636719 3.855469 7.636719 3.855469 L 8.417969 2.816406 C 12.398438 2.804688 12.609375 1.710938 13.058594 1.0625 C 14.089844 2.261719 15.425781 2.957031 17.070312 2.976562 L 17.242188 2.972656 "/>
<path style=" stroke:none;fill-rule:nonzero;fill:rgb(100%,100%,100%);fill-opacity:1;" d="M 17.878906 19.898438 L 18.617188 19.5625 L 18.589844 17.6875 L 17.894531 17.292969 L 16.300781 18.285156 L 16.355469 18.972656 L 17.878906 19.898438 "/>
<path style=" stroke:none;fill-rule:nonzero;fill:rgb(100%,100%,100%);fill-opacity:1;" d="M 14.886719 17.542969 L 14.945312 15.679688 L 14.550781 15.460938 C 14.066406 16.039062 13.773438 16.785156 13.773438 17.597656 C 13.773438 17.667969 13.777344 17.738281 13.78125 17.808594 L 14.574219 17.902344 L 14.886719 17.542969 "/>
<path style=" stroke:none;fill-rule:nonzero;fill:rgb(100%,100%,100%);fill-opacity:1;" d="M 16.257812 15.296875 L 15.433594 15.617188 L 15.378906 17.410156 L 16.035156 17.878906 L 17.582031 16.914062 L 17.523438 15.988281 L 16.257812 15.296875 "/>
<path style=" stroke:none;fill-rule:nonzero;fill:rgb(100%,100%,100%);fill-opacity:1;" d="M 14.90625 20.101562 L 15.101562 19.355469 L 14.46875 18.378906 L 13.851562 18.304688 C 14.003906 19.011719 14.382812 19.636719 14.90625 20.101562 "/>
<path style=" stroke:none;fill-rule:nonzero;fill:rgb(100%,100%,100%);fill-opacity:1;" d="M 20.496094 17.597656 C 20.496094 17.472656 20.488281 17.351562 20.476562 17.234375 L 19.75 17.144531 L 19.078125 17.652344 L 19.101562 19.558594 L 19.652344 19.8125 C 20.179688 19.222656 20.496094 18.449219 20.496094 17.597656 "/>
<path style=" stroke:none;fill-rule:nonzero;fill:rgb(100%,100%,100%);fill-opacity:1;" d="M 18.902344 14.753906 C 18.390625 14.4375 17.785156 14.253906 17.136719 14.253906 C 17.046875 14.253906 16.957031 14.257812 16.867188 14.265625 L 16.652344 14.960938 L 17.890625 15.636719 L 18.75 15.636719 L 18.902344 14.753906 "/>
<path style=" stroke:none;fill-rule:nonzero;fill:rgb(100%,100%,100%);fill-opacity:1;" d="M 20.382812 16.738281 C 20.210938 16.082031 19.839844 15.507812 19.34375 15.074219 L 19.210938 15.835938 L 19.761719 16.660156 L 20.382812 16.738281 "/>
<path style=" stroke:none;fill-rule:nonzero;fill:rgb(100%,100%,100%);fill-opacity:1;" d="M 17.625 20.90625 L 17.65625 20.328125 L 16.082031 19.375 L 15.574219 19.476562 L 15.332031 20.417969 C 15.851562 20.75 16.472656 20.941406 17.136719 20.941406 C 17.300781 20.941406 17.464844 20.929688 17.625 20.90625 "/>
<path style=" stroke:none;fill-rule:nonzero;fill:rgb(100%,100%,100%);fill-opacity:1;" d="M 12.019531 5.871094 C 12.132812 5.871094 12.222656 5.78125 12.222656 5.667969 C 12.222656 5.554688 12.132812 5.464844 12.019531 5.464844 C 11.90625 5.464844 11.816406 5.554688 11.816406 5.667969 C 11.816406 5.78125 11.90625 5.871094 12.019531 5.871094 "/>
<path style=" stroke:none;fill-rule:nonzero;fill:rgb(100%,100%,100%);fill-opacity:1;" d="M 11.574219 4.570312 C 11.460938 4.570312 11.367188 4.660156 11.367188 4.773438 C 11.367188 4.878906 11.453125 4.964844 11.554688 4.976562 C 11.589844 4.863281 11.667969 4.773438 11.769531 4.722656 C 11.746094 4.632812 11.667969 4.570312 11.574219 4.570312 "/>
<path style=" stroke:none;fill-rule:nonzero;fill:rgb(100%,100%,100%);fill-opacity:1;" d="M 15.5 5.949219 C 15.5 6.0625 15.589844 6.152344 15.703125 6.152344 C 15.816406 6.152344 15.910156 6.0625 15.910156 5.949219 C 15.910156 5.835938 15.816406 5.746094 15.703125 5.746094 C 15.589844 5.746094 15.5 5.835938 15.5 5.949219 "/>
<path style=" stroke:none;fill-rule:nonzero;fill:rgb(100%,100%,100%);fill-opacity:1;" d="M 11.148438 8.890625 L 12.429688 8.890625 C 12.421875 8.441406 12.320312 7.382812 11.769531 7.382812 C 11.234375 7.382812 11.15625 8.304688 11.148438 8.890625 "/>
<path style=" stroke:none;fill-rule:nonzero;fill:rgb(100%,100%,100%);fill-opacity:1;" d="M 15.601562 5.011719 C 15.488281 5.011719 15.398438 5.105469 15.398438 5.214844 C 15.398438 5.328125 15.488281 5.417969 15.601562 5.417969 C 15.714844 5.417969 15.804688 5.328125 15.804688 5.214844 C 15.804688 5.105469 15.714844 5.011719 15.601562 5.011719 "/>
<path style=" stroke:none;fill-rule:nonzero;fill:rgb(100%,100%,100%);fill-opacity:1;" d="M 11.191406 5.109375 C 11.191406 4.996094 11.101562 4.90625 10.988281 4.90625 C 10.875 4.90625 10.785156 4.996094 10.785156 5.109375 C 10.785156 5.222656 10.875 5.3125 10.988281 5.3125 C 11.101562 5.3125 11.191406 5.222656 11.191406 5.109375 "/>
<path style=" stroke:none;fill-rule:nonzero;fill:rgb(100%,100%,100%);fill-opacity:1;" d="M 12.429688 9.011719 L 11.148438 9.011719 C 11.148438 9.097656 11.148438 9.171875 11.148438 9.230469 C 11.148438 9.511719 11.160156 9.683594 11.167969 9.785156 L 12.429688 9.785156 L 12.429688 9.011719 "/>
<path style=" stroke:none;fill-rule:nonzero;fill:rgb(100%,100%,100%);fill-opacity:1;" d="M 10.679688 5.84375 C 10.679688 5.957031 10.773438 6.046875 10.886719 6.046875 C 11 6.046875 11.089844 5.957031 11.089844 5.84375 C 11.089844 5.730469 11 5.640625 10.886719 5.640625 C 10.773438 5.640625 10.679688 5.730469 10.679688 5.84375 "/>
<path style=" stroke:none;fill-rule:nonzero;fill:rgb(100%,100%,100%);fill-opacity:1;" d="M 11.488281 6.265625 C 11.601562 6.265625 11.695312 6.175781 11.695312 6.0625 C 11.695312 5.949219 11.601562 5.859375 11.488281 5.859375 C 11.375 5.859375 11.285156 5.949219 11.285156 6.0625 C 11.285156 6.175781 11.375 6.265625 11.488281 6.265625 "/>
<path style=" stroke:none;fill-rule:nonzero;fill:rgb(100%,100%,100%);fill-opacity:1;" d="M 11.28125 5.703125 C 11.339844 5.667969 11.414062 5.644531 11.488281 5.644531 C 11.527344 5.644531 11.566406 5.652344 11.601562 5.660156 C 11.601562 5.566406 11.636719 5.480469 11.6875 5.410156 C 11.621094 5.355469 11.570312 5.277344 11.550781 5.1875 C 11.496094 5.183594 11.449219 5.171875 11.402344 5.152344 C 11.386719 5.316406 11.277344 5.449219 11.125 5.503906 C 11.195312 5.550781 11.25 5.621094 11.28125 5.703125 "/>
<path style=" stroke:none;fill-rule:nonzero;fill:rgb(100%,100%,100%);fill-opacity:1;" d="M 11.957031 5.296875 C 12.070312 5.296875 12.164062 5.203125 12.164062 5.09375 C 12.164062 4.980469 12.070312 4.890625 11.957031 4.890625 C 11.84375 4.890625 11.753906 4.980469 11.753906 5.09375 C 11.753906 5.203125 11.84375 5.296875 11.957031 5.296875 "/>
<path style=" stroke:none;fill-rule:nonzero;fill:rgb(100%,100%,100%);fill-opacity:1;" d="M 15.183594 5.257812 C 15.140625 5.28125 15.089844 5.292969 15.039062 5.292969 C 15.019531 5.382812 14.96875 5.460938 14.898438 5.519531 C 14.953125 5.585938 14.988281 5.675781 14.988281 5.769531 C 15.023438 5.757812 15.0625 5.753906 15.101562 5.753906 C 15.175781 5.753906 15.25 5.773438 15.308594 5.808594 C 15.339844 5.726562 15.394531 5.65625 15.464844 5.609375 C 15.3125 5.558594 15.203125 5.421875 15.183594 5.257812 "/>
<path style=" stroke:none;fill-rule:nonzero;fill:rgb(100%,100%,100%);fill-opacity:1;" d="M 14.183594 9.785156 L 15.566406 9.785156 L 15.570312 9.242188 C 15.570312 9.179688 15.574219 9.101562 15.570312 9.011719 L 14.203125 9.011719 L 14.183594 9.785156 "/>
<path style=" stroke:none;fill-rule:nonzero;fill:rgb(100%,100%,100%);fill-opacity:1;" d="M 13.296875 6.539062 C 12.773438 6.539062 12.636719 7.507812 12.621094 7.921875 L 12.613281 8.234375 C 12.65625 8.476562 12.671875 8.710938 12.675781 8.890625 L 13.960938 8.890625 C 13.960938 8.78125 13.972656 8.65625 13.988281 8.523438 C 13.960938 7.925781 13.820312 6.539062 13.296875 6.539062 "/>
<path style=" stroke:none;fill-rule:nonzero;fill:rgb(100%,100%,100%);fill-opacity:1;" d="M 13.957031 9.011719 L 12.675781 9.011719 L 12.675781 9.785156 L 13.941406 9.785156 L 13.957031 9.011719 "/>
<path style=" stroke:none;fill-rule:nonzero;fill:rgb(100%,100%,100%);fill-opacity:1;" d="M 13.210938 2.671875 C 12.273438 3.699219 10.390625 3.828125 9.027344 3.878906 C 9.027344 3.878906 10.035156 6.226562 10.035156 8.097656 C 10.035156 8.6875 9.953125 9.25 9.816406 9.785156 L 10.925781 9.785156 C 10.914062 9.671875 10.90625 9.492188 10.90625 9.230469 C 10.90625 8.621094 10.871094 7.140625 11.769531 7.140625 C 11.800781 7.140625 11.835938 7.144531 11.867188 7.148438 L 11.796875 6.996094 L 11.171875 6.886719 L 11.1875 6.65625 L 11.773438 6.617188 L 11.726562 6.40625 C 11.660156 6.453125 11.578125 6.480469 11.488281 6.480469 C 11.308594 6.480469 11.152344 6.363281 11.09375 6.203125 C 11.035156 6.238281 10.960938 6.257812 10.886719 6.257812 C 10.65625 6.257812 10.46875 6.074219 10.46875 5.84375 C 10.46875 5.660156 10.585938 5.507812 10.746094 5.449219 C 10.640625 5.375 10.570312 5.25 10.570312 5.109375 C 10.570312 4.878906 10.757812 4.691406 10.988281 4.691406 C 11.046875 4.691406 11.105469 4.707031 11.15625 4.726562 C 11.179688 4.519531 11.355469 4.355469 11.574219 4.355469 C 11.773438 4.355469 11.9375 4.492188 11.980469 4.675781 C 12.203125 4.6875 12.375 4.871094 12.375 5.09375 C 12.375 5.1875 12.34375 5.277344 12.289062 5.347656 C 12.378906 5.425781 12.4375 5.539062 12.4375 5.667969 C 12.4375 5.863281 12.304688 6.027344 12.121094 6.070312 L 12.402344 6.425781 L 12.574219 6.015625 L 12.800781 6.046875 L 12.734375 6.6875 C 12.863281 6.511719 13.042969 6.296875 13.296875 6.296875 C 13.539062 6.296875 13.71875 6.539062 13.851562 6.769531 L 13.789062 6.15625 L 14.015625 6.121094 L 14.1875 6.535156 L 14.46875 6.179688 C 14.285156 6.132812 14.152344 5.96875 14.152344 5.773438 C 14.152344 5.644531 14.210938 5.53125 14.300781 5.453125 C 14.246094 5.382812 14.214844 5.296875 14.214844 5.199219 C 14.214844 4.976562 14.386719 4.796875 14.609375 4.785156 C 14.652344 4.597656 14.816406 4.460938 15.015625 4.460938 C 15.234375 4.460938 15.410156 4.625 15.433594 4.835938 C 15.484375 4.8125 15.542969 4.800781 15.601562 4.800781 C 15.832031 4.800781 16.019531 4.984375 16.019531 5.214844 C 16.019531 5.355469 15.949219 5.480469 15.84375 5.554688 C 16.003906 5.613281 16.121094 5.769531 16.121094 5.949219 C 16.121094 6.179688 15.933594 6.367188 15.703125 6.367188 C 15.628906 6.367188 15.554688 6.34375 15.496094 6.308594 C 15.4375 6.46875 15.28125 6.585938 15.101562 6.585938 C 15.011719 6.585938 14.929688 6.558594 14.863281 6.511719 L 14.816406 6.722656 L 15.402344 6.765625 L 15.417969 6.996094 L 14.792969 7.101562 L 14.730469 7.242188 C 14.804688 7.21875 14.886719 7.203125 14.972656 7.203125 C 15.839844 7.203125 15.816406 8.652344 15.816406 9.242188 L 15.8125 9.785156 L 16.488281 9.785156 C 16.488281 9.785156 16.488281 5.324219 16.488281 4 C 15.261719 3.890625 14.164062 3.515625 13.210938 2.671875 "/>
<path style=" stroke:none;fill-rule:nonzero;fill:rgb(100%,100%,100%);fill-opacity:1;" d="M 15.570312 8.890625 C 15.558594 8.324219 15.480469 7.449219 14.972656 7.449219 C 14.363281 7.449219 14.214844 8.414062 14.203125 8.890625 L 15.570312 8.890625 "/>
<path style=" stroke:none;fill-rule:nonzero;fill:rgb(100%,100%,100%);fill-opacity:1;" d="M 14.894531 6.167969 C 14.894531 6.28125 14.988281 6.371094 15.101562 6.371094 C 15.214844 6.371094 15.304688 6.28125 15.304688 6.167969 C 15.304688 6.058594 15.214844 5.964844 15.101562 5.964844 C 14.988281 5.964844 14.894531 6.058594 14.894531 6.167969 "/>
<path style=" stroke:none;fill-rule:nonzero;fill:rgb(100%,100%,100%);fill-opacity:1;" d="M 15.015625 4.675781 C 14.921875 4.675781 14.839844 4.738281 14.816406 4.828125 C 14.921875 4.878906 15 4.96875 15.03125 5.082031 C 15.136719 5.074219 15.21875 4.984375 15.21875 4.878906 C 15.21875 4.765625 15.128906 4.675781 15.015625 4.675781 "/>
<path style=" stroke:none;fill-rule:nonzero;fill:rgb(100%,100%,100%);fill-opacity:1;" d="M 14.367188 5.773438 C 14.367188 5.886719 14.457031 5.976562 14.570312 5.976562 C 14.683594 5.976562 14.773438 5.886719 14.773438 5.773438 C 14.773438 5.660156 14.683594 5.570312 14.570312 5.570312 C 14.457031 5.570312 14.367188 5.660156 14.367188 5.773438 "/>
<path style=" stroke:none;fill-rule:nonzero;fill:rgb(100%,100%,100%);fill-opacity:1;" d="M 14.632812 4.996094 C 14.519531 4.996094 14.425781 5.085938 14.425781 5.199219 C 14.425781 5.265625 14.460938 5.324219 14.507812 5.363281 L 14.570312 5.359375 C 14.621094 5.359375 14.671875 5.367188 14.714844 5.382812 C 14.785156 5.351562 14.835938 5.28125 14.835938 5.199219 C 14.835938 5.085938 14.742188 4.996094 14.632812 4.996094 "/>
<path style=" stroke:none;fill-rule:nonzero;fill:rgb(20%,71.372549%,35.686275%);fill-opacity:1;" d="M 24.683594 9.828125 C 24.539062 9.277344 24.453125 8.703125 24.453125 8.097656 C 24.453125 6.226562 25.464844 3.878906 25.464844 3.878906 C 24.855469 3.855469 24.148438 3.816406 23.464844 3.691406 L 23.464844 9.828125 L 24.683594 9.828125 "/>
<path style=" stroke:none;fill-rule:nonzero;fill:rgb(20%,71.372549%,35.686275%);fill-opacity:1;" d="M 26.925781 16.539062 C 26.925781 15.59375 26.671875 14.714844 26.324219 13.851562 L 24.140625 13.851562 L 24.140625 20.101562 C 25.765625 19.429688 26.925781 18.40625 26.925781 16.539062 "/>
<path style=" stroke:none;fill-rule:nonzero;fill:rgb(20%,71.372549%,35.686275%);fill-opacity:1;" d="M 24.90625 10.558594 L 9.582031 10.558594 C 9.273438 11.445312 8.855469 12.285156 8.476562 13.125 L 26.011719 13.125 C 25.636719 12.285156 25.214844 11.445312 24.90625 10.558594 "/>
<path style=" stroke:none;fill-rule:nonzero;fill:rgb(20%,71.372549%,35.686275%);fill-opacity:1;" d="M 8.164062 13.855469 C 7.816406 14.714844 7.5625 15.59375 7.5625 16.539062 C 7.5625 18.28125 8.574219 19.285156 10.023438 19.960938 L 10.023438 13.855469 L 8.164062 13.855469 "/>
<path style=" stroke:none;fill-rule:nonzero;fill:rgb(20%,71.372549%,35.686275%);fill-opacity:1;" d="M 21.894531 9.828125 L 21.894531 3.160156 C 21.664062 3.027344 21.453125 2.867188 21.277344 2.671875 C 21.085938 2.839844 20.890625 2.988281 20.691406 3.121094 L 20.691406 9.828125 L 21.894531 9.828125 "/>
<path style=" stroke:none;fill-rule:nonzero;fill:rgb(20%,71.372549%,35.686275%);fill-opacity:1;" d="M 19.179688 9.828125 L 19.179688 3.796875 C 18.792969 3.902344 18.390625 3.964844 17.972656 4 L 17.972656 9.828125 L 19.179688 9.828125 "/>
<path style=" stroke:none;fill-rule:nonzero;fill:rgb(20%,71.372549%,35.686275%);fill-opacity:1;" d="M 13.085938 13.851562 L 13.085938 20.925781 C 13.90625 21.117188 14.742188 21.289062 15.539062 21.484375 L 15.683594 20.871094 C 14.421875 20.316406 13.539062 19.058594 13.539062 17.597656 C 13.539062 15.621094 15.148438 14.019531 17.136719 14.019531 C 19.121094 14.019531 20.730469 15.621094 20.730469 17.597656 C 20.730469 19.160156 19.722656 20.488281 18.316406 20.976562 L 18.503906 21.597656 C 19.328125 21.382812 20.199219 21.199219 21.0625 21.003906 L 21.0625 13.851562 L 13.085938 13.851562 "/>
<path style=" stroke:none;fill-rule:nonzero;fill:rgb(100%,100%,100%);fill-opacity:1;" d="M 11.660156 11.023438 L 11.28125 11.023438 L 11.28125 12.136719 L 11.136719 12.136719 C 11.066406 12.136719 10.859375 12.136719 10.859375 11.867188 C 10.859375 11.5625 11.046875 11.207031 11.132812 11.023438 L 10.722656 11.023438 C 10.589844 11.289062 10.472656 11.570312 10.472656 11.871094 C 10.472656 12.203125 10.621094 12.460938 11.046875 12.460938 L 11.660156 12.460938 Z M 11.875 12.136719 L 12.195312 12.136719 L 12.195312 12.460938 L 11.875 12.460938 Z M 13.144531 11.023438 L 12.738281 11.023438 C 12.417969 11.023438 12.347656 11.226562 12.347656 11.355469 C 12.347656 11.5 12.433594 11.601562 12.523438 11.703125 L 12.78125 11.992188 C 12.808594 12.019531 12.84375 12.050781 12.84375 12.089844 C 12.84375 12.148438 12.738281 12.136719 12.703125 12.136719 L 12.359375 12.136719 L 12.449219 12.460938 L 12.886719 12.460938 C 13.207031 12.460938 13.277344 12.257812 13.277344 12.128906 C 13.277344 11.988281 13.1875 11.886719 13.097656 11.785156 L 12.835938 11.496094 C 12.808594 11.46875 12.773438 11.4375 12.773438 11.394531 C 12.773438 11.339844 12.875 11.347656 12.914062 11.347656 L 13.230469 11.347656 Z M 13.398438 12.136719 L 13.714844 12.136719 L 13.714844 12.460938 L 13.398438 12.460938 Z M 15.285156 11.023438 L 14.878906 11.023438 C 14.558594 11.023438 14.488281 11.226562 14.488281 11.355469 C 14.488281 11.5 14.574219 11.601562 14.664062 11.703125 L 14.921875 11.992188 C 14.949219 12.019531 14.984375 12.050781 14.984375 12.089844 C 14.984375 12.148438 14.878906 12.136719 14.84375 12.136719 L 14.5 12.136719 L 14.589844 12.460938 L 15.027344 12.460938 C 15.347656 12.460938 15.417969 12.257812 15.417969 12.128906 C 15.417969 11.988281 15.332031 11.886719 15.238281 11.785156 L 14.976562 11.496094 C 14.949219 11.46875 14.914062 11.4375 14.914062 11.394531 C 14.914062 11.339844 15.015625 11.347656 15.054688 11.347656 L 15.371094 11.347656 Z M 16.65625 11.453125 L 16.277344 11.453125 L 16.277344 11.683594 L 15.902344 11.683594 C 15.949219 11.558594 16.019531 11.347656 16.421875 11.347656 L 16.71875 11.347656 L 16.632812 11.023438 L 16.445312 11.023438 C 16.175781 11.023438 15.9375 11.058594 15.738281 11.261719 C 15.554688 11.4375 15.476562 11.699219 15.476562 11.949219 C 15.476562 12.203125 15.5625 12.457031 15.703125 12.664062 L 16.007812 12.460938 C 15.925781 12.324219 15.867188 12.167969 15.863281 12.007812 L 16.277344 12.007812 L 16.277344 12.460938 L 16.65625 12.460938 Z M 17.621094 11.023438 L 17.210938 11.023438 C 16.894531 11.023438 16.824219 11.226562 16.824219 11.355469 C 16.824219 11.5 16.910156 11.601562 17 11.703125 L 17.257812 11.992188 C 17.285156 12.019531 17.320312 12.050781 17.320312 12.089844 C 17.320312 12.148438 17.214844 12.136719 17.179688 12.136719 L 16.835938 12.136719 L 16.921875 12.460938 L 17.363281 12.460938 C 17.679688 12.460938 17.753906 12.257812 17.753906 12.128906 C 17.753906 11.988281 17.664062 11.886719 17.574219 11.785156 L 17.3125 11.496094 C 17.285156 11.46875 17.25 11.4375 17.25 11.394531 C 17.25 11.339844 17.351562 11.347656 17.390625 11.347656 L 17.707031 11.347656 Z M 18.609375 11.023438 L 18.203125 11.023438 C 17.886719 11.023438 17.8125 11.226562 17.8125 11.355469 C 17.8125 11.5 17.902344 11.601562 17.992188 11.703125 L 18.246094 11.992188 C 18.273438 12.019531 18.308594 12.050781 18.308594 12.089844 C 18.308594 12.148438 18.207031 12.136719 18.167969 12.136719 L 17.824219 12.136719 L 17.914062 12.460938 L 18.355469 12.460938 C 18.671875 12.460938 18.746094 12.257812 18.746094 12.128906 C 18.746094 11.988281 18.65625 11.886719 18.566406 11.785156 L 18.300781 11.496094 C 18.273438 11.46875 18.238281 11.4375 18.238281 11.394531 C 18.238281 11.339844 18.34375 11.347656 18.378906 11.347656 L 18.699219 11.347656 Z M 19.992188 11.023438 L 19.613281 11.023438 L 19.613281 12.136719 L 19.472656 12.136719 C 19.398438 12.136719 19.191406 12.136719 19.191406 11.867188 C 19.191406 11.5625 19.382812 11.207031 19.464844 11.023438 L 19.054688 11.023438 C 18.921875 11.289062 18.804688 11.570312 18.804688 11.871094 C 18.804688 12.203125 18.953125 12.460938 19.378906 12.460938 L 19.992188 12.460938 Z M 20.8125 12.496094 C 21.257812 12.496094 21.46875 11.945312 21.46875 11.5625 C 21.46875 11.253906 21.320312 10.992188 20.8125 10.992188 C 20.304688 10.992188 20.152344 11.253906 20.152344 11.5625 C 20.152344 11.945312 20.367188 12.496094 20.8125 12.496094 Z M 20.8125 12.15625 C 20.667969 12.15625 20.546875 11.84375 20.546875 11.582031 C 20.546875 11.390625 20.625 11.328125 20.8125 11.328125 C 20.996094 11.328125 21.074219 11.390625 21.074219 11.582031 C 21.074219 11.84375 20.953125 12.15625 20.8125 12.15625 Z M 22.019531 11.023438 L 21.644531 11.023438 L 21.644531 12.460938 L 22.429688 12.460938 L 22.519531 12.136719 L 22.019531 12.136719 Z M 23.183594 12.496094 C 23.628906 12.496094 23.839844 11.945312 23.839844 11.5625 C 23.839844 11.253906 23.691406 10.992188 23.183594 10.992188 C 22.675781 10.992188 22.523438 11.253906 22.523438 11.5625 C 22.523438 11.945312 22.734375 12.496094 23.183594 12.496094 Z M 23.183594 12.15625 C 23.039062 12.15625 22.917969 11.84375 22.917969 11.582031 C 22.917969 11.390625 22.996094 11.328125 23.183594 11.328125 C 23.367188 11.328125 23.445312 11.390625 23.445312 11.582031 C 23.445312 11.84375 23.324219 12.15625 23.183594 12.15625 "/>
</g>
</svg>
