<?xml version="1.0" encoding="UTF-8"?>
<svg xmlns="http://www.w3.org/2000/svg" xmlns:xlink="http://www.w3.org/1999/xlink" width="35pt" height="25pt" viewBox="0 0 35 25" version="1.1">
<defs>
<linearGradient id="linear0" gradientUnits="userSpaceOnUse" x1="65.453522" y1="73.356483" x2="123.87615" y2="73.356483" gradientTransform="matrix(0.174255,0,0,-0.175994,-1.214661,27.126299)">
<stop offset="0" style="stop-color:rgb(84.313725%,84.313725%,84.313725%);stop-opacity:1;"/>
<stop offset="0.4" style="stop-color:rgb(100%,100%,100%);stop-opacity:1;"/>
<stop offset="1" style="stop-color:rgb(100%,100%,100%);stop-opacity:1;"/>
</linearGradient>
<linearGradient id="linear1" gradientUnits="userSpaceOnUse" x1="8.763951" y1="128.98997" x2="184.51224" y2="128.98997" gradientTransform="matrix(0.174255,0,0,-0.175994,-1.214661,27.126299)">
<stop offset="0" style="stop-color:rgb(77.254902%,60.392157%,9.019608%);stop-opacity:1;"/>
<stop offset="0.5" style="stop-color:rgb(84.313725%,65.882353%,9.803922%);stop-opacity:1;"/>
<stop offset="1" style="stop-color:rgb(85.882353%,67.058824%,9.803922%);stop-opacity:1;"/>
</linearGradient>
</defs>
<g id="surface1">
<path style=" stroke:none;fill-rule:evenodd;fill:rgb(8.235294%,21.176471%,43.529412%);fill-opacity:1;" d="M 19.554688 9.015625 L 23.175781 9.015625 L 23.175781 16.992188 C 23.175781 16.992188 23.316406 22.449219 17.191406 24.25 C 17.191406 24.25 11.660156 23.128906 11.039062 17.097656 L 11.039062 9.058594 L 13.855469 9.058594 L 19.554688 9.015625 "/>
<path style=" stroke:none;fill-rule:evenodd;fill:url(#linear0);" d="M 19.453125 9.265625 L 22.925781 9.265625 L 22.925781 16.914062 C 22.925781 16.914062 23.058594 22.144531 17.1875 23.871094 C 17.1875 23.871094 11.882812 22.792969 11.289062 17.011719 L 11.289062 9.304688 L 13.992188 9.304688 L 19.453125 9.265625 "/>
<path style=" stroke:none;fill-rule:evenodd;fill:rgb(8.235294%,21.176471%,43.529412%);fill-opacity:1;" d="M 19.058594 13.09375 L 21.949219 13.09375 L 21.949219 16.855469 C 21.949219 16.855469 22.0625 21.207031 17.175781 22.644531 C 17.175781 22.644531 12.761719 21.746094 12.265625 16.9375 L 12.265625 13.097656 L 14.515625 13.097656 L 19.058594 13.09375 "/>
<path style=" stroke:none;fill-rule:evenodd;fill:rgb(52.941176%,84.705882%,96.862745%);fill-opacity:1;" d="M 18.964844 13.328125 L 21.707031 13.328125 L 21.707031 16.90625 C 21.707031 16.90625 21.816406 21.042969 17.171875 22.40625 C 17.171875 22.40625 12.976562 21.554688 12.507812 16.984375 L 12.507812 13.335938 L 14.644531 13.335938 L 18.964844 13.328125 "/>
<path style=" stroke:none;fill-rule:evenodd;fill:rgb(8.235294%,21.176471%,43.529412%);fill-opacity:1;" d="M 15.382812 12.335938 C 15.4375 12.328125 15.476562 12.3125 15.503906 12.292969 C 15.527344 12.273438 15.550781 12.230469 15.566406 12.167969 L 15.847656 11.113281 C 15.855469 11.082031 15.863281 11.058594 15.863281 11.035156 C 15.871094 11.015625 15.871094 11 15.871094 10.984375 C 15.871094 10.945312 15.859375 10.917969 15.839844 10.910156 C 15.816406 10.898438 15.773438 10.890625 15.703125 10.882812 L 15.703125 10.824219 L 16.429688 10.824219 L 16.429688 10.882812 C 16.347656 10.890625 16.296875 10.90625 16.269531 10.921875 C 16.242188 10.9375 16.21875 10.980469 16.199219 11.050781 L 15.902344 12.175781 C 15.898438 12.1875 15.898438 12.199219 15.894531 12.207031 C 15.894531 12.21875 15.894531 12.230469 15.894531 12.246094 C 15.894531 12.273438 15.902344 12.292969 15.925781 12.300781 C 15.949219 12.3125 15.980469 12.320312 16.019531 12.320312 C 16.175781 12.320312 16.3125 12.292969 16.425781 12.234375 C 16.539062 12.179688 16.640625 12.078125 16.726562 11.925781 L 16.78125 11.9375 L 16.648438 12.394531 L 15.382812 12.394531 L 15.382812 12.335938 "/>
<path style=" stroke:none;fill-rule:evenodd;fill:rgb(8.235294%,21.176471%,43.529412%);fill-opacity:1;" d="M 18.320312 12.328125 L 19.457031 10.90625 L 19.277344 10.90625 C 19.128906 10.910156 19 10.945312 18.894531 11.019531 C 18.824219 11.066406 18.746094 11.144531 18.660156 11.25 L 18.597656 11.242188 L 18.765625 10.824219 L 19.851562 10.824219 L 19.847656 10.890625 L 18.710938 12.3125 L 18.875 12.3125 C 19.003906 12.3125 19.113281 12.296875 19.203125 12.265625 C 19.367188 12.207031 19.503906 12.09375 19.609375 11.925781 L 19.667969 11.9375 L 19.492188 12.394531 L 18.3125 12.394531 L 18.320312 12.328125 "/>
<path style=" stroke:none;fill-rule:evenodd;fill:rgb(8.235294%,21.176471%,43.529412%);fill-opacity:1;" d="M 19.714844 12.335938 C 19.769531 12.328125 19.8125 12.3125 19.835938 12.292969 C 19.863281 12.273438 19.886719 12.230469 19.902344 12.167969 L 20.1875 11.113281 C 20.195312 11.082031 20.203125 11.058594 20.207031 11.035156 C 20.210938 11.015625 20.214844 11 20.214844 10.984375 C 20.214844 10.945312 20.203125 10.917969 20.179688 10.910156 C 20.160156 10.898438 20.113281 10.890625 20.042969 10.882812 L 20.042969 10.824219 L 20.734375 10.824219 L 20.734375 10.882812 C 20.679688 10.890625 20.636719 10.90625 20.609375 10.925781 C 20.585938 10.945312 20.566406 10.988281 20.546875 11.050781 L 20.261719 12.105469 L 20.242188 12.1875 C 20.242188 12.195312 20.238281 12.203125 20.238281 12.210938 C 20.238281 12.21875 20.238281 12.226562 20.238281 12.234375 C 20.238281 12.273438 20.246094 12.296875 20.269531 12.308594 C 20.289062 12.320312 20.335938 12.328125 20.40625 12.335938 L 20.40625 12.394531 L 19.714844 12.394531 L 19.714844 12.335938 "/>
<path style=" stroke:none;fill-rule:evenodd;fill:rgb(100%,100%,100%);fill-opacity:1;" d="M 15.566406 13.328125 L 18.8125 13.324219 L 18.8125 21.714844 L 18.8125 21.707031 C 18.8125 21.707031 18.046875 22.195312 17.164062 22.398438 C 17.164062 22.398438 16.238281 22.175781 15.566406 21.753906 L 15.566406 13.328125 "/>
<path style=" stroke:none;fill-rule:evenodd;fill:rgb(8.235294%,21.176471%,43.529412%);fill-opacity:1;" d="M 12.183594 12.429688 L 12.300781 11.902344 L 12.367188 11.910156 C 12.367188 11.984375 12.371094 12.039062 12.375 12.074219 C 12.386719 12.128906 12.410156 12.179688 12.445312 12.222656 C 12.476562 12.265625 12.511719 12.296875 12.554688 12.316406 C 12.597656 12.335938 12.644531 12.347656 12.699219 12.347656 C 12.792969 12.347656 12.863281 12.316406 12.917969 12.257812 C 12.976562 12.199219 13.003906 12.128906 13.011719 12.050781 C 13.019531 11.949219 12.933594 11.828125 12.753906 11.675781 C 12.574219 11.519531 12.488281 11.375 12.5 11.242188 C 12.507812 11.113281 12.554688 11.007812 12.644531 10.917969 C 12.734375 10.832031 12.855469 10.785156 13.003906 10.785156 C 13.046875 10.785156 13.089844 10.789062 13.132812 10.800781 C 13.160156 10.804688 13.183594 10.8125 13.207031 10.820312 L 13.261719 10.839844 C 13.277344 10.84375 13.289062 10.84375 13.300781 10.847656 C 13.316406 10.851562 13.328125 10.851562 13.339844 10.851562 C 13.367188 10.851562 13.386719 10.847656 13.402344 10.835938 C 13.417969 10.824219 13.429688 10.808594 13.441406 10.792969 L 13.511719 10.792969 L 13.386719 11.261719 L 13.324219 11.253906 L 13.320312 11.175781 C 13.316406 11.105469 13.300781 11.042969 13.269531 10.992188 C 13.21875 10.910156 13.144531 10.867188 13.039062 10.867188 C 12.949219 10.867188 12.882812 10.902344 12.835938 10.964844 C 12.804688 11.007812 12.789062 11.058594 12.785156 11.105469 C 12.78125 11.160156 12.792969 11.207031 12.816406 11.25 C 12.832031 11.273438 12.855469 11.296875 12.882812 11.324219 L 13.074219 11.488281 C 13.140625 11.546875 13.195312 11.613281 13.242188 11.691406 C 13.285156 11.765625 13.304688 11.851562 13.296875 11.945312 C 13.289062 12.070312 13.234375 12.179688 13.128906 12.28125 C 13.027344 12.378906 12.890625 12.429688 12.722656 12.429688 C 12.679688 12.429688 12.636719 12.425781 12.597656 12.417969 C 12.554688 12.410156 12.511719 12.398438 12.472656 12.382812 L 12.414062 12.363281 C 12.394531 12.355469 12.382812 12.347656 12.375 12.347656 C 12.367188 12.34375 12.359375 12.34375 12.347656 12.34375 C 12.324219 12.34375 12.304688 12.351562 12.292969 12.363281 C 12.28125 12.375 12.269531 12.398438 12.253906 12.429688 L 12.183594 12.429688 "/>
<path style=" stroke:none;fill-rule:evenodd;fill:rgb(8.235294%,21.176471%,43.529412%);fill-opacity:1;" d="M 13.304688 12.132812 C 13.339844 12.101562 13.382812 12.082031 13.429688 12.082031 C 13.476562 12.082031 13.515625 12.101562 13.546875 12.136719 C 13.578125 12.167969 13.59375 12.210938 13.589844 12.257812 C 13.585938 12.304688 13.566406 12.34375 13.53125 12.378906 C 13.496094 12.414062 13.453125 12.429688 13.40625 12.429688 C 13.359375 12.429688 13.320312 12.414062 13.289062 12.378906 C 13.257812 12.34375 13.242188 12.304688 13.246094 12.257812 C 13.25 12.207031 13.269531 12.167969 13.304688 12.132812 "/>
<path style=" stroke:none;fill-rule:evenodd;fill:rgb(8.235294%,21.176471%,43.529412%);fill-opacity:1;" d="M 13.636719 12.429688 L 13.757812 11.902344 L 13.824219 11.910156 C 13.824219 11.984375 13.824219 12.039062 13.832031 12.074219 C 13.84375 12.128906 13.863281 12.179688 13.898438 12.222656 C 13.929688 12.265625 13.96875 12.296875 14.011719 12.316406 C 14.054688 12.335938 14.101562 12.347656 14.152344 12.347656 C 14.246094 12.347656 14.320312 12.316406 14.375 12.257812 C 14.429688 12.199219 14.460938 12.128906 14.464844 12.050781 C 14.472656 11.949219 14.386719 11.828125 14.207031 11.675781 C 14.03125 11.519531 13.945312 11.375 13.953125 11.242188 C 13.964844 11.113281 14.011719 11.007812 14.101562 10.917969 C 14.191406 10.832031 14.3125 10.785156 14.460938 10.785156 C 14.5 10.785156 14.542969 10.792969 14.585938 10.800781 C 14.617188 10.804688 14.640625 10.8125 14.660156 10.820312 L 14.71875 10.839844 C 14.730469 10.84375 14.746094 10.84375 14.757812 10.847656 C 14.773438 10.851562 14.785156 10.851562 14.792969 10.851562 C 14.820312 10.851562 14.84375 10.847656 14.859375 10.835938 C 14.871094 10.824219 14.886719 10.808594 14.898438 10.792969 L 14.96875 10.792969 L 14.839844 11.261719 L 14.78125 11.253906 L 14.777344 11.175781 C 14.773438 11.105469 14.753906 11.042969 14.722656 10.992188 C 14.675781 10.910156 14.597656 10.867188 14.496094 10.867188 C 14.40625 10.867188 14.339844 10.902344 14.292969 10.964844 C 14.261719 11.011719 14.246094 11.058594 14.242188 11.105469 C 14.238281 11.160156 14.25 11.207031 14.273438 11.25 C 14.289062 11.273438 14.308594 11.296875 14.339844 11.324219 L 14.527344 11.488281 C 14.597656 11.546875 14.652344 11.613281 14.695312 11.691406 C 14.742188 11.765625 14.761719 11.851562 14.753906 11.945312 C 14.746094 12.070312 14.6875 12.183594 14.585938 12.28125 C 14.484375 12.378906 14.347656 12.429688 14.179688 12.429688 C 14.136719 12.429688 14.09375 12.425781 14.050781 12.417969 C 14.011719 12.410156 13.96875 12.398438 13.929688 12.382812 L 13.871094 12.363281 C 13.851562 12.355469 13.839844 12.347656 13.832031 12.347656 C 13.824219 12.34375 13.816406 12.34375 13.804688 12.34375 C 13.78125 12.34375 13.761719 12.351562 13.75 12.363281 C 13.738281 12.375 13.722656 12.398438 13.707031 12.429688 L 13.636719 12.429688 "/>
<path style=" stroke:none;fill-rule:evenodd;fill:rgb(8.235294%,21.176471%,43.529412%);fill-opacity:1;" d="M 14.835938 12.132812 C 14.871094 12.101562 14.914062 12.082031 14.960938 12.082031 C 15.007812 12.082031 15.046875 12.101562 15.078125 12.136719 C 15.109375 12.167969 15.125 12.210938 15.121094 12.257812 C 15.117188 12.304688 15.097656 12.34375 15.0625 12.378906 C 15.027344 12.414062 14.984375 12.429688 14.9375 12.429688 C 14.890625 12.429688 14.851562 12.414062 14.820312 12.378906 C 14.789062 12.34375 14.773438 12.304688 14.777344 12.257812 C 14.78125 12.207031 14.800781 12.167969 14.835938 12.132812 "/>
<path style=" stroke:none;fill-rule:evenodd;fill:rgb(8.235294%,21.176471%,43.529412%);fill-opacity:1;" d="M 20.984375 11.140625 C 21.1875 10.902344 21.414062 10.78125 21.667969 10.78125 C 21.832031 10.78125 21.972656 10.832031 22.078125 10.933594 C 22.1875 11.035156 22.238281 11.175781 22.238281 11.347656 C 22.238281 11.601562 22.144531 11.839844 21.953125 12.070312 C 21.75 12.3125 21.519531 12.433594 21.253906 12.433594 C 21.089844 12.433594 20.953125 12.382812 20.847656 12.28125 C 20.746094 12.179688 20.695312 12.042969 20.695312 11.871094 C 20.695312 11.617188 20.789062 11.371094 20.984375 11.140625 Z M 21.054688 12.210938 C 21.09375 12.308594 21.160156 12.355469 21.257812 12.355469 C 21.351562 12.355469 21.433594 12.320312 21.507812 12.25 C 21.582031 12.183594 21.660156 12.050781 21.742188 11.859375 C 21.792969 11.738281 21.832031 11.609375 21.859375 11.476562 C 21.890625 11.339844 21.902344 11.230469 21.902344 11.148438 C 21.902344 11.070312 21.882812 11.003906 21.84375 10.945312 C 21.808594 10.890625 21.746094 10.863281 21.664062 10.859375 C 21.472656 10.859375 21.308594 11.035156 21.175781 11.382812 C 21.078125 11.644531 21.027344 11.863281 21.027344 12.039062 C 21.027344 12.105469 21.039062 12.164062 21.054688 12.210938 "/>
<path style=" stroke:none;fill-rule:evenodd;fill:rgb(8.235294%,21.176471%,43.529412%);fill-opacity:1;" d="M 17.742188 11.828125 L 17.734375 11.257812 L 17.308594 11.828125 Z M 16.703125 12.355469 C 16.75 12.339844 16.78125 12.328125 16.804688 12.3125 C 16.839844 12.289062 16.878906 12.25 16.925781 12.1875 L 17.980469 10.804688 L 18.039062 10.804688 L 18.074219 12.148438 C 18.078125 12.242188 18.089844 12.296875 18.105469 12.316406 C 18.125 12.335938 18.171875 12.347656 18.242188 12.355469 L 18.234375 12.410156 L 17.527344 12.410156 L 17.535156 12.355469 C 17.601562 12.347656 17.652344 12.339844 17.679688 12.320312 C 17.710938 12.304688 17.730469 12.269531 17.738281 12.21875 C 17.738281 12.203125 17.742188 12.160156 17.742188 12.09375 C 17.742188 12.078125 17.742188 12.023438 17.742188 11.921875 L 17.242188 11.921875 L 17.074219 12.160156 C 17.0625 12.175781 17.050781 12.195312 17.042969 12.214844 C 17.03125 12.230469 17.027344 12.25 17.023438 12.269531 C 17.019531 12.300781 17.023438 12.320312 17.042969 12.328125 C 17.0625 12.339844 17.101562 12.347656 17.160156 12.355469 L 17.152344 12.410156 L 16.695312 12.410156 L 16.703125 12.355469 "/>
<path style=" stroke:none;fill-rule:evenodd;fill:url(#linear1);" d="M 13.738281 9.101562 L 13.613281 9.027344 C 13.613281 9.027344 13.367188 9.011719 13.078125 8.71875 C 13.078125 8.71875 13.792969 8.480469 13.984375 8.230469 C 13.984375 8.230469 13.765625 8.164062 13.722656 8.050781 C 13.722656 8.050781 14.410156 7.84375 14.480469 7.703125 C 14.480469 7.703125 13.035156 7.410156 12.785156 6.867188 C 12.785156 6.867188 12 6.851562 11.726562 6.351562 C 11.449219 5.851562 11.695312 6.324219 11.695312 6.324219 C 11.695312 6.324219 11.1875 6.449219 10.882812 5.921875 C 10.882812 5.921875 10.332031 5.917969 10.058594 5.503906 C 10.058594 5.503906 9.148438 5.375 8.84375 4.972656 C 8.84375 4.972656 7.742188 4.804688 7.234375 4.261719 C 6.722656 3.71875 7.234375 4.234375 7.234375 4.234375 C 7.234375 4.234375 6.558594 4.234375 6.078125 3.703125 C 6.078125 3.703125 5.058594 3.648438 4.507812 2.9375 C 4.507812 2.9375 3.199219 2.753906 2.617188 1.976562 C 2.617188 1.976562 1.378906 1.820312 0.636719 1.222656 C -0.109375 0.625 0.0078125 0.679688 0.0078125 0.679688 L 11.730469 0.691406 C 11.730469 0.691406 14.113281 0.546875 15.566406 2.351562 C 17.019531 4.160156 18.605469 3.203125 19.386719 2.554688 C 20.164062 1.910156 20.867188 0.703125 23.480469 0.707031 C 26.09375 0.710938 35 0.714844 35 0.714844 C 35 0.714844 34.191406 1.609375 32.28125 2.042969 C 32.28125 2.042969 31.546875 2.84375 30.339844 3.011719 C 30.339844 3.011719 29.960938 3.570312 28.601562 3.84375 C 28.601562 3.84375 28.25 4.339844 27.378906 4.445312 C 27.378906 4.445312 27.042969 4.984375 26.125 5 C 25.207031 5.015625 26.09375 5.015625 26.09375 5.015625 C 26.09375 5.015625 25.667969 5.710938 24.660156 5.785156 C 23.652344 5.863281 24.628906 5.785156 24.628906 5.785156 C 24.628906 5.785156 24.414062 6.066406 23.710938 6.203125 C 23.007812 6.339844 23.667969 6.203125 23.667969 6.203125 C 23.667969 6.203125 23.542969 6.589844 22.75 6.664062 C 21.957031 6.742188 22.6875 6.679688 22.6875 6.679688 C 22.6875 6.679688 22.597656 6.914062 22.15625 6.972656 C 21.710938 7.035156 22.15625 6.972656 22.15625 6.972656 C 22.15625 6.972656 21.421875 7.746094 20.261719 7.882812 C 20.261719 7.882812 20.195312 8.222656 19.539062 8.703125 C 19.539062 8.703125 19.710938 8.957031 19.726562 9.222656 L 19.726562 9.210938 C 19.726562 9.210938 19.785156 8.988281 19.707031 9.34375 C 19.628906 9.699219 18.9375 10.007812 18.9375 10.007812 C 19.367188 9.273438 18.890625 9.203125 18.890625 9.203125 C 18.996094 9.628906 18.109375 9.964844 18.109375 9.964844 C 18.53125 9.386719 18.074219 9.164062 18.074219 9.164062 C 18.207031 9.742188 17.234375 9.902344 17.234375 9.902344 C 17.75 9.261719 17.082031 9.074219 17.082031 9.074219 L 16.460938 9.074219 C 16.511719 9.863281 15.546875 10.058594 15.546875 10.058594 C 16.054688 9.332031 15.539062 9.234375 15.539062 9.234375 C 15.652344 9.765625 14.835938 10.042969 14.835938 10.042969 C 15.238281 9.25 14.6875 9.164062 14.6875 9.164062 C 14.914062 9.785156 13.632812 10.171875 13.816406 10.058594 C 14 9.941406 14.140625 9.4375 14.140625 9.4375 C 14.28125 9.25 13.738281 9.101562 13.738281 9.101562 "/>
<path style=" stroke:none;fill-rule:evenodd;fill:rgb(100%,100%,100%);fill-opacity:1;" d="M 6.378906 0.964844 C 6.378906 0.964844 6.570312 1.316406 7.082031 1.523438 L 3.007812 1.523438 C 3.007812 1.523438 1.226562 1.550781 0.746094 0.964844 L 6.378906 0.964844 "/>
<path style=" stroke:none;fill-rule:evenodd;fill:rgb(100%,100%,100%);fill-opacity:1;" d="M 8.445312 2.054688 C 8.445312 2.054688 8.640625 2.378906 9.148438 2.589844 L 5.453125 2.589844 C 5.453125 2.589844 3.671875 2.640625 3.1875 2.054688 L 8.445312 2.054688 "/>
<path style=" stroke:none;fill-rule:evenodd;fill:rgb(100%,100%,100%);fill-opacity:1;" d="M 10.214844 3.003906 C 10.214844 3.003906 10.40625 3.273438 10.917969 3.480469 L 7.21875 3.480469 C 7.21875 3.480469 5.480469 3.53125 4.957031 3.003906 L 10.214844 3.003906 "/>
<path style=" stroke:none;fill-rule:evenodd;fill:rgb(100%,100%,100%);fill-opacity:1;" d="M 11.417969 3.742188 C 11.417969 3.742188 11.609375 3.890625 12.121094 4.097656 L 8.875 4.097656 C 8.875 4.097656 7.121094 4.144531 6.613281 3.742188 L 11.417969 3.742188 "/>
<path style=" stroke:none;fill-rule:evenodd;fill:rgb(100%,100%,100%);fill-opacity:1;" d="M 12.714844 4.425781 C 12.714844 4.425781 12.785156 4.515625 13.296875 4.726562 L 10.175781 4.726562 C 10.175781 4.726562 8.421875 4.828125 7.910156 4.425781 L 12.714844 4.425781 "/>
<path style=" stroke:none;fill-rule:evenodd;fill:rgb(100%,100%,100%);fill-opacity:1;" d="M 13.753906 4.996094 C 13.753906 4.996094 13.757812 5.089844 14.269531 5.296875 L 11.445312 5.296875 C 11.445312 5.296875 9.691406 5.398438 9.179688 4.996094 L 13.753906 4.996094 "/>
<path style=" stroke:none;fill-rule:evenodd;fill:rgb(100%,100%,100%);fill-opacity:1;" d="M 15.011719 5.566406 C 15.011719 5.566406 14.796875 5.59375 15.308594 5.800781 L 12.660156 5.800781 C 12.660156 5.800781 11.097656 5.832031 10.441406 5.566406 L 15.011719 5.566406 "/>
<path style=" stroke:none;fill-rule:evenodd;fill:rgb(100%,100%,100%);fill-opacity:1;" d="M 15.265625 6.03125 C 15.265625 6.03125 15.476562 5.945312 15.109375 6.265625 L 13.53125 6.265625 C 13.53125 6.265625 11.972656 6.296875 11.3125 6.03125 L 15.265625 6.03125 "/>
<path style=" stroke:none;fill-rule:evenodd;fill:rgb(100%,100%,100%);fill-opacity:1;" d="M 14.953125 6.519531 C 14.953125 6.519531 15.160156 6.386719 14.792969 6.707031 L 14.386719 6.707031 C 14.386719 6.707031 12.828125 6.785156 12.167969 6.519531 L 14.953125 6.519531 "/>
<path style=" stroke:none;fill-rule:evenodd;fill:rgb(100%,100%,100%);fill-opacity:1;" d="M 14.578125 6.890625 C 14.578125 6.890625 14.785156 6.761719 14.417969 7.082031 L 14.011719 7.082031 C 14.011719 7.082031 13.589844 7.15625 12.929688 6.890625 L 14.578125 6.890625 "/>
<path style=" stroke:none;fill-rule:evenodd;fill:rgb(100%,100%,100%);fill-opacity:1;" d="M 28.578125 0.964844 C 28.578125 0.964844 28.386719 1.316406 27.875 1.523438 L 31.949219 1.523438 C 31.949219 1.523438 33.730469 1.550781 34.214844 0.964844 L 28.578125 0.964844 "/>
<path style=" stroke:none;fill-rule:evenodd;fill:rgb(100%,100%,100%);fill-opacity:1;" d="M 26.511719 2.054688 C 26.511719 2.054688 26.316406 2.378906 25.808594 2.589844 L 29.503906 2.589844 C 29.503906 2.589844 31.285156 2.640625 31.769531 2.054688 L 26.511719 2.054688 "/>
<path style=" stroke:none;fill-rule:evenodd;fill:rgb(100%,100%,100%);fill-opacity:1;" d="M 24.742188 3.003906 C 24.742188 3.003906 24.550781 3.273438 24.039062 3.480469 L 27.738281 3.480469 C 27.738281 3.480469 29.476562 3.53125 30 3.003906 L 24.742188 3.003906 "/>
<path style=" stroke:none;fill-rule:evenodd;fill:rgb(100%,100%,100%);fill-opacity:1;" d="M 23.539062 3.742188 C 23.539062 3.742188 23.6875 3.789062 23.6875 4.066406 L 26.082031 4.066406 C 26.082031 4.066406 27.835938 4.144531 28.34375 3.742188 L 23.539062 3.742188 "/>
<path style=" stroke:none;fill-rule:evenodd;fill:rgb(100%,100%,100%);fill-opacity:1;" d="M 20.820312 6.191406 C 20.820312 6.191406 20.839844 6.058594 20.683594 6.367188 L 21.261719 6.378906 C 21.261719 6.378906 22.820312 6.453125 23.480469 6.1875 L 20.820312 6.191406 "/>
<path style=" stroke:none;fill-rule:evenodd;fill:rgb(100%,100%,100%);fill-opacity:1;" d="M 20.453125 6.96875 C 20.453125 6.96875 20.171875 6.839844 20.539062 7.160156 L 20.945312 7.160156 C 20.945312 7.160156 21.367188 7.234375 22.027344 6.96875 L 20.453125 6.96875 "/>
<path style=" stroke:none;fill-rule:evenodd;fill:rgb(100%,100%,100%);fill-opacity:1;" d="M 17.683594 3.570312 L 22.605469 3.570312 C 22.605469 3.570312 23.316406 3.511719 23.394531 4.113281 C 23.394531 4.113281 23.453125 4.25 23.261719 4.269531 C 23.066406 4.289062 21.261719 4.269531 21.261719 4.269531 L 21.089844 4.484375 L 22.433594 4.484375 C 22.433594 4.484375 22.664062 4.464844 22.644531 4.699219 L 23.492188 4.328125 L 24.335938 4.328125 C 24.335938 4.328125 25.316406 4.25 25.203125 5.359375 C 25.203125 5.359375 25.066406 4.871094 24.355469 4.871094 C 23.644531 4.871094 22.394531 4.871094 22.394531 4.871094 L 22.222656 5.085938 L 24.433594 5.105469 C 24.433594 5.105469 24.914062 5.144531 25.027344 5.492188 L 21.992188 5.492188 C 21.992188 5.492188 21.835938 5.300781 21.433594 5.457031 C 21.03125 5.609375 21.394531 5.457031 21.394531 5.457031 C 21.394531 5.457031 20.433594 6.078125 19.972656 6 C 19.511719 5.921875 19.394531 5.667969 19.644531 5.417969 C 19.644531 5.417969 18.550781 5.53125 19.375 4.949219 C 19.375 4.949219 18.78125 4.738281 19.820312 4.230469 L 18.761719 4.230469 C 18.761719 4.230469 18.070312 4.171875 17.78125 3.765625 C 17.492188 3.359375 17.683594 3.570312 17.683594 3.570312 "/>
<path style=" stroke:none;fill-rule:evenodd;fill:rgb(100%,100%,100%);fill-opacity:1;" d="M 21.484375 5.742188 C 21.484375 5.742188 21.433594 5.6875 21.105469 5.933594 L 22.050781 5.933594 C 22.050781 5.933594 23.933594 6.078125 24.269531 5.742188 L 21.484375 5.742188 "/>
<path style=" stroke:none;fill-rule:evenodd;fill:rgb(100%,100%,100%);fill-opacity:1;" d="M 25.210938 4.386719 C 25.210938 4.386719 25.164062 4.347656 25.367188 4.699219 L 26.269531 4.699219 C 26.269531 4.699219 26.757812 4.660156 27.121094 4.386719 L 25.210938 4.386719 "/>
<path style=" stroke:none;fill-rule:evenodd;fill:rgb(100%,100%,100%);fill-opacity:1;" d="M 20.550781 6.53125 C 20.550781 6.53125 20.570312 6.394531 20.414062 6.707031 L 20.492188 6.71875 C 20.492188 6.71875 22.300781 6.851562 22.710938 6.539062 L 20.550781 6.53125 "/>
<path style=" stroke:none;fill-rule:evenodd;fill:rgb(100%,100%,100%);fill-opacity:1;" d="M 25.472656 4.988281 L 25.453125 5.222656 C 25.453125 5.222656 25.875 5.105469 25.816406 4.988281 L 25.472656 4.988281 "/>
<path style=" stroke:none;fill-rule:evenodd;fill:rgb(100%,100%,100%);fill-opacity:1;" d="M 7.609375 1.378906 C 7.609375 1.378906 6.996094 1.292969 6.859375 0.964844 L 12.226562 0.964844 C 12.226562 0.964844 13.9375 1.027344 15.222656 2.367188 C 16.511719 3.707031 16.800781 3.550781 17.394531 3.609375 L 17.664062 4.039062 C 17.664062 4.039062 17.320312 4.113281 16.820312 3.882812 L 12.570312 3.882812 C 12.570312 3.882812 12.011719 3.882812 11.878906 3.667969 L 16.359375 3.667969 C 16.359375 3.667969 15.972656 3.511719 15.761719 3.300781 L 11.6875 3.300781 C 11.6875 3.300781 10.839844 3.339844 10.707031 3.007812 L 15.300781 3.007812 C 15.300781 3.007812 15.109375 2.601562 14.570312 2.347656 L 9.515625 2.347656 C 9.515625 2.347656 9.03125 2.328125 8.878906 2.039062 L 14.261719 2.039062 C 14.261719 2.039062 13.648438 1.511719 12.972656 1.378906 L 7.609375 1.378906 "/>
<path style=" stroke:none;fill-rule:evenodd;fill:rgb(100%,100%,100%);fill-opacity:1;" d="M 13.628906 4.601562 C 13.628906 4.601562 13.28125 4.523438 13.148438 4.386719 L 17.183594 4.386719 C 17.183594 4.386719 17.628906 4.136719 17.914062 4.230469 C 17.914062 4.230469 18.183594 4.40625 18.300781 4.367188 C 18.300781 4.367188 17.820312 4.890625 16.703125 4.832031 C 16.703125 4.832031 16.722656 4.660156 16.894531 4.582031 L 13.628906 4.601562 "/>
<path style=" stroke:none;fill-rule:evenodd;fill:rgb(100%,100%,100%);fill-opacity:1;" d="M 18.53125 4.40625 L 19.164062 4.40625 C 19.164062 4.40625 19.144531 4.777344 18.242188 4.738281 L 18.53125 4.40625 "/>
<path style=" stroke:none;fill-rule:evenodd;fill:rgb(100%,100%,100%);fill-opacity:1;" d="M 18.953125 4.851562 C 18.953125 4.851562 18.664062 5.007812 18.394531 4.988281 C 18.394531 4.988281 18.300781 5.164062 17.933594 5.378906 C 17.933594 5.378906 18.589844 5.609375 19.070312 4.96875 L 18.953125 4.851562 "/>
<path style=" stroke:none;fill-rule:evenodd;fill:rgb(100%,100%,100%);fill-opacity:1;" d="M 17.992188 4.796875 C 17.992188 4.796875 17.550781 5.007812 17.222656 4.96875 C 17.222656 4.96875 17.070312 5.261719 16.839844 5.417969 C 16.839844 5.417969 17.609375 5.628906 18.183594 4.929688 L 17.992188 4.796875 "/>
<path style=" stroke:none;fill-rule:evenodd;fill:rgb(100%,100%,100%);fill-opacity:1;" d="M 18.875 5.398438 C 18.875 5.398438 18.644531 5.511719 18.433594 5.550781 C 18.222656 5.589844 18.394531 5.570312 18.394531 5.570312 C 18.394531 5.570312 18.359375 5.765625 18.128906 5.863281 C 18.128906 5.863281 18.683594 6.210938 19.164062 5.667969 C 19.164062 5.667969 18.894531 5.550781 18.894531 5.457031 C 18.894531 5.359375 18.875 5.398438 18.875 5.398438 "/>
<path style=" stroke:none;fill-rule:evenodd;fill:rgb(100%,100%,100%);fill-opacity:1;" d="M 17.761719 5.511719 C 17.761719 5.511719 17.339844 5.648438 17.203125 5.628906 C 17.203125 5.628906 17.164062 5.824219 16.914062 5.902344 C 16.664062 5.980469 16.878906 5.902344 16.878906 5.902344 C 16.878906 5.902344 17.683594 6.210938 18.109375 5.609375 L 17.761719 5.511719 "/>
<path style=" stroke:none;fill-rule:evenodd;fill:rgb(100%,100%,100%);fill-opacity:1;" d="M 17.992188 5.980469 C 17.992188 5.980469 17.800781 6.132812 17.261719 6.289062 C 17.261719 6.289062 17.664062 6.871094 18.722656 6.191406 C 18.722656 6.191406 18.183594 6.171875 18.089844 6.058594 C 17.992188 5.941406 17.992188 5.980469 17.992188 5.980469 "/>
<path style=" stroke:none;fill-rule:evenodd;fill:rgb(100%,100%,100%);fill-opacity:1;" d="M 18.089844 6.660156 C 18.089844 6.660156 17.914062 6.910156 17.683594 6.96875 C 17.453125 7.027344 17.628906 6.988281 17.628906 6.988281 C 17.628906 6.988281 18.292969 7.171875 18.722656 6.523438 C 18.953125 6.171875 18.453125 6.640625 18.089844 6.660156 "/>
<path style=" stroke:none;fill-rule:evenodd;fill:rgb(100%,100%,100%);fill-opacity:1;" d="M 17.722656 6.679688 C 17.722656 6.679688 17.222656 6.699219 17.164062 6.464844 C 17.164062 6.464844 16.800781 6.660156 16.570312 6.621094 C 16.339844 6.582031 16.53125 6.621094 16.53125 6.621094 C 16.53125 6.621094 16.472656 6.816406 16.261719 6.929688 C 16.261719 6.929688 16.953125 7.28125 17.53125 6.832031 C 18.109375 6.386719 17.722656 6.679688 17.722656 6.679688 "/>
<path style=" stroke:none;fill-rule:evenodd;fill:rgb(100%,100%,100%);fill-opacity:1;" d="M 16.648438 6 C 16.648438 6 16.820312 6.117188 17.144531 6.132812 C 17.144531 6.132812 16.859375 6.582031 16.03125 6.386719 C 15.203125 6.191406 15.992188 6.367188 15.992188 6.367188 C 15.992188 6.367188 16.203125 6.230469 16.261719 6.132812 C 16.261719 6.132812 16.492188 6.078125 16.570312 6.039062 C 16.648438 6 16.648438 6 16.648438 6 "/>
<path style=" stroke:none;fill-rule:evenodd;fill:rgb(100%,100%,100%);fill-opacity:1;" d="M 16.648438 5.492188 C 16.648438 5.492188 16.703125 5.628906 16.933594 5.589844 C 16.933594 5.589844 16.589844 6.058594 15.722656 5.941406 C 14.859375 5.824219 15.683594 5.921875 15.683594 5.921875 C 15.683594 5.921875 16.109375 5.707031 16.203125 5.550781 L 16.648438 5.492188 "/>
<path style=" stroke:none;fill-rule:evenodd;fill:rgb(100%,100%,100%);fill-opacity:1;" d="M 15.511719 6.078125 C 15.511719 6.078125 15.878906 6.210938 15.933594 6.171875 C 15.933594 6.171875 15.761719 6.347656 15.320312 6.40625 C 14.878906 6.464844 15.28125 6.40625 15.28125 6.40625 L 15.511719 6.078125 "/>
<path style=" stroke:none;fill-rule:evenodd;fill:rgb(100%,100%,100%);fill-opacity:1;" d="M 15.78125 6.484375 C 15.78125 6.484375 16.089844 6.679688 16.242188 6.640625 C 16.242188 6.640625 16.203125 7.125 14.878906 6.929688 C 13.550781 6.738281 14.839844 6.910156 14.839844 6.910156 C 14.839844 6.910156 15.511719 6.640625 15.648438 6.542969 C 15.78125 6.445312 15.78125 6.484375 15.78125 6.484375 "/>
<path style=" stroke:none;fill-rule:evenodd;fill:rgb(100%,100%,100%);fill-opacity:1;" d="M 16.820312 4.988281 C 16.820312 4.988281 16.878906 5.359375 16.03125 5.4375 C 15.183594 5.511719 15.992188 5.4375 15.992188 5.4375 L 16.148438 5.164062 L 14.453125 5.164062 C 14.453125 5.164062 14.128906 5.085938 14.070312 4.988281 L 16.820312 4.988281 "/>
<path style=" stroke:none;fill-rule:evenodd;fill:rgb(100%,100%,100%);fill-opacity:1;" d="M 15.242188 5.53125 L 15.722656 5.53125 C 15.722656 5.53125 15.753906 5.652344 15.53125 5.726562 L 15.242188 5.53125 "/>
<path style=" stroke:none;fill-rule:evenodd;fill:rgb(100%,100%,100%);fill-opacity:1;" d="M 14.167969 8.136719 C 14.167969 8.136719 14.839844 7.84375 15.472656 7.378906 C 15.472656 7.378906 16.398438 6.757812 16.703125 7.28125 C 17.011719 7.804688 15.261719 8.210938 15.261719 8.210938 L 14.167969 8.136719 "/>
<path style=" stroke:none;fill-rule:evenodd;fill:rgb(100%,100%,100%);fill-opacity:1;" d="M 14.167969 8.347656 C 14.167969 8.347656 15.03125 8.523438 15.359375 8.386719 C 15.359375 8.386719 14.53125 9.046875 13.550781 8.816406 C 12.570312 8.582031 13.550781 8.777344 13.550781 8.777344 C 13.550781 8.777344 13.839844 8.640625 14.050781 8.464844 C 14.261719 8.289062 14.167969 8.347656 14.167969 8.347656 "/>
<path style=" stroke:none;fill-rule:evenodd;fill:rgb(100%,100%,100%);fill-opacity:1;" d="M 13.972656 9.085938 C 13.972656 9.085938 14.628906 8.777344 14.300781 9.28125 L 13.972656 9.085938 "/>
<path style=" stroke:none;fill-rule:evenodd;fill:rgb(100%,100%,100%);fill-opacity:1;" d="M 14.722656 9.144531 C 14.722656 9.144531 15.453125 8.640625 15.167969 9.28125 C 15.167969 9.28125 14.992188 9.085938 14.878906 9.164062 C 14.761719 9.242188 14.839844 9.164062 14.839844 9.164062 L 14.722656 9.144531 "/>
<path style=" stroke:none;fill-rule:evenodd;fill:rgb(100%,100%,100%);fill-opacity:1;" d="M 15.53125 9.164062 C 15.53125 9.164062 16.164062 8.832031 15.992188 9.320312 C 15.992188 9.320312 15.898438 9.164062 15.683594 9.203125 L 15.53125 9.164062 "/>
<path style=" stroke:none;fill-rule:evenodd;fill:rgb(100%,100%,100%);fill-opacity:1;" d="M 17.644531 8.117188 C 17.644531 8.117188 18.933594 7.398438 19.125 7.164062 C 19.125 7.164062 19.742188 6.523438 20.125 6.949219 C 20.511719 7.378906 19.242188 7.980469 19.011719 8.058594 C 18.78125 8.136719 17.644531 8.117188 17.644531 8.117188 "/>
<path style=" stroke:none;fill-rule:evenodd;fill:rgb(100%,100%,100%);fill-opacity:1;" d="M 17.570312 8.269531 C 17.570312 8.269531 18.394531 8.464844 18.972656 8.269531 C 18.972656 8.269531 18.378906 9.085938 16.800781 8.757812 C 16.800781 8.757812 17.261719 8.5625 17.433594 8.386719 C 17.609375 8.210938 17.570312 8.269531 17.570312 8.269531 "/>
<path style=" stroke:none;fill-rule:evenodd;fill:rgb(100%,100%,100%);fill-opacity:1;" d="M 17.339844 9.066406 C 17.339844 9.066406 17.992188 8.757812 17.664062 9.261719 L 17.339844 9.066406 "/>
<path style=" stroke:none;fill-rule:evenodd;fill:rgb(100%,100%,100%);fill-opacity:1;" d="M 18.144531 9.125 C 18.144531 9.125 18.875 8.621094 18.589844 9.261719 C 18.589844 9.261719 18.414062 9.066406 18.300781 9.144531 C 18.183594 9.222656 18.261719 9.144531 18.261719 9.144531 L 18.144531 9.125 "/>
<path style=" stroke:none;fill-rule:evenodd;fill:rgb(100%,100%,100%);fill-opacity:1;" d="M 18.894531 9.144531 C 18.894531 9.144531 19.683594 8.738281 19.359375 9.300781 C 19.359375 9.300781 19.261719 9.144531 19.050781 9.183594 L 18.894531 9.144531 "/>
<path style=" stroke:none;fill-rule:evenodd;fill:rgb(100%,100%,100%);fill-opacity:1;" d="M 18.601562 3.433594 C 18.601562 3.433594 19.492188 2.929688 20.339844 2.074219 C 21.183594 1.21875 22.355469 0.882812 23.296875 0.984375 L 27.988281 0.984375 C 27.988281 0.984375 28.105469 1.199219 27.414062 1.394531 L 22.433594 1.394531 C 22.433594 1.394531 22.105469 1.21875 21.03125 1.976562 L 26.105469 1.996094 C 26.105469 1.996094 25.894531 2.347656 25.125 2.386719 L 20.625 2.386719 L 19.800781 2.988281 C 19.800781 2.988281 23.683594 2.96875 24.429688 2.984375 C 24.019531 3.304688 23.453125 3.300781 23.453125 3.300781 L 19.453125 3.300781 C 19.453125 3.300781 19.101562 3.480469 18.902344 3.480469 C 18.671875 3.480469 18.601562 3.433594 18.601562 3.433594 "/>
<path style=" stroke:none;fill-rule:evenodd;fill:rgb(52.941176%,84.705882%,96.862745%);fill-opacity:1;" d="M 24.644531 10.730469 C 25.117188 10.730469 25.5 10.347656 25.5 9.871094 C 25.5 9.402344 25.117188 9.015625 24.644531 9.015625 C 24.171875 9.015625 23.785156 9.402344 23.785156 9.871094 C 23.785156 10.347656 24.171875 10.730469 24.644531 10.730469 Z M 24.644531 10.617188 C 24.226562 10.617188 23.921875 10.292969 23.921875 9.871094 C 23.921875 9.457031 24.226562 9.128906 24.644531 9.128906 C 25.0625 9.128906 25.363281 9.457031 25.363281 9.871094 C 25.363281 10.292969 25.0625 10.617188 24.644531 10.617188 Z M 24.78125 9.910156 C 24.953125 9.90625 25.082031 9.835938 25.082031 9.648438 C 25.082031 9.492188 24.996094 9.394531 24.746094 9.394531 L 24.324219 9.394531 L 24.324219 10.351562 L 24.445312 10.351562 L 24.445312 9.910156 L 24.660156 9.910156 L 24.933594 10.351562 L 25.074219 10.351562 Z M 24.445312 9.816406 L 24.445312 9.480469 L 24.71875 9.480469 C 24.835938 9.480469 24.957031 9.496094 24.957031 9.644531 C 24.957031 9.839844 24.757812 9.816406 24.621094 9.816406 L 24.445312 9.816406 "/>
</g>
</svg>
