<?xml version="1.0" encoding="UTF-8"?>
<svg xmlns="http://www.w3.org/2000/svg" xmlns:xlink="http://www.w3.org/1999/xlink" width="25pt" height="25pt" viewBox="0 0 25 25" version="1.1">
<g id="surface1">
<path style=" stroke:none;fill-rule:evenodd;fill:rgb(56.862745%,47.058824%,27.843137%);fill-opacity:1;" d="M 12.480469 0 C 5.589844 0 0 5.589844 0 12.480469 C 0 19.375 5.589844 24.964844 12.480469 24.964844 C 19.375 24.964844 24.964844 19.375 24.964844 12.480469 C 24.964844 5.589844 19.375 0 12.480469 0 Z M 12.480469 24.449219 C 5.882812 24.449219 0.515625 19.082031 0.515625 12.480469 C 0.515625 5.882812 5.882812 0.515625 12.480469 0.515625 C 19.082031 0.515625 24.449219 5.882812 24.449219 12.480469 C 24.449219 19.082031 19.082031 24.449219 12.480469 24.449219 Z M 12.480469 24.449219 "/>
<path style=" stroke:none;fill-rule:evenodd;fill:rgb(100%,100%,100%);fill-opacity:1;" d="M 0.515625 12.480469 C 0.515625 19.082031 5.882812 24.449219 12.480469 24.449219 C 19.082031 24.449219 24.449219 19.082031 24.449219 12.480469 C 24.449219 5.882812 19.082031 0.515625 12.480469 0.515625 C 5.882812 0.515625 0.515625 5.882812 0.515625 12.480469 Z M 0.515625 12.480469 "/>
<path style=" stroke:none;fill-rule:evenodd;fill:rgb(8.235294%,48.235294%,18.823529%);fill-opacity:1;" d="M 12.480469 0.832031 L 0.832031 12.480469 L 12.480469 24.132812 L 24.132812 12.480469 Z M 12.480469 23.585938 C 11.972656 23.078125 1.886719 12.992188 1.378906 12.480469 C 1.886719 11.972656 11.972656 1.886719 12.480469 1.378906 C 12.992188 1.886719 23.078125 11.972656 23.585938 12.480469 C 23.078125 12.992188 12.992188 23.078125 12.480469 23.585938 Z M 12.480469 23.585938 "/>
<path style=" stroke:none;fill-rule:evenodd;fill:rgb(8.235294%,48.235294%,18.823529%);fill-opacity:1;" d="M 12.480469 1.742188 C 11.675781 2.550781 2.550781 11.675781 1.742188 12.480469 C 2.550781 13.289062 11.675781 22.414062 12.480469 23.222656 Z M 12.480469 1.742188 "/>
<path style=" stroke:none;fill-rule:evenodd;fill:rgb(0%,0%,0%);fill-opacity:1;" d="M 1.507812 8.789062 C 1.367188 9.207031 1.25 9.632812 1.15625 10.0625 C 1.140625 10.148438 1.117188 10.25 1.109375 10.292969 C 1.015625 10.78125 0.953125 11.273438 0.925781 11.769531 C 0.921875 11.8125 0.976562 11.789062 1.042969 11.722656 C 1.113281 11.652344 1.167969 11.5625 1.164062 11.515625 C 1.160156 11.378906 1.15625 11.3125 1.152344 11.175781 C 1.414062 10.839844 1.550781 10.671875 1.820312 10.339844 C 1.863281 10.488281 1.886719 10.566406 1.933594 10.714844 C 1.949219 10.765625 2.019531 10.75 2.085938 10.679688 C 2.15625 10.613281 2.195312 10.515625 2.175781 10.464844 C 1.957031 9.894531 1.757812 9.3125 1.582031 8.726562 C 1.570312 8.679688 1.535156 8.707031 1.507812 8.789062 Z M 1.152344 11.015625 C 1.148438 10.628906 1.15625 10.4375 1.179688 10.0625 C 1.292969 9.675781 1.355469 9.484375 1.496094 9.109375 C 1.589844 9.523438 1.644531 9.734375 1.765625 10.164062 C 1.515625 10.503906 1.390625 10.671875 1.152344 11.015625 Z M 1.152344 11.015625 "/>
<path style=" stroke:none;fill-rule:evenodd;fill:rgb(0%,0%,0%);fill-opacity:1;" d="M 2.273438 7.023438 C 2.230469 7.097656 2.226562 7.203125 2.257812 7.257812 C 2.453125 7.871094 2.636719 8.484375 2.792969 9.109375 C 2.457031 8.800781 2.125 8.492188 1.820312 8.148438 C 1.820312 8.148438 1.824219 8.148438 1.824219 8.148438 C 1.820312 8.148438 1.820312 8.148438 1.820312 8.148438 C 1.800781 8.097656 1.753906 8.121094 1.722656 8.199219 C 1.691406 8.28125 1.679688 8.386719 1.699219 8.4375 C 2.066406 8.898438 2.492188 9.292969 2.925781 9.6875 C 2.957031 9.742188 3.039062 9.730469 3.105469 9.660156 C 3.175781 9.589844 3.203125 9.492188 3.171875 9.4375 C 2.945312 8.609375 2.691406 7.792969 2.410156 6.984375 C 2.375 6.929688 2.3125 6.945312 2.273438 7.023438 Z M 2.273438 7.023438 "/>
<path style=" stroke:none;fill-rule:evenodd;fill:rgb(0%,0%,0%);fill-opacity:1;" d="M 4.699219 7.054688 C 4.761719 6.984375 4.773438 6.882812 4.722656 6.828125 C 4.675781 6.769531 4.582031 6.777344 4.519531 6.847656 C 4.183594 7.210938 4.015625 7.394531 3.691406 7.769531 C 3.394531 7.363281 3.097656 6.960938 2.804688 6.550781 C 3.054688 6.167969 3.191406 5.980469 3.476562 5.621094 C 3.53125 5.554688 3.535156 5.457031 3.488281 5.402344 C 3.441406 5.347656 3.359375 5.355469 3.308594 5.421875 C 2.996094 5.832031 2.847656 6.042969 2.578125 6.484375 C 2.535156 6.558594 2.53125 6.660156 2.566406 6.714844 C 3.011719 7.371094 3.464844 8.019531 3.925781 8.660156 C 3.96875 8.71875 4.058594 8.710938 4.125 8.640625 C 4.472656 8.292969 4.820312 7.945312 5.167969 7.597656 C 5.238281 7.53125 5.25 7.425781 5.199219 7.371094 C 5.148438 7.3125 5.054688 7.320312 4.988281 7.390625 C 4.628906 7.753906 4.449219 7.9375 4.09375 8.308594 C 3.992188 8.175781 3.945312 8.109375 3.84375 7.976562 C 4.183594 7.605469 4.351562 7.417969 4.699219 7.054688 Z M 4.699219 7.054688 "/>
<path style=" stroke:none;fill-rule:evenodd;fill:rgb(0%,0%,0%);fill-opacity:1;" d="M 6.480469 5.882812 C 6.117188 6.242188 5.9375 6.425781 5.578125 6.789062 C 5.007812 6.175781 4.4375 5.5625 3.871094 4.945312 C 3.820312 4.894531 3.734375 4.902344 3.679688 4.964844 C 3.625 5.03125 3.621094 5.128906 3.667969 5.183594 C 4.253906 5.835938 4.839844 6.488281 5.425781 7.140625 C 5.476562 7.199219 5.578125 7.191406 5.644531 7.121094 C 5.992188 6.773438 6.339844 6.425781 6.6875 6.078125 C 6.757812 6.011719 6.765625 5.910156 6.707031 5.855469 C 6.652344 5.800781 6.550781 5.8125 6.480469 5.882812 Z M 6.480469 5.882812 "/>
<path style=" stroke:none;fill-rule:evenodd;fill:rgb(0%,0%,0%);fill-opacity:1;" d="M 7.996094 4.394531 C 7.628906 4.75 7.445312 4.929688 7.082031 5.289062 C 6.464844 4.734375 5.84375 4.183594 5.222656 3.632812 C 5.167969 3.585938 5.070312 3.589844 5.007812 3.644531 C 4.941406 3.699219 4.933594 3.785156 4.988281 3.835938 C 5.640625 4.433594 6.289062 5.03125 6.9375 5.628906 C 6.992188 5.683594 7.097656 5.671875 7.164062 5.601562 C 7.511719 5.253906 7.859375 4.90625 8.207031 4.558594 C 8.273438 4.492188 8.285156 4.398438 8.226562 4.355469 C 8.167969 4.308594 8.066406 4.328125 7.996094 4.394531 Z M 7.996094 4.394531 "/>
<path style=" stroke:none;fill-rule:evenodd;fill:rgb(0%,0%,0%);fill-opacity:1;" d="M 8.683594 3.90625 C 8.742188 3.945312 8.730469 4.035156 8.664062 4.105469 C 8.59375 4.171875 8.492188 4.195312 8.433594 4.152344 C 7.785156 3.667969 7.132812 3.1875 6.476562 2.714844 C 6.421875 2.679688 6.433594 2.609375 6.507812 2.566406 C 6.582031 2.519531 6.683594 2.515625 6.738281 2.550781 C 7.394531 2.992188 8.039062 3.449219 8.683594 3.90625 Z M 8.683594 3.90625 "/>
<path style=" stroke:none;fill-rule:evenodd;fill:rgb(0%,0%,0%);fill-opacity:1;" d="M 8.226562 1.714844 C 8.144531 1.746094 8.121094 1.789062 8.171875 1.808594 C 8.632812 2.003906 9.089844 2.214844 9.542969 2.425781 C 8.785156 2.433594 8.027344 2.363281 7.28125 2.242188 C 7.226562 2.210938 7.121094 2.21875 7.046875 2.257812 C 6.972656 2.300781 6.953125 2.359375 7.007812 2.394531 C 7.65625 2.804688 8.296875 3.230469 8.933594 3.660156 C 8.992188 3.699219 9.09375 3.675781 9.160156 3.605469 C 9.230469 3.535156 9.242188 3.453125 9.183594 3.414062 C 8.707031 3.105469 8.222656 2.804688 7.730469 2.511719 C 8.480469 2.617188 9.238281 2.671875 9.996094 2.648438 C 9.996094 2.648438 9.996094 2.644531 9.996094 2.644531 C 10.050781 2.660156 10.140625 2.628906 10.203125 2.5625 C 10.273438 2.496094 10.285156 2.421875 10.234375 2.398438 C 9.648438 2.148438 9.0625 1.90625 8.460938 1.6875 C 8.410156 1.671875 8.304688 1.679688 8.226562 1.714844 Z M 8.226562 1.714844 "/>
<path style=" stroke:none;fill-rule:evenodd;fill:rgb(27.45098%,43.137255%,33.333333%);fill-opacity:1;" d="M 10.0625 1.15625 C 9.632812 1.25 9.207031 1.367188 8.789062 1.507812 C 8.707031 1.535156 8.679688 1.570312 8.730469 1.582031 C 9.3125 1.757812 9.894531 1.957031 10.464844 2.175781 C 10.515625 2.195312 10.613281 2.15625 10.679688 2.085938 C 11.027344 1.738281 11.375 1.390625 11.722656 1.042969 C 11.792969 0.976562 11.8125 0.921875 11.769531 0.925781 C 11.273438 0.953125 10.78125 1.015625 10.292969 1.109375 C 10.253906 1.117188 10.148438 1.136719 10.0625 1.15625 Z M 10.0625 1.179688 C 10.519531 1.148438 10.976562 1.144531 11.4375 1.160156 C 11.113281 1.457031 10.949219 1.605469 10.625 1.90625 C 10.125 1.75 9.621094 1.613281 9.109375 1.496094 C 9.484375 1.355469 9.675781 1.292969 10.0625 1.179688 Z M 10.0625 1.179688 "/>
<path style=" stroke:none;fill-rule:evenodd;fill:rgb(0%,0%,0%);fill-opacity:1;" d="M 1.507812 8.789062 C 1.367188 9.207031 1.25 9.632812 1.15625 10.0625 C 1.140625 10.148438 1.117188 10.25 1.109375 10.292969 C 1.015625 10.78125 0.953125 11.273438 0.925781 11.769531 C 0.921875 11.8125 0.976562 11.789062 1.042969 11.722656 C 1.113281 11.652344 1.167969 11.5625 1.164062 11.515625 C 1.160156 11.378906 1.15625 11.3125 1.152344 11.175781 C 1.414062 10.839844 1.550781 10.671875 1.820312 10.339844 C 1.863281 10.488281 1.886719 10.566406 1.933594 10.714844 C 1.949219 10.765625 2.019531 10.75 2.085938 10.679688 C 2.15625 10.613281 2.195312 10.515625 2.175781 10.464844 C 1.957031 9.894531 1.757812 9.3125 1.582031 8.726562 C 1.570312 8.679688 1.535156 8.707031 1.507812 8.789062 Z M 1.152344 11.015625 C 1.148438 10.628906 1.15625 10.4375 1.179688 10.0625 C 1.292969 9.675781 1.355469 9.484375 1.496094 9.109375 C 1.589844 9.523438 1.644531 9.734375 1.765625 10.164062 C 1.515625 10.503906 1.390625 10.671875 1.152344 11.015625 Z M 1.152344 11.015625 "/>
<path style=" stroke:none;fill-rule:evenodd;fill:rgb(0%,0%,0%);fill-opacity:1;" d="M 2.273438 7.023438 C 2.230469 7.097656 2.226562 7.203125 2.257812 7.257812 C 2.453125 7.871094 2.636719 8.484375 2.792969 9.109375 C 2.457031 8.800781 2.125 8.492188 1.820312 8.148438 C 1.820312 8.148438 1.824219 8.148438 1.824219 8.148438 C 1.820312 8.148438 1.820312 8.148438 1.820312 8.148438 C 1.800781 8.097656 1.753906 8.121094 1.722656 8.199219 C 1.691406 8.28125 1.679688 8.386719 1.699219 8.4375 C 2.066406 8.898438 2.492188 9.292969 2.925781 9.6875 C 2.957031 9.742188 3.039062 9.730469 3.105469 9.660156 C 3.175781 9.589844 3.203125 9.492188 3.171875 9.4375 C 2.945312 8.609375 2.691406 7.792969 2.410156 6.984375 C 2.375 6.929688 2.3125 6.945312 2.273438 7.023438 Z M 2.273438 7.023438 "/>
<path style=" stroke:none;fill-rule:evenodd;fill:rgb(0%,0%,0%);fill-opacity:1;" d="M 4.699219 7.054688 C 4.761719 6.984375 4.773438 6.882812 4.722656 6.828125 C 4.675781 6.769531 4.582031 6.777344 4.519531 6.847656 C 4.183594 7.210938 4.015625 7.394531 3.691406 7.769531 C 3.394531 7.363281 3.097656 6.960938 2.804688 6.550781 C 3.054688 6.167969 3.191406 5.980469 3.476562 5.621094 C 3.53125 5.554688 3.535156 5.457031 3.488281 5.402344 C 3.441406 5.347656 3.359375 5.355469 3.308594 5.421875 C 2.996094 5.832031 2.847656 6.042969 2.578125 6.484375 C 2.535156 6.558594 2.53125 6.660156 2.566406 6.714844 C 3.011719 7.371094 3.464844 8.019531 3.925781 8.660156 C 3.96875 8.71875 4.058594 8.710938 4.125 8.640625 C 4.472656 8.292969 4.820312 7.945312 5.167969 7.597656 C 5.238281 7.53125 5.25 7.425781 5.199219 7.371094 C 5.148438 7.3125 5.054688 7.320312 4.988281 7.390625 C 4.628906 7.753906 4.449219 7.9375 4.09375 8.308594 C 3.992188 8.175781 3.945312 8.109375 3.84375 7.976562 C 4.183594 7.605469 4.351562 7.417969 4.699219 7.054688 Z M 4.699219 7.054688 "/>
<path style=" stroke:none;fill-rule:evenodd;fill:rgb(0%,0%,0%);fill-opacity:1;" d="M 6.480469 5.882812 C 6.117188 6.242188 5.9375 6.425781 5.578125 6.789062 C 5.007812 6.175781 4.4375 5.5625 3.871094 4.945312 C 3.820312 4.894531 3.734375 4.902344 3.679688 4.964844 C 3.625 5.03125 3.621094 5.128906 3.667969 5.183594 C 4.253906 5.835938 4.839844 6.488281 5.425781 7.140625 C 5.476562 7.199219 5.578125 7.191406 5.644531 7.121094 C 5.992188 6.773438 6.339844 6.425781 6.6875 6.078125 C 6.757812 6.011719 6.765625 5.910156 6.707031 5.855469 C 6.652344 5.800781 6.550781 5.8125 6.480469 5.882812 Z M 6.480469 5.882812 "/>
<path style=" stroke:none;fill-rule:evenodd;fill:rgb(0%,0%,0%);fill-opacity:1;" d="M 7.996094 4.394531 C 7.628906 4.75 7.445312 4.929688 7.082031 5.289062 C 6.464844 4.734375 5.84375 4.183594 5.222656 3.632812 C 5.167969 3.585938 5.070312 3.589844 5.007812 3.644531 C 4.941406 3.699219 4.933594 3.785156 4.988281 3.835938 C 5.640625 4.433594 6.289062 5.03125 6.9375 5.628906 C 6.992188 5.683594 7.097656 5.671875 7.164062 5.601562 C 7.511719 5.253906 7.859375 4.90625 8.207031 4.558594 C 8.273438 4.492188 8.285156 4.398438 8.226562 4.355469 C 8.167969 4.308594 8.066406 4.328125 7.996094 4.394531 Z M 7.996094 4.394531 "/>
<path style=" stroke:none;fill-rule:evenodd;fill:rgb(0%,0%,0%);fill-opacity:1;" d="M 8.683594 3.90625 C 8.742188 3.945312 8.730469 4.035156 8.664062 4.105469 C 8.59375 4.171875 8.492188 4.195312 8.433594 4.152344 C 7.785156 3.667969 7.132812 3.1875 6.476562 2.714844 C 6.421875 2.679688 6.433594 2.609375 6.507812 2.566406 C 6.582031 2.519531 6.683594 2.515625 6.738281 2.550781 C 7.394531 2.992188 8.039062 3.449219 8.683594 3.90625 Z M 8.683594 3.90625 "/>
<path style=" stroke:none;fill-rule:evenodd;fill:rgb(0%,0%,0%);fill-opacity:1;" d="M 8.226562 1.714844 C 8.144531 1.746094 8.121094 1.789062 8.171875 1.808594 C 8.632812 2.003906 9.089844 2.214844 9.542969 2.425781 C 8.785156 2.433594 8.027344 2.363281 7.28125 2.242188 C 7.226562 2.210938 7.121094 2.21875 7.046875 2.257812 C 6.972656 2.300781 6.953125 2.359375 7.007812 2.394531 C 7.65625 2.804688 8.296875 3.230469 8.933594 3.660156 C 8.992188 3.699219 9.09375 3.675781 9.160156 3.605469 C 9.230469 3.535156 9.242188 3.453125 9.183594 3.414062 C 8.707031 3.105469 8.222656 2.804688 7.730469 2.511719 C 8.480469 2.617188 9.238281 2.671875 9.996094 2.648438 C 9.996094 2.648438 9.996094 2.644531 9.996094 2.644531 C 10.050781 2.660156 10.140625 2.628906 10.203125 2.5625 C 10.273438 2.496094 10.285156 2.421875 10.234375 2.398438 C 9.648438 2.148438 9.0625 1.90625 8.460938 1.6875 C 8.410156 1.671875 8.304688 1.679688 8.226562 1.714844 Z M 8.226562 1.714844 "/>
<path style=" stroke:none;fill-rule:evenodd;fill:rgb(0%,0%,0%);fill-opacity:1;" d="M 10.0625 1.15625 C 9.632812 1.25 9.207031 1.367188 8.789062 1.507812 C 8.707031 1.535156 8.679688 1.570312 8.730469 1.582031 C 9.3125 1.757812 9.894531 1.957031 10.464844 2.175781 C 10.515625 2.195312 10.613281 2.15625 10.679688 2.085938 C 11.027344 1.738281 11.375 1.390625 11.722656 1.042969 C 11.792969 0.976562 11.8125 0.921875 11.769531 0.925781 C 11.273438 0.953125 10.78125 1.015625 10.292969 1.109375 C 10.253906 1.117188 10.148438 1.136719 10.0625 1.15625 Z M 10.0625 1.179688 C 10.519531 1.148438 10.976562 1.144531 11.4375 1.160156 C 11.113281 1.457031 10.949219 1.605469 10.625 1.90625 C 10.125 1.75 9.621094 1.613281 9.109375 1.496094 C 9.484375 1.355469 9.675781 1.292969 10.0625 1.179688 Z M 10.0625 1.179688 "/>
<path style=" stroke:none;fill-rule:evenodd;fill:rgb(0%,0%,0%);fill-opacity:1;" d="M 14.855469 1.808594 C 14.488281 1.535156 14.304688 1.402344 13.929688 1.140625 C 14.316406 1.140625 14.507812 1.144531 14.882812 1.175781 C 15.304688 1.292969 15.511719 1.363281 15.917969 1.519531 C 15.992188 1.546875 16.09375 1.5625 16.140625 1.546875 C 16.191406 1.535156 16.167969 1.503906 16.089844 1.476562 C 15.621094 1.324219 15.382812 1.257812 14.894531 1.15625 C 14.8125 1.136719 14.714844 1.117188 14.671875 1.109375 C 14.25 1.027344 14.035156 1 13.601562 0.957031 C 13.558594 0.953125 13.578125 0.992188 13.648438 1.046875 C 14.011719 1.328125 14.195312 1.472656 14.554688 1.761719 C 14.441406 1.792969 14.386719 1.8125 14.273438 1.84375 C 13.921875 1.519531 13.746094 1.359375 13.394531 1.039062 C 13.328125 0.976562 13.238281 0.925781 13.195312 0.925781 C 13.152344 0.921875 13.167969 0.972656 13.234375 1.035156 C 13.558594 1.363281 13.886719 1.6875 14.210938 2.011719 C 14.277344 2.078125 14.367188 2.117188 14.417969 2.097656 C 14.609375 2.027344 14.703125 1.996094 14.890625 1.933594 C 14.941406 1.914062 14.925781 1.859375 14.855469 1.808594 Z M 14.855469 1.808594 "/>
<path style=" stroke:none;fill-rule:evenodd;fill:rgb(0%,0%,0%);fill-opacity:1;" d="M 14.59375 2.265625 C 14.644531 2.246094 14.738281 2.277344 14.804688 2.339844 C 14.871094 2.402344 14.882812 2.46875 14.828125 2.492188 C 14.777344 2.519531 14.683594 2.484375 14.617188 2.421875 C 14.554688 2.355469 14.542969 2.285156 14.59375 2.265625 Z M 14.59375 2.265625 "/>
<path style=" stroke:none;fill-rule:evenodd;fill:rgb(0%,0%,0%);fill-opacity:1;" d="M 18.15625 2.390625 C 17.734375 2.152344 17.515625 2.042969 17.066406 1.847656 C 16.992188 1.816406 16.890625 1.808594 16.839844 1.832031 C 16.226562 2.101562 15.625 2.386719 15.023438 2.683594 C 14.972656 2.707031 14.980469 2.78125 15.046875 2.847656 C 15.109375 2.914062 15.207031 2.941406 15.261719 2.910156 C 15.425781 2.820312 15.507812 2.773438 15.671875 2.6875 C 16.027344 2.992188 16.203125 3.144531 16.554688 3.457031 C 16.621094 3.515625 16.71875 3.53125 16.777344 3.492188 C 17.242188 3.164062 17.710938 2.84375 18.183594 2.527344 C 18.238281 2.492188 18.226562 2.429688 18.15625 2.390625 Z M 15.863281 2.585938 C 16.246094 2.382812 16.628906 2.1875 17.015625 2 C 17.347656 2.164062 17.511719 2.253906 17.835938 2.441406 C 17.433594 2.695312 17.035156 2.953125 16.636719 3.214844 C 16.332031 2.960938 16.175781 2.832031 15.863281 2.585938 Z M 15.863281 2.585938 "/>
<path style=" stroke:none;fill-rule:evenodd;fill:rgb(0%,0%,0%);fill-opacity:1;" d="M 16.4375 4.058594 C 16.492188 4.015625 16.59375 4.03125 16.65625 4.09375 C 16.722656 4.15625 16.726562 4.246094 16.671875 4.289062 C 16.613281 4.332031 16.515625 4.316406 16.449219 4.25 C 16.386719 4.1875 16.378906 4.101562 16.4375 4.058594 Z M 16.4375 4.058594 "/>
<path style=" stroke:none;fill-rule:evenodd;fill:rgb(0%,0%,0%);fill-opacity:1;" d="M 19.988281 3.671875 C 19.621094 3.359375 19.429688 3.210938 19.03125 2.9375 C 18.96875 2.894531 18.867188 2.890625 18.8125 2.933594 C 18.152344 3.433594 17.496094 3.945312 16.84375 4.457031 C 16.785156 4.503906 16.792969 4.59375 16.855469 4.660156 C 16.921875 4.722656 17.019531 4.738281 17.078125 4.691406 C 17.253906 4.542969 17.34375 4.472656 17.519531 4.332031 C 17.816406 4.605469 17.964844 4.746094 18.257812 5.027344 C 18.085938 5.1875 17.996094 5.265625 17.820312 5.425781 C 17.761719 5.476562 17.769531 5.570312 17.832031 5.636719 C 17.898438 5.699219 17.996094 5.710938 18.054688 5.65625 C 18.703125 5.054688 19.351562 4.453125 20 3.855469 C 20.054688 3.808594 20.050781 3.722656 19.988281 3.671875 Z M 17.726562 4.160156 C 18.132812 3.832031 18.542969 3.503906 18.953125 3.179688 C 19.253906 3.398438 19.398438 3.515625 19.683594 3.753906 C 19.273438 4.117188 18.867188 4.480469 18.464844 4.84375 C 18.171875 4.566406 18.023438 4.429688 17.726562 4.160156 Z M 17.726562 4.160156 "/>
<path style=" stroke:none;fill-rule:evenodd;fill:rgb(0%,0%,0%);fill-opacity:1;" d="M 18.226562 5.828125 C 18.285156 5.773438 18.382812 5.78125 18.445312 5.84375 C 18.507812 5.910156 18.515625 6.003906 18.460938 6.058594 C 18.402344 6.113281 18.304688 6.105469 18.238281 6.042969 C 18.175781 5.976562 18.167969 5.882812 18.226562 5.828125 Z M 18.226562 5.828125 "/>
<path style=" stroke:none;fill-rule:evenodd;fill:rgb(0%,0%,0%);fill-opacity:1;" d="M 19.847656 7.257812 C 19.703125 7.109375 19.628906 7.035156 19.484375 6.886719 C 20.050781 6.273438 20.613281 5.65625 21.175781 5.039062 C 21.222656 4.984375 21.222656 4.894531 21.167969 4.832031 C 21.007812 4.652344 20.925781 4.5625 20.757812 4.390625 C 20.703125 4.335938 20.617188 4.332031 20.5625 4.382812 C 20.511719 4.4375 20.515625 4.523438 20.570312 4.582031 C 20.699219 4.714844 20.765625 4.78125 20.890625 4.921875 C 20.347656 5.5 19.800781 6.078125 19.253906 6.65625 C 19.109375 6.507812 19.035156 6.433594 18.886719 6.285156 C 18.824219 6.222656 18.726562 6.214844 18.671875 6.273438 C 18.617188 6.328125 18.625 6.425781 18.6875 6.488281 C 19.011719 6.816406 19.339844 7.140625 19.664062 7.46875 C 19.730469 7.53125 19.824219 7.535156 19.871094 7.480469 C 19.921875 7.421875 19.914062 7.320312 19.847656 7.257812 Z M 19.847656 7.257812 "/>
<path style=" stroke:none;fill-rule:evenodd;fill:rgb(0%,0%,0%);fill-opacity:1;" d="M 22.53125 6.730469 C 22.289062 6.3125 22.15625 6.109375 21.875 5.714844 C 21.828125 5.652344 21.753906 5.644531 21.707031 5.699219 C 21.316406 6.175781 20.917969 6.652344 20.519531 7.128906 C 20.472656 7.1875 20.484375 7.285156 20.542969 7.347656 C 20.863281 7.695312 21.023438 7.867188 21.335938 8.21875 C 21.242188 8.347656 21.195312 8.414062 21.101562 8.546875 C 20.769531 8.203125 20.601562 8.027344 20.265625 7.683594 C 20.203125 7.621094 20.113281 7.613281 20.0625 7.671875 C 20.015625 7.730469 20.027344 7.828125 20.089844 7.894531 C 20.417969 8.21875 20.742188 8.546875 21.070312 8.871094 C 21.132812 8.9375 21.21875 8.941406 21.257812 8.886719 C 21.691406 8.246094 22.121094 7.605469 22.539062 6.957031 C 22.574219 6.902344 22.570312 6.800781 22.53125 6.730469 Z M 20.820312 7.261719 C 21.148438 6.851562 21.476562 6.441406 21.800781 6.03125 C 22.019531 6.332031 22.125 6.488281 22.324219 6.804688 C 22.046875 7.210938 21.765625 7.613281 21.480469 8.015625 C 21.222656 7.710938 21.089844 7.558594 20.820312 7.261719 Z M 20.820312 7.261719 "/>
<path style=" stroke:none;fill-rule:evenodd;fill:rgb(0%,0%,0%);fill-opacity:1;" d="M 22.597656 10.128906 C 22.457031 9.976562 22.382812 9.902344 22.242188 9.75 C 22.535156 9.179688 22.820312 8.605469 23.085938 8.019531 C 23.109375 7.96875 23.101562 7.867188 23.070312 7.792969 C 22.96875 7.570312 22.917969 7.460938 22.808594 7.242188 C 22.769531 7.171875 22.714844 7.15625 22.683594 7.210938 C 22.652344 7.261719 22.65625 7.363281 22.695312 7.433594 C 22.785156 7.597656 22.828125 7.679688 22.914062 7.847656 C 22.628906 8.410156 22.328125 8.964844 22.019531 9.515625 C 21.878906 9.363281 21.804688 9.289062 21.664062 9.136719 C 21.601562 9.074219 21.523438 9.066406 21.484375 9.121094 C 21.449219 9.175781 21.472656 9.273438 21.535156 9.339844 C 21.863281 9.664062 22.1875 9.988281 22.511719 10.316406 C 22.578125 10.378906 22.648438 10.390625 22.667969 10.339844 C 22.691406 10.289062 22.65625 10.195312 22.597656 10.128906 Z M 22.597656 10.128906 "/>
<path style=" stroke:none;fill-rule:evenodd;fill:rgb(0%,0%,0%);fill-opacity:1;" d="M 23.917969 11.316406 C 23.972656 11.386719 24.011719 11.40625 24.007812 11.363281 C 23.964844 10.929688 23.933594 10.714844 23.855469 10.292969 C 23.847656 10.253906 23.828125 10.152344 23.808594 10.070312 C 23.707031 9.582031 23.640625 9.34375 23.488281 8.875 C 23.460938 8.800781 23.429688 8.777344 23.417969 8.824219 C 23.402344 8.871094 23.417969 8.972656 23.445312 9.046875 C 23.601562 9.453125 23.667969 9.660156 23.789062 10.082031 C 23.816406 10.457031 23.824219 10.648438 23.824219 11.035156 C 23.5625 10.660156 23.429688 10.476562 23.15625 10.109375 C 23.105469 10.039062 23.050781 10.023438 23.03125 10.074219 C 22.96875 10.261719 22.9375 10.355469 22.867188 10.546875 C 22.847656 10.59375 22.886719 10.6875 22.949219 10.753906 C 23.277344 11.078125 23.601562 11.402344 23.925781 11.730469 C 23.992188 11.792969 24.042969 11.8125 24.039062 11.769531 C 24.039062 11.726562 23.984375 11.636719 23.925781 11.570312 C 23.605469 11.21875 23.445312 11.042969 23.121094 10.691406 C 23.152344 10.578125 23.171875 10.523438 23.199219 10.410156 C 23.492188 10.769531 23.636719 10.953125 23.917969 11.316406 Z M 23.917969 11.316406 "/>
<path style=" stroke:none;fill-rule:evenodd;fill:rgb(0%,0%,0%);fill-opacity:1;" d="M 23.265625 16.699219 C 23.308594 16.589844 23.328125 16.457031 23.3125 16.410156 C 23.121094 15.847656 22.910156 15.289062 22.683594 14.742188 C 23.027344 14.371094 23.371094 14 23.714844 13.625 C 23.75 14.117188 23.765625 14.605469 23.746094 15.097656 C 23.746094 15.140625 23.769531 15.082031 23.792969 14.960938 C 23.820312 14.84375 23.847656 14.714844 23.855469 14.671875 C 23.949219 14.183594 24.007812 13.691406 24.039062 13.195312 C 24.042969 13.152344 23.96875 13.195312 23.871094 13.289062 C 23.390625 13.769531 22.914062 14.25 22.433594 14.726562 C 22.335938 14.824219 22.28125 14.945312 22.308594 14.996094 C 22.601562 15.597656 22.878906 16.199219 23.144531 16.808594 C 23.167969 16.859375 23.222656 16.8125 23.265625 16.699219 Z M 23.265625 16.699219 "/>
<path style=" stroke:none;fill-rule:evenodd;fill:rgb(0%,0%,0%);fill-opacity:1;" d="M 22.027344 19.035156 C 22.09375 18.9375 22.113281 18.8125 22.070312 18.757812 C 21.695312 18.257812 21.316406 17.761719 20.933594 17.269531 C 21.546875 17.382812 22.15625 17.5 22.773438 17.585938 C 22.800781 17.640625 22.871094 17.597656 22.921875 17.492188 C 22.972656 17.382812 22.992188 17.253906 22.964844 17.203125 C 22.644531 16.574219 22.316406 15.957031 21.972656 15.34375 C 21.941406 15.289062 21.839844 15.324219 21.742188 15.417969 C 21.648438 15.511719 21.601562 15.636719 21.632812 15.691406 C 21.933594 16.167969 22.226562 16.652344 22.511719 17.136719 C 21.855469 17.03125 21.203125 16.902344 20.550781 16.777344 C 20.546875 16.777344 20.546875 16.777344 20.546875 16.777344 C 20.496094 16.738281 20.390625 16.769531 20.304688 16.855469 C 20.210938 16.953125 20.171875 17.078125 20.21875 17.132812 C 20.757812 17.789062 21.292969 18.445312 21.824219 19.109375 C 21.867188 19.164062 21.957031 19.128906 22.027344 19.035156 Z M 22.027344 19.035156 "/>
<path style=" stroke:none;fill-rule:evenodd;fill:rgb(0%,0%,0%);fill-opacity:1;" d="M 19.539062 17.824219 C 19.484375 17.765625 19.519531 17.640625 19.613281 17.546875 C 19.710938 17.453125 19.828125 17.421875 19.878906 17.480469 C 20.445312 18.132812 21.007812 18.789062 21.566406 19.449219 C 21.613281 19.503906 21.589844 19.625 21.515625 19.714844 C 21.445312 19.808594 21.34375 19.835938 21.296875 19.78125 C 20.710938 19.128906 20.125 18.476562 19.539062 17.824219 Z M 19.539062 17.824219 "/>
<path style=" stroke:none;fill-rule:evenodd;fill:rgb(0%,0%,0%);fill-opacity:1;" d="M 19.6875 21.539062 C 20.148438 21.171875 20.585938 20.769531 20.988281 20.332031 C 21.066406 20.246094 21.089844 20.132812 21.039062 20.078125 C 20.4375 19.429688 19.832031 18.785156 19.226562 18.136719 C 19.171875 18.082031 19.050781 18.109375 18.957031 18.207031 C 18.476562 18.6875 17.996094 19.164062 17.515625 19.644531 C 17.421875 19.742188 17.390625 19.859375 17.449219 19.910156 C 18.105469 20.472656 18.761719 21.03125 19.421875 21.589844 C 19.476562 21.632812 19.59375 21.613281 19.6875 21.539062 Z M 19.65625 21.230469 C 19.066406 20.710938 18.480469 20.1875 17.898438 19.660156 C 18.261719 19.304688 18.621094 18.941406 18.984375 18.582031 C 19.539062 19.152344 20.097656 19.722656 20.652344 20.296875 C 20.335938 20.625 20.003906 20.9375 19.65625 21.230469 Z M 19.65625 21.230469 "/>
<path style=" stroke:none;fill-rule:evenodd;fill:rgb(0%,0%,0%);fill-opacity:1;" d="M 17.488281 22.921875 C 17.597656 22.871094 17.640625 22.800781 17.585938 22.773438 C 17.105469 22.496094 16.625 22.210938 16.152344 21.921875 C 17.027344 21.914062 17.886719 21.972656 18.757812 22.070312 C 18.8125 22.113281 18.9375 22.09375 19.03125 22.027344 C 19.128906 21.960938 19.164062 21.867188 19.109375 21.824219 C 18.445312 21.292969 17.789062 20.757812 17.132812 20.21875 C 17.078125 20.171875 16.953125 20.210938 16.855469 20.304688 C 16.761719 20.398438 16.730469 20.515625 16.789062 20.558594 C 17.289062 20.949219 17.789062 21.335938 18.292969 21.71875 C 17.417969 21.636719 16.558594 21.597656 15.679688 21.625 C 15.675781 21.628906 15.675781 21.628906 15.675781 21.628906 C 15.617188 21.609375 15.503906 21.65625 15.417969 21.742188 C 15.324219 21.839844 15.289062 21.941406 15.34375 21.972656 C 15.957031 22.316406 16.574219 22.644531 17.203125 22.964844 C 17.253906 22.992188 17.382812 22.972656 17.488281 22.921875 Z M 17.488281 22.921875 "/>
<path style=" stroke:none;fill-rule:evenodd;fill:rgb(0%,0%,0%);fill-opacity:1;" d="M 13.707031 23.875 C 13.605469 23.953125 13.558594 24.011719 13.601562 24.007812 C 13.640625 24.003906 13.761719 23.941406 13.863281 23.871094 C 14.324219 23.550781 14.777344 23.21875 15.222656 22.878906 C 15.667969 23.054688 15.886719 23.132812 16.320312 23.28125 C 15.820312 23.480469 15.324219 23.65625 14.808594 23.8125 C 14.691406 23.84375 14.628906 23.863281 14.671875 23.855469 C 14.710938 23.847656 14.84375 23.820312 14.960938 23.792969 C 15.554688 23.664062 16.136719 23.488281 16.699219 23.265625 C 16.8125 23.222656 16.859375 23.167969 16.808594 23.148438 C 16.199219 22.878906 15.59375 22.601562 14.996094 22.308594 C 14.945312 22.28125 14.824219 22.339844 14.726562 22.433594 C 14.25 22.914062 13.769531 23.390625 13.289062 23.871094 C 13.195312 23.96875 13.152344 24.042969 13.195312 24.039062 C 13.238281 24.039062 13.351562 23.964844 13.449219 23.875 C 13.882812 23.480469 14.3125 23.082031 14.742188 22.683594 C 14.863281 22.734375 14.921875 22.757812 15.039062 22.804688 C 14.601562 23.167969 14.15625 23.523438 13.707031 23.875 Z M 13.707031 23.875 "/>
<path style=" stroke:none;fill-rule:evenodd;fill:rgb(0%,0%,0%);fill-opacity:1;" d="M 9.988281 23.066406 C 10.390625 23.371094 10.597656 23.519531 11.007812 23.804688 C 10.621094 23.808594 10.429688 23.804688 10.050781 23.78125 C 9.589844 23.648438 9.359375 23.570312 8.914062 23.394531 C 8.832031 23.359375 8.722656 23.34375 8.675781 23.359375 C 8.625 23.375 8.65625 23.410156 8.738281 23.441406 C 9.171875 23.589844 9.609375 23.710938 10.054688 23.804688 C 10.144531 23.824219 10.25 23.847656 10.292969 23.855469 C 10.714844 23.933594 10.929688 23.964844 11.363281 24.007812 C 11.40625 24.011719 11.378906 23.96875 11.304688 23.910156 C 10.902344 23.597656 10.699219 23.4375 10.300781 23.113281 C 10.417969 23.078125 10.472656 23.0625 10.589844 23.023438 C 10.910156 23.324219 11.234375 23.621094 11.558594 23.914062 C 11.632812 23.980469 11.726562 24.039062 11.769531 24.039062 C 11.8125 24.042969 11.789062 23.988281 11.71875 23.914062 C 11.359375 23.554688 11 23.195312 10.640625 22.835938 C 10.570312 22.765625 10.46875 22.726562 10.417969 22.746094 C 10.226562 22.820312 10.128906 22.855469 9.941406 22.929688 C 9.890625 22.945312 9.910156 23.007812 9.988281 23.066406 Z M 9.988281 23.066406 "/>
<path style=" stroke:none;fill-rule:evenodd;fill:rgb(0%,0%,0%);fill-opacity:1;" d="M 6.945312 22.648438 C 7.335938 22.863281 7.742188 23.054688 8.160156 23.222656 C 8.242188 23.257812 8.347656 23.269531 8.398438 23.25 C 9 23.023438 9.59375 22.773438 10.179688 22.515625 C 10.234375 22.492188 10.21875 22.414062 10.144531 22.34375 C 10.074219 22.273438 9.972656 22.234375 9.921875 22.261719 C 9.757812 22.34375 9.675781 22.386719 9.515625 22.464844 C 9.1875 22.1875 8.859375 21.90625 8.539062 21.621094 C 8.464844 21.558594 8.359375 21.535156 8.304688 21.574219 C 7.839844 21.890625 7.371094 22.203125 6.902344 22.507812 C 6.847656 22.542969 6.867188 22.605469 6.945312 22.648438 Z M 9.324219 22.558594 C 8.867188 22.78125 8.640625 22.886719 8.195312 23.082031 C 7.820312 22.90625 7.636719 22.8125 7.277344 22.609375 C 7.679688 22.367188 8.074219 22.117188 8.46875 21.867188 C 8.808594 22.148438 8.980469 22.285156 9.324219 22.558594 Z M 9.324219 22.558594 "/>
<path style=" stroke:none;fill-rule:evenodd;fill:rgb(0%,0%,0%);fill-opacity:1;" d="M 5.324219 21.578125 C 5.671875 21.851562 6.035156 22.105469 6.414062 22.339844 C 6.488281 22.386719 6.59375 22.394531 6.648438 22.355469 C 7.304688 21.90625 7.953125 21.441406 8.597656 20.976562 C 8.65625 20.933594 8.644531 20.84375 8.574219 20.769531 C 8.214844 20.410156 7.855469 20.050781 7.496094 19.691406 C 7.425781 19.621094 7.320312 19.605469 7.261719 19.65625 C 6.609375 20.238281 5.953125 20.816406 5.296875 21.390625 C 5.242188 21.4375 5.253906 21.523438 5.324219 21.578125 Z M 5.648438 21.507812 C 6.238281 21.007812 6.828125 20.507812 7.414062 20.003906 C 7.742188 20.324219 7.90625 20.484375 8.234375 20.800781 C 7.652344 21.242188 7.066406 21.679688 6.476562 22.113281 C 6.136719 21.882812 5.96875 21.761719 5.648438 21.507812 Z M 5.648438 21.507812 "/>
<path style=" stroke:none;fill-rule:evenodd;fill:rgb(0%,0%,0%);fill-opacity:1;" d="M 5.644531 18.1875 C 5.671875 18.496094 5.683594 18.648438 5.707031 18.949219 C 5.585938 18.828125 5.523438 18.769531 5.402344 18.644531 C 5.335938 18.574219 5.238281 18.5625 5.183594 18.621094 C 4.75 19.089844 4.316406 19.558594 3.882812 20.027344 C 3.832031 20.082031 3.839844 20.179688 3.898438 20.246094 C 4.195312 20.574219 4.511719 20.886719 4.84375 21.175781 C 4.910156 21.234375 5.007812 21.242188 5.0625 21.191406 C 5.714844 20.601562 6.367188 20.007812 7.015625 19.414062 C 7.074219 19.359375 7.0625 19.257812 6.988281 19.1875 C 6.917969 19.117188 6.816406 19.101562 6.757812 19.15625 C 6.582031 19.320312 6.496094 19.402344 6.324219 19.566406 C 6.210938 19.457031 6.15625 19.398438 6.042969 19.289062 C 6.015625 18.878906 6.003906 18.667969 5.964844 18.238281 C 5.957031 18.148438 5.878906 18.0625 5.789062 18.050781 C 5.703125 18.035156 5.636719 18.097656 5.644531 18.1875 Z M 4.917969 20.890625 C 4.617188 20.613281 4.46875 20.46875 4.1875 20.167969 C 4.570312 19.769531 4.953125 19.371094 5.335938 18.972656 C 5.644531 19.292969 5.800781 19.449219 6.121094 19.757812 C 5.722656 20.136719 5.320312 20.511719 4.917969 20.890625 Z M 4.917969 20.890625 "/>
<path style=" stroke:none;fill-rule:evenodd;fill:rgb(0%,0%,0%);fill-opacity:1;" d="M 2.71875 18.703125 C 2.957031 19.078125 3.21875 19.4375 3.5 19.78125 C 3.554688 19.851562 3.640625 19.859375 3.6875 19.808594 C 3.738281 19.753906 3.730469 19.652344 3.671875 19.585938 C 3.542969 19.425781 3.476562 19.347656 3.351562 19.183594 C 3.871094 18.558594 4.394531 17.933594 4.917969 17.308594 C 4.96875 17.253906 4.949219 17.148438 4.878906 17.078125 C 4.808594 17.003906 4.710938 16.996094 4.664062 17.050781 C 4.15625 17.671875 3.65625 18.296875 3.160156 18.925781 C 3.039062 18.757812 2.980469 18.675781 2.863281 18.503906 C 2.8125 18.429688 2.742188 18.414062 2.703125 18.46875 C 2.664062 18.523438 2.671875 18.628906 2.71875 18.703125 Z M 2.71875 18.703125 "/>
<path style=" stroke:none;fill-rule:evenodd;fill:rgb(0%,0%,0%);fill-opacity:1;" d="M 4.046875 16.390625 C 4.082031 16.34375 4.167969 16.363281 4.238281 16.4375 C 4.308594 16.507812 4.339844 16.601562 4.300781 16.648438 C 3.898438 17.179688 3.496094 17.710938 3.097656 18.246094 C 3.0625 18.289062 2.996094 18.265625 2.941406 18.191406 C 2.890625 18.117188 2.875 18.019531 2.90625 17.976562 C 3.28125 17.441406 3.664062 16.917969 4.046875 16.390625 Z M 4.046875 16.390625 "/>
<path style=" stroke:none;fill-rule:evenodd;fill:rgb(0%,0%,0%);fill-opacity:1;" d="M 1.75 16.832031 C 1.785156 16.914062 1.832031 16.9375 1.851562 16.886719 C 1.851562 16.886719 1.855469 16.886719 1.855469 16.886719 C 1.855469 16.886719 1.855469 16.886719 1.851562 16.886719 C 2.167969 16.546875 2.511719 16.238281 2.859375 15.933594 C 2.691406 16.5625 2.511719 17.183594 2.3125 17.804688 C 2.277344 17.859375 2.285156 17.964844 2.328125 18.042969 C 2.371094 18.121094 2.433594 18.140625 2.46875 18.085938 C 2.757812 17.269531 3.019531 16.445312 3.25 15.609375 C 3.285156 15.554688 3.253906 15.453125 3.183594 15.378906 C 3.113281 15.308594 3.027344 15.296875 2.996094 15.347656 C 2.550781 15.742188 2.109375 16.132812 1.726562 16.589844 C 1.707031 16.640625 1.714844 16.75 1.75 16.832031 Z M 1.75 16.832031 "/>
<path style=" stroke:none;fill-rule:evenodd;fill:rgb(0%,0%,0%);fill-opacity:1;" d="M 1.160156 14.90625 C 1.253906 15.351562 1.375 15.792969 1.523438 16.222656 C 1.550781 16.308594 1.589844 16.339844 1.605469 16.289062 C 1.789062 15.699219 1.992188 15.121094 2.21875 14.546875 C 2.238281 14.496094 2.199219 14.394531 2.128906 14.324219 C 2.054688 14.253906 1.984375 14.234375 1.96875 14.285156 C 1.917969 14.4375 1.894531 14.511719 1.847656 14.664062 C 1.570312 14.316406 1.433594 14.144531 1.160156 13.796875 C 1.164062 13.660156 1.167969 13.59375 1.175781 13.457031 C 1.175781 13.410156 1.121094 13.316406 1.050781 13.246094 C 0.976562 13.175781 0.921875 13.152344 0.925781 13.195312 C 0.953125 13.691406 1.015625 14.183594 1.109375 14.671875 C 1.117188 14.710938 1.140625 14.816406 1.160156 14.90625 Z M 1.796875 14.839844 C 1.667969 15.269531 1.613281 15.480469 1.511719 15.898438 C 1.363281 15.511719 1.296875 15.3125 1.183594 14.914062 C 1.160156 14.535156 1.152344 14.34375 1.160156 13.957031 C 1.40625 14.3125 1.535156 14.488281 1.796875 14.839844 Z M 1.796875 14.839844 "/>
<path style=" stroke:none;fill-rule:evenodd;fill:rgb(8.235294%,48.235294%,18.823529%);fill-opacity:1;" d="M 16.542969 9.601562 C 16.542969 8.921875 14.394531 7.734375 14.394531 7.734375 L 14.394531 4.8125 L 14.050781 4.8125 C 14.050781 4.8125 13.546875 6.59375 12.695312 6.59375 C 12.613281 6.59375 12.542969 6.363281 12.480469 6.042969 L 12.480469 19.121094 L 13.210938 20.195312 L 14.167969 19.238281 L 14.167969 14.886719 L 18.796875 14.886719 C 19.234375 14.886719 19.121094 14.535156 19.121094 14.535156 C 18.273438 13.683594 16.261719 14.320312 16.261719 13.425781 C 16.261719 12.6875 18.363281 14.070312 19.183594 14.070312 C 19.550781 14.070312 20.28125 13.417969 20.28125 13.125 C 20.28125 12.515625 16.542969 10.757812 16.542969 9.601562 Z M 14.851562 10.347656 C 14.527344 10.347656 14.214844 10.179688 14.214844 10.023438 C 14.214844 9.898438 14.226562 9.832031 14.5625 9.832031 C 14.9375 9.832031 15.246094 10 15.246094 10.152344 C 15.246094 10.308594 15.171875 10.347656 14.851562 10.347656 Z M 14.851562 10.347656 "/>
<path style=" stroke:none;fill-rule:evenodd;fill:rgb(100%,100%,100%);fill-opacity:1;" d="M 12.03125 4.058594 C 11.535156 4.058594 10.203125 7.109375 10.203125 7.796875 C 9.453125 8.550781 8.421875 10.140625 8.421875 10.933594 C 8.421875 12.460938 6.464844 14.136719 6.464844 14.5 C 6.464844 14.757812 6.53125 14.867188 6.808594 14.867188 C 7.261719 14.867188 7.238281 15.230469 7.238281 15.53125 C 7.238281 15.960938 7.625 15.875 7.839844 15.875 C 8.335938 15.875 8.269531 16.070312 8.269531 16.304688 C 8.269531 16.863281 8.570312 16.929688 8.808594 16.929688 C 9.28125 16.929688 9.300781 17.316406 9.300781 17.507812 C 9.300781 17.851562 9.582031 17.722656 9.773438 17.722656 C 10.074219 17.722656 10.332031 18.132812 10.332031 18.519531 C 10.332031 18.710938 10.761719 18.753906 10.914062 18.753906 C 11.320312 18.753906 11.320312 19.292969 12.117188 19.292969 C 12.449219 19.292969 12.480469 19.121094 12.480469 19.121094 L 12.480469 6.042969 C 12.335938 5.296875 12.226562 4.058594 12.03125 4.058594 Z M 11.769531 6.101562 C 12.144531 6.101562 12.074219 7.351562 11.902344 7.351562 C 11.707031 7.351562 11.871094 6.488281 11.65625 6.488281 C 11.585938 6.488281 11.515625 6.398438 11.515625 6.300781 C 11.515625 6.203125 11.558594 6.101562 11.769531 6.101562 Z M 11 10.875 C 11 11.003906 11.0625 11.125 11.40625 11.125 C 11.945312 11.125 11.949219 11.429688 11.355469 11.429688 C 10.917969 11.429688 10.671875 11.171875 10.671875 10.867188 C 10.671875 10.609375 11 10.617188 11 10.875 Z M 10.742188 15.925781 C 10.742188 16.03125 10.917969 16.15625 11.125 16.15625 C 11.414062 16.15625 11.574219 15.738281 11.574219 16.148438 C 11.574219 16.328125 11.386719 16.414062 11.128906 16.414062 C 10.710938 16.414062 10.417969 16.210938 10.417969 15.941406 C 10.417969 15.625 10.742188 15.765625 10.742188 15.925781 Z M 9.773438 13.769531 C 9.773438 13.390625 10.167969 13.519531 10.167969 13.832031 C 10.167969 14.070312 10.402344 14.210938 10.617188 14.210938 C 10.832031 14.210938 11.183594 13.933594 11.183594 14.210938 C 11.183594 14.46875 10.871094 14.535156 10.484375 14.535156 C 10.054688 14.535156 9.773438 14.003906 9.773438 13.769531 Z M 10.125 10.484375 C 10.246094 10.484375 10.355469 10.554688 10.355469 10.671875 C 10.355469 10.789062 10.183594 10.953125 10.074219 10.953125 C 9.96875 10.953125 9.828125 10.882812 9.828125 10.746094 C 9.828125 10.613281 10 10.484375 10.125 10.484375 Z M 9.84375 12.222656 C 9.84375 12.433594 10.027344 12.671875 10.289062 12.671875 C 10.484375 12.671875 10.796875 12.085938 10.796875 12.605469 C 10.796875 12.851562 10.480469 12.992188 10.1875 12.992188 C 9.882812 12.992188 9.507812 12.671875 9.507812 12.371094 C 9.507812 11.859375 9.84375 12.015625 9.84375 12.222656 Z M 8.03125 14.136719 C 8.03125 13.738281 8.292969 13.925781 8.292969 14.132812 C 8.292969 14.28125 8.566406 14.480469 8.820312 14.480469 C 8.882812 14.480469 9.0625 14.492188 9.0625 14.425781 C 9.0625 14.285156 9.449219 14.183594 9.449219 14.539062 C 9.449219 14.726562 9.207031 14.792969 8.890625 14.792969 C 8.460938 14.792969 8.03125 14.535156 8.03125 14.136719 Z M 9.59375 16.027344 C 9.292969 16.027344 8.808594 15.601562 8.808594 15.3125 C 8.808594 14.953125 9.121094 15.058594 9.121094 15.25 C 9.121094 15.4375 9.28125 15.640625 9.585938 15.640625 C 9.707031 15.640625 9.835938 15.65625 9.835938 15.582031 C 9.835938 15.339844 10.097656 15.34375 10.097656 15.582031 C 10.097656 15.757812 9.894531 16.027344 9.59375 16.027344 Z M 10.871094 17.765625 C 10.496094 17.765625 10.03125 17.507812 10.03125 17.316406 C 10.03125 17 10.359375 17.226562 10.359375 17.226562 C 10.359375 17.226562 10.523438 17.457031 10.867188 17.457031 C 10.984375 17.457031 11.128906 17.429688 11.128906 17.316406 C 11.128906 17.203125 11.386719 17.097656 11.386719 17.441406 C 11.386719 17.636719 11.160156 17.765625 10.871094 17.765625 Z M 11.976562 18.730469 C 11.671875 18.730469 11.246094 18.546875 11.246094 18.21875 C 11.246094 17.992188 11.574219 18.046875 11.574219 18.21875 C 11.574219 18.363281 11.878906 18.40625 12.019531 18.40625 C 12.0625 18.40625 12.417969 18.25 12.417969 18.519531 C 12.417969 18.695312 12.257812 18.730469 11.976562 18.730469 Z M 11.976562 18.730469 "/>
</g>
</svg>
