<?xml version="1.0" encoding="UTF-8"?>
<svg xmlns="http://www.w3.org/2000/svg" xmlns:xlink="http://www.w3.org/1999/xlink" width="35pt" height="25pt" viewBox="0 0 35 25" version="1.1">
<g id="surface1">
<path style=" stroke:none;fill-rule:nonzero;fill:rgb(100%,100%,100%);fill-opacity:1;" d="M 17.589844 24.566406 C 20.253906 23.480469 22.5 22.027344 23.933594 20.464844 C 24.972656 19.328125 25.585938 18.15625 25.820312 16.832031 C 25.886719 16.46875 25.894531 15.875 25.894531 9.832031 L 25.894531 3.230469 L 8.242188 3.230469 L 8.230469 9.414062 C 8.214844 15.664062 8.230469 16.476562 8.367188 17.125 C 8.976562 20 11.824219 22.609375 16.484375 24.546875 C 16.769531 24.664062 17.023438 24.765625 17.046875 24.765625 C 17.074219 24.769531 17.316406 24.679688 17.589844 24.566406 Z M 17.589844 24.566406 "/>
<path style=" stroke:none;fill-rule:nonzero;fill:rgb(0%,0%,0%);fill-opacity:1;" d="M 16.621094 24.832031 C 16.390625 24.742188 16.15625 24.644531 16.097656 24.621094 C 16.039062 24.597656 15.9375 24.554688 15.867188 24.527344 C 15.714844 24.464844 13.832031 23.527344 13.65625 23.425781 C 12.882812 22.976562 11.664062 22.148438 11.269531 21.808594 C 11.246094 21.785156 11.140625 21.703125 11.042969 21.621094 C 10.8125 21.433594 9.964844 20.578125 9.738281 20.304688 C 9.644531 20.191406 9.546875 20.078125 9.523438 20.050781 C 9.503906 20.023438 9.457031 19.960938 9.421875 19.910156 C 9.386719 19.859375 9.335938 19.792969 9.304688 19.761719 C 9.277344 19.730469 9.253906 19.6875 9.253906 19.664062 C 9.253906 19.644531 9.238281 19.617188 9.21875 19.609375 C 9.113281 19.566406 8.550781 18.511719 8.398438 18.074219 C 8.394531 18.0625 8.378906 18.023438 8.367188 17.988281 C 8.324219 17.886719 8.179688 17.363281 8.101562 17.03125 C 8.03125 16.734375 8.023438 16.195312 8.011719 8.359375 L 8 0 L 26.113281 0 L 26.113281 8.128906 C 26.113281 13.515625 26.097656 16.378906 26.070312 16.613281 C 26.03125 16.921875 25.863281 17.679688 25.789062 17.863281 C 25.777344 17.898438 25.761719 17.941406 25.757812 17.957031 C 25.753906 17.976562 25.742188 18 25.738281 18.011719 C 25.730469 18.023438 25.722656 18.046875 25.722656 18.0625 C 25.71875 18.078125 25.691406 18.136719 25.660156 18.1875 C 25.632812 18.238281 25.617188 18.28125 25.628906 18.28125 C 25.6875 18.28125 25.082031 19.367188 24.847656 19.679688 C 24.773438 19.777344 24.679688 19.910156 24.632812 19.972656 C 24.585938 20.039062 24.53125 20.109375 24.507812 20.136719 C 24.484375 20.160156 24.308594 20.363281 24.121094 20.585938 C 23.929688 20.804688 23.660156 21.085938 23.515625 21.210938 C 23.371094 21.332031 23.214844 21.46875 23.167969 21.515625 C 23.121094 21.5625 23.015625 21.652344 22.9375 21.710938 C 22.859375 21.773438 22.671875 21.921875 22.523438 22.039062 C 22.050781 22.417969 21.152344 23.011719 20.3125 23.5 C 20.136719 23.601562 18.4375 24.445312 18.308594 24.492188 C 18.230469 24.523438 18.105469 24.574219 18.039062 24.605469 C 17.796875 24.710938 17.078125 25.003906 17.058594 25 C 17.046875 25 16.847656 24.921875 16.621094 24.832031 Z M 17.582031 24.546875 C 20.246094 23.460938 22.492188 22.011719 23.925781 20.449219 C 24.964844 19.316406 25.574219 18.144531 25.8125 16.820312 C 25.878906 16.457031 25.882812 15.867188 25.882812 9.828125 L 25.882812 3.234375 L 8.230469 3.234375 L 8.21875 9.414062 C 8.207031 15.65625 8.222656 16.464844 8.359375 17.113281 C 8.964844 19.988281 11.816406 22.59375 16.472656 24.527344 C 16.761719 24.648438 17.015625 24.746094 17.039062 24.75 C 17.0625 24.75 17.308594 24.660156 17.582031 24.546875 Z M 16.390625 23.691406 C 15.503906 23.304688 14.972656 23.050781 14.972656 23.011719 C 14.972656 22.992188 15.058594 22.925781 15.160156 22.859375 C 15.265625 22.792969 15.476562 22.625 15.628906 22.484375 C 16.039062 22.109375 17.582031 20.496094 18.292969 19.699219 C 19.449219 18.40625 19.527344 18.328125 19.71875 18.234375 C 19.921875 18.136719 20.324219 18.109375 20.40625 18.191406 C 20.441406 18.226562 20.429688 18.273438 20.359375 18.367188 C 20.304688 18.4375 20.273438 18.507812 20.285156 18.519531 C 20.300781 18.53125 20.433594 18.511719 20.582031 18.476562 C 20.894531 18.398438 21.199219 18.386719 21.320312 18.453125 C 21.402344 18.496094 21.402344 18.5 21.332031 18.578125 C 21.261719 18.652344 21.261719 18.65625 21.339844 18.65625 C 21.386719 18.65625 21.460938 18.628906 21.503906 18.597656 C 21.617188 18.511719 21.816406 18.519531 22.117188 18.621094 C 22.441406 18.730469 22.628906 18.710938 23.015625 18.535156 C 23.175781 18.460938 23.351562 18.40625 23.40625 18.414062 C 23.5 18.425781 23.503906 18.441406 23.507812 18.769531 C 23.511719 19.144531 23.542969 19.21875 23.769531 19.3125 L 23.90625 19.371094 L 23.648438 19.679688 C 23.328125 20.070312 22.617188 20.757812 22.148438 21.132812 C 21.332031 21.792969 19.976562 22.628906 18.789062 23.207031 C 18.1875 23.5 17.117188 23.960938 17.046875 23.957031 C 17.019531 23.957031 16.722656 23.835938 16.390625 23.691406 Z M 13.824219 22.402344 L 13.613281 22.269531 L 13.882812 22.253906 C 14.203125 22.242188 14.261719 22.28125 14.128906 22.429688 L 14.03125 22.539062 Z M 12.476562 21.527344 C 12.402344 21.476562 12.34375 21.417969 12.34375 21.402344 C 12.34375 21.382812 12.445312 21.371094 12.570312 21.371094 C 12.757812 21.371094 12.800781 21.382812 12.800781 21.4375 C 12.800781 21.5 12.691406 21.617188 12.632812 21.621094 C 12.621094 21.621094 12.550781 21.578125 12.476562 21.527344 Z M 11.304688 20.5625 L 11.164062 20.417969 L 11.292969 20.390625 C 11.417969 20.363281 11.589844 20.421875 11.589844 20.492188 C 11.589844 20.511719 11.558594 20.566406 11.519531 20.617188 L 11.445312 20.707031 Z M 10.5625 19.675781 C 10.496094 19.699219 10.445312 19.660156 10.320312 19.503906 C 10.238281 19.394531 10.183594 19.300781 10.199219 19.296875 M 23.878906 19.09375 C 23.816406 18.953125 23.820312 18.917969 23.878906 18.730469 C 23.976562 18.441406 24.125 18.214844 24.410156 17.941406 C 24.648438 17.710938 24.820312 17.613281 24.820312 17.710938 C 24.816406 17.871094 24.117188 19.140625 23.988281 19.21875 C 23.960938 19.238281 23.917969 19.1875 23.878906 19.09375 Z M 10.207031 19.300781 C 10.179688 19.300781 9.535156 18.15625 9.59375 18.105469 C 9.65625 18.054688 10.347656 17.429688 11.132812 16.714844 C 11.914062 16.003906 12.570312 15.417969 12.589844 15.410156 C 12.632812 15.394531 14.722656 16.773438 14.71875 16.816406 C 14.71875 16.828125 14.058594 17.015625 13.25 17.226562 C 12.441406 17.441406 13.105469 18.660156 12.5 18.820312 C 11.894531 18.984375 11.171875 18.25 9.53125 18.199219 M 23.023438 17.464844 C 22.324219 17.132812 21.355469 16.59375 21.367188 16.539062 C 21.382812 16.472656 23.328125 14.3125 23.597656 14.066406 C 23.925781 13.765625 24.234375 13.628906 24.578125 13.628906 L 24.863281 13.628906 L 24.863281 13.503906 C 24.859375 13.277344 24.726562 13.121094 24.472656 13.046875 C 24.328125 13.007812 24.128906 12.894531 23.941406 12.753906 C 23.566406 12.46875 23.453125 12.449219 22.816406 12.5625 C 22.554688 12.609375 22.164062 12.644531 21.953125 12.648438 L 21.566406 12.648438 L 21.609375 12.757812 L 21.648438 12.867188 L 21.230469 12.847656 L 20.808594 12.832031 L 20.832031 12.96875 L 20.859375 13.105469 L 20.054688 13.105469 L 19.816406 12.863281 C 19.324219 12.359375 18.046875 10.476562 18.125 10.371094 C 18.144531 10.34375 19.730469 8.894531 21.648438 7.15625 L 25.132812 3.992188 L 25.144531 4.84375 C 25.152344 5.3125 25.148438 8.15625 25.140625 11.164062 C 25.128906 16.980469 25.132812 16.757812 24.941406 17.351562 C 24.902344 17.472656 24.886719 17.484375 24.8125 17.441406 C 24.761719 17.417969 24.652344 17.410156 24.542969 17.425781 C 24.304688 17.460938 24.296875 17.367188 24.527344 17.207031 C 24.71875 17.074219 24.730469 17.046875 24.59375 17.011719 C 24.449219 16.976562 24.320312 17.039062 24.132812 17.238281 C 23.890625 17.496094 23.65625 17.65625 23.53125 17.652344 C 23.472656 17.652344 23.242188 17.566406 23.027344 17.464844 Z M 23.023438 17.464844 "/>
<path style=" stroke:none;fill-rule:nonzero;fill:rgb(75.294118%,63.529412%,36.862745%);fill-opacity:1;" d="M 15.046875 0.148438 C 15.078125 0.195312 15.148438 0.324219 15.128906 0.351562 C 15.128906 0.351562 15.128906 0.355469 15.128906 0.355469 C 15.128906 0.355469 15.125 0.355469 15.125 0.355469 C 15.125 0.355469 15.121094 0.355469 15.121094 0.355469 C 15.09375 0.359375 14.921875 0.246094 14.871094 0.1875 C 14.824219 0.136719 15.015625 0.109375 15.046875 0.148438 Z M 25.117188 0.511719 C 25.238281 0.5 25.363281 0.550781 25.457031 0.667969 C 25.609375 0.847656 25.675781 1.167969 25.671875 1.710938 C 25.667969 2.355469 25.601562 2.652344 25.421875 2.828125 C 25.316406 2.9375 25.253906 2.964844 25.121094 2.964844 C 24.980469 2.964844 24.933594 2.941406 24.828125 2.820312 C 24.648438 2.617188 24.597656 2.324219 24.617188 1.609375 C 24.632812 1.125 24.652344 0.988281 24.726562 0.828125 C 24.8125 0.632812 24.964844 0.523438 25.117188 0.511719 Z M 10.496094 0.527344 C 10.5 0.527344 10.503906 0.527344 10.507812 0.527344 C 10.511719 0.527344 10.515625 0.527344 10.515625 0.527344 C 10.519531 0.527344 10.523438 0.53125 10.527344 0.53125 C 10.527344 0.535156 10.53125 0.539062 10.535156 0.539062 C 10.535156 0.542969 10.539062 0.542969 10.539062 0.546875 C 10.546875 0.558594 10.550781 0.574219 10.5625 0.597656 C 10.585938 0.664062 10.574219 0.699219 10.523438 0.730469 C 10.484375 0.753906 10.394531 0.824219 10.320312 0.882812 C 10.125 1.054688 10.144531 1.273438 10.394531 1.695312 C 10.695312 2.199219 10.703125 2.457031 10.4375 2.726562 C 10.246094 2.917969 10.054688 2.992188 10.019531 2.890625 C 10.003906 2.847656 9.984375 2.804688 9.976562 2.789062 C 9.976562 2.789062 9.976562 2.789062 9.976562 2.785156 C 9.976562 2.785156 9.976562 2.785156 9.976562 2.78125 C 9.984375 2.761719 10.046875 2.714844 10.128906 2.667969 C 10.445312 2.488281 10.449219 2.242188 10.152344 1.777344 C 9.9375 1.449219 9.890625 1.269531 9.957031 1.046875 C 10.023438 0.828125 10.15625 0.671875 10.355469 0.582031 C 10.425781 0.550781 10.46875 0.53125 10.496094 0.527344 Z M 16.265625 0.53125 L 16.515625 0.558594 C 17.074219 0.617188 17.160156 0.777344 17.160156 1.753906 C 17.160156 2.328125 17.152344 2.421875 17.070312 2.59375 C 17.015625 2.71875 16.933594 2.816406 16.855469 2.855469 C 16.785156 2.894531 16.625 2.921875 16.496094 2.921875 L 16.265625 2.921875 Z M 8.667969 0.535156 L 8.667969 1.582031 C 8.667969 2.472656 8.679688 2.632812 8.734375 2.6875 C 8.769531 2.726562 8.835938 2.753906 8.875 2.753906 C 9.046875 2.753906 9.0625 2.667969 9.082031 1.582031 L 9.097656 0.542969 L 9.296875 0.542969 L 9.296875 1.589844 C 9.296875 2.726562 9.273438 2.84375 9.0625 2.925781 C 8.863281 3 8.671875 2.972656 8.566406 2.855469 C 8.429688 2.710938 8.410156 2.503906 8.425781 1.441406 L 8.441406 0.5625 L 8.554688 0.550781 Z M 12.550781 0.535156 L 12.550781 2.921875 L 12.300781 2.921875 L 12.308594 1.742188 L 12.320312 0.5625 L 12.4375 0.550781 Z M 11.875 0.542969 C 11.886719 0.542969 11.898438 0.542969 11.910156 0.542969 C 12 0.542969 12.046875 0.546875 12.066406 0.558594 C 12.070312 0.558594 12.074219 0.5625 12.074219 0.5625 C 12.074219 0.566406 12.074219 0.566406 12.074219 0.566406 C 12.078125 0.566406 12.078125 0.570312 12.078125 0.570312 C 12.082031 0.570312 12.082031 0.574219 12.082031 0.574219 C 12.082031 0.574219 12.082031 0.578125 12.082031 0.578125 C 12.089844 0.59375 12.085938 0.613281 12.082031 0.636719 C 12.074219 0.707031 12.035156 0.738281 11.929688 0.753906 C 11.644531 0.792969 11.550781 1.054688 11.550781 1.796875 C 11.550781 2.507812 11.632812 2.714844 11.933594 2.730469 C 11.984375 2.730469 12.019531 2.738281 12.042969 2.75 C 12.046875 2.753906 12.050781 2.757812 12.050781 2.757812 C 12.070312 2.777344 12.078125 2.804688 12.082031 2.851562 C 12.089844 2.886719 12.089844 2.910156 12.082031 2.929688 C 12.082031 2.929688 12.082031 2.933594 12.082031 2.933594 C 12.082031 2.9375 12.078125 2.9375 12.078125 2.941406 C 12.078125 2.941406 12.074219 2.945312 12.074219 2.945312 C 12.074219 2.945312 12.070312 2.945312 12.070312 2.949219 C 12.070312 2.949219 12.066406 2.949219 12.066406 2.949219 C 12.046875 2.960938 12.007812 2.964844 11.9375 2.964844 C 11.714844 2.964844 11.539062 2.839844 11.421875 2.601562 C 11.328125 2.417969 11.320312 2.351562 11.320312 1.773438 C 11.320312 1.269531 11.332031 1.109375 11.394531 0.953125 C 11.496094 0.691406 11.65625 0.554688 11.875 0.542969 Z M 13.074219 0.542969 C 13.105469 0.542969 13.144531 0.542969 13.183594 0.542969 C 13.414062 0.542969 13.484375 0.546875 13.5 0.578125 C 13.507812 0.59375 13.507812 0.613281 13.503906 0.636719 C 13.492188 0.699219 13.457031 0.734375 13.394531 0.746094 L 13.300781 0.757812 L 13.300781 2.921875 L 13.050781 2.921875 L 13.050781 0.753906 L 12.925781 0.753906 C 12.800781 0.753906 12.78125 0.726562 12.824219 0.609375 C 12.84375 0.5625 12.898438 0.546875 13.074219 0.542969 Z M 13.992188 0.542969 C 14.023438 0.542969 14.0625 0.542969 14.101562 0.542969 C 14.332031 0.542969 14.402344 0.546875 14.417969 0.578125 C 14.425781 0.59375 14.425781 0.613281 14.421875 0.636719 C 14.414062 0.699219 14.375 0.734375 14.3125 0.746094 L 14.21875 0.757812 L 14.21875 2.921875 L 13.96875 2.921875 L 13.96875 0.753906 L 13.84375 0.753906 C 13.71875 0.753906 13.699219 0.726562 13.742188 0.609375 C 13.761719 0.5625 13.816406 0.546875 13.992188 0.542969 Z M 17.390625 0.542969 L 17.640625 0.542969 L 17.640625 2.921875 L 17.390625 2.921875 Z M 18.183594 0.542969 L 18.382812 0.542969 C 18.855469 0.550781 19.0625 0.746094 19.0625 1.195312 C 19.0625 1.644531 18.929688 1.839844 18.589844 1.902344 L 18.433594 1.929688 L 18.433594 2.921875 L 18.183594 2.921875 Z M 20.3125 0.542969 L 20.523438 0.542969 L 20.523438 2.714844 L 20.6875 2.714844 C 20.765625 2.714844 20.808594 2.714844 20.832031 2.730469 C 20.832031 2.734375 20.835938 2.734375 20.835938 2.738281 C 20.835938 2.738281 20.839844 2.738281 20.839844 2.738281 C 20.839844 2.742188 20.839844 2.742188 20.84375 2.742188 C 20.851562 2.757812 20.855469 2.785156 20.855469 2.816406 C 20.855469 2.847656 20.855469 2.871094 20.847656 2.886719 C 20.828125 2.917969 20.765625 2.921875 20.585938 2.921875 L 20.3125 2.921875 Z M 21.148438 0.542969 L 21.398438 0.542969 C 21.566406 0.542969 21.625 0.550781 21.660156 0.585938 C 21.667969 0.597656 21.679688 0.617188 21.6875 0.636719 C 21.695312 0.664062 21.699219 0.679688 21.699219 0.695312 C 21.699219 0.695312 21.699219 0.699219 21.699219 0.699219 C 21.699219 0.699219 21.699219 0.703125 21.699219 0.703125 C 21.699219 0.703125 21.699219 0.707031 21.699219 0.707031 C 21.699219 0.707031 21.695312 0.710938 21.695312 0.710938 C 21.695312 0.710938 21.695312 0.714844 21.695312 0.714844 C 21.695312 0.714844 21.691406 0.714844 21.691406 0.714844 C 21.691406 0.714844 21.691406 0.714844 21.691406 0.71875 C 21.6875 0.71875 21.683594 0.722656 21.683594 0.722656 C 21.660156 0.734375 21.625 0.738281 21.558594 0.742188 L 21.398438 0.757812 L 21.398438 1.710938 L 21.585938 1.710938 C 21.703125 1.710938 21.746094 1.714844 21.765625 1.75 C 21.773438 1.765625 21.773438 1.785156 21.773438 1.816406 C 21.773438 1.851562 21.769531 1.875 21.761719 1.890625 C 21.757812 1.894531 21.75 1.898438 21.746094 1.902344 C 21.71875 1.917969 21.671875 1.921875 21.585938 1.921875 L 21.398438 1.921875 L 21.398438 2.316406 C 21.398438 2.566406 21.398438 2.660156 21.425781 2.695312 C 21.441406 2.710938 21.464844 2.714844 21.5 2.714844 C 21.652344 2.714844 21.730469 2.757812 21.730469 2.84375 C 21.730469 2.855469 21.730469 2.867188 21.726562 2.878906 C 21.722656 2.882812 21.722656 2.886719 21.71875 2.890625 C 21.691406 2.917969 21.621094 2.921875 21.441406 2.921875 L 21.148438 2.921875 L 21.148438 2.441406 C 21.148438 2.050781 21.136719 1.953125 21.085938 1.933594 C 21.050781 1.921875 21.023438 1.867188 21.023438 1.8125 C 21.023438 1.75 21.046875 1.710938 21.085938 1.710938 C 21.085938 1.710938 21.089844 1.710938 21.089844 1.710938 C 21.09375 1.710938 21.097656 1.710938 21.097656 1.710938 C 21.101562 1.707031 21.105469 1.703125 21.109375 1.699219 C 21.140625 1.664062 21.148438 1.527344 21.148438 1.128906 Z M 21.980469 0.542969 L 22.179688 0.542969 C 22.652344 0.550781 22.816406 0.71875 22.847656 1.234375 C 22.867188 1.507812 22.855469 1.566406 22.753906 1.78125 L 22.636719 2.015625 L 22.886719 2.875 L 22.785156 2.902344 C 22.738281 2.914062 22.6875 2.914062 22.664062 2.90625 C 22.664062 2.90625 22.660156 2.902344 22.660156 2.902344 C 22.660156 2.902344 22.65625 2.902344 22.65625 2.902344 C 22.65625 2.898438 22.65625 2.898438 22.65625 2.898438 C 22.636719 2.875 22.5625 2.65625 22.480469 2.402344 L 22.328125 1.925781 L 22.449219 1.804688 C 22.589844 1.664062 22.632812 1.453125 22.589844 1.144531 C 22.558594 0.941406 22.417969 0.753906 22.296875 0.753906 C 22.292969 0.753906 22.292969 0.75 22.289062 0.753906 C 22.242188 0.765625 22.234375 0.929688 22.234375 1.835938 L 22.234375 2.921875 L 21.980469 2.921875 Z M 15.082031 0.582031 C 15.082031 0.585938 15.082031 0.582031 15.082031 0.582031 C 15.125 0.625 15.554688 2.691406 15.554688 2.851562 C 15.554688 2.902344 15.523438 2.921875 15.433594 2.921875 C 15.335938 2.921875 15.308594 2.902344 15.296875 2.828125 C 15.285156 2.746094 15.261719 2.734375 15.054688 2.734375 C 14.921875 2.734375 14.863281 2.738281 14.835938 2.761719 C 14.835938 2.765625 14.832031 2.765625 14.832031 2.765625 C 14.820312 2.78125 14.816406 2.800781 14.8125 2.828125 C 14.800781 2.902344 14.769531 2.921875 14.675781 2.921875 C 14.632812 2.921875 14.601562 2.917969 14.582031 2.90625 C 14.582031 2.90625 14.582031 2.90625 14.578125 2.90625 C 14.574219 2.902344 14.570312 2.898438 14.566406 2.894531 C 14.566406 2.894531 14.566406 2.890625 14.566406 2.890625 C 14.566406 2.890625 14.566406 2.886719 14.5625 2.886719 C 14.554688 2.871094 14.554688 2.851562 14.554688 2.820312 C 14.554688 2.773438 14.539062 2.730469 14.523438 2.710938 C 14.519531 2.710938 14.515625 2.707031 14.515625 2.707031 C 14.515625 2.707031 14.515625 2.707031 14.511719 2.707031 C 14.453125 2.683594 14.511719 2.503906 14.578125 2.503906 C 14.597656 2.503906 14.613281 2.5 14.625 2.496094 C 14.625 2.496094 14.625 2.492188 14.625 2.492188 C 14.628906 2.492188 14.628906 2.492188 14.628906 2.492188 C 14.632812 2.492188 14.632812 2.488281 14.632812 2.488281 C 14.632812 2.488281 14.632812 2.488281 14.632812 2.484375 C 14.636719 2.484375 14.636719 2.484375 14.636719 2.484375 C 14.636719 2.484375 14.636719 2.480469 14.636719 2.480469 C 14.636719 2.480469 14.636719 2.476562 14.636719 2.476562 C 14.644531 2.410156 15.054688 0.65625 15.082031 0.585938 C 15.082031 0.585938 15.082031 0.585938 15.082031 0.582031 Z M 19.503906 0.582031 C 19.503906 0.585938 19.503906 0.585938 19.503906 0.585938 C 19.546875 0.648438 19.976562 2.710938 19.976562 2.871094 C 19.976562 2.902344 19.925781 2.921875 19.855469 2.921875 C 19.761719 2.921875 19.730469 2.902344 19.722656 2.828125 C 19.707031 2.746094 19.683594 2.734375 19.476562 2.734375 C 19.347656 2.734375 19.289062 2.738281 19.261719 2.761719 C 19.257812 2.765625 19.257812 2.765625 19.257812 2.765625 C 19.246094 2.78125 19.238281 2.800781 19.234375 2.828125 C 19.226562 2.902344 19.195312 2.921875 19.101562 2.921875 C 19.0625 2.921875 19.035156 2.917969 19.015625 2.914062 C 19.011719 2.910156 19.003906 2.90625 19.003906 2.90625 C 19 2.902344 19 2.902344 18.996094 2.902344 C 18.996094 2.898438 18.996094 2.898438 18.992188 2.894531 C 18.980469 2.878906 18.976562 2.855469 18.976562 2.816406 C 18.976562 2.777344 18.96875 2.742188 18.953125 2.722656 C 18.953125 2.722656 18.949219 2.71875 18.949219 2.71875 C 18.945312 2.714844 18.941406 2.714844 18.9375 2.714844 C 18.933594 2.714844 18.933594 2.714844 18.933594 2.714844 C 18.925781 2.714844 18.921875 2.710938 18.917969 2.707031 C 18.914062 2.707031 18.914062 2.703125 18.914062 2.703125 C 18.890625 2.664062 18.941406 2.53125 19.007812 2.480469 C 19.042969 2.453125 19.152344 2.066406 19.273438 1.542969 C 19.386719 1.050781 19.488281 0.621094 19.503906 0.585938 C 19.503906 0.585938 19.503906 0.585938 19.503906 0.582031 Z M 23.402344 0.515625 C 23.402344 0.515625 23.40625 0.515625 23.40625 0.515625 C 23.429688 0.550781 23.507812 0.945312 23.589844 1.230469 C 23.671875 1.519531 23.753906 1.769531 23.777344 1.808594 C 23.777344 1.808594 23.777344 1.8125 23.777344 1.8125 C 23.78125 1.8125 23.78125 1.8125 23.78125 1.816406 C 23.785156 1.816406 23.785156 1.816406 23.785156 1.816406 C 23.789062 1.816406 23.789062 1.816406 23.792969 1.816406 C 23.808594 1.816406 23.832031 1.78125 23.84375 1.726562 C 23.988281 1.152344 24.117188 0.566406 24.15625 0.523438 C 24.15625 0.523438 24.160156 0.523438 24.160156 0.523438 C 24.160156 0.523438 24.164062 0.523438 24.164062 0.523438 C 24.164062 0.523438 24.167969 0.523438 24.167969 0.527344 C 24.191406 0.605469 24.445312 2.734375 24.445312 2.855469 C 24.445312 2.902344 24.40625 2.921875 24.324219 2.921875 L 24.203125 2.921875 L 24.152344 2.496094 C 24.113281 2.140625 24.089844 1.953125 24.058594 1.914062 C 24.054688 1.914062 24.054688 1.910156 24.054688 1.910156 C 24.050781 1.910156 24.050781 1.910156 24.050781 1.910156 C 24.046875 1.910156 24.046875 1.910156 24.046875 1.910156 C 24.046875 1.910156 24.042969 1.910156 24.042969 1.910156 C 24.015625 1.933594 23.976562 2.0625 23.921875 2.285156 C 23.855469 2.527344 23.796875 2.730469 23.777344 2.753906 C 23.777344 2.753906 23.773438 2.753906 23.773438 2.753906 C 23.773438 2.753906 23.773438 2.753906 23.769531 2.75 C 23.75 2.714844 23.691406 2.523438 23.628906 2.296875 C 23.574219 2.078125 23.515625 1.90625 23.488281 1.871094 C 23.488281 1.871094 23.484375 1.867188 23.484375 1.867188 C 23.484375 1.867188 23.480469 1.867188 23.480469 1.867188 C 23.480469 1.867188 23.480469 1.871094 23.480469 1.871094 C 23.480469 1.871094 23.476562 1.871094 23.476562 1.871094 C 23.460938 1.910156 23.429688 2.109375 23.402344 2.339844 C 23.378906 2.578125 23.34375 2.808594 23.332031 2.851562 C 23.320312 2.898438 23.269531 2.921875 23.1875 2.921875 C 23.148438 2.921875 23.121094 2.917969 23.101562 2.914062 C 23.101562 2.910156 23.097656 2.910156 23.097656 2.910156 C 23.09375 2.90625 23.089844 2.902344 23.085938 2.902344 C 23.085938 2.898438 23.085938 2.898438 23.085938 2.898438 C 23.082031 2.894531 23.082031 2.894531 23.082031 2.894531 C 23.082031 2.894531 23.082031 2.890625 23.082031 2.890625 C 23.078125 2.875 23.078125 2.855469 23.085938 2.828125 C 23.097656 2.777344 23.167969 2.257812 23.242188 1.679688 C 23.308594 1.140625 23.378906 0.5625 23.402344 0.515625 Z M 25.144531 0.730469 C 25.070312 0.734375 24.992188 0.789062 24.9375 0.886719 C 24.867188 1.015625 24.839844 2.082031 24.898438 2.402344 C 24.921875 2.53125 24.96875 2.65625 25.007812 2.695312 C 25.007812 2.695312 25.011719 2.699219 25.011719 2.699219 C 25.011719 2.699219 25.015625 2.703125 25.015625 2.703125 C 25.1875 2.832031 25.34375 2.691406 25.382812 2.363281 C 25.425781 2.023438 25.390625 0.957031 25.332031 0.851562 C 25.285156 0.765625 25.214844 0.726562 25.144531 0.730469 Z M 16.515625 0.746094 L 16.515625 1.730469 C 16.515625 2.664062 16.519531 2.714844 16.59375 2.714844 C 16.636719 2.714844 16.714844 2.679688 16.765625 2.640625 C 16.886719 2.539062 16.945312 2.058594 16.90625 1.449219 C 16.878906 0.964844 16.820312 0.835938 16.609375 0.773438 Z M 18.433594 0.753906 L 18.433594 1.671875 L 18.539062 1.671875 C 18.753906 1.671875 18.894531 1.382812 18.835938 1.0625 C 18.800781 0.878906 18.679688 0.753906 18.539062 0.753906 Z M 15.066406 1.710938 C 15.066406 1.710938 15.0625 1.714844 15.0625 1.714844 C 15.0625 1.714844 15.058594 1.714844 15.058594 1.714844 C 15.058594 1.714844 15.058594 1.71875 15.058594 1.71875 C 15.054688 1.722656 15.050781 1.726562 15.050781 1.734375 C 15 1.855469 14.902344 2.414062 14.917969 2.476562 C 14.917969 2.476562 14.917969 2.480469 14.917969 2.480469 C 14.917969 2.480469 14.921875 2.480469 14.921875 2.480469 C 14.957031 2.519531 15.167969 2.507812 15.199219 2.464844 C 15.199219 2.464844 15.199219 2.460938 15.199219 2.460938 C 15.199219 2.460938 15.203125 2.460938 15.203125 2.460938 C 15.203125 2.457031 15.203125 2.457031 15.203125 2.457031 C 15.210938 2.410156 15.191406 2.230469 15.15625 2.035156 C 15.121094 1.84375 15.09375 1.742188 15.074219 1.71875 C 15.074219 1.71875 15.074219 1.714844 15.074219 1.714844 C 15.074219 1.714844 15.070312 1.714844 15.070312 1.714844 C 15.070312 1.714844 15.066406 1.714844 15.066406 1.714844 C 15.066406 1.714844 15.066406 1.710938 15.066406 1.710938 Z M 19.484375 1.714844 C 19.484375 1.714844 19.484375 1.71875 19.484375 1.71875 C 19.480469 1.71875 19.480469 1.722656 19.476562 1.722656 C 19.476562 1.726562 19.472656 1.730469 19.472656 1.734375 C 19.421875 1.855469 19.328125 2.414062 19.34375 2.476562 C 19.34375 2.476562 19.34375 2.480469 19.34375 2.480469 C 19.386719 2.523438 19.625 2.503906 19.644531 2.464844 C 19.644531 2.464844 19.644531 2.460938 19.644531 2.460938 C 19.644531 2.460938 19.644531 2.457031 19.644531 2.457031 C 19.644531 2.433594 19.613281 2.242188 19.574219 2.03125 C 19.542969 1.851562 19.519531 1.753906 19.5 1.722656 C 19.496094 1.722656 19.496094 1.71875 19.492188 1.71875 C 19.492188 1.71875 19.492188 1.714844 19.492188 1.714844 C 19.492188 1.714844 19.488281 1.714844 19.488281 1.714844 C 19.488281 1.714844 19.484375 1.714844 19.484375 1.714844 Z M 9.546875 2.671875 C 9.558594 2.671875 9.570312 2.671875 9.585938 2.671875 C 9.636719 2.671875 9.664062 2.675781 9.683594 2.6875 C 9.683594 2.6875 9.6875 2.6875 9.6875 2.6875 C 9.691406 2.691406 9.691406 2.695312 9.695312 2.695312 C 9.710938 2.714844 9.714844 2.746094 9.714844 2.796875 C 9.714844 2.839844 9.710938 2.867188 9.703125 2.886719 C 9.703125 2.886719 9.699219 2.890625 9.699219 2.894531 C 9.699219 2.894531 9.695312 2.894531 9.695312 2.898438 C 9.679688 2.917969 9.648438 2.921875 9.585938 2.921875 C 9.542969 2.921875 9.515625 2.917969 9.496094 2.910156 C 9.492188 2.910156 9.492188 2.90625 9.488281 2.90625 C 9.46875 2.890625 9.460938 2.859375 9.460938 2.796875 C 9.460938 2.75 9.464844 2.722656 9.476562 2.703125 C 9.476562 2.703125 9.476562 2.699219 9.476562 2.699219 C 9.480469 2.699219 9.480469 2.695312 9.480469 2.695312 C 9.484375 2.695312 9.484375 2.691406 9.488281 2.6875 C 9.488281 2.6875 9.492188 2.683594 9.496094 2.683594 C 9.507812 2.675781 9.523438 2.671875 9.546875 2.671875 Z M 10.921875 2.671875 C 10.933594 2.671875 10.949219 2.671875 10.964844 2.671875 C 11.011719 2.671875 11.042969 2.675781 11.0625 2.6875 C 11.0625 2.6875 11.0625 2.6875 11.066406 2.6875 C 11.066406 2.691406 11.070312 2.695312 11.070312 2.695312 C 11.085938 2.714844 11.089844 2.746094 11.089844 2.796875 C 11.089844 2.839844 11.085938 2.867188 11.078125 2.886719 C 11.078125 2.886719 11.078125 2.890625 11.074219 2.894531 C 11.074219 2.894531 11.074219 2.894531 11.074219 2.898438 C 11.058594 2.917969 11.023438 2.921875 10.964844 2.921875 C 10.921875 2.921875 10.890625 2.917969 10.871094 2.910156 C 10.871094 2.910156 10.867188 2.90625 10.867188 2.90625 C 10.84375 2.890625 10.839844 2.859375 10.839844 2.796875 C 10.839844 2.75 10.84375 2.722656 10.851562 2.703125 C 10.851562 2.703125 10.855469 2.699219 10.855469 2.699219 C 10.855469 2.699219 10.859375 2.695312 10.859375 2.695312 C 10.859375 2.695312 10.863281 2.691406 10.863281 2.6875 C 10.867188 2.6875 10.871094 2.683594 10.871094 2.683594 C 10.882812 2.675781 10.902344 2.671875 10.921875 2.671875 Z M 10.921875 2.671875 "/>
<path style=" stroke:none;fill-rule:nonzero;fill:rgb(96.862745%,71.764706%,82.745098%);fill-opacity:1;" d="M 17.578125 24.328125 C 20.175781 23.265625 22.371094 21.847656 23.769531 20.320312 C 24.785156 19.210938 25.378906 18.066406 25.613281 16.773438 C 25.675781 16.417969 25.683594 15.839844 25.683594 9.933594 L 25.683594 3.488281 L 8.445312 3.488281 L 8.433594 9.527344 C 8.421875 15.632812 8.4375 16.421875 8.570312 17.058594 C 9.164062 19.867188 11.945312 22.414062 16.492188 24.308594 C 16.773438 24.425781 17.023438 24.519531 17.046875 24.523438 C 17.070312 24.523438 17.308594 24.4375 17.574219 24.328125 Z M 17.578125 24.328125 "/>
<path style=" stroke:none;fill-rule:nonzero;fill:rgb(100%,100%,100%);fill-opacity:1;" d="M 17.5625 24.03125 C 20.085938 22.996094 22.214844 21.613281 23.574219 20.121094 C 24.5625 19.039062 25.140625 17.917969 25.363281 16.65625 C 25.425781 16.308594 25.433594 15.746094 25.433594 9.984375 L 25.433594 3.6875 L 8.695312 3.6875 L 8.683594 9.585938 C 8.671875 15.542969 8.6875 16.316406 8.816406 16.933594 C 9.390625 19.679688 12.09375 22.164062 16.511719 24.011719 C 16.78125 24.128906 17.023438 24.222656 17.046875 24.222656 C 17.070312 24.226562 17.300781 24.140625 17.5625 24.03125 Z M 17.5625 24.03125 "/>
<path style=" stroke:none;fill-rule:nonzero;fill:rgb(96.862745%,71.764706%,82.745098%);fill-opacity:1;" d="M 17.542969 23.773438 C 19.984375 22.761719 22.039062 21.414062 23.351562 19.964844 C 24.304688 18.910156 24.863281 17.820312 25.078125 16.59375 C 25.140625 16.253906 25.144531 15.703125 25.144531 10.09375 L 25.144531 3.96875 L 8.980469 3.96875 L 8.972656 9.707031 C 8.960938 15.507812 8.972656 16.261719 9.097656 16.863281 C 9.65625 19.535156 12.265625 21.953125 16.527344 23.753906 C 16.792969 23.863281 17.023438 23.957031 17.046875 23.957031 C 17.070312 23.960938 17.292969 23.875 17.542969 23.773438 Z M 17.542969 23.773438 "/>
<path style=" stroke:none;fill-rule:nonzero;fill:rgb(13.333333%,11.764706%,12.156863%);fill-opacity:1;" d="M 17.542969 23.75 C 19.984375 22.738281 22.039062 21.390625 23.351562 19.941406 C 24.304688 18.886719 24.863281 17.796875 25.078125 16.570312 C 25.140625 16.230469 25.144531 15.679688 25.144531 10.070312 L 25.144531 3.941406 L 9.554688 18.167969 C 9.546875 18.171875 9.558594 18.179688 9.5625 18.1875 C 10.597656 20.320312 12.996094 22.238281 16.527344 23.730469 C 16.792969 23.839844 17.023438 23.933594 17.046875 23.933594 C 17.070312 23.9375 17.292969 23.851562 17.542969 23.75 Z M 17.542969 23.75 "/>
<path style=" stroke:none;fill-rule:nonzero;fill:rgb(77.254902%,64.705882%,36.862745%);fill-opacity:1;" d="M 13.394531 3.285156 C 13.367188 3.289062 13.34375 3.300781 13.328125 3.316406 C 13.03125 3.609375 12.957031 3.910156 13.035156 4.496094 C 13.066406 4.738281 13.0625 4.761719 12.980469 4.804688 C 12.875 4.863281 12.625 4.765625 12.382812 4.574219 L 12.238281 4.464844 L 12.179688 4.582031 C 12.011719 4.925781 11.925781 5.332031 11.925781 5.847656 C 11.925781 6.3125 11.9375 6.375 12.046875 6.628906 C 12.273438 7.15625 12.195312 7.316406 11.800781 7.113281 C 11.667969 7.042969 11.546875 6.984375 11.53125 6.976562 C 11.53125 6.976562 11.527344 6.976562 11.527344 6.976562 C 11.527344 6.976562 11.523438 6.976562 11.523438 6.976562 C 11.507812 6.992188 11.472656 7.070312 11.441406 7.167969 C 11.203125 7.929688 11.253906 8.632812 11.59375 9.332031 C 11.769531 9.683594 11.667969 9.824219 11.347656 9.679688 C 11.25 9.632812 11.101562 9.546875 11.023438 9.484375 C 10.949219 9.425781 10.882812 9.386719 10.859375 9.386719 C 10.859375 9.386719 10.859375 9.390625 10.859375 9.390625 C 10.859375 9.390625 10.855469 9.390625 10.855469 9.390625 C 10.84375 9.414062 10.816406 9.589844 10.796875 9.789062 C 10.730469 10.460938 10.851562 11.148438 11.152344 11.761719 C 11.230469 11.921875 11.289062 12.09375 11.28125 12.144531 C 11.261719 12.28125 11.078125 12.25 10.808594 12.066406 C 10.699219 11.992188 10.597656 11.9375 10.570312 11.933594 C 10.566406 11.933594 10.566406 11.933594 10.566406 11.933594 C 10.5625 11.933594 10.5625 11.9375 10.5625 11.9375 C 10.558594 11.9375 10.558594 11.941406 10.554688 11.945312 C 10.515625 12.039062 10.546875 12.679688 10.609375 12.949219 C 10.730469 13.480469 11.066406 14.046875 11.453125 14.363281 C 11.558594 14.449219 12.359375 15.007812 13.234375 15.601562 C 14.449219 16.425781 14.78125 16.667969 14.820312 16.757812 C 14.820312 16.757812 14.820312 16.761719 14.820312 16.761719 C 14.820312 16.761719 14.824219 16.765625 14.824219 16.765625 C 14.824219 16.769531 14.824219 16.769531 14.824219 16.769531 C 14.824219 16.769531 14.824219 16.773438 14.824219 16.773438 C 14.824219 16.84375 14.789062 16.875 14.667969 16.90625 C 14.585938 16.929688 13.460938 17.234375 12.171875 17.589844 C 10.886719 17.941406 9.796875 18.238281 9.75 18.242188 C 9.648438 18.257812 9.414062 18.347656 9.402344 18.375 C 9.402344 18.375 9.402344 18.378906 9.402344 18.378906 C 9.402344 18.441406 9.578125 18.726562 9.675781 18.824219 C 9.839844 18.984375 10.257812 19.179688 10.601562 19.261719 C 10.925781 19.335938 11.003906 19.378906 11.003906 19.496094 C 11.003906 19.640625 10.664062 19.796875 10.355469 19.796875 C 10.296875 19.796875 10.25 19.804688 10.230469 19.816406 C 10.226562 19.820312 10.226562 19.820312 10.222656 19.824219 C 10.222656 19.828125 10.222656 19.828125 10.222656 19.828125 C 10.226562 19.847656 10.304688 19.941406 10.402344 20.035156 C 10.621094 20.257812 10.871094 20.34375 11.300781 20.34375 C 11.695312 20.34375 11.742188 20.359375 11.742188 20.503906 C 11.742188 20.613281 11.574219 20.835938 11.425781 20.929688 C 11.410156 20.9375 11.398438 20.949219 11.390625 20.957031 C 11.390625 20.957031 11.386719 20.957031 11.386719 20.957031 C 11.386719 20.957031 11.386719 20.960938 11.386719 20.960938 C 11.386719 20.960938 11.382812 20.964844 11.382812 20.964844 C 11.382812 20.964844 11.382812 20.96875 11.382812 20.96875 C 11.382812 20.96875 11.382812 20.972656 11.382812 20.972656 C 11.382812 20.972656 11.382812 20.976562 11.382812 20.976562 C 11.382812 20.980469 11.382812 20.984375 11.382812 20.984375 C 11.382812 20.988281 11.386719 20.992188 11.386719 20.992188 C 11.398438 21.011719 11.429688 21.039062 11.476562 21.078125 C 11.628906 21.210938 11.914062 21.3125 12.121094 21.3125 C 12.210938 21.3125 12.316406 21.332031 12.359375 21.355469 C 12.398438 21.378906 12.421875 21.382812 12.433594 21.375 C 12.433594 21.375 12.4375 21.375 12.4375 21.371094 C 12.4375 21.371094 12.441406 21.367188 12.441406 21.363281 C 12.441406 21.363281 12.441406 21.359375 12.441406 21.355469 C 12.441406 21.355469 12.441406 21.351562 12.441406 21.351562 C 12.441406 21.351562 12.441406 21.347656 12.441406 21.347656 C 12.445312 21.34375 12.449219 21.339844 12.453125 21.339844 C 12.453125 21.335938 12.453125 21.335938 12.457031 21.335938 C 12.53125 21.292969 12.859375 21.308594 12.925781 21.367188 C 12.925781 21.367188 12.929688 21.371094 12.929688 21.371094 C 12.929688 21.371094 12.929688 21.371094 12.933594 21.375 C 13.007812 21.46875 12.96875 21.578125 12.832031 21.648438 C 12.761719 21.683594 12.699219 21.726562 12.6875 21.742188 C 12.675781 21.757812 12.613281 21.785156 12.550781 21.800781 L 12.4375 21.832031 L 12.523438 21.929688 C 12.574219 21.980469 12.707031 22.070312 12.824219 22.125 C 13.015625 22.210938 13.097656 22.222656 13.632812 22.222656 C 13.953125 22.222656 14.242188 22.238281 14.277344 22.257812 C 14.277344 22.257812 14.277344 22.253906 14.277344 22.257812 C 14.308594 22.273438 14.328125 22.324219 14.328125 22.363281 C 14.328125 22.445312 14.140625 22.667969 13.984375 22.773438 C 13.929688 22.808594 13.886719 22.855469 13.878906 22.875 C 13.878906 22.875 13.878906 22.878906 13.878906 22.878906 C 13.878906 22.882812 13.878906 22.882812 13.878906 22.882812 C 13.886719 22.902344 13.964844 22.953125 14.054688 23 C 14.25 23.101562 14.539062 23.117188 14.796875 23.039062 C 15.316406 22.886719 15.984375 22.210938 18.917969 18.894531 C 19.578125 18.144531 19.707031 18.054688 20.109375 18.054688 C 20.390625 18.054688 20.472656 18.113281 20.441406 18.292969 C 20.433594 18.324219 20.429688 18.347656 20.433594 18.363281 C 20.433594 18.363281 20.433594 18.367188 20.433594 18.367188 C 20.433594 18.367188 20.433594 18.371094 20.433594 18.371094 C 20.433594 18.371094 20.4375 18.375 20.4375 18.375 C 20.4375 18.375 20.4375 18.378906 20.4375 18.378906 C 20.441406 18.378906 20.441406 18.378906 20.441406 18.382812 C 20.441406 18.382812 20.445312 18.382812 20.445312 18.382812 C 20.449219 18.382812 20.449219 18.386719 20.449219 18.386719 C 20.46875 18.390625 20.5 18.382812 20.546875 18.375 C 20.988281 18.277344 21.398438 18.320312 21.398438 18.460938 C 21.398438 18.476562 21.398438 18.488281 21.402344 18.496094 C 21.402344 18.496094 21.40625 18.496094 21.40625 18.496094 C 21.40625 18.496094 21.40625 18.5 21.40625 18.5 C 21.410156 18.5 21.414062 18.5 21.414062 18.5 C 21.425781 18.503906 21.445312 18.496094 21.476562 18.480469 C 21.59375 18.414062 21.765625 18.425781 22.03125 18.519531 C 22.371094 18.640625 22.546875 18.628906 22.917969 18.457031 C 23.273438 18.289062 23.371094 18.277344 23.472656 18.378906 C 23.53125 18.441406 23.539062 18.5 23.515625 18.757812 C 23.492188 19.035156 23.496094 19.078125 23.570312 19.152344 C 23.683594 19.269531 23.800781 19.269531 23.738281 19.15625 C 23.605469 18.898438 23.800781 18.371094 24.179688 17.960938 C 24.429688 17.691406 24.613281 17.566406 24.707031 17.605469 C 24.707031 17.605469 24.710938 17.605469 24.710938 17.605469 C 24.710938 17.605469 24.710938 17.601562 24.710938 17.601562 C 24.710938 17.601562 24.710938 17.601562 24.710938 17.597656 C 24.710938 17.597656 24.707031 17.597656 24.707031 17.59375 C 24.683594 17.558594 24.570312 17.449219 24.445312 17.472656 C 24.328125 17.496094 24.1875 17.445312 24.1875 17.375 C 24.191406 17.351562 24.246094 17.269531 24.316406 17.1875 C 24.367188 17.125 24.398438 17.089844 24.40625 17.066406 C 24.40625 17.066406 24.40625 17.0625 24.40625 17.0625 C 24.40625 17.0625 24.40625 17.058594 24.40625 17.058594 C 24.40625 17.058594 24.40625 17.054688 24.40625 17.054688 C 24.40625 17.054688 24.40625 17.054688 24.40625 17.050781 C 24.40625 17.050781 24.40625 17.046875 24.40625 17.046875 C 24.40625 17.046875 24.402344 17.046875 24.402344 17.046875 C 24.402344 17.046875 24.402344 17.046875 24.402344 17.042969 C 24.402344 17.042969 24.402344 17.042969 24.398438 17.042969 C 24.398438 17.042969 24.394531 17.042969 24.394531 17.039062 C 24.390625 17.039062 24.382812 17.039062 24.375 17.039062 C 24.375 17.039062 24.371094 17.039062 24.371094 17.039062 C 24.320312 17.054688 24.152344 17.191406 23.984375 17.355469 C 23.808594 17.527344 23.617188 17.683594 23.554688 17.699219 C 23.402344 17.738281 23.027344 17.574219 22.136719 17.089844 C 21.285156 16.621094 21.230469 16.589844 21.230469 16.515625 C 21.230469 16.433594 23.203125 14.175781 23.5 13.914062 C 23.851562 13.613281 24.148438 13.472656 24.445312 13.46875 C 24.582031 13.464844 24.640625 13.460938 24.664062 13.4375 C 24.667969 13.433594 24.671875 13.429688 24.671875 13.429688 C 24.671875 13.425781 24.675781 13.421875 24.675781 13.417969 C 24.679688 13.40625 24.683594 13.390625 24.683594 13.371094 C 24.683594 13.230469 24.519531 13.074219 24.292969 13 C 24.179688 12.964844 23.996094 12.859375 23.882812 12.765625 C 23.484375 12.4375 23.390625 12.421875 22.691406 12.554688 C 22.445312 12.601562 22.109375 12.636719 21.941406 12.636719 C 21.757812 12.636719 21.683594 12.640625 21.65625 12.667969 C 21.65625 12.671875 21.652344 12.675781 21.648438 12.679688 C 21.644531 12.691406 21.644531 12.707031 21.644531 12.722656 C 21.644531 12.832031 21.503906 12.867188 21.144531 12.839844 C 20.992188 12.828125 20.921875 12.824219 20.894531 12.839844 C 20.890625 12.839844 20.886719 12.839844 20.886719 12.84375 C 20.882812 12.847656 20.878906 12.851562 20.878906 12.855469 C 20.875 12.867188 20.878906 12.886719 20.886719 12.914062 C 20.902344 12.984375 20.886719 13.023438 20.828125 13.058594 C 20.710938 13.121094 20.1875 13.113281 20.027344 13.046875 C 19.875 12.980469 19.542969 12.621094 19.214844 12.171875 C 18.957031 11.8125 18.070312 10.410156 18.058594 10.339844 C 18.050781 10.3125 18.027344 10.269531 18 10.246094 C 17.960938 10.214844 15.15625 5.765625 13.761719 3.53125 C 13.660156 3.367188 13.5 3.273438 13.394531 3.285156 Z M 13.054688 5.21875 C 13.054688 5.21875 13.058594 5.21875 13.058594 5.21875 C 13.058594 5.21875 13.058594 5.21875 13.0625 5.21875 C 13.140625 5.226562 13.433594 5.570312 14.539062 6.957031 C 17.628906 10.828125 19.429688 13.140625 19.574219 13.421875 C 19.613281 13.496094 19.617188 13.546875 19.597656 13.574219 C 19.59375 13.582031 19.589844 13.585938 19.585938 13.585938 C 19.585938 13.589844 19.582031 13.589844 19.578125 13.589844 C 19.519531 13.621094 19.382812 13.570312 19.222656 13.441406 C 18.386719 12.757812 15.320312 9.675781 14.308594 8.496094 C 13.613281 7.6875 13.148438 7.054688 12.957031 6.660156 C 12.820312 6.375 12.804688 6.316406 12.808594 6.003906 C 12.8125 5.585938 12.917969 5.242188 13.054688 5.21875 Z M 12.207031 7.511719 C 12.238281 7.507812 12.277344 7.515625 12.300781 7.527344 C 12.457031 7.621094 17.863281 12.933594 18.5625 13.679688 C 18.78125 13.917969 18.914062 14.089844 18.914062 14.140625 C 18.914062 14.140625 18.914062 14.144531 18.914062 14.144531 C 18.910156 14.164062 18.902344 14.179688 18.894531 14.195312 C 18.835938 14.277344 18.660156 14.191406 18.238281 13.886719 C 17.386719 13.277344 15.824219 12.085938 13.617188 10.351562 C 13.15625 9.988281 12.734375 9.628906 12.675781 9.546875 C 12.386719 9.160156 12.183594 8.535156 12.136719 7.894531 C 12.117188 7.675781 12.117188 7.585938 12.140625 7.546875 C 12.144531 7.542969 12.144531 7.539062 12.148438 7.535156 C 12.148438 7.535156 12.148438 7.535156 12.152344 7.535156 C 12.152344 7.53125 12.15625 7.527344 12.160156 7.527344 C 12.164062 7.523438 12.167969 7.519531 12.175781 7.519531 C 12.183594 7.515625 12.195312 7.511719 12.207031 7.511719 Z M 11.652344 10.085938 C 11.660156 10.085938 11.667969 10.085938 11.671875 10.085938 C 11.757812 10.085938 13.359375 11.230469 15.996094 13.171875 C 17.9375 14.601562 18.34375 14.925781 18.34375 15.03125 C 18.34375 15.054688 18.339844 15.070312 18.335938 15.085938 C 18.335938 15.085938 18.335938 15.089844 18.335938 15.089844 C 18.328125 15.097656 18.324219 15.105469 18.3125 15.113281 C 18.292969 15.125 18.253906 15.125 18.1875 15.125 C 18.105469 15.125 17.890625 15.066406 17.714844 15 C 16.902344 14.691406 15.242188 13.78125 13.136719 12.5 C 12.453125 12.082031 12.152344 11.773438 11.875 11.195312 C 11.726562 10.886719 11.585938 10.414062 11.585938 10.230469 C 11.585938 10.160156 11.589844 10.125 11.609375 10.105469 C 11.609375 10.101562 11.609375 10.101562 11.613281 10.101562 C 11.613281 10.097656 11.617188 10.097656 11.621094 10.097656 C 11.621094 10.09375 11.621094 10.09375 11.625 10.09375 C 11.632812 10.089844 11.640625 10.085938 11.652344 10.085938 Z M 11.558594 12.53125 C 11.585938 12.527344 11.617188 12.53125 11.652344 12.546875 C 11.832031 12.617188 15.308594 14.488281 16.785156 15.308594 C 17.527344 15.71875 17.734375 15.851562 17.757812 15.941406 C 17.761719 15.957031 17.761719 15.972656 17.753906 15.988281 C 17.714844 16.09375 17.527344 16.074219 16.960938 15.914062 C 15.746094 15.566406 13.328125 14.535156 12.394531 13.96875 C 12.046875 13.757812 11.699219 13.4375 11.5625 13.203125 C 11.378906 12.875 11.390625 12.550781 11.558594 12.53125 Z M 23.570312 12.828125 C 23.714844 12.824219 23.753906 12.796875 23.785156 12.824219 C 23.785156 12.824219 23.789062 12.828125 23.789062 12.828125 C 23.789062 12.828125 23.792969 12.832031 23.792969 12.835938 C 23.796875 12.839844 23.800781 12.847656 23.804688 12.855469 C 23.84375 12.960938 23.722656 13.078125 23.574219 13.109375 C 23.410156 13.144531 23.417969 13.144531 23.253906 13.070312 C 23.195312 13.042969 23.160156 13.023438 23.144531 12.996094 C 23.128906 12.972656 23.125 12.941406 23.132812 12.894531 C 23.144531 12.777344 23.171875 12.84375 23.480469 12.832031 C 23.515625 12.828125 23.550781 12.835938 23.570312 12.828125 Z M 15.492188 17.203125 C 15.496094 17.203125 15.496094 17.203125 15.5 17.203125 C 15.550781 17.203125 15.71875 17.253906 15.875 17.316406 C 16.109375 17.410156 16.160156 17.449219 16.160156 17.523438 C 16.160156 17.605469 16.058594 17.660156 15.324219 17.957031 C 14.203125 18.414062 13.097656 18.824219 12.550781 18.984375 C 11.921875 19.171875 11.386719 19.195312 11 19.058594 C 10.695312 18.945312 10.554688 18.839844 10.554688 18.722656 C 10.554688 18.714844 10.554688 18.707031 10.558594 18.699219 C 10.558594 18.695312 10.558594 18.691406 10.5625 18.6875 C 10.578125 18.652344 10.640625 18.644531 10.824219 18.644531 C 11.117188 18.644531 11.109375 18.644531 13.835938 17.730469 C 14.675781 17.449219 15.410156 17.214844 15.492188 17.203125 Z M 16.535156 17.59375 C 16.570312 17.59375 16.597656 17.59375 16.632812 17.597656 C 16.746094 17.609375 16.914062 17.644531 17.003906 17.675781 C 17.300781 17.78125 17.242188 17.851562 16.441406 18.351562 C 15.136719 19.167969 14.054688 19.757812 13.417969 19.988281 C 13.058594 20.121094 12.355469 20.164062 12.113281 20.066406 C 11.863281 19.96875 11.746094 19.871094 11.757812 19.769531 C 11.765625 19.707031 11.804688 19.679688 11.894531 19.667969 C 12.304688 19.628906 12.871094 19.378906 14.925781 18.339844 C 16.132812 17.726562 16.375 17.605469 16.535156 17.59375 Z M 17.667969 17.8125 C 17.691406 17.8125 17.714844 17.816406 17.742188 17.820312 C 18.363281 17.917969 18.367188 17.957031 17.777344 18.457031 C 16.328125 19.6875 14.882812 20.65625 14.183594 20.863281 C 13.886719 20.953125 13.542969 20.949219 13.332031 20.851562 C 13.0625 20.726562 13.066406 20.59375 13.335938 20.527344 C 13.621094 20.457031 13.933594 20.257812 16.28125 18.671875 C 17.335938 17.953125 17.535156 17.824219 17.667969 17.8125 Z M 18.613281 17.960938 L 18.871094 17.976562 C 19.144531 17.992188 19.234375 18.050781 19.167969 18.175781 C 19.09375 18.316406 17.21875 20.300781 16.746094 20.738281 C 16.136719 21.304688 16.136719 21.3125 15.777344 21.476562 C 15.1875 21.742188 14.09375 21.691406 14.738281 21.328125 C 15.011719 21.175781 15.3125 20.9375 17.167969 19.265625 Z M 18.613281 17.960938 "/>
<path style=" stroke:none;fill-rule:nonzero;fill:rgb(100%,100%,100%);fill-opacity:1;" d="M 14.738281 21.328125 C 15.011719 21.175781 15.3125 20.9375 17.167969 19.261719 L 18.613281 17.960938 L 18.871094 17.976562 C 19.144531 17.992188 19.234375 18.054688 19.167969 18.175781 C 19.09375 18.316406 17.21875 20.300781 16.746094 20.738281 C 16.140625 21.304688 16.136719 21.3125 15.773438 21.476562 C 15.1875 21.742188 14.09375 21.691406 14.738281 21.328125 Z M 13.332031 20.851562 C 13.0625 20.726562 13.066406 20.59375 13.335938 20.527344 C 13.621094 20.457031 13.933594 20.257812 16.28125 18.671875 C 17.546875 17.8125 17.578125 17.792969 17.742188 17.820312 C 18.363281 17.914062 18.367188 17.957031 17.777344 18.457031 C 16.328125 19.6875 14.882812 20.65625 14.183594 20.863281 C 13.886719 20.957031 13.542969 20.949219 13.332031 20.851562 Z M 12.113281 20.066406 C 11.863281 19.96875 11.746094 19.871094 11.757812 19.773438 C 11.765625 19.707031 11.804688 19.679688 11.894531 19.671875 C 12.304688 19.628906 12.871094 19.378906 14.921875 18.339844 C 16.382812 17.601562 16.433594 17.578125 16.632812 17.597656 C 16.746094 17.609375 16.914062 17.644531 17.003906 17.675781 C 17.304688 17.78125 17.242188 17.851562 16.441406 18.351562 C 15.136719 19.167969 14.050781 19.757812 13.417969 19.988281 C 13.058594 20.121094 12.355469 20.164062 12.113281 20.066406 Z M 11 19.054688 C 10.695312 18.945312 10.554688 18.84375 10.554688 18.722656 C 10.554688 18.65625 10.589844 18.644531 10.820312 18.644531 C 11.117188 18.644531 11.109375 18.644531 13.835938 17.730469 C 14.695312 17.441406 15.445312 17.203125 15.496094 17.203125 C 15.550781 17.203125 15.71875 17.253906 15.875 17.316406 C 16.105469 17.410156 16.160156 17.449219 16.160156 17.523438 C 16.160156 17.605469 16.058594 17.660156 15.324219 17.957031 C 14.203125 18.414062 13.097656 18.824219 12.550781 18.984375 C 11.921875 19.171875 11.386719 19.195312 11 19.054688 Z M 16.960938 15.914062 C 15.746094 15.566406 13.328125 14.535156 12.394531 13.96875 C 12.042969 13.757812 11.699219 13.4375 11.5625 13.203125 C 11.347656 12.824219 11.402344 12.445312 11.652344 12.546875 C 11.832031 12.613281 15.308594 14.488281 16.785156 15.308594 C 17.660156 15.792969 17.792969 15.886719 17.753906 15.988281 C 17.714844 16.09375 17.527344 16.074219 16.960938 15.914062 Z M 17.714844 15 C 16.902344 14.691406 15.238281 13.78125 13.132812 12.5 C 12.453125 12.082031 12.152344 11.773438 11.875 11.195312 C 11.726562 10.886719 11.585938 10.414062 11.585938 10.230469 C 11.585938 10.109375 11.601562 10.085938 11.671875 10.085938 C 11.753906 10.085938 13.359375 11.230469 15.996094 13.171875 C 17.9375 14.601562 18.34375 14.921875 18.34375 15.03125 C 18.34375 15.113281 18.324219 15.128906 18.1875 15.125 C 18.105469 15.125 17.890625 15.070312 17.714844 15 Z M 18.238281 13.890625 C 17.386719 13.28125 15.824219 12.082031 13.617188 10.347656 C 13.15625 9.988281 12.734375 9.628906 12.671875 9.546875 C 12.386719 9.160156 12.183594 8.535156 12.136719 7.894531 C 12.113281 7.597656 12.117188 7.542969 12.175781 7.519531 C 12.210938 7.503906 12.265625 7.507812 12.300781 7.527344 C 12.457031 7.621094 17.863281 12.933594 18.5625 13.683594 C 18.789062 13.921875 18.921875 14.097656 18.914062 14.144531 C 18.882812 14.296875 18.726562 14.238281 18.238281 13.890625 Z M 19.222656 13.441406 C 18.386719 12.757812 15.320312 9.675781 14.304688 8.496094 C 13.613281 7.6875 13.148438 7.054688 12.957031 6.660156 C 12.816406 6.375 12.804688 6.316406 12.808594 6.003906 C 12.808594 5.582031 12.917969 5.242188 13.054688 5.222656 C 13.125 5.210938 13.40625 5.539062 14.539062 6.957031 C 17.632812 10.828125 19.429688 13.140625 19.574219 13.421875 C 19.691406 13.652344 19.496094 13.660156 19.222656 13.441406 Z M 23.253906 13.070312 C 23.140625 13.019531 23.121094 12.992188 23.132812 12.894531 C 23.144531 12.777344 23.148438 12.84375 23.460938 12.828125 C 23.722656 12.820312 23.777344 12.761719 23.800781 12.824219 C 23.839844 12.929688 23.722656 13.078125 23.574219 13.109375 C 23.410156 13.144531 23.417969 13.144531 23.253906 13.070312 Z M 23.253906 13.070312 "/>
</g>
</svg>
