<?xml version="1.0" encoding="UTF-8" standalone="no"?>
<!-- Created with Inkscape (http://www.inkscape.org/) -->

<svg
   xmlns:dc="http://purl.org/dc/elements/1.1/"
   xmlns:cc="http://creativecommons.org/ns#"
   xmlns:rdf="http://www.w3.org/1999/02/22-rdf-syntax-ns#"
   xmlns:svg="http://www.w3.org/2000/svg"
   xmlns="http://www.w3.org/2000/svg"
   version="1.0"
   width="280"
   height="200"
   id="svg2447">
  <metadata
     id="metadata12">
    <rdf:RDF>
      <cc:Work
         rdf:about="">
        <dc:format>image/svg+xml</dc:format>
        <dc:type
           rdf:resource="http://purl.org/dc/dcmitype/StillImage" />
        <dc:title></dc:title>
      </cc:Work>
    </rdf:RDF>
  </metadata>
  <defs
     id="defs2449" />
  <path
     d="m 38.704908,17.958631 c -9.391413,0 -16.951997,7.560583 -16.951997,16.951968 l 0,111.662011 c 0,9.39142 7.560584,16.952 16.951997,16.952 l 197.285592,0 40.87303,-16.57758 L 265.14427,18.033993 38.704908,17.958603 z"
     id="path2475"
     style="fill:#ffffff;fill-opacity:1;stroke:none" />
  <path
     d="m 263.04801,17.958631 c 9.3914,0 16.95198,7.560583 16.95198,16.951968 l 0,111.662011 c 0,9.39142 -7.56058,16.952 -16.95198,16.952 l -30.9558,0 0.44692,-12.45339 c 17.37049,0.87204 28.87573,-1.29726 35.25631,-8.32827 0.0374,-3.00254 2.34723,-8.06197 -2.25676,-16.58804 -2.52191,-4.6703 -5.5706,-10.38074 -15.80497,-17.36306 -0.53754,-7.74914 -4.71329,-11.47108 -7.71427,-15.13544 -3.35736,-4.09952 -5.70802,-7.756081 -9.15796,-9.451752 l -40.52359,-66.170665 70.71012,-0.07539 z"
     id="rect2470"
     style="fill:#fa012d;fill-opacity:1;stroke:none" />
  <path
     d="m 16.983699,17.958631 c -9.391399,0 -16.951997,7.560583 -16.951997,16.951968 l 0,111.662011 c 0,9.39142 7.560598,16.952 16.951997,16.952 l 99.869311,0 c -1.10929,-3.8126 -4.20066,-12.02779 -6.94824,-12.04338 -2.19822,-0.18746 -10.553089,0.85293 -12.003798,-0.7399 6.322518,-46.51116 14.453488,-43.07995 22.666648,-49.12803 1.49646,-1.10197 -1.02361,-2.47127 -0.0284,-3.87084 1.23551,-1.73756 -1.35192,-3.45247 -0.41492,-5.13808 1.43247,-2.57699 -9.90592,0.37916 -9.0093,-2.17698 1.75594,-5.006002 3.80923,-8.267776 5.05823,-12.570025 1.03547,-3.566647 -0.10993,-1.925226 -0.10377,-3.533166 0.009,-2.406105 -18.164539,1.308299 -17.608885,-0.980349 1.021399,-4.206779 15.864815,-8.398236 15.664025,-12.556484 -0.90628,-18.769253 14.7309,-28.556997 25.86033,-28.202834 19.52892,-0.338053 24.99401,1.793192 32.04532,14.62134 4.64728,9.274973 10.1895,24.67305 0.26967,28.967345 0.61195,4.514905 1.65143,8.388504 4.21409,9.977324 3.46801,-0.126272 4.80701,0.178185 7.73058,0.170245 20.66076,-0.05618 30.27894,1.583273 35.19639,4.949604 l 1.30489,-8.550492 -49.39764,-64.685915 -154.364489,-0.07539 z"
     id="path2473"
     style="fill:#092668;fill-opacity:1;stroke:none" />
  <path
     d="m 1.2e-5,187.62038 0,-19.39022 4.814834,0 2.296832,10.33009 c 0.124696,0.55864 0.241021,1.23072 0.348775,2.01627 0.107782,0.78557 0.212655,1.71078 0.314748,2.77565 0.06808,-1.02123 0.155955,-1.92462 0.263709,-2.71019 0.107783,-0.78554 0.241021,-1.47073 0.399828,-2.05554 l 2.535001,-10.35628 4.62769,0 0,19.39022 -3.113472,0 c -0.02265,-0.58482 -0.03684,-1.21108 -0.04257,-1.8788 -0.0057,-0.66772 -0.0086,-1.64313 -0.0086,-2.92622 -1.4e-5,-2.5225 0.04543,-4.85081 0.136162,-6.98492 0.09073,-2.13409 0.232507,-4.0958 0.42534,-5.88513 l -4.355467,17.67507 -1.854479,0 -3.998179,-17.67507 c 0.113373,2.50507 0.198481,5.2196 0.255196,8.14361 0.05676,2.92404 0.08499,6.10117 0.08514,9.53146 l -3.1305,0 z m 23.002319,-6.49397 3.028407,0 -1.378099,-11.25966 -0.187144,0 -1.463164,11.25966 z m -4.593664,6.49397 3.691944,-19.39022 4.84886,0 3.862075,19.39022 -3.794023,0 -0.629497,-3.91471 -3.72597,0 -0.595471,3.91471 -3.657918,0 z m 13.083414,0.13086 0,-2.67089 c 0.22686,0.0611 0.450868,0.10692 0.672037,0.13745 0.221184,0.0305 0.433854,0.0459 0.638011,0.0459 0.771291,0 1.312885,-0.21383 1.624795,-0.64153 0.311911,-0.42769 0.46788,-1.22635 0.46788,-2.39596 l 0,-13.99604 3.691945,0 0,14.37573 c -1.5e-5,1.92025 -0.391329,3.29063 -1.173943,4.11108 -0.782629,0.82048 -2.075648,1.23071 -3.879088,1.23071 -0.328938,0 -0.663523,-0.0175 -1.003798,-0.0523 -0.340261,-0.035 -0.686212,-0.083 -1.037839,-0.14402 l 0,0 z m 14.971935,-14.50666 0,9.36125 c 0,1.02123 0.181467,1.76315 0.544431,2.22574 0.36295,0.46261 0.935746,0.69391 1.718375,0.69391 0.782614,0 1.355396,-0.2313 1.718374,-0.69391 0.362935,-0.46259 0.544417,-1.20451 0.544432,-2.22574 l 0,-9.36125 c -1.5e-5,-1.0212 -0.181497,-1.76313 -0.544432,-2.22573 -0.362978,-0.46261 -0.93576,-0.69391 -1.718374,-0.69392 -0.782629,1e-5 -1.355425,0.23131 -1.718375,0.69392 -0.362964,0.4626 -0.544431,1.20453 -0.544431,2.22573 l 0,0 z m -3.794023,1.53184 c 0,-2.45267 0.473541,-4.21798 1.420639,-5.29597 0.947069,-1.07794 2.492475,-1.61693 4.63619,-1.61694 2.132348,1e-5 3.674917,0.54118 4.627675,1.62349 0.952759,1.08234 1.429139,2.84548 1.429153,5.28942 l 0,6.29758 c -1.4e-5,2.45267 -0.476394,4.22018 -1.429153,5.30251 C 52.401739,187.45883 50.85917,188 48.726822,188 c -2.143715,0 -3.689121,-0.54117 -4.63619,-1.62349 -0.947098,-1.08233 -1.420639,-2.84984 -1.420639,-5.30251 l 0,-6.29758 z m 19.85482,2.19957 0.90172,0 c 1.270331,2e-5 2.146524,-0.23129 2.628579,-0.69391 0.482055,-0.4626 0.723061,-1.31361 0.723076,-2.55307 -1.5e-5,-1.12594 -0.226846,-1.91149 -0.680536,-2.35667 -0.453705,-0.44514 -1.236334,-0.66771 -2.347872,-0.66774 l -1.224967,0 0,6.27139 z m -3.725971,10.64433 0,-19.39022 4.117285,0 c 2.926315,3e-5 4.933896,0.40807 6.022788,1.22416 1.088849,0.81613 1.633281,2.29341 1.633295,4.43187 -1.4e-5,1.30927 -0.235359,2.36323 -0.706062,3.16187 -0.470718,0.79867 -1.210807,1.39874 -2.220252,1.80024 l 3.317628,8.77208 -3.845061,0 -2.960355,-8.15673 -1.633295,0 0,8.15673 -3.725971,0 z m 22.04956,0 0,-19.39022 3.725956,0 0,16.70622 6.822444,0 0,2.684 -10.5484,0 z m 12.590022,0 0,-19.39022 9.969946,0 0,2.60545 -6.243975,0 0,5.36798 4.882885,0 0,2.64471 -4.882885,0 0,6.16664 6.822435,0 0,2.60544 -10.548406,0 z m 16.060796,-6.49396 3.02841,0 -1.37809,-11.25967 -0.18715,0 -1.46317,11.25967 z m -4.59366,6.49396 3.69194,-19.39022 4.84886,0 3.86208,19.39022 -3.79401,0 -0.62951,-3.9147 -3.72597,0 -0.59547,3.9147 -3.65792,0 z m 26.71129,0 -1.76942,0 -0.90172,-1.4271 c -0.51042,0.54115 -1.1144,0.9492 -1.81193,1.22415 -0.69757,0.27496 -1.46602,0.41243 -2.30535,0.41243 -1.84882,0 -3.19855,-0.53899 -4.04922,-1.61695 -0.85068,-1.07795 -1.27602,-2.79091 -1.27602,-5.13885 l 0,-6.29758 c 0,-2.45267 0.47354,-4.21798 1.42064,-5.29597 0.94707,-1.07794 2.49247,-1.61693 4.63619,-1.61694 1.98491,1e-5 3.4906,0.50626 4.5171,1.51875 1.02647,1.01251 1.53971,2.48761 1.53973,4.42531 l 0,0.70699 -3.79402,0 0,-1.26998 c -2e-5,-1.0212 -0.1815,-1.76313 -0.54444,-2.22573 -0.36297,-0.46261 -0.93576,-0.69391 -1.71837,-0.69392 -0.78263,1e-5 -1.35543,0.23131 -1.71838,0.69392 -0.36296,0.4626 -0.54443,1.20453 -0.54443,2.22573 l 0,9.25651 c 0,1.02124 0.18147,1.76315 0.54443,2.22575 0.36295,0.4626 0.93575,0.69391 1.71838,0.69391 0.78261,0 1.3554,-0.23131 1.71837,-0.69391 0.36294,-0.4626 0.54442,-1.20451 0.54444,-2.22575 l 0,-2.25194 -1.9906,0 0,-2.42215 5.78462,0 0,9.79332 z m 3.87907,-6.0619 0,-13.32832 3.72597,0 0,14.11389 c 0,1.06485 0.16445,1.82641 0.49339,2.28465 0.32892,0.45824 0.862,0.68737 1.59927,0.68737 0.73725,0 1.27034,-0.22913 1.59928,-0.68737 0.32893,-0.45824 0.49338,-1.2198 0.4934,-2.28465 l 0,-14.11389 3.69193,0 0,13.32832 c -2e-5,2.33048 -0.4452,3.98234 -1.33556,4.95557 -0.89039,0.97321 -2.3734,1.45982 -4.44905,1.45982 -2.087,0 -3.57851,-0.48661 -4.47457,-1.45982 -0.89603,-0.97323 -1.34406,-2.62509 -1.34406,-4.95557 l 0,0 z m 15.85664,6.0619 0,-19.39022 9.96994,0 0,2.60545 -6.24397,0 0,5.36798 4.88289,0 0,2.64471 -4.88289,0 0,6.16664 6.82243,0 0,2.60544 -10.5484,0 z m 23.59779,-11.28586 1.12289,0 c 1.16825,1e-5 1.98774,-0.21166 2.45845,-0.635 0.47071,-0.42332 0.70607,-1.17614 0.70607,-2.25848 0,-1.03867 -0.22969,-1.75877 -0.68905,-2.1603 -0.45938,-0.40148 -1.26186,-0.60224 -2.40742,-0.60225 l -1.19094,0 0,5.65603 z m 0,8.79825 1.32706,0 c 1.22497,0 2.08131,-0.24221 2.56904,-0.72665 0.4877,-0.48442 0.73156,-1.35071 0.73157,-2.59888 -1e-5,-1.09106 -0.24103,-1.8526 -0.72306,-2.28466 -0.48207,-0.43205 -1.34125,-0.64809 -2.57755,-0.64809 l -1.32706,0 0,6.25828 z m -3.72596,2.48761 0,-19.39022 4.6617,0 c 2.69947,3e-5 4.5653,0.37098 5.59745,1.11287 1.03215,0.74194 1.54823,2.05121 1.54825,3.92781 -2e-5,1.1958 -0.19568,2.1232 -0.58698,2.78218 -0.39132,0.65901 -1.02932,1.13688 -1.91403,1.43365 0.98677,0.29676 1.70986,0.80956 2.16924,1.53839 0.45936,0.72882 0.68903,1.72604 0.68904,2.99165 -1e-5,1.98137 -0.5728,3.41065 -1.71836,4.28786 -1.14559,0.8772 -3.01142,1.31581 -5.59746,1.31581 l -4.84885,0 z m 18.57877,-6.49396 3.02842,0 -1.37808,-11.25967 -0.18717,0 -1.46317,11.25967 z m -4.59365,6.49396 3.69195,-19.39022 4.84886,0 3.86207,19.39022 -3.79402,0 -0.62951,-3.9147 -3.72596,0 -0.59547,3.9147 -3.65792,0 z m 13.50877,-5.04067 3.55583,-0.40588 0,0.17022 c 0,1.04739 0.1758,1.83514 0.52742,2.3632 0.35162,0.52808 0.8847,0.79212 1.59928,0.79212 0.62382,0 1.10586,-0.18548 1.44615,-0.55644 0.34026,-0.37096 0.51039,-0.90121 0.51041,-1.59076 -2e-5,-0.47133 -0.11624,-0.93612 -0.34878,-1.39436 -0.23253,-0.45825 -0.59266,-0.94922 -1.08036,-1.47293 -0.46504,-0.48006 -1.25901,-1.23725 -2.3819,-2.27158 -1.1229,-1.03431 -1.87717,-1.82204 -2.26281,-2.36322 -0.43101,-0.61098 -0.75426,-1.19796 -0.96977,-1.76096 -0.21551,-0.56296 -0.32326,-1.10196 -0.32325,-1.61694 -1e-5,-1.42273 0.47638,-2.55086 1.42914,-3.38446 0.95276,-0.83354 2.23443,-1.25032 3.84506,-1.25034 1.64462,2e-5 2.94333,0.42335 3.89611,1.26999 0.95274,0.84668 1.46313,2.0381 1.53121,3.5743 l -3.36868,0.32731 c -0.0568,-0.9252 -0.24955,-1.59946 -0.57846,-2.02281 -0.32895,-0.42332 -0.82233,-0.63497 -1.48018,-0.635 -0.48774,3e-5 -0.89039,0.16804 -1.20796,0.50406 -0.31759,0.33607 -0.4764,0.76596 -0.4764,1.28963 0,0.46262 0.15597,0.97325 0.46788,1.53185 0.31191,0.55862 0.75143,1.11287 1.31856,1.66277 0.2155,0.20948 0.53876,0.51499 0.96978,0.91648 1.5312,1.44892 2.56336,2.49197 3.09645,3.12914 0.5104,0.60226 0.89037,1.23071 1.13992,1.88535 0.24952,0.65462 0.37429,1.34853 0.3743,2.08172 -1e-5,1.37036 -0.51609,2.4876 -1.54824,3.35171 -1.03216,0.86413 -2.36489,1.29618 -3.99818,1.29618 -1.69002,0 -3.02558,-0.46698 -4.00669,-1.40092 -0.98113,-0.93392 -1.53973,-2.27374 -1.67584,-4.01943 l 0,0 z m 13.95111,5.04067 0,-19.39022 9.96993,0 0,2.60545 -6.24397,0 0,5.36798 4.88288,0 0,2.64471 -4.88288,0 0,6.16664 6.82244,0 0,2.60544 -10.5484,0 z m 16.65627,-11.28586 1.1229,0 c 1.16825,1e-5 1.98773,-0.21166 2.45845,-0.635 0.47069,-0.42332 0.70605,-1.17614 0.70606,-2.25848 -1e-5,-1.03867 -0.22969,-1.75877 -0.68905,-2.1603 -0.45936,-0.40148 -1.26184,-0.60224 -2.40741,-0.60225 l -1.19095,0 0,5.65603 z m 0,8.79825 1.32706,0 c 1.22497,0 2.08132,-0.24221 2.56904,-0.72665 0.48772,-0.48442 0.73159,-1.35071 0.73159,-2.59888 0,-1.09106 -0.24104,-1.8526 -0.72308,-2.28466 -0.48205,-0.43205 -1.34125,-0.64809 -2.57755,-0.64809 l -1.32706,0 0,6.25828 z m -3.72597,2.48761 0,-19.39022 4.66171,0 c 2.69947,3e-5 4.56529,0.37098 5.59747,1.11287 1.03213,0.74194 1.54821,2.05121 1.54823,3.92781 -2e-5,1.1958 -0.19566,2.1232 -0.58696,2.78218 -0.39133,0.65901 -1.02934,1.13688 -1.91403,1.43365 0.98677,0.29676 1.70984,0.80956 2.16922,1.53839 0.45936,0.72882 0.68904,1.72604 0.68905,2.99165 -10e-6,1.98137 -0.57281,3.41065 -1.71837,4.28786 -1.14558,0.8772 -3.01141,1.31581 -5.59745,1.31581 l -4.84887,0 z m 18.57878,-6.49396 3.02841,0 -1.37809,-11.25967 -0.18715,0 -1.46317,11.25967 z m -4.59366,6.49396 3.69194,-19.39022 4.84886,0 3.86208,19.39022 -3.79403,0 -0.62949,-3.9147 -3.72597,0 -0.59547,3.9147 -3.65792,0 z m 14.86987,0 0,-19.39022 3.72597,0 0,16.70622 6.82243,0 0,2.684 -10.5484,0 z m 12.59001,0 0,-19.39022 3.72598,0 0,16.70622 6.82243,0 0,2.684 -10.54841,0 z"
     id="text2477"
     style="font-size:196.72744751px;font-style:normal;font-weight:normal;fill:#fa012d;fill-opacity:1;stroke:none;font-family:Bitstream Vera Sans" />
  <path
     d="m 45.136812,128.72285 a 11.20285,11.20285 0 0 1 -22.405699,0 11.20285,11.20285 0 1 1 22.405699,0 z"
     id="path2529"
     style="fill:#ffffff;fill-opacity:1;stroke:none" />
</svg>
