<?xml version="1.0" encoding="UTF-8"?>
<svg xmlns="http://www.w3.org/2000/svg" xmlns:xlink="http://www.w3.org/1999/xlink" width="35pt" height="25pt" viewBox="0 0 35 25" version="1.1">
<g id="surface1">
<path style=" stroke:none;fill-rule:evenodd;fill:rgb(100%,100%,100%);fill-opacity:1;" d="M 7.925781 12.5 L 17.75 2.675781 L 27.574219 12.5 L 17.75 22.324219 Z M 7.925781 12.5 "/>
<path style=" stroke:none;fill-rule:evenodd;fill:rgb(100%,100%,100%);fill-opacity:1;" d="M 5.25 12.5 L 17.75 0 L 30.25 12.5 L 17.75 25 Z M 5.25 12.5 "/>
<path style=" stroke:none;fill-rule:evenodd;fill:rgb(0%,0%,0%);fill-opacity:1;" d="M 13.550781 10.777344 L 16.246094 10.777344 L 16.246094 9.910156 L 13.191406 9.910156 L 10.832031 12.289062 L 16.246094 12.289062 L 16.246094 11.421875 L 12.90625 11.421875 Z M 26.480469 12.289062 L 17.960938 3.769531 L 17.960938 12.289062 L 18.828125 12.289062 L 18.828125 9.488281 L 21.011719 9.488281 L 21.011719 8.640625 L 18.828125 8.640625 L 18.828125 5.839844 L 21.609375 8.640625 L 21.335938 8.640625 L 21.335938 9.488281 L 22.476562 9.488281 L 25.277344 12.289062 Z M 17.539062 12.289062 L 17.539062 3.769531 L 9.019531 12.289062 L 10.222656 12.289062 L 13.023438 9.488281 L 16.671875 9.488281 L 16.671875 12.289062 Z M 16.671875 8.640625 L 13.871094 8.640625 L 16.671875 5.839844 L 13.871094 8.640625 L 16.671875 5.839844 L 13.871094 8.640625 L 16.671875 5.839844 Z M 16.671875 8.640625 "/>
<path style=" stroke:none;fill-rule:evenodd;fill:rgb(0%,0%,0%);fill-opacity:1;" d="M 5.453125 12.492188 L 17.742188 24.78125 L 30.046875 12.492188 L 17.742188 0.21875 Z M 17.742188 2.9375 L 8.1875 12.492188 L 17.742188 22.0625 L 27.3125 12.492188 Z M 17.742188 2.9375 "/>
<path style=" stroke:none;fill-rule:evenodd;fill:rgb(0%,0%,0%);fill-opacity:1;" d="M 17.742188 12.710938 L 9.019531 12.710938 L 17.742188 21.453125 L 22.113281 17.082031 L 22.113281 14.84375 L 22.179688 14.769531 L 22.113281 14.734375 L 22.113281 14.542969 L 22.292969 14.226562 L 22.105469 14.226562 L 22.105469 13.851562 L 22.027344 13.488281 L 22.027344 11.84375 L 22.089844 11.628906 L 22.226562 11.628906 L 22.242188 11.535156 L 22.160156 11.535156 L 22.007812 11.339844 L 22.007812 10.570312 L 22.1875 10.289062 L 22.109375 10.289062 L 22.109375 9.910156 L 21.210938 9.910156 L 21.210938 8.414062 L 21.132812 8.332031 L 21.132812 9.910156 L 20.238281 9.910156 L 20.238281 10.289062 L 20.160156 10.289062 L 20.332031 10.570312 C 20.339844 10.570312 20.335938 11.273438 20.335938 11.339844 L 20.183594 11.535156 L 20.101562 11.535156 L 20.117188 11.628906 L 20.253906 11.628906 L 20.320312 11.84375 L 20.320312 13.488281 L 20.242188 13.851562 L 20.242188 14.226562 L 20.050781 14.226562 L 20.234375 14.542969 L 20.234375 14.734375 L 20.164062 14.769531 L 20.234375 14.84375 L 20.234375 15.203125 Z M 22.242188 11.457031 L 22.242188 11.195312 L 22.085938 11.195312 L 22.085938 11.308594 L 22.203125 11.457031 Z M 20.257812 11.195312 L 20.101562 11.195312 L 20.101562 11.457031 L 20.140625 11.457031 L 20.257812 11.308594 Z M 21.441406 12.605469 L 21.441406 13.425781 L 20.914062 13.425781 L 20.914062 12.601562 C 20.914062 12.453125 21.03125 12.335938 21.175781 12.335938 C 21.324219 12.335938 21.441406 12.453125 21.441406 12.601562 Z M 21.175781 10.417969 C 21.382812 10.417969 21.550781 10.585938 21.550781 10.789062 C 21.550781 10.996094 21.382812 11.164062 21.175781 11.164062 C 20.972656 11.164062 20.804688 10.996094 20.804688 10.789062 C 20.804688 10.585938 20.972656 10.417969 21.175781 10.417969 Z M 21.175781 10.417969 "/>
<path style=" stroke:none;fill-rule:nonzero;fill:rgb(100%,100%,100%);fill-opacity:1;" d="M 19.28125 23.273438 L 19.226562 23.328125 L 19.230469 23.332031 L 19.253906 23.308594 L 19.316406 23.371094 L 19.324219 23.363281 L 19.261719 23.300781 L 19.285156 23.277344 Z M 19.292969 23.261719 L 19.289062 23.265625 L 19.296875 23.273438 L 19.300781 23.269531 Z M 19.316406 23.285156 L 19.3125 23.289062 L 19.355469 23.332031 L 19.359375 23.328125 Z M 19.398438 23.273438 C 19.398438 23.273438 19.398438 23.273438 19.398438 23.277344 C 19.398438 23.28125 19.398438 23.28125 19.398438 23.28125 C 19.398438 23.28125 19.398438 23.285156 19.398438 23.285156 C 19.398438 23.285156 19.394531 23.285156 19.394531 23.285156 C 19.394531 23.285156 19.394531 23.285156 19.394531 23.28125 C 19.390625 23.28125 19.390625 23.28125 19.390625 23.28125 L 19.367188 23.257812 C 19.367188 23.257812 19.367188 23.253906 19.363281 23.253906 C 19.363281 23.253906 19.363281 23.25 19.359375 23.25 C 19.359375 23.25 19.359375 23.25 19.355469 23.25 C 19.355469 23.25 19.351562 23.25 19.351562 23.25 C 19.347656 23.25 19.347656 23.253906 19.34375 23.253906 C 19.34375 23.253906 19.34375 23.257812 19.339844 23.257812 C 19.339844 23.257812 19.339844 23.261719 19.335938 23.261719 C 19.335938 23.265625 19.335938 23.265625 19.335938 23.265625 C 19.332031 23.269531 19.332031 23.269531 19.332031 23.273438 C 19.332031 23.273438 19.332031 23.273438 19.332031 23.277344 L 19.335938 23.28125 C 19.335938 23.277344 19.335938 23.277344 19.339844 23.273438 C 19.339844 23.269531 19.339844 23.269531 19.339844 23.265625 C 19.339844 23.265625 19.34375 23.265625 19.34375 23.261719 C 19.347656 23.257812 19.347656 23.257812 19.351562 23.257812 C 19.355469 23.257812 19.355469 23.257812 19.359375 23.257812 C 19.359375 23.257812 19.363281 23.257812 19.363281 23.261719 L 19.367188 23.265625 C 19.367188 23.269531 19.367188 23.269531 19.363281 23.269531 C 19.363281 23.273438 19.363281 23.273438 19.359375 23.277344 C 19.359375 23.28125 19.359375 23.28125 19.355469 23.285156 C 19.355469 23.289062 19.355469 23.289062 19.355469 23.292969 C 19.351562 23.296875 19.355469 23.296875 19.355469 23.300781 C 19.355469 23.304688 19.355469 23.304688 19.359375 23.308594 C 19.359375 23.308594 19.363281 23.3125 19.363281 23.3125 C 19.367188 23.3125 19.367188 23.3125 19.371094 23.3125 C 19.371094 23.3125 19.375 23.3125 19.375 23.3125 C 19.378906 23.3125 19.378906 23.308594 19.382812 23.308594 C 19.382812 23.304688 19.386719 23.304688 19.386719 23.300781 C 19.386719 23.300781 19.386719 23.296875 19.386719 23.296875 C 19.390625 23.296875 19.390625 23.292969 19.390625 23.292969 C 19.390625 23.289062 19.390625 23.289062 19.390625 23.289062 C 19.390625 23.289062 19.394531 23.289062 19.394531 23.289062 C 19.394531 23.292969 19.394531 23.292969 19.398438 23.292969 C 19.398438 23.292969 19.398438 23.292969 19.398438 23.289062 C 19.398438 23.289062 19.402344 23.289062 19.402344 23.285156 C 19.402344 23.285156 19.402344 23.28125 19.402344 23.277344 Z M 19.386719 23.285156 C 19.386719 23.285156 19.386719 23.285156 19.386719 23.289062 C 19.386719 23.289062 19.386719 23.292969 19.386719 23.292969 C 19.382812 23.292969 19.382812 23.296875 19.382812 23.296875 C 19.382812 23.300781 19.382812 23.300781 19.378906 23.300781 C 19.378906 23.304688 19.378906 23.304688 19.375 23.304688 C 19.375 23.304688 19.375 23.304688 19.371094 23.304688 C 19.371094 23.304688 19.371094 23.304688 19.367188 23.304688 C 19.367188 23.304688 19.363281 23.304688 19.363281 23.304688 C 19.363281 23.300781 19.363281 23.300781 19.359375 23.300781 C 19.359375 23.296875 19.359375 23.296875 19.359375 23.292969 C 19.359375 23.292969 19.359375 23.289062 19.359375 23.289062 C 19.359375 23.289062 19.363281 23.285156 19.363281 23.285156 C 19.363281 23.28125 19.363281 23.28125 19.367188 23.277344 C 19.367188 23.277344 19.367188 23.277344 19.371094 23.273438 C 19.371094 23.273438 19.371094 23.269531 19.371094 23.269531 Z M 19.402344 23.195312 L 19.386719 23.210938 C 19.386719 23.214844 19.386719 23.214844 19.382812 23.214844 C 19.382812 23.21875 19.382812 23.21875 19.378906 23.222656 C 19.378906 23.222656 19.378906 23.226562 19.378906 23.226562 C 19.375 23.230469 19.375 23.230469 19.375 23.234375 C 19.375 23.238281 19.378906 23.238281 19.378906 23.242188 C 19.378906 23.246094 19.382812 23.246094 19.382812 23.25 C 19.386719 23.25 19.386719 23.253906 19.390625 23.253906 C 19.390625 23.253906 19.394531 23.253906 19.394531 23.253906 C 19.398438 23.253906 19.398438 23.253906 19.402344 23.253906 C 19.402344 23.253906 19.40625 23.253906 19.40625 23.253906 C 19.40625 23.253906 19.40625 23.253906 19.410156 23.25 C 19.40625 23.253906 19.40625 23.257812 19.40625 23.257812 C 19.40625 23.261719 19.40625 23.261719 19.40625 23.261719 C 19.40625 23.265625 19.40625 23.265625 19.40625 23.269531 C 19.40625 23.269531 19.410156 23.269531 19.410156 23.269531 C 19.410156 23.269531 19.414062 23.269531 19.414062 23.269531 C 19.417969 23.269531 19.417969 23.269531 19.421875 23.265625 C 19.417969 23.269531 19.417969 23.273438 19.417969 23.277344 C 19.414062 23.277344 19.414062 23.28125 19.414062 23.28125 C 19.414062 23.285156 19.414062 23.285156 19.417969 23.289062 C 19.417969 23.289062 19.417969 23.292969 19.421875 23.292969 C 19.425781 23.292969 19.425781 23.292969 19.425781 23.292969 C 19.429688 23.292969 19.429688 23.292969 19.433594 23.292969 C 19.4375 23.292969 19.4375 23.292969 19.441406 23.289062 C 19.445312 23.289062 19.445312 23.285156 19.449219 23.28125 C 19.453125 23.277344 19.457031 23.273438 19.460938 23.269531 C 19.460938 23.265625 19.460938 23.261719 19.460938 23.257812 C 19.460938 23.257812 19.460938 23.253906 19.457031 23.25 C 19.457031 23.25 19.453125 23.25 19.453125 23.246094 C 19.449219 23.246094 19.449219 23.246094 19.445312 23.246094 C 19.445312 23.246094 19.445312 23.246094 19.441406 23.246094 C 19.441406 23.246094 19.4375 23.25 19.4375 23.25 C 19.433594 23.25 19.433594 23.25 19.433594 23.253906 C 19.429688 23.253906 19.429688 23.253906 19.425781 23.257812 C 19.425781 23.257812 19.425781 23.257812 19.421875 23.261719 C 19.421875 23.261719 19.421875 23.261719 19.417969 23.261719 C 19.417969 23.265625 19.417969 23.265625 19.414062 23.265625 C 19.414062 23.265625 19.414062 23.265625 19.410156 23.261719 C 19.410156 23.261719 19.410156 23.257812 19.410156 23.257812 C 19.410156 23.257812 19.410156 23.253906 19.410156 23.253906 C 19.414062 23.253906 19.414062 23.25 19.414062 23.25 C 19.414062 23.25 19.414062 23.246094 19.417969 23.242188 C 19.417969 23.242188 19.421875 23.238281 19.421875 23.234375 C 19.421875 23.230469 19.421875 23.230469 19.421875 23.226562 C 19.421875 23.226562 19.421875 23.222656 19.417969 23.222656 C 19.417969 23.21875 19.417969 23.21875 19.417969 23.21875 C 19.417969 23.21875 19.414062 23.21875 19.414062 23.214844 C 19.414062 23.214844 19.410156 23.214844 19.410156 23.214844 C 19.410156 23.210938 19.40625 23.210938 19.40625 23.210938 C 19.402344 23.210938 19.402344 23.210938 19.402344 23.210938 C 19.398438 23.210938 19.398438 23.210938 19.398438 23.210938 L 19.40625 23.199219 Z M 19.386719 23.222656 C 19.386719 23.21875 19.390625 23.21875 19.390625 23.21875 C 19.394531 23.214844 19.394531 23.214844 19.398438 23.214844 C 19.402344 23.214844 19.402344 23.214844 19.40625 23.21875 C 19.40625 23.21875 19.410156 23.21875 19.410156 23.222656 C 19.414062 23.222656 19.414062 23.226562 19.414062 23.226562 C 19.414062 23.230469 19.414062 23.234375 19.414062 23.238281 C 19.414062 23.238281 19.414062 23.242188 19.410156 23.246094 C 19.40625 23.246094 19.40625 23.246094 19.402344 23.25 C 19.398438 23.25 19.398438 23.25 19.394531 23.25 C 19.390625 23.246094 19.390625 23.246094 19.386719 23.246094 C 19.386719 23.242188 19.382812 23.238281 19.382812 23.238281 C 19.382812 23.234375 19.382812 23.230469 19.382812 23.226562 C 19.382812 23.226562 19.386719 23.222656 19.386719 23.222656 Z M 19.453125 23.253906 C 19.453125 23.257812 19.453125 23.257812 19.457031 23.257812 C 19.457031 23.261719 19.457031 23.261719 19.457031 23.265625 C 19.453125 23.265625 19.453125 23.269531 19.453125 23.269531 C 19.453125 23.273438 19.449219 23.277344 19.445312 23.277344 C 19.445312 23.28125 19.445312 23.28125 19.445312 23.28125 C 19.445312 23.28125 19.441406 23.28125 19.441406 23.285156 C 19.441406 23.285156 19.4375 23.285156 19.4375 23.285156 C 19.433594 23.289062 19.433594 23.289062 19.433594 23.289062 C 19.429688 23.289062 19.429688 23.289062 19.425781 23.289062 C 19.425781 23.289062 19.425781 23.289062 19.421875 23.285156 C 19.421875 23.285156 19.421875 23.285156 19.421875 23.28125 C 19.421875 23.277344 19.421875 23.277344 19.421875 23.277344 C 19.421875 23.277344 19.421875 23.277344 19.421875 23.273438 C 19.421875 23.273438 19.421875 23.273438 19.421875 23.269531 C 19.425781 23.269531 19.425781 23.269531 19.425781 23.265625 C 19.425781 23.265625 19.429688 23.265625 19.429688 23.261719 C 19.433594 23.261719 19.433594 23.261719 19.433594 23.257812 C 19.433594 23.257812 19.4375 23.257812 19.4375 23.253906 C 19.441406 23.253906 19.441406 23.253906 19.441406 23.253906 C 19.445312 23.253906 19.445312 23.253906 19.449219 23.253906 C 19.449219 23.253906 19.453125 23.253906 19.453125 23.253906 Z M 19.429688 23.167969 C 19.425781 23.171875 19.421875 23.175781 19.421875 23.179688 C 19.417969 23.183594 19.417969 23.1875 19.417969 23.191406 C 19.417969 23.199219 19.417969 23.203125 19.421875 23.203125 C 19.421875 23.207031 19.425781 23.210938 19.429688 23.214844 C 19.433594 23.21875 19.433594 23.21875 19.4375 23.222656 C 19.441406 23.222656 19.445312 23.222656 19.449219 23.226562 C 19.449219 23.226562 19.453125 23.226562 19.457031 23.222656 C 19.460938 23.222656 19.464844 23.222656 19.464844 23.222656 C 19.46875 23.21875 19.472656 23.21875 19.472656 23.214844 C 19.476562 23.210938 19.480469 23.210938 19.480469 23.207031 C 19.484375 23.203125 19.484375 23.199219 19.484375 23.195312 C 19.484375 23.191406 19.484375 23.1875 19.480469 23.183594 C 19.480469 23.179688 19.476562 23.175781 19.472656 23.171875 C 19.46875 23.167969 19.46875 23.164062 19.464844 23.164062 C 19.460938 23.160156 19.457031 23.160156 19.453125 23.160156 C 19.449219 23.160156 19.445312 23.160156 19.441406 23.164062 C 19.433594 23.164062 19.433594 23.167969 19.429688 23.167969 Z M 19.433594 23.175781 C 19.433594 23.171875 19.4375 23.171875 19.441406 23.167969 C 19.441406 23.167969 19.445312 23.167969 19.449219 23.167969 C 19.453125 23.167969 19.457031 23.167969 19.460938 23.167969 C 19.460938 23.171875 19.464844 23.171875 19.46875 23.175781 C 19.472656 23.179688 19.472656 23.179688 19.476562 23.183594 C 19.476562 23.1875 19.476562 23.191406 19.476562 23.195312 C 19.476562 23.195312 19.476562 23.199219 19.476562 23.203125 C 19.472656 23.207031 19.472656 23.207031 19.46875 23.210938 C 19.46875 23.214844 19.464844 23.214844 19.460938 23.214844 C 19.457031 23.21875 19.457031 23.21875 19.453125 23.21875 C 19.449219 23.21875 19.445312 23.21875 19.441406 23.214844 C 19.441406 23.214844 19.4375 23.210938 19.433594 23.210938 C 19.429688 23.207031 19.429688 23.203125 19.429688 23.203125 C 19.425781 23.199219 19.425781 23.195312 19.425781 23.195312 C 19.425781 23.191406 19.425781 23.1875 19.425781 23.1875 C 19.425781 23.183594 19.425781 23.183594 19.429688 23.179688 C 19.429688 23.179688 19.429688 23.175781 19.433594 23.175781 Z M 19.5 23.054688 L 19.496094 23.058594 L 19.519531 23.085938 C 19.519531 23.085938 19.519531 23.085938 19.515625 23.085938 C 19.515625 23.085938 19.511719 23.085938 19.511719 23.089844 C 19.507812 23.089844 19.507812 23.089844 19.503906 23.09375 C 19.5 23.097656 19.5 23.101562 19.496094 23.105469 C 19.496094 23.109375 19.496094 23.113281 19.496094 23.117188 C 19.496094 23.121094 19.496094 23.125 19.496094 23.128906 C 19.5 23.132812 19.5 23.136719 19.503906 23.140625 C 19.507812 23.140625 19.511719 23.144531 19.515625 23.144531 C 19.515625 23.148438 19.519531 23.148438 19.523438 23.148438 C 19.527344 23.148438 19.53125 23.148438 19.535156 23.148438 C 19.535156 23.148438 19.539062 23.148438 19.542969 23.144531 C 19.546875 23.144531 19.546875 23.140625 19.550781 23.140625 C 19.550781 23.136719 19.554688 23.136719 19.554688 23.132812 C 19.554688 23.132812 19.558594 23.128906 19.558594 23.128906 C 19.558594 23.125 19.558594 23.125 19.558594 23.121094 L 19.5625 23.125 L 19.566406 23.121094 Z M 19.554688 23.117188 C 19.554688 23.121094 19.554688 23.121094 19.554688 23.121094 C 19.554688 23.125 19.550781 23.125 19.550781 23.128906 C 19.550781 23.128906 19.550781 23.132812 19.546875 23.132812 C 19.542969 23.136719 19.542969 23.136719 19.539062 23.140625 C 19.535156 23.140625 19.53125 23.140625 19.53125 23.140625 C 19.527344 23.140625 19.523438 23.140625 19.519531 23.140625 C 19.515625 23.136719 19.511719 23.136719 19.511719 23.132812 C 19.507812 23.132812 19.503906 23.128906 19.503906 23.125 C 19.503906 23.121094 19.503906 23.121094 19.5 23.117188 C 19.5 23.113281 19.503906 23.109375 19.503906 23.105469 C 19.503906 23.105469 19.507812 23.101562 19.507812 23.097656 C 19.511719 23.097656 19.511719 23.09375 19.515625 23.09375 C 19.519531 23.09375 19.519531 23.089844 19.523438 23.089844 C 19.523438 23.089844 19.523438 23.089844 19.527344 23.089844 Z M 19.554688 23.042969 C 19.550781 23.046875 19.546875 23.050781 19.546875 23.054688 C 19.546875 23.058594 19.542969 23.0625 19.542969 23.066406 C 19.542969 23.070312 19.546875 23.074219 19.546875 23.078125 C 19.550781 23.082031 19.550781 23.085938 19.554688 23.089844 C 19.558594 23.09375 19.5625 23.09375 19.5625 23.097656 C 19.566406 23.097656 19.570312 23.097656 19.574219 23.097656 C 19.578125 23.097656 19.578125 23.097656 19.582031 23.097656 C 19.585938 23.097656 19.589844 23.097656 19.59375 23.09375 C 19.59375 23.09375 19.597656 23.09375 19.601562 23.089844 C 19.601562 23.085938 19.605469 23.082031 19.605469 23.078125 C 19.609375 23.078125 19.609375 23.074219 19.609375 23.066406 C 19.609375 23.0625 19.609375 23.058594 19.605469 23.054688 C 19.605469 23.050781 19.601562 23.046875 19.597656 23.042969 C 19.597656 23.042969 19.59375 23.039062 19.589844 23.039062 C 19.585938 23.035156 19.582031 23.035156 19.578125 23.035156 C 19.574219 23.035156 19.570312 23.035156 19.566406 23.035156 C 19.5625 23.039062 19.558594 23.039062 19.554688 23.042969 Z M 19.558594 23.046875 C 19.5625 23.046875 19.5625 23.042969 19.566406 23.042969 C 19.570312 23.042969 19.570312 23.042969 19.574219 23.042969 C 19.578125 23.042969 19.582031 23.042969 19.585938 23.042969 C 19.589844 23.042969 19.589844 23.046875 19.59375 23.050781 C 19.597656 23.050781 19.597656 23.054688 19.601562 23.058594 C 19.601562 23.0625 19.601562 23.066406 19.601562 23.066406 C 19.601562 23.070312 19.601562 23.074219 19.601562 23.078125 C 19.601562 23.082031 19.597656 23.082031 19.59375 23.085938 C 19.59375 23.085938 19.589844 23.089844 19.585938 23.089844 C 19.585938 23.09375 19.582031 23.09375 19.578125 23.09375 C 19.574219 23.09375 19.570312 23.09375 19.570312 23.089844 C 19.566406 23.089844 19.5625 23.085938 19.558594 23.085938 C 19.558594 23.082031 19.554688 23.078125 19.554688 23.078125 C 19.554688 23.074219 19.550781 23.070312 19.550781 23.070312 C 19.550781 23.066406 19.550781 23.0625 19.550781 23.0625 C 19.550781 23.058594 19.554688 23.054688 19.554688 23.054688 C 19.554688 23.050781 19.558594 23.050781 19.558594 23.046875 Z M 19.640625 22.914062 L 19.636719 22.917969 L 19.667969 23 L 19.589844 22.964844 L 19.582031 22.972656 L 19.679688 23.011719 L 19.679688 23.007812 Z M 19.734375 22.9375 C 19.734375 22.9375 19.734375 22.941406 19.734375 22.941406 C 19.734375 22.941406 19.734375 22.941406 19.734375 22.945312 C 19.734375 22.949219 19.734375 22.949219 19.730469 22.949219 C 19.730469 22.949219 19.730469 22.945312 19.726562 22.945312 L 19.703125 22.921875 C 19.703125 22.921875 19.699219 22.917969 19.699219 22.917969 C 19.699219 22.917969 19.695312 22.917969 19.695312 22.914062 C 19.695312 22.914062 19.691406 22.914062 19.691406 22.914062 C 19.6875 22.914062 19.6875 22.914062 19.6875 22.914062 C 19.683594 22.917969 19.683594 22.917969 19.679688 22.917969 C 19.679688 22.917969 19.675781 22.921875 19.675781 22.921875 C 19.675781 22.921875 19.671875 22.925781 19.671875 22.925781 C 19.671875 22.929688 19.671875 22.929688 19.667969 22.933594 C 19.667969 22.933594 19.667969 22.9375 19.667969 22.9375 C 19.667969 22.9375 19.667969 22.941406 19.667969 22.941406 L 19.671875 22.945312 C 19.671875 22.941406 19.671875 22.941406 19.671875 22.9375 C 19.671875 22.9375 19.675781 22.933594 19.675781 22.933594 C 19.675781 22.929688 19.679688 22.929688 19.679688 22.925781 C 19.683594 22.925781 19.683594 22.921875 19.6875 22.921875 C 19.6875 22.921875 19.691406 22.921875 19.691406 22.921875 C 19.695312 22.921875 19.695312 22.925781 19.699219 22.925781 L 19.703125 22.929688 C 19.703125 22.933594 19.703125 22.933594 19.699219 22.9375 C 19.699219 22.9375 19.695312 22.941406 19.695312 22.941406 C 19.695312 22.945312 19.691406 22.945312 19.691406 22.949219 C 19.691406 22.953125 19.691406 22.953125 19.6875 22.957031 C 19.6875 22.960938 19.6875 22.964844 19.691406 22.964844 C 19.691406 22.96875 19.691406 22.972656 19.695312 22.972656 C 19.695312 22.976562 19.699219 22.976562 19.699219 22.976562 C 19.703125 22.976562 19.703125 22.976562 19.707031 22.976562 C 19.707031 22.976562 19.710938 22.976562 19.710938 22.976562 C 19.714844 22.976562 19.714844 22.972656 19.71875 22.972656 C 19.71875 22.972656 19.71875 22.96875 19.722656 22.96875 C 19.722656 22.964844 19.722656 22.964844 19.722656 22.960938 C 19.722656 22.960938 19.726562 22.957031 19.726562 22.957031 C 19.726562 22.957031 19.726562 22.953125 19.726562 22.953125 C 19.726562 22.953125 19.726562 22.953125 19.730469 22.957031 C 19.734375 22.957031 19.734375 22.957031 19.734375 22.957031 C 19.734375 22.953125 19.734375 22.953125 19.738281 22.949219 C 19.738281 22.949219 19.738281 22.945312 19.738281 22.941406 Z M 19.722656 22.949219 C 19.722656 22.949219 19.722656 22.953125 19.722656 22.953125 C 19.722656 22.953125 19.722656 22.957031 19.71875 22.957031 C 19.71875 22.960938 19.71875 22.960938 19.71875 22.960938 C 19.71875 22.964844 19.714844 22.964844 19.714844 22.96875 C 19.714844 22.96875 19.714844 22.96875 19.710938 22.96875 C 19.710938 22.96875 19.710938 22.972656 19.707031 22.972656 C 19.707031 22.972656 19.703125 22.972656 19.703125 22.972656 C 19.703125 22.96875 19.699219 22.96875 19.699219 22.96875 C 19.699219 22.96875 19.695312 22.964844 19.695312 22.964844 C 19.695312 22.960938 19.695312 22.960938 19.695312 22.960938 C 19.695312 22.957031 19.695312 22.957031 19.695312 22.953125 C 19.695312 22.953125 19.695312 22.949219 19.699219 22.949219 C 19.699219 22.945312 19.699219 22.945312 19.699219 22.945312 C 19.703125 22.941406 19.703125 22.941406 19.703125 22.9375 C 19.707031 22.9375 19.707031 22.9375 19.707031 22.933594 Z M 19.6875 22.867188 L 19.683594 22.871094 L 19.75 22.9375 L 19.753906 22.933594 Z M 19.78125 22.859375 C 19.777344 22.859375 19.777344 22.855469 19.777344 22.855469 C 19.773438 22.855469 19.773438 22.851562 19.769531 22.851562 C 19.765625 22.851562 19.765625 22.851562 19.761719 22.851562 C 19.761719 22.851562 19.757812 22.851562 19.753906 22.851562 C 19.753906 22.851562 19.75 22.851562 19.746094 22.851562 C 19.746094 22.855469 19.742188 22.855469 19.738281 22.859375 C 19.738281 22.863281 19.734375 22.863281 19.734375 22.867188 C 19.730469 22.871094 19.730469 22.875 19.730469 22.878906 C 19.730469 22.882812 19.734375 22.886719 19.734375 22.890625 C 19.738281 22.894531 19.738281 22.898438 19.742188 22.902344 C 19.746094 22.902344 19.746094 22.90625 19.75 22.90625 C 19.753906 22.910156 19.753906 22.910156 19.757812 22.910156 C 19.761719 22.910156 19.765625 22.910156 19.769531 22.910156 C 19.773438 22.910156 19.773438 22.910156 19.777344 22.910156 C 19.78125 22.90625 19.785156 22.90625 19.789062 22.902344 C 19.789062 22.898438 19.792969 22.898438 19.792969 22.894531 C 19.792969 22.890625 19.796875 22.890625 19.796875 22.886719 C 19.796875 22.882812 19.796875 22.882812 19.796875 22.878906 L 19.792969 22.875 C 19.792969 22.875 19.792969 22.878906 19.792969 22.878906 C 19.792969 22.878906 19.792969 22.882812 19.792969 22.882812 C 19.789062 22.886719 19.789062 22.890625 19.789062 22.890625 C 19.789062 22.894531 19.785156 22.894531 19.785156 22.898438 C 19.78125 22.898438 19.78125 22.902344 19.777344 22.902344 C 19.777344 22.902344 19.773438 22.902344 19.769531 22.902344 C 19.769531 22.90625 19.765625 22.90625 19.761719 22.90625 C 19.761719 22.902344 19.757812 22.902344 19.753906 22.902344 C 19.75 22.898438 19.75 22.898438 19.746094 22.894531 Z M 19.742188 22.890625 C 19.742188 22.886719 19.738281 22.886719 19.738281 22.882812 C 19.738281 22.878906 19.738281 22.878906 19.738281 22.875 C 19.738281 22.871094 19.738281 22.871094 19.742188 22.867188 C 19.742188 22.867188 19.742188 22.863281 19.742188 22.863281 C 19.746094 22.859375 19.75 22.859375 19.753906 22.859375 C 19.753906 22.855469 19.757812 22.855469 19.761719 22.859375 C 19.765625 22.859375 19.765625 22.859375 19.765625 22.859375 C 19.769531 22.859375 19.769531 22.859375 19.769531 22.863281 Z M 19.84375 22.835938 C 19.84375 22.832031 19.839844 22.824219 19.839844 22.820312 C 19.839844 22.8125 19.839844 22.808594 19.839844 22.804688 C 19.835938 22.796875 19.835938 22.792969 19.835938 22.789062 C 19.835938 22.785156 19.832031 22.78125 19.832031 22.78125 C 19.832031 22.777344 19.828125 22.773438 19.828125 22.773438 C 19.824219 22.769531 19.824219 22.769531 19.824219 22.765625 C 19.820312 22.765625 19.816406 22.761719 19.816406 22.761719 C 19.8125 22.761719 19.808594 22.757812 19.804688 22.757812 C 19.800781 22.757812 19.796875 22.761719 19.792969 22.761719 C 19.789062 22.761719 19.789062 22.765625 19.785156 22.769531 C 19.78125 22.769531 19.78125 22.773438 19.777344 22.777344 C 19.777344 22.78125 19.777344 22.785156 19.773438 22.789062 L 19.78125 22.796875 C 19.78125 22.792969 19.78125 22.789062 19.78125 22.789062 C 19.78125 22.785156 19.78125 22.78125 19.785156 22.78125 C 19.785156 22.777344 19.785156 22.773438 19.789062 22.773438 C 19.789062 22.769531 19.792969 22.769531 19.792969 22.769531 C 19.796875 22.765625 19.800781 22.765625 19.800781 22.765625 C 19.804688 22.765625 19.808594 22.765625 19.808594 22.769531 C 19.8125 22.769531 19.816406 22.769531 19.816406 22.773438 C 19.820312 22.773438 19.820312 22.777344 19.824219 22.78125 C 19.824219 22.78125 19.828125 22.785156 19.828125 22.789062 C 19.828125 22.792969 19.828125 22.796875 19.832031 22.796875 C 19.832031 22.800781 19.832031 22.804688 19.832031 22.804688 C 19.832031 22.8125 19.835938 22.820312 19.835938 22.828125 C 19.835938 22.835938 19.835938 22.84375 19.835938 22.851562 L 19.878906 22.808594 L 19.875 22.804688 Z M 19.894531 22.726562 C 19.886719 22.722656 19.882812 22.71875 19.875 22.714844 C 19.871094 22.710938 19.867188 22.707031 19.859375 22.707031 C 19.855469 22.707031 19.851562 22.707031 19.847656 22.707031 C 19.84375 22.710938 19.839844 22.710938 19.839844 22.714844 C 19.835938 22.714844 19.835938 22.71875 19.832031 22.722656 C 19.832031 22.722656 19.832031 22.726562 19.832031 22.726562 C 19.832031 22.730469 19.832031 22.734375 19.832031 22.734375 C 19.832031 22.738281 19.832031 22.738281 19.832031 22.742188 C 19.832031 22.746094 19.835938 22.746094 19.835938 22.75 C 19.835938 22.753906 19.839844 22.757812 19.84375 22.761719 C 19.84375 22.765625 19.847656 22.769531 19.851562 22.769531 C 19.859375 22.777344 19.863281 22.78125 19.867188 22.785156 C 19.875 22.785156 19.878906 22.789062 19.882812 22.789062 C 19.886719 22.789062 19.894531 22.789062 19.898438 22.789062 C 19.902344 22.789062 19.902344 22.785156 19.90625 22.78125 C 19.910156 22.78125 19.910156 22.777344 19.910156 22.777344 C 19.914062 22.773438 19.914062 22.769531 19.914062 22.765625 C 19.914062 22.761719 19.914062 22.757812 19.910156 22.753906 C 19.910156 22.75 19.910156 22.746094 19.90625 22.742188 C 19.902344 22.738281 19.898438 22.734375 19.894531 22.726562 Z M 19.886719 22.730469 C 19.890625 22.734375 19.894531 22.738281 19.894531 22.738281 C 19.898438 22.742188 19.898438 22.746094 19.902344 22.746094 C 19.902344 22.75 19.902344 22.753906 19.90625 22.753906 C 19.90625 22.757812 19.90625 22.761719 19.90625 22.765625 C 19.90625 22.765625 19.90625 22.769531 19.90625 22.773438 C 19.90625 22.773438 19.902344 22.777344 19.902344 22.777344 C 19.898438 22.78125 19.898438 22.78125 19.894531 22.78125 C 19.890625 22.785156 19.890625 22.785156 19.886719 22.78125 C 19.882812 22.78125 19.878906 22.78125 19.875 22.78125 C 19.871094 22.777344 19.871094 22.777344 19.867188 22.773438 C 19.863281 22.769531 19.859375 22.769531 19.855469 22.765625 C 19.851562 22.761719 19.851562 22.757812 19.847656 22.757812 C 19.84375 22.753906 19.84375 22.75 19.84375 22.746094 C 19.839844 22.742188 19.839844 22.738281 19.839844 22.734375 C 19.835938 22.734375 19.835938 22.730469 19.839844 22.726562 C 19.839844 22.722656 19.839844 22.722656 19.84375 22.71875 C 19.84375 22.714844 19.847656 22.714844 19.851562 22.714844 C 19.851562 22.714844 19.855469 22.714844 19.859375 22.714844 C 19.859375 22.714844 19.863281 22.714844 19.867188 22.714844 C 19.871094 22.71875 19.871094 22.71875 19.875 22.722656 C 19.878906 22.722656 19.878906 22.722656 19.882812 22.726562 C 19.886719 22.726562 19.886719 22.730469 19.886719 22.730469 Z M 19.941406 22.679688 C 19.9375 22.671875 19.929688 22.667969 19.925781 22.664062 C 19.921875 22.660156 19.914062 22.660156 19.910156 22.660156 C 19.90625 22.660156 19.902344 22.660156 19.898438 22.660156 C 19.894531 22.660156 19.890625 22.664062 19.886719 22.664062 C 19.886719 22.667969 19.882812 22.667969 19.882812 22.671875 C 19.882812 22.675781 19.878906 22.675781 19.878906 22.679688 C 19.878906 22.679688 19.878906 22.683594 19.878906 22.6875 C 19.878906 22.6875 19.882812 22.691406 19.882812 22.691406 C 19.882812 22.695312 19.882812 22.699219 19.886719 22.703125 C 19.886719 22.703125 19.890625 22.707031 19.890625 22.710938 C 19.894531 22.714844 19.898438 22.71875 19.902344 22.722656 C 19.90625 22.726562 19.910156 22.730469 19.917969 22.734375 C 19.921875 22.738281 19.925781 22.738281 19.933594 22.742188 C 19.9375 22.742188 19.941406 22.742188 19.945312 22.738281 C 19.949219 22.738281 19.953125 22.738281 19.957031 22.734375 C 19.957031 22.730469 19.960938 22.730469 19.960938 22.726562 C 19.960938 22.722656 19.960938 22.722656 19.960938 22.71875 C 19.960938 22.714844 19.960938 22.710938 19.960938 22.707031 C 19.960938 22.703125 19.957031 22.699219 19.953125 22.691406 C 19.953125 22.6875 19.949219 22.683594 19.941406 22.679688 Z M 19.9375 22.683594 C 19.941406 22.683594 19.941406 22.6875 19.945312 22.691406 C 19.945312 22.691406 19.949219 22.695312 19.949219 22.699219 C 19.949219 22.699219 19.953125 22.703125 19.953125 22.707031 C 19.953125 22.710938 19.957031 22.710938 19.957031 22.714844 C 19.957031 22.71875 19.957031 22.71875 19.953125 22.722656 C 19.953125 22.726562 19.953125 22.726562 19.949219 22.730469 C 19.949219 22.730469 19.945312 22.734375 19.945312 22.734375 C 19.941406 22.734375 19.9375 22.734375 19.933594 22.734375 C 19.933594 22.734375 19.929688 22.730469 19.925781 22.730469 C 19.921875 22.730469 19.917969 22.726562 19.914062 22.726562 C 19.910156 22.722656 19.90625 22.71875 19.90625 22.714844 C 19.902344 22.714844 19.898438 22.710938 19.898438 22.707031 C 19.894531 22.703125 19.894531 22.699219 19.890625 22.695312 C 19.890625 22.695312 19.886719 22.691406 19.886719 22.6875 C 19.886719 22.683594 19.886719 22.679688 19.886719 22.675781 C 19.886719 22.675781 19.890625 22.671875 19.890625 22.667969 C 19.894531 22.667969 19.894531 22.667969 19.898438 22.664062 C 19.902344 22.664062 19.902344 22.664062 19.90625 22.664062 C 19.910156 22.664062 19.914062 22.667969 19.914062 22.667969 C 19.917969 22.667969 19.921875 22.671875 19.925781 22.671875 C 19.925781 22.671875 19.929688 22.675781 19.929688 22.675781 C 19.933594 22.679688 19.9375 22.679688 19.9375 22.683594 Z M 19.988281 22.6875 C 19.988281 22.683594 19.988281 22.679688 19.988281 22.671875 C 19.988281 22.667969 19.988281 22.660156 19.984375 22.65625 C 19.984375 22.652344 19.984375 22.644531 19.980469 22.640625 C 19.980469 22.636719 19.980469 22.636719 19.980469 22.632812 C 19.976562 22.628906 19.976562 22.628906 19.972656 22.625 C 19.972656 22.625 19.972656 22.621094 19.96875 22.621094 C 19.96875 22.617188 19.964844 22.617188 19.960938 22.613281 C 19.957031 22.613281 19.957031 22.613281 19.953125 22.613281 C 19.949219 22.613281 19.945312 22.613281 19.941406 22.613281 C 19.9375 22.617188 19.933594 22.617188 19.929688 22.621094 C 19.929688 22.625 19.925781 22.628906 19.925781 22.632812 C 19.921875 22.632812 19.921875 22.636719 19.921875 22.644531 L 19.929688 22.648438 C 19.929688 22.644531 19.929688 22.644531 19.929688 22.640625 C 19.929688 22.636719 19.929688 22.636719 19.929688 22.632812 C 19.933594 22.628906 19.933594 22.628906 19.9375 22.625 C 19.9375 22.625 19.941406 22.621094 19.941406 22.621094 C 19.945312 22.621094 19.945312 22.621094 19.949219 22.621094 C 19.953125 22.621094 19.953125 22.621094 19.957031 22.621094 C 19.960938 22.621094 19.960938 22.621094 19.964844 22.625 C 19.96875 22.628906 19.96875 22.628906 19.972656 22.632812 C 19.972656 22.636719 19.972656 22.640625 19.976562 22.640625 C 19.976562 22.644531 19.976562 22.648438 19.976562 22.652344 C 19.976562 22.652344 19.980469 22.65625 19.980469 22.65625 C 19.980469 22.664062 19.980469 22.671875 19.980469 22.679688 C 19.984375 22.6875 19.984375 22.695312 19.984375 22.707031 L 20.027344 22.664062 L 20.019531 22.65625 Z M 19.988281 22.6875 "/>
</g>
</svg>
