<?xml version="1.0" encoding="UTF-8"?>
<svg xmlns="http://www.w3.org/2000/svg" xmlns:xlink="http://www.w3.org/1999/xlink" width="25pt" height="25pt" viewBox="0 0 25 25" version="1.1">
<defs>
<linearGradient id="linear0" gradientUnits="userSpaceOnUse" x1="296" y1="683.8" x2="291.65" y2="170.79" gradientTransform="matrix(0.0440761,0,0,0.0440761,-0.624687,-6.059581)">
<stop offset="0" style="stop-color:rgb(75.294118%,14.901961%,16.078431%);stop-opacity:1;"/>
<stop offset="1" style="stop-color:rgb(88.235294%,14.509804%,16.470588%);stop-opacity:1;"/>
</linearGradient>
<radialGradient id="radial0" gradientUnits="userSpaceOnUse" cx="347.99" cy="-311.06" fx="347.99" fy="-311.06" r="224.7" gradientTransform="matrix(0.0190705,-0.000498166,0.000283349,0.0108469,5.722138,8.821564)">
<stop offset="0" style="stop-color:rgb(78.431373%,78.431373%,78.431373%);stop-opacity:1;"/>
<stop offset="1" style="stop-color:rgb(100%,100%,100%);stop-opacity:1;"/>
</radialGradient>
<radialGradient id="radial1" gradientUnits="userSpaceOnUse" cx="347.99" cy="-311.06" fx="347.99" fy="-311.06" r="224.7" gradientTransform="matrix(0.0190705,0.000498166,0.000283349,-0.0108469,5.722138,16.166493)">
<stop offset="0" style="stop-color:rgb(78.431373%,78.431373%,78.431373%);stop-opacity:1;"/>
<stop offset="1" style="stop-color:rgb(100%,100%,100%);stop-opacity:1;"/>
</radialGradient>
<radialGradient id="radial2" gradientUnits="userSpaceOnUse" cx="696.22" cy="349.92" fx="696.22" fy="349.92" r="224.7" gradientTransform="matrix(0.0158878,-0.000000000530465,0,0.0235916,8.037367,4.015155)">
<stop offset="0" style="stop-color:rgb(78.431373%,78.431373%,78.431373%);stop-opacity:1;"/>
<stop offset="1" style="stop-color:rgb(100%,100%,100%);stop-opacity:1;"/>
</radialGradient>
<radialGradient id="radial3" gradientUnits="userSpaceOnUse" cx="696.22" cy="349.92" fx="696.22" fy="349.92" r="224.7" gradientTransform="matrix(-0.0158878,-0.000000000530465,0,0.0235916,16.951139,4.015155)">
<stop offset="0" style="stop-color:rgb(78.431373%,78.431373%,78.431373%);stop-opacity:1;"/>
<stop offset="1" style="stop-color:rgb(100%,100%,100%);stop-opacity:1;"/>
</radialGradient>
<radialGradient id="radial4" gradientUnits="userSpaceOnUse" cx="297.64" cy="420.95" fx="297.64" fy="420.95" r="159.36" gradientTransform="matrix(0.0176644,-0.0350035,0.0461829,0.0233048,-12.203344,13.102059)">
<stop offset="0" style="stop-color:rgb(8.627451%,27.45098%,47.45098%);stop-opacity:1;"/>
<stop offset="0.86687" style="stop-color:rgb(8.627451%,27.45098%,47.45098%);stop-opacity:1;"/>
<stop offset="0.92634" style="stop-color:rgb(11.764706%,42.352941%,62.745098%);stop-opacity:1;"/>
<stop offset="1" style="stop-color:rgb(43.137255%,73.333333%,89.019608%);stop-opacity:1;"/>
</radialGradient>
<radialGradient id="radial5" gradientUnits="userSpaceOnUse" cx="299.92" cy="423.03" fx="299.92" fy="423.03" r="132.43" gradientTransform="matrix(-0.00318388,-0.0707025,0.0541298,-0.00243767,-9.349417,34.794548)">
<stop offset="0" style="stop-color:rgb(8.627451%,27.45098%,47.45098%);stop-opacity:1;"/>
<stop offset="0.86687" style="stop-color:rgb(8.627451%,27.45098%,47.45098%);stop-opacity:1;"/>
<stop offset="0.92634" style="stop-color:rgb(11.764706%,42.352941%,62.745098%);stop-opacity:1;"/>
<stop offset="1" style="stop-color:rgb(43.137255%,73.333333%,89.019608%);stop-opacity:1;"/>
</radialGradient>
<linearGradient id="linear1" gradientUnits="userSpaceOnUse" x1="4007.3" y1="6896.5" x2="4007.3" y2="7817.8" gradientTransform="matrix(0.00317348,0,0,0.00317348,-0.623894,-6.059581)">
<stop offset="0" style="stop-color:rgb(97.254902%,87.45098%,14.901961%);stop-opacity:1;"/>
<stop offset="0.10196" style="stop-color:rgb(96.862745%,87.058824%,15.294118%);stop-opacity:1;"/>
<stop offset="0.18039" style="stop-color:rgb(96.470588%,84.313725%,16.470588%);stop-opacity:1;"/>
<stop offset="0.45098" style="stop-color:rgb(96.862745%,80.784314%,16.862745%);stop-opacity:1;"/>
<stop offset="0.65098" style="stop-color:rgb(96.470588%,77.647059%,17.647059%);stop-opacity:1;"/>
<stop offset="1" style="stop-color:rgb(97.254902%,76.470588%,17.647059%);stop-opacity:1;"/>
</linearGradient>
<linearGradient id="linear2" gradientUnits="userSpaceOnUse" x1="4108.2" y1="7333" x2="4108.2" y2="7919.5" gradientTransform="matrix(0.00317348,0,0,0.00317348,-0.623894,-6.059581)">
<stop offset="0" style="stop-color:rgb(97.254902%,87.45098%,14.901961%);stop-opacity:1;"/>
<stop offset="0.10196" style="stop-color:rgb(96.862745%,87.058824%,15.294118%);stop-opacity:1;"/>
<stop offset="0.18039" style="stop-color:rgb(96.470588%,84.313725%,16.470588%);stop-opacity:1;"/>
<stop offset="0.50196" style="stop-color:rgb(96.862745%,80.784314%,16.862745%);stop-opacity:1;"/>
<stop offset="0.72157" style="stop-color:rgb(96.470588%,77.647059%,17.647059%);stop-opacity:1;"/>
<stop offset="1" style="stop-color:rgb(97.254902%,76.470588%,17.647059%);stop-opacity:1;"/>
</linearGradient>
<linearGradient id="linear3" gradientUnits="userSpaceOnUse" x1="5281.1" y1="6798.2" x2="5281.1" y2="7862.6" gradientTransform="matrix(0.00317348,0,0,0.00317348,-0.623894,-6.059581)">
<stop offset="0" style="stop-color:rgb(97.254902%,87.45098%,14.901961%);stop-opacity:1;"/>
<stop offset="0.10196" style="stop-color:rgb(96.862745%,87.058824%,15.294118%);stop-opacity:1;"/>
<stop offset="0.18039" style="stop-color:rgb(96.470588%,84.313725%,16.470588%);stop-opacity:1;"/>
<stop offset="0.4902" style="stop-color:rgb(96.862745%,80.784314%,16.862745%);stop-opacity:1;"/>
<stop offset="0.6902" style="stop-color:rgb(96.470588%,77.647059%,17.647059%);stop-opacity:1;"/>
<stop offset="1" style="stop-color:rgb(97.254902%,76.470588%,17.647059%);stop-opacity:1;"/>
</linearGradient>
<linearGradient id="linear4" gradientUnits="userSpaceOnUse" x1="236.7" y1="341.32" x2="236.7" y2="417.45" gradientTransform="matrix(0.0440761,0,0,0.0440761,0.00000330571,0)">
<stop offset="0" style="stop-color:rgb(97.254902%,87.45098%,14.901961%);stop-opacity:1;"/>
<stop offset="0.10196" style="stop-color:rgb(96.862745%,87.058824%,15.294118%);stop-opacity:1;"/>
<stop offset="0.18039" style="stop-color:rgb(96.470588%,84.313725%,16.470588%);stop-opacity:1;"/>
<stop offset="0.4902" style="stop-color:rgb(96.862745%,80.784314%,16.862745%);stop-opacity:1;"/>
<stop offset="0.6902" style="stop-color:rgb(96.470588%,77.647059%,17.647059%);stop-opacity:1;"/>
<stop offset="1" style="stop-color:rgb(97.254902%,76.470588%,17.647059%);stop-opacity:1;"/>
</linearGradient>
<linearGradient id="linear5" gradientUnits="userSpaceOnUse" x1="364.44" y1="357.41" x2="366.98" y2="423.44" gradientTransform="matrix(0.0440761,0,0,0.0440761,0.00000330571,0)">
<stop offset="0" style="stop-color:rgb(97.254902%,87.45098%,14.901961%);stop-opacity:1;"/>
<stop offset="0.10196" style="stop-color:rgb(96.862745%,87.058824%,15.294118%);stop-opacity:1;"/>
<stop offset="0.18039" style="stop-color:rgb(96.470588%,84.313725%,16.470588%);stop-opacity:1;"/>
<stop offset="0.50196" style="stop-color:rgb(96.862745%,80.784314%,16.862745%);stop-opacity:1;"/>
<stop offset="0.72157" style="stop-color:rgb(96.470588%,77.647059%,17.647059%);stop-opacity:1;"/>
<stop offset="1" style="stop-color:rgb(97.254902%,76.470588%,17.647059%);stop-opacity:1;"/>
</linearGradient>
<linearGradient id="linear6" gradientUnits="userSpaceOnUse" x1="4501.6" y1="4668.7" x2="4501.6" y2="6270.3" gradientTransform="matrix(0.00317339,0,0,0.00317339,-0.625172,-6.057377)">
<stop offset="0" style="stop-color:rgb(97.254902%,87.45098%,14.901961%);stop-opacity:1;"/>
<stop offset="0.10196" style="stop-color:rgb(96.862745%,87.058824%,15.294118%);stop-opacity:1;"/>
<stop offset="0.18039" style="stop-color:rgb(96.470588%,84.313725%,16.470588%);stop-opacity:1;"/>
<stop offset="0.2902" style="stop-color:rgb(96.862745%,80.784314%,16.862745%);stop-opacity:1;"/>
<stop offset="0.47059" style="stop-color:rgb(96.470588%,77.647059%,17.647059%);stop-opacity:1;"/>
<stop offset="1" style="stop-color:rgb(97.254902%,76.470588%,17.647059%);stop-opacity:1;"/>
</linearGradient>
<linearGradient id="linear7" gradientUnits="userSpaceOnUse" x1="4353.6" y1="5817.1" x2="4494.3" y2="6614.8" gradientTransform="matrix(0.00317339,0,0,0.00317339,-0.625172,-6.057377)">
<stop offset="0" style="stop-color:rgb(97.254902%,87.45098%,14.901961%);stop-opacity:1;"/>
<stop offset="0.10196" style="stop-color:rgb(96.862745%,87.058824%,15.294118%);stop-opacity:1;"/>
<stop offset="0.18039" style="stop-color:rgb(96.470588%,84.313725%,16.470588%);stop-opacity:1;"/>
<stop offset="0.36863" style="stop-color:rgb(96.862745%,80.784314%,16.862745%);stop-opacity:1;"/>
<stop offset="0.67843" style="stop-color:rgb(96.470588%,77.647059%,17.647059%);stop-opacity:1;"/>
<stop offset="1" style="stop-color:rgb(97.254902%,76.470588%,17.647059%);stop-opacity:1;"/>
</linearGradient>
<linearGradient id="linear8" gradientUnits="userSpaceOnUse" x1="5187.4" y1="5823.5" x2="5187.4" y2="7377.8" gradientTransform="matrix(0.00317339,0,0,0.00317339,-0.625172,-6.057377)">
<stop offset="0" style="stop-color:rgb(97.254902%,87.45098%,14.901961%);stop-opacity:1;"/>
<stop offset="0.10196" style="stop-color:rgb(96.862745%,87.058824%,15.294118%);stop-opacity:1;"/>
<stop offset="0.18039" style="stop-color:rgb(96.470588%,84.313725%,16.470588%);stop-opacity:1;"/>
<stop offset="0.43137" style="stop-color:rgb(96.862745%,80.784314%,16.862745%);stop-opacity:1;"/>
<stop offset="0.70196" style="stop-color:rgb(96.470588%,77.647059%,17.647059%);stop-opacity:1;"/>
<stop offset="1" style="stop-color:rgb(97.254902%,76.470588%,17.647059%);stop-opacity:1;"/>
</linearGradient>
<linearGradient id="linear9" gradientUnits="userSpaceOnUse" x1="4007.3" y1="6896.5" x2="4007.3" y2="7817.8" gradientTransform="matrix(0.00317339,0,0,0.00317339,-0.625172,-6.057377)">
<stop offset="0" style="stop-color:rgb(97.254902%,87.45098%,14.901961%);stop-opacity:1;"/>
<stop offset="0.10196" style="stop-color:rgb(96.862745%,87.058824%,15.294118%);stop-opacity:1;"/>
<stop offset="0.18039" style="stop-color:rgb(96.470588%,84.313725%,16.470588%);stop-opacity:1;"/>
<stop offset="0.45098" style="stop-color:rgb(96.862745%,80.784314%,16.862745%);stop-opacity:1;"/>
<stop offset="0.65098" style="stop-color:rgb(96.470588%,77.647059%,17.647059%);stop-opacity:1;"/>
<stop offset="1" style="stop-color:rgb(97.254902%,76.470588%,17.647059%);stop-opacity:1;"/>
</linearGradient>
<linearGradient id="linear10" gradientUnits="userSpaceOnUse" x1="4108.2" y1="7333" x2="4108.2" y2="7919.5" gradientTransform="matrix(0.00317339,0,0,0.00317339,-0.625172,-6.057377)">
<stop offset="0" style="stop-color:rgb(97.254902%,87.45098%,14.901961%);stop-opacity:1;"/>
<stop offset="0.10196" style="stop-color:rgb(96.862745%,87.058824%,15.294118%);stop-opacity:1;"/>
<stop offset="0.18039" style="stop-color:rgb(96.470588%,84.313725%,16.470588%);stop-opacity:1;"/>
<stop offset="0.50196" style="stop-color:rgb(96.862745%,80.784314%,16.862745%);stop-opacity:1;"/>
<stop offset="0.72157" style="stop-color:rgb(96.470588%,77.647059%,17.647059%);stop-opacity:1;"/>
<stop offset="1" style="stop-color:rgb(97.254902%,76.470588%,17.647059%);stop-opacity:1;"/>
</linearGradient>
</defs>
<g id="surface1">
<path style=" stroke:none;fill-rule:evenodd;fill:rgb(17.254902%,17.254902%,16.862745%);fill-opacity:1;" d="M 12.492188 0 C 19.390625 0 24.988281 5.597656 24.988281 12.492188 C 24.988281 19.390625 19.390625 24.988281 12.492188 24.988281 C 5.597656 24.988281 0 19.390625 0 12.492188 C 0 5.597656 5.597656 0 12.492188 0 Z M 12.492188 0 "/>
<path style=" stroke:none;fill-rule:evenodd;fill:rgb(100%,100%,100%);fill-opacity:1;" d="M 12.492188 0.382812 C 19.179688 0.382812 24.605469 5.808594 24.605469 12.496094 C 24.605469 19.179688 19.179688 24.605469 12.492188 24.605469 C 5.808594 24.605469 0.382812 19.179688 0.382812 12.496094 C 0.382812 5.808594 5.808594 0.382812 12.492188 0.382812 Z M 12.492188 0.382812 "/>
<path style=" stroke:none;fill-rule:evenodd;fill:url(#linear0);" d="M 12.492188 1.003906 C 18.835938 1.003906 23.984375 6.152344 23.984375 12.492188 C 23.984375 18.835938 18.835938 23.984375 12.492188 23.984375 C 6.152344 23.984375 1.003906 18.835938 1.003906 12.492188 C 1.003906 6.152344 6.152344 1.003906 12.492188 1.003906 Z M 12.492188 1.003906 "/>
<path style=" stroke:none;fill-rule:evenodd;fill:url(#radial0);" d="M 6.792969 6.992188 C 8.289062 5.445312 10.34375 4.570312 12.496094 4.570312 C 14.644531 4.570312 16.699219 5.445312 18.195312 6.992188 L 12.496094 12.496094 Z M 6.792969 6.992188 "/>
<path style=" stroke:none;fill-rule:evenodd;fill:url(#radial1);" d="M 6.792969 17.996094 C 8.289062 19.542969 10.34375 20.417969 12.496094 20.417969 C 14.644531 20.417969 16.699219 19.542969 18.195312 17.996094 L 12.496094 12.492188 Z M 6.792969 17.996094 "/>
<path style=" stroke:none;fill-rule:evenodd;fill:url(#radial2);" d="M 18 6.792969 C 19.542969 8.289062 20.417969 10.34375 20.417969 12.496094 C 20.417969 14.644531 19.542969 16.699219 18 18.195312 L 12.496094 12.496094 Z M 18 6.792969 "/>
<path style=" stroke:none;fill-rule:evenodd;fill:url(#radial3);" d="M 6.992188 6.792969 C 5.445312 8.289062 4.570312 10.34375 4.570312 12.496094 C 4.570312 14.644531 5.445312 16.699219 6.992188 18.195312 L 12.496094 12.496094 Z M 6.992188 6.792969 "/>
<path style=" stroke:none;fill-rule:evenodd;fill:rgb(17.254902%,17.254902%,16.862745%);fill-opacity:1;" d="M 12.492188 5.078125 C 16.585938 5.078125 19.910156 8.402344 19.910156 12.496094 C 19.910156 16.585938 16.585938 19.910156 12.492188 19.910156 C 8.398438 19.910156 5.078125 16.585938 5.078125 12.496094 C 5.078125 8.402344 8.398438 5.078125 12.492188 5.078125 Z M 12.492188 5.078125 "/>
<path style=" stroke:none;fill-rule:evenodd;fill:url(#radial4);" d="M 12.492188 5.46875 C 16.371094 5.46875 19.519531 8.617188 19.519531 12.492188 C 19.519531 16.371094 16.371094 19.519531 12.492188 19.519531 C 8.613281 19.519531 5.46875 16.371094 5.46875 12.492188 C 5.46875 8.613281 8.617188 5.46875 12.492188 5.46875 Z M 12.492188 5.46875 "/>
<path style=" stroke:none;fill-rule:evenodd;fill:url(#radial5);" d="M 17.144531 17.757812 C 15.90625 18.851562 14.277344 19.519531 12.496094 19.519531 C 8.617188 19.519531 5.46875 16.371094 5.46875 12.496094 C 5.46875 10.542969 6.265625 8.777344 7.554688 7.503906 Z M 17.144531 17.757812 "/>
<path style=" stroke:none;fill-rule:evenodd;fill:rgb(100%,100%,100%);fill-opacity:1;" d="M 12.492188 5.46875 C 16.371094 5.46875 19.519531 8.617188 19.519531 12.492188 C 19.519531 16.074219 16.839844 19.027344 13.378906 19.460938 L 12.0625 8.996094 C 11.628906 8.105469 11.59375 6.671875 12.097656 5.480469 C 12.226562 5.472656 12.359375 5.46875 12.492188 5.46875 Z M 12.492188 5.46875 "/>
<path style=" stroke:none;fill-rule:evenodd;fill:rgb(17.254902%,17.254902%,16.862745%);fill-opacity:1;" d="M 10.765625 9.238281 C 10.855469 9.121094 10.960938 8.976562 11.074219 8.902344 C 11.347656 8.710938 11.765625 8.632812 12.207031 8.570312 C 12.597656 8.515625 12.949219 8.472656 13.34375 8.476562 C 14.402344 8.484375 15.542969 8.722656 16.585938 9.15625 C 16.320312 9.101562 16.03125 9.070312 15.769531 9.039062 C 16.816406 9.425781 17.640625 10 18.175781 10.648438 C 18.0625 10.601562 17.972656 10.5625 17.832031 10.539062 C 18.128906 10.785156 18.386719 11 18.617188 11.257812 C 19.085938 11.785156 19.425781 12.417969 19.589844 13.335938 C 19.460938 14.980469 18.882812 16.148438 18.101562 17.113281 C 16.582031 18.980469 14.140625 19.777344 11.671875 19.675781 C 10.289062 19.617188 8.460938 18.75 7.8125 18.109375 C 8.984375 17.628906 10.257812 17.042969 11.113281 16.121094 C 10.777344 16.3125 10.488281 16.453125 10.167969 16.582031 C 10.878906 16.054688 11.542969 15.425781 12.121094 14.472656 C 11.914062 14.132812 11.714844 13.878906 11.519531 13.652344 C 11.628906 13.910156 11.734375 14.175781 11.828125 14.417969 C 11.515625 13.941406 10.933594 13.433594 10.371094 12.898438 C 9.835938 12.898438 8.867188 12.875 8.027344 13.050781 C 8.160156 12.707031 8.351562 12.453125 8.574219 12.277344 C 8.800781 12.105469 9.117188 11.960938 9.480469 11.90625 C 10.273438 11.777344 10.710938 12.007812 11.335938 11.738281 C 9.855469 11.324219 8.921875 11.265625 8.246094 11.363281 C 8.007812 11.742188 7.917969 12.039062 7.890625 12.492188 C 7.671875 11.773438 7.578125 11.101562 7.832031 10.542969 C 7.988281 10.203125 8.269531 9.886719 8.761719 9.65625 C 9.226562 9.445312 9.875 9.3125 10.765625 9.238281 Z M 10.765625 9.238281 "/>
<path style=" stroke:none;fill-rule:evenodd;fill:rgb(99.215686%,79.607843%,8.235294%);fill-opacity:1;" d="M 12.503906 14.402344 C 12.957031 14.652344 13.425781 15.074219 13.710938 15.398438 C 13.636719 15.1875 13.496094 14.96875 13.328125 14.769531 C 13.789062 14.984375 14.148438 15.347656 14.390625 15.632812 C 14.320312 15.429688 14.109375 15.148438 13.929688 14.960938 C 14.351562 15.199219 14.714844 15.429688 14.949219 15.667969 C 15.390625 16.664062 15.242188 17.988281 14.859375 18.992188 C 14.933594 18.175781 14.964844 17.234375 14.695312 16.375 C 14.816406 17.429688 14.632812 18.414062 14.269531 19.253906 C 14.367188 18.394531 14.363281 17.421875 14.148438 16.53125 C 14.175781 17.511719 14.167969 18.492188 13.722656 19.367188 C 14.023438 17 13.4375 15.519531 12.503906 14.402344 Z M 12.503906 14.402344 "/>
<path style=" stroke:none;fill-rule:evenodd;fill:url(#linear1);" d="M 12.507812 14.402344 C 12.960938 14.652344 13.429688 15.074219 13.714844 15.398438 C 13.640625 15.1875 13.5 14.96875 13.328125 14.769531 C 13.789062 14.988281 14.148438 15.347656 14.394531 15.636719 C 14.324219 15.433594 14.113281 15.152344 13.933594 14.964844 C 14.355469 15.203125 14.71875 15.433594 14.953125 15.671875 C 15.394531 16.667969 15.246094 17.996094 14.863281 18.996094 C 14.9375 18.183594 14.96875 17.238281 14.699219 16.378906 C 14.816406 17.429688 14.636719 18.417969 14.269531 19.253906 C 14.371094 18.394531 14.359375 17.421875 14.148438 16.535156 C 14.175781 17.515625 14.167969 18.496094 13.71875 19.371094 C 14.023438 17.003906 13.433594 15.523438 12.503906 14.40625 Z M 12.507812 14.402344 "/>
<path style=" stroke:none;fill-rule:evenodd;fill:url(#linear2);" d="M 12.507812 14.992188 C 12.4375 16.4375 11.410156 17.597656 10.191406 18.488281 C 11.105469 18.085938 12.152344 17.496094 12.855469 16.335938 C 12.945312 15.890625 12.757812 15.398438 12.507812 14.992188 Z M 12.507812 14.992188 "/>
<path style=" stroke:none;fill-rule:evenodd;fill:url(#linear3);" d="M 13.054688 15.828125 C 12.957031 16.660156 12.449219 17.671875 10.933594 18.75 C 11.566406 18.488281 12.621094 17.976562 13.207031 16.96875 C 13.25 16.347656 13.144531 16.074219 13.054688 15.824219 Z M 13.054688 15.828125 "/>
<path style=" stroke:none;fill-rule:evenodd;fill:rgb(97.647059%,81.960784%,20.784314%);fill-opacity:1;" d="M 11.421875 19.074219 C 11.925781 19.066406 12.6875 18.820312 13.273438 18.242188 C 13.402344 17.878906 13.398438 17.535156 13.296875 17.214844 C 13.066406 17.96875 12.347656 18.671875 11.421875 19.078125 Z M 11.421875 19.074219 "/>
<path style=" stroke:none;fill-rule:evenodd;fill:url(#linear4);" d="M 12.503906 14.988281 C 12.433594 16.4375 11.40625 17.59375 10.191406 18.488281 C 11.101562 18.085938 12.152344 17.496094 12.855469 16.335938 C 12.945312 15.890625 12.757812 15.398438 12.503906 14.988281 Z M 12.503906 14.988281 "/>
<path style=" stroke:none;fill-rule:evenodd;fill:url(#linear5);" d="M 15.363281 15.515625 C 15.851562 16.25 16.109375 17.25 15.699219 18.890625 C 16.171875 18.101562 16.316406 17.152344 16.273438 16.210938 C 16.625 17.003906 16.539062 17.785156 16.386719 18.535156 C 16.753906 17.886719 16.90625 17.128906 16.769531 16.328125 C 16.570312 16.183594 16.328125 16.042969 16.0625 15.890625 C 15.84375 15.765625 15.617188 15.621094 15.363281 15.515625 Z M 15.363281 15.515625 "/>
<path style=" stroke:none;fill-rule:evenodd;fill:rgb(100%,100%,100%);fill-opacity:1;" d="M 8.523438 2.574219 L 9.757812 2.164062 C 9.855469 2.128906 9.875 2.164062 9.894531 2.21875 L 9.929688 2.320312 C 9.9375 2.351562 9.957031 2.402344 9.863281 2.433594 L 9.402344 2.585938 L 9.910156 4.101562 C 9.9375 4.183594 9.917969 4.214844 9.863281 4.234375 L 9.6875 4.289062 C 9.605469 4.3125 9.585938 4.273438 9.574219 4.230469 L 9.0625 2.699219 L 8.601562 2.855469 C 8.515625 2.882812 8.5 2.839844 8.488281 2.804688 L 8.457031 2.703125 C 8.429688 2.621094 8.460938 2.59375 8.523438 2.574219 Z M 8.523438 2.574219 "/>
<path style=" stroke:none;fill-rule:evenodd;fill:rgb(100%,100%,100%);fill-opacity:1;" d="M 16.738281 4.035156 L 17.324219 4.351562 C 17.394531 4.019531 17.46875 3.65625 17.488281 3.328125 C 17.242188 3.527344 16.976562 3.789062 16.738281 4.035156 Z M 17.246094 4.636719 L 16.535156 4.25 C 16.441406 4.351562 16.359375 4.4375 16.292969 4.515625 C 16.238281 4.578125 16.21875 4.621094 16.152344 4.582031 L 15.945312 4.472656 C 15.894531 4.445312 15.917969 4.398438 15.949219 4.363281 C 16.28125 4 16.835938 3.445312 17.386719 3.007812 C 17.429688 2.972656 17.441406 2.988281 17.453125 2.992188 L 17.796875 3.175781 C 17.816406 3.1875 17.816406 3.210938 17.816406 3.230469 C 17.777344 3.800781 17.621094 4.625 17.472656 5.195312 C 17.460938 5.238281 17.4375 5.273438 17.386719 5.25 L 17.1875 5.144531 C 17.125 5.113281 17.148438 5.070312 17.167969 4.988281 C 17.191406 4.886719 17.21875 4.765625 17.246094 4.636719 Z M 17.246094 4.636719 "/>
<path style=" stroke:none;fill-rule:evenodd;fill:rgb(100%,100%,100%);fill-opacity:1;" d="M 10.945312 3.183594 L 11.601562 3.097656 C 11.464844 2.789062 11.3125 2.449219 11.136719 2.171875 C 11.054688 2.476562 10.992188 2.847656 10.945312 3.183594 Z M 11.707031 3.375 L 10.90625 3.480469 C 10.890625 3.617188 10.871094 3.734375 10.863281 3.835938 C 10.859375 3.921875 10.867188 3.964844 10.789062 3.972656 L 10.558594 4.003906 C 10.5 4.011719 10.492188 3.960938 10.496094 3.914062 C 10.550781 3.425781 10.675781 2.652344 10.863281 1.972656 C 10.878906 1.921875 10.898438 1.925781 10.910156 1.921875 L 11.296875 1.871094 C 11.320312 1.867188 11.332031 1.886719 11.34375 1.902344 C 11.644531 2.386719 12.003906 3.144531 12.21875 3.691406 C 12.234375 3.734375 12.234375 3.78125 12.179688 3.789062 L 11.957031 3.820312 C 11.886719 3.832031 11.882812 3.785156 11.851562 3.703125 C 11.8125 3.609375 11.761719 3.492188 11.707031 3.375 Z M 11.707031 3.375 "/>
<path style=" stroke:none;fill-rule:evenodd;fill:rgb(100%,100%,100%);fill-opacity:1;" d="M 5.953125 5.703125 L 6.449219 5.261719 C 6.164062 5.082031 5.84375 4.890625 5.542969 4.761719 C 5.644531 5.058594 5.804688 5.402344 5.953125 5.703125 Z M 6.691406 5.433594 L 6.089844 5.972656 C 6.152344 6.09375 6.203125 6.199219 6.253906 6.289062 C 6.296875 6.363281 6.328125 6.390625 6.269531 6.445312 L 6.097656 6.601562 C 6.050781 6.640625 6.015625 6.601562 5.996094 6.558594 C 5.765625 6.125 5.429688 5.414062 5.207031 4.75 C 5.1875 4.695312 5.207031 4.691406 5.214844 4.683594 L 5.507812 4.417969 C 5.523438 4.402344 5.542969 4.410156 5.5625 4.421875 C 6.085938 4.648438 6.808594 5.074219 7.292969 5.40625 C 7.332031 5.433594 7.355469 5.46875 7.316406 5.507812 L 7.152344 5.660156 C 7.097656 5.710938 7.066406 5.671875 6.996094 5.625 C 6.910156 5.570312 6.804688 5.5 6.691406 5.433594 Z M 6.691406 5.433594 "/>
<path style=" stroke:none;fill-rule:evenodd;fill:rgb(100%,100%,100%);fill-opacity:1;" d="M 19.714844 6.351562 L 20.125 6.875 C 20.320312 6.601562 20.535156 6.292969 20.683594 6.003906 C 20.378906 6.085938 20.027344 6.222656 19.714844 6.351562 Z M 19.9375 7.105469 L 19.441406 6.46875 C 19.3125 6.523438 19.203125 6.566406 19.113281 6.613281 C 19.039062 6.648438 19.003906 6.679688 18.957031 6.617188 L 18.8125 6.433594 C 18.777344 6.386719 18.816406 6.355469 18.859375 6.335938 C 19.308594 6.136719 20.039062 5.847656 20.71875 5.667969 C 20.773438 5.652344 20.777344 5.671875 20.785156 5.683594 L 21.027344 5.988281 C 21.042969 6.007812 21.03125 6.027344 21.023438 6.046875 C 20.761719 6.550781 20.285156 7.246094 19.921875 7.707031 C 19.894531 7.742188 19.855469 7.765625 19.820312 7.722656 L 19.679688 7.546875 C 19.632812 7.492188 19.675781 7.464844 19.726562 7.394531 C 19.789062 7.316406 19.863281 7.210938 19.9375 7.105469 Z M 19.9375 7.105469 "/>
<path style=" stroke:none;fill-rule:evenodd;fill:rgb(100%,100%,100%);fill-opacity:1;" d="M 3.992188 6.910156 C 3.726562 6.691406 3.753906 6.324219 3.992188 6.011719 C 4.082031 5.894531 4.1875 5.785156 4.308594 5.699219 C 4.40625 5.628906 4.421875 5.648438 4.464844 5.6875 L 4.542969 5.753906 C 4.574219 5.78125 4.636719 5.820312 4.539062 5.890625 C 4.417969 5.976562 4.308594 6.078125 4.226562 6.1875 C 4.066406 6.398438 4.082031 6.558594 4.230469 6.652344 C 4.300781 6.699219 4.382812 6.695312 4.460938 6.65625 C 4.667969 6.554688 4.898438 6.273438 5.1875 6.261719 C 5.289062 6.257812 5.414062 6.285156 5.527344 6.375 C 5.890625 6.664062 5.769531 7.078125 5.515625 7.378906 C 5.421875 7.488281 5.308594 7.613281 5.195312 7.699219 C 5.117188 7.761719 5.101562 7.761719 5.054688 7.722656 L 4.949219 7.632812 C 4.917969 7.605469 4.882812 7.574219 4.964844 7.511719 C 5.035156 7.453125 5.128906 7.367188 5.203125 7.289062 C 5.289062 7.191406 5.339844 7.121094 5.375 7.050781 C 5.476562 6.859375 5.421875 6.726562 5.320312 6.660156 C 5.054688 6.488281 4.847656 6.84375 4.519531 6.988281 C 4.347656 7.066406 4.160156 7.054688 3.992188 6.910156 Z M 3.992188 6.910156 "/>
<path style=" stroke:none;fill-rule:evenodd;fill:rgb(100%,100%,100%);fill-opacity:1;" d="M 7.46875 5.269531 C 7.492188 5.308594 7.53125 5.367188 7.613281 5.320312 L 7.765625 5.238281 C 7.839844 5.195312 7.816406 5.152344 7.773438 5.078125 L 7.148438 3.988281 L 8.546875 4.675781 C 8.640625 4.71875 8.667969 4.71875 8.71875 4.6875 L 8.816406 4.625 C 8.894531 4.578125 8.882812 4.550781 8.835938 4.46875 L 7.949219 2.917969 C 7.90625 2.84375 7.878906 2.851562 7.832031 2.878906 L 7.675781 2.96875 C 7.605469 3.011719 7.609375 3.050781 7.632812 3.09375 L 8.273438 4.210938 L 6.84375 3.523438 C 6.800781 3.496094 6.753906 3.488281 6.722656 3.507812 L 6.605469 3.585938 C 6.527344 3.640625 6.5625 3.6875 6.585938 3.730469 Z M 7.46875 5.269531 "/>
<path style=" stroke:none;fill-rule:evenodd;fill:rgb(100%,100%,100%);fill-opacity:1;" d="M 14.707031 2.515625 L 14.761719 2.09375 C 14.667969 2.035156 14.480469 1.953125 14.28125 1.921875 C 14.207031 1.910156 13.242188 1.703125 13.128906 2.890625 C 13.089844 3.324219 13.167969 3.832031 13.976562 3.957031 C 14.136719 3.980469 14.320312 3.972656 14.457031 3.933594 C 14.484375 3.925781 14.5 3.914062 14.503906 3.871094 L 14.519531 3.691406 C 14.523438 3.652344 14.503906 3.640625 14.464844 3.644531 C 14.359375 3.660156 14.238281 3.691406 14.003906 3.648438 C 13.496094 3.5625 13.460938 3.230469 13.507812 2.867188 C 13.5625 2.445312 13.726562 2.15625 14.175781 2.203125 C 14.292969 2.214844 14.378906 2.242188 14.429688 2.277344 L 14.402344 2.480469 C 14.394531 2.539062 14.417969 2.550781 14.464844 2.558594 L 14.625 2.578125 C 14.6875 2.585938 14.703125 2.570312 14.707031 2.515625 Z M 14.707031 2.515625 "/>
<path style=" stroke:none;fill-rule:evenodd;fill:rgb(100%,100%,100%);fill-opacity:1;" d="M 14.914062 3.625 L 15.347656 2.273438 C 15.363281 2.226562 15.371094 2.167969 15.460938 2.199219 L 15.640625 2.253906 C 15.722656 2.28125 15.710938 2.320312 15.691406 2.378906 L 15.265625 3.703125 C 15.210938 3.878906 15.277344 3.953125 15.421875 4 L 15.839844 4.132812 C 15.882812 4.148438 15.941406 4.15625 15.914062 4.246094 L 15.875 4.371094 C 15.847656 4.453125 15.808594 4.441406 15.75 4.421875 L 15.242188 4.257812 C 14.996094 4.179688 14.800781 3.980469 14.914062 3.625 Z M 14.914062 3.625 "/>
<path style=" stroke:none;fill-rule:evenodd;fill:rgb(100%,100%,100%);fill-opacity:1;" d="M 18.8125 3.945312 C 18.84375 3.910156 18.875 3.859375 18.945312 3.917969 C 19.097656 4.046875 19.25 4.175781 19.402344 4.300781 C 19.675781 4.535156 19.875 4.84375 19.503906 5.257812 C 19.3125 5.472656 19.089844 5.511719 18.867188 5.453125 C 18.90625 5.71875 18.847656 6.023438 18.769531 6.273438 C 18.753906 6.332031 18.707031 6.351562 18.660156 6.316406 L 18.488281 6.167969 C 18.4375 6.125 18.472656 6.074219 18.488281 6.03125 C 18.578125 5.722656 18.59375 5.523438 18.574219 5.308594 L 18.316406 5.09375 L 17.929688 5.554688 C 17.890625 5.601562 17.863281 5.628906 17.796875 5.574219 L 17.652344 5.453125 C 17.582031 5.394531 17.628906 5.355469 17.65625 5.320312 Z M 18.972656 4.316406 L 18.488281 4.890625 L 18.734375 5.09375 C 18.917969 5.25 19.105469 5.160156 19.234375 5.007812 C 19.4375 4.769531 19.339844 4.625 19.210938 4.515625 Z M 18.972656 4.316406 "/>
<path style=" stroke:none;fill-rule:evenodd;fill:rgb(100%,100%,100%);fill-opacity:1;" d="M 15.765625 21.042969 C 15.652344 20.71875 15.84375 20.425781 16.199219 20.285156 C 16.332031 20.230469 16.4375 20.210938 16.539062 20.203125 C 16.65625 20.1875 16.664062 20.214844 16.679688 20.273438 L 16.707031 20.363281 C 16.714844 20.394531 16.714844 20.421875 16.648438 20.425781 C 16.5 20.429688 16.410156 20.449219 16.289062 20.503906 C 16.070312 20.59375 15.945312 20.714844 15.996094 20.917969 C 16.03125 21.054688 16.128906 21.121094 16.269531 21.125 C 16.492188 21.128906 16.8125 20.980469 17.0625 21.121094 C 17.148438 21.167969 17.238281 21.25 17.292969 21.382812 C 17.445312 21.773438 17.207031 22.050781 16.824219 22.195312 C 16.695312 22.242188 16.558594 22.289062 16.402344 22.308594 C 16.351562 22.3125 16.316406 22.324219 16.296875 22.265625 L 16.265625 22.152344 C 16.253906 22.113281 16.253906 22.089844 16.304688 22.082031 C 16.492188 22.054688 16.605469 22.035156 16.753906 21.972656 C 16.976562 21.875 17.121094 21.722656 17.046875 21.507812 C 16.988281 21.320312 16.84375 21.300781 16.6875 21.316406 C 16.527344 21.335938 16.351562 21.390625 16.179688 21.367188 C 15.996094 21.347656 15.839844 21.25 15.765625 21.042969 Z M 15.765625 21.042969 "/>
<path style=" stroke:none;fill-rule:evenodd;fill:rgb(100%,100%,100%);fill-opacity:1;" d="M 12.824219 21.28125 C 12.820312 21.238281 12.8125 21.167969 12.90625 21.160156 C 13.097656 21.140625 13.28125 21.121094 13.472656 21.101562 C 13.808594 21.066406 14.039062 21.199219 14.085938 21.628906 C 14.113281 21.863281 14.027344 22.109375 13.800781 22.222656 C 14.015625 22.378906 14.222656 22.648438 14.34375 22.875 C 14.375 22.925781 14.355469 22.964844 14.300781 22.96875 L 14.144531 22.984375 C 14.082031 22.992188 14.070312 22.941406 14.046875 22.902344 C 13.890625 22.628906 13.734375 22.449219 13.566406 22.316406 L 13.203125 22.355469 L 13.269531 22.976562 C 13.273438 23.035156 13.277344 23.066406 13.191406 23.074219 L 13.09375 23.085938 C 13.003906 23.09375 13.007812 23.046875 13.003906 23 Z M 13.101562 21.363281 L 13.179688 22.132812 L 13.566406 22.089844 C 13.800781 22.066406 13.875 21.84375 13.851562 21.652344 C 13.820312 21.34375 13.636719 21.308594 13.46875 21.328125 Z M 13.101562 21.363281 "/>
<path style=" stroke:none;fill-rule:evenodd;fill:rgb(100%,100%,100%);fill-opacity:1;" d="M 7.910156 21.277344 L 8.558594 21.578125 C 8.609375 21.253906 8.65625 20.847656 8.660156 20.527344 C 8.433594 20.738281 8.125 21.023438 7.910156 21.277344 Z M 8.503906 21.820312 L 7.738281 21.464844 C 7.65625 21.570312 7.550781 21.679688 7.492188 21.757812 C 7.441406 21.824219 7.429688 21.832031 7.382812 21.808594 L 7.234375 21.738281 C 7.183594 21.714844 7.214844 21.671875 7.242188 21.640625 C 7.542969 21.265625 8.089844 20.679688 8.574219 20.265625 C 8.613281 20.234375 8.621094 20.242188 8.632812 20.25 L 8.898438 20.371094 C 8.917969 20.378906 8.917969 20.402344 8.917969 20.421875 C 8.910156 20.976562 8.816406 21.765625 8.703125 22.328125 C 8.695312 22.371094 8.671875 22.40625 8.621094 22.386719 L 8.484375 22.328125 C 8.4375 22.308594 8.421875 22.277344 8.4375 22.214844 C 8.457031 22.117188 8.484375 21.949219 8.503906 21.820312 Z M 8.503906 21.820312 "/>
<path style=" stroke:none;fill-rule:evenodd;fill:rgb(100%,100%,100%);fill-opacity:1;" d="M 10.78125 21.453125 L 10.871094 21.082031 C 10.785156 21.011719 10.585938 20.90625 10.394531 20.855469 C 10.328125 20.839844 9.476562 20.578125 9.246094 21.6875 C 9.164062 22.082031 9.164062 22.558594 9.839844 22.773438 C 9.820312 22.789062 9.808594 22.808594 9.8125 22.824219 C 9.824219 22.902344 9.90625 22.972656 9.867188 23.023438 C 9.828125 23.078125 9.679688 23.027344 9.519531 22.980469 C 9.492188 22.972656 9.476562 23.007812 9.464844 23.050781 C 9.453125 23.09375 9.445312 23.140625 9.472656 23.148438 C 9.761719 23.238281 9.945312 23.246094 10.015625 23.144531 C 10.082031 23.058594 10.039062 22.914062 9.96875 22.808594 C 10.105469 22.839844 10.253906 22.855469 10.375 22.832031 C 10.402344 22.828125 10.417969 22.816406 10.425781 22.777344 L 10.449219 22.652344 C 10.457031 22.613281 10.4375 22.601562 10.398438 22.601562 C 10.300781 22.605469 10.15625 22.617188 9.9375 22.554688 C 9.714844 22.488281 9.578125 22.375 9.523438 22.230469 C 9.46875 22.082031 9.492188 21.902344 9.542969 21.6875 C 9.597656 21.457031 9.683594 21.257812 9.84375 21.148438 C 9.960938 21.070312 10.128906 21.039062 10.308594 21.078125 C 10.417969 21.097656 10.53125 21.144531 10.578125 21.183594 L 10.527344 21.394531 C 10.515625 21.453125 10.53125 21.464844 10.578125 21.476562 L 10.691406 21.503906 C 10.75 21.519531 10.765625 21.503906 10.78125 21.453125 Z M 10.78125 21.453125 "/>
<path style=" stroke:none;fill-rule:evenodd;fill:rgb(100%,100%,100%);fill-opacity:1;" d="M 14.75 22.371094 L 14.394531 21.050781 C 14.382812 21.011719 14.359375 20.964844 14.441406 20.941406 L 15.320312 20.699219 C 15.375 20.683594 15.410156 20.675781 15.429688 20.75 L 15.453125 20.832031 C 15.476562 20.914062 15.421875 20.921875 15.382812 20.929688 L 14.683594 21.121094 L 14.824219 21.652344 L 15.472656 21.476562 C 15.523438 21.460938 15.5625 21.453125 15.582031 21.527344 L 15.605469 21.609375 C 15.625 21.6875 15.574219 21.695312 15.53125 21.707031 L 14.886719 21.882812 L 15.003906 22.308594 C 15.046875 22.464844 15.175781 22.5 15.304688 22.464844 L 15.78125 22.335938 C 15.820312 22.324219 15.867188 22.300781 15.890625 22.382812 L 15.914062 22.476562 C 15.933594 22.546875 15.902344 22.558594 15.847656 22.574219 L 15.355469 22.707031 C 15.132812 22.765625 14.84375 22.71875 14.75 22.371094 Z M 14.75 22.371094 "/>
<path style=" stroke:none;fill-rule:evenodd;fill:rgb(100%,100%,100%);fill-opacity:1;" d="M 11.796875 21.097656 C 12.390625 21.144531 12.578125 21.605469 12.539062 22.152344 C 12.496094 22.699219 12.25 23.125 11.644531 23.078125 C 11.042969 23.03125 10.863281 22.574219 10.90625 22.027344 C 10.949219 21.480469 11.203125 21.054688 11.796875 21.097656 Z M 11.78125 21.328125 C 11.34375 21.292969 11.203125 21.640625 11.175781 22.046875 C 11.144531 22.453125 11.21875 22.816406 11.664062 22.851562 C 12.109375 22.882812 12.238281 22.535156 12.269531 22.132812 C 12.300781 21.726562 12.21875 21.359375 11.78125 21.328125 Z M 11.78125 21.328125 "/>
<path style=" stroke:none;fill-rule:evenodd;fill:rgb(99.215686%,79.607843%,8.235294%);fill-opacity:1;" d="M 7.136719 16.640625 L 7.585938 16.394531 L 7.5625 15.886719 L 7.933594 16.234375 L 8.410156 16.054688 L 8.191406 16.515625 L 8.511719 16.914062 L 8.003906 16.851562 L 7.726562 17.277344 L 7.628906 16.777344 Z M 7.136719 16.640625 "/>
<path style=" stroke:none;fill-rule:evenodd;fill:rgb(99.215686%,79.607843%,8.235294%);fill-opacity:1;" d="M 9.933594 6.769531 L 10.378906 6.523438 L 10.355469 6.015625 L 10.726562 6.363281 L 11.207031 6.183594 L 10.988281 6.644531 L 11.304688 7.042969 L 10.800781 6.980469 L 10.519531 7.40625 L 10.425781 6.90625 Z M 9.933594 6.769531 "/>
<path style=" stroke:none;fill-rule:evenodd;fill:rgb(99.215686%,79.607843%,8.235294%);fill-opacity:1;" d="M 7.933594 7.800781 L 8.378906 7.558594 L 8.355469 7.046875 L 8.730469 7.398438 L 9.207031 7.21875 L 8.988281 7.679688 L 9.308594 8.078125 L 8.800781 8.011719 L 8.519531 8.4375 L 8.425781 7.9375 Z M 7.933594 7.800781 "/>
<path style=" stroke:none;fill-rule:evenodd;fill:rgb(99.215686%,79.607843%,8.235294%);fill-opacity:1;" d="M 12.210938 6.382812 L 12.660156 6.136719 L 12.636719 5.628906 L 13.007812 5.976562 L 13.484375 5.796875 L 13.269531 6.257812 L 13.585938 6.65625 L 13.082031 6.59375 L 12.800781 7.019531 L 12.703125 6.519531 Z M 12.210938 6.382812 "/>
<path style=" stroke:none;fill-rule:evenodd;fill:rgb(99.215686%,79.607843%,8.235294%);fill-opacity:1;" d="M 14.449219 6.984375 L 14.894531 6.738281 L 14.871094 6.230469 L 15.242188 6.578125 L 15.722656 6.398438 L 15.503906 6.863281 L 15.820312 7.257812 L 15.316406 7.195312 L 15.035156 7.621094 L 14.941406 7.121094 Z M 14.449219 6.984375 "/>
<path style=" stroke:none;fill-rule:evenodd;fill:rgb(99.215686%,79.607843%,8.235294%);fill-opacity:1;" d="M 16.253906 8.363281 L 16.703125 8.117188 L 16.679688 7.605469 L 17.050781 7.957031 L 17.527344 7.777344 L 17.308594 8.238281 L 17.628906 8.636719 L 17.121094 8.570312 L 16.84375 8.996094 L 16.746094 8.496094 Z M 16.253906 8.363281 "/>
<path style=" stroke:none;fill-rule:evenodd;fill:rgb(99.215686%,79.607843%,8.235294%);fill-opacity:1;" d="M 6.363281 9.628906 L 6.808594 9.386719 L 6.785156 8.875 L 7.160156 9.222656 L 7.636719 9.046875 L 7.417969 9.507812 L 7.738281 9.90625 L 7.230469 9.839844 L 6.949219 10.265625 L 6.855469 9.765625 Z M 6.363281 9.628906 "/>
<path style=" stroke:none;fill-rule:evenodd;fill:rgb(99.215686%,79.607843%,8.235294%);fill-opacity:1;" d="M 5.78125 11.867188 L 6.230469 11.621094 L 6.207031 11.113281 L 6.578125 11.460938 L 7.054688 11.28125 L 6.839844 11.742188 L 7.15625 12.140625 L 6.652344 12.078125 L 6.371094 12.503906 L 6.273438 12 Z M 5.78125 11.867188 "/>
<path style=" stroke:none;fill-rule:evenodd;fill:rgb(99.215686%,79.607843%,8.235294%);fill-opacity:1;" d="M 5.957031 14.402344 L 6.402344 14.160156 L 6.378906 13.648438 L 6.75 14 L 7.226562 13.820312 L 7.011719 14.28125 L 7.328125 14.679688 L 6.824219 14.613281 L 6.542969 15.039062 L 6.445312 14.539062 Z M 5.957031 14.402344 "/>
<path style=" stroke:none;fill-rule:evenodd;fill:url(#linear6);" d="M 8.289062 11.234375 C 8.503906 10.78125 8.828125 10.496094 9.226562 10.289062 C 9.785156 9.992188 10.484375 9.882812 11.113281 9.898438 C 11.019531 9.777344 10.964844 9.710938 10.945312 9.574219 C 10.886719 9.453125 11.476562 9.121094 12.210938 8.945312 C 12.871094 8.792969 13.644531 8.757812 14.25 8.84375 C 13.90625 8.875 13.515625 8.90625 13.234375 8.976562 C 13.929688 8.945312 14.761719 9.023438 15.425781 9.195312 C 16.25 9.410156 16.96875 9.8125 17.492188 10.429688 C 17.367188 10.375 17.191406 10.3125 17.03125 10.292969 C 17.464844 10.574219 17.804688 10.820312 17.945312 11.074219 L 17.808594 11.125 C 18.519531 11.898438 18.933594 12.796875 19.03125 13.84375 C 18.703125 12.851562 18.1875 12.066406 17.398438 11.632812 C 17.804688 12.195312 18.265625 12.878906 18.394531 13.84375 C 17.8125 12.445312 17.367188 12.210938 16.574219 11.863281 C 16.109375 12.140625 15.601562 12.308594 15.238281 12.371094 C 15.5 12.183594 15.726562 12.023438 15.875 11.789062 C 15.269531 12.21875 14.46875 12.523438 13.519531 12.527344 C 14.109375 12.316406 14.550781 12.125 14.894531 11.804688 C 14.175781 12.132812 13.050781 12.445312 12.203125 12.394531 C 12.988281 12.253906 13.792969 11.957031 14.265625 11.546875 C 15.546875 11.574219 16.449219 11.496094 17.160156 11.320312 C 16.328125 11.445312 15.316406 11.445312 14.503906 11.371094 C 15.269531 11.285156 16.046875 11.164062 16.503906 10.941406 C 15.746094 11.113281 14.902344 11.183594 14.101562 11.152344 C 14.742188 11.0625 15.449219 10.929688 15.929688 10.707031 C 14.691406 10.933594 13.421875 10.976562 12.109375 10.796875 C 12.855469 10.972656 13.726562 11.257812 14.042969 11.464844 C 12.921875 12.101562 11.324219 12.296875 9.550781 12.003906 C 10.910156 12.011719 12.089844 11.945312 13.152344 11.445312 C 11.355469 10.738281 9.757812 10.835938 8.292969 11.238281 Z M 10 10.5625 C 10.582031 10.441406 11.054688 10.378906 11.535156 10.398438 L 11.375 10.265625 C 10.808594 10.304688 10.34375 10.40625 10 10.5625 Z M 9.445312 10.511719 C 10.128906 10.238281 10.746094 10.148438 11.277344 10.183594 L 11.171875 10.058594 C 10.625 10.03125 9.90625 10.210938 9.445312 10.511719 Z M 13.613281 10.164062 C 13.707031 10.234375 13.789062 10.253906 13.84375 10.21875 C 13.996094 10.128906 14.015625 9.765625 13.855469 9.636719 C 13.882812 9.636719 13.929688 9.632812 13.960938 9.632812 C 13.976562 9.652344 14.011719 9.6875 14.03125 9.753906 C 14.046875 9.710938 14.050781 9.65625 14.050781 9.625 C 14.082031 9.652344 14.097656 9.675781 14.125 9.734375 C 14.132812 9.703125 14.132812 9.652344 14.125 9.621094 L 14.171875 9.621094 C 14.289062 9.890625 14.214844 10.152344 14.109375 10.3125 C 13.964844 10.53125 13.789062 10.515625 13.664062 10.441406 C 13.640625 10.382812 13.632812 10.3125 13.613281 10.171875 Z M 11.378906 9.738281 C 11.628906 10.078125 11.984375 10.285156 12.324219 10.449219 C 12.074219 10.21875 11.828125 9.925781 11.757812 9.636719 C 11.996094 9.9375 12.292969 10.210938 12.605469 10.382812 C 12.421875 10.167969 12.257812 9.917969 12.265625 9.699219 C 12.421875 9.929688 12.59375 10.136719 12.957031 10.300781 C 12.820312 10.113281 12.773438 9.957031 12.777344 9.765625 C 13 10.117188 13.304688 10.433594 13.683594 10.550781 L 13.671875 10.492188 C 13.738281 10.554688 13.855469 10.578125 13.949219 10.539062 C 14.132812 10.46875 14.277344 10.234375 14.3125 10.011719 C 14.335938 9.890625 14.335938 9.746094 14.289062 9.589844 C 14.539062 9.71875 14.660156 9.988281 14.621094 10.15625 C 14.582031 10.304688 14.425781 10.449219 14.199219 10.578125 C 14.660156 10.492188 15.011719 10.34375 15.253906 10.15625 C 15.84375 10.089844 16.28125 10.210938 16.550781 10.363281 C 16.332031 10.09375 15.882812 9.953125 15.316406 9.945312 C 15.5 9.761719 15.855469 9.804688 16.296875 9.878906 C 15.621094 9.4375 14.265625 9.175781 12.539062 9.621094 C 12.675781 9.496094 13 9.363281 13.226562 9.277344 C 12.71875 9.296875 11.957031 9.433594 11.382812 9.738281 Z M 11.378906 9.738281 "/>
<path style=" stroke:none;fill-rule:evenodd;fill:url(#linear7);" d="M 13.1875 12.5 C 12.898438 12.578125 12.621094 12.609375 12.328125 12.652344 C 11.902344 12.714844 11.421875 12.695312 11.015625 12.816406 C 12.253906 13.144531 13.359375 13.714844 14.285156 14.566406 C 14.121094 14.066406 13.535156 13.53125 12.761719 13.105469 C 13.707031 13.425781 14.40625 14.089844 14.957031 14.695312 C 14.722656 14.082031 14.199219 13.589844 13.539062 13.121094 C 14.28125 13.421875 15.078125 14 15.808594 14.839844 C 15.632812 14.488281 15.332031 13.996094 14.859375 13.585938 C 14.386719 13.175781 13.738281 12.828125 12.703125 12.714844 C 12.871094 12.660156 13.03125 12.59375 13.191406 12.503906 Z M 13.1875 12.5 "/>
<path style=" stroke:none;fill-rule:evenodd;fill:url(#linear8);" d="M 13.488281 12.789062 C 15.859375 13.390625 16.917969 15.171875 17.519531 17.355469 C 17.515625 15.09375 16.734375 13.863281 15.164062 12.984375 C 16.625 13.542969 17.496094 14.707031 17.96875 16.273438 C 17.941406 15.085938 17.371094 13.875 16.183594 12.847656 C 16.917969 13.265625 17.582031 13.914062 18.183594 15.125 C 17.988281 13.839844 17.335938 12.765625 16.515625 12.425781 C 15.941406 12.660156 15.179688 12.832031 14.355469 12.808594 C 14.496094 12.761719 14.632812 12.707031 14.761719 12.597656 C 14.417969 12.679688 13.949219 12.734375 13.492188 12.792969 Z M 13.488281 12.789062 "/>
<path style=" stroke:none;fill-rule:evenodd;fill:url(#linear9);" d="M 13.050781 15.828125 C 12.953125 16.660156 12.445312 17.671875 10.933594 18.753906 C 11.5625 18.488281 12.617188 17.976562 13.203125 16.972656 C 13.25 16.351562 13.140625 16.074219 13.050781 15.828125 Z M 13.050781 15.828125 "/>
<path style=" stroke:none;fill-rule:evenodd;fill:url(#linear10);" d="M 11.421875 19.074219 C 11.921875 19.066406 12.683594 18.820312 13.269531 18.246094 C 13.402344 17.878906 13.394531 17.535156 13.292969 17.214844 C 13.066406 17.96875 12.347656 18.671875 11.421875 19.078125 Z M 11.421875 19.074219 "/>
</g>
</svg>
