<?xml version="1.0" encoding="UTF-8"?>
<svg xmlns="http://www.w3.org/2000/svg" xmlns:xlink="http://www.w3.org/1999/xlink" width="35pt" height="25pt" viewBox="0 0 35 25" version="1.1">
<g id="surface1">
<path style=" stroke:none;fill-rule:evenodd;fill:rgb(0%,37.254902%,15.294118%);fill-opacity:1;" d="M 24.019531 20.335938 C 24.296875 20.949219 23.363281 21.183594 22.898438 20.757812 L 22.5625 20.6875 L 22.734375 20.320312 C 23.234375 20.65625 23.671875 20.863281 24.238281 21.066406 C 23.742188 21.269531 23.246094 21.476562 22.707031 21.5625 L 22.765625 21.578125 L 23.304688 21.765625 C 22.445312 22.101562 21.246094 22.628906 20.3125 22.160156 C 20.121094 22.6875 19.773438 23.140625 19.273438 23.488281 C 18.414062 24.058594 17.625 23.957031 16.632812 23.636719 C 16.019531 23.417969 15.859375 22.933594 15.859375 22.132812 C 14.5 22.570312 15.082031 23.152344 14.308594 23.386719 C 13.417969 23.664062 12.132812 23.09375 13.316406 22.292969 C 13.695312 22.03125 14.121094 21.839844 14.542969 21.648438 C 10.820312 20.234375 8.671875 17.152344 8.425781 13.355469 C 7.097656 13.105469 7.199219 11.648438 7.386719 10.652344 C 7.621094 9.398438 10.542969 8.625 11.492188 10.246094 C 12.015625 8.914062 12.921875 7.792969 14.078125 7.015625 L 13.695312 6.183594 C 13.492188 6.125 13.347656 5.9375 13.347656 5.71875 C 13.347656 5.660156 13.359375 5.601562 13.375 5.542969 L 12.746094 4.199219 L 12.628906 4.273438 L 11.855469 2.78125 L 12.617188 2.433594 L 12.617188 2.402344 L 13.375 2.039062 L 13.609375 1.921875 L 14.355469 1.613281 L 14.9375 2.738281 L 15.140625 2.679688 L 15.332031 2.636719 L 15.550781 3.277344 L 15.363281 3.160156 L 15.230469 3.382812 L 15.054688 2.710938 C 15.417969 2.605469 15.785156 2.535156 16.148438 2.460938 L 16.3125 3.046875 L 16.148438 2.941406 L 16.003906 3.132812 L 15.917969 2.503906 C 16.136719 2.476562 15.917969 2.503906 16.136719 2.476562 L 16.089844 1.132812 C 16.703125 1.117188 17.054688 1.117188 17.085938 1.117188 C 17.070312 1.117188 17.097656 1.117188 17.085938 1.117188 C 17.492188 1.101562 17.917969 1.101562 18.324219 1.101562 L 19.289062 1.117188 L 19.289062 2.433594 L 19.363281 2.445312 L 19.566406 2.460938 L 19.464844 3.058594 L 19.363281 2.882812 L 19.15625 3.015625 L 19.273438 2.433594 C 19.640625 2.488281 19.992188 2.546875 20.339844 2.636719 L 20.238281 3.277344 L 20.136719 3.089844 L 19.917969 3.207031 L 20.0625 2.578125 C 20.210938 2.605469 20.355469 2.636719 20.488281 2.679688 L 21.042969 1.496094 L 23.597656 2.652344 L 22.808594 4.140625 L 22.691406 4.082031 L 22.488281 4.550781 L 22.121094 5.425781 C 22.152344 5.484375 22.167969 5.558594 22.167969 5.628906 C 22.167969 5.835938 22.035156 6.007812 21.84375 6.082031 L 21.480469 6.957031 C 23.378906 8.15625 24.632812 10.289062 24.632812 12.683594 C 24.632812 15.75 22.605469 18.394531 19.726562 19.226562 C 19.875 19.328125 19.992188 19.429688 20.09375 19.546875 C 20.675781 18.890625 20.589844 18.964844 21 18.085938 C 21.085938 18.421875 21.171875 18.757812 21.261719 19.109375 C 21.683594 18.613281 21.859375 18.234375 22.136719 17.648438 C 22.210938 17.925781 22.269531 18.1875 22.339844 18.4375 C 22.5625 17.808594 22.96875 17.226562 23.304688 16.640625 L 23.347656 16.816406 C 23.480469 16.773438 23.640625 16.757812 23.757812 16.816406 L 23.773438 16.742188 C 23.816406 16.101562 24.019531 15.457031 24.195312 14.832031 L 24.445312 15.3125 C 24.445312 15.296875 24.460938 15.296875 24.472656 15.296875 C 24.226562 14.640625 24.269531 13.925781 24.3125 13.238281 L 24.589844 13.382812 C 24.519531 13.078125 24.488281 12.757812 24.445312 12.449219 C 25 12.640625 25.582031 12.816406 25.964844 13.28125 L 25.964844 13.164062 C 25.410156 13.28125 24.679688 12.960938 24.152344 12.757812 C 24.371094 12.492188 24.5625 12.246094 24.824219 12.027344 C 24.460938 11.675781 24.296875 11.238281 24.152344 10.800781 C 23.453125 10.332031 24.371094 9.585938 25.117188 10.214844 L 25.65625 10.40625 C 25.640625 10.363281 25.628906 10.304688 25.613281 10.257812 L 25.832031 10.40625 C 24.035156 10.625 23.421875 9.441406 22.792969 8.082031 C 23.277344 8.300781 23.714844 8.519531 24.253906 8.59375 C 24.109375 7.980469 24.226562 7.339844 24.285156 6.726562 C 24.824219 7.484375 24.925781 7.628906 25.628906 8.199219 C 25.671875 8.230469 25.699219 8.257812 25.746094 8.300781 C 26.300781 7.6875 26.269531 7.6875 26.695312 6.855469 C 26.855469 7.484375 27.074219 8.1875 26.925781 8.84375 C 27.117188 8.871094 27.25 9.003906 27.277344 9.191406 C 27.585938 9.105469 27.90625 9.03125 28.210938 8.960938 C 27.757812 9.585938 27.65625 9.691406 27.410156 10.390625 C 27.367188 10.507812 27.320312 10.625 27.261719 10.726562 C 27.421875 10.769531 27.527344 10.917969 27.511719 11.105469 C 27.671875 11.0625 27.847656 11.046875 28.007812 11.019531 C 27.992188 11.355469 27.992188 11.691406 27.90625 12.027344 C 28.183594 12.039062 28.460938 12.128906 28.722656 12.214844 C 28.476562 12.710938 28.210938 13.222656 27.746094 13.558594 C 27.964844 13.574219 28.199219 13.589844 28.402344 13.601562 C 28.152344 14.128906 27.90625 14.785156 27.453125 15.167969 C 27.644531 15.195312 27.816406 15.222656 28.007812 15.238281 C 27.6875 15.835938 27.335938 16.40625 26.722656 16.742188 C 27.015625 16.785156 27.292969 16.890625 27.585938 16.976562 C 27.144531 17.546875 26.679688 18.070312 25.992188 18.335938 C 26.386719 18.890625 25.496094 19.285156 24.96875 18.992188 L 24.429688 18.992188 C 24.882812 19.136719 25.261719 19.402344 25.640625 19.648438 C 25.132812 19.957031 24.621094 20.25 24.019531 20.335938 Z M 24.019531 20.335938 "/>
<path style=" stroke:none;fill-rule:evenodd;fill:rgb(100%,90.980392%,0%);fill-opacity:1;" d="M 19.042969 4.535156 L 18.910156 3.773438 C 19.289062 3.789062 19.65625 3.863281 20.003906 3.980469 L 19.507812 4.609375 C 19.363281 4.578125 19.203125 4.5625 19.042969 4.535156 Z M 19.042969 4.535156 "/>
<path style=" stroke:none;fill-rule:evenodd;fill:rgb(100%,90.980392%,0%);fill-opacity:1;" d="M 16.71875 2.722656 L 16.542969 3.71875 C 16.148438 3.730469 15.609375 3.832031 15.304688 3.980469 L 14.617188 3.160156 C 14.777344 3.105469 14.96875 3.089844 15.140625 3.03125 L 15.304688 3.484375 L 15.535156 3.425781 L 15.417969 2.957031 C 15.59375 2.914062 15.753906 2.871094 15.929688 2.839844 L 16.03125 3.234375 L 16.324219 3.207031 L 16.253906 2.796875 C 16.398438 2.769531 16.558594 2.738281 16.71875 2.722656 Z M 16.71875 2.722656 "/>
<path style=" stroke:none;fill-rule:evenodd;fill:rgb(100%,90.980392%,0%);fill-opacity:1;" d="M 21.597656 5.921875 L 21.304688 6.578125 C 20.3125 6.023438 19.070312 5.675781 17.84375 5.675781 C 16.589844 5.675781 15.257812 6.054688 14.238281 6.652344 L 13.914062 5.980469 C 16.195312 4.652344 19.144531 4.535156 21.597656 5.921875 Z M 21.597656 5.921875 "/>
<path style=" stroke:none;fill-rule:evenodd;fill:rgb(100%,100%,100%);fill-opacity:1;" d="M 13.40625 12.726562 C 13.40625 15.167969 15.390625 17.152344 17.84375 17.152344 C 20.28125 17.152344 22.269531 15.167969 22.269531 12.726562 C 22.269531 10.273438 20.28125 8.289062 17.84375 8.289062 C 15.390625 8.289062 13.40625 10.273438 13.40625 12.726562 Z M 12.964844 12.726562 C 12.964844 10.027344 15.15625 7.851562 17.84375 7.851562 C 20.53125 7.851562 22.707031 10.027344 22.707031 12.726562 C 22.707031 15.414062 20.53125 17.589844 17.84375 17.589844 C 15.15625 17.589844 12.964844 15.414062 12.964844 12.726562 Z M 12.964844 12.726562 "/>
<path style=" stroke:none;fill-rule:evenodd;fill:rgb(100%,90.980392%,0%);fill-opacity:1;" d="M 8.773438 13.28125 C 9.007812 17.429688 11.578125 20.6875 16.03125 21.765625 C 16.953125 21.984375 17.816406 22 18.558594 21.941406 C 18.617188 21.957031 18.632812 21.972656 18.632812 21.984375 C 18.648438 22.058594 18.648438 22.074219 18.632812 22.101562 L 18.253906 22.132812 L 18.253906 22.933594 C 17.769531 22.480469 16.777344 22.089844 16.296875 22.875 C 16.367188 23.125 16.515625 23.242188 16.734375 23.316406 C 17.699219 23.636719 18.355469 23.710938 19.070312 23.226562 C 19.902344 22.65625 20.222656 21.8125 20.164062 20.730469 C 20.136719 19.941406 19.65625 19.429688 18.734375 19.210938 C 18.382812 19.269531 18.210938 19.253906 17.84375 19.253906 C 14.222656 19.253906 11.300781 16.335938 11.300781 12.726562 C 11.300781 12.273438 11.34375 11.835938 11.433594 11.398438 C 11.402344 9.03125 7.972656 9.472656 7.738281 10.753906 C 7.664062 11.0625 7.652344 11.414062 7.636719 11.792969 C 7.621094 12.320312 7.753906 12.667969 8.046875 12.875 C 8.527344 12.550781 8.382812 11.558594 8.308594 11.179688 C 8.484375 11.164062 8.660156 11.179688 8.847656 11.179688 C 8.847656 11.105469 8.878906 11.019531 8.90625 10.945312 C 8.964844 10.886719 9.007812 10.902344 9.066406 10.976562 C 8.878906 11.792969 8.761719 12.433594 8.773438 13.28125 Z M 8.773438 13.28125 "/>
<path style=" stroke:none;fill-rule:evenodd;fill:rgb(100%,100%,100%);fill-opacity:1;" d="M 11.84375 12.726562 C 11.84375 16.027344 14.527344 18.714844 17.84375 18.714844 C 21.144531 18.714844 23.832031 16.027344 23.832031 12.726562 C 23.832031 9.414062 21.144531 6.726562 17.84375 6.726562 C 14.527344 6.726562 11.84375 9.414062 11.84375 12.726562 Z M 11.417969 12.726562 C 11.417969 9.179688 14.296875 6.300781 17.84375 6.300781 C 21.378906 6.300781 24.253906 9.179688 24.253906 12.726562 C 24.253906 16.261719 21.378906 19.136719 17.84375 19.136719 C 14.296875 19.136719 11.417969 16.261719 11.417969 12.726562 Z M 11.417969 12.726562 "/>
<path style=" stroke:none;fill-rule:evenodd;fill:rgb(100%,90.980392%,0%);fill-opacity:1;" d="M 14.265625 6.710938 C 15.304688 6.097656 16.53125 5.746094 17.828125 5.746094 C 19.101562 5.746094 20.269531 6.082031 21.289062 6.667969 L 21.128906 7.015625 C 20.164062 6.460938 19.027344 6.140625 17.84375 6.140625 C 16.617188 6.140625 15.433594 6.492188 14.457031 7.074219 Z M 14.265625 6.710938 "/>
<path style=" stroke:none;fill-rule:evenodd;fill:rgb(100%,90.980392%,0%);fill-opacity:1;" d="M 18.878906 3.644531 L 18.707031 2.710938 C 18.878906 2.722656 19.042969 2.738281 19.214844 2.769531 L 19.15625 3.132812 L 19.4375 3.207031 L 19.507812 2.796875 C 19.683594 2.839844 19.84375 2.871094 19.992188 2.898438 L 19.933594 3.335938 L 20.210938 3.410156 L 20.296875 2.972656 C 20.429688 3 20.558594 3.046875 20.691406 3.074219 L 20.078125 3.878906 C 19.683594 3.761719 19.289062 3.671875 18.878906 3.644531 Z M 18.878906 3.644531 "/>
<path style=" stroke:none;fill-rule:evenodd;fill:rgb(100%,90.980392%,0%);fill-opacity:1;" d="M 13.636719 5.746094 C 13.636719 5.6875 13.683594 5.628906 13.742188 5.601562 C 14.9375 4.898438 16.339844 4.492188 17.84375 4.492188 C 19.261719 4.492188 20.589844 4.871094 21.757812 5.484375 C 21.816406 5.527344 21.859375 5.585938 21.859375 5.660156 C 21.859375 5.746094 21.785156 5.835938 21.683594 5.835938 C 21.640625 5.835938 21.613281 5.820312 21.566406 5.789062 C 20.457031 5.191406 19.1875 4.855469 17.84375 4.855469 C 16.414062 4.855469 15.082031 5.234375 13.929688 5.894531 C 13.914062 5.894531 13.902344 5.90625 13.886719 5.921875 C 13.855469 5.921875 13.855469 5.9375 13.828125 5.9375 C 13.726562 5.9375 13.636719 5.847656 13.636719 5.746094 Z M 13.636719 5.746094 "/>
<path style=" stroke:none;fill-rule:evenodd;fill:rgb(100%,90.980392%,0%);fill-opacity:1;" d="M 16.542969 3.804688 L 16.414062 4.5625 C 16.222656 4.59375 16.03125 4.621094 15.859375 4.679688 L 15.375 4.066406 C 15.753906 3.9375 16.148438 3.847656 16.542969 3.804688 Z M 16.542969 3.804688 "/>
<path style=" stroke:none;fill-rule:evenodd;fill:rgb(100%,90.980392%,0%);fill-opacity:1;" d="M 16.253906 22.644531 C 16.703125 22.191406 17.480469 22.175781 18.09375 22.613281 C 18.078125 22.4375 18.105469 22.292969 18.09375 22.132812 C 17.566406 22.132812 16.9375 22.117188 16.253906 21.984375 C 16.222656 22.277344 16.222656 22.496094 16.253906 22.644531 Z M 16.253906 22.644531 "/>
<path style=" stroke:none;fill-rule:evenodd;fill:rgb(100%,90.980392%,0%);fill-opacity:1;" d="M 8.496094 12.421875 C 8.425781 12.640625 8.351562 12.828125 8.25 12.945312 C 8.367188 12.976562 8.496094 13.019531 8.644531 13.019531 C 8.613281 12.582031 8.703125 12.027344 8.820312 11.339844 C 8.714844 11.339844 8.613281 11.339844 8.496094 11.355469 C 8.542969 11.761719 8.542969 12.128906 8.496094 12.421875 Z M 8.496094 12.421875 "/>
<path style=" stroke:none;fill-rule:evenodd;fill:rgb(74.117647%,80%,5.098039%);fill-opacity:1;" d="M 13.375 22.644531 C 13.769531 22.394531 14.382812 22.058594 15.257812 21.695312 C 15.449219 21.765625 15.625 21.8125 15.8125 21.855469 C 15.640625 21.914062 15.492188 21.972656 15.363281 22.015625 C 14.953125 22.148438 14.644531 22.527344 14.484375 22.933594 C 14.410156 23.125 13.652344 23.34375 13.230469 23.050781 C 13.082031 22.964844 13.15625 22.789062 13.375 22.644531 Z M 13.375 22.644531 "/>
<path style=" stroke:none;fill-rule:evenodd;fill:rgb(74.117647%,80%,5.098039%);fill-opacity:1;" d="M 25.964844 10.085938 C 24.867188 9.644531 24.371094 8.8125 24.503906 7.585938 C 25.1875 8.550781 26.195312 8.433594 25.964844 10.085938 Z M 25.964844 10.085938 "/>
<path style=" stroke:none;fill-rule:evenodd;fill:rgb(74.117647%,80%,5.098039%);fill-opacity:1;" d="M 23.421875 8.726562 C 23.875 8.929688 24.285156 8.929688 24.664062 8.988281 C 24.824219 9.441406 25.320312 9.910156 25.917969 10.113281 C 24.765625 10.289062 23.933594 9.835938 23.421875 8.726562 Z M 23.421875 8.726562 "/>
<path style=" stroke:none;fill-rule:evenodd;fill:rgb(74.117647%,80%,5.098039%);fill-opacity:1;" d="M 26.589844 7.746094 C 26.808594 8.59375 26.621094 9.265625 26.035156 9.75 C 26.066406 9.398438 26.023438 9.105469 25.789062 8.742188 C 26.023438 8.433594 26.371094 8.214844 26.589844 7.746094 Z M 26.589844 7.746094 "/>
<path style=" stroke:none;fill-rule:evenodd;fill:rgb(74.117647%,80%,5.098039%);fill-opacity:1;" d="M 27.480469 9.472656 C 27.03125 10.128906 27.292969 10.726562 26.402344 11.019531 C 26.359375 10.828125 26.3125 10.640625 26.253906 10.449219 C 26.445312 9.953125 26.855469 9.632812 27.480469 9.472656 Z M 27.480469 9.472656 "/>
<path style=" stroke:none;fill-rule:evenodd;fill:rgb(74.117647%,80%,5.098039%);fill-opacity:1;" d="M 26.210938 11.835938 C 26.226562 11.984375 26.242188 12.144531 26.253906 12.304688 C 25.363281 12.273438 24.78125 11.808594 24.488281 10.902344 C 25.1875 11.324219 25.832031 11.089844 26.210938 11.835938 Z M 26.210938 11.835938 "/>
<path style=" stroke:none;fill-rule:evenodd;fill:rgb(74.117647%,80%,5.098039%);fill-opacity:1;" d="M 24.664062 12.652344 C 24.867188 12.390625 25.074219 12.203125 25.277344 12.070312 C 25.628906 12.261719 25.964844 12.347656 26.242188 12.332031 C 26.253906 12.433594 26.253906 12.539062 26.253906 12.625 C 26.035156 13.003906 25.554688 12.988281 24.664062 12.652344 Z M 24.664062 12.652344 "/>
<path style=" stroke:none;fill-rule:evenodd;fill:rgb(74.117647%,80%,5.098039%);fill-opacity:1;" d="M 27.6875 11.414062 C 27.644531 12.347656 27.25 12.933594 26.546875 13.121094 C 26.5625 12.828125 26.5625 12.539062 26.546875 12.246094 C 26.738281 11.792969 27.117188 11.515625 27.6875 11.414062 Z M 27.6875 11.414062 "/>
<path style=" stroke:none;fill-rule:evenodd;fill:rgb(74.117647%,80%,5.098039%);fill-opacity:1;" d="M 26.53125 13.546875 C 26.546875 13.429688 26.546875 13.28125 26.546875 13.152344 C 26.972656 13.046875 27.308594 12.800781 27.511719 12.363281 C 27.757812 12.320312 28.023438 12.347656 28.285156 12.433594 C 27.847656 13.28125 27.308594 13.675781 26.53125 13.546875 Z M 26.53125 13.546875 "/>
<path style=" stroke:none;fill-rule:evenodd;fill:rgb(74.117647%,80%,5.098039%);fill-opacity:1;" d="M 24.226562 10.417969 C 24.253906 10.316406 24.445312 10.289062 24.648438 10.347656 C 24.855469 10.390625 25 10.507812 24.984375 10.609375 C 24.96875 10.699219 24.78125 10.726562 24.5625 10.667969 C 24.355469 10.625 24.210938 10.507812 24.226562 10.417969 Z M 24.226562 10.417969 "/>
<path style=" stroke:none;fill-rule:evenodd;fill:rgb(74.117647%,80%,5.098039%);fill-opacity:1;" d="M 26.941406 9.191406 C 27.015625 9.25 26.972656 9.441406 26.839844 9.617188 C 26.695312 9.777344 26.53125 9.863281 26.460938 9.804688 C 26.386719 9.75 26.429688 9.558594 26.5625 9.398438 C 26.695312 9.222656 26.867188 9.148438 26.941406 9.191406 Z M 26.941406 9.191406 "/>
<path style=" stroke:none;fill-rule:evenodd;fill:rgb(74.117647%,80%,5.098039%);fill-opacity:1;" d="M 26.621094 11.574219 C 26.546875 11.5 26.621094 11.324219 26.78125 11.179688 C 26.941406 11.035156 27.117188 10.988281 27.175781 11.0625 C 27.25 11.136719 27.175781 11.296875 27.015625 11.441406 C 26.855469 11.574219 26.679688 11.632812 26.621094 11.574219 Z M 26.621094 11.574219 "/>
<path style=" stroke:none;fill-rule:evenodd;fill:rgb(74.117647%,80%,5.098039%);fill-opacity:1;" d="M 26.78125 14.027344 C 26.738281 13.9375 26.839844 13.792969 27 13.675781 C 27.175781 13.558594 27.367188 13.53125 27.421875 13.601562 C 27.46875 13.675781 27.367188 13.835938 27.203125 13.953125 C 27.03125 14.085938 26.839844 14.113281 26.78125 14.027344 Z M 26.78125 14.027344 "/>
<path style=" stroke:none;fill-rule:evenodd;fill:rgb(74.117647%,80%,5.098039%);fill-opacity:1;" d="M 26.09375 14.566406 C 26.082031 14.65625 26.066406 14.742188 26.050781 14.832031 C 25.363281 14.609375 24.984375 14.011719 24.824219 12.917969 C 25.640625 13.210938 26.035156 13.71875 26.09375 14.566406 Z M 26.09375 14.566406 "/>
<path style=" stroke:none;fill-rule:evenodd;fill:rgb(74.117647%,80%,5.098039%);fill-opacity:1;" d="M 27.921875 13.910156 C 27.46875 14.859375 27.144531 15.339844 26.242188 15.269531 C 26.300781 15.035156 26.359375 14.785156 26.402344 14.550781 C 26.519531 14.363281 26.664062 14.230469 26.839844 14.128906 C 26.957031 14.128906 27.085938 14.085938 27.21875 13.984375 L 27.25 13.96875 C 27.4375 13.925781 27.671875 13.894531 27.921875 13.910156 Z M 27.921875 13.910156 "/>
<path style=" stroke:none;fill-rule:evenodd;fill:rgb(74.117647%,80%,5.098039%);fill-opacity:1;" d="M 25.746094 15.867188 C 25.714844 15.96875 25.671875 16.070312 25.628906 16.160156 C 24.796875 15.78125 24.503906 14.902344 24.589844 13.75 C 25.335938 14.144531 25.859375 15.09375 25.746094 15.867188 Z M 25.746094 15.867188 "/>
<path style=" stroke:none;fill-rule:evenodd;fill:rgb(74.117647%,80%,5.098039%);fill-opacity:1;" d="M 27.527344 15.515625 C 27.042969 16.394531 26.300781 16.757812 25.730469 16.683594 C 25.847656 16.449219 25.949219 16.203125 26.035156 15.953125 C 26.402344 15.558594 26.914062 15.414062 27.527344 15.515625 Z M 27.527344 15.515625 "/>
<path style=" stroke:none;fill-rule:evenodd;fill:rgb(74.117647%,80%,5.098039%);fill-opacity:1;" d="M 24.589844 16.011719 C 24.503906 15.835938 24.503906 15.664062 24.589844 15.605469 C 24.691406 15.558594 24.839844 15.664062 24.925781 15.835938 C 25.027344 16.011719 25.027344 16.1875 24.941406 16.246094 C 24.855469 16.304688 24.691406 16.1875 24.589844 16.011719 Z M 24.589844 16.011719 "/>
<path style=" stroke:none;fill-rule:evenodd;fill:rgb(74.117647%,80%,5.098039%);fill-opacity:1;" d="M 24.285156 15.707031 C 24.605469 16.335938 24.941406 16.933594 24.96875 17.414062 C 24.824219 17.621094 24.664062 17.824219 24.488281 18.027344 C 23.917969 17.5625 24.007812 16.757812 24.285156 15.707031 Z M 24.285156 15.707031 "/>
<path style=" stroke:none;fill-rule:evenodd;fill:rgb(74.117647%,80%,5.098039%);fill-opacity:1;" d="M 27.074219 17.167969 C 26.445312 17.96875 25.523438 18.363281 24.855469 18.101562 C 25.074219 17.824219 25.292969 17.515625 25.46875 17.195312 C 25.949219 17.007812 26.589844 17.007812 27.074219 17.167969 Z M 27.074219 17.167969 "/>
<path style=" stroke:none;fill-rule:evenodd;fill:rgb(74.117647%,80%,5.098039%);fill-opacity:1;" d="M 23.347656 17.488281 C 23.304688 17.3125 23.378906 17.152344 23.496094 17.109375 C 23.597656 17.09375 23.730469 17.226562 23.773438 17.414062 C 23.816406 17.589844 23.742188 17.75 23.640625 17.78125 C 23.511719 17.808594 23.378906 17.679688 23.347656 17.488281 Z M 23.347656 17.488281 "/>
<path style=" stroke:none;fill-rule:evenodd;fill:rgb(74.117647%,80%,5.098039%);fill-opacity:1;" d="M 25.394531 18.816406 C 25.1875 18.816406 25.027344 18.742188 25.027344 18.628906 C 25.015625 18.523438 25.1875 18.4375 25.394531 18.4375 C 25.597656 18.421875 25.757812 18.511719 25.757812 18.628906 C 25.757812 18.730469 25.597656 18.816406 25.394531 18.816406 Z M 25.394531 18.816406 "/>
<path style=" stroke:none;fill-rule:evenodd;fill:rgb(74.117647%,80%,5.098039%);fill-opacity:1;" d="M 23.320312 19.152344 C 23.117188 19.3125 22.910156 19.460938 22.707031 19.589844 C 22.3125 19.109375 22.621094 18.480469 23.175781 17.503906 C 23.320312 18.1875 23.421875 18.773438 23.320312 19.152344 Z M 23.320312 19.152344 "/>
<path style=" stroke:none;fill-rule:evenodd;fill:rgb(74.117647%,80%,5.098039%);fill-opacity:1;" d="M 25.074219 19.664062 C 24.285156 20.117188 23.4375 20.25 23.011719 19.808594 C 23.289062 19.621094 23.554688 19.429688 23.789062 19.210938 C 24.210938 19.242188 24.679688 19.414062 25.074219 19.664062 Z M 25.074219 19.664062 "/>
<path style=" stroke:none;fill-rule:evenodd;fill:rgb(74.117647%,80%,5.098039%);fill-opacity:1;" d="M 23.347656 20.6875 C 23.144531 20.65625 23 20.527344 23.027344 20.421875 C 23.042969 20.320312 23.234375 20.261719 23.421875 20.304688 C 23.625 20.351562 23.773438 20.46875 23.742188 20.582031 C 23.730469 20.6875 23.539062 20.730469 23.347656 20.6875 Z M 23.347656 20.6875 "/>
<path style=" stroke:none;fill-rule:evenodd;fill:rgb(74.117647%,80%,5.098039%);fill-opacity:1;" d="M 20.765625 20.816406 C 20.851562 20.746094 20.882812 20.6875 20.953125 20.582031 C 22.078125 20.101562 23 19.53125 23.742188 18.890625 L 23.570312 17.808594 C 23.597656 17.808594 23.613281 17.808594 23.640625 17.808594 L 23.917969 18.714844 C 24.445312 18.21875 24.867188 17.707031 25.21875 17.121094 L 24.898438 16.304688 C 24.925781 16.304688 24.925781 16.289062 24.957031 16.289062 L 25.320312 16.933594 C 25.992188 15.707031 26.3125 14.304688 26.3125 12.726562 C 26.3125 12.171875 26.253906 11.648438 26.167969 11.136719 L 24.984375 10.652344 C 25.027344 10.59375 25.027344 10.582031 25.015625 10.550781 L 26.125 10.960938 C 26.066406 10.667969 25.992188 10.40625 25.90625 10.140625 C 25.917969 10.128906 25.976562 10.113281 25.976562 10.113281 C 26.007812 10.027344 26.007812 9.9375 26.007812 9.851562 C 26.066406 9.9375 26.082031 10.011719 26.109375 10.097656 L 26.386719 9.804688 C 26.402344 9.851562 26.417969 9.863281 26.445312 9.878906 L 26.152344 10.246094 C 26.285156 10.699219 26.386719 11.148438 26.445312 11.617188 L 26.5625 11.542969 C 26.5625 11.558594 26.578125 11.574219 26.589844 11.589844 L 26.460938 11.777344 C 26.488281 12.085938 26.519531 12.390625 26.519531 12.726562 C 26.519531 13.210938 26.472656 13.675781 26.417969 14.144531 L 26.738281 13.953125 C 26.738281 13.984375 26.738281 14.011719 26.765625 14.042969 L 26.386719 14.347656 C 26.125 15.984375 25.480469 17.402344 24.429688 18.539062 L 25 18.570312 C 25 18.582031 24.984375 18.597656 24.984375 18.628906 C 24.984375 18.65625 25 18.671875 25 18.699219 L 24.269531 18.699219 C 23.730469 19.253906 23.085938 19.75 22.328125 20.175781 L 23.011719 20.378906 C 22.984375 20.4375 23 20.46875 23 20.480469 L 22.121094 20.277344 C 21.714844 20.496094 21.335938 20.671875 20.867188 20.847656 C 20.835938 20.832031 20.792969 20.832031 20.765625 20.816406 Z M 20.765625 20.816406 "/>
<path style=" stroke:none;fill-rule:evenodd;fill:rgb(74.117647%,80%,5.098039%);fill-opacity:1;" d="M 23.394531 21.09375 C 22.472656 21.476562 21.507812 21.402344 21.203125 20.757812 C 21.523438 20.640625 21.832031 20.511719 22.136719 20.335938 C 22.515625 20.511719 22.941406 20.917969 23.394531 21.09375 Z M 23.394531 21.09375 "/>
<path style=" stroke:none;fill-rule:evenodd;fill:rgb(74.117647%,80%,5.098039%);fill-opacity:1;" d="M 22.050781 19.984375 C 21.816406 20.117188 21.582031 20.234375 21.347656 20.351562 C 20.675781 19.839844 21.714844 19.285156 22.050781 18.570312 C 22.210938 19.152344 22.226562 19.648438 22.050781 19.984375 Z M 22.050781 19.984375 "/>
<path style=" stroke:none;fill-rule:evenodd;fill:rgb(74.117647%,80%,5.098039%);fill-opacity:1;" d="M 20.910156 18.992188 C 21.128906 19.808594 21.144531 20.46875 20.707031 20.816406 C 20.589844 20.789062 20.3125 20.832031 20.210938 20.933594 L 20.210938 20.730469 C 20.210938 20.480469 20.152344 20.277344 20.0625 20.085938 C 20.269531 19.765625 20.722656 19.414062 20.910156 18.992188 Z M 20.910156 18.992188 "/>
<path style=" stroke:none;fill-rule:evenodd;fill:rgb(74.117647%,80%,5.098039%);fill-opacity:1;" d="M 20.136719 21.695312 C 20.195312 21.476562 20.210938 21.242188 20.222656 21.007812 C 20.3125 20.933594 20.488281 20.875 20.765625 20.875 C 21.289062 21.007812 21.902344 21.636719 22.414062 21.8125 C 21.625 22.117188 20.648438 22.234375 20.136719 21.695312 Z M 20.136719 21.695312 "/>
<path style=" stroke:none;fill-rule:evenodd;fill:rgb(0%,53.333333%,21.568627%);fill-opacity:1;" d="M 12.820312 12.726562 C 12.820312 15.488281 15.070312 17.734375 17.84375 17.734375 C 20.605469 17.734375 22.851562 15.488281 22.851562 12.726562 C 22.851562 9.953125 20.605469 7.703125 17.84375 7.703125 C 15.070312 7.703125 12.820312 9.953125 12.820312 12.726562 Z M 11.898438 12.726562 C 11.898438 9.441406 14.558594 6.785156 17.84375 6.785156 C 21.113281 6.785156 23.789062 9.441406 23.789062 12.726562 C 23.789062 16.011719 21.113281 18.65625 17.84375 18.65625 C 14.558594 18.65625 11.898438 16.011719 11.898438 12.726562 Z M 11.898438 12.726562 "/>
<path style=" stroke:none;fill-rule:evenodd;fill:rgb(0%,53.333333%,21.568627%);fill-opacity:1;" d="M 16.867188 14.289062 C 17.128906 14.464844 17.433594 14.582031 17.769531 14.597656 L 17.769531 16.042969 C 17.550781 15.675781 17.171875 15.398438 16.589844 15.222656 C 16.355469 15.167969 16.148438 15.09375 15.976562 15.003906 Z M 17.769531 10.535156 L 17.769531 10.945312 C 16.835938 10.976562 16.078125 11.777344 16.078125 12.769531 C 16.078125 12.933594 16.105469 13.09375 16.148438 13.238281 L 15.15625 14.085938 C 15.054688 13.707031 15.082031 13.253906 15.257812 12.726562 C 15.550781 11.851562 15.40625 11.253906 14.820312 11.003906 L 15.609375 10.070312 C 16.339844 10.363281 17.070312 10.523438 17.769531 10.535156 Z M 17.769531 10.535156 "/>
<path style=" stroke:none;fill-rule:evenodd;fill:rgb(100%,100%,100%);fill-opacity:1;" d="M 16.878906 8.519531 C 17.171875 8.449219 17.464844 8.40625 17.769531 8.40625 L 17.769531 10.433594 C 17.625 10.433594 17.480469 10.433594 17.332031 10.417969 Z M 16.878906 8.519531 "/>
<path style=" stroke:none;fill-rule:evenodd;fill:rgb(100%,100%,100%);fill-opacity:1;" d="M 13.636719 11.703125 C 13.710938 11.425781 13.796875 11.164062 13.914062 10.917969 L 15.257812 11.558594 C 15.316406 11.71875 15.332031 11.910156 15.304688 12.097656 Z M 13.636719 11.703125 "/>
<path style=" stroke:none;fill-rule:evenodd;fill:rgb(100%,100%,100%);fill-opacity:1;" d="M 17.769531 17.035156 C 17.480469 17.035156 17.203125 17.007812 16.925781 16.933594 L 17.246094 15.617188 C 17.464844 15.765625 17.625 15.96875 17.769531 16.230469 Z M 17.769531 17.035156 "/>
<path style=" stroke:none;fill-rule:evenodd;fill:rgb(100%,100%,100%);fill-opacity:1;" d="M 18.777344 16.933594 C 18.5 17.007812 18.210938 17.035156 17.902344 17.035156 L 17.902344 16.246094 C 18.035156 15.96875 18.210938 15.75 18.457031 15.605469 Z M 18.777344 16.933594 "/>
<path style=" stroke:none;fill-rule:evenodd;fill:rgb(100%,90.980392%,0%);fill-opacity:1;" d="M 17.84375 11.691406 L 17.976562 11.675781 L 17.84375 11.792969 Z M 17.84375 11.691406 "/>
<path style=" stroke:none;fill-rule:evenodd;fill:rgb(100%,90.980392%,0%);fill-opacity:1;" d="M 19.507812 12.757812 C 19.507812 13.371094 19.203125 13.894531 18.734375 14.203125 C 19.101562 13.792969 19.304688 13.046875 19.214844 12.421875 L 19.4375 12.246094 C 19.480469 12.421875 19.507812 12.582031 19.507812 12.757812 Z M 19.507812 12.757812 "/>
<path style=" stroke:none;fill-rule:evenodd;fill:rgb(100%,90.980392%,0%);fill-opacity:1;" d="M 17.464844 13.824219 L 17.816406 13.53125 L 17.816406 13.96875 C 17.710938 13.96875 17.625 13.984375 17.507812 13.996094 C 17.492188 13.9375 17.480469 13.882812 17.464844 13.824219 Z M 17.464844 13.824219 "/>
<path style=" stroke:none;fill-rule:evenodd;fill:rgb(100%,90.980392%,0%);fill-opacity:1;" d="M 17.039062 14.160156 L 17.171875 14.054688 L 17.1875 14.085938 C 17.144531 14.113281 17.085938 14.128906 17.039062 14.160156 Z M 17.039062 14.160156 "/>
<path style=" stroke:none;fill-rule:evenodd;fill:rgb(100%,90.980392%,0%);fill-opacity:1;" d="M 16.851562 12.640625 L 16.542969 12.902344 C 16.53125 12.480469 16.589844 12.011719 16.734375 11.484375 C 16.777344 11.457031 16.835938 11.414062 16.878906 11.382812 C 16.9375 11.425781 16.996094 11.457031 17.054688 11.5 C 16.9375 11.820312 16.867188 12.203125 16.851562 12.640625 Z M 16.851562 12.640625 "/>
<path style=" stroke:none;fill-rule:evenodd;fill:rgb(100%,90.980392%,0%);fill-opacity:1;" d="M 18.53125 11.207031 L 18.0625 11.601562 C 17.683594 11.632812 17.316406 11.542969 16.953125 11.324219 C 17.214844 11.164062 17.507812 11.0625 17.84375 11.0625 C 18.09375 11.0625 18.324219 11.121094 18.53125 11.207031 Z M 18.53125 11.207031 "/>
<path style=" stroke:none;fill-rule:evenodd;fill:rgb(100%,90.980392%,0%);fill-opacity:1;" d="M 17.84375 14.464844 C 17.550781 14.464844 17.273438 14.390625 17.039062 14.261719 C 17.625 13.984375 18.0625 13.984375 18.617188 14.273438 C 18.382812 14.390625 18.121094 14.464844 17.84375 14.464844 Z M 17.84375 14.464844 "/>
<path style=" stroke:none;fill-rule:evenodd;fill:rgb(100%,100%,100%);fill-opacity:1;" d="M 16.019531 8.8125 C 16.253906 8.695312 16.484375 8.609375 16.734375 8.550781 L 17.1875 10.40625 C 17.039062 10.390625 16.894531 10.363281 16.75 10.316406 Z M 16.019531 8.8125 "/>
<path style=" stroke:none;fill-rule:evenodd;fill:rgb(100%,100%,100%);fill-opacity:1;" d="M 15.15625 9.339844 C 15.375 9.148438 15.625 8.988281 15.886719 8.871094 L 16.574219 10.289062 C 16.28125 10.214844 15.988281 10.113281 15.695312 9.996094 Z M 15.15625 9.339844 "/>
<path style=" stroke:none;fill-rule:evenodd;fill:rgb(100%,100%,100%);fill-opacity:1;" d="M 14.484375 9.996094 C 14.660156 9.792969 14.851562 9.601562 15.039062 9.425781 L 15.523438 10.027344 L 15.113281 10.507812 Z M 14.484375 9.996094 "/>
<path style=" stroke:none;fill-rule:evenodd;fill:rgb(100%,100%,100%);fill-opacity:1;" d="M 13.972656 10.785156 C 14.089844 10.550781 14.238281 10.316406 14.410156 10.097656 L 15.039062 10.609375 L 14.660156 11.046875 C 14.863281 11.121094 15.011719 11.222656 15.113281 11.355469 Z M 13.972656 10.785156 "/>
<path style=" stroke:none;fill-rule:evenodd;fill:rgb(100%,100%,100%);fill-opacity:1;" d="M 15.289062 12.246094 C 15.257812 12.375 15.230469 12.523438 15.1875 12.667969 L 13.519531 12.683594 C 13.535156 12.390625 13.566406 12.113281 13.609375 11.835938 Z M 15.289062 12.246094 "/>
<path style=" stroke:none;fill-rule:evenodd;fill:rgb(100%,100%,100%);fill-opacity:1;" d="M 15.140625 12.800781 C 15.082031 12.976562 15.054688 13.121094 15.039062 13.28125 L 13.609375 13.589844 C 13.566406 13.339844 13.535156 13.0625 13.519531 12.800781 Z M 15.140625 12.800781 "/>
<path style=" stroke:none;fill-rule:evenodd;fill:rgb(100%,100%,100%);fill-opacity:1;" d="M 15.011719 13.441406 C 14.996094 13.632812 15.011719 13.792969 15.039062 13.953125 L 13.902344 14.496094 C 13.785156 14.246094 13.710938 13.996094 13.636719 13.734375 Z M 15.011719 13.441406 "/>
<path style=" stroke:none;fill-rule:evenodd;fill:rgb(100%,100%,100%);fill-opacity:1;" d="M 15.082031 14.101562 C 15.128906 14.289062 15.230469 14.449219 15.332031 14.609375 L 14.410156 15.339844 C 14.238281 15.121094 14.078125 14.875 13.960938 14.625 Z M 15.082031 14.101562 "/>
<path style=" stroke:none;fill-rule:evenodd;fill:rgb(100%,100%,100%);fill-opacity:1;" d="M 15.417969 14.714844 C 15.550781 14.84375 15.710938 14.960938 15.902344 15.0625 L 15.097656 16.058594 C 14.878906 15.867188 14.675781 15.664062 14.484375 15.445312 Z M 15.417969 14.714844 "/>
<path style=" stroke:none;fill-rule:evenodd;fill:rgb(100%,100%,100%);fill-opacity:1;" d="M 16.019531 15.121094 C 16.164062 15.195312 16.324219 15.253906 16.515625 15.296875 L 15.886719 16.566406 C 15.640625 16.449219 15.40625 16.304688 15.1875 16.128906 Z M 16.019531 15.121094 "/>
<path style=" stroke:none;fill-rule:evenodd;fill:rgb(100%,100%,100%);fill-opacity:1;" d="M 16.632812 15.339844 C 16.808594 15.398438 16.980469 15.457031 17.128906 15.546875 L 16.808594 16.917969 C 16.53125 16.84375 16.253906 16.742188 16.003906 16.625 Z M 16.632812 15.339844 "/>
<path style=" stroke:none;fill-rule:evenodd;fill:rgb(100%,100%,100%);fill-opacity:1;" d="M 19.625 16.640625 C 19.390625 16.757812 19.144531 16.84375 18.894531 16.902344 L 18.574219 15.53125 C 18.691406 15.457031 18.835938 15.398438 19.011719 15.355469 Z M 19.625 16.640625 "/>
<path style=" stroke:none;fill-rule:evenodd;fill:rgb(100%,100%,100%);fill-opacity:1;" d="M 20.488281 16.128906 C 20.253906 16.304688 20.003906 16.464844 19.742188 16.597656 L 19.128906 15.3125 C 19.320312 15.269531 19.507812 15.195312 19.667969 15.121094 Z M 20.488281 16.128906 "/>
<path style=" stroke:none;fill-rule:evenodd;fill:rgb(100%,100%,100%);fill-opacity:1;" d="M 21.160156 15.488281 C 20.984375 15.691406 20.792969 15.882812 20.574219 16.042969 L 19.785156 15.050781 C 19.945312 14.976562 20.09375 14.859375 20.210938 14.742188 Z M 21.160156 15.488281 "/>
<path style=" stroke:none;fill-rule:evenodd;fill:rgb(100%,100%,100%);fill-opacity:1;" d="M 21.683594 14.683594 C 21.554688 14.933594 21.40625 15.167969 21.230469 15.386719 L 20.3125 14.640625 C 20.429688 14.496094 20.515625 14.332031 20.574219 14.160156 Z M 21.683594 14.683594 "/>
<path style=" stroke:none;fill-rule:evenodd;fill:rgb(100%,100%,100%);fill-opacity:1;" d="M 22.019531 13.808594 C 21.949219 14.070312 21.859375 14.332031 21.742188 14.566406 L 20.617188 14.027344 C 20.648438 13.867188 20.675781 13.675781 20.664062 13.5 Z M 22.019531 13.808594 "/>
<path style=" stroke:none;fill-rule:evenodd;fill:rgb(100%,100%,100%);fill-opacity:1;" d="M 20.648438 13.355469 C 20.632812 13.179688 20.589844 13.003906 20.53125 12.800781 L 22.152344 12.800781 C 22.152344 13.105469 22.109375 13.398438 22.050781 13.675781 Z M 20.648438 13.355469 "/>
<path style=" stroke:none;fill-rule:evenodd;fill:rgb(100%,100%,100%);fill-opacity:1;" d="M 20.5 12.667969 C 20.457031 12.539062 20.414062 12.421875 20.386719 12.289062 L 22.078125 11.925781 C 22.121094 12.171875 22.152344 12.421875 22.152344 12.667969 Z M 20.5 12.667969 "/>
<path style=" stroke:none;fill-rule:evenodd;fill:rgb(100%,100%,100%);fill-opacity:1;" d="M 20.371094 12.128906 C 20.339844 11.953125 20.355469 11.761719 20.386719 11.617188 L 21.785156 10.960938 C 21.902344 11.207031 21.976562 11.484375 22.050781 11.761719 Z M 20.371094 12.128906 "/>
<path style=" stroke:none;fill-rule:evenodd;fill:rgb(100%,100%,100%);fill-opacity:1;" d="M 20.648438 10.625 L 21.277344 10.113281 C 21.449219 10.347656 21.613281 10.59375 21.726562 10.859375 L 20.457031 11.441406 C 20.574219 11.265625 20.734375 11.136719 21 11.035156 Z M 20.648438 10.625 "/>
<path style=" stroke:none;fill-rule:evenodd;fill:rgb(100%,100%,100%);fill-opacity:1;" d="M 20.152344 10.027344 L 20.632812 9.425781 C 20.835938 9.601562 21.011719 9.792969 21.1875 9.996094 L 20.546875 10.507812 Z M 20.152344 10.027344 "/>
<path style=" stroke:none;fill-rule:evenodd;fill:rgb(100%,100%,100%);fill-opacity:1;" d="M 19.128906 10.289062 L 19.816406 8.886719 C 20.0625 9.003906 20.296875 9.164062 20.515625 9.339844 L 19.992188 10.011719 C 19.683594 10.113281 19.40625 10.214844 19.128906 10.289062 Z M 19.128906 10.289062 "/>
<path style=" stroke:none;fill-rule:evenodd;fill:rgb(100%,100%,100%);fill-opacity:1;" d="M 18.953125 10.316406 C 18.777344 10.363281 18.617188 10.390625 18.441406 10.40625 L 18.878906 8.519531 C 19.15625 8.59375 19.4375 8.695312 19.683594 8.8125 Z M 18.953125 10.316406 "/>
<path style=" stroke:none;fill-rule:evenodd;fill:rgb(100%,100%,100%);fill-opacity:1;" d="M 17.875 8.40625 C 18.164062 8.40625 18.457031 8.449219 18.734375 8.492188 L 18.296875 10.433594 C 18.152344 10.433594 18.019531 10.433594 17.886719 10.433594 Z M 17.875 8.40625 "/>
<path style=" stroke:none;fill-rule:evenodd;fill:rgb(100%,100%,100%);fill-opacity:1;" d="M 18.617188 11.121094 C 18.398438 11.003906 18.136719 10.945312 17.886719 10.945312 L 17.886719 10.535156 C 18.472656 10.535156 19.070312 10.417969 19.683594 10.214844 Z M 17.902344 16.042969 L 17.886719 14.597656 C 18.835938 14.566406 19.609375 13.765625 19.609375 12.769531 C 19.609375 12.566406 19.582031 12.363281 19.523438 12.171875 L 20.328125 11.542969 C 20.222656 11.835938 20.253906 12.246094 20.429688 12.726562 C 20.851562 14.054688 20.386719 14.875 19.085938 15.222656 C 18.515625 15.398438 18.105469 15.675781 17.902344 16.042969 Z M 17.902344 16.042969 "/>
<path style=" stroke:none;fill-rule:evenodd;fill:rgb(100%,90.980392%,0%);fill-opacity:1;" d="M 19.609375 4.636719 L 20.867188 2.988281 L 22.503906 3.761719 L 21.785156 5.441406 L 21.714844 5.382812 L 22.3125 3.90625 C 21.949219 3.773438 21.523438 4.167969 21.054688 5.074219 C 20.589844 4.886719 20.109375 4.738281 19.609375 4.636719 Z M 19.609375 4.636719 "/>
<path style=" stroke:none;fill-rule:evenodd;fill:rgb(100%,90.980392%,0%);fill-opacity:1;" d="M 14.425781 5.164062 C 13.929688 4.332031 13.519531 3.980469 13.183594 4.125 L 13.8125 5.484375 L 13.710938 5.542969 C 13.15625 4.402344 12.980469 4.007812 12.90625 3.890625 L 14.457031 3.117188 L 15.785156 4.695312 C 15.316406 4.8125 14.851562 4.972656 14.425781 5.164062 Z M 14.425781 5.164062 "/>
<path style=" stroke:none;fill-rule:evenodd;fill:rgb(100%,90.980392%,0%);fill-opacity:1;" d="M 14.222656 2.023438 L 13.785156 2.226562 L 13.960938 2.605469 L 13.652344 2.753906 L 13.460938 2.359375 L 13.011719 2.578125 L 13.199219 3 L 12.921875 3.117188 L 12.734375 2.738281 L 12.265625 2.941406 L 12.746094 3.878906 L 14.675781 2.914062 Z M 14.222656 2.023438 "/>
<path style=" stroke:none;fill-rule:evenodd;fill:rgb(100%,90.980392%,0%);fill-opacity:1;" d="M 17.726562 2.710938 C 17.332031 2.738281 17.113281 3.335938 17.113281 4.476562 C 16.894531 4.492188 16.703125 4.519531 16.484375 4.550781 L 16.820312 2.578125 L 18.617188 2.578125 L 18.953125 4.519531 C 18.75 4.492188 18.542969 4.476562 18.324219 4.460938 C 18.355469 3.324219 18.164062 2.664062 17.726562 2.710938 Z M 17.726562 2.710938 "/>
<path style=" stroke:none;fill-rule:evenodd;fill:rgb(100%,90.980392%,0%);fill-opacity:1;" d="M 22.675781 3.761719 L 23.175781 2.8125 L 22.691406 2.578125 L 22.488281 2.988281 L 22.238281 2.855469 L 22.414062 2.503906 L 21.917969 2.285156 L 21.742188 2.679688 L 21.449219 2.535156 L 21.625 2.15625 L 21.1875 1.933594 L 20.75 2.855469 Z M 22.675781 3.761719 "/>
<path style=" stroke:none;fill-rule:evenodd;fill:rgb(100%,90.980392%,0%);fill-opacity:1;" d="M 18.984375 1.453125 L 18.398438 1.4375 L 18.398438 1.847656 L 18.019531 1.875 L 18.035156 1.4375 L 17.40625 1.4375 L 17.421875 1.890625 L 16.996094 1.890625 L 16.996094 1.453125 L 16.398438 1.46875 L 16.441406 2.503906 L 18.984375 2.503906 Z M 18.984375 1.453125 "/>
<path style=" stroke:none;fill-rule:evenodd;fill:rgb(100%,90.980392%,0%);fill-opacity:1;" d="M 18.835938 12.726562 L 19.144531 12.480469 C 19.214844 13.0625 18.96875 13.75 18.660156 14.1875 C 18.617188 14.160156 18.558594 14.128906 18.515625 14.113281 C 18.765625 13.75 18.878906 13.164062 18.835938 12.726562 Z M 18.835938 12.726562 "/>
<path style=" stroke:none;fill-rule:evenodd;fill:rgb(100%,90.980392%,0%);fill-opacity:1;" d="M 18.355469 13.105469 L 18.765625 12.785156 C 18.792969 13.195312 18.707031 13.648438 18.472656 14.085938 C 18.382812 14.054688 18.3125 14.042969 18.222656 14.011719 C 18.3125 13.675781 18.355469 13.382812 18.355469 13.105469 Z M 18.355469 13.105469 "/>
<path style=" stroke:none;fill-rule:evenodd;fill:rgb(100%,90.980392%,0%);fill-opacity:1;" d="M 17.859375 13.5 L 18.296875 13.152344 C 18.28125 13.5 18.222656 13.792969 18.164062 13.996094 C 18.0625 13.984375 17.960938 13.96875 17.859375 13.96875 Z M 17.859375 13.5 "/>
<path style=" stroke:none;fill-rule:evenodd;fill:rgb(100%,90.980392%,0%);fill-opacity:1;" d="M 17.480469 11.648438 C 17.582031 11.660156 17.683594 11.675781 17.785156 11.691406 L 17.800781 11.835938 L 17.390625 12.1875 C 17.40625 11.996094 17.433594 11.820312 17.480469 11.648438 Z M 17.480469 11.648438 "/>
<path style=" stroke:none;fill-rule:evenodd;fill:rgb(100%,90.980392%,0%);fill-opacity:1;" d="M 17.203125 14.027344 L 17.421875 13.851562 C 17.433594 13.894531 17.433594 13.953125 17.480469 14.011719 C 17.390625 14.027344 17.304688 14.054688 17.214844 14.085938 Z M 17.203125 14.027344 "/>
<path style=" stroke:none;fill-rule:evenodd;fill:rgb(100%,90.980392%,0%);fill-opacity:1;" d="M 17.113281 11.515625 C 17.203125 11.558594 17.289062 11.589844 17.375 11.617188 C 17.347656 11.835938 17.332031 12.054688 17.304688 12.246094 L 16.925781 12.582031 C 16.9375 12.171875 16.996094 11.835938 17.113281 11.515625 Z M 17.113281 11.515625 "/>
<path style=" stroke:none;fill-rule:evenodd;fill:rgb(100%,90.980392%,0%);fill-opacity:1;" d="M 16.179688 12.757812 C 16.179688 12.273438 16.367188 11.851562 16.691406 11.542969 C 16.515625 11.984375 16.457031 12.464844 16.484375 12.960938 L 16.222656 13.164062 C 16.195312 13.046875 16.179688 12.902344 16.179688 12.757812 Z M 16.179688 12.757812 "/>
<path style=" stroke:none;fill-rule:evenodd;fill:rgb(100%,100%,100%);fill-opacity:1;" d="M 20.835938 10.988281 L 20.0625 10.070312 L 19.976562 10.097656 L 15.1875 14.160156 C 15.304688 14.496094 15.550781 14.757812 15.886719 14.945312 L 20.398438 11.355469 C 20.5 11.207031 20.648438 11.078125 20.835938 10.988281 Z M 20.835938 10.988281 "/>
<path style=" stroke:none;fill-rule:evenodd;fill:rgb(0%,37.254902%,15.294118%);fill-opacity:1;" d="M 9.652344 11.324219 L 9.871094 11.355469 C 9.753906 11.441406 9.679688 11.542969 9.679688 11.648438 C 9.664062 11.703125 9.679688 11.761719 9.695312 11.792969 C 9.722656 11.835938 9.769531 11.851562 9.8125 11.867188 C 9.871094 11.867188 9.914062 11.835938 9.957031 11.792969 C 9.988281 11.777344 10.015625 11.734375 10.058594 11.675781 C 10.132812 11.574219 10.191406 11.5 10.234375 11.472656 C 10.308594 11.414062 10.382812 11.382812 10.46875 11.398438 C 10.570312 11.398438 10.644531 11.425781 10.6875 11.5 C 10.746094 11.574219 10.761719 11.660156 10.761719 11.761719 C 10.761719 11.867188 10.730469 11.953125 10.660156 12.039062 L 10.46875 12.027344 C 10.558594 11.9375 10.601562 11.835938 10.613281 11.75 C 10.613281 11.703125 10.601562 11.660156 10.570312 11.617188 C 10.558594 11.574219 10.527344 11.558594 10.46875 11.558594 C 10.410156 11.542969 10.335938 11.617188 10.234375 11.761719 C 10.234375 11.761719 10.222656 11.761719 10.222656 11.777344 C 10.148438 11.878906 10.089844 11.9375 10.046875 11.984375 C 9.988281 12.027344 9.898438 12.039062 9.796875 12.027344 C 9.695312 12.027344 9.621094 11.984375 9.578125 11.910156 C 9.519531 11.835938 9.503906 11.761719 9.503906 11.648438 C 9.503906 11.53125 9.5625 11.425781 9.652344 11.324219 Z M 9.652344 11.324219 "/>
<path style=" stroke:none;fill-rule:evenodd;fill:rgb(0%,37.254902%,15.294118%);fill-opacity:1;" d="M 10.703125 12.960938 L 10.558594 12.960938 L 10.542969 12.390625 L 10.175781 12.40625 L 10.175781 12.945312 L 10.015625 12.945312 L 10.015625 12.40625 L 9.636719 12.421875 L 9.652344 12.988281 L 9.492188 12.988281 L 9.476562 12.246094 L 10.6875 12.230469 Z M 10.703125 12.960938 "/>
<path style=" stroke:none;fill-rule:evenodd;fill:rgb(0%,37.254902%,15.294118%);fill-opacity:1;" d="M 10.613281 14.144531 L 10.585938 13.691406 L 9.535156 13.765625 L 9.519531 13.601562 L 10.570312 13.53125 L 10.542969 13.078125 L 10.703125 13.0625 L 10.789062 14.128906 Z M 10.613281 14.144531 "/>
<path style=" stroke:none;fill-rule:evenodd;fill:rgb(0%,37.254902%,15.294118%);fill-opacity:1;" d="M 10.804688 14.1875 L 10.835938 14.347656 L 10.148438 14.480469 C 10.015625 14.496094 9.945312 14.523438 9.914062 14.566406 C 9.839844 14.65625 9.8125 14.757812 9.839844 14.886719 C 9.855469 14.976562 9.886719 15.0625 9.945312 15.121094 C 10.015625 15.179688 10.089844 15.195312 10.191406 15.179688 L 10.949219 15.050781 L 10.980469 15.222656 L 10.207031 15.355469 C 10.074219 15.386719 9.945312 15.339844 9.855469 15.253906 C 9.769531 15.179688 9.695312 15.0625 9.679688 14.917969 C 9.636719 14.726562 9.679688 14.566406 9.78125 14.449219 C 9.828125 14.40625 9.871094 14.378906 9.929688 14.347656 C 9.972656 14.332031 10.03125 14.320312 10.105469 14.304688 Z M 10.980469 14.566406 L 11.316406 14.683594 L 11.34375 14.84375 L 11.007812 14.65625 Z M 10.980469 14.566406 "/>
<path style=" stroke:none;fill-rule:evenodd;fill:rgb(0%,37.254902%,15.294118%);fill-opacity:1;" d="M 10.484375 15.734375 L 10.132812 15.851562 L 10.207031 16.085938 C 10.265625 16.230469 10.351562 16.289062 10.46875 16.246094 C 10.585938 16.203125 10.613281 16.101562 10.542969 15.925781 Z M 9.914062 15.75 L 11.054688 15.339844 L 11.183594 15.675781 C 11.230469 15.78125 11.242188 15.867188 11.199219 15.953125 C 11.183594 16.042969 11.125 16.101562 11.023438 16.144531 C 10.90625 16.1875 10.804688 16.160156 10.71875 16.058594 C 10.730469 16.144531 10.71875 16.21875 10.6875 16.277344 C 10.644531 16.347656 10.601562 16.40625 10.511719 16.421875 C 10.410156 16.464844 10.324219 16.449219 10.234375 16.394531 C 10.164062 16.335938 10.105469 16.261719 10.058594 16.160156 Z M 10.628906 15.675781 L 10.671875 15.78125 C 10.730469 15.953125 10.820312 16.011719 10.949219 15.96875 C 11.054688 15.925781 11.082031 15.851562 11.023438 15.707031 L 10.980469 15.558594 Z M 10.628906 15.675781 "/>
<path style=" stroke:none;fill-rule:evenodd;fill:rgb(0%,37.254902%,15.294118%);fill-opacity:1;" d="M 10.863281 16.742188 L 11.023438 17.078125 L 11.332031 16.699219 Z M 10.207031 16.613281 L 11.535156 16.539062 L 11.59375 16.640625 L 10.761719 17.679688 L 10.671875 17.515625 L 10.921875 17.226562 L 10.6875 16.742188 L 10.292969 16.785156 Z M 10.207031 16.613281 "/>
<path style=" stroke:none;fill-rule:evenodd;fill:rgb(0%,37.254902%,15.294118%);fill-opacity:1;" d="M 10.878906 17.808594 L 11.886719 17.136719 L 11.988281 17.269531 L 11.097656 17.867188 L 11.417969 18.347656 L 11.300781 18.4375 Z M 10.878906 17.808594 "/>
<path style=" stroke:none;fill-rule:evenodd;fill:rgb(0%,37.254902%,15.294118%);fill-opacity:1;" d="M 11.785156 18.1875 L 12.089844 18.539062 L 11.972656 18.628906 L 11.679688 18.292969 Z M 11.785156 18.1875 "/>
<path style=" stroke:none;fill-rule:evenodd;fill:rgb(0%,37.254902%,15.294118%);fill-opacity:1;" d="M 11.871094 18.992188 C 11.929688 18.992188 12.015625 18.964844 12.148438 18.933594 C 12.265625 18.917969 12.367188 18.890625 12.425781 18.890625 C 12.617188 18.832031 12.746094 18.773438 12.804688 18.699219 C 12.863281 18.640625 12.878906 18.582031 12.878906 18.539062 C 12.863281 18.480469 12.847656 18.4375 12.792969 18.394531 C 12.734375 18.335938 12.628906 18.304688 12.5 18.335938 L 12.628906 18.175781 C 12.746094 18.1875 12.847656 18.21875 12.921875 18.277344 C 13.011719 18.347656 13.054688 18.4375 13.054688 18.523438 C 13.054688 18.628906 13.023438 18.714844 12.953125 18.800781 C 12.878906 18.890625 12.761719 18.949219 12.617188 18.992188 C 12.527344 19.019531 12.382812 19.050781 12.222656 19.066406 L 12.570312 19.371094 L 12.457031 19.503906 Z M 11.871094 18.992188 "/>
<path style=" stroke:none;fill-rule:evenodd;fill:rgb(0%,37.254902%,15.294118%);fill-opacity:1;" d="M 13.082031 19.210938 C 13.011719 19.3125 12.980469 19.402344 12.953125 19.472656 C 12.90625 19.589844 12.9375 19.679688 13.011719 19.722656 C 13.082031 19.765625 13.15625 19.765625 13.273438 19.679688 C 13.332031 19.621094 13.390625 19.5625 13.449219 19.472656 C 13.519531 19.355469 13.566406 19.285156 13.578125 19.210938 C 13.625 19.078125 13.59375 18.992188 13.535156 18.964844 C 13.449219 18.90625 13.375 18.917969 13.273438 18.992188 C 13.199219 19.050781 13.140625 19.125 13.082031 19.210938 Z M 12.9375 19.109375 C 13.023438 18.976562 13.128906 18.890625 13.230469 18.816406 C 13.375 18.742188 13.492188 18.742188 13.625 18.816406 C 13.742188 18.890625 13.785156 19.019531 13.753906 19.183594 C 13.742188 19.300781 13.683594 19.429688 13.59375 19.5625 C 13.507812 19.691406 13.417969 19.796875 13.300781 19.855469 C 13.15625 19.941406 13.039062 19.941406 12.90625 19.855469 C 12.792969 19.78125 12.746094 19.664062 12.777344 19.503906 C 12.792969 19.371094 12.847656 19.253906 12.9375 19.109375 Z M 12.9375 19.109375 "/>
<path style=" stroke:none;fill-rule:evenodd;fill:rgb(0%,37.254902%,15.294118%);fill-opacity:1;" d="M 13.667969 19.722656 L 14.078125 19.925781 L 14.003906 20.058594 L 13.59375 19.839844 Z M 13.667969 19.722656 "/>
<path style=" stroke:none;fill-rule:evenodd;fill:rgb(0%,37.254902%,15.294118%);fill-opacity:1;" d="M 14.746094 19.402344 L 14.910156 19.472656 L 14.46875 20.613281 L 14.308594 20.539062 Z M 14.746094 19.402344 "/>
<path style=" stroke:none;fill-rule:evenodd;fill:rgb(0%,37.254902%,15.294118%);fill-opacity:1;" d="M 15.535156 19.664062 L 15.710938 19.707031 L 15.375 20.890625 L 15.230469 20.847656 Z M 15.535156 19.664062 "/>
<path style=" stroke:none;fill-rule:evenodd;fill:rgb(0%,37.254902%,15.294118%);fill-opacity:1;" d="M 15.945312 20.527344 L 16.398438 20.597656 L 16.367188 20.746094 L 15.917969 20.65625 Z M 15.945312 20.527344 "/>
<path style=" stroke:none;fill-rule:evenodd;fill:rgb(0%,37.254902%,15.294118%);fill-opacity:1;" d="M 17.113281 20.410156 C 17.128906 20.394531 17.128906 20.363281 17.128906 20.335938 C 17.144531 20.261719 17.128906 20.203125 17.097656 20.160156 C 17.070312 20.101562 17.011719 20.074219 16.9375 20.058594 C 16.878906 20.058594 16.835938 20.074219 16.792969 20.101562 C 16.75 20.144531 16.734375 20.191406 16.734375 20.25 C 16.71875 20.304688 16.734375 20.363281 16.777344 20.394531 C 16.808594 20.4375 16.851562 20.46875 16.910156 20.46875 C 16.980469 20.480469 17.054688 20.46875 17.113281 20.410156 Z M 17.070312 20.597656 C 16.996094 20.628906 16.925781 20.640625 16.867188 20.628906 C 16.761719 20.628906 16.675781 20.582031 16.632812 20.511719 C 16.558594 20.4375 16.542969 20.351562 16.558594 20.25 C 16.558594 20.144531 16.601562 20.042969 16.675781 19.984375 C 16.761719 19.914062 16.851562 19.898438 16.96875 19.914062 C 17.085938 19.914062 17.1875 19.96875 17.230469 20.058594 C 17.289062 20.144531 17.316406 20.25 17.304688 20.363281 C 17.273438 20.6875 17.085938 20.949219 16.734375 21.152344 L 16.660156 21.023438 C 16.867188 20.90625 17.011719 20.757812 17.070312 20.597656 Z M 17.070312 20.597656 "/>
<path style=" stroke:none;fill-rule:evenodd;fill:rgb(0%,37.254902%,15.294118%);fill-opacity:1;" d="M 17.742188 19.96875 L 17.917969 19.96875 L 17.917969 21.183594 L 17.742188 21.183594 Z M 17.742188 19.96875 "/>
<path style=" stroke:none;fill-rule:evenodd;fill:rgb(0%,37.254902%,15.294118%);fill-opacity:1;" d="M 18.488281 20.570312 C 18.5 20.6875 18.515625 20.773438 18.542969 20.847656 C 18.589844 20.964844 18.660156 21.023438 18.75 21.007812 C 18.835938 20.992188 18.894531 20.933594 18.925781 20.816406 C 18.9375 20.730469 18.953125 20.640625 18.9375 20.527344 C 18.925781 20.410156 18.910156 20.320312 18.878906 20.25 C 18.820312 20.132812 18.765625 20.074219 18.660156 20.085938 C 18.589844 20.085938 18.515625 20.160156 18.5 20.277344 C 18.472656 20.363281 18.472656 20.453125 18.488281 20.570312 Z M 18.3125 20.582031 C 18.296875 20.421875 18.3125 20.277344 18.355469 20.175781 C 18.414062 20.015625 18.515625 19.925781 18.660156 19.914062 C 18.808594 19.914062 18.910156 19.96875 18.984375 20.101562 C 19.054688 20.21875 19.101562 20.351562 19.101562 20.511719 C 19.128906 20.671875 19.101562 20.804688 19.054688 20.917969 C 19.011719 21.082031 18.910156 21.167969 18.765625 21.167969 C 18.617188 21.183594 18.515625 21.125 18.429688 20.992188 C 18.355469 20.875 18.324219 20.746094 18.3125 20.582031 Z M 18.3125 20.582031 "/>
<path style=" stroke:none;fill-rule:evenodd;fill:rgb(0%,37.254902%,15.294118%);fill-opacity:1;" d="M 16.441406 13.414062 L 16.574219 13.3125 L 16.953125 13.5 L 16.851562 13.09375 L 16.980469 12.976562 L 17.15625 13.707031 L 17.097656 13.75 Z M 16.441406 13.414062 "/>
<path style=" stroke:none;fill-rule:evenodd;fill:rgb(0%,37.254902%,15.294118%);fill-opacity:1;" d="M 17.375 13.429688 C 17.363281 13.398438 17.363281 13.382812 17.363281 13.355469 C 17.363281 13.324219 17.375 13.3125 17.390625 13.296875 C 17.40625 13.28125 17.433594 13.28125 17.464844 13.28125 C 17.480469 13.28125 17.507812 13.28125 17.507812 13.3125 C 17.539062 13.324219 17.539062 13.355469 17.539062 13.371094 C 17.539062 13.382812 17.523438 13.414062 17.507812 13.429688 C 17.480469 13.441406 17.464844 13.457031 17.433594 13.457031 C 17.421875 13.441406 17.40625 13.429688 17.375 13.429688 Z M 17.375 13.429688 "/>
<path style=" stroke:none;fill-rule:evenodd;fill:rgb(0%,37.254902%,15.294118%);fill-opacity:1;" d="M 17.609375 12.976562 L 17.785156 13.195312 L 17.652344 13.296875 L 17.230469 12.769531 L 17.566406 12.492188 L 17.640625 12.597656 L 17.433594 12.757812 L 17.523438 12.875 L 17.726562 12.726562 L 17.816406 12.816406 Z M 17.609375 12.976562 "/>
<path style=" stroke:none;fill-rule:evenodd;fill:rgb(0%,37.254902%,15.294118%);fill-opacity:1;" d="M 18.003906 12.902344 C 17.988281 12.886719 17.988281 12.875 17.988281 12.84375 C 17.988281 12.828125 18.003906 12.800781 18.019531 12.785156 C 18.035156 12.769531 18.0625 12.757812 18.09375 12.757812 C 18.105469 12.769531 18.136719 12.785156 18.136719 12.800781 C 18.164062 12.816406 18.164062 12.828125 18.164062 12.875 C 18.164062 12.886719 18.152344 12.902344 18.136719 12.917969 C 18.105469 12.945312 18.09375 12.945312 18.0625 12.945312 C 18.046875 12.945312 18.035156 12.933594 18.003906 12.902344 Z M 18.003906 12.902344 "/>
<path style=" stroke:none;fill-rule:evenodd;fill:rgb(0%,37.254902%,15.294118%);fill-opacity:1;" d="M 18.707031 12.375 C 18.660156 12.464844 18.617188 12.539062 18.542969 12.582031 C 18.472656 12.652344 18.371094 12.683594 18.28125 12.683594 C 18.179688 12.667969 18.105469 12.625 18.035156 12.539062 C 17.976562 12.464844 17.945312 12.375 17.960938 12.273438 C 17.988281 12.1875 18.035156 12.097656 18.121094 12.039062 C 18.179688 11.984375 18.253906 11.953125 18.339844 11.925781 L 18.441406 12.054688 C 18.355469 12.054688 18.28125 12.097656 18.210938 12.128906 C 18.164062 12.171875 18.136719 12.230469 18.121094 12.273438 C 18.121094 12.332031 18.136719 12.390625 18.179688 12.433594 C 18.210938 12.492188 18.265625 12.507812 18.324219 12.523438 C 18.371094 12.523438 18.414062 12.507812 18.472656 12.464844 C 18.53125 12.421875 18.574219 12.347656 18.601562 12.246094 Z M 18.707031 12.375 "/>
<path style=" stroke:none;fill-rule:evenodd;fill:rgb(0%,37.254902%,15.294118%);fill-opacity:1;" d="M 18.75 12.304688 C 18.734375 12.289062 18.734375 12.261719 18.734375 12.246094 C 18.734375 12.214844 18.75 12.203125 18.765625 12.1875 C 18.777344 12.171875 18.808594 12.171875 18.835938 12.171875 C 18.851562 12.171875 18.878906 12.171875 18.878906 12.203125 C 18.910156 12.214844 18.910156 12.246094 18.910156 12.261719 C 18.910156 12.273438 18.894531 12.304688 18.878906 12.320312 C 18.851562 12.332031 18.835938 12.347656 18.808594 12.332031 C 18.792969 12.332031 18.765625 12.320312 18.75 12.304688 Z M 18.75 12.304688 "/>
</g>
</svg>
