<?xml version="1.0" encoding="UTF-8"?>
<svg xmlns="http://www.w3.org/2000/svg" xmlns:xlink="http://www.w3.org/1999/xlink" width="34pt" height="25pt" viewBox="0 0 34 25" version="1.1">
<g id="surface1">
<path style=" stroke:none;fill-rule:nonzero;fill:rgb(76.470588%,16.470588%,15.686275%);fill-opacity:1;" d="M 28.65625 12.925781 C 28.65625 6.253906 23.21875 0.847656 16.515625 0.847656 C 9.808594 0.847656 4.371094 6.253906 4.371094 12.925781 C 4.371094 19.59375 9.808594 25.003906 16.515625 25.003906 C 23.21875 25.003906 28.65625 19.59375 28.65625 12.925781 Z M 28.65625 12.925781 "/>
<path style=" stroke:none;fill-rule:nonzero;fill:rgb(100%,100%,100%);fill-opacity:1;" d="M 16.683594 16.507812 C 17.707031 16.507812 18.667969 17.414062 18.777344 18.242188 L 22.273438 18.242188 L 22.273438 15.359375 L 25.269531 18.242188 L 29.785156 18.242188 L 24.792969 13.308594 L 29.476562 8.652344 L 24.652344 8.652344 L 22.273438 10.976562 L 22.273438 8.652344 L 18.667969 8.652344 L 18.667969 0 L 15.496094 0 C 14.808594 0.613281 14.003906 1.226562 13.09375 1.585938 L 13.09375 4.097656 C 13.585938 3.988281 14.257812 3.730469 14.726562 3.515625 L 14.726562 8.652344 L 5.5 8.652344 L 5.5 18.242188 L 9.453125 18.242188 L 9.453125 14.457031 L 13.164062 14.457031 C 11.328125 15.136719 10.03125 16.871094 10.03125 19.054688 C 10.03125 21.871094 12.78125 24.15625 16.453125 24.15625 C 20.425781 24.15625 22.542969 22.167969 23.023438 19.863281 L 18.777344 19.863281 C 18.417969 20.851562 17.707031 21.449219 16.683594 21.449219 C 15.394531 21.449219 14.347656 20.34375 14.347656 18.976562 C 14.347656 17.480469 15.3125 16.507812 16.683594 16.507812 Z M 16.566406 13.957031 C 15.964844 13.957031 15.410156 13.992188 14.898438 14.0625 L 14.898438 12.078125 L 9.273438 12.078125 L 9.273438 11.140625 L 14.898438 11.140625 L 14.898438 8.90625 L 18.496094 8.90625 L 18.496094 14.101562 C 17.917969 14.007812 17.273438 13.957031 16.566406 13.957031 Z M 16.566406 13.957031 "/>
</g>
</svg>
