<?xml version="1.0" encoding="UTF-8"?>
<svg xmlns="http://www.w3.org/2000/svg" xmlns:xlink="http://www.w3.org/1999/xlink" width="25pt" height="25pt" viewBox="0 0 25 25" version="1.1">
<g id="surface1">
<path style=" stroke:none;fill-rule:nonzero;fill:rgb(67.843137%,9.019608%,19.607843%);fill-opacity:1;" d="M 0.710938 12.5 C 0.710938 5.988281 5.988281 0.707031 12.5 0.707031 C 19.011719 0.707031 24.289062 5.988281 24.289062 12.5 C 24.289062 19.011719 19.011719 24.292969 12.5 24.292969 C 5.988281 24.292969 0.710938 19.011719 0.710938 12.5 "/>
<path style=" stroke:none;fill-rule:nonzero;fill:rgb(100%,100%,100%);fill-opacity:1;" d="M 2.136719 12.445312 L 2.476562 12.445312 C 2.476562 9.667969 3.601562 7.15625 5.421875 5.332031 C 7.242188 3.511719 9.753906 2.390625 12.53125 2.390625 L 12.53125 2.078125 L 12.523438 2.386719 L 12.53125 2.386719 L 12.53125 2.078125 L 12.523438 2.386719 L 12.53125 2.386719 C 18.082031 2.386719 22.585938 6.890625 22.585938 12.445312 C 22.585938 15.226562 21.460938 17.738281 19.640625 19.558594 C 17.820312 21.378906 15.308594 22.503906 12.53125 22.503906 L 12.515625 22.503906 L 12.53125 22.839844 L 12.53125 22.503906 C 6.976562 22.503906 2.476562 18 2.476562 12.445312 L 1.800781 12.445312 C 1.800781 18.371094 6.605469 23.175781 12.53125 23.179688 L 12.539062 23.179688 L 12.546875 23.175781 L 12.53125 22.847656 L 12.53125 23.179688 L 12.546875 23.175781 L 12.53125 22.847656 L 12.53125 23.179688 C 18.457031 23.179688 23.261719 18.375 23.261719 12.445312 C 23.261719 6.519531 18.457031 1.714844 12.53125 1.714844 L 12.53125 2.050781 L 12.535156 1.714844 L 12.53125 1.714844 C 6.605469 1.714844 1.800781 6.519531 1.800781 12.445312 L 2.136719 12.445312 "/>
<path style=" stroke:none;fill-rule:nonzero;fill:rgb(100%,100%,100%);fill-opacity:1;" d="M 13.21875 10.054688 L 14.503906 10.054688 L 14.503906 8.753906 L 13.21875 8.753906 M 10.054688 5.300781 L 11.644531 5.300781 L 11.644531 10.054688 L 12.804688 10.054688 L 12.804688 3.320312 L 11.941406 3.320312 C 11.785156 4.128906 10.941406 4.445312 10.054688 4.433594 L 10.054688 5.300781 M 15.097656 17.820312 L 16.199219 17.820312 L 16.199219 12.769531 L 16.226562 12.769531 L 19.238281 17.820312 L 20.457031 17.820312 L 20.457031 10.949219 L 19.355469 10.949219 L 19.355469 16.011719 L 19.339844 16.011719 L 16.320312 10.949219 L 15.097656 10.949219 M 14.824219 13.132812 C 14.683594 11.652344 13.507812 10.796875 12.019531 10.785156 C 10.039062 10.785156 8.851562 12.421875 8.851562 14.382812 C 8.851562 16.347656 10.039062 17.980469 12.019531 17.980469 C 13.621094 17.980469 14.742188 16.847656 14.832031 15.203125 L 13.703125 15.203125 C 13.613281 16.203125 13.046875 17 12.019531 17 C 10.601562 17 10.011719 15.703125 10.011719 14.382812 C 10.011719 13.066406 10.601562 11.769531 12.019531 11.769531 C 12.980469 11.769531 13.472656 12.34375 13.667969 13.132812 L 14.824219 13.132812 M 4.460938 17.816406 L 5.617188 17.820312 L 5.617188 14.769531 L 8.605469 14.769531 L 8.605469 13.789062 L 5.617188 13.789062 L 5.617188 11.988281 L 9.023438 11.988281 L 9.023438 10.949219 L 4.457031 10.949219 "/>
</g>
</svg>
