<?xml version="1.0" encoding="UTF-8"?>
<svg xmlns="http://www.w3.org/2000/svg" xmlns:xlink="http://www.w3.org/1999/xlink" width="35pt" height="25pt" viewBox="0 0 35 25" version="1.1">
<g id="surface1">
<path style=" stroke:none;fill-rule:evenodd;fill:rgb(92.941176%,10.980392%,13.72549%);fill-opacity:1;" d="M 6.75 18.101562 C 6.75 14.289062 9.839844 11.203125 13.648438 11.203125 C 17.460938 11.203125 20.550781 14.289062 20.550781 18.101562 C 20.550781 21.914062 17.460938 25 13.648438 25 C 9.839844 25 6.75 21.914062 6.75 18.101562 Z M 6.75 18.101562 "/>
<path style=" stroke:none;fill-rule:evenodd;fill:rgb(100%,100%,100%);fill-opacity:1;" d="M 7.585938 18.101562 C 7.585938 14.75 10.304688 12.035156 13.65625 12.035156 C 17.003906 12.035156 19.722656 14.75 19.722656 18.101562 C 19.722656 21.453125 17.003906 24.167969 13.65625 24.167969 C 10.304688 24.167969 7.585938 21.453125 7.585938 18.101562 Z M 7.585938 18.101562 "/>
<path style=" stroke:none;fill-rule:evenodd;fill:rgb(92.941176%,10.980392%,13.72549%);fill-opacity:1;" d="M 8.035156 18.101562 C 8.035156 14.996094 10.550781 12.480469 13.65625 12.480469 C 16.757812 12.480469 19.273438 14.996094 19.273438 18.101562 C 19.273438 21.203125 16.757812 23.71875 13.65625 23.71875 C 10.550781 23.71875 8.035156 21.203125 8.035156 18.101562 Z M 8.035156 18.101562 "/>
<path style=" stroke:none;fill-rule:evenodd;fill:rgb(0%,0%,0%);fill-opacity:1;" d="M 13.09375 14.679688 L 13.488281 14.089844 L 13.65625 16.1875 L 13.824219 14.089844 L 14.222656 14.679688 L 14.679688 12.574219 L 14.949219 11.332031 L 15.675781 14.679688 L 16.074219 14.089844 L 16.761719 22.765625 L 16.761719 22.78125 C 15.871094 23.375 14.804688 23.71875 13.65625 23.71875 C 12.507812 23.71875 11.441406 23.375 10.550781 22.785156 L 10.550781 22.765625 L 11.242188 14.089844 L 11.636719 14.679688 L 12.367188 11.332031 Z M 16.761719 22.765625 Z M 10.550781 22.765625 Z M 10.550781 22.765625 "/>
<path style=" stroke:none;fill-rule:evenodd;fill:rgb(100%,100%,100%);fill-opacity:1;" d="M 8.378906 20.925781 L 19.519531 17.792969 L 18.632812 14.730469 L 7.703125 17.804688 Z M 8.378906 20.925781 "/>
<path style=" stroke:none;fill-rule:evenodd;fill:rgb(0%,0%,0%);fill-opacity:1;" d="M 19.558594 14.472656 C 19.441406 14.355469 19.339844 14.191406 19.339844 14.191406 C 18.09375 12.390625 16.011719 11.203125 13.652344 11.203125 L 13.640625 11.21875 C 13.546875 11.238281 13.453125 11.292969 13.324219 11.367188 C 13.113281 11.476562 12.894531 11.484375 12.675781 11.496094 C 12.503906 11.484375 12.621094 11.269531 12.515625 11.304688 C 12.394531 11.339844 12.125 11.433594 12.007812 11.503906 C 11.996094 11.773438 11.1875 12.050781 10.753906 11.839844 C 10.804688 11.203125 11.867188 10.648438 13.386719 10.417969 C 14.332031 9.851562 14.464844 9.707031 15.089844 9.152344 C 15.371094 8.90625 15.5 8.804688 15.589844 8.785156 C 15.628906 8.765625 15.601562 8.742188 15.570312 8.742188 C 15.484375 8.703125 15.441406 8.644531 15.410156 8.578125 C 15.363281 8.472656 15.394531 8.347656 15.324219 8.28125 C 15.242188 8.226562 15.140625 8.183594 15.128906 8.046875 C 15.125 7.976562 15.117188 7.863281 15.015625 7.855469 C 14.875 7.859375 14.824219 7.890625 14.808594 7.601562 C 14.800781 7.472656 14.804688 7.269531 14.742188 7.265625 C 14.644531 7.253906 14.550781 7.574219 14.449219 8.355469 C 14.375 8.921875 14.039062 9.566406 13.921875 9.484375 C 13.808594 9.386719 13.902344 8.800781 13.730469 8.539062 C 13.703125 8.492188 13.785156 9.179688 13.265625 9.714844 C 13.191406 9.792969 13.132812 9.746094 13.132812 9.707031 C 13.152344 9.5625 13.222656 8.726562 13.054688 8.472656 C 12.925781 8.261719 12.785156 8.25 12.578125 8.160156 C 12.40625 8.078125 12.265625 7.863281 12.21875 7.699219 C 12.082031 7.164062 12.324219 6.597656 12.371094 6.414062 C 12.414062 6.238281 12.601562 5.445312 12.554688 5.117188 C 12.480469 4.863281 12.363281 4.632812 12.53125 4.246094 C 12.554688 4.203125 12.574219 4.175781 12.542969 4.140625 C 12.292969 3.949219 12.128906 3.796875 12.058594 3.417969 C 12.015625 3.195312 12.050781 3.097656 11.964844 2.902344 C 11.933594 2.828125 11.867188 2.78125 11.890625 2.730469 C 11.945312 2.679688 12.023438 2.679688 12.09375 2.679688 C 12.507812 2.75 12.753906 2.980469 12.910156 3.230469 C 12.964844 3.125 13.007812 3.0625 13.082031 2.988281 C 13.066406 2.730469 13.183594 2.539062 13.355469 2.371094 C 13.324219 2.054688 13.542969 1.863281 13.695312 1.792969 C 13.71875 1.523438 13.878906 1.324219 14.136719 1.144531 C 14.3125 0.742188 14.570312 0.613281 14.722656 0.519531 C 14.882812 0.433594 15.113281 0.328125 15.519531 0.265625 C 15.695312 0.242188 15.734375 0.351562 15.652344 0.429688 C 15.386719 0.640625 14.769531 1.304688 14.515625 2.035156 C 14.59375 1.894531 14.789062 1.652344 15.027344 1.539062 C 15.164062 1.183594 15.492188 1.003906 15.691406 0.90625 C 15.808594 0.691406 16.0625 0.425781 16.433594 0.347656 C 16.851562 -0.0117188 17.535156 0 17.617188 0 C 17.753906 0.0078125 17.929688 0.0078125 17.957031 0.132812 C 18.003906 0.3125 15.933594 1.378906 15.613281 3.53125 C 15.601562 3.628906 16.121094 3.039062 16.667969 3.128906 C 16.695312 3.144531 16.71875 3.164062 16.734375 3.195312 C 16.988281 3.742188 16.746094 4.246094 16.808594 4.28125 C 17.882812 4.914062 18.117188 5.714844 18.582031 6.167969 C 19.230469 6.789062 19.996094 6.761719 20.632812 7.222656 C 21.238281 7.652344 21.933594 9.09375 22.285156 9.390625 C 23.816406 10.476562 25.101562 11.433594 26.125 13.058594 C 26.257812 13.273438 26.34375 13.398438 26.605469 13.421875 C 27.175781 13.410156 27.644531 12.734375 28.023438 12.121094 C 28.046875 12.089844 28.074219 12.078125 28.09375 12.097656 C 28.140625 12.132812 28.117188 12.222656 28.164062 12.230469 C 28.289062 12.246094 28.390625 11.875 28.519531 11.792969 C 28.570312 11.757812 28.644531 11.789062 28.628906 11.851562 C 28.589844 11.996094 28.5 12.160156 28.496094 12.265625 C 28.496094 12.292969 28.519531 12.289062 28.53125 12.269531 C 28.554688 12.242188 28.589844 12.234375 28.613281 12.238281 C 28.667969 12.25 28.664062 12.320312 28.648438 12.351562 C 28.601562 12.441406 28.558594 12.527344 28.554688 12.632812 C 28.550781 12.71875 28.621094 12.65625 28.664062 12.679688 C 28.722656 12.707031 28.710938 12.777344 28.679688 12.859375 C 28.519531 13.210938 28.03125 14.5 26.875 14.332031 C 26.726562 14.308594 26.648438 14.199219 26.695312 14.363281 C 26.992188 15.363281 26.40625 17.527344 26.65625 18.558594 C 26.726562 18.855469 27.0625 19.09375 27.164062 19.246094 C 27.222656 19.304688 27.292969 19.429688 27.308594 19.566406 C 27.386719 20.445312 27.164062 20.527344 27.570312 22.167969 C 27.605469 22.304688 27.601562 22.402344 27.53125 22.480469 C 27.457031 22.5625 27.402344 22.527344 27.382812 22.605469 C 27.328125 23.132812 27.109375 23.550781 26.800781 23.664062 C 26.371094 23.8125 26.089844 23.609375 26.152344 23.25 C 26.273438 22.59375 26.589844 22.46875 26.699219 21.804688 C 26.78125 21.238281 26.4375 20.660156 26.324219 20.460938 C 26.214844 20.28125 25.941406 19.789062 25.605469 19.476562 C 25.558594 19.421875 25.523438 19.433594 25.507812 19.480469 C 25.378906 19.886719 25.511719 20.722656 25.570312 20.9375 C 25.667969 21.285156 25.773438 21.710938 25.753906 21.992188 C 25.738281 22.269531 25.59375 22.441406 25.464844 22.566406 C 25.261719 22.761719 25.390625 23.089844 25.015625 23.246094 C 24.738281 23.359375 24.53125 23.3125 24.4375 23.261719 C 24.351562 23.207031 24.3125 23.183594 24.300781 23.078125 C 24.300781 22.949219 24.3125 22.769531 24.4375 22.613281 C 24.640625 22.359375 24.910156 22.003906 24.957031 21.332031 C 25.042969 20.113281 23.960938 18.726562 23.890625 18.710938 C 23.820312 18.695312 23.847656 18.757812 23.792969 18.742188 C 23.683594 18.652344 23.554688 18.324219 23.441406 18.203125 C 23.378906 18.117188 23.222656 18.152344 23.199219 18.03125 C 23.1875 17.9375 23.148438 17.84375 23.070312 17.800781 C 23.019531 17.773438 22.984375 17.824219 22.941406 17.796875 C 22.808594 17.695312 22.800781 17.320312 22.757812 17.296875 C 22.710938 17.277344 22.667969 17.316406 22.632812 17.296875 C 22.535156 17.257812 22.558594 16.945312 22.484375 16.722656 C 22.445312 16.609375 22.328125 16.609375 22.296875 16.472656 C 22.242188 16.21875 22.25 15.890625 21.980469 15.765625 C 21.699219 15.640625 21.523438 15.808594 21.390625 15.609375 C 21.320312 15.523438 21.332031 15.378906 21.152344 15.359375 C 21.054688 15.3125 21.015625 15.195312 20.929688 15.222656 C 20.882812 15.234375 20.921875 15.324219 20.824219 15.386719 C 20.695312 15.394531 20.566406 15.046875 20.386719 15.0625 C 20.328125 15.085938 20.304688 15.152344 20.234375 15.15625 C 20.160156 15.160156 20.152344 14.765625 19.898438 14.667969 C 19.855469 14.652344 19.820312 14.734375 19.78125 14.679688 C 19.78125 14.679688 19.679688 14.601562 19.558594 14.472656 Z M 19.558594 14.472656 "/>
<path style=" stroke:none;fill-rule:evenodd;fill:rgb(100%,100%,100%);fill-opacity:1;" d="M 13.464844 2.492188 C 13.570312 2.355469 13.792969 2.292969 13.78125 2.25 C 13.761719 2.210938 13.679688 2.246094 13.621094 2.25 C 13.59375 2.253906 13.558594 2.246094 13.5625 2.214844 C 13.667969 1.859375 14.019531 1.792969 14.125 1.679688 C 14.136719 1.65625 14.125 1.65625 14.097656 1.640625 C 14.039062 1.640625 13.953125 1.699219 13.953125 1.648438 C 13.996094 1.289062 14.429688 1.117188 14.511719 1.089844 C 14.535156 1.070312 14.515625 1.046875 14.488281 1.039062 C 14.449219 1.046875 14.417969 1.066406 14.414062 1.023438 C 14.457031 0.84375 14.695312 0.703125 14.847656 0.625 C 15.003906 0.5625 15.3125 0.46875 15.3125 0.515625 C 15.3125 0.535156 15.070312 0.652344 14.988281 0.769531 C 14.921875 0.871094 14.863281 0.933594 14.855469 1.089844 C 14.609375 1.210938 14.488281 1.484375 14.46875 1.746094 C 14.296875 1.835938 14.160156 2.15625 14.21875 2.285156 C 14.015625 2.480469 13.917969 2.765625 13.925781 3.050781 C 13.488281 3.625 13.617188 3.839844 14.101562 4.019531 C 14.171875 4.042969 14.242188 4.046875 14.253906 4.011719 C 14.273438 3.976562 14.214844 3.957031 14.191406 3.90625 C 13.929688 3.320312 14.261719 3.027344 14.722656 2.832031 C 14.757812 2.816406 14.730469 2.773438 14.675781 2.773438 C 14.550781 2.773438 14.441406 2.804688 14.425781 2.765625 C 14.355469 2.574219 14.851562 2.179688 15.097656 2.101562 C 15.203125 2.074219 15.15625 2.019531 15.113281 2.027344 C 15.050781 2.023438 14.949219 2.058594 14.914062 1.972656 C 14.976562 1.757812 15.574219 1.472656 15.660156 1.421875 C 15.714844 1.386719 15.738281 1.328125 15.472656 1.378906 C 15.449219 1.382812 15.421875 1.382812 15.433594 1.347656 C 15.484375 1.191406 16.039062 0.976562 16.324219 0.875 C 16.367188 0.855469 16.378906 0.785156 16.246094 0.8125 C 16.199219 0.820312 16.109375 0.851562 16.09375 0.816406 C 16.109375 0.605469 16.726562 0.441406 16.945312 0.394531 C 16.996094 0.378906 17.003906 0.351562 16.960938 0.328125 C 16.890625 0.308594 16.78125 0.363281 16.824219 0.289062 C 16.988281 0.1875 17.425781 0.183594 17.578125 0.207031 C 17.621094 0.214844 17.628906 0.226562 17.632812 0.234375 C 17.585938 0.34375 16.851562 0.558594 16.757812 1.003906 C 16.539062 1.09375 16.324219 1.304688 16.296875 1.484375 C 16.179688 1.546875 15.949219 1.738281 15.9375 2 C 15.808594 2.097656 15.476562 2.390625 15.585938 2.75 C 15.410156 2.914062 15.273438 3.085938 15.28125 3.554688 C 15.28125 3.714844 15.074219 3.976562 14.855469 4.035156 C 14.796875 4.0625 14.820312 4.109375 14.863281 4.121094 C 15.226562 4.226562 15.5625 4.03125 15.691406 3.90625 C 16.109375 3.507812 16.386719 3.367188 16.574219 3.34375 C 16.609375 3.332031 16.609375 3.359375 16.617188 3.378906 C 16.640625 3.480469 16.707031 3.734375 16.617188 4.089844 C 16.5 4.535156 16.15625 4.742188 16.0625 4.863281 C 16.042969 4.878906 16.109375 5.070312 16.074219 5.167969 C 16.035156 5.289062 16.078125 5.367188 16.125 5.382812 C 16.246094 5.429688 16.335938 4.96875 16.410156 4.980469 C 16.46875 4.984375 16.457031 5.085938 16.527344 5.121094 C 16.566406 5.132812 16.621094 5.121094 16.628906 5.082031 C 16.636719 4.953125 16.683594 4.636719 16.714844 4.605469 C 16.738281 4.574219 16.808594 4.71875 16.8125 4.804688 C 16.816406 5.164062 16.617188 5.46875 16.734375 5.714844 C 16.761719 5.765625 16.820312 5.761719 16.863281 5.722656 C 16.96875 5.605469 17.042969 5.1875 17.285156 5.132812 C 17.609375 5.0625 17.929688 5.949219 17.699219 6.1875 C 17.589844 6.28125 17.449219 6.199219 17.3125 6.273438 C 17.164062 6.359375 17.175781 6.691406 17.074219 6.828125 C 17.015625 6.886719 16.945312 6.898438 16.804688 6.910156 C 16.511719 6.929688 16.601562 7.769531 16.648438 7.917969 C 16.675781 8.007812 16.738281 7.992188 16.78125 7.960938 C 16.824219 7.925781 16.855469 7.753906 16.863281 7.589844 C 16.875 7.539062 16.964844 7.519531 17.027344 7.457031 C 17.097656 7.402344 17.0625 7.34375 17.101562 7.292969 C 17.164062 7.226562 17.222656 7.285156 17.269531 7.210938 C 17.398438 7.105469 17.304688 6.941406 17.410156 6.871094 C 17.558594 6.769531 17.691406 6.820312 17.824219 6.675781 C 17.90625 6.585938 17.917969 6.394531 18.03125 6.359375 C 18.640625 6.34375 19.246094 7.046875 19.347656 7.253906 C 19.648438 7.875 19.167969 8.816406 19.496094 8.996094 C 19.910156 9.238281 19.820312 9.703125 19.773438 9.820312 C 19.6875 10.058594 19.023438 10.363281 18.9375 10.914062 C 18.894531 11.445312 19.171875 11.335938 19.191406 11.269531 C 19.210938 11.203125 19.230469 11.117188 19.265625 11.050781 C 19.289062 10.992188 19.371094 11.015625 19.378906 11.074219 C 19.394531 11.125 19.511719 11.265625 19.679688 10.953125 C 19.785156 10.753906 20.070312 10.5 20.285156 10.351562 C 20.496094 10.203125 20.546875 9.734375 20.582031 9.628906 C 20.609375 9.535156 20.6875 9.535156 20.699219 9.4375 C 20.707031 9.335938 20.515625 8.996094 20.628906 8.753906 C 20.683594 8.671875 20.808594 8.613281 20.90625 8.726562 C 21.007812 8.84375 20.84375 9.222656 21.027344 9.230469 C 21.179688 9.238281 21.199219 9.054688 21.332031 9.066406 C 21.46875 9.09375 21.222656 9.59375 21.359375 9.671875 C 21.441406 9.707031 21.546875 9.664062 21.585938 9.75 C 21.625 9.886719 21.378906 10.140625 21.59375 10.140625 C 23.855469 10.101562 24.683594 11.882812 24.539062 12.207031 C 24.46875 12.328125 24.195312 12.144531 24.15625 12.269531 C 23.949219 12.96875 24.417969 13.496094 24.554688 13.585938 C 24.59375 13.609375 24.664062 13.578125 24.660156 13.488281 C 24.636719 13.292969 24.527344 13.183594 24.546875 12.988281 C 24.585938 12.640625 25.359375 12.855469 25.398438 13.121094 C 25.414062 13.21875 25.417969 13.296875 25.507812 13.382812 C 25.617188 13.484375 25.882812 13.367188 25.90625 13.597656 C 25.941406 14.046875 25.382812 14.074219 24.996094 14.351562 C 24.8125 14.492188 24.855469 14.589844 25.007812 14.640625 C 25.195312 14.691406 25.492188 14.636719 25.640625 14.855469 C 25.855469 15.160156 25.574219 15.800781 25.558594 16.066406 C 25.542969 16.339844 26.03125 17.136719 26.042969 17.542969 C 26.078125 17.746094 25.9375 17.859375 25.765625 17.691406 C 25.597656 17.515625 25.425781 17.246094 25.292969 17.046875 C 25.257812 16.984375 25.160156 16.980469 25.160156 17.109375 C 25.160156 17.460938 26.828125 19.632812 26.871094 19.988281 C 26.90625 20.175781 26.804688 20.335938 26.847656 20.515625 C 26.863281 20.570312 26.929688 20.539062 26.9375 20.582031 C 26.945312 20.703125 26.824219 20.886719 26.996094 20.972656 C 27.085938 21.210938 26.996094 21.3125 27.042969 21.507812 C 27.066406 21.707031 27.160156 21.980469 27.179688 22.175781 C 27.132812 22.738281 26.917969 22.957031 26.746094 23.039062 C 26.601562 23.113281 26.539062 22.980469 26.550781 22.867188 C 26.589844 22.527344 26.96875 21.925781 26.816406 21.25 C 26.429688 19.507812 24.566406 18.269531 24.253906 17.605469 C 24.15625 17.359375 23.796875 17.328125 23.777344 17.035156 C 23.742188 16.941406 23.648438 16.96875 23.566406 16.882812 C 23.5 16.808594 23.503906 16.578125 23.429688 16.410156 C 23.410156 16.359375 23.34375 16.382812 23.296875 16.332031 C 23.03125 15.984375 23.085938 14.28125 22.851562 14.050781 C 22.675781 13.953125 22.542969 14.222656 22.324219 14.246094 C 22.160156 14.261719 21.882812 13.847656 21.785156 13.953125 C 21.703125 14.035156 21.738281 14.246094 21.742188 14.277344 C 21.75 14.308594 21.792969 14.453125 21.738281 14.453125 C 21.6875 14.453125 21.613281 14.351562 21.402344 14.265625 C 21.261719 14.214844 21.128906 14.265625 21.066406 14.222656 C 20.921875 14.066406 21.070312 13.742188 20.828125 13.648438 C 20.761719 13.625 20.75 13.449219 20.714844 13.382812 C 20.683594 13.332031 20.613281 13.335938 20.582031 13.296875 C 20.515625 13.199219 20.472656 13.078125 20.441406 12.941406 C 20.417969 12.847656 20.199219 12.964844 20.179688 12.8125 C 20.160156 12.714844 20.042969 12.683594 19.949219 12.667969 C 19.839844 12.652344 19.886719 12.410156 19.789062 12.367188 C 19.75 12.351562 19.734375 12.398438 19.691406 12.375 C 19.644531 12.320312 19.652344 12.265625 19.597656 12.226562 C 19.550781 12.195312 19.503906 12.25 19.46875 12.210938 C 19.328125 12.039062 19.441406 11.753906 19.367188 11.667969 C 19.320312 11.617188 19.234375 11.675781 19.164062 11.613281 C 19.089844 11.558594 19.078125 11.46875 19.035156 11.457031 C 18.914062 11.453125 18.867188 11.429688 18.816406 11.367188 C 18.589844 11.050781 18.617188 10.683594 18.539062 10.554688 C 18.488281 10.46875 18.410156 10.414062 18.351562 10.578125 C 18.238281 10.851562 18.25 11.882812 17.921875 12.023438 C 17.664062 12.148438 17.4375 11.710938 17.3125 11.632812 C 17.257812 11.601562 17.246094 11.695312 17.207031 11.699219 C 17.089844 11.652344 17.117188 11.515625 17.023438 11.460938 C 16.929688 11.421875 16.96875 11.550781 16.917969 11.539062 C 16.828125 11.457031 16.828125 11.230469 16.746094 11.191406 C 16.679688 11.167969 16.644531 11.242188 16.605469 11.210938 C 16.476562 11.097656 16.566406 10.84375 16.410156 10.765625 C 16.339844 10.742188 16.351562 10.855469 16.28125 10.824219 C 16.210938 10.800781 16.222656 10.441406 16.015625 10.476562 C 15.984375 10.476562 15.992188 10.429688 15.972656 10.410156 C 15.910156 10.402344 15.867188 10.488281 15.800781 10.433594 C 15.710938 10.316406 15.644531 10.257812 15.585938 10.214844 C 15.5 10.140625 15.367188 10.234375 15.257812 10.152344 C 14.875 9.984375 13.996094 10.65625 13.597656 11.050781 C 13.453125 10.914062 13.257812 11.058594 13.09375 11.074219 C 13.035156 11.089844 12.847656 11.078125 12.996094 10.878906 C 13.355469 10.5 13.617188 10.519531 14.296875 10.035156 C 14.789062 9.671875 15.234375 9.316406 15.394531 9.210938 C 15.527344 9.144531 15.738281 9.085938 15.914062 9.316406 C 16.160156 9.640625 16.714844 10.183594 16.949219 10.289062 C 17.433594 10.5 17.460938 10.128906 17.519531 10 C 17.570312 9.871094 17.601562 9.980469 17.597656 10.101562 C 17.597656 10.183594 17.628906 10.296875 17.695312 10.308594 C 17.828125 10.324219 17.828125 10.222656 17.847656 10.160156 C 18 9.5625 18.585938 8.84375 18.816406 8.992188 C 18.988281 9.101562 19.085938 9.101562 19.128906 8.894531 C 19.171875 8.632812 18.96875 8.390625 18.914062 8.113281 C 18.855469 7.792969 18.890625 7.371094 18.769531 7.3125 C 18.699219 7.28125 18.601562 7.351562 18.542969 7.429688 C 18.46875 7.527344 18.46875 7.632812 18.445312 7.75 C 18.433594 7.816406 18.167969 7.890625 18.136719 8.234375 C 18.132812 8.296875 18.03125 8.171875 17.960938 8.234375 C 17.808594 8.347656 17.835938 8.910156 17.789062 8.941406 C 17.734375 8.949219 17.667969 8.886719 17.644531 8.96875 C 17.65625 9.058594 17.605469 9.277344 17.5625 9.296875 C 17.527344 9.304688 17.488281 9.261719 17.433594 9.292969 C 17.304688 9.398438 17.359375 9.546875 17.234375 9.691406 C 17.160156 9.785156 17.109375 9.71875 17.097656 9.636719 C 17.082031 9.5 16.96875 9.289062 16.871094 9.191406 C 16.585938 8.894531 16.761719 8.402344 16.359375 8.199219 C 16.238281 8.140625 16.230469 8.078125 16.21875 7.96875 C 16.210938 7.851562 16.144531 7.769531 16.082031 7.753906 C 15.96875 7.71875 15.953125 7.660156 15.945312 7.582031 C 15.957031 7.371094 15.800781 7.363281 15.71875 7.34375 C 15.519531 7.328125 15.511719 7.289062 15.574219 6.796875 C 15.59375 6.675781 15.59375 6.539062 15.554688 6.429688 C 15.453125 6.277344 15.226562 6.375 15.257812 6.125 C 15.28125 5.964844 15.574219 5.75 15.699219 5.617188 C 15.773438 5.53125 15.820312 5.3125 15.5625 5.367188 C 14.96875 5.523438 14.5 6.570312 14.386719 6.769531 C 13.960938 7.554688 13.589844 7.867188 13.238281 7.988281 C 13.078125 8.046875 12.515625 8.097656 12.398438 7.546875 C 12.339844 7.257812 12.410156 6.984375 12.542969 6.53125 C 13.113281 4.542969 12.476562 4.921875 12.789062 4.261719 C 12.988281 4.035156 13.273438 4.066406 13.5625 4.03125 C 13.628906 4.023438 13.605469 3.941406 13.589844 3.914062 C 13.578125 3.890625 13.511719 3.863281 13.421875 3.847656 C 13.332031 3.832031 13.144531 3.664062 13.125 3.480469 C 13.109375 3.28125 13.238281 3.160156 13.324219 3.074219 C 13.445312 2.953125 13.53125 2.941406 13.535156 2.914062 C 13.527344 2.808594 13.304688 2.957031 13.285156 2.914062 C 13.234375 2.75 13.375 2.597656 13.464844 2.492188 Z M 12.847656 3.523438 C 12.839844 3.597656 12.839844 3.707031 12.933594 3.941406 C 12.839844 3.953125 12.78125 4.039062 12.695312 3.992188 C 12.433594 3.847656 12.285156 3.578125 12.199219 3.308594 C 12.144531 3.152344 12.152344 2.96875 12.0625 2.828125 C 12.519531 2.859375 12.851562 3.472656 12.847656 3.523438 Z M 25.070312 20.074219 C 25.136719 20.074219 25.128906 20.050781 25.1875 20.074219 C 25.238281 20.074219 25.238281 20.296875 25.230469 20.414062 C 25.21875 20.484375 25.199219 20.605469 25.277344 20.660156 C 25.34375 20.71875 25.1875 20.933594 25.300781 21.039062 C 25.363281 21.125 25.230469 21.351562 25.332031 21.480469 C 25.382812 21.480469 25.417969 21.492188 25.445312 21.535156 C 25.402344 21.796875 25.519531 22.214844 25.480469 22.335938 C 25.363281 22.519531 25.277344 22.5 25.175781 22.796875 C 25.027344 23.089844 24.609375 22.90625 24.691406 22.675781 C 24.988281 22.171875 25.097656 21.613281 25.113281 21.367188 C 25.164062 20.734375 24.828125 19.726562 24.792969 19.585938 C 24.785156 19.460938 24.8125 19.382812 24.910156 19.5 C 25.058594 19.730469 25.003906 20.058594 25.070312 20.074219 Z M 12.925781 10.765625 C 12.785156 10.867188 12.691406 11 12.613281 11.144531 C 12.445312 11.171875 12.171875 11.285156 11.976562 11.371094 C 11.90625 11.410156 11.632812 11.429688 11.386719 11.457031 C 11.351562 11.457031 11.339844 11.433594 11.339844 11.402344 C 11.320312 11.214844 12.480469 10.742188 12.925781 10.695312 C 12.964844 10.695312 12.988281 10.714844 12.925781 10.765625 Z M 12.925781 10.765625 "/>
<path style=" stroke:none;fill-rule:evenodd;fill:rgb(0%,0%,0%);fill-opacity:1;" d="M 16.515625 3.597656 C 16.539062 3.589844 16.546875 3.605469 16.546875 3.617188 C 16.527344 3.941406 16.1875 4.585938 15.738281 4.703125 C 15.710938 4.707031 15.695312 4.703125 15.6875 4.679688 C 15.644531 4.453125 15.789062 4.070312 16.152344 3.933594 C 16.332031 3.863281 16.417969 3.742188 16.515625 3.597656 Z M 16.515625 3.597656 "/>
<path style=" stroke:none;fill-rule:evenodd;fill:rgb(0%,0%,0%);fill-opacity:1;" d="M 23.40625 10.84375 C 23.519531 10.878906 23.566406 10.996094 23.527344 11.0625 C 23.480469 11.171875 23.382812 11.246094 23.382812 11.347656 C 23.378906 11.4375 23.363281 11.488281 23.292969 11.511719 C 23.167969 11.523438 23.09375 11.261719 22.976562 11.445312 C 22.914062 11.539062 22.785156 11.472656 22.769531 11.421875 C 22.746094 11.339844 22.699219 11.257812 22.617188 11.253906 C 22.351562 11.246094 22.285156 10.828125 22.324219 10.714844 C 22.53125 10.230469 23.035156 10.714844 23.40625 10.84375 Z M 23.40625 10.84375 "/>
<path style=" stroke:none;fill-rule:evenodd;fill:rgb(0%,0%,0%);fill-opacity:1;" d="M 15.011719 4.867188 C 15.03125 4.953125 15.015625 4.957031 14.945312 4.910156 C 14.710938 4.664062 14.511719 4.730469 14.371094 4.804688 C 14.300781 4.832031 14.28125 4.828125 14.300781 4.765625 C 14.515625 4.4375 14.90625 4.601562 15.011719 4.867188 Z M 15.011719 4.867188 "/>
<path style=" stroke:none;fill-rule:evenodd;fill:rgb(0%,0%,0%);fill-opacity:1;" d="M 13.796875 4.914062 C 13.914062 5.082031 13.863281 5.347656 13.761719 5.542969 C 13.679688 5.695312 13.546875 5.9375 13.496094 6.042969 C 13.472656 6.105469 13.425781 6.109375 13.390625 6.09375 C 13.351562 6.085938 13.53125 5.78125 13.582031 5.429688 C 13.605469 5.28125 13.566406 5.070312 13.671875 4.910156 C 13.707031 4.859375 13.761719 4.875 13.796875 4.914062 Z M 13.796875 4.914062 "/>
<path style=" stroke:none;fill-rule:evenodd;fill:rgb(0%,0%,0%);fill-opacity:1;" d="M 14.785156 5.074219 C 14.871094 5.269531 14.660156 5.367188 14.539062 5.390625 C 14.453125 5.40625 14.390625 5.382812 14.316406 5.335938 C 14.277344 5.304688 14.296875 5.285156 14.265625 5.269531 C 14.203125 5.265625 14.21875 5.308594 14.148438 5.324219 C 14.097656 5.332031 14.09375 5.308594 14.125 5.257812 C 14.207031 5.125 14.25 5.035156 14.378906 4.980469 C 14.5 4.929688 14.679688 4.878906 14.785156 5.074219 Z M 14.785156 5.074219 "/>
<path style=" stroke:none;fill-rule:evenodd;fill:rgb(0%,0%,0%);fill-opacity:1;" d="M 14.101562 5.902344 C 14.203125 6.296875 14.125 6.453125 14.035156 6.546875 C 14 6.578125 13.789062 6.613281 13.761719 6.34375 C 13.867188 6.214844 13.933594 6.019531 13.996094 5.878906 C 14.039062 5.792969 14.070312 5.785156 14.101562 5.902344 Z M 14.101562 5.902344 "/>
<path style=" stroke:none;fill-rule:evenodd;fill:rgb(0%,0%,0%);fill-opacity:1;" d="M 13.3125 6.996094 C 13.265625 7.246094 13.164062 7.371094 12.984375 7.410156 C 12.78125 7.4375 12.691406 7.207031 12.71875 7.210938 C 12.921875 7.246094 13.132812 7.132812 13.257812 6.96875 C 13.289062 6.925781 13.320312 6.957031 13.3125 6.996094 Z M 13.3125 6.996094 "/>
<path style=" stroke:none;fill-rule:evenodd;fill:rgb(100%,100%,100%);fill-opacity:1;" d="M 28.21875 13.160156 C 28.253906 13.253906 28.15625 13.375 28.050781 13.488281 C 27.949219 13.609375 27.507812 13.921875 27.136719 13.90625 C 27.035156 13.890625 26.925781 13.777344 26.960938 13.640625 C 26.996094 13.527344 27.351562 13.496094 27.625 13.402344 C 27.824219 13.332031 27.917969 13.292969 28.078125 13.171875 C 28.175781 13.09375 28.199219 13.140625 28.21875 13.160156 Z M 28.21875 13.160156 "/>
<path style=" stroke:none;fill-rule:evenodd;fill:rgb(92.941176%,10.980392%,13.72549%);fill-opacity:1;" d="M 9.757812 17.621094 L 11.191406 17.175781 L 10.9375 19.875 L 9.9375 20.15625 L 10.109375 18.320312 L 9.679688 18.46875 Z M 12.429688 19.066406 C 12.40625 19.34375 12.109375 19.582031 11.839844 19.664062 C 11.570312 19.734375 11.304688 19.65625 11.332031 19.375 C 11.359375 19.082031 11.65625 18.835938 11.925781 18.765625 C 12.191406 18.6875 12.457031 18.777344 12.429688 19.066406 Z M 13.089844 16.644531 L 14.949219 16.117188 L 14.878906 16.898438 L 14.03125 17.128906 L 14.007812 17.414062 L 14.75 17.207031 L 14.683594 17.902344 L 13.941406 18.109375 L 13.851562 19.054688 L 12.835938 19.34375 Z M 17.339844 16.515625 C 17.191406 16.417969 17 16.351562 16.769531 16.414062 C 16.46875 16.5 16.199219 16.800781 16.167969 17.09375 C 16.144531 17.386719 16.382812 17.542969 16.683594 17.460938 C 16.917969 17.394531 17.109375 17.246094 17.289062 17.046875 L 17.164062 18.0625 C 16.996094 18.183594 16.617188 18.320312 16.4375 18.371094 C 15.640625 18.59375 15.078125 18.171875 15.152344 17.40625 C 15.222656 16.617188 15.921875 15.808594 16.738281 15.578125 C 16.964844 15.511719 17.195312 15.484375 17.40625 15.503906 Z M 17.339844 16.515625 "/>
<path style=" stroke:none;fill-rule:evenodd;fill:rgb(100%,100%,100%);fill-opacity:1;" d="M 12.964844 20.109375 C 12.953125 20.214844 12.878906 20.320312 12.796875 20.351562 C 12.714844 20.371094 12.660156 20.296875 12.667969 20.191406 C 12.671875 20.078125 12.746094 19.976562 12.828125 19.960938 C 12.914062 19.925781 12.972656 20 12.964844 20.109375 Z M 13.394531 19.984375 C 13.386719 20.09375 13.3125 20.199219 13.230469 20.226562 C 13.148438 20.253906 13.09375 20.175781 13.101562 20.074219 C 13.113281 19.964844 13.179688 19.859375 13.265625 19.835938 C 13.347656 19.808594 13.40625 19.878906 13.394531 19.984375 Z M 13.679688 21.121094 C 13.632812 21.691406 13.269531 22.132812 12.855469 22.242188 C 12.445312 22.359375 12.136719 22.105469 12.183594 21.535156 C 12.230469 20.976562 12.597656 20.523438 13.011719 20.40625 C 13.417969 20.289062 13.726562 20.5625 13.679688 21.121094 Z M 12.679688 21.40625 C 12.660156 21.613281 12.753906 21.722656 12.902344 21.683594 C 13.050781 21.640625 13.167969 21.472656 13.183594 21.273438 C 13.199219 21.078125 13.117188 20.945312 12.960938 20.992188 C 12.808594 21.035156 12.695312 21.222656 12.679688 21.40625 Z M 13.925781 20.179688 L 14.414062 20.046875 L 14.316406 21.25 L 14.726562 21.136719 L 14.679688 21.710938 L 13.777344 21.957031 Z M 14.953125 19.890625 L 15.425781 19.765625 L 15.785156 20.628906 L 15.796875 20.628906 C 15.789062 20.480469 15.78125 20.335938 15.792969 20.179688 L 15.839844 19.648438 L 16.308594 19.519531 L 16.160156 21.296875 L 15.691406 21.425781 L 15.339844 20.613281 L 15.320312 20.617188 C 15.328125 20.734375 15.332031 20.84375 15.320312 20.964844 L 15.273438 21.546875 L 14.808594 21.671875 Z M 10.988281 20.996094 L 11.464844 20.863281 L 11.386719 21.640625 L 11.398438 21.636719 C 11.417969 21.558594 11.453125 21.488281 11.484375 21.414062 L 11.769531 20.777344 L 12.304688 20.632812 L 11.808594 21.613281 L 12.199219 22.398438 L 11.632812 22.558594 L 11.441406 22.082031 C 11.417969 22.023438 11.382812 21.96875 11.382812 21.898438 L 11.367188 21.902344 L 11.316406 22.644531 L 10.839844 22.777344 Z M 10.988281 20.996094 "/>
</g>
</svg>
