<?xml version="1.0" encoding="UTF-8"?>
<svg xmlns="http://www.w3.org/2000/svg" xmlns:xlink="http://www.w3.org/1999/xlink" width="20pt" height="25pt" viewBox="0 0 20 25" version="1.1">
<g id="surface1">
<path style=" stroke:none;fill-rule:nonzero;fill:rgb(69.411765%,70.196078%,70.588235%);fill-opacity:1;" d="M 9.996094 25 C 15.507812 25 19.988281 20.453125 19.988281 14.867188 L 19.988281 0.855469 C 19.988281 0.511719 19.722656 0.234375 19.390625 0.214844 C 16.328125 0.0742188 13.167969 0 9.996094 0 C 6.820312 0 3.660156 0.0742188 0.597656 0.214844 C 0.265625 0.234375 0 0.511719 0 0.855469 L 0 14.867188 C 0 20.453125 4.484375 25 9.996094 25 "/>
<path style=" stroke:none;fill-rule:nonzero;fill:rgb(0%,23.137255%,47.45098%);fill-opacity:1;" d="M 9.996094 24.476562 C 15.21875 24.476562 19.472656 20.164062 19.472656 14.867188 L 19.472656 0.855469 L 19.472656 0.859375 C 19.472656 0.792969 19.417969 0.738281 19.355469 0.738281 C 16.304688 0.597656 13.15625 0.523438 9.996094 0.523438 C 6.832031 0.523438 3.683594 0.597656 0.636719 0.738281 C 0.570312 0.738281 0.519531 0.792969 0.519531 0.859375 L 0.515625 0.855469 L 0.515625 14.867188 C 0.515625 20.164062 4.769531 24.476562 9.996094 24.476562 "/>
<path style=" stroke:none;fill-rule:nonzero;fill:rgb(100%,100%,100%);fill-opacity:1;" d="M 18.273438 14.914062 C 18.273438 19.550781 14.566406 23.308594 9.996094 23.308594 C 5.421875 23.308594 1.714844 19.550781 1.714844 14.914062 C 1.714844 10.28125 5.421875 6.523438 9.996094 6.523438 C 14.566406 6.523438 18.273438 10.28125 18.273438 14.914062 Z M 18.273438 14.914062 "/>
<path style=" stroke:none;fill-rule:nonzero;fill:rgb(88.627451%,0%,10.196078%);fill-opacity:1;" d="M 12.398438 22.730469 C 12.148438 22.777344 11.882812 22.664062 11.75 22.425781 C 11.691406 22.328125 11.667969 22.21875 11.667969 22.109375 L 11.667969 22.039062 C 11.667969 22.035156 11.667969 22.027344 11.664062 22.023438 C 11.65625 22.011719 11.640625 22.007812 11.628906 22.015625 C 11.625 22.015625 11.621094 22.019531 11.621094 22.023438 L 11.59375 22.058594 C 11.457031 22.226562 11.113281 22.410156 10.546875 22.519531 C 10.535156 22.519531 10.523438 22.523438 10.507812 22.527344 C 10.507812 22.527344 10.503906 22.527344 10.503906 22.527344 C 10.445312 22.539062 10.382812 22.546875 10.320312 22.558594 C 10.304688 22.558594 10.292969 22.5625 10.28125 22.5625 C 10.042969 22.59375 9.789062 22.621094 9.527344 22.625 C 7.050781 22.65625 5.332031 21.636719 4.28125 20.703125 C 3.785156 20.199219 3.351562 19.628906 2.996094 19.007812 C 2.292969 17.765625 1.917969 16.351562 1.917969 14.914062 C 1.917969 14.308594 1.984375 13.707031 2.117188 13.117188 C 2.199219 12.875 2.429688 12.699219 2.699219 12.699219 C 2.8125 12.699219 2.921875 12.730469 3.011719 12.785156 L 3.074219 12.824219 C 3.078125 12.824219 3.082031 12.828125 3.085938 12.828125 C 3.101562 12.828125 3.113281 12.816406 3.113281 12.800781 C 3.113281 12.796875 3.113281 12.792969 3.109375 12.789062 L 3.113281 12.789062 L 3.09375 12.75 C 3.015625 12.542969 3.03125 12.152344 3.222656 11.601562 C 3.226562 11.585938 3.230469 11.574219 3.234375 11.5625 C 3.234375 11.558594 3.238281 11.558594 3.238281 11.554688 C 3.257812 11.496094 3.28125 11.4375 3.304688 11.378906 C 3.308594 11.367188 3.3125 11.355469 3.320312 11.34375 C 3.40625 11.121094 3.515625 10.882812 3.640625 10.652344 C 4.851562 8.460938 6.582031 7.460938 7.90625 7.007812 C 8.585938 6.824219 9.289062 6.726562 9.996094 6.726562 C 11.410156 6.730469 12.804688 7.109375 14.03125 7.824219 C 14.550781 8.128906 15.03125 8.488281 15.46875 8.898438 C 15.632812 9.09375 15.667969 9.382812 15.535156 9.621094 C 15.476562 9.71875 15.398438 9.796875 15.304688 9.851562 L 15.242188 9.886719 C 15.238281 9.886719 15.234375 9.890625 15.234375 9.894531 C 15.226562 9.90625 15.230469 9.925781 15.242188 9.933594 C 15.246094 9.933594 15.25 9.933594 15.253906 9.9375 L 15.296875 9.941406 C 15.511719 9.976562 15.839844 10.183594 16.214844 10.628906 C 16.222656 10.636719 16.230469 10.648438 16.238281 10.660156 C 16.242188 10.660156 16.242188 10.664062 16.242188 10.664062 C 16.28125 10.710938 16.320312 10.757812 16.359375 10.808594 C 16.367188 10.820312 16.375 10.832031 16.382812 10.839844 C 16.53125 11.03125 16.679688 11.242188 16.8125 11.46875 C 18.082031 13.628906 18.066406 15.648438 17.796875 17.035156 C 17.613281 17.722656 17.34375 18.390625 16.988281 19.011719 C 16.28125 20.25 15.257812 21.289062 14.035156 22.007812 C 13.515625 22.308594 12.96875 22.550781 12.398438 22.730469 "/>
<path style=" stroke:none;fill-rule:nonzero;fill:rgb(100%,100%,100%);fill-opacity:1;" d="M 2.679688 3.070312 L 2.636719 1.898438 L 2.394531 2.007812 L 2.34375 1.746094 L 2.707031 1.605469 L 2.90625 1.597656 L 2.964844 3.058594 Z M 2.679688 3.070312 "/>
<path style=" stroke:none;fill-rule:nonzero;fill:rgb(100%,100%,100%);fill-opacity:1;" d="M 3.617188 2.886719 C 3.617188 2.980469 3.542969 3.066406 3.449219 3.070312 C 3.351562 3.070312 3.269531 2.996094 3.269531 2.898438 C 3.261719 2.800781 3.339844 2.71875 3.4375 2.714844 C 3.53125 2.710938 3.613281 2.789062 3.617188 2.886719 "/>
<path style=" stroke:none;fill-rule:nonzero;fill:rgb(100%,100%,100%);fill-opacity:1;" d="M 4.601562 1.78125 L 4.613281 2.160156 L 5.078125 2.144531 L 5.085938 2.378906 L 4.617188 2.390625 L 4.636719 3.003906 L 4.355469 3.011719 L 4.316406 1.550781 L 5.089844 1.53125 L 5.09375 1.769531 Z M 4.601562 1.78125 "/>
<path style=" stroke:none;fill-rule:nonzero;fill:rgb(100%,100%,100%);fill-opacity:1;" d="M 5.914062 2.992188 C 5.574219 3 5.410156 2.84375 5.40625 2.585938 L 5.390625 1.859375 L 5.667969 1.851562 L 5.679688 2.519531 C 5.683594 2.691406 5.765625 2.765625 5.921875 2.761719 C 6.089844 2.757812 6.15625 2.660156 6.152344 2.496094 L 6.140625 1.84375 L 6.410156 1.835938 L 6.425781 2.527344 C 6.429688 2.777344 6.277344 2.984375 5.914062 2.992188 "/>
<path style=" stroke:none;fill-rule:nonzero;fill:rgb(100%,100%,100%);fill-opacity:1;" d="M 6.992188 2.976562 C 6.921875 2.976562 6.835938 2.96875 6.773438 2.953125 L 6.78125 2.707031 C 6.847656 2.730469 6.929688 2.746094 7.015625 2.746094 C 7.109375 2.742188 7.183594 2.699219 7.183594 2.613281 C 7.179688 2.441406 6.734375 2.546875 6.730469 2.175781 C 6.726562 1.957031 6.890625 1.804688 7.195312 1.800781 C 7.253906 1.800781 7.335938 1.808594 7.398438 1.816406 L 7.394531 2.050781 C 7.332031 2.035156 7.25 2.023438 7.1875 2.023438 C 7.070312 2.027344 7.023438 2.074219 7.023438 2.140625 C 7.023438 2.300781 7.480469 2.230469 7.484375 2.574219 C 7.488281 2.8125 7.300781 2.972656 6.992188 2.976562 "/>
<path style=" stroke:none;fill-rule:nonzero;fill:rgb(100%,100%,100%);fill-opacity:1;" d="M 7.992188 2.964844 C 7.921875 2.964844 7.835938 2.953125 7.773438 2.941406 L 7.78125 2.691406 C 7.84375 2.71875 7.929688 2.730469 8.015625 2.730469 C 8.109375 2.730469 8.183594 2.6875 8.183594 2.601562 C 8.183594 2.429688 7.738281 2.53125 7.734375 2.164062 C 7.730469 1.941406 7.894531 1.792969 8.199219 1.789062 C 8.257812 1.789062 8.339844 1.796875 8.402344 1.804688 L 8.398438 2.039062 C 8.335938 2.023438 8.253906 2.011719 8.191406 2.011719 C 8.074219 2.015625 8.023438 2.058594 8.023438 2.128906 C 8.027344 2.289062 8.480469 2.21875 8.484375 2.5625 C 8.488281 2.800781 8.300781 2.960938 7.992188 2.964844 "/>
<path style=" stroke:none;fill-rule:nonzero;fill:rgb(100%,100%,100%);fill-opacity:1;" d="M 9.171875 2.4375 C 9.148438 2.4375 9.105469 2.4375 9.078125 2.441406 L 9.082031 2.730469 C 9.113281 2.734375 9.15625 2.734375 9.199219 2.734375 C 9.332031 2.734375 9.394531 2.671875 9.394531 2.578125 C 9.394531 2.480469 9.3125 2.4375 9.171875 2.4375 M 9.191406 1.992188 C 9.15625 1.992188 9.113281 1.996094 9.078125 1.996094 L 9.078125 2.265625 C 9.109375 2.265625 9.140625 2.265625 9.15625 2.265625 C 9.289062 2.265625 9.375 2.21875 9.375 2.121094 C 9.375 2.042969 9.332031 1.992188 9.191406 1.992188 M 9.203125 2.933594 C 9.125 2.933594 8.976562 2.929688 8.808594 2.933594 L 8.804688 1.804688 C 8.917969 1.804688 9.097656 1.796875 9.246094 1.796875 C 9.542969 1.796875 9.667969 1.898438 9.667969 2.078125 C 9.667969 2.1875 9.609375 2.28125 9.496094 2.324219 L 9.496094 2.328125 C 9.621094 2.363281 9.683594 2.457031 9.683594 2.578125 C 9.683594 2.746094 9.570312 2.933594 9.203125 2.933594 "/>
<path style=" stroke:none;fill-rule:nonzero;fill:rgb(100%,100%,100%);fill-opacity:1;" d="M 10.476562 2.265625 C 10.457031 2.210938 10.4375 2.148438 10.425781 2.097656 L 10.421875 2.097656 C 10.410156 2.148438 10.390625 2.207031 10.371094 2.257812 L 10.273438 2.53125 L 10.574219 2.53125 Z M 10.707031 2.929688 L 10.636719 2.734375 L 10.210938 2.730469 L 10.136719 2.929688 L 9.859375 2.929688 L 10.273438 1.800781 L 10.601562 1.804688 L 11.007812 2.929688 Z M 10.707031 2.929688 "/>
<path style=" stroke:none;fill-rule:nonzero;fill:rgb(100%,100%,100%);fill-opacity:1;" d="M 11.265625 2.933594 L 11.273438 1.804688 L 11.546875 1.808594 L 11.542969 2.6875 L 11.902344 2.691406 L 11.902344 2.9375 Z M 11.265625 2.933594 "/>
<path style=" stroke:none;fill-rule:nonzero;fill:rgb(100%,100%,100%);fill-opacity:1;" d="M 12.164062 2.941406 L 12.179688 1.816406 L 12.457031 1.816406 L 12.445312 2.695312 L 12.804688 2.703125 L 12.800781 2.949219 Z M 12.164062 2.941406 "/>
<path style=" stroke:none;fill-rule:nonzero;fill:rgb(100%,100%,100%);fill-opacity:1;" d="M 13.648438 2.980469 C 13.144531 2.972656 12.988281 2.628906 12.992188 2.265625 C 13 1.804688 13.246094 1.484375 13.730469 1.492188 C 13.832031 1.492188 13.941406 1.507812 14.035156 1.535156 L 14 1.792969 C 13.90625 1.761719 13.808594 1.746094 13.710938 1.742188 C 13.441406 1.738281 13.304688 1.941406 13.300781 2.226562 C 13.292969 2.542969 13.421875 2.722656 13.710938 2.726562 C 13.800781 2.730469 13.917969 2.707031 13.992188 2.671875 L 14.019531 2.925781 C 13.914062 2.960938 13.78125 2.984375 13.648438 2.980469 "/>
<path style=" stroke:none;fill-rule:nonzero;fill:rgb(100%,100%,100%);fill-opacity:1;" d="M 14.328125 2.976562 L 14.355469 1.851562 L 14.628906 1.859375 L 14.609375 2.738281 L 14.972656 2.746094 L 14.964844 2.992188 Z M 14.328125 2.976562 "/>
<path style=" stroke:none;fill-rule:nonzero;fill:rgb(100%,100%,100%);fill-opacity:1;" d="M 15.695312 3.03125 C 15.359375 3.023438 15.203125 2.859375 15.210938 2.601562 L 15.234375 1.875 L 15.507812 1.882812 L 15.488281 2.546875 C 15.484375 2.722656 15.5625 2.796875 15.71875 2.800781 C 15.886719 2.808594 15.957031 2.714844 15.960938 2.550781 L 15.980469 1.894531 L 16.253906 1.902344 L 16.230469 2.59375 C 16.222656 2.84375 16.0625 3.042969 15.695312 3.03125 "/>
<path style=" stroke:none;fill-rule:nonzero;fill:rgb(100%,100%,100%);fill-opacity:1;" d="M 17.027344 2.121094 C 16.992188 2.117188 16.949219 2.121094 16.914062 2.117188 L 16.902344 2.386719 C 16.933594 2.390625 16.964844 2.390625 16.980469 2.390625 C 17.113281 2.394531 17.199219 2.351562 17.203125 2.253906 C 17.207031 2.179688 17.167969 2.125 17.027344 2.121094 M 16.988281 2.566406 C 16.964844 2.5625 16.921875 2.5625 16.894531 2.5625 L 16.886719 2.851562 C 16.917969 2.855469 16.960938 2.859375 17.003906 2.863281 C 17.136719 2.867188 17.203125 2.808594 17.203125 2.714844 C 17.207031 2.613281 17.128906 2.570312 16.988281 2.566406 M 17 3.0625 C 16.921875 3.058594 16.777344 3.046875 16.605469 3.042969 L 16.644531 1.917969 C 16.757812 1.921875 16.941406 1.921875 17.085938 1.925781 C 17.386719 1.9375 17.503906 2.046875 17.5 2.222656 C 17.492188 2.332031 17.429688 2.425781 17.320312 2.464844 L 17.320312 2.46875 C 17.441406 2.507812 17.5 2.605469 17.496094 2.726562 C 17.488281 2.894531 17.367188 3.074219 17 3.0625 "/>
<path style=" stroke:none;fill-rule:nonzero;fill:rgb(100%,100%,100%);fill-opacity:1;" d="M 2.496094 5.402344 L 2.472656 4.769531 L 1.863281 4.796875 L 1.886719 5.429688 L 1.609375 5.441406 L 1.550781 3.980469 L 1.828125 3.96875 L 1.851562 4.550781 L 2.460938 4.527344 L 2.4375 3.941406 L 2.714844 3.929688 L 2.773438 5.390625 Z M 2.496094 5.402344 "/>
<path style=" stroke:none;fill-rule:nonzero;fill:rgb(100%,100%,100%);fill-opacity:1;" d="M 3.144531 5.378906 L 3.105469 4.253906 L 3.789062 4.230469 L 3.796875 4.449219 L 3.390625 4.460938 L 3.398438 4.6875 L 3.785156 4.671875 L 3.792969 4.886719 L 3.40625 4.898438 L 3.414062 5.144531 L 3.820312 5.132812 L 3.828125 5.355469 Z M 3.144531 5.378906 "/>
<path style=" stroke:none;fill-rule:nonzero;fill:rgb(100%,100%,100%);fill-opacity:1;" d="M 4.1875 5.34375 L 4.152344 4.21875 L 4.429688 4.210938 L 4.460938 5.335938 Z M 4.1875 5.34375 "/>
<path style=" stroke:none;fill-rule:nonzero;fill:rgb(100%,100%,100%);fill-opacity:1;" d="M 5.246094 4.410156 C 5.203125 4.410156 5.152344 4.414062 5.113281 4.417969 L 5.128906 5.082031 C 5.15625 5.085938 5.207031 5.085938 5.253906 5.085938 C 5.453125 5.082031 5.59375 4.964844 5.589844 4.734375 C 5.582031 4.515625 5.46875 4.402344 5.246094 4.410156 M 5.234375 5.320312 C 5.082031 5.324219 4.964844 5.324219 4.859375 5.320312 L 4.832031 4.199219 C 4.933594 4.191406 5.128906 4.183594 5.265625 4.179688 C 5.628906 4.171875 5.871094 4.320312 5.878906 4.714844 C 5.890625 5.125 5.605469 5.3125 5.234375 5.320312 "/>
<path style=" stroke:none;fill-rule:nonzero;fill:rgb(100%,100%,100%);fill-opacity:1;" d="M 6.1875 5.292969 L 6.167969 4.167969 L 6.851562 4.152344 L 6.855469 4.371094 L 6.445312 4.378906 L 6.449219 4.605469 L 6.839844 4.597656 L 6.84375 4.808594 L 6.453125 4.816406 L 6.460938 5.0625 L 6.867188 5.058594 L 6.871094 5.28125 Z M 6.1875 5.292969 "/>
<path style=" stroke:none;fill-rule:nonzero;fill:rgb(100%,100%,100%);fill-opacity:1;" d="M 7.925781 5.265625 L 7.585938 4.71875 C 7.550781 4.65625 7.507812 4.578125 7.480469 4.515625 C 7.484375 4.570312 7.488281 4.625 7.488281 4.714844 L 7.492188 5.269531 L 7.230469 5.273438 L 7.214844 4.148438 L 7.585938 4.144531 L 7.914062 4.675781 C 7.957031 4.742188 7.996094 4.8125 8.03125 4.890625 L 8.035156 4.890625 C 8.027344 4.824219 8.027344 4.730469 8.023438 4.613281 L 8.015625 4.136719 L 8.285156 4.136719 L 8.296875 5.261719 Z M 7.925781 5.265625 "/>
<path style=" stroke:none;fill-rule:nonzero;fill:rgb(100%,100%,100%);fill-opacity:1;" d="M 9.441406 5.253906 L 9.441406 4.800781 L 8.96875 4.800781 L 8.96875 5.257812 L 8.695312 5.257812 L 8.691406 4.132812 L 8.964844 4.132812 L 8.96875 4.5625 L 9.441406 4.558594 L 9.4375 4.128906 L 9.714844 4.128906 L 9.71875 5.253906 Z M 9.441406 5.253906 "/>
<path style=" stroke:none;fill-rule:nonzero;fill:rgb(100%,100%,100%);fill-opacity:1;" d="M 10.117188 5.253906 L 10.121094 4.128906 L 10.804688 4.128906 L 10.804688 4.347656 L 10.394531 4.347656 L 10.394531 4.574219 L 10.785156 4.574219 L 10.785156 4.785156 L 10.394531 4.785156 L 10.394531 5.03125 L 10.800781 5.03125 L 10.800781 5.253906 Z M 10.117188 5.253906 "/>
<path style=" stroke:none;fill-rule:nonzero;fill:rgb(100%,100%,100%);fill-opacity:1;" d="M 11.15625 5.257812 L 11.164062 4.132812 L 11.441406 4.132812 L 11.433594 5.257812 Z M 11.15625 5.257812 "/>
<path style=" stroke:none;fill-rule:nonzero;fill:rgb(100%,100%,100%);fill-opacity:1;" d="M 12.988281 5.277344 L 12.921875 4.734375 C 12.910156 4.640625 12.902344 4.550781 12.894531 4.488281 C 12.878906 4.558594 12.855469 4.636719 12.835938 4.710938 L 12.648438 5.273438 L 12.363281 5.269531 L 12.207031 4.746094 C 12.183594 4.664062 12.160156 4.5625 12.144531 4.480469 L 12.140625 4.480469 C 12.136719 4.566406 12.125 4.648438 12.113281 4.738281 L 12.039062 5.265625 L 11.765625 5.261719 L 11.949219 4.136719 L 12.296875 4.140625 L 12.472656 4.714844 C 12.492188 4.777344 12.507812 4.851562 12.523438 4.929688 C 12.539062 4.847656 12.558594 4.789062 12.582031 4.722656 L 12.777344 4.148438 L 13.128906 4.152344 L 13.28125 5.28125 Z M 12.988281 5.277344 "/>
<path style=" stroke:none;fill-rule:nonzero;fill:rgb(100%,100%,100%);fill-opacity:1;" d="M 14.296875 5.300781 L 14.324219 4.128906 L 14.074219 4.222656 L 14.039062 3.957031 L 14.410156 3.84375 L 14.609375 3.847656 L 14.578125 5.308594 Z M 14.296875 5.300781 "/>
<path style=" stroke:none;fill-rule:nonzero;fill:rgb(100%,100%,100%);fill-opacity:1;" d="M 15.414062 4.0625 C 15.285156 4.058594 15.210938 4.121094 15.207031 4.21875 C 15.207031 4.3125 15.28125 4.375 15.410156 4.449219 C 15.535156 4.375 15.601562 4.308594 15.601562 4.226562 C 15.605469 4.140625 15.546875 4.066406 15.414062 4.0625 M 15.371094 4.703125 C 15.261719 4.769531 15.175781 4.835938 15.171875 4.9375 C 15.167969 5.046875 15.25 5.121094 15.386719 5.125 C 15.507812 5.128906 15.605469 5.066406 15.609375 4.957031 C 15.613281 4.84375 15.5 4.773438 15.371094 4.703125 M 15.355469 5.355469 C 15.050781 5.347656 14.878906 5.1875 14.882812 4.957031 C 14.886719 4.789062 15.011719 4.671875 15.15625 4.585938 C 15.007812 4.496094 14.925781 4.386719 14.929688 4.238281 C 14.9375 3.984375 15.148438 3.832031 15.441406 3.839844 C 15.71875 3.847656 15.890625 4.003906 15.882812 4.210938 C 15.878906 4.375 15.765625 4.476562 15.628906 4.566406 C 15.78125 4.660156 15.898438 4.773438 15.894531 4.949219 C 15.886719 5.226562 15.636719 5.363281 15.355469 5.355469 "/>
<path style=" stroke:none;fill-rule:nonzero;fill:rgb(100%,100%,100%);fill-opacity:1;" d="M 16.738281 4.175781 L 16.734375 4.175781 L 16.351562 4.765625 C 16.445312 4.765625 16.648438 4.773438 16.714844 4.773438 Z M 16.972656 5.03125 L 16.960938 5.378906 L 16.691406 5.371094 L 16.703125 5.023438 L 16.117188 5.003906 L 16.085938 4.78125 L 16.664062 3.90625 L 17.011719 3.921875 L 16.980469 4.777344 L 17.195312 4.785156 L 17.1875 5.039062 Z M 16.972656 5.03125 "/>
<path style=" stroke:none;fill-rule:nonzero;fill:rgb(100%,100%,100%);fill-opacity:1;" d="M 17.933594 4.714844 C 17.792969 4.707031 17.699219 4.808594 17.691406 4.9375 C 17.6875 5.085938 17.761719 5.199219 17.902344 5.207031 C 18.058594 5.210938 18.144531 5.109375 18.152344 4.960938 C 18.15625 4.816406 18.082031 4.71875 17.933594 4.714844 M 17.871094 5.441406 C 17.574219 5.429688 17.382812 5.214844 17.398438 4.800781 C 17.421875 4.203125 17.761719 3.929688 18.175781 3.949219 C 18.246094 3.949219 18.304688 3.957031 18.34375 3.964844 L 18.332031 4.210938 C 18.277344 4.195312 18.226562 4.1875 18.164062 4.183594 C 17.945312 4.175781 17.785156 4.289062 17.714844 4.527344 C 17.707031 4.546875 17.703125 4.570312 17.695312 4.597656 L 17.695312 4.601562 C 17.769531 4.523438 17.875 4.480469 18.011719 4.488281 C 18.285156 4.5 18.449219 4.6875 18.4375 4.9375 C 18.425781 5.257812 18.195312 5.453125 17.871094 5.441406 "/>
<path style=" stroke:none;fill-rule:nonzero;fill:rgb(100%,100%,100%);fill-opacity:1;" d="M 10.058594 18.335938 C 7.949219 18.335938 7.71875 16.828125 7.71875 15.214844 C 7.71875 13.234375 8.164062 11.722656 10.304688 11.722656 C 10.757812 11.722656 10.863281 11.777344 11.277344 11.894531 L 11.144531 13.027344 C 10.730469 12.902344 10.671875 12.835938 10.238281 12.835938 C 9.164062 12.835938 9.070312 13.886719 9.070312 15.003906 C 9.070312 16.214844 9.179688 17.203125 10.320312 17.203125 C 10.710938 17.203125 10.851562 17.085938 11.183594 16.933594 L 11.324219 18.046875 C 10.851562 18.21875 10.652344 18.335938 10.058594 18.335938 "/>
<path style=" stroke:none;fill-rule:nonzero;fill:rgb(100%,100%,100%);fill-opacity:1;" d="M 14.511719 18.246094 L 14.542969 18.246094 C 15.527344 18.242188 15.738281 17.546875 15.742188 16.632812 L 15.742188 11.769531 L 14.511719 11.769531 L 14.511719 14.359375 L 13.082031 14.359375 L 13.082031 11.769531 L 11.847656 11.769531 L 11.847656 18.246094 L 13.082031 18.246094 L 13.082031 15.4375 L 14.511719 15.4375 Z M 14.511719 18.246094 "/>
<path style=" stroke:none;fill-rule:nonzero;fill:rgb(100%,100%,100%);fill-opacity:1;" d="M 5.707031 13.316406 C 5.707031 13.039062 5.769531 12.824219 6.074219 12.824219 L 7.476562 12.824219 L 7.476562 11.769531 L 5.683594 11.769531 C 4.6875 11.769531 4.476562 12.46875 4.476562 13.386719 L 4.476562 18.246094 L 5.707031 18.246094 L 5.707031 15.523438 L 7.203125 15.523438 L 7.203125 14.496094 L 5.707031 14.496094 Z M 5.707031 13.316406 "/>
</g>
</svg>
