<?xml version="1.0" encoding="UTF-8"?>
<svg xmlns="http://www.w3.org/2000/svg" xmlns:xlink="http://www.w3.org/1999/xlink" width="35pt" height="25pt" viewBox="0 0 35 25" version="1.1">
<g id="surface1">
<path style=" stroke:none;fill-rule:nonzero;fill:rgb(100%,100%,100%);fill-opacity:1;" d="M 17.699219 25 L 10 12.5625 L 17.699219 0 L 25.402344 12.5625 Z M 17.699219 25 "/>
<path style=" stroke:none;fill-rule:nonzero;fill:rgb(0%,0%,0%);fill-opacity:1;" d="M 17.699219 24.175781 L 10.453125 12.550781 L 17.699219 0.824219 L 24.945312 12.5625 Z M 17.699219 24.175781 "/>
<path style=" stroke:none;fill-rule:nonzero;fill:rgb(100%,100%,100%);fill-opacity:1;" d="M 17.699219 22.089844 L 11.679688 12.5625 L 17.699219 2.910156 L 23.726562 12.5625 Z M 17.699219 22.089844 "/>
<path style=" stroke:none;fill-rule:nonzero;fill:rgb(0%,0%,0%);fill-opacity:1;" d="M 17.699219 21.246094 L 12.109375 12.5625 L 17.71875 3.714844 L 23.277344 12.5625 Z M 17.699219 21.246094 "/>
<path style=" stroke:none;fill-rule:nonzero;fill:rgb(100%,100%,100%);fill-opacity:1;" d="M 20.027344 8.230469 L 15.320312 8.230469 L 16.414062 6.53125 L 19.011719 6.53125 Z M 20.027344 8.230469 "/>
<path style=" stroke:none;fill-rule:nonzero;fill:rgb(100%,100%,100%);fill-opacity:1;" d="M 19.027344 8.820312 C 19.730469 8.984375 20.433594 9.585938 20.640625 10.289062 C 20.832031 11.066406 20.800781 12.023438 20.171875 12.566406 C 20.683594 13.34375 20.949219 14.589844 20.375 15.441406 C 20.039062 15.925781 19.519531 16.257812 18.964844 16.332031 L 15.238281 16.332031 L 15.238281 8.820312 C 15.238281 8.820312 17.777344 8.808594 19.027344 8.820312 Z M 19.027344 8.820312 "/>
<path style=" stroke:none;fill-rule:nonzero;fill:rgb(0%,0%,0%);fill-opacity:1;" d="M 18.953125 9.128906 C 19.613281 9.246094 20.183594 9.910156 20.390625 10.539062 C 20.507812 11.289062 20.332031 12.066406 19.714844 12.519531 C 19.789062 12.800781 20.097656 13.003906 20.171875 13.300781 C 20.464844 13.960938 20.449219 14.914062 19.949219 15.472656 C 19.632812 15.820312 19.25 15.917969 18.726562 15.953125 C 18.082031 15.953125 17.410156 15.953125 17.09375 15.953125 C 16.570312 15.953125 15.613281 15.953125 15.613281 15.953125 L 15.613281 9.136719 Z M 18.953125 9.128906 "/>
<path style=" stroke:none;fill-rule:nonzero;fill:rgb(100%,100%,100%);fill-opacity:1;" d="M 22.101562 11.578125 L 22.605469 12.5625 C 22.605469 12.5625 22.3125 12.953125 22.09375 13.265625 C 21.734375 13.265625 21.332031 13.265625 20.910156 13.265625 C 20.851562 13.015625 20.765625 12.769531 20.632812 12.550781 C 20.871094 12.246094 21.046875 11.929688 21.09375 11.578125 C 21.472656 11.589844 21.726562 11.578125 22.101562 11.578125 Z M 22.101562 11.578125 "/>
<path style=" stroke:none;fill-rule:nonzero;fill:rgb(100%,100%,100%);fill-opacity:1;" d="M 12.632812 12.5625 L 13.242188 11.582031 L 14.828125 11.582031 L 14.824219 13.265625 L 13.15625 13.265625 Z M 12.632812 12.5625 "/>
<path style=" stroke:none;fill-rule:nonzero;fill:rgb(100%,100%,100%);fill-opacity:1;" d="M 18.585938 13.265625 C 19.191406 13.386719 19.292969 14.457031 18.585938 14.6875 L 16.796875 14.6875 L 16.796875 13.265625 C 16.796875 13.265625 17.835938 13.261719 18.585938 13.265625 Z M 18.585938 13.265625 "/>
<path style=" stroke:none;fill-rule:nonzero;fill:rgb(0%,0%,0%);fill-opacity:1;" d="M 18.476562 13.515625 C 18.863281 13.613281 18.980469 14.238281 18.476562 14.402344 C 17.9375 14.402344 17.054688 14.402344 17.054688 14.402344 L 17.054688 13.515625 C 17.054688 13.515625 18.082031 13.515625 18.476562 13.515625 Z M 18.476562 13.515625 "/>
<path style=" stroke:none;fill-rule:nonzero;fill:rgb(100%,100%,100%);fill-opacity:1;" d="M 18.992188 18.457031 L 16.320312 18.457031 L 15.292969 16.753906 L 20.128906 16.753906 Z M 18.992188 18.457031 "/>
<path style=" stroke:none;fill-rule:nonzero;fill:rgb(100%,100%,100%);fill-opacity:1;" d="M 18.601562 10.480469 C 19.207031 10.597656 19.308594 11.671875 18.601562 11.902344 L 16.8125 11.902344 L 16.8125 10.480469 C 16.8125 10.480469 17.851562 10.472656 18.601562 10.480469 Z M 18.601562 10.480469 "/>
<path style=" stroke:none;fill-rule:nonzero;fill:rgb(0%,0%,0%);fill-opacity:1;" d="M 18.492188 10.726562 C 18.875 10.828125 18.996094 11.453125 18.492188 11.617188 C 17.949219 11.617188 17.070312 11.617188 17.070312 11.617188 L 17.070312 10.726562 C 17.070312 10.726562 18.097656 10.726562 18.492188 10.726562 Z M 18.492188 10.726562 "/>
</g>
</svg>
