<?xml version="1.0" encoding="UTF-8"?>
<svg xmlns="http://www.w3.org/2000/svg" xmlns:xlink="http://www.w3.org/1999/xlink" width="34pt" height="25pt" viewBox="0 0 34 25" version="1.1">
<g id="surface1">
<path style="fill-rule:evenodd;fill:rgb(100%,100%,100%);fill-opacity:1;stroke-width:7.901672;stroke-linecap:butt;stroke-linejoin:miter;stroke:rgb(80%,0%,0%);stroke-opacity:1;stroke-miterlimit:4;" d="M 38.20167 220.38681 C 38.20167 263.089671 3.581015 297.704676 -39.122877 297.704676 C -81.826769 297.704676 -116.447425 263.089671 -116.447425 220.38681 C -116.447425 177.683949 -81.826769 143.068944 -39.122877 143.068944 C 3.581015 143.068944 38.20167 177.683949 38.20167 220.38681 Z M 38.20167 220.38681 " transform="matrix(0.153675,0,0,0.153587,23.117658,-21.368026)"/>
<path style="fill:none;stroke-width:23.439804;stroke-linecap:butt;stroke-linejoin:miter;stroke:rgb(80%,0%,0%);stroke-opacity:1;stroke-miterlimit:4;" d="M 226.592086 204.214397 C 226.592086 238.7713 198.591548 266.787839 164.030612 266.787839 C 129.469677 266.787839 101.445369 238.7713 101.445369 204.214397 C 101.445369 169.633712 129.469677 141.617173 164.030612 141.617173 C 198.591548 141.617173 226.592086 169.633712 226.592086 204.214397 Z M 226.592086 204.214397 " transform="matrix(0.164338,0,0,0.164245,-9.808084,-21.009842)"/>
<path style=" stroke:none;fill-rule:evenodd;fill:rgb(80%,0%,0%);fill-opacity:1;" d="M 15.914062 5.8125 L 18.101562 5.8125 L 18.101562 5.421875 L 18.609375 4.644531 L 17.640625 5.070312 L 17.007812 4.402344 C 17.007812 4.402344 16.4375 5.046875 16.339844 5 C 16.242188 4.949219 15.40625 4.621094 15.40625 4.621094 L 15.914062 5.410156 Z M 15.914062 5.8125 "/>
<path style=" stroke:none;fill-rule:evenodd;fill:rgb(80%,0%,0%);fill-opacity:1;" d="M 21.855469 6.746094 C 21.617188 7.058594 21.550781 7.804688 21.226562 8.003906 C 20.902344 8.203125 20.5 8.261719 20.308594 8.769531 L 20.304688 9.253906 C 20.3125 9.3125 20.285156 9.359375 20.230469 9.398438 L 19.792969 9.402344 C 19.253906 9.964844 18.105469 11.328125 18.097656 9.199219 L 18.121094 8.683594 L 18.550781 8.671875 C 18.914062 8.59375 18.992188 7.914062 18.832031 8.023438 C 18.214844 8.421875 18.140625 7.878906 18.230469 7.5625 C 18.320312 7.257812 18.738281 6.945312 18.789062 6.890625 C 18.882812 6.6875 18.84375 6.3125 18.78125 6.375 C 18.660156 6.878906 17.511719 6.753906 17.136719 6.363281 C 15.730469 6.308594 15.054688 6.714844 14.535156 6.980469 C 14.460938 7.027344 14.558594 7.339844 14.601562 7.324219 C 15.246094 7.023438 15.683594 6.773438 15.683594 7.546875 C 15.3125 7.578125 14.214844 7.597656 14.21875 7.261719 C 14.21875 7.179688 14.148438 7.1875 14.136719 7.195312 C 13.355469 7.914062 15.085938 8.035156 15.785156 7.714844 C 15.78125 7.832031 15.851562 7.964844 15.703125 8.042969 C 15.4375 8.074219 14.960938 7.949219 14.902344 8.042969 C 14.722656 8.433594 15.484375 8.511719 16.042969 8.382812 C 16.15625 8.554688 16.296875 8.71875 16.210938 8.925781 L 15.660156 8.964844 L 16.023438 9.28125 L 16.277344 9.097656 C 16.269531 11.230469 15.117188 10.125 14.425781 9.410156 L 13.992188 9.402344 C 13.9375 9.363281 13.90625 9.316406 13.914062 9.257812 L 13.910156 8.773438 C 13.722656 8.265625 13.316406 8.207031 12.992188 8.007812 C 12.667969 7.808594 12.605469 7.0625 12.367188 6.75 C 11.414062 6.910156 11.726562 8.742188 12.253906 9.269531 C 12.371094 9.332031 12.523438 9.792969 12.289062 9.660156 C 11.804688 9.40625 10.210938 8.164062 10.238281 8.140625 C 9.925781 8.488281 9.992188 9.125 10.390625 9.480469 C 10.738281 9.789062 11.195312 10.160156 11.644531 10.585938 C 11.683594 10.625 11.691406 10.667969 11.636719 10.710938 L 9.507812 10.726562 C 9.210938 10.675781 9.070312 10.664062 8.847656 10.695312 C 8.847656 11.660156 10.214844 11.785156 11.710938 11.828125 C 11.765625 11.867188 11.792969 11.910156 11.765625 11.964844 C 10.582031 12.289062 9.355469 12.5625 8.246094 12.976562 C 8.234375 14.160156 10.851562 13.703125 12.269531 13.097656 C 12.453125 13.015625 12.886719 12.859375 12.566406 13.167969 L 9.34375 15.394531 C 9.453125 15.890625 10.316406 16.402344 12.996094 14.453125 C 13.164062 14.332031 13.335938 14.246094 13.484375 14.144531 C 13.6875 13.996094 13.804688 14.132812 13.699219 14.246094 C 13.496094 14.675781 13.140625 14.996094 12.867188 15.339844 L 13.136719 15.546875 C 12.566406 16.15625 12.328125 16.496094 12.234375 16.609375 C 12.167969 16.6875 12.121094 16.699219 12.058594 16.65625 C 11.921875 16.511719 11.777344 16.371094 11.574219 16.261719 C 11.546875 16.253906 11.507812 16.257812 11.417969 16.304688 C 11.285156 16.375 10.988281 16.316406 10.851562 16.332031 C 10.402344 16.472656 10.550781 16.570312 10.558594 16.742188 C 10.683594 16.679688 10.664062 16.550781 11.003906 16.589844 C 11.140625 16.789062 11.347656 16.902344 11.578125 16.976562 C 11.664062 16.992188 11.710938 17.058594 11.648438 17.097656 C 11.433594 17.175781 11.050781 17.277344 11.0625 17.378906 C 11.050781 17.433594 11.070312 17.523438 11.011719 17.542969 C 10.546875 17.695312 10.738281 17.980469 10.847656 18.171875 C 10.882812 18.023438 10.917969 17.878906 11.078125 17.828125 L 11.222656 17.875 C 11.320312 17.921875 11.644531 17.722656 11.808594 17.5625 C 11.835938 17.53125 11.867188 17.542969 11.894531 17.570312 C 11.6875 17.941406 11.675781 18.183594 11.75 18.363281 C 11.78125 18.445312 11.867188 18.335938 11.875 18.421875 C 11.890625 18.609375 12.164062 18.871094 12.308594 18.980469 C 12.253906 18.777344 12.125 18.570312 12.183594 18.363281 C 12.371094 18.375 12.589844 18.035156 12.347656 17.722656 C 12.277344 17.683594 12.402344 17.46875 12.433594 17.5 C 12.558594 17.667969 12.664062 17.933594 12.8125 18.003906 C 12.894531 18.035156 12.972656 18.066406 13.054688 18.003906 C 13.199219 18.070312 13.261719 18.277344 13.355469 18.429688 C 13.402344 18.308594 13.46875 18.199219 13.4375 18.03125 C 13.414062 17.902344 13.335938 17.84375 13.230469 17.820312 C 13.28125 17.753906 13.386719 17.65625 13.328125 17.605469 C 13.15625 17.394531 12.921875 17.183594 12.695312 17.003906 C 12.65625 16.96875 12.671875 16.925781 12.699219 16.886719 L 13.550781 15.859375 L 13.792969 16.050781 C 14.113281 15.625 14.398438 15.167969 14.824219 14.832031 C 15 14.691406 15.640625 14.699219 15.4375 15.308594 C 15 15.976562 14.476562 16.570312 13.925781 17.144531 C 13.515625 17.621094 13.707031 18.089844 13.789062 18.464844 C 13.800781 18.519531 13.910156 18.386719 13.910156 18.304688 C 13.917969 18.207031 13.921875 18.074219 14.046875 17.984375 C 14.101562 18.367188 14.371094 18.742188 14.5625 18.996094 C 14.542969 18.625 14.5 18.335938 14.558594 17.964844 C 14.570312 17.921875 14.621094 17.929688 14.648438 17.96875 C 14.6875 18.179688 14.863281 18.40625 15.027344 18.5625 C 15.152344 18.085938 15.070312 17.574219 15.394531 17.113281 C 15.882812 16.429688 16.300781 16.734375 16.222656 17.425781 L 15.882812 18.328125 C 15.347656 18.976562 15.722656 19.753906 16.074219 20.078125 C 16.109375 20.117188 16.179688 19.964844 16.164062 19.855469 C 16.121094 19.535156 16.210938 19.367188 16.382812 19.148438 C 16.402344 19.121094 16.464844 19.101562 16.515625 19.152344 C 16.640625 19.484375 16.851562 19.765625 17.066406 20.03125 C 17.089844 20.0625 17.128906 20.066406 17.15625 20.027344 C 17.367188 19.761719 17.578125 19.480469 17.703125 19.148438 C 17.753906 19.101562 17.816406 19.113281 17.835938 19.144531 C 18.011719 19.363281 18.097656 19.53125 18.058594 19.851562 C 18.039062 19.960938 18.109375 20.109375 18.148438 20.070312 C 18.496094 19.75 18.875 18.972656 18.335938 18.324219 L 17.992188 17.421875 C 17.917969 16.730469 18.335938 16.425781 18.824219 17.109375 C 19.148438 17.570312 19.070312 18.082031 19.191406 18.558594 C 19.359375 18.402344 19.53125 18.175781 19.570312 17.964844 C 19.601562 17.925781 19.648438 17.917969 19.65625 17.957031 C 19.71875 18.328125 19.675781 18.621094 19.65625 18.992188 C 19.847656 18.738281 20.117188 18.363281 20.171875 17.980469 C 20.296875 18.066406 20.304688 18.203125 20.308594 18.300781 C 20.308594 18.382812 20.421875 18.515625 20.429688 18.460938 C 20.515625 18.085938 20.703125 17.617188 20.292969 17.140625 C 19.742188 16.566406 19.21875 15.96875 18.78125 15.300781 C 18.578125 14.695312 19.214844 14.683594 19.394531 14.824219 C 19.820312 15.164062 20.109375 15.621094 20.425781 16.050781 L 20.671875 15.851562 L 21.519531 16.882812 C 21.550781 16.921875 21.5625 16.960938 21.523438 17 C 21.296875 17.179688 21.0625 17.394531 20.890625 17.601562 C 20.832031 17.652344 20.941406 17.746094 20.992188 17.816406 C 20.886719 17.839844 20.808594 17.898438 20.78125 18.027344 C 20.75 18.195312 20.816406 18.304688 20.863281 18.425781 C 20.957031 18.273438 21.019531 18.066406 21.164062 18 C 21.246094 18.0625 21.324219 18.03125 21.40625 18 C 21.554688 17.929688 21.660156 17.664062 21.789062 17.496094 C 21.820312 17.464844 21.941406 17.679688 21.875 17.71875 C 21.628906 18.03125 21.851562 18.371094 22.039062 18.359375 C 22.097656 18.566406 21.96875 18.769531 21.914062 18.976562 C 22.054688 18.867188 22.328125 18.605469 22.347656 18.417969 C 22.355469 18.328125 22.4375 18.441406 22.472656 18.363281 C 22.546875 18.179688 22.53125 17.941406 22.324219 17.566406 C 22.355469 17.539062 22.382812 17.527344 22.410156 17.558594 C 22.578125 17.71875 22.902344 17.921875 22.996094 17.871094 L 23.140625 17.824219 C 23.300781 17.871094 23.335938 18.023438 23.371094 18.167969 C 23.484375 17.976562 23.671875 17.691406 23.207031 17.542969 C 23.148438 17.519531 23.167969 17.429688 23.15625 17.371094 C 23.171875 17.273438 22.785156 17.167969 22.574219 17.09375 C 22.507812 17.054688 22.554688 16.988281 22.640625 16.972656 C 22.875 16.898438 23.078125 16.789062 23.21875 16.589844 C 23.554688 16.546875 23.535156 16.675781 23.660156 16.738281 C 23.667969 16.566406 23.816406 16.46875 23.367188 16.328125 C 23.234375 16.308594 22.9375 16.371094 22.804688 16.304688 C 22.710938 16.253906 22.675781 16.25 22.644531 16.257812 C 22.445312 16.367188 22.296875 16.507812 22.164062 16.65625 C 22.097656 16.695312 22.050781 16.683594 21.988281 16.605469 C 21.890625 16.492188 21.652344 16.152344 21.082031 15.546875 L 21.351562 15.332031 C 21.078125 14.988281 20.722656 14.671875 20.519531 14.242188 C 20.414062 14.128906 20.53125 13.988281 20.734375 14.140625 C 20.882812 14.238281 21.054688 14.328125 21.222656 14.453125 C 23.902344 16.402344 24.765625 15.890625 24.875 15.390625 L 21.652344 13.164062 C 21.332031 12.859375 21.765625 13.011719 21.949219 13.09375 C 23.367188 13.699219 25.984375 14.15625 25.972656 12.972656 C 24.863281 12.558594 23.636719 12.285156 22.457031 11.960938 C 22.429688 11.90625 22.453125 11.859375 22.503906 11.820312 C 24.003906 11.777344 25.371094 11.65625 25.371094 10.691406 C 25.148438 10.660156 25.007812 10.667969 24.710938 10.722656 L 22.582031 10.707031 C 22.527344 10.664062 22.539062 10.621094 22.574219 10.582031 C 23.027344 10.15625 23.484375 9.785156 23.828125 9.476562 C 24.226562 9.121094 24.292969 8.484375 23.984375 8.132812 C 24.007812 8.15625 22.417969 9.402344 21.929688 9.65625 C 21.695312 9.785156 21.851562 9.332031 21.964844 9.265625 C 22.496094 8.738281 22.808594 6.90625 21.855469 6.746094 Z M 21.855469 6.746094 "/>
<path style=" stroke:none;fill-rule:evenodd;fill:rgb(100%,100%,100%);fill-opacity:1;" d="M 16.277344 6.953125 C 16.21875 6.992188 16.324219 7.257812 16.386719 7.367188 L 16.980469 6.890625 C 16.765625 6.847656 16.503906 6.855469 16.277344 6.953125 Z M 16.277344 6.953125 "/>
<path style=" stroke:none;fill-rule:evenodd;fill:rgb(100%,100%,100%);fill-opacity:1;" d="M 15.996094 11.222656 L 18.222656 11.222656 C 18.292969 12.480469 17.851562 14.074219 17.132812 15 C 16.394531 14.117188 15.945312 12.480469 15.996094 11.222656 Z M 15.996094 11.222656 "/>
<path style=" stroke:none;fill-rule:evenodd;fill:rgb(80%,0%,0%);fill-opacity:1;" d="M 16.570312 11.726562 L 16.570312 13.617188 L 17.714844 13.617188 L 17.714844 13.335938 L 17.007812 13.335938 L 17.007812 12.785156 L 17.648438 12.785156 L 17.648438 12.484375 L 17.011719 12.484375 L 17.011719 11.988281 L 17.648438 11.988281 L 17.648438 11.722656 Z M 16.570312 11.726562 "/>
<path style=" stroke:none;fill-rule:evenodd;fill:rgb(100%,100%,100%);fill-opacity:1;" d="M 15.464844 12.074219 L 15.46875 12.421875 C 14.652344 12.25 13.84375 11.539062 13.480469 10.679688 C 13.359375 10.832031 12.933594 11.082031 12.714844 11 C 12.691406 10.84375 12.777344 10.695312 13.386719 10.527344 C 13.042969 10.222656 12.929688 9.820312 13.023438 9.519531 C 13.265625 9.625 13.566406 9.972656 13.546875 10.453125 C 13.785156 10.238281 14.023438 10.148438 14.414062 10.160156 C 14.273438 10.429688 13.972656 10.558594 13.648438 10.632812 C 14.042969 11.316406 14.5625 11.902344 15.464844 12.074219 Z M 15.464844 12.074219 "/>
<path style=" stroke:none;fill-rule:evenodd;fill:rgb(100%,100%,100%);fill-opacity:1;" d="M 18.769531 12.074219 L 18.765625 12.421875 C 19.582031 12.25 20.390625 11.539062 20.753906 10.679688 C 20.878906 10.832031 21.300781 11.082031 21.519531 11 C 21.542969 10.84375 21.460938 10.695312 20.847656 10.527344 C 21.195312 10.222656 21.308594 9.820312 21.214844 9.519531 C 20.96875 9.625 20.667969 9.972656 20.6875 10.453125 C 20.453125 10.238281 20.207031 10.148438 19.824219 10.160156 C 19.960938 10.429688 20.261719 10.558594 20.585938 10.632812 C 20.195312 11.316406 19.675781 11.902344 18.769531 12.074219 Z M 18.769531 12.074219 "/>
</g>
</svg>
