<?xml version="1.0" encoding="UTF-8"?>
<svg xmlns="http://www.w3.org/2000/svg" xmlns:xlink="http://www.w3.org/1999/xlink" width="35pt" height="25pt" viewBox="0 0 35 25" version="1.1">
<g id="surface1">
<path style=" stroke:none;fill-rule:evenodd;fill:rgb(100%,100%,100%);fill-opacity:1;" d="M 29.835938 12.5 C 29.835938 19.3125 24.3125 24.839844 17.496094 24.839844 C 10.683594 24.839844 5.160156 19.3125 5.160156 12.5 C 5.160156 5.6875 10.683594 0.160156 17.496094 0.160156 C 24.3125 0.160156 29.835938 5.6875 29.835938 12.5 Z M 29.835938 12.5 "/>
<path style=" stroke:none;fill-rule:nonzero;fill:rgb(0%,37.647059%,66.27451%);fill-opacity:1;" d="M 16.957031 24.996094 C 14.289062 24.875 11.765625 23.925781 9.6875 22.257812 C 6.253906 19.503906 4.519531 15.164062 5.117188 10.808594 C 5.449219 8.375 6.476562 6.121094 8.113281 4.25 C 8.328125 4.003906 8.839844 3.484375 9.101562 3.25 C 11.976562 0.640625 15.828125 -0.476562 19.664062 0.1875 C 25.03125 1.113281 29.210938 5.492188 29.902344 10.914062 C 29.976562 11.488281 29.996094 11.800781 29.996094 12.496094 C 29.996094 13.183594 29.984375 13.429688 29.917969 13.980469 C 29.660156 16.132812 28.859375 18.164062 27.574219 19.910156 C 26.394531 21.507812 24.851562 22.808594 23.066406 23.699219 C 21.636719 24.414062 20.140625 24.828125 18.480469 24.96875 C 18.242188 24.988281 17.214844 25.007812 16.957031 24.996094 Z M 18.519531 23.664062 C 19.828125 23.546875 20.890625 23.269531 21.960938 22.769531 C 22.878906 22.335938 23.371094 22.058594 23.976562 21.628906 C 25.191406 20.761719 26.257812 19.597656 27.027344 18.3125 C 28.023438 16.640625 28.558594 14.808594 28.609375 12.894531 L 28.617188 12.53125 L 21.179688 12.539062 L 21.179688 16.683594 L 21.789062 16.683594 C 22.339844 16.6875 22.398438 16.691406 22.417969 16.714844 C 22.445312 16.75 22.441406 19.632812 22.414062 19.863281 C 22.339844 20.464844 22.152344 20.9375 21.832031 21.355469 C 21.726562 21.492188 21.480469 21.746094 21.3125 21.882812 C 20.726562 22.359375 19.984375 22.660156 19.039062 22.796875 C 17.601562 23.003906 15.820312 22.886719 14.519531 22.496094 C 13.867188 22.300781 13.292969 22.03125 12.777344 21.683594 C 12.691406 21.621094 12.59375 21.550781 12.558594 21.523438 L 12.496094 21.476562 L 12.496094 12.519531 C 12.496094 5.375 12.5 3.554688 12.515625 3.539062 C 12.542969 3.507812 12.863281 3.316406 13.105469 3.1875 C 13.988281 2.730469 15.164062 2.347656 16.0625 2.230469 C 17.878906 1.992188 19.464844 2.167969 20.890625 2.773438 C 21.597656 3.078125 22.003906 3.496094 22.253906 4.1875 C 22.3125 4.355469 22.371094 4.613281 22.394531 4.800781 C 22.402344 4.890625 22.414062 5.605469 22.417969 6.789062 L 22.425781 8.636719 L 25.136719 8.640625 C 26.628906 8.644531 27.855469 8.640625 27.863281 8.632812 C 27.886719 8.621094 27.796875 8.320312 27.6875 8.054688 C 27.503906 7.605469 27.128906 6.910156 26.773438 6.367188 C 26.128906 5.390625 25.320312 4.5 24.40625 3.769531 C 23.570312 3.101562 22.585938 2.53125 21.558594 2.125 C 20.519531 1.710938 19.378906 1.457031 18.210938 1.375 C 17.882812 1.351562 17.035156 1.351562 16.726562 1.375 C 16.160156 1.417969 15.804688 1.464844 15.171875 1.582031 C 14.402344 1.726562 13.882812 1.882812 13.214844 2.160156 C 10.558594 3.273438 8.167969 5.714844 7.085938 8.414062 C 6.886719 8.910156 6.773438 9.273438 6.636719 9.851562 C 6.394531 10.855469 6.296875 11.664062 6.296875 12.636719 C 6.296875 13.316406 6.335938 13.796875 6.441406 14.4375 C 6.871094 17.082031 8.257812 19.449219 10.398438 21.207031 C 11.3125 21.957031 12.15625 22.460938 13.203125 22.875 C 14.351562 23.328125 15.617188 23.605469 16.933594 23.683594 C 17.242188 23.703125 18.226562 23.691406 18.519531 23.664062 Z M 15.5 21.988281 C 15.660156 21.941406 15.769531 21.890625 15.933594 21.789062 C 16.261719 21.585938 16.464844 21.339844 16.558594 21.035156 L 16.589844 20.925781 L 16.59375 18.523438 C 16.597656 16.867188 16.59375 16.089844 16.585938 16.023438 C 16.539062 15.71875 16.363281 15.421875 16.085938 15.179688 C 15.8125 14.941406 15.527344 14.839844 15.128906 14.839844 C 14.824219 14.839844 14.597656 14.90625 14.347656 15.074219 C 14.0625 15.261719 13.835938 15.574219 13.753906 15.894531 C 13.734375 15.96875 13.730469 16.289062 13.730469 18.4375 C 13.730469 20.878906 13.730469 20.898438 13.761719 21.003906 C 13.871094 21.40625 14.296875 21.828125 14.730469 21.972656 C 14.964844 22.046875 15.273438 22.054688 15.5 21.988281 Z M 15.003906 21.070312 C 14.867188 21.019531 14.742188 20.894531 14.691406 20.765625 C 14.664062 20.6875 14.664062 20.671875 14.667969 18.410156 L 14.671875 16.136719 L 14.710938 16.054688 C 14.761719 15.953125 14.851562 15.859375 14.945312 15.8125 C 15.050781 15.761719 15.242188 15.757812 15.359375 15.800781 C 15.476562 15.84375 15.59375 15.960938 15.636719 16.078125 L 15.667969 16.160156 L 15.660156 20.753906 L 15.625 20.816406 C 15.574219 20.914062 15.484375 21 15.390625 21.046875 C 15.3125 21.085938 15.289062 21.089844 15.179688 21.089844 C 15.113281 21.089844 15.035156 21.078125 15.003906 21.070312 Z M 19.882812 21.0625 C 19.882812 20.316406 19.882812 20.203125 19.902344 20.1875 C 19.917969 20.171875 19.996094 20.171875 20.210938 20.175781 C 20.371094 20.179688 20.5 20.175781 20.5 20.171875 C 20.5 20.164062 20.5 19.941406 20.5 19.675781 L 20.5 19.191406 L 20.203125 19.1875 C 19.984375 19.183594 19.902344 19.179688 19.894531 19.164062 C 19.886719 19.15625 19.882812 18.90625 19.882812 18.613281 L 19.882812 18.078125 L 18.949219 18.078125 L 18.953125 18.625 C 18.957031 19.09375 18.953125 19.171875 18.933594 19.183594 C 18.910156 19.203125 18.289062 19.1875 18.269531 19.167969 C 18.257812 19.15625 18.476562 18.234375 19.109375 15.605469 C 19.195312 15.246094 19.265625 14.953125 19.265625 14.949219 C 19.265625 14.945312 19.035156 14.941406 18.757812 14.941406 L 18.246094 14.941406 L 18.234375 14.972656 C 18.226562 14.988281 18.0625 15.65625 17.875 16.453125 C 17.683594 17.25 17.40625 18.40625 17.257812 19.023438 C 17.109375 19.640625 16.984375 20.15625 16.984375 20.171875 C 16.984375 20.191406 17.089844 20.191406 17.929688 20.183594 C 18.632812 20.175781 18.878906 20.179688 18.890625 20.191406 C 18.902344 20.203125 18.90625 20.4375 18.90625 21.066406 L 18.90625 21.921875 L 19.882812 21.921875 Z M 17.425781 14.402344 C 18.1875 14.324219 18.847656 14.0625 19.378906 13.632812 C 19.539062 13.5 19.804688 13.230469 19.914062 13.085938 C 20.164062 12.75 20.335938 12.339844 20.417969 11.886719 C 20.453125 11.710938 20.464844 11.207031 20.441406 11.015625 C 20.421875 10.835938 20.378906 10.621094 20.332031 10.472656 C 20.300781 10.367188 20.265625 10.304688 20.007812 9.917969 C 19.710938 9.476562 19.46875 9.128906 18.863281 8.273438 C 18.039062 7.105469 17.578125 6.421875 17.230469 5.855469 L 17.144531 5.710938 L 17.117188 5.4375 C 17.097656 5.214844 17.097656 5.144531 17.113281 5.078125 C 17.152344 4.882812 17.3125 4.664062 17.519531 4.519531 C 17.742188 4.367188 17.804688 4.351562 18.167969 4.351562 C 18.488281 4.355469 18.585938 4.375 18.804688 4.480469 C 19 4.578125 19.132812 4.707031 19.25 4.917969 C 19.445312 5.265625 19.542969 5.578125 19.601562 6.089844 C 19.613281 6.191406 19.628906 6.28125 19.632812 6.289062 C 19.636719 6.304688 19.722656 6.308594 19.996094 6.308594 C 20.191406 6.308594 20.363281 6.304688 20.375 6.300781 C 20.394531 6.292969 20.398438 6.128906 20.398438 4.617188 C 20.398438 3.695312 20.394531 2.9375 20.386719 2.933594 C 20.382812 2.933594 20.277344 2.933594 20.152344 2.9375 L 19.929688 2.945312 L 19.78125 3.164062 C 19.6875 3.304688 19.625 3.382812 19.609375 3.382812 C 19.59375 3.382812 19.542969 3.359375 19.492188 3.328125 C 19.222656 3.164062 18.824219 3.003906 18.394531 2.882812 C 17.878906 2.734375 17.121094 2.742188 16.511719 2.894531 C 16.128906 2.992188 15.679688 3.1875 15.359375 3.398438 C 14.730469 3.808594 14.226562 4.515625 14.039062 5.253906 C 13.953125 5.582031 13.929688 5.90625 13.960938 6.203125 C 13.988281 6.460938 14.082031 6.808594 14.164062 6.972656 C 14.183594 7.015625 16.496094 10.398438 17.101562 11.277344 C 17.160156 11.359375 17.183594 11.414062 17.238281 11.597656 C 17.300781 11.808594 17.304688 11.828125 17.296875 11.941406 C 17.285156 12.164062 17.183594 12.359375 16.972656 12.5625 C 16.882812 12.652344 16.832031 12.6875 16.726562 12.738281 C 16.507812 12.84375 16.402344 12.867188 16.117188 12.867188 C 15.910156 12.867188 15.859375 12.863281 15.761719 12.835938 C 15.453125 12.746094 15.222656 12.558594 15.082031 12.289062 C 14.960938 12.054688 14.90625 11.828125 14.855469 11.316406 C 14.816406 10.914062 14.796875 10.773438 14.769531 10.753906 C 14.757812 10.742188 14.570312 10.738281 14.246094 10.742188 L 13.738281 10.746094 L 13.730469 14.308594 L 14.433594 14.308594 L 14.464844 14.273438 C 14.484375 14.257812 14.550781 14.15625 14.617188 14.050781 C 14.714844 13.902344 14.746094 13.863281 14.769531 13.863281 C 14.789062 13.863281 14.867188 13.898438 14.949219 13.9375 C 15.457031 14.183594 15.710938 14.273438 16.09375 14.34375 C 16.515625 14.421875 17.023438 14.445312 17.425781 14.402344 Z M 17.425781 14.402344 "/>
</g>
</svg>
