<?xml version="1.0" encoding="UTF-8"?>
<svg xmlns="http://www.w3.org/2000/svg" xmlns:xlink="http://www.w3.org/1999/xlink" width="25pt" height="25pt" viewBox="0 0 25 25" version="1.1">
<g id="surface1">
<path style=" stroke:none;fill-rule:evenodd;fill:rgb(60%,60%,60%);fill-opacity:1;" d="M 17.089844 20.5 C 21.074219 18.851562 23.851562 15.160156 23.851562 10.867188 C 23.851562 5.789062 19.960938 1.550781 14.785156 0.546875 C 14.734375 0.539062 14.6875 0.535156 14.636719 0.535156 C 14.210938 0.535156 13.867188 0.832031 13.867188 1.203125 C 13.867188 1.484375 14.066406 1.726562 14.351562 1.824219 C 15.28125 2.011719 16.160156 2.328125 16.960938 2.753906 L 12.480469 6.644531 L 8.046875 2.753906 C 8.847656 2.328125 9.722656 2.011719 10.65625 1.824219 C 10.9375 1.726562 11.136719 1.484375 11.136719 1.203125 C 11.136719 0.832031 10.792969 0.535156 10.367188 0.535156 C 10.316406 0.535156 10.269531 0.539062 10.222656 0.546875 C 5.042969 1.550781 1.152344 5.789062 1.152344 10.867188 C 1.152344 15.160156 3.929688 18.851562 7.914062 20.5 L 8.925781 17.664062 C 5.742188 16.367188 3.519531 13.421875 3.519531 10 C 3.519531 7.488281 4.714844 5.234375 6.613281 3.703125 L 11.425781 7.933594 C 11.425781 7.933594 11.425781 16.230469 11.425781 16.097656 C 11.425781 16.097656 11.1875 18.582031 9.726562 21.105469 C 10.574219 21.300781 11.5625 21.4375 12.480469 21.445312 L 12.527344 21.445312 C 13.441406 21.4375 14.433594 21.300781 15.28125 21.105469 C 13.816406 18.582031 13.582031 16.097656 13.582031 16.097656 C 13.582031 16.230469 13.582031 7.933594 13.582031 7.933594 L 18.394531 3.703125 C 20.289062 5.234375 21.484375 7.488281 21.484375 10 C 21.484375 13.421875 19.265625 16.367188 16.082031 17.664062 Z M 17.089844 20.5 "/>
<path style=" stroke:none;fill-rule:evenodd;fill:rgb(60%,60%,60%);fill-opacity:1;" d="M 4.894531 10.71875 C 4.867188 8.421875 5.828125 6.578125 7.191406 6.46875 C 8.636719 6.351562 10.007812 8.234375 10.316406 10.71875 L 8.914062 10.71875 C 8.761719 9.492188 8.097656 8.5625 7.402344 8.617188 C 6.742188 8.671875 6.28125 9.582031 6.296875 10.71875 Z M 4.894531 10.71875 "/>
<path style=" stroke:none;fill-rule:evenodd;fill:rgb(60%,60%,60%);fill-opacity:1;" d="M 4.929688 11.402344 C 4.898438 11.085938 4.886719 10.773438 4.894531 10.46875 L 6.300781 10.46875 C 6.289062 10.660156 6.292969 10.859375 6.3125 11.0625 C 6.4375 12.355469 7.121094 13.355469 7.84375 13.296875 C 8.566406 13.242188 9.054688 12.144531 8.929688 10.851562 C 8.917969 10.722656 8.898438 10.59375 8.875 10.46875 L 10.28125 10.46875 C 10.308594 10.632812 10.328125 10.796875 10.34375 10.96875 C 10.589844 13.570312 9.578125 15.78125 8.085938 15.902344 C 6.589844 16.023438 5.175781 14.007812 4.929688 11.402344 Z M 4.929688 11.402344 "/>
<path style=" stroke:none;fill-rule:evenodd;fill:rgb(60%,60%,60%);fill-opacity:1;" d="M 19.558594 10.179688 C 19.320312 8.90625 18.246094 8.578125 17.039062 9.460938 C 16.78125 9.648438 16.664062 9.746094 16.53125 9.871094 L 16.511719 8.640625 L 18.351562 7.1875 L 18.382812 5.332031 L 14.914062 8.308594 L 14.902344 12.488281 C 15.378906 11.96875 15.722656 11.640625 16.292969 11.226562 C 17.046875 10.675781 17.496094 11.25 17.605469 11.828125 C 17.765625 12.683594 17.210938 13.699219 16.175781 14.453125 C 15.777344 14.746094 15.664062 14.8125 15.359375 14.957031 L 15.863281 16.414062 C 16.121094 16.277344 16.199219 16.132812 16.550781 15.875 C 18.746094 14.269531 19.882812 11.902344 19.558594 10.179688 Z M 19.558594 10.179688 "/>
<path style=" stroke:none;fill-rule:evenodd;fill:rgb(100%,0%,0%);fill-opacity:1;" d="M 16.800781 20.210938 C 20.785156 18.5625 23.5625 14.871094 23.5625 10.578125 C 23.5625 5.5 19.671875 1.261719 14.496094 0.257812 C 14.445312 0.25 14.398438 0.246094 14.351562 0.246094 C 13.921875 0.246094 13.578125 0.542969 13.578125 0.914062 C 13.578125 1.195312 13.777344 1.4375 14.0625 1.535156 C 14.992188 1.722656 15.871094 2.039062 16.671875 2.464844 L 12.191406 6.355469 L 7.757812 2.464844 C 8.558594 2.039062 9.433594 1.722656 10.367188 1.535156 C 10.648438 1.4375 10.851562 1.195312 10.851562 0.914062 C 10.851562 0.542969 10.503906 0.246094 10.078125 0.246094 C 10.027344 0.246094 9.980469 0.25 9.933594 0.257812 C 4.753906 1.261719 0.863281 5.5 0.863281 10.578125 C 0.863281 14.871094 3.640625 18.5625 7.625 20.210938 L 8.636719 17.375 C 5.453125 16.078125 3.230469 13.132812 3.230469 9.710938 C 3.230469 7.199219 4.425781 4.945312 6.324219 3.414062 L 11.136719 7.644531 C 11.136719 7.644531 11.136719 15.941406 11.136719 15.808594 C 11.136719 15.808594 10.898438 18.292969 9.4375 20.816406 C 10.285156 21.011719 11.273438 21.148438 12.191406 21.15625 L 12.238281 21.15625 C 13.152344 21.148438 14.144531 21.011719 14.992188 20.816406 C 13.527344 18.292969 13.292969 15.808594 13.292969 15.808594 C 13.292969 15.941406 13.292969 7.644531 13.292969 7.644531 L 18.105469 3.414062 C 20 4.945312 21.195312 7.199219 21.195312 9.710938 C 21.195312 13.132812 18.976562 16.078125 15.792969 17.375 Z M 16.800781 20.210938 "/>
<path style=" stroke:none;fill-rule:evenodd;fill:rgb(100%,0%,0%);fill-opacity:1;" d="M 19.269531 9.890625 C 19.03125 8.617188 17.957031 8.289062 16.75 9.171875 C 16.492188 9.359375 16.375 9.457031 16.242188 9.582031 L 16.222656 8.351562 L 18.0625 6.898438 L 18.09375 5.042969 L 14.625 8.019531 L 14.613281 12.199219 C 15.089844 11.679688 15.433594 11.351562 16.003906 10.9375 C 16.757812 10.386719 17.207031 10.960938 17.316406 11.539062 C 17.476562 12.394531 16.921875 13.410156 15.886719 14.164062 C 15.488281 14.457031 15.375 14.523438 15.070312 14.667969 L 15.574219 16.125 C 15.832031 15.988281 15.910156 15.84375 16.261719 15.585938 C 18.457031 13.980469 19.59375 11.613281 19.269531 9.890625 Z M 19.269531 9.890625 "/>
<path style=" stroke:none;fill-rule:evenodd;fill:rgb(100%,0%,0%);fill-opacity:1;" d="M 4.648438 10.472656 C 4.621094 8.175781 5.582031 6.335938 6.945312 6.226562 C 8.390625 6.109375 9.761719 7.992188 10.074219 10.472656 L 8.671875 10.472656 C 8.515625 9.246094 7.851562 8.316406 7.15625 8.375 C 6.5 8.425781 6.035156 9.335938 6.050781 10.472656 Z M 4.648438 10.472656 "/>
<path style=" stroke:none;fill-rule:evenodd;fill:rgb(100%,0%,0%);fill-opacity:1;" d="M 4.683594 11.160156 C 4.65625 10.839844 4.644531 10.527344 4.648438 10.226562 L 6.054688 10.226562 C 6.046875 10.414062 6.050781 10.613281 6.070312 10.820312 C 6.191406 12.113281 6.878906 13.113281 7.601562 13.054688 C 8.324219 12.996094 8.808594 11.902344 8.6875 10.609375 C 8.675781 10.476562 8.65625 10.347656 8.632812 10.226562 L 10.039062 10.226562 C 10.0625 10.386719 10.082031 10.554688 10.101562 10.722656 C 10.347656 13.328125 9.335938 15.535156 7.839844 15.65625 C 6.34375 15.777344 4.933594 13.761719 4.683594 11.160156 Z M 4.683594 11.160156 "/>
<path style=" stroke:none;fill-rule:nonzero;fill:rgb(100%,0%,0%);fill-opacity:1;" d="M 1.007812 17.523438 L 1.207031 17.738281 L 0.246094 18.585938 L 0.671875 19.125 L 2.089844 17.875 L 1.457031 17.128906 Z M 1.007812 17.523438 "/>
<path style=" stroke:none;fill-rule:nonzero;fill:rgb(100%,0%,0%);fill-opacity:1;" d="M 1.78125 19.5 C 1.65625 19.367188 1.441406 19.3125 1.304688 19.460938 C 1.167969 19.605469 1.21875 19.824219 1.347656 19.957031 C 1.472656 20.089844 1.683594 20.148438 1.820312 20.003906 C 1.960938 19.855469 1.910156 19.632812 1.78125 19.5 Z M 1.78125 19.5 "/>
<path style=" stroke:none;fill-rule:nonzero;fill:rgb(100%,0%,0%);fill-opacity:1;" d="M 3.074219 21.527344 L 3.640625 21.914062 L 3.992188 21.34375 L 4.40625 21.625 L 4.667969 21.203125 L 4.253906 20.917969 L 4.359375 20.75 L 4.832031 21.074219 L 5.121094 20.605469 L 4.082031 19.898438 Z M 3.074219 21.527344 "/>
<path style=" stroke:none;fill-rule:nonzero;fill:rgb(100%,0%,0%);fill-opacity:1;" d="M 4.519531 22.335938 C 4.65625 22.535156 4.863281 22.726562 5.070312 22.839844 C 5.421875 23.039062 5.878906 23.035156 6.085938 22.625 C 6.234375 22.335938 6.125 22.089844 5.902344 21.890625 L 5.785156 21.785156 C 5.746094 21.75 5.675781 21.699219 5.707031 21.636719 C 5.742188 21.566406 5.828125 21.585938 5.882812 21.617188 C 6.007812 21.6875 6.09375 21.808594 6.160156 21.9375 L 6.542969 21.585938 C 6.433594 21.394531 6.289062 21.253906 6.101562 21.148438 C 5.746094 20.949219 5.277344 20.980469 5.070312 21.386719 C 4.9375 21.65625 5.058594 21.910156 5.269531 22.082031 L 5.375 22.171875 C 5.425781 22.210938 5.5 22.261719 5.460938 22.339844 C 5.421875 22.417969 5.316406 22.390625 5.257812 22.355469 C 5.121094 22.28125 5.027344 22.140625 4.964844 21.992188 L 4.949219 21.953125 Z M 4.519531 22.335938 "/>
<path style=" stroke:none;fill-rule:nonzero;fill:rgb(100%,0%,0%);fill-opacity:1;" d="M 8.046875 22.03125 L 7.542969 22.785156 C 7.488281 22.863281 7.4375 22.949219 7.40625 23.039062 L 7.394531 23.035156 C 7.425781 22.941406 7.433594 22.847656 7.441406 22.746094 L 7.480469 21.828125 L 6.816406 21.585938 L 6.894531 23.667969 L 7.429688 23.863281 L 8.710938 22.273438 Z M 8.046875 22.03125 "/>
<path style=" stroke:none;fill-rule:nonzero;fill:rgb(100%,0%,0%);fill-opacity:1;" d="M 9.90625 24.578125 L 10.554688 24.613281 L 10.675781 23.789062 C 10.6875 23.710938 10.695312 23.632812 10.703125 23.554688 L 10.726562 23.558594 C 10.726562 23.640625 10.742188 23.71875 10.757812 23.800781 L 10.957031 24.636719 L 11.347656 24.65625 L 11.65625 23.800781 C 11.679688 23.742188 11.695312 23.675781 11.710938 23.613281 L 11.722656 23.613281 L 11.761719 24.679688 L 12.410156 24.714844 L 12.203125 22.757812 L 11.519531 22.722656 L 11.273438 23.472656 C 11.246094 23.550781 11.230469 23.640625 11.214844 23.726562 L 11.199219 23.726562 L 10.992188 22.691406 L 10.304688 22.65625 Z M 9.90625 24.578125 "/>
<path style=" stroke:none;fill-rule:evenodd;fill:rgb(100%,0%,0%);fill-opacity:1;" d="M 13.566406 24.410156 L 14.074219 24.375 L 14.152344 24.609375 L 14.863281 24.558594 L 14.074219 22.671875 L 13.332031 22.726562 L 12.820312 24.707031 L 13.53125 24.65625 Z M 13.65625 23.941406 L 13.738281 23.34375 L 13.765625 23.339844 C 13.78125 23.421875 13.800781 23.507812 13.824219 23.585938 L 13.925781 23.921875 Z M 13.65625 23.941406 "/>
<path style=" stroke:none;fill-rule:nonzero;fill:rgb(100%,0%,0%);fill-opacity:1;" d="M 15.40625 24.421875 L 16.0625 24.261719 L 15.644531 22.371094 L 14.992188 22.527344 Z M 15.40625 24.421875 "/>
<path style=" stroke:none;fill-rule:nonzero;fill:rgb(100%,0%,0%);fill-opacity:1;" d="M 16.660156 24.171875 L 17.265625 23.949219 L 17.070312 23.355469 C 17.03125 23.230469 16.972656 23.121094 16.910156 23 L 16.929688 22.992188 L 17.804688 23.757812 L 18.414062 23.535156 L 17.8125 21.699219 L 17.203125 21.921875 L 17.382812 22.46875 C 17.433594 22.625 17.515625 22.773438 17.589844 22.917969 L 17.570312 22.925781 L 16.667969 22.113281 L 16.058594 22.335938 Z M 16.660156 24.171875 "/>
<path style=" stroke:none;fill-rule:nonzero;fill:rgb(100%,0%,0%);fill-opacity:1;" d="M 18.207031 21.53125 L 18.460938 22.054688 L 18.910156 21.8125 C 18.960938 21.785156 19 21.753906 19.042969 21.71875 L 19.054688 21.71875 C 19.035156 21.816406 19.015625 21.90625 19.007812 22.007812 L 18.90625 23.335938 L 20.507812 22.476562 L 20.25 21.945312 L 19.75 22.210938 C 19.707031 22.234375 19.660156 22.265625 19.617188 22.292969 L 19.605469 22.289062 L 19.742188 20.710938 Z M 18.207031 21.53125 "/>
<path style=" stroke:none;fill-rule:evenodd;fill:rgb(100%,0%,0%);fill-opacity:1;" d="M 21.539062 19.25 C 21.128906 19.652344 21.171875 20.199219 21.53125 20.601562 C 21.910156 21.027344 22.421875 21.125 22.839844 20.71875 C 23.257812 20.308594 23.199219 19.765625 22.824219 19.339844 C 22.464844 18.9375 21.945312 18.851562 21.539062 19.25 Z M 21.929688 19.691406 C 22.074219 19.546875 22.261719 19.695312 22.363281 19.8125 C 22.460938 19.921875 22.605469 20.160156 22.464844 20.296875 C 22.328125 20.433594 22.109375 20.265625 22.011719 20.15625 C 21.910156 20.039062 21.78125 19.835938 21.929688 19.691406 Z M 21.929688 19.691406 "/>
<path style=" stroke:none;fill-rule:nonzero;fill:rgb(100%,0%,0%);fill-opacity:1;" d="M 22.703125 18.046875 L 23.4375 18.914062 C 23.496094 18.753906 23.582031 18.597656 23.691406 18.464844 C 23.757812 18.378906 23.953125 18.191406 24.070312 18.292969 C 24.179688 18.390625 24.074219 18.585938 24 18.679688 C 23.902344 18.800781 23.671875 18.960938 23.527344 19.019531 L 23.867188 19.417969 C 24.042969 19.335938 24.328125 19.078125 24.453125 18.921875 C 24.707031 18.609375 24.859375 18.066406 24.511719 17.761719 C 24.242188 17.523438 23.878906 17.605469 23.664062 17.878906 C 23.601562 17.953125 23.511719 18.09375 23.535156 18.199219 L 23.523438 18.210938 C 23.496094 18.140625 23.445312 18.078125 23.398438 18.019531 L 23.90625 17.382812 L 23.511719 17.035156 Z M 22.703125 18.046875 "/>
</g>
</svg>
