<?xml version="1.0" encoding="UTF-8"?>
<svg xmlns="http://www.w3.org/2000/svg" xmlns:xlink="http://www.w3.org/1999/xlink" width="35pt" height="25pt" viewBox="0 0 35 25" version="1.1">
<g id="surface1">
<path style=" stroke:none;fill-rule:evenodd;fill:rgb(100%,100%,100%);fill-opacity:1;" d="M 30.5 12.5 C 30.5 19.402344 24.902344 25 18 25 C 11.097656 25 5.5 19.402344 5.5 12.5 C 5.5 5.597656 11.097656 0 18 0 C 24.902344 0 30.5 5.597656 30.5 12.5 Z M 30.5 12.5 "/>
<path style=" stroke:none;fill-rule:evenodd;fill:rgb(0%,36.078431%,66.27451%);fill-opacity:1;" d="M 30.019531 12.5 C 30.019531 19.136719 24.636719 24.519531 18 24.519531 C 11.363281 24.519531 5.980469 19.136719 5.980469 12.5 C 5.980469 5.863281 11.363281 0.480469 18 0.480469 C 24.636719 0.480469 30.019531 5.863281 30.019531 12.5 Z M 30.019531 12.5 "/>
<path style=" stroke:none;fill-rule:evenodd;fill:rgb(100%,100%,100%);fill-opacity:1;" d="M 27.316406 12.5 C 27.316406 17.644531 23.144531 21.816406 18 21.816406 C 12.855469 21.816406 8.683594 17.644531 8.683594 12.5 C 8.683594 7.355469 12.855469 3.183594 18 3.183594 C 23.144531 3.183594 27.316406 7.355469 27.316406 12.5 Z M 27.316406 12.5 "/>
<path style=" stroke:none;fill-rule:evenodd;fill:rgb(0%,0%,0%);fill-opacity:1;" d="M 26.449219 12.5 C 26.449219 17.167969 22.667969 20.949219 18 20.949219 C 13.332031 20.949219 9.550781 17.167969 9.550781 12.5 C 9.550781 7.832031 13.332031 4.050781 18 4.050781 C 22.667969 4.050781 26.449219 7.832031 26.449219 12.5 Z M 26.449219 12.5 "/>
<path style=" stroke:none;fill-rule:evenodd;fill:rgb(100%,100%,100%);fill-opacity:1;" d="M 25.863281 12.5 C 25.863281 16.84375 22.34375 20.363281 18 20.363281 C 13.65625 20.363281 10.136719 16.84375 10.136719 12.5 C 10.136719 8.15625 13.65625 4.636719 18 4.636719 C 22.34375 4.636719 25.863281 8.15625 25.863281 12.5 Z M 25.863281 12.5 "/>
<path style=" stroke:none;fill-rule:evenodd;fill:rgb(0%,0%,0%);fill-opacity:1;" d="M 12.890625 7.675781 C 12.890625 7.71875 12.910156 7.757812 12.953125 7.78125 C 14.84375 7.253906 16.632812 7.578125 18.367188 8 C 19.246094 8.074219 20.199219 7.789062 21.105469 7.734375 C 21.882812 7.734375 22.671875 7.648438 23.402344 7.855469 C 23.714844 8.152344 23.816406 8.578125 23.980469 8.972656 C 24.273438 9.800781 24.503906 10.761719 24.277344 11.59375 C 24.296875 11.695312 24.421875 11.71875 24.46875 11.804688 C 25.15625 12.742188 25.019531 14.0625 24.875 15.109375 C 24.816406 15.378906 24.789062 15.660156 24.691406 15.921875 C 23.171875 14.910156 21.214844 14.921875 19.484375 15.675781 C 18.359375 15.917969 17.425781 15.246094 16.335938 15.347656 C 15.820312 15.480469 15.171875 15.472656 14.8125 15.867188 L 15.238281 17.441406 C 15.703125 17.632812 16.355469 17.65625 16.609375 18.191406 C 16.699219 18.523438 16.703125 18.828125 16.65625 19.128906 C 16.605469 19.21875 16.484375 19.242188 16.390625 19.238281 C 16.070312 18.96875 16.460938 18.449219 16.054688 18.199219 C 15.855469 18.058594 15.640625 18.011719 15.417969 17.992188 C 15.5 18.511719 15.632812 19.035156 15.800781 19.519531 C 15.78125 19.605469 15.703125 19.648438 15.625 19.671875 C 15.535156 19.683594 15.445312 19.667969 15.371094 19.601562 L 14.914062 17.867188 C 14.546875 17.730469 14.097656 17.484375 13.90625 17.132812 C 13.683594 16.566406 13.972656 16.0625 14.3125 15.601562 L 12.441406 8.535156 C 12.246094 8.492188 11.945312 8.464844 11.886719 8.214844 C 11.828125 8.011719 11.875 7.816406 12.039062 7.691406 C 12.289062 7.574219 12.660156 7.464844 12.890625 7.675781 Z M 12.890625 7.675781 "/>
<path style=" stroke:none;fill-rule:evenodd;fill:rgb(100%,100%,100%);fill-opacity:1;" d="M 14.550781 14.691406 L 13.890625 12.214844 L 13.074219 9.117188 L 13.035156 8.960938 C 13.992188 10.570312 14.484375 12.734375 14.550781 14.691406 Z M 14.550781 14.691406 "/>
<path style=" stroke:none;fill-rule:evenodd;fill:rgb(100%,100%,100%);fill-opacity:1;" d="M 14.722656 17.261719 C 14.542969 17.171875 14.3125 17.046875 14.277344 16.835938 C 14.257812 16.628906 14.324219 16.441406 14.441406 16.269531 Z M 14.722656 17.261719 "/>
<path style=" stroke:none;fill-rule:nonzero;fill:rgb(0%,36.078431%,66.27451%);fill-opacity:1;" d="M 18.402344 8.445312 C 19.769531 8.402344 21.195312 8.101562 22.535156 8.175781 C 22.707031 8.1875 22.871094 8.199219 23.042969 8.214844 C 23.574219 9.0625 23.953125 10.273438 23.804688 11.304688 C 22.460938 11.082031 20.957031 11.238281 19.539062 11.675781 C 18.648438 11.773438 17.871094 11.351562 17.007812 11.332031 C 16.238281 11.351562 15.421875 11.316406 14.667969 11.605469 C 14.335938 10.449219 13.96875 9.3125 13.257812 8.410156 L 13.074219 8.253906 C 14.921875 7.644531 16.683594 8.105469 18.402344 8.445312 Z M 18.402344 8.445312 "/>
<path style=" stroke:none;fill-rule:nonzero;fill:rgb(100%,100%,100%);fill-opacity:1;" d="M 18.878906 12.175781 C 20.074219 12.265625 21.359375 11.671875 22.566406 11.699219 C 23.144531 11.773438 23.875 11.65625 24.21875 12.277344 C 24.648438 13.238281 24.484375 14.25 24.367188 15.1875 C 22.886719 14.492188 21.09375 14.527344 19.507812 15.191406 C 18.285156 15.472656 17.273438 14.691406 16.0625 14.921875 C 15.695312 14.96875 15.34375 15.097656 14.996094 15.203125 C 15.121094 14.214844 14.914062 13.164062 14.738281 12.113281 C 16.160156 11.675781 17.570312 11.8125 18.878906 12.175781 Z M 18.878906 12.175781 "/>
<path style=" stroke:none;fill-rule:evenodd;fill:rgb(0%,36.078431%,66.27451%);fill-opacity:1;" d="M 20.75 12.886719 C 20.808594 13.445312 21.054688 13.9375 21.105469 14.496094 C 21.078125 14.574219 20.96875 14.558594 20.910156 14.546875 C 20.683594 14.476562 20.492188 14.800781 20.289062 14.589844 C 20.136719 14.378906 20.0625 14.0625 20.152344 13.816406 C 20.25 13.597656 20.605469 13.527344 20.507812 13.246094 C 20.445312 13.214844 20.363281 13.175781 20.292969 13.234375 C 20.199219 13.300781 20.296875 13.414062 20.222656 13.484375 C 20.167969 13.519531 20.046875 13.542969 20.027344 13.464844 C 20.003906 13.21875 20 12.914062 20.25 12.792969 C 20.433594 12.769531 20.621094 12.734375 20.75 12.886719 Z M 23.945312 12.191406 C 23.992188 12.390625 24.171875 12.648438 24.011719 12.820312 C 23.769531 12.875 23.890625 12.457031 23.628906 12.539062 C 23.402344 12.941406 23.574219 13.542969 23.789062 13.910156 C 23.824219 13.960938 23.882812 13.984375 23.929688 14.019531 C 24.027344 14.019531 24.042969 13.910156 24.074219 13.84375 C 24.058594 13.789062 24.0625 13.746094 24.089844 13.703125 C 24.164062 13.695312 24.242188 13.703125 24.285156 13.769531 C 24.351562 14.082031 24.40625 14.453125 24.121094 14.6875 C 23.761719 14.761719 23.648438 14.367188 23.492188 14.148438 C 23.222656 13.542969 23.070312 12.75 23.339844 12.148438 C 23.421875 12.0625 23.550781 11.976562 23.675781 12.019531 C 23.773438 12.0625 23.890625 12.097656 23.945312 12.191406 Z M 22.773438 12.078125 C 22.894531 12.234375 22.992188 12.445312 22.945312 12.65625 C 22.910156 12.699219 22.859375 12.726562 22.796875 12.726562 C 22.675781 12.644531 22.695312 12.347656 22.488281 12.445312 C 22.460938 12.460938 22.441406 12.492188 22.429688 12.519531 C 22.550781 13.21875 23.484375 13.496094 23.265625 14.300781 C 23.164062 14.480469 22.964844 14.542969 22.761719 14.546875 C 22.644531 14.507812 22.550781 14.4375 22.464844 14.347656 C 22.414062 14.179688 22.347656 13.953125 22.5 13.820312 C 22.820312 13.699219 22.636719 14.359375 22.957031 14.089844 C 22.886719 13.371094 21.894531 13.070312 22.152344 12.253906 C 22.273438 12.039062 22.566406 12.042969 22.773438 12.078125 Z M 21.894531 12.175781 C 22.023438 12.484375 21.984375 12.804688 21.921875 13.097656 C 22.117188 13.132812 22.238281 13.304688 22.3125 13.46875 C 22.347656 13.804688 22.304688 14.136719 22.078125 14.410156 C 21.855469 14.472656 21.582031 14.546875 21.386719 14.472656 C 21.238281 13.800781 21.289062 13.105469 21.011719 12.476562 C 20.964844 12.386719 20.972656 12.273438 20.984375 12.171875 C 21.28125 12.21875 21.660156 11.863281 21.894531 12.175781 Z M 17.714844 12.816406 C 17.761719 12.773438 17.8125 12.75 17.878906 12.742188 C 18.007812 12.792969 18.011719 12.941406 18.015625 13.046875 C 17.820312 13.257812 18.347656 13.546875 17.949219 13.644531 C 17.796875 13.503906 18.011719 13.171875 17.710938 13.179688 C 17.496094 13.714844 18.019531 14.167969 17.917969 14.710938 C 17.839844 14.785156 17.730469 14.703125 17.664062 14.640625 C 17.46875 14.207031 17.519531 13.671875 17.316406 13.242188 C 17.292969 13.085938 17.234375 12.910156 17.367188 12.796875 C 17.5 12.746094 17.601562 13.007812 17.714844 12.816406 Z M 19.09375 12.375 C 19.234375 12.566406 19.179688 12.824219 19.257812 13.058594 C 19.410156 13.117188 19.597656 12.992188 19.742188 13.097656 C 19.878906 13.628906 19.957031 14.21875 20.09375 14.734375 C 20.058594 14.824219 19.949219 14.804688 19.882812 14.808594 C 19.601562 14.542969 19.679688 14.082031 19.578125 13.714844 C 19.585938 13.59375 19.546875 13.472656 19.46875 13.390625 C 19.410156 13.367188 19.375 13.441406 19.339844 13.492188 C 19.375 13.953125 19.660156 14.464844 19.507812 14.894531 C 19.460938 14.910156 19.414062 14.929688 19.355469 14.941406 L 19.269531 14.882812 L 18.820312 12.515625 C 18.835938 12.445312 18.839844 12.351562 18.917969 12.316406 C 18.984375 12.304688 19.054688 12.3125 19.09375 12.375 Z M 16.910156 12.601562 C 17.199219 12.855469 17.234375 13.335938 17.179688 13.6875 C 17.109375 13.8125 16.863281 13.707031 16.84375 13.882812 C 16.871094 14.027344 16.894531 14.1875 17.039062 14.238281 C 17.195312 14.160156 16.992188 13.710938 17.300781 13.921875 C 17.394531 14.113281 17.351562 14.316406 17.3125 14.496094 C 17.214844 14.578125 17.074219 14.617188 16.941406 14.613281 C 16.667969 14.554688 16.6875 14.246094 16.59375 14.039062 C 16.507812 13.605469 16.46875 13.179688 16.476562 12.757812 C 16.496094 12.707031 16.523438 12.644531 16.570312 12.609375 C 16.683594 12.582031 16.804688 12.558594 16.910156 12.601562 Z M 18.363281 12.304688 C 18.464844 12.460938 18.484375 12.667969 18.542969 12.855469 C 18.636719 13.007812 18.894531 12.988281 18.839844 13.214844 C 18.847656 13.351562 18.652344 13.347656 18.617188 13.464844 C 18.621094 13.917969 18.746094 14.410156 19.019531 14.75 C 19.023438 14.835938 19.148438 14.945312 19.039062 15.015625 C 18.925781 15.011719 18.796875 15.0625 18.695312 15.007812 C 18.355469 14.582031 18.402344 13.917969 18.289062 13.378906 C 18.183594 13.3125 18.015625 13.277344 18.070312 13.109375 C 18.105469 13.007812 18.222656 13.023438 18.257812 12.925781 C 18.273438 12.710938 18.105469 12.460938 18.238281 12.269531 C 18.285156 12.253906 18.339844 12.261719 18.363281 12.304688 Z M 15.382812 12.273438 L 15.503906 12.890625 C 15.578125 12.929688 15.675781 12.964844 15.753906 12.898438 C 15.855469 12.6875 15.699219 12.417969 15.707031 12.179688 C 15.78125 12.074219 15.921875 12.125 16.035156 12.097656 L 16.078125 12.164062 C 16.246094 12.964844 16.371094 13.753906 16.511719 14.546875 C 16.460938 14.613281 16.359375 14.59375 16.289062 14.621094 L 16.167969 14.539062 C 16.085938 14.117188 15.988281 13.707031 15.894531 13.296875 C 15.828125 13.203125 15.703125 13.277344 15.628906 13.296875 L 15.546875 13.421875 L 15.78125 14.644531 C 15.714844 14.75 15.582031 14.695312 15.488281 14.722656 L 15.382812 14.515625 C 15.265625 13.773438 15.023438 13.042969 15 12.316406 C 15.105469 12.246094 15.273438 12.152344 15.382812 12.273438 Z M 15.382812 12.273438 "/>
<path style=" stroke:none;fill-rule:nonzero;fill:rgb(100%,100%,100%);fill-opacity:1;" d="M 16.886719 13.085938 C 16.886719 13.171875 16.902344 13.257812 16.875 13.34375 C 16.753906 13.265625 16.839844 13.121094 16.824219 13.023438 Z M 16.886719 13.085938 "/>
<path style=" stroke:none;fill-rule:nonzero;fill:rgb(100%,100%,100%);fill-opacity:1;" d="M 21.574219 12.460938 C 21.613281 12.652344 21.699219 12.898438 21.527344 13.046875 C 21.390625 12.917969 21.414062 12.679688 21.421875 12.503906 C 21.449219 12.445312 21.53125 12.449219 21.574219 12.460938 Z M 21.574219 12.460938 "/>
<path style=" stroke:none;fill-rule:nonzero;fill:rgb(100%,100%,100%);fill-opacity:1;" d="M 21.871094 13.429688 C 21.945312 13.628906 21.972656 13.859375 21.804688 14.015625 C 21.757812 14.03125 21.710938 14.023438 21.667969 13.992188 C 21.640625 13.785156 21.515625 13.523438 21.730469 13.382812 C 21.78125 13.367188 21.828125 13.402344 21.871094 13.429688 Z M 21.871094 13.429688 "/>
<path style=" stroke:none;fill-rule:nonzero;fill:rgb(100%,100%,100%);fill-opacity:1;" d="M 20.660156 14.132812 L 20.578125 14.253906 C 20.476562 14.242188 20.5 14.101562 20.492188 14.027344 C 20.527344 13.960938 20.523438 13.867188 20.597656 13.816406 C 20.722656 13.878906 20.621094 14.023438 20.660156 14.132812 Z M 20.660156 14.132812 "/>
<path style=" stroke:none;fill-rule:nonzero;fill:rgb(100%,100%,100%);fill-opacity:1;" d="M 8.058594 6.730469 L 7.832031 7.074219 L 9.152344 7.929688 L 9.378906 7.585938 L 8.835938 7.234375 L 9.15625 6.742188 L 9.699219 7.09375 L 9.921875 6.75 L 8.601562 5.890625 L 8.378906 6.234375 L 8.886719 6.566406 L 8.566406 7.0625 Z M 8.058594 6.730469 "/>
<path style=" stroke:none;fill-rule:nonzero;fill:rgb(100%,100%,100%);fill-opacity:1;" d="M 10.105469 4.105469 L 9.484375 4.75 L 10.617188 5.84375 L 11.238281 5.199219 L 10.988281 4.960938 L 10.652344 5.308594 L 10.457031 5.121094 L 10.777344 4.789062 L 10.527344 4.546875 L 10.207031 4.878906 L 10.015625 4.695312 L 10.355469 4.347656 Z M 10.105469 4.105469 "/>
<path style=" stroke:none;fill-rule:evenodd;fill:rgb(100%,100%,100%);fill-opacity:1;" d="M 12.429688 3.46875 C 12.597656 3.316406 12.601562 3.089844 12.488281 2.90625 C 12.308594 2.621094 12.03125 2.621094 11.765625 2.785156 L 11.246094 3.109375 L 12.082031 4.445312 L 12.429688 4.230469 L 12.109375 3.714844 L 12.757812 4.023438 L 13.191406 3.753906 Z M 11.761719 3.160156 L 11.792969 3.140625 C 11.90625 3.066406 12.046875 3.007812 12.136719 3.15625 C 12.230469 3.300781 12.113281 3.402344 12 3.472656 L 11.96875 3.492188 Z M 11.761719 3.160156 "/>
<path style=" stroke:none;fill-rule:nonzero;fill:rgb(100%,100%,100%);fill-opacity:1;" d="M 13.894531 2.113281 L 14.332031 3.261719 L 14.714844 3.113281 L 14.273438 1.96875 L 14.589844 1.847656 L 14.464844 1.523438 L 13.453125 1.914062 L 13.578125 2.234375 Z M 13.894531 2.113281 "/>
<path style=" stroke:none;fill-rule:nonzero;fill:rgb(100%,100%,100%);fill-opacity:1;" d="M 16.242188 1.117188 L 15.835938 1.167969 L 16.027344 2.730469 L 16.433594 2.679688 L 16.355469 2.039062 L 16.941406 1.96875 L 17.019531 2.609375 L 17.425781 2.558594 L 17.234375 0.996094 L 16.828125 1.046875 L 16.902344 1.648438 L 16.316406 1.71875 Z M 16.242188 1.117188 "/>
<path style=" stroke:none;fill-rule:evenodd;fill:rgb(100%,100%,100%);fill-opacity:1;" d="M 19.566406 2.429688 L 19.632812 2.710938 L 20.066406 2.765625 L 19.671875 1.128906 L 19.226562 1.074219 L 18.433594 2.566406 L 18.863281 2.617188 L 19.003906 2.359375 Z M 19.492188 2.105469 L 19.15625 2.0625 L 19.386719 1.585938 L 19.390625 1.585938 Z M 19.492188 2.105469 "/>
<path style=" stroke:none;fill-rule:evenodd;fill:rgb(100%,100%,100%);fill-opacity:1;" d="M 23.210938 3.339844 L 23.246094 3.363281 C 23.355469 3.4375 23.535156 3.53125 23.433594 3.691406 C 23.339844 3.835938 23.171875 3.71875 23.070312 3.652344 L 23.023438 3.625 Z M 23.039062 4.007812 C 23.28125 4.164062 23.578125 4.226562 23.757812 3.953125 C 23.875 3.765625 23.878906 3.585938 23.707031 3.441406 L 23.707031 3.4375 C 23.851562 3.453125 23.949219 3.378906 24.027344 3.261719 C 24.191406 3.007812 24.09375 2.816406 23.859375 2.664062 L 23.367188 2.34375 L 22.511719 3.664062 Z M 23.542969 2.832031 L 23.566406 2.847656 C 23.660156 2.90625 23.761719 2.984375 23.683594 3.105469 C 23.609375 3.214844 23.503906 3.171875 23.414062 3.109375 L 23.375 3.085938 Z M 23.542969 2.832031 "/>
<path style=" stroke:none;fill-rule:nonzero;fill:rgb(100%,100%,100%);fill-opacity:1;" d="M 26.183594 4.644531 C 26.136719 4.492188 26.03125 4.320312 25.917969 4.210938 C 25.691406 3.988281 25.382812 3.980469 25.160156 4.210938 C 24.949219 4.429688 25.023438 4.597656 25.160156 4.828125 C 25.203125 4.90625 25.292969 5.046875 25.214844 5.128906 C 25.136719 5.210938 25.027344 5.171875 24.960938 5.105469 C 24.859375 5.007812 24.824219 4.871094 24.8125 4.734375 L 24.457031 4.851562 C 24.492188 5.042969 24.585938 5.226562 24.730469 5.367188 C 24.84375 5.476562 24.992188 5.558594 25.152344 5.570312 C 25.316406 5.578125 25.457031 5.488281 25.566406 5.378906 C 25.742188 5.195312 25.699219 4.996094 25.585938 4.796875 L 25.53125 4.703125 C 25.496094 4.636719 25.441406 4.535156 25.503906 4.46875 C 25.566406 4.40625 25.667969 4.445312 25.722656 4.496094 C 25.796875 4.566406 25.835938 4.664062 25.847656 4.757812 Z M 26.183594 4.644531 "/>
<path style=" stroke:none;fill-rule:nonzero;fill:rgb(100%,100%,100%);fill-opacity:1;" d="M 27.804688 6.714844 C 27.777344 6.585938 27.738281 6.46875 27.664062 6.359375 C 27.546875 6.171875 27.34375 6.039062 27.125 5.996094 C 26.914062 5.953125 26.695312 5.996094 26.515625 6.113281 C 26.320312 6.242188 26.191406 6.417969 26.15625 6.648438 C 26.121094 6.867188 26.164062 7.089844 26.28125 7.273438 C 26.351562 7.378906 26.429688 7.445312 26.539062 7.535156 L 26.953125 7.269531 C 26.820312 7.25 26.691406 7.175781 26.621094 7.0625 C 26.480469 6.847656 26.539062 6.609375 26.746094 6.472656 C 26.953125 6.339844 27.203125 6.375 27.339844 6.585938 C 27.417969 6.703125 27.441406 6.851562 27.390625 6.984375 Z M 27.804688 6.714844 "/>
<path style=" stroke:none;fill-rule:evenodd;fill:rgb(100%,100%,100%);fill-opacity:1;" d="M 11.976562 21.335938 L 12.011719 21.359375 C 12.125 21.429688 12.304688 21.527344 12.199219 21.683594 C 12.105469 21.832031 11.9375 21.714844 11.835938 21.648438 L 11.792969 21.617188 Z M 11.808594 22.003906 C 12.050781 22.160156 12.34375 22.222656 12.523438 21.945312 C 12.644531 21.761719 12.644531 21.582031 12.472656 21.433594 L 12.476562 21.429688 C 12.617188 21.445312 12.71875 21.375 12.796875 21.253906 C 12.960938 21.003906 12.859375 20.808594 12.625 20.65625 L 12.136719 20.339844 L 11.277344 21.660156 Z M 12.308594 20.824219 L 12.332031 20.839844 C 12.425781 20.898438 12.527344 20.976562 12.449219 21.097656 C 12.378906 21.210938 12.273438 21.164062 12.179688 21.105469 L 12.144531 21.078125 Z M 12.308594 20.824219 "/>
<path style=" stroke:none;fill-rule:nonzero;fill:rgb(100%,100%,100%);fill-opacity:1;" d="M 15.054688 21.871094 L 14.207031 21.578125 L 13.695312 23.066406 L 14.539062 23.359375 L 14.652344 23.03125 L 14.195312 22.875 L 14.28125 22.617188 L 14.71875 22.765625 L 14.832031 22.441406 L 14.394531 22.289062 L 14.480469 22.039062 L 14.941406 22.199219 Z M 15.054688 21.871094 "/>
<path style=" stroke:none;fill-rule:evenodd;fill:rgb(100%,100%,100%);fill-opacity:1;" d="M 17.007812 23.246094 C 17.234375 23.234375 17.378906 23.0625 17.402344 22.847656 C 17.445312 22.511719 17.226562 22.335938 16.917969 22.296875 L 16.3125 22.222656 L 16.121094 23.785156 L 16.527344 23.835938 L 16.601562 23.234375 L 16.605469 23.234375 L 16.914062 23.882812 L 17.421875 23.945312 Z M 16.679688 22.585938 L 16.71875 22.589844 C 16.851562 22.605469 17 22.648438 16.976562 22.820312 C 16.957031 22.988281 16.804688 22.996094 16.671875 22.980469 L 16.632812 22.972656 Z M 16.679688 22.585938 "/>
<path style=" stroke:none;fill-rule:nonzero;fill:rgb(100%,100%,100%);fill-opacity:1;" d="M 18.734375 22.355469 L 18.925781 23.917969 L 19.816406 23.808594 L 19.777344 23.464844 L 19.289062 23.523438 L 19.140625 22.304688 Z M 18.734375 22.355469 "/>
<path style=" stroke:none;fill-rule:nonzero;fill:rgb(100%,100%,100%);fill-opacity:1;" d="M 20.839844 21.941406 L 21.273438 23.453125 L 21.667969 23.339844 L 21.234375 21.828125 Z M 20.839844 21.941406 "/>
<path style=" stroke:none;fill-rule:nonzero;fill:rgb(100%,100%,100%);fill-opacity:1;" d="M 23.601562 22.523438 L 23.117188 21.6875 L 23.121094 21.6875 L 24.253906 22.148438 L 24.605469 21.941406 L 23.820312 20.578125 L 23.464844 20.785156 L 23.945312 21.617188 L 23.941406 21.621094 L 22.8125 21.160156 L 22.457031 21.367188 L 23.246094 22.730469 Z M 23.601562 22.523438 "/>
</g>
</svg>
