<?xml version="1.0" encoding="UTF-8"?>
<svg xmlns="http://www.w3.org/2000/svg" xmlns:xlink="http://www.w3.org/1999/xlink" width="18pt" height="25pt" viewBox="0 0 18 25" version="1.1">
<g id="surface1">
<path style=" stroke:none;fill-rule:nonzero;fill:rgb(23.529412%,30.588235%,60%);fill-opacity:1;" d="M 8.535156 0.253906 C 8.824219 0.90625 8.988281 1.585938 9.019531 2.324219 L 9.503906 2.738281 C 9.640625 2.65625 9.675781 2.480469 9.738281 2.34375 C 9.949219 1.730469 9.910156 0.964844 10.605469 0.597656 L 11.296875 0.121094 C 11.464844 0.121094 11.503906 0.339844 11.585938 0.457031 C 11.851562 1.207031 12.078125 2.269531 11.53125 2.957031 C 11.289062 3.308594 10.902344 3.492188 10.59375 3.722656 C 10.644531 3.941406 10.574219 4.128906 10.449219 4.273438 C 10.421875 4.480469 10.5625 4.613281 10.59375 4.796875 C 10.582031 5.003906 10.730469 5.210938 10.632812 5.414062 C 10.773438 5.964844 10.574219 6.605469 10.859375 7.109375 C 10.933594 7.636719 11.128906 8.210938 10.949219 8.753906 C 11.152344 9.816406 11.289062 11.050781 10.996094 12.109375 C 10.933594 12.339844 10.902344 12.601562 10.796875 12.800781 L 10.757812 12.800781 C 10.960938 11.796875 11.09375 10.6875 10.859375 9.671875 C 10.835938 9.65625 10.820312 9.621094 10.789062 9.628906 C 10.660156 9.925781 10.535156 10.230469 10.410156 10.53125 C 10.453125 9.476562 10.902344 8.515625 10.773438 7.460938 L 10.695312 7.683594 C 10.695312 7.4375 10.660156 7.167969 10.5 6.976562 C 10.40625 7.199219 10.390625 7.484375 10.394531 7.765625 C 10.410156 8.554688 10.351562 9.292969 10.140625 9.984375 C 10.246094 9.078125 9.949219 8.304688 9.9375 7.421875 C 9.933594 7.359375 9.890625 7.300781 9.835938 7.269531 L 9.617188 7.269531 C 8.992188 7.714844 8.300781 8.257812 8.414062 9.097656 C 8.46875 9.628906 9.070312 9.941406 9.019531 10.515625 C 9.027344 10.941406 8.902344 11.332031 8.769531 11.71875 C 8.601562 12.082031 8.382812 12.605469 7.898438 12.667969 C 7.429688 12.769531 6.824219 12.816406 6.445312 12.464844 C 6.328125 12.320312 6.230469 12.167969 6.210938 11.984375 C 5.917969 11.488281 5.511719 10.933594 5.753906 10.316406 C 5.859375 10.007812 6.121094 9.765625 6.210938 9.445312 C 6.382812 9.164062 6.574219 8.878906 6.476562 8.496094 C 6.597656 8.488281 6.597656 8.367188 6.53125 8.285156 L 6.5 8.277344 C 6.089844 8.503906 6.160156 9.027344 6.019531 9.359375 L 5.828125 8.597656 C 6.007812 8.371094 6.128906 8.113281 6.308594 7.910156 C 6.367188 7.910156 6.40625 7.984375 6.464844 7.953125 C 6.386719 7.777344 6.335938 7.53125 6.1875 7.398438 C 6.015625 7.660156 5.902344 7.992188 5.796875 8.242188 C 5.667969 7.605469 6.035156 7.132812 5.910156 6.484375 C 6 6.492188 6.128906 6.484375 6.1875 6.382812 C 6.1875 6.328125 6.238281 6.292969 6.253906 6.234375 C 6.335938 6.683594 6.542969 7.066406 6.675781 7.488281 C 6.707031 7.808594 6.703125 8.148438 6.78125 8.449219 C 6.835938 8.425781 6.914062 8.367188 6.917969 8.285156 C 6.847656 7.496094 6.589844 6.777344 6.335938 6.0625 C 6.304688 6.015625 6.292969 5.957031 6.242188 5.929688 C 6.128906 6.035156 6.195312 6.382812 5.921875 6.296875 C 5.8125 6.21875 5.859375 6.070312 5.769531 5.976562 L 5.449219 6.074219 C 5.476562 5.972656 5.550781 5.886719 5.605469 5.792969 C 5.582031 5.675781 5.539062 5.53125 5.582031 5.421875 L 5.726562 5.285156 C 5.84375 4.886719 6.152344 4.566406 6.195312 4.132812 L 6.160156 3.996094 C 5.078125 3.324219 4.335938 2.253906 4.511719 0.992188 C 4.5625 0.71875 4.648438 0.445312 4.851562 0.242188 C 5.351562 0.289062 5.789062 0.503906 6.136719 0.816406 L 6.175781 0.851562 C 6.734375 1.378906 7.035156 2.042969 7.414062 2.664062 C 7.566406 1.714844 7.699219 0.742188 8.375 0 C 8.480469 0.0351562 8.496094 0.164062 8.535156 0.253906 "/>
<path style=" stroke:none;fill-rule:nonzero;fill:rgb(100%,100%,100%);fill-opacity:1;" d="M 8.628906 2.804688 L 8.339844 2.285156 C 8.125 2.125 7.875 2.015625 7.691406 1.796875 C 7.734375 1.507812 7.8125 1.242188 7.914062 0.980469 C 8.433594 1.441406 8.726562 2.078125 8.628906 2.804688 "/>
<path style=" stroke:none;fill-rule:nonzero;fill:rgb(100%,100%,100%);fill-opacity:1;" d="M 9.003906 2.507812 C 9.363281 3.007812 9.898438 3.179688 10.273438 3.582031 L 10.410156 4.070312 L 10.382812 4.121094 C 10.199219 3.71875 9.851562 3.261719 9.417969 3.109375 C 9.347656 3.140625 9.363281 3.246094 9.410156 3.28125 C 9.421875 3.390625 9.585938 3.429688 9.570312 3.554688 C 9.730469 3.667969 9.851562 3.847656 9.910156 4.015625 C 10.132812 4.285156 10.394531 4.535156 10.484375 4.847656 L 10.457031 4.878906 C 10.214844 4.472656 9.792969 4.121094 9.617188 3.679688 C 9.429688 3.398438 9.148438 3.261719 8.882812 3.109375 C 8.710938 2.976562 8.859375 2.757812 8.816406 2.605469 C 8.859375 2.550781 8.917969 2.476562 9.003906 2.507812 "/>
<path style=" stroke:none;fill-rule:nonzero;fill:rgb(100%,100%,100%);fill-opacity:1;" d="M 7.316406 3.046875 C 7.039062 3.339844 6.796875 3.660156 6.484375 3.90625 C 6.582031 3.570312 6.894531 3.179688 7.238281 2.976562 L 7.34375 2.976562 "/>
<path style=" stroke:none;fill-rule:nonzero;fill:rgb(100%,100%,100%);fill-opacity:1;" d="M 7.414062 3.390625 C 7.371094 3.710938 6.996094 3.875 6.753906 4.058594 L 6.347656 4.371094 C 6.46875 4.097656 6.734375 3.898438 6.953125 3.679688 C 7.105469 3.582031 7.238281 3.425781 7.414062 3.390625 "/>
<path style=" stroke:none;fill-rule:nonzero;fill:rgb(100%,100%,100%);fill-opacity:1;" d="M 9.910156 4.550781 C 10.121094 4.738281 10.261719 4.984375 10.511719 5.09375 L 10.632812 5.253906 C 10.15625 5.644531 10.789062 6.167969 10.519531 6.65625 L 10.449219 6.933594 C 10.191406 6.703125 9.933594 6.394531 9.5625 6.484375 C 9.035156 6.757812 8.609375 7.300781 8.261719 7.765625 L 7.914062 8.285156 C 7.894531 7.941406 8.179688 7.648438 8.3125 7.328125 C 8.613281 6.828125 9.09375 6.324219 9.5625 5.976562 C 9.714844 5.972656 9.867188 5.980469 9.988281 6.074219 C 10.117188 6.191406 10.121094 6.355469 10.191406 6.503906 C 10.636719 6.210938 10.261719 5.644531 10.410156 5.21875 C 10.394531 5.199219 10.382812 5.183594 10.359375 5.191406 C 10.28125 5.414062 10.023438 5.578125 9.847656 5.71875 C 9.867188 5.429688 10.367188 5.179688 10.03125 4.867188 C 9.570312 4.449219 9.078125 4.050781 8.558594 3.71875 C 9.117188 3.742188 9.507812 4.171875 9.910156 4.550781 "/>
<path style=" stroke:none;fill-rule:nonzero;fill:rgb(100%,100%,100%);fill-opacity:1;" d="M 7.019531 7.925781 C 6.894531 7.234375 6.988281 6.460938 6.824219 5.792969 C 6.824219 5.238281 7.152344 4.828125 7.445312 4.402344 C 7.132812 5.507812 7.015625 6.746094 7.019531 7.925781 "/>
<path style=" stroke:none;fill-rule:nonzero;fill:rgb(100%,100%,100%);fill-opacity:1;" d="M 9.433594 5.414062 C 9.375 5.917969 8.742188 6.171875 8.488281 6.605469 L 8.160156 6.992188 C 8.382812 6.40625 8.46875 5.695312 8.898438 5.15625 C 8.933594 4.917969 8.859375 4.6875 8.785156 4.464844 C 9.144531 4.652344 9.445312 4.992188 9.433594 5.414062 "/>
<path style=" stroke:none;fill-rule:nonzero;fill:rgb(100%,100%,100%);fill-opacity:1;" d="M 7.59375 7.289062 C 7.597656 7.5625 7.605469 7.867188 7.484375 8.105469 C 7.363281 6.855469 7.640625 5.613281 8 4.480469 C 8.105469 5.449219 7.894531 6.414062 7.59375 7.289062 "/>
<path style=" stroke:none;fill-rule:nonzero;fill:rgb(100%,100%,100%);fill-opacity:1;" d="M 6.175781 5.664062 C 6.015625 5.660156 5.878906 5.53125 5.796875 5.421875 C 6.066406 5.152344 6.28125 4.828125 6.601562 4.632812 C 6.371094 4.945312 6.066406 5.261719 6.175781 5.664062 "/>
<path style=" stroke:none;fill-rule:nonzero;fill:rgb(23.529412%,30.588235%,60%);fill-opacity:1;" d="M 9.820312 8.933594 C 9.835938 9.089844 9.804688 9.214844 9.722656 9.332031 L 9.804688 9.382812 C 9.90625 9.941406 9.511719 10.324219 9.238281 10.742188 C 9.265625 10.417969 9.5625 10.136719 9.664062 9.804688 C 9.660156 9.765625 9.675781 9.707031 9.65625 9.671875 L 9.617188 9.671875 C 9.417969 9.867188 9.316406 10.105469 9.1875 10.332031 C 9.25 10.089844 9.375 9.738281 9.378906 9.402344 C 9.148438 9.085938 9.003906 8.734375 8.785156 8.421875 C 8.777344 8.21875 8.945312 8.023438 9.132812 7.941406 C 9.34375 8.277344 9.683594 8.566406 9.820312 8.933594 "/>
<path style=" stroke:none;fill-rule:nonzero;fill:rgb(23.529412%,30.588235%,60%);fill-opacity:1;" d="M 10.085938 10.675781 C 9.988281 11.574219 9.910156 12.484375 9.433594 13.226562 C 8.300781 13.714844 7.167969 14.738281 6.554688 15.824219 C 6.523438 14.5 7.90625 13.769531 8.628906 12.710938 C 8.882812 12.355469 9.132812 12.015625 9.277344 11.617188 C 9.132812 11.648438 8.996094 11.789062 8.859375 11.882812 L 8.859375 11.753906 C 9.332031 11.402344 9.546875 10.824219 10.046875 10.566406 "/>
<path style=" stroke:none;fill-rule:nonzero;fill:rgb(23.529412%,30.588235%,60%);fill-opacity:1;" d="M 6.105469 12.125 C 5.359375 12.636719 4.484375 13.273438 4.179688 14.144531 C 4.085938 14.402344 4.019531 14.65625 3.929688 14.921875 C 3.886719 13.605469 4.6875 12.386719 5.863281 11.726562 "/>
<path style=" stroke:none;fill-rule:nonzero;fill:rgb(23.529412%,30.588235%,60%);fill-opacity:1;" d="M 6.515625 12.738281 C 6.417969 12.921875 6.21875 13.070312 6.160156 13.269531 C 5.585938 14.121094 4.566406 14.542969 4.085938 15.4375 L 3.820312 15.871094 C 4.019531 14.472656 5.578125 13.621094 6.195312 12.371094 C 6.273438 12.503906 6.398438 12.617188 6.515625 12.738281 "/>
<path style=" stroke:none;fill-rule:nonzero;fill:rgb(23.529412%,30.588235%,60%);fill-opacity:1;" d="M 4.253906 14.507812 C 4.425781 13.707031 5.121094 12.933594 5.878906 12.503906 C 5.5 13.226562 4.757812 13.835938 4.253906 14.507812 "/>
<path style=" stroke:none;fill-rule:nonzero;fill:rgb(23.529412%,30.588235%,60%);fill-opacity:1;" d="M 8.105469 12.769531 C 7.34375 13.75 6.53125 14.84375 5.476562 15.570312 C 4.765625 16.054688 3.816406 16.300781 3.421875 17.1875 C 3.601562 15.539062 5.695312 15.179688 6.269531 13.71875 C 6.464844 13.433594 6.636719 13.140625 6.863281 12.875 C 7.273438 12.964844 7.730469 12.890625 8.105469 12.769531 "/>
<path style=" stroke:none;fill-rule:nonzero;fill:rgb(23.529412%,30.588235%,60%);fill-opacity:1;" d="M 6.195312 13.59375 C 5.761719 14.394531 4.945312 15.003906 4.222656 15.554688 C 4.632812 14.691406 5.652344 14.289062 6.195312 13.460938 "/>
<path style=" stroke:none;fill-rule:nonzero;fill:rgb(23.529412%,30.588235%,60%);fill-opacity:1;" d="M 6.121094 16.742188 L 5.8125 17.65625 C 5.246094 18.71875 4.042969 18.796875 3.308594 19.699219 L 3.015625 20.078125 C 3.375 19.265625 3.761719 18.4375 4.296875 17.6875 C 4.800781 17.089844 5.472656 16.527344 5.753906 15.824219 C 5.949219 15.585938 6.152344 15.3125 6.398438 15.109375 C 6.175781 15.570312 6.308594 16.242188 6.121094 16.742188 "/>
<path style=" stroke:none;fill-rule:nonzero;fill:rgb(23.529412%,30.588235%,60%);fill-opacity:1;" d="M 5.527344 11.121094 C 5.644531 11.261719 5.667969 11.425781 5.746094 11.578125 C 3.855469 12.464844 3.179688 14.496094 2.898438 16.359375 C 2.886719 16.851562 2.78125 17.234375 2.859375 17.734375 C 2.183594 15.371094 3.101562 13.042969 4.625 11.273438 C 4.035156 11.425781 3.480469 12.074219 3.167969 12.617188 C 2.4375 13.835938 1.789062 15.128906 1.933594 16.667969 C 1.316406 14.898438 1.925781 12.78125 3.277344 11.425781 C 2.398438 11.664062 1.558594 12.601562 1.074219 13.378906 C 0.515625 14.304688 0.128906 15.394531 0.0820312 16.453125 C -0.269531 14.304688 0.507812 12.132812 2.398438 10.914062 C 3.339844 10.421875 4.664062 10.613281 5.527344 11.121094 "/>
<path style=" stroke:none;fill-rule:nonzero;fill:rgb(23.529412%,30.588235%,60%);fill-opacity:1;" d="M 18.027344 19.132812 C 18.027344 22.378906 15.355469 25.011719 12.058594 25.011719 C 8.765625 25.011719 6.09375 22.378906 6.09375 19.132812 C 6.09375 15.882812 8.765625 13.25 12.058594 13.25 C 15.355469 13.25 18.027344 15.882812 18.027344 19.132812 Z M 18.027344 19.132812 "/>
<path style=" stroke:none;fill-rule:nonzero;fill:rgb(100%,100%,100%);fill-opacity:1;" d="M 16.53125 19.132812 C 16.53125 21.566406 14.53125 23.539062 12.058594 23.539062 C 9.589844 23.539062 7.589844 21.566406 7.589844 19.132812 C 7.589844 16.699219 9.589844 14.726562 12.058594 14.726562 C 14.53125 14.726562 16.53125 16.699219 16.53125 19.132812 Z M 16.53125 19.132812 "/>
<path style=" stroke:none;fill-rule:nonzero;fill:rgb(23.529412%,30.588235%,60%);fill-opacity:1;" d="M 13.433594 15.816406 C 13.25 16.03125 12.992188 16.203125 12.78125 16.378906 C 12.542969 16.195312 12.320312 15.808594 11.984375 15.847656 C 11.871094 15.90625 11.847656 16.03125 11.886719 16.132812 C 12.484375 17.195312 14.179688 18.113281 13.265625 19.488281 C 12.898438 19.980469 12.328125 20.199219 11.714844 20.089844 C 11.304688 20.011719 10.875 19.695312 10.703125 19.300781 C 10.519531 18.953125 10.519531 18.414062 10.6875 18.054688 L 11.523438 18.453125 C 11.523438 18.613281 11.507812 18.804688 11.617188 18.929688 C 11.714844 19.042969 11.832031 19.105469 11.960938 19.121094 C 12.121094 19.132812 12.246094 19.066406 12.34375 18.953125 C 12.453125 18.839844 12.464844 18.632812 12.414062 18.46875 C 11.988281 17.804688 11.425781 17.199219 10.988281 16.542969 C 10.832031 16.195312 10.847656 15.730469 11.089844 15.425781 C 11.367188 15.054688 11.78125 14.933594 12.230469 14.996094 C 12.707031 15.085938 13.082031 15.453125 13.433594 15.816406 "/>
<path style=" stroke:none;fill-rule:nonzero;fill:rgb(23.529412%,30.588235%,60%);fill-opacity:1;" d="M 10.804688 16.789062 C 11.195312 17.28125 11.570312 17.777344 11.953125 18.257812 C 11.15625 17.894531 10.339844 17.519531 9.53125 17.125 C 9.347656 17.265625 9.238281 17.496094 9.128906 17.695312 C 8.582031 18.691406 8.707031 20.15625 9.390625 21.054688 L 9.960938 21.691406 L 9.175781 22.027344 C 8.136719 21.027344 7.726562 19.570312 8.046875 18.171875 C 8.265625 17.386719 8.660156 16.660156 9.339844 16.089844 "/>
<path style=" stroke:none;fill-rule:nonzero;fill:rgb(23.529412%,30.588235%,60%);fill-opacity:1;" d="M 14.996094 19.066406 C 14.96875 18.503906 14.832031 18 14.53125 17.550781 L 13.746094 17.910156 C 13.84375 18.058594 13.933594 18.207031 13.984375 18.371094 C 14.441406 19.585938 13.671875 20.664062 12.765625 21.449219 C 12.550781 21.628906 12.3125 21.777344 12.058594 21.886719 C 11.808594 21.777344 11.570312 21.628906 11.355469 21.449219 C 10.449219 20.664062 9.679688 19.585938 10.136719 18.371094 C 10.1875 18.207031 10.273438 18.058594 10.375 17.910156 L 9.589844 17.550781 C 9.289062 18 9.152344 18.503906 9.125 19.066406 C 9.0625 20.8125 10.632812 22.183594 12.058594 22.890625 C 13.488281 22.183594 15.058594 20.8125 14.996094 19.066406 Z M 14.996094 19.066406 "/>
<path style=" stroke:none;fill-rule:nonzero;fill:rgb(23.529412%,30.588235%,60%);fill-opacity:1;" d="M 16.074219 18.171875 C 15.855469 17.386719 15.460938 16.660156 14.78125 16.089844 L 12.929688 16.972656 L 13.460938 17.660156 C 13.839844 17.484375 14.214844 17.308594 14.589844 17.125 C 14.773438 17.265625 14.882812 17.496094 14.992188 17.695312 C 15.539062 18.691406 15.414062 20.15625 14.730469 21.054688 L 14.160156 21.691406 L 14.945312 22.027344 C 15.984375 21.027344 16.394531 19.570312 16.074219 18.171875 Z M 16.074219 18.171875 "/>
<path style=" stroke:none;fill-rule:nonzero;fill:rgb(100%,100%,100%);fill-opacity:1;" d="M 9.035156 23.621094 L 9.320312 22.929688 L 9.144531 22.796875 L 8.5625 23.265625 L 8.992188 22.683594 L 8.792969 22.539062 L 8.222656 23.300781 L 8.539062 23.535156 L 9.007812 23.160156 L 8.78125 23.71875 L 9.101562 23.945312 L 9.671875 23.183594 L 9.472656 23.039062 Z M 9.035156 23.621094 "/>
<path style=" stroke:none;fill-rule:nonzero;fill:rgb(100%,100%,100%);fill-opacity:1;" d="M 8.15625 21.773438 L 7.988281 21.910156 L 8.316406 22.304688 L 8.167969 22.425781 L 7.871094 22.066406 L 7.726562 22.191406 L 8.023438 22.546875 L 7.90625 22.648438 L 7.585938 22.269531 L 7.429688 22.394531 L 7.9375 23.015625 L 8.679688 22.398438 Z M 8.15625 21.773438 "/>
<path style=" stroke:none;fill-rule:nonzero;fill:rgb(100%,100%,100%);fill-opacity:1;" d="M 7.914062 21.351562 L 7.085938 21.832031 L 7.246094 22.089844 L 8.0625 21.609375 Z M 7.914062 21.351562 "/>
<path style=" stroke:none;fill-rule:nonzero;fill:rgb(100%,100%,100%);fill-opacity:1;" d="M 7.632812 20.738281 C 7.617188 20.695312 7.585938 20.640625 7.550781 20.585938 C 7.515625 20.539062 7.480469 20.507812 7.429688 20.484375 C 7.382812 20.457031 7.320312 20.449219 7.261719 20.445312 C 7.199219 20.441406 7.117188 20.453125 7.03125 20.5 C 6.964844 20.515625 6.914062 20.542969 6.863281 20.582031 C 6.816406 20.613281 6.777344 20.65625 6.738281 20.707031 C 6.71875 20.753906 6.699219 20.808594 6.699219 20.867188 C 6.695312 20.925781 6.707031 20.996094 6.734375 21.070312 L 6.894531 21.488281 L 7.792969 21.15625 Z M 6.988281 21.128906 L 6.964844 21.0625 C 6.9375 20.996094 6.9375 20.933594 6.964844 20.882812 C 6.980469 20.84375 7.042969 20.808594 7.136719 20.769531 C 7.207031 20.742188 7.261719 20.730469 7.300781 20.730469 C 7.339844 20.730469 7.367188 20.742188 7.390625 20.765625 C 7.40625 20.777344 7.441406 20.824219 7.457031 20.882812 L 7.484375 20.949219 Z M 6.988281 21.128906 "/>
<path style=" stroke:none;fill-rule:nonzero;fill:rgb(100%,100%,100%);fill-opacity:1;" d="M 7.332031 19.363281 L 7.117188 19.398438 L 7.191406 19.90625 L 7.007812 19.933594 L 6.9375 19.472656 L 6.738281 19.503906 L 6.8125 19.957031 L 6.65625 19.980469 L 6.589844 19.488281 L 6.386719 19.515625 L 6.5 20.304688 L 7.445312 20.175781 Z M 7.332031 19.363281 "/>
<path style=" stroke:none;fill-rule:nonzero;fill:rgb(100%,100%,100%);fill-opacity:1;" d="M 7.355469 18.90625 L 6.964844 18.875 L 6.96875 18.851562 C 6.96875 18.816406 6.976562 18.796875 6.992188 18.777344 C 7.007812 18.757812 7.03125 18.746094 7.074219 18.722656 L 7.375 18.589844 L 7.40625 18.25 L 7.113281 18.382812 C 7.101562 18.386719 7.082031 18.398438 7.050781 18.414062 C 7.03125 18.4375 7.011719 18.445312 7 18.460938 C 6.984375 18.472656 6.96875 18.5 6.960938 18.53125 C 6.953125 18.484375 6.941406 18.453125 6.929688 18.429688 C 6.90625 18.386719 6.875 18.351562 6.839844 18.332031 C 6.808594 18.300781 6.753906 18.285156 6.707031 18.285156 C 6.644531 18.28125 6.597656 18.289062 6.550781 18.3125 C 6.503906 18.339844 6.46875 18.378906 6.457031 18.425781 C 6.4375 18.46875 6.417969 18.535156 6.414062 18.636719 L 6.375 19.128906 L 7.328125 19.203125 Z M 6.785156 18.863281 L 6.589844 18.84375 L 6.601562 18.707031 C 6.605469 18.664062 6.613281 18.628906 6.632812 18.601562 C 6.648438 18.582031 6.675781 18.578125 6.707031 18.578125 C 6.726562 18.578125 6.746094 18.589844 6.761719 18.601562 C 6.777344 18.617188 6.785156 18.640625 6.792969 18.65625 C 6.792969 18.695312 6.792969 18.714844 6.792969 18.730469 Z M 6.785156 18.863281 "/>
<path style=" stroke:none;fill-rule:nonzero;fill:rgb(100%,100%,100%);fill-opacity:1;" d="M 7.53125 17.855469 L 6.601562 17.613281 L 6.527344 17.90625 L 7.453125 18.140625 Z M 7.53125 17.855469 "/>
<path style=" stroke:none;fill-rule:nonzero;fill:rgb(100%,100%,100%);fill-opacity:1;" d="M 7.132812 17.460938 C 7.238281 17.515625 7.332031 17.53125 7.429688 17.515625 C 7.511719 17.507812 7.585938 17.476562 7.640625 17.425781 C 7.695312 17.378906 7.742188 17.304688 7.785156 17.210938 C 7.824219 17.132812 7.84375 17.058594 7.84375 17 C 7.84375 16.941406 7.824219 16.878906 7.800781 16.828125 C 7.769531 16.777344 7.730469 16.722656 7.671875 16.683594 L 7.492188 16.878906 C 7.539062 16.925781 7.570312 16.957031 7.589844 16.996094 C 7.605469 17.039062 7.605469 17.089844 7.582031 17.136719 C 7.558594 17.1875 7.515625 17.222656 7.472656 17.234375 C 7.417969 17.25 7.347656 17.230469 7.253906 17.191406 C 7.171875 17.15625 7.117188 17.117188 7.09375 17.074219 C 7.0625 17.019531 7.058594 16.964844 7.085938 16.902344 C 7.09375 16.871094 7.117188 16.859375 7.136719 16.832031 C 7.15625 16.824219 7.179688 16.808594 7.207031 16.804688 C 7.226562 16.800781 7.25 16.800781 7.273438 16.804688 L 7.332031 16.542969 C 7.230469 16.527344 7.140625 16.550781 7.066406 16.589844 C 6.992188 16.625 6.929688 16.703125 6.878906 16.816406 C 6.820312 16.957031 6.808594 17.089844 6.847656 17.203125 C 6.890625 17.3125 6.984375 17.390625 7.132812 17.460938 Z M 7.132812 17.460938 "/>
<path style=" stroke:none;fill-rule:nonzero;fill:rgb(100%,100%,100%);fill-opacity:1;" d="M 8.21875 16.449219 L 7.910156 16.214844 L 8.105469 15.957031 L 8.414062 16.191406 L 8.597656 15.957031 L 7.84375 15.371094 L 7.660156 15.605469 L 7.921875 15.8125 L 7.726562 16.070312 L 7.457031 15.859375 L 7.269531 16.101562 L 8.035156 16.6875 Z M 8.21875 16.449219 "/>
<path style=" stroke:none;fill-rule:nonzero;fill:rgb(100%,100%,100%);fill-opacity:1;" d="M 9.371094 15.304688 L 9.234375 15.140625 L 8.835938 15.464844 L 8.710938 15.320312 L 9.070312 15.023438 L 8.945312 14.871094 L 8.589844 15.171875 L 8.496094 15.046875 L 8.878906 14.734375 L 8.75 14.570312 L 8.136719 15.085938 L 8.742188 15.820312 Z M 9.371094 15.304688 "/>
<path style=" stroke:none;fill-rule:nonzero;fill:rgb(100%,100%,100%);fill-opacity:1;" d="M 10.039062 14.570312 C 10.003906 14.558594 9.992188 14.542969 9.976562 14.542969 C 9.953125 14.535156 9.921875 14.539062 9.882812 14.546875 C 9.921875 14.519531 9.949219 14.496094 9.960938 14.46875 C 9.992188 14.429688 10 14.382812 10.003906 14.339844 C 10.003906 14.292969 10 14.25 9.96875 14.199219 C 9.945312 14.148438 9.90625 14.105469 9.863281 14.082031 C 9.816406 14.0625 9.769531 14.054688 9.71875 14.0625 C 9.671875 14.070312 9.597656 14.09375 9.523438 14.144531 L 9.070312 14.367188 L 9.515625 15.214844 L 9.78125 15.082031 L 9.597656 14.730469 L 9.628906 14.71875 C 9.644531 14.714844 9.671875 14.707031 9.699219 14.707031 C 9.71875 14.714844 9.746094 14.722656 9.785156 14.746094 L 10.054688 14.933594 L 10.355469 14.777344 L 10.101562 14.601562 C 10.097656 14.589844 10.0625 14.578125 10.039062 14.570312 Z M 9.71875 14.421875 C 9.71875 14.4375 9.703125 14.457031 9.695312 14.46875 C 9.664062 14.496094 9.640625 14.503906 9.628906 14.515625 L 9.523438 14.570312 L 9.429688 14.398438 L 9.542969 14.339844 C 9.589844 14.316406 9.628906 14.300781 9.652344 14.308594 C 9.683594 14.316406 9.699219 14.332031 9.714844 14.363281 C 9.726562 14.382812 9.726562 14.398438 9.71875 14.421875 Z M 9.71875 14.421875 "/>
<path style=" stroke:none;fill-rule:nonzero;fill:rgb(100%,100%,100%);fill-opacity:1;" d="M 11.796875 14.039062 C 11.765625 14.003906 11.71875 13.96875 11.660156 13.957031 C 11.597656 13.925781 11.5 13.914062 11.371094 13.90625 C 11.316406 13.898438 11.28125 13.890625 11.269531 13.875 C 11.253906 13.867188 11.242188 13.855469 11.242188 13.84375 C 11.238281 13.824219 11.242188 13.804688 11.257812 13.789062 C 11.273438 13.769531 11.304688 13.761719 11.339844 13.753906 C 11.378906 13.746094 11.417969 13.753906 11.4375 13.769531 C 11.464844 13.792969 11.484375 13.820312 11.496094 13.859375 L 11.777344 13.808594 C 11.75 13.71875 11.707031 13.640625 11.636719 13.609375 C 11.558594 13.566406 11.464844 13.558594 11.34375 13.574219 C 11.242188 13.589844 11.167969 13.609375 11.113281 13.640625 C 11.058594 13.671875 11.015625 13.71875 10.996094 13.761719 C 10.976562 13.804688 10.964844 13.851562 10.96875 13.90625 C 10.980469 13.976562 11.011719 14.03125 11.074219 14.070312 C 11.140625 14.113281 11.238281 14.144531 11.371094 14.148438 C 11.453125 14.160156 11.5 14.171875 11.53125 14.191406 C 11.550781 14.203125 11.566406 14.226562 11.566406 14.253906 C 11.570312 14.28125 11.558594 14.300781 11.546875 14.324219 C 11.523438 14.339844 11.492188 14.363281 11.449219 14.371094 C 11.394531 14.378906 11.347656 14.359375 11.308594 14.324219 C 11.289062 14.300781 11.273438 14.273438 11.257812 14.226562 L 10.980469 14.28125 C 11 14.378906 11.046875 14.445312 11.121094 14.5 C 11.1875 14.558594 11.304688 14.570312 11.464844 14.554688 C 11.558594 14.535156 11.636719 14.519531 11.695312 14.488281 C 11.753906 14.445312 11.796875 14.40625 11.824219 14.347656 C 11.847656 14.296875 11.859375 14.238281 11.847656 14.179688 C 11.847656 14.125 11.824219 14.078125 11.796875 14.039062 Z M 11.796875 14.039062 "/>
<path style=" stroke:none;fill-rule:nonzero;fill:rgb(100%,100%,100%);fill-opacity:1;" d="M 12.5 14.257812 L 12.347656 13.554688 L 12.027344 13.527344 L 12.3125 14.503906 L 12.636719 14.535156 L 13.082031 13.613281 L 12.777344 13.589844 Z M 12.5 14.257812 "/>
<path style=" stroke:none;fill-rule:nonzero;fill:rgb(100%,100%,100%);fill-opacity:1;" d="M 14.5 14.355469 C 14.503906 14.320312 14.503906 14.289062 14.503906 14.253906 C 14.5 14.21875 14.488281 14.191406 14.472656 14.148438 C 14.460938 14.117188 14.4375 14.085938 14.402344 14.058594 C 14.375 14.023438 14.324219 14 14.269531 13.972656 C 14.144531 13.917969 14.039062 13.914062 13.949219 13.957031 C 13.855469 14 13.777344 14.101562 13.714844 14.273438 C 13.679688 14.339844 13.660156 14.40625 13.648438 14.46875 C 13.632812 14.527344 13.632812 14.570312 13.636719 14.617188 C 13.652344 14.679688 13.675781 14.730469 13.714844 14.765625 C 13.75 14.808594 13.804688 14.851562 13.878906 14.882812 C 14.007812 14.9375 14.121094 14.941406 14.207031 14.886719 C 14.296875 14.839844 14.371094 14.730469 14.4375 14.570312 C 14.464844 14.496094 14.484375 14.429688 14.5 14.355469 Z M 14.191406 14.476562 C 14.152344 14.558594 14.121094 14.617188 14.097656 14.648438 C 14.074219 14.683594 14.050781 14.707031 14.027344 14.714844 C 14 14.726562 13.976562 14.726562 13.949219 14.714844 C 13.910156 14.699219 13.886719 14.667969 13.886719 14.617188 C 13.882812 14.570312 13.90625 14.488281 13.957031 14.378906 C 14 14.265625 14.039062 14.191406 14.074219 14.152344 C 14.109375 14.125 14.148438 14.113281 14.191406 14.136719 C 14.226562 14.148438 14.25 14.183594 14.25 14.226562 C 14.257812 14.28125 14.234375 14.367188 14.191406 14.476562 Z M 14.191406 14.476562 "/>
<path style=" stroke:none;fill-rule:nonzero;fill:rgb(100%,100%,100%);fill-opacity:1;" d="M 14.855469 15.074219 C 14.875 15.074219 14.925781 15.074219 14.984375 15.074219 C 15.101562 15.066406 15.183594 15.050781 15.242188 15.03125 C 15.300781 15 15.34375 14.964844 15.378906 14.917969 C 15.402344 14.871094 15.421875 14.820312 15.421875 14.765625 C 15.421875 14.714844 15.402344 14.667969 15.371094 14.617188 C 15.335938 14.570312 15.28125 14.519531 15.207031 14.472656 C 15.125 14.421875 15.0625 14.390625 15.003906 14.382812 C 14.957031 14.378906 14.902344 14.382812 14.859375 14.394531 C 14.8125 14.421875 14.757812 14.453125 14.710938 14.511719 L 14.925781 14.675781 C 14.960938 14.632812 14.992188 14.617188 15.019531 14.609375 C 15.046875 14.601562 15.085938 14.609375 15.101562 14.621094 C 15.136719 14.644531 15.152344 14.667969 15.15625 14.699219 C 15.164062 14.730469 15.160156 14.75 15.152344 14.773438 C 15.132812 14.800781 15.101562 14.8125 15.070312 14.835938 C 15.039062 14.847656 14.972656 14.855469 14.875 14.855469 C 14.714844 14.863281 14.59375 14.886719 14.519531 14.917969 C 14.441406 14.949219 14.375 14.992188 14.324219 15.050781 L 14.996094 15.5 L 15.113281 15.316406 L 14.765625 15.089844 C 14.796875 15.082031 14.828125 15.082031 14.855469 15.074219 Z M 14.855469 15.074219 "/>
<path style=" stroke:none;fill-rule:nonzero;fill:rgb(100%,100%,100%);fill-opacity:1;" d="M 15.875 16.371094 C 15.914062 16.394531 15.957031 16.414062 16.015625 16.429688 C 16.074219 16.4375 16.128906 16.433594 16.183594 16.40625 C 16.246094 16.390625 16.316406 16.355469 16.390625 16.285156 C 16.445312 16.25 16.488281 16.207031 16.523438 16.15625 C 16.558594 16.109375 16.582031 16.050781 16.59375 15.996094 C 16.605469 15.941406 16.601562 15.890625 16.585938 15.832031 C 16.570312 15.777344 16.53125 15.710938 16.480469 15.644531 L 16.199219 15.304688 L 15.457031 15.90625 L 15.738281 16.25 C 15.773438 16.289062 15.8125 16.332031 15.875 16.371094 Z M 16.222656 15.675781 L 16.269531 15.730469 C 16.316406 15.789062 16.335938 15.847656 16.332031 15.890625 C 16.320312 15.9375 16.28125 15.996094 16.199219 16.0625 C 16.140625 16.113281 16.09375 16.136719 16.054688 16.148438 C 16.023438 16.160156 15.988281 16.15625 15.960938 16.144531 C 15.933594 16.136719 15.902344 16.109375 15.867188 16.054688 L 15.8125 16.003906 Z M 16.222656 15.675781 "/>
<path style=" stroke:none;fill-rule:nonzero;fill:rgb(100%,100%,100%);fill-opacity:1;" d="M 16.3125 16.632812 C 16.28125 16.664062 16.261719 16.695312 16.238281 16.746094 C 16.222656 16.78125 16.214844 16.828125 16.214844 16.867188 C 16.214844 16.910156 16.21875 16.957031 16.238281 17.015625 C 16.261719 17.058594 16.28125 17.113281 16.292969 17.15625 C 16.332031 17.226562 16.375 17.285156 16.417969 17.324219 C 16.453125 17.359375 16.496094 17.382812 16.539062 17.390625 C 16.59375 17.414062 16.648438 17.417969 16.699219 17.414062 C 16.753906 17.402344 16.804688 17.390625 16.851562 17.367188 L 17.367188 17.117188 L 17.230469 16.851562 L 16.707031 17.105469 C 16.660156 17.132812 16.625 17.136719 16.582031 17.121094 C 16.535156 17.109375 16.515625 17.082031 16.488281 17.039062 C 16.46875 16.984375 16.464844 16.941406 16.46875 16.90625 C 16.488281 16.867188 16.519531 16.832031 16.5625 16.8125 L 17.089844 16.558594 L 16.949219 16.285156 L 16.445312 16.546875 C 16.402344 16.5625 16.355469 16.59375 16.3125 16.632812 Z M 16.3125 16.632812 "/>
<path style=" stroke:none;fill-rule:nonzero;fill:rgb(100%,100%,100%);fill-opacity:1;" d="M 16.636719 18.019531 L 17.550781 17.757812 L 17.472656 17.472656 L 16.554688 17.734375 Z M 16.636719 18.019531 "/>
<path style=" stroke:none;fill-rule:nonzero;fill:rgb(100%,100%,100%);fill-opacity:1;" d="M 17.382812 18.128906 C 17.308594 18.136719 17.257812 18.171875 17.214844 18.234375 C 17.171875 18.292969 17.144531 18.394531 17.128906 18.527344 C 17.125 18.605469 17.113281 18.660156 17.089844 18.679688 C 17.074219 18.707031 17.058594 18.714844 17.03125 18.714844 C 17.003906 18.722656 16.980469 18.714844 16.957031 18.695312 C 16.941406 18.675781 16.925781 18.640625 16.917969 18.601562 C 16.910156 18.542969 16.929688 18.5 16.957031 18.464844 C 16.980469 18.445312 17.015625 18.429688 17.058594 18.414062 L 17.007812 18.136719 C 16.914062 18.15625 16.839844 18.203125 16.78125 18.269531 C 16.726562 18.339844 16.707031 18.457031 16.734375 18.625 C 16.742188 18.707031 16.761719 18.789062 16.800781 18.847656 C 16.832031 18.90625 16.878906 18.949219 16.933594 18.976562 C 16.984375 19 17.046875 19.011719 17.109375 19 C 17.160156 18.996094 17.203125 18.984375 17.238281 18.953125 C 17.28125 18.921875 17.308594 18.875 17.335938 18.8125 C 17.355469 18.757812 17.371094 18.664062 17.382812 18.527344 C 17.386719 18.476562 17.394531 18.441406 17.410156 18.425781 C 17.414062 18.410156 17.425781 18.398438 17.441406 18.398438 C 17.46875 18.398438 17.480469 18.398438 17.5 18.417969 C 17.515625 18.433594 17.527344 18.460938 17.53125 18.492188 C 17.535156 18.53125 17.53125 18.566406 17.515625 18.597656 C 17.5 18.625 17.472656 18.640625 17.421875 18.65625 L 17.480469 18.933594 C 17.570312 18.90625 17.640625 18.863281 17.675781 18.792969 C 17.714844 18.714844 17.726562 18.628906 17.710938 18.5 C 17.699219 18.398438 17.675781 18.332031 17.648438 18.269531 C 17.617188 18.21875 17.578125 18.171875 17.527344 18.152344 C 17.480469 18.132812 17.433594 18.121094 17.382812 18.128906 Z M 17.382812 18.128906 "/>
<path style=" stroke:none;fill-rule:nonzero;fill:rgb(100%,100%,100%);fill-opacity:1;" d="M 16.800781 19.179688 L 16.746094 19.6875 L 16.746094 19.820312 C 16.753906 19.878906 16.757812 19.914062 16.761719 19.9375 C 16.789062 19.980469 16.816406 20.015625 16.851562 20.046875 C 16.886719 20.074219 16.933594 20.085938 16.980469 20.085938 C 17.042969 20.09375 17.089844 20.082031 17.136719 20.058594 C 17.183594 20.027344 17.214844 19.980469 17.238281 19.914062 C 17.246094 19.957031 17.265625 19.996094 17.289062 20.027344 C 17.328125 20.058594 17.375 20.078125 17.425781 20.085938 C 17.5 20.09375 17.550781 20.078125 17.601562 20.03125 C 17.652344 19.988281 17.691406 19.914062 17.695312 19.824219 L 17.746094 19.269531 Z M 17.152344 19.660156 C 17.144531 19.71875 17.132812 19.757812 17.117188 19.773438 C 17.089844 19.792969 17.074219 19.800781 17.042969 19.796875 C 17.011719 19.792969 16.988281 19.78125 16.976562 19.761719 C 16.957031 19.734375 16.949219 19.699219 16.953125 19.648438 L 16.972656 19.5 L 17.171875 19.515625 Z M 17.515625 19.683594 C 17.511719 19.726562 17.5 19.757812 17.480469 19.773438 C 17.46875 19.792969 17.441406 19.792969 17.414062 19.792969 C 17.382812 19.792969 17.367188 19.78125 17.351562 19.761719 C 17.335938 19.742188 17.328125 19.703125 17.335938 19.660156 L 17.351562 19.527344 L 17.527344 19.550781 Z M 17.515625 19.683594 "/>
<path style=" stroke:none;fill-rule:nonzero;fill:rgb(100%,100%,100%);fill-opacity:1;" d="M 16.890625 20.265625 C 16.851562 20.265625 16.8125 20.273438 16.765625 20.292969 C 16.722656 20.304688 16.691406 20.335938 16.652344 20.355469 C 16.625 20.394531 16.601562 20.433594 16.582031 20.484375 C 16.554688 20.53125 16.53125 20.585938 16.523438 20.628906 C 16.496094 20.707031 16.484375 20.769531 16.488281 20.828125 C 16.488281 20.875 16.5 20.925781 16.523438 20.96875 C 16.546875 21.015625 16.582031 21.0625 16.625 21.089844 C 16.660156 21.121094 16.707031 21.152344 16.761719 21.167969 L 17.304688 21.347656 L 17.402344 21.0625 L 16.84375 20.882812 C 16.800781 20.867188 16.761719 20.835938 16.746094 20.800781 C 16.722656 20.765625 16.722656 20.726562 16.742188 20.671875 C 16.757812 20.625 16.785156 20.589844 16.820312 20.574219 C 16.859375 20.550781 16.898438 20.546875 16.949219 20.570312 L 17.503906 20.753906 L 17.597656 20.472656 L 17.058594 20.292969 C 17.011719 20.273438 16.953125 20.265625 16.890625 20.265625 Z M 16.890625 20.265625 "/>
<path style=" stroke:none;fill-rule:nonzero;fill:rgb(100%,100%,100%);fill-opacity:1;" d="M 16.160156 21.46875 L 16.488281 21.664062 L 16.472656 21.691406 C 16.464844 21.714844 16.441406 21.726562 16.417969 21.738281 C 16.402344 21.75 16.375 21.75 16.328125 21.75 L 15.996094 21.730469 L 15.8125 22.011719 L 16.128906 22.042969 C 16.144531 22.042969 16.167969 22.042969 16.203125 22.035156 C 16.238281 22.03125 16.261719 22.027344 16.273438 22.019531 C 16.289062 22.007812 16.316406 22 16.34375 21.96875 C 16.328125 22.007812 16.320312 22.050781 16.320312 22.078125 C 16.320312 22.125 16.332031 22.171875 16.351562 22.203125 C 16.375 22.246094 16.40625 22.28125 16.449219 22.308594 C 16.503906 22.34375 16.554688 22.359375 16.605469 22.355469 C 16.652344 22.355469 16.703125 22.332031 16.742188 22.304688 C 16.777344 22.269531 16.820312 22.203125 16.875 22.128906 L 17.132812 21.710938 L 16.316406 21.207031 Z M 16.546875 21.941406 C 16.558594 21.902344 16.570312 21.878906 16.582031 21.867188 L 16.648438 21.765625 L 16.808594 21.863281 L 16.746094 21.96875 C 16.707031 22.019531 16.6875 22.050781 16.660156 22.054688 C 16.636719 22.0625 16.613281 22.058594 16.585938 22.042969 C 16.570312 22.035156 16.554688 22.011719 16.546875 22 C 16.539062 21.976562 16.539062 21.960938 16.546875 21.941406 Z M 16.546875 21.941406 "/>
<path style=" stroke:none;fill-rule:nonzero;fill:rgb(100%,100%,100%);fill-opacity:1;" d="M 16.144531 22.359375 C 16.078125 22.296875 16 22.246094 15.917969 22.21875 C 15.835938 22.195312 15.75 22.195312 15.675781 22.21875 C 15.597656 22.246094 15.519531 22.304688 15.433594 22.378906 C 15.375 22.449219 15.328125 22.511719 15.289062 22.574219 C 15.257812 22.636719 15.234375 22.71875 15.214844 22.828125 L 15.507812 23.109375 L 15.828125 22.777344 L 15.6875 22.640625 L 15.546875 22.785156 L 15.480469 22.722656 C 15.492188 22.671875 15.507812 22.640625 15.519531 22.613281 C 15.53125 22.585938 15.554688 22.5625 15.578125 22.539062 C 15.628906 22.480469 15.675781 22.464844 15.738281 22.464844 C 15.804688 22.472656 15.867188 22.503906 15.941406 22.578125 C 16.007812 22.644531 16.046875 22.710938 16.054688 22.769531 C 16.054688 22.828125 16.039062 22.882812 15.988281 22.925781 C 15.957031 22.957031 15.929688 22.976562 15.890625 22.984375 C 15.863281 22.988281 15.824219 22.984375 15.792969 22.96875 L 15.628906 23.207031 C 15.679688 23.242188 15.738281 23.253906 15.792969 23.257812 C 15.84375 23.261719 15.894531 23.25 15.949219 23.226562 C 16 23.203125 16.058594 23.152344 16.136719 23.074219 C 16.214844 23.003906 16.265625 22.925781 16.289062 22.855469 C 16.316406 22.769531 16.320312 22.683594 16.292969 22.597656 C 16.273438 22.511719 16.222656 22.429688 16.144531 22.359375 Z M 16.144531 22.359375 "/>
<path style=" stroke:none;fill-rule:nonzero;fill:rgb(100%,100%,100%);fill-opacity:1;" d="M 12.453125 24.28125 C 12.453125 24.492188 12.277344 24.660156 12.058594 24.660156 C 11.847656 24.660156 11.667969 24.492188 11.667969 24.28125 C 11.667969 24.0625 11.847656 23.890625 12.058594 23.890625 C 12.277344 23.890625 12.453125 24.0625 12.453125 24.28125 "/>
</g>
</svg>
