<?xml version="1.0" encoding="UTF-8"?>
<svg xmlns="http://www.w3.org/2000/svg" xmlns:xlink="http://www.w3.org/1999/xlink" width="34pt" height="25pt" viewBox="0 0 34 25" version="1.1">
<g id="surface1">
<path style="fill-rule:nonzero;fill:rgb(100%,100%,100%);fill-opacity:1;stroke-width:18.714195;stroke-linecap:butt;stroke-linejoin:miter;stroke:rgb(0%,0%,0%);stroke-opacity:1;stroke-miterlimit:4;" d="M 59.587923 271.331342 C 59.587923 385.073264 13.473862 477.329107 -43.407398 477.329107 C -100.288657 477.329107 -146.402718 385.073264 -146.348338 271.331342 C -146.402718 157.522277 -100.288657 65.266433 -43.407398 65.266433 C 13.473862 65.266433 59.587923 157.522277 59.587923 271.331342 Z M 59.587923 271.331342 " transform="matrix(0.0718328,0,0,0.0581772,20.657135,-3.25405)"/>
<path style="fill-rule:nonzero;fill:rgb(100%,100%,100%);fill-opacity:1;stroke-width:18.714195;stroke-linecap:butt;stroke-linejoin:miter;stroke:rgb(0%,0%,0%);stroke-opacity:1;stroke-miterlimit:4;" d="M 59.596124 271.332736 C 59.596124 385.090616 13.502668 477.307709 -43.40864 477.307709 C -100.261156 477.307709 -146.354612 385.090616 -146.354612 271.332736 C -146.354612 157.504462 -100.261156 65.287368 -43.40864 65.287368 C 13.502668 65.287368 59.596124 157.504462 59.596124 271.332736 Z M 59.596124 271.332736 " transform="matrix(0.0664411,0,0,0.0554907,20.42318,-2.525183)"/>
<path style=" stroke:none;fill-rule:nonzero;fill:rgb(0%,0%,0%);fill-opacity:1;" d="M 24.382812 12.53125 C 24.382812 18.839844 21.316406 23.957031 17.539062 23.957031 C 16.15625 23.957031 14.867188 23.269531 13.792969 22.089844 C 17.4375 12.59375 17.441406 12.582031 21.160156 2.832031 C 21.601562 3.292969 22.011719 3.835938 22.378906 4.449219 C 23.617188 6.519531 24.382812 9.375 24.382812 12.53125 Z M 24.382812 12.53125 "/>
<path style=" stroke:none;fill-rule:nonzero;fill:rgb(0%,0%,0%);fill-opacity:1;" d="M 13.761719 15.113281 C 13.707031 15.035156 13.664062 14.863281 13.664062 14.730469 C 13.664062 14.464844 13.996094 13.085938 14.242188 12.324219 C 14.398438 11.832031 14.394531 11.738281 14.214844 11.738281 C 14.117188 11.738281 12.902344 13.007812 12.351562 13.6875 C 12.109375 13.988281 11.992188 14.039062 11.929688 13.875 C 11.8125 13.570312 12.234375 12.785156 13.121094 11.652344 C 13.671875 10.945312 13.785156 10.773438 13.785156 10.628906 C 13.785156 10.390625 13.410156 10.46875 12.527344 10.902344 C 12.183594 11.070312 11.882812 11.1875 11.863281 11.164062 C 11.800781 11.101562 12.136719 10.507812 12.351562 10.296875 C 12.457031 10.195312 12.832031 9.957031 13.179688 9.765625 C 13.53125 9.578125 14.085938 9.246094 14.417969 9.035156 C 14.753906 8.820312 15.160156 8.601562 15.324219 8.542969 C 15.929688 8.339844 16.230469 8.152344 16.347656 7.910156 C 16.519531 7.558594 16.464844 7.503906 15.917969 7.5 C 15.660156 7.496094 15.207031 7.472656 14.910156 7.449219 C 14.40625 7.40625 14.355469 7.386719 14.199219 7.210938 C 13.894531 6.871094 13.90625 6.867188 15.277344 6.886719 C 16.023438 6.898438 16.546875 6.882812 16.582031 6.847656 C 16.710938 6.71875 16.011719 6.421875 15.253906 6.285156 C 15.015625 6.238281 14.898438 6.195312 14.949219 6.164062 C 15.078125 6.082031 15.863281 6.109375 16.199219 6.207031 C 16.375 6.261719 16.53125 6.292969 16.542969 6.277344 C 16.601562 6.21875 16.316406 5.945312 16.039062 5.796875 C 15.589844 5.550781 15.074219 5.433594 14.824219 5.515625 C 14.6875 5.558594 14.464844 5.566406 14.15625 5.53125 C 13.902344 5.503906 13.640625 5.488281 13.578125 5.496094 C 13.378906 5.523438 13.242188 5.695312 13.242188 5.910156 C 13.242188 6.144531 13.226562 6.148438 13 6.011719 C 12.773438 5.882812 12.695312 5.695312 12.695312 5.304688 C 12.695312 4.988281 12.808594 4.785156 12.984375 4.785156 C 13.019531 4.785156 13.132812 4.714844 13.234375 4.628906 C 13.335938 4.542969 13.515625 4.457031 13.632812 4.441406 C 13.789062 4.414062 13.875 4.355469 13.9375 4.242188 L 14.019531 4.074219 L 15.371094 4.027344 C 17.347656 3.957031 17.546875 3.964844 17.867188 4.117188 C 18.335938 4.34375 18.773438 5.011719 18.84375 5.609375 C 18.875 5.847656 18.84375 6.011719 18.714844 6.390625 C 18.605469 6.703125 18.53125 7.078125 18.503906 7.464844 C 18.476562 7.789062 18.441406 8.070312 18.421875 8.089844 C 18.371094 8.140625 18.199219 7.988281 18.199219 7.894531 C 18.199219 7.691406 18.066406 7.765625 17.945312 8.027344 C 17.84375 8.261719 17.808594 8.472656 17.789062 9.0625 C 17.765625 9.71875 17.753906 9.796875 17.671875 9.726562 C 17.621094 9.6875 17.53125 9.542969 17.472656 9.410156 L 17.367188 9.167969 L 17.253906 9.410156 C 17.164062 9.601562 17.140625 9.796875 17.140625 10.390625 C 17.140625 10.796875 17.132812 11.132812 17.125 11.132812 C 17.117188 11.132812 17.039062 11.085938 16.957031 11.035156 C 16.808594 10.9375 16.808594 10.9375 16.683594 11.21875 C 16.492188 11.65625 16.289062 12.53125 16.171875 13.429688 C 16.113281 13.878906 16.046875 14.265625 16.023438 14.292969 C 16 14.320312 15.902344 14.277344 15.804688 14.195312 L 15.628906 14.042969 L 15.628906 12.886719 C 15.632812 11.765625 15.628906 11.730469 15.511719 11.75 C 15.355469 11.769531 15.25 11.992188 14.636719 13.609375 C 13.976562 15.351562 13.957031 15.390625 13.761719 15.113281 Z M 14.925781 12.089844 C 15.265625 11.265625 15.539062 10.566406 15.539062 10.527344 C 15.539062 10.488281 15.46875 10.46875 15.375 10.476562 C 15.21875 10.496094 15.195312 10.550781 14.746094 11.976562 C 14.023438 14.25 14.039062 14.257812 14.925781 12.089844 Z M 13.839844 11.59375 C 14.992188 10.308594 15.207031 10.011719 14.941406 10.054688 C 14.867188 10.066406 14.371094 10.644531 13.628906 11.585938 C 11.972656 13.6875 11.964844 13.6875 13.839844 11.59375 Z M 16.503906 10.277344 C 16.507812 10.148438 16.347656 10.085938 16.210938 10.160156 C 16.089844 10.226562 16.050781 10.519531 15.996094 11.765625 L 15.964844 12.492188 L 16.234375 11.433594 C 16.378906 10.851562 16.503906 10.332031 16.503906 10.277344 Z M 13.882812 10.078125 C 14.609375 9.785156 15.253906 9.496094 15.316406 9.441406 C 15.445312 9.320312 15.394531 9.136719 15.234375 9.136719 C 15.136719 9.136719 12.550781 10.527344 12.457031 10.628906 C 12.414062 10.675781 12.363281 10.695312 13.882812 10.078125 Z M 16.953125 8.957031 C 17.121094 8.703125 17.164062 8.503906 17.042969 8.546875 C 16.980469 8.566406 16.722656 9.195312 16.773438 9.195312 C 16.785156 9.195312 16.863281 9.089844 16.953125 8.957031 Z M 17.570312 7.863281 C 17.722656 7.617188 17.730469 7.410156 17.582031 7.457031 C 17.515625 7.480469 17.332031 8.109375 17.390625 8.109375 C 17.402344 8.109375 17.484375 7.996094 17.570312 7.863281 Z M 18.222656 6.242188 C 18.234375 6.0625 18.109375 6.007812 18.03125 6.15625 C 18 6.214844 17.960938 6.441406 17.941406 6.65625 L 17.90625 7.050781 L 18.058594 6.71875 C 18.144531 6.535156 18.214844 6.320312 18.222656 6.242188 Z M 13.121094 5.746094 C 13.121094 5.390625 13.445312 5.230469 13.964844 5.328125 C 14.203125 5.371094 14.308594 5.371094 14.375 5.316406 C 14.449219 5.253906 14.445312 5.234375 14.355469 5.164062 C 14.292969 5.121094 14.195312 5.085938 14.136719 5.085938 C 14.074219 5.085938 13.980469 4.992188 13.90625 4.84375 C 13.769531 4.578125 13.601562 4.53125 13.414062 4.699219 C 13.355469 4.75 13.21875 4.839844 13.109375 4.894531 C 12.917969 4.988281 12.90625 5.015625 12.890625 5.347656 C 12.871094 5.679688 12.9375 5.871094 13.066406 5.871094 C 13.097656 5.871094 13.121094 5.816406 13.121094 5.746094 Z M 13.480469 4.992188 C 13.4375 4.941406 13.421875 4.886719 13.4375 4.867188 C 13.5 4.804688 13.722656 4.910156 13.722656 5 C 13.722656 5.113281 13.578125 5.109375 13.480469 4.992188 Z M 16.722656 5.199219 C 16.839844 5.074219 16.839844 5.074219 16.65625 5.085938 C 16.363281 5.105469 16.324219 5.09375 16.324219 4.964844 C 16.324219 4.832031 16.207031 4.804688 16.097656 4.917969 C 16.003906 5.007812 16.003906 5.164062 16.097656 5.253906 C 16.21875 5.375 16.59375 5.34375 16.722656 5.199219 Z M 17.003906 4.875 C 16.890625 4.824219 16.730469 4.730469 16.644531 4.664062 C 16.445312 4.503906 16.078125 4.5 15.9375 4.65625 C 15.835938 4.769531 15.839844 4.773438 16.070312 4.742188 C 16.238281 4.71875 16.371094 4.746094 16.542969 4.835938 C 16.671875 4.902344 16.875 4.960938 16.992188 4.960938 L 17.203125 4.960938 Z M 17.003906 4.875 "/>
<path style="fill:none;stroke-width:15.032342;stroke-linecap:butt;stroke-linejoin:miter;stroke:rgb(100%,100%,100%);stroke-opacity:1;stroke-miterlimit:4;" d="M 354.951717 82.679866 C 346.258161 94.41349 330.892806 99.10694 317.104423 94.211187 C 303.316039 89.315433 294.339437 75.963377 295.026834 61.357038 C 295.673797 46.750698 305.823018 34.28878 320.015753 30.64731 C 334.208488 27.046301 349.088621 33.115417 356.649993 45.617797 " transform="matrix(0.0966053,0,0,0.0965441,-11.344912,10.302901)"/>
<path style=" stroke:none;fill-rule:nonzero;fill:rgb(100%,100%,100%);fill-opacity:1;" d="M 18.65625 17.886719 L 19.097656 17.691406 C 19.179688 17.921875 19.320312 18.097656 19.519531 18.226562 C 19.722656 18.351562 19.964844 18.414062 20.246094 18.414062 C 20.601562 18.414062 20.878906 18.328125 21.082031 18.152344 C 21.28125 17.980469 21.378906 17.738281 21.378906 17.429688 C 21.378906 17.203125 21.3125 17.015625 21.179688 16.867188 C 21.042969 16.71875 20.753906 16.546875 20.3125 16.351562 C 19.746094 16.101562 19.367188 15.882812 19.179688 15.695312 C 18.992188 15.503906 18.898438 15.277344 18.898438 15.011719 C 18.898438 14.679688 19.035156 14.410156 19.304688 14.203125 C 19.578125 13.992188 19.925781 13.890625 20.359375 13.890625 C 20.640625 13.890625 20.886719 13.9375 21.09375 14.039062 C 21.304688 14.136719 21.472656 14.285156 21.605469 14.484375 L 21.207031 14.679688 C 21.125 14.546875 21.007812 14.445312 20.859375 14.375 C 20.710938 14.304688 20.53125 14.269531 20.328125 14.269531 C 20.050781 14.269531 19.828125 14.335938 19.664062 14.472656 C 19.5 14.605469 19.417969 14.789062 19.417969 15.019531 C 19.417969 15.347656 19.746094 15.652344 20.394531 15.933594 C 20.515625 15.984375 20.605469 16.023438 20.664062 16.050781 C 21.144531 16.269531 21.464844 16.476562 21.625 16.671875 C 21.789062 16.867188 21.871094 17.121094 21.871094 17.429688 C 21.871094 17.847656 21.722656 18.179688 21.425781 18.425781 C 21.132812 18.671875 20.730469 18.792969 20.222656 18.792969 C 19.855469 18.792969 19.539062 18.71875 19.273438 18.566406 C 19.011719 18.414062 18.804688 18.1875 18.65625 17.886719 Z M 18.65625 17.886719 "/>
<path style=" stroke:none;fill-rule:nonzero;fill:rgb(100%,100%,100%);fill-opacity:1;" d="M 19.804688 18.949219 L 19.804688 14.90625 L 22.023438 14.90625 L 22.023438 15.25 L 20.210938 15.25 L 20.210938 16.515625 L 21.957031 16.515625 L 21.957031 16.863281 L 20.210938 16.863281 L 20.210938 18.949219 Z M 19.804688 18.949219 "/>
</g>
</svg>
