<?xml version="1.0" encoding="UTF-8"?>
<svg xmlns="http://www.w3.org/2000/svg" xmlns:xlink="http://www.w3.org/1999/xlink" width="35pt" height="25pt" viewBox="0 0 35 25" version="1.1">
<g id="surface1">
<path style=" stroke:none;fill-rule:nonzero;fill:rgb(100%,100%,100%);fill-opacity:1;" d="M 4.75 12.5 C 4.75 5.597656 10.347656 0 17.25 0 C 24.152344 0 29.75 5.597656 29.75 12.5 C 29.75 19.402344 24.152344 25 17.25 25 C 10.347656 25 4.75 19.402344 4.75 12.5 "/>
<path style=" stroke:none;fill-rule:nonzero;fill:rgb(0%,30.980392%,62.352941%);fill-opacity:1;" d="M 5.074219 12.5 C 5.074219 5.773438 10.523438 0.324219 17.25 0.324219 C 23.976562 0.324219 29.425781 5.773438 29.425781 12.5 C 29.425781 19.226562 23.976562 24.675781 17.25 24.675781 C 10.523438 24.675781 5.074219 19.226562 5.074219 12.5 "/>
<path style=" stroke:none;fill-rule:nonzero;fill:rgb(100%,100%,100%);fill-opacity:1;" d="M 5.394531 12.5 C 5.394531 5.953125 10.703125 0.644531 17.25 0.644531 C 23.796875 0.644531 29.105469 5.953125 29.105469 12.5 C 29.105469 19.046875 23.796875 24.355469 17.25 24.355469 C 10.703125 24.355469 5.394531 19.046875 5.394531 12.5 "/>
<path style=" stroke:none;fill-rule:evenodd;fill:rgb(0%,30.980392%,62.352941%);fill-opacity:1;" d="M 27.929688 12.445312 C 27.753906 12.441406 27.609375 12.570312 27.605469 12.726562 C 27.601562 12.886719 27.746094 13.019531 27.921875 13.019531 C 28.097656 13.023438 28.242188 12.898438 28.246094 12.738281 C 28.246094 12.582031 28.105469 12.449219 27.929688 12.445312 M 25.910156 13.390625 L 27.335938 14.078125 L 25.769531 14.296875 L 25.816406 14.773438 L 28.003906 14.402344 L 28.070312 13.980469 L 26.105469 12.949219 Z M 27.550781 15.339844 C 27.382812 15.289062 27.207031 15.371094 27.160156 15.523438 C 27.113281 15.671875 27.214844 15.839844 27.382812 15.890625 C 27.550781 15.941406 27.726562 15.859375 27.773438 15.710938 C 27.820312 15.558594 27.71875 15.390625 27.550781 15.339844 M 26.289062 16.773438 C 26.230469 16.746094 26.019531 16.570312 26.097656 16.398438 C 26.167969 16.234375 26.3125 16.253906 26.3125 16.253906 C 26.378906 16.429688 26.382812 16.566406 26.289062 16.773438 M 26.90625 16.757812 C 26.828125 16.933594 26.636719 16.917969 26.601562 16.902344 C 26.777344 16.503906 26.710938 16.160156 26.425781 15.839844 C 26.085938 15.789062 25.808594 15.914062 25.675781 16.210938 C 25.507812 16.589844 25.796875 17.027344 26.214844 17.214844 C 26.628906 17.398438 27.152344 17.316406 27.316406 16.941406 C 27.480469 16.578125 27.269531 16.253906 27.269531 16.253906 L 26.910156 16.390625 C 26.910156 16.390625 27.011719 16.527344 26.90625 16.757812 M 24.386719 18.539062 C 24.464844 18.613281 24.457031 18.730469 24.390625 18.804688 C 24.324219 18.875 24.210938 18.898438 24.128906 18.824219 C 24.050781 18.753906 24.058594 18.636719 24.125 18.5625 C 24.1875 18.492188 24.304688 18.46875 24.386719 18.539062 M 25.132812 19.082031 C 25.253906 19.191406 25.238281 19.367188 25.136719 19.476562 C 25.039062 19.585938 24.863281 19.617188 24.746094 19.511719 C 24.625 19.402344 24.640625 19.226562 24.738281 19.117188 C 24.835938 19.007812 25.007812 18.96875 25.132812 19.082031 M 24.308594 19.234375 C 24.226562 19.46875 24.273438 19.703125 24.476562 19.886719 C 24.789062 20.167969 25.257812 20.042969 25.484375 19.789062 C 25.734375 19.511719 25.785156 19.058594 25.476562 18.78125 C 25.273438 18.597656 25.023438 18.578125 24.804688 18.683594 C 24.847656 18.496094 24.808594 18.3125 24.648438 18.167969 C 24.378906 17.925781 23.996094 18.007812 23.777344 18.25 C 23.558594 18.492188 23.511719 18.886719 23.78125 19.128906 C 23.941406 19.273438 24.121094 19.296875 24.308594 19.234375 M 23.523438 20.164062 C 23.617188 20.292969 23.570312 20.441406 23.453125 20.527344 C 23.335938 20.617188 23.179688 20.621094 23.082031 20.492188 C 22.984375 20.363281 23.035156 20.214844 23.152344 20.125 C 23.265625 20.039062 23.425781 20.03125 23.523438 20.164062 M 24.027344 20.050781 C 23.636719 19.535156 23.203125 19.523438 22.886719 19.761719 C 22.589844 19.988281 22.46875 20.429688 22.730469 20.78125 C 23.003906 21.136719 23.375 21.148438 23.644531 20.945312 C 23.773438 20.847656 23.816406 20.769531 23.863281 20.667969 C 23.90625 20.832031 23.882812 21.058594 23.855469 21.191406 C 23.8125 21.382812 23.722656 21.585938 23.640625 21.691406 L 24.09375 21.777344 C 24.386719 21.285156 24.421875 20.578125 24.027344 20.050781 M 21.765625 20.671875 C 21.816406 20.765625 21.765625 20.875 21.679688 20.921875 C 21.59375 20.964844 21.476562 20.945312 21.425781 20.851562 C 21.375 20.757812 21.425781 20.648438 21.511719 20.605469 C 21.597656 20.558594 21.714844 20.578125 21.765625 20.671875 M 22.28125 21.433594 C 22.359375 21.582031 22.28125 21.738281 22.152344 21.808594 C 22.023438 21.878906 21.847656 21.847656 21.769531 21.707031 C 21.695312 21.5625 21.769531 21.402344 21.898438 21.332031 C 22.03125 21.261719 22.203125 21.289062 22.28125 21.433594 M 21.453125 21.296875 C 21.300781 21.488281 21.261719 21.726562 21.390625 21.96875 C 21.589844 22.339844 22.070312 22.378906 22.371094 22.222656 C 22.703125 22.046875 22.90625 21.636719 22.707031 21.269531 C 22.578125 21.027344 22.351562 20.925781 22.109375 20.949219 C 22.214844 20.785156 22.242188 20.601562 22.140625 20.410156 C 21.96875 20.089844 21.578125 20.039062 21.292969 20.191406 C 21.003906 20.34375 20.824219 20.699219 20.996094 21.019531 C 21.097656 21.210938 21.257812 21.292969 21.453125 21.296875 M 21.101562 22.726562 L 20.5625 21.164062 L 20.128906 21.3125 L 20.667969 22.875 Z M 18.402344 23.367188 L 18.253906 21.699219 L 18.738281 21.65625 L 18.695312 21.179688 L 17.265625 21.304688 L 17.308594 21.78125 L 17.792969 21.742188 L 17.9375 23.40625 Z M 15.914062 21.667969 L 16.101562 21.691406 C 16.363281 21.722656 16.507812 22.011719 16.480469 22.304688 C 16.453125 22.613281 16.234375 22.910156 15.953125 22.875 L 15.769531 22.851562 Z M 16.160156 21.214844 L 15.511719 21.136719 L 15.25 23.273438 L 15.894531 23.351562 C 16.421875 23.417969 16.894531 22.949219 16.949219 22.359375 C 17.003906 21.792969 16.667969 21.277344 16.160156 21.214844 M 14.332031 21.488281 L 14.300781 22.148438 L 13.96875 22.042969 Z M 13.445312 22.835938 L 13.695312 22.457031 L 14.277344 22.648438 L 14.257812 23.097656 L 14.738281 23.132812 L 14.726562 20.910156 L 14.351562 20.789062 L 13.039062 22.582031 Z M 12.3125 22.261719 L 13.097656 20.785156 L 13.523438 21.011719 L 13.75 20.589844 L 12.484375 19.914062 L 12.257812 20.339844 L 12.6875 20.566406 L 11.898438 22.042969 Z M 10.957031 20.191406 L 11.035156 20.386719 C 11.097656 20.542969 11.144531 20.667969 11.070312 20.769531 C 10.984375 20.882812 10.847656 20.871094 10.757812 20.804688 C 10.65625 20.726562 10.605469 20.578125 10.617188 20.429688 L 10.171875 20.566406 C 10.160156 20.847656 10.304688 21.046875 10.476562 21.179688 C 10.757812 21.390625 11.195312 21.351562 11.429688 21.042969 C 11.601562 20.816406 11.601562 20.554688 11.5 20.308594 L 11.421875 20.113281 C 11.367188 19.984375 11.3125 19.855469 11.386719 19.757812 C 11.460938 19.660156 11.570312 19.699219 11.660156 19.769531 C 11.746094 19.832031 11.777344 19.910156 11.789062 20.03125 L 12.199219 19.914062 C 12.1875 19.679688 12.097656 19.523438 11.914062 19.382812 C 11.679688 19.207031 11.242188 19.199219 11.023438 19.488281 C 10.835938 19.738281 10.875 19.992188 10.957031 20.191406 M 8.710938 19.363281 L 8.988281 19.695312 L 10.234375 19.078125 L 9.234375 20.097656 L 9.605469 20.390625 L 11 18.742188 L 10.722656 18.410156 L 9.382812 19.082031 L 10.277344 17.878906 L 10 17.546875 L 8.132812 18.632812 L 8.355469 19.050781 L 9.53125 18.242188 Z M 8.484375 16.808594 L 8.910156 16.582031 L 8.945312 16.648438 C 9.046875 16.839844 9.007812 16.941406 8.867188 17.015625 C 8.730469 17.089844 8.585938 17 8.519531 16.871094 Z M 8.417969 17.421875 C 8.625 17.546875 8.878906 17.546875 9.089844 17.433594 C 9.472656 17.230469 9.554688 16.765625 9.367188 16.421875 L 9.117188 15.945312 L 7.214844 16.957031 L 7.433594 17.367188 L 8.058594 17.035156 L 8.09375 17.097656 L 7.660156 17.949219 L 8.050781 18.203125 Z M 8.15625 15.148438 L 7.59375 15.503906 L 7.492188 15.171875 Z M 6.542969 15.195312 L 6.992188 15.183594 L 7.171875 15.769531 L 6.792969 16.011719 L 7.039062 16.425781 L 8.855469 15.140625 L 8.738281 14.765625 L 6.515625 14.71875 Z M 7.960938 13.054688 L 7.980469 13.242188 C 8 13.507812 7.753906 13.707031 7.460938 13.742188 C 7.148438 13.777344 6.816406 13.625 6.792969 13.347656 L 6.773438 13.160156 Z M 8.457031 13.199219 L 8.402344 12.550781 L 6.253906 12.738281 L 6.3125 13.386719 C 6.359375 13.914062 6.914062 14.277344 7.5 14.210938 C 8.070312 14.144531 8.503906 13.710938 8.457031 13.199219 "/>
<path style=" stroke:none;fill-rule:evenodd;fill:rgb(0%,30.980392%,62.352941%);fill-opacity:1;" d="M 24.90625 8.3125 L 25.179688 8.753906 L 27.003906 7.609375 L 26.730469 7.171875 L 25.695312 7.820312 L 26.339844 6.546875 L 26.066406 6.105469 L 24.238281 7.25 L 24.511719 7.6875 L 25.546875 7.039062 Z M 25.402344 5.351562 L 25.042969 4.964844 L 23.46875 6.4375 L 23.824219 6.820312 Z M 22.78125 5.191406 L 23.027344 4.867188 L 23.53125 5.242188 L 23.820312 4.859375 L 23.316406 4.480469 L 23.5 4.242188 L 24.085938 4.683594 L 24.375 4.300781 L 23.375 3.546875 L 22.078125 5.265625 L 23.109375 6.042969 L 23.398438 5.65625 Z M 21.285156 3.480469 L 21.488281 3.046875 L 21.5625 3.082031 C 21.78125 3.183594 21.820312 3.292969 21.753906 3.4375 C 21.6875 3.578125 21.503906 3.585938 21.359375 3.515625 Z M 21.652344 4.039062 C 21.917969 4.023438 22.128906 3.871094 22.230469 3.65625 C 22.414062 3.261719 22.160156 2.828125 21.765625 2.644531 L 21.222656 2.390625 L 20.3125 4.34375 L 20.78125 4.5625 L 21.082031 3.917969 L 21.152344 3.953125 L 21.375 4.917969 L 21.886719 4.90625 Z M 19.292969 3.574219 L 19.390625 3.175781 L 20 3.328125 L 20.117188 2.863281 L 19.507812 2.710938 L 19.578125 2.417969 L 20.292969 2.59375 L 20.410156 2.128906 L 19.195312 1.824219 L 18.671875 3.914062 L 19.921875 4.226562 L 20.039062 3.761719 Z M 17.972656 1.609375 L 17.433594 3.117188 L 16.953125 1.59375 L 16.433594 1.707031 L 17.183594 3.824219 L 17.660156 3.832031 L 18.484375 1.742188 Z M 15.78125 3.929688 L 15.464844 2.285156 L 15.992188 2.183594 L 15.898438 1.710938 L 14.335938 2.015625 L 14.425781 2.488281 L 14.957031 2.386719 L 15.273438 4.027344 Z M 13.230469 3.460938 L 13.050781 3.015625 L 13.128906 2.984375 C 13.351562 2.894531 13.457031 2.9375 13.515625 3.085938 C 13.578125 3.230469 13.453125 3.371094 13.308594 3.429688 Z M 13.886719 3.570312 C 14.058594 3.367188 14.09375 3.109375 14.003906 2.890625 C 13.839844 2.488281 13.351562 2.375 12.949219 2.539062 L 12.390625 2.761719 L 13.199219 4.761719 L 13.679688 4.566406 L 13.410156 3.90625 L 13.484375 3.878906 L 14.34375 4.375 L 14.683594 3.992188 Z M 11.136719 4.835938 C 10.925781 4.546875 10.835938 4.222656 11.085938 4.039062 C 11.339844 3.855469 11.621094 4.039062 11.832031 4.328125 C 12.042969 4.621094 12.132812 4.945312 11.878906 5.128906 C 11.628906 5.3125 11.347656 5.128906 11.136719 4.835938 M 10.808594 3.652344 C 10.339844 3.996094 10.371094 4.675781 10.710938 5.144531 C 11.054688 5.613281 11.6875 5.855469 12.160156 5.511719 C 12.628906 5.171875 12.597656 4.492188 12.257812 4.023438 C 11.914062 3.550781 11.277344 3.3125 10.808594 3.652344 M 9.308594 5.773438 L 9.363281 5.714844 C 9.484375 5.578125 9.695312 5.507812 9.832031 5.628906 C 9.964844 5.75 9.917969 5.96875 9.792969 6.101562 L 9.738281 6.164062 Z M 9.003906 5.390625 L 8.601562 5.835938 L 10.203125 7.277344 L 10.550781 6.894531 L 10.097656 6.488281 L 10.152344 6.425781 C 10.460938 6.082031 10.523438 5.546875 10.179688 5.238281 C 9.835938 4.929688 9.3125 5.046875 9.003906 5.390625 M 8.621094 7.929688 L 8.8125 7.816406 C 8.972656 7.722656 9.101562 7.652344 9.207031 7.71875 C 9.328125 7.789062 9.328125 7.9375 9.265625 8.042969 C 9.191406 8.167969 9.039062 8.242188 8.886719 8.253906 L 9.050781 8.710938 C 9.34375 8.675781 9.539062 8.488281 9.664062 8.285156 C 9.863281 7.953125 9.800781 7.484375 9.46875 7.285156 C 9.222656 7.140625 8.957031 7.183594 8.707031 7.332031 L 8.511719 7.445312 C 8.382812 7.527344 8.253906 7.605469 8.148438 7.542969 C 8.042969 7.480469 8.078125 7.355469 8.144531 7.246094 C 8.203125 7.144531 8.28125 7.097656 8.40625 7.066406 L 8.261719 6.644531 C 8.019531 6.695312 7.863281 6.816406 7.730469 7.039062 C 7.566406 7.316406 7.582031 7.789062 7.890625 7.972656 C 8.160156 8.136719 8.417969 8.050781 8.621094 7.929688 "/>
<path style=" stroke:none;fill-rule:evenodd;fill:rgb(0%,30.980392%,62.352941%);fill-opacity:1;" d="M 27.609375 10.304688 C 27.5625 10.070312 27.332031 9.921875 27.101562 9.972656 C 26.867188 10.019531 26.71875 10.25 26.769531 10.484375 C 26.816406 10.714844 27.046875 10.863281 27.277344 10.816406 C 27.511719 10.765625 27.660156 10.535156 27.609375 10.304688 M 6.863281 10.140625 C 6.808594 10.371094 6.949219 10.605469 7.179688 10.664062 C 7.410156 10.722656 7.644531 10.578125 7.703125 10.351562 C 7.757812 10.121094 7.617188 9.886719 7.386719 9.828125 C 7.15625 9.769531 6.921875 9.910156 6.863281 10.140625 "/>
<path style=" stroke:none;fill-rule:nonzero;fill:rgb(0%,30.980392%,62.352941%);fill-opacity:1;" d="M 9.199219 12.484375 C 9.199219 8.011719 12.828125 4.382812 17.304688 4.382812 C 21.777344 4.382812 25.40625 8.011719 25.40625 12.484375 C 25.40625 16.960938 21.777344 20.589844 17.304688 20.589844 C 12.828125 20.589844 9.199219 16.960938 9.199219 12.484375 M 13.226562 17.847656 C 13.335938 17.90625 13.417969 17.800781 13.542969 17.785156 C 13.980469 17.730469 14.054688 17.953125 14.382812 17.90625 C 14.753906 17.855469 15.152344 17.796875 15.519531 17.5 C 15.683594 17.367188 15.765625 17.273438 15.882812 17.101562 C 16.039062 16.867188 16.089844 16.671875 16.160156 16.4375 C 16.222656 16.210938 16.199219 15.6875 16.386719 15.695312 C 16.59375 15.699219 16.554688 16.179688 16.527344 16.492188 C 16.503906 16.726562 16.351562 17.199219 16.214844 17.488281 C 16.117188 17.699219 15.828125 18.714844 16.34375 19.300781 C 16.550781 19.539062 17.109375 20.195312 17.304688 20.195312 C 17.46875 20.195312 17.761719 19.863281 17.941406 19.664062 C 18.164062 19.410156 18.324219 19.28125 18.449219 18.96875 C 18.527344 18.773438 18.574219 18.648438 18.570312 18.441406 C 18.546875 17.800781 18.398438 17.472656 18.230469 17.125 C 18.140625 16.9375 18.109375 16.765625 18.082031 16.523438 C 18.039062 16.195312 18 15.699219 18.214844 15.699219 C 18.429688 15.699219 18.363281 16.121094 18.46875 16.523438 C 18.578125 16.933594 18.742188 17.285156 19.21875 17.589844 C 19.515625 17.78125 19.933594 17.878906 20.265625 17.902344 C 20.492188 17.917969 20.59375 17.792969 20.8125 17.78125 C 21.015625 17.773438 21.1875 17.785156 21.332031 17.84375 C 21.496094 17.90625 21.453125 17.339844 21.238281 17.042969 C 20.746094 16.351562 19.964844 16.828125 19.515625 16.332031 C 19.382812 16.1875 19.246094 15.941406 19.332031 15.835938 C 19.410156 15.738281 19.585938 16.011719 19.820312 15.675781 C 19.882812 15.589844 19.871094 15.21875 19.746094 14.96875 C 19.570312 14.617188 19.332031 14.667969 19.347656 14.542969 C 19.355469 14.488281 19.542969 14.019531 19.835938 13.570312 C 20.058594 13.277344 20.34375 12.988281 20.589844 12.835938 C 20.910156 12.640625 20.890625 12.609375 21.28125 12.554688 C 21.53125 12.519531 21.886719 12.554688 22.121094 12.804688 C 22.355469 13.0625 22.386719 13.265625 22.335938 13.707031 C 22.296875 14.046875 22.109375 14.3125 22.175781 14.636719 C 22.210938 14.816406 22.355469 15.230469 22.652344 15.207031 C 22.832031 15.191406 22.625 14.96875 22.929688 14.5625 C 23.136719 14.285156 23.941406 14.132812 24.265625 13.625 C 24.417969 13.386719 24.601562 13.097656 24.574219 12.550781 C 24.542969 11.90625 24.296875 11.480469 23.796875 11.054688 C 23.28125 10.625 22.390625 10.371094 21.414062 10.628906 C 21.054688 10.722656 20.871094 10.816406 20.554688 10.996094 C 19.917969 11.363281 19.585938 11.628906 19.183594 12.285156 C 18.90625 12.730469 18.765625 13.074219 18.652344 13.464844 C 18.496094 14.023438 18.503906 14.71875 18.195312 14.6875 C 17.949219 14.664062 18.203125 13.671875 18.25 13.109375 C 18.296875 12.597656 18.5 11.921875 18.796875 11.335938 C 19.097656 10.738281 19.394531 10.304688 19.578125 9.570312 C 19.675781 9.199219 19.78125 8.910156 19.71875 8.449219 C 19.671875 8.066406 19.554688 7.660156 19.3125 7.21875 C 19.070312 6.789062 18.835938 6.609375 18.496094 6.292969 C 18.0625 5.882812 17.835938 5.507812 17.597656 5.183594 C 17.195312 4.636719 17.316406 4.640625 16.9375 5.175781 C 16.691406 5.527344 16.578125 5.664062 16.347656 5.953125 C 16.09375 6.273438 15.78125 6.488281 15.570312 6.734375 C 15.394531 6.941406 15.140625 7.273438 14.992188 7.679688 C 14.828125 8.125 14.800781 8.566406 14.820312 8.882812 C 14.839844 9.183594 15.019531 9.859375 15.257812 10.398438 C 15.332031 10.570312 15.761719 11.226562 15.980469 11.800781 C 16.214844 12.425781 16.289062 12.769531 16.386719 13.46875 C 16.445312 13.902344 16.605469 14.660156 16.390625 14.691406 C 16.046875 14.742188 16.183594 14.226562 15.933594 13.484375 C 15.769531 13.011719 15.679688 12.726562 15.402344 12.304688 C 14.917969 11.5625 14.570312 11.265625 13.671875 10.828125 C 13.449219 10.71875 12.902344 10.445312 11.902344 10.578125 C 11.566406 10.625 10.953125 10.863281 10.585938 11.253906 C 10.320312 11.53125 10.179688 11.769531 10.09375 12.164062 C 9.941406 12.832031 10.046875 13.390625 10.535156 13.863281 C 10.9375 14.253906 11.492188 14.300781 11.710938 14.628906 C 11.96875 15.003906 11.757812 15.3125 12.042969 15.210938 C 12.144531 15.175781 12.234375 15.078125 12.316406 14.953125 C 12.449219 14.746094 12.433594 14.578125 12.421875 14.332031 C 12.410156 14.085938 12.273438 13.96875 12.257812 13.722656 C 12.234375 13.40625 12.210938 13.179688 12.394531 12.925781 C 12.640625 12.582031 13.003906 12.515625 13.421875 12.578125 C 13.695312 12.621094 13.828125 12.738281 14.054688 12.890625 C 14.324219 13.074219 14.402344 13.160156 14.660156 13.464844 C 14.953125 13.816406 15.054688 14.164062 15.171875 14.394531 C 15.359375 14.757812 15.0625 14.535156 14.878906 14.90625 C 14.78125 15.101562 14.703125 15.265625 14.738281 15.492188 C 14.839844 16.152344 15.226562 15.691406 15.277344 15.863281 C 15.285156 15.890625 15.277344 16.089844 15.125 16.28125 C 14.710938 16.789062 14.164062 16.460938 13.613281 16.796875 C 13.195312 17.054688 13.09375 17.777344 13.226562 17.847656 "/>
</g>
</svg>
