<?xml version="1.0" encoding="UTF-8"?>
<svg xmlns="http://www.w3.org/2000/svg" xmlns:xlink="http://www.w3.org/1999/xlink" width="35pt" height="25pt" viewBox="0 0 35 25" version="1.1">
<g id="surface1">
<path style=" stroke:none;fill-rule:evenodd;fill:rgb(11.372549%,56.470588%,32.54902%);fill-opacity:1;" d="M 9.25 12.5 L 17.582031 25 L 25.917969 12.5 L 17.582031 0 Z M 9.25 12.5 "/>
<path style=" stroke:none;fill-rule:evenodd;fill:rgb(100%,100%,100%);fill-opacity:1;" d="M 17.582031 0.554688 L 9.621094 12.5 L 17.582031 24.445312 L 25.546875 12.5 Z M 10.257812 12.5 L 17.582031 1.511719 L 24.910156 12.5 L 17.582031 23.488281 Z M 10.257812 12.5 "/>
<path style=" stroke:none;fill-rule:evenodd;fill:rgb(100%,100%,100%);fill-opacity:1;" d="M 19.304688 20.011719 C 19.304688 20.011719 21.800781 15.164062 21.800781 11.417969 C 21.800781 7.671875 19.824219 5.132812 17.742188 5.132812 C 16.183594 5.132812 15.640625 6.320312 15.640625 7.007812 C 15.640625 7.691406 16.308594 8.277344 16.910156 8.277344 C 17.640625 8.277344 17.90625 7.792969 17.90625 7.792969 C 18.824219 8.335938 20.449219 9.171875 20.363281 12.5 C 20.308594 14.828125 19.992188 15.226562 19.554688 16.601562 C 18.886719 14.851562 17.554688 11.917969 17.554688 11.917969 L 15.453125 16.515625 C 15.453125 16.515625 14.585938 14.539062 14.539062 11.75 C 14.53125 11.417969 14.53125 11.269531 14.664062 10.0625 C 15.597656 10.0625 16.140625 9.691406 16.140625 8.835938 C 16.140625 8.011719 15.414062 7.589844 14.890625 7.589844 C 14.371094 7.589844 13.0625 8.109375 13.0625 10.585938 C 13.0625 14.894531 15.828125 19.949219 15.828125 19.949219 L 17.554688 16.515625 Z M 19.304688 20.011719 "/>
</g>
</svg>
