<?xml version="1.0" encoding="UTF-8"?>
<svg xmlns="http://www.w3.org/2000/svg" xmlns:xlink="http://www.w3.org/1999/xlink" width="35pt" height="25pt" viewBox="0 0 35 25" version="1.1">
<g id="surface1">
<path style=" stroke:none;fill-rule:nonzero;fill:rgb(100%,100%,100%);fill-opacity:1;" d="M 28.957031 15.605469 C 28.941406 15.589844 28.257812 14.996094 27.589844 13.976562 C 26.921875 12.953125 26.273438 11.515625 26.273438 9.792969 C 26.277344 8.21875 26.800781 6.386719 28.410156 4.324219 L 28.644531 4.023438 L 28.4375 3.699219 L 26.726562 1 L 26.265625 1.304688 C 26.230469 1.332031 24.886719 2.179688 22.984375 2.175781 C 21.625 2.171875 19.976562 1.761719 18.203125 0.289062 L 17.855469 0 L 17.507812 0.289062 C 15.734375 1.761719 14.082031 2.171875 12.726562 2.175781 C 10.824219 2.179688 9.480469 1.332031 9.445312 1.304688 L 8.980469 1 L 7.269531 3.699219 L 7.066406 4.023438 L 7.300781 4.324219 C 8.910156 6.386719 9.433594 8.21875 9.433594 9.792969 C 9.433594 11.515625 8.789062 12.953125 8.121094 13.976562 C 7.453125 14.996094 6.769531 15.589844 6.75 15.605469 L 6.5 15.816406 L 6.574219 16.140625 C 6.582031 16.164062 6.746094 16.886719 7.195312 17.847656 C 7.648438 18.804688 8.382812 20.011719 9.550781 20.996094 C 10.328125 21.648438 11.300781 22.195312 12.488281 22.484375 C 14.542969 22.984375 15.777344 23.457031 16.496094 23.816406 C 17.214844 24.175781 17.414062 24.417969 17.421875 24.429688 L 17.855469 25 L 18.285156 24.429688 C 18.296875 24.417969 18.492188 24.175781 19.210938 23.816406 C 19.929688 23.457031 21.164062 22.984375 23.21875 22.484375 C 24.40625 22.195312 25.378906 21.648438 26.15625 20.996094 C 27.324219 20.011719 28.058594 18.804688 28.511719 17.847656 C 28.960938 16.886719 29.128906 16.164062 29.136719 16.140625 L 29.207031 15.816406 Z M 28.957031 15.605469 "/>
<path style=" stroke:none;fill-rule:nonzero;fill:rgb(0%,33.333333%,61.960784%);fill-opacity:1;" d="M 28.675781 15.933594 C 28.675781 15.933594 28.667969 15.925781 28.644531 15.910156 C 28.339844 15.636719 25.835938 13.285156 25.839844 9.792969 C 25.839844 8.121094 26.40625 6.179688 28.066406 4.054688 L 28.113281 3.996094 L 28.070312 3.933594 L 26.597656 1.605469 L 26.503906 1.667969 C 26.503906 1.667969 26.484375 1.679688 26.441406 1.707031 C 26.144531 1.882812 24.816406 2.609375 22.984375 2.609375 C 21.535156 2.609375 19.769531 2.160156 17.925781 0.625 L 17.855469 0.566406 L 17.785156 0.625 C 15.941406 2.160156 14.171875 2.609375 12.726562 2.609375 C 10.890625 2.609375 9.5625 1.882812 9.265625 1.707031 C 9.222656 1.679688 9.203125 1.667969 9.203125 1.667969 L 9.113281 1.605469 L 7.636719 3.933594 L 7.597656 3.996094 L 7.644531 4.054688 C 9.300781 6.179688 9.867188 8.121094 9.867188 9.792969 C 9.871094 13.285156 7.371094 15.636719 7.0625 15.910156 C 7.042969 15.925781 7.03125 15.933594 7.03125 15.933594 L 6.984375 15.976562 L 6.996094 16.042969 C 7 16.050781 7.28125 17.277344 8.121094 18.644531 C 8.957031 20.007812 10.355469 21.519531 12.589844 22.0625 C 16.75 23.070312 17.636719 23.992188 17.769531 24.167969 L 17.855469 24.28125 L 17.941406 24.167969 C 18.070312 23.992188 18.960938 23.070312 23.117188 22.0625 C 25.351562 21.519531 26.753906 20.007812 27.589844 18.644531 C 28.429688 17.277344 28.710938 16.050781 28.710938 16.042969 L 28.726562 15.976562 Z M 28.675781 15.933594 "/>
<path style=" stroke:none;fill-rule:nonzero;fill:rgb(100%,100%,100%);fill-opacity:1;" d="M 25.625 9.792969 C 25.621094 8.085938 26.199219 6.113281 27.847656 3.984375 L 27.15625 2.890625 C 26.378906 3.785156 12.320312 19.992188 11.21875 21.324219 C 11.648438 21.542969 12.121094 21.726562 12.644531 21.851562 C 16.386719 22.761719 17.523438 23.597656 17.855469 23.9375 C 18.1875 23.597656 19.324219 22.761719 23.066406 21.851562 C 24.957031 21.390625 26.230469 20.21875 27.070312 19.035156 C 27.910156 17.851562 28.308594 16.664062 28.445312 16.199219 C 28.460938 16.136719 28.476562 16.089844 28.484375 16.054688 C 28.097656 15.703125 25.625 13.339844 25.625 9.792969 Z M 25.625 9.792969 "/>
<path style=" stroke:none;fill-rule:nonzero;fill:rgb(100%,100%,100%);fill-opacity:1;" d="M 11.636719 16.476562 L 12.710938 15.195312 L 12.972656 15.417969 L 12.578125 15.886719 L 13.894531 16.992188 L 13.609375 17.332031 L 12.292969 16.226562 L 11.898438 16.699219 L 11.636719 16.476562 "/>
<path style=" stroke:none;fill-rule:nonzero;fill:rgb(100%,100%,100%);fill-opacity:1;" d="M 14.019531 14.550781 C 13.847656 14.429688 13.699219 14.449219 13.5625 14.617188 C 13.457031 14.738281 13.414062 14.921875 13.554688 15.039062 C 13.722656 15.179688 13.871094 15.042969 14.019531 14.9375 C 14.28125 14.746094 14.648438 14.449219 14.964844 14.714844 C 15.355469 15.042969 15.207031 15.5 14.921875 15.839844 C 14.617188 16.199219 14.261719 16.339844 13.875 15.992188 L 14.164062 15.648438 C 14.328125 15.808594 14.53125 15.804688 14.679688 15.628906 C 14.792969 15.492188 14.902344 15.277344 14.734375 15.136719 C 14.546875 14.980469 14.34375 15.195312 14.195312 15.300781 C 13.957031 15.476562 13.601562 15.695312 13.320312 15.460938 C 12.960938 15.15625 13.082031 14.691406 13.351562 14.363281 C 13.609375 14.058594 13.976562 13.960938 14.292969 14.226562 L 14.019531 14.550781 "/>
<path style=" stroke:none;fill-rule:nonzero;fill:rgb(100%,100%,100%);fill-opacity:1;" d="M 15.710938 13.652344 L 15.449219 13.433594 L 15.992188 12.785156 L 16.78125 13.449219 C 16.722656 13.59375 16.648438 13.730469 16.554688 13.859375 C 16.5 13.945312 16.441406 14.027344 16.265625 14.238281 C 16.003906 14.550781 15.449219 14.816406 14.820312 14.289062 C 14.191406 13.761719 14.355469 13.167969 14.621094 12.855469 C 15.003906 12.398438 15.378906 12.230469 15.757812 12.546875 L 15.453125 12.90625 C 15.253906 12.738281 15.074219 12.8125 14.917969 12.996094 C 14.667969 13.296875 14.765625 13.628906 15.125 13.925781 C 15.480469 14.226562 15.824219 14.265625 16.074219 13.96875 C 16.1875 13.832031 16.246094 13.726562 16.304688 13.625 L 15.972656 13.34375 L 15.710938 13.652344 "/>
<path style=" stroke:none;fill-rule:nonzero;fill:rgb(100%,100%,100%);fill-opacity:1;" d="M 16.363281 11.429688 C 16.417969 11.246094 16.453125 11.050781 16.460938 10.863281 L 16.71875 10.554688 L 18.234375 11.828125 L 17.957031 12.15625 L 16.773438 11.160156 C 16.757812 11.339844 16.722656 11.511719 16.664062 11.683594 L 16.363281 11.429688 "/>
<path style=" stroke:none;fill-rule:nonzero;fill:rgb(100%,100%,100%);fill-opacity:1;" d="M 17.980469 10.5 C 17.777344 10.640625 17.582031 10.667969 17.386719 10.503906 C 17.136719 10.292969 17.226562 9.886719 17.433594 9.640625 C 17.636719 9.398438 17.984375 9.210938 18.269531 9.453125 C 18.445312 9.597656 18.472656 9.855469 18.359375 10.039062 L 18.363281 10.042969 C 18.566406 9.890625 18.820312 9.878906 19.019531 10.042969 C 19.296875 10.28125 19.234375 10.699219 19.011719 10.96875 C 18.785156 11.242188 18.410156 11.398438 18.101562 11.136719 C 17.902344 10.972656 17.886719 10.710938 17.984375 10.503906 L 17.980469 10.5 M 18.066406 10.148438 C 18.160156 10.039062 18.160156 9.878906 18.035156 9.777344 C 17.914062 9.675781 17.757812 9.699219 17.636719 9.839844 C 17.546875 9.949219 17.546875 10.113281 17.667969 10.214844 C 17.792969 10.320312 17.949219 10.289062 18.066406 10.148438 Z M 18.796875 10.777344 C 18.898438 10.660156 18.875 10.480469 18.734375 10.367188 C 18.597656 10.25 18.429688 10.25 18.316406 10.386719 C 18.214844 10.503906 18.222656 10.679688 18.367188 10.804688 C 18.503906 10.917969 18.675781 10.921875 18.796875 10.777344 Z M 18.796875 10.777344 "/>
<path style=" stroke:none;fill-rule:nonzero;fill:rgb(100%,100%,100%);fill-opacity:1;" d="M 19.492188 9.574219 C 19.597656 9.644531 19.730469 9.667969 19.8125 9.570312 C 20.015625 9.328125 19.703125 9.070312 19.519531 8.933594 C 19.519531 9.085938 19.472656 9.183594 19.367188 9.308594 C 19.15625 9.558594 18.773438 9.582031 18.53125 9.378906 C 18.21875 9.121094 18.210938 8.710938 18.46875 8.40625 C 18.820312 7.984375 19.21875 8.105469 19.601562 8.425781 C 20.007812 8.765625 20.480469 9.21875 20.035156 9.75 C 19.800781 10.027344 19.535156 10.164062 19.210938 9.90625 L 19.492188 9.574219 M 19.230469 9.027344 C 19.347656 8.882812 19.277344 8.730469 19.136719 8.613281 C 18.996094 8.496094 18.816406 8.4375 18.695312 8.578125 C 18.5625 8.738281 18.65625 8.90625 18.792969 9.023438 C 18.933594 9.140625 19.097656 9.183594 19.230469 9.027344 Z M 19.230469 9.027344 "/>
<path style=" stroke:none;fill-rule:nonzero;fill:rgb(100%,100%,100%);fill-opacity:1;" d="M 20.550781 8.3125 C 20.65625 8.382812 20.789062 8.40625 20.871094 8.308594 C 21.074219 8.070312 20.761719 7.808594 20.578125 7.675781 C 20.578125 7.824219 20.53125 7.921875 20.425781 8.050781 C 20.214844 8.296875 19.832031 8.320312 19.589844 8.121094 C 19.277344 7.859375 19.269531 7.449219 19.527344 7.144531 C 19.878906 6.726562 20.28125 6.84375 20.660156 7.164062 C 21.066406 7.503906 21.539062 7.957031 21.09375 8.488281 C 20.859375 8.765625 20.59375 8.902344 20.269531 8.648438 L 20.550781 8.3125 M 20.289062 7.765625 C 20.40625 7.625 20.335938 7.472656 20.195312 7.351562 C 20.054688 7.234375 19.875 7.175781 19.753906 7.316406 C 19.621094 7.476562 19.710938 7.644531 19.851562 7.761719 C 19.992188 7.878906 20.15625 7.925781 20.289062 7.765625 Z M 20.289062 7.765625 "/>
<path style=" stroke:none;fill-rule:nonzero;fill:rgb(0%,33.333333%,61.960784%);fill-opacity:1;" d="M 15.976562 19.847656 L 14.398438 18.519531 L 14.566406 18.316406 L 15.25 18.890625 L 15.714844 18.339844 L 15.03125 17.765625 L 15.199219 17.5625 L 16.78125 18.890625 L 16.613281 19.089844 L 15.890625 18.484375 L 15.425781 19.039062 L 16.148438 19.644531 L 15.976562 19.847656 "/>
<path style=" stroke:none;fill-rule:nonzero;fill:rgb(0%,33.333333%,61.960784%);fill-opacity:1;" d="M 16.511719 18.125 C 16.1875 17.851562 15.953125 17.589844 16.273438 17.207031 C 16.597656 16.824219 16.894531 17.011719 17.214844 17.28125 C 17.703125 17.691406 17.617188 17.9375 17.421875 18.171875 C 17.226562 18.40625 17 18.53125 16.511719 18.125 M 16.984375 17.40625 C 16.679688 17.152344 16.535156 17.191406 16.421875 17.328125 C 16.304688 17.46875 16.289062 17.617188 16.59375 17.871094 C 16.949219 18.171875 17.121094 18.234375 17.277344 18.046875 C 17.433594 17.863281 17.339844 17.707031 16.984375 17.40625 Z M 16.984375 17.40625 "/>
<path style=" stroke:none;fill-rule:nonzero;fill:rgb(0%,33.333333%,61.960784%);fill-opacity:1;" d="M 16.914062 16.488281 L 16.699219 16.308594 C 16.476562 16.121094 16.566406 15.925781 16.699219 15.765625 C 16.730469 15.730469 16.75 15.707031 16.777344 15.6875 L 16.90625 15.792969 C 16.734375 15.972656 16.785156 16.074219 16.878906 16.148438 L 17.066406 16.308594 L 17.253906 16.085938 L 17.386719 16.199219 L 17.199219 16.421875 L 18.171875 17.234375 L 18.019531 17.414062 L 17.050781 16.601562 L 16.90625 16.769531 L 16.773438 16.660156 L 16.914062 16.488281 "/>
<path style=" stroke:none;fill-rule:nonzero;fill:rgb(0%,33.333333%,61.960784%);fill-opacity:1;" d="M 17.425781 15.878906 L 17.210938 15.699219 C 16.988281 15.511719 17.078125 15.316406 17.210938 15.15625 C 17.242188 15.121094 17.261719 15.101562 17.289062 15.078125 L 17.417969 15.183594 C 17.246094 15.367188 17.296875 15.464844 17.386719 15.542969 L 17.574219 15.699219 L 17.765625 15.476562 L 17.898438 15.589844 L 17.710938 15.8125 L 18.679688 16.625 L 18.53125 16.804688 L 17.5625 15.992188 L 17.417969 16.164062 L 17.28125 16.050781 L 17.425781 15.878906 "/>
<path style=" stroke:none;fill-rule:nonzero;fill:rgb(0%,33.333333%,61.960784%);fill-opacity:1;" d="M 18.667969 15.640625 C 18.976562 15.898438 19.105469 15.867188 19.222656 15.730469 C 19.328125 15.605469 19.28125 15.460938 19.175781 15.359375 L 19.339844 15.164062 C 19.582031 15.371094 19.570312 15.613281 19.375 15.847656 C 19.175781 16.082031 18.949219 16.207031 18.464844 15.800781 C 18.140625 15.527344 17.902344 15.265625 18.226562 14.882812 C 18.488281 14.566406 18.730469 14.632812 19.09375 14.941406 L 19.1875 15.019531 L 18.667969 15.640625 M 18.894531 15.09375 C 18.570312 14.824219 18.457031 14.882812 18.347656 15.011719 C 18.25 15.125 18.226562 15.265625 18.53125 15.527344 Z M 18.894531 15.09375 "/>
<path style=" stroke:none;fill-rule:nonzero;fill:rgb(0%,33.333333%,61.960784%);fill-opacity:1;" d="M 20.4375 14.535156 L 19.667969 13.894531 C 19.554688 13.796875 19.421875 13.753906 19.292969 13.910156 C 19.128906 14.105469 19.277344 14.28125 19.429688 14.40625 L 20.082031 14.957031 L 19.933594 15.136719 L 19.058594 14.402344 C 18.980469 14.335938 18.898438 14.277344 18.820312 14.21875 L 18.976562 14.027344 L 19.121094 14.148438 L 19.128906 14.140625 C 19.0625 13.964844 19.09375 13.851562 19.210938 13.707031 C 19.410156 13.46875 19.601562 13.53125 19.820312 13.714844 L 20.585938 14.359375 L 20.4375 14.535156 "/>
<path style=" stroke:none;fill-rule:nonzero;fill:rgb(0%,33.333333%,61.960784%);fill-opacity:1;" d="M 21.355469 13.441406 L 20.605469 12.8125 C 20.46875 12.699219 20.335938 12.664062 20.210938 12.816406 C 20.058594 12.996094 20.164062 13.164062 20.351562 13.320312 L 21 13.867188 L 20.851562 14.046875 L 19.269531 12.71875 L 19.421875 12.539062 L 20.039062 13.054688 L 20.042969 13.046875 C 19.976562 12.867188 20.011719 12.753906 20.132812 12.609375 C 20.292969 12.421875 20.472656 12.394531 20.722656 12.605469 L 21.507812 13.265625 L 21.355469 13.441406 "/>
<path style=" stroke:none;fill-rule:nonzero;fill:rgb(0%,33.333333%,61.960784%);fill-opacity:1;" d="M 21.421875 12.359375 C 21.730469 12.617188 21.863281 12.585938 21.980469 12.445312 C 22.082031 12.324219 22.039062 12.175781 21.929688 12.074219 L 22.097656 11.878906 C 22.339844 12.085938 22.324219 12.332031 22.128906 12.5625 C 21.933594 12.796875 21.707031 12.925781 21.21875 12.515625 C 20.894531 12.242188 20.660156 11.980469 20.980469 11.597656 C 21.246094 11.285156 21.484375 11.351562 21.851562 11.65625 L 21.945312 11.734375 L 21.421875 12.359375 M 21.648438 11.8125 C 21.328125 11.542969 21.210938 11.597656 21.101562 11.730469 C 21.007812 11.84375 20.984375 11.984375 21.289062 12.242188 Z M 21.648438 11.8125 "/>
<path style=" stroke:none;fill-rule:nonzero;fill:rgb(0%,33.333333%,61.960784%);fill-opacity:1;" d="M 21.097656 10.542969 L 21.265625 10.339844 L 21.457031 10.503906 L 21.289062 10.703125 L 21.097656 10.542969 M 22.835938 11.679688 L 22.6875 11.859375 L 21.578125 10.929688 L 21.730469 10.75 Z M 22.835938 11.679688 "/>
<path style=" stroke:none;fill-rule:nonzero;fill:rgb(0%,33.333333%,61.960784%);fill-opacity:1;" d="M 23.554688 10.824219 L 22.785156 10.183594 C 22.675781 10.089844 22.546875 10.035156 22.425781 10.175781 C 22.378906 10.230469 22.347656 10.332031 22.371094 10.394531 C 22.398438 10.472656 22.457031 10.539062 22.496094 10.574219 L 23.242188 11.199219 L 23.089844 11.375 L 22.214844 10.640625 C 22.136719 10.578125 22.058594 10.519531 21.976562 10.460938 L 22.136719 10.269531 L 22.273438 10.386719 L 22.277344 10.382812 C 22.203125 10.230469 22.242188 10.101562 22.347656 9.96875 C 22.433594 9.871094 22.570312 9.789062 22.707031 9.832031 C 22.640625 9.671875 22.699219 9.550781 22.785156 9.449219 C 22.882812 9.335938 23.066406 9.167969 23.328125 9.386719 L 24.167969 10.09375 L 24.015625 10.273438 L 23.25 9.628906 C 23.136719 9.535156 23.011719 9.480469 22.886719 9.625 C 22.832031 9.695312 22.816406 9.714844 22.816406 9.796875 C 22.816406 9.886719 22.917969 9.988281 22.960938 10.019531 L 23.703125 10.644531 L 23.554688 10.824219 "/>
</g>
</svg>
