<?xml version="1.0" encoding="UTF-8"?>
<svg xmlns="http://www.w3.org/2000/svg" xmlns:xlink="http://www.w3.org/1999/xlink" width="35pt" height="25pt" viewBox="0 0 35 25" version="1.1">
<g id="surface1">
<path style=" stroke:none;fill-rule:nonzero;fill:rgb(100%,100%,100%);fill-opacity:1;" d="M 5.824219 0.0664062 C 5.832031 0.765625 5.945312 7.0625 8 12.503906 C 10.613281 19.445312 16.835938 24.464844 17.386719 24.898438 C 17.933594 24.464844 24.160156 19.445312 26.773438 12.503906 C 28.824219 7.0625 28.9375 0.765625 28.949219 0.0664062 Z M 5.824219 0.0664062 "/>
<path style=" stroke:none;fill-rule:nonzero;fill:rgb(0%,0%,0%);fill-opacity:1;" d="M 5.882812 0.132812 C 5.886719 0.824219 6 7.089844 8.042969 12.503906 C 10.648438 19.40625 16.839844 24.402344 17.386719 24.835938 C 17.933594 24.402344 24.121094 19.40625 26.726562 12.503906 C 28.769531 7.089844 28.882812 0.824219 28.890625 0.132812 Z M 5.75 0.0664062 L 5.75 0 L 29.019531 0 L 29.019531 0.0664062 C 29.019531 0.0859375 29.019531 6.792969 26.851562 12.546875 C 24.113281 19.800781 17.441406 24.953125 17.421875 24.96875 L 17.386719 25 L 17.347656 24.96875 C 17.332031 24.953125 10.65625 19.800781 7.921875 12.546875 C 5.75 6.792969 5.75 0.0859375 5.75 0.0664062 Z M 5.75 0.0664062 "/>
<path style=" stroke:none;fill-rule:nonzero;fill:rgb(100%,79.215686%,4.313725%);fill-opacity:1;" d="M 17.386719 22.207031 C 17.386719 22.207031 19.167969 20.734375 20.933594 18.121094 C 22.546875 15.726562 22.816406 13.800781 22.816406 13.800781 L 11.953125 13.800781 C 11.953125 13.800781 12.226562 15.726562 13.839844 18.121094 C 15.601562 20.734375 17.386719 22.207031 17.386719 22.207031 Z M 17.386719 22.207031 "/>
<path style=" stroke:none;fill-rule:nonzero;fill:rgb(0%,0%,0%);fill-opacity:1;" d="M 17.386719 22.125 C 17.660156 21.890625 19.273438 20.460938 20.878906 18.085938 C 22.300781 15.972656 22.675781 14.242188 22.746094 13.867188 L 12.027344 13.867188 C 12.09375 14.242188 12.46875 15.972656 13.890625 18.085938 C 15.496094 20.460938 17.113281 21.890625 17.386719 22.125 Z M 17.425781 22.257812 L 17.386719 22.296875 L 17.347656 22.257812 C 17.339844 22.253906 15.554688 20.78125 13.785156 18.152344 C 12.164062 15.75 11.890625 13.816406 11.890625 13.8125 L 11.875 13.738281 L 22.894531 13.738281 L 22.882812 13.8125 C 22.882812 13.816406 22.609375 15.75 20.984375 18.152344 C 19.214844 20.78125 17.429688 22.253906 17.425781 22.257812 Z M 17.425781 22.257812 "/>
<path style=" stroke:none;fill-rule:nonzero;fill:rgb(0%,0%,0%);fill-opacity:1;" d="M 15.707031 19.101562 C 15.871094 19.039062 16.054688 18.984375 16.132812 18.964844 C 16.207031 18.953125 16.332031 18.921875 16.375 18.898438 C 16.414062 18.875 16.625 18.648438 16.714844 18.546875 C 16.804688 18.441406 16.933594 18.296875 17.015625 18.226562 C 17.09375 18.160156 17.203125 18.097656 17.265625 18.082031 C 17.347656 18.058594 17.472656 18.0625 17.472656 18.0625 C 17.472656 18.0625 17.421875 18.148438 17.386719 18.203125 C 17.34375 18.261719 17.167969 18.523438 17.144531 18.582031 C 17.121094 18.648438 17.070312 18.765625 17.265625 18.800781 C 17.441406 18.839844 17.550781 18.632812 17.601562 18.582031 C 17.648438 18.53125 17.847656 18.269531 17.917969 18.214844 C 17.996094 18.152344 18.0625 18.089844 18.183594 18.050781 C 18.269531 18.015625 18.371094 18.03125 18.371094 18.03125 C 18.371094 18.03125 18.296875 18.132812 18.238281 18.222656 C 18.175781 18.3125 17.945312 18.621094 18.019531 18.71875 C 18.144531 18.886719 18.273438 18.722656 18.363281 18.625 C 18.449219 18.523438 18.597656 18.378906 18.660156 18.304688 C 18.859375 18.058594 19.144531 18.105469 19.144531 18.105469 C 19.144531 18.105469 18.816406 18.488281 18.824219 18.539062 C 18.835938 18.65625 18.894531 18.730469 19.003906 18.761719 C 19.109375 18.796875 19.484375 18.839844 19.542969 18.851562 C 19.597656 18.871094 19.632812 18.957031 19.585938 18.964844 C 19.53125 18.980469 19.132812 19.003906 18.964844 19.015625 C 18.796875 19.023438 17.988281 19.09375 17.613281 19.132812 C 17.238281 19.175781 16.679688 19.253906 16.464844 19.292969 C 16.25 19.335938 15.875 19.449219 15.765625 19.421875 C 15.65625 19.394531 15.546875 19.164062 15.707031 19.101562 Z M 15.097656 17.582031 C 14.835938 17.660156 14.90625 17.921875 14.949219 17.957031 C 14.996094 18 15.082031 18.070312 15.246094 18.039062 C 15.40625 18.011719 16.308594 17.8125 17.179688 17.714844 C 17.90625 17.632812 18.699219 17.566406 19.074219 17.539062 C 19.441406 17.507812 20.527344 17.472656 20.585938 17.460938 C 20.652344 17.453125 20.648438 17.355469 20.621094 17.320312 C 20.585938 17.28125 20.203125 17.277344 20.117188 17.265625 C 20.03125 17.253906 19.761719 17.238281 19.714844 17.144531 C 19.671875 17.054688 19.945312 16.773438 19.957031 16.738281 C 19.976562 16.710938 19.996094 16.65625 19.996094 16.65625 C 19.996094 16.65625 19.839844 16.648438 19.730469 16.691406 C 19.640625 16.726562 19.496094 16.828125 19.234375 17.074219 C 18.96875 17.320312 18.894531 17.261719 18.796875 17.207031 C 18.695312 17.144531 18.800781 16.941406 18.859375 16.847656 C 18.921875 16.757812 19.035156 16.636719 19.058594 16.613281 C 19.082031 16.589844 19.085938 16.515625 19.085938 16.515625 C 19.085938 16.515625 18.914062 16.5 18.652344 16.648438 C 18.539062 16.710938 18.3125 16.941406 18.183594 17.0625 C 18.0625 17.183594 17.980469 17.25 17.863281 17.226562 C 17.792969 17.214844 17.785156 17.089844 17.824219 16.996094 C 17.855469 16.90625 18.042969 16.648438 18.070312 16.597656 C 18.097656 16.542969 18.109375 16.460938 18.109375 16.460938 C 18.109375 16.460938 17.777344 16.453125 17.511719 16.757812 C 17.394531 16.894531 17.238281 17.042969 17.113281 17.140625 C 16.984375 17.246094 16.84375 17.273438 16.722656 17.25 C 16.609375 17.226562 16.730469 17.050781 16.785156 16.949219 C 16.84375 16.855469 16.960938 16.675781 16.996094 16.625 C 17.03125 16.574219 17.03125 16.488281 17.03125 16.488281 C 17.03125 16.488281 16.738281 16.460938 16.351562 16.847656 C 16.21875 16.980469 15.917969 17.308594 15.816406 17.375 C 15.714844 17.433594 15.171875 17.554688 15.097656 17.582031 Z M 14.242188 16.125 C 14.375 16.042969 14.59375 16.003906 14.726562 15.972656 C 14.863281 15.945312 15.117188 15.886719 15.195312 15.800781 C 15.273438 15.710938 15.457031 15.417969 15.609375 15.230469 C 15.945312 14.828125 16.417969 14.707031 16.417969 14.707031 C 16.417969 14.707031 16.460938 14.761719 16.402344 14.851562 C 16.367188 14.90625 16.105469 15.230469 16.035156 15.636719 C 16 15.847656 16.386719 15.730469 16.484375 15.671875 C 16.546875 15.632812 16.742188 15.359375 16.882812 15.1875 C 17.238281 14.761719 17.71875 14.597656 17.71875 14.597656 C 17.71875 14.597656 17.726562 14.667969 17.714844 14.703125 C 17.703125 14.738281 17.261719 15.453125 17.304688 15.574219 C 17.339844 15.6875 17.5625 15.710938 17.777344 15.527344 C 17.988281 15.34375 18.253906 15.050781 18.492188 14.902344 C 18.8125 14.703125 19.027344 14.734375 19.027344 14.734375 C 19.027344 14.734375 18.988281 14.898438 18.753906 15.144531 C 18.636719 15.277344 18.515625 15.480469 18.679688 15.558594 C 18.855469 15.644531 19.136719 15.53125 19.265625 15.449219 C 19.398438 15.363281 19.789062 15.042969 19.957031 14.929688 C 20.457031 14.597656 20.785156 14.722656 20.785156 14.722656 C 20.785156 14.722656 20.664062 14.820312 20.488281 14.964844 C 20.113281 15.261719 20.078125 15.480469 20.078125 15.480469 C 20.078125 15.480469 20.414062 15.519531 20.628906 15.550781 C 20.851562 15.582031 21.074219 15.636719 21.035156 15.722656 C 21.003906 15.796875 20.558594 15.796875 20.214844 15.820312 C 19.863281 15.839844 17.96875 15.964844 16.902344 16.101562 C 15.316406 16.296875 14.34375 16.613281 14.253906 16.609375 C 14.15625 16.601562 14.054688 16.484375 14.066406 16.398438 C 14.078125 16.3125 14.125 16.203125 14.242188 16.125 Z M 14.242188 16.125 "/>
<path style=" stroke:none;fill-rule:nonzero;fill:rgb(0%,0%,0%);fill-opacity:1;" d="M 11.863281 12.375 C 11.8125 12.289062 11.746094 12.238281 11.644531 12.238281 C 11.527344 12.238281 11.433594 12.320312 11.433594 12.433594 C 11.433594 12.539062 11.546875 12.589844 11.628906 12.628906 L 11.714844 12.667969 C 11.878906 12.738281 12.015625 12.820312 12.015625 13.023438 C 12.015625 13.242188 11.839844 13.410156 11.621094 13.410156 C 11.417969 13.410156 11.269531 13.28125 11.226562 13.085938 L 11.363281 13.046875 C 11.382812 13.171875 11.484375 13.28125 11.617188 13.28125 C 11.753906 13.28125 11.875 13.179688 11.875 13.035156 C 11.875 12.886719 11.761719 12.835938 11.644531 12.78125 L 11.566406 12.75 C 11.417969 12.679688 11.292969 12.609375 11.292969 12.429688 C 11.292969 12.234375 11.460938 12.109375 11.648438 12.109375 C 11.789062 12.109375 11.90625 12.179688 11.972656 12.304688 Z M 13.023438 13.390625 L 12.882812 13.390625 L 12.882812 12.261719 L 12.578125 12.261719 L 12.578125 12.128906 L 13.332031 12.128906 L 13.332031 12.261719 L 13.023438 12.261719 Z M 14.074219 12.875 C 14.074219 12.972656 14.074219 13.082031 14.132812 13.160156 C 14.1875 13.238281 14.292969 13.28125 14.390625 13.28125 C 14.476562 13.28125 14.574219 13.238281 14.636719 13.167969 C 14.703125 13.085938 14.699219 12.976562 14.699219 12.875 L 14.699219 12.128906 L 14.835938 12.128906 L 14.835938 12.917969 C 14.835938 13.054688 14.828125 13.164062 14.726562 13.269531 C 14.640625 13.359375 14.511719 13.410156 14.390625 13.410156 C 14.265625 13.410156 14.148438 13.363281 14.058594 13.28125 C 13.949219 13.179688 13.9375 13.058594 13.9375 12.917969 L 13.9375 12.128906 L 14.074219 12.128906 Z M 15.886719 13.390625 L 15.742188 13.390625 L 15.742188 12.261719 L 15.4375 12.261719 L 15.4375 12.128906 L 16.195312 12.128906 L 16.195312 12.261719 L 15.886719 12.261719 Z M 17.140625 13.390625 L 16.996094 13.390625 L 16.996094 12.261719 L 16.691406 12.261719 L 16.691406 12.128906 L 17.441406 12.128906 L 17.441406 12.261719 L 17.140625 12.261719 Z M 19.222656 12.753906 C 19.226562 12.925781 19.210938 13.070312 19.089844 13.199219 C 18.976562 13.332031 18.800781 13.410156 18.625 13.410156 C 18.269531 13.410156 17.972656 13.117188 17.972656 12.761719 C 17.972656 12.402344 18.269531 12.109375 18.636719 12.109375 C 18.855469 12.109375 19.035156 12.207031 19.167969 12.378906 L 19.066406 12.476562 C 18.957031 12.328125 18.816406 12.238281 18.628906 12.238281 C 18.34375 12.238281 18.117188 12.484375 18.117188 12.761719 C 18.117188 12.894531 18.167969 13.023438 18.261719 13.117188 C 18.355469 13.214844 18.488281 13.28125 18.621094 13.28125 C 18.839844 13.28125 19.074219 13.117188 19.074219 12.886719 L 18.699219 12.886719 L 18.699219 12.753906 Z M 20.078125 13.03125 L 19.921875 13.390625 L 19.769531 13.390625 L 20.351562 12.070312 L 20.921875 13.390625 L 20.765625 13.390625 L 20.613281 13.03125 Z M 20.351562 12.398438 L 20.132812 12.898438 L 20.558594 12.898438 Z M 21.664062 13.390625 L 21.523438 13.390625 L 21.523438 12.128906 L 21.703125 12.128906 C 21.941406 12.128906 22.164062 12.191406 22.164062 12.480469 C 22.164062 12.667969 22.046875 12.808594 21.851562 12.820312 L 22.253906 13.390625 L 22.078125 13.390625 L 21.695312 12.835938 L 21.664062 12.835938 Z M 21.664062 12.710938 L 21.703125 12.710938 C 21.863281 12.710938 22.023438 12.679688 22.023438 12.488281 C 22.023438 12.277344 21.875 12.261719 21.703125 12.261719 L 21.664062 12.261719 Z M 23.210938 13.390625 L 23.070312 13.390625 L 23.070312 12.261719 L 22.761719 12.261719 L 22.761719 12.128906 L 23.515625 12.128906 L 23.515625 12.261719 L 23.210938 12.261719 Z M 23.210938 13.390625 "/>
<path style=" stroke:none;fill-rule:nonzero;fill:rgb(92.941176%,13.72549%,16.470588%);fill-opacity:1;" d="M 21.882812 3.808594 C 21.882812 3.808594 21.847656 3.851562 21.847656 3.890625 C 21.847656 3.933594 21.886719 3.96875 21.886719 3.96875 C 21.886719 3.96875 22.160156 4.292969 22.464844 4.644531 C 22.820312 5.054688 23.09375 5.539062 23.09375 5.539062 C 23.09375 5.539062 23.320312 5.539062 23.605469 5.441406 C 24.230469 5.230469 24.222656 4.644531 23.855469 4.007812 C 23.605469 3.570312 23.222656 3.34375 22.921875 3.367188 C 22.285156 3.410156 21.882812 3.808594 21.882812 3.808594 Z M 18.996094 8.808594 C 19.101562 8.578125 19.269531 8.351562 19.542969 8.214844 C 20.148438 7.90625 21.285156 8.128906 21.40625 7.515625 C 21.417969 7.476562 21.421875 7.441406 21.421875 7.398438 C 21.40625 6.820312 20.523438 6.179688 20.316406 5.988281 C 20.3125 5.984375 20.3125 5.984375 20.308594 5.980469 C 20.105469 5.785156 19.15625 5.074219 19.355469 3.449219 C 19.632812 1.175781 21.699219 1.421875 21.699219 1.421875 L 21.730469 1.527344 C 21.730469 1.527344 21.144531 1.730469 20.953125 2.210938 C 20.691406 2.878906 21.636719 3.667969 21.636719 3.667969 C 21.636719 3.667969 22.277344 2.96875 23.050781 2.546875 C 23.816406 2.121094 25.011719 1.441406 25.769531 3.023438 C 26.4375 4.425781 25.785156 4.941406 25.351562 5.148438 C 25.171875 5.242188 25.042969 5.304688 25.042969 5.304688 C 25.605469 5.335938 26.242188 5.496094 26.570312 5.988281 C 26.804688 6.335938 26.910156 6.820312 26.875 7.351562 C 26.875 7.367188 26.875 7.386719 26.875 7.398438 C 26.820312 8.042969 26.492188 8.539062 26.066406 8.808594 C 26.03125 8.832031 26 8.847656 25.964844 8.867188 C 25.476562 9.128906 24.378906 9.28125 24.003906 9.59375 C 23.371094 10.121094 23.371094 10.820312 23.371094 10.820312 C 23.371094 10.820312 22.433594 10.84375 21.773438 10.535156 C 20.828125 10.101562 20.546875 9.445312 19.8125 9.25 C 19.128906 9.066406 18.917969 9.542969 18.917969 9.542969 L 18.828125 9.5 C 18.828125 9.5 18.832031 9.160156 18.996094 8.808594 Z M 24.378906 8.808594 C 24.523438 8.675781 24.753906 8.078125 24.710938 7.398438 C 24.695312 7.214844 24.660156 7.027344 24.601562 6.835938 C 24.460938 6.402344 24.308594 6.140625 24.152344 5.988281 C 24 5.828125 23.839844 5.785156 23.691406 5.777344 C 23.320312 5.769531 23.183594 5.953125 23.183594 5.953125 C 23.183594 5.953125 23.183594 5.964844 23.1875 5.988281 C 23.191406 6.070312 23.199219 6.273438 23.191406 6.480469 C 23.183594 6.746094 23.066406 7.128906 22.839844 7.398438 C 22.835938 7.402344 22.832031 7.40625 22.828125 7.417969 C 22.585938 7.6875 22.160156 7.808594 21.847656 7.898438 L 21.242188 8.070312 C 21.242188 8.070312 21.667969 8.492188 22.511719 8.808594 C 22.765625 8.902344 23.058594 8.984375 23.386719 9.050781 C 23.828125 9.128906 24.167969 8.996094 24.378906 8.808594 Z M 16.847656 11.617188 L 16.972656 11.625 C 16.972656 11.625 17.070312 11.289062 17.449219 10.863281 C 17.863281 10.40625 18.175781 10.4375 18.339844 9.988281 C 18.453125 9.671875 18.492188 9.132812 18.496094 8.949219 C 18.496094 8.929688 18.496094 8.882812 18.496094 8.808594 C 18.496094 8.535156 18.492188 7.9375 18.484375 7.398438 C 18.480469 6.824219 18.46875 6.308594 18.46875 6.308594 L 19.054688 6.222656 C 19.292969 6.183594 19.660156 6.113281 19.660156 6.113281 C 19.660156 6.113281 19.660156 6.046875 19.65625 6.007812 C 19.65625 6.003906 19.652344 5.992188 19.652344 5.988281 C 19.648438 5.949219 19.632812 5.90625 19.632812 5.90625 C 19.632812 5.90625 18.917969 5.9375 18.460938 5.800781 C 18.105469 5.691406 17.503906 5.410156 17.359375 4.726562 C 17.316406 4.550781 17.417969 4.101562 17.773438 4.191406 C 18.203125 4.300781 18.585938 4.957031 18.585938 4.957031 C 18.585938 4.957031 18.710938 4.425781 18.789062 4.21875 C 18.867188 4.007812 19.058594 3.597656 19.058594 3.597656 C 19.058594 3.597656 18.902344 3.378906 18.453125 3.152344 C 17.949219 2.902344 17.394531 2.796875 17.394531 2.796875 C 17.394531 2.796875 17.378906 3.246094 17.085938 3.679688 C 16.792969 4.117188 16.285156 4.382812 16.285156 4.382812 C 16.285156 4.382812 16.492188 4.757812 16.582031 5.035156 C 16.738281 5.503906 16.746094 5.957031 16.746094 5.957031 C 16.746094 5.957031 16.632812 5.972656 16.546875 5.972656 C 16.460938 5.972656 16.292969 5.945312 16.292969 5.945312 C 16.292969 5.945312 16.300781 5.960938 16.300781 5.988281 C 16.304688 6.027344 16.308594 6.085938 16.3125 6.144531 C 16.320312 6.238281 16.34375 6.371094 16.34375 6.371094 C 16.34375 6.371094 16.496094 6.378906 16.558594 6.378906 C 16.628906 6.378906 16.800781 6.382812 16.800781 6.382812 C 16.800781 6.382812 16.804688 6.902344 16.808594 7.398438 Z M 8.4375 9.574219 C 8.425781 8.710938 9.042969 8.074219 9.945312 8.09375 C 10.207031 8.101562 11.027344 8.222656 11.140625 7.578125 C 11.246094 7 10.285156 6.460938 9.941406 6.117188 C 9.445312 5.625 8.964844 5.027344 8.808594 4.339844 C 8.65625 3.660156 8.734375 2.808594 9.371094 2.117188 C 10.003906 1.421875 10.890625 1.484375 10.890625 1.484375 L 10.925781 1.582031 C 10.925781 1.582031 10.164062 2.0625 10.320312 2.886719 C 10.429688 3.480469 10.980469 3.597656 11.792969 4.355469 C 12.433594 4.953125 12.707031 5.300781 12.851562 5.984375 C 12.851562 5.988281 12.851562 5.988281 12.851562 5.988281 C 12.972656 6.574219 12.753906 7.078125 12.527344 7.398438 C 12.492188 7.453125 12.453125 7.5 12.414062 7.542969 C 12.15625 7.84375 11.527344 8.074219 11.40625 8.113281 C 11.277344 8.15625 11.132812 8.230469 11.132812 8.230469 C 11.132812 8.230469 11.652344 8.671875 12.632812 8.808594 L 12.636719 8.808594 C 12.722656 8.820312 12.808594 8.832031 12.902344 8.835938 C 13.175781 8.855469 13.40625 8.847656 13.605469 8.808594 L 13.609375 8.808594 C 13.90625 8.746094 14.136719 8.605469 14.351562 8.351562 C 14.519531 8.152344 14.550781 7.742188 14.40625 7.398438 C 14.402344 7.394531 14.402344 7.390625 14.398438 7.386719 C 14.242188 7.035156 13.925781 6.632812 13.824219 6.074219 C 13.816406 6.046875 13.8125 6.015625 13.808594 5.988281 C 13.785156 5.726562 13.878906 5.457031 13.996094 5.265625 C 14.132812 5.054688 14.835938 4.410156 14.835938 4.410156 C 14.835938 4.410156 14.332031 4.414062 13.839844 4.109375 C 13.542969 3.921875 13.046875 3.558594 12.917969 3.476562 C 12.789062 3.394531 12.589844 3.292969 12.433594 3.253906 C 12.273438 3.210938 12.125 3.269531 12.09375 3.265625 C 12.0625 3.261719 12 3.203125 12 3.203125 C 12 3.203125 12.320312 2.953125 12.558594 2.757812 C 12.800781 2.570312 13 2.394531 13.359375 2.101562 C 13.789062 1.757812 14.03125 1.722656 14.03125 1.722656 C 14.03125 1.722656 14.164062 1.710938 14.457031 1.980469 C 14.695312 2.203125 14.964844 2.640625 15.414062 2.863281 C 15.929688 3.117188 16.453125 3.054688 16.453125 3.054688 L 16.46875 3.234375 C 16.46875 3.234375 15.734375 3.585938 15.585938 4.132812 C 15.421875 4.734375 15.605469 5.222656 15.730469 5.476562 C 15.816406 5.648438 15.902344 5.816406 15.980469 5.988281 C 16.128906 6.332031 16.226562 6.679688 16.128906 7.0625 C 16.097656 7.1875 16.070312 7.296875 16.035156 7.398438 C 15.90625 7.769531 15.730469 7.988281 15.300781 8.34375 C 15.160156 8.457031 14.902344 8.621094 14.621094 8.808594 C 14.238281 9.0625 13.804688 9.363281 13.570312 9.652344 C 13.164062 10.144531 13.125 10.671875 13.125 10.671875 C 13.125 10.671875 12.890625 10.742188 12.582031 10.691406 C 11.949219 10.601562 11.730469 10.449219 11.019531 10.007812 C 10.382812 9.617188 9.898438 9.257812 9.214844 9.242188 C 8.714844 9.230469 8.519531 9.570312 8.519531 9.570312 Z M 8.4375 9.574219 "/>
</g>
</svg>
