<?xml version="1.0" encoding="UTF-8"?>
<svg xmlns="http://www.w3.org/2000/svg" xmlns:xlink="http://www.w3.org/1999/xlink" width="24pt" height="25pt" viewBox="0 0 24 25" version="1.1">
<g id="surface1">
<path style=" stroke:none;fill-rule:nonzero;fill:rgb(0%,36.078431%,66.27451%);fill-opacity:1;" d="M 23.980469 3.03125 C 23.710938 10.738281 20.632812 17.695312 14.640625 22.734375 L 14.574219 22.808594 C 13.640625 23.546875 12.753906 24.386719 11.742188 25 C 7.144531 21.972656 3.21875 17.132812 1.570312 12.109375 C 0.601562 9.203125 0.0820312 6.152344 0 2.972656 L 0.125 2.902344 C 5.421875 0.128906 12.203125 -0.820312 18.152344 0.769531 C 20.191406 1.308594 22.148438 2.058594 23.980469 3.03125 Z M 23.980469 3.03125 "/>
<path style=" stroke:none;fill-rule:nonzero;fill:rgb(100%,100%,100%);fill-opacity:1;" d="M 23.371094 3.347656 C 23.085938 11.511719 19.191406 18.96875 12.394531 23.753906 L 11.734375 24.226562 C 10.699219 23.632812 9.765625 22.789062 8.851562 21.996094 C 3.378906 17.113281 0.820312 10.496094 0.625 3.3125 C 5.648438 0.8125 11.785156 -0.179688 17.46875 1.210938 C 19.519531 1.699219 21.496094 2.421875 23.371094 3.347656 Z M 23.371094 3.347656 "/>
<path style=" stroke:none;fill-rule:nonzero;fill:rgb(0%,36.078431%,66.27451%);fill-opacity:1;" d="M 22.800781 3.632812 C 22.863281 4.71875 22.679688 5.773438 22.566406 6.816406 C 21.785156 12.097656 19.410156 16.828125 15.460938 20.679688 C 14.320312 21.757812 13.011719 22.746094 11.757812 23.648438 L 11.574219 23.558594 C 5.070312 19.195312 1.511719 12.109375 1.273438 4.632812 L 1.238281 3.625 C 4.902344 1.652344 9.070312 0.632812 13.460938 0.890625 C 16.785156 1.09375 19.960938 2.125 22.800781 3.632812 Z M 22.800781 3.632812 "/>
<path style=" stroke:none;fill-rule:nonzero;fill:rgb(100%,100%,100%);fill-opacity:1;" d="M 22.21875 3.976562 L 22.300781 4.027344 C 21.988281 9.402344 20.199219 14.425781 16.675781 18.511719 C 15.699219 17.785156 14.78125 16.832031 13.929688 15.921875 C 10.378906 11.902344 8.628906 7.074219 8.269531 1.816406 C 8.71875 1.636719 9.214844 1.613281 9.714844 1.5625 C 14.132812 1.085938 18.453125 1.988281 22.21875 3.976562 Z M 22.21875 3.976562 "/>
<path style=" stroke:none;fill-rule:nonzero;fill:rgb(100%,100%,100%);fill-opacity:1;" d="M 8.394531 4.878906 C 8.414062 4.9375 8.410156 4.996094 8.339844 5.015625 C 8.144531 5.011719 8.003906 5.117188 7.890625 5.273438 L 7.738281 5.496094 L 5.566406 10.699219 C 5.488281 10.71875 5.417969 10.726562 5.347656 10.695312 L 3.019531 5.285156 C 2.875 5.097656 2.65625 5.003906 2.460938 4.964844 C 2.46875 4.933594 2.460938 4.855469 2.5 4.855469 L 5.332031 4.855469 C 5.34375 4.894531 5.371094 4.945312 5.332031 4.972656 C 5.082031 5.066406 4.726562 4.945312 4.59375 5.226562 L 4.644531 5.648438 C 5.078125 6.703125 5.519531 7.765625 5.992188 8.808594 L 6.082031 8.691406 L 7.164062 6.027344 C 7.246094 5.773438 7.460938 5.472656 7.316406 5.214844 C 7.128906 5.027344 6.882812 5.015625 6.613281 4.980469 L 6.613281 4.863281 C 7.203125 4.824219 7.808594 4.851562 8.394531 4.878906 Z M 8.394531 4.878906 "/>
<path style=" stroke:none;fill-rule:nonzero;fill:rgb(0%,36.078431%,66.27451%);fill-opacity:1;" d="M 15.992188 5.09375 C 16.007812 5.335938 15.976562 5.609375 16.011719 5.855469 C 16.132812 5.703125 16.332031 5.644531 16.519531 5.6875 C 16.628906 5.71875 16.738281 5.808594 16.746094 5.933594 L 16.761719 6.882812 C 16.769531 6.972656 16.921875 6.886719 16.871094 7.003906 L 16.195312 7.003906 C 16.144531 6.894531 16.304688 6.964844 16.292969 6.867188 L 16.296875 5.957031 C 16.277344 5.898438 16.21875 5.867188 16.171875 5.867188 C 16.089844 5.886719 16.011719 5.953125 15.988281 6.023438 C 15.996094 6.316406 15.949219 6.628906 16.007812 6.914062 C 16.035156 6.953125 16.117188 6.914062 16.085938 6.992188 L 15.398438 6.980469 C 15.390625 6.902344 15.546875 6.933594 15.53125 6.828125 L 15.542969 5.253906 C 15.542969 5.175781 15.464844 5.164062 15.425781 5.144531 L 15.4375 5.085938 Z M 15.992188 5.09375 "/>
<path style=" stroke:none;fill-rule:nonzero;fill:rgb(0%,36.078431%,66.27451%);fill-opacity:1;" d="M 12.144531 5.351562 C 12.191406 5.480469 12.160156 5.605469 12.097656 5.722656 C 12.007812 5.847656 11.867188 5.914062 11.71875 5.953125 C 11.777344 5.984375 11.867188 5.992188 11.933594 6.023438 C 12.074219 6.066406 12.191406 6.183594 12.25 6.3125 C 12.304688 6.488281 12.253906 6.65625 12.132812 6.78125 C 11.671875 7.097656 11.007812 6.929688 10.429688 6.960938 L 10.429688 6.914062 C 10.519531 6.894531 10.679688 6.898438 10.671875 6.761719 L 10.695312 5.242188 C 10.664062 5.183594 10.617188 5.144531 10.554688 5.132812 C 10.515625 5.132812 10.4375 5.152344 10.457031 5.085938 L 10.457031 5.066406 C 10.886719 5.070312 11.441406 5.03125 11.886719 5.125 C 11.988281 5.164062 12.105469 5.242188 12.144531 5.351562 Z M 12.144531 5.351562 "/>
<path style=" stroke:none;fill-rule:nonzero;fill:rgb(100%,100%,100%);fill-opacity:1;" d="M 11.546875 5.246094 C 11.644531 5.421875 11.640625 5.636719 11.558594 5.8125 C 11.480469 5.910156 11.351562 5.929688 11.230469 5.90625 L 11.25 5.203125 C 11.339844 5.144531 11.480469 5.167969 11.546875 5.246094 Z M 11.546875 5.246094 "/>
<path style=" stroke:none;fill-rule:nonzero;fill:rgb(0%,36.078431%,66.27451%);fill-opacity:1;" d="M 20.664062 5.773438 L 20.742188 5.921875 L 20.765625 6.898438 C 20.765625 7 20.925781 6.894531 20.882812 7.019531 C 20.664062 7.027344 20.40625 7.011719 20.179688 7.007812 C 20.140625 6.910156 20.328125 6.972656 20.300781 6.855469 L 20.300781 5.996094 C 20.292969 5.945312 20.265625 5.886719 20.195312 5.886719 C 20.105469 5.882812 20.023438 5.960938 19.984375 6.039062 L 19.972656 6.890625 C 19.96875 6.996094 20.121094 6.890625 20.089844 7.007812 L 19.414062 7.019531 L 19.414062 6.949219 C 19.464844 6.96875 19.523438 6.921875 19.523438 6.875 L 19.527344 5.972656 C 19.519531 5.914062 19.449219 5.882812 19.398438 5.882812 C 19.320312 5.882812 19.238281 5.960938 19.207031 6.027344 L 19.207031 6.886719 C 19.214844 6.996094 19.355469 6.890625 19.304688 7.015625 L 18.617188 7.015625 C 18.597656 6.996094 18.609375 6.96875 18.609375 6.949219 C 18.726562 6.96875 18.757812 6.851562 18.75 6.753906 L 18.753906 5.855469 C 18.734375 5.816406 18.6875 5.785156 18.636719 5.785156 L 18.625 5.785156 L 18.625 5.726562 L 19.195312 5.722656 C 19.203125 5.773438 19.183594 5.839844 19.199219 5.902344 C 19.332031 5.726562 19.5625 5.652344 19.769531 5.703125 C 19.871094 5.714844 19.945312 5.824219 19.984375 5.890625 C 20.167969 5.6875 20.4375 5.625 20.664062 5.773438 Z M 20.664062 5.773438 "/>
<path style=" stroke:none;fill-rule:nonzero;fill:rgb(0%,36.078431%,66.27451%);fill-opacity:1;" d="M 15.277344 5.90625 C 15.304688 5.992188 15.273438 6.109375 15.171875 6.136719 C 15.113281 6.167969 15.035156 6.144531 14.972656 6.117188 C 14.816406 6.023438 15.011719 5.6875 14.730469 5.761719 C 14.519531 5.953125 14.59375 6.277344 14.640625 6.53125 C 14.679688 6.628906 14.738281 6.746094 14.84375 6.796875 C 14.992188 6.859375 15.152344 6.800781 15.253906 6.707031 L 15.292969 6.753906 C 15.132812 6.96875 14.839844 7.082031 14.5625 7.007812 C 14.347656 6.949219 14.191406 6.742188 14.152344 6.523438 C 14.125 6.289062 14.160156 6.035156 14.320312 5.871094 C 14.503906 5.667969 14.792969 5.632812 15.039062 5.695312 C 15.140625 5.726562 15.238281 5.796875 15.277344 5.90625 Z M 15.277344 5.90625 "/>
<path style=" stroke:none;fill-rule:nonzero;fill:rgb(0%,36.078431%,66.27451%);fill-opacity:1;" d="M 17.59375 5.722656 L 17.597656 6.777344 C 17.605469 6.847656 17.6875 6.867188 17.746094 6.867188 C 17.804688 6.859375 17.867188 6.832031 17.90625 6.78125 C 17.890625 6.480469 17.945312 6.136719 17.878906 5.832031 C 17.859375 5.804688 17.832031 5.785156 17.792969 5.792969 C 17.773438 5.773438 17.78125 5.742188 17.78125 5.722656 L 18.359375 5.722656 L 18.351562 6.796875 C 18.363281 6.835938 18.390625 6.886719 18.441406 6.898438 C 18.492188 6.878906 18.492188 6.925781 18.5 6.945312 L 18.46875 6.976562 C 18.28125 6.972656 18.089844 7.03125 17.921875 7.054688 C 17.882812 7.027344 17.902344 6.96875 17.902344 6.910156 C 17.765625 6.976562 17.605469 7.082031 17.414062 7.039062 C 17.316406 7.027344 17.207031 6.96875 17.179688 6.878906 C 17.105469 6.566406 17.160156 6.214844 17.152344 5.882812 C 17.175781 5.753906 16.984375 5.839844 17.027344 5.714844 C 17.226562 5.707031 17.394531 5.71875 17.59375 5.722656 Z M 17.59375 5.722656 "/>
<path style=" stroke:none;fill-rule:nonzero;fill:rgb(0%,36.078431%,66.27451%);fill-opacity:1;" d="M 13.785156 5.902344 C 13.949219 6.109375 13.964844 6.433594 13.851562 6.667969 C 13.742188 6.910156 13.480469 7.015625 13.242188 7.03125 C 12.984375 7.007812 12.71875 6.90625 12.613281 6.648438 C 12.503906 6.421875 12.539062 6.109375 12.679688 5.917969 C 12.855469 5.683594 13.183594 5.621094 13.441406 5.683594 C 13.578125 5.703125 13.695312 5.824219 13.785156 5.902344 Z M 13.785156 5.902344 "/>
<path style=" stroke:none;fill-rule:nonzero;fill:rgb(100%,100%,100%);fill-opacity:1;" d="M 13.398438 5.839844 C 13.441406 6.183594 13.507812 6.554688 13.363281 6.886719 C 13.292969 6.941406 13.191406 6.953125 13.113281 6.902344 C 12.960938 6.617188 13.054688 6.226562 13.058594 5.902344 C 13.082031 5.835938 13.140625 5.757812 13.21875 5.738281 C 13.289062 5.71875 13.359375 5.78125 13.398438 5.839844 Z M 13.398438 5.839844 "/>
<path style=" stroke:none;fill-rule:nonzero;fill:rgb(100%,100%,100%);fill-opacity:1;" d="M 11.574219 6.097656 C 11.753906 6.246094 11.710938 6.5 11.667969 6.695312 C 11.625 6.820312 11.496094 6.847656 11.375 6.878906 C 11.296875 6.875 11.195312 6.855469 11.21875 6.746094 L 11.230469 6.023438 C 11.359375 6.015625 11.476562 6.027344 11.574219 6.097656 Z M 11.574219 6.097656 "/>
<path style=" stroke:none;fill-rule:nonzero;fill:rgb(100%,100%,100%);fill-opacity:1;" d="M 9.328125 8.933594 C 9.414062 9.148438 9.492188 9.421875 9.328125 9.636719 C 9.175781 9.832031 8.859375 9.824219 8.652344 9.753906 C 8.5625 9.722656 8.503906 9.644531 8.476562 9.554688 C 8.398438 9.300781 8.503906 9.046875 8.644531 8.84375 C 8.675781 8.707031 8.507812 8.726562 8.417969 8.683594 C 8.238281 8.691406 8.058594 8.777344 7.988281 8.953125 L 7.902344 9.304688 C 7.90625 9.683594 7.902344 10.078125 7.90625 10.476562 C 8.164062 10.511719 8.351562 10.472656 8.621094 10.488281 C 8.640625 10.605469 8.597656 10.691406 8.625 10.808594 C 8.4375 10.835938 7.910156 10.820312 7.910156 10.820312 L 7.886719 19.269531 L 6.761719 18.101562 L 6.757812 10.851562 L 6.308594 10.835938 L 6.296875 10.476562 L 6.742188 10.472656 C 6.75 9.914062 6.691406 9.199219 7.195312 8.816406 C 7.675781 8.429688 8.414062 8.34375 8.976562 8.613281 C 9.113281 8.703125 9.242188 8.773438 9.328125 8.933594 Z M 9.328125 8.933594 "/>
<path style=" stroke:none;fill-rule:nonzero;fill:rgb(0%,36.078431%,66.27451%);fill-opacity:1;" d="M 18.34375 8.921875 C 18.371094 9.046875 18.359375 9.203125 18.246094 9.292969 C 18.167969 9.367188 18.078125 9.40625 17.988281 9.445312 C 18.183594 9.554688 18.398438 9.742188 18.386719 9.996094 C 18.382812 10.203125 18.3125 10.40625 18.132812 10.503906 C 17.910156 10.617188 17.632812 10.640625 17.382812 10.5625 C 17.246094 10.507812 17.148438 10.382812 17.101562 10.253906 C 17.0625 10.117188 17.113281 9.96875 17.167969 9.863281 C 17.246094 9.738281 17.378906 9.691406 17.507812 9.644531 C 17.371094 9.5625 17.210938 9.441406 17.164062 9.277344 C 17.136719 9.070312 17.171875 8.835938 17.363281 8.710938 C 17.660156 8.558594 18.1875 8.527344 18.34375 8.921875 Z M 18.34375 8.921875 "/>
<path style=" stroke:none;fill-rule:nonzero;fill:rgb(0%,36.078431%,66.27451%);fill-opacity:1;" d="M 16.828125 9.839844 C 16.878906 9.878906 16.9375 9.832031 16.996094 9.851562 L 17.011719 10.164062 L 16.832031 10.171875 L 16.816406 10.5625 L 16.390625 10.566406 L 16.386719 10.175781 C 16.15625 10.160156 15.898438 10.167969 15.671875 10.15625 L 15.675781 9.863281 L 16.558594 8.601562 C 16.65625 8.613281 16.746094 8.59375 16.847656 8.605469 Z M 16.828125 9.839844 "/>
<path style=" stroke:none;fill-rule:nonzero;fill:rgb(0%,36.078431%,66.27451%);fill-opacity:1;" d="M 13.785156 8.652344 C 13.804688 9.316406 13.730469 9.796875 13.789062 10.394531 C 13.886719 10.492188 14.015625 10.496094 14.15625 10.488281 L 14.15625 10.554688 C 13.789062 10.558594 13.3125 10.542969 12.882812 10.546875 L 12.882812 10.488281 C 13.011719 10.460938 13.140625 10.5 13.242188 10.40625 L 13.285156 10.238281 C 13.28125 9.78125 13.335938 9.359375 13.265625 8.949219 C 13.15625 8.828125 13.023438 8.964844 12.90625 8.980469 C 12.894531 8.953125 12.875 8.933594 12.886719 8.902344 L 13.707031 8.5625 C 13.765625 8.542969 13.804688 8.601562 13.785156 8.652344 Z M 13.785156 8.652344 "/>
<path style=" stroke:none;fill-rule:nonzero;fill:rgb(0%,36.078431%,66.27451%);fill-opacity:1;" d="M 15.421875 8.761719 C 15.5 8.871094 15.539062 9.019531 15.496094 9.15625 C 15.445312 9.300781 15.285156 9.386719 15.144531 9.433594 C 15.382812 9.574219 15.597656 9.761719 15.554688 10.074219 C 15.53125 10.300781 15.378906 10.492188 15.148438 10.558594 C 14.910156 10.625 14.691406 10.621094 14.464844 10.5 C 14.34375 10.429688 14.289062 10.3125 14.25 10.183594 C 14.242188 10.039062 14.273438 9.929688 14.34375 9.824219 C 14.425781 9.726562 14.546875 9.679688 14.65625 9.632812 C 14.488281 9.53125 14.28125 9.363281 14.304688 9.128906 C 14.328125 8.984375 14.359375 8.835938 14.46875 8.738281 C 14.730469 8.539062 15.179688 8.535156 15.421875 8.761719 Z M 15.421875 8.761719 "/>
<path style=" stroke:none;fill-rule:nonzero;fill:rgb(100%,100%,100%);fill-opacity:1;" d="M 17.957031 8.867188 C 17.992188 9.023438 18.011719 9.230469 17.910156 9.363281 C 17.769531 9.273438 17.601562 9.183594 17.535156 9.007812 C 17.507812 8.929688 17.519531 8.832031 17.570312 8.773438 C 17.628906 8.746094 17.648438 8.695312 17.71875 8.695312 C 17.828125 8.679688 17.925781 8.769531 17.957031 8.867188 Z M 17.957031 8.867188 "/>
<path style=" stroke:none;fill-rule:nonzero;fill:rgb(100%,100%,100%);fill-opacity:1;" d="M 15.105469 8.816406 C 15.171875 8.984375 15.160156 9.191406 15.078125 9.34375 C 14.929688 9.273438 14.730469 9.15625 14.695312 8.96875 C 14.65625 8.859375 14.71875 8.742188 14.816406 8.695312 C 14.9375 8.660156 15.066406 8.710938 15.105469 8.816406 Z M 15.105469 8.816406 "/>
<path style=" stroke:none;fill-rule:nonzero;fill:rgb(100%,100%,100%);fill-opacity:1;" d="M 16.394531 9.058594 L 16.382812 9.84375 L 15.875 9.84375 Z M 16.394531 9.058594 "/>
<path style=" stroke:none;fill-rule:nonzero;fill:rgb(100%,100%,100%);fill-opacity:1;" d="M 17.996094 10.238281 C 17.984375 10.34375 17.960938 10.453125 17.851562 10.5 C 17.761719 10.527344 17.703125 10.527344 17.613281 10.496094 C 17.429688 10.289062 17.472656 9.957031 17.585938 9.722656 C 17.761719 9.84375 18.007812 9.984375 17.996094 10.238281 Z M 17.996094 10.238281 "/>
<path style=" stroke:none;fill-rule:nonzero;fill:rgb(100%,100%,100%);fill-opacity:1;" d="M 15.144531 10.117188 C 15.171875 10.214844 15.140625 10.332031 15.109375 10.421875 C 15.050781 10.488281 14.941406 10.527344 14.851562 10.496094 C 14.753906 10.484375 14.703125 10.394531 14.675781 10.308594 C 14.609375 10.109375 14.652344 9.886719 14.742188 9.710938 C 14.902344 9.820312 15.097656 9.921875 15.144531 10.117188 Z M 15.144531 10.117188 "/>
<path style=" stroke:none;fill-rule:nonzero;fill:rgb(100%,100%,100%);fill-opacity:1;" d="M 11.875 14.992188 C 11.585938 15.097656 11.179688 15.023438 11.042969 15.382812 C 10.949219 15.800781 11.003906 16.214844 10.976562 16.664062 C 10.96875 17.808594 10.953125 18.960938 10.957031 20.136719 C 11.359375 20.523438 11.996094 20.347656 12.476562 20.292969 C 13.191406 20.128906 13.789062 19.421875 13.996094 18.738281 C 14.066406 18.703125 14.128906 18.730469 14.195312 18.722656 C 14.089844 19.347656 13.96875 19.960938 13.820312 20.578125 C 13.722656 20.605469 13.5625 20.582031 13.453125 20.582031 L 10.445312 20.570312 L 8.824219 20.554688 C 8.804688 20.527344 8.816406 20.476562 8.804688 20.4375 C 9.046875 20.335938 9.421875 20.386719 9.507812 20.058594 L 9.574219 19.511719 L 9.574219 15.363281 C 9.480469 15.078125 9.160156 15.074219 8.914062 15.03125 C 8.875 15 8.875 14.960938 8.886719 14.914062 C 9.839844 14.847656 10.953125 14.910156 11.867188 14.886719 Z M 11.875 14.992188 "/>
</g>
</svg>
