<?xml version="1.0" encoding="UTF-8"?>
<svg xmlns="http://www.w3.org/2000/svg" xmlns:xlink="http://www.w3.org/1999/xlink" width="35pt" height="25pt" viewBox="0 0 35 25" version="1.1">
<g id="surface1">
<path style=" stroke:none;fill-rule:nonzero;fill:rgb(100%,100%,100%);fill-opacity:1;" d="M 29.339844 15.273438 C 29.742188 13.871094 29.742188 12.5 29.742188 12.5 C 29.742188 12.5 29.742188 11.132812 29.339844 9.726562 C 28.976562 8.445312 28.496094 7.296875 28.3125 6.589844 C 27.910156 5.003906 28.503906 2.953125 28.503906 2.953125 L 27.265625 3.464844 L 23.191406 7.5 C 22.976562 7.253906 22.746094 7.023438 22.5 6.804688 L 26.535156 2.734375 L 27.046875 1.496094 C 27.046875 1.496094 24.996094 2.085938 23.410156 1.683594 C 22.703125 1.503906 21.554688 1.023438 20.273438 0.65625 C 18.867188 0.257812 17.5 0.257812 17.5 0.257812 C 17.5 0.257812 16.128906 0.257812 14.726562 0.65625 C 13.441406 1.023438 12.292969 1.503906 11.585938 1.683594 C 10 2.085938 7.953125 1.496094 7.953125 1.496094 L 8.460938 2.734375 L 12.5 6.804688 C 12.253906 7.023438 12.019531 7.253906 11.804688 7.5 L 7.734375 3.464844 L 6.496094 2.953125 C 6.496094 2.953125 7.085938 5.003906 6.683594 6.589844 C 6.503906 7.296875 6.019531 8.445312 5.65625 9.726562 C 5.253906 11.132812 5.253906 12.5 5.253906 12.5 C 5.253906 12.5 5.253906 13.871094 5.65625 15.273438 C 6.019531 16.558594 6.503906 17.707031 6.683594 18.414062 C 7.085938 20 6.496094 22.046875 6.496094 22.046875 L 7.734375 21.539062 L 11.804688 17.503906 C 12.019531 17.746094 12.253906 17.980469 12.496094 18.195312 L 8.460938 22.265625 L 7.953125 23.503906 C 7.953125 23.503906 10 22.914062 11.585938 23.316406 C 12.292969 23.496094 13.441406 23.976562 14.726562 24.34375 C 16.128906 24.746094 17.5 24.746094 17.5 24.746094 C 17.5 24.746094 18.867188 24.746094 20.273438 24.34375 C 21.554688 23.976562 22.703125 23.496094 23.410156 23.316406 C 24.996094 22.914062 27.046875 23.503906 27.046875 23.503906 L 26.535156 22.265625 L 22.5 18.195312 C 22.746094 17.980469 22.976562 17.75 23.191406 17.503906 L 27.265625 21.539062 L 28.503906 22.046875 C 28.503906 22.046875 27.910156 20 28.3125 18.414062 C 28.496094 17.707031 28.976562 16.558594 29.339844 15.273438 M 17.5 25 C 17.441406 25 16.078125 24.996094 14.65625 24.589844 C 13.96875 24.394531 13.332031 24.167969 12.765625 23.972656 C 12.273438 23.796875 11.847656 23.648438 11.523438 23.566406 C 11.175781 23.476562 10.773438 23.433594 10.328125 23.433594 C 9.144531 23.433594 8.035156 23.746094 8.023438 23.75 L 7.515625 23.898438 L 8.246094 22.121094 L 12.128906 18.203125 C 12.015625 18.097656 11.902344 17.984375 11.796875 17.871094 L 7.878906 21.753906 L 6.101562 22.484375 L 6.25 21.976562 C 6.253906 21.957031 6.816406 19.976562 6.433594 18.476562 C 6.351562 18.152344 6.203125 17.726562 6.027344 17.234375 C 5.828125 16.667969 5.605469 16.03125 5.410156 15.34375 C 5.003906 13.921875 5 12.558594 5 12.5 C 5 12.445312 5.003906 11.082031 5.410156 9.65625 C 5.605469 8.972656 5.828125 8.332031 6.027344 7.769531 C 6.203125 7.277344 6.351562 6.847656 6.433594 6.523438 C 6.816406 5.027344 6.253906 3.046875 6.25 3.027344 L 6.101562 2.515625 L 7.878906 3.246094 L 11.792969 7.128906 C 11.902344 7.015625 12.015625 6.902344 12.128906 6.796875 L 8.246094 2.878906 L 7.515625 1.101562 L 8.023438 1.25 C 8.035156 1.253906 9.144531 1.566406 10.328125 1.566406 C 10.773438 1.566406 11.175781 1.523438 11.523438 1.4375 C 11.847656 1.351562 12.273438 1.203125 12.769531 1.027344 C 13.332031 0.828125 13.96875 0.605469 14.65625 0.410156 C 16.078125 0.00390625 17.441406 0 17.5 0 C 17.554688 0 18.917969 0.00390625 20.34375 0.410156 C 21.027344 0.605469 21.664062 0.828125 22.230469 1.027344 C 22.722656 1.203125 23.152344 1.351562 23.476562 1.4375 C 23.820312 1.523438 24.222656 1.566406 24.667969 1.566406 C 25.851562 1.566406 26.964844 1.253906 26.972656 1.25 L 27.484375 1.101562 L 26.753906 2.878906 L 22.867188 6.796875 C 22.984375 6.902344 23.09375 7.015625 23.203125 7.128906 L 27.121094 3.246094 L 28.894531 2.515625 L 28.75 3.027344 C 28.742188 3.046875 28.179688 5.027344 28.5625 6.523438 C 28.644531 6.847656 28.792969 7.273438 28.96875 7.769531 C 29.167969 8.332031 29.390625 8.972656 29.585938 9.65625 C 29.992188 11.082031 29.996094 12.445312 29.996094 12.5 C 29.996094 12.558594 29.992188 13.921875 29.585938 15.34375 C 29.390625 16.03125 29.167969 16.667969 28.96875 17.234375 C 28.792969 17.726562 28.644531 18.152344 28.5625 18.476562 C 28.179688 19.976562 28.742188 21.957031 28.75 21.976562 L 28.894531 22.484375 L 27.121094 21.753906 L 23.203125 17.871094 C 23.09375 17.984375 22.984375 18.097656 22.871094 18.203125 L 26.753906 22.121094 L 27.484375 23.898438 L 26.972656 23.75 C 26.964844 23.746094 25.851562 23.433594 24.667969 23.433594 C 24.222656 23.433594 23.820312 23.476562 23.476562 23.566406 C 23.152344 23.648438 22.722656 23.796875 22.230469 23.972656 C 21.667969 24.167969 21.027344 24.394531 20.34375 24.589844 C 18.917969 24.996094 17.554688 25 17.5 25 M 10.328125 22.921875 C 10.816406 22.921875 11.261719 22.96875 11.648438 23.070312 C 11.996094 23.15625 12.429688 23.3125 12.9375 23.488281 C 13.492188 23.683594 14.125 23.90625 14.792969 24.097656 C 16.144531 24.484375 17.480469 24.488281 17.5 24.488281 C 17.515625 24.488281 18.851562 24.484375 20.203125 24.097656 C 20.871094 23.90625 21.503906 23.683594 22.0625 23.488281 C 22.566406 23.3125 23.003906 23.15625 23.347656 23.070312 C 23.738281 22.972656 24.179688 22.921875 24.667969 22.921875 C 25.4375 22.921875 26.160156 23.042969 26.617188 23.140625 L 26.316406 22.410156 L 22.128906 18.183594 L 22.332031 18.003906 C 22.566406 17.796875 22.792969 17.570312 23 17.332031 L 23.179688 17.128906 L 27.410156 21.320312 L 28.136719 21.621094 C 27.980469 20.898438 27.769531 19.519531 28.066406 18.351562 C 28.15625 18.003906 28.308594 17.570312 28.488281 17.0625 C 28.683594 16.507812 28.90625 15.875 29.097656 15.203125 C 29.480469 13.851562 29.484375 12.515625 29.484375 12.5 C 29.484375 12.488281 29.480469 11.148438 29.097656 9.796875 C 28.90625 9.128906 28.683594 8.496094 28.488281 7.9375 C 28.308594 7.433594 28.15625 6.996094 28.066406 6.652344 C 27.769531 5.484375 27.980469 4.105469 28.136719 3.382812 L 27.410156 3.683594 L 23.179688 7.871094 L 23 7.667969 C 22.792969 7.433594 22.566406 7.207031 22.332031 6.996094 L 22.125 6.820312 L 26.316406 2.589844 L 26.617188 1.859375 C 26.160156 1.957031 25.4375 2.078125 24.667969 2.078125 C 24.179688 2.078125 23.738281 2.027344 23.347656 1.929688 C 23.003906 1.84375 22.566406 1.6875 22.058594 1.511719 C 21.503906 1.316406 20.871094 1.09375 20.203125 0.902344 C 18.851562 0.515625 17.511719 0.511719 17.5 0.511719 C 17.484375 0.511719 16.148438 0.515625 14.792969 0.902344 C 14.125 1.09375 13.496094 1.316406 12.9375 1.511719 C 12.433594 1.6875 11.996094 1.84375 11.648438 1.929688 C 11.261719 2.03125 10.816406 2.078125 10.328125 2.078125 C 9.5625 2.078125 8.839844 1.957031 8.378906 1.859375 L 8.679688 2.589844 L 12.871094 6.820312 L 12.667969 7 C 12.429688 7.207031 12.203125 7.433594 11.996094 7.667969 L 11.816406 7.871094 L 7.589844 3.683594 L 6.863281 3.382812 C 7.015625 4.105469 7.226562 5.484375 6.929688 6.652344 C 6.84375 6.996094 6.691406 7.433594 6.511719 7.941406 C 6.316406 8.496094 6.09375 9.128906 5.902344 9.796875 C 5.515625 11.148438 5.511719 12.488281 5.511719 12.5 C 5.511719 12.515625 5.515625 13.851562 5.902344 15.203125 C 6.09375 15.875 6.316406 16.507812 6.511719 17.0625 C 6.691406 17.570312 6.84375 18.003906 6.929688 18.351562 C 7.226562 19.519531 7.015625 20.898438 6.863281 21.621094 L 7.589844 21.320312 L 11.816406 17.128906 L 11.996094 17.332031 C 12.203125 17.570312 12.429688 17.796875 12.667969 18.003906 L 12.871094 18.183594 L 8.679688 22.410156 L 8.378906 23.140625 C 8.839844 23.042969 9.5625 22.921875 10.328125 22.921875 "/>
<path style=" stroke:none;fill-rule:nonzero;fill:rgb(0%,12.941176%,35.686275%);fill-opacity:1;" d="M 29.339844 15.273438 C 29.742188 13.871094 29.742188 12.5 29.742188 12.5 C 29.742188 12.5 29.742188 11.132812 29.339844 9.726562 C 28.976562 8.445312 28.496094 7.296875 28.3125 6.589844 C 27.910156 5.003906 28.503906 2.953125 28.503906 2.953125 L 27.265625 3.464844 L 23.191406 7.5 C 22.976562 7.253906 22.746094 7.023438 22.5 6.804688 L 26.535156 2.734375 L 27.046875 1.496094 C 27.046875 1.496094 24.996094 2.085938 23.410156 1.683594 C 22.703125 1.503906 21.554688 1.023438 20.273438 0.65625 C 18.867188 0.257812 17.5 0.257812 17.5 0.257812 C 17.5 0.257812 16.128906 0.257812 14.726562 0.65625 C 13.441406 1.023438 12.292969 1.503906 11.585938 1.683594 C 10 2.085938 7.953125 1.496094 7.953125 1.496094 L 8.460938 2.734375 L 12.5 6.804688 C 12.253906 7.023438 12.019531 7.253906 11.804688 7.5 L 7.734375 3.464844 L 6.496094 2.953125 C 6.496094 2.953125 7.085938 5.003906 6.683594 6.589844 C 6.503906 7.296875 6.019531 8.445312 5.65625 9.726562 C 5.253906 11.132812 5.253906 12.5 5.253906 12.5 C 5.253906 12.5 5.253906 13.871094 5.65625 15.273438 C 6.019531 16.558594 6.503906 17.707031 6.683594 18.414062 C 7.085938 20 6.496094 22.046875 6.496094 22.046875 L 7.734375 21.539062 L 11.804688 17.503906 C 12.019531 17.746094 12.253906 17.980469 12.496094 18.195312 L 8.460938 22.265625 L 7.953125 23.503906 C 7.953125 23.503906 10 22.914062 11.585938 23.316406 C 12.292969 23.496094 13.441406 23.976562 14.726562 24.34375 C 16.128906 24.746094 17.5 24.746094 17.5 24.746094 C 17.5 24.746094 18.867188 24.746094 20.273438 24.34375 C 21.554688 23.976562 22.703125 23.496094 23.410156 23.316406 C 24.996094 22.914062 27.046875 23.503906 27.046875 23.503906 L 26.535156 22.265625 L 22.5 18.195312 C 22.746094 17.980469 22.976562 17.75 23.191406 17.503906 L 27.265625 21.539062 L 28.503906 22.046875 C 28.503906 22.046875 27.910156 20 28.3125 18.414062 C 28.496094 17.707031 28.976562 16.558594 29.339844 15.273438 "/>
<path style=" stroke:none;fill-rule:nonzero;fill:rgb(80.784314%,7.843137%,19.607843%);fill-opacity:1;" d="M 20.761719 17.570312 L 25.890625 22.699219 C 25.890625 22.699219 24.089844 22.191406 22.664062 22.53125 C 21.238281 22.867188 19.878906 23.753906 17.570312 23.753906 L 17.429688 23.753906 C 15.121094 23.753906 13.761719 22.867188 12.335938 22.53125 C 10.910156 22.191406 9.109375 22.699219 9.109375 22.699219 L 14.238281 17.570312 Z M 22.570312 9.238281 L 27.695312 4.109375 C 27.695312 4.109375 27.1875 5.910156 27.527344 7.335938 C 27.867188 8.761719 28.75 10.121094 28.75 12.429688 L 28.75 12.574219 C 28.75 14.882812 27.867188 16.242188 27.527344 17.667969 C 27.1875 19.09375 27.695312 20.894531 27.695312 20.894531 L 22.570312 15.765625 Z M 20.761719 7.433594 L 25.890625 2.304688 C 25.890625 2.304688 24.089844 2.8125 22.664062 2.472656 C 21.238281 2.136719 19.878906 1.25 17.570312 1.25 L 17.429688 1.25 C 15.121094 1.25 13.761719 2.136719 12.335938 2.472656 C 10.910156 2.8125 9.109375 2.304688 9.109375 2.304688 L 14.238281 7.433594 Z M 12.429688 9.238281 L 7.304688 4.109375 C 7.304688 4.109375 7.8125 5.910156 7.472656 7.335938 C 7.132812 8.761719 6.25 10.121094 6.25 12.429688 L 6.25 12.574219 C 6.25 14.882812 7.132812 16.242188 7.472656 17.667969 C 7.8125 19.09375 7.304688 20.894531 7.304688 20.894531 L 12.429688 15.765625 Z M 12.429688 9.238281 "/>
<path style=" stroke:none;fill-rule:nonzero;fill:rgb(0%,12.941176%,35.686275%);fill-opacity:1;" d="M 20.523438 17.644531 L 25.277344 22.257812 C 25.277344 22.257812 23.609375 21.800781 22.285156 22.105469 C 20.964844 22.414062 19.703125 23.207031 17.5625 23.207031 L 17.433594 23.207031 C 15.292969 23.207031 14.035156 22.414062 12.710938 22.105469 C 11.390625 21.800781 9.71875 22.257812 9.71875 22.257812 L 14.472656 17.644531 Z M 22.640625 9.476562 L 27.257812 4.722656 C 27.257812 4.722656 26.796875 6.390625 27.105469 7.714844 C 27.410156 9.035156 28.203125 10.292969 28.203125 12.433594 L 28.203125 12.566406 C 28.203125 14.707031 27.410156 15.964844 27.105469 17.289062 C 26.796875 18.609375 27.257812 20.28125 27.257812 20.28125 L 22.640625 15.527344 Z M 20.523438 7.359375 L 25.277344 2.742188 C 25.277344 2.742188 23.609375 3.199219 22.285156 2.894531 C 20.964844 2.589844 19.703125 1.792969 17.5625 1.792969 L 17.433594 1.792969 C 15.292969 1.792969 14.035156 2.589844 12.710938 2.894531 C 11.390625 3.199219 9.71875 2.742188 9.71875 2.742188 L 14.472656 7.359375 Z M 12.355469 9.476562 L 7.742188 4.722656 C 7.742188 4.722656 8.199219 6.390625 7.894531 7.714844 C 7.585938 9.035156 6.792969 10.292969 6.792969 12.433594 L 6.792969 12.566406 C 6.792969 14.707031 7.585938 15.964844 7.894531 17.289062 C 8.199219 18.609375 7.742188 20.28125 7.742188 20.28125 L 12.355469 15.527344 Z M 12.355469 9.476562 "/>
<path style=" stroke:none;fill-rule:nonzero;fill:rgb(65.490196%,66.27451%,67.45098%);fill-opacity:1;" d="M 13.910156 4.773438 C 13.875 4.804688 13.820312 4.863281 13.699219 4.929688 C 13.308594 5.148438 12.945312 5.03125 12.769531 4.71875 C 12.597656 4.410156 12.660156 4.011719 13.078125 3.777344 C 13.203125 3.707031 13.308594 3.679688 13.394531 3.660156 L 13.53125 3.902344 C 13.480469 3.898438 13.359375 3.890625 13.226562 3.964844 C 12.988281 4.097656 12.945312 4.339844 13.054688 4.539062 C 13.171875 4.75 13.414062 4.828125 13.664062 4.6875 C 13.761719 4.632812 13.847656 4.558594 13.914062 4.472656 Z M 15.425781 4.191406 L 15.117188 4.296875 L 14.941406 3.796875 L 14.484375 3.957031 L 14.660156 4.457031 L 14.351562 4.5625 L 13.945312 3.386719 L 14.25 3.28125 L 14.402344 3.722656 L 14.863281 3.5625 L 14.707031 3.121094 L 15.015625 3.015625 Z M 15.589844 2.871094 L 15.910156 2.808594 L 16.148438 4.03125 L 15.828125 4.09375 Z M 17.453125 3.894531 C 17.410156 3.90625 17.332031 3.933594 17.195312 3.941406 C 16.75 3.972656 16.472656 3.707031 16.449219 3.347656 C 16.425781 3 16.65625 2.667969 17.136719 2.636719 C 17.277344 2.628906 17.386719 2.648438 17.472656 2.664062 L 17.488281 2.941406 C 17.445312 2.917969 17.339844 2.859375 17.191406 2.867188 C 16.917969 2.886719 16.773438 3.085938 16.785156 3.3125 C 16.800781 3.550781 16.980469 3.730469 17.269531 3.710938 C 17.382812 3.703125 17.492188 3.671875 17.589844 3.621094 Z M 19.097656 4.015625 L 18.753906 3.980469 L 18.695312 3.726562 L 18.253906 3.679688 L 18.140625 3.917969 L 17.820312 3.882812 L 18.433594 2.695312 L 18.75 2.730469 Z M 18.652344 3.527344 L 18.5625 3.125 C 18.554688 3.09375 18.550781 3.085938 18.550781 3.054688 L 18.523438 3.113281 L 18.339844 3.496094 Z M 20.488281 4.324219 C 20.304688 4.347656 20.117188 4.339844 19.9375 4.289062 C 19.515625 4.167969 19.320312 3.839844 19.425781 3.46875 C 19.523438 3.136719 19.859375 2.90625 20.347656 3.046875 C 20.484375 3.085938 20.597656 3.140625 20.722656 3.222656 L 20.644531 3.488281 C 20.601562 3.441406 20.5 3.332031 20.320312 3.28125 C 20.046875 3.203125 19.816406 3.320312 19.75 3.558594 C 19.6875 3.773438 19.773438 4.011719 20.042969 4.089844 C 20.132812 4.113281 20.191406 4.109375 20.234375 4.105469 L 20.304688 3.878906 L 20.023438 3.796875 L 20.207031 3.617188 L 20.660156 3.75 Z M 21.351562 4.886719 C 20.964844 4.6875 20.867188 4.320312 21.039062 3.988281 C 21.207031 3.664062 21.566406 3.527344 21.945312 3.722656 C 22.328125 3.917969 22.410156 4.296875 22.25 4.609375 C 22.09375 4.914062 21.734375 5.085938 21.351562 4.886719 M 21.941406 4.460938 C 22.050781 4.246094 22.019531 4.03125 21.832031 3.933594 C 21.652344 3.839844 21.453125 3.9375 21.34375 4.144531 C 21.238281 4.347656 21.269531 4.566406 21.457031 4.664062 C 21.664062 4.769531 21.851562 4.628906 21.941406 4.460938 "/>
<path style=" stroke:none;fill-rule:nonzero;fill:rgb(65.490196%,66.27451%,67.45098%);fill-opacity:1;" d="M 15.566406 22.328125 L 15.230469 22.269531 L 15.453125 20.984375 L 16.304688 21.132812 L 16.261719 21.382812 L 15.746094 21.292969 L 15.699219 21.570312 L 16.136719 21.648438 L 16.089844 21.902344 L 15.652344 21.824219 Z M 16.671875 21.15625 L 17.015625 21.179688 L 16.933594 22.480469 L 16.59375 22.460938 Z M 18.738281 22.386719 L 18.367188 22.410156 L 17.996094 21.882812 C 17.929688 21.890625 17.921875 21.890625 17.847656 21.898438 L 17.886719 22.445312 L 17.554688 22.46875 L 17.464844 21.164062 L 18.054688 21.125 C 18.257812 21.109375 18.476562 21.203125 18.496094 21.457031 C 18.5 21.511719 18.492188 21.5625 18.472656 21.613281 C 18.433594 21.71875 18.359375 21.769531 18.320312 21.800781 Z M 17.847656 21.867188 L 17.832031 21.679688 C 17.875 21.675781 18.027344 21.671875 18.058594 21.660156 C 18.125 21.640625 18.167969 21.582031 18.164062 21.503906 C 18.160156 21.445312 18.128906 21.410156 18.097656 21.394531 C 18.054688 21.363281 17.992188 21.371094 17.917969 21.375 L 17.8125 21.382812 Z M 19.960938 22.144531 L 19.183594 22.324219 L 18.890625 21.050781 L 19.714844 20.859375 L 19.773438 21.109375 L 19.277344 21.222656 L 19.335938 21.46875 L 19.757812 21.371094 L 19.816406 21.621094 L 19.390625 21.714844 L 19.457031 21.996094 L 20.046875 21.859375 Z M 19.960938 22.144531 "/>
<path style=" stroke:none;fill-rule:nonzero;fill:rgb(100%,100%,100%);fill-opacity:1;" d="M 24.542969 8.445312 L 19.53125 8.988281 L 17.5 4.375 L 15.464844 8.988281 L 10.453125 8.445312 L 13.425781 12.5 L 10.453125 16.558594 L 15.464844 16.011719 L 17.5 20.625 L 19.53125 16.011719 L 24.542969 16.558594 L 21.574219 12.5 Z M 24.421875 12.5 C 24.421875 16.324219 21.320312 19.425781 17.5 19.425781 C 13.675781 19.425781 10.578125 16.324219 10.578125 12.5 C 10.578125 8.679688 13.675781 5.578125 17.5 5.578125 C 21.320312 5.578125 24.421875 8.679688 24.421875 12.5 "/>
<path style=" stroke:none;fill-rule:nonzero;fill:rgb(0%,12.941176%,35.686275%);fill-opacity:1;" d="M 24.167969 12.5 C 24.167969 16.183594 21.179688 19.167969 17.5 19.167969 C 13.816406 19.167969 10.832031 16.183594 10.832031 12.5 C 10.832031 8.820312 13.816406 5.832031 17.5 5.832031 C 21.179688 5.832031 24.167969 8.820312 24.167969 12.5 "/>
<path style=" stroke:none;fill-rule:nonzero;fill:rgb(65.490196%,66.27451%,67.45098%);fill-opacity:1;" d="M 23.621094 12.5 C 23.621094 15.882812 20.878906 18.621094 17.5 18.621094 C 14.117188 18.621094 11.378906 15.882812 11.378906 12.5 C 11.378906 9.121094 14.117188 6.378906 17.5 6.378906 C 20.878906 6.378906 23.621094 9.121094 23.621094 12.5 M 17.5 18.65625 C 14.105469 18.65625 11.34375 15.894531 11.34375 12.5 C 11.34375 9.109375 14.105469 6.347656 17.5 6.347656 C 20.890625 6.347656 23.652344 9.109375 23.652344 12.5 C 23.652344 15.894531 20.890625 18.65625 17.5 18.65625 M 17.5 6.414062 C 14.140625 6.414062 11.410156 9.144531 11.410156 12.5 C 11.410156 15.859375 14.140625 18.589844 17.5 18.589844 C 20.855469 18.589844 23.585938 15.859375 23.585938 12.5 C 23.585938 9.144531 20.855469 6.414062 17.5 6.414062 "/>
<path style=" stroke:none;fill-rule:nonzero;fill:rgb(80.784314%,7.843137%,19.607843%);fill-opacity:1;" d="M 16.332031 12.042969 C 16.332031 10.980469 16.441406 10.636719 17.570312 10.636719 C 18.242188 10.636719 18.707031 10.683594 18.777344 11.347656 L 18.777344 11.636719 L 20.816406 11.636719 L 20.816406 11.347656 C 20.777344 9.121094 19.824219 8.914062 17.785156 8.914062 L 17.660156 8.914062 L 17.667969 8.902344 L 14.285156 8.902344 L 14.285156 11.761719 L 14.292969 11.757812 L 14.292969 12.304688 L 13.628906 12.621094 L 14.292969 12.894531 L 14.292969 13.644531 C 14.292969 16.199219 15.601562 16.433594 17.4375 16.453125 L 17.433594 16.460938 L 20.839844 16.460938 L 20.839844 13.980469 L 20.824219 13.988281 L 20.824219 13.585938 L 18.785156 13.585938 L 18.785156 13.804688 C 18.785156 14.675781 18.390625 14.734375 17.570312 14.734375 C 16.382812 14.734375 16.332031 14.308594 16.332031 13.199219 Z M 20.871094 16.492188 L 17.355469 16.492188 L 17.363281 16.484375 C 15.601562 16.460938 14.261719 16.210938 14.261719 13.644531 L 14.261719 12.914062 L 13.546875 12.625 L 14.261719 12.285156 L 14.25 8.871094 L 17.742188 8.871094 L 17.734375 8.882812 L 17.785156 8.882812 C 19.882812 8.882812 20.808594 9.113281 20.847656 11.347656 L 20.847656 11.667969 L 18.746094 11.667969 L 18.746094 11.347656 C 18.675781 10.714844 18.234375 10.667969 17.570312 10.667969 C 16.457031 10.667969 16.363281 11.003906 16.363281 12.042969 L 16.363281 13.199219 C 16.363281 14.316406 16.421875 14.703125 17.570312 14.703125 C 18.429688 14.703125 18.753906 14.625 18.753906 13.804688 L 18.753906 13.554688 L 20.859375 13.554688 L 20.855469 13.9375 L 20.871094 13.980469 Z M 17.507812 16.425781 L 20.808594 16.425781 L 20.808594 14.03125 L 20.792969 13.988281 L 20.792969 13.617188 L 18.820312 13.617188 L 18.820312 13.804688 C 18.820312 14.722656 18.367188 14.765625 17.570312 14.765625 C 16.347656 14.765625 16.300781 14.3125 16.300781 13.199219 L 16.300781 12.042969 C 16.300781 10.976562 16.402344 10.601562 17.570312 10.601562 C 18.25 10.601562 18.738281 10.65625 18.808594 11.34375 L 18.808594 11.601562 L 20.78125 11.601562 L 20.78125 11.347656 C 20.742188 9.171875 19.839844 8.945312 17.785156 8.945312 L 17.582031 8.945312 L 17.59375 8.933594 L 14.316406 8.933594 L 14.324219 12.328125 L 13.707031 12.621094 L 14.324219 12.871094 L 14.324219 13.644531 C 14.324219 16.191406 15.617188 16.402344 17.4375 16.421875 L 17.511719 16.421875 Z M 17.507812 16.425781 "/>
<path style=" stroke:none;fill-rule:nonzero;fill:rgb(0%,12.941176%,35.686275%);fill-opacity:1;" d="M 28.214844 23.683594 C 28.214844 23.347656 28.46875 23.09375 28.792969 23.09375 C 29.113281 23.09375 29.367188 23.347656 29.367188 23.683594 C 29.367188 24.023438 29.113281 24.277344 28.792969 24.277344 C 28.46875 24.277344 28.214844 24.023438 28.214844 23.683594 M 28.792969 24.394531 C 29.179688 24.394531 29.507812 24.09375 29.507812 23.683594 C 29.507812 23.277344 29.179688 22.972656 28.792969 22.972656 C 28.402344 22.972656 28.074219 23.277344 28.074219 23.683594 C 28.074219 24.09375 28.402344 24.394531 28.792969 24.394531 M 28.644531 23.738281 L 28.785156 23.738281 L 29 24.09375 L 29.136719 24.09375 L 28.90625 23.734375 C 29.027344 23.71875 29.117188 23.65625 29.117188 23.507812 C 29.117188 23.347656 29.023438 23.277344 28.828125 23.277344 L 28.519531 23.277344 L 28.519531 24.09375 L 28.644531 24.09375 Z M 28.644531 23.636719 L 28.644531 23.382812 L 28.8125 23.382812 C 28.898438 23.382812 28.988281 23.398438 28.988281 23.5 C 28.988281 23.628906 28.894531 23.636719 28.789062 23.636719 Z M 28.644531 23.636719 "/>
</g>
</svg>
