<?xml version="1.0" encoding="UTF-8"?>
<svg xmlns="http://www.w3.org/2000/svg" xmlns:xlink="http://www.w3.org/1999/xlink" width="35pt" height="25pt" viewBox="0 0 35 25" version="1.1">
<g id="surface1">
<path style=" stroke:none;fill-rule:nonzero;fill:rgb(10.980392%,25.490196%,53.72549%);fill-opacity:1;" d="M 17.605469 6.039062 C 12.371094 6.039062 8.125 10.285156 8.125 15.519531 C 8.125 20.753906 12.371094 25 17.605469 25 C 22.839844 25 27.085938 20.753906 27.085938 15.519531 C 27.085938 10.285156 22.839844 6.039062 17.605469 6.039062 Z M 17.605469 6.039062 "/>
<path style=" stroke:none;fill-rule:nonzero;fill:rgb(100%,100%,100%);fill-opacity:1;" d="M 17.605469 6.457031 C 12.601562 6.457031 8.542969 10.515625 8.542969 15.519531 C 8.542969 20.523438 12.601562 24.582031 17.605469 24.582031 C 22.609375 24.582031 26.667969 20.523438 26.667969 15.519531 C 26.667969 10.515625 22.609375 6.457031 17.605469 6.457031 Z M 17.605469 6.457031 "/>
<path style=" stroke:none;fill-rule:nonzero;fill:rgb(10.980392%,25.490196%,53.72549%);fill-opacity:1;" d="M 17.605469 6.664062 C 12.714844 6.664062 8.75 10.628906 8.75 15.519531 C 8.75 20.410156 12.714844 24.375 17.605469 24.375 C 22.496094 24.375 26.460938 20.410156 26.460938 15.519531 C 26.460938 10.628906 22.496094 6.664062 17.605469 6.664062 Z M 17.605469 6.664062 "/>
<path style=" stroke:none;fill-rule:nonzero;fill:rgb(100%,100%,100%);fill-opacity:1;" d="M 17.605469 9.082031 C 14.050781 9.082031 11.171875 11.964844 11.171875 15.519531 C 11.171875 19.074219 14.050781 21.953125 17.605469 21.953125 C 21.160156 21.953125 24.042969 19.074219 24.042969 15.519531 C 24.042969 11.964844 21.160156 9.082031 17.605469 9.082031 Z M 17.605469 9.082031 "/>
<path style=" stroke:none;fill-rule:nonzero;fill:rgb(89.019608%,10.588235%,13.333333%);fill-opacity:1;" d="M 17.605469 9.699219 C 17.390625 9.699219 17.175781 9.710938 16.96875 9.734375 L 16.96875 21.304688 C 17.175781 21.328125 17.390625 21.339844 17.605469 21.339844 C 17.820312 21.339844 18.035156 21.328125 18.242188 21.304688 L 18.242188 9.734375 C 18.035156 9.710938 17.820312 9.699219 17.605469 9.699219 Z M 17.605469 9.699219 "/>
<path style=" stroke:none;fill-rule:nonzero;fill:rgb(89.019608%,10.588235%,13.333333%);fill-opacity:1;" d="M 14.601562 10.53125 L 14.601562 20.507812 C 15 20.746094 15.429688 20.941406 15.878906 21.078125 L 15.878906 9.957031 C 15.429688 10.097656 15 10.292969 14.601562 10.53125 Z M 14.601562 10.53125 "/>
<path style=" stroke:none;fill-rule:nonzero;fill:rgb(89.019608%,10.588235%,13.333333%);fill-opacity:1;" d="M 12.238281 13.261719 L 12.238281 17.777344 C 12.539062 18.488281 12.976562 19.128906 13.515625 19.660156 L 13.515625 11.378906 C 12.976562 11.910156 12.539062 12.550781 12.238281 13.261719 Z M 12.238281 13.261719 "/>
<path style=" stroke:none;fill-rule:nonzero;fill:rgb(89.019608%,10.588235%,13.333333%);fill-opacity:1;" d="M 21.695312 11.378906 L 21.695312 19.660156 C 22.234375 19.128906 22.671875 18.488281 22.972656 17.777344 L 22.972656 13.261719 C 22.671875 12.550781 22.234375 11.910156 21.695312 11.378906 Z M 21.695312 11.378906 "/>
<path style=" stroke:none;fill-rule:nonzero;fill:rgb(89.019608%,10.588235%,13.333333%);fill-opacity:1;" d="M 19.332031 9.957031 L 19.332031 21.078125 C 19.78125 20.941406 20.210938 20.746094 20.609375 20.507812 L 20.609375 10.53125 C 20.210938 10.292969 19.78125 10.097656 19.332031 9.957031 Z M 19.332031 9.957031 "/>
<path style=" stroke:none;fill-rule:nonzero;fill:rgb(10.980392%,25.490196%,53.72549%);fill-opacity:1;" d="M 17.605469 9.3125 C 14.175781 9.3125 11.398438 12.089844 11.398438 15.519531 C 11.398438 18.949219 14.175781 21.726562 17.605469 21.726562 C 21.035156 21.726562 23.8125 18.949219 23.8125 15.519531 C 23.8125 12.089844 21.035156 9.3125 17.605469 9.3125 M 17.605469 21.339844 C 14.390625 21.339844 11.785156 18.734375 11.785156 15.519531 C 11.785156 12.304688 14.390625 9.699219 17.605469 9.699219 C 20.820312 9.699219 23.425781 12.304688 23.425781 15.519531 C 23.425781 18.734375 20.820312 21.339844 17.605469 21.339844 Z M 17.605469 21.339844 "/>
<path style=" stroke:none;fill-rule:nonzero;fill:rgb(98.431373%,73.72549%,3.529412%);fill-opacity:1;" d="M 13.984375 7.824219 C 13.984375 7.824219 14.371094 8.289062 14.371094 8.984375 L 14.371094 14.167969 C 14.371094 16.25 17.605469 17.300781 17.605469 17.300781 C 17.605469 17.300781 20.839844 16.25 20.839844 14.167969 L 20.839844 8.984375 C 20.839844 8.289062 21.226562 7.824219 21.226562 7.824219 Z M 13.984375 7.824219 "/>
<path style=" stroke:none;fill-rule:nonzero;fill:rgb(10.980392%,25.490196%,53.72549%);fill-opacity:1;" d="M 15.386719 8.78125 L 15.386719 13.8125 C 15.386719 15.242188 17.605469 15.960938 17.605469 15.960938 C 17.605469 15.960938 19.824219 15.242188 19.824219 13.8125 L 19.824219 8.78125 Z M 15.386719 8.78125 "/>
<path style=" stroke:none;fill-rule:nonzero;fill:rgb(89.019608%,10.588235%,13.333333%);fill-opacity:1;" d="M 14.726562 8.691406 L 14.851562 8.496094 L 14.972656 8.691406 L 15.199219 8.691406 L 14.960938 8.363281 L 15.191406 8.046875 L 14.972656 8.046875 L 14.859375 8.234375 L 14.742188 8.046875 L 14.519531 8.046875 L 14.746094 8.363281 L 14.507812 8.691406 Z M 14.726562 8.691406 "/>
<path style=" stroke:none;fill-rule:nonzero;fill:rgb(89.019608%,10.588235%,13.333333%);fill-opacity:1;" d="M 17.941406 16.183594 L 17.726562 16.183594 L 17.609375 16.371094 L 17.496094 16.183594 L 17.269531 16.183594 L 17.5 16.5 L 17.257812 16.824219 L 17.480469 16.824219 L 17.601562 16.628906 L 17.722656 16.824219 L 17.953125 16.824219 L 17.714844 16.496094 Z M 17.941406 16.183594 "/>
<path style=" stroke:none;fill-rule:nonzero;fill:rgb(89.019608%,10.588235%,13.333333%);fill-opacity:1;" d="M 20.230469 8.691406 L 20.351562 8.496094 L 20.476562 8.691406 L 20.703125 8.691406 L 20.464844 8.363281 L 20.691406 8.046875 L 20.476562 8.046875 L 20.359375 8.234375 L 20.246094 8.046875 L 20.019531 8.046875 L 20.246094 8.363281 L 20.007812 8.691406 Z M 20.230469 8.691406 "/>
<path style=" stroke:none;fill-rule:nonzero;fill:rgb(89.019608%,10.588235%,13.333333%);fill-opacity:1;" d="M 15.335938 14.28125 L 15.121094 14.28125 L 15.003906 14.464844 L 14.886719 14.28125 L 14.664062 14.28125 L 14.894531 14.597656 L 14.652344 14.921875 L 14.875 14.921875 L 14.996094 14.726562 L 15.117188 14.921875 L 15.347656 14.921875 L 15.105469 14.59375 Z M 15.335938 14.28125 "/>
<path style=" stroke:none;fill-rule:nonzero;fill:rgb(89.019608%,10.588235%,13.333333%);fill-opacity:1;" d="M 20.546875 14.28125 L 20.332031 14.28125 L 20.214844 14.464844 L 20.097656 14.28125 L 19.875 14.28125 L 20.101562 14.597656 L 19.863281 14.921875 L 20.085938 14.921875 L 20.207031 14.726562 L 20.328125 14.921875 L 20.558594 14.921875 L 20.316406 14.59375 Z M 20.546875 14.28125 "/>
<path style=" stroke:none;fill-rule:nonzero;fill:rgb(89.019608%,10.588235%,13.333333%);fill-opacity:1;" d="M 14.851562 11.9375 L 14.972656 12.132812 L 15.203125 12.132812 L 14.960938 11.804688 L 15.191406 11.488281 L 14.972656 11.488281 L 14.859375 11.675781 L 14.742188 11.488281 L 14.519531 11.488281 L 14.746094 11.804688 L 14.507812 12.132812 L 14.726562 12.132812 Z M 14.851562 11.9375 "/>
<path style=" stroke:none;fill-rule:nonzero;fill:rgb(89.019608%,10.588235%,13.333333%);fill-opacity:1;" d="M 20.691406 11.488281 L 20.476562 11.488281 L 20.359375 11.675781 L 20.246094 11.488281 L 20.019531 11.488281 L 20.246094 11.804688 L 20.007812 12.132812 L 20.230469 12.132812 L 20.351562 11.9375 L 20.476562 12.132812 L 20.703125 12.132812 L 20.464844 11.804688 Z M 20.691406 11.488281 "/>
<path style=" stroke:none;fill-rule:nonzero;fill:rgb(98.431373%,73.72549%,3.529412%);fill-opacity:1;" d="M 16.730469 12.890625 C 16.640625 12.757812 16.847656 12.671875 16.847656 12.671875 L 16.832031 12.578125 C 16.597656 12.683594 16.613281 12.488281 16.613281 12.488281 C 16.652344 12.265625 16.882812 12.476562 16.882812 12.476562 L 16.941406 12.320312 L 16.257812 12.054688 C 16.257812 12.054688 16.242188 12.195312 16.09375 12.265625 C 15.949219 12.332031 15.976562 12.554688 15.976562 12.554688 C 15.976562 12.554688 16.046875 12.574219 16.011719 12.65625 C 16.011719 12.65625 15.972656 12.699219 15.976562 12.734375 C 15.976562 12.734375 16.054688 12.734375 15.992188 12.855469 C 15.992188 12.855469 16.078125 12.863281 16.050781 12.949219 C 16.050781 12.949219 16.152344 12.9375 16.136719 13.027344 C 16.136719 13.027344 16.203125 13.070312 16.257812 13.027344 C 16.046875 13.542969 15.882812 13.519531 15.882812 13.519531 C 15.710938 13.300781 15.777344 12.890625 15.777344 12.890625 C 15.832031 12.558594 15.707031 12.363281 15.707031 12.363281 C 15.816406 12.121094 15.585938 12.035156 15.585938 12.035156 C 15.496094 12.238281 15.621094 12.382812 15.621094 12.382812 C 15.796875 12.582031 15.707031 12.863281 15.707031 12.863281 C 15.554688 13.375 15.765625 13.660156 15.765625 13.660156 C 15.699219 13.902344 15.84375 14.050781 15.84375 14.050781 C 15.75 14.132812 15.78125 14.242188 15.78125 14.242188 C 15.785156 14.246094 16.183594 14.652344 16.183594 14.652344 L 16.550781 14.652344 C 16.503906 14.527344 16.378906 14.550781 16.378906 14.550781 C 16.15625 14.539062 16.15625 14.429688 16.15625 14.429688 C 16.144531 14.308594 16.113281 14.195312 16.113281 14.195312 C 16.285156 14.089844 16.25 13.957031 16.25 13.957031 C 16.460938 13.957031 16.59375 14.058594 16.59375 14.058594 C 16.75 14.234375 16.882812 14.207031 16.882812 14.207031 L 17.398438 13.859375 L 17.398438 13.742188 L 17.335938 13.742188 L 17.023438 13.988281 C 16.925781 14.070312 16.816406 13.976562 16.816406 13.976562 L 16.464844 13.746094 C 16.773438 13.59375 16.761719 13.355469 16.761719 13.355469 L 16.964844 13.355469 C 17.199219 12.984375 17.394531 13 17.394531 13 L 17.394531 12.769531 L 17.347656 12.769531 L 17.042969 13.101562 C 16.929688 13.195312 16.773438 13.0625 16.773438 13.0625 L 16.925781 13.042969 L 17.15625 12.761719 C 17.273438 12.640625 17.398438 12.617188 17.398438 12.617188 L 17.398438 12.328125 L 17.339844 12.328125 C 17 13.007812 16.730469 12.890625 16.730469 12.890625 Z M 16.730469 12.890625 "/>
<path style=" stroke:none;fill-rule:nonzero;fill:rgb(98.431373%,73.72549%,3.529412%);fill-opacity:1;" d="M 19.625 12.035156 C 19.625 12.035156 19.394531 12.121094 19.503906 12.363281 C 19.503906 12.363281 19.378906 12.558594 19.433594 12.890625 C 19.433594 12.890625 19.5 13.300781 19.328125 13.519531 C 19.328125 13.519531 19.164062 13.542969 18.957031 13.027344 C 19.007812 13.070312 19.074219 13.027344 19.074219 13.027344 C 19.058594 12.941406 19.160156 12.949219 19.160156 12.949219 C 19.132812 12.863281 19.21875 12.855469 19.21875 12.855469 C 19.15625 12.734375 19.234375 12.734375 19.234375 12.734375 C 19.238281 12.699219 19.199219 12.65625 19.199219 12.65625 C 19.164062 12.574219 19.234375 12.554688 19.234375 12.554688 C 19.234375 12.554688 19.261719 12.332031 19.117188 12.265625 C 18.96875 12.195312 18.957031 12.054688 18.957031 12.054688 L 18.269531 12.320312 L 18.328125 12.476562 C 18.328125 12.476562 18.558594 12.265625 18.597656 12.488281 C 18.597656 12.488281 18.613281 12.683594 18.378906 12.578125 L 18.363281 12.671875 C 18.363281 12.671875 18.570312 12.757812 18.480469 12.890625 C 18.480469 12.890625 18.210938 13.007812 17.871094 12.328125 L 17.8125 12.328125 L 17.8125 12.617188 C 17.8125 12.617188 17.9375 12.640625 18.054688 12.761719 L 18.285156 13.042969 L 18.4375 13.0625 C 18.4375 13.0625 18.28125 13.195312 18.167969 13.101562 L 17.863281 12.769531 L 17.816406 12.769531 L 17.816406 13 C 17.816406 13 18.011719 12.984375 18.246094 13.355469 L 18.453125 13.355469 C 18.453125 13.355469 18.4375 13.59375 18.746094 13.746094 L 18.390625 13.976562 C 18.390625 13.976562 18.285156 14.070312 18.1875 13.988281 L 17.875 13.742188 L 17.8125 13.742188 L 17.8125 13.859375 L 18.328125 14.207031 C 18.328125 14.207031 18.460938 14.234375 18.617188 14.058594 C 18.617188 14.058594 18.75 13.957031 18.960938 13.957031 C 18.960938 13.957031 18.925781 14.089844 19.097656 14.195312 C 19.097656 14.195312 19.066406 14.308594 19.054688 14.429688 C 19.054688 14.429688 19.054688 14.539062 18.832031 14.550781 C 18.832031 14.550781 18.707031 14.527344 18.660156 14.652344 L 19.027344 14.652344 C 19.027344 14.652344 19.425781 14.246094 19.429688 14.242188 C 19.429688 14.242188 19.460938 14.132812 19.367188 14.050781 C 19.367188 14.050781 19.511719 13.902344 19.445312 13.660156 C 19.445312 13.660156 19.65625 13.375 19.503906 12.863281 C 19.503906 12.863281 19.414062 12.582031 19.589844 12.382812 C 19.589844 12.382812 19.714844 12.238281 19.625 12.035156 Z M 19.625 12.035156 "/>
<path style=" stroke:none;fill-rule:nonzero;fill:rgb(10.196078%,68.235294%,28.235294%);fill-opacity:1;" d="M 17.605469 9.433594 C 16.738281 9.433594 16.039062 9.9375 16.039062 10.5625 C 16.039062 11.183594 16.738281 11.6875 17.605469 11.6875 C 18.472656 11.6875 19.171875 11.183594 19.171875 10.5625 C 19.171875 9.9375 18.472656 9.433594 17.605469 9.433594 Z M 17.605469 9.433594 "/>
<path style=" stroke:none;fill-rule:nonzero;fill:rgb(100%,100%,100%);fill-opacity:1;" d="M 10.660156 14.417969 C 10.640625 14.390625 10.609375 14.375 10.574219 14.371094 L 9.453125 14.234375 C 9.382812 14.222656 9.320312 14.273438 9.308594 14.34375 L 9.273438 14.660156 C 9.269531 14.695312 9.277344 14.726562 9.296875 14.75 C 9.316406 14.777344 9.347656 14.796875 9.382812 14.800781 L 9.757812 14.847656 L 9.777344 14.691406 C 9.777344 14.691406 9.449219 14.652344 9.421875 14.648438 L 9.453125 14.390625 L 10.539062 14.523438 L 10.507812 14.78125 C 10.476562 14.777344 10.222656 14.746094 10.222656 14.746094 L 10.207031 14.902344 L 10.503906 14.9375 C 10.539062 14.941406 10.574219 14.933594 10.601562 14.910156 C 10.628906 14.890625 10.644531 14.863281 10.648438 14.832031 L 10.6875 14.507812 C 10.691406 14.476562 10.683594 14.445312 10.660156 14.417969 Z M 10.660156 14.417969 "/>
<path style=" stroke:none;fill-rule:nonzero;fill:rgb(100%,100%,100%);fill-opacity:1;" d="M 10.617188 15.605469 L 10.617188 15.449219 L 10.597656 15.449219 L 9.230469 15.476562 L 9.238281 15.96875 L 9.382812 15.964844 C 9.382812 15.964844 9.378906 15.660156 9.378906 15.628906 C 9.410156 15.628906 10.617188 15.605469 10.617188 15.605469 Z M 10.617188 15.605469 "/>
<path style=" stroke:none;fill-rule:nonzero;fill:rgb(100%,100%,100%);fill-opacity:1;" d="M 10.738281 16.804688 C 10.738281 16.804688 9.542969 17.003906 9.511719 17.007812 C 9.507812 16.980469 9.472656 16.757812 9.464844 16.730469 C 9.5 16.726562 10.691406 16.527344 10.691406 16.527344 L 10.664062 16.375 L 10.648438 16.378906 L 9.425781 16.582031 C 9.347656 16.59375 9.304688 16.652344 9.316406 16.722656 L 9.375 17.066406 C 9.386719 17.136719 9.445312 17.175781 9.519531 17.164062 L 10.761719 16.957031 Z M 10.738281 16.804688 "/>
<path style=" stroke:none;fill-rule:nonzero;fill:rgb(100%,100%,100%);fill-opacity:1;" d="M 11.023438 17.871094 L 10.890625 17.46875 L 10.875 17.476562 L 9.574219 17.910156 L 9.707031 18.308594 C 9.722656 18.351562 9.746094 18.382812 9.777344 18.398438 C 9.808594 18.410156 9.839844 18.414062 9.878906 18.398438 L 10.296875 18.261719 C 10.34375 18.246094 10.371094 18.214844 10.382812 18.164062 L 10.402344 18.097656 L 10.476562 18.15625 C 10.507812 18.179688 10.550781 18.167969 10.582031 18.15625 L 10.945312 18.035156 C 10.980469 18.023438 11.003906 18.003906 11.019531 17.972656 C 11.035156 17.941406 11.035156 17.90625 11.023438 17.871094 M 10.25 18.113281 C 10.234375 18.121094 9.871094 18.238281 9.839844 18.25 L 9.761719 18.007812 C 9.789062 18 10.210938 17.859375 10.242188 17.847656 C 10.25 17.871094 10.28125 17.96875 10.285156 17.976562 C 10.28125 17.988281 10.253906 18.097656 10.25 18.113281 M 10.527344 18.011719 C 10.515625 18.003906 10.429688 17.945312 10.421875 17.9375 C 10.421875 17.929688 10.386719 17.828125 10.378906 17.804688 C 10.40625 17.792969 10.773438 17.671875 10.800781 17.660156 C 10.8125 17.6875 10.871094 17.867188 10.882812 17.894531 C 10.851562 17.90625 10.542969 18.007812 10.527344 18.011719 Z M 10.527344 18.011719 "/>
<path style=" stroke:none;fill-rule:nonzero;fill:rgb(100%,100%,100%);fill-opacity:1;" d="M 11.851562 19.476562 L 11.660156 19.191406 L 11.644531 19.203125 L 10.511719 19.96875 L 10.703125 20.257812 C 10.738281 20.308594 10.789062 20.339844 10.847656 20.351562 C 10.902344 20.363281 10.960938 20.351562 11.011719 20.316406 L 11.796875 19.785156 C 11.886719 19.726562 11.933594 19.597656 11.851562 19.476562 M 11.734375 19.609375 C 11.730469 19.632812 11.714844 19.652344 11.695312 19.667969 L 10.941406 20.175781 C 10.921875 20.191406 10.894531 20.199219 10.871094 20.191406 C 10.847656 20.1875 10.824219 20.171875 10.804688 20.144531 C 10.804688 20.144531 10.738281 20.050781 10.71875 20.015625 L 11.625 19.402344 L 11.714844 19.535156 C 11.726562 19.554688 11.734375 19.574219 11.734375 19.59375 Z M 11.734375 19.609375 "/>
<path style=" stroke:none;fill-rule:nonzero;fill:rgb(100%,100%,100%);fill-opacity:1;" d="M 12.3125 20.074219 L 12.300781 20.085938 L 11.289062 21.011719 L 11.597656 21.347656 L 11.707031 21.25 C 11.707031 21.25 11.523438 21.050781 11.5 21.027344 L 11.859375 20.699219 C 11.878906 20.722656 12.050781 20.90625 12.050781 20.90625 L 12.15625 20.808594 C 12.15625 20.808594 11.988281 20.621094 11.96875 20.601562 L 12.308594 20.289062 C 12.328125 20.3125 12.511719 20.507812 12.511719 20.507812 L 12.617188 20.410156 Z M 12.3125 20.074219 "/>
<path style=" stroke:none;fill-rule:nonzero;fill:rgb(100%,100%,100%);fill-opacity:1;" d="M 13.296875 21.011719 L 12.964844 20.742188 L 12.957031 20.753906 L 12.085938 21.8125 L 12.207031 21.910156 C 12.207031 21.910156 12.523438 21.527344 12.542969 21.503906 C 12.566406 21.523438 12.757812 21.683594 12.757812 21.683594 C 12.792969 21.707031 12.828125 21.71875 12.859375 21.71875 C 12.894531 21.710938 12.925781 21.695312 12.949219 21.664062 L 13.328125 21.207031 C 13.347656 21.175781 13.359375 21.144531 13.355469 21.113281 C 13.355469 21.078125 13.332031 21.042969 13.296875 21.011719 M 12.835938 21.554688 C 12.816406 21.539062 12.65625 21.410156 12.632812 21.390625 L 12.992188 20.953125 C 13.015625 20.972656 13.175781 21.101562 13.195312 21.121094 Z M 12.835938 21.554688 "/>
<path style=" stroke:none;fill-rule:nonzero;fill:rgb(100%,100%,100%);fill-opacity:1;" d="M 14.234375 21.632812 L 13.917969 21.449219 C 13.894531 21.433594 13.855469 21.429688 13.824219 21.4375 C 13.792969 21.445312 13.765625 21.46875 13.75 21.496094 L 13.175781 22.472656 C 13.132812 22.546875 13.171875 22.617188 13.21875 22.644531 L 13.53125 22.828125 C 13.558594 22.847656 13.59375 22.847656 13.625 22.839844 C 13.660156 22.832031 13.6875 22.8125 13.703125 22.78125 L 14.277344 21.804688 C 14.289062 21.785156 14.292969 21.761719 14.292969 21.742188 C 14.292969 21.695312 14.265625 21.652344 14.234375 21.632812 M 13.578125 22.6875 C 13.554688 22.671875 13.34375 22.550781 13.320312 22.535156 L 13.871094 21.589844 L 14.132812 21.742188 C 14.117188 21.769531 13.597656 22.660156 13.578125 22.6875 Z M 13.578125 22.6875 "/>
<path style=" stroke:none;fill-rule:nonzero;fill:rgb(100%,100%,100%);fill-opacity:1;" d="M 15.230469 22.085938 L 14.816406 21.921875 L 14.808594 21.941406 L 14.308594 23.214844 L 14.453125 23.269531 C 14.453125 23.269531 14.894531 22.144531 14.90625 22.113281 L 15.160156 22.214844 L 15.003906 22.613281 C 14.976562 22.601562 14.78125 22.527344 14.78125 22.527344 L 14.746094 22.546875 L 14.730469 23.378906 L 14.886719 23.441406 C 14.886719 23.441406 14.902344 22.777344 14.902344 22.730469 L 14.972656 22.757812 C 15.035156 22.78125 15.113281 22.761719 15.144531 22.683594 L 15.3125 22.257812 C 15.339844 22.179688 15.308594 22.117188 15.230469 22.085938 Z M 15.230469 22.085938 "/>
<path style=" stroke:none;fill-rule:nonzero;fill:rgb(100%,100%,100%);fill-opacity:1;" d="M 15.730469 22.25 L 15.695312 22.390625 C 15.695312 22.390625 15.871094 22.429688 15.898438 22.4375 C 15.890625 22.46875 15.613281 23.644531 15.613281 23.644531 L 15.765625 23.679688 C 15.765625 23.679688 16.039062 22.503906 16.046875 22.472656 L 16.25 22.519531 L 16.28125 22.378906 Z M 15.730469 22.25 "/>
<path style=" stroke:none;fill-rule:nonzero;fill:rgb(100%,100%,100%);fill-opacity:1;" d="M 16.722656 22.441406 L 16.71875 22.457031 L 16.5625 23.820312 L 16.714844 23.835938 L 16.875 22.460938 Z M 16.722656 22.441406 "/>
<path style=" stroke:none;fill-rule:nonzero;fill:rgb(100%,100%,100%);fill-opacity:1;" d="M 17.773438 22.496094 C 17.773438 22.496094 17.660156 23.230469 17.636719 23.398438 C 17.605469 23.230469 17.484375 22.496094 17.484375 22.496094 L 17.324219 22.496094 L 17.328125 22.519531 L 17.574219 23.882812 L 17.695312 23.882812 L 17.929688 22.496094 Z M 17.773438 22.496094 "/>
<path style=" stroke:none;fill-rule:nonzero;fill:rgb(100%,100%,100%);fill-opacity:1;" d="M 19.15625 23.617188 L 18.984375 22.496094 C 18.980469 22.460938 18.964844 22.433594 18.9375 22.414062 C 18.910156 22.394531 18.875 22.386719 18.84375 22.390625 L 18.484375 22.445312 C 18.433594 22.453125 18.367188 22.503906 18.382812 22.585938 L 18.550781 23.707031 C 18.5625 23.789062 18.640625 23.824219 18.691406 23.8125 L 19.054688 23.757812 C 19.082031 23.753906 19.113281 23.738281 19.132812 23.710938 C 19.148438 23.6875 19.15625 23.660156 19.15625 23.632812 L 19.15625 23.617188 M 18.703125 23.664062 C 18.695312 23.632812 18.542969 22.617188 18.535156 22.582031 C 18.566406 22.578125 18.804688 22.542969 18.835938 22.539062 C 18.839844 22.570312 18.996094 23.585938 19 23.621094 Z M 18.703125 23.664062 "/>
<path style=" stroke:none;fill-rule:nonzero;fill:rgb(100%,100%,100%);fill-opacity:1;" d="M 21.296875 22.890625 L 21.140625 22.546875 L 21 22.613281 C 21 22.613281 21.136719 22.910156 21.148438 22.9375 C 21.121094 22.949219 20.9375 23.035156 20.910156 23.046875 C 20.898438 23.015625 20.472656 22.082031 20.457031 22.050781 L 20.695312 21.941406 L 20.8125 22.199219 L 20.953125 22.136719 L 20.828125 21.863281 C 20.800781 21.796875 20.726562 21.769531 20.664062 21.796875 L 20.367188 21.929688 C 20.304688 21.957031 20.28125 22.035156 20.308594 22.097656 L 20.777344 23.128906 C 20.792969 23.160156 20.816406 23.183594 20.847656 23.195312 C 20.882812 23.207031 20.914062 23.203125 20.949219 23.1875 L 21.238281 23.058594 C 21.300781 23.027344 21.328125 22.957031 21.296875 22.890625 Z M 21.296875 22.890625 "/>
<path style=" stroke:none;fill-rule:nonzero;fill:rgb(100%,100%,100%);fill-opacity:1;" d="M 22.339844 22.417969 L 22.46875 22.332031 L 21.703125 21.175781 L 21.691406 21.1875 L 21.574219 21.261719 L 21.902344 21.753906 L 21.660156 21.914062 C 21.640625 21.886719 21.332031 21.421875 21.332031 21.421875 L 21.203125 21.507812 L 21.96875 22.664062 L 22.097656 22.578125 C 22.097656 22.578125 21.757812 22.066406 21.742188 22.039062 C 21.765625 22.023438 21.960938 21.894531 21.984375 21.878906 C 22 21.90625 22.339844 22.417969 22.339844 22.417969 Z M 22.339844 22.417969 "/>
<path style=" stroke:none;fill-rule:nonzero;fill:rgb(100%,100%,100%);fill-opacity:1;" d="M 22.246094 20.730469 L 22.230469 20.742188 L 22.128906 20.835938 L 23.039062 21.878906 L 23.15625 21.777344 Z M 22.246094 20.730469 "/>
<path style=" stroke:none;fill-rule:nonzero;fill:rgb(100%,100%,100%);fill-opacity:1;" d="M 22.984375 19.976562 L 22.96875 19.996094 L 22.878906 20.09375 C 22.878906 20.09375 23.347656 20.671875 23.453125 20.804688 C 23.308594 20.710938 22.683594 20.308594 22.683594 20.308594 L 22.578125 20.425781 L 23.769531 21.175781 L 23.851562 21.085938 Z M 22.984375 19.976562 "/>
<path style=" stroke:none;fill-rule:nonzero;fill:rgb(100%,100%,100%);fill-opacity:1;" d="M 24.632812 20.066406 L 24.722656 19.933594 L 23.414062 19.390625 L 23.40625 19.402344 L 23.339844 19.5 L 24.316406 20.527344 L 24.402344 20.402344 C 24.402344 20.402344 24.222656 20.210938 24.207031 20.195312 C 24.21875 20.171875 24.355469 19.976562 24.367188 19.957031 C 24.390625 19.96875 24.632812 20.066406 24.632812 20.066406 M 24.101562 20.082031 C 24.074219 20.058594 23.78125 19.746094 23.722656 19.683594 C 23.800781 19.71875 24.191406 19.886719 24.226562 19.898438 Z M 24.101562 20.082031 "/>
<path style=" stroke:none;fill-rule:nonzero;fill:rgb(100%,100%,100%);fill-opacity:1;" d="M 25.136719 18.871094 L 24.820312 18.714844 C 24.78125 18.695312 24.742188 18.703125 24.699219 18.714844 C 24.699219 18.714844 24.238281 18.808594 24.207031 18.816406 C 24.199219 18.8125 24.007812 18.71875 23.984375 18.707031 L 24.070312 18.523438 C 24.097656 18.539062 24.320312 18.644531 24.320312 18.644531 L 24.386719 18.507812 L 24.125 18.378906 C 24.089844 18.359375 24.054688 18.359375 24.023438 18.371094 C 23.992188 18.378906 23.96875 18.398438 23.953125 18.433594 L 23.835938 18.675781 C 23.820312 18.703125 23.820312 18.738281 23.832031 18.765625 C 23.84375 18.800781 23.867188 18.824219 23.894531 18.84375 L 24.15625 18.96875 C 24.1875 18.980469 24.210938 18.976562 24.238281 18.972656 L 24.246094 18.972656 C 24.25 18.972656 24.738281 18.875 24.769531 18.867188 C 24.777344 18.871094 25.027344 18.992188 25.054688 19.007812 C 25.042969 19.03125 24.976562 19.164062 24.964844 19.1875 C 24.9375 19.175781 24.648438 19.035156 24.648438 19.035156 L 24.582031 19.175781 L 24.914062 19.335938 C 24.988281 19.371094 25.058594 19.335938 25.085938 19.28125 L 25.203125 19.039062 C 25.230469 18.972656 25.207031 18.902344 25.136719 18.871094 Z M 25.136719 18.871094 "/>
<path style=" stroke:none;fill-rule:nonzero;fill:rgb(100%,100%,100%);fill-opacity:1;" d="M 25.769531 16.703125 L 24.53125 16.476562 L 24.527344 16.496094 L 24.503906 16.628906 C 24.503906 16.628906 25.691406 16.847656 25.726562 16.851562 C 25.71875 16.878906 25.679688 17.101562 25.675781 17.128906 C 25.640625 17.125 24.453125 16.910156 24.453125 16.910156 L 24.425781 17.058594 L 25.664062 17.285156 C 25.703125 17.292969 25.734375 17.285156 25.761719 17.265625 C 25.789062 17.25 25.804688 17.222656 25.8125 17.1875 L 25.875 16.847656 C 25.878906 16.8125 25.875 16.78125 25.855469 16.753906 C 25.835938 16.730469 25.804688 16.710938 25.769531 16.703125 Z M 25.769531 16.703125 "/>
<path style=" stroke:none;fill-rule:nonzero;fill:rgb(100%,100%,100%);fill-opacity:1;" d="M 25.851562 15.496094 L 25.5 15.484375 C 25.453125 15.484375 25.421875 15.503906 25.386719 15.53125 C 25.386719 15.53125 25.007812 15.808594 24.980469 15.828125 L 24.730469 15.820312 L 24.738281 15.617188 C 24.765625 15.617188 25.015625 15.625 25.015625 15.625 L 25.019531 15.472656 L 24.726562 15.460938 C 24.6875 15.460938 24.652344 15.472656 24.628906 15.496094 C 24.605469 15.515625 24.59375 15.546875 24.59375 15.582031 L 24.585938 15.851562 C 24.582031 15.917969 24.636719 15.976562 24.707031 15.976562 L 24.996094 15.984375 C 25.03125 15.988281 25.050781 15.972656 25.074219 15.957031 L 25.082031 15.953125 C 25.082031 15.949219 25.488281 15.660156 25.511719 15.644531 L 25.832031 15.652344 L 25.824219 15.855469 C 25.792969 15.855469 25.472656 15.84375 25.472656 15.84375 L 25.46875 16 L 25.839844 16.011719 C 25.921875 16.011719 25.96875 15.949219 25.972656 15.890625 L 25.976562 15.621094 C 25.980469 15.550781 25.925781 15.496094 25.851562 15.496094 Z M 25.851562 15.496094 "/>
<path style=" stroke:none;fill-rule:nonzero;fill:rgb(100%,100%,100%);fill-opacity:1;" d="M 25.945312 14.726562 L 25.65625 14.703125 C 25.652344 14.675781 25.625 14.441406 25.625 14.417969 L 25.898438 14.324219 L 25.878906 14.164062 L 25.859375 14.171875 L 24.535156 14.617188 L 24.550781 14.75 L 25.960938 14.882812 L 25.945312 14.726562 M 24.957031 14.636719 C 25.039062 14.609375 25.445312 14.476562 25.480469 14.464844 L 25.507812 14.6875 C 25.46875 14.683594 25.042969 14.644531 24.957031 14.636719 Z M 24.957031 14.636719 "/>
<path style=" stroke:none;fill-rule:nonzero;fill:rgb(10.980392%,25.490196%,53.72549%);fill-opacity:1;" d="M 24.167969 23.164062 L 24.316406 23.164062 L 24.316406 23.546875 L 24.390625 23.546875 L 24.390625 23.164062 L 24.539062 23.164062 L 24.539062 23.097656 L 24.167969 23.097656 Z M 24.167969 23.164062 "/>
<path style=" stroke:none;fill-rule:nonzero;fill:rgb(10.980392%,25.490196%,53.72549%);fill-opacity:1;" d="M 24.921875 23.097656 L 24.8125 23.457031 L 24.699219 23.097656 L 24.589844 23.097656 L 24.589844 23.546875 L 24.65625 23.546875 L 24.65625 23.164062 L 24.773438 23.546875 L 24.847656 23.546875 L 24.964844 23.167969 L 24.964844 23.546875 L 25.03125 23.546875 L 25.03125 23.097656 Z M 24.921875 23.097656 "/>
<path style=" stroke:none;fill-rule:nonzero;fill:rgb(95.294118%,40.392157%,9.019608%);fill-opacity:1;" d="M 17.761719 13.976562 L 17.761719 11.753906 L 17.449219 11.753906 L 17.449219 13.976562 C 17.449219 13.976562 17.449219 14.351562 17.105469 14.894531 C 17.105469 14.894531 17.3125 15.054688 17.605469 15.054688 C 17.898438 15.054688 18.105469 14.894531 18.105469 14.894531 C 17.761719 14.351562 17.761719 13.976562 17.761719 13.976562 Z M 17.761719 13.976562 "/>
<path style=" stroke:none;fill-rule:nonzero;fill:rgb(10.980392%,25.490196%,53.72549%);fill-opacity:1;" d="M 11.429688 4.617188 C 10.960938 5.128906 10.746094 5.683594 10.746094 6.359375 C 10.746094 6.753906 10.867188 7.421875 11.457031 8.375 L 12.453125 9.984375 C 12.652344 10.308594 12.722656 10.726562 12.722656 11.011719 C 12.722656 11.117188 12.707031 11.214844 12.695312 11.308594 C 12.679688 11.402344 12.664062 11.5 12.664062 11.601562 C 12.664062 11.914062 12.785156 12.136719 12.996094 12.234375 C 13.015625 12.484375 13.117188 12.734375 13.363281 12.816406 C 13.355469 12.890625 13.347656 12.976562 13.347656 13.074219 C 13.347656 13.375 13.402344 13.75 13.617188 14.011719 L 13.683594 14.089844 L 13.769531 14.039062 C 14.027344 13.886719 14.328125 13.449219 14.328125 12.714844 C 14.328125 11.371094 13.414062 9.804688 13.132812 9.359375 L 12.109375 7.726562 C 11.800781 7.230469 11.734375 6.773438 11.734375 6.480469 C 11.734375 5.742188 12.261719 4.945312 13.113281 4.945312 C 13.730469 4.945312 14.0625 5.347656 14.0625 5.640625 C 14.0625 5.785156 13.957031 6.179688 13.613281 6.179688 C 13.382812 6.179688 13.21875 6.019531 13.21875 5.796875 C 13.21875 5.726562 13.238281 5.609375 13.292969 5.492188 L 13.398438 5.269531 L 13.160156 5.328125 C 12.460938 5.492188 12.105469 5.878906 12.105469 6.476562 C 12.105469 6.941406 12.292969 7.292969 12.707031 7.613281 C 12.703125 7.648438 12.703125 7.6875 12.703125 7.730469 C 12.703125 7.921875 12.742188 8.175781 12.914062 8.375 C 13.082031 8.558594 13.324219 8.648438 13.644531 8.644531 L 13.851562 8.640625 L 13.742188 8.464844 C 13.601562 8.242188 13.53125 8.042969 13.53125 7.890625 C 13.53125 7.820312 13.550781 7.761719 13.578125 7.714844 C 14.238281 7.664062 14.703125 7.34375 14.863281 6.839844 L 15.214844 7.113281 L 15.289062 7.046875 C 15.457031 6.890625 15.5 6.671875 15.5 6.476562 C 15.5 6.457031 15.5 6.433594 15.496094 6.414062 L 15.886719 6.605469 L 15.910156 6.445312 C 15.921875 6.351562 15.929688 6.257812 15.929688 6.164062 C 15.929688 5.84375 15.839844 5.558594 15.675781 5.34375 C 15.84375 5.1875 15.941406 4.96875 15.941406 4.734375 L 15.941406 4.71875 L 15.9375 4.59375 L 15.8125 4.605469 C 15.257812 4.660156 14.855469 4.5 14.429688 4.332031 C 14.011719 4.164062 13.578125 3.992188 12.953125 3.992188 C 12.320312 3.992188 11.808594 4.203125 11.429688 4.617188 Z M 11.429688 4.617188 "/>
<path style=" stroke:none;fill-rule:nonzero;fill:rgb(98.431373%,73.72549%,3.529412%);fill-opacity:1;" d="M 13.585938 13.074219 C 13.585938 12.929688 13.597656 12.804688 13.605469 12.738281 L 13.625 12.617188 L 13.5 12.605469 C 13.25 12.582031 13.230469 12.265625 13.230469 12.160156 L 13.230469 12.0625 L 13.140625 12.039062 C 12.929688 11.980469 12.898438 11.742188 12.898438 11.601562 C 12.898438 11.519531 12.914062 11.433594 12.925781 11.34375 C 12.941406 11.242188 12.957031 11.132812 12.957031 11.011719 C 12.957031 10.695312 12.878906 10.226562 12.652344 9.859375 L 11.65625 8.25 C 11.070312 7.300781 10.980469 6.65625 10.980469 6.359375 C 10.980469 5.738281 11.171875 5.246094 11.601562 4.777344 C 11.941406 4.40625 12.382812 4.226562 12.953125 4.226562 C 13.53125 4.226562 13.945312 4.390625 14.34375 4.550781 C 14.742188 4.710938 15.152344 4.871094 15.691406 4.847656 C 15.664062 5 15.574219 5.140625 15.4375 5.234375 L 15.320312 5.3125 L 15.421875 5.414062 C 15.601562 5.589844 15.695312 5.855469 15.695312 6.164062 C 15.695312 6.191406 15.691406 6.21875 15.6875 6.246094 L 15.191406 5.996094 L 15.238281 6.234375 C 15.25 6.289062 15.265625 6.378906 15.265625 6.476562 C 15.265625 6.585938 15.246094 6.703125 15.191406 6.792969 L 14.710938 6.417969 L 14.679688 6.617188 C 14.597656 7.128906 14.15625 7.453125 13.503906 7.488281 L 13.449219 7.488281 L 13.417969 7.527344 C 13.367188 7.585938 13.296875 7.703125 13.296875 7.890625 C 13.296875 8.023438 13.332031 8.1875 13.433594 8.394531 C 13.289062 8.367188 13.171875 8.308594 13.09375 8.21875 C 12.964844 8.074219 12.9375 7.882812 12.9375 7.734375 C 12.9375 7.671875 12.941406 7.617188 12.949219 7.578125 L 12.957031 7.507812 L 12.902344 7.46875 C 12.507812 7.179688 12.339844 6.882812 12.339844 6.476562 C 12.339844 6.058594 12.558594 5.777344 13.003906 5.617188 C 12.988281 5.679688 12.980469 5.742188 12.980469 5.800781 C 12.980469 6.152344 13.253906 6.417969 13.613281 6.417969 C 14.125 6.417969 14.296875 5.882812 14.296875 5.640625 C 14.296875 5.191406 13.84375 4.707031 13.113281 4.707031 C 12.117188 4.707031 11.5 5.628906 11.5 6.480469 C 11.5 6.804688 11.570312 7.304688 11.910156 7.851562 L 12.933594 9.484375 C 13.203125 9.917969 14.089844 11.433594 14.089844 12.714844 C 14.089844 13.230469 13.925781 13.597656 13.734375 13.769531 C 13.617188 13.566406 13.585938 13.292969 13.585938 13.074219 Z M 13.585938 13.074219 "/>
<path style=" stroke:none;fill-rule:nonzero;fill:rgb(10.980392%,25.490196%,53.72549%);fill-opacity:1;" d="M 22.257812 3.992188 C 21.636719 3.992188 21.199219 4.164062 20.78125 4.332031 C 20.355469 4.5 19.957031 4.660156 19.398438 4.605469 L 19.273438 4.59375 L 19.269531 4.71875 L 19.269531 4.734375 C 19.269531 4.96875 19.367188 5.1875 19.539062 5.34375 C 19.371094 5.558594 19.28125 5.84375 19.28125 6.164062 C 19.28125 6.257812 19.289062 6.351562 19.300781 6.445312 L 19.328125 6.605469 L 19.714844 6.414062 C 19.710938 6.433594 19.710938 6.457031 19.710938 6.480469 C 19.710938 6.671875 19.757812 6.890625 19.921875 7.046875 L 19.996094 7.113281 L 20.347656 6.839844 C 20.507812 7.34375 20.972656 7.664062 21.632812 7.714844 C 21.660156 7.761719 21.679688 7.820312 21.679688 7.890625 C 21.679688 8.042969 21.609375 8.242188 21.46875 8.464844 L 21.359375 8.640625 L 21.566406 8.644531 C 21.886719 8.648438 22.132812 8.558594 22.296875 8.375 C 22.472656 8.175781 22.507812 7.921875 22.507812 7.730469 C 22.507812 7.6875 22.507812 7.648438 22.503906 7.613281 C 22.917969 7.292969 23.105469 6.941406 23.105469 6.476562 C 23.105469 5.882812 22.75 5.492188 22.050781 5.328125 L 21.8125 5.269531 L 21.917969 5.492188 C 21.972656 5.609375 21.996094 5.726562 21.996094 5.800781 C 21.996094 6.019531 21.828125 6.179688 21.597656 6.179688 C 21.253906 6.179688 21.148438 5.785156 21.148438 5.640625 C 21.148438 5.347656 21.480469 4.945312 22.097656 4.945312 C 22.949219 4.945312 23.476562 5.742188 23.476562 6.480469 C 23.476562 6.773438 23.410156 7.230469 23.101562 7.726562 L 22.078125 9.359375 C 21.796875 9.804688 20.882812 11.371094 20.882812 12.714844 C 20.882812 13.449219 21.183594 13.886719 21.441406 14.039062 L 21.527344 14.089844 L 21.59375 14.011719 C 21.808594 13.75 21.863281 13.375 21.863281 13.074219 C 21.863281 12.976562 21.855469 12.890625 21.851562 12.816406 C 22.09375 12.734375 22.195312 12.484375 22.214844 12.234375 C 22.425781 12.140625 22.546875 11.914062 22.546875 11.601562 C 22.546875 11.5 22.53125 11.402344 22.519531 11.308594 C 22.503906 11.214844 22.488281 11.117188 22.488281 11.011719 C 22.488281 10.726562 22.558594 10.308594 22.757812 9.984375 L 23.753906 8.375 C 24.34375 7.425781 24.464844 6.753906 24.464844 6.359375 C 24.464844 5.683594 24.25 5.128906 23.78125 4.617188 C 23.402344 4.203125 22.890625 3.992188 22.257812 3.992188 Z M 22.257812 3.992188 "/>
<path style=" stroke:none;fill-rule:nonzero;fill:rgb(98.431373%,73.72549%,3.529412%);fill-opacity:1;" d="M 21.476562 13.769531 C 21.285156 13.597656 21.121094 13.230469 21.121094 12.714844 C 21.121094 11.433594 22.007812 9.917969 22.277344 9.484375 L 23.300781 7.851562 C 23.640625 7.304688 23.710938 6.804688 23.710938 6.480469 C 23.710938 5.628906 23.09375 4.707031 22.097656 4.707031 C 21.367188 4.707031 20.914062 5.191406 20.914062 5.640625 C 20.914062 5.882812 21.085938 6.417969 21.597656 6.417969 C 21.957031 6.417969 22.230469 6.152344 22.230469 5.796875 C 22.230469 5.742188 22.222656 5.679688 22.207031 5.617188 C 22.652344 5.777344 22.871094 6.058594 22.871094 6.476562 C 22.871094 6.882812 22.703125 7.179688 22.3125 7.46875 L 22.253906 7.507812 L 22.261719 7.578125 C 22.269531 7.617188 22.273438 7.671875 22.273438 7.734375 C 22.273438 7.882812 22.246094 8.074219 22.121094 8.21875 C 22.039062 8.308594 21.921875 8.367188 21.78125 8.390625 C 21.878906 8.1875 21.914062 8.023438 21.914062 7.890625 C 21.914062 7.703125 21.84375 7.585938 21.792969 7.527344 L 21.761719 7.488281 L 21.710938 7.488281 C 21.054688 7.453125 20.613281 7.128906 20.53125 6.613281 L 20.5 6.417969 L 20.019531 6.792969 C 19.964844 6.699219 19.945312 6.585938 19.945312 6.476562 C 19.945312 6.378906 19.960938 6.289062 19.972656 6.234375 L 20.019531 5.996094 L 19.523438 6.246094 C 19.519531 6.21875 19.515625 6.191406 19.515625 6.164062 C 19.515625 5.855469 19.609375 5.589844 19.789062 5.414062 L 19.890625 5.3125 L 19.773438 5.230469 C 19.636719 5.140625 19.550781 5 19.519531 4.847656 C 20.058594 4.871094 20.472656 4.710938 20.867188 4.550781 C 21.265625 4.390625 21.679688 4.226562 22.257812 4.226562 C 22.828125 4.226562 23.269531 4.40625 23.609375 4.777344 C 24.039062 5.246094 24.230469 5.734375 24.230469 6.359375 C 24.230469 6.65625 24.144531 7.300781 23.554688 8.25 L 22.558594 9.859375 C 22.332031 10.226562 22.253906 10.695312 22.253906 11.011719 C 22.253906 11.132812 22.269531 11.242188 22.285156 11.34375 C 22.296875 11.433594 22.3125 11.519531 22.3125 11.601562 C 22.3125 11.742188 22.28125 11.980469 22.070312 12.039062 L 21.980469 12.0625 L 21.980469 12.160156 C 21.980469 12.265625 21.960938 12.582031 21.710938 12.605469 L 21.589844 12.617188 L 21.605469 12.738281 C 21.613281 12.804688 21.625 12.929688 21.625 13.074219 C 21.625 13.292969 21.597656 13.566406 21.476562 13.769531 Z M 21.476562 13.769531 "/>
<path style=" stroke:none;fill-rule:nonzero;fill:rgb(10.980392%,25.490196%,53.72549%);fill-opacity:1;" d="M 19.3125 7.140625 C 19.183594 6.609375 18.785156 6.414062 18.785156 6.414062 C 18.875 6.171875 18.675781 6.019531 18.644531 6 C 19.003906 5.699219 19.234375 5.246094 19.234375 4.742188 C 19.234375 4.425781 19.144531 4.128906 18.988281 3.878906 C 19.34375 3.6875 19.664062 3.273438 19.664062 2.71875 C 19.664062 1.976562 19.058594 1.667969 18.707031 1.59375 L 18.671875 1.585938 C 18.691406 1.515625 18.703125 1.441406 18.703125 1.363281 L 18.703125 0.792969 C 18.703125 0.640625 18.632812 0.476562 18.519531 0.363281 C 18.320312 0.164062 17.945312 0.0351562 17.492188 0 L 17.492188 1 C 16.351562 1.445312 16.089844 2.152344 16.074219 2.675781 L 16.921875 2.4375 C 16.800781 2.773438 16.792969 3.164062 16.8125 3.320312 C 16.3125 3.597656 15.976562 4.128906 15.976562 4.742188 C 15.976562 5.25 16.207031 5.699219 16.566406 6 C 16.535156 6.019531 16.335938 6.171875 16.425781 6.414062 C 16.425781 6.414062 16.027344 6.609375 15.898438 7.140625 C 15.898438 7.140625 15.136719 7.324219 15.066406 7.707031 L 17.601562 8.695312 L 17.609375 8.695312 L 20.144531 7.707031 C 20.074219 7.324219 19.3125 7.140625 19.3125 7.140625 Z M 19.3125 7.140625 "/>
<path style=" stroke:none;fill-rule:nonzero;fill:rgb(78.431373%,78.039216%,78.039216%);fill-opacity:1;" d="M 18.414062 6.09375 C 18.03125 6.347656 17.609375 6.355469 17.609375 6.355469 L 17.601562 6.355469 C 17.601562 6.355469 17.179688 6.347656 16.800781 6.09375 C 16.800781 6.09375 16.632812 6.210938 16.679688 6.355469 C 16.679688 6.355469 17.257812 6.550781 17.601562 6.804688 L 17.609375 6.804688 C 17.953125 6.550781 18.53125 6.355469 18.53125 6.355469 C 18.578125 6.210938 18.414062 6.09375 18.414062 6.09375 Z M 18.414062 6.09375 "/>
<path style=" stroke:none;fill-rule:nonzero;fill:rgb(78.431373%,78.039216%,78.039216%);fill-opacity:1;" d="M 18.597656 6.582031 C 18.148438 6.679688 17.609375 7.109375 17.609375 7.109375 L 17.601562 7.109375 C 17.601562 7.109375 17.0625 6.679688 16.613281 6.582031 C 16.613281 6.582031 16.210938 6.816406 16.132812 7.207031 C 16.132812 7.207031 16.972656 7.675781 17.601562 7.675781 L 17.609375 7.675781 C 18.238281 7.675781 19.078125 7.207031 19.078125 7.207031 C 19 6.816406 18.597656 6.582031 18.597656 6.582031 Z M 18.597656 6.582031 "/>
<path style=" stroke:none;fill-rule:nonzero;fill:rgb(78.431373%,78.039216%,78.039216%);fill-opacity:1;" d="M 18.910156 7.550781 C 18.25 7.875 17.660156 7.925781 17.605469 7.929688 C 17.550781 7.925781 16.960938 7.875 16.300781 7.550781 C 16.300781 7.550781 15.878906 7.421875 15.566406 7.589844 L 17.601562 8.410156 L 17.609375 8.410156 L 19.644531 7.589844 C 19.332031 7.421875 18.910156 7.550781 18.910156 7.550781 Z M 18.910156 7.550781 "/>
<path style=" stroke:none;fill-rule:nonzero;fill:rgb(78.431373%,78.039216%,78.039216%);fill-opacity:1;" d="M 19 4.617188 C 18.148438 4.558594 17.609375 4.066406 17.609375 4.066406 L 17.601562 4.066406 C 17.601562 4.066406 17.0625 4.558594 16.210938 4.617188 C 16.210938 4.617188 16.171875 4.96875 16.269531 5.152344 C 16.269531 5.152344 16.839844 5.027344 17.601562 5.386719 L 17.609375 5.386719 C 18.375 5.027344 18.941406 5.152344 18.941406 5.152344 C 19.039062 4.96875 19 4.617188 19 4.617188 Z M 19 4.617188 "/>
<path style=" stroke:none;fill-rule:nonzero;fill:rgb(78.431373%,78.039216%,78.039216%);fill-opacity:1;" d="M 17.609375 5.75 L 17.601562 5.75 C 17.199219 5.367188 16.445312 5.398438 16.445312 5.398438 C 16.445312 5.398438 16.691406 5.964844 17.601562 6.132812 L 17.609375 6.132812 C 18.519531 5.964844 18.765625 5.398438 18.765625 5.398438 C 18.765625 5.398438 18.011719 5.367188 17.609375 5.75 Z M 17.609375 5.75 "/>
<path style=" stroke:none;fill-rule:nonzero;fill:rgb(78.431373%,78.039216%,78.039216%);fill-opacity:1;" d="M 17.621094 3.765625 C 17.621094 3.765625 18.246094 4.300781 18.929688 4.332031 C 18.929688 4.332031 18.65625 3.441406 17.609375 3.441406 L 17.601562 3.441406 C 16.554688 3.441406 16.28125 4.332031 16.28125 4.332031 C 16.964844 4.300781 17.589844 3.765625 17.589844 3.765625 Z M 17.621094 3.765625 "/>
<path style=" stroke:none;fill-rule:nonzero;fill:rgb(100%,100%,100%);fill-opacity:1;" d="M 18.378906 0.503906 C 18.246094 0.367188 17.996094 0.269531 17.6875 0.222656 L 17.6875 1.136719 C 16.769531 1.464844 16.410156 1.945312 16.304688 2.40625 L 18.105469 1.894531 C 18.453125 1.796875 18.503906 1.519531 18.503906 1.363281 L 18.503906 0.792969 C 18.503906 0.695312 18.457031 0.578125 18.378906 0.503906 Z M 18.378906 0.503906 "/>
<path style=" stroke:none;fill-rule:nonzero;fill:rgb(89.019608%,10.588235%,13.333333%);fill-opacity:1;" d="M 17.738281 1.203125 C 17.027344 1.449219 16.582031 1.820312 16.417969 2.289062 L 18.082031 1.820312 C 18.367188 1.738281 18.425781 1.527344 18.425781 1.363281 L 18.425781 0.832031 C 18.316406 0.984375 18.035156 1.101562 17.738281 1.203125 Z M 17.738281 1.203125 "/>
<path style=" stroke:none;fill-rule:nonzero;fill:rgb(89.019608%,10.588235%,13.333333%);fill-opacity:1;" d="M 17.769531 0.316406 L 17.769531 1.109375 C 17.980469 1.035156 18.355469 0.890625 18.394531 0.722656 C 18.398438 0.695312 18.394531 0.664062 18.378906 0.632812 C 18.363281 0.605469 18.347656 0.578125 18.324219 0.558594 C 18.214844 0.449219 18.015625 0.363281 17.769531 0.316406 Z M 17.769531 0.316406 "/>
<path style=" stroke:none;fill-rule:nonzero;fill:rgb(78.431373%,78.039216%,78.039216%);fill-opacity:1;" d="M 18.613281 1.765625 L 18.660156 1.777344 C 18.75 1.796875 19.46875 1.972656 19.472656 2.710938 C 18.925781 2.769531 18.621094 3.011719 18.390625 3.363281 C 18.1875 3.25 17.953125 3.175781 17.707031 3.160156 C 17.875 2.566406 18.160156 2.128906 18.613281 1.765625 Z M 18.613281 1.765625 "/>
<path style=" stroke:none;fill-rule:nonzero;fill:rgb(78.431373%,78.039216%,78.039216%);fill-opacity:1;" d="M 16.996094 3.160156 C 16.996094 2.988281 17.023438 2.71875 17.105469 2.488281 L 17.152344 2.371094 L 17.992188 2.132812 C 17.773438 2.421875 17.617188 2.757812 17.511719 3.160156 C 17.332031 3.171875 17.160156 3.210938 17 3.277344 C 16.996094 3.246094 16.996094 3.207031 16.996094 3.160156 Z M 16.996094 3.160156 "/>
<path style=" stroke:none;fill-rule:nonzero;fill:rgb(78.431373%,78.039216%,78.039216%);fill-opacity:1;" d="M 18.550781 3.46875 C 18.75 3.15625 19 2.957031 19.460938 2.902344 C 19.398438 3.308594 19.140625 3.582031 18.894531 3.714844 L 18.835938 3.742188 C 18.753906 3.640625 18.65625 3.546875 18.550781 3.46875 Z M 18.550781 3.46875 "/>
</g>
</svg>
