<?xml version="1.0" encoding="UTF-8"?>
<svg xmlns="http://www.w3.org/2000/svg" xmlns:xlink="http://www.w3.org/1999/xlink" width="35pt" height="25pt" viewBox="0 0 35 25" version="1.1">
<g id="surface1">
<path style=" stroke:none;fill-rule:nonzero;fill:rgb(13.72549%,12.156863%,12.54902%);fill-opacity:1;" d="M 17.90625 25 C 16.398438 24.292969 14.8125 23.464844 13.210938 22.53125 C 11.480469 21.523438 9.886719 20.484375 8.472656 19.457031 C 8.242188 17.527344 8.046875 15.46875 7.882812 13.328125 C 7.554688 8.929688 7.445312 4.859375 7.523438 1.597656 C 9.855469 0.632812 13.648438 0 17.90625 0 C 22.175781 0 25.964844 0.628906 28.296875 1.597656 C 28.378906 4.859375 28.261719 8.929688 27.9375 13.328125 C 27.777344 15.46875 27.578125 17.527344 27.351562 19.457031 C 25.9375 20.484375 24.335938 21.523438 22.613281 22.53125 C 21.011719 23.464844 19.421875 24.292969 17.90625 25 Z M 17.90625 25 "/>
<path style=" stroke:none;fill-rule:nonzero;fill:rgb(37.647059%,31.764706%,38.039216%);fill-opacity:1;" d="M 9.121094 17.050781 C 8.980469 15.652344 8.867188 14.3125 8.765625 12.914062 C 8.613281 12.867188 8.535156 12.738281 8.535156 12.683594 C 8.535156 12.628906 8.648438 12.515625 8.75 12.460938 C 8.632812 10.828125 8.535156 9.234375 8.480469 7.597656 C 10.652344 6.675781 14.085938 5.996094 17.917969 5.996094 C 21.753906 5.996094 25.167969 6.675781 27.339844 7.597656 C 27.296875 8.910156 27.234375 10.226562 27.148438 11.539062 C 27.234375 11.585938 27.296875 11.65625 27.324219 11.746094 C 27.390625 11.949219 27.292969 12.222656 27.089844 12.445312 C 26.988281 13.9375 26.859375 15.429688 26.710938 16.917969 C 26.105469 16.667969 25.917969 16.570312 24.9375 16.289062 C 24.941406 16.59375 24.976562 16.851562 24.941406 16.886719 C 24.636719 17.167969 24.175781 17.171875 24.019531 17.179688 C 23.972656 17.339844 24.019531 17.382812 24.285156 17.695312 C 24.433594 17.871094 24.414062 18.191406 24.363281 18.414062 C 24.320312 18.59375 24.273438 18.675781 24.234375 18.605469 C 24.183594 18.507812 24.390625 18.492188 24.316406 18.367188 C 24.289062 18.324219 24.113281 18.300781 24.089844 18.289062 C 23.9375 18.21875 24.3125 18.246094 24.25 18.105469 C 24.210938 18.011719 24.09375 18.257812 24.042969 18.117188 C 24 17.984375 23.890625 17.863281 23.515625 17.859375 C 23.421875 17.859375 23.15625 17.824219 22.894531 17.976562 C 23.078125 17.972656 23.484375 17.910156 23.742188 18.152344 C 23.992188 18.402344 24.054688 18.941406 24.058594 18.984375 C 24.078125 19.234375 24.214844 19.917969 24.074219 20.578125 C 23.800781 20.75 23.527344 20.921875 23.25 21.089844 C 22.882812 21.316406 22.507812 21.539062 22.132812 21.757812 C 22.070312 21.667969 21.992188 21.582031 21.890625 21.5 C 21.625 21.304688 22.445312 21.4375 22.433594 21.3125 C 22.398438 20.925781 21.613281 20.40625 21.109375 20.195312 C 20.820312 19.933594 22.171875 20.371094 22.554688 20.027344 C 22.722656 19.878906 22.507812 19.039062 22.089844 18.609375 C 22.027344 18.542969 21.980469 18.386719 22.054688 18.289062 C 22.1875 18.113281 22.417969 18.171875 22.527344 18.019531 C 22.609375 17.910156 22.457031 17.894531 22.765625 17.691406 C 22.714844 17.601562 22.621094 17.753906 22.488281 17.753906 C 22.308594 17.746094 21.914062 18 21.851562 18.089844 C 21.828125 17.882812 21.890625 17.761719 22.21875 17.558594 C 22.28125 17.523438 22.335938 17.425781 22.335938 17.335938 C 22.332031 17.296875 22.277344 17.324219 22.273438 17.292969 C 22.257812 17.214844 22.511719 17.121094 22.464844 17.046875 C 22.398438 16.945312 22 17.253906 21.984375 17.214844 C 21.949219 17.136719 22.421875 16.871094 22.628906 16.535156 C 22.695312 16.433594 22.6875 16.359375 22.660156 16.316406 C 22.585938 16.175781 21.988281 16.804688 21.953125 16.765625 C 21.867188 16.65625 22.964844 15.710938 22.894531 15.625 C 22.816406 15.535156 22.253906 16.195312 22.226562 16.160156 C 22.203125 16.128906 22.296875 16.058594 22.222656 16 C 22.191406 15.972656 22.136719 16.097656 22.097656 16.070312 C 22.015625 16.019531 22.277344 15.6875 22.242188 15.652344 C 22.082031 15.507812 21.714844 16.628906 21.632812 16.574219 C 21.566406 16.527344 22.082031 15.503906 22.160156 15.378906 C 22.1875 15.339844 22.058594 15.253906 22.03125 15.335938 C 21.933594 15.617188 21.570312 16.332031 21.53125 16.390625 C 21.46875 16.488281 21.398438 17.152344 21.335938 17.089844 C 21.261719 17.007812 21.5 16.308594 21.507812 16.125 C 21.511719 15.988281 21.566406 15.886719 21.476562 15.875 C 21.371094 15.863281 21.464844 15.566406 21.492188 15.476562 C 21.542969 15.289062 21.558594 14.992188 21.539062 14.914062 C 21.492188 14.769531 21.691406 14.746094 21.648438 14.660156 C 21.605469 14.574219 21.417969 14.382812 21.4375 14.503906 C 21.476562 14.746094 21.308594 14.785156 21.222656 14.984375 C 21.171875 15.113281 21.113281 15.324219 21.097656 15.679688 C 20.976562 15.597656 21 15.15625 21.058594 14.890625 C 21.105469 14.671875 21.222656 14.28125 21.171875 14.265625 C 21.03125 14.222656 21.066406 14.421875 20.933594 14.492188 C 20.867188 14.53125 20.890625 14.375 20.839844 14.359375 C 20.78125 14.335938 20.804688 14.46875 20.757812 14.4375 C 20.707031 14.398438 20.640625 14.332031 20.636719 14.65625 C 20.636719 14.714844 20.488281 14.730469 20.402344 15.417969 C 20.394531 15.488281 20.324219 15.398438 20.273438 15.863281 C 20.265625 15.917969 20.105469 15.898438 20.039062 16.324219 C 20.03125 16.359375 19.945312 16.421875 19.929688 16.550781 C 19.902344 16.785156 19.8125 16.925781 19.757812 16.941406 C 19.6875 16.265625 20.347656 14.628906 20.28125 13.867188 C 20.253906 13.855469 20.246094 13.890625 20.203125 13.867188 C 20.039062 14.394531 19.832031 14.691406 19.671875 15.242188 C 19.410156 15.738281 19.066406 16.519531 18.859375 17.078125 C 18.925781 16.613281 19.09375 16.1875 19.386719 15.636719 C 19.625 15.1875 19.871094 14.558594 20.085938 14 C 19.710938 14.210938 18.578125 15.652344 18.371094 15.988281 C 18.171875 16.304688 18.125 16.585938 18.046875 17.105469 C 18.027344 16.933594 18.023438 16.605469 18.140625 16.15625 C 18.320312 15.46875 18.683594 15.25 18.714844 15.003906 C 18.730469 14.878906 18.640625 14.820312 18.933594 14.65625 C 18.695312 14.628906 18.816406 14.449219 18.964844 14.410156 C 18.746094 14.230469 19.109375 14.042969 19.152344 14.023438 C 18.875 14.007812 18.359375 14.183594 18.328125 14.113281 C 18.210938 13.84375 18.304688 13.804688 18.289062 13.632812 C 18.277344 13.464844 18.167969 13.25 18.25 13.136719 C 18.398438 12.929688 18.980469 12.699219 19.214844 12.507812 C 19.222656 12.457031 18.988281 12.628906 18.976562 12.550781 C 18.960938 12.4375 18.859375 12.609375 18.765625 12.578125 C 18.5 12.492188 18.496094 12.277344 18.4375 12.199219 C 18.375 12.113281 18.234375 12.019531 18.304688 11.945312 C 18.339844 11.90625 18.523438 12.023438 18.53125 11.925781 C 18.566406 11.589844 18.34375 11.632812 18.347656 11.59375 C 18.375 11.367188 18.667969 11.574219 18.640625 11.488281 C 18.585938 11.316406 18.335938 11.457031 18.355469 11.238281 C 18.367188 11.097656 18.238281 10.851562 18.203125 10.855469 C 18.257812 10.359375 18.242188 9.996094 18.21875 9.578125 C 18.207031 9.433594 18.292969 9.453125 18.359375 9.535156 C 18.453125 9.648438 18.597656 9.488281 18.488281 9.738281 C 18.453125 9.816406 18.703125 10.191406 18.773438 10.253906 C 18.800781 10.28125 18.921875 10.246094 18.867188 10.160156 C 18.796875 10.046875 18.917969 10.136719 19.058594 10 C 19.183594 9.882812 19.121094 9.769531 19.207031 9.863281 C 19.25 9.910156 19.289062 9.964844 19.304688 9.910156 C 19.335938 9.785156 19.375 9.875 19.390625 9.816406 C 19.402344 9.78125 19.371094 9.703125 19.257812 9.621094 C 19.179688 9.5625 19.128906 9.460938 19.242188 9.445312 C 19.6875 9.378906 19.839844 9.71875 19.960938 10.582031 C 19.992188 9.925781 20.332031 9.894531 20.164062 10.695312 C 21.523438 10.171875 21.800781 9.386719 20.269531 8.863281 C 20.300781 8.363281 20.332031 7.769531 19.871094 7.253906 C 19.585938 6.925781 19.339844 6.796875 19.171875 6.398438 C 19.046875 6.511719 18.984375 6.679688 18.804688 6.628906 C 18.691406 6.59375 18.40625 6.289062 18.371094 6.222656 C 18.195312 6.269531 18.039062 6.304688 17.753906 6.625 C 17.277344 6.222656 17.261719 6.46875 17.132812 6.761719 C 15.882812 6.589844 15.589844 8.765625 15.546875 8.984375 C 13.601562 9.722656 15.121094 10.636719 15.714844 10.71875 C 16.195312 10.785156 15.765625 11.199219 16.234375 11.347656 C 16.453125 11.421875 16.394531 11.757812 16.375 12.1875 C 16.34375 12.902344 16.40625 13.65625 16.011719 13.589844 C 15.625 13.523438 15.59375 13.863281 15.140625 14.097656 C 14.863281 14.238281 14.070312 14.464844 13.691406 14.679688 C 13.621094 14.714844 13.632812 14.539062 13.558594 14.582031 C 13.480469 14.625 13.515625 14.707031 13.394531 14.777344 C 13.25 14.867188 13.078125 15.011719 12.921875 15.21875 C 12.621094 15.625 12.296875 15.882812 11.792969 15.867188 C 11.691406 15.867188 11.246094 15.859375 11.171875 15.597656 C 11.144531 15.511719 11.148438 15.363281 11.316406 15.355469 C 11.4375 15.351562 11.582031 15.558594 11.597656 15.5 C 11.628906 15.40625 11.628906 15.289062 11.460938 15.289062 C 11.410156 15.289062 11.304688 15.285156 11.300781 15.273438 C 11.269531 15.171875 11.304688 15.140625 11.34375 15.136719 C 11.402344 15.128906 11.273438 14.96875 11.382812 14.96875 C 11.492188 14.972656 11.777344 15.191406 11.796875 15.15625 C 11.84375 15.039062 11.75 14.921875 11.542969 14.785156 C 11.535156 14.867188 11.492188 14.894531 11.351562 14.808594 C 11.28125 14.765625 11.117188 14.75 11.160156 14.542969 C 11.179688 14.453125 11.1875 14.328125 11.246094 14.394531 C 11.300781 14.460938 11.394531 14.511719 11.480469 14.429688 C 11.558594 14.363281 11.601562 14.398438 11.648438 14.457031 C 11.867188 14.738281 11.78125 14.128906 11.746094 13.972656 C 11.695312 13.761719 11.660156 14.015625 11.570312 14.042969 C 11.515625 14.066406 11.496094 14.160156 11.5 14.238281 C 11.507812 14.421875 11.390625 14.328125 11.359375 14.296875 C 11.28125 14.222656 11.234375 14.167969 11.15625 14.183594 C 11.054688 14.203125 11.128906 14.335938 11.027344 14.3125 C 11 14.074219 11.046875 13.832031 11.082031 13.667969 C 11.097656 13.601562 11.164062 13.25 11.242188 13.246094 C 11.332031 13.234375 11.289062 13.4375 11.558594 13.648438 C 11.757812 13.804688 12.097656 13.71875 12.242188 13.664062 C 12.421875 13.601562 12.269531 13.511719 12.445312 13.503906 C 12.59375 13.496094 12.496094 13.394531 12.414062 13.328125 C 12.355469 13.277344 12.351562 13.144531 12.460938 13.191406 C 12.558594 13.242188 12.671875 13.335938 12.640625 13.265625 C 12.589844 13.140625 12.839844 13.15625 12.996094 13.226562 C 13.246094 13.347656 13.140625 14.089844 13.277344 14.070312 C 13.351562 14.0625 13.332031 13.671875 13.417969 13.582031 C 13.625 13.367188 13.773438 13.519531 13.84375 13.367188 C 13.902344 13.238281 13.902344 13.457031 14.300781 13.425781 C 15.175781 13.351562 15.359375 13.15625 14.617188 13.015625 C 14.617188 12.902344 14.367188 12.699219 14.207031 12.699219 C 14.21875 12.542969 14.21875 12.363281 14.226562 12.160156 C 14.269531 11.246094 13.910156 10.570312 13.386719 10.320312 C 13.003906 10.140625 13.011719 9.667969 12.773438 9.917969 C 12.59375 10.109375 12.464844 10.007812 12.320312 9.859375 C 11.976562 9.511719 11.855469 9.789062 11.714844 9.902344 C 11.5 10.074219 11.421875 9.878906 11.367188 9.871094 C 11.015625 9.808594 11.113281 10.054688 10.992188 10.113281 C 9.570312 10.835938 9.953125 12.210938 9.859375 12.3125 C 9.558594 12.621094 9.074219 12.601562 9.019531 12.691406 C 8.90625 12.878906 9.863281 12.914062 10.246094 13.109375 C 10.359375 13.164062 10.21875 14.421875 10.304688 14.882812 C 10.496094 15.957031 11.066406 15.878906 10.960938 16.152344 C 10.894531 16.328125 10.484375 16.6875 10.171875 16.898438 C 9.914062 17.070312 9.636719 16.96875 9.121094 17.050781 Z M 9.121094 17.050781 "/>
<path style=" stroke:none;fill-rule:nonzero;fill:rgb(100%,100%,100%);fill-opacity:1;" d="M 20.0625 11.078125 C 20.105469 11.554688 20.003906 11.949219 19.792969 12.25 C 19.8125 12.679688 19.84375 13.101562 19.8125 13.558594 C 19.890625 13.726562 20.136719 13.703125 20.199219 13.84375 C 20.222656 13.894531 20.363281 13.78125 20.402344 13.886719 C 20.464844 14.039062 20.636719 14.121094 20.734375 14.148438 C 20.90625 14.199219 20.988281 14.304688 21.066406 14.269531 C 21.148438 14.234375 21.25 14.253906 21.257812 14.300781 C 21.308594 14.355469 21.425781 14.441406 21.4375 14.503906 C 21.476562 14.746094 21.308594 14.785156 21.222656 14.984375 C 21.171875 15.113281 21.113281 15.324219 21.097656 15.679688 C 20.976562 15.597656 21 15.15625 21.058594 14.890625 C 21.105469 14.671875 21.222656 14.28125 21.171875 14.265625 C 21.03125 14.222656 21.066406 14.421875 20.933594 14.492188 C 20.867188 14.53125 20.890625 14.375 20.839844 14.359375 C 20.78125 14.335938 20.804688 14.46875 20.757812 14.4375 C 20.707031 14.398438 20.640625 14.332031 20.636719 14.65625 C 20.636719 14.714844 20.488281 14.730469 20.402344 15.421875 C 20.394531 15.488281 20.324219 15.398438 20.273438 15.863281 C 20.265625 15.917969 20.105469 15.898438 20.039062 16.324219 C 20.03125 16.359375 19.945312 16.421875 19.929688 16.550781 C 19.902344 16.785156 19.8125 16.925781 19.757812 16.941406 C 19.6875 16.265625 20.347656 14.628906 20.28125 13.867188 C 20.253906 13.855469 20.246094 13.890625 20.203125 13.867188 C 20.039062 14.394531 19.832031 14.691406 19.671875 15.242188 C 19.410156 15.738281 19.066406 16.519531 18.859375 17.078125 C 18.925781 16.613281 19.09375 16.1875 19.386719 15.636719 C 19.625 15.1875 19.871094 14.558594 20.085938 14 C 19.710938 14.210938 18.578125 15.652344 18.371094 15.988281 C 18.171875 16.304688 18.125 16.585938 18.046875 17.105469 C 18.027344 16.933594 18.023438 16.605469 18.140625 16.15625 C 18.320312 15.46875 18.683594 15.25 18.714844 15.003906 C 18.730469 14.878906 18.640625 14.820312 18.933594 14.65625 C 18.695312 14.628906 18.816406 14.449219 18.964844 14.410156 C 18.746094 14.230469 19.109375 14.042969 19.152344 14.023438 C 18.875 14.007812 18.359375 14.1875 18.328125 14.113281 C 18.210938 13.84375 18.304688 13.804688 18.289062 13.632812 C 18.277344 13.464844 18.167969 13.25 18.25 13.136719 C 18.398438 12.929688 18.980469 12.699219 19.214844 12.507812 C 19.222656 12.457031 18.988281 12.632812 18.976562 12.550781 C 18.960938 12.4375 18.859375 12.609375 18.765625 12.578125 C 18.5 12.492188 18.496094 12.28125 18.4375 12.199219 C 18.375 12.113281 18.234375 12.019531 18.304688 11.945312 C 18.339844 11.90625 18.523438 12.023438 18.53125 11.929688 C 18.566406 11.589844 18.34375 11.632812 18.347656 11.59375 C 18.375 11.367188 18.667969 11.574219 18.640625 11.488281 C 18.585938 11.316406 18.335938 11.457031 18.355469 11.238281 C 18.367188 11.097656 18.238281 10.851562 18.203125 10.855469 C 18.257812 10.359375 18.242188 9.996094 18.21875 9.578125 C 18.207031 9.433594 18.292969 9.453125 18.359375 9.535156 C 18.453125 9.648438 18.597656 9.488281 18.488281 9.738281 C 18.453125 9.816406 18.703125 10.191406 18.773438 10.253906 C 18.800781 10.28125 18.921875 10.246094 18.867188 10.160156 C 18.796875 10.046875 18.917969 10.140625 19.058594 10 C 19.183594 9.882812 19.121094 9.769531 19.207031 9.863281 C 19.25 9.910156 19.289062 9.964844 19.304688 9.910156 C 19.335938 9.785156 19.375 9.875 19.390625 9.816406 C 19.402344 9.78125 19.371094 9.703125 19.257812 9.621094 C 19.179688 9.5625 19.128906 9.464844 19.242188 9.445312 C 19.832031 9.320312 19.902344 10.167969 19.960938 10.582031 C 19.992188 9.925781 20.332031 9.894531 20.164062 10.695312 L 20.171875 10.691406 C 20.140625 10.863281 20.28125 11.066406 20.0625 11.078125 Z M 20.0625 11.078125 "/>
<path style="fill-rule:nonzero;fill:rgb(100%,100%,100%);fill-opacity:1;stroke-width:0.1242;stroke-linecap:butt;stroke-linejoin:miter;stroke:rgb(100%,100%,100%);stroke-opacity:1;stroke-miterlimit:4;" d="M 78.892775 160.786306 C 79.737183 161.865272 79.64336 164.726877 79.174245 165.477462 C 78.329836 166.744075 77.110136 169.371122 77.016313 170.637734 C 76.64102 173.921544 75.608966 175.281979 74.389265 175.985652 C 73.544857 176.407856 73.685592 174.296836 72.794272 174.812863 C 71.856041 175.328891 72.278245 176.314033 70.823986 177.158441 C 69.088259 178.237407 67.02415 179.973135 65.147687 182.459448 C 61.535497 187.338251 57.641837 190.434414 51.590246 190.246767 C 50.370545 190.246767 45.022627 190.152944 44.131307 187.00987 C 43.802926 185.977815 43.849838 184.195176 45.867035 184.101353 C 47.321293 184.054441 49.057021 186.540754 49.244668 185.837081 C 49.61996 184.711203 49.61996 183.303856 47.602763 183.303856 C 46.992913 183.303856 45.7263 183.256945 45.679389 183.11621 C 45.304096 181.896509 45.7263 181.521217 46.195416 181.474305 C 46.899089 181.380482 45.351008 179.457108 46.664532 179.457108 C 47.978055 179.50402 51.402599 182.131067 51.637157 181.708863 C 52.200096 180.301516 51.074218 178.894169 48.587906 177.252265 C 48.494083 178.237407 47.978055 178.565788 46.289239 177.533734 C 45.444831 177.017707 43.474545 176.830061 43.990573 174.343748 C 44.22513 173.264782 44.318953 171.763612 45.022627 172.561108 C 45.679389 173.358605 46.805266 173.968455 47.837321 172.983312 C 48.775552 172.185816 49.291579 172.60802 49.854518 173.311693 C 52.481565 176.689326 51.449511 169.371122 51.027307 167.49466 C 50.417457 164.961435 49.995253 168.010687 48.916287 168.339068 C 48.259525 168.620537 48.024967 169.746415 48.071878 170.684646 C 48.165702 172.889489 46.758355 171.763612 46.383062 171.388319 C 45.444831 170.497 44.881892 169.840238 43.943661 170.027884 C 42.72396 170.262442 43.61528 171.857435 42.395579 171.575965 C 42.067198 168.71436 42.630137 165.805843 43.052341 163.835558 C 43.239988 163.038061 44.037484 158.81602 44.975715 158.769109 C 46.054681 158.628374 45.538654 161.067775 48.775552 163.601 C 51.168042 165.477462 55.249348 164.445408 56.985075 163.788646 C 59.143007 163.038061 57.313456 161.959095 59.424477 161.865272 C 61.207116 161.771449 60.034327 160.551748 59.049184 159.754252 C 58.345511 159.144401 58.298599 157.549408 59.612123 158.112347 C 60.784912 158.722197 62.145347 159.848075 61.770055 159.003667 C 61.160204 157.502497 64.162544 157.690143 66.039007 158.534551 C 69.041347 159.98881 67.774735 168.902006 69.416639 168.667449 C 70.307959 168.573625 70.073401 163.882469 71.105456 162.803503 C 73.591769 160.223367 75.374408 162.052918 76.218816 160.223367 C 76.687932 159.09749 76.875578 160.223367 78.892775 160.786306 Z M 78.892775 160.786306 " transform="matrix(0.0832684,0,0,0.0832684,7.497132,0.0256467)"/>
<path style=" stroke:none;fill-rule:nonzero;fill:rgb(95.686275%,64.313725%,15.686275%);fill-opacity:1;" d="M 8.449219 6.589844 C 8.410156 5.140625 8.394531 3.683594 8.421875 2.230469 C 8.691406 2.132812 8.960938 2.046875 9.238281 1.964844 C 11.359375 1.363281 13.546875 1.089844 15.746094 0.96875 L 15.746094 0.0546875 C 16.449219 0.015625 17.171875 0 17.90625 0 C 18.644531 0 19.371094 0.015625 20.078125 0.0546875 L 20.078125 0.96875 C 20.242188 0.976562 20.402344 0.984375 20.570312 0.996094 C 21.617188 1.070312 22.648438 1.179688 23.6875 1.335938 C 24.941406 1.542969 26.199219 1.804688 27.402344 2.230469 C 27.425781 3.582031 27.414062 4.933594 27.382812 6.28125 L 27.371094 6.589844 C 25.128906 5.726562 21.71875 5.148438 17.90625 5.148438 C 14.101562 5.148438 10.691406 5.726562 8.449219 6.589844 Z M 8.449219 6.589844 "/>
<path style="fill-rule:nonzero;fill:rgb(100%,100%,100%);fill-opacity:1;stroke-width:0.1242;stroke-linecap:butt;stroke-linejoin:miter;stroke:rgb(100%,100%,100%);stroke-opacity:1;stroke-miterlimit:4;" d="M 167.884009 173.546251 C 168.353125 173.640074 169.197533 173.640074 169.99503 174.578306 C 170.980173 175.704183 175.99971 177.11153 176.844118 176.642414 C 177.50088 176.314033 178.063819 176.22021 178.204553 176.314033 C 179.424254 176.783149 197.391382 145.774606 205.507083 140.614334 C 213.622783 135.454062 220.331136 148.495477 218.876878 155.626034 C 218.736143 160.223367 220.002756 160.786306 219.908932 164.21085 C 219.768198 168.99583 217.375708 171.435231 216.953504 176.126387 C 216.625123 179.785489 216.437477 182.037244 215.92145 183.444591 C 214.701749 186.775312 212.496906 185.414876 211.230293 186.540754 C 209.91677 187.525897 210.901912 192.357788 209.447654 195.219393 C 209.494566 198.925407 209.91677 202.068481 209.494566 202.490685 C 205.835464 205.868318 200.299899 205.915229 198.423437 206.009052 C 197.860498 207.932427 198.423437 208.448454 201.613423 212.201379 C 203.396062 214.312399 203.161505 218.159147 202.504743 220.833106 C 202.035627 222.991038 201.472688 223.976181 201.003573 223.131773 C 200.393722 221.958984 202.880035 221.771338 201.988715 220.270168 C 201.660335 219.75414 199.549314 219.472671 199.267845 219.331936 C 197.438294 218.487528 201.941804 218.815909 201.191219 217.127093 C 200.722103 216.001215 199.314756 218.956644 198.704906 217.267828 C 198.188879 215.672834 196.875355 214.218576 192.371845 214.171664 C 191.245968 214.171664 188.055981 213.796372 184.912907 215.579011 C 187.11775 215.5321 191.996553 214.781515 195.092716 217.690032 C 198.095056 220.692372 198.845641 227.166167 198.892552 227.682194 C 199.220933 231.435119 201.660335 243.069187 197.203736 252.404588 C 196.265505 254.327962 183.364825 262.162193 180.034104 264.648506 C 177.782349 266.337322 177.172499 261.17705 172.856635 257.893241 C 169.666649 255.547663 179.518077 257.142656 179.377342 255.641486 C 178.955138 250.997241 169.525914 244.758003 163.474323 242.224779 C 160.002867 239.081704 176.234268 244.335799 180.831601 240.207582 C 182.848798 238.424942 180.268662 228.338956 175.249125 223.178684 C 174.49854 222.381188 173.935601 220.504725 174.826921 219.331936 C 176.421914 217.220916 179.189696 217.924589 180.50322 216.095038 C 181.488363 214.781515 179.658812 214.593868 183.364825 212.154467 C 182.754975 211.075501 181.629097 212.905052 180.034104 212.905052 C 177.876172 212.811229 173.138104 215.860481 172.387519 216.939447 C 172.10605 214.500045 172.856635 212.998875 176.797206 210.559474 C 177.547791 210.13727 178.204553 208.964481 178.204553 207.885515 C 178.157642 207.463311 177.50088 207.791692 177.453968 207.369488 C 177.266322 206.431257 180.315574 205.305379 179.752635 204.414059 C 178.955138 203.194359 174.170159 206.900372 173.982513 206.431257 C 173.560309 205.493025 179.236608 202.303039 181.72292 198.268645 C 182.520417 197.048944 182.426594 196.157624 182.098213 195.641597 C 181.206893 193.952781 174.029424 201.505542 173.60722 201.036427 C 172.575166 199.722903 185.757315 188.370305 184.912907 187.338251 C 183.974675 186.306196 177.21941 194.187339 176.891029 193.765135 C 176.60956 193.389842 177.735438 192.545434 176.844118 191.841761 C 176.468825 191.51338 175.812064 193.01455 175.342948 192.686169 C 174.310894 192.076318 177.50088 188.088836 177.078676 187.713543 C 175.155302 185.930904 170.745615 199.394522 169.760472 198.73776 C 168.962975 198.174822 175.155302 185.883992 176.093533 184.382822 C 176.421914 183.913706 174.873832 182.881652 174.545451 183.866795 C 173.372662 187.244427 169.009887 195.829243 168.540771 196.532917 C 167.790186 197.705706 166.945778 205.680672 166.195193 204.930087 C 165.303874 203.944944 168.165479 195.547774 168.259302 193.342931 C 168.306214 191.701026 168.962975 190.481325 167.884009 190.340591 C 166.617397 190.199856 167.743275 186.634577 168.071656 185.555611 C 168.681506 183.303856 168.869152 179.738577 168.634594 178.800346 C 168.071656 177.064618 170.464145 176.783149 169.948118 175.751095 C 169.666649 175.188156 168.446948 174.156101 167.884009 173.546251 Z M 167.884009 173.546251 " transform="matrix(0.0832684,0,0,0.0832684,7.497132,0.0256467)"/>
<path style=" stroke:none;fill-rule:nonzero;fill:rgb(13.72549%,12.156863%,12.54902%);fill-opacity:1;" d="M 21.320312 12.777344 C 21.222656 12.171875 20.988281 11.132812 22.25 10.203125 C 22.300781 9.949219 22.683594 9.71875 23.019531 9.890625 C 23.171875 9.695312 23.480469 9.382812 24.082031 9.789062 C 24.648438 9.679688 25.476562 10.585938 25.640625 11.371094 C 25.652344 11.429688 25.660156 11.605469 25.652344 11.664062 C 26.550781 11.589844 27.511719 11.96875 25.796875 13.046875 C 25.671875 13.042969 25.660156 13.207031 25.390625 13.160156 C 25.28125 13.140625 25.609375 13.007812 25.429688 13 C 25.304688 12.992188 25.414062 13.105469 25.269531 13.121094 C 25.042969 13.140625 25.039062 12.929688 25.035156 12.855469 C 25.015625 12.578125 25.546875 12.660156 25.511719 12.433594 C 25.449219 12.019531 25.027344 11.960938 24.769531 11.957031 C 24.390625 11.945312 24.253906 12.210938 24.320312 12.402344 C 24.386719 12.597656 24.644531 12.722656 24.734375 12.722656 C 24.832031 13.105469 25.074219 13.464844 25.039062 13.667969 C 25.007812 13.832031 25.238281 13.980469 25.140625 13.984375 C 24.980469 13.988281 24.964844 14.085938 24.933594 14.132812 C 24.886719 14.207031 24.9375 14.230469 24.910156 14.304688 C 24.875 14.398438 24.753906 14.390625 24.78125 14.464844 C 24.816406 14.554688 24.964844 14.363281 25.078125 14.40625 C 25.132812 14.425781 25.171875 14.421875 25.195312 14.414062 C 25.273438 14.390625 25.414062 14.570312 25.429688 14.640625 C 25.3125 14.65625 25.300781 14.597656 25.097656 14.597656 C 24.925781 14.59375 24.746094 14.660156 24.742188 14.746094 C 24.734375 14.832031 24.816406 14.871094 24.847656 14.882812 C 24.917969 14.90625 25.242188 14.851562 25.234375 14.902344 C 25.183594 15.09375 24.800781 15.007812 24.714844 15.046875 C 24.617188 15.09375 24.59375 15.199219 24.625 15.21875 C 24.808594 15.34375 24.765625 15.503906 24.832031 15.503906 C 24.921875 15.503906 25.214844 15.476562 25.097656 15.511719 C 24.90625 15.574219 25.027344 15.742188 24.917969 15.742188 C 24.382812 15.746094 24.117188 16.015625 23.957031 16.289062 C 23.570312 15.429688 22.851562 14.9375 22.335938 14.703125 C 22.253906 14.464844 22.203125 14.339844 22.09375 14.175781 C 19.886719 14.117188 20.445312 13.375 21.320312 12.777344 Z M 21.320312 12.777344 "/>
<path style=" stroke:none;fill-rule:nonzero;fill:rgb(13.72549%,12.156863%,12.54902%);fill-opacity:1;" d="M 21.207031 2.128906 L 18.726562 2.054688 L 18.707031 2.789062 C 19.300781 2.804688 19.726562 2.824219 20.3125 2.839844 C 20.394531 2.839844 20.488281 2.65625 20.488281 2.734375 C 20.484375 2.773438 20.476562 3.28125 20.46875 3.40625 C 20.464844 3.476562 20.371094 3.304688 20.304688 3.304688 L 18.699219 3.253906 L 18.679688 4.089844 C 19.511719 4.117188 20.34375 4.144531 21.179688 4.164062 C 21.316406 4.167969 21.332031 4.015625 21.328125 4.078125 C 21.328125 4.140625 21.324219 4.707031 21.320312 4.78125 C 21.320312 4.851562 21.308594 4.707031 21.199219 4.679688 C 20.117188 4.628906 18.859375 4.59375 17.785156 4.542969 C 17.847656 4.480469 17.964844 4.421875 17.964844 4.359375 C 17.984375 3.480469 18 2.574219 18.023438 1.699219 C 18.023438 1.644531 17.925781 1.570312 17.878906 1.535156 C 18.4375 1.546875 20.664062 1.601562 21.21875 1.617188 C 21.359375 1.625 21.367188 1.46875 21.367188 1.53125 C 21.367188 1.59375 21.363281 2.160156 21.363281 2.234375 C 21.359375 2.308594 21.347656 2.128906 21.207031 2.128906 Z M 21.207031 2.128906 "/>
<path style=" stroke:none;fill-rule:nonzero;fill:rgb(13.72549%,12.156863%,12.54902%);fill-opacity:1;" d="M 17.230469 0.152344 L 16.675781 0.171875 L 16.703125 0.949219 L 16.410156 0.960938 L 16.378906 0.183594 L 15.851562 0.199219 L 15.851562 0.0546875 L 17.226562 0.0078125 Z M 17.230469 0.152344 "/>
<path style=" stroke:none;fill-rule:nonzero;fill:rgb(13.72549%,12.156863%,12.54902%);fill-opacity:1;" d="M 18.636719 0.929688 L 18.34375 0.929688 L 18.34375 0.515625 L 17.683594 0.515625 L 17.683594 0.929688 L 17.382812 0.929688 L 17.382812 0.0078125 L 17.683594 0.0078125 L 17.683594 0.367188 L 18.34375 0.367188 L 18.34375 0.0078125 L 18.636719 0.0078125 Z M 18.636719 0.929688 "/>
<path style=" stroke:none;fill-rule:nonzero;fill:rgb(13.72549%,12.156863%,12.54902%);fill-opacity:1;" d="M 19.988281 0.199219 L 19.222656 0.167969 L 19.210938 0.386719 L 19.761719 0.40625 L 19.753906 0.542969 L 19.203125 0.523438 L 19.195312 0.804688 L 19.949219 0.835938 L 19.945312 0.976562 L 18.890625 0.933594 L 18.929688 0.0117188 L 19.992188 0.0546875 Z M 19.988281 0.199219 "/>
<path style=" stroke:none;fill-rule:nonzero;fill:rgb(13.72549%,12.156863%,12.54902%);fill-opacity:1;" d="M 26.691406 2.652344 C 26.1875 3.507812 25.800781 4.285156 25.324219 5.160156 C 25.3125 5.179688 25.359375 5.265625 25.378906 5.316406 C 25.066406 5.253906 24.75 5.195312 24.433594 5.132812 C 24.472656 5.09375 24.550781 5.046875 24.546875 5.015625 L 24.25 3.003906 C 23.929688 3.578125 23.585938 4.183594 23.269531 4.765625 C 23.246094 4.808594 23.304688 4.871094 23.320312 4.933594 L 22.375 4.785156 C 22.410156 4.738281 22.488281 4.691406 22.484375 4.652344 C 22.359375 3.65625 22.246094 2.835938 22.117188 1.847656 C 22.113281 1.804688 22.046875 1.75 22.015625 1.707031 L 22.9375 1.835938 C 22.902344 1.878906 22.828125 1.921875 22.832031 1.953125 L 23.058594 3.976562 C 23.390625 3.375 23.714844 2.78125 24.042969 2.179688 C 24.058594 2.152344 24.015625 2.078125 24.003906 2.03125 L 24.910156 2.179688 C 24.882812 2.214844 24.820312 2.265625 24.824219 2.300781 L 25.117188 4.351562 C 25.429688 3.734375 25.734375 3.132812 26.046875 2.511719 C 26.058594 2.492188 25.988281 2.417969 25.96875 2.382812 L 26.820312 2.546875 C 26.785156 2.574219 26.707031 2.625 26.691406 2.652344 Z M 26.691406 2.652344 "/>
<path style=" stroke:none;fill-rule:nonzero;fill:rgb(100%,100%,100%);fill-opacity:1;" d="M 15.628906 15.023438 C 15.765625 15.113281 15.898438 15.347656 15.902344 15.652344 C 15.910156 16.269531 15.914062 16.378906 15.863281 16.914062 C 15.765625 16.730469 15.679688 16.535156 15.667969 16.328125 C 15.632812 15.746094 15.703125 15.632812 15.628906 15.023438 Z M 15.628906 15.023438 "/>
<path style=" stroke:none;fill-rule:nonzero;fill:rgb(100%,100%,100%);fill-opacity:1;" d="M 23.683594 13.386719 C 23.796875 13.34375 23.945312 13.371094 24.011719 13.265625 C 24.058594 13.191406 23.941406 13.035156 24.046875 12.980469 C 24.109375 12.945312 24.359375 13.070312 24.386719 13.171875 C 24.414062 13.277344 24.273438 13.367188 24.238281 13.453125 C 24.269531 13.492188 24.347656 13.429688 24.34375 13.609375 C 24.34375 13.703125 24.355469 13.746094 24.328125 13.789062 C 24.3125 13.8125 24.28125 13.84375 24.28125 13.921875 C 24.285156 14.019531 24.351562 14.015625 24.375 14.097656 C 24.398438 14.167969 24.402344 14.230469 24.359375 14.234375 C 24.089844 14.246094 24.117188 14.144531 23.773438 13.753906 C 23.667969 13.632812 23.695312 13.578125 23.683594 13.386719 Z M 23.683594 13.386719 "/>
<path style=" stroke:none;fill-rule:nonzero;fill:rgb(100%,100%,100%);fill-opacity:1;" d="M 23.996094 12.753906 C 24.042969 12.839844 24.105469 12.785156 24.230469 12.84375 C 24.28125 12.867188 24.386719 12.964844 24.40625 13.085938 C 24.3125 13.007812 24.191406 12.90625 24.054688 12.917969 C 23.988281 12.925781 23.9375 12.78125 23.996094 12.753906 Z M 23.996094 12.753906 "/>
<path style="fill-rule:nonzero;fill:rgb(100%,100%,100%);fill-opacity:1;stroke-width:0.1242;stroke-linecap:butt;stroke-linejoin:miter;stroke:rgb(100%,100%,100%);stroke-opacity:1;stroke-miterlimit:4;" d="M 215.92145 152.717517 C 216.343654 152.436048 216.765858 152.529871 217.42262 152.858252 C 218.360851 153.327368 218.126293 153.749572 217.563354 154.077953 C 217.281885 154.218687 216.859681 154.218687 216.390565 153.98413 C 215.874538 153.70266 215.452334 152.998987 215.92145 152.717517 Z M 215.92145 152.717517 " transform="matrix(0.0832684,0,0,0.0832684,7.497132,0.0256467)"/>
<path style=" stroke:none;fill-rule:nonzero;fill:rgb(13.72549%,12.156863%,12.54902%);fill-opacity:1;" d="M 25.269531 13.875 C 25.328125 13.894531 25.332031 13.9375 25.324219 13.980469 C 25.285156 13.992188 25.257812 13.992188 25.222656 13.980469 C 25.21875 13.902344 25.265625 13.933594 25.269531 13.875 Z M 25.269531 13.875 "/>
<path style=" stroke:none;fill-rule:nonzero;fill:rgb(100%,100%,100%);fill-opacity:1;" d="M 25.445312 10.683594 C 25.679688 11.042969 25.765625 11.285156 25.785156 11.667969 C 25.710938 11.667969 25.730469 11.664062 25.652344 11.664062 C 25.660156 11.605469 25.652344 11.429688 25.640625 11.371094 C 25.503906 10.699219 24.882812 9.949219 24.351562 9.804688 C 24.789062 9.835938 25.179688 10.285156 25.445312 10.683594 Z M 25.445312 10.683594 "/>
<path style="fill-rule:nonzero;fill:rgb(100%,100%,100%);fill-opacity:1;stroke-width:0.1242;stroke-linecap:butt;stroke-linejoin:miter;stroke:rgb(100%,100%,100%);stroke-opacity:1;stroke-miterlimit:4;" d="M 223.661857 139.816838 C 227.977721 140.098307 232.105939 141.505654 232.340497 144.507994 C 232.528143 147.557245 225.350674 153.374279 221.128633 155.766769 C 220.659517 156.048238 220.237313 156.188973 219.908932 156.282796 C 236.703272 145.727694 231.871381 140.755069 223.661857 139.816838 Z M 223.661857 139.816838 " transform="matrix(0.0832684,0,0,0.0832684,7.497132,0.0256467)"/>
<path style=" stroke:none;fill-rule:nonzero;fill:rgb(13.72549%,12.156863%,12.54902%);fill-opacity:1;" d="M 25.121094 14.160156 C 25.144531 14.15625 25.164062 14.15625 25.175781 14.164062 C 25.179688 14.1875 25.179688 14.316406 25.167969 14.355469 C 25.152344 14.363281 25.128906 14.359375 25.121094 14.347656 C 25.109375 14.285156 25.105469 14.207031 25.121094 14.160156 Z M 25.121094 14.160156 "/>
<path style=" stroke:none;fill-rule:nonzero;fill:rgb(13.72549%,12.156863%,12.54902%);fill-opacity:1;" d="M 22.035156 14.71875 C 22.09375 14.734375 22.144531 14.742188 22.183594 14.742188 C 22.113281 14.863281 21.984375 15.054688 21.925781 15.265625 C 21.851562 15.503906 21.808594 15.710938 21.644531 15.828125 C 21.632812 15.390625 21.722656 15.257812 21.71875 14.953125 C 21.792969 14.914062 21.925781 14.820312 22.035156 14.71875 Z M 22.035156 14.71875 "/>
<path style=" stroke:none;fill-rule:nonzero;fill:rgb(100%,100%,100%);fill-opacity:1;" d="M 14.175781 18.757812 C 14.722656 18.796875 14.898438 19.03125 14.988281 19.136719 C 15.070312 19.230469 15.058594 19.9375 14.894531 20.242188 C 14.753906 20.507812 14.542969 20.421875 14.507812 20.769531 C 14.472656 20.769531 14.375 20.738281 14.363281 20.78125 C 14.355469 20.824219 14.445312 20.9375 14.386719 20.9375 C 14.257812 20.929688 13.949219 20.777344 13.902344 20.742188 C 13.820312 20.6875 13.988281 20.65625 13.945312 20.488281 C 13.769531 19.832031 14.015625 19.234375 14.175781 18.757812 Z M 14.175781 18.757812 "/>
<path style=" stroke:none;fill-rule:nonzero;fill:rgb(100%,100%,100%);fill-opacity:1;" d="M 13.160156 11.546875 C 13.21875 11.566406 13.269531 11.734375 13.191406 11.929688 C 13.109375 12.128906 13.074219 12.25 12.976562 12.214844 C 12.878906 12.175781 12.894531 12.058594 12.921875 11.847656 C 12.945312 11.636719 13.101562 11.519531 13.160156 11.546875 Z M 13.160156 11.546875 "/>
<path style=" stroke:none;fill-rule:nonzero;fill:rgb(100%,100%,100%);fill-opacity:1;" d="M 13.457031 20.71875 C 13.8125 20.789062 14.261719 20.960938 14.527344 21.164062 C 14.328125 21.160156 13.972656 21.207031 13.898438 21.144531 C 13.773438 21.039062 13.554688 20.933594 13.457031 20.71875 Z M 13.457031 20.71875 "/>
<path style=" stroke:none;fill-rule:nonzero;fill:rgb(100%,100%,100%);fill-opacity:1;" d="M 14.648438 21.203125 C 14.738281 21.039062 15.261719 21.148438 15.570312 21.351562 C 15.769531 21.484375 15.992188 21.441406 15.972656 21.761719 C 15.664062 21.804688 15.789062 21.699219 15.707031 21.683594 C 15.644531 21.671875 15.640625 21.765625 15.605469 21.746094 C 15.574219 21.726562 15.617188 21.644531 15.46875 21.585938 C 15.375 21.550781 15.292969 21.53125 15.179688 21.550781 C 15.171875 21.453125 15.035156 21.429688 14.945312 21.429688 C 14.972656 21.21875 14.539062 21.394531 14.648438 21.203125 Z M 14.648438 21.203125 "/>
<path style=" stroke:none;fill-rule:nonzero;fill:rgb(13.72549%,12.156863%,12.54902%);fill-opacity:1;" d="M 12.101562 13.800781 C 12.175781 13.800781 12.234375 13.859375 12.214844 13.9375 C 12.195312 14.019531 12.15625 14.074219 12.09375 14.097656 C 12.035156 14.121094 11.96875 14.042969 11.96875 13.953125 C 11.96875 13.859375 12.03125 13.800781 12.101562 13.800781 Z M 12.101562 13.800781 "/>
<path style=" stroke:none;fill-rule:nonzero;fill:rgb(13.72549%,12.156863%,12.54902%);fill-opacity:1;" d="M 13.566406 13.78125 C 13.636719 13.71875 13.730469 13.898438 13.757812 13.980469 C 13.78125 14.046875 13.78125 14.101562 13.6875 14.175781 C 13.625 14.226562 13.628906 14.195312 13.644531 14.101562 C 13.652344 14.054688 13.640625 13.996094 13.609375 13.984375 C 13.527344 13.949219 13.503906 13.847656 13.566406 13.78125 Z M 13.566406 13.78125 "/>
<path style=" stroke:none;fill-rule:nonzero;fill:rgb(100%,100%,100%);fill-opacity:1;" d="M 18.777344 9.175781 C 18.910156 9.1875 19.015625 9.210938 19.015625 9.238281 C 19.015625 9.269531 18.902344 9.316406 18.769531 9.335938 C 18.632812 9.351562 18.523438 9.355469 18.523438 9.277344 C 18.523438 9.199219 18.640625 9.167969 18.777344 9.175781 Z M 18.777344 9.175781 "/>
<path style="fill-rule:nonzero;fill:rgb(13.72549%,12.156863%,12.54902%);fill-opacity:1;stroke-width:0.1242;stroke-linecap:butt;stroke-linejoin:miter;stroke:rgb(13.72549%,12.156863%,12.54902%);stroke-opacity:1;stroke-miterlimit:4;" d="M 130.542406 128.79262 C 130.730052 128.417328 132.278133 128.511151 132.418868 130.199967 C 132.090487 130.199967 131.386814 130.340702 131.339902 130.106144 C 131.152256 129.402471 130.260936 129.308648 130.542406 128.79262 Z M 130.542406 128.79262 " transform="matrix(0.0832684,0,0,0.0832684,7.497132,0.0256467)"/>
<path style="fill-rule:nonzero;fill:rgb(13.72549%,12.156863%,12.54902%);fill-opacity:1;stroke-width:0.1242;stroke-linecap:butt;stroke-linejoin:miter;stroke:rgb(13.72549%,12.156863%,12.54902%);stroke-opacity:1;stroke-miterlimit:4;" d="M 135.984147 137.987287 C 136.640909 137.518171 137.766786 137.471259 137.860609 138.221844 C 138.048256 139.676103 137.626052 139.30081 137.110024 138.878606 C 136.734732 138.503314 135.46812 138.362579 135.984147 137.987287 Z M 135.984147 137.987287 " transform="matrix(0.0832684,0,0,0.0832684,7.497132,0.0256467)"/>
<path style=" stroke:none;fill-rule:nonzero;fill:rgb(13.72549%,12.156863%,12.54902%);fill-opacity:1;" d="M 13.882812 13.445312 C 13.914062 13.445312 14.003906 13.464844 14.003906 13.578125 C 14.003906 13.6875 13.964844 13.820312 13.9375 13.816406 C 13.867188 13.804688 13.964844 13.613281 13.882812 13.445312 Z M 13.882812 13.445312 "/>
<path style=" stroke:none;fill-rule:nonzero;fill:rgb(100%,100%,100%);fill-opacity:1;" d="M 16.03125 18.148438 C 16.070312 18.90625 16.363281 19.273438 16.492188 19.824219 C 16.632812 19.859375 16.816406 19.800781 16.9375 19.957031 C 16.519531 19.871094 16.511719 20.007812 16.316406 19.972656 C 16.105469 19.933594 16.179688 19.820312 16.367188 19.824219 C 16.21875 19.273438 15.742188 18.523438 16.03125 18.148438 Z M 16.03125 18.148438 "/>
<path style=" stroke:none;fill-rule:nonzero;fill:rgb(100%,100%,100%);fill-opacity:1;" d="M 19.109375 9.664062 C 19.136719 9.621094 19.167969 9.65625 19.203125 9.6875 C 19.253906 9.726562 19.347656 9.84375 19.300781 9.808594 C 19.234375 9.757812 19.097656 9.675781 19.109375 9.664062 Z M 19.109375 9.664062 "/>
<path style=" stroke:none;fill-rule:nonzero;fill:rgb(100%,100%,100%);fill-opacity:1;" d="M 14.984375 14.925781 C 15.148438 15.054688 15.292969 15.601562 15.273438 15.90625 C 15.246094 16.308594 15.292969 16.957031 15.324219 17.089844 C 15.378906 17.308594 15.398438 17.457031 15.40625 17.636719 C 15.195312 17.621094 15.128906 17.105469 15.148438 16.5 C 15.171875 15.945312 15.117188 15.597656 14.984375 14.925781 Z M 14.984375 14.925781 "/>
<path style=" stroke:none;fill-rule:nonzero;fill:rgb(100%,100%,100%);fill-opacity:1;" d="M 14.039062 14.800781 C 14.253906 14.726562 14.277344 15.242188 14.632812 15.601562 C 14.710938 15.632812 14.550781 14.71875 14.800781 14.757812 C 14.800781 15.183594 14.765625 15.5 14.746094 15.898438 C 14.738281 16.167969 14.90625 16.5625 14.796875 16.796875 C 14.613281 15.945312 14.546875 15.328125 14.039062 14.800781 Z M 14.039062 14.800781 "/>
<path style=" stroke:none;fill-rule:nonzero;fill:rgb(100%,100%,100%);fill-opacity:1;" d="M 14.316406 17.847656 C 14.359375 17.773438 14.574219 18.054688 14.613281 17.996094 C 14.683594 17.882812 14.75 17.964844 14.894531 18.171875 C 15.457031 18.960938 15.039062 18.597656 15.078125 18.6875 C 15.117188 18.789062 15.125 18.855469 15.125 18.941406 C 14.941406 18.675781 14.597656 18.085938 14.382812 18.097656 C 14.320312 18.042969 14.25 17.960938 14.316406 17.847656 Z M 14.316406 17.847656 "/>
<path style=" stroke:none;fill-rule:nonzero;fill:rgb(100%,100%,100%);fill-opacity:1;" d="M 13.808594 17.257812 C 13.851562 17.386719 13.902344 17.414062 13.953125 17.519531 C 13.902344 17.382812 13.933594 17.324219 13.902344 17.257812 C 13.882812 17.210938 13.839844 17.25 13.808594 17.257812 Z M 13.808594 17.257812 "/>
<path style=" stroke:none;fill-rule:nonzero;fill:rgb(100%,100%,100%);fill-opacity:1;" d="M 14.050781 17.648438 C 14.0625 17.636719 14.09375 17.679688 14.121094 17.710938 C 14.144531 17.742188 14.167969 17.765625 14.15625 17.78125 C 14.144531 17.792969 14.113281 17.773438 14.085938 17.742188 C 14.0625 17.710938 14.035156 17.660156 14.050781 17.648438 Z M 14.050781 17.648438 "/>
<path style=" stroke:none;fill-rule:nonzero;fill:rgb(100%,100%,100%);fill-opacity:1;" d="M 20.261719 16.824219 C 20.386719 17.027344 20.460938 16.992188 20.457031 16.871094 C 20.453125 16.792969 20.546875 16.828125 20.625 16.828125 C 20.625 16.867188 20.589844 17.058594 20.613281 17.078125 C 20.664062 17.121094 20.679688 16.902344 20.730469 16.988281 C 20.757812 17.035156 20.652344 17.046875 20.648438 17.207031 C 20.648438 17.289062 20.726562 17.421875 20.542969 17.480469 C 20.632812 17.519531 20.734375 17.578125 20.695312 17.636719 C 20.65625 17.691406 20.59375 17.710938 20.636719 17.835938 C 20.472656 17.851562 20.292969 17.824219 20.210938 17.726562 C 20.210938 17.5625 20.265625 17.382812 20.207031 17.230469 C 20.113281 17 20.257812 17.054688 20.261719 16.824219 Z M 20.261719 16.824219 "/>
<path style="fill-rule:nonzero;fill:rgb(100%,100%,100%);fill-opacity:1;stroke-width:0.1242;stroke-linecap:butt;stroke-linejoin:miter;stroke:rgb(100%,100%,100%);stroke-opacity:1;stroke-miterlimit:4;" d="M 110.604991 189.402359 C 112.05925 188.651774 115.765263 196.439094 116.891141 200.23893 C 117.594814 196.345271 118.157753 197.23659 119.377454 199.347611 C 121.769943 199.910549 121.910678 202.959801 122.332882 207.604046 C 122.708175 212.24829 121.769943 232.279528 120.034216 238.847146 C 120.034216 238.847146 119.236719 236.829949 119.799658 233.639963 C 120.362597 230.590711 121.535386 226.462494 120.503331 225.242793 C 118.439222 222.850303 118.908338 226.274848 118.06393 226.697052 C 117.17261 227.119256 117.735549 236.501568 117.735549 237.815092 C 117.782461 238.800235 116.234379 239.175527 115.999821 238.143473 C 115.389971 235.610248 115.06159 229.605568 114.17027 226.743963 C 111.4494 217.596208 111.027196 216.517243 112.153073 216.095038 C 113.888801 215.438277 112.387631 214.218576 111.637046 213.702549 C 110.417345 212.717406 112.106161 210.512562 111.824692 209.715066 C 111.261753 208.354631 109.807495 207.322576 111.637046 203.944944 C 112.481454 202.490685 111.637046 206.994195 112.6691 210.371828 C 113.138216 206.196699 113.794978 206.900372 114.357916 202.959801 C 114.967767 198.315556 109.479114 189.918386 110.604991 189.402359 Z M 110.604991 189.402359 " transform="matrix(0.0832684,0,0,0.0832684,7.497132,0.0256467)"/>
<path style="fill-rule:nonzero;fill:rgb(100%,100%,100%);fill-opacity:1;stroke-width:0.1242;stroke-linecap:butt;stroke-linejoin:miter;stroke:rgb(100%,100%,100%);stroke-opacity:1;stroke-miterlimit:4;" d="M 116.140556 239.175527 C 119.002161 239.175527 119.283631 240.817432 122.145236 240.629786 C 125.006841 240.535963 135.608854 242.506248 138.47046 242.646983 C 141.378977 242.646983 139.830895 244.288888 138.142079 244.148153 C 135.749589 243.632126 136.031058 244.804915 135.374297 244.758003 C 134.342242 244.66418 133.544746 243.819772 132.371957 243.866684 C 129.932555 243.960507 129.932555 245.836969 125.335222 243.16301 C 123.130379 241.802575 119.658923 241.239636 116.891141 240.911255 C 114.920855 240.911255 114.357916 239.175527 116.140556 239.175527 Z M 116.140556 239.175527 " transform="matrix(0.0832684,0,0,0.0832684,7.497132,0.0256467)"/>
<path style=" stroke:none;fill-rule:nonzero;fill:rgb(100%,100%,100%);fill-opacity:1;" d="M 14.207031 16.132812 C 14.226562 16.117188 14.289062 16.152344 14.339844 16.21875 C 14.386719 16.289062 14.394531 16.40625 14.382812 16.40625 C 14.367188 16.40625 14.324219 16.359375 14.285156 16.28125 C 14.246094 16.207031 14.179688 16.152344 14.207031 16.132812 Z M 14.207031 16.132812 "/>
<path style=" stroke:none;fill-rule:nonzero;fill:rgb(100%,100%,100%);fill-opacity:1;" d="M 14.417969 16.835938 C 14.445312 16.824219 14.460938 16.878906 14.503906 16.917969 C 14.550781 16.957031 14.566406 16.988281 14.570312 17.027344 C 14.574219 17.0625 14.511719 17.0625 14.460938 16.996094 C 14.410156 16.929688 14.398438 16.855469 14.417969 16.835938 Z M 14.417969 16.835938 "/>
<path style=" stroke:none;fill-rule:nonzero;fill:rgb(100%,100%,100%);fill-opacity:1;" d="M 14.617188 17.175781 C 14.640625 17.160156 14.695312 17.269531 14.734375 17.347656 C 14.769531 17.421875 14.789062 17.523438 14.765625 17.523438 C 14.738281 17.519531 14.71875 17.464844 14.691406 17.386719 C 14.664062 17.304688 14.589844 17.183594 14.617188 17.175781 Z M 14.617188 17.175781 "/>
<path style=" stroke:none;fill-rule:nonzero;fill:rgb(13.72549%,12.156863%,12.54902%);fill-opacity:1;" d="M 12.074219 2.175781 C 12.121094 2.1875 12.207031 2.113281 12.277344 2.082031 L 11.949219 2.890625 C 11.917969 2.84375 11.910156 2.714844 11.875 2.703125 C 11.671875 2.625 11.128906 2.507812 10.59375 2.667969 C 9.660156 2.941406 9.261719 3.453125 9.410156 4.082031 C 9.558594 4.710938 10.351562 4.945312 11.234375 4.726562 C 11.914062 4.558594 12.257812 4.113281 12.296875 4.0625 C 12.3125 4.035156 12.273438 3.898438 12.257812 3.824219 C 12.308594 3.863281 12.816406 4.246094 12.941406 4.347656 C 12.886719 4.347656 12.75 4.359375 12.71875 4.390625 C 12.40625 4.707031 12.03125 5.023438 11.335938 5.183594 C 9.902344 5.523438 8.925781 5.105469 8.742188 4.234375 C 8.5625 3.378906 9.164062 2.585938 10.527344 2.207031 C 11.117188 2.039062 11.964844 2.140625 12.074219 2.175781 Z M 12.074219 2.175781 "/>
<path style=" stroke:none;fill-rule:nonzero;fill:rgb(13.72549%,12.156863%,12.54902%);fill-opacity:1;" d="M 17.078125 4.375 C 17.105469 4.398438 17.203125 4.476562 17.285156 4.515625 C 17.207031 4.523438 16.199219 4.605469 16.125 4.613281 C 16.164062 4.554688 16.246094 4.503906 16.207031 4.46875 C 15.765625 4.042969 15.578125 3.828125 15.113281 3.429688 C 14.972656 3.449219 14.34375 3.476562 14.125 3.5 L 14.222656 4.652344 C 14.226562 4.679688 14.308594 4.738281 14.355469 4.78125 L 13.394531 4.863281 C 13.433594 4.820312 13.507812 4.722656 13.507812 4.699219 C 13.445312 3.824219 13.382812 2.960938 13.304688 2.089844 C 13.300781 2.03125 13.15625 1.945312 13.085938 1.871094 C 13.183594 1.863281 14.695312 1.699219 15.117188 1.671875 C 16.410156 1.582031 16.851562 1.859375 16.902344 2.453125 C 16.9375 2.921875 16.496094 3.203125 15.96875 3.347656 C 16.460938 3.796875 16.582031 3.914062 17.078125 4.375 M 14.042969 2.25 L 14.089844 3.027344 C 14.253906 3.019531 14.742188 2.984375 14.828125 2.980469 C 15.589844 2.929688 16.25 2.808594 16.191406 2.449219 C 16.117188 1.976562 15.484375 2.148438 14.675781 2.203125 C 14.578125 2.210938 14.148438 2.234375 14.042969 2.25 Z M 14.042969 2.25 "/>
<path style=" stroke:none;fill-rule:nonzero;fill:rgb(100%,100%,100%);fill-opacity:1;" d="M 14.300781 12.71875 C 14.269531 12.707031 14.238281 12.699219 14.210938 12.699219 C 14.21875 12.542969 14.21875 12.363281 14.226562 12.160156 C 14.269531 11.246094 13.910156 10.570312 13.386719 10.320312 C 13.242188 10.253906 13.152344 10.140625 13.085938 10.042969 L 13.039062 9.976562 C 13.335938 10.402344 13.710938 10.300781 14.035156 10.925781 C 14.351562 11.527344 14.328125 12.0625 14.300781 12.722656 Z M 14.300781 12.71875 "/>
<path style=" stroke:none;fill-rule:nonzero;fill:rgb(100%,100%,100%);fill-opacity:1;" d="M 20.3125 8.875 C 20.300781 8.875 20.28125 8.871094 20.269531 8.863281 C 20.300781 8.363281 20.332031 7.769531 19.871094 7.253906 C 19.597656 6.9375 19.359375 6.808594 19.195312 6.445312 L 19.195312 6.371094 C 19.25 6.640625 19.703125 7.03125 19.964844 7.292969 C 20.34375 7.671875 20.414062 8.492188 20.3125 8.875 Z M 20.3125 8.875 "/>
</g>
</svg>
