<?xml version="1.0" encoding="UTF-8"?>
<svg xmlns="http://www.w3.org/2000/svg" xmlns:xlink="http://www.w3.org/1999/xlink" width="35pt" height="25pt" viewBox="0 0 35 25" version="1.1">
<defs>
<clipPath id="clip1">
  <path d="M 8.546875 0 L 28 0 L 28 25 L 8.546875 25 Z M 8.546875 0 "/>
</clipPath>
<clipPath id="clip2">
  <path d="M 8.546875 0 L 28 0 L 28 25 L 8.546875 25 Z M 8.546875 0 "/>
</clipPath>
</defs>
<g id="surface1">
<g clip-path="url(#clip1)" clip-rule="nonzero">
<path style=" stroke:none;fill-rule:nonzero;fill:rgb(100%,100%,100%);fill-opacity:1;" d="M 27.007812 14.582031 C 27.007812 21.8125 19.550781 22.75 19.550781 22.75 L 17.945312 25 L 16.34375 22.75 C 16.34375 22.75 8.886719 21.8125 8.886719 14.582031 L 9.4375 6.242188 L 8.75 0.941406 C 8.75 0.941406 10.445312 0 17.945312 0 C 25.449219 0 27.144531 0.941406 27.144531 0.941406 L 26.457031 6.242188 Z M 27.007812 14.582031 "/>
</g>
<path style=" stroke:none;fill-rule:nonzero;fill:rgb(100%,100%,100%);fill-opacity:1;" d="M 24.820312 4.816406 L 25.160156 1.710938 C 25.199219 1.351562 25.125 1.3125 24.921875 1.285156 L 24.511719 5.046875 C 24.722656 5.070312 24.800781 4.992188 24.820312 4.816406 "/>
<path style=" stroke:none;fill-rule:nonzero;fill:rgb(100%,100%,100%);fill-opacity:1;" d="M 11.503906 4.761719 L 11.097656 1.664062 C 11.050781 1.304688 10.96875 1.285156 10.765625 1.304688 L 11.257812 5.058594 C 11.472656 5.03125 11.527344 4.933594 11.503906 4.761719 "/>
<path style=" stroke:none;fill-rule:nonzero;fill:rgb(100%,100%,100%);fill-opacity:1;" d="M 16.648438 5.195312 L 17.945312 6.085938 L 19.246094 5.195312 C 23.957031 5.195312 25.644531 5.621094 26.046875 5.75 L 26.632812 1.25 C 25.898438 1.015625 23.59375 0.46875 17.945312 0.46875 C 12.300781 0.46875 10 1.015625 9.261719 1.25 L 9.847656 5.75 C 10.25 5.621094 11.9375 5.195312 16.648438 5.195312 M 23.796875 4.96875 L 23.964844 4.988281 L 24.378906 1.222656 L 24.207031 1.203125 L 24.21875 1.117188 L 24.816406 1.183594 C 25.382812 1.246094 25.707031 1.472656 25.578125 3.03125 L 25.511719 3.636719 C 25.425781 4.398438 25.21875 5.214844 24.582031 5.144531 L 23.785156 5.054688 Z M 21.90625 4.808594 L 22.074219 4.820312 L 22.386719 1.046875 L 22.21875 1.035156 L 22.226562 0.945312 L 23.746094 1.074219 L 23.621094 2.570312 L 23.5625 2.566406 C 23.5 1.464844 23.449219 1.136719 23.167969 1.113281 L 22.9375 1.09375 L 22.785156 2.894531 C 23.019531 2.867188 23.144531 2.699219 23.234375 1.976562 L 23.296875 1.980469 L 23.128906 4 L 23.082031 3.996094 C 23.078125 3.273438 23.03125 3.03125 22.777344 2.984375 L 22.625 4.867188 L 22.757812 4.878906 C 22.988281 4.898438 23.097656 4.839844 23.269531 4.25 C 23.402344 3.804688 23.441406 3.648438 23.484375 3.421875 L 23.546875 3.425781 L 23.417969 5.019531 L 21.898438 4.894531 Z M 20.21875 0.835938 L 21.839844 0.921875 L 21.75 2.613281 L 21.6875 2.609375 C 21.601562 1.449219 21.484375 0.984375 21.308594 0.96875 L 21.300781 0.96875 L 21.101562 4.761719 L 21.289062 4.769531 L 21.285156 4.859375 L 20.359375 4.808594 L 20.363281 4.722656 L 20.550781 4.734375 L 20.75 0.941406 L 20.742188 0.941406 C 20.566406 0.9375 20.398438 1.386719 20.191406 2.527344 L 20.128906 2.527344 Z M 18.769531 4.679688 L 18.964844 4.683594 L 19.03125 0.894531 L 18.835938 0.890625 L 18.835938 0.804688 L 19.78125 0.820312 L 19.777344 0.910156 L 19.582031 0.90625 L 19.515625 4.691406 L 19.726562 4.695312 L 19.722656 4.78125 L 18.769531 4.765625 Z M 16.90625 4.679688 C 17.070312 4.648438 17.148438 4.542969 17.148438 4.296875 L 17.148438 0.894531 L 16.96875 0.894531 L 16.96875 0.804688 L 17.707031 0.804688 C 17.878906 1.726562 18.09375 2.632812 18.234375 3.5625 L 18.242188 3.5625 L 18.242188 1.21875 C 18.242188 0.972656 18.15625 0.90625 18.027344 0.894531 L 18.027344 0.804688 L 18.542969 0.804688 L 18.542969 0.894531 C 18.425781 0.898438 18.332031 1.003906 18.332031 1.195312 L 18.332031 4.769531 L 17.945312 4.769531 L 17.25 1.109375 C 17.246094 1.101562 17.242188 1.109375 17.238281 1.109375 L 17.238281 4.308594 C 17.238281 4.605469 17.339844 4.6875 17.464844 4.679688 L 17.464844 4.769531 L 16.90625 4.769531 Z M 15.925781 0.792969 L 15.925781 0.882812 L 15.757812 0.886719 L 15.882812 4.453125 C 15.886719 4.613281 15.925781 4.695312 16.117188 4.6875 C 16.296875 4.679688 16.480469 4.480469 16.460938 3.929688 L 16.363281 1.125 C 16.355469 0.921875 16.265625 0.871094 16.128906 0.875 L 16.125 0.789062 L 16.628906 0.769531 L 16.632812 0.859375 C 16.511719 0.875 16.449219 0.929688 16.457031 1.121094 L 16.554688 3.875 C 16.578125 4.597656 16.335938 4.804688 15.945312 4.820312 C 15.589844 4.832031 15.339844 4.632812 15.320312 4.050781 L 15.207031 0.90625 L 15.035156 0.914062 L 15.03125 0.828125 Z M 14.460938 4.140625 C 14.59375 4.132812 14.710938 4.304688 14.722656 4.488281 C 14.734375 4.667969 14.65625 4.851562 14.503906 4.859375 C 14.351562 4.867188 14.246094 4.699219 14.238281 4.519531 C 14.226562 4.332031 14.320312 4.152344 14.460938 4.140625 M 13.234375 0.886719 C 13.425781 0.875 13.535156 0.988281 13.617188 1.191406 L 13.792969 0.863281 L 13.835938 0.859375 L 13.9375 2.484375 L 13.875 2.488281 C 13.597656 1.121094 13.445312 0.976562 13.289062 0.988281 C 13.210938 0.992188 13.1875 1.101562 13.195312 1.175781 L 13.394531 4.457031 C 13.410156 4.742188 13.476562 4.824219 13.597656 4.816406 C 13.859375 4.800781 14.015625 4.285156 13.929688 3.25 L 13.996094 3.246094 C 14.074219 4.238281 13.980469 4.914062 13.539062 4.941406 C 13.042969 4.972656 12.820312 4.25 12.765625 3.28125 L 12.71875 2.566406 C 12.636719 1.203125 12.953125 0.902344 13.234375 0.886719 M 12.339844 4.304688 C 12.472656 4.289062 12.601562 4.449219 12.625 4.632812 C 12.648438 4.8125 12.585938 5 12.433594 5.019531 C 12.285156 5.039062 12.167969 4.875 12.144531 4.695312 C 12.121094 4.511719 12.203125 4.324219 12.339844 4.304688 M 10.640625 1.234375 C 11.199219 1.160156 11.570312 1.304688 11.816406 2.847656 L 11.894531 3.449219 C 11.996094 4.210938 11.988281 5.050781 11.351562 5.136719 L 10.558594 5.238281 L 10.546875 5.152344 L 10.714844 5.128906 L 10.21875 1.375 L 10.050781 1.398438 L 10.042969 1.3125 Z M 10.640625 1.234375 "/>
<path style=" stroke:none;fill-rule:nonzero;fill:rgb(100%,100%,100%);fill-opacity:1;" d="M 19.390625 5.664062 L 17.949219 6.65625 L 16.503906 5.664062 C 11.402344 5.664062 9.910156 6.226562 9.910156 6.226562 L 9.355469 14.59375 C 9.355469 21.558594 16.609375 22.3125 16.609375 22.3125 L 17.949219 24.191406 L 19.285156 22.3125 C 19.285156 22.3125 26.539062 21.558594 26.539062 14.59375 L 25.988281 6.226562 C 25.988281 6.226562 24.492188 5.664062 19.390625 5.664062 M 16.433594 5.898438 L 17.949219 6.941406 L 19.464844 5.898438 C 22.328125 5.902344 24.039062 6.085938 24.964844 6.238281 L 24.769531 6.371094 C 23.953125 6.914062 23.117188 7.265625 22.378906 7.578125 C 20.976562 8.167969 19.769531 8.675781 19.769531 10.175781 C 19.769531 10.597656 19.910156 10.867188 20.046875 11.128906 C 20.207031 11.425781 20.371094 11.738281 20.371094 12.378906 C 20.371094 12.847656 20.296875 13.070312 19.652344 13.070312 C 19.355469 13.070312 19.125 12.863281 19.125 12.609375 C 19.125 12.355469 19.398438 12.230469 19.792969 12.199219 C 19.792969 12.199219 19.308594 11.988281 19.308594 11.90625 C 19.308594 11.816406 19.660156 11.722656 19.660156 11.722656 C 19.660156 11.722656 19.304688 11.511719 19.304688 11.398438 C 19.304688 11.398438 19.449219 11.226562 19.40625 10.886719 C 18.433594 10.996094 18.273438 10.84375 17.726562 10.84375 C 17.355469 10.84375 17.152344 11.085938 17.152344 11.085938 C 17.152344 11.085938 16.964844 11.050781 16.839844 11.050781 C 16.101562 11.050781 16.078125 11.761719 16.078125 12.054688 C 16.078125 12.351562 16.109375 12.53125 16.109375 12.53125 C 16.230469 12.351562 16.386719 12.132812 16.65625 12.132812 C 16.929688 12.132812 17.140625 12.175781 17.140625 12.550781 C 17.140625 12.921875 16.730469 13.070312 16.242188 13.070312 C 15.597656 13.070312 15.527344 12.847656 15.527344 12.378906 C 15.527344 11.738281 15.691406 11.425781 15.847656 11.128906 C 15.984375 10.867188 16.125 10.597656 16.125 10.175781 C 16.125 8.675781 14.917969 8.167969 13.515625 7.578125 C 12.777344 7.265625 11.941406 6.914062 11.125 6.371094 L 10.929688 6.242188 C 11.859375 6.085938 13.566406 5.902344 16.433594 5.898438 M 24.539062 9.128906 C 24.539062 9.128906 24.546875 9.492188 24.546875 10.199219 C 24.546875 13.304688 22.257812 12.234375 22.019531 14.28125 C 22.738281 13.183594 23.878906 13.089844 24.222656 12.363281 C 24.855469 15.875 21.554688 16.410156 20.246094 16.785156 C 19.914062 16.890625 19.652344 17.0625 19.753906 17.417969 L 20.546875 20.128906 L 18.882812 19.066406 L 17.949219 23.671875 L 17.015625 19.066406 L 15.351562 20.128906 L 16.140625 17.417969 C 16.242188 17.0625 15.984375 16.890625 15.652344 16.785156 C 14.339844 16.410156 11.042969 15.875 11.675781 12.363281 C 12.019531 13.089844 13.15625 13.183594 13.875 14.28125 C 13.636719 12.234375 11.347656 13.304688 11.347656 10.199219 C 11.347656 9.492188 11.355469 9.128906 11.355469 9.128906 C 11.65625 10.261719 13.101562 10.21875 13.886719 11.554688 C 13.730469 9.113281 11.175781 10.488281 10.996094 6.566406 C 13.390625 8.164062 15.890625 8.113281 15.890625 10.175781 C 15.890625 10.996094 15.289062 11.113281 15.289062 12.378906 C 15.289062 12.945312 15.433594 13.304688 16.242188 13.304688 C 16.863281 13.304688 17.386719 13.105469 17.386719 12.523438 C 17.386719 12.214844 17.214844 11.90625 16.714844 11.90625 C 16.367188 11.90625 16.3125 12.011719 16.3125 12.011719 C 16.269531 11.710938 16.40625 11.289062 16.8125 11.289062 C 17.007812 11.289062 17.246094 11.367188 17.246094 11.367188 C 17.289062 11.367188 17.304688 11.347656 17.304688 11.316406 C 17.304688 11.234375 17.441406 11.082031 17.765625 11.082031 C 18.132812 11.082031 18.519531 11.21875 19.167969 11.148438 C 19.203125 11.25 19.015625 11.234375 19.015625 11.398438 C 19.015625 11.539062 19.230469 11.679688 19.230469 11.679688 C 19.230469 11.679688 19.019531 11.773438 19.019531 11.894531 C 19.019531 12.03125 19.21875 12.132812 19.21875 12.132812 C 19.21875 12.132812 18.890625 12.210938 18.890625 12.609375 C 18.890625 13.070312 19.34375 13.304688 19.652344 13.304688 C 20.460938 13.304688 20.605469 12.945312 20.605469 12.378906 C 20.605469 11.113281 20.003906 10.996094 20.003906 10.175781 C 20.003906 8.113281 22.503906 8.164062 24.898438 6.566406 C 24.722656 10.488281 22.167969 9.113281 22.011719 11.554688 C 22.792969 10.21875 24.242188 10.261719 24.539062 9.128906 M 16.738281 22.089844 C 16.738281 22.089844 9.59375 21.414062 9.59375 14.59375 C 9.59375 14.59375 10.058594 7.554688 10.132812 6.40625 C 10.25 6.375 10.449219 6.324219 10.746094 6.273438 L 10.761719 6.578125 C 10.796875 7.363281 10.929688 7.953125 11.117188 8.402344 L 11.113281 10.199219 C 11.113281 11.027344 11.269531 11.582031 11.503906 11.980469 L 11.441406 12.320312 C 10.824219 15.75 13.792969 16.535156 15.21875 16.914062 L 15.585938 17.011719 C 15.976562 17.136719 15.941406 17.261719 15.914062 17.355469 L 14.949219 20.664062 L 16.851562 19.449219 L 17.644531 23.359375 Z M 19.15625 22.089844 L 18.25 23.359375 L 19.042969 19.449219 L 20.945312 20.664062 L 19.980469 17.355469 C 19.957031 17.261719 19.917969 17.136719 20.3125 17.011719 L 20.679688 16.914062 C 22.101562 16.535156 25.074219 15.75 24.453125 12.320312 C 24.453125 12.320312 24.421875 12.148438 24.390625 11.980469 C 24.628906 11.582031 24.785156 11.027344 24.785156 10.199219 L 24.777344 8.402344 C 24.964844 7.953125 25.097656 7.363281 25.132812 6.578125 L 25.148438 6.273438 C 25.445312 6.324219 25.644531 6.375 25.765625 6.40625 C 25.839844 7.554688 26.300781 14.59375 26.304688 14.59375 C 26.304688 21.414062 19.15625 22.089844 19.15625 22.089844 "/>
<path style=" stroke:none;fill-rule:nonzero;fill:rgb(100%,100%,100%);fill-opacity:1;" d="M 17.496094 15.355469 C 17.542969 15.339844 17.585938 15.324219 17.632812 15.3125 L 17.945312 14.382812 L 18.261719 15.3125 C 18.308594 15.324219 18.355469 15.339844 18.398438 15.355469 L 17.945312 14.035156 Z M 17.496094 15.355469 "/>
<path style=" stroke:none;fill-rule:nonzero;fill:rgb(100%,100%,100%);fill-opacity:1;" d="M 18.984375 15.8125 L 19.925781 15.8125 L 19.203125 16.371094 C 19.207031 16.414062 19.210938 16.460938 19.214844 16.503906 L 20.257812 15.699219 L 18.894531 15.699219 C 18.925781 15.734375 18.957031 15.769531 18.984375 15.8125 "/>
<path style=" stroke:none;fill-rule:nonzero;fill:rgb(100%,100%,100%);fill-opacity:1;" d="M 16.691406 16.371094 L 15.96875 15.8125 L 16.910156 15.8125 C 16.9375 15.769531 16.96875 15.734375 17 15.699219 L 15.636719 15.699219 L 16.679688 16.503906 C 16.683594 16.460938 16.6875 16.414062 16.691406 16.371094 "/>
<path style=" stroke:none;fill-rule:nonzero;fill:rgb(100%,100%,100%);fill-opacity:1;" d="M 18.921875 17.347656 L 19.167969 18.160156 L 18.488281 17.683594 C 18.445312 17.703125 18.40625 17.71875 18.363281 17.734375 L 19.371094 18.441406 L 19.007812 17.230469 C 18.980469 17.273438 18.953125 17.3125 18.921875 17.347656 "/>
<path style=" stroke:none;fill-rule:nonzero;fill:rgb(100%,100%,100%);fill-opacity:1;" d="M 16.726562 18.160156 L 16.972656 17.347656 C 16.941406 17.3125 16.914062 17.273438 16.886719 17.230469 L 16.523438 18.441406 L 17.53125 17.734375 C 17.488281 17.71875 17.449219 17.703125 17.40625 17.683594 Z M 16.726562 18.160156 "/>
<path style=" stroke:none;fill-rule:nonzero;fill:rgb(100%,100%,100%);fill-opacity:1;" d="M 19.089844 16.539062 C 19.089844 16.257812 18.992188 16 18.820312 15.800781 C 18.726562 15.792969 18.675781 15.796875 18.59375 15.871094 C 18.636719 15.988281 18.628906 16.246094 18.628906 16.246094 C 18.601562 15.949219 18.523438 15.855469 18.523438 15.855469 C 18.523438 15.855469 18.296875 15.632812 18.015625 15.664062 L 18.011719 15.398438 C 17.988281 15.394531 17.96875 15.394531 17.949219 15.394531 C 17.34375 15.394531 16.847656 15.863281 16.804688 16.457031 C 16.863281 16.425781 16.910156 16.386719 16.910156 16.386719 C 16.953125 16.03125 17.164062 15.898438 17.164062 15.898438 L 17.1875 15.703125 L 17.207031 15.890625 C 17.433594 15.882812 17.550781 15.914062 17.550781 15.914062 C 17.726562 15.796875 17.894531 15.703125 17.894531 15.703125 C 17.738281 15.800781 17.574219 15.933594 17.574219 15.933594 C 17.5625 16.171875 17.644531 16.425781 17.644531 16.425781 C 17.351562 16.578125 17.320312 16.578125 17.21875 16.714844 C 17.195312 16.902344 17.25 17.113281 17.25 17.113281 C 17.164062 16.945312 17.175781 16.738281 17.175781 16.738281 C 17.039062 16.621094 16.925781 16.425781 16.925781 16.425781 C 16.890625 16.449219 16.824219 16.488281 16.804688 16.5 L 16.804688 16.539062 C 16.804688 16.847656 16.925781 17.128906 17.125 17.332031 L 17.265625 17.191406 C 17.441406 17.359375 17.71875 17.460938 17.78125 17.433594 C 17.839844 17.417969 17.980469 17.351562 18.070312 17.285156 C 17.933594 17.40625 17.792969 17.484375 17.792969 17.484375 C 17.804688 17.503906 17.8125 17.625 17.8125 17.675781 C 17.859375 17.679688 17.902344 17.683594 17.949219 17.683594 C 18.578125 17.683594 19.089844 17.171875 19.089844 16.539062 M 18.710938 17.359375 C 18.699219 17.191406 18.664062 17.109375 18.664062 17.109375 C 18.457031 17.183594 18.328125 17.183594 18.203125 17.179688 C 18.28125 16.984375 18.21875 16.707031 18.21875 16.707031 C 18.015625 16.628906 17.757812 16.539062 17.738281 16.484375 C 17.90625 16.558594 18.171875 16.675781 18.265625 16.636719 C 18.414062 16.578125 18.628906 16.335938 18.628906 16.335938 C 18.691406 16.40625 18.824219 16.511719 18.878906 16.671875 C 18.984375 16.644531 19.035156 16.609375 19.082031 16.539062 C 19.0625 16.644531 18.878906 16.710938 18.878906 16.710938 C 18.867188 16.832031 18.824219 17.003906 18.734375 17.074219 C 18.726562 17.121094 18.710938 17.359375 18.710938 17.359375 "/>
<path style=" stroke:none;fill-rule:nonzero;fill:rgb(100%,100%,100%);fill-opacity:1;" d="M 17.707031 12.59375 C 17.707031 12.941406 17.445312 13.175781 17.445312 13.175781 C 17.445312 13.175781 17.675781 13.054688 17.828125 13.261719 C 17.828125 13.261719 17.9375 13.070312 18.191406 13.070312 C 18.4375 13.070312 18.515625 13.261719 18.515625 13.261719 C 18.515625 13.261719 18.613281 13.085938 18.839844 13.152344 C 18.839844 13.152344 18.304688 12.714844 18.839844 12.152344 C 18.839844 12.152344 18.578125 11.914062 18.867188 11.707031 C 18.867188 11.707031 18.695312 11.617188 18.816406 11.40625 C 18.511719 11.535156 18.148438 11.304688 17.863281 11.304688 C 17.554688 11.304688 17.515625 11.496094 17.515625 11.496094 C 17.515625 11.496094 17.636719 11.597656 17.78125 11.597656 C 17.914062 11.597656 18.128906 11.503906 18.128906 11.503906 C 18.144531 11.601562 18.058594 11.8125 17.828125 11.8125 C 17.632812 11.8125 17.546875 11.667969 17.355469 11.570312 C 17.25 11.515625 17.113281 11.476562 16.914062 11.476562 C 16.558594 11.476562 16.527344 11.671875 16.503906 11.816406 C 16.503906 11.816406 16.582031 11.75 16.746094 11.75 C 17.347656 11.75 17.707031 12.082031 17.707031 12.59375 "/>
<path style=" stroke:none;fill-rule:nonzero;fill:rgb(13.72549%,12.156863%,12.54902%);fill-opacity:1;" d="M 23.417969 21.945312 L 23.59375 21.945312 L 23.59375 22.480469 L 23.65625 22.480469 L 23.65625 21.945312 L 23.84375 21.945312 L 23.84375 21.882812 L 23.417969 21.882812 Z M 23.417969 21.945312 "/>
<path style=" stroke:none;fill-rule:nonzero;fill:rgb(13.72549%,12.156863%,12.54902%);fill-opacity:1;" d="M 24.183594 22.367188 L 24.03125 21.882812 L 23.929688 21.882812 L 23.929688 22.480469 L 23.992188 22.480469 L 23.992188 21.972656 L 24.152344 22.480469 L 24.21875 22.480469 L 24.378906 21.972656 L 24.378906 22.480469 L 24.441406 22.480469 L 24.441406 21.882812 L 24.339844 21.882812 Z M 24.183594 22.367188 "/>
<path style=" stroke:none;fill-rule:nonzero;fill:rgb(98.039216%,74.117647%,7.843137%);fill-opacity:1;" d="M 18.984375 15.8125 C 19.097656 15.972656 19.175781 16.164062 19.203125 16.371094 L 19.925781 15.8125 Z M 18.984375 15.8125 "/>
<path style=" stroke:none;fill-rule:nonzero;fill:rgb(98.039216%,74.117647%,7.843137%);fill-opacity:1;" d="M 17.632812 15.3125 C 17.734375 15.285156 17.839844 15.269531 17.949219 15.269531 C 18.058594 15.269531 18.164062 15.285156 18.261719 15.3125 L 17.949219 14.382812 Z M 17.632812 15.3125 "/>
<path style=" stroke:none;fill-rule:nonzero;fill:rgb(98.039216%,74.117647%,7.843137%);fill-opacity:1;" d="M 15.96875 15.8125 L 16.691406 16.371094 C 16.71875 16.164062 16.796875 15.972656 16.910156 15.8125 Z M 15.96875 15.8125 "/>
<path style=" stroke:none;fill-rule:nonzero;fill:rgb(98.039216%,74.117647%,7.843137%);fill-opacity:1;" d="M 16.972656 17.347656 L 16.726562 18.160156 L 17.40625 17.683594 C 17.238281 17.605469 17.089844 17.488281 16.972656 17.347656 "/>
<path style=" stroke:none;fill-rule:nonzero;fill:rgb(98.039216%,74.117647%,7.843137%);fill-opacity:1;" d="M 18.488281 17.683594 L 19.167969 18.160156 L 18.921875 17.347656 C 18.804688 17.488281 18.65625 17.605469 18.488281 17.683594 "/>
<path style=" stroke:none;fill-rule:nonzero;fill:rgb(92.941176%,10.980392%,14.117647%);fill-opacity:1;" d="M 25.765625 6.40625 C 25.644531 6.375 25.445312 6.324219 25.148438 6.269531 L 25.132812 6.578125 C 25.097656 7.363281 24.964844 7.953125 24.777344 8.402344 L 24.785156 10.199219 C 24.785156 11.027344 24.625 11.582031 24.390625 11.980469 C 24.421875 12.148438 24.453125 12.320312 24.453125 12.320312 C 25.074219 15.75 22.101562 16.535156 20.679688 16.914062 L 20.308594 17.011719 C 19.917969 17.136719 19.953125 17.261719 19.980469 17.351562 L 20.945312 20.664062 L 19.042969 19.449219 L 18.25 23.359375 L 19.15625 22.089844 C 19.15625 22.089844 26.300781 21.414062 26.300781 14.59375 C 26.300781 14.59375 25.839844 7.554688 25.765625 6.40625 "/>
<path style=" stroke:none;fill-rule:nonzero;fill:rgb(92.941176%,10.980392%,14.117647%);fill-opacity:1;" d="M 13.515625 7.578125 C 14.917969 8.167969 16.125 8.675781 16.125 10.175781 C 16.125 10.597656 15.984375 10.867188 15.847656 11.128906 C 15.6875 11.425781 15.527344 11.738281 15.527344 12.378906 C 15.527344 12.847656 15.597656 13.070312 16.242188 13.070312 C 16.730469 13.070312 17.140625 12.921875 17.140625 12.550781 C 17.140625 12.175781 16.929688 12.132812 16.65625 12.132812 C 16.386719 12.132812 16.230469 12.351562 16.109375 12.53125 C 16.109375 12.53125 16.078125 12.351562 16.078125 12.054688 C 16.078125 11.761719 16.101562 11.050781 16.839844 11.050781 C 16.964844 11.050781 17.152344 11.085938 17.152344 11.085938 C 17.152344 11.085938 17.355469 10.84375 17.726562 10.84375 C 18.273438 10.84375 18.433594 10.996094 19.402344 10.886719 C 19.449219 11.226562 19.304688 11.398438 19.304688 11.398438 C 19.304688 11.511719 19.660156 11.722656 19.660156 11.722656 C 19.660156 11.722656 19.308594 11.8125 19.308594 11.90625 C 19.308594 11.988281 19.792969 12.199219 19.792969 12.199219 C 19.398438 12.230469 19.121094 12.355469 19.121094 12.609375 C 19.121094 12.863281 19.355469 13.070312 19.652344 13.070312 C 20.296875 13.070312 20.367188 12.847656 20.367188 12.378906 C 20.367188 11.738281 20.203125 11.425781 20.046875 11.128906 C 19.910156 10.867188 19.769531 10.597656 19.769531 10.175781 C 19.769531 8.675781 20.976562 8.167969 22.378906 7.578125 C 23.117188 7.265625 23.953125 6.914062 24.769531 6.371094 L 24.964844 6.238281 C 24.035156 6.085938 22.328125 5.902344 19.464844 5.898438 L 17.945312 6.941406 L 16.433594 5.898438 C 13.566406 5.902344 11.859375 6.085938 10.929688 6.238281 L 11.125 6.371094 C 11.941406 6.914062 12.777344 7.265625 13.515625 7.578125 "/>
<path style=" stroke:none;fill-rule:nonzero;fill:rgb(92.941176%,10.980392%,14.117647%);fill-opacity:1;" d="M 14.949219 20.664062 L 15.914062 17.355469 C 15.941406 17.261719 15.976562 17.136719 15.582031 17.011719 L 15.21875 16.914062 C 13.792969 16.535156 10.824219 15.75 11.441406 12.320312 L 11.503906 11.980469 C 11.269531 11.582031 11.113281 11.027344 11.113281 10.199219 L 11.117188 8.402344 C 10.929688 7.953125 10.796875 7.363281 10.761719 6.578125 L 10.746094 6.269531 C 10.449219 6.324219 10.25 6.375 10.132812 6.40625 C 10.054688 7.554688 9.59375 14.59375 9.59375 14.59375 C 9.59375 21.414062 16.738281 22.089844 16.738281 22.089844 L 17.644531 23.359375 L 16.851562 19.449219 Z M 14.949219 20.664062 "/>
<path style=" stroke:none;fill-rule:nonzero;fill:rgb(92.941176%,10.980392%,14.117647%);fill-opacity:1;" d="M 17.78125 11.597656 C 17.636719 11.597656 17.515625 11.496094 17.515625 11.496094 C 17.4375 11.558594 17.382812 11.570312 17.355469 11.570312 C 17.546875 11.671875 17.632812 11.8125 17.828125 11.8125 C 18.058594 11.8125 18.144531 11.601562 18.128906 11.503906 C 18.128906 11.503906 17.914062 11.597656 17.78125 11.597656 "/>
<g clip-path="url(#clip2)" clip-rule="nonzero">
<path style=" stroke:none;fill-rule:nonzero;fill:rgb(13.72549%,12.156863%,12.54902%);fill-opacity:1;" d="M 27.144531 0.941406 C 27.144531 0.941406 25.449219 0 17.945312 0 C 10.445312 0 8.75 0.941406 8.75 0.941406 L 9.4375 6.242188 L 8.886719 14.582031 C 8.886719 21.8125 16.347656 22.75 16.347656 22.75 L 17.945312 25 L 19.550781 22.75 C 19.550781 22.75 27.007812 21.8125 27.007812 14.582031 L 26.457031 6.242188 Z M 9.261719 1.25 C 10 1.015625 12.300781 0.46875 17.945312 0.46875 C 23.59375 0.46875 25.898438 1.015625 26.632812 1.25 L 26.046875 5.75 C 25.644531 5.621094 23.957031 5.195312 19.246094 5.195312 L 17.945312 6.085938 L 16.648438 5.195312 C 11.9375 5.195312 10.25 5.621094 9.847656 5.75 Z M 26.539062 14.59375 C 26.539062 21.558594 19.285156 22.3125 19.285156 22.3125 L 17.945312 24.191406 L 16.609375 22.3125 C 16.609375 22.3125 9.355469 21.558594 9.355469 14.59375 L 9.910156 6.226562 C 9.910156 6.226562 11.402344 5.664062 16.503906 5.664062 L 17.945312 6.65625 L 19.390625 5.664062 C 24.488281 5.664062 25.984375 6.226562 25.984375 6.226562 L 26.535156 14.59375 Z M 26.539062 14.59375 "/>
</g>
<path style=" stroke:none;fill-rule:nonzero;fill:rgb(13.72549%,12.156863%,12.54902%);fill-opacity:1;" d="M 20.003906 10.175781 C 20.003906 10.996094 20.605469 11.113281 20.605469 12.378906 C 20.605469 12.945312 20.460938 13.304688 19.652344 13.304688 C 19.34375 13.304688 18.890625 13.070312 18.890625 12.609375 C 18.890625 12.210938 19.21875 12.132812 19.21875 12.132812 C 19.21875 12.132812 19.015625 12.03125 19.015625 11.894531 C 19.015625 11.773438 19.230469 11.679688 19.230469 11.679688 C 19.230469 11.679688 19.015625 11.535156 19.015625 11.398438 C 19.015625 11.234375 19.203125 11.25 19.167969 11.148438 C 18.519531 11.21875 18.128906 11.082031 17.765625 11.082031 C 17.4375 11.082031 17.300781 11.234375 17.300781 11.316406 C 17.300781 11.347656 17.289062 11.367188 17.246094 11.367188 C 17.246094 11.367188 17.007812 11.289062 16.8125 11.289062 C 16.40625 11.289062 16.269531 11.707031 16.3125 12.007812 C 16.3125 12.007812 16.363281 11.90625 16.714844 11.90625 C 17.214844 11.90625 17.382812 12.214844 17.382812 12.523438 C 17.382812 13.105469 16.863281 13.304688 16.242188 13.304688 C 15.433594 13.304688 15.289062 12.945312 15.289062 12.378906 C 15.289062 11.113281 15.890625 10.996094 15.890625 10.175781 C 15.890625 8.113281 13.390625 8.160156 10.996094 6.566406 C 11.171875 10.488281 13.726562 9.113281 13.886719 11.554688 C 13.101562 10.21875 11.65625 10.261719 11.355469 9.128906 C 11.355469 9.128906 11.347656 9.492188 11.347656 10.199219 C 11.347656 13.304688 13.632812 12.234375 13.875 14.28125 C 13.15625 13.183594 12.015625 13.089844 11.671875 12.359375 C 11.042969 15.875 14.339844 16.410156 15.648438 16.785156 C 15.980469 16.890625 16.242188 17.0625 16.140625 17.417969 L 15.351562 20.128906 L 17.011719 19.066406 L 17.945312 23.671875 L 18.882812 19.066406 L 20.542969 20.128906 L 19.753906 17.417969 C 19.652344 17.0625 19.910156 16.890625 20.246094 16.785156 C 21.554688 16.410156 24.855469 15.875 24.222656 12.359375 C 23.878906 13.089844 22.738281 13.183594 22.015625 14.28125 C 22.257812 12.234375 24.546875 13.304688 24.546875 10.199219 C 24.546875 9.492188 24.539062 9.128906 24.539062 9.128906 C 24.238281 10.261719 22.792969 10.214844 22.011719 11.554688 C 22.164062 9.113281 24.722656 10.488281 24.898438 6.566406 C 22.503906 8.160156 20.003906 8.113281 20.003906 10.175781 M 17.792969 17.484375 C 17.792969 17.484375 17.933594 17.40625 18.070312 17.285156 C 17.980469 17.351562 17.839844 17.417969 17.78125 17.433594 C 17.71875 17.460938 17.4375 17.359375 17.265625 17.191406 L 17.125 17.332031 C 16.925781 17.128906 16.800781 16.847656 16.800781 16.539062 L 16.804688 16.5 C 16.824219 16.488281 16.890625 16.449219 16.925781 16.421875 C 16.925781 16.421875 17.039062 16.621094 17.175781 16.734375 C 17.175781 16.734375 17.164062 16.945312 17.25 17.113281 C 17.25 17.113281 17.195312 16.902344 17.21875 16.714844 C 17.320312 16.578125 17.351562 16.578125 17.644531 16.421875 C 17.644531 16.421875 17.5625 16.171875 17.570312 15.933594 C 17.570312 15.933594 17.738281 15.800781 17.894531 15.703125 C 17.894531 15.703125 17.726562 15.796875 17.550781 15.914062 C 17.550781 15.914062 17.433594 15.882812 17.207031 15.890625 L 17.1875 15.703125 L 17.160156 15.898438 C 17.160156 15.898438 16.953125 16.03125 16.910156 16.386719 C 16.910156 16.386719 16.863281 16.425781 16.804688 16.457031 C 16.847656 15.863281 17.339844 15.394531 17.945312 15.394531 C 17.96875 15.394531 17.988281 15.394531 18.007812 15.398438 L 18.015625 15.664062 C 18.292969 15.632812 18.523438 15.855469 18.523438 15.855469 C 18.523438 15.855469 18.601562 15.945312 18.628906 16.246094 C 18.628906 16.246094 18.636719 15.988281 18.59375 15.871094 C 18.675781 15.796875 18.726562 15.792969 18.820312 15.800781 C 18.988281 16 19.089844 16.257812 19.089844 16.539062 C 19.089844 17.171875 18.578125 17.683594 17.945312 17.683594 C 17.902344 17.683594 17.859375 17.679688 17.8125 17.675781 C 17.8125 17.625 17.804688 17.507812 17.792969 17.484375 M 18.261719 15.3125 C 18.160156 15.285156 18.054688 15.269531 17.945312 15.269531 C 17.835938 15.269531 17.730469 15.285156 17.628906 15.3125 C 17.585938 15.324219 17.542969 15.339844 17.496094 15.355469 L 17.945312 14.035156 L 18.398438 15.355469 C 18.351562 15.339844 18.308594 15.324219 18.261719 15.3125 M 16.746094 11.75 C 16.582031 11.75 16.503906 11.816406 16.503906 11.816406 C 16.523438 11.671875 16.558594 11.476562 16.914062 11.476562 C 17.113281 11.476562 17.25 11.515625 17.355469 11.570312 C 17.382812 11.570312 17.4375 11.558594 17.515625 11.496094 C 17.515625 11.496094 17.554688 11.304688 17.863281 11.304688 C 18.148438 11.304688 18.511719 11.53125 18.816406 11.40625 C 18.695312 11.617188 18.867188 11.707031 18.867188 11.707031 C 18.578125 11.914062 18.839844 12.152344 18.839844 12.152344 C 18.304688 12.714844 18.835938 13.152344 18.835938 13.152344 C 18.609375 13.085938 18.515625 13.261719 18.515625 13.261719 C 18.515625 13.261719 18.433594 13.070312 18.191406 13.070312 C 17.9375 13.070312 17.824219 13.261719 17.824219 13.261719 C 17.675781 13.054688 17.445312 13.175781 17.445312 13.175781 C 17.445312 13.175781 17.707031 12.941406 17.707031 12.59375 C 17.707031 12.082031 17.347656 11.75 16.746094 11.75 M 15.636719 15.699219 L 17 15.699219 C 16.96875 15.734375 16.9375 15.769531 16.910156 15.8125 C 16.796875 15.972656 16.71875 16.164062 16.691406 16.371094 C 16.6875 16.414062 16.683594 16.460938 16.679688 16.503906 Z M 16.519531 18.441406 L 16.886719 17.230469 C 16.914062 17.273438 16.941406 17.3125 16.972656 17.347656 C 17.089844 17.488281 17.238281 17.605469 17.40625 17.683594 C 17.445312 17.703125 17.488281 17.71875 17.53125 17.734375 Z M 18.363281 17.734375 C 18.40625 17.71875 18.445312 17.703125 18.488281 17.683594 C 18.65625 17.605469 18.804688 17.488281 18.921875 17.347656 C 18.953125 17.3125 18.980469 17.273438 19.007812 17.230469 L 19.371094 18.441406 Z M 19.214844 16.503906 C 19.210938 16.460938 19.207031 16.414062 19.203125 16.371094 C 19.175781 16.164062 19.097656 15.972656 18.984375 15.8125 C 18.957031 15.769531 18.925781 15.734375 18.894531 15.699219 L 20.257812 15.699219 Z M 19.214844 16.503906 "/>
<path style=" stroke:none;fill-rule:nonzero;fill:rgb(13.72549%,12.156863%,12.54902%);fill-opacity:1;" d="M 18.203125 17.179688 C 18.328125 17.183594 18.457031 17.183594 18.664062 17.109375 C 18.664062 17.109375 18.699219 17.191406 18.710938 17.359375 C 18.710938 17.359375 18.726562 17.121094 18.734375 17.074219 C 18.824219 17.003906 18.867188 16.832031 18.878906 16.710938 C 18.878906 16.710938 19.058594 16.644531 19.082031 16.539062 C 19.035156 16.609375 18.984375 16.644531 18.878906 16.671875 C 18.824219 16.511719 18.691406 16.40625 18.628906 16.335938 C 18.628906 16.335938 18.414062 16.578125 18.265625 16.636719 C 18.171875 16.675781 17.90625 16.558594 17.738281 16.484375 C 17.757812 16.539062 18.015625 16.628906 18.21875 16.707031 C 18.21875 16.707031 18.28125 16.984375 18.203125 17.179688 "/>
<path style=" stroke:none;fill-rule:nonzero;fill:rgb(13.72549%,12.156863%,12.54902%);fill-opacity:1;" d="M 10.21875 1.375 L 10.714844 5.128906 L 10.546875 5.152344 L 10.558594 5.238281 L 11.351562 5.136719 C 11.988281 5.050781 11.996094 4.210938 11.894531 3.449219 L 11.816406 2.847656 C 11.570312 1.304688 11.199219 1.160156 10.640625 1.234375 L 10.042969 1.3125 L 10.050781 1.398438 Z M 11.097656 1.664062 L 11.503906 4.761719 C 11.527344 4.933594 11.472656 5.03125 11.257812 5.058594 L 10.765625 1.304688 C 10.96875 1.28125 11.050781 1.304688 11.097656 1.664062 "/>
<path style=" stroke:none;fill-rule:nonzero;fill:rgb(13.72549%,12.156863%,12.54902%);fill-opacity:1;" d="M 12.433594 5.019531 C 12.585938 4.996094 12.648438 4.8125 12.625 4.632812 C 12.601562 4.449219 12.472656 4.289062 12.339844 4.304688 C 12.203125 4.324219 12.121094 4.511719 12.144531 4.695312 C 12.167969 4.875 12.285156 5.039062 12.433594 5.019531 "/>
<path style=" stroke:none;fill-rule:nonzero;fill:rgb(13.72549%,12.156863%,12.54902%);fill-opacity:1;" d="M 12.761719 3.28125 C 12.820312 4.25 13.042969 4.972656 13.539062 4.941406 C 13.980469 4.914062 14.074219 4.238281 13.996094 3.246094 L 13.929688 3.25 C 14.015625 4.285156 13.859375 4.800781 13.59375 4.816406 C 13.476562 4.824219 13.410156 4.738281 13.394531 4.457031 L 13.195312 1.175781 C 13.1875 1.101562 13.210938 0.992188 13.289062 0.988281 C 13.445312 0.976562 13.597656 1.121094 13.875 2.488281 L 13.9375 2.484375 L 13.835938 0.859375 L 13.792969 0.863281 L 13.617188 1.191406 C 13.535156 0.988281 13.425781 0.875 13.234375 0.886719 C 12.953125 0.902344 12.636719 1.203125 12.71875 2.566406 Z M 12.761719 3.28125 "/>
<path style=" stroke:none;fill-rule:nonzero;fill:rgb(13.72549%,12.156863%,12.54902%);fill-opacity:1;" d="M 14.503906 4.859375 C 14.65625 4.851562 14.734375 4.667969 14.722656 4.488281 C 14.710938 4.304688 14.59375 4.132812 14.460938 4.140625 C 14.320312 4.152344 14.226562 4.332031 14.238281 4.519531 C 14.246094 4.699219 14.351562 4.867188 14.503906 4.859375 "/>
<path style=" stroke:none;fill-rule:nonzero;fill:rgb(13.72549%,12.156863%,12.54902%);fill-opacity:1;" d="M 15.207031 0.90625 L 15.320312 4.050781 C 15.339844 4.632812 15.589844 4.832031 15.945312 4.820312 C 16.335938 4.804688 16.578125 4.597656 16.554688 3.875 L 16.457031 1.121094 C 16.449219 0.929688 16.511719 0.875 16.632812 0.859375 L 16.628906 0.769531 L 16.125 0.789062 L 16.128906 0.875 C 16.265625 0.871094 16.359375 0.921875 16.363281 1.125 L 16.460938 3.929688 C 16.480469 4.480469 16.296875 4.679688 16.117188 4.6875 C 15.925781 4.695312 15.886719 4.613281 15.882812 4.453125 L 15.757812 0.886719 L 15.925781 0.882812 L 15.925781 0.792969 L 15.03125 0.824219 L 15.035156 0.914062 Z M 15.207031 0.90625 "/>
<path style=" stroke:none;fill-rule:nonzero;fill:rgb(13.72549%,12.156863%,12.54902%);fill-opacity:1;" d="M 17.464844 4.679688 C 17.339844 4.6875 17.238281 4.605469 17.238281 4.308594 L 17.238281 1.109375 L 17.25 1.109375 L 17.949219 4.769531 L 18.332031 4.769531 L 18.332031 1.195312 C 18.332031 1.003906 18.425781 0.898438 18.542969 0.894531 L 18.542969 0.804688 L 18.027344 0.804688 L 18.027344 0.894531 C 18.15625 0.90625 18.242188 0.972656 18.242188 1.21875 L 18.242188 3.5625 L 18.234375 3.5625 C 18.09375 2.632812 17.878906 1.726562 17.707031 0.804688 L 16.96875 0.804688 L 16.96875 0.894531 L 17.148438 0.894531 L 17.148438 4.296875 C 17.148438 4.542969 17.074219 4.648438 16.90625 4.679688 L 16.90625 4.769531 L 17.464844 4.769531 Z M 17.464844 4.679688 "/>
<path style=" stroke:none;fill-rule:nonzero;fill:rgb(13.72549%,12.156863%,12.54902%);fill-opacity:1;" d="M 19.726562 4.695312 L 19.515625 4.691406 L 19.582031 0.90625 L 19.777344 0.910156 L 19.78125 0.820312 L 18.835938 0.804688 L 18.835938 0.890625 L 19.03125 0.894531 L 18.964844 4.683594 L 18.769531 4.679688 L 18.769531 4.765625 L 19.722656 4.78125 Z M 19.726562 4.695312 "/>
<path style=" stroke:none;fill-rule:nonzero;fill:rgb(13.72549%,12.156863%,12.54902%);fill-opacity:1;" d="M 20.742188 0.941406 L 20.75 0.941406 L 20.550781 4.734375 L 20.363281 4.722656 L 20.359375 4.808594 L 21.28125 4.859375 L 21.289062 4.769531 L 21.101562 4.761719 L 21.300781 0.96875 L 21.308594 0.96875 C 21.484375 0.984375 21.601562 1.453125 21.6875 2.609375 L 21.75 2.613281 L 21.839844 0.921875 L 20.21875 0.835938 L 20.128906 2.527344 L 20.191406 2.53125 C 20.398438 1.386719 20.566406 0.9375 20.742188 0.941406 "/>
<path style=" stroke:none;fill-rule:nonzero;fill:rgb(13.72549%,12.156863%,12.54902%);fill-opacity:1;" d="M 23.546875 3.425781 L 23.484375 3.421875 C 23.441406 3.648438 23.402344 3.804688 23.269531 4.25 C 23.097656 4.839844 22.988281 4.898438 22.757812 4.878906 L 22.625 4.867188 L 22.777344 2.984375 C 23.03125 3.03125 23.078125 3.273438 23.082031 4 L 23.128906 4 L 23.296875 1.980469 L 23.234375 1.976562 C 23.144531 2.699219 23.019531 2.867188 22.785156 2.894531 L 22.9375 1.09375 L 23.167969 1.113281 C 23.449219 1.136719 23.5 1.464844 23.5625 2.5625 L 23.621094 2.570312 L 23.746094 1.074219 L 22.226562 0.945312 L 22.21875 1.035156 L 22.386719 1.046875 L 22.074219 4.820312 L 21.90625 4.808594 L 21.898438 4.894531 L 23.417969 5.019531 Z M 23.546875 3.425781 "/>
<path style=" stroke:none;fill-rule:nonzero;fill:rgb(13.72549%,12.156863%,12.54902%);fill-opacity:1;" d="M 25.511719 3.636719 L 25.578125 3.03125 C 25.707031 1.472656 25.382812 1.246094 24.816406 1.183594 L 24.21875 1.117188 L 24.207031 1.203125 L 24.378906 1.222656 L 23.964844 4.988281 L 23.796875 4.96875 L 23.785156 5.054688 L 24.582031 5.144531 C 25.222656 5.214844 25.425781 4.398438 25.511719 3.636719 M 24.921875 1.285156 C 25.128906 1.308594 25.199219 1.351562 25.160156 1.710938 L 24.820312 4.816406 C 24.800781 4.992188 24.722656 5.070312 24.511719 5.046875 Z M 24.921875 1.285156 "/>
</g>
</svg>
