<?xml version="1.0" encoding="UTF-8"?>
<svg xmlns="http://www.w3.org/2000/svg" xmlns:xlink="http://www.w3.org/1999/xlink" width="35pt" height="25pt" viewBox="0 0 35 25" version="1.1">
<g id="surface1">
<path style=" stroke:none;fill-rule:nonzero;fill:rgb(0%,27.843137%,6.666667%);fill-opacity:1;" d="M 26.316406 21.386719 L 26.136719 21.386719 L 26.136719 21.25 L 26.652344 21.25 L 26.652344 21.386719 L 26.46875 21.386719 L 26.46875 21.851562 L 26.316406 21.851562 "/>
<path style=" stroke:none;fill-rule:nonzero;fill:rgb(0%,27.843137%,6.666667%);fill-opacity:1;" d="M 26.953125 21.851562 L 26.847656 21.492188 L 26.847656 21.851562 L 26.710938 21.851562 L 26.710938 21.25 L 26.902344 21.25 L 27.019531 21.632812 L 27.132812 21.25 L 27.324219 21.25 L 27.324219 21.851562 L 27.179688 21.851562 L 27.179688 21.492188 L 27.070312 21.851562 "/>
<path style=" stroke:none;fill-rule:nonzero;fill:rgb(0%,27.843137%,6.666667%);fill-opacity:1;" d="M 29.429688 13.066406 C 29.460938 12.703125 29.476562 12.339844 29.476562 11.96875 C 29.476562 8.550781 28.113281 5.46875 25.921875 3.289062 C 25.71875 2.410156 25.445312 1.859375 25.417969 1.804688 L 25.136719 1.25 L 24.566406 1.449219 C 24.34375 1.527344 24.113281 1.601562 23.886719 1.671875 C 22.179688 0.609375 20.191406 0 18.0625 0 C 15.933594 0 13.941406 0.613281 12.234375 1.675781 C 11.832031 1.550781 11.609375 1.464844 11.601562 1.460938 L 10.988281 1.214844 L 10.707031 1.835938 C 10.488281 2.324219 10.332031 2.804688 10.222656 3.273438 C 8.023438 5.453125 6.652344 8.542969 6.652344 11.96875 C 6.652344 12.347656 6.667969 12.722656 6.703125 13.09375 L 6 13.832031 C 6.3125 16.082031 7.1875 18.140625 8.464844 19.851562 L 9.480469 19.851562 C 11.105469 21.792969 13.320312 23.179688 15.835938 23.703125 C 15.804688 23.992188 15.789062 24.199219 15.785156 24.292969 C 15.796875 24.300781 16.039062 24.496094 16.222656 24.59375 C 16.59375 24.792969 17.183594 25 18.058594 25 L 18.117188 25 C 19.515625 24.996094 20.191406 24.476562 20.390625 24.289062 C 20.390625 24.199219 20.367188 23.992188 20.332031 23.695312 C 22.828125 23.167969 25.03125 21.785156 26.648438 19.851562 L 27.691406 19.851562 C 28.972656 18.140625 29.84375 16.082031 30.15625 13.832031 "/>
<path style=" stroke:none;fill-rule:nonzero;fill:rgb(100%,100%,100%);fill-opacity:1;" d="M 18.09375 7.417969 C 17.640625 7.417969 17.207031 7.4375 16.796875 7.46875 C 16.859375 7.886719 17.0625 9.367188 17.0625 11.121094 C 17.0625 11.75 17.054688 12.859375 17.035156 14.191406 L 19.171875 14.191406 C 19.152344 12.859375 19.144531 11.75 19.144531 11.121094 C 19.144531 9.328125 19.355469 7.839844 19.414062 7.472656 C 18.996094 7.4375 18.558594 7.417969 18.09375 7.417969 M 18.085938 6.703125 C 22.601562 6.703125 24.804688 8.316406 24.804688 8.316406 C 26.242188 4.996094 24.804688 2.160156 24.804688 2.160156 C 17.578125 4.691406 11.328125 2.160156 11.328125 2.160156 C 9.914062 5.300781 11.324219 8.316406 11.324219 8.316406 C 11.324219 8.316406 13.574219 6.703125 18.085938 6.703125 M 19.601562 23.832031 C 19.503906 22.960938 19.421875 21.8125 19.359375 20.558594 L 16.847656 20.558594 C 16.785156 21.8125 16.707031 22.960938 16.605469 23.832031 C 16.605469 23.832031 16.96875 24.230469 18.101562 24.230469 L 18.105469 24.230469 C 19.238281 24.230469 19.601562 23.832031 19.601562 23.832031 Z M 17.144531 17.496094 L 17.144531 15.667969 L 17.867188 15.667969 L 18.039062 15.125 L 15.652344 15.125 L 15.824219 15.667969 L 16.542969 15.667969 L 16.542969 17.496094 Z M 18.863281 15.125 L 18.265625 15.125 L 18.265625 17.496094 L 19.820312 17.496094 L 20.015625 16.96875 L 18.863281 16.96875 Z M 26.652344 16.386719 C 26.652344 16.816406 26.582031 17.011719 26.195312 17.011719 L 25.878906 17.011719 L 25.878906 15.625 L 26.195312 15.625 C 26.582031 15.625 26.652344 15.804688 26.652344 16.234375 Z M 26.195312 15.125 L 25.277344 15.125 L 25.277344 17.496094 L 26.195312 17.496094 C 26.933594 17.496094 27.28125 17.363281 27.28125 16.308594 C 27.28125 15.257812 26.933594 15.125 26.195312 15.125 M 24.253906 15.921875 L 23.417969 15.125 L 22.8125 15.125 L 22.8125 17.496094 L 23.386719 17.496094 L 23.386719 15.933594 L 24.25 16.796875 L 24.25 17.496094 L 24.832031 17.496094 L 24.832031 15.125 L 24.253906 15.125 Z M 20.976562 16.671875 L 21.234375 15.941406 L 21.484375 16.671875 Z M 20.96875 15.109375 L 20.082031 17.496094 L 20.691406 17.496094 L 20.804688 17.167969 L 21.65625 17.167969 L 21.769531 17.496094 L 22.410156 17.496094 L 21.527344 15.109375 Z M 9.777344 16.382812 L 9.367188 16.382812 L 9.367188 15.628906 L 9.773438 15.628906 C 9.902344 15.628906 10.054688 15.640625 10.054688 16.003906 C 10.054688 16.367188 9.910156 16.382812 9.777344 16.382812 M 9.777344 15.125 L 8.769531 15.125 L 8.769531 17.496094 L 9.367188 17.496094 L 9.367188 16.878906 L 9.773438 16.878906 C 10.351562 16.878906 10.660156 16.75 10.660156 16 C 10.660156 15.242188 10.359375 15.125 9.777344 15.125 M 12.601562 16.402344 C 12.601562 16.851562 12.496094 17.011719 12.121094 17.011719 C 11.746094 17.011719 11.636719 16.84375 11.636719 16.394531 L 11.636719 16.207031 C 11.636719 15.761719 11.742188 15.621094 12.113281 15.621094 C 12.492188 15.621094 12.601562 15.769531 12.601562 16.21875 Z M 12.121094 15.085938 C 11.445312 15.085938 11.003906 15.269531 11.003906 16.308594 C 11.003906 17.351562 11.4375 17.535156 12.113281 17.535156 C 12.792969 17.535156 13.230469 17.34375 13.230469 16.300781 C 13.230469 15.261719 12.800781 15.085938 12.121094 15.085938 M 14.625 16.351562 L 14.246094 16.351562 L 14.246094 15.628906 L 14.621094 15.628906 C 14.804688 15.628906 14.90625 15.683594 14.90625 15.988281 C 14.90625 16.28125 14.820312 16.347656 14.625 16.347656 M 15.507812 15.980469 C 15.507812 15.226562 15.210938 15.125 14.625 15.125 L 13.648438 15.125 L 13.648438 17.496094 L 14.246094 17.496094 L 14.246094 16.847656 L 14.574219 16.847656 L 15.003906 17.496094 L 15.6875 17.496094 L 15.164062 16.703125 C 15.390625 16.632812 15.507812 16.449219 15.507812 15.980469 "/>
<path style=" stroke:none;fill-rule:nonzero;fill:rgb(92.156863%,90.588235%,16.078431%);fill-opacity:1;" d="M 16.058594 7.722656 L 9.867188 14.199219 L 10.902344 14.199219 L 16.171875 8.6875 C 16.125 8.175781 16.074219 7.832031 16.058594 7.722656 M 12.628906 19.871094 L 12.628906 18.570312 L 13.144531 18.570312 L 13.265625 18.183594 L 11.566406 18.183594 L 11.6875 18.570312 L 12.199219 18.570312 L 12.199219 19.871094 Z M 20.660156 19.492188 L 19.800781 19.492188 L 19.800781 19.214844 L 20.113281 19.214844 L 20.234375 18.832031 L 19.800781 18.832031 L 19.800781 18.570312 L 20.539062 18.570312 L 20.660156 18.179688 L 19.371094 18.179688 L 19.371094 19.871094 L 20.539062 19.871094 Z M 14.1875 18.183594 L 13.757812 18.183594 L 13.757812 19.871094 L 14.1875 19.871094 Z M 15.511719 22.402344 C 13.324219 21.816406 11.421875 20.492188 10.050781 18.703125 L 8.910156 18.703125 C 8.066406 17.359375 7.46875 15.835938 7.183594 14.199219 L 7.1875 14.199219 L 7.164062 14.085938 L 12.554688 8.472656 C 11.988281 8.722656 11.695312 8.921875 11.691406 8.929688 L 11.179688 9.289062 L 7.820312 12.785156 C 7.800781 12.515625 7.789062 12.242188 7.789062 11.96875 C 7.789062 9.4375 8.621094 7.117188 10.011719 5.277344 C 10.007812 5.160156 10.007812 5.042969 10.011719 4.921875 L 10.011719 4.90625 C 10.015625 4.789062 10.023438 4.667969 10.03125 4.546875 C 10.089844 3.703125 10.28125 2.785156 10.699219 1.855469 C 10.363281 2.410156 9.722656 3.640625 9.570312 5.125 C 8.179688 7.019531 7.351562 9.390625 7.351562 11.96875 C 7.351562 12.382812 7.375 12.796875 7.417969 13.199219 L 6.753906 13.894531 L 6.757812 13.894531 L 6.757812 13.898438 L 6.824219 14.265625 C 7.113281 15.933594 7.714844 17.496094 8.605469 18.914062 L 8.714844 19.085938 L 9.777344 19.085938 C 11.203125 20.90625 13.164062 22.25 15.410156 22.847656 C 15.507812 23.214844 15.636719 23.640625 15.800781 24.035156 C 15.824219 23.800781 15.859375 23.433594 15.914062 22.972656 L 15.9375 22.757812 L 15.941406 22.710938 C 15.949219 22.644531 15.957031 22.582031 15.964844 22.511719 C 15.816406 22.480469 15.671875 22.445312 15.527344 22.40625 L 15.511719 22.402344 M 15.765625 18.847656 L 15.441406 18.183594 L 14.90625 18.183594 L 14.90625 19.875 L 15.28125 19.875 L 15.28125 18.863281 L 15.554688 19.367188 L 15.554688 19.875 L 15.976562 19.875 L 15.976562 19.363281 L 16.21875 18.863281 L 16.21875 19.875 L 16.628906 19.875 L 16.628906 18.183594 L 16.09375 18.183594 Z M 13.21875 1.945312 C 13.339844 1.976562 13.46875 2.007812 13.601562 2.035156 L 13.640625 2.046875 L 13.824219 2.085938 L 13.855469 2.09375 L 13.921875 2.105469 C 15.1875 1.519531 16.589844 1.195312 18.0625 1.195312 C 19.539062 1.195312 20.941406 1.523438 22.207031 2.109375 C 22.414062 2.066406 22.613281 2.015625 22.816406 1.96875 L 22.910156 1.945312 L 22.90625 1.945312 C 23.445312 1.808594 23.980469 1.652344 24.503906 1.472656 C 24.011719 1.523438 23.179688 1.609375 22.398438 1.695312 C 21.074219 1.078125 19.605469 0.734375 18.0625 0.734375 C 16.523438 0.734375 15.058594 1.078125 13.734375 1.691406 C 12.9375 1.605469 12.09375 1.515625 11.613281 1.464844 C 11.703125 1.5 12.277344 1.71875 13.21875 1.945312 M 23.808594 19.519531 C 23.660156 19.519531 23.320312 19.476562 23.269531 19.460938 L 23.203125 19.835938 C 23.269531 19.851562 23.523438 19.894531 23.804688 19.894531 C 24.285156 19.894531 24.484375 19.765625 24.484375 19.386719 C 24.484375 18.980469 24.378906 18.925781 23.882812 18.832031 C 23.65625 18.789062 23.628906 18.785156 23.628906 18.667969 C 23.628906 18.578125 23.65625 18.542969 23.8125 18.542969 C 24.007812 18.542969 24.210938 18.574219 24.34375 18.59375 L 24.410156 18.222656 C 24.328125 18.195312 24 18.160156 23.816406 18.160156 C 23.429688 18.160156 23.195312 18.273438 23.195312 18.660156 C 23.195312 19.050781 23.296875 19.125 23.765625 19.210938 C 24.015625 19.257812 24.046875 19.265625 24.046875 19.378906 C 24.046875 19.496094 24.011719 19.519531 23.808594 19.519531 M 16.285156 12.078125 C 16.285156 11.847656 16.289062 11.636719 16.289062 11.449219 L 13.691406 14.199219 L 14.28125 14.199219 Z M 18.136719 19.523438 L 17.78125 19.523438 L 17.78125 19.171875 L 18.136719 19.171875 C 18.226562 19.171875 18.285156 19.214844 18.285156 19.351562 C 18.285156 19.484375 18.226562 19.523438 18.136719 19.523438 M 17.78125 18.539062 L 18.09375 18.539062 C 18.183594 18.539062 18.242188 18.558594 18.242188 18.691406 C 18.242188 18.824219 18.183594 18.847656 18.09375 18.847656 L 17.78125 18.847656 Z M 18.429688 18.992188 C 18.578125 18.949219 18.671875 18.867188 18.671875 18.601562 C 18.671875 18.253906 18.472656 18.183594 18.09375 18.183594 L 17.355469 18.183594 L 17.355469 19.871094 L 18.136719 19.871094 C 18.558594 19.871094 18.714844 19.75 18.714844 19.394531 C 18.714844 19.113281 18.578125 19.023438 18.429688 18.992188 M 26.316406 14.199219 L 20.027344 7.601562 L 20.011719 7.683594 C 20.011719 7.691406 19.960938 8.015625 19.902344 8.5625 L 25.28125 14.199219 Z M 22.550781 14.199219 L 19.910156 11.429688 L 19.910156 12.050781 L 21.960938 14.199219 Z M 21.636719 18.542969 L 21.90625 18.542969 C 22.035156 18.542969 22.105469 18.582031 22.105469 18.800781 C 22.105469 19.007812 22.046875 19.054688 21.90625 19.054688 L 21.636719 19.054688 Z M 21.636719 19.410156 L 21.871094 19.410156 L 22.175781 19.871094 L 22.664062 19.871094 L 22.289062 19.308594 C 22.453125 19.257812 22.535156 19.125 22.535156 18.792969 C 22.535156 18.253906 22.324219 18.183594 21.90625 18.183594 L 21.210938 18.183594 L 21.210938 19.871094 L 21.636719 19.871094 Z M 29.328125 13.875 L 29.335938 13.871094 L 28.707031 13.222656 C 28.753906 12.808594 28.777344 12.390625 28.777344 11.96875 C 28.777344 9.410156 27.960938 7.050781 26.585938 5.160156 C 26.433594 3.585938 25.726562 2.292969 25.40625 1.777344 L 25.417969 1.804688 C 25.457031 1.882812 25.992188 2.964844 26.117188 4.574219 C 26.125 4.683594 26.132812 4.800781 26.136719 4.917969 L 26.136719 4.9375 C 26.140625 5.058594 26.144531 5.183594 26.140625 5.308594 C 27.519531 7.140625 28.339844 9.453125 28.339844 11.96875 C 28.339844 12.25 28.328125 12.53125 28.308594 12.808594 L 25.042969 9.433594 L 24.292969 8.921875 C 24.285156 8.917969 24.046875 8.75 23.570312 8.53125 L 28.96875 14.105469 L 28.921875 14.339844 C 28.855469 14.667969 28.785156 14.996094 28.699219 15.3125 C 28.371094 16.53125 27.867188 17.671875 27.214844 18.703125 L 26.082031 18.703125 C 24.71875 20.480469 22.832031 21.796875 20.664062 22.390625 L 20.617188 22.402344 C 20.484375 22.4375 20.347656 22.46875 20.214844 22.5 L 20.195312 22.503906 L 20.214844 22.742188 L 20.238281 22.976562 C 20.292969 23.378906 20.332031 23.707031 20.359375 23.9375 C 20.507812 23.570312 20.625 23.1875 20.714844 22.851562 C 22.960938 22.25 24.925781 20.910156 26.351562 19.085938 L 27.414062 19.085938 L 27.519531 18.914062 C 28.199219 17.84375 28.710938 16.664062 29.054688 15.414062 C 29.136719 15.089844 29.214844 14.753906 29.28125 14.410156 L 29.289062 14.371094 L 29.308594 14.257812 L 29.363281 13.878906 "/>
</g>
</svg>
