<?xml version="1.0" encoding="UTF-8"?>
<svg xmlns="http://www.w3.org/2000/svg" xmlns:xlink="http://www.w3.org/1999/xlink" width="35pt" height="25pt" viewBox="0 0 35 25" version="1.1">
<g id="surface1">
<path style=" stroke:none;fill-rule:nonzero;fill:rgb(99.215686%,99.607843%,99.607843%);fill-opacity:1;" d="M 6.25 0 L 17.167969 0 C 15.476562 0.0273438 13.789062 0.253906 12.15625 0.703125 C 10.613281 1.128906 9.125 1.746094 7.738281 2.539062 C 7.675781 2.574219 7.660156 2.648438 7.632812 2.707031 C 7.085938 4.097656 6.703125 5.546875 6.480469 7.023438 C 6.199219 8.914062 6.183594 10.855469 6.570312 12.730469 C 6.734375 13.542969 6.988281 14.332031 7.300781 15.09375 C 7.980469 16.777344 8.9375 18.347656 10.140625 19.707031 C 10.753906 20.402344 11.429688 21.042969 12.144531 21.628906 C 12.792969 22.160156 13.472656 22.644531 14.164062 23.113281 C 15.121094 23.75 16.101562 24.351562 17.125 24.871094 C 17.21875 24.917969 17.308594 24.964844 17.40625 25 L 6.25 25 Z M 6.25 0 "/>
<path style=" stroke:none;fill-rule:nonzero;fill:rgb(61.176471%,62.745098%,65.098039%);fill-opacity:1;" d="M 17.167969 0 L 17.652344 0 C 19.789062 0.03125 21.921875 0.402344 23.9375 1.117188 C 24.914062 1.460938 25.859375 1.886719 26.765625 2.382812 C 26.890625 2.457031 27.027344 2.515625 27.144531 2.605469 C 27.238281 2.804688 27.308594 3.023438 27.390625 3.230469 C 28.09375 5.191406 28.496094 7.261719 28.550781 9.34375 L 28.550781 10.054688 C 28.511719 11.625 28.25 13.195312 27.6875 14.664062 C 27.210938 15.933594 26.585938 17.148438 25.8125 18.261719 C 25.058594 19.351562 24.160156 20.339844 23.164062 21.214844 C 22.21875 22.046875 21.183594 22.769531 20.132812 23.457031 C 19.511719 23.855469 18.882812 24.234375 18.234375 24.585938 C 17.964844 24.730469 17.699219 24.882812 17.414062 25 L 17.40625 25 C 17.308594 24.964844 17.21875 24.917969 17.125 24.871094 C 16.101562 24.351562 15.121094 23.75 14.164062 23.113281 C 13.472656 22.644531 12.792969 22.160156 12.144531 21.628906 C 11.429688 21.042969 10.753906 20.402344 10.140625 19.707031 C 8.9375 18.347656 7.980469 16.777344 7.300781 15.09375 C 6.988281 14.332031 6.734375 13.542969 6.570312 12.730469 C 6.183594 10.855469 6.199219 8.914062 6.480469 7.023438 C 6.703125 5.546875 7.085938 4.097656 7.632812 2.707031 C 7.660156 2.648438 7.675781 2.574219 7.738281 2.539062 C 9.125 1.746094 10.613281 1.128906 12.15625 0.703125 C 13.789062 0.253906 15.476562 0.0273438 17.167969 0 Z M 17.167969 0 "/>
<path style=" stroke:none;fill-rule:nonzero;fill:rgb(99.215686%,99.607843%,99.607843%);fill-opacity:1;" d="M 17.652344 0 L 28.550781 0 L 28.550781 9.34375 C 28.496094 7.261719 28.09375 5.191406 27.390625 3.230469 C 27.308594 3.023438 27.238281 2.804688 27.144531 2.605469 C 27.027344 2.515625 26.890625 2.457031 26.765625 2.382812 C 25.859375 1.886719 24.914062 1.460938 23.9375 1.117188 C 21.921875 0.402344 19.789062 0.03125 17.652344 0 Z M 17.953125 0.800781 C 17.957031 0.746094 17.941406 0.648438 18.023438 0.65625 C 18.265625 0.660156 18.507812 0.675781 18.75 0.695312 C 18.875 0.699219 18.832031 0.851562 18.84375 0.933594 C 18.777344 0.925781 18.707031 0.921875 18.636719 0.914062 C 18.632812 0.882812 18.628906 0.847656 18.625 0.8125 C 18.472656 0.808594 18.320312 0.792969 18.167969 0.792969 L 18.171875 0.871094 C 18.363281 0.929688 18.550781 0.988281 18.742188 1.050781 C 18.78125 1.066406 18.820312 1.074219 18.851562 1.101562 C 18.867188 1.199219 18.882812 1.304688 18.851562 1.402344 C 18.601562 1.394531 18.351562 1.371094 18.097656 1.367188 C 18.054688 1.359375 18 1.367188 17.972656 1.324219 C 17.960938 1.253906 17.964844 1.183594 17.960938 1.113281 C 18.035156 1.117188 18.109375 1.117188 18.179688 1.121094 C 18.179688 1.160156 18.179688 1.199219 18.183594 1.234375 C 18.339844 1.246094 18.496094 1.25 18.65625 1.261719 L 18.648438 1.167969 C 18.433594 1.097656 18.21875 1.035156 18.003906 0.964844 C 17.933594 0.945312 17.960938 0.855469 17.953125 0.800781 Z M 16.261719 0.683594 C 16.335938 0.675781 16.40625 0.671875 16.480469 0.667969 C 16.617188 0.898438 16.75 1.125 16.886719 1.355469 C 16.8125 1.359375 16.734375 1.363281 16.65625 1.363281 C 16.636719 1.324219 16.617188 1.285156 16.59375 1.242188 C 16.433594 1.253906 16.269531 1.261719 16.109375 1.273438 C 16.082031 1.316406 16.058594 1.359375 16.03125 1.40625 C 15.957031 1.410156 15.882812 1.414062 15.808594 1.421875 Z M 14.152344 0.914062 C 14.375 0.886719 14.597656 0.835938 14.824219 0.828125 C 14.878906 0.882812 14.828125 0.976562 14.835938 1.046875 C 14.765625 1.054688 14.695312 1.066406 14.625 1.078125 C 14.628906 1.042969 14.628906 1.007812 14.632812 0.972656 C 14.480469 0.996094 14.328125 1.019531 14.179688 1.046875 L 14.167969 1.125 C 14.378906 1.152344 14.589844 1.167969 14.796875 1.210938 C 14.835938 1.289062 14.800781 1.390625 14.792969 1.472656 C 14.785156 1.542969 14.703125 1.539062 14.648438 1.550781 C 14.414062 1.582031 14.183594 1.628906 13.949219 1.660156 L 13.910156 1.636719 C 13.90625 1.566406 13.921875 1.492188 13.929688 1.421875 C 14 1.40625 14.070312 1.394531 14.140625 1.382812 C 14.136719 1.421875 14.132812 1.460938 14.128906 1.5 C 14.28125 1.472656 14.4375 1.449219 14.59375 1.425781 C 14.59375 1.394531 14.597656 1.363281 14.601562 1.332031 C 14.386719 1.296875 14.167969 1.28125 13.953125 1.25 C 13.960938 1.160156 13.960938 1.070312 13.988281 0.984375 C 14.019531 0.925781 14.097656 0.929688 14.152344 0.914062 Z M 14.152344 0.914062 "/>
<path style=" stroke:none;fill-rule:nonzero;fill:rgb(61.176471%,62.745098%,65.098039%);fill-opacity:1;" d="M 16.191406 1.136719 C 16.25 1.035156 16.308594 0.933594 16.367188 0.832031 C 16.417969 0.925781 16.472656 1.023438 16.523438 1.117188 C 16.414062 1.121094 16.300781 1.128906 16.191406 1.136719 Z M 16.191406 1.136719 "/>
<path style=" stroke:none;fill-rule:nonzero;fill:rgb(99.215686%,99.607843%,99.607843%);fill-opacity:1;" d="M 20.695312 0.941406 C 20.804688 0.933594 20.910156 0.964844 21.019531 0.984375 C 21.195312 1.019531 21.378906 1.046875 21.554688 1.097656 C 21.652344 1.152344 21.617188 1.289062 21.640625 1.382812 C 21.570312 1.367188 21.5 1.351562 21.429688 1.332031 C 21.421875 1.289062 21.417969 1.25 21.414062 1.207031 C 21.246094 1.167969 21.078125 1.136719 20.90625 1.101562 C 20.925781 1.25 20.945312 1.398438 20.960938 1.546875 C 21.128906 1.582031 21.300781 1.617188 21.46875 1.652344 C 21.464844 1.605469 21.460938 1.5625 21.457031 1.515625 C 21.527344 1.53125 21.59375 1.546875 21.664062 1.5625 C 21.671875 1.644531 21.695312 1.730469 21.691406 1.8125 L 21.648438 1.832031 C 21.414062 1.789062 21.183594 1.726562 20.945312 1.6875 C 20.890625 1.675781 20.832031 1.671875 20.785156 1.640625 C 20.753906 1.597656 20.757812 1.546875 20.75 1.5 C 20.734375 1.3125 20.699219 1.128906 20.695312 0.941406 Z M 12.765625 1.195312 C 12.832031 1.175781 12.902344 1.160156 12.972656 1.144531 C 12.933594 1.398438 12.898438 1.648438 12.855469 1.898438 C 12.785156 1.914062 12.71875 1.929688 12.648438 1.945312 C 12.507812 1.824219 12.367188 1.695312 12.226562 1.570312 C 12.191406 1.746094 12.160156 1.917969 12.125 2.089844 C 12.054688 2.113281 11.980469 2.132812 11.910156 2.15625 C 11.957031 1.898438 12.011719 1.640625 12.0625 1.378906 C 12.128906 1.359375 12.199219 1.34375 12.265625 1.324219 C 12.40625 1.445312 12.546875 1.5625 12.6875 1.683594 C 12.714844 1.519531 12.738281 1.355469 12.765625 1.195312 Z M 22.542969 1.335938 C 22.613281 1.355469 22.679688 1.375 22.75 1.394531 C 22.800781 1.652344 22.855469 1.90625 22.902344 2.164062 C 22.832031 2.140625 22.761719 2.121094 22.6875 2.097656 C 22.640625 1.84375 22.589844 1.589844 22.542969 1.335938 Z M 23.609375 1.660156 C 23.910156 1.753906 24.207031 1.859375 24.5 1.972656 C 24.515625 2.03125 24.527344 2.085938 24.542969 2.140625 C 24.421875 2.09375 24.296875 2.046875 24.175781 2 C 24.230469 2.21875 24.28125 2.4375 24.335938 2.65625 C 24.261719 2.628906 24.191406 2.597656 24.117188 2.5625 C 24.070312 2.351562 24.023438 2.136719 23.972656 1.925781 C 23.863281 1.882812 23.75 1.847656 23.640625 1.808594 C 23.628906 1.757812 23.617188 1.707031 23.609375 1.660156 Z M 10.578125 1.90625 C 10.628906 1.820312 10.742188 1.816406 10.820312 1.777344 C 10.890625 1.996094 10.957031 2.21875 11.027344 2.4375 C 10.964844 2.460938 10.898438 2.484375 10.835938 2.507812 C 10.824219 2.46875 10.8125 2.429688 10.800781 2.390625 C 10.65625 2.441406 10.515625 2.496094 10.378906 2.554688 C 10.285156 2.582031 10.273438 2.695312 10.203125 2.753906 C 10.132812 2.789062 10.058594 2.816406 9.988281 2.847656 C 10.183594 2.53125 10.382812 2.21875 10.578125 1.90625 Z M 9.652344 3.628906 C 12.644531 2.234375 16.015625 1.640625 19.296875 1.996094 C 21.523438 2.238281 23.707031 2.878906 25.699219 3.898438 C 26.042969 4.078125 26.378906 4.265625 26.703125 4.476562 C 26.730469 4.496094 26.761719 4.515625 26.773438 4.550781 C 27.574219 6.519531 28.039062 8.644531 27.957031 10.773438 C 27.898438 12.441406 27.496094 14.09375 26.804688 15.609375 C 26.238281 16.851562 25.480469 18.003906 24.601562 19.050781 C 23.828125 19.964844 22.960938 20.800781 22.035156 21.558594 C 21.085938 22.332031 20.074219 23.027344 19.015625 23.636719 C 18.488281 23.9375 17.957031 24.222656 17.402344 24.457031 C 16.742188 24.179688 16.117188 23.832031 15.503906 23.472656 C 14.082031 22.621094 12.746094 21.625 11.546875 20.480469 C 10.1875 19.183594 9.011719 17.679688 8.179688 15.992188 C 7.734375 15.09375 7.386719 14.140625 7.160156 13.160156 C 6.808594 11.644531 6.75 10.066406 6.953125 8.523438 C 7.132812 7.160156 7.511719 5.824219 8.027344 4.550781 C 8.042969 4.507812 8.085938 4.492188 8.117188 4.464844 C 8.605469 4.144531 9.128906 3.878906 9.652344 3.628906 Z M 9.652344 3.628906 "/>
<path style=" stroke:none;fill-rule:nonzero;fill:rgb(61.176471%,62.745098%,65.098039%);fill-opacity:1;" d="M 10.660156 2.027344 L 10.683594 2.023438 C 10.714844 2.101562 10.734375 2.183594 10.757812 2.265625 C 10.652344 2.308594 10.546875 2.347656 10.4375 2.390625 C 10.511719 2.269531 10.578125 2.144531 10.660156 2.027344 Z M 10.660156 2.027344 "/>
<path style=" stroke:none;fill-rule:nonzero;fill:rgb(99.215686%,99.607843%,99.607843%);fill-opacity:1;" d="M 9.234375 2.460938 C 9.328125 2.351562 9.480469 2.324219 9.605469 2.269531 C 9.398438 2.492188 9.191406 2.714844 8.984375 2.941406 C 9.105469 3.003906 9.230469 3.0625 9.347656 3.125 C 9.265625 3.167969 9.179688 3.207031 9.097656 3.246094 C 8.992188 3.195312 8.882812 3.144531 8.777344 3.089844 C 8.738281 3.214844 8.703125 3.339844 8.664062 3.46875 C 8.585938 3.511719 8.507812 3.554688 8.429688 3.597656 C 8.523438 3.289062 8.625 2.984375 8.726562 2.675781 C 8.792969 2.640625 8.863281 2.605469 8.933594 2.574219 C 8.902344 2.679688 8.871094 2.785156 8.835938 2.890625 C 8.96875 2.746094 9.105469 2.605469 9.234375 2.460938 Z M 25.1875 2.265625 C 25.289062 2.3125 25.398438 2.34375 25.492188 2.40625 C 25.609375 2.550781 25.707031 2.710938 25.828125 2.851562 C 25.886719 2.78125 25.945312 2.710938 26.003906 2.640625 C 26.070312 2.675781 26.140625 2.710938 26.207031 2.75 C 26.125 2.863281 26.035156 2.972656 25.945312 3.085938 C 25.980469 3.199219 26.011719 3.316406 26.046875 3.433594 C 25.972656 3.394531 25.902344 3.355469 25.828125 3.316406 C 25.792969 3.210938 25.785156 3.09375 25.730469 2.996094 C 25.550781 2.753906 25.367188 2.507812 25.1875 2.265625 Z M 25.1875 2.265625 "/>
<path style=" stroke:none;fill-rule:nonzero;fill:rgb(0.784314%,16.862745%,36.470588%);fill-opacity:1;" d="M 11.375 3.476562 C 13.171875 2.828125 15.066406 2.460938 16.972656 2.414062 C 19.277344 2.355469 21.585938 2.773438 23.738281 3.589844 C 24.308594 3.808594 24.871094 4.054688 25.414062 4.332031 C 25.730469 4.496094 26.046875 4.660156 26.34375 4.859375 C 27.046875 6.613281 27.472656 8.5 27.457031 10.394531 C 27.453125 12.066406 27.089844 13.730469 26.410156 15.253906 C 25.84375 16.535156 25.066406 17.71875 24.15625 18.78125 C 23.363281 19.710938 22.472656 20.554688 21.515625 21.316406 C 20.5625 22.074219 19.542969 22.753906 18.480469 23.347656 C 18.125 23.542969 17.769531 23.734375 17.398438 23.898438 C 16.785156 23.617188 16.191406 23.285156 15.609375 22.9375 C 13.917969 21.902344 12.34375 20.660156 11.007812 19.195312 C 9.734375 17.800781 8.683594 16.183594 8.046875 14.402344 C 7.597656 13.144531 7.355469 11.8125 7.34375 10.476562 C 7.3125 8.632812 7.710938 6.804688 8.363281 5.089844 C 8.394531 5.011719 8.417969 4.933594 8.457031 4.859375 C 8.539062 4.796875 8.632812 4.75 8.71875 4.695312 C 9.5625 4.207031 10.460938 3.808594 11.375 3.476562 Z M 11.375 3.476562 "/>
<path style=" stroke:none;fill-rule:nonzero;fill:rgb(99.215686%,99.607843%,99.607843%);fill-opacity:1;" d="M 16.089844 3.21875 C 16.652344 3.171875 17.214844 3.152344 17.78125 3.171875 C 17.835938 3.167969 17.894531 3.199219 17.921875 3.25 C 17.945312 3.339844 17.933594 3.433594 17.9375 3.523438 C 17.941406 3.679688 17.949219 3.835938 17.941406 3.988281 C 17.921875 4.058594 17.839844 4.078125 17.777344 4.074219 C 17.664062 4.074219 17.550781 4.066406 17.4375 4.070312 C 17.691406 4.234375 17.9375 4.410156 18.191406 4.578125 C 18.015625 4.574219 17.84375 4.5625 17.671875 4.5625 C 17.636719 4.5625 17.609375 4.539062 17.578125 4.519531 C 17.242188 4.296875 16.898438 4.078125 16.566406 3.847656 C 16.882812 3.832031 17.195312 3.828125 17.511719 3.832031 L 17.511719 3.414062 C 17.175781 3.410156 16.839844 3.414062 16.5 3.433594 C 16.484375 3.8125 16.484375 4.191406 16.46875 4.574219 C 16.324219 4.585938 16.179688 4.59375 16.035156 4.601562 C 16.050781 4.140625 16.070312 3.679688 16.089844 3.21875 Z M 18.296875 3.191406 C 18.949219 3.222656 19.601562 3.300781 20.242188 3.417969 C 20.246094 3.5 20.253906 3.582031 20.261719 3.664062 C 20.007812 3.621094 19.753906 3.578125 19.5 3.546875 C 19.527344 3.933594 19.5625 4.316406 19.589844 4.703125 C 19.445312 4.683594 19.300781 4.667969 19.15625 4.652344 C 19.132812 4.265625 19.101562 3.882812 19.078125 3.496094 C 18.820312 3.46875 18.566406 3.453125 18.308594 3.433594 C 18.304688 3.351562 18.300781 3.273438 18.296875 3.191406 Z M 15.203125 3.304688 C 15.300781 3.300781 15.425781 3.238281 15.496094 3.332031 C 15.511719 3.378906 15.503906 3.425781 15.503906 3.472656 C 15.472656 3.824219 15.449219 4.175781 15.417969 4.527344 C 15.417969 4.617188 15.328125 4.675781 15.246094 4.683594 C 14.65625 4.753906 14.074219 4.859375 13.496094 4.988281 C 13.4375 5.007812 13.355469 4.972656 13.371094 4.902344 C 13.421875 4.515625 13.476562 4.128906 13.527344 3.746094 C 13.535156 3.652344 13.621094 3.585938 13.710938 3.566406 C 14.203125 3.453125 14.703125 3.371094 15.203125 3.304688 Z M 20.625 3.472656 C 20.765625 3.503906 20.902344 3.53125 21.039062 3.5625 C 21.101562 4.035156 21.15625 4.503906 21.222656 4.976562 C 21.074219 4.945312 20.929688 4.910156 20.78125 4.886719 Z M 20.625 3.472656 "/>
<path style=" stroke:none;fill-rule:nonzero;fill:rgb(0.784314%,16.862745%,36.470588%);fill-opacity:1;" d="M 13.9375 3.757812 C 14.3125 3.679688 14.691406 3.617188 15.070312 3.5625 C 15.039062 3.867188 15.015625 4.175781 14.984375 4.480469 C 14.59375 4.535156 14.207031 4.605469 13.824219 4.683594 C 13.859375 4.375 13.898438 4.066406 13.9375 3.757812 Z M 13.9375 3.757812 "/>
<path style=" stroke:none;fill-rule:nonzero;fill:rgb(99.215686%,99.607843%,99.607843%);fill-opacity:1;" d="M 21.578125 3.691406 C 21.691406 3.722656 21.808594 3.75 21.921875 3.78125 C 21.957031 3.792969 21.996094 3.800781 22.019531 3.828125 C 22.4375 4.257812 22.835938 4.707031 23.25 5.140625 C 23.1875 4.808594 23.121094 4.476562 23.058594 4.148438 C 23.191406 4.195312 23.324219 4.246094 23.457031 4.296875 L 23.746094 5.742188 C 23.640625 5.703125 23.535156 5.660156 23.429688 5.621094 C 23.386719 5.605469 23.34375 5.59375 23.316406 5.5625 C 22.898438 5.121094 22.492188 4.667969 22.066406 4.234375 C 22.117188 4.570312 22.175781 4.898438 22.226562 5.234375 C 22.085938 5.195312 21.941406 5.15625 21.796875 5.117188 C 21.722656 4.640625 21.652344 4.167969 21.578125 3.691406 Z M 11.339844 4.285156 C 11.855469 4.074219 12.386719 3.902344 12.925781 3.753906 C 12.976562 3.726562 13.066406 3.75 13.050781 3.824219 C 13.019531 4.066406 12.980469 4.308594 12.945312 4.550781 C 12.9375 4.644531 12.851562 4.710938 12.765625 4.734375 C 12.492188 4.8125 12.222656 4.894531 11.953125 4.988281 C 11.855469 4.945312 11.761719 4.898438 11.667969 4.851562 C 11.957031 4.746094 12.25 4.648438 12.546875 4.558594 C 12.574219 4.398438 12.601562 4.234375 12.625 4.070312 C 12.316406 4.167969 12.007812 4.265625 11.703125 4.378906 C 11.667969 4.386719 11.675781 4.433594 11.664062 4.460938 C 11.59375 4.839844 11.515625 5.21875 11.441406 5.597656 C 11.300781 5.648438 11.164062 5.703125 11.023438 5.761719 C 11.128906 5.269531 11.234375 4.777344 11.339844 4.285156 Z M 9.296875 5.222656 C 9.738281 4.976562 10.195312 4.757812 10.65625 4.554688 C 10.691406 4.535156 10.761719 4.519531 10.769531 4.578125 C 10.753906 4.703125 10.714844 4.824219 10.691406 4.945312 C 10.558594 5.003906 10.425781 5.0625 10.292969 5.125 C 10.308594 5.054688 10.324219 4.984375 10.339844 4.917969 C 10.035156 5.058594 9.730469 5.203125 9.4375 5.367188 C 9.402344 5.441406 9.386719 5.527344 9.363281 5.609375 C 9.757812 5.503906 10.15625 5.417969 10.558594 5.347656 C 10.605469 5.417969 10.558594 5.5 10.546875 5.574219 C 10.5 5.738281 10.507812 5.949219 10.335938 6.039062 C 9.828125 6.269531 9.332031 6.523438 8.847656 6.800781 C 8.804688 6.820312 8.757812 6.859375 8.707031 6.839844 C 8.6875 6.8125 8.710938 6.777344 8.714844 6.746094 C 8.746094 6.632812 8.78125 6.519531 8.8125 6.40625 C 8.941406 6.332031 9.070312 6.253906 9.203125 6.179688 C 9.183594 6.257812 9.160156 6.335938 9.140625 6.414062 C 9.457031 6.246094 9.773438 6.070312 10.101562 5.921875 C 10.121094 5.835938 10.140625 5.75 10.160156 5.664062 C 9.769531 5.738281 9.382812 5.835938 9 5.945312 C 8.941406 5.96875 8.957031 5.894531 8.96875 5.863281 C 9.007812 5.730469 9.046875 5.59375 9.089844 5.460938 C 9.121094 5.355469 9.203125 5.273438 9.296875 5.222656 Z M 24.035156 4.621094 C 24.015625 4.558594 24.089844 4.53125 24.136719 4.558594 C 24.617188 4.765625 25.085938 5.003906 25.546875 5.253906 C 25.628906 5.292969 25.699219 5.363281 25.726562 5.453125 C 25.761719 5.558594 25.789062 5.667969 25.820312 5.773438 C 25.695312 5.703125 25.570312 5.632812 25.449219 5.566406 C 25.433594 5.511719 25.417969 5.457031 25.40625 5.402344 C 25.097656 5.234375 24.785156 5.082031 24.46875 4.933594 C 24.546875 5.269531 24.628906 5.605469 24.714844 5.941406 C 25.042969 6.09375 25.367188 6.257812 25.683594 6.433594 C 25.652344 6.3125 25.617188 6.191406 25.582031 6.070312 C 25.457031 6 25.328125 5.941406 25.203125 5.867188 C 25.121094 5.773438 25.0625 5.667969 24.988281 5.566406 C 25.296875 5.722656 25.597656 5.882812 25.898438 6.054688 C 25.957031 6.277344 26.015625 6.503906 26.078125 6.726562 C 26.085938 6.757812 26.089844 6.792969 26.082031 6.824219 C 26.027344 6.847656 25.972656 6.796875 25.925781 6.777344 C 25.464844 6.519531 24.992188 6.28125 24.507812 6.070312 C 24.417969 6.03125 24.328125 5.957031 24.316406 5.855469 C 24.21875 5.445312 24.128906 5.03125 24.035156 4.621094 Z M 24.035156 4.621094 "/>
<path style=" stroke:none;fill-rule:nonzero;fill:rgb(59.607843%,70.196078%,83.529412%);fill-opacity:1;" d="M 8.230469 8.054688 C 9.621094 7.214844 11.132812 6.574219 12.703125 6.152344 C 13.179688 6.683594 13.648438 7.226562 14.109375 7.773438 C 11.90625 8.210938 9.785156 9.070312 7.917969 10.324219 C 7.921875 9.558594 8.054688 8.800781 8.230469 8.054688 Z M 8.230469 8.054688 "/>
<path style=" stroke:none;fill-rule:nonzero;fill:rgb(99.215686%,99.607843%,99.607843%);fill-opacity:1;" d="M 19.0625 7.085938 C 19.453125 6.796875 19.933594 6.625 20.421875 6.613281 C 20.796875 6.59375 21.167969 6.695312 21.492188 6.882812 C 21.703125 7.007812 21.898438 7.167969 22.019531 7.382812 C 22.140625 7.59375 22.164062 7.859375 22.09375 8.089844 C 22.035156 8.28125 21.867188 8.425781 21.675781 8.476562 C 21.417969 8.546875 21.140625 8.527344 20.878906 8.496094 C 20.835938 8.496094 20.847656 8.4375 20.875 8.429688 C 21.042969 8.304688 21.144531 8.109375 21.148438 7.902344 C 21.191406 7.507812 20.824219 7.117188 20.425781 7.148438 C 20.144531 7.148438 19.863281 7.273438 19.695312 7.5 C 19.578125 7.675781 19.582031 7.902344 19.628906 8.101562 C 19.714844 8.410156 19.875 8.6875 20.042969 8.957031 C 20.265625 9.300781 20.511719 9.632812 20.777344 9.949219 C 21.101562 10.339844 21.429688 10.726562 21.757812 11.117188 C 22.105469 11.546875 22.429688 12 22.675781 12.5 C 23.214844 13.59375 23.265625 14.925781 22.777344 16.046875 C 22.488281 15.949219 22.203125 15.820312 21.953125 15.648438 C 22.105469 15.171875 22.128906 14.65625 22.023438 14.171875 C 21.910156 13.609375 21.652344 13.082031 21.347656 12.601562 C 21.152344 12.285156 20.902344 12.015625 20.675781 11.722656 C 20.320312 11.285156 19.96875 10.847656 19.613281 10.410156 C 19.296875 10.023438 19.003906 9.609375 18.785156 9.160156 C 18.609375 8.785156 18.480469 8.367188 18.550781 7.949219 C 18.601562 7.609375 18.789062 7.292969 19.0625 7.085938 Z M 19.0625 7.085938 "/>
<path style=" stroke:none;fill-rule:nonzero;fill:rgb(59.607843%,70.196078%,83.529412%);fill-opacity:1;" d="M 8.015625 11.746094 C 10.09375 10.265625 12.53125 9.304688 15.050781 8.910156 C 15.507812 9.464844 15.960938 10.027344 16.410156 10.59375 C 14.273438 10.789062 12.167969 11.375 10.257812 12.363281 C 9.609375 12.699219 8.980469 13.082031 8.382812 13.507812 C 8.222656 12.929688 8.101562 12.339844 8.015625 11.746094 Z M 8.015625 11.746094 "/>
<path style=" stroke:none;fill-rule:nonzero;fill:rgb(99.215686%,99.607843%,99.607843%);fill-opacity:1;" d="M 27.6875 14.664062 C 28.25 13.195312 28.511719 11.625 28.550781 10.054688 L 28.550781 25 L 17.414062 25 C 17.699219 24.882812 17.964844 24.730469 18.234375 24.585938 C 18.882812 24.234375 19.511719 23.855469 20.132812 23.457031 C 21.183594 22.769531 22.21875 22.046875 23.164062 21.214844 C 24.160156 20.339844 25.058594 19.351562 25.8125 18.261719 C 26.585938 17.148438 27.210938 15.933594 27.6875 14.664062 Z M 21.589844 10.621094 C 22.164062 10.460938 22.773438 10.414062 23.363281 10.515625 C 23.734375 10.582031 24.101562 10.71875 24.402344 10.949219 C 24.636719 11.136719 24.824219 11.402344 24.878906 11.699219 C 24.917969 11.929688 24.851562 12.191406 24.65625 12.332031 C 24.445312 12.488281 24.171875 12.503906 23.921875 12.496094 C 23.824219 12.488281 23.722656 12.5 23.628906 12.46875 L 23.613281 12.449219 C 23.664062 12.386719 23.730469 12.339844 23.777344 12.277344 C 23.925781 12.070312 23.945312 11.785156 23.839844 11.558594 C 23.730469 11.316406 23.496094 11.148438 23.238281 11.089844 C 22.910156 11.019531 22.566406 11.011719 22.230469 11.066406 C 22.152344 11.074219 22.078125 11.109375 21.996094 11.113281 C 21.90625 11.042969 21.84375 10.945312 21.765625 10.859375 C 21.707031 10.78125 21.636719 10.710938 21.589844 10.621094 Z M 19.90625 11.671875 C 20.132812 11.914062 20.332031 12.179688 20.546875 12.429688 C 20.578125 12.472656 20.636719 12.511719 20.609375 12.570312 C 20.507812 13.003906 20.511719 13.457031 20.617188 13.886719 C 20.722656 14.277344 20.875 14.65625 21.105469 14.992188 C 21.394531 15.417969 21.777344 15.78125 22.230469 16.019531 C 22.574219 16.203125 22.960938 16.300781 23.347656 16.339844 C 23.882812 16.390625 24.445312 16.296875 24.898438 15.996094 C 24.925781 15.980469 24.980469 15.945312 24.988281 16 C 24.835938 16.332031 24.496094 16.535156 24.167969 16.667969 C 23.765625 16.824219 23.328125 16.863281 22.898438 16.875 C 22.011719 16.871094 21.140625 16.511719 20.476562 15.925781 C 19.835938 15.375 19.46875 14.558594 19.363281 13.730469 C 19.292969 13.011719 19.472656 12.257812 19.90625 11.671875 Z M 19.90625 11.671875 "/>
<path style=" stroke:none;fill-rule:nonzero;fill:rgb(59.607843%,70.196078%,83.529412%);fill-opacity:1;" d="M 8.824219 14.761719 C 11.316406 12.976562 14.351562 12.007812 17.40625 11.875 C 17.40625 12.464844 17.40625 13.050781 17.40625 13.640625 C 14.628906 13.800781 11.867188 14.644531 9.546875 16.199219 C 9.273438 15.738281 9.03125 15.257812 8.824219 14.761719 Z M 10.285156 17.324219 C 12.414062 15.976562 14.898438 15.230469 17.40625 15.054688 L 17.40625 16.761719 C 15.273438 16.933594 13.160156 17.519531 11.28125 18.558594 C 10.929688 18.164062 10.597656 17.753906 10.285156 17.324219 Z M 10.285156 17.324219 "/>
<path style=" stroke:none;fill-rule:nonzero;fill:rgb(99.215686%,99.607843%,99.607843%);fill-opacity:1;" d="M 20.847656 17.496094 C 20.988281 17.351562 21.105469 17.183594 21.238281 17.03125 C 21.480469 17.148438 21.742188 17.234375 22.007812 17.285156 C 21.890625 17.449219 21.753906 17.597656 21.609375 17.734375 C 20.886719 18.472656 19.933594 18.980469 18.921875 19.1875 C 18.824219 19.203125 18.726562 19.234375 18.625 19.234375 C 18.574219 19.234375 18.617188 19.171875 18.644531 19.167969 C 19.460938 18.738281 20.222656 18.183594 20.847656 17.496094 Z M 20.847656 17.496094 "/>
<path style=" stroke:none;fill-rule:nonzero;fill:rgb(59.607843%,70.196078%,83.529412%);fill-opacity:1;" d="M 12.324219 19.632812 C 13.914062 18.867188 15.648438 18.417969 17.40625 18.242188 C 17.40625 18.789062 17.40625 19.335938 17.40625 19.882812 C 16.121094 20.023438 14.847656 20.3125 13.636719 20.769531 C 13.183594 20.410156 12.746094 20.03125 12.324219 19.632812 Z M 15.179688 21.886719 C 15.910156 21.683594 16.65625 21.539062 17.40625 21.449219 C 17.40625 22.019531 17.40625 22.59375 17.40625 23.167969 C 16.632812 22.792969 15.894531 22.355469 15.179688 21.886719 Z M 15.179688 21.886719 "/>
<path style=" stroke:none;fill-rule:nonzero;fill:rgb(61.176471%,62.745098%,65.098039%);fill-opacity:1;" d="M 21.925781 22.9375 C 22.101562 22.9375 22.277344 22.9375 22.457031 22.9375 L 22.457031 23.035156 L 22.25 23.035156 C 22.25 23.214844 22.25 23.394531 22.25 23.574219 C 22.210938 23.574219 22.175781 23.574219 22.136719 23.574219 L 22.136719 23.039062 C 22.066406 23.035156 21.996094 23.035156 21.925781 23.035156 Z M 22.519531 22.9375 C 22.574219 22.9375 22.628906 22.9375 22.683594 22.9375 C 22.734375 23.101562 22.789062 23.269531 22.839844 23.433594 C 22.890625 23.269531 22.941406 23.101562 22.996094 22.9375 C 23.046875 22.9375 23.101562 22.9375 23.15625 22.9375 C 23.15625 23.148438 23.15625 23.363281 23.15625 23.574219 C 23.121094 23.574219 23.085938 23.574219 23.050781 23.574219 C 23.050781 23.40625 23.054688 23.242188 23.046875 23.074219 C 22.996094 23.242188 22.945312 23.40625 22.894531 23.574219 C 22.859375 23.574219 22.824219 23.574219 22.789062 23.574219 C 22.734375 23.402344 22.679688 23.230469 22.625 23.054688 C 22.625 23.230469 22.625 23.402344 22.625 23.574219 C 22.589844 23.574219 22.554688 23.574219 22.519531 23.574219 C 22.519531 23.363281 22.519531 23.152344 22.519531 22.9375 Z M 22.519531 22.9375 "/>
</g>
</svg>
