<?xml version="1.0" encoding="UTF-8"?>
<svg xmlns="http://www.w3.org/2000/svg" xmlns:xlink="http://www.w3.org/1999/xlink" width="35pt" height="25pt" viewBox="0 0 35 25" version="1.1">
<g id="surface1">
<path style=" stroke:none;fill-rule:nonzero;fill:rgb(68.235294%,67.45098%,67.843137%);fill-opacity:1;" d="M 18.34375 0 L 18.089844 0.425781 L 16.203125 3.582031 L 15.40625 2.253906 L 15.15625 1.832031 L 14.902344 2.253906 L 8.839844 12.394531 L 8.75 12.546875 L 8.839844 12.699219 L 14.816406 22.695312 L 15.066406 23.117188 L 15.320312 22.695312 L 16.144531 21.320312 L 18.089844 24.574219 L 18.34375 25 L 18.597656 24.574219 L 20.542969 21.320312 L 21.363281 22.695312 L 21.617188 23.117188 L 21.871094 22.695312 L 27.84375 12.699219 L 27.9375 12.546875 L 27.84375 12.394531 L 21.785156 2.253906 L 21.53125 1.832031 L 21.277344 2.253906 L 20.484375 3.582031 L 18.597656 0.425781 Z M 18.34375 0.574219 L 20.484375 4.15625 L 21.53125 2.40625 L 27.589844 12.546875 L 21.617188 22.542969 L 20.542969 20.746094 L 18.34375 24.425781 L 16.144531 20.746094 L 15.066406 22.542969 L 9.09375 12.546875 L 15.15625 2.40625 L 16.203125 4.15625 Z M 18.34375 0.574219 "/>
<path style=" stroke:none;fill-rule:nonzero;fill:rgb(0%,14.117647%,36.862745%);fill-opacity:1;" d="M 16.144531 20.746094 L 18.34375 24.425781 L 20.542969 20.746094 L 21.617188 22.542969 L 27.589844 12.546875 L 21.53125 2.40625 L 20.484375 4.15625 L 18.34375 0.574219 L 16.203125 4.15625 L 15.15625 2.40625 L 9.09375 12.546875 L 15.066406 22.542969 Z M 16.144531 20.746094 "/>
<path style=" stroke:none;fill-rule:nonzero;fill:rgb(61.568627%,76.078431%,91.764706%);fill-opacity:1;" d="M 22.320312 14.265625 L 18.34375 20.917969 L 14.367188 14.265625 L 13.023438 14.265625 L 18.34375 23.167969 L 23.664062 14.265625 Z M 15.066406 19.039062 L 12.214844 14.265625 L 10.871094 14.265625 L 15.066406 21.289062 L 16.003906 19.722656 L 15.332031 18.601562 Z M 24.46875 14.265625 L 21.617188 19.039062 L 21.355469 18.601562 L 20.683594 19.722656 L 21.617188 21.289062 L 25.8125 14.265625 Z M 24.46875 14.265625 "/>
<path style=" stroke:none;fill-rule:nonzero;fill:rgb(100%,100%,100%);fill-opacity:1;" d="M 21.53125 3.664062 L 20.621094 5.183594 L 21.277344 6.277344 L 21.53125 5.851562 L 24.503906 10.828125 L 25.8125 10.828125 Z M 10.875 10.828125 L 12.179688 10.828125 L 15.15625 5.851562 L 15.410156 6.277344 L 16.066406 5.183594 L 15.15625 3.664062 Z M 10.875 10.828125 "/>
<path style=" stroke:none;fill-rule:nonzero;fill:rgb(100%,100%,100%);fill-opacity:1;" d="M 15.238281 9.21875 L 18.34375 4.019531 L 21.449219 9.21875 L 22.757812 9.21875 L 18.34375 1.832031 L 13.929688 9.21875 Z M 15.238281 9.21875 "/>
<path style=" stroke:none;fill-rule:nonzero;fill:rgb(100%,100%,100%);fill-opacity:1;" d="M 10.234375 11.59375 L 10.691406 11.59375 L 10.996094 12.8125 L 11 12.8125 L 11.398438 11.59375 L 11.789062 11.59375 L 12.183594 12.84375 L 12.1875 12.84375 L 12.507812 11.59375 L 12.933594 11.59375 L 12.375 13.496094 L 12.003906 13.496094 L 11.582031 12.179688 L 11.578125 12.179688 L 11.160156 13.496094 L 10.796875 13.496094 Z M 10.234375 11.59375 "/>
<path style=" stroke:none;fill-rule:nonzero;fill:rgb(100%,100%,100%);fill-opacity:1;" d="M 13.132812 11.59375 L 13.554688 11.59375 L 13.554688 12.304688 L 14.367188 12.304688 L 14.367188 11.59375 L 14.785156 11.59375 L 14.785156 13.496094 L 14.367188 13.496094 L 14.367188 12.671875 L 13.554688 12.671875 L 13.554688 13.496094 L 13.132812 13.496094 Z M 13.132812 11.59375 "/>
<path style=" stroke:none;fill-rule:nonzero;fill:rgb(100%,100%,100%);fill-opacity:1;" d="M 15.242188 11.59375 L 15.664062 11.59375 L 15.664062 13.496094 L 15.242188 13.496094 Z M 15.242188 11.59375 "/>
<path style=" stroke:none;fill-rule:nonzero;fill:rgb(100%,100%,100%);fill-opacity:1;" d="M 16.519531 11.964844 L 15.976562 11.964844 L 15.976562 11.59375 L 17.480469 11.59375 L 17.480469 11.964844 L 16.9375 11.964844 L 16.9375 13.496094 L 16.519531 13.496094 Z M 16.519531 11.964844 "/>
<path style=" stroke:none;fill-rule:nonzero;fill:rgb(100%,100%,100%);fill-opacity:1;" d="M 17.808594 11.59375 L 19.101562 11.59375 L 19.101562 11.980469 L 18.226562 11.980469 L 18.226562 12.335938 L 18.871094 12.335938 L 18.871094 12.722656 L 18.226562 12.722656 L 18.226562 13.109375 L 19.148438 13.109375 L 19.148438 13.496094 L 17.808594 13.496094 Z M 17.808594 11.59375 "/>
<path style=" stroke:none;fill-rule:nonzero;fill:rgb(100%,100%,100%);fill-opacity:1;" d="M 20.671875 12.085938 C 20.589844 11.988281 20.46875 11.933594 20.3125 11.933594 C 19.996094 11.933594 19.761719 12.191406 19.761719 12.542969 C 19.761719 12.898438 19.996094 13.15625 20.296875 13.15625 C 20.46875 13.15625 20.605469 13.082031 20.691406 12.953125 L 21.039062 13.214844 C 20.882812 13.4375 20.613281 13.542969 20.351562 13.542969 C 19.757812 13.542969 19.324219 13.15625 19.324219 12.542969 C 19.324219 11.933594 19.757812 11.546875 20.351562 11.546875 C 20.5625 11.546875 20.832031 11.617188 20.992188 11.824219 Z M 20.671875 12.085938 "/>
<path style=" stroke:none;fill-rule:nonzero;fill:rgb(100%,100%,100%);fill-opacity:1;" d="M 22.0625 12.148438 L 21.832031 12.738281 L 22.296875 12.738281 Z M 21.902344 11.59375 L 22.25 11.59375 L 23.078125 13.496094 L 22.601562 13.496094 L 22.441406 13.09375 L 21.699219 13.09375 L 21.542969 13.496094 L 21.078125 13.496094 Z M 21.902344 11.59375 "/>
<path style=" stroke:none;fill-rule:nonzero;fill:rgb(100%,100%,100%);fill-opacity:1;" d="M 23.683594 12.398438 L 23.964844 12.398438 C 24.113281 12.398438 24.257812 12.347656 24.257812 12.171875 C 24.257812 11.976562 24.0625 11.949219 23.898438 11.949219 L 23.683594 11.949219 Z M 23.265625 11.59375 L 23.972656 11.59375 C 24.367188 11.59375 24.695312 11.71875 24.695312 12.171875 C 24.695312 12.617188 24.390625 12.753906 23.992188 12.753906 L 23.683594 12.753906 L 23.683594 13.496094 L 23.265625 13.496094 Z M 23.265625 11.59375 "/>
<path style=" stroke:none;fill-rule:nonzero;fill:rgb(100%,100%,100%);fill-opacity:1;" d="M 25.953125 12.058594 C 25.886719 11.972656 25.75 11.933594 25.648438 11.933594 C 25.53125 11.933594 25.367188 11.984375 25.367188 12.128906 C 25.367188 12.472656 26.242188 12.25 26.242188 12.917969 C 26.242188 13.34375 25.902344 13.542969 25.507812 13.542969 C 25.265625 13.542969 25.050781 13.472656 24.867188 13.304688 L 25.167969 12.976562 C 25.253906 13.089844 25.394531 13.15625 25.53125 13.15625 C 25.667969 13.15625 25.824219 13.09375 25.824219 12.957031 C 25.824219 12.609375 24.929688 12.796875 24.929688 12.164062 C 24.929688 11.757812 25.28125 11.546875 25.65625 11.546875 C 25.871094 11.546875 26.078125 11.601562 26.238281 11.742188 Z M 25.953125 12.058594 "/>
<path style=" stroke:none;fill-rule:nonzero;fill:rgb(100%,100%,100%);fill-opacity:1;" d="M 16.804688 14.257812 L 18.078125 14.257812 L 18.078125 14.644531 L 17.222656 14.644531 L 17.222656 15.03125 L 17.835938 15.03125 L 17.835938 15.417969 L 17.222656 15.417969 L 17.222656 16.160156 L 16.804688 16.160156 Z M 16.804688 14.257812 "/>
<path style=" stroke:none;fill-rule:nonzero;fill:rgb(100%,100%,100%);fill-opacity:1;" d="M 19.492188 14.75 C 19.40625 14.652344 19.285156 14.59375 19.128906 14.59375 C 18.8125 14.59375 18.578125 14.851562 18.578125 15.207031 C 18.578125 15.5625 18.8125 15.820312 19.117188 15.820312 C 19.285156 15.820312 19.421875 15.746094 19.507812 15.617188 L 19.859375 15.875 C 19.699219 16.101562 19.429688 16.207031 19.171875 16.207031 C 18.578125 16.207031 18.144531 15.816406 18.144531 15.207031 C 18.144531 14.597656 18.578125 14.207031 19.171875 14.207031 C 19.382812 14.207031 19.652344 14.28125 19.8125 14.488281 Z M 19.492188 14.75 "/>
<path style=" stroke:none;fill-rule:nonzero;fill:rgb(100%,100%,100%);fill-opacity:1;" d="M 13.46875 9.746094 L 13.738281 9.746094 L 14.007812 10.457031 L 14.011719 10.457031 L 14.285156 9.746094 L 14.542969 9.746094 L 14.09375 10.832031 L 13.902344 10.832031 Z M 13.46875 9.746094 "/>
<path style=" stroke:none;fill-rule:nonzero;fill:rgb(100%,100%,100%);fill-opacity:1;" d="M 14.9375 10.0625 L 14.804688 10.402344 L 15.070312 10.402344 Z M 14.847656 9.746094 L 15.042969 9.746094 L 15.515625 10.832031 L 15.246094 10.832031 L 15.152344 10.601562 L 14.730469 10.601562 L 14.640625 10.832031 L 14.375 10.832031 Z M 14.847656 9.746094 "/>
<path style=" stroke:none;fill-rule:nonzero;fill:rgb(100%,100%,100%);fill-opacity:1;" d="M 15.648438 9.746094 L 15.972656 9.746094 L 16.433594 10.5 L 16.4375 10.5 L 16.4375 9.746094 L 16.679688 9.746094 L 16.679688 10.832031 L 16.363281 10.832031 L 15.890625 10.058594 L 15.886719 10.058594 L 15.886719 10.832031 L 15.648438 10.832031 Z M 15.648438 9.746094 "/>
<path style=" stroke:none;fill-rule:nonzero;fill:rgb(100%,100%,100%);fill-opacity:1;" d="M 17.621094 10.027344 C 17.574219 9.972656 17.503906 9.941406 17.417969 9.941406 C 17.234375 9.941406 17.101562 10.085938 17.101562 10.289062 C 17.101562 10.492188 17.234375 10.640625 17.410156 10.640625 C 17.503906 10.640625 17.585938 10.597656 17.632812 10.523438 L 17.832031 10.671875 C 17.742188 10.800781 17.589844 10.859375 17.441406 10.859375 C 17.101562 10.859375 16.855469 10.636719 16.855469 10.289062 C 16.855469 9.941406 17.101562 9.71875 17.441406 9.71875 C 17.5625 9.71875 17.714844 9.761719 17.808594 9.878906 Z M 17.621094 10.027344 "/>
<path style=" stroke:none;fill-rule:nonzero;fill:rgb(100%,100%,100%);fill-opacity:1;" d="M 18.496094 10.640625 C 18.699219 10.640625 18.835938 10.492188 18.835938 10.289062 C 18.835938 10.085938 18.699219 9.941406 18.496094 9.941406 C 18.292969 9.941406 18.160156 10.085938 18.160156 10.289062 C 18.160156 10.492188 18.292969 10.640625 18.496094 10.640625 M 18.496094 9.71875 C 18.835938 9.71875 19.082031 9.941406 19.082031 10.289062 C 19.082031 10.636719 18.835938 10.859375 18.496094 10.859375 C 18.15625 10.859375 17.910156 10.636719 17.910156 10.289062 C 17.910156 9.941406 18.15625 9.71875 18.496094 9.71875 "/>
<path style=" stroke:none;fill-rule:nonzero;fill:rgb(100%,100%,100%);fill-opacity:1;" d="M 20.203125 10.414062 C 20.203125 10.671875 20.046875 10.859375 19.746094 10.859375 C 19.441406 10.859375 19.285156 10.671875 19.285156 10.414062 L 19.285156 9.746094 L 19.523438 9.746094 L 19.523438 10.40625 C 19.523438 10.539062 19.617188 10.640625 19.746094 10.640625 C 19.871094 10.640625 19.960938 10.539062 19.960938 10.40625 L 19.960938 9.746094 L 20.203125 9.746094 Z M 20.203125 10.414062 "/>
<path style=" stroke:none;fill-rule:nonzero;fill:rgb(100%,100%,100%);fill-opacity:1;" d="M 20.335938 9.746094 L 20.609375 9.746094 L 20.875 10.457031 L 20.878906 10.457031 L 21.152344 9.746094 L 21.410156 9.746094 L 20.960938 10.832031 L 20.769531 10.832031 Z M 20.335938 9.746094 "/>
<path style=" stroke:none;fill-rule:nonzero;fill:rgb(100%,100%,100%);fill-opacity:1;" d="M 21.554688 9.746094 L 22.292969 9.746094 L 22.292969 9.96875 L 21.792969 9.96875 L 21.792969 10.171875 L 22.265625 10.171875 L 22.265625 10.390625 L 21.792969 10.390625 L 21.792969 10.613281 L 22.320312 10.613281 L 22.320312 10.832031 L 21.554688 10.832031 Z M 21.554688 9.746094 "/>
<path style=" stroke:none;fill-rule:nonzero;fill:rgb(100%,100%,100%);fill-opacity:1;" d="M 22.773438 10.195312 L 22.914062 10.195312 C 23 10.195312 23.113281 10.191406 23.113281 10.074219 C 23.113281 9.964844 23.015625 9.949219 22.929688 9.949219 L 22.773438 9.949219 Z M 22.53125 9.746094 L 22.953125 9.746094 C 23.175781 9.746094 23.363281 9.824219 23.363281 10.078125 C 23.363281 10.226562 23.28125 10.347656 23.128906 10.375 L 23.40625 10.832031 L 23.117188 10.832031 L 22.890625 10.398438 L 22.773438 10.398438 L 22.773438 10.832031 L 22.53125 10.832031 Z M 22.53125 9.746094 "/>
<path style=" stroke:none;fill-rule:nonzero;fill:rgb(1.960784%,10.980392%,21.176471%);fill-opacity:1;" d="M 22.578125 22.117188 L 22.742188 22.117188 L 22.742188 22.542969 L 22.824219 22.542969 L 22.824219 22.117188 L 22.988281 22.117188 L 22.988281 22.042969 L 22.578125 22.042969 Z M 22.578125 22.117188 "/>
<path style=" stroke:none;fill-rule:nonzero;fill:rgb(1.960784%,10.980392%,21.176471%);fill-opacity:1;" d="M 23.292969 22.441406 L 23.167969 22.042969 L 23.042969 22.042969 L 23.042969 22.542969 L 23.121094 22.542969 L 23.121094 22.117188 L 23.257812 22.542969 L 23.332031 22.542969 L 23.460938 22.121094 L 23.460938 22.542969 L 23.539062 22.542969 L 23.539062 22.042969 L 23.417969 22.042969 Z M 23.292969 22.441406 "/>
</g>
</svg>
