<?xml version="1.0" encoding="UTF-8"?>
<svg xmlns="http://www.w3.org/2000/svg" xmlns:xlink="http://www.w3.org/1999/xlink" width="27pt" height="18pt" viewBox="0 0 27 18" version="1.1">
<defs>
<clipPath id="clip1">
  <path d="M 9 4 L 18 4 L 18 14 L 9 14 Z M 9 4 "/>
</clipPath>
<clipPath id="clip2">
  <path d="M 0 0 L 27 0 L 27 18 L 0 18 Z M 14.585938 12.601562 C 16.574219 12.601562 18.1875 10.988281 18.1875 9 C 18.1875 7.011719 16.574219 5.398438 14.585938 5.398438 C 12.597656 5.398438 10.988281 7.011719 10.988281 9 C 10.988281 10.988281 12.597656 12.601562 14.585938 12.601562 "/>
</clipPath>
</defs>
<g id="surface1">
<rect x="0" y="0" width="27" height="18" style="fill:rgb(100%,100%,100%);fill-opacity:1;stroke:none;"/>
<path style=" stroke:none;fill-rule:nonzero;fill:rgb(0%,38.431373%,20%);fill-opacity:1;" d="M 0 0 L 13.5 0 L 13.5 18 L 0 18 Z M 0 0 "/>
<g clip-path="url(#clip1)" clip-rule="nonzero">
<g clip-path="url(#clip2)" clip-rule="nonzero">
<path style=" stroke:none;fill-rule:nonzero;fill:rgb(82.352941%,6.27451%,20.392157%);fill-opacity:1;" d="M 18 9 C 18 11.484375 15.984375 13.5 13.5 13.5 C 11.015625 13.5 9 11.484375 9 9 C 9 6.515625 11.015625 4.5 13.5 4.5 C 15.984375 4.5 18 6.515625 18 9 Z M 18 9 "/>
</g>
</g>
<path style=" stroke:none;fill-rule:nonzero;fill:rgb(82.352941%,6.27451%,20.392157%);fill-opacity:1;" d="M 17.570312 9 L 15.429688 8.304688 L 15.011719 9.589844 Z M 17.570312 9 "/>
<path style=" stroke:none;fill-rule:nonzero;fill:rgb(82.352941%,6.27451%,20.392157%);fill-opacity:1;" d="M 17.570312 9 L 15.429688 9.695312 L 15.011719 8.410156 Z M 17.570312 9 "/>
<path style=" stroke:none;fill-rule:nonzero;fill:rgb(82.352941%,6.27451%,20.392157%);fill-opacity:1;" d="M 16.015625 11.140625 L 16.015625 8.890625 L 14.664062 8.890625 Z M 16.015625 11.140625 "/>
<path style=" stroke:none;fill-rule:nonzero;fill:rgb(82.352941%,6.27451%,20.392157%);fill-opacity:1;" d="M 16.015625 11.140625 L 14.691406 9.320312 L 15.785156 8.527344 Z M 16.015625 11.140625 "/>
<path style=" stroke:none;fill-rule:nonzero;fill:rgb(82.352941%,6.27451%,20.392157%);fill-opacity:1;" d="M 16.015625 6.859375 L 14.691406 8.679688 L 15.785156 9.472656 Z M 16.015625 6.859375 "/>
<path style=" stroke:none;fill-rule:nonzero;fill:rgb(82.352941%,6.27451%,20.392157%);fill-opacity:1;" d="M 16.015625 6.859375 L 16.015625 9.109375 L 14.664062 9.109375 Z M 16.015625 6.859375 "/>
<path style=" stroke:none;fill-rule:nonzero;fill:rgb(82.352941%,6.27451%,20.392157%);fill-opacity:1;" d="M 13.5 10.324219 L 15.640625 9.628906 L 15.222656 8.34375 Z M 13.5 10.324219 "/>
<path style=" stroke:none;fill-rule:nonzero;fill:rgb(82.352941%,6.27451%,20.392157%);fill-opacity:1;" d="M 13.5 10.324219 L 14.824219 8.503906 L 15.914062 9.296875 Z M 13.5 10.324219 "/>
<path style=" stroke:none;fill-rule:nonzero;fill:rgb(82.352941%,6.27451%,20.392157%);fill-opacity:1;" d="M 13.5 7.675781 L 14.824219 9.496094 L 15.914062 8.703125 Z M 13.5 7.675781 "/>
<path style=" stroke:none;fill-rule:nonzero;fill:rgb(82.352941%,6.27451%,20.392157%);fill-opacity:1;" d="M 13.5 7.675781 L 15.640625 8.371094 L 15.222656 9.65625 Z M 13.5 7.675781 "/>
</g>
</svg>
