<?xml version="1.0" encoding="UTF-8"?>
<svg xmlns="http://www.w3.org/2000/svg" xmlns:xlink="http://www.w3.org/1999/xlink" width="29pt" height="18pt" viewBox="0 0 29 18" version="1.1">
<g id="surface1">
<rect x="0" y="0" width="29" height="18" style="fill:rgb(45.490196%,67.45098%,87.45098%);fill-opacity:1;stroke:none;"/>
<path style=" stroke:none;fill-rule:nonzero;fill:rgb(100%,100%,100%);fill-opacity:1;" d="M 0 6 L 29 6 L 29 12 L 0 12 Z M 0 6 "/>
<path style="fill-rule:nonzero;fill:rgb(96.470588%,70.588235%,5.490196%);fill-opacity:1;stroke-width:1.1116;stroke-linecap:butt;stroke-linejoin:miter;stroke:rgb(52.156863%,20.392157%,3.921569%);stroke-opacity:1;stroke-miterlimit:4;" d="M 396.875 251.302083 L 425.323276 313.259549 C 425.323276 313.259549 425.75431 314.453125 426.616379 314.127604 C 427.37069 313.802083 426.831897 312.608507 426.831897 312.608507 L 403.125 248.697917 M 402.478448 272.786458 C 402.155172 282.226562 407.974138 287.434896 407.219828 295.898438 C 406.465517 304.253472 410.991379 309.027778 412.068966 312.282986 C 413.146552 315.538194 410.991379 317.491319 411.961207 318.033854 C 412.823276 318.467882 414.978448 315.863715 414.331897 311.197917 C 413.577586 306.532118 410.12931 305.230035 410.883621 294.921875 C 411.74569 284.613715 406.681034 282.226562 407.974138 272.894965 " transform="matrix(0.03625,0,0,0.036,0,0)"/>
<path style="fill-rule:nonzero;fill:rgb(96.470588%,70.588235%,5.490196%);fill-opacity:1;stroke-width:1.1116;stroke-linecap:butt;stroke-linejoin:miter;stroke:rgb(52.156863%,20.392157%,3.921569%);stroke-opacity:1;stroke-miterlimit:4;" d="M 396.814209 251.319598 L 425.280505 313.285232 C 425.280505 313.285232 425.77879 314.4882 426.575238 314.158301 C 427.371686 313.828401 426.873401 312.625433 426.873401 312.625433 L 403.185791 248.680402 M 402.455974 272.824457 C 402.15234 282.228545 407.937623 287.466262 407.218751 295.867877 C 406.400322 304.310729 411.056967 309.076367 412.145093 312.266509 C 413.175187 315.598136 410.960446 317.572536 411.948004 317.985605 C 412.836007 318.439912 415.042241 315.881801 414.293801 311.259038 C 413.644917 306.595038 410.018366 305.161028 410.910829 294.925803 C 411.761768 284.590332 406.699404 282.224243 407.924058 272.790997 " transform="matrix(0.0334906,0.0137766,-0.0138723,0.0332597,4.571815,-4.825557)"/>
<path style="fill-rule:nonzero;fill:rgb(96.470588%,70.588235%,5.490196%);fill-opacity:1;stroke-width:1.1116;stroke-linecap:butt;stroke-linejoin:miter;stroke:rgb(52.156863%,20.392157%,3.921569%);stroke-opacity:1;stroke-miterlimit:4;" d="M 396.869579 251.288997 L 425.297884 313.243916 C 425.297884 313.243916 425.760886 314.468886 426.524441 314.165686 C 427.364194 313.786289 426.824996 312.637516 426.824996 312.637516 L 403.130421 248.711003 M 402.525608 272.793971 C 402.099647 282.2736 407.928706 287.493084 407.116468 295.824469 C 406.380957 304.23258 411.061772 309.065788 412.143344 312.280872 C 413.148719 315.572153 410.937952 317.476016 411.933803 318.014685 C 412.852927 318.476629 414.984852 315.884348 414.28056 311.21782 C 413.576268 306.551292 410.05428 305.162816 410.936365 294.92016 C 411.741723 284.600779 406.763529 282.213277 407.954634 272.889217 " transform="matrix(0.0256326,0.0254558,-0.0256326,0.0254558,10.655107,-7.546299)"/>
<path style="fill-rule:nonzero;fill:rgb(96.470588%,70.588235%,5.490196%);fill-opacity:1;stroke-width:1.1116;stroke-linecap:butt;stroke-linejoin:miter;stroke:rgb(52.156863%,20.392157%,3.921569%);stroke-opacity:1;stroke-miterlimit:4;" d="M 396.887335 251.276708 L 425.328025 313.327813 C 425.328025 313.327813 425.800104 314.456452 426.607775 314.207815 C 427.356437 313.818098 426.884357 312.689459 426.884357 312.689459 L 403.112665 248.723292 M 402.513828 272.852398 C 402.139779 282.261703 407.966899 287.474665 407.17978 295.896412 C 406.433899 304.218602 411.016814 309.032835 412.13231 312.294179 C 413.247806 315.555522 410.913654 317.504613 411.87489 318.019407 C 412.877364 318.434645 414.975476 315.921235 414.337057 311.224584 C 413.557153 306.585965 410.048496 305.132632 410.89393 294.868847 C 411.739364 284.605062 406.750461 282.188679 407.908717 272.870929 " transform="matrix(0.0138723,0.0332597,-0.0334906,0.0137766,17.323748,-7.748016)"/>
<path style=" stroke:none;fill-rule:nonzero;fill:rgb(52.156863%,20.392157%,3.921569%);fill-opacity:1;" d="M 14.65625 9.878906 C 14.671875 10.203125 14.859375 10.347656 14.820312 10.644531 C 14.902344 10.410156 14.710938 10.230469 14.71875 9.882812 M 14.441406 9.027344 L 15.148438 10.558594 L 14.558594 8.980469 "/>
<path style=" stroke:none;fill-rule:nonzero;fill:rgb(52.156863%,20.392157%,3.921569%);fill-opacity:1;" d="M 14.304688 9.871094 C 14.195312 10.179688 14.3125 10.382812 14.164062 10.644531 C 14.328125 10.457031 14.21875 10.214844 14.363281 9.898438 M 14.4375 9.003906 L 14.5 10.6875 L 14.5625 9.003906 "/>
<path style=" stroke:none;fill-rule:nonzero;fill:rgb(52.156863%,20.392157%,3.921569%);fill-opacity:1;" d="M 13.984375 9.730469 C 13.765625 9.972656 13.792969 10.207031 13.554688 10.390625 C 13.78125 10.28125 13.773438 10.015625 14.027344 9.777344 M 14.441406 8.980469 L 13.847656 10.558594 L 14.554688 9.027344 "/>
<path style=" stroke:none;fill-rule:nonzero;fill:rgb(52.156863%,20.392157%,3.921569%);fill-opacity:1;" d="M 13.742188 9.480469 C 13.445312 9.621094 13.382812 9.84375 13.09375 9.925781 C 13.339844 9.910156 13.4375 9.660156 13.761719 9.539062 M 14.453125 8.957031 L 13.296875 10.191406 L 14.539062 9.042969 "/>
<path style="fill-rule:nonzero;fill:rgb(96.470588%,70.588235%,5.490196%);fill-opacity:1;stroke-width:1.1116;stroke-linecap:butt;stroke-linejoin:miter;stroke:rgb(52.156863%,20.392157%,3.921569%);stroke-opacity:1;stroke-miterlimit:4;" d="M 396.853299 251.293103 L 425.282118 313.25431 C 425.282118 313.25431 425.824653 314.439655 426.584201 314.116379 C 427.34375 313.793103 426.909722 312.607759 426.909722 312.607759 L 403.146701 248.706897 M 402.49566 272.844828 C 402.170139 282.219828 407.921007 287.392241 407.161458 295.797414 C 406.40191 304.310345 411.067708 309.051724 412.152778 312.284483 C 413.237847 315.625 410.959201 317.564655 411.935764 317.99569 C 412.912326 318.426724 414.973958 315.840517 414.322917 311.206897 C 413.563368 306.573276 410.091146 305.172414 410.959201 294.935345 C 411.71875 284.590517 406.727431 282.219828 407.921007 272.844828 " transform="matrix(0.000000000000000002,0.036,-0.03625,0.000000000000000002,23.5625,-5.4)"/>
<path style="fill-rule:nonzero;fill:rgb(96.470588%,70.588235%,5.490196%);fill-opacity:1;stroke-width:1.1116;stroke-linecap:butt;stroke-linejoin:miter;stroke:rgb(52.156863%,20.392157%,3.921569%);stroke-opacity:1;stroke-miterlimit:4;" d="M 396.792085 251.328762 L 425.30132 313.351128 C 425.30132 313.351128 425.754932 314.446244 426.556911 314.114054 C 427.358889 313.781863 426.905278 312.686747 426.905278 312.686747 L 403.107668 248.712762 M 402.497844 272.759326 C 402.087687 282.260185 407.976036 287.402562 407.153505 295.907862 C 406.389984 304.272082 411.046207 308.991726 412.065063 312.302089 C 413.184166 315.570928 410.948872 317.546551 411.939266 317.952776 C 412.870649 318.500081 414.958766 315.885598 414.329514 311.247485 C 413.558778 306.55134 410.062896 305.200091 410.968597 294.910785 C 411.732813 284.563446 406.657133 282.233652 407.933971 272.84035 " transform="matrix(-0.0138723,0.0332597,-0.0334906,-0.0137766,28.421568,-0.859714)"/>
<path style="fill-rule:nonzero;fill:rgb(96.470588%,70.588235%,5.490196%);fill-opacity:1;stroke-width:1.1116;stroke-linecap:butt;stroke-linejoin:miter;stroke:rgb(52.156863%,20.392157%,3.921569%);stroke-opacity:1;stroke-miterlimit:4;" d="M 396.860584 251.310692 L 425.242324 313.298418 C 425.242324 313.298418 425.773585 314.443487 426.539258 314.134996 C 427.30493 313.826504 426.850395 312.604709 426.850395 312.604709 L 403.139416 248.689308 M 402.44412 272.853235 C 402.182193 282.258784 407.97527 287.438053 407.181553 295.851455 C 406.387836 304.264858 411.035315 309.065788 412.094663 312.273464 C 413.230207 315.557337 410.929486 317.553271 411.922162 317.932139 C 412.914308 318.463929 414.987497 315.933559 414.315483 311.271793 C 413.567273 306.533831 410.05481 305.169695 410.854876 294.921219 C 411.731669 284.596016 406.693682 282.166712 407.949342 272.834186 " transform="matrix(-0.0256326,0.0254558,-0.0256326,-0.0254558,31.161204,5.181623)"/>
<path style="fill-rule:nonzero;fill:rgb(96.470588%,70.588235%,5.490196%);fill-opacity:1;stroke-width:1.1116;stroke-linecap:butt;stroke-linejoin:miter;stroke:rgb(52.156863%,20.392157%,3.921569%);stroke-opacity:1;stroke-miterlimit:4;" d="M 396.896245 251.298218 L 425.318031 313.338253 C 425.318031 313.338253 425.782288 314.470132 426.587243 314.216319 C 427.334166 313.821023 426.869908 312.689144 426.869908 312.689144 L 403.103755 248.701782 M 402.431282 272.852225 C 402.154089 282.250621 407.927324 287.460703 407.14435 295.827467 C 406.460931 304.235469 410.997971 309.05095 412.092076 312.322872 C 413.18618 315.594795 410.994937 317.505882 411.948973 318.018503 C 412.903009 318.531125 414.945171 315.853604 414.29132 311.237229 C 413.637469 306.620853 410.053454 305.136306 410.903473 294.918159 C 411.795017 284.599765 406.701153 282.254923 407.899365 272.885685 " transform="matrix(-0.0334906,0.0137766,-0.0138723,-0.0332597,31.364322,11.804274)"/>
<path style=" stroke:none;fill-rule:nonzero;fill:rgb(52.156863%,20.392157%,3.921569%);fill-opacity:1;" d="M 13.613281 9.15625 C 13.285156 9.171875 13.140625 9.355469 12.84375 9.320312 C 13.078125 9.398438 13.261719 9.207031 13.613281 9.21875 M 14.472656 8.941406 L 12.929688 9.644531 L 14.519531 9.058594 "/>
<path style=" stroke:none;fill-rule:nonzero;fill:rgb(52.156863%,20.392157%,3.921569%);fill-opacity:1;" d="M 13.621094 8.808594 C 13.3125 8.699219 13.109375 8.8125 12.84375 8.664062 C 13.03125 8.828125 13.277344 8.722656 13.59375 8.863281 M 14.496094 8.9375 L 12.800781 9 L 14.496094 9.058594 "/>
<path style=" stroke:none;fill-rule:nonzero;fill:rgb(52.156863%,20.392157%,3.921569%);fill-opacity:1;" d="M 13.765625 8.488281 C 13.519531 8.269531 13.285156 8.296875 13.101562 8.0625 C 13.210938 8.285156 13.476562 8.277344 13.714844 8.53125 M 14.519531 8.941406 L 12.929688 8.351562 L 14.472656 9.054688 "/>
<path style=" stroke:none;fill-rule:nonzero;fill:rgb(52.156863%,20.392157%,3.921569%);fill-opacity:1;" d="M 14.015625 8.246094 C 13.875 7.953125 13.648438 7.890625 13.566406 7.601562 C 13.585938 7.847656 13.832031 7.945312 13.957031 8.269531 M 14.542969 8.953125 L 13.300781 7.804688 L 14.453125 9.039062 "/>
<path style="fill-rule:nonzero;fill:rgb(96.470588%,70.588235%,5.490196%);fill-opacity:1;stroke-width:1.1116;stroke-linecap:butt;stroke-linejoin:miter;stroke:rgb(52.156863%,20.392157%,3.921569%);stroke-opacity:1;stroke-miterlimit:4;" d="M 396.875 251.302083 L 425.323276 313.259549 C 425.323276 313.259549 425.75431 314.453125 426.616379 314.127604 C 427.37069 313.802083 426.831897 312.608507 426.831897 312.608507 L 403.125 248.697917 M 402.478448 272.786458 C 402.155172 282.226562 407.974138 287.434896 407.219828 295.898438 C 406.465517 304.253472 410.991379 309.027778 412.068966 312.282986 C 413.146552 315.538194 410.991379 317.491319 411.961207 318.033854 C 412.823276 318.467882 414.978448 315.863715 414.331897 311.197917 C 413.577586 306.532118 410.12931 305.230035 410.883621 294.921875 C 411.74569 284.613715 406.681034 282.226562 407.974138 272.894965 " transform="matrix(-0.03625,0.000000000000000004,-0.000000000000000004,-0.036,29,18)"/>
<path style="fill-rule:nonzero;fill:rgb(96.470588%,70.588235%,5.490196%);fill-opacity:1;stroke-width:1.1116;stroke-linecap:butt;stroke-linejoin:miter;stroke:rgb(52.156863%,20.392157%,3.921569%);stroke-opacity:1;stroke-miterlimit:4;" d="M 396.814209 251.319598 L 425.280505 313.285232 C 425.280505 313.285232 425.77879 314.4882 426.575238 314.158301 C 427.371686 313.828401 426.873401 312.625433 426.873401 312.625433 L 403.185791 248.680402 M 402.455974 272.824457 C 402.15234 282.228545 407.937623 287.466262 407.218751 295.867877 C 406.400322 304.310729 411.056967 309.076367 412.145093 312.266509 C 413.175187 315.598136 410.960446 317.572536 411.948004 317.985605 C 412.836007 318.439912 415.042241 315.881801 414.293801 311.259038 C 413.644917 306.595038 410.018366 305.161028 410.910829 294.925803 C 411.761768 284.590332 406.699404 282.224243 407.924058 272.790997 " transform="matrix(-0.0334906,-0.0137766,0.0138723,-0.0332597,24.428185,22.825557)"/>
<path style="fill-rule:nonzero;fill:rgb(96.470588%,70.588235%,5.490196%);fill-opacity:1;stroke-width:1.1116;stroke-linecap:butt;stroke-linejoin:miter;stroke:rgb(52.156863%,20.392157%,3.921569%);stroke-opacity:1;stroke-miterlimit:4;" d="M 396.869579 251.288997 L 425.297884 313.243916 C 425.297884 313.243916 425.760886 314.468886 426.524441 314.165686 C 427.364194 313.786289 426.824996 312.637516 426.824996 312.637516 L 403.130421 248.711003 M 402.525608 272.793971 C 402.099647 282.2736 407.928706 287.493084 407.116468 295.824469 C 406.380957 304.23258 411.061772 309.065788 412.143344 312.280872 C 413.148719 315.572153 410.937952 317.476016 411.933803 318.014685 C 412.852927 318.476629 414.984852 315.884348 414.28056 311.21782 C 413.576268 306.551292 410.05428 305.162816 410.936365 294.92016 C 411.741723 284.600779 406.763529 282.213277 407.954634 272.889217 " transform="matrix(-0.0256326,-0.0254558,0.0256326,-0.0254558,18.344893,25.546299)"/>
<path style="fill-rule:nonzero;fill:rgb(96.470588%,70.588235%,5.490196%);fill-opacity:1;stroke-width:1.1116;stroke-linecap:butt;stroke-linejoin:miter;stroke:rgb(52.156863%,20.392157%,3.921569%);stroke-opacity:1;stroke-miterlimit:4;" d="M 396.887335 251.276708 L 425.328025 313.327813 C 425.328025 313.327813 425.800104 314.456452 426.607775 314.207815 C 427.356437 313.818098 426.884357 312.689459 426.884357 312.689459 L 403.112665 248.723292 M 402.513828 272.852398 C 402.139779 282.261703 407.966899 287.474665 407.17978 295.896412 C 406.433899 304.218602 411.016814 309.032835 412.13231 312.294179 C 413.247806 315.555522 410.913654 317.504613 411.87489 318.019407 C 412.877364 318.434645 414.975476 315.921235 414.337057 311.224584 C 413.557153 306.585965 410.048496 305.132632 410.89393 294.868847 C 411.739364 284.605062 406.750461 282.188679 407.908717 272.870929 " transform="matrix(-0.0138723,-0.0332597,0.0334906,-0.0137766,11.676252,25.748016)"/>
<path style=" stroke:none;fill-rule:nonzero;fill:rgb(52.156863%,20.392157%,3.921569%);fill-opacity:1;" d="M 14.34375 8.121094 C 14.328125 7.796875 14.140625 7.652344 14.179688 7.355469 C 14.097656 7.589844 14.289062 7.769531 14.28125 8.117188 M 14.558594 8.972656 L 13.851562 7.441406 L 14.441406 9.019531 "/>
<path style=" stroke:none;fill-rule:nonzero;fill:rgb(52.156863%,20.392157%,3.921569%);fill-opacity:1;" d="M 14.695312 8.128906 C 14.804688 7.820312 14.6875 7.617188 14.835938 7.355469 C 14.671875 7.542969 14.78125 7.785156 14.636719 8.101562 M 14.5625 8.996094 L 14.5 7.3125 L 14.4375 8.996094 "/>
<path style=" stroke:none;fill-rule:nonzero;fill:rgb(52.156863%,20.392157%,3.921569%);fill-opacity:1;" d="M 15.015625 8.269531 C 15.234375 8.027344 15.207031 7.792969 15.445312 7.609375 C 15.21875 7.71875 15.226562 7.984375 14.972656 8.222656 M 14.558594 9.019531 L 15.152344 7.441406 L 14.445312 8.972656 "/>
<path style=" stroke:none;fill-rule:nonzero;fill:rgb(52.156863%,20.392157%,3.921569%);fill-opacity:1;" d="M 15.257812 8.519531 C 15.554688 8.378906 15.617188 8.15625 15.90625 8.074219 C 15.660156 8.089844 15.5625 8.339844 15.238281 8.460938 M 14.546875 9.042969 L 15.703125 7.808594 L 14.460938 8.957031 "/>
<path style="fill-rule:nonzero;fill:rgb(96.470588%,70.588235%,5.490196%);fill-opacity:1;stroke-width:1.1116;stroke-linecap:butt;stroke-linejoin:miter;stroke:rgb(52.156863%,20.392157%,3.921569%);stroke-opacity:1;stroke-miterlimit:4;" d="M 396.853299 251.293103 L 425.282118 313.25431 C 425.282118 313.25431 425.824653 314.439655 426.584201 314.116379 C 427.34375 313.793103 426.909722 312.607759 426.909722 312.607759 L 403.146701 248.706897 M 402.49566 272.844828 C 402.170139 282.219828 407.921007 287.392241 407.161458 295.797414 C 406.40191 304.310345 411.067708 309.051724 412.152778 312.284483 C 413.237847 315.625 410.959201 317.564655 411.935764 317.99569 C 412.912326 318.426724 414.973958 315.840517 414.322917 311.206897 C 413.563368 306.573276 410.091146 305.172414 410.959201 294.935345 C 411.71875 284.590517 406.727431 282.219828 407.921007 272.844828 " transform="matrix(-0.000000000000000007,-0.036,0.03625,-0.000000000000000007,5.4375,23.4)"/>
<path style="fill-rule:nonzero;fill:rgb(96.470588%,70.588235%,5.490196%);fill-opacity:1;stroke-width:1.1116;stroke-linecap:butt;stroke-linejoin:miter;stroke:rgb(52.156863%,20.392157%,3.921569%);stroke-opacity:1;stroke-miterlimit:4;" d="M 396.792085 251.328762 L 425.30132 313.351128 C 425.30132 313.351128 425.754932 314.446244 426.556911 314.114054 C 427.358889 313.781863 426.905278 312.686747 426.905278 312.686747 L 403.107668 248.712762 M 402.497844 272.759326 C 402.087687 282.260185 407.976036 287.402562 407.153505 295.907862 C 406.389984 304.272082 411.046207 308.991726 412.065063 312.302089 C 413.184166 315.570928 410.948872 317.546551 411.939266 317.952776 C 412.870649 318.500081 414.958766 315.885598 414.329514 311.247485 C 413.558778 306.55134 410.062896 305.200091 410.968597 294.910785 C 411.732813 284.563446 406.657133 282.233652 407.933971 272.84035 " transform="matrix(0.0138723,-0.0332597,0.0334906,0.0137766,0.578432,18.859714)"/>
<path style="fill-rule:nonzero;fill:rgb(96.470588%,70.588235%,5.490196%);fill-opacity:1;stroke-width:1.1116;stroke-linecap:butt;stroke-linejoin:miter;stroke:rgb(52.156863%,20.392157%,3.921569%);stroke-opacity:1;stroke-miterlimit:4;" d="M 396.860584 251.310692 L 425.242324 313.298418 C 425.242324 313.298418 425.773585 314.443487 426.539258 314.134996 C 427.30493 313.826504 426.850395 312.604709 426.850395 312.604709 L 403.139416 248.689308 M 402.44412 272.853235 C 402.182193 282.258784 407.97527 287.438053 407.181553 295.851455 C 406.387836 304.264858 411.035315 309.065788 412.094663 312.273464 C 413.230207 315.557337 410.929486 317.553271 411.922162 317.932139 C 412.914308 318.463929 414.987497 315.933559 414.315483 311.271793 C 413.567273 306.533831 410.05481 305.169695 410.854876 294.921219 C 411.731669 284.596016 406.693682 282.166712 407.949342 272.834186 " transform="matrix(0.0256326,-0.0254558,0.0256326,0.0254558,-2.161204,12.818377)"/>
<path style="fill-rule:nonzero;fill:rgb(96.470588%,70.588235%,5.490196%);fill-opacity:1;stroke-width:1.1116;stroke-linecap:butt;stroke-linejoin:miter;stroke:rgb(52.156863%,20.392157%,3.921569%);stroke-opacity:1;stroke-miterlimit:4;" d="M 396.896245 251.298218 L 425.318031 313.338253 C 425.318031 313.338253 425.782288 314.470132 426.587243 314.216319 C 427.334166 313.821023 426.869908 312.689144 426.869908 312.689144 L 403.103755 248.701782 M 402.431282 272.852225 C 402.154089 282.250621 407.927324 287.460703 407.14435 295.827467 C 406.460931 304.235469 410.997971 309.05095 412.092076 312.322872 C 413.18618 315.594795 410.994937 317.505882 411.948973 318.018503 C 412.903009 318.531125 414.945171 315.853604 414.29132 311.237229 C 413.637469 306.620853 410.053454 305.136306 410.903473 294.918159 C 411.795017 284.599765 406.701153 282.254923 407.899365 272.885685 " transform="matrix(0.0334906,-0.0137766,0.0138723,0.0332597,-2.364322,6.195726)"/>
<path style=" stroke:none;fill-rule:nonzero;fill:rgb(52.156863%,20.392157%,3.921569%);fill-opacity:1;" d="M 15.386719 8.84375 C 15.714844 8.828125 15.859375 8.644531 16.15625 8.679688 C 15.921875 8.601562 15.738281 8.792969 15.386719 8.78125 M 14.527344 9.058594 L 16.070312 8.355469 L 14.480469 8.941406 "/>
<path style=" stroke:none;fill-rule:nonzero;fill:rgb(52.156863%,20.392157%,3.921569%);fill-opacity:1;" d="M 15.378906 9.191406 C 15.6875 9.300781 15.890625 9.1875 16.15625 9.335938 C 15.96875 9.171875 15.722656 9.277344 15.40625 9.136719 M 14.503906 9.0625 L 16.199219 9 L 14.503906 8.941406 "/>
<path style=" stroke:none;fill-rule:nonzero;fill:rgb(52.156863%,20.392157%,3.921569%);fill-opacity:1;" d="M 15.234375 9.511719 C 15.480469 9.730469 15.714844 9.703125 15.898438 9.9375 C 15.789062 9.714844 15.523438 9.722656 15.285156 9.46875 M 14.480469 9.058594 L 16.070312 9.648438 L 14.527344 8.945312 "/>
<path style=" stroke:none;fill-rule:nonzero;fill:rgb(52.156863%,20.392157%,3.921569%);fill-opacity:1;" d="M 14.984375 9.753906 C 15.125 10.046875 15.351562 10.109375 15.433594 10.398438 C 15.414062 10.152344 15.167969 10.054688 15.042969 9.730469 M 14.457031 9.046875 L 15.699219 10.195312 L 14.546875 8.960938 "/>
<path style="fill-rule:nonzero;fill:rgb(96.470588%,70.588235%,5.490196%);fill-opacity:1;stroke-width:1.5;stroke-linecap:butt;stroke-linejoin:miter;stroke:rgb(52.156863%,20.392157%,3.921569%);stroke-opacity:1;stroke-miterlimit:4;" d="M 427.801724 250 C 427.801724 265.299479 415.301724 277.777778 400 277.777778 C 384.698276 277.777778 372.198276 265.299479 372.198276 250 C 372.198276 234.700521 384.698276 222.222222 400 222.222222 C 415.301724 222.222222 427.801724 234.700521 427.801724 250 Z M 427.801724 250 " transform="matrix(0.03625,0,0,0.036,0,0)"/>
<path style=" stroke:none;fill-rule:nonzero;fill:rgb(51.764706%,20.784314%,6.666667%);fill-opacity:1;" d="M 14.84375 8.785156 C 14.773438 8.785156 14.707031 8.816406 14.671875 8.878906 C 14.746094 8.945312 14.917969 8.953125 15.035156 8.871094 C 14.984375 8.816406 14.910156 8.785156 14.84375 8.785156 Z M 14.84375 8.800781 C 14.910156 8.800781 14.972656 8.832031 14.980469 8.863281 C 14.902344 8.945312 14.777344 8.9375 14.703125 8.878906 C 14.734375 8.824219 14.789062 8.804688 14.84375 8.800781 Z M 14.84375 8.800781 "/>
<path style=" stroke:none;fill-rule:nonzero;fill:rgb(52.156863%,20.392157%,3.921569%);fill-opacity:1;" d="M 14.855469 8.738281 C 14.753906 8.738281 14.730469 8.761719 14.6875 8.800781 C 14.640625 8.839844 14.617188 8.832031 14.609375 8.839844 C 14.601562 8.847656 14.609375 8.871094 14.625 8.863281 C 14.640625 8.855469 14.671875 8.839844 14.71875 8.800781 C 14.761719 8.761719 14.808594 8.761719 14.855469 8.761719 C 14.996094 8.761719 15.074219 8.878906 15.089844 8.871094 C 15.105469 8.863281 15.011719 8.738281 14.855469 8.738281 Z M 14.855469 8.738281 "/>
<path style=" stroke:none;fill-rule:nonzero;fill:rgb(52.156863%,20.392157%,3.921569%);fill-opacity:1;" d="M 15.136719 8.785156 C 14.957031 8.632812 14.730469 8.609375 14.609375 8.722656 C 14.578125 8.761719 14.558594 8.808594 14.550781 8.851562 C 14.535156 8.9375 14.5625 9.035156 14.632812 9.132812 C 14.625 9.132812 14.609375 9.136719 14.601562 9.144531 C 14.539062 9.03125 14.515625 8.910156 14.539062 8.796875 C 14.542969 8.765625 14.550781 8.734375 14.5625 8.707031 C 14.730469 8.570312 14.964844 8.554688 15.136719 8.785156 Z M 15.136719 8.785156 "/>
<path style=" stroke:none;fill-rule:nonzero;fill:rgb(52.156863%,20.392157%,3.921569%);fill-opacity:1;" d="M 14.910156 8.863281 C 14.910156 8.898438 14.878906 8.929688 14.839844 8.929688 C 14.800781 8.929688 14.769531 8.898438 14.769531 8.863281 C 14.769531 8.824219 14.800781 8.792969 14.839844 8.792969 C 14.878906 8.792969 14.910156 8.824219 14.910156 8.863281 Z M 14.910156 8.863281 "/>
<path style=" stroke:none;fill-rule:nonzero;fill:rgb(52.156863%,20.392157%,3.921569%);fill-opacity:1;" d="M 15.042969 8.90625 C 14.910156 9.007812 14.777344 9 14.703125 8.953125 C 14.625 8.90625 14.625 8.890625 14.640625 8.890625 C 14.65625 8.890625 14.671875 8.90625 14.730469 8.9375 C 14.792969 8.96875 14.886719 8.96875 15.042969 8.90625 Z M 15.042969 8.90625 "/>
<path style=" stroke:none;fill-rule:nonzero;fill:rgb(52.156863%,20.392157%,3.921569%);fill-opacity:1;" d="M 14.347656 9.136719 C 14.3125 9.144531 14.289062 9.171875 14.289062 9.207031 C 14.289062 9.246094 14.320312 9.277344 14.359375 9.277344 C 14.382812 9.277344 14.402344 9.265625 14.417969 9.246094 C 14.441406 9.265625 14.480469 9.269531 14.5 9.269531 C 14.503906 9.269531 14.507812 9.269531 14.507812 9.269531 C 14.527344 9.269531 14.566406 9.265625 14.59375 9.246094 C 14.605469 9.265625 14.625 9.277344 14.648438 9.277344 C 14.6875 9.277344 14.71875 9.246094 14.71875 9.207031 C 14.71875 9.171875 14.695312 9.144531 14.664062 9.136719 C 14.683594 9.144531 14.695312 9.164062 14.695312 9.183594 C 14.695312 9.207031 14.671875 9.226562 14.648438 9.226562 C 14.621094 9.226562 14.601562 9.207031 14.601562 9.183594 C 14.59375 9.199219 14.5625 9.242188 14.503906 9.246094 C 14.445312 9.242188 14.414062 9.199219 14.410156 9.183594 C 14.40625 9.207031 14.386719 9.226562 14.363281 9.226562 C 14.335938 9.226562 14.316406 9.207031 14.316406 9.183594 C 14.316406 9.164062 14.328125 9.144531 14.347656 9.136719 Z M 14.347656 9.136719 "/>
<path style=" stroke:none;fill-rule:nonzero;fill:rgb(52.156863%,20.392157%,3.921569%);fill-opacity:1;" d="M 14.421875 9.34375 C 14.34375 9.34375 14.3125 9.414062 14.242188 9.457031 C 14.28125 9.445312 14.3125 9.414062 14.367188 9.382812 C 14.421875 9.351562 14.46875 9.390625 14.5 9.390625 C 14.53125 9.390625 14.578125 9.351562 14.632812 9.382812 C 14.683594 9.414062 14.71875 9.445312 14.757812 9.457031 C 14.6875 9.414062 14.65625 9.34375 14.578125 9.34375 C 14.5625 9.34375 14.53125 9.351562 14.5 9.367188 C 14.46875 9.351562 14.4375 9.34375 14.421875 9.34375 Z M 14.421875 9.34375 "/>
<path style=" stroke:none;fill-rule:nonzero;fill:rgb(52.156863%,20.392157%,3.921569%);fill-opacity:1;" d="M 14.394531 9.433594 C 14.363281 9.433594 14.324219 9.441406 14.265625 9.457031 C 14.40625 9.429688 14.4375 9.476562 14.5 9.476562 C 14.5625 9.476562 14.59375 9.429688 14.730469 9.457031 C 14.578125 9.414062 14.546875 9.441406 14.5 9.441406 C 14.46875 9.441406 14.445312 9.433594 14.394531 9.433594 Z M 14.394531 9.433594 "/>
<path style=" stroke:none;fill-rule:nonzero;fill:rgb(52.156863%,20.392157%,3.921569%);fill-opacity:1;" d="M 14.273438 9.457031 C 14.265625 9.457031 14.253906 9.457031 14.242188 9.460938 C 14.40625 9.472656 14.328125 9.566406 14.5 9.566406 C 14.671875 9.566406 14.59375 9.472656 14.757812 9.460938 C 14.585938 9.445312 14.640625 9.542969 14.5 9.542969 C 14.367188 9.542969 14.410156 9.457031 14.273438 9.457031 Z M 14.273438 9.457031 "/>
<path style=" stroke:none;fill-rule:nonzero;fill:rgb(52.156863%,20.392157%,3.921569%);fill-opacity:1;" d="M 14.640625 9.707031 C 14.640625 9.632812 14.578125 9.570312 14.5 9.570312 C 14.421875 9.570312 14.359375 9.632812 14.359375 9.707031 C 14.375 9.644531 14.433594 9.597656 14.5 9.597656 C 14.566406 9.597656 14.625 9.644531 14.640625 9.707031 Z M 14.640625 9.707031 "/>
<path style=" stroke:none;fill-rule:nonzero;fill:rgb(52.156863%,20.392157%,3.921569%);fill-opacity:1;" d="M 13.875 8.785156 C 14.050781 8.632812 14.277344 8.609375 14.402344 8.722656 C 14.429688 8.761719 14.449219 8.808594 14.457031 8.851562 C 14.472656 8.9375 14.445312 9.035156 14.378906 9.132812 C 14.386719 9.132812 14.402344 9.136719 14.410156 9.144531 C 14.46875 9.03125 14.492188 8.910156 14.472656 8.796875 C 14.464844 8.765625 14.457031 8.734375 14.445312 8.707031 C 14.277344 8.570312 14.042969 8.554688 13.875 8.785156 Z M 13.875 8.785156 "/>
<path style=" stroke:none;fill-rule:nonzero;fill:rgb(52.156863%,20.392157%,3.921569%);fill-opacity:1;" d="M 14.152344 8.738281 C 14.253906 8.738281 14.277344 8.761719 14.324219 8.800781 C 14.371094 8.839844 14.394531 8.832031 14.402344 8.839844 C 14.410156 8.847656 14.402344 8.871094 14.386719 8.863281 C 14.371094 8.855469 14.339844 8.839844 14.292969 8.800781 C 14.246094 8.761719 14.199219 8.761719 14.152344 8.761719 C 14.011719 8.761719 13.9375 8.878906 13.921875 8.871094 C 13.90625 8.863281 13.996094 8.738281 14.152344 8.738281 Z M 14.152344 8.738281 "/>
<path style=" stroke:none;fill-rule:nonzero;fill:rgb(51.764706%,20.784314%,6.666667%);fill-opacity:1;" d="M 14.148438 8.785156 C 14.078125 8.785156 14.011719 8.816406 13.976562 8.878906 C 14.050781 8.945312 14.222656 8.953125 14.339844 8.871094 C 14.289062 8.816406 14.214844 8.785156 14.148438 8.785156 Z M 14.148438 8.800781 C 14.214844 8.800781 14.277344 8.832031 14.285156 8.863281 C 14.207031 8.945312 14.082031 8.9375 14.007812 8.878906 C 14.039062 8.824219 14.09375 8.804688 14.148438 8.800781 Z M 14.148438 8.800781 "/>
<path style=" stroke:none;fill-rule:nonzero;fill:rgb(52.156863%,20.392157%,3.921569%);fill-opacity:1;" d="M 14.226562 8.863281 C 14.226562 8.898438 14.195312 8.929688 14.15625 8.929688 C 14.117188 8.929688 14.085938 8.898438 14.085938 8.863281 C 14.085938 8.824219 14.117188 8.792969 14.15625 8.792969 C 14.195312 8.792969 14.226562 8.824219 14.226562 8.863281 Z M 14.226562 8.863281 "/>
<path style=" stroke:none;fill-rule:nonzero;fill:rgb(52.156863%,20.392157%,3.921569%);fill-opacity:1;" d="M 13.964844 8.90625 C 14.097656 9.007812 14.230469 9 14.308594 8.953125 C 14.386719 8.90625 14.386719 8.890625 14.371094 8.890625 C 14.355469 8.890625 14.339844 8.90625 14.277344 8.9375 C 14.214844 8.96875 14.121094 8.96875 13.96875 8.90625 Z M 13.964844 8.90625 "/>
</g>
</svg>
