<?xml version="1.0" encoding="UTF-8"?>
<svg xmlns="http://www.w3.org/2000/svg" xmlns:xlink="http://www.w3.org/1999/xlink" width="27pt" height="18pt" viewBox="0 0 27 18" version="1.1">
<g id="surface1">
<rect x="0" y="0" width="27" height="18" style="fill:rgb(100%,100%,100%);fill-opacity:1;stroke:none;"/>
<path style="fill-rule:nonzero;fill:rgb(0%,0%,0%);fill-opacity:1;stroke-width:2;stroke-linecap:butt;stroke-linejoin:miter;stroke:rgb(0%,0%,0%);stroke-opacity:1;stroke-miterlimit:4;" d="M -5.997696 -24.996178 L 6.006363 -24.999067 M -6.003474 -22.000219 L 6.000585 -22.003108 M -5.994807 -19.001371 L 6.000585 -18.998482 " transform="matrix(0.208013,-0.312019,0.312019,0.208013,13.5,9)"/>
<path style="fill-rule:nonzero;fill:rgb(0%,0%,0%);fill-opacity:1;stroke-width:2;stroke-linecap:butt;stroke-linejoin:miter;stroke:rgb(0%,0%,0%);stroke-opacity:1;stroke-miterlimit:4;" d="M -6.000585 -25.001518 L 5.994807 -24.998629 M -6.000585 -21.996892 L 6.003474 -21.999781 M -6.006363 -19.000933 L 5.997696 -19.003822 " transform="matrix(0.208013,-0.312019,0.312019,0.208013,27.22883,18.152553)"/>
<path style="fill-rule:nonzero;fill:rgb(0%,0%,0%);fill-opacity:1;stroke-width:1;stroke-linecap:butt;stroke-linejoin:miter;stroke:rgb(100%,100%,100%);stroke-opacity:1;stroke-miterlimit:4;" d="M 0.00288906 16.99925 L -0.0000000122445 27.004077 " transform="matrix(0.208013,-0.312019,0.312019,0.208013,13.5,9)"/>
<path style=" stroke:none;fill-rule:nonzero;fill:rgb(77.647059%,4.705882%,18.823529%);fill-opacity:1;" d="M 15.996094 5.253906 C 18.0625 6.632812 18.621094 9.429688 17.246094 11.496094 C 15.867188 13.5625 13.070312 14.121094 11.003906 12.746094 C 8.9375 11.367188 8.378906 8.570312 9.753906 6.503906 C 11.132812 4.4375 13.929688 3.878906 15.996094 5.253906 Z M 15.996094 5.253906 "/>
<path style=" stroke:none;fill-rule:nonzero;fill:rgb(0%,20.392157%,47.058824%);fill-opacity:1;" d="M 9.753906 6.503906 C 9.066406 7.539062 9.347656 8.933594 10.378906 9.625 C 11.414062 10.3125 12.8125 10.035156 13.5 9 C 14.1875 7.964844 15.585938 7.6875 16.621094 8.375 C 17.652344 9.066406 17.933594 10.460938 17.246094 11.496094 C 15.867188 13.5625 13.070312 14.121094 11.003906 12.746094 C 8.9375 11.367188 8.378906 8.570312 9.753906 6.503906 Z M 9.753906 6.503906 "/>
<path style="fill-rule:nonzero;fill:rgb(0%,0%,0%);fill-opacity:1;stroke-width:2;stroke-linecap:butt;stroke-linejoin:miter;stroke:rgb(0%,0%,0%);stroke-opacity:1;stroke-miterlimit:4;" d="M -6.006363 -24.999067 L 5.997696 -24.996178 M -6.000585 -22.003108 L 6.003474 -22.000219 M -6.000585 -18.998482 L 5.994807 -19.001371 " transform="matrix(-0.208013,-0.312019,0.312019,-0.208013,13.5,9)"/>
<path style="fill-rule:nonzero;fill:rgb(0%,0%,0%);fill-opacity:1;stroke-width:2;stroke-linecap:butt;stroke-linejoin:miter;stroke:rgb(0%,0%,0%);stroke-opacity:1;stroke-miterlimit:4;" d="M -5.994807 -24.998629 L 6.000585 -25.001518 M -6.003474 -21.999781 L 6.000585 -21.996892 M -5.997696 -19.003822 L 6.006363 -19.000933 " transform="matrix(-0.208013,-0.312019,0.312019,-0.208013,27.22883,-0.152553)"/>
<path style="fill-rule:nonzero;fill:rgb(0%,0%,0%);fill-opacity:1;stroke-width:1;stroke-linecap:butt;stroke-linejoin:miter;stroke:rgb(100%,100%,100%);stroke-opacity:1;stroke-miterlimit:4;" d="M 0.00288905 -23.496754 L -0.00577814 -20.497906 M -0.00288906 16.99925 L 0.00577814 20.497906 M -0.00288905 23.496754 L -0.00288905 26.50138 " transform="matrix(-0.208013,-0.312019,0.312019,-0.208013,13.5,9)"/>
</g>
</svg>
