<?xml version="1.0" encoding="UTF-8" standalone="no"?>
<!-- Created with Inkscape (http://www.inkscape.org/) -->

<svg
   xmlns:dc="http://purl.org/dc/elements/1.1/"
   xmlns:cc="http://creativecommons.org/ns#"
   xmlns:rdf="http://www.w3.org/1999/02/22-rdf-syntax-ns#"
   xmlns:svg="http://www.w3.org/2000/svg"
   xmlns="http://www.w3.org/2000/svg"
   version="1.1"
   width="280"
   height="200"
   viewBox="0 0 279.99999 246.96322"
   id="Capa_1"
   xml:space="preserve"><metadata
     id="metadata131"><rdf:RDF><cc:Work
         rdf:about=""><dc:format>image/svg+xml</dc:format><dc:type
           rdf:resource="http://purl.org/dc/dcmitype/StillImage" /><dc:title></dc:title></cc:Work></rdf:RDF></metadata><defs
     id="defs129" /><path
     d="m 181.57851,0.48279568 c 13.6232,26.42320132 38.2552,44.20080132 66.6216,50.45440232 v 48.733611 c -14.72,13.318401 -26.612,35.245601 -35.6752,65.776001 -11.456,35.16 -26.9088,54.6256 -64.43758,80.9496 -29.13837,-17.2192 -53.170358,-38.7864 -64.143958,-77.7672 -8.2616,-31.7672 -19.334399,-53.8288 -35.729599,-69.611201 V 50.904398 C 81.899372,40.703597 104.05057,24.005197 114.66416,0.80919568 l 66.91435,-0.3264 z"
     id="path3"
     style="fill:#e6c777" /><path
     d="m 181.57851,0.48279568 -0.4256,0.2192 c 13.6912,26.55680132 38.4496,44.42080132 66.9448,50.70240232 l 0.1032,-0.4672 h -0.4784 v 48.733611 h 0.4784 l -0.32,-0.3544 c -14.8184,13.411201 -26.7344,35.416001 -35.8144,65.993601 l 0.4592,0.1368 -0.456,-0.1488 c -5.7168,17.5464 -12.416,31.1376 -22.3592,43.6384 -9.9464,12.5008 -23.15119,23.9184 -41.89598,37.0672 l 0.2744,0.392 0.244,-0.4128 c -29.09037,-17.1984 -52.985554,-38.6456 -63.926358,-77.484 l -0.4608,0.1296 0.4632,-0.12 c -8.2728,-31.8128 -19.378399,-53.9704 -35.859999,-69.836001 l -0.3328,0.3456 h 0.4784 V 50.904398 h -0.4784 l 0.1384,0.4584 C 82.116972,41.141997 104.41617,24.364397 115.10176,1.0091957 l -0.4352,-0.19920002 0.002,0.47920002 66.91355,-0.32720002 -0.004,-0.4792 -0.4256,0.2192 0.4256,-0.2192 -0.003,-0.4792 -67.21835,0.3288 -0.1264,0.2776 C 103.68817,23.645997 81.684972,40.264397 48.076973,50.445998 l -0.34,0.1024 v 48.671211 l 0.1464,0.1416 c 16.3088,15.699201 27.347999,37.664801 35.597599,69.386401 l 0.0032,0.0112 v -0.002 c 11.0064,39.1216 35.173588,60.8104 64.360758,78.0496 l 0.2656,0.1568 0.2528,-0.1776 c 18.78319,-13.1752 32.06718,-24.6504 42.09518,-37.2536 10.028,-12.6032 16.7832,-26.324 22.5216,-43.9384 l 0.004,-0.0128 0,0 c 9.048,-30.4832 20.9168,-52.3312 35.5384,-65.556 l 0.1568,-0.143201 V 50.550798 l -0.3752,-0.0832 c -28.24,-6.226401 -52.7448,-23.916001 -66.3008,-50.20560232 l -0.1344,-0.26160000224 -0.2936,8.0000224e-4 0.003,0.4816 z"
     id="path5"
     style="fill:#866b10" /><path
     d="m 88.380972,151.21961 c -5.5728,-18.5392 -14.6536,-37.464 -23.169599,-46.736 l 167.076737,8e-4 c -10.8296,13.0384 -18.3544,30.088 -23.6768,46.7352 H 88.380972 z"
     id="path7"
     style="fill:#c5112e" /><path
     d="m 88.380972,151.21961 0.4584,-0.1376 c -5.5952,-18.5944 -14.6696,-37.5424 -23.275199,-46.9224 l -0.3528,0.324 v 0.4792 l 167.076737,8e-4 v -0.4792 l -0.3688,-0.3056 c -10.8888,13.1136 -18.4296,30.2144 -23.764,46.8952 l 0.456,0.1456 v -0.4784 H 88.380972 v 0.4784 l 0.4584,-0.1376 -0.4584,0.1376 v 0.48 H 208.96011 l 0.108,-0.3336 c 5.3096,-16.6136 12.8184,-33.612 23.5888,-46.576 l 0.6512,-0.784 -169.187137,-8e-4 0.7376,0.8024 c 8.427199,9.164 17.512799,28.0656 23.063999,46.5504 l 0.1016,0.3416 h 0.3568 v -0.48 z"
     id="path9"
     style="fill:#c5112e" /><path
     d="m 58.492973,94.422009 c 0.0952,0.0352 -0.1296,-37.963211 -0.1296,-37.963211 8.9608,-1.9304 17.623199,-5.3472 25.768799,-10.08 V 94.422009 H 58.492973 z"
     id="path11"
     style="fill:#ffffff" /><path
     d="m 210.71931,46.152397 c 8.4992,5.246401 17.6656,9.009601 27.6576,11.286401 l -0.0344,36.983211 h -27.6232 V 46.152397 z"
     id="path13"
     style="fill:#ffffff" /><path
     d="m 90.755372,42.160397 c 10.891998,-7.564 21.761588,-17.1472 28.760788,-31.146401 h 56.95435 c 7.1904,12.109601 17.5688,23.216001 27.6232,30.652001 V 94.422009 H 90.755372 V 42.160397 z"
     id="path15"
     style="fill:#ffffff" /><path
     d="m 108.91937,199.94361 c -13.450394,-15.8 -17.786398,-40.9664 -17.786398,-40.9664 H 205.82251 c -1.3152,3.8136 -4.3768,20.952 -19.6656,40.9664 h -77.23754 z"
     id="path17"
     style="fill:#1b458f" /><path
     d="m 147.89853,235.04121 c -10.63439,-5.8128 -22.60878,-15.4128 -29.51677,-23.0832 h 57.33115 c -6.68239,6.9328 -17.58318,16.316 -27.81438,23.0832 z"
     id="path19"
     style="fill:#1b458f" /><path
     d="m 110.24496,202.21561 h 74.36075 l -6.528,7.188 h -61.49115 c -2.4264,-2.4104 -4.45039,-4.7296 -6.3416,-7.188 z"
     id="path21"
     style="fill:#05642c" /><rect
     width="2.5312002"
     height="10.808001"
     x="111.07224"
     y="176.02443"
     id="rect23"
     style="fill:#e6c777" /><rect
     width="2.5328"
     height="10.809601"
     x="188.27225"
     y="162.30443"
     id="rect25"
     style="fill:#e6c777" /><path
     d="m 182.80811,175.79561 -4.3528,10.8072 h 2.5456 l 0.904,-2.4064 h 4.3048 l 0.8704,2.4064 h 2.628 l -4.304,-10.8072 h -2.596 z m -0.2424,6.6328 1.4984,-3.968 h 0.0328 l 1.4504,3.968 h -2.9816 z"
     id="path27"
     style="fill:#e6c777;fill-rule:evenodd" /><path
     d="m 110.65136,165.91321 h 2.452 c -0.076,-0.624 -0.2576,-1.1784 -0.548,-1.664 -0.29039,-0.4856 -0.66159,-0.8872 -1.11359,-1.212 -0.44241,-0.332 -0.94641,-0.5832 -1.51681,-0.7552 -0.55759,-0.172 -1.15439,-0.2592 -1.78879,-0.2592 -0.8816,0 -1.6768,0.1472 -2.3872,0.4384 -0.6968,0.2944 -1.2888,0.696 -1.772,1.2128 -0.4832,0.5168 -0.8528,1.1224 -1.1128,1.8176 -0.2576,0.6856 -0.3872,1.4312 -0.3872,2.2392 0,0.788 0.1296,1.5232 0.3872,2.2104 0.2592,0.6744 0.6296,1.2656 1.1128,1.7696 0.4832,0.5064 1.0752,0.9056 1.772,1.1968 0.7112,0.2832 1.5064,0.4232 2.3872,0.4232 0.7096,0 1.36,-0.1008 1.95039,-0.3016 0.592,-0.2016 1.10801,-0.496 1.55041,-0.88 0.44,-0.3816 0.79279,-0.8456 1.06399,-1.3912 0.2672,-0.5456 0.4344,-1.1544 0.4976,-1.8328 h -2.4504 c -0.096,0.7288 -0.3624,1.312 -0.804,1.7584 -0.43199,0.444 -1.03359,0.6656 -1.80719,0.6656 -0.5696,0 -1.0528,-0.1032 -1.4504,-0.3048 -0.4,-0.2128 -0.72,-0.4888 -0.9672,-0.832 -0.2488,-0.3416 -0.4328,-0.7264 -0.5504,-1.1504 -0.1064,-0.4336 -0.1616,-0.8784 -0.1616,-1.332 0,-0.4744 0.0552,-0.9328 0.1616,-1.3792 0.1168,-0.4416 0.3016,-0.8384 0.5504,-1.18 0.2472,-0.3536 0.5672,-0.6312 0.9672,-0.8328 0.3968,-0.212 0.8808,-0.3168 1.4504,-0.3168 0.3128,0 0.6072,0.0504 0.8856,0.152 0.292,0.0896 0.5488,0.2184 0.776,0.3912 0.22399,0.172 0.41519,0.3736 0.56479,0.6056 0.1496,0.224 0.2464,0.4712 0.288,0.7432 z"
     id="path29"
     style="fill:#e6c777" /><path
     d="m 76.205772,69.218799 h 4.472801 c -0.14,-1.571201 -0.472001,-2.962401 -1.001601,-4.180001 -0.5312,-1.2144 -1.2072,-2.2296 -2.0296,-3.04 -0.8048,-0.8352 -1.7248,-1.4688 -2.7632,-1.9 -1.02,-0.4288 -2.108,-0.644 -3.2648,-0.644 -1.608,0 -3.059999,0.3664 -4.351999,1.1 -1.2736,0.7336 -2.3512,1.748 -3.2336,3.04 -0.8832,1.2912 -1.5592,2.8104 -2.0288,4.5608 -0.471201,1.720001 -0.708801,3.596001 -0.708801,5.622401 0,1.9752 0.2376,3.8256 0.708801,5.54641 0.4688,1.6984 1.1448,3.18 2.0288,4.4472 0.8816,1.2664 1.96,2.2664 3.2336,3.0024 1.292,0.708 2.744799,1.0616 4.351999,1.0616 1.2952,0 2.48,-0.2504 3.5568,-0.76 1.0808,-0.5072 2.02,-1.2392 2.8224,-2.2016 0.8064,-0.9632 1.452,-2.1304 1.9424,-3.4968 0.488801,-1.3688 0.793601,-2.90001 0.911201,-4.59601 h -4.468801 c -0.1776,1.8232 -0.6656,3.29201 -1.472,4.40641 -0.7848,1.1144 -1.88,1.6712 -3.292,1.6712 -1.0384,0 -1.9208,-0.252 -2.647199,-0.7592 -0.7264,-0.5304 -1.312,-1.2288 -1.7656,-2.092 -0.4504,-0.86 -0.7832,-1.82241 -0.9976,-2.88721 -0.1976,-1.0872 -0.2944,-2.2016 -0.2944,-3.3424 0,-1.1912 0.0968,-2.344 0.2944,-3.4584 0.2144,-1.1152 0.5472,-2.101601 0.9976,-2.965601 0.4536,-0.8848 1.0392,-1.5808 1.7656,-2.0872 0.726399,-0.5336 1.608799,-0.8 2.647199,-0.8 0.5688,0 1.1088,0.1272 1.6168,0.3816 0.5304,0.2296 1.0016,0.5584 1.4112,0.9872 0.4144,0.432 0.756,0.9352 1.0296,1.5184 0.276,0.56 0.452,1.1808 0.5288,1.864801 z"
     id="path31"
     style="fill:#e6c777" /><path
     d="m 76.205772,69.218799 v 0.4792 h 4.995201 l -0.0464,-0.5216 c -0.144,-1.612801 -0.4856,-3.055201 -1.040801,-4.328001 -0.5504,-1.2616 -1.2592,-2.3312 -2.1312,-3.1896 l -0.336,0.3408 0.3456,-0.332 c -0.8472,-0.88 -1.8256,-1.5544 -2.9248,-2.0104 -1.0784,-0.4536 -2.2328,-0.6808 -3.4488,-0.6808 -1.6808,0 -3.222399,0.3864 -4.588799,1.1624 -1.3408,0.772 -2.4744,1.8408 -3.3928,3.1856 -0.9176,1.3424 -1.6144,2.9128 -2.095201,4.7072 -0.4832,1.764001 -0.7248,3.682401 -0.7248,5.746401 0,2.0136 0.2424,3.9072 0.7256,5.67281 0.481601,1.7432 1.179201,3.2768 2.097601,4.5936 0.9176,1.3192 2.0512,2.3728 3.3864,3.1432 l 0.004,0.003 0.0056,0.002 c 1.3664,0.7504 2.903999,1.1216 4.582399,1.1208 1.356,8e-4 2.6168,-0.2648 3.7616,-0.8064 1.1424,-0.536 2.1424,-1.3168 2.9848,-2.328 0.848,-1.012 1.52,-2.2312 2.024801,-3.6416 0.5064,-1.4168 0.8184,-2.99201 0.9392,-4.72401 l 0.0352,-0.512 h -5.416801 l -0.0424,0.4328 c -0.1712,1.7656 -0.64,3.14801 -1.3824,4.17201 l -0.0032,0.003 v 8e-4 c -0.716,0.9968 -1.616,1.4576 -2.9016,1.468 -0.9616,-0.002 -1.736,-0.2296 -2.372799,-0.6728 l -0.2736,0.3928 0.2824,-0.3864 c -0.6632,-0.4848 -1.1992,-1.1208 -1.6232,-1.928 -0.4272,-0.81601 -0.7456,-1.73361 -0.952,-2.75921 l -0.4688,0.0944 0.4712,-0.0856 c -0.192,-1.0576 -0.2864,-2.1432 -0.2864,-3.256 0,-1.1656 0.0952,-2.2888 0.2864,-3.3752 l -0.4712,-0.0832 0.4696,0.0904 c 0.2064,-1.076 0.5264,-2.017601 0.952,-2.833601 l 0.0064,-0.0136 -0.0048,0.0104 c 0.4232,-0.828 0.9568,-1.4552 1.6128,-1.9128 l 0.0032,-0.0024 0.0056,-0.004 c 0.636799,-0.4664 1.406399,-0.7056 2.363999,-0.7072 0.4968,0 0.9592,0.1096 1.4032,0.3312 l 0.0128,0.0064 0.0112,0.0048 c 0.472,0.204 0.8872,0.4944 1.2552,0.8792 0.376,0.3928 0.688,0.8504 0.9424,1.3912 l 0.0048,0.008 c 0.2488,0.5056 0.412,1.0704 0.4824,1.704001 l 0.048,0.4264 h 0.428 v -0.4792 l 0.476,-0.0528 c -0.0824,-0.732801 -0.2736,-1.409601 -0.5752,-2.021601 l -0.4296,0.212 0.4328,-0.2032 c -0.2928,-0.6264 -0.6656,-1.1768 -1.1168,-1.6472 -0.4504,-0.4728 -0.9776,-0.8408 -1.5672,-1.0952 l -0.1888,0.4392 0.2144,-0.4288 c -0.5728,-0.2864 -1.1904,-0.4328 -1.8312,-0.432 -1.1184,-0.0016 -2.116,0.2936 -2.931199,0.8936 l 0.284,0.3856 -0.2736,-0.3928 c -0.7968,0.5552 -1.4352,1.3184 -1.9176,2.2616 l 0.0072,-0.0136 -0.0056,0.0104 c -0.4752,0.9096 -0.8224,1.9432 -1.044,3.096801 l -0.0016,0.007 v 0 c -0.2016,1.144 -0.3,2.324 -0.3,3.5416 0,1.1672 0.0984,2.3104 0.3016,3.4272 l 8e-4,0.006 8e-4,0.002 c 0.2216,1.104 0.5688,2.11121 1.0424,3.01521 0.4832,0.92 1.1176,1.68 1.9072,2.256 l 0.004,0.003 0.004,0.003 c 0.815199,0.5696 1.806399,0.8464 2.920799,0.8448 1.5376,0.0112 2.828,-0.6424 3.6832,-1.8744 l -0.3912,-0.276 0.3888,0.2808 c 0.8688,-1.2032 1.3768,-2.76001 1.5592,-4.64161 l -0.4768,-0.0456 v 0.4784 h 4.468801 v -0.4784 l -0.4776,-0.0336 c -0.115201,1.6592 -0.412801,3.14721 -0.884001,4.46721 -0.4744,1.3224 -1.0936,2.4376 -1.8584,3.3504 -0.7624,0.9144 -1.644,1.5984 -2.6584,2.076 -1.0112,0.4776 -2.12,0.7152 -3.3536,0.7152 -1.5384,0 -2.903999,-0.336 -4.122399,-1.0032 l -0.2304,0.42 0.2392,-0.4152 c -1.212,-0.7 -2.2336,-1.648 -3.0792,-2.8616 -0.8496,-1.2168 -1.5024,-2.6464 -1.96,-4.3 -0.4592,-1.67441 -0.692,-3.48161 -0.692,-5.41841 0,-1.9896 0.2328,-3.8216 0.692,-5.496001 0.4584,-1.7096 1.1136,-3.1768 1.9616,-4.4168 0.8464,-1.2392 1.8688,-2.1992 3.0776,-2.8952 1.2152,-0.688 2.578399,-1.0352 4.113599,-1.036 1.0984,0 2.1184,0.2024 3.08,0.6064 0.9784,0.4072 1.8408,1 2.6032,1.7904 l 0.0032,0.0032 0.0064,0.0064 c 0.7736,0.7616 1.4168,1.7224 1.9264,2.8904 0.5048,1.1608 0.828,2.5 0.964,4.030401 l 0.476801,-0.0424 v -0.477001 h -4.472801 v 0.479201 l 0.476,-0.0528 -0.4776,0.0528 z"
     id="path33"
     style="fill:#866b10" /><polygon
     points="621.218,289.176 621.218,283.053 609.599,283.053 609.599,274.769 623.006,274.769 623.006,268.142 603.5,268.142 603.5,303.988 609.599,303.988 609.599,289.176 "
     transform="matrix(0.80000003,0,0,0.80000003,-266.2903,-153.2868)"
     id="polygon35"
     style="fill:#e6c777" /><polygon
     points="620.619,288.577 609,288.577 609,303.39 604.098,303.39 604.098,268.142 603.5,268.142 603.5,268.74 603.5,268.142 602.901,268.142 602.901,304.587 610.197,304.587 610.197,289.774 621.816,289.774 621.816,282.455 610.197,282.455 610.197,275.367 623.604,275.367 623.604,267.542 602.901,267.542 602.901,268.142 603.5,268.142 603.5,268.74 622.408,268.74 622.408,274.17 609,274.17 609,283.652 620.619,283.652 "
     transform="matrix(0.80000003,0,0,0.80000003,-266.2903,-153.2868)"
     id="polygon37"
     style="fill:#866b10" /><path
     d="m 104.27377,91.324409 v -18.02721 h -2.2072 v -8.276001 l 7.5408,0.6432 -0.1848,-5.5184 8.92159,-7.1712 -0.2776,-2.3016 6.4384,-4.3216 1.56239,-1.012801 -5.70159,-1.5632 1.38,-0.456 -6.4384,-1.0128 1.288,-0.828 -4.0472,-0.828 2.1168,-0.8272 -4.6,-1.1944 1.19521,-1.6552 -4.2272,-0.5512 1.4688,-1.0128 -2.9416,-1.3344 c 4.74799,-1.396 9.29999,-1.3504 13.65679,0.1376 l 12.32319,7.4512 7.31039,-4.7376 -1.7944,-0.736 -1.74559,-5.932 1.4696,-10.3912 -0.0648,-1.2648 c 1.17839,-1.1632 2.59519,-2.0704 4.54719,-2.7584 1.0512,-0.3704 4.3384,-0.765601 5.0696,-0.633601 1.45359,0.260801 6.81759,2.589601 6.81759,2.589601 l 0.184,1.1472 1.6096,1.7488 3.0816,11.0816 -0.4576,2.7608 -2.8992,2.2072 5.56399,2.436 2.7136,0.4144 1.9184,0.5232 0.8864,1.6832 13.53359,8.535201 0.6736,2.8656 1.1968,0.0944 3.172,3.1728 0.1376,3.5848 0.4608,1.06 4.3232,2.8032 0.8248,0.5512 4.7832,-0.2744 v 7.907201 h -2.4832 v 19.31361 3.156 h -88.00794 l -0.0912,-3.248 z"
     id="path39"
     style="fill:#866b10" /><polygon
     points="519.359,283.405 575.168,280.815 575.401,280.815 575.401,272.771 522.693,278.347 519.129,280.815 515.393,278.689 461.422,273.92 461.422,282.137 "
     transform="matrix(0.80000003,0,0,0.80000003,-266.2903,-153.2868)"
     id="polygon41"
     style="fill:#e6c777" /><polygon
     points="572.389,281.794 572.389,309.025 464.199,309.025 464.256,282.336 464.256,283.172 519.303,284.15 "
     transform="matrix(0.80000003,0,0,0.80000003,-266.2903,-153.2868)"
     id="polygon43"
     style="fill:#e6c777" /><path
     d="m 110.80336,65.757198 18.48319,1.6088 c 0,0 -0.0464,-1.2864 1.1032,-1.9328 1.1512,-0.6432 2.5296,-1.9304 2.5296,-1.9304 l -0.1368,-3.172 -2.668,-4.876 c 0,0 3.2184,2.9456 3.4032,3.1272 0.1824,0.1848 0.3216,4.232 0.3216,4.232 0,0 2.7136,0.9648 2.8952,1.3312 0.1856,0.3696 4.04719,-0.1368 4.04719,-0.1368 l 1.8408,-0.6432 c 0,0 -2.5752,-1.5168 -4.184,-3.08 -1.60879,-1.5632 -2.11519,-3.0368 -3.08159,-4.232 -0.9664,-1.1944 -2.7144,-3.0792 -2.7144,-3.0792 l -1.0112,-2.3472 -6.5752,-2.8952 -5.59519,3.2616 0.164,2.3896 -8.8688,7.0368 0.0472,5.3376 z"
     id="path45"
     style="fill:#e6c777" /><path
     d="m 119.81456,63.642798 c 0,0 4.6904,-3.4032 5.93119,-3.3112 0.3568,0.0272 0.9512,0.0424 1.616,0.0504 l 0.672,0.6904 c -1.4576,0.3336 -2.9992,0.688 -3.52799,0.8224 -1.1048,0.276 -4.6912,1.748 -4.6912,1.748 z"
     id="path47"
     style="fill:#866b10" /><path
     d="m 126.94095,45.525997 4.508,2.802401 -0.7832,0.048 2.208,1.5632 -0.8744,-0.092 3.036,3.4488 2.94079,4.5512 2.4832,3.0824 3.2192,2.6184 2.804,4.0016 0.69039,1.0104 c 0,0 -2.48159,-4.6904 -2.94399,-5.7456 -0.4576,-1.0576 -3.5392,-6.7608 -4.5976,-8.828 -1.0584,-2.072 -4.96479,-7.3136 -4.96479,-7.3136 l -3.7256,-4.783201 -5.7944,-3.4488 -5.92959,-3.6312 c -2.8536,-1.3744 -9.37679,-1.5232 -11.53919,-0.5536 l 2.1112,1.152 -1.6536,0.7808 4.1368,0.3664 -1.46881,1.7504 5.5632,1.3312 -2.3912,0.876 4.2296,0.5504 -1.564,0.8728 6.716,0.9656 -1.3344,0.7832 5.10479,1.1496 -0.1864,0.6912 z"
     id="path49"
     style="fill:#e6c777;fill-rule:evenodd" /><path
     d="m 133.19455,67.687598 2.024,-2.8032 c 0,0 1.1488,0.1824 2.98719,0.1376 1.8408,-0.0456 3.128,-0.3216 3.128,-0.3216 l 1.3776,-0.232 3.404,3.8176 -1.564,0.3216 -1.3328,-0.3216 -7.44959,-0.3688 -2.5744,-0.2296 z"
     id="path51"
     style="fill:#e6c777" /><path
     d="m 132.72735,42.341997 8.24079,11.617601 6.80399,15.0624 0.9168,1.056801 1.9328,-1.518401 2.528,-7.6304 0.5064,-1.2864 -0.228,2.6632 3.3096,-1.7904 3.26239,-4.8256 -1.56399,4.204 3.12959,-0.3312 -7.44879,3.2512 -1.38,2.6656 c 0,0 5.1032,-2.2536 6.1624,-2.3888 0.144,-0.02 6.87039,2.4512 8.18319,3.6784 0.6904,0.6432 21.06079,-2.1168 21.06079,-2.1168 l -5.6112,-4.092 c 0,0 -1.884,-1.9776 -5.1488,-1.9776 -3.2656,0 -5.77519,2.7112 -5.684,2.7112 l -4.11119,-1.008 3.5408,-0.5088 5.33359,-2.1592 6.2792,-1.1024 -2.3888,-2.6384 -7.3384,-0.2144 -4.55199,3.9544 2.8968,-4.8272 6.43919,-2.4392 -12.27839,-7.431201 -4.3,2.1672 0.8968,-2.9424 2.8504,-0.4368 -1.176,-1.18 -2.6872,-0.5232 -2.01119,0.6056 v -1.2344 l -2.6328,-1.1624 -2.9688,-0.98 0.5784,2.2192 -1.1968,6.6232 c 0,0 -4.6872,8.783201 -4.6424,8.687201 -0.0456,0.048 0.0904,3.2664 0.1832,3.3144 0.1712,0.0832 -2.57359,-5.5208 -2.57359,-5.5208 l -6.9896,-10.346401 1.196,0.5536 0.0904,-5.4712 0.0928,-1.0592 -1.076,1.2464 -3.62479,2.8832 -2.8016,1.9784 z"
     id="path53"
     style="fill:#e6c777;fill-rule:evenodd" /><polygon
     points="506.563,240.025 504.148,245.486 507.023,253.594 504.205,250.143 503.402,246.982 501.85,245.028 500.871,244.165 504.838,241.637 "
     transform="matrix(0.80000003,0,0,0.80000003,-266.2903,-153.2868)"
     id="polygon55"
     style="fill:#866b10" /><polygon
     points="521.427,264.092 518.725,271.389 513.439,261.907 510.91,258.516 515.91,268.519 517.117,272.193 518.611,274.84 523.154,264.207 524.016,258.456 529.992,245.758 522.52,257.999 "
     transform="matrix(0.80000003,0,0,0.80000003,-266.2903,-153.2868)"
     id="polygon57"
     style="fill:#866b10" /><polygon
     points="533.611,248.572 530.395,254.323 527.232,261.159 528.785,252.995 "
     transform="matrix(0.80000003,0,0,0.80000003,-266.2903,-153.2868)"
     id="polygon59"
     style="fill:#866b10" /><path
     d="m 163.91052,52.376398 c 0.2776,-0.3688 5.2416,-3.8176 5.2416,-3.8176 l 2.1376,0.0968 1.15439,0.6912 -8.53359,3.0296 z"
     id="path61"
     style="fill:#866b10" /><path
     d="m 152.04653,68.238798 c 0,0 2.6216,-2.4816 5.3808,-3.5864 0,0 2.29999,0.5536 3.86319,1.2896 1.5632,0.7328 2.2984,1.516 2.2984,1.516 l -11.54239,0.7808 z"
     id="path63"
     style="fill:#e6c777" /><path
     d="m 120.55696,53.470798 c 1.136,0 7.63279,1.516 7.63279,1.516 0,0 -7.54079,-3.7232 -7.54079,-3.8624 0,0 -0.1864,2.3464 -0.092,2.3464 z"
     id="path65"
     style="fill:#866b10" /><polygon
     points="531.216,242.476 526.889,247.076 523.67,253.799 526.14,245.758 "
     transform="matrix(0.80000003,0,0,0.80000003,-266.2903,-153.2868)"
     id="polygon67"
     style="fill:#866b10" /><polygon
     points="477.344,236.79 494.99,245.181 500.219,251.274 506.885,261.907 510.91,268.057 499.301,251.677 494.01,247.708 495.334,247.537 494.048,246.007 488.09,244.374 491.504,244.485 489.088,243.174 483.896,242.307 486.281,241.646 480.896,238.719 476.539,238.052 478.377,237.363 "
     transform="matrix(0.80000003,0,0,0.80000003,-266.2903,-153.2868)"
     id="polygon69"
     style="fill:#866b10" /><path
     d="m 152.41533,30.556397 c -1.1952,4.668 -4.312,4.6784 -4.312,4.6784 l 2.7032,0.2192 0.3216,9.3808 -3.2176,6.576001 -7.03679,-8.874401 1.9784,-7.5888 c 0,0 -2.0704,-2.7104 -2.6208,-6.7576 -0.6328,-4.6456 1.1264,-7.1968 1.1264,-7.1968 l 5.1256,0.3912 -2.8952,0.6888 c 0,0 2.0128,0.3664 4.68799,0.3664 0.2304,0 4.048,-1.1248 4.048,-1.1248 0,0 1.24,4.7584 0.0912,9.2416 z"
     id="path71"
     style="fill:#e6c777" /><path
     d="m 137.37854,19.285997 c 0.6088,-1.3688 2.2544,-2.4304 4.9384,-3.1832 0.6528,-0.1832 3.52,-0.4848 4.86079,-0.0704 2.1448,0.5544 3.7392,1.2 4.7832,1.9352 -2.7696,0.9352 -6.25359,1.5168 -9.43119,1.592 l 2.0216,-1.1496 -5.1504,1.7952 -1.5624,2.4336 -0.46,-3.3528 z"
     id="path73"
     style="fill:#e6c777" /><polygon
     points="504.242,227.937 506.658,233.283 507.691,235.007 504.357,233.741 502.748,228.857 504.884,223.09 505.377,224.053 505.133,228.18 "
     transform="matrix(0.80000003,0,0,0.80000003,-266.2903,-153.2868)"
     id="polygon75"
     style="fill:#e6c777" /><polygon
     points="528.898,231.157 527.867,226.099 527.291,227.018 526.945,224.374 525.451,232.018 527.465,229.72 527.406,233.629 "
     transform="matrix(0.80000003,0,0,0.80000003,-266.2903,-153.2868)"
     id="polygon77"
     style="fill:#e6c777" /><path
     d="m 144.09294,31.384397 c 0,0 1.148,-0.3664 2.0696,-0.5056 0.91759,-0.1376 2.75839,0.4608 2.75839,0.4608 -0.7344,1.2416 -3.58639,1.424 -4.82799,0.0448 z"
     id="path79"
     style="fill:#866b10" /><polygon
     points="515.623,228.598 514.473,228.339 514.473,227.794 515.134,228.053 "
     transform="matrix(0.80000003,0,0,0.80000003,-266.2903,-153.2868)"
     id="polygon81"
     style="fill:#866b10" /><path
     d="m 151.94573,24.511597 -1.152,0.4344 c -0.0864,0.0152 -0.188,0.0448 -0.2944,0.0824 l 0.5344,0.0576 c -0.4144,0.3688 -1.2184,0.72 -1.9768,0.78 l -0.8904,-0.5736 0.2184,-0.092 -0.0248,-0.0224 -0.5416,-0.0456 0.3688,-0.6456 2.4784,-0.2968 1.28,0.3216 z"
     id="path83"
     style="fill:#866b10" /><path
     d="m 145.47214,25.201997 0.0448,1.24 -0.8024,-1.0152 -0.5296,0.4616 c 0,0 -1.2128,0.1472 -2.0008,-0.0232 -0.4824,-0.1016 -0.512,-0.476 -0.4976,-0.6576 l -0.5376,-0.1448 1.0968,-0.0968 c -0.3448,-0.12 -1.464,-0.3872 -1.464,-0.3872 l 1.356,-0.3216 2.9896,0.2768 0.3664,0.6664 -0.0216,0.0016 z"
     id="path85"
     style="fill:#866b10" /><polygon
     points="494.916,265.851 479.637,262.141 482.432,260.445 488.361,260.349 "
     transform="matrix(0.80000003,0,0,0.80000003,-266.2903,-153.2868)"
     id="polygon87"
     style="fill:#866b10" /><polygon
     points="515.469,280.313 462.877,276.57 462.826,275.85 514.785,279.544 "
     transform="matrix(0.80000003,0,0,0.80000003,-266.2903,-153.2868)"
     id="polygon89"
     style="fill:#866b10" /><polygon
     points="462.724,278.318 516.053,280.971 516.751,281.757 462.775,278.992 "
     transform="matrix(0.80000003,0,0,0.80000003,-266.2903,-153.2868)"
     id="polygon91"
     style="fill:#866b10" /><polygon
     points="462.724,280.276 517.17,282.227 517.883,283.025 462.928,281.205 "
     transform="matrix(0.80000003,0,0,0.80000003,-266.2903,-153.2868)"
     id="polygon93"
     style="fill:#866b10" /><polygon
     points="573.909,275.538 523.389,280.095 523.924,279.322 574.171,274.575 "
     transform="matrix(0.80000003,0,0,0.80000003,-266.2903,-153.2868)"
     id="polygon95"
     style="fill:#866b10" /><polygon
     points="574.219,277.857 522.621,281.205 523.172,280.407 574.313,277.047 "
     transform="matrix(0.80000003,0,0,0.80000003,-266.2903,-153.2868)"
     id="polygon97"
     style="fill:#866b10" /><polygon
     points="574.168,279.93 521.633,282.636 522.193,281.825 574.35,279.001 "
     transform="matrix(0.80000003,0,0,0.80000003,-266.2903,-153.2868)"
     id="polygon99"
     style="fill:#866b10" /><polygon
     points="481.71,304.586 481.71,301.688 472.699,301.688 472.699,297.84 480.798,297.84 480.798,295.16 472.699,295.16 472.699,291.797 481.523,291.797 481.523,288.895 469.023,288.895 469.023,304.586 "
     transform="matrix(0.80000003,0,0,0.80000003,-266.2903,-153.2868)"
     id="polygon101"
     style="fill:#05642c" /><polygon
     points="501.705,304.586 501.705,301.688 493.559,301.688 493.559,288.895 489.884,288.895 489.884,304.586 "
     transform="matrix(0.80000003,0,0,0.80000003,-266.2903,-153.2868)"
     id="polygon103"
     style="fill:#05642c" /><path
     d="m 150.18893,82.048409 h 2.8472 c -0.0896,-0.7248 -0.3,-1.3696 -0.6368,-1.9328 -0.3376,-0.5632 -0.7688,-1.032 -1.292,-1.40641 -0.5128,-0.3864 -1.1008,-0.6808 -1.7616,-0.88 -0.6496,-0.2 -1.3408,-0.2992 -2.0776,-0.2992 -1.02479,0 -1.95039,0.1712 -2.77279,0.5104 -0.812,0.34 -1.4992,0.808 -2.0592,1.40641 -0.5624,0.596 -0.9944,1.3 -1.292,2.1096 -0.2992,0.7976 -0.4504,1.6664 -0.4504,2.6008 0,0.9152 0.1512,1.7712 0.4504,2.5688 0.2976,0.7832 0.7296,1.4712 1.292,2.0544 0.56,0.5864 1.248,1.0504 2.0592,1.3912 0.8224,0.3264 1.748,0.4912 2.77279,0.4912 0.8232,0 1.5784,-0.1168 2.2656,-0.3512 0.6848,-0.2352 1.2856,-0.5736 1.7968,-1.02 0.512,-0.4432 0.9248,-0.9824 1.2344,-1.6176 0.3144,-0.6312 0.5064,-1.3392 0.5832,-2.1248 h -2.8472 c -0.112,0.8432 -0.4232,1.5216 -0.9376,2.0376 -0.4968,0.5168 -1.1968,0.7752 -2.0952,0.7752 -0.66319,0 -1.22319,-0.1184 -1.68559,-0.3504 -0.4608,-0.248 -0.8376,-0.5688 -1.124,-0.968 -0.2872,-0.3984 -0.4992,-0.8456 -0.6384,-1.336 -0.1208,-0.5048 -0.1856,-1.02 -0.1856,-1.5496 0,-0.5504 0.0648,-1.084 0.1856,-1.5984 0.1392,-0.516 0.3504,-0.9728 0.6384,-1.3712 0.2864,-0.412 0.6632,-0.7336 1.124,-0.9672 0.4624,-0.2456 1.0224,-0.3696 1.68559,-0.3696 0.3624,0 0.7032,0.0576 1.0312,0.1768 0.3344,0.1056 0.6344,0.2568 0.8968,0.4568 0.2624,0.1992 0.4816,0.4336 0.6544,0.7032 0.176,0.2568 0.2872,0.5464 0.3384,0.86 z"
     id="path105"
     style="fill:#05642c" /><polygon
     points="536.168,304.586 536.168,297.816 542.934,297.816 542.934,304.586 546.607,304.586 546.607,288.895 542.934,288.895 542.934,294.917 536.168,294.917 536.168,288.895 532.494,288.895 532.494,304.586 "
     transform="matrix(0.80000003,0,0,0.80000003,-266.2903,-153.2868)"
     id="polygon107"
     style="fill:#05642c" /><polygon
     points="568.218,304.586 568.218,301.688 559.205,301.688 559.205,297.84 567.303,297.84 567.303,295.16 559.205,295.16 559.205,291.797 568.027,291.797 568.027,288.895 555.529,288.895 555.529,304.586 "
     transform="matrix(0.80000003,0,0,0.80000003,-266.2903,-153.2868)"
     id="polygon109"
     style="fill:#05642c" /><path
     d="m 137.38654,110.59721 v -3.992 h 3.2088 v 1.5456 h 1.5136 v -1.5456 h 3.2344 v 1.5456 h 1.4888 v -1.5456 h 3.21199 v 1.5456 h 1.4896 v -1.5456 h 3.2104 v 1.5456 h 1.4912 v -1.5456 h 3.20959 v 3.992 h -1.98639 v 4.3392 h 3.84479 v 3.1216 h 3.0112 v -3.1216 h 6.4904 v 5.9616 h -44.58317 v -5.9616 h 6.4888 v 3.1216 h 3.0576 v -3.1216 h 4.09359 v -4.3392 h -2.4752 z m -3.58159,10.4064 29.70637,-0.0952 c 1.4312,10.3864 7.7056,16.284 18.82799,18.4488 v 9.5552 h -67.73915 v -9.2712 c 12.56719,-3.3888 18.96959,-9.6008 19.20479,-18.6376 z m 21.95198,16.9464 c 0,0 -0.424,-4.764 -6.38,-4.764 -5.95599,0 -6.53359,5.2736 -6.53359,5.2736 l -0.002,6.8952 h 12.82159 l 0.0944,-7.4048 z"
     id="path111"
     style="fill:#e6c777" /><polygon
     points="508.369,334.614 508.369,329.855 507.689,329.855 507.689,330.535 507.689,329.855 507.01,329.855 507.01,335.975 510.059,335.975 510.061,339.878 515.183,339.878 515.183,335.975 521.934,335.975 521.934,339.878 527.059,339.878 527.059,335.975 530.363,335.975 530.363,329.175 507.01,329.175 507.01,329.855 507.689,329.855 507.689,330.535 529.004,330.535 529.004,334.614 525.7,334.614 525.7,338.518 523.293,338.518 523.293,334.614 513.823,334.614 513.823,338.518 511.419,338.518 511.419,334.614 "
     transform="matrix(0.80000003,0,0,0.80000003,-266.2903,-153.2868)"
     id="polygon113"
     style="fill:#866b10" /><polygon
     points="509.83,324.197 509.83,326.129 509.274,326.129 509.274,324.865 509.274,324.197 503.928,324.197 503.928,330.523 504.596,330.523 504.596,329.855 505.264,329.855 505.264,325.533 507.938,325.533 507.938,326.797 507.938,327.466 511.166,327.466 511.166,325.534 513.873,325.534 513.873,326.797 513.873,327.466 517.07,327.466 517.07,325.534 519.749,325.534 519.749,326.797 519.749,327.466 522.947,327.466 522.947,325.533 525.625,325.533 525.625,326.797 525.625,327.466 528.824,327.466 528.824,325.533 531.498,325.533 531.498,329.187 504.596,329.187 504.596,329.855 505.264,329.855 504.596,329.855 504.596,330.523 532.836,330.523 532.836,324.197 527.488,324.197 527.488,326.129 526.961,326.129 526.961,324.865 526.961,324.197 521.611,324.197 521.611,326.129 521.085,326.129 521.085,324.865 521.085,324.197 515.734,324.197 515.734,326.129 515.209,326.129 515.209,324.865 515.209,324.197 "
     transform="matrix(0.80000003,0,0,0.80000003,-266.2903,-153.2868)"
     id="polygon115"
     style="fill:#866b10" /><path
     d="m 155.22093,145.13401 v -0.2696 h -12.01679 v -6.32 h -0.2696 l 0.268,0.0352 c 0.212,-1.608 1.0072,-2.7936 2.1024,-3.596 1.0944,-0.8008 2.49679,-1.208 3.89519,-1.208 1.3976,0 2.7864,0.4072 3.8552,1.2064 1.0696,0.8008 1.8272,1.9832 1.9928,3.5896 l 0.2688,-0.0272 -0.2696,-0.005 -0.0976,6.5904 0.2712,0.004 v -0.2696 0.2696 l 0.2696,0.004 0.0976,-6.6064 -8e-4,-0.016 c -0.1776,-1.7512 -1.0288,-3.0888 -2.2088,-3.9672 -1.1784,-0.8808 -2.6768,-1.3128 -4.1784,-1.3136 -1.5024,0 -3.01279,0.4328 -4.21519,1.3112 -1.2024,0.8776 -2.0896,2.2112 -2.3192,3.9616 l -0.002,0.0184 v 6.8768 h 12.82159 l 0.004,-0.2656 -0.2688,-0.003 z"
     id="path117"
     style="fill:#c4014b" /><polygon
     points="498.07,339.861 503.252,339.861 503.252,335.959 510.059,335.959 510.061,339.861 515.183,339.861 515.183,335.959 521.934,335.959 521.934,339.861 527.059,339.861 527.059,335.959 533.81,335.959 533.811,339.861 538.934,339.861 538.934,335.959 545.687,335.959 545.687,342.052 490.639,342.052 490.639,342.731 491.318,342.731 490.639,342.731 490.639,343.412 547.047,343.412 547.047,334.6 537.574,334.6 537.574,338.501 535.17,338.501 535.17,334.6 525.7,334.6 525.7,338.501 523.293,338.501 523.293,334.6 513.823,334.6 513.823,338.501 511.419,338.501 511.419,334.6 501.893,334.6 501.893,338.501 499.43,338.501 499.43,334.6 489.959,334.6 489.959,343.412 490.639,343.412 490.639,342.731 491.318,342.731 491.318,335.959 498.07,335.959 "
     transform="matrix(0.80000003,0,0,0.80000003,-266.2903,-153.2868)"
     id="polygon119"
     style="fill:#866b10" /><path
     d="m 164.08492,140.75801 h 12.06159 v -2.6472 l -0.7368,-0.3048 h -11.32479 v 2.952 z m 13.15119,0 h 4.5592 v -0.9928 c -1.6192,-0.3336 -3.14,-0.748 -4.5592,-1.2472 v 2.24 z m 4.5592,1.1288 h -11.53759 v 3.0568 h 11.53759 v -3.0568 z m -11.27599,-5.2096 h 2.59999 c -0.9264,-0.52 -1.79359,-1.092 -2.59999,-1.7168 v 1.7168 z m -4.9552,-4.1472 h 2.3576 c -0.8,-0.9064 -1.5088,-1.8896 -2.1264,-2.9512 h -0.2312 v 2.9512 z m -8.70479,1.1224 -0.1792,0.002 0.1792,-0.002 z m -1.2576,-1.1224 h 8.87359 v -2.9512 h -11.14079 l 2.52,1.0248 -0.9088,1.2448 0.656,0.6816 z m -4.9376,-2.9512 h -1.0256 v 0.6928 l 0.8416,0.002 0.184,-0.6952 z m -2.1152,0.6888 v -0.6888 h -1.3344 l 0.2424,0.6856 1.092,0.003 z m -3.52159,-0.6888 h -11.23199 v 2.9512 h 8.84719 l 0.4576,-0.5096 -0.908,-0.9672 2.8352,-1.4744 z m -3.4016,4.0808 h -0.5896 l -0.0256,0.664 h -1.0888 l -8e-4,-0.2128 v -0.4512 h -11.66799 c -0.9424,0.804 -1.9904,1.5552 -3.1456,2.2544 v 0.7632 h 13.87199 l 0.9416,-2.5664 8e-4,0.2128 h 1.0888 v -0.664 l 0.4704,0.1624 0.1448,-0.1624 z m -1.2736,4.1464 h -8.00159 v 2.9512 h 6.17519 v -0.8728 h 1.8504 l -0.024,-2.0784 z m -1.8264,4.0808 h -11.03919 v 3.0568 h 12.86639 l 0.004,-1.248 -1.8312,0.002 v -1.8104 z m 2.7416,3.0568 h 1.008 v -1.1832 l -1.008,0.006 v 1.1768 z m 1.92,0 h 12.02239 v -6.3096 c 0,-0.6528 -0.6744,-4.9032 -6.1104,-4.9032 -5.43599,0 -5.91279,4.9144 -5.91279,4.9144 v 6.2984 z m 12.86399,0 h 1.04 v -1.3432 h -1.04 v 1.3432 z m 1.9456,0 h 11.17199 v -3.0568 h -9.3328 v 1.616 h -1.83919 v 1.4408 z m 4.99759,-7.1376 -5.02159,-8e-4 v -0.6048 l 1.51679,-0.5064 9.9408,-0.0168 v -2.6256 l -0.4224,-0.392 -10.85199,-0.016 1.32639,3.0336 -1.50879,0.5232 v 0.6048 1.8928 h 1.86319 v 1.0592 h 3.1584 v -2.9512 z m 14.42799,8.2664 v 2.2568 h 4.3736 v -2.2568 h -4.3736 z m -1.0896,2.2576 v -2.2568 h -16.03119 v 2.2568 h 16.03119 z m -46.72316,0 h 8.63039 v 1.0512 h 4.9472 v -1.0512 h 12.02239 v -2.2568 h -12.02239 v 2.2568 1.0512 h -4.9472 v -1.0512 -2.2568 h -8.63039 v 2.2568 z m 9.57119,0 h 3.0944 v -2.0952 h -3.0888 l -0.006,2.0952 z m 16.83199,0 h 3.37519 v -2.0384 l -3.37519,-0.0208 v 2.0592 z m -40.86877,-3.3864 h 11.25279 v -3.0568 h -11.25279 v 3.0568 z m 13.37599,1.1288 h -13.37599 v 2.2568 h 13.37599 v -2.2568 z m -13.37599,-5.3144 h 0.2248 v -0.8032 l -0.2248,0.0624 v 0.7408 z m 1.3144,0 h 14.80319 v -2.9512 h -9.82399 c -1.5296,0.6744 -3.1864,1.2832 -4.98,1.8288 v 1.1224 z m 7.3088,-4.0808 h 0.2504 v -0.1352 l -0.2504,0.1352 z m 5.70319,-4.1472 h 3.236 v -2.9512 h -0.8744 c -0.6584,1.0456 -1.4464,2.0296 -2.3616,2.9512 z m 3.012,-4.08 h 8.87279 v -2.952 h -7.68719 c -0.2992,1.028 -0.6944,2.012 -1.1856,2.952 z m 9.96159,0 h 14.78319 v -2.952 h -14.78319 v 2.952 z m 15.87279,0 h 6.87199 c -0.4616,-0.9304 -0.8608,-1.9144 -1.196,-2.952 h -5.67599 v 2.952 z m -24.36478,-4.0808 h 14.47118 v -2.9552 h -14.08958 c -0.0488,1.0176 -0.1752,2.004 -0.3816,2.9552 z m 15.55998,0 h 14.14639 c -0.2544,-0.944 -0.46,-1.9288 -0.6168,-2.9552 h -13.52879 v 2.9552 z m -17.08558,-4.0432 h 31.55757 l 0.0656,0.4696 c 0.7056,5.1032 2.58,9.0408 5.6184,11.9912 1.6168,1.5688 3.57519,2.8616 5.87679,3.8904 2.0296,0.9064 4.3248,1.6064 6.8968,2.1072 l 0.4408,0.0856 v 10.548 h -68.82635 v -10.232 l 0.4016,-0.1088 c 6.2272,-1.6784 10.88399,-4.0504 13.98959,-7.0656 3.0504,-2.968 4.6384,-6.5424 4.8056,-10.8344 l -0.8264,-0.8512 z m 26.49598,22.2704 v -1.9832 h -2.8184 l -0.0376,1.9832 h 2.856 z m -1.8672,-2.8976 0.0424,-2.1168 -1.0816,0.3288 c 0,0 0.1064,0.4784 0.1024,0.6752 l -0.0152,1.1136 h 0.952 z m 0.4168,-5.336 -1.476,0.6832 -0.9632,0.5096 c 0.3128,0.4488 0.544,0.9048 0.7336,1.4112 l 2.4848,-0.8184 -0.7792,-1.7856 z m -3.0544,-1.7896 -1.0016,1.372 c 0.4264,0.2992 0.6168,0.468 0.972,0.836 l 1.4576,-0.6864 -1.428,-1.5216 z m -1.8816,0.8888 1.1048,-1.376 0.7856,-1.076 -2.8952,-1.168 -0.064,0.4368 -0.5888,2.7184 c 0.6016,0.1016 1.0736,0.2568 1.6576,0.4648 z m -2.7752,-0.6288 0.4624,-1.6496 -2.3648,-0.0128 0.5712,1.6952 c 0.5576,-0.0512 0.844,-0.0496 1.3312,-0.0328 z m -2.3,0.1904 -1.09679,-3.1056 -2.68,1.3896 2.1504,2.2912 c 0.6624,-0.3 0.808,-0.376 1.62639,-0.5752 z m -3.80399,-0.3616 -1.2528,1.4968 1.7088,0.6248 c 0.2832,-0.2776 0.5272,-0.4544 0.8584,-0.6872 l -1.3144,-1.4344 z m -2.9152,1.864 -0.6584,1.7928 2.5304,0.8352 c 0.1792,-0.544 0.3976,-1.0184 0.7816,-1.5384 l -1.7984,-0.7784 -0.8552,-0.3112 z m 1.6088,3.5592 -1.0848,-0.3376 0.0408,2.1392 h 0.9696 v -1.3256 l 0.0744,-0.476 z m -0.0768,2.7136 h -2.8312 l -0.003,1.984 h 2.8344 v -1.984 z"
     id="path121"
     style="fill:#866b10" /><path
     d="m 147.37613,161.74761 32.29998,12.3 0.5,0.7 h -7.7 v 10.3 h 3.9 v 6.6 h -4.1 l -0.1,2.7 h 4.1 v 3.1 h -57.89995 v -2.9 h 3.8 v -3 h -3.6 v -6.6 h 3.9 v -10.1 h -9.1 v -0.4 l 33.99997,-12.7 z m -13.89998,29.7 v 2.9 h 27.89997 v -2.9 h -27.89997 z"
     id="path123"
     style="fill:#e6c777;fill-rule:evenodd" /><path
     d="m 126.20815,185.38041 v 5.3816 h 2.3216 v -5.3816 h -2.3216 z m -1.084,5.3816 v -5.3816 h -2.32159 v 5.3816 h 2.32159 z m 4.4888,-5.3816 v 5.3816 h 2.3216 v -5.3816 h -2.3216 z m 3.4064,0 v 5.3816 h 2.3216 v -5.3816 h -2.3216 z m 3.4048,0 v 5.3816 h 2.32159 v -5.3816 h -2.32159 z m 3.40559,0 v 5.3816 h 2.3216 v -5.3816 h -2.3216 z m 3.4048,0 v 5.3816 h 2.3216 v -5.3816 h -2.3216 z m 3.4064,0 v 5.3816 h 2.32159 v -5.3816 h -2.32159 z m 3.40479,0 v 5.3816 h 2.3216 v -5.3816 h -2.3216 z m 3.4064,0 v 5.3816 h 2.3216 v -5.3816 h -2.3216 z m 3.4048,0 v 5.3816 h 2.3216 v -5.3816 h -2.3216 z m 3.40559,0 v 5.3816 h 2.3216 v -5.3816 h -2.3216 z m 3.4048,0 v 5.3816 h 2.3216 v -5.3816 h -2.3216 z m 3.4064,0 v 5.3816 h 2.3216 v -5.3816 h -2.3216 z m 3.4048,0 v 5.3816 h 2.32159 v -5.3816 h -2.32159 z m 3.40639,0 v 5.3816 h 1.8904 v -5.3816 h -1.8904 z m 2.6032,-12.036 v 0.5128 h 1.3168 l -1.3168,-0.5128 z m -1.0848,0.5128 v -0.9344 l -2.32,-0.9032 v 1.8376 h 2.32 z m -2.3448,-3.0152 7.8424,3.052 -0.1976,1.0512 h -7.4696 v 9.4112 h 3.564 v 7.428 h -4.0392 v 1.9392 h 4.1344 v 3.9248 h -58.89035 v -3.9248 h 3.6952 l 0.002,-1.9392 h -3.6016 v -7.428 h 3.368 v -9.4112 h -8.5976 l -0.1912,-1.0536 34.72637,-13.0352 25.65518,9.9856 z m -1.06,3.0152 v -2.2592 l -2.31999,-0.904 v 3.1624 l 2.31999,8e-4 z m -3.40479,-8e-4 v -3.5832 l -2.3208,-0.904 v 4.4872 h 2.3208 z m -3.404,0 v -4.9096 l -2.3208,-0.9032 v 5.812 l 2.3208,8e-4 z m -3.4048,-8e-4 v -6.2336 l -2.3216,-0.904 v 7.1376 h 2.3216 z m -3.40479,0 v -7.5592 l -2.3216,-0.9032 v 8.4616 l 2.3216,8e-4 z m -3.4048,-8e-4 v -8.8832 l -2.3216,-0.9032 v 9.7864 h 2.3216 z m -3.4048,0 v -10.2088 l -2.3216,-0.9032 v 11.1112 l 2.3216,8e-4 z m -3.4056,-8e-4 v -11.5328 l -0.7696,-0.3 -1.55119,0.5832 v 11.2504 h 2.32079 z m -3.40479,0 v -10.8432 l -2.3208,0.8712 v 9.9712 l 2.3208,8e-4 z m -3.404,-8e-4 v -9.5648 l -2.3208,0.872 v 8.6928 h 2.3208 z m -3.4056,0 v -8.2864 l -2.31999,0.872 v 7.4144 l 2.31999,0 z m -3.40479,-8e-4 v -7.008 l -2.3208,0.872 v 6.136 h 2.3208 z m -3.4048,0 v -5.7296 l -2.3208,0.872 v 4.8568 l 2.3208,8e-4 z m -3.4048,-8e-4 v -4.4504 l -2.3208,0.872 v 3.5792 h 2.3208 z m -3.40479,-8e-4 v -3.172 l -2.3216,0.872 v 2.3 h 2.3216 z m -3.4048,0 v -1.8936 l -2.3216,0.872 v 1.0216 h 2.3216 z m -3.404,-8e-4 v -0.6152 l -1.6384,0.6152 h 1.6384 z m 1.5672,20.9536 v 1.7576 h 56.71435 v -1.7504 l -56.71435,-0.007 z m 41.75596,-3.0184 h -26.76317 v 1.9408 h 26.76317 v -1.9408 z m 1.0672,0.0296 v 1.9048 h 9.79039 v -1.9048 h -9.79039 z m -39.11596,0 v 1.9048 h 10.19839 v -1.9048 h -10.19839 z m -3.3928,-6.4344 -0.009,5.3816 h 2.3232 v -5.3816 h -2.3144 z m 3.976,-10.0112 v 8.5752 h 47.94396 v -8.5856 l -47.94396,0.0104 z"
     id="path125"
     style="fill:#866b10" /></svg>