<?xml version="1.0" encoding="UTF-8" standalone="no"?>
<!-- Created with Inkscape (http://www.inkscape.org/) -->

<svg
   xmlns:dc="http://purl.org/dc/elements/1.1/"
   xmlns:cc="http://creativecommons.org/ns#"
   xmlns:rdf="http://www.w3.org/1999/02/22-rdf-syntax-ns#"
   xmlns:svg="http://www.w3.org/2000/svg"
   xmlns="http://www.w3.org/2000/svg"
   version="1.1"
   width="280"
   height="200"
   viewBox="0 0 634.95935 453.54237"
   id="Capa_1"
   xml:space="preserve"><metadata
     id="metadata517"><rdf:RDF><cc:Work
         rdf:about=""><dc:format>image/svg+xml</dc:format><dc:type
           rdf:resource="http://purl.org/dc/dcmitype/StillImage" /><dc:title></dc:title></cc:Work></rdf:RDF></metadata><defs
     id="defs515" /><path
     d="m 378.87432,122.28478 c 51.6672,23.5008 89.1072,73.152 95.1552,131.8464 l 43.4304,17.6256 -43.4304,16.2432 c -8.5824,81.9648 -78.2208,146.1888 -162.3168,146.1888 -42.7968,0 -81.84959,-16.6464 -111.05275,-43.776 l -38.76479,14.5152 v 41.184 l -15.3216,7.4304 v -318.4128 c -0.864,-0.5184 -1.44,-1.4976 -1.44,-2.6496 v -3.8016 c 0,-1.728 1.3824,-3.168 3.1104,-3.168 h 15.2064 c 1.728,0 3.168,1.44 3.168,3.168 v 0.7488 l 40.49278,16.416 c 11.28958,-9.4464 23.90397,-17.3952 37.43997,-23.5584 -0.1152,-0.288 -0.2304,-0.576 -0.4032,-0.864 l -11.0592,-0.1728 7.2,-8.1792 c -0.2304,-0.3456 -0.4032,-0.6912 -0.576,-0.9792 -1.7856,0.4032 -3.3984,-0.7488 -4.1472,-2.4192 -0.4608,-1.152 -0.4032,-2.3616 0.1728,-3.3408 0.0576,-1.6128 -0.0576,-2.0736 -1.6704,-2.7648 -0.864,-0.3456 -1.9584,-0.8064 -3.168,-2.2464 -0.9792,-1.2096 -1.6704,-2.592001 -2.2464,-3.744001 -1.26719,-2.7072 -1.38239,-3.1104 -4.37759,-3.0528 -2.7648,0.1152 -6.3936,0.2304 -7.0848,-3.3984 -0.5184,-2.6496 1.0944,-4.6656 2.88,-6.048 -0.5184,-1.3824 -0.4032,-2.9376 0.3456,-4.2624 -2.7648,-1.152 -3.8592,-4.4352 -2.4768,-7.0272 -2.4192,-1.728 -2.9376,-5.0688 -1.0944,-7.3728 -2.82239,-2.2464 -2.4192,-6.6816 0.7488,-8.4096 -1.9584,-2.9376 -0.4608,-7.0272 3.1104,-7.8336 -1.0944,-3.744 2.304,-7.142401 5.9328,-6.3936 0,-3.801601 4.08959,-6.105601 7.37279,-4.492801 0,-4.32 4.896,-6.5664 8.1216,-4.0896 1.728,-3.8016 7.02719,-4.032 9.10079,-0.4608 0.3456,-4.4928 6.5664,-5.2416 8.1216,-1.0944 0.864,-3.6288 5.5872,-4.3776 7.6032,-1.3824 0.864,-1.2096 2.304,-1.9008 3.8016,-1.8432 0.288,-2.9376 3.2832,-4.7232 5.9328,-3.6864 0.9216,-2.5344 4.1472,-3.2832 6.048,-1.44 0.8064,-2.6496 4.1472,-3.456 6.1056,-1.6128 0.8064,-2.6496 4.1472,-3.456 6.1056,-1.5552 0.864,-2.88 4.5504,-3.5136 6.3936,-1.2672 h 2.5344 c 0.1728,-2.88 1.8432,-5.2992 4.2624,-6.5664 v -2.592 h -4.2048 V 5.3567781 h 4.2048 V -1.593758e-5 h 7.1424 V 5.3567781 h 4.2624 v 6.3359999 h -4.2624 v 2.592 c 0.7488,0.4032 1.44,0.864 2.016,1.44 1.3248,1.3248 2.1312,3.168 2.2464,5.1264 h 2.5344 c 1.8432,-2.2464 5.5872,-1.6128 6.4512,1.2672 1.9584,-1.9008 5.184,-1.0944 6.048,1.5552 1.9008,-1.8432 5.2416,-1.0368 6.048,1.6128 1.9008,-1.8432 5.184,-1.0944 6.048,1.44 2.6496,-1.0368 5.7024,0.7488 5.9328,3.6864 1.4976,-0.0576 2.9376,0.6336 3.8016,1.8432 2.016,-2.9952 6.7392,-2.2464 7.6032,1.3824 1.5552,-4.1472 7.776,-3.3984 8.1792,1.0944 2.0736,-3.5712 7.3728,-3.3408 9.0432,0.4608 3.2256,-2.4768 8.1792,-0.2304 8.1792,4.0896 3.2256,-1.6128 7.3152,0.6912 7.3152,4.492801 3.6864,-0.748801 7.0272,2.6496 5.9904,6.3936 3.5136,0.8064 5.0112,4.896 3.0528,7.8336 3.2256,1.728 3.5712,6.1632 0.7488,8.4096 1.8432,2.304 1.3824,5.6448 -1.0368,7.3728 1.3824,2.592 0.2304,5.8752 -2.5344,7.0272 0.7488,1.3248 0.864,2.88 0.3456,4.2624 1.7856,1.3832 3.3984,3.3984 2.88,6.048 -0.6912,3.6288 -4.32,3.5136 -7.0272,3.3984 -2.9952,-0.0576 -3.1104,0.3456 -4.4352,3.0528 -0.576,1.152 -1.2096,2.534401 -2.2464,3.744001 -1.152,1.44 -2.2464,1.9008 -3.1104,2.2464 -1.6704,0.6912 -1.7856,1.152 -1.6704,2.7648 0.576,0.9792 0.6336,2.1888 0.1152,3.3408 -0.6912,1.6704 -2.3616,2.8224 -4.1472,2.4192 -0.1728,0.288 -0.3456,0.6336 -0.5184,0.9792 l 7.1424,8.1792 -11.0592,0.1728 c -0.1152,0.288 -0.2304,0.576 -0.3456,0.864 l 0,0 z m -83.9232,59.2128 91.0656,36.9792 c -16.5312,-23.328 -43.7184,-38.5344 -74.304,-38.5344 -5.7024,0 -11.3472,0.5184 -16.7616,1.5552 l 0,0 z m 93.312,138.6432 -102.1248,38.2464 c 8.1216,2.3616 16.704,3.6288 25.5744,3.6288 32.0256,0 60.3648,-16.704 76.5504,-41.8752 z"
     id="path3"
     style="fill:#a38d44" /><path
     d="m 311.71272,110.13118 c -86.39998,0 -157.24794,68.7744 -160.70394,154.2528 0.0576,0 0.1152,0 0.1728,0 h 8.8128 c 3.456,-80.5824 70.27195,-145.2672 151.71834,-145.2672 76.2048,0 139.68,56.736 150.2784,130.1184 l 9.5616,3.8592 c -8.928,-80.1792 -77.2992,-142.9632 -159.84,-142.9632 l 0,0 z m -156.26874,199.008 c 6.4512,26.208 19.29599,49.9392 36.86399,69.408 7.8336,8.6976 21.71518,11.9232 32.83197,8.9856 15.43679,-4.0896 25.05598,-17.6832 25.11358,-33.408 0,-6.5088 -3.0528,-15.3792 -7.48799,-20.2176 -11.2896,-12.3264 -19.29599,-27.648 -22.69439,-44.64 v 15.7248 c 0,1.152 -0.4608,2.1888 -1.2096,2.9376 -0.576,0.576 -1.3824,0.9792 -2.1888,1.152 4.4352,11.0592 10.7712,21.1392 18.60479,29.952 3.3408,3.744 5.472,8.352 6.2784,13.3632 1.3824,8.7552 -1.9584,17.3376 -8.9856,22.752 -7.19999,5.5296 -16.76159,6.624 -25.11357,3.0528 -4.26239,-1.7856 -8.00639,-5.0112 -11.0016,-8.5248 -11.63519,-13.536 -20.90879,-29.1456 -27.18718,-46.1952 -1.728,-4.6656 -3.2832,-9.4464 -4.5504,-14.3424 h -9.2736 l 0,0 z m 63.01436,-43.8912 c -0.6912,-0.5184 -1.5552,-0.864 -2.5344,-0.864 h -6.45119 c 3.3984,-53.3376 48.03837,-95.8464 102.23997,-95.8464 40.032,0 74.88,23.2704 91.6992,56.9664 l -13.4784,-5.472 c -16.704,-25.5168 -45.5616,-42.4512 -78.2208,-42.4512 -49.536,0 -90.31678,38.88 -93.25438,87.6672 l 0,0 z m 173.43358,53.5104 12.672,-4.7232 c -16.3008,34.9632 -51.84,59.3856 -92.8512,59.3856 -11.7504,0 -23.0976,-2.016 -33.5808,-5.7024 -9.1584,-3.168 -17.7408,-7.6608 -25.5168,-13.1904 0,-0.1152 0,-0.288 0,-0.4032 0,-4.7808 -1.2096,-9.3312 -3.2256,-13.6512 16.5888,14.8608 38.4192,23.9616 62.3232,23.9616 33.984,0 63.8784,-18.3744 80.1792,-45.6768 l 0,0 z m 70.0992,-26.2656 9.504,-3.5712 c -8.9856,80.2368 -77.2992,142.9056 -159.7824,142.9056 -42.8544,0 -81.84959,-16.9344 -110.76475,-44.4096 5.58719,2.6496 11.75038,3.8592 17.85597,3.5136 12.03839,9.3312 25.51679,16.9344 40.03198,22.3488 16.4736,6.1632 34.3296,9.5616 52.8768,9.5616 76.2624,0 139.7952,-56.8512 150.2784,-130.3488 l 0,0 z m -209.5488,64.8 c 7.6608,5.2992 16.0128,9.5616 24.8832,12.672 10.7712,3.744 22.3488,5.8176 34.3872,5.8176 42.7968,0 79.776,-25.9776 96.0192,-62.9568 l 51.7248,-19.3536 c -10.8864,71.712 -73.0944,127.008 -147.744,127.008 -18.3168,0 -35.8272,-3.3408 -52.0704,-9.3888 -13.536,-5.0688 -26.09279,-11.9808 -37.43998,-20.5056 1.152,-0.2304 2.3616,-0.4608 3.5136,-0.7488 15.43679,-4.0896 25.51678,-17.1072 26.72638,-32.544 l 0,0 z m 207.0144,-109.0944 -52.7616,-21.4272 c -16.704,-35.712 -53.0496,-60.5952 -94.9824,-60.5952 -55.5264,0 -101.20317,43.6032 -104.60156,98.208 h -44.75518 c 3.456,-79.2576 69.23515,-142.9056 149.35674,-142.9056 74.592,0 136.7424,55.1808 147.744,126.72 l 0,0 z m -292.26234,60.9408 h 46.94397 c 4.55039,11.6352 11.17439,22.2336 19.35358,31.4496 3.0528,3.3984 5.0112,7.6032 5.7024,12.1536 1.2672,7.9488 -1.6704,15.6672 -8.064,20.5056 -6.50879,5.0112 -15.20639,5.9904 -22.75197,2.8224 -3.9168,-1.6704 -7.37279,-4.7232 -10.1376,-7.9488 -11.40479,-13.3056 -20.56319,-28.6848 -26.78398,-45.4464 -1.6128,-4.4352 -3.0528,-8.928 -4.2624,-13.536 z"
     id="path5"
     style="fill:#ffffff" /><polygon
     points="219.888,609.784 227.52,612.808 225,619.072 210.816,613.312 224.208,580.192 230.832,582.856 "
     transform="matrix(0.79999999,0,0,0.79999999,86.035967,-90.099218)"
     id="polygon7"
     style="fill:#a38d44" /><path
     d="m 288.21192,381.13918 -0.2304,29.376 -5.8176,-1.44 0.288,-4.8384 -5.472,-1.3824 -2.304,4.3776 -5.5296,-1.3824 13.3056,-26.1504 5.76,1.44 0,0 z m -5.5872,18.8352 0.6912,-12.7296 -4.7808,11.7504 4.0896,0.9792 z"
     id="path9"
     style="fill:#a38d44" /><path
     d="m 316.72392,388.97278 c -2.304,-0.6912 -4.896,-0.288 -6.7968,1.2096 -3.744,3.0528 -2.9376,10.7136 -0.7488,14.2848 1.5552,2.5344 4.608,3.0528 7.2576,2.4192 l -0.1152,5.0688 c -4.3776,1.8432 -8.8128,-0.6336 -11.4624,-3.744 -5.4144,-6.1056 -4.32,-18.8928 2.9952,-23.2128 2.6496,-1.5552 6.1056,-2.016 8.9856,-0.7488 l -0.1152,4.7232 z"
     id="path11"
     style="fill:#a38d44" /><path
     d="m 345.52392,378.71998 c 4.7808,-1.3248 9.4464,0.6336 10.944,5.5872 0.864,3.1104 0.1152,5.5872 -2.016,8.064 l 8.5248,11.1168 -5.7024,1.6704 -8.64,-11.4624 3.744,12.8448 -5.76,1.6704 -7.9488,-27.4752 6.8544,-2.016 0,0 z m -0.1152,5.0112 2.016,7.1424 c 3.456,-0.2304 5.2416,-4.2624 2.6496,-6.7392 -1.152,-1.0944 -3.0528,-1.2672 -4.6656,-0.4032 z"
     id="path13"
     style="fill:#a38d44" /><path
     d="m 359.98152,373.13278 9.3888,17.9712 c 0.9792,1.8432 2.1312,2.9952 3.9168,2.3616 2.4768,-0.9216 2.592,-2.1312 1.3824,-4.4352 l -9.6768,-18.5472 4.7808,-2.4768 9.9072,19.0656 c 1.9584,3.744 2.1312,7.2576 -1.7856,9.5616 -1.0368,0.6336 -2.0736,1.2096 -3.168,1.728 -4.32,1.9008 -7.7184,-0.5184 -9.8496,-4.2048 l -9.6768,-18.5472 4.7808,-2.4768 z"
     id="path15"
     style="fill:#a38d44" /><path
     d="m 373.45992,363.62878 c 0,0 -2.0736,-2.9952 -0.5184,-5.472 1.152,-1.7856 4.7808,-2.2464 5.1264,-3.2256 0.1728,-0.3456 0,-0.8064 -0.5184,-1.4976 l 2.5344,-2.0736 c 1.9584,2.9952 2.1888,4.8384 0.5184,6.336 -1.3824,1.2672 -3.0528,1.2096 -4.4352,2.1888 -0.4608,0.3456 -0.6912,0.8064 -0.1152,1.6704 l -2.592,2.0736 z"
     id="path17"
     style="fill:#a38d44" /><polygon
     points="383.688,578.968 370.872,561.112 376.272,557.224 397.152,586.24 391.968,589.984 372.672,577.672 385.056,594.952 379.224,599.056 358.416,570.04 364.176,565.864 "
     transform="matrix(0.79999999,0,0,0.79999999,86.035967,-90.099218)"
     id="polygon19"
     style="fill:#a38d44" /><path
     d="m 395.63592,346.17598 25.7472,14.112 -3.9744,4.4352 -4.1472,-2.5344 -3.8016,4.2048 2.7648,4.0896 -3.8592,4.2048 -16.7616,-24.0768 4.032,-4.4352 0,0 z m 13.9392,13.8816 -10.8864,-6.6816 8.064,9.7344 2.8224,-3.0528 z"
     id="path21"
     style="fill:#a38d44" /><path
     d="m 319.48872,390.81598 c -0.4608,2.304 -0.5184,5.0688 -0.2304,7.7184 0.5184,4.6656 2.6496,10.944 7.6032,12.6144 2.1312,0.6912 5.0688,0.4032 7.0272,-0.6912 4.5504,-2.5344 5.4144,-9.1584 5.0688,-13.824 -0.2304,-2.6496 -0.8064,-5.3568 -1.728,-7.5456 -4.0896,-9.9648 -15.552,-8.8704 -17.7408,1.728 l 0,0 z m 9.3888,15.6672 c -2.8224,-0.9216 -3.8592,-6.2784 -4.0896,-8.6976 -0.1728,-1.7856 -0.1728,-3.5712 0,-5.0688 0.6912,-6.7968 5.76,-7.2576 7.6608,-0.7488 0.4608,1.44 0.8064,3.168 0.9216,5.0112 0.2304,2.4192 0.2304,7.8912 -2.304,9.3312 -0.5184,0.288 -1.6128,0.4032 -2.1888,0.1728 z"
     id="path23"
     style="fill:#a38d44" /><polygon
     points="118.728,384.496 124.92,386.944 122.472,393.496 129.312,396.088 131.4,390.616 137.952,393.136 135.864,398.68 143.064,401.416 145.584,394.936 151.776,397.24 146.592,410.848 113.616,398.032 "
     transform="matrix(0.79999999,0,0,0.79999999,86.035967,-90.099218)"
     id="polygon25"
     style="fill:#a38d44" /><path
     d="m 189.25517,200.62078 28.33917,7.8912 -2.9376,5.2416 -4.55039,-1.5552 -2.76479,4.9536 3.57119,3.3408 -2.70719,4.9536 -21.88799,-19.584 2.9376,-5.2416 0,0 z m 16.76159,10.368 -12.09599,-4.032 10.07999,7.6608 2.016,-3.6288 z"
     id="path27"
     style="fill:#a38d44" /><polygon
     points="164.088,362.248 168.984,355.696 174.384,359.8 165.168,371.968 136.584,350.44 140.904,344.752 "
     transform="matrix(0.79999999,0,0,0.79999999,86.035967,-90.099218)"
     id="polygon29"
     style="fill:#a38d44" /><polygon
     points="200.664,328.192 207.576,323.8 211.176,329.416 198.36,337.696 178.92,307.744 184.824,303.856 "
     transform="matrix(0.79999999,0,0,0.79999999,86.035967,-90.099218)"
     id="polygon31"
     style="fill:#a38d44" /><path
     d="m 274.73352,134.55358 c 1.728,-0.3456 3.5712,0.1728 5.0112,1.0368 2.0736,1.2096 3.456,3.1104 4.0896,5.4144 0.6336,2.3616 0.1728,4.6656 -1.6704,6.3936 2.8224,0.4608 4.7232,2.4768 5.4144,5.1264 1.2096,4.32 -1.0944,8.5248 -5.4144,9.6768 l -7.2,1.9008 -7.4304,-27.5904 7.2,-1.9584 0,0 z m 4.5504,23.7888 c 1.9584,-0.1152 3.1104,-1.6128 2.9952,-3.5712 -0.1152,-1.5552 -1.0944,-3.1104 -2.4192,-3.8016 -0.8064,-0.3456 -1.6704,-0.5184 -2.592,-0.0576 l 2.016,7.4304 0,0 z m -3.1104,-11.52 c 0.7488,0.0576 1.3824,-0.2304 1.8432,-0.6912 1.4976,-1.3824 0.8064,-5.184 -0.7488,-6.1632 -0.6912,-0.4032 -1.6128,-0.3456 -2.9376,0 l 1.8432,6.8544 z"
     id="path33"
     style="fill:#a38d44" /><path
     d="m 299.44392,129.77278 c 0.3456,0 0.7488,0 1.152,0 3.5712,-0.1152 8.0064,-0.7488 10.944,1.3824 2.7072,1.9008 4.0896,4.4928 4.9536,7.6032 1.3824,5.1264 0.864,13.0752 -3.2256,16.9344 -1.6128,1.5552 -3.9168,2.3616 -6.8544,2.4768 l -5.9904,0.1728 -0.9792,-28.5696 0,0 z m 6.5088,23.616 c 5.5296,-0.4608 5.3568,-6.624 5.2416,-10.8288 -0.3456,-3.6864 -1.5552,-7.7184 -5.9328,-7.8912 l 0.6912,18.72 z"
     id="path35"
     style="fill:#a38d44" /><polygon
     points="311.04,276.712 310.176,283.408 303.264,282.544 302.4,289.888 308.232,290.608 307.368,297.664 301.536,296.944 300.528,304.648 307.512,305.512 306.648,312.208 292.32,310.408 296.64,274.912 "
     transform="matrix(0.79999999,0,0,0.79999999,86.035967,-90.099218)"
     id="polygon37"
     style="fill:#a38d44" /><polygon
     points="406.512,334.96 402.408,331.144 382.824,352.096 377.424,346.984 396.936,326.032 392.832,322.216 397.728,317.032 411.336,329.776 "
     transform="matrix(0.79999999,0,0,0.79999999,86.035967,-90.099218)"
     id="polygon39"
     style="fill:#a38d44" /><polygon
     points="392.976,363.544 388.44,358.576 415.008,334.6 419.544,339.64 "
     transform="matrix(0.79999999,0,0,0.79999999,86.035967,-90.099218)"
     id="polygon41"
     style="fill:#a38d44" /><polygon
     points="433.944,360.52 437.976,366.712 402.696,378.016 399.456,373.048 423.864,344.896 428.04,351.448 411.408,368.872 "
     transform="matrix(0.79999999,0,0,0.79999999,86.035967,-90.099218)"
     id="polygon43"
     style="fill:#a38d44" /><path
     d="m 431.98152,209.14558 c -2.304,0.1728 -4.9536,0.864 -7.488,1.8432 -4.32,1.7856 -9.792,5.5296 -10.08,10.7712 -0.0576,2.1888 1.0368,5.0112 2.592,6.5664 3.6864,3.6864 10.2528,2.7648 14.688,1.152 2.5344,-0.9216 4.896,-2.1888 6.7968,-3.6288 8.4672,-6.6816 4.32,-17.4528 -6.5088,-16.704 l 0,0 z m -12.5568,13.3056 c 0.1728,-2.9376 5.0688,-5.4144 7.3152,-6.336 1.6704,-0.6336 3.3984,-1.0944 4.896,-1.3824 6.6816,-1.152 8.5248,3.6288 2.8224,7.2576 -1.3248,0.8064 -2.88,1.6128 -4.608,2.2464 -2.2464,0.864 -7.5456,2.3616 -9.6192,0.288 -0.4032,-0.4608 -0.8064,-1.4976 -0.8064,-2.0736 z"
     id="path45"
     style="fill:#a38d44" /><path
     d="m 228.82633,163.06558 c -2.30399,0.864 -4.03199,2.88 -4.55039,5.2416 -1.0368,4.7232 4.49279,10.1376 8.46719,11.52 2.7648,0.9792 5.472,-0.5184 7.1424,-2.7072 l 3.1104,3.9744 c -2.2464,4.2624 -7.2576,5.1264 -11.232,4.3776 -8.06399,-1.3248 -15.32159,-11.9232 -12.38399,-19.872 1.0944,-2.88 3.456,-5.4144 6.5088,-6.2208 l 2.93759,3.6864 z"
     id="path47"
     style="fill:#a38d44" /><path
     d="m 172.66637,244.33918 c 1.0944,-4.896 5.0688,-8.064 10.1376,-6.912 3.168,0.6912 4.9536,2.5344 6.1056,5.5872 l 13.824,-2.1312 -1.2672,5.8176 -14.1696,2.016 13.0752,2.9376 -1.3248,5.8176 -27.93599,-6.1632 1.55519,-6.9696 0,0 z m 4.32,2.4768 7.2,1.6704 c 1.44,-3.168 -1.2096,-6.6816 -4.608,-5.5296 -1.4976,0.4608 -2.5344,2.016 -2.592,3.8592 z"
     id="path49"
     style="fill:#a38d44" /><path
     d="m 248.87112,144.28798 8.928,18.2016 c 0.9216,1.9008 2.016,3.0528 3.8592,2.4192 2.4768,-0.8064 2.6496,-2.016 1.4976,-4.3776 l -9.1584,-18.72 4.7808,-2.3616 9.4464,19.296 c 1.8432,3.8016 1.9008,7.3152 -2.016,9.504 -1.0944,0.6336 -2.1312,1.152 -3.2832,1.6128 -4.32,1.8432 -7.6608,-0.6912 -9.6768,-4.4352 l -9.21599,-18.7776 4.83839,-2.3616 z"
     id="path51"
     style="fill:#a38d44" /><path
     d="m 349.32552,134.15038 c 4.8384,1.2672 7.8912,5.2992 6.624,10.3104 -0.9792,4.9536 -6.624,7.5456 -11.808,5.5296 l -2.9952,11.5776 -5.8176,-1.4976 7.0848,-27.7056 6.912,1.7856 0,0 z m -2.592,4.2624 -1.9008,7.1424 c 3.0528,1.4976 6.6816,-1.0368 5.7024,-4.4928 -0.4608,-1.4976 -1.9584,-2.592 -3.8016,-2.6496 z"
     id="path53"
     style="fill:#a38d44" /><path
     d="m 360.15432,145.49758 c -1.5552,1.7856 -2.9952,4.1472 -4.032,6.624 -1.7856,4.32 -3.0528,10.8288 0.4608,14.688 1.5552,1.6704 4.32,2.88 6.5664,2.88 5.184,0 9.1584,-5.2992 11.1744,-9.5616 1.0944,-2.4192 1.9008,-5.0688 2.1888,-7.3728 1.2672,-10.7712 -9.3312,-15.4368 -16.3584,-7.2576 l 0,0 z m 0.5184,18.3168 c -2.016,-2.1888 -0.288,-7.4304 0.6336,-9.6192 0.7488,-1.6704 1.6128,-3.2256 2.4768,-4.4928 3.9168,-5.5296 8.5824,-3.456 7.1424,3.168 -0.3456,1.44 -0.864,3.168 -1.6128,4.8384 -0.9792,2.1888 -3.6864,6.9696 -6.624,6.9696 -0.6336,0 -1.6704,-0.4608 -2.016,-0.864 z"
     id="path55"
     style="fill:#a38d44" /><path
     d="m 392.87112,154.94398 c 4.032,2.9376 5.4144,7.776 2.4192,12.0384 -1.9008,2.6496 -4.2624,3.5712 -7.5456,3.3984 l -3.3984,13.5936 -4.896,-3.456 3.6864,-13.8816 -7.776,10.944 -4.896,-3.456 16.5888,-23.328 5.8176,4.1472 0,0 z m -3.9744,3.0528 -4.3776,5.9328 c 2.3616,2.5344 6.6816,1.4976 6.9696,-2.0736 0.1152,-1.5552 -0.9216,-3.168 -2.592,-3.8592 z"
     id="path57"
     style="fill:#a38d44" /><path
     d="m 181.65197,303.89758 c 1.2096,2.6496 2.6496,2.6496 3.8592,0 1.5552,-3.456 1.5552,-8.8704 0,-12.2688 -1.2096,-2.6496 -2.6496,-2.6496 -3.8592,0 -1.5552,3.456 -1.5552,8.8128 0,12.2688 z"
     id="path59"
     style="fill:#ffffff" /><path
     d="m 176.17997,293.75998 c 0.6336,0.3456 1.3824,0.6336 2.1888,0.864 0.2304,-1.44 0.576,-2.7648 1.152,-3.9744 2.016,-4.5504 6.048,-4.5504 8.1216,0 0.5184,1.2096 0.9216,2.5344 1.152,3.9744 0.7488,-0.2304 1.4976,-0.5184 2.1888,-0.864 3.3984,-1.6704 3.3984,-4.032 0,-5.7024 -4.1472,-2.0736 -10.7136,-2.0736 -14.8032,0 -3.456,1.6704 -3.456,4.032 0,5.7024 z"
     id="path61"
     style="fill:#ffffff" /><path
     d="m 188.50637,302.34238 c -0.2304,0.864 -0.5184,1.728 -0.864,2.4768 -0.3456,0.8064 -0.7488,1.44 -1.2096,1.9584 h 29.49117 c 0.5184,0 0.9216,-0.2304 1.2672,-0.5184 0.3456,-0.3456 0.5184,-0.7488 0.5184,-1.2672 v -36.4608 c 0,-0.4608 -0.1728,-0.9216 -0.5184,-1.2672 -0.3456,-0.288 -0.7488,-0.5184 -1.2672,-0.5184 h -64.74236 c -0.4608,0 -0.9216,0.2304 -1.2096,0.5184 -0.3456,0.3456 -0.576,0.8064 -0.576,1.2672 v 36.4608 c 0,0.5184 0.2304,0.9216 0.576,1.2672 0.288,0.288 0.7488,0.5184 1.2096,0.5184 h 29.54879 c -0.4608,-0.5184 -0.864,-1.152 -1.2096,-1.9584 -0.3456,-0.7488 -0.6336,-1.6128 -0.864,-2.4768 h -23.21279 c -0.5184,0 -1.0368,-0.2304 -1.3824,-0.5184 l 0,0 c -0.4032,-0.4032 -0.6912,-0.864 -0.6912,-1.44 v -28.9152 c 0,-0.576 0.288,-1.0944 0.6912,-1.4976 0.3456,-0.288 0.864,-0.5184 1.3824,-0.5184 h 56.21757 c 0.576,0 1.0368,0.2304 1.44,0.5184 l 0,0 c 0.4032,0.4032 0.6912,0.9216 0.6912,1.4976 v 28.9152 c 0,0.576 -0.288,1.0368 -0.6912,1.44 l 0,0 c -0.4032,0.288 -0.864,0.5184 -1.44,0.5184 h -23.15518 z"
     id="path63"
     style="fill:#ffffff" /><path
     d="m 223.41194,248.65918 h 66.12478 v -64.2816 l 46.3104,18.7776 v 45.504 h 112.4352 l 56.3904,22.8672 -63.3024,23.7312 h -105.5232 v 39.456 l -46.3104,17.3952 v -56.8512 h -65.60638 c -2.1312,-7.776 -3.2832,-15.8976 -3.2832,-24.3072 0,-7.6608 0.9216,-15.1488 2.7648,-22.2912 z"
     id="path65"
     style="fill:#57175e" /><path
     d="m 175.14317,285.92638 c 4.7808,-2.3616 12.096,-2.3616 16.8768,0 5.18399,2.592 5.18399,7.3728 0,9.9648 -0.9216,0.4608 -1.9584,0.8064 -2.9952,1.0944 0,0.9792 0,2.016 -0.1152,2.9952 h 22.46398 v -28.1664 h -55.64157 v 28.1664 h 22.52159 c -0.1152,-0.9792 -0.1728,-2.016 -0.1152,-2.9952 -1.0944,-0.288 -2.0736,-0.6336 -2.9952,-1.0944 -5.24159,-2.592 -5.24159,-7.3728 0,-9.9648 z"
     id="path67"
     style="fill:#ffffff" /><path
     d="m 161.89518,144.28798 23.55839,23.5008 c 1.152,-1.44 2.3616,-2.8224 3.5712,-4.2624 l -27.12959,-27.1296 v 7.8912 l 0,0 z m 74.99515,74.9376 24.82559,24.7104 h 7.7184 l -29.26079,-29.2032 c -1.152,1.44 -2.2464,2.9376 -3.2832,4.4928 z"
     id="path69"
     style="fill:#afdcfd" /><path
     d="m 149.97198,136.22398 h 4.5504 v 90.8352 c -2.016,7.1424 -3.5712,14.5728 -4.5504,22.1184 v -112.9536 l 0,0 z m 4.5504,178.6752 v 129.9456 l -4.5504,2.3616 v -138.24 c 0.4032,0.1152 0.8064,0.1728 1.2096,0.1728 h 1.8432 c 0.4608,1.9008 0.9792,3.8592 1.4976,5.76 z"
     id="path71"
     style="fill:#ffffff" /><path
     d="m 348.00072,100.33918 c 11.6352,2.4768 22.8096,6.1056 33.4656,10.8288 -0.1728,0.288 -0.288,0.576 -0.4608,0.9216 l -11.0016,0.1728 7.1424,8.064 c -0.1728,0.3456 -0.288,0.6912 -0.4608,1.0368 -41.3568,-18.0864 -88.6464,-18.0864 -130.0032,0 -0.1152,-0.3456 -0.288,-0.6912 -0.4032,-1.0368 l 7.0848,-8.064 -10.94399,-0.1728 c -0.1728,-0.3456 -0.3456,-0.6336 -0.5184,-0.9216 10.65599,-4.7232 21.88799,-8.352 33.52319,-10.8288 23.8464,-5.068801 48.7872,-5.068801 72.576,0 z"
     id="path73"
     style="fill:#ffffff" /><path
     d="m 309.46632,54.604779 c 0,-1.2672 0.9792,-2.304 2.2464,-2.304 1.2672,0 2.304,1.0368 2.304,2.304 0,1.2096 -1.0368,2.2464 -2.304,2.2464 -1.2672,0 -2.2464,-1.0368 -2.2464,-2.2464 z"
     id="path75"
     style="fill:#0090c6" /><path
     d="m 309.46632,49.017579 c 0,-1.2672 0.9792,-2.304 2.2464,-2.304 1.2672,0 2.304,1.0368 2.304,2.304 0,1.2672 -1.0368,2.2464 -2.304,2.2464 -1.2672,0 -2.2464,-0.9792 -2.2464,-2.2464 z"
     id="path77"
     style="fill:#0090c6" /><path
     d="m 309.46632,43.430379 c 0,-1.267201 0.9792,-2.304001 2.2464,-2.304001 1.2672,0 2.304,1.0368 2.304,2.304001 0,1.2672 -1.0368,2.2464 -2.304,2.2464 -1.2672,0 -2.2464,-0.9792 -2.2464,-2.2464 z"
     id="path79"
     style="fill:#0090c6" /><path
     d="m 309.46632,37.843178 c 0,-1.2672 0.9792,-2.304 2.2464,-2.304 1.2672,0 2.304,1.0368 2.304,2.304 0,1.2672 -1.0368,2.304 -2.304,2.304 -1.2672,0 -2.2464,-1.0368 -2.2464,-2.304 z"
     id="path81"
     style="fill:#0090c6" /><path
     d="m 309.46632,32.255978 c 0,-1.2672 0.9792,-2.304 2.2464,-2.304 1.2672,0 2.304,1.0368 2.304,2.304 0,1.2672 -1.0368,2.304 -2.304,2.304 -1.2672,0 -2.2464,-1.0368 -2.2464,-2.304 z"
     id="path83"
     style="fill:#0090c6" /><path
     d="m 310.04232,21.023978 c 0,-0.864 0.7488,-1.6128 1.6704,-1.6128 0.9216,0 1.6704,0.7488 1.6704,1.6128 0,0.9216 -0.7488,1.6704 -1.6704,1.6704 -0.9216,0 -1.6704,-0.7488 -1.6704,-1.6704 z"
     id="path85"
     style="fill:#0090c6" /><path
     d="m 309.46632,26.668778 c 0,-1.2672 0.9792,-2.304 2.2464,-2.304 1.2672,0 2.304,1.0368 2.304,2.304 0,1.2672 -1.0368,2.304 -2.304,2.304 -1.2672,0 -2.2464,-1.0368 -2.2464,-2.304 z"
     id="path87"
     style="fill:#0090c6" /><path
     d="m 311.71272,66.988779 c -0.9216,0.4032 -2.4768,1.9008 -4.0896,1.9008 -1.9584,0 -3.744,-3.2832 -2.6496,-4.3776 1.152,-1.0944 3.456,-0.288 4.32,-1.7856 0.7488,-1.4976 -0.1728,-3.9744 2.4192,-3.6288 2.6496,-0.3456 1.6704,2.1312 2.4768,3.6288 0.8064,1.4976 3.168,0.6912 4.2624,1.7856 1.0944,1.0944 -0.6912,4.3776 -2.592,4.3776 -1.6704,0 -3.168,-1.4976 -4.1472,-1.9008 z"
     id="path89"
     style="fill:#db5232" /><path
     d="m 291.20712,103.16158 c 0,-1.728 1.44,-3.168001 3.168,-3.168001 1.728,0 3.168,1.440001 3.168,3.168001 0,1.728 -1.44,3.1104 -3.168,3.1104 -1.728,0 -3.168,-1.3824 -3.168,-3.1104 z"
     id="path91"
     style="fill:#a38d44" /><path
     d="m 292.99272,103.16158 c 0,-0.8064 0.6336,-1.44 1.3824,-1.44 0.8064,0 1.44,0.6336 1.44,1.44 0,0.7488 -0.6336,1.3824 -1.44,1.3824 -0.7488,0 -1.3824,-0.6336 -1.3824,-1.3824 z"
     id="path93"
     style="fill:#0090c6" /><polygon
     points="282.096,234.016 295.992,240.424 282.096,246.832 268.272,240.424 "
     transform="matrix(0.79999999,0,0,0.79999999,86.035967,-90.099218)"
     id="polygon95"
     style="fill:#a38d44" /><polygon
     points="282.096,245.104 292.392,240.424 282.096,235.672 271.872,240.424 "
     transform="matrix(0.79999999,0,0,0.79999999,86.035967,-90.099218)"
     id="polygon97"
     style="fill:#db5232" /><polygon
     points="237.312,238.696 252.216,242.08 239.904,251.224 225.072,247.768 "
     transform="matrix(0.79999999,0,0,0.79999999,86.035967,-90.099218)"
     id="polygon99"
     style="fill:#a38d44" /><polygon
     points="239.616,249.568 248.688,242.8 237.672,240.28 228.6,247.048 "
     transform="matrix(0.79999999,0,0,0.79999999,86.035967,-90.099218)"
     id="polygon101"
     style="fill:#db5232" /><polygon
     points="198.432,262.888 205.848,254.392 194.616,254.248 187.128,262.744 "
     transform="matrix(0.79999999,0,0,0.79999999,86.035967,-90.099218)"
     id="polygon103"
     style="fill:#db5232" /><path
     d="m 257.05032,110.99518 c -0.3456,-1.728 0.7488,-3.3984 2.4192,-3.744 1.728,-0.3456 3.3984,0.7488 3.744,2.4192 0.3456,1.728 -0.7488,3.3984 -2.4192,3.744 -1.728,0.3456 -3.3984,-0.7488 -3.744,-2.4192 z"
     id="path105"
     style="fill:#a38d44" /><path
     d="m 258.72072,110.64958 c -0.1152,-0.8064 0.3456,-1.5552 1.0944,-1.728 0.8064,-0.1152 1.5552,0.3456 1.6704,1.0944 0.1728,0.8064 -0.288,1.5552 -1.0944,1.728 -0.7488,0.1152 -1.4976,-0.3456 -1.6704,-1.0944 z"
     id="path107"
     style="fill:#0090c6" /><path
     d="m 332.16072,103.16158 c 0,-1.728 -1.3832,-3.168001 -3.1104,-3.168001 -1.728,0 -3.1104,1.440001 -3.1104,3.168001 0,1.728 1.3824,3.1104 3.1104,3.1104 1.728,0 3.1104,-1.3824 3.1104,-3.1104 z"
     id="path109"
     style="fill:#a38d44" /><path
     d="m 330.49032,103.16158 c 0,-0.8064 -0.6336,-1.44 -1.44,-1.44 -0.7488,0 -1.3824,0.6336 -1.3824,1.44 0,0.7488 0.6336,1.3824 1.3824,1.3824 0.8064,0 1.44,-0.6336 1.44,-1.3824 z"
     id="path111"
     style="fill:#0090c6" /><polygon
     points="326.88,238.696 311.976,242.08 324.216,251.224 339.12,247.768 "
     transform="matrix(0.79999999,0,0,0.79999999,86.035967,-90.099218)"
     id="polygon113"
     style="fill:#a38d44" /><polygon
     points="324.576,249.568 315.504,242.8 326.52,240.28 335.592,247.048 "
     transform="matrix(0.79999999,0,0,0.79999999,86.035967,-90.099218)"
     id="polygon115"
     style="fill:#db5232" /><polygon
     points="365.76,262.888 358.272,254.392 369.576,254.248 377.064,262.744 "
     transform="matrix(0.79999999,0,0,0.79999999,86.035967,-90.099218)"
     id="polygon117"
     style="fill:#db5232" /><path
     d="m 366.37512,110.99518 c 0.3456,-1.728 -0.7488,-3.3984 -2.4768,-3.744 -1.6704,-0.3456 -3.3408,0.7488 -3.6864,2.4192 -0.4032,1.728 0.6912,3.3984 2.4192,3.744 1.6704,0.3456 3.3408,-0.7488 3.744,-2.4192 z"
     id="path119"
     style="fill:#a38d44" /><path
     d="m 364.64712,110.64958 c 0.1728,-0.8064 -0.3456,-1.5552 -1.0944,-1.728 -0.7488,-0.1152 -1.4976,0.3456 -1.6704,1.0944 -0.1728,0.8064 0.3456,1.5552 1.0944,1.728 0.7488,0.1152 1.4976,-0.3456 1.6704,-1.0944 z"
     id="path121"
     style="fill:#0090c6" /><path
     d="m 309.46632,72.575979 c 0,-1.2672 0.9792,-2.2464 2.2464,-2.2464 1.2672,0 2.304,0.9792 2.304,2.2464 0,1.2672 -1.0368,2.304 -2.304,2.304 -1.2672,0 -2.2464,-1.0368 -2.2464,-2.304 z"
     id="path123"
     style="fill:#0090c6" /><path
     d="m 218.51594,69.580779 c 0,-1.2672 1.0368,-2.2464 2.304,-2.2464 1.2672,0 2.304,0.9792 2.304,2.2464 0,1.2672 -1.0368,2.304 -2.304,2.304 -1.2672,0 -2.304,-1.0368 -2.304,-2.304 z"
     id="path125"
     style="fill:#0090c6" /><path
     d="m 217.76714,62.438379 c 0,-1.2672 0.9792,-2.2464 2.2464,-2.2464 1.2672,0 2.304,0.9792 2.304,2.2464 0,1.2672 -1.0368,2.304 -2.304,2.304 -1.2672,0 -2.2464,-1.0368 -2.2464,-2.304 z"
     id="path127"
     style="fill:#0090c6" /><path
     d="m 219.55274,55.123179 c 0,-1.2672 0.9792,-2.304 2.2464,-2.304 1.2672,0 2.304,1.0368 2.304,2.304 0,1.2672 -1.0368,2.304 -2.304,2.304 -1.2672,0 -2.2464,-1.0368 -2.2464,-2.304 z"
     id="path129"
     style="fill:#0090c6" /><path
     d="m 223.29674,48.787179 c 0,-1.2672 1.0368,-2.304 2.304,-2.304 1.2672,0 2.2464,1.0368 2.2464,2.304 0,1.2672 -0.9792,2.304 -2.2464,2.304 -1.2672,0 -2.304,-1.0368 -2.304,-2.304 z"
     id="path131"
     style="fill:#0090c6" /><path
     d="m 229.45993,43.833579 c 0,-1.267201 1.0368,-2.304001 2.304,-2.304001 1.2096,0 2.2464,1.0368 2.2464,2.304001 0,1.2672 -1.0368,2.2464 -2.2464,2.2464 -1.2672,0 -2.304,-0.9792 -2.304,-2.2464 z"
     id="path133"
     style="fill:#0090c6" /><path
     d="m 236.77513,39.283178 c 0,-1.2672 1.0368,-2.304 2.304,-2.304 1.2672,0 2.304,1.0368 2.304,2.304 0,1.2096 -1.0368,2.2464 -2.304,2.2464 -1.2672,0 -2.304,-1.0368 -2.304,-2.2464 z"
     id="path135"
     style="fill:#0090c6" /><path
     d="m 244.55113,37.267178 c 0,-1.2672 0.97919,-2.304 2.24639,-2.304 1.2672,0 2.304,1.0368 2.304,2.304 0,1.2672 -1.0368,2.304 -2.304,2.304 -1.2672,0 -2.24639,-1.0368 -2.24639,-2.304 z"
     id="path137"
     style="fill:#0090c6" /><path
     d="m 265.40232,41.126378 c 0,-1.0944 0.9216,-1.9584 2.016,-1.9584 1.0944,0 1.9584,0.864 1.9584,1.9584 0,1.0944 -0.864,2.016 -1.9584,2.016 -1.0944,0 -2.016,-0.9216 -2.016,-2.016 z"
     id="path139"
     style="fill:#0090c6" /><path
     d="m 262.46472,48.268779 c 0,-1.0944 0.864,-1.9584 1.9584,-1.9584 1.0944,0 1.9584,0.864 1.9584,1.9584 0,1.0944 -0.864,1.9584 -1.9584,1.9584 -1.0944,0 -1.9584,-0.864 -1.9584,-1.9584 z"
     id="path141"
     style="fill:#0090c6" /><path
     d="m 262.46472,56.217579 c 0,-1.0944 0.864,-1.9584 1.9584,-1.9584 1.0944,0 1.9584,0.864 1.9584,1.9584 0,1.0944 -0.864,1.9584 -1.9584,1.9584 -1.0944,0 -1.9584,-0.864 -1.9584,-1.9584 z"
     id="path143"
     style="fill:#0090c6" /><path
     d="m 222.54794,83.347179 c 0,-1.2672 1.0368,-2.304 2.304,-2.304 1.2672,0 2.304,1.0368 2.304,2.304 0,1.2672 -1.0368,2.2464 -2.304,2.2464 -1.2672,0 -2.304,-0.9792 -2.304,-2.2464 z"
     id="path145"
     style="fill:#0090c6" /><path
     d="m 296.79432,23.212778 c 0,-0.9216 0.7488,-1.6704 1.6704,-1.6704 0.9216,0 1.6704,0.7488 1.6704,1.6704 0,0.9216 -0.7488,1.6128 -1.6704,1.6128 -0.9216,0 -1.6704,-0.6912 -1.6704,-1.6128 z"
     id="path147"
     style="fill:#0090c6" /><path
     d="m 273.17832,30.815978 c 0,-1.0944 0.864,-1.9584 1.9584,-1.9584 1.0944,0 1.9584,0.864 1.9584,1.9584 0,1.0944 -0.864,1.9584 -1.9584,1.9584 -1.0944,0 -1.9584,-0.864 -1.9584,-1.9584 z"
     id="path149"
     style="fill:#0090c6" /><path
     d="m 284.64072,26.380778 c 0,-0.9216 0.7488,-1.6704 1.6704,-1.6704 0.864,0 1.6128,0.7488 1.6128,1.6704 0,0.9216 -0.7488,1.6704 -1.6128,1.6704 -0.9216,0 -1.6704,-0.7488 -1.6704,-1.6704 z"
     id="path151"
     style="fill:#0090c6" /><circle
     cx="257.90399"
     cy="143.584"
     r="2.0880001"
     transform="matrix(0.79999999,0,0,0.79999999,86.035967,-90.099218)"
     id="circle153"
     style="fill:#0090c6" /><path
     d="m 253.07592,35.193578 c 0,-1.2672 1.0368,-2.2464 2.304,-2.2464 1.2672,0 2.2464,0.9792 2.2464,2.2464 0,1.2672 -0.9792,2.304 -2.2464,2.304 -1.2672,0 -2.304,-1.0368 -2.304,-2.304 z"
     id="path155"
     style="fill:#0090c6" /><path
     d="m 261.13992,34.732778 c 0,-1.2672 1.0368,-2.304 2.2464,-2.304 1.2672,0 2.304,1.0368 2.304,2.304 0,1.2672 -1.0368,2.304 -2.304,2.304 -1.2096,0 -2.2464,-1.0368 -2.2464,-2.304 z"
     id="path157"
     style="fill:#0090c6" /><circle
     cx="242.71201"
     cy="147.54401"
     r="2.0880001"
     transform="matrix(0.79999999,0,0,0.79999999,86.035967,-90.099218)"
     id="circle159"
     style="fill:#0090c6" /><path
     d="m 297.83112,78.047979 c 0.1728,-0.8064 1.3248,-4.1472 1.3248,-4.1472 0,0 -1.2096,-1.8432 -1.0944,-2.592 0.1152,-0.6912 1.152,-1.4976 1.7856,-1.728 0.576,-0.2304 4.8384,1.152 5.184,1.6704 0.3456,0.576 -1.728,3.1104 -1.44,3.8592 0.288,0.7488 3.1104,0.864 3.168,1.4976 0.0576,0.6912 -1.9008,3.8016 -2.5344,3.9168 -0.6336,0.1728 -2.9376,-0.9792 -3.2256,-1.0944 -0.288,-0.1152 -3.456,-0.0576 -3.168,-1.3824 z"
     id="path161"
     style="fill:#db5232" /><path
     d="m 247.14312,41.759978 c -0.4032,1.843201 -16.47359,4.780801 -18.31679,16.646401 -1.90079,11.8656 9.504,17.6832 9.504,17.6832 0,0 1.9008,1.0944 0,3.168 -1.8432,2.016 -5.9904,-0.6336 -5.9904,-0.6336 0,0 -9.79199,-5.8752 -7.94879,-19.8144 1.9008,-13.9392 23.15518,-18.835201 22.75198,-17.049601 z"
     id="path163"
     style="fill:#db5232" /><path
     d="m 249.10152,46.540779 c 0,0 -11.00159,3.9168 -13.70879,9.1584 -2.7648,5.184 1.2096,15.3792 1.2096,15.3792 0,0 2.4192,-1.7856 4.0896,-2.1888 1.6704,-0.4032 3.8016,0.288 6.10559,-0.1152 2.304,-0.4032 3.2832,-5.76 3.2832,-5.76 0,0 -1.4976,-7.9488 -1.4976,-9.6192 0,-2.592 0.5184,-6.8544 0.5184,-6.8544 z"
     id="path165"
     style="fill:#db5232" /><path
     d="m 242.65033,70.905579 c 0.8064,-0.6336 3.34079,0.576 5.01119,-0.2304 1.6704,-0.864 3.2832,-2.5344 3.2832,-2.5344 0,0 0.1728,-0.4032 1.6704,0.6336 1.44,1.0368 3.3408,2.9376 3.744,4.3776 0.4032,1.4976 -1.6704,0 -2.0736,1.2672 -0.4032,1.2672 0,3.168 0,3.168 0,0 -4.7808,3.456 -6.8544,3.6864 -2.0736,0.2304 -3.57119,-1.3824 -4.78079,-3.6864 -1.2672,-2.304 0.4032,-1.9008 0.8064,-2.7648 0.4032,-0.8064 -1.6704,-3.3408 -0.8064,-3.9168 z"
     id="path167"
     style="fill:#db5232" /><path
     d="m 222.37514,85.881579 c 0.864,-0.1152 4.3776,-0.0576 4.3776,-0.0576 0,0 1.3824,-1.7856 2.13119,-1.8432 0.6912,-0.1152 1.7856,0.6336 2.1888,1.152 0.4032,0.4608 0.4608,4.9536 0.0576,5.472 -0.4032,0.4608 -3.51359,-0.6912 -4.14719,-0.2304 -0.576,0.5184 0.1728,3.2832 -0.4608,3.5136 -0.576,0.2304 -4.1472,-0.6336 -4.4928,-1.2096 -0.3456,-0.5184 0.0576,-3.1104 0.0576,-3.3984 0,-0.288 -1.0368,-3.2256 0.288,-3.3984 z"
     id="path169"
     style="fill:#db5232" /><path
     d="m 242.88073,84.959979 c 0.1152,0.8064 0.1728,4.32 0.1728,4.32 0,0 1.7856,1.3824 1.9008,2.0736 0.1152,0.6912 -0.6336,1.8432 -1.152,2.2464 -0.4608,0.4032 -4.9536,0.5184 -5.472,0.1728 -0.5184,-0.4032 0.6336,-3.5712 0.1152,-4.1472 -0.4608,-0.576 -3.2256,0.2304 -3.5136,-0.4032 -0.2304,-0.576 0.576,-4.1472 1.152,-4.4928 0.5184,-0.4032 3.1104,0 3.3984,-0.0576 0.288,0 3.2256,-1.0944 3.3984,0.288 z"
     id="path171"
     style="fill:#db5232" /><path
     d="m 297.77352,33.983978 c 0,0 -12.096,4.3776 -16.0704,10.483201 -3.9744,6.2208 -1.5552,14.2848 -1.5552,14.2848 0,0 6.048,-0.576 7.7184,-0.9792 1.6704,-0.4032 3.8592,0.3456 6.1632,-0.1152 2.304,-0.4032 3.2832,-5.76 3.2832,-5.76 0,0 -0.288,-6.7392 -0.288,-8.4096 0,-2.592001 0.7488,-9.504001 0.7488,-9.504001 z"
     id="path173"
     style="fill:#db5232" /><path
     d="m 298.17672,29.087978 c -1.6704,1.7856 -20.9088,10.1376 -22.8096,19.641601 -1.8432,9.6192 7.6032,13.8816 5.7024,16.5312 -1.152,1.6704 -12.4416,-2.0736 -9.1584,-17.6256 3.3408,-15.552001 27.9936,-20.332801 26.2656,-18.547201 z"
     id="path175"
     style="fill:#db5232" /><path
     d="m 282.68232,66.700779 c 0.0576,-1.3248 1.4976,-0.2304 1.9008,-1.6128 0.4032,-1.44 -0.7488,-4.608 -0.5184,-5.0688 0.288,-0.5184 5.0688,1.152 6.912,0.8064 1.7856,-0.3456 1.4976,-1.5552 3.1104,-2.0736 1.6704,-0.5184 5.2416,5.6448 4.32,7.488 -0.864,1.8432 -3.9744,4.9536 -3.9744,4.9536 0,0 -4.896,2.016 -7.0848,1.0944 -2.2464,-0.9216 -4.7808,-4.2048 -4.6656,-5.5872 z"
     id="path177"
     style="fill:#db5232" /><path
     d="m 249.56232,52.185579 c -0.2304,10.5984 3.9744,18.5472 6.912,16.992 2.7072,-1.3824 -3.9168,-6.624 -3.744,-15.7248 0.2304,-10.252801 6.6816,-16.070401 5.0112,-16.704001 -1.6704,-0.6336 -7.9488,6.681601 -8.1792,15.436801 z"
     id="path179"
     style="fill:#db5232" /><path
     d="m 301.74792,23.500778 c 0.6336,-0.3456 1.0944,0.2304 1.728,2.2464 0.864,2.6496 -3.3408,16.0704 -3.3408,20.563201 0,4.4928 2.7072,13.0176 1.2672,15.7248 -1.44,2.7648 -2.7072,-14.4576 -3.0528,-17.6832 -0.288,-3.168001 3.2832,-15.264001 2.9376,-17.683201 -0.288,-2.4192 -0.1728,-2.8224 0.4608,-3.168 z"
     id="path181"
     style="fill:#db5232" /><path
     d="m 306.01032,34.675178 c 0.864,1.9584 -1.2096,1.7856 -1.0944,12.326401 0.1728,10.4832 1.5552,8.0064 0.9792,11.6928 -0.576,3.744 -3.8592,-9.792 -3.8592,-13.248 0,-3.456001 3.168,-12.672001 3.9744,-10.771201 z"
     id="path183"
     style="fill:#db5232" /><path
     d="m 220.12874,76.147179 c 0,-1.2672 1.0368,-2.304 2.304,-2.304 1.2672,0 2.2464,1.0368 2.2464,2.304 0,1.2672 -0.9792,2.304 -2.2464,2.304 -1.2672,0 -2.304,-1.0368 -2.304,-2.304 z"
     id="path185"
     style="fill:#0090c6" /><path
     d="m 268.57032,34.790378 c 0,-1.0944 0.9216,-1.9584 2.016,-1.9584 1.0944,0 1.9584,0.864 1.9584,1.9584 0,1.0944 -0.864,1.9584 -1.9584,1.9584 -1.0944,0 -2.016,-0.864 -2.016,-1.9584 z"
     id="path187"
     style="fill:#0090c6" /><path
     d="m 289.07592,75.916779 c -0.1728,-1.2672 0.7488,-2.4192 2.016,-2.5344 1.2672,-0.1152 2.3616,0.8064 2.5344,2.016 0.1152,1.2672 -0.8064,2.4192 -2.0736,2.5344 -1.2096,0.1152 -2.3616,-0.7488 -2.4768,-2.016 z"
     id="path189"
     style="fill:#0090c6" /><path
     d="m 268.28232,77.587179 c -0.288,-1.2096 0.5184,-2.4192 1.728,-2.7072 1.2672,-0.2304 2.4768,0.5184 2.7648,1.7856 0.2304,1.2096 -0.576,2.4192 -1.7856,2.7072 -1.2672,0.2304 -2.4768,-0.5184 -2.7072,-1.7856 z"
     id="path191"
     style="fill:#0090c6" /><path
     d="m 249.27432,84.787179 c -0.4032,-1.2096 0.288,-2.4768 1.44,-2.88 1.2096,-0.4032 2.5344,0.288 2.88,1.4976 0.4032,1.152 -0.2304,2.4768 -1.44,2.88 -1.2096,0.3456 -2.4768,-0.288 -2.88,-1.4976 z"
     id="path193"
     style="fill:#0090c6" /><path
     d="m 265.74792,64.166379 c 0.8064,0.2304 4.032,1.6128 4.032,1.6128 0,0 1.9584,-1.0944 2.6496,-0.9216 0.6912,0.1728 1.44,1.2672 1.6128,1.9008 0.2304,0.576 -1.44,4.7808 -1.9584,5.0688 -0.576,0.3456 -2.9952,-1.9584 -3.744,-1.728 -0.7488,0.2304 -1.0944,3.1104 -1.728,3.1104 -0.6912,0 -3.6288,-2.1888 -3.744,-2.8224 -0.1152,-0.6336 1.2096,-2.88 1.3248,-3.168 0.1152,-0.2304 0.2304,-3.3984 1.5552,-3.0528 z"
     id="path195"
     style="fill:#db5232" /><path
     d="m 258.31752,83.174379 c 0.1152,-0.8064 1.0368,-4.2048 1.0368,-4.2048 0,0 -1.3824,-1.7856 -1.2672,-2.5344 0.0576,-0.6912 1.0944,-1.5552 1.6704,-1.8432 0.576,-0.2304 4.896,0.8064 5.2992,1.3248 0.4032,0.5184 -1.5552,3.2256 -1.2096,3.9168 0.3456,0.7488 3.168,0.6912 3.2832,1.3248 0.0576,0.6912 -1.6704,3.8592 -2.304,4.0896 -0.6336,0.1728 -2.9952,-0.8064 -3.2832,-0.9216 -0.288,-0.0576 -3.3984,0.1728 -3.2256,-1.152 z"
     id="path197"
     style="fill:#db5232" /><path
     d="m 283.54632,73.439979 c -0.2304,0.8064 -1.8432,3.9168 -1.8432,3.9168 0,0 0.9792,2.0736 0.8064,2.7072 -0.2304,0.6912 -1.3824,1.3824 -2.016,1.4976 -0.6336,0.1728 -4.6656,-1.728 -4.9536,-2.304 -0.288,-0.576 2.1312,-2.88 1.9584,-3.6288 -0.1728,-0.7488 -2.9952,-1.2672 -2.9952,-1.9008 0.0576,-0.6912 2.4192,-3.5136 3.0528,-3.5712 0.6336,-0.0576 2.7648,1.3824 3.0528,1.4976 0.288,0.1728 3.3984,0.5184 2.9376,1.7856 z"
     id="path199"
     style="fill:#db5232" /><path
     d="m 233.26153,98.438379 c 0,-1.2672 1.0368,-2.2464 2.2464,-2.2464 1.2672,0 2.304,0.9792 2.304,2.2464 0,1.2672 -1.0368,2.304001 -2.304,2.304001 -1.2096,0 -2.2464,-1.036801 -2.2464,-2.304001 z"
     id="path201"
     style="fill:#0090c6" /><path
     d="m 238.50313,97.459179 c 5.2416,0.4032 9.50399,-1.728 12.32639,-7.3728 0.4032,-0.7488 1.4976,-1.152 2.2464,-0.864 7.0848,2.88 12.7872,2.1888 17.2224,-4.5504 0.4032,-0.6912 1.5552,-0.9792 2.2464,-0.576 6.7968,3.6864 12.4992,3.456 17.7408,-2.7648 0.5184,-0.576 1.6704,-0.7488 2.304,-0.288 6.3936,4.4352 12.096,4.6656 17.9712,-0.864 0.576,-0.576 1.7856,-0.576 2.3616,0 5.8752,5.5296 11.52,5.2992 17.9136,0.864 0.6336,-0.4608 1.7856,-0.288 2.304,0.288 5.184,6.2208 10.8864,6.4512 17.6832,2.7648 0.6912,-0.4032 1.8432,-0.1152 2.304,0.576 4.4352,6.7392 10.08,7.4304 17.2224,4.5504 0.7488,-0.288 1.8432,0.1152 2.1888,0.864 2.8224,5.6448 7.0848,7.776 12.3264,7.3728 l 0.3456,3.456001 c -6.1056,0.4608 -11.4624,-1.785601 -15.0336,-7.891201 -7.488,2.6496 -14.112,1.44 -19.0656,-5.184 -7.2576,3.5136 -13.9392,2.9376 -19.6416,-3.1104 -6.7392,4.2624 -13.4208,4.32 -19.7568,-0.9792 -6.336,5.2992 -13.0176,5.2416 -19.8144,0.9792 -5.7024,6.048 -12.384,6.624 -19.584,3.1104 -4.9536,6.624 -11.5776,7.8336 -19.1232,5.184 -3.5136,6.1056 -8.87039,8.352001 -15.03359,7.891201 l 0.3456,-3.456001 z"
     id="path203"
     style="fill:#db5232" /><path
     d="m 310.61832,13.535978 c 0.3456,-0.0576 0.7488,-0.1152 1.0944,-0.1152 0.4032,0 0.7488,0.0576 1.152,0.1152 V 9.2735781 h 4.2624 v -1.4976 h -4.2624 v -5.2992 h -2.2464 v 5.2992 h -4.2624 v 1.4976 h 4.2624 v 4.2623999 z"
     id="path205"
     style="fill:#ffffff" /><path
     d="m 317.12712,20.851178 c -0.1152,-1.3248 -0.6912,-2.4768 -1.5552,-3.3984 -0.9792,-0.9792 -2.3616,-1.5552 -3.8592,-1.5552 -2.8224,0 -5.184,2.1888 -5.3568,4.9536 h 1.6704 c 0.1152,-1.9584 1.728,-3.5136 3.6864,-3.5136 2.016,0 3.6288,1.5552 3.6864,3.5136 h 1.728 z"
     id="path207"
     style="fill:#ffffff" /><path
     d="m 404.85192,69.580779 c 0,-1.2672 -1.0368,-2.2464 -2.304,-2.2464 -1.2672,0 -2.2464,0.9792 -2.2464,2.2464 0,1.2672 0.9792,2.304 2.2464,2.304 1.2672,0 2.304,-1.0368 2.304,-2.304 z"
     id="path209"
     style="fill:#0090c6" /><path
     d="m 405.65832,62.438379 c 0,-1.2672 -1.0368,-2.2464 -2.304,-2.2464 -1.2672,0 -2.304,0.9792 -2.304,2.2464 0,1.2672 1.0368,2.304 2.304,2.304 1.2672,0 2.304,-1.0368 2.304,-2.304 z"
     id="path211"
     style="fill:#0090c6" /><path
     d="m 403.87272,55.123179 c 0,-1.2672 -1.0368,-2.304 -2.304,-2.304 -1.2672,0 -2.304,1.0368 -2.304,2.304 0,1.2672 1.0368,2.304 2.304,2.304 1.2672,0 2.304,-1.0368 2.304,-2.304 z"
     id="path213"
     style="fill:#0090c6" /><path
     d="m 400.07112,48.787179 c 0,-1.2672 -0.9792,-2.304 -2.2464,-2.304 -1.2672,0 -2.304,1.0368 -2.304,2.304 0,1.2672 1.0368,2.304 2.304,2.304 1.2672,0 2.2464,-1.0368 2.2464,-2.304 z"
     id="path215"
     style="fill:#0090c6" /><path
     d="m 393.96552,43.833579 c 0,-1.267201 -1.0368,-2.304001 -2.304,-2.304001 -1.2672,0 -2.304,1.0368 -2.304,2.304001 0,1.2672 1.0368,2.2464 2.304,2.2464 1.2672,0 2.304,-0.9792 2.304,-2.2464 z"
     id="path217"
     style="fill:#0090c6" /><path
     d="m 386.59272,39.283178 c 0,-1.2672 -1.0368,-2.304 -2.2464,-2.304 -1.2672,0 -2.304,1.0368 -2.304,2.304 0,1.2096 1.0368,2.2464 2.304,2.2464 1.2096,0 2.2464,-1.0368 2.2464,-2.2464 z"
     id="path219"
     style="fill:#0090c6" /><path
     d="m 378.87432,37.267178 c 0,-1.2672 -1.0368,-2.304 -2.304,-2.304 -1.2672,0 -2.2464,1.0368 -2.2464,2.304 0,1.2672 0.9792,2.304 2.2464,2.304 1.2672,0 2.304,-1.0368 2.304,-2.304 z"
     id="path221"
     style="fill:#0090c6" /><path
     d="m 357.96552,41.126378 c 0,-1.0944 -0.864,-1.9584 -1.9584,-1.9584 -1.0944,0 -1.9584,0.864 -1.9584,1.9584 0,1.0944 0.864,2.016 1.9584,2.016 1.0944,0 1.9584,-0.9216 1.9584,-2.016 z"
     id="path223"
     style="fill:#0090c6" /><path
     d="m 360.96072,48.268779 c 0,-1.0944 -0.9216,-1.9584 -2.0168,-1.9584 -1.0368,0 -1.9584,0.864 -1.9584,1.9584 0,1.0944 0.9216,1.9584 1.9584,1.9584 1.0952,0 2.0168,-0.864 2.0168,-1.9584 z"
     id="path225"
     style="fill:#0090c6" /><path
     d="m 360.96072,56.217579 c 0,-1.0944 -0.9216,-1.9584 -2.0168,-1.9584 -1.0368,0 -1.9584,0.864 -1.9584,1.9584 0,1.0944 0.9216,1.9584 1.9584,1.9584 1.0952,0 2.0168,-0.864 2.0168,-1.9584 z"
     id="path227"
     style="fill:#0090c6" /><path
     d="m 400.81992,83.347179 c 0,-1.2672 -1.0368,-2.304 -2.304,-2.304 -1.2672,0 -2.2464,1.0368 -2.2464,2.304 0,1.2672 0.9792,2.2464 2.2464,2.2464 1.2672,0 2.304,-0.9792 2.304,-2.2464 z"
     id="path229"
     style="fill:#0090c6" /><path
     d="m 326.63112,23.212778 c 0,-0.9216 -0.7488,-1.6704 -1.6704,-1.6704 -0.9216,0 -1.6128,0.7488 -1.6128,1.6704 0,0.9216 0.6912,1.6128 1.6128,1.6128 0.9216,0 1.6704,-0.6912 1.6704,-1.6128 z"
     id="path231"
     style="fill:#0090c6" /><path
     d="m 350.24712,30.815978 c 0,-1.0944 -0.9216,-1.9584 -2.016,-1.9584 -1.0368,0 -1.9584,0.864 -1.9584,1.9584 0,1.0944 0.9216,1.9584 1.9584,1.9584 1.0944,0 2.016,-0.864 2.016,-1.9584 z"
     id="path233"
     style="fill:#0090c6" /><circle
     cx="313.84799"
     cy="145.60001"
     r="2.0880001"
     transform="matrix(0.79999999,0,0,0.79999999,86.035967,-90.099218)"
     id="circle235"
     style="fill:#0090c6" /><path
     d="m 332.67912,24.767978 c 0,-0.9216 -0.7488,-1.6704 -1.6128,-1.6704 -0.9216,0 -1.6704,0.7488 -1.6704,1.6704 0,0.9216 0.7488,1.6704 1.6704,1.6704 0.864,0 1.6128,-0.7488 1.6128,-1.6704 z"
     id="path237"
     style="fill:#0090c6" /><path
     d="m 370.29192,35.193578 c 0,-1.2672 -0.9792,-2.2464 -2.2464,-2.2464 -1.2672,0 -2.304,0.9792 -2.304,2.2464 0,1.2672 1.0368,2.304 2.304,2.304 1.2672,0 2.2464,-1.0368 2.2464,-2.304 z"
     id="path239"
     style="fill:#0090c6" /><path
     d="m 362.28552,34.732778 c 0,-1.2672 -1.0368,-2.304 -2.304,-2.304 -1.2672,0 -2.304,1.0368 -2.304,2.304 0,1.2672 1.0368,2.304 2.304,2.304 1.2672,0 2.304,-1.0368 2.304,-2.304 z"
     id="path241"
     style="fill:#0090c6" /><circle
     cx="321.48001"
     cy="147.54401"
     r="2.0880001"
     transform="matrix(0.79999999,0,0,0.79999999,86.035967,-90.099218)"
     id="circle243"
     style="fill:#0090c6" /><path
     d="m 325.59432,78.047979 c -0.1728,-0.8064 -1.2672,-4.1472 -1.2672,-4.1472 0,0 1.2096,-1.8432 1.0944,-2.592 -0.1152,-0.6912 -1.2096,-1.4976 -1.7856,-1.728 -0.6336,-0.2304 -4.896,1.152 -5.2416,1.6704 -0.3456,0.576 1.7856,3.1104 1.4976,3.8592 -0.288,0.7488 -3.168,0.864 -3.2256,1.4976 0,0.6912 1.9584,3.8016 2.592,3.9168 0.6336,0.1728 2.9376,-0.9792 3.2256,-1.0944 0.288,-0.1152 3.3984,-0.0576 3.1104,-1.3824 z"
     id="path245"
     style="fill:#db5232" /><path
     d="m 376.28232,41.759978 c 0.4032,1.843201 16.416,4.780801 18.3168,16.646401 1.9008,11.8656 -9.5616,17.6832 -9.5616,17.6832 0,0 -1.9008,1.0944 0,3.168 1.9008,2.016 5.9904,-0.6336 5.9904,-0.6336 0,0 9.8496,-5.8752 7.9488,-19.8144 -1.9008,-13.9392 -23.1552,-18.835201 -22.6944,-17.049601 z"
     id="path247"
     style="fill:#db5232" /><path
     d="m 374.26632,46.540779 c 0,0 11.0592,3.9168 13.7664,9.1584 2.7072,5.184 -1.2672,15.3792 -1.2672,15.3792 0,0 -2.3616,-1.7856 -4.032,-2.1888 -1.6704,-0.4032 -3.8592,0.288 -6.1632,-0.1152 -2.304,-0.4032 -3.2832,-5.76 -3.2832,-5.76 0,0 1.4976,-7.9488 1.4976,-9.6192 0,-2.592 -0.5184,-6.8544 -0.5184,-6.8544 z"
     id="path249"
     style="fill:#db5232" /><path
     d="m 380.77512,70.905579 c -0.864,-0.6336 -3.3408,0.576 -5.0112,-0.2304 -1.6704,-0.864 -3.2832,-2.5344 -3.2832,-2.5344 0,0 -0.2304,-0.4032 -1.6704,0.6336 -1.4976,1.0368 -3.3408,2.9376 -3.8016,4.3776 -0.4032,1.4976 1.6704,0 2.1312,1.2672 0.4032,1.2672 0,3.168 0,3.168 0,0 4.7232,3.456 6.7968,3.6864 2.1312,0.2304 3.5712,-1.3824 4.8384,-3.6864 1.2672,-2.304 -0.4032,-1.9008 -0.864,-2.7648 -0.4032,-0.8064 1.6704,-3.3408 0.864,-3.9168 z"
     id="path251"
     style="fill:#db5232" /><path
     d="m 400.99272,85.881579 c -0.8064,-0.1152 -4.32,-0.0576 -4.32,-0.0576 0,0 -1.44,-1.7856 -2.1312,-1.8432 -0.6912,-0.1152 -1.7856,0.6336 -2.1888,1.152 -0.4032,0.4608 -0.4608,4.9536 -0.0576,5.472 0.4032,0.4608 3.5136,-0.6912 4.0896,-0.2304 0.6336,0.5184 -0.1152,3.2832 0.4608,3.5136 0.576,0.2304 4.1472,-0.6336 4.4928,-1.2096 0.3456,-0.5184 -0.0576,-3.1104 -0.0576,-3.3984 0,-0.288 1.0368,-3.2256 -0.288,-3.3984 z"
     id="path253"
     style="fill:#db5232" /><path
     d="m 380.48712,84.959979 c -0.1152,0.8064 -0.1152,4.32 -0.1152,4.32 0,0 -1.7856,1.3824 -1.9008,2.0736 -0.1152,0.6912 0.6336,1.8432 1.0944,2.2464 0.5184,0.4032 4.9536,0.5184 5.472,0.1728 0.5184,-0.4032 -0.6336,-3.5712 -0.1152,-4.1472 0.5184,-0.576 3.2256,0.2304 3.5136,-0.4032 0.288,-0.576 -0.576,-4.1472 -1.0944,-4.4928 -0.576,-0.4032 -3.1104,0 -3.456,-0.0576 -0.288,0 -3.2256,-1.0944 -3.3984,0.288 z"
     id="path255"
     style="fill:#db5232" /><path
     d="m 325.65192,33.983978 c 0,0 12.0384,4.3776 16.0128,10.483201 3.9744,6.2208 1.6128,14.2848 1.6128,14.2848 0,0 -6.1056,-0.576 -7.776,-0.9792 -1.6704,-0.4032 -3.8016,0.3456 -6.048,-0.1152 -2.304,-0.4032 -3.2832,-5.76 -3.2832,-5.76 0,0 0.288,-6.7392 0.288,-8.4096 0,-2.592001 -0.8064,-9.504001 -0.8064,-9.504001 z"
     id="path257"
     style="fill:#db5232" /><path
     d="m 325.24872,29.087978 c 1.728,1.7856 20.9088,10.1376 22.752,19.641601 1.9008,9.6192 -7.6032,13.8816 -5.7024,16.5312 1.2096,1.6704 12.4416,-2.0736 9.1584,-17.6256 -3.2832,-15.552001 -27.936,-20.332801 -26.208,-18.547201 z"
     id="path259"
     style="fill:#db5232" /><path
     d="m 340.74312,66.700779 c -0.1152,-1.3248 -1.4976,-0.2304 -1.9008,-1.6128 -0.4608,-1.44 0.7488,-4.608 0.4608,-5.0688 -0.2304,-0.5184 -5.0112,1.152 -6.8544,0.8064 -1.7856,-0.3456 -1.44,-1.5552 -3.1104,-2.0736 -1.6704,-0.5184 -5.2416,5.6448 -4.32,7.488 0.9216,1.8432 3.9744,4.9536 3.9744,4.9536 0,0 4.8384,2.016 7.0848,1.0944 2.2464,-0.9216 4.7232,-4.2048 4.6656,-5.5872 z"
     id="path261"
     style="fill:#db5232" /><path
     d="m 373.80552,52.185579 c 0.2304,10.5984 -3.9744,18.5472 -6.912,16.992 -2.7072,-1.3824 3.9744,-6.624 3.8016,-15.7248 -0.2304,-10.252801 -6.7392,-16.070401 -5.0688,-16.704001 1.6704,-0.6336 7.9488,6.681601 8.1792,15.436801 z"
     id="path263"
     style="fill:#db5232" /><path
     d="m 321.73512,23.500778 c -0.6336,-0.3456 -1.152,0.2304 -1.7856,2.2464 -0.864,2.6496 3.3408,16.0704 3.3408,20.563201 0,4.4928 -2.7072,13.0176 -1.2672,15.7248 1.44,2.7648 2.7072,-14.4576 3.0528,-17.6832 0.3456,-3.168001 -3.2832,-15.264001 -2.9376,-17.683201 0.3456,-2.4192 0.2304,-2.8224 -0.4032,-3.168 z"
     id="path265"
     style="fill:#db5232" /><path
     d="m 317.41512,34.675178 c -0.8064,1.9584 1.2672,1.7856 1.0944,12.326401 -0.1152,10.4832 -1.4976,8.0064 -0.9792,11.6928 0.576,3.744 3.8592,-9.792 3.8592,-13.248 0,-3.456001 -3.168,-12.672001 -3.9744,-10.771201 z"
     id="path267"
     style="fill:#db5232" /><path
     d="m 403.23912,76.147179 c 0,-1.2672 -0.9792,-2.304 -2.2464,-2.304 -1.2672,0 -2.304,1.0368 -2.304,2.304 0,1.2672 1.0368,2.304 2.304,2.304 1.2672,0 2.2464,-1.0368 2.2464,-2.304 z"
     id="path269"
     style="fill:#0090c6" /><path
     d="m 354.79752,34.790378 c 0,-1.0944 -0.864,-1.9584 -1.9584,-1.9584 -1.0944,0 -2.016,0.864 -2.016,1.9584 0,1.0944 0.9216,1.9584 2.016,1.9584 1.0944,0 1.9584,-0.864 1.9584,-1.9584 z"
     id="path271"
     style="fill:#0090c6" /><path
     d="m 334.34952,75.916779 c 0.1152,-1.2672 -0.8064,-2.4192 -2.0736,-2.5344 -1.152,-0.1152 -2.304,0.8064 -2.4192,2.016 -0.1728,1.2672 0.7488,2.4192 1.9584,2.5344 1.2672,0.1152 2.3616,-0.7488 2.5344,-2.016 z"
     id="path273"
     style="fill:#0090c6" /><path
     d="m 355.14312,77.587179 c 0.2304,-1.2096 -0.576,-2.4192 -1.7856,-2.7072 -1.2096,-0.2304 -2.4768,0.5184 -2.7072,1.7856 -0.288,1.2096 0.5184,2.4192 1.7856,2.7072 1.2096,0.2304 2.4192,-0.5184 2.7072,-1.7856 z"
     id="path275"
     style="fill:#0090c6" /><path
     d="m 374.15112,84.787179 c 0.3456,-1.2096 -0.288,-2.4768 -1.4976,-2.88 -1.2096,-0.4032 -2.4768,0.288 -2.88,1.4976 -0.4032,1.152 0.288,2.4768 1.4976,2.88 1.2096,0.3456 2.4768,-0.288 2.88,-1.4976 z"
     id="path277"
     style="fill:#0090c6" /><path
     d="m 357.67752,64.166379 c -0.864,0.2304 -4.0896,1.6128 -4.0896,1.6128 0,0 -1.9584,-1.0944 -2.6496,-0.9216 -0.6912,0.1728 -1.44,1.2672 -1.6128,1.9008 -0.1728,0.576 1.44,4.7808 2.016,5.0688 0.576,0.3456 2.9952,-1.9584 3.744,-1.728 0.7488,0.2304 1.0368,3.1104 1.728,3.1104 0.6336,0 3.6288,-2.1888 3.744,-2.8224 0.1152,-0.6336 -1.2096,-2.88 -1.3248,-3.168 -0.1152,-0.2304 -0.288,-3.3984 -1.5552,-3.0528 z"
     id="path279"
     style="fill:#db5232" /><path
     d="m 365.10792,83.174379 c -0.1152,-0.8064 -1.0368,-4.2048 -1.0368,-4.2048 0,0 1.3248,-1.7856 1.2672,-2.5344 -0.1152,-0.6912 -1.0944,-1.5552 -1.6704,-1.8432 -0.6336,-0.2304 -4.9536,0.8064 -5.3568,1.3248 -0.3456,0.5184 1.6128,3.2256 1.2672,3.9168 -0.3456,0.7488 -3.2256,0.6912 -3.2832,1.3248 -0.1152,0.6912 1.6704,3.8592 2.304,4.0896 0.576,0.1728 2.9952,-0.8064 3.2832,-0.9216 0.288,-0.0576 3.3984,0.1728 3.2256,-1.152 z"
     id="path281"
     style="fill:#db5232" /><path
     d="m 339.82152,73.439979 c 0.288,0.8064 1.8432,3.9168 1.8432,3.9168 0,0 -0.9792,2.0736 -0.7488,2.7072 0.1728,0.6912 1.3824,1.3824 1.9584,1.4976 0.6336,0.1728 4.7232,-1.728 4.9536,-2.304 0.288,-0.576 -2.1312,-2.88 -1.9584,-3.6288 0.2304,-0.7488 3.0528,-1.2672 2.9952,-1.9008 -0.0576,-0.6912 -2.3616,-3.5136 -3.0528,-3.5712 -0.6336,-0.0576 -2.7648,1.3824 -3.0528,1.4976 -0.2304,0.1728 -3.3408,0.5184 -2.9376,1.7856 z"
     id="path283"
     style="fill:#db5232" /><path
     d="m 390.16392,98.438379 c 0,-1.2672 -1.0368,-2.2464 -2.304,-2.2464 -1.2672,0 -2.304,0.9792 -2.304,2.2464 0,1.2672 1.0368,2.304001 2.304,2.304001 1.2672,0 2.304,-1.036801 2.304,-2.304001 z"
     id="path285"
     style="fill:#0090c6" /><path
     d="m 274.15752,95.327979 c -12.4992,2.7072 -24.48,6.681601 -35.88479,11.808001 -0.6912,0.288 -0.7488,1.0368 -0.5184,1.6128 0.4608,1.0944 1.152,1.152 2.016,0.7488 11.17439,-4.9536 22.92479,-8.8704 35.13599,-11.462401 24.192,-5.184 49.4208,-5.184 73.5552,0 12.2112,2.592001 24.0192,6.508801 35.136,11.462401 0.9216,0.4032 1.5552,0.3456 2.016,-0.7488 0.288,-0.576 0.2304,-1.3248 -0.5184,-1.6128 -11.3472,-5.1264 -23.3856,-9.100801 -35.8272,-11.808001 -24.6528,-5.2992 -50.4576,-5.2992 -75.1104,0 z"
     id="path287"
     style="fill:#db5232" /><path
     d="m 284.81352,353.83678 v -53.856 h -59.44318 c 8.69759,25.6896 28.56958,46.3104 53.74078,55.9872 l 5.7024,-2.1312 0,0 z m -122.91834,-18.144 v 64.1664 l 35.02078,-13.0752 c -14.68799,-14.5728 -26.66878,-31.9104 -35.02078,-51.0912 l 0,0 z m 266.80314,-35.712 h -88.128 v 33.0048 l 88.128,-33.0048 0,0 z m -88.128,-94.9248 v 38.88 h 96.0768 l -96.0768,-38.88 0,0 z m -63.936,38.88 h 8.1792 v -59.9616 c -16.128,5.0112 -30.4128,14.4576 -41.35679,26.8416 l 33.17759,33.12 0,0 z m -73.49755,-94.5792 -35.36639,-14.3424 24.71039,24.7104 c 3.3984,-3.6288 6.912,-7.0848 10.656,-10.368 l 0,0 z m 21.59997,94.5792 c 2.3616,-7.6032 5.70239,-14.7456 9.90719,-21.312 l 21.36959,21.312 h -31.27678 l 0,0 z m -41.81757,-72.9792 c -8.4096,10.7712 -15.49439,22.6368 -21.02399,35.3088 v -56.3328 l 21.02399,21.024 z"
     id="path289"
     style="fill:#ffffff" /><path
     d="m 288.15432,290.30398 c -0.1728,-0.4032 -0.288,-0.7488 -0.4608,-1.0944 l -3.9168,-0.0576 2.5344,-2.9376 c -0.0576,-0.1152 -0.1152,-0.2304 -0.1728,-0.3456 -0.6336,0.1152 -1.2672,-0.288 -1.4976,-0.864 -0.1728,-0.4032 -0.1728,-0.8064 0.0576,-1.152 0,-0.576 0,-0.7488 -0.576,-1.0368 -0.3456,-0.1152 -0.6912,-0.288 -1.152,-0.7488 -0.3456,-0.4608 -0.576,-0.9216 -0.8064,-1.3824 -0.4608,-0.9216 -0.4608,-1.0944 -1.5552,-1.0368 -0.9792,0 -2.2464,0.0576 -2.4768,-1.2096 -0.2304,-0.9792 0.3456,-1.6704 0.9792,-2.1888 -0.1728,-0.4608 -0.1152,-1.0368 0.1728,-1.4976 -0.9792,-0.4032 -1.3824,-1.5552 -0.9216,-2.4768 -0.864,-0.6336 -1.0368,-1.8432 -0.4032,-2.6496 -0.9792,-0.8064 -0.864,-2.3616 0.288,-2.9952 -0.6912,-1.0368 -0.1728,-2.4768 1.0944,-2.7648 -0.3456,-1.3248 0.8064,-2.5344 2.1312,-2.304 0,-1.3248 1.44,-2.1888 2.592,-1.6128 0,-1.4976 1.7856,-2.304 2.9376,-1.44 0.576,-1.3248 2.4768,-1.44 3.2256,-0.1728 0.1152,-1.5552 2.304,-1.8432 2.88,-0.3456 0.288,-1.3248 2.016,-1.5552 2.7072,-0.5184 0.288,-0.4032 0.8064,-0.6912 1.3248,-0.6336 0.1152,-1.0368 1.2096,-1.6704 2.1312,-1.3248 0.3456,-0.9216 1.4976,-1.152 2.1312,-0.5184 0.288,-0.9216 1.4976,-1.2096 2.1888,-0.576 0.288,-0.9216 1.4976,-1.2096 2.1888,-0.5184 0.288,-1.0368 1.6128,-1.2672 2.2464,-0.4608 h 0.9216 c 0.0576,-1.0368 0.6336,-1.9008 1.4976,-2.3616 v -0.9216 h -1.4976 v -2.2464 h 1.4976 v -1.9008 h 2.5344 v 1.9008 h 1.4976 v 2.2464 h -1.4976 v 0.9216 c 0.288,0.1728 0.5184,0.3456 0.7488,0.5184 0.4608,0.4608 0.7488,1.152 0.8064,1.8432 h 0.864 c 0.6912,-0.8064 2.016,-0.576 2.304,0.4608 0.6912,-0.6912 1.9008,-0.4032 2.1888,0.5184 0.6912,-0.6336 1.8432,-0.3456 2.1312,0.576 0.6912,-0.6336 1.8432,-0.4032 2.1312,0.5184 0.9792,-0.3456 2.016,0.288 2.1312,1.3248 0.5184,-0.0576 1.0368,0.2304 1.3824,0.6336 0.6912,-1.0368 2.3616,-0.8064 2.7072,0.5184 0.5184,-1.4976 2.6496,-1.2096 2.8224,0.3456 0.7488,-1.2672 2.592,-1.152 3.2256,0.1728 1.152,-0.864 2.88,-0.0576 2.88,1.44 1.152,-0.576 2.592,0.288 2.6496,1.6128 1.2672,-0.2304 2.4768,0.9792 2.0736,2.304 1.2672,0.288 1.7856,1.728 1.0944,2.7648 1.152,0.6336 1.2672,2.1888 0.288,2.9952 0.6336,0.8064 0.4608,2.016 -0.4032,2.6496 0.5184,0.9216 0.1152,2.0736 -0.864,2.4768 0.2304,0.4608 0.288,1.0368 0.1152,1.4976 0.6336,0.5184 1.2096,1.2096 1.0368,2.1888 -0.2304,1.2672 -1.5552,1.2096 -2.5344,1.2096 -1.0368,-0.0576 -1.0944,0.1152 -1.5552,1.0368 -0.2304,0.4608 -0.4608,0.9216 -0.8064,1.3824 -0.4032,0.4608 -0.8064,0.6336 -1.0944,0.7488 -0.576,0.288 -0.6336,0.4608 -0.6336,1.0368 0.2304,0.3456 0.2304,0.7488 0.0576,1.152 -0.2304,0.576 -0.8064,0.9792 -1.44,0.864 -0.0576,0.1152 -0.1152,0.2304 -0.2304,0.3456 l 2.592,2.9376 -3.9744,0.0576 c -0.1152,0.3456 -0.288,0.6912 -0.4608,1.0944 -14.8032,-6.7968 -32.1408,-6.7968 -47.0592,0 z"
     id="path291"
     style="fill:#a38d44" /><path
     d="m 310.90632,265.42078 c 0,-0.4608 0.3456,-0.8064 0.8064,-0.8064 0.4608,0 0.8064,0.3456 0.8064,0.8064 0,0.4608 -0.3456,0.8064 -0.8064,0.8064 -0.4608,0 -0.8064,-0.3456 -0.8064,-0.8064 z"
     id="path293"
     style="fill:#57175e" /><path
     d="m 310.90632,263.46238 c 0,-0.4608 0.3456,-0.864 0.8064,-0.864 0.4608,0 0.8064,0.4032 0.8064,0.864 0,0.4032 -0.3456,0.8064 -0.8064,0.8064 -0.4608,0 -0.8064,-0.4032 -0.8064,-0.8064 z"
     id="path295"
     style="fill:#57175e" /><path
     d="m 310.90632,261.44638 c 0,-0.4608 0.3456,-0.8064 0.8064,-0.8064 0.4608,0 0.8064,0.3456 0.8064,0.8064 0,0.4608 -0.3456,0.8064 -0.8064,0.8064 -0.4608,0 -0.8064,-0.3456 -0.8064,-0.8064 z"
     id="path297"
     style="fill:#57175e" /><path
     d="m 310.90632,259.48798 c 0,-0.4608 0.3456,-0.8064 0.8064,-0.8064 0.4608,0 0.8064,0.3456 0.8064,0.8064 0,0.4032 -0.3456,0.8064 -0.8064,0.8064 -0.4608,0 -0.8064,-0.4032 -0.8064,-0.8064 z"
     id="path299"
     style="fill:#57175e" /><path
     d="m 310.90632,257.47198 c 0,-0.4608 0.3456,-0.8064 0.8064,-0.8064 0.4608,0 0.8064,0.3456 0.8064,0.8064 0,0.4608 -0.3456,0.8064 -0.8064,0.8064 -0.4608,0 -0.8064,-0.3456 -0.8064,-0.8064 z"
     id="path301"
     style="fill:#57175e" /><path
     d="m 311.13672,253.49758 c 0,-0.3456 0.288,-0.576 0.576,-0.576 0.3456,0 0.576,0.2304 0.576,0.576 0,0.3456 -0.2304,0.576 -0.576,0.576 -0.288,0 -0.576,-0.2304 -0.576,-0.576 z"
     id="path303"
     style="fill:#57175e" /><path
     d="m 310.90632,255.51358 c 0,-0.4608 0.3456,-0.8064 0.8064,-0.8064 0.4608,0 0.8064,0.3456 0.8064,0.8064 0,0.4608 -0.3456,0.8064 -0.8064,0.8064 -0.4608,0 -0.8064,-0.3456 -0.8064,-0.8064 z"
     id="path305"
     style="fill:#57175e" /><path
     d="m 311.71272,269.85598 c -0.3456,0.1152 -0.864,0.6912 -1.44,0.6912 -0.6912,0 -1.3248,-1.2096 -0.9216,-1.6128 0.3456,-0.4032 1.2096,-0.0576 1.4976,-0.6336 0.288,-0.5184 -0.0576,-1.3824 0.864,-1.2672 0.9216,-0.1152 0.576,0.7488 0.864,1.2672 0.288,0.576 1.152,0.2304 1.5552,0.6336 0.4032,0.4032 -0.2304,1.6128 -0.9216,1.6128 -0.576,0 -1.152,-0.576 -1.4976,-0.6912 z"
     id="path307"
     style="fill:#57175e" /><polygon
     points="252.36,473.56 255.024,470.536 250.992,470.536 248.328,473.488 "
     transform="matrix(0.79999999,0,0,0.79999999,86.035967,-90.099218)"
     id="polygon309"
     style="fill:#57175e" /><polygon
     points="311.832,473.56 309.168,470.536 313.2,470.536 315.792,473.488 "
     transform="matrix(0.79999999,0,0,0.79999999,86.035967,-90.099218)"
     id="polygon311"
     style="fill:#57175e" /><path
     d="m 310.90632,271.81438 c 0,-0.4608 0.3456,-0.8064 0.8064,-0.8064 0.4608,0 0.8064,0.3456 0.8064,0.8064 0,0.4608 -0.3456,0.8064 -0.8064,0.8064 -0.4608,0 -0.8064,-0.3456 -0.8064,-0.8064 z"
     id="path313"
     style="fill:#57175e" /><path
     d="m 278.59272,270.77758 c 0,-0.4608 0.3456,-0.8064 0.8064,-0.8064 0.4608,0 0.8064,0.3456 0.8064,0.8064 0,0.4608 -0.3456,0.8064 -0.8064,0.8064 -0.4608,0 -0.8064,-0.3456 -0.8064,-0.8064 z"
     id="path315"
     style="fill:#57175e" /><path
     d="m 278.30472,268.24318 c 0,-0.4608 0.3456,-0.8064 0.8064,-0.8064 0.4608,0 0.8064,0.3456 0.8064,0.8064 0,0.4032 -0.3456,0.8064 -0.8064,0.8064 -0.4608,0 -0.8064,-0.4032 -0.8064,-0.8064 z"
     id="path317"
     style="fill:#57175e" /><path
     d="m 278.93832,265.59358 c 0,-0.4032 0.3456,-0.8064 0.8064,-0.8064 0.4608,0 0.8064,0.4032 0.8064,0.8064 0,0.4608 -0.3456,0.864 -0.8064,0.864 -0.4608,0 -0.8064,-0.4032 -0.8064,-0.864 z"
     id="path319"
     style="fill:#57175e" /><path
     d="m 280.26312,263.34718 c 0,-0.4608 0.4032,-0.8064 0.8064,-0.8064 0.4608,0 0.864,0.3456 0.864,0.8064 0,0.4608 -0.4032,0.8064 -0.864,0.8064 -0.4032,0 -0.8064,-0.3456 -0.8064,-0.8064 z"
     id="path321"
     style="fill:#57175e" /><path
     d="m 282.45192,261.61918 c 0,-0.4608 0.4032,-0.864 0.8064,-0.864 0.4608,0 0.8064,0.4032 0.8064,0.864 0,0.4032 -0.3456,0.8064 -0.8064,0.8064 -0.4032,0 -0.8064,-0.4032 -0.8064,-0.8064 z"
     id="path323"
     style="fill:#57175e" /><path
     d="m 285.10152,259.94878 c 0,-0.4032 0.3456,-0.8064 0.8064,-0.8064 0.4032,0 0.8064,0.4032 0.8064,0.8064 0,0.4608 -0.4032,0.864 -0.8064,0.864 -0.4608,0 -0.8064,-0.4032 -0.8064,-0.864 z"
     id="path325"
     style="fill:#57175e" /><path
     d="m 287.80872,259.25758 c 0,-0.4608 0.4032,-0.8064 0.8064,-0.8064 0.4608,0 0.864,0.3456 0.864,0.8064 0,0.4608 -0.4032,0.8064 -0.864,0.8064 -0.4032,0 -0.8064,-0.3456 -0.8064,-0.8064 z"
     id="path327"
     style="fill:#57175e" /><path
     d="m 295.23912,260.63998 c 0,-0.4032 0.3456,-0.6912 0.7488,-0.6912 0.3456,0 0.6912,0.288 0.6912,0.6912 0,0.4032 -0.3456,0.6912 -0.6912,0.6912 -0.4032,0 -0.7488,-0.288 -0.7488,-0.6912 z"
     id="path329"
     style="fill:#57175e" /><path
     d="m 294.20232,263.17438 c 0,-0.4032 0.288,-0.6912 0.6912,-0.6912 0.4032,0 0.6912,0.288 0.6912,0.6912 0,0.4032 -0.288,0.6912 -0.6912,0.6912 -0.4032,0 -0.6912,-0.288 -0.6912,-0.6912 z"
     id="path331"
     style="fill:#57175e" /><path
     d="m 294.20232,265.99678 c 0,-0.4032 0.288,-0.6912 0.6912,-0.6912 0.4032,0 0.6912,0.288 0.6912,0.6912 0,0.4032 -0.288,0.6912 -0.6912,0.6912 -0.4032,0 -0.6912,-0.288 -0.6912,-0.6912 z"
     id="path333"
     style="fill:#57175e" /><path
     d="m 280.03272,275.67358 c 0,-0.4608 0.3456,-0.864 0.8064,-0.864 0.4608,0 0.8064,0.4032 0.8064,0.864 0,0.4032 -0.3456,0.8064 -0.8064,0.8064 -0.4608,0 -0.8064,-0.4032 -0.8064,-0.8064 z"
     id="path335"
     style="fill:#57175e" /><path
     d="m 306.41352,254.24638 c 0,-0.288 0.288,-0.576 0.576,-0.576 0.3456,0 0.6336,0.288 0.6336,0.576 0,0.3456 -0.288,0.576 -0.6336,0.576 -0.288,0 -0.576,-0.2304 -0.576,-0.576 z"
     id="path337"
     style="fill:#57175e" /><path
     d="m 298.00392,256.95358 c 0,-0.3456 0.3456,-0.6912 0.6912,-0.6912 0.4032,0 0.6912,0.3456 0.6912,0.6912 0,0.4032 -0.288,0.7488 -0.6912,0.7488 -0.3456,0 -0.6912,-0.3456 -0.6912,-0.7488 z"
     id="path339"
     style="fill:#57175e" /><path
     d="m 302.09352,255.39838 c 0,-0.3456 0.2304,-0.576 0.576,-0.576 0.3456,0 0.576,0.2304 0.576,0.576 0,0.288 -0.2304,0.576 -0.576,0.576 -0.3456,0 -0.576,-0.288 -0.576,-0.576 z"
     id="path341"
     style="fill:#57175e" /><path
     d="m 304.22472,254.82238 c 0,-0.3456 0.288,-0.576 0.6336,-0.576 0.288,0 0.576,0.2304 0.576,0.576 0,0.3456 -0.288,0.576 -0.576,0.576 -0.3456,0 -0.6336,-0.2304 -0.6336,-0.576 z"
     id="path343"
     style="fill:#57175e" /><path
     d="m 290.86152,258.50878 c 0,-0.4032 0.3456,-0.8064 0.8064,-0.8064 0.4608,0 0.8064,0.4032 0.8064,0.8064 0,0.4608 -0.3456,0.864 -0.8064,0.864 -0.4608,0 -0.8064,-0.4032 -0.8064,-0.864 z"
     id="path345"
     style="fill:#57175e" /><path
     d="m 293.74152,258.33598 c 0,-0.4032 0.3456,-0.8064 0.8064,-0.8064 0.4608,0 0.8064,0.4032 0.8064,0.8064 0,0.4608 -0.3456,0.864 -0.8064,0.864 -0.4608,0 -0.8064,-0.4032 -0.8064,-0.864 z"
     id="path347"
     style="fill:#57175e" /><path
     d="m 299.90472,255.97438 c 0,-0.3456 0.288,-0.6336 0.6336,-0.6336 0.288,0 0.576,0.288 0.576,0.6336 0,0.288 -0.288,0.576 -0.576,0.576 -0.3456,0 -0.6336,-0.288 -0.6336,-0.576 z"
     id="path349"
     style="fill:#57175e" /><path
     d="m 306.75912,273.77278 c 0.1152,-0.288 0.5184,-1.4976 0.5184,-1.4976 0,0 -0.4608,-0.6336 -0.4032,-0.9216 0.0576,-0.2304 0.4032,-0.5184 0.6336,-0.576 0.2304,-0.1152 1.728,0.4032 1.8432,0.576 0.1152,0.1728 -0.6336,1.0944 -0.5184,1.3824 0.1152,0.2304 1.0944,0.288 1.152,0.5184 0,0.2304 -0.6912,1.3248 -0.9216,1.3824 -0.2304,0.0576 -1.0368,-0.3456 -1.152,-0.4032 -0.1152,0 -1.2096,0 -1.152,-0.4608 z"
     id="path351"
     style="fill:#57175e" /><path
     d="m 288.73032,260.87038 c -0.1152,0.6336 -5.8176,1.6704 -6.5088,5.9328 -0.6336,4.2048 3.3984,6.2784 3.3984,6.2784 0,0 0.6912,0.4032 0,1.0944 -0.6336,0.7488 -2.1312,-0.2304 -2.1312,-0.2304 0,0 -3.456,-2.0736 -2.8224,-7.0272 0.6912,-4.9536 8.2368,-6.6816 8.064,-6.048 z"
     id="path353"
     style="fill:#57175e" /><path
     d="m 289.47912,262.54078 c 0,0 -3.9168,1.44 -4.896,3.2832 -0.9792,1.8432 0.4608,5.472 0.4608,5.472 0,0 0.8064,-0.6336 1.44,-0.8064 0.576,-0.1152 1.3248,0.1152 2.1312,0 0.864,-0.1728 1.2096,-2.0736 1.2096,-2.0736 0,0 -0.5184,-2.8224 -0.5184,-3.3984 0,-0.9216 0.1728,-2.4768 0.1728,-2.4768 z"
     id="path355"
     style="fill:#57175e" /><path
     d="m 287.17512,271.23838 c 0.288,-0.2304 1.152,0.2304 1.7856,-0.1152 0.576,-0.288 1.152,-0.864 1.152,-0.864 0,0 0.0576,-0.1728 0.576,0.2304 0.5184,0.3456 1.2096,1.0368 1.3248,1.5552 0.1728,0.5184 -0.576,0 -0.6912,0.4608 -0.1728,0.4032 0,1.0944 0,1.0944 0,0 -1.728,1.2672 -2.4768,1.3248 -0.7488,0.0576 -1.2672,-0.5184 -1.6704,-1.3248 -0.4608,-0.8064 0.1152,-0.6912 0.288,-0.9792 0.1152,-0.288 -0.6336,-1.152 -0.288,-1.3824 z"
     id="path357"
     style="fill:#57175e" /><path
     d="m 279.97512,276.53758 c 0.288,0 1.5552,0 1.5552,0 0,0 0.4608,-0.6336 0.7488,-0.6912 0.2304,0 0.6336,0.2304 0.7488,0.4608 0.1728,0.1728 0.1728,1.728 0.0576,1.9008 -0.1728,0.1728 -1.2672,-0.2304 -1.4976,-0.0576 -0.2304,0.1728 0.0576,1.152 -0.1728,1.2672 -0.1728,0.0576 -1.44,-0.2304 -1.6128,-0.4608 -0.1152,-0.1728 0.0576,-1.0944 0.0576,-1.2096 0,-0.1152 -0.4032,-1.152 0.1152,-1.2096 z"
     id="path359"
     style="fill:#57175e" /><path
     d="m 287.23272,276.19198 c 0.0576,0.3456 0.0576,1.5552 0.0576,1.5552 0,0 0.6336,0.5184 0.6912,0.7488 0.0576,0.288 -0.2304,0.6336 -0.4032,0.8064 -0.1728,0.1152 -1.7856,0.1728 -1.9584,0.0576 -0.1728,-0.1728 0.2304,-1.2672 0.0576,-1.4976 -0.1728,-0.1728 -1.152,0.1152 -1.2672,-0.1152 -0.0576,-0.2304 0.2304,-1.4976 0.4032,-1.6128 0.2304,-0.1152 1.0944,0 1.2096,0 0.1152,0 1.152,-0.4032 1.2096,0.0576 z"
     id="path361"
     style="fill:#57175e" /><path
     d="m 306.75912,258.10558 c 0,0 -4.2624,1.5552 -5.7024,3.744 -1.44,2.1888 -0.576,5.0688 -0.576,5.0688 0,0 2.1888,-0.2304 2.7648,-0.3456 0.576,-0.1728 1.3824,0.1152 2.1888,-0.0576 0.8064,-0.1152 1.152,-2.0736 1.152,-2.0736 0,0 -0.1152,-2.3616 -0.1152,-2.9376 0,-0.9216 0.288,-3.3984 0.288,-3.3984 z"
     id="path363"
     style="fill:#57175e" /><path
     d="m 306.93192,256.37758 c -0.6336,0.6336 -7.488,3.5712 -8.1216,6.9696 -0.6912,3.3984 2.7072,4.9536 2.016,5.8752 -0.4032,0.576 -4.4352,-0.7488 -3.2256,-6.2784 1.152,-5.5296 9.9072,-7.2 9.3312,-6.5664 z"
     id="path365"
     style="fill:#57175e" /><path
     d="m 301.40232,269.74078 c 0,-0.4608 0.5184,-0.1152 0.6912,-0.576 0.1152,-0.5184 -0.288,-1.6128 -0.1728,-1.8432 0.0576,-0.1728 1.7856,0.4608 2.4192,0.3456 0.6336,-0.1152 0.5184,-0.576 1.0944,-0.7488 0.6336,-0.1728 1.9008,2.016 1.5552,2.6496 -0.288,0.6336 -1.3824,1.7856 -1.3824,1.7856 0,0 -1.7856,0.6912 -2.5344,0.3456 -0.8064,-0.288 -1.728,-1.4976 -1.6704,-1.9584 z"
     id="path367"
     style="fill:#57175e" /><path
     d="m 289.65192,264.55678 c -0.1152,3.8016 1.3824,6.624 2.4192,6.048 0.9792,-0.4608 -1.3824,-2.3616 -1.3248,-5.5872 0.0576,-3.6288 2.3616,-5.7024 1.7856,-5.9328 -0.576,-0.2304 -2.8224,2.3616 -2.88,5.472 z"
     id="path369"
     style="fill:#57175e" /><path
     d="m 308.19912,254.36158 c 0.2304,-0.1152 0.4032,0.1152 0.576,0.8064 0.3456,0.9216 -1.152,5.7024 -1.152,7.3152 0,1.6128 0.9216,4.608 0.4608,5.5872 -0.5184,0.9792 -0.9792,-5.1264 -1.0944,-6.2784 -0.1152,-1.152 1.152,-5.4144 1.0368,-6.2784 -0.1152,-0.864 -0.0576,-1.0368 0.1728,-1.152 z"
     id="path371"
     style="fill:#57175e" /><path
     d="m 309.69672,258.33598 c 0.288,0.6912 -0.4608,0.6336 -0.4032,4.3776 0.0576,3.744 0.576,2.88 0.3456,4.2048 -0.1728,1.2672 -1.3824,-3.5136 -1.3824,-4.7232 0,-1.2672 1.152,-4.5504 1.44,-3.8592 z"
     id="path373"
     style="fill:#57175e" /><path
     d="m 279.16872,273.08158 c 0,-0.4608 0.3456,-0.8064 0.8064,-0.8064 0.4608,0 0.8064,0.3456 0.8064,0.8064 0,0.4608 -0.3456,0.8064 -0.8064,0.8064 -0.4608,0 -0.8064,-0.3456 -0.8064,-0.8064 z"
     id="path375"
     style="fill:#57175e" /><path
     d="m 296.39112,258.39358 c 0,-0.4032 0.288,-0.6912 0.6912,-0.6912 0.4032,0 0.6912,0.288 0.6912,0.6912 0,0.4032 -0.288,0.6912 -0.6912,0.6912 -0.4032,0 -0.6912,-0.288 -0.6912,-0.6912 z"
     id="path377"
     style="fill:#57175e" /><path
     d="m 303.64872,273.02398 c -0.0576,-0.4608 0.288,-0.864 0.7488,-0.9216 0.4608,-0.0576 0.864,0.288 0.864,0.7488 0.0576,0.4032 -0.2304,0.8064 -0.6912,0.864 -0.4608,0.0576 -0.864,-0.288 -0.9216,-0.6912 z"
     id="path379"
     style="fill:#57175e" /><path
     d="m 296.27592,273.59998 c -0.1152,-0.4032 0.1728,-0.864 0.6336,-0.9792 0.4032,-0.0576 0.864,0.2304 0.9792,0.6336 0.0576,0.4608 -0.2304,0.864 -0.6336,0.9792 -0.4608,0.1152 -0.864,-0.1728 -0.9792,-0.6336 z"
     id="path381"
     style="fill:#57175e" /><path
     d="m 289.53672,276.19198 c -0.1728,-0.4608 0.0576,-0.9216 0.5184,-1.0368 0.4032,-0.1728 0.864,0.0576 0.9792,0.5184 0.1728,0.4032 -0.0576,0.864 -0.5184,1.0368 -0.4032,0.1152 -0.864,-0.1152 -0.9792,-0.5184 z"
     id="path383"
     style="fill:#57175e" /><path
     d="m 295.35432,268.81918 c 0.288,0.1152 1.44,0.576 1.44,0.576 0,0 0.6912,-0.4032 0.9792,-0.3456 0.2304,0.0576 0.5184,0.4608 0.576,0.6912 0.0576,0.2304 -0.5184,1.728 -0.7488,1.8432 -0.1728,0.1152 -1.0368,-0.7488 -1.3248,-0.6336 -0.2304,0.0576 -0.3456,1.0944 -0.576,1.0944 -0.2304,0 -1.3248,-0.7488 -1.3824,-0.9792 0,-0.2304 0.4608,-1.0368 0.5184,-1.152 0,-0.0576 0.0576,-1.2096 0.5184,-1.0944 z"
     id="path385"
     style="fill:#57175e" /><path
     d="m 292.70472,275.61598 c 0.0576,-0.3456 0.4032,-1.4976 0.4032,-1.4976 0,0 -0.5184,-0.6912 -0.4608,-0.9216 0,-0.2304 0.4032,-0.576 0.576,-0.6336 0.2304,-0.1152 1.7856,0.288 1.9008,0.4608 0.1152,0.1728 -0.576,1.152 -0.4032,1.3824 0.1152,0.2304 1.0944,0.2304 1.152,0.4608 0,0.2304 -0.6336,1.3824 -0.8064,1.44 -0.2304,0.1152 -1.0944,-0.288 -1.2096,-0.288 -0.0576,-0.0576 -1.2096,0.0576 -1.152,-0.4032 z"
     id="path387"
     style="fill:#57175e" /><path
     d="m 301.69032,272.10238 c -0.0576,0.288 -0.6336,1.44 -0.6336,1.44 0,0 0.3456,0.6912 0.288,0.9792 -0.1152,0.2304 -0.5184,0.4608 -0.7488,0.5184 -0.1728,0.0576 -1.6128,-0.6336 -1.728,-0.864 -0.1152,-0.1728 0.7488,-0.9792 0.6912,-1.2672 -0.0576,-0.288 -1.0944,-0.4608 -1.0368,-0.6912 0,-0.2304 0.8064,-1.2096 1.0368,-1.2672 0.2304,0 0.9792,0.5184 1.0944,0.576 0.1152,0 1.2096,0.1728 1.0368,0.576 z"
     id="path389"
     style="fill:#57175e" /><path
     d="m 283.83432,281.03038 c 0,-0.4608 0.3456,-0.8064 0.8064,-0.8064 0.4608,0 0.8064,0.3456 0.8064,0.8064 0,0.4608 -0.3456,0.8064 -0.8064,0.8064 -0.4608,0 -0.8064,-0.3456 -0.8064,-0.8064 z"
     id="path391"
     style="fill:#57175e" /><path
     d="m 285.67752,280.68478 c 1.9008,0.1152 3.3984,-0.6336 4.3776,-2.6496 0.1728,-0.2304 0.5184,-0.4032 0.8064,-0.288 2.5344,1.0368 4.5504,0.8064 6.1056,-1.6128 0.1728,-0.2304 0.576,-0.3456 0.8064,-0.2304 2.4192,1.3248 4.4928,1.2096 6.336,-0.9792 0.1728,-0.1728 0.576,-0.2304 0.8064,-0.1152 2.304,1.6128 4.32,1.6704 6.3936,-0.288 0.2304,-0.2304 0.6336,-0.2304 0.864,0 2.0736,1.9584 4.0896,1.9008 6.336,0.288 0.2304,-0.1152 0.6912,-0.0576 0.864,0.1152 1.8432,2.1888 3.8592,2.304 6.2784,0.9792 0.2304,-0.1152 0.6336,0 0.8064,0.2304 1.6128,2.4192 3.6288,2.6496 6.048,1.6128 0.288,-0.1152 0.6912,0.0576 0.8064,0.288 1.0368,2.016 2.5344,2.7648 4.3776,2.6496 l 0.1152,1.2096 c -2.1312,0.1728 -4.0896,-0.6336 -5.3568,-2.8224 -2.592,0.9792 -4.9536,0.5184 -6.6816,-1.7856 -2.592,1.2096 -4.9536,0.9792 -6.9696,-1.152 -2.4768,1.5552 -4.8384,1.5552 -7.0848,-0.3456 -2.2464,1.9008 -4.608,1.9008 -7.0272,0.3456 -2.016,2.1312 -4.4352,2.3616 -6.9696,1.152 -1.7856,2.304 -4.1472,2.7648 -6.7968,1.7856 -1.2672,2.1888 -3.168,2.9952 -5.3568,2.8224 l 0.1152,-1.2096 z"
     id="path393"
     style="fill:#57175e" /><path
     d="m 311.30952,250.84798 c 0.1728,-0.0576 0.288,-0.0576 0.4032,-0.0576 0.1728,0 0.288,0 0.4032,0.0576 v -1.5552 h 1.4976 v -0.5184 h -1.4976 v -1.9008 h -0.8064 v 1.9008 h -1.4976 v 0.5184 h 1.4976 v 1.5552 z"
     id="path395"
     style="fill:#57175e" /><path
     d="m 344.83272,270.77758 c 0,-0.4608 -0.4032,-0.8064 -0.864,-0.8064 -0.4032,0 -0.8064,0.3456 -0.8064,0.8064 0,0.4608 0.4032,0.8064 0.8064,0.8064 0.4608,0 0.864,-0.3456 0.864,-0.8064 z"
     id="path397"
     style="fill:#57175e" /><path
     d="m 345.06312,268.24318 c 0,-0.4608 -0.3456,-0.8064 -0.8064,-0.8064 -0.4032,0 -0.8064,0.3456 -0.8064,0.8064 0,0.4032 0.4032,0.8064 0.8064,0.8064 0.4608,0 0.8064,-0.4032 0.8064,-0.8064 z"
     id="path399"
     style="fill:#57175e" /><path
     d="m 344.42952,265.59358 c 0,-0.4032 -0.3456,-0.8064 -0.8064,-0.8064 -0.4032,0 -0.8064,0.4032 -0.8064,0.8064 0,0.4608 0.4032,0.864 0.8064,0.864 0.4608,0 0.8064,-0.4032 0.8064,-0.864 z"
     id="path401"
     style="fill:#57175e" /><path
     d="m 343.10472,263.34718 c 0,-0.4608 -0.3456,-0.8064 -0.8064,-0.8064 -0.4608,0 -0.8064,0.3456 -0.8064,0.8064 0,0.4608 0.3456,0.8064 0.8064,0.8064 0.4608,0 0.8064,-0.3456 0.8064,-0.8064 z"
     id="path403"
     style="fill:#57175e" /><path
     d="m 340.91592,261.61918 c 0,-0.4608 -0.3456,-0.864 -0.8064,-0.864 -0.4608,0 -0.8064,0.4032 -0.8064,0.864 0,0.4032 0.3456,0.8064 0.8064,0.8064 0.4608,0 0.8064,-0.4032 0.8064,-0.8064 z"
     id="path405"
     style="fill:#57175e" /><path
     d="m 338.32392,259.94878 c 0,-0.4032 -0.3456,-0.8064 -0.8064,-0.8064 -0.4608,0 -0.8064,0.4032 -0.8064,0.8064 0,0.4608 0.3456,0.864 0.8064,0.864 0.4608,0 0.8064,-0.4032 0.8064,-0.864 z"
     id="path407"
     style="fill:#57175e" /><path
     d="m 335.55912,259.25758 c 0,-0.4608 -0.3456,-0.8064 -0.8064,-0.8064 -0.4608,0 -0.8064,0.3456 -0.8064,0.8064 0,0.4608 0.3456,0.8064 0.8064,0.8064 0.4608,0 0.8064,-0.3456 0.8064,-0.8064 z"
     id="path409"
     style="fill:#57175e" /><path
     d="m 328.18632,260.63998 c 0,-0.4032 -0.288,-0.6912 -0.6912,-0.6912 -0.4032,0 -0.6912,0.288 -0.6912,0.6912 0,0.4032 0.288,0.6912 0.6912,0.6912 0.4032,0 0.6912,-0.288 0.6912,-0.6912 z"
     id="path411"
     style="fill:#57175e" /><path
     d="m 329.22312,263.17438 c 0,-0.4032 -0.288,-0.6912 -0.6912,-0.6912 -0.3456,0 -0.6912,0.288 -0.6912,0.6912 0,0.4032 0.3456,0.6912 0.6912,0.6912 0.4032,0 0.6912,-0.288 0.6912,-0.6912 z"
     id="path413"
     style="fill:#57175e" /><path
     d="m 329.22312,265.99678 c 0,-0.4032 -0.288,-0.6912 -0.6912,-0.6912 -0.3456,0 -0.6912,0.288 -0.6912,0.6912 0,0.4032 0.3456,0.6912 0.6912,0.6912 0.4032,0 0.6912,-0.288 0.6912,-0.6912 z"
     id="path415"
     style="fill:#57175e" /><path
     d="m 343.39272,275.67358 c 0,-0.4608 -0.4032,-0.864 -0.8064,-0.864 -0.4608,0 -0.864,0.4032 -0.864,0.864 0,0.4032 0.4032,0.8064 0.864,0.8064 0.4032,0 0.8064,-0.4032 0.8064,-0.8064 z"
     id="path417"
     style="fill:#57175e" /><path
     d="m 317.01192,254.24638 c 0,-0.288 -0.2304,-0.576 -0.576,-0.576 -0.3456,0 -0.576,0.288 -0.576,0.576 0,0.3456 0.2304,0.576 0.576,0.576 0.3456,0 0.576,-0.2304 0.576,-0.576 z"
     id="path419"
     style="fill:#57175e" /><path
     d="m 325.42152,256.95358 c 0,-0.3456 -0.288,-0.6912 -0.6912,-0.6912 -0.4032,0 -0.6912,0.3456 -0.6912,0.6912 0,0.4032 0.288,0.7488 0.6912,0.7488 0.4032,0 0.6912,-0.3456 0.6912,-0.7488 z"
     id="path421"
     style="fill:#57175e" /><path
     d="m 321.38952,255.39838 c 0,-0.3456 -0.288,-0.576 -0.6336,-0.576 -0.288,0 -0.576,0.2304 -0.576,0.576 0,0.288 0.288,0.576 0.576,0.576 0.3456,0 0.6336,-0.288 0.6336,-0.576 z"
     id="path423"
     style="fill:#57175e" /><path
     d="m 319.20072,254.82238 c 0,-0.3456 -0.288,-0.576 -0.576,-0.576 -0.3456,0 -0.6336,0.2304 -0.6336,0.576 0,0.3456 0.288,0.576 0.6336,0.576 0.288,0 0.576,-0.2304 0.576,-0.576 z"
     id="path425"
     style="fill:#57175e" /><path
     d="m 332.50632,258.50878 c 0,-0.4032 -0.3456,-0.8064 -0.8064,-0.8064 -0.4032,0 -0.7488,0.4032 -0.7488,0.8064 0,0.4608 0.3456,0.864 0.7488,0.864 0.4608,0 0.8064,-0.4032 0.8064,-0.864 z"
     id="path427"
     style="fill:#57175e" /><path
     d="m 329.74152,258.33598 c 0,-0.4032 -0.4032,-0.8064 -0.8064,-0.8064 -0.4608,0 -0.864,0.4032 -0.864,0.8064 0,0.4608 0.4032,0.864 0.864,0.864 0.4032,0 0.8064,-0.4032 0.8064,-0.864 z"
     id="path429"
     style="fill:#57175e" /><path
     d="m 323.52072,255.97438 c 0,-0.3456 -0.2304,-0.6336 -0.576,-0.6336 -0.3456,0 -0.576,0.288 -0.576,0.6336 0,0.288 0.2304,0.576 0.576,0.576 0.3456,0 0.576,-0.288 0.576,-0.576 z"
     id="path431"
     style="fill:#57175e" /><path
     d="m 316.66632,273.77278 c -0.0576,-0.288 -0.4608,-1.4976 -0.4608,-1.4976 0,0 0.4032,-0.6336 0.4032,-0.9216 -0.0576,-0.2304 -0.4608,-0.5184 -0.6336,-0.576 -0.2304,-0.1152 -1.728,0.4032 -1.9008,0.576 -0.1152,0.1728 0.6336,1.0944 0.576,1.3824 -0.1152,0.2304 -1.152,0.288 -1.152,0.5184 0,0.2304 0.6912,1.3248 0.9216,1.3824 0.2304,0.0576 1.0368,-0.3456 1.152,-0.4032 0.0576,0 1.2096,0 1.0944,-0.4608 z"
     id="path433"
     style="fill:#57175e" /><path
     d="m 334.63752,260.87038 c 0.1728,0.6336 5.8752,1.6704 6.5088,5.9328 0.6912,4.2048 -3.3984,6.2784 -3.3984,6.2784 0,0 -0.6336,0.4032 0,1.0944 0.6912,0.7488 2.1312,-0.2304 2.1312,-0.2304 0,0 3.5136,-2.0736 2.8224,-7.0272 -0.6336,-4.9536 -8.2368,-6.6816 -8.064,-6.048 z"
     id="path435"
     style="fill:#57175e" /><path
     d="m 333.94632,262.54078 c 0,0 3.9168,1.44 4.896,3.2832 0.9216,1.8432 -0.4608,5.472 -0.4608,5.472 0,0 -0.864,-0.6336 -1.44,-0.8064 -0.576,-0.1152 -1.3824,0.1152 -2.1888,0 -0.8064,-0.1728 -1.152,-2.0736 -1.152,-2.0736 0,0 0.5184,-2.8224 0.5184,-3.3984 0,-0.9216 -0.1728,-2.4768 -0.1728,-2.4768 z"
     id="path437"
     style="fill:#57175e" /><path
     d="m 336.25032,271.23838 c -0.288,-0.2304 -1.2096,0.2304 -1.7856,-0.1152 -0.576,-0.288 -1.152,-0.864 -1.152,-0.864 0,0 -0.1152,-0.1728 -0.6336,0.2304 -0.5184,0.3456 -1.152,1.0368 -1.3248,1.5552 -0.1152,0.5184 0.576,0 0.7488,0.4608 0.1728,0.4032 0,1.0944 0,1.0944 0,0 1.6704,1.2672 2.4192,1.3248 0.7488,0.0576 1.2672,-0.5184 1.728,-1.3248 0.4608,-0.8064 -0.1728,-0.6912 -0.288,-0.9792 -0.1728,-0.288 0.576,-1.152 0.288,-1.3824 z"
     id="path439"
     style="fill:#57175e" /><path
     d="m 343.45032,276.53758 c -0.288,0 -1.5552,0 -1.5552,0 0,0 -0.5184,-0.6336 -0.7488,-0.6912 -0.2304,0 -0.6336,0.2304 -0.8064,0.4608 -0.1152,0.1728 -0.1728,1.728 0,1.9008 0.1152,0.1728 1.2672,-0.2304 1.44,-0.0576 0.2304,0.1728 -0.0576,1.152 0.1728,1.2672 0.2304,0.0576 1.4976,-0.2304 1.6128,-0.4608 0.1152,-0.1728 0,-1.0944 0,-1.2096 0,-0.1152 0.3456,-1.152 -0.1152,-1.2096 z"
     id="path441"
     style="fill:#57175e" /><path
     d="m 336.13512,276.19198 c -0.0576,0.3456 -0.0576,1.5552 -0.0576,1.5552 0,0 -0.6336,0.5184 -0.6336,0.7488 -0.0576,0.288 0.1728,0.6336 0.4032,0.8064 0.1728,0.1152 1.728,0.1728 1.9008,0.0576 0.1728,-0.1728 -0.2304,-1.2672 0,-1.4976 0.1728,-0.1728 1.152,0.1152 1.2096,-0.1152 0.1152,-0.2304 -0.1728,-1.4976 -0.4032,-1.6128 -0.1728,-0.1152 -1.0944,0 -1.2096,0 -0.1152,0 -1.152,-0.4032 -1.2096,0.0576 z"
     id="path443"
     style="fill:#57175e" /><path
     d="m 316.66632,258.10558 c 0,0 4.32,1.5552 5.7024,3.744 1.44,2.1888 0.576,5.0688 0.576,5.0688 0,0 -2.1312,-0.2304 -2.7648,-0.3456 -0.576,-0.1728 -1.3248,0.1152 -2.1312,-0.0576 -0.864,-0.1152 -1.2096,-2.0736 -1.2096,-2.0736 0,0 0.1152,-2.3616 0.1152,-2.9376 0,-0.9216 -0.288,-3.3984 -0.288,-3.3984 z"
     id="path445"
     style="fill:#57175e" /><path
     d="m 316.55112,256.37758 c 0.576,0.6336 7.4304,3.5712 8.1216,6.9696 0.6336,3.3984 -2.7072,4.9536 -2.0736,5.8752 0.4608,0.576 4.4352,-0.7488 3.2832,-6.2784 -1.152,-5.5296 -9.9648,-7.2 -9.3312,-6.5664 z"
     id="path447"
     style="fill:#57175e" /><path
     d="m 322.08072,269.74078 c -0.0576,-0.4608 -0.576,-0.1152 -0.6912,-0.576 -0.1728,-0.5184 0.2304,-1.6128 0.1728,-1.8432 -0.1152,-0.1728 -1.7856,0.4608 -2.4768,0.3456 -0.6336,-0.1152 -0.5184,-0.576 -1.0944,-0.7488 -0.576,-0.1728 -1.8432,2.016 -1.5552,2.6496 0.3456,0.6336 1.44,1.7856 1.44,1.7856 0,0 1.728,0.6912 2.5344,0.3456 0.8064,-0.288 1.6704,-1.4976 1.6704,-1.9584 z"
     id="path449"
     style="fill:#57175e" /><path
     d="m 333.77352,264.55678 c 0.0576,3.8016 -1.44,6.624 -2.4768,6.048 -0.9216,-0.4608 1.44,-2.3616 1.3824,-5.5872 -0.1152,-3.6288 -2.3616,-5.7024 -1.728,-5.9328 0.5184,-0.2304 2.7648,2.3616 2.8224,5.472 z"
     id="path451"
     style="fill:#57175e" /><path
     d="m 315.28392,254.36158 c -0.2304,-0.1152 -0.4032,0.1152 -0.6336,0.8064 -0.288,0.9216 1.2096,5.7024 1.2096,7.3152 0,1.6128 -0.9792,4.608 -0.4608,5.5872 0.5184,0.9792 0.9792,-5.1264 1.0944,-6.2784 0.1152,-1.152 -1.152,-5.4144 -1.0368,-6.2784 0.1152,-0.864 0.0576,-1.0368 -0.1728,-1.152 z"
     id="path453"
     style="fill:#57175e" /><path
     d="m 313.72872,258.33598 c -0.288,0.6912 0.4608,0.6336 0.4032,4.3776 -0.0576,3.744 -0.5184,2.88 -0.3456,4.2048 0.2304,1.2672 1.3824,-3.5136 1.3824,-4.7232 0,-1.2672 -1.152,-4.5504 -1.44,-3.8592 z"
     id="path455"
     style="fill:#57175e" /><path
     d="m 344.25672,273.08158 c 0,-0.4608 -0.4032,-0.8064 -0.8064,-0.8064 -0.4608,0 -0.8064,0.3456 -0.8064,0.8064 0,0.4608 0.3456,0.8064 0.8064,0.8064 0.4032,0 0.8064,-0.3456 0.8064,-0.8064 z"
     id="path457"
     style="fill:#57175e" /><path
     d="m 327.09192,258.39358 c 0,-0.4032 -0.3456,-0.6912 -0.7488,-0.6912 -0.3456,0 -0.6912,0.288 -0.6912,0.6912 0,0.4032 0.3456,0.6912 0.6912,0.6912 0.4032,0 0.7488,-0.288 0.7488,-0.6912 z"
     id="path459"
     style="fill:#57175e" /><path
     d="m 319.77672,273.02398 c 0.0576,-0.4608 -0.288,-0.864 -0.6912,-0.9216 -0.4608,-0.0576 -0.864,0.288 -0.9216,0.7488 -0.0576,0.4032 0.288,0.8064 0.7488,0.864 0.4032,0.0576 0.8064,-0.288 0.864,-0.6912 z"
     id="path461"
     style="fill:#57175e" /><path
     d="m 327.20712,273.59998 c 0.0576,-0.4032 -0.2304,-0.864 -0.6336,-0.9792 -0.4608,-0.0576 -0.9216,0.2304 -0.9792,0.6336 -0.1152,0.4608 0.1728,0.864 0.6336,0.9792 0.4032,0.1152 0.864,-0.1728 0.9792,-0.6336 z"
     id="path463"
     style="fill:#57175e" /><path
     d="m 333.88872,276.19198 c 0.1152,-0.4608 -0.1152,-0.9216 -0.5184,-1.0368 -0.4608,-0.1728 -0.9216,0.0576 -1.0368,0.5184 -0.1152,0.4032 0.1152,0.864 0.5184,1.0368 0.4608,0.1152 0.864,-0.1152 1.0368,-0.5184 z"
     id="path465"
     style="fill:#57175e" /><path
     d="m 328.07112,268.81918 c -0.288,0.1152 -1.44,0.576 -1.44,0.576 0,0 -0.6912,-0.4032 -0.9216,-0.3456 -0.288,0.0576 -0.5184,0.4608 -0.576,0.6912 -0.0576,0.2304 0.5184,1.728 0.6912,1.8432 0.2304,0.1152 1.0944,-0.7488 1.3248,-0.6336 0.288,0.0576 0.4032,1.0944 0.6336,1.0944 0.2304,0 1.2672,-0.7488 1.3248,-0.9792 0.0576,-0.2304 -0.4608,-1.0368 -0.4608,-1.152 -0.0576,-0.0576 -0.1152,-1.2096 -0.576,-1.0944 z"
     id="path467"
     style="fill:#57175e" /><path
     d="m 324.67272,281.72158 c 4.0896,0.864 8.064,2.1312 11.808,3.8016 -0.0576,0.1152 -0.1152,0.2304 -0.1728,0.3456 l -3.9168,0.0576 2.5344,2.88 c -0.0576,0.1152 -0.0576,0.2304 -0.1152,0.3456 -14.688,-6.3936 -31.5072,-6.3936 -46.1952,0 -0.0576,-0.1152 -0.1152,-0.2304 -0.1728,-0.3456 l 2.5344,-2.88 -3.9168,-0.0576 c -0.0576,-0.1152 -0.1152,-0.2304 -0.1728,-0.3456 3.8016,-1.6704 7.776,-2.9376 11.9232,-3.8016 8.4672,-1.8432 17.3376,-1.8432 25.8624,0 z"
     id="path469"
     style="fill:#57175e" /><path
     d="m 330.72072,275.61598 c -0.0576,-0.3456 -0.3456,-1.4976 -0.3456,-1.4976 0,0 0.4608,-0.6912 0.4032,-0.9216 0,-0.2304 -0.3456,-0.576 -0.576,-0.6336 -0.1728,-0.1152 -1.728,0.288 -1.9008,0.4608 -0.1152,0.1728 0.576,1.152 0.4608,1.3824 -0.1152,0.2304 -1.152,0.2304 -1.152,0.4608 -0.0576,0.2304 0.576,1.3824 0.8064,1.44 0.2304,0.1152 1.0368,-0.288 1.152,-0.288 0.1152,-0.0576 1.2096,0.0576 1.152,-0.4032 z"
     id="path471"
     style="fill:#57175e" /><path
     d="m 321.73512,272.10238 c 0.1152,0.288 0.6336,1.44 0.6336,1.44 0,0 -0.3456,0.6912 -0.2304,0.9792 0.0576,0.2304 0.4608,0.4608 0.6912,0.5184 0.2304,0.0576 1.6704,-0.6336 1.7856,-0.864 0.0576,-0.1728 -0.8064,-0.9792 -0.6912,-1.2672 0.0576,-0.288 1.0368,-0.4608 1.0368,-0.6912 0,-0.2304 -0.864,-1.2096 -1.0944,-1.2672 -0.2304,0 -0.9792,0.5184 -1.0944,0.576 -0.0576,0 -1.2096,0.1728 -1.0368,0.576 z"
     id="path473"
     style="fill:#57175e" /><path
     d="m 339.59112,281.03038 c 0,-0.4608 -0.4032,-0.8064 -0.8064,-0.8064 -0.4608,0 -0.8064,0.3456 -0.8064,0.8064 0,0.4608 0.3456,0.8064 0.8064,0.8064 0.4032,0 0.8064,-0.3456 0.8064,-0.8064 z"
     id="path475"
     style="fill:#57175e" /><path
     d="m 298.34952,279.93598 c -4.4352,0.9216 -8.6976,2.3616 -12.7296,4.2048 -0.288,0.0576 -0.288,0.3456 -0.1728,0.576 0.1152,0.3456 0.4032,0.4032 0.6912,0.2304 3.9744,-1.7856 8.1216,-3.168 12.4992,-4.0896 8.5824,-1.8432 17.568,-1.8432 26.208,0 4.32,0.9216 8.4672,2.304 12.384,4.0896 0.3456,0.1728 0.576,0.1152 0.7488,-0.2304 0.1152,-0.2304 0.0576,-0.5184 -0.1728,-0.576 -4.0896,-1.8432 -8.2944,-3.2832 -12.7296,-4.2048 -8.7552,-1.9008 -17.9136,-1.9008 -26.7264,0 z"
     id="path477"
     style="fill:#57175e" /><path
     d="m 310.44552,253.49758 c 0,-0.6912 0.576,-1.3248 1.2672,-1.3248 0.7488,0 1.3248,0.6336 1.3248,1.3248 0,0.3456 -0.1728,0.6912 -0.4032,0.9216 0.1152,0.1152 0.2304,0.288 0.3456,0.4608 0.3456,-0.3456 0.576,-0.864 0.576,-1.3824 0,-1.0368 -0.8064,-1.8432 -1.8432,-1.8432 -0.9792,0 -1.8432,0.8064 -1.8432,1.8432 0,0.5184 0.2304,1.0368 0.6336,1.3824 0.0576,-0.1728 0.1728,-0.3456 0.288,-0.4608 -0.2304,-0.2304 -0.3456,-0.576 -0.3456,-0.9216 z"
     id="path479"
     style="fill:#57175e" /><path
     d="m 304.45512,282.70078 c 0,-0.6336 0.4608,-1.152 1.0944,-1.152 0.6336,0 1.152,0.5184 1.152,1.152 0,0.6336 -0.5184,1.0944 -1.152,1.0944 -0.6336,0 -1.0944,-0.4608 -1.0944,-1.0944 z"
     id="path481"
     style="fill:#a38d44" /><polygon
     points="282.096,463.336 287.064,465.568 282.096,467.872 277.2,465.568 "
     transform="matrix(0.79999999,0,0,0.79999999,86.035967,-90.099218)"
     id="polygon483"
     style="fill:#a38d44" /><polygon
     points="266.184,464.992 271.44,466.144 267.12,469.384 261.792,468.232 "
     transform="matrix(0.79999999,0,0,0.79999999,86.035967,-90.099218)"
     id="polygon485"
     style="fill:#a38d44" /><path
     d="m 292.30152,285.46558 c -0.1728,-0.576 0.2304,-1.2096 0.864,-1.3248 0.576,-0.1152 1.152,0.288 1.3248,0.864 0.1152,0.6336 -0.288,1.2096 -0.864,1.3248 -0.6336,0.1152 -1.2096,-0.2304 -1.3248,-0.864 z"
     id="path487"
     style="fill:#a38d44" /><path
     d="m 319.02792,282.70078 c 0,-0.6336 -0.5184,-1.152 -1.152,-1.152 -0.576,0 -1.0944,0.5184 -1.0944,1.152 0,0.6336 0.5184,1.0944 1.0944,1.0944 0.6336,0 1.152,-0.4608 1.152,-1.0944 z"
     id="path489"
     style="fill:#a38d44" /><polygon
     points="298.08,464.992 292.752,466.144 297.144,469.384 302.4,468.232 "
     transform="matrix(0.79999999,0,0,0.79999999,86.035967,-90.099218)"
     id="polygon491"
     style="fill:#a38d44" /><path
     d="m 331.18152,285.46558 c 0.1152,-0.576 -0.288,-1.2096 -0.864,-1.3248 -0.6336,-0.1152 -1.2096,0.288 -1.3248,0.864 -0.1152,0.6336 0.2304,1.2096 0.864,1.3248 0.576,0.1152 1.2096,-0.2304 1.3248,-0.864 z"
     id="path493"
     style="fill:#a38d44" /><circle
     cx="274.392"
     cy="466"
     r="0.648"
     transform="matrix(0.79999999,0,0,0.79999999,86.035967,-90.099218)"
     id="circle495"
     style="fill:#57175e" /><polygon
     points="282.096,467.296 285.768,465.568 282.096,463.912 278.496,465.568 "
     transform="matrix(0.79999999,0,0,0.79999999,86.035967,-90.099218)"
     id="polygon497"
     style="fill:#57175e" /><polygon
     points="266.976,468.808 270.216,466.432 266.328,465.568 263.088,467.944 "
     transform="matrix(0.79999999,0,0,0.79999999,86.035967,-90.099218)"
     id="polygon499"
     style="fill:#57175e" /><path
     d="m 292.87752,285.35038 c -0.0576,-0.288 0.1152,-0.5184 0.4032,-0.576 0.288,-0.0576 0.5184,0.1152 0.576,0.3456 0.0576,0.288 -0.1152,0.576 -0.4032,0.6336 -0.2304,0.0576 -0.5184,-0.1152 -0.576,-0.4032 z"
     id="path501"
     style="fill:#57175e" /><path
     d="m 318.39432,282.70078 c 0,-0.288 -0.2304,-0.5184 -0.5184,-0.5184 -0.288,0 -0.4608,0.2304 -0.4608,0.5184 0,0.288 0.1728,0.5184 0.4608,0.5184 0.288,0 0.5184,-0.2304 0.5184,-0.5184 z"
     id="path503"
     style="fill:#57175e" /><polygon
     points="297.216,468.808 293.976,466.432 297.936,465.568 301.176,467.944 "
     transform="matrix(0.79999999,0,0,0.79999999,86.035967,-90.099218)"
     id="polygon505"
     style="fill:#57175e" /><path
     d="m 330.54792,285.35038 c 0.0576,-0.288 -0.1152,-0.5184 -0.3456,-0.576 -0.288,-0.0576 -0.576,0.1152 -0.6336,0.3456 -0.0576,0.288 0.1152,0.576 0.4032,0.6336 0.288,0.0576 0.5184,-0.1152 0.576,-0.4032 z"
     id="path507"
     style="fill:#57175e" /><path
     d="m 193.69037,314.55358 c 2.93759,0 5.3568,2.4192 5.3568,5.3568 0,2.9376 -2.41921,5.3568 -5.3568,5.3568 -2.9376,0 -5.2992,-2.4192 -5.2992,-5.3568 0,-2.9376 2.3616,-5.3568 5.2992,-5.3568 l 0,0 z m 0,2.4192 c -1.6128,0 -2.9376,1.3248 -2.9376,2.9376 0,1.6704 1.3248,2.9952 2.9376,2.9952 1.6704,0 2.99519,-1.3248 2.99519,-2.9952 0,-1.6128 -1.32479,-2.9376 -2.99519,-2.9376 z"
     id="path509"
     style="fill:#a38d44" /><path
     d="m 205.55596,335.86558 c 1.4976,0 2.8224,0.576 3.74399,1.5552 l 0,0 0,0 0,0 c 0.9792,0.9792 1.5552,2.304 1.5552,3.744 0,2.9376 -2.36159,5.2992 -5.29919,5.2992 -1.44,0 -2.76479,-0.576 -3.74399,-1.5552 l 0,0 0,0 0,0 c -0.9792,-0.9216 -1.5552,-2.304 -1.5552,-3.744 0,-2.9376 2.3616,-5.2992 5.29919,-5.2992 l 0,0 z m 0,2.3616 c -1.6128,0 -2.93759,1.3248 -2.93759,2.9376 0,0.8064 0.3456,1.5552 0.86399,2.0736 l 0,0 c 0.5184,0.576 1.2672,0.864 2.0736,0.864 1.6128,0 2.9376,-1.3248 2.9376,-2.9376 0,-0.8064 -0.288,-1.5552 -0.864,-2.0736 l 0,0 c -0.5184,-0.5184 -1.2672,-0.864 -2.0736,-0.864 z"
     id="path511"
     style="fill:#a38d44" /></svg>