<?xml version="1.0" encoding="UTF-8" standalone="no"?>
<!-- Created with Inkscape (http://www.inkscape.org/) -->

<svg
   xmlns:dc="http://purl.org/dc/elements/1.1/"
   xmlns:cc="http://creativecommons.org/ns#"
   xmlns:rdf="http://www.w3.org/1999/02/22-rdf-syntax-ns#"
   xmlns:svg="http://www.w3.org/2000/svg"
   xmlns="http://www.w3.org/2000/svg"
   version="1.1"
   width="280"
   height="200"
   viewBox="0 0 280 618.75"
   id="Capa_1"
   xml:space="preserve"><metadata
     id="metadata69"><rdf:RDF><cc:Work
         rdf:about=""><dc:format>image/svg+xml</dc:format><dc:type
           rdf:resource="http://purl.org/dc/dcmitype/StillImage" /><dc:title></dc:title></cc:Work></rdf:RDF></metadata><defs
     id="defs67" /><path
     d="M 155.67063,616.40446 C 117.6321,584.50349 87.01903,553.54685 50.653988,501.73288 -0.585571,428.11897 -42.18862,345.66785 -59.77291,236.08806 c -7.0407,-47.0474 -10.16606,-92.28044 -9.59894,-137.193307 -0.0495,-2.69719 1.15002,-3.75737 3.36165,-3.75737 l 128.336656,0 C 62.74609,42.24743 111.02866,0.30412177 159.64647,0.00162177 208.68111,-0.30347223 256.26006,42.477421 256.26006,95.154713 l 128.70301,0 c 2.33242,0 3.70167,1.3408 3.70167,3.59083 0.56616,44.912867 -2.73264,90.219697 -9.62812,137.287797 -13.82082,94.0615 -56.06201,189.50314 -110.2494,265.50331 -38.95501,54.7656 -68.97557,84.20801 -105.11529,114.99993 -4.20191,2.97288 -4.22369,2.97288 -8.0013,-0.13212 z"
     id="path5" /><path
     d="m 65.01666,94.284583 c 0,2.4345 -0.874789,3.3856 -3.243301,3.3856 l -128.703489,0 c -0.1725,43.808517 2.31859,90.101057 9.18711,135.452437 15.1139,98.75944 55.301061,189.54732 113.263656,271.16121 30.054344,42.17957 64.917354,80.67175 104.074554,112.13448 39.15716,-31.46273 74.02017,-69.95491 104.07454,-112.13448 57.96257,-81.61389 98.1497,-172.40177 113.26362,-271.16121 6.8695,-45.35138 9.35957,-91.64392 9.1881,-135.452437 l -129.47047,0 c -1.86272,0 -3.03646,-1.29773 -3.03646,-3.59172 0,-48.007577 -43.22354,-91.5954212 -93.45814,-91.5954212 -50.23465,0 -95.13972,43.7929712 -95.13972,91.8015412 z"
     id="path7"
     style="fill:#febb13" /><path
     d="M 147.06448,122.01017 H 89.20486 l 0,0 H -42.73847 c 0.41375,34.26839 2.56657,68.70305 7.20188,102.64082 H 76.043301 l 71.021179,-65.22585 v -37.41497 z"
     id="path9" /><path
     d="m 354.3317,224.65099 c 4.63531,-33.93777 6.78813,-68.37147 7.20188,-102.64082 H 253.01525 l 0,0 h -81.2836 v 37.41402 l 71.02114,65.22585 H 354.3317 z"
     id="path11" /><path
     d="m 332.56268,319.92463 c 7.44936,-22.92904 13.49217,-46.52027 17.79686,-70.52429 H 233.14965 L 159.39759,181.60791 85.64453,249.40034 H -31.56348 c 4.30374,24.00402 10.34655,47.59525 17.79688,70.52429 h 346.32928 z"
     id="path13" /><path
     d="m 159.39759,585.87996 c 32.94398,-28.22654 62.08115,-61.33586 87.1611,-96.76332 31.86809,-44.86433 58.19024,-93.28708 77.39461,-144.35953 H -5.15816 c 19.203412,51.07149 45.526522,99.4952 77.393651,144.35953 25.080909,35.42746 54.218079,68.53678 87.162099,96.76332 z"
     id="path15" /><path
     d="M 142.18074,126.89391 H 94.0886 l 0,0 H -37.77255 c 0.24844,15.31438 0.91063,30.70998 1.90438,46.18871 1.07594,15.80935 2.64875,31.37216 4.63531,46.68463 H 74.139875 l 68.040865,-62.49493 v -30.37841 z"
     id="path17"
     style="fill:#ffffff" /><path
     d="m 350.02798,219.76725 c 1.98656,-15.31247 3.55937,-30.87528 4.6353,-46.68463 0.99376,-15.47873 1.65499,-30.87528 1.90439,-46.18871 H 253.01526 l 0,0 h -76.40083 v 30.37841 l 68.04084,62.49493 h 105.37271 z"
     id="path19"
     style="fill:#ffffff" /><path
     d="m 329.00331,315.04185 c 3.31093,-10.26437 6.29125,-20.69405 8.93904,-31.37217 2.48343,-9.76749 4.6353,-19.53498 6.53969,-29.30247 H 231.3284 L 159.39759,188.22978 87.46578,254.36721 H -25.68693 c 1.90439,9.76749 4.05625,19.53403 6.53969,29.30247 2.64875,10.67812 5.62908,21.1078 8.93906,31.37217 h 339.21149 z"
     id="path21"
     style="fill:#00579e" /><path
     d="M 15.038054,187.40228 V 139.97234 H -8.47005 v 48.00995 c 0,3.80782 2.235001,7.03657 7.118749,10.34751 7.118744,4.38686 18.541223,6.53873 34.351523,6.53873 26.735901,0 39.814324,-6.04281 39.814324,-18.54122 V 139.39328 H 48.809568 v 46.93403 c 0,7.03465 -5.4628,10.92655 -15.809346,10.92655 -12.002489,-9.5e-4 -17.962168,-3.31189 -17.962168,-9.85158 z"
     id="path23"
     style="fill:#e10e18" /><path
     d="m 310.29583,171.01293 c 0,-14.15436 -8.19468,-21.76998 -24.00402,-23.42497 l -16.88624,-0.57905 v 48.58901 l 17.96217,-1.07594 c 13.90592,-2.31908 22.92809,-7.20187 22.92809,-23.50905 l 0,0 z m 22.92809,0.58001 c 0,26.65372 -32.61245,31.6206 -52.39587,31.6206 h -34.8484 V 138.8964 h 32.11652 c 36.58653,0 55.12775,10.84343 55.12775,32.69654 z"
     id="path25"
     style="fill:#e10e18" /><path
     d="m 159.39759,27.068099 c 38.65618,0 70.19269,31.702777 70.19269,70.358994 H 89.20486 c 0,-38.656217 31.53747,-70.358994 70.19273,-70.358994 z"
     id="path27" /><path
     d="m 159.39759,92.210813 c 12.08466,0 22.01744,-9.932792 22.01744,-22.100589 0,-12.167797 -9.93373,-22.09964 -22.01744,-22.09964 -12.08467,0 -22.01842,9.932798 -22.01842,22.09964 0,12.168752 9.93375,22.100589 22.01842,22.100589 z"
     id="path29"
     style="fill:#febb13" /><path
     d="m 159.39759,31.951844 c 34.35149,0 62.6602,26.819032 65.06051,60.590539 h -49.99553 c 7.11872,-4.88279 11.91932,-13.078416 11.91932,-22.432159 0,-14.816544 -12.16776,-26.984341 -26.9843,-26.984341 -14.81655,0 -26.98434,12.167797 -26.98434,26.984341 0,9.354698 4.80061,17.549369 11.92031,22.432159 H 94.33704 c 2.40031,-33.771507 30.70807,-60.590539 65.06055,-60.590539 z"
     id="path31"
     style="fill:#ffffff" /><rect
     width="11.423434"
     height="45.774956"
     x="255.66498"
     y="261.0722"
     id="rect33"
     style="fill:#ffffff" /><polygon
     points="229.306,412.754 193.355,412.754 193.355,364.763 205.31,364.763 205.31,407.037 229.306,407.037 "
     transform="matrix(0.95553613,0,0,0.95553613,-133.54688,-86.976094)"
     id="polygon35"
     style="fill:#ffffff" /><polygon
     points="315.412,391.618 315.412,406.431 337.068,406.431 337.068,412.754 303.458,412.754 303.458,364.763 337.068,364.763 337.068,371.087 315.412,371.087 315.412,384.774 334.816,384.774 334.816,391.618 "
     transform="matrix(0.95553613,0,0,0.95553613,-133.54688,-86.976094)"
     id="polygon37"
     style="fill:#ffffff" /><polygon
     points="249.229,412.754 237.275,412.754 237.275,364.763 249.229,364.763 262.743,381.916 276.083,364.763 288.038,364.763 288.038,412.754 276.083,412.754 276.083,377.931 263.523,393.87 261.271,393.87 249.229,378.45 "
     transform="matrix(0.95553613,0,0,0.95553613,-133.54688,-86.976094)"
     id="polygon39"
     style="fill:#ffffff" /><path
     d="m 228.34809,274.64656 c 0,-6.62187 -5.79341,-7.03562 -10.92655,-7.03562 v 14.15436 c 5.13314,9.5e-4 10.92655,0.16531 10.92655,-7.11874 l 0,0 z m -7.03465,13.07842 h -3.89095 v 19.70029 h -10.92655 v -45.85714 h 10.92655 c 5.79438,0 14.31967,0.66219 19.20437,4.47 2.97936,2.48344 4.80061,6.95248 3.80781,10.76029 -1.07593,4.13939 -5.04905,6.87031 -9.35374,8.27781 8.60842,2.40031 13.49312,14.4028 15.31342,22.34904 h -12.00153 c -2.4844,-5.4628 -6.70596,-18.37592 -13.07938,-19.70029 z"
     id="path41"
     style="fill:#ffffff" /><path
     d="m 299.78398,273.0747 -6.53969,18.54122 h 13.07842 l -6.53873,-18.54122 0,0 z m -23.42593,34.84745 17.46529,-46.35402 h 12.49841 l 16.96937,46.35402 h -11.50657 l -3.2278,-10.34655 h -16.96841 l -3.80781,10.34655 h -11.42248 z"
     id="path43"
     style="fill:#ffffff" /><path
     d="m 19.011174,273.0747 6.539689,18.54122 H 12.471484 l 6.53969,-18.54122 0,0 z M 42.437097,307.92215 24.971808,261.56813 H 12.47244 L -4.495971,307.92215 H 7.00964 l 3.228756,-10.34655 h 16.968411 l 3.807811,10.34655 h 11.422479 z"
     id="path45"
     style="fill:#ffffff" /><path
     d="m 159.39759,378.86019 c -15.23029,0 -29.05404,6.20908 -39.06997,16.30623 -2.98031,2.98031 -4.46999,8.52625 -2.15186,12.41623 1.48968,2.40126 3.2278,4.63626 5.21436,6.62282 4.13938,4.0553 8.44311,0.91063 11.09186,-2.89814 12.00249,-17.54746 26.90217,-25.82527 46.18869,-28.1434 -6.53872,-2.73093 -13.74059,-4.30374 -21.27308,-4.30374 l 0,0 z m -47.34682,26.81903 c 3.14563,7.20188 8.19468,12.74686 14.5681,16.96937 6.53874,4.30374 14.56811,7.11875 23.5081,8.6906 5.79342,0.99472 5.87655,1.40751 6.70405,8.36094 0.49687,3.55938 0.16626,7.03562 -0.16436,10.67812 0.0822,5.54593 -5.13218,8.27685 -9.18843,7.11874 -23.42497,-4.46999 -35.59277,-14.9828 -42.54525,-32.53122 1.15811,-6.95344 3.64155,-13.41 7.11779,-19.28655 l 0,0 z m -7.86406,29.63309 c 0.4147,19.03906 10.51185,35.67685 25.49466,45.36121 5.95968,3.80781 12.58154,4.80062 17.71373,-2.06969 1.90438,-2.56657 3.56032,-5.21532 4.88374,-8.02937 2.64875,-5.79341 -1.90343,-7.61467 -6.29029,-8.35998 -21.43937,-3.89095 -33.8556,-12.41624 -41.80184,-26.90217 l 0,0 z m 40.97339,52.23056 c 7.36718,-7.11874 12.00249,-15.31246 14.23749,-24.17028 2.31717,-8.19468 3.2278,-16.71998 1.98656,-24.99779 -0.91063,-5.87654 -0.74532,-7.61562 3.14562,-12.49936 2.64875,-3.39407 6.29125,-6.12499 9.68436,-8.60843 3.72467,-3.14562 7.94621,-0.24844 9.4359,3.64251 9.60121,23.6734 2.64873,44.86337 -11.25715,66.96492 -4.13939,0.99376 -8.5253,1.49064 -12.99529,1.49064 -4.88375,0 -9.68532,-0.66314 -14.23749,-1.82221 l 0,0 z m 35.34526,-2.31717 c 12.9131,-22.59748 17.71276,-43.87058 8.0284,-66.63336 -1.73716,-4.22156 -2.64874,-9.35374 3.14563,-10.84342 2.73092,-0.74532 5.6281,-1.15907 8.52433,-1.15907 6.20908,-0.33061 8.77469,2.64875 10.76125,7.69876 2.31813,6.20811 3.64251,12.82998 3.64251,19.86559 9.5e-4,22.92809 -14.15436,42.71151 -34.10211,51.0715 l 0,0 z m 23.92183,-83.02272 c -7.78093,-0.74531 -15.06498,0.82845 -21.85214,4.13843 -7.36716,3.47624 -14.3206,9.02313 -20.11402,16.14092 -2.815,3.31093 -4.38782,5.29749 -9.35469,4.63626 -4.55218,-0.66219 -8.85687,-1.65595 -12.74686,-2.98032 -4.63626,-1.57281 -4.55313,-6.705 -2.15282,-10.09906 12.66468,-18.62435 28.55715,-25.90841 50.24493,-26.90121 6.20811,3.88999 11.67091,9.02313 15.9756,15.06498 z"
     id="path47"
     style="fill:#b96817;fill-opacity:1" /><path
     d="M 87.63204,349.64085 H 39.706175 v 79.4643 c 11.174995,19.61716 23.342792,38.65621 36.50339,57.19744 3.72468,5.21531 7.532495,10.42967 11.423435,15.56186 v -152.2236 z"
     id="path49"
     style="fill:#e10e18" /><path
     d="m 231.1631,501.86349 c 3.88999,-5.13218 7.6978,-10.34654 11.42248,-15.56186 13.1606,-18.54122 25.3284,-37.58028 36.50435,-57.19744 V 349.6399 H 231.1631 v 152.22359 z"
     id="path51"
     style="fill:#e10e18" /><path
     d="m 183.31846,379.27489 v -29.63404 h -47.84272 v 29.63404 c 7.36623,-3.22875 15.47873,-5.05 23.92185,-5.05 8.44311,0 16.55466,1.82125 23.92087,5.05 z"
     id="path53"
     style="fill:#e10e18" /><path
     d="m 159.39759,579.4234 c 8.19467,-7.20092 16.14091,-14.65123 23.92087,-22.43121 v -67.95868 c -7.36621,3.22875 -15.47871,4.96687 -23.92087,4.96687 -8.44312,0 -16.55562,-1.73812 -23.92185,-4.96687 v 67.95868 c 7.78093,7.77998 15.72717,15.23029 23.92185,22.43121 z"
     id="path55"
     style="fill:#e10e18" /><path
     d="M 39.705219,349.64085 H 1.959631 c 8.774689,22.68061 19.038102,44.86434 30.626844,66.38588 2.318131,4.38686 4.718438,8.69155 7.118744,13.07842 v -79.4643 z"
     id="path57"
     style="fill:#ffffff" /><path
     d="m 135.47574,349.64085 h -47.8437 v 152.22264 c 9.43592,12.49937 19.45185,24.58404 29.96466,36.25591 5.79342,6.4556 11.75405,12.74685 17.87904,18.87279 V 489.03351 C 114.3689,479.7629 99.5514,458.57293 99.5514,434.1542 c 0,-24.5009 14.8175,-45.60869 35.92434,-54.87931 v -29.63404 z"
     id="path59"
     style="fill:#ffffff" /><path
     d="m 279.08993,429.10419 c 2.40031,-4.38686 4.80061,-8.69155 7.11874,-13.07842 11.58875,-21.52058 21.85312,-43.70527 30.62685,-66.38587 h -37.74463 v 79.46429 z"
     id="path61"
     style="fill:#ffffff" /><path
     d="m 183.31846,556.99219 c 6.12594,-6.12594 12.08562,-12.41719 17.87999,-18.87279 10.51281,-11.67187 20.52778,-23.75654 29.96465,-36.25591 V 349.64085 h -47.84464 v 29.63404 c 21.10779,9.27062 35.92529,30.37841 35.92529,54.87931 0,24.41873 -14.81655,45.6087 -35.92529,54.87931 v 67.95868 z"
     id="path63"
     style="fill:#ffffff" /></svg>