<?xml version="1.0" encoding="UTF-8" standalone="no"?>
<!-- Created with Inkscape (http://www.inkscape.org/) -->

<svg
   xmlns:dc="http://purl.org/dc/elements/1.1/"
   xmlns:cc="http://creativecommons.org/ns#"
   xmlns:rdf="http://www.w3.org/1999/02/22-rdf-syntax-ns#"
   xmlns:svg="http://www.w3.org/2000/svg"
   xmlns="http://www.w3.org/2000/svg"
   version="1.1"
   width="280"
   height="200"
   viewBox="0 0 279.99999 199.99999"
   id="Layer_1"
   xml:space="preserve"><metadata
     id="metadata25"><rdf:RDF><cc:Work
         rdf:about=""><dc:format>image/svg+xml</dc:format><dc:type
           rdf:resource="http://purl.org/dc/dcmitype/StillImage" /><dc:title></dc:title></cc:Work></rdf:RDF></metadata><defs
     id="defs23" /><g
     transform="matrix(0.36015465,0,0,0.36015465,56.974762,-2.3914378)"
     id="g3"><path
       d="M 407.222,126.465 C 377.127,74.605 343.168,46.73 319.981,32.47 310.812,26.823 303.917,23.576 300.604,22.013 l -1.261,-0.604 c -2.716,-1.362 -5.413,-2.046 -8.002,-2.046 -4.916,0 -8.485,2.428 -10.356,4.89 -7.224,8.216 -14.199,12.556 -20.189,12.556 -3.448,0 -6.211,-1.429 -8.076,-2.824 1.107,-3.058 2.435,-7.217 3.26,-11.469 0.959,-5.554 -0.865,-9.129 -2.569,-11.154 C 249.434,6.64 243.297,6.64 240.674,6.64 c -3.837,0 -7.505,2.274 -10.467,4.916 L 226.956,11 c -0.845,-0.148 -1.704,-0.148 -2.549,0 l -3.25,0.557 c -2.961,-2.643 -6.627,-4.916 -10.463,-4.916 -2.68,0 -8.951,0 -12.918,4.836 -1.687,2.059 -3.464,5.674 -2.364,11.188 0.808,4.165 2.073,8.27 3.115,11.288 -1.848,1.409 -4.591,2.857 -8.025,2.857 -5.959,0 -12.932,-4.36 -20.169,-12.61 -1.895,-2.415 -5.51,-4.836 -10.4,-4.836 -2.612,0 -5.305,0.698 -7.928,2.052 l -1.365,0.637 c -3.092,1.435 -9.524,4.42 -17.798,9.578 C 109.176,45.971 74.576,74.068 44.159,126.444 19.54,168.552 14.144,209.56 13.953,236.603 l 0.003,5.782 c 0.208,13.871 1.486,24.642 2.529,31.296 11.07,66.972 39.539,131.998 84.591,193.221 0.687,0.952 73.924,95.055 124.603,95.055 54.821,0 121.78,-91.158 124.576,-95.008 44.918,-61.036 73.323,-126.062 84.397,-193.107 1.576,-8.404 2.582,-19.867 2.757,-31.571 v -5.775 C 437.023,209.4 431.476,168.311 407.222,126.465 z"
       id="path5"
       style="fill:#ffffff" /><path
       d="m 226.809,550.687 c 38.51,1.511 111.869,-79.568 151.024,-154.04 31.147,-59.238 41.504,-99.225 43.043,-166.128 L 29.72,229.757 c 2.898,75.969 16.806,121.766 56.635,186.519 39.719,64.582 85.323,129.122 140.454,134.411"
       id="path7"
       style="fill:#ffdf1c" /><path
       d="m 225.686,554.44 c -42.171,0 -108.394,-77.968 -118.524,-91.938 C 43.35,375.784 28.562,300.626 23.899,272.459 22.889,265.975 21.667,255.44 21.468,242.273 V 236.6 c 0.199,-27.96 6.078,-66.855 29.176,-106.361 30.591,-52.679 65.028,-79.417 86.093,-92.185 9.732,-6.078 16.621,-8.915 18.64,-9.925 6.291,-3.242 9.121,0.81 9.121,0.81 26.134,29.98 42.748,6.882 42.748,6.882 0,0 -3.043,-7.287 -4.45,-14.581 -1.422,-7.095 5.055,-7.095 7.898,-7.095 3.036,0 7.905,5.481 7.905,5.481 l 7.088,-1.223 7.088,1.223 c 0,0 4.863,-5.481 7.905,-5.481 2.837,0 9.121,0 7.898,7.095 -1.415,7.294 -4.663,14.581 -4.663,14.581 0,0 16.82,23.098 42.961,-6.882 0,0 2.63,-4.052 9.107,-0.81 2.026,1.01 9.526,4.251 20.062,10.735 21.072,12.974 54.698,39.712 84.678,91.374 22.898,39.506 28.771,78.201 29.176,106.361 v 5.673 c -0.199,13.166 -1.415,23.702 -2.63,30.186 -4.656,28.166 -19.245,103.325 -83.064,190.043 -9.726,13.367 -70.647,91.939 -118.519,91.939 M 316.044,58.523 c -5.268,-7.5 -11.951,-15.399 -20.261,-23.304 l -0.811,1.621 c 0,0 10.536,10.536 21.072,26.339 10.735,16.01 21.271,37.274 20.866,58.551 0,10e-4 3.441,-28.365 -20.866,-63.207 M 136.737,63.18 C 147.28,47.376 157.815,36.841 157.815,36.841 l -1.017,-1.621 c -8.304,7.905 -14.787,15.804 -20.062,23.304 -24.506,34.842 -21.065,63.208 -21.065,63.208 -0.404,-21.279 10.331,-42.543 21.066,-58.552 M 417.749,233.359 H 377.632 V 389.597 C 410.365,320.009 422.22,253.593 417.749,233.359 M 49.421,190.406 h 352.523 c -3.448,-6.484 -7.301,-12.96 -11.545,-19.65 -30.392,-45.989 -56.525,-39.3 -56.525,-39.3 -5.879,-4.258 -11.758,-6.889 -17.83,-8.311 -26.539,-5.872 -52.679,13.984 -55.309,40.522 0,0 3.64,4.863 0.398,7.699 -3.235,2.63 -4.451,0.405 -4.451,0.405 l -8.709,-8.716 c -15.199,0 -22.493,18.846 -22.493,18.846 0,0 -6.882,-18.846 -22.287,-18.846 l -8.503,8.716 c 0,0 -1.422,2.225 -4.457,-0.405 -3.249,-2.837 0.398,-7.699 0.398,-7.699 -2.624,-26.14 -27.954,-45.79 -53.895,-40.721 -6.484,1.209 -12.96,4.045 -19.238,8.51 0,0 -26.339,-6.69 -56.525,39.3 -4.457,6.69 -8.104,13.372 -11.552,19.65 M 76.173,393.271 V 233.359 h -42.15 c -6.23,40.33 13.551,102.343 42.15,159.912 m 86.1,115.187 V 233.359 H 119.12 v 228.443 c 13.455,17.233 28.228,33.304 43.153,46.656 m 86.106,30.096 V 385.661 c 20.728,-8.688 35.371,-29.245 35.371,-53.228 0,-24.148 -14.643,-44.739 -35.371,-53.435 v -45.639 h -43.16 v 45.179 c -21.422,8.42 -36.58,29.313 -36.58,53.895 0,24.416 15.151,45.275 36.58,53.689 v 152.103 c 6.985,3.228 13.695,5.398 20.041,6.326 7.054,-0.001 14.857,-2.137 23.119,-5.997 M 291.525,233.359 V 507.51 c 14.835,-13.805 29.602,-30.385 42.954,-47.809 V 233.359 h -42.954 z"
       id="path9" /><path
       d="m 377.636,233.359 v 156.245 c 0,0 -3.547,7.707 -5.909,12.117 -12.287,21.298 -24.842,41.601 -37.225,57.94 -0.006,0.008 -0.012,0.014 -0.018,0.022 V 233.359 h 43.152 z m -129.253,0 v 45.639 c 20.728,8.695 35.357,29.279 35.357,53.428 0,23.998 -14.629,44.547 -35.357,53.236 V 538.34 c 12.406,-5.891 27.021,-15.946 42.971,-30.669 0.057,-0.053 0.117,-0.116 0.175,-0.169 V 233.359 h -43.146 z m -86.113,0 v 274.948 c 1.748,1.59 3.5,3.284 5.245,4.788 13.511,11.648 26.014,19.781 37.709,25.041 V 386.115 c -21.436,-8.407 -36.58,-29.265 -36.58,-53.689 0,-24.581 15.158,-45.467 36.58,-53.881 V 233.359 H 162.27 z m -86.106,0 v 159.654 c 0.097,0.189 0.182,0.374 0.279,0.562 4.663,9.059 9.684,18.421 15.611,28.07 8.257,13.433 17.196,27.147 27.063,40.063 V 233.359 H 76.164 z"
       id="path11"
       style="fill:#ee3524" /><path
       d="m 226.288,270.354 c -34.19,0 -61.875,27.693 -61.875,62.075 0,34.19 27.685,61.882 61.875,61.882 33.99,0 61.676,-27.699 61.676,-61.882 0,-34.383 -27.672,-62.075 -61.676,-62.075 z"
       id="path13"
       style="fill:#b23428" /><path
       d="m 238.524,386.35 c -4.458,-2.054 -8.091,-5.44 -10.076,-10.611 2.04,-0.639 4.018,-1.532 5.859,-2.624 12.212,-7.212 13.441,-21.463 7.397,-33.118 -0.206,-0.405 -0.46,-0.838 -0.707,-1.243 7.012,-21.875 -5.089,-31.559 -8.805,-33.936 2.301,-7.631 8.359,-11.69 17.418,-10.433 13.331,8.97 16.971,30.193 16.82,44.52 -0.2,34.959 -22.075,44.939 -27.906,47.445 m -58.852,-19.979 c 5.975,8.201 14.066,14.76 23.462,18.881 -2.28,-3.324 -4.32,-7.246 -5.027,-10.749 -4.939,-5.426 -10.955,-9.396 -18.435,-8.132 m -11.011,-32.197 c 0.323,10.934 3.729,21.085 9.32,29.671 8.31,-1.923 16.058,1.889 21.683,8.104 3.056,-2.452 12.026,-7.486 27.246,1.312 15.488,-4.313 18.936,-19.162 12.301,-31.971 l -0.391,-0.687 c -5.956,1.813 -35.331,9.34 -70.159,-6.429 m 9.121,-33.08 c -5.557,8.668 -8.881,18.929 -9.128,29.98 19.011,8.874 36.429,10.563 49.169,10 9.746,-0.426 17.335,-2.37 20.529,-3.331 3.482,-11.065 2.733,-24.114 -7.823,-30.646 -7.617,3.462 -16.559,4.677 -23.661,-0.364 -10.659,5.082 -21.237,3.729 -28.682,-5.137 l -0.404,-0.502 z m 46.415,-26.486 c -18.441,0.659 -34.671,9.959 -44.746,24.025 0.234,0.337 0.536,0.728 0.893,1.154 6.861,8.173 15.749,8.668 25.186,4.437 -0.269,-3.764 0.487,-16.037 18.667,-29.616 m 35.62,10.823 c -8.757,-6.339 -19.348,-10.261 -30.804,-10.797 -8.881,6.058 -20.124,16.257 -20.694,27.816 -0.041,0.817 -0.007,1.442 0.034,1.841 0.33,0.247 0.68,0.501 1.01,0.694 6.181,3.681 13.716,2.562 19.986,-0.474 2.548,-8.901 9.842,-14.506 19.705,-13.29 l 0.776,-0.735 c 2.809,-2.59 6.264,-4.478 9.987,-5.055 m -17.37,102.333 c 23.826,-7.005 41.292,-29.121 41.292,-55.337 0,-17.83 -7.974,-33.723 -20.502,-44.314 -4.265,-0.385 -8.324,1.532 -11.415,4.389 4.602,3.359 17.754,15.68 17.411,46.422 -0.186,32.576 -18.517,44.636 -26.958,48.792 l 0.172,0.048 z m -16.159,2.317 c 3.839,0 7.589,-0.378 11.222,-1.106 -5.192,-2.342 -9.409,-6.291 -11.545,-11.813 -0.227,-0.604 -0.385,-1.106 -0.488,-1.463 -7.995,-4.526 -17.438,-7.17 -24.416,-1.106 0.206,0.749 0.529,1.765 1.03,2.981 1.051,2.562 2.898,5.989 6.051,9.595 5.715,1.896 11.807,2.912 18.146,2.912"
       id="path15"
       style="fill:#d18816" /><path
       d="m 49.425,190.405 h 352.517 c 0,0 13.482,26.237 15.797,42.954 H 34.081 c 0,0 4.87,-26.731 15.344,-42.954"
       id="path17"
       style="fill:#0097d7" /><path
       d="m 388.851,221.285 h 6.69 v 5.673 h -6.69 v -5.673 z m -17.423,-6.281 h 14.382 v -4.87 h -14.382 v -6.477 h 16.614 v -5.069 h -23.297 v 28.366 h 6.683 v -11.95 z m -21.471,11.954 h 6.69 v -5.673 h -6.69 v 5.673 z m -21.882,0.805 c 3.647,0 6.683,-1.01 9.114,-2.837 2.431,-2.026 3.853,-4.457 4.457,-7.493 h -6.683 c -0.405,1.415 -1.01,2.431 -1.82,3.242 -1.01,1.422 -2.843,2.026 -5.268,2.026 -2.232,0 -4.059,-0.81 -5.481,-2.431 -1.614,-1.621 -2.225,-3.846 -2.225,-7.095 0,-3.242 0.611,-5.673 2.033,-7.493 1.415,-1.628 3.441,-2.637 5.673,-2.637 2.424,0 4.258,0.611 5.46,1.827 0.618,0.81 1.222,1.82 1.628,3.242 h 6.683 c 0,-1.82 -0.811,-3.647 -2.225,-5.268 -2.431,-3.242 -6.278,-4.863 -11.751,-4.863 -4.052,0 -7.294,1.216 -9.925,3.647 -3.043,2.63 -4.67,6.484 -4.67,11.346 0,4.663 1.429,8.304 4.059,10.941 2.631,2.63 6.278,3.846 10.941,3.846 m -75.969,-0.805 h 6.683 v -28.366 h -6.683 v 28.366 z m -21.889,0.805 c 3.647,0 6.683,-1.01 9.121,-2.837 2.438,-2.026 3.853,-4.457 4.458,-7.493 h -6.683 c -0.405,1.415 -1.017,2.431 -1.628,3.242 -1.216,1.422 -3.043,2.026 -5.467,2.026 -2.225,0 -4.045,-0.81 -5.467,-2.431 -1.621,-1.621 -2.232,-3.846 -2.232,-7.095 0,-3.242 0.611,-5.673 2.026,-7.493 1.415,-1.628 3.448,-2.637 5.673,-2.637 2.424,0 4.252,0.611 5.467,1.827 0.611,0.81 1.222,1.82 1.628,3.242 h 6.683 c 0,-1.82 -0.811,-3.647 -2.232,-5.268 -2.431,-3.242 -6.284,-4.863 -11.751,-4.863 -4.052,0 -7.287,1.216 -9.925,3.647 -3.036,2.63 -4.656,6.484 -4.656,11.346 0,4.663 1.422,8.304 4.052,10.941 2.629,2.63 6.276,3.846 10.933,3.846 m -42.953,-21.073 13.379,20.268 h 6.889 v -28.366 h -6.284 v 19.856 l -13.166,-19.856 h -7.088 v 28.366 h 6.271 V 206.69 z m -13.976,15.201 h -17.624 v -7.493 h 15.399 v -4.87 h -15.399 v -5.872 h 16.813 v -5.069 h -23.496 v 28.366 h 24.307 v -5.062 z m -30.993,0 h -16.209 v -23.304 h -6.889 v 28.366 h 23.098 v -5.062 z m -74.964,5.065 h 6.284 L 84.755,198.59 H 77.667 L 70.572,220.067 63.477,198.59 H 56.19 l 11.141,28.366 z m 35.664,-28.363 11.339,28.366 h -7.294 l -2.026,-5.879 h -6.071 -6.085 l -2.225,5.879 h -6.889 l 11.545,-28.366 h 3.654 4.052 z m 0.199,17.624 -4.251,-11.147 -4.265,11.147 h 4.265 4.251 z m 180.71,-17.624 11.552,28.366 h -7.5 l -2.019,-5.879 h -6.078 -5.872 l -2.239,5.879 h -7.088 l 11.552,-28.366 h 3.647 4.045 z m 0.206,17.624 -4.045,-11.147 -4.258,11.147 h 4.052 4.251 z"
       id="path19"
       style="fill:#ffffff" /></g></svg>