<?xml version="1.0" encoding="UTF-8"?>
<svg xmlns="http://www.w3.org/2000/svg" xmlns:xlink="http://www.w3.org/1999/xlink" width="35pt" height="25pt" viewBox="0 0 35 25" version="1.1">
<g id="surface1">
<path style=" stroke:none;fill-rule:nonzero;fill:rgb(0%,0%,0%);fill-opacity:1;" d="M 30.601562 12.933594 C 30.894531 12.289062 31.207031 11.605469 31.207031 11.605469 L 31.234375 11.550781 L 31.171875 11.558594 C 31.167969 11.558594 30.371094 11.644531 29.394531 12.238281 C 29.277344 10.824219 28.683594 9.972656 28.683594 9.96875 L 28.648438 9.917969 L 28.621094 9.976562 C 28.621094 9.976562 28.308594 10.65625 28.019531 11.300781 C 27.90625 11.550781 27.859375 11.792969 27.859375 12.027344 C 27.859375 12.15625 27.875 12.28125 27.898438 12.40625 C 27.210938 11.738281 26.601562 11.488281 26.597656 11.488281 L 26.542969 11.464844 L 26.550781 11.527344 C 26.550781 11.527344 26.660156 12.269531 26.765625 12.964844 C 26.847656 13.480469 27.109375 13.835938 27.4375 14.117188 C 27.394531 14.242188 27.363281 14.367188 27.347656 14.492188 C 26.914062 13.636719 26.417969 13.203125 26.417969 13.203125 L 26.371094 13.160156 L 26.359375 13.222656 C 26.359375 13.222656 26.222656 13.960938 26.09375 14.65625 C 26.074219 14.769531 26.066406 14.878906 26.066406 14.984375 C 26.066406 15.414062 26.222656 15.773438 26.4375 16.101562 C 26.433594 16.121094 26.425781 16.144531 26.421875 16.164062 C 26.054688 15.476562 25.675781 15.121094 25.671875 15.117188 L 25.628906 15.074219 L 25.613281 15.136719 C 25.613281 15.136719 25.453125 15.867188 25.300781 16.558594 C 25.273438 16.695312 25.257812 16.824219 25.257812 16.945312 C 25.257812 17.398438 25.4375 17.777344 25.667969 18.128906 C 25.660156 18.132812 25.652344 18.140625 25.648438 18.144531 C 25.078125 16.96875 24.320312 16.410156 24.316406 16.410156 L 24.265625 16.371094 L 24.261719 16.433594 C 24.261719 16.433594 24.1875 17.179688 24.121094 17.882812 C 24.117188 17.945312 24.113281 18.003906 24.113281 18.058594 C 24.113281 18.132812 24.121094 18.203125 24.128906 18.273438 C 24.015625 17.949219 23.914062 17.769531 23.910156 17.769531 L 23.882812 17.714844 L 23.851562 17.769531 C 23.851562 17.769531 23.480469 18.421875 23.132812 19.039062 C 22.96875 19.335938 22.90625 19.625 22.90625 19.910156 C 22.90625 20.226562 22.984375 20.53125 23.082031 20.832031 C 23.128906 20.972656 23.144531 21.097656 23.144531 21.203125 C 23.144531 21.292969 23.132812 21.367188 23.117188 21.433594 C 23.089844 21.449219 23.058594 21.46875 23.03125 21.488281 C 23.070312 21.34375 23.097656 21.191406 23.097656 21.046875 C 23.097656 20.890625 23.066406 20.742188 22.988281 20.613281 C 22.40625 19.644531 21.675781 19.25 21.671875 19.25 L 21.628906 19.226562 L 21.632812 19.273438 C 21.632812 19.273438 21.65625 19.851562 21.683594 20.394531 C 21.707031 20.949219 22.027344 21.292969 22.382812 21.589844 C 22.453125 21.648438 22.503906 21.707031 22.546875 21.765625 C 21.972656 22.074219 21.175781 22.425781 20.261719 22.605469 C 19.65625 22.722656 18.996094 22.96875 18.378906 23.246094 C 17.761719 22.96875 17.101562 22.722656 16.496094 22.605469 C 15.582031 22.425781 14.785156 22.074219 14.210938 21.765625 C 14.253906 21.707031 14.304688 21.648438 14.375 21.589844 C 14.730469 21.292969 15.050781 20.949219 15.074219 20.394531 C 15.101562 19.851562 15.125 19.273438 15.125 19.273438 L 15.128906 19.226562 L 15.085938 19.25 C 15.082031 19.25 14.351562 19.644531 13.769531 20.613281 C 13.691406 20.742188 13.660156 20.890625 13.660156 21.046875 C 13.660156 21.191406 13.6875 21.34375 13.726562 21.488281 C 13.699219 21.46875 13.667969 21.449219 13.640625 21.433594 C 13.625 21.367188 13.613281 21.292969 13.613281 21.203125 C 13.613281 21.097656 13.628906 20.972656 13.675781 20.832031 C 13.773438 20.53125 13.851562 20.226562 13.851562 19.910156 C 13.851562 19.625 13.789062 19.335938 13.625 19.039062 C 13.277344 18.421875 12.90625 17.769531 12.90625 17.769531 L 12.875 17.714844 L 12.847656 17.769531 C 12.84375 17.769531 12.742188 17.949219 12.628906 18.273438 C 12.636719 18.203125 12.644531 18.132812 12.644531 18.058594 C 12.644531 18.003906 12.640625 17.945312 12.636719 17.882812 C 12.570312 17.179688 12.496094 16.433594 12.496094 16.433594 L 12.492188 16.371094 L 12.441406 16.410156 C 12.4375 16.410156 11.679688 16.96875 11.109375 18.144531 C 11.105469 18.140625 11.097656 18.132812 11.09375 18.128906 C 11.320312 17.777344 11.5 17.398438 11.5 16.945312 C 11.5 16.824219 11.484375 16.695312 11.457031 16.558594 C 11.304688 15.867188 11.144531 15.136719 11.144531 15.136719 L 11.128906 15.074219 L 11.085938 15.117188 C 11.082031 15.121094 10.703125 15.476562 10.335938 16.164062 C 10.332031 16.144531 10.324219 16.121094 10.320312 16.101562 C 10.535156 15.773438 10.695312 15.414062 10.695312 14.984375 C 10.695312 14.878906 10.683594 14.769531 10.664062 14.65625 C 10.535156 13.960938 10.398438 13.222656 10.398438 13.222656 L 10.386719 13.160156 L 10.339844 13.203125 C 10.339844 13.203125 9.84375 13.636719 9.410156 14.492188 C 9.394531 14.367188 9.363281 14.242188 9.320312 14.117188 C 9.648438 13.835938 9.910156 13.480469 9.992188 12.964844 C 10.097656 12.269531 10.207031 11.527344 10.207031 11.527344 L 10.214844 11.464844 L 10.160156 11.488281 C 10.15625 11.488281 9.546875 11.738281 8.859375 12.40625 C 8.882812 12.28125 8.898438 12.15625 8.898438 12.027344 C 8.898438 11.792969 8.851562 11.550781 8.738281 11.300781 C 8.449219 10.65625 8.136719 9.976562 8.136719 9.976562 L 8.109375 9.917969 L 8.074219 9.96875 C 8.074219 9.972656 7.480469 10.824219 7.363281 12.238281 C 6.386719 11.644531 5.589844 11.558594 5.585938 11.558594 L 5.523438 11.550781 L 5.550781 11.605469 C 5.550781 11.605469 5.863281 12.289062 6.15625 12.933594 C 6.378906 13.417969 6.742188 13.6875 7.148438 13.871094 C 6.921875 13.84375 6.734375 13.835938 6.597656 13.835938 C 6.425781 13.835938 6.328125 13.84375 6.328125 13.84375 L 6.265625 13.851562 L 6.304688 13.902344 C 6.304688 13.902344 6.585938 14.269531 6.914062 14.695312 C 6.867188 14.695312 6.820312 14.695312 6.777344 14.695312 C 6.320312 14.695312 6.042969 14.757812 6.039062 14.757812 L 5.980469 14.769531 L 6.023438 14.816406 C 6.023438 14.816406 6.539062 15.359375 7.027344 15.871094 C 7.492188 16.359375 8.050781 16.449219 8.613281 16.449219 C 8.652344 16.449219 8.691406 16.449219 8.730469 16.445312 C 8.738281 16.445312 8.746094 16.445312 8.757812 16.445312 C 8.789062 16.445312 8.820312 16.449219 8.851562 16.449219 C 8.863281 16.53125 8.878906 16.613281 8.898438 16.699219 C 8.363281 16.5625 7.902344 16.527344 7.570312 16.527344 C 7.214844 16.527344 7.003906 16.566406 7 16.570312 L 6.941406 16.582031 L 6.980469 16.625 C 6.980469 16.625 7.480469 17.191406 7.949219 17.71875 C 8.0625 17.84375 8.183594 17.945312 8.308594 18.027344 C 7.746094 18.234375 7.433594 18.460938 7.433594 18.460938 L 7.382812 18.496094 L 7.441406 18.523438 C 7.441406 18.523438 8.128906 18.824219 8.777344 19.101562 C 8.875 19.144531 8.972656 19.175781 9.066406 19.199219 C 8.347656 19.339844 7.925781 19.570312 7.925781 19.570312 L 7.871094 19.601562 L 7.925781 19.632812 C 7.925781 19.632812 8.570312 20.011719 9.179688 20.371094 C 9.484375 20.546875 9.785156 20.613281 10.078125 20.613281 C 10.082031 20.613281 10.082031 20.613281 10.082031 20.613281 C 10.386719 20.613281 10.683594 20.542969 10.976562 20.453125 C 11.070312 20.425781 11.160156 20.40625 11.242188 20.402344 C 11.253906 20.425781 11.265625 20.449219 11.277344 20.472656 C 10.050781 20.726562 9.351562 21.289062 9.347656 21.289062 L 9.300781 21.328125 L 9.359375 21.351562 C 9.359375 21.351562 10.0625 21.613281 10.722656 21.859375 C 10.9375 21.9375 11.144531 21.972656 11.339844 21.972656 C 11.726562 21.972656 12.082031 21.839844 12.417969 21.671875 C 12.527344 21.703125 12.640625 21.726562 12.75 21.742188 C 12.582031 21.78125 12.425781 21.851562 12.308594 21.972656 C 11.523438 22.785156 11.335938 23.59375 11.335938 23.597656 L 11.324219 23.640625 L 11.367188 23.628906 C 11.367188 23.628906 11.921875 23.453125 12.4375 23.289062 C 12.96875 23.121094 13.21875 22.722656 13.410156 22.304688 C 13.507812 22.101562 13.632812 21.992188 13.730469 21.933594 C 13.78125 21.90625 13.828125 21.886719 13.859375 21.878906 C 13.863281 21.878906 13.863281 21.878906 13.867188 21.875 C 13.953125 22.070312 14.03125 22.199219 14.03125 22.203125 L 14.082031 22.183594 C 14.082031 22.183594 14.082031 22.167969 14.082031 22.144531 C 14.082031 22.113281 14.082031 22.066406 14.097656 22.007812 C 14.136719 22.03125 14.171875 22.054688 14.210938 22.078125 C 14.914062 22.5 16.039062 22.921875 17.164062 23.167969 C 17.453125 23.230469 17.722656 23.328125 17.96875 23.4375 C 16.765625 24.023438 15.800781 24.675781 15.800781 24.675781 C 15.800781 24.675781 15.164062 24.945312 14.90625 24.925781 C 15.09375 24.949219 15.691406 25.011719 16.082031 24.957031 C 16.609375 24.886719 17.03125 24.78125 17.242188 24.957031 C 17.453125 25.132812 17.277344 24.714844 17.453125 24.433594 C 17.554688 24.265625 17.890625 23.941406 18.378906 23.652344 C 18.867188 23.941406 19.203125 24.265625 19.304688 24.433594 C 19.480469 24.714844 19.304688 25.132812 19.515625 24.957031 C 19.726562 24.78125 20.148438 24.886719 20.675781 24.957031 C 21.066406 25.011719 21.664062 24.949219 21.851562 24.925781 C 21.59375 24.945312 20.957031 24.675781 20.957031 24.675781 C 20.957031 24.675781 19.992188 24.023438 18.789062 23.4375 C 19.035156 23.328125 19.304688 23.230469 19.59375 23.167969 C 20.71875 22.921875 21.84375 22.5 22.546875 22.078125 C 22.585938 22.054688 22.621094 22.03125 22.660156 22.007812 C 22.675781 22.066406 22.675781 22.113281 22.675781 22.144531 C 22.675781 22.167969 22.675781 22.183594 22.675781 22.183594 L 22.726562 22.203125 C 22.726562 22.199219 22.804688 22.070312 22.890625 21.875 C 22.894531 21.878906 22.894531 21.878906 22.898438 21.878906 C 22.929688 21.886719 22.976562 21.90625 23.027344 21.933594 C 23.125 21.992188 23.25 22.101562 23.347656 22.304688 C 23.539062 22.722656 23.789062 23.121094 24.320312 23.289062 C 24.835938 23.453125 25.390625 23.628906 25.390625 23.628906 L 25.433594 23.640625 L 25.421875 23.597656 C 25.421875 23.59375 25.234375 22.785156 24.449219 21.972656 C 24.332031 21.851562 24.175781 21.78125 24.007812 21.742188 C 24.117188 21.726562 24.230469 21.703125 24.339844 21.671875 C 24.675781 21.839844 25.03125 21.972656 25.417969 21.972656 C 25.613281 21.972656 25.820312 21.9375 26.035156 21.859375 C 26.695312 21.613281 27.398438 21.351562 27.398438 21.351562 L 27.457031 21.328125 L 27.410156 21.289062 C 27.40625 21.289062 26.707031 20.726562 25.480469 20.472656 C 25.492188 20.449219 25.503906 20.425781 25.515625 20.402344 C 25.597656 20.40625 25.6875 20.425781 25.78125 20.453125 C 26.074219 20.542969 26.371094 20.613281 26.675781 20.613281 C 26.675781 20.613281 26.675781 20.613281 26.679688 20.613281 C 26.972656 20.613281 27.273438 20.546875 27.578125 20.371094 C 28.1875 20.011719 28.832031 19.632812 28.832031 19.632812 L 28.886719 19.601562 L 28.832031 19.570312 C 28.832031 19.570312 28.410156 19.339844 27.691406 19.199219 C 27.785156 19.175781 27.882812 19.144531 27.980469 19.101562 C 28.628906 18.824219 29.316406 18.523438 29.316406 18.523438 L 29.375 18.496094 L 29.324219 18.460938 C 29.324219 18.460938 29.011719 18.234375 28.449219 18.027344 C 28.574219 17.945312 28.695312 17.84375 28.808594 17.71875 C 29.277344 17.191406 29.777344 16.625 29.777344 16.625 L 29.816406 16.582031 L 29.757812 16.570312 C 29.753906 16.566406 29.542969 16.527344 29.1875 16.527344 C 28.855469 16.527344 28.394531 16.5625 27.859375 16.699219 C 27.878906 16.613281 27.894531 16.53125 27.90625 16.449219 C 27.9375 16.449219 27.96875 16.445312 28 16.445312 C 28.011719 16.445312 28.019531 16.445312 28.027344 16.445312 C 28.066406 16.449219 28.105469 16.449219 28.144531 16.449219 C 28.707031 16.449219 29.265625 16.359375 29.730469 15.871094 C 30.21875 15.359375 30.734375 14.816406 30.734375 14.816406 L 30.777344 14.769531 L 30.71875 14.757812 C 30.714844 14.757812 30.4375 14.695312 29.980469 14.695312 C 29.9375 14.695312 29.890625 14.695312 29.84375 14.695312 C 30.171875 14.269531 30.453125 13.902344 30.453125 13.902344 L 30.492188 13.851562 L 30.429688 13.84375 C 30.429688 13.84375 30.332031 13.835938 30.160156 13.835938 C 30.023438 13.835938 29.835938 13.84375 29.609375 13.871094 C 30.015625 13.6875 30.378906 13.417969 30.601562 12.933594 Z M 12.347656 19.6875 C 12.289062 19.652344 12.226562 19.613281 12.15625 19.582031 C 12.101562 19.554688 12.046875 19.527344 11.992188 19.503906 C 12.183594 19.289062 12.359375 19.058594 12.476562 18.800781 C 12.417969 19.054688 12.371094 19.355469 12.347656 19.6875 Z M 24.601562 19.582031 C 24.53125 19.613281 24.46875 19.652344 24.410156 19.6875 C 24.386719 19.355469 24.339844 19.054688 24.28125 18.800781 C 24.398438 19.058594 24.574219 19.289062 24.765625 19.503906 C 24.710938 19.527344 24.65625 19.554688 24.601562 19.582031 Z M 24.601562 19.582031 "/>
<path style=" stroke:none;fill-rule:nonzero;fill:rgb(0%,58.823529%,27.058824%);fill-opacity:1;" d="M 10.433594 19.648438 C 9.9375 18.628906 9.882812 17.757812 9.882812 17.429688 C 9.882812 17.398438 9.882812 17.371094 9.882812 17.351562 C 10.042969 17.464844 10.542969 17.820312 11.015625 18.160156 C 11.472656 18.488281 11.652344 18.917969 11.742188 19.382812 C 11.257812 19.152344 10.84375 18.953125 10.84375 18.953125 L 10.789062 18.925781 L 10.792969 18.972656 C 10.488281 18.519531 10.226562 18.054688 10.226562 18.054688 C 10.226562 18.054688 10.53125 18.800781 10.855469 19.335938 C 10.90625 19.554688 11 19.863281 11.15625 20.21875 C 10.847656 20.101562 10.5625 19.917969 10.433594 19.648438 Z M 10.433594 19.648438 "/>
<path style=" stroke:none;fill-rule:nonzero;fill:rgb(0%,58.823529%,27.058824%);fill-opacity:1;" d="M 11.339844 21.902344 C 11.152344 21.902344 10.957031 21.871094 10.75 21.792969 C 10.203125 21.589844 9.628906 21.375 9.445312 21.308594 C 9.46875 21.289062 9.5 21.265625 9.542969 21.238281 C 9.808594 21.0625 10.421875 20.71875 11.308594 20.539062 C 11.390625 20.6875 11.480469 20.84375 11.582031 21.003906 C 10.964844 21.042969 10.222656 21.199219 10.222656 21.199219 C 10.222656 21.199219 11.042969 21.132812 11.6875 21.160156 C 11.707031 21.191406 11.730469 21.222656 11.753906 21.253906 C 11.890625 21.441406 12.09375 21.5625 12.324219 21.644531 C 12.007812 21.792969 11.6875 21.902344 11.339844 21.902344 Z M 11.339844 21.902344 "/>
<path style=" stroke:none;fill-rule:nonzero;fill:rgb(0%,58.823529%,27.058824%);fill-opacity:1;" d="M 12.960938 20.351562 C 12.839844 19.722656 12.890625 18.644531 12.890625 18.644531 C 12.890625 18.644531 12.992188 19.945312 13.195312 20.53125 C 13.277344 20.765625 13.421875 20.898438 13.566406 20.976562 C 13.578125 20.925781 13.589844 20.871094 13.609375 20.8125 C 13.707031 20.515625 13.78125 20.214844 13.78125 19.910156 C 13.78125 19.636719 13.722656 19.359375 13.5625 19.074219 C 13.277344 18.5625 12.972656 18.03125 12.878906 17.859375 C 12.863281 17.886719 12.847656 17.917969 12.828125 17.960938 C 12.78125 18.066406 12.71875 18.21875 12.65625 18.417969 C 12.550781 18.746094 12.445312 19.191406 12.414062 19.734375 C 12.65625 19.902344 12.832031 20.117188 12.960938 20.351562 Z M 12.960938 20.351562 "/>
<path style=" stroke:none;fill-rule:nonzero;fill:rgb(0%,58.823529%,27.058824%);fill-opacity:1;" d="M 11.808594 21.210938 C 11.382812 20.625 11.148438 20.066406 11.015625 19.65625 C 10.953125 19.449219 10.914062 19.28125 10.890625 19.164062 C 10.882812 19.113281 10.875 19.074219 10.871094 19.042969 C 11.046875 19.128906 11.601562 19.394531 12.125 19.644531 C 12.75 19.945312 12.988281 20.472656 13.164062 21.042969 C 13.179688 21.101562 13.203125 21.15625 13.222656 21.203125 C 13.058594 21.222656 12.863281 21.195312 12.664062 21.050781 C 12.160156 20.6875 11.332031 19.679688 11.332031 19.679688 C 11.332031 19.679688 12.027344 20.78125 12.5 21.15625 C 12.757812 21.359375 13.039062 21.5625 13.242188 21.707031 C 12.765625 21.707031 12.101562 21.617188 11.808594 21.210938 Z M 11.808594 21.210938 "/>
<path style=" stroke:none;fill-rule:nonzero;fill:rgb(0%,58.823529%,27.058824%);fill-opacity:1;" d="M 12.980469 22.222656 C 12.558594 22.445312 11.820312 23.125 11.820312 23.125 C 11.820312 23.125 12.46875 22.359375 12.867188 22.125 C 13.085938 21.996094 13.324219 21.871094 13.496094 21.785156 C 13.382812 21.769531 13.257812 21.757812 13.128906 21.757812 C 13.125 21.757812 13.125 21.757812 13.125 21.757812 C 12.835938 21.757812 12.53125 21.816406 12.347656 22.007812 C 11.960938 22.410156 11.71875 22.8125 11.578125 23.109375 C 11.476562 23.324219 11.421875 23.484375 11.398438 23.5625 C 11.542969 23.515625 11.996094 23.375 12.421875 23.238281 C 12.929688 23.074219 13.167969 22.699219 13.363281 22.28125 C 13.382812 22.242188 13.402344 22.203125 13.425781 22.167969 C 13.304688 22.136719 13.152344 22.132812 12.980469 22.222656 Z M 12.980469 22.222656 "/>
<path style=" stroke:none;fill-rule:nonzero;fill:rgb(0%,58.823529%,27.058824%);fill-opacity:1;" d="M 15.019531 20.394531 C 14.996094 20.925781 14.695312 21.253906 14.34375 21.546875 C 14.304688 21.578125 14.273438 21.609375 14.246094 21.636719 C 14.183594 21.527344 14.144531 21.382812 14.1875 21.195312 C 14.292969 20.730469 14.757812 19.839844 14.757812 19.839844 C 14.757812 19.839844 14.1875 20.664062 14.0625 21.109375 C 13.996094 21.355469 13.9375 21.617188 13.894531 21.804688 C 13.804688 21.589844 13.714844 21.304688 13.714844 21.046875 C 13.714844 20.898438 13.742188 20.757812 13.816406 20.640625 C 14.101562 20.160156 14.425781 19.824219 14.679688 19.609375 C 14.804688 19.5 14.914062 19.421875 14.992188 19.371094 C 15.023438 19.351562 15.050781 19.332031 15.070312 19.320312 C 15.0625 19.472656 15.042969 19.945312 15.019531 20.394531 Z M 15.019531 20.394531 "/>
<path style=" stroke:none;fill-rule:nonzero;fill:rgb(0%,58.823529%,27.058824%);fill-opacity:1;" d="M 8.984375 16.765625 C 8.875 16.292969 8.839844 15.867188 8.839844 15.507812 C 8.839844 15.148438 8.875 14.859375 8.910156 14.65625 C 8.933594 14.542969 8.953125 14.457031 8.964844 14.402344 C 9.097656 14.550781 9.503906 15.011719 9.886719 15.449219 C 10.226562 15.835938 10.324219 16.253906 10.324219 16.691406 C 10.324219 16.839844 10.3125 16.988281 10.296875 17.140625 C 10.289062 17.191406 10.289062 17.242188 10.289062 17.289062 C 10.289062 17.296875 10.289062 17.304688 10.289062 17.308594 C 10.128906 17.265625 9.960938 17.164062 9.832031 16.953125 C 9.511719 16.421875 9.140625 15.167969 9.140625 15.167969 C 9.140625 15.167969 9.351562 16.453125 9.640625 16.984375 C 9.695312 17.085938 9.757812 17.191406 9.816406 17.292969 C 9.8125 17.3125 9.8125 17.359375 9.8125 17.429688 C 9.8125 17.484375 9.8125 17.554688 9.816406 17.640625 C 9.449219 17.441406 9.070312 17.148438 8.984375 16.765625 Z M 8.984375 16.765625 "/>
<path style=" stroke:none;fill-rule:nonzero;fill:rgb(0%,58.823529%,27.058824%);fill-opacity:1;" d="M 11.984375 16.945312 C 12.128906 16.78125 12.253906 16.660156 12.339844 16.582031 C 12.378906 16.550781 12.410156 16.523438 12.433594 16.503906 C 12.453125 16.699219 12.511719 17.308594 12.566406 17.890625 C 12.570312 17.949219 12.574219 18.003906 12.574219 18.058594 C 12.574219 18.644531 12.28125 19.074219 11.925781 19.472656 C 11.890625 19.453125 11.855469 19.4375 11.820312 19.421875 C 11.785156 19.230469 11.738281 19.046875 11.664062 18.867188 C 11.773438 18.21875 12.125 17.226562 12.125 17.226562 C 12.125 17.226562 11.726562 18.015625 11.542969 18.628906 C 11.449219 18.472656 11.328125 18.324219 11.167969 18.1875 C 11.429688 17.640625 11.734375 17.226562 11.984375 16.945312 Z M 11.984375 16.945312 "/>
<path style=" stroke:none;fill-rule:nonzero;fill:rgb(0%,58.823529%,27.058824%);fill-opacity:1;" d="M 10.953125 20.386719 C 10.664062 20.476562 10.375 20.542969 10.082031 20.542969 C 9.796875 20.542969 9.511719 20.480469 9.214844 20.308594 C 8.710938 20.015625 8.183594 19.703125 8.015625 19.605469 C 8.039062 19.59375 8.070312 19.578125 8.109375 19.558594 C 8.410156 19.429688 9.136719 19.167969 10.140625 19.167969 C 10.144531 19.167969 10.148438 19.167969 10.148438 19.167969 C 10.210938 19.332031 10.285156 19.503906 10.367188 19.675781 C 10.375 19.6875 10.378906 19.699219 10.382812 19.707031 C 9.75 19.601562 8.800781 19.628906 8.800781 19.628906 C 8.800781 19.628906 9.917969 19.738281 10.546875 19.921875 C 10.6875 20.070312 10.871094 20.175781 11.066406 20.257812 C 11.089844 20.289062 11.105469 20.316406 11.121094 20.347656 C 11.066406 20.355469 11.011719 20.367188 10.953125 20.386719 Z M 10.953125 20.386719 "/>
<path style=" stroke:none;fill-rule:nonzero;fill:rgb(0%,58.823529%,27.058824%);fill-opacity:1;" d="M 10.695312 15.703125 C 10.820312 15.527344 10.929688 15.394531 11.007812 15.304688 C 11.039062 15.265625 11.066406 15.234375 11.089844 15.214844 C 11.128906 15.40625 11.261719 16.003906 11.386719 16.574219 C 11.417969 16.703125 11.429688 16.828125 11.429688 16.945312 C 11.429688 17.378906 11.257812 17.742188 11.035156 18.085938 C 10.890625 17.984375 10.746094 17.878906 10.609375 17.78125 C 10.609375 17.140625 10.871094 15.96875 10.871094 15.96875 C 10.871094 15.96875 10.492188 17.023438 10.433594 17.65625 C 10.429688 17.652344 10.421875 17.648438 10.414062 17.644531 C 10.382812 17.546875 10.359375 17.429688 10.355469 17.289062 C 10.355469 17.246094 10.359375 17.199219 10.363281 17.148438 C 10.382812 16.996094 10.394531 16.84375 10.394531 16.691406 C 10.394531 16.550781 10.382812 16.410156 10.359375 16.273438 C 10.472656 16.050781 10.589844 15.859375 10.695312 15.703125 Z M 10.695312 15.703125 "/>
<path style=" stroke:none;fill-rule:nonzero;fill:rgb(0%,58.823529%,27.058824%);fill-opacity:1;" d="M 8 17.671875 C 7.613281 17.234375 7.207031 16.773438 7.078125 16.628906 C 7.097656 16.625 7.125 16.621094 7.160156 16.617188 C 7.253906 16.609375 7.394531 16.597656 7.570312 16.597656 C 7.90625 16.597656 8.371094 16.636719 8.914062 16.777344 C 8.914062 16.777344 8.914062 16.78125 8.914062 16.78125 C 9.015625 17.214844 9.433594 17.519531 9.824219 17.722656 C 9.824219 17.753906 9.828125 17.785156 9.832031 17.816406 C 9.742188 17.746094 9.648438 17.679688 9.554688 17.613281 C 9.0625 17.261719 7.8125 16.894531 7.8125 16.894531 C 7.8125 16.894531 9.011719 17.417969 9.5 17.796875 C 9.695312 17.953125 9.773438 18.132812 9.800781 18.292969 C 9.746094 18.285156 9.691406 18.28125 9.628906 18.28125 C 9.035156 18.273438 8.460938 18.1875 8 17.671875 Z M 8 17.671875 "/>
<path style=" stroke:none;fill-rule:nonzero;fill:rgb(0%,58.823529%,27.058824%);fill-opacity:1;" d="M 8.027344 14.882812 C 7.882812 14.335938 7.835938 13.84375 7.835938 13.449219 C 7.835938 13.144531 7.863281 12.898438 7.890625 12.726562 C 7.90625 12.636719 7.917969 12.570312 7.929688 12.523438 C 8.0625 12.667969 8.484375 13.113281 8.886719 13.535156 C 9.234375 13.90625 9.347656 14.320312 9.363281 14.746094 C 9.136719 14.492188 8.976562 14.308594 8.976562 14.308594 L 8.933594 14.261719 L 8.917969 14.320312 C 8.914062 14.324219 8.847656 14.539062 8.804688 14.910156 C 8.484375 14.339844 8.132812 13.28125 8.132812 13.28125 C 8.132812 13.28125 8.386719 14.558594 8.691406 15.078125 C 8.71875 15.125 8.75 15.171875 8.777344 15.21875 C 8.773438 15.3125 8.769531 15.40625 8.769531 15.507812 C 8.769531 15.558594 8.769531 15.613281 8.773438 15.667969 C 8.4375 15.484375 8.117188 15.226562 8.027344 14.882812 Z M 8.027344 14.882812 "/>
<path style=" stroke:none;fill-rule:nonzero;fill:rgb(0%,58.823529%,27.058824%);fill-opacity:1;" d="M 9.933594 13.773438 C 10.0625 13.601562 10.175781 13.472656 10.257812 13.382812 C 10.292969 13.347656 10.320312 13.320312 10.34375 13.296875 C 10.378906 13.492188 10.488281 14.09375 10.59375 14.667969 C 10.613281 14.777344 10.625 14.882812 10.625 14.984375 C 10.625 15.375 10.484375 15.707031 10.292969 16.011719 C 10.222656 15.800781 10.113281 15.597656 9.941406 15.402344 C 9.90625 15.363281 9.871094 15.324219 9.835938 15.285156 C 9.929688 14.691406 10.097656 14.042969 10.097656 14.042969 C 10.097656 14.042969 9.875 14.605469 9.722656 15.15625 C 9.625 15.042969 9.527344 14.929688 9.4375 14.828125 C 9.433594 14.761719 9.429688 14.691406 9.425781 14.621094 C 9.59375 14.273438 9.773438 13.992188 9.933594 13.773438 Z M 9.933594 13.773438 "/>
<path style=" stroke:none;fill-rule:nonzero;fill:rgb(0%,58.823529%,27.058824%);fill-opacity:1;" d="M 8.757812 16.375 C 8.746094 16.375 8.738281 16.375 8.726562 16.375 C 8.6875 16.378906 8.648438 16.378906 8.613281 16.378906 C 8.058594 16.378906 7.523438 16.289062 7.078125 15.824219 C 6.675781 15.402344 6.253906 14.957031 6.117188 14.8125 C 6.148438 14.808594 6.191406 14.800781 6.246094 14.792969 C 6.371094 14.78125 6.550781 14.765625 6.777344 14.765625 C 7.09375 14.765625 7.5 14.792969 7.960938 14.898438 C 7.960938 14.898438 7.960938 14.902344 7.960938 14.902344 C 8.066406 15.285156 8.417969 15.558594 8.773438 15.75 C 8.777344 15.769531 8.777344 15.789062 8.777344 15.8125 C 8.730469 15.777344 8.679688 15.742188 8.628906 15.710938 C 8.125 15.375 6.863281 15.054688 6.863281 15.054688 C 6.863281 15.054688 8.078125 15.535156 8.578125 15.898438 C 8.683594 15.972656 8.757812 16.058594 8.808594 16.144531 C 8.816406 16.21875 8.828125 16.300781 8.839844 16.378906 C 8.8125 16.378906 8.785156 16.375 8.757812 16.375 Z M 8.757812 16.375 "/>
<path style=" stroke:none;fill-rule:nonzero;fill:rgb(0%,58.823529%,27.058824%);fill-opacity:1;" d="M 7.421875 12.382812 C 7.421875 12.363281 7.421875 12.34375 7.425781 12.324219 C 7.476562 11.601562 7.652344 11.023438 7.816406 10.625 C 7.898438 10.425781 7.980469 10.269531 8.035156 10.167969 C 8.0625 10.121094 8.082031 10.085938 8.097656 10.0625 C 8.179688 10.242188 8.433594 10.796875 8.675781 11.328125 C 8.785156 11.574219 8.828125 11.804688 8.828125 12.027344 C 8.828125 12.386719 8.714844 12.730469 8.570312 13.066406 C 8.566406 13.074219 8.5625 13.082031 8.5625 13.089844 C 8.410156 12.929688 8.273438 12.785156 8.164062 12.671875 C 8.03125 12.042969 8.042969 10.84375 8.042969 10.84375 C 8.042969 10.84375 7.914062 11.808594 7.953125 12.449219 C 7.941406 12.4375 7.933594 12.429688 7.933594 12.429688 L 7.894531 12.386719 L 7.875 12.445312 C 7.875 12.445312 7.796875 12.726562 7.773438 13.191406 C 7.574219 12.949219 7.421875 12.667969 7.421875 12.382812 Z M 7.421875 12.382812 "/>
<path style=" stroke:none;fill-rule:nonzero;fill:rgb(0%,58.823529%,27.058824%);fill-opacity:1;" d="M 9.585938 11.898438 C 9.765625 11.773438 9.914062 11.6875 10.019531 11.632812 C 10.066406 11.609375 10.101562 11.589844 10.128906 11.578125 C 10.097656 11.773438 10.007812 12.378906 9.921875 12.957031 C 9.847656 13.441406 9.605469 13.773438 9.296875 14.046875 C 9.21875 13.851562 9.105469 13.664062 8.9375 13.488281 C 8.929688 13.480469 8.921875 13.472656 8.914062 13.464844 C 9.203125 12.890625 9.65625 12.207031 9.65625 12.207031 C 9.65625 12.207031 9.132812 12.8125 8.800781 13.34375 C 8.738281 13.277344 8.675781 13.210938 8.613281 13.144531 C 8.621094 13.128906 8.628906 13.113281 8.632812 13.09375 C 8.714844 12.910156 8.785156 12.722656 8.832031 12.53125 C 9.105469 12.257812 9.367188 12.050781 9.585938 11.898438 Z M 9.585938 11.898438 "/>
<path style=" stroke:none;fill-rule:nonzero;fill:rgb(0%,58.823529%,27.058824%);fill-opacity:1;" d="M 6.21875 12.902344 C 5.976562 12.371094 5.722656 11.816406 5.640625 11.636719 C 5.671875 11.640625 5.710938 11.648438 5.757812 11.660156 C 6.050781 11.71875 6.660156 11.886719 7.355469 12.316406 C 7.355469 12.316406 7.355469 12.320312 7.355469 12.320312 C 7.355469 12.339844 7.351562 12.363281 7.351562 12.382812 C 7.355469 12.71875 7.542969 13.035156 7.769531 13.296875 C 7.769531 13.316406 7.769531 13.339844 7.769531 13.359375 C 7.753906 13.339844 7.738281 13.320312 7.722656 13.300781 C 7.355469 12.824219 6.269531 12.109375 6.269531 12.109375 C 6.269531 12.109375 7.261719 12.957031 7.617188 13.464844 C 7.757812 13.667969 7.78125 13.863281 7.757812 14.027344 C 7.710938 14.003906 7.65625 13.984375 7.597656 13.964844 C 7.03125 13.78125 6.507812 13.53125 6.21875 12.902344 Z M 6.21875 12.902344 "/>
<path style=" stroke:none;fill-rule:nonzero;fill:rgb(0%,58.823529%,27.058824%);fill-opacity:1;" d="M 6.398438 13.910156 C 6.441406 13.90625 6.507812 13.902344 6.597656 13.902344 C 6.789062 13.902344 7.082031 13.917969 7.4375 13.984375 C 7.484375 14 7.53125 14.015625 7.578125 14.03125 C 7.667969 14.058594 7.746094 14.09375 7.8125 14.132812 C 7.828125 14.265625 7.851562 14.402344 7.878906 14.542969 C 7.476562 14.363281 7.117188 14.230469 7.117188 14.230469 C 7.117188 14.230469 7.496094 14.425781 7.90625 14.671875 C 7.917969 14.722656 7.929688 14.773438 7.941406 14.820312 C 7.589844 14.746094 7.273438 14.710938 7.003906 14.699219 C 6.734375 14.347656 6.492188 14.03125 6.398438 13.910156 Z M 6.398438 13.910156 "/>
<path style=" stroke:none;fill-rule:nonzero;fill:rgb(0%,58.823529%,27.058824%);fill-opacity:1;" d="M 8.804688 19.039062 C 8.269531 18.804688 7.707031 18.5625 7.527344 18.484375 C 7.550781 18.46875 7.585938 18.445312 7.628906 18.421875 C 7.78125 18.332031 8.035156 18.199219 8.382812 18.074219 C 8.625 18.214844 8.882812 18.285156 9.144531 18.320312 C 8.699219 18.355469 8.308594 18.414062 8.308594 18.414062 C 8.308594 18.414062 9.289062 18.386719 9.941406 18.472656 C 9.984375 18.65625 10.039062 18.855469 10.113281 19.070312 C 10.082031 19.078125 10.050781 19.089844 10.015625 19.097656 C 9.742188 19.105469 9.492188 19.128906 9.261719 19.164062 C 9.113281 19.144531 8.960938 19.105469 8.804688 19.039062 Z M 8.804688 19.039062 "/>
<path style=" stroke:none;fill-rule:nonzero;fill:rgb(0%,58.823529%,27.058824%);fill-opacity:1;" d="M 26.324219 19.648438 C 26.820312 18.628906 26.875 17.757812 26.875 17.429688 C 26.875 17.398438 26.875 17.371094 26.875 17.351562 C 26.714844 17.464844 26.214844 17.820312 25.742188 18.160156 C 25.285156 18.488281 25.105469 18.917969 25.015625 19.382812 C 25.5 19.152344 25.914062 18.953125 25.914062 18.953125 L 25.972656 18.925781 L 25.964844 18.972656 C 26.269531 18.519531 26.53125 18.054688 26.53125 18.054688 C 26.53125 18.054688 26.226562 18.800781 25.902344 19.335938 C 25.851562 19.554688 25.757812 19.863281 25.601562 20.21875 C 25.910156 20.101562 26.195312 19.917969 26.324219 19.648438 Z M 26.324219 19.648438 "/>
<path style=" stroke:none;fill-rule:nonzero;fill:rgb(0%,58.823529%,27.058824%);fill-opacity:1;" d="M 25.417969 21.902344 C 25.605469 21.902344 25.800781 21.871094 26.007812 21.792969 C 26.554688 21.589844 27.128906 21.375 27.3125 21.308594 C 27.289062 21.289062 27.257812 21.265625 27.214844 21.238281 C 26.949219 21.0625 26.335938 20.71875 25.449219 20.539062 C 25.367188 20.6875 25.277344 20.84375 25.175781 21.003906 C 25.792969 21.042969 26.535156 21.199219 26.535156 21.199219 C 26.535156 21.199219 25.714844 21.132812 25.070312 21.160156 C 25.050781 21.191406 25.027344 21.222656 25.003906 21.253906 C 24.867188 21.441406 24.664062 21.5625 24.4375 21.644531 C 24.75 21.792969 25.070312 21.902344 25.417969 21.902344 Z M 25.417969 21.902344 "/>
<path style=" stroke:none;fill-rule:nonzero;fill:rgb(0%,58.823529%,27.058824%);fill-opacity:1;" d="M 23.796875 20.351562 C 23.917969 19.722656 23.867188 18.644531 23.867188 18.644531 C 23.867188 18.644531 23.765625 19.945312 23.5625 20.53125 C 23.480469 20.765625 23.335938 20.898438 23.191406 20.976562 C 23.179688 20.925781 23.167969 20.871094 23.148438 20.8125 C 23.050781 20.515625 22.976562 20.214844 22.976562 19.910156 C 22.976562 19.636719 23.035156 19.359375 23.195312 19.074219 C 23.480469 18.5625 23.785156 18.03125 23.878906 17.859375 C 23.894531 17.886719 23.910156 17.917969 23.929688 17.960938 C 23.976562 18.066406 24.039062 18.21875 24.101562 18.417969 C 24.207031 18.746094 24.3125 19.191406 24.34375 19.734375 C 24.101562 19.902344 23.929688 20.117188 23.796875 20.351562 Z M 23.796875 20.351562 "/>
<path style=" stroke:none;fill-rule:nonzero;fill:rgb(0%,58.823529%,27.058824%);fill-opacity:1;" d="M 24.949219 21.210938 C 25.375 20.625 25.609375 20.066406 25.742188 19.65625 C 25.804688 19.449219 25.84375 19.28125 25.867188 19.164062 C 25.875 19.113281 25.882812 19.074219 25.886719 19.042969 C 25.710938 19.128906 25.15625 19.394531 24.632812 19.644531 C 24.007812 19.945312 23.769531 20.472656 23.59375 21.042969 C 23.578125 21.101562 23.558594 21.15625 23.535156 21.203125 C 23.699219 21.222656 23.894531 21.195312 24.09375 21.050781 C 24.597656 20.6875 25.425781 19.679688 25.425781 19.679688 C 25.425781 19.679688 24.730469 20.78125 24.257812 21.15625 C 24 21.359375 23.71875 21.5625 23.515625 21.707031 C 23.992188 21.707031 24.65625 21.617188 24.949219 21.210938 Z M 24.949219 21.210938 "/>
<path style=" stroke:none;fill-rule:nonzero;fill:rgb(0%,58.823529%,27.058824%);fill-opacity:1;" d="M 23.777344 22.222656 C 24.199219 22.445312 24.9375 23.125 24.9375 23.125 C 24.9375 23.125 24.289062 22.359375 23.890625 22.125 C 23.671875 21.996094 23.433594 21.871094 23.261719 21.785156 C 23.375 21.769531 23.5 21.757812 23.628906 21.757812 C 23.632812 21.757812 23.632812 21.757812 23.632812 21.757812 C 23.921875 21.757812 24.226562 21.816406 24.410156 22.007812 C 24.796875 22.410156 25.039062 22.8125 25.179688 23.109375 C 25.285156 23.324219 25.335938 23.484375 25.359375 23.5625 C 25.214844 23.515625 24.761719 23.375 24.335938 23.238281 C 23.828125 23.074219 23.589844 22.699219 23.394531 22.28125 C 23.375 22.242188 23.355469 22.203125 23.332031 22.167969 C 23.453125 22.136719 23.605469 22.132812 23.777344 22.222656 Z M 23.777344 22.222656 "/>
<path style=" stroke:none;fill-rule:nonzero;fill:rgb(0%,58.823529%,27.058824%);fill-opacity:1;" d="M 21.738281 20.394531 C 21.761719 20.925781 22.0625 21.253906 22.414062 21.546875 C 22.453125 21.578125 22.484375 21.609375 22.511719 21.636719 C 22.574219 21.527344 22.613281 21.382812 22.570312 21.195312 C 22.464844 20.730469 22 19.839844 22 19.839844 C 22 19.839844 22.570312 20.664062 22.695312 21.109375 C 22.761719 21.355469 22.820312 21.617188 22.863281 21.804688 C 22.953125 21.589844 23.042969 21.304688 23.042969 21.046875 C 23.042969 20.898438 23.015625 20.757812 22.941406 20.640625 C 22.65625 20.160156 22.332031 19.824219 22.078125 19.609375 C 21.953125 19.5 21.84375 19.421875 21.765625 19.371094 C 21.734375 19.351562 21.707031 19.332031 21.6875 19.320312 C 21.695312 19.472656 21.714844 19.945312 21.738281 20.394531 Z M 21.738281 20.394531 "/>
<path style=" stroke:none;fill-rule:nonzero;fill:rgb(0%,58.823529%,27.058824%);fill-opacity:1;" d="M 27.773438 16.765625 C 27.882812 16.292969 27.917969 15.867188 27.917969 15.507812 C 27.917969 15.148438 27.882812 14.859375 27.847656 14.65625 C 27.824219 14.542969 27.804688 14.457031 27.792969 14.402344 C 27.660156 14.550781 27.253906 15.011719 26.871094 15.449219 C 26.527344 15.835938 26.433594 16.253906 26.433594 16.691406 C 26.433594 16.839844 26.445312 16.988281 26.460938 17.140625 C 26.46875 17.191406 26.46875 17.242188 26.46875 17.289062 C 26.46875 17.296875 26.46875 17.304688 26.46875 17.308594 C 26.628906 17.265625 26.796875 17.164062 26.925781 16.953125 C 27.246094 16.421875 27.617188 15.167969 27.617188 15.167969 C 27.617188 15.167969 27.40625 16.453125 27.117188 16.984375 C 27.0625 17.085938 27 17.191406 26.941406 17.292969 C 26.945312 17.3125 26.945312 17.359375 26.945312 17.429688 C 26.945312 17.484375 26.945312 17.554688 26.941406 17.640625 C 27.308594 17.441406 27.6875 17.148438 27.773438 16.765625 Z M 27.773438 16.765625 "/>
<path style=" stroke:none;fill-rule:nonzero;fill:rgb(0%,58.823529%,27.058824%);fill-opacity:1;" d="M 24.773438 16.945312 C 24.628906 16.78125 24.503906 16.660156 24.417969 16.582031 C 24.378906 16.550781 24.347656 16.523438 24.324219 16.503906 C 24.304688 16.699219 24.246094 17.308594 24.191406 17.890625 C 24.1875 17.949219 24.183594 18.003906 24.183594 18.058594 C 24.183594 18.644531 24.476562 19.074219 24.832031 19.472656 C 24.867188 19.453125 24.902344 19.4375 24.9375 19.421875 C 24.972656 19.230469 25.019531 19.046875 25.09375 18.867188 C 24.984375 18.21875 24.632812 17.226562 24.632812 17.226562 C 24.632812 17.226562 25.03125 18.015625 25.214844 18.628906 C 25.308594 18.472656 25.429688 18.324219 25.589844 18.1875 C 25.328125 17.640625 25.023438 17.226562 24.773438 16.945312 Z M 24.773438 16.945312 "/>
<path style=" stroke:none;fill-rule:nonzero;fill:rgb(0%,58.823529%,27.058824%);fill-opacity:1;" d="M 25.804688 20.386719 C 26.09375 20.476562 26.382812 20.542969 26.675781 20.542969 C 26.960938 20.542969 27.246094 20.480469 27.542969 20.308594 C 28.046875 20.015625 28.574219 19.703125 28.742188 19.605469 C 28.71875 19.59375 28.6875 19.578125 28.648438 19.558594 C 28.347656 19.429688 27.621094 19.167969 26.617188 19.167969 C 26.613281 19.167969 26.609375 19.167969 26.609375 19.167969 C 26.546875 19.332031 26.472656 19.503906 26.390625 19.675781 C 26.382812 19.6875 26.378906 19.699219 26.375 19.707031 C 27.007812 19.601562 27.957031 19.628906 27.957031 19.628906 C 27.957031 19.628906 26.839844 19.738281 26.210938 19.921875 C 26.070312 20.070312 25.886719 20.175781 25.691406 20.257812 C 25.667969 20.289062 25.652344 20.316406 25.636719 20.347656 C 25.691406 20.355469 25.746094 20.367188 25.804688 20.386719 Z M 25.804688 20.386719 "/>
<path style=" stroke:none;fill-rule:nonzero;fill:rgb(0%,58.823529%,27.058824%);fill-opacity:1;" d="M 26.0625 15.703125 C 25.9375 15.527344 25.828125 15.394531 25.75 15.304688 C 25.71875 15.265625 25.691406 15.234375 25.667969 15.214844 C 25.628906 15.40625 25.496094 16.003906 25.371094 16.574219 C 25.339844 16.703125 25.328125 16.828125 25.328125 16.945312 C 25.328125 17.378906 25.5 17.742188 25.722656 18.085938 C 25.867188 17.984375 26.011719 17.878906 26.148438 17.78125 C 26.148438 17.140625 25.886719 15.96875 25.886719 15.96875 C 25.886719 15.96875 26.265625 17.023438 26.324219 17.65625 C 26.328125 17.652344 26.335938 17.648438 26.34375 17.644531 C 26.375 17.546875 26.398438 17.429688 26.402344 17.289062 C 26.402344 17.246094 26.398438 17.199219 26.390625 17.148438 C 26.375 16.996094 26.363281 16.84375 26.363281 16.691406 C 26.363281 16.550781 26.375 16.410156 26.398438 16.273438 C 26.285156 16.050781 26.167969 15.859375 26.0625 15.703125 Z M 26.0625 15.703125 "/>
<path style=" stroke:none;fill-rule:nonzero;fill:rgb(0%,58.823529%,27.058824%);fill-opacity:1;" d="M 28.757812 17.671875 C 29.144531 17.234375 29.550781 16.773438 29.679688 16.628906 C 29.660156 16.625 29.632812 16.621094 29.597656 16.617188 C 29.503906 16.609375 29.363281 16.597656 29.1875 16.597656 C 28.851562 16.597656 28.386719 16.636719 27.84375 16.777344 C 27.84375 16.777344 27.84375 16.78125 27.84375 16.78125 C 27.742188 17.214844 27.324219 17.519531 26.933594 17.722656 C 26.933594 17.753906 26.929688 17.785156 26.925781 17.816406 C 27.015625 17.746094 27.109375 17.679688 27.203125 17.613281 C 27.695312 17.261719 28.945312 16.894531 28.945312 16.894531 C 28.945312 16.894531 27.746094 17.417969 27.257812 17.796875 C 27.0625 17.953125 26.984375 18.132812 26.957031 18.292969 C 27.011719 18.285156 27.066406 18.28125 27.128906 18.28125 C 27.722656 18.273438 28.296875 18.1875 28.757812 17.671875 Z M 28.757812 17.671875 "/>
<path style=" stroke:none;fill-rule:nonzero;fill:rgb(0%,58.823529%,27.058824%);fill-opacity:1;" d="M 28.730469 14.882812 C 28.875 14.335938 28.921875 13.84375 28.921875 13.449219 C 28.921875 13.144531 28.894531 12.898438 28.867188 12.726562 C 28.851562 12.636719 28.839844 12.570312 28.828125 12.523438 C 28.695312 12.667969 28.273438 13.113281 27.871094 13.535156 C 27.523438 13.90625 27.410156 14.320312 27.394531 14.746094 C 27.621094 14.492188 27.78125 14.308594 27.78125 14.308594 L 27.824219 14.261719 L 27.839844 14.320312 C 27.84375 14.324219 27.910156 14.539062 27.953125 14.910156 C 28.273438 14.339844 28.628906 13.28125 28.628906 13.28125 C 28.628906 13.28125 28.371094 14.558594 28.066406 15.078125 C 28.039062 15.125 28.007812 15.171875 27.980469 15.21875 C 27.984375 15.3125 27.988281 15.40625 27.988281 15.507812 C 27.988281 15.558594 27.988281 15.613281 27.984375 15.667969 C 28.320312 15.484375 28.640625 15.226562 28.730469 14.882812 Z M 28.730469 14.882812 "/>
<path style=" stroke:none;fill-rule:nonzero;fill:rgb(0%,58.823529%,27.058824%);fill-opacity:1;" d="M 26.824219 13.773438 C 26.695312 13.601562 26.582031 13.472656 26.5 13.382812 C 26.464844 13.347656 26.4375 13.320312 26.414062 13.296875 C 26.378906 13.492188 26.269531 14.09375 26.164062 14.667969 C 26.144531 14.777344 26.132812 14.882812 26.132812 14.984375 C 26.132812 15.375 26.273438 15.707031 26.464844 16.011719 C 26.535156 15.800781 26.644531 15.597656 26.816406 15.402344 C 26.851562 15.363281 26.886719 15.324219 26.921875 15.285156 C 26.828125 14.691406 26.660156 14.042969 26.660156 14.042969 C 26.660156 14.042969 26.882812 14.605469 27.035156 15.15625 C 27.132812 15.042969 27.230469 14.929688 27.320312 14.828125 C 27.324219 14.761719 27.328125 14.691406 27.332031 14.621094 C 27.164062 14.273438 26.984375 13.992188 26.824219 13.773438 Z M 26.824219 13.773438 "/>
<path style=" stroke:none;fill-rule:nonzero;fill:rgb(0%,58.823529%,27.058824%);fill-opacity:1;" d="M 28 16.375 C 28.011719 16.375 28.019531 16.375 28.03125 16.375 C 28.070312 16.378906 28.109375 16.378906 28.144531 16.378906 C 28.699219 16.378906 29.234375 16.289062 29.679688 15.824219 C 30.082031 15.402344 30.503906 14.957031 30.640625 14.8125 C 30.609375 14.808594 30.566406 14.800781 30.511719 14.792969 C 30.386719 14.78125 30.207031 14.765625 29.980469 14.765625 C 29.664062 14.765625 29.257812 14.792969 28.796875 14.898438 C 28.796875 14.898438 28.796875 14.902344 28.796875 14.902344 C 28.691406 15.285156 28.339844 15.558594 27.984375 15.75 C 27.980469 15.769531 27.980469 15.789062 27.980469 15.8125 C 28.03125 15.777344 28.078125 15.742188 28.128906 15.710938 C 28.632812 15.375 29.894531 15.054688 29.894531 15.054688 C 29.894531 15.054688 28.679688 15.535156 28.179688 15.898438 C 28.074219 15.972656 28 16.058594 27.949219 16.144531 C 27.941406 16.21875 27.929688 16.300781 27.917969 16.378906 C 27.945312 16.378906 27.972656 16.375 28 16.375 Z M 28 16.375 "/>
<path style=" stroke:none;fill-rule:nonzero;fill:rgb(0%,58.823529%,27.058824%);fill-opacity:1;" d="M 29.335938 12.382812 C 29.335938 12.363281 29.335938 12.34375 29.332031 12.324219 C 29.28125 11.601562 29.105469 11.023438 28.941406 10.625 C 28.859375 10.425781 28.777344 10.269531 28.722656 10.167969 C 28.695312 10.121094 28.675781 10.085938 28.660156 10.0625 C 28.578125 10.242188 28.324219 10.796875 28.082031 11.328125 C 27.972656 11.574219 27.929688 11.804688 27.929688 12.027344 C 27.929688 12.386719 28.042969 12.730469 28.1875 13.066406 C 28.191406 13.074219 28.195312 13.082031 28.195312 13.089844 C 28.347656 12.929688 28.484375 12.785156 28.59375 12.671875 C 28.726562 12.042969 28.714844 10.84375 28.714844 10.84375 C 28.714844 10.84375 28.84375 11.808594 28.804688 12.449219 C 28.816406 12.4375 28.824219 12.429688 28.824219 12.429688 L 28.863281 12.386719 L 28.882812 12.445312 C 28.882812 12.445312 28.960938 12.726562 28.984375 13.191406 C 29.183594 12.949219 29.335938 12.667969 29.335938 12.382812 Z M 29.335938 12.382812 "/>
<path style=" stroke:none;fill-rule:nonzero;fill:rgb(0%,58.823529%,27.058824%);fill-opacity:1;" d="M 27.171875 11.898438 C 26.992188 11.773438 26.84375 11.6875 26.738281 11.632812 C 26.691406 11.609375 26.65625 11.589844 26.628906 11.578125 C 26.660156 11.773438 26.75 12.378906 26.835938 12.957031 C 26.910156 13.441406 27.152344 13.773438 27.460938 14.046875 C 27.539062 13.851562 27.652344 13.664062 27.820312 13.488281 C 27.828125 13.480469 27.835938 13.472656 27.84375 13.464844 C 27.554688 12.890625 27.101562 12.207031 27.101562 12.207031 C 27.101562 12.207031 27.625 12.8125 27.957031 13.34375 C 28.019531 13.277344 28.082031 13.210938 28.144531 13.144531 C 28.136719 13.128906 28.128906 13.113281 28.125 13.09375 C 28.042969 12.910156 27.972656 12.722656 27.925781 12.53125 C 27.652344 12.257812 27.390625 12.050781 27.171875 11.898438 Z M 27.171875 11.898438 "/>
<path style=" stroke:none;fill-rule:nonzero;fill:rgb(0%,58.823529%,27.058824%);fill-opacity:1;" d="M 30.539062 12.902344 C 30.78125 12.371094 31.035156 11.816406 31.117188 11.636719 C 31.085938 11.640625 31.046875 11.648438 31 11.660156 C 30.707031 11.71875 30.097656 11.886719 29.402344 12.316406 C 29.402344 12.316406 29.402344 12.320312 29.402344 12.320312 C 29.402344 12.339844 29.40625 12.363281 29.40625 12.382812 C 29.402344 12.71875 29.214844 13.035156 28.988281 13.296875 C 28.988281 13.316406 28.988281 13.339844 28.988281 13.359375 C 29.003906 13.339844 29.019531 13.320312 29.035156 13.300781 C 29.402344 12.824219 30.488281 12.109375 30.488281 12.109375 C 30.488281 12.109375 29.496094 12.957031 29.140625 13.464844 C 29 13.667969 28.976562 13.863281 29 14.027344 C 29.046875 14.003906 29.101562 13.984375 29.15625 13.964844 C 29.726562 13.78125 30.25 13.53125 30.539062 12.902344 Z M 30.539062 12.902344 "/>
<path style=" stroke:none;fill-rule:nonzero;fill:rgb(0%,58.823529%,27.058824%);fill-opacity:1;" d="M 30.359375 13.910156 C 30.316406 13.90625 30.25 13.902344 30.160156 13.902344 C 29.96875 13.902344 29.675781 13.917969 29.320312 13.984375 C 29.273438 14 29.226562 14.015625 29.179688 14.03125 C 29.089844 14.058594 29.011719 14.09375 28.945312 14.132812 C 28.929688 14.265625 28.90625 14.402344 28.878906 14.542969 C 29.28125 14.363281 29.640625 14.230469 29.640625 14.230469 C 29.640625 14.230469 29.261719 14.425781 28.851562 14.671875 C 28.839844 14.722656 28.828125 14.773438 28.816406 14.820312 C 29.167969 14.746094 29.484375 14.710938 29.753906 14.699219 C 30.023438 14.347656 30.265625 14.03125 30.359375 13.910156 Z M 30.359375 13.910156 "/>
<path style=" stroke:none;fill-rule:nonzero;fill:rgb(0%,58.823529%,27.058824%);fill-opacity:1;" d="M 27.953125 19.039062 C 28.488281 18.804688 29.050781 18.5625 29.230469 18.484375 C 29.207031 18.46875 29.171875 18.445312 29.128906 18.421875 C 28.976562 18.332031 28.722656 18.199219 28.375 18.074219 C 28.132812 18.214844 27.875 18.285156 27.613281 18.320312 C 28.058594 18.355469 28.449219 18.414062 28.449219 18.414062 C 28.449219 18.414062 27.46875 18.386719 26.816406 18.472656 C 26.773438 18.65625 26.71875 18.855469 26.644531 19.070312 C 26.675781 19.078125 26.707031 19.089844 26.742188 19.097656 C 27.015625 19.105469 27.265625 19.128906 27.496094 19.164062 C 27.644531 19.144531 27.796875 19.105469 27.953125 19.039062 Z M 27.953125 19.039062 "/>
<path style=" stroke:none;fill-rule:nonzero;fill:rgb(0%,0%,0%);fill-opacity:1;" d="M 23.535156 6.28125 C 22.820312 5.582031 21.960938 5.03125 21 4.667969 C 21.039062 4.613281 21.074219 4.554688 21.113281 4.5 L 23.164062 4.5 C 23.527344 5.046875 23.898438 5.605469 24.167969 6.007812 L 24.1875 6.042969 L 25.398438 6.042969 L 22.539062 1.730469 L 21.738281 1.730469 L 19.992188 4.367188 C 19.472656 4.253906 18.933594 4.191406 18.378906 4.191406 C 17.824219 4.191406 17.285156 4.253906 16.765625 4.367188 L 16.621094 4.144531 L 18.699219 4.144531 C 19.066406 4.144531 19.386719 4.09375 19.664062 3.992188 C 19.941406 3.882812 20.171875 3.734375 20.359375 3.546875 C 20.546875 3.359375 20.6875 3.136719 20.777344 2.882812 C 20.871094 2.628906 20.914062 2.347656 20.914062 2.050781 C 20.914062 1.710938 20.859375 1.410156 20.742188 1.152344 C 20.632812 0.898438 20.476562 0.683594 20.273438 0.511719 C 20.078125 0.339844 19.839844 0.210938 19.566406 0.125 C 19.296875 0.0429688 19.007812 0 18.699219 0 L 16.585938 0 L 16.585938 4.09375 L 15.015625 1.730469 L 14.21875 1.730469 L 14.199219 1.765625 L 11.359375 6.042969 L 12.570312 6.042969 L 12.589844 6.007812 C 12.859375 5.605469 13.230469 5.046875 13.59375 4.5 L 15.644531 4.5 C 15.683594 4.554688 15.71875 4.613281 15.757812 4.667969 C 14.796875 5.03125 13.9375 5.582031 13.222656 6.28125 C 11.90625 7.570312 11.089844 9.355469 11.089844 11.324219 C 11.089844 13.296875 11.90625 15.078125 13.222656 16.371094 C 13.835938 16.96875 14.558594 17.464844 15.359375 17.820312 C 16.609375 20.085938 18.25 21.277344 18.261719 21.289062 L 18.378906 21.375 L 18.496094 21.289062 C 18.511719 21.277344 20.148438 20.085938 21.398438 17.820312 C 22.195312 17.464844 22.921875 16.96875 23.535156 16.371094 C 24.851562 15.078125 25.671875 13.296875 25.667969 11.324219 C 25.667969 9.355469 24.851562 7.570312 23.535156 6.28125 Z M 19.390625 3.015625 C 19.289062 3.101562 19.171875 3.164062 19.042969 3.203125 C 18.90625 3.242188 18.769531 3.261719 18.625 3.261719 L 17.769531 3.261719 L 17.769531 0.882812 L 18.4375 0.882812 C 18.6875 0.882812 18.894531 0.914062 19.054688 0.976562 C 19.226562 1.03125 19.355469 1.113281 19.453125 1.21875 C 19.550781 1.328125 19.621094 1.457031 19.660156 1.609375 C 19.707031 1.765625 19.730469 1.9375 19.730469 2.136719 C 19.730469 2.347656 19.699219 2.523438 19.636719 2.667969 C 19.574219 2.8125 19.492188 2.925781 19.390625 3.015625 Z M 14.976562 3.492188 L 14.261719 3.492188 C 14.402344 3.28125 14.523438 3.09375 14.617188 2.953125 C 14.710938 3.09375 14.835938 3.28125 14.976562 3.492188 Z M 22.496094 3.492188 L 21.78125 3.492188 C 21.921875 3.28125 22.046875 3.09375 22.140625 2.953125 C 22.234375 3.09375 22.355469 3.28125 22.496094 3.492188 Z M 22.496094 3.492188 "/>
<path style=" stroke:none;fill-rule:nonzero;fill:rgb(96.862745%,87.843137%,9.019608%);fill-opacity:1;" d="M 14.941406 1.875 L 14.296875 1.875 L 11.628906 5.898438 L 12.492188 5.898438 C 12.765625 5.488281 13.132812 4.929688 13.492188 4.386719 L 13.515625 4.355469 L 15.722656 4.355469 L 15.742188 4.386719 C 15.792969 4.464844 15.84375 4.539062 15.894531 4.617188 C 16.128906 4.535156 16.371094 4.460938 16.617188 4.402344 Z M 14.128906 3.636719 L 13.992188 3.636719 L 14.066406 3.523438 C 14.273438 3.214844 14.445312 2.953125 14.558594 2.785156 L 14.617188 2.695312 L 14.679688 2.785156 C 14.789062 2.953125 14.964844 3.214844 15.171875 3.523438 L 15.246094 3.636719 Z M 14.128906 3.636719 "/>
<path style=" stroke:none;fill-rule:nonzero;fill:rgb(96.862745%,87.843137%,9.019608%);fill-opacity:1;" d="M 21.015625 4.386719 L 21.035156 4.355469 L 23.242188 4.355469 L 23.265625 4.386719 C 23.621094 4.929688 23.992188 5.488281 24.265625 5.898438 L 25.128906 5.898438 L 22.460938 1.875 L 21.816406 1.875 L 20.140625 4.402344 C 20.386719 4.460938 20.628906 4.535156 20.863281 4.617188 C 20.914062 4.539062 20.964844 4.464844 21.015625 4.386719 Z M 21.585938 3.523438 C 21.792969 3.214844 21.96875 2.953125 22.078125 2.785156 L 22.136719 2.695312 L 22.199219 2.785156 C 22.3125 2.953125 22.484375 3.214844 22.691406 3.523438 L 22.765625 3.636719 L 21.511719 3.636719 Z M 21.585938 3.523438 "/>
<path style=" stroke:none;fill-rule:nonzero;fill:rgb(96.862745%,87.843137%,9.019608%);fill-opacity:1;" d="M 19.613281 3.855469 C 19.875 3.753906 20.085938 3.617188 20.253906 3.445312 L 20.308594 3.496094 L 20.257812 3.445312 C 20.429688 3.273438 20.558594 3.070312 20.644531 2.832031 C 20.726562 2.597656 20.769531 2.335938 20.769531 2.050781 C 20.769531 1.726562 20.71875 1.445312 20.609375 1.210938 C 20.507812 0.972656 20.367188 0.777344 20.179688 0.621094 C 20 0.460938 19.78125 0.34375 19.523438 0.265625 C 19.269531 0.183594 18.996094 0.144531 18.699219 0.144531 L 16.730469 0.144531 L 16.730469 4.003906 L 18.699219 4.003906 C 19.054688 4.003906 19.359375 3.953125 19.613281 3.855469 Z M 17.625 3.40625 L 17.625 0.738281 L 18.4375 0.738281 C 18.699219 0.738281 18.921875 0.773438 19.105469 0.839844 C 19.289062 0.902344 19.441406 0.996094 19.558594 1.121094 C 19.671875 1.246094 19.753906 1.398438 19.800781 1.570312 C 19.851562 1.738281 19.875 1.925781 19.875 2.136719 C 19.875 2.363281 19.839844 2.558594 19.769531 2.722656 C 19.699219 2.886719 19.605469 3.019531 19.488281 3.125 L 19.4375 3.070312 L 19.484375 3.125 C 19.367188 3.226562 19.230469 3.296875 19.082031 3.34375 C 18.933594 3.386719 18.78125 3.40625 18.625 3.40625 Z M 17.625 3.40625 "/>
<path style=" stroke:none;fill-rule:nonzero;fill:rgb(100%,100%,100%);fill-opacity:1;" d="M 24.933594 11.464844 C 25.078125 11.355469 25.320312 11.140625 25.519531 10.960938 C 25.527344 11.082031 25.527344 11.203125 25.527344 11.324219 C 25.527344 12.976562 24.945312 14.492188 23.964844 15.691406 C 24.097656 15.175781 24.027344 14.757812 23.980469 14.566406 C 24.144531 14.328125 24.351562 13.953125 24.472656 13.449219 C 24.632812 12.789062 24.691406 11.996094 24.710938 11.632812 C 24.757812 11.597656 24.828125 11.542969 24.933594 11.464844 Z M 24.933594 11.464844 "/>
<path style=" stroke:none;fill-rule:nonzero;fill:rgb(100%,100%,100%);fill-opacity:1;" d="M 23.4375 6.382812 C 23.761719 6.703125 24.058594 7.054688 24.316406 7.429688 C 23.90625 7.285156 23.539062 7.222656 23.347656 7.195312 C 23.140625 6.914062 22.824219 6.558594 22.371094 6.242188 C 21.695312 5.777344 21.0625 5.574219 20.761719 5.5 C 20.652344 5.304688 20.390625 4.878906 20.152344 4.613281 C 20.128906 4.585938 20.097656 4.558594 20.070312 4.53125 C 21.363281 4.835938 22.523438 5.488281 23.4375 6.382812 Z M 23.4375 6.382812 "/>
<path style=" stroke:none;fill-rule:nonzero;fill:rgb(100%,100%,100%);fill-opacity:1;" d="M 19.695312 5.773438 C 20.066406 5.664062 20.410156 5.625 20.617188 5.609375 C 20.640625 5.613281 20.667969 5.621094 20.703125 5.628906 C 20.976562 5.695312 21.617188 5.890625 22.292969 6.359375 C 22.742188 6.667969 23.050781 7.023438 23.25 7.300781 C 23.292969 7.355469 23.328125 7.410156 23.359375 7.460938 C 23.382812 7.585938 23.398438 7.765625 23.386719 8.023438 C 23.359375 8.652344 23.183594 9.195312 23.105469 9.40625 L 23.101562 9.296875 L 19.742188 9.296875 C 19.34375 8.945312 18.796875 8.589844 18.625 8.480469 C 18.652344 8.238281 18.675781 7.929688 18.675781 7.636719 C 18.675781 7.199219 18.570312 6.683594 18.507812 6.417969 C 18.699219 6.277344 19.21875 5.914062 19.695312 5.773438 Z M 19.695312 5.773438 "/>
<path style=" stroke:none;fill-rule:nonzero;fill:rgb(100%,100%,100%);fill-opacity:1;" d="M 18.363281 6.425781 C 18.382812 6.507812 18.40625 6.613281 18.433594 6.742188 C 18.484375 7.007812 18.535156 7.34375 18.535156 7.636719 C 18.535156 7.925781 18.511719 8.234375 18.484375 8.472656 C 18.394531 8.503906 18.230469 8.585938 18.011719 8.761719 C 17.808594 8.921875 17.457031 9.140625 17.191406 9.296875 L 13.933594 9.300781 C 13.832031 9.148438 13.6875 8.855469 13.6875 8.410156 C 13.6875 7.9375 13.890625 7.453125 14.027344 7.183594 C 14.203125 6.925781 14.488281 6.617188 14.957031 6.324219 C 15.300781 6.109375 15.800781 5.90625 16.207031 5.761719 C 16.253906 5.746094 16.296875 5.730469 16.339844 5.714844 C 16.652344 5.785156 17.222656 5.921875 17.660156 6.089844 C 18.070312 6.25 18.273438 6.363281 18.363281 6.425781 Z M 18.363281 6.425781 "/>
<path style=" stroke:none;fill-rule:nonzero;fill:rgb(100%,100%,100%);fill-opacity:1;" d="M 13.324219 6.382812 C 14.273438 5.453125 15.492188 4.78125 16.855469 4.492188 C 16.695312 4.679688 16.46875 4.972656 16.359375 5.210938 C 16.238281 5.476562 16.167969 5.589844 16.136719 5.640625 C 15.726562 5.785156 15.234375 5.984375 14.878906 6.207031 C 14.460938 6.46875 14.179688 6.746094 13.992188 6.996094 C 13.878906 7.023438 13.707031 7.074219 13.441406 7.179688 C 13.140625 7.300781 12.773438 7.328125 12.511719 7.332031 C 12.753906 6.992188 13.023438 6.671875 13.324219 6.382812 Z M 13.324219 6.382812 "/>
<path style=" stroke:none;fill-rule:nonzero;fill:rgb(100%,100%,100%);fill-opacity:1;" d="M 13.046875 15.980469 C 11.914062 14.746094 11.230469 13.113281 11.230469 11.324219 C 11.230469 11.167969 11.234375 11.007812 11.246094 10.851562 C 11.3125 10.886719 11.378906 10.929688 11.441406 10.972656 C 11.640625 11.125 11.945312 11.488281 12.105469 11.6875 C 12.125 12.089844 12.191406 12.722656 12.425781 13.386719 C 12.625 13.945312 12.875 14.375 13.078125 14.664062 C 13.054688 14.886719 13.003906 15.429688 13.046875 15.980469 Z M 13.046875 15.980469 "/>
<path style=" stroke:none;fill-rule:nonzero;fill:rgb(100%,100%,100%);fill-opacity:1;" d="M 13.207031 14.605469 C 13.011719 14.324219 12.757812 13.898438 12.558594 13.339844 C 12.328125 12.683594 12.261719 12.054688 12.246094 11.664062 C 12.300781 11.484375 12.425781 11.148438 12.738281 10.65625 C 13.007812 10.238281 13.367188 9.910156 13.640625 9.699219 C 13.640625 9.773438 13.640625 9.863281 13.640625 9.96875 C 13.640625 10.839844 13.707031 12.78125 14.238281 14.90625 C 14.195312 14.894531 14.152344 14.886719 14.109375 14.875 C 13.652344 14.757812 13.359375 14.660156 13.207031 14.605469 Z M 13.207031 14.605469 "/>
<path style=" stroke:none;fill-rule:nonzero;fill:rgb(100%,100%,100%);fill-opacity:1;" d="M 22.472656 15.097656 C 23.046875 12.902344 23.117188 10.863281 23.117188 9.96875 C 23.117188 9.730469 23.113281 9.574219 23.109375 9.515625 C 23.207031 9.558594 23.46875 9.710938 23.878906 10.203125 C 24.273438 10.675781 24.492188 11.289062 24.574219 11.566406 C 24.570312 11.683594 24.558594 11.871094 24.535156 12.097656 C 24.5 12.484375 24.441406 12.984375 24.335938 13.417969 C 24.234375 13.847656 24.0625 14.183594 23.914062 14.410156 C 23.878906 14.46875 23.839844 14.523438 23.808594 14.566406 C 23.722656 14.621094 23.59375 14.699219 23.386719 14.804688 C 23.042969 14.976562 22.667969 15.0625 22.472656 15.097656 Z M 22.472656 15.097656 "/>
<path style=" stroke:none;fill-rule:nonzero;fill:rgb(0%,36.862745%,76.862745%);fill-opacity:1;" d="M 22.59375 9.820312 L 14.039062 9.820312 C 14.039062 9.867188 14.039062 9.914062 14.039062 9.96875 C 14.039062 10.894531 14.117188 13.09375 14.777344 15.382812 C 15.683594 18.550781 17.851562 20.449219 18.378906 20.875 C 18.453125 20.816406 18.558594 20.726562 18.691406 20.609375 C 18.957031 20.371094 19.324219 20.011719 19.726562 19.539062 C 20.429688 18.710938 21.238281 17.527344 21.777344 16.019531 C 21.804688 15.933594 21.828125 15.84375 21.855469 15.757812 C 22.734375 12.699219 22.59375 9.820312 22.59375 9.820312 Z M 22.59375 9.820312 "/>
<path style=" stroke:none;fill-rule:nonzero;fill:rgb(100%,100%,100%);fill-opacity:1;" d="M 18.378906 20.875 C 18.453125 20.816406 18.558594 20.726562 18.691406 20.609375 C 18.957031 20.371094 19.324219 20.011719 19.726562 19.539062 C 19.929688 19.300781 20.144531 19.027344 20.359375 18.726562 L 20.261719 18.851562 C 20.261719 18.851562 19.699219 18.867188 19.484375 19.078125 C 19.265625 19.289062 19.890625 18.578125 20.023438 18.535156 C 20.160156 18.496094 20.117188 18.621094 20.230469 18.621094 C 20.3125 18.621094 20.472656 18.496094 20.566406 18.425781 C 20.945312 17.851562 21.3125 17.1875 21.617188 16.4375 C 21.601562 16.40625 21.589844 16.378906 21.578125 16.347656 C 21.554688 16.28125 21.515625 16.234375 21.472656 16.207031 C 21.417969 16.203125 21.296875 16.207031 21.261719 16.308594 C 21.21875 16.445312 20.898438 16.773438 20.726562 16.855469 C 20.71875 16.859375 20.710938 16.859375 20.703125 16.863281 C 20.585938 16.980469 20.394531 17.0625 20.097656 17.183594 C 19.773438 17.320312 19.722656 17.390625 19.691406 17.515625 C 19.664062 17.613281 19.703125 17.671875 19.722656 17.691406 C 19.683594 17.652344 19.53125 17.507812 19.398438 17.515625 C 19.242188 17.527344 19.222656 17.464844 19.222656 17.464844 C 19.222656 17.464844 19.472656 17.359375 19.578125 17.277344 C 19.679688 17.195312 19.667969 17.046875 19.667969 17.046875 C 19.667969 17.046875 20.003906 17.191406 20.128906 17.003906 C 20.253906 16.820312 19.949219 16.9375 19.917969 16.746094 C 19.886719 16.558594 19.929688 16.414062 19.835938 16.328125 C 19.742188 16.246094 20.210938 16.050781 20.210938 16.050781 L 20.046875 16.269531 C 20.046875 16.269531 20.222656 16.707031 20.316406 16.695312 C 20.410156 16.683594 20.484375 16.65625 20.628906 16.550781 C 20.773438 16.445312 20.921875 16.207031 20.921875 16.207031 L 20.917969 16.226562 C 20.933594 16.203125 20.949219 16.1875 20.964844 16.175781 C 20.972656 16.171875 20.976562 16.167969 20.984375 16.164062 C 20.984375 16.152344 20.984375 16.140625 20.992188 16.125 C 21.066406 15.925781 20.777344 15.4375 20.652344 15.363281 C 20.527344 15.289062 20.554688 15.222656 20.578125 14.976562 C 20.601562 14.726562 20.015625 14.4375 20.015625 14.4375 C 20.015625 14.4375 20.007812 14.386719 19.976562 14.332031 C 19.972656 14.335938 19.96875 14.339844 19.960938 14.34375 C 19.878906 14.40625 19.816406 14.652344 19.753906 14.757812 C 19.6875 14.859375 19.277344 14.925781 19.277344 14.925781 C 19.277344 14.925781 19.378906 14.863281 19.453125 14.800781 C 19.523438 14.738281 19.585938 14.582031 19.554688 14.445312 C 19.523438 14.3125 19.597656 14.207031 19.597656 14.207031 L 19.605469 14.195312 C 19.53125 14.148438 19.492188 14.046875 19.433594 13.964844 C 19.351562 14.035156 19.257812 14.15625 19.222656 14.363281 C 19.183594 14.625 18.796875 14.578125 18.777344 14.726562 C 18.753906 14.875 18.871094 15.007812 18.703125 15.070312 C 18.535156 15.132812 17.828125 15.609375 17.808594 15.757812 C 17.785156 15.90625 17.285156 16.070312 17.285156 16.195312 C 17.285156 16.320312 17.347656 16.644531 17.191406 16.789062 C 17.039062 16.933594 16.816406 16.964844 16.816406 16.964844 C 16.816406 16.964844 16.972656 16.414062 16.867188 16.46875 C 16.765625 16.519531 16.65625 16.902344 16.484375 16.953125 C 16.316406 17.003906 16.039062 17.03125 15.882812 17.03125 C 15.722656 17.03125 15.746094 16.976562 15.746094 16.976562 C 15.746094 16.976562 15.914062 16.890625 16.007812 16.851562 C 16.101562 16.808594 16.375 16.472656 16.4375 16.296875 C 16.5 16.121094 16.757812 15.703125 16.984375 15.671875 C 17.210938 15.640625 17.683594 15.570312 17.871094 15.488281 C 18.054688 15.40625 18.503906 15.03125 18.523438 14.875 C 18.527344 14.847656 18.53125 14.800781 18.535156 14.734375 C 18.53125 14.75 18.527344 14.761719 18.527344 14.761719 C 18.527344 14.761719 18.449219 14.574219 18.347656 14.46875 C 18.253906 14.503906 18.101562 14.574219 18.132812 14.652344 C 18.171875 14.769531 18.054688 14.96875 17.921875 14.988281 C 17.785156 15.007812 17.695312 14.914062 17.539062 15.144531 C 17.378906 15.375 17.203125 15.488281 17.101562 15.46875 C 16.996094 15.445312 16.816406 15.714844 16.703125 15.777344 C 16.589844 15.839844 16.296875 15.722656 16.203125 15.871094 C 16.109375 16.019531 15.828125 16.601562 15.683594 16.675781 C 15.539062 16.746094 15.296875 16.78125 15.296875 16.78125 C 15.296875 16.78125 15.597656 16.679688 15.613281 16.527344 C 15.664062 16.023438 16.183594 15.621094 16.246094 15.621094 C 16.308594 15.621094 16.515625 15.644531 16.652344 15.601562 C 16.785156 15.5625 16.984375 15.152344 17.109375 15.152344 C 17.234375 15.152344 17.527344 14.90625 17.671875 14.863281 C 17.816406 14.824219 17.871094 14.46875 17.765625 14.4375 C 17.664062 14.40625 17.632812 14.101562 17.632812 14.101562 L 17.65625 14.113281 C 17.527344 14.015625 17.277344 14.445312 17.15625 14.6875 C 17.03125 14.933594 16.867188 14.761719 16.867188 14.761719 C 16.867188 14.761719 16.835938 14.785156 16.789062 14.824219 C 16.722656 14.921875 16.617188 15.070312 16.523438 15.140625 C 16.375 15.246094 16.246094 15.300781 16.195312 15.285156 C 16.164062 15.273438 16.238281 15.195312 16.3125 15.117188 C 16.214844 15.132812 16.128906 15.125 16.128906 15.125 C 16.128906 15.125 16.066406 15.21875 15.960938 15.316406 C 15.898438 15.410156 15.800781 15.539062 15.6875 15.59375 C 15.496094 15.683594 15.304688 15.707031 15.265625 15.871094 C 15.246094 15.960938 15.125 16.054688 15.019531 16.117188 C 16.023438 18.84375 17.894531 20.484375 18.378906 20.875 Z M 18.535156 18.207031 C 18.347656 18.269531 18.390625 18.613281 18.371094 18.789062 C 18.347656 18.964844 18.585938 19.308594 18.515625 19.421875 C 18.441406 19.539062 17.773438 19.929688 17.773438 19.929688 C 17.773438 19.929688 18.328125 19.355469 18.265625 19.125 C 18.203125 18.890625 18.152344 18.351562 18.214844 18.175781 C 18.277344 18 18.429688 18.136719 18.546875 18.007812 C 18.664062 17.882812 18.765625 17.832031 18.765625 17.832031 C 18.765625 17.832031 18.722656 18.144531 18.535156 18.207031 Z M 18.378906 15.808594 C 18.636719 15.714844 18.605469 15.554688 18.699219 15.398438 L 18.871094 15.308594 C 18.871094 15.308594 18.960938 15.488281 18.953125 15.601562 C 18.941406 15.714844 18.753906 15.765625 18.617188 15.777344 C 18.480469 15.789062 18.429688 15.914062 18.359375 15.9375 C 18.285156 15.957031 18.023438 16.019531 18.023438 16.019531 C 18.023438 16.019531 18.121094 15.90625 18.378906 15.808594 Z M 17.101562 16.953125 C 17.308594 16.914062 17.660156 16.683594 17.777344 16.683594 C 17.890625 16.683594 18.277344 16.652344 18.398438 16.632812 C 18.523438 16.613281 18.488281 16.441406 18.582031 16.410156 C 18.675781 16.378906 18.988281 16.203125 19.019531 16.015625 C 19.050781 15.828125 19.234375 15.757812 19.390625 15.683594 C 19.714844 15.535156 19.722656 15.296875 19.722656 15.296875 C 19.722656 15.296875 19.828125 15.53125 19.566406 15.632812 C 19.304688 15.738281 19.289062 16.421875 19.234375 16.570312 C 19.175781 16.71875 18.878906 16.632812 18.765625 16.632812 C 18.652344 16.632812 18.535156 16.757812 18.296875 16.769531 C 18.058594 16.777344 17.984375 16.964844 17.984375 16.964844 C 17.984375 16.964844 17.691406 17.195312 17.578125 17.132812 C 17.460938 17.070312 16.828125 16.996094 16.828125 16.996094 C 16.828125 16.996094 16.890625 16.996094 17.101562 16.953125 Z M 17.152344 18.066406 C 17.101562 18.121094 16.765625 18.199219 16.632812 18.117188 C 16.496094 18.03125 16.078125 18.132812 16.078125 18.132812 C 16.078125 18.132812 16.433594 17.859375 16.558594 17.804688 C 16.683594 17.753906 16.847656 17.921875 16.996094 17.816406 C 17.144531 17.710938 17.246094 17.589844 17.246094 17.589844 L 18.125 17.191406 C 18.125 17.191406 17.398438 17.671875 17.316406 17.742188 C 17.234375 17.816406 17.203125 18.015625 17.152344 18.066406 Z M 17.152344 18.066406 "/>
<path style=" stroke:none;fill-rule:nonzero;fill:rgb(0%,0%,0%);fill-opacity:1;" d="M 17.351562 10.984375 C 17.351562 10.984375 17.746094 11.0625 17.875 11.050781 C 18.003906 11.039062 18.203125 11.039062 18.292969 11.152344 C 18.382812 11.269531 18.507812 11.476562 18.84375 11.359375 C 19.179688 11.242188 19.253906 11.167969 19.625 11.089844 C 19.992188 11.011719 20.042969 10.695312 20.503906 10.550781 C 20.964844 10.410156 20.960938 10.460938 21.054688 10.386719 L 21.054688 10.527344 C 21.054688 10.527344 21.1875 10.410156 21.351562 10.359375 C 21.511719 10.308594 21.601562 10.15625 21.601562 10.15625 C 21.601562 10.15625 21.667969 10.296875 21.628906 10.425781 C 21.628906 10.425781 21.777344 10.28125 21.925781 10.28125 C 21.925781 10.28125 21.835938 10.371094 21.808594 10.488281 C 21.785156 10.605469 21.785156 10.605469 21.785156 10.605469 L 22.175781 10.4375 C 22.175781 10.4375 22.109375 10.628906 22.035156 10.695312 L 22.214844 10.8125 C 22.214844 10.8125 22.066406 10.894531 21.949219 10.894531 C 21.835938 10.894531 21.859375 10.894531 21.859375 10.894531 C 21.859375 10.894531 21.976562 10.984375 21.988281 11.128906 C 22.003906 11.269531 22.011719 11.269531 22.011719 11.269531 C 22.011719 11.269531 21.910156 11.113281 21.757812 11.113281 C 21.757812 11.113281 21.71875 11.300781 21.71875 11.371094 C 21.71875 11.371094 21.589844 11.328125 21.578125 11.40625 C 21.5625 11.484375 21.453125 11.535156 21.363281 11.535156 C 21.273438 11.535156 21.324219 11.714844 21.195312 11.742188 C 21.066406 11.765625 20.941406 11.722656 20.828125 11.859375 C 20.710938 11.992188 20.722656 11.992188 20.722656 11.992188 C 20.722656 11.992188 20.542969 11.890625 20.453125 12.03125 C 20.363281 12.175781 20.328125 12.160156 20.238281 12.199219 C 20.148438 12.238281 20.148438 12.328125 19.992188 12.328125 C 19.839844 12.328125 19.675781 12.269531 19.675781 12.433594 C 19.675781 12.59375 19.953125 12.699219 20.070312 12.773438 C 20.1875 12.851562 20.425781 13.003906 20.492188 13.105469 C 20.554688 13.210938 20.367188 13.246094 20.289062 13.285156 C 20.210938 13.324219 20.199219 13.375 20.226562 13.441406 C 20.25 13.503906 20.136719 13.441406 20.109375 13.492188 C 20.082031 13.542969 19.941406 13.46875 19.917969 13.542969 C 19.890625 13.621094 19.753906 13.570312 19.675781 13.570312 C 19.597656 13.570312 19.457031 13.519531 19.378906 13.46875 C 19.300781 13.414062 19.285156 13.503906 19.238281 13.351562 C 19.191406 13.195312 19.242188 13.125 19.140625 13.058594 C 19.035156 12.996094 19.074219 12.957031 18.984375 12.8125 C 18.894531 12.671875 18.855469 12.570312 18.816406 12.644531 C 18.777344 12.722656 18.667969 12.851562 18.578125 12.917969 C 18.488281 12.980469 18.566406 12.828125 18.433594 12.917969 C 18.308594 13.007812 18.269531 12.851562 18.191406 12.878906 C 18.113281 12.90625 17.988281 13.019531 17.910156 13.019531 C 17.835938 13.019531 17.746094 13.070312 17.667969 13.058594 C 17.589844 13.046875 17.519531 13.117188 17.386719 13.117188 C 17.257812 13.117188 17.191406 13.117188 17.054688 13.167969 C 16.917969 13.222656 16.8125 13.15625 16.660156 13.234375 C 16.503906 13.3125 16.578125 13.078125 16.402344 13.167969 C 16.226562 13.261719 16.238281 13.246094 16.097656 13.234375 C 15.953125 13.222656 15.890625 13.261719 15.890625 13.261719 C 15.890625 13.261719 15.792969 13.179688 15.742188 13.117188 C 15.742188 13.117188 15.484375 13.222656 15.390625 13.195312 C 15.300781 13.167969 15.320312 13.078125 15.191406 13.09375 C 15.0625 13.105469 14.972656 13.085938 14.894531 13.078125 C 14.816406 13.070312 14.96875 12.878906 14.832031 12.917969 C 14.695312 12.957031 14.578125 12.90625 14.578125 12.90625 C 14.578125 12.90625 14.875 12.8125 14.742188 12.761719 C 14.601562 12.710938 14.421875 12.59375 14.421875 12.59375 L 14.617188 12.554688 L 14.550781 12.417969 C 14.550781 12.417969 14.855469 12.484375 15.035156 12.445312 C 15.21875 12.40625 15.242188 12.316406 15.242188 12.316406 C 15.242188 12.316406 15.605469 12.378906 15.953125 12.328125 C 16.304688 12.277344 16.378906 12.277344 16.378906 12.277344 C 16.378906 12.277344 17.332031 11.910156 17.679688 11.792969 C 18.027344 11.675781 17.820312 11.566406 17.707031 11.386719 C 17.589844 11.203125 17.351562 10.984375 17.351562 10.984375 "/>
</g>
</svg>
