<?xml version="1.0" encoding="UTF-8"?>
<svg xmlns="http://www.w3.org/2000/svg" xmlns:xlink="http://www.w3.org/1999/xlink" width="17pt" height="25pt" viewBox="0 0 17 25" version="1.1">
<defs>
<linearGradient id="linear0" gradientUnits="userSpaceOnUse" x1="98.8706" y1="168.2102" x2="145.7964" y2="168.2102" >
<stop offset="0" style="stop-color:rgb(97.254902%,68.627451%,9.803922%);stop-opacity:1;"/>
<stop offset="1" style="stop-color:rgb(100%,82.745098%,0%);stop-opacity:1;"/>
</linearGradient>
<linearGradient id="linear1" gradientUnits="userSpaceOnUse" x1="145.1626" y1="127.5779" x2="192.0879" y2="127.5779" >
<stop offset="0" style="stop-color:rgb(97.254902%,68.627451%,9.803922%);stop-opacity:1;"/>
<stop offset="1" style="stop-color:rgb(100%,82.745098%,0%);stop-opacity:1;"/>
</linearGradient>
<linearGradient id="linear2" gradientUnits="userSpaceOnUse" x1="191.4541" y1="168.2102" x2="238.3799" y2="168.2102" >
<stop offset="0" style="stop-color:rgb(97.254902%,68.627451%,9.803922%);stop-opacity:1;"/>
<stop offset="1" style="stop-color:rgb(100%,82.745098%,0%);stop-opacity:1;"/>
</linearGradient>
</defs>
<g id="surface1">
<path style="fill-rule:nonzero;fill:rgb(0%,0%,0%);fill-opacity:1;stroke-width:0.0285;stroke-linecap:butt;stroke-linejoin:miter;stroke:rgb(0%,0%,0%);stroke-opacity:1;stroke-miterlimit:1;" d="M 168.654871 485.848125 C 162.537454 468.68625 155.64568 451.3725 147.902114 434.210625 C 119.173483 370.423125 82.236673 315.064687 41.660386 271.324687 C 59.238281 255.45375 69.692096 235.937812 69.692096 214.903125 C 69.692096 180.351562 41.737822 150.0525 0 133.0425 C 9.9892 92.491875 33.529642 57.180938 65.588006 32.1975 C 68.607996 61.509375 82.623851 83.835 99.42739 83.835 C 99.504825 83.835 99.582261 83.835 99.659697 83.835 L 105.777114 83.835 C 116.850414 83.683125 126.762178 77.684063 132.957031 68.419688 C 133.189338 68.115938 133.421645 67.660313 133.576517 67.12875 C 133.808824 66.065625 133.886259 64.622813 133.576517 63.18 C 133.266774 61.66125 132.724724 60.370313 132.027803 59.459063 C 124.361673 49.359375 119.328355 32.121563 119.328355 12.605625 C 119.328355 8.277188 119.560662 4.100625 120.025276 0.000000000000028422 C 135.047794 8.125313 147.127757 20.882813 154.40671 36.298125 C 157.349265 35.159063 162.61489 34.475625 168.577436 34.475625 C 168.577436 34.475625 168.577436 34.475625 168.654871 34.475625 C 168.654871 34.475625 168.654871 34.475625 168.732307 34.475625 C 174.617417 34.475625 179.883042 35.159063 182.903033 36.298125 C 190.10455 20.882813 202.261949 8.125313 217.207031 0.000000000000028422 C 217.671645 4.100625 217.903952 8.277188 217.903952 12.605625 C 217.903952 32.121563 212.870634 49.359375 205.204504 59.459063 C 204.507583 60.370313 203.965533 61.66125 203.65579 63.18 C 203.423483 64.622813 203.423483 66.065625 203.65579 67.12875 C 203.810662 67.660313 204.042969 68.115938 204.352711 68.419688 C 210.470129 77.684063 220.381893 83.683125 231.532629 83.835 C 231.532629 83.835 231.532629 83.835 231.610064 83.835 L 237.57261 83.835 C 237.650046 83.835 237.727482 83.835 237.804917 83.835 C 254.608456 83.835 268.701746 61.509375 271.644301 32.1975 C 303.702665 57.180938 327.243107 92.491875 337.232307 133.0425 C 295.494485 150.0525 267.617647 180.351562 267.617647 214.903125 C 267.617647 235.937812 277.994026 255.45375 295.571921 271.324687 C 254.995634 315.064687 218.058824 370.423125 189.330193 434.210625 C 181.586627 451.3725 174.694853 468.68625 168.654871 485.848125 Z M 168.654871 485.848125 " transform="matrix(0.0504451,0,0,0.0514403,0,-0.000000000000001462)"/>
<path style="fill:none;stroke-width:0.0285;stroke-linecap:butt;stroke-linejoin:miter;stroke:rgb(0%,0%,0%);stroke-opacity:1;stroke-miterlimit:1;" d="M 168.654871 485.848125 L 168.654871 485.848125 " transform="matrix(0.0504451,0,0,0.0514403,0,-0.000000000000001462)"/>
<path style=" stroke:none;fill-rule:nonzero;fill:rgb(100%,100%,100%);fill-opacity:1;" d="M 8.507812 24.121094 L 2.152344 4.722656 L 14.859375 4.722656 Z M 8.507812 24.121094 "/>
<path style=" stroke:none;fill-rule:nonzero;fill:rgb(67.058824%,10.588235%,14.509804%);fill-opacity:1;" d="M 2.433594 4.929688 L 14.578125 4.929688 L 8.507812 23.472656 Z M 2.433594 4.929688 "/>
<path style=" stroke:none;fill-rule:nonzero;fill:rgb(100%,100%,100%);fill-opacity:1;" d="M 14 5.355469 L 8.507812 22.128906 L 3.011719 5.355469 Z M 14 5.355469 "/>
<path style="fill-rule:nonzero;fill:rgb(0%,0%,0%);fill-opacity:1;stroke-width:0.4348;stroke-linecap:butt;stroke-linejoin:miter;stroke:rgb(0%,0%,0%);stroke-opacity:1;stroke-miterlimit:1;" d="M 186.774816 208.904062 L 224.795726 208.904062 C 229.829044 210.043125 233.700827 214.903125 233.700827 220.750312 C 233.700827 221.7375 233.623392 222.724687 233.391085 223.635937 L 222.93727 255.074062 C 220.459329 260.6175 216.432675 264.414375 212.870634 264.414375 C 214.341912 266.99625 215.193704 270.489375 215.193704 274.362187 C 215.193704 276.4125 214.961397 278.386875 214.496783 280.133437 L 172.681526 405.430312 L 172.681526 208.904062 Z M 186.774816 208.904062 " transform="matrix(0.0504451,0,0,0.0514403,0,-0.000000000000001462)"/>
<path style="fill-rule:nonzero;fill:rgb(100%,100%,100%);fill-opacity:1;stroke-width:0.4348;stroke-linecap:butt;stroke-linejoin:miter;stroke:rgb(0%,0%,0%);stroke-opacity:1;stroke-miterlimit:1;" d="M 201.487592 274.817812 C 201.487592 274.59 201.487592 274.362187 201.487592 274.058437 C 201.487592 272.539687 200.713235 271.324687 199.629136 271.096875 L 186.774816 271.096875 L 186.774816 318.785625 Z M 201.487592 274.817812 " transform="matrix(0.0504451,0,0,0.0514403,0,-0.000000000000001462)"/>
<path style="fill-rule:nonzero;fill:rgb(0%,0%,0%);fill-opacity:1;stroke-width:0.4348;stroke-linecap:butt;stroke-linejoin:miter;stroke:rgb(0%,0%,0%);stroke-opacity:1;stroke-miterlimit:1;" d="M 112.436581 208.904062 L 164.550781 208.904062 L 164.550781 346.57875 L 150.457491 304.433437 L 150.457491 271.096875 L 134.58318 271.096875 L 164.550781 361.006875 L 164.550781 405.430312 L 103.841222 223.635937 C 103.686351 222.724687 103.53148 221.7375 103.53148 220.750312 C 103.53148 214.903125 107.403263 210.043125 112.436581 208.904062 Z M 122.658088 223.028437 C 121.186811 223.25625 119.94784 224.926875 119.94784 226.90125 C 119.94784 227.129062 119.94784 227.280937 120.025276 227.50875 L 129.859605 257.048437 L 150.457491 257.048437 L 150.457491 223.028437 Z M 122.658088 223.028437 " transform="matrix(0.0504451,0,0,0.0514403,0,-0.000000000000001462)"/>
<path style="fill-rule:nonzero;fill:url(#linear0);stroke-width:1.1412;stroke-linecap:butt;stroke-linejoin:miter;stroke:rgb(0%,0%,0%);stroke-opacity:1;stroke-miterlimit:1;" d="M 99.42739 148.457812 L 106.009421 148.457812 L 106.009421 154.380937 L 112.514017 154.380937 L 112.514017 148.457812 L 119.096048 148.457812 L 119.096048 154.380937 L 125.600643 154.380937 L 125.600643 148.457812 L 132.182675 148.457812 L 132.182675 154.380937 L 138.68727 154.380937 L 138.68727 148.457812 L 145.191866 148.457812 L 145.191866 154.380937 L 144.185202 157.494375 L 141.784697 159.924375 L 138.300092 161.29125 L 137.990349 161.29125 L 137.370864 161.595 L 137.061121 161.89875 L 136.983686 162.126562 L 136.983686 166.75875 L 137.061121 166.986562 L 137.370864 167.290312 L 137.990349 167.594062 L 138.300092 167.67 L 141.784697 169.036875 L 144.185202 171.390937 L 145.191866 174.504375 L 145.191866 187.945312 L 99.42739 187.945312 L 99.42739 174.504375 L 100.434053 171.390937 L 102.911994 169.036875 L 106.319164 167.67 L 106.706342 167.594062 L 107.016085 167.442187 L 107.480699 167.138437 L 107.63557 166.986562 L 107.63557 161.89875 L 107.480699 161.746875 L 107.016085 161.443125 L 106.706342 161.29125 L 106.319164 161.29125 L 102.911994 159.924375 L 100.434053 157.494375 L 99.42739 154.380937 L 99.42739 148.457812 " transform="matrix(0.0504451,0,0,0.0514403,0,-0.000000000000001462)"/>
<path style=" stroke:none;fill-rule:nonzero;fill:rgb(0%,0%,0%);fill-opacity:1;" d="M 5.664062 8.21875 C 5.664062 8.152344 5.730469 8.097656 5.8125 8.097656 C 5.898438 8.097656 5.964844 8.152344 5.964844 8.21875 C 5.964844 8.21875 5.964844 8.21875 5.964844 8.222656 L 5.964844 8.742188 L 5.664062 8.742188 Z M 5.664062 8.21875 "/>
<path style=" stroke:none;fill-rule:nonzero;fill:rgb(0%,0%,0%);fill-opacity:1;" d="M 6.679688 8.21875 C 6.679688 8.152344 6.609375 8.097656 6.527344 8.097656 C 6.445312 8.097656 6.375 8.152344 6.375 8.21875 C 6.375 8.21875 6.375 8.21875 6.375 8.222656 L 6.375 8.742188 L 6.679688 8.742188 Z M 6.679688 8.21875 "/>
<path style=" stroke:none;fill-rule:nonzero;fill:rgb(0%,0%,0%);fill-opacity:1;" d="M 6.429688 9.667969 L 5.910156 9.667969 L 5.910156 8.992188 C 5.910156 8.90625 6.027344 8.832031 6.171875 8.832031 C 6.316406 8.832031 6.429688 8.90625 6.429688 8.992188 C 6.429688 8.996094 6.429688 8.996094 6.429688 8.996094 Z M 6.429688 9.667969 "/>
<path style="fill:none;stroke-width:0.4348;stroke-linecap:butt;stroke-linejoin:miter;stroke:rgb(0%,0%,0%);stroke-opacity:1;stroke-miterlimit:1;" d="M 101.595588 176.858437 L 116.076057 176.858437 " transform="matrix(0.0504451,0,0,0.0514403,0,-0.000000000000001462)"/>
<path style="fill:none;stroke-width:0.4348;stroke-linecap:butt;stroke-linejoin:miter;stroke:rgb(0%,0%,0%);stroke-opacity:1;stroke-miterlimit:1;" d="M 143.101103 176.858437 L 128.543199 176.858437 " transform="matrix(0.0504451,0,0,0.0514403,0,-0.000000000000001462)"/>
<path style="fill:none;stroke-width:0.4348;stroke-linecap:butt;stroke-linejoin:miter;stroke:rgb(0%,0%,0%);stroke-opacity:1;stroke-miterlimit:1;" d="M 108.564798 162.582187 L 111.894531 162.582187 " transform="matrix(0.0504451,0,0,0.0514403,0,-0.000000000000001462)"/>
<path style="fill:none;stroke-width:0.4348;stroke-linecap:butt;stroke-linejoin:miter;stroke:rgb(0%,0%,0%);stroke-opacity:1;stroke-miterlimit:1;" d="M 136.054458 162.582187 L 132.80216 162.582187 " transform="matrix(0.0504451,0,0,0.0514403,0,-0.000000000000001462)"/>
<path style="fill:none;stroke-width:0.4348;stroke-linecap:butt;stroke-linejoin:miter;stroke:rgb(0%,0%,0%);stroke-opacity:1;stroke-miterlimit:1;" d="M 125.678079 162.658125 L 119.173483 162.658125 " transform="matrix(0.0504451,0,0,0.0514403,0,-0.000000000000001462)"/>
<path style="fill:none;stroke-width:0.4348;stroke-linecap:butt;stroke-linejoin:miter;stroke:rgb(0%,0%,0%);stroke-opacity:1;stroke-miterlimit:1;" d="M 140.235983 170.935312 L 105.002757 170.935312 " transform="matrix(0.0504451,0,0,0.0514403,0,-0.000000000000001462)"/>
<path style="fill-rule:nonzero;fill:url(#linear1);stroke-width:1.1412;stroke-linecap:butt;stroke-linejoin:miter;stroke:rgb(0%,0%,0%);stroke-opacity:1;stroke-miterlimit:1;" d="M 145.733915 107.83125 L 152.238511 107.83125 L 152.238511 113.754375 L 158.820542 113.754375 L 158.820542 107.83125 L 165.325138 107.83125 L 165.325138 113.754375 L 171.907169 113.754375 L 171.907169 107.83125 L 178.411765 107.83125 L 178.411765 113.754375 L 184.993796 113.754375 L 184.993796 107.83125 L 191.498392 107.83125 L 191.498392 113.754375 L 190.491728 116.867812 L 188.091222 119.221875 L 184.606618 120.58875 L 184.219439 120.664687 L 183.987132 120.816562 L 183.67739 120.8925 L 183.522518 121.120312 L 183.367647 121.272187 L 183.290211 121.5 L 183.290211 126.132187 L 183.367647 126.36 L 183.67739 126.66375 L 183.987132 126.815625 L 184.219439 126.9675 L 184.606618 126.9675 L 188.091222 128.334375 L 190.491728 130.764375 L 191.498392 133.877812 L 191.498392 147.31875 L 145.733915 147.31875 L 145.733915 133.877812 L 146.740579 130.764375 L 149.21852 128.334375 L 152.625689 126.9675 L 153.012868 126.9675 L 153.32261 126.815625 L 153.787224 126.511875 L 153.942096 126.36 L 153.942096 121.272187 L 153.554917 120.8925 L 153.32261 120.816562 L 153.012868 120.664687 L 152.625689 120.58875 L 149.21852 119.221875 L 146.740579 116.867812 L 145.733915 113.754375 L 145.733915 107.83125 " transform="matrix(0.0504451,0,0,0.0514403,0,-0.000000000000001462)"/>
<path style=" stroke:none;fill-rule:nonzero;fill:rgb(0%,0%,0%);fill-opacity:1;" d="M 7.996094 6.128906 C 7.996094 6.0625 8.066406 6.007812 8.148438 6.007812 C 8.230469 6.007812 8.300781 6.0625 8.300781 6.128906 L 8.300781 6.652344 L 7.996094 6.652344 Z M 7.996094 6.128906 "/>
<path style=" stroke:none;fill-rule:nonzero;fill:rgb(0%,0%,0%);fill-opacity:1;" d="M 9.015625 6.128906 C 9.015625 6.0625 8.945312 6.007812 8.863281 6.007812 C 8.78125 6.007812 8.710938 6.0625 8.710938 6.128906 L 8.710938 6.652344 L 9.015625 6.652344 Z M 9.015625 6.128906 "/>
<path style=" stroke:none;fill-rule:nonzero;fill:rgb(0%,0%,0%);fill-opacity:1;" d="M 8.765625 7.578125 L 8.246094 7.578125 L 8.246094 6.902344 C 8.246094 6.816406 8.363281 6.742188 8.507812 6.742188 C 8.648438 6.742188 8.765625 6.816406 8.765625 6.902344 C 8.765625 6.90625 8.765625 6.90625 8.765625 6.90625 Z M 8.765625 7.578125 "/>
<path style="fill:none;stroke-width:0.4348;stroke-linecap:butt;stroke-linejoin:miter;stroke:rgb(0%,0%,0%);stroke-opacity:1;stroke-miterlimit:1;" d="M 147.902114 136.231875 L 162.382583 136.231875 " transform="matrix(0.0504451,0,0,0.0514403,0,-0.000000000000001462)"/>
<path style="fill:none;stroke-width:0.4348;stroke-linecap:butt;stroke-linejoin:miter;stroke:rgb(0%,0%,0%);stroke-opacity:1;stroke-miterlimit:1;" d="M 189.330193 136.231875 L 174.849724 136.231875 " transform="matrix(0.0504451,0,0,0.0514403,0,-0.000000000000001462)"/>
<path style="fill:none;stroke-width:0.4348;stroke-linecap:butt;stroke-linejoin:miter;stroke:rgb(0%,0%,0%);stroke-opacity:1;stroke-miterlimit:1;" d="M 154.871324 121.955625 L 158.123621 121.955625 " transform="matrix(0.0504451,0,0,0.0514403,0,-0.000000000000001462)"/>
<path style="fill:none;stroke-width:0.4348;stroke-linecap:butt;stroke-linejoin:miter;stroke:rgb(0%,0%,0%);stroke-opacity:1;stroke-miterlimit:1;" d="M 182.360983 121.955625 L 179.108686 121.955625 " transform="matrix(0.0504451,0,0,0.0514403,0,-0.000000000000001462)"/>
<path style="fill:none;stroke-width:0.4348;stroke-linecap:butt;stroke-linejoin:miter;stroke:rgb(0%,0%,0%);stroke-opacity:1;stroke-miterlimit:1;" d="M 171.984605 122.031562 L 165.480009 122.031562 " transform="matrix(0.0504451,0,0,0.0514403,0,-0.000000000000001462)"/>
<path style="fill:none;stroke-width:0.4348;stroke-linecap:butt;stroke-linejoin:miter;stroke:rgb(0%,0%,0%);stroke-opacity:1;stroke-miterlimit:1;" d="M 186.542509 130.30875 L 151.309283 130.30875 " transform="matrix(0.0504451,0,0,0.0514403,0,-0.000000000000001462)"/>
<path style="fill-rule:nonzero;fill:url(#linear2);stroke-width:1.1412;stroke-linecap:butt;stroke-linejoin:miter;stroke:rgb(0%,0%,0%);stroke-opacity:1;stroke-miterlimit:1;" d="M 237.804917 148.457812 L 231.300322 148.457812 L 231.300322 154.380937 L 224.71829 154.380937 L 224.71829 148.457812 L 218.213695 148.457812 L 218.213695 154.380937 L 211.631664 154.380937 L 211.631664 148.457812 L 205.127068 148.457812 L 205.127068 154.380937 L 198.545037 154.380937 L 198.545037 148.457812 L 192.040441 148.457812 L 192.040441 154.380937 L 193.047105 157.494375 L 195.525046 159.924375 L 198.932215 161.29125 L 199.319393 161.29125 L 199.629136 161.443125 L 200.09375 161.746875 L 200.171186 161.89875 L 200.248621 162.126562 L 200.248621 166.75875 L 200.171186 166.986562 L 200.09375 167.138437 L 199.629136 167.442187 L 199.319393 167.594062 L 198.932215 167.67 L 195.525046 169.036875 L 193.047105 171.390937 L 192.040441 174.504375 L 192.040441 187.945312 L 237.804917 187.945312 L 237.804917 174.504375 L 236.798254 171.390937 L 234.320312 169.036875 L 230.913143 167.67 L 230.525965 167.594062 L 230.216222 167.442187 L 229.751608 167.138437 L 229.674173 166.986562 L 229.596737 166.75875 L 229.596737 162.126562 L 229.674173 161.89875 L 229.751608 161.746875 L 230.216222 161.443125 L 230.525965 161.29125 L 230.913143 161.29125 L 234.320312 159.924375 L 236.798254 157.494375 L 237.804917 154.380937 L 237.804917 148.457812 " transform="matrix(0.0504451,0,0,0.0514403,0,-0.000000000000001462)"/>
<path style=" stroke:none;fill-rule:nonzero;fill:rgb(0%,0%,0%);fill-opacity:1;" d="M 11.351562 8.21875 C 11.351562 8.152344 11.28125 8.097656 11.199219 8.097656 C 11.117188 8.097656 11.046875 8.152344 11.046875 8.21875 C 11.046875 8.21875 11.046875 8.21875 11.046875 8.222656 L 11.046875 8.742188 L 11.351562 8.742188 Z M 11.351562 8.21875 "/>
<path style=" stroke:none;fill-rule:nonzero;fill:rgb(0%,0%,0%);fill-opacity:1;" d="M 10.332031 8.21875 C 10.332031 8.152344 10.402344 8.097656 10.484375 8.097656 C 10.566406 8.097656 10.636719 8.152344 10.636719 8.21875 C 10.636719 8.21875 10.636719 8.21875 10.636719 8.222656 L 10.636719 8.742188 L 10.332031 8.742188 Z M 10.332031 8.21875 "/>
<path style=" stroke:none;fill-rule:nonzero;fill:rgb(0%,0%,0%);fill-opacity:1;" d="M 10.582031 9.667969 L 11.101562 9.667969 L 11.101562 8.992188 C 11.101562 8.90625 10.984375 8.832031 10.839844 8.832031 C 10.699219 8.832031 10.582031 8.90625 10.582031 8.992188 C 10.582031 8.996094 10.582031 8.996094 10.582031 8.996094 Z M 10.582031 9.667969 "/>
<path style="fill:none;stroke-width:0.4348;stroke-linecap:butt;stroke-linejoin:miter;stroke:rgb(0%,0%,0%);stroke-opacity:1;stroke-miterlimit:1;" d="M 235.636719 176.858437 L 221.15625 176.858437 " transform="matrix(0.0504451,0,0,0.0514403,0,-0.000000000000001462)"/>
<path style="fill:none;stroke-width:0.4348;stroke-linecap:butt;stroke-linejoin:miter;stroke:rgb(0%,0%,0%);stroke-opacity:1;stroke-miterlimit:1;" d="M 194.20864 176.858437 L 208.689108 176.858437 " transform="matrix(0.0504451,0,0,0.0514403,0,-0.000000000000001462)"/>
<path style="fill:none;stroke-width:0.4348;stroke-linecap:butt;stroke-linejoin:miter;stroke:rgb(0%,0%,0%);stroke-opacity:1;stroke-miterlimit:1;" d="M 228.667509 162.582187 L 225.415211 162.582187 " transform="matrix(0.0504451,0,0,0.0514403,0,-0.000000000000001462)"/>
<path style="fill:none;stroke-width:0.4348;stroke-linecap:butt;stroke-linejoin:miter;stroke:rgb(0%,0%,0%);stroke-opacity:1;stroke-miterlimit:1;" d="M 201.177849 162.582187 L 204.430147 162.582187 " transform="matrix(0.0504451,0,0,0.0514403,0,-0.000000000000001462)"/>
<path style="fill:none;stroke-width:0.4348;stroke-linecap:butt;stroke-linejoin:miter;stroke:rgb(0%,0%,0%);stroke-opacity:1;stroke-miterlimit:1;" d="M 211.554228 162.658125 L 218.058824 162.658125 " transform="matrix(0.0504451,0,0,0.0514403,0,-0.000000000000001462)"/>
<path style="fill:none;stroke-width:0.4348;stroke-linecap:butt;stroke-linejoin:miter;stroke:rgb(0%,0%,0%);stroke-opacity:1;stroke-miterlimit:1;" d="M 196.996324 170.935312 L 232.22955 170.935312 " transform="matrix(0.0504451,0,0,0.0514403,0,-0.000000000000001462)"/>
<path style="fill-rule:nonzero;fill:rgb(100%,100%,100%);fill-opacity:1;stroke-width:0.4348;stroke-linecap:butt;stroke-linejoin:miter;stroke:rgb(0%,0%,0%);stroke-opacity:1;stroke-miterlimit:1;" d="M 208.689108 253.099687 C 207.837316 255.15 205.436811 256.66875 202.494256 257.048437 L 186.774816 257.048437 L 186.774816 223.028437 L 214.574219 223.028437 C 216.122932 223.25625 217.284467 224.926875 217.284467 226.90125 C 217.284467 227.129062 217.284467 227.356875 217.207031 227.50875 Z M 208.689108 253.099687 " transform="matrix(0.0504451,0,0,0.0514403,0,-0.000000000000001462)"/>
</g>
</svg>
