<?xml version="1.0" encoding="UTF-8"?>
<svg xmlns="http://www.w3.org/2000/svg" xmlns:xlink="http://www.w3.org/1999/xlink" width="35pt" height="25pt" viewBox="0 0 35 25" version="1.1">
<g id="surface1">
<path style=" stroke:none;fill-rule:nonzero;fill:rgb(90.196078%,78.039216%,46.666667%);fill-opacity:1;" d="M 21.707031 0.0507812 C 23.089844 2.722656 25.582031 4.523438 28.453125 5.15625 L 28.453125 10.089844 C 26.964844 11.4375 25.757812 13.65625 24.839844 16.75 C 23.683594 20.308594 22.117188 22.277344 18.320312 24.941406 C 15.367188 23.199219 12.9375 21.015625 11.824219 17.070312 C 10.988281 13.855469 9.867188 11.621094 8.207031 10.023438 L 8.207031 5.152344 C 11.617188 4.121094 13.859375 2.429688 14.933594 0.0820312 Z M 21.707031 0.0507812 "/>
<path style=" stroke:none;fill-rule:nonzero;fill:rgb(52.54902%,41.960784%,6.27451%);fill-opacity:1;" d="M 21.707031 0.0507812 L 21.664062 0.0703125 C 23.050781 2.757812 25.558594 4.566406 28.441406 5.203125 L 28.453125 5.15625 L 28.40625 5.15625 L 28.40625 10.089844 L 28.453125 10.089844 L 28.421875 10.054688 C 26.921875 11.410156 25.714844 13.640625 24.796875 16.734375 L 24.839844 16.75 L 24.796875 16.734375 C 24.21875 18.507812 23.539062 19.886719 22.53125 21.152344 C 21.523438 22.414062 20.1875 23.570312 18.292969 24.902344 L 18.320312 24.941406 L 18.34375 24.902344 C 15.398438 23.160156 12.980469 20.988281 11.871094 17.058594 L 11.824219 17.070312 L 11.871094 17.058594 C 11.035156 13.835938 9.910156 11.59375 8.242188 9.988281 L 8.207031 10.023438 L 8.257812 10.023438 L 8.257812 5.152344 L 8.207031 5.152344 L 8.222656 5.199219 C 11.640625 4.164062 13.898438 2.464844 14.980469 0.101562 L 14.933594 0.0820312 L 14.9375 0.128906 L 21.710938 0.0976562 L 21.707031 0.0507812 L 21.664062 0.0703125 L 21.707031 0.0507812 L 21.707031 0 L 14.902344 0.0351562 L 14.890625 0.0625 C 13.824219 2.394531 11.597656 4.074219 8.195312 5.105469 L 8.160156 5.117188 L 8.160156 10.042969 L 8.175781 10.058594 C 9.824219 11.648438 10.945312 13.871094 11.777344 17.082031 C 12.894531 21.042969 15.339844 23.238281 18.292969 24.984375 L 18.320312 25 L 18.347656 24.980469 C 20.246094 23.648438 21.59375 22.488281 22.609375 21.210938 C 23.621094 19.933594 24.308594 18.546875 24.886719 16.761719 C 25.804688 13.675781 27.003906 11.464844 28.484375 10.125 L 28.5 10.109375 L 28.5 5.117188 L 28.464844 5.109375 C 25.605469 4.480469 23.125 2.6875 21.753906 0.0273438 L 21.738281 0 L 21.707031 0 Z M 21.707031 0.0507812 "/>
<path style=" stroke:none;fill-rule:nonzero;fill:rgb(77.254902%,6.666667%,18.039216%);fill-opacity:1;" d="M 12.273438 15.308594 C 11.710938 13.429688 10.792969 11.515625 9.929688 10.578125 L 26.84375 10.578125 C 25.746094 11.898438 24.984375 13.621094 24.445312 15.308594 Z M 12.273438 15.308594 "/>
<path style=" stroke:none;fill-rule:nonzero;fill:rgb(77.254902%,6.666667%,18.039216%);fill-opacity:1;" d="M 12.273438 15.308594 L 12.320312 15.292969 C 11.753906 13.410156 10.835938 11.492188 9.964844 10.542969 L 9.929688 10.578125 L 9.929688 10.625 L 26.84375 10.625 L 26.84375 10.578125 L 26.804688 10.546875 C 25.703125 11.875 24.9375 13.605469 24.398438 15.292969 L 24.445312 15.308594 L 24.445312 15.257812 L 12.273438 15.257812 L 12.273438 15.308594 L 12.320312 15.292969 L 12.273438 15.308594 L 12.273438 15.355469 L 24.480469 15.355469 L 24.492188 15.324219 C 25.027344 13.640625 25.789062 11.921875 26.878906 10.609375 L 26.945312 10.527344 L 9.820312 10.527344 L 9.894531 10.609375 C 10.746094 11.539062 11.667969 13.449219 12.226562 15.320312 L 12.238281 15.355469 L 12.273438 15.355469 Z M 12.273438 15.308594 "/>
<path style=" stroke:none;fill-rule:nonzero;fill:rgb(100%,100%,100%);fill-opacity:1;" d="M 9.25 9.558594 C 9.257812 9.5625 9.234375 5.714844 9.234375 5.714844 C 10.144531 5.519531 11.019531 5.175781 11.84375 4.695312 L 11.84375 9.558594 Z M 9.25 9.558594 "/>
<path style=" stroke:none;fill-rule:nonzero;fill:rgb(100%,100%,100%);fill-opacity:1;" d="M 24.660156 4.671875 C 25.519531 5.203125 26.445312 5.585938 27.457031 5.816406 L 27.457031 9.558594 L 24.660156 9.558594 Z M 24.660156 4.671875 "/>
<path style=" stroke:none;fill-rule:nonzero;fill:rgb(100%,100%,100%);fill-opacity:1;" d="M 12.515625 4.269531 C 13.617188 3.503906 14.71875 2.53125 15.425781 1.113281 L 21.191406 1.113281 C 21.917969 2.339844 22.96875 3.464844 23.988281 4.21875 L 23.988281 9.558594 L 12.515625 9.558594 Z M 12.515625 4.269531 "/>
<path style=" stroke:none;fill-rule:nonzero;fill:rgb(10.588235%,27.058824%,56.078431%);fill-opacity:1;" d="M 14.355469 20.238281 C 12.992188 18.640625 12.554688 16.09375 12.554688 16.09375 L 24.164062 16.09375 C 24.03125 16.480469 23.71875 18.214844 22.171875 20.238281 Z M 14.355469 20.238281 "/>
<path style=" stroke:none;fill-rule:nonzero;fill:rgb(10.588235%,27.058824%,56.078431%);fill-opacity:1;" d="M 18.300781 23.792969 C 17.222656 23.203125 16.011719 22.234375 15.3125 21.457031 L 21.113281 21.457031 C 20.4375 22.160156 19.335938 23.109375 18.300781 23.792969 Z M 18.300781 23.792969 "/>
<path style=" stroke:none;fill-rule:nonzero;fill:rgb(1.960784%,39.215686%,17.254902%);fill-opacity:1;" d="M 14.488281 20.46875 L 22.015625 20.46875 L 21.355469 21.199219 L 15.128906 21.199219 C 14.882812 20.953125 14.679688 20.71875 14.488281 20.46875 Z M 14.488281 20.46875 "/>
<path style=" stroke:none;fill-rule:nonzero;fill:rgb(90.196078%,78.039216%,46.666667%);fill-opacity:1;" d="M 14.570312 17.820312 L 14.828125 17.820312 L 14.828125 18.914062 L 14.570312 18.914062 Z M 14.570312 17.820312 "/>
<path style=" stroke:none;fill-rule:nonzero;fill:rgb(90.196078%,78.039216%,46.666667%);fill-opacity:1;" d="M 22.386719 16.429688 L 22.644531 16.429688 L 22.644531 17.523438 L 22.386719 17.523438 Z M 22.386719 16.429688 "/>
<path style=" stroke:none;fill-rule:evenodd;fill:rgb(90.196078%,78.039216%,46.666667%);fill-opacity:1;" d="M 21.832031 17.796875 L 21.394531 18.890625 L 21.652344 18.890625 L 21.742188 18.644531 L 22.179688 18.644531 L 22.265625 18.890625 L 22.53125 18.890625 L 22.097656 17.796875 Z M 21.808594 18.46875 L 21.960938 18.066406 L 21.964844 18.066406 L 22.109375 18.46875 Z M 21.808594 18.46875 "/>
<path style=" stroke:none;fill-rule:nonzero;fill:rgb(90.196078%,78.039216%,46.666667%);fill-opacity:1;" d="M 14.527344 16.796875 L 14.777344 16.796875 C 14.769531 16.730469 14.75 16.675781 14.722656 16.625 C 14.691406 16.578125 14.65625 16.535156 14.609375 16.503906 C 14.5625 16.46875 14.511719 16.445312 14.457031 16.429688 C 14.398438 16.410156 14.339844 16.402344 14.273438 16.402344 C 14.183594 16.402344 14.105469 16.417969 14.03125 16.445312 C 13.960938 16.476562 13.902344 16.515625 13.851562 16.570312 C 13.804688 16.621094 13.765625 16.683594 13.742188 16.753906 C 13.714844 16.820312 13.703125 16.898438 13.703125 16.980469 C 13.703125 17.058594 13.714844 17.132812 13.742188 17.203125 C 13.765625 17.269531 13.804688 17.332031 13.851562 17.382812 C 13.902344 17.433594 13.960938 17.472656 14.03125 17.503906 C 14.105469 17.53125 14.183594 17.546875 14.273438 17.546875 C 14.347656 17.546875 14.410156 17.535156 14.472656 17.515625 C 14.53125 17.496094 14.585938 17.464844 14.628906 17.425781 C 14.671875 17.386719 14.710938 17.339844 14.738281 17.285156 C 14.761719 17.230469 14.78125 17.167969 14.785156 17.101562 L 14.539062 17.101562 C 14.527344 17.175781 14.503906 17.234375 14.457031 17.277344 C 14.414062 17.324219 14.351562 17.34375 14.273438 17.34375 C 14.21875 17.34375 14.167969 17.335938 14.128906 17.316406 C 14.085938 17.292969 14.054688 17.265625 14.03125 17.230469 C 14.003906 17.195312 13.984375 17.15625 13.972656 17.113281 C 13.964844 17.070312 13.957031 17.023438 13.957031 16.980469 C 13.957031 16.929688 13.964844 16.886719 13.972656 16.839844 C 13.984375 16.796875 14.003906 16.753906 14.03125 16.71875 C 14.054688 16.683594 14.085938 16.65625 14.128906 16.636719 C 14.167969 16.613281 14.21875 16.605469 14.273438 16.605469 C 14.304688 16.605469 14.335938 16.609375 14.363281 16.621094 C 14.394531 16.628906 14.417969 16.640625 14.441406 16.660156 C 14.464844 16.675781 14.484375 16.695312 14.5 16.71875 C 14.515625 16.742188 14.523438 16.769531 14.527344 16.796875 Z M 14.527344 16.796875 "/>
<path style=" stroke:none;fill-rule:nonzero;fill:rgb(90.196078%,78.039216%,46.666667%);fill-opacity:1;" d="M 11.042969 7.007812 L 11.496094 7.007812 C 11.480469 6.847656 11.445312 6.707031 11.394531 6.582031 C 11.339844 6.460938 11.269531 6.359375 11.1875 6.277344 C 11.105469 6.191406 11.011719 6.128906 10.910156 6.082031 C 10.804688 6.039062 10.695312 6.019531 10.578125 6.019531 C 10.414062 6.019531 10.269531 6.054688 10.136719 6.128906 C 10.007812 6.203125 9.898438 6.308594 9.808594 6.4375 C 9.71875 6.570312 9.652344 6.722656 9.605469 6.898438 C 9.558594 7.074219 9.53125 7.261719 9.53125 7.46875 C 9.53125 7.667969 9.558594 7.855469 9.605469 8.03125 C 9.652344 8.203125 9.71875 8.351562 9.808594 8.480469 C 9.898438 8.609375 10.007812 8.710938 10.136719 8.785156 C 10.269531 8.855469 10.414062 8.890625 10.578125 8.890625 C 10.707031 8.890625 10.828125 8.867188 10.9375 8.816406 C 11.046875 8.761719 11.140625 8.6875 11.222656 8.589844 C 11.304688 8.496094 11.371094 8.375 11.421875 8.238281 C 11.46875 8.097656 11.5 7.945312 11.511719 7.773438 L 11.058594 7.773438 C 11.042969 7.957031 10.992188 8.105469 10.910156 8.21875 C 10.832031 8.332031 10.722656 8.386719 10.578125 8.386719 C 10.472656 8.386719 10.382812 8.363281 10.308594 8.3125 C 10.238281 8.257812 10.175781 8.1875 10.132812 8.097656 C 10.085938 8.011719 10.050781 7.914062 10.03125 7.808594 C 10.011719 7.695312 10 7.585938 10 7.46875 C 10 7.347656 10.011719 7.230469 10.03125 7.117188 C 10.050781 7.003906 10.085938 6.90625 10.132812 6.816406 C 10.175781 6.730469 10.238281 6.65625 10.308594 6.605469 C 10.382812 6.554688 10.472656 6.527344 10.578125 6.527344 C 10.636719 6.527344 10.691406 6.539062 10.742188 6.566406 C 10.796875 6.585938 10.84375 6.621094 10.882812 6.664062 C 10.925781 6.707031 10.960938 6.757812 10.988281 6.816406 C 11.015625 6.875 11.035156 6.9375 11.042969 7.007812 Z M 11.042969 7.007812 "/>
<path style=" stroke:none;fill-rule:nonzero;fill:rgb(52.54902%,41.960784%,6.27451%);fill-opacity:1;" d="M 11.042969 7.007812 L 11.042969 7.054688 L 11.546875 7.054688 L 11.542969 7.003906 C 11.527344 6.839844 11.492188 6.695312 11.4375 6.566406 C 11.382812 6.4375 11.308594 6.328125 11.222656 6.242188 L 11.1875 6.277344 L 11.222656 6.242188 C 11.136719 6.152344 11.039062 6.085938 10.925781 6.039062 C 10.816406 5.992188 10.699219 5.96875 10.578125 5.96875 C 10.40625 5.96875 10.25 6.007812 10.113281 6.085938 C 9.976562 6.164062 9.863281 6.273438 9.769531 6.410156 C 9.675781 6.546875 9.605469 6.707031 9.558594 6.886719 C 9.507812 7.066406 9.484375 7.257812 9.484375 7.46875 C 9.484375 7.671875 9.507812 7.863281 9.558594 8.042969 C 9.605469 8.21875 9.675781 8.375 9.769531 8.507812 C 9.863281 8.640625 9.976562 8.746094 10.113281 8.824219 L 10.113281 8.828125 C 10.253906 8.902344 10.40625 8.941406 10.578125 8.941406 C 10.714844 8.941406 10.84375 8.914062 10.957031 8.859375 C 11.074219 8.804688 11.175781 8.726562 11.261719 8.621094 C 11.347656 8.519531 11.414062 8.398438 11.464844 8.253906 C 11.515625 8.109375 11.546875 7.949219 11.5625 7.777344 L 11.5625 7.722656 L 11.015625 7.722656 L 11.011719 7.769531 C 10.996094 7.945312 10.945312 8.085938 10.871094 8.191406 C 10.800781 8.292969 10.707031 8.339844 10.578125 8.339844 C 10.480469 8.339844 10.402344 8.316406 10.335938 8.269531 L 10.308594 8.3125 L 10.339844 8.273438 C 10.269531 8.222656 10.21875 8.15625 10.175781 8.078125 C 10.128906 7.992188 10.097656 7.902344 10.078125 7.796875 L 10.03125 7.808594 L 10.078125 7.796875 C 10.058594 7.691406 10.050781 7.582031 10.050781 7.46875 C 10.050781 7.351562 10.058594 7.238281 10.078125 7.125 L 10.03125 7.117188 L 10.078125 7.128906 C 10.097656 7.019531 10.132812 6.921875 10.175781 6.839844 C 10.21875 6.757812 10.269531 6.691406 10.335938 6.648438 L 10.339844 6.644531 C 10.402344 6.597656 10.480469 6.574219 10.578125 6.574219 C 10.628906 6.574219 10.675781 6.585938 10.71875 6.609375 L 10.722656 6.609375 C 10.769531 6.628906 10.8125 6.660156 10.847656 6.699219 C 10.886719 6.738281 10.917969 6.785156 10.945312 6.839844 C 10.96875 6.890625 10.988281 6.949219 10.992188 7.011719 L 11 7.054688 L 11.042969 7.054688 L 11.042969 7.007812 L 11.089844 7 C 11.082031 6.925781 11.0625 6.859375 11.03125 6.796875 L 10.988281 6.820312 L 11.03125 6.796875 C 11.003906 6.734375 10.964844 6.679688 10.917969 6.632812 C 10.875 6.582031 10.820312 6.546875 10.761719 6.519531 L 10.742188 6.566406 L 10.761719 6.519531 C 10.707031 6.492188 10.644531 6.476562 10.578125 6.476562 C 10.464844 6.476562 10.363281 6.507812 10.28125 6.566406 L 10.308594 6.605469 L 10.28125 6.566406 C 10.203125 6.625 10.136719 6.699219 10.089844 6.796875 L 10.089844 6.792969 L 10.089844 6.796875 C 10.039062 6.886719 10.003906 6.992188 9.984375 7.109375 C 9.960938 7.226562 9.953125 7.34375 9.953125 7.46875 C 9.953125 7.585938 9.960938 7.703125 9.984375 7.816406 C 10.003906 7.929688 10.039062 8.03125 10.089844 8.121094 C 10.136719 8.214844 10.203125 8.292969 10.28125 8.351562 C 10.363281 8.40625 10.464844 8.4375 10.578125 8.4375 C 10.734375 8.4375 10.863281 8.371094 10.949219 8.246094 L 10.910156 8.21875 L 10.949219 8.246094 C 11.039062 8.125 11.089844 7.96875 11.109375 7.777344 L 11.058594 7.773438 L 11.058594 7.820312 L 11.511719 7.820312 L 11.511719 7.773438 L 11.464844 7.769531 C 11.453125 7.9375 11.421875 8.085938 11.375 8.222656 C 11.328125 8.355469 11.265625 8.46875 11.1875 8.558594 C 11.109375 8.652344 11.019531 8.722656 10.917969 8.769531 C 10.816406 8.820312 10.703125 8.84375 10.578125 8.84375 C 10.421875 8.84375 10.285156 8.808594 10.160156 8.742188 L 10.136719 8.785156 L 10.160156 8.742188 C 10.039062 8.671875 9.933594 8.574219 9.851562 8.453125 C 9.765625 8.328125 9.699219 8.183594 9.652344 8.015625 C 9.605469 7.847656 9.582031 7.664062 9.582031 7.46875 C 9.582031 7.265625 9.605469 7.082031 9.652344 6.910156 C 9.699219 6.738281 9.765625 6.589844 9.851562 6.464844 C 9.9375 6.339844 10.039062 6.242188 10.160156 6.171875 C 10.285156 6.101562 10.421875 6.066406 10.578125 6.066406 C 10.6875 6.066406 10.792969 6.085938 10.890625 6.128906 C 10.988281 6.167969 11.074219 6.230469 11.152344 6.308594 C 11.234375 6.386719 11.296875 6.484375 11.347656 6.601562 C 11.398438 6.71875 11.433594 6.855469 11.445312 7.011719 L 11.496094 7.007812 L 11.496094 6.957031 L 11.042969 6.957031 L 11.042969 7.007812 L 11.089844 7 Z M 11.042969 7.007812 "/>
<path style=" stroke:none;fill-rule:nonzero;fill:rgb(90.196078%,78.039216%,46.666667%);fill-opacity:1;" d="M 26.679688 7.902344 L 26.679688 7.40625 L 25.738281 7.40625 L 25.738281 6.734375 L 26.824219 6.734375 L 26.824219 6.199219 L 25.246094 6.199219 L 25.246094 9.101562 L 25.738281 9.101562 L 25.738281 7.902344 Z M 26.679688 7.902344 "/>
<path style=" stroke:none;fill-rule:nonzero;fill:rgb(52.54902%,41.960784%,6.27451%);fill-opacity:1;" d="M 26.632812 7.851562 L 25.691406 7.851562 L 25.691406 9.050781 L 25.292969 9.050781 L 25.292969 6.199219 L 25.246094 6.199219 L 25.246094 6.246094 L 25.246094 6.199219 L 25.195312 6.199219 L 25.195312 9.148438 L 25.789062 9.148438 L 25.789062 7.949219 L 26.726562 7.949219 L 26.726562 7.355469 L 25.789062 7.355469 L 25.789062 6.78125 L 26.875 6.78125 L 26.875 6.148438 L 25.195312 6.148438 L 25.195312 6.199219 L 25.246094 6.199219 L 25.246094 6.246094 L 26.777344 6.246094 L 26.777344 6.6875 L 25.691406 6.6875 L 25.691406 7.453125 L 26.632812 7.453125 Z M 26.632812 7.851562 "/>
<path style=" stroke:none;fill-rule:nonzero;fill:rgb(52.54902%,41.960784%,6.27451%);fill-opacity:1;" d="M 13.882812 9.246094 L 13.882812 7.417969 L 13.660156 7.417969 L 13.660156 6.582031 L 14.421875 6.648438 L 14.40625 6.089844 L 15.308594 5.363281 L 15.28125 5.128906 L 15.929688 4.691406 L 16.089844 4.589844 L 15.511719 4.429688 L 15.652344 4.386719 L 15 4.28125 L 15.128906 4.199219 L 14.722656 4.113281 L 14.933594 4.03125 L 14.46875 3.910156 L 14.589844 3.742188 L 14.164062 3.6875 L 14.3125 3.585938 L 14.011719 3.449219 C 14.496094 3.308594 14.957031 3.3125 15.394531 3.464844 L 16.644531 4.21875 L 17.382812 3.738281 L 17.203125 3.664062 L 17.023438 3.0625 L 17.175781 2.011719 L 17.167969 1.882812 C 17.285156 1.765625 17.429688 1.671875 17.628906 1.605469 C 17.734375 1.566406 18.066406 1.527344 18.140625 1.539062 C 18.289062 1.566406 18.832031 1.800781 18.832031 1.800781 L 18.851562 1.917969 L 19.011719 2.09375 L 19.324219 3.21875 L 19.277344 3.496094 L 18.984375 3.71875 L 19.546875 3.964844 L 19.824219 4.007812 L 20.015625 4.0625 L 20.105469 4.230469 L 21.476562 5.09375 L 21.542969 5.386719 L 21.667969 5.394531 L 21.988281 5.714844 L 22 6.078125 L 22.046875 6.1875 L 22.484375 6.46875 L 22.570312 6.527344 L 23.054688 6.5 L 23.054688 7.300781 L 22.800781 7.300781 L 22.800781 9.574219 L 13.894531 9.574219 Z M 13.882812 9.246094 "/>
<path style=" stroke:none;fill-rule:nonzero;fill:rgb(90.196078%,78.039216%,46.666667%);fill-opacity:1;" d="M 18.429688 7.433594 L 22.949219 7.222656 L 22.96875 7.222656 L 22.96875 6.574219 L 18.699219 7.023438 L 18.414062 7.222656 L 18.109375 7.050781 L 13.738281 6.664062 L 13.738281 7.332031 Z M 18.429688 7.433594 "/>
<path style=" stroke:none;fill-rule:nonzero;fill:rgb(90.196078%,78.039216%,46.666667%);fill-opacity:1;" d="M 22.726562 7.304688 L 22.726562 9.507812 L 13.964844 9.507812 L 13.96875 7.347656 L 13.96875 7.414062 L 18.425781 7.496094 Z M 22.726562 7.304688 "/>
<path style=" stroke:none;fill-rule:nonzero;fill:rgb(90.196078%,78.039216%,46.666667%);fill-opacity:1;" d="M 14.542969 6.65625 L 16.414062 6.820312 C 16.414062 6.820312 16.410156 6.6875 16.527344 6.625 C 16.644531 6.558594 16.785156 6.429688 16.785156 6.429688 L 16.769531 6.105469 L 16.5 5.613281 C 16.5 5.613281 16.824219 5.910156 16.84375 5.929688 C 16.863281 5.949219 16.875 6.359375 16.875 6.359375 C 16.875 6.359375 17.152344 6.457031 17.167969 6.492188 C 17.1875 6.53125 17.578125 6.480469 17.578125 6.480469 L 17.765625 6.414062 C 17.765625 6.414062 17.503906 6.261719 17.34375 6.101562 C 17.179688 5.945312 17.128906 5.796875 17.03125 5.675781 C 16.933594 5.554688 16.753906 5.363281 16.753906 5.363281 L 16.652344 5.125 L 15.988281 4.832031 L 15.421875 5.160156 L 15.4375 5.402344 L 14.539062 6.117188 Z M 14.542969 6.65625 "/>
<path style=" stroke:none;fill-rule:nonzero;fill:rgb(52.54902%,41.960784%,6.27451%);fill-opacity:1;" d="M 15.457031 6.441406 C 15.457031 6.441406 15.929688 6.097656 16.058594 6.105469 C 16.09375 6.109375 16.152344 6.113281 16.21875 6.113281 L 16.289062 6.183594 C 16.140625 6.214844 15.984375 6.253906 15.929688 6.265625 C 15.820312 6.292969 15.457031 6.441406 15.457031 6.441406 Z M 15.457031 6.441406 "/>
<path style=" stroke:none;fill-rule:evenodd;fill:rgb(90.196078%,78.039216%,46.666667%);fill-opacity:1;" d="M 16.179688 4.609375 L 16.632812 4.890625 L 16.554688 4.898438 L 16.777344 5.054688 L 16.691406 5.046875 L 16.996094 5.394531 L 17.296875 5.855469 L 17.546875 6.167969 L 17.871094 6.433594 L 18.15625 6.839844 L 18.226562 6.941406 C 18.226562 6.941406 17.976562 6.464844 17.929688 6.359375 C 17.882812 6.25 17.570312 5.675781 17.460938 5.464844 C 17.355469 5.253906 16.960938 4.726562 16.960938 4.726562 L 16.582031 4.242188 L 15.996094 3.890625 L 15.394531 3.523438 C 15.105469 3.382812 14.445312 3.371094 14.226562 3.46875 L 14.441406 3.585938 L 14.273438 3.664062 L 14.691406 3.699219 L 14.542969 3.878906 L 15.109375 4.011719 L 14.867188 4.101562 L 15.292969 4.15625 L 15.136719 4.246094 L 15.816406 4.34375 L 15.679688 4.421875 L 16.195312 4.539062 Z M 16.179688 4.609375 "/>
<path style=" stroke:none;fill-rule:nonzero;fill:rgb(90.196078%,78.039216%,46.666667%);fill-opacity:1;" d="M 16.8125 6.851562 L 17.015625 6.566406 C 17.015625 6.566406 17.132812 6.585938 17.320312 6.582031 C 17.503906 6.578125 17.636719 6.550781 17.636719 6.550781 L 17.773438 6.527344 L 18.117188 6.914062 L 17.960938 6.945312 L 17.824219 6.914062 L 17.070312 6.875 Z M 16.8125 6.851562 "/>
<path style=" stroke:none;fill-rule:evenodd;fill:rgb(90.196078%,78.039216%,46.666667%);fill-opacity:1;" d="M 16.765625 4.285156 L 17.597656 5.460938 L 18.285156 6.988281 L 18.378906 7.09375 L 18.574219 6.941406 L 18.832031 6.167969 L 18.882812 6.039062 L 18.859375 6.308594 L 19.195312 6.125 L 19.523438 5.636719 L 19.367188 6.0625 L 19.683594 6.03125 L 18.929688 6.359375 L 18.789062 6.628906 C 18.789062 6.628906 19.304688 6.402344 19.414062 6.386719 C 19.429688 6.382812 20.109375 6.636719 20.242188 6.757812 C 20.3125 6.824219 22.375 6.542969 22.375 6.542969 L 21.804688 6.128906 C 21.804688 6.128906 21.613281 5.929688 21.285156 5.929688 C 20.953125 5.929688 20.699219 6.203125 20.707031 6.203125 L 20.292969 6.101562 L 20.652344 6.050781 L 21.191406 5.832031 L 21.828125 5.722656 L 21.585938 5.453125 L 20.84375 5.433594 L 20.382812 5.832031 L 20.675781 5.34375 L 21.328125 5.097656 L 20.082031 4.34375 L 19.648438 4.5625 L 19.738281 4.265625 L 20.027344 4.222656 L 19.910156 4.101562 L 19.636719 4.050781 L 19.433594 4.109375 L 19.433594 3.984375 L 19.167969 3.867188 L 18.867188 3.769531 L 18.925781 3.992188 L 18.804688 4.664062 C 18.804688 4.664062 18.328125 5.554688 18.332031 5.542969 C 18.328125 5.546875 18.34375 5.875 18.351562 5.878906 C 18.367188 5.886719 18.089844 5.320312 18.089844 5.320312 L 17.382812 4.273438 L 17.503906 4.328125 L 17.515625 3.773438 L 17.523438 3.667969 L 17.414062 3.792969 L 17.046875 4.085938 Z M 16.765625 4.285156 "/>
<path style=" stroke:none;fill-rule:nonzero;fill:rgb(52.54902%,41.960784%,6.27451%);fill-opacity:1;" d="M 17.394531 3.921875 L 17.199219 4.363281 L 17.433594 5.019531 L 17.203125 4.742188 L 17.140625 4.484375 L 17.011719 4.324219 L 16.933594 4.257812 L 17.253906 4.050781 Z M 17.394531 3.921875 "/>
<path style=" stroke:none;fill-rule:nonzero;fill:rgb(52.54902%,41.960784%,6.27451%);fill-opacity:1;" d="M 18.597656 5.871094 L 18.378906 6.460938 L 17.953125 5.691406 L 17.746094 5.417969 L 18.152344 6.226562 L 18.25 6.527344 L 18.371094 6.742188 L 18.738281 5.878906 L 18.808594 5.414062 L 19.292969 4.386719 L 18.6875 5.375 Z M 18.597656 5.871094 "/>
<path style=" stroke:none;fill-rule:nonzero;fill:rgb(52.54902%,41.960784%,6.27451%);fill-opacity:1;" d="M 19.585938 4.613281 L 19.324219 5.078125 L 19.070312 5.632812 L 19.195312 4.972656 Z M 19.585938 4.613281 "/>
<path style=" stroke:none;fill-rule:nonzero;fill:rgb(52.54902%,41.960784%,6.27451%);fill-opacity:1;" d="M 19.921875 5.300781 C 19.949219 5.265625 20.449219 4.914062 20.449219 4.914062 L 20.667969 4.925781 L 20.785156 4.996094 Z M 19.921875 5.300781 "/>
<path style=" stroke:none;fill-rule:nonzero;fill:rgb(90.196078%,78.039216%,46.666667%);fill-opacity:1;" d="M 18.71875 6.90625 C 18.71875 6.90625 18.984375 6.65625 19.265625 6.542969 C 19.265625 6.542969 19.496094 6.601562 19.65625 6.675781 C 19.8125 6.75 19.886719 6.828125 19.886719 6.828125 Z M 18.71875 6.90625 "/>
<path style=" stroke:none;fill-rule:nonzero;fill:rgb(52.54902%,41.960784%,6.27451%);fill-opacity:1;" d="M 15.53125 5.414062 C 15.648438 5.414062 16.304688 5.566406 16.304688 5.566406 C 16.304688 5.566406 15.542969 5.1875 15.542969 5.175781 C 15.542969 5.175781 15.523438 5.414062 15.53125 5.414062 Z M 15.53125 5.414062 "/>
<path style=" stroke:none;fill-rule:nonzero;fill:rgb(52.54902%,41.960784%,6.27451%);fill-opacity:1;" d="M 19.390625 4.121094 L 19.039062 4.492188 L 18.78125 5.035156 L 18.980469 4.386719 Z M 19.390625 4.121094 "/>
<path style=" stroke:none;fill-rule:nonzero;fill:rgb(52.54902%,41.960784%,6.27451%);fill-opacity:1;" d="M 15.027344 3.660156 L 16.457031 4.339844 L 16.882812 4.832031 L 17.421875 5.691406 L 17.746094 6.191406 L 16.804688 4.863281 L 16.378906 4.542969 L 16.484375 4.53125 L 16.382812 4.40625 L 15.898438 4.273438 L 16.175781 4.28125 L 15.980469 4.175781 L 15.558594 4.105469 L 15.753906 4.050781 L 15.316406 3.816406 L 14.964844 3.761719 L 15.113281 3.707031 Z M 15.027344 3.660156 "/>
<path style=" stroke:none;fill-rule:nonzero;fill:rgb(90.196078%,78.039216%,46.666667%);fill-opacity:1;" d="M 18.757812 3.09375 C 18.636719 3.566406 18.320312 3.566406 18.320312 3.566406 L 18.59375 3.589844 L 18.625 4.539062 L 18.300781 5.203125 L 17.589844 4.304688 L 17.789062 3.539062 C 17.789062 3.539062 17.578125 3.261719 17.523438 2.855469 C 17.460938 2.382812 17.636719 2.125 17.636719 2.125 L 18.15625 2.164062 L 17.863281 2.234375 C 17.863281 2.234375 18.066406 2.273438 18.335938 2.273438 C 18.359375 2.273438 18.746094 2.15625 18.746094 2.15625 C 18.746094 2.15625 18.875 2.640625 18.757812 3.09375 Z M 18.757812 3.09375 "/>
<path style=" stroke:none;fill-rule:nonzero;fill:rgb(90.196078%,78.039216%,46.666667%);fill-opacity:1;" d="M 17.234375 1.953125 C 17.296875 1.8125 17.460938 1.707031 17.734375 1.628906 C 17.800781 1.613281 18.089844 1.582031 18.226562 1.621094 C 18.445312 1.679688 18.605469 1.746094 18.710938 1.820312 C 18.429688 1.914062 18.078125 1.972656 17.757812 1.980469 L 17.960938 1.863281 L 17.4375 2.046875 L 17.28125 2.292969 Z M 17.234375 1.953125 "/>
<path style=" stroke:none;fill-rule:nonzero;fill:rgb(90.196078%,78.039216%,46.666667%);fill-opacity:1;" d="M 17.207031 2.941406 L 17.402344 3.375 L 17.484375 3.515625 L 17.214844 3.410156 L 17.085938 3.015625 L 17.257812 2.550781 L 17.296875 2.628906 L 17.277344 2.960938 Z M 17.207031 2.941406 "/>
<path style=" stroke:none;fill-rule:nonzero;fill:rgb(90.196078%,78.039216%,46.666667%);fill-opacity:1;" d="M 19.203125 3.203125 L 19.121094 2.792969 L 19.074219 2.867188 L 19.046875 2.652344 L 18.925781 3.273438 L 19.085938 3.085938 L 19.082031 3.402344 Z M 19.203125 3.203125 "/>
<path style=" stroke:none;fill-rule:nonzero;fill:rgb(52.54902%,41.960784%,6.27451%);fill-opacity:1;" d="M 17.914062 3.175781 C 17.914062 3.175781 18.03125 3.140625 18.125 3.125 C 18.214844 3.113281 18.402344 3.171875 18.402344 3.171875 C 18.328125 3.296875 18.039062 3.316406 17.914062 3.175781 Z M 17.914062 3.175781 "/>
<path style=" stroke:none;fill-rule:nonzero;fill:rgb(52.54902%,41.960784%,6.27451%);fill-opacity:1;" d="M 18.128906 2.996094 L 18.035156 2.972656 L 18.035156 2.929688 L 18.089844 2.953125 Z M 18.128906 2.996094 "/>
<path style=" stroke:none;fill-rule:nonzero;fill:rgb(52.54902%,41.960784%,6.27451%);fill-opacity:1;" d="M 18.710938 2.480469 L 18.59375 2.523438 C 18.582031 2.527344 18.574219 2.53125 18.5625 2.535156 L 18.617188 2.539062 C 18.574219 2.578125 18.492188 2.613281 18.417969 2.617188 L 18.328125 2.558594 L 18.347656 2.550781 L 18.347656 2.546875 L 18.292969 2.542969 L 18.328125 2.480469 L 18.578125 2.449219 Z M 18.710938 2.480469 "/>
<path style=" stroke:none;fill-rule:nonzero;fill:rgb(52.54902%,41.960784%,6.27451%);fill-opacity:1;" d="M 18.054688 2.550781 L 18.058594 2.675781 L 17.976562 2.574219 L 17.921875 2.621094 C 17.921875 2.621094 17.800781 2.636719 17.722656 2.617188 C 17.671875 2.609375 17.667969 2.570312 17.671875 2.550781 L 17.617188 2.535156 L 17.726562 2.527344 C 17.691406 2.515625 17.578125 2.488281 17.578125 2.488281 L 17.714844 2.457031 L 18.019531 2.484375 Z M 18.054688 2.550781 "/>
<path style=" stroke:none;fill-rule:nonzero;fill:rgb(52.54902%,41.960784%,6.27451%);fill-opacity:1;" d="M 16.453125 6.011719 L 15.214844 5.710938 L 15.441406 5.574219 L 15.921875 5.566406 Z M 16.453125 6.011719 "/>
<path style=" stroke:none;fill-rule:nonzero;fill:rgb(52.54902%,41.960784%,6.27451%);fill-opacity:1;" d="M 18.117188 7.183594 L 13.855469 6.878906 L 13.851562 6.820312 L 18.0625 7.121094 Z M 18.117188 7.183594 "/>
<path style=" stroke:none;fill-rule:nonzero;fill:rgb(52.54902%,41.960784%,6.27451%);fill-opacity:1;" d="M 13.84375 7.023438 L 18.164062 7.238281 L 18.21875 7.300781 L 13.847656 7.078125 Z M 13.84375 7.023438 "/>
<path style=" stroke:none;fill-rule:nonzero;fill:rgb(52.54902%,41.960784%,6.27451%);fill-opacity:1;" d="M 13.84375 7.179688 L 18.253906 7.339844 L 18.3125 7.402344 L 13.859375 7.253906 Z M 13.84375 7.179688 "/>
<path style=" stroke:none;fill-rule:nonzero;fill:rgb(52.54902%,41.960784%,6.27451%);fill-opacity:1;" d="M 22.847656 6.796875 L 18.757812 7.164062 L 18.800781 7.101562 L 22.871094 6.71875 Z M 22.847656 6.796875 "/>
<path style=" stroke:none;fill-rule:nonzero;fill:rgb(52.54902%,41.960784%,6.27451%);fill-opacity:1;" d="M 22.875 6.984375 L 18.695312 7.253906 L 18.738281 7.191406 L 22.882812 6.917969 Z M 22.875 6.984375 "/>
<path style=" stroke:none;fill-rule:nonzero;fill:rgb(52.54902%,41.960784%,6.27451%);fill-opacity:1;" d="M 22.871094 7.152344 L 18.613281 7.371094 L 18.660156 7.304688 L 22.882812 7.078125 Z M 22.871094 7.152344 "/>
<path style=" stroke:none;fill-rule:nonzero;fill:rgb(1.960784%,39.215686%,17.254902%);fill-opacity:1;" d="M 15.382812 9.148438 L 15.382812 8.914062 L 14.652344 8.914062 L 14.652344 8.601562 L 15.308594 8.601562 L 15.308594 8.386719 L 14.652344 8.386719 L 14.652344 8.113281 L 15.367188 8.113281 L 15.367188 7.878906 L 14.355469 7.878906 L 14.355469 9.148438 Z M 15.382812 9.148438 "/>
<path style=" stroke:none;fill-rule:nonzero;fill:rgb(1.960784%,39.215686%,17.254902%);fill-opacity:1;" d="M 17 9.148438 L 17 8.914062 L 16.339844 8.914062 L 16.339844 7.878906 L 16.042969 7.878906 L 16.042969 9.148438 Z M 17 9.148438 "/>
<path style=" stroke:none;fill-rule:nonzero;fill:rgb(1.960784%,39.215686%,17.254902%);fill-opacity:1;" d="M 18.53125 8.304688 L 18.820312 8.304688 C 18.8125 8.230469 18.789062 8.167969 18.753906 8.109375 C 18.722656 8.054688 18.675781 8.003906 18.625 7.96875 C 18.574219 7.929688 18.511719 7.898438 18.445312 7.878906 C 18.378906 7.859375 18.308594 7.847656 18.234375 7.847656 C 18.132812 7.847656 18.039062 7.867188 17.953125 7.898438 C 17.871094 7.933594 17.804688 7.980469 17.746094 8.042969 C 17.691406 8.101562 17.644531 8.175781 17.617188 8.257812 C 17.585938 8.335938 17.570312 8.425781 17.570312 8.519531 C 17.570312 8.613281 17.585938 8.699219 17.617188 8.777344 C 17.644531 8.859375 17.691406 8.929688 17.746094 8.988281 C 17.804688 9.046875 17.871094 9.09375 17.953125 9.128906 C 18.039062 9.160156 18.132812 9.179688 18.234375 9.179688 C 18.320312 9.179688 18.394531 9.164062 18.464844 9.140625 C 18.535156 9.117188 18.59375 9.085938 18.648438 9.039062 C 18.699219 8.992188 18.742188 8.941406 18.773438 8.875 C 18.804688 8.8125 18.824219 8.738281 18.832031 8.660156 L 18.542969 8.660156 C 18.53125 8.746094 18.5 8.8125 18.449219 8.867188 C 18.398438 8.917969 18.328125 8.945312 18.234375 8.945312 C 18.167969 8.945312 18.113281 8.933594 18.066406 8.910156 C 18.019531 8.882812 17.980469 8.851562 17.953125 8.8125 C 17.921875 8.769531 17.902344 8.726562 17.886719 8.675781 C 17.875 8.625 17.867188 8.574219 17.867188 8.519531 C 17.867188 8.464844 17.875 8.410156 17.886719 8.359375 C 17.902344 8.304688 17.921875 8.257812 17.953125 8.21875 C 17.980469 8.175781 18.019531 8.144531 18.066406 8.121094 C 18.113281 8.097656 18.167969 8.082031 18.234375 8.082031 C 18.273438 8.082031 18.308594 8.089844 18.339844 8.101562 C 18.375 8.113281 18.40625 8.128906 18.429688 8.148438 C 18.457031 8.167969 18.480469 8.191406 18.496094 8.21875 C 18.515625 8.246094 18.527344 8.273438 18.53125 8.304688 Z M 18.53125 8.304688 "/>
<path style=" stroke:none;fill-rule:nonzero;fill:rgb(1.960784%,39.215686%,17.254902%);fill-opacity:1;" d="M 19.792969 9.148438 L 19.792969 8.601562 L 20.339844 8.601562 L 20.339844 9.148438 L 20.636719 9.148438 L 20.636719 7.878906 L 20.339844 7.878906 L 20.339844 8.367188 L 19.792969 8.367188 L 19.792969 7.878906 L 19.496094 7.878906 L 19.496094 9.148438 Z M 19.792969 9.148438 "/>
<path style=" stroke:none;fill-rule:nonzero;fill:rgb(1.960784%,39.215686%,17.254902%);fill-opacity:1;" d="M 22.386719 9.148438 L 22.386719 8.914062 L 21.65625 8.914062 L 21.65625 8.601562 L 22.3125 8.601562 L 22.3125 8.386719 L 21.65625 8.386719 L 21.65625 8.113281 L 22.371094 8.113281 L 22.371094 7.878906 L 21.359375 7.878906 L 21.359375 9.148438 Z M 22.386719 9.148438 "/>
<path style=" stroke:none;fill-rule:nonzero;fill:rgb(90.196078%,78.039216%,46.666667%);fill-opacity:1;" d="M 17.234375 11.195312 L 17.234375 10.792969 L 17.558594 10.792969 L 17.558594 10.949219 L 17.714844 10.949219 L 17.714844 10.792969 L 18.039062 10.792969 L 18.039062 10.949219 L 18.191406 10.949219 L 18.191406 10.792969 L 18.515625 10.792969 L 18.515625 10.949219 L 18.667969 10.949219 L 18.667969 10.792969 L 18.992188 10.792969 L 18.992188 10.949219 L 19.144531 10.949219 L 19.144531 10.792969 L 19.46875 10.792969 L 19.46875 11.195312 L 19.265625 11.195312 L 19.265625 11.636719 L 19.65625 11.636719 L 19.65625 11.949219 L 19.960938 11.949219 L 19.960938 11.636719 L 20.617188 11.636719 L 20.617188 12.238281 L 16.105469 12.238281 L 16.105469 11.636719 L 16.761719 11.636719 L 16.761719 11.949219 L 17.070312 11.949219 L 17.070312 11.636719 L 17.484375 11.636719 L 17.484375 11.195312 Z M 16.871094 12.25 L 19.878906 12.238281 C 20.023438 13.289062 20.660156 13.886719 21.785156 14.105469 L 21.785156 15.074219 L 14.929688 15.074219 L 14.929688 14.136719 C 16.199219 13.792969 16.847656 13.164062 16.871094 12.25 Z M 19.09375 13.964844 C 19.09375 13.964844 19.050781 13.480469 18.449219 13.480469 C 17.847656 13.480469 17.789062 14.015625 17.789062 14.015625 L 17.789062 14.714844 L 19.085938 14.714844 Z M 19.09375 13.964844 "/>
<path style=" stroke:none;fill-rule:nonzero;fill:rgb(52.54902%,41.960784%,6.27451%);fill-opacity:1;" d="M 17.539062 11.582031 L 17.539062 11.195312 L 17.484375 11.195312 L 17.484375 11.25 L 17.484375 11.195312 L 17.429688 11.195312 L 17.429688 11.691406 L 17.679688 11.691406 L 17.679688 12.007812 L 18.09375 12.007812 L 18.09375 11.691406 L 18.640625 11.691406 L 18.640625 12.007812 L 19.054688 12.007812 L 19.054688 11.691406 L 19.320312 11.691406 L 19.320312 11.140625 L 17.429688 11.140625 L 17.429688 11.195312 L 17.484375 11.195312 L 17.484375 11.25 L 19.210938 11.25 L 19.210938 11.582031 L 18.945312 11.582031 L 18.945312 11.898438 L 18.75 11.898438 L 18.75 11.582031 L 17.984375 11.582031 L 17.984375 11.898438 L 17.789062 11.898438 L 17.789062 11.582031 Z M 17.539062 11.582031 "/>
<path style=" stroke:none;fill-rule:nonzero;fill:rgb(52.54902%,41.960784%,6.27451%);fill-opacity:1;" d="M 17.660156 10.738281 L 17.660156 10.894531 L 17.613281 10.894531 L 17.613281 10.738281 L 17.179688 10.738281 L 17.179688 11.25 L 17.234375 11.25 L 17.234375 11.195312 L 17.289062 11.195312 L 17.289062 10.847656 L 17.507812 10.847656 L 17.507812 11.003906 L 17.765625 11.003906 L 17.765625 10.847656 L 17.988281 10.847656 L 17.988281 11.003906 L 18.246094 11.003906 L 18.246094 10.847656 L 18.460938 10.847656 L 18.460938 11.003906 L 18.722656 11.003906 L 18.722656 10.847656 L 18.9375 10.847656 L 18.9375 11.003906 L 19.199219 11.003906 L 19.199219 10.847656 L 19.414062 10.847656 L 19.414062 11.140625 L 17.234375 11.140625 L 17.234375 11.195312 L 17.289062 11.195312 L 17.234375 11.195312 L 17.234375 11.25 L 19.523438 11.25 L 19.523438 10.738281 L 19.089844 10.738281 L 19.089844 10.894531 L 19.046875 10.894531 L 19.046875 10.738281 L 18.613281 10.738281 L 18.613281 10.894531 L 18.570312 10.894531 L 18.570312 10.738281 L 18.136719 10.738281 L 18.136719 10.894531 L 18.09375 10.894531 L 18.09375 10.738281 Z M 17.660156 10.738281 "/>
<path style=" stroke:none;fill-rule:nonzero;fill:rgb(76.862745%,0.392157%,29.411765%);fill-opacity:1;" d="M 19.039062 14.691406 L 19.039062 14.664062 L 17.824219 14.664062 L 17.824219 14.023438 L 17.796875 14.023438 L 17.824219 14.027344 C 17.84375 13.867188 17.925781 13.746094 18.035156 13.664062 C 18.148438 13.582031 18.289062 13.542969 18.429688 13.542969 C 18.574219 13.542969 18.714844 13.582031 18.820312 13.664062 C 18.929688 13.746094 19.007812 13.863281 19.023438 14.027344 L 19.050781 14.023438 L 19.023438 14.023438 L 19.011719 14.691406 L 19.039062 14.691406 L 19.039062 14.664062 L 19.039062 14.691406 L 19.066406 14.691406 L 19.078125 14.023438 C 19.058594 13.84375 18.972656 13.710938 18.855469 13.621094 C 18.734375 13.53125 18.582031 13.488281 18.429688 13.488281 C 18.277344 13.488281 18.125 13.53125 18.003906 13.621094 C 17.882812 13.707031 17.792969 13.84375 17.769531 14.019531 L 17.769531 14.71875 L 19.066406 14.71875 L 19.066406 14.691406 Z M 19.039062 14.691406 "/>
<path style=" stroke:none;fill-rule:nonzero;fill:rgb(52.54902%,41.960784%,6.27451%);fill-opacity:1;" d="M 16.707031 12.007812 L 17.125 12.007812 L 17.125 11.691406 L 17.679688 11.691406 L 17.679688 12.007812 L 18.09375 12.007812 L 18.09375 11.691406 L 18.640625 11.691406 L 18.640625 12.007812 L 19.054688 12.007812 L 19.054688 11.691406 L 19.601562 11.691406 L 19.601562 12.007812 L 20.015625 12.007812 L 20.015625 11.691406 L 20.5625 11.691406 L 20.5625 12.183594 L 16.105469 12.183594 L 16.105469 12.238281 L 16.160156 12.238281 L 16.105469 12.238281 L 16.105469 12.292969 L 20.671875 12.292969 L 20.671875 11.578125 L 19.90625 11.578125 L 19.90625 11.894531 L 19.710938 11.894531 L 19.710938 11.578125 L 18.945312 11.578125 L 18.945312 11.894531 L 18.75 11.894531 L 18.75 11.578125 L 17.984375 11.578125 L 17.984375 11.894531 L 17.789062 11.894531 L 17.789062 11.578125 L 17.015625 11.578125 L 17.015625 11.894531 L 16.816406 11.894531 L 16.816406 11.578125 L 16.050781 11.578125 L 16.050781 12.292969 L 16.105469 12.292969 L 16.105469 12.238281 L 16.160156 12.238281 L 16.160156 11.691406 L 16.707031 11.691406 Z M 16.707031 12.007812 "/>
<path style=" stroke:none;fill-rule:nonzero;fill:rgb(52.54902%,41.960784%,6.27451%);fill-opacity:1;" d="M 19.9375 14.25 L 21.160156 14.25 L 21.160156 13.980469 L 21.085938 13.949219 L 19.9375 13.949219 Z M 21.269531 14.25 L 21.730469 14.25 L 21.730469 14.148438 C 21.566406 14.113281 21.414062 14.074219 21.269531 14.023438 Z M 21.730469 14.363281 L 20.5625 14.363281 L 20.5625 14.671875 L 21.730469 14.671875 Z M 20.589844 13.835938 L 20.851562 13.835938 C 20.757812 13.78125 20.671875 13.726562 20.589844 13.660156 Z M 20.085938 13.414062 L 20.328125 13.414062 C 20.246094 13.324219 20.171875 13.226562 20.109375 13.117188 L 20.085938 13.117188 Z M 19.207031 13.53125 L 19.1875 13.53125 Z M 19.078125 13.414062 L 19.976562 13.414062 L 19.976562 13.117188 L 18.851562 13.117188 L 19.105469 13.222656 L 19.011719 13.347656 Z M 18.578125 13.117188 L 18.476562 13.117188 L 18.476562 13.1875 L 18.5625 13.1875 Z M 18.367188 13.1875 L 18.367188 13.117188 L 18.230469 13.117188 L 18.253906 13.1875 Z M 18.007812 13.117188 L 16.871094 13.117188 L 16.871094 13.414062 L 17.765625 13.414062 L 17.8125 13.363281 L 17.722656 13.265625 Z M 17.664062 13.53125 L 17.605469 13.53125 L 17.601562 13.597656 L 17.492188 13.597656 L 17.492188 13.53125 L 16.3125 13.53125 C 16.214844 13.613281 16.109375 13.6875 15.992188 13.757812 L 15.992188 13.835938 L 17.398438 13.835938 L 17.492188 13.574219 L 17.492188 13.597656 L 17.601562 13.597656 L 17.601562 13.53125 L 17.648438 13.546875 Z M 17.535156 13.949219 L 16.726562 13.949219 L 16.726562 14.25 L 17.351562 14.25 L 17.351562 14.160156 L 17.539062 14.160156 Z M 17.351562 14.363281 L 16.234375 14.363281 L 16.234375 14.671875 L 17.535156 14.671875 L 17.535156 14.546875 L 17.351562 14.546875 Z M 17.628906 14.671875 L 17.730469 14.671875 L 17.730469 14.554688 L 17.628906 14.554688 Z M 17.824219 14.671875 L 19.039062 14.671875 L 19.039062 14.035156 C 19.039062 13.96875 18.972656 13.539062 18.421875 13.539062 C 17.871094 13.539062 17.824219 14.035156 17.824219 14.035156 Z M 19.125 14.671875 L 19.230469 14.671875 L 19.230469 14.535156 L 19.125 14.535156 Z M 19.320312 14.671875 L 20.453125 14.671875 L 20.453125 14.363281 L 19.507812 14.363281 L 19.507812 14.527344 L 19.320312 14.527344 Z M 19.828125 13.949219 L 19.320312 13.949219 L 19.320312 13.890625 L 19.472656 13.835938 L 20.480469 13.835938 L 20.480469 13.570312 L 20.4375 13.53125 L 19.339844 13.527344 L 19.472656 13.835938 L 19.320312 13.890625 L 19.320312 14.140625 L 19.507812 14.140625 L 19.507812 14.25 L 19.828125 14.25 Z M 21.289062 14.785156 L 21.289062 15.015625 L 21.730469 15.015625 L 21.730469 14.785156 Z M 21.179688 15.015625 L 21.179688 14.785156 L 19.554688 14.785156 L 19.554688 15.015625 Z M 16.449219 15.015625 L 17.320312 15.015625 L 17.320312 15.121094 L 17.824219 15.121094 L 17.824219 15.015625 L 19.039062 15.015625 L 19.039062 14.785156 L 17.824219 14.785156 L 17.824219 15.121094 L 17.320312 15.121094 L 17.320312 14.785156 L 16.449219 14.785156 Z M 17.417969 15.015625 L 17.730469 15.015625 L 17.730469 14.804688 L 17.417969 14.804688 Z M 19.121094 15.015625 L 19.460938 15.015625 L 19.460938 14.808594 L 19.121094 14.808594 Z M 14.984375 14.671875 L 16.121094 14.671875 L 16.121094 14.363281 L 14.984375 14.363281 Z M 16.339844 14.785156 L 14.984375 14.785156 L 14.984375 15.015625 L 16.339844 15.015625 Z M 14.984375 14.25 L 15.007812 14.25 L 15.007812 14.167969 L 14.984375 14.175781 Z M 15.117188 14.25 L 16.617188 14.25 L 16.617188 13.949219 L 15.621094 13.949219 C 15.464844 14.019531 15.296875 14.078125 15.117188 14.136719 Z M 15.855469 13.835938 L 15.882812 13.835938 L 15.882812 13.820312 Z M 16.433594 13.414062 L 16.761719 13.414062 L 16.761719 13.117188 L 16.671875 13.117188 C 16.605469 13.222656 16.527344 13.324219 16.433594 13.414062 Z M 16.738281 13.003906 L 17.636719 13.003906 L 17.636719 12.703125 L 16.859375 12.703125 C 16.828125 12.808594 16.789062 12.90625 16.738281 13.003906 Z M 17.746094 13.003906 L 19.242188 13.003906 L 19.242188 12.703125 L 17.746094 12.703125 Z M 19.355469 13.003906 L 20.050781 13.003906 C 20.003906 12.910156 19.960938 12.808594 19.929688 12.703125 L 19.355469 12.703125 Z M 16.886719 12.589844 L 18.351562 12.589844 L 18.351562 12.289062 L 16.925781 12.289062 C 16.921875 12.394531 16.910156 12.492188 16.886719 12.589844 Z M 18.464844 12.589844 L 19.894531 12.589844 C 19.871094 12.496094 19.847656 12.394531 19.832031 12.289062 L 18.464844 12.289062 Z M 16.734375 12.179688 L 19.929688 12.179688 L 19.933594 12.226562 C 20.007812 12.746094 20.195312 13.144531 20.503906 13.441406 C 20.667969 13.601562 20.863281 13.730469 21.097656 13.835938 C 21.304688 13.925781 21.535156 14 21.796875 14.050781 L 21.839844 14.058594 L 21.839844 15.125 L 14.875 15.125 L 14.875 14.089844 L 14.914062 14.078125 C 15.542969 13.910156 16.015625 13.667969 16.332031 13.363281 C 16.640625 13.0625 16.800781 12.703125 16.816406 12.265625 Z M 19.414062 14.433594 L 19.414062 14.234375 L 19.128906 14.234375 L 19.125 14.433594 Z M 19.226562 14.140625 L 19.230469 13.925781 L 19.121094 13.960938 C 19.121094 13.960938 19.132812 14.007812 19.132812 14.027344 L 19.128906 14.140625 Z M 19.269531 13.601562 L 19.121094 13.671875 L 19.023438 13.722656 C 19.054688 13.769531 19.078125 13.8125 19.097656 13.863281 L 19.347656 13.78125 Z M 18.960938 13.421875 L 18.859375 13.558594 C 18.902344 13.589844 18.921875 13.605469 18.957031 13.644531 L 19.105469 13.574219 Z M 18.769531 13.511719 L 18.882812 13.371094 L 18.960938 13.261719 L 18.667969 13.144531 L 18.660156 13.1875 L 18.601562 13.464844 C 18.664062 13.472656 18.710938 13.488281 18.769531 13.511719 Z M 18.488281 13.445312 L 18.535156 13.28125 L 18.296875 13.277344 L 18.351562 13.449219 C 18.410156 13.445312 18.4375 13.445312 18.488281 13.445312 Z M 18.253906 13.464844 L 18.144531 13.152344 L 17.871094 13.292969 L 18.089844 13.523438 C 18.15625 13.492188 18.171875 13.484375 18.253906 13.464844 Z M 17.871094 13.429688 L 17.742188 13.582031 L 17.917969 13.644531 C 17.945312 13.617188 17.96875 13.597656 18.003906 13.574219 Z M 17.574219 13.617188 L 17.507812 13.800781 L 17.765625 13.882812 C 17.78125 13.828125 17.804688 13.78125 17.84375 13.726562 L 17.660156 13.648438 Z M 17.738281 13.976562 L 17.628906 13.945312 L 17.632812 14.160156 L 17.730469 14.160156 L 17.730469 14.027344 Z M 17.730469 14.253906 L 17.445312 14.253906 L 17.441406 14.453125 L 17.730469 14.453125 Z M 17.730469 14.253906 "/>
<path style=" stroke:none;fill-rule:evenodd;fill:rgb(90.196078%,78.039216%,46.666667%);fill-opacity:1;" d="M 18.246094 16.375 L 21.515625 17.617188 L 21.566406 17.691406 L 20.789062 17.691406 L 20.789062 18.730469 L 21.183594 18.730469 L 21.183594 19.402344 L 20.765625 19.402344 L 20.757812 19.671875 L 21.171875 19.671875 L 21.171875 19.988281 L 15.3125 19.988281 L 15.3125 19.695312 L 15.695312 19.695312 L 15.695312 19.390625 L 15.332031 19.390625 L 15.332031 18.722656 L 15.726562 18.722656 L 15.726562 17.699219 L 14.804688 17.699219 L 14.804688 17.660156 Z M 16.839844 19.378906 L 16.839844 19.671875 L 19.664062 19.671875 L 19.664062 19.378906 Z M 16.839844 19.378906 "/>
<path style=" stroke:none;fill-rule:nonzero;fill:rgb(52.54902%,41.960784%,6.27451%);fill-opacity:1;" d="M 16.105469 18.765625 L 16.105469 19.3125 L 16.339844 19.3125 L 16.339844 18.765625 Z M 15.992188 19.3125 L 15.992188 18.765625 L 15.757812 18.765625 L 15.757812 19.3125 Z M 16.449219 18.765625 L 16.449219 19.3125 L 16.683594 19.3125 L 16.683594 18.765625 Z M 16.792969 18.765625 L 16.792969 19.3125 L 17.027344 19.3125 L 17.027344 18.765625 Z M 17.136719 18.765625 L 17.136719 19.3125 L 17.371094 19.3125 L 17.371094 18.765625 Z M 17.484375 18.765625 L 17.484375 19.3125 L 17.71875 19.3125 L 17.71875 18.765625 Z M 17.828125 18.765625 L 17.828125 19.3125 L 18.0625 19.3125 L 18.0625 18.765625 Z M 18.171875 18.765625 L 18.171875 19.3125 L 18.40625 19.3125 L 18.40625 18.765625 Z M 18.515625 18.765625 L 18.515625 19.3125 L 18.75 19.3125 L 18.75 18.765625 Z M 18.863281 18.765625 L 18.863281 19.3125 L 19.097656 19.3125 L 19.097656 18.765625 Z M 19.207031 18.765625 L 19.207031 19.3125 L 19.441406 19.3125 L 19.441406 18.765625 Z M 19.550781 18.765625 L 19.550781 19.3125 L 19.785156 19.3125 L 19.785156 18.765625 Z M 19.894531 18.765625 L 19.894531 19.3125 L 20.128906 19.3125 L 20.128906 18.765625 Z M 20.242188 18.765625 L 20.242188 19.3125 L 20.476562 19.3125 L 20.476562 18.765625 Z M 20.585938 18.765625 L 20.585938 19.3125 L 20.820312 19.3125 L 20.820312 18.765625 Z M 20.929688 18.765625 L 20.929688 19.3125 L 21.121094 19.3125 L 21.121094 18.765625 Z M 21.195312 17.546875 L 21.195312 17.597656 L 21.328125 17.597656 Z M 21.082031 17.597656 L 21.082031 17.503906 L 20.847656 17.414062 L 20.847656 17.597656 Z M 20.847656 17.292969 L 21.640625 17.601562 L 21.621094 17.710938 L 20.863281 17.710938 L 20.863281 18.664062 L 21.226562 18.664062 L 21.226562 19.414062 L 20.816406 19.414062 L 20.816406 19.609375 L 21.234375 19.609375 L 21.234375 20.007812 L 15.273438 20.007812 L 15.273438 19.609375 L 15.648438 19.609375 L 15.648438 19.414062 L 15.28125 19.414062 L 15.28125 18.664062 L 15.625 18.664062 L 15.625 17.710938 L 14.753906 17.710938 L 14.734375 17.601562 L 18.25 16.285156 Z M 20.738281 17.597656 L 20.738281 17.371094 L 20.503906 17.277344 L 20.503906 17.597656 Z M 20.394531 17.597656 L 20.394531 17.238281 L 20.160156 17.144531 L 20.160156 17.597656 Z M 20.050781 17.597656 L 20.050781 17.101562 L 19.816406 17.011719 L 19.816406 17.597656 Z M 19.707031 17.597656 L 19.707031 16.96875 L 19.46875 16.875 L 19.46875 17.597656 Z M 19.359375 17.597656 L 19.359375 16.835938 L 19.125 16.742188 L 19.125 17.597656 Z M 19.015625 17.597656 L 19.015625 16.699219 L 18.78125 16.609375 L 18.78125 17.597656 Z M 18.671875 17.597656 L 18.671875 16.566406 L 18.4375 16.472656 L 18.4375 17.597656 Z M 18.328125 17.597656 L 18.328125 16.433594 L 18.25 16.402344 L 18.089844 16.460938 L 18.089844 17.597656 Z M 17.980469 17.597656 L 17.980469 16.5 L 17.746094 16.589844 L 17.746094 17.597656 Z M 17.636719 17.597656 L 17.636719 16.628906 L 17.402344 16.71875 L 17.402344 17.597656 Z M 17.292969 17.597656 L 17.292969 16.761719 L 17.058594 16.847656 L 17.058594 17.597656 Z M 16.949219 17.597656 L 16.949219 16.890625 L 16.714844 16.976562 L 16.714844 17.597656 Z M 16.601562 17.597656 L 16.601562 17.019531 L 16.367188 17.105469 L 16.367188 17.597656 Z M 16.257812 17.597656 L 16.257812 17.148438 L 16.023438 17.238281 L 16.023438 17.597656 Z M 15.914062 17.597656 L 15.914062 17.277344 L 15.679688 17.367188 L 15.679688 17.597656 Z M 15.570312 17.597656 L 15.570312 17.40625 L 15.335938 17.496094 L 15.335938 17.597656 Z M 15.226562 17.597656 L 15.226562 17.535156 L 15.058594 17.597656 Z M 15.382812 19.71875 L 15.382812 19.898438 L 21.125 19.898438 L 21.125 19.71875 Z M 19.609375 19.414062 L 16.902344 19.414062 L 16.902344 19.609375 L 19.609375 19.609375 Z M 19.71875 19.417969 L 19.71875 19.609375 L 20.710938 19.609375 L 20.710938 19.417969 Z M 15.757812 19.417969 L 15.757812 19.609375 L 16.789062 19.609375 L 16.789062 19.417969 Z M 15.414062 18.765625 L 15.414062 19.3125 L 15.648438 19.3125 L 15.648438 18.765625 Z M 15.816406 17.753906 L 15.816406 18.621094 L 20.671875 18.621094 L 20.671875 17.75 Z M 15.816406 17.753906 "/>
</g>
</svg>
