<?xml version="1.0" encoding="UTF-8"?>
<svg xmlns="http://www.w3.org/2000/svg" xmlns:xlink="http://www.w3.org/1999/xlink" width="35pt" height="25pt" viewBox="0 0 35 25" version="1.1">
<g id="surface1">
<path style=" stroke:none;fill-rule:nonzero;fill:rgb(90.196078%,5.098039%,18.039216%);fill-opacity:1;" d="M 18.433594 0 L 18.617188 0 C 18.859375 0.015625 19.097656 0.0585938 19.324219 0.148438 C 19.851562 0.351562 20.292969 0.753906 20.5625 1.25 C 20.761719 1.617188 20.867188 2.039062 20.871094 2.457031 C 21.660156 2.457031 22.449219 2.457031 23.238281 2.457031 L 23.238281 19.085938 C 23.019531 20.0625 22.675781 21.011719 22.167969 21.875 C 21.539062 22.949219 20.65625 23.882812 19.582031 24.515625 C 19.246094 24.710938 18.894531 24.882812 18.523438 25 C 17.6875 24.632812 16.898438 24.144531 16.21875 23.53125 C 15.222656 22.636719 14.46875 21.472656 14.070312 20.191406 C 13.960938 19.835938 13.875 19.472656 13.832031 19.101562 L 13.832031 2.457031 C 14.613281 2.457031 15.394531 2.457031 16.175781 2.457031 C 16.183594 1.90625 16.363281 1.359375 16.699219 0.921875 C 16.96875 0.570312 17.332031 0.292969 17.746094 0.140625 C 17.96875 0.0585938 18.199219 0.015625 18.433594 0 M 17.128906 0.886719 C 17.25 0.988281 17.390625 1.066406 17.542969 1.121094 C 17.820312 1.222656 18.121094 1.265625 18.414062 1.277344 C 18.414062 0.953125 18.414062 0.632812 18.414062 0.3125 C 17.933594 0.335938 17.46875 0.550781 17.128906 0.886719 M 18.664062 0.316406 C 18.664062 0.636719 18.664062 0.957031 18.664062 1.273438 C 18.960938 1.261719 19.257812 1.21875 19.535156 1.113281 C 19.675781 1.058594 19.808594 0.984375 19.921875 0.886719 C 19.585938 0.558594 19.136719 0.34375 18.664062 0.316406 M 16.46875 2.53125 C 16.476562 2.660156 16.480469 2.785156 16.503906 2.910156 C 16.527344 3.039062 16.566406 3.160156 16.605469 3.285156 C 16.691406 3.511719 16.8125 3.726562 16.964844 3.914062 C 17.058594 3.832031 17.164062 3.765625 17.277344 3.707031 C 17.1875 3.566406 17.121094 3.417969 17.074219 3.257812 C 16.945312 2.839844 16.929688 2.386719 17.007812 1.953125 C 17.054688 1.710938 17.132812 1.472656 17.261719 1.257812 C 17.15625 1.203125 17.0625 1.132812 16.972656 1.058594 C 16.632812 1.46875 16.457031 2.003906 16.46875 2.53125 M 19.785156 1.261719 C 19.953125 1.53125 20.039062 1.84375 20.074219 2.15625 C 20.109375 2.453125 20.097656 2.753906 20.039062 3.046875 C 19.988281 3.285156 19.90625 3.519531 19.777344 3.726562 C 19.882812 3.78125 19.984375 3.847656 20.070312 3.929688 C 20.316406 3.632812 20.480469 3.273438 20.546875 2.894531 C 20.554688 2.796875 20.574219 2.695312 20.578125 2.597656 C 20.605469 2.046875 20.429688 1.484375 20.078125 1.058594 C 19.984375 1.136719 19.890625 1.207031 19.785156 1.261719 M 17.472656 1.355469 C 17.300781 1.660156 17.238281 2.019531 17.222656 2.367188 C 18.09375 2.367188 18.964844 2.367188 19.832031 2.367188 C 19.816406 2.019531 19.757812 1.660156 19.574219 1.359375 C 19.355469 1.441406 19.128906 1.488281 18.898438 1.515625 C 18.421875 1.566406 17.925781 1.523438 17.472656 1.355469 M 17.222656 2.617188 C 17.242188 2.960938 17.304688 3.316406 17.488281 3.613281 C 17.855469 3.480469 18.246094 3.433594 18.636719 3.445312 C 18.953125 3.460938 19.269531 3.515625 19.566406 3.628906 C 19.75 3.324219 19.816406 2.964844 19.832031 2.617188 C 18.960938 2.617188 18.09375 2.617188 17.222656 2.617188 M 22.738281 3.292969 C 21.175781 5.734375 19.613281 8.175781 18.050781 10.617188 C 16.75 12.648438 15.445312 14.679688 14.144531 16.710938 C 14.140625 17.382812 14.144531 18.054688 14.144531 18.726562 C 14.144531 18.847656 14.140625 18.96875 14.144531 19.09375 C 14.175781 19.355469 14.234375 19.617188 14.304688 19.871094 C 14.648438 21.109375 15.324219 22.253906 16.242188 23.152344 C 16.90625 23.808594 17.691406 24.332031 18.535156 24.722656 C 18.789062 24.621094 19.03125 24.492188 19.265625 24.351562 C 20.359375 23.703125 21.296875 22.785156 21.949219 21.691406 C 22.425781 20.894531 22.746094 20.003906 22.910156 19.089844 C 22.90625 13.824219 22.914062 8.558594 22.917969 3.292969 C 22.859375 3.292969 22.800781 3.292969 22.738281 3.292969 M 17.59375 3.832031 C 17.421875 3.890625 17.257812 3.96875 17.121094 4.089844 C 17.464844 4.429688 17.933594 4.644531 18.414062 4.667969 C 18.417969 4.347656 18.414062 4.027344 18.414062 3.703125 C 18.136719 3.710938 17.859375 3.75 17.59375 3.832031 M 18.664062 4.667969 C 19.132812 4.632812 19.582031 4.425781 19.917969 4.097656 C 19.792969 3.988281 19.640625 3.910156 19.484375 3.855469 C 19.222656 3.761719 18.941406 3.722656 18.664062 3.707031 C 18.664062 4.027344 18.664062 4.347656 18.664062 4.667969 M 14.5 5.433594 C 14.5 8.65625 14.5 11.875 14.5 15.09375 C 16.109375 12.523438 17.714844 9.949219 19.324219 7.375 C 18.410156 7.375 17.5 7.378906 16.585938 7.378906 C 16.585938 7.550781 16.585938 7.722656 16.585938 7.898438 C 17.183594 7.898438 17.785156 7.898438 18.386719 7.898438 C 17.261719 9.691406 16.140625 11.488281 15.019531 13.285156 C 15.019531 10.839844 15.019531 8.398438 15.019531 5.953125 C 16.75 5.953125 18.480469 5.953125 20.210938 5.953125 C 20.316406 5.78125 20.425781 5.609375 20.535156 5.433594 C 18.523438 5.433594 16.511719 5.433594 14.5 5.433594 Z M 14.5 5.433594 "/>
<path style=" stroke:none;fill-rule:nonzero;fill:rgb(90.196078%,5.098039%,18.039216%);fill-opacity:1;" d="M 22.328125 4.742188 C 22.425781 4.742188 22.527344 4.742188 22.625 4.742188 C 22.625 6.339844 22.625 7.941406 22.625 9.539062 C 22.390625 9.539062 22.160156 9.539062 21.925781 9.539062 C 21.925781 8.578125 21.925781 7.617188 21.925781 6.65625 C 20.929688 8.25 19.933594 9.847656 18.9375 11.441406 C 18.929688 11.453125 18.929688 11.464844 18.929688 11.476562 C 18.929688 12.109375 18.929688 12.738281 18.929688 13.371094 C 19.601562 13.457031 20.238281 13.773438 20.714844 14.253906 C 20.546875 14.421875 20.382812 14.585938 20.214844 14.753906 C 19.871094 14.40625 19.414062 14.167969 18.929688 14.082031 C 18.929688 14.511719 18.929688 14.941406 18.929688 15.375 C 19.820312 15.375 20.710938 15.375 21.601562 15.375 C 21.601562 15.609375 21.601562 15.84375 21.601562 16.078125 C 20.710938 16.078125 19.820312 16.078125 18.929688 16.078125 C 18.929688 16.984375 18.929688 17.894531 18.929688 18.800781 C 19.414062 18.71875 19.867188 18.480469 20.214844 18.132812 C 20.382812 18.296875 20.546875 18.464844 20.714844 18.628906 C 20.238281 19.109375 19.601562 19.425781 18.929688 19.515625 C 18.929688 19.730469 18.929688 19.941406 18.929688 20.15625 C 18.695312 20.15625 18.460938 20.15625 18.226562 20.15625 C 18.226562 19.949219 18.226562 19.738281 18.226562 19.53125 C 17.75 19.484375 17.285156 19.332031 16.882812 19.078125 C 16.539062 18.863281 16.234375 18.582031 16 18.253906 C 15.753906 17.914062 15.578125 17.523438 15.484375 17.109375 C 15.371094 16.585938 15.394531 16.03125 15.554688 15.519531 C 15.6875 15.089844 15.917969 14.6875 16.21875 14.355469 C 16.734375 13.789062 17.464844 13.421875 18.226562 13.355469 C 18.226562 13.097656 18.226562 12.839844 18.226562 12.582031 C 18.195312 12.636719 18.164062 12.691406 18.132812 12.75 C 17.933594 12.628906 17.734375 12.507812 17.535156 12.390625 C 19.132812 9.839844 20.730469 7.292969 22.328125 4.742188 M 16.804688 14.765625 C 16.519531 15.058594 16.308594 15.421875 16.203125 15.816406 C 16.074219 16.292969 16.097656 16.808594 16.269531 17.269531 C 16.425781 17.691406 16.703125 18.070312 17.0625 18.34375 C 17.398438 18.601562 17.804688 18.769531 18.226562 18.820312 C 18.226562 17.234375 18.226562 15.648438 18.226562 14.066406 C 17.691406 14.128906 17.183594 14.382812 16.804688 14.765625 Z M 16.804688 14.765625 "/>
<path style=" stroke:none;fill-rule:nonzero;fill:rgb(90.196078%,5.098039%,18.039216%);fill-opacity:1;" d="M 18.90625 20.566406 C 18.984375 20.519531 19.046875 20.449219 19.097656 20.371094 C 19.039062 20.53125 19.003906 20.703125 19.023438 20.871094 C 19.226562 20.976562 19.402344 21.136719 19.515625 21.339844 C 19.730469 21.726562 19.699219 22.242188 19.433594 22.597656 C 19.292969 22.792969 19.085938 22.9375 18.851562 22.996094 C 18.644531 23.050781 18.421875 23.035156 18.222656 22.957031 C 18.007812 22.871094 17.824219 22.707031 17.703125 22.507812 C 17.558594 22.265625 17.503906 21.96875 17.558594 21.691406 C 17.621094 21.378906 17.816406 21.097656 18.085938 20.921875 C 18.152344 20.875 18.222656 20.808594 18.246094 20.722656 C 18.253906 20.632812 18.195312 20.550781 18.144531 20.480469 C 18.203125 20.523438 18.273438 20.558594 18.347656 20.570312 C 18.453125 20.585938 18.566406 20.519531 18.597656 20.417969 C 18.613281 20.472656 18.640625 20.527344 18.6875 20.558594 C 18.75 20.601562 18.839844 20.609375 18.90625 20.566406 M 18.277344 21.28125 C 18.226562 21.371094 18.222656 21.484375 18.277344 21.570312 C 18.355469 21.707031 18.496094 21.789062 18.601562 21.902344 C 18.664062 21.96875 18.71875 22.054688 18.714844 22.152344 C 18.714844 22.28125 18.714844 22.417969 18.667969 22.539062 C 18.636719 22.617188 18.578125 22.679688 18.511719 22.734375 C 18.609375 22.699219 18.695312 22.640625 18.773438 22.578125 C 18.914062 22.464844 19.027344 22.308594 19.050781 22.128906 C 19.070312 22 19.046875 21.863281 18.957031 21.769531 C 18.859375 21.65625 18.707031 21.617188 18.609375 21.5 C 18.554688 21.433594 18.550781 21.34375 18.558594 21.261719 C 18.566406 21.171875 18.570312 21.066406 18.632812 20.996094 C 18.496094 21.058594 18.355469 21.144531 18.277344 21.28125 Z M 18.277344 21.28125 "/>
<path style=" stroke:none;fill-rule:nonzero;fill:rgb(90.196078%,5.098039%,18.039216%);fill-opacity:1;" d="M 18.539062 23.4375 C 18.558594 23.300781 18.578125 23.167969 18.601562 23.03125 C 18.648438 23.332031 18.691406 23.632812 18.722656 23.933594 C 18.742188 24.101562 18.757812 24.269531 18.761719 24.4375 C 18.652344 24.4375 18.546875 24.4375 18.441406 24.4375 C 18.445312 24.105469 18.492188 23.777344 18.539062 23.449219 C 18.371094 23.605469 18.152344 23.722656 17.921875 23.71875 C 17.699219 23.707031 17.492188 23.589844 17.332031 23.441406 C 17.492188 23.296875 17.691406 23.179688 17.90625 23.167969 C 18.144531 23.15625 18.367188 23.277344 18.539062 23.4375 Z M 18.539062 23.4375 "/>
<path style=" stroke:none;fill-rule:nonzero;fill:rgb(90.196078%,5.098039%,18.039216%);fill-opacity:1;" d="M 18.664062 23.441406 C 18.828125 23.289062 19.035156 23.171875 19.261719 23.167969 C 19.496094 23.167969 19.710938 23.289062 19.875 23.441406 C 19.710938 23.59375 19.503906 23.710938 19.273438 23.71875 C 19.042969 23.714844 18.828125 23.59375 18.664062 23.441406 Z M 18.664062 23.441406 "/>
<path style=" stroke:none;fill-rule:nonzero;fill:rgb(100%,100%,100%);fill-opacity:1;" d="M 17.128906 0.886719 C 17.46875 0.550781 17.933594 0.335938 18.414062 0.3125 C 18.414062 0.632812 18.414062 0.953125 18.414062 1.277344 C 18.121094 1.265625 17.820312 1.222656 17.542969 1.121094 C 17.390625 1.066406 17.25 0.988281 17.128906 0.886719 Z M 17.128906 0.886719 "/>
<path style=" stroke:none;fill-rule:nonzero;fill:rgb(100%,100%,100%);fill-opacity:1;" d="M 18.664062 0.316406 C 19.136719 0.34375 19.585938 0.558594 19.921875 0.886719 C 19.808594 0.984375 19.675781 1.058594 19.535156 1.113281 C 19.257812 1.21875 18.960938 1.261719 18.664062 1.273438 C 18.664062 0.957031 18.664062 0.636719 18.664062 0.316406 Z M 18.664062 0.316406 "/>
<path style=" stroke:none;fill-rule:nonzero;fill:rgb(100%,100%,100%);fill-opacity:1;" d="M 16.46875 2.53125 C 16.457031 2.003906 16.632812 1.46875 16.972656 1.058594 C 17.0625 1.132812 17.15625 1.203125 17.261719 1.257812 C 17.132812 1.472656 17.054688 1.710938 17.007812 1.953125 C 16.929688 2.386719 16.945312 2.839844 17.074219 3.257812 C 17.121094 3.417969 17.1875 3.566406 17.277344 3.707031 C 17.164062 3.765625 17.058594 3.832031 16.964844 3.914062 C 16.8125 3.726562 16.691406 3.511719 16.605469 3.285156 C 16.566406 3.160156 16.527344 3.039062 16.503906 2.910156 C 16.480469 2.785156 16.476562 2.660156 16.46875 2.53125 Z M 16.46875 2.53125 "/>
<path style=" stroke:none;fill-rule:nonzero;fill:rgb(100%,100%,100%);fill-opacity:1;" d="M 19.785156 1.261719 C 19.890625 1.207031 19.984375 1.136719 20.078125 1.058594 C 20.429688 1.484375 20.605469 2.046875 20.578125 2.597656 C 20.574219 2.695312 20.554688 2.796875 20.546875 2.894531 C 20.480469 3.273438 20.316406 3.632812 20.070312 3.929688 C 19.984375 3.847656 19.882812 3.78125 19.777344 3.726562 C 19.90625 3.519531 19.988281 3.285156 20.039062 3.046875 C 20.097656 2.753906 20.109375 2.453125 20.074219 2.15625 C 20.039062 1.84375 19.953125 1.53125 19.785156 1.261719 Z M 19.785156 1.261719 "/>
<path style=" stroke:none;fill-rule:nonzero;fill:rgb(100%,100%,100%);fill-opacity:1;" d="M 17.472656 1.355469 C 17.925781 1.523438 18.421875 1.566406 18.898438 1.515625 C 19.128906 1.488281 19.355469 1.441406 19.574219 1.359375 C 19.757812 1.660156 19.816406 2.019531 19.832031 2.367188 C 18.964844 2.367188 18.09375 2.367188 17.222656 2.367188 C 17.238281 2.019531 17.300781 1.660156 17.472656 1.355469 Z M 17.472656 1.355469 "/>
<path style=" stroke:none;fill-rule:nonzero;fill:rgb(100%,100%,100%);fill-opacity:1;" d="M 17.222656 2.617188 C 18.09375 2.617188 18.960938 2.617188 19.832031 2.617188 C 19.816406 2.964844 19.75 3.324219 19.566406 3.628906 C 19.269531 3.515625 18.953125 3.460938 18.636719 3.445312 C 18.246094 3.433594 17.855469 3.480469 17.488281 3.613281 C 17.304688 3.316406 17.242188 2.960938 17.222656 2.617188 Z M 17.222656 2.617188 "/>
<path style=" stroke:none;fill-rule:nonzero;fill:rgb(100%,100%,100%);fill-opacity:1;" d="M 22.738281 3.292969 C 22.800781 3.292969 22.859375 3.292969 22.917969 3.292969 C 22.914062 8.558594 22.90625 13.824219 22.910156 19.089844 C 22.746094 20.003906 22.425781 20.894531 21.949219 21.691406 C 21.296875 22.785156 20.359375 23.703125 19.265625 24.351562 C 19.03125 24.492188 18.789062 24.621094 18.535156 24.722656 C 17.691406 24.332031 16.90625 23.808594 16.242188 23.152344 C 15.324219 22.253906 14.648438 21.109375 14.304688 19.871094 C 14.234375 19.617188 14.175781 19.355469 14.144531 19.09375 C 14.140625 18.96875 14.144531 18.847656 14.144531 18.726562 C 14.144531 18.054688 14.140625 17.382812 14.144531 16.710938 C 15.445312 14.679688 16.75 12.648438 18.050781 10.617188 C 19.613281 8.175781 21.175781 5.734375 22.738281 3.292969 M 22.328125 4.742188 C 20.730469 7.292969 19.132812 9.839844 17.535156 12.390625 C 17.734375 12.507812 17.933594 12.628906 18.132812 12.75 C 18.164062 12.691406 18.195312 12.636719 18.226562 12.582031 C 18.226562 12.839844 18.226562 13.097656 18.226562 13.355469 C 17.464844 13.421875 16.734375 13.789062 16.21875 14.355469 C 15.917969 14.6875 15.6875 15.089844 15.554688 15.519531 C 15.394531 16.03125 15.371094 16.585938 15.484375 17.109375 C 15.578125 17.523438 15.753906 17.914062 16 18.253906 C 16.234375 18.582031 16.539062 18.863281 16.882812 19.078125 C 17.285156 19.332031 17.75 19.484375 18.226562 19.53125 C 18.226562 19.738281 18.226562 19.949219 18.226562 20.15625 C 18.460938 20.15625 18.695312 20.15625 18.929688 20.15625 C 18.929688 19.941406 18.929688 19.730469 18.929688 19.515625 C 19.601562 19.425781 20.238281 19.109375 20.714844 18.628906 C 20.546875 18.464844 20.382812 18.296875 20.214844 18.132812 C 19.867188 18.480469 19.414062 18.71875 18.929688 18.800781 C 18.929688 17.894531 18.929688 16.984375 18.929688 16.078125 C 19.820312 16.078125 20.710938 16.078125 21.601562 16.078125 C 21.601562 15.84375 21.601562 15.609375 21.601562 15.375 C 20.710938 15.375 19.820312 15.375 18.929688 15.375 C 18.929688 14.941406 18.929688 14.511719 18.929688 14.082031 C 19.414062 14.167969 19.871094 14.40625 20.214844 14.753906 C 20.382812 14.585938 20.546875 14.421875 20.714844 14.253906 C 20.238281 13.773438 19.601562 13.457031 18.929688 13.371094 C 18.929688 12.738281 18.929688 12.109375 18.929688 11.476562 C 18.929688 11.464844 18.929688 11.453125 18.9375 11.441406 C 19.933594 9.847656 20.929688 8.25 21.925781 6.65625 C 21.925781 7.617188 21.925781 8.578125 21.925781 9.539062 C 22.160156 9.539062 22.390625 9.539062 22.625 9.539062 C 22.625 7.941406 22.625 6.339844 22.625 4.742188 C 22.527344 4.742188 22.425781 4.742188 22.328125 4.742188 M 18.90625 20.566406 C 18.839844 20.609375 18.75 20.601562 18.6875 20.558594 C 18.640625 20.527344 18.613281 20.472656 18.597656 20.417969 C 18.566406 20.519531 18.453125 20.585938 18.347656 20.570312 C 18.273438 20.558594 18.203125 20.523438 18.144531 20.480469 C 18.195312 20.550781 18.253906 20.632812 18.246094 20.722656 C 18.222656 20.808594 18.152344 20.875 18.085938 20.921875 C 17.816406 21.097656 17.621094 21.378906 17.558594 21.691406 C 17.503906 21.96875 17.558594 22.265625 17.703125 22.507812 C 17.824219 22.707031 18.007812 22.871094 18.222656 22.957031 C 18.421875 23.035156 18.644531 23.050781 18.851562 22.996094 C 19.085938 22.9375 19.292969 22.792969 19.433594 22.597656 C 19.699219 22.242188 19.730469 21.726562 19.515625 21.339844 C 19.402344 21.136719 19.226562 20.976562 19.023438 20.871094 C 19.003906 20.703125 19.039062 20.53125 19.097656 20.371094 C 19.046875 20.449219 18.984375 20.519531 18.90625 20.566406 M 18.539062 23.4375 C 18.367188 23.277344 18.144531 23.15625 17.90625 23.167969 C 17.691406 23.179688 17.492188 23.296875 17.332031 23.441406 C 17.492188 23.589844 17.699219 23.707031 17.921875 23.71875 C 18.152344 23.722656 18.371094 23.605469 18.539062 23.449219 C 18.492188 23.777344 18.445312 24.105469 18.441406 24.4375 C 18.546875 24.4375 18.652344 24.4375 18.761719 24.4375 C 18.757812 24.269531 18.742188 24.101562 18.722656 23.933594 C 18.691406 23.632812 18.648438 23.332031 18.601562 23.03125 C 18.578125 23.167969 18.558594 23.300781 18.539062 23.4375 M 18.664062 23.441406 C 18.828125 23.59375 19.042969 23.714844 19.273438 23.71875 C 19.503906 23.710938 19.710938 23.59375 19.875 23.441406 C 19.710938 23.289062 19.496094 23.167969 19.261719 23.167969 C 19.035156 23.171875 18.828125 23.289062 18.664062 23.441406 Z M 18.664062 23.441406 "/>
<path style=" stroke:none;fill-rule:nonzero;fill:rgb(100%,100%,100%);fill-opacity:1;" d="M 17.59375 3.832031 C 17.859375 3.75 18.136719 3.710938 18.414062 3.703125 C 18.414062 4.027344 18.417969 4.347656 18.414062 4.667969 C 17.933594 4.644531 17.464844 4.429688 17.121094 4.089844 C 17.257812 3.96875 17.421875 3.890625 17.59375 3.832031 Z M 17.59375 3.832031 "/>
<path style=" stroke:none;fill-rule:nonzero;fill:rgb(100%,100%,100%);fill-opacity:1;" d="M 18.664062 4.667969 C 18.664062 4.347656 18.664062 4.027344 18.664062 3.707031 C 18.941406 3.722656 19.222656 3.761719 19.484375 3.855469 C 19.640625 3.910156 19.792969 3.988281 19.917969 4.097656 C 19.582031 4.425781 19.132812 4.632812 18.664062 4.667969 Z M 18.664062 4.667969 "/>
<path style=" stroke:none;fill-rule:nonzero;fill:rgb(100%,100%,100%);fill-opacity:1;" d="M 14.5 5.433594 C 16.511719 5.433594 18.523438 5.433594 20.535156 5.433594 C 20.425781 5.609375 20.316406 5.78125 20.210938 5.953125 C 18.480469 5.953125 16.75 5.953125 15.019531 5.953125 C 15.019531 8.398438 15.019531 10.839844 15.019531 13.285156 C 16.140625 11.488281 17.261719 9.691406 18.386719 7.898438 C 17.785156 7.898438 17.183594 7.898438 16.585938 7.898438 C 16.585938 7.722656 16.585938 7.550781 16.585938 7.378906 C 17.5 7.378906 18.410156 7.375 19.324219 7.375 C 17.714844 9.949219 16.109375 12.523438 14.5 15.09375 C 14.5 11.875 14.5 8.65625 14.5 5.433594 Z M 14.5 5.433594 "/>
<path style=" stroke:none;fill-rule:nonzero;fill:rgb(100%,100%,100%);fill-opacity:1;" d="M 16.804688 14.765625 C 17.183594 14.382812 17.691406 14.128906 18.226562 14.066406 C 18.226562 15.648438 18.226562 17.234375 18.226562 18.820312 C 17.804688 18.769531 17.398438 18.601562 17.0625 18.34375 C 16.703125 18.070312 16.425781 17.691406 16.269531 17.269531 C 16.097656 16.808594 16.074219 16.292969 16.203125 15.816406 C 16.308594 15.421875 16.519531 15.058594 16.804688 14.765625 Z M 16.804688 14.765625 "/>
<path style=" stroke:none;fill-rule:nonzero;fill:rgb(100%,100%,100%);fill-opacity:1;" d="M 18.277344 21.28125 C 18.355469 21.144531 18.496094 21.058594 18.632812 20.996094 C 18.570312 21.066406 18.566406 21.171875 18.558594 21.261719 C 18.550781 21.34375 18.554688 21.433594 18.609375 21.5 C 18.707031 21.617188 18.859375 21.65625 18.957031 21.769531 C 19.046875 21.863281 19.070312 22 19.050781 22.128906 C 19.027344 22.308594 18.914062 22.464844 18.773438 22.578125 C 18.695312 22.640625 18.609375 22.699219 18.511719 22.734375 C 18.578125 22.679688 18.636719 22.617188 18.667969 22.539062 C 18.714844 22.417969 18.714844 22.28125 18.714844 22.152344 C 18.71875 22.054688 18.664062 21.96875 18.601562 21.902344 C 18.496094 21.789062 18.355469 21.707031 18.277344 21.570312 C 18.222656 21.484375 18.226562 21.371094 18.277344 21.28125 Z M 18.277344 21.28125 "/>
</g>
</svg>
