<?xml version="1.0" encoding="UTF-8"?>
<svg xmlns="http://www.w3.org/2000/svg" xmlns:xlink="http://www.w3.org/1999/xlink" width="35pt" height="25pt" viewBox="0 0 35 25" version="1.1">
<g id="surface1">
<path style=" stroke:none;fill-rule:nonzero;fill:rgb(0%,0%,0%);fill-opacity:1;" d="M 24.109375 12.453125 L 24.109375 12.121094 L 24.441406 12.054688 L 24.441406 12.386719 Z M 11.351562 14.992188 L 11.351562 12.945312 L 11.703125 12.875 L 11.703125 14.617188 L 12.257812 14.503906 L 12.257812 14.8125 Z M 12.472656 14.769531 L 12.472656 12.71875 L 13.414062 12.53125 L 13.414062 12.839844 L 12.824219 12.957031 L 12.824219 13.484375 L 13.277344 13.394531 L 13.277344 13.699219 L 12.824219 13.789062 L 12.824219 14.390625 L 13.453125 14.265625 L 13.453125 14.574219 Z M 14.449219 12.328125 L 14.796875 12.257812 L 14.367188 14.390625 L 14.015625 14.460938 L 13.589844 12.5 L 13.933594 12.429688 L 14.1875 13.800781 Z M 15.308594 13.445312 L 15.59375 13.386719 L 15.453125 12.535156 Z M 15.195312 14.226562 L 14.855469 14.292969 L 15.234375 12.171875 L 15.671875 12.085938 L 16.046875 14.058594 L 15.707031 14.125 L 15.644531 13.683594 L 15.257812 13.761719 Z M 16.25 14.015625 L 16.25 11.96875 L 16.578125 11.902344 L 17.007812 12.992188 L 17.011719 11.816406 L 17.328125 11.753906 L 17.328125 13.800781 L 17.023438 13.863281 L 16.574219 12.671875 L 16.570312 13.953125 Z M 17.875 11.953125 L 17.535156 12.019531 L 17.535156 11.714844 L 18.566406 11.507812 L 18.566406 11.816406 L 18.226562 11.882812 L 18.226562 13.625 L 17.875 13.695312 Z M 18.773438 13.515625 L 18.773438 11.46875 L 19.714844 11.28125 L 19.714844 11.585938 L 19.125 11.703125 L 19.125 12.230469 L 19.578125 12.140625 L 19.578125 12.449219 L 19.125 12.539062 L 19.125 13.140625 L 19.753906 13.015625 L 19.753906 13.320312 Z M 20.664062 11.089844 L 21.015625 11.019531 L 21.015625 12.566406 C 21.015625 12.71875 21.078125 12.777344 21.203125 12.753906 C 21.328125 12.730469 21.390625 12.640625 21.390625 12.492188 L 21.390625 10.945312 L 21.742188 10.875 L 21.742188 12.410156 C 21.742188 12.585938 21.691406 12.730469 21.597656 12.84375 C 21.503906 12.953125 21.371094 13.027344 21.203125 13.0625 C 21.035156 13.09375 20.902344 13.074219 20.804688 13 C 20.710938 12.925781 20.664062 12.800781 20.664062 12.625 Z M 22.058594 12.863281 L 22.058594 12.527344 L 22.394531 12.460938 L 22.394531 12.796875 Z M 23.0625 12.371094 L 23.183594 12.347656 C 23.28125 12.328125 23.34375 12.296875 23.382812 12.246094 C 23.417969 12.199219 23.4375 12.121094 23.4375 12.011719 L 23.4375 11.117188 C 23.4375 11.007812 23.417969 10.9375 23.382812 10.902344 C 23.34375 10.867188 23.28125 10.859375 23.183594 10.878906 L 23.0625 10.902344 Z M 22.710938 10.683594 L 23.234375 10.578125 C 23.417969 10.542969 23.554688 10.566406 23.648438 10.648438 C 23.742188 10.730469 23.789062 10.875 23.789062 11.085938 L 23.789062 11.898438 C 23.789062 12.109375 23.742188 12.277344 23.648438 12.394531 C 23.554688 12.515625 23.417969 12.59375 23.234375 12.628906 L 22.710938 12.730469 Z M 22.710938 10.683594 "/>
<path style=" stroke:none;fill-rule:nonzero;fill:rgb(0%,0%,0%);fill-opacity:1;" d="M 15.261719 1.132812 C 15.261719 0 15.265625 0 16.394531 0 C 16.816406 0 17.183594 0.230469 17.378906 0.574219 L 17.6875 0.574219 C 17.878906 0.230469 18.25 0 18.671875 0 C 19.800781 0 19.804688 0 19.804688 1.132812 C 19.804688 1.726562 19.347656 2.214844 18.765625 2.261719 C 18.699219 2.441406 18.664062 2.636719 18.664062 2.839844 C 18.664062 3.777344 19.421875 4.539062 20.363281 4.539062 C 21.300781 4.539062 22.0625 3.777344 22.0625 2.839844 C 22.0625 2.199219 21.707031 1.644531 21.183594 1.355469 L 21.582031 0.546875 C 27.480469 2.1875 29.902344 8.429688 25.707031 16.03125 C 25.921875 16.316406 26.050781 16.671875 26.050781 17.058594 C 26.050781 17.996094 25.289062 18.757812 24.351562 18.757812 C 24.222656 18.757812 24.101562 18.742188 23.980469 18.714844 C 22.75 20.398438 21.203125 22.125 19.304688 23.863281 C 17.652344 25.378906 17.410156 25.375 15.761719 23.867188 C 13.863281 22.125 12.316406 20.398438 11.082031 18.71875 C 10.964844 18.742188 10.84375 18.757812 10.714844 18.757812 C 9.777344 18.757812 9.015625 17.996094 9.015625 17.058594 C 9.015625 16.671875 9.144531 16.320312 9.359375 16.035156 C 5.164062 8.429688 7.582031 2.1875 13.484375 0.546875 L 13.878906 1.355469 C 13.359375 1.644531 13.003906 2.199219 13.003906 2.839844 C 13.003906 3.777344 13.765625 4.539062 14.703125 4.539062 C 15.640625 4.539062 16.402344 3.777344 16.402344 2.839844 C 16.402344 2.636719 16.367188 2.441406 16.300781 2.261719 C 15.71875 2.214844 15.261719 1.726562 15.261719 1.132812 M 18.132812 20.25 C 18.398438 20.164062 18.628906 20.042969 18.796875 19.921875 C 18.601562 20.066406 18.375 20.179688 18.132812 20.25 M 18.796875 19.921875 C 18.859375 19.878906 18.921875 19.828125 18.976562 19.777344 C 18.929688 19.824219 18.867188 19.875 18.796875 19.921875 "/>
<path style=" stroke:none;fill-rule:nonzero;fill:rgb(100%,100%,100%);fill-opacity:1;" d="M 24.109375 12.453125 L 24.441406 12.386719 L 24.441406 12.054688 L 24.109375 12.121094 Z M 11.351562 14.992188 L 12.257812 14.8125 L 12.257812 14.503906 L 11.703125 14.617188 L 11.703125 12.875 L 11.351562 12.945312 Z M 12.472656 14.769531 L 13.453125 14.574219 L 13.453125 14.265625 L 12.824219 14.390625 L 12.824219 13.789062 L 13.277344 13.699219 L 13.277344 13.394531 L 12.824219 13.484375 L 12.824219 12.957031 L 13.414062 12.839844 L 13.414062 12.53125 L 12.472656 12.71875 Z M 14.449219 12.328125 L 14.1875 13.800781 L 13.933594 12.429688 L 13.589844 12.5 L 14.015625 14.460938 L 14.367188 14.390625 L 14.796875 12.257812 Z M 15.195312 14.226562 L 15.257812 13.761719 L 15.644531 13.683594 L 15.707031 14.125 L 16.046875 14.058594 L 15.671875 12.085938 L 15.234375 12.171875 L 14.855469 14.292969 Z M 16.25 14.015625 L 16.570312 13.953125 L 16.574219 12.671875 L 17.023438 13.863281 L 17.328125 13.800781 L 17.328125 11.753906 L 17.011719 11.816406 L 17.007812 12.992188 L 16.578125 11.902344 L 16.25 11.96875 Z M 17.875 11.953125 L 17.875 13.695312 L 18.226562 13.625 L 18.226562 11.882812 L 18.566406 11.816406 L 18.566406 11.507812 L 17.535156 11.714844 L 17.535156 12.019531 Z M 18.773438 13.515625 L 19.753906 13.320312 L 19.753906 13.015625 L 19.125 13.140625 L 19.125 12.539062 L 19.578125 12.449219 L 19.578125 12.140625 L 19.125 12.230469 L 19.125 11.703125 L 19.714844 11.585938 L 19.714844 11.28125 L 18.773438 11.46875 Z M 20.664062 11.089844 L 20.664062 12.625 C 20.664062 12.800781 20.710938 12.925781 20.804688 13 C 20.902344 13.074219 21.035156 13.09375 21.203125 13.0625 C 21.371094 13.027344 21.503906 12.953125 21.597656 12.84375 C 21.691406 12.730469 21.742188 12.585938 21.742188 12.410156 L 21.742188 10.875 L 21.390625 10.945312 L 21.390625 12.492188 C 21.390625 12.640625 21.328125 12.730469 21.203125 12.753906 C 21.078125 12.777344 21.015625 12.71875 21.015625 12.566406 L 21.015625 11.019531 Z M 22.058594 12.863281 L 22.394531 12.796875 L 22.394531 12.460938 L 22.058594 12.527344 Z M 22.710938 10.683594 L 22.710938 12.730469 L 23.234375 12.628906 C 23.417969 12.59375 23.554688 12.515625 23.648438 12.394531 C 23.742188 12.277344 23.789062 12.109375 23.789062 11.898438 L 23.789062 11.085938 C 23.789062 10.875 23.742188 10.730469 23.648438 10.648438 C 23.554688 10.566406 23.417969 10.542969 23.234375 10.578125 Z M 25.53125 9.839844 C 25.605469 10.667969 25.546875 11.566406 25.34375 12.523438 L 10.734375 15.429688 C 10.324219 14.578125 10.027344 13.75 9.828125 12.964844 Z M 15.308594 13.445312 L 15.453125 12.535156 L 15.59375 13.386719 Z M 23.0625 12.371094 L 23.0625 10.902344 L 23.183594 10.878906 C 23.28125 10.859375 23.34375 10.867188 23.382812 10.902344 C 23.417969 10.9375 23.4375 11.007812 23.4375 11.117188 L 23.4375 12.011719 C 23.4375 12.121094 23.417969 12.199219 23.382812 12.246094 C 23.34375 12.296875 23.28125 12.328125 23.183594 12.347656 Z M 23.0625 12.371094 "/>
<path style=" stroke:none;fill-rule:nonzero;fill:rgb(70.588235%,1.960784%,24.705882%);fill-opacity:1;" d="M 22.523438 18.441406 C 21.671875 19.613281 20.621094 20.816406 19.359375 22.039062 L 19.359375 19.734375 C 19.714844 19.316406 19.929688 18.773438 19.929688 18.183594 C 19.929688 17.589844 19.714844 17.046875 19.359375 16.628906 L 19.359375 13.964844 L 22.523438 13.335938 Z M 19.359375 7.925781 C 19.5 7.972656 19.648438 8 19.808594 8 C 19.957031 8 20.097656 7.96875 20.242188 7.933594 C 20.417969 8.339844 20.785156 8.648438 21.226562 8.746094 L 22.523438 9.003906 L 22.523438 10.1875 L 19.359375 10.816406 Z M 15.707031 22.035156 C 14.445312 20.8125 13.394531 19.609375 12.542969 18.4375 L 12.542969 15.320312 L 15.707031 14.691406 L 15.707031 16.636719 C 15.355469 17.054688 15.140625 17.59375 15.140625 18.183594 C 15.140625 18.773438 15.355469 19.3125 15.707031 19.730469 Z M 12.542969 9.011719 C 13.292969 8.863281 13.84375 8.746094 13.84375 8.746094 C 14.285156 8.648438 14.652344 8.339844 14.828125 7.933594 C 14.972656 7.96875 15.113281 8 15.265625 8 C 15.417969 8 15.566406 7.972656 15.707031 7.925781 L 15.707031 11.542969 L 12.542969 12.171875 Z M 12.542969 9.011719 "/>
<path style=" stroke:none;fill-rule:evenodd;fill:rgb(86.27451%,64.313725%,24.313725%);fill-opacity:1;" d="M 19.457031 19.148438 C 19.4375 18.769531 19.054688 18.527344 18.566406 18.664062 C 18.5625 18.222656 18.066406 17.996094 17.5625 18.097656 C 17.125 17.605469 17.273438 17.003906 18.089844 17.132812 C 18.566406 17.207031 19.28125 17.566406 19.683594 18.304688 C 19.664062 18.609375 19.585938 18.894531 19.457031 19.148438 M 15.742188 19.371094 C 16.082031 19.535156 16.472656 19.324219 16.597656 18.839844 C 16.984375 19.058594 17.429688 18.742188 17.59375 18.257812 C 18.238281 18.121094 18.6875 18.550781 18.167969 19.195312 C 17.867188 19.566406 17.199219 20.003906 16.367188 19.988281 C 16.121094 19.828125 15.90625 19.617188 15.742188 19.371094 M 16.285156 16.433594 C 15.964844 17.128906 16.019531 17.851562 16.1875 18.289062 C 16.265625 18.484375 16.355469 18.628906 16.457031 18.730469 C 16.332031 19.382812 15.703125 19.496094 15.457031 18.730469 C 15.410156 18.558594 15.386719 18.371094 15.386719 18.183594 C 15.386719 17.460938 15.742188 16.824219 16.285156 16.433594 M 17.410156 16.035156 C 17.089844 16.242188 17.066406 16.695312 17.429688 17.050781 C 17.050781 17.273438 17.101562 17.820312 17.441406 18.203125 C 17.234375 18.828125 16.640625 19 16.339844 18.230469 C 16.167969 17.78125 16.121094 16.980469 16.558594 16.265625 C 16.816406 16.132812 17.105469 16.054688 17.410156 16.035156 M 19.675781 17.988281 C 19.238281 17.359375 18.578125 17.042969 18.117188 16.972656 C 17.90625 16.9375 17.734375 16.945312 17.597656 16.984375 C 17.082031 16.539062 17.324219 15.914062 18.15625 16.128906 C 18.410156 16.195312 18.828125 16.410156 19.167969 16.78125 C 19.449219 17.109375 19.636719 17.527344 19.675781 17.988281 M 18.796875 19.921875 C 18.867188 19.875 18.929688 19.824219 18.976562 19.777344 C 18.921875 19.828125 18.859375 19.878906 18.796875 19.921875 M 18.132812 20.25 C 17.945312 20.304688 17.742188 20.332031 17.535156 20.332031 C 17.21875 20.332031 16.917969 20.265625 16.648438 20.140625 C 17.40625 20.070312 18 19.660156 18.292969 19.296875 C 18.425781 19.132812 18.507812 18.980469 18.542969 18.84375 C 19.1875 18.617188 19.605469 19.136719 19.003906 19.753906 L 18.976562 19.777344 C 18.929688 19.824219 18.867188 19.875 18.796875 19.921875 C 18.601562 20.066406 18.375 20.179688 18.132812 20.25 M 18.132812 20.25 C 18.375 20.179688 18.601562 20.066406 18.796875 19.921875 C 18.628906 20.042969 18.398438 20.164062 18.132812 20.25 "/>
<path style=" stroke:none;fill-rule:nonzero;fill:rgb(0%,36.078431%,64.705882%);fill-opacity:1;" d="M 15.953125 16.386719 L 15.953125 14.644531 L 19.113281 14.011719 L 19.113281 16.382812 C 18.691406 16.011719 18.140625 15.789062 17.535156 15.789062 C 16.929688 15.789062 16.375 16.015625 15.953125 16.386719 M 12.296875 18.09375 C 11.71875 17.261719 11.234375 16.449219 10.84375 15.660156 L 12.296875 15.371094 Z M 19.113281 22.273438 C 18.972656 22.410156 18.824219 22.546875 18.675781 22.683594 C 18.558594 22.789062 17.746094 23.617188 17.554688 23.621094 C 17.34375 23.628906 16.511719 22.792969 16.394531 22.683594 C 16.242188 22.542969 16.097656 22.40625 15.953125 22.269531 L 15.953125 19.980469 C 16.375 20.351562 16.929688 20.578125 17.535156 20.578125 C 18.140625 20.578125 18.691406 20.351562 19.113281 19.984375 Z M 25.285156 12.785156 C 24.898438 14.417969 24.085938 16.210938 22.765625 18.097656 L 22.765625 13.285156 Z M 9.769531 12.726562 C 9.464844 11.414062 9.433594 10.207031 9.636719 9.136719 C 9.824219 8.128906 10.34375 7.632812 10.71875 7.632812 C 10.898438 7.632812 11.042969 7.777344 11.042969 7.957031 C 11.042969 8.132812 10.898438 8.28125 10.710938 8.28125 L 10.460938 8.28125 L 10.472656 9.339844 C 10.472656 9.347656 10.832031 9.339844 11.214844 9.269531 C 11.585938 9.199219 11.957031 9.128906 12.296875 9.0625 L 12.296875 12.222656 Z M 22.765625 9.050781 L 23.855469 9.269531 C 24.132812 9.324219 24.378906 9.347656 24.597656 9.339844 L 24.609375 8.28125 L 24.359375 8.28125 C 24.167969 8.28125 24.027344 8.132812 24.027344 7.957031 C 24.027344 7.777344 24.171875 7.632812 24.351562 7.632812 C 24.726562 7.632812 25.246094 8.128906 25.433594 9.136719 C 25.464844 9.289062 25.484375 9.441406 25.503906 9.59375 L 22.765625 10.140625 Z M 15.953125 7.816406 C 16.078125 7.742188 16.191406 7.652344 16.289062 7.542969 C 16.625 7.824219 17.0625 7.992188 17.535156 7.992188 C 18.007812 7.992188 18.445312 7.824219 18.78125 7.542969 C 18.878906 7.648438 18.992188 7.742188 19.113281 7.8125 L 19.113281 10.867188 L 15.953125 11.496094 Z M 15.953125 7.816406 "/>
<path style=" stroke:none;fill-rule:nonzero;fill:rgb(69.803922%,69.803922%,69.803922%);fill-opacity:1;" d="M 22.25 1.460938 C 25.429688 2.691406 27.355469 5.539062 27.132812 9.367188 C 27.085938 6.703125 25.859375 4.605469 23.835938 3.371094 L 23.691406 3.289062 C 23.429688 4.59375 22.355469 5.609375 20.96875 5.609375 C 20.148438 5.609375 19.433594 5.269531 18.945312 4.730469 C 19.335938 5.019531 19.820312 5.191406 20.347656 5.191406 C 21.644531 5.191406 22.699219 4.140625 22.699219 2.839844 C 22.699219 2.324219 22.53125 1.847656 22.25 1.460938 M 12.796875 1.460938 C 12.515625 1.847656 12.351562 2.324219 12.351562 2.839844 C 12.351562 4.140625 13.402344 5.191406 14.703125 5.191406 C 15.226562 5.191406 15.710938 5.019531 16.101562 4.730469 C 15.617188 5.269531 14.898438 5.609375 14.078125 5.609375 C 12.695312 5.609375 11.621094 4.59375 11.355469 3.289062 L 11.214844 3.371094 C 9.191406 4.605469 7.964844 6.703125 7.914062 9.367188 C 7.695312 5.539062 9.621094 2.691406 12.796875 1.460938 "/>
<path style=" stroke:none;fill-rule:nonzero;fill:rgb(98.039216%,76.862745%,0%);fill-opacity:1;" d="M 17.535156 7.75 C 17.023438 7.746094 16.566406 7.523438 16.257812 7.171875 C 16.0625 7.519531 15.691406 7.753906 15.265625 7.753906 C 15.167969 7.753906 15.074219 7.742188 14.984375 7.71875 C 15.007812 7.613281 15.023438 7.5 15.023438 7.386719 C 15.023438 7.292969 15.015625 7.207031 14.996094 7.117188 C 15.078125 7.164062 15.171875 7.1875 15.265625 7.1875 C 15.582031 7.1875 15.835938 6.933594 15.835938 6.621094 L 15.832031 6.238281 L 16.417969 6.238281 C 16.507812 6.773438 16.976562 7.179688 17.535156 7.179688 C 18.097656 7.179688 18.5625 6.773438 18.652344 6.238281 L 19.238281 6.238281 L 19.238281 6.621094 C 19.238281 6.933594 19.492188 7.1875 19.804688 7.1875 C 19.902344 7.1875 19.992188 7.164062 20.070312 7.121094 C 20.054688 7.207031 20.046875 7.292969 20.046875 7.386719 C 20.046875 7.5 20.0625 7.613281 20.085938 7.71875 C 19.996094 7.742188 19.902344 7.753906 19.808594 7.753906 C 19.378906 7.753906 19.007812 7.519531 18.816406 7.171875 C 18.503906 7.523438 18.046875 7.75 17.535156 7.75 M 11.289062 7.957031 C 11.289062 7.644531 11.03125 7.390625 10.71875 7.390625 C 10.152344 7.390625 9.585938 8.066406 9.394531 9.09375 C 8.726562 12.664062 10.546875 17.652344 16.226562 22.863281 C 17.722656 24.234375 17.417969 24.171875 18.84375 22.863281 C 24.523438 17.652344 26.34375 12.664062 25.675781 9.09375 C 25.484375 8.066406 24.917969 7.390625 24.351562 7.390625 C 24.035156 7.390625 23.78125 7.644531 23.78125 7.957031 C 23.78125 8.273438 24.035156 8.527344 24.359375 8.527344 L 24.355469 9.097656 C 23.726562 9.097656 23.214844 8.585938 23.214844 7.957031 C 23.214844 7.332031 23.726562 6.820312 24.359375 6.820312 C 25.488281 6.824219 25.980469 7.964844 26.179688 9.09375 C 26.84375 12.886719 24.847656 18.015625 19.171875 23.222656 C 17.421875 24.832031 17.648438 24.832031 15.898438 23.222656 C 10.21875 18.015625 8.226562 12.886719 8.890625 9.09375 C 9.089844 7.964844 9.582031 6.824219 10.710938 6.820312 C 11.34375 6.820312 11.855469 7.332031 11.855469 7.957031 C 11.855469 8.585938 11.34375 9.097656 10.714844 9.097656 L 10.710938 8.527344 C 11.03125 8.527344 11.289062 8.273438 11.289062 7.957031 M 13.429688 6.25 C 13.464844 6.242188 13.503906 6.238281 13.546875 6.238281 C 14.183594 6.238281 14.695312 6.75 14.695312 7.386719 C 14.695312 7.933594 14.308594 8.394531 13.792969 8.507812 L 13.753906 8.515625 L 11.84375 8.894531 C 12.054688 8.640625 12.179688 8.3125 12.179688 7.957031 C 12.179688 7.390625 11.859375 6.898438 11.386719 6.65625 Z M 21.640625 6.25 L 23.683594 6.65625 C 23.210938 6.898438 22.890625 7.390625 22.890625 7.957031 C 22.890625 8.3125 23.015625 8.640625 23.226562 8.894531 L 21.316406 8.515625 L 21.277344 8.507812 C 20.761719 8.394531 20.375 7.933594 20.375 7.386719 C 20.375 6.75 20.886719 6.238281 21.523438 6.238281 C 21.5625 6.238281 21.605469 6.242188 21.640625 6.25 "/>
</g>
</svg>
