<?xml version="1.0" encoding="UTF-8"?>
<svg xmlns="http://www.w3.org/2000/svg" xmlns:xlink="http://www.w3.org/1999/xlink" width="35pt" height="25pt" viewBox="0 0 35 25" version="1.1">
<g id="surface1">
<path style=" stroke:none;fill-rule:nonzero;fill:rgb(88.627451%,0%,10.196078%);fill-opacity:1;" d="M 18.144531 25 L 10.851562 8.558594 L 14.765625 8.558594 C 15.753906 8.042969 17.347656 7.839844 18.140625 7.839844 C 18.9375 7.839844 20.53125 8.042969 21.523438 8.558594 L 25.433594 8.558594 Z M 18.144531 25 "/>
<path style=" stroke:none;fill-rule:nonzero;fill:rgb(100%,100%,100%);fill-opacity:1;" d="M 18.144531 23.097656 L 17.09375 20.730469 L 17.09375 8.828125 C 17.53125 8.765625 17.917969 8.734375 18.144531 8.734375 C 18.363281 8.734375 18.742188 8.765625 19.164062 8.824219 L 19.164062 20.792969 Z M 18.144531 23.097656 "/>
<path style=" stroke:none;fill-rule:nonzero;fill:rgb(100%,100%,100%);fill-opacity:1;" d="M 12.925781 9.332031 L 15 9.332031 L 15 16.003906 L 12.925781 11.335938 Z M 12.925781 9.332031 "/>
<path style=" stroke:none;fill-rule:nonzero;fill:rgb(100%,100%,100%);fill-opacity:1;" d="M 23.332031 11.398438 L 21.261719 16.066406 L 21.261719 9.332031 L 23.332031 9.332031 Z M 23.332031 11.398438 "/>
<path style=" stroke:none;fill-rule:nonzero;fill:rgb(88.627451%,72.54902%,0%);fill-opacity:1;" d="M 16.878906 12.835938 C 16.503906 13.117188 16.324219 13.453125 16.324219 13.71875 C 16.324219 14.28125 17.125 15.15625 18.816406 15.15625 C 18.910156 15.15625 19 15.152344 19.089844 15.144531 C 18.796875 14.464844 18.074219 13.984375 17.640625 13.605469 C 17.375 13.367188 17.101562 13.132812 16.878906 12.835938 Z M 20.898438 15.4375 C 20.671875 15.546875 20.425781 15.640625 20.167969 15.714844 L 20.167969 15.777344 C 20.167969 17.050781 19.144531 17.878906 18.050781 17.878906 C 17.394531 17.878906 16.613281 17.605469 16.125 17.039062 L 16.546875 16.375 C 16.945312 16.707031 17.386719 17.074219 18.03125 17.074219 C 18.667969 17.074219 19.167969 16.691406 19.214844 15.890625 C 19.082031 15.902344 18.949219 15.90625 18.816406 15.90625 C 17.128906 15.90625 15.332031 15.109375 15.332031 13.71875 C 15.332031 13.003906 15.8125 12.441406 16.507812 12.070312 C 16.464844 11.886719 16.4375 11.683594 16.4375 11.457031 C 16.4375 10.378906 17.328125 9.5625 18.390625 9.5625 C 19.105469 9.5625 19.699219 9.859375 20.082031 10.367188 L 19.632812 10.941406 C 19.300781 10.652344 18.859375 10.367188 18.449219 10.367188 C 17.765625 10.367188 17.386719 10.835938 17.386719 11.457031 C 17.386719 11.546875 17.394531 11.632812 17.414062 11.714844 C 17.863281 11.597656 18.34375 11.535156 18.816406 11.535156 C 19.527344 11.535156 20.238281 11.734375 20.847656 12.003906 L 20.554688 12.667969 C 20.148438 12.449219 19.523438 12.289062 18.816406 12.289062 C 18.441406 12.289062 18.109375 12.332031 17.820312 12.402344 C 18.03125 12.636719 18.316406 12.890625 18.683594 13.203125 C 19.351562 13.777344 19.820312 14.3125 20.035156 14.949219 L 20.082031 14.933594 L 20.082031 13.886719 L 20.898438 13.886719 Z M 20.898438 15.4375 "/>
<path style=" stroke:none;fill-rule:nonzero;fill:rgb(88.627451%,72.54902%,0%);fill-opacity:1;" d="M 18.148438 7.480469 C 16.582031 7.480469 15.363281 7.820312 14.585938 8.265625 L 14.140625 7.492188 C 15.1875 6.90625 16.679688 6.585938 18.148438 6.585938 C 19.617188 6.585938 21.109375 6.90625 22.15625 7.492188 L 21.710938 8.265625 C 20.933594 7.820312 19.714844 7.480469 18.148438 7.480469 Z M 18.148438 7.480469 "/>
<path style=" stroke:none;fill-rule:nonzero;fill:rgb(88.627451%,72.54902%,0%);fill-opacity:1;" d="M 13.390625 5.78125 C 13.128906 5.757812 12.859375 5.515625 12.859375 4.921875 C 12.859375 4.183594 13.457031 3.585938 14.195312 3.585938 C 14.324219 3.585938 14.453125 3.601562 14.570312 3.636719 C 14.746094 3.15625 15.164062 2.789062 15.679688 2.695312 C 16.042969 2.632812 16.40625 2.582031 16.765625 2.546875 C 16.785156 2.28125 17.007812 2.070312 17.28125 2.070312 L 17.8125 2.070312 C 17.597656 1.953125 17.453125 1.726562 17.453125 1.46875 C 17.453125 1.140625 17.6875 0.863281 18.011719 0.796875 L 18.011719 0.523438 L 17.753906 0.523438 L 17.753906 0.269531 L 18.011719 0.269531 L 18.011719 0 L 18.28125 0 L 18.28125 0.269531 L 18.535156 0.269531 L 18.535156 0.523438 L 18.28125 0.523438 L 18.28125 0.796875 C 18.601562 0.863281 18.835938 1.140625 18.835938 1.46875 C 18.835938 1.726562 18.691406 1.953125 18.480469 2.070312 L 19.011719 2.070312 C 19.28125 2.070312 19.503906 2.28125 19.523438 2.546875 C 19.886719 2.582031 20.25 2.632812 20.609375 2.695312 C 21.125 2.792969 21.542969 3.15625 21.71875 3.636719 C 21.835938 3.601562 21.964844 3.585938 22.09375 3.585938 C 22.832031 3.585938 23.433594 4.183594 23.433594 4.921875 C 23.433594 5.515625 23.160156 5.757812 22.898438 5.78125 C 22.957031 5.800781 23.015625 5.820312 23.066406 5.847656 C 23.355469 6.003906 23.53125 6.300781 23.53125 6.628906 C 23.53125 7.226562 22.636719 7.226562 22.636719 6.628906 C 22.460938 6.914062 22.054688 7.257812 21.429688 7.035156 C 21.148438 6.9375 20.886719 6.757812 20.648438 6.484375 C 19.789062 6.691406 18.980469 6.601562 18.144531 6.027344 C 17.308594 6.601562 16.5 6.691406 15.644531 6.484375 C 15.40625 6.757812 15.144531 6.9375 14.863281 7.035156 C 14.234375 7.257812 13.828125 6.914062 13.652344 6.628906 C 13.652344 7.226562 12.757812 7.226562 12.757812 6.628906 C 12.757812 6.300781 12.933594 6.003906 13.222656 5.847656 C 13.273438 5.820312 13.332031 5.800781 13.390625 5.78125 Z M 13.390625 5.78125 "/>
<path style=" stroke:none;fill-rule:nonzero;fill:rgb(88.627451%,0%,10.196078%);fill-opacity:1;" d="M 18.152344 3.90625 L 18.136719 3.90625 C 17.941406 3.910156 17.734375 3.992188 17.605469 4.164062 C 17.421875 4.023438 17.292969 3.796875 17.292969 3.488281 L 17.308594 3.398438 C 16.820312 3.429688 16.328125 3.492188 15.839844 3.578125 C 15.578125 3.625 15.382812 3.855469 15.382812 4.132812 C 15.382812 4.207031 15.394531 4.277344 15.421875 4.339844 C 15.453125 4.421875 15.460938 4.5 15.453125 4.570312 C 15.179688 4.480469 14.859375 4.582031 14.683594 4.808594 C 14.65625 4.785156 14.636719 4.757812 14.613281 4.726562 C 14.539062 4.566406 14.378906 4.457031 14.195312 4.457031 C 13.9375 4.457031 13.730469 4.664062 13.730469 4.921875 C 13.730469 5.003906 13.753906 5.082031 13.789062 5.148438 C 13.949219 5.425781 13.824219 5.65625 13.621094 5.746094 L 13.640625 5.746094 C 13.945312 5.746094 14.234375 5.90625 14.394531 6.164062 C 14.398438 6.167969 14.453125 6.210938 14.46875 6.210938 C 14.539062 6.214844 14.609375 6.191406 14.675781 6.152344 C 14.664062 6.144531 14.660156 6.136719 14.660156 6.136719 C 14.199219 5.933594 14.390625 5.316406 14.785156 5.277344 C 14.699219 4.773438 15.445312 4.546875 15.644531 5.035156 C 15.933594 4.972656 16.273438 5.226562 16.1875 5.574219 C 16.179688 5.605469 16.167969 5.640625 16.152344 5.675781 C 16.589844 5.730469 17.003906 5.660156 17.429688 5.421875 C 17.382812 5.375 17.335938 5.328125 17.289062 5.28125 C 16.957031 4.925781 17.332031 4.449219 17.703125 4.527344 C 17.726562 4.265625 17.929688 4.136719 18.132812 4.128906 C 18.355469 4.132812 18.5625 4.265625 18.585938 4.527344 C 18.957031 4.449219 19.332031 4.925781 19 5.28125 C 18.953125 5.328125 18.90625 5.375 18.859375 5.421875 C 19.289062 5.660156 19.699219 5.730469 20.136719 5.675781 C 20.121094 5.640625 20.109375 5.605469 20.101562 5.574219 C 20.015625 5.226562 20.355469 4.972656 20.648438 5.035156 C 20.84375 4.546875 21.589844 4.773438 21.503906 5.277344 C 21.898438 5.316406 22.089844 5.933594 21.628906 6.136719 C 21.628906 6.136719 21.625 6.144531 21.613281 6.152344 C 21.683594 6.191406 21.753906 6.214844 21.824219 6.210938 C 21.835938 6.210938 21.890625 6.167969 21.894531 6.164062 C 22.054688 5.90625 22.347656 5.746094 22.648438 5.746094 L 22.667969 5.746094 C 22.464844 5.65625 22.339844 5.425781 22.5 5.148438 C 22.535156 5.082031 22.558594 5.003906 22.558594 4.921875 C 22.558594 4.664062 22.351562 4.457031 22.09375 4.457031 C 21.910156 4.457031 21.75 4.566406 21.675781 4.726562 C 21.652344 4.757812 21.632812 4.785156 21.609375 4.808594 C 21.433594 4.582031 21.109375 4.480469 20.835938 4.570312 C 20.828125 4.5 20.835938 4.421875 20.871094 4.339844 C 20.894531 4.277344 20.90625 4.207031 20.90625 4.132812 C 20.90625 3.855469 20.710938 3.625 20.449219 3.578125 C 19.964844 3.492188 19.472656 3.429688 18.980469 3.398438 L 18.996094 3.488281 C 18.996094 3.796875 18.867188 4.023438 18.683594 4.164062 C 18.554688 3.992188 18.347656 3.910156 18.152344 3.90625 Z M 18.152344 3.90625 "/>
</g>
</svg>
