<?xml version="1.0" encoding="UTF-8"?>
<svg xmlns="http://www.w3.org/2000/svg" xmlns:xlink="http://www.w3.org/1999/xlink" width="35pt" height="25pt" viewBox="0 0 35 25" version="1.1">
<defs>
<filter id="alpha" filterUnits="objectBoundingBox" x="0%" y="0%" width="100%" height="100%">
  <feColorMatrix type="matrix" in="SourceGraphic" values="0 0 0 0 1 0 0 0 0 1 0 0 0 0 1 0 0 0 1 0"/>
</filter>
<mask id="mask0">
  <g filter="url(#alpha)">
<rect x="0" y="0" width="35" height="25" style="fill:rgb(0%,0%,0%);fill-opacity:0.0588235;stroke:none;"/>
  </g>
</mask>
<clipPath id="clip1">
  <rect width="35" height="25"/>
</clipPath>
<g id="surface6" clip-path="url(#clip1)">
<path style=" stroke:none;fill-rule:nonzero;fill:rgb(6.27451%,6.27451%,6.27451%);fill-opacity:1;" d="M 30.25 6.839844 C 30.246094 6.796875 30.253906 6.757812 30.269531 6.722656 C 30.285156 6.882812 30.273438 7.046875 30.277344 7.210938 C 30.273438 7.386719 30.289062 7.558594 30.269531 7.734375 C 30.257812 7.683594 30.246094 7.636719 30.25 7.585938 C 30.25 7.335938 30.25 7.089844 30.25 6.839844 Z M 30.25 6.839844 "/>
</g>
</defs>
<g id="surface1">
<path style=" stroke:none;fill-rule:nonzero;fill:rgb(84.705882%,70.588235%,23.529412%);fill-opacity:1;" d="M 16.066406 0 C 16.753906 0.59375 17.589844 0.980469 18.453125 1.246094 C 19.675781 1.617188 20.96875 1.742188 22.246094 1.671875 C 23.242188 1.613281 24.234375 1.429688 25.167969 1.082031 C 25.765625 0.859375 26.339844 0.570312 26.84375 0.183594 C 27.867188 1.3125 28.695312 2.621094 29.261719 4.035156 C 30.289062 6.585938 30.433594 9.488281 29.636719 12.125 C 29.085938 13.949219 28.078125 15.617188 26.792969 17.019531 C 25.292969 18.652344 23.449219 19.941406 21.476562 20.9375 C 20.824219 21.265625 20.152344 21.566406 19.472656 21.835938 C 19.21875 21.9375 18.957031 22.015625 18.722656 22.160156 C 18.210938 22.464844 17.78125 22.886719 17.378906 23.324219 C 16.925781 23.820312 16.515625 24.355469 16.128906 24.902344 C 16.109375 24.933594 16.09375 24.964844 16.085938 25 C 15.765625 24.523438 15.410156 24.066406 15.039062 23.625 C 14.585938 23.101562 14.101562 22.589844 13.515625 22.210938 C 13.21875 22.011719 12.867188 21.917969 12.539062 21.777344 C 10.570312 20.984375 8.6875 19.945312 7.039062 18.601562 C 5.566406 17.394531 4.28125 15.933594 3.390625 14.242188 C 2.773438 13.082031 2.351562 11.820312 2.148438 10.523438 C 1.972656 9.394531 1.957031 8.238281 2.097656 7.105469 C 2.273438 5.683594 2.699219 4.296875 3.347656 3.023438 C 3.871094 1.996094 4.535156 1.035156 5.308594 0.179688 C 6.1875 0.855469 7.253906 1.238281 8.328125 1.464844 C 9.523438 1.710938 10.757812 1.75 11.96875 1.605469 C 12.8125 1.503906 13.648438 1.304688 14.4375 0.980469 C 15.023438 0.738281 15.585938 0.421875 16.066406 0 M 15.632812 2.601562 C 15.425781 2.691406 15.210938 2.753906 14.992188 2.8125 C 14.40625 2.96875 13.8125 3.074219 13.21875 3.175781 C 12.347656 3.3125 11.472656 3.433594 10.59375 3.511719 C 10.304688 3.539062 10.015625 3.527344 9.726562 3.519531 C 8.265625 3.460938 6.804688 3.164062 5.460938 2.582031 C 4.644531 3.875 4.089844 5.332031 3.847656 6.84375 C 3.539062 8.742188 3.707031 10.722656 4.355469 12.539062 C 4.964844 14.269531 6 15.847656 7.347656 17.09375 C 8.636719 18.285156 10.214844 19.175781 11.917969 19.613281 C 12.027344 19.640625 12.128906 19.691406 12.230469 19.738281 C 12.566406 19.894531 12.898438 20.058594 13.226562 20.234375 C 13.902344 20.59375 14.566406 20.988281 15.171875 21.464844 C 15.476562 21.710938 15.773438 21.976562 15.996094 22.300781 C 16.007812 22.332031 16.039062 22.339844 16.070312 22.347656 C 16.335938 21.941406 16.710938 21.625 17.09375 21.335938 C 17.757812 20.84375 18.476562 20.4375 19.210938 20.0625 C 19.519531 19.910156 19.824219 19.75 20.140625 19.628906 C 22.207031 19.105469 24.082031 17.921875 25.492188 16.332031 C 26.519531 15.183594 27.308594 13.824219 27.800781 12.359375 C 28.339844 10.757812 28.511719 9.03125 28.3125 7.347656 C 28.113281 5.664062 27.539062 4.019531 26.625 2.585938 C 25.09375 3.257812 23.410156 3.539062 21.742188 3.535156 C 21.738281 3.539062 21.730469 3.546875 21.726562 3.554688 L 21.707031 3.539062 C 21.144531 3.488281 20.585938 3.425781 20.027344 3.351562 C 19.417969 3.265625 18.8125 3.179688 18.210938 3.0625 C 17.722656 2.972656 17.234375 2.871094 16.761719 2.71875 C 16.574219 2.65625 16.386719 2.59375 16.230469 2.46875 C 16.167969 2.421875 16.089844 2.382812 16.054688 2.308594 C 15.925781 2.421875 15.792969 2.53125 15.632812 2.601562 Z M 15.632812 2.601562 "/>
<path style=" stroke:none;fill-rule:nonzero;fill:rgb(84.705882%,70.588235%,23.529412%);fill-opacity:1;" d="M 9.613281 4.109375 C 9.683594 4.074219 9.742188 4.027344 9.804688 3.980469 C 9.910156 4.0625 10.023438 4.140625 10.15625 4.160156 C 10.257812 4.171875 10.324219 4.257812 10.355469 4.34375 C 10.410156 4.460938 10.335938 4.621094 10.207031 4.644531 C 10.136719 4.652344 10.125 4.570312 10.089844 4.527344 C 10.058594 4.46875 9.960938 4.480469 9.941406 4.546875 C 9.863281 4.796875 10.015625 5.089844 10.261719 5.175781 C 10.304688 5.191406 10.355469 5.183594 10.375 5.140625 C 10.410156 5.058594 10.324219 4.980469 10.351562 4.902344 C 10.378906 4.804688 10.445312 4.699219 10.554688 4.691406 C 10.707031 4.675781 10.835938 4.828125 10.8125 4.972656 C 10.8125 5.042969 10.769531 5.101562 10.734375 5.15625 C 10.902344 5.222656 11.105469 5.15625 11.203125 5.011719 C 11.265625 4.914062 11.28125 4.765625 11.1875 4.6875 C 11.105469 4.648438 11.011719 4.703125 10.929688 4.675781 C 10.847656 4.628906 10.84375 4.507812 10.902344 4.441406 C 10.96875 4.359375 11.078125 4.359375 11.171875 4.34375 C 11.304688 4.328125 11.421875 4.257812 11.539062 4.203125 C 11.582031 4.28125 11.601562 4.382812 11.683594 4.429688 C 11.777344 4.492188 11.894531 4.539062 11.941406 4.652344 C 11.964844 4.730469 11.980469 4.828125 11.921875 4.894531 C 11.886719 4.933594 11.832031 4.964844 11.78125 4.945312 C 11.691406 4.921875 11.6875 4.78125 11.59375 4.769531 C 11.464844 4.875 11.429688 5.082031 11.535156 5.214844 C 11.601562 5.324219 11.730469 5.367188 11.851562 5.363281 C 11.839844 5.292969 11.824219 5.21875 11.859375 5.152344 C 11.890625 5.054688 12.003906 4.996094 12.101562 5.027344 C 12.195312 5.035156 12.242188 5.128906 12.253906 5.214844 C 12.257812 5.324219 12.210938 5.433594 12.140625 5.515625 C 12.238281 5.574219 12.359375 5.597656 12.46875 5.546875 C 12.585938 5.492188 12.699219 5.394531 12.742188 5.265625 C 12.761719 5.191406 12.671875 5.152344 12.613281 5.164062 C 12.546875 5.167969 12.453125 5.21875 12.421875 5.132812 C 12.40625 5.050781 12.445312 4.96875 12.488281 4.902344 C 12.566406 4.816406 12.695312 4.851562 12.796875 4.851562 C 12.914062 4.867188 13.03125 4.832031 13.140625 4.789062 C 12.949219 5.191406 12.757812 5.597656 12.566406 6 C 12.539062 6.0625 12.5 6.125 12.503906 6.199219 C 12.503906 8.226562 12.503906 10.257812 12.503906 12.285156 C 12.503906 12.414062 12.421875 12.519531 12.363281 12.625 C 12.257812 12.800781 12.070312 12.917969 11.867188 12.941406 C 11.523438 12.988281 11.183594 12.894531 10.84375 12.867188 C 10.601562 12.84375 10.339844 12.847656 10.121094 12.972656 C 9.992188 13.042969 9.898438 13.15625 9.804688 13.269531 C 9.695312 13.132812 9.570312 12.996094 9.402344 12.929688 C 9.101562 12.804688 8.765625 12.863281 8.453125 12.90625 C 8.171875 12.941406 7.882812 12.996094 7.609375 12.910156 C 7.351562 12.832031 7.1875 12.585938 7.109375 12.339844 C 7.105469 10.347656 7.109375 8.351562 7.109375 6.359375 C 7.101562 6.269531 7.125 6.175781 7.085938 6.089844 C 6.878906 5.65625 6.675781 5.222656 6.46875 4.789062 C 6.578125 4.832031 6.699219 4.867188 6.816406 4.851562 C 6.917969 4.851562 7.046875 4.816406 7.125 4.90625 C 7.164062 4.972656 7.203125 5.050781 7.191406 5.132812 C 7.160156 5.214844 7.066406 5.167969 7.003906 5.164062 C 6.933594 5.144531 6.828125 5.207031 6.875 5.289062 C 6.9375 5.421875 7.0625 5.53125 7.203125 5.566406 C 7.296875 5.59375 7.386719 5.558594 7.46875 5.515625 C 7.378906 5.40625 7.320312 5.246094 7.390625 5.113281 C 7.453125 4.980469 7.671875 4.992188 7.734375 5.117188 C 7.785156 5.191406 7.777344 5.28125 7.757812 5.363281 C 7.96875 5.386719 8.175781 5.1875 8.132812 4.972656 C 8.113281 4.894531 8.074219 4.792969 7.992188 4.769531 C 7.9375 4.8125 7.914062 4.878906 7.867188 4.925781 C 7.820312 4.964844 7.746094 4.953125 7.703125 4.910156 C 7.625 4.839844 7.640625 4.71875 7.679688 4.632812 C 7.738281 4.519531 7.863281 4.480469 7.960938 4.40625 C 8.011719 4.347656 8.035156 4.269531 8.070312 4.203125 C 8.191406 4.257812 8.308594 4.328125 8.441406 4.34375 C 8.535156 4.359375 8.644531 4.359375 8.707031 4.441406 C 8.773438 4.511719 8.753906 4.648438 8.660156 4.683594 C 8.582031 4.6875 8.5 4.65625 8.425781 4.683594 C 8.339844 4.75 8.339844 4.882812 8.386719 4.976562 C 8.472656 5.148438 8.695312 5.226562 8.875 5.15625 C 8.832031 5.09375 8.789062 5.023438 8.796875 4.945312 C 8.789062 4.789062 8.960938 4.640625 9.113281 4.703125 C 9.226562 4.761719 9.292969 4.917969 9.238281 5.039062 C 9.199219 5.101562 9.242188 5.207031 9.328125 5.183594 C 9.585938 5.109375 9.75 4.804688 9.667969 4.546875 C 9.65625 4.519531 9.628906 4.484375 9.59375 4.492188 C 9.492188 4.480469 9.503906 4.644531 9.40625 4.644531 C 9.308594 4.632812 9.238281 4.53125 9.238281 4.4375 C 9.242188 4.347656 9.285156 4.257812 9.355469 4.199219 C 9.433594 4.148438 9.53125 4.152344 9.613281 4.109375 M 9.058594 5.671875 C 8.679688 5.714844 8.296875 5.789062 7.945312 5.9375 C 7.800781 6.003906 7.652344 6.074219 7.550781 6.199219 C 7.992188 6.207031 8.433594 6.199219 8.871094 6.203125 C 9.9375 6.199219 11 6.207031 12.0625 6.199219 C 11.980469 6.097656 11.859375 6.03125 11.742188 5.972656 C 11.457031 5.835938 11.144531 5.761719 10.832031 5.710938 C 10.246094 5.617188 9.648438 5.605469 9.058594 5.671875 M 7.449219 6.484375 C 7.449219 8.363281 7.449219 10.242188 7.453125 12.125 C 7.441406 12.285156 7.480469 12.476562 7.628906 12.5625 C 7.855469 12.6875 8.121094 12.667969 8.367188 12.628906 C 8.683594 12.578125 9.011719 12.484375 9.335938 12.566406 C 9.523438 12.613281 9.671875 12.742188 9.804688 12.878906 C 9.933594 12.746094 10.078125 12.621094 10.261719 12.570312 C 10.554688 12.488281 10.863281 12.5625 11.15625 12.613281 C 11.414062 12.660156 11.695312 12.695312 11.945312 12.582031 C 12.078125 12.523438 12.152344 12.371094 12.15625 12.230469 C 12.160156 10.316406 12.160156 8.398438 12.160156 6.484375 C 10.589844 6.484375 9.019531 6.484375 7.449219 6.484375 Z M 7.449219 6.484375 "/>
<path style=" stroke:none;fill-rule:nonzero;fill:rgb(100%,100%,100%);fill-opacity:1;" d="M 15.632812 2.601562 C 15.792969 2.53125 15.925781 2.421875 16.054688 2.308594 C 16.089844 2.382812 16.167969 2.421875 16.230469 2.46875 C 16.386719 2.59375 16.574219 2.65625 16.761719 2.71875 C 17.234375 2.871094 17.722656 2.972656 18.210938 3.0625 C 18.8125 3.179688 19.417969 3.265625 20.027344 3.351562 C 18.835938 5.453125 17.648438 7.554688 16.460938 9.65625 C 17.175781 9.433594 17.894531 9.210938 18.613281 8.992188 C 17.832031 10.378906 17.046875 11.769531 16.265625 13.15625 C 16.054688 12.472656 15.847656 11.789062 15.636719 11.101562 C 14.453125 13.175781 13.269531 15.253906 12.082031 17.328125 C 11.878906 17.195312 11.671875 17.054688 11.464844 16.921875 C 11.503906 17.777344 11.542969 18.632812 11.582031 19.488281 C 12.410156 19.207031 13.242188 18.929688 14.070312 18.644531 C 13.847656 18.496094 13.621094 18.347656 13.394531 18.199219 C 14.050781 17.042969 14.707031 15.886719 15.363281 14.730469 C 15.574219 15.410156 15.78125 16.089844 15.992188 16.769531 C 17.910156 13.40625 19.832031 10.039062 21.75 6.675781 C 21.03125 6.890625 20.3125 7.109375 19.597656 7.324219 C 20.160156 6.320312 20.726562 5.316406 21.292969 4.3125 C 21.4375 4.0625 21.574219 3.800781 21.726562 3.554688 C 21.730469 3.546875 21.738281 3.539062 21.742188 3.535156 C 23.410156 3.539062 25.09375 3.257812 26.625 2.585938 C 27.539062 4.019531 28.113281 5.664062 28.3125 7.347656 C 28.511719 9.03125 28.339844 10.757812 27.800781 12.359375 C 27.308594 13.824219 26.519531 15.183594 25.492188 16.332031 C 24.082031 17.921875 22.207031 19.105469 20.140625 19.628906 C 19.824219 19.75 19.519531 19.910156 19.210938 20.0625 C 18.476562 20.4375 17.757812 20.84375 17.09375 21.335938 C 16.710938 21.625 16.335938 21.941406 16.070312 22.347656 C 16.039062 22.339844 16.007812 22.332031 15.996094 22.300781 C 15.773438 21.976562 15.476562 21.710938 15.171875 21.464844 C 14.566406 20.988281 13.902344 20.59375 13.226562 20.234375 C 12.898438 20.058594 12.566406 19.894531 12.230469 19.738281 C 12.128906 19.691406 12.027344 19.640625 11.917969 19.613281 C 10.214844 19.175781 8.636719 18.285156 7.347656 17.09375 C 6 15.847656 4.964844 14.269531 4.355469 12.539062 C 3.707031 10.722656 3.539062 8.742188 3.847656 6.84375 C 4.089844 5.332031 4.644531 3.875 5.460938 2.582031 C 6.804688 3.164062 8.265625 3.460938 9.726562 3.519531 C 10.015625 3.527344 10.304688 3.539062 10.59375 3.511719 C 11.472656 3.433594 12.347656 3.3125 13.21875 3.175781 C 13.8125 3.074219 14.40625 2.96875 14.992188 2.8125 C 15.210938 2.753906 15.425781 2.691406 15.632812 2.601562 M 9.613281 4.109375 C 9.53125 4.152344 9.433594 4.148438 9.355469 4.199219 C 9.285156 4.257812 9.242188 4.347656 9.238281 4.4375 C 9.238281 4.53125 9.308594 4.632812 9.40625 4.644531 C 9.503906 4.644531 9.492188 4.480469 9.59375 4.492188 C 9.628906 4.484375 9.65625 4.519531 9.667969 4.546875 C 9.75 4.804688 9.585938 5.109375 9.328125 5.183594 C 9.242188 5.207031 9.199219 5.101562 9.238281 5.039062 C 9.292969 4.917969 9.226562 4.761719 9.113281 4.703125 C 8.960938 4.640625 8.789062 4.789062 8.796875 4.945312 C 8.789062 5.023438 8.832031 5.09375 8.875 5.15625 C 8.695312 5.226562 8.472656 5.148438 8.386719 4.976562 C 8.339844 4.882812 8.339844 4.75 8.425781 4.683594 C 8.5 4.65625 8.582031 4.6875 8.660156 4.683594 C 8.753906 4.648438 8.773438 4.511719 8.707031 4.441406 C 8.644531 4.359375 8.535156 4.359375 8.441406 4.34375 C 8.308594 4.328125 8.191406 4.257812 8.070312 4.203125 C 8.035156 4.269531 8.011719 4.347656 7.960938 4.40625 C 7.863281 4.480469 7.738281 4.519531 7.679688 4.632812 C 7.640625 4.71875 7.625 4.839844 7.703125 4.910156 C 7.746094 4.953125 7.820312 4.964844 7.867188 4.925781 C 7.914062 4.878906 7.9375 4.8125 7.992188 4.769531 C 8.074219 4.792969 8.113281 4.894531 8.132812 4.972656 C 8.175781 5.1875 7.96875 5.386719 7.757812 5.363281 C 7.777344 5.28125 7.785156 5.191406 7.734375 5.117188 C 7.671875 4.992188 7.453125 4.980469 7.390625 5.113281 C 7.320312 5.246094 7.378906 5.40625 7.46875 5.515625 C 7.386719 5.558594 7.296875 5.59375 7.203125 5.566406 C 7.0625 5.53125 6.9375 5.421875 6.875 5.289062 C 6.828125 5.207031 6.933594 5.144531 7.003906 5.164062 C 7.066406 5.167969 7.160156 5.214844 7.191406 5.132812 C 7.203125 5.050781 7.164062 4.972656 7.125 4.90625 C 7.046875 4.816406 6.917969 4.851562 6.816406 4.851562 C 6.699219 4.867188 6.578125 4.832031 6.46875 4.789062 C 6.675781 5.222656 6.878906 5.65625 7.085938 6.089844 C 7.125 6.175781 7.101562 6.269531 7.109375 6.359375 C 7.109375 8.351562 7.105469 10.347656 7.109375 12.339844 C 7.1875 12.585938 7.351562 12.832031 7.609375 12.910156 C 7.882812 12.996094 8.171875 12.941406 8.453125 12.90625 C 8.765625 12.863281 9.101562 12.804688 9.402344 12.929688 C 9.570312 12.996094 9.695312 13.132812 9.804688 13.269531 C 9.898438 13.15625 9.992188 13.042969 10.121094 12.972656 C 10.339844 12.847656 10.601562 12.84375 10.84375 12.867188 C 11.183594 12.894531 11.523438 12.988281 11.867188 12.941406 C 12.070312 12.917969 12.257812 12.800781 12.363281 12.625 C 12.421875 12.519531 12.503906 12.414062 12.503906 12.285156 C 12.503906 10.257812 12.503906 8.226562 12.503906 6.199219 C 12.5 6.125 12.539062 6.0625 12.566406 6 C 12.757812 5.597656 12.949219 5.191406 13.140625 4.789062 C 13.03125 4.832031 12.914062 4.867188 12.796875 4.851562 C 12.695312 4.851562 12.566406 4.816406 12.488281 4.902344 C 12.445312 4.96875 12.40625 5.050781 12.421875 5.132812 C 12.453125 5.21875 12.546875 5.167969 12.613281 5.164062 C 12.671875 5.152344 12.761719 5.191406 12.742188 5.265625 C 12.699219 5.394531 12.585938 5.492188 12.46875 5.546875 C 12.359375 5.597656 12.238281 5.574219 12.140625 5.515625 C 12.210938 5.433594 12.257812 5.324219 12.253906 5.214844 C 12.242188 5.128906 12.195312 5.035156 12.101562 5.027344 C 12.003906 4.996094 11.890625 5.054688 11.859375 5.152344 C 11.824219 5.21875 11.839844 5.292969 11.851562 5.363281 C 11.730469 5.367188 11.601562 5.324219 11.535156 5.214844 C 11.429688 5.082031 11.464844 4.875 11.59375 4.769531 C 11.6875 4.78125 11.691406 4.921875 11.78125 4.945312 C 11.832031 4.964844 11.886719 4.933594 11.921875 4.894531 C 11.980469 4.828125 11.964844 4.730469 11.941406 4.652344 C 11.894531 4.539062 11.777344 4.492188 11.683594 4.429688 C 11.601562 4.382812 11.582031 4.28125 11.539062 4.203125 C 11.421875 4.257812 11.304688 4.328125 11.171875 4.34375 C 11.078125 4.359375 10.96875 4.359375 10.902344 4.441406 C 10.84375 4.507812 10.847656 4.628906 10.929688 4.675781 C 11.011719 4.703125 11.105469 4.648438 11.1875 4.6875 C 11.28125 4.765625 11.265625 4.914062 11.203125 5.011719 C 11.105469 5.15625 10.902344 5.222656 10.734375 5.15625 C 10.769531 5.101562 10.8125 5.042969 10.8125 4.972656 C 10.835938 4.828125 10.707031 4.675781 10.554688 4.691406 C 10.445312 4.699219 10.378906 4.804688 10.351562 4.902344 C 10.324219 4.980469 10.410156 5.058594 10.375 5.140625 C 10.355469 5.183594 10.304688 5.191406 10.261719 5.175781 C 10.015625 5.089844 9.863281 4.796875 9.941406 4.546875 C 9.960938 4.480469 10.058594 4.46875 10.089844 4.527344 C 10.125 4.570312 10.136719 4.652344 10.207031 4.644531 C 10.335938 4.621094 10.410156 4.460938 10.355469 4.34375 C 10.324219 4.257812 10.257812 4.171875 10.15625 4.160156 C 10.023438 4.140625 9.910156 4.0625 9.804688 3.980469 C 9.742188 4.027344 9.683594 4.074219 9.613281 4.109375 M 5.453125 4.601562 C 5.511719 4.890625 5.566406 5.179688 5.566406 5.476562 C 5.558594 5.617188 5.519531 5.753906 5.472656 5.886719 C 5.371094 6.1875 5.402344 6.511719 5.476562 6.808594 C 5.496094 6.875 5.492188 6.945312 5.492188 7.011719 C 5.332031 6.898438 5.195312 6.75 5.101562 6.582031 C 4.992188 6.367188 5.007812 6.121094 4.964844 5.894531 C 4.785156 5.964844 4.664062 6.140625 4.640625 6.328125 C 4.589844 6.554688 4.640625 6.796875 4.789062 6.976562 C 5.023438 7.265625 5.3125 7.515625 5.484375 7.851562 C 5.496094 7.957031 5.488281 8.066406 5.492188 8.171875 C 5.359375 8.101562 5.230469 8.019531 5.136719 7.90625 C 4.96875 7.707031 4.878906 7.453125 4.851562 7.199219 C 4.734375 7.242188 4.625 7.328125 4.574219 7.453125 C 4.523438 7.589844 4.550781 7.742188 4.597656 7.878906 C 4.644531 8.015625 4.738281 8.125 4.824219 8.238281 C 5.015625 8.480469 5.277344 8.644531 5.472656 8.878906 C 5.472656 9.089844 5.484375 9.300781 5.480469 9.511719 C 5.273438 9.375 5.09375 9.183594 5.007812 8.945312 C 4.949219 8.789062 4.925781 8.621094 4.902344 8.457031 C 4.746094 8.511719 4.679688 8.683594 4.640625 8.832031 C 4.574219 9.058594 4.585938 9.335938 4.753906 9.515625 C 4.988281 9.765625 5.246094 9.992188 5.449219 10.265625 C 5.472656 10.359375 5.460938 10.457031 5.46875 10.550781 C 5.191406 10.375 4.878906 10.199219 4.730469 9.886719 C 4.671875 9.75 4.628906 9.601562 4.542969 9.476562 C 4.457031 9.589844 4.402344 9.722656 4.378906 9.859375 C 4.335938 10.085938 4.445312 10.335938 4.640625 10.457031 C 4.859375 10.625 5.09375 10.769531 5.304688 10.945312 C 5.386719 11.011719 5.460938 11.105469 5.460938 11.21875 C 5.464844 11.347656 5.472656 11.480469 5.480469 11.609375 C 5.242188 11.476562 5.019531 11.316406 4.808594 11.140625 C 4.683594 11.039062 4.601562 10.894531 4.558594 10.742188 C 4.433594 10.894531 4.371094 11.105469 4.429688 11.296875 C 4.519531 11.605469 4.773438 11.839844 5.0625 11.957031 C 5.21875 12.03125 5.40625 12.054688 5.539062 12.171875 C 5.617188 12.234375 5.65625 12.324219 5.710938 12.402344 C 5.96875 12.769531 6.300781 13.097656 6.703125 13.308594 C 7.09375 13.53125 7.535156 13.679688 7.988281 13.691406 C 8.367188 13.714844 8.746094 13.730469 9.125 13.6875 C 8.898438 13.878906 8.636719 14.027344 8.425781 14.238281 C 8.363281 14.304688 8.3125 14.382812 8.304688 14.476562 C 8.292969 14.640625 8.398438 14.839844 8.578125 14.851562 C 8.695312 14.875 8.804688 14.800781 8.863281 14.703125 C 9.058594 14.386719 9.296875 14.078125 9.621094 13.878906 C 9.71875 13.808594 9.859375 13.792969 9.960938 13.863281 C 10.300781 14.054688 10.550781 14.375 10.75 14.703125 C 10.808594 14.800781 10.917969 14.875 11.035156 14.851562 C 11.21875 14.839844 11.324219 14.640625 11.3125 14.476562 C 11.296875 14.328125 11.179688 14.222656 11.074219 14.136719 C 10.890625 13.972656 10.675781 13.851562 10.492188 13.6875 C 10.761719 13.714844 11.03125 13.722656 11.300781 13.707031 C 11.5625 13.691406 11.824219 13.695312 12.082031 13.636719 C 12.464844 13.554688 12.820312 13.378906 13.144531 13.167969 C 13.492188 12.929688 13.78125 12.613281 14 12.253906 C 14.074219 12.148438 14.195312 12.085938 14.316406 12.046875 C 14.511719 11.980469 14.710938 11.90625 14.867188 11.769531 C 14.996094 11.652344 15.113281 11.515625 15.171875 11.347656 C 15.25 11.144531 15.195312 10.910156 15.058594 10.742188 C 15.011719 10.894531 14.929688 11.039062 14.804688 11.140625 C 14.597656 11.316406 14.371094 11.476562 14.136719 11.613281 C 14.140625 11.480469 14.148438 11.347656 14.15625 11.214844 C 14.15625 11.105469 14.230469 11.007812 14.316406 10.941406 C 14.523438 10.765625 14.757812 10.625 14.972656 10.460938 C 15.164062 10.339844 15.273438 10.101562 15.242188 9.878906 C 15.21875 9.734375 15.164062 9.59375 15.070312 9.476562 C 14.984375 9.601562 14.941406 9.75 14.886719 9.886719 C 14.738281 10.199219 14.425781 10.371094 14.148438 10.550781 C 14.15625 10.457031 14.144531 10.359375 14.164062 10.265625 C 14.371094 9.992188 14.628906 9.765625 14.859375 9.519531 C 15.03125 9.335938 15.042969 9.058594 14.976562 8.828125 C 14.9375 8.683594 14.871094 8.511719 14.714844 8.457031 C 14.691406 8.613281 14.664062 8.773438 14.613281 8.925781 C 14.53125 9.171875 14.347656 9.375 14.132812 9.511719 C 14.132812 9.300781 14.140625 9.089844 14.144531 8.878906 C 14.359375 8.625 14.648438 8.445312 14.84375 8.171875 C 14.992188 7.992188 15.09375 7.765625 15.0625 7.53125 C 15.039062 7.371094 14.910156 7.25 14.761719 7.199219 C 14.730469 7.601562 14.503906 8 14.125 8.171875 C 14.125 8.066406 14.121094 7.960938 14.128906 7.855469 C 14.296875 7.535156 14.558594 7.289062 14.792969 7.019531 C 14.953125 6.839844 15.027344 6.589844 14.980469 6.355469 C 14.957031 6.15625 14.839844 5.96875 14.648438 5.894531 C 14.621094 6.046875 14.625 6.207031 14.585938 6.363281 C 14.535156 6.632812 14.339844 6.855469 14.125 7.011719 C 14.121094 6.945312 14.121094 6.878906 14.136719 6.8125 C 14.199219 6.570312 14.226562 6.3125 14.1875 6.066406 C 14.167969 5.917969 14.09375 5.78125 14.070312 5.632812 C 14.027344 5.460938 14.0625 5.28125 14.074219 5.105469 C 14.085938 4.933594 14.136719 4.769531 14.164062 4.601562 C 13.96875 4.601562 13.769531 4.679688 13.648438 4.835938 C 13.523438 5 13.425781 5.191406 13.40625 5.398438 C 13.355469 5.726562 13.457031 6.058594 13.605469 6.351562 C 13.707031 6.59375 13.859375 6.828125 13.871094 7.097656 C 13.769531 7.054688 13.667969 7.003906 13.585938 6.925781 C 13.453125 6.800781 13.328125 6.664062 13.25 6.496094 C 13.175781 6.332031 13.136719 6.152344 13.125 5.972656 C 13.054688 6.003906 12.980469 6.039062 12.945312 6.109375 C 12.8125 6.363281 12.824219 6.679688 12.976562 6.925781 C 13.195312 7.324219 13.601562 7.570312 13.851562 7.945312 C 13.863281 8.070312 13.847656 8.199219 13.851562 8.324219 C 13.566406 8.210938 13.351562 7.972656 13.207031 7.710938 C 13.128906 7.535156 13.0625 7.355469 12.957031 7.195312 C 12.75 7.429688 12.753906 7.796875 12.910156 8.058594 C 13.0625 8.304688 13.316406 8.453125 13.503906 8.667969 C 13.632812 8.816406 13.796875 8.945312 13.867188 9.132812 C 13.878906 9.28125 13.875 9.433594 13.878906 9.585938 C 13.707031 9.464844 13.535156 9.332031 13.429688 9.144531 C 13.308594 8.953125 13.222656 8.730469 13.214844 8.503906 C 13.039062 8.566406 12.953125 8.746094 12.929688 8.917969 C 12.886719 9.140625 12.972656 9.367188 13.121094 9.53125 C 13.3125 9.742188 13.488281 9.964844 13.691406 10.164062 C 13.765625 10.246094 13.859375 10.328125 13.882812 10.441406 C 13.898438 10.507812 13.890625 10.570312 13.882812 10.636719 C 13.699219 10.472656 13.515625 10.308594 13.320312 10.15625 C 13.160156 10.023438 13.007812 9.867188 12.925781 9.671875 C 12.894531 9.601562 12.863281 9.53125 12.824219 9.460938 C 12.640625 9.746094 12.65625 10.167969 12.902344 10.414062 C 13.035156 10.566406 13.222656 10.644531 13.386719 10.757812 C 13.597656 10.878906 13.761719 11.078125 13.859375 11.296875 C 13.953125 11.507812 13.917969 11.753906 13.804688 11.949219 C 13.765625 11.839844 13.714844 11.738281 13.636719 11.652344 C 13.472656 11.472656 13.320312 11.277344 13.132812 11.117188 C 12.941406 10.949219 12.796875 10.726562 12.71875 10.484375 C 12.566406 10.734375 12.527344 11.058594 12.652344 11.328125 C 12.746094 11.550781 12.953125 11.703125 13.160156 11.8125 C 13.351562 11.90625 13.519531 12.039062 13.648438 12.203125 C 13.65625 12.316406 13.597656 12.421875 13.527344 12.507812 C 13.417969 12.628906 13.300781 12.75 13.160156 12.835938 C 12.90625 13.023438 12.628906 13.179688 12.335938 13.289062 C 11.984375 13.40625 11.613281 13.449219 11.246094 13.433594 C 10.945312 13.425781 10.640625 13.417969 10.339844 13.4375 C 10.089844 13.449219 9.839844 13.476562 9.589844 13.453125 C 9.226562 13.429688 8.863281 13.417969 8.5 13.429688 C 7.972656 13.457031 7.421875 13.398438 6.953125 13.144531 C 6.640625 12.976562 6.332031 12.789062 6.097656 12.519531 C 6.023438 12.433594 5.960938 12.320312 5.964844 12.203125 C 6.097656 12.039062 6.265625 11.90625 6.457031 11.8125 C 6.679688 11.695312 6.902344 11.523438 6.984375 11.273438 C 7.085938 11.019531 7.042969 10.71875 6.898438 10.488281 C 6.816406 10.730469 6.671875 10.949219 6.480469 11.117188 C 6.296875 11.273438 6.152344 11.464844 5.988281 11.640625 C 5.90625 11.726562 5.851562 11.835938 5.8125 11.949219 C 5.707031 11.769531 5.667969 11.539062 5.738281 11.339844 C 5.789062 11.207031 5.871094 11.085938 5.964844 10.976562 C 6.140625 10.777344 6.394531 10.675781 6.605469 10.519531 C 6.742188 10.402344 6.867188 10.253906 6.894531 10.074219 C 6.933594 9.875 6.914062 9.660156 6.804688 9.488281 C 6.800781 9.484375 6.785156 9.484375 6.777344 9.480469 C 6.722656 9.578125 6.691406 9.683594 6.636719 9.78125 C 6.539062 9.945312 6.398438 10.078125 6.25 10.195312 C 6.070312 10.335938 5.902344 10.484375 5.734375 10.636719 C 5.726562 10.566406 5.714844 10.492188 5.738281 10.425781 C 5.765625 10.324219 5.84375 10.25 5.910156 10.175781 C 6.117188 9.972656 6.300781 9.746094 6.496094 9.53125 C 6.636719 9.375 6.722656 9.160156 6.6875 8.949219 C 6.667969 8.765625 6.585938 8.570312 6.402344 8.5 C 6.390625 8.730469 6.308594 8.953125 6.1875 9.144531 C 6.082031 9.332031 5.910156 9.464844 5.738281 9.585938 C 5.742188 9.433594 5.738281 9.285156 5.746094 9.132812 C 5.78125 9.039062 5.839844 8.960938 5.90625 8.890625 C 6.070312 8.714844 6.226562 8.535156 6.414062 8.382812 C 6.554688 8.257812 6.699219 8.117188 6.761719 7.933594 C 6.859375 7.695312 6.832031 7.394531 6.660156 7.195312 C 6.554688 7.355469 6.488281 7.535156 6.410156 7.710938 C 6.265625 7.976562 6.050781 8.210938 5.765625 8.324219 C 5.761719 8.199219 5.761719 8.070312 5.757812 7.945312 C 5.898438 7.746094 6.074219 7.582031 6.246094 7.414062 C 6.441406 7.214844 6.640625 7 6.726562 6.730469 C 6.792969 6.535156 6.761719 6.324219 6.6875 6.136719 C 6.65625 6.050781 6.574219 6.003906 6.492188 5.972656 C 6.472656 6.222656 6.410156 6.476562 6.257812 6.679688 C 6.121094 6.851562 5.957031 7.019531 5.746094 7.097656 C 5.75 7.027344 5.757812 6.957031 5.777344 6.890625 C 5.886719 6.550781 6.101562 6.253906 6.179688 5.902344 C 6.269531 5.5625 6.222656 5.183594 6.011719 4.894531 C 5.894531 4.703125 5.671875 4.597656 5.453125 4.601562 M 24.382812 4.648438 C 24.007812 4.671875 23.632812 4.699219 23.257812 4.683594 C 22.921875 4.640625 22.578125 4.605469 22.242188 4.679688 C 22.132812 4.695312 22.042969 4.769531 21.96875 4.851562 C 21.921875 4.9375 21.914062 5.054688 21.964844 5.140625 C 22.085938 5.273438 22.285156 5.3125 22.367188 5.480469 C 22.5 5.679688 22.488281 5.921875 22.492188 6.144531 C 22.496094 7.015625 22.492188 7.890625 22.492188 8.761719 C 22.496094 8.902344 22.472656 9.046875 22.457031 9.1875 C 22.433594 9.394531 22.398438 9.609375 22.25 9.765625 C 22.589844 9.78125 22.9375 9.820312 23.246094 9.980469 C 23.355469 10.042969 23.46875 10.109375 23.542969 10.214844 C 23.613281 10.328125 23.660156 10.457031 23.675781 10.59375 C 23.878906 10.570312 24.085938 10.539062 24.285156 10.480469 C 24.277344 10.398438 24.296875 10.316406 24.316406 10.238281 C 24.324219 10.140625 24.316406 10.042969 24.320312 9.949219 C 24.25 9.890625 24.179688 9.835938 24.117188 9.769531 C 24.070312 9.675781 24.035156 9.570312 24.027344 9.464844 C 23.984375 9.097656 23.976562 8.730469 23.984375 8.359375 C 23.992188 8.269531 23.988281 8.175781 24.035156 8.097656 C 24.109375 7.988281 24.246094 7.925781 24.378906 7.933594 C 24.539062 7.953125 24.710938 8.003906 24.828125 8.121094 C 25.089844 8.421875 25.125 8.835938 25.210938 9.210938 C 25.257812 9.421875 25.3125 9.632812 25.398438 9.832031 C 25.761719 9.824219 26.128906 9.8125 26.488281 9.882812 C 26.671875 9.925781 26.878906 9.988281 26.96875 10.171875 C 27.035156 10.320312 27.027344 10.492188 27.015625 10.652344 C 27.242188 10.605469 27.515625 10.515625 27.59375 10.269531 C 27.609375 10.183594 27.640625 10.066406 27.574219 9.992188 C 27.425781 9.933594 27.269531 9.871094 27.160156 9.746094 C 27.097656 9.644531 27.085938 9.519531 27.066406 9.40625 C 27.023438 9.113281 26.988281 8.820312 26.898438 8.542969 C 26.820312 8.316406 26.703125 8.085938 26.492188 7.957031 C 26.363281 7.863281 26.1875 7.847656 26.074219 7.730469 C 25.980469 7.636719 25.945312 7.472656 26.027344 7.359375 C 26.089844 7.253906 26.222656 7.226562 26.308594 7.140625 C 26.601562 6.867188 26.746094 6.460938 26.738281 6.0625 C 26.742188 5.683594 26.609375 5.289062 26.320312 5.03125 C 26.144531 4.882812 25.933594 4.773438 25.714844 4.703125 C 25.28125 4.570312 24.824219 4.613281 24.382812 4.648438 M 21.480469 10.113281 C 21.210938 10.132812 20.933594 10.164062 20.675781 10.261719 C 20.574219 10.308594 20.460938 10.367188 20.417969 10.480469 C 20.394531 10.542969 20.386719 10.644531 20.464844 10.675781 C 20.574219 10.726562 20.699219 10.726562 20.804688 10.785156 C 21.003906 10.890625 21.09375 11.109375 21.207031 11.289062 C 21.65625 12.203125 22.101562 13.121094 22.546875 14.035156 C 22.675781 14.300781 22.808594 14.558594 22.921875 14.832031 C 22.96875 14.960938 23.113281 15 23.230469 15.03125 C 23.367188 15.058594 23.523438 15.0625 23.648438 14.992188 C 23.835938 14.785156 23.957031 14.53125 24.089844 14.285156 C 24.597656 13.324219 25.109375 12.359375 25.621094 11.394531 C 25.765625 11.132812 25.882812 10.847656 26.117188 10.65625 C 26.261719 10.5625 26.445312 10.578125 26.609375 10.527344 C 26.746094 10.492188 26.730469 10.261719 26.605469 10.214844 C 26.410156 10.128906 26.195312 10.117188 25.984375 10.109375 C 25.644531 10.097656 25.304688 10.097656 24.96875 10.164062 C 24.855469 10.191406 24.730469 10.21875 24.640625 10.304688 C 24.585938 10.351562 24.574219 10.457031 24.644531 10.5 C 24.75 10.570312 24.886719 10.605469 24.953125 10.726562 C 25.035156 10.863281 24.957031 11.027344 24.902344 11.160156 C 24.773438 11.417969 24.640625 11.679688 24.519531 11.941406 C 24.445312 12.109375 24.359375 12.269531 24.234375 12.40625 C 24.113281 12.5625 23.859375 12.605469 23.699219 12.480469 C 23.597656 12.402344 23.527344 12.289062 23.476562 12.175781 C 23.320312 11.851562 23.160156 11.527344 23.007812 11.199219 C 22.964844 11.074219 22.898438 10.9375 22.957031 10.804688 C 23.019531 10.667969 23.179688 10.621094 23.269531 10.507812 C 23.320312 10.453125 23.300781 10.367188 23.242188 10.324219 C 23.058594 10.171875 22.808594 10.148438 22.578125 10.125 C 22.214844 10.101562 21.847656 10.09375 21.480469 10.113281 M 18.480469 13.855469 C 18.355469 13.898438 18.316406 14.0625 18.390625 14.164062 C 18.472656 14.242188 18.585938 14.289062 18.65625 14.382812 C 18.714844 14.449219 18.730469 14.542969 18.753906 14.628906 C 18.804688 14.847656 18.804688 15.074219 18.808594 15.300781 C 18.808594 15.65625 18.800781 16.011719 18.78125 16.367188 C 18.777344 16.660156 18.765625 16.953125 18.726562 17.246094 C 18.71875 17.40625 18.707031 17.570312 18.632812 17.714844 C 18.5625 17.832031 18.4375 17.890625 18.328125 17.953125 C 18.332031 18.007812 18.324219 18.066406 18.363281 18.113281 C 18.421875 18.179688 18.515625 18.199219 18.601562 18.214844 C 18.804688 18.246094 19.011719 18.242188 19.214844 18.210938 C 19.3125 18.195312 19.417969 18.171875 19.492188 18.105469 C 19.542969 18.058594 19.542969 17.980469 19.523438 17.921875 C 19.441406 17.855469 19.339844 17.820312 19.265625 17.742188 C 19.1875 17.523438 19.199219 17.289062 19.199219 17.0625 C 19.199219 16.8125 19.195312 16.5625 19.199219 16.3125 C 19.199219 16.171875 19.316406 16.03125 19.46875 16.039062 C 19.613281 16.03125 19.71875 16.160156 19.765625 16.285156 C 19.992188 16.867188 20.175781 17.46875 20.449219 18.035156 C 20.542969 17.917969 20.578125 17.769531 20.632812 17.632812 C 20.765625 17.285156 20.886719 16.933594 21.035156 16.59375 C 21.101562 16.417969 21.171875 16.207031 21.367188 16.128906 C 21.523438 16.054688 21.71875 16.199219 21.710938 16.367188 C 21.757812 16.707031 21.722656 17.046875 21.703125 17.386719 C 21.6875 17.503906 21.65625 17.628906 21.574219 17.722656 C 21.503906 17.800781 21.425781 17.878906 21.371094 17.96875 C 21.359375 18.03125 21.398438 18.089844 21.453125 18.121094 C 21.582031 18.207031 21.746094 18.210938 21.894531 18.226562 C 22.160156 18.238281 22.429688 18.25 22.695312 18.210938 C 22.800781 18.195312 22.921875 18.195312 23.007812 18.117188 C 23.085938 18.050781 23.109375 17.914062 23.042969 17.832031 C 22.960938 17.75 22.832031 17.703125 22.792969 17.585938 C 22.726562 17.355469 22.71875 17.113281 22.703125 16.875 C 22.675781 16.316406 22.695312 15.757812 22.6875 15.199219 C 22.59375 15.023438 22.542969 14.828125 22.492188 14.632812 C 22.417969 14.453125 22.324219 14.28125 22.238281 14.105469 C 22.179688 13.992188 22.144531 13.867188 22.050781 13.777344 C 21.824219 13.8125 21.71875 14.035156 21.648438 14.230469 C 21.453125 14.617188 21.308594 15.023438 21.132812 15.417969 C 21.089844 15.496094 21.046875 15.574219 20.992188 15.644531 C 20.910156 15.757812 20.746094 15.761719 20.628906 15.707031 C 20.542969 15.648438 20.488281 15.558594 20.441406 15.46875 C 20.234375 15.003906 20.019531 14.539062 19.8125 14.074219 C 19.769531 13.988281 19.726562 13.894531 19.660156 13.820312 C 19.597656 13.78125 19.519531 13.769531 19.445312 13.757812 C 19.121094 13.714844 18.789062 13.746094 18.480469 13.855469 Z M 18.480469 13.855469 "/>
<path style=" stroke:none;fill-rule:nonzero;fill:rgb(100%,100%,100%);fill-opacity:1;" d="M 24.257812 5.304688 C 24.480469 5.242188 24.75 5.308594 24.902344 5.492188 C 25.058594 5.679688 25.097656 5.933594 25.109375 6.171875 C 25.121094 6.460938 25.097656 6.769531 24.925781 7.011719 C 24.800781 7.195312 24.570312 7.277344 24.355469 7.285156 C 24.234375 7.289062 24.097656 7.269531 24.011719 7.179688 C 23.941406 7.082031 23.921875 6.957031 23.925781 6.839844 C 23.945312 6.464844 23.96875 6.089844 23.984375 5.714844 C 23.996094 5.546875 24.082031 5.355469 24.257812 5.304688 Z M 24.257812 5.304688 "/>
<path style=" stroke:none;fill-rule:nonzero;fill:rgb(93.72549%,23.137255%,20%);fill-opacity:1;" d="M 20.027344 3.351562 C 20.585938 3.425781 21.144531 3.488281 21.707031 3.539062 L 21.726562 3.554688 C 21.574219 3.800781 21.4375 4.0625 21.292969 4.3125 C 20.726562 5.316406 20.160156 6.320312 19.597656 7.324219 C 20.3125 7.109375 21.03125 6.890625 21.75 6.675781 C 19.832031 10.039062 17.910156 13.40625 15.992188 16.769531 C 15.78125 16.089844 15.574219 15.410156 15.363281 14.730469 C 14.707031 15.886719 14.050781 17.042969 13.394531 18.199219 C 13.621094 18.347656 13.847656 18.496094 14.070312 18.644531 C 13.242188 18.929688 12.410156 19.207031 11.582031 19.488281 C 11.542969 18.632812 11.503906 17.777344 11.464844 16.921875 C 11.671875 17.054688 11.878906 17.195312 12.082031 17.328125 C 13.269531 15.253906 14.453125 13.175781 15.636719 11.101562 C 15.847656 11.789062 16.054688 12.472656 16.265625 13.15625 C 17.046875 11.769531 17.832031 10.378906 18.613281 8.992188 C 17.894531 9.210938 17.175781 9.433594 16.460938 9.65625 C 17.648438 7.554688 18.835938 5.453125 20.027344 3.351562 Z M 20.027344 3.351562 "/>
<path style=" stroke:none;fill-rule:nonzero;fill:rgb(93.72549%,23.137255%,20%);fill-opacity:1;" d="M 7.449219 6.484375 C 9.019531 6.484375 10.589844 6.484375 12.160156 6.484375 C 12.160156 8.398438 12.160156 10.316406 12.15625 12.230469 C 12.152344 12.371094 12.078125 12.523438 11.945312 12.582031 C 11.695312 12.695312 11.414062 12.660156 11.15625 12.613281 C 10.863281 12.5625 10.554688 12.488281 10.261719 12.570312 C 10.078125 12.621094 9.933594 12.746094 9.804688 12.878906 C 9.671875 12.742188 9.523438 12.613281 9.335938 12.566406 C 9.011719 12.484375 8.683594 12.578125 8.367188 12.628906 C 8.121094 12.667969 7.855469 12.6875 7.628906 12.5625 C 7.480469 12.476562 7.441406 12.285156 7.453125 12.125 C 7.449219 10.242188 7.449219 8.363281 7.449219 6.484375 M 9.003906 6.988281 C 9.039062 7.050781 9.078125 7.113281 9.066406 7.1875 C 9.066406 7.25 9.019531 7.308594 8.953125 7.304688 C 8.84375 7.304688 8.734375 7.277344 8.644531 7.210938 C 8.671875 7.332031 8.679688 7.453125 8.632812 7.570312 C 8.507812 7.59375 8.410156 7.488281 8.308594 7.433594 C 8.347656 7.53125 8.382812 7.644531 8.34375 7.75 C 8.332031 7.789062 8.28125 7.816406 8.25 7.785156 C 8.167969 7.730469 8.089844 7.671875 7.996094 7.632812 C 7.976562 7.757812 8.019531 7.890625 7.960938 8.003906 C 7.847656 8.035156 7.753906 7.933594 7.660156 7.886719 C 7.625 8.136719 7.679688 8.425781 7.886719 8.589844 C 8.183594 8.5 8.417969 8.300781 8.679688 8.144531 C 9.03125 8.652344 9.382812 9.164062 9.734375 9.675781 C 9.152344 10.511719 8.570312 11.339844 7.988281 12.175781 C 8.042969 12.214844 8.097656 12.253906 8.152344 12.289062 C 8.722656 11.46875 9.292969 10.644531 9.863281 9.824219 C 10.289062 10.367188 10.710938 10.914062 11.136719 11.460938 C 11.34375 11.71875 11.539062 11.988281 11.753906 12.242188 C 11.785156 12.195312 11.816406 12.148438 11.847656 12.101562 C 11.230469 11.273438 10.609375 10.449219 9.992188 9.625 C 10.28125 9.210938 10.570312 8.800781 10.855469 8.386719 C 11.027344 8.398438 11.203125 8.433594 11.375 8.40625 C 11.539062 8.359375 11.695312 8.277344 11.804688 8.144531 C 11.9375 7.984375 11.988281 7.753906 11.921875 7.558594 C 11.839844 7.78125 11.609375 7.953125 11.367188 7.941406 C 11.367188 7.925781 11.371094 7.898438 11.371094 7.882812 C 11.453125 7.695312 11.5 7.492188 11.59375 7.3125 C 11.480469 7.402344 11.367188 7.496094 11.265625 7.605469 C 11.199219 7.660156 11.128906 7.746094 11.035156 7.734375 C 11.03125 7.625 11.011719 7.507812 11.042969 7.402344 C 11.074219 7.28125 11.152344 7.179688 11.203125 7.066406 C 11.035156 7.09375 10.871094 7.183594 10.765625 7.320312 C 10.640625 7.480469 10.585938 7.699219 10.617188 7.902344 C 10.648438 8.027344 10.691406 8.152344 10.710938 8.277344 C 10.4375 8.679688 10.144531 9.078125 9.863281 9.476562 C 9.53125 8.996094 9.199219 8.511719 8.867188 8.027344 C 8.996094 7.945312 9.109375 7.847656 9.222656 7.746094 C 9.359375 7.640625 9.449219 7.492188 9.570312 7.375 C 9.441406 7.179688 9.238281 7.027344 9.003906 6.988281 Z M 9.003906 6.988281 "/>
<path style=" stroke:none;fill-rule:nonzero;fill:rgb(93.72549%,23.137255%,20%);fill-opacity:1;" d="M 21.480469 10.113281 C 21.847656 10.09375 22.214844 10.101562 22.578125 10.125 C 22.808594 10.148438 23.058594 10.171875 23.242188 10.324219 C 23.300781 10.367188 23.320312 10.453125 23.269531 10.507812 C 23.179688 10.621094 23.019531 10.667969 22.957031 10.804688 C 22.898438 10.9375 22.964844 11.074219 23.007812 11.199219 C 23.160156 11.527344 23.320312 11.851562 23.476562 12.175781 C 23.527344 12.289062 23.597656 12.402344 23.699219 12.480469 C 23.859375 12.605469 24.113281 12.5625 24.234375 12.40625 C 24.359375 12.269531 24.445312 12.109375 24.519531 11.941406 C 24.640625 11.679688 24.773438 11.417969 24.902344 11.160156 C 24.957031 11.027344 25.035156 10.863281 24.953125 10.726562 C 24.886719 10.605469 24.75 10.570312 24.644531 10.5 C 24.574219 10.457031 24.585938 10.351562 24.640625 10.304688 C 24.730469 10.21875 24.855469 10.191406 24.96875 10.164062 C 25.304688 10.097656 25.644531 10.097656 25.984375 10.109375 C 26.195312 10.117188 26.410156 10.128906 26.605469 10.214844 C 26.730469 10.261719 26.746094 10.492188 26.609375 10.527344 C 26.445312 10.578125 26.261719 10.5625 26.117188 10.65625 C 25.882812 10.847656 25.765625 11.132812 25.621094 11.394531 C 25.109375 12.359375 24.597656 13.324219 24.089844 14.285156 C 23.957031 14.53125 23.835938 14.785156 23.648438 14.992188 C 23.523438 15.0625 23.367188 15.058594 23.230469 15.03125 C 23.113281 15 22.96875 14.960938 22.921875 14.832031 C 22.808594 14.558594 22.675781 14.300781 22.546875 14.035156 C 22.101562 13.121094 21.65625 12.203125 21.207031 11.289062 C 21.09375 11.109375 21.003906 10.890625 20.804688 10.785156 C 20.699219 10.726562 20.574219 10.726562 20.464844 10.675781 C 20.386719 10.644531 20.394531 10.542969 20.417969 10.480469 C 20.460938 10.367188 20.574219 10.308594 20.675781 10.261719 C 20.933594 10.164062 21.210938 10.132812 21.480469 10.113281 Z M 21.480469 10.113281 "/>
<path style=" stroke:none;fill-rule:nonzero;fill:rgb(14.117647%,57.254902%,23.921569%);fill-opacity:1;" d="M 5.453125 4.601562 C 5.671875 4.597656 5.894531 4.703125 6.011719 4.894531 C 6.222656 5.183594 6.269531 5.5625 6.179688 5.902344 C 6.101562 6.253906 5.886719 6.550781 5.777344 6.890625 C 5.757812 6.957031 5.75 7.027344 5.746094 7.097656 C 5.957031 7.019531 6.121094 6.851562 6.257812 6.679688 C 6.410156 6.476562 6.472656 6.222656 6.492188 5.972656 C 6.574219 6.003906 6.65625 6.050781 6.6875 6.136719 C 6.761719 6.324219 6.792969 6.535156 6.726562 6.730469 C 6.640625 7 6.441406 7.214844 6.246094 7.414062 C 6.074219 7.582031 5.898438 7.746094 5.757812 7.945312 C 5.761719 8.070312 5.761719 8.199219 5.765625 8.324219 C 6.050781 8.210938 6.265625 7.976562 6.410156 7.710938 C 6.488281 7.535156 6.554688 7.355469 6.660156 7.195312 C 6.832031 7.394531 6.859375 7.695312 6.761719 7.933594 C 6.699219 8.117188 6.554688 8.257812 6.414062 8.382812 C 6.226562 8.535156 6.070312 8.714844 5.90625 8.890625 C 5.839844 8.960938 5.78125 9.039062 5.746094 9.132812 C 5.738281 9.285156 5.742188 9.433594 5.738281 9.585938 C 5.910156 9.464844 6.082031 9.332031 6.1875 9.144531 C 6.308594 8.953125 6.390625 8.730469 6.402344 8.5 C 6.585938 8.570312 6.667969 8.765625 6.6875 8.949219 C 6.722656 9.160156 6.636719 9.375 6.496094 9.53125 C 6.300781 9.746094 6.117188 9.972656 5.910156 10.175781 C 5.84375 10.25 5.765625 10.324219 5.738281 10.425781 C 5.714844 10.492188 5.726562 10.566406 5.734375 10.636719 C 5.902344 10.484375 6.070312 10.335938 6.25 10.195312 C 6.398438 10.078125 6.539062 9.945312 6.636719 9.78125 C 6.691406 9.683594 6.722656 9.578125 6.777344 9.480469 C 6.785156 9.484375 6.800781 9.484375 6.804688 9.488281 C 6.914062 9.660156 6.933594 9.875 6.894531 10.074219 C 6.867188 10.253906 6.742188 10.402344 6.605469 10.519531 C 6.394531 10.675781 6.140625 10.777344 5.964844 10.976562 C 5.871094 11.085938 5.789062 11.207031 5.738281 11.339844 C 5.667969 11.539062 5.707031 11.769531 5.8125 11.949219 C 5.851562 11.835938 5.90625 11.726562 5.988281 11.640625 C 6.152344 11.464844 6.296875 11.273438 6.480469 11.117188 C 6.671875 10.949219 6.816406 10.730469 6.898438 10.488281 C 7.042969 10.71875 7.085938 11.019531 6.984375 11.273438 C 6.902344 11.523438 6.679688 11.695312 6.457031 11.8125 C 6.265625 11.90625 6.097656 12.039062 5.964844 12.203125 C 5.960938 12.320312 6.023438 12.433594 6.097656 12.519531 C 6.332031 12.789062 6.640625 12.976562 6.953125 13.144531 C 7.421875 13.398438 7.972656 13.457031 8.5 13.429688 C 8.863281 13.417969 9.226562 13.429688 9.589844 13.453125 C 9.839844 13.476562 10.089844 13.449219 10.339844 13.4375 C 10.640625 13.417969 10.945312 13.425781 11.246094 13.433594 C 11.613281 13.449219 11.984375 13.40625 12.335938 13.289062 C 12.628906 13.179688 12.90625 13.023438 13.160156 12.835938 C 13.300781 12.75 13.417969 12.628906 13.527344 12.507812 C 13.597656 12.421875 13.65625 12.316406 13.648438 12.203125 C 13.519531 12.039062 13.351562 11.90625 13.160156 11.8125 C 12.953125 11.703125 12.746094 11.550781 12.652344 11.328125 C 12.527344 11.058594 12.566406 10.734375 12.71875 10.484375 C 12.796875 10.726562 12.941406 10.949219 13.132812 11.117188 C 13.320312 11.277344 13.472656 11.472656 13.636719 11.652344 C 13.714844 11.738281 13.765625 11.839844 13.804688 11.949219 C 13.917969 11.753906 13.953125 11.507812 13.859375 11.296875 C 13.761719 11.078125 13.597656 10.878906 13.386719 10.757812 C 13.222656 10.644531 13.035156 10.566406 12.902344 10.414062 C 12.65625 10.167969 12.640625 9.746094 12.824219 9.460938 C 12.863281 9.53125 12.894531 9.601562 12.925781 9.671875 C 13.007812 9.867188 13.160156 10.023438 13.320312 10.15625 C 13.515625 10.308594 13.699219 10.472656 13.882812 10.636719 C 13.890625 10.570312 13.898438 10.507812 13.882812 10.441406 C 13.859375 10.328125 13.765625 10.246094 13.691406 10.164062 C 13.488281 9.964844 13.3125 9.742188 13.121094 9.53125 C 12.972656 9.367188 12.886719 9.140625 12.929688 8.917969 C 12.953125 8.746094 13.039062 8.566406 13.214844 8.503906 C 13.222656 8.730469 13.308594 8.953125 13.429688 9.144531 C 13.535156 9.332031 13.707031 9.464844 13.878906 9.585938 C 13.875 9.433594 13.878906 9.28125 13.867188 9.132812 C 13.796875 8.945312 13.632812 8.816406 13.503906 8.667969 C 13.316406 8.453125 13.0625 8.304688 12.910156 8.058594 C 12.753906 7.796875 12.75 7.429688 12.957031 7.195312 C 13.0625 7.355469 13.128906 7.535156 13.207031 7.710938 C 13.351562 7.972656 13.566406 8.210938 13.851562 8.324219 C 13.847656 8.199219 13.863281 8.070312 13.851562 7.945312 C 13.601562 7.570312 13.195312 7.324219 12.976562 6.925781 C 12.824219 6.679688 12.8125 6.363281 12.945312 6.109375 C 12.980469 6.039062 13.054688 6.003906 13.125 5.972656 C 13.136719 6.152344 13.175781 6.332031 13.25 6.496094 C 13.328125 6.664062 13.453125 6.800781 13.585938 6.925781 C 13.667969 7.003906 13.769531 7.054688 13.871094 7.097656 C 13.859375 6.828125 13.707031 6.59375 13.605469 6.351562 C 13.457031 6.058594 13.355469 5.726562 13.40625 5.398438 C 13.425781 5.191406 13.523438 5 13.648438 4.835938 C 13.769531 4.679688 13.96875 4.601562 14.164062 4.601562 C 14.136719 4.769531 14.085938 4.933594 14.074219 5.105469 C 14.0625 5.28125 14.027344 5.460938 14.070312 5.632812 C 14.09375 5.78125 14.167969 5.917969 14.1875 6.066406 C 14.226562 6.3125 14.199219 6.570312 14.136719 6.8125 C 14.121094 6.878906 14.121094 6.945312 14.125 7.011719 C 14.339844 6.855469 14.535156 6.632812 14.585938 6.363281 C 14.625 6.207031 14.621094 6.046875 14.648438 5.894531 C 14.839844 5.96875 14.957031 6.15625 14.980469 6.355469 C 15.027344 6.589844 14.953125 6.839844 14.792969 7.019531 C 14.558594 7.289062 14.296875 7.535156 14.128906 7.855469 C 14.121094 7.960938 14.125 8.066406 14.125 8.171875 C 14.503906 8 14.730469 7.601562 14.761719 7.199219 C 14.910156 7.25 15.039062 7.371094 15.0625 7.53125 C 15.09375 7.765625 14.992188 7.992188 14.84375 8.171875 C 14.648438 8.445312 14.359375 8.625 14.144531 8.878906 C 14.140625 9.089844 14.132812 9.300781 14.132812 9.511719 C 14.347656 9.375 14.53125 9.171875 14.613281 8.925781 C 14.664062 8.773438 14.691406 8.613281 14.714844 8.457031 C 14.871094 8.511719 14.9375 8.683594 14.976562 8.828125 C 15.042969 9.058594 15.03125 9.335938 14.859375 9.519531 C 14.628906 9.765625 14.371094 9.992188 14.164062 10.265625 C 14.144531 10.359375 14.15625 10.457031 14.148438 10.550781 C 14.425781 10.371094 14.738281 10.199219 14.886719 9.886719 C 14.941406 9.75 14.984375 9.601562 15.070312 9.476562 C 15.164062 9.59375 15.21875 9.734375 15.242188 9.878906 C 15.273438 10.101562 15.164062 10.339844 14.972656 10.460938 C 14.757812 10.625 14.523438 10.765625 14.316406 10.941406 C 14.230469 11.007812 14.15625 11.105469 14.15625 11.214844 C 14.148438 11.347656 14.140625 11.480469 14.136719 11.613281 C 14.371094 11.476562 14.597656 11.316406 14.804688 11.140625 C 14.929688 11.039062 15.011719 10.894531 15.058594 10.742188 C 15.195312 10.910156 15.25 11.144531 15.171875 11.347656 C 15.113281 11.515625 14.996094 11.652344 14.867188 11.769531 C 14.710938 11.90625 14.511719 11.980469 14.316406 12.046875 C 14.195312 12.085938 14.074219 12.148438 14 12.253906 C 13.78125 12.613281 13.492188 12.929688 13.144531 13.167969 C 12.820312 13.378906 12.464844 13.554688 12.082031 13.636719 C 11.824219 13.695312 11.5625 13.691406 11.300781 13.707031 C 11.03125 13.722656 10.761719 13.714844 10.492188 13.6875 C 10.675781 13.851562 10.890625 13.972656 11.074219 14.136719 C 11.179688 14.222656 11.296875 14.328125 11.3125 14.476562 C 11.324219 14.640625 11.21875 14.839844 11.035156 14.851562 C 10.917969 14.875 10.808594 14.800781 10.75 14.703125 C 10.550781 14.375 10.300781 14.054688 9.960938 13.863281 C 9.859375 13.792969 9.71875 13.808594 9.621094 13.878906 C 9.296875 14.078125 9.058594 14.386719 8.863281 14.703125 C 8.804688 14.800781 8.695312 14.875 8.578125 14.851562 C 8.398438 14.839844 8.292969 14.640625 8.304688 14.476562 C 8.3125 14.382812 8.363281 14.304688 8.425781 14.238281 C 8.636719 14.027344 8.898438 13.878906 9.125 13.6875 C 8.746094 13.730469 8.367188 13.714844 7.988281 13.691406 C 7.535156 13.679688 7.09375 13.53125 6.703125 13.308594 C 6.300781 13.097656 5.96875 12.769531 5.710938 12.402344 C 5.65625 12.324219 5.617188 12.234375 5.539062 12.171875 C 5.40625 12.054688 5.21875 12.03125 5.0625 11.957031 C 4.773438 11.839844 4.519531 11.605469 4.429688 11.296875 C 4.371094 11.105469 4.433594 10.894531 4.558594 10.742188 C 4.601562 10.894531 4.683594 11.039062 4.808594 11.140625 C 5.019531 11.316406 5.242188 11.476562 5.480469 11.609375 C 5.472656 11.480469 5.464844 11.347656 5.460938 11.21875 C 5.460938 11.105469 5.386719 11.011719 5.304688 10.945312 C 5.09375 10.769531 4.859375 10.625 4.640625 10.457031 C 4.445312 10.335938 4.335938 10.085938 4.378906 9.859375 C 4.402344 9.722656 4.457031 9.589844 4.542969 9.476562 C 4.628906 9.601562 4.671875 9.75 4.730469 9.886719 C 4.878906 10.199219 5.191406 10.375 5.46875 10.550781 C 5.460938 10.457031 5.472656 10.359375 5.449219 10.265625 C 5.246094 9.992188 4.988281 9.765625 4.753906 9.515625 C 4.585938 9.335938 4.574219 9.058594 4.640625 8.832031 C 4.679688 8.683594 4.746094 8.511719 4.902344 8.457031 C 4.925781 8.621094 4.949219 8.789062 5.007812 8.945312 C 5.09375 9.183594 5.273438 9.375 5.480469 9.511719 C 5.484375 9.300781 5.472656 9.089844 5.472656 8.878906 C 5.277344 8.644531 5.015625 8.480469 4.824219 8.238281 C 4.738281 8.125 4.644531 8.015625 4.597656 7.878906 C 4.550781 7.742188 4.523438 7.589844 4.574219 7.453125 C 4.625 7.328125 4.734375 7.242188 4.851562 7.199219 C 4.878906 7.453125 4.96875 7.707031 5.136719 7.90625 C 5.230469 8.019531 5.359375 8.101562 5.492188 8.171875 C 5.488281 8.066406 5.496094 7.957031 5.484375 7.851562 C 5.3125 7.515625 5.023438 7.265625 4.789062 6.976562 C 4.640625 6.796875 4.589844 6.554688 4.640625 6.328125 C 4.664062 6.140625 4.785156 5.964844 4.964844 5.894531 C 5.007812 6.121094 4.992188 6.367188 5.101562 6.582031 C 5.195312 6.75 5.332031 6.898438 5.492188 7.011719 C 5.492188 6.945312 5.496094 6.875 5.476562 6.808594 C 5.402344 6.511719 5.371094 6.1875 5.472656 5.886719 C 5.519531 5.753906 5.558594 5.617188 5.566406 5.476562 C 5.566406 5.179688 5.511719 4.890625 5.453125 4.601562 Z M 5.453125 4.601562 "/>
<path style=" stroke:none;fill-rule:nonzero;fill:rgb(0%,0%,0%);fill-opacity:1;" d="M 24.382812 4.648438 C 24.824219 4.613281 25.28125 4.570312 25.714844 4.703125 C 25.933594 4.773438 26.144531 4.882812 26.320312 5.03125 C 26.609375 5.289062 26.742188 5.683594 26.738281 6.0625 C 26.746094 6.460938 26.601562 6.867188 26.308594 7.140625 C 26.222656 7.226562 26.089844 7.253906 26.027344 7.359375 C 25.945312 7.472656 25.980469 7.636719 26.074219 7.730469 C 26.1875 7.847656 26.363281 7.863281 26.492188 7.957031 C 26.703125 8.085938 26.820312 8.316406 26.898438 8.542969 C 26.988281 8.820312 27.023438 9.113281 27.066406 9.40625 C 27.085938 9.519531 27.097656 9.644531 27.160156 9.746094 C 27.269531 9.871094 27.425781 9.933594 27.574219 9.992188 C 27.640625 10.066406 27.609375 10.183594 27.59375 10.269531 C 27.515625 10.515625 27.242188 10.605469 27.015625 10.652344 C 27.027344 10.492188 27.035156 10.320312 26.96875 10.171875 C 26.878906 9.988281 26.671875 9.925781 26.488281 9.882812 C 26.128906 9.8125 25.761719 9.824219 25.398438 9.832031 C 25.3125 9.632812 25.257812 9.421875 25.210938 9.210938 C 25.125 8.835938 25.089844 8.421875 24.828125 8.121094 C 24.710938 8.003906 24.539062 7.953125 24.378906 7.933594 C 24.246094 7.925781 24.109375 7.988281 24.035156 8.097656 C 23.988281 8.175781 23.992188 8.269531 23.984375 8.359375 C 23.976562 8.730469 23.984375 9.097656 24.027344 9.464844 C 24.035156 9.570312 24.070312 9.675781 24.117188 9.769531 C 24.179688 9.835938 24.25 9.890625 24.320312 9.949219 C 24.316406 10.042969 24.324219 10.140625 24.316406 10.238281 C 24.296875 10.316406 24.277344 10.398438 24.285156 10.480469 C 24.085938 10.539062 23.878906 10.570312 23.675781 10.59375 C 23.660156 10.457031 23.613281 10.328125 23.542969 10.214844 C 23.46875 10.109375 23.355469 10.042969 23.246094 9.980469 C 22.9375 9.820312 22.589844 9.78125 22.25 9.765625 C 22.398438 9.609375 22.433594 9.394531 22.457031 9.1875 C 22.472656 9.046875 22.496094 8.902344 22.492188 8.761719 C 22.492188 7.890625 22.496094 7.015625 22.492188 6.144531 C 22.488281 5.921875 22.5 5.679688 22.367188 5.480469 C 22.285156 5.3125 22.085938 5.273438 21.964844 5.140625 C 21.914062 5.054688 21.921875 4.9375 21.96875 4.851562 C 22.042969 4.769531 22.132812 4.695312 22.242188 4.679688 C 22.578125 4.605469 22.921875 4.640625 23.257812 4.683594 C 23.632812 4.699219 24.007812 4.671875 24.382812 4.648438 M 24.257812 5.304688 C 24.082031 5.355469 23.996094 5.546875 23.984375 5.714844 C 23.96875 6.089844 23.945312 6.464844 23.925781 6.839844 C 23.921875 6.957031 23.941406 7.082031 24.011719 7.179688 C 24.097656 7.269531 24.234375 7.289062 24.355469 7.285156 C 24.570312 7.277344 24.800781 7.195312 24.925781 7.011719 C 25.097656 6.769531 25.121094 6.460938 25.109375 6.171875 C 25.097656 5.933594 25.058594 5.679688 24.902344 5.492188 C 24.75 5.308594 24.480469 5.242188 24.257812 5.304688 Z M 24.257812 5.304688 "/>
<path style=" stroke:none;fill-rule:nonzero;fill:rgb(0%,0%,0%);fill-opacity:1;" d="M 18.480469 13.855469 C 18.789062 13.746094 19.121094 13.714844 19.445312 13.757812 C 19.519531 13.769531 19.597656 13.78125 19.660156 13.820312 C 19.726562 13.894531 19.769531 13.988281 19.8125 14.074219 C 20.019531 14.539062 20.234375 15.003906 20.441406 15.46875 C 20.488281 15.558594 20.542969 15.648438 20.628906 15.707031 C 20.746094 15.761719 20.910156 15.757812 20.992188 15.644531 C 21.046875 15.574219 21.089844 15.496094 21.132812 15.417969 C 21.308594 15.023438 21.453125 14.617188 21.648438 14.230469 C 21.71875 14.035156 21.824219 13.8125 22.050781 13.777344 C 22.144531 13.867188 22.179688 13.992188 22.238281 14.105469 C 22.324219 14.28125 22.417969 14.453125 22.492188 14.632812 C 22.542969 14.828125 22.59375 15.023438 22.6875 15.199219 C 22.695312 15.757812 22.675781 16.316406 22.703125 16.875 C 22.71875 17.113281 22.726562 17.355469 22.792969 17.585938 C 22.832031 17.703125 22.960938 17.75 23.042969 17.832031 C 23.109375 17.914062 23.085938 18.050781 23.007812 18.117188 C 22.921875 18.195312 22.800781 18.195312 22.695312 18.210938 C 22.429688 18.25 22.160156 18.238281 21.894531 18.226562 C 21.746094 18.210938 21.582031 18.207031 21.453125 18.121094 C 21.398438 18.089844 21.359375 18.03125 21.371094 17.96875 C 21.425781 17.878906 21.503906 17.800781 21.574219 17.722656 C 21.65625 17.628906 21.6875 17.503906 21.703125 17.386719 C 21.722656 17.046875 21.757812 16.707031 21.710938 16.367188 C 21.71875 16.199219 21.523438 16.054688 21.367188 16.128906 C 21.171875 16.207031 21.101562 16.417969 21.035156 16.59375 C 20.886719 16.933594 20.765625 17.285156 20.632812 17.632812 C 20.578125 17.769531 20.542969 17.917969 20.449219 18.035156 C 20.175781 17.46875 19.992188 16.867188 19.765625 16.285156 C 19.71875 16.160156 19.613281 16.03125 19.46875 16.039062 C 19.316406 16.03125 19.199219 16.171875 19.199219 16.3125 C 19.195312 16.5625 19.199219 16.8125 19.199219 17.0625 C 19.199219 17.289062 19.1875 17.523438 19.265625 17.742188 C 19.339844 17.820312 19.441406 17.855469 19.523438 17.921875 C 19.542969 17.980469 19.542969 18.058594 19.492188 18.105469 C 19.417969 18.171875 19.3125 18.195312 19.214844 18.210938 C 19.011719 18.242188 18.804688 18.246094 18.601562 18.214844 C 18.515625 18.199219 18.421875 18.179688 18.363281 18.113281 C 18.324219 18.066406 18.332031 18.007812 18.328125 17.953125 C 18.4375 17.890625 18.5625 17.832031 18.632812 17.714844 C 18.707031 17.570312 18.71875 17.40625 18.726562 17.246094 C 18.765625 16.953125 18.777344 16.660156 18.78125 16.367188 C 18.800781 16.011719 18.808594 15.65625 18.808594 15.300781 C 18.804688 15.074219 18.804688 14.847656 18.753906 14.628906 C 18.730469 14.542969 18.714844 14.449219 18.65625 14.382812 C 18.585938 14.289062 18.472656 14.242188 18.390625 14.164062 C 18.316406 14.0625 18.355469 13.898438 18.480469 13.855469 Z M 18.480469 13.855469 "/>
<path style=" stroke:none;fill-rule:nonzero;fill:rgb(13.72549%,12.156863%,12.54902%);fill-opacity:1;" d="M 9.058594 5.671875 C 9.648438 5.605469 10.246094 5.617188 10.832031 5.710938 C 11.144531 5.761719 11.457031 5.835938 11.742188 5.972656 C 11.859375 6.03125 11.980469 6.097656 12.0625 6.199219 C 11 6.207031 9.9375 6.199219 8.871094 6.203125 C 8.433594 6.199219 7.992188 6.207031 7.550781 6.199219 C 7.652344 6.074219 7.800781 6.003906 7.945312 5.9375 C 8.296875 5.789062 8.679688 5.714844 9.058594 5.671875 Z M 9.058594 5.671875 "/>
<path style=" stroke:none;fill-rule:nonzero;fill:rgb(13.72549%,12.156863%,12.54902%);fill-opacity:1;" d="M 9.003906 6.988281 C 9.238281 7.027344 9.441406 7.179688 9.570312 7.375 C 9.449219 7.492188 9.359375 7.640625 9.222656 7.746094 C 9.109375 7.847656 8.996094 7.945312 8.867188 8.027344 C 9.199219 8.511719 9.53125 8.996094 9.863281 9.476562 C 10.144531 9.078125 10.4375 8.679688 10.710938 8.277344 C 10.691406 8.152344 10.648438 8.027344 10.617188 7.902344 C 10.585938 7.699219 10.640625 7.480469 10.765625 7.320312 C 10.871094 7.183594 11.035156 7.09375 11.203125 7.066406 C 11.152344 7.179688 11.074219 7.28125 11.042969 7.402344 C 11.011719 7.507812 11.03125 7.625 11.035156 7.734375 C 11.128906 7.746094 11.199219 7.660156 11.265625 7.605469 C 11.367188 7.496094 11.480469 7.402344 11.59375 7.3125 C 11.5 7.492188 11.453125 7.695312 11.371094 7.882812 C 11.371094 7.898438 11.367188 7.925781 11.367188 7.941406 C 11.609375 7.953125 11.839844 7.78125 11.921875 7.558594 C 11.988281 7.753906 11.9375 7.984375 11.804688 8.144531 C 11.695312 8.277344 11.539062 8.359375 11.375 8.40625 C 11.203125 8.433594 11.027344 8.398438 10.855469 8.386719 C 10.570312 8.800781 10.28125 9.210938 9.992188 9.625 C 10.609375 10.449219 11.230469 11.273438 11.847656 12.101562 C 11.816406 12.148438 11.785156 12.195312 11.753906 12.242188 C 11.539062 11.988281 11.34375 11.71875 11.136719 11.460938 C 10.710938 10.914062 10.289062 10.367188 9.863281 9.824219 C 9.292969 10.644531 8.722656 11.46875 8.152344 12.289062 C 8.097656 12.253906 8.042969 12.214844 7.988281 12.175781 C 8.570312 11.339844 9.152344 10.511719 9.734375 9.675781 C 9.382812 9.164062 9.03125 8.652344 8.679688 8.144531 C 8.417969 8.300781 8.183594 8.5 7.886719 8.589844 C 7.679688 8.425781 7.625 8.136719 7.660156 7.886719 C 7.753906 7.933594 7.847656 8.035156 7.960938 8.003906 C 8.019531 7.890625 7.976562 7.757812 7.996094 7.632812 C 8.089844 7.671875 8.167969 7.730469 8.25 7.785156 C 8.28125 7.816406 8.332031 7.789062 8.34375 7.75 C 8.382812 7.644531 8.347656 7.53125 8.308594 7.433594 C 8.410156 7.488281 8.507812 7.59375 8.632812 7.570312 C 8.679688 7.453125 8.671875 7.332031 8.644531 7.210938 C 8.734375 7.277344 8.84375 7.304688 8.953125 7.304688 C 9.019531 7.308594 9.066406 7.25 9.066406 7.1875 C 9.078125 7.113281 9.039062 7.050781 9.003906 6.988281 Z M 9.003906 6.988281 "/>
<use xlink:href="#surface6" mask="url(#mask0)"/>
</g>
</svg>
