<?xml version="1.0" encoding="UTF-8"?>
<svg xmlns="http://www.w3.org/2000/svg" xmlns:xlink="http://www.w3.org/1999/xlink" width="35pt" height="25pt" viewBox="0 0 35 25" version="1.1">
<g id="surface1">
<path style=" stroke:none;fill-rule:nonzero;fill:rgb(96.078431%,75.294118%,24.313725%);fill-opacity:1;" d="M 13.066406 3.988281 C 13.207031 3.234375 13.730469 2.675781 14.40625 2.515625 C 14.441406 2.507812 14.472656 2.503906 14.515625 2.496094 C 14.605469 2.480469 14.722656 2.457031 14.832031 2.472656 C 14.835938 2.472656 14.839844 2.472656 14.839844 2.472656 C 14.929688 2.484375 15.015625 2.484375 15.109375 2.503906 C 15.199219 2.519531 15.289062 2.550781 15.371094 2.582031 C 15.394531 2.589844 15.4375 2.621094 15.460938 2.617188 L 15.464844 2.605469 C 15.570312 2.5 15.660156 2.371094 15.773438 2.269531 C 16.03125 2.039062 16.417969 1.871094 16.875 1.871094 C 17.0625 1.871094 17.21875 1.914062 17.382812 1.941406 C 17.296875 1.574219 17.503906 1.242188 17.691406 1.113281 C 17.765625 1.0625 17.851562 1.035156 17.9375 0.996094 L 17.9375 0.675781 L 17.621094 0.675781 L 17.621094 0.335938 L 17.9375 0.335938 C 17.9375 0.226562 17.9375 0.101562 17.941406 0 L 18.269531 0 C 18.273438 0.101562 18.273438 0.226562 18.273438 0.335938 L 18.585938 0.335938 L 18.585938 0.675781 L 18.273438 0.675781 L 18.273438 0.996094 C 18.359375 1.035156 18.441406 1.0625 18.515625 1.113281 C 18.707031 1.242188 18.914062 1.574219 18.824219 1.941406 C 18.988281 1.914062 19.148438 1.871094 19.335938 1.871094 C 19.792969 1.871094 20.175781 2.039062 20.4375 2.269531 C 20.550781 2.371094 20.636719 2.5 20.746094 2.605469 L 20.75 2.617188 C 20.773438 2.621094 20.816406 2.589844 20.835938 2.582031 C 20.917969 2.550781 21.007812 2.519531 21.097656 2.503906 C 21.191406 2.484375 21.28125 2.484375 21.367188 2.472656 C 21.367188 2.472656 21.375 2.472656 21.375 2.472656 C 21.488281 2.457031 21.601562 2.480469 21.695312 2.496094 C 21.734375 2.503906 21.765625 2.507812 21.804688 2.515625 C 22.476562 2.675781 23.003906 3.234375 23.144531 3.988281 C 23.171875 4.132812 23.183594 4.3125 23.171875 4.488281 C 23.121094 5.273438 22.875 5.800781 22.597656 6.332031 C 22.476562 6.566406 22.335938 6.859375 22.128906 6.992188 C 22.160156 7.042969 22.199219 7.089844 22.222656 7.148438 C 22.277344 7.277344 22.273438 7.457031 22.230469 7.59375 C 22.070312 8.097656 21.316406 8.222656 20.859375 7.941406 C 20.65625 7.816406 20.546875 7.667969 20.515625 7.359375 C 20.136719 7.761719 19.308594 7.746094 19.007812 7.269531 C 18.96875 7.210938 18.945312 7.140625 18.917969 7.0625 C 18.867188 7.144531 18.816406 7.226562 18.746094 7.289062 C 18.582031 7.429688 18.34375 7.5 18.105469 7.5 C 17.863281 7.5 17.625 7.429688 17.460938 7.289062 C 17.390625 7.226562 17.34375 7.144531 17.289062 7.0625 C 17.265625 7.140625 17.242188 7.210938 17.203125 7.269531 C 16.898438 7.746094 16.074219 7.761719 15.695312 7.359375 C 15.664062 7.667969 15.554688 7.816406 15.347656 7.941406 C 14.890625 8.222656 14.140625 8.097656 13.976562 7.59375 C 13.933594 7.457031 13.929688 7.277344 13.984375 7.148438 C 14.007812 7.089844 14.046875 7.042969 14.078125 6.992188 C 13.871094 6.859375 13.730469 6.566406 13.609375 6.332031 C 13.332031 5.800781 13.089844 5.273438 13.039062 4.488281 C 13.027344 4.3125 13.039062 4.132812 13.066406 3.988281 Z M 13.066406 3.988281 "/>
<path style=" stroke:none;fill-rule:nonzero;fill:rgb(100%,6.666667%,9.803922%);fill-opacity:1;" d="M 14.769531 3.5625 C 14.488281 3.585938 14.300781 3.71875 14.179688 3.921875 C 13.96875 4.28125 14.121094 4.945312 14.242188 5.292969 C 14.304688 5.480469 14.398438 5.652344 14.488281 5.820312 C 14.546875 5.929688 14.621094 6.03125 14.6875 6.136719 C 14.78125 6.277344 14.898438 6.410156 14.871094 6.667969 C 14.984375 6.6875 15.070312 6.699219 15.15625 6.726562 C 15.3125 6.773438 15.417969 6.878906 15.535156 6.96875 C 15.535156 6.78125 15.59375 6.667969 15.671875 6.570312 C 15.710938 6.515625 15.753906 6.46875 15.808594 6.429688 C 15.832031 6.410156 15.851562 6.394531 15.878906 6.378906 C 15.851562 6.355469 15.820312 6.320312 15.796875 6.292969 C 15.691406 6.171875 15.632812 5.980469 15.566406 5.820312 C 15.363281 5.339844 15.183594 4.84375 15.109375 4.214844 C 15.085938 4.023438 15.074219 3.804688 15.101562 3.605469 C 15.007812 3.578125 14.867188 3.554688 14.769531 3.5625 "/>
<path style=" stroke:none;fill-rule:nonzero;fill:rgb(100%,6.666667%,9.803922%);fill-opacity:1;" d="M 17.050781 2.945312 C 17.261719 2.960938 17.441406 3.03125 17.597656 3.113281 L 17.597656 5.617188 C 17.597656 5.714844 17.59375 5.816406 17.605469 5.902344 C 17.621094 6.003906 17.660156 6.089844 17.703125 6.160156 C 17.457031 6.292969 17.359375 6.378906 17.242188 6.65625 C 17.140625 6.4375 16.9375 6.3125 16.703125 6.246094 C 16.714844 6.171875 16.738281 6.105469 16.734375 6.011719 C 16.722656 5.832031 16.640625 5.714844 16.585938 5.585938 C 16.535156 5.460938 16.480469 5.332031 16.425781 5.203125 C 16.273438 4.820312 15.996094 3.945312 16.1875 3.429688 C 16.234375 3.308594 16.308594 3.222656 16.394531 3.148438 C 16.546875 3.011719 16.761719 2.921875 17.050781 2.945312 "/>
<path style=" stroke:none;fill-rule:nonzero;fill:rgb(100%,6.666667%,9.803922%);fill-opacity:1;" d="M 21.4375 3.5625 C 21.71875 3.585938 21.910156 3.71875 22.027344 3.921875 C 22.238281 4.28125 22.085938 4.945312 21.96875 5.292969 C 21.90625 5.480469 21.808594 5.652344 21.722656 5.820312 C 21.664062 5.929688 21.589844 6.03125 21.523438 6.136719 C 21.429688 6.277344 21.3125 6.410156 21.335938 6.667969 C 21.222656 6.6875 21.140625 6.699219 21.050781 6.726562 C 20.894531 6.773438 20.789062 6.878906 20.675781 6.96875 C 20.675781 6.78125 20.613281 6.667969 20.539062 6.570312 C 20.496094 6.515625 20.453125 6.46875 20.402344 6.429688 C 20.378906 6.410156 20.355469 6.394531 20.332031 6.378906 C 20.359375 6.355469 20.386719 6.320312 20.414062 6.292969 C 20.515625 6.171875 20.578125 5.980469 20.644531 5.820312 C 20.847656 5.339844 21.023438 4.84375 21.097656 4.214844 C 21.121094 4.023438 21.132812 3.804688 21.105469 3.605469 C 21.199219 3.578125 21.339844 3.554688 21.4375 3.5625 "/>
<path style=" stroke:none;fill-rule:nonzero;fill:rgb(100%,6.666667%,9.803922%);fill-opacity:1;" d="M 19.160156 2.945312 C 18.945312 2.960938 18.765625 3.03125 18.609375 3.113281 L 18.609375 5.617188 C 18.609375 5.714844 18.613281 5.816406 18.601562 5.902344 C 18.585938 6.003906 18.546875 6.089844 18.503906 6.160156 C 18.75 6.292969 18.847656 6.378906 18.964844 6.65625 C 19.066406 6.4375 19.269531 6.3125 19.507812 6.246094 C 19.492188 6.171875 19.46875 6.105469 19.476562 6.011719 C 19.488281 5.832031 19.566406 5.714844 19.621094 5.585938 C 19.675781 5.460938 19.730469 5.332031 19.78125 5.203125 C 19.933594 4.820312 20.214844 3.945312 20.019531 3.429688 C 19.976562 3.308594 19.898438 3.222656 19.8125 3.148438 C 19.664062 3.011719 19.445312 2.921875 19.160156 2.945312 "/>
<path style=" stroke:none;fill-rule:nonzero;fill:rgb(100%,6.666667%,9.803922%);fill-opacity:1;" d="M 9.53125 16.414062 C 9.53125 11.667969 13.371094 7.824219 18.105469 7.824219 C 22.839844 7.824219 26.675781 11.667969 26.675781 16.414062 C 26.675781 21.15625 22.839844 25 18.105469 25 C 13.371094 25 9.53125 21.15625 9.53125 16.414062 Z M 9.53125 16.414062 "/>
<path style=" stroke:none;fill-rule:nonzero;fill:rgb(0%,0%,0%);fill-opacity:1;" d="M 10.679688 16.335938 C 10.679688 16.5 10.839844 16.632812 11.035156 16.632812 C 11.230469 16.632812 11.390625 16.5 11.390625 16.335938 C 11.390625 16.171875 11.230469 16.035156 11.035156 16.035156 C 10.839844 16.035156 10.679688 16.171875 10.679688 16.335938 Z M 10.679688 16.335938 "/>
<path style=" stroke:none;fill-rule:nonzero;fill:rgb(0%,0%,0%);fill-opacity:1;" d="M 11.394531 19.027344 C 11.785156 18.914062 12.039062 18.503906 11.941406 18.09375 L 11.816406 17.566406 L 10.320312 17.957031 L 10.445312 18.484375 C 10.546875 18.910156 10.992188 19.148438 11.394531 19.027344 Z M 10.777344 18.398438 L 10.742188 18.246094 L 11.570312 18.03125 L 11.605469 18.179688 C 11.65625 18.390625 11.503906 18.585938 11.304688 18.648438 C 11.09375 18.710938 10.832031 18.621094 10.777344 18.398438 Z M 10.777344 18.398438 "/>
<path style=" stroke:none;fill-rule:nonzero;fill:rgb(0%,0%,0%);fill-opacity:1;" d="M 12.085938 19.871094 L 12.273438 19.761719 L 12.527344 20.242188 L 12.828125 20.070312 L 12.394531 19.246094 L 11.046875 20.03125 L 11.496094 20.875 L 11.796875 20.699219 L 11.527344 20.195312 L 11.785156 20.046875 L 12 20.457031 L 12.300781 20.28125 Z M 12.085938 19.871094 "/>
<path style=" stroke:none;fill-rule:nonzero;fill:rgb(0%,0%,0%);fill-opacity:1;" d="M 14.074219 21.316406 L 13.746094 21.046875 L 12.800781 22.320312 L 13.15625 22.613281 C 13.410156 22.820312 13.734375 22.875 13.914062 22.632812 C 14.027344 22.484375 14.011719 22.300781 13.914062 22.140625 C 14.0625 22.175781 14.203125 22.140625 14.296875 22.011719 C 14.460938 21.789062 14.308594 21.507812 14.074219 21.316406 Z M 13.644531 22.359375 C 13.578125 22.449219 13.472656 22.414062 13.347656 22.3125 L 13.300781 22.273438 L 13.484375 22.03125 L 13.53125 22.070312 C 13.660156 22.179688 13.710938 22.273438 13.644531 22.359375 Z M 13.953125 21.839844 C 13.90625 21.902344 13.835938 21.898438 13.722656 21.804688 L 13.679688 21.769531 L 13.828125 21.570312 L 13.871094 21.605469 C 13.984375 21.699219 14 21.773438 13.953125 21.839844 Z M 13.953125 21.839844 "/>
<path style=" stroke:none;fill-rule:nonzero;fill:rgb(0%,0%,0%);fill-opacity:1;" d="M 14.347656 23.328125 L 14.652344 23.566406 L 14.863281 23.308594 L 15.308594 23.515625 L 15.269531 23.855469 L 15.640625 23.933594 L 15.75 22.253906 L 15.464844 22.121094 Z M 15.351562 23.144531 L 15.101562 23.023438 L 15.414062 22.644531 Z M 15.351562 23.144531 "/>
<path style=" stroke:none;fill-rule:nonzero;fill:rgb(0%,0%,0%);fill-opacity:1;" d="M 21.042969 23.789062 L 20.941406 23.445312 L 20.414062 23.613281 L 20.328125 23.320312 L 20.757812 23.183594 L 20.660156 22.839844 L 20.230469 22.976562 L 20.164062 22.757812 L 20.667969 22.597656 L 20.570312 22.253906 L 19.710938 22.527344 L 20.164062 24.070312 Z M 21.042969 23.789062 "/>
<path style=" stroke:none;fill-rule:nonzero;fill:rgb(0%,0%,0%);fill-opacity:1;" d="M 22.675781 22.917969 L 22.507812 22.601562 L 22.035156 22.875 L 21.457031 21.777344 L 21.132812 21.96875 L 21.878906 23.378906 Z M 22.675781 22.917969 "/>
<path style=" stroke:none;fill-rule:nonzero;fill:rgb(0%,0%,0%);fill-opacity:1;" d="M 22.539062 20.898438 C 22.242188 21.199219 22.332031 21.703125 22.617188 22.015625 C 22.90625 22.328125 23.382812 22.4375 23.679688 22.136719 C 23.980469 21.835938 23.890625 21.332031 23.601562 21.019531 C 23.3125 20.710938 22.835938 20.597656 22.539062 20.898438 Z M 23.445312 21.882812 C 23.285156 22.042969 23.066406 21.9375 22.886719 21.742188 C 22.710938 21.546875 22.617188 21.316406 22.773438 21.15625 C 22.933594 20.992188 23.152344 21.101562 23.332031 21.292969 C 23.511719 21.488281 23.605469 21.722656 23.445312 21.882812 Z M 23.445312 21.882812 "/>
<path style=" stroke:none;fill-rule:nonzero;fill:rgb(0%,0%,0%);fill-opacity:1;" d="M 23.847656 19.179688 L 24.609375 19.621094 L 23.589844 19.664062 L 23.410156 20.003906 L 24.757812 20.785156 L 24.9375 20.445312 L 24.175781 20.003906 L 25.195312 19.960938 L 25.375 19.625 L 24.027344 18.839844 Z M 23.847656 19.179688 "/>
<path style=" stroke:none;fill-rule:nonzero;fill:rgb(0%,0%,0%);fill-opacity:1;" d="M 25.613281 17.808594 L 25.9375 17.78125 L 25.933594 17.382812 L 24.339844 17.621094 L 24.273438 17.941406 L 25.636719 18.835938 L 25.796875 18.476562 L 25.511719 18.308594 Z M 25.195312 18.128906 L 24.777344 17.886719 L 25.253906 17.84375 Z M 25.195312 18.128906 "/>
<path style=" stroke:none;fill-rule:nonzero;fill:rgb(0%,0%,0%);fill-opacity:1;" d="M 24.90625 16.507812 C 24.90625 16.671875 25.0625 16.804688 25.261719 16.804688 C 25.457031 16.804688 25.617188 16.671875 25.617188 16.507812 C 25.617188 16.34375 25.457031 16.210938 25.261719 16.210938 C 25.0625 16.210938 24.90625 16.34375 24.90625 16.507812 Z M 24.90625 16.507812 "/>
<path style=" stroke:none;fill-rule:nonzero;fill:rgb(0%,0%,0%);fill-opacity:1;" d="M 25.640625 14.222656 L 24.148438 14.613281 L 24.367188 15.539062 L 24.699219 15.449219 L 24.570312 14.902344 L 25.730469 14.597656 Z M 25.640625 14.222656 "/>
<path style=" stroke:none;fill-rule:nonzero;fill:rgb(0%,0%,0%);fill-opacity:1;" d="M 23.679688 13.554688 C 23.886719 13.929688 24.375 13.960938 24.730469 13.746094 C 25.089844 13.527344 25.308594 13.070312 25.101562 12.695312 C 24.894531 12.320312 24.40625 12.289062 24.050781 12.503906 C 23.691406 12.722656 23.472656 13.179688 23.679688 13.554688 Z M 24.238281 12.84375 C 24.460938 12.710938 24.699219 12.671875 24.808594 12.871094 C 24.917969 13.070312 24.765625 13.269531 24.542969 13.402344 C 24.324219 13.539062 24.082031 13.578125 23.972656 13.378906 C 23.863281 13.175781 24.015625 12.980469 24.238281 12.84375 Z M 24.238281 12.84375 "/>
<path style=" stroke:none;fill-rule:nonzero;fill:rgb(0%,0%,0%);fill-opacity:1;" d="M 23.414062 11.425781 L 23.453125 11.417969 L 23.652344 10.847656 L 23.613281 10.824219 L 23.289062 10.636719 L 22.984375 11.667969 L 22.558594 12.082031 L 22.816406 12.371094 L 23.242188 11.953125 L 24.242188 11.707031 L 24.082031 11.347656 L 23.367188 11.5625 Z M 23.414062 11.425781 "/>
<path style=" stroke:none;fill-rule:nonzero;fill:rgb(0%,0%,0%);fill-opacity:1;" d="M 21.679688 10.214844 L 21.667969 11.285156 L 21.980469 11.488281 L 22.796875 10.121094 L 22.484375 9.914062 L 22.019531 10.691406 L 22.023438 10.539062 L 22.050781 10.492188 L 22.058594 9.636719 L 22.035156 9.621094 L 21.722656 9.414062 L 20.90625 10.785156 L 21.21875 10.988281 Z M 21.679688 10.214844 "/>
<path style=" stroke:none;fill-rule:nonzero;fill:rgb(0%,0%,0%);fill-opacity:1;" d="M 20.21875 10.234375 L 20.234375 10.574219 L 20.613281 10.582031 L 20.441406 8.90625 L 20.140625 8.828125 L 19.238281 10.222656 L 19.578125 10.402344 L 19.746094 10.109375 Z M 20.175781 9.355469 L 20.199219 9.855469 L 19.929688 9.785156 Z M 20.175781 9.355469 "/>
<path style=" stroke:none;fill-rule:nonzero;fill:rgb(0%,0%,0%);fill-opacity:1;" d="M 18.304688 9.753906 L 18.363281 9.753906 C 18.691406 9.753906 19.007812 9.519531 19.007812 9.175781 C 19.007812 8.828125 18.691406 8.59375 18.363281 8.59375 L 17.933594 8.59375 L 17.933594 10.210938 L 18.304688 10.210938 Z M 18.304688 8.957031 L 18.363281 8.957031 C 18.496094 8.957031 18.632812 9.035156 18.632812 9.175781 C 18.632812 9.3125 18.496094 9.390625 18.363281 9.390625 L 18.304688 9.390625 Z M 18.304688 8.957031 "/>
<path style=" stroke:none;fill-rule:nonzero;fill:rgb(0%,0%,0%);fill-opacity:1;" d="M 16.800781 9.71875 C 16.878906 9.742188 16.949219 9.769531 16.964844 9.851562 C 16.976562 9.933594 16.929688 10.011719 16.855469 10.035156 C 16.75 10.070312 16.628906 10.046875 16.582031 9.945312 L 16.40625 10.261719 C 16.554688 10.40625 16.757812 10.425781 16.929688 10.390625 C 17.195312 10.328125 17.378906 10.054688 17.324219 9.773438 C 17.28125 9.535156 17.097656 9.425781 16.871094 9.363281 L 16.765625 9.332031 C 16.652344 9.296875 16.554688 9.28125 16.5625 9.183594 C 16.566406 9.125 16.601562 9.070312 16.65625 9.058594 C 16.742188 9.035156 16.832031 9.03125 16.886719 9.09375 L 17.054688 8.789062 C 16.910156 8.679688 16.765625 8.664062 16.585938 8.703125 C 16.363281 8.753906 16.152344 9.003906 16.199219 9.265625 C 16.246094 9.523438 16.46875 9.613281 16.710938 9.6875 Z M 16.800781 9.71875 "/>
<path style=" stroke:none;fill-rule:nonzero;fill:rgb(0%,0%,0%);fill-opacity:1;" d="M 15.976562 10.542969 L 15.835938 10.210938 L 15.332031 10.449219 L 15.214844 10.167969 L 15.625 9.976562 L 15.484375 9.648438 L 15.074219 9.839844 L 14.984375 9.632812 L 15.46875 9.40625 L 15.328125 9.078125 L 14.507812 9.460938 L 15.136719 10.933594 Z M 15.976562 10.542969 "/>
<path style=" stroke:none;fill-rule:nonzero;fill:rgb(0%,0%,0%);fill-opacity:1;" d="M 13.667969 11.996094 C 13.960938 11.679688 13.914062 11.160156 13.605469 10.863281 C 13.304688 10.582031 12.839844 10.570312 12.558594 10.875 L 12.199219 11.265625 L 13.308594 12.386719 Z M 12.808594 11.125 C 12.953125 10.96875 13.191406 11 13.34375 11.148438 C 13.507812 11.300781 13.574219 11.578125 13.421875 11.746094 L 13.316406 11.859375 L 12.703125 11.238281 Z M 12.808594 11.125 "/>
<path style=" stroke:none;fill-rule:nonzero;fill:rgb(0%,0%,0%);fill-opacity:1;" d="M 11.6875 13.4375 C 12.046875 13.644531 12.535156 13.613281 12.730469 13.242188 C 12.839844 13.035156 12.863281 12.851562 12.789062 12.628906 L 12.78125 12.601562 L 12.449219 12.683594 L 12.453125 12.703125 C 12.515625 12.824219 12.507812 12.949219 12.433594 13.070312 C 12.316406 13.261719 12.0625 13.207031 11.871094 13.09375 C 11.679688 12.984375 11.503906 12.789062 11.589844 12.578125 C 11.644531 12.453125 11.730469 12.378906 11.855469 12.355469 L 11.757812 12.03125 C 11.539062 12.082031 11.402344 12.199219 11.292969 12.40625 C 11.105469 12.761719 11.332031 13.230469 11.6875 13.4375 Z M 11.6875 13.4375 "/>
<path style=" stroke:none;fill-rule:nonzero;fill:rgb(0%,0%,0%);fill-opacity:1;" d="M 11.996094 14.847656 L 11.5 14.730469 L 11.511719 14.671875 L 12.15625 14.359375 L 12.074219 13.988281 L 12.070312 13.988281 L 12.058594 13.9375 L 11.484375 14.242188 C 11.421875 14.082031 11.296875 13.964844 11.148438 13.929688 C 10.847656 13.855469 10.578125 14.113281 10.507812 14.425781 L 10.410156 14.863281 L 11.914062 15.226562 Z M 11.179688 14.589844 L 11.164062 14.648438 L 10.832031 14.566406 L 10.84375 14.507812 C 10.882812 14.332031 10.957031 14.285156 11.0625 14.3125 C 11.171875 14.335938 11.203125 14.476562 11.179688 14.589844 Z M 11.179688 14.589844 "/>
<path style=" stroke:none;fill-rule:nonzero;fill:rgb(0%,0%,0%);fill-opacity:1;" d="M 17.265625 23.628906 C 17.417969 23.554688 17.519531 23.414062 17.542969 23.253906 C 17.59375 22.933594 17.332031 22.671875 17.027344 22.621094 L 16.601562 22.550781 L 16.363281 24.144531 L 16.726562 24.207031 L 16.808594 23.679688 L 16.863281 23.6875 L 17.207031 24.339844 L 17.554688 24.226562 L 17.550781 24.222656 L 17.59375 24.210938 Z M 17.175781 23.191406 C 17.15625 23.308594 17.027344 23.351562 16.917969 23.332031 L 16.859375 23.324219 L 16.914062 22.96875 L 16.972656 22.976562 C 17.144531 23.003906 17.191406 23.078125 17.175781 23.191406 Z M 17.175781 23.191406 "/>
<path style=" stroke:none;fill-rule:nonzero;fill:rgb(0%,0%,0%);fill-opacity:1;" d="M 19.132812 23.777344 L 19.121094 23.800781 C 19.054688 23.917969 18.949219 23.980469 18.816406 23.980469 C 18.597656 23.980469 18.503906 23.726562 18.488281 23.5 C 18.472656 23.269531 18.535156 23.011719 18.75 22.972656 C 18.878906 22.949219 18.984375 22.984375 19.074219 23.082031 L 19.28125 22.820312 C 19.121094 22.65625 18.953125 22.601562 18.726562 22.617188 C 18.339844 22.644531 18.085938 23.097656 18.113281 23.527344 C 18.144531 23.953125 18.433594 24.363281 18.839844 24.335938 C 19.066406 24.320312 19.226562 24.238281 19.363281 24.054688 L 19.375 24.035156 Z M 19.132812 23.777344 "/>
<path style=" stroke:none;fill-rule:nonzero;fill:rgb(96.078431%,75.294118%,24.313725%);fill-opacity:1;" d="M 10.578125 16.417969 C 10.578125 16.582031 10.738281 16.71875 10.933594 16.71875 C 11.132812 16.71875 11.289062 16.582031 11.289062 16.417969 C 11.289062 16.253906 11.132812 16.121094 10.933594 16.121094 C 10.738281 16.121094 10.578125 16.253906 10.578125 16.417969 Z M 10.578125 16.417969 "/>
<path style=" stroke:none;fill-rule:nonzero;fill:rgb(96.078431%,75.294118%,24.313725%);fill-opacity:1;" d="M 24.808594 16.417969 C 24.808594 16.582031 24.96875 16.71875 25.164062 16.71875 C 25.363281 16.71875 25.519531 16.582031 25.519531 16.417969 C 25.519531 16.253906 25.363281 16.121094 25.164062 16.121094 C 24.96875 16.121094 24.808594 16.253906 24.808594 16.417969 Z M 24.808594 16.417969 "/>
<path style=" stroke:none;fill-rule:nonzero;fill:rgb(96.078431%,75.294118%,24.313725%);fill-opacity:1;" d="M 11.582031 13.472656 C 11.941406 13.679688 12.429688 13.648438 12.625 13.273438 C 12.734375 13.066406 12.757812 12.882812 12.6875 12.664062 L 12.347656 12.734375 C 12.410156 12.855469 12.402344 12.984375 12.328125 13.101562 C 12.210938 13.292969 11.957031 13.238281 11.765625 13.128906 C 11.574219 13.015625 11.398438 12.824219 11.484375 12.613281 C 11.539062 12.484375 11.625 12.414062 11.75 12.386719 L 11.652344 12.0625 C 11.433594 12.113281 11.296875 12.234375 11.1875 12.441406 C 11 12.796875 11.226562 13.265625 11.582031 13.472656 Z M 11.582031 13.472656 "/>
<path style=" stroke:none;fill-rule:nonzero;fill:rgb(96.078431%,75.294118%,24.313725%);fill-opacity:1;" d="M 13.535156 12.003906 C 13.824219 11.6875 13.78125 11.164062 13.472656 10.871094 C 13.171875 10.585938 12.707031 10.578125 12.425781 10.882812 L 12.066406 11.273438 L 13.175781 12.394531 Z M 12.671875 11.132812 C 12.816406 10.976562 13.054688 11.007812 13.210938 11.152344 C 13.375 11.308594 13.441406 11.585938 13.285156 11.753906 L 13.183594 11.863281 L 12.570312 11.242188 Z M 12.671875 11.132812 "/>
<path style=" stroke:none;fill-rule:nonzero;fill:rgb(96.078431%,75.294118%,24.313725%);fill-opacity:1;" d="M 21.632812 11.15625 L 21.945312 11.359375 L 22.761719 9.992188 L 22.449219 9.785156 L 21.984375 10.5625 L 22 9.492188 L 21.683594 9.285156 L 20.867188 10.65625 L 21.183594 10.859375 L 21.644531 10.085938 Z M 21.632812 11.15625 "/>
<path style=" stroke:none;fill-rule:nonzero;fill:rgb(96.078431%,75.294118%,24.313725%);fill-opacity:1;" d="M 20.121094 10.140625 L 20.136719 10.480469 L 20.515625 10.488281 L 20.347656 8.816406 L 20.042969 8.734375 L 19.140625 10.128906 L 19.480469 10.308594 L 19.648438 10.015625 Z M 20.078125 9.261719 L 20.101562 9.761719 L 19.832031 9.691406 Z M 20.078125 9.261719 "/>
<path style=" stroke:none;fill-rule:nonzero;fill:rgb(96.078431%,75.294118%,24.313725%);fill-opacity:1;" d="M 18.207031 9.660156 L 18.265625 9.660156 C 18.59375 9.660156 18.910156 9.425781 18.910156 9.082031 C 18.910156 8.734375 18.59375 8.503906 18.265625 8.503906 L 17.835938 8.503906 L 17.835938 10.117188 L 18.207031 10.117188 Z M 18.207031 8.863281 L 18.265625 8.863281 C 18.398438 8.863281 18.535156 8.941406 18.535156 9.082031 C 18.535156 9.21875 18.398438 9.296875 18.265625 9.296875 L 18.207031 9.296875 Z M 18.207031 8.863281 "/>
<path style=" stroke:none;fill-rule:nonzero;fill:rgb(96.078431%,75.294118%,24.313725%);fill-opacity:1;" d="M 16.722656 9.632812 C 16.800781 9.65625 16.871094 9.683594 16.886719 9.765625 C 16.898438 9.84375 16.851562 9.925781 16.777344 9.949219 C 16.671875 9.984375 16.550781 9.957031 16.503906 9.855469 L 16.328125 10.171875 C 16.476562 10.316406 16.679688 10.339844 16.851562 10.300781 C 17.117188 10.242188 17.300781 9.96875 17.246094 9.683594 C 17.203125 9.449219 17.019531 9.339844 16.792969 9.273438 L 16.6875 9.242188 C 16.574219 9.210938 16.476562 9.195312 16.484375 9.097656 C 16.488281 9.035156 16.523438 8.980469 16.578125 8.96875 C 16.664062 8.949219 16.753906 8.941406 16.808594 9.007812 L 16.976562 8.703125 C 16.832031 8.589844 16.6875 8.578125 16.507812 8.617188 C 16.285156 8.667969 16.074219 8.914062 16.121094 9.175781 C 16.167969 9.433594 16.390625 9.523438 16.632812 9.601562 Z M 16.722656 9.632812 "/>
<path style=" stroke:none;fill-rule:nonzero;fill:rgb(96.078431%,75.294118%,24.313725%);fill-opacity:1;" d="M 15.714844 10.171875 L 15.210938 10.40625 L 15.089844 10.125 L 15.503906 9.933594 L 15.363281 9.605469 L 14.953125 9.796875 L 14.863281 9.589844 L 15.34375 9.367188 L 15.203125 9.035156 L 14.386719 9.417969 L 15.011719 10.894531 L 15.855469 10.5 Z M 15.714844 10.171875 "/>
<path style=" stroke:none;fill-rule:nonzero;fill:rgb(96.078431%,75.294118%,24.313725%);fill-opacity:1;" d="M 22.5625 11.945312 L 22.820312 12.234375 L 23.246094 11.816406 L 24.246094 11.570312 L 24.085938 11.210938 L 23.367188 11.425781 L 23.625 10.695312 L 23.292969 10.5 L 22.988281 11.527344 Z M 22.5625 11.945312 "/>
<path style=" stroke:none;fill-rule:nonzero;fill:rgb(96.078431%,75.294118%,24.313725%);fill-opacity:1;" d="M 23.671875 13.425781 C 23.878906 13.800781 24.367188 13.832031 24.722656 13.613281 C 25.082031 13.398438 25.300781 12.9375 25.09375 12.5625 C 24.886719 12.1875 24.398438 12.15625 24.039062 12.375 C 23.683594 12.589844 23.464844 13.050781 23.671875 13.425781 Z M 24.230469 12.714844 C 24.449219 12.582031 24.691406 12.542969 24.800781 12.742188 C 24.910156 12.941406 24.757812 13.140625 24.535156 13.273438 C 24.3125 13.410156 24.074219 13.449219 23.964844 13.246094 C 23.855469 13.046875 24.007812 12.847656 24.230469 12.714844 Z M 24.230469 12.714844 "/>
<path style=" stroke:none;fill-rule:nonzero;fill:rgb(96.078431%,75.294118%,24.313725%);fill-opacity:1;" d="M 24.210938 14.492188 L 24.429688 15.417969 L 24.765625 15.332031 L 24.632812 14.78125 L 25.796875 14.480469 L 25.707031 14.101562 Z M 24.210938 14.492188 "/>
<path style=" stroke:none;fill-rule:nonzero;fill:rgb(96.078431%,75.294118%,24.313725%);fill-opacity:1;" d="M 11.457031 18.90625 C 11.84375 18.792969 12.097656 18.378906 12 17.972656 L 11.875 17.445312 L 10.382812 17.832031 L 10.507812 18.363281 C 10.609375 18.785156 11.054688 19.027344 11.457031 18.90625 Z M 10.839844 18.273438 L 10.804688 18.121094 L 11.632812 17.90625 L 11.667969 18.058594 C 11.71875 18.269531 11.566406 18.464844 11.367188 18.523438 C 11.152344 18.589844 10.894531 18.5 10.839844 18.273438 Z M 10.839844 18.273438 "/>
<path style=" stroke:none;fill-rule:nonzero;fill:rgb(96.078431%,75.294118%,24.313725%);fill-opacity:1;" d="M 12.308594 19.625 L 12.566406 20.105469 L 12.867188 19.929688 L 12.429688 19.109375 L 11.082031 19.890625 L 11.53125 20.738281 L 11.832031 20.5625 L 11.5625 20.054688 L 11.820312 19.90625 L 12.039062 20.320312 L 12.339844 20.144531 L 12.121094 19.734375 Z M 12.308594 19.625 "/>
<path style=" stroke:none;fill-rule:nonzero;fill:rgb(96.078431%,75.294118%,24.313725%);fill-opacity:1;" d="M 14.058594 21.175781 L 13.730469 20.90625 L 12.78125 22.179688 L 13.140625 22.472656 C 13.390625 22.679688 13.71875 22.734375 13.898438 22.492188 C 14.007812 22.34375 13.992188 22.160156 13.894531 22 C 14.046875 22.035156 14.183594 22 14.28125 21.871094 C 14.445312 21.648438 14.292969 21.367188 14.058594 21.175781 Z M 13.628906 22.21875 C 13.5625 22.308594 13.457031 22.273438 13.332031 22.171875 L 13.285156 22.132812 L 13.464844 21.890625 L 13.511719 21.929688 C 13.644531 22.039062 13.695312 22.132812 13.628906 22.21875 Z M 13.9375 21.699219 C 13.890625 21.761719 13.820312 21.757812 13.707031 21.664062 L 13.660156 21.628906 L 13.8125 21.429688 L 13.851562 21.464844 C 13.964844 21.558594 13.984375 21.632812 13.9375 21.699219 Z M 13.9375 21.699219 "/>
<path style=" stroke:none;fill-rule:nonzero;fill:rgb(96.078431%,75.294118%,24.313725%);fill-opacity:1;" d="M 14.261719 23.21875 L 14.566406 23.453125 L 14.78125 23.199219 L 15.226562 23.40625 L 15.1875 23.742188 L 15.558594 23.824219 L 15.667969 22.140625 L 15.382812 22.007812 Z M 15.269531 23.03125 L 15.015625 22.914062 L 15.328125 22.535156 Z M 15.269531 23.03125 "/>
<path style=" stroke:none;fill-rule:nonzero;fill:rgb(96.078431%,75.294118%,24.313725%);fill-opacity:1;" d="M 17.464844 23.144531 C 17.511719 22.828125 17.25 22.5625 16.945312 22.511719 L 16.523438 22.441406 L 16.28125 24.035156 L 16.644531 24.097656 L 16.726562 23.570312 L 16.78125 23.582031 L 17.125 24.230469 L 17.472656 24.117188 L 17.140625 23.539062 C 17.316406 23.472656 17.4375 23.320312 17.464844 23.144531 Z M 17.09375 23.085938 C 17.074219 23.199219 16.945312 23.242188 16.839844 23.226562 L 16.78125 23.214844 L 16.832031 22.859375 L 16.890625 22.867188 C 17.0625 22.898438 17.109375 22.96875 17.09375 23.085938 Z M 17.09375 23.085938 "/>
<path style=" stroke:none;fill-rule:nonzero;fill:rgb(96.078431%,75.294118%,24.313725%);fill-opacity:1;" d="M 18.71875 23.910156 C 18.5 23.910156 18.40625 23.65625 18.390625 23.429688 C 18.375 23.199219 18.4375 22.941406 18.652344 22.902344 C 18.78125 22.878906 18.886719 22.914062 18.976562 23.011719 L 19.183594 22.75 C 19.023438 22.585938 18.855469 22.53125 18.628906 22.546875 C 18.242188 22.574219 17.988281 23.027344 18.015625 23.457031 C 18.046875 23.882812 18.335938 24.292969 18.742188 24.265625 C 18.96875 24.25 19.128906 24.167969 19.265625 23.984375 L 19.023438 23.726562 C 18.960938 23.847656 18.851562 23.910156 18.71875 23.910156 Z M 18.71875 23.910156 "/>
<path style=" stroke:none;fill-rule:nonzero;fill:rgb(96.078431%,75.294118%,24.313725%);fill-opacity:1;" d="M 20.824219 23.386719 L 20.296875 23.554688 L 20.210938 23.261719 L 20.640625 23.125 L 20.539062 22.78125 L 20.109375 22.917969 L 20.046875 22.703125 L 20.550781 22.539062 L 20.449219 22.195312 L 19.589844 22.46875 L 20.042969 24.011719 L 20.925781 23.730469 Z M 20.824219 23.386719 "/>
<path style=" stroke:none;fill-rule:nonzero;fill:rgb(96.078431%,75.294118%,24.313725%);fill-opacity:1;" d="M 22.417969 20.871094 C 22.121094 21.171875 22.210938 21.675781 22.5 21.984375 C 22.785156 22.296875 23.265625 22.410156 23.5625 22.109375 C 23.859375 21.808594 23.769531 21.304688 23.480469 20.992188 C 23.195312 20.679688 22.71875 20.570312 22.417969 20.871094 Z M 23.324219 21.851562 C 23.167969 22.011719 22.949219 21.90625 22.769531 21.714844 C 22.589844 21.519531 22.496094 21.285156 22.65625 21.125 C 22.8125 20.964844 23.035156 21.070312 23.210938 21.265625 C 23.390625 21.457031 23.484375 21.691406 23.324219 21.851562 Z M 23.324219 21.851562 "/>
<path style=" stroke:none;fill-rule:nonzero;fill:rgb(96.078431%,75.294118%,24.313725%);fill-opacity:1;" d="M 22.382812 22.566406 L 21.910156 22.839844 L 21.332031 21.742188 L 21.007812 21.933594 L 21.753906 23.34375 L 22.550781 22.882812 Z M 22.382812 22.566406 "/>
<path style=" stroke:none;fill-rule:nonzero;fill:rgb(96.078431%,75.294118%,24.313725%);fill-opacity:1;" d="M 25.527344 17.921875 L 25.851562 17.890625 L 25.847656 17.496094 L 24.257812 17.730469 L 24.191406 18.054688 L 25.554688 18.949219 L 25.710938 18.585938 L 25.425781 18.421875 Z M 25.113281 18.238281 L 24.695312 17.996094 L 25.167969 17.953125 Z M 25.113281 18.238281 "/>
<path style=" stroke:none;fill-rule:nonzero;fill:rgb(96.078431%,75.294118%,24.313725%);fill-opacity:1;" d="M 24.488281 19.664062 L 23.46875 19.703125 L 23.289062 20.042969 L 24.636719 20.828125 L 24.816406 20.488281 L 24.050781 20.042969 L 25.070312 20.003906 L 25.25 19.664062 L 23.902344 18.882812 L 23.722656 19.21875 Z M 24.488281 19.664062 "/>
<path style=" stroke:none;fill-rule:nonzero;fill:rgb(96.078431%,75.294118%,24.313725%);fill-opacity:1;" d="M 11.890625 14.925781 L 11.394531 14.804688 L 11.40625 14.746094 L 12.050781 14.433594 L 11.964844 14.0625 L 11.390625 14.367188 C 11.339844 14.179688 11.207031 14.042969 11.039062 14.003906 C 10.738281 13.933594 10.46875 14.1875 10.402344 14.5 L 10.304688 14.9375 L 11.804688 15.300781 Z M 11.070312 14.664062 L 11.058594 14.722656 L 10.722656 14.644531 L 10.738281 14.582031 C 10.773438 14.40625 10.847656 14.359375 10.957031 14.386719 C 11.0625 14.414062 11.097656 14.550781 11.070312 14.664062 Z M 11.070312 14.664062 "/>
<path style=" stroke:none;fill-rule:nonzero;fill:rgb(100%,100%,100%);fill-opacity:1;" d="M 20.082031 11.101562 L 12.894531 18.625 C 13.050781 18.996094 13.242188 19.34375 13.472656 19.667969 L 21.148438 11.632812 C 20.8125 11.417969 20.457031 11.238281 20.082031 11.101562 Z M 20.082031 11.101562 "/>
<path style=" stroke:none;fill-rule:nonzero;fill:rgb(100%,100%,100%);fill-opacity:1;" d="M 12.472656 15.875 L 17.320312 10.796875 C 14.742188 11.15625 12.71875 13.253906 12.472656 15.875 Z M 12.472656 15.875 "/>
<path style=" stroke:none;fill-rule:nonzero;fill:rgb(100%,100%,100%);fill-opacity:1;" d="M 22.738281 13.160156 L 15.0625 21.195312 C 15.394531 21.40625 15.75 21.585938 16.125 21.726562 L 23.316406 14.199219 C 23.160156 13.832031 22.964844 13.480469 22.738281 13.160156 Z M 22.738281 13.160156 "/>
<path style=" stroke:none;fill-rule:nonzero;fill:rgb(100%,100%,100%);fill-opacity:1;" d="M 23.738281 16.949219 L 18.886719 22.027344 C 21.46875 21.667969 23.492188 19.570312 23.738281 16.949219 Z M 23.738281 16.949219 "/>
<path style=" stroke:none;fill-rule:nonzero;fill:rgb(11.764706%,41.960784%,75.294118%);fill-opacity:1;" d="M 21.148438 11.632812 L 13.472656 19.667969 C 13.894531 20.273438 14.4375 20.792969 15.0625 21.195312 L 22.738281 13.160156 C 22.3125 12.550781 21.773438 12.03125 21.148438 11.632812 Z M 21.148438 11.632812 "/>
<path style=" stroke:none;fill-rule:nonzero;fill:rgb(11.764706%,41.960784%,75.294118%);fill-opacity:1;" d="M 23.761719 16.414062 C 23.761719 15.625 23.605469 14.878906 23.316406 14.199219 L 16.125 21.726562 C 16.742188 21.957031 17.410156 22.082031 18.105469 22.082031 C 18.371094 22.082031 18.632812 22.0625 18.886719 22.027344 L 23.738281 16.949219 C 23.753906 16.773438 23.761719 16.59375 23.761719 16.414062 Z M 23.761719 16.414062 "/>
<path style=" stroke:none;fill-rule:nonzero;fill:rgb(11.764706%,41.960784%,75.294118%);fill-opacity:1;" d="M 18.105469 10.742188 C 17.839844 10.742188 17.578125 10.761719 17.320312 10.796875 L 12.472656 15.875 C 12.453125 16.050781 12.445312 16.230469 12.445312 16.414062 C 12.445312 17.199219 12.605469 17.945312 12.894531 18.625 L 20.082031 11.101562 C 19.46875 10.871094 18.800781 10.742188 18.105469 10.742188 Z M 18.105469 10.742188 "/>
</g>
</svg>
