<?xml version="1.0" encoding="UTF-8" standalone="no"?>
<!-- Created with Inkscape (http://www.inkscape.org/) -->

<svg
   xmlns:dc="http://purl.org/dc/elements/1.1/"
   xmlns:cc="http://creativecommons.org/ns#"
   xmlns:rdf="http://www.w3.org/1999/02/22-rdf-syntax-ns#"
   xmlns:svg="http://www.w3.org/2000/svg"
   xmlns="http://www.w3.org/2000/svg"
   version="1.1"
   width="354.33398"
   height="461.703"
   viewBox="0 0 354.33399 461.70301"
   id="svg6440">
  <metadata
     id="metadata6502">
    <rdf:RDF>
      <cc:Work
         rdf:about="">
        <dc:format>image/svg+xml</dc:format>
        <dc:type
           rdf:resource="http://purl.org/dc/dcmitype/StillImage" />
        <dc:title></dc:title>
      </cc:Work>
    </rdf:RDF>
  </metadata>
  <defs
     id="defs6500" />
  <path
     d="M 177.162,-1.2957746e-7 172.48,7.8359999 137.619,66.164 122.955,41.641 118.279,33.805 113.59,41.641 1.673,228.921 0,231.718 1.673,234.516 112,419.129 l 4.682,7.837 4.682,-7.837 15.172,-25.386 35.937,60.124 4.683,7.836 4.682,-7.836 35.938,-60.131 15.185,25.407 4.683,7.822 4.682,-7.822 110.328,-184.628 1.68,-2.797 -1.68,-2.797 L 240.72,41.648 236.044,33.812 231.355,41.648 216.699,66.164 181.845,7.8369999 177.162,-1.2957748e-7 z M 177.162,10.632 216.699,76.788 236.045,44.443 347.969,231.717 237.636,416.337 217.776,383.108 177.156,451.067 136.537,383.108 116.683,416.33 6.355,231.718 118.28,44.437 137.619,76.789 177.162,10.632 z"
     id="path6442"
     style="fill:#aeacad" />
  <path
     d="m 136.536,383.111 40.619,67.959 40.62,-67.959 19.861,33.229 L 347.968,231.72 236.039,44.439 216.699,76.784 177.162,10.627 137.619,76.79 118.28,44.438 6.355,231.72 116.682,416.334 136.536,383.111 z"
     id="path6444"
     style="fill:#00245e" />
  <path
     d="M 250.607,263.484 177.17,386.342 103.727,263.484 H 78.902 L 177.17,427.88 275.417,263.484 h -24.81 z M 116.684,351.626 64.013,263.484 H 39.195 l 77.489,129.659 17.262,-28.869 -12.416,-20.758 -4.846,8.11 z m 173.645,-88.142 -52.692,88.142 -4.833,-8.11 -12.415,20.759 17.248,28.876 77.502,-129.667 h -24.81 z"
     id="path6446"
     style="fill:#9dc2ea" />
  <path
     d="m 236.042,67.634 -16.803,28.101 12.086,20.218 4.717,-7.891 54.914,91.885 h 24.166 L 236.042,67.634 z M 39.212,199.947 h 24.159 l 54.92,-91.886 4.716,7.884 L 135.093,95.741 118.29,67.633 39.212,199.947 z"
     id="path6448"
     style="fill:#ffffff" />
  <path
     d="m 119.792,170.255 57.381,-95.999 57.375,95.999 h 24.165 L 177.173,33.822 95.626,170.255 h 24.166 z"
     id="path6450"
     style="fill:#ffffff" />
  <path
     d="m 27.414,214.107 h 8.432 l 5.615,22.527 h 0.089 l 7.349,-22.527 h 7.198 l 7.294,23.124 h 0.096 l 5.903,-23.124 h 7.843 l -10.27,35.135 h -6.896 l -7.74,-24.323 h -0.104 l -7.74,24.323 h -6.65 L 27.414,214.107 z"
     id="path6452"
     style="fill:#ffffff" />
  <path
     d="m 80.97,214.107 h 7.74 v 13.102 h 15.042 v -13.102 h 7.74 v 35.135 h -7.74 V 234.057 H 88.709 v 15.185 h -7.74 v -35.135 z"
     id="path6454"
     style="fill:#ffffff" />
  <path
     d="m 119.927,214.105 h 7.733 v 35.135 h -7.733 v -35.135 z"
     id="path6456"
     style="fill:#ffffff" />
  <path
     d="m 143.455,220.952 h -10.023 v -6.842 h 27.793 v 6.842 h -10.03 v 28.286 h -7.74 v -28.286 z"
     id="path6458"
     style="fill:#ffffff" />
  <path
     d="m 167.266,214.107 h 23.878 v 7.151 h -16.131 v 6.547 h 11.921 v 7.144 h -11.921 v 7.15 h 17.022 v 7.143 h -24.769 v -35.135 z"
     id="path6460"
     style="fill:#ffffff" />
  <g
     transform="translate(-3.543,-3.5390001)"
     id="g6462">
    <path
       d="m 223.712,226.771 c -1.536,-1.831 -3.771,-2.873 -6.65,-2.873 -5.848,0 -10.174,4.765 -10.174,11.312 0,6.555 4.326,11.312 9.928,11.312 3.125,0 5.655,-1.385 7.246,-3.764 l 6.451,4.812 c -2.935,4.168 -7.892,6.102 -12.704,6.102 -10.976,0 -18.956,-7.191 -18.956,-18.462 0,-11.264 7.98,-18.456 18.956,-18.456 3.921,0 8.878,1.344 11.86,5.163 l -5.957,4.854 z"
       id="path6464"
       style="fill:#ffffff" />
    <path
       d="m 249.416,227.867 -4.265,10.913 h 8.583 l -4.318,-10.913 z m -2.976,-10.222 h 6.403 l 15.287,35.135 h -8.74 l -3.023,-7.445 h -13.65 l -2.927,7.445 h -8.535 l 15.185,-35.135 z"
       id="path6466"
       style="fill:#ffffff" />
    <path
       d="m 279.35,232.532 h 5.169 c 2.723,0 5.457,-0.946 5.457,-4.216 0,-3.627 -3.674,-4.12 -6.656,-4.12 h -3.969 l -10e-4,8.336 z m -7.733,-14.883 h 13.047 c 7.301,0 13.348,2.331 13.348,10.667 0,8.233 -5.602,10.771 -12.998,10.771 h -5.662 v 13.69 h -7.733 l -0.002,-35.128 z"
       id="path6468"
       style="fill:#ffffff" />
    <path
       d="m 321.234,226.228 c -1.242,-1.583 -3.73,-2.331 -5.615,-2.331 -2.18,0 -5.203,0.994 -5.203,3.626 0,6.396 16.172,2.276 16.172,14.589 0,7.842 -6.299,11.559 -13.547,11.559 -4.518,0 -8.486,-1.338 -11.812,-4.416 l 5.513,-6.053 c 1.584,2.077 4.16,3.324 6.746,3.324 2.529,0 5.359,-1.192 5.359,-3.667 0,-6.458 -16.48,-2.982 -16.48,-14.691 0,-7.493 6.506,-11.415 13.402,-11.415 3.971,0 7.795,1.042 10.771,3.667 l -5.306,5.808 z"
       id="path6470"
       style="fill:#ffffff" />
    <path
       d="m 152.28,266.83 h 23.562 v 7.15 H 160.02 v 7.144 h 11.325 v 7.144 H 160.02 v 13.697 h -7.74 V 266.83 z"
       id="path6472"
       style="fill:#ffffff" />
    <path
       d="m 201.9,275.959 c -1.536,-1.831 -3.764,-2.872 -6.65,-2.872 -5.854,0 -10.174,4.764 -10.174,11.312 0,6.547 4.319,11.312 9.928,11.312 3.133,0 5.655,-1.392 7.246,-3.771 l 6.451,4.813 c -2.928,4.168 -7.891,6.107 -12.704,6.107 -10.969,0 -18.956,-7.198 -18.956,-18.462 0,-11.264 7.986,-18.462 18.956,-18.462 3.921,0 8.885,1.344 11.86,5.162 l -5.957,4.861 z"
       id="path6474"
       style="fill:#ffffff" />
    <path
       d="m 90.655,183.531 h 5.046 l 4.963,13.156 h 0.055 l 5.053,-13.156 h 4.73 l -8.274,20.073 h -3.545 l -8.028,-20.073 z"
       id="path6476"
       style="fill:#ffffff" />
    <path
       d="m 117.829,189.369 -2.441,6.246 h 4.909 l -2.468,-6.246 z m -1.701,-5.841 h 3.661 l 8.727,20.08 h -4.984 l -1.734,-4.257 h -7.802 l -1.666,4.257 h -4.875 l 8.673,-20.08 z"
       id="path6478"
       style="fill:#ffffff" />
    <path
       d="m 130.932,183.531 h 6.013 l 8.535,13.951 h 0.062 v -13.951 h 4.422 v 20.073 h -5.786 l -8.768,-14.287 h -0.055 v 14.287 h -4.422 v -20.073 z"
       id="path6480"
       style="fill:#ffffff" />
    <path
       d="m 167.406,188.749 c -0.877,-1.049 -2.16,-1.645 -3.798,-1.645 -3.345,0 -5.813,2.721 -5.813,6.465 0,3.743 2.468,6.465 5.669,6.465 1.783,0 3.236,-0.789 4.141,-2.153 l 3.688,2.749 c -1.673,2.379 -4.518,3.489 -7.26,3.489 -6.266,0 -10.832,-4.113 -10.832,-10.551 0,-6.438 4.566,-10.544 10.832,-10.544 2.235,0 5.073,0.768 6.773,2.948 l -3.4,2.777 z"
       id="path6482"
       style="fill:#ffffff" />
    <path
       d="m 183.54,200.035 c 3.764,0 6.238,-2.721 6.238,-6.465 0,-3.743 -2.476,-6.464 -6.238,-6.464 -3.771,0 -6.238,2.721 -6.238,6.464 -0.001,3.744 2.467,6.465 6.238,6.465 m 0,-17.015 c 6.267,0 10.832,4.113 10.832,10.551 0,6.438 -4.565,10.544 -10.832,10.544 -6.273,0 -10.832,-4.106 -10.832,-10.544 0,-6.438 4.559,-10.551 10.832,-10.551"
       id="path6484"
       style="fill:#ffffff" />
    <path
       d="m 215.042,195.866 c 0,4.737 -2.894,8.248 -8.452,8.248 -5.588,0 -8.48,-3.51 -8.48,-8.248 v -12.333 h 4.428 v 12.162 c 0,2.468 1.701,4.339 4.053,4.339 2.323,0 4.023,-1.871 4.023,-4.339 v -12.162 h 4.429 v 12.333 z"
       id="path6486"
       style="fill:#ffffff" />
    <path
       d="m 217.484,183.531 h 5.053 l 4.963,13.156 h 0.055 l 5.053,-13.156 h 4.73 l -8.275,20.073 h -3.544 l -8.035,-20.073 z"
       id="path6488"
       style="fill:#ffffff" />
    <path
       d="m 240.009,183.531 h 13.636 v 4.086 h -9.214 v 3.744 h 8.707 v 4.079 h -8.707 v 4.086 h 9.722 v 4.079 h -14.144 v -20.074 z"
       id="path6490"
       style="fill:#ffffff" />
    <path
       d="m 262.513,191.837 h 2.611 c 1.611,0 3.709,-0.055 3.709,-2.234 0,-2.022 -1.816,-2.324 -3.428,-2.324 h -2.893 v 4.558 z m -4.422,-8.309 h 7.768 c 4.113,0 7.568,1.419 7.568,6.102 0,2.804 -1.502,4.984 -4.34,5.505 l 5.107,8.474 h -5.299 l -4.196,-8.028 h -2.187 v 8.028 h -4.422 v -20.081 z"
       id="path6492"
       style="fill:#ffffff" />
    <path
       d="m 258.939,411.995 h 3.002 v 7.884 h 1.543 v -7.884 h 3.022 v -1.378 h -7.568 l 0.001,1.378 z"
       id="path6494"
       style="fill:#051c36" />
    <path
       d="m 272.154,418.02 -2.344,-7.404 h -2.27 v 9.262 h 1.42 v -7.885 l 2.488,7.885 h 1.404 l 2.379,-7.768 v 7.768 h 1.412 v -9.262 h -2.228 l -2.261,7.404 z"
       id="path6496"
       style="fill:#051c36" />
  </g>
</svg>
