<?xml version="1.0" encoding="UTF-8"?>
<svg xmlns="http://www.w3.org/2000/svg" xmlns:xlink="http://www.w3.org/1999/xlink" width="23pt" height="15pt" viewBox="0 0 23 15" version="1.1">
<g id="surface1">
<rect x="0" y="0" width="23" height="15" style="fill:rgb(83.529412%,16.862745%,11.764706%);fill-opacity:1;stroke:none;"/>
<path style=" stroke:none;fill-rule:nonzero;fill:rgb(100%,100%,100%);fill-opacity:1;" d="M 7.667969 7.5 L 23 7.5 L 23 0 L 0 0 Z M 7.667969 7.5 "/>
<path style=" stroke:none;fill-rule:nonzero;fill:rgb(0%,22.352941%,65.098039%);fill-opacity:1;" d="M 7.667969 7.5 L 0 7.5 L 0 0 L 7.667969 0 Z M 7.667969 7.5 "/>
<path style=" stroke:none;fill-rule:nonzero;fill:rgb(100%,100%,100%);fill-opacity:1;" d="M 3.832031 1.875 L 3.242188 3.660156 L 4.152344 3.949219 Z M 3.832031 1.875 "/>
<path style=" stroke:none;fill-rule:nonzero;fill:rgb(100%,100%,100%);fill-opacity:1;" d="M 3.832031 1.875 L 4.425781 3.660156 L 3.515625 3.949219 Z M 3.832031 1.875 "/>
<path style=" stroke:none;fill-rule:nonzero;fill:rgb(100%,100%,100%);fill-opacity:1;" d="M 5.65625 3.171875 L 3.738281 3.171875 L 3.738281 4.109375 Z M 5.65625 3.171875 "/>
<path style=" stroke:none;fill-rule:nonzero;fill:rgb(100%,100%,100%);fill-opacity:1;" d="M 5.65625 3.171875 L 4.105469 4.273438 L 3.542969 3.515625 Z M 5.65625 3.171875 "/>
<path style=" stroke:none;fill-rule:nonzero;fill:rgb(100%,100%,100%);fill-opacity:1;" d="M 2.011719 3.171875 L 3.5625 4.273438 L 4.125 3.515625 Z M 2.011719 3.171875 "/>
<path style=" stroke:none;fill-rule:nonzero;fill:rgb(100%,100%,100%);fill-opacity:1;" d="M 2.011719 3.171875 L 3.925781 3.171875 L 3.925781 4.109375 Z M 2.011719 3.171875 "/>
<path style=" stroke:none;fill-rule:nonzero;fill:rgb(100%,100%,100%);fill-opacity:1;" d="M 4.960938 5.265625 L 4.367188 3.484375 L 3.457031 3.773438 Z M 4.960938 5.265625 "/>
<path style=" stroke:none;fill-rule:nonzero;fill:rgb(100%,100%,100%);fill-opacity:1;" d="M 4.960938 5.265625 L 3.410156 4.164062 L 3.972656 3.40625 Z M 4.960938 5.265625 "/>
<path style=" stroke:none;fill-rule:nonzero;fill:rgb(100%,100%,100%);fill-opacity:1;" d="M 2.707031 5.265625 L 4.257812 4.164062 L 3.695312 3.40625 Z M 2.707031 5.265625 "/>
<path style=" stroke:none;fill-rule:nonzero;fill:rgb(100%,100%,100%);fill-opacity:1;" d="M 2.707031 5.265625 L 3.300781 3.484375 L 4.210938 3.773438 Z M 2.707031 5.265625 "/>
</g>
</svg>
