<?xml version="1.0" encoding="UTF-8"?>
<svg xmlns="http://www.w3.org/2000/svg" xmlns:xlink="http://www.w3.org/1999/xlink" width="30pt" height="15pt" viewBox="0 0 30 15" version="1.1">
<g id="surface1">
<rect x="0" y="0" width="30" height="15" style="fill:rgb(0%,45.098039%,81.176471%);fill-opacity:1;stroke:none;"/>
<path style=" stroke:none;fill-rule:nonzero;fill:rgb(100%,100%,100%);fill-opacity:1;" d="M 0 5 L 30 5 L 30 10 L 0 10 Z M 0 5 "/>
<path style=" stroke:none;fill-rule:nonzero;fill:rgb(0%,45.098039%,81.176471%);fill-opacity:1;" d="M 15 6.667969 L 14.742188 7.460938 L 15.140625 7.589844 Z M 15 6.667969 "/>
<path style=" stroke:none;fill-rule:nonzero;fill:rgb(0%,45.098039%,81.176471%);fill-opacity:1;" d="M 15 6.667969 L 15.257812 7.460938 L 14.859375 7.589844 Z M 15 6.667969 "/>
<path style=" stroke:none;fill-rule:nonzero;fill:rgb(0%,45.098039%,81.176471%);fill-opacity:1;" d="M 15.792969 7.242188 L 14.960938 7.242188 L 14.960938 7.660156 Z M 15.792969 7.242188 "/>
<path style=" stroke:none;fill-rule:nonzero;fill:rgb(0%,45.098039%,81.176471%);fill-opacity:1;" d="M 15.792969 7.242188 L 15.117188 7.730469 L 14.875 7.394531 Z M 15.792969 7.242188 "/>
<path style=" stroke:none;fill-rule:nonzero;fill:rgb(0%,45.098039%,81.176471%);fill-opacity:1;" d="M 14.207031 7.242188 L 14.882812 7.730469 L 15.125 7.394531 Z M 14.207031 7.242188 "/>
<path style=" stroke:none;fill-rule:nonzero;fill:rgb(0%,45.098039%,81.176471%);fill-opacity:1;" d="M 14.207031 7.242188 L 15.039062 7.242188 L 15.039062 7.660156 Z M 14.207031 7.242188 "/>
<path style=" stroke:none;fill-rule:nonzero;fill:rgb(0%,45.098039%,81.176471%);fill-opacity:1;" d="M 15.488281 8.175781 L 15.230469 7.382812 L 14.835938 7.511719 Z M 15.488281 8.175781 "/>
<path style=" stroke:none;fill-rule:nonzero;fill:rgb(0%,45.098039%,81.176471%);fill-opacity:1;" d="M 15.488281 8.175781 L 14.816406 7.683594 L 15.0625 7.347656 Z M 15.488281 8.175781 "/>
<path style=" stroke:none;fill-rule:nonzero;fill:rgb(0%,45.098039%,81.176471%);fill-opacity:1;" d="M 14.511719 8.175781 L 15.183594 7.683594 L 14.9375 7.347656 Z M 14.511719 8.175781 "/>
<path style=" stroke:none;fill-rule:nonzero;fill:rgb(0%,45.098039%,81.176471%);fill-opacity:1;" d="M 14.511719 8.175781 L 14.769531 7.382812 L 15.164062 7.511719 Z M 14.511719 8.175781 "/>
<path style=" stroke:none;fill-rule:nonzero;fill:rgb(0%,45.098039%,81.176471%);fill-opacity:1;" d="M 19.167969 5.332031 L 18.910156 6.125 L 19.304688 6.253906 Z M 19.167969 5.332031 "/>
<path style=" stroke:none;fill-rule:nonzero;fill:rgb(0%,45.098039%,81.176471%);fill-opacity:1;" d="M 19.167969 5.332031 L 19.425781 6.125 L 19.027344 6.253906 Z M 19.167969 5.332031 "/>
<path style=" stroke:none;fill-rule:nonzero;fill:rgb(0%,45.098039%,81.176471%);fill-opacity:1;" d="M 19.960938 5.910156 L 19.125 5.910156 L 19.125 6.324219 Z M 19.960938 5.910156 "/>
<path style=" stroke:none;fill-rule:nonzero;fill:rgb(0%,45.098039%,81.176471%);fill-opacity:1;" d="M 19.960938 5.910156 L 19.285156 6.398438 L 19.039062 6.0625 Z M 19.960938 5.910156 "/>
<path style=" stroke:none;fill-rule:nonzero;fill:rgb(0%,45.098039%,81.176471%);fill-opacity:1;" d="M 18.375 5.910156 L 19.046875 6.398438 L 19.292969 6.0625 Z M 18.375 5.910156 "/>
<path style=" stroke:none;fill-rule:nonzero;fill:rgb(0%,45.098039%,81.176471%);fill-opacity:1;" d="M 18.375 5.910156 L 19.207031 5.910156 L 19.207031 6.324219 Z M 18.375 5.910156 "/>
<path style=" stroke:none;fill-rule:nonzero;fill:rgb(0%,45.098039%,81.176471%);fill-opacity:1;" d="M 19.65625 6.839844 L 19.398438 6.046875 L 19.003906 6.175781 Z M 19.65625 6.839844 "/>
<path style=" stroke:none;fill-rule:nonzero;fill:rgb(0%,45.098039%,81.176471%);fill-opacity:1;" d="M 19.65625 6.839844 L 18.980469 6.351562 L 19.226562 6.015625 Z M 19.65625 6.839844 "/>
<path style=" stroke:none;fill-rule:nonzero;fill:rgb(0%,45.098039%,81.176471%);fill-opacity:1;" d="M 18.675781 6.839844 L 19.351562 6.351562 L 19.105469 6.015625 Z M 18.675781 6.839844 "/>
<path style=" stroke:none;fill-rule:nonzero;fill:rgb(0%,45.098039%,81.176471%);fill-opacity:1;" d="M 18.675781 6.839844 L 18.933594 6.046875 L 19.332031 6.175781 Z M 18.675781 6.839844 "/>
<path style=" stroke:none;fill-rule:nonzero;fill:rgb(0%,45.098039%,81.176471%);fill-opacity:1;" d="M 19.167969 7.832031 L 18.910156 8.625 L 19.304688 8.753906 Z M 19.167969 7.832031 "/>
<path style=" stroke:none;fill-rule:nonzero;fill:rgb(0%,45.098039%,81.176471%);fill-opacity:1;" d="M 19.167969 7.832031 L 19.425781 8.625 L 19.027344 8.753906 Z M 19.167969 7.832031 "/>
<path style=" stroke:none;fill-rule:nonzero;fill:rgb(0%,45.098039%,81.176471%);fill-opacity:1;" d="M 19.960938 8.410156 L 19.125 8.410156 L 19.125 8.824219 Z M 19.960938 8.410156 "/>
<path style=" stroke:none;fill-rule:nonzero;fill:rgb(0%,45.098039%,81.176471%);fill-opacity:1;" d="M 19.960938 8.410156 L 19.285156 8.898438 L 19.039062 8.5625 Z M 19.960938 8.410156 "/>
<path style=" stroke:none;fill-rule:nonzero;fill:rgb(0%,45.098039%,81.176471%);fill-opacity:1;" d="M 18.375 8.410156 L 19.046875 8.898438 L 19.292969 8.5625 Z M 18.375 8.410156 "/>
<path style=" stroke:none;fill-rule:nonzero;fill:rgb(0%,45.098039%,81.176471%);fill-opacity:1;" d="M 18.375 8.410156 L 19.207031 8.410156 L 19.207031 8.824219 Z M 18.375 8.410156 "/>
<path style=" stroke:none;fill-rule:nonzero;fill:rgb(0%,45.098039%,81.176471%);fill-opacity:1;" d="M 19.65625 9.339844 L 19.398438 8.546875 L 19.003906 8.675781 Z M 19.65625 9.339844 "/>
<path style=" stroke:none;fill-rule:nonzero;fill:rgb(0%,45.098039%,81.176471%);fill-opacity:1;" d="M 19.65625 9.339844 L 18.980469 8.851562 L 19.226562 8.515625 Z M 19.65625 9.339844 "/>
<path style=" stroke:none;fill-rule:nonzero;fill:rgb(0%,45.098039%,81.176471%);fill-opacity:1;" d="M 18.675781 9.339844 L 19.351562 8.851562 L 19.105469 8.515625 Z M 18.675781 9.339844 "/>
<path style=" stroke:none;fill-rule:nonzero;fill:rgb(0%,45.098039%,81.176471%);fill-opacity:1;" d="M 18.675781 9.339844 L 18.933594 8.546875 L 19.332031 8.675781 Z M 18.675781 9.339844 "/>
<path style=" stroke:none;fill-rule:nonzero;fill:rgb(0%,45.098039%,81.176471%);fill-opacity:1;" d="M 10.832031 5.332031 L 10.574219 6.125 L 10.972656 6.253906 Z M 10.832031 5.332031 "/>
<path style=" stroke:none;fill-rule:nonzero;fill:rgb(0%,45.098039%,81.176471%);fill-opacity:1;" d="M 10.832031 5.332031 L 11.089844 6.125 L 10.695312 6.253906 Z M 10.832031 5.332031 "/>
<path style=" stroke:none;fill-rule:nonzero;fill:rgb(0%,45.098039%,81.176471%);fill-opacity:1;" d="M 11.625 5.910156 L 10.792969 5.910156 L 10.792969 6.324219 Z M 11.625 5.910156 "/>
<path style=" stroke:none;fill-rule:nonzero;fill:rgb(0%,45.098039%,81.176471%);fill-opacity:1;" d="M 11.625 5.910156 L 10.953125 6.398438 L 10.707031 6.0625 Z M 11.625 5.910156 "/>
<path style=" stroke:none;fill-rule:nonzero;fill:rgb(0%,45.098039%,81.176471%);fill-opacity:1;" d="M 10.039062 5.910156 L 10.714844 6.398438 L 10.960938 6.0625 Z M 10.039062 5.910156 "/>
<path style=" stroke:none;fill-rule:nonzero;fill:rgb(0%,45.098039%,81.176471%);fill-opacity:1;" d="M 10.039062 5.910156 L 10.875 5.910156 L 10.875 6.324219 Z M 10.039062 5.910156 "/>
<path style=" stroke:none;fill-rule:nonzero;fill:rgb(0%,45.098039%,81.176471%);fill-opacity:1;" d="M 11.324219 6.839844 L 11.066406 6.046875 L 10.667969 6.175781 Z M 11.324219 6.839844 "/>
<path style=" stroke:none;fill-rule:nonzero;fill:rgb(0%,45.098039%,81.176471%);fill-opacity:1;" d="M 11.324219 6.839844 L 10.648438 6.351562 L 10.894531 6.015625 Z M 11.324219 6.839844 "/>
<path style=" stroke:none;fill-rule:nonzero;fill:rgb(0%,45.098039%,81.176471%);fill-opacity:1;" d="M 10.34375 6.839844 L 11.019531 6.351562 L 10.773438 6.015625 Z M 10.34375 6.839844 "/>
<path style=" stroke:none;fill-rule:nonzero;fill:rgb(0%,45.098039%,81.176471%);fill-opacity:1;" d="M 10.34375 6.839844 L 10.601562 6.046875 L 10.996094 6.175781 Z M 10.34375 6.839844 "/>
<path style=" stroke:none;fill-rule:nonzero;fill:rgb(0%,45.098039%,81.176471%);fill-opacity:1;" d="M 10.832031 7.832031 L 10.574219 8.625 L 10.972656 8.753906 Z M 10.832031 7.832031 "/>
<path style=" stroke:none;fill-rule:nonzero;fill:rgb(0%,45.098039%,81.176471%);fill-opacity:1;" d="M 10.832031 7.832031 L 11.089844 8.625 L 10.695312 8.753906 Z M 10.832031 7.832031 "/>
<path style=" stroke:none;fill-rule:nonzero;fill:rgb(0%,45.098039%,81.176471%);fill-opacity:1;" d="M 11.625 8.410156 L 10.792969 8.410156 L 10.792969 8.824219 Z M 11.625 8.410156 "/>
<path style=" stroke:none;fill-rule:nonzero;fill:rgb(0%,45.098039%,81.176471%);fill-opacity:1;" d="M 11.625 8.410156 L 10.953125 8.898438 L 10.707031 8.5625 Z M 11.625 8.410156 "/>
<path style=" stroke:none;fill-rule:nonzero;fill:rgb(0%,45.098039%,81.176471%);fill-opacity:1;" d="M 10.039062 8.410156 L 10.714844 8.898438 L 10.960938 8.5625 Z M 10.039062 8.410156 "/>
<path style=" stroke:none;fill-rule:nonzero;fill:rgb(0%,45.098039%,81.176471%);fill-opacity:1;" d="M 10.039062 8.410156 L 10.875 8.410156 L 10.875 8.824219 Z M 10.039062 8.410156 "/>
<path style=" stroke:none;fill-rule:nonzero;fill:rgb(0%,45.098039%,81.176471%);fill-opacity:1;" d="M 11.324219 9.339844 L 11.066406 8.546875 L 10.667969 8.675781 Z M 11.324219 9.339844 "/>
<path style=" stroke:none;fill-rule:nonzero;fill:rgb(0%,45.098039%,81.176471%);fill-opacity:1;" d="M 11.324219 9.339844 L 10.648438 8.851562 L 10.894531 8.515625 Z M 11.324219 9.339844 "/>
<path style=" stroke:none;fill-rule:nonzero;fill:rgb(0%,45.098039%,81.176471%);fill-opacity:1;" d="M 10.34375 9.339844 L 11.019531 8.851562 L 10.773438 8.515625 Z M 10.34375 9.339844 "/>
<path style=" stroke:none;fill-rule:nonzero;fill:rgb(0%,45.098039%,81.176471%);fill-opacity:1;" d="M 10.34375 9.339844 L 10.601562 8.546875 L 10.996094 8.675781 Z M 10.34375 9.339844 "/>
</g>
</svg>
