<?xml version="1.0" encoding="UTF-8"?>
<svg xmlns="http://www.w3.org/2000/svg" xmlns:xlink="http://www.w3.org/1999/xlink" width="15pt" height="15pt" viewBox="0 0 15 15" version="1.1">
<g id="surface1">
<path style=" stroke:none;fill-rule:nonzero;fill:rgb(100%,100%,100%);fill-opacity:1;" d="M 0.835938 7.5 L 7.492188 14.15625 L 14.152344 7.5 C 11.929688 5.285156 9.714844 3.0625 7.492188 0.84375 Z M 0.835938 7.5 "/>
<path style=" stroke:none;fill-rule:nonzero;fill:rgb(50.196078%,50.196078%,50.196078%);fill-opacity:1;" d="M 3.824219 3.832031 L 0.15625 7.5 L 3.824219 11.171875 L 7.492188 14.839844 L 11.164062 11.171875 L 14.832031 7.5 L 11.164062 3.832031 C 9.144531 1.816406 7.496094 0.164062 7.496094 0.164062 C 7.492188 0.164062 5.84375 1.816406 3.824219 3.832031 Z M 10.582031 4.414062 L 13.667969 7.5 L 10.582031 10.589844 L 7.492188 13.675781 L 4.40625 10.589844 L 1.320312 7.5 L 4.40625 4.414062 C 6.105469 2.714844 7.492188 1.328125 7.496094 1.328125 C 7.496094 1.328125 8.882812 2.714844 10.582031 4.414062 Z M 10.582031 4.414062 "/>
<path style=" stroke:none;fill-rule:nonzero;fill:rgb(25.098039%,25.098039%,25.098039%);fill-opacity:1;" d="M 7.578125 3.6875 C 6.789062 3.6875 5.632812 4.230469 5.632812 5.183594 C 5.632812 5.582031 5.851562 5.832031 6.167969 5.832031 C 6.726562 5.832031 6.84375 4.9375 7.578125 4.9375 C 7.945312 4.9375 8.304688 5.226562 8.304688 5.625 C 8.304688 6.148438 7.953125 6.292969 7.605469 6.394531 C 7.246094 6.492188 6.894531 6.546875 6.894531 6.875 L 6.894531 7.777344 C 6.894531 8.140625 7.132812 8.402344 7.527344 8.402344 C 7.894531 8.402344 8.15625 8.140625 8.15625 7.777344 L 8.15625 7.453125 C 9.058594 7.21875 9.671875 6.628906 9.671875 5.625 C 9.671875 4.414062 8.707031 3.6875 7.578125 3.6875 Z M 7.542969 8.90625 C 7.53125 8.90625 7.519531 8.90625 7.507812 8.90625 C 7.3125 8.917969 7.128906 9 6.984375 9.144531 C 6.941406 9.1875 6.914062 9.222656 6.878906 9.273438 C 6.800781 9.390625 6.757812 9.507812 6.734375 9.664062 C 6.730469 9.695312 6.730469 9.835938 6.734375 9.871094 C 6.757812 10.042969 6.820312 10.195312 6.921875 10.324219 C 6.949219 10.355469 7 10.410156 7.03125 10.4375 C 7.125 10.515625 7.238281 10.578125 7.351562 10.605469 C 7.425781 10.625 7.464844 10.628906 7.546875 10.628906 C 7.625 10.628906 7.664062 10.625 7.734375 10.605469 C 7.925781 10.558594 8.097656 10.4375 8.210938 10.265625 C 8.296875 10.136719 8.34375 9.996094 8.359375 9.839844 C 8.363281 9.800781 8.359375 9.691406 8.355469 9.65625 C 8.339844 9.550781 8.3125 9.464844 8.269531 9.375 C 8.148438 9.125 7.914062 8.949219 7.652344 8.914062 C 7.625 8.910156 7.582031 8.90625 7.542969 8.90625 Z M 7.542969 8.90625 "/>
</g>
</svg>
