<?xml version="1.0" encoding="UTF-8"?>
<svg xmlns="http://www.w3.org/2000/svg" xmlns:xlink="http://www.w3.org/1999/xlink" width="55pt" height="20pt" viewBox="0 0 55 20" version="1.1">
<g id="surface1">
<path style=" stroke:none;fill-rule:nonzero;fill:rgb(5.882353%,26.27451%,48.627451%);fill-opacity:1;" d="M 54.652344 16.027344 C 54.652344 15.988281 54.65625 15.960938 54.65625 15.917969 C 54.65625 15.769531 54.644531 15.589844 54.597656 15.382812 C 54.476562 14.8125 54.167969 14.394531 53.9375 14.089844 L 53.761719 13.832031 C 53.761719 13.835938 53.679688 13.636719 53.679688 13.636719 C 53.648438 13.554688 53.613281 13.453125 53.566406 13.34375 C 54.050781 12.945312 54.25 12.503906 54.328125 12.203125 C 54.496094 11.5625 54.3125 10.898438 53.835938 10.429688 C 53.363281 9.964844 52.664062 9.753906 51.871094 9.8125 C 51.847656 8.792969 51.375 8.214844 51.109375 7.917969 C 51.105469 7.867188 51.105469 7.8125 51.105469 7.8125 C 51.101562 7.21875 51.089844 6.117188 50.203125 5.230469 C 50.007812 5.039062 49.984375 4.980469 49.910156 4.789062 C 49.910156 4.789062 49.816406 4.574219 49.792969 4.515625 C 49.742188 4.398438 49.613281 4.121094 49.1875 3.804688 L 48.179688 3.0625 L 47.492188 4.121094 C 47.117188 4.699219 47.066406 5.265625 47.035156 5.640625 C 47.035156 5.640625 47.019531 5.785156 47.011719 5.847656 C 46.980469 5.878906 46.929688 5.933594 46.929688 5.933594 L 46.605469 6.285156 L 46.570312 6.328125 C 46.105469 6.902344 46.03125 7.386719 46.03125 8.546875 C 46.03125 8.546875 46.027344 8.601562 46.023438 8.660156 C 45.992188 8.695312 45.953125 8.746094 45.953125 8.746094 C 45.5625 9.246094 45.550781 9.84375 45.539062 10.277344 C 45.539062 10.277344 45.519531 10.632812 45.519531 10.636719 C 44.398438 10.796875 22.214844 13.96875 21.71875 14.042969 C 20.292969 14.230469 19.636719 15.34375 19.742188 16.300781 C 19.921875 17.941406 21.09375 18.433594 22.128906 18.34375 C 22.785156 18.289062 38.902344 15.90625 44.625 15.058594 C 44.582031 15.28125 44.546875 15.519531 44.546875 15.773438 C 44.546875 16.085938 44.601562 16.417969 44.71875 16.757812 C 44.628906 16.964844 44.554688 17.191406 44.523438 17.453125 C 44.503906 17.605469 44.492188 17.75 44.492188 17.882812 C 44.492188 18.796875 44.886719 19.300781 45.242188 19.574219 C 45.804688 20.003906 46.558594 20.039062 47.464844 19.71875 C 48.410156 19.890625 49.445312 19.796875 50.378906 19.441406 C 51.257812 19.609375 52.152344 19.09375 52.597656 18.828125 C 52.597656 18.828125 52.605469 18.820312 52.609375 18.820312 C 52.628906 18.820312 52.652344 18.820312 52.652344 18.820312 L 53.265625 18.804688 L 53.363281 18.785156 C 53.769531 18.707031 54.523438 18.570312 54.863281 17.8125 C 54.964844 17.589844 55 17.375 55 17.167969 C 55 16.644531 54.753906 16.207031 54.652344 16.027344 "/>
<path style=" stroke:none;fill-rule:nonzero;fill:rgb(80.392157%,6.666667%,25.490196%);fill-opacity:1;" d="M 54.199219 16.292969 L 54.164062 16.226562 C 54.164062 16.226562 54.144531 16.203125 54.125 16.183594 C 54.125 16.175781 54.125 16.160156 54.125 16.160156 C 54.132812 16.09375 54.136719 16.011719 54.136719 15.917969 C 54.136719 15.800781 54.128906 15.660156 54.09375 15.496094 C 53.992188 15.039062 53.734375 14.691406 53.527344 14.410156 L 53.3125 14.097656 L 53.195312 13.824219 C 53.132812 13.648438 53.050781 13.425781 52.871094 13.175781 C 53.527344 12.808594 53.75 12.355469 53.828125 12.066406 C 53.945312 11.613281 53.8125 11.144531 53.476562 10.8125 C 53.054688 10.402344 52.386719 10.25 51.628906 10.375 C 51.59375 10.328125 51.5625 10.28125 51.527344 10.234375 C 51.527344 10.234375 51.386719 10.03125 51.359375 9.988281 C 51.359375 9.949219 51.363281 9.914062 51.363281 9.878906 C 51.363281 8.988281 50.949219 8.527344 50.699219 8.242188 C 50.699219 8.242188 50.625 8.15625 50.597656 8.125 C 50.597656 8.054688 50.585938 7.816406 50.585938 7.816406 C 50.582031 7.265625 50.574219 6.34375 49.839844 5.613281 C 49.570312 5.34375 49.515625 5.210938 49.429688 4.992188 L 49.308594 4.707031 C 49.28125 4.648438 49.210938 4.5 48.90625 4.25 L 48.332031 3.789062 L 47.925781 4.414062 C 47.621094 4.882812 47.582031 5.34375 47.554688 5.683594 L 47.511719 6.019531 C 47.488281 6.117188 47.4375 6.171875 47.285156 6.316406 L 47.011719 6.613281 L 46.96875 6.667969 C 46.644531 7.070312 46.550781 7.367188 46.550781 8.546875 C 46.550781 8.804688 46.523438 8.871094 46.523438 8.875 C 46.523438 8.875 46.453125 8.960938 46.453125 8.960938 L 46.359375 9.078125 C 46.078125 9.4375 46.070312 9.890625 46.058594 10.289062 L 46.035156 10.722656 C 46.003906 10.914062 45.96875 11.035156 45.925781 11.117188 C 45.421875 11.1875 22.003906 14.539062 21.785156 14.566406 C 20.558594 14.730469 20.195312 15.679688 20.257812 16.238281 C 20.425781 17.789062 21.59375 17.855469 22.085938 17.816406 C 22.753906 17.757812 40.84375 15.082031 45.34375 14.414062 C 45.210938 14.804688 45.0625 15.261719 45.0625 15.769531 C 45.0625 16.097656 45.125 16.441406 45.289062 16.796875 C 45.167969 17.023438 45.070312 17.253906 45.039062 17.519531 C 45.023438 17.644531 45.015625 17.765625 45.015625 17.878906 C 45.015625 18.578125 45.292969 18.953125 45.550781 19.148438 C 46.175781 19.625 47.011719 19.359375 47.457031 19.175781 C 48.367188 19.367188 49.378906 19.25 50.285156 18.886719 C 51.023438 19.152344 51.882812 18.640625 52.332031 18.367188 L 52.433594 18.308594 C 52.480469 18.28125 52.519531 18.277344 52.691406 18.292969 L 53.164062 18.28125 L 53.273438 18.261719 C 53.648438 18.191406 54.164062 18.09375 54.390625 17.589844 C 54.457031 17.449219 54.480469 17.304688 54.480469 17.167969 C 54.480469 16.835938 54.332031 16.523438 54.199219 16.292969 "/>
<path style=" stroke:none;fill-rule:nonzero;fill:rgb(5.882353%,26.27451%,48.627451%);fill-opacity:1;" d="M 44.964844 4.742188 C 44.789062 4.308594 44.292969 3.070312 45.0625 2.007812 C 45.355469 1.652344 45.21875 1.269531 45.171875 1.160156 C 45.121094 1.054688 44.917969 0.699219 44.410156 0.710938 L 44.351562 0.710938 C 42.785156 0.867188 41.917969 2.683594 41 4.605469 C 40.902344 4.804688 40.789062 5.015625 40.679688 5.222656 C 40.636719 5.214844 40.597656 5.199219 40.554688 5.191406 C 40.402344 5.175781 40.261719 5.191406 40.117188 5.207031 C 40.109375 5.183594 40.113281 5.160156 40.105469 5.132812 C 40.070312 5.042969 39.996094 4.972656 39.933594 4.898438 C 40.058594 4.867188 40.21875 4.824219 40.21875 4.824219 C 40.648438 4.714844 40.804688 4.269531 40.851562 4.085938 C 40.882812 3.960938 40.898438 3.832031 40.898438 3.707031 C 40.898438 3.425781 40.820312 3.148438 40.660156 2.90625 C 40.40625 2.527344 39.984375 2.269531 39.507812 2.210938 C 38.589844 2.089844 37.589844 2.851562 37.183594 3.894531 C 36.851562 4.265625 36.476562 4.53125 36.109375 4.714844 C 36.015625 3.96875 35.550781 3.433594 34.867188 3.3125 C 34.121094 3.179688 33.359375 3.585938 33.050781 4.273438 C 33.039062 4.300781 33.035156 4.332031 33.023438 4.359375 C 32.871094 4.105469 32.671875 3.894531 32.402344 3.789062 C 30.429688 3.003906 28.925781 5.371094 27.601562 7.453125 C 27.074219 8.289062 26.578125 9.074219 26.097656 9.609375 C 26.054688 9.652344 26.039062 9.664062 26.003906 9.695312 C 26.019531 9.554688 26.050781 9.386719 26.148438 9.183594 C 26.15625 9.15625 27.957031 4.925781 27.957031 4.925781 L 25.46875 5.171875 C 25.46875 5.171875 25.441406 5.242188 25.425781 5.292969 C 25.199219 5.179688 24.953125 5.085938 24.664062 5.046875 C 22.445312 4.769531 21.078125 6.722656 20.539062 8.648438 C 20.507812 8.746094 20.316406 9.128906 20.136719 9.445312 C 19.414062 10.714844 18.796875 11.070312 18.554688 11.09375 C 18.539062 11.023438 18.519531 10.957031 18.519531 10.847656 C 18.519531 10.175781 18.855469 8.804688 19.226562 7.894531 C 19.28125 7.738281 19.304688 7.597656 19.304688 7.476562 C 19.304688 7.152344 19.144531 6.960938 19.054688 6.878906 C 18.863281 6.703125 18.523438 6.582031 18.148438 6.777344 C 17.726562 7.027344 17.304688 7.171875 16.910156 7.265625 C 16.914062 7.203125 16.933594 7.136719 16.933594 7.078125 C 16.933594 6.90625 16.910156 6.75 16.859375 6.617188 C 16.625 5.988281 16.148438 5.574219 15.5625 5.480469 C 14.96875 5.386719 14.363281 5.636719 13.976562 6.132812 C 13.722656 6.460938 13.59375 6.847656 13.59375 7.257812 C 13.59375 7.515625 13.644531 7.78125 13.746094 8.046875 C 13.847656 8.292969 14.015625 8.527344 14.222656 8.746094 C 13.996094 9.207031 13.734375 9.707031 13.476562 10.15625 C 12.722656 11.476562 12.023438 12.425781 11.074219 13.421875 C 11.035156 13.460938 11.003906 13.5 10.976562 13.542969 C 11 13.472656 11.027344 13.40625 11.050781 13.335938 C 11.25 12.738281 11.347656 12.136719 11.347656 11.542969 C 11.347656 10.296875 10.902344 9.117188 10.097656 8.144531 C 11.339844 7.167969 12.097656 5.75 12.097656 4.269531 C 12.097656 3.976562 12.0625 3.683594 12.003906 3.390625 C 12.1875 3.332031 12.367188 3.273438 12.566406 3.210938 C 13.257812 3.035156 13.199219 2.417969 13.191406 2.347656 C 13.183594 2.28125 13.085938 1.671875 12.347656 1.679688 C 11.984375 1.6875 11.628906 1.710938 11.28125 1.746094 C 10.550781 0.765625 9.28125 -0.0078125 7.359375 0 C 5.300781 0.0429688 4.070312 1.132812 3.402344 2.035156 C 2.484375 3.273438 2.195312 4.699219 2.390625 5.46875 L 2.492188 5.875 L 2.910156 6.027344 C 3.164062 6.105469 3.4375 6.042969 3.640625 5.859375 C 4.25 5.371094 4.621094 5.238281 4.707031 5.226562 L 4.796875 5.21875 C 3.753906 6.617188 3.121094 8.359375 2.511719 10.050781 C 1.875 11.820312 1.269531 13.492188 0.300781 14.386719 L 0 14.667969 L 0.0742188 15.074219 C 0.15625 15.535156 0.214844 16.519531 0.171875 17.511719 C 0.167969 17.859375 0.320312 18.140625 0.585938 18.28125 C 0.851562 18.421875 1.160156 18.390625 1.414062 18.207031 C 3.050781 16.988281 4.15625 13.671875 5.132812 10.746094 C 5.539062 9.535156 5.925781 8.378906 6.28125 7.582031 C 6.234375 7.792969 6.234375 8.015625 6.285156 8.234375 C 6.511719 9.097656 7.242188 9.550781 8.101562 9.378906 C 8.101562 9.378906 8.179688 9.34375 8.277344 9.300781 C 8.539062 9.699219 8.679688 10.277344 8.679688 10.914062 C 8.679688 11.410156 8.597656 11.941406 8.421875 12.4375 C 8.191406 13.082031 7.46875 14.574219 5.714844 14.535156 C 5.335938 14.527344 4.941406 14.359375 4.863281 14.320312 C 4.417969 14.058594 4.007812 14.25 3.824219 14.539062 C 3.636719 14.839844 3.652344 15.300781 4.050781 15.59375 C 4.007812 15.5625 4.074219 15.621094 4.074219 15.621094 C 4.453125 15.960938 5.351562 16.761719 7.128906 16.695312 C 8.617188 16.628906 10.011719 15.585938 10.769531 14.027344 C 10.765625 14.050781 10.761719 14.070312 10.761719 14.089844 C 10.761719 14.320312 10.871094 14.488281 10.925781 14.558594 C 11.121094 14.8125 11.53125 14.996094 12.042969 14.679688 C 12.332031 14.503906 12.71875 14.25 13.132812 13.871094 C 13.839844 13.230469 14.535156 12.34375 15.320312 11.085938 C 15.355469 11.027344 15.757812 10.382812 16.148438 9.574219 C 16.234375 9.578125 16.324219 9.570312 16.414062 9.566406 C 16.214844 10.136719 16.011719 10.828125 16.011719 11.480469 C 16.011719 12.214844 16.269531 12.886719 17.082031 13.25 C 18 13.664062 19.488281 13.320312 20.902344 11.816406 C 21.234375 12.253906 21.691406 12.535156 22.265625 12.59375 C 22.835938 12.613281 23.441406 12.335938 23.902344 12.011719 C 24.242188 12.253906 24.707031 12.484375 25.324219 12.417969 C 26.234375 12.328125 27.136719 11.628906 28.089844 10.285156 L 28.648438 9.4375 C 29.207031 8.566406 30.042969 7.269531 30.695312 6.589844 C 30.648438 6.71875 30.59375 6.855469 30.488281 7.035156 C 29.9375 7.953125 29.417969 8.90625 29.417969 9.722656 C 29.417969 9.914062 29.445312 10.101562 29.511719 10.277344 C 29.65625 10.675781 29.972656 10.976562 30.402344 11.117188 C 32.15625 11.695312 34.007812 10.203125 35.425781 7.136719 C 35.601562 7.085938 35.777344 7.027344 35.953125 6.953125 C 35.75 7.386719 35.621094 7.796875 35.621094 8.152344 C 35.621094 8.761719 35.871094 9.246094 36.210938 9.574219 C 37.085938 10.410156 38.621094 10.367188 39.761719 9.546875 C 40.253906 9.820312 40.828125 9.992188 41.4375 10 C 42.757812 10.019531 43.921875 9.421875 44.628906 8.359375 C 45.328125 7.3125 45.453125 5.957031 44.964844 4.742188 M 5.378906 4.441406 C 5.371094 4.269531 5.347656 3.398438 5.871094 2.855469 C 6.210938 2.503906 6.734375 2.34375 7.4375 2.375 C 7.601562 2.382812 7.863281 2.433594 8.140625 2.554688 C 7.082031 3.023438 6.160156 3.691406 5.386719 4.527344 Z M 6.675781 6.847656 C 6.683594 6.835938 6.691406 6.816406 6.703125 6.804688 L 6.847656 6.609375 C 7.304688 5.972656 7.84375 5.234375 9.410156 4.433594 C 9.40625 4.828125 9.304688 5.679688 8.628906 6.515625 L 8.621094 6.523438 C 8.597656 6.554688 8.5625 6.582031 8.53125 6.609375 C 7.929688 6.308594 7.285156 6.34375 6.808594 6.722656 C 6.761719 6.761719 6.71875 6.804688 6.675781 6.847656 Z M 43.042969 5.761719 C 42.984375 6.984375 42.257812 7.394531 41.589844 7.527344 C 42.046875 6.839844 42.433594 6.121094 42.777344 5.480469 C 42.847656 5.355469 42.917969 5.226562 42.988281 5.097656 C 43.011719 5.246094 43.050781 5.386719 43.050781 5.558594 C 43.050781 5.625 43.046875 5.691406 43.042969 5.761719 Z M 38.484375 8.0625 C 38.320312 8.117188 38.164062 8.144531 38.085938 8.074219 C 38.03125 8.03125 38.007812 7.957031 38.007812 7.867188 C 38.007812 7.738281 38.058594 7.574219 38.148438 7.398438 C 38.21875 7.265625 38.316406 7.140625 38.433594 7.023438 C 38.414062 7.132812 38.363281 7.246094 38.363281 7.359375 C 38.363281 7.597656 38.410156 7.832031 38.484375 8.0625 Z M 39.496094 4.609375 C 39.496094 4.609375 39.542969 4.65625 39.566406 4.683594 C 39.410156 4.640625 39.246094 4.609375 39.039062 4.683594 L 39.054688 4.679688 C 39.042969 4.679688 39.035156 4.675781 39.023438 4.671875 C 39.019531 4.664062 39.019531 4.65625 39.019531 4.644531 C 39.019531 4.484375 39.109375 4.316406 39.21875 4.222656 C 39.257812 4.191406 39.285156 4.175781 39.316406 4.160156 C 39.335938 4.378906 39.433594 4.539062 39.496094 4.609375 Z M 32.90625 6.605469 C 32.960938 6.488281 32.980469 6.394531 33.019531 6.28125 C 33.039062 6.320312 33.046875 6.367188 33.066406 6.402344 C 33.15625 6.5625 33.292969 6.671875 33.421875 6.789062 C 32.871094 7.777344 32.34375 8.417969 32.019531 8.625 C 32.128906 8.214844 32.445312 7.558594 32.640625 7.15625 Z M 22.988281 10.15625 C 22.957031 10.171875 22.933594 10.179688 22.855469 10.148438 C 22.816406 10.132812 22.707031 9.855469 22.824219 9.261719 C 23.054688 8.125 23.796875 7.203125 24.160156 7.203125 C 24.203125 7.203125 24.210938 7.214844 24.214844 7.222656 C 24.242188 7.261719 24.265625 7.347656 24.265625 7.484375 C 24.265625 7.675781 24.21875 7.972656 24.058594 8.378906 C 23.492188 9.847656 23.09375 10.113281 22.988281 10.15625 Z M 22.988281 10.15625 "/>
<path style=" stroke:none;fill-rule:nonzero;fill:rgb(80.392157%,6.666667%,25.490196%);fill-opacity:1;" d="M 44.289062 5.027344 C 44.113281 4.585938 43.441406 2.988281 44.476562 1.5625 C 44.535156 1.492188 44.53125 1.453125 44.421875 1.457031 C 43.28125 1.566406 42.542969 3.074219 41.65625 4.933594 C 41.464844 5.324219 41.25 5.734375 41.019531 6.140625 C 40.703125 5.878906 39.667969 5.671875 39.234375 6.699219 C 38.980469 7.296875 39.089844 7.863281 39.425781 8.316406 C 39.339844 8.402344 39.25 8.484375 39.160156 8.558594 C 38.105469 9.398438 36.726562 8.523438 37.507812 7.042969 C 37.890625 6.316406 38.832031 5.746094 39.195312 5.601562 C 39.367188 5.535156 39.558594 5.292969 39.273438 5.390625 C 38.925781 5.511719 38.433594 5.320312 38.332031 4.964844 C 38.1875 4.453125 38.417969 3.925781 38.761719 3.640625 C 39.628906 2.925781 40.132812 3.617188 40.042969 4.03125 C 39.992188 4.183594 40.101562 4.070312 40.144531 3.898438 C 40.269531 3.40625 39.894531 3.011719 39.414062 2.949219 C 38.78125 2.867188 37.996094 3.539062 37.773438 4.351562 C 37.035156 5.207031 36.015625 5.679688 35.207031 5.761719 C 35.335938 5.378906 35.417969 5.039062 35.398438 4.855469 C 35.304688 3.769531 34.046875 3.851562 33.71875 4.585938 C 33.394531 5.300781 33.496094 6.371094 34.40625 6.503906 C 33.722656 7.90625 32.566406 9.667969 31.695312 9.476562 C 30.65625 9.238281 31.632812 7.601562 32.246094 6.285156 C 32.738281 5.238281 32.53125 4.640625 32.136719 4.484375 C 30.097656 3.675781 28.339844 8.207031 26.636719 10.113281 C 25.546875 11.332031 24.890625 10.140625 25.488281 8.859375 L 26.792969 5.792969 L 25.984375 5.871094 L 25.722656 6.539062 C 25.617188 6.273438 25.203125 5.871094 24.574219 5.792969 C 22.808594 5.570312 21.695312 7.246094 21.242188 8.855469 C 21.179688 9.074219 20.859375 9.652344 20.769531 9.820312 C 19.839844 11.457031 18.835938 12.09375 18.160156 11.769531 C 17.28125 11.347656 18.226562 8.40625 18.550781 7.605469 C 18.609375 7.445312 18.578125 7.394531 18.472656 7.445312 C 17.710938 7.902344 16.738281 8.164062 15.96875 8.128906 C 16.164062 7.59375 16.269531 7.125 16.175781 6.886719 C 15.675781 5.542969 13.886719 6.382812 14.425781 7.765625 C 14.542969 8.066406 14.785156 8.351562 15.128906 8.554688 C 14.824219 9.203125 14.441406 9.953125 14.109375 10.535156 C 13.234375 12.058594 12.480469 13.015625 11.597656 13.941406 C 11.375 14.175781 11.566406 14.101562 11.671875 14.039062 C 11.976562 13.847656 12.300781 13.628906 12.648438 13.3125 C 13.316406 12.703125 13.984375 11.835938 14.707031 10.683594 C 14.984375 10.238281 15.386719 9.5 15.703125 8.777344 C 15.996094 8.84375 16.328125 8.859375 16.699219 8.792969 C 16.90625 8.757812 17.296875 8.582031 17.453125 8.511719 C 17.496094 8.492188 17.511719 8.546875 17.511719 8.546875 C 17.433594 9.296875 15.90625 11.90625 17.378906 12.570312 C 18.199219 12.9375 19.75 12.390625 21.105469 10.417969 C 21.203125 11.199219 21.59375 11.777344 22.332031 11.847656 C 22.882812 11.867188 23.660156 11.367188 23.898438 11.046875 C 24.339844 11.449219 25.445312 12.746094 27.496094 9.847656 C 27.988281 9.152344 29.257812 6.984375 30.230469 6.003906 C 31.257812 4.972656 32.035156 5.886719 31.109375 7.425781 C 30.441406 8.546875 29.605469 10.070312 30.625 10.40625 C 32.308594 10.960938 33.9375 8.742188 34.917969 6.496094 C 36.023438 6.328125 37.351562 5.316406 37.714844 4.945312 C 37.742188 5.203125 37.886719 5.554688 38.125 5.671875 C 37.65625 6.019531 37.160156 6.394531 36.882812 6.753906 C 35.191406 9.136719 37.886719 10.234375 39.527344 8.839844 C 39.597656 8.777344 39.664062 8.710938 39.738281 8.644531 C 40.167969 9.011719 40.773438 9.242188 41.449219 9.253906 C 43.726562 9.289062 45.117188 7.089844 44.289062 5.027344 M 14.820312 7.605469 C 14.292969 6.746094 15.683594 6.21875 15.65625 7.179688 C 15.652344 7.304688 15.539062 7.617188 15.367188 8.015625 C 15.132812 7.929688 14.941406 7.796875 14.820312 7.605469 Z M 24.738281 8.65625 C 24.117188 10.257812 23.429688 11.214844 22.566406 10.832031 C 21.238281 10.246094 22.671875 6.457031 24.15625 6.457031 C 24.808594 6.457031 25.328125 7.132812 24.738281 8.65625 Z M 34.695312 4.535156 C 35.03125 4.664062 35.03125 5.023438 34.734375 5.765625 C 34.605469 5.753906 34.484375 5.726562 34.382812 5.683594 C 33.808594 5.453125 34.152344 4.332031 34.695312 4.535156 Z M 39.542969 6.832031 C 39.921875 6.066406 40.476562 6.457031 40.644531 6.757812 C 40.375 7.175781 40.097656 7.570312 39.8125 7.90625 C 39.480469 7.625 39.34375 7.242188 39.542969 6.832031 Z M 43.769531 5.820312 C 43.679688 7.730469 42.257812 8.214844 41.503906 8.3125 C 41.019531 8.375 40.570312 8.304688 40.210938 8.148438 C 41.660156 6.460938 42.558594 3.953125 43.273438 3.351562 C 43.226562 3.824219 43.867188 4.539062 43.769531 5.820312 Z M 43.769531 5.820312 "/>
<path style=" stroke:none;fill-rule:nonzero;fill:rgb(80.392157%,6.666667%,25.490196%);fill-opacity:1;" d="M 11.105469 2.910156 C 11.492188 2.773438 11.902344 2.636719 12.355469 2.496094 C 12.460938 2.46875 12.542969 2.425781 12.355469 2.429688 C 11.933594 2.433594 11.449219 2.464844 10.929688 2.535156 C 10.34375 1.492188 9.160156 0.742188 7.363281 0.75 C 3.96875 0.820312 2.839844 4.253906 3.097656 5.285156 C 3.101562 5.300781 3.128906 5.328125 3.15625 5.300781 C 3.789062 4.789062 4.320312 4.507812 4.652344 4.484375 C 4.601562 3.574219 4.917969 1.515625 7.46875 1.628906 C 8.042969 1.65625 9.019531 1.96875 9.625 2.804688 C 8.210938 3.195312 6.699219 3.980469 5.484375 5.523438 C 3.304688 8.308594 2.902344 12.996094 0.792969 14.941406 C 0.890625 15.507812 0.945312 16.5625 0.902344 17.546875 C 0.898438 17.652344 0.957031 17.621094 0.988281 17.597656 C 3.371094 15.828125 4.753906 8.203125 6.121094 6.355469 C 6.734375 5.523438 7.351562 4.480469 9.933594 3.367188 C 10.023438 3.589844 10.09375 3.835938 10.128906 4.109375 C 10.191406 4.617188 10.101562 5.871094 9.1875 6.992188 C 8.980469 7.257812 8.621094 7.480469 8.515625 7.460938 C 8.382812 7.351562 8.398438 7.386719 8.25 7.285156 C 7.457031 6.867188 6.859375 7.484375 6.996094 8.058594 C 7.097656 8.449219 7.417969 8.75 7.960938 8.644531 C 8.128906 8.613281 8.410156 8.363281 8.464844 8.410156 C 10.359375 9.960938 9.402344 15.363281 5.703125 15.28125 C 5.140625 15.265625 4.605469 15.027344 4.511719 14.972656 C 4.421875 14.917969 4.421875 14.945312 4.480469 14.992188 C 4.777344 15.25 5.496094 16.007812 7.101562 15.945312 C 10.101562 15.816406 12.246094 10.851562 8.988281 8.035156 C 11.070312 6.917969 11.800781 4.628906 11.105469 2.910156 "/>
<path style=" stroke:none;fill-rule:nonzero;fill:rgb(5.882353%,26.27451%,48.627451%);fill-opacity:1;" d="M 53.707031 16.585938 C 53.535156 16.402344 53.539062 16.300781 53.554688 16.113281 C 53.566406 15.984375 53.578125 15.828125 53.535156 15.625 C 53.460938 15.292969 53.261719 15.023438 53.070312 14.761719 L 52.816406 14.390625 L 52.660156 14.027344 C 52.578125 13.804688 52.492188 13.570312 52.222656 13.296875 C 52.199219 13.269531 52.179688 13.246094 52.15625 13.222656 L 51.929688 12.9375 C 52.667969 12.71875 53.160156 12.351562 53.273438 11.917969 C 53.339844 11.667969 53.265625 11.417969 53.078125 11.234375 C 52.808594 10.96875 52.214844 10.785156 51.351562 11.03125 C 51.347656 11.03125 51.347656 11.027344 51.347656 11.023438 C 51.277344 10.878906 51.175781 10.730469 51.070312 10.585938 C 51.058594 10.570312 51.046875 10.554688 51.035156 10.539062 C 50.976562 10.453125 50.894531 10.328125 50.839844 10.234375 C 50.808594 10.167969 50.78125 10.105469 50.785156 10.054688 C 50.839844 9.273438 50.515625 8.902344 50.273438 8.632812 C 50.167969 8.515625 50.078125 8.410156 50.050781 8.304688 C 50.015625 8.1875 50.015625 8.019531 50.015625 7.820312 C 50.011719 7.304688 50.007812 6.59375 49.441406 6.03125 C 49.089844 5.679688 49 5.460938 48.902344 5.210938 L 48.796875 4.964844 C 48.757812 4.875 48.609375 4.753906 48.550781 4.710938 L 48.460938 4.644531 L 48.402344 4.738281 C 48.179688 5.082031 48.148438 5.429688 48.121094 5.734375 L 48.066406 6.164062 C 48 6.429688 47.84375 6.582031 47.679688 6.742188 L 47.457031 6.980469 L 47.410156 7.039062 C 47.203125 7.296875 47.121094 7.441406 47.121094 8.546875 C 47.121094 9.0625 47.035156 9.164062 46.886719 9.339844 L 46.804688 9.445312 C 46.644531 9.648438 46.636719 9.964844 46.628906 10.304688 L 46.597656 10.808594 C 46.589844 10.875 46.578125 10.933594 46.566406 10.992188 L 46.507812 11.226562 C 46.503906 11.226562 46.503906 11.226562 46.503906 11.230469 C 46.4375 11.441406 46.355469 11.558594 46.257812 11.644531 C 46.246094 11.652344 46.234375 11.660156 46.226562 11.664062 C 46.160156 11.671875 45.507812 11.765625 44.453125 11.917969 L 44.277344 11.941406 C 44.273438 11.941406 44.273438 11.945312 44.273438 11.945312 C 43.609375 12.039062 42.800781 12.152344 41.894531 12.285156 C 41.894531 12.285156 41.894531 12.28125 41.894531 12.28125 L 41.417969 12.351562 C 36.324219 13.082031 28.476562 14.203125 24.445312 14.777344 C 24.4375 14.777344 24.429688 14.773438 24.421875 14.773438 L 23.902344 14.855469 C 22.632812 15.039062 21.855469 15.148438 21.855469 15.148438 C 21.035156 15.257812 20.789062 15.835938 20.824219 16.175781 C 20.855469 16.460938 20.953125 17.328125 22.039062 17.234375 C 22.152344 17.226562 22.800781 17.136719 23.8125 16.988281 C 23.816406 16.988281 23.820312 16.992188 23.824219 16.992188 L 24.363281 16.910156 C 27.867188 16.40625 34.59375 15.414062 39.675781 14.664062 L 39.722656 14.660156 L 39.996094 14.617188 C 42.078125 14.308594 43.863281 14.042969 44.988281 13.878906 C 44.996094 13.878906 45.003906 13.882812 45.011719 13.878906 L 45.800781 13.757812 C 45.800781 13.757812 45.800781 13.757812 45.804688 13.757812 C 45.925781 13.738281 46.03125 13.722656 46.105469 13.710938 C 46.082031 13.96875 46.003906 14.238281 45.90625 14.523438 C 45.773438 14.910156 45.632812 15.328125 45.632812 15.765625 C 45.632812 16.089844 45.71875 16.429688 45.933594 16.78125 C 45.925781 16.804688 45.90625 16.851562 45.90625 16.851562 C 45.714844 17.164062 45.628906 17.363281 45.601562 17.59375 C 45.589844 17.695312 45.585938 17.792969 45.585938 17.886719 C 45.585938 18.257812 45.6875 18.523438 45.894531 18.679688 C 46.195312 18.910156 46.699219 18.875 47.390625 18.574219 C 48.320312 18.816406 49.410156 18.695312 50.332031 18.253906 C 50.828125 18.589844 51.613281 18.125 52.042969 17.867188 L 52.148438 17.804688 C 52.359375 17.679688 52.550781 17.695312 52.734375 17.710938 L 53.058594 17.707031 L 53.167969 17.6875 C 53.480469 17.628906 53.769531 17.578125 53.875 17.34375 C 53.953125 17.167969 53.898438 16.925781 53.707031 16.585938 M 23.753906 16.785156 C 22.761719 16.925781 22.128906 17.011719 22.019531 17.023438 C 21.238281 17.089844 21.078125 16.59375 21.03125 16.152344 C 21.03125 16.140625 21.03125 16.125 21.03125 16.109375 C 21.03125 15.898438 21.175781 15.453125 21.882812 15.359375 L 23.5625 15.117188 C 23.703125 15.222656 23.820312 15.472656 23.871094 15.792969 C 23.9375 16.191406 23.886719 16.578125 23.753906 16.785156 Z M 38.816406 14.574219 C 34.09375 15.273438 28.246094 16.132812 24.839844 16.625 C 24.964844 16.328125 24.964844 15.921875 24.914062 15.625 C 24.867188 15.347656 24.777344 15.121094 24.664062 14.960938 L 38.632812 12.964844 C 38.738281 13.402344 38.828125 13.894531 38.816406 14.574219 Z M 39.785156 13.730469 C 39.75 13.390625 39.691406 13.09375 39.625 12.820312 L 40.539062 12.691406 Z M 40.582031 14.3125 L 41.195312 13.457031 C 41.222656 13.6875 41.234375 13.933594 41.230469 14.21875 C 41.019531 14.25 40.804688 14.28125 40.582031 14.3125 Z M 42.222656 14.070312 C 42.226562 13.789062 42.214844 13.542969 42.1875 13.3125 L 42.890625 13.972656 C 42.675781 14.003906 42.453125 14.039062 42.222656 14.070312 Z M 43.457031 13.085938 C 43.355469 12.992188 42.925781 12.601562 42.6875 12.382812 L 44.078125 12.183594 C 43.882812 12.464844 43.539062 12.96875 43.457031 13.085938 Z M 44.894531 13.675781 C 44.65625 13.710938 44.390625 13.75 44.097656 13.792969 L 44.847656 12.804688 C 44.882812 13.050781 44.902344 13.335938 44.894531 13.675781 Z M 52.9375 11.386719 C 53.035156 11.488281 53.089844 11.605469 53.089844 11.738281 C 53.089844 11.777344 53.082031 11.820312 53.074219 11.863281 C 52.976562 12.230469 52.503906 12.554688 51.808594 12.746094 C 51.75 12.664062 51.691406 12.554688 51.644531 12.4375 C 51.625 12.390625 51.605469 12.339844 51.59375 12.292969 C 51.59375 12.289062 51.585938 12.285156 51.585938 12.28125 C 51.542969 12.164062 51.511719 12.054688 51.492188 11.988281 C 51.460938 11.863281 51.441406 11.746094 51.433594 11.644531 C 51.425781 11.554688 51.421875 11.464844 51.421875 11.394531 C 51.421875 11.394531 51.421875 11.363281 51.414062 11.324219 C 51.414062 11.308594 51.414062 11.292969 51.414062 11.28125 C 51.414062 11.277344 51.414062 11.273438 51.414062 11.269531 L 51.414062 11.261719 C 51.414062 11.253906 51.410156 11.246094 51.40625 11.238281 C 52.183594 11.015625 52.707031 11.164062 52.9375 11.386719 Z M 51.242188 11.796875 C 51.25 11.863281 51.261719 11.929688 51.277344 12 C 51.277344 12.003906 51.28125 12.003906 51.28125 12.003906 C 51.28125 12.007812 51.28125 12.007812 51.28125 12.011719 C 51.28125 12.011719 51.28125 12.015625 51.28125 12.015625 C 51.296875 12.085938 51.316406 12.152344 51.339844 12.222656 C 51.203125 12.21875 51.082031 12.195312 50.96875 12.148438 C 51.058594 12.035156 51.148438 11.917969 51.242188 11.796875 Z M 50.980469 10.832031 C 50.765625 11.132812 50.511719 11.457031 50.210938 11.773438 C 49.976562 11.648438 49.59375 11.351562 49.339844 11.109375 C 49.425781 11.097656 49.511719 11.085938 49.597656 11.070312 Z M 50.605469 12.957031 C 50.480469 12.960938 50.367188 12.953125 50.261719 12.945312 C 50.292969 12.914062 50.324219 12.886719 50.355469 12.855469 C 50.4375 12.894531 50.519531 12.929688 50.605469 12.957031 Z M 47.464844 12.144531 C 47.445312 11.949219 47.398438 11.773438 47.332031 11.636719 C 47.316406 11.605469 47.296875 11.578125 47.277344 11.546875 C 47.570312 11.453125 47.882812 11.371094 48.203125 11.304688 C 48.613281 11.714844 49.195312 12.171875 49.539062 12.402344 C 49.4375 12.484375 49.335938 12.5625 49.226562 12.636719 L 48.960938 12.546875 C 48.535156 12.398438 47.957031 12.203125 47.464844 12.144531 Z M 48.109375 13.230469 C 47.800781 13.351562 47.46875 13.449219 47.109375 13.507812 C 47.21875 13.328125 47.300781 13.152344 47.355469 12.976562 C 47.542969 13.003906 47.722656 13.074219 47.894531 13.144531 C 47.964844 13.175781 48.039062 13.203125 48.109375 13.230469 Z M 46.835938 10.308594 C 46.84375 10.007812 46.847656 9.722656 46.964844 9.578125 L 47.046875 9.480469 C 47.230469 9.257812 47.328125 9.117188 47.328125 8.546875 C 47.328125 7.472656 47.40625 7.375 47.570312 7.175781 L 47.617188 7.113281 L 47.824219 6.894531 C 47.992188 6.730469 48.1875 6.542969 48.269531 6.214844 L 48.328125 5.75 C 48.351562 5.492188 48.390625 5.230469 48.527344 4.964844 C 48.566406 5 48.597656 5.035156 48.605469 5.050781 C 48.609375 5.054688 48.707031 5.292969 48.707031 5.292969 C 48.8125 5.554688 48.910156 5.796875 49.296875 6.183594 C 49.800781 6.683594 49.804688 7.316406 49.808594 7.824219 C 49.808594 8.035156 49.8125 8.214844 49.847656 8.359375 C 49.886719 8.515625 50 8.640625 50.121094 8.777344 C 50.328125 9.011719 50.582031 9.296875 50.582031 9.882812 C 50.582031 9.933594 50.582031 9.984375 50.578125 10.039062 C 50.578125 10.046875 50.578125 10.054688 50.578125 10.0625 L 49.613281 10.226562 C 49.851562 9.644531 49.683594 8.921875 49.4375 8.441406 C 49.410156 8.390625 49.347656 8.371094 49.296875 8.398438 C 49.246094 8.425781 49.226562 8.488281 49.253906 8.542969 C 49.496094 9.015625 49.660156 9.746094 49.359375 10.269531 L 49.183594 10.300781 C 48.371094 10.417969 47.535156 10.546875 46.808594 10.785156 Z M 46.058594 13.503906 C 46.015625 13.511719 45.957031 13.515625 45.890625 13.527344 C 45.898438 12.886719 45.8125 12.421875 45.699219 11.953125 L 46.15625 11.886719 C 46.164062 11.890625 46.167969 11.894531 46.175781 11.894531 C 46.300781 11.894531 46.378906 11.945312 46.429688 12.054688 C 46.574219 12.371094 46.394531 13.0625 46.058594 13.503906 Z M 53.683594 17.257812 C 53.625 17.382812 53.386719 17.429688 53.132812 17.476562 L 53.019531 17.5 L 52.753906 17.5 C 52.554688 17.480469 52.3125 17.464844 52.046875 17.617188 L 51.9375 17.683594 C 51.5625 17.910156 50.785156 18.375 50.410156 18.058594 L 50.359375 18.015625 L 50.296875 18.042969 C 49.960938 18.210938 48.753906 18.726562 47.410156 18.359375 L 47.375 18.351562 L 47.339844 18.363281 C 46.714844 18.640625 46.257812 18.691406 46.015625 18.511719 C 45.824219 18.363281 45.757812 18.0625 45.8125 17.617188 C 45.835938 17.421875 45.90625 17.246094 46.082031 16.964844 L 46.167969 16.734375 L 46.132812 16.714844 C 45.640625 15.960938 45.875 15.269531 46.101562 14.597656 C 47.558594 14.53125 48.582031 14.214844 49.425781 13.644531 C 50.296875 13.859375 51.425781 13.828125 52.175781 13.5625 C 52.332031 13.757812 52.402344 13.925781 52.464844 14.105469 L 52.636719 14.492188 L 52.90625 14.890625 C 53.085938 15.132812 53.269531 15.382812 53.332031 15.671875 C 53.351562 15.765625 53.359375 15.84375 53.359375 15.921875 C 53.359375 15.984375 53.355469 16.042969 53.351562 16.097656 C 53.34375 16.148438 53.339844 16.195312 53.339844 16.246094 C 53.339844 16.394531 53.375 16.542969 53.542969 16.714844 C 53.648438 16.902344 53.703125 17.054688 53.703125 17.164062 C 53.699219 17.199219 53.695312 17.230469 53.683594 17.257812 Z M 53.683594 17.257812 "/>
<path style=" stroke:none;fill-rule:nonzero;fill:rgb(5.882353%,26.27451%,48.627451%);fill-opacity:1;" d="M 48.183594 8.609375 C 48.207031 8.664062 48.183594 8.726562 48.132812 8.75 C 47.917969 8.851562 47.738281 9.101562 47.6875 9.371094 C 47.636719 9.632812 47.703125 9.882812 47.878906 10.082031 C 47.914062 10.128906 47.914062 10.195312 47.871094 10.234375 C 47.828125 10.273438 47.761719 10.269531 47.722656 10.222656 C 47.503906 9.976562 47.417969 9.65625 47.480469 9.328125 C 47.550781 8.992188 47.769531 8.691406 48.042969 8.558594 C 48.09375 8.535156 48.15625 8.554688 48.183594 8.609375 "/>
<path style=" stroke:none;fill-rule:nonzero;fill:rgb(5.882353%,26.27451%,48.627451%);fill-opacity:1;" d="M 51.5 13.90625 C 51.554688 13.910156 51.601562 13.960938 51.597656 14.019531 C 51.589844 14.152344 51.757812 14.285156 51.953125 14.441406 C 52.292969 14.714844 52.757812 15.089844 52.5625 15.785156 C 52.546875 15.839844 52.488281 15.871094 52.433594 15.855469 C 52.378906 15.839844 52.347656 15.78125 52.363281 15.722656 C 52.523438 15.171875 52.167969 14.882812 51.824219 14.609375 C 51.59375 14.421875 51.378906 14.25 51.390625 14.003906 C 51.394531 13.949219 51.441406 13.902344 51.5 13.90625 "/>
<path style=" stroke:none;fill-rule:nonzero;fill:rgb(5.882353%,26.27451%,48.627451%);fill-opacity:1;" d="M 52.585938 16.226562 C 52.554688 16.363281 52.507812 16.394531 52.46875 16.40625 L 52.253906 16.402344 L 52.019531 16.390625 C 51.875 16.40625 51.726562 16.46875 51.617188 16.5625 L 51.253906 16.847656 L 51.167969 16.882812 C 51.015625 16.917969 50.863281 16.90625 50.707031 16.847656 C 50.652344 16.828125 50.59375 16.855469 50.570312 16.910156 C 50.550781 16.964844 50.582031 17.027344 50.636719 17.046875 C 50.832031 17.121094 51.019531 17.136719 51.214844 17.089844 L 51.378906 17.019531 L 51.742188 16.726562 C 51.828125 16.660156 51.9375 16.613281 52.042969 16.601562 L 52.226562 16.613281 L 52.53125 16.609375 C 52.722656 16.550781 52.773438 16.34375 52.789062 16.273438 C 52.800781 16.214844 52.765625 16.160156 52.710938 16.144531 C 52.652344 16.132812 52.597656 16.167969 52.585938 16.226562 M 51.617188 16.5625 Z M 51.617188 16.5625 "/>
<path style=" stroke:none;fill-rule:nonzero;fill:rgb(5.882353%,26.27451%,48.627451%);fill-opacity:1;" d="M 49.628906 14.320312 C 49.859375 14.679688 49.875 15.148438 49.679688 15.601562 C 49.636719 15.699219 49.679688 15.796875 49.832031 15.957031 C 49.832031 15.957031 49.882812 16.007812 49.875 16.054688 C 49.867188 16.097656 49.863281 16.140625 49.816406 16.144531 C 49.78125 16.144531 49.726562 16.148438 49.683594 16.105469 C 49.582031 16 49.375 15.777344 49.484375 15.515625 C 49.65625 15.128906 49.644531 14.734375 49.457031 14.433594 C 49.425781 14.382812 49.4375 14.316406 49.484375 14.285156 C 49.539062 14.253906 49.601562 14.269531 49.628906 14.320312 "/>
<path style=" stroke:none;fill-rule:nonzero;fill:rgb(5.882353%,26.27451%,48.627451%);fill-opacity:1;" d="M 47.46875 14.648438 C 47.667969 14.851562 47.601562 15.152344 47.429688 15.34375 L 47.171875 15.5625 C 46.941406 15.730469 46.804688 15.847656 46.867188 16.058594 C 46.882812 16.117188 46.851562 16.175781 46.796875 16.191406 C 46.738281 16.207031 46.683594 16.175781 46.667969 16.121094 C 46.5625 15.75 46.832031 15.550781 47.050781 15.390625 L 47.277344 15.199219 C 47.335938 15.132812 47.457031 14.933594 47.320312 14.796875 C 47.28125 14.757812 47.28125 14.691406 47.320312 14.648438 C 47.363281 14.605469 47.425781 14.605469 47.46875 14.648438 "/>
<path style=" stroke:none;fill-rule:nonzero;fill:rgb(5.882353%,26.27451%,48.627451%);fill-opacity:1;" d="M 46.96875 17.097656 C 47.0625 17.34375 47.316406 17.488281 47.550781 17.421875 L 47.84375 17.289062 L 48.15625 17.148438 C 48.277344 17.109375 48.390625 17.148438 48.488281 17.179688 C 48.566406 17.207031 48.636719 17.230469 48.691406 17.210938 L 48.777344 17.183594 L 48.773438 17.1875 C 48.777344 17.183594 48.917969 17.132812 48.953125 17.167969 C 49.050781 17.261719 48.90625 17.328125 48.949219 17.300781 L 48.785156 17.402344 L 48.761719 17.410156 C 48.636719 17.457031 48.523438 17.417969 48.421875 17.382812 C 48.34375 17.355469 48.273438 17.335938 48.214844 17.351562 L 47.941406 17.480469 C 47.941406 17.480469 47.605469 17.628906 47.601562 17.628906 C 47.265625 17.71875 46.902344 17.519531 46.777344 17.171875 C 46.753906 17.117188 46.78125 17.058594 46.835938 17.035156 C 46.890625 17.015625 46.949219 17.042969 46.96875 17.097656 "/>
<path style=" stroke:none;fill-rule:nonzero;fill:rgb(5.882353%,26.27451%,48.627451%);fill-opacity:1;" d="M 48.863281 6.277344 C 48.914062 6.300781 48.9375 6.367188 48.914062 6.417969 C 48.816406 6.648438 48.824219 6.957031 48.9375 7.226562 C 49.023438 7.4375 49.15625 7.585938 49.304688 7.644531 C 49.355469 7.664062 49.382812 7.722656 49.363281 7.78125 C 49.34375 7.835938 49.285156 7.863281 49.230469 7.84375 C 49.027344 7.765625 48.855469 7.574219 48.746094 7.3125 C 48.613281 6.988281 48.605469 6.613281 48.726562 6.332031 C 48.75 6.277344 48.808594 6.253906 48.863281 6.277344 "/>
<path style=" stroke:none;fill-rule:nonzero;fill:rgb(93.333333%,69.803922%,6.27451%);fill-opacity:1;" d="M 49.441406 10.472656 C 49.445312 10.472656 49.449219 10.472656 49.449219 10.472656 C 49.824219 10.40625 50.523438 10.289062 50.625 10.273438 C 50.628906 10.277344 50.632812 10.285156 50.636719 10.292969 C 50.6875 10.40625 50.765625 10.523438 50.851562 10.640625 C 50.59375 10.683594 49.570312 10.859375 49.570312 10.859375 C 49.324219 10.898438 49.078125 10.933594 48.832031 10.972656 C 48.476562 11.03125 48.285156 11.066406 48.214844 11.089844 C 47.839844 11.167969 47.476562 11.253906 47.136719 11.371094 C 47.023438 11.261719 46.890625 11.191406 46.738281 11.167969 C 46.753906 11.117188 46.761719 11.070312 46.773438 11.019531 C 47.503906 10.765625 48.371094 10.636719 49.214844 10.511719 C 49.214844 10.511719 49.304688 10.496094 49.441406 10.472656 "/>
<path style=" stroke:none;fill-rule:nonzero;fill:rgb(93.333333%,69.803922%,6.27451%);fill-opacity:1;" d="M 52.015625 13.382812 C 51.355469 13.589844 50.441406 13.625 49.664062 13.472656 C 49.6875 13.457031 49.710938 13.433594 49.734375 13.417969 C 49.761719 13.394531 49.792969 13.371094 49.824219 13.347656 C 49.914062 13.277344 50.007812 13.199219 50.082031 13.128906 C 50.488281 13.214844 51.3125 13.152344 51.71875 13.007812 C 51.800781 13.128906 51.894531 13.25 52.003906 13.367188 C 52.011719 13.375 52.015625 13.378906 52.015625 13.382812 "/>
<path style=" stroke:none;fill-rule:nonzero;fill:rgb(93.333333%,69.803922%,6.27451%);fill-opacity:1;" d="M 44.488281 12.125 C 44.558594 12.117188 44.640625 12.109375 44.703125 12.101562 C 44.714844 12.164062 44.75 12.3125 44.777344 12.417969 C 44.785156 12.449219 44.789062 12.488281 44.800781 12.519531 C 44.726562 12.613281 43.851562 13.773438 43.804688 13.835938 C 43.734375 13.84375 43.230469 13.917969 43.152344 13.929688 C 43.085938 13.867188 42.210938 13.042969 42.140625 12.980469 C 42.109375 12.808594 42.074219 12.644531 42.039062 12.484375 C 42.160156 12.464844 42.359375 12.433594 42.421875 12.425781 C 42.488281 12.488281 43.410156 13.328125 43.410156 13.328125 C 43.429688 13.347656 43.457031 13.355469 43.488281 13.351562 C 43.519531 13.347656 43.542969 13.332031 43.5625 13.308594 C 43.5625 13.308594 44.316406 12.207031 44.359375 12.144531 "/>
<path style=" stroke:none;fill-rule:nonzero;fill:rgb(93.333333%,69.803922%,6.27451%);fill-opacity:1;" d="M 41.824219 12.507812 L 41.925781 12.976562 C 41.980469 13.269531 42.015625 13.585938 42.015625 13.964844 C 42.015625 14.007812 42.015625 14.054688 42.015625 14.097656 C 41.902344 14.113281 41.585938 14.164062 41.4375 14.1875 C 41.4375 14.152344 41.441406 14.117188 41.441406 14.082031 C 41.441406 13.742188 41.410156 13.453125 41.367188 13.1875 C 41.363281 13.144531 41.351562 13.070312 41.335938 12.992188 C 41.324219 12.933594 41.3125 12.878906 41.300781 12.824219 C 41.28125 12.738281 41.265625 12.65625 41.25 12.589844 C 41.300781 12.582031 41.371094 12.574219 41.449219 12.5625 "/>
<path style=" stroke:none;fill-rule:nonzero;fill:rgb(93.333333%,69.803922%,6.27451%);fill-opacity:1;" d="M 38.839844 12.9375 C 38.980469 12.917969 39.292969 12.875 39.414062 12.855469 C 39.507812 13.246094 39.59375 13.675781 39.605469 14.230469 L 39.605469 14.457031 C 39.488281 14.472656 39.171875 14.519531 39.023438 14.539062 C 39.023438 14.5 39.023438 14.464844 39.023438 14.429688 C 39.023438 13.808594 38.9375 13.351562 38.839844 12.9375 "/>
<path style=" stroke:none;fill-rule:nonzero;fill:rgb(93.333333%,69.803922%,6.27451%);fill-opacity:1;" d="M 39.8125 14.429688 C 39.8125 14.332031 39.8125 14.238281 39.8125 14.152344 C 39.8125 14.105469 39.8125 14.070312 39.8125 14.050781 C 39.847656 13.996094 40.777344 12.722656 40.824219 12.652344 C 40.875 12.644531 40.957031 12.636719 41.039062 12.625 C 41.066406 12.742188 41.132812 13.078125 41.152344 13.15625 C 41.097656 13.238281 40.34375 14.289062 40.296875 14.355469 C 40.257812 14.359375 40.125 14.378906 39.996094 14.402344 C 39.9375 14.410156 39.875 14.417969 39.8125 14.429688 "/>
<path style=" stroke:none;fill-rule:nonzero;fill:rgb(93.333333%,69.803922%,6.27451%);fill-opacity:1;" d="M 45.105469 13.644531 C 45.105469 13.613281 45.105469 13.578125 45.105469 13.546875 C 45.105469 13.144531 45.066406 12.824219 45.015625 12.546875 C 45.015625 12.535156 45.015625 12.527344 45.015625 12.515625 C 44.96875 12.292969 44.9375 12.160156 44.914062 12.074219 C 45.058594 12.050781 45.367188 12.007812 45.492188 11.988281 C 45.597656 12.425781 45.6875 12.855469 45.6875 13.433594 C 45.6875 13.472656 45.683594 13.515625 45.683594 13.558594 C 45.523438 13.582031 45.328125 13.613281 45.105469 13.644531 "/>
<path style=" stroke:none;fill-rule:nonzero;fill:rgb(93.333333%,69.803922%,6.27451%);fill-opacity:1;" d="M 50.582031 12.609375 C 50.59375 12.597656 50.605469 12.582031 50.621094 12.566406 C 50.699219 12.480469 50.796875 12.367188 50.84375 12.316406 C 51.011719 12.398438 51.203125 12.441406 51.410156 12.433594 C 51.4375 12.496094 51.464844 12.558594 51.492188 12.621094 C 51.515625 12.671875 51.539062 12.71875 51.566406 12.765625 C 51.570312 12.769531 51.574219 12.777344 51.578125 12.785156 C 51.582031 12.789062 51.585938 12.796875 51.585938 12.800781 C 51.273438 12.855469 50.875 12.847656 50.515625 12.683594 C 50.527344 12.671875 50.550781 12.644531 50.582031 12.609375 "/>
<path style=" stroke:none;fill-rule:nonzero;fill:rgb(93.333333%,69.803922%,6.27451%);fill-opacity:1;" d="M 48.421875 13.097656 C 48.277344 13.074219 48.128906 13.015625 47.972656 12.949219 C 47.796875 12.878906 47.613281 12.8125 47.417969 12.78125 C 47.453125 12.632812 47.46875 12.496094 47.46875 12.359375 C 47.9375 12.421875 48.484375 12.605469 48.894531 12.75 C 48.894531 12.75 48.953125 12.765625 49.003906 12.785156 C 48.824219 12.894531 48.632812 13 48.433594 13.09375 C 48.433594 13.09375 48.425781 13.097656 48.421875 13.097656 "/>
<path style=" stroke:none;fill-rule:nonzero;fill:rgb(93.333333%,69.803922%,6.27451%);fill-opacity:1;" d="M 49.707031 12.257812 C 49.417969 12.074219 48.875 11.652344 48.457031 11.253906 C 48.566406 11.234375 48.675781 11.214844 48.785156 11.199219 C 48.875 11.183594 48.976562 11.167969 49.089844 11.152344 C 49.308594 11.390625 49.746094 11.742188 50.058594 11.921875 C 49.949219 12.027344 49.769531 12.203125 49.769531 12.203125 C 49.769531 12.203125 49.746094 12.222656 49.722656 12.246094 C 49.71875 12.25 49.714844 12.253906 49.707031 12.257812 "/>
<path style=" stroke:none;fill-rule:nonzero;fill:rgb(93.333333%,69.803922%,6.27451%);fill-opacity:1;" d="M 46.675781 11.378906 C 46.820312 11.394531 46.953125 11.460938 47.054688 11.585938 L 47.058594 11.59375 C 47.089844 11.632812 47.121094 11.679688 47.148438 11.730469 C 47.222656 11.882812 47.261719 12.078125 47.265625 12.292969 C 47.265625 12.300781 47.265625 12.304688 47.265625 12.3125 C 47.265625 12.394531 47.257812 12.484375 47.242188 12.574219 C 47.242188 12.585938 47.238281 12.597656 47.238281 12.609375 C 47.183594 12.902344 47.058594 13.226562 46.832031 13.542969 C 46.789062 13.550781 46.742188 13.558594 46.699219 13.5625 C 46.691406 13.5625 46.683594 13.5625 46.675781 13.5625 C 46.5625 13.574219 46.449219 13.578125 46.332031 13.582031 L 46.332031 13.460938 L 46.328125 13.464844 C 46.535156 13.128906 46.6875 12.703125 46.6875 12.339844 C 46.6875 12.199219 46.667969 12.070312 46.617188 11.960938 C 46.574219 11.875 46.515625 11.804688 46.445312 11.757812 C 46.539062 11.660156 46.613281 11.535156 46.675781 11.378906 "/>
<path style=" stroke:none;fill-rule:nonzero;fill:rgb(93.333333%,69.803922%,6.27451%);fill-opacity:1;" d="M 46.238281 14.160156 C 46.273438 14.039062 46.300781 13.917969 46.316406 13.800781 C 46.316406 13.800781 46.316406 13.796875 46.316406 13.796875 C 46.464844 13.792969 46.742188 13.78125 46.917969 13.75 C 46.921875 13.75 46.925781 13.742188 46.933594 13.738281 C 47.5 13.667969 48.007812 13.515625 48.460938 13.3125 C 48.601562 13.269531 49.054688 13.023438 49.304688 12.839844 C 49.304688 12.839844 49.304688 12.835938 49.304688 12.835938 C 49.46875 12.722656 49.625 12.601562 49.769531 12.480469 C 49.777344 12.476562 49.785156 12.476562 49.792969 12.46875 L 49.90625 12.363281 L 49.917969 12.351562 C 50.398438 11.921875 50.785156 11.453125 51.097656 11.019531 C 51.132812 11.070312 51.167969 11.125 51.1875 11.183594 C 51.195312 11.214844 51.207031 11.246094 51.207031 11.273438 C 51.207031 11.28125 51.207031 11.433594 51.207031 11.488281 C 51.203125 11.496094 51.195312 11.503906 51.195312 11.503906 C 49.890625 13.296875 48.730469 14.238281 46.179688 14.375 C 46.199219 14.308594 46.21875 14.238281 46.238281 14.160156 "/>
<path style=" stroke:none;fill-rule:nonzero;fill:rgb(93.333333%,69.803922%,6.27451%);fill-opacity:1;" d="M 24.402344 14.992188 C 24.539062 15.09375 24.65625 15.34375 24.710938 15.660156 C 24.730469 15.777344 24.738281 15.898438 24.738281 16.011719 C 24.738281 16.285156 24.679688 16.519531 24.582031 16.660156 C 24.511719 16.671875 24.191406 16.722656 23.980469 16.753906 C 24.058594 16.566406 24.109375 16.355469 24.109375 16.140625 C 24.109375 16.003906 24.097656 15.875 24.078125 15.757812 C 24.027344 15.460938 23.921875 15.246094 23.792969 15.085938 C 23.996094 15.054688 24.328125 15.003906 24.402344 14.992188 "/>
<path style=" stroke:none;fill-rule:nonzero;fill:rgb(5.882353%,26.27451%,48.627451%);fill-opacity:1;" d="M 46.695312 1.050781 L 46.410156 1.050781 L 46.410156 1.84375 L 46.21875 1.84375 L 46.21875 1.050781 L 45.933594 1.050781 L 45.933594 0.882812 L 46.695312 0.882812 M 47.980469 1.84375 L 47.789062 1.84375 L 47.789062 1.078125 L 47.785156 1.078125 L 47.511719 1.84375 L 47.328125 1.84375 L 47.0625 1.078125 L 47.058594 1.078125 L 47.058594 1.84375 L 46.867188 1.84375 L 46.867188 0.882812 L 47.199219 0.882812 L 47.417969 1.511719 L 47.421875 1.511719 L 47.648438 0.882812 L 47.980469 0.882812 Z M 47.980469 1.84375 "/>
</g>
</svg>
