<?xml version="1.0" encoding="UTF-8"?>
<svg xmlns="http://www.w3.org/2000/svg" xmlns:xlink="http://www.w3.org/1999/xlink" width="25pt" height="20pt" viewBox="0 0 25 20" version="1.1">
<g id="surface1">
<path style=" stroke:none;fill-rule:nonzero;fill:rgb(6.27451%,3.921569%,2.745098%);fill-opacity:1;" d="M 14.179688 0.0390625 C 14.40625 0.00390625 14.644531 -0.0273438 14.871094 0.0429688 C 15.089844 0.117188 15.269531 0.273438 15.429688 0.433594 C 15.832031 0.53125 16.296875 0.453125 16.648438 0.707031 C 16.277344 0.867188 15.882812 0.984375 15.542969 1.199219 C 15.507812 1.578125 15.1875 1.835938 14.980469 2.125 C 14.886719 2.238281 14.90625 2.390625 14.890625 2.523438 C 14.898438 2.808594 14.9375 3.09375 14.902344 3.378906 C 14.875 3.628906 14.789062 3.867188 14.710938 4.105469 C 14.570312 4.527344 14.335938 4.925781 13.996094 5.226562 C 13.441406 5.722656 12.710938 5.957031 11.992188 6.09375 C 11.648438 6.164062 11.296875 6.195312 10.949219 6.234375 C 10.765625 6.246094 10.582031 6.347656 10.492188 6.507812 C 10.464844 6.613281 10.570312 6.660156 10.644531 6.707031 C 11.0625 6.941406 11.507812 7.136719 11.871094 7.453125 C 11.949219 7.527344 12.050781 7.605469 12.054688 7.722656 C 12.058594 7.804688 12.085938 7.882812 12.085938 7.960938 C 12.003906 8.136719 11.871094 8.292969 11.691406 8.367188 C 11.625 8.496094 11.558594 8.625 11.5 8.757812 L 11.59375 8.804688 C 11.273438 9.609375 10.992188 10.425781 10.710938 11.242188 C 10.539062 11.753906 10.367188 12.261719 10.222656 12.78125 C 10.195312 12.886719 10.160156 13 10.195312 13.105469 C 10.308594 13.207031 10.476562 13.117188 10.582031 13.042969 C 10.765625 12.898438 10.9375 12.726562 11.0625 12.523438 C 10.992188 11.871094 11.089844 11.195312 11.363281 10.59375 C 11.449219 10.40625 11.511719 10.207031 11.605469 10.023438 C 11.660156 9.914062 11.730469 9.808594 11.742188 9.6875 C 11.773438 9.445312 11.878906 9.222656 11.984375 9.007812 C 12.292969 8.25 13.289062 7.84375 14.027344 8.222656 C 14.355469 8.371094 14.589844 8.671875 14.71875 9 C 14.828125 9.246094 14.890625 9.511719 14.921875 9.777344 C 15.003906 9.71875 15.125 9.679688 15.136719 9.566406 C 15.269531 9.042969 15.429688 8.523438 15.648438 8.03125 C 15.945312 7.285156 16.308594 6.558594 16.8125 5.929688 C 17.089844 5.589844 17.421875 5.257812 17.851562 5.136719 C 18.066406 5.109375 18.3125 5.089844 18.488281 5.238281 C 18.730469 5.433594 18.828125 5.757812 18.808594 6.0625 C 18.785156 6.699219 18.554688 7.308594 18.304688 7.890625 C 18.03125 8.523438 17.632812 9.105469 17.152344 9.597656 C 16.933594 9.835938 16.683594 10.039062 16.441406 10.253906 C 16.390625 10.484375 16.367188 10.726562 16.398438 10.960938 C 16.40625 11.054688 16.488281 11.15625 16.59375 11.121094 C 16.878906 11.042969 17.089844 10.824219 17.285156 10.617188 C 17.417969 10.460938 17.558594 10.3125 17.671875 10.140625 C 17.6875 9.816406 17.738281 9.496094 17.839844 9.1875 C 17.917969 8.921875 18.046875 8.675781 18.144531 8.414062 C 18.378906 7.84375 18.75 7.292969 19.300781 6.984375 C 19.535156 6.859375 19.8125 6.757812 20.082031 6.820312 C 20.429688 6.882812 20.722656 7.15625 20.832031 7.488281 C 20.914062 7.714844 20.894531 7.960938 20.878906 8.195312 C 20.765625 8.738281 20.546875 9.273438 20.179688 9.695312 C 19.992188 9.921875 19.753906 10.09375 19.527344 10.273438 C 19.820312 10.292969 20.050781 10.082031 20.21875 9.871094 C 20.484375 9.535156 20.671875 9.152344 20.867188 8.777344 C 21.046875 8.421875 21.226562 8.070312 21.390625 7.710938 C 21.558594 7.332031 21.722656 6.945312 21.953125 6.597656 C 22.015625 6.507812 22.082031 6.394531 22.203125 6.378906 C 22.605469 6.292969 22.996094 6.167969 23.402344 6.097656 C 23.34375 6.355469 23.21875 6.636719 23.339844 6.898438 C 23.605469 7.4375 23.9375 7.960938 24.046875 8.5625 C 24.402344 8.695312 24.734375 8.933594 24.898438 9.28125 C 25.039062 9.585938 25.007812 9.9375 24.929688 10.253906 C 24.808594 10.867188 24.367188 11.359375 23.867188 11.707031 C 23.589844 11.902344 23.28125 12.042969 22.964844 12.167969 C 21.5625 12.742188 20.152344 13.300781 18.746094 13.871094 C 16.011719 14.980469 13.277344 16.097656 10.554688 17.238281 C 9.976562 17.476562 9.402344 17.726562 8.839844 18 C 7.71875 18.535156 6.558594 19.078125 5.703125 20.003906 C 5.417969 19.804688 5.117188 19.613281 4.785156 19.492188 C 4.101562 19.238281 3.363281 19.179688 2.636719 19.132812 C 2.535156 19.117188 2.390625 19.164062 2.335938 19.042969 C 2.25 18.90625 2.128906 18.789062 2.0625 18.640625 C 2.101562 18.511719 2.164062 18.390625 2.214844 18.261719 C 2.234375 18.191406 2.316406 18.179688 2.375 18.15625 C 8.695312 15.890625 15.023438 13.660156 21.339844 11.390625 C 21.84375 11.207031 22.351562 11.03125 22.851562 10.828125 C 23.21875 10.675781 23.570312 10.480469 23.863281 10.207031 C 24.015625 10.085938 23.84375 9.894531 23.742188 9.800781 C 23.546875 10.300781 23.109375 10.707031 22.582031 10.824219 C 22.230469 10.921875 21.835938 10.851562 21.558594 10.609375 C 21.394531 10.476562 21.316406 10.277344 21.253906 10.082031 C 20.992188 10.566406 20.664062 11.03125 20.234375 11.386719 C 19.917969 11.648438 19.515625 11.828125 19.09375 11.804688 C 18.683594 11.808594 18.28125 11.628906 18.019531 11.308594 C 17.667969 11.8125 17.222656 12.253906 16.707031 12.589844 C 16.402344 12.78125 16.054688 12.953125 15.6875 12.921875 C 15.328125 12.910156 15.027344 12.648438 14.890625 12.328125 C 14.734375 11.957031 14.828125 11.542969 14.824219 11.152344 C 14.746094 11.46875 14.65625 11.777344 14.515625 12.070312 C 14.398438 12.386719 14.25 12.695312 14.0625 12.980469 C 13.75 13.496094 13.21875 13.890625 12.621094 13.992188 C 12.359375 14.027344 12.085938 14.019531 11.847656 13.902344 C 11.683594 13.824219 11.550781 13.699219 11.425781 13.566406 C 11.074219 14.070312 10.617188 14.519531 10.058594 14.796875 C 9.726562 14.960938 9.324219 15.050781 8.964844 14.902344 C 8.828125 14.851562 8.730469 14.734375 8.640625 14.617188 C 8.382812 14.9375 8.078125 15.214844 7.742188 15.449219 C 7.535156 15.601562 7.289062 15.710938 7.027344 15.714844 C 6.859375 15.71875 6.675781 15.730469 6.519531 15.644531 C 6.285156 15.527344 6.128906 15.289062 6.070312 15.035156 C 5.976562 14.664062 6.03125 14.269531 6.121094 13.902344 C 6.214844 13.5 6.359375 13.109375 6.527344 12.734375 C 6.671875 12.351562 6.851562 11.984375 7.0625 11.632812 C 6.984375 11.625 6.90625 11.617188 6.828125 11.605469 C 6.601562 11.957031 6.261719 12.222656 5.894531 12.414062 C 5.863281 12.433594 5.816406 12.449219 5.816406 12.496094 C 5.714844 13.140625 5.523438 13.773438 5.257812 14.371094 C 4.949219 15.167969 4.527344 15.945312 3.886719 16.53125 C 3.453125 16.929688 2.886719 17.207031 2.292969 17.203125 C 1.65625 17.222656 1.035156 16.898438 0.664062 16.390625 C 0.285156 15.863281 0.0976562 15.226562 0.03125 14.589844 C -0.0625 13.660156 0.0507812 12.710938 0.382812 11.839844 C 0.445312 11.667969 0.527344 11.503906 0.589844 11.335938 C 0.832031 10.71875 1.179688 10.136719 1.617188 9.640625 C 1.699219 9.476562 1.742188 9.300781 1.828125 9.140625 C 1.976562 8.675781 2.265625 8.246094 2.679688 7.976562 C 3.179688 7.632812 3.847656 7.578125 4.414062 7.78125 C 4.890625 7.9375 5.257812 8.320312 5.472656 8.765625 C 5.832031 9.488281 5.902344 10.308594 5.902344 11.101562 C 5.996094 11.054688 6.09375 10.996094 6.144531 10.898438 C 6.230469 10.613281 6.3125 10.324219 6.417969 10.046875 C 6.472656 9.910156 6.613281 9.824219 6.753906 9.820312 C 6.964844 9.808594 7.160156 9.890625 7.367188 9.902344 C 7.667969 9.9375 7.992188 9.875 8.230469 9.675781 C 8.332031 9.597656 8.460938 9.523438 8.59375 9.554688 C 8.753906 9.585938 8.8125 9.757812 8.910156 9.863281 C 9.015625 10.011719 9.175781 10.117188 9.25 10.28125 C 9.339844 10.582031 9.1875 10.894531 9 11.125 C 8.585938 11.554688 8.261719 12.066406 7.988281 12.59375 C 7.867188 12.824219 7.792969 13.078125 7.742188 13.332031 C 7.710938 13.511719 7.683594 13.699219 7.726562 13.882812 C 7.898438 13.878906 8.023438 13.738281 8.152344 13.640625 C 8.363281 13.445312 8.578125 13.242188 8.722656 12.992188 C 9.097656 11.945312 9.429688 10.882812 9.828125 9.84375 C 9.898438 9.65625 9.992188 9.476562 10.054688 9.285156 C 10.011719 9.132812 9.949219 8.980469 9.976562 8.820312 C 9.988281 8.585938 10.15625 8.398438 10.207031 8.175781 C 10.296875 7.910156 10.488281 7.679688 10.738281 7.550781 C 10.804688 7.519531 10.859375 7.472656 10.914062 7.421875 C 10.890625 7.378906 10.871094 7.328125 10.824219 7.308594 C 10.492188 7.117188 10.144531 6.949219 9.820312 6.746094 C 9.726562 6.6875 9.632812 6.601562 9.609375 6.488281 C 9.582031 6.371094 9.613281 6.253906 9.644531 6.144531 C 9.097656 6.082031 8.558594 6.003906 8.019531 5.917969 C 7.566406 5.949219 7.109375 5.949219 6.652344 5.9375 C 6.511719 5.925781 6.363281 5.914062 6.246094 5.828125 C 6.285156 5.664062 6.414062 5.542969 6.535156 5.433594 C 6.769531 5.242188 7.046875 5.113281 7.339844 5.039062 C 7.121094 4.929688 6.886719 4.863281 6.664062 4.769531 C 6.570312 4.738281 6.484375 4.679688 6.382812 4.6875 C 5.734375 4.714844 5.085938 4.792969 4.4375 4.832031 C 4.144531 4.867188 3.847656 4.867188 3.550781 4.855469 C 3.277344 4.835938 2.996094 4.769531 2.78125 4.59375 C 2.664062 4.574219 2.546875 4.566406 2.4375 4.519531 C 2.308594 4.464844 2.152344 4.46875 2.039062 4.378906 C 1.902344 4.265625 1.710938 4.253906 1.59375 4.121094 L 1.597656 4.058594 C 1.757812 3.957031 1.957031 3.972656 2.140625 3.953125 C 2.140625 3.90625 2.144531 3.863281 2.144531 3.816406 C 2.210938 3.800781 2.277344 3.789062 2.339844 3.761719 C 2.417969 3.714844 2.480469 3.648438 2.5625 3.613281 C 2.671875 3.566406 2.777344 3.484375 2.902344 3.496094 C 3.792969 3.5625 4.671875 3.738281 5.5625 3.8125 C 5.886719 3.867188 6.214844 3.792969 6.53125 3.71875 C 6.820312 3.640625 7.113281 3.574219 7.394531 3.464844 C 7.636719 3.367188 7.855469 3.21875 8.089844 3.101562 C 8.398438 2.945312 8.714844 2.816406 9.035156 2.691406 C 9.671875 2.410156 10.3125 2.132812 10.980469 1.941406 C 11.207031 1.871094 11.457031 1.847656 11.644531 1.691406 C 11.867188 1.503906 12.117188 1.347656 12.324219 1.144531 C 12.605469 0.867188 12.859375 0.554688 13.203125 0.351562 C 13.496094 0.171875 13.84375 0.101562 14.179688 0.0390625 Z M 14.179688 0.0390625 "/>
<path style=" stroke:none;fill-rule:nonzero;fill:rgb(99.215686%,99.215686%,99.215686%);fill-opacity:1;" d="M 15.179688 0.425781 C 15.300781 0.476562 15.414062 0.558594 15.546875 0.554688 C 15.851562 0.5625 16.152344 0.601562 16.449219 0.664062 C 15.980469 0.730469 15.515625 0.824219 15.066406 0.984375 C 15.128906 0.882812 15.207031 0.792969 15.269531 0.6875 C 15.269531 0.59375 15.210938 0.515625 15.179688 0.425781 Z M 14.070312 0.769531 C 14.121094 0.65625 14.222656 0.542969 14.355469 0.558594 C 14.519531 0.539062 14.648438 0.652344 14.765625 0.746094 L 14.644531 0.742188 C 14.566406 0.636719 14.4375 0.546875 14.296875 0.585938 C 14.09375 0.617188 14.070312 0.925781 14.234375 1.019531 C 14.34375 1.085938 14.464844 1.007812 14.570312 0.96875 C 14.484375 1.03125 14.382812 1.105469 14.273438 1.070312 C 14.15625 1.023438 14.039062 0.902344 14.070312 0.769531 Z M 14.070312 0.769531 "/>
<path style=" stroke:none;fill-rule:nonzero;fill:rgb(6.27451%,3.921569%,2.745098%);fill-opacity:1;" d="M 15.292969 0.648438 C 15.402344 0.589844 15.53125 0.613281 15.652344 0.617188 C 15.554688 0.707031 15.414062 0.71875 15.289062 0.75 C 15.289062 0.722656 15.289062 0.675781 15.292969 0.648438 Z M 15.292969 0.648438 "/>
<path style=" stroke:none;fill-rule:nonzero;fill:rgb(99.215686%,99.215686%,99.215686%);fill-opacity:1;" d="M 14.402344 0.699219 C 14.460938 0.660156 14.53125 0.785156 14.464844 0.808594 C 14.414062 0.804688 14.382812 0.738281 14.402344 0.699219 Z M 15.136719 1.078125 C 15.519531 0.988281 15.890625 0.867188 16.269531 0.769531 C 15.9375 0.886719 15.609375 1.019531 15.320312 1.226562 C 15.324219 1.175781 15.328125 1.121094 15.332031 1.070312 C 15.269531 1.074219 15.203125 1.078125 15.136719 1.078125 Z M 15.136719 1.078125 "/>
<path style=" stroke:none;fill-rule:nonzero;fill:rgb(92.941176%,29.803922%,3.529412%);fill-opacity:1;" d="M 13.105469 2.449219 C 12.996094 2.359375 13.035156 2.199219 13.066406 2.082031 C 13.128906 2.1875 13.175781 2.304688 13.269531 2.386719 C 13.476562 2.554688 13.734375 2.628906 13.984375 2.71875 C 13.910156 2.738281 13.839844 2.757812 13.765625 2.777344 C 13.992188 2.933594 14.226562 3.074219 14.421875 3.261719 C 14.332031 3.261719 14.238281 3.257812 14.148438 3.265625 C 14.222656 3.335938 14.320312 3.382812 14.421875 3.398438 C 14.632812 3.269531 14.761719 3.035156 14.789062 2.789062 C 14.886719 3.078125 14.851562 3.394531 14.769531 3.679688 C 14.664062 4.027344 14.546875 4.378906 14.332031 4.675781 C 13.984375 5.203125 13.449219 5.59375 12.847656 5.785156 C 12.3125 5.953125 11.757812 6.035156 11.207031 6.105469 C 10.878906 6.140625 10.53125 6.167969 10.25 6.351562 C 10.140625 6.417969 10.109375 6.542969 10.085938 6.65625 C 9.996094 6.660156 9.890625 6.714844 9.816406 6.648438 C 9.738281 6.589844 9.683594 6.5 9.671875 6.402344 C 9.671875 6.292969 9.71875 6.1875 9.75 6.085938 C 9.519531 6.058594 9.292969 6.015625 9.070312 5.964844 L 9.042969 5.914062 C 9.394531 5.824219 9.753906 5.765625 10.101562 5.679688 C 10.726562 5.542969 11.359375 5.410156 11.953125 5.167969 C 12.109375 5.105469 12.261719 5.027344 12.386719 4.910156 C 12.523438 4.785156 12.714844 4.726562 12.84375 4.585938 C 12.980469 4.460938 13.03125 4.261719 13.199219 4.164062 C 13.410156 4.023438 13.570312 3.820312 13.699219 3.605469 C 13.488281 3.804688 13.296875 4.039062 13.015625 4.144531 C 12.925781 4.1875 12.820312 4.175781 12.726562 4.167969 C 12.890625 3.96875 13.109375 3.8125 13.238281 3.582031 C 12.960938 3.804688 12.683594 4.132812 12.292969 4.101562 C 12.207031 4.050781 12.105469 4.058594 12.015625 4.035156 C 12.113281 4.035156 12.222656 4.050781 12.308594 3.992188 C 12.523438 3.871094 12.699219 3.699219 12.867188 3.519531 C 12.648438 3.675781 12.4375 3.859375 12.175781 3.933594 C 12.082031 3.960938 11.988281 3.933594 11.902344 3.898438 C 12.09375 3.757812 12.292969 3.625 12.445312 3.441406 C 12.25 3.574219 12.0625 3.726562 11.828125 3.789062 C 11.753906 3.8125 11.683594 3.769531 11.613281 3.75 C 11.78125 3.628906 11.96875 3.527344 12.109375 3.375 C 11.953125 3.46875 11.804688 3.578125 11.625 3.625 C 11.523438 3.652344 11.414062 3.621094 11.3125 3.597656 C 11.371094 3.417969 11.539062 3.292969 11.714844 3.234375 C 11.964844 3.226562 12.183594 3.09375 12.429688 3.066406 C 12.421875 3.101562 12.417969 3.132812 12.414062 3.167969 C 12.75 3.074219 13.117188 3.085938 13.441406 3.230469 C 13.289062 3.078125 13.085938 3.003906 12.886719 2.933594 C 12.777344 2.890625 12.664062 2.921875 12.554688 2.890625 C 12.457031 2.871094 12.359375 2.832031 12.261719 2.847656 C 12.132812 2.871094 12 2.84375 11.871094 2.851562 C 11.808594 2.867188 11.757812 2.90625 11.695312 2.921875 C 11.570312 2.929688 11.441406 2.90625 11.316406 2.886719 C 11.59375 2.695312 11.945312 2.707031 12.269531 2.703125 L 12.265625 2.601562 C 12.464844 2.632812 12.660156 2.675781 12.851562 2.730469 C 12.816406 2.691406 12.78125 2.652344 12.746094 2.609375 C 13.011719 2.648438 13.261719 2.757812 13.507812 2.859375 C 13.402344 2.695312 13.25 2.574219 13.105469 2.449219 Z M 8.09375 3.214844 C 8.5625 2.949219 9.085938 2.792969 9.617188 2.71875 C 9.625 2.796875 9.632812 2.875 9.636719 2.949219 C 9.832031 2.984375 10.046875 2.992188 10.210938 3.121094 C 9.636719 3.277344 9.054688 3.464844 8.574219 3.828125 C 8.445312 3.925781 8.347656 4.058594 8.210938 4.148438 C 8.097656 4.222656 7.980469 4.300781 7.898438 4.410156 C 7.773438 4.59375 7.585938 4.714844 7.4375 4.875 C 7.21875 4.785156 7 4.695312 6.789062 4.59375 C 6.9375 4.578125 7.089844 4.558594 7.238281 4.535156 C 7.015625 4.445312 6.773438 4.460938 6.546875 4.390625 C 6.625 4.378906 6.703125 4.371094 6.78125 4.359375 C 6.546875 4.253906 6.277344 4.269531 6.035156 4.1875 C 6.113281 4.179688 6.1875 4.175781 6.261719 4.167969 L 6.261719 4.117188 C 6.152344 4.113281 6.042969 4.105469 5.933594 4.101562 C 5.996094 4.085938 6.0625 4.066406 6.125 4.046875 C 6.03125 3.996094 5.933594 3.964844 5.835938 3.929688 C 6.105469 3.886719 6.378906 3.882812 6.640625 3.804688 C 6.929688 3.722656 7.222656 3.65625 7.496094 3.539062 C 7.707031 3.453125 7.898438 3.324219 8.09375 3.214844 Z M 8.09375 3.214844 "/>
<path style=" stroke:none;fill-rule:nonzero;fill:rgb(99.215686%,99.215686%,99.215686%);fill-opacity:1;" d="M 11.625 3.625 C 11.804688 3.578125 11.953125 3.46875 12.109375 3.375 C 11.96875 3.527344 11.78125 3.628906 11.613281 3.75 C 11.683594 3.769531 11.753906 3.8125 11.828125 3.789062 C 12.0625 3.726562 12.25 3.574219 12.445312 3.441406 C 12.292969 3.625 12.09375 3.757812 11.902344 3.898438 C 11.988281 3.933594 12.082031 3.960938 12.175781 3.933594 C 12.4375 3.859375 12.648438 3.675781 12.867188 3.519531 C 12.699219 3.699219 12.523438 3.871094 12.308594 3.992188 C 12.222656 4.050781 12.113281 4.035156 12.015625 4.035156 C 11.957031 4.007812 11.929688 3.945312 11.878906 3.902344 C 11.816406 3.882812 11.753906 3.878906 11.691406 3.859375 C 11.648438 3.828125 11.621094 3.777344 11.589844 3.734375 C 11.472656 3.75 11.375 3.695312 11.3125 3.597656 C 11.414062 3.621094 11.523438 3.652344 11.625 3.625 Z M 12.292969 4.101562 C 12.683594 4.132812 12.960938 3.804688 13.238281 3.582031 C 13.109375 3.8125 12.890625 3.96875 12.726562 4.167969 C 12.820312 4.175781 12.925781 4.1875 13.015625 4.144531 C 13.296875 4.039062 13.488281 3.804688 13.699219 3.605469 C 13.570312 3.820312 13.410156 4.023438 13.199219 4.164062 C 13.03125 4.261719 12.980469 4.460938 12.84375 4.585938 C 12.714844 4.726562 12.523438 4.785156 12.386719 4.910156 C 12.261719 5.027344 12.109375 5.105469 11.953125 5.167969 C 11.359375 5.410156 10.726562 5.542969 10.101562 5.679688 C 10.664062 5.542969 11.222656 5.371094 11.75 5.132812 C 11.945312 5.039062 12.148438 4.949219 12.285156 4.773438 C 12.328125 4.707031 12.410156 4.695312 12.476562 4.664062 C 12.664062 4.589844 12.828125 4.453125 12.914062 4.265625 C 12.800781 4.238281 12.695312 4.132812 12.574219 4.183594 C 12.472656 4.226562 12.351562 4.195312 12.292969 4.101562 Z M 9.617188 3.914062 C 9.765625 3.742188 9.996094 3.695312 10.203125 3.632812 C 10.066406 3.695312 9.933594 3.765625 9.816406 3.859375 C 9.929688 3.929688 10.070312 3.90625 10.199219 3.910156 C 10.34375 3.902344 10.5 3.921875 10.628906 3.847656 C 10.667969 3.816406 10.710938 3.832031 10.734375 3.867188 C 10.570312 3.867188 10.421875 3.949219 10.261719 3.964844 C 10.046875 3.957031 9.828125 3.988281 9.617188 3.914062 Z M 9.617188 3.914062 "/>
<path style=" stroke:none;fill-rule:nonzero;fill:rgb(92.941176%,29.803922%,3.529412%);fill-opacity:1;" d="M 2.449219 3.859375 C 2.714844 3.800781 2.992188 3.863281 3.257812 3.871094 C 3.71875 3.917969 4.1875 3.917969 4.644531 4.003906 C 4.453125 3.976562 4.257812 3.964844 4.0625 3.964844 C 3.800781 3.933594 3.539062 3.945312 3.277344 3.914062 C 3.003906 3.890625 2.722656 3.910156 2.449219 3.859375 Z M 9.589844 3.910156 L 9.617188 3.914062 C 9.828125 3.988281 10.046875 3.957031 10.261719 3.964844 C 10.039062 3.992188 9.800781 3.992188 9.589844 3.910156 Z M 9.589844 3.910156 "/>
<path style=" stroke:none;fill-rule:nonzero;fill:rgb(99.215686%,99.215686%,99.215686%);fill-opacity:1;" d="M 8.824219 4.199219 C 8.90625 4.054688 9.074219 4.007812 9.214844 3.9375 C 9.164062 3.988281 9.117188 4.039062 9.074219 4.097656 C 9.265625 4.179688 9.480469 4.171875 9.6875 4.164062 C 9.855469 4.140625 10.023438 4.148438 10.1875 4.109375 C 10.117188 4.167969 10.050781 4.226562 9.992188 4.300781 C 10.429688 4.339844 10.875 4.265625 11.296875 4.148438 C 10.828125 4.378906 10.292969 4.40625 9.78125 4.363281 C 9.835938 4.304688 9.898438 4.253906 9.964844 4.203125 C 9.78125 4.210938 9.597656 4.210938 9.414062 4.230469 C 9.21875 4.238281 9.019531 4.207031 8.824219 4.199219 Z M 8.824219 4.199219 "/>
<path style=" stroke:none;fill-rule:nonzero;fill:rgb(92.941176%,29.803922%,3.529412%);fill-opacity:1;" d="M 1.8125 4.109375 C 2.664062 4.183594 3.515625 4.253906 4.367188 4.3125 C 4.617188 4.316406 4.859375 4.375 5.105469 4.351562 L 5.105469 4.371094 C 4.847656 4.382812 4.59375 4.328125 4.335938 4.34375 C 3.871094 4.316406 3.40625 4.285156 2.941406 4.261719 C 2.566406 4.214844 2.164062 4.277344 1.8125 4.109375 Z M 1.8125 4.109375 "/>
<path style=" stroke:none;fill-rule:nonzero;fill:rgb(99.215686%,99.215686%,99.215686%);fill-opacity:1;" d="M 10.820312 4.578125 C 11.101562 4.53125 11.359375 4.394531 11.597656 4.242188 C 11.433594 4.503906 11.101562 4.546875 10.820312 4.578125 Z M 10.820312 4.578125 "/>
<path style=" stroke:none;fill-rule:nonzero;fill:rgb(92.941176%,29.803922%,3.529412%);fill-opacity:1;" d="M 2.460938 4.386719 C 3.113281 4.414062 3.765625 4.464844 4.417969 4.484375 C 4.820312 4.539062 5.226562 4.5 5.632812 4.527344 C 5.019531 4.578125 4.40625 4.519531 3.792969 4.503906 C 3.351562 4.457031 2.890625 4.523438 2.460938 4.386719 Z M 2.460938 4.386719 "/>
<path style=" stroke:none;fill-rule:nonzero;fill:rgb(99.215686%,99.215686%,99.215686%);fill-opacity:1;" d="M 8.273438 4.644531 C 8.339844 4.574219 8.414062 4.511719 8.496094 4.460938 C 8.496094 4.5 8.5 4.542969 8.5 4.582031 C 8.945312 4.679688 9.40625 4.59375 9.855469 4.558594 C 9.335938 4.648438 8.792969 4.796875 8.273438 4.644531 Z M 11.636719 4.859375 C 11.84375 4.769531 12.023438 4.640625 12.199219 4.503906 C 12.121094 4.589844 12.050781 4.683594 11.949219 4.746094 C 11.855469 4.808594 11.746094 4.828125 11.636719 4.859375 Z M 11.636719 4.859375 "/>
<path style=" stroke:none;fill-rule:nonzero;fill:rgb(92.941176%,29.803922%,3.529412%);fill-opacity:1;" d="M 3.136719 4.625 C 3.34375 4.613281 3.546875 4.625 3.753906 4.628906 C 4.1875 4.667969 4.621094 4.628906 5.054688 4.671875 C 4.566406 4.695312 4.074219 4.691406 3.585938 4.691406 C 3.433594 4.6875 3.273438 4.695312 3.136719 4.625 Z M 3.136719 4.625 "/>
<path style=" stroke:none;fill-rule:nonzero;fill:rgb(99.215686%,99.215686%,99.215686%);fill-opacity:1;" d="M 8.195312 4.917969 C 8.855469 4.964844 9.507812 4.84375 10.160156 4.761719 C 9.605469 4.859375 9.058594 4.992188 8.496094 5.027344 C 8.277344 5.046875 8.058594 5.074219 7.84375 5.019531 C 7.898438 4.941406 7.96875 4.875 8.042969 4.8125 C 8.085938 4.859375 8.125 4.917969 8.195312 4.917969 Z M 7.722656 5.324219 C 8.707031 5.371094 9.671875 5.132812 10.613281 4.882812 C 10.421875 4.972656 10.21875 5.035156 10.015625 5.085938 C 9.503906 5.21875 8.984375 5.3125 8.460938 5.390625 C 8.152344 5.417969 7.832031 5.46875 7.527344 5.394531 C 7.589844 5.332031 7.660156 5.285156 7.726562 5.230469 C 7.726562 5.253906 7.726562 5.300781 7.722656 5.324219 Z M 7.722656 5.324219 "/>
<path style=" stroke:none;fill-rule:nonzero;fill:rgb(92.941176%,29.803922%,3.529412%);fill-opacity:1;" d="M 17.679688 5.433594 C 17.84375 5.339844 18.039062 5.304688 18.226562 5.339844 C 18.417969 5.394531 18.523438 5.585938 18.570312 5.765625 C 18.636719 6.054688 18.570312 6.347656 18.515625 6.632812 C 18.289062 7.699219 17.636719 8.632812 16.832031 9.351562 C 16.683594 9.488281 16.527344 9.613281 16.371094 9.738281 C 16.296875 9.785156 16.296875 9.875 16.277344 9.953125 C 16.214844 10.289062 16.136719 10.632812 16.183594 10.980469 C 16.203125 11.109375 16.273438 11.242188 16.394531 11.304688 C 16.492188 11.363281 16.613281 11.339844 16.714844 11.308594 C 16.910156 11.234375 17.085938 11.117188 17.234375 10.972656 C 17.53125 10.6875 17.785156 10.363281 18.023438 10.027344 C 18.105469 9.925781 18.0625 9.785156 18.074219 9.667969 C 18.09375 9.054688 18.304688 8.457031 18.625 7.941406 C 18.863281 7.574219 19.1875 7.238281 19.601562 7.078125 C 19.824219 6.984375 20.101562 6.996094 20.304688 7.136719 C 20.546875 7.289062 20.683594 7.582031 20.679688 7.863281 C 20.707031 8.390625 20.441406 8.890625 20.074219 9.25 C 19.761719 9.578125 19.363281 9.804688 18.949219 9.980469 C 19.042969 10.1875 19.183594 10.402344 19.414062 10.464844 C 19.667969 10.527344 19.941406 10.433594 20.136719 10.261719 C 20.441406 10 20.640625 9.640625 20.835938 9.292969 C 21.183594 8.644531 21.507812 7.976562 21.804688 7.300781 C 21.933594 7.0625 22.03125 6.796875 22.230469 6.605469 C 22.511719 6.511719 22.804688 6.453125 23.09375 6.382812 C 23.066406 6.585938 23.054688 6.796875 23.144531 6.984375 C 23.265625 7.234375 23.40625 7.476562 23.523438 7.726562 C 23.667969 8.039062 23.824219 8.359375 23.84375 8.707031 C 24.15625 8.824219 24.480469 8.988281 24.65625 9.285156 C 24.828125 9.5625 24.804688 9.910156 24.714844 10.207031 C 24.601562 10.582031 24.3125 10.875 23.988281 11.078125 C 23.636719 11.304688 23.246094 11.460938 22.863281 11.621094 C 21.503906 12.171875 20.140625 12.714844 18.78125 13.265625 C 16.121094 14.34375 13.460938 15.433594 10.808594 16.539062 C 10.269531 16.765625 9.726562 16.988281 9.199219 17.242188 C 8.460938 17.589844 7.71875 17.9375 7.027344 18.371094 C 6.605469 18.632812 6.210938 18.933594 5.863281 19.285156 C 5.667969 19.179688 5.488281 19.046875 5.28125 18.957031 C 4.488281 18.59375 3.597656 18.539062 2.734375 18.476562 C 2.644531 18.476562 2.621094 18.375 2.578125 18.3125 C 5.339844 17.3125 8.113281 16.335938 10.878906 15.347656 C 14.261719 14.140625 17.644531 12.941406 21.023438 11.726562 C 21.589844 11.523438 22.160156 11.324219 22.722656 11.109375 C 23.195312 10.925781 23.667969 10.703125 24.027344 10.335938 C 24.199219 10.160156 24.335938 9.921875 24.328125 9.667969 C 24.292969 9.371094 24.050781 9.148438 23.796875 9.027344 C 23.71875 9.371094 23.550781 9.699219 23.261719 9.914062 C 23.035156 10.089844 22.757812 10.199219 22.46875 10.214844 C 22.203125 10.222656 21.921875 10.113281 21.769531 9.890625 C 21.632812 9.683594 21.601562 9.40625 21.714844 9.183594 C 21.847656 8.914062 22.105469 8.722656 22.386719 8.636719 C 22.597656 8.570312 22.820312 8.5625 23.039062 8.566406 C 22.785156 8.144531 22.554688 7.699219 22.464844 7.210938 C 22.316406 7.367188 22.214844 7.558594 22.113281 7.75 C 21.753906 8.441406 21.484375 9.175781 21.078125 9.84375 C 20.835938 10.222656 20.550781 10.589844 20.1875 10.859375 C 19.921875 11.054688 19.59375 11.175781 19.261719 11.160156 C 18.976562 11.152344 18.6875 11.058594 18.480469 10.855469 C 18.363281 10.75 18.285156 10.613281 18.199219 10.480469 C 17.980469 10.839844 17.722656 11.171875 17.417969 11.460938 C 17.109375 11.753906 16.765625 12.023438 16.371094 12.1875 C 16.160156 12.273438 15.917969 12.316406 15.699219 12.238281 C 15.421875 12.136719 15.242188 11.855469 15.203125 11.570312 C 15.167969 11.136719 15.226562 10.699219 15.308594 10.273438 C 15.140625 10.378906 14.988281 10.5 14.816406 10.601562 C 14.761719 10.644531 14.671875 10.675781 14.671875 10.757812 C 14.609375 11.210938 14.488281 11.660156 14.273438 12.070312 C 14.121094 12.355469 13.957031 12.644531 13.710938 12.867188 C 13.390625 13.164062 12.960938 13.375 12.515625 13.363281 C 12.285156 13.363281 12.054688 13.277344 11.890625 13.117188 C 11.769531 13.007812 11.699219 12.859375 11.625 12.722656 C 11.578125 12.78125 11.539062 12.839844 11.5 12.902344 C 11.253906 13.292969 10.9375 13.636719 10.570312 13.914062 C 10.253906 14.140625 9.882812 14.347656 9.480469 14.320312 C 9.339844 14.324219 9.191406 14.28125 9.089844 14.175781 C 8.972656 14.054688 8.945312 13.882812 8.902344 13.730469 C 8.574219 14.183594 8.179688 14.59375 7.710938 14.902344 C 7.527344 15.019531 7.3125 15.074219 7.097656 15.085938 C 6.875 15.089844 6.652344 14.972656 6.546875 14.773438 C 6.414062 14.523438 6.410156 14.230469 6.429688 13.957031 C 6.472656 13.566406 6.589844 13.191406 6.722656 12.828125 C 6.9375 12.265625 7.21875 11.722656 7.589844 11.246094 C 7.675781 11.132812 7.777344 11.03125 7.863281 10.917969 C 7.546875 10.964844 7.210938 11.042969 6.90625 10.902344 C 6.835938 11.050781 6.746094 11.191406 6.625 11.304688 C 6.386719 11.554688 6.097656 11.757812 5.777344 11.882812 C 5.730469 11.90625 5.660156 11.917969 5.660156 11.984375 C 5.601562 12.78125 5.382812 13.566406 5.058594 14.296875 C 4.761719 14.941406 4.375 15.5625 3.824219 16.023438 C 3.453125 16.335938 2.984375 16.550781 2.496094 16.554688 C 1.890625 16.582031 1.289062 16.257812 0.964844 15.75 C 0.550781 15.121094 0.402344 14.355469 0.398438 13.613281 C 0.367188 12.152344 0.910156 10.671875 1.933594 9.617188 C 1.988281 9.558594 1.980469 9.472656 2 9.398438 C 2.109375 8.644531 2.746094 7.972656 3.519531 7.886719 C 4.015625 7.835938 4.558594 7.976562 4.914062 8.339844 C 5.222656 8.652344 5.398438 9.066406 5.511719 9.484375 C 5.683594 10.128906 5.699219 10.800781 5.6875 11.46875 C 5.960938 11.355469 6.222656 11.183594 6.398438 10.945312 C 6.574219 10.707031 6.515625 10.394531 6.613281 10.132812 C 6.632812 10.070312 6.695312 10.035156 6.757812 10.035156 C 6.929688 10.019531 7.097656 10.085938 7.269531 10.105469 C 7.632812 10.15625 8.027344 10.097656 8.324219 9.871094 C 8.398438 9.828125 8.464844 9.746094 8.554688 9.765625 C 8.660156 9.867188 8.734375 10 8.839844 10.105469 C 8.90625 10.1875 8.996094 10.257812 9.046875 10.351562 C 9.089844 10.4375 9.042969 10.53125 8.980469 10.59375 C 8.605469 10.992188 8.304688 11.457031 8.042969 11.933594 C 7.769531 12.457031 7.535156 13.019531 7.492188 13.613281 C 7.488281 13.769531 7.480469 13.96875 7.628906 14.066406 C 7.761719 14.152344 7.914062 14.070312 8.03125 14 C 8.320312 13.804688 8.566406 13.558594 8.78125 13.285156 C 8.867188 13.175781 8.953125 13.058594 9 12.925781 C 9.410156 11.789062 9.769531 10.632812 10.203125 9.5 C 10.226562 9.382812 10.359375 9.375 10.453125 9.339844 C 10.714844 9.269531 10.96875 9.164062 11.238281 9.105469 C 10.816406 10.285156 10.386719 11.464844 10.035156 12.667969 C 9.980469 12.847656 9.917969 13.0625 10.03125 13.234375 C 10.117188 13.367188 10.296875 13.375 10.433594 13.34375 C 10.648438 13.289062 10.816406 13.136719 10.96875 12.984375 C 11.144531 12.792969 11.300781 12.585938 11.4375 12.363281 C 11.511719 12.257812 11.449219 12.128906 11.449219 12.011719 C 11.433594 11.636719 11.429688 11.257812 11.519531 10.890625 C 11.625 10.445312 11.8125 10.011719 12.082031 9.640625 C 12.132812 9.582031 12.117188 9.5 12.121094 9.425781 C 12.113281 9.128906 12.273438 8.847656 12.488281 8.652344 C 12.78125 8.398438 13.183594 8.25 13.574219 8.300781 C 13.894531 8.347656 14.199219 8.523438 14.375 8.796875 C 14.621094 9.195312 14.722656 9.667969 14.726562 10.136719 C 14.921875 10.0625 15.082031 9.929688 15.25 9.8125 C 15.320312 9.753906 15.410156 9.703125 15.421875 9.605469 C 15.574219 8.9375 15.757812 8.269531 16.042969 7.640625 C 16.285156 7.105469 16.566406 6.582031 16.933594 6.117188 C 17.144531 5.851562 17.378906 5.597656 17.679688 5.433594 Z M 17.679688 5.433594 "/>
<path style=" stroke:none;fill-rule:nonzero;fill:rgb(6.27451%,3.921569%,2.745098%);fill-opacity:1;" d="M 17.863281 5.925781 C 17.945312 5.878906 18.082031 5.875 18.117188 5.980469 C 18.203125 6.210938 18.117188 6.457031 18.039062 6.675781 C 17.78125 7.375 17.421875 8.035156 16.953125 8.617188 C 16.796875 8.804688 16.632812 8.996094 16.429688 9.136719 C 16.554688 8.550781 16.769531 7.988281 16.992188 7.429688 C 17.144531 7.054688 17.308594 6.675781 17.511719 6.320312 C 17.601562 6.167969 17.707031 6.011719 17.863281 5.925781 Z M 17.863281 5.925781 "/>
<path style=" stroke:none;fill-rule:nonzero;fill:rgb(92.941176%,29.803922%,3.529412%);fill-opacity:1;" d="M 10.222656 6.632812 C 10.222656 6.460938 10.363281 6.363281 10.503906 6.300781 C 10.453125 6.390625 10.410156 6.488281 10.371094 6.585938 C 10.328125 6.613281 10.273438 6.617188 10.222656 6.632812 Z M 10.222656 6.632812 "/>
<path style=" stroke:none;fill-rule:nonzero;fill:rgb(99.215686%,99.215686%,99.215686%);fill-opacity:1;" d="M 17.476562 6.929688 C 17.554688 6.796875 17.628906 6.65625 17.757812 6.566406 C 17.761719 6.835938 17.644531 7.085938 17.527344 7.320312 C 17.335938 7.683594 17.140625 8.042969 16.878906 8.355469 C 17.027344 7.863281 17.234375 7.386719 17.476562 6.929688 Z M 17.476562 6.929688 "/>
<path style=" stroke:none;fill-rule:nonzero;fill:rgb(92.941176%,29.803922%,3.529412%);fill-opacity:1;" d="M 10.316406 6.730469 C 10.394531 6.746094 10.472656 6.769531 10.542969 6.808594 C 10.867188 6.972656 11.191406 7.144531 11.492188 7.359375 C 11.59375 7.433594 11.699219 7.511719 11.78125 7.613281 C 11.910156 7.75 11.890625 8 11.734375 8.109375 C 11.71875 7.984375 11.722656 7.859375 11.699219 7.734375 C 11.664062 7.621094 11.566406 7.542969 11.480469 7.46875 C 11.175781 7.222656 10.824219 7.054688 10.480469 6.867188 C 10.417969 6.835938 10.359375 6.789062 10.316406 6.730469 Z M 10.996094 7.675781 C 11.136719 7.644531 11.304688 7.664062 11.40625 7.78125 C 11.554688 7.949219 11.53125 8.203125 11.441406 8.394531 C 11.3125 8.679688 11.011719 8.9375 10.675781 8.890625 C 10.476562 8.867188 10.359375 8.664062 10.363281 8.476562 C 10.378906 8.117188 10.644531 7.769531 10.996094 7.675781 Z M 10.996094 7.675781 "/>
<path style=" stroke:none;fill-rule:nonzero;fill:rgb(6.27451%,3.921569%,2.745098%);fill-opacity:1;" d="M 19.46875 7.964844 C 19.597656 7.796875 19.785156 7.628906 20.015625 7.640625 C 20.210938 7.667969 20.265625 7.902344 20.238281 8.070312 C 20.199219 8.40625 20.046875 8.738281 19.792969 8.972656 C 19.546875 9.210938 19.234375 9.371094 18.917969 9.5 C 18.933594 8.945312 19.136719 8.40625 19.46875 7.964844 Z M 19.46875 7.964844 "/>
<path style=" stroke:none;fill-rule:nonzero;fill:rgb(99.215686%,99.215686%,99.215686%);fill-opacity:1;" d="M 22.191406 8.144531 C 22.234375 8.242188 22.277344 8.339844 22.316406 8.4375 C 22.199219 8.480469 22.082031 8.53125 21.96875 8.585938 C 22.042969 8.4375 22.117188 8.289062 22.191406 8.144531 Z M 19.535156 8.441406 C 19.605469 8.351562 19.710938 8.304688 19.816406 8.277344 C 19.882812 8.421875 19.855469 8.601562 19.746094 8.71875 C 19.589844 8.902344 19.386719 9.039062 19.167969 9.148438 C 19.195312 8.875 19.359375 8.640625 19.535156 8.441406 Z M 19.535156 8.441406 "/>
<path style=" stroke:none;fill-rule:nonzero;fill:rgb(6.27451%,3.921569%,2.745098%);fill-opacity:1;" d="M 3.503906 8.765625 C 3.804688 8.628906 4.210938 8.707031 4.402344 8.992188 C 4.613281 9.304688 4.679688 9.6875 4.722656 10.058594 C 4.753906 10.570312 4.742188 11.089844 4.6875 11.601562 C 4.3125 11.652344 3.914062 11.542969 3.617188 11.304688 C 3.042969 10.851562 2.71875 10.027344 3.003906 9.324219 C 3.097656 9.089844 3.269531 8.871094 3.503906 8.765625 Z M 13.035156 8.894531 C 13.183594 8.769531 13.402344 8.730469 13.578125 8.8125 C 13.753906 8.890625 13.855469 9.066406 13.898438 9.246094 C 14.003906 9.632812 13.941406 10.035156 13.847656 10.414062 C 13.648438 10.472656 13.425781 10.476562 13.242188 10.371094 C 13.023438 10.242188 12.835938 10.046875 12.761719 9.800781 C 12.679688 9.480469 12.777344 9.109375 13.035156 8.894531 Z M 22.164062 9.089844 C 22.414062 8.875 22.769531 8.863281 23.082031 8.890625 C 23.125 9.171875 23.078125 9.484375 22.871094 9.695312 C 22.679688 9.898438 22.300781 9.945312 22.101562 9.726562 C 21.9375 9.546875 21.984375 9.246094 22.164062 9.089844 Z M 22.164062 9.089844 "/>
<path style=" stroke:none;fill-rule:nonzero;fill:rgb(99.215686%,99.215686%,99.215686%);fill-opacity:1;" d="M 3.140625 9.621094 C 3.28125 9.414062 3.5625 9.285156 3.8125 9.378906 C 4.039062 9.445312 4.140625 9.679688 4.207031 9.886719 C 4.351562 10.375 4.363281 10.886719 4.34375 11.390625 C 3.980469 11.347656 3.660156 11.117188 3.445312 10.828125 C 3.191406 10.488281 3.054688 10.046875 3.140625 9.621094 Z M 12.941406 9.53125 C 13.03125 9.457031 13.140625 9.390625 13.261719 9.429688 C 13.410156 9.460938 13.480469 9.613281 13.515625 9.746094 C 13.5625 9.910156 13.558594 10.078125 13.554688 10.25 C 13.21875 10.199219 12.929688 9.875 12.941406 9.53125 Z M 22.289062 9.585938 C 22.425781 9.542969 22.574219 9.523438 22.71875 9.539062 C 22.617188 9.652344 22.390625 9.71875 22.289062 9.585938 Z M 22.289062 9.585938 "/>
<path style=" stroke:none;fill-rule:nonzero;fill:rgb(6.27451%,3.921569%,2.745098%);fill-opacity:1;" d="M 12.410156 10.523438 C 12.632812 10.648438 12.851562 10.789062 13.105469 10.847656 C 13.316406 10.910156 13.539062 10.914062 13.757812 10.898438 C 13.726562 11.113281 13.664062 11.320312 13.597656 11.523438 C 13.484375 11.859375 13.34375 12.199219 13.113281 12.472656 C 13.003906 12.609375 12.84375 12.734375 12.65625 12.71875 C 12.457031 12.695312 12.316406 12.515625 12.253906 12.339844 C 12.128906 12 12.140625 11.625 12.207031 11.273438 C 12.257812 11.019531 12.292969 10.757812 12.410156 10.523438 Z M 1.753906 11.921875 C 1.890625 11.617188 2.050781 11.3125 2.28125 11.0625 C 2.511719 11.367188 2.785156 11.652344 3.132812 11.820312 C 3.589844 12.0625 4.121094 12.089844 4.628906 12.039062 C 4.578125 12.5625 4.449219 13.074219 4.296875 13.578125 C 4.125 14.109375 3.902344 14.636719 3.574219 15.09375 C 3.359375 15.382812 3.070312 15.660156 2.699219 15.726562 C 2.394531 15.753906 2.078125 15.621094 1.886719 15.375 C 1.613281 15.027344 1.511719 14.578125 1.460938 14.148438 C 1.382812 13.398438 1.449219 12.617188 1.753906 11.921875 Z M 1.753906 11.921875 "/>
<path style=" stroke:none;fill-rule:nonzero;fill:rgb(99.215686%,99.215686%,99.215686%);fill-opacity:1;" d="M 12.40625 11.324219 C 12.527344 11.355469 12.640625 11.421875 12.765625 11.457031 C 12.941406 11.515625 13.132812 11.546875 13.320312 11.558594 C 13.25 11.808594 13.175781 12.058594 13.007812 12.265625 C 12.921875 12.375 12.8125 12.523438 12.65625 12.503906 C 12.453125 12.410156 12.414062 12.164062 12.386719 11.96875 C 12.339844 11.753906 12.386719 11.539062 12.40625 11.324219 Z M 2.09375 11.84375 C 2.351562 12.121094 2.652344 12.375 3.007812 12.519531 C 3.382812 12.675781 3.792969 12.722656 4.195312 12.707031 C 4.160156 13.085938 4.054688 13.453125 3.953125 13.816406 C 3.878906 14.074219 3.789062 14.332031 3.65625 14.5625 C 3.472656 14.886719 3.261719 15.214844 2.9375 15.414062 C 2.734375 15.546875 2.460938 15.535156 2.253906 15.417969 C 2.054688 15.300781 1.933594 15.085938 1.847656 14.878906 C 1.6875 14.453125 1.644531 13.996094 1.648438 13.542969 C 1.644531 13.160156 1.695312 12.777344 1.804688 12.410156 C 1.863281 12.203125 1.984375 12.023438 2.09375 11.84375 Z M 2.09375 11.84375 "/>
<path style=" stroke:none;fill-rule:nonzero;fill:rgb(6.27451%,3.921569%,2.745098%);fill-opacity:1;" d="M 22.679688 12.808594 C 22.796875 12.808594 22.914062 12.808594 23.03125 12.808594 C 23.03125 12.828125 23.03125 12.863281 23.035156 12.882812 L 22.902344 12.894531 C 22.898438 13.007812 22.898438 13.117188 22.898438 13.226562 L 22.816406 13.230469 C 22.816406 13.121094 22.816406 13.011719 22.816406 12.902344 C 22.769531 12.894531 22.722656 12.886719 22.679688 12.878906 Z M 23.097656 12.808594 L 23.246094 12.808594 C 23.277344 12.890625 23.308594 12.976562 23.335938 13.058594 C 23.371094 12.976562 23.402344 12.890625 23.4375 12.808594 L 23.585938 12.808594 C 23.589844 12.949219 23.585938 13.089844 23.585938 13.226562 L 23.5 13.230469 C 23.496094 13.140625 23.496094 13.054688 23.488281 12.964844 C 23.445312 13.050781 23.414062 13.140625 23.378906 13.230469 C 23.359375 13.230469 23.320312 13.230469 23.296875 13.226562 C 23.261719 13.128906 23.222656 13.03125 23.179688 12.929688 C 23.179688 13.03125 23.179688 13.132812 23.175781 13.234375 L 23.097656 13.226562 C 23.097656 13.085938 23.097656 12.945312 23.097656 12.808594 Z M 23.097656 12.808594 "/>
</g>
</svg>
