<?xml version="1.0" encoding="UTF-8"?>
<svg xmlns="http://www.w3.org/2000/svg" xmlns:xlink="http://www.w3.org/1999/xlink" width="29pt" height="20pt" viewBox="0 0 29 20" version="1.1">
<g id="surface1">
<path style=" stroke:none;fill-rule:evenodd;fill:rgb(29.803922%,20.784314%,46.27451%);fill-opacity:1;" d="M 6.527344 10.558594 C 6.527344 10.558594 5.488281 12.71875 5.488281 12.71875 C 5.488281 12.71875 7.933594 12.71875 7.933594 12.71875 C 7.933594 12.71875 14.769531 7.507812 14.769531 7.507812 C 14.769531 7.507812 9.03125 12.699219 9.03125 12.699219 C 9.03125 12.699219 9.453125 12.699219 9.453125 12.699219 C 9.453125 12.699219 14.882812 8.800781 14.882812 8.800781 C 14.882812 8.800781 10.511719 12.71875 10.511719 12.71875 C 10.511719 12.71875 10.996094 12.71875 10.996094 12.71875 C 10.996094 12.71875 15.460938 9.726562 15.460938 9.726562 C 15.460938 9.726562 12.054688 12.699219 12.054688 12.699219 C 12.054688 12.699219 12.535156 12.71875 12.535156 12.71875 C 12.535156 12.71875 16.539062 10.34375 16.539062 10.34375 C 16.539062 10.34375 13.554688 12.699219 13.554688 12.699219 C 13.554688 12.699219 14.015625 12.738281 14.015625 12.738281 C 14.015625 12.738281 17.925781 10.632812 17.925781 10.632812 C 17.925781 10.632812 15.058594 12.699219 15.058594 12.699219 C 15.058594 12.699219 23.835938 12.699219 23.835938 12.699219 C 23.835938 12.699219 21.910156 10.132812 21.910156 10.132812 C 21.910156 10.132812 21.140625 10.25 21.140625 10.25 C 21.140625 10.25 20.390625 8.957031 20.390625 8.957031 C 20.390625 8.957031 16.539062 5.480469 16.539062 5.480469 C 16.539062 5.480469 14.402344 3.511719 14.402344 3.511719 C 14.402344 3.511719 11.804688 6.832031 11.804688 6.832031 C 11.804688 6.832031 10.359375 6.386719 10.359375 6.386719 C 10.359375 6.386719 7.953125 10.230469 7.953125 10.230469 C 7.953125 10.230469 7.296875 10.113281 7.296875 10.113281 C 7.296875 10.113281 7.007812 10.613281 7.007812 10.613281 C 7.007812 10.613281 6.527344 10.558594 6.527344 10.558594 Z M 6.527344 10.558594 "/>
<path style=" stroke:none;fill-rule:evenodd;fill:rgb(100%,100%,100%);fill-opacity:1;" d="M 8.875 9.765625 C 8.875 9.765625 10.550781 7.007812 10.550781 7.007812 C 10.550781 7.007812 11.996094 7.390625 11.996094 7.390625 C 11.996094 7.390625 14.382812 4.265625 14.382812 4.265625 C 14.382812 4.265625 16.105469 6.273438 16.105469 6.273438 C 16.105469 6.273438 16.027344 6.488281 16.027344 6.488281 C 16.027344 6.488281 15.636719 6.234375 15.636719 6.234375 C 15.636719 6.234375 15.191406 6.640625 15.191406 6.640625 C 15.191406 6.640625 14.960938 5.636719 14.960938 5.636719 C 14.960938 5.636719 14.402344 6.3125 14.402344 6.3125 C 14.402344 6.3125 14.113281 5.886719 14.113281 5.886719 C 14.113281 5.886719 11.804688 7.816406 11.804688 7.816406 C 11.804688 7.816406 11.339844 7.429688 11.339844 7.429688 C 11.339844 7.429688 10.128906 8.917969 10.128906 8.917969 C 10.128906 8.917969 9.917969 8.722656 9.917969 8.722656 C 9.917969 8.722656 8.875 9.765625 8.875 9.765625 Z M 8.875 9.765625 "/>
<path style=" stroke:none;fill-rule:evenodd;fill:rgb(100%,100%,100%);fill-opacity:1;" d="M 20.542969 10.25 C 20.542969 10.25 20.035156 9.300781 20.035156 9.300781 C 20.035156 9.300781 19.679688 9.507812 19.679688 9.507812 C 19.679688 9.507812 20.042969 9.902344 20.140625 9.957031 C 20.238281 10.015625 20.542969 10.25 20.542969 10.25 Z M 20.542969 10.25 "/>
<path style=" stroke:none;fill-rule:evenodd;fill:rgb(8.627451%,7.843137%,7.45098%);fill-opacity:1;" d="M 23.15625 11.792969 C 23.15625 11.792969 28.785156 11.792969 28.785156 11.792969 C 28.785156 11.792969 28.785156 11.367188 28.785156 11.367188 C 28.785156 11.367188 27.785156 11.347656 27.785156 11.367188 C 27.648438 9.886719 26.457031 5.75 22.558594 2.855469 C 20.5625 1.28125 17.910156 0.109375 14.460938 0 C 10.050781 0.15625 8.296875 1.410156 6.46875 2.585938 C 1.675781 5.984375 1.058594 11.328125 1.058594 11.328125 C 1.058594 11.328125 0.117188 11.328125 0.117188 11.328125 C 0.117188 11.328125 0.117188 11.773438 0.117188 11.773438 C 0.117188 11.773438 5.941406 11.773438 5.941406 11.773438 C 5.941406 11.773438 6.152344 11.347656 6.152344 11.347656 C 6.152344 11.347656 4.910156 11.347656 4.910156 11.347656 C 4.910156 11.347656 5.96875 4.632812 13.824219 3.800781 C 13.804688 3.820312 14.441406 3.109375 14.441406 3.109375 C 14.441406 3.109375 15.132812 3.800781 15.132812 3.800781 C 15.132812 3.800781 16.191406 3.917969 16.886719 4.128906 C 17.578125 4.34375 18.234375 4.632812 18.234375 4.632812 C 18.234375 4.632812 15.945312 4.847656 15.847656 7.296875 C 16.015625 9.425781 17.828125 9.804688 18.332031 9.804688 C 18.832031 9.804688 20.796875 9.746094 21.046875 7.296875 C 21.046875 6.734375 20.910156 6.386719 20.910156 6.386719 C 20.910156 6.386719 21.890625 7.101562 22.777344 8.550781 C 23.664062 9.996094 23.875 11.328125 23.875 11.328125 C 23.875 11.328125 22.8125 11.328125 22.8125 11.328125 C 22.8125 11.328125 23.15625 11.792969 23.15625 11.792969 Z M 23.15625 11.792969 "/>
<path style=" stroke:none;fill-rule:evenodd;fill:rgb(8.627451%,7.843137%,7.45098%);fill-opacity:1;" d="M 18.851562 13.460938 C 18.851562 13.460938 18.851562 13.113281 18.851562 13.113281 C 18.851562 13.113281 20.882812 13.113281 20.882812 13.113281 C 20.882812 13.113281 20.882812 13.511719 20.882812 13.511719 C 20.882812 13.511719 20.515625 13.433594 20.410156 13.683594 C 20.304688 13.933594 20.332031 15.351562 20.332031 15.351562 C 20.332031 15.351562 20.304688 16.734375 20.351562 16.847656 C 20.402344 16.964844 20.4375 17.226562 20.652344 17.253906 C 20.863281 17.285156 20.890625 17.320312 20.890625 17.320312 C 20.890625 17.320312 20.890625 17.628906 20.890625 17.628906 C 20.890625 17.628906 18.859375 17.628906 18.859375 17.628906 C 18.859375 17.628906 18.859375 17.292969 18.859375 17.292969 C 18.859375 17.292969 19.167969 17.273438 19.265625 17.109375 C 19.359375 16.945312 19.339844 16.78125 19.339844 16.78125 C 19.339844 16.78125 19.339844 15.304688 19.339844 15.304688 C 19.339844 15.304688 19.320312 13.894531 19.320312 13.894531 C 19.320312 13.894531 19.351562 13.730469 19.253906 13.636719 C 19.160156 13.539062 19.023438 13.460938 18.851562 13.460938 Z M 18.851562 13.460938 "/>
<path style=" stroke:none;fill-rule:evenodd;fill:rgb(8.627451%,7.843137%,7.45098%);fill-opacity:1;" d="M 7.703125 12.96875 C 8.953125 12.96875 9.867188 13.820312 9.867188 15.351562 C 9.867188 16.886719 8.953125 17.6875 7.585938 17.765625 C 6.238281 17.6875 5.488281 16.847656 5.488281 15.335938 C 5.488281 13.820312 6.488281 13.046875 7.703125 12.96875 Z M 6.546875 15.46875 C 6.71875 17.332031 7.472656 17.371094 7.847656 17.371094 C 8.222656 17.371094 9.019531 16.808594 8.78125 15.121094 C 8.539062 13.433594 7.847656 13.367188 7.5 13.367188 C 7.21875 13.402344 6.375 13.605469 6.546875 15.46875 Z M 6.546875 15.46875 "/>
<path style=" stroke:none;fill-rule:evenodd;fill:rgb(8.627451%,7.843137%,7.45098%);fill-opacity:1;" d="M 3.320312 17.226562 C 3.320312 17.226562 3.320312 17.613281 3.320312 17.613281 C 3.320312 17.613281 0.835938 17.613281 0.835938 17.613281 C 0.835938 17.613281 0.835938 17.234375 0.835938 17.234375 C 0.835938 17.234375 1.347656 17.195312 1.433594 16.976562 C 1.519531 16.753906 1.5 16.683594 1.5 16.683594 C 1.5 16.683594 1.5 13.453125 1.5 13.25 C 1.5 13.046875 1.320312 12.929688 1.144531 12.882812 C 0.972656 12.835938 0.847656 12.835938 0.847656 12.835938 C 0.847656 12.835938 0.847656 12.429688 0.847656 12.429688 C 0.847656 12.429688 1.125 12.449219 1.445312 12.429688 C 1.761719 12.410156 2.328125 12.351562 2.886719 12.351562 C 3.445312 12.351562 5.199219 12.363281 5.199219 13.789062 C 5.265625 14.898438 4.179688 15.171875 4.179688 15.171875 C 4.179688 15.171875 4.148438 15.296875 4.253906 15.351562 C 4.359375 15.410156 4.390625 15.46875 4.390625 15.46875 C 4.390625 15.46875 4.785156 16.183594 4.84375 16.289062 C 4.898438 16.394531 5.152344 16.957031 5.296875 17.0625 C 5.4375 17.167969 5.804688 17.234375 5.804688 17.234375 C 5.804688 17.234375 5.804688 17.621094 5.804688 17.621094 C 5.804688 17.621094 4.304688 17.621094 4.304688 17.621094 C 4.304688 17.621094 3.011719 15.488281 3.011719 15.488281 C 3.011719 15.488281 2.867188 15.429688 2.8125 15.429688 C 2.753906 15.429688 2.65625 15.460938 2.65625 15.460938 C 2.65625 15.460938 2.636719 16.648438 2.636719 16.648438 C 2.636719 16.648438 2.609375 16.964844 2.761719 17.089844 C 2.917969 17.214844 3.320312 17.226562 3.320312 17.226562 Z M 3.101562 14.976562 C 3.253906 14.957031 3.976562 14.785156 3.910156 13.808594 C 3.910156 12.796875 3.167969 12.738281 2.90625 12.738281 C 2.648438 12.738281 2.636719 12.777344 2.636719 12.777344 C 2.636719 12.777344 2.636719 14.996094 2.636719 14.996094 C 2.636719 14.996094 2.945312 14.996094 3.101562 14.976562 Z M 3.101562 14.976562 "/>
<path style=" stroke:none;fill-rule:evenodd;fill:rgb(100%,100%,100%);fill-opacity:1;" d="M 8.011719 10.652344 C 8.011719 10.652344 7.527344 10.558594 7.527344 10.558594 C 7.527344 10.558594 7.125 11.175781 7.125 11.175781 C 7.125 11.175781 8.011719 10.652344 8.011719 10.652344 Z M 8.011719 10.652344 "/>
<path style=" stroke:none;fill-rule:evenodd;fill:rgb(100%,100%,100%);fill-opacity:1;" d="M 21.082031 10.808594 C 21.082031 10.808594 21.640625 10.671875 21.640625 10.671875 C 21.640625 10.671875 22.027344 11.195312 22.027344 11.195312 C 22.027344 11.195312 21.082031 10.808594 21.082031 10.808594 Z M 21.082031 10.808594 "/>
<path style=" stroke:none;fill-rule:evenodd;fill:rgb(100%,100%,100%);fill-opacity:1;" d="M 18.503906 5 C 18.503906 5 19.351562 5.039062 19.792969 5.421875 C 20.832031 6.214844 20.640625 6.929688 20.640625 6.929688 C 20.640625 6.929688 20.507812 6.949219 20.507812 6.949219 C 20.507812 6.949219 20.410156 6.660156 20.332031 6.660156 C 20.257812 6.660156 20.246094 6.714844 20.246094 6.714844 C 20.246094 6.714844 20.292969 6.890625 20.292969 6.890625 C 20.292969 6.890625 20.132812 6.890625 20.132812 6.890625 C 20.132812 6.890625 20.074219 6.628906 19.96875 6.628906 C 19.859375 6.628906 19.898438 6.734375 19.898438 6.734375 C 19.898438 6.734375 19.890625 6.910156 19.890625 6.910156 C 19.890625 6.910156 19.753906 6.898438 19.753906 6.898438 C 19.753906 6.898438 19.628906 6.589844 19.535156 6.679688 C 19.4375 6.765625 19.503906 6.804688 19.503906 6.804688 C 19.503906 6.804688 19.601562 6.957031 19.496094 6.957031 C 19.390625 6.957031 19.292969 6.832031 19.292969 6.832031 C 19.292969 6.832031 19.234375 6.6875 19.179688 6.734375 C 19.121094 6.785156 19.128906 6.851562 19.128906 6.851562 C 19.128906 6.851562 19.207031 7.007812 19.207031 7.007812 C 19.207031 7.007812 19.089844 7.054688 19.089844 7.054688 C 19.089844 7.054688 18.878906 6.878906 18.832031 6.878906 C 18.78125 6.878906 18.675781 6.957031 18.746094 6.996094 C 18.8125 7.035156 18.878906 7.074219 18.878906 7.121094 C 18.878906 7.171875 18.8125 7.1875 18.8125 7.1875 C 18.8125 7.1875 18.714844 7.21875 18.714844 7.21875 C 18.714844 7.21875 18.523438 7.015625 18.457031 7.09375 C 18.386719 7.171875 18.484375 7.246094 18.484375 7.246094 C 18.484375 7.246094 18.550781 7.34375 18.550781 7.34375 C 18.550781 7.34375 18.476562 7.402344 18.476562 7.402344 C 18.476562 7.402344 18.339844 7.382812 18.300781 7.351562 C 18.261719 7.324219 18.175781 7.277344 18.148438 7.335938 C 18.117188 7.390625 18.175781 7.449219 18.175781 7.449219 C 18.175781 7.449219 18.3125 7.546875 18.3125 7.546875 C 18.3125 7.546875 18.15625 7.644531 18.15625 7.644531 C 18.15625 7.644531 17.964844 7.527344 17.925781 7.566406 C 17.886719 7.605469 17.867188 7.710938 17.867188 7.710938 C 17.867188 7.710938 18.023438 7.796875 18.023438 7.796875 C 18.023438 7.796875 17.992188 7.875 17.992188 7.875 C 17.992188 7.875 17.898438 7.902344 17.898438 7.902344 C 17.898438 7.902344 17.753906 7.855469 17.703125 7.875 C 17.65625 7.894531 17.65625 8.019531 17.65625 8.019531 C 17.65625 8.019531 17.722656 8.097656 17.761719 8.097656 C 17.800781 8.097656 17.90625 8.105469 17.839844 8.164062 C 17.773438 8.222656 17.742188 8.222656 17.742188 8.222656 C 17.742188 8.222656 17.503906 8.164062 17.464844 8.269531 C 17.425781 8.375 17.570312 8.394531 17.570312 8.394531 C 17.570312 8.394531 17.714844 8.386719 17.703125 8.433594 C 17.695312 8.484375 17.65625 8.53125 17.65625 8.53125 C 17.65625 8.53125 17.503906 8.550781 17.503906 8.550781 C 17.503906 8.550781 17.367188 8.570312 17.359375 8.65625 C 17.347656 8.742188 17.464844 8.753906 17.464844 8.753906 C 17.464844 8.753906 17.628906 8.722656 17.597656 8.820312 C 17.570312 8.917969 17.414062 8.925781 17.414062 8.925781 C 17.414062 8.925781 17.289062 8.925781 17.289062 9.003906 C 17.289062 9.082031 17.347656 9.121094 17.347656 9.121094 C 17.347656 9.121094 17.570312 9.101562 17.550781 9.1875 C 17.53125 9.273438 17.445312 9.265625 17.445312 9.265625 C 17.445312 9.265625 16.15625 8.742188 16.15625 7.402344 C 16.136719 7.171875 16.144531 6.910156 16.144531 6.910156 C 16.144531 6.910156 16.175781 6.792969 16.242188 6.890625 C 16.308594 6.988281 16.320312 6.996094 16.375 6.996094 C 16.433594 6.996094 16.414062 6.851562 16.414062 6.851562 C 16.414062 6.851562 16.394531 6.734375 16.394531 6.734375 C 16.394531 6.734375 16.445312 6.695312 16.492188 6.695312 C 16.539062 6.695312 16.625 6.9375 16.683594 6.9375 C 16.742188 6.9375 16.820312 6.878906 16.820312 6.878906 C 16.820312 6.878906 16.808594 6.804688 16.789062 6.765625 C 16.769531 6.726562 16.730469 6.667969 16.730469 6.667969 C 16.730469 6.667969 16.875 6.609375 16.875 6.609375 C 16.875 6.609375 16.953125 6.707031 16.992188 6.746094 C 17.03125 6.785156 17.097656 6.824219 17.136719 6.804688 C 17.175781 6.785156 17.15625 6.707031 17.15625 6.707031 C 17.15625 6.707031 17.058594 6.542969 17.058594 6.542969 C 17.058594 6.542969 17.203125 6.496094 17.203125 6.496094 C 17.203125 6.496094 17.359375 6.660156 17.40625 6.660156 C 17.453125 6.660156 17.492188 6.601562 17.492188 6.601562 C 17.492188 6.601562 17.503906 6.542969 17.472656 6.496094 C 17.445312 6.445312 17.359375 6.417969 17.445312 6.351562 C 17.53125 6.28125 17.589844 6.351562 17.589844 6.351562 C 17.589844 6.351562 17.6875 6.464844 17.734375 6.464844 C 17.78125 6.464844 17.859375 6.378906 17.8125 6.3125 C 17.761719 6.242188 17.695312 6.242188 17.695312 6.242188 C 17.695312 6.242188 17.734375 6.136719 17.734375 6.136719 C 17.734375 6.136719 17.820312 6.109375 17.898438 6.148438 C 17.972656 6.1875 18.128906 6.222656 18.128906 6.136719 C 18.128906 6.050781 18.0625 6.023438 18.0625 6.023438 C 18.0625 6.023438 17.972656 5.984375 17.972656 5.984375 C 17.972656 5.984375 17.984375 5.878906 18.03125 5.878906 C 18.082031 5.878906 18.128906 5.847656 18.195312 5.878906 C 18.261719 5.90625 18.273438 5.914062 18.332031 5.894531 C 18.386719 5.878906 18.367188 5.789062 18.292969 5.742188 C 18.214844 5.695312 18.15625 5.730469 18.167969 5.644531 C 18.175781 5.558594 18.3125 5.585938 18.3125 5.585938 C 18.3125 5.585938 18.503906 5.597656 18.503906 5.597656 C 18.503906 5.597656 18.570312 5.480469 18.570312 5.480469 C 18.570312 5.480469 18.53125 5.414062 18.496094 5.414062 C 18.457031 5.414062 18.359375 5.394531 18.359375 5.328125 C 18.359375 5.257812 18.4375 5.257812 18.503906 5.257812 C 18.570312 5.257812 18.707031 5.257812 18.714844 5.21875 C 18.726562 5.183594 18.726562 5.09375 18.726562 5.09375 C 18.726562 5.09375 18.589844 5.105469 18.550781 5.085938 C 18.511719 5.066406 18.503906 5 18.503906 5 Z M 18.503906 5 "/>
<path style=" stroke:none;fill-rule:evenodd;fill:rgb(78.823529%,80%,81.960784%);fill-opacity:1;" d="M 1.789062 12.785156 C 1.789062 12.785156 2.339844 12.785156 2.339844 12.785156 C 2.339844 12.785156 2.339844 17.214844 2.339844 17.214844 C 2.339844 17.214844 1.789062 17.214844 1.789062 17.214844 C 1.789062 17.214844 1.789062 12.785156 1.789062 12.785156 Z M 1.789062 12.785156 "/>
<path style=" stroke:none;fill-rule:evenodd;fill:rgb(78.823529%,80%,81.960784%);fill-opacity:1;" d="M 3.859375 12.785156 C 3.859375 12.785156 4.84375 12.902344 4.84375 13.839844 C 4.84375 14.773438 3.878906 14.957031 3.878906 14.957031 C 3.878906 14.957031 4.179688 14.6875 4.179688 13.828125 C 4.179688 12.96875 3.859375 12.785156 3.859375 12.785156 Z M 3.859375 12.785156 "/>
<path style=" stroke:none;fill-rule:evenodd;fill:rgb(78.823529%,80%,81.960784%);fill-opacity:1;" d="M 3.28125 15.46875 C 3.28125 15.46875 3.589844 15.363281 3.6875 15.363281 C 3.785156 15.363281 3.9375 15.363281 3.9375 15.363281 C 3.9375 15.363281 4.214844 15.644531 4.285156 15.789062 C 4.351562 15.933594 5.09375 17.1875 5.09375 17.1875 C 5.09375 17.1875 4.285156 17.1875 4.285156 17.1875 C 4.285156 17.1875 3.28125 15.46875 3.28125 15.46875 Z M 3.28125 15.46875 "/>
<path style=" stroke:none;fill-rule:evenodd;fill:rgb(78.823529%,80%,81.960784%);fill-opacity:1;" d="M 6.632812 13.546875 C 6.632812 13.546875 6.210938 14.175781 6.285156 15.296875 C 6.285156 16.519531 6.835938 17.195312 6.835938 17.195312 C 6.835938 17.195312 5.71875 17.207031 5.71875 15.421875 C 5.738281 13.925781 6.632812 13.546875 6.632812 13.546875 Z M 6.632812 13.546875 "/>
<path style=" stroke:none;fill-rule:evenodd;fill:rgb(78.823529%,80%,81.960784%);fill-opacity:1;" d="M 8.5 13.453125 C 8.5 13.453125 9.628906 13.722656 9.628906 15.21875 C 9.628906 16.714844 8.78125 17.15625 8.78125 17.15625 C 8.78125 17.15625 9.050781 16.800781 9.050781 15.257812 C 8.925781 13.925781 8.5 13.453125 8.5 13.453125 Z M 8.5 13.453125 "/>
<path style=" stroke:none;fill-rule:evenodd;fill:rgb(8.627451%,7.843137%,7.45098%);fill-opacity:1;" d="M 0 18.121094 C 0 18.121094 28.804688 18.121094 28.804688 18.121094 C 28.804688 18.121094 28.804688 18.605469 28.804688 18.605469 C 28.804688 18.605469 27.59375 18.605469 27.59375 18.605469 C 27.59375 18.605469 27.59375 19.339844 27.59375 19.339844 C 27.59375 19.339844 1.230469 19.339844 1.230469 19.339844 C 1.230469 19.339844 1.230469 18.566406 1.230469 18.566406 C 1.230469 18.566406 0 18.566406 0 18.566406 C 0 18.566406 0 18.121094 0 18.121094 Z M 0 18.121094 "/>
<path style=" stroke:none;fill-rule:evenodd;fill:rgb(8.627451%,7.843137%,7.45098%);fill-opacity:1;" d="M 10.1875 15.421875 C 10.1875 14.070312 11.03125 13 12.601562 13 C 13.199219 13 13.574219 13.21875 13.574219 13.21875 C 13.574219 13.21875 13.796875 13.074219 13.855469 13.074219 C 13.910156 13.074219 13.910156 13.152344 13.910156 13.152344 C 13.910156 13.152344 13.96875 14.628906 13.96875 14.628906 C 13.96875 14.628906 13.699219 14.628906 13.699219 14.628906 C 13.699219 14.628906 13.46875 13.421875 12.535156 13.421875 C 11.601562 13.421875 11.214844 14.417969 11.214844 15.402344 C 11.214844 16.386719 11.753906 17.332031 12.5625 17.332031 C 13.371094 17.332031 13.835938 16.261719 13.835938 16.261719 C 13.835938 16.261719 13.863281 16.191406 13.929688 16.191406 C 14 16.191406 14.085938 16.222656 14.085938 16.222656 C 14.085938 16.222656 14.09375 16.316406 14.09375 16.316406 C 14.09375 16.316406 13.746094 17.699219 13.746094 17.699219 C 13.746094 17.699219 13.402344 17.660156 13.246094 17.660156 C 13.09375 17.660156 12.246094 17.757812 12.109375 17.757812 C 11.976562 17.757812 10.1875 17.5625 10.1875 15.421875 Z M 10.1875 15.421875 "/>
<path style=" stroke:none;fill-rule:evenodd;fill:rgb(78.823529%,80%,81.960784%);fill-opacity:1;" d="M 10.976562 15.421875 C 10.976562 16.472656 11.523438 17.167969 11.523438 17.167969 C 11.523438 17.167969 10.40625 16.984375 10.40625 15.46875 C 10.40625 13.953125 11.390625 13.597656 11.390625 13.597656 C 11.390625 13.597656 11.445312 13.617188 11.410156 13.695312 C 11.371094 13.769531 10.976562 14.367188 10.976562 15.421875 Z M 10.976562 15.421875 "/>
<path style=" stroke:none;fill-rule:evenodd;fill:rgb(78.823529%,80%,81.960784%);fill-opacity:1;" d="M 19.605469 13.484375 C 19.605469 13.484375 20.117188 13.484375 20.117188 13.484375 C 20.117188 13.484375 20.117188 17.230469 20.117188 17.230469 C 20.117188 17.230469 19.605469 17.230469 19.605469 17.230469 C 19.605469 17.230469 19.605469 13.484375 19.605469 13.484375 Z M 19.605469 13.484375 "/>
<path style=" stroke:none;fill-rule:evenodd;fill:rgb(8.627451%,7.843137%,7.45098%);fill-opacity:1;" d="M 14.179688 13.460938 C 14.179688 13.460938 14.199219 13.113281 14.199219 13.113281 C 14.199219 13.113281 16.230469 13.113281 16.230469 13.113281 C 16.230469 13.113281 16.230469 13.472656 16.230469 13.472656 C 16.230469 13.472656 15.78125 13.460938 15.75 13.710938 C 15.722656 13.964844 15.710938 15.152344 15.710938 15.152344 C 15.710938 15.152344 16.953125 13.742188 16.953125 13.742188 C 16.953125 13.742188 17.011719 13.675781 16.992188 13.605469 C 16.992188 13.480469 16.78125 13.453125 16.78125 13.453125 C 16.78125 13.453125 16.78125 13.105469 16.78125 13.105469 C 16.78125 13.105469 18.4375 13.105469 18.4375 13.105469 C 18.4375 13.105469 18.4375 13.480469 18.4375 13.480469 C 18.4375 13.480469 17.945312 13.460938 17.753906 13.625 C 17.484375 13.761719 16.597656 14.84375 16.597656 14.84375 C 16.597656 14.84375 16.984375 15.324219 17.203125 15.652344 C 17.425781 15.980469 17.984375 16.898438 18.070312 16.964844 C 18.15625 17.03125 18.195312 17.175781 18.425781 17.246094 C 18.65625 17.3125 18.695312 17.285156 18.695312 17.285156 C 18.695312 17.285156 18.695312 17.640625 18.695312 17.640625 C 18.695312 17.640625 16.519531 17.640625 16.519531 17.640625 C 16.519531 17.640625 16.519531 17.265625 16.519531 17.265625 C 16.519531 17.265625 16.867188 17.300781 16.867188 17.136719 C 16.867188 16.976562 16.730469 16.648438 16.492188 16.367188 C 16.25 16.085938 15.90625 15.613281 15.742188 15.59375 C 15.730469 15.769531 15.742188 16.925781 15.742188 16.925781 C 15.742188 16.925781 15.761719 17.121094 15.90625 17.214844 C 16.046875 17.3125 16.242188 17.285156 16.242188 17.285156 C 16.242188 17.285156 16.242188 17.640625 16.242188 17.640625 C 16.242188 17.640625 14.191406 17.640625 14.191406 17.640625 C 14.191406 17.640625 14.191406 17.292969 14.191406 17.292969 C 14.191406 17.292969 14.625 17.292969 14.664062 17.03125 C 14.699219 16.773438 14.699219 16.714844 14.699219 16.714844 C 14.699219 16.714844 14.699219 13.839844 14.699219 13.839844 C 14.699219 13.839844 14.699219 13.605469 14.519531 13.539062 C 14.335938 13.472656 14.179688 13.460938 14.179688 13.460938 Z M 14.179688 13.460938 "/>
<path style=" stroke:none;fill-rule:evenodd;fill:rgb(8.627451%,7.843137%,7.45098%);fill-opacity:1;" d="M 21.210938 13.492188 C 21.210938 13.492188 21.210938 13.125 21.210938 13.125 C 21.210938 13.125 24.578125 13.125 24.578125 13.125 C 24.578125 13.125 24.644531 14.214844 24.644531 14.214844 C 24.644531 14.214844 24.328125 14.214844 24.328125 14.214844 C 24.328125 14.214844 24.414062 13.605469 23.980469 13.605469 C 23.546875 13.605469 22.769531 13.605469 22.769531 13.605469 C 22.769531 13.605469 22.769531 15.121094 22.769531 15.121094 C 22.769531 15.121094 23.105469 15.160156 23.230469 15.160156 C 23.355469 15.160156 23.742188 15.113281 23.761719 14.949219 C 23.78125 14.785156 23.847656 14.601562 23.847656 14.601562 C 23.847656 14.601562 24.078125 14.601562 24.078125 14.601562 C 24.078125 14.601562 24.078125 16.136719 24.078125 16.136719 C 24.078125 16.136719 23.828125 16.136719 23.828125 16.136719 C 23.828125 16.136719 23.792969 15.6875 23.539062 15.644531 C 23.316406 15.605469 23.222656 15.59375 23.132812 15.59375 C 23.046875 15.59375 22.777344 15.652344 22.777344 15.652344 C 22.777344 15.652344 22.777344 16.992188 22.777344 16.992188 C 22.777344 16.992188 22.828125 17.167969 23.027344 17.167969 C 23.230469 17.167969 23.875 17.167969 23.941406 17.167969 C 24.011719 17.167969 24.261719 17.109375 24.328125 17.003906 C 24.394531 16.898438 24.570312 16.414062 24.570312 16.414062 C 24.570312 16.414062 24.847656 16.414062 24.847656 16.414062 C 24.847656 16.414062 24.742188 17.640625 24.742188 17.640625 C 24.742188 17.640625 21.152344 17.640625 21.152344 17.640625 C 21.152344 17.640625 21.152344 17.265625 21.152344 17.265625 C 21.152344 17.265625 21.515625 17.292969 21.640625 17.195312 C 21.765625 17.101562 21.796875 17.0625 21.796875 17.0625 C 21.796875 17.0625 21.777344 13.953125 21.777344 13.953125 C 21.777344 13.953125 21.804688 13.65625 21.59375 13.546875 C 21.382812 13.441406 21.210938 13.492188 21.210938 13.492188 Z M 21.210938 13.492188 "/>
<path style=" stroke:none;fill-rule:evenodd;fill:rgb(78.823529%,80%,81.960784%);fill-opacity:1;" d="M 22.03125 13.464844 C 22.03125 13.464844 22.542969 13.464844 22.542969 13.464844 C 22.542969 13.464844 22.542969 17.269531 22.542969 17.269531 C 22.542969 17.269531 22.03125 17.269531 22.03125 17.269531 C 22.03125 17.269531 22.03125 13.464844 22.03125 13.464844 Z M 22.03125 13.464844 "/>
<path style=" stroke:none;fill-rule:evenodd;fill:rgb(8.627451%,7.843137%,7.45098%);fill-opacity:1;" d="M 26.351562 12.351562 C 27.015625 12.351562 27.417969 12.515625 27.417969 12.515625 C 27.417969 12.515625 27.484375 12.546875 27.523438 12.515625 C 27.5625 12.488281 27.648438 12.398438 27.648438 12.398438 C 27.648438 12.398438 27.84375 12.398438 27.84375 12.398438 C 27.84375 12.398438 27.929688 13.925781 27.929688 13.925781 C 27.929688 13.925781 27.59375 13.894531 27.59375 13.894531 C 27.59375 13.894531 27.4375 12.796875 26.457031 12.796875 C 25.675781 12.890625 25.867188 13.617188 26.117188 13.742188 C 26.648438 14.300781 28.140625 14.8125 28.140625 16.191406 C 28.140625 17.574219 26.890625 17.804688 26.609375 17.804688 C 26.332031 17.804688 25.570312 17.601562 25.464844 17.59375 C 25.359375 17.582031 25.273438 17.738281 25.273438 17.738281 C 25.273438 17.738281 25.109375 17.738281 25.109375 17.738281 C 25.109375 17.738281 24.933594 16.105469 24.933594 16.105469 C 24.933594 16.105469 25.214844 16.097656 25.214844 16.097656 C 25.214844 16.097656 25.445312 16.695312 25.597656 16.839844 C 25.753906 16.984375 25.925781 17.320312 26.425781 17.320312 C 26.929688 17.320312 27.101562 16.90625 27.101562 16.539062 C 27.101562 16.171875 26.484375 15.671875 26.253906 15.527344 C 26.023438 15.382812 24.984375 14.9375 24.984375 13.789062 C 24.984375 12.640625 25.6875 12.351562 26.351562 12.351562 Z M 26.351562 12.351562 "/>
<path style=" stroke:none;fill-rule:evenodd;fill:rgb(78.823529%,80%,81.960784%);fill-opacity:1;" d="M 25.523438 13.132812 C 25.523438 13.132812 25.503906 13.519531 25.8125 13.847656 C 26.292969 14.503906 27.84375 14.898438 27.84375 16.097656 C 27.773438 16.976562 27.351562 17.175781 27.351562 17.175781 C 27.351562 17.175781 27.398438 16.992188 27.398438 16.511719 C 27.398438 15.855469 26.425781 15.316406 26.425781 15.316406 C 26.425781 15.316406 25.273438 14.660156 25.273438 13.867188 C 25.273438 13.210938 25.523438 13.132812 25.523438 13.132812 Z M 25.523438 13.132812 "/>
<path style=" stroke:none;fill-rule:evenodd;fill:rgb(100%,100%,100%);fill-opacity:1;" d="M 17.628906 9.351562 C 17.628906 9.351562 17.648438 9.285156 17.648438 9.285156 C 17.648438 9.285156 17.847656 9.378906 17.867188 9.339844 C 17.886719 9.300781 17.878906 9.195312 17.878906 9.195312 C 17.878906 9.195312 17.753906 9.121094 17.753906 9.121094 C 17.753906 9.121094 17.617188 9.121094 17.636719 9.011719 C 17.65625 8.90625 17.742188 8.984375 17.742188 8.984375 C 17.742188 8.984375 17.867188 9.042969 17.867188 9.042969 C 17.867188 9.042969 17.867188 8.839844 17.867188 8.839844 C 17.867188 8.839844 17.714844 8.78125 17.714844 8.703125 C 17.714844 8.628906 17.761719 8.628906 17.761719 8.628906 C 17.761719 8.628906 17.917969 8.734375 17.917969 8.734375 C 17.917969 8.734375 17.992188 8.714844 17.992188 8.664062 C 17.992188 8.617188 17.984375 8.578125 17.984375 8.578125 C 17.984375 8.578125 17.828125 8.433594 17.828125 8.433594 C 17.828125 8.433594 17.8125 8.328125 17.886719 8.328125 C 17.964844 8.328125 18.023438 8.453125 18.023438 8.453125 C 18.023438 8.453125 18.109375 8.414062 18.097656 8.347656 C 18.089844 8.28125 18.042969 8.222656 18.042969 8.222656 C 18.042969 8.222656 17.953125 8.136719 17.972656 8.078125 C 17.992188 8.019531 18.0625 8.027344 18.0625 8.027344 C 18.0625 8.027344 18.117188 8.171875 18.175781 8.171875 C 18.234375 8.171875 18.300781 8.085938 18.273438 8.027344 C 18.242188 7.972656 18.167969 7.84375 18.167969 7.84375 C 18.167969 7.84375 18.175781 7.769531 18.222656 7.769531 C 18.273438 7.769531 18.367188 7.921875 18.367188 7.921875 C 18.367188 7.921875 18.476562 7.960938 18.476562 7.875 C 18.476562 7.789062 18.445312 7.691406 18.445312 7.691406 C 18.445312 7.691406 18.378906 7.605469 18.457031 7.566406 C 18.53125 7.527344 18.53125 7.605469 18.550781 7.644531 C 18.570312 7.679688 18.621094 7.789062 18.65625 7.738281 C 18.695312 7.691406 18.726562 7.605469 18.726562 7.605469 C 18.726562 7.605469 18.6875 7.535156 18.6875 7.46875 C 18.6875 7.402344 18.726562 7.371094 18.726562 7.371094 C 18.726562 7.371094 18.800781 7.277344 18.8125 7.335938 C 18.820312 7.390625 18.820312 7.488281 18.832031 7.515625 C 18.839844 7.546875 18.957031 7.546875 18.964844 7.5 C 18.976562 7.449219 18.984375 7.421875 18.984375 7.421875 C 18.984375 7.421875 18.945312 7.34375 18.976562 7.285156 C 19.003906 7.226562 18.964844 7.199219 19.023438 7.199219 C 19.082031 7.199219 19.121094 7.324219 19.121094 7.324219 C 19.121094 7.324219 19.121094 7.441406 19.167969 7.429688 C 19.214844 7.421875 19.273438 7.335938 19.273438 7.257812 C 19.273438 7.179688 19.304688 7.09375 19.371094 7.082031 C 19.4375 7.074219 19.378906 7.265625 19.378906 7.265625 C 19.378906 7.265625 19.429688 7.351562 19.464844 7.335938 C 19.503906 7.316406 19.554688 7.265625 19.554688 7.265625 C 19.554688 7.265625 19.628906 7.042969 19.628906 7.042969 C 19.628906 7.042969 19.734375 7.042969 19.734375 7.042969 C 19.734375 7.042969 19.699219 7.246094 19.746094 7.257812 C 19.792969 7.265625 19.859375 7.238281 19.859375 7.238281 C 19.859375 7.238281 19.890625 7.113281 19.917969 7.074219 C 19.949219 7.035156 20.042969 7.023438 20.042969 7.023438 C 20.042969 7.023438 20.074219 7.023438 20.0625 7.082031 C 20.054688 7.140625 19.988281 7.238281 20.0625 7.257812 C 20.140625 7.277344 20.207031 7.257812 20.207031 7.257812 C 20.207031 7.257812 20.257812 7.007812 20.363281 7.015625 C 20.46875 7.023438 20.34375 7.1875 20.34375 7.1875 C 20.34375 7.1875 20.351562 7.277344 20.417969 7.296875 C 20.488281 7.316406 20.574219 7.1875 20.574219 7.1875 C 20.574219 7.1875 20.621094 7.09375 20.679688 7.113281 C 20.738281 7.132812 20.621094 7.285156 20.621094 7.285156 C 20.621094 7.285156 20.738281 7.441406 20.738281 7.488281 C 20.738281 7.535156 20.632812 8.484375 19.734375 9.089844 C 18.78125 9.824219 17.628906 9.351562 17.628906 9.351562 Z M 17.628906 9.351562 "/>
<path style=" stroke:none;fill-rule:evenodd;fill:rgb(100%,100%,100%);fill-opacity:1;" d="M 16.355469 6.582031 C 16.320312 6.628906 16.261719 6.621094 16.261719 6.621094 C 16.261719 6.621094 16.210938 6.589844 16.210938 6.589844 C 16.210938 6.589844 16.519531 5.75 17.136719 5.394531 C 17.753906 5.039062 18.148438 5.019531 18.148438 5.019531 C 18.148438 5.019531 18.082031 5.164062 18.082031 5.164062 C 18.082031 5.164062 18.109375 5.25 18.109375 5.25 C 18.109375 5.25 18.273438 5.347656 18.207031 5.414062 C 18.136719 5.480469 18.042969 5.375 18.042969 5.375 C 18.042969 5.375 18.042969 5.257812 17.964844 5.335938 C 17.886719 5.414062 17.945312 5.519531 17.945312 5.519531 C 17.945312 5.519531 18.089844 5.644531 18.023438 5.714844 C 17.953125 5.78125 17.898438 5.65625 17.898438 5.65625 C 17.898438 5.65625 17.847656 5.546875 17.792969 5.605469 C 17.734375 5.664062 17.761719 5.761719 17.761719 5.761719 C 17.761719 5.761719 17.898438 5.972656 17.792969 5.984375 C 17.6875 5.992188 17.636719 5.789062 17.636719 5.789062 C 17.636719 5.789062 17.53125 5.894531 17.53125 5.945312 C 17.53125 5.992188 17.65625 6.117188 17.550781 6.1875 C 17.445312 6.253906 17.425781 6.078125 17.425781 6.078125 C 17.425781 6.078125 17.367188 5.945312 17.308594 6.011719 C 17.253906 6.078125 17.289062 6.1875 17.289062 6.1875 C 17.289062 6.1875 17.328125 6.367188 17.242188 6.367188 C 17.15625 6.367188 17.136719 6.300781 17.136719 6.300781 C 17.136719 6.300781 17.144531 6.097656 17.078125 6.136719 C 17.011719 6.175781 17 6.28125 17 6.28125 C 17 6.28125 17.058594 6.515625 16.933594 6.515625 C 16.808594 6.515625 16.867188 6.359375 16.867188 6.359375 C 16.867188 6.359375 16.847656 6.203125 16.78125 6.234375 C 16.714844 6.261719 16.714844 6.351562 16.714844 6.351562 C 16.714844 6.351562 16.683594 6.550781 16.683594 6.550781 C 16.683594 6.550781 16.550781 6.582031 16.550781 6.582031 C 16.550781 6.582031 16.578125 6.457031 16.558594 6.40625 C 16.539062 6.359375 16.511719 6.339844 16.460938 6.339844 C 16.414062 6.339844 16.367188 6.425781 16.367188 6.425781 C 16.367188 6.425781 16.394531 6.53125 16.355469 6.582031 Z M 16.355469 6.582031 "/>
<path style=" stroke:none;fill-rule:evenodd;fill:rgb(8.627451%,7.843137%,7.45098%);fill-opacity:1;" d="M 18.222656 4.988281 C 18.222656 4.988281 18.398438 5.074219 18.351562 5.132812 C 18.300781 5.191406 18.242188 5.125 18.242188 5.125 C 18.242188 5.125 18.1875 5.046875 18.1875 5.046875 C 18.1875 5.046875 18.222656 4.988281 18.222656 4.988281 Z M 18.222656 4.988281 "/>
<path style=" stroke:none;fill-rule:evenodd;fill:rgb(78.823529%,80%,81.960784%);fill-opacity:1;" d="M 25.859375 7.730469 C 26.167969 8.28125 26.386719 9.050781 25.648438 9.542969 C 24.90625 10.035156 24.125 9.484375 23.90625 9.03125 C 23.683594 8.578125 23.394531 7.882812 24.203125 7.285156 C 24.828125 6.949219 25.550781 7.179688 25.859375 7.730469 Z M 25.859375 7.730469 "/>
<path style=" stroke:none;fill-rule:evenodd;fill:rgb(8.627451%,7.843137%,7.45098%);fill-opacity:1;" d="M 25.753906 7.875 C 25.839844 8.019531 26.109375 8.484375 25.367188 9.03125 C 24.625 9.582031 24.078125 9.136719 24.011719 8.945312 C 23.941406 8.753906 23.722656 8.183594 24.5 7.757812 C 25.28125 7.335938 25.667969 7.730469 25.753906 7.875 Z M 25.753906 7.875 "/>
<path style=" stroke:none;fill-rule:evenodd;fill:rgb(78.823529%,80%,81.960784%);fill-opacity:1;" d="M 22.644531 3.773438 C 22.644531 3.773438 23.210938 4.273438 23.375 4.4375 C 23.539062 4.601562 24.578125 5.511719 23.722656 6.367188 C 22.863281 7.226562 21.796875 6.089844 21.691406 5.972656 C 21.585938 5.859375 21.429688 5.683594 21.34375 5.597656 C 21.257812 5.511719 21.015625 5.296875 21.015625 5.296875 C 21.015625 5.296875 21.09375 5.191406 21.09375 5.191406 C 21.09375 5.191406 21.238281 5.308594 21.277344 5.316406 C 21.316406 5.328125 21.410156 5.316406 21.410156 5.316406 C 21.410156 5.316406 22.507812 4.324219 22.578125 4.246094 C 22.644531 4.167969 22.625 4.035156 22.625 3.984375 C 22.625 3.9375 22.546875 3.832031 22.546875 3.832031 C 22.546875 3.832031 22.644531 3.773438 22.644531 3.773438 Z M 22.644531 3.773438 "/>
<path style=" stroke:none;fill-rule:evenodd;fill:rgb(8.627451%,7.843137%,7.45098%);fill-opacity:1;" d="M 21.796875 5.625 C 21.796875 5.625 22.960938 4.546875 22.960938 4.546875 C 22.960938 4.546875 23.046875 4.402344 23.152344 4.496094 C 23.257812 4.59375 23.691406 4.921875 23.636719 5.394531 C 23.578125 5.867188 23.105469 6.378906 22.566406 6.300781 C 22.027344 6.222656 21.796875 5.859375 21.796875 5.859375 C 21.796875 5.859375 21.679688 5.78125 21.796875 5.625 Z M 21.796875 5.625 "/>
<path style=" stroke:none;fill-rule:evenodd;fill:rgb(78.823529%,80%,81.960784%);fill-opacity:1;" d="M 19.773438 1.976562 C 19.773438 1.976562 20.1875 2.230469 20.1875 2.230469 C 20.1875 2.230469 19.996094 4.273438 20.003906 4.324219 C 20.015625 4.371094 20.023438 4.4375 20.082031 4.507812 C 20.140625 4.574219 20.167969 4.574219 20.167969 4.574219 C 20.167969 4.574219 20.148438 4.640625 20.148438 4.640625 C 20.148438 4.640625 19.128906 4.1875 19.128906 4.1875 C 19.128906 4.1875 19.1875 4.0625 19.1875 4.0625 C 19.1875 4.0625 19.371094 4.160156 19.371094 4.160156 C 19.371094 4.160156 19.535156 4.207031 19.554688 4.054688 C 19.574219 3.898438 19.582031 3.503906 19.582031 3.503906 C 19.582031 3.503906 18.917969 3.144531 18.917969 3.144531 C 18.917969 3.144531 18.523438 3.503906 18.523438 3.503906 C 18.523438 3.503906 18.4375 3.617188 18.496094 3.6875 C 18.550781 3.753906 18.707031 3.832031 18.707031 3.832031 C 18.707031 3.832031 18.667969 3.945312 18.667969 3.945312 C 18.667969 3.945312 17.820312 3.5625 17.820312 3.5625 C 17.820312 3.5625 17.898438 3.445312 17.898438 3.445312 C 17.898438 3.445312 18.050781 3.589844 18.253906 3.417969 C 18.457031 3.242188 19.773438 1.976562 19.773438 1.976562 Z M 19.773438 1.976562 "/>
<path style=" stroke:none;fill-rule:evenodd;fill:rgb(8.627451%,7.843137%,7.45098%);fill-opacity:1;" d="M 19.628906 2.480469 C 19.628906 2.480469 19.601562 3.242188 19.601562 3.242188 C 19.601562 3.242188 19.082031 2.992188 19.082031 2.992188 C 19.082031 2.992188 19.628906 2.480469 19.628906 2.480469 Z M 19.628906 2.480469 "/>
<path style=" stroke:none;fill-rule:evenodd;fill:rgb(78.823529%,80%,81.960784%);fill-opacity:1;" d="M 15.480469 2.160156 C 15.480469 2.160156 15.703125 2.191406 15.703125 2.191406 C 15.703125 2.191406 15.742188 2.21875 15.78125 2.285156 C 15.816406 2.355469 16.144531 3.039062 16.144531 3.039062 C 16.144531 3.039062 16.28125 3.214844 16.472656 3.242188 C 16.664062 3.269531 17.050781 3.300781 17.050781 3.300781 C 17.050781 3.300781 17.070312 3.234375 16.972656 3.175781 C 16.875 3.117188 16.695312 2.992188 16.570312 2.644531 C 16.414062 2.363281 16.289062 2.152344 16.289062 2.152344 C 16.289062 2.152344 16.828125 2.066406 16.875 1.660156 C 16.925781 1.253906 16.652344 1.003906 16.191406 0.90625 C 15.695312 0.800781 15.382812 0.800781 15.382812 0.800781 C 15.382812 0.800781 14.808594 0.753906 14.808594 0.753906 C 14.808594 0.753906 14.757812 0.859375 14.757812 0.859375 C 14.757812 0.859375 15.066406 1.003906 15.066406 1.003906 C 15.066406 1.003906 14.902344 2.710938 14.882812 2.761719 C 14.863281 2.808594 14.691406 2.867188 14.632812 2.867188 C 14.574219 2.867188 14.5 2.855469 14.5 2.855469 C 14.5 2.855469 14.488281 2.953125 14.488281 2.953125 C 14.488281 2.953125 15.703125 3.117188 15.703125 3.117188 C 15.703125 3.117188 15.722656 3.011719 15.722656 3.011719 C 15.722656 3.011719 15.527344 2.953125 15.527344 2.953125 C 15.527344 2.953125 15.375 2.953125 15.394531 2.730469 C 15.414062 2.507812 15.480469 2.160156 15.480469 2.160156 Z M 15.480469 2.160156 "/>
<path style=" stroke:none;fill-rule:evenodd;fill:rgb(8.627451%,7.843137%,7.45098%);fill-opacity:1;" d="M 15.511719 1.988281 C 15.511719 1.988281 15.636719 1.023438 15.636719 1.023438 C 15.636719 1.023438 15.78125 1.003906 15.921875 1.042969 C 16.066406 1.082031 16.425781 1.226562 16.355469 1.554688 C 16.289062 1.882812 16.164062 2.066406 15.835938 2.046875 C 15.511719 2.027344 15.511719 1.988281 15.511719 1.988281 Z M 15.511719 1.988281 "/>
<path style=" stroke:none;fill-rule:evenodd;fill:rgb(78.823529%,80%,81.960784%);fill-opacity:1;" d="M 11.515625 1.089844 C 12.035156 0.820312 13.027344 0.886719 13.277344 1.496094 C 13.527344 2.105469 13.449219 2.769531 12.648438 3.136719 C 11.851562 3.503906 11.023438 3.117188 10.851562 2.578125 C 10.675781 2.035156 10.917969 1.398438 11.515625 1.089844 Z M 11.515625 1.089844 "/>
<path style=" stroke:none;fill-rule:evenodd;fill:rgb(8.627451%,7.843137%,7.45098%);fill-opacity:1;" d="M 11.792969 1.136719 C 12.074219 1.0625 12.582031 1.175781 12.804688 1.785156 C 13.027344 2.394531 12.890625 2.914062 12.507812 3.039062 C 12.121094 3.164062 11.582031 3.117188 11.332031 2.25 C 11.148438 1.476562 11.515625 1.214844 11.792969 1.136719 Z M 11.792969 1.136719 "/>
<path style=" stroke:none;fill-rule:evenodd;fill:rgb(78.823529%,80%,81.960784%);fill-opacity:1;" d="M 7.402344 2.828125 C 7.402344 2.828125 8.453125 2.269531 8.453125 2.269531 C 8.453125 2.269531 8.492188 2.355469 8.492188 2.355469 C 8.492188 2.355469 8.355469 2.414062 8.316406 2.488281 C 8.28125 2.566406 8.25 2.605469 8.25 2.605469 C 8.25 2.605469 9.089844 4.179688 9.089844 4.179688 C 9.089844 4.179688 9.722656 3.820312 9.722656 3.820312 C 9.722656 3.820312 9.878906 3.714844 9.886719 3.636719 C 9.898438 3.5625 9.953125 3.222656 9.953125 3.222656 C 9.953125 3.222656 10.03125 3.242188 10.03125 3.242188 C 10.03125 3.242188 10.128906 3.8125 10.128906 3.8125 C 10.128906 3.8125 8.441406 4.765625 8.441406 4.765625 C 8.441406 4.765625 8.394531 4.640625 8.394531 4.640625 C 8.394531 4.640625 8.644531 4.535156 8.578125 4.351562 C 8.511719 4.167969 7.835938 2.980469 7.835938 2.980469 C 7.835938 2.980469 7.789062 2.855469 7.691406 2.855469 C 7.597656 2.855469 7.5 2.914062 7.5 2.914062 C 7.5 2.914062 7.402344 2.828125 7.402344 2.828125 Z M 7.402344 2.828125 "/>
<path style=" stroke:none;fill-rule:evenodd;fill:rgb(78.823529%,80%,81.960784%);fill-opacity:1;" d="M 5.015625 4.757812 C 5.566406 4.121094 6.230469 4.015625 6.738281 4.410156 C 7.25 4.804688 7.414062 5.519531 6.902344 6.148438 C 6.390625 6.773438 5.746094 6.859375 5.160156 6.503906 C 4.71875 6.175781 4.523438 5.480469 5.015625 4.757812 Z M 5.015625 4.757812 "/>
<path style=" stroke:none;fill-rule:evenodd;fill:rgb(8.627451%,7.843137%,7.45098%);fill-opacity:1;" d="M 5.152344 4.855469 C 5.339844 4.558594 5.804688 4.429688 6.335938 4.765625 C 6.863281 5.105469 7.125 5.703125 6.757812 6.078125 C 6.390625 6.457031 5.890625 6.378906 5.488281 6.050781 C 5.082031 5.722656 4.863281 5.308594 5.152344 4.855469 Z M 5.152344 4.855469 "/>
<path style=" stroke:none;fill-rule:evenodd;fill:rgb(78.823529%,80%,81.960784%);fill-opacity:1;" d="M 3.351562 9.582031 C 2.796875 9.386719 2.542969 8.609375 2.851562 7.894531 C 3.121094 7.390625 3.234375 7.402344 3.3125 7.316406 C 3.320312 7.246094 3.3125 7.207031 3.332031 7.160156 C 3.351562 7.113281 3.898438 7.390625 3.898438 7.390625 C 3.898438 7.390625 3.851562 7.460938 3.851562 7.460938 C 3.851562 7.460938 3.804688 7.46875 3.714844 7.46875 C 3.628906 7.46875 3.3125 7.402344 3.023438 7.941406 C 2.734375 8.484375 3.253906 8.945312 3.535156 9.082031 C 3.8125 9.214844 4.546875 9.410156 4.863281 8.683594 C 5.039062 8.269531 4.84375 7.988281 4.84375 7.988281 C 4.84375 7.988281 4.726562 7.828125 4.726562 7.828125 C 4.726562 7.828125 4.792969 7.699219 4.792969 7.699219 C 4.792969 7.699219 5.238281 8.117188 5.238281 8.117188 C 5.238281 8.117188 5.140625 8.269531 5.121094 8.347656 C 5.101562 8.425781 4.996094 8.839844 4.949219 8.925781 C 4.898438 9.011719 4.410156 9.96875 3.351562 9.582031 Z M 3.351562 9.582031 "/>
<path style=" stroke:none;fill-rule:evenodd;fill:rgb(8.627451%,7.843137%,7.45098%);fill-opacity:1;" d="M 28.003906 19.5625 C 28.003906 19.292969 28.222656 19.074219 28.492188 19.074219 C 28.765625 19.074219 28.980469 19.292969 28.980469 19.5625 C 28.980469 19.835938 28.765625 20.054688 28.492188 20.054688 C 28.222656 20.054688 28.003906 19.835938 28.003906 19.5625 Z M 28.921875 19.5625 C 28.921875 19.324219 28.730469 19.132812 28.492188 19.132812 C 28.253906 19.132812 28.0625 19.324219 28.0625 19.5625 C 28.0625 19.804688 28.253906 19.996094 28.492188 19.996094 C 28.730469 19.996094 28.921875 19.804688 28.921875 19.5625 Z M 28.738281 19.835938 C 28.738281 19.835938 28.65625 19.835938 28.65625 19.835938 C 28.65625 19.835938 28.5 19.585938 28.5 19.585938 C 28.5 19.585938 28.378906 19.585938 28.378906 19.585938 C 28.378906 19.585938 28.378906 19.835938 28.378906 19.835938 C 28.378906 19.835938 28.3125 19.835938 28.3125 19.835938 C 28.3125 19.835938 28.3125 19.289062 28.3125 19.289062 C 28.3125 19.289062 28.550781 19.289062 28.550781 19.289062 C 28.597656 19.289062 28.640625 19.292969 28.683594 19.316406 C 28.722656 19.339844 28.746094 19.386719 28.746094 19.433594 C 28.746094 19.542969 28.667969 19.582031 28.570312 19.585938 C 28.570312 19.585938 28.738281 19.835938 28.738281 19.835938 Z M 28.480469 19.53125 C 28.558594 19.53125 28.675781 19.542969 28.675781 19.433594 C 28.675781 19.347656 28.601562 19.335938 28.535156 19.335938 C 28.535156 19.335938 28.378906 19.335938 28.378906 19.335938 C 28.378906 19.335938 28.378906 19.53125 28.378906 19.53125 C 28.378906 19.53125 28.480469 19.53125 28.480469 19.53125 Z M 28.480469 19.53125 "/>
<path style=" stroke:none;fill-rule:evenodd;fill:rgb(78.823529%,80%,81.960784%);fill-opacity:1;" d="M 14.945312 13.464844 C 14.945312 13.464844 15.457031 13.464844 15.457031 13.464844 C 15.457031 13.464844 15.457031 17.238281 15.457031 17.238281 C 15.457031 17.238281 14.945312 17.238281 14.945312 17.238281 C 14.945312 17.238281 14.945312 13.464844 14.945312 13.464844 Z M 14.945312 13.464844 "/>
<path style=" stroke:none;fill-rule:evenodd;fill:rgb(78.823529%,80%,81.960784%);fill-opacity:1;" d="M 16.039062 15.460938 C 16.039062 15.460938 16.40625 15.074219 16.40625 15.074219 C 16.40625 15.074219 16.761719 15.402344 17.109375 15.941406 C 17.453125 16.480469 17.917969 17.214844 17.917969 17.214844 C 17.917969 17.214844 17.164062 17.214844 17.164062 17.214844 C 17.164062 17.214844 17.195312 16.90625 16.839844 16.472656 C 16.519531 15.992188 16.039062 15.460938 16.039062 15.460938 Z M 16.039062 15.460938 "/>
</g>
</svg>
