<?xml version="1.0" encoding="UTF-8"?>
<svg xmlns="http://www.w3.org/2000/svg" xmlns:xlink="http://www.w3.org/1999/xlink" width="29pt" height="20pt" viewBox="0 0 29 20" version="1.1">
<g id="surface1">
<path style=" stroke:none;fill-rule:nonzero;fill:rgb(100%,0%,15.686275%);fill-opacity:1;" d="M 16.300781 19.953125 C 24.375 19.953125 29 14.648438 29 9.832031 C 29 4.0625 22.601562 0 15.765625 0 C 10.277344 0 6.476562 3.269531 4.40625 5.742188 C 1.570312 9.140625 0 9.574219 0 9.574219 C 2.199219 11.511719 3.234375 12.5 4.253906 13.609375 C 7.132812 16.746094 9.519531 19.953125 16.300781 19.953125 Z M 16.300781 19.953125 "/>
<path style=" stroke:none;fill-rule:nonzero;fill:rgb(0%,0%,0%);fill-opacity:1;" d="M 16.160156 18.585938 C 10.292969 18.585938 7.988281 16.054688 5.269531 13.152344 C 4.15625 11.960938 3.460938 10.886719 1.65625 9.546875 L 2.027344 10.410156 C 3.761719 11.835938 4.476562 12.867188 5.589844 14.058594 C 8.308594 16.960938 10.574219 19.246094 16.441406 19.246094 C 21.578125 19.246094 25.554688 16.695312 27.421875 13.550781 L 27.140625 12.890625 C 25.273438 16.03125 21.296875 18.585938 16.160156 18.585938 Z M 16.160156 18.585938 "/>
<path style=" stroke:none;fill-rule:nonzero;fill:rgb(0%,0%,0%);fill-opacity:1;" d="M 16.308594 3.800781 C 10.574219 3.800781 8.320312 7.640625 8.320312 9.480469 C 8.320312 10.542969 8.628906 11.480469 9.152344 12.28125 C 8.808594 11.628906 8.730469 10.652344 8.730469 10.019531 C 8.730469 8.179688 10.894531 4.476562 16.503906 4.476562 C 19.878906 4.476562 22.425781 6.042969 23.28125 7.402344 L 27.527344 7.402344 C 27.449219 7.25 27.261719 6.730469 27.261719 6.730469 L 23.203125 6.730469 C 22.347656 5.367188 19.683594 3.800781 16.308594 3.800781 Z M 16.308594 3.800781 "/>
<path style=" stroke:none;fill-rule:nonzero;fill:rgb(100%,100%,100%);fill-opacity:1;" d="M 5.269531 13.152344 C 7.988281 16.054688 10.292969 18.585938 16.160156 18.585938 C 21.296875 18.585938 25.273438 16.03125 27.140625 12.890625 L 23.128906 12.890625 C 21.253906 14.324219 18.953125 15.480469 16.03125 15.480469 C 13.332031 15.480469 10.515625 14.347656 9.152344 12.28125 C 8.628906 11.480469 8.320312 10.542969 8.320312 9.480469 C 8.320312 7.640625 10.574219 3.800781 16.308594 3.800781 C 19.683594 3.800781 22.347656 5.371094 23.203125 6.730469 L 27.261719 6.730469 C 25.378906 2.988281 20.523438 0.734375 15.664062 0.734375 C 10.894531 0.734375 7.25 3.503906 5.15625 6 C 2.386719 9.304688 1.65625 9.546875 1.65625 9.546875 C 3.460938 10.886719 4.15625 11.960938 5.269531 13.152344 Z M 5.269531 13.152344 "/>
<path style=" stroke:none;fill-rule:nonzero;fill:rgb(0%,0%,0%);fill-opacity:1;" d="M 16.449219 8.667969 L 16.449219 9.554688 L 16.894531 9.554688 L 16.894531 9.113281 L 17.78125 9.113281 L 18.242188 9.550781 L 19.144531 9.550781 L 19.144531 8.34375 L 18.699219 7.894531 L 18.699219 9.101562 L 17.796875 9.101562 L 17.796875 8.667969 Z M 16.449219 8.667969 "/>
<path style=" stroke:none;fill-rule:nonzero;fill:rgb(0%,0%,0%);fill-opacity:1;" d="M 19.144531 12.386719 L 19.144531 11.207031 L 18.699219 10.761719 L 18.699219 11.941406 L 14.949219 11.941406 L 15.390625 12.386719 Z M 19.144531 12.386719 "/>
<path style=" stroke:none;fill-rule:nonzero;fill:rgb(0%,0%,0%);fill-opacity:1;" d="M 16.894531 10.757812 L 18.003906 10.757812 L 18.003906 10 L 17.558594 9.554688 L 17.558594 10.3125 L 16.449219 10.3125 L 16.449219 11.195312 L 16.894531 11.195312 Z M 16.894531 10.757812 "/>
<path style=" stroke:none;fill-rule:nonzero;fill:rgb(0%,0%,0%);fill-opacity:1;" d="M 15.546875 9.113281 L 15.546875 8.667969 L 14.949219 8.667969 L 15.390625 9.113281 Z M 15.546875 9.113281 "/>
<path style=" stroke:none;fill-rule:nonzero;fill:rgb(0%,0%,0%);fill-opacity:1;" d="M 10.394531 8.667969 L 9.792969 8.667969 L 10.234375 9.113281 L 10.394531 9.113281 Z M 10.394531 8.667969 "/>
<path style=" stroke:none;fill-rule:nonzero;fill:rgb(0%,0%,0%);fill-opacity:1;" d="M 12.339844 11.644531 L 11.898438 11.195312 L 11.898438 11.941406 L 9.792969 11.941406 L 10.234375 12.386719 L 12.339844 12.386719 Z M 12.339844 11.644531 "/>
<path style=" stroke:none;fill-rule:nonzero;fill:rgb(0%,0%,0%);fill-opacity:1;" d="M 13.464844 10.550781 L 14.136719 10 L 14.136719 9.109375 L 13.691406 8.664062 L 13.691406 9.554688 L 13.023438 10.105469 L 13.492188 11.195312 L 13.742188 11.195312 Z M 13.464844 10.550781 "/>
<path style=" stroke:none;fill-rule:nonzero;fill:rgb(0%,0%,0%);fill-opacity:1;" d="M 11.738281 10.75 L 12.339844 10.75 L 12.148438 10.300781 L 11.296875 10.300781 L 11.296875 11.195312 L 11.738281 11.195312 Z M 11.738281 10.75 "/>
<path style=" stroke:none;fill-rule:nonzero;fill:rgb(0%,0%,0%);fill-opacity:1;" d="M 14.4375 12.386719 L 14.4375 11.644531 L 13.992188 11.195312 L 13.992188 11.941406 L 12.847656 11.941406 L 13.292969 12.386719 Z M 14.4375 12.386719 "/>
<path style=" stroke:none;fill-rule:nonzero;fill:rgb(0%,0%,0%);fill-opacity:1;" d="M 11.296875 8.667969 L 11.296875 9.558594 L 11.738281 9.558594 L 11.738281 9.113281 L 12.789062 9.113281 L 12.789062 8.859375 L 12.558594 8.667969 Z M 11.296875 8.667969 "/>
<path style=" stroke:none;fill-rule:nonzero;fill:rgb(100%,100%,100%);fill-opacity:1;" d="M 18.699219 9.101562 L 18.699219 7.894531 L 14.945312 7.894531 L 14.945312 8.667969 L 15.546875 8.667969 L 15.546875 11.195312 L 14.945312 11.195312 L 14.945312 11.941406 L 18.699219 11.941406 L 18.699219 10.761719 L 17.796875 10.761719 L 17.796875 11.195312 L 16.449219 11.195312 L 16.449219 10.3125 L 17.558594 10.3125 L 17.558594 9.554688 L 16.449219 9.554688 L 16.449219 8.667969 L 17.796875 8.667969 L 17.796875 9.101562 Z M 18.699219 9.101562 "/>
<path style=" stroke:none;fill-rule:nonzero;fill:rgb(100%,100%,100%);fill-opacity:1;" d="M 13.992188 11.195312 L 13.492188 11.195312 L 13.023438 10.105469 L 13.691406 9.554688 L 13.691406 8.664062 L 12.785156 7.894531 L 9.792969 7.894531 L 9.792969 8.667969 L 10.394531 8.667969 L 10.394531 11.195312 L 9.792969 11.195312 L 9.792969 11.941406 L 11.898438 11.941406 L 11.898438 11.195312 L 11.296875 11.195312 L 11.296875 10.300781 L 12.148438 10.300781 L 12.339844 10.75 L 12.847656 11.941406 L 13.992188 11.941406 Z M 11.738281 9.558594 L 11.296875 9.558594 L 11.296875 8.667969 L 12.558594 8.667969 L 12.789062 8.859375 L 12.789062 9.375 L 12.570312 9.558594 Z M 11.738281 9.558594 "/>
<path style=" stroke:none;fill-rule:nonzero;fill:rgb(0%,0%,0%);fill-opacity:1;" d="M 20.25 9.113281 L 20.25 8.667969 L 19.652344 8.667969 L 20.089844 9.113281 Z M 20.25 9.113281 "/>
<path style=" stroke:none;fill-rule:nonzero;fill:rgb(0%,0%,0%);fill-opacity:1;" d="M 21.152344 8.667969 L 21.152344 11.195312 L 21.59375 11.195312 L 21.59375 9.113281 L 22.5 9.113281 L 22.5 8.859375 L 22.273438 8.667969 Z M 21.152344 8.667969 "/>
<path style=" stroke:none;fill-rule:nonzero;fill:rgb(0%,0%,0%);fill-opacity:1;" d="M 20.089844 12.386719 L 22.65625 12.386719 L 23.847656 11.40625 L 23.847656 9.109375 L 23.402344 8.664062 L 23.402344 11.191406 L 22.496094 11.941406 L 19.652344 11.941406 Z M 20.089844 12.386719 "/>
<path style=" stroke:none;fill-rule:nonzero;fill:rgb(0%,0%,0%);fill-opacity:1;" d="M 25.757812 10.757812 L 26.597656 10.757812 L 26.597656 10.5 L 26.371094 10.3125 L 25.230469 10.3125 L 24.328125 9.554688 Z M 25.757812 10.757812 "/>
<path style=" stroke:none;fill-rule:nonzero;fill:rgb(0%,0%,0%);fill-opacity:1;" d="M 26.589844 11.949219 L 25.460938 11.949219 L 25.226562 11.75 L 25.226562 11.960938 L 24.328125 11.960938 L 24.773438 12.40625 L 25.671875 12.40625 L 25.671875 12.195312 L 25.90625 12.394531 L 26.773438 12.394531 L 27.941406 11.433594 L 27.9375 10.757812 L 27.492188 10.3125 L 27.5 11.179688 Z M 26.589844 11.949219 "/>
<path style=" stroke:none;fill-rule:nonzero;fill:rgb(0%,0%,0%);fill-opacity:1;" d="M 25.476562 8.667969 L 25.246094 8.863281 L 25.246094 9.363281 L 25.46875 9.554688 L 25.6875 9.554688 L 25.6875 9.308594 L 25.921875 9.113281 L 26.582031 9.113281 L 27.039062 9.550781 L 27.9375 9.550781 L 27.9375 8.34375 L 27.492188 7.894531 L 27.492188 9.101562 L 26.597656 9.101562 L 26.597656 8.859375 L 26.367188 8.667969 Z M 25.476562 8.667969 "/>
<path style=" stroke:none;fill-rule:nonzero;fill:rgb(0%,0%,0%);fill-opacity:1;" d="M 25.226562 11.003906 L 25.445312 11.1875 L 25.6875 11.191406 L 25.226562 10.75 Z M 25.226562 11.003906 "/>
<path style=" stroke:none;fill-rule:nonzero;fill:rgb(100%,100%,100%);fill-opacity:1;" d="M 23.402344 11.191406 L 23.402344 8.664062 L 22.496094 7.894531 L 19.648438 7.894531 L 19.648438 8.667969 L 20.25 8.667969 L 20.25 11.195312 L 19.648438 11.195312 L 19.648438 11.941406 L 22.496094 11.941406 Z M 21.59375 11.195312 L 21.152344 11.195312 L 21.152344 8.667969 L 22.273438 8.667969 L 22.5 8.859375 L 22.5 11.011719 L 22.28125 11.195312 Z M 21.59375 11.195312 "/>
<path style=" stroke:none;fill-rule:nonzero;fill:rgb(100%,100%,100%);fill-opacity:1;" d="M 26.589844 11.949219 L 27.5 11.179688 L 27.492188 10.3125 L 26.589844 9.554688 L 25.46875 9.554688 L 25.246094 9.363281 L 25.246094 8.863281 L 25.476562 8.667969 L 26.367188 8.667969 L 26.597656 8.859375 L 26.597656 9.101562 L 27.492188 9.101562 L 27.492188 7.894531 L 26.597656 7.894531 L 26.597656 8.09375 L 26.363281 7.894531 L 25.25 7.894531 L 24.328125 8.664062 L 24.328125 9.554688 L 25.230469 10.3125 L 26.371094 10.3125 L 26.597656 10.5 L 26.597656 11.011719 L 26.378906 11.195312 L 25.6875 11.191406 L 25.445312 11.1875 L 25.226562 11.003906 L 25.226562 10.75 L 24.328125 10.75 L 24.328125 11.960938 L 25.226562 11.960938 L 25.226562 11.75 L 25.460938 11.949219 Z M 26.589844 11.949219 "/>
<path style=" stroke:none;fill-rule:nonzero;fill:rgb(0%,0%,0%);fill-opacity:1;" d="M 26.605469 17.296875 L 26.316406 17.296875 L 26.316406 18.085938 L 26.121094 18.085938 L 26.121094 17.296875 L 25.832031 17.296875 L 25.832031 17.125 L 26.605469 17.125 Z M 27.910156 18.085938 L 27.714844 18.085938 L 27.714844 17.320312 L 27.710938 17.320312 L 27.433594 18.085938 L 27.246094 18.085938 L 26.980469 17.320312 L 26.972656 17.320312 L 26.972656 18.085938 L 26.777344 18.085938 L 26.777344 17.125 L 27.117188 17.125 L 27.339844 17.753906 L 27.34375 17.753906 L 27.574219 17.125 L 27.910156 17.125 Z M 27.910156 18.085938 "/>
</g>
</svg>
