<?xml version="1.0" encoding="UTF-8"?>
<svg xmlns="http://www.w3.org/2000/svg" xmlns:xlink="http://www.w3.org/1999/xlink" width="18pt" height="20pt" viewBox="0 0 18 20" version="1.1">
<g id="surface1">
<path style=" stroke:none;fill-rule:nonzero;fill:rgb(0%,27.45098%,51.764706%);fill-opacity:1;" d="M 5.136719 17.90625 C 5.480469 17.734375 5.578125 17.484375 5.628906 17.234375 C 5.648438 17.136719 5.589844 17.132812 5.527344 17.203125 C 5.160156 17.542969 4.441406 17.617188 3.976562 16.707031 C 3.738281 16.238281 3.503906 15.867188 3.210938 15.636719 C 3.957031 15.367188 4.464844 14.730469 4.425781 14.058594 C 4.375 13.242188 3.539062 12.625 2.453125 12.699219 C 0.203125 12.847656 -0.445312 14.863281 0.285156 15.039062 C 0.84375 15.171875 1.125 14.648438 1.167969 14.273438 C 1.027344 14.402344 0.714844 14.5 0.773438 14.054688 C 0.824219 13.632812 1.542969 13.085938 2.453125 13.019531 C 3.089844 12.972656 3.605469 13.523438 3.636719 14.148438 C 3.664062 14.699219 3.308594 15.207031 2.792969 15.421875 C 2.566406 15.359375 2.3125 15.363281 2.003906 15.449219 C 1.988281 14.292969 2.121094 13.648438 2.472656 13.273438 C 2.269531 13.34375 2.046875 13.464844 1.859375 13.683594 C 1.199219 14.46875 1.425781 16.753906 1.265625 17.523438 C 1.191406 17.9375 0.738281 18.15625 0.523438 17.789062 C 0.0546875 18.476562 0.839844 19.054688 1.457031 18.726562 C 1.753906 18.574219 2.175781 18.160156 2.097656 17.164062 C 2.054688 16.605469 2.023438 16.121094 2.011719 15.699219 C 2.199219 15.65625 2.507812 15.667969 2.734375 16.085938 C 2.992188 16.5625 3.625 18.660156 5.136719 17.90625 "/>
<path style=" stroke:none;fill-rule:nonzero;fill:rgb(0%,27.45098%,51.764706%);fill-opacity:1;" d="M 16.625 13.378906 C 16.683594 13.132812 16.671875 12.859375 16.597656 12.589844 C 16.34375 11.671875 16.535156 11.355469 16.710938 11.199219 C 14.65625 10.933594 14.648438 14.027344 13.699219 14.351562 C 13.535156 14.40625 13.382812 14.269531 13.367188 14.0625 C 14.699219 12.480469 14.46875 10.277344 13.300781 10.164062 C 13.011719 10.136719 12.71875 10.410156 12.722656 10.910156 C 12.722656 10.910156 12.722656 13.527344 12.722656 13.78125 C 12.726562 14.03125 12.722656 14.125 12.730469 14.179688 C 12.738281 14.214844 12.746094 14.25 12.75 14.28125 C 12.695312 14.332031 12.640625 14.382812 12.582031 14.433594 C 12.167969 14.78125 12.101562 14.65625 12.0625 14.34375 L 12.0625 12.386719 L 11.394531 12.558594 C 11.394531 12.558594 11.390625 12.617188 11.390625 12.703125 C 11.300781 12.617188 11.128906 12.597656 10.996094 12.601562 C 10.207031 12.621094 9.601562 13.9375 9.816406 14.941406 C 9.675781 15.101562 9.480469 15.28125 9.257812 15.476562 L 9.261719 13.152344 L 8.582031 13.34375 L 8.574219 15.101562 C 8.574219 15.132812 8.574219 15.199219 8.570312 15.292969 C 8.484375 15.625 8.214844 15.808594 8.070312 15.785156 C 7.929688 15.765625 7.886719 15.519531 7.890625 15.40625 L 7.890625 13.527344 L 7.246094 13.691406 C 7.261719 14.441406 6.960938 14.765625 6.621094 14.886719 C 6.515625 14.460938 6.257812 14.121094 5.855469 14.058594 C 5.652344 14.027344 5.484375 14.078125 5.363281 14.179688 C 4.46875 14.46875 4.296875 15.929688 4.675781 16.535156 C 4.898438 16.90625 5.1875 16.988281 5.347656 17 C 6.277344 17.089844 6.730469 16.117188 6.679688 15.265625 C 6.914062 15.191406 7.109375 15.054688 7.222656 14.878906 L 7.210938 15.433594 C 7.214844 15.808594 7.261719 16.351562 7.6875 16.351562 C 8.011719 16.351562 8.324219 16.117188 8.582031 15.824219 C 8.582031 15.910156 8.582031 16 8.582031 16.09375 C 8.136719 16.519531 7.71875 16.996094 7.546875 17.492188 C 7.535156 17.523438 7.527344 17.558594 7.519531 17.589844 C 6.769531 17.792969 6.136719 17.957031 5.753906 18.042969 C 3.414062 18.5625 2.746094 19.203125 2.640625 20 C 3.453125 19.089844 4.410156 19.445312 4.679688 19.605469 C 4.746094 19.464844 5.085938 18.980469 5.90625 18.667969 C 6.402344 18.476562 6.921875 18.289062 7.453125 18.105469 C 7.449219 18.78125 7.757812 19.476562 8.402344 19.367188 C 8.898438 19.285156 9.265625 18.953125 9.257812 17.640625 L 9.257812 17.566406 C 12.03125 16.671875 14.800781 15.910156 16.71875 15.25 C 17.714844 14.90625 17.507812 13.726562 16.625 13.378906 M 5.851562 14.453125 C 6.015625 14.515625 6.140625 14.707031 6.210938 14.949219 C 5.96875 14.945312 5.765625 14.882812 5.707031 14.851562 C 5.355469 14.648438 5.589844 14.351562 5.851562 14.453125 M 5.726562 16.390625 C 5.085938 16.394531 5.09375 15.304688 5.285156 14.929688 C 5.34375 15.003906 5.417969 15.074219 5.523438 15.132812 C 5.769531 15.273438 6.035156 15.335938 6.28125 15.332031 C 6.316406 15.84375 6.152344 16.390625 5.726562 16.390625 M 15.601562 13.484375 C 15.605469 13.484375 15.609375 13.484375 15.609375 13.484375 C 15.644531 13.480469 15.675781 13.480469 15.707031 13.476562 C 15.710938 13.476562 15.710938 13.476562 15.714844 13.476562 C 15.746094 13.476562 15.777344 13.476562 15.808594 13.476562 C 15.808594 13.476562 15.8125 13.476562 15.8125 13.476562 C 15.84375 13.480469 15.878906 13.484375 15.914062 13.488281 C 15.914062 13.488281 15.914062 13.488281 15.917969 13.488281 C 15.921875 13.488281 15.925781 13.488281 15.929688 13.492188 C 15.878906 13.726562 15.746094 13.902344 15.484375 13.953125 C 14.898438 14.074219 14.921875 13.570312 15.371094 13.515625 C 15.457031 13.503906 15.535156 13.492188 15.601562 13.484375 M 15.929688 11.644531 C 15.679688 11.886719 15.921875 12.570312 15.953125 13.132812 C 15.957031 13.152344 15.953125 13.167969 15.957031 13.1875 C 15.757812 13.15625 15.546875 13.15625 15.261719 13.191406 C 15.03125 13.21875 14.867188 13.296875 14.757812 13.398438 C 15.035156 12.714844 15.457031 11.722656 15.929688 11.644531 M 13.890625 11.171875 C 14.082031 11.851562 13.886719 12.746094 13.378906 13.53125 C 13.378906 12.773438 13.378906 11.136719 13.378906 10.941406 C 13.375 10.585938 13.738281 10.636719 13.890625 11.171875 M 10.6875 13.222656 C 10.921875 12.769531 11.363281 12.914062 11.425781 13.171875 C 11.425781 13.640625 11.414062 14.078125 11.414062 14.222656 C 11.417969 14.605469 11.136719 15.070312 10.828125 15.050781 C 10.378906 15.023438 10.351562 13.867188 10.6875 13.222656 M 8.582031 16.523438 C 8.582031 16.789062 8.582031 17.046875 8.582031 17.257812 C 8.367188 17.316406 8.152344 17.375 7.949219 17.429688 C 7.953125 17.421875 7.953125 17.414062 7.957031 17.402344 C 8.09375 17.101562 8.316406 16.808594 8.582031 16.523438 M 8.316406 18.917969 C 8.027344 18.992188 7.847656 18.523438 7.84375 18.035156 C 8.089844 17.953125 8.335938 17.871094 8.582031 17.789062 C 8.578125 18.613281 8.542969 18.859375 8.316406 18.917969 M 16.617188 14.96875 C 15.222656 15.382812 12.03125 16.304688 9.257812 17.070312 L 9.257812 15.882812 C 9.503906 15.667969 9.75 15.464844 9.964844 15.269531 C 10.046875 15.5 10.886719 15.949219 11.417969 14.976562 C 11.664062 15.734375 12.523438 14.828125 12.722656 14.675781 C 12.773438 14.640625 12.820312 14.601562 12.867188 14.5625 C 13.148438 14.96875 13.761719 14.859375 14.113281 14.523438 C 14.296875 14.347656 14.480469 14.046875 14.601562 13.777344 C 14.632812 14.066406 14.960938 14.339844 15.546875 14.277344 C 16.023438 14.226562 16.335938 14 16.507812 13.6875 C 16.539062 13.703125 16.574219 13.71875 16.609375 13.734375 C 17.304688 14.054688 17.140625 14.8125 16.617188 14.96875 "/>
<path style=" stroke:none;fill-rule:nonzero;fill:rgb(0%,27.45098%,51.764706%);fill-opacity:1;" d="M 17.308594 11.578125 L 17.15625 11.578125 L 17.15625 12 L 17.050781 12 L 17.050781 11.578125 L 16.894531 11.578125 L 16.894531 11.488281 L 17.308594 11.488281 Z M 18.011719 12 L 17.90625 12 L 17.90625 11.59375 L 17.902344 11.59375 L 17.753906 12 L 17.65625 12 L 17.511719 11.59375 L 17.507812 11.59375 L 17.507812 12 L 17.402344 12 L 17.402344 11.488281 L 17.585938 11.488281 L 17.703125 11.820312 L 17.707031 11.820312 L 17.832031 11.488281 L 18.011719 11.488281 Z M 18.011719 12 "/>
<path style=" stroke:none;fill-rule:nonzero;fill:rgb(0%,27.45098%,51.764706%);fill-opacity:1;" d="M 17.308594 11.578125 L 17.15625 11.578125 L 17.15625 12 L 17.050781 12 L 17.050781 11.578125 L 16.894531 11.578125 L 16.894531 11.488281 L 17.308594 11.488281 Z M 18.011719 12 L 17.90625 12 L 17.90625 11.59375 L 17.902344 11.59375 L 17.753906 12 L 17.65625 12 L 17.511719 11.59375 L 17.507812 11.59375 L 17.507812 12 L 17.402344 12 L 17.402344 11.488281 L 17.585938 11.488281 L 17.703125 11.820312 L 17.707031 11.820312 L 17.832031 11.488281 L 18.011719 11.488281 Z M 18.011719 12 "/>
<path style=" stroke:none;fill-rule:nonzero;fill:rgb(0%,27.45098%,51.764706%);fill-opacity:1;" d="M 17.308594 11.578125 L 17.15625 11.578125 L 17.15625 12 L 17.050781 12 L 17.050781 11.578125 L 16.894531 11.578125 L 16.894531 11.488281 L 17.308594 11.488281 Z M 18.011719 12 L 17.90625 12 L 17.90625 11.59375 L 17.902344 11.59375 L 17.753906 12 L 17.65625 12 L 17.511719 11.59375 L 17.507812 11.59375 L 17.507812 12 L 17.402344 12 L 17.402344 11.488281 L 17.585938 11.488281 L 17.703125 11.820312 L 17.707031 11.820312 L 17.832031 11.488281 L 18.011719 11.488281 Z M 18.011719 12 "/>
<path style=" stroke:none;fill-rule:nonzero;fill:rgb(0%,27.45098%,51.764706%);fill-opacity:1;" d="M 11.960938 10.304688 L 11.960938 3.378906 L 4.613281 3.378906 L 4.613281 10.304688 L 8.285156 12.445312 Z M 11.960938 10.304688 "/>
<path style=" stroke:none;fill-rule:nonzero;fill:rgb(55.686275%,42.352941%,13.333333%);fill-opacity:1;" d="M 11.824219 0.867188 C 12.066406 0.867188 12.261719 0.675781 12.261719 0.433594 C 12.261719 0.195312 12.066406 0 11.824219 0 C 11.582031 0 11.386719 0.195312 11.386719 0.433594 C 11.386719 0.675781 11.582031 0.867188 11.824219 0.867188 "/>
<path style=" stroke:none;fill-rule:nonzero;fill:rgb(55.686275%,42.352941%,13.333333%);fill-opacity:1;" d="M 11.78125 1.152344 L 11.691406 1.152344 C 11.691406 1.722656 11.226562 2.1875 10.652344 2.1875 C 10.078125 2.1875 9.613281 1.722656 9.613281 1.152344 L 9.339844 1.152344 C 9.339844 1.722656 8.871094 2.1875 8.300781 2.1875 C 7.726562 2.1875 7.261719 1.722656 7.261719 1.152344 L 6.984375 1.152344 C 6.984375 1.726562 6.519531 2.1875 5.945312 2.1875 C 5.371094 2.1875 4.90625 1.722656 4.90625 1.152344 L 4.605469 1.148438 L 4.605469 3.183594 L 11.964844 3.183594 L 11.964844 1.152344 L 11.691406 1.152344 "/>
<path style=" stroke:none;fill-rule:nonzero;fill:rgb(55.686275%,42.352941%,13.333333%);fill-opacity:1;" d="M 4.761719 0.867188 C 5.003906 0.867188 5.199219 0.675781 5.199219 0.433594 C 5.199219 0.195312 5.003906 0 4.761719 0 C 4.519531 0 4.324219 0.195312 4.324219 0.433594 C 4.324219 0.675781 4.519531 0.867188 4.761719 0.867188 "/>
<path style=" stroke:none;fill-rule:nonzero;fill:rgb(55.686275%,42.352941%,13.333333%);fill-opacity:1;" d="M 7.132812 0.867188 C 7.375 0.867188 7.570312 0.675781 7.570312 0.433594 C 7.570312 0.195312 7.375 0 7.132812 0 C 6.894531 0 6.699219 0.195312 6.699219 0.433594 C 6.699219 0.675781 6.894531 0.867188 7.132812 0.867188 "/>
<path style=" stroke:none;fill-rule:nonzero;fill:rgb(55.686275%,42.352941%,13.333333%);fill-opacity:1;" d="M 9.480469 0.867188 C 9.722656 0.867188 9.917969 0.675781 9.917969 0.433594 C 9.917969 0.195312 9.722656 0 9.480469 0 C 9.238281 0 9.042969 0.195312 9.042969 0.433594 C 9.042969 0.675781 9.238281 0.867188 9.480469 0.867188 "/>
<path style=" stroke:none;fill-rule:nonzero;fill:rgb(13.72549%,12.156863%,12.54902%);fill-opacity:1;" d="M 5.96875 5.386719 C 5.96875 4.992188 5.703125 4.863281 5.460938 4.867188 L 5.382812 4.863281 L 5.382812 4.660156 L 6.949219 4.660156 L 6.949219 4.867188 C 6.726562 4.886719 6.496094 5.023438 6.496094 5.386719 L 6.496094 6.621094 L 6.605469 6.558594 C 6.828125 6.242188 7.421875 5.40625 7.542969 5.160156 C 7.695312 4.863281 7.464844 4.863281 7.242188 4.863281 L 7.242188 4.660156 L 8.628906 4.660156 L 8.628906 4.863281 L 8.53125 4.863281 C 8.378906 4.863281 8.195312 4.863281 7.945312 5.171875 C 7.625 5.5625 6.992188 6.511719 6.992188 6.511719 C 7.960938 6.585938 8.328125 7.910156 8.574219 8.089844 C 8.433594 7.144531 9.136719 5.964844 10.167969 6.007812 C 10.28125 6.015625 10.425781 6 10.753906 6.089844 C 11.085938 6.179688 11.113281 6.019531 11.15625 5.835938 L 11.402344 5.835938 L 11.402344 7.394531 L 11.191406 7.394531 C 11.171875 7.125 11.039062 6.234375 10.171875 6.207031 C 9.289062 6.179688 9.121094 7.199219 9.109375 7.890625 C 9.066406 10.460938 10.863281 10.375 11.191406 9.550781 C 11.238281 9.425781 11.21875 9.394531 11.164062 9.367188 C 10.773438 9.179688 11.226562 8.675781 11.476562 9.117188 C 11.59375 9.320312 11.386719 10.277344 10.308594 10.277344 C 8.636719 10.277344 8.148438 7.953125 7.527344 7.199219 C 7.042969 6.609375 6.644531 6.875 6.496094 7.015625 L 6.492188 7.421875 L 6.496094 8.144531 C 6.496094 8.539062 6.761719 8.667969 7.003906 8.664062 L 7.082031 8.667969 L 7.082031 8.871094 L 5.382812 8.871094 L 5.382812 8.667969 L 5.460938 8.664062 C 5.703125 8.667969 5.96875 8.539062 5.96875 8.144531 L 5.96875 5.386719 "/>
<path style=" stroke:none;fill-rule:nonzero;fill:rgb(100%,100%,100%);fill-opacity:1;" d="M 5.824219 5.242188 C 5.824219 4.84375 5.554688 4.71875 5.316406 4.71875 L 5.238281 4.71875 L 5.238281 4.511719 L 6.800781 4.511719 L 6.800781 4.722656 C 6.578125 4.738281 6.347656 4.875 6.347656 5.242188 L 6.347656 6.476562 L 6.457031 6.414062 C 6.683594 6.097656 7.273438 5.257812 7.398438 5.015625 C 7.550781 4.71875 7.316406 4.71875 7.09375 4.71875 L 7.09375 4.511719 L 8.484375 4.511719 L 8.484375 4.71875 L 8.382812 4.71875 C 8.234375 4.71875 8.046875 4.71875 7.796875 5.027344 C 7.480469 5.417969 6.847656 6.367188 6.847656 6.367188 C 7.816406 6.4375 8.179688 7.765625 8.429688 7.945312 C 8.289062 6.996094 8.988281 5.816406 10.019531 5.863281 C 10.136719 5.867188 10.277344 5.855469 10.609375 5.945312 C 10.9375 6.035156 10.96875 5.871094 11.011719 5.691406 L 11.257812 5.691406 L 11.257812 7.25 L 11.042969 7.25 C 11.027344 6.980469 10.890625 6.089844 10.023438 6.0625 C 9.140625 6.035156 8.972656 7.050781 8.960938 7.746094 C 8.917969 10.3125 10.714844 10.230469 11.042969 9.402344 C 11.09375 9.28125 11.070312 9.25 11.015625 9.222656 C 10.625 9.035156 11.078125 8.527344 11.332031 8.96875 C 11.445312 9.171875 11.238281 10.132812 10.164062 10.132812 C 8.492188 10.132812 8.003906 7.808594 7.378906 7.050781 C 6.894531 6.460938 6.5 6.726562 6.351562 6.871094 L 6.34375 7.277344 L 6.347656 8 C 6.347656 8.394531 6.617188 8.519531 6.855469 8.519531 L 6.933594 8.519531 L 6.933594 8.726562 L 5.238281 8.726562 L 5.238281 8.519531 L 5.316406 8.519531 C 5.554688 8.519531 5.824219 8.394531 5.824219 8 L 5.824219 5.242188 "/>
</g>
</svg>
