<?xml version="1.0" encoding="UTF-8"?>
<svg xmlns="http://www.w3.org/2000/svg" xmlns:xlink="http://www.w3.org/1999/xlink" width="20pt" height="20pt" viewBox="0 0 20 20" version="1.1">
<g id="surface1">
<path style=" stroke:none;fill-rule:nonzero;fill:rgb(100%,100%,100%);fill-opacity:1;" d="M 1.117188 10.003906 L 9.992188 18.878906 L 18.867188 10 C 15.90625 7.042969 12.953125 4.082031 9.992188 1.128906 Z M 1.117188 10.003906 "/>
<path style=" stroke:none;fill-rule:nonzero;fill:rgb(50.196078%,50.196078%,50.196078%);fill-opacity:1;" d="M 5.097656 5.109375 L 0.207031 10.003906 L 5.097656 14.894531 L 9.992188 19.785156 L 19.777344 10 L 14.886719 5.109375 C 12.195312 2.421875 9.992188 0.21875 9.992188 0.21875 C 9.992188 0.21875 7.789062 2.421875 5.097656 5.109375 Z M 14.109375 5.886719 L 18.226562 10 L 9.992188 18.234375 L 1.757812 10 L 5.875 5.882812 C 8.140625 3.621094 9.992188 1.769531 9.992188 1.769531 C 9.992188 1.769531 11.847656 3.621094 14.109375 5.886719 Z M 14.109375 5.886719 "/>
<path style=" stroke:none;fill-rule:nonzero;fill:rgb(25.098039%,25.098039%,25.098039%);fill-opacity:1;" d="M 10.105469 4.917969 C 9.054688 4.917969 7.511719 5.644531 7.511719 6.910156 C 7.511719 7.441406 7.804688 7.777344 8.222656 7.777344 C 8.972656 7.777344 9.125 6.582031 10.105469 6.582031 C 10.59375 6.582031 11.074219 6.96875 11.074219 7.5 C 11.074219 8.199219 10.605469 8.394531 10.140625 8.527344 C 9.660156 8.660156 9.191406 8.730469 9.191406 9.164062 L 9.191406 10.371094 C 9.191406 10.855469 9.507812 11.203125 10.035156 11.203125 C 10.523438 11.203125 10.875 10.855469 10.875 10.371094 L 10.875 9.9375 C 12.078125 9.625 12.894531 8.839844 12.894531 7.5 C 12.894531 5.882812 11.609375 4.917969 10.105469 4.917969 Z M 10.058594 11.875 C 10.039062 11.875 10.023438 11.875 10.007812 11.878906 C 9.75 11.886719 9.503906 12 9.3125 12.191406 C 9.253906 12.25 9.21875 12.292969 9.171875 12.363281 C 9.066406 12.523438 9.007812 12.675781 8.980469 12.886719 C 8.972656 12.925781 8.972656 13.117188 8.980469 13.164062 C 9.007812 13.390625 9.089844 13.59375 9.230469 13.765625 C 9.265625 13.808594 9.332031 13.878906 9.375 13.914062 C 9.5 14.023438 9.652344 14.101562 9.800781 14.140625 C 9.902344 14.167969 9.953125 14.171875 10.058594 14.171875 C 10.164062 14.171875 10.21875 14.164062 10.3125 14.140625 C 10.570312 14.078125 10.796875 13.914062 10.949219 13.6875 C 11.0625 13.515625 11.128906 13.328125 11.144531 13.121094 C 11.148438 13.066406 11.144531 12.925781 11.140625 12.875 C 11.121094 12.734375 11.085938 12.617188 11.027344 12.5 C 10.867188 12.164062 10.554688 11.933594 10.203125 11.886719 C 10.164062 11.878906 10.109375 11.875 10.058594 11.875 Z M 10.058594 11.875 "/>
</g>
</svg>
