<?xml version="1.0" encoding="UTF-8"?>
<svg xmlns="http://www.w3.org/2000/svg" xmlns:xlink="http://www.w3.org/1999/xlink" width="35pt" height="25pt" viewBox="0 0 35 25" version="1.1">
<g id="surface1">
<path style=" stroke:none;fill-rule:nonzero;fill:rgb(93.72549%,89.411765%,73.72549%);fill-opacity:1;" d="M 23.105469 21.257812 L 20.386719 25 L 32.082031 25 L 26.496094 0 L 18.710938 0 L 2.917969 24.996094 L 15.378906 24.996094 L 13.59375 21.238281 L 17.445312 14.777344 C 17.546875 15.179688 17.746094 15.964844 17.777344 16.082031 C 17.578125 16.425781 14.59375 21.585938 14.59375 21.585938 C 14.59375 21.585938 18.996094 17.949219 19.199219 17.777344 C 19.269531 17.867188 22.457031 21.730469 22.457031 21.730469 C 22.457031 21.730469 20.957031 16.734375 20.855469 16.394531 C 20.929688 16.273438 21.429688 15.480469 21.746094 14.96875 L 23.105469 21.253906 Z M 17.582031 14.550781 L 20.035156 10.429688 L 20.761719 10.429688 L 21.65625 14.550781 Z M 17.582031 14.550781 "/>
<path style=" stroke:none;fill-rule:nonzero;fill:rgb(11.372549%,4.313725%,3.529412%);fill-opacity:1;" d="M 10.59375 15.609375 L 15.484375 12.542969 L 13.804688 9.527344 L 18.535156 7.246094 L 17.011719 4.558594 L 20.648438 2.9375 L 19.011719 0.53125 L 3.816406 24.496094 L 12.128906 19.265625 Z M 10.59375 15.609375 "/>
<path style=" stroke:none;fill-rule:nonzero;fill:rgb(72.54902%,6.666667%,20.392157%);fill-opacity:1;" d="M 20.300781 16.320312 C 20.429688 16.121094 21.097656 15.058594 21.097656 15.058594 L 18.039062 15.058594 C 18.039062 15.058594 18.273438 15.960938 18.324219 16.164062 C 18.183594 16.40625 16.453125 19.394531 16.453125 19.394531 C 16.453125 19.394531 18.917969 17.355469 19.265625 17.066406 C 19.507812 17.359375 21.246094 19.46875 21.246094 19.46875 C 21.246094 19.46875 20.382812 16.59375 20.296875 16.320312 "/>
<path style=" stroke:none;fill-rule:nonzero;fill:rgb(72.54902%,6.666667%,20.392157%);fill-opacity:1;" d="M 30.800781 24.011719 L 25.667969 0.984375 L 19.875 0.984375 L 21.300781 3.175781 L 17.707031 4.792969 L 19.253906 7.476562 L 14.527344 9.738281 L 16.113281 12.675781 L 11.214844 15.757812 L 12.726562 19.453125 L 5.386719 24 L 13.644531 24 L 12.316406 21.265625 L 19.445312 9.539062 L 21.65625 9.539062 L 24.324219 21.496094 L 22.464844 24.011719 Z M 30.800781 24.011719 "/>
<path style=" stroke:none;fill-rule:nonzero;fill:rgb(11.372549%,4.313725%,3.529412%);fill-opacity:1;" d="M 31.445312 24.503906 L 26.101562 0.472656 L 19.542969 0.472656 L 19.875 0.984375 L 25.667969 0.984375 L 30.800781 24.015625 L 22.464844 24.015625 L 24.324219 21.496094 L 21.65625 9.539062 L 19.445312 9.539062 L 12.316406 21.265625 L 13.648438 24.003906 L 5.386719 24.003906 L 4.578125 24.507812 L 14.539062 24.507812 L 12.964844 21.257812 L 19.722656 9.980469 L 21.195312 9.980469 L 23.746094 21.371094 L 21.453125 24.507812 L 31.445312 24.507812 Z M 31.445312 24.503906 "/>
</g>
</svg>
