<?xml version="1.0" encoding="UTF-8"?>
<svg xmlns="http://www.w3.org/2000/svg" xmlns:xlink="http://www.w3.org/1999/xlink" width="35pt" height="25pt" viewBox="0 0 35 25" version="1.1">
<g id="surface1">
<path style=" stroke:none;fill-rule:nonzero;fill:rgb(100%,100%,100%);fill-opacity:1;" d="M 27.742188 14.804688 C 26.832031 14.160156 25.738281 14.015625 24.683594 13.875 C 22.660156 13.609375 21.066406 13.402344 20.835938 10.09375 C 20.5 5.285156 20.386719 4.175781 19.171875 3.296875 C 19.128906 2.960938 18.886719 1.039062 18.886719 1.039062 C 18.808594 0.390625 18.207031 -0.0742188 17.558594 0.0117188 L 13.863281 0.476562 C 13.546875 0.511719 13.269531 0.675781 13.070312 0.925781 C 12.941406 1.097656 12.855469 1.289062 12.832031 1.496094 C 12.320312 1.46875 11.820312 1.773438 11.640625 2.28125 C 11.640625 2.28125 11.003906 4.078125 10.882812 4.414062 C 10.144531 4.742188 9.554688 5.785156 8.894531 7.886719 L 8.523438 9.101562 C 7.800781 11.488281 7.222656 13.375 6.144531 14.539062 C 5.214844 15.53125 4.714844 16.617188 4.714844 17.613281 C 4.714844 17.910156 4.757812 18.203125 4.851562 18.476562 C 5.128906 19.304688 5.957031 20.382812 8.359375 20.820312 C 9.675781 21.050781 11.203125 21.992188 12.675781 22.90625 C 13.691406 23.535156 14.777344 24.207031 15.757812 24.613281 C 16.386719 24.878906 17.464844 25.34375 20.472656 24.585938 C 20.628906 24.550781 20.957031 24.414062 21.066406 23.894531 C 21.085938 23.785156 21.101562 23.65625 21.101562 23.523438 C 21.101562 22.507812 20.394531 20.742188 18.480469 19.105469 C 19.84375 19.242188 21.378906 19.570312 22.507812 19.960938 C 24.382812 20.621094 27.898438 21.070312 29.921875 19.605469 C 30.085938 19.5 30.269531 19.253906 30.285156 18.8125 C 30.285156 17.890625 29.511719 16.054688 27.742188 14.804688 "/>
<path style=" stroke:none;fill-rule:nonzero;fill:rgb(77.647059%,12.54902%,20%);fill-opacity:1;" d="M 27.484375 15.167969 C 25.0625 13.445312 20.78125 15.660156 20.386719 10.121094 C 20.035156 5.089844 19.910156 4.320312 18.75 3.546875 L 18.4375 1.089844 C 18.386719 0.6875 18.015625 0.394531 17.613281 0.453125 L 13.917969 0.917969 C 13.5625 0.960938 13.296875 1.253906 13.277344 1.597656 C 13.40625 1.648438 13.640625 1.726562 13.925781 1.824219 L 13.898438 1.589844 C 13.890625 1.523438 13.933594 1.46875 14 1.460938 C 14.0625 1.453125 14.121094 1.496094 14.125 1.5625 L 14.167969 1.910156 C 14.328125 1.96875 14.5 2.023438 14.667969 2.089844 L 14.597656 1.539062 C 14.589844 1.453125 14.648438 1.382812 14.726562 1.375 C 14.804688 1.367188 14.882812 1.425781 14.890625 1.503906 L 14.976562 2.203125 C 15.128906 2.253906 15.269531 2.3125 15.414062 2.359375 L 15.304688 1.488281 C 15.292969 1.390625 15.363281 1.296875 15.464844 1.289062 C 15.5625 1.273438 15.65625 1.347656 15.671875 1.445312 L 15.800781 2.496094 C 15.941406 2.546875 16.078125 2.597656 16.191406 2.640625 L 16.035156 1.402344 C 16.019531 1.304688 16.09375 1.210938 16.191406 1.203125 C 16.292969 1.1875 16.386719 1.261719 16.390625 1.359375 L 16.570312 2.78125 C 16.621094 2.804688 16.65625 2.8125 16.65625 2.8125 C 16.792969 2.863281 16.914062 2.933594 17.015625 3.019531 L 16.800781 1.28125 C 16.792969 1.203125 16.847656 1.125 16.929688 1.117188 C 17.007812 1.109375 17.085938 1.167969 17.09375 1.246094 L 17.378906 3.554688 C 17.421875 3.675781 17.441406 3.804688 17.441406 3.933594 C 17.441406 4.0625 17.421875 4.199219 17.371094 4.332031 C 17.371094 4.332031 16.726562 6.148438 16.605469 6.476562 C 16.75 6.761719 16.8125 7.054688 16.8125 7.363281 C 16.8125 8.273438 16.277344 9.25 15.785156 10.152344 C 15.578125 10.53125 15.378906 10.894531 15.226562 11.230469 C 14.46875 13.082031 14.105469 14.222656 14.105469 15.003906 C 14.105469 15.417969 14.207031 15.726562 14.414062 15.988281 C 14.417969 15.496094 14.511719 15.117188 14.5625 14.933594 C 15.046875 15.089844 16.492188 15.539062 17.214844 15.695312 C 17.214844 15.695312 17.15625 17.183594 17.335938 18.246094 C 17.421875 18.3125 17.492188 18.375 17.542969 18.417969 C 17.636719 18.484375 17.726562 18.546875 17.820312 18.621094 C 19.449219 18.710938 21.386719 19.121094 22.636719 19.554688 C 24.582031 20.234375 27.863281 20.554688 29.648438 19.25 C 30.171875 18.925781 29.535156 16.625 27.484375 15.167969 M 18.027344 3.828125 C 17.964844 3.832031 17.90625 3.789062 17.898438 3.726562 L 17.578125 1.140625 C 17.570312 1.074219 17.613281 1.019531 17.679688 1.011719 C 17.742188 1.003906 17.800781 1.046875 17.808594 1.109375 L 18.128906 3.699219 C 18.136719 3.753906 18.09375 3.820312 18.027344 3.828125 M 29.183594 18.777344 C 28.5625 19.191406 27.726562 19.398438 26.839844 19.460938 C 26.648438 19.46875 26.527344 19.398438 26.484375 19.25 L 25.839844 17.503906 C 25.777344 17.363281 25.769531 17.226562 25.96875 17.125 C 25.96875 17.125 27.285156 16.554688 27.433594 16.476562 C 27.582031 16.398438 27.761719 16.253906 27.941406 16.433594 C 28.820312 17.363281 29.183594 18.375 29.183594 18.769531 C 29.191406 18.761719 29.183594 18.769531 29.183594 18.777344 "/>
<path style=" stroke:none;fill-rule:nonzero;fill:rgb(77.647059%,12.54902%,20%);fill-opacity:1;" d="M 17.351562 18.804688 C 17.171875 18.660156 16.128906 17.761719 14.648438 16.761719 C 13.167969 15.761719 13.511719 14.265625 14.839844 11.023438 C 15.492188 9.558594 16.976562 7.726562 16.136719 6.492188 L 16.964844 4.15625 C 17.101562 3.769531 16.898438 3.347656 16.515625 3.210938 L 13.003906 1.96875 C 12.617188 1.832031 12.199219 2.03125 12.0625 2.417969 L 11.238281 4.761719 C 10.597656 4.90625 10.011719 5.847656 9.332031 8.015625 C 8.410156 10.972656 7.816406 13.394531 6.480469 14.839844 C 4.570312 16.890625 4.359375 19.640625 8.4375 20.378906 C 10.78125 20.785156 13.546875 23.207031 15.890625 24.1875 C 16.457031 24.421875 17.371094 24.902344 20.367188 24.152344 C 21.015625 24.023438 20.765625 21.175781 17.351562 18.804688 M 8.203125 19.664062 C 6.929688 19.371094 6.136719 18.847656 5.894531 18.125 C 5.652344 17.390625 5.972656 16.425781 6.757812 15.488281 C 7.652344 15.832031 8.402344 16.246094 8.960938 16.625 C 8.566406 17.460938 8.296875 18.511719 8.203125 19.664062 M 16.328125 3.746094 C 16.386719 3.769531 16.421875 3.832031 16.398438 3.898438 L 15.519531 6.347656 C 15.5 6.40625 15.433594 6.441406 15.371094 6.421875 C 15.3125 6.398438 15.277344 6.335938 15.300781 6.269531 L 16.179688 3.820312 C 16.199219 3.753906 16.261719 3.726562 16.328125 3.746094 M 15.628906 3.496094 C 15.707031 3.527344 15.75 3.613281 15.71875 3.691406 L 14.863281 6.078125 C 14.835938 6.15625 14.75 6.199219 14.671875 6.171875 C 14.589844 6.140625 14.554688 6.054688 14.578125 5.976562 L 15.433594 3.582031 C 15.464844 3.511719 15.550781 3.46875 15.628906 3.496094 M 14.925781 3.246094 C 15.019531 3.28125 15.070312 3.382812 15.035156 3.484375 L 14.199219 5.8125 C 14.164062 5.90625 14.0625 5.957031 13.960938 5.925781 C 13.871094 5.890625 13.820312 5.792969 13.855469 5.691406 L 14.683594 3.363281 C 14.726562 3.261719 14.835938 3.210938 14.925781 3.246094 M 11.882812 5.167969 C 11.824219 5.148438 11.789062 5.085938 11.8125 5.019531 L 12.683594 2.570312 C 12.703125 2.511719 12.769531 2.476562 12.832031 2.496094 C 12.890625 2.519531 12.925781 2.582031 12.90625 2.648438 L 12.027344 5.097656 C 12.003906 5.164062 11.941406 5.191406 11.882812 5.167969 M 12.582031 5.417969 C 12.503906 5.390625 12.460938 5.304688 12.492188 5.226562 L 13.339844 2.839844 C 13.371094 2.761719 13.457031 2.71875 13.535156 2.746094 C 13.613281 2.777344 13.648438 2.863281 13.625 2.941406 L 12.769531 5.335938 C 12.742188 5.40625 12.65625 5.449219 12.582031 5.417969 M 13.277344 5.671875 C 13.183594 5.632812 13.132812 5.535156 13.167969 5.433594 L 14 3.105469 C 14.035156 3.011719 14.132812 2.960938 14.234375 2.996094 C 14.328125 3.03125 14.378906 3.132812 14.339844 3.234375 L 13.511719 5.5625 C 13.476562 5.65625 13.375 5.707031 13.277344 5.671875 M 20 23.566406 C 18.894531 23.828125 18.121094 23.90625 17.558594 23.902344 C 17.355469 23.929688 17.191406 23.828125 17.15625 23.59375 L 16.949219 21.769531 C 16.957031 21.585938 17.015625 21.429688 17.242188 21.421875 C 17.785156 21.429688 18.4375 21.371094 18.636719 21.304688 C 18.9375 21.207031 19.015625 21.242188 19.050781 21.292969 C 19.785156 22.277344 20.007812 23.121094 20.007812 23.515625 C 20.007812 23.535156 20 23.550781 20 23.566406 "/>
<path style=" stroke:none;fill-rule:nonzero;fill:rgb(77.647059%,12.54902%,20%);fill-opacity:1;" d="M 26.632812 20.777344 L 26.742188 20.777344 L 26.742188 21.085938 L 26.8125 21.085938 L 26.8125 20.777344 L 26.925781 20.777344 L 26.925781 20.71875 L 26.632812 20.71875 Z M 26.632812 20.777344 "/>
<path style=" stroke:none;fill-rule:nonzero;fill:rgb(77.647059%,12.54902%,20%);fill-opacity:1;" d="M 27.199219 20.976562 L 27.097656 20.71875 L 26.996094 20.71875 L 26.996094 21.085938 L 27.0625 21.085938 L 27.0625 20.800781 L 27.070312 20.800781 L 27.175781 21.085938 L 27.226562 21.085938 L 27.332031 20.800781 L 27.332031 21.085938 L 27.398438 21.085938 L 27.398438 20.71875 L 27.296875 20.71875 Z M 27.199219 20.976562 "/>
</g>
</svg>
