<?xml version="1.0" encoding="UTF-8"?>
<svg xmlns="http://www.w3.org/2000/svg" xmlns:xlink="http://www.w3.org/1999/xlink" width="35pt" height="25pt" viewBox="0 0 35 25" version="1.1">
<g id="surface1">
<path style=" stroke:none;fill-rule:nonzero;fill:rgb(100%,100%,100%);fill-opacity:1;" d="M 5.03125 12.5 C 5.03125 5.613281 10.613281 0.03125 17.5 0.03125 C 24.386719 0.03125 29.96875 5.613281 29.96875 12.5 C 29.96875 19.386719 24.386719 24.96875 17.5 24.96875 C 10.613281 24.96875 5.03125 19.386719 5.03125 12.5 Z M 5.03125 12.5 "/>
<path style=" stroke:none;fill-rule:nonzero;fill:rgb(100%,100%,100%);fill-opacity:1;" d="M 5 12.5 C 5 5.597656 10.597656 0 17.5 0 C 24.402344 0 30 5.597656 30 12.5 C 30 19.402344 24.402344 25 17.5 25 C 10.597656 25 5 19.402344 5 12.5 Z M 5.0625 12.5 C 5.0625 15.933594 6.453125 19.042969 8.707031 21.292969 C 10.957031 23.546875 14.066406 24.9375 17.5 24.9375 C 20.933594 24.9375 24.042969 23.546875 26.296875 21.292969 C 28.546875 19.042969 29.9375 15.933594 29.9375 12.5 C 29.9375 9.066406 28.546875 5.957031 26.296875 3.707031 C 24.042969 1.453125 20.933594 0.0625 17.5 0.0625 C 14.066406 0.0625 10.957031 1.453125 8.707031 3.707031 C 6.453125 5.957031 5.0625 9.066406 5.0625 12.5 Z M 5.0625 12.5 "/>
<path style=" stroke:none;fill-rule:nonzero;fill:rgb(87.843137%,22.745098%,24.313725%);fill-opacity:1;" d="M 18.011719 14.507812 L 18.011719 10.511719 L 20.152344 10.511719 C 20.957031 10.511719 21.300781 10.703125 21.300781 11.636719 C 21.300781 12.128906 21.210938 12.382812 20.929688 12.523438 C 21.300781 12.734375 21.300781 13.128906 21.300781 13.480469 C 21.300781 14.367188 20.910156 14.507812 20.152344 14.507812 C 19.171875 14.507812 18.011719 14.507812 18.011719 14.507812 Z M 18.011719 14.507812 "/>
<path style=" stroke:none;fill-rule:nonzero;fill:rgb(0%,35.294118%,60.784314%);fill-opacity:1;" d="M 5.863281 12.5 C 5.863281 6.074219 11.074219 0.863281 17.5 0.863281 C 23.929688 0.863281 29.140625 6.074219 29.140625 12.5 C 29.140625 18.929688 23.929688 24.136719 17.5 24.136719 C 11.074219 24.136719 5.863281 18.929688 5.863281 12.5 Z M 17.5 21.097656 C 22.246094 21.097656 26.097656 17.246094 26.097656 12.5 C 26.097656 7.753906 22.246094 3.902344 17.5 3.902344 C 12.753906 3.902344 8.902344 7.753906 8.902344 12.5 C 8.902344 17.246094 12.753906 21.097656 17.5 21.097656 Z M 17.5 21.097656 "/>
<path style=" stroke:none;fill-rule:nonzero;fill:rgb(87.843137%,22.745098%,24.313725%);fill-opacity:1;" d="M 21.285156 14.929688 C 20.484375 16.171875 19.089844 16.996094 17.5 16.996094 C 15.015625 16.996094 13.003906 14.984375 13.003906 12.5 C 13.003906 10.015625 15.015625 8.003906 17.5 8.003906 C 19.136719 8.003906 20.570312 8.878906 21.355469 10.1875 L 23.570312 8.027344 C 22.195312 6.167969 19.988281 4.960938 17.5 4.960938 C 13.335938 4.960938 9.960938 8.335938 9.960938 12.5 C 9.960938 16.664062 13.335938 20.039062 17.5 20.039062 C 19.960938 20.039062 22.148438 18.859375 23.527344 17.03125 Z M 21.285156 14.929688 "/>
<path style=" stroke:none;fill-rule:nonzero;fill:rgb(87.843137%,22.745098%,24.313725%);fill-opacity:1;" d="M 16.171875 13.246094 L 16.171875 10.511719 L 17.523438 10.511719 L 17.523438 13.277344 C 17.523438 14.273438 17.289062 14.507812 16.503906 14.507812 C 15.914062 14.507812 15.605469 14.507812 15.09375 14.507812 C 14.445312 14.507812 14.234375 14.085938 14.234375 13.210938 L 14.234375 10.511719 L 15.585938 10.511719 L 15.585938 13.246094 C 15.585938 13.621094 16.171875 13.621094 16.171875 13.246094 "/>
<path style=" stroke:none;fill-rule:nonzero;fill:rgb(100%,100%,100%);fill-opacity:1;" d="M 20.011719 11.601562 C 20.007812 11.4375 19.855469 11.449219 19.4375 11.449219 L 19.4375 12.011719 C 19.667969 12.011719 20.011719 12.035156 20.011719 11.824219 Z M 20.011719 11.601562 "/>
<path style=" stroke:none;fill-rule:nonzero;fill:rgb(100%,100%,100%);fill-opacity:1;" d="M 20.003906 13.226562 C 19.929688 13.035156 19.890625 13.058594 19.4375 13.058594 L 19.4375 13.621094 C 19.726562 13.621094 20.003906 13.644531 20.003906 13.433594 C 20.003906 13.382812 20.015625 13.265625 20.003906 13.226562 Z M 20.003906 13.226562 "/>
<path style=" stroke:none;fill-rule:nonzero;fill:rgb(87.843137%,22.745098%,24.313725%);fill-opacity:1;" d="M 24.003906 14.507812 C 24.734375 14.507812 25.109375 14.308594 25.109375 13.664062 C 25.109375 13.585938 25.105469 12.851562 25.105469 12.769531 C 25.109375 12.300781 24.773438 12 24.304688 12 C 23.832031 12 23.484375 12 23.328125 12 C 23.0625 12 23.125 11.613281 23.125 11.496094 C 23.125 11.3125 23.675781 11.253906 23.675781 11.554688 C 23.675781 11.636719 23.675781 11.695312 23.675781 11.742188 L 25.109375 11.742188 C 25.109375 10.808594 24.941406 10.511719 24.003906 10.511719 C 23.789062 10.519531 22.988281 10.519531 22.742188 10.519531 C 22.144531 10.519531 21.816406 10.75 21.792969 11.449219 C 21.769531 12.152344 21.792969 11.847656 21.792969 12.105469 C 21.792969 12.359375 21.753906 12.933594 22.539062 12.933594 C 22.960938 12.933594 23.441406 12.933594 23.53125 12.933594 C 23.808594 12.933594 23.753906 13.257812 23.753906 13.257812 L 23.753906 13.46875 C 23.753906 13.703125 23.28125 13.714844 23.175781 13.519531 C 23.101562 13.390625 23.140625 13.1875 23.140625 13.1875 L 21.792969 13.1875 C 21.792969 13.46875 21.640625 14.507812 22.457031 14.507812 C 23.195312 14.507812 24.003906 14.507812 24.003906 14.507812 Z M 24.003906 14.507812 "/>
<path style=" stroke:none;fill-rule:nonzero;fill:rgb(0%,35.294118%,60.784314%);fill-opacity:1;" d="M 23.390625 15.25 L 23.160156 15.25 L 23.160156 15.878906 L 23.003906 15.878906 L 23.003906 15.25 L 22.769531 15.25 L 22.769531 15.113281 L 23.390625 15.113281 Z M 24.441406 15.878906 L 24.285156 15.878906 L 24.285156 15.269531 L 24.28125 15.269531 L 24.058594 15.878906 L 23.90625 15.878906 L 23.691406 15.269531 L 23.6875 15.269531 L 23.6875 15.878906 L 23.53125 15.878906 L 23.53125 15.113281 L 23.804688 15.113281 L 23.984375 15.613281 L 24.171875 15.113281 L 24.441406 15.113281 Z M 24.441406 15.878906 "/>
</g>
</svg>
