<?xml version="1.0" encoding="UTF-8"?>
<svg xmlns="http://www.w3.org/2000/svg" xmlns:xlink="http://www.w3.org/1999/xlink" width="20pt" height="20pt" viewBox="0 0 20 20" version="1.1">
<g id="surface1">
<path style=" stroke:none;fill-rule:nonzero;fill:rgb(100%,100%,100%);fill-opacity:1;" d="M 0.0234375 10 C 0.0234375 4.492188 4.492188 0.0234375 10 0.0234375 C 15.507812 0.0234375 19.976562 4.492188 19.976562 10 C 19.976562 15.507812 15.507812 19.976562 10 19.976562 C 4.492188 19.976562 0.0234375 15.507812 0.0234375 10 Z M 0.0234375 10 "/>
<path style=" stroke:none;fill-rule:nonzero;fill:rgb(100%,100%,100%);fill-opacity:1;" d="M 0 10 C 0 4.476562 4.476562 0 10 0 C 15.523438 0 20 4.476562 20 10 C 20 15.523438 15.523438 20 10 20 C 4.476562 20 0 15.523438 0 10 Z M 0.0507812 10 C 0.0507812 12.746094 1.164062 15.234375 2.964844 17.035156 C 4.765625 18.835938 7.253906 19.949219 10 19.949219 C 12.746094 19.949219 15.234375 18.835938 17.035156 17.035156 C 18.835938 15.234375 19.949219 12.746094 19.949219 10 C 19.949219 7.253906 18.835938 4.765625 17.035156 2.964844 C 15.234375 1.164062 12.746094 0.0507812 10 0.0507812 C 7.253906 0.0507812 4.765625 1.164062 2.964844 2.964844 C 1.164062 4.765625 0.0507812 7.253906 0.0507812 10 Z M 0.0507812 10 "/>
<path style=" stroke:none;fill-rule:nonzero;fill:rgb(87.843137%,22.745098%,24.313725%);fill-opacity:1;" d="M 10.410156 11.605469 L 10.410156 8.410156 L 12.121094 8.410156 C 12.765625 8.410156 13.042969 8.5625 13.042969 9.308594 C 13.042969 9.703125 12.96875 9.90625 12.742188 10.019531 C 13.042969 10.1875 13.042969 10.503906 13.042969 10.785156 C 13.042969 11.492188 12.730469 11.605469 12.121094 11.605469 C 11.339844 11.605469 10.410156 11.605469 10.410156 11.605469 Z M 10.410156 11.605469 "/>
<path style=" stroke:none;fill-rule:nonzero;fill:rgb(0%,35.294118%,60.784314%);fill-opacity:1;" d="M 0.6875 10 C 0.6875 4.859375 4.859375 0.6875 10 0.6875 C 15.140625 0.6875 19.3125 4.859375 19.3125 10 C 19.3125 15.140625 15.140625 19.3125 10 19.3125 C 4.859375 19.3125 0.6875 15.140625 0.6875 10 Z M 10 16.878906 C 13.796875 16.878906 16.878906 13.796875 16.878906 10 C 16.878906 6.203125 13.796875 3.121094 10 3.121094 C 6.203125 3.121094 3.121094 6.203125 3.121094 10 C 3.121094 13.796875 6.203125 16.878906 10 16.878906 Z M 10 16.878906 "/>
<path style=" stroke:none;fill-rule:nonzero;fill:rgb(87.843137%,22.745098%,24.313725%);fill-opacity:1;" d="M 13.027344 11.945312 C 12.386719 12.9375 11.269531 13.597656 10 13.597656 C 8.015625 13.597656 6.402344 11.988281 6.402344 10 C 6.402344 8.011719 8.015625 6.402344 10 6.402344 C 11.308594 6.402344 12.457031 7.101562 13.085938 8.148438 L 14.855469 6.421875 C 13.757812 4.933594 11.992188 3.96875 10 3.96875 C 6.667969 3.96875 3.96875 6.667969 3.96875 10 C 3.96875 13.332031 6.667969 16.03125 10 16.03125 C 11.96875 16.03125 13.71875 15.085938 14.820312 13.625 Z M 13.027344 11.945312 "/>
<path style=" stroke:none;fill-rule:nonzero;fill:rgb(87.843137%,22.745098%,24.313725%);fill-opacity:1;" d="M 8.9375 10.597656 L 8.9375 8.410156 L 10.019531 8.410156 L 10.019531 10.625 C 10.019531 11.417969 9.832031 11.605469 9.203125 11.605469 C 8.730469 11.605469 8.484375 11.605469 8.074219 11.605469 C 7.554688 11.605469 7.386719 11.269531 7.386719 10.566406 L 7.386719 8.410156 L 8.46875 8.410156 L 8.46875 10.597656 C 8.46875 10.894531 8.9375 10.894531 8.9375 10.597656 "/>
<path style=" stroke:none;fill-rule:nonzero;fill:rgb(100%,100%,100%);fill-opacity:1;" d="M 12.011719 9.28125 C 12.007812 9.152344 11.882812 9.160156 11.550781 9.160156 L 11.550781 9.609375 C 11.734375 9.609375 12.011719 9.625 12.011719 9.460938 Z M 12.011719 9.28125 "/>
<path style=" stroke:none;fill-rule:nonzero;fill:rgb(100%,100%,100%);fill-opacity:1;" d="M 12.003906 10.582031 C 11.945312 10.429688 11.914062 10.449219 11.550781 10.449219 L 11.550781 10.894531 C 11.78125 10.894531 12.003906 10.914062 12.003906 10.746094 C 12.003906 10.703125 12.015625 10.613281 12.003906 10.582031 Z M 12.003906 10.582031 "/>
<path style=" stroke:none;fill-rule:nonzero;fill:rgb(87.843137%,22.745098%,24.313725%);fill-opacity:1;" d="M 15.203125 11.605469 C 15.789062 11.605469 16.089844 11.445312 16.089844 10.929688 C 16.089844 10.867188 16.085938 10.28125 16.085938 10.214844 C 16.089844 9.839844 15.820312 9.597656 15.441406 9.597656 C 15.066406 9.597656 14.789062 9.597656 14.664062 9.597656 C 14.453125 9.597656 14.5 9.292969 14.5 9.199219 C 14.5 9.046875 14.9375 9 14.9375 9.246094 C 14.9375 9.308594 14.9375 9.355469 14.9375 9.394531 L 16.089844 9.394531 C 16.089844 8.648438 15.953125 8.410156 15.203125 8.410156 C 15.03125 8.414062 14.390625 8.414062 14.195312 8.414062 C 13.714844 8.414062 13.453125 8.601562 13.433594 9.160156 C 13.417969 9.71875 13.433594 9.476562 13.433594 9.683594 C 13.433594 9.886719 13.402344 10.34375 14.03125 10.34375 C 14.367188 10.34375 14.75 10.34375 14.824219 10.34375 C 15.046875 10.34375 15.003906 10.605469 15.003906 10.605469 L 15.003906 10.773438 C 15.003906 10.960938 14.625 10.972656 14.539062 10.816406 C 14.484375 10.714844 14.511719 10.550781 14.511719 10.550781 L 13.433594 10.550781 C 13.433594 10.773438 13.3125 11.605469 13.964844 11.605469 C 14.554688 11.605469 15.203125 11.605469 15.203125 11.605469 Z M 15.203125 11.605469 "/>
<path style=" stroke:none;fill-rule:nonzero;fill:rgb(0%,35.294118%,60.784314%);fill-opacity:1;" d="M 14.710938 12.199219 L 14.527344 12.199219 L 14.527344 12.703125 L 14.402344 12.703125 L 14.402344 12.199219 L 14.21875 12.199219 L 14.21875 12.089844 L 14.710938 12.089844 Z M 15.554688 12.703125 L 15.429688 12.703125 L 15.429688 12.214844 L 15.425781 12.214844 L 15.246094 12.703125 L 15.125 12.703125 L 14.953125 12.214844 L 14.949219 12.214844 L 14.949219 12.703125 L 14.824219 12.703125 L 14.824219 12.089844 L 15.042969 12.089844 L 15.1875 12.492188 L 15.335938 12.089844 L 15.554688 12.089844 Z M 15.554688 12.703125 "/>
</g>
</svg>
