<?xml version="1.0" encoding="UTF-8"?>
<svg xmlns="http://www.w3.org/2000/svg" xmlns:xlink="http://www.w3.org/1999/xlink" width="14pt" height="20pt" viewBox="0 0 14 20" version="1.1">
<g id="surface1">
<path style=" stroke:none;fill-rule:nonzero;fill:rgb(82.745098%,1.176471%,20.784314%);fill-opacity:1;" d="M 3.292969 0 C 5.507812 0 7.726562 0 9.945312 0 C 10.195312 0.261719 10.449219 0.523438 10.710938 0.769531 C 10.714844 0.511719 10.710938 0.257812 10.714844 0 C 11.804688 0 12.898438 0 13.988281 0 C 13.988281 2.375 13.988281 4.75 13.988281 7.125 C 12.898438 7.125 11.804688 7.125 10.710938 7.125 C 10.710938 6.332031 10.714844 5.535156 10.710938 4.738281 C 10.246094 4.277344 9.78125 3.8125 9.324219 3.339844 C 7.785156 3.339844 6.246094 3.339844 4.707031 3.339844 C 4.25 3.8125 3.789062 4.277344 3.320312 4.734375 C 3.320312 8.246094 3.320312 11.753906 3.320312 15.261719 C 3.800781 15.738281 4.28125 16.21875 4.753906 16.703125 C 6.261719 16.703125 7.769531 16.703125 9.28125 16.703125 C 9.753906 16.21875 10.230469 15.738281 10.710938 15.261719 C 10.714844 14.480469 10.710938 13.699219 10.714844 12.917969 L 13.988281 12.917969 C 13.988281 14.203125 13.992188 15.492188 13.988281 16.777344 C 13.550781 17.203125 13.125 17.640625 12.695312 18.074219 C 12.636719 18.121094 12.566406 18.152344 12.515625 18.207031 C 11.925781 18.808594 11.328125 19.394531 10.742188 20 C 8.242188 20 5.746094 20 3.246094 20 C 2.171875 18.90625 1.085938 17.816406 0 16.730469 C 0 12.257812 0 7.785156 0 3.3125 C 1.101562 2.214844 2.199219 1.109375 3.292969 0 Z M 3.292969 0 "/>
</g>
</svg>
