<?xml version="1.0" encoding="UTF-8"?>
<svg xmlns="http://www.w3.org/2000/svg" xmlns:xlink="http://www.w3.org/1999/xlink" width="35pt" height="25pt" viewBox="0 0 35 25" version="1.1">
<g id="surface1">
<path style=" stroke:none;fill-rule:nonzero;fill:rgb(29.803922%,20.784314%,46.27451%);fill-opacity:1;" d="M 7.882812 13.136719 L 6.625 15.742188 L 9.578125 15.742188 L 17.835938 9.464844 L 10.90625 15.71875 L 11.417969 15.71875 L 17.972656 11.023438 L 12.695312 15.742188 L 13.277344 15.742188 L 18.671875 12.136719 L 14.554688 15.71875 L 15.136719 15.742188 L 19.972656 12.882812 L 16.371094 15.71875 L 16.929688 15.765625 L 21.648438 13.230469 L 18.183594 15.71875 L 28.785156 15.71875 L 26.460938 12.625 L 25.53125 12.765625 L 24.625 11.207031 L 19.972656 7.023438 L 17.394531 4.652344 L 14.253906 8.648438 L 12.511719 8.117188 L 9.601562 12.742188 L 8.8125 12.601562 L 8.464844 13.207031 Z M 7.882812 13.136719 "/>
<path style=" stroke:none;fill-rule:nonzero;fill:rgb(100%,100%,100%);fill-opacity:1;" d="M 10.71875 12.183594 L 12.742188 8.859375 L 14.488281 9.324219 L 17.371094 5.558594 L 19.449219 7.976562 L 19.355469 8.234375 L 18.882812 7.929688 L 18.347656 8.417969 L 18.066406 7.207031 L 17.394531 8.023438 L 17.042969 7.511719 L 14.253906 9.835938 L 13.695312 9.371094 L 12.230469 11.160156 L 11.976562 10.929688 Z M 10.71875 12.183594 "/>
<path style=" stroke:none;fill-rule:nonzero;fill:rgb(100%,100%,100%);fill-opacity:1;" d="M 24.808594 12.765625 L 24.195312 11.621094 L 23.765625 11.875 C 23.765625 11.875 24.207031 12.347656 24.320312 12.417969 C 24.4375 12.488281 24.808594 12.765625 24.808594 12.765625 Z M 24.808594 12.765625 "/>
<path style=" stroke:none;fill-rule:nonzero;fill:rgb(8.627451%,7.843137%,7.45098%);fill-opacity:1;" d="M 27.960938 14.625 L 34.761719 14.625 L 34.761719 14.113281 C 34.761719 14.113281 33.554688 14.089844 33.554688 14.113281 C 33.386719 12.328125 31.953125 7.347656 27.242188 3.855469 C 24.832031 1.964844 21.628906 0.550781 17.460938 0.417969 C 12.136719 0.605469 10.023438 2.117188 7.8125 3.535156 C 2.023438 7.628906 1.277344 14.066406 1.277344 14.066406 L 0.140625 14.066406 L 0.140625 14.601562 L 7.175781 14.601562 L 7.429688 14.089844 L 5.929688 14.089844 C 5.929688 14.089844 7.207031 6 16.695312 5 C 16.671875 5.023438 17.441406 4.164062 17.441406 4.164062 L 18.277344 5 C 18.277344 5 19.554688 5.140625 20.390625 5.394531 C 21.230469 5.652344 22.019531 6 22.019531 6 C 22.019531 6 19.253906 6.257812 19.136719 9.207031 C 19.34375 11.777344 21.53125 12.230469 22.136719 12.230469 C 22.742188 12.230469 25.113281 12.160156 25.414062 9.207031 C 25.414062 8.535156 25.253906 8.117188 25.253906 8.117188 C 25.253906 8.117188 26.4375 8.976562 27.507812 10.71875 C 28.578125 12.464844 28.832031 14.066406 28.832031 14.066406 L 27.546875 14.066406 Z M 27.960938 14.625 "/>
<path style=" stroke:none;fill-rule:nonzero;fill:rgb(8.627451%,7.843137%,7.45098%);fill-opacity:1;" d="M 22.765625 16.636719 L 22.765625 16.21875 L 25.21875 16.21875 L 25.21875 16.695312 C 25.21875 16.695312 24.777344 16.601562 24.648438 16.90625 C 24.519531 17.207031 24.554688 18.917969 24.554688 18.917969 C 24.554688 18.917969 24.519531 20.578125 24.578125 20.71875 C 24.636719 20.859375 24.683594 21.171875 24.9375 21.207031 C 25.195312 21.242188 25.230469 21.289062 25.230469 21.289062 L 25.230469 21.660156 L 22.777344 21.660156 L 22.777344 21.253906 C 22.777344 21.253906 23.148438 21.230469 23.265625 21.03125 C 23.378906 20.835938 23.355469 20.636719 23.355469 20.636719 L 23.355469 18.859375 L 23.332031 17.160156 C 23.332031 17.160156 23.367188 16.964844 23.253906 16.847656 C 23.136719 16.730469 22.972656 16.636719 22.765625 16.636719 Z M 22.765625 16.636719 "/>
<path style=" stroke:none;fill-rule:nonzero;fill:rgb(8.627451%,7.843137%,7.45098%);fill-opacity:1;" d="M 9.300781 16.042969 C 10.8125 16.042969 11.917969 17.066406 11.917969 18.917969 C 11.917969 20.765625 10.8125 21.730469 9.160156 21.824219 C 7.535156 21.730469 6.625 20.71875 6.625 18.894531 C 6.625 17.066406 7.835938 16.136719 9.300781 16.042969 Z M 7.90625 19.054688 C 8.113281 21.300781 9.023438 21.347656 9.476562 21.347656 C 9.929688 21.347656 10.894531 20.671875 10.601562 18.636719 C 10.3125 16.601562 9.476562 16.519531 9.058594 16.519531 C 8.71875 16.566406 7.695312 16.8125 7.90625 19.054688 Z M 7.90625 19.054688 "/>
<path style=" stroke:none;fill-rule:nonzero;fill:rgb(8.627451%,7.843137%,7.45098%);fill-opacity:1;" d="M 4.011719 21.171875 L 4.011719 21.636719 L 1.011719 21.636719 L 1.011719 21.183594 C 1.011719 21.183594 1.628906 21.136719 1.730469 20.871094 C 1.835938 20.601562 1.8125 20.519531 1.8125 20.519531 C 1.8125 20.519531 1.8125 16.625 1.8125 16.382812 C 1.8125 16.136719 1.59375 16 1.382812 15.941406 C 1.175781 15.882812 1.023438 15.882812 1.023438 15.882812 L 1.023438 15.394531 C 1.023438 15.394531 1.359375 15.417969 1.742188 15.394531 C 2.128906 15.371094 2.8125 15.300781 3.488281 15.300781 C 4.160156 15.300781 6.277344 15.3125 6.277344 17.03125 C 6.359375 18.371094 5.046875 18.695312 5.046875 18.695312 C 5.046875 18.695312 5.011719 18.847656 5.140625 18.917969 C 5.265625 18.984375 5.300781 19.054688 5.300781 19.054688 C 5.300781 19.054688 5.777344 19.917969 5.847656 20.042969 C 5.917969 20.171875 6.21875 20.847656 6.394531 20.972656 C 6.570312 21.101562 7.011719 21.183594 7.011719 21.183594 L 7.011719 21.648438 L 5.195312 21.648438 L 3.640625 19.078125 C 3.640625 19.078125 3.464844 19.007812 3.394531 19.007812 C 3.324219 19.007812 3.207031 19.042969 3.207031 19.042969 L 3.183594 20.476562 C 3.183594 20.476562 3.152344 20.859375 3.335938 21.007812 C 3.523438 21.160156 4.011719 21.171875 4.011719 21.171875 Z M 3.742188 18.464844 C 3.929688 18.441406 4.800781 18.230469 4.71875 17.054688 C 4.71875 15.835938 3.824219 15.765625 3.511719 15.765625 C 3.195312 15.765625 3.183594 15.8125 3.183594 15.8125 L 3.183594 18.484375 C 3.1875 18.484375 3.558594 18.484375 3.742188 18.464844 Z M 3.742188 18.464844 "/>
<path style=" stroke:none;fill-rule:nonzero;fill:rgb(100%,100%,100%);fill-opacity:1;" d="M 9.671875 13.253906 L 9.089844 13.136719 L 8.601562 13.882812 Z M 9.671875 13.253906 "/>
<path style=" stroke:none;fill-rule:nonzero;fill:rgb(100%,100%,100%);fill-opacity:1;" d="M 25.460938 13.441406 L 26.136719 13.277344 L 26.601562 13.90625 Z M 25.460938 13.441406 "/>
<path style=" stroke:none;fill-rule:nonzero;fill:rgb(100%,100%,100%);fill-opacity:1;" d="M 22.347656 6.441406 C 22.347656 6.441406 23.367188 6.488281 23.902344 6.953125 C 25.160156 7.90625 24.925781 8.765625 24.925781 8.765625 L 24.765625 8.789062 C 24.765625 8.789062 24.648438 8.441406 24.554688 8.441406 C 24.460938 8.441406 24.449219 8.511719 24.449219 8.511719 L 24.507812 8.71875 L 24.3125 8.71875 C 24.3125 8.71875 24.242188 8.40625 24.113281 8.40625 C 23.984375 8.40625 24.03125 8.535156 24.03125 8.535156 L 24.019531 8.742188 L 23.855469 8.730469 C 23.855469 8.730469 23.707031 8.359375 23.589844 8.464844 C 23.472656 8.570312 23.554688 8.617188 23.554688 8.617188 C 23.554688 8.617188 23.671875 8.800781 23.542969 8.800781 C 23.414062 8.800781 23.300781 8.648438 23.300781 8.648438 C 23.300781 8.648438 23.230469 8.476562 23.160156 8.535156 C 23.089844 8.59375 23.101562 8.671875 23.101562 8.671875 L 23.195312 8.859375 L 23.054688 8.917969 C 23.054688 8.917969 22.800781 8.707031 22.742188 8.707031 C 22.683594 8.707031 22.554688 8.800781 22.636719 8.847656 C 22.71875 8.894531 22.800781 8.941406 22.800781 9 C 22.800781 9.058594 22.71875 9.082031 22.71875 9.082031 L 22.601562 9.113281 C 22.601562 9.113281 22.367188 8.871094 22.289062 8.964844 C 22.207031 9.058594 22.320312 9.148438 22.320312 9.148438 L 22.402344 9.265625 L 22.308594 9.335938 C 22.308594 9.335938 22.148438 9.3125 22.101562 9.277344 C 22.054688 9.242188 21.949219 9.183594 21.914062 9.253906 C 21.878906 9.324219 21.949219 9.394531 21.949219 9.394531 L 22.113281 9.511719 L 21.925781 9.625 C 21.925781 9.625 21.695312 9.488281 21.648438 9.535156 C 21.601562 9.582031 21.578125 9.707031 21.578125 9.707031 L 21.761719 9.8125 L 21.730469 9.90625 L 21.613281 9.941406 C 21.613281 9.941406 21.4375 9.882812 21.378906 9.90625 C 21.320312 9.929688 21.320312 10.082031 21.320312 10.082031 C 21.320312 10.082031 21.402344 10.171875 21.449219 10.171875 C 21.496094 10.171875 21.625 10.183594 21.542969 10.253906 C 21.460938 10.324219 21.425781 10.324219 21.425781 10.324219 C 21.425781 10.324219 21.136719 10.253906 21.089844 10.382812 C 21.042969 10.511719 21.21875 10.535156 21.21875 10.535156 C 21.21875 10.535156 21.390625 10.523438 21.378906 10.582031 C 21.367188 10.636719 21.320312 10.695312 21.320312 10.695312 L 21.136719 10.71875 C 21.136719 10.71875 20.972656 10.742188 20.960938 10.847656 C 20.949219 10.953125 21.089844 10.964844 21.089844 10.964844 C 21.089844 10.964844 21.285156 10.929688 21.25 11.046875 C 21.214844 11.160156 21.03125 11.171875 21.03125 11.171875 C 21.03125 11.171875 20.878906 11.171875 20.878906 11.265625 C 20.878906 11.359375 20.949219 11.40625 20.949219 11.40625 C 20.949219 11.40625 21.214844 11.382812 21.195312 11.488281 C 21.171875 11.589844 21.066406 11.582031 21.066406 11.582031 C 21.066406 11.582031 19.507812 10.953125 19.507812 9.335938 C 19.484375 9.058594 19.496094 8.742188 19.496094 8.742188 C 19.496094 8.742188 19.53125 8.605469 19.613281 8.71875 C 19.695312 8.835938 19.707031 8.847656 19.773438 8.847656 C 19.84375 8.847656 19.820312 8.671875 19.820312 8.671875 L 19.796875 8.535156 C 19.796875 8.535156 19.855469 8.488281 19.914062 8.488281 C 19.972656 8.488281 20.078125 8.777344 20.148438 8.777344 C 20.214844 8.777344 20.308594 8.707031 20.308594 8.707031 C 20.308594 8.707031 20.296875 8.617188 20.273438 8.570312 C 20.25 8.523438 20.203125 8.453125 20.203125 8.453125 L 20.378906 8.382812 C 20.378906 8.382812 20.472656 8.5 20.519531 8.546875 C 20.566406 8.59375 20.648438 8.640625 20.695312 8.617188 C 20.738281 8.59375 20.714844 8.5 20.714844 8.5 L 20.601562 8.300781 L 20.773438 8.242188 C 20.773438 8.242188 20.960938 8.441406 21.019531 8.441406 C 21.078125 8.441406 21.125 8.371094 21.125 8.371094 C 21.125 8.371094 21.136719 8.300781 21.101562 8.242188 C 21.066406 8.183594 20.960938 8.148438 21.066406 8.070312 C 21.171875 7.988281 21.238281 8.070312 21.238281 8.070312 C 21.238281 8.070312 21.355469 8.207031 21.414062 8.207031 C 21.472656 8.207031 21.566406 8.105469 21.507812 8.023438 C 21.449219 7.941406 21.367188 7.941406 21.367188 7.941406 L 21.414062 7.8125 C 21.414062 7.8125 21.519531 7.777344 21.613281 7.824219 C 21.703125 7.871094 21.890625 7.917969 21.890625 7.8125 C 21.890625 7.707031 21.808594 7.675781 21.808594 7.675781 L 21.703125 7.628906 C 21.703125 7.628906 21.714844 7.5 21.773438 7.5 C 21.832031 7.5 21.890625 7.464844 21.972656 7.5 C 22.054688 7.535156 22.066406 7.546875 22.136719 7.523438 C 22.203125 7.5 22.179688 7.394531 22.089844 7.335938 C 21.996094 7.277344 21.925781 7.324219 21.9375 7.21875 C 21.949219 7.117188 22.113281 7.152344 22.113281 7.152344 L 22.34375 7.164062 L 22.425781 7.023438 C 22.425781 7.023438 22.378906 6.941406 22.332031 6.941406 C 22.285156 6.941406 22.167969 6.917969 22.167969 6.835938 C 22.167969 6.753906 22.261719 6.753906 22.34375 6.753906 C 22.425781 6.753906 22.589844 6.753906 22.601562 6.707031 C 22.613281 6.664062 22.613281 6.558594 22.613281 6.558594 C 22.613281 6.558594 22.449219 6.570312 22.402344 6.546875 C 22.355469 6.523438 22.347656 6.441406 22.347656 6.441406 Z M 22.347656 6.441406 "/>
<path style=" stroke:none;fill-rule:nonzero;fill:rgb(78.823529%,80%,81.960784%);fill-opacity:1;" d="M 2.164062 15.824219 L 2.824219 15.824219 L 2.824219 21.160156 L 2.164062 21.160156 Z M 2.164062 15.824219 "/>
<path style=" stroke:none;fill-rule:nonzero;fill:rgb(78.823529%,80%,81.960784%);fill-opacity:1;" d="M 4.664062 15.824219 C 4.664062 15.824219 5.847656 15.964844 5.847656 17.089844 C 5.847656 18.21875 4.683594 18.441406 4.683594 18.441406 C 4.683594 18.441406 5.046875 18.113281 5.046875 17.078125 C 5.046875 16.042969 4.664062 15.824219 4.664062 15.824219 Z M 4.664062 15.824219 "/>
<path style=" stroke:none;fill-rule:nonzero;fill:rgb(78.823529%,80%,81.960784%);fill-opacity:1;" d="M 3.964844 19.054688 C 3.964844 19.054688 4.335938 18.929688 4.453125 18.929688 C 4.570312 18.929688 4.753906 18.929688 4.753906 18.929688 C 4.753906 18.929688 5.09375 19.265625 5.171875 19.4375 C 5.253906 19.613281 6.148438 21.125 6.148438 21.125 L 5.171875 21.125 Z M 3.964844 19.054688 "/>
<path style=" stroke:none;fill-rule:nonzero;fill:rgb(78.823529%,80%,81.960784%);fill-opacity:1;" d="M 8.011719 16.742188 C 8.011719 16.742188 7.5 17.5 7.59375 18.847656 C 7.59375 20.324219 8.253906 21.136719 8.253906 21.136719 C 8.253906 21.136719 6.90625 21.148438 6.90625 18.996094 C 6.929688 17.195312 8.011719 16.742188 8.011719 16.742188 Z M 8.011719 16.742188 "/>
<path style=" stroke:none;fill-rule:nonzero;fill:rgb(78.823529%,80%,81.960784%);fill-opacity:1;" d="M 10.265625 16.625 C 10.265625 16.625 11.625 16.953125 11.625 18.753906 C 11.625 20.554688 10.601562 21.089844 10.601562 21.089844 C 10.601562 21.089844 10.929688 20.660156 10.929688 18.800781 C 10.777344 17.195312 10.265625 16.625 10.265625 16.625 Z M 10.265625 16.625 "/>
<path style=" stroke:none;fill-rule:nonzero;fill:rgb(8.627451%,7.843137%,7.45098%);fill-opacity:1;" d="M 0 22.253906 L 34.785156 22.253906 L 34.785156 22.835938 L 33.320312 22.835938 L 33.320312 23.71875 L 1.488281 23.71875 L 1.488281 22.789062 L 0 22.789062 Z M 0 22.253906 "/>
<path style=" stroke:none;fill-rule:nonzero;fill:rgb(8.627451%,7.843137%,7.45098%);fill-opacity:1;" d="M 12.300781 18.996094 C 12.300781 17.371094 13.324219 16.078125 15.21875 16.078125 C 15.941406 16.078125 16.394531 16.347656 16.394531 16.347656 C 16.394531 16.347656 16.660156 16.171875 16.730469 16.171875 C 16.800781 16.171875 16.800781 16.265625 16.800781 16.265625 L 16.871094 18.042969 L 16.542969 18.042969 C 16.542969 18.042969 16.265625 16.589844 15.136719 16.589844 C 14.007812 16.589844 13.542969 17.789062 13.542969 18.972656 C 13.542969 20.160156 14.195312 21.300781 15.171875 21.300781 C 16.148438 21.300781 16.707031 20.007812 16.707031 20.007812 C 16.707031 20.007812 16.742188 19.929688 16.824219 19.929688 C 16.90625 19.929688 17.007812 19.960938 17.007812 19.960938 L 17.019531 20.078125 L 16.601562 21.742188 C 16.601562 21.742188 16.183594 21.695312 15.996094 21.695312 C 15.8125 21.695312 14.789062 21.8125 14.625 21.8125 C 14.464844 21.8125 12.300781 21.578125 12.300781 18.996094 Z M 12.300781 18.996094 "/>
<path style=" stroke:none;fill-rule:nonzero;fill:rgb(78.823529%,80%,81.960784%);fill-opacity:1;" d="M 13.253906 18.996094 C 13.253906 20.265625 13.917969 21.101562 13.917969 21.101562 C 13.917969 21.101562 12.566406 20.882812 12.566406 19.054688 C 12.566406 17.230469 13.753906 16.800781 13.753906 16.800781 C 13.753906 16.800781 13.824219 16.824219 13.777344 16.917969 C 13.730469 17.007812 13.253906 17.730469 13.253906 18.996094 Z M 13.253906 18.996094 "/>
<path style=" stroke:none;fill-rule:nonzero;fill:rgb(78.823529%,80%,81.960784%);fill-opacity:1;" d="M 23.675781 16.667969 L 24.292969 16.667969 L 24.292969 21.175781 L 23.675781 21.175781 Z M 23.675781 16.667969 "/>
<path style=" stroke:none;fill-rule:nonzero;fill:rgb(8.627451%,7.843137%,7.45098%);fill-opacity:1;" d="M 17.125 16.636719 L 17.148438 16.21875 L 19.601562 16.21875 L 19.601562 16.648438 C 19.601562 16.648438 19.054688 16.636719 19.019531 16.941406 C 18.984375 17.242188 18.972656 18.671875 18.972656 18.671875 L 20.472656 16.976562 C 20.472656 16.976562 20.542969 16.894531 20.519531 16.8125 C 20.519531 16.660156 20.265625 16.625 20.265625 16.625 L 20.265625 16.207031 L 22.265625 16.207031 L 22.265625 16.660156 C 22.265625 16.660156 21.671875 16.636719 21.4375 16.835938 C 21.113281 16.996094 20.042969 18.300781 20.042969 18.300781 C 20.042969 18.300781 20.507812 18.882812 20.777344 19.277344 C 21.042969 19.671875 21.71875 20.777344 21.824219 20.859375 C 21.925781 20.9375 21.972656 21.113281 22.253906 21.195312 C 22.53125 21.277344 22.578125 21.242188 22.578125 21.242188 L 22.578125 21.671875 L 19.949219 21.671875 L 19.949219 21.21875 C 19.949219 21.21875 20.371094 21.265625 20.371094 21.066406 C 20.371094 20.871094 20.207031 20.472656 19.914062 20.136719 C 19.625 19.800781 19.207031 19.230469 19.007812 19.207031 C 18.996094 19.417969 19.007812 20.8125 19.007812 20.8125 C 19.007812 20.8125 19.03125 21.042969 19.207031 21.160156 C 19.378906 21.277344 19.613281 21.242188 19.613281 21.242188 L 19.613281 21.671875 L 17.136719 21.671875 L 17.136719 21.253906 C 17.136719 21.253906 17.660156 21.253906 17.707031 20.9375 C 17.753906 20.625 17.753906 20.554688 17.753906 20.554688 L 17.753906 17.089844 C 17.753906 17.089844 17.753906 16.8125 17.53125 16.730469 C 17.3125 16.648438 17.125 16.636719 17.125 16.636719 Z M 17.125 16.636719 "/>
<path style=" stroke:none;fill-rule:nonzero;fill:rgb(8.627451%,7.843137%,7.45098%);fill-opacity:1;" d="M 25.613281 16.671875 L 25.613281 16.230469 L 29.683594 16.230469 L 29.761719 17.542969 L 29.378906 17.542969 C 29.378906 17.542969 29.484375 16.8125 28.960938 16.8125 C 28.4375 16.8125 27.496094 16.8125 27.496094 16.8125 L 27.496094 18.636719 C 27.496094 18.636719 27.902344 18.683594 28.054688 18.683594 C 28.207031 18.683594 28.671875 18.625 28.695312 18.429688 C 28.71875 18.230469 28.796875 18.007812 28.796875 18.007812 L 29.078125 18.007812 L 29.078125 19.859375 L 28.773438 19.859375 C 28.773438 19.859375 28.734375 19.320312 28.425781 19.265625 C 28.160156 19.21875 28.042969 19.207031 27.9375 19.207031 C 27.832031 19.207031 27.507812 19.277344 27.507812 19.277344 L 27.507812 20.894531 C 27.507812 20.894531 27.566406 21.101562 27.808594 21.101562 C 28.054688 21.101562 28.832031 21.101562 28.914062 21.101562 C 28.996094 21.101562 29.296875 21.03125 29.378906 20.90625 C 29.460938 20.777344 29.671875 20.195312 29.671875 20.195312 L 30.007812 20.195312 L 29.878906 21.671875 L 25.542969 21.671875 L 25.542969 21.21875 C 25.542969 21.21875 25.984375 21.253906 26.136719 21.136719 C 26.285156 21.019531 26.320312 20.972656 26.320312 20.972656 L 26.296875 17.230469 C 26.296875 17.230469 26.332031 16.871094 26.078125 16.742188 C 25.820312 16.613281 25.613281 16.671875 25.613281 16.671875 Z M 25.613281 16.671875 "/>
<path style=" stroke:none;fill-rule:nonzero;fill:rgb(78.823529%,80%,81.960784%);fill-opacity:1;" d="M 26.605469 16.644531 L 27.222656 16.644531 L 27.222656 21.222656 L 26.605469 21.222656 Z M 26.605469 16.644531 "/>
<path style=" stroke:none;fill-rule:nonzero;fill:rgb(8.627451%,7.843137%,7.45098%);fill-opacity:1;" d="M 31.820312 15.300781 C 32.625 15.300781 33.113281 15.5 33.113281 15.5 C 33.113281 15.5 33.191406 15.53125 33.238281 15.5 C 33.285156 15.464844 33.390625 15.359375 33.390625 15.359375 L 33.625 15.359375 L 33.726562 17.195312 L 33.320312 17.160156 C 33.320312 17.160156 33.136719 15.835938 31.949219 15.835938 C 31.007812 15.953125 31.238281 16.824219 31.542969 16.976562 C 32.179688 17.648438 33.984375 18.265625 33.984375 19.929688 C 33.984375 21.589844 32.472656 21.871094 32.136719 21.871094 C 31.796875 21.871094 30.878906 21.625 30.75 21.613281 C 30.625 21.601562 30.519531 21.789062 30.519531 21.789062 L 30.320312 21.789062 L 30.113281 19.824219 L 30.449219 19.8125 C 30.449219 19.8125 30.726562 20.53125 30.914062 20.707031 C 31.101562 20.882812 31.308594 21.289062 31.914062 21.289062 C 32.519531 21.289062 32.726562 20.789062 32.726562 20.347656 C 32.726562 19.90625 31.984375 19.300781 31.707031 19.125 C 31.425781 18.953125 30.171875 18.417969 30.171875 17.03125 C 30.171875 15.648438 31.019531 15.300781 31.820312 15.300781 Z M 31.820312 15.300781 "/>
<path style=" stroke:none;fill-rule:nonzero;fill:rgb(78.823529%,80%,81.960784%);fill-opacity:1;" d="M 30.820312 16.242188 C 30.820312 16.242188 30.796875 16.707031 31.171875 17.101562 C 31.75 17.894531 33.625 18.371094 33.625 19.8125 C 33.542969 20.871094 33.03125 21.113281 33.03125 21.113281 C 33.03125 21.113281 33.089844 20.894531 33.089844 20.3125 C 33.089844 19.519531 31.914062 18.871094 31.914062 18.871094 C 31.914062 18.871094 30.519531 18.078125 30.519531 17.125 C 30.519531 16.335938 30.820312 16.242188 30.820312 16.242188 Z M 30.820312 16.242188 "/>
<path style=" stroke:none;fill-rule:nonzero;fill:rgb(100%,100%,100%);fill-opacity:1;" d="M 21.289062 11.683594 L 21.3125 11.601562 C 21.3125 11.601562 21.554688 11.71875 21.578125 11.671875 C 21.601562 11.625 21.589844 11.5 21.589844 11.5 L 21.4375 11.40625 C 21.4375 11.40625 21.277344 11.40625 21.300781 11.277344 C 21.324219 11.148438 21.425781 11.242188 21.425781 11.242188 L 21.578125 11.3125 L 21.578125 11.070312 C 21.578125 11.070312 21.390625 11 21.390625 10.90625 C 21.390625 10.8125 21.449219 10.8125 21.449219 10.8125 L 21.636719 10.941406 C 21.636719 10.941406 21.730469 10.917969 21.730469 10.859375 C 21.730469 10.800781 21.71875 10.753906 21.71875 10.753906 L 21.53125 10.582031 C 21.53125 10.582031 21.507812 10.453125 21.601562 10.453125 C 21.695312 10.453125 21.765625 10.605469 21.765625 10.605469 C 21.765625 10.605469 21.867188 10.558594 21.859375 10.476562 C 21.847656 10.394531 21.789062 10.324219 21.789062 10.324219 C 21.789062 10.324219 21.683594 10.21875 21.707031 10.148438 C 21.730469 10.082031 21.8125 10.09375 21.8125 10.09375 C 21.8125 10.09375 21.878906 10.265625 21.949219 10.265625 C 22.019531 10.265625 22.101562 10.160156 22.066406 10.09375 C 22.03125 10.023438 21.9375 9.871094 21.9375 9.871094 C 21.9375 9.871094 21.949219 9.777344 22.007812 9.777344 C 22.066406 9.777344 22.183594 9.964844 22.183594 9.964844 C 22.183594 9.964844 22.3125 10.011719 22.3125 9.90625 C 22.3125 9.800781 22.277344 9.683594 22.277344 9.683594 C 22.277344 9.683594 22.195312 9.582031 22.289062 9.535156 C 22.378906 9.488281 22.378906 9.582031 22.402344 9.625 C 22.425781 9.671875 22.484375 9.800781 22.53125 9.742188 C 22.578125 9.683594 22.613281 9.582031 22.613281 9.582031 C 22.613281 9.582031 22.566406 9.5 22.566406 9.417969 C 22.566406 9.335938 22.613281 9.300781 22.613281 9.300781 C 22.613281 9.300781 22.707031 9.183594 22.71875 9.253906 C 22.730469 9.324219 22.730469 9.441406 22.742188 9.476562 C 22.753906 9.511719 22.890625 9.511719 22.902344 9.453125 C 22.914062 9.394531 22.925781 9.359375 22.925781 9.359375 C 22.925781 9.359375 22.878906 9.265625 22.914062 9.195312 C 22.949219 9.128906 22.902344 9.09375 22.972656 9.09375 C 23.042969 9.09375 23.089844 9.242188 23.089844 9.242188 C 23.089844 9.242188 23.089844 9.382812 23.148438 9.371094 C 23.207031 9.359375 23.277344 9.253906 23.277344 9.160156 C 23.277344 9.070312 23.3125 8.964844 23.390625 8.953125 C 23.472656 8.941406 23.402344 9.171875 23.402344 9.171875 C 23.402344 9.171875 23.460938 9.277344 23.507812 9.253906 C 23.554688 9.230469 23.613281 9.171875 23.613281 9.171875 L 23.707031 8.90625 L 23.835938 8.90625 C 23.835938 8.90625 23.789062 9.148438 23.84375 9.160156 C 23.902344 9.171875 23.984375 9.140625 23.984375 9.140625 C 23.984375 9.140625 24.019531 8.988281 24.054688 8.941406 C 24.089844 8.894531 24.207031 8.882812 24.207031 8.882812 C 24.207031 8.882812 24.242188 8.882812 24.230469 8.953125 C 24.21875 9.023438 24.136719 9.140625 24.230469 9.160156 C 24.320312 9.183594 24.402344 9.160156 24.402344 9.160156 C 24.402344 9.160156 24.460938 8.859375 24.589844 8.871094 C 24.71875 8.882812 24.566406 9.082031 24.566406 9.082031 C 24.566406 9.082031 24.578125 9.183594 24.660156 9.207031 C 24.742188 9.230469 24.84375 9.082031 24.84375 9.082031 C 24.84375 9.082031 24.902344 8.964844 24.972656 8.988281 C 25.042969 9.011719 24.902344 9.195312 24.902344 9.195312 C 24.902344 9.195312 25.042969 9.382812 25.042969 9.441406 C 25.042969 9.5 24.914062 10.636719 23.835938 11.371094 C 22.683594 12.253906 21.289062 11.683594 21.289062 11.683594 Z M 21.289062 11.683594 "/>
<path style=" stroke:none;fill-rule:nonzero;fill:rgb(100%,100%,100%);fill-opacity:1;" d="M 19.753906 8.347656 C 19.707031 8.40625 19.636719 8.394531 19.636719 8.394531 L 19.578125 8.359375 C 19.578125 8.359375 19.949219 7.347656 20.695312 6.917969 C 21.4375 6.488281 21.914062 6.464844 21.914062 6.464844 L 21.835938 6.640625 L 21.867188 6.742188 C 21.867188 6.742188 22.066406 6.859375 21.984375 6.941406 C 21.902344 7.023438 21.789062 6.894531 21.789062 6.894531 C 21.789062 6.894531 21.789062 6.753906 21.695312 6.847656 C 21.601562 6.941406 21.671875 7.070312 21.671875 7.070312 C 21.671875 7.070312 21.847656 7.21875 21.765625 7.300781 C 21.683594 7.382812 21.613281 7.230469 21.613281 7.230469 C 21.613281 7.230469 21.554688 7.105469 21.484375 7.171875 C 21.414062 7.242188 21.449219 7.359375 21.449219 7.359375 C 21.449219 7.359375 21.613281 7.617188 21.484375 7.628906 C 21.359375 7.640625 21.300781 7.394531 21.300781 7.394531 C 21.300781 7.394531 21.171875 7.523438 21.171875 7.582031 C 21.171875 7.640625 21.324219 7.789062 21.195312 7.871094 C 21.066406 7.953125 21.042969 7.742188 21.042969 7.742188 C 21.042969 7.742188 20.972656 7.582031 20.902344 7.660156 C 20.835938 7.742188 20.878906 7.871094 20.878906 7.871094 C 20.878906 7.871094 20.925781 8.09375 20.824219 8.09375 C 20.71875 8.09375 20.695312 8.011719 20.695312 8.011719 C 20.695312 8.011719 20.707031 7.765625 20.625 7.8125 C 20.542969 7.859375 20.53125 7.988281 20.53125 7.988281 C 20.53125 7.988281 20.601562 8.265625 20.449219 8.265625 C 20.300781 8.265625 20.371094 8.082031 20.371094 8.082031 C 20.371094 8.082031 20.347656 7.894531 20.265625 7.929688 C 20.183594 7.964844 20.183594 8.070312 20.183594 8.070312 L 20.148438 8.3125 L 19.984375 8.347656 C 19.984375 8.347656 20.019531 8.195312 19.996094 8.140625 C 19.972656 8.082031 19.9375 8.058594 19.882812 8.058594 C 19.824219 8.058594 19.765625 8.160156 19.765625 8.160156 C 19.765625 8.160156 19.800781 8.289062 19.753906 8.347656 Z M 19.753906 8.347656 "/>
<path style=" stroke:none;fill-rule:nonzero;fill:rgb(8.627451%,7.843137%,7.45098%);fill-opacity:1;" d="M 22.007812 6.429688 C 22.007812 6.429688 22.21875 6.535156 22.160156 6.605469 C 22.101562 6.671875 22.03125 6.59375 22.03125 6.59375 L 21.960938 6.5 Z M 22.007812 6.429688 "/>
<path style=" stroke:none;fill-rule:nonzero;fill:rgb(78.823529%,80%,81.960784%);fill-opacity:1;" d="M 31.226562 9.730469 C 31.601562 10.394531 31.867188 11.324219 30.972656 11.917969 C 30.078125 12.511719 29.136719 11.847656 28.867188 11.300781 C 28.601562 10.753906 28.25 9.917969 29.230469 9.195312 C 29.984375 8.789062 30.855469 9.070312 31.226562 9.730469 Z M 31.226562 9.730469 "/>
<path style=" stroke:none;fill-rule:nonzero;fill:rgb(8.627451%,7.843137%,7.45098%);fill-opacity:1;" d="M 31.101562 9.90625 C 31.203125 10.082031 31.53125 10.636719 30.636719 11.300781 C 29.738281 11.964844 29.078125 11.429688 28.996094 11.195312 C 28.914062 10.964844 28.648438 10.277344 29.589844 9.765625 C 30.53125 9.253906 30.996094 9.730469 31.101562 9.90625 Z M 31.101562 9.90625 "/>
<path style=" stroke:none;fill-rule:nonzero;fill:rgb(78.823529%,80%,81.960784%);fill-opacity:1;" d="M 27.34375 4.964844 C 27.34375 4.964844 28.03125 5.570312 28.230469 5.765625 C 28.425781 5.964844 29.683594 7.058594 28.648438 8.09375 C 27.613281 9.128906 26.320312 7.753906 26.195312 7.617188 C 26.066406 7.476562 25.878906 7.265625 25.773438 7.164062 C 25.671875 7.058594 25.378906 6.800781 25.378906 6.800781 L 25.472656 6.671875 C 25.472656 6.671875 25.648438 6.8125 25.695312 6.824219 C 25.742188 6.835938 25.855469 6.824219 25.855469 6.824219 C 25.855469 6.824219 27.183594 5.628906 27.261719 5.535156 C 27.34375 5.441406 27.320312 5.277344 27.320312 5.21875 C 27.320312 5.164062 27.230469 5.035156 27.230469 5.035156 Z M 27.34375 4.964844 "/>
<path style=" stroke:none;fill-rule:nonzero;fill:rgb(8.627451%,7.843137%,7.45098%);fill-opacity:1;" d="M 26.320312 7.195312 L 27.730469 5.894531 C 27.730469 5.894531 27.832031 5.71875 27.960938 5.835938 C 28.089844 5.953125 28.613281 6.347656 28.542969 6.917969 C 28.472656 7.488281 27.902344 8.105469 27.253906 8.011719 C 26.601562 7.917969 26.320312 7.476562 26.320312 7.476562 C 26.320312 7.476562 26.183594 7.382812 26.320312 7.195312 Z M 26.320312 7.195312 "/>
<path style=" stroke:none;fill-rule:nonzero;fill:rgb(78.823529%,80%,81.960784%);fill-opacity:1;" d="M 23.878906 2.800781 L 24.378906 3.105469 C 24.378906 3.105469 24.148438 5.570312 24.160156 5.628906 C 24.171875 5.683594 24.183594 5.765625 24.253906 5.847656 C 24.320312 5.929688 24.355469 5.929688 24.355469 5.929688 L 24.332031 6.011719 L 23.101562 5.464844 L 23.171875 5.3125 L 23.390625 5.429688 C 23.390625 5.429688 23.589844 5.488281 23.613281 5.300781 C 23.636719 5.117188 23.648438 4.640625 23.648438 4.640625 L 22.84375 4.207031 L 22.367188 4.640625 C 22.367188 4.640625 22.265625 4.777344 22.335938 4.859375 C 22.402344 4.941406 22.589844 5.035156 22.589844 5.035156 L 22.542969 5.171875 L 21.519531 4.707031 L 21.613281 4.570312 C 21.613281 4.570312 21.800781 4.742188 22.042969 4.535156 C 22.289062 4.324219 23.878906 2.800781 23.878906 2.800781 Z M 23.878906 2.800781 "/>
<path style=" stroke:none;fill-rule:nonzero;fill:rgb(8.627451%,7.843137%,7.45098%);fill-opacity:1;" d="M 23.707031 3.40625 L 23.671875 4.324219 L 23.042969 4.023438 Z M 23.707031 3.40625 "/>
<path style=" stroke:none;fill-rule:nonzero;fill:rgb(78.823529%,80%,81.960784%);fill-opacity:1;" d="M 18.695312 3.023438 L 18.960938 3.058594 C 18.960938 3.058594 19.007812 3.09375 19.054688 3.175781 C 19.101562 3.253906 19.496094 4.082031 19.496094 4.082031 C 19.496094 4.082031 19.660156 4.289062 19.890625 4.324219 C 20.125 4.359375 20.589844 4.394531 20.589844 4.394531 C 20.589844 4.394531 20.613281 4.3125 20.496094 4.242188 C 20.378906 4.175781 20.160156 4.023438 20.007812 3.605469 C 19.824219 3.265625 19.671875 3.011719 19.671875 3.011719 C 19.671875 3.011719 20.324219 2.90625 20.378906 2.417969 C 20.4375 1.929688 20.109375 1.628906 19.554688 1.511719 C 18.953125 1.386719 18.578125 1.382812 18.578125 1.382812 L 17.882812 1.324219 L 17.824219 1.453125 L 18.195312 1.628906 C 18.195312 1.628906 17.996094 3.6875 17.972656 3.742188 C 17.949219 3.800781 17.742188 3.871094 17.671875 3.871094 C 17.601562 3.871094 17.507812 3.859375 17.507812 3.859375 L 17.496094 3.976562 L 18.960938 4.175781 L 18.984375 4.046875 L 18.753906 3.976562 C 18.753906 3.976562 18.566406 3.976562 18.589844 3.710938 C 18.613281 3.441406 18.695312 3.023438 18.695312 3.023438 Z M 18.695312 3.023438 "/>
<path style=" stroke:none;fill-rule:nonzero;fill:rgb(8.627451%,7.843137%,7.45098%);fill-opacity:1;" d="M 18.730469 2.8125 L 18.882812 1.652344 C 18.882812 1.652344 19.054688 1.628906 19.230469 1.675781 C 19.402344 1.722656 19.835938 1.894531 19.753906 2.289062 C 19.671875 2.6875 19.519531 2.90625 19.125 2.882812 C 18.730469 2.859375 18.730469 2.8125 18.730469 2.8125 Z M 18.730469 2.8125 "/>
<path style=" stroke:none;fill-rule:nonzero;fill:rgb(78.823529%,80%,81.960784%);fill-opacity:1;" d="M 13.90625 1.734375 C 14.53125 1.410156 15.730469 1.488281 16.03125 2.222656 C 16.335938 2.953125 16.242188 3.753906 15.277344 4.195312 C 14.3125 4.640625 13.3125 4.175781 13.101562 3.523438 C 12.894531 2.871094 13.183594 2.105469 13.90625 1.734375 Z M 13.90625 1.734375 "/>
<path style=" stroke:none;fill-rule:nonzero;fill:rgb(8.627451%,7.843137%,7.45098%);fill-opacity:1;" d="M 14.242188 1.789062 C 14.578125 1.699219 15.195312 1.835938 15.464844 2.570312 C 15.730469 3.300781 15.566406 3.929688 15.101562 4.082031 C 14.636719 4.230469 13.984375 4.175781 13.683594 3.128906 C 13.464844 2.199219 13.90625 1.882812 14.242188 1.789062 Z M 14.242188 1.789062 "/>
<path style=" stroke:none;fill-rule:nonzero;fill:rgb(78.823529%,80%,81.960784%);fill-opacity:1;" d="M 8.941406 3.824219 L 10.207031 3.152344 L 10.253906 3.253906 C 10.253906 3.253906 10.089844 3.324219 10.046875 3.417969 C 10 3.511719 9.964844 3.558594 9.964844 3.558594 L 10.976562 5.453125 L 11.742188 5.023438 C 11.742188 5.023438 11.929688 4.894531 11.941406 4.800781 C 11.953125 4.710938 12.023438 4.300781 12.023438 4.300781 L 12.113281 4.324219 L 12.230469 5.011719 L 10.195312 6.164062 L 10.136719 6.011719 C 10.136719 6.011719 10.441406 5.882812 10.359375 5.664062 C 10.277344 5.441406 9.464844 4.011719 9.464844 4.011719 C 9.464844 4.011719 9.40625 3.859375 9.289062 3.859375 C 9.171875 3.859375 9.058594 3.929688 9.058594 3.929688 Z M 8.941406 3.824219 "/>
<path style=" stroke:none;fill-rule:nonzero;fill:rgb(78.823529%,80%,81.960784%);fill-opacity:1;" d="M 6.058594 6.152344 C 6.71875 5.382812 7.523438 5.253906 8.136719 5.730469 C 8.753906 6.207031 8.953125 7.070312 8.335938 7.824219 C 7.71875 8.582031 6.941406 8.683594 6.230469 8.253906 C 5.695312 7.859375 5.464844 7.023438 6.058594 6.152344 Z M 6.058594 6.152344 "/>
<path style=" stroke:none;fill-rule:nonzero;fill:rgb(8.627451%,7.843137%,7.45098%);fill-opacity:1;" d="M 6.21875 6.265625 C 6.449219 5.910156 7.011719 5.753906 7.648438 6.160156 C 8.289062 6.570312 8.605469 7.289062 8.160156 7.742188 C 7.71875 8.195312 7.117188 8.105469 6.628906 7.707031 C 6.140625 7.3125 5.871094 6.8125 6.21875 6.265625 Z M 6.21875 6.265625 "/>
<path style=" stroke:none;fill-rule:nonzero;fill:rgb(78.823529%,80%,81.960784%);fill-opacity:1;" d="M 4.046875 11.964844 C 3.378906 11.730469 3.070312 10.789062 3.441406 9.929688 C 3.765625 9.324219 3.90625 9.335938 4 9.230469 C 4.011719 9.148438 4 9.105469 4.023438 9.046875 C 4.046875 8.988281 4.707031 9.324219 4.707031 9.324219 L 4.652344 9.40625 C 4.652344 9.40625 4.59375 9.417969 4.488281 9.417969 C 4.382812 9.417969 4 9.335938 3.652344 9.988281 C 3.300781 10.636719 3.929688 11.195312 4.265625 11.359375 C 4.605469 11.523438 5.492188 11.757812 5.871094 10.882812 C 6.085938 10.382812 5.847656 10.046875 5.847656 10.046875 L 5.707031 9.847656 L 5.789062 9.695312 L 6.324219 10.195312 C 6.324219 10.195312 6.207031 10.382812 6.183594 10.476562 C 6.164062 10.570312 6.035156 11.070312 5.976562 11.171875 C 5.917969 11.277344 5.324219 12.429688 4.046875 11.964844 Z M 4.046875 11.964844 "/>
<path style=" stroke:none;fill-rule:nonzero;fill:rgb(8.627451%,7.843137%,7.45098%);fill-opacity:1;" d="M 33.816406 23.988281 C 33.816406 23.664062 34.082031 23.398438 34.410156 23.398438 C 34.738281 23.398438 35 23.664062 35 23.988281 C 35 24.316406 34.738281 24.582031 34.410156 24.582031 C 34.082031 24.582031 33.816406 24.316406 33.816406 23.988281 Z M 34.929688 23.988281 C 34.929688 23.703125 34.695312 23.46875 34.410156 23.46875 C 34.121094 23.46875 33.890625 23.703125 33.890625 23.988281 C 33.890625 24.277344 34.121094 24.511719 34.410156 24.511719 C 34.695312 24.511719 34.929688 24.277344 34.929688 23.988281 Z M 34.703125 24.320312 L 34.609375 24.320312 L 34.417969 24.015625 L 34.269531 24.015625 L 34.269531 24.320312 L 34.191406 24.320312 L 34.191406 23.65625 L 34.476562 23.65625 C 34.535156 23.65625 34.589844 23.660156 34.640625 23.691406 C 34.6875 23.71875 34.714844 23.777344 34.714844 23.832031 C 34.714844 23.960938 34.621094 24.011719 34.503906 24.015625 Z M 34.394531 23.949219 C 34.488281 23.949219 34.632812 23.964844 34.632812 23.832031 C 34.632812 23.730469 34.542969 23.714844 34.460938 23.714844 L 34.269531 23.714844 L 34.269531 23.949219 Z M 34.394531 23.949219 "/>
<path style=" stroke:none;fill-rule:nonzero;fill:rgb(78.823529%,80%,81.960784%);fill-opacity:1;" d="M 18.050781 16.644531 L 18.664062 16.644531 L 18.664062 21.1875 L 18.050781 21.1875 Z M 18.050781 16.644531 "/>
<path style=" stroke:none;fill-rule:nonzero;fill:rgb(78.823529%,80%,81.960784%);fill-opacity:1;" d="M 19.371094 19.042969 L 19.8125 18.578125 C 19.8125 18.578125 20.242188 18.972656 20.660156 19.625 C 21.078125 20.277344 21.636719 21.160156 21.636719 21.160156 L 20.730469 21.160156 C 20.730469 21.160156 20.765625 20.789062 20.335938 20.265625 C 19.949219 19.683594 19.371094 19.042969 19.371094 19.042969 Z M 19.371094 19.042969 "/>
</g>
</svg>
