<?xml version="1.0" encoding="UTF-8"?>
<svg xmlns="http://www.w3.org/2000/svg" xmlns:xlink="http://www.w3.org/1999/xlink" width="35pt" height="25pt" viewBox="0 0 35 25" version="1.1">
<g id="surface1">
<path style=" stroke:none;fill-rule:nonzero;fill:rgb(0%,27.45098%,51.764706%);fill-opacity:1;" d="M 12.683594 22.386719 C 13.117188 22.167969 13.238281 21.859375 13.296875 21.542969 C 13.320312 21.421875 13.25 21.417969 13.171875 21.503906 C 12.714844 21.929688 11.824219 22.019531 11.246094 20.886719 C 10.945312 20.300781 10.652344 19.832031 10.289062 19.542969 C 11.21875 19.207031 11.851562 18.414062 11.800781 17.574219 C 11.742188 16.550781 10.699219 15.785156 9.347656 15.875 C 6.550781 16.058594 5.742188 18.582031 6.652344 18.800781 C 7.34375 18.964844 7.691406 18.3125 7.75 17.839844 C 7.574219 18.003906 7.1875 18.125 7.253906 17.566406 C 7.320312 17.039062 8.214844 16.359375 9.347656 16.273438 C 10.136719 16.21875 10.78125 16.902344 10.820312 17.683594 C 10.851562 18.375 10.410156 19.007812 9.769531 19.277344 C 9.492188 19.199219 9.171875 19.207031 8.789062 19.308594 C 8.769531 17.863281 8.933594 17.058594 9.371094 16.59375 C 9.117188 16.679688 8.84375 16.832031 8.609375 17.101562 C 7.789062 18.085938 8.070312 20.941406 7.871094 21.902344 C 7.777344 22.421875 7.210938 22.695312 6.945312 22.234375 C 6.363281 23.097656 7.339844 23.816406 8.109375 23.410156 C 8.476562 23.214844 9.003906 22.699219 8.90625 21.457031 C 8.851562 20.757812 8.8125 20.152344 8.796875 19.625 C 9.03125 19.570312 9.417969 19.582031 9.699219 20.109375 C 10.015625 20.703125 10.804688 23.324219 12.683594 22.386719 "/>
<path style=" stroke:none;fill-rule:nonzero;fill:rgb(0%,27.45098%,51.764706%);fill-opacity:1;" d="M 26.980469 16.726562 C 27.050781 16.414062 27.039062 16.074219 26.949219 15.738281 C 26.632812 14.589844 26.867188 14.195312 27.085938 14 C 24.527344 13.664062 24.519531 17.535156 23.339844 17.9375 C 23.136719 18.007812 22.945312 17.835938 22.925781 17.578125 C 24.582031 15.597656 24.296875 12.847656 22.84375 12.707031 C 22.484375 12.671875 22.121094 13.011719 22.125 13.640625 C 22.125 13.640625 22.125 16.90625 22.125 17.222656 C 22.128906 17.542969 22.125 17.65625 22.136719 17.722656 C 22.140625 17.769531 22.152344 17.8125 22.160156 17.851562 C 22.09375 17.917969 22.023438 17.980469 21.953125 18.042969 C 21.4375 18.476562 21.351562 18.324219 21.304688 17.929688 L 21.304688 15.480469 L 20.46875 15.695312 C 20.46875 15.695312 20.464844 15.773438 20.464844 15.878906 C 20.355469 15.773438 20.140625 15.75 19.976562 15.753906 C 18.992188 15.777344 18.238281 17.421875 18.507812 18.679688 C 18.335938 18.875 18.089844 19.101562 17.816406 19.347656 L 17.820312 16.441406 L 16.972656 16.679688 L 16.964844 18.875 C 16.964844 18.914062 16.960938 19 16.960938 19.113281 C 16.847656 19.53125 16.515625 19.757812 16.339844 19.734375 C 16.160156 19.707031 16.109375 19.398438 16.113281 19.257812 L 16.113281 16.910156 L 15.308594 17.113281 C 15.328125 18.050781 14.957031 18.453125 14.535156 18.605469 C 14.398438 18.074219 14.082031 17.652344 13.578125 17.574219 C 13.332031 17.53125 13.117188 17.597656 12.964844 17.722656 C 11.855469 18.082031 11.640625 19.910156 12.113281 20.667969 C 12.390625 21.132812 12.75 21.234375 12.949219 21.253906 C 14.105469 21.363281 14.667969 20.148438 14.605469 19.082031 C 14.898438 18.988281 15.140625 18.816406 15.285156 18.597656 L 15.269531 19.292969 C 15.269531 19.757812 15.332031 20.4375 15.859375 20.441406 C 16.261719 20.441406 16.652344 20.148438 16.976562 19.78125 C 16.976562 19.886719 16.972656 20 16.972656 20.117188 C 16.421875 20.648438 15.898438 21.242188 15.6875 21.863281 C 15.671875 21.90625 15.660156 21.945312 15.648438 21.988281 C 14.714844 22.242188 13.929688 22.445312 13.453125 22.550781 C 10.542969 23.203125 9.714844 24.003906 9.578125 25 C 10.59375 23.863281 11.785156 24.304688 12.121094 24.507812 C 12.199219 24.332031 12.621094 23.726562 13.644531 23.332031 C 14.261719 23.09375 14.910156 22.863281 15.566406 22.632812 C 15.566406 23.476562 15.945312 24.347656 16.75 24.210938 C 17.367188 24.105469 17.820312 23.691406 17.8125 22.050781 L 17.8125 21.960938 C 21.265625 20.84375 24.710938 19.886719 27.097656 19.0625 C 28.339844 18.632812 28.078125 17.15625 26.980469 16.726562 M 13.574219 18.066406 C 13.78125 18.144531 13.933594 18.386719 14.023438 18.6875 C 13.722656 18.683594 13.46875 18.605469 13.394531 18.5625 C 12.960938 18.3125 13.25 17.941406 13.574219 18.066406 M 13.417969 20.488281 C 12.621094 20.492188 12.632812 19.128906 12.871094 18.664062 C 12.941406 18.753906 13.039062 18.84375 13.167969 18.917969 C 13.472656 19.09375 13.800781 19.167969 14.109375 19.164062 C 14.15625 19.808594 13.949219 20.488281 13.417969 20.488281 M 25.707031 16.855469 C 25.710938 16.855469 25.714844 16.855469 25.714844 16.855469 C 25.757812 16.851562 25.800781 16.847656 25.839844 16.847656 C 25.839844 16.847656 25.84375 16.847656 25.84375 16.847656 C 25.886719 16.84375 25.925781 16.84375 25.964844 16.847656 C 25.964844 16.847656 25.96875 16.847656 25.96875 16.847656 C 26.011719 16.847656 26.050781 16.851562 26.09375 16.859375 C 26.097656 16.859375 26.097656 16.859375 26.097656 16.859375 C 26.105469 16.859375 26.109375 16.863281 26.117188 16.863281 C 26.050781 17.15625 25.886719 17.375 25.558594 17.441406 C 24.832031 17.589844 24.859375 16.964844 25.417969 16.894531 C 25.527344 16.878906 25.621094 16.867188 25.707031 16.855469 M 26.113281 14.554688 C 25.800781 14.855469 26.105469 15.714844 26.144531 16.417969 C 26.148438 16.441406 26.144531 16.460938 26.148438 16.484375 C 25.902344 16.449219 25.636719 16.445312 25.28125 16.488281 C 25 16.523438 24.792969 16.621094 24.660156 16.746094 C 25 15.890625 25.527344 14.652344 26.113281 14.554688 M 23.574219 13.964844 C 23.816406 14.816406 23.574219 15.933594 22.941406 16.914062 C 22.941406 15.96875 22.941406 13.921875 22.941406 13.675781 C 22.933594 13.230469 23.386719 13.292969 23.574219 13.964844 M 19.59375 16.527344 C 19.886719 15.964844 20.433594 16.144531 20.511719 16.464844 C 20.511719 17.050781 20.496094 17.597656 20.5 17.777344 C 20.5 18.253906 20.148438 18.835938 19.769531 18.8125 C 19.210938 18.78125 19.175781 17.332031 19.59375 16.527344 M 16.972656 20.65625 C 16.972656 20.984375 16.972656 21.308594 16.972656 21.570312 C 16.703125 21.644531 16.441406 21.71875 16.183594 21.785156 C 16.1875 21.777344 16.191406 21.765625 16.195312 21.753906 C 16.363281 21.375 16.644531 21.007812 16.972656 20.65625 M 16.640625 23.648438 C 16.28125 23.742188 16.0625 23.152344 16.054688 22.546875 C 16.359375 22.441406 16.664062 22.339844 16.96875 22.238281 C 16.96875 23.265625 16.925781 23.574219 16.640625 23.648438 M 26.972656 18.710938 C 25.238281 19.230469 21.261719 20.378906 17.816406 21.339844 L 17.816406 19.851562 C 18.121094 19.585938 18.425781 19.328125 18.695312 19.085938 C 18.796875 19.371094 19.839844 19.9375 20.503906 18.722656 C 20.808594 19.667969 21.878906 18.535156 22.125 18.347656 C 22.1875 18.296875 22.246094 18.25 22.304688 18.199219 C 22.652344 18.710938 23.417969 18.574219 23.855469 18.152344 C 24.085938 17.933594 24.3125 17.558594 24.464844 17.21875 C 24.5 17.582031 24.90625 17.925781 25.636719 17.847656 C 26.230469 17.78125 26.621094 17.5 26.835938 17.113281 C 26.875 17.128906 26.917969 17.148438 26.960938 17.167969 C 27.828125 17.566406 27.625 18.515625 26.972656 18.710938 "/>
<path style=" stroke:none;fill-rule:nonzero;fill:rgb(0%,27.45098%,51.764706%);fill-opacity:1;" d="M 27.832031 14.476562 L 27.640625 14.476562 L 27.640625 15 L 27.507812 15 L 27.507812 14.476562 L 27.316406 14.476562 L 27.316406 14.359375 L 27.832031 14.359375 Z M 28.703125 15 L 28.574219 15 L 28.574219 14.492188 L 28.570312 14.492188 L 28.386719 15 L 28.261719 15 L 28.082031 14.492188 L 28.078125 14.492188 L 28.078125 15 L 27.949219 15 L 27.949219 14.359375 L 28.175781 14.359375 L 28.324219 14.777344 L 28.328125 14.777344 L 28.480469 14.359375 L 28.703125 14.359375 Z M 28.703125 15 "/>
<path style=" stroke:none;fill-rule:nonzero;fill:rgb(0%,27.45098%,51.764706%);fill-opacity:1;" d="M 27.832031 14.476562 L 27.640625 14.476562 L 27.640625 15 L 27.507812 15 L 27.507812 14.476562 L 27.316406 14.476562 L 27.316406 14.359375 L 27.832031 14.359375 Z M 28.703125 15 L 28.574219 15 L 28.574219 14.492188 L 28.570312 14.492188 L 28.386719 15 L 28.261719 15 L 28.082031 14.492188 L 28.078125 14.492188 L 28.078125 15 L 27.949219 15 L 27.949219 14.359375 L 28.175781 14.359375 L 28.324219 14.777344 L 28.328125 14.777344 L 28.480469 14.359375 L 28.703125 14.359375 Z M 28.703125 15 "/>
<path style=" stroke:none;fill-rule:nonzero;fill:rgb(0%,27.45098%,51.764706%);fill-opacity:1;" d="M 27.832031 14.476562 L 27.640625 14.476562 L 27.640625 15 L 27.507812 15 L 27.507812 14.476562 L 27.316406 14.476562 L 27.316406 14.359375 L 27.832031 14.359375 Z M 28.703125 15 L 28.574219 15 L 28.574219 14.492188 L 28.570312 14.492188 L 28.386719 15 L 28.261719 15 L 28.082031 14.492188 L 28.078125 14.492188 L 28.078125 15 L 27.949219 15 L 27.949219 14.359375 L 28.175781 14.359375 L 28.324219 14.777344 L 28.328125 14.777344 L 28.480469 14.359375 L 28.703125 14.359375 Z M 28.703125 15 "/>
<path style=" stroke:none;fill-rule:nonzero;fill:rgb(0%,27.45098%,51.764706%);fill-opacity:1;" d="M 12.035156 4.222656 L 12.035156 12.878906 L 16.605469 15.554688 L 21.175781 12.878906 L 21.175781 4.222656 Z M 12.035156 4.222656 "/>
<path style=" stroke:none;fill-rule:nonzero;fill:rgb(55.686275%,42.352941%,13.333333%);fill-opacity:1;" d="M 21.007812 1.085938 C 21.304688 1.085938 21.550781 0.84375 21.550781 0.542969 C 21.550781 0.242188 21.304688 0 21.007812 0 C 20.707031 0 20.464844 0.242188 20.464844 0.542969 C 20.464844 0.84375 20.707031 1.085938 21.007812 1.085938 "/>
<path style=" stroke:none;fill-rule:nonzero;fill:rgb(55.686275%,42.352941%,13.333333%);fill-opacity:1;" d="M 20.953125 1.441406 L 20.839844 1.441406 C 20.839844 2.15625 20.261719 2.738281 19.546875 2.738281 C 18.832031 2.738281 18.257812 2.15625 18.257812 1.441406 L 17.914062 1.441406 C 17.914062 2.15625 17.335938 2.738281 16.621094 2.738281 C 15.90625 2.738281 15.332031 2.152344 15.332031 1.4375 L 14.984375 1.441406 C 14.984375 2.15625 14.40625 2.738281 13.691406 2.738281 C 12.976562 2.738281 12.402344 2.152344 12.402344 1.4375 L 12.027344 1.433594 L 12.027344 3.976562 L 21.179688 3.976562 L 21.179688 1.441406 L 20.839844 1.441406 "/>
<path style=" stroke:none;fill-rule:nonzero;fill:rgb(55.686275%,42.352941%,13.333333%);fill-opacity:1;" d="M 12.21875 1.085938 C 12.519531 1.085938 12.761719 0.84375 12.761719 0.542969 C 12.761719 0.242188 12.519531 0 12.21875 0 C 11.917969 0 11.675781 0.242188 11.675781 0.542969 C 11.675781 0.84375 11.917969 1.085938 12.21875 1.085938 "/>
<path style=" stroke:none;fill-rule:nonzero;fill:rgb(55.686275%,42.352941%,13.333333%);fill-opacity:1;" d="M 15.171875 1.085938 C 15.472656 1.085938 15.714844 0.84375 15.714844 0.542969 C 15.714844 0.242188 15.472656 0 15.171875 0 C 14.871094 0 14.628906 0.242188 14.628906 0.542969 C 14.628906 0.84375 14.871094 1.085938 15.171875 1.085938 "/>
<path style=" stroke:none;fill-rule:nonzero;fill:rgb(55.686275%,42.352941%,13.333333%);fill-opacity:1;" d="M 18.09375 1.085938 C 18.390625 1.085938 18.636719 0.84375 18.636719 0.542969 C 18.636719 0.242188 18.390625 0 18.09375 0 C 17.792969 0 17.546875 0.242188 17.546875 0.542969 C 17.546875 0.84375 17.792969 1.085938 18.09375 1.085938 "/>
<path style=" stroke:none;fill-rule:nonzero;fill:rgb(13.72549%,12.156863%,12.54902%);fill-opacity:1;" d="M 13.722656 6.734375 C 13.722656 6.238281 13.390625 6.082031 13.09375 6.082031 L 12.992188 6.082031 L 12.992188 5.824219 L 14.941406 5.824219 L 14.941406 6.085938 C 14.664062 6.105469 14.375 6.277344 14.375 6.734375 L 14.375 8.277344 L 14.511719 8.199219 C 14.792969 7.804688 15.527344 6.753906 15.679688 6.453125 C 15.871094 6.082031 15.582031 6.082031 15.304688 6.082031 L 15.304688 5.824219 L 17.03125 5.824219 L 17.03125 6.082031 L 16.910156 6.082031 C 16.722656 6.082031 16.488281 6.082031 16.179688 6.464844 C 15.78125 6.953125 14.996094 8.140625 14.996094 8.140625 C 16.203125 8.230469 16.65625 9.886719 16.964844 10.113281 C 16.789062 8.929688 17.664062 7.453125 18.945312 7.511719 C 19.089844 7.519531 19.265625 7.5 19.675781 7.613281 C 20.085938 7.726562 20.121094 7.523438 20.179688 7.296875 L 20.484375 7.296875 L 20.484375 9.246094 L 20.21875 9.246094 C 20.195312 8.90625 20.03125 7.792969 18.949219 7.757812 C 17.851562 7.726562 17.644531 8.996094 17.628906 9.863281 C 17.574219 13.074219 19.808594 12.972656 20.21875 11.9375 C 20.277344 11.785156 20.253906 11.742188 20.183594 11.710938 C 19.699219 11.476562 20.261719 10.84375 20.574219 11.394531 C 20.71875 11.648438 20.460938 12.847656 19.125 12.847656 C 17.042969 12.847656 16.433594 9.941406 15.660156 8.996094 C 15.058594 8.261719 14.566406 8.59375 14.378906 8.773438 L 14.371094 9.277344 L 14.375 10.179688 C 14.375 10.675781 14.710938 10.832031 15.007812 10.832031 L 15.105469 10.832031 L 15.105469 11.089844 L 12.992188 11.089844 L 12.992188 10.832031 L 13.09375 10.832031 C 13.390625 10.832031 13.722656 10.675781 13.722656 10.179688 L 13.722656 6.734375 "/>
<path style=" stroke:none;fill-rule:nonzero;fill:rgb(100%,100%,100%);fill-opacity:1;" d="M 13.542969 6.550781 C 13.542969 6.054688 13.207031 5.898438 12.910156 5.902344 L 12.8125 5.898438 L 12.8125 5.640625 L 14.757812 5.640625 L 14.757812 5.902344 C 14.480469 5.925781 14.195312 6.09375 14.195312 6.550781 L 14.195312 8.09375 L 14.328125 8.019531 C 14.609375 7.621094 15.347656 6.574219 15.5 6.269531 C 15.6875 5.898438 15.398438 5.898438 15.125 5.898438 L 15.125 5.640625 L 16.847656 5.640625 L 16.847656 5.898438 L 16.726562 5.898438 C 16.539062 5.898438 16.308594 5.898438 15.996094 6.28125 C 15.601562 6.773438 14.8125 7.960938 14.8125 7.960938 C 16.019531 8.050781 16.472656 9.703125 16.78125 9.929688 C 16.605469 8.746094 17.480469 7.273438 18.761719 7.328125 C 18.90625 7.335938 19.085938 7.316406 19.492188 7.429688 C 19.902344 7.542969 19.941406 7.339844 19.996094 7.113281 L 20.300781 7.113281 L 20.300781 9.0625 L 20.035156 9.0625 C 20.015625 8.726562 19.847656 7.609375 18.765625 7.578125 C 17.667969 7.542969 17.460938 8.816406 17.445312 9.683594 C 17.390625 12.890625 19.625 12.789062 20.035156 11.753906 C 20.097656 11.601562 20.070312 11.5625 20.003906 11.527344 C 19.515625 11.292969 20.078125 10.660156 20.394531 11.214844 C 20.535156 11.464844 20.28125 12.667969 18.941406 12.667969 C 16.859375 12.667969 16.25 9.761719 15.476562 8.816406 C 14.875 8.078125 14.382812 8.410156 14.199219 8.589844 L 14.191406 9.097656 L 14.195312 9.996094 C 14.195312 10.492188 14.527344 10.652344 14.828125 10.648438 L 14.925781 10.652344 L 14.925781 10.90625 L 12.8125 10.90625 L 12.8125 10.652344 L 12.910156 10.648438 C 13.207031 10.652344 13.542969 10.492188 13.542969 9.996094 L 13.542969 6.550781 "/>
</g>
</svg>
