<?xml version="1.0" encoding="UTF-8"?>
<svg xmlns="http://www.w3.org/2000/svg" xmlns:xlink="http://www.w3.org/1999/xlink" width="15pt" height="20pt" viewBox="0 0 15 20" version="1.1">
<g id="surface1">
<path style=" stroke:none;fill-rule:nonzero;fill:rgb(100%,100%,100%);fill-opacity:1;" d="M 8.289062 20 L 14.054688 20 C 13.523438 19.640625 13.050781 19.015625 12.839844 18.300781 L 11.230469 12.832031 C 11.054688 12.242188 11.339844 11.65625 11.792969 11.257812 C 11.148438 11.0625 10.578125 10.621094 10.398438 10.011719 L 9.496094 6.949219 C 10.78125 6.527344 11.617188 5.773438 11.617188 4.902344 C 11.617188 3.761719 10.1875 2.828125 8.203125 2.558594 L 7.449219 0 L 6.601562 0 L 5.847656 2.558594 C 3.863281 2.828125 2.433594 3.761719 2.433594 4.902344 C 2.433594 5.773438 3.269531 6.527344 4.554688 6.949219 L 3.652344 10.011719 C 3.476562 10.621094 2.902344 11.0625 2.261719 11.257812 C 2.710938 11.65625 2.996094 12.242188 2.824219 12.832031 L 1.210938 18.300781 C 0.996094 19.015625 0.53125 19.640625 0 20 L 5.765625 20 C 5.292969 19.640625 5.035156 19.015625 5.246094 18.300781 L 5.386719 17.824219 L 8.667969 17.824219 L 8.804688 18.300781 C 9.015625 19.015625 8.757812 19.640625 8.289062 20 M 6.53125 13.949219 L 7.027344 12.257812 L 7.523438 13.949219 Z M 6.53125 13.949219 "/>
<path style=" stroke:none;fill-rule:nonzero;fill:rgb(0%,19.607843%,38.823529%);fill-opacity:1;" d="M 13.085938 19.613281 C 12.808594 19.257812 12.589844 18.84375 12.460938 18.410156 L 10.859375 12.980469 C 10.609375 12.117188 11.078125 11.503906 11.140625 11.40625 C 10.582031 11.109375 10.175781 10.65625 10.019531 10.121094 L 9.046875 6.8125 C 10.421875 6.453125 11.355469 5.730469 11.355469 4.902344 C 11.355469 3.851562 9.851562 2.972656 7.859375 2.777344 L 7.15625 0.390625 L 6.898438 0.390625 L 6.195312 2.777344 C 4.199219 2.972656 2.695312 3.847656 2.695312 4.902344 C 2.695312 5.730469 3.632812 6.453125 5.007812 6.8125 L 4.03125 10.121094 C 3.875 10.65625 3.46875 11.109375 2.914062 11.40625 C 2.976562 11.503906 3.445312 12.117188 3.191406 12.980469 L 1.589844 18.410156 C 1.460938 18.84375 1.242188 19.257812 0.96875 19.613281 L 4.957031 19.613281 C 4.636719 18.910156 4.804688 18.398438 4.949219 17.914062 L 5.089844 17.433594 L 8.960938 17.433594 L 9.101562 17.914062 C 9.246094 18.398438 9.414062 18.910156 9.09375 19.613281 M 6 14.339844 L 7.027344 10.867188 L 8.050781 14.339844 Z M 6 14.339844 "/>
<path style=" stroke:none;fill-rule:nonzero;fill:rgb(80.392157%,6.666667%,25.490196%);fill-opacity:1;" d="M 8.085938 5.75 L 7.574219 4.007812 L 7.675781 4.355469 C 7.464844 4.34375 7.25 4.335938 7.027344 4.335938 L 7.027344 5.464844 L 10.101562 15.886719 L 10.808594 18.277344 L 12.023438 18.996094 C 11.9375 18.816406 11.863281 18.628906 11.804688 18.4375 L 10.273438 13.257812 C 10.035156 12.449219 10.164062 12.097656 10.339844 11.609375 C 9.878906 11.261719 9.574219 10.808594 9.425781 10.296875 L 8.265625 6.351562 C 8.265625 6.351562 8.261719 6.351562 8.261719 6.351562 "/>
<path style=" stroke:none;fill-rule:nonzero;fill:rgb(80.392157%,6.666667%,25.490196%);fill-opacity:1;" d="M 7.386719 3.371094 L 7.027344 2.148438 L 7.027344 3.363281 C 7.148438 3.363281 7.269531 3.363281 7.386719 3.371094 "/>
<path style=" stroke:none;fill-rule:nonzero;fill:rgb(80.392157%,6.666667%,25.490196%);fill-opacity:1;" d="M 3.226562 18.339844 L 4.207031 18.996094 C 4.15625 18.671875 4.207031 18.242188 4.300781 17.9375 L 4.625 16.820312 L 3.953125 15.886719 "/>
<path style=" stroke:none;fill-rule:nonzero;fill:rgb(80.392157%,6.666667%,25.490196%);fill-opacity:1;" d="M 5.171875 14.953125 L 7.027344 8.679688 L 7.027344 5.464844 L 3.949219 15.886719 L 10.101562 15.886719 L 8.875 14.953125 "/>
<path style=" stroke:none;fill-rule:nonzero;fill:rgb(56.078431%,0%,15.686275%);fill-opacity:1;" d="M 7.027344 8.679688 L 8.875 14.953125 L 10.101562 15.886719 L 7.027344 5.464844 "/>
<path style=" stroke:none;fill-rule:nonzero;fill:rgb(56.078431%,0%,15.686275%);fill-opacity:1;" d="M 12.023438 18.996094 L 10.808594 18.277344 L 10.101562 15.886719 L 3.949219 15.886719 L 7.027344 5.464844 L 7.027344 4.335938 C 7.25 4.335938 7.464844 4.34375 7.675781 4.355469 L 7.574219 4.007812 C 7.546875 4.003906 7.519531 4.003906 7.492188 4.003906 C 7.339844 3.996094 7.1875 3.992188 7.027344 3.992188 C 6.839844 3.992188 6.65625 3.996094 6.480469 4.007812 L 5.964844 5.75 L 5.789062 6.351562 L 4.625 10.296875 C 4.476562 10.808594 4.175781 11.261719 3.710938 11.609375 C 3.886719 12.097656 4.019531 12.449219 3.777344 13.257812 L 2.246094 18.4375 C 2.1875 18.628906 2.117188 18.816406 2.027344 18.996094 L 4.207031 18.996094 L 3.226562 18.339844 L 3.953125 15.886719 L 4.625 16.820312 L 9.425781 16.820312 L 9.757812 17.9375 C 9.84375 18.242188 9.894531 18.671875 9.84375 18.996094 "/>
<path style=" stroke:none;fill-rule:nonzero;fill:rgb(56.078431%,0%,15.686275%);fill-opacity:1;" d="M 7.027344 2.148438 L 6.667969 3.371094 C 6.785156 3.363281 6.90625 3.363281 7.027344 3.363281 "/>
<path style=" stroke:none;fill-rule:nonzero;fill:rgb(76.862745%,80.392157%,82.745098%);fill-opacity:1;" d="M 5.964844 5.75 C 4.851562 5.621094 4.058594 5.289062 4.058594 4.902344 C 4.058594 4.457031 5.101562 4.085938 6.480469 4.007812 C 6.65625 3.996094 6.839844 3.992188 7.027344 3.992188 C 7.1875 3.992188 7.339844 3.996094 7.492188 4.003906 C 7.519531 4.003906 7.546875 4.003906 7.574219 4.007812 C 8.949219 4.085938 9.992188 4.453125 9.992188 4.902344 C 9.992188 5.289062 9.203125 5.621094 8.085938 5.75 L 8.261719 6.351562 C 8.261719 6.351562 8.265625 6.351562 8.265625 6.351562 C 9.699219 6.140625 10.726562 5.570312 10.726562 4.902344 C 10.726562 4.101562 9.261719 3.445312 7.386719 3.371094 C 7.269531 3.363281 7.148438 3.363281 7.027344 3.363281 C 6.90625 3.363281 6.785156 3.363281 6.667969 3.371094 C 4.789062 3.445312 3.324219 4.101562 3.324219 4.902344 C 3.324219 5.570312 4.351562 6.140625 5.789062 6.351562 "/>
<path style=" stroke:none;fill-rule:nonzero;fill:rgb(0%,19.607843%,38.823529%);fill-opacity:1;" d="M 14.207031 19.128906 L 14.035156 19.128906 L 14.035156 19.589844 L 13.921875 19.589844 L 13.921875 19.128906 L 13.75 19.128906 L 13.75 19.03125 L 14.207031 19.03125 M 14.980469 19.589844 L 14.867188 19.589844 L 14.867188 19.144531 L 14.863281 19.144531 L 14.699219 19.589844 L 14.585938 19.589844 L 14.429688 19.144531 L 14.425781 19.144531 L 14.425781 19.589844 L 14.3125 19.589844 L 14.3125 19.03125 L 14.511719 19.03125 L 14.640625 19.394531 L 14.644531 19.394531 L 14.78125 19.03125 L 14.980469 19.03125 Z M 14.980469 19.589844 "/>
</g>
</svg>
