<?xml version="1.0" encoding="UTF-8"?>
<svg xmlns="http://www.w3.org/2000/svg" xmlns:xlink="http://www.w3.org/1999/xlink" width="18pt" height="20pt" viewBox="0 0 18 20" version="1.1">
<g id="surface1">
<path style=" stroke:none;fill-rule:nonzero;fill:rgb(54.117647%,55.294118%,56.078431%);fill-opacity:1;" d="M 12.164062 11.496094 L 13.988281 16.222656 L 17.558594 16.222656 L 12.59375 3.671875 L 9.417969 9.566406 L 6.757812 4.585938 L 6.414062 3.941406 L 6.25 3.632812 L 6.027344 4.191406 L 5.683594 5.066406 C 5.285156 5.367188 4.949219 5.65625 4.648438 5.949219 C 3.285156 7.269531 3.160156 8.253906 3.527344 8.945312 C 3.582031 9.039062 3.648438 9.128906 3.71875 9.214844 C 3.988281 9.535156 4.363281 9.792969 4.71875 9.964844 C 4.726562 9.96875 4.734375 9.972656 4.742188 9.976562 C 4.761719 9.988281 4.78125 9.996094 4.800781 10.003906 C 4.824219 10.015625 4.871094 10.035156 4.902344 10.046875 C 4.917969 10.054688 4.929688 10.058594 4.933594 10.0625 C 4.933594 10.0625 4.9375 10.0625 4.9375 10.0625 C 4.902344 10.046875 4.855469 10.023438 4.820312 10.003906 C 4.792969 9.992188 4.769531 9.976562 4.742188 9.964844 C 4.726562 9.957031 4.714844 9.949219 4.703125 9.941406 C 4.699219 9.9375 4.695312 9.9375 4.695312 9.9375 C 4.671875 9.921875 4.648438 9.90625 4.625 9.894531 C 4.609375 9.882812 4.59375 9.871094 4.574219 9.859375 C 4.566406 9.855469 4.558594 9.851562 4.550781 9.84375 C 4.539062 9.835938 4.53125 9.832031 4.519531 9.824219 C 4.421875 9.753906 4.34375 9.6875 4.296875 9.644531 C 4.285156 9.632812 4.269531 9.617188 4.253906 9.601562 L 5.992188 5.117188 L 6.140625 4.730469 L 6.25 4.453125 L 6.328125 4.601562 L 6.4375 4.800781 L 9.421875 10.382812 L 12.59375 4.453125 L 17 15.832031 L 14.253906 15.832031 L 12.222656 10.574219 L 9.421875 15.8125 L 6.621094 10.574219 L 6.617188 10.582031 L 6.59375 10.644531 L 6.59375 10.640625 L 4.585938 15.832031 L 1.839844 15.832031 L 4.09375 10.015625 C 4.097656 10.015625 4.105469 10.019531 4.113281 10.019531 C 4.007812 10 3.90625 9.976562 3.820312 9.957031 C 3.816406 9.957031 3.816406 9.957031 3.816406 9.957031 C 3.816406 9.957031 3.820312 9.957031 3.820312 9.957031 C 3.816406 9.957031 3.792969 9.953125 3.753906 9.949219 C 3.753906 9.949219 3.753906 9.949219 3.75 9.949219 L 1.273438 16.222656 L 4.839844 16.222656 L 6.671875 11.496094 L 9.414062 16.578125 Z M 3.996094 9.328125 C 3.882812 9.191406 3.800781 9.058594 3.742188 8.957031 C 3.671875 8.824219 3.640625 8.738281 3.640625 8.738281 C 3.613281 8.652344 3.59375 8.554688 3.578125 8.4375 C 3.445312 7.46875 4.339844 6.417969 5.519531 5.476562 Z M 3.996094 9.328125 "/>
<path style=" stroke:none;fill-rule:nonzero;fill:rgb(54.117647%,55.294118%,56.078431%);fill-opacity:1;" d="M 8.945312 2.167969 C 11.542969 0.921875 13.3125 0 13.3125 0 L 12.660156 0.25 C 12.597656 0.28125 11.222656 0.914062 10.984375 1.019531 C 9.558594 1.652344 7.652344 2.507812 6.859375 2.914062 C 6.699219 2.996094 6.441406 3.140625 6.160156 3.304688 C 3.453125 5.023438 1.472656 6.945312 2.480469 9.15625 C 1.324219 7.804688 2.335938 5.816406 3.558594 4.441406 C 4.371094 3.523438 4.757812 3.140625 5.171875 2.460938 C 5.5 1.925781 5.710938 1.363281 5.691406 0.796875 C 5.710938 0.808594 5.253906 0.574219 5.253906 0.574219 C 5.3125 0.757812 5.191406 1.859375 4.488281 2.828125 C 3.722656 3.890625 1.070312 6.230469 1.875 8.4375 C 2.320312 9.660156 3.464844 9.902344 3.75 9.949219 C 3.773438 9.949219 3.796875 9.957031 3.816406 9.957031 C 1.320312 8.65625 1.972656 5.433594 8.945312 2.167969 Z M 8.945312 2.167969 "/>
<path style=" stroke:none;fill-rule:nonzero;fill:rgb(54.117647%,55.294118%,56.078431%);fill-opacity:1;" d="M 6.757812 4.585938 C 8.007812 3.765625 9.289062 3.109375 9.925781 2.800781 L 9.675781 2.683594 C 8.570312 3.242188 7.683594 3.738281 6.953125 4.191406 C 6.851562 4.257812 6.75 4.320312 6.652344 4.386719 Z M 6.757812 4.585938 "/>
<path style=" stroke:none;fill-rule:nonzero;fill:rgb(12.941176%,46.666667%,74.117647%);fill-opacity:1;" d="M 6.953125 4.191406 C 7.683594 3.738281 8.570312 3.242188 9.675781 2.683594 L 9.292969 2.503906 L 9.113281 2.417969 C 8.375 2.789062 7.332031 3.363281 6.414062 3.941406 L 6.652344 4.386719 C 6.75 4.320312 6.851562 4.257812 6.953125 4.191406 Z M 6.953125 4.191406 "/>
<path style=" stroke:none;fill-rule:nonzero;fill:rgb(12.941176%,46.666667%,74.117647%);fill-opacity:1;" d="M 4.902344 10.046875 C 4.871094 10.035156 4.824219 10.015625 4.800781 10.003906 C 4.78125 9.996094 4.761719 9.988281 4.742188 9.976562 C 4.734375 9.972656 4.726562 9.96875 4.71875 9.964844 C 4.363281 9.792969 3.988281 9.535156 3.71875 9.214844 C 3.648438 9.128906 3.582031 9.039062 3.527344 8.945312 C 3.164062 8.253906 3.285156 7.269531 4.648438 5.949219 C 4.949219 5.65625 5.285156 5.367188 5.683594 5.066406 L 6.027344 4.191406 C 5.90625 4.273438 5.785156 4.355469 5.671875 4.433594 C 2.203125 6.84375 2.46875 8.46875 3.449219 9.304688 C 3.621094 9.453125 3.816406 9.589844 4.015625 9.6875 C 4.289062 9.820312 4.546875 9.945312 4.824219 10.03125 C 4.855469 10.039062 4.886719 10.046875 4.917969 10.058594 C 4.921875 10.058594 4.929688 10.0625 4.933594 10.0625 L 4.9375 10.0625 C 4.933594 10.0625 4.917969 10.054688 4.902344 10.046875 Z M 4.902344 10.046875 "/>
<path style=" stroke:none;fill-rule:nonzero;fill:rgb(94.901961%,40.784314%,13.333333%);fill-opacity:1;" d="M 3.558594 4.441406 C 2.335938 5.816406 1.324219 7.804688 2.480469 9.15625 C 1.472656 6.945312 3.453125 5.023438 6.160156 3.304688 C 6.441406 3.140625 6.699219 2.996094 6.859375 2.914062 C 7.652344 2.507812 9.558594 1.652344 10.984375 1.019531 C 11.222656 0.914062 12.597656 0.28125 12.660156 0.25 C 12.664062 0.25 12.664062 0.25 12.664062 0.25 C 12.664062 0.25 9.769531 1.363281 9.195312 1.589844 C 9.1875 1.589844 9.195312 1.589844 9.191406 1.589844 C 8.917969 1.65625 8.53125 1.726562 8.253906 1.714844 C 8.035156 1.710938 7.664062 1.664062 7.242188 1.484375 C 7.113281 1.429688 6.375 1.121094 5.753906 0.828125 C 5.734375 0.820312 5.710938 0.808594 5.691406 0.796875 C 5.710938 1.363281 5.5 1.925781 5.171875 2.460938 C 4.757812 3.140625 4.371094 3.523438 3.558594 4.441406 Z M 3.558594 4.441406 "/>
<path style=" stroke:none;fill-rule:nonzero;fill:rgb(100%,81.960784%,2.745098%);fill-opacity:1;" d="M 9.542969 11.679688 L 12.480469 6.210938 L 12.59375 4.453125 L 9.421875 10.382812 L 6.4375 4.800781 L 6.328125 4.601562 L 6.25 4.453125 L 6.261719 4.648438 L 6.277344 4.914062 L 6.34375 6.015625 L 6.355469 6.199219 L 9.3125 11.679688 L 9.425781 11.898438 Z M 9.542969 11.679688 "/>
<path style=" stroke:none;fill-rule:nonzero;fill:rgb(12.941176%,46.666667%,74.117647%);fill-opacity:1;" d="M 2.929688 15.042969 L 2.929688 15.046875 L 4.023438 15.042969 Z M 2.929688 15.042969 "/>
<path style=" stroke:none;fill-rule:nonzero;fill:rgb(12.941176%,46.666667%,74.117647%);fill-opacity:1;" d="M 9.300781 13.8125 L 9.421875 14.039062 L 9.542969 13.8125 L 9.421875 14.039062 Z M 9.300781 13.8125 "/>
<path style=" stroke:none;fill-rule:nonzero;fill:rgb(12.941176%,46.666667%,74.117647%);fill-opacity:1;" d="M 4.195312 15.257812 L 2.847656 15.257812 L 2.875 15.183594 L 2.847656 15.257812 L 1.839844 15.832031 L 4.585938 15.832031 L 6.59375 10.644531 L 6.617188 10.582031 L 6.621094 10.574219 L 9.421875 15.8125 L 12.222656 10.574219 L 14.253906 15.832031 L 17 15.832031 L 15.992188 15.25 L 15.984375 15.238281 L 15.992188 15.25 L 14.644531 15.25 L 12.304688 9.207031 L 9.421875 14.597656 L 6.535156 9.207031 Z M 4.195312 15.257812 "/>
<path style=" stroke:none;fill-rule:nonzero;fill:rgb(12.941176%,46.666667%,74.117647%);fill-opacity:1;" d="M 15.898438 15.027344 L 15.984375 15.238281 L 13.972656 10.0625 L 15.855469 14.914062 Z M 15.898438 15.027344 "/>
<path style=" stroke:none;fill-rule:nonzero;fill:rgb(54.117647%,55.294118%,56.078431%);fill-opacity:1;" d="M 15.984375 15.238281 L 15.898438 15.027344 L 14.820312 15.027344 L 12.335938 8.589844 L 9.542969 13.8125 L 9.421875 14.039062 L 9.300781 13.8125 L 6.511719 8.605469 L 4.023438 15.042969 L 2.929688 15.046875 L 2.875 15.183594 L 2.847656 15.257812 L 4.195312 15.257812 L 6.535156 9.207031 L 9.421875 14.597656 L 12.304688 9.207031 L 14.644531 15.25 L 15.992188 15.25 Z M 15.984375 15.238281 "/>
<path style=" stroke:none;fill-rule:nonzero;fill:rgb(94.901961%,40.784314%,13.333333%);fill-opacity:1;" d="M 6.34375 6.015625 L 6.277344 4.914062 L 6.261719 4.648438 L 6.25 4.453125 L 6.140625 4.730469 L 5.992188 5.117188 L 4.253906 9.601562 C 4.269531 9.617188 4.285156 9.632812 4.296875 9.644531 C 4.34375 9.6875 4.421875 9.753906 4.519531 9.824219 C 4.527344 9.832031 4.539062 9.835938 4.550781 9.84375 C 4.550781 9.84375 4.554688 9.847656 4.554688 9.847656 C 4.5625 9.851562 4.570312 9.855469 4.574219 9.859375 C 4.589844 9.871094 4.609375 9.882812 4.625 9.894531 C 4.648438 9.90625 4.671875 9.921875 4.695312 9.9375 C 4.695312 9.9375 4.699219 9.9375 4.703125 9.941406 C 4.710938 9.945312 4.722656 9.953125 4.734375 9.960938 C 4.742188 9.964844 4.75 9.964844 4.753906 9.972656 C 4.777344 9.984375 4.796875 9.996094 4.820312 10.003906 L 6.355469 6.199219 Z M 6.34375 6.015625 "/>
<path style=" stroke:none;fill-rule:nonzero;fill:rgb(94.901961%,40.784314%,13.333333%);fill-opacity:1;" d="M 1.839844 15.832031 L 2.847656 15.257812 L 2.875 15.183594 L 2.929688 15.046875 L 2.929688 15.042969 L 2.933594 15.042969 L 4.789062 10.074219 C 4.792969 10.074219 4.792969 10.074219 4.792969 10.074219 C 4.773438 10.074219 4.757812 10.074219 4.742188 10.078125 C 4.726562 10.078125 4.714844 10.078125 4.703125 10.078125 C 4.496094 10.074219 4.296875 10.046875 4.113281 10.019531 C 4.105469 10.019531 4.097656 10.015625 4.09375 10.015625 Z M 1.839844 15.832031 "/>
<path style=" stroke:none;fill-rule:nonzero;fill:rgb(94.901961%,40.784314%,13.333333%);fill-opacity:1;" d="M 13.972656 10.0625 L 15.984375 15.238281 L 15.992188 15.25 L 17 15.832031 L 12.59375 4.453125 L 12.480469 6.210938 Z M 13.972656 10.0625 "/>
<path style=" stroke:none;fill-rule:nonzero;fill:rgb(0.392157%,0.392157%,0.392157%);fill-opacity:1;" d="M 2.933594 15.042969 L 2.929688 15.042969 L 4.023438 15.042969 L 6.511719 8.605469 L 9.300781 13.8125 L 9.421875 14.039062 L 9.542969 13.8125 L 12.335938 8.589844 L 14.820312 15.027344 L 15.898438 15.027344 L 15.855469 14.914062 L 13.972656 10.0625 L 12.480469 6.210938 L 9.542969 11.679688 L 9.425781 11.898438 L 9.3125 11.679688 L 6.355469 6.199219 L 4.820312 10.003906 C 4.855469 10.023438 4.902344 10.046875 4.9375 10.0625 C 4.9375 10.0625 4.933594 10.0625 4.933594 10.0625 C 4.929688 10.058594 4.917969 10.054688 4.902344 10.046875 C 4.917969 10.054688 4.933594 10.0625 4.9375 10.0625 L 4.933594 10.0625 C 4.925781 10.0625 4.839844 10.074219 4.792969 10.074219 Z M 2.933594 15.042969 "/>
<path style=" stroke:none;fill-rule:nonzero;fill:rgb(0.392157%,0.392157%,0.392157%);fill-opacity:1;" d="M 5.519531 17.441406 L 6.019531 17.441406 L 6.019531 19.96875 L 5.519531 19.96875 Z M 5.519531 17.441406 "/>
<path style=" stroke:none;fill-rule:nonzero;fill:rgb(0.392157%,0.392157%,0.392157%);fill-opacity:1;" d="M 13.078125 18.730469 L 13.132812 18.589844 L 13.203125 18.722656 L 13.839844 19.90625 L 14.472656 18.722656 L 14.542969 18.589844 L 14.597656 18.730469 L 15.085938 19.988281 L 15.617188 19.988281 L 14.613281 17.402344 L 13.898438 18.742188 L 13.839844 18.855469 L 13.777344 18.742188 L 13.0625 17.402344 L 12.058594 19.988281 L 12.589844 19.988281 Z M 13.078125 18.730469 "/>
<path style=" stroke:none;fill-rule:nonzero;fill:rgb(0.392157%,0.392157%,0.392157%);fill-opacity:1;" d="M 9.046875 17.441406 L 8.039062 19.96875 L 8.574219 19.96875 L 8.8125 19.378906 L 9.800781 19.378906 L 10.039062 19.96875 L 10.570312 19.96875 L 9.566406 17.441406 Z M 9.011719 18.875 L 9.316406 18.167969 L 9.597656 18.875 Z M 9.011719 18.875 "/>
<path style=" stroke:none;fill-rule:nonzero;fill:rgb(0.392157%,0.392157%,0.392157%);fill-opacity:1;" d="M 17.527344 17.386719 L 18.027344 17.386719 L 18.027344 19.972656 L 17.527344 19.972656 Z M 17.527344 17.386719 "/>
<path style=" stroke:none;fill-rule:nonzero;fill:rgb(0.392157%,0.392157%,0.392157%);fill-opacity:1;" d="M 1.019531 18.730469 L 1.074219 18.589844 L 1.144531 18.722656 L 1.78125 19.90625 L 2.414062 18.722656 L 2.484375 18.589844 L 2.539062 18.730469 L 3.027344 19.988281 L 3.558594 19.988281 L 2.554688 17.402344 L 1.839844 18.742188 L 1.78125 18.855469 L 1.71875 18.742188 L 1.003906 17.402344 L 0 19.988281 L 0.53125 19.988281 Z M 1.019531 18.730469 "/>
</g>
</svg>
