<?xml version="1.0" encoding="UTF-8"?>
<svg xmlns="http://www.w3.org/2000/svg" xmlns:xlink="http://www.w3.org/1999/xlink" width="33pt" height="20pt" viewBox="0 0 33 20" version="1.1">
<g id="surface1">
<path style=" stroke:none;fill-rule:nonzero;fill:rgb(100%,100%,100%);fill-opacity:1;" d="M 5.707031 0.960938 C 4.707031 0.960938 3.902344 1.765625 3.902344 2.765625 L 3.902344 14.660156 C 3.902344 15.660156 4.707031 16.464844 5.707031 16.464844 L 26.738281 16.464844 L 31.09375 14.699219 L 29.84375 0.96875 Z M 5.707031 0.960938 "/>
<path style=" stroke:none;fill-rule:nonzero;fill:rgb(98.039216%,0.392157%,17.647059%);fill-opacity:1;" d="M 29.621094 0.960938 C 30.621094 0.960938 31.429688 1.765625 31.429688 2.765625 L 31.429688 14.660156 C 31.429688 15.660156 30.621094 16.464844 29.621094 16.464844 L 26.320312 16.464844 L 26.371094 15.140625 C 28.222656 15.230469 29.449219 15 30.128906 14.253906 C 30.132812 13.933594 30.378906 13.394531 29.886719 12.484375 C 29.617188 11.988281 29.292969 11.378906 28.203125 10.636719 C 28.144531 9.808594 27.699219 9.414062 27.378906 9.023438 C 27.023438 8.585938 26.773438 8.199219 26.402344 8.015625 L 22.085938 0.96875 Z M 29.621094 0.960938 "/>
<path style=" stroke:none;fill-rule:nonzero;fill:rgb(3.529412%,14.901961%,40.784314%);fill-opacity:1;" d="M 3.394531 0.960938 C 2.390625 0.960938 1.585938 1.765625 1.585938 2.765625 L 1.585938 14.660156 C 1.585938 15.660156 2.390625 16.464844 3.394531 16.464844 L 14.039062 16.464844 C 13.921875 16.058594 13.589844 15.183594 13.296875 15.183594 C 13.0625 15.164062 12.171875 15.273438 12.019531 15.105469 C 12.691406 10.148438 13.558594 10.515625 14.433594 9.871094 C 14.59375 9.753906 14.324219 9.609375 14.429688 9.457031 C 14.5625 9.273438 14.285156 9.089844 14.386719 8.910156 C 14.539062 8.636719 13.332031 8.953125 13.425781 8.679688 C 13.613281 8.144531 13.832031 7.800781 13.964844 7.339844 C 14.074219 6.960938 13.953125 7.136719 13.953125 6.964844 C 13.957031 6.707031 12.019531 7.105469 12.078125 6.859375 C 12.1875 6.410156 13.769531 5.964844 13.746094 5.523438 C 13.652344 3.523438 15.316406 2.480469 16.503906 2.519531 C 18.585938 2.480469 19.167969 2.710938 19.917969 4.074219 C 20.414062 5.0625 21.003906 6.703125 19.949219 7.160156 C 20.011719 7.640625 20.125 8.054688 20.398438 8.222656 C 20.765625 8.210938 20.910156 8.242188 21.222656 8.242188 C 23.425781 8.234375 24.449219 8.410156 24.972656 8.769531 L 25.113281 7.859375 L 19.847656 0.96875 Z M 3.394531 0.960938 "/>
<path style=" stroke:none;fill-rule:nonzero;fill:rgb(98.039216%,0.392157%,17.647059%);fill-opacity:1;" d="M 1.582031 19.03125 L 1.582031 16.96875 L 2.09375 16.96875 L 2.339844 18.066406 C 2.355469 18.128906 2.367188 18.199219 2.378906 18.28125 C 2.390625 18.367188 2.398438 18.464844 2.410156 18.578125 C 2.417969 18.46875 2.429688 18.371094 2.4375 18.289062 C 2.449219 18.207031 2.464844 18.132812 2.480469 18.070312 L 2.753906 16.96875 L 3.246094 16.96875 L 3.246094 19.03125 L 2.914062 19.03125 C 2.910156 18.96875 2.910156 18.902344 2.910156 18.832031 C 2.910156 18.761719 2.90625 18.65625 2.90625 18.519531 C 2.90625 18.253906 2.914062 18.003906 2.921875 17.777344 C 2.933594 17.550781 2.949219 17.339844 2.96875 17.148438 L 2.503906 19.03125 L 2.304688 19.03125 L 1.878906 17.148438 C 1.890625 17.417969 1.902344 17.707031 1.90625 18.015625 C 1.914062 18.328125 1.917969 18.667969 1.917969 19.03125 Z M 4.035156 18.339844 L 4.355469 18.339844 L 4.210938 17.140625 L 4.191406 17.140625 Z M 3.542969 19.03125 L 3.9375 16.96875 L 4.457031 16.96875 L 4.867188 19.03125 L 4.460938 19.03125 L 4.394531 18.617188 L 4 18.617188 L 3.933594 19.03125 Z M 4.9375 19.046875 L 4.9375 18.761719 C 4.964844 18.769531 4.988281 18.773438 5.011719 18.777344 C 5.035156 18.78125 5.058594 18.78125 5.078125 18.78125 C 5.160156 18.78125 5.21875 18.757812 5.253906 18.714844 C 5.285156 18.667969 5.300781 18.582031 5.300781 18.457031 L 5.300781 16.96875 L 5.695312 16.96875 L 5.695312 18.5 C 5.695312 18.703125 5.652344 18.847656 5.570312 18.9375 C 5.488281 19.023438 5.347656 19.066406 5.15625 19.066406 C 5.121094 19.066406 5.085938 19.066406 5.050781 19.0625 C 5.011719 19.058594 4.976562 19.054688 4.9375 19.046875 Z M 6.535156 17.5 L 6.535156 18.5 C 6.535156 18.605469 6.554688 18.6875 6.59375 18.734375 C 6.632812 18.785156 6.691406 18.808594 6.777344 18.808594 C 6.859375 18.808594 6.921875 18.785156 6.960938 18.734375 C 7 18.6875 7.019531 18.605469 7.019531 18.5 L 7.019531 17.5 C 7.019531 17.390625 7 17.3125 6.960938 17.265625 C 6.921875 17.214844 6.859375 17.191406 6.777344 17.191406 C 6.691406 17.191406 6.632812 17.214844 6.59375 17.265625 C 6.554688 17.3125 6.535156 17.390625 6.535156 17.5 Z M 6.128906 17.664062 C 6.128906 17.402344 6.179688 17.214844 6.28125 17.101562 C 6.382812 16.984375 6.546875 16.929688 6.777344 16.929688 C 7.003906 16.929688 7.167969 16.984375 7.269531 17.101562 C 7.371094 17.214844 7.421875 17.402344 7.421875 17.664062 L 7.421875 18.335938 C 7.421875 18.597656 7.371094 18.785156 7.269531 18.898438 C 7.167969 19.015625 7.003906 19.074219 6.777344 19.074219 C 6.546875 19.074219 6.382812 19.015625 6.28125 18.898438 C 6.179688 18.785156 6.128906 18.597656 6.128906 18.335938 Z M 8.246094 17.898438 L 8.34375 17.898438 C 8.480469 17.898438 8.570312 17.875 8.625 17.824219 C 8.675781 17.777344 8.699219 17.683594 8.699219 17.554688 C 8.699219 17.433594 8.675781 17.347656 8.628906 17.300781 C 8.578125 17.253906 8.496094 17.230469 8.378906 17.230469 L 8.246094 17.230469 Z M 7.851562 19.03125 L 7.851562 16.96875 L 8.289062 16.96875 C 8.601562 16.96875 8.816406 17.011719 8.929688 17.097656 C 9.046875 17.183594 9.105469 17.34375 9.105469 17.570312 C 9.105469 17.710938 9.078125 17.820312 9.03125 17.90625 C 8.980469 17.992188 8.902344 18.054688 8.792969 18.097656 L 9.148438 19.03125 L 8.738281 19.03125 L 8.421875 18.164062 L 8.246094 18.164062 L 8.246094 19.03125 Z M 10.199219 19.03125 L 10.199219 16.96875 L 10.597656 16.96875 L 10.597656 18.746094 L 11.324219 18.746094 L 11.324219 19.03125 Z M 11.542969 19.03125 L 11.542969 16.96875 L 12.605469 16.96875 L 12.605469 17.246094 L 11.941406 17.246094 L 11.941406 17.816406 L 12.460938 17.816406 L 12.460938 18.097656 L 11.941406 18.097656 L 11.941406 18.753906 L 12.667969 18.753906 L 12.667969 19.03125 Z M 13.253906 18.339844 L 13.578125 18.339844 L 13.429688 17.140625 L 13.410156 17.140625 Z M 12.765625 19.03125 L 13.15625 16.96875 L 13.675781 16.96875 L 14.085938 19.03125 L 13.683594 19.03125 L 13.613281 18.617188 L 13.21875 18.617188 L 13.15625 19.03125 Z M 15.613281 19.03125 L 15.421875 19.03125 L 15.328125 18.878906 C 15.273438 18.9375 15.207031 18.980469 15.132812 19.011719 C 15.058594 19.039062 14.976562 19.054688 14.886719 19.054688 C 14.691406 19.054688 14.546875 18.996094 14.457031 18.882812 C 14.367188 18.769531 14.320312 18.585938 14.320312 18.335938 L 14.320312 17.664062 C 14.320312 17.402344 14.371094 17.214844 14.472656 17.101562 C 14.574219 16.984375 14.738281 16.929688 14.964844 16.929688 C 15.179688 16.929688 15.339844 16.980469 15.449219 17.089844 C 15.558594 17.199219 15.613281 17.355469 15.613281 17.5625 L 15.613281 17.636719 L 15.207031 17.636719 L 15.207031 17.5 C 15.207031 17.390625 15.1875 17.3125 15.148438 17.265625 C 15.109375 17.214844 15.050781 17.191406 14.964844 17.191406 C 14.882812 17.191406 14.820312 17.214844 14.78125 17.265625 C 14.746094 17.3125 14.726562 17.390625 14.726562 17.5 L 14.726562 18.488281 C 14.726562 18.597656 14.746094 18.675781 14.78125 18.722656 C 14.820312 18.773438 14.882812 18.796875 14.964844 18.796875 C 15.050781 18.796875 15.109375 18.773438 15.148438 18.722656 C 15.1875 18.675781 15.207031 18.597656 15.207031 18.488281 L 15.207031 18.246094 L 14.996094 18.246094 L 14.996094 17.988281 L 15.613281 17.988281 Z M 16.023438 18.386719 L 16.023438 16.96875 L 16.421875 16.96875 L 16.421875 18.46875 C 16.421875 18.582031 16.441406 18.664062 16.476562 18.714844 C 16.511719 18.761719 16.566406 18.785156 16.644531 18.785156 C 16.722656 18.785156 16.78125 18.761719 16.816406 18.714844 C 16.851562 18.664062 16.867188 18.582031 16.867188 18.46875 L 16.867188 16.96875 L 17.261719 16.96875 L 17.261719 18.386719 C 17.261719 18.636719 17.214844 18.8125 17.121094 18.914062 C 17.023438 19.019531 16.867188 19.070312 16.644531 19.070312 C 16.421875 19.070312 16.265625 19.019531 16.167969 18.914062 C 16.074219 18.8125 16.023438 18.636719 16.023438 18.386719 Z M 17.714844 19.03125 L 17.714844 16.96875 L 18.777344 16.96875 L 18.777344 17.246094 L 18.113281 17.246094 L 18.113281 17.816406 L 18.632812 17.816406 L 18.632812 18.097656 L 18.113281 18.097656 L 18.113281 18.753906 L 18.839844 18.753906 L 18.839844 19.03125 Z M 20.230469 17.832031 L 20.351562 17.832031 C 20.476562 17.832031 20.5625 17.808594 20.613281 17.761719 C 20.664062 17.71875 20.6875 17.636719 20.6875 17.523438 C 20.6875 17.410156 20.664062 17.335938 20.613281 17.292969 C 20.566406 17.25 20.480469 17.226562 20.359375 17.226562 L 20.230469 17.226562 Z M 20.230469 18.765625 L 20.371094 18.765625 C 20.503906 18.765625 20.59375 18.742188 20.644531 18.691406 C 20.699219 18.636719 20.722656 18.546875 20.722656 18.414062 C 20.722656 18.296875 20.699219 18.214844 20.648438 18.171875 C 20.597656 18.125 20.503906 18.101562 20.371094 18.101562 L 20.230469 18.101562 Z M 19.832031 19.03125 L 19.832031 16.96875 L 20.332031 16.96875 C 20.617188 16.96875 20.816406 17.007812 20.925781 17.085938 C 21.039062 17.164062 21.09375 17.304688 21.09375 17.503906 C 21.09375 17.632812 21.070312 17.730469 21.03125 17.800781 C 20.988281 17.871094 20.921875 17.921875 20.824219 17.953125 C 20.929688 17.984375 21.007812 18.039062 21.058594 18.117188 C 21.105469 18.195312 21.128906 18.300781 21.128906 18.4375 C 21.128906 18.648438 21.070312 18.800781 20.949219 18.890625 C 20.824219 18.984375 20.625 19.03125 20.351562 19.03125 Z M 21.8125 18.339844 L 22.136719 18.339844 L 21.988281 17.140625 L 21.96875 17.140625 Z M 21.324219 19.03125 L 21.71875 16.96875 L 22.234375 16.96875 L 22.648438 19.03125 L 22.242188 19.03125 L 22.175781 18.617188 L 21.777344 18.617188 L 21.714844 19.03125 Z M 22.765625 18.496094 L 23.144531 18.453125 L 23.144531 18.46875 C 23.144531 18.582031 23.164062 18.664062 23.199219 18.722656 C 23.238281 18.777344 23.292969 18.804688 23.371094 18.804688 C 23.4375 18.804688 23.488281 18.785156 23.523438 18.746094 C 23.5625 18.707031 23.578125 18.652344 23.578125 18.578125 C 23.578125 18.527344 23.566406 18.476562 23.542969 18.429688 C 23.515625 18.378906 23.476562 18.328125 23.425781 18.273438 C 23.375 18.222656 23.292969 18.140625 23.171875 18.03125 C 23.054688 17.921875 22.972656 17.835938 22.929688 17.777344 C 22.886719 17.714844 22.851562 17.652344 22.828125 17.589844 C 22.804688 17.53125 22.792969 17.472656 22.792969 17.417969 C 22.792969 17.265625 22.84375 17.148438 22.945312 17.058594 C 23.046875 16.96875 23.183594 16.925781 23.355469 16.925781 C 23.53125 16.925781 23.667969 16.96875 23.769531 17.0625 C 23.871094 17.152344 23.925781 17.277344 23.933594 17.441406 L 23.574219 17.476562 C 23.570312 17.378906 23.546875 17.304688 23.511719 17.261719 C 23.476562 17.214844 23.425781 17.191406 23.355469 17.191406 C 23.304688 17.191406 23.261719 17.210938 23.226562 17.246094 C 23.191406 17.28125 23.175781 17.328125 23.175781 17.382812 C 23.175781 17.433594 23.191406 17.488281 23.226562 17.546875 C 23.257812 17.605469 23.304688 17.664062 23.367188 17.722656 C 23.390625 17.746094 23.425781 17.777344 23.46875 17.820312 C 23.632812 17.976562 23.742188 18.085938 23.800781 18.15625 C 23.855469 18.21875 23.894531 18.285156 23.921875 18.355469 C 23.949219 18.425781 23.960938 18.5 23.960938 18.578125 C 23.960938 18.722656 23.90625 18.84375 23.796875 18.933594 C 23.6875 19.027344 23.542969 19.074219 23.371094 19.074219 C 23.191406 19.074219 23.046875 19.023438 22.941406 18.921875 C 22.839844 18.824219 22.777344 18.679688 22.765625 18.496094 Z M 24.25 19.03125 L 24.25 16.96875 L 25.3125 16.96875 L 25.3125 17.246094 L 24.648438 17.246094 L 24.648438 17.816406 L 25.167969 17.816406 L 25.167969 18.097656 L 24.648438 18.097656 L 24.648438 18.753906 L 25.375 18.753906 L 25.375 19.03125 Z M 26.027344 17.832031 L 26.148438 17.832031 C 26.269531 17.832031 26.359375 17.808594 26.410156 17.761719 C 26.457031 17.71875 26.484375 17.636719 26.484375 17.523438 C 26.484375 17.410156 26.460938 17.335938 26.410156 17.292969 C 26.363281 17.25 26.277344 17.226562 26.152344 17.226562 L 26.027344 17.226562 Z M 26.027344 18.765625 L 26.167969 18.765625 C 26.300781 18.765625 26.390625 18.742188 26.441406 18.691406 C 26.496094 18.636719 26.519531 18.546875 26.519531 18.414062 C 26.519531 18.296875 26.496094 18.214844 26.441406 18.171875 C 26.390625 18.125 26.300781 18.101562 26.167969 18.101562 L 26.027344 18.101562 Z M 25.628906 19.03125 L 25.628906 16.96875 L 26.125 16.96875 C 26.414062 16.96875 26.613281 17.007812 26.722656 17.085938 C 26.832031 17.164062 26.886719 17.304688 26.886719 17.503906 C 26.886719 17.632812 26.867188 17.730469 26.824219 17.800781 C 26.785156 17.871094 26.714844 17.921875 26.621094 17.953125 C 26.726562 17.984375 26.804688 18.039062 26.851562 18.117188 C 26.902344 18.195312 26.925781 18.300781 26.925781 18.4375 C 26.925781 18.648438 26.867188 18.800781 26.742188 18.890625 C 26.621094 18.984375 26.421875 19.03125 26.148438 19.03125 Z M 27.609375 18.339844 L 27.933594 18.339844 L 27.785156 17.140625 L 27.765625 17.140625 Z M 27.121094 19.03125 L 27.515625 16.96875 L 28.03125 16.96875 L 28.441406 19.03125 L 28.039062 19.03125 L 27.972656 18.617188 L 27.574219 18.617188 L 27.511719 19.03125 Z M 28.707031 19.03125 L 28.707031 16.96875 L 29.101562 16.96875 L 29.101562 18.746094 L 29.828125 18.746094 L 29.828125 19.03125 Z M 30.046875 19.03125 L 30.046875 16.96875 L 30.445312 16.96875 L 30.445312 18.746094 L 31.171875 18.746094 L 31.171875 19.03125 Z M 30.046875 19.03125 "/>
<path style=" stroke:none;fill-rule:nonzero;fill:rgb(100%,100%,100%);fill-opacity:1;" d="M 6.394531 12.757812 C 6.394531 13.417969 5.859375 13.953125 5.199219 13.953125 C 4.539062 13.953125 4.003906 13.417969 4.003906 12.757812 C 4.003906 12.101562 4.539062 11.566406 5.199219 11.566406 C 5.859375 11.566406 6.394531 12.101562 6.394531 12.757812 Z M 6.394531 12.757812 "/>
</g>
</svg>
