<?xml version="1.0" encoding="UTF-8"?>
<svg xmlns="http://www.w3.org/2000/svg" xmlns:xlink="http://www.w3.org/1999/xlink" width="35pt" height="25pt" viewBox="0 0 35 25" version="1.1">
<g id="surface1">
<path style=" stroke:none;fill-rule:nonzero;fill:rgb(100%,100%,100%);fill-opacity:1;" d="M 17.5 25 C 24.402344 25 30 19.402344 30 12.5 C 30 5.597656 24.402344 0 17.5 0 C 10.597656 0 5 5.597656 5 12.5 C 5 19.402344 10.597656 25 17.5 25 "/>
<path style=" stroke:none;fill-rule:nonzero;fill:rgb(0%,28.235294%,22.745098%);fill-opacity:1;" d="M 17.5 0.839844 C 11.070312 0.839844 5.839844 6.070312 5.839844 12.5 C 5.839844 18.929688 11.070312 24.160156 17.5 24.160156 C 23.929688 24.160156 29.160156 18.929688 29.160156 12.5 C 29.160156 6.070312 23.929688 0.839844 17.5 0.839844 M 17.5 19.640625 C 13.5625 19.640625 10.359375 16.4375 10.359375 12.5 C 10.359375 8.5625 13.5625 5.363281 17.5 5.363281 C 21.4375 5.363281 24.640625 8.5625 24.640625 12.5 C 24.640625 16.4375 21.4375 19.640625 17.5 19.640625 Z M 17.5 19.640625 "/>
<path style=" stroke:none;fill-rule:nonzero;fill:rgb(99.215686%,75.686275%,34.117647%);fill-opacity:1;" d="M 17.5 0.484375 C 10.875 0.484375 5.484375 5.875 5.484375 12.5 C 5.484375 19.125 10.875 24.515625 17.5 24.515625 C 24.125 24.515625 29.515625 19.125 29.515625 12.5 C 29.515625 5.875 24.125 0.484375 17.5 0.484375 M 17.5 24.160156 C 11.070312 24.160156 5.839844 18.929688 5.839844 12.5 C 5.839844 6.070312 11.070312 0.839844 17.5 0.839844 C 23.929688 0.839844 29.160156 6.070312 29.160156 12.5 C 29.160156 18.929688 23.929688 24.160156 17.5 24.160156 Z M 17.5 24.160156 "/>
<path style=" stroke:none;fill-rule:nonzero;fill:rgb(100%,100%,100%);fill-opacity:1;" d="M 17.5 5.695312 C 13.746094 5.695312 10.695312 8.746094 10.695312 12.5 C 10.695312 16.253906 13.746094 19.304688 17.5 19.304688 C 21.253906 19.304688 24.304688 16.253906 24.304688 12.5 C 24.304688 8.746094 21.253906 5.695312 17.5 5.695312 "/>
<path style=" stroke:none;fill-rule:nonzero;fill:rgb(99.215686%,75.686275%,34.117647%);fill-opacity:1;" d="M 17.5 5.363281 C 13.5625 5.363281 10.359375 8.5625 10.359375 12.5 C 10.359375 16.4375 13.5625 19.640625 17.5 19.640625 C 21.4375 19.640625 24.640625 16.4375 24.640625 12.5 C 24.640625 8.5625 21.4375 5.363281 17.5 5.363281 M 17.5 19.304688 C 13.746094 19.304688 10.695312 16.253906 10.695312 12.5 C 10.695312 8.746094 13.746094 5.695312 17.5 5.695312 C 21.253906 5.695312 24.304688 8.746094 24.304688 12.5 C 24.304688 16.253906 21.253906 19.304688 17.5 19.304688 Z M 17.5 19.304688 "/>
<path style=" stroke:none;fill-rule:nonzero;fill:rgb(0%,28.235294%,22.745098%);fill-opacity:1;" d="M 21.304688 15.207031 C 21.117188 15.34375 20.898438 15.433594 20.6875 15.394531 C 20.519531 15.367188 20.292969 15.242188 20.167969 14.824219 C 20.167969 14.824219 18.789062 9.109375 18.785156 9.097656 C 18.679688 8.402344 18.3125 8.019531 18.019531 7.824219 C 17.648438 7.570312 17.179688 7.476562 16.773438 7.570312 C 16.136719 7.71875 15.902344 8.046875 15.8125 8.308594 C 16.082031 8.175781 16.363281 8.234375 16.539062 8.347656 C 16.652344 8.417969 16.917969 8.582031 16.742188 9.050781 L 16.496094 9.695312 L 16.367188 9.660156 C 16.21875 9.617188 16.0625 9.609375 15.90625 9.636719 C 15.636719 9.679688 15.449219 9.789062 15.347656 9.949219 C 15.28125 10.050781 15.261719 10.160156 15.257812 10.257812 C 15.480469 10.132812 15.707031 10.167969 15.871094 10.273438 C 15.984375 10.347656 16.085938 10.449219 16.085938 10.652344 C 16.085938 10.714844 16.074219 10.792969 16.050781 10.882812 L 14.585938 15.789062 L 14.511719 15.8125 C 13.761719 16.0625 13.5625 16.476562 13.511719 16.742188 C 13.738281 16.613281 14.109375 16.445312 14.625 16.394531 C 14.839844 16.371094 15.097656 16.4375 15.347656 16.5 C 15.546875 16.550781 15.757812 16.605469 15.910156 16.601562 C 16.101562 16.597656 16.246094 16.542969 16.339844 16.4375 C 16.441406 16.328125 16.46875 16.1875 16.46875 16.070312 C 16.386719 16.023438 16.234375 15.9375 16.097656 15.859375 C 16.0625 15.910156 16.023438 15.949219 15.972656 15.976562 C 15.890625 16.023438 15.75 16.0625 15.539062 15.976562 L 15.410156 15.929688 L 15.988281 13.914062 L 18.121094 13.914062 L 18.238281 13.910156 L 18.621094 15.410156 C 18.875 16.453125 19.636719 16.703125 20.207031 16.601562 C 20.75 16.5 21.140625 15.972656 21.304688 15.207031 M 16.265625 13.09375 L 17.082031 10.273438 L 17.242188 9.71875 L 18.015625 13.09375 Z M 16.265625 13.09375 "/>
<path style=" stroke:none;fill-rule:nonzero;fill:rgb(99.215686%,75.686275%,34.117647%);fill-opacity:1;" d="M 17.082031 10.273438 L 16.265625 13.09375 L 18.015625 13.09375 L 17.242188 9.71875 M 16.664062 12.792969 C 16.738281 12.539062 17.027344 11.535156 17.207031 10.910156 C 17.351562 11.542969 17.585938 12.550781 17.640625 12.792969 C 17.410156 12.792969 16.90625 12.792969 16.664062 12.792969 Z M 16.664062 12.792969 "/>
<path style=" stroke:none;fill-rule:nonzero;fill:rgb(99.215686%,75.686275%,34.117647%);fill-opacity:1;" d="M 21.355469 14.753906 C 21.207031 14.949219 20.941406 15.136719 20.742188 15.101562 C 20.617188 15.078125 20.519531 14.957031 20.457031 14.746094 C 20.457031 14.75 19.078125 9.039062 19.078125 9.039062 C 18.988281 8.425781 18.671875 7.902344 18.1875 7.574219 C 17.746094 7.277344 17.191406 7.164062 16.707031 7.277344 C 15.34375 7.597656 15.464844 8.679688 15.464844 8.691406 L 15.511719 9.066406 L 15.734375 8.761719 C 15.960938 8.449219 16.238281 8.511719 16.351562 8.585938 C 16.4375 8.636719 16.503906 8.675781 16.503906 8.777344 C 16.503906 8.820312 16.492188 8.875 16.464844 8.945312 C 16.464844 8.945312 16.363281 9.214844 16.308594 9.351562 C 16.160156 9.328125 16.011719 9.3125 15.855469 9.339844 C 15.5 9.402344 15.242188 9.554688 15.089844 9.792969 C 14.863281 10.15625 14.980469 10.582031 14.984375 10.597656 L 15.066406 10.875 L 15.246094 10.652344 C 15.445312 10.410156 15.621094 10.46875 15.707031 10.523438 C 15.777344 10.570312 15.816406 10.597656 15.761719 10.800781 C 15.765625 10.796875 14.511719 14.992188 14.34375 15.5625 C 13.316406 15.9375 13.195312 16.632812 13.195312 16.917969 C 13.195312 16.996094 13.207031 17.046875 13.207031 17.046875 L 13.253906 17.292969 L 13.449219 17.132812 C 13.453125 17.128906 13.90625 16.765625 14.652344 16.691406 C 14.816406 16.675781 15.046875 16.734375 15.273438 16.789062 C 15.492188 16.847656 15.722656 16.90625 15.917969 16.898438 C 16.1875 16.890625 16.410156 16.800781 16.5625 16.636719 C 16.714844 16.472656 16.785156 16.242188 16.769531 15.972656 L 16.765625 15.890625 L 15.914062 15.414062 L 15.878906 15.625 C 15.875 15.648438 15.859375 15.695312 15.828125 15.714844 C 15.816406 15.722656 15.796875 15.726562 15.777344 15.726562 C 15.847656 15.488281 16.164062 14.386719 16.214844 14.210938 C 16.402344 14.210938 17.8125 14.210938 18.003906 14.210938 C 18.054688 14.398438 18.328125 15.480469 18.328125 15.480469 C 18.617188 16.644531 19.503906 17.027344 20.257812 16.894531 C 21.046875 16.753906 21.59375 15.945312 21.683594 14.785156 L 21.695312 14.625 L 21.535156 14.625 C 21.457031 14.625 21.421875 14.667969 21.355469 14.753906 M 18.621094 15.410156 L 18.238281 13.910156 L 18.121094 13.914062 L 15.988281 13.914062 L 15.410156 15.929688 L 15.539062 15.976562 C 15.75 16.058594 15.890625 16.023438 15.972656 15.976562 C 16.023438 15.949219 16.0625 15.910156 16.097656 15.859375 C 16.234375 15.9375 16.386719 16.023438 16.46875 16.070312 C 16.46875 16.1875 16.441406 16.328125 16.339844 16.4375 C 16.246094 16.539062 16.101562 16.597656 15.910156 16.601562 C 15.757812 16.605469 15.546875 16.550781 15.347656 16.5 C 15.097656 16.4375 14.839844 16.371094 14.625 16.390625 C 14.109375 16.445312 13.738281 16.613281 13.511719 16.742188 C 13.5625 16.476562 13.761719 16.0625 14.511719 15.8125 L 14.585938 15.789062 L 16.050781 10.882812 C 16.074219 10.792969 16.085938 10.714844 16.085938 10.648438 C 16.085938 10.449219 15.984375 10.347656 15.871094 10.273438 C 15.707031 10.167969 15.480469 10.132812 15.257812 10.257812 C 15.261719 10.160156 15.28125 10.050781 15.347656 9.949219 C 15.449219 9.785156 15.636719 9.679688 15.90625 9.636719 C 16.0625 9.609375 16.21875 9.617188 16.367188 9.660156 L 16.496094 9.695312 L 16.742188 9.050781 C 16.917969 8.582031 16.652344 8.417969 16.539062 8.347656 C 16.363281 8.234375 16.082031 8.171875 15.8125 8.308594 C 15.902344 8.046875 16.136719 7.71875 16.773438 7.570312 C 17.179688 7.472656 17.648438 7.570312 18.019531 7.820312 C 18.3125 8.019531 18.679688 8.402344 18.785156 9.097656 C 18.789062 9.109375 20.167969 14.824219 20.167969 14.824219 C 20.296875 15.242188 20.519531 15.363281 20.6875 15.394531 C 20.898438 15.433594 21.117188 15.34375 21.304688 15.207031 C 21.140625 15.972656 20.75 16.5 20.207031 16.597656 C 19.636719 16.703125 18.875 16.453125 18.621094 15.410156 Z M 18.621094 15.410156 "/>
<path style=" stroke:none;fill-rule:nonzero;fill:rgb(0%,28.235294%,22.745098%);fill-opacity:1;" d="M 21.902344 10.929688 C 21.902344 10.929688 21.726562 10.875 21.722656 10.875 C 21.589844 10.832031 21.339844 10.75 21.339844 10.511719 C 21.339844 10.304688 21.546875 10.179688 21.75 10.179688 C 21.890625 10.179688 22.027344 10.230469 22.15625 10.308594 C 22.210938 10.207031 22.265625 10.097656 22.320312 9.992188 C 22.117188 9.898438 21.867188 9.828125 21.648438 9.828125 C 21.171875 9.828125 20.851562 10.140625 20.851562 10.605469 C 20.851562 11.023438 21.035156 11.117188 21.507812 11.25 C 21.675781 11.296875 21.984375 11.386719 21.984375 11.65625 C 21.984375 11.878906 21.800781 12.035156 21.539062 12.035156 C 21.347656 12.035156 21.160156 11.953125 20.96875 11.8125 C 20.910156 11.921875 20.839844 12.054688 20.785156 12.15625 C 21.027344 12.300781 21.292969 12.394531 21.5625 12.394531 C 21.832031 12.394531 22.070312 12.3125 22.242188 12.171875 C 22.394531 12.039062 22.476562 11.828125 22.476562 11.542969 C 22.476562 11.230469 22.304688 11.046875 21.902344 10.929688 "/>
<path style=" stroke:none;fill-rule:nonzero;fill:rgb(99.215686%,75.686275%,34.117647%);fill-opacity:1;" d="M 21.96875 10.710938 L 21.792969 10.65625 C 21.707031 10.628906 21.566406 10.585938 21.566406 10.511719 C 21.566406 10.445312 21.671875 10.40625 21.75 10.40625 C 21.878906 10.40625 22.015625 10.460938 22.132812 10.554688 L 22.242188 10.644531 L 22.632812 9.890625 L 22.535156 9.835938 C 22.285156 9.691406 21.9375 9.601562 21.648438 9.601562 C 21.042969 9.601562 20.621094 10.015625 20.621094 10.605469 C 20.621094 11.234375 21.046875 11.355469 21.421875 11.464844 C 21.554688 11.5 21.757812 11.558594 21.757812 11.65625 C 21.757812 11.804688 21.558594 11.808594 21.539062 11.808594 C 21.367188 11.808594 21.191406 11.726562 21 11.5625 L 20.894531 11.46875 L 20.484375 12.238281 L 20.566406 12.296875 C 20.863281 12.507812 21.214844 12.621094 21.5625 12.621094 C 21.882812 12.621094 22.179688 12.523438 22.386719 12.34375 C 22.597656 12.167969 22.703125 11.898438 22.703125 11.542969 C 22.703125 10.992188 22.285156 10.804688 21.96875 10.710938 M 22.242188 12.171875 C 22.070312 12.3125 21.832031 12.390625 21.5625 12.390625 C 21.292969 12.390625 21.027344 12.300781 20.785156 12.15625 C 20.839844 12.054688 20.910156 11.921875 20.96875 11.8125 C 21.160156 11.953125 21.347656 12.035156 21.539062 12.035156 C 21.800781 12.035156 21.984375 11.878906 21.984375 11.65625 C 21.984375 11.386719 21.675781 11.296875 21.507812 11.25 C 21.035156 11.117188 20.851562 11.023438 20.851562 10.605469 C 20.851562 10.140625 21.171875 9.828125 21.648438 9.828125 C 21.867188 9.828125 22.117188 9.898438 22.320312 9.992188 C 22.265625 10.097656 22.210938 10.207031 22.15625 10.308594 C 22.027344 10.230469 21.890625 10.179688 21.75 10.179688 C 21.546875 10.179688 21.339844 10.304688 21.339844 10.511719 C 21.339844 10.75 21.589844 10.832031 21.722656 10.875 C 21.726562 10.875 21.902344 10.929688 21.902344 10.929688 C 22.304688 11.046875 22.476562 11.230469 22.476562 11.542969 C 22.476562 11.828125 22.394531 12.039062 22.242188 12.171875 Z M 22.242188 12.171875 "/>
<path style=" stroke:none;fill-rule:nonzero;fill:rgb(0%,28.235294%,22.745098%);fill-opacity:1;" d="M 19.9375 9.953125 C 20.007812 9.949219 20.109375 9.941406 20.167969 10.023438 C 20.195312 10.058594 20.203125 10.097656 20.203125 10.132812 C 20.203125 10.1875 20.183594 10.246094 20.164062 10.289062 C 20.125 10.386719 20.089844 10.4375 20.050781 10.484375 C 20.097656 10.457031 20.144531 10.429688 20.167969 10.410156 C 20.277344 10.316406 20.375 10.152344 20.375 9.960938 C 20.375 9.886719 20.363281 9.804688 20.328125 9.722656 C 20.28125 9.613281 20.175781 9.582031 20.117188 9.570312 C 20.015625 9.558594 19.910156 9.585938 19.859375 9.640625 C 19.789062 9.726562 19.785156 9.832031 19.816406 9.890625 C 19.835938 9.933594 19.875 9.957031 19.9375 9.953125 "/>
<path style=" stroke:none;fill-rule:nonzero;fill:rgb(99.215686%,75.686275%,34.117647%);fill-opacity:1;" d="M 19.9375 10.179688 C 19.941406 10.179688 19.953125 10.179688 19.960938 10.179688 C 19.957031 10.191406 19.953125 10.203125 19.953125 10.203125 C 19.890625 10.363281 19.863281 10.375 19.789062 10.40625 L 19.667969 10.464844 L 19.714844 10.589844 L 19.863281 10.804688 L 19.941406 10.789062 C 20.050781 10.761719 20.25 10.636719 20.316406 10.582031 C 20.542969 10.386719 20.699219 10.015625 20.539062 9.632812 C 20.472656 9.480469 20.332031 9.375 20.152344 9.347656 C 19.96875 9.320312 19.789062 9.375 19.6875 9.496094 C 19.566406 9.636719 19.535156 9.839844 19.613281 9.992188 C 19.675781 10.117188 19.796875 10.1875 19.9375 10.179688 M 19.863281 9.640625 C 19.910156 9.585938 20.015625 9.558594 20.117188 9.570312 C 20.175781 9.582031 20.28125 9.613281 20.328125 9.722656 C 20.363281 9.804688 20.375 9.886719 20.375 9.960938 C 20.375 10.152344 20.277344 10.316406 20.167969 10.410156 C 20.144531 10.429688 20.097656 10.457031 20.050781 10.484375 C 20.089844 10.4375 20.125 10.386719 20.167969 10.289062 C 20.183594 10.242188 20.203125 10.1875 20.203125 10.132812 C 20.203125 10.097656 20.195312 10.058594 20.167969 10.023438 C 20.109375 9.941406 20.007812 9.949219 19.9375 9.953125 C 19.875 9.957031 19.835938 9.933594 19.816406 9.890625 C 19.785156 9.832031 19.789062 9.726562 19.863281 9.640625 Z M 19.863281 9.640625 "/>
<path style=" stroke:none;fill-rule:nonzero;fill:rgb(100%,100%,100%);fill-opacity:1;" d="M 11.167969 17.441406 L 9.484375 19.488281 L 9.140625 19.003906 L 9.429688 18.667969 L 9.097656 18.210938 L 8.6875 18.382812 L 8.367188 17.933594 L 10.824219 16.964844 M 10.175781 17.855469 L 10.453125 17.574219 L 10.449219 17.570312 L 10.097656 17.75 L 9.476562 18.050781 L 9.703125 18.367188 Z M 10.175781 17.855469 "/>
<path style=" stroke:none;fill-rule:nonzero;fill:rgb(100%,100%,100%);fill-opacity:1;" d="M 12.835938 19.078125 L 12.527344 19.4375 L 12.191406 19.152344 L 10.839844 20.738281 L 10.414062 20.375 L 11.769531 18.789062 L 11.4375 18.507812 L 11.746094 18.144531 "/>
<path style=" stroke:none;fill-rule:nonzero;fill:rgb(100%,100%,100%);fill-opacity:1;" d="M 13.898438 19.679688 L 13.480469 20.589844 L 13.996094 20.824219 L 14.410156 19.914062 L 14.917969 20.144531 L 13.855469 22.472656 L 13.347656 22.242188 L 13.796875 21.257812 L 13.285156 21.023438 L 12.835938 22.007812 L 12.328125 21.777344 L 13.390625 19.449219 "/>
<path style=" stroke:none;fill-rule:nonzero;fill:rgb(100%,100%,100%);fill-opacity:1;" d="M 16.425781 23.042969 C 16.433594 23.003906 16.5 22.578125 16.5 22.578125 C 16.480469 22.574219 15.925781 22.484375 15.925781 22.484375 C 15.925781 22.484375 16.257812 20.429688 16.257812 20.429688 L 16.257812 20.425781 L 15.707031 20.335938 L 15.707031 20.355469 C 15.671875 20.546875 15.296875 22.867188 15.296875 22.867188 C 15.296875 22.867188 16.421875 23.050781 16.421875 23.050781 L 16.421875 23.046875 M 16.5 22.582031 Z M 15.925781 22.484375 Z M 15.925781 22.484375 "/>
<path style=" stroke:none;fill-rule:nonzero;fill:rgb(100%,100%,100%);fill-opacity:1;" d="M 18.460938 20.480469 L 18.484375 20.953125 L 17.921875 20.984375 L 17.949219 21.539062 L 18.445312 21.511719 L 18.472656 21.988281 L 17.976562 22.011719 L 18.003906 22.589844 L 18.578125 22.5625 L 18.601562 23.035156 L 17.476562 23.09375 L 17.339844 20.535156 "/>
<path style=" stroke:none;fill-rule:nonzero;fill:rgb(100%,100%,100%);fill-opacity:1;" d="M 20.472656 19.964844 L 20.609375 20.417969 L 20.1875 20.546875 L 20.796875 22.542969 L 20.265625 22.703125 L 19.65625 20.710938 L 19.238281 20.835938 L 19.101562 20.382812 "/>
<path style=" stroke:none;fill-rule:nonzero;fill:rgb(100%,100%,100%);fill-opacity:1;" d="M 21.601562 19.371094 L 22.847656 21.605469 L 22.363281 21.875 L 21.113281 19.640625 "/>
<path style=" stroke:none;fill-rule:nonzero;fill:rgb(100%,100%,100%);fill-opacity:1;" d="M 21.601562 19.367188 L 21.113281 19.636719 C 21.113281 19.640625 22.363281 21.875 22.363281 21.875 C 22.363281 21.878906 22.847656 21.605469 22.847656 21.605469 C 22.847656 21.601562 21.601562 19.367188 21.601562 19.367188 "/>
<path style=" stroke:none;fill-rule:nonzero;fill:rgb(100%,100%,100%);fill-opacity:1;" d="M 23.648438 18.371094 C 23.582031 18.40625 23.523438 18.441406 23.472656 18.488281 C 23.105469 18.8125 23.214844 19.257812 23.476562 19.550781 C 23.726562 19.835938 24.195312 20.046875 24.558594 19.726562 C 24.613281 19.679688 24.65625 19.617188 24.695312 19.554688 L 25.011719 19.914062 C 24.972656 19.992188 24.917969 20.058594 24.847656 20.117188 C 24.246094 20.648438 23.476562 20.453125 23.03125 19.949219 C 22.613281 19.472656 22.527344 18.675781 23.09375 18.175781 C 23.167969 18.109375 23.25 18.0625 23.339844 18.023438 "/>
<path style=" stroke:none;fill-rule:nonzero;fill:rgb(100%,100%,100%);fill-opacity:1;" d="M 24.828125 16.933594 C 24.691406 16.976562 24.550781 17.050781 24.464844 17.175781 C 24.367188 17.316406 24.386719 17.460938 24.515625 17.546875 C 24.863281 17.785156 25.359375 17.101562 25.933594 17.488281 C 26.308594 17.746094 26.429688 18.175781 26.132812 18.609375 C 26.046875 18.738281 25.898438 18.875 25.757812 18.929688 L 25.359375 18.660156 C 25.5 18.597656 25.617188 18.523438 25.710938 18.386719 C 25.8125 18.238281 25.800781 18.058594 25.660156 17.964844 C 25.5 17.855469 25.339844 17.953125 25.167969 18.027344 C 24.824219 18.179688 24.554688 18.238281 24.246094 18.027344 C 23.914062 17.796875 23.769531 17.386719 24.039062 16.992188 C 24.140625 16.84375 24.265625 16.738281 24.421875 16.65625 "/>
<path style=" stroke:none;fill-rule:nonzero;fill:rgb(100%,100%,100%);fill-opacity:1;" d="M 10.90625 5.871094 C 11.652344 6.480469 11.617188 7.089844 11.304688 7.472656 C 10.988281 7.859375 10.398438 8.011719 9.652344 7.402344 C 8.910156 6.796875 8.941406 6.1875 9.257812 5.800781 C 9.570312 5.417969 10.164062 5.261719 10.90625 5.871094 M 10.941406 7.175781 C 11.175781 6.890625 10.6875 6.460938 10.53125 6.332031 C 10.355469 6.1875 9.855469 5.8125 9.621094 6.097656 C 9.386719 6.382812 9.855469 6.800781 10.03125 6.945312 C 10.1875 7.074219 10.707031 7.464844 10.941406 7.175781 Z M 10.941406 7.175781 "/>
<path style=" stroke:none;fill-rule:nonzero;fill:rgb(100%,100%,100%);fill-opacity:1;" d="M 11.789062 3.601562 L 13.78125 5.347656 L 13.289062 5.679688 L 12.960938 5.382812 L 12.492188 5.695312 L 12.648438 6.109375 L 12.191406 6.421875 L 11.300781 3.929688 M 12.167969 4.609375 L 11.898438 4.324219 L 11.894531 4.328125 L 12.058594 4.679688 L 12.34375 5.316406 L 12.667969 5.09375 Z M 12.167969 4.609375 "/>
<path style=" stroke:none;fill-rule:nonzero;fill:rgb(100%,100%,100%);fill-opacity:1;" d="M 14.210938 2.464844 L 14.546875 3.558594 L 14.550781 3.558594 L 14.664062 2.328125 L 15.207031 2.164062 L 15.050781 3.445312 L 16.015625 4.59375 L 15.453125 4.765625 L 14.585938 3.664062 L 14.578125 3.667969 L 14.957031 4.914062 L 14.425781 5.078125 L 13.679688 2.628906 "/>
<path style=" stroke:none;fill-rule:nonzero;fill:rgb(100%,100%,100%);fill-opacity:1;" d="M 17.253906 1.953125 L 17.308594 4.035156 L 17.890625 4.019531 L 17.902344 4.496094 L 16.761719 4.527344 L 16.695312 1.964844 "/>
<path style=" stroke:none;fill-rule:nonzero;fill:rgb(100%,100%,100%);fill-opacity:1;" d="M 20.320312 2.339844 L 20.351562 4.984375 L 19.777344 4.839844 L 19.78125 4.398438 L 19.234375 4.261719 L 19.03125 4.652344 L 18.492188 4.519531 L 19.753906 2.195312 M 19.828125 3.292969 L 19.859375 2.902344 L 19.851562 2.898438 L 19.699219 3.261719 L 19.417969 3.894531 L 19.796875 3.988281 Z M 19.828125 3.292969 "/>
<path style=" stroke:none;fill-rule:nonzero;fill:rgb(100%,100%,100%);fill-opacity:1;" d="M 22.796875 3.382812 L 22.570312 5.0625 L 22.578125 5.058594 C 22.613281 4.9375 22.675781 4.820312 22.746094 4.707031 L 23.355469 3.730469 L 23.828125 4.023438 L 22.472656 6.195312 L 22.023438 5.917969 L 22.257812 4.242188 L 22.25 4.246094 L 22.136719 4.476562 L 22.082031 4.570312 L 21.460938 5.566406 L 20.988281 5.269531 L 22.34375 3.101562 "/>
<path style=" stroke:none;fill-rule:nonzero;fill:rgb(100%,100%,100%);fill-opacity:1;" d="M 23.109375 6.769531 L 25.070312 5.125 L 25.34375 5.445312 C 25.40625 5.519531 26.253906 6.332031 25.15625 7.25 C 24.597656 7.71875 23.992188 7.820312 23.429688 7.148438 M 24.804688 6.820312 C 25.050781 6.613281 25.375 6.195312 25.082031 5.84375 L 23.816406 6.902344 C 24.089844 7.257812 24.558594 7.027344 24.804688 6.820312 Z M 24.804688 6.820312 "/>
<path style=" stroke:none;fill-rule:nonzero;fill:rgb(0%,28.235294%,22.745098%);fill-opacity:1;" d="M 27.050781 22.410156 L 26.804688 22.410156 L 26.804688 23.074219 L 26.640625 23.074219 L 26.640625 22.410156 L 26.394531 22.410156 L 26.394531 22.265625 L 27.050781 22.265625 M 28.15625 23.074219 L 27.992188 23.074219 L 27.992188 22.429688 L 27.988281 22.429688 L 27.753906 23.074219 L 27.59375 23.074219 L 27.367188 22.429688 L 27.363281 22.429688 L 27.363281 23.074219 L 27.199219 23.074219 L 27.199219 22.265625 L 27.484375 22.265625 L 27.671875 22.792969 L 27.675781 22.792969 L 27.871094 22.265625 L 28.15625 22.265625 Z M 28.15625 23.074219 "/>
</g>
</svg>
