<?xml version="1.0" encoding="UTF-8"?>
<svg xmlns="http://www.w3.org/2000/svg" xmlns:xlink="http://www.w3.org/1999/xlink" width="35pt" height="25pt" viewBox="0 0 35 25" version="1.1">
<g id="surface1">
<path style=" stroke:none;fill-rule:nonzero;fill:rgb(100%,100%,100%);fill-opacity:1;" d="M 17.507812 0 C 12.324219 0.0390625 5.699219 3.089844 4.085938 11.570312 L 4.085938 11.585938 L 17.507812 25 L 30.914062 11.597656 C 29.300781 2.347656 21.441406 -0.03125 17.507812 0 "/>
<path style=" stroke:none;fill-rule:nonzero;fill:rgb(80.392157%,6.666667%,25.490196%);fill-opacity:1;" d="M 17.515625 0.644531 C 21.179688 0.617188 28.515625 2.835938 30.03125 11.4375 C 30.027344 11.4375 17.511719 23.949219 17.511719 23.949219 C 17.511719 23.941406 5.035156 11.476562 4.992188 11.4375 C 6.496094 3.527344 12.675781 0.679688 17.515625 0.644531 "/>
<path style=" stroke:none;fill-rule:nonzero;fill:rgb(100%,100%,100%);fill-opacity:1;" d="M 17.511719 1.804688 C 11.167969 1.863281 7 6.683594 6.296875 11.191406 L 6.285156 11.265625 L 17.515625 22.449219 L 28.6875 11.265625 L 28.675781 11.191406 C 27.992188 6.683594 23.847656 1.863281 17.515625 1.804688 "/>
<path style=" stroke:none;fill-rule:nonzero;fill:rgb(0%,32.156863%,60.784314%);fill-opacity:1;" d="M 17.515625 2.09375 C 23.652344 2.152344 27.675781 6.796875 28.375 11.164062 C 28.265625 11.273438 17.714844 21.835938 17.515625 22.039062 C 17.3125 21.835938 6.707031 11.273438 6.597656 11.164062 C 7.3125 6.796875 11.363281 2.152344 17.515625 2.09375 "/>
<path style=" stroke:none;fill-rule:nonzero;fill:rgb(100%,100%,100%);fill-opacity:1;" d="M 26.449219 9.421875 L 26.214844 9.421875 L 26.214844 10.066406 L 26.054688 10.066406 L 26.054688 9.421875 L 25.816406 9.421875 L 25.816406 9.28125 L 26.449219 9.28125 M 27.519531 10.066406 L 27.363281 10.066406 L 27.363281 9.441406 L 27.359375 9.441406 L 27.128906 10.066406 L 26.976562 10.066406 L 26.757812 9.441406 L 26.753906 9.441406 L 26.753906 10.066406 L 26.59375 10.066406 L 26.59375 9.28125 L 26.871094 9.28125 L 27.054688 9.792969 L 27.246094 9.28125 L 27.519531 9.28125 Z M 27.519531 10.066406 "/>
<path style=" stroke:none;fill-rule:nonzero;fill:rgb(100%,100%,100%);fill-opacity:1;" d="M 11.070312 7.410156 L 10.960938 7.414062 L 10.960938 8.964844 L 11.101562 8.9375 C 11.628906 8.839844 11.925781 8.496094 11.878906 8.046875 C 11.828125 7.589844 11.558594 7.378906 11.070312 7.410156 "/>
<path style=" stroke:none;fill-rule:nonzero;fill:rgb(100%,100%,100%);fill-opacity:1;" d="M 22.894531 10.324219 C 22.894531 10.304688 22.894531 10.289062 22.894531 10.273438 C 22.894531 10.273438 22.867188 10.199219 22.867188 10.195312 C 22.8125 10.164062 22.730469 10.160156 22.640625 10.183594 C 22.476562 10.222656 22.324219 10.335938 22.25 10.46875 L 22.25 10.472656 C 22.085938 10.667969 22.007812 10.910156 22.027344 11.027344 C 22.035156 11.054688 22.042969 11.074219 22.066406 11.085938 L 22.164062 11.121094 C 22.320312 11.117188 22.566406 10.976562 22.71875 10.804688 C 22.835938 10.660156 22.894531 10.460938 22.894531 10.324219 "/>
<path style=" stroke:none;fill-rule:nonzero;fill:rgb(100%,100%,100%);fill-opacity:1;" d="M 24.988281 9.664062 C 24.988281 9.664062 24.921875 9.617188 24.878906 9.585938 C 24.855469 9.542969 24.675781 9.25 24.675781 9.25 L 23.8125 9.867188 L 23.824219 10.011719 C 23.824219 10.058594 23.828125 10.105469 23.828125 10.152344 C 23.828125 10.492188 23.742188 10.78125 23.585938 11.003906 C 23.714844 10.769531 23.765625 10.554688 23.765625 10.382812 C 23.765625 10.226562 23.730469 10.105469 23.703125 10.035156 C 23.523438 9.554688 22.996094 9.257812 22.445312 9.339844 C 22.253906 9.367188 21.773438 9.503906 21.445312 10.082031 C 21.371094 9.769531 21.230469 9.195312 21.226562 9.167969 C 21.242188 9.148438 21.515625 8.875 21.699219 8.691406 L 22.925781 8.6875 L 22.925781 6.945312 C 22.925781 6.945312 22.578125 6.945312 22.519531 6.945312 C 22.519531 6.875 22.519531 4.25 22.519531 4.25 C 22.511719 4.230469 22.113281 3.582031 22.113281 3.582031 L 22.101562 3.566406 L 20.863281 3.558594 C 20.851562 3.5625 19.910156 3.917969 19.910156 3.917969 L 17.488281 3.917969 C 17.488281 3.917969 15.160156 3.917969 15.160156 3.917969 C 15.160156 3.914062 14.230469 3.5625 14.230469 3.5625 C 14.21875 3.558594 13 3.566406 13 3.566406 L 12.980469 3.566406 L 12.570312 4.230469 C 12.570312 4.230469 12.566406 6.875 12.566406 6.945312 C 12.554688 6.945312 12.535156 6.945312 12.511719 6.945312 C 12.359375 6.78125 12.167969 6.644531 11.9375 6.539062 C 10.925781 6.074219 9.496094 6.285156 8.75 7.011719 C 8.265625 7.484375 8.03125 8.0625 8.117188 8.554688 C 8.171875 8.859375 8.351562 9.097656 8.605469 9.210938 C 8.953125 9.367188 9.21875 9.304688 9.378906 9.222656 C 9.488281 9.164062 9.578125 9.085938 9.652344 8.996094 C 9.652344 9.996094 9.652344 10.992188 9.652344 11.078125 C 9.386719 11.390625 9.226562 11.714844 9.226562 12 C 9.226562 12.085938 9.242188 12.171875 9.265625 12.253906 C 9.347656 12.503906 9.558594 12.675781 9.839844 12.726562 C 10.152344 12.78125 10.496094 12.679688 10.757812 12.460938 C 11.015625 12.25 11.160156 11.945312 11.160156 11.625 C 11.160156 11.625 11.160156 10.289062 11.160156 10 C 11.691406 9.796875 12.199219 9.550781 12.535156 9.144531 C 12.535156 10.320312 12.535156 12.046875 12.535156 12.046875 C 12.535156 12.066406 12.53125 12.089844 12.53125 12.109375 C 12.53125 12.3125 12.621094 12.488281 12.785156 12.601562 C 13 12.75 13.316406 12.757812 13.550781 12.625 C 13.757812 12.511719 13.871094 12.3125 13.871094 12.082031 C 13.871094 12.070312 13.871094 12.058594 13.871094 12.046875 C 13.871094 12.046875 13.871094 10.746094 13.871094 10.679688 C 13.878906 10.675781 13.878906 10.671875 13.886719 10.671875 C 13.886719 10.675781 13.886719 10.675781 13.890625 10.683594 C 13.890625 10.757812 13.890625 11.964844 13.890625 11.964844 C 13.894531 12.308594 14.089844 12.566406 14.414062 12.675781 C 14.410156 12.703125 14.402344 12.730469 14.398438 12.757812 L 10.144531 12.757812 L 10.125 12.761719 C 9.816406 12.800781 9.605469 13.03125 9.605469 13.332031 C 9.605469 13.339844 9.605469 13.351562 9.605469 13.363281 C 9.621094 13.667969 9.855469 13.902344 10.15625 13.914062 C 10.15625 13.914062 11.828125 13.914062 13.988281 13.914062 C 13.617188 14.605469 13.257812 14.964844 12.984375 15.238281 C 12.652344 15.566406 12.421875 15.792969 12.421875 16.347656 C 12.421875 16.394531 12.425781 16.445312 12.425781 16.496094 L 12.429688 16.53125 C 12.429688 16.53125 16.046875 16.53125 16.875 16.53125 C 16.882812 16.34375 16.859375 16.199219 16.835938 16.070312 C 16.835938 16.070312 16.804688 15.742188 16.804688 15.742188 C 16.8125 15.628906 16.761719 15.558594 16.695312 15.46875 C 16.640625 15.386719 16.574219 15.296875 16.550781 15.167969 L 16.484375 15.070312 C 16.484375 15.070312 16.394531 14.890625 16.394531 14.886719 C 16.398438 14.824219 16.371094 14.78125 16.320312 14.710938 C 16.320312 14.710938 16.210938 14.5 16.210938 14.496094 C 16.1875 14.347656 16.222656 14.25 16.25 14.164062 C 16.277344 14.089844 16.300781 14.023438 16.285156 13.921875 C 16.285156 13.921875 16.28125 13.914062 16.28125 13.914062 C 16.335938 13.914062 16.386719 13.914062 16.441406 13.914062 C 16.445312 13.941406 16.445312 13.96875 16.445312 13.992188 C 16.445312 14.085938 16.421875 14.15625 16.398438 14.21875 C 16.378906 14.277344 16.359375 14.328125 16.359375 14.394531 C 16.359375 14.417969 16.363281 14.441406 16.367188 14.464844 L 16.449219 14.621094 C 16.496094 14.6875 16.550781 14.761719 16.550781 14.867188 C 16.550781 14.878906 16.550781 14.886719 16.546875 14.898438 L 16.597656 14.964844 C 16.597656 14.964844 16.707031 15.144531 16.707031 15.144531 C 16.722656 15.234375 16.773438 15.304688 16.824219 15.375 C 16.894531 15.472656 16.972656 15.585938 16.960938 15.753906 L 16.988281 16.042969 C 17.015625 16.175781 17.039062 16.328125 17.03125 16.53125 C 17.039062 16.53125 17.042969 16.53125 17.046875 16.53125 C 17.046875 16.578125 17.046875 16.71875 17.046875 16.742188 C 17 16.777344 16.753906 16.976562 16.734375 17.300781 C 16.730469 17.3125 16.730469 17.328125 16.730469 17.34375 C 16.730469 17.558594 16.839844 17.777344 17.054688 17.984375 L 17.046875 18.46875 L 17.046875 18.503906 L 18.039062 18.503906 L 18.039062 17.960938 C 18.242188 17.773438 18.351562 17.558594 18.351562 17.34375 C 18.351562 17.328125 18.351562 17.3125 18.351562 17.300781 C 18.328125 16.976562 18.082031 16.777344 18.039062 16.742188 C 18.039062 16.71875 18.039062 16.578125 18.039062 16.53125 C 18.109375 16.53125 22.652344 16.53125 22.652344 16.53125 L 22.65625 16.496094 C 22.660156 16.445312 22.660156 16.394531 22.660156 16.347656 C 22.660156 15.792969 22.433594 15.566406 22.101562 15.238281 C 21.824219 14.964844 21.46875 14.605469 21.09375 13.914062 C 22.558594 13.914062 23.589844 13.914062 23.65625 13.914062 C 23.882812 14.203125 24.175781 14.359375 24.492188 14.339844 C 24.808594 14.316406 25.085938 14.121094 25.214844 13.828125 L 25.226562 13.808594 L 25.230469 13.785156 C 25.320312 13.417969 25.214844 13.183594 25.113281 13.054688 C 24.886719 12.777344 24.511719 12.753906 24.355469 12.757812 L 23.085938 12.757812 C 23.207031 12.742188 23.328125 12.710938 23.441406 12.660156 C 23.65625 12.574219 23.835938 12.4375 23.996094 12.289062 C 24.609375 12.824219 25.09375 12.804688 25.398438 12.691406 C 25.851562 12.523438 26.148438 12.035156 26.199219 11.660156 C 26.210938 11.570312 26.214844 11.484375 26.214844 11.40625 C 26.214844 10.558594 25.566406 10.085938 24.988281 9.664062 M 21.355469 10.261719 C 21.273438 10.441406 21.207031 10.652344 21.164062 10.910156 C 21.164062 10.65625 21.164062 10.394531 21.164062 10.394531 C 21.152344 10.257812 21.121094 10.140625 21.074219 10.046875 C 21.183594 10.132812 21.285156 10.207031 21.355469 10.261719 Z M 21.386719 8.734375 C 21.386719 8.734375 20.945312 9.125 20.9375 9.117188 C 20.9375 9.117188 21.136719 9.757812 21.136719 9.757812 C 21.136719 9.757812 21.136719 9.761719 21.136719 9.761719 C 21.136719 9.769531 21.132812 9.777344 21.128906 9.78125 C 21.121094 9.785156 21.109375 9.785156 21.101562 9.78125 C 21.101562 9.78125 20.625 9.410156 20.625 9.390625 C 20.621094 9.394531 20.121094 9.78125 20.121094 9.78125 C 20.117188 9.785156 20.105469 9.785156 20.097656 9.78125 C 20.089844 9.777344 20.089844 9.769531 20.089844 9.761719 C 20.089844 9.761719 20.089844 9.757812 20.089844 9.757812 C 20.089844 9.757812 20.28125 9.136719 20.292969 9.136719 C 20.292969 9.136719 19.835938 8.734375 19.835938 8.734375 C 19.832031 8.730469 19.828125 8.722656 19.828125 8.71875 C 19.828125 8.714844 19.828125 8.710938 19.832031 8.710938 C 19.835938 8.703125 19.839844 8.695312 19.851562 8.695312 L 20.359375 8.710938 L 20.59375 8.046875 C 20.59375 8.035156 20.605469 8.03125 20.613281 8.03125 C 20.621094 8.03125 20.628906 8.035156 20.632812 8.046875 C 20.632812 8.046875 20.847656 8.65625 20.847656 8.695312 C 20.847656 8.695312 21.375 8.695312 21.375 8.695312 C 21.382812 8.695312 21.390625 8.703125 21.394531 8.710938 C 21.398438 8.71875 21.394531 8.726562 21.386719 8.734375 Z M 18.964844 6.894531 C 19.03125 6.894531 20.386719 6.894531 20.441406 6.894531 C 20.445312 6.914062 20.5 7.191406 20.570312 7.523438 C 20.507812 7.679688 20.304688 8.183594 20.226562 8.382812 C 20.011719 7.726562 19.523438 7.257812 18.964844 7.238281 C 18.964844 7.195312 18.964844 6.949219 18.964844 6.894531 Z M 16.597656 8.695312 C 16.644531 8.695312 16.675781 8.695312 16.675781 8.695312 C 16.683594 8.695312 16.691406 8.703125 16.695312 8.710938 C 16.699219 8.71875 16.695312 8.726562 16.6875 8.734375 C 16.6875 8.734375 16.648438 8.769531 16.59375 8.816406 C 16.464844 8.929688 16.242188 9.121094 16.238281 9.117188 C 16.238281 9.117188 16.4375 9.757812 16.4375 9.757812 C 16.4375 9.757812 16.4375 9.761719 16.4375 9.761719 C 16.4375 9.769531 16.433594 9.777344 16.425781 9.78125 C 16.417969 9.785156 16.410156 9.785156 16.402344 9.78125 C 16.402344 9.78125 15.925781 9.410156 15.925781 9.390625 C 15.921875 9.394531 15.421875 9.78125 15.421875 9.78125 C 15.414062 9.785156 15.40625 9.785156 15.398438 9.78125 C 15.390625 9.777344 15.390625 9.769531 15.390625 9.761719 C 15.390625 9.761719 15.390625 9.757812 15.390625 9.757812 C 15.390625 9.757812 15.582031 9.136719 15.59375 9.136719 C 15.59375 9.136719 15.136719 8.734375 15.136719 8.734375 C 15.132812 8.730469 15.128906 8.722656 15.128906 8.71875 C 15.128906 8.714844 15.128906 8.710938 15.132812 8.710938 C 15.132812 8.703125 15.140625 8.695312 15.148438 8.695312 L 15.660156 8.710938 L 15.890625 8.046875 C 15.894531 8.035156 15.902344 8.03125 15.914062 8.03125 C 15.921875 8.03125 15.929688 8.035156 15.933594 8.046875 C 15.933594 8.046875 16.148438 8.65625 16.148438 8.695312 C 16.148438 8.695312 16.449219 8.695312 16.597656 8.695312 Z M 14.273438 8.695312 C 14.273438 8.695312 14.632812 6.949219 14.640625 6.894531 C 14.695312 6.894531 16.050781 6.894531 16.117188 6.894531 C 16.117188 6.949219 16.117188 7.195312 16.117188 7.238281 C 15.425781 7.261719 14.828125 7.976562 14.753906 8.890625 L 14.734375 9.425781 C 14.691406 9.390625 14.640625 9.355469 14.585938 9.332031 C 14.34375 9.214844 14.089844 9.246094 13.882812 9.304688 C 13.882812 9.128906 13.882812 8.902344 13.882812 8.691406 Z M 12.535156 8.71875 C 12.25 9.304688 11.617188 9.585938 10.9375 9.820312 L 10.9375 11.625 C 10.9375 11.871094 10.828125 12.105469 10.625 12.273438 C 10.414062 12.453125 10.128906 12.535156 9.882812 12.492188 C 9.695312 12.460938 9.566406 12.355469 9.515625 12.203125 C 9.5 12.152344 9.492188 12.09375 9.492188 12.035156 C 9.492188 11.777344 9.652344 11.457031 9.945312 11.160156 C 9.945312 11.160156 9.945312 7.675781 9.945312 7.597656 C 9.667969 7.726562 9.460938 7.988281 9.460938 8.152344 C 9.460938 8.164062 9.464844 8.175781 9.464844 8.183594 C 9.484375 8.277344 9.589844 8.296875 9.671875 8.292969 L 9.699219 8.292969 L 9.695312 8.320312 C 9.691406 8.34375 9.609375 8.835938 9.277344 9.011719 C 9.113281 9.101562 8.921875 9.09375 8.703125 8.996094 C 8.515625 8.914062 8.390625 8.742188 8.351562 8.515625 C 8.277344 8.097656 8.488281 7.601562 8.914062 7.183594 C 9.585938 6.527344 10.921875 6.332031 11.839844 6.753906 C 11.960938 6.808594 12.0625 6.875 12.160156 6.945312 C 12.40625 7.128906 12.574219 7.367188 12.648438 7.644531 C 12.6875 7.785156 12.707031 7.9375 12.695312 8.101562 C 12.679688 8.339844 12.621094 8.539062 12.535156 8.71875 Z M 20.679688 12.734375 C 20.742188 12.75 20.804688 12.753906 20.863281 12.757812 L 20.683594 12.757812 C 20.683594 12.75 20.683594 12.742188 20.679688 12.734375 Z M 24.363281 13.019531 C 24.601562 13.011719 25.132812 13.09375 24.976562 13.726562 C 24.796875 14.136719 24.171875 14.285156 23.78125 13.652344 L 10.164062 13.652344 C 9.796875 13.644531 9.730469 13.074219 10.160156 13.019531 Z M 20.992188 12.757812 C 21.21875 12.746094 21.433594 12.679688 21.605469 12.585938 C 21.664062 12.550781 21.699219 12.511719 21.742188 12.476562 C 22.03125 12.625 22.3125 12.71875 22.582031 12.757812 Z M 25.960938 11.628906 C 25.925781 11.890625 25.703125 12.324219 25.3125 12.46875 C 25.070312 12.558594 24.671875 12.570312 24.132812 12.066406 C 24.144531 12.050781 24.394531 11.621094 24.578125 11.570312 C 24.773438 11.765625 24.945312 11.84375 25.070312 11.785156 C 25.167969 11.738281 25.226562 11.605469 25.226562 11.4375 C 25.226562 11.414062 25.226562 11.386719 25.222656 11.359375 C 25.195312 11.101562 25.03125 10.777344 24.660156 10.675781 C 24.621094 10.816406 24.261719 12.066406 23.351562 12.441406 C 22.867188 12.640625 22.308594 12.550781 21.691406 12.191406 C 21.671875 12.25 21.585938 12.320312 21.488281 12.378906 C 21.125 12.578125 20.59375 12.632812 20.175781 12.191406 C 20.105469 12.242188 19.1875 12.917969 18.417969 12.136719 C 18.363281 12.1875 17.960938 12.53125 17.488281 12.511719 C 17.253906 12.503906 17.042969 12.398438 16.863281 12.210938 C 16.816406 12.257812 16.546875 12.519531 16.164062 12.523438 C 15.929688 12.527344 15.703125 12.417969 15.5 12.214844 C 15.347656 12.433594 14.886719 12.5625 14.539062 12.46875 C 14.277344 12.402344 14.132812 12.222656 14.128906 11.964844 L 14.128906 10.648438 C 14.074219 10.40625 13.894531 10.425781 13.839844 10.433594 C 13.71875 10.460938 13.617188 10.558594 13.632812 10.644531 L 13.632812 12.058594 C 13.640625 12.214844 13.570312 12.34375 13.4375 12.417969 C 13.277344 12.507812 13.0625 12.5 12.917969 12.40625 C 12.804688 12.324219 12.753906 12.199219 12.773438 12.046875 L 12.773438 8.085938 C 12.75 7.902344 12.824219 7.742188 12.96875 7.648438 C 13.121094 7.550781 13.316406 7.546875 13.457031 7.632812 C 13.582031 7.710938 13.648438 7.84375 13.648438 8.015625 C 13.648438 8.039062 13.648438 8.0625 13.644531 8.085938 C 13.644531 8.085938 13.644531 9.582031 13.644531 9.660156 C 13.75 9.597656 14.148438 9.390625 14.488281 9.546875 C 14.722656 9.65625 14.867188 9.925781 14.914062 10.339844 L 14.914062 11.476562 C 14.929688 11.636719 15.085938 11.71875 15.230469 11.714844 C 15.363281 11.710938 15.5 11.636719 15.503906 11.476562 L 15.503906 10.425781 C 15.492188 10.226562 15.5625 10.058594 15.695312 9.976562 C 15.808594 9.902344 15.953125 9.902344 16.070312 9.96875 C 16.207031 10.046875 16.28125 10.210938 16.277344 10.417969 L 16.277344 11.398438 C 16.265625 11.511719 16.308594 11.601562 16.394531 11.660156 C 16.484375 11.714844 16.597656 11.71875 16.6875 11.671875 C 16.78125 11.617188 16.832031 11.515625 16.832031 11.378906 L 16.832031 8.75 C 16.820312 8.421875 16.878906 8.1875 17.015625 8.046875 C 17.117188 7.933594 17.265625 7.878906 17.46875 7.875 C 17.699219 7.871094 17.886719 7.960938 18.003906 8.140625 C 18.117188 8.308594 18.171875 8.539062 18.171875 8.824219 C 18.171875 9.34375 17.992188 10.03125 17.648438 10.800781 C 17.617188 10.964844 17.605469 11.085938 17.605469 11.179688 C 17.605469 11.351562 17.644531 11.429688 17.6875 11.515625 C 17.6875 11.515625 17.703125 11.546875 17.707031 11.550781 C 17.835938 11.664062 17.984375 11.707031 18.109375 11.660156 C 18.214844 11.625 18.355469 11.507812 18.414062 11.175781 L 18.417969 8.699219 C 18.394531 8.398438 18.445312 8.179688 18.570312 8.042969 C 18.714844 7.890625 18.933594 7.875 19.125 7.875 C 19.304688 7.882812 19.464844 7.992188 19.582031 8.1875 C 19.625 8.261719 19.660156 8.355469 19.6875 8.457031 C 19.734375 8.605469 19.753906 8.785156 19.753906 8.992188 C 19.75 9.460938 19.613281 10.066406 19.242188 10.785156 C 19.101562 11.308594 19.253906 11.542969 19.355469 11.640625 C 19.480469 11.75 19.65625 11.785156 19.820312 11.722656 C 20 11.660156 20.121094 11.5 20.148438 11.304688 L 20.148438 10.398438 C 20.128906 10.148438 20.324219 9.964844 20.523438 9.945312 C 20.699219 9.933594 20.894531 10.042969 20.925781 10.394531 L 20.925781 11.53125 C 20.972656 11.648438 21.078125 11.714844 21.175781 11.691406 C 21.269531 11.667969 21.375 11.546875 21.351562 11.28125 C 21.453125 9.835938 22.242188 9.609375 22.480469 9.574219 C 22.917969 9.511719 23.339844 9.738281 23.480469 10.117188 C 23.664062 10.609375 23.328125 11.191406 22.585938 11.65625 C 22.585938 11.667969 22.582031 11.679688 22.601562 11.691406 C 22.675781 11.753906 22.972656 11.742188 23.277344 11.585938 C 23.597656 11.417969 24.121094 10.992188 24.070312 9.976562 L 24.605469 9.59375 L 24.621094 9.613281 C 24.621094 9.613281 24.695312 9.742188 24.695312 9.746094 L 24.847656 9.855469 C 25.429688 10.277344 25.976562 10.679688 25.976562 11.40625 C 25.976562 11.476562 25.972656 11.550781 25.960938 11.628906 Z M 25.960938 11.628906 "/>
<path style=" stroke:none;fill-rule:nonzero;fill:rgb(100%,100%,100%);fill-opacity:1;" d="M 17.492188 8.464844 C 17.464844 8.449219 17.433594 8.445312 17.398438 8.460938 L 17.386719 8.46875 L 17.386719 10.027344 L 17.414062 10.023438 C 17.542969 10.003906 17.621094 9.691406 17.664062 9.035156 C 17.65625 8.859375 17.609375 8.535156 17.492188 8.464844 "/>
<path style=" stroke:none;fill-rule:nonzero;fill:rgb(100%,100%,100%);fill-opacity:1;" d="M 19.078125 8.464844 C 19.050781 8.449219 19.015625 8.445312 18.984375 8.460938 L 18.972656 8.46875 L 18.972656 10.027344 L 19 10.023438 C 19.125 10.003906 19.207031 9.679688 19.246094 9.035156 C 19.242188 8.859375 19.195312 8.535156 19.078125 8.464844 "/>
<path style=" stroke:none;fill-rule:nonzero;fill:rgb(80.392157%,6.666667%,25.490196%);fill-opacity:1;" d="M 10.164062 13.652344 L 23.78125 13.652344 C 24.171875 14.285156 24.796875 14.136719 24.976562 13.726562 C 25.132812 13.09375 24.601562 13.011719 24.363281 13.019531 L 10.160156 13.019531 C 9.730469 13.074219 9.796875 13.644531 10.164062 13.652344 "/>
<path style=" stroke:none;fill-rule:nonzero;fill:rgb(80.392157%,6.666667%,25.490196%);fill-opacity:1;" d="M 12.160156 6.945312 C 12.0625 6.875 11.957031 6.808594 11.839844 6.753906 C 10.921875 6.332031 9.582031 6.527344 8.914062 7.183594 C 8.488281 7.597656 8.277344 8.097656 8.351562 8.515625 C 8.390625 8.742188 8.515625 8.914062 8.703125 8.996094 C 8.921875 9.09375 9.113281 9.101562 9.277344 9.011719 C 9.609375 8.835938 9.691406 8.34375 9.695312 8.320312 L 9.699219 8.292969 L 9.671875 8.292969 C 9.585938 8.296875 9.484375 8.277344 9.464844 8.183594 C 9.460938 8.175781 9.460938 8.164062 9.460938 8.152344 C 9.460938 7.988281 9.667969 7.726562 9.945312 7.597656 C 9.945312 7.675781 9.945312 11.160156 9.945312 11.160156 C 9.652344 11.457031 9.488281 11.777344 9.488281 12.035156 C 9.488281 12.09375 9.5 12.152344 9.515625 12.203125 C 9.566406 12.355469 9.695312 12.460938 9.882812 12.492188 C 10.128906 12.535156 10.414062 12.453125 10.625 12.273438 C 10.828125 12.105469 10.9375 11.871094 10.9375 11.625 L 10.9375 9.820312 C 11.617188 9.585938 12.25 9.304688 12.535156 8.71875 C 12.621094 8.539062 12.679688 8.339844 12.695312 8.101562 C 12.703125 7.9375 12.6875 7.785156 12.648438 7.640625 C 12.574219 7.367188 12.40625 7.128906 12.160156 6.945312 M 11.101562 8.9375 L 10.960938 8.964844 L 10.960938 7.417969 L 11.070312 7.410156 C 11.558594 7.378906 11.828125 7.589844 11.878906 8.046875 C 11.925781 8.496094 11.628906 8.839844 11.101562 8.9375 Z M 11.101562 8.9375 "/>
<path style=" stroke:none;fill-rule:nonzero;fill:rgb(80.392157%,6.666667%,25.490196%);fill-opacity:1;" d="M 24.847656 9.859375 L 24.695312 9.746094 C 24.695312 9.742188 24.621094 9.617188 24.621094 9.617188 L 24.605469 9.59375 L 24.070312 9.976562 C 24.121094 10.992188 23.597656 11.417969 23.277344 11.585938 C 22.972656 11.742188 22.675781 11.753906 22.601562 11.691406 C 22.582031 11.679688 22.585938 11.667969 22.585938 11.65625 C 23.328125 11.191406 23.664062 10.609375 23.480469 10.117188 C 23.339844 9.738281 22.917969 9.511719 22.480469 9.574219 C 22.242188 9.609375 21.453125 9.835938 21.351562 11.285156 C 21.375 11.546875 21.269531 11.667969 21.175781 11.691406 C 21.078125 11.714844 20.972656 11.652344 20.925781 11.535156 L 20.925781 10.394531 C 20.894531 10.042969 20.699219 9.933594 20.523438 9.945312 C 20.324219 9.964844 20.128906 10.152344 20.148438 10.398438 L 20.148438 11.304688 C 20.125 11.503906 20 11.660156 19.820312 11.722656 C 19.65625 11.785156 19.480469 11.75 19.355469 11.640625 C 19.253906 11.542969 19.101562 11.308594 19.242188 10.785156 C 19.613281 10.066406 19.75 9.460938 19.753906 8.992188 C 19.753906 8.785156 19.734375 8.609375 19.691406 8.457031 C 19.660156 8.355469 19.625 8.261719 19.582031 8.1875 C 19.464844 7.992188 19.304688 7.882812 19.125 7.878906 C 18.933594 7.875 18.714844 7.890625 18.570312 8.042969 C 18.445312 8.179688 18.394531 8.398438 18.417969 8.699219 L 18.414062 11.175781 C 18.355469 11.507812 18.214844 11.625 18.109375 11.664062 C 17.984375 11.707031 17.835938 11.664062 17.707031 11.550781 C 17.703125 11.546875 17.6875 11.515625 17.6875 11.515625 C 17.644531 11.429688 17.601562 11.351562 17.601562 11.179688 C 17.601562 11.085938 17.617188 10.964844 17.648438 10.800781 C 17.992188 10.03125 18.171875 9.34375 18.171875 8.828125 C 18.171875 8.542969 18.117188 8.308594 18.003906 8.140625 C 17.886719 7.960938 17.699219 7.871094 17.46875 7.878906 C 17.265625 7.878906 17.117188 7.9375 17.015625 8.046875 C 16.878906 8.191406 16.820312 8.421875 16.832031 8.753906 L 16.832031 11.378906 C 16.832031 11.515625 16.78125 11.617188 16.6875 11.671875 C 16.597656 11.71875 16.484375 11.714844 16.394531 11.660156 C 16.308594 11.601562 16.265625 11.511719 16.277344 11.394531 L 16.277344 10.417969 C 16.28125 10.210938 16.207031 10.046875 16.070312 9.96875 C 15.953125 9.902344 15.808594 9.902344 15.695312 9.976562 C 15.5625 10.058594 15.492188 10.226562 15.503906 10.425781 L 15.503906 11.476562 C 15.5 11.636719 15.363281 11.710938 15.230469 11.714844 C 15.085938 11.71875 14.929688 11.636719 14.914062 11.476562 L 14.914062 10.339844 C 14.867188 9.921875 14.722656 9.65625 14.488281 9.546875 C 14.148438 9.390625 13.75 9.597656 13.644531 9.660156 C 13.644531 9.582031 13.644531 8.085938 13.644531 8.085938 C 13.648438 8.0625 13.648438 8.039062 13.648438 8.015625 C 13.648438 7.84375 13.582031 7.710938 13.457031 7.632812 C 13.316406 7.546875 13.121094 7.550781 12.96875 7.648438 C 12.824219 7.742188 12.75 7.902344 12.773438 8.085938 L 12.773438 12.046875 C 12.753906 12.195312 12.804688 12.324219 12.917969 12.40625 C 13.0625 12.5 13.277344 12.507812 13.4375 12.417969 C 13.570312 12.34375 13.640625 12.214844 13.632812 12.054688 L 13.632812 10.644531 C 13.617188 10.558594 13.71875 10.460938 13.839844 10.433594 C 13.894531 10.421875 14.074219 10.40625 14.128906 10.648438 L 14.128906 11.964844 C 14.132812 12.222656 14.277344 12.402344 14.539062 12.46875 C 14.886719 12.558594 15.347656 12.433594 15.5 12.214844 C 15.703125 12.417969 15.929688 12.523438 16.164062 12.523438 C 16.546875 12.519531 16.816406 12.257812 16.863281 12.210938 C 17.042969 12.398438 17.253906 12.503906 17.488281 12.511719 C 17.960938 12.53125 18.363281 12.1875 18.417969 12.136719 C 19.1875 12.917969 20.105469 12.242188 20.175781 12.191406 C 20.59375 12.632812 21.125 12.578125 21.488281 12.378906 C 21.589844 12.320312 21.671875 12.25 21.691406 12.191406 C 22.308594 12.550781 22.867188 12.640625 23.351562 12.441406 C 24.261719 12.066406 24.621094 10.816406 24.660156 10.675781 C 25.03125 10.773438 25.195312 11.101562 25.222656 11.355469 C 25.222656 11.386719 25.226562 11.410156 25.226562 11.4375 C 25.226562 11.605469 25.167969 11.738281 25.070312 11.785156 C 24.945312 11.839844 24.773438 11.765625 24.578125 11.570312 C 24.394531 11.621094 24.144531 12.050781 24.132812 12.066406 C 24.667969 12.566406 25.070312 12.558594 25.3125 12.46875 C 25.703125 12.324219 25.925781 11.890625 25.960938 11.628906 C 25.972656 11.550781 25.976562 11.476562 25.976562 11.40625 C 25.976562 10.679688 25.429688 10.277344 24.847656 9.859375 M 17.414062 10.023438 L 17.386719 10.027344 L 17.386719 8.46875 L 17.402344 8.460938 C 17.433594 8.445312 17.464844 8.449219 17.492188 8.464844 C 17.609375 8.535156 17.65625 8.859375 17.664062 9.035156 C 17.621094 9.691406 17.542969 10.003906 17.414062 10.023438 Z M 19 10.023438 L 18.972656 10.027344 L 18.972656 8.46875 L 18.984375 8.460938 C 19.015625 8.445312 19.050781 8.449219 19.078125 8.464844 C 19.195312 8.535156 19.242188 8.859375 19.246094 9.035156 C 19.207031 9.679688 19.125 10.003906 19 10.023438 Z M 22.066406 11.085938 C 22.042969 11.074219 22.035156 11.054688 22.027344 11.027344 C 22.007812 10.910156 22.085938 10.664062 22.25 10.472656 L 22.25 10.46875 C 22.324219 10.335938 22.476562 10.222656 22.640625 10.183594 C 22.730469 10.160156 22.8125 10.164062 22.867188 10.195312 C 22.867188 10.199219 22.894531 10.273438 22.894531 10.273438 C 22.894531 10.289062 22.894531 10.304688 22.894531 10.324219 C 22.894531 10.460938 22.835938 10.660156 22.71875 10.804688 C 22.566406 10.976562 22.320312 11.117188 22.164062 11.121094 Z M 22.066406 11.085938 "/>
<path style=" stroke:none;fill-rule:nonzero;fill:rgb(0%,32.156863%,60.784314%);fill-opacity:1;" d="M 15.933594 8.046875 C 15.929688 8.035156 15.921875 8.03125 15.914062 8.03125 C 15.902344 8.03125 15.894531 8.035156 15.890625 8.046875 L 15.660156 8.710938 L 15.148438 8.695312 C 15.140625 8.695312 15.132812 8.703125 15.132812 8.710938 C 15.128906 8.710938 15.128906 8.714844 15.128906 8.71875 C 15.128906 8.722656 15.132812 8.730469 15.136719 8.734375 C 15.136719 8.734375 15.59375 9.136719 15.59375 9.136719 C 15.582031 9.136719 15.390625 9.757812 15.390625 9.757812 C 15.390625 9.757812 15.390625 9.761719 15.390625 9.761719 C 15.390625 9.769531 15.390625 9.777344 15.398438 9.78125 C 15.40625 9.785156 15.414062 9.785156 15.421875 9.78125 C 15.421875 9.78125 15.921875 9.394531 15.925781 9.390625 C 15.925781 9.410156 16.402344 9.78125 16.402344 9.78125 C 16.410156 9.785156 16.417969 9.785156 16.425781 9.78125 C 16.433594 9.777344 16.4375 9.769531 16.4375 9.761719 C 16.4375 9.761719 16.4375 9.757812 16.433594 9.757812 C 16.433594 9.757812 16.238281 9.117188 16.238281 9.113281 C 16.242188 9.121094 16.464844 8.929688 16.59375 8.816406 C 16.648438 8.769531 16.6875 8.734375 16.6875 8.734375 C 16.695312 8.726562 16.699219 8.71875 16.695312 8.710938 C 16.691406 8.703125 16.683594 8.695312 16.675781 8.695312 C 16.675781 8.695312 16.644531 8.695312 16.59375 8.695312 C 16.449219 8.695312 16.148438 8.695312 16.148438 8.695312 C 16.148438 8.65625 15.933594 8.046875 15.933594 8.046875 "/>
<path style=" stroke:none;fill-rule:nonzero;fill:rgb(0%,32.156863%,60.784314%);fill-opacity:1;" d="M 20.847656 8.695312 C 20.847656 8.65625 20.632812 8.046875 20.632812 8.046875 C 20.628906 8.035156 20.621094 8.03125 20.613281 8.03125 C 20.605469 8.03125 20.59375 8.035156 20.59375 8.046875 L 20.359375 8.710938 L 19.851562 8.695312 C 19.839844 8.695312 19.835938 8.703125 19.832031 8.710938 C 19.828125 8.710938 19.828125 8.714844 19.828125 8.71875 C 19.828125 8.722656 19.832031 8.730469 19.835938 8.734375 C 19.835938 8.734375 20.292969 9.136719 20.292969 9.136719 C 20.28125 9.136719 20.089844 9.757812 20.089844 9.757812 C 20.089844 9.757812 20.089844 9.761719 20.089844 9.761719 C 20.089844 9.769531 20.089844 9.777344 20.097656 9.78125 C 20.105469 9.785156 20.113281 9.785156 20.121094 9.78125 C 20.121094 9.78125 20.621094 9.394531 20.625 9.390625 C 20.625 9.410156 21.101562 9.78125 21.101562 9.78125 C 21.109375 9.785156 21.121094 9.785156 21.128906 9.78125 C 21.132812 9.777344 21.136719 9.769531 21.136719 9.761719 C 21.136719 9.761719 21.136719 9.757812 21.136719 9.757812 C 21.136719 9.757812 20.9375 9.117188 20.9375 9.113281 C 20.945312 9.125 21.386719 8.734375 21.386719 8.734375 C 21.394531 8.726562 21.398438 8.71875 21.394531 8.710938 C 21.390625 8.703125 21.382812 8.695312 21.375 8.695312 C 21.375 8.695312 20.847656 8.695312 20.847656 8.695312 "/>
</g>
</svg>
