<?xml version="1.0" encoding="UTF-8" standalone="no"?>
<!-- Created with Inkscape (http://www.inkscape.org/) -->

<svg
   xmlns:dc="http://purl.org/dc/elements/1.1/"
   xmlns:cc="http://creativecommons.org/ns#"
   xmlns:rdf="http://www.w3.org/1999/02/22-rdf-syntax-ns#"
   xmlns:svg="http://www.w3.org/2000/svg"
   xmlns="http://www.w3.org/2000/svg"
   xmlns:xlink="http://www.w3.org/1999/xlink"
   version="1.1"
   width="280"
   height="200"
   viewBox="0 0 280 200.00001"
   id="svg2"
   xml:space="preserve"><metadata
     id="metadata352"><rdf:RDF><cc:Work
         rdf:about=""><dc:format>image/svg+xml</dc:format><dc:type
           rdf:resource="http://purl.org/dc/dcmitype/StillImage" /><dc:title></dc:title></cc:Work></rdf:RDF></metadata><defs
     id="defs350" /><g
     transform="matrix(0.63325212,0,0,0.63325212,71.999991,0)"
     id="g4"><defs
       id="defs6"><rect
         width="240.882"
         height="315.83099"
         x="0"
         y="-0.001"
         id="SVGID_1_" /></defs><clipPath
       id="SVGID_2_"><use
         id="use10"
         style="overflow:visible"
         x="0"
         y="0"
         width="240.882"
         height="315.82999"
         xlink:href="#SVGID_1_" /></clipPath><path
       d="m 120.441,157.444 v 0.008 c 0,-0.049 0,-0.085 0,-0.133 0,0.048 0,0.076 0,0.125"
       clip-path="url(#SVGID_2_)"
       id="path14"
       style="fill:#ffffff" /></g><g
     transform="matrix(0.63325212,0,0,0.63325212,71.999991,0)"
     id="g13"><defs
       id="defs15"><path
         d="m 10.918,36.173 v 79.367 c 16.879,138.167 110.13,191.982 110.13,191.982 0,0 101.705,-69.367 108.824,-191.982 V 36.173 H 10.918 z"
         id="SVGID_3_" /></defs><clipPath
       id="SVGID_4_"><use
         id="use19"
         style="overflow:visible"
         x="0"
         y="0"
         width="240.882"
         height="315.82999"
         xlink:href="#SVGID_3_" /></clipPath><linearGradient
       x1="-177.5923"
       y1="-140.59959"
       x2="-176.5927"
       y2="-140.59959"
       id="polygon29_1_"
       gradientUnits="userSpaceOnUse"
       gradientTransform="matrix(105.0628,-272.7982,272.7982,105.0628,57088.91,-33385.211)"><stop
         id="stop22"
         style="stop-color:#8b0304;stop-opacity:1"
         offset="0" /><stop
         id="stop24"
         style="stop-color:#ed1c24;stop-opacity:1"
         offset="1" /></linearGradient><polygon
       points="201.591,380.957 -80.089,272.474 39.199,-37.261 320.88,71.222 "
       clip-path="url(#SVGID_4_)"
       id="polygon29"
       style="fill:url(#polygon29_1_)" /></g><g
     transform="matrix(0.63325212,0,0,0.63325212,71.999991,0)"
     id="g27"><defs
       id="defs29"><rect
         width="240.882"
         height="315.83099"
         x="0"
         y="-0.001"
         id="SVGID_5_" /></defs><clipPath
       id="SVGID_6_"><use
         id="use33"
         style="overflow:visible"
         x="0"
         y="0"
         width="240.882"
         height="315.82999"
         xlink:href="#SVGID_5_" /></clipPath><path
       d="m 143.052,148.961 0,0 c 1.539,0.14 3.097,0.224 4.668,0.243 -1.572,-0.019 -3.129,-0.103 -4.668,-0.243"
       clip-path="url(#SVGID_6_)"
       id="path39"
       style="fill:#ffffff" /></g><g
     transform="matrix(0.63325212,0,0,0.63325212,71.999991,0)"
     id="g36"><defs
       id="defs38"><rect
         width="240.882"
         height="315.83099"
         x="0"
         y="-0.001"
         id="SVGID_7_" /></defs><clipPath
       id="SVGID_8_"><use
         id="use42"
         style="overflow:visible"
         x="0"
         y="0"
         width="240.882"
         height="315.82999"
         xlink:href="#SVGID_7_" /></clipPath><polygon
       points="139.583,148.585 139.591,148.571 139.583,148.571 "
       clip-path="url(#SVGID_8_)"
       id="polygon41"
       style="fill:#ffffff" /></g><g
     transform="matrix(0.63325212,0,0,0.63325212,71.999991,0)"
     id="g45"><defs
       id="defs47"><rect
         width="240.882"
         height="315.83099"
         x="0"
         y="-0.001"
         id="SVGID_9_" /></defs><clipPath
       id="SVGID_10_"><use
         id="use51"
         style="overflow:visible"
         x="0"
         y="0"
         width="240.882"
         height="315.82999"
         xlink:href="#SVGID_9_" /></clipPath><path
       d="m 95.748,139.645 -24.595,-0.652 -0.442,9.763 c 0,0 -3.613,-0.209 -7.423,0 -3.815,0.23 -4.03,5.522 -4.03,5.522 0,0 -2.974,-0.211 -6.149,0.633 -3.178,0.852 -2.754,5.736 -2.754,5.736 0,0 -8.279,0.215 -11.035,3.393 -2.759,3.195 -3.176,9.754 -0.413,13.576 2.749,3.822 18.442,26.297 22.473,35.208 4.031,8.921 4.674,39.047 4.674,39.047 l 0.238,0.719 0.011,0.007 c 14.067,17.363 31.788,34.082 54.166,49.088 7.58,-5.076 14.626,-10.375 21.169,-15.818 l -40.797,-47.09 2.499,-2.166 0.792,-0.043 c 0.265,-0.017 0.524,-0.029 0.797,-0.029 1.47,0.014 2.906,0.184 4.551,0.178 2.619,0 5.704,-0.371 9.693,-2.474 1.638,-0.882 2.711,-2.109 3.431,-3.604 0.724,-1.503 1.054,-3.246 1.034,-4.929 0.02,-1.806 -0.408,-3.539 -0.889,-4.479 -0.769,-1.573 -2.513,-2.804 -4.434,-3.572 -1.908,-0.785 -3.847,-1.096 -4.543,-1.174 -0.203,-0.036 -0.271,-0.036 -0.271,-0.036 h -0.122 l -2.32,-0.412 -7.661,-8.536 3.631,-3.135 6.499,7.227 0.503,0.086 c 0.496,0.055 2.328,0.273 4.524,0.984 l -9.041,-10.448 3.629,-3.153 53.987,62.332 c 0.642,-0.718 1.262,-1.43 1.884,-2.146 l -53.733,-62.022 3.626,-3.143 53.274,61.48 c 0.609,-0.729 1.22,-1.477 1.818,-2.201 l -52.959,-61.125 1.257,-1.088 c 0,0 1.833,0.521 4.712,0.629 l 50.043,57.77 c 0.59,-0.761 1.188,-1.514 1.771,-2.279 l -48.138,-55.562 c 1.681,-0.127 3.533,-0.437 5.486,-1.004 l 45.597,52.628 c 0.564,-0.785 1.123,-1.559 1.688,-2.354 l -44.445,-51.293 c 1.611,-0.814 2.76,-1.938 3.563,-3.216 l 43.713,50.45 c 0.543,-0.802 1.102,-1.629 1.627,-2.438 l -44.082,-50.881 c 0.812,-2.847 0.572,-5.711 0.42,-6.851 l 46.371,53.524 c 0.526,-0.834 1.049,-1.672 1.563,-2.512 l -50.292,-58.046 v -7.331 l 52.888,61.045 c 0.571,-0.99 1.144,-1.975 1.699,-2.974 l -63.115,-73.13 c -0.64,-0.164 -1.262,-0.357 -1.892,-0.534 -2.565,-0.754 -5.058,-1.674 -7.478,-2.741 -0.459,-0.206 -0.912,-0.438 -1.364,-0.663 -1.534,-0.73 -3.037,-1.514 -4.504,-2.369 -0.51,-0.299 -1.015,-0.61 -1.518,-0.925 -1.419,-0.888 -2.79,-1.824 -4.127,-2.827 -0.418,-0.308 -0.84,-0.612 -1.253,-0.942 -1.583,-1.246 -3.097,-2.564 -4.545,-3.956 -0.083,-0.077 -0.178,-0.145 -0.26,-0.226 -5.841,0.956 -10.677,7.504 -10.677,7.504"
       clip-path="url(#SVGID_10_)"
       id="path43"
       style="fill:#ffffff" /></g><g
     transform="matrix(0.63325212,0,0,0.63325212,71.999991,0)"
     id="g54"><defs
       id="defs56"><rect
         width="240.882"
         height="315.82999"
         x="0"
         y="0"
         id="SVGID_11_" /></defs><clipPath
       id="SVGID_12_"><use
         id="use60"
         style="overflow:visible"
         x="0"
         y="0"
         width="240.882"
         height="315.82999"
         xlink:href="#SVGID_11_" /></clipPath><path
       d="m 17.291,145.43 c 2.586,13.644 6.573,28.806 12.732,44.604 0.472,1.196 0.994,2.405 1.483,3.61 -0.489,-1.205 -1.012,-2.414 -1.483,-3.617 C 23.864,174.235 19.877,159.073 17.291,145.43"
       clip-path="url(#SVGID_12_)"
       id="path53"
       style="fill:#ffffff" /></g><g
     transform="matrix(0.63325212,0,0,0.63325212,71.999991,0)"
     id="g63"><defs
       id="defs65"><rect
         width="240.882"
         height="315.82999"
         x="0"
         y="0"
         id="SVGID_13_" /></defs><clipPath
       id="SVGID_14_"><use
         id="use69"
         style="overflow:visible"
         x="0"
         y="0"
         width="240.882"
         height="315.82999"
         xlink:href="#SVGID_13_" /></clipPath><path
       d="M 0.04,17.138 V 50.4 H 0 l 0.068,45.977 c -0.02,1.04 -0.028,2.14 -0.028,3.306 0,1.131 0.016,2.353 0.036,3.598 v 0.194 H 0.08 c 0.079,4.65 0.313,10.036 0.798,16.069 1.611,19.807 6.041,46.438 17.228,75.143 15.541,39.914 44.303,83.89 96.422,118.435 l 5.869,3.744 5.974,-3.732 c 4.891,-3.245 9.576,-6.565 14.057,-9.942 40.313,-30.521 64.709,-66.797 79.26,-100.832 l 0.061,-0.146 0.117,-0.297 c 1.036,-2.418 2.019,-4.833 2.963,-7.239 0.981,-2.546 1.92,-5.063 2.803,-7.571 13.05,-36.861 15.246,-69.479 15.255,-87.427 0,-0.674 -0.011,-1.282 -0.017,-1.913 l 0.017,-0.008 V 57.81 50.401 17.139 C 162.229,-5.713 78.692,-5.713 0.04,17.138 m 196.431,196.572 -17.468,-19.54 0,0 v -57.762 c 8.873,-9.547 13.158,-22.528 12.947,-36.785 -0.19,-13.32 -4.125,-25.888 -12.947,-35.743 V 44.736 c 5.043,0.693 12.461,2.008 17.484,2.877 l -0.015,166.097 h -0.001 z m -35.764,-40.816 -1.601,-1.683 -16.151,-18.72 c 0.681,-0.01 1.363,-0.01 2.041,-0.042 4.941,-0.278 11.268,-2.271 15.711,-3.865 v 24.31 l 0,0 z m -15.39,109.88 -35.75,-41.254 c 1.072,0 2.267,-0.072 3.551,-0.268 l 34.313,39.656 c -0.702,0.603 -1.412,1.241 -2.114,1.866 m 5.686,-5.086 -32.712,-37.771 c 0.88,-0.339 1.773,-0.742 2.701,-1.207 l 32.078,37.071 c -0.675,0.638 -1.369,1.27 -2.067,1.907 m 5.536,-5.244 -31.691,-36.616 c 0.654,-0.736 1.202,-1.515 1.678,-2.34 l 32.018,36.964 c -0.671,0.663 -1.325,1.317 -2.005,1.992 m 5.373,-5.44 -33.645,-38.828 c 0.115,-0.834 0.174,-1.646 0.174,-2.468 0,-0.584 -0.031,-1.174 -0.089,-1.75 l 35.517,40.984 c -0.641,0.695 -1.306,1.39 -1.957,2.062 m 32.869,-43.576 -52.889,-61.044 v 7.331 l 50.292,58.046 c -0.517,0.84 -1.036,1.678 -1.563,2.512 l -46.373,-53.524 c 0.155,1.14 0.394,4.004 -0.418,6.851 l 44.082,50.881 c -0.524,0.809 -1.082,1.636 -1.627,2.438 l -43.713,-50.45 c -0.804,1.276 -1.951,2.4 -3.563,3.216 l 44.445,51.293 c -0.563,0.795 -1.121,1.568 -1.688,2.354 l -45.598,-52.628 c -1.953,0.567 -3.807,0.877 -5.485,1.004 l 48.138,55.562 c -0.581,0.767 -1.181,1.52 -1.771,2.279 l -50.043,-57.77 c -2.879,-0.108 -4.713,-0.629 -4.713,-0.629 l -1.256,1.088 L 174,253.36 c -0.602,0.726 -1.211,1.473 -1.819,2.201 l -53.274,-61.48 -3.626,3.143 53.734,62.022 c -0.623,0.716 -1.244,1.428 -1.886,2.146 l -53.986,-62.332 -3.629,3.153 9.041,10.448 c -2.196,-0.711 -4.028,-0.932 -4.524,-0.984 l -0.503,-0.086 -6.499,-7.227 -3.631,3.135 7.661,8.536 2.32,0.411 h 0.121 c 0,0 0.068,0 0.271,0.037 0.696,0.078 2.635,0.389 4.543,1.174 1.921,0.77 3.665,1.998 4.433,3.572 0.48,0.94 0.908,2.674 0.889,4.479 0.021,1.683 -0.312,3.426 -1.033,4.929 -0.721,1.494 -1.793,2.723 -3.432,3.604 -3.988,2.103 -7.072,2.474 -9.692,2.474 -1.645,0.006 -3.081,-0.164 -4.551,-0.178 -0.271,0 -0.532,0.014 -0.798,0.029 l -0.792,0.043 -2.499,2.166 40.797,47.09 c -6.543,5.443 -13.59,10.742 -21.169,15.818 C 98.086,286.679 80.368,269.96 66.3,252.601 L 66.29,252.59 C 50.539,233.182 39.427,213.006 31.504,193.644 c -0.487,-1.203 -1.011,-2.414 -1.481,-3.608 -6.16,-15.8 -10.147,-30.96 -12.733,-44.604 -2.887,-15.267 -3.989,-28.565 -4.317,-38.69 V 54.303 C 60.818,41.999 111.838,38.304 160.705,42.695 v 7.849 c -5.98,-2.403 -13.966,-4.715 -20.536,-4.76 -28.779,-0.25 -51.14,23.975 -50.706,53.159 0.424,27.914 21.378,50.993 48.169,53.333 l 58.847,68.181 c -0.558,0.998 -1.128,1.981 -1.698,2.971 m 19.21,-41.801 c 0,0.006 0.26,0.01 0.258,0.015 V 50.966 c 4.655,1.032 9.032,2.136 13.66,3.324 v 52.454 l 0.05,-0.035 c -0.564,17.545 -3.465,44.767 -13.968,74.918"
       clip-path="url(#SVGID_14_)"
       id="path55" /></g><g
     transform="matrix(0.63325212,0,0,0.63325212,71.999991,0)"
     id="g72"><defs
       id="defs74"><rect
         width="240.882"
         height="315.83099"
         x="0"
         y="-0.001"
         id="SVGID_15_" /></defs><clipPath
       id="SVGID_16_"><use
         id="use78"
         style="overflow:visible"
         x="0"
         y="0"
         width="240.882"
         height="315.82999"
         xlink:href="#SVGID_15_" /></clipPath><path
       d="m 101.567,123.029 18.453,5.308 11.06,16.658 c 3.325,0.796 6.772,1.25 10.301,1.281 3.484,0.018 6.859,-0.377 10.103,-1.099 l 10.278,-16.203 18.679,-5.269 c 3.384,-5.86 5.513,-12.575 6.044,-19.789 l -12.063,-15.34 0.5,-19.904 c -0.721,-0.845 -1.467,-1.677 -2.242,-2.461 -4.133,-4.187 -8.998,-7.599 -14.385,-9.992 l -17.771,6.691 -18.392,-7.091 c -5.457,2.339 -10.339,5.749 -14.438,9.972 -0.699,0.729 -1.365,1.484 -2.034,2.261 l 1.158,19.485 -11.823,15.601 c 0.733,7.197 3.029,13.96 6.572,19.891 m 39.21,-43.606 19.859,14.75 -7.147,23.558 -24.296,-0.159 -7.822,-23.665 19.406,-14.484 z"
       clip-path="url(#SVGID_16_)"
       id="path65"
       style="fill:#ffffff" /></g><g
     transform="matrix(0.63325212,0,0,0.63325212,71.999991,0)"
     id="g81"><defs
       id="defs83"><rect
         width="240.882"
         height="315.83099"
         x="0"
         y="-0.001"
         id="SVGID_17_" /></defs><clipPath
       id="SVGID_18_"><use
         id="use87"
         style="overflow:visible"
         x="0"
         y="0"
         width="240.882"
         height="315.82999"
         xlink:href="#SVGID_17_" /></clipPath><polygon
       points="121.373,93.641 129.193,117.306 153.489,117.465 160.636,93.908 140.777,79.158 "
       clip-path="url(#SVGID_18_)"
       id="polygon67" /></g><g
     transform="matrix(0.63325212,0,0,0.63325212,71.999991,0)"
     id="g90"><defs
       id="defs92"><rect
         width="240.882"
         height="315.83099"
         x="0"
         y="-0.001"
         id="SVGID_19_" /></defs><clipPath
       id="SVGID_20_"><use
         id="use96"
         style="overflow:visible"
         x="0"
         y="0"
         width="240.882"
         height="315.82999"
         xlink:href="#SVGID_19_" /></clipPath><path
       d="m 109.567,241.521 35.75,41.254 c 0.702,-0.625 1.412,-1.264 2.113,-1.865 l -34.312,-39.656 c -1.284,0.194 -2.479,0.267 -3.551,0.267"
       clip-path="url(#SVGID_20_)"
       id="path69"
       style="fill:#ffffff" /></g><g
     transform="matrix(0.63325212,0,0,0.63325212,71.999991,0)"
     id="g99"><defs
       id="defs101"><rect
         width="240.882"
         height="315.83099"
         x="0"
         y="-0.001"
         id="SVGID_21_" /></defs><clipPath
       id="SVGID_22_"><use
         id="use105"
         style="overflow:visible"
         x="0"
         y="0"
         width="240.882"
         height="315.82999"
         xlink:href="#SVGID_21_" /></clipPath><path
       d="m 118.291,239.917 32.712,37.771 c 0.697,-0.637 1.394,-1.27 2.066,-1.907 l -32.078,-37.072 c -0.927,0.465 -1.82,0.868 -2.7,1.208"
       clip-path="url(#SVGID_22_)"
       id="path71"
       style="fill:#ffffff" /></g><g
     transform="matrix(0.63325212,0,0,0.63325212,71.999991,0)"
     id="g108"><defs
       id="defs110"><rect
         width="240.882"
         height="315.83099"
         x="0"
         y="-0.001"
         id="SVGID_23_" /></defs><clipPath
       id="SVGID_24_"><use
         id="use114"
         style="overflow:visible"
         x="0"
         y="0"
         width="240.882"
         height="315.82999"
         xlink:href="#SVGID_23_" /></clipPath><path
       d="m 124.847,235.828 31.691,36.616 c 0.682,-0.674 1.334,-1.33 2.004,-1.993 l -32.019,-36.964 c -0.474,0.826 -1.022,1.604 -1.676,2.341"
       clip-path="url(#SVGID_24_)"
       id="path73"
       style="fill:#ffffff" /></g><g
     transform="matrix(0.63325212,0,0,0.63325212,71.999991,0)"
     id="g117"><defs
       id="defs119"><rect
         width="240.882"
         height="315.83099"
         x="0"
         y="-0.001"
         id="SVGID_25_" /></defs><clipPath
       id="SVGID_26_"><use
         id="use123"
         style="overflow:visible"
         x="0"
         y="0"
         width="240.882"
         height="315.82999"
         xlink:href="#SVGID_25_" /></clipPath><path
       d="m 128.352,223.959 c 0.06,0.576 0.09,1.166 0.09,1.75 0,0.819 -0.06,1.634 -0.174,2.467 l 33.646,38.829 c 0.649,-0.673 1.315,-1.367 1.957,-2.061 l -35.519,-40.985 0,0 z"
       clip-path="url(#SVGID_26_)"
       id="path75"
       style="fill:#ffffff" /></g><g
     transform="matrix(0.63325212,0,0,0.63325212,71.999991,0)"
     id="g126"><defs
       id="defs128"><path
         d="m 19.744,26.683 c 0.049,-0.234 0.113,-0.362 0.309,-0.408 0.206,-0.042 0.247,0.058 0.292,0.277 0.45,1.963 0.9,3.921 1.354,5.886 -1.101,0.241 -2.202,0.494 -3.302,0.736 0.451,-2.16 0.898,-4.321 1.347,-6.491 m 0.309,-3.588 c -1.53,0.339 -3.164,1.054 -3.675,3.323 -1.097,4.891 -2.196,9.786 -3.294,14.681 0.006,0.049 -0.031,0.104 -0.023,0.123 -0.008,0.22 0.161,0.321 0.378,0.27 1.033,-0.246 2.063,-0.495 3.097,-0.729 0.222,-0.055 0.394,-0.278 0.444,-0.512 0.266,-1.284 0.527,-2.576 0.796,-3.861 1.515,-0.351 3.028,-0.691 4.545,-1.017 0.264,1.168 0.531,2.338 0.796,3.501 0.046,0.216 0.22,0.357 0.449,0.307 1.031,-0.222 2.068,-0.436 3.107,-0.654 0.222,-0.047 0.373,-0.214 0.373,-0.437 0.004,-0.018 -0.02,-0.06 -0.02,-0.109 -1.105,-4.409 -2.208,-8.807 -3.303,-13.202 -0.361,-1.44 -1.28,-1.858 -2.327,-1.858 -0.435,0 -0.894,0.073 -1.343,0.174"
         id="SVGID_27_" /></defs><clipPath
       id="SVGID_28_"><use
         id="use132"
         style="overflow:visible"
         x="0"
         y="0"
         width="240.882"
         height="315.82999"
         xlink:href="#SVGID_27_" /></clipPath><linearGradient
       x1="-175.11279"
       y1="-141.0596"
       x2="-174.11279"
       y2="-141.0596"
       id="polygon92_1_"
       gradientUnits="userSpaceOnUse"
       gradientTransform="matrix(119.8945,89.6408,-89.6408,119.8945,8375.8945,32645.898)"><stop
         id="stop135"
         style="stop-color:#a8996e;stop-opacity:1"
         offset="0" /><stop
         id="stop137"
         style="stop-color:#ffe5c7;stop-opacity:1"
         offset="0.44170001" /><stop
         id="stop139"
         style="stop-color:#a8996e;stop-opacity:1"
         offset="1" /></linearGradient><polygon
       points="4.122,34.866 18.072,16.209 35.98,29.598 22.031,48.256 "
       clip-path="url(#SVGID_28_)"
       id="polygon92"
       style="fill:url(#polygon92_1_)" /></g><g
     transform="matrix(0.63325212,0,0,0.63325212,71.999991,0)"
     id="g142"><defs
       id="defs144"><path
         d="m 38.682,19.645 c -0.784,0.03 -1.899,0.049 -4.308,0.505 -2.873,0.547 -5.429,1.79 -5.429,5.868 v 11.59 c 0,0.251 0.202,0.41 0.449,0.361 0.961,-0.192 1.926,-0.386 2.89,-0.578 0.244,-0.048 0.448,-0.284 0.448,-0.531 v -6.548 c 1.918,-0.371 3.843,-0.734 5.768,-1.082 0.238,-0.043 0.449,-0.283 0.443,-0.526 v -2.133 c 0,-0.25 -0.195,-0.416 -0.443,-0.368 -1.925,0.343 -3.85,0.711 -5.768,1.082 v -2.018 c 0,-1.171 0.377,-1.604 1.423,-1.802 1.51,-0.286 3.014,-0.565 4.526,-0.841 0.245,-0.04 0.446,-0.283 0.446,-0.523 v -2.088 c 0.003,-0.273 -0.123,-0.369 -0.396,-0.369 -0.016,0 -0.032,0 -0.049,0.001"
         id="SVGID_29_" /></defs><clipPath
       id="SVGID_30_"><use
         id="use148"
         style="overflow:visible"
         x="0"
         y="0"
         width="240.882"
         height="315.82999"
         xlink:href="#SVGID_29_" /></clipPath><linearGradient
       x1="-175.11279"
       y1="-141.0508"
       x2="-174.11279"
       y2="-141.0508"
       id="polygon109_1_"
       gradientUnits="userSpaceOnUse"
       gradientTransform="matrix(119.8777,89.6283,-89.6283,119.8777,8382.2617,32631.316)"><stop
         id="stop151"
         style="stop-color:#a8996e;stop-opacity:1"
         offset="0" /><stop
         id="stop153"
         style="stop-color:#ffe5c7;stop-opacity:1"
         offset="0.44170001" /><stop
         id="stop155"
         style="stop-color:#a8996e;stop-opacity:1"
         offset="1" /></linearGradient><polygon
       points="20.133,31.43 32.598,14.759 47.942,26.232 35.478,42.903 "
       clip-path="url(#SVGID_30_)"
       id="polygon109"
       style="fill:url(#polygon109_1_)" /></g><g
     transform="matrix(0.63325212,0,0,0.63325212,71.999991,0)"
     id="g158"><defs
       id="defs160"><path
         d="m 48.187,17.716 c -3.401,0.536 -6.617,2.871 -6.615,8.213 v 2.824 c -0.002,5.338 3.219,6.564 6.615,6.026 1.564,-0.252 2.863,-0.672 3.332,-0.901 0.318,-0.13 0.496,-0.269 0.496,-0.588 v -2.174 c 0,-0.263 -0.141,-0.433 -0.429,-0.392 -0.02,0.007 -0.049,0.014 -0.067,0.014 -0.854,0.199 -2.079,0.507 -3.313,0.698 -1.542,0.251 -2.775,-0.362 -2.775,-3.34 v -2.822 c 0,-2.988 1.233,-3.995 2.775,-4.243 1.233,-0.192 2.459,-0.276 3.313,-0.334 0.018,-0.006 0.052,-0.013 0.067,-0.018 0.292,-0.037 0.429,-0.235 0.429,-0.505 v -2.176 c -0.01,-0.319 -0.178,-0.376 -0.496,-0.416 -0.194,-0.038 -0.533,-0.064 -0.976,-0.064 -0.619,0 -1.441,0.053 -2.356,0.198"
         id="SVGID_31_" /></defs><clipPath
       id="SVGID_32_"><use
         id="use164"
         style="overflow:visible"
         x="0"
         y="0"
         width="240.882"
         height="315.82999"
         xlink:href="#SVGID_31_" /></clipPath><linearGradient
       x1="-175.1123"
       y1="-141.0439"
       x2="-174.10851"
       y2="-141.0439"
       id="polygon126_1_"
       gradientUnits="userSpaceOnUse"
       gradientTransform="matrix(119.8459,89.6041,-89.6041,119.8459,8386.3691,32614.035)"><stop
         id="stop167"
         style="stop-color:#a8996e;stop-opacity:1"
         offset="0" /><stop
         id="stop169"
         style="stop-color:#ffe5c7;stop-opacity:1"
         offset="0.44170001" /><stop
         id="stop171"
         style="stop-color:#a8996e;stop-opacity:1"
         offset="1" /></linearGradient><polygon
       points="33.034,28.935 45.316,12.507 60.555,23.9 48.272,40.328 "
       clip-path="url(#SVGID_32_)"
       id="polygon126"
       style="fill:url(#polygon126_1_)" /></g><g
     transform="matrix(0.63325212,0,0,0.63325212,71.999991,0)"
     id="g174"><defs
       id="defs176"><path
         d="m 64.102,25.176 c 0.837,-0.103 1.679,-0.203 2.517,-0.307 1.798,-0.206 2.381,0.65 2.381,1.727 v 0.245 c 0,1.26 -0.745,2.057 -3.06,2.329 -0.313,0.035 -1.482,0.151 -1.838,0.199 0,-1.4 0,-2.791 0,-4.193 m 0,-6.54 c 0.312,-0.066 1.344,-0.197 1.702,-0.239 2.315,-0.278 3.107,0.203 3.107,1.433 v 0.338 c 0,0.967 -0.523,1.83 -2.293,2.036 -0.838,0.1 -1.68,0.203 -2.517,0.307 0,-1.298 0,-2.589 0.001,-3.875 m 1.413,-3.339 c -1.436,0.167 -3.254,0.535 -4.019,0.747 -0.877,0.249 -1.188,0.605 -1.188,1.608 v 13.635 c 0,1.012 0.34,1.259 1.234,1.3 0.873,0.043 2.629,-0.064 4.106,-0.246 3.886,-0.461 7.086,-1.868 7.082,-5.813 v -0.336 c 0,-1.541 -0.809,-2.657 -2,-3.104 1.187,-0.718 1.882,-2.038 1.887,-3.504 V 19.18 c 0,-2.94 -1.953,-4.019 -5.023,-4.019 -0.646,0 -1.342,0.048 -2.079,0.136"
         id="SVGID_33_" /></defs><clipPath
       id="SVGID_34_"><use
         id="use180"
         style="overflow:visible"
         x="0"
         y="0"
         width="240.882"
         height="315.82999"
         xlink:href="#SVGID_33_" /></clipPath><linearGradient
       x1="-175.1123"
       y1="-141.0547"
       x2="-174.11591"
       y2="-141.0547"
       id="polygon143_1_"
       gradientUnits="userSpaceOnUse"
       gradientTransform="matrix(119.8908,89.6377,-89.6377,119.8908,8396.8398,32616.543)"><stop
         id="stop183"
         style="stop-color:#a8996e;stop-opacity:1"
         offset="0" /><stop
         id="stop185"
         style="stop-color:#ffe5c7;stop-opacity:1"
         offset="0.44170001" /><stop
         id="stop187"
         style="stop-color:#a8996e;stop-opacity:1"
         offset="1" /></linearGradient><polygon
       points="51.931,26.366 64.764,9.202 81.111,21.425 68.278,38.589 "
       clip-path="url(#SVGID_34_)"
       id="polygon143"
       style="fill:url(#polygon143_1_)" /></g><g
     transform="matrix(0.63325212,0,0,0.63325212,71.999991,0)"
     id="g190"><defs
       id="defs192"><path
         d="m 78.833,23.76 v -2.674 c 0,-2.689 0.878,-3.914 2.771,-4.079 1.897,-0.154 2.787,0.918 2.791,3.61 v 2.666 c 0,2.695 -0.9,3.908 -2.791,4.063 -0.123,0.011 -0.242,0.017 -0.357,0.017 C 79.6,27.361 78.833,26.274 78.833,23.76 m 2.77,-10.116 c -3.713,0.313 -6.662,2.613 -6.662,7.81 v 2.674 c 0,5.205 2.943,6.897 6.662,6.578 3.717,-0.312 6.666,-2.509 6.671,-7.708 v -2.673 c 0,-4.828 -2.543,-6.715 -5.878,-6.715 -0.259,0 -0.524,0.011 -0.793,0.034"
         id="SVGID_35_" /></defs><clipPath
       id="SVGID_36_"><use
         id="use196"
         style="overflow:visible"
         x="0"
         y="0"
         width="240.882"
         height="315.82999"
         xlink:href="#SVGID_35_" /></clipPath><linearGradient
       x1="-175.1123"
       y1="-141.0493"
       x2="-174.1123"
       y2="-141.0493"
       id="polygon160_1_"
       gradientUnits="userSpaceOnUse"
       gradientTransform="matrix(119.8571,89.613,-89.613,119.8571,8400.9551,32598.559)"><stop
         id="stop199"
         style="stop-color:#a8996e;stop-opacity:1"
         offset="0" /><stop
         id="stop201"
         style="stop-color:#ffe5c7;stop-opacity:1"
         offset="0.44170001" /><stop
         id="stop203"
         style="stop-color:#a8996e;stop-opacity:1"
         offset="1" /></linearGradient><polygon
       points="66.589,24.781 79.722,7.216 96.626,19.855 83.493,37.419 "
       clip-path="url(#SVGID_36_)"
       id="polygon160"
       style="fill:url(#polygon160_1_)" /></g><g
     transform="matrix(0.63325212,0,0,0.63325212,71.999991,0)"
     id="g206"><defs
       id="defs208"><path
         d="m 103.508,12.516 c -0.979,0.037 -1.957,0.073 -2.938,0.119 -0.247,0.006 -0.452,0.2 -0.45,0.44 v 9.983 c 0,2.289 -0.627,3.275 -2.662,3.373 -2.026,0.103 -2.636,-0.815 -2.636,-3.111 v -9.974 c 0,-0.246 -0.202,-0.414 -0.455,-0.404 -0.984,0.056 -1.969,0.115 -2.956,0.182 -0.248,0.012 -0.45,0.21 -0.45,0.447 v 9.983 c -0.001,5.119 2.912,6.266 6.497,6.086 3.585,-0.176 6.527,-1.623 6.524,-6.733 v -9.981 c 0,-0.245 -0.224,-0.41 -0.463,-0.41 0,0 -0.01,0 -0.011,0"
         id="SVGID_37_" /></defs><clipPath
       id="SVGID_38_"><use
         id="use212"
         style="overflow:visible"
         x="0"
         y="0"
         width="240.882"
         height="315.82999"
         xlink:href="#SVGID_37_" /></clipPath><linearGradient
       x1="-175.1104"
       y1="-141.0444"
       x2="-174.11391"
       y2="-141.0444"
       id="polygon177_1_"
       gradientUnits="userSpaceOnUse"
       gradientTransform="matrix(119.815,89.581,-89.581,119.815,8404.7734,32577.973)"><stop
         id="stop215"
         style="stop-color:#a8996e;stop-opacity:1"
         offset="0" /><stop
         id="stop217"
         style="stop-color:#ffe5c7;stop-opacity:1"
         offset="0.44170001" /><stop
         id="stop219"
         style="stop-color:#a8996e;stop-opacity:1"
         offset="1" /></linearGradient><polygon
       points="82.661,23.615 95.63,6.27 112.283,18.721 99.314,36.066 "
       clip-path="url(#SVGID_38_)"
       id="polygon177"
       style="fill:url(#polygon177_1_)" /></g><g
     transform="matrix(0.63325212,0,0,0.63325212,71.999991,0)"
     id="g222"><defs
       id="defs224"><path
         d="m 110.894,19.73 v -4.305 c 0.269,-0.036 1.443,-0.097 1.761,-0.11 1.896,-0.031 2.954,0.596 2.954,1.959 v 0.297 c 0,1.515 -0.742,2.129 -3.118,2.172 -0.086,0.002 -0.276,0.003 -0.497,0.003 -0.415,0 -0.94,-0.004 -1.1,-0.016 m 1.761,-7.667 c -1.626,0.026 -3.546,0.213 -4.584,0.399 -0.691,0.127 -1.019,0.337 -1.017,1.104 v 15.048 c 0,0.245 0.209,0.437 0.451,0.43 0.978,-0.025 1.958,-0.048 2.933,-0.072 0.25,-0.008 0.451,-0.207 0.456,-0.457 v -5.69 c 0.229,-0.007 0.536,-10e-4 0.846,0.004 0.265,0.006 0.532,0.01 0.751,0.006 0.084,-0.01 0.17,-0.017 0.251,-0.024 1.01,1.867 2.019,3.748 3.032,5.629 0.111,0.228 0.192,0.443 0.442,0.443 1.154,-0.012 2.308,-0.012 3.465,-0.018 0.247,0 0.338,-0.112 0.338,-0.269 0,-0.068 -0.027,-0.156 -0.068,-0.247 -1.143,-2.11 -2.278,-4.208 -3.413,-6.309 1.649,-0.665 2.918,-2.124 2.913,-4.501 v -0.288 c 0,-3.883 -2.829,-5.189 -6.555,-5.189 -0.08,0 -0.16,0.001 -0.241,0.001"
         id="SVGID_39_" /></defs><clipPath
       id="SVGID_40_"><use
         id="use228"
         style="overflow:visible"
         x="0"
         y="0"
         width="240.882"
         height="315.82999"
         xlink:href="#SVGID_39_" /></clipPath><linearGradient
       x1="-175.1118"
       y1="-141.05811"
       x2="-174.1118"
       y2="-141.05811"
       id="polygon194_1_"
       gradientUnits="userSpaceOnUse"
       gradientTransform="matrix(119.8262,89.5893,-89.5893,119.8262,8410.3594,32574.566)"><stop
         id="stop231"
         style="stop-color:#a8996e;stop-opacity:1"
         offset="0" /><stop
         id="stop233"
         style="stop-color:#ffe5c7;stop-opacity:1"
         offset="0.44170001" /><stop
         id="stop235"
         style="stop-color:#a8996e;stop-opacity:1"
         offset="1" /></linearGradient><polygon
       points="98.905,22.96 111.702,5.844 128.166,18.154 115.37,35.269 "
       clip-path="url(#SVGID_40_)"
       id="polygon194"
       style="fill:url(#polygon194_1_)" /></g><g
     transform="matrix(0.63325212,0,0,0.63325212,71.999991,0)"
     id="g238"><defs
       id="defs240"><path
         d="m 123.242,12.209 c -0.463,0 -0.843,0.384 -0.843,0.848 v 15.358 c 0,0.253 0.202,0.456 0.452,0.456 0.887,0.006 1.775,0.012 2.664,0.019 0.246,0.002 0.457,-0.192 0.453,-0.439 V 19.37 c 0,-0.141 0.043,-0.184 0.109,-0.184 0.065,0 0.117,0.043 0.201,0.184 1.721,2.963 3.436,5.945 5.149,8.93 0.362,0.611 0.704,0.714 1.174,0.727 0.733,0.017 1.476,0.036 2.21,0.06 0.475,0.019 0.879,-0.346 0.884,-0.824 0,-5.126 0,-10.259 0,-15.379 0,-0.249 -0.206,-0.441 -0.45,-0.446 -0.889,-0.025 -1.777,-0.055 -2.666,-0.073 -0.244,-0.013 -0.451,0.164 -0.451,0.41 v 9.484 c 0.011,0.161 -0.068,0.198 -0.114,0.198 -0.063,0 -0.095,-0.043 -0.175,-0.183 -1.788,-3.121 -3.572,-6.23 -5.354,-9.335 -0.271,-0.477 -0.493,-0.705 -0.948,-0.705 -0.762,-0.012 -1.523,-0.019 -2.283,-0.025 -0.001,0 -0.01,0 -0.012,0"
         id="SVGID_41_" /></defs><clipPath
       id="SVGID_42_"><use
         id="use244"
         style="overflow:visible"
         x="0"
         y="0"
         width="240.882"
         height="315.82999"
         xlink:href="#SVGID_41_" /></clipPath><linearGradient
       x1="-175.1143"
       y1="-141.05029"
       x2="-174.1107"
       y2="-141.05029"
       id="polygon211_1_"
       gradientUnits="userSpaceOnUse"
       gradientTransform="matrix(119.8824,89.6313,-89.6313,119.8824,8420.5898,32581.644)"><stop
         id="stop247"
         style="stop-color:#a8996e;stop-opacity:1"
         offset="0" /><stop
         id="stop249"
         style="stop-color:#ffe5c7;stop-opacity:1"
         offset="0.44170001" /><stop
         id="stop251"
         style="stop-color:#a8996e;stop-opacity:1"
         offset="1" /></linearGradient><polygon
       points="114.296,23.047 127.167,5.832 143.8,18.268 130.929,35.483 "
       clip-path="url(#SVGID_42_)"
       id="polygon211"
       style="fill:url(#polygon211_1_)" /></g><g
     transform="matrix(0.63325212,0,0,0.63325212,71.999991,0)"
     id="g254"><defs
       id="defs256"><path
         d="m 138.769,17.166 v 7.442 c 0,4.084 2.568,4.923 5.486,5.075 2.436,0.118 3.586,0.018 4.377,-0.05 0.315,-0.023 0.441,-0.146 0.441,-0.446 v -2.082 c 0,-0.245 -0.195,-0.464 -0.441,-0.477 -1.529,-0.087 -3.053,-0.179 -4.58,-0.258 -1.067,-0.049 -1.449,-0.422 -1.44,-1.599 v -2.369 c 1.944,0.091 3.894,0.198 5.839,0.313 0.246,0.018 0.449,-0.168 0.449,-0.417 v -2.13 c 0,-0.246 -0.203,-0.462 -0.449,-0.48 -1.945,-0.122 -3.895,-0.222 -5.839,-0.313 v -2.042 c 0,-1.163 0.38,-1.508 1.44,-1.453 1.527,0.079 3.051,0.164 4.58,0.259 0.242,0.012 0.449,-0.173 0.441,-0.419 v -2.094 c 0,-0.286 -0.126,-0.405 -0.441,-0.472 -0.785,-0.164 -1.922,-0.41 -4.354,-0.534 -0.259,-0.014 -0.513,-0.021 -0.765,-0.021 -2.586,0 -4.744,0.844 -4.744,4.567"
         id="SVGID_43_" /></defs><clipPath
       id="SVGID_44_"><use
         id="use260"
         style="overflow:visible"
         x="0"
         y="0"
         width="240.882"
         height="315.82999"
         xlink:href="#SVGID_43_" /></clipPath><linearGradient
       x1="-175.1123"
       y1="-141.0459"
       x2="-174.1123"
       y2="-141.0459"
       id="polygon228_1_"
       gradientUnits="userSpaceOnUse"
       gradientTransform="matrix(119.8477,89.6057,-89.6057,119.8477,8423.5742,32564.992)"><stop
         id="stop263"
         style="stop-color:#a8996e;stop-opacity:1"
         offset="0" /><stop
         id="stop265"
         style="stop-color:#ffe5c7;stop-opacity:1"
         offset="0.44170001" /><stop
         id="stop267"
         style="stop-color:#a8996e;stop-opacity:1"
         offset="1" /></linearGradient><polygon
       points="130.52,23.633 142.468,7.653 157.333,18.767 145.384,34.747 "
       clip-path="url(#SVGID_44_)"
       id="polygon228"
       style="fill:url(#polygon228_1_)" /></g><g
     transform="matrix(0.63325212,0,0,0.63325212,71.999991,0)"
     id="g270"><defs
       id="defs272"><path
         d="m 151.91,14.042 v 15.586 c -0.01,0.24 0.209,0.325 0.385,0.336 0.992,0.069 1.979,0.143 2.974,0.217 0.201,0.019 0.36,-0.173 0.36,-0.428 v -9.345 c 0,-0.155 0.068,-0.173 0.11,-0.173 0.065,0.007 0.12,0.061 0.183,0.173 0.676,1.285 1.351,2.578 2.025,3.862 0.161,0.276 0.383,0.408 0.678,0.438 0.599,0.048 1.2,0.094 1.801,0.149 0.296,0.03 0.521,-0.068 0.682,-0.316 0.67,-1.18 1.344,-2.349 2.02,-3.519 0.069,-0.104 0.117,-0.146 0.18,-0.146 0.051,0.007 0.117,0.042 0.117,0.191 v 9.351 c 0,0.256 0.156,0.465 0.357,0.49 0.993,0.088 1.979,0.184 2.967,0.288 0.183,0.018 0.392,-0.024 0.385,-0.277 V 15.357 c 0.01,-0.47 -0.338,-0.817 -0.805,-0.863 -0.707,-0.073 -1.416,-0.146 -2.119,-0.212 -0.479,-0.042 -0.784,0.152 -0.992,0.52 -1.146,2.021 -2.297,4.047 -3.447,6.074 -0.086,0.174 -0.152,0.283 -0.24,0.271 -0.088,0 -0.158,-0.125 -0.246,-0.308 -1.154,-2.227 -2.297,-4.451 -3.447,-6.669 -0.205,-0.405 -0.521,-0.645 -0.996,-0.681 -0.703,-0.052 -1.41,-0.107 -2.116,-0.155 -0.026,-0.002 -0.055,-0.003 -0.083,-0.003 -0.434,0 -0.737,0.269 -0.733,0.711"
         id="SVGID_45_" /></defs><clipPath
       id="SVGID_46_"><use
         id="use276"
         style="overflow:visible"
         x="0"
         y="0"
         width="240.882"
         height="315.82999"
         xlink:href="#SVGID_45_" /></clipPath><linearGradient
       x1="-175.1152"
       y1="-141.0508"
       x2="-174.112"
       y2="-141.0508"
       id="polygon245_1_"
       gradientUnits="userSpaceOnUse"
       gradientTransform="matrix(119.8974,89.6426,-89.6426,119.8974,8431.7539,32572.219)"><stop
         id="stop279"
         style="stop-color:#a8996e;stop-opacity:1"
         offset="0" /><stop
         id="stop281"
         style="stop-color:#ffe5c7;stop-opacity:1"
         offset="0.44170001" /><stop
         id="stop283"
         style="stop-color:#a8996e;stop-opacity:1"
         offset="1" /></linearGradient><polygon
       points="143.328,24.802 157.367,6.025 175.714,19.743 161.675,38.52 "
       clip-path="url(#SVGID_46_)"
       id="polygon245"
       style="fill:url(#polygon245_1_)" /></g><g
     transform="matrix(0.63325212,0,0,0.63325212,71.999991,0)"
     id="g286"><defs
       id="defs288"><path
         d="m 176.533,29.127 c -1.889,-0.235 -2.768,-1.477 -2.768,-4.161 v -2.673 c 0.01,-2.69 0.881,-3.736 2.768,-3.498 1.885,0.227 2.782,1.489 2.782,4.178 v 2.674 c 0,2.445 -0.746,3.511 -2.296,3.511 -0.152,0 -0.316,-0.011 -0.486,-0.031 m -6.653,-7.27 v 2.671 c 0,5.203 2.949,7.506 6.651,7.965 3.701,0.457 6.644,-1.13 6.644,-6.333 v -2.67 c 0,-5.202 -2.938,-7.61 -6.644,-8.062 -0.383,-0.047 -0.757,-0.072 -1.12,-0.072 -3.163,0 -5.531,1.837 -5.531,6.501"
         id="SVGID_47_" /></defs><clipPath
       id="SVGID_48_"><use
         id="use292"
         style="overflow:visible"
         x="0"
         y="0"
         width="240.882"
         height="315.82999"
         xlink:href="#SVGID_47_" /></clipPath><linearGradient
       x1="-175.11279"
       y1="-141.0493"
       x2="-174.11279"
       y2="-141.0493"
       id="polygon262_1_"
       gradientUnits="userSpaceOnUse"
       gradientTransform="matrix(119.8693,89.6217,-89.6217,119.8693,8435.0898,32557.512)"><stop
         id="stop295"
         style="stop-color:#a8996e;stop-opacity:1"
         offset="0" /><stop
         id="stop297"
         style="stop-color:#ffe5c7;stop-opacity:1"
         offset="0.44170001" /><stop
         id="stop299"
         style="stop-color:#a8996e;stop-opacity:1"
         offset="1" /></linearGradient><polygon
       points="161.439,26.642 174.645,8.978 191.613,21.665 178.408,39.328 "
       clip-path="url(#SVGID_48_)"
       id="polygon262"
       style="fill:url(#polygon262_1_)" /></g><g
     transform="matrix(0.63325212,0,0,0.63325212,71.999991,0)"
     id="g302"><defs
       id="defs304"><path
         d="m 185.846,17.293 v 9.98 c 0.01,5.118 2.899,6.865 6.45,7.429 3.554,0.566 6.462,-0.275 6.462,-5.387 v -9.982 c 0,-0.247 -0.228,-0.463 -0.472,-0.502 -0.965,-0.17 -1.934,-0.331 -2.899,-0.489 -0.249,-0.049 -0.449,0.103 -0.449,0.35 v 9.981 c 0,2.289 -0.623,3.145 -2.641,2.823 -2.011,-0.318 -2.615,-1.369 -2.615,-3.658 v -9.976 c 0,-0.247 -0.201,-0.455 -0.448,-0.498 -0.976,-0.143 -1.959,-0.289 -2.938,-0.432 -0.023,-0.004 -0.049,-0.006 -0.071,-0.006 -0.214,0 -0.379,0.148 -0.379,0.367"
         id="SVGID_49_" /></defs><clipPath
       id="SVGID_50_"><use
         id="use308"
         style="overflow:visible"
         x="0"
         y="0"
         width="240.882"
         height="315.82999"
         xlink:href="#SVGID_49_" /></clipPath><linearGradient
       x1="-175.1152"
       y1="-141.0459"
       x2="-174.1118"
       y2="-141.0459"
       id="polygon279_1_"
       gradientUnits="userSpaceOnUse"
       gradientTransform="matrix(119.8562,89.6117,-89.6117,119.8562,8439.248,32547.109)"><stop
         id="stop311"
         style="stop-color:#a8996e;stop-opacity:1"
         offset="0" /><stop
         id="stop313"
         style="stop-color:#ffe5c7;stop-opacity:1"
         offset="0.44170001" /><stop
         id="stop315"
         style="stop-color:#a8996e;stop-opacity:1"
         offset="1" /></linearGradient><polygon
       points="177.05,28.691 190.476,10.734 207.555,23.503 194.128,41.46 "
       clip-path="url(#SVGID_50_)"
       id="polygon279"
       style="fill:url(#polygon279_1_)" /></g><g
     transform="matrix(0.63325212,0,0,0.63325212,71.999991,0)"
     id="g318"><defs
       id="defs320"><path
         d="m 200.791,19.688 v 2.31 c 0.01,0.249 0.198,0.465 0.455,0.507 1.207,0.222 2.418,0.438 3.631,0.669 v 13.042 c 0,0.252 0.201,0.486 0.447,0.534 0.975,0.187 1.945,0.375 2.914,0.559 0.248,0.046 0.45,-0.111 0.445,-0.367 V 23.897 c 1.199,0.236 2.406,0.477 3.607,0.717 0.242,0.055 0.471,-0.078 0.465,-0.33 v -2.317 c 0,-0.238 -0.22,-0.465 -0.465,-0.513 -3.673,-0.752 -7.357,-1.447 -11.047,-2.109 -0.033,-0.006 -0.064,-0.009 -0.094,-0.009 -0.201,0 -0.351,0.138 -0.358,0.352"
         id="SVGID_51_" /></defs><clipPath
       id="SVGID_52_"><use
         id="use324"
         style="overflow:visible"
         x="0"
         y="0"
         width="240.882"
         height="315.82999"
         xlink:href="#SVGID_51_" /></clipPath><linearGradient
       x1="-175.10941"
       y1="-141.0464"
       x2="-174.11301"
       y2="-141.0464"
       id="polygon296_1_"
       gradientUnits="userSpaceOnUse"
       gradientTransform="matrix(119.8824,89.6318,-89.6318,119.8824,8444.9512,32548.902)"><stop
         id="stop327"
         style="stop-color:#a8996e;stop-opacity:1"
         offset="0" /><stop
         id="stop329"
         style="stop-color:#ffe5c7;stop-opacity:1"
         offset="0.44170001" /><stop
         id="stop331"
         style="stop-color:#a8996e;stop-opacity:1"
         offset="1" /></linearGradient><polygon
       points="192.149,30.894 205.083,13.595 221.403,25.797 208.47,43.096 "
       clip-path="url(#SVGID_52_)"
       id="polygon296"
       style="fill:url(#polygon296_1_)" /></g><g
     transform="matrix(0.63325212,0,0,0.63325212,71.999991,0)"
     id="g334"><defs
       id="defs336"><path
         d="m 214.858,22.407 v 15.791 c 0,0.248 0.194,0.488 0.44,0.541 0.974,0.202 1.943,0.413 2.908,0.624 0.24,0.046 0.445,-0.109 0.445,-0.355 v -6.479 c 1.829,0.396 3.648,0.803 5.475,1.225 v 6.479 c 0,0.252 0.203,0.498 0.441,0.559 0.967,0.222 1.934,0.453 2.9,0.681 0.238,0.058 0.438,-0.097 0.438,-0.343 V 25.34 c 0,-0.243 -0.2,-0.471 -0.438,-0.532 -0.967,-0.225 -1.935,-0.452 -2.9,-0.675 -0.246,-0.059 -0.445,0.077 -0.441,0.318 v 5.961 c -1.826,-0.416 -3.646,-0.827 -5.475,-1.225 v -5.968 c 0,-0.246 -0.195,-0.468 -0.445,-0.522 -0.965,-0.21 -1.936,-0.423 -2.908,-0.621 -0.037,-0.008 -0.07,-0.012 -0.104,-0.012 -0.194,0 -0.336,0.133 -0.336,0.343"
         id="SVGID_53_" /></defs><clipPath
       id="SVGID_54_"><use
         id="use340"
         style="overflow:visible"
         x="0"
         y="0"
         width="240.882"
         height="315.82999"
         xlink:href="#SVGID_53_" /></clipPath><linearGradient
       x1="-175.1089"
       y1="-141.0508"
       x2="-174.1122"
       y2="-141.0508"
       id="polygon313_1_"
       gradientUnits="userSpaceOnUse"
       gradientTransform="matrix(119.8477,89.6054,-89.6054,119.8477,8445.8867,32535.09)"><stop
         id="stop343"
         style="stop-color:#a8996e;stop-opacity:1"
         offset="0" /><stop
         id="stop345"
         style="stop-color:#ffe5c7;stop-opacity:1"
         offset="0.44170001" /><stop
         id="stop347"
         style="stop-color:#a8996e;stop-opacity:1"
         offset="1" /></linearGradient><polygon
       points="205.521,34.551 219.537,15.805 237.246,29.044 223.229,47.79 "
       clip-path="url(#SVGID_54_)"
       id="polygon313"
       style="fill:url(#polygon313_1_)" /></g></svg>