<?xml version="1.0" encoding="UTF-8" standalone="no"?>
<svg
   xmlns:dc="http://purl.org/dc/elements/1.1/"
   xmlns:cc="http://creativecommons.org/ns#"
   xmlns:rdf="http://www.w3.org/1999/02/22-rdf-syntax-ns#"
   xmlns:svg="http://www.w3.org/2000/svg"
   xmlns="http://www.w3.org/2000/svg"
   xmlns:xlink="http://www.w3.org/1999/xlink"
   xml:space="preserve"
   enable-background="new 0 0 56.75 57.083"
   viewBox="0 0 280.00001 200"
   height="200"
   width="280"
   y="0px"
   x="0px"
   id="Layer_1"
   version="1.1"><metadata
     id="metadata23"><rdf:RDF><cc:Work
         rdf:about=""><dc:format>image/svg+xml</dc:format><dc:type
           rdf:resource="http://purl.org/dc/dcmitype/StillImage" /><dc:title></dc:title></cc:Work></rdf:RDF></metadata><defs
     id="defs21" /><g
     transform="matrix(3.7793609,0,0,3.7793609,34.240972,-8.314594)"
     id="g3"><g
       id="g5"><defs
         id="defs7"><rect
           height="66.613998"
           width="70.864998"
           y="-6.2940001"
           x="0.72500002"
           id="SVGID_1_" /></defs><clipPath
         id="SVGID_2_"><use
           height="100%"
           width="100%"
           y="0"
           x="0"
           style="overflow:visible"
           id="use11"
           overflow="visible"
           xlink:href="#SVGID_1_" /></clipPath><path
         style="fill:#ffffff"
         id="path13"
         d="m 54.971,28.66 c 0,14.612 -11.848,26.459 -26.459,26.459 C 13.899,55.119 2.053,43.272 2.053,28.66 2.053,14.047 13.899,2.2 28.512,2.2 c 14.611,0 26.459,11.847 26.459,26.46"
         clip-path="url(#SVGID_2_)" /><path
         style="fill:#005daa"
         id="path15"
         d="m 23.503,48.367 -0.656,-0.159 -0.77,3.222 0.018,0.005 2.085,0.498 0.141,-0.591 -1.445,-0.344 0.627,-2.631 z m 12.416,-0.758 0.663,1.847 -1.858,-1.421 -0.563,0.203 1.112,3.117 0.638,-0.228 -0.662,-1.853 1.856,1.427 0.011,-0.005 0.555,-0.199 -1.114,-3.116 -0.638,0.228 z m -17.714,2.379 0.652,0.267 0.403,-0.463 1.052,0.432 -0.04,0.609 0.013,0.006 0.642,0.263 0.134,-3.525 -0.484,-0.197 -2.372,2.608 z m 2.158,-0.363 -0.708,-0.29 0.783,-0.886 -0.075,1.176 z m 13.028,-0.331 c -0.07,-0.177 -0.189,-0.326 -0.363,-0.442 -0.139,-0.1 -0.288,-0.165 -0.442,-0.2 -0.081,-0.019 -0.162,-0.027 -0.25,-0.027 -0.082,0 -0.166,0.008 -0.254,0.024 -0.181,0.031 -0.337,0.09 -0.473,0.176 -0.134,0.086 -0.253,0.198 -0.349,0.338 -0.117,0.167 -0.177,0.347 -0.181,0.54 l 0,0.035 c 0,0.187 0.028,0.449 0.089,0.782 0.061,0.355 0.127,0.619 0.196,0.796 0.068,0.177 0.188,0.327 0.354,0.446 0.139,0.098 0.29,0.164 0.446,0.2 0.08,0.016 0.163,0.025 0.249,0.025 0.082,0 0.168,-0.008 0.254,-0.023 0.182,-0.033 0.338,-0.091 0.473,-0.176 0.132,-0.085 0.25,-0.2 0.346,-0.338 0.121,-0.173 0.186,-0.357 0.189,-0.546 -10e-4,-0.009 0,-0.016 0,-0.027 0,-0.184 -0.033,-0.447 -0.091,-0.785 -0.063,-0.357 -0.127,-0.622 -0.193,-0.798 m -0.392,1.55 c 0,0.063 -0.006,0.115 -0.02,0.16 -0.011,0.044 -0.028,0.087 -0.055,0.126 -0.077,0.129 -0.197,0.206 -0.361,0.237 -0.039,0.005 -0.075,0.009 -0.111,0.009 -0.042,0 -0.082,-0.004 -0.122,-0.013 -0.074,-0.017 -0.138,-0.047 -0.189,-0.092 -0.04,-0.029 -0.07,-0.062 -0.094,-0.098 -0.026,-0.035 -0.05,-0.086 -0.073,-0.147 C 31.952,50.963 31.928,50.885 31.907,50.79 31.886,50.695 31.86,50.566 31.833,50.403 31.805,50.239 31.782,50.109 31.769,50.01 31.757,49.916 31.752,49.841 31.752,49.779 l 0,-0.013 c 0.002,-0.064 0.008,-0.12 0.019,-0.164 0.012,-0.042 0.029,-0.084 0.053,-0.118 0.035,-0.063 0.084,-0.113 0.147,-0.155 0.063,-0.042 0.134,-0.068 0.217,-0.085 0.04,-0.005 0.077,-0.01 0.114,-0.01 0.115,0.002 0.217,0.037 0.305,0.108 0.039,0.029 0.072,0.064 0.1,0.102 0.025,0.037 0.049,0.084 0.07,0.142 0.025,0.059 0.048,0.137 0.07,0.236 0.021,0.098 0.046,0.228 0.074,0.387 0.028,0.158 0.049,0.287 0.062,0.39 0.013,0.092 0.018,0.169 0.018,0.23 l 0,0.015 z m -3.826,-1.864 0.158,3.307 0.019,-10e-4 0.656,-0.033 -0.159,-3.305 -0.674,0.032 z m -2.105,-0.041 -1.327,-0.108 -0.264,3.302 1.386,0.109 c 0.042,0.004 0.082,0.005 0.121,0.005 l 0.002,0 c 0.248,0 0.462,-0.066 0.634,-0.199 0.201,-0.153 0.313,-0.383 0.336,-0.682 0.003,-0.035 0.004,-0.064 0.004,-0.095 0,-0.156 -0.033,-0.288 -0.103,-0.399 -0.072,-0.115 -0.164,-0.207 -0.271,-0.275 0.097,-0.044 0.186,-0.117 0.271,-0.219 0.098,-0.115 0.152,-0.256 0.164,-0.424 0.002,-0.035 0.003,-0.068 0.003,-0.102 0,-0.238 -0.071,-0.441 -0.219,-0.603 -0.168,-0.182 -0.414,-0.286 -0.737,-0.31 m 0.218,2.342 c -0.01,0.113 -0.052,0.2 -0.127,0.268 -0.065,0.056 -0.15,0.086 -0.262,0.086 -0.016,0 -0.032,0 -0.051,-10e-4 l -0.648,-0.053 0.062,-0.765 0.648,0.051 c 0.135,0.01 0.231,0.054 0.295,0.13 0.057,0.068 0.085,0.148 0.085,0.245 0,0.011 -0.001,0.026 -0.002,0.039 m 0.061,-1.353 c -0.008,0.108 -0.049,0.191 -0.124,0.252 -0.065,0.05 -0.147,0.077 -0.254,0.077 -0.018,0 -0.035,-10e-4 -0.053,-0.002 l -0.606,-0.049 0.056,-0.716 0.607,0.047 c 0.13,0.012 0.226,0.052 0.291,0.122 0.057,0.063 0.085,0.137 0.085,0.231 0,0.012 0,0.025 -0.002,0.038 M 28.512,2.536 c -14.428,0 -26.124,11.696 -26.124,26.123 0,14.427 11.696,26.125 26.124,26.125 14.427,0 26.123,-11.698 26.123,-26.125 0,-14.428 -11.697,-26.123 -26.123,-26.123 m 0,51.242 c -13.874,0 -25.119,-11.246 -25.119,-25.12 0,-13.872 11.245,-25.119 25.119,-25.119 13.874,0 25.119,11.247 25.119,25.119 0,13.874 -11.245,25.12 -25.119,25.12 M 34.127,9.179 c 0.143,0.049 0.271,0.074 0.383,0.077 0.035,10e-4 0.066,0 0.099,-0.003 0.131,-0.014 0.264,-0.047 0.399,-0.094 L 35.013,9.156 35.145,9.482 35.909,9.737 35.556,8.89 C 35.694,8.807 35.812,8.698 35.915,8.565 36.018,8.426 36.107,8.256 36.186,8.053 L 36.193,8.036 35.629,7.85 35.622,7.866 c -0.079,0.215 -0.184,0.368 -0.308,0.46 L 35.01,7.589 C 35.047,7.579 35.091,7.566 35.138,7.55 35.192,7.533 35.234,7.519 35.265,7.509 35.392,7.468 35.497,7.413 35.581,7.345 35.667,7.278 35.727,7.186 35.766,7.072 35.792,6.991 35.807,6.909 35.808,6.832 35.81,6.707 35.783,6.587 35.718,6.472 35.617,6.285 35.442,6.153 35.2,6.073 35.079,6.034 34.966,6.012 34.857,6.011 34.738,6.007 34.624,6.027 34.519,6.073 c -0.192,0.084 -0.328,0.235 -0.397,0.45 -0.025,0.075 -0.037,0.15 -0.04,0.223 -10e-4,0.053 0.003,0.105 0.015,0.157 0.023,0.113 0.063,0.233 0.115,0.358 -0.193,0.052 -0.361,0.127 -0.504,0.221 -0.148,0.099 -0.251,0.24 -0.313,0.419 -0.039,0.123 -0.061,0.238 -0.063,0.347 -0.003,0.157 0.03,0.3 0.102,0.433 0.122,0.222 0.354,0.389 0.693,0.498 m 0.594,-2.445 c 0.022,-0.07 0.061,-0.119 0.118,-0.147 0.029,-0.017 0.063,-0.024 0.102,-0.023 0.029,0 0.061,0.006 0.094,0.017 0.074,0.025 0.124,0.064 0.152,0.123 0.018,0.035 0.026,0.071 0.025,0.108 0,0.025 -0.005,0.052 -0.014,0.078 -0.016,0.046 -0.043,0.081 -0.087,0.112 -0.043,0.031 -0.098,0.056 -0.162,0.073 -0.02,0.009 -0.043,0.016 -0.076,0.024 C 34.849,7.107 34.828,7.111 34.808,7.115 34.765,7.016 34.737,6.94 34.721,6.885 34.712,6.853 34.709,6.824 34.709,6.798 34.71,6.775 34.714,6.753 34.721,6.734 M 33.979,8.083 C 34.011,7.987 34.062,7.913 34.132,7.864 34.2,7.815 34.296,7.772 34.418,7.736 L 34.786,8.62 C 34.7,8.656 34.621,8.673 34.546,8.678 l -0.046,0 C 34.436,8.676 34.368,8.664 34.297,8.641 34.168,8.599 34.073,8.526 34.013,8.421 33.974,8.354 33.955,8.285 33.958,8.211 33.959,8.17 33.966,8.127 33.979,8.083 m -5.457,-1.642 1.259,1.922 0.593,0 0,-3.234 -0.669,0 0,1.916 -1.259,-1.916 -0.593,0 0,3.234 0.669,0 0,-1.922 z m 16.39,10.195 1.186,1.803 0.496,-0.325 -0.828,-1.259 0.619,-0.407 0.704,1.072 0.495,-0.325 -0.704,-1.072 0.597,-0.392 0.827,1.258 0.495,-0.326 -1.194,-1.818 -2.702,1.775 0.009,0.016 z m -3.546,-4.782 c -0.078,0.139 -0.117,0.295 -0.117,0.463 0,0.026 10e-4,0.055 0.005,0.085 0.013,0.167 0.056,0.322 0.13,0.462 0.072,0.14 0.179,0.27 0.317,0.386 0.139,0.12 0.279,0.203 0.431,0.253 0.118,0.038 0.244,0.059 0.376,0.059 0.034,0 0.065,-10e-4 0.099,-0.004 0.207,-0.014 0.385,-0.079 0.529,-0.193 0.144,-0.116 0.329,-0.305 0.557,-0.572 0.231,-0.269 0.391,-0.485 0.481,-0.643 0.073,-0.134 0.112,-0.282 0.112,-0.444 0,-0.034 -0.003,-0.07 -0.007,-0.106 -0.014,-0.167 -0.058,-0.322 -0.13,-0.461 -0.07,-0.141 -0.177,-0.27 -0.313,-0.387 -0.14,-0.118 -0.282,-0.202 -0.432,-0.252 -0.122,-0.042 -0.249,-0.061 -0.384,-0.061 -0.032,0 -0.062,10e-4 -0.095,0.005 -0.199,0.012 -0.373,0.079 -0.521,0.194 -0.146,0.115 -0.333,0.307 -0.562,0.574 -0.227,0.267 -0.386,0.481 -0.476,0.642 m 0.525,0.543 c 0,-0.039 0.004,-0.077 0.015,-0.111 0.012,-0.041 0.032,-0.089 0.065,-0.147 0.031,-0.054 0.077,-0.12 0.135,-0.195 0.061,-0.077 0.142,-0.175 0.246,-0.298 0.105,-0.122 0.191,-0.221 0.256,-0.29 0.067,-0.071 0.124,-0.125 0.176,-0.164 0.048,-0.04 0.092,-0.069 0.134,-0.087 0.042,-0.018 0.082,-0.03 0.125,-0.035 0.02,-0.004 0.043,-0.006 0.064,-0.006 0.046,0 0.094,0.008 0.144,0.023 0.07,0.024 0.137,0.062 0.2,0.115 0.126,0.109 0.19,0.235 0.192,0.38 l 0,0.022 c 0,0.04 -0.005,0.078 -0.015,0.115 -0.012,0.042 -0.032,0.091 -0.063,0.145 -0.029,0.054 -0.075,0.119 -0.135,0.196 -0.061,0.078 -0.142,0.178 -0.245,0.299 -0.101,0.116 -0.186,0.214 -0.254,0.285 -0.069,0.074 -0.126,0.129 -0.174,0.167 -0.049,0.038 -0.095,0.065 -0.135,0.085 -0.04,0.018 -0.083,0.029 -0.131,0.036 -0.023,0.003 -0.049,0.004 -0.071,0.004 -0.117,0 -0.229,-0.043 -0.335,-0.134 -0.064,-0.055 -0.111,-0.115 -0.146,-0.181 -0.031,-0.068 -0.048,-0.134 -0.048,-0.201 l 0,-0.023 z m -2.464,-2.436 0.905,0.559 -0.7,1.139 0.014,0.01 0.554,0.341 1.694,-2.753 -0.568,-0.35 -0.686,1.112 -0.907,-0.558 0.688,-1.113 -0.57,-0.351 -1.695,2.752 0.57,0.353 0.701,-1.141 z m 4.488,5.458 0.013,-0.006 3.132,-1.316 -0.46,-0.524 -1.956,0.872 1.109,-1.831 -0.459,-0.521 -1.708,2.95 0.329,0.376 z M 24.604,7.845 c 0.06,0.177 0.169,0.327 0.328,0.453 0.132,0.103 0.276,0.173 0.43,0.215 0.099,0.027 0.202,0.04 0.314,0.04 0.059,0 0.121,-0.005 0.184,-0.011 0.183,-0.023 0.339,-0.072 0.478,-0.149 0.137,-0.077 0.257,-0.182 0.361,-0.314 0.127,-0.162 0.199,-0.337 0.213,-0.522 0.002,-0.042 0.005,-0.086 0.005,-0.136 0,-0.17 -0.019,-0.39 -0.05,-0.661 C 26.822,6.409 26.771,6.148 26.716,5.972 26.657,5.795 26.546,5.646 26.381,5.521 26.248,5.418 26.104,5.347 25.954,5.305 25.854,5.279 25.75,5.265 25.641,5.265 25.58,5.265 25.518,5.27 25.455,5.278 25.272,5.3 25.115,5.349 24.976,5.427 24.839,5.504 24.717,5.608 24.613,5.741 24.489,5.896 24.421,6.07 24.406,6.257 24.401,6.303 24.4,6.353 24.4,6.408 c 0,0.17 0.017,0.386 0.051,0.652 0.042,0.348 0.094,0.608 0.153,0.785 m 0.464,-1.492 c 0.005,-0.064 0.013,-0.116 0.027,-0.158 0.014,-0.042 0.034,-0.081 0.059,-0.116 0.036,-0.056 0.089,-0.104 0.153,-0.14 0.064,-0.038 0.139,-0.062 0.222,-0.072 0.026,-0.002 0.054,-0.005 0.082,-0.005 0.128,0 0.235,0.039 0.326,0.119 0.037,0.032 0.067,0.066 0.09,0.104 0.025,0.038 0.047,0.085 0.066,0.144 0.018,0.058 0.037,0.135 0.052,0.232 0.018,0.098 0.037,0.225 0.057,0.382 0.019,0.155 0.031,0.282 0.039,0.382 0.006,0.062 0.008,0.119 0.008,0.167 0,0.027 0,0.052 -0.002,0.074 -0.005,0.062 -0.014,0.112 -0.027,0.156 -0.014,0.042 -0.035,0.082 -0.063,0.12 -0.083,0.121 -0.204,0.192 -0.369,0.212 -0.027,0.003 -0.056,0.005 -0.08,0.005 -0.054,0 -0.104,-0.007 -0.152,-0.02 C 25.484,7.918 25.424,7.885 25.373,7.839 25.336,7.809 25.308,7.776 25.286,7.74 25.265,7.704 25.243,7.655 25.223,7.593 25.202,7.532 25.184,7.454 25.168,7.359 25.151,7.266 25.134,7.138 25.113,6.979 25.092,6.817 25.08,6.689 25.072,6.592 25.067,6.531 25.064,6.477 25.064,6.428 25.065,6.401 25.066,6.375 25.068,6.353 m -11.784,8.941 -0.94,-0.862 0.287,-0.315 1.368,0.394 0.008,-0.009 0.515,-0.561 -1.515,-0.401 c 0.044,-0.111 0.066,-0.226 0.066,-0.346 0,-0.054 -0.005,-0.108 -0.014,-0.163 -0.03,-0.184 -0.127,-0.351 -0.287,-0.496 -0.1,-0.092 -0.213,-0.163 -0.333,-0.208 -0.104,-0.041 -0.215,-0.06 -0.328,-0.06 -0.017,0 -0.032,0 -0.05,0.001 -0.129,0.007 -0.26,0.043 -0.39,0.106 -0.127,0.064 -0.245,0.158 -0.357,0.278 l -0.869,0.951 2.388,2.184 0.451,-0.493 z m -1.351,-1.239 -0.599,-0.547 0.392,-0.427 c 0.089,-0.097 0.188,-0.149 0.298,-0.161 0.012,0 0.025,-10e-4 0.036,-10e-4 0.096,0 0.181,0.035 0.263,0.111 0.09,0.082 0.134,0.175 0.134,0.286 0,0.111 -0.044,0.215 -0.134,0.313 l -0.39,0.426 z m -0.277,3.292 c 0.135,-0.207 0.203,-0.41 0.203,-0.614 0,-0.046 -0.003,-0.09 -0.01,-0.136 -0.038,-0.246 -0.181,-0.449 -0.427,-0.611 -0.149,-0.096 -0.29,-0.145 -0.428,-0.145 -0.016,0 -0.028,0 -0.042,0.002 -0.135,0.01 -0.257,0.046 -0.365,0.107 10e-4,-0.014 10e-4,-0.028 10e-4,-0.043 0,-0.091 -0.022,-0.192 -0.062,-0.295 -0.051,-0.136 -0.146,-0.25 -0.287,-0.341 -0.166,-0.111 -0.336,-0.165 -0.507,-0.165 -0.064,0 -0.133,0.009 -0.2,0.026 -0.238,0.061 -0.442,0.228 -0.617,0.494 l -0.721,1.106 2.711,1.769 0.751,-1.154 z M 9.974,16.375 9.645,16.879 9.058,16.497 9.386,15.991 c 0.071,-0.109 0.153,-0.173 0.244,-0.195 0.026,-0.008 0.051,-0.011 0.077,-0.011 0.063,0 0.128,0.02 0.19,0.062 0.091,0.059 0.143,0.134 0.157,0.226 0.004,0.016 0.006,0.034 0.006,0.052 10e-4,0.077 -0.028,0.16 -0.086,0.25 m 0.17,0.832 0.354,-0.54 c 0.071,-0.112 0.155,-0.176 0.251,-0.196 l 10e-4,0 c 0.023,-0.004 0.048,-0.008 0.073,-0.008 0.07,0 0.141,0.023 0.209,0.068 0.093,0.059 0.147,0.137 0.17,0.235 0.006,0.022 0.008,0.047 0.008,0.069 0,0.076 -0.026,0.157 -0.083,0.241 l -0.352,0.541 -0.631,-0.41 z m 4.956,-3.77 0.494,-0.423 -2.103,-2.458 -0.509,0.434 2.104,2.46 0.014,-0.013 z M 22.135,6.61 22.838,9.156 23.482,8.981 22.78,6.434 23.598,6.208 23.438,5.638 21.161,6.265 21.317,6.836 22.135,6.61 Z m -6.703,4.465 c 0.192,0.292 0.356,0.504 0.487,0.635 0.134,0.131 0.298,0.218 0.495,0.259 0.082,0.016 0.164,0.024 0.243,0.024 0.242,0 0.475,-0.074 0.693,-0.219 0.308,-0.204 0.494,-0.479 0.558,-0.82 0.014,-0.063 0.02,-0.126 0.02,-0.188 0,-0.095 -0.015,-0.19 -0.044,-0.282 -0.047,-0.154 -0.138,-0.328 -0.269,-0.528 l -0.265,-0.394 -1.035,0.688 0.31,0.464 0.478,-0.318 0.054,0.079 c 0.046,0.068 0.078,0.14 0.103,0.215 0.014,0.05 0.022,0.1 0.022,0.148 0,0.022 -0.003,0.045 -0.006,0.066 -0.025,0.157 -0.108,0.281 -0.253,0.377 -0.1,0.066 -0.199,0.098 -0.296,0.098 -0.04,0 -0.08,-0.004 -0.12,-0.014 C 16.561,11.353 16.521,11.336 16.484,11.314 16.45,11.293 16.408,11.257 16.363,11.209 16.316,11.161 16.265,11.1 16.21,11.024 16.151,10.946 16.079,10.84 15.99,10.705 15.899,10.572 15.83,10.46 15.779,10.378 15.728,10.296 15.693,10.225 15.669,10.166 15.645,10.109 15.629,10.058 15.623,10.013 15.619,9.993 15.618,9.97 15.618,9.95 c 0,-0.022 0.002,-0.044 0.005,-0.066 0.021,-0.146 0.098,-0.263 0.235,-0.355 0.098,-0.064 0.188,-0.099 0.274,-0.108 0.019,-0.004 0.043,-0.004 0.068,-0.004 0.074,0 0.164,0.01 0.268,0.032 L 16.484,9.451 16.615,8.826 16.598,8.823 C 16.476,8.799 16.363,8.786 16.257,8.786 c -0.074,0 -0.147,0.006 -0.213,0.019 -0.159,0.031 -0.332,0.108 -0.516,0.23 -0.293,0.194 -0.473,0.458 -0.541,0.789 -0.016,0.069 -0.022,0.14 -0.022,0.208 0,0.12 0.022,0.235 0.068,0.346 0.071,0.172 0.201,0.405 0.399,0.697 m 4.297,-0.698 -0.55,-1.221 0.969,-0.436 0.553,1.221 0.017,-0.007 0.592,-0.268 -1.331,-2.949 -0.611,0.275 0.54,1.191 -0.97,0.438 -0.539,-1.192 -0.609,0.275 1.332,2.95 0.607,-0.277 z M 39.29,30.295 c 0.268,0 0.483,-0.31 0.483,-0.31 0,0 -0.216,-0.308 -0.483,-0.308 -0.267,0 -0.482,0.308 -0.482,0.308 0,0 0.215,0.31 0.482,0.31 M 51.912,25.603 C 51.591,25.431 51.098,25.203 50.391,24.906 49.663,24.602 48.159,24.122 46.6,23.706 44.426,15.75 37.154,9.903 28.512,9.903 c -9.681,0 -17.646,7.336 -18.646,16.75 -0.954,0.142 -1.865,0.253 -2.656,0.336 -1.566,0.163 -2.653,0.221 -2.655,0.222 -0.059,0.003 -0.104,0.048 -0.112,0.105 -10e-4,0.005 -10e-4,0.011 -10e-4,0.02 -0.004,0.086 0.057,0.445 0.65,0.747 0.592,0.308 1.713,0.587 3.885,0.589 0.245,0 0.506,-0.007 0.779,-0.013 0,10.358 8.396,18.755 18.756,18.755 10.357,0 18.755,-8.397 18.755,-18.755 0,-1.177 -0.115,-2.329 -0.321,-3.446 1.928,0.426 4.354,0.977 5.136,0.979 0.083,-0.002 0.149,-0.005 0.206,-0.024 0.051,-0.011 0.126,-0.054 0.129,-0.142 -0.031,-0.17 -0.188,-0.237 -0.505,-0.423 m 0.169,0.41 c -1.225,0.002 -6.856,-1.459 -7.656,-1.462 -1.25,0.008 -4.063,1.552 -5.524,2.501 -0.425,0.278 -0.858,0.529 -1.281,0.75 0.107,0.006 0.217,0.015 0.321,0.029 0.889,0.106 1.677,0.45 2.314,0.917 0.821,0.612 1.67,1.362 2.18,1.462 0.024,0.002 0.052,0.004 0.081,0.008 l 0.002,0 c 0.726,0.068 2.803,0.582 2.738,1.811 0,0 -1.446,-0.437 -3.18,-0.14 -0.683,0.146 -1.679,0.238 -3.187,0.718 -1.428,0.45 -5.153,1.862 -8.065,1.863 -2.216,-0.002 -6.693,-1.277 -9.277,-1.496 -0.154,-0.013 -0.307,-0.021 -0.46,-0.021 -1.967,-0.002 -3.656,1.032 -4.501,1.043 -0.762,0 -2.098,-0.13 -3.406,-1.1 -0.995,-0.744 -1.73,-1.831 -1.74,-2.636 -0.002,-0.269 0.094,-0.519 0.304,-0.684 0.148,-0.113 0.356,-0.136 0.63,-0.139 1.014,10e-4 3.021,0.441 5.402,0.44 1.416,0 2.957,-0.154 4.486,-0.647 0.355,-0.114 1.423,-0.363 2.111,-0.536 0.182,0.124 0.374,0.258 0.588,0.406 0.021,0.015 0.043,0.022 0.065,0.022 0.039,0 0.075,-0.019 0.099,-0.05 0.038,-0.055 0.023,-0.128 -0.028,-0.166 -1.324,-0.922 -1.953,-1.434 -4.168,-1.428 -1.411,0 -3.475,0.196 -6.817,0.597 -2.169,0.259 -3.844,0.36 -5.135,0.36 C 6.825,28.436 5.735,28.154 5.202,27.874 4.873,27.701 4.752,27.538 4.709,27.44 c 0.774,-0.048 4.641,-0.319 8.057,-1.075 3.877,-0.862 9.948,-3.288 12.776,-3.283 1.054,-0.007 2.881,1.08 4.691,2.299 1.822,1.215 3.64,2.554 4.8,3.04 0.06,0.024 0.129,-0.003 0.153,-0.063 0.026,-0.06 -0.003,-0.129 -0.063,-0.155 -0.664,-0.278 -1.587,-0.87 -2.611,-1.561 1.405,-0.665 6.279,-3.591 9.768,-3.589 1.659,-0.003 6.567,1.394 8.043,2.016 0.703,0.296 1.195,0.521 1.507,0.69 0.155,0.083 0.268,0.151 0.334,0.203 0.021,0.015 0.038,0.031 0.049,0.043 -0.031,0.005 -0.075,0.008 -0.132,0.008"
         clip-path="url(#SVGID_2_)" /><path
         style="fill:#fdb913"
         id="path17"
         d="m 42.076,31.889 c 1.733,-0.297 3.18,0.14 3.18,0.14 0.068,-1.281 -2.188,-1.785 -2.821,-1.819 0,0 0.327,0.68 -1.436,0.814 0,0 -0.823,-0.019 -1.16,0.283 0,0 1.622,-0.124 2.192,0.51 l 0.045,0.072 z"
         clip-path="url(#SVGID_2_)" /></g></g></svg>