<?xml version="1.0" encoding="UTF-8" standalone="no"?>
<!-- Created with Inkscape (http://www.inkscape.org/) -->

<svg
   xmlns:dc="http://purl.org/dc/elements/1.1/"
   xmlns:cc="http://creativecommons.org/ns#"
   xmlns:rdf="http://www.w3.org/1999/02/22-rdf-syntax-ns#"
   xmlns:svg="http://www.w3.org/2000/svg"
   xmlns="http://www.w3.org/2000/svg"
   version="1.2"
   width="280"
   height="200"
   viewBox="0 0 279.99999 199.99999"
   id="Layer_1"
   xml:space="preserve"><metadata
     id="metadata3561"><rdf:RDF><cc:Work
         rdf:about=""><dc:format>image/svg+xml</dc:format><dc:type
           rdf:resource="http://purl.org/dc/dcmitype/StillImage" /><dc:title></dc:title></cc:Work></rdf:RDF></metadata><defs
     id="defs3559" /><path
     d="M 240,99.999785 C 240,155.23224 195.22634,200 139.99978,200 84.77029,200 39.999999,155.23224 39.999999,99.999785 39.999999,44.772811 84.77029,0 139.99978,0 195.22634,0 240,44.772811 240,99.999785"
     id="path3381"
     style="fill:#dba111" /><path
     d="m 236.66351,99.999785 c 0,53.387505 -43.27622,96.664145 -96.66415,96.664145 -53.388331,0 -96.665396,-43.27622 -96.665396,-96.664145 0,-53.388336 43.277065,-96.6654003 96.665396,-96.6654003 53.38708,0 96.66415,43.2770643 96.66415,96.6654003"
     id="path3383"
     style="fill:#034694" /><path
     d="m 208.88572,99.999785 c 0,38.045145 -30.84163,68.881725 -68.88636,68.881725 -38.04683,0 -68.889298,-30.83658 -68.889298,-68.881725 0,-38.048513 30.842468,-68.889303 68.889298,-68.889303 38.04557,-4.2e-4 68.88636,30.84079 68.88636,68.889303"
     id="path3385"
     style="fill:#dba111" /><path
     d="m 206.80179,99.999785 c 0,36.894005 -29.91305,66.801585 -66.80201,66.801585 -36.89399,0 -66.801992,-29.908 -66.801992,-66.801585 0,-36.893578 29.908002,-66.802418 66.801992,-66.802418 36.8898,0 66.80201,29.90842 66.80201,66.802418"
     id="path3387"
     style="fill:#ffffff" /><path
     d="m 82.760406,157.6313 c 0.739242,0.70559 2.557687,2.43736 2.557687,2.43736 l 1.743134,-1.83528 -5.199527,-4.95717 -0.668981,0.7018 -6.981368,7.31879 2.650672,2.52278 c 0,0 2.238769,-2.34775 3.057953,-3.20312 0.684544,0.65005 2.327122,2.21606 2.327122,2.21606 l 1.744394,-1.8315 c 0,0 -1.640048,-1.56474 -2.323752,-2.21941 0.433776,-0.45735 0.65425,-0.68875 1.092666,-1.15031"
     id="path3389"
     style="fill:#dba111" /><path
     d="m 95.299765,165.98975 c -0.235195,-1.40359 -1.023245,-2.64352 -2.215625,-3.49088 -1.18691,-0.84317 -2.611546,-1.17598 -4.015139,-0.94584 -1.511719,0.25708 -2.869874,1.13811 -3.826639,2.47692 -0.953405,1.34763 -1.338383,2.91826 -1.081734,4.43587 0.236036,1.39939 1.018614,2.63132 2.207214,3.4787 1.18944,0.84568 2.624588,1.18397 4.02608,0.94835 1.510879,-0.25455 2.869875,-1.13727 3.823279,-2.48028 0.763226,-1.0649 1.161246,-2.28462 1.161246,-3.50394 4.2e-4,-0.30377 -0.02521,-0.61596 -0.07867,-0.9189 m -7.466481,3.88766 c -1.215104,-0.85958 -0.212052,-2.65656 0.495635,-3.64446 0.706007,-0.9959 2.074674,-2.53581 3.289778,-1.67708 1.268112,0.90711 0.08326,2.86693 -0.485534,3.66255 -0.570526,0.80446 -2.029237,2.56569 -3.299879,1.65899 z"
     id="path3391"
     style="fill:#dba111" /><path
     d="m 103.47225,168.76497 c -2.79793,-1.4158 -6.034271,-0.25539 -7.520756,2.69064 -0.744713,1.4726 -0.890285,3.08909 -0.410642,4.54359 0.443037,1.35185 1.403592,2.45461 2.705789,3.1097 1.302198,0.66309 2.767639,0.77838 4.122009,0.33365 1.45366,-0.47417 2.66624,-1.54832 3.40632,-3.02009 1.4928,-2.95149 0.50069,-6.24169 -2.30272,-7.65749 m -3.09456,8.18721 c -0.32817,0.10771 -0.639523,0.0741 -0.992946,-0.10182 -0.554954,-0.28273 -0.750174,-0.78805 -0.750174,-1.35269 0,-0.78131 0.375717,-1.70189 0.694215,-2.32964 0.552014,-1.0914 1.672875,-2.81518 3.002835,-2.14409 0.3509,0.17922 0.56085,0.4119 0.6673,0.73629 0.22257,0.6715 -9.5e-4,1.77427 -0.60082,2.95487 -0.59661,1.18102 -1.35142,2.01577 -2.02041,2.23708 z"
     id="path3393"
     style="fill:#dba111" /><path
     d="m 109.25072,172.81629 -0.51499,1.47596 c 0,0 1.31692,0.46198 1.71663,0.59409 -0.50405,1.44146 -2.82739,8.07319 -2.82739,8.07319 l 3.44966,1.20964 c 0,0 2.32713,-6.62585 2.82991,-8.0673 0.40223,0.14052 1.71957,0.59829 1.71957,0.59829 l 0.83602,-2.38224 -6.8888,-2.41674 -0.32061,0.91511"
     id="path3395"
     style="fill:#dba111" /><path
     d="m 123.57361,176.01687 -4.66182,-0.98454 -0.19943,0.94836 -2.08352,9.89417 4.74429,1.00599 c 1.51635,0.31303 2.51477,-0.0593 3.08403,-0.42748 0.72284,-0.47165 1.22942,-1.24497 1.42422,-2.16934 0.0535,-0.2516 0.0792,-0.49564 0.0792,-0.73462 0,-0.66814 -0.21164,-1.27064 -0.59451,-1.78815 0.53434,-0.42411 0.91553,-1.02324 1.07415,-1.77091 0.0404,-0.19311 0.0644,-0.41106 0.0644,-0.63868 0,-1.26643 -0.72325,-2.87451 -2.93088,-3.3348 m -1.28327,7.55358 c -0.0496,0.22594 -0.14052,0.52509 -0.31177,0.637 -0.15819,0.10266 -0.46239,0.1157 -0.85621,0.0303 0,0 -0.17923,-0.0395 -0.39129,-0.0812 0.15147,-0.714 0.25287,-1.18902 0.40056,-1.90386 0.20279,0.0476 0.46197,0.0985 0.46197,0.0985 0.61176,0.12917 0.72915,0.58187 0.72915,0.91047 4.2e-4,0.13212 -0.0164,0.24404 -0.0324,0.30883 z m -0.3185,-5.29546 c 0.40938,0.093 0.71021,0.24319 0.82592,0.41822 0.053,0.0804 0.0791,0.19312 0.0791,0.32608 0,0.0804 -0.011,0.17334 -0.032,0.28526 -0.0627,0.28989 -0.14768,0.69212 -0.95425,0.52677 0,0 -0.10055,-0.0265 -0.23898,-0.0559 0.12875,-0.59872 0.18976,-0.89786 0.32019,-1.50037 z"
     id="path3397"
     style="fill:#dba111" /><path
     d="m 132.17988,177.62832 -5.06363,10.36918 2.89176,0.22172 c 0,0 0.78258,-1.65183 1.09519,-2.30987 0.61176,0.0509 1.22478,0.0939 1.82433,0.14221 0.22427,0.69255 0.78932,2.4504 0.78932,2.4504 l 3.84725,0.29915 -4.29871,-13.32489 -1.08551,2.1521"
     id="path3399"
     style="fill:#dba111" /><path
     d="m 143.59755,185.90514 c -0.064,-1.51551 -0.35511,-8.41398 -0.35511,-8.41398 l -3.65372,0.15356 0.46198,11.0714 7.32217,-0.3042 -0.10982,-2.65656 c 0,4.2e-4 -2.61533,0.11191 -3.6655,0.14978"
     id="path3401"
     style="fill:#dba111" /><path
     d="m 153.61962,184.84445 c -0.23561,-1.49826 -1.30472,-8.31848 -1.30472,-8.31848 l -0.95761,0.15357 -2.65824,0.41402 1.71578,10.95063 7.24306,-1.13726 -0.41485,-2.62711 c 0,0 -2.58377,0.4077 -3.62342,0.56463"
     id="path3403"
     style="fill:#dba111" /><path
     d="m 174.5877,177.47895 c -0.0294,0.9492 -0.58904,1.76669 -1.46207,2.11212 -0.48386,0.19228 -0.94584,0.19228 -1.40865,-0.004 -0.71021,-0.3042 -1.36825,-1.07332 -1.76332,-2.06164 -0.46492,-1.16587 -0.5596,-2.15629 -0.25455,-2.8522 0.20952,-0.48722 0.62059,-0.85117 1.24834,-1.10277 0.68033,-0.27054 1.32617,-0.0215 2.21141,0.49984 l 0.81203,0.47923 1.34848,-2.12685 -0.80025,-0.52593 c -1.47091,-0.96645 -3.29188,-1.16377 -4.86714,-0.53434 -1.46208,0.58273 -2.59555,1.67329 -3.19469,3.06762 -0.60797,1.41412 -0.60797,3.03229 0.009,4.56716 1.16377,2.90901 4.45228,4.34205 7.32763,3.1909 2.07804,-0.83012 3.25402,-2.40875 3.40381,-4.56504 l 0.0682,-0.96224 -2.6469,-0.19649 -0.0311,1.01484"
     id="path3405"
     style="fill:#dba111" /><path
     d="m 183.11698,174.45466 c -0.7485,-1.33039 -4.11107,-7.36214 -4.11107,-7.36214 l -0.84232,0.47502 -2.3528,1.31397 5.40738,9.67454 6.39317,-3.57125 -1.2942,-2.3225 c 4.2e-4,0 -2.28799,1.27569 -3.20016,1.79236"
     id="path3407"
     style="fill:#dba111" /><path
     d="m 190.22751,159.5339 -0.78384,0.57346 -1.3733,1.00937 4.48763,6.11674 c 0.20532,0.27684 0.20532,0.46197 0.18723,0.56969 -0.0429,0.31555 -0.37152,0.65761 -0.66225,0.86714 -0.13716,0.0976 -0.4544,0.23099 -0.77921,0.18008 -0.23183,-0.0336 -0.41485,-0.15946 -0.57768,-0.37951 l -4.43504,-6.04816 -2.95571,2.16387 4.41358,6.01787 c 0.6551,0.89071 1.46839,1.41748 2.41759,1.56222 1.06489,0.16619 2.27536,-0.19649 3.40043,-1.02788 2.31407,-1.6918 2.27621,-3.93856 1.26643,-5.31522 l -4.60586,-6.28967"
     id="path3409"
     style="fill:#dba111" /><path
     d="m 203.69293,157.31028 c -0.68034,-0.70601 -1.5193,-1.02325 -2.40034,-0.97528 -0.0517,-0.68455 -0.31723,-1.3388 -0.84653,-1.8866 -0.92437,-0.95425 -2.99105,-1.6977 -4.89365,0.1544 l -3.42272,3.30998 7.71219,7.96212 3.48164,-3.37519 c 1.11286,-1.07795 1.35773,-2.12181 1.36825,-2.79668 0.0185,-0.86588 -0.33743,-1.71326 -0.99884,-2.39275 m -5.82644,-0.26844 c 0.11487,0.12244 0.2554,0.26549 0.2554,0.4645 0,0.16325 -0.0888,0.36478 -0.35595,0.62017 0,0 -0.0724,0.0732 -0.16998,0.17125 -0.4321,-0.44809 -0.637,-0.65846 -1.07499,-1.10866 0.77206,-0.70811 1.09267,-0.40559 1.34552,-0.14726 z m 1.82603,2.74113 c 0.62522,-0.60334 1.22688,-0.0732 1.39854,0.10687 0.1662,0.16662 0.35511,0.40181 0.35511,0.60545 0,0 0,0 0,0.007 -0.004,0.18806 -0.16283,0.4485 -0.44935,0.72662 0,0 -0.13296,0.12917 -0.29074,0.27769 -0.50446,-0.52172 -0.84568,-0.87178 -1.351,-1.39055 0.14936,-0.14853 0.33744,-0.33281 0.33744,-0.33281 z"
     id="path3411"
     style="fill:#dba111" /><path
     d="m 82.736422,156.60427 c 0.301666,0.29032 2.553477,2.4382 2.553477,2.4382 l 0.742612,-0.783 -4.148938,-3.95666 -0.167035,0.17503 -6.476051,6.7933 1.595452,1.52266 c 0,0 2.759227,-2.89176 3.056263,-3.20816 0.301675,0.28696 2.331753,2.22026 2.331753,2.22026 l 0.743872,-0.78048 c 0,0 -2.030077,-1.93204 -2.331753,-2.21898 0.269281,-0.28191 1.833598,-1.92321 2.100348,-2.20217"
     id="path3413"
     style="fill:#ffffff" /><path
     d="m 92.660455,163.09001 c -1.028295,-0.7321 -2.258962,-1.02451 -3.466915,-0.82255 -1.326171,0.22762 -2.515611,1.00178 -3.357518,2.18659 -0.844428,1.18859 -1.18312,2.56652 -0.958025,3.88765 0.202371,1.21131 0.883133,2.28043 1.912269,3.00999 1.034607,0.7363 2.270324,1.02408 3.483738,0.82087 1.31903,-0.22173 2.51015,-0.99926 3.350787,-2.17608 0.671932,-0.94919 1.027036,-2.02419 1.027036,-3.08909 0,-0.26549 -0.02311,-0.53434 -0.06645,-0.79941 -0.205742,-1.20963 -0.887765,-2.28167 -1.924892,-3.01797 m -0.936152,5.55253 c -0.695905,0.97317 -2.5072,3.1118 -4.310073,1.82938 -1.796572,-1.27527 -0.370256,-3.68654 0.322709,-4.66602 0.695065,-0.97949 2.5072,-3.11434 4.301242,-1.83907 1.803293,1.28663 0.381187,3.69916 -0.313878,4.67571 z"
     id="path3415"
     style="fill:#ffffff" /><path
     d="m 103.14449,169.4167 c -2.42768,-1.22772 -5.240331,-0.20617 -6.544628,2.3734 -0.65678,1.29673 -0.786369,2.70789 -0.369416,3.98737 0.382878,1.16209 1.215104,2.11255 2.343955,2.68054 1.131371,0.57853 2.399909,0.68119 3.568309,0.29663 1.27106,-0.4199 2.33217,-1.36152 2.98894,-2.6574 1.30052,-2.57916 0.44726,-5.45366 -1.98716,-6.68054 m -4.087076,8.07866 c -1.965708,-0.98874 -0.919749,-3.58935 -0.376567,-4.65761 0.541492,-1.07331 2.012823,-3.45723 3.975593,-2.45966 0.52256,0.26129 0.87135,0.65005 1.03755,1.15872 0.38539,1.17766 -0.23983,2.69948 -0.64795,3.50815 -0.40601,0.80278 -1.26348,2.21058 -2.4424,2.59682 -0.50447,0.17082 -1.026197,0.11907 -1.546226,-0.14642 z"
     id="path3417"
     style="fill:#ffffff" /><path
     d="m 109.93947,173.05443 -0.27853,0.78805 c 0,0 1.37373,0.48302 1.71789,0.60419 -0.1523,0.43126 -2.82991,8.06646 -2.82991,8.06646 l 2.08099,0.73125 c 0,0 2.6797,-7.63479 2.82949,-8.0673 0.34417,0.1199 1.71789,0.59997 1.71789,0.59997 l 0.35889,-1.01399 -5.52013,-1.93751 -0.0766,0.22888"
     id="path3419"
     style="fill:#ffffff" /><path
     d="m 123.42676,176.7254 -3.95117,-0.83391 -0.053,0.23982 -1.93121,9.18816 4.03155,0.84653 c 1.02493,0.21458 1.87777,0.10772 2.5375,-0.32439 0.57051,-0.37236 0.95339,-0.96645 1.10991,-1.70611 0.04,-0.20195 0.064,-0.39465 0.064,-0.58273 0,-0.80361 -0.39844,-1.48395 -1.10992,-1.97158 0.82381,-0.23689 1.41369,-0.84317 1.60344,-1.74314 0.0324,-0.14053 0.0517,-0.30672 0.0517,-0.49479 -4.2e-4,-0.91932 -0.48385,-2.22362 -2.35279,-2.61786 m -1.38129,0.81329 c 0.66435,0.14053 1.12422,0.39466 1.35815,0.75608 0.13463,0.20532 0.20111,0.44557 0.20111,0.72494 0,0.13632 -0.0177,0.27769 -0.0496,0.43125 -0.25665,1.22353 -1.24497,1.21048 -1.81339,1.08636 0,0 -0.60166,-0.12412 -0.95046,-0.19732 0.0811,-0.37699 0.53982,-2.55812 0.61892,-2.93384 0.25244,0.0514 0.63531,0.13253 0.63531,0.13253 z m -0.30378,4.10139 c 1.12254,0.23604 1.29967,1.1217 1.29967,1.65984 0,0.23098 -0.0362,0.39591 -0.0408,0.42326 -0.11318,0.53097 -0.31556,0.88986 -0.62649,1.09057 -0.3286,0.2192 -0.80193,0.26127 -1.40065,0.13716 0,0 -0.71863,-0.15358 -1.10361,-0.23015 0.0829,-0.39508 0.62018,-2.94014 0.70138,-3.32807 0.32902,0.0686 1.17051,0.24739 1.17051,0.24739 z"
     id="path3421"
     style="fill:#ffffff" /><path
     d="m 132.83497,177.94724 -4.59576,9.40736 1.32365,0.0984 c 0,0 0.97276,-2.04438 1.10151,-2.30566 0.27979,0.0215 2.52949,0.19649 2.80551,0.21879 0.0879,0.26969 0.78973,2.45039 0.78973,2.45039 l 2.27957,0.17588 -3.41348,-10.5825 -0.29073,0.53729 m -0.50447,3.78247 c 0.22216,0.71063 0.64963,2.08056 0.791,2.52781 -0.45399,-0.0337 -1.49952,-0.11487 -1.94887,-0.14894 0.20616,-0.42285 0.83264,-1.71074 1.15787,-2.37887 z"
     id="path3423"
     style="fill:#ffffff" /><path
     d="m 142.89954,186.66291 c -0.0181,-0.45861 -0.35594,-8.414 -0.35594,-8.414 l -0.23478,0.009 -1.96739,0.0804 0.40433,9.62447 5.87145,-0.24908 -0.0517,-1.20122 c 9.6e-4,4.2e-4 -3.24139,0.13716 -3.66592,0.15106"
     id="path3425"
     style="fill:#ffffff" /><path
     d="m 153.01627,185.68342 c -0.0732,-0.45356 -1.3085,-8.32858 -1.3085,-8.32858 l -0.23561,0.0379 -1.94131,0.30714 1.49237,9.51423 5.80498,-0.91637 -0.18724,-1.18902 c -4.2e-4,8.4e-4 -3.20942,0.50488 -3.62469,0.57474"
     id="path3427"
     style="fill:#ffffff" /><path
     d="m 175.31096,177.49536 c -0.0345,1.25339 -0.76996,2.31492 -1.91648,2.7769 -0.66729,0.26549 -1.32618,0.25623 -1.96318,-0.0173 -0.89745,-0.37951 -1.68128,-1.27864 -2.15631,-2.45882 -0.53476,-1.34763 -0.62101,-2.52782 -0.24739,-3.41011 0.29073,-0.66729 0.84316,-1.16672 1.65099,-1.48732 1.05691,-0.42327 2.02713,0.0593 2.84842,0.54654 l 0.20532,0.11991 0.59073,-0.92773 -0.19775,-0.13338 c -1.27443,-0.83474 -2.84842,-1.00894 -4.20321,-0.4666 -1.28368,0.51457 -2.28042,1.46376 -2.79793,2.67886 -0.53098,1.23109 -0.52593,2.65993 0.0173,4.00672 1.01315,2.54171 3.87378,3.79005 6.38602,2.78911 1.82181,-0.73125 2.81055,-2.0528 2.94267,-3.93941 l 0.0173,-0.24319 -1.16292,-0.0804 -0.0135,0.24613"
     id="path3429"
     style="fill:#ffffff" /><path
     d="m 182.83508,175.44257 c -0.22678,-0.39761 -4.11107,-7.3571 -4.11107,-7.3571 l -0.21374,0.11907 -1.71073,0.95803 4.69211,8.40264 5.12926,-2.864 -0.58357,-1.05185 c 8.4e-4,8.4e-4 -2.83916,1.58283 -3.20226,1.79321"
     id="path3431"
     style="fill:#ffffff" /><path
     d="m 190.06889,160.54788 -0.19817,0.14558 -0.78637,0.57768 4.05932,5.53065 c 0.2718,0.37235 0.37867,0.74387 0.32061,1.10781 -0.0968,0.65888 -0.69675,1.16461 -0.94836,1.34427 -0.28778,0.2171 -0.81455,0.39676 -1.31902,0.31472 -0.42831,-0.0631 -0.77921,-0.28948 -1.06069,-0.66645 l -4.00756,-5.46628 -1.77511,1.30893 3.98148,5.42756 c 0.5356,0.73209 1.18985,1.16377 1.94171,1.27527 1.18565,0.17924 2.29852,-0.48091 2.85811,-0.88902 1.9211,-1.41244 1.94677,-3.17956 1.11665,-4.30378 l -4.1826,-5.70694"
     id="path3433"
     style="fill:#ffffff" /><path
     d="m 203.17037,157.81559 c -0.74514,-0.7708 -1.69854,-0.94667 -2.68728,-0.56632 0.0783,-0.23056 0.12496,-0.46576 0.12496,-0.70096 0,-0.57178 -0.22763,-1.12969 -0.68538,-1.6005 -0.61976,-0.63742 -2.22447,-1.42505 -3.86578,0.17083 l -2.90102,2.81054 6.69737,6.91406 2.9658,-2.87535 c 0.74767,-0.7182 1.13812,-1.49237 1.14737,-2.27537 0.0117,-0.68371 -0.26591,-1.33039 -0.79604,-1.87693 m -4.32481,-0.30041 c 0,0.48427 -0.31556,0.88187 -0.56968,1.13011 0,0 -0.44472,0.4321 -0.69591,0.6795 -0.27053,-0.27769 -1.82265,-1.87693 -2.08814,-2.16051 0.18008,-0.17419 0.46365,-0.4443 0.46365,-0.4443 0.90628,-0.88272 1.70191,-0.9412 2.43231,-0.18429 0.33449,0.34754 0.45777,0.67571 0.45777,0.97949 z m 1.84453,5.01734 c -0.27432,-0.28273 -2.08392,-2.15546 -2.36162,-2.4382 0.23898,-0.23014 0.85873,-0.83306 0.85873,-0.83306 1.18187,-1.13895 2.37972,0.0682 2.43063,0.12411 0.37236,0.38456 0.55538,0.74851 0.55538,1.11034 0,0.007 0,0.0105 0,0.0138 -0.005,0.3976 -0.2352,0.81371 -0.67235,1.24581 9.6e-4,0 -0.57641,0.55496 -0.81077,0.77711 z"
     id="path3435"
     style="fill:#ffffff" /><path
     d="m 95.571566,34.122578 -4.042062,1.090135 0.464071,1.447779 c 0.558324,1.755336 0.05299,3.593134 -1.31523,4.793086 -0.761125,0.667301 -1.640058,0.973597 -2.609445,0.907117 -1.473013,-0.09887 -3.135785,-1.052269 -4.445974,-2.551796 -1.544123,-1.768798 -2.3145,-3.471536 -2.216475,-4.914684 0.06817,-1.05227 0.579788,-1.97664 1.561376,-2.83664 1.084254,-0.949614 2.459233,-0.912588 4.324385,-0.542752 l 1.3834,0.273481 0.894495,-3.871246 -1.392651,-0.339542 c -2.994423,-0.740922 -6.117166,-0.01308 -8.344994,1.937094 -4.36309,3.817808 -4.719044,10.052782 -0.827605,14.502966 3.616278,4.134207 9.890798,4.584825 13.980408,1.007683 2.945616,-2.57284 3.971801,-5.864718 2.97128,-9.50961 l -0.384979,-1.393071"
     id="path3437"
     style="fill:#dba111" /><path
     d="m 106.54788,13.848717 -4.12875,1.944245 c 0,0 2.30483,4.88439 3.09708,6.567784 -1.17765,0.553694 -2.31828,1.092666 -3.4972,1.6493 -0.7952,-1.682125 -3.101287,-6.568615 -3.101287,-6.568615 l -5.436403,2.566519 8.27935,17.56176 5.44104,-2.565259 c 0,0 -2.56526,-5.431773 -3.39034,-7.192999 1.1785,-0.551594 2.31828,-1.090145 3.49931,-1.64636 0.8276,1.756176 3.3895,7.188789 3.3895,7.188789 l 5.43976,-2.566948 -8.27682,-17.55755 -1.31524,0.619334"
     id="path3439"
     style="fill:#dba111" /><path
     d="m 124.95533,24.728675 c -0.26507,-1.307668 -0.53435,-2.63805 -0.79605,-3.944028 1.6796,-0.33786 6.14283,-1.239087 6.14283,-1.239087 l -0.7851,-3.900701 c 0,0 -4.46534,0.902497 -6.1462,1.242029 -0.24193,-1.195742 -0.4422,-2.200054 -0.68581,-3.394115 1.7444,-0.351743 6.52066,-1.316929 6.52066,-1.316929 l -0.78721,-3.8990109 -1.42884,0.286944 -10.98683,2.2219359 3.84095,19.033093 12.51623,-2.530334 -0.78637,-3.89691 c 0,0 -4.86209,0.979909 -6.61826,1.337113"
     id="path3441"
     style="fill:#dba111" /><path
     d="m 142.7081,7.8253751 -6.01914,-0.124959 -0.0299,1.45156 -0.37614,17.9597799 12.63488,0.26507 0.0904,-4.205317 c 0,0 -4.85074,-0.104346 -6.62333,-0.140521 0.0505,-2.3772 0.32313,-15.2056129 0.32313,-15.2056129"
     id="path3443"
     style="fill:#dba111" /><path
     d="m 162.21284,17.617298 c -1.56136,-1.146944 -2.01829,-1.606813 -1.86052,-2.233298 0.0774,-0.32481 0.43127,-1.361937 1.55297,-1.084245 0.67486,0.173347 1.34637,0.528871 1.64552,1.98127 l 0.3286,1.612285 3.97432,-1.343014 -0.2474,-1.251279 c -0.48889,-2.457553 -2.56736,-4.549479 -5.17638,-5.201208 -1.86852,-0.4640799 -3.74166,-0.2158429 -5.27904,0.707687 -1.41118,0.845268 -2.40371,2.17944 -2.79626,3.75848 -0.99758,3.980222 1.6855,5.896693 3.45934,7.166495 1.81887,1.300517 2.28126,1.809614 2.00357,2.895968 -0.0871,0.339532 -0.28694,0.607552 -0.59997,0.797301 -0.36394,0.214162 -0.82087,0.291574 -1.19238,0.1948 -0.9555,-0.235186 -1.3691,-0.686644 -1.77175,-1.922362 l -0.48806,-1.481434 -3.98779,1.630797 0.38624,1.266012 c 0.74767,2.460073 2.53245,4.010507 5.45324,4.742178 3.28263,0.821285 7.26494,-0.688334 8.25705,-4.629841 1.03503,-4.153139 -1.79151,-6.234134 -3.6613,-7.606592"
     id="path3445"
     style="fill:#dba111" /><path
     d="m 176.57234,27.972596 c 1.53192,0.774167 5.59208,2.827379 5.59208,2.827379 l 1.79573,-3.550218 c 0,0 -4.06353,-2.053221 -5.5904,-2.824858 0.54654,-1.088875 1.00977,-2.004414 1.55548,-3.091188 1.58452,0.800251 5.93961,3.001154 5.93961,3.001154 l 1.79068,-3.550218 -11.30154,-5.711154 -0.65341,1.293786 -8.10686,16.034038 11.39621,5.755752 1.79699,-3.548118 c 0,0 -4.4283,-2.237079 -6.02839,-3.042801 0.59914,-1.19154 1.21469,-2.401593 1.81382,-3.593554"
     id="path3447"
     style="fill:#dba111" /><path
     d="m 199.08034,29.785991 -18.10914,9.370339 3.46438,3.012927 c 0,0 2.98895,-1.589141 4.07531,-2.159668 0.80782,0.703487 1.99852,1.739354 2.7933,2.429788 -0.38961,1.155355 -1.49658,4.403907 -1.49658,4.403907 l 4.7729,4.152719 7.74248,-22.830708 -3.24265,1.620696"
     id="path3449"
     style="fill:#dba111" /><path
     d="m 94.892913,35.304017 -2.134423,0.580207 0.156514,0.483004 c 0.678233,2.130642 0.06645,4.35931 -1.601763,5.818021 -0.958035,0.840637 -2.075104,1.225616 -3.309131,1.146103 -1.749445,-0.117388 -3.609967,-1.167557 -5.111594,-2.885027 -1.71705,-1.965707 -2.568209,-3.909112 -2.455452,-5.620691 0.08841,-1.299667 0.72536,-2.476905 1.893337,-3.49847 1.533602,-1.340903 3.464394,-1.095606 5.1503,-0.761955 l 0.46324,0.08965 0.467021,-2.023347 -0.46408,-0.115707 c -2.691058,-0.66056 -5.483521,-0.0147 -7.476993,1.730512 -3.944037,3.454293 -4.260855,9.096017 -0.734201,13.131769 3.264114,3.731985 8.921411,4.140937 12.61468,0.915538 2.678016,-2.348585 3.577982,-5.212149 2.670865,-8.52044 l -0.12832,-0.469131"
     id="path3451"
     style="fill:#ffffff" /><path
     d="m 106.9602,14.720909 -3.24812,1.535713 c 0,0 2.73439,5.802449 3.09413,6.565254 -0.69507,0.32944 -4.55326,2.149986 -5.25338,2.476905 -0.35889,-0.764065 -3.091606,-6.566094 -3.091606,-6.566094 l -3.692009,1.739343 7.453435,15.805164 3.68948,-1.736823 c 0,0 -3.02597,-6.414202 -3.39033,-7.190479 0.69969,-0.32944 4.55327,-2.145355 5.25295,-2.476065 0.36353,0.774167 3.39035,7.192159 3.39035,7.192159 l 3.68485,-1.741024 -7.45302,-15.807684 -0.43673,0.203631"
     id="path3453"
     style="fill:#ffffff" /><path
     d="m 124.19462,25.870148 c -0.15146,-0.759435 -1.02492,-5.08382 -1.17639,-5.843265 0.80824,-0.162405 6.14198,-1.240338 6.14198,-1.240338 l -0.40349,-1.996842 c 0,0 -5.33206,1.073312 -6.14493,1.237817 -0.14768,-0.744713 -0.91722,-4.549479 -1.06489,-5.293351 0.81455,-0.167036 6.51687,-1.31524 6.51687,-1.31524 l -0.40434,-1.9976729 -10.51434,2.1217919 3.45851,17.130924 10.61488,-2.142834 -0.40349,-1.997683 c -8.4e-4,4.2e-4 -5.79908,1.170498 -6.62037,1.336693"
     id="path3455"
     style="fill:#ffffff" /><path
     d="m 141.71726,8.7758391 -4.07616,-0.08832 -0.009,0.481333 -0.36099,16.9924939 10.70074,0.226774 0.0475,-2.268214 c 0,0 -5.79277,-0.122438 -6.62247,-0.140111 0.021,-0.906697 0.32019,-15.2039129 0.32019,-15.2039129"
     id="path3457"
     style="fill:#ffffff" /><path
     d="m 162.14048,13.362343 c 1.29588,0.32439 2.04438,1.190271 2.36162,2.723873 l 0.11024,0.536031 2.12601,-0.718629 -0.0804,-0.419483 c -0.4199,-2.094027 -2.21143,-3.883018 -4.46155,-4.448914 -1.61775,-0.403491 -3.2292,-0.191859 -4.54317,0.59703 -1.1886,0.714419 -2.02671,1.839899 -2.35699,3.16734 -0.83728,3.338586 1.3388,4.893651 3.08403,6.14115 1.76669,1.263482 2.83159,2.126002 2.37804,3.917944 -0.18008,0.745973 -0.66731,1.172187 -1.04302,1.396441 -0.58231,0.348793 -1.29673,0.457769 -1.92447,0.303776 -1.28874,-0.323129 -1.95225,-1.016094 -2.45546,-2.561898 l -0.16408,-0.493945 -2.20638,0.899966 0.12833,0.423685 c 0.64121,2.108339 2.20006,3.445032 4.76533,4.087079 2.81812,0.703906 6.23328,-0.571367 7.07477,-3.928465 0.87682,-3.518663 -1.43305,-5.221401 -3.3024,-6.587968 -1.58662,-1.171347 -2.54508,-1.954346 -2.219,-3.248552 0.28568,-1.157035 1.24371,-2.158397 2.72851,-1.786461"
     id="path3459"
     style="fill:#ffffff" /><path
     d="m 179.4986,20.034044 c 0.74387,0.374037 5.9333,2.996514 5.9333,2.996514 l 0.92353,-1.820546 -9.57188,-4.835582 -0.2192,0.431675 -7.66465,15.168167 9.66149,4.8827 0.92058,-1.819706 c 0,0 -5.27484,-2.667084 -6.02207,-3.046171 0.34837,-0.692535 2.33889,-4.625211 2.68474,-5.318175 0.73631,0.371936 5.5904,2.824867 5.5904,2.824867 l 0.92521,-1.820555 c 0,0 -4.85914,-2.450822 -5.59545,-2.824858 0.3425,-0.675713 2.09236,-4.142627 2.434,-4.81833"
     id="path3461"
     style="fill:#ffffff" /><path
     d="m 199.52591,30.648512 -16.8402,8.71524 1.88198,1.636267 c 0,0 3.57126,-1.893336 4.07657,-2.160927 0.41906,0.366045 3.37898,2.940985 3.7892,3.29819 -0.1784,0.53224 -1.50121,4.399696 -1.50121,4.399696 l 3.19596,2.778581 6.50676,-19.187086 -1.10906,0.520039 m -8.93193,7.187948 c 0.79646,-0.411902 2.83159,-1.469232 4.07278,-2.11507 -0.46198,1.31945 -1.22352,3.492159 -1.51551,4.337847 -0.64584,-0.565476 -1.91059,-1.664452 -2.55727,-2.222777 z"
     id="path3463"
     style="fill:#ffffff" /><path
     d="m 187.77459,97.376035 c -1.38129,-3.657922 -6.13694,-5.247062 -10.63256,-3.550215 -1.87441,0.705167 -3.4097,1.884085 -4.4565,3.275895 2.96833,-8.472052 15.0596,-10.269884 15.0596,-18.151638 0,-13.210871 -18.76087,-9.510441 -16.0311,0.0019 0,-4.315964 6.86903,-5.106954 6.86903,0 0,5.107803 -11.97725,8.45733 -11.97725,17.086328 0,9.512545 9.51423,10.392735 8.55115,19.092835 -0.16366,1.49995 -1.77678,3.47113 -4.11191,3.47113 -14.57239,0 -9.37033,-17.93875 -14.46215,-23.397462 l 0.26633,-3.685698 c 2.94351,1.804983 10.7529,-2.423467 5.61185,-8.869234 0,3.16987 -6.60059,2.994424 -6.60059,-2.994413 0,-8.103487 7.57587,-3.875037 7.94403,-2.085616 -0.36311,-2.951087 -0.50027,-4.82381 -0.0131,-6.524448 -4.08413,1.316929 -4.46617,-1.043858 -3.9495,-1.957287 0.59157,-1.05648 1.38298,-2.290517 2.97423,-2.290517 0.85999,0 1.37624,0.119909 1.68043,0.32944 0.50868,0.347953 0.88062,-0.446827 0.80782,0.292415 0.43716,-0.665191 0.26213,0.165355 0.68372,-0.501946 0.42957,-0.66267 1.00809,-1.412004 2.0246,-2.410425 l -0.0437,-1.494897 1.18986,0.436306 1.14231,-1.84747 c -1.23278,-2.556007 -2.90565,-1.32492 -4.13758,-4.49395 -1.03039,-0.267591 -17.0779,1.477653 -16.61256,-4.923936 -1.30851,0 -4.40811,0.716948 -2.48995,3.323443 -1.49154,0.179648 -2.56653,-1.514249 -4.81497,3.067205 2.81645,-0.52803 1.35858,2.620377 1.35858,3.516133 0,5.804558 -7.72735,5.706524 -7.72735,2.987692 -1.8622,1.809604 -0.80572,5.766683 2.01072,6.741541 0,0 -1.07121,4.232661 -3.71515,6.916157 -3.92468,-0.156513 -10.22109,-0.838536 -13.84325,-4.262525 -1.56221,-1.475544 -2.80256,-2.279585 -3.85904,-2.692748 v -1.918581 c 1.54665,-0.756914 3.24265,-2.096557 5.00514,-4.335326 1.37499,-1.679184 2.11928,-3.83254 1.919,-6.119267 -0.0261,-0.273061 -0.0665,-0.542752 -0.11444,-0.805722 -0.0147,-0.08373 -0.0353,-0.164925 -0.0547,-0.248237 -0.0387,-0.184288 -0.0833,-0.360995 -0.13674,-0.543173 -0.0257,-0.08793 -0.0496,-0.177977 -0.0774,-0.26507 -0.0598,-0.182598 -0.12539,-0.357214 -0.19649,-0.53056 -0.0299,-0.07275 -0.0509,-0.150203 -0.0858,-0.218363 -0.098,-0.233506 -0.20742,-0.453139 -0.32565,-0.674443 -0.0505,-0.08965 -0.10392,-0.173346 -0.15315,-0.255818 -0.0812,-0.13295 -0.1582,-0.267591 -0.24361,-0.39591 -0.069,-0.101826 -0.14137,-0.204901 -0.21416,-0.307567 -0.0749,-0.09803 -0.15399,-0.19859 -0.23098,-0.297045 -0.0855,-0.105186 -0.16956,-0.216682 -0.26086,-0.321028 -0.0606,-0.06903 -0.12622,-0.135471 -0.19018,-0.19901 -0.22889,-0.252859 -0.47712,-0.488055 -0.73629,-0.712729 -0.0215,-0.01852 -0.0472,-0.04249 -0.0724,-0.06187 -0.14474,-0.123699 -0.29915,-0.241927 -0.45104,-0.354693 -0.0387,-0.02941 -0.0791,-0.05805 -0.12243,-0.08832 -0.16242,-0.114437 -0.3286,-0.226354 -0.50195,-0.33323 -0.0105,-0.0067 -0.0202,-0.01088 -0.0278,-0.01852 -1.64931,-1.009774 -3.64236,-1.538224 -5.74733,-1.371189 -5.06826,0.403492 -8.83558,4.638253 -8.4123,9.459113 0.32944,3.755959 3.0996,6.755844 6.70114,7.712618 -1.26348,0.705157 -2.3309,1.112019 -2.57199,1.112019 0.04,0.02568 0.0921,0.05557 0.14895,0.09213 0.0147,0.0067 0.032,0.01728 0.0496,0.02606 0.0488,0.03151 0.10686,0.06397 0.16619,0.09593 0.0147,0.0086 0.0328,0.0168 0.0472,0.02568 0.0812,0.04086 0.16494,0.08335 0.25918,0.128329 0.0147,0.0067 0.0324,0.01222 0.0472,0.01938 0.0833,0.03867 0.1683,0.07915 0.25833,0.113597 0.0257,0.01174 0.0535,0.02234 0.0811,0.0316 0.22047,0.09213 0.46871,0.175026 0.74009,0.252438 0.0387,0.0105 0.0795,0.01938 0.11276,0.02988 0.10981,0.02778 0.2213,0.05347 0.33659,0.08115 0.0379,0.0067 0.0766,0.0147 0.11739,0.02311 0.14557,0.02607 0.29788,0.05175 0.45062,0.07027 0.0131,0 0.0261,0.0067 0.0387,0.0067 v 1.090985 c -0.0572,0.0126 -0.10898,0.01852 -0.16241,0.02692 -1.64847,0.271381 -2.71968,0.778798 -3.20395,2.24634 -0.48133,1.473023 0.0131,2.005263 0.7851,3.0386 -0.65214,1.165877 -2.3612,1.601763 -0.13085,4.177543 -0.1624,0.972757 0.0434,2.521932 1.45914,2.991893 0.46197,0.156523 0.84694,0.239826 1.25297,0.310087 l -0.002,19.310369 c -1.41201,0.74807 -2.10875,1.68128 -2.49415,2.55095 0,0 -1.13348,-2.51646 -1.05859,2.4685 1.28789,-0.99926 0.7809,1.15703 0.7809,1.15703 -1.75366,2.27201 0.47375,2.14873 0.47375,2.14873 1.51047,-1.50878 1.20248,0.68371 1.20248,0.68371 0,2.67381 1.08593,3.7202 1.09519,3.72441 v 14.71123 l -1.28284,0.004 0.0122,4.05932 2.24339,-0.004 c -1.25886,0.52256 -2.08941,1.76586 -1.96823,3.14 0.15232,1.73219 1.75239,3.01924 3.57462,2.87871 1.82055,-0.14642 3.17366,-1.66487 3.0184,-3.40127 -0.10307,-1.19828 -0.89701,-2.17608 -1.97664,-2.62543 l 2.07005,-0.006 -0.009,-4.05931 -1.23446,0.006 0.002,-13.05224 c 0.25455,0.13968 0.52971,0.23645 0.82843,0.30166 0.11907,0.0223 0.2373,0.0387 0.3589,0.0467 0.0535,0.009 0.10897,0.009 0.1624,0.0101 -0.33196,-1.71578 0.69297,-2.85304 0.69297,-2.85304 0.52634,-0.79226 1.28746,-1.40991 2.15377,-1.8458 2.59051,-1.29967 6.12558,-0.97107 7.18206,1.14484 6.69443,-1.76459 12.44723,-8.49351 12.44723,-8.49351 l 3.29525,5.60849 c -6.98642,2.33595 -22.20381,15.56491 -11.64067,20.14679 -0.004,1.33375 -0.18259,11.23212 -6.52991,10.44575 -9.14103,-1.1259 -11.42062,2.65614 -9.66528,6.90774 -0.82507,3.58514 1.93583,4.8297 1.93583,4.8297 -0.41443,-2.0709 0.58147,-3.78668 4.35931,-3.7648 -0.0194,3.77784 2.42053,4.45902 2.42053,4.45902 0.0173,-3.23509 2.26527,-4.43336 4.26254,-4.42452 -0.0147,2.66582 3.08234,3.67896 3.08234,3.67896 0,0 -0.7851,-3.07226 2.71589,-3.67896 8.86251,-1.54412 0.53898,-10.65907 14.01659,-13.1709 0,0 -6.71124,-1.01189 -6.71124,-4.68075 0,-3.33943 6.07509,-5.62279 8.16659,-5.62279 4.28946,8.19563 8.9496,8.26042 10.17102,8.31891 1.89964,2.12179 1.26306,9.27356 -1.47933,9.13303 -10.03932,-0.53897 -9.67201,5.56767 -8.54695,6.81686 -0.12832,2.37046 1.71579,3.73955 1.71579,3.73955 0,-2.54086 2.41757,-3.25527 5.51802,-3.0874 -0.16282,3.10381 1.81466,3.56747 1.81466,3.56747 0.0542,-3.12359 2.36499,-3.6533 4.00672,-3.56747 -0.1199,2.18911 2.0528,2.83369 2.0528,2.83369 0,0 -0.21374,-2.77857 2.71127,-2.77857 5.54874,-0.004 -2.50973,-11.89521 8.31974,-23.65578 -9.51297,4.40347 -14.57407,-6.60396 -14.57407,-8.71651 4.88944,5.72166 20.74214,6.86398 20.74214,-2.90985 0,-9.3371 -10.26231,-12.81622 -5.46081,-16.38747 2.79247,-2.076365 8.28399,2.11843 5.14189,6.45165 4.50572,-1.6695 7.01628,-6.03259 5.63794,-9.688425 m -60.80602,0.29453 c -3.5864,2.10875 -5.99094,4.776675 -9.26052,5.943815 -0.49648,0.17418 -0.8924,0.22383 -1.23656,0.20154 V 85.590834 c 0.8663,0.08115 3.11433,0.388768 5.7427,1.475543 2.60313,1.420425 2.60313,4.35636 -0.68202,5.052265 2.07636,3.975593 9.26894,2.029238 10.83662,-1.208793 0.76785,-0.06817 1.44651,1.302618 2.08477,2.598504 -1.00935,0.524239 -3.07477,1.565997 -7.48499,4.161982 z m 40.1425,-30.212207 c -0.39466,0.53519 -0.78343,1.067421 -1.12423,1.52351 0.90964,1.511719 2.6208,2.456712 4.49563,2.283366 2.59092,-0.245297 4.49815,-2.545066 4.26,-5.138518 -0.0138,-0.09423 -0.0269,-0.179238 -0.0395,-0.271381 -0.27769,1.343003 -1.86052,2.480275 -3.87376,2.666243 -1.52435,0.143052 -2.90438,-0.294524 -3.7181,-1.06322 z"
     id="path3465"
     style="fill:#d1d3d4" /><path
     d="m 109.16488,56.490885 c 0,0.0029 -0.007,0.0095 -0.007,0.01556 h -0.002 c 0.0404,-0.09635 0.0829,-0.192699 0.13211,-0.286953 -0.0467,0.08965 -0.0892,0.177557 -0.12411,0.271381 m 0.16535,76.439937 c 0.004,-0.003 0.011,-0.003 0.0122,-0.008 h -9.5e-4 c -0.003,0.006 -0.007,0.006 -0.011,0.008 z m -0.11359,-84.220712 h 0.005 -0.005 z m -1.3712,83.772202 2.24339,-0.003 c -0.2739,0.11443 -0.5213,0.26464 -0.74639,0.44387 0.22299,-0.0854 0.45945,-0.13716 0.71021,-0.13716 1.12507,0 2.03597,0.91133 2.03597,2.03723 0,1.12423 -0.9109,2.03555 -2.03597,2.03555 -0.9109,0 -1.67287,-0.59745 -1.93078,-1.42421 v 0.18429 c 0.15399,1.73639 1.74986,3.02429 3.5742,2.87451 1.81886,-0.14221 3.17155,-1.66489 3.02134,-3.39708 -0.10644,-1.19322 -0.8987,-2.17229 -1.97833,-2.62163 l 2.0688,-0.009 -0.01,-4.05973 -1.23446,0.007 v -13.05267 c -1.20626,-0.62606 -1.90301,-1.9901 -1.63374,-3.39075 0.77248,0 1.46334,0.20069 1.92574,0.51709 -0.71316,1.56895 1.06069,3.23088 1.06069,3.23088 -0.33196,-1.71495 0.69086,-2.84968 0.69086,-2.84968 0.53055,-0.79394 1.29126,-1.41244 2.15378,-1.84916 2.59387,-1.30052 6.12683,-0.97192 7.18331,1.14315 6.69485,-1.76207 12.44807,-8.49394 12.44807,-8.49394 l 3.29694,5.6047 c 7.72776,0 5.03796,-5.78687 4.53307,-6.29134 1.77889,0 4.28104,1.30892 4.28104,4.20741 0,7.11726 -20.6904,8.13126 -20.6904,16.77035 0,3.62721 3.59524,5.00682 3.59524,5.00682 0,7.87671 -5.40863,12.55578 -9.10821,12.55578 -5.91605,0 -10.44618,-1.19828 -10.44618,5.25253 h 2.06248 c -1.9594,1.95898 -0.13085,4.83264 -0.13085,4.83264 -0.41275,-2.06836 0.58609,-3.78078 4.36309,-3.76269 h 2.35657 c -1.49741,1.49658 -0.62269,3.76858 0.0665,4.46197 0.0131,-3.23929 2.25897,-4.43672 4.25875,-4.42495 0.72536,0 1.71031,0 1.71031,0 -0.46534,0.45861 0.28232,2.58799 1.37373,3.67519 0,0 -0.78889,-3.06848 2.71588,-3.67519 8.85957,-1.54412 0.53435,-10.65907 14.01281,-13.17468 0,0 -6.70705,-1.00894 -6.70705,-4.6816 0,-3.33395 6.07215,-5.62237 8.1603,-5.62237 1.64594,-0.23519 3.21362,-0.17586 4.55579,0.11192 0.5457,5.29125 6.61994,5.03417 7.94402,5.03417 5.15324,5.15409 -1.31019,13.42756 -1.31019,13.42756 -7.9091,0 -11.03942,1.0914 -11.03942,5.69726 h 1.497 c -0.83896,0.84317 -0.36311,3.16146 0.21458,3.73998 0,-2.54255 2.42179,-3.25276 5.52223,-3.08909 h 1.63037 c -0.79562,0.79478 -0.65509,2.72809 0.18723,3.56747 0.0463,-3.12402 2.36037,-3.65415 4.00463,-3.56747 h 1.35899 c -0.50867,0.51373 0,2.14241 0.69717,2.84001 0,0 -0.21458,-2.78068 2.70873,-2.78405 5.55085,0 -2.51224,-11.89522 8.32354,-23.65537 -9.51255,4.40559 -14.57786,-6.60522 -14.57786,-8.71818 4.89028,5.72377 20.74635,6.86566 20.74635,-2.90565 0,-7.88385 -7.31375,-11.58932 -6.70788,-14.701975 0.21037,-2.38266 2.20889,-4.250337 4.64961,-4.250337 2.5762,0 4.66434,2.092777 4.66434,4.669397 0,1.964445 -1.20626,3.641945 -2.92457,4.331125 0.004,0 0.004,-0.005 0.004,-0.005 -0.004,0.005 -0.01,0.01 -0.01,0.0181 4.50152,-1.66993 7.01545,-6.034295 5.64215,-9.689266 -1.3855,-3.657934 -6.14114,-5.250865 -10.6334,-3.554848 -1.88198,0.710208 -3.4118,1.884496 -4.45734,3.278837 2.96328,-8.471634 15.05708,-10.266515 15.05708,-18.15164 0,-13.21087 -18.76171,-9.50876 -16.03194,0.0038 0,-0.143052 0.009,-0.284003 0.0261,-0.421584 0.47838,-5.377084 10.09023,-6.476061 10.09023,0.53308 0,5.988417 -12.31049,9.30765 -12.31049,17.36443 0,8.274731 9.09391,10.344361 9.09391,19.052031 0,1.03713 -0.54822,5.50245 -6.58881,5.50245 -5.82896,0 -8.6311,-3.25822 -10.22277,-7.51023 l 0,0 c -2.96917,-5.73597 -1.8786,-14.690205 -5.22182,-18.270296 l 0.26549,-3.682328 c 2.94519,1.807084 10.7571,-2.425157 5.62574,-8.870923 0,3.17324 -6.60607,2.993583 -6.60607,-2.992734 0,-8.103487 7.57167,-3.875027 7.93982,-2.087296 -0.36352,-2.949397 -0.50615,-4.827171 -0.009,-6.521498 -4.08834,1.313139 -4.46449,-1.045538 -3.95581,-1.961497 0.5983,-1.05859 1.38887,-2.290517 2.97717,-2.290517 2.29598,0 2.15041,0.842748 2.02965,2.030078 0.87683,-1.326181 1.12591,-2.322912 3.1665,-4.318494 l -0.0433,-1.498677 1.18397,0.440096 1.15115,-1.84958 c -1.2311,-2.556007 -2.9048,-1.31987 -4.14179,-4.49142 -1.02576,-0.26928 -14.51811,-1.514249 -14.05108,-7.917939 -1.19407,0 -4.4443,4.117374 -2.24508,6.320377 0,0 -1.74061,0 -2.8013,0 -1.49826,0.177137 -4.99464,-0.868411 -7.23845,3.710522 5.52477,-5.523916 9.11117,7.654559 -1.0649,7.654559 v -0.0019 l 0,0 c -1.50162,0.0038 -2.78951,-0.622275 -2.8766,-1.681285 -1.01399,4.448084 5.39643,5.832323 5.39643,5.832323 0,1.321551 -3.2111,8.475844 -4.77164,10.03469 1.05186,1.052279 1.37877,7.404632 -3.48457,7.404632 1.75364,-4.742179 -3.40423,-8.760257 -8.414,-11.41808 0.005,0 0.005,0 0.007,0 -0.90712,-0.345012 -1.7709,-0.764075 -2.57115,-1.268962 -3.07562,-1.405273 -5.57567,-2.196273 -5.57567,-2.196273 v -3.717252 c 1.54664,-0.758595 3.24266,-2.098238 5.00515,-4.337007 1.37708,-1.677494 2.11759,-3.830851 1.91648,-6.119267 -0.0215,-0.273482 -0.0619,-0.538972 -0.11613,-0.806562 -0.0122,-0.08335 -0.0316,-0.162405 -0.0493,-0.245708 -0.0404,-0.184287 -0.0854,-0.365625 -0.13842,-0.542762 -0.024,-0.09042 -0.0496,-0.175446 -0.0811,-0.26506 -0.0581,-0.182607 -0.12455,-0.361004 -0.19271,-0.534351 -0.0303,-0.07361 -0.0556,-0.143892 -0.0858,-0.216673 -0.10057,-0.228884 -0.21079,-0.453988 -0.32692,-0.669821 -0.0463,-0.09213 -0.10309,-0.175036 -0.15147,-0.26297 -0.0812,-0.13211 -0.15988,-0.26296 -0.24445,-0.391289 -0.0703,-0.102656 -0.14052,-0.207842 -0.21584,-0.310087 -0.0745,-0.09804 -0.14937,-0.19901 -0.22888,-0.293255 -0.085,-0.111496 -0.17083,-0.220473 -0.26297,-0.324809 -0.0598,-0.06903 -0.1237,-0.13548 -0.18807,-0.20112 -0.2314,-0.250338 -0.47712,-0.485534 -0.73546,-0.706007 -0.0261,-0.02101 -0.0479,-0.04965 -0.0736,-0.06817 -0.14515,-0.122009 -0.29703,-0.239816 -0.45314,-0.350893 -0.0413,-0.02692 -0.0795,-0.06187 -0.11991,-0.08965 -0.16492,-0.117378 -0.3286,-0.225094 -0.50278,-0.333221 -0.0101,-0.0048 -0.0206,-0.01308 -0.0303,-0.0168 -1.64846,-1.014824 -3.64236,-1.538233 -5.74649,-1.373718 -0.45314,0.03618 -0.89408,0.117388 -1.32533,0.209522 -2.91785,1.118339 -5.04134,4.533917 -5.04134,8.576399 0,3.809397 1.88872,7.057949 4.54486,8.354255 0.0362,0.01012 0.0748,0.02482 0.11276,0.03408 -1.26601,0.705167 -2.33301,1.112438 -2.57536,1.112438 0.0413,0.02607 0.0947,0.05557 0.1523,0.09424 0.0147,0.0067 0.0303,0.0147 0.0472,0.02396 0.0509,0.0295 0.10435,0.05929 0.1683,0.09338 0.0156,0.0086 0.0303,0.01728 0.0479,0.02311 0.0757,0.04039 0.16408,0.08793 0.25581,0.13296 0.0168,0.0048 0.0341,0.0126 0.0472,0.02186 0.0804,0.0379 0.16703,0.07199 0.26086,0.110657 0.0257,0.01098 0.0496,0.02186 0.0774,0.03237 0.22509,0.08879 0.47039,0.175447 0.74471,0.252028 0.0379,0.0086 0.0745,0.01938 0.11318,0.03027 0.10645,0.02778 0.21795,0.05347 0.33323,0.07743 0.0387,0.0105 0.0791,0.0168 0.1199,0.02568 0.14517,0.02778 0.29453,0.05299 0.45146,0.07199 0.011,0 0.0231,0.0019 0.0341,0.0095 0.96644,0.07915 2.10875,-0.160724 2.10875,-0.160724 v 2.156306 c -0.17333,0 -1.69221,-0.489744 -2.10875,-0.906277 -0.0514,0.0076 -0.10687,0.01728 -0.1624,0.02778 -1.64468,0.269281 -2.71673,0.775428 -3.19975,2.2455 -0.48133,1.473023 0.0131,2.005254 0.78468,3.0386 -0.65677,1.161666 -2.36077,1.600082 -0.13463,4.177543 -0.1582,0.970647 0.045,2.523612 1.45913,2.994423 0.46323,0.156514 0.84864,0.235186 1.25297,0.307557 0.83812,0 2.10875,0.700116 2.10875,2.43988 v 16.595337 c 0.76323,0.0442 1.59125,0.14726 2.34396,0.21205 V 82.687638 c 0.86631,0.08335 3.11643,0.391289 5.7406,1.473863 0.0303,0.0147 0.0535,0.0316 0.0795,0.04879 -0.002,-0.0019 -0.005,-0.0019 -0.005,-0.0038 0.23982,0.02941 0.48343,0.08115 0.72452,0.153153 1.74776,0.537282 2.8358,2.054061 2.42767,3.397065 -0.40812,1.340483 -2.16218,1.993472 -3.907,1.45787 2.07258,3.978953 9.26936,2.032188 10.83662,-1.205842 0.76407,-0.06817 1.44398,1.303037 2.08352,2.596813 0,0 1.80245,0.690444 6.26651,0.690444 0,0 -18.07211,11.538006 -23.29898,11.538006 -2.2333,0 -7.18669,0 -7.18669,1.68885 -1.3611,0 -3.32386,2.31324 -3.32386,3.63563 1.28705,-1.00431 2.33554,-1.00431 2.33554,-1.00431 1.0973,0 1.71536,0.32776 1.71536,0.32776 -0.40223,0.39718 -2.20552,2.43231 -2.20552,4.01261 1.51004,-1.51256 2.16892,-1.50625 2.16892,-1.50625 0,0 1.5782,-0.20364 2.14073,0.36183 -0.38035,0.37741 -1.04554,1.74566 -1.04554,3.36425 0,0 0.93657,-1.80792 2.10875,-1.80792 v 17.34676 c 0,0.53013 -2.39359,1.0388 -3.37939,1.0388 m 0.73503,-50.292096 c -0.44556,0.0168 -0.6572,-0.562106 -0.66098,-0.771637 -0.011,-0.212052 0.15609,-0.801932 0.60082,-0.819604 1.05858,-0.03619 3.17617,0.471651 3.18459,0.680343 0.009,0.207001 -2.06626,0.872612 -3.12443,0.910898 z m -0.68212,-2.863144 c -0.61387,-0.04335 -0.81666,-0.873042 -0.79604,-1.164616 0.0194,-0.286104 0.34248,-1.079624 0.95592,-1.034597 1.46544,0.109807 4.30587,1.131371 4.28189,1.419995 -0.018,0.292844 -2.97843,0.887345 -4.44177,0.779218 z m -0.25202,-3.668446 c -0.65005,-0.170825 -0.70349,-1.101506 -0.62481,-1.409063 0.0811,-0.306306 0.58399,-1.090985 1.23656,-0.921849 1.54918,0.406021 4.39718,2.071733 4.31597,2.37719 -0.0791,0.306306 -3.37729,0.359734 -4.92772,-0.04631 z m 4.7994,-10.336365 c 0.26927,-0.642047 0.21205,-1.51887 0.0451,-2.343945 -0.0278,0 -0.0556,0.0019 -0.0837,0.0019 -1.86432,0 -3.37478,-1.511728 -3.37478,-3.37267 -0.0278,-0.318499 0.0173,-0.627325 0.12454,-0.910898 h 0.002 c 0,-0.0067 0.004,-0.01308 0.007,-0.01556 0.40307,-1.411164 1.69812,-2.450401 3.24266,-2.450401 1.85884,0 3.37352,1.511729 3.37352,3.376871 -8.5e-4,2.151256 -1.5151,4.131686 -3.33523,5.714936 z"
     id="path3467"
     style="fill:#034694" /><path
     d="m 163.08547,66.079168 c 0.9029,1.511728 2.61827,2.456712 4.49268,2.282105 2.59513,-0.242347 4.49731,-2.543385 4.26,-5.139778 -0.01,-0.09175 -0.0265,-0.180078 -0.0387,-0.271801 -0.27516,1.341323 -1.86557,2.481535 -3.8746,2.667924 -1.52856,0.143051 -2.90649,-0.295365 -3.72021,-1.063221 -0.39213,0.536871 -0.78552,1.068691 -1.11917,1.524771"
     id="path3469"
     style="fill:#ed1c24" /><path
     d="m 156.78486,57.329002 1.62953,0.08583 -0.81539,1.11833 c -4.2e-4,0 -1.08847,0.344172 -0.81414,-1.204163 m -3.88724,0 h 2.34775 c 0,0 -0.0846,1.894598 1.62953,2.064163 l -0.36394,0.603341 c -4.3e-4,0 -4.60713,-1.204162 -3.61334,-2.667504 z"
     id="path3471"
     style="fill:#ffffff" /><path
     d="m 112.57458,73.514934 c 0.0812,-0.305456 -2.7668,-1.971589 -4.31597,-2.37719 -0.65257,-0.169136 -1.15536,0.615543 -1.23656,0.921849 -0.0791,0.307557 -0.0257,1.238238 0.6248,1.409064 1.55044,0.406011 4.84863,0.352583 4.92773,0.04631 m -0.23351,2.84253 c 0.024,-0.288624 -2.81645,-1.310188 -4.28189,-1.419995 -0.61345,-0.04507 -0.93657,0.748493 -0.95593,1.034597 -0.0206,0.291574 0.18176,1.121279 0.79604,1.164616 1.46292,0.108547 4.42326,-0.485954 4.44178,-0.779218 z m -3.22499,-8.571352 v 1.088885 c 0.41654,0.416953 1.93541,0.906277 2.10876,0.906277 V 67.625 c 4.2e-4,4.21e-4 -1.1419,0.239827 -2.10876,0.161145 z m -0.5945,10.622469 c -0.44473,0.01766 -0.61177,0.607551 -0.60082,0.819604 0.004,0.209531 0.21584,0.788889 0.66098,0.771637 1.05817,-0.0379 3.13284,-0.703897 3.12443,-0.911328 -0.009,-0.208262 -2.12601,-0.716519 -3.18459,-0.679913 z m -2.17944,28.744656 c -1.75156,2.2699 -0.49017,4.34037 -0.49017,4.34037 0,-1.58073 1.8033,-3.61544 2.20553,-4.01262 0,4.3e-4 -0.61766,-0.32775 -1.71536,-0.32775 z m 5.58828,4.81581 c -0.26927,1.40022 0.42748,2.76385 1.63374,3.39075 0.25666,0.13296 0.53518,0.23814 0.82761,0.29579 0.12537,0.0286 0.24276,0.0437 0.36435,0.0577 0.0535,8.4e-4 0.1073,0.002 0.16073,0.004 0,0 -1.77385,-1.66068 -1.06069,-3.23046 -0.46282,-0.31766 -1.15326,-0.51793 -1.92574,-0.51793 z m -3.20563,-46.3283 c -2.65614,-1.296297 -4.54485,-4.544848 -4.54485,-8.353825 0,-4.042063 2.12348,-7.45806 5.04132,-8.576399 -4.38075,0.970657 -7.4711,4.863776 -7.08444,9.252111 0.32776,3.717253 3.04364,6.689793 6.58797,7.678113 z m 28.19978,-9.323212 c 2.81898,-0.530551 3.77534,1.975809 3.77534,2.872825 0,3.397914 -2.64648,4.767002 -4.84023,4.780044 v 0.0019 c 10.17607,0 6.59009,-13.178476 1.06489,-7.654559 z m -6.8017,29.243229 c 4.86336,0 4.53644,-6.351932 3.48459,-7.404632 1.56052,-1.559266 4.77162,-8.713139 4.77162,-10.034689 0,0 -6.41882,-1.38424 -5.3939,-5.838635 -0.002,-0.0029 -0.002,-0.0048 -0.002,-0.0086 l -0.0858,-0.01556 c -1.74943,1.845799 -0.6858,5.695583 2.08941,6.656138 0,0 -1.0712,4.232661 -3.71515,6.916577 -2.63216,-0.102245 -6.32164,-0.448517 -9.56219,-1.688865 5.00935,2.658672 10.16764,6.676751 8.41356,11.418509 z M 111.12428,55.062498 c 1.2576,-0.100556 2.36499,0.79099 2.47228,1.992632 0.10434,1.195751 -0.83223,2.252651 -2.09193,2.352366 -1.26222,0.101395 -2.37172,-0.79015 -2.47228,-1.990532 0,1.860522 1.51046,3.372671 3.37478,3.372671 0.0278,0 0.0556,-0.0019 0.0837,-0.0019 0.16703,0.825065 0.22425,1.701897 -0.045,2.343945 1.82054,-1.58325 3.33479,-3.56368 3.33479,-5.714936 0,-1.865142 -1.51425,-3.376871 -3.3735,-3.376871 -1.55254,0 -2.85263,1.045548 -3.25023,2.465973 0.29494,-0.780898 1.04134,-1.368677 1.96739,-1.443568 z m 35.84004,-2.455452 c -2.19921,-2.203004 1.05102,-6.320377 2.24508,-6.320377 -1.30597,0 -6.96874,3.707571 -5.04637,6.320377 1.06069,0 2.80129,0 2.80129,0 z M 118.62947,89.21368 c 1.7444,0.535601 3.49847,-0.117388 3.90701,-1.457871 0.40854,-1.343003 -0.67992,-2.859783 -2.42768,-3.397064 -0.24108,-0.07199 -0.48469,-0.123699 -0.72452,-0.153153 2.52361,1.438937 2.49416,4.325645 -0.75481,5.008088 z m -5.06068,-18.536197 c 0,0 2.50005,0.790999 5.57567,2.196272 -0.61765,-0.382878 -1.19701,-0.814553 -1.71746,-1.304717 -1.56138,-1.475544 -2.80341,-2.279585 -3.85821,-2.688118 v 1.796563 l 0,0 z m 0.94835,32.156037 c 5.22688,0 23.29899,-11.538435 23.29899,-11.538435 -4.46364,0 -6.26653,-0.690434 -6.26653,-0.690434 -1.00767,0.525089 -3.07561,1.562636 -7.48373,4.15903 -3.58682,2.111284 -5.99094,4.780894 -9.26136,5.945929 -0.49816,0.18049 -0.89408,0.22257 -1.23572,0.20364 -0.7527,-0.0648 -1.58073,-0.16704 -2.34395,-0.21248 V 84.106296 c 0,-1.740183 -1.27064,-2.439879 -2.10876,-2.439879 v 19.311633 c -1.41369,0.74933 -2.10917,1.68043 -2.49163,2.55095 0,0 -2.69485,-0.35931 -2.61786,4.62815 0,-1.32281 1.96276,-3.63604 3.32387,-3.63604 0,-1.68759 4.95339,-1.68759 7.18668,-1.68759 z m 45.07912,26.71498 c -1.32366,0 -7.39832,0.25708 -7.94403,-5.03417 -1.34259,-0.2882 -2.90985,-0.34627 -4.5558,-0.11234 4.29452,8.19606 8.95634,8.26169 10.17607,8.32438 1.89838,2.1176 1.26223,9.26852 -1.48017,9.12463 -10.03932,-0.53476 -9.67117,5.57314 -8.54652,6.82232 0,-4.60544 3.13073,-5.69726 11.03941,-5.69726 4.2e-4,0 6.4647,-8.27347 1.31104,-13.42756 z m 2.06457,19.77613 h -1.359 c -0.11485,2.19417 2.05702,2.84001 2.05702,2.84001 -0.69802,-0.6976 -1.2067,-2.3267 -0.69802,-2.84001 z m -12.70387,3.08909 c -0.57768,-0.57852 -1.05353,-2.89681 -0.21458,-3.7404 h -1.497 c -0.12496,2.37425 1.71158,3.7404 1.71158,3.7404 z m 29.96817,-76.252287 c 0,-7.011242 -9.61563,-5.909745 -10.09023,-0.525929 0.42411,-3.946138 6.84841,-4.528446 6.84841,0.414432 0,5.107804 -11.98146,8.453961 -11.98146,17.086738 0,9.512556 9.51171,10.392746 8.54947,19.089476 -0.16282,1.50542 -1.77594,3.47281 -4.11107,3.47281 -5.00724,0 -7.68736,-2.12518 -9.24369,-5.12843 1.59166,4.25159 4.39297,7.51067 10.22276,7.51067 6.04059,0 6.58882,-4.46492 6.58882,-5.50205 0,-8.70724 -9.09391,-10.7773 -9.09391,-19.052447 8.4e-4,-8.05762 12.3109,-11.376853 12.3109,-17.36527 z M 108.02089,109.9878 c 0,2.68476 1.09519,3.7261 1.09519,3.7261 0,-1.6186 0.6652,-2.98685 1.04555,-3.36425 -0.56212,-0.5659 -2.14074,-0.36185 -2.14074,-0.36185 z m 69.47919,-14.839141 c -2.44073,0 -4.43925,1.867676 -4.64962,4.250336 0.11107,-0.57179 0.49227,-1.12759 1.23656,-1.68381 2.79625,-2.07846 8.27683,2.10791 5.15072,6.434415 1.7183,-0.69003 2.92542,-2.36668 2.92542,-4.331545 9.5e-4,-2.57663 -2.08688,-4.669396 -4.66308,-4.669396 z m -21.39051,54.175971 h -1.63038 c -0.16661,3.10087 1.81761,3.56747 1.81761,3.56747 -0.84191,-0.83938 -0.98243,-2.77311 -0.18723,-3.56747 z m -46.05692,-16.5381 c -0.25202,0 -0.48721,0.0517 -0.71147,0.13717 -0.77501,0.58987 -1.2475,1.50625 -1.21931,2.51141 0.25834,0.82675 1.01988,1.4242 1.93078,1.4242 1.12507,0 2.03597,-0.91132 2.03597,-2.03555 0,-1.1259 -0.9109,-2.03723 -2.03597,-2.03723 z m 11.45301,15.05793 h -2.35657 c -0.0202,3.777 2.42263,4.46196 2.42263,4.46196 -0.68875,-0.69337 -1.56305,-2.9658 -0.0661,-4.46196 z m 7.30786,-23.88508 c 0,-8.63909 20.6904,-9.65308 20.6904,-16.77035 0,-2.89849 -2.50215,-4.20742 -4.28104,-4.20742 0.50363,0.50448 3.19469,6.29135 -4.53308,6.29135 -6.9881,2.33891 -22.20548,15.56661 -11.64276,20.15227 -0.005,1.32955 -0.18387,11.22876 -6.52781,10.4508 -9.13893,-1.13095 -11.41893,2.64689 -9.66486,6.89848 0,-6.4508 4.53013,-5.25253 10.44618,-5.25253 3.69958,0 9.10821,-4.67865 9.10821,-12.55578 0,0 -3.59524,-1.37961 -3.59524,-5.00682 z m -17.58826,5.29461 v -17.34718 c -1.17261,0 -2.10875,1.80793 -2.10875,1.80793 v 14.80001 -0.0947 l -1.28159,0.004 0.011,1.86852 c 0.9858,-4.2e-4 3.3794,-0.5091 3.3794,-1.03881 z m 3.56116,22.35316 c 0,0 -1.82897,-2.87366 0.13085,-4.83264 h -2.06248 c -0.82801,3.58935 1.93163,4.83264 1.93163,4.83264 z m 12.75478,-3.72525 c 0,0 -0.98495,0 -1.71031,0 -0.0131,2.66582 3.08404,3.67519 3.08404,3.67519 -1.09141,-1.08636 -1.83907,-3.21658 -1.37373,-3.67519 z"
     id="path3473"
     style="fill:#6a7ab5" /><line
     x1="211.62306"
     y1="80.16938"
     x2="211.62306"
     y2="80.16938"
     id="line3475"
     style="fill:none" /><path
     d="m 70.008985,119.08169 -0.114018,-0.35006 -0.04879,-0.36436 c -0.167035,-1.2475 -0.468711,-3.57126 -2.262753,-3.98695 -0.479642,-0.1115 -0.975277,-0.0542 -1.504148,0.16324 0.143892,-0.552 0.12706,-1.05185 -0.04631,-1.51004 -0.661401,-1.71999 -3.002835,-1.6981 -4.260846,-1.6817 h -0.369836 l -0.364365,-0.0673 c -1.235717,-0.22762 -3.540956,-0.65804 -4.486789,0.92059 -0.254129,0.42158 -0.355104,0.90964 -0.311768,1.47806 -0.478802,-0.30882 -0.961395,-0.44725 -1.448189,-0.42368 -1.841169,0.098 -2.545066,2.33216 -2.921633,3.53464 l -0.114857,0.34922 -0.170826,0.32439 c -0.603341,1.10781 -1.7221,3.16145 -0.513728,4.55242 0.322709,0.37152 0.756915,0.6206 1.311459,0.75187 -0.438416,0.3631 -0.721579,0.77838 -0.845278,1.25339 -0.480903,1.77638 1.428417,3.13495 2.450821,3.86283 l 0.299995,0.22131 0.25833,0.26129 c 0.866311,0.91679 2.476065,2.61322 4.171232,1.89501 0.448517,-0.19312 0.820453,-0.52761 1.118339,-1.01356 0.212052,0.53013 0.517088,0.9231 0.92815,1.19406 1.544124,1.0001 3.424419,-0.39339 4.435882,-1.13726 l 0.299146,-0.21921 0.33197,-0.16283 c 1.136002,-0.54401 3.252332,-1.54832 3.092448,-3.38318 -0.04249,-0.49227 -0.248237,-0.94414 -0.616383,-1.37709 0.566736,-0.0336 1.035437,-0.20532 1.415794,-0.51373 1.433887,-1.15829 0.687485,-3.37771 0.286944,-4.57135"
     id="path3477"
     style="fill:#ffffff" /><path
     d="m 61.943363,120.56986 c 10.3006,6.08813 7.12821,-0.60672 6.901846,-1.59673 -0.228035,-0.98664 -0.314708,-8.39211 -6.901846,1.59673"
     id="path3479"
     style="fill:#ed1c24" /><path
     d="m 61.295845,122.09378 c -2.606915,11.67305 2.779841,6.59133 3.648673,6.07383 0.868411,-0.52214 7.884694,-2.89513 -3.648673,-6.07383"
     id="path3481"
     style="fill:#ed1c24" /><path
     d="m 59.641905,121.9524 c -11.912035,1.12423 -5.41031,4.67907 -4.646664,5.343 0.765746,0.66183 5.186476,6.60481 4.646664,-5.343"
     id="path3483"
     style="fill:#ed1c24" /><path
     d="m 59.268288,120.33129 c -4.75438,-10.97925 -6.125578,-3.69874 -6.521498,-2.76343 -0.39591,0.92731 -4.682009,6.97211 6.521498,2.76343"
     id="path3485"
     style="fill:#ed1c24" /><path
     d="m 229.41245,117.46857 -0.16998,-0.32439 -0.11655,-0.34923 c -0.37656,-1.2029 -1.08047,-3.43661 -2.91658,-3.53506 -0.49227,-0.0231 -0.97233,0.11402 -1.45113,0.41989 0.0437,-0.56463 -0.0631,-1.05269 -0.31051,-1.47427 -0.95004,-1.57947 -3.25191,-1.14863 -4.48764,-0.92101 l -0.36815,0.0673 h -0.36814 c -1.25339,-0.0164 -3.59693,-0.0379 -4.25581,1.68212 -0.17923,0.45777 -0.19228,0.95804 -0.0517,1.50962 -0.52088,-0.21709 -1.01736,-0.27348 -1.50037,-0.16282 -1.79236,0.41485 -2.10035,2.73903 -2.25896,3.98653 l -0.0551,0.36478 -0.11108,0.35006 c -0.40265,1.19322 -1.14652,3.41264 0.28694,4.5722 0.38036,0.30798 0.8457,0.48007 1.41581,0.51372 -0.36816,0.43295 -0.57348,0.88524 -0.6164,1.37709 -0.15861,1.83486 1.95435,2.83917 3.09246,3.38318 l 0.32859,0.16284 0.29916,0.2192 c 1.01482,0.74471 2.8968,2.13736 4.43587,1.13726 0.41654,-0.27095 0.71905,-0.66393 0.92858,-1.19406 0.29999,0.48595 0.66814,0.82045 1.12086,1.01398 1.69433,0.71779 3.30576,-0.97864 4.17123,-1.89543 l 0.26044,-0.26086 0.29578,-0.22174 c 1.02577,-0.72746 2.93383,-2.08645 2.45461,-3.8624 -0.12833,-0.47628 -0.40601,-0.89072 -0.84738,-1.25381 0.55243,-0.1317 0.98791,-0.38036 1.30893,-0.75187 1.21047,-1.39139 0.0934,-3.44462 -0.51372,-4.55284"
     id="path3487"
     style="fill:#ffffff" /><path
     d="m 220.30633,119.47971 c -8.97021,-7.91373 -1.62532,-6.96917 -0.61554,-7.05794 1.00515,-0.0846 8.07908,-2.29347 0.61554,7.05794"
     id="path3489"
     style="fill:#ed1c24" /><path
     d="m 219.05757,120.56986 c -10.3006,6.08813 -7.13452,-0.60672 -6.90352,-1.59673 0.22593,-0.98664 0.31134,-8.39211 6.90352,1.59673"
     id="path3491"
     style="fill:#ed1c24" /><path
     d="m 219.70257,122.09378 c 2.60818,11.67305 -2.779,6.59133 -3.64951,6.07383 -0.86757,-0.52214 -7.88134,-2.89513 3.64951,-6.07383"
     id="path3493"
     style="fill:#ed1c24" /><path
     d="m 221.3544,121.9524 c 11.91247,1.12423 5.41537,4.67907 4.64878,5.343 -0.76112,0.66183 -5.18817,6.60481 -4.64878,-5.343"
     id="path3495"
     style="fill:#ed1c24" /><path
     d="m 221.7255,120.33129 c 4.75732,-10.97925 6.12558,-3.69874 6.52318,-2.76343 0.39381,0.92731 4.6799,6.97211 -6.52318,2.76343"
     id="path3497"
     style="fill:#ed1c24" /><path
     d="m 224.03958,120.67377 c -0.0114,-0.0955 -0.0421,-0.18092 -0.0551,-0.27348 0.95634,-0.70264 1.98969,-1.45534 1.98969,-1.45534 l -0.0993,-0.22257 c 0,0 -1.20543,0.21037 -2.36162,0.4119 -0.58021,-0.95088 -1.56937,-1.59587 -2.702,-1.70611 -0.35974,-1.0813 -0.71905,-2.1828 -0.71905,-2.1828 l -0.24235,0.0206 c 0,0 -0.16283,1.14779 -0.32692,2.27201 -0.6959,0.18806 -1.32071,0.58188 -1.79572,1.14568 -0.25329,0.30378 -0.43632,0.64752 -0.58189,1.00641 -1.16461,0 -2.39528,0.004 -2.39528,0.004 l -0.0517,0.23983 c 0,0 1.14736,0.55916 2.20721,1.07794 0.004,0.0968 -0.009,0.19228 0,0.28989 0.0813,0.93363 0.51835,1.77174 1.22351,2.38308 -0.37235,1.16377 -0.79141,2.46429 -0.79141,2.46429 l 0.20532,0.12412 c 0,0 0.96645,-1.00095 1.82686,-1.88451 0.44936,0.14768 0.92774,0.20574 1.41117,0.16283 0.48722,-0.037 0.9492,-0.18302 1.36825,-0.40054 0.99758,0.71819 2.12264,1.53191 2.12264,1.53191 l 0.18429,-0.15862 c 0,0 -0.63785,-1.20542 -1.20626,-2.28462 0.58946,-0.72789 0.86714,-1.63459 0.78973,-2.56611"
     id="path3499"
     style="fill:#ffffff" /><path
     d="m 220.28824,118.88141 c -0.56464,0.0437 -1.07331,0.31052 -1.43641,0.74682 -0.3631,0.43253 -0.53897,0.97907 -0.48722,1.54076 0.0985,1.16292 1.12843,2.02755 2.288,1.92489 0.56884,-0.0517 1.07331,-0.31724 1.44145,-0.74808 0.35974,-0.43631 0.53476,-0.97948 0.48723,-1.54496 -0.10141,-1.16336 -1.13264,-2.02461 -2.29305,-1.91943"
     id="path3501"
     style="fill:#ed1c24" /><path
     d="m 60.692083,119.47971 c 8.973159,-7.91373 1.624057,-6.96917 0.617224,-7.05794 -1.010203,-0.0846 -8.082864,-2.29347 -0.617224,7.05794"
     id="path3503"
     style="fill:#ed1c24" /><path
     d="m 64.089148,121.01163 c 1.067422,-0.51836 2.209315,-1.07836 2.209315,-1.07836 l -0.05347,-0.23983 c 0,0 -1.228136,-0.004 -2.395703,-0.004 -0.141361,-0.35847 -0.325229,-0.70264 -0.579778,-1.00599 -0.474601,-0.56379 -1.098976,-0.95719 -1.796572,-1.1461 -0.159871,-1.12488 -0.322705,-2.27141 -0.322705,-2.27141 l -0.246548,-0.0206 c 0,0 -0.357214,1.10066 -0.711478,2.1828 -1.139792,0.11024 -2.130212,0.75524 -2.70958,1.70611 -1.151565,-0.20153 -2.364138,-0.4119 -2.364138,-0.4119 l -0.09338,0.22257 c 0,0 1.030826,0.75271 1.986751,1.45534 -0.01556,0.093 -0.04335,0.1784 -0.05347,0.27306 -0.07905,0.93658 0.204901,1.83822 0.79352,2.56611 -0.573047,1.07836 -1.210893,2.28463 -1.210893,2.28463 l 0.188909,0.15861 c 0,0 1.12296,-0.81371 2.1197,-1.53192 0.419054,0.21879 0.880614,0.35931 1.366567,0.40055 0.487214,0.0437 0.964337,-0.0152 1.413694,-0.16282 0.85789,0.88397 1.823076,1.88449 1.823076,1.88449 l 0.211633,-0.12412 c 0,0 -0.419904,-1.30134 -0.794361,-2.46091 0.703897,-0.61554 1.140623,-1.45366 1.223516,-2.38729 0.01012,-0.0968 -0.0048,-0.19186 -0.0048,-0.28863"
     id="path3505"
     style="fill:#ffffff" /><path
     d="m 62.147424,119.62865 c -0.364365,-0.4363 -0.870512,-0.7039 -1.437677,-0.74681 -1.159136,-0.10519 -2.190373,0.75606 -2.291358,1.91984 -0.04793,0.56548 0.126649,1.10866 0.486384,1.54496 0.363515,0.43084 0.874722,0.69633 1.438938,0.74808 1.159136,0.10266 2.189952,-0.76238 2.290517,-1.92489 0.04755,-0.56211 -0.125809,-1.10865 -0.486804,-1.54118"
     id="path3507"
     style="fill:#ed1c24" /><path
     d="m 62.003532,69.700076 c -5.014819,-0.885664 -9.816746,2.480686 -10.702831,7.495505 -0.884814,5.01819 2.477755,9.819697 7.492995,10.705352 5.01945,0.885244 9.823478,-2.479426 10.706612,-7.496776 C 70.388072,75.388498 67.023402,70.587 62.003532,69.700076"
     id="path3509"
     style="fill:#ffffff" /><path
     d="m 64.095459,76.689434 c -0.08115,-0.04965 -0.222574,-0.141371 -0.39381,-0.254548 -0.757764,-0.502366 -2.243399,-1.484795 -2.284206,-1.514249 -0.205751,-0.141372 -0.406021,-0.276012 -0.603351,-0.408962 -0.66056,-0.442617 -1.25128,-0.827596 -1.806663,-1.148204 -0.214153,-0.121598 -0.421164,-0.235196 -0.629426,-0.337011 -0.883143,-0.445568 -1.729672,-0.714848 -2.728933,-0.802782 -0.770377,0.556224 -1.438938,1.244979 -1.98043,2.041019 2.297668,0.829706 4.541067,2.158407 9.212135,5.059837 0.267171,-0.617644 1.161246,-2.519402 1.214684,-2.6351"
     id="path3511"
     style="fill:#ed1c24" /><path
     d="m 61.941683,81.642405 c 0.09338,-0.232675 0.504046,-1.271903 0.671922,-1.672024 -4.786775,-2.97339 -7.009552,-4.289049 -9.312271,-5.103182 -0.357214,0.641216 -0.624804,1.340903 -0.799411,2.085616 1.314399,1.804563 4.836843,3.577571 9.43976,4.68959"
     id="path3513"
     style="fill:#ed1c24" /><path
     d="m 61.423325,74.0863 c 1.792361,-1.06026 3.828749,-0.771637 5.400647,-0.235195 -0.586098,-0.756905 -1.295886,-1.418315 -2.121381,-1.933303 -1.484795,-0.295365 -3.535495,-0.341642 -5.167973,0.955925 0.59367,0.348793 1.206693,0.755654 1.888707,1.212573"
     id="path3515"
     style="fill:#ed1c24" /><path
     d="m 54.271561,82.650077 c 0.239826,0.164515 0.485534,0.321029 0.746814,0.467871 0.527609,0.291574 1.098976,0.543593 1.689285,0.759435 0.250338,0.09471 0.504887,0.182598 0.761536,0.26549 0.897865,0.295355 2.958238,0.830546 3.111811,0.866302 0.0316,-0.07905 0.803612,-1.988422 1.096446,-2.713781 -3.56873,-0.885235 -7.476573,-2.434409 -9.333313,-4.448924 -0.111488,0.930261 -0.06817,1.85042 0.128329,2.723042 0.391709,0.853269 1.020724,1.533182 1.799092,2.080565"
     id="path3517"
     style="fill:#ed1c24" /><path
     d="m 60.701335,85.755157 -0.744713,-0.191859 c -0.690434,-0.175456 -1.438938,-0.371936 -2.200053,-0.605451 0.371086,0.790999 0.955084,1.407383 1.577779,1.884505 0.834326,0.110657 1.657721,0.08965 2.449141,-0.04717 -0.571797,-0.444713 -1.082154,-1.040063 -1.082154,-1.040063"
     id="path3519"
     style="fill:#ed1c24" /><path
     d="M 68.165295,76.444138 C 67.99574,75.890023 67.773166,75.353162 67.493374,74.852896 66.086411,74.225571 63.943576,73.612549 62.072113,74.528087 l 2.581251,1.704418 c 0.538131,-0.04793 1.033336,-0.06273 1.486475,-0.05175 0.247397,0.0038 0.477122,0.01728 0.696755,0.03867 0.505307,0.04459 0.936572,0.125799 1.328701,0.224674"
     id="path3521"
     style="fill:#ed1c24" /><path
     d="m 66.843745,76.916209 c -0.07533,4.241922 -2.075094,7.513608 -3.798455,9.560518 2.697369,-0.937412 4.824641,-3.262014 5.355201,-6.264849 0.181758,-1.026185 0.149783,-2.035548 -0.04039,-2.996094 -0.419054,-0.13043 -0.92016,-0.239406 -1.51635,-0.299575"
     id="path3523"
     style="fill:#ed1c24" /><path
     d="m 58.890041,72.514412 c 1.207953,-1.064901 2.634689,-1.424626 3.950348,-1.45408 -0.334071,-0.106866 -0.674452,-0.19901 -1.029136,-0.259179 -1.876084,-0.331121 -3.711362,0.01766 -5.270208,0.8621 0.830125,0.162405 1.580299,0.453559 2.348996,0.851159"
     id="path3525"
     style="fill:#ed1c24" /><path
     d="m 64.751818,76.92042 c -0.613863,1.278633 -0.974857,2.061632 -1.274432,2.77395 -0.09214,0.215842 -0.181758,0.425374 -0.272212,0.643317 -0.143052,0.357204 -0.583998,1.467542 -0.583998,1.467542 l -0.26296,0.651729 -1.139792,2.823598 c 0.314297,0.416953 0.695065,0.756914 1.069531,1.022405 1.693487,-1.931623 3.800976,-5.178065 3.865356,-9.427558 -0.426215,-0.01518 -0.894926,4.2e-4 -1.401493,0.04497"
     id="path3527"
     style="fill:#ed1c24" /><path
     d="m 56.90246,84.677214 c -0.568426,-0.195649 -1.136002,-0.418643 -1.672024,-0.679922 0.200271,0.618493 0.488895,1.167566 0.779629,1.638788 0.607972,0.390029 1.275273,0.697595 1.987581,0.917219 -0.46155,-0.520039 -0.859991,-1.135162 -1.095186,-1.876085"
     id="path3529"
     style="fill:#ed1c24" /><path
     d="m 54.394,83.540372 c -0.385399,-0.230985 -0.743873,-0.488064 -1.075843,-0.770377 0.375727,0.671922 0.849059,1.287886 1.398131,1.828117 -0.130429,-0.337011 -0.244876,-0.685804 -0.322288,-1.05774"
     id="path3531"
     style="fill:#ed1c24" /><path
     d="m 210.49632,80.404577 c 0.8865,5.01735 5.68675,8.38202 10.70325,7.496776 5.01777,-0.885235 8.37949,-5.687162 7.49845,-10.705352 -0.88565,-5.014819 -5.68842,-8.381169 -10.70661,-7.495505 -5.01734,0.886504 -8.37949,5.688002 -7.49509,10.704081"
     id="path3533"
     style="fill:#ffffff" /><path
     d="m 215.90033,76.689434 c 0.0795,-0.04965 0.22173,-0.141371 0.39676,-0.254548 0.75859,-0.502366 2.24171,-1.484795 2.27958,-1.514249 0.21036,-0.141372 0.41106,-0.276012 0.60796,-0.408962 0.65342,-0.442617 1.24919,-0.827596 1.80541,-1.148204 0.21374,-0.121598 0.42327,-0.235196 0.62775,-0.337011 0.88103,-0.445568 1.73219,-0.714848 2.72976,-0.802782 0.76996,0.556224 1.44147,1.244979 1.97539,2.041019 -2.29598,0.829706 -4.53265,2.158407 -9.20961,5.059837 -0.26801,-0.617644 -1.15789,-2.519402 -1.213,-2.6351"
     id="path3535"
     style="fill:#ed1c24" /><path
     d="m 218.05579,81.642405 c -0.0947,-0.232675 -0.50868,-1.271903 -0.6673,-1.672024 4.77752,-2.97339 7.00703,-4.289049 9.30807,-5.103182 0.3551,0.641216 0.62438,1.340903 0.79941,2.085616 -1.3165,1.804563 -4.83853,3.577571 -9.44018,4.68959"
     id="path3537"
     style="fill:#ed1c24" /><path
     d="m 218.57414,74.0863 c -1.79404,-1.06026 -3.82875,-0.771637 -5.40317,-0.235195 0.58694,-0.756905 1.30094,-1.418315 2.12601,-1.933303 1.48312,-0.295365 3.53255,-0.341642 5.16293,0.955925 -0.58904,0.348793 -1.20627,0.755654 -1.88577,1.212573"
     id="path3539"
     style="fill:#ed1c24" /><path
     d="m 225.72128,82.650077 c -0.23435,0.164515 -0.47922,0.321029 -0.74513,0.467871 -0.52509,0.291574 -1.09562,0.543593 -1.68466,0.759435 -0.25243,0.09471 -0.50867,0.182598 -0.7649,0.26549 -0.89324,0.295355 -2.95571,0.830546 -3.11054,0.866302 -0.0345,-0.07905 -0.80867,-1.988422 -1.09562,-2.713781 3.56747,-0.885235 7.47237,-2.434409 9.33458,-4.448924 0.11107,0.930261 0.0631,1.85042 -0.13001,2.723042 -0.39297,0.853269 -1.02072,1.533182 -1.80372,2.080565"
     id="path3541"
     style="fill:#ed1c24" /><path
     d="m 219.2974,85.755157 0.73966,-0.191859 c 0.69254,-0.175456 1.44567,-0.371936 2.20722,-0.605451 -0.37657,0.790999 -0.95804,1.407383 -1.57947,1.884505 -0.83307,0.110657 -1.65898,0.08965 -2.44619,-0.04717 0.56505,-0.444718 1.07878,-1.040068 1.07878,-1.040068"
     id="path3543"
     style="fill:#ed1c24" /><path
     d="m 211.83176,76.444138 c 0.17082,-0.554115 0.3896,-1.090976 0.67613,-1.591242 1.40275,-0.627325 3.54096,-1.240347 5.41368,-0.324809 l -2.57873,1.704418 c -0.53896,-0.04793 -1.03376,-0.06273 -1.48815,-0.05175 -0.24404,0.0038 -0.47503,0.01728 -0.6976,0.03867 -0.50447,0.04459 -0.9311,0.125799 -1.32533,0.224674"
     id="path3545"
     style="fill:#ed1c24" /><path
     d="m 213.15373,76.916209 c 0.0732,4.241922 2.07804,7.513608 3.80309,9.560518 -2.70453,-0.937412 -4.83433,-3.262014 -5.35942,-6.264849 -0.18007,-1.026185 -0.15441,-2.035548 0.0421,-2.996094 0.41569,-0.13043 0.92016,-0.239406 1.51425,-0.299575"
     id="path3547"
     style="fill:#ed1c24" /><path
     d="m 221.10953,72.514412 c -1.20879,-1.064901 -2.63847,-1.424626 -3.95202,-1.45408 0.3328,-0.106866 0.6715,-0.19901 1.02955,-0.259179 1.87441,-0.331121 3.70925,0.01766 5.26769,0.8621 -0.82677,0.162405 -1.57863,0.453559 -2.34522,0.851159"
     id="path3549"
     style="fill:#ed1c24" /><path
     d="m 215.24608,76.92042 c 0.61554,1.278633 0.9698,2.061632 1.27947,2.77395 0.0888,0.215842 0.17419,0.425374 0.26465,0.643317 0.14557,0.357204 0.58609,1.467542 0.58609,1.467542 l 0.26128,0.651729 1.14231,2.823598 c -0.3164,0.416953 -0.69422,0.756914 -1.06994,1.022405 -1.69265,-1.931623 -3.80393,-5.178065 -3.86326,-9.427558 0.42412,-0.01518 0.89493,4.2e-4 1.3994,0.04497"
     id="path3551"
     style="fill:#ed1c24" /><path
     d="m 223.09543,84.677214 c 0.56884,-0.195649 1.13222,-0.418643 1.67329,-0.679922 -0.20616,0.618493 -0.4889,1.167566 -0.78384,1.638788 -0.60713,0.390029 -1.27442,0.697595 -1.9838,0.917219 0.46072,-0.520039 0.85874,-1.135162 1.09435,-1.876085"
     id="path3553"
     style="fill:#ed1c24" /><path
     d="m 225.606,83.540372 c 0.38034,-0.230985 0.73966,-0.488064 1.07331,-0.770377 -0.37657,0.671922 -0.84653,1.287886 -1.3977,1.828117 0.12791,-0.337011 0.24318,-0.685804 0.32439,-1.05774"
     id="path3555"
     style="fill:#ed1c24" /></svg>