<?xml version="1.0" encoding="UTF-8" standalone="no"?>
<!-- Created with Inkscape (http://www.inkscape.org/) -->

<svg
   xmlns:dc="http://purl.org/dc/elements/1.1/"
   xmlns:cc="http://creativecommons.org/ns#"
   xmlns:rdf="http://www.w3.org/1999/02/22-rdf-syntax-ns#"
   xmlns:svg="http://www.w3.org/2000/svg"
   xmlns="http://www.w3.org/2000/svg"
   version="1.1"
   width="280"
   height="201"
   id="svg2985"
   xml:space="preserve"><metadata
     id="metadata2991"><rdf:RDF><cc:Work
         rdf:about=""><dc:format>image/svg+xml</dc:format><dc:type
           rdf:resource="http://purl.org/dc/dcmitype/StillImage" /><dc:title></dc:title></cc:Work></rdf:RDF></metadata><defs
     id="defs2989"><clipPath
       id="clipPath3001"><path
         d="m 0,841.89 595.276,0 L 595.276,0 0,0 0,841.89 z"
         id="path3003" /></clipPath><clipPath
       id="clipPath3017"><path
         d="m 0,0 595.275,0 0,841.89 L 0,841.89 0,0 z"
         id="path3019" /></clipPath><clipPath
       id="clipPath3029"><path
         d="m 0,0 595.276,0 0,841.89 L 0,841.89 0,0 z"
         id="path3031" /></clipPath><clipPath
       id="clipPath3037"><path
         d="m -9.50394,851.394 614.28394,0 0,-291.134 -614.28394,0 0,291.134 z"
         id="path3039" /></clipPath><clipPath
       id="clipPath3157"><path
         d="m 0,0 595.276,0 0,841.89 L 0,841.89 0,0 z"
         id="path3159" /></clipPath><clipPath
       id="clipPath3171"><path
         d="m 0,0 595.276,0 0,841.89 L 0,841.89 0,0 z"
         id="path3173" /></clipPath><clipPath
       id="clipPath3193"><path
         d="m 0,0 595.276,0 0,841.89 L 0,841.89 0,0 z"
         id="path3195" /></clipPath><clipPath
       id="clipPath3215"><path
         d="m 0,0 595.276,0 0,841.89 L 0,841.89 0,0 z"
         id="path3217" /></clipPath><clipPath
       id="clipPath3233"><path
         d="m 0,0 595.276,0 0,841.89 L 0,841.89 0,0 z"
         id="path3235" /></clipPath><clipPath
       id="clipPath3247"><path
         d="m 0,0 595.276,0 0,841.89 L 0,841.89 0,0 z"
         id="path3249" /></clipPath><clipPath
       id="clipPath3269"><path
         d="m 0,0 595.276,0 0,841.89 L 0,841.89 0,0 z"
         id="path3271" /></clipPath></defs><g
     transform="matrix(1.25,0,0,-1.25,-816.38185,1555.7576)"
     id="g2993"><g
       id="g3025"><g
         clip-path="url(#clipPath3029)"
         id="g3027"><g
           id="g3033"><g
             id="g3035" /><g
             id="g3041"><g
               clip-path="url(#clipPath3037)"
               id="g3043" /></g></g></g></g><g
       transform="matrix(2.2578142,0,0,2.2578142,-176.91266,-592.6215)"
       id="g3347"><g
         transform="translate(434.8003,810.9784)"
         id="g3047"><path
           d="m 0,0 9.572,-9.36 c 0,0 -4.197,-3.246 -5.068,-8.702 -0.67,-4.349 0.849,-9.018 4.526,-13.896 0,0 4.19,-4.862 4.183,-11.552 0,0 0.569,-9.949 -9.255,-14.879 0,0 -5.183,-2.783 -13.619,-3.554 0,0 -5.474,-0.493 -8.8,-3.636 -3.325,3.143 -8.8,3.636 -8.8,3.636 -8.436,0.771 -13.619,3.554 -13.619,3.554 -9.824,4.93 -9.256,14.879 -9.256,14.879 -0.006,6.69 4.184,11.552 4.184,11.552 3.678,4.878 5.196,9.547 4.526,13.896 -0.871,5.456 -5.068,8.702 -5.068,8.702 L -36.922,0 c 3.445,-2.421 8.435,-2.512 9.162,-2.512 0.059,0 0.089,10e-4 0.089,10e-4 6.267,0.051 9.21,2.396 9.21,2.396 0,0 2.944,-2.345 9.21,-2.396 0,0 0.031,-10e-4 0.089,-10e-4 0.727,0 5.718,0.091 9.162,2.512 M 0.207,2.564 -1.141,1.617 c -2.974,-2.091 -7.513,-2.151 -8.021,-2.151 l -0.055,0 -0.007,0 -0.011,0 c -4.295,0.036 -7.1,1.299 -7.997,1.97 l -1.229,0.83 -1.23,-0.832 c -0.9,-0.671 -3.705,-1.932 -7.997,-1.968 l -0.01,0 -0.01,0 -0.052,0 c -0.508,0 -5.047,0.06 -8.021,2.151 l -1.348,0.947 -1.178,-1.151 -9.573,-9.361 -1.623,-1.588 1.796,-1.389 c 0.029,-0.023 3.595,-2.874 4.325,-7.448 0.583,-3.779 -0.803,-7.938 -4.12,-12.354 -0.526,-0.629 -4.604,-5.746 -4.614,-12.742 -0.017,-0.471 -0.057,-3.107 1.054,-6.284 1.111,-3.173 3.62,-7.549 9.272,-10.394 0.483,-0.253 5.839,-2.988 14.348,-3.766 0.047,-0.004 4.848,-0.484 7.62,-3.102 l 1.361,-1.286 1.362,1.286 c 2.771,2.618 7.572,3.098 7.62,3.102 8.508,0.778 13.865,3.513 14.347,3.766 5.653,2.845 8.161,7.221 9.272,10.393 1.111,3.178 1.072,5.814 1.054,6.285 -0.01,6.996 -4.088,12.113 -4.613,12.742 -3.317,4.415 -4.703,8.574 -4.12,12.364 0.738,4.619 4.288,7.411 4.324,7.438 l 1.797,1.389 -1.624,1.588 -9.573,9.361 -1.178,1.151 z"
           id="path3049"
           style="fill:#fddf12;fill-opacity:1;fill-rule:nonzero;stroke:none" /></g><g
         transform="translate(434.7998,810.9764)"
         id="g3051"><path
           d="m 0,0 9.573,-9.36 c 0,0 -4.198,-3.246 -5.069,-8.701 -0.669,-4.349 0.849,-9.019 4.526,-13.897 0,0 4.19,-4.863 4.184,-11.553 0,0 0.568,-9.948 -9.255,-14.878 0,0 -5.183,-2.783 -13.619,-3.553 0,0 -5.475,-0.493 -8.8,-3.636 -3.325,3.143 -8.801,3.636 -8.801,3.636 -8.436,0.77 -13.619,3.553 -13.619,3.553 -9.824,4.93 -9.255,14.878 -9.255,14.878 -0.006,6.69 4.183,11.553 4.183,11.553 3.678,4.878 5.197,9.548 4.526,13.897 -0.871,5.455 -5.068,8.701 -5.068,8.701 L -36.921,0 c 3.444,-2.421 8.435,-2.511 9.162,-2.511 0.058,0 0.089,0 0.089,0 6.266,0.052 9.21,2.396 9.21,2.396 0,0 2.943,-2.344 9.209,-2.396 0,0 0.031,0 0.089,0 0.728,0 5.718,0.091 9.162,2.511"
           id="path3053"
           style="fill:#204ba0;fill-opacity:1;fill-rule:nonzero;stroke:none" /></g><g
         transform="translate(398.0276,809.5404)"
         id="g3055"><path
           d="m 0,0 c 3.585,-2.091 8.09,-2.205 9.013,-2.205 0.061,0 0.097,10e-4 0.1,10e-4 4.9,0.04 7.921,1.426 9.199,2.176 1.278,-0.75 4.297,-2.137 9.189,-2.176 0,0 0.038,-10e-4 0.11,-10e-4 0.922,0 5.427,0.113 9.012,2.205 l 8.071,-7.892 c -1.389,-1.375 -3.863,-4.344 -4.536,-8.561 -0.718,-4.662 0.877,-9.623 4.74,-14.748 l 0.023,-0.029 0.022,-0.027 c 0.04,-0.045 3.917,-4.649 3.912,-10.817 l 0,-0.032 0.002,-0.034 c 0.005,-0.091 0.42,-9.259 -8.634,-13.804 l -0.014,-0.007 -0.014,-0.007 c -0.05,-0.027 -5.074,-2.682 -13.185,-3.423 -0.222,-0.021 -5.139,-0.494 -8.698,-3.273 -3.559,2.779 -8.476,3.252 -8.698,3.273 -6.461,0.59 -11.451,2.499 -13.185,3.424 l -0.014,0.006 -0.014,0.007 c -3.773,1.895 -6.371,4.776 -7.721,8.566 -1.023,2.87 -0.914,5.219 -0.913,5.239 l 0.002,0.033 0,0.032 c -0.005,6.168 3.872,10.772 3.91,10.816 l 0.023,0.028 0.022,0.029 c 3.865,5.125 5.46,10.087 4.74,14.753 -0.672,4.214 -3.145,7.182 -4.534,8.556 L 0,0 z m 36.772,1.436 c -3.444,-2.42 -8.434,-2.511 -9.161,-2.511 -0.059,0 -0.09,0 -0.09,0 -6.266,0.052 -9.209,2.396 -9.209,2.396 0,0 -2.944,-2.344 -9.21,-2.396 0,0 -0.031,0 -0.089,0 -0.727,0 -5.717,0.091 -9.161,2.511 l -9.574,-9.36 c 0,0 4.198,-3.246 5.068,-8.701 0.671,-4.349 -0.848,-9.019 -4.525,-13.897 0,0 -4.19,-4.863 -4.184,-11.553 0,0 -0.568,-9.948 9.255,-14.878 0,0 5.183,-2.783 13.619,-3.553 0,0 5.476,-0.493 8.801,-3.636 3.325,3.143 8.8,3.636 8.8,3.636 8.436,0.77 13.619,3.553 13.619,3.553 9.824,4.93 9.255,14.878 9.255,14.878 0.007,6.69 -4.183,11.553 -4.183,11.553 -3.678,4.878 -5.196,9.548 -4.526,13.897 0.87,5.455 5.068,8.701 5.068,8.701 l -9.573,9.36 z"
           id="path3057"
           style="fill:#0e224a;fill-opacity:1;fill-rule:nonzero;stroke:none" /></g><g
         transform="translate(399.8831,798.0063)"
         id="g3059"><path
           d="m 0,0 c 0,-0.68 0.067,-1.149 0.168,-1.443 -0.118,0.008 -0.303,0.017 -0.495,0.017 -0.194,0 -0.386,-0.009 -0.521,-0.017 0.076,0.495 0.11,0.998 0.11,1.535 l 0,2.845 c 0,0.773 -0.059,0.924 -0.378,0.924 -0.076,0 -0.185,-0.018 -0.327,-0.051 L -1.888,3.71 C -2.031,3.676 -2.123,3.643 -2.207,3.608 l -0.067,0.051 c 0.067,0.126 0.151,0.336 0.193,0.512 0.235,0.026 0.386,0.042 0.654,0.101 l 0.94,0.201 c 0.168,0.034 0.352,0.084 0.529,0.134 L 0.109,4.54 C 0.033,4.012 0,3.416 0,3.064 L 0,0 z"
           id="path3061"
           style="fill:#ffffff;fill-opacity:1;fill-rule:nonzero;stroke:none" /></g><g
         transform="translate(405.3015,798.1621)"
         id="g3063"><path
           d="m 0,0 c 0,-1.024 -0.848,-1.763 -2.031,-1.763 -1.066,0 -1.804,0.638 -1.804,1.561 0,0.806 0.528,1.267 1.376,1.754 -0.588,0.344 -1.074,0.764 -1.074,1.494 0,0.873 0.763,1.569 1.72,1.569 0.931,0 1.611,-0.596 1.611,-1.401 0,-0.755 -0.52,-1.142 -1.158,-1.494 C -0.697,1.359 0,0.889 0,0 m -3.181,-0.151 c 0,-0.68 0.504,-1.183 1.2,-1.183 0.705,0 1.25,0.511 1.25,1.174 0,0.672 -0.503,1.033 -1.3,1.469 -0.588,-0.285 -1.15,-0.73 -1.15,-1.46 m 2.358,3.348 c 0,0.579 -0.428,1.007 -1.007,1.007 -0.571,0 -0.998,-0.42 -0.998,-0.982 0,-0.621 0.52,-0.956 1.057,-1.267 0.478,0.269 0.948,0.596 0.948,1.242"
           id="path3065"
           style="fill:#ffffff;fill-opacity:1;fill-rule:nonzero;stroke:none" /></g><g
         transform="translate(426.8338,796.5176)"
         id="g3067"><path
           d="m 0,0 3.105,5.279 -2.014,0 C 0.73,5.279 0.361,5.228 0.05,5.002 L -0.033,5.035 C 0.067,5.312 0.151,5.774 0.185,5.984 0.411,5.967 0.646,5.967 0.897,5.967 l 2.208,0 c 0.285,0 0.419,0 0.68,0.025 C 3.793,5.908 3.852,5.514 3.885,5.421 3.424,4.901 2.886,3.978 2.35,3.005 1.586,1.611 1.25,0.781 1.175,-0.059 c 0,0 -0.705,-0.008 -1.125,-0.041 L 0,0 z"
           id="path3069"
           style="fill:#ffffff;fill-opacity:1;fill-rule:nonzero;stroke:none" /></g><g
         transform="translate(435.0701,798.0366)"
         id="g3071"><path
           d="m 0,0 c 0,-1.023 -0.847,-1.762 -2.03,-1.762 -1.066,0 -1.805,0.638 -1.805,1.561 0,0.805 0.529,1.267 1.377,1.753 -0.588,0.345 -1.075,0.764 -1.075,1.494 0,0.873 0.764,1.57 1.721,1.57 0.931,0 1.611,-0.596 1.611,-1.402 0,-0.755 -0.52,-1.141 -1.158,-1.493 C -0.696,1.36 0,0.89 0,0 m -3.181,-0.151 c 0,-0.68 0.505,-1.183 1.201,-1.183 0.705,0 1.25,0.512 1.25,1.175 0,0.671 -0.503,1.032 -1.3,1.468 -0.588,-0.285 -1.151,-0.73 -1.151,-1.46 m 2.359,3.349 c 0,0.579 -0.428,1.007 -1.007,1.007 -0.571,0 -0.999,-0.42 -0.999,-0.982 0,-0.621 0.52,-0.957 1.058,-1.267 0.478,0.269 0.948,0.596 0.948,1.242"
           id="path3073"
           style="fill:#ffffff;fill-opacity:1;fill-rule:nonzero;stroke:none" /></g><g
         transform="translate(430.0247,772.7619)"
         id="g3075"><path
           d="m 0,0 c 0.032,-0.072 -0.08,-0.181 -0.532,-0.265 0,0 -1.047,-0.193 -2.182,-0.11 l 0,13.881 c 1.067,0.476 0.82,1.319 0.82,1.319 1.649,1.199 -0.114,2.621 -0.114,2.621 -1.249,1.056 -3.195,1.583 -3.195,1.583 l -7.268,12.052 c -0.169,0.278 -0.3,0.419 -0.396,0.492 0.074,0.134 0.115,0.286 0.115,0.449 0,0.518 -0.42,0.939 -0.933,0.939 -0.516,0 -0.936,-0.421 -0.936,-0.939 0,-0.136 0.028,-0.264 0.08,-0.38 -0.269,-0.256 -0.397,-0.518 -0.397,-0.518 l -7.646,-12.21 c -2.026,-0.695 -2.88,-1.727 -2.88,-1.727 -1.137,-1.366 0.023,-2.198 0.023,-2.198 -0.492,-1.274 0.813,-1.884 0.813,-1.884 l 0,-12.415 c -1.134,-0.084 -2.181,0.109 -2.181,0.109 -0.453,0.084 -0.567,0.196 -0.532,0.265 -0.427,-0.877 0.831,-2.379 13.997,-3.245 C -6.25,-2.648 0.547,-1.567 0,0"
           id="path3077"
           style="fill:#0e224a;fill-opacity:1;fill-rule:nonzero;stroke:none" /></g><g
         transform="translate(412.5244,759.8083)"
         id="g3079"><path
           d="m 0,0 c -0.143,-0.52 -0.181,-0.652 -0.303,-1.092 -0.684,-0.222 -1.539,-0.442 -2.328,-0.442 -2.293,0 -3.752,1.56 -3.752,3.848 0,2.319 1.474,3.924 3.603,3.924 1.831,0 2.978,-1.1 2.978,-2.884 0,-0.147 0,-0.787 -0.257,-0.787 l -1.903,0 c -0.773,0 -1.86,-0.015 -2.352,-0.044 0.031,-1.769 0.983,-2.78 2.576,-2.78 0.64,0 1.019,0.124 1.548,0.49 C -0.068,0.318 0.067,0.241 0,0 m -2.617,3.488 c 0.641,0.015 0.894,0.209 0.894,0.684 0,0.699 -0.506,1.204 -1.177,1.204 -0.952,0 -1.354,-0.713 -1.429,-1.932 l 1.712,0.044 z"
           id="path3081"
           style="fill:#ffffff;fill-opacity:1;fill-rule:nonzero;stroke:none" /></g><g
         transform="translate(415.3625,764.1809)"
         id="g3083"><path
           d="M 0,0 0.543,0.708 C 1.222,1.596 1.69,1.883 2.399,1.883 2.655,1.883 2.775,1.861 3.047,1.741 2.834,0.976 2.612,0.172 2.482,-0.295 2.455,-0.396 2.362,-0.533 2.226,-0.379 1.938,-0.06 1.886,0.061 1.539,0.061 1.116,0.061 0.769,-0.166 0.513,-0.587 0.302,-0.933 0.211,-1.221 0.211,-1.943 l 0,-1.22 c 0,-1.295 0.091,-1.837 0.302,-2.484 -0.241,0.015 -0.725,0.029 -1.192,0.029 -0.468,0 -0.936,-0.014 -1.222,-0.029 0.135,0.873 0.181,1.596 0.181,2.681 l 0,1.806 c 0,0.724 -0.061,2.018 -0.317,2.817 0.574,0 1.463,0.03 2.067,0.06 L 0,0 z"
           id="path3085"
           style="fill:#ffffff;fill-opacity:1;fill-rule:nonzero;stroke:none" /></g><g
         transform="translate(418.9198,764.8689)"
         id="g3087"><path
           d="M 0,0 C 0.012,0.047 0.201,0.726 0.269,0.97 0.461,0.951 0.821,0.942 1.185,0.942 c 0,0.59 -0.03,0.909 -0.061,1.364 0.531,0.151 1.495,0.588 1.91,0.849 C 3.187,3.253 3.266,3.114 3.253,2.952 3.239,2.774 3.135,2.275 3.113,0.942 l 1.048,0 c 0.364,0 0.772,0.014 1.153,0.105 C 5.37,1.06 5.454,1.032 5.421,0.911 5.362,0.7 5.19,0.08 5.119,-0.177 4.534,-0.108 4.176,-0.104 3.781,-0.104 l -0.668,0 C 3.082,-0.604 3.068,-1.211 3.068,-1.635 l 0,-1.713 c 0,-1.152 0.121,-2 1.123,-2 0.319,0 0.576,0.072 0.972,0.272 0.063,0.032 0.219,0.025 0.163,-0.175 C 5.233,-5.584 5.149,-5.891 5.043,-6.271 4.142,-6.51 3.766,-6.576 3.281,-6.576 c -1.292,0 -2.126,0.56 -2.126,2.409 l 0,2.305 c 0,0.742 0,1.273 -0.031,1.772 C 0.729,-0.09 0.306,-0.137 0.1,-0.173 0.056,-0.181 -0.045,-0.162 0,0"
           id="path3089"
           style="fill:#ffffff;fill-opacity:1;fill-rule:nonzero;stroke:none" /></g><g
         transform="translate(396.2044,764.7126)"
         id="g3091"><path
           d="M 0,0 C 0.907,0 1.819,0.066 2.174,0.12 2.324,0.141 2.293,0.015 2.293,0.015 2.182,-0.385 2.032,-0.924 1.935,-1.274 0.982,-1.185 0.461,-1.159 -0.193,-1.159 l -1.057,0 0,-2.11 c 0,-1.367 0.148,-1.813 1.771,-1.813 0.923,0 1.415,-0.006 2.41,0.754 0.178,0.135 0.393,0.057 0.293,-0.305 -0.101,-0.36 -0.419,-1.51 -0.445,-1.604 -1.67,0.057 -2.779,0.07 -3.761,0.07 -1.236,0 -2.04,0 -2.71,-0.015 0.119,0.788 0.208,1.694 0.208,2.824 l 0,4.666 c 0,0.758 -0.029,2.199 -0.297,2.869 0.506,-0.031 0.848,-0.031 1.221,-0.031 l 2.798,0 c 0.998,0 1.399,0.031 2.487,0.044 C 2.527,3.479 2.318,2.726 2.239,2.438 2.159,2.152 2.008,2.367 1.98,2.408 1.518,3.076 0.625,3.151 -0.223,3.151 -0.492,3.151 -0.804,3.136 -1.176,3.121 -1.191,2.868 -1.235,2.155 -1.235,1.516 L -1.235,0 0,0 z"
           id="path3093"
           style="fill:#ffffff;fill-opacity:1;fill-rule:nonzero;stroke:none" /></g><g
         transform="translate(402.6038,758.5603)"
         id="g3095"><path
           d="M 0,0 C -0.298,0 -0.671,-0.015 -0.956,-0.03 -1.06,0.626 -1.179,1.043 -1.403,1.698 l -0.985,3.01 C -2.687,5.603 -3.045,6.585 -3.701,7.345 -2.717,7.316 -1.94,7.36 -1,7.435 -0.941,6.705 -0.777,6.004 -0.567,5.304 L -0.015,3.412 C 0.12,2.966 0.403,1.967 0.403,1.967 0.507,2.295 0.626,2.607 0.731,2.891 l 0.866,2.234 c 0.149,0.388 0.343,0.984 0.402,1.594 0,0.209 0.016,0.403 0,0.656 C 2.209,7.36 2.597,7.36 2.911,7.36 3.209,7.36 3.694,7.397 3.922,7.427 4.127,7.454 4.098,7.327 4.03,7.241 3.517,6.59 3.104,5.707 2.717,4.797 L 1.299,1.505 C 1.074,0.969 0.97,0.582 0.836,-0.015 0.687,0 0.343,0 0,0"
           id="path3097"
           style="fill:#ffffff;fill-opacity:1;fill-rule:nonzero;stroke:none" /></g><g
         transform="translate(424.4942,762.0217)"
         id="g3099"><path
           d="M 0,0 C 0,2.343 1.42,4.042 4.079,4.042 6.44,4.042 7.77,2.7 7.77,0.374 7.77,-2.133 6.186,-3.729 3.721,-3.729 1.374,-3.729 0,-2.356 0,0 m 5.649,0 c 0,2.074 -0.644,3.192 -1.809,3.192 -1.24,0 -1.718,-1.118 -1.718,-2.894 0,-2.088 0.627,-3.192 1.763,-3.192 1.15,0 1.764,0.984 1.764,2.894"
           id="path3101"
           style="fill:#ffffff;fill-opacity:1;fill-rule:nonzero;stroke:none" /></g><g
         transform="translate(433.0129,763.2654)"
         id="g3103"><path
           d="m 0,0 c 0,0.73 -0.061,1.841 -0.32,2.647 0.671,0 1.601,0 2.242,0.062 L 1.876,1.4 2.485,1.917 C 3.233,2.541 3.843,2.8 4.605,2.8 6.344,2.8 6.938,1.826 6.938,0.106 l 0,-1.963 c 0,-1.385 0.092,-2.223 0.305,-2.877 -0.244,0.015 -0.747,0.029 -1.219,0.029 -0.488,0 -0.976,-0.014 -1.235,-0.029 0.137,0.821 0.182,1.78 0.182,2.877 l 0,1.323 C 4.971,0.349 4.91,1.369 3.66,1.369 3.218,1.369 2.775,1.187 2.44,0.867 2.059,0.487 1.952,0.167 1.952,-0.777 l 0,-1.08 c 0,-1.385 0.092,-2.223 0.305,-2.877 -0.228,0.015 -0.732,0.029 -1.205,0.029 -0.503,0 -0.976,-0.014 -1.235,-0.029 C -0.046,-3.913 0,-2.954 0,-1.857 L 0,0 z"
           id="path3105"
           style="fill:#ffffff;fill-opacity:1;fill-rule:nonzero;stroke:none" /></g><g
         transform="translate(405.2026,788.2833)"
         id="g3107"><path
           d="m 0,0 c 0,0 1.912,2.556 11.256,2.454 0,0 8.662,0.278 11.337,-2.513 0,0 0.679,0.498 0,1.25 0,0 -1.715,2.311 -11.292,2.414 C 11.301,3.605 3,3.805 0,1.152 0,1.152 -0.502,0.645 0,0"
           id="path3109"
           style="fill:#ffffff;fill-opacity:1;fill-rule:nonzero;stroke:none" /></g><g
         transform="translate(412.8659,774.1852)"
         id="g3111"><path
           d="m 0,0 c -2.329,0.039 -2.063,-1.362 -2.063,-1.362 3.104,-0.431 9.616,-0.462 14.935,0.303 l 0,1.452 C 8.674,-0.11 6.532,-0.187 0,0"
           id="path3113"
           style="fill:#ffffff;fill-opacity:1;fill-rule:nonzero;stroke:none" /></g><g
         transform="translate(413.8598,796.186)"
         id="g3115"><path
           d="m 0,0 c 0,0 4.033,0.765 7.734,-0.927 0,0 -1.55,2.438 -5.476,2.281 C 2.258,1.354 -0.009,1.289 0,0"
           id="path3117"
           style="fill:#ffffff;fill-opacity:1;fill-rule:nonzero;stroke:none" /></g><g
         transform="translate(412.881,793.3647)"
         id="g3119"><path
           d="m 0,0 c 0,0 5.928,0.689 10.261,-0.875 0,0 -1.417,2.758 -8.504,2.183 C 1.757,1.308 0.189,1.174 0,0"
           id="path3121"
           style="fill:#ffffff;fill-opacity:1;fill-rule:nonzero;stroke:none" /></g><g
         transform="translate(416.6803,789.1738)"
         id="g3123"><path
           d="m 0,0 c 0,0 7.586,0.115 10.651,-1.925 0,0 0.126,-0.088 0.231,0.024 0,0 0.081,0.121 -0.03,0.221 0,0 -2.086,2.249 -10.852,2.246 0,0 -8.783,0.198 -11.419,-2.442 0,0 -0.164,-0.139 -0.023,-0.276 0,0 0.102,-0.092 0.199,0 0,0 2.086,2.237 11.243,2.152"
           id="path3125"
           style="fill:#ffffff;fill-opacity:1;fill-rule:nonzero;stroke:none" /></g><g
         transform="translate(416.5756,802.6362)"
         id="g3127"><path
           d="m 0,0 c 0,0 -0.781,0.105 -1.092,-0.958 0,0 1.012,0.244 2.16,-0.219 0,0 -0.421,1.165 -1.068,1.177"
           id="path3129"
           style="fill:#ffffff;fill-opacity:1;fill-rule:nonzero;stroke:none" /></g><g
         transform="translate(414.6149,798.9141)"
         id="g3131"><path
           d="m 0,0 c 0,0 2.731,0.53 4.971,-0.587 0,0 -1.231,2.026 -3.131,1.897 C 1.84,1.31 0.156,1.362 0,0"
           id="path3133"
           style="fill:#ffffff;fill-opacity:1;fill-rule:nonzero;stroke:none" /></g><g
         transform="translate(425.7376,784.9562)"
         id="g3135"><path
           d="M 0,0 0,1.329 C -4.354,2.84 -10.547,2.5 -11.143,2.505 -15.631,2.544 -14.946,0.679 -14.946,0.679 -13.193,0.993 -6.694,1.447 0,0"
           id="path3137"
           style="fill:#ffffff;fill-opacity:1;fill-rule:nonzero;stroke:none" /></g><g
         transform="translate(430.0247,772.7619)"
         id="g3139"><path
           d="M 0,0 C -0.064,0.184 -0.435,0.177 -0.586,0.159 -1.161,0.095 -1.725,0.034 -2.104,0.034 c -0.066,0 -0.128,0.001 -0.185,0.002 l 0,13.21 c 0.678,0.399 0.854,0.977 0.846,1.394 0.437,0.379 0.665,0.817 0.677,1.306 0.025,0.996 -0.875,1.751 -0.977,1.834 -1.096,0.927 -2.669,1.457 -3.183,1.613 l -7.183,11.91 c -0.09,0.148 -0.177,0.273 -0.263,0.376 0.029,0.111 0.043,0.227 0.043,0.343 0,0.754 -0.608,1.367 -1.356,1.367 -0.75,0 -1.36,-0.613 -1.36,-1.367 0,-0.09 0.008,-0.18 0.025,-0.267 -0.16,-0.189 -0.253,-0.354 -0.287,-0.418 l -7.557,-12.069 c -2.013,-0.723 -2.888,-1.763 -2.925,-1.807 -0.457,-0.548 -0.654,-1.103 -0.586,-1.646 0.056,-0.439 0.273,-0.76 0.449,-0.956 -0.234,-0.978 0.363,-1.669 0.874,-2.004 l 0,-11.755 -0.186,-0.002 c -0.379,0 -0.942,0.063 -1.518,0.126 -0.151,0.017 -0.498,0.021 -0.585,-0.16 -0.035,-0.069 0.079,-0.181 0.532,-0.265 0,0 1.047,-0.193 2.181,-0.109 l 0,12.415 c 0,0 -1.305,0.61 -0.813,1.884 0,0 -1.16,0.832 -0.023,2.198 0,0 0.854,1.032 2.88,1.727 l 7.646,12.21 c 0,0 0.128,0.262 0.397,0.518 -0.052,0.116 -0.08,0.244 -0.08,0.38 0,0.518 0.42,0.939 0.936,0.939 0.513,0 0.933,-0.421 0.933,-0.939 0,-0.163 -0.041,-0.315 -0.115,-0.449 0.096,-0.073 0.227,-0.214 0.396,-0.492 l 7.268,-12.052 c 0,0 1.946,-0.527 3.195,-1.583 0,0 1.763,-1.422 0.114,-2.621 0,0 0.247,-0.843 -0.82,-1.319 l 0,-13.881 c 1.135,-0.083 2.182,0.11 2.182,0.11 0.421,0.077 0.546,0.178 0.536,0.25 C 0.003,-0.01 0.002,-0.004 0,0"
           id="path3141"
           style="fill:#ffffff;fill-opacity:1;fill-rule:nonzero;stroke:none" /></g><g
         transform="translate(410.8056,782.3873)"
         id="g3143"><path
           d="m 0,0 c 1.114,0.056 2.208,0.089 3.268,0.105 l 0,1.57 C 2.871,1.668 2.469,1.661 2.064,1.649 -0.238,1.614 0,0 0,0"
           id="path3145"
           style="fill:#ffffff;fill-opacity:1;fill-rule:nonzero;stroke:none" /></g><g
         transform="translate(425.7376,782.0455)"
         id="g3147"><path
           d="m 0,0 0,1.451 c -2.063,0.434 -4.007,0.524 -7.224,0.631 l 0,-1.66 C -3.611,0.422 -0.616,0.062 0,0"
           id="path3149"
           style="fill:#ffffff;fill-opacity:1;fill-rule:nonzero;stroke:none" /></g><path
         d="m 415.327,781.491 1.999,0 0,0.427 -1.999,0 0,-0.427 z"
         id="path3151"
         style="fill:#ffffff;fill-opacity:1;fill-rule:nonzero;stroke:none" /><g
         id="g3153"><g
           clip-path="url(#clipPath3157)"
           id="g3155"><g
             transform="translate(412.8661,777.4435)"
             id="g3161"><path
               d="m 0,0 c -2.311,0.011 -2.064,-1.421 -2.064,-1.421 3.438,-0.271 9.204,-0.338 14.936,0.099 l 0,1.445 C 11.822,0.092 6.43,-0.051 0,0"
               id="path3163"
               style="fill:#ffffff;fill-opacity:1;fill-rule:nonzero;stroke:none" /></g></g></g><path
         d="m 417.326,784.956 -1.999,0 0,-2.446 1.999,0 0,2.446 z"
         id="path3165"
         style="fill:#ffffff;fill-opacity:1;fill-rule:nonzero;stroke:none" /><g
         id="g3167"><g
           clip-path="url(#clipPath3171)"
           id="g3169"><g
             transform="translate(412.8803,780.8263)"
             id="g3175"><path
               d="m 0,0 c -2.241,0 -2.109,-1.646 -2.109,-1.646 6.793,0.104 12.925,-0.057 14.972,-0.121 L 12.828,-0.26 C 10.984,-0.041 5.884,0.045 0,0"
               id="path3177"
               style="fill:#ffffff;fill-opacity:1;fill-rule:nonzero;stroke:none" /></g></g></g></g></g></svg>