<?xml version="1.0" encoding="UTF-8" standalone="no"?>
<!-- Created with Inkscape (http://www.inkscape.org/) -->

<svg
   xmlns:dc="http://purl.org/dc/elements/1.1/"
   xmlns:cc="http://creativecommons.org/ns#"
   xmlns:rdf="http://www.w3.org/1999/02/22-rdf-syntax-ns#"
   xmlns:svg="http://www.w3.org/2000/svg"
   xmlns="http://www.w3.org/2000/svg"
   xmlns:xlink="http://www.w3.org/1999/xlink"
   version="1.1"
   width="280"
   height="200"
   id="svg38242">
  <defs
     id="defs38244">
    <linearGradient
       id="linearGradient41025">
      <stop
         id="stop41027"
         style="stop-color:#ffe500;stop-opacity:1"
         offset="0" />
      <stop
         id="stop41029"
         style="stop-color:#ffe500;stop-opacity:1"
         offset="0.49999997" />
      <stop
         id="stop41031"
         style="stop-color:#e15007;stop-opacity:1"
         offset="1" />
    </linearGradient>
    <linearGradient
       id="linearGradient39856">
      <stop
         id="stop39858"
         style="stop-color:#da030e;stop-opacity:0"
         offset="0" />
      <stop
         id="stop39864"
         style="stop-color:#da020e;stop-opacity:0"
         offset="0.875" />
      <stop
         id="stop39860"
         style="stop-color:#da020e;stop-opacity:1"
         offset="1" />
    </linearGradient>
    <linearGradient
       id="linearGradient39839">
      <stop
         id="stop39841"
         style="stop-color:#740703;stop-opacity:1"
         offset="0" />
      <stop
         id="stop39843"
         style="stop-color:#da020e;stop-opacity:0"
         offset="1" />
    </linearGradient>
    <linearGradient
       id="linearGradient39809">
      <stop
         id="stop39811"
         style="stop-color:#8f0904;stop-opacity:1"
         offset="0" />
      <stop
         id="stop41142"
         style="stop-color:#b40509;stop-opacity:1"
         offset="0.24960083" />
      <stop
         id="stop39813"
         style="stop-color:#da020e;stop-opacity:1"
         offset="1" />
    </linearGradient>
    <linearGradient
       x1="476.06961"
       y1="403.81436"
       x2="476.06961"
       y2="458.88077"
       id="linearGradient39815"
       xlink:href="#linearGradient39809"
       gradientUnits="userSpaceOnUse"
       gradientTransform="translate(7.179001,49.859679)"
       spreadMethod="reflect" />
    <linearGradient
       x1="368.06281"
       y1="470.93954"
       x2="399.48285"
       y2="507.00201"
       id="linearGradient39837"
       xlink:href="#linearGradient39839"
       gradientUnits="userSpaceOnUse"
       gradientTransform="translate(7.179001,49.859679)" />
    <linearGradient
       x1="368.06281"
       y1="470.93954"
       x2="399.48285"
       y2="507.00201"
       id="linearGradient39849"
       xlink:href="#linearGradient39839"
       gradientUnits="userSpaceOnUse"
       gradientTransform="matrix(-1,0,0,1,964.5366,49.859679)" />
    <radialGradient
       cx="360.50748"
       cy="438.59348"
       r="18.755779"
       fx="360.50748"
       fy="438.59348"
       id="radialGradient39872"
       xlink:href="#linearGradient39856"
       gradientUnits="userSpaceOnUse"
       gradientTransform="matrix(1.0406506,0,0,1.0236802,-7.475836,39.473715)" />
    <radialGradient
       cx="360.50748"
       cy="438.59348"
       r="18.755779"
       fx="360.50748"
       fy="438.59348"
       id="radialGradient39876"
       xlink:href="#linearGradient39856"
       gradientUnits="userSpaceOnUse"
       gradientTransform="matrix(1.0406506,0,0,1.0236802,230.18041,39.37996)" />
    <linearGradient
       x1="600.95312"
       y1="404.57532"
       x2="583.94867"
       y2="388.57532"
       id="linearGradient39886"
       xlink:href="#linearGradient39839"
       gradientUnits="userSpaceOnUse"
       gradientTransform="translate(7.179001,49.859679)" />
    <linearGradient
       x1="600.95312"
       y1="404.57532"
       x2="582.94867"
       y2="385.57532"
       id="linearGradient39892"
       xlink:href="#linearGradient39839"
       gradientUnits="userSpaceOnUse"
       gradientTransform="matrix(-1,0,0,1,965.071,49.859679)" />
    <radialGradient
       cx="446.41611"
       cy="291.62723"
       r="14.722825"
       fx="446.41611"
       fy="291.62723"
       id="radialGradient41023"
       xlink:href="#linearGradient41025"
       gradientUnits="userSpaceOnUse"
       gradientTransform="matrix(0.81452549,0,0,0.77554538,90.98007,117.08899)"
       spreadMethod="pad" />
    <radialGradient
       cx="446.41611"
       cy="291.62723"
       r="14.722825"
       fx="446.41611"
       fy="291.62723"
       id="radialGradient41037"
       xlink:href="#linearGradient41025"
       gradientUnits="userSpaceOnUse"
       gradientTransform="matrix(-0.81452549,0,0,0.77554538,881.26995,117.08899)"
       spreadMethod="pad" />
    <radialGradient
       cx="478.89362"
       cy="288.51892"
       r="8.2664204"
       fx="478.89362"
       fy="288.51892"
       id="radialGradient41055"
       xlink:href="#linearGradient41025"
       gradientUnits="userSpaceOnUse"
       gradientTransform="matrix(1.0959884,0,0,1.0475722,-38.736843,35.460809)"
       spreadMethod="pad" />
    <radialGradient
       cx="357.13959"
       cy="347.09683"
       r="8.5290184"
       fx="357.13959"
       fy="347.09683"
       id="radialGradient41082"
       xlink:href="#linearGradient41025"
       gradientUnits="userSpaceOnUse"
       gradientTransform="matrix(1.0879339,-1.9052629,1.6760207,0.95703318,-602.86159,752.39372)" />
    <linearGradient
       x1="357.73038"
       y1="346.82816"
       x2="362.27914"
       y2="351.82816"
       id="linearGradient41090"
       xlink:href="#linearGradient41025"
       gradientUnits="userSpaceOnUse"
       gradientTransform="translate(7.179001,49.859679)" />
    <radialGradient
       cx="357.13959"
       cy="347.09683"
       r="8.5290184"
       fx="357.13959"
       fy="347.09683"
       id="radialGradient41096"
       xlink:href="#linearGradient41025"
       gradientUnits="userSpaceOnUse"
       gradientTransform="matrix(-1.0879339,-1.9052629,-1.6760207,0.95703318,1575.1116,752.39372)" />
    <linearGradient
       x1="357.73038"
       y1="346.82816"
       x2="362.27914"
       y2="351.82816"
       id="linearGradient41098"
       xlink:href="#linearGradient41025"
       gradientUnits="userSpaceOnUse"
       gradientTransform="matrix(-1,0,0,1,965.071,49.859679)" />
    <clipPath
       id="clipPath41116">
      <path
         d="m 423.57208,366.83504 0,115.7669 55.35354,35.56679 55.34943,-35.56679 0.0823,-115.59001 c -1.773,-1.5632 -5.45473,-4.98988 -8.33841,-6.78344 l -94.44164,0 c -2.39004,1.67837 -7.17835,5.718 -8.0052,6.60655 z"
         id="path41118"
         style="fill:#ffe500;fill-opacity:1;stroke:none" />
    </clipPath>
    <filter
       color-interpolation-filters="sRGB"
       id="filter41136">
      <feGaussianBlur
         stdDeviation="3.0914156"
         id="feGaussianBlur41138" />
    </filter>
    <radialGradient
       cx="452.37601"
       cy="563.3623"
       r="12.24228"
       fx="452.37601"
       fy="563.3623"
       id="radialGradient41150"
       xlink:href="#linearGradient41025"
       gradientUnits="userSpaceOnUse"
       gradientTransform="matrix(0.85678822,1.2551433e-7,-1.1285383e-7,0.77036487,71.96465,179.22742)" />
    <radialGradient
       cx="452.37601"
       cy="563.3623"
       r="12.24228"
       fx="452.37601"
       fy="563.3623"
       id="radialGradient41154"
       xlink:href="#linearGradient41025"
       gradientUnits="userSpaceOnUse"
       gradientTransform="matrix(-0.85678822,1.2551433e-7,1.1285383e-7,0.77036487,902.03535,179.22742)" />
    <radialGradient
       cx="479.62494"
       cy="566.7077"
       r="11.666365"
       fx="479.62494"
       fy="566.7077"
       id="radialGradient41162"
       xlink:href="#linearGradient41025"
       gradientUnits="userSpaceOnUse"
       gradientTransform="matrix(0.85026621,-1.515173e-7,1.1263369e-7,0.63206394,78.995,258.44471)" />
  </defs>
  <metadata
     id="metadata38247">
    <rdf:RDF>
      <cc:Work
         rdf:about="">
        <dc:format>image/svg+xml</dc:format>
        <dc:type
           rdf:resource="http://purl.org/dc/dcmitype/StillImage" />
        <dc:title></dc:title>
      </cc:Work>
    </rdf:RDF>
  </metadata>
  <g
     transform="translate(-338.125,-326.86768)"
     id="layer1">
    <path
       d="m 488.97842,518.76777 c -0.79795,2.34626 -3.3402,8.09991 -9.49422,8.09991 -6.99958,0 -9.42703,-7.57354 -9.54463,-7.89272 l -0.20718,-0.71676 c 0,0 6.02803,0.50117 9.34863,0.50117 3.3122,0 8.98746,-0.32758 9.9058,-0.50117 l -0.008,0.50957 z"
       id="path22"
       style="fill:#000000;fill-opacity:1;fill-rule:nonzero;stroke:none" />
    <path
       d="m 507.34531,515.03392 1.43631,0.18199 c -1.71349,4.47693 -4.79051,9.49422 -10.82134,9.49422 -5.88244,0 -8.78306,-3.4046 -9.9982,-5.68085 l -1.02753,-0.62717 c 0,0 10.13259,-0.32758 20.41076,-3.36819"
       id="path26"
       style="fill:#000000;fill-opacity:1;fill-rule:nonzero;stroke:none" />
    <path
       d="m 451.83587,515.03392 -1.43631,0.18199 c 1.70509,4.47693 4.7961,9.49422 10.84654,9.49422 5.84884,0 9.00145,-3.58378 10.30058,-5.68085 l 0.69715,-0.62717 c 0,0 -10.11579,-0.32758 -20.40796,-3.36819"
       id="path30"
       style="fill:#000000;fill-opacity:1;fill-rule:nonzero;stroke:none" />
    <path
       d="m 484.3951,519.24542 c -0.95474,1.36632 -1.5959,1.29632 -2.72424,1.29632 -0.58516,0 -1.42511,0.47037 -1.41671,1.33832 0.0252,0.68316 0.58237,1.23753 1.49791,1.23753 2.08307,0 3.67617,-2.88663 4.09895,-4.11576 0,0 1.22073,-0.0504 1.5763,-0.0868 0,0 -2.18387,6.52921 -7.86752,6.52921 -5.69206,0 -8.01311,-6.45082 -8.01311,-6.45082 0,0 4.79891,0.29119 7.53434,0.29119 2.74383,0 4.49093,-0.0252 5.31408,-0.0392"
       id="path34"
       style="fill:url(#radialGradient41162);fill-opacity:1;fill-rule:nonzero;stroke:none" />
    <path
       d="m 452.60863,516.36775 c 3.69857,0.97994 6.34161,1.80869 12.57124,2.56465 0,0 -0.19879,0.62996 -1.55391,0.57956 -0.51797,-0.0336 -0.58797,-0.16239 -0.76715,-0.19318 -0.40038,-0.0728 -0.97995,0.33317 -0.92115,1.00793 0.0616,0.47597 0.45917,1.06674 1.84229,1.06674 1.38312,0 2.99302,-1.12553 3.80777,-2.17827 0,0 0.82595,0.19319 1.68549,0.23519 0,0 -2.66263,3.71817 -7.89271,3.71817 -5.74246,0 -7.88152,-5.15449 -8.77187,-6.80079"
       id="path890"
       style="fill:url(#radialGradient41150);fill-opacity:1;fill-rule:nonzero;stroke:none" />
    <path
       d="m 479.01103,485.76562 c 19.834,0 41.80706,-12.17367 57.23413,-29.723 1.67989,-1.89829 4.49373,-5.50447 11.19372,-5.50447 6.71119,0 15.63145,6.11763 14.58712,17.24975 -0.77835,8.10831 -12.36685,26.4024 -32.20925,37.65492 -19.8368,11.29732 -38.11129,13.71357 -50.80572,13.71357 -12.70563,0 -30.96333,-2.41625 -50.81132,-13.71357 -19.8396,-11.25252 -31.4253,-29.54661 -32.19805,-37.65492 -1.04434,-11.13212 7.87872,-17.24975 14.57592,-17.24975 6.71679,0 9.54182,3.60618 11.21612,5.50447 15.40466,17.54933 37.38893,29.723 57.21733,29.723 z"
       id="path1322"
       style="fill:#ffe500;fill-opacity:1;stroke:#000000;stroke-width:2.09797168;stroke-linecap:butt;stroke-linejoin:miter;stroke-miterlimit:3.86299992;stroke-opacity:1;stroke-dasharray:none" />
    <path
       d="m 478.84303,488.46464 c -19.95719,0 -42.66661,-11.77609 -59.3928,-30.82613 -1.70229,-1.93468 -3.86936,-4.42373 -9.02665,-4.42373 -3.01262,0 -6.42841,1.6127 -8.69347,4.10735 -1.7051,1.85349 -3.61738,5.12089 -3.15821,10.12979 0.66356,6.84278 11.5073,24.55171 30.83453,35.54944 15.57825,8.86146 32.21204,13.33839 49.4366,13.33839 17.24136,0 33.87515,-4.47693 49.4534,-13.33839 19.32163,-10.99773 30.18218,-28.70666 30.82053,-35.54944 0.47878,-5.0089 -1.4475,-8.2763 -3.1302,-10.12979 -2.27626,-2.49465 -5.70046,-4.10735 -8.69907,-4.10735 -5.17969,0 -7.34396,2.48905 -9.03086,4.42373 -16.71638,19.05004 -39.45381,30.82613 -59.4138,30.82613 z"
       id="path1326"
       style="fill:#da020e;fill-opacity:1;fill-rule:nonzero;stroke:none" />
    <path
       d="m 564.69423,389.11939 0.07,-4.62532 c 1.42511,1.08913 4.10455,1.10593 5.67246,-0.56557 0.71395,-0.76155 1.11993,-1.94028 1.06113,-3.15261 -0.0672,-1.36911 -0.68875,-2.79143 -1.71069,-3.79377 -5.79005,-5.65846 -10.93335,-11.30851 -10.93335,-11.30851 -0.53196,-0.83995 -1.36351,-1.44751 -1.84508,-1.6547 -0.70836,-0.33878 -3.22821,-1.48951 -5.14889,1.42791 -1.7331,2.64304 -1.47551,6.36962 -1.14233,7.73033 l 5.42887,7.39995 c 1.85909,2.35746 7.09757,7.37196 8.54788,8.54229"
       id="path6226"
       style="fill:#000000;fill-opacity:1;fill-rule:nonzero;stroke:none" />
    <path
       d="m 448.65527,341.15522 c 6.83439,-2.29587 13.08361,-4.19415 21.5055,-4.9389 l 1.27672,-0.71676 c -4.70092,-3.70978 -9.37103,-6.24082 -14.02155,-6.24082 -2.92022,0 -8.86146,1.98508 -10.18579,12.46764 l 1.42512,-0.57116 z"
       id="path6234"
       style="fill:#000000;fill-opacity:1;fill-rule:nonzero;stroke:none" />
    <path
       d="m 509.38078,341.15522 c -6.83718,-2.29587 -13.08081,-4.19415 -21.49429,-4.9389 l -1.29353,-0.71676 c 4.72052,-3.70978 9.37943,-6.24082 14.03555,-6.24082 2.92303,0 8.83906,1.98508 10.19139,12.46764 l -1.43912,-0.57116 z"
       id="path6238"
       style="fill:#000000;fill-opacity:1;fill-rule:nonzero;stroke:none" />
    <path
       d="m 471.28909,335.86914 c 3.43819,-6.6104 6.5824,-9.00146 8.34069,-9.00146 2.17267,0 4.73172,3.45499 6.742,7.92632 l 0.42277,1.01354 -1.76669,-0.13719 c -1.15913,-0.21839 -4.46013,-0.26039 -5.72006,-0.26039 -1.29351,0 -4.08215,0 -5.76204,0.15679 l -2.25667,0.30239 z"
       id="path6246"
       style="fill:#000000;fill-opacity:1;fill-rule:nonzero;stroke:none" />
    <path
       d="m 444.17834,484.84026 -4.9781,8.99866 c -1.50351,2.70463 -3.05182,4.42093 -5.59126,2.96502 -2.50025,-1.41391 -1.92068,-3.46339 -0.38638,-6.25762 l 4.9921,-9.00985 -4.02615,-2.23427 -5.27489,9.52222 c -2.90342,5.24128 0.75036,8.49189 3.61179,10.06819 3.05461,1.6911 7.50074,2.94822 10.37897,-2.25386 l 5.31127,-9.56422 -4.03735,-2.23427 z m 64.01532,18.53936 -1.6771,-5.16289 4.9949,-1.6127 -0.69156,-2.14747 -5.0005,1.62111 -1.42231,-4.41254 5.11249,-1.67709 -0.68876,-2.12508 -9.35983,3.04342 5.20208,15.99263 10.31738,-3.3458 -0.68036,-2.13347 -6.10643,1.95988 z m 10.69255,-20.69634 -5.69766,3.28419 8.43589,14.62912 5.67526,-3.2814 c 5.86564,-3.38219 6.42281,-8.50588 4.11295,-12.61604 -2.78023,-4.8773 -7.36916,-4.9893 -12.52644,-2.01587 m 8.60948,4.45173 c 2.13627,3.74337 1.70229,6.4732 -1.58751,8.35749 l -1.5679,0.91275 -6.19323,-10.70096 1.6855,-0.97714 c 3.95056,-2.27066 6.19322,-0.24918 7.66314,2.40786 m -45.57844,6.85482 0.30518,2.19226 4.70932,-0.66635 2.03547,14.45832 4.37894,-0.60756 -2.02988,-14.44993 4.63932,-0.64396 -0.31918,-2.22306 -13.71917,1.94028 z m -3.98696,0.13691 -4.40973,-0.24079 -0.88195,16.79898 4.41254,0.23519 0.87914,-16.79338 z m -13.38879,-2.05368 -3.07141,11.47931 -5.74805,-13.84516 -3.57539,-0.96034 -4.35653,16.25301 3.89456,1.03314 3.09662,-11.5745 5.83484,13.96275 3.49699,0.94355 4.33974,-16.25862 -3.91137,-1.03314 z"
       id="path6270"
       style="fill:#ffe500;fill-opacity:1;fill-rule:nonzero;stroke:none" />
    <path
       d="m 441.33651,386.00849 0,78.79283 37.67451,24.20733 37.67172,-24.20733 0.056,-78.67243 c -1.20673,-1.06394 -3.71257,-3.39619 -5.67525,-4.61692 l -64.27851,0 c -1.6267,1.14233 -4.8857,3.89176 -5.44847,4.49652 z"
       id="path7502"
       style="fill:#ffe500;fill-opacity:1;stroke:none" />
    <path
       d="m 423.5721,319.81244 -2e-5,47.0226 0,115.7669 55.35354,35.56679 55.34943,-35.56679 0.0823,-162.61261"
       transform="matrix(0.68061617,0,0,0.68061617,153.0465,136.33464)"
       clip-path="url(#clipPath41116)"
       id="path41110"
       style="fill:none;stroke:#b54005;stroke-width:14.69256878;stroke-linecap:butt;stroke-linejoin:miter;stroke-miterlimit:3.86299992;stroke-opacity:1;stroke-dasharray:none;filter:url(#filter41136)" />
    <path
       d="m 494.06851,442.5407 0,-2.92862 c 0,0 -0.77835,-1.20393 -2.70744,-1.20393 -1.92348,0 -3.07421,0.57957 -3.07421,1.06394 0,0.79236 1.7219,3.06861 5.78165,3.06861 m -15.19188,-25.92362 2.91182,-5.0845 2.28186,5.0845 3.77978,0 c -2.27346,2.13347 -3.20301,5.36167 -3.20301,7.51474 l 0,2.34626 c 0,0.99674 -0.50117,2.64584 -0.50117,2.64584 0,0 3.2814,2.50025 3.78538,2.93422 0.20998,0.16519 0.43957,0.26599 0.28837,0.69996 -0.26038,0.73075 -2.48904,1.73589 -2.71583,1.92628 -0.50397,0.44797 -0.63556,0.71676 -0.50397,1.15913 0.15959,0.42558 0.57677,0.50397 1.43072,0.20159 0.86234,-0.27719 2.64863,-1.21513 4.14654,-1.85629 1.49231,-0.64956 3.49139,-0.48437 3.49139,-0.48437 l 0,-2.86982 -5.64446,0 0,-9.11905 -0.99674,-1.6071 2.48905,-4.43494 2.50305,4.46293 -0.98554,1.57911 0,4.76251 2.87543,0 0,-4.76251 -0.99114,-1.57911 2.49744,-4.42933 2.48625,4.42933 -0.98274,1.57911 0,4.76251 2.89503,0 0,-4.76251 -1.02474,-1.57911 2.50585,-4.42933 2.49745,4.42933 -0.99675,1.57911 0.0476,9.10505 -5.68926,0 0,4.21094 c 1.29072,1.21233 2.50865,3.95616 2.50865,5.57166 0,1.6547 -1.07794,2.35466 -1.07794,2.35466 0.36119,1.29912 0.29119,1.83949 0.13719,3.01542 -0.13719,1.19553 -1.62949,3.06021 -1.62949,3.06021 l 0,21.76308 c 0,1.47832 -3.4242,1.33272 -3.4242,0.07 l 0,-21.34311 c -1.93748,-2.11947 -7.21236,-3.78537 -7.21236,-3.78537 -1.93468,1.93469 -3.12461,5.29448 -3.12461,5.29448 0.83995,0.58796 2.14747,0 2.64024,-0.57117 0.48437,-0.57116 1.47831,-0.71955 2.05227,-0.35838 0.56277,0.35838 0.70276,0.49558 0.50958,1.33552 -0.22119,0.88475 -0.57397,2.29867 -0.57397,3.28701 0,1.01353 1.13953,0.78675 1.99068,0.86234 1.7191,0.15119 2.00188,2.07188 1.85908,3.14421 -0.13998,1.07794 -0.64395,3.3654 -0.64395,4.78771 0,1.40832 0.0756,2.83063 0.21558,3.63699 0.1484,0.77835 0.42837,1.63789 0.34998,2.64303 -0.0868,1.35232 -0.91834,1.56791 -1.78069,0.69996 -0.85115,-0.85395 -12.77003,-13.55958 -12.77003,-13.55958 -0.79235,2.58424 2.50585,6.99118 3.56979,8.35189 1.07233,1.36073 1.00234,2.36027 0.0644,3.29261 -0.91835,0.92114 -2.70744,1.41391 -3.05742,2.28186 -0.36397,0.83995 0.85395,3.42699 3.3598,6.6356 2.49745,3.203 -2.86703,5.35327 -6.06724,5.99443 -3.2226,0.63276 -3.2226,-1.5791 -2.99862,-2.79143 0.21279,-1.20113 0.21279,-1.93188 0.1344,-2.98742 -0.07,-1.07513 -1.05553,-2.56464 -2.42466,-4.34813 -1.35231,-1.7919 -1.35231,-3.42139 -0.78954,-7.57355 0.56836,-4.14094 0.43397,-6.78398 0.43397,-6.78398 0,0 -1.42792,0.0588 -3.49979,0 -2.06067,-0.0784 -3.77138,-1.27393 -3.91697,-6.27442 -0.14278,-4.9865 -0.26038,-16.89418 -0.59916,-18.14291 -0.33037,-1.23472 -1.6659,-1.4615 -2.22866,-1.6267 -0.58517,-0.14559 -0.61317,-0.98833 -0.0476,-1.29072 1.48951,-0.72515 3.2758,-2.55344 2.61504,-3.69018 -0.66916,-1.13952 -3.2926,-0.90434 -5.04809,-0.0448 -1.7611,0.85115 -3.61739,2.72144 -4.09615,3.23101 -0.46198,0.50397 -0.86235,0.50397 -0.81196,-0.0392 0.0588,-0.58236 -0.32477,-3.3066 -0.55156,-4.25014 -0.25199,-0.95194 -1.10314,-2.75223 -1.39152,-3.2282 -0.28278,-0.47877 0,-0.66356 0.48157,-0.47877 0.46197,0.19039 1.52031,0.62995 2.51425,0.89314 1.00234,0.30239 1.95708,-0.19039 2.41346,-1.12553 0.47596,-0.96594 1.40551,-3.00142 1.88148,-3.91136 0.46757,-0.89875 1.22353,-0.69716 1.84509,-0.55997 0.61596,0.14559 1.18713,0.52637 1.75549,0.75315 0.56556,0.23519 1.03874,0.19039 1.24033,-0.098 0.19318,-0.27438 0.42837,-0.37797 0.76995,-1.08914 0.33318,-0.71115 0.74756,-0.37237 0.80075,-0.0896 1.7023,10.23618 6.13723,10.70655 6.13723,10.70655 -0.66636,1.7051 -2.22867,4.42374 -2.59824,5.10969 -0.40038,0.64117 -0.54877,1.55391 -0.64676,2.26226 -0.0756,0.70556 0.24638,7.46715 0.71955,9.945 0.48157,2.48065 1.99628,1.51471 2.48905,0.75596 0.45637,-0.75596 1.94308,-3.90297 1.94308,-3.90297 0,0 0.36678,-0.85674 0.36678,-1.5679 0,-0.71676 -1.23192,-2.27066 -1.5147,-2.75503 -0.29399,-0.49278 -1.33273,-1.43631 -1.33273,-3.81897 0,-2.37426 2.13907,-4.02056 2.90903,-4.64492 0.76155,-0.62436 0.76155,-1.48951 0.65795,-2.01028 -0.33317,-1.83669 -2.28465,-5.70045 -3.2226,-7.18157 -0.96034,-1.4755 -2.81383,-4.27813 -2.81383,-4.27813 l 3.85257,0 2.48065,-5.15169 2.69904,5.17409 2.81943,0.0252 z m -0.62436,15.60625 c 1.25713,-2.07748 1.78349,-4.23615 1.78349,-4.23615 l -3.63418,0 c 0,0 0.58237,2.20907 1.85069,4.23615 m -3.78537,-10.47416 c 0.14559,1.06393 0.93794,1.4699 1.5399,1.15913 0.59917,-0.33039 0.49557,-1.19273 0.0504,-1.88149 -0.42558,-0.67476 -1.31032,-1.42791 -1.5819,-1.31592 -0.27719,0.11479 -0.1036,1.41111 -0.008,2.03828 m 7.20397,-2.03828 c -0.26039,-0.11199 -1.19273,0.64116 -1.6351,1.31592 -0.42558,0.68876 -0.53478,1.5511 0.07,1.88149 0.59076,0.31077 1.35232,-0.1036 1.54271,-1.15913 0.10359,-0.62717 0.30798,-1.92349 0.0224,-2.03828"
       id="path7506"
       style="fill:url(#linearGradient39815);fill-opacity:1;fill-rule:nonzero;stroke:none" />
    <path
       d="m 444.2922,405.65139 0,4.74304 69.50792,0 0,-4.74304 -5.12589,0 0,0.76569 -59.25614,0 0,-0.76569 -5.12589,0 z"
       id="path7932"
       style="fill:#da020e;fill-opacity:1;fill-rule:nonzero;stroke:none" />
    <path
       d="m 444.29593,384.337 69.49458,0 0,18.89885 -69.49458,0 0,-18.89885 z"
       id="path8358"
       style="fill:#da020e;fill-opacity:1;fill-rule:nonzero;stroke:none" />
    <path
       d="m 456.2372,397.74902 5.32248,1.30752 2.87263,-8.00471 0,-2.02708 z m 43.86495,4.71862 0,-2.46532 -5.0229,0 0,-2.07187 4.10455,0 0,-9.13864 -3.78257,0 -1.29352,-2.51425 -1.26272,2.51425 -3.79378,0 0,9.13864 4.12136,0 0,2.07187 -9.8806,0 0,-2.07187 4.11014,0 0,-9.13864 -3.78816,0 -1.27953,-2.51425 -1.29352,2.51425 -3.77697,0 0,9.13864 4.12975,0 0,2.07187 -10.08499,0 0,-2.07187 4.11855,0 0,-9.13864 -3.79377,0 -1.26832,-2.51425 -1.30193,2.51425 -3.77976,0 0,9.13864 4.13255,0 0,2.07187 -7.97952,0.0252 -7.93752,-1.85349 1.59031,4.2936 45.01287,0 z"
       id="path8790"
       style="fill:#ffe500;fill-opacity:1;fill-rule:nonzero;stroke:none" />
    <path
       d="m 449.05004,340.41046 c 6.70839,-2.24546 11.77889,-3.99536 20.04118,-4.72892 -3.80776,-2.64303 -7.18716,-4.8801 -11.07332,-4.8801 -2.04388,0 -3.79097,0.78115 -4.19415,2.20907 -0.37517,1.29912 0.64956,1.86468 1.01354,1.77789 0.38078,-0.098 0.65236,-0.20999 0.55996,-0.56277 -0.098,-0.37238 0.19039,-1.31872 1.48951,-1.31872 1.32152,0 1.8199,1.22353 1.8199,2.06348 0,0.83995 -1.33273,2.24266 -3.78258,2.24266 -2.40225,0 -3.63417,-1.6015 -3.54178,-3.08261 -1.15913,1.69669 -1.83389,3.41299 -2.33226,6.28002"
       id="path8794"
       style="fill:url(#radialGradient41023);fill-opacity:1;fill-rule:nonzero;stroke:none" />
    <path
       d="m 402.30408,380.57598 5.44846,-7.39995 c 0.31358,-1.36072 0.56277,-5.08449 -1.17872,-7.72753 -1.90389,-2.92023 -4.41254,-1.76669 -5.14889,-1.42792 -0.46477,0.20719 -1.31032,0.81195 -1.83109,1.6547 0,0 -5.23848,5.76765 -11.00334,11.44291 -0.81474,0.80915 -1.71069,2.28746 -1.78629,3.65658 -0.07,1.21512 0.41998,2.43585 1.12554,3.1974 1.5763,1.6799 4.33134,1.61271 5.73965,0.52077 l 0.098,4.62532 c 1.45031,-1.16753 6.6804,-6.18482 8.53669,-8.54228"
       id="path10086"
       style="fill:#000000;fill-opacity:1;fill-rule:nonzero;stroke:none" />
    <path
       d="m 479.01103,369.807 c 31.02212,0 48.67225,29.11824 52.52482,34.23073 6.84278,9.13305 15.21987,16.547 24.92688,14.09715 14.25954,-3.64818 13.51758,-24.7701 13.51758,-24.7701 -3.44099,-2.47785 -9.30383,-5.59687 -19.99359,-20.74955 -10.46856,-14.8531 -34.15792,-36.85696 -70.97569,-36.85696 -36.82617,0 -60.50994,22.00386 -70.95331,36.85696 -10.70094,15.15268 -16.58339,18.2717 -19.99078,20.74955 0,0 -0.76996,21.12192 13.50078,24.7701 9.70141,2.44985 18.07291,-4.9641 24.92689,-14.09715 3.83857,-5.11249 21.4999,-34.23073 52.51642,-34.23073 z"
       id="path10094"
       style="fill:#ffe500;fill-opacity:1;stroke:#000000;stroke-width:2.09797168;stroke-linecap:butt;stroke-linejoin:miter;stroke-miterlimit:3.86299992;stroke-opacity:1;stroke-dasharray:none" />
    <path
       d="m 479.01103,367.04244 c 29.90778,0 47.69511,25.36926 54.12771,34.52331 8.51289,11.36312 15.71966,15.65245 22.64363,13.89136 10.0066,-2.54785 11.24973,-16.32021 11.38411,-20.48916 l 0,-0.16519 -0.11199,-0.0868 c -3.52779,-2.44424 -9.42982,-6.4956 -19.31883,-20.51435 -5.89924,-8.37149 -28.29509,-35.70624 -68.72463,-35.70624 -40.41555,0 -62.83099,27.33475 -68.72744,35.70624 -9.8078,13.92915 -15.97583,18.1765 -19.27963,20.44436 l -0.13999,0.11479 0.0168,0.14559 c 0.1344,4.17735 1.38032,18.02252 11.36171,20.55076 6.93239,1.76109 14.15314,-2.52824 22.64363,-13.89136 6.42701,-9.15405 24.23114,-34.52331 54.12492,-34.52331"
       id="path10098"
       style="fill:#da020e;fill-opacity:1;fill-rule:nonzero;stroke:none" />
    <path
       d="m 462.76361,345.84969 c -5.48766,1.16193 -9.10225,5.20769 -7.91792,10.69256 0.68876,2.96221 3.3318,8.41348 11.69209,6.63559 2.32106,-0.44238 3.57538,-1.36632 4.79051,-2.52825 l -1.52311,-1.74989 c -0.57396,0.63836 -1.43071,1.5679 -3.35419,1.96828 -4.04576,0.85395 -6.45081,-2.41906 -7.04998,-5.24408 -0.89034,-4.18574 1.54831,-7.06957 4.30334,-7.66594 1.96828,-0.43397 3.16101,0.1008 3.91697,0.39478 l 0.0252,0 0.51237,-2.14467 c -1.32712,-0.53197 -2.92023,-0.88475 -5.39527,-0.35838 m 45.89483,24.13006 c 3.13861,1.88988 6.5628,1.5679 8.1643,-1.08354 1.16474,-1.85349 1.17593,-3.39339 -0.22398,-6.15122 -0.36118,-0.78116 -0.83435,-1.34112 -1.15073,-2.05228 -0.61876,-1.15353 -1.18993,-2.09707 -0.65796,-2.99022 0.58796,-0.96874 1.94868,-1.04714 3.18061,-0.29398 1.29072,0.78115 1.82549,2.07187 2.09707,2.95382 l 2.02428,-0.87355 c -0.62157,-1.6631 -1.54271,-3.15541 -3.64818,-4.40133 -3.59779,-2.16707 -6.5236,-1.5959 -7.74153,0.43397 -1.23473,2.04108 -0.88475,3.74057 0.0448,5.48207 0,0 0.57676,0.98834 0.90994,1.6631 0.81476,1.36072 1.7639,3.07701 1.09754,4.14935 -0.80635,1.35232 -2.19507,1.6463 -3.54739,0.80635 -1.73309,-1.09193 -2.13906,-2.36306 -2.50025,-3.60338 l -2.22586,0.95194 c 0.48997,1.70789 1.6407,3.47739 4.17735,5.0089 m -23.96094,-25.01285 -0.12599,6.85399 -6.5908,-0.0952 0.098,-6.87918 -4.41813,-0.0812 -0.29398,16.81858 4.42653,0.0952 0.13999,-7.71073 6.602,0.12039 -0.12599,7.69674 4.42093,0.0672 0.28838,-16.81857 -4.42093,-0.0672 z m 63.29577,53.40593 c 0.0308,0.042 2.59264,1.30751 5.44007,-1.24873 2.37985,-2.13907 1.5819,-5.07049 -0.90435,-7.82272 l -4.58332,-5.0929 -12.49564,11.26092 2.95382,3.27581 4.97529,-4.46293 1.43632,1.62109 -3.14981,7.10598 3.77137,3.01262 2.55625,-7.64914 z m 2.23146,-8.2847 c 1.17033,1.29912 1.18993,2.84183 -0.17079,4.04016 -1.32431,1.22072 -3.01541,0.94074 -4.30054,-0.47038 l -0.74756,-0.83715 4.23055,-3.82177 0.98834,1.08914 z m -19.50082,-4.29662 4.18575,-3.47459 3.357,3.99535 1.73589,-1.4475 -3.37659,-4.01216 3.54178,-2.98182 3.45779,4.11855 1.71629,-1.43072 -6.31641,-7.52874 -12.87642,10.81295 6.95478,8.30149 1.73589,-1.44191 -4.11575,-4.9109 z m -4.82691,-25.27267 -1.50071,1.6463 3.52779,3.18901 -9.77701,10.84654 3.2982,2.96502 9.76301,-10.84934 3.48299,3.13581 1.49511,-1.6463 -10.28938,-9.28704 z m -28.79065,1.06617 1.78069,-5.12928 4.95291,1.70789 0.73635,-2.13347 -4.9613,-1.7051 1.50911,-4.39293 5.10409,1.74989 0.71676,-2.12227 -9.29824,-3.20021 -5.46527,15.92824 10.24738,3.50819 0.72795,-2.12227 -6.05043,-2.08868 z m -53.24997,-8.24018 6.31642,10.06819 -14.06355,-5.24968 -3.13021,1.96548 8.91746,14.28754 3.39619,-2.13907 -6.35841,-10.17179 14.20913,5.27488 3.06862,-1.92348 -8.93426,-14.27914 -3.42139,2.16707 z m -19.67161,15.214 -2.87543,3.08541 8.06072,16.02903 1.96828,-2.10547 -2.18947,-4.26414 3.89176,-4.18575 4.41253,1.87029 3.24221,-3.47179 -16.5106,-6.95758 z m 6.79799,7.63233 -2.92023,3.13581 -3.00141,-5.76765 5.92164,2.63184 z m -16.29781,2.53917 -3.13021,3.72657 5.84884,12.09527 -12.54324,-4.10734 -2.69904,3.1974 12.88763,10.82134 1.95707,-2.32386 -9.10785,-7.66593 12.20727,3.97576 1.28512,-1.52311 -5.82085,-11.66409 9.14705,7.66873 2.85582,-3.3794 -12.88761,-10.82134 z"
       id="path14986"
       style="fill:#ffe500;fill-opacity:1;fill-rule:nonzero;stroke:none" />
    <path
       d="m 394.99652,387.30062 -0.014,-3.70978 c 6.33041,-5.81244 9.31503,-11.65289 9.31503,-11.65289 0,0 -2.32666,-0.87635 -3.36819,-2.20067 -0.51517,-0.73636 -0.71396,-1.74149 -0.62717,-2.41625 0.20159,-1.26553 1.18713,-1.90669 1.52311,-2.05228 0.72796,-0.31358 2.08028,-1.02473 3.58658,1.04714 1.60431,2.24266 1.18153,6.4984 0.96035,7.47835 0,0 -2.95103,5.13768 -11.37571,13.50638"
       id="path15846"
       style="fill:url(#radialGradient41082);fill-opacity:1;fill-rule:nonzero;stroke:none" />
    <path
       d="m 402.00169,372.61466 c -0.85395,1.48951 -3.00702,5.08449 -8.45269,10.18859 -0.90434,0.84835 -3.161,1.5679 -4.44053,0.13159 -0.47877,-0.55717 -0.79515,-1.33832 -0.74755,-2.24547 0.0616,-1.04993 0.69156,-2.27066 1.32432,-2.80823 1.09753,-0.92674 5.77605,-5.65005 9.10225,-9.36543 0.0924,0.67756 0.67475,1.81149 0.67475,1.81149 0.45918,0.63276 1.01915,1.54271 2.53945,2.28746"
       id="path16274"
       style="fill:url(#linearGradient41090);fill-opacity:1;fill-rule:nonzero;stroke:none" />
    <path
       d="m 478.84303,488.46464 c -19.95719,0 -42.66661,-11.77609 -59.3928,-30.82613 -1.70229,-1.93468 -3.86936,-4.42373 -9.02665,-4.42373 -3.01262,0 -6.42841,1.6127 -8.69347,4.10735 -1.7051,1.85349 -3.61738,5.12089 -3.15821,10.12979 0.66356,6.84278 11.5073,24.55171 30.83453,35.54944 15.57825,8.86146 32.21204,13.33839 49.4366,13.33839"
       id="path39821"
       style="fill:url(#linearGradient39837);fill-opacity:1;fill-rule:nonzero;stroke:none" />
    <path
       d="m 478.84303,488.46464 c 19.95719,0 42.66662,-11.77609 59.3928,-30.82613 1.7023,-1.93468 3.86937,-4.42373 9.02665,-4.42373 3.01262,0 6.42842,1.6127 8.69348,4.10735 1.70509,1.85349 3.61738,5.12089 3.15821,10.12979 -0.66356,6.84278 -11.50731,24.55171 -30.83454,35.54944 -15.57825,8.86146 -32.21204,13.33839 -49.4366,13.33839"
       id="path39847"
       style="fill:url(#linearGradient39849);fill-opacity:1;fill-rule:nonzero;stroke:none" />
    <path
       d="m 533.13874,401.56575 c 8.51289,11.36312 15.71966,15.65245 22.64363,13.89136 10.0066,-2.54785 11.24973,-16.32021 11.38411,-20.48916 l 0,-0.16519 -0.11199,-0.0868 c -3.52779,-2.44424 -9.42982,-6.4956 -19.31883,-20.51435"
       id="path39878"
       style="fill:url(#linearGradient39886);fill-opacity:1;fill-rule:nonzero;stroke:none" />
    <path
       d="m 424.91103,401.56575 c -8.51288,11.36312 -15.71965,15.65245 -22.64363,13.89136 -10.00659,-2.54785 -11.24972,-16.32021 -11.3841,-20.48916 l 0,-0.16519 0.11198,-0.0868 c 3.52779,-2.44424 9.42983,-6.4956 19.31884,-20.51435"
       id="path39888"
       style="fill:url(#linearGradient39892);fill-opacity:1;fill-rule:nonzero;stroke:none" />
    <path
       d="m 508.99975,340.41046 c -6.7084,-2.24546 -11.77889,-3.99536 -20.04119,-4.72892 3.80777,-2.64303 7.18716,-4.8801 11.07333,-4.8801 2.04387,0 3.79097,0.78115 4.19414,2.20907 0.37518,1.29912 -0.64956,1.86468 -1.01354,1.77789 -0.38077,-0.098 -0.65235,-0.20999 -0.55996,-0.56277 0.098,-0.37238 -0.19039,-1.31872 -1.48951,-1.31872 -1.32152,0 -1.81989,1.22353 -1.81989,2.06348 0,0.83995 1.33272,2.24266 3.78257,2.24266 2.40226,0 3.63418,-1.6015 3.54179,-3.08261 1.15913,1.69669 1.83389,3.41299 2.33226,6.28002"
       id="path41035"
       style="fill:url(#radialGradient41037);fill-opacity:1;fill-rule:nonzero;stroke:none" />
    <path
       d="m 479.32568,331.60473 c -0.20998,1.28232 -1.68549,2.51145 -3.1778,2.51145 l 0,0 c -1.49511,0 -1.94308,-0.24079 -1.94308,-0.24079 l 0,0 c -0.22679,0.35278 -0.42558,0.62437 -0.66077,1.00514 l 0,0 c 1.35512,-0.0532 4.49933,-0.13999 5.75926,-0.13999 l 0,0 c 1.25712,0 4.74291,0.18199 5.49326,0.23518 l 0,0 c -1.21233,-2.84182 -3.55018,-6.77558 -5.16568,-6.77558 l 0,0 c -0.056,0 -0.12599,-0.005 -0.21279,-0.005 l 0,0 c -0.37798,0 -1.68726,1.13522 -2.3887,2.13201 -0.92153,1.30954 2.2963,1.27803 2.2963,1.27803 z"
       id="path9646-8"
       style="fill:url(#radialGradient41055);fill-opacity:1" />
    <path
       d="m 563.05327,387.30062 0.014,-3.70978 c -6.33042,-5.81244 -9.31504,-11.65289 -9.31504,-11.65289 0,0 2.32666,-0.87635 3.3682,-2.20067 0.51517,-0.73636 0.71396,-1.74149 0.62716,-2.41625 -0.20159,-1.26553 -1.18713,-1.90669 -1.52311,-2.05228 -0.72796,-0.31358 -2.08027,-1.02473 -3.58658,1.04714 -1.60431,2.24266 -1.18153,6.4984 -0.96034,7.47835 0,0 2.95102,5.13768 11.37571,13.50638"
       id="path41092"
       style="fill:url(#radialGradient41096);fill-opacity:1;fill-rule:nonzero;stroke:none" />
    <path
       d="m 556.04809,372.61466 c 0.85395,1.48951 3.00702,5.08449 8.45269,10.18859 0.90435,0.84835 3.16101,1.5679 4.44053,0.13159 0.47877,-0.55717 0.79515,-1.33832 0.74756,-2.24547 -0.0616,-1.04993 -0.69156,-2.27066 -1.32433,-2.80823 -1.09752,-0.92674 -5.77604,-5.65005 -9.10224,-9.36543 -0.0924,0.67756 -0.67476,1.81149 -0.67476,1.81149 -0.45917,0.63276 -1.01914,1.54271 -2.53945,2.28746"
       id="path41094"
       style="fill:url(#linearGradient41098);fill-opacity:1;fill-rule:nonzero;stroke:none" />
    <path
       d="m 441.33651,386.0085 0,78.79282 37.67451,24.20734 37.67172,-24.20734 0.056,-78.67243 c -1.20673,-1.06394 -3.71257,-3.39619 -5.67525,-4.61691 l -64.27851,0 c -1.6267,1.14232 -4.8857,3.89176 -5.44847,4.49652 z"
       id="path41140"
       style="fill:none;stroke:#000000;stroke-width:2.09797168;stroke-linecap:butt;stroke-linejoin:miter;stroke-miterlimit:3.86299992;stroke-opacity:1;stroke-dasharray:none" />
    <path
       d="m 506.63224,516.36775 c -3.69858,0.97994 -6.34162,1.80869 -12.57124,2.56465 0,0 0.19878,0.62996 1.5539,0.57956 0.51797,-0.0336 0.58797,-0.16239 0.76715,-0.19318 0.40038,-0.0728 0.97995,0.33317 0.92115,1.00793 -0.0616,0.47597 -0.45917,1.06674 -1.84228,1.06674 -1.38313,0 -2.99303,-1.12553 -3.80777,-2.17827 0,0 -0.82596,0.19319 -1.6855,0.23519 0,0 2.66264,3.71817 7.89272,3.71817 5.74245,0 7.88152,-5.15449 8.77187,-6.80079"
       id="path41152"
       style="fill:url(#radialGradient41154);fill-opacity:1;fill-rule:nonzero;stroke:none" />
    <path
       d="m 381.18496,435.48934 c 0,-9.50542 7.71353,-17.23575 17.23016,-17.23575 9.51941,0 17.22735,7.73033 17.22735,17.23575 0,9.52222 -7.70794,17.23576 -17.22735,17.23576 -9.51663,0 -17.23016,-7.71354 -17.23016,-17.23576 z"
       id="path6214"
       style="fill:#ffe500;fill-opacity:1;stroke:#000000;stroke-width:2.09797168;stroke-linecap:butt;stroke-linejoin:miter;stroke-miterlimit:3.86299992;stroke-opacity:1;stroke-dasharray:none" />
    <path
       d="m 385.1293,434.84844 c 0,-7.2068 5.9476,-13.06777 13.2855,-13.06777 7.34005,0 13.28332,5.86097 13.28332,13.06777 0,7.21955 -5.94327,13.06778 -13.28332,13.06778 -7.3379,0 -13.2855,-5.84823 -13.2855,-13.06778 z"
       id="path39854"
       style="fill:url(#radialGradient39872);fill-opacity:1;stroke:none" />
    <path
       d="m 402.07449,447.33514 c -0.75595,0.24078 -1.08353,-0.28839 -1.42791,-0.66917 -1.34112,-1.5427 -1.6855,-5.65005 -1.6855,-6.19322 0,-0.54597 0.20158,-1.14513 0.58517,-1.15913 3.23379,-0.0616 5.54366,-0.99953 7.66313,-2.76063 2.11667,-1.7303 3.03502,-3.71537 3.2226,-4.06816 0.18479,-0.39197 0.62436,-0.32198 0.70556,0.22119 0.0896,0.45358 0.26038,1.26833 0.26038,2.15027 0,5.91884 -3.98975,10.75415 -9.32343,12.47885 m -3.41299,0.53476 c -0.0924,0 -0.19599,0.0112 -0.28278,0.0112 -2.38266,0 -5.00611,-0.90995 -6.56001,-1.79469 -1.6099,-0.87635 -2.21467,-5.0089 -2.21467,-7.09757 0,-6.80079 2.78864,-10.84934 3.24221,-11.64449 0.44237,-0.80636 1.43911,-0.89035 2.16987,-0.69436 0.75595,0.21838 1.02473,0.34997 1.89548,0.60756 0.45358,0.14839 1.37472,0.33598 2.06628,0.45917 0.69156,0.16519 1.43631,0.31078 0.98834,1.6015 -0.44237,1.29353 -1.94869,4.40134 -2.09988,8.08591 -0.14559,3.3346 0.29678,6.6468 1.04994,8.68228 0.49557,1.31592 0.49557,1.80869 -0.25478,1.78349 m -9.84421,-15.52506 c -0.63556,-0.33598 -1.39991,-1.97668 -1.6575,-2.45545 -0.17359,-0.34438 -0.17359,-1.32992 0.0756,-1.74989 1.06393,-1.86189 2.57304,-3.58658 4.51613,-4.48533 0.23798,-0.1036 0.57116,-0.12319 0.57116,0.44797 0,0.30518 0.16519,0.78115 0.17079,1.08354 0,0.30518 0.12879,0.92954 -0.25759,1.42231 -0.40597,0.49557 -2.14467,3.57818 -2.58984,5.30568 -0.0728,0.38637 -0.19038,0.79235 -0.82875,0.43117 m -0.35838,10.91374 c -1.80309,-1.78069 -3.08821,-5.0061 -3.08821,-8.40229 0,-1.31872 0.19599,-2.58144 0.54597,-3.77977 0,0 0.32198,-0.53757 0.60196,-0.0812 0.21559,0.33598 0.51237,0.67476 0.75316,1.12273 0.26878,0.44798 1.6631,1.50911 1.5455,2.37426 -0.48717,3.17781 -0.0504,7.39996 0.10079,8.11111 0.1344,0.70276 -0.0588,1.00234 -0.45917,0.65516 m 5.69206,-20.71314 c 1.33552,-0.44238 2.76063,-0.69156 4.22775,-0.69156 2.23146,0 4.39853,0.40597 6.20722,1.5595 0.46477,0.30238 0.59636,0.65516 0.59636,1.17873 0,1.7051 -2.66544,2.27626 -4.42933,2.27626 -1.77509,0 -3.95896,-0.70276 -5.50447,-1.19272 -1.53991,-0.48157 -1.87589,-1.37192 -1.87589,-1.7779 0,-0.38917 0.29959,-1.19553 0.77836,-1.35231 m 12.03367,1.89548 c 0.23799,0.19319 0.86795,0.70276 0.86795,0.70276 1.24312,1.13393 2.36586,2.42745 3.01821,3.97856 0.81476,1.95428 -1.71349,4.9137 -2.45545,5.59686 -3.3486,3.1442 -5.44567,3.08541 -6.63279,3.2562 -1.18713,0.17359 -1.95709,-0.57117 -1.92629,-1.46431 0.0756,-2.61505 1.93748,-7.12277 2.47225,-7.97112 0.34158,-0.54596 0.93515,-0.88475 0.93515,-0.88475 1.24312,-0.34438 2.44985,-0.86234 3.07421,-1.5735 0.61036,-0.72236 0.64676,-1.6407 0.64676,-1.6407 m -7.67714,-3.43539 c -8.00471,0 -14.48631,6.48441 -14.48631,14.48352 0,8.00471 6.4816,14.48632 14.48631,14.48632 7.99912,0 14.49472,-6.48161 14.49472,-14.48632 0,-7.99911 -6.4956,-14.48352 -14.49472,-14.48352"
       id="path17130"
       style="fill:#da020e;fill-opacity:1;fill-rule:nonzero;stroke:none" />
    <path
       d="m 542.74076,435.45574 c 0,-9.50542 7.71353,-17.20776 17.23016,-17.20776 9.52222,0 17.23015,7.70234 17.23015,17.20776 0,9.52222 -7.70793,17.23856 -17.23015,17.23856 -9.51663,0 -17.23016,-7.71634 -17.23016,-17.23856 z"
       id="path6190"
       style="fill:#ffe500;fill-opacity:1;stroke:#000000;stroke-width:2.09797168;stroke-linecap:butt;stroke-linejoin:miter;stroke-miterlimit:3.86299992;stroke-opacity:1;stroke-dasharray:none" />
    <path
       d="m 570.0615,443.19895 c -0.37798,0.37238 -0.59076,0.0476 -0.43117,-0.64956 0.13159,-0.69156 0.57116,-4.9277 0.0812,-8.10551 -0.12039,-0.86235 1.28233,-1.92068 1.53991,-2.37426 0.25759,-0.44517 0.55157,-0.79235 0.75875,-1.11713 0.28839,-0.47037 0.59357,0.056 0.59357,0.056 0.36958,1.21233 0.54877,2.48065 0.54877,3.79377 0,3.40739 -1.30192,6.6216 -3.09102,8.39669 m -1.16752,-11.33091 c -0.44798,-1.7219 -2.19787,-4.81851 -2.59265,-5.31128 -0.39757,-0.47597 -0.27158,-1.10874 -0.26598,-1.41392 0,-0.30237 0.17359,-0.78675 0.17359,-1.10033 0,-0.54597 0.33038,-0.53477 0.56556,-0.43118 1.95428,0.89875 3.45499,2.59825 4.53013,4.47693 0.23798,0.42838 0.24359,1.40832 0.0672,1.7415 -0.25199,0.48157 -1.01075,2.12227 -1.66031,2.46945 -0.64956,0.35558 -0.74475,-0.0588 -0.81755,-0.43117 m -2.17546,14.16994 c -1.55671,0.87074 -4.18015,1.78909 -6.57401,1.78909 l -0.27718,0 c -0.73636,0.0196 -0.75315,-0.49277 -0.24918,-1.80309 0.73075,-2.01868 1.18713,-5.34488 1.03593,-8.67107 -0.15119,-3.70138 -1.6379,-6.77559 -2.09987,-8.07752 -0.44797,-1.29072 0.29958,-1.44751 0.99954,-1.5931 0.69436,-0.13719 1.6127,-0.33878 2.06908,-0.48437 0.85674,-0.26039 1.13392,-0.39198 1.88988,-0.60756 0.73636,-0.19039 1.7275,-0.0952 2.17827,0.69156 0.44237,0.80634 3.2366,4.8801 3.2366,11.66409 0,2.07747 -0.61036,6.20442 -2.20906,7.09197 m -10.25579,1.24312 c -5.34766,-1.73309 -9.32902,-6.5656 -9.32902,-12.47884 0,-0.87075 0.17078,-1.6771 0.24078,-2.14747 0.10359,-0.54317 0.51237,-0.63276 0.71675,-0.23239 0.1876,0.36398 1.11714,2.34626 3.22261,4.08216 2.13347,1.74709 4.42093,2.70183 7.67434,2.76902 0.39477,0.0196 0.57956,0.59917 0.57956,1.15634 0,0.55156 -0.33318,4.65052 -1.6687,6.18202 -0.35558,0.39198 -0.69716,0.92954 -1.43632,0.66916 m -7.99071,-18.20449 c 0.63556,-1.55111 1.76389,-2.86703 3.00702,-3.97576 0,0 0.61596,-0.52077 0.85395,-0.70276 0,0 0.0504,0.92674 0.66916,1.6211 0.61596,0.69996 1.81149,1.24873 3.05461,1.57631 0,0 0.58517,0.35557 0.93515,0.90154 0.55156,0.82315 2.39945,5.32528 2.48065,7.95992 0.0224,0.89595 -0.73916,1.6407 -1.92909,1.46991 -1.19272,-0.15959 -3.2842,-0.12319 -6.63,-3.2506 -0.73915,-0.68596 -3.2674,-3.63978 -2.44145,-5.59966 m 5.46527,-5.71166 c 1.83389,-1.15913 3.97296,-1.5651 6.20722,-1.5651 1.47832,0 2.88383,0.25198 4.23055,0.69435 0.49557,0.15399 0.78675,0.95195 0.78675,1.35232 0,0.39478 -0.32758,1.29632 -1.87869,1.7807 -1.5455,0.47597 -3.72097,1.18712 -5.49327,1.18712 -1.78348,0 -4.44053,-0.57956 -4.44053,-2.27626 0,-0.51237 0.1288,-0.88475 0.58797,-1.17313 m 6.07003,-2.39665 c -7.99631,0 -14.48072,6.4872 -14.48072,14.46672 0,8.02431 6.48441,14.48632 14.48072,14.48632 8.01032,0 14.49472,-6.46201 14.49472,-14.48632 0,-7.97952 -6.4844,-14.46672 -14.49472,-14.46672"
       id="path17562"
       style="fill:#da020e;fill-opacity:1;fill-rule:nonzero;stroke:none" />
    <path
       d="m 546.88199,434.78463 c 0,-7.2068 5.9476,-13.06777 13.28549,-13.06777 7.34005,0 13.28333,5.86097 13.28333,13.06777 0,7.21955 -5.94328,13.06778 -13.28333,13.06778 -7.33789,0 -13.28549,-5.84823 -13.28549,-13.06778 z"
       id="path39874"
       style="fill:url(#radialGradient39876);fill-opacity:1;stroke:none" />
  </g>
</svg>
