<?xml version="1.0" encoding="UTF-8" standalone="no"?>
<!-- Created with Inkscape (http://www.inkscape.org/) -->

<svg
   xmlns:dc="http://purl.org/dc/elements/1.1/"
   xmlns:cc="http://creativecommons.org/ns#"
   xmlns:rdf="http://www.w3.org/1999/02/22-rdf-syntax-ns#"
   xmlns:svg="http://www.w3.org/2000/svg"
   xmlns="http://www.w3.org/2000/svg"
   version="1.2"
   width="96.720657"
   height="200.00011"
   viewBox="0 0 96.72066 200.0001"
   id="Layer_1"
   xml:space="preserve"><metadata
     id="metadata28"><rdf:RDF><cc:Work
         rdf:about=""><dc:format>image/svg+xml</dc:format><dc:type
           rdf:resource="http://purl.org/dc/dcmitype/StillImage" /><dc:title></dc:title></cc:Work></rdf:RDF></metadata><defs
     id="defs26" /><path
     d="m 26.79843,134.97739 c -0.55578,-0.13943 -1.03583,-0.48395 -1.40635,-1.00106 -1.87926,2.89884 -2.67166,5.49087 -1.98067,7.81702 2.89104,9.76096 11.50306,16.96988 21.8172,17.92998 -9.85749,-2.99407 -17.15285,-13.26563 -18.43018,-24.74594 m -2.01836,-5.76876 c -0.62111,-0.44235 -1.15284,-0.85707 -1.53117,-1.21817 -0.65913,2.42822 -0.96335,4.99716 -0.85544,7.64444 0.0211,0.53498 0.0595,1.06444 0.11245,1.58934 0.38157,-1.56431 1.13269,-3.19851 2.20948,-4.8652 -0.20834,-0.97538 -0.17551,-2.08467 0.0647,-3.15041 z m 0.4859,-1.48988 c 0.26034,-0.59154 0.58666,-1.13757 0.97506,-1.59779 0.31234,-0.36825 0.64516,-0.66077 0.99845,-0.87788 0.93801,-4.37182 2.89722,-8.26587 5.76096,-11.20924 -4.27595,3.04022 -7.55311,7.37435 -9.27603,12.40433 0.22881,0.313 0.83692,0.78622 1.54156,1.28058 z m 36.99037,22.44253 c -2.13472,-0.23694 -4.99034,-0.80117 -6.23678,-1.23279 -1.39173,-0.48103 -2.63005,-1.64395 -3.31032,-3.11271 -0.28179,-0.60713 -0.5366,-1.4148 -0.57723,-2.39376 -0.0231,-0.58536 0.0328,-1.23052 0.20411,-1.92931 -7.8258,-2.38693 -16.11507,-5.70147 -21.88578,-8.78298 -0.20313,0.37183 -0.4352,0.71732 -0.69586,1.02544 -0.4339,0.51353 -0.92143,0.886 -1.42326,1.09856 0.54181,4.8015 2.20915,9.50647 4.86423,13.60593 3.5219,5.43756 8.31853,9.16422 13.49997,10.33754 1.83701,0.41375 4.23824,0.93053 6.38629,0.4547 7.96458,-1.76387 14.45683,-7.27294 17.63031,-14.51988 -0.37214,0.0663 -0.78979,0.10401 -1.23864,0.11961 -1.81686,5.31698 -5.63875,5.50419 -7.21704,5.32965 z m 10.53873,-16.5779 c -0.11343,-2.80003 -0.67799,-5.47396 -1.62282,-7.95515 -1.16162,-3.0425 -5.04429,-5.2003 -10.15846,-6.35867 -9.45479,-2.13732 -21.87408,1.39336 -29.7769,8.04226 0.30356,1.21232 0.21353,2.65898 -0.19404,3.97823 5.69433,3.06168 13.9758,6.37557 21.78892,8.75405 1.83896,-4.22264 5.35956,-5.02803 8.10532,-4.34159 1.96701,0.49077 3.23133,0.74819 4.15439,0.93377 l 1.01568,0.21452 c 1.30527,0.30519 2.45031,1.17234 3.13675,2.38076 0.48656,0.8535 0.93346,2.2033 0.62891,4.06273 0.95978,-0.0562 1.42456,-0.21711 1.53214,-0.34419 1.02544,-2.92322 1.52466,-6.08533 1.39011,-9.36672 z m -4.48038,9.71058 c 0.31429,-1.55781 -0.026,-2.64207 -0.40433,-3.30478 -0.47453,-0.83693 -1.26075,-1.43659 -2.15032,-1.64492 l -0.97278,-0.20477 c -0.88535,-0.17876 -2.22053,-0.45047 -4.22134,-0.9497 -2.68011,-0.66954 -4.97929,0.55806 -6.24946,3.29471 1.3056,0.37963 2.59137,0.73032 3.84432,1.04786 0.20184,-0.97473 0.24506,-1.65077 0.24506,-1.66279 0.026,-0.4222 0.38873,-0.74494 0.81157,-0.72024 0.42253,0.0247 0.74527,0.38612 0.71992,0.81027 -0.003,0.0549 -0.052,0.83042 -0.28472,1.93678 0.24799,0.0582 0.49663,0.11669 0.7404,0.17129 0.25124,0.0575 0.4989,0.11246 0.74136,0.16348 0.21842,-1.07808 0.35915,-1.99496 0.36305,-2.01316 0.0634,-0.41863 0.4547,-0.70594 0.87235,-0.64256 0.42025,0.0624 0.70757,0.45372 0.64516,0.873 -0.0111,0.0738 -0.15341,0.99163 -0.37832,2.09182 0.51418,0.10043 1.00171,0.18786 1.46421,0.26684 0.16998,-0.93021 0.21159,-1.66995 0.21159,-1.68392 0.0201,-0.42253 0.38124,-0.74885 0.80409,-0.72772 0.42383,0.0202 0.75047,0.37962 0.72869,0.80149 -0.003,0.0631 -0.0445,0.83985 -0.22653,1.83961 1.06281,0.14431 1.95531,0.22329 2.69603,0.25741 z m -14.21372,1.87536 c 0.59934,1.29358 1.64297,2.04177 2.42041,2.30926 1.00984,0.35037 3.68247,0.91168 5.90234,1.15512 2.43504,0.26944 4.33868,-1.08524 5.42391,-3.82287 -0.81482,-0.0468 -1.68717,-0.14236 -2.59007,-0.26782 -0.16933,0.55091 -0.38482,1.10051 -0.66271,1.58837 -0.20931,0.36824 -0.67669,0.495 -1.04494,0.28699 -0.36824,-0.20931 -0.49663,-0.67799 -0.28699,-1.04754 0.18396,-0.32339 0.3364,-0.69066 0.4625,-1.06898 -0.47615,-0.0813 -0.95523,-0.17129 -1.42943,-0.26294 -0.16283,0.63606 -0.34907,1.24027 -0.54473,1.69237 -0.16934,0.38807 -0.62241,0.56456 -1.01081,0.3962 -0.38872,-0.16901 -0.56488,-0.62111 -0.3962,-1.00919 0.15829,-0.36337 0.30975,-0.85609 0.4495,-1.3901 -0.24896,-0.0546 -0.495,-0.10921 -0.73876,-0.16413 -0.25774,-0.0579 -0.52166,-0.12026 -0.78492,-0.18364 -0.13814,0.44463 -0.30064,0.9068 -0.49858,1.37483 -0.16381,0.39002 -0.61624,0.57268 -1.00593,0.40822 -0.38938,-0.16413 -0.57366,-0.61493 -0.40855,-1.00431 0.16511,-0.38612 0.30227,-0.77094 0.41895,-1.14146 -1.2926,-0.32794 -2.62063,-0.69229 -3.96718,-1.08524 -0.32502,1.41253 -0.0432,2.51695 0.29219,3.23686 z M 28.83142,126.05563 c -0.33997,-0.0621 -1.0147,-0.0572 -1.68879,0.67571 -1.06769,1.15739 -1.56887,2.72561 -1.49184,4.65752 l 0,0 c 0.0215,0.49273 0.0904,0.76867 0.22979,1.16584 0.24896,0.70204 0.847,1.16617 1.28382,1.24547 0.51938,0.0952 1.10572,-0.20866 1.65305,-0.85642 1.19574,-1.41871 1.71155,-4.02016 1.12489,-5.68035 -0.24377,-0.69164 -0.63736,-1.12099 -1.11092,-1.20777 z"
     id="path8066"
     style="fill:#001c58" /><path
     d="m 36.666,8.3548173e-5 c -9.88154,0 -12.22363,5.066389951827 -12.22363,5.066389951827 0,0 11.40133,-0.82392 11.40133,10.4363505 0,5.06769 -2.75778,8.50249 -5.67677,12.1375 -3.39125,4.22166 -7.23297,9.00691 -7.23297,17.03422 0,13.28806 8.53694,19.52192 16.06827,25.02124 6.5618,4.79272 12.75893,9.31795 12.75893,17.83929 0,8.56847 -3.75819,15.211196 -5.47364,16.925666 -2.87706,2.87707 -5.46941,3.40035 -7.5505,3.82124 -2.13798,0.4313 -4.15797,0.84635 -4.58212,3.91713 -7.91127,4.75145 -12.70432,13.21428 -12.70432,22.39573 0,0.35817 0.007,0.71764 0.0218,1.07744 0.28439,6.97815 3.26904,13.42749 8.40368,18.15976 5.13432,4.73325 11.805,7.18226 18.78185,6.89755 6.9775,-0.28407 13.4262,-3.26936 18.15944,-8.40238 4.73325,-5.13465 7.18292,-11.80565 6.8969,-18.78153 -0.43195,-10.65183 -7.19136,-19.88399 -17.21916,-23.51867 l 0.0387,0.0143 c -0.007,-0.003 -0.13716,-0.0553 -0.13716,-0.0553 -0.001,-10e-4 -0.23629,-0.0829 -0.23629,-0.0829 -1.26822,-0.4378 -2.70708,-0.93508 -2.70708,-4.19697 0,-3.1608 1.43496,-3.42277 4.29024,-3.94735 1.69758,-0.31169 3.77445,-0.69261 5.81134,-1.936776 3.62493,-2.21273 4.30552,-4.88211 3.64541,-5.54092 -0.89836,-0.89965 -1.88869,0.98968 -5.53735,2.08889 -1.31535,0.39718 -2.63915,0.62794 -3.53327,0.62794 -0.74397,0 -1.2991,-0.0624 -1.70635,-0.13651 1.91631,-3.59015 4.06306,-6.5293 4.08678,-6.56017 l 0.46771,-0.63639 -0.55936,-0.55903 c -0.74137,-0.74105 -1.16812,-2.28293 -1.16812,-4.35038 0,-2.55107 0.64874,-5.90071 2.15455,-9.53767 1.7811,-4.29772 8.85091,-18.32357 25.06641,-18.32357 h 0.92078 v -0.92046 c 0,-5.79703 -0.52978,-11.12896 -1.57342,-15.84693 l -0.20313,-0.91655 c 0,0 -1.57439,0.4469 -2.88584,0.73942 -0.15601,0.0345 -1.38263,0.33574 -1.43854,0.077 -0.0491,-0.22882 0.89803,-0.70432 1.22532,-0.86878 1.2315,-0.61233 2.76656,-1.25717 2.76656,-1.25717 l -0.21191,-0.73779 c -1.15674,-4.03673 -2.32063,-5.96572 -2.37036,-6.04665 l -0.37572,-0.61493 -0.68482,0.21678 c -13.50354,4.25385 -16.39101,13.21461 -18.11621,18.56734 -0.83952,2.60113 -1.3589,4.07281 -2.29788,4.07281 -2.78704,0 -5.09272,-2.30503 -5.85066,-3.06265 -8.41863,-8.41961 -7.77412,-14.48966 -6.79646,-23.67891 0.34614,-3.24271 0.73746,-6.91737 0.73746,-11.11401 C 49.31545,4.9259735 45.29627,-1.6451827e-5 36.66605,-1.6451827e-5"
     id="path8068"
     style="fill:#ffffff" /><path
     d="m 52.68161,87.534754 c 0,8.53369 -3.63988,15.473476 -5.74275,17.576026 -6.51695,6.5176 -11.8921,1.77135 -11.95061,8.31007 -2.95734,2.67816 -5.08491,6.74999 -6.12887,11.40068 0.065,0.006 0.12935,0.0156 0.19306,0.0276 0.61201,0.11148 1.13756,0.4612 1.53863,1.01308 8.27725,-6.74576 21.02123,-10.29269 30.76204,-8.09004 3.09678,0.70009 5.72358,1.84351 7.71302,3.59276 -2.99115,-4.83823 -7.56416,-8.57204 -12.96954,-10.5098 -1.28285,-0.4599 -3.56383,-0.98676 -3.56383,-5.14992 0,-7.769246 8.50053,-1.72845 14.10093,-10.190956 0.27431,-0.41798 -0.12026,-0.78265 -0.4495,-0.45405 -1.69367,1.69269 -5.85424,2.85756 -8.05461,2.85756 -2.20298,0 -3.03145,-0.50183 -3.03145,-0.50183 2.07947,-4.13813 4.66954,-7.66036 4.66954,-7.66036 -5.199,-5.199 3.55115,-33.78309 26.70418,-33.78309 0,-6.63038 -0.70042,-11.8024 -1.55164,-15.64834 -0.55058,0.13423 -4.91168,1.16259 -5.11157,0.24539 -0.17648,-0.81255 3.21249,-2.57415 4.3793,-3.15366 -1.13789,-3.96328 -2.27123,-5.82076 -2.27123,-5.82076 -19.84466,6.25239 -15.85635,22.6824 -20.69068,22.6824 -3.14683,0 -5.61827,-2.44934 -6.50102,-3.33209 -11.85311,-11.85115 -6.32877,-19.69483 -6.32877,-35.44393 0,-10.6092605 -4.12026,-14.58261045 -11.72927,-14.58261045 -7.60868,0 -10.32714,3.29471995 -10.32714,3.29471995 0,0 10.4253,0.33769 10.4253,11.2878905 0,11.46406 -12.91007,14.62844 -12.91007,29.1714 -6.5e-4,24.21031 28.82655,23.75561 28.82655,42.86183 M 38.93885,15.502794 c 0,-1.40538 -0.15113,-2.67458 -0.42545,-3.81994 0,0 2.26896,-0.11863 2.26896,-2.8799905 0,-2.27643 -1.51849,-3.8284 -1.92574,-3.8284 -0.32859,0 -0.41017,0.34875 -1.12131,0.34875 -1.733,0 -1.85976,-2.21435 -1.85976,-2.21435 0.25644,-0.009 0.52003,-0.0127 0.79045,-0.0127 4.96173,0 9.55424,1.50256 9.55424,12.4072605 0,4.03251 -0.38222,7.62104 -0.71861,10.78672 -0.3338,3.12668 -0.64224,6.03495 -0.55351,8.87496 0,0 -8.64029,-1.01829 -8.64029,-7.51866 0,-4.22134 2.63102,-5.2484 2.63102,-12.14367 z M 26.79843,134.97739 c -0.55578,-0.13943 -1.03583,-0.48395 -1.40635,-1.00106 -1.87926,2.89884 -2.67166,5.49087 -1.98067,7.81702 2.89104,9.76096 11.50306,16.96988 21.8172,17.92998 -9.85749,-2.99407 -17.15285,-13.26563 -18.43018,-24.74594 z m -2.01836,-5.76876 c -0.62111,-0.44235 -1.15284,-0.85707 -1.53117,-1.21817 -0.65913,2.42822 -0.96335,4.99716 -0.85544,7.64444 0.0211,0.53498 0.0595,1.06444 0.11245,1.58934 0.38157,-1.56431 1.13269,-3.19851 2.20948,-4.8652 -0.20834,-0.97538 -0.17551,-2.08467 0.0647,-3.15041 z m 0.4859,-1.48988 c 0.26034,-0.59154 0.58666,-1.13757 0.97506,-1.59779 0.31234,-0.36825 0.64516,-0.66077 0.99845,-0.87788 0.93801,-4.37182 2.89722,-8.26587 5.76096,-11.20924 -4.27595,3.04022 -7.55311,7.37435 -9.27603,12.40433 0.22881,0.313 0.83692,0.78622 1.54156,1.28058 z m 36.99037,22.44253 c -2.13472,-0.23694 -4.99034,-0.80117 -6.23678,-1.23279 -1.39173,-0.48103 -2.63005,-1.64395 -3.31032,-3.11271 -0.28179,-0.60713 -0.5366,-1.4148 -0.57723,-2.39376 -0.0231,-0.58536 0.0328,-1.23052 0.20411,-1.92931 -7.8258,-2.38693 -16.11507,-5.70147 -21.88578,-8.78298 -0.20313,0.37183 -0.4352,0.71732 -0.69586,1.02544 -0.4339,0.51353 -0.92143,0.886 -1.42326,1.09856 0.54181,4.8015 2.20915,9.50647 4.86423,13.60593 3.5219,5.43756 8.31853,9.16422 13.49997,10.33754 1.83701,0.41375 4.23824,0.93053 6.38629,0.4547 7.96458,-1.76387 14.45683,-7.27294 17.63031,-14.51988 -0.37214,0.0663 -0.78979,0.10401 -1.23864,0.11961 -1.81686,5.31698 -5.63875,5.50419 -7.21704,5.32965 z m 8.91591,-24.53305 c -1.16162,-3.0425 -5.04429,-5.2003 -10.15846,-6.35867 -9.45479,-2.13732 -21.87408,1.39336 -29.7769,8.04226 0.30356,1.21232 0.21353,2.65898 -0.19404,3.97823 5.69433,3.06168 13.9758,6.37557 21.78892,8.75405 1.83896,-4.22264 5.35956,-5.02803 8.10532,-4.34159 1.96701,0.49077 3.23133,0.74819 4.15439,0.93377 l 1.01568,0.21452 c 1.30527,0.30519 2.45031,1.17234 3.13675,2.38076 0.48656,0.8535 0.93346,2.2033 0.62891,4.06273 0.95978,-0.0562 1.42456,-0.21711 1.53214,-0.34419 1.02446,-2.92322 1.52369,-6.08533 1.38913,-9.36639 -0.11213,-2.80036 -0.67701,-5.47429 -1.62184,-7.95548 z m -17.07128,19.54109 c 0.59934,1.29358 1.64297,2.04177 2.42041,2.30926 1.00984,0.35037 3.68247,0.91168 5.90234,1.15512 2.43504,0.26944 4.33868,-1.08524 5.42391,-3.82287 -0.81482,-0.0468 -1.68717,-0.14236 -2.59007,-0.26782 -0.16933,0.55091 -0.38482,1.10051 -0.66271,1.58837 -0.20931,0.36824 -0.67669,0.495 -1.04494,0.28699 -0.36824,-0.20931 -0.49663,-0.67799 -0.28699,-1.04754 0.18396,-0.32339 0.3364,-0.69066 0.4625,-1.06898 -0.47615,-0.0813 -0.95523,-0.17129 -1.42943,-0.26294 -0.16283,0.63606 -0.34907,1.24027 -0.54473,1.69237 -0.16934,0.38807 -0.62241,0.56456 -1.01081,0.3962 -0.38872,-0.16901 -0.56488,-0.62111 -0.3962,-1.00919 0.15829,-0.36337 0.30975,-0.85609 0.4495,-1.3901 -0.24896,-0.0546 -0.495,-0.10921 -0.73876,-0.16413 -0.25774,-0.0579 -0.52166,-0.12026 -0.78492,-0.18364 -0.13814,0.44463 -0.30064,0.9068 -0.49858,1.37483 -0.16381,0.39002 -0.61624,0.57268 -1.00593,0.40822 -0.38938,-0.16413 -0.57366,-0.61493 -0.40855,-1.00431 0.16511,-0.38612 0.30227,-0.77094 0.41895,-1.14146 -1.2926,-0.32794 -2.62063,-0.69229 -3.96718,-1.08524 -0.32502,1.41253 -0.0432,2.51695 0.29219,3.23686 z m 14.21372,-1.87536 c 0.31429,-1.55781 -0.026,-2.64207 -0.40433,-3.30478 -0.47453,-0.83693 -1.26075,-1.43659 -2.15032,-1.64492 l -0.97278,-0.20477 c -0.88535,-0.17876 -2.22053,-0.45047 -4.22134,-0.9497 -2.68011,-0.66954 -4.97929,0.55806 -6.24946,3.29471 1.3056,0.37963 2.59137,0.73032 3.84432,1.04786 0.20184,-0.97473 0.24506,-1.65077 0.24506,-1.66279 0.026,-0.4222 0.38873,-0.74494 0.81157,-0.72024 0.42253,0.0247 0.74527,0.38612 0.71992,0.81027 -0.003,0.0549 -0.052,0.83042 -0.28472,1.93678 0.24799,0.0582 0.49663,0.11669 0.7404,0.17129 0.25124,0.0575 0.4989,0.11246 0.74136,0.16348 0.21842,-1.07808 0.35915,-1.99496 0.36305,-2.01316 0.0634,-0.41863 0.4547,-0.70594 0.87235,-0.64256 0.42025,0.0624 0.70757,0.45372 0.64516,0.873 -0.0111,0.0738 -0.15341,0.99163 -0.37832,2.09182 0.51418,0.10043 1.00171,0.18786 1.46421,0.26684 0.16998,-0.93021 0.21159,-1.66995 0.21159,-1.68392 0.0201,-0.42253 0.38124,-0.74885 0.80409,-0.72772 0.42383,0.0202 0.75047,0.37962 0.72869,0.80149 -0.003,0.0631 -0.0445,0.83985 -0.22653,1.83961 1.06281,0.14431 1.95531,0.22329 2.69603,0.25741 z M 28.83142,126.05563 c -0.33997,-0.0621 -1.0147,-0.0572 -1.68879,0.67571 -1.06769,1.15739 -1.56887,2.72561 -1.49184,4.65752 l 0,0 c 0.0215,0.49273 0.0904,0.76867 0.22979,1.16584 0.24896,0.70204 0.847,1.16617 1.28382,1.24547 0.51938,0.0952 1.10572,-0.20866 1.65305,-0.85642 1.19574,-1.41871 1.71155,-4.02016 1.12489,-5.68035 -0.24377,-0.69164 -0.63736,-1.12099 -1.11092,-1.20777 z"
     id="path8070"
     style="fill:#001c58" /><path
     d="m 8.99229,156.67693 c 1.93483,1.27635 3.98375,2.42399 3.98375,2.42399 l -0.71731,1.85878 c -0.26782,-1.12619 -1.38491,-1.73722 -2.82637,-2.6294 l -4.71927,6.82409 c -0.57626,0.82262 -1.69984,2.6242 -1.79052,3.32624 0,0 -0.77452,-0.49175 -1.48144,-1.01828 C 0.70236,166.91112 0,166.40051 0,166.40051 c 0.70334,-0.17096 1.91793,-1.96278 2.65052,-2.95604 l 4.59122,-6.55075 C 5.52206,155.56407 4.8509,155.30373 3.63566,155.24035 l 1.63419,-1.22532 c 9.7e-4,9.7e-4 1.57146,1.24385 3.72244,2.6619"
     id="path8072"
     style="fill:#001c58" /><path
     d="m 83.77485,179.79323 0.14235,0.15633 c -0.13325,-0.007 -0.24409,0.0618 -0.38709,0.14236 l 0.41407,0.79597 c 0.0809,0.14724 0.19534,0.37117 0.27009,0.38743 0,0 -0.0884,0.0504 -0.19436,0.104 -0.0926,0.0455 -0.18039,0.0813 -0.18039,0.0813 0.001,-0.0991 -0.0309,-0.17779 -0.14105,-0.404 l -0.43358,-0.8353 c -0.14528,0.0734 -0.30487,0.14561 -0.34712,0.26391 l -0.0367,-0.23108 c 0,0 0.21387,-0.10368 0.44528,-0.22329 0.26847,-0.13846 0.44853,-0.23759 0.44853,-0.23759"
     id="path8074"
     style="fill:#001c58" /><path
     d="m 12.04681,173.60423 c -3.27813,-1.56432 -3.71366,-5.17658 -2.09962,-8.55742 1.6212,-3.39482 4.71147,-5.30593 7.97466,-3.74649 3.26189,1.55749 3.72146,5.16097 2.09897,8.55709 -1.61437,3.38084 -4.69619,5.31178 -7.97401,3.74682 m 5.40571,-11.32398 c -2.09604,-1.00041 -3.74421,1.36703 -4.98708,3.9701 -1.24287,2.60275 -2.05575,5.39076 0.0406,6.3915 2.09637,0.99943 3.75299,-1.38426 4.99619,-3.98701 1.24287,-2.60307 2.04664,-5.37451 -0.0497,-6.37459 z"
     id="path8076"
     style="fill:#001c58" /><path
     d="m 26.71588,164.79167 c 2.21695,0.62599 4.02113,1.04494 4.02113,1.04494 l -0.19209,1.98423 c -0.59413,-0.85837 -0.86682,-1.06801 -2.75908,-1.55033 l -2.29431,7.71366 c -0.18396,0.70627 -1.09954,3.3776 -0.80604,3.88007 0,0 -0.63704,-0.13585 -1.66572,-0.42122 -1.15642,-0.32047 -1.69985,-0.53726 -1.69985,-0.53726 0.59316,-0.39002 1.3394,-2.6736 1.58349,-3.60185 l 2.30568,-7.76535 c -1.96051,-0.65393 -2.41619,-0.69944 -3.35289,-0.26424 l 1.13626,-1.69204 c -3.2e-4,6.5e-4 1.2796,0.5171 3.72342,1.20939"
     id="path8078"
     style="fill:#001c58" /><path
     d="m 35.86093,166.84059 c 2.1851,0.33022 4.24344,0.51678 4.24344,0.51678 l 0.0825,1.99106 c -0.81644,-0.72609 -1.12391,-0.9614 -3.28106,-1.23312 l -1.24937,7.92168 c -0.0878,0.72577 -0.55221,3.48127 -0.19306,3.93825 0,0 -0.75664,-0.0842 -1.80158,-0.23011 -1.04493,-0.14854 -1.68685,-0.29544 -1.68685,-0.29544 0.51028,-0.3988 0.93443,-3.00773 1.02316,-3.73414 l 1.27993,-8.02016 c -1.86919,-0.37312 -2.25336,-0.22979 -3.15106,0.29089 l 0.81385,-1.88381 c 0,-3.2e-4 1.74567,0.40985 3.92005,0.73812"
     id="path8080"
     style="fill:#001c58" /><path
     d="m 43.96267,174.37224 -0.16446,5.32348 c 2.79126,0.0367 4.70237,-0.13975 5.55294,-1.35077 l -0.42675,2.41879 c 0,0 -1.54611,0.0312 -3.81019,0 -2.48802,-0.0358 -4.44106,-0.19794 -4.44106,-0.19794 0.41408,-0.41017 0.51678,-3.00447 0.52166,-3.73349 l 0.22751,-5.225 c 0.0101,-1.39108 0.13683,-3.63956 -0.33022,-4.11213 2.02227,0.13975 1.76485,0.13715 3.62201,0.20963 2.43179,0.0965 3.80889,0.0241 3.80889,0.0241 l 0.30584,1.99724 c -0.94938,-0.79239 -2.37263,-0.88535 -4.69619,-0.899 l -0.12806,4.46803 3.56871,0.0205 c 0.32144,0.004 0.34159,0.18266 0.34062,0.54051 -0.004,0.35297 -0.009,0.54083 -0.34777,0.53725 l -3.60348,-0.0211"
     id="path8082"
     style="fill:#001c58" /><path
     d="m 59.54991,175.97459 c 0.20574,1.93711 0.41017,3.32851 0.85187,3.58268 -0.1105,0.20021 -0.46055,0.46315 -0.92533,0.51255 -0.55968,0.0598 -0.98285,-0.21581 -1.37157,-0.66499 l -6.32779,-7.25896 0.23791,4.61819 c 0.0767,0.72576 0.16024,3.47705 0.61201,3.84432 l -2.10839,0.0959 c 0.36694,-0.4534 0.26944,-3.07468 0.19143,-3.8024 l -0.29771,-5.21134 c -0.0774,-0.72642 -0.21322,-3.60869 -0.66662,-3.97303 l 1.93354,-0.0699 6.48509,7.70262 -0.53953,-4.43196 c -0.0774,-0.72869 -0.47192,-3.36947 -0.90842,-3.73674 0,0 0.23303,-0.0224 1.02023,-0.12935 0.78557,-0.10661 1.07159,-0.16381 1.07159,-0.16381 -0.36435,0.45437 0.0585,3.16373 0.13683,3.89047 l 0.60486,5.19575"
     id="path8084"
     style="fill:#001c58" /><path
     d="m 71.43909,173.2285 c 0.22459,0.90128 0.67051,3.21574 1.33193,3.66881 0,0 -1.00074,0.28992 -1.61275,0.47778 -0.5444,0.16739 -1.74405,0.47875 -1.74405,0.47875 0.28277,-0.5002 -0.34777,-3.27813 -0.52198,-3.97172 l -0.60161,-2.41717 -4.0208,0.98611 0.45697,2.45812 c 0.13196,0.79467 0.55091,3.46892 1.09304,3.79524 0,0 -0.56228,0.11635 -1.7343,0.35687 -0.98155,0.20183 -1.66507,0.30974 -1.66507,0.30974 0.30129,-0.5002 -0.10238,-2.98009 -0.22719,-3.77119 l -0.9744,-5.19672 c -0.17779,-0.96823 -0.62501,-3.4192 -1.16292,-3.70586 0,0 0.52166,-0.0988 1.66995,-0.3221 1.14861,-0.22361 1.71155,-0.37572 1.71155,-0.37572 -0.28277,0.58146 0.21581,2.93297 0.35134,3.75689 l 0.30942,1.64914 3.95678,-0.96465 -0.42675,-1.6849 c -0.23239,-0.89282 -0.72382,-3.0347 -1.27343,-3.43219 0,0 0.54311,-0.15699 1.64395,-0.46998 1.10116,-0.31072 1.57601,-0.4885 1.57601,-0.4885 -0.21841,0.59413 0.39392,2.6801 0.64744,3.75559 l 1.21687,5.10766"
     id="path8086"
     style="fill:#001c58" /><path
     d="m 78.78516,170.14798 -3.92362,1.53669 0.13618,2.15454 c 0.0877,0.73552 0.0904,1.41091 0.25124,1.79183 0.079,0.18916 0.21483,0.31462 0.34452,0.38222 0,0 -0.40953,0.14854 -1.08329,0.36727 -0.67441,0.21809 -1.04493,0.32502 -1.04493,0.32502 0.23531,-0.40562 0.29186,-0.964 0.27139,-1.66084 l -0.3455,-10.21436 c -0.0328,-0.37117 -0.077,-0.71894 -0.20021,-1.01048 -0.10921,-0.26034 -0.29317,-0.4066 -0.42155,-0.51581 0.4469,-0.28959 1.00593,-0.60681 1.57439,-0.84537 0.90128,-0.37995 1.28155,-0.36467 1.93906,0.40205 l 5.75608,7.13903 c 1.04689,1.36248 1.97189,2.27935 2.57415,2.46202 0,0 -0.58861,0.27139 -1.69497,0.76444 -1.10637,0.4911 -1.83831,0.77029 -1.83831,0.77029 0.0653,-0.23109 0.0731,-0.47615 -0.0712,-0.84407 -0.15406,-0.3975 -0.72024,-1.07029 -1.08556,-1.58057 l -1.13789,-1.4239 m -0.71212,-0.8457 -3.48647,-4.83108 0.24571,6.06778 3.24076,-1.2367 z"
     id="path8088"
     style="fill:#001c58" /><path
     d="m 95.22395,166.44472 c -0.78914,0.53205 -1.38003,0.9393 -1.38003,0.9393 -0.0579,-0.77679 -1.55716,-2.69668 -1.99756,-3.27944 l -3.3815,-4.4105 2.72008,8.69555 c -0.10595,0.17258 -0.29836,0.41407 -0.4781,0.5496 -0.53628,0.4079 -1.05858,0.32762 -1.53571,-0.0478 l -6.43894,-5.33778 2.25367,4.15081 c 0.55124,1.05111 1.61372,3.23881 2.32909,3.45462 0,0 -0.44463,0.23726 -1.00756,0.50995 -0.55871,0.27042 -0.9003,0.42935 -0.9003,0.42935 0.12481,-0.61071 -0.92143,-2.42626 -1.53051,-3.5882 l -2.50785,-4.717 c -0.76087,-1.41903 -1.60006,-2.86406 -2.32063,-3.15203 0.55741,-0.27041 0.72577,-0.35297 1.52369,-0.74689 0.66466,-0.32762 1.25099,-0.64874 1.25099,-0.64874 l 7.24922,6.16691 -2.85139,-8.73098 c 0,0 0.38222,-0.25936 1.10701,-0.74299 0.72285,-0.48395 1.37483,-0.96498 1.37483,-0.96498 0.0553,0.78069 1.56464,2.77176 2.11457,3.4842 l 3.12181,4.0169 c 0.66206,0.82653 1.90038,2.66646 2.78183,2.87739 -3.2e-4,-6.5e-4 -0.70626,0.55806 -1.49671,1.09272"
     id="path8090"
     style="fill:#001c58" /><path
     d="m 85.38694,179.40256 0.35589,0.456 c 0.10401,0.12708 0.20964,0.28407 0.32112,0.33119 0,0 -0.0926,0.0663 -0.18298,0.12741 -0.09,0.0595 -0.15666,0.10661 -0.15666,0.10661 -0.0247,-0.12286 -0.17584,-0.31365 -0.22524,-0.37995 l -0.37832,-0.49988 0.30974,0.98676 c -0.0127,0.0202 -0.0341,0.0471 -0.0553,0.0618 -0.0809,0.0621 -0.14074,0.0267 -0.19501,-0.0166 l -0.74592,-0.59543 0.29122,0.47193 c 0.0692,0.1222 0.19436,0.34679 0.29316,0.39262 0,0 -0.0549,0.0328 -0.12188,0.0721 -0.0585,0.0345 -0.11571,0.0637 -0.11571,0.0637 0.0137,-0.11928 -0.13683,-0.35427 -0.18201,-0.43553 l -0.31949,-0.53563 c -0.0735,-0.12155 -0.18884,-0.29966 -0.29219,-0.32989 0,0 0.10043,-0.0523 0.19858,-0.10693 0.0614,-0.0338 0.12351,-0.0741 0.16089,-0.0943 l 0.8249,0.68644 -0.31755,-0.97863 c 0.0306,-0.014 0.0783,-0.0436 0.15244,-0.0891 0.0952,-0.0582 0.17388,-0.11149 0.17388,-0.11149 -3.2e-4,0.11961 0.13813,0.3247 0.20639,0.41668"
     id="path8092"
     style="fill:#001c58" /><path
     d="m 21.03423,182.3209 c 0.67181,0.24669 1.53864,0.54733 1.53864,0.54733 -0.73,0.52946 -1.40051,2.63395 -1.83571,3.77704 l -1.6836,4.67117 c -0.45047,1.2679 -1.21882,3.10588 -0.9614,3.76144 0,0 -0.9263,-0.31982 -1.6758,-0.58601 -0.64126,-0.22881 -1.00528,-0.35069 -1.68457,-0.64126 0.82522,-0.21874 1.60332,-2.96352 1.85618,-3.65386 l 0.77062,-2.18022 -4.0351,-1.6823 -1.16682,2.49354 c -0.37995,0.86618 -1.2887,2.82734 -1.07256,3.44195 0,0 -0.71277,-0.29089 -1.75608,-0.77062 -1.22889,-0.56586 -1.49638,-0.71569 -1.49638,-0.71569 0.86585,-0.42577 1.37873,-1.82335 2.03786,-3.23556 l 2.11002,-4.67312 c 0.71309,-1.59974 1.35696,-2.98627 1.30853,-3.89795 0,0 0.3767,0.22459 1.41448,0.69099 0.82685,0.37182 1.24905,0.55773 1.71317,0.74365 -0.65686,0.26131 -1.57081,2.61932 -2.05314,3.67693 l -0.61818,1.32055 3.94182,1.62379 0.60454,-1.49671 c 0.28309,-0.76476 1.26074,-3.04965 1.04981,-3.83197 0,3.3e-4 0.80897,0.29382 1.69367,0.61689"
     id="path8094"
     style="fill:#001c58" /><path
     d="m 25.59229,197.48074 c -3.5141,-0.92435 -4.63152,-4.32697 -3.69969,-7.87195 0.93671,-3.56383 3.59796,-5.95206 7.09483,-5.03096 3.49525,0.91883 4.63639,4.30747 3.70099,7.8713 -0.93313,3.54595 -3.58138,5.95564 -7.09613,5.03161 m 3.12505,-11.87618 c -2.2462,-0.59056 -3.40652,1.98392 -4.12481,4.7144 -0.72024,2.7282 -0.97928,5.56074 1.26562,6.1526 2.24621,0.58926 3.4127,-2.00374 4.13034,-4.7326 0.71959,-2.7295 0.97441,-5.54286 -1.27115,-6.1344 z"
     id="path8096"
     style="fill:#001c58" /><path
     d="m 35.11078,198.73531 c 0,0 0.22362,-0.24181 0.37605,-0.73421 0.21484,-0.69197 0.35297,-2.02227 0.5184,-3.05973 l 0.98384,-7.60771 c -2.09605,-0.26294 -2.62843,-0.11213 -3.54888,0.43293 l 0.86357,-1.94784 c 0.65264,0.14463 2.09897,0.30097 3.8583,0.52296 1.17722,0.14723 4.68384,0.4638 4.68384,0.4638 l 0.11928,1.94848 c -0.77322,-0.89477 -1.57569,-0.97603 -3.32266,-1.11319 l -0.97993,7.63307 c -0.0878,0.71081 -0.47778,3.1764 -0.091,3.9064 -0.42155,-0.0478 -1.11969,-0.12709 -1.70537,-0.18527 -0.60746,-0.0621 -1.40636,-0.20021 -1.75543,-0.25969"
     id="path8098"
     style="fill:#001c58" /><path
     d="m 51.81447,196.09291 c 0.024,2.29041 -1.83863,3.94833 -4.704,3.9064 -2.22833,-0.0325 -3.39352,-0.94938 -3.83944,-1.3225 l 0.4638,-2.17372 c 0.69164,1.38523 1.8383,2.39181 3.12928,2.41229 1.3485,0.0188 2.40968,-0.77485 2.43146,-2.11133 0.014,-0.97148 -0.52068,-1.55813 -2.77013,-2.72885 -2.15585,-1.11319 -2.95832,-2.2241 -2.95832,-3.88007 0,-2.25498 1.96149,-3.40035 4.26587,-3.401 1.69464,-0.002 2.87674,0.51776 3.6194,0.9146 l -0.47875,1.99172 c -1.02803,-1.37321 -1.95889,-1.88154 -3.0815,-1.89714 -1.10571,-0.0182 -1.88901,0.58504 -1.88153,1.7213 0.007,1.23865 1.36995,1.90819 3.20728,2.93427 2.11262,1.18209 2.5839,2.36711 2.59658,3.63403"
     id="path8100"
     style="fill:#001c58" /><path
     d="m 62.24789,189.07706 c 0.0819,0.26879 0.13098,0.59511 0.15633,0.85155 0.0218,0.23661 0.0335,0.54961 0.005,0.84602 -0.0608,0.74235 -0.4131,1.60495 -0.99553,2.21143 -0.88958,0.92923 -2.04957,1.39141 -3.58691,1.46323 -0.59283,0.0364 -0.73486,-0.14463 -0.77451,-0.57268 l -0.004,-0.0929 c 0,0 -0.0127,-0.16544 0.11668,-0.17421 l 0.14886,-0.0146 c 0.45405,-0.0566 1.12846,-0.19859 1.66897,-0.8561 0.51873,-0.67669 0.69587,-1.57569 0.60551,-2.54327 -0.0962,-1.00528 -0.39815,-1.7291 -1.07386,-2.24945 -0.58666,-0.4508 -1.27602,-0.59739 -1.98554,-0.54116 0,0 -0.28472,0.024 -0.60063,0.0741 0,0 -0.18494,0.0166 -0.16934,0.19761 l 0.76184,7.89047 c 0.066,0.69457 0.25514,3.13968 0.82523,3.64411 0,0 -0.64874,0.0686 -1.87048,0.16901 -0.93151,0.0761 -1.65792,0.0949 -1.65792,0.0949 0.24506,-0.60551 0.20443,-1.50094 0.14333,-2.54327 l -0.59024,-6.22216 c -0.0673,-0.71212 -0.18753,-3.15301 -0.76801,-3.75591 0,0 1.56171,-0.23109 4.45113,-0.50411 1.51101,-0.14301 2.74868,0.0494 3.81636,0.77192 0.69912,0.4703 1.17917,1.15577 1.37711,1.85553"
     id="path8102"
     style="fill:#001c58" /><path
     d="m 74.07076,191.62131 c 0.61852,2.7347 -0.66498,5.06314 -3.51085,5.7746 -1.99951,0.49988 -4.87918,-0.23369 -5.68262,-3.74161 l -0.97896,-4.14171 c -0.25774,-1.15934 -0.67929,-3.21216 -1.35175,-3.74682 0,0 0.75177,-0.10628 1.92899,-0.32599 1.17689,-0.21971 1.72357,-0.3507 1.72357,-0.3507 -0.30909,0.48721 0.0156,2.40612 0.32307,3.81572 l 1.24937,5.26465 c 0.22296,0.96498 0.5379,1.62542 1.07906,2.01479 0.40075,0.28992 0.93638,0.3689 1.49444,0.26717 0.50768,-0.0946 1.03616,-0.38125 1.31275,-0.89543 0.29316,-0.53953 0.29186,-1.32022 0.066,-2.2839 l -1.40246,-5.26465 c -0.38385,-1.44926 -0.82555,-3.26319 -1.3004,-3.56676 0,0 0.57138,-0.15503 1.65435,-0.46478 0.82002,-0.23368 1.30755,-0.37572 1.66182,-0.50052 -0.32372,0.79239 0.4469,3.22288 0.61006,3.91842 l 1.12358,4.22752"
     id="path8104"
     style="fill:#001c58" /><path
     d="m 86.84855,190.54225 c 0.27561,0.10563 0.57268,0.17811 0.82197,0.0722 -0.0286,0.17161 -0.18981,0.5145 -0.45958,0.79142 -1.15089,1.17917 -2.2306,0.97636 -2.59657,0.83172 -1.98391,-0.75664 -5.30203,-3.69708 -5.43854,-4.0182 0,0 -0.0341,-0.0839 0.052,-0.11928 l 0.11993,-0.0533 c 0.5184,-0.21548 1.10636,-0.80149 1.3381,-1.35565 0.37117,-0.81287 0.30844,-1.54286 -0.0683,-2.43634 -0.39002,-0.92923 -1.07256,-1.51491 -1.60721,-1.67255 -0.7911,-0.23368 -1.38101,-0.0481 -1.7408,0.0952 0,0 -0.47453,0.18656 -0.61591,0.32891 0,0 -0.0952,0.0787 0.0156,0.40238 l 2.50654,7.15918 c 0.38092,1.05306 1.04234,3.10751 1.64167,3.45365 0,0 -0.67734,0.26619 -1.70407,0.63736 -1.02706,0.37085 -1.65175,0.54343 -1.65175,0.54343 0.20932,-0.79954 -0.58178,-2.97327 -0.78102,-3.583 l -1.62086,-4.83433 c -0.4053,-1.16552 -1.14472,-3.25409 -1.7473,-3.5882 0,0 1.18339,-0.33152 3.84334,-1.44861 1.41481,-0.59414 2.78509,-0.8483 4.02178,-0.48623 0.75047,0.22069 1.2575,0.59738 1.67255,1.19867 0.15861,0.23271 0.27529,0.4612 0.37604,0.69781 0.092,0.22004 0.15569,0.47258 0.19762,0.70724 0.13098,0.73065 0.0211,1.50744 -0.4014,2.24003 0,0 -0.38092,0.73779 -1.19445,1.31665 -9.7e-4,-9.7e-4 2.61185,2.2124 5.02057,3.11986"
     id="path8106"
     style="fill:#001c58" /></svg>