<?xml version="1.0" encoding="UTF-8" standalone="no"?>
<!-- Created with Inkscape (http://www.inkscape.org/) -->

<svg
   xmlns:dc="http://purl.org/dc/elements/1.1/"
   xmlns:cc="http://creativecommons.org/ns#"
   xmlns:rdf="http://www.w3.org/1999/02/22-rdf-syntax-ns#"
   xmlns:svg="http://www.w3.org/2000/svg"
   xmlns="http://www.w3.org/2000/svg"
   version="1.0"
   width="280"
   height="200"
   viewBox="0 0 280 199.99999"
   id="Layer_1"
   xml:space="preserve"><metadata
     id="metadata42"><rdf:RDF><cc:Work
         rdf:about=""><dc:format>image/svg+xml</dc:format><dc:type
           rdf:resource="http://purl.org/dc/dcmitype/StillImage" /><dc:title></dc:title></cc:Work></rdf:RDF></metadata><defs
     id="defs76" /><path
     d="m 147.68082,160.14654 c 21.85107,-3.07885 34.49778,-10.4498 45.10793,-17.38252 l -4.73035,-5.92235 c -1.15982,0.7535 -2.84351,1.76905 -4.08895,2.45872 l -36.28863,20.84615 M 82.78537,142.76402 c 10.84523,7.29623 26.67768,15.40485 45.55162,17.52678 l -37.3361,-21.33784 c -1.20263,-0.67358 -2.3679,-1.37907 -3.49581,-2.11129 l -4.71971,5.92235 z m 158.78875,-33.25234 -1.12791,5.70336 c -0.14971,0.78567 -2.76333,17.67624 -15.02006,31.10888 l 9.58915,12.13374 -1.20264,1.42163 c -0.34197,0.40087 -9.68021,11.32628 -25.75839,20.91542 -14.78991,8.81438 -37.11684,19.20528 -70.26202,19.20528 -31.95344,0 -55.9747,-10.51908 -70.49217,-19.34409 -15.7842,-9.58396 -25.3736,-20.21539 -25.70494,-20.61626 l -1.18655,-1.4058 1.07965,-1.48623 8.38132,-10.42282 C 37.64007,133.12142 35.03164,114.88889 34.87648,114.05496 L 34,109.51168 l 21.64272,10.31618 7.6382,-22.34276 0.005,-97.485110498047 149.01798,0 L 212.2769,92.66367 c 0,1.33081 -0.0426,2.83287 -0.11754,4.12113 l 7.77183,23.04306 21.64272,-10.31618 z"
     id="path3"
     style="fill:#5299c6;fill-rule:evenodd" /><path
     d="M 182.26967,134.87984 137.80315,160.31753 93.29926,134.87984 C 77.205,125.86256 67.98455,110.41489 67.98455,92.48723 l -0.0213,-87.8048905 139.66391,0 -0.0213,87.9813305 c -2.6e-4,18.56906 -9.45578,33.4446 -25.33624,42.21617"
     id="path5"
     style="fill:#60223b;fill-rule:evenodd" /><path
     d="m 138.10776,165.50247 c 37.1223,0 64.78881,-23.72728 72.19169,-30.54765 l 18.70839,23.54539 c -6.34476,5.85308 -36.7375,36.82288 -91.21533,36.82288 -52.47344,0 -84.84385,-30.21086 -91.24206,-36.86543 l 18.76704,-23.49739 c 3.05211,2.88113 9.78167,8.7233 18.99121,14.41058 11.86079,7.32269 30.69736,16.0408 53.14183,16.13162 l 0.65723,0"
     id="path7"
     style="fill:#60223b;fill-rule:evenodd" /><path
     d="m 210.32098,127.49824 -12.42227,1.38971 c 5.83179,-5.88499 10.56215,-13.91888 12.52917,-22.31058 l 6.78301,19.73433 17.68713,-8.42933 c -2.34092,8.31724 -6.05598,16.91755 -12.50764,24.61985 l -12.0694,-15.00398"
     id="path9"
     style="fill:#60223b;fill-rule:evenodd" /><path
     d="m 205.82052,132.62428 c -2.31446,1.82795 -4.71972,4.34038 -9.19398,7.45114 l -4.74644,-5.94934 13.94042,-1.5018"
     id="path11"
     style="fill:#60223b;fill-rule:evenodd" /><path
     d="m 83.68857,134.12608 -4.74099,5.94934 c -4.05159,-2.95586 -7.16779,-5.6071 -9.19917,-7.45114 l 13.94016,1.5018"
     id="path13"
     style="fill:#60223b;fill-rule:evenodd" /><path
     d="M 52.83631,142.90284 C 45.44408,134.31316 42.46669,123.95962 40.6761,117.88211 l 15.31404,7.29623 2.37335,1.1331 0.84976,-2.48025 5.92235,-17.25434 c 2.16474,8.01236 6.5103,16.00863 12.53436,22.31058 l -12.41682,-1.38971 -12.41683,15.40512"
     id="path15"
     style="fill:#60223b;fill-rule:evenodd" /><path
     d="m 69.52398,146.1153 -5.10996,9.89921 c 2.77942,-2.61387 8.10317,-7.52067 8.10317,-7.52067 l 2.62452,2.01503 -4.82662,10.23055 0.0374,0.027 c -0.0374,-0.027 8.02844,-8.02326 8.02844,-8.02326 l 3.10557,2.00464 -14.51228,13.52865 -2.77397,-1.98311 c 2.0952,-3.94469 5.84217,-11.70589 5.84217,-11.70589 -3.04148,2.90267 -6.20024,5.54846 -9.78686,8.77676 l -2.65669,-2.12738 9.24717,-17.49461 2.67797,2.37309"
     id="path17"
     style="fill:#ffffff" /><polyline
     points="187.362,599.228 211.794,613.071 204.811,624.813 192.368,618.077 184.354,631.591   194.881,637.813 187.547,650.028 177.021,643.786 168.718,658.207 181.511,665.623 174.548,677.386 149.581,663.13 187.362,599.228   "
     id="polyline19"
     style="fill:#ffffff"
     transform="matrix(0.25946765,0,0,0.25946765,34,-1.0498047e-5)" /><path
     d="m 84.17508,172.79844 c 0.26206,0.8661 0.86584,1.65722 1.63568,2.02047 1.11182,0.51842 2.3199,0.12299 2.73686,-0.76413 1.20264,-2.55524 -2.77941,-5.56428 -0.83911,-9.70694 1.33625,-2.84351 4.01422,-4.1424 6.61201,-2.91849 0.80176,0.36896 1.69432,1.0799 2.33573,1.94574 l -1.65177,3.51709 c -0.42216,-0.73767 -1.10637,-1.51815 -1.71041,-1.79578 -0.78048,-0.36896 -1.57679,-0.34769 -2.11674,0.79112 -0.98364,2.10065 3.12684,5.05624 0.88738,9.81903 -1.56615,3.3352 -4.39383,4.13695 -7.29078,2.77942 -0.99973,-0.4756 -1.73714,-1.07964 -2.29837,-2.07367 l 1.69952,-3.61386"
     id="path21"
     style="fill:#ffffff" /><polyline
     points="265.026,650.337 244.446,707.38 231.364,702.683 251.924,645.661 243.375,642.571 247.989,629.695   278.21,640.531 273.595,653.386 265.026,650.337 "
     id="polyline23"
     style="fill:#ffffff"
     transform="matrix(0.25946765,0,0,0.25946765,34,-1.0498047e-5)" /><polyline
     points="326.806,727.486 313.107,725.076 318.381,695.267 306.268,692.96 299.944,722.645 286.265,719.596   301.468,646.712 314.941,649.761 308.719,680.126 320.812,682.412 326.663,652.13 340.341,654.437 326.806,727.486 "
     id="polyline25"
     style="fill:#ffffff"
     transform="matrix(0.25946765,0,0,0.25946765,34,-1.0498047e-5)" /><path
     d="m 130.71553,170.70843 2.03656,19.36018 -3.43691,-0.1658 -0.44888,-3.7148 -3.60271,-0.26725 -0.97819,3.54925 -3.41563,-0.37934 6.2485,-18.66558 3.59726,0.28334 m -2.03656,12.51308 -0.50778,-6.47838 -1.91902,6.30195 2.4268,0.17643 z"
     id="path27"
     style="fill:#ffffff" /><polyline
     points="407.87,658.763 417.016,701.715 417.202,701.715 422.846,658.228 437.823,657.177 448.72,730.576   435.268,731.771 429.191,686.944 429.026,686.944 423.134,732.492 413.514,732.821 404.038,687.975 403.874,687.975   401.668,732.966 387.928,732.698 392.893,658.701 407.87,658.763 "
     id="polyline29"
     style="fill:#ffffff"
     transform="matrix(0.25946765,0,0,0.25946765,34,-1.0498047e-5)" /><path
     d="m 159.0289,168.81094 2.80095,13.6192 c 0.27244,1.30979 0.96756,1.68913 1.65151,1.55032 0.67877,-0.14453 1.16527,-0.76984 0.88738,-2.07393 l -2.80095,-13.66772 3.53862,-0.78566 2.86504,14.01514 c 0.60949,2.92394 -0.3207,5.47892 -3.72544,6.1896 -3.3998,0.70575 -5.27575,-1.27191 -5.88524,-4.1904 l -2.87049,-14.01515 3.53862,-0.6414"
     id="path31"
     style="fill:#ffffff" /><polyline
     points="524.695,639.295 553.289,674.872 553.454,674.811 539.857,634.31 552.156,629.593 576.073,699.964   564.557,704.208 535.737,669.476 535.572,669.517 547.85,710.017 535.387,713.91 513.159,643.106 524.695,639.295 "
     id="polyline33"
     style="fill:#ffffff"
     transform="matrix(0.25946765,0,0,0.25946765,34,-1.0498047e-5)" /><polyline
     points="589.875,694.319 559.448,626.564 572.261,621.002 602.647,688.819 589.875,694.319 "
     id="polyline35"
     style="fill:#ffffff"
     transform="matrix(0.25946765,0,0,0.25946765,34,-1.0498047e-5)" /><polyline
     points="604.996,619.086 634.042,672.792 621.682,679.363 592.635,625.843 584.56,630.046 578.277,617.871   606.809,602.771 613.607,614.616 604.996,619.086 "
     id="polyline37"
     style="fill:#ffffff"
     transform="matrix(0.25946765,0,0,0.25946765,34,-1.0498047e-5)" /><polyline
     points="612.742,599.186 635.938,584.23 643.601,595.272 631.818,603.327 640.058,616.408 649.987,609.774   657.918,621.353 647.35,627.985 657.362,642.097 669.516,634.083 677.242,645.723 652.192,662.018 612.742,599.186 "
     id="polyline39"
     style="fill:#ffffff"
     transform="matrix(0.25946765,0,0,0.25946765,34,-1.0498047e-5)" /><path
     d="m 200.5663,150.35942 2.95585,-2.14891 c 3.85387,-2.80615 7.74537,-0.76958 11.01103,3.72024 3.27137,4.49528 4.14266,9.10265 0.29424,11.9036 l -2.95612,2.1541 -11.305,-15.62903 m 12.12803,10.63687 0.26207,-0.19252 c 1.55524,-1.12791 0.56667,-3.81106 -1.49143,-6.63848 -2.05809,-2.82742 -4.07831,-4.38319 -5.62837,-3.24438 l -0.26206,0.18707 7.11979,9.88831 z"
     id="path41"
     style="fill:#ffffff" /><path
     d="m 102.91539,17.95437 5.44129,6.21633 -4.78406,5.48956 -5.99734,5.40393 c 0,0 -8.49886,5.48411 -9.14026,5.89043 -0.63622,0.39543 -1.14919,0.36352 -1.60896,-0.005 -0.46497,-0.37415 -0.34743,-1.2239 0.1178,-1.72649 l 4.61281,-6.61202 c 0.8604,-1.35234 0.47042,-2.81678 0.36326,-3.68807 -0.11235,-0.86584 0.12843,-1.192 0.62557,-1.66241 0.42242,-0.40607 8.20489,-7.38678 10.36989,-9.30581"
     id="path43"
     style="fill:#f7c240" /><polyline
     points="383.108,278.89 256.271,136.293 268.487,124.921 394.644,266.673 383.108,278.89 "
     id="polyline45"
     style="fill:#f7c240"
     transform="matrix(0.25946765,0,0,0.25946765,34,-1.0498047e-5)" /><path
     d="m 142.10071,75.66076 40.58593,45.54617 c 0,0 -0.0267,1.021 -1.11727,2.05265 -0.90321,0.86065 -2.06303,0.89802 -2.06303,0.89802 l -40.28676,-45.23092 2.88113,-3.26592"
     id="path47"
     style="fill:#f7c240" /><path
     d="m 167.09471,24.24568 4.99787,5.38266 5.99707,5.40393 c 0,0 8.49342,5.48411 9.14053,5.8798 0.63595,0.40607 1.14918,0.3687 1.61415,0 0.45951,-0.3687 0.34197,-1.21872 -0.12299,-1.7265 l -4.61282,-6.60656 c -0.8552,-1.3578 -0.47041,-2.81678 -0.36325,-3.68808 0.11235,-0.86584 -0.12818,-1.19744 -0.62532,-1.66785 -0.4276,-0.40607 -8.37587,-7.3816 -10.43397,-9.25781 l -5.59127,6.28041"
     id="path49"
     style="fill:#f7c240" /><path
     d="m 96.09476,124.15734 79.04967,-88.79373 -3.18029,-2.95066 -79.04423,88.79398 c 0,0 0.0215,1.021 1.11182,2.05265 0.90321,0.86039 2.06303,0.89776 2.06303,0.89776"
     id="path51"
     style="fill:#f7c240" /><path
     d="m 112.09276,132.77919 c 0.10171,-0.13908 9.91555,-14.2235 25.67276,-14.2235 15.95026,0 25.34143,14.2715 25.4325,14.41602 l 2.10065,-1.35234 c -0.40087,-0.63596 -10.19318,-15.5704 -27.53289,-15.5704 -17.09891,0 -27.3139,14.69391 -27.74124,15.32468 l 2.06822,1.40554"
     id="path53"
     style="fill:#f7c240" /><polyline
     points="207.344,238.513 207.344,208.971 222.794,208.971 222.794,222.135 236.618,222.135   236.618,208.971 252.088,208.971 252.088,222.135 265.685,222.135 265.685,208.992 281.423,208.992 281.423,238.513   207.344,238.513 "
     id="polyline55"
     style="fill:#f7c240"
     transform="matrix(0.25946765,0,0,0.25946765,34,-1.0498047e-5)" /><polyline
     points="518.721,238.513 518.721,208.992 534.459,208.992 534.459,222.135 548.056,222.135   548.056,208.971 563.527,208.971 563.527,222.135 577.35,222.135 577.35,208.971 592.8,208.971 592.8,238.513 518.721,238.513 "
     id="polyline57"
     style="fill:#f7c240"
     transform="matrix(0.25946765,0,0,0.25946765,34,-1.0498047e-5)" /><path
     d="m 143.52778,73.98771 6.58529,-7.4885 3.12685,0 0,-3.16965 4.00877,0 0,3.16965 3.59207,0 0,-3.24464 4.00359,0 0,3.24464 3.3889,0 -3.51708,29.91143 27.1961,0 2.95041,14.29278 c 0,0 -5.51084,-3.27111 -13.57146,-3.27111 -2.34091,0 -4.74644,0.35807 -7.14107,1.09054 L 143.52778,73.98771"
     id="path59"
     style="fill:#f7c240" /><path
     d="m 101.40788,108.48549 c -2.33028,-0.68966 -4.81598,-1.05318 -7.08762,-1.05318 -8.06062,0 -13.57145,3.27111 -13.57145,3.27111 l 2.95585,-14.29278 27.1961,0 -3.52772,-29.91143 3.38891,0 0,-3.24464 4.01422,0 0,3.24464 3.58662,0 0,-3.16965 4.00878,0 0,3.16965 2.87568,0 6.64938,7.67039 -30.48875,34.31589"
     id="path61"
     style="fill:#f7c240" /><polyline
     points="358.985,122.47 358.985,89.653 375.98,89.653 375.98,104.424 391.204,104.424 391.204,89.653   408.199,89.653 408.199,104.424 423.155,104.424 423.155,89.962 440.315,89.962 440.315,122.47 358.985,122.47 "
     id="polyline63"
     style="fill:#f7c240"
     transform="matrix(0.25946765,0,0,0.25946765,34,-1.0498047e-5)" /><path
     d="m 129.87096,114.8248 c 0,0 0,-14.25541 0,-14.26086 0.005,-2.7366 1.67305,-7.91091 7.93219,-7.91091 6.25914,0 7.93218,5.17405 7.94282,7.91636 l 0,14.27669 -0.0106,-0.048 c 8.11382,1.91357 12.51828,6.17351 12.51828,6.17351 2.26619,-3.55444 5.00305,-6.38212 7.975,-8.5095 L 137.79796,80.4661 109.36679,112.4569 c 2.97194,2.12193 5.70855,4.95506 7.99627,8.51469 0,0 4.37774,-4.23866 12.46483,-6.16287 l 0.0431,0.0161"
     id="path65"
     style="fill:#f7c240" /><path
     d="m 131.95552,114.39175 0,-13.99361 c 0.005,-0.56667 0.40607,-5.62837 5.84763,-5.62837 5.44674,0 5.84762,5.0617 5.85307,5.63901 0,-0.0109 0,13.98297 0,13.98297 l -0.0161,-0.0161 c -1.79603,-0.30462 -3.75761,-0.48651 -5.86371,-0.48651 l 0.0589,0 c -2.12218,0 -4.0944,0.18189 -5.90652,0.49714 l 0.0267,0.005"
     id="path67"
     style="fill:#f7c240" /><path
     d="m 108.33541,94.31544 -21.8298,0 3.67199,-30.35512 14.64565,0 3.51216,30.35512 m -7.23215,-19.95358 -2.56016,0 0,-3.56534 -2.14347,0 0,3.56534 -2.62996,0 0,2.11129 2.62996,0 0,5.61773 2.14347,0 0,-5.61773 2.56016,0 0,-2.11129 z"
     id="path69"
     style="fill:#f7c240" /><path
     d="m 170.78278,63.96006 14.6511,0 3.67199,30.35512 -21.82434,0 3.50125,-30.35512 m 10.76532,10.4018 -2.57107,0 0,-3.56534 -2.13282,0 0,3.56534 -2.62971,0 0,2.11129 2.62971,0 0,5.61773 2.13282,0 0,-5.61773 2.57107,0 0,-2.11129 z"
     id="path71"
     style="fill:#f7c240" /><path
     d="m 126.44988,54.73443 4.19066,-20.95305 14.3195,0 4.24386,21.02778 -11.3582,12.69471 -11.39582,-12.76944 m 15.07351,-11.78606 -2.56016,0 0,-3.56534 -2.13283,0 0,3.56534 -2.63515,0 0,2.11674 2.63515,0 0,5.61254 2.13283,0 0,-5.61254 2.56016,0 0,-2.11674 z"
     id="path73"
     style="fill:#f7c240" /></svg>