<?xml version="1.0" encoding="UTF-8"?>
<svg xmlns="http://www.w3.org/2000/svg" xmlns:xlink="http://www.w3.org/1999/xlink" width="20pt" height="20pt" viewBox="0 0 20 20" version="1.1">
<g id="surface1">
<path style=" stroke:none;fill-rule:nonzero;fill:rgb(0%,35.294118%,60.784314%);fill-opacity:1;" d="M 17.328125 5.203125 C 17.292969 5.480469 17.039062 5.585938 17.125 5.90625 C 17.519531 6.363281 17.902344 6.5625 17.902344 7.308594 C 18.097656 7.128906 18.863281 7.015625 19.0625 7.582031 C 19.5625 8.980469 17.355469 10.070312 15.816406 10.722656 C 14.15625 11.421875 12.566406 12.023438 11.679688 12.402344 C 11.539062 13.042969 11.253906 14.675781 10.210938 14.753906 C 9.632812 14.796875 9.5625 13.773438 9.902344 13.097656 C 8.523438 13.550781 7.582031 14.375 7.429688 14.785156 C 6.199219 14.917969 6 14.75 5.996094 14.742188 C 6.945312 13.34375 9.25 12.507812 10.429688 12.085938 C 10.429688 12.085938 11.007812 11.242188 11.351562 10.839844 L 11.410156 10.441406 C 11.28125 10.789062 10.714844 11.273438 10.339844 10.6875 C 10.261719 10.914062 10.128906 11.445312 9.707031 11.460938 C 9.523438 11.472656 9.410156 11.316406 9.3125 11.195312 C 9.234375 11.4375 8.957031 12.019531 8.464844 11.949219 C 8.003906 11.882812 7.878906 11.132812 7.933594 10.730469 C 7.933594 10.746094 7.816406 10.933594 7.691406 11.015625 C 7.683594 12.46875 6.878906 13.265625 6.039062 12.710938 L 5.339844 13.335938 C 5.242188 13.347656 5.148438 13.308594 5.105469 13.230469 L 5.789062 12.265625 C 5.546875 11.019531 6.289062 9.695312 7.199219 9.96875 C 7.472656 10.046875 7.597656 10.292969 7.660156 10.554688 C 7.761719 10.503906 7.882812 10.410156 7.96875 10.320312 C 7.984375 9.890625 8.640625 8.699219 9.371094 9.179688 L 9.8125 7.144531 C 9.8125 7.144531 10.210938 6.9375 10.371094 6.964844 C 10.210938 7.773438 9.734375 10 9.777344 10.757812 C 9.789062 10.910156 10.128906 10.757812 10.199219 10.203125 C 10.15625 8.128906 11.488281 7.730469 11.773438 8.15625 L 11.839844 7.882812 C 11.839844 7.882812 12.140625 7.695312 12.375 7.6875 C 12.316406 8.136719 12.179688 9.03125 12.074219 9.695312 L 12.539062 8.953125 C 12.59375 7.351562 13.5625 6.734375 14.03125 7.082031 C 14.480469 7.414062 13.855469 8.699219 13.171875 8.792969 C 13.144531 9.566406 13.988281 9.207031 14.304688 8.34375 C 14.582031 7.59375 14.652344 7.371094 14.742188 6.816406 C 14.625 6.589844 14.613281 6.113281 14.847656 5.980469 C 15.144531 5.816406 15.019531 6.304688 15.195312 6.296875 C 15.476562 6.285156 15.796875 6.195312 15.96875 6.367188 C 16.261719 6.664062 15.785156 7.25 15.695312 7.574219 C 15.609375 7.898438 15.617188 8.167969 15.789062 8.144531 C 16.085938 8.105469 16.660156 6.480469 16.765625 5.949219 C 16.511719 4.8125 17.402344 4.648438 17.328125 5.203125 Z M 11.246094 11.792969 C 11.246094 11.792969 11.308594 11.519531 11.324219 11.402344 C 11.285156 11.46875 11.117188 11.734375 11.015625 11.886719 C 11.089844 11.859375 11.246094 11.792969 11.246094 11.792969 Z M 16.988281 6.347656 C 16.839844 6.84375 16.324219 9.109375 15.492188 8.871094 C 14.65625 8.628906 15.285156 7.222656 15.367188 6.957031 C 15.285156 6.960938 15.175781 6.945312 15.089844 6.929688 C 14.914062 7.742188 14.417969 9.828125 13.289062 9.855469 C 12.933594 9.863281 12.769531 9.601562 12.664062 9.429688 C 12.425781 9.773438 12.214844 10.171875 11.96875 10.507812 C 11.90625 10.847656 11.839844 11.304688 11.796875 11.609375 C 16.359375 9.976562 17.929688 9.382812 18.5 8.53125 C 18.636719 8.328125 18.863281 7.8125 18.550781 7.597656 C 18.339844 7.453125 18.003906 7.65625 17.914062 7.746094 C 17.625 8.042969 17.339844 8.335938 16.910156 8.261719 C 16.609375 8.210938 16.460938 7.871094 16.679688 7.664062 C 16.828125 7.527344 16.980469 7.726562 17.109375 7.660156 C 17.367188 7.535156 17.496094 6.925781 16.988281 6.347656 Z M 13.671875 7.53125 C 13.511719 7.4375 13.164062 8.027344 13.175781 8.449219 C 13.589844 8.328125 13.816406 7.617188 13.671875 7.53125 Z M 11.394531 8.480469 C 10.710938 8.558594 10.5625 10.332031 11.023438 10.246094 C 11.265625 10.199219 11.410156 9.859375 11.5 9.589844 C 11.582031 9.335938 11.578125 9.03125 11.601562 8.886719 C 11.652344 8.628906 11.523438 8.464844 11.394531 8.480469 Z M 9.132812 9.527344 C 8.449219 9.457031 8.257812 11.203125 8.675781 11.21875 C 8.917969 11.230469 9.09375 10.984375 9.183594 10.644531 C 9.199219 10.570312 9.28125 9.898438 9.292969 9.820312 C 9.304688 9.742188 9.253906 9.539062 9.132812 9.527344 Z M 6.714844 10.554688 C 6.8125 10.730469 7.269531 10.773438 7.234375 10.675781 C 7.253906 10.195312 6.691406 10.132812 6.714844 10.554688 Z M 6.453125 10.859375 C 6.167969 11.246094 6.203125 12.160156 6.546875 12.226562 C 6.96875 12.308594 7.277344 11.578125 7.246094 11.175781 C 7.007812 11.183594 6.605469 11.136719 6.453125 10.859375 Z M 11.132812 12.59375 C 11.132812 12.59375 10.871094 12.714844 10.566406 12.832031 C 10.328125 13.191406 10.195312 14.015625 10.476562 13.894531 C 10.820312 13.746094 10.972656 13.339844 11.132812 12.59375 Z M 11.132812 12.59375 "/>
<path style=" stroke:none;fill-rule:nonzero;fill:rgb(0%,35.294118%,60.784314%);fill-opacity:1;" d="M 5.023438 13.035156 C 4.132812 14.632812 2.671875 14.238281 2.214844 14.246094 C 1.585938 15.246094 0.503906 15.617188 0.300781 15.488281 C 0.03125 15.316406 0.464844 14.113281 1.828125 13.917969 C 2.269531 13.398438 1.683594 10.214844 3.542969 9.285156 C 3.589844 9.285156 3.648438 9.304688 3.625 9.363281 C 2.609375 10.238281 3.003906 11.597656 2.738281 12.835938 C 2.621094 13.382812 2.507812 13.742188 2.445312 13.882812 C 2.738281 13.898438 2.859375 13.929688 3.183594 13.875 C 4.042969 13.71875 4.417969 12.894531 4.601562 12.109375 C 4.84375 11.054688 4.804688 9.699219 3.984375 9.242188 C 2.453125 8.390625 -0.226562 10.734375 0.613281 11.730469 C 0.789062 11.9375 1.621094 11.792969 2.003906 10.59375 C 2.066406 10.695312 2.066406 10.847656 1.992188 11.0625 C 1.539062 12.40625 0.707031 12.511719 0.347656 12.328125 C -0.0195312 12.140625 -0.0390625 11.558594 0.03125 11.199219 C 0.394531 9.363281 3.457031 7.796875 4.847656 9.140625 C 5.816406 10.074219 5.625 11.957031 5.023438 13.035156 Z M 0.921875 14.835938 C 1.179688 14.886719 1.511719 14.574219 1.660156 14.316406 C 1.292969 14.378906 0.960938 14.542969 0.921875 14.835938 Z M 0.921875 14.835938 "/>
<path style=" stroke:none;fill-rule:nonzero;fill:rgb(93.333333%,24.313725%,25.882353%);fill-opacity:1;" d="M 11.011719 1.796875 C 11.011719 0.804688 11.828125 0 12.835938 0 C 13.847656 0 14.664062 0.804688 14.664062 1.796875 C 14.664062 2.792969 13.847656 3.597656 12.835938 3.597656 C 11.828125 3.597656 11.011719 2.792969 11.011719 1.796875 Z M 12.242188 1.640625 C 12.480469 0.882812 12.070312 0.390625 12.019531 0.332031 C 11.496094 0.617188 11.136719 1.167969 11.136719 1.796875 C 11.136719 2.085938 11.210938 2.355469 11.34375 2.589844 C 11.449219 2.5625 12.015625 2.371094 12.242188 1.640625 Z M 13.417969 1.996094 C 13.191406 2.726562 13.550781 3.195312 13.621094 3.28125 C 14.164062 3 14.535156 2.441406 14.535156 1.796875 C 14.535156 1.523438 14.46875 1.265625 14.351562 1.039062 C 14.269531 1.058594 13.65625 1.242188 13.417969 1.996094 Z M 13.292969 1.957031 C 13.546875 1.144531 14.175781 0.898438 14.253906 0.871094 C 13.949219 0.421875 13.429688 0.125 12.835938 0.125 C 12.609375 0.125 12.394531 0.171875 12.195312 0.25 C 12.242188 0.316406 12.621094 0.863281 12.367188 1.679688 C 12.125 2.453125 11.5625 2.707031 11.445312 2.753906 C 11.75 3.1875 12.261719 3.46875 12.835938 3.46875 C 13.050781 3.46875 13.257812 3.429688 13.445312 3.359375 C 13.371094 3.253906 13.050781 2.734375 13.292969 1.957031 Z M 13.292969 1.957031 "/>
<path style=" stroke:none;fill-rule:nonzero;fill:rgb(93.333333%,24.313725%,25.882353%);fill-opacity:1;" d="M 3.179688 16.316406 L 4.207031 14.417969 L 4.179688 14.328125 L 4.089844 14.355469 L 3.0625 16.253906 L 3.089844 16.339844 Z M 3.179688 16.316406 "/>
<path style=" stroke:none;fill-rule:nonzero;fill:rgb(93.333333%,24.313725%,25.882353%);fill-opacity:1;" d="M 5.761719 16.691406 L 6.496094 15.085938 L 6.464844 15 L 6.375 15.03125 L 5.644531 16.640625 L 5.675781 16.726562 Z M 5.761719 16.691406 "/>
<path style=" stroke:none;fill-rule:nonzero;fill:rgb(93.333333%,24.313725%,25.882353%);fill-opacity:1;" d="M 8.878906 14.878906 L 9.148438 14.039062 L 9.105469 13.957031 L 9.023438 14 L 8.753906 14.839844 L 8.796875 14.921875 Z M 8.878906 14.878906 "/>
<path style=" stroke:none;fill-rule:nonzero;fill:rgb(93.333333%,24.313725%,25.882353%);fill-opacity:1;" d="M 7.238281 19.996094 L 8.6875 15.5 L 8.644531 15.417969 L 8.5625 15.460938 L 7.113281 19.957031 L 7.15625 20.039062 Z M 7.238281 19.996094 "/>
<path style=" stroke:none;fill-rule:nonzero;fill:rgb(93.333333%,24.313725%,25.882353%);fill-opacity:1;" d="M 10.289062 16.625 L 10.648438 14.972656 L 10.597656 14.898438 L 10.519531 14.945312 L 10.160156 16.597656 L 10.210938 16.675781 Z M 10.289062 16.625 "/>
<path style=" stroke:none;fill-rule:nonzero;fill:rgb(93.333333%,24.313725%,25.882353%);fill-opacity:1;" d="M 7.203125 8.988281 L 9.023438 5.785156 L 9 5.695312 L 8.910156 5.722656 L 7.085938 8.921875 L 7.113281 9.011719 Z M 7.203125 8.988281 "/>
<path style=" stroke:none;fill-rule:nonzero;fill:rgb(93.333333%,24.313725%,25.882353%);fill-opacity:1;" d="M 13.523438 6.382812 L 14.128906 3.605469 L 14.074219 3.519531 L 13.988281 3.574219 L 13.382812 6.355469 L 13.4375 6.4375 Z M 13.523438 6.382812 "/>
<path style=" stroke:none;fill-rule:nonzero;fill:rgb(93.333333%,24.313725%,25.882353%);fill-opacity:1;" d="M 12.390625 6.90625 L 13.039062 4.210938 L 12.988281 4.125 L 12.898438 4.179688 L 12.25 6.871094 L 12.304688 6.957031 Z M 12.390625 6.90625 "/>
<path style=" stroke:none;fill-rule:nonzero;fill:rgb(93.333333%,24.313725%,25.882353%);fill-opacity:1;" d="M 11.277344 7.453125 L 12.367188 4.152344 L 12.320312 4.0625 L 12.230469 4.109375 L 11.140625 7.40625 L 11.1875 7.496094 Z M 11.277344 7.453125 "/>
<path style=" stroke:none;fill-rule:nonzero;fill:rgb(93.333333%,24.313725%,25.882353%);fill-opacity:1;" d="M 9.402344 5.109375 L 10.820312 2.675781 L 10.792969 2.578125 L 10.691406 2.605469 L 9.277344 5.039062 L 9.304688 5.136719 Z M 9.402344 5.109375 "/>
<path style=" stroke:none;fill-rule:nonzero;fill:rgb(93.333333%,24.313725%,25.882353%);fill-opacity:1;" d="M 10.617188 6 L 11.648438 3.8125 L 11.613281 3.71875 L 11.519531 3.753906 L 10.484375 5.9375 L 10.519531 6.035156 Z M 10.617188 6 "/>
<path style=" stroke:none;fill-rule:nonzero;fill:rgb(93.333333%,24.313725%,25.882353%);fill-opacity:1;" d="M 11.839844 15.53125 L 12.175781 13.738281 L 12.125 13.664062 L 12.046875 13.714844 L 11.710938 15.507812 L 11.761719 15.582031 Z M 11.839844 15.53125 "/>
<path style=" stroke:none;fill-rule:nonzero;fill:rgb(0%,35.294118%,60.784314%);fill-opacity:1;" d="M 19.574219 8.855469 L 19.484375 8.855469 L 19.484375 9.101562 L 19.421875 9.101562 L 19.421875 8.855469 L 19.328125 8.855469 L 19.328125 8.800781 L 19.574219 8.800781 Z M 19.992188 9.101562 L 19.929688 9.101562 L 19.929688 8.863281 L 19.839844 9.101562 L 19.78125 9.101562 L 19.695312 8.863281 L 19.695312 9.101562 L 19.632812 9.101562 L 19.632812 8.800781 L 19.738281 8.800781 L 19.808594 8.996094 L 19.8125 8.996094 L 19.886719 8.800781 L 19.992188 8.800781 Z M 19.992188 9.101562 "/>
</g>
</svg>
