<?xml version="1.0" encoding="UTF-8"?>
<svg xmlns="http://www.w3.org/2000/svg" xmlns:xlink="http://www.w3.org/1999/xlink" width="18pt" height="20pt" viewBox="0 0 18 20" version="1.1">
<g id="surface1">
<path style="fill-rule:nonzero;fill:rgb(100%,100%,100%);fill-opacity:1;stroke-width:0.5877;stroke-linecap:butt;stroke-linejoin:miter;stroke:rgb(100%,100%,100%);stroke-opacity:1;stroke-miterlimit:4;" d="M 107.852854 292.792406 C 105.378896 297.605297 97.957021 311.2635 98.347646 313.279711 C 98.803375 315.816234 100.430979 317.702367 100.300771 320.238891 C 100.300771 321.864867 98.347646 325.702172 96.85025 326.807836 C 95.613271 327.718383 91.772125 334.807641 76.733063 327.783422 L 74.779938 326.677758 C 60.196604 318.677953 63.777333 311.393578 63.777333 309.832641 C 63.777333 308.011547 65.795563 304.174242 67.032542 303.198656 C 69.050771 301.637719 71.524729 301.832836 73.803375 300.727172 C 75.691396 299.881664 81.355458 288.499828 83.829417 283.751977 L 83.829417 283.621898 C 34.35025 259.297289 0.300771 208.436742 0.300771 149.576391 C 0.300771 67.106859 67.097646 0.311742 149.584625 0.311742 C 232.0065 0.311742 298.803375 67.106859 298.803375 149.576391 C 298.803375 231.980883 232.0065 298.841039 149.584625 298.841039 C 135.001292 298.841039 120.938792 296.759789 107.657542 292.857445 Z M 107.852854 292.792406 " transform="matrix(0.06,0,0,0.0600601,0.04836,0.0554955)"/>
<path style=" stroke:none;fill-rule:nonzero;fill:rgb(98.823529%,9.803922%,12.941176%);fill-opacity:1;" d="M 12.011719 5.65625 C 12.164062 5.753906 12.328125 5.839844 12.453125 5.953125 L 13.890625 4.121094 C 14.1875 4.378906 14.421875 4.625 14.652344 4.988281 L 12.972656 6.460938 C 13.109375 6.617188 13.28125 6.921875 13.390625 7.136719 L 15.117188 5.941406 C 15.148438 6.003906 15.242188 6.398438 15.226562 6.515625 L 13.535156 7.609375 C 13.5625 7.730469 13.582031 7.757812 13.601562 7.921875 C 13.601562 7.921875 15.550781 6.8125 15.550781 6.800781 C 15.339844 4.707031 13.519531 3 11.371094 3 C 10.480469 3 9.652344 3.28125 8.976562 3.761719 C 8.964844 3.769531 9.085938 5.722656 9.085938 5.722656 C 9.226562 5.636719 9.394531 5.554688 9.464844 5.535156 L 9.429688 3.75 C 9.59375 3.621094 9.820312 3.511719 9.996094 3.449219 L 9.957031 5.378906 C 10.195312 5.320312 10.625 5.285156 10.761719 5.316406 L 11.113281 3.210938 C 11.535156 3.171875 11.960938 3.21875 12.332031 3.339844 L 11.519531 5.453125 C 11.679688 5.503906 11.855469 5.578125 12.011719 5.65625 "/>
<path style="fill:none;stroke-width:2.2041;stroke-linecap:butt;stroke-linejoin:miter;stroke:rgb(100%,100%,100%);stroke-opacity:1;stroke-miterlimit:4;" d="M 175.691396 188.729906 C 203.686188 188.729906 226.407542 165.966234 226.407542 137.999437 C 226.407542 109.967602 203.686188 87.20393 175.691396 87.20393 C 147.6315 87.20393 124.910146 109.967602 124.910146 137.999437 C 124.910146 165.966234 147.6315 188.729906 175.691396 188.729906 Z M 175.691396 188.729906 " transform="matrix(0.06,0,0,0.0600601,0.04836,0.0554955)"/>
<path style=" stroke:none;fill-rule:nonzero;fill:rgb(98.823529%,9.803922%,12.941176%);fill-opacity:1;" d="M 8.082031 12.246094 C 8 12.382812 7.347656 12.773438 7.207031 12.554688 C 6.972656 12.1875 7.6875 11.609375 7.554688 11.449219 C 7.472656 11.351562 7.136719 11.605469 6.859375 11.921875 C 6.859375 11.921875 6.707031 12.214844 6.5 12.582031 L 6.011719 12.589844 C 5.980469 12.566406 6.632812 11.609375 6.507812 11.5 C 6.324219 11.339844 5.269531 13.046875 4.773438 12.6875 C 4.734375 12.65625 4.621094 12.527344 4.769531 12.210938 C 4.546875 12.503906 4.007812 12.742188 3.78125 12.542969 C 3.292969 12.121094 4.617188 10.703125 5.152344 11.191406 C 5.191406 11.230469 5.207031 11.269531 5.203125 11.296875 L 5.277344 11.183594 L 5.757812 11.179688 C 5.539062 11.773438 5.085938 12.308594 5.203125 12.390625 C 5.402344 12.535156 6.570312 10.746094 6.96875 11.136719 C 7.09375 11.257812 7.082031 11.417969 7.050781 11.503906 C 7.332031 11.207031 7.925781 10.925781 8.121094 11.125 C 8.351562 11.367188 7.640625 12.085938 7.796875 12.183594 C 7.886719 12.242188 8.160156 12.03125 8.160156 12.03125 M 4.144531 12.242188 C 4.40625 12.53125 5.199219 11.613281 5.035156 11.351562 C 4.824219 11.082031 3.910156 11.980469 4.144531 12.242188 Z M 4.144531 12.242188 "/>
<path style=" stroke:none;fill-rule:nonzero;fill:rgb(98.823529%,9.803922%,12.941176%);fill-opacity:1;" d="M 9.449219 11.699219 C 9.890625 11.734375 10.40625 11.464844 10.3125 11.253906 C 10.253906 11.128906 9.917969 11.175781 9.722656 11.257812 Z M 10.894531 12.070312 C 10.410156 12.511719 9.886719 12.675781 9.714844 12.542969 C 9.425781 12.324219 9.6875 12.039062 9.542969 11.914062 C 9.503906 11.882812 9.4375 11.875 9.328125 11.882812 L 9.890625 11.003906 C 10.195312 10.851562 10.6875 10.765625 10.773438 11.050781 C 10.886719 11.445312 10.335938 11.789062 9.953125 11.851562 C 10.246094 11.90625 9.957031 12.230469 10.253906 12.269531 C 10.386719 12.289062 10.773438 12.011719 10.976562 11.730469 "/>
<path style=" stroke:none;fill-rule:nonzero;fill:rgb(98.823529%,9.803922%,12.941176%);fill-opacity:1;" d="M 12.917969 11.910156 C 12.160156 12.453125 11.164062 12.625 10.953125 12.160156 C 10.605469 11.398438 12.539062 10.441406 12.769531 11.023438 C 12.933594 11.441406 12.160156 11.8125 11.527344 11.816406 C 11.5 11.816406 11.507812 11.8125 11.507812 11.816406 C 11.453125 11.980469 11.53125 12.15625 11.828125 12.152344 C 12.125 12.148438 12.566406 12.027344 12.988281 11.652344 M 11.550781 11.664062 C 11.933594 11.613281 12.320312 11.296875 12.253906 11.148438 C 12.164062 10.945312 11.632812 11.3125 11.550781 11.664062 Z M 11.550781 11.664062 "/>
<path style=" stroke:none;fill-rule:nonzero;fill:rgb(98.823529%,9.803922%,12.941176%);fill-opacity:1;" d="M 15.597656 11.316406 C 15.347656 11.570312 14.992188 11.75 14.945312 11.785156 C 14.242188 12.328125 13.195312 12.527344 12.964844 12.074219 C 12.570312 11.304688 14.539062 10.421875 14.695312 10.960938 C 14.804688 11.351562 14.117188 11.6875 13.535156 11.734375 C 13.511719 11.734375 13.519531 11.726562 13.515625 11.734375 C 13.460938 11.894531 13.539062 12.070312 13.835938 12.066406 C 14.136719 12.066406 14.457031 11.925781 14.898438 11.652344 C 14.996094 11.59375 15.410156 11.363281 15.613281 11.085938 M 13.554688 11.566406 C 13.992188 11.550781 14.382812 11.199219 14.269531 11.042969 C 14.128906 10.847656 13.585938 11.296875 13.554688 11.566406 Z M 13.554688 11.566406 "/>
<path style=" stroke:none;fill-rule:nonzero;fill:rgb(98.823529%,9.803922%,12.941176%);fill-opacity:1;" d="M 15.28125 11.53125 C 15.3125 11.871094 14.976562 11.882812 14.960938 11.863281 C 14.90625 11.921875 14.949219 12.167969 15.207031 12.179688 C 15.640625 12.203125 15.632812 11.632812 15.574219 11.421875 C 15.535156 11.277344 15.566406 11.121094 15.589844 10.980469 C 15.644531 10.632812 16.097656 10.269531 16.257812 10.382812 C 16.363281 10.460938 16.304688 10.71875 16.011719 10.976562 C 15.953125 11.027344 15.917969 11.039062 16 11.203125 C 16.085938 11.378906 16.234375 11.8125 15.992188 12.140625 C 15.800781 12.394531 15.476562 12.429688 15.207031 12.382812 C 15.035156 12.355469 14.84375 12.242188 14.765625 12.113281 C 14.417969 11.550781 15.132812 11.167969 15.28125 11.53125 Z M 15.28125 11.53125 "/>
<path style=" stroke:none;fill-rule:nonzero;fill:rgb(4.705882%,17.647059%,50.980392%);fill-opacity:1;" d="M 10.65625 9.867188 C 10.722656 9.777344 10.78125 9.695312 10.84375 9.613281 C 10.855469 9.59375 10.894531 9.53125 10.914062 9.480469 C 11.019531 9.214844 10.757812 8.804688 10.386719 8.632812 C 10.023438 8.460938 9.628906 8.496094 9.511719 8.671875 C 9.484375 8.714844 9.449219 8.769531 9.441406 8.792969 C 9.398438 8.925781 9.355469 9.058594 9.304688 9.199219 C 8.726562 8.8125 8.382812 8.398438 8.542969 8.097656 C 8.835938 7.539062 9.746094 7.632812 10.699219 8.101562 C 11.65625 8.570312 12.300781 9.28125 12.03125 9.792969 C 11.871094 10.097656 11.324219 10.089844 10.65625 9.867188 Z M 10.65625 9.867188 "/>
<path style=" stroke:none;fill-rule:nonzero;fill:rgb(4.705882%,17.647059%,50.980392%);fill-opacity:1;" d="M 11.800781 11.003906 C 11.75 11.023438 11.628906 11.085938 11.535156 11.144531 C 11.347656 10.929688 10.683594 10.46875 10.328125 10.347656 C 10.324219 10.34375 10.417969 10.21875 10.417969 10.21875 C 10.785156 10.367188 11.65625 10.875 11.792969 11 "/>
<path style=" stroke:none;fill-rule:nonzero;fill:rgb(4.705882%,17.647059%,50.980392%);fill-opacity:1;" d="M 13.53125 11.074219 C 13.609375 11.019531 13.824219 10.929688 13.828125 10.921875 C 13.835938 10.894531 13.839844 10.835938 13.839844 10.835938 C 14.070312 9.757812 13.601562 8.878906 13.238281 8.535156 C 12.878906 8.199219 13.050781 8.453125 13.167969 8.605469 C 13.253906 8.714844 13.292969 8.777344 13.328125 8.847656 C 13.515625 9.199219 13.425781 9.15625 13.179688 8.902344 C 12.691406 8.40625 11.84375 7.773438 11.066406 7.382812 C 10.003906 6.851562 8.703125 6.597656 7.980469 6.621094 C 8.277344 6.484375 8.441406 6.46875 8.75 6.4375 C 9.019531 6.410156 8.914062 6.359375 8.75 6.371094 C 8.167969 6.414062 6.878906 6.433594 6.675781 7.449219 C 6.503906 8.308594 7.203125 9.039062 7.878906 9.304688 C 8.464844 9.535156 9.085938 9.808594 9.085938 9.808594 L 9.148438 9.613281 C 8.804688 9.429688 8.207031 9.234375 7.890625 9.109375 C 7.476562 8.949219 6.738281 8.382812 6.835938 7.609375 C 6.996094 6.324219 9.40625 6.746094 11.003906 7.550781 C 11.695312 7.898438 12.625 8.574219 13.082031 9.015625 C 13.601562 9.519531 13.695312 9.6875 13.730469 10.222656 C 13.730469 10.546875 13.640625 10.84375 13.53125 11.074219 "/>
<path style="fill:none;stroke-width:1.0213;stroke-linecap:round;stroke-linejoin:round;stroke:rgb(98.823529%,9.803922%,12.941176%);stroke-opacity:1;stroke-miterlimit:4;" d="M 228.230458 62.033812 C 230.899729 58.586742 237.735667 49.806469 240.209625 47.855297 " transform="matrix(0.06,0,0,0.0600601,0.04836,0.0554955)"/>
<path style="fill:none;stroke-width:1.0213;stroke-linecap:round;stroke-linejoin:round;stroke:rgb(98.823529%,9.803922%,12.941176%);stroke-opacity:1;stroke-miterlimit:4;" d="M 228.946604 46.359398 L 234.285146 53.968969 L 244.246083 57.416039 " transform="matrix(0.06,0,0,0.0600601,0.04836,0.0554955)"/>
<path style="fill:none;stroke-width:1.0213;stroke-linecap:round;stroke-linejoin:round;stroke:rgb(98.823529%,9.803922%,12.941176%);stroke-opacity:1;stroke-miterlimit:4;" d="M 223.217438 51.692602 L 230.509104 58.976977 L 238.516917 62.749242 " transform="matrix(0.06,0,0,0.0600601,0.04836,0.0554955)"/>
<path style=" stroke:none;fill-rule:nonzero;fill:rgb(98.823529%,9.803922%,12.941176%);fill-opacity:1;" d="M 17.574219 9.007812 C 17.574219 4.273438 13.742188 0.433594 9.011719 0.433594 C 4.796875 0.433594 1.296875 3.480469 0.582031 7.492188 L 1.414062 6.613281 C 2.441406 3.402344 5.449219 1.078125 9 1.078125 C 13.398438 1.078125 16.96875 4.648438 16.96875 9.050781 L 16.972656 9.058594 C 16.921875 10.546875 16.628906 11.1875 16.09375 11.574219 L 16.046875 11.964844 C 16.28125 11.785156 16.992188 11.03125 17.429688 10.125 C 17.550781 9.878906 17.582031 9.242188 17.578125 9.019531 Z M 17.574219 9.007812 "/>
<path style=" stroke:none;fill-rule:nonzero;fill:rgb(98.823529%,9.803922%,12.941176%);fill-opacity:1;" d="M 16.539062 11.691406 C 15.457031 14.8125 12.496094 16.933594 9.011719 16.964844 C 4.851562 17 1.078125 13.484375 1.078125 9.078125 C 1.015625 8.1875 1.273438 7.617188 1.484375 7.230469 C 1.699219 6.832031 2.160156 6.308594 2.566406 6.386719 C 3.199219 6.511719 2.792969 7.335938 2.257812 8.273438 C 1.730469 9.1875 1.097656 10.148438 1.609375 10.703125 C 2.023438 11.148438 2.867188 11.046875 3.386719 10.53125 L 1.789062 13.535156 L 2.496094 13.539062 L 5.582031 7.710938 L 4.867188 7.730469 L 3.605469 10.082031 C 3.199219 10.460938 2.539062 10.8125 2.164062 10.550781 C 1.414062 10.03125 4.347656 7.226562 3.269531 6.316406 C 2.40625 5.585938 1.46875 6.675781 1.171875 7.191406 C 0.929688 7.613281 0.46875 8.261719 0.460938 9.0625 L 0.460938 9.03125 C 0.460938 13.761719 4.292969 17.601562 9.023438 17.601562 C 13.054688 17.601562 16.4375 14.8125 17.34375 11.054688 C 17.378906 10.917969 17.417969 10.75 17.417969 10.75 C 17.175781 11.128906 16.539062 11.691406 16.539062 11.691406 Z M 16.539062 11.691406 "/>
<path style="fill:none;stroke-width:1.0213;stroke-linecap:round;stroke-linejoin:round;stroke:rgb(98.823529%,9.803922%,12.941176%);stroke-opacity:1;stroke-miterlimit:4;" d="M 73.217438 76.147289 L 85.261708 74.391234 " transform="matrix(0.06,0,0,0.0600601,0.04836,0.0554955)"/>
<path style="fill:none;stroke-width:1.0213;stroke-linecap:round;stroke-linejoin:round;stroke:rgb(98.823529%,9.803922%,12.941176%);stroke-opacity:1;stroke-miterlimit:4;" d="M 52.644521 55.139672 C 81.290354 78.033422 99.649729 113.284594 99.649729 152.893383 C 99.649729 163.559789 98.477854 172.665258 95.938792 182.616234 " transform="matrix(0.06,0,0,0.0600601,0.04836,0.0554955)"/>
<path style="fill:none;stroke-width:1.0213;stroke-linecap:round;stroke-linejoin:round;stroke:rgb(98.823529%,9.803922%,12.941176%);stroke-opacity:1;stroke-miterlimit:4;" d="M 84.805979 212.404125 C 78.425771 224.241234 70.222646 234.842602 60.391917 243.817992 C 55.834625 248.045531 57.201813 245.639086 57.201813 245.639086 " transform="matrix(0.06,0,0,0.0600601,0.04836,0.0554955)"/>
<path style="fill:none;stroke-width:1.0213;stroke-linecap:round;stroke-linejoin:round;stroke:rgb(98.823529%,9.803922%,12.941176%);stroke-opacity:1;stroke-miterlimit:4;" d="M 66.3815 54.359203 L 56.095042 58.196508 L 52.644521 68.667797 " transform="matrix(0.06,0,0,0.0600601,0.04836,0.0554955)"/>
<path style="fill:none;stroke-width:1.0213;stroke-linecap:round;stroke-linejoin:round;stroke:rgb(98.823529%,9.803922%,12.941176%);stroke-opacity:1;stroke-miterlimit:4;" d="M 62.149729 63.139477 L 71.329417 59.757445 " transform="matrix(0.06,0,0,0.0600601,0.04836,0.0554955)"/>
<path style="fill:none;stroke-width:1.0213;stroke-linecap:round;stroke-linejoin:round;stroke:rgb(98.823529%,9.803922%,12.941176%);stroke-opacity:1;stroke-miterlimit:4;" d="M 65.209625 66.586547 L 74.779938 63.529711 " transform="matrix(0.06,0,0,0.0600601,0.04836,0.0554955)"/>
<path style="fill:none;stroke-width:1.0213;stroke-linecap:round;stroke-linejoin:round;stroke:rgb(98.823529%,9.803922%,12.941176%);stroke-opacity:1;stroke-miterlimit:4;" d="M 69.050771 71.20432 L 81.290354 69.253148 " transform="matrix(0.06,0,0,0.0600601,0.04836,0.0554955)"/>
<path style="fill:none;stroke-width:1.0213;stroke-linecap:round;stroke-linejoin:round;stroke:rgb(98.823529%,9.803922%,12.941176%);stroke-opacity:1;stroke-miterlimit:4;" d="M 79.727854 84.342211 L 92.878896 83.171508 " transform="matrix(0.06,0,0,0.0600601,0.04836,0.0554955)"/>
<path style="fill:none;stroke-width:1.0213;stroke-linecap:round;stroke-linejoin:round;stroke:rgb(98.823529%,9.803922%,12.941176%);stroke-opacity:1;stroke-miterlimit:4;" d="M 76.472646 101.512523 L 84.480458 93.122484 L 97.891917 92.73225 " transform="matrix(0.06,0,0,0.0600601,0.04836,0.0554955)"/>
<path style="fill:none;stroke-width:1.0213;stroke-linecap:round;stroke-linejoin:round;stroke:rgb(98.823529%,9.803922%,12.941176%);stroke-opacity:1;stroke-miterlimit:4;" d="M 80.118479 109.707445 L 88.516917 101.512523 L 101.277333 102.292992 " transform="matrix(0.06,0,0,0.0600601,0.04836,0.0554955)"/>
<path style="fill:none;stroke-width:1.0213;stroke-linecap:round;stroke-linejoin:round;stroke:rgb(98.823529%,9.803922%,12.941176%);stroke-opacity:1;stroke-miterlimit:4;" d="M 57.0065 73.090453 L 61.238271 63.139477 " transform="matrix(0.06,0,0,0.0600601,0.04836,0.0554955)"/>
<path style="fill:none;stroke-width:1.0213;stroke-linecap:round;stroke-linejoin:round;stroke:rgb(98.823529%,9.803922%,12.941176%);stroke-opacity:1;stroke-miterlimit:4;" d="M 61.954417 78.033422 L 66.186188 67.75725 " transform="matrix(0.06,0,0,0.0600601,0.04836,0.0554955)"/>
<path style="fill:none;stroke-width:1.0213;stroke-linecap:round;stroke-linejoin:round;stroke:rgb(98.823529%,9.803922%,12.941176%);stroke-opacity:1;stroke-miterlimit:4;" d="M 64.688792 82.260961 L 70.027333 72.114867 " transform="matrix(0.06,0,0,0.0600601,0.04836,0.0554955)"/>
<path style="fill:none;stroke-width:1.0213;stroke-linecap:round;stroke-linejoin:round;stroke:rgb(98.823529%,9.803922%,12.941176%);stroke-opacity:1;stroke-miterlimit:4;" d="M 68.269521 87.008812 L 74.389313 77.838305 " transform="matrix(0.06,0,0,0.0600601,0.04836,0.0554955)"/>
<path style="fill:none;stroke-width:1.0213;stroke-linecap:round;stroke-linejoin:round;stroke:rgb(98.823529%,9.803922%,12.941176%);stroke-opacity:1;stroke-miterlimit:4;" d="M 71.915354 92.537133 L 78.751292 85.12268 " transform="matrix(0.06,0,0,0.0600601,0.04836,0.0554955)"/>
<path style="fill:none;stroke-width:1.0213;stroke-linecap:round;stroke-linejoin:round;stroke:rgb(98.823529%,9.803922%,12.941176%);stroke-opacity:1;stroke-miterlimit:4;" d="M 83.764313 120.634008 L 92.488271 111.853734 L 106.290354 112.959398 " transform="matrix(0.06,0,0,0.0600601,0.04836,0.0554955)"/>
<path style="fill:none;stroke-width:1.0213;stroke-linecap:round;stroke-linejoin:round;stroke:rgb(98.823529%,9.803922%,12.941176%);stroke-opacity:1;stroke-miterlimit:4;" d="M 95.938792 122.325023 L 108.373688 125.576977 " transform="matrix(0.06,0,0,0.0600601,0.04836,0.0554955)"/>
<path style="fill:none;stroke-width:1.0213;stroke-linecap:round;stroke-linejoin:round;stroke:rgb(98.823529%,9.803922%,12.941176%);stroke-opacity:1;stroke-miterlimit:4;" d="M 95.743479 121.934789 L 92.16275 125.576977 " transform="matrix(0.06,0,0,0.0600601,0.04836,0.0554955)"/>
<path style="fill:none;stroke-width:1.0213;stroke-linecap:round;stroke-linejoin:round;stroke:rgb(98.823529%,9.803922%,12.941176%);stroke-opacity:1;stroke-miterlimit:4;" d="M 98.41275 134.35725 L 109.871083 138.324633 " transform="matrix(0.06,0,0,0.0600601,0.04836,0.0554955)"/>
<path style="fill:none;stroke-width:1.0213;stroke-linecap:round;stroke-linejoin:round;stroke:rgb(98.823529%,9.803922%,12.941176%);stroke-opacity:1;stroke-miterlimit:4;" d="M 89.298167 142.357055 L 98.217438 133.381664 " transform="matrix(0.06,0,0,0.0600601,0.04836,0.0554955)"/>
<path style="fill:none;stroke-width:1.0213;stroke-linecap:round;stroke-linejoin:round;stroke:rgb(98.823529%,9.803922%,12.941176%);stroke-opacity:1;stroke-miterlimit:4;" d="M 111.954417 153.608812 L 99.389313 148.275609 L 89.298167 156.275414 " transform="matrix(0.06,0,0,0.0600601,0.04836,0.0554955)"/>
<path style="fill:none;stroke-width:1.0213;stroke-linecap:round;stroke-linejoin:round;stroke:rgb(98.823529%,9.803922%,12.941176%);stroke-opacity:1;stroke-miterlimit:4;" d="M 89.493479 168.112523 L 99.194 161.673656 L 111.042958 166.421508 " transform="matrix(0.06,0,0,0.0600601,0.04836,0.0554955)"/>
<path style="fill:none;stroke-width:1.0213;stroke-linecap:round;stroke-linejoin:round;stroke:rgb(98.823529%,9.803922%,12.941176%);stroke-opacity:1;stroke-miterlimit:4;" d="M 86.628896 179.039086 L 97.891917 174.421312 L 109.675771 179.364281 " transform="matrix(0.06,0,0,0.0600601,0.04836,0.0554955)"/>
<path style="fill:none;stroke-width:1.0213;stroke-linecap:round;stroke-linejoin:round;stroke:rgb(98.823529%,9.803922%,12.941176%);stroke-opacity:1;stroke-miterlimit:4;" d="M 95.938792 182.616234 L 101.863271 187.624242 " transform="matrix(0.06,0,0,0.0600601,0.04836,0.0554955)"/>
<path style="fill:none;stroke-width:1.0213;stroke-linecap:round;stroke-linejoin:round;stroke:rgb(98.823529%,9.803922%,12.941176%);stroke-opacity:1;stroke-miterlimit:4;" d="M 93.074208 194.063109 L 95.222646 195.819164 " transform="matrix(0.06,0,0,0.0600601,0.04836,0.0554955)"/>
<path style="fill:none;stroke-width:1.0213;stroke-linecap:round;stroke-linejoin:round;stroke:rgb(98.823529%,9.803922%,12.941176%);stroke-opacity:1;stroke-miterlimit:4;" d="M 100.040354 199.266234 L 101.928375 200.436937 " transform="matrix(0.06,0,0,0.0600601,0.04836,0.0554955)"/>
<path style="fill:none;stroke-width:1.0213;stroke-linecap:round;stroke-linejoin:round;stroke:rgb(98.823529%,9.803922%,12.941176%);stroke-opacity:1;stroke-miterlimit:4;" d="M 93.464833 206.680687 L 97.501292 210.322875 " transform="matrix(0.06,0,0,0.0600601,0.04836,0.0554955)"/>
<path style="fill:none;stroke-width:1.0213;stroke-linecap:round;stroke-linejoin:round;stroke:rgb(98.823529%,9.803922%,12.941176%);stroke-opacity:1;stroke-miterlimit:4;" d="M 84.285146 213.184594 L 91.576813 219.818578 " transform="matrix(0.06,0,0,0.0600601,0.04836,0.0554955)"/>
<path style="fill:none;stroke-width:1.0213;stroke-linecap:round;stroke-linejoin:round;stroke:rgb(98.823529%,9.803922%,12.941176%);stroke-opacity:1;stroke-miterlimit:4;" d="M 83.373688 214.095141 L 75.170563 213.379711 " transform="matrix(0.06,0,0,0.0600601,0.04836,0.0554955)"/>
<path style="fill:none;stroke-width:1.0213;stroke-linecap:round;stroke-linejoin:round;stroke:rgb(98.823529%,9.803922%,12.941176%);stroke-opacity:1;stroke-miterlimit:4;" d="M 86.238271 228.793969 L 79.727854 220.599047 L 70.027333 219.493383 " transform="matrix(0.06,0,0,0.0600601,0.04836,0.0554955)"/>
<path style="fill:none;stroke-width:1.0213;stroke-linecap:round;stroke-linejoin:round;stroke:rgb(98.823529%,9.803922%,12.941176%);stroke-opacity:1;stroke-miterlimit:4;" d="M 64.819 225.93225 L 73.998688 226.907836 L 80.118479 235.492992 " transform="matrix(0.06,0,0,0.0600601,0.04836,0.0554955)"/>
<path style="fill:none;stroke-width:1.0213;stroke-linecap:round;stroke-linejoin:round;stroke:rgb(98.823529%,9.803922%,12.941176%);stroke-opacity:1;stroke-miterlimit:4;" d="M 59.480458 231.265453 L 68.269521 233.932055 L 74.779938 240.826195 " transform="matrix(0.06,0,0,0.0600601,0.04836,0.0554955)"/>
<path style="fill:none;stroke-width:1.0213;stroke-linecap:round;stroke-linejoin:round;stroke:rgb(98.823529%,9.803922%,12.941176%);stroke-opacity:1;stroke-miterlimit:4;" d="M 56.22525 236.273461 L 64.102854 238.549828 L 69.832021 245.053734 " transform="matrix(0.06,0,0,0.0600601,0.04836,0.0554955)"/>
<path style="fill:none;stroke-width:1.0213;stroke-linecap:round;stroke-linejoin:round;stroke:rgb(98.823529%,9.803922%,12.941176%);stroke-opacity:1;stroke-miterlimit:4;" d="M 62.930979 249.411352 L 59.089833 243.29768 L 54.141917 241.411547 " transform="matrix(0.06,0,0,0.0600601,0.04836,0.0554955)"/>
<path style="fill:none;stroke-width:1.0213;stroke-linecap:round;stroke-linejoin:round;stroke:rgb(98.823529%,9.803922%,12.941176%);stroke-opacity:1;stroke-miterlimit:4;" d="M 216.3815 204.014086 C 220.548167 211.623656 238.907542 234.127172 248.803375 239.13518 " transform="matrix(0.06,0,0,0.0600601,0.04836,0.0554955)"/>
<path style="fill:none;stroke-width:1.0213;stroke-linecap:round;stroke-linejoin:round;stroke:rgb(98.823529%,9.803922%,12.941176%);stroke-opacity:1;stroke-miterlimit:4;" d="M 209.480458 203.233617 L 213.321604 202.843383 " transform="matrix(0.06,0,0,0.0600601,0.04836,0.0554955)"/>
<path style="fill:none;stroke-width:1.0213;stroke-linecap:round;stroke-linejoin:round;stroke:rgb(98.823529%,9.803922%,12.941176%);stroke-opacity:1;stroke-miterlimit:4;" d="M 222.110667 205.900219 L 219.050771 208.957055 L 210.652333 210.517992 " transform="matrix(0.06,0,0,0.0600601,0.04836,0.0554955)"/>
<path style="fill:none;stroke-width:1.0213;stroke-linecap:round;stroke-linejoin:round;stroke:rgb(98.823529%,9.803922%,12.941176%);stroke-opacity:1;stroke-miterlimit:4;" d="M 214.102854 217.347094 L 225.561188 216.956859 " transform="matrix(0.06,0,0,0.0600601,0.04836,0.0554955)"/>
<path style="fill:none;stroke-width:1.0213;stroke-linecap:round;stroke-linejoin:round;stroke:rgb(98.823529%,9.803922%,12.941176%);stroke-opacity:1;stroke-miterlimit:4;" d="M 235.457021 215.460961 L 229.337229 222.680297 L 220.157542 225.411937 " transform="matrix(0.06,0,0,0.0600601,0.04836,0.0554955)"/>
<path style="fill:none;stroke-width:1.0213;stroke-linecap:round;stroke-linejoin:round;stroke:rgb(98.823529%,9.803922%,12.941176%);stroke-opacity:1;stroke-miterlimit:4;" d="M 240.014313 220.40393 L 234.480458 227.29807 L 224.389313 231.850805 " transform="matrix(0.06,0,0,0.0600601,0.04836,0.0554955)"/>
<path style="fill:none;stroke-width:1.0213;stroke-linecap:round;stroke-linejoin:round;stroke:rgb(98.823529%,9.803922%,12.941176%);stroke-opacity:1;stroke-miterlimit:4;" d="M 228.946604 236.468578 L 237.345042 231.46057 " transform="matrix(0.06,0,0,0.0600601,0.04836,0.0554955)"/>
<path style="fill:none;stroke-width:1.0213;stroke-linecap:round;stroke-linejoin:round;stroke:rgb(98.823529%,9.803922%,12.941176%);stroke-opacity:1;stroke-miterlimit:4;" d="M 247.305979 228.403734 L 241.967438 234.907641 L 233.959625 240.240844 " transform="matrix(0.06,0,0,0.0600601,0.04836,0.0554955)"/>
<path style="fill:none;stroke-width:1.0213;stroke-linecap:round;stroke-linejoin:round;stroke:rgb(98.823529%,9.803922%,12.941176%);stroke-opacity:1;stroke-miterlimit:4;" d="M 245.027333 223.460766 L 238.907542 231.850805 " transform="matrix(0.06,0,0,0.0600601,0.04836,0.0554955)"/>
<path style="fill:none;stroke-width:1.0213;stroke-linecap:round;stroke-linejoin:round;stroke:rgb(98.823529%,9.803922%,12.941176%);stroke-opacity:1;stroke-miterlimit:4;" d="M 230.509104 209.347289 L 224.779938 215.851195 " transform="matrix(0.06,0,0,0.0600601,0.04836,0.0554955)"/>
<path style="fill:none;stroke-width:1.0213;stroke-linecap:round;stroke-linejoin:round;stroke:rgb(98.823529%,9.803922%,12.941176%);stroke-opacity:1;stroke-miterlimit:4;" d="M 250.691396 232.631273 L 248.022125 237.964477 L 240.795563 242.907445 " transform="matrix(0.06,0,0,0.0600601,0.04836,0.0554955)"/>
<path style=" stroke:none;fill-rule:nonzero;fill:rgb(98.823529%,9.803922%,12.941176%);fill-opacity:1;" d="M 7.703125 14.5625 C 7.222656 15.398438 6.011719 17.683594 5.605469 18.625 C 5.5 18.871094 5.472656 18.980469 5.578125 19.105469 C 5.597656 19.128906 5.632812 19.1875 5.636719 19.210938 C 5.660156 19.296875 5.5625 19.40625 5.511719 19.4375 C 5.410156 19.507812 5.183594 19.523438 4.777344 19.335938 C 4.375 19.152344 4.273438 18.925781 4.265625 18.800781 C 4.261719 18.742188 4.292969 18.597656 4.375 18.566406 C 4.398438 18.558594 4.464844 18.550781 4.496094 18.554688 C 4.65625 18.566406 4.746094 18.460938 4.882812 18.230469 C 5.441406 17.285156 6.632812 15.085938 7.050781 14.238281 C 7.292969 13.738281 8.644531 11.113281 9.304688 9.210938 C 9.355469 9.066406 9.398438 8.929688 9.441406 8.796875 C 9.445312 8.773438 9.484375 8.714844 9.511719 8.671875 C 9.628906 8.5 10.023438 8.460938 10.386719 8.636719 C 10.753906 8.808594 11.015625 9.21875 10.914062 9.484375 C 10.894531 9.535156 10.855469 9.597656 10.839844 9.617188 C 10.78125 9.695312 10.71875 9.78125 10.652344 9.871094 C 9.699219 11.203125 8.246094 13.609375 7.703125 14.5625 Z M 4.660156 18.628906 C 4.667969 18.648438 4.691406 18.671875 4.761719 18.65625 C 4.789062 18.652344 4.808594 18.625 4.84375 18.585938 C 4.898438 18.523438 4.96875 18.425781 4.988281 18.328125 C 5.003906 18.285156 4.976562 18.304688 4.964844 18.324219 C 4.957031 18.34375 4.777344 18.574219 4.679688 18.597656 C 4.667969 18.601562 4.660156 18.59375 4.660156 18.628906 Z M 6.21875 16.390625 C 6.09375 16.636719 5.347656 18.078125 5.007812 18.515625 C 5 18.527344 4.992188 18.535156 4.984375 18.546875 C 4.972656 18.558594 4.953125 18.570312 4.941406 18.578125 C 4.933594 18.589844 4.9375 18.601562 4.929688 18.605469 C 4.921875 18.613281 4.933594 18.617188 4.925781 18.625 C 4.921875 18.632812 4.90625 18.640625 4.898438 18.648438 C 4.882812 18.664062 4.886719 18.679688 4.875 18.691406 C 4.851562 18.714844 4.816406 18.726562 4.816406 18.726562 C 4.777344 18.734375 4.792969 18.785156 4.824219 18.800781 C 4.84375 18.804688 4.863281 18.816406 4.878906 18.828125 C 4.894531 18.839844 4.910156 18.84375 4.925781 18.863281 C 4.9375 18.882812 4.917969 18.90625 4.914062 18.925781 C 4.914062 18.945312 4.921875 18.960938 4.910156 18.976562 C 4.890625 18.992188 4.851562 19 4.820312 18.992188 C 4.78125 18.980469 4.730469 18.949219 4.6875 18.929688 C 4.628906 18.902344 4.578125 18.882812 4.5625 18.882812 C 4.550781 18.886719 4.523438 18.894531 4.511719 18.90625 C 4.507812 18.917969 4.503906 18.929688 4.519531 18.941406 C 4.527344 18.949219 4.550781 18.964844 4.566406 18.96875 C 4.585938 18.980469 4.605469 19 4.632812 19.015625 C 4.640625 19.019531 4.652344 19.011719 4.660156 19.015625 C 4.671875 19.019531 4.6875 19.039062 4.699219 19.046875 C 4.71875 19.054688 4.742188 19.070312 4.757812 19.078125 C 4.769531 19.082031 4.777344 19.101562 4.789062 19.109375 C 4.796875 19.113281 4.800781 19.105469 4.804688 19.109375 C 4.824219 19.117188 4.84375 19.121094 4.855469 19.128906 C 4.875 19.148438 4.902344 19.164062 4.925781 19.175781 C 4.964844 19.1875 5.003906 19.175781 5.019531 19.101562 C 5.046875 18.984375 5.078125 18.851562 5.101562 18.765625 C 5.109375 18.746094 5.121094 18.703125 5.140625 18.652344 C 5.144531 18.640625 5.136719 18.628906 5.140625 18.617188 C 5.214844 18.40625 5.375 18.03125 5.472656 17.8125 C 5.605469 17.523438 6.210938 16.429688 6.21875 16.410156 C 6.226562 16.390625 6.269531 16.300781 6.21875 16.390625 Z M 7.085938 14.691406 C 7.1875 14.5 10.195312 9.371094 10.46875 8.902344 C 10.46875 8.902344 10.546875 8.945312 10.535156 9.011719 C 10.261719 9.425781 8.542969 12.316406 8.398438 12.59375 C 8.253906 12.875 7.21875 14.644531 6.570312 15.910156 C 6.570312 15.910156 9.199219 11.421875 9.304688 11.234375 C 9.40625 11.050781 10.546875 9.210938 10.613281 9.105469 C 10.613281 9.105469 10.6875 8.988281 10.683594 8.996094 C 10.503906 8.75 10.171875 8.613281 9.867188 8.621094 C 9.839844 8.742188 8.746094 11.425781 8.40625 12.078125 C 8.085938 12.699219 7.21875 14.453125 7.085938 14.691406 Z M 5.96875 17.34375 C 6.148438 17.007812 8.542969 12.667969 10.078125 10.332031 C 10.121094 10.269531 10.792969 9.269531 10.792969 9.222656 C 10.796875 9.171875 10.761719 9.109375 10.742188 9.09375 C 10.707031 9.148438 10.332031 9.753906 10.003906 10.261719 C 8.597656 12.542969 6.132812 16.914062 5.992188 17.25 C 5.984375 17.261719 5.953125 17.347656 5.949219 17.359375 C 5.941406 17.375 5.953125 17.367188 5.941406 17.382812 C 5.90625 17.425781 5.875 17.507812 5.847656 17.554688 C 5.839844 17.566406 5.832031 17.578125 5.824219 17.589844 C 5.820312 17.59375 5.824219 17.601562 5.820312 17.609375 C 5.816406 17.625 5.804688 17.636719 5.796875 17.65625 C 5.796875 17.660156 5.796875 17.667969 5.796875 17.671875 C 5.777344 17.707031 5.769531 17.738281 5.746094 17.769531 C 5.742188 17.773438 5.746094 17.78125 5.742188 17.785156 C 5.742188 17.789062 5.734375 17.792969 5.734375 17.792969 C 5.71875 17.839844 5.6875 17.867188 5.667969 17.90625 C 5.664062 17.914062 5.667969 17.921875 5.667969 17.925781 C 5.660156 17.925781 5.65625 17.929688 5.652344 17.933594 C 5.652344 17.949219 5.644531 17.964844 5.640625 17.980469 C 5.632812 17.992188 5.621094 18.003906 5.617188 18.015625 C 5.613281 18.039062 5.585938 18.054688 5.589844 18.082031 C 5.570312 18.085938 5.574219 18.09375 5.574219 18.101562 C 5.574219 18.105469 5.570312 18.113281 5.566406 18.117188 C 5.546875 18.132812 5.539062 18.15625 5.535156 18.179688 C 5.527344 18.199219 5.511719 18.214844 5.503906 18.234375 C 5.503906 18.238281 5.503906 18.242188 5.503906 18.246094 C 5.496094 18.253906 5.507812 18.265625 5.507812 18.273438 C 5.503906 18.285156 5.480469 18.300781 5.476562 18.308594 C 5.472656 18.316406 5.472656 18.3125 5.46875 18.316406 C 5.445312 18.359375 5.449219 18.398438 5.429688 18.441406 C 5.425781 18.445312 5.410156 18.460938 5.40625 18.464844 C 5.375 18.503906 5.382812 18.550781 5.355469 18.585938 C 5.359375 18.605469 5.34375 18.621094 5.339844 18.636719 C 5.339844 18.644531 5.34375 18.648438 5.34375 18.652344 C 5.34375 18.667969 5.335938 18.683594 5.332031 18.699219 C 5.320312 18.757812 5.3125 18.8125 5.296875 18.875 C 5.285156 18.921875 5.253906 18.941406 5.246094 18.992188 C 5.246094 19.003906 5.257812 19.003906 5.257812 19.011719 C 5.261719 19.019531 5.261719 19.023438 5.265625 19.03125 C 5.273438 19.035156 5.277344 19.027344 5.28125 19.023438 C 5.292969 18.984375 5.292969 18.960938 5.308594 18.921875 C 5.316406 18.90625 5.296875 18.886719 5.300781 18.871094 C 5.316406 18.824219 5.367188 18.78125 5.382812 18.730469 C 5.40625 18.722656 5.386719 18.695312 5.394531 18.679688 C 5.398438 18.671875 5.402344 18.671875 5.410156 18.667969 C 5.417969 18.664062 5.398438 18.652344 5.402344 18.644531 C 5.414062 18.621094 5.441406 18.601562 5.457031 18.578125 C 5.464844 18.566406 5.480469 18.550781 5.484375 18.535156 C 5.496094 18.511719 5.507812 18.496094 5.507812 18.472656 C 5.511719 18.441406 5.542969 18.417969 5.539062 18.390625 C 5.539062 18.382812 5.546875 18.378906 5.550781 18.371094 C 5.558594 18.335938 5.5625 18.300781 5.574219 18.265625 C 5.582031 18.253906 5.578125 18.238281 5.578125 18.226562 C 5.59375 18.226562 5.574219 18.207031 5.589844 18.207031 C 5.585938 18.191406 5.59375 18.171875 5.597656 18.160156 C 5.621094 18.113281 5.636719 18.0625 5.648438 18.007812 C 5.652344 17.996094 5.660156 17.984375 5.667969 17.972656 C 5.667969 17.96875 5.664062 17.957031 5.667969 17.953125 C 5.675781 17.945312 5.679688 17.933594 5.691406 17.925781 C 5.695312 17.925781 5.691406 17.917969 5.695312 17.914062 C 5.699219 17.898438 5.71875 17.890625 5.71875 17.875 C 5.722656 17.871094 5.730469 17.871094 5.730469 17.867188 C 5.75 17.820312 5.769531 17.785156 5.78125 17.738281 C 5.785156 17.714844 5.820312 17.695312 5.816406 17.667969 C 5.816406 17.664062 5.828125 17.664062 5.828125 17.660156 C 5.835938 17.632812 5.835938 17.605469 5.855469 17.582031 C 5.855469 17.574219 5.855469 17.566406 5.855469 17.5625 C 5.855469 17.554688 5.878906 17.554688 5.878906 17.554688 C 5.894531 17.53125 5.882812 17.492188 5.890625 17.46875 C 5.894531 17.453125 5.921875 17.449219 5.929688 17.4375 C 5.933594 17.429688 5.933594 17.421875 5.941406 17.414062 C 5.941406 17.414062 5.9375 17.410156 5.9375 17.410156 C 5.941406 17.402344 5.941406 17.394531 5.949219 17.390625 C 5.953125 17.386719 5.957031 17.378906 5.953125 17.375 C 5.957031 17.378906 5.957031 17.367188 5.960938 17.371094 C 5.960938 17.367188 5.960938 17.363281 5.960938 17.359375 M 7.925781 12.792969 C 8.132812 12.5 9.164062 10.335938 9.679688 8.78125 L 9.613281 8.796875 C 9.558594 9 9.027344 10.691406 7.925781 12.792969 Z M 7.925781 12.792969 "/>
<path style=" stroke:none;fill-rule:nonzero;fill:rgb(4.705882%,17.647059%,50.980392%);fill-opacity:1;" d="M 9.082031 5.703125 C 9.601562 5.339844 10.863281 5.03125 11.988281 5.640625 C 12.820312 6.085938 13.421875 6.824219 13.59375 7.902344 L 12.964844 8.265625 C 12.367188 7.585938 11.828125 7.1875 11.417969 6.980469 C 11.003906 6.773438 10.042969 6.359375 9.128906 6.316406 Z M 12.421875 6.207031 L 12.113281 6.347656 L 11.804688 6.167969 L 11.839844 6.503906 L 11.570312 6.738281 L 11.917969 6.804688 L 12.050781 7.136719 L 12.234375 6.835938 L 12.574219 6.816406 L 12.351562 6.550781 Z M 13.308594 7.574219 L 13.101562 7.570312 L 12.980469 7.394531 L 12.914062 7.589844 L 12.707031 7.648438 L 12.878906 7.769531 L 12.867188 7.988281 L 13.042969 7.867188 L 13.234375 7.945312 L 13.179688 7.746094 Z M 10.773438 5.585938 L 10.625 5.835938 L 10.324219 5.859375 L 10.511719 6.078125 L 10.4375 6.371094 L 10.710938 6.25 L 10.964844 6.417969 L 10.945312 6.117188 L 11.179688 5.9375 L 10.894531 5.863281 Z M 9.570312 5.671875 L 9.511719 5.855469 L 9.320312 5.914062 L 9.476562 6.027344 L 9.46875 6.226562 L 9.628906 6.109375 L 9.816406 6.179688 L 9.761719 5.988281 L 9.882812 5.839844 L 9.6875 5.832031 Z M 9.570312 5.671875 "/>
<path style=" stroke:none;fill-rule:nonzero;fill:rgb(4.705882%,17.647059%,50.980392%);fill-opacity:1;" d="M 14.886719 12.804688 L 14.75 12.804688 L 14.75 13.175781 L 14.65625 13.175781 L 14.65625 12.804688 L 14.519531 12.804688 L 14.519531 12.722656 L 14.886719 12.722656 Z M 15.5 13.175781 L 15.410156 13.175781 L 15.410156 12.816406 L 15.40625 12.816406 L 15.277344 13.175781 L 15.1875 13.175781 L 15.0625 12.816406 L 15.058594 12.816406 L 15.058594 13.175781 L 14.96875 13.175781 L 14.96875 12.722656 L 15.128906 12.722656 L 15.230469 13.019531 L 15.234375 13.019531 L 15.34375 12.722656 L 15.5 12.722656 Z M 15.5 13.175781 "/>
</g>
</svg>
