<?xml version="1.0" encoding="UTF-8"?>
<svg xmlns="http://www.w3.org/2000/svg" xmlns:xlink="http://www.w3.org/1999/xlink" width="20pt" height="20pt" viewBox="0 0 20 20" version="1.1">
<g id="surface1">
<path style=" stroke:none;fill-rule:nonzero;fill:rgb(100%,100%,100%);fill-opacity:1;" d="M 10 0 C 4.484375 0 0 4.488281 0 10 C 0 15.515625 4.484375 20 10 20 C 15.515625 20 20 15.515625 20 10 C 20 4.488281 15.515625 0 10 0 "/>
<path style=" stroke:none;fill-rule:nonzero;fill:rgb(100%,100%,100%);fill-opacity:1;" d="M 19.21875 10 C 19.21875 9.941406 19.214844 9.886719 19.214844 9.828125 L 16.339844 9.828125 C 16.292969 8.273438 15.683594 6.730469 14.496094 5.542969 C 12.03125 3.074219 8.027344 3.074219 5.558594 5.542969 C 4.367188 6.734375 3.757812 8.28125 3.714844 9.84375 L 0.78125 9.839844 C 0.78125 9.894531 0.78125 9.945312 0.777344 10 C 0.777344 10.015625 0.777344 10.027344 0.777344 10.046875 C 0.777344 10.085938 0.78125 10.128906 0.78125 10.167969 L 3.714844 10.167969 C 3.753906 11.734375 4.363281 13.289062 5.558594 14.484375 C 8.027344 16.949219 12.027344 16.949219 14.496094 14.480469 C 15.695312 13.285156 16.304688 11.722656 16.34375 10.15625 L 19.21875 10.15625 C 19.21875 10.113281 19.222656 10.070312 19.222656 10.03125 C 19.222656 10.019531 19.21875 10.011719 19.21875 10 "/>
<path style=" stroke:none;fill-rule:nonzero;fill:rgb(80.392157%,6.666667%,25.490196%);fill-opacity:1;" d="M 10 0.777344 C 4.96875 0.777344 0.867188 4.828125 0.78125 9.839844 L 3.714844 9.84375 C 3.757812 8.28125 4.367188 6.734375 5.558594 5.542969 C 8.027344 3.074219 12.03125 3.074219 14.496094 5.542969 C 15.683594 6.730469 16.292969 8.273438 16.339844 9.828125 L 19.214844 9.828125 C 19.214844 9.886719 19.21875 9.941406 19.21875 10 L 19.222656 10 C 19.222656 4.914062 15.085938 0.777344 10 0.777344 "/>
<path style=" stroke:none;fill-rule:nonzero;fill:rgb(0%,27.843137%,51.764706%);fill-opacity:1;" d="M 10 0.339844 C 4.664062 0.339844 0.339844 4.664062 0.339844 10 C 0.339844 15.335938 4.664062 19.660156 10 19.660156 C 15.335938 19.660156 19.660156 15.335938 19.660156 10 C 19.660156 4.664062 15.335938 0.339844 10 0.339844 M 7.523438 15.8125 C 7.582031 15.816406 7.632812 15.8125 7.695312 15.800781 C 7.761719 15.875 7.820312 15.917969 7.882812 15.953125 C 7.761719 15.910156 7.644531 15.863281 7.523438 15.8125 Z M 19.222656 10.03125 C 19.222656 10.070312 19.21875 10.113281 19.21875 10.152344 L 16.339844 10.152344 C 16.304688 11.722656 15.695312 13.285156 14.496094 14.480469 C 12.765625 16.214844 10.277344 16.726562 8.09375 16.027344 L 8.140625 15.957031 C 8 15.921875 7.828125 15.804688 7.722656 15.707031 C 7.496094 15.765625 7.371094 15.660156 7.214844 15.613281 L 7.199219 15.664062 C 6.609375 15.367188 6.050781 14.976562 5.558594 14.484375 C 5.324219 14.25 5.121094 13.996094 4.929688 13.738281 C 4.992188 13.777344 5.066406 13.816406 5.125 13.835938 L 5.066406 13.742188 C 5.066406 13.742188 4.90625 13.636719 4.777344 13.53125 C 4.671875 13.375 4.578125 13.214844 4.488281 13.050781 C 4.675781 13.222656 4.804688 13.25 4.945312 13.320312 L 4.902344 13.117188 C 4.78125 13.078125 4.539062 12.976562 4.363281 12.800781 C 3.957031 11.972656 3.738281 11.074219 3.714844 10.167969 L 0.78125 10.167969 C 0.78125 10.128906 0.777344 10.085938 0.777344 10.046875 C 0.777344 10.027344 0.777344 10.015625 0.777344 10 C 0.777344 9.945312 0.78125 9.894531 0.78125 9.839844 C 0.867188 4.828125 4.96875 0.777344 10 0.777344 C 15.085938 0.777344 19.222656 4.914062 19.222656 10 L 19.21875 10 C 19.21875 10.011719 19.222656 10.019531 19.222656 10.03125 Z M 19.222656 10.03125 "/>
<path style=" stroke:none;fill-rule:nonzero;fill:rgb(100%,100%,100%);fill-opacity:1;" d="M 3.324219 12.875 C 3.433594 12.835938 3.507812 12.757812 3.554688 12.644531 C 3.613281 12.488281 3.601562 12.269531 3.523438 12.054688 L 3.300781 11.449219 L 3.265625 11.484375 C 3.265625 11.484375 3.144531 11.601562 3.144531 11.601562 C 3.140625 11.601562 2.996094 11.65625 2.996094 11.65625 C 2.996094 11.65625 2.699219 11.761719 2.699219 11.761719 C 2.699219 11.753906 2.519531 11.679688 2.519531 11.679688 L 2.492188 11.667969 C 2.492188 11.667969 2.402344 11.863281 2.394531 11.882812 C 2.371094 11.894531 1.902344 12.066406 1.898438 12.066406 C 1.898438 12.0625 1.738281 12.054688 1.738281 12.054688 L 1.691406 12.050781 L 1.890625 12.609375 C 1.890625 12.609375 2.046875 12.445312 2.050781 12.445312 C 2.050781 12.445312 2.449219 12.296875 2.558594 12.257812 C 2.5625 12.269531 2.585938 12.339844 2.59375 12.363281 C 2.570312 12.386719 2.027344 12.988281 2.027344 12.988281 L 2.1875 13.4375 C 2.1875 13.4375 2.328125 13.222656 2.332031 13.21875 C 2.339844 13.207031 2.789062 12.738281 2.824219 12.703125 C 2.964844 12.863281 3.160156 12.9375 3.324219 12.875 M 3.320312 12.316406 C 3.296875 12.375 3.246094 12.421875 3.171875 12.449219 C 3.09375 12.480469 3.007812 12.472656 2.941406 12.4375 C 2.890625 12.410156 2.855469 12.367188 2.832031 12.3125 C 2.832031 12.3125 2.796875 12.214844 2.78125 12.167969 C 2.828125 12.152344 3.21875 12.019531 3.269531 12.003906 C 3.28125 12.042969 3.3125 12.128906 3.3125 12.128906 C 3.328125 12.167969 3.332031 12.203125 3.332031 12.238281 C 3.335938 12.265625 3.328125 12.292969 3.320312 12.316406 Z M 3.320312 12.316406 "/>
<path style=" stroke:none;fill-rule:nonzero;fill:rgb(100%,100%,100%);fill-opacity:1;" d="M 4.777344 14.433594 C 4.777344 14.433594 4.121094 14.664062 4.121094 14.664062 C 4.121094 14.660156 3.925781 14.609375 3.925781 14.609375 L 3.898438 14.605469 C 3.898438 14.605469 3.824219 14.769531 3.8125 14.789062 C 3.789062 14.796875 3.265625 14.972656 3.265625 14.972656 C 3.265625 14.972656 3.269531 14.976562 3.269531 14.976562 C 3.246094 14.976562 3.199219 14.984375 3.101562 14.996094 C 3.101562 14.996094 3.023438 15.011719 3.023438 15.011719 L 3.359375 15.394531 C 3.359375 15.394531 3.4375 15.230469 3.445312 15.210938 C 3.464844 15.203125 3.65625 15.125 3.683594 15.113281 C 3.710938 15.140625 4.015625 15.492188 4.039062 15.515625 C 4.023438 15.546875 3.925781 15.722656 3.914062 15.738281 C 3.894531 15.742188 3.71875 15.796875 3.71875 15.796875 L 4.152344 16.292969 C 4.152344 16.292969 4.210938 16.039062 4.210938 16.039062 C 4.210938 16.042969 4.324219 15.855469 4.324219 15.855469 C 4.324219 15.855469 4.5 15.5625 4.5 15.5625 C 4.503906 15.566406 4.675781 15.5 4.675781 15.5 L 4.699219 15.488281 C 4.699219 15.488281 4.664062 15.253906 4.664062 15.253906 C 4.667969 15.253906 4.964844 14.640625 4.964844 14.640625 L 4.972656 14.621094 L 4.804688 14.425781 M 4.414062 14.847656 C 4.355469 14.949219 4.199219 15.21875 4.167969 15.273438 C 4.128906 15.226562 3.984375 15.066406 3.941406 15.015625 C 4.007812 14.992188 4.304688 14.886719 4.414062 14.847656 Z M 4.414062 14.847656 "/>
<path style=" stroke:none;fill-rule:nonzero;fill:rgb(100%,100%,100%);fill-opacity:1;" d="M 7.4375 16.582031 C 7.433594 16.578125 7.214844 17.027344 7.214844 17.027344 C 7.214844 17.027344 7.148438 17.15625 7.105469 17.242188 C 7.078125 17.085938 6.894531 16.082031 6.894531 16.082031 L 6.46875 15.871094 L 6.472656 15.925781 C 6.472656 15.925781 6.484375 16.125 6.484375 16.125 C 6.484375 16.121094 6.367188 16.351562 6.367188 16.351562 C 6.367188 16.351562 6.296875 16.5 6.289062 16.519531 C 6.265625 16.527344 6.082031 16.597656 6.082031 16.597656 C 6.082031 16.597656 6.140625 16.820312 6.140625 16.820312 C 6.136719 16.820312 5.988281 17.121094 5.988281 17.121094 C 5.988281 17.121094 5.902344 17.296875 5.898438 17.296875 C 5.898438 17.296875 5.761719 17.394531 5.761719 17.394531 L 5.722656 17.425781 L 6.210938 17.664062 C 6.210938 17.664062 6.179688 17.417969 6.179688 17.417969 C 6.183594 17.417969 6.488281 16.808594 6.597656 16.585938 C 6.625 16.75 6.839844 17.980469 6.839844 17.980469 L 7.039062 18.082031 C 7.039062 18.082031 7.363281 17.417969 7.363281 17.414062 C 7.367188 17.421875 7.53125 17.34375 7.53125 17.34375 L 7.554688 17.332031 C 7.554688 17.332031 7.503906 17.128906 7.503906 17.128906 C 7.511719 17.128906 7.636719 16.875 7.636719 16.875 C 7.636719 16.875 7.714844 16.710938 7.714844 16.707031 C 7.71875 16.707031 7.847656 16.605469 7.847656 16.605469 L 7.886719 16.578125 L 7.414062 16.339844 C 7.414062 16.339844 7.4375 16.582031 7.4375 16.582031 "/>
<path style=" stroke:none;fill-rule:nonzero;fill:rgb(100%,100%,100%);fill-opacity:1;" d="M 10.453125 17.9375 C 10.453125 17.9375 10.449219 18.089844 10.449219 18.089844 L 10.449219 18.386719 C 10.414062 18.398438 10.375 18.429688 10.253906 18.429688 C 9.957031 18.425781 9.78125 18.160156 9.742188 17.898438 C 9.742188 17.894531 9.875 17.765625 9.875 17.765625 L 9.894531 17.746094 C 9.894531 17.746094 9.773438 17.601562 9.757812 17.582031 C 9.757812 17.574219 9.765625 17.53125 9.765625 17.53125 C 9.828125 17.320312 9.992188 17.09375 10.273438 17.101562 C 10.476562 17.105469 10.628906 17.15625 10.699219 17.238281 C 10.699219 17.238281 10.722656 17.269531 10.722656 17.269531 L 10.777344 17.335938 L 10.785156 17.015625 L 10.765625 17 C 10.621094 16.902344 10.496094 16.867188 10.273438 16.867188 C 9.84375 16.863281 9.457031 17.125 9.324219 17.503906 C 9.324219 17.503906 9.304688 17.582031 9.304688 17.585938 C 9.300781 17.582031 9.179688 17.707031 9.179688 17.707031 L 9.160156 17.726562 L 9.296875 17.90625 C 9.371094 18.335938 9.78125 18.660156 10.253906 18.664062 C 10.582031 18.664062 10.679688 18.617188 10.792969 18.5625 L 10.855469 18.53125 C 10.855469 18.53125 10.859375 17.929688 10.859375 17.925781 C 10.863281 17.925781 10.945312 17.78125 10.945312 17.78125 L 10.972656 17.734375 L 10.347656 17.730469 C 10.347656 17.730469 10.453125 17.933594 10.453125 17.9375 "/>
<path style=" stroke:none;fill-rule:nonzero;fill:rgb(100%,100%,100%);fill-opacity:1;" d="M 13.867188 17.476562 C 13.867188 17.476562 13.605469 17.589844 13.605469 17.589844 C 13.605469 17.589844 13.503906 17.632812 13.464844 17.652344 C 13.453125 17.621094 13.273438 17.1875 13.25 17.136719 C 13.296875 17.117188 13.53125 17.019531 13.53125 17.019531 C 13.53125 17.019531 13.703125 17.007812 13.703125 17.007812 L 13.746094 17.007812 L 13.59375 16.648438 C 13.59375 16.648438 13.433594 16.796875 13.433594 16.796875 C 13.433594 16.796875 13.160156 16.914062 13.160156 16.914062 C 13.160156 16.914062 13.15625 16.914062 13.15625 16.917969 C 13.136719 16.867188 12.996094 16.546875 12.976562 16.5 C 13.019531 16.484375 13.378906 16.328125 13.390625 16.324219 C 13.40625 16.324219 13.695312 16.339844 13.695312 16.339844 L 13.546875 15.992188 L 13.507812 16.007812 L 12.410156 16.484375 L 12.601562 16.625 C 12.601562 16.632812 12.78125 17.050781 12.796875 17.085938 C 12.785156 17.109375 12.703125 17.289062 12.703125 17.289062 C 12.703125 17.289062 12.894531 17.359375 12.917969 17.367188 C 12.925781 17.390625 13.113281 17.847656 13.113281 17.851562 C 13.113281 17.851562 13.097656 18.019531 13.097656 18.019531 L 13.09375 18.070312 L 14.21875 17.578125 L 14.070312 17.242188 C 14.070312 17.242188 13.867188 17.476562 13.867188 17.476562 "/>
<path style=" stroke:none;fill-rule:nonzero;fill:rgb(100%,100%,100%);fill-opacity:1;" d="M 16.085938 14.875 C 16.109375 14.808594 16.128906 14.738281 16.128906 14.675781 C 16.128906 14.542969 16.082031 14.425781 15.992188 14.351562 C 15.902344 14.273438 15.800781 14.246094 15.679688 14.261719 C 15.515625 14.289062 15.328125 14.40625 15.179688 14.582031 L 14.765625 15.070312 C 14.765625 15.070312 14.980469 15.132812 14.980469 15.132812 C 14.980469 15.136719 15.328125 15.441406 15.332031 15.445312 C 15.332031 15.445312 15.332031 15.449219 15.332031 15.457031 C 15.332031 15.496094 15.347656 15.640625 15.347656 15.640625 L 15.351562 15.671875 C 15.351562 15.671875 15.5625 15.652344 15.585938 15.648438 C 15.605469 15.664062 15.988281 15.996094 15.988281 15.996094 C 15.988281 16 16.054688 16.140625 16.054688 16.140625 L 16.078125 16.179688 L 16.460938 15.734375 C 16.460938 15.734375 16.246094 15.675781 16.246094 15.675781 C 16.246094 15.675781 15.921875 15.398438 15.832031 15.324219 C 15.847656 15.304688 15.890625 15.257812 15.902344 15.242188 C 15.9375 15.25 16.722656 15.429688 16.722656 15.429688 L 17.039062 15.070312 C 17.039062 15.070312 16.78125 15.050781 16.777344 15.050781 C 16.773438 15.050781 16.136719 14.886719 16.085938 14.875 M 15.800781 14.90625 C 15.800781 14.960938 15.78125 15.011719 15.742188 15.054688 C 15.742188 15.058594 15.675781 15.136719 15.644531 15.175781 C 15.605469 15.136719 15.300781 14.863281 15.261719 14.828125 C 15.289062 14.796875 15.347656 14.726562 15.347656 14.726562 C 15.398438 14.667969 15.453125 14.636719 15.507812 14.628906 C 15.570312 14.621094 15.636719 14.640625 15.695312 14.691406 C 15.761719 14.75 15.796875 14.824219 15.800781 14.898438 C 15.800781 14.902344 15.800781 14.902344 15.800781 14.90625 Z M 15.800781 14.90625 "/>
<path style=" stroke:none;fill-rule:nonzero;fill:rgb(100%,100%,100%);fill-opacity:1;" d="M 18.210938 12.199219 C 18.148438 12.058594 18.027344 11.953125 17.871094 11.90625 C 17.800781 11.886719 17.71875 11.890625 17.667969 11.902344 L 17.664062 11.902344 C 17.578125 11.929688 17.5 11.984375 17.46875 12.011719 C 17.46875 12.015625 17.363281 12.117188 17.363281 12.117188 C 17.359375 12.121094 17.324219 12.160156 17.3125 12.175781 C 17.292969 12.175781 17.160156 12.179688 17.160156 12.179688 C 17.160156 12.179688 17.109375 12.375 17.105469 12.386719 C 17.105469 12.386719 17.089844 12.402344 17.089844 12.402344 C 16.96875 12.53125 16.890625 12.53125 16.851562 12.519531 C 16.777344 12.488281 16.644531 12.371094 16.707031 12.195312 C 16.761719 12.050781 16.816406 11.976562 16.910156 11.921875 L 16.933594 11.910156 L 16.933594 11.875 L 16.867188 11.726562 L 16.828125 11.746094 C 16.710938 11.808594 16.609375 11.957031 16.539062 12.164062 C 16.445312 12.445312 16.503906 12.804688 16.789062 12.917969 C 16.835938 12.933594 16.902344 12.953125 16.964844 12.941406 C 17.046875 12.925781 17.128906 12.882812 17.199219 12.824219 C 17.203125 12.824219 17.25 12.78125 17.25 12.78125 C 17.246094 12.78125 17.265625 12.765625 17.269531 12.761719 C 17.269531 12.769531 17.398438 12.769531 17.398438 12.769531 L 17.421875 12.769531 C 17.421875 12.769531 17.488281 12.546875 17.488281 12.546875 C 17.488281 12.546875 17.640625 12.375 17.640625 12.375 C 17.699219 12.320312 17.78125 12.289062 17.832031 12.300781 C 17.921875 12.324219 17.984375 12.378906 18.019531 12.449219 C 18.066406 12.535156 18.070312 12.648438 18.035156 12.769531 C 17.960938 12.976562 17.816406 13.042969 17.707031 13.058594 L 17.667969 13.066406 L 17.664062 13.105469 L 17.726562 13.261719 L 17.757812 13.257812 C 17.886719 13.246094 18.109375 13.09375 18.207031 12.792969 C 18.28125 12.5625 18.28125 12.359375 18.210938 12.199219 "/>
<path style=" stroke:none;fill-rule:nonzero;fill:rgb(100%,100%,100%);fill-opacity:1;" d="M 4.785156 5.335938 C 4.785156 5.332031 4.382812 4.992188 4.378906 4.984375 C 4.378906 4.984375 4.378906 4.984375 4.378906 4.980469 C 4.378906 4.957031 4.351562 4.804688 4.351562 4.804688 L 4.34375 4.777344 C 4.34375 4.777344 4.164062 4.796875 4.140625 4.796875 C 4.125 4.78125 3.84375 4.546875 3.804688 4.515625 C 3.835938 4.476562 3.96875 4.3125 3.972656 4.308594 C 3.972656 4.3125 4.1875 4.214844 4.1875 4.214844 L 4.234375 4.195312 L 3.941406 3.964844 L 3.921875 3.988281 L 3.03125 5.054688 L 3.3125 5.289062 C 3.3125 5.289062 3.382812 5.015625 3.382812 5.015625 C 3.382812 5.015625 3.511719 4.863281 3.558594 4.808594 C 3.597656 4.84375 3.878906 5.074219 3.898438 5.089844 C 3.898438 5.109375 3.917969 5.296875 3.917969 5.296875 C 3.917969 5.296875 4.105469 5.285156 4.128906 5.285156 C 4.144531 5.300781 4.539062 5.632812 4.539062 5.632812 C 4.539062 5.636719 4.605469 5.785156 4.605469 5.785156 L 4.625 5.828125 L 5.007812 5.371094 C 5.007812 5.371094 4.789062 5.335938 4.785156 5.335938 "/>
<path style=" stroke:none;fill-rule:nonzero;fill:rgb(100%,100%,100%);fill-opacity:1;" d="M 6.066406 3.179688 C 6.054688 3.203125 5.988281 3.386719 5.988281 3.386719 C 5.988281 3.386719 6.179688 3.441406 6.203125 3.449219 C 6.214844 3.472656 6.441406 3.929688 6.441406 3.929688 C 6.4375 3.929688 6.4375 4.082031 6.4375 4.082031 L 6.4375 4.132812 L 7.5 3.574219 L 7.339844 3.25 C 7.339844 3.25 7.164062 3.488281 7.164062 3.488281 C 7.160156 3.484375 6.820312 3.664062 6.75 3.703125 C 6.726562 3.65625 6.515625 3.246094 6.492188 3.199219 C 6.539062 3.175781 6.78125 3.046875 6.785156 3.046875 C 6.785156 3.046875 6.933594 3.027344 6.933594 3.027344 L 6.976562 3.019531 L 6.820312 2.703125 C 6.820312 2.703125 6.679688 2.855469 6.679688 2.855469 C 6.679688 2.855469 6.457031 2.972656 6.390625 3.003906 C 6.367188 2.960938 6.203125 2.644531 6.179688 2.597656 C 6.230469 2.574219 6.609375 2.375 6.613281 2.375 C 6.613281 2.378906 6.84375 2.375 6.84375 2.375 L 6.894531 2.371094 L 6.71875 2.035156 L 6.691406 2.050781 L 5.640625 2.605469 L 5.832031 2.722656 C 5.832031 2.730469 6.035156 3.121094 6.066406 3.179688 "/>
<path style=" stroke:none;fill-rule:nonzero;fill:rgb(100%,100%,100%);fill-opacity:1;" d="M 12.652344 3.449219 C 12.667969 3.433594 12.824219 3.277344 12.847656 3.25 C 12.882812 3.269531 13.328125 3.476562 13.363281 3.492188 C 13.359375 3.53125 13.335938 3.742188 13.332031 3.765625 C 13.316406 3.777344 13.183594 3.890625 13.183594 3.890625 L 13.742188 4.148438 L 13.699219 3.917969 C 13.703125 3.917969 13.777344 3.382812 13.777344 3.375 C 13.78125 3.378906 13.933594 3.242188 13.933594 3.242188 L 13.953125 3.222656 C 13.953125 3.222656 13.800781 3.027344 13.800781 3.027344 C 13.808594 3.027344 13.839844 2.316406 13.839844 2.316406 L 13.839844 2.296875 L 13.621094 2.191406 L 13.605469 2.207031 C 13.605469 2.207031 13.070312 2.703125 13.066406 2.703125 C 13.066406 2.699219 12.863281 2.730469 12.863281 2.730469 L 12.835938 2.734375 C 12.835938 2.734375 12.839844 2.917969 12.839844 2.941406 C 12.820312 2.957031 12.414062 3.320312 12.414062 3.320312 C 12.417969 3.316406 12.269531 3.410156 12.269531 3.410156 L 12.222656 3.441406 L 12.648438 3.640625 C 12.644531 3.640625 12.652344 3.46875 12.652344 3.449219 M 13.027344 3.078125 C 13.078125 3.027344 13.355469 2.769531 13.445312 2.6875 C 13.429688 2.808594 13.386719 3.175781 13.378906 3.242188 C 13.324219 3.214844 13.089844 3.105469 13.027344 3.078125 Z M 13.027344 3.078125 "/>
<path style=" stroke:none;fill-rule:nonzero;fill:rgb(100%,100%,100%);fill-opacity:1;" d="M 15.585938 5.808594 C 15.71875 5.851562 15.859375 5.835938 15.992188 5.765625 C 16.054688 5.730469 16.109375 5.671875 16.132812 5.625 C 16.183594 5.542969 16.195312 5.445312 16.195312 5.414062 L 16.199219 5.265625 C 16.199219 5.261719 16.191406 5.203125 16.191406 5.183594 C 16.207031 5.167969 16.296875 5.074219 16.296875 5.074219 C 16.296875 5.074219 16.195312 4.902344 16.191406 4.898438 C 16.195312 4.894531 16.195312 4.890625 16.195312 4.886719 C 16.195312 4.878906 16.195312 4.855469 16.195312 4.851562 C 16.195312 4.71875 16.230469 4.628906 16.296875 4.597656 C 16.375 4.5625 16.558594 4.566406 16.636719 4.738281 C 16.703125 4.882812 16.71875 4.976562 16.6875 5.089844 L 16.679688 5.117188 L 16.835938 5.175781 L 16.84375 5.144531 C 16.898438 4.980469 16.8125 4.765625 16.757812 4.652344 C 16.628906 4.394531 16.34375 4.179688 16.066406 4.300781 C 16.023438 4.320312 15.960938 4.351562 15.925781 4.402344 C 15.882812 4.46875 15.851562 4.554688 15.84375 4.648438 L 15.839844 4.714844 C 15.839844 4.710938 15.835938 4.746094 15.835938 4.75 C 15.832031 4.746094 15.742188 4.832031 15.742188 4.832031 L 15.726562 4.847656 C 15.726562 4.847656 15.835938 5.046875 15.835938 5.046875 C 15.835938 5.046875 15.835938 5.050781 15.835938 5.054688 C 15.835938 5.09375 15.84375 5.28125 15.84375 5.28125 C 15.84375 5.367188 15.804688 5.453125 15.753906 5.484375 C 15.6875 5.527344 15.605469 5.539062 15.527344 5.519531 C 15.453125 5.5 15.34375 5.441406 15.257812 5.285156 C 15.160156 5.074219 15.21875 4.917969 15.289062 4.828125 L 15.308594 4.796875 L 15.148438 4.726562 L 15.132812 4.742188 C 15.039062 4.855469 15.011719 5.117188 15.144531 5.378906 C 15.257812 5.605469 15.410156 5.753906 15.585938 5.808594 "/>
<path style=" stroke:none;fill-rule:nonzero;fill:rgb(100%,100%,100%);fill-opacity:1;" d="M 9.585938 3 C 9.601562 2.980469 9.886719 2.613281 9.929688 2.554688 C 9.972656 2.613281 10.238281 3.011719 10.238281 3.011719 C 10.238281 3.011719 10.238281 3.011719 10.238281 3.015625 C 10.238281 3.035156 10.25 3.140625 10.25 3.140625 L 10.253906 3.167969 L 10.839844 3.167969 L 10.625 2.957031 C 10.625 2.957031 10.296875 2.46875 10.242188 2.386719 C 10.257812 2.363281 10.316406 2.269531 10.316406 2.269531 C 10.316406 2.269531 10.242188 2.183594 10.21875 2.160156 C 10.246094 2.121094 10.617188 1.625 10.617188 1.625 L 10.785156 1.429688 L 10.257812 1.429688 L 10.273438 1.472656 C 10.273438 1.472656 10.316406 1.570312 10.328125 1.59375 C 10.308594 1.621094 10.050781 1.964844 10.007812 2.019531 C 9.964844 1.960938 9.722656 1.585938 9.722656 1.585938 C 9.722656 1.585938 9.722656 1.582031 9.722656 1.582031 C 9.722656 1.5625 9.710938 1.457031 9.710938 1.457031 L 9.707031 1.429688 L 9.160156 1.429688 L 9.332031 1.628906 C 9.332031 1.628906 9.636719 2.09375 9.691406 2.175781 C 9.675781 2.199219 9.617188 2.296875 9.617188 2.296875 C 9.617188 2.296875 9.703125 2.378906 9.730469 2.40625 C 9.699219 2.445312 9.304688 2.96875 9.304688 2.96875 C 9.304688 2.96875 9.152344 3.113281 9.152344 3.113281 L 9.097656 3.164062 L 9.621094 3.160156 C 9.621094 3.160156 9.589844 3.023438 9.585938 3 "/>
<path style=" stroke:none;fill-rule:nonzero;fill:rgb(100%,100%,100%);fill-opacity:1;" d="M 17.40625 6.925781 L 17.632812 7.621094 L 18.367188 7.621094 L 17.773438 8.050781 L 18 8.746094 L 17.40625 8.316406 L 16.816406 8.746094 L 17.039062 8.050781 L 16.449219 7.621094 L 17.179688 7.621094 "/>
<path style=" stroke:none;fill-rule:nonzero;fill:rgb(100%,100%,100%);fill-opacity:1;" d="M 2.53125 6.925781 L 2.757812 7.621094 L 3.488281 7.621094 L 2.898438 8.050781 L 3.125 8.746094 L 2.53125 8.316406 L 1.9375 8.746094 L 2.164062 8.050781 L 1.574219 7.621094 L 2.304688 7.621094 "/>
<path style=" stroke:none;fill-rule:nonzero;fill:rgb(0%,27.843137%,51.764706%);fill-opacity:1;" d="M 15.8125 18.746094 L 15.613281 18.746094 L 15.613281 19.289062 L 15.476562 19.289062 L 15.476562 18.746094 L 15.277344 18.746094 L 15.277344 18.628906 L 15.8125 18.628906 M 16.71875 19.289062 L 16.582031 19.289062 L 16.582031 18.761719 L 16.578125 18.761719 L 16.386719 19.289062 L 16.257812 19.289062 L 16.074219 18.761719 L 16.070312 18.761719 L 16.070312 19.289062 L 15.933594 19.289062 L 15.933594 18.628906 L 16.167969 18.628906 L 16.320312 19.058594 L 16.324219 19.058594 L 16.484375 18.628906 L 16.71875 18.628906 Z M 16.71875 19.289062 "/>
<path style=" stroke:none;fill-rule:nonzero;fill:rgb(0%,27.843137%,51.764706%);fill-opacity:1;" d="M 9.578125 3.839844 C 9.578125 3.839844 9.488281 3.765625 9.425781 3.722656 C 9.378906 3.726562 9.332031 3.730469 9.285156 3.738281 C 9.328125 3.753906 9.484375 3.816406 9.503906 3.851562 "/>
<path style=" stroke:none;fill-rule:nonzero;fill:rgb(0%,27.843137%,51.764706%);fill-opacity:1;" d="M 9.289062 3.929688 C 9.289062 3.929688 9.191406 3.84375 9.050781 3.769531 C 8.996094 3.777344 8.941406 3.789062 8.886719 3.796875 C 8.988281 3.824219 9.085938 3.886719 9.1875 3.9375 "/>
<path style=" stroke:none;fill-rule:nonzero;fill:rgb(0%,27.843137%,51.764706%);fill-opacity:1;" d="M 8.738281 4.078125 L 8.90625 4.027344 C 8.90625 4.027344 8.6875 3.917969 8.609375 3.917969 C 8.566406 3.898438 8.546875 3.882812 8.515625 3.875 C 8.4375 3.894531 8.363281 3.914062 8.289062 3.9375 C 8.339844 3.941406 8.4375 3.964844 8.476562 4.003906 C 8.589844 3.984375 8.667969 4.042969 8.738281 4.078125 "/>
<path style=" stroke:none;fill-rule:nonzero;fill:rgb(0%,27.843137%,51.764706%);fill-opacity:1;" d="M 8.304688 4.273438 L 8.472656 4.214844 C 8.453125 4.183594 8.234375 4.089844 8.113281 4.085938 C 8.070312 4.050781 8.023438 4.042969 7.980469 4.03125 C 7.917969 4.054688 7.851562 4.078125 7.789062 4.101562 C 7.808594 4.105469 7.929688 4.132812 7.988281 4.183594 C 8.105469 4.164062 8.21875 4.222656 8.304688 4.273438 "/>
<path style=" stroke:none;fill-rule:nonzero;fill:rgb(0%,27.843137%,51.764706%);fill-opacity:1;" d="M 7.523438 4.347656 C 7.648438 4.335938 7.785156 4.410156 7.867188 4.464844 L 8.046875 4.417969 C 7.949219 4.332031 7.769531 4.261719 7.667969 4.265625 C 7.625 4.203125 7.535156 4.234375 7.476562 4.230469 L 7.253906 4.328125 C 7.285156 4.328125 7.5 4.292969 7.523438 4.347656 "/>
<path style=" stroke:none;fill-rule:nonzero;fill:rgb(0%,27.843137%,51.764706%);fill-opacity:1;" d="M 7.433594 4.746094 L 7.59375 4.625 C 7.46875 4.558594 7.277344 4.523438 7.175781 4.527344 C 7.125 4.507812 7.128906 4.492188 7.074219 4.484375 L 6.855469 4.601562 C 6.882812 4.605469 7.066406 4.609375 7.089844 4.664062 C 7.214844 4.652344 7.355469 4.695312 7.433594 4.746094 "/>
<path style=" stroke:none;fill-rule:nonzero;fill:rgb(0%,27.843137%,51.764706%);fill-opacity:1;" d="M 6.515625 5.09375 C 6.664062 5.070312 6.878906 5.007812 7.089844 5.058594 L 7.25 4.917969 C 7.011719 4.875 6.757812 4.886719 6.628906 4.921875 C 6.597656 4.875 6.527344 4.824219 6.527344 4.824219 L 6.375 4.949219 C 6.449219 4.972656 6.472656 5.035156 6.515625 5.09375 "/>
<path style=" stroke:none;fill-rule:nonzero;fill:rgb(0%,27.843137%,51.764706%);fill-opacity:1;" d="M 6.09375 5.570312 C 6.214844 5.511719 6.484375 5.46875 6.753906 5.503906 L 6.894531 5.324219 C 6.484375 5.292969 6.3125 5.347656 6.1875 5.410156 C 6.140625 5.335938 6.078125 5.289062 6.078125 5.289062 L 5.953125 5.40625 C 6.027344 5.429688 6.050781 5.511719 6.09375 5.570312 "/>
<path style=" stroke:none;fill-rule:nonzero;fill:rgb(0%,27.843137%,51.764706%);fill-opacity:1;" d="M 5.8125 5.917969 C 5.769531 5.84375 5.691406 5.769531 5.691406 5.769531 L 5.59375 5.925781 C 5.683594 5.972656 5.675781 6.03125 5.71875 6.09375 C 5.84375 6.03125 6.09375 5.914062 6.363281 5.953125 L 6.503906 5.773438 C 6.078125 5.785156 5.84375 5.820312 5.8125 5.917969 "/>
<path style=" stroke:none;fill-rule:nonzero;fill:rgb(0%,27.843137%,51.764706%);fill-opacity:1;" d="M 5.511719 6.460938 C 5.46875 6.355469 5.355469 6.234375 5.355469 6.234375 L 5.28125 6.410156 C 5.347656 6.460938 5.386719 6.582031 5.433594 6.644531 C 5.554688 6.578125 5.710938 6.460938 5.984375 6.5 L 6.109375 6.289062 C 5.765625 6.289062 5.542969 6.359375 5.511719 6.460938 "/>
<path style=" stroke:none;fill-rule:nonzero;fill:rgb(0%,27.843137%,51.764706%);fill-opacity:1;" d="M 5.257812 6.980469 C 5.207031 6.847656 5.082031 6.730469 5.082031 6.730469 L 5.007812 6.925781 C 5.101562 6.976562 5.117188 7.097656 5.160156 7.15625 C 5.28125 7.09375 5.464844 6.980469 5.738281 7.019531 L 5.851562 6.8125 C 5.519531 6.8125 5.289062 6.882812 5.257812 6.980469 "/>
<path style=" stroke:none;fill-rule:nonzero;fill:rgb(0%,27.843137%,51.764706%);fill-opacity:1;" d="M 5.007812 7.609375 C 4.949219 7.488281 4.8125 7.335938 4.8125 7.335938 L 4.753906 7.539062 C 4.84375 7.589844 4.886719 7.710938 4.929688 7.773438 C 5.050781 7.710938 5.203125 7.609375 5.472656 7.648438 L 5.558594 7.453125 C 5.148438 7.476562 5.039062 7.511719 5.007812 7.609375 "/>
<path style=" stroke:none;fill-rule:nonzero;fill:rgb(0%,27.843137%,51.764706%);fill-opacity:1;" d="M 4.761719 8.171875 C 4.71875 8.097656 4.566406 7.914062 4.566406 7.914062 L 4.523438 8.117188 C 4.617188 8.167969 4.65625 8.289062 4.703125 8.347656 C 4.824219 8.289062 5.027344 8.175781 5.296875 8.210938 L 5.367188 8.007812 C 4.964844 8.03125 4.792969 8.070312 4.761719 8.171875 "/>
<path style=" stroke:none;fill-rule:nonzero;fill:rgb(0%,27.843137%,51.764706%);fill-opacity:1;" d="M 4.613281 8.851562 C 4.570312 8.777344 4.382812 8.515625 4.382812 8.515625 L 4.339844 8.734375 C 4.429688 8.816406 4.496094 8.972656 4.542969 9.035156 C 4.664062 8.972656 4.855469 8.800781 5.125 8.839844 L 5.167969 8.660156 C 4.773438 8.6875 4.710938 8.734375 4.613281 8.851562 "/>
<path style=" stroke:none;fill-rule:nonzero;fill:rgb(0%,27.843137%,51.764706%);fill-opacity:1;" d="M 4.449219 9.726562 C 4.5 9.625 4.699219 9.523438 4.972656 9.546875 L 5.007812 9.347656 C 4.683594 9.367188 4.539062 9.421875 4.496094 9.511719 C 4.449219 9.4375 4.207031 9.191406 4.207031 9.191406 L 4.175781 9.398438 C 4.335938 9.539062 4.402344 9.671875 4.449219 9.726562 "/>
<path style=" stroke:none;fill-rule:nonzero;fill:rgb(0%,27.843137%,51.764706%);fill-opacity:1;" d="M 4.355469 10.449219 C 4.367188 10.441406 4.378906 10.402344 4.40625 10.371094 C 4.457031 10.3125 4.59375 10.226562 4.894531 10.242188 L 4.914062 10.054688 C 4.566406 10.058594 4.453125 10.144531 4.425781 10.175781 C 4.398438 10.203125 4.386719 10.246094 4.378906 10.273438 C 4.328125 10.132812 4.097656 9.902344 4.097656 9.902344 L 4.085938 10.105469 C 4.164062 10.144531 4.3125 10.390625 4.355469 10.449219 "/>
<path style=" stroke:none;fill-rule:nonzero;fill:rgb(0%,27.843137%,51.764706%);fill-opacity:1;" d="M 4.851562 11.613281 L 4.847656 11.414062 C 4.585938 11.296875 4.453125 11.316406 4.355469 11.375 C 4.3125 11.296875 4.050781 11.203125 4.050781 11.203125 L 4.0625 11.402344 C 4.167969 11.425781 4.296875 11.492188 4.34375 11.554688 C 4.464844 11.492188 4.636719 11.496094 4.851562 11.613281 "/>
<path style=" stroke:none;fill-rule:nonzero;fill:rgb(0%,27.843137%,51.764706%);fill-opacity:1;" d="M 4.324219 11.023438 C 4.382812 10.925781 4.445312 10.878906 4.851562 10.964844 L 4.851562 10.769531 C 4.375 10.746094 4.382812 10.789062 4.367188 10.851562 C 4.324219 10.777344 4.050781 10.539062 4.050781 10.539062 L 4.054688 10.761719 C 4.144531 10.816406 4.285156 10.957031 4.324219 11.023438 "/>
<path style=" stroke:none;fill-rule:nonzero;fill:rgb(0%,27.843137%,51.764706%);fill-opacity:1;" d="M 4.386719 12.105469 C 4.410156 12.042969 4.488281 12.078125 4.585938 12.121094 C 4.675781 12.164062 4.738281 12.210938 4.839844 12.265625 L 4.835938 12.0625 C 4.613281 11.921875 4.398438 11.816406 4.367188 11.914062 C 4.324219 11.839844 4.097656 11.734375 4.097656 11.734375 L 4.148438 11.957031 C 4.265625 11.988281 4.34375 12.042969 4.386719 12.105469 "/>
<path style=" stroke:none;fill-rule:nonzero;fill:rgb(0%,27.843137%,51.764706%);fill-opacity:1;" d="M 4.441406 12.609375 C 4.542969 12.597656 4.636719 12.636719 4.859375 12.796875 L 4.84375 12.605469 C 4.617188 12.417969 4.503906 12.425781 4.421875 12.425781 C 4.378906 12.347656 4.199219 12.246094 4.199219 12.246094 L 4.226562 12.449219 C 4.320312 12.488281 4.394531 12.542969 4.441406 12.609375 "/>
<path style=" stroke:none;fill-rule:nonzero;fill:rgb(0%,27.843137%,51.764706%);fill-opacity:1;" d="M 13.742188 10.890625 C 13.671875 10.839844 13.550781 10.773438 13.324219 10.523438 L 13.160156 10.625 C 13.234375 10.683594 13.574219 11.074219 13.730469 11.015625 C 13.730469 11.015625 13.660156 11.503906 13.671875 11.753906 L 13.855469 11.636719 C 13.847656 11.503906 13.859375 10.945312 13.890625 10.816406 C 13.898438 10.808594 13.789062 10.921875 13.742188 10.890625 "/>
<path style=" stroke:none;fill-rule:nonzero;fill:rgb(0%,27.843137%,51.764706%);fill-opacity:1;" d="M 14.226562 10.558594 C 14.054688 10.308594 13.941406 10.195312 13.84375 10.128906 L 13.71875 10.21875 C 13.769531 10.234375 13.910156 10.371094 14.105469 10.664062 L 14.222656 10.566406 C 14.238281 10.890625 14.265625 11.195312 14.226562 11.34375 L 14.371094 11.234375 C 14.398438 10.996094 14.390625 10.722656 14.355469 10.472656 "/>
<path style=" stroke:none;fill-rule:nonzero;fill:rgb(0%,27.843137%,51.764706%);fill-opacity:1;" d="M 7.882812 15.394531 C 7.65625 15.453125 7.441406 15.351562 7.285156 15.304688 L 7.242188 15.4375 C 7.464844 15.550781 7.675781 15.535156 7.835938 15.5 C 7.925781 15.625 8 15.695312 8.199219 15.769531 L 8.269531 15.667969 C 8.058594 15.644531 7.976562 15.535156 7.882812 15.394531 "/>
<path style=" stroke:none;fill-rule:nonzero;fill:rgb(0%,27.843137%,51.764706%);fill-opacity:1;" d="M 8.042969 15.027344 C 7.816406 15.085938 7.574219 15.003906 7.414062 14.957031 L 7.347656 15.105469 C 7.585938 15.1875 7.808594 15.207031 7.972656 15.171875 C 8.054688 15.308594 8.144531 15.4375 8.339844 15.511719 L 8.414062 15.382812 C 8.25 15.316406 8.097656 15.226562 8.042969 15.027344 "/>
<path style=" stroke:none;fill-rule:nonzero;fill:rgb(0%,27.843137%,51.764706%);fill-opacity:1;" d="M 8.300781 14.546875 L 8.277344 14.585938 C 8.050781 14.644531 7.773438 14.59375 7.613281 14.546875 L 7.53125 14.6875 C 7.753906 14.757812 7.945312 14.769531 8.191406 14.742188 L 8.203125 14.71875 C 8.292969 14.882812 8.316406 14.980469 8.546875 15.113281 L 8.65625 14.984375 C 8.511719 14.925781 8.335938 14.695312 8.300781 14.546875 "/>
<path style=" stroke:none;fill-rule:nonzero;fill:rgb(0%,27.843137%,51.764706%);fill-opacity:1;" d="M 8.527344 14.253906 L 8.515625 14.269531 C 8.292969 14.3125 8.035156 14.199219 7.878906 14.152344 L 7.785156 14.289062 C 8.007812 14.402344 8.222656 14.414062 8.417969 14.414062 L 8.429688 14.394531 C 8.511719 14.574219 8.589844 14.761719 8.785156 14.835938 L 8.894531 14.703125 C 8.75 14.648438 8.5625 14.402344 8.527344 14.253906 "/>
<path style=" stroke:none;fill-rule:nonzero;fill:rgb(0%,27.843137%,51.764706%);fill-opacity:1;" d="M 8.109375 13.832031 C 8.128906 13.84375 8.152344 13.851562 8.175781 13.863281 L 8.175781 13.761719 "/>
<path style=" stroke:none;fill-rule:nonzero;fill:rgb(0%,27.843137%,51.764706%);fill-opacity:1;" d="M 11.886719 12.773438 C 11.769531 12.648438 11.773438 12.28125 11.785156 12.082031 L 11.730469 12.117188 C 11.507812 12.082031 11.269531 11.859375 11.160156 11.710938 L 11.144531 11.714844 C 11.144531 11.261719 11.144531 10.761719 11.144531 10.558594 C 11.144531 10.140625 11.722656 9.980469 11.722656 9.980469 C 11.722656 9.980469 11.566406 9.917969 11.417969 9.804688 L 11.179688 9.871094 C 11.175781 9.871094 10.667969 10.019531 10.667969 10.367188 L 10.667969 12.40625 C 10.667969 12.546875 10.722656 12.636719 11 12.636719 L 11.144531 12.636719 C 11.144531 12.625 11.144531 12.613281 11.144531 12.597656 C 11.144531 12.597656 11.144531 12.328125 11.144531 11.980469 C 11.289062 12.105469 11.441406 12.210938 11.554688 12.222656 L 11.605469 12.195312 C 11.609375 12.441406 11.585938 12.589844 11.644531 12.761719 L 11.523438 12.648438 L 11.523438 13.886719 L 8.1875 13.886719 L 8.710938 14.382812 L 8.9375 14.382812 C 8.972656 14.4375 9.011719 14.480469 9.058594 14.496094 L 9.167969 14.382812 L 11.929688 14.382812 L 11.929688 13.027344 L 11.726562 12.839844 "/>
<path style=" stroke:none;fill-rule:nonzero;fill:rgb(0%,27.843137%,51.764706%);fill-opacity:1;" d="M 12.542969 11.710938 L 12.488281 11.742188 C 12.269531 11.707031 12.027344 11.488281 11.917969 11.335938 L 11.710938 11.421875 C 11.898438 11.617188 12.148438 11.832031 12.316406 11.851562 L 12.363281 11.820312 C 12.367188 12.113281 12.328125 12.261719 12.441406 12.488281 L 12.644531 12.402344 C 12.527344 12.277344 12.53125 11.910156 12.542969 11.710938 "/>
<path style=" stroke:none;fill-rule:nonzero;fill:rgb(0%,27.843137%,51.764706%);fill-opacity:1;" d="M 13.320312 11.328125 L 13.3125 11.316406 C 13.238281 11.34375 13.144531 11.320312 13.0625 11.25 C 12.980469 11.179688 12.703125 10.851562 12.703125 10.851562 L 12.476562 10.976562 C 12.609375 11.113281 13.039062 11.453125 13.128906 11.457031 L 13.140625 11.445312 C 13.140625 11.734375 13.105469 11.882812 13.214844 12.105469 L 13.421875 12.019531 C 13.300781 11.894531 13.308594 11.527344 13.320312 11.328125 "/>
<path style=" stroke:none;fill-rule:nonzero;fill:rgb(0%,27.843137%,51.764706%);fill-opacity:1;" d="M 14.621094 10.246094 C 14.535156 10.097656 14.363281 9.902344 14.230469 9.8125 L 14.113281 9.914062 C 14.230469 9.984375 14.472656 10.210938 14.546875 10.386719 L 14.625 10.304688 C 14.648438 10.582031 14.648438 10.898438 14.613281 11.046875 L 14.757812 10.929688 C 14.785156 10.675781 14.769531 10.386719 14.722656 10.171875 "/>
<path style=" stroke:none;fill-rule:nonzero;fill:rgb(0%,27.843137%,51.764706%);fill-opacity:1;" d="M 14.984375 9.960938 C 15.019531 10.054688 15.046875 10.171875 15.019531 10.738281 L 15.160156 10.609375 C 15.164062 10.183594 15.140625 10.066406 15.09375 9.851562 "/>
<path style=" stroke:none;fill-rule:nonzero;fill:rgb(0%,27.843137%,51.764706%);fill-opacity:1;" d="M 15.328125 9.597656 C 15.394531 9.8125 15.433594 10.179688 15.398438 10.390625 L 15.523438 10.222656 C 15.546875 9.984375 15.472656 9.683594 15.425781 9.46875 "/>
<path style=" stroke:none;fill-rule:nonzero;fill:rgb(0%,27.843137%,51.764706%);fill-opacity:1;" d="M 15.597656 9.207031 L 15.546875 9.292969 C 15.6875 9.46875 15.742188 9.671875 15.757812 9.9375 L 15.855469 9.789062 C 15.851562 9.507812 15.667969 9.144531 15.597656 9.207031 "/>
<path style=" stroke:none;fill-rule:nonzero;fill:rgb(0%,27.843137%,51.764706%);fill-opacity:1;" d="M 15.769531 8.921875 L 15.742188 8.953125 L 15.761719 8.921875 C 15.6875 8.773438 15.597656 8.613281 15.457031 8.511719 L 15.378906 8.617188 C 15.496094 8.6875 15.617188 8.863281 15.691406 9.039062 L 15.730469 8.976562 C 15.792969 9.03125 15.910156 9.117188 15.984375 9.550781 L 16.042969 9.398438 C 15.976562 8.984375 15.785156 8.828125 15.769531 8.921875 "/>
<path style=" stroke:none;fill-rule:nonzero;fill:rgb(0%,27.843137%,51.764706%);fill-opacity:1;" d="M 15.925781 8.59375 L 15.914062 8.628906 C 15.839844 8.484375 15.792969 8.382812 15.628906 8.230469 L 15.570312 8.324219 C 15.726562 8.460938 15.792969 8.539062 15.867188 8.742188 L 15.902344 8.664062 L 15.898438 8.675781 C 15.984375 8.746094 16.085938 8.863281 16.144531 9.179688 L 16.1875 9 C 16.171875 8.769531 15.957031 8.515625 15.925781 8.59375 "/>
<path style=" stroke:none;fill-rule:nonzero;fill:rgb(0%,27.843137%,51.764706%);fill-opacity:1;" d="M 14.566406 9.480469 L 14.449219 9.585938 C 14.566406 9.65625 14.808594 9.882812 14.878906 10.058594 L 14.976562 9.953125 C 14.902344 9.804688 14.707031 9.578125 14.566406 9.480469 "/>
<path style=" stroke:none;fill-rule:nonzero;fill:rgb(0%,27.843137%,51.764706%);fill-opacity:1;" d="M 14.921875 9.144531 L 14.808594 9.234375 C 14.890625 9.289062 15.171875 9.523438 15.246094 9.703125 L 15.328125 9.585938 C 15.257812 9.433594 15.066406 9.246094 14.921875 9.144531 "/>
<path style=" stroke:none;fill-rule:nonzero;fill:rgb(0%,27.843137%,51.764706%);fill-opacity:1;" d="M 15.492188 9.363281 L 15.5625 9.257812 C 15.488281 9.109375 15.367188 8.921875 15.222656 8.820312 L 15.128906 8.925781 C 15.242188 8.996094 15.417969 9.1875 15.492188 9.363281 "/>
<path style=" stroke:none;fill-rule:nonzero;fill:rgb(0%,27.843137%,51.764706%);fill-opacity:1;" d="M 15.984375 8.410156 L 16.027344 8.320312 C 15.957031 8.167969 15.917969 8.128906 15.75 7.964844 L 15.71875 8.054688 C 15.835938 8.15625 15.914062 8.234375 15.984375 8.410156 "/>
<path style=" stroke:none;fill-rule:nonzero;fill:rgb(0%,27.843137%,51.764706%);fill-opacity:1;" d="M 16.019531 8.367188 C 16.070312 8.402344 16.121094 8.453125 16.171875 8.539062 C 16.15625 8.472656 16.140625 8.40625 16.121094 8.339844 L 16.0625 8.269531 "/>
<path style=" stroke:none;fill-rule:nonzero;fill:rgb(0%,27.843137%,51.764706%);fill-opacity:1;" d="M 15.960938 7.828125 C 15.9375 7.800781 15.902344 7.761719 15.855469 7.714844 L 15.832031 7.800781 C 15.917969 7.894531 16 7.992188 16.066406 8.144531 C 16.035156 8.039062 16 7.933594 15.960938 7.828125 "/>
<path style=" stroke:none;fill-rule:nonzero;fill:rgb(0%,27.843137%,51.764706%);fill-opacity:1;" d="M 12.257812 8.949219 L 12.761719 9.425781 L 13.585938 9.425781 L 13.585938 6.710938 L 13.128906 6.28125 L 13.128906 8.949219 "/>
<path style=" stroke:none;fill-rule:nonzero;fill:rgb(0%,27.843137%,51.764706%);fill-opacity:1;" d="M 10.667969 9.179688 C 10.667969 9.5 11.183594 9.707031 11.1875 9.710938 L 11.402344 9.792969 C 11.269531 9.691406 11.144531 9.546875 11.144531 9.371094 C 11.144531 8.984375 11.144531 7.636719 11.144531 7.636719 L 11.226562 7.640625 C 11.546875 7.667969 11.777344 7.753906 11.9375 7.875 C 11.671875 7.609375 11.246094 7.464844 10.667969 7.464844 C 10.667969 7.628906 10.667969 9.179688 10.667969 9.179688 "/>
<path style=" stroke:none;fill-rule:nonzero;fill:rgb(0%,27.843137%,51.764706%);fill-opacity:1;" d="M 9.019531 7.460938 C 7.957031 7.460938 7.523438 7.828125 7.523438 8.742188 L 7.523438 8.949219 L 6.472656 8.949219 L 6.953125 9.398438 L 7.949219 9.398438 L 7.949219 9.230469 C 7.949219 8.292969 8.042969 7.707031 9.03125 7.605469 C 9.03125 7.535156 9.03125 7.480469 9.03125 7.460938 C 9.027344 7.460938 9.019531 7.460938 9.019531 7.460938 "/>
<path style=" stroke:none;fill-rule:nonzero;fill:rgb(80.392157%,6.666667%,25.490196%);fill-opacity:1;" d="M 10.496094 12.40625 L 10.496094 10.367188 C 10.496094 10.046875 10.769531 9.867188 10.957031 9.78125 C 10.769531 9.675781 10.496094 9.476562 10.496094 9.179688 L 10.496094 7.285156 L 10.585938 7.289062 C 10.585938 7.289062 10.667969 7.292969 10.664062 7.292969 C 11.777344 7.292969 12.417969 7.796875 12.417969 8.679688 C 12.417969 8.679688 12.417969 8.730469 12.417969 8.777344 C 12.53125 8.777344 12.84375 8.777344 12.957031 8.777344 C 12.957031 8.625 12.957031 6.59375 12.957031 6.441406 C 12.792969 6.441406 6.800781 6.441406 6.636719 6.441406 C 6.636719 6.59375 6.636719 8.625 6.636719 8.777344 C 6.761719 8.777344 7.246094 8.777344 7.359375 8.777344 C 7.363281 8.730469 7.371094 8.683594 7.371094 8.683594 L 7.355469 8.730469 C 7.355469 7.734375 7.867188 7.289062 9.019531 7.289062 L 9.203125 7.289062 L 9.203125 9.179688 C 9.203125 9.503906 8.96875 9.6875 8.800781 9.785156 C 8.96875 9.871094 9.203125 10.042969 9.203125 10.367188 L 9.203125 12.390625 C 9.203125 12.652344 9.019531 12.808594 8.71875 12.808594 C 8.71875 12.808594 8.457031 12.808594 8.34375 12.808594 C 8.34375 12.941406 8.34375 13.585938 8.34375 13.71875 C 8.5 13.71875 11.195312 13.71875 11.355469 13.71875 C 11.355469 13.585938 11.355469 12.941406 11.355469 12.808594 C 11.242188 12.808594 11 12.808594 11 12.808594 C 10.664062 12.808594 10.496094 12.671875 10.496094 12.40625 "/>
</g>
</svg>
