<?xml version="1.0" encoding="UTF-8" standalone="no"?>
<!-- Created with Inkscape (http://www.inkscape.org/) -->

<svg
   xmlns:dc="http://purl.org/dc/elements/1.1/"
   xmlns:cc="http://creativecommons.org/ns#"
   xmlns:rdf="http://www.w3.org/1999/02/22-rdf-syntax-ns#"
   xmlns:svg="http://www.w3.org/2000/svg"
   xmlns="http://www.w3.org/2000/svg"
   xmlns:sodipodi="http://sodipodi.sourceforge.net/DTD/sodipodi-0.dtd"
   xmlns:inkscape="http://www.inkscape.org/namespaces/inkscape"
   version="1.0"
   width="202.46437"
   height="206.47188"
   id="svg3060"
   inkscape:version="0.48.4 r9939"
   sodipodi:docname="seattle-mariners.svg">
  <metadata
     id="metadata339">
    <rdf:RDF>
      <cc:Work
         rdf:about="">
        <dc:format>image/svg+xml</dc:format>
        <dc:type
           rdf:resource="http://purl.org/dc/dcmitype/StillImage" />
      </cc:Work>
    </rdf:RDF>
  </metadata>
  <sodipodi:namedview
     pagecolor="#ffffff"
     bordercolor="#666666"
     borderopacity="1"
     objecttolerance="10"
     gridtolerance="10"
     guidetolerance="10"
     inkscape:pageopacity="0"
     inkscape:pageshadow="2"
     inkscape:window-width="640"
     inkscape:window-height="480"
     id="namedview337"
     showgrid="false"
     inkscape:zoom="1.1430128"
     inkscape:cx="101.23219"
     inkscape:cy="103.23593"
     inkscape:window-x="65"
     inkscape:window-y="24"
     inkscape:window-maximized="0"
     inkscape:current-layer="svg3060" />
  <defs
     id="defs3062" />
  <g
     transform="translate(-273.76782,-429.12625)"
     id="layer1">
    <g
       transform="matrix(1.25,0,0,1.25,286.0365,441.38881)"
       id="g8"
       style="fill:#004565;fill-rule:evenodd;stroke:none">
      <path
         d="m 71.2627,145.373 c 39.1213,0 71.0793,-32.488 71.0793,-72.6865 C 142.342,32.4892 110.384,0 71.2627,0 31.958,0 0,32.4892 0,72.6865 0,112.885 31.958,145.373 71.2627,145.373 z"
         id="path10"
         inkscape:connector-curvature="0" />
    </g>
    <g
       transform="matrix(1.25,0,0,1.25,403.1255,583.64206)"
       id="g12"
       style="fill:#ffffff;fill-rule:evenodd;stroke:none">
      <path
         d="m 4.958,0 c 0,0 1.102,1.835 1.102,1.835 0,0 -2.571,1.652 -2.571,1.652 0,0 2.02,3.488 2.02,3.488 0,0 2.572,-1.468 2.572,-1.468 0,0 1.101,1.835 1.101,1.835 0,0 -2.755,1.469 -2.755,1.469 0,0 2.939,4.956 2.939,4.956 0,0 2.571,-1.469 2.571,-1.469 0,0 1.103,1.836 1.103,1.836 0,0 -4.959,2.936 -4.959,2.936 C 8.081,17.07 0,2.937 0,2.937 0,2.937 4.958,0 4.958,0 z"
         id="path14"
         inkscape:connector-curvature="0" />
    </g>
    <g
       transform="matrix(1.25,0,0,1.25,315.193,574.69331)"
       id="g16"
       style="fill:#ffffff;fill-rule:evenodd;stroke:none">
      <path
         d="m 15.7959,3.305 c 0,0 -9.918,13.032 -9.918,13.032 0,0 -1.8369,-2.02 -1.8369,-2.02 0,0 2.0205,-2.753 2.0205,-2.753 0,0 -1.6533,-1.652 -1.6533,-1.652 0,0 -2.5713,2.203 -2.5713,2.203 C 1.8369,12.115 0,10.096 0,10.096 0,10.096 12.4902,0 12.4902,0 c 0,0 3.3057,3.305 3.3057,3.305 z M 6.0615,8.444 c 0,0 1.4688,1.468 1.4688,1.468 0,0 4.5918,-5.873 4.5918,-5.873 0,0 -0.3672,-0.184 -0.3672,-0.184 0,0 -5.6934,4.589 -5.6934,4.589 z"
         id="path18"
         inkscape:connector-curvature="0" />
    </g>
    <g
       transform="matrix(1.25,0,0,1.25,429.7555,550.60206)"
       id="g20"
       style="fill:#ffffff;fill-rule:evenodd;stroke:none">
      <path
         d="m 7.347,1.653 c 0,0 -0.918,2.569 -0.918,2.569 0,0 -2.204,-0.918 -2.204,-0.918 -0.368,-0.183 -0.551,-0.183 -0.734,0 0,0 -0.552,1.469 -0.552,1.653 0,0.183 0.183,0.367 0.552,0.55 0,0 2.203,0.917 2.203,0.917 0.552,0.184 0.735,0.184 1.286,-0.182 0,0 1.837,-2.203 1.837,-2.203 0.918,-0.735 1.836,-1.101 2.755,-0.735 0,0 3.122,1.285 3.122,1.285 2.387,1.102 2.755,1.469 1.837,4.038 0,0 -0.551,1.469 -0.551,1.653 -1.103,2.569 -1.653,2.753 -4.041,1.651 0,0 -2.388,-0.918 -2.388,-0.918 0,0 1.102,-2.569 1.102,-2.569 0,0 2.572,1.101 2.572,1.101 0.367,0.184 0.734,0.184 0.734,-0.183 0.184,0 0.551,-1.469 0.551,-1.653 0,-0.183 -0.183,-0.183 -0.551,-0.367 0,0 -3.122,-1.284 -3.122,-1.284 -0.368,-0.184 -1.102,1.101 -1.653,1.651 0,0 -1.47,1.286 -1.47,1.286 C 6.796,9.729 5.877,9.545 4.959,9.178 4.959,9.178 2.755,8.26 2.755,8.26 0.368,7.159 0,6.608 1.103,4.039 c 0,0 0.551,-1.469 0.551,-1.652 C 2.572,0 3.306,0 5.694,0.918 c 0,0 1.653,0.735 1.653,0.735 z"
         id="path22"
         inkscape:connector-curvature="0" />
    </g>
    <g
       transform="matrix(1.25,0,0,1.25,363.86488,593.73706)"
       id="g24"
       style="fill:#ffffff;fill-rule:evenodd;stroke:none">
      <path
         d="m 4.5918,0.367 c 0,0 -1.8359,16.153 -1.8359,16.153 C 2.7559,16.52 0,16.153 0,16.153 0,16.153 1.8369,0 1.8369,0 c 0,0 2.7549,0.367 2.7549,0.367 z"
         id="path26"
         inkscape:connector-curvature="0" />
    </g>
    <g
       transform="matrix(1.25,0,0,1.25,299.35188,552.43831)"
       id="g28"
       style="fill:#ffffff;fill-rule:evenodd;stroke:none">
      <path
         d="m 15.7959,2.937 c 0,0 -6.0615,5.139 -6.0615,5.139 0,0 0,0.184 0,0.184 0,0 7.5303,-1.836 7.5303,-1.836 0,0 1.4697,3.304 1.4697,3.304 0,0 -14.3262,6.792 -14.3262,6.792 0,0 -1.1015,-2.203 -1.1015,-2.203 0,0 8.6318,-4.038 8.6318,-4.038 0,0 -0.1836,-0.367 -0.1836,-0.367 0,0 -9.1836,2.386 -9.1836,2.386 0,0 -0.7343,-1.285 -0.7343,-1.285 0,0 7.7138,-5.874 7.7138,-5.874 0,0 0,-0.184 0,-0.184 0,0 -8.4482,4.039 -8.4482,4.039 C 1.1026,8.994 0,6.791 0,6.791 0,6.791 14.3262,0 14.3262,0 c 0,0 1.4697,2.937 1.4697,2.937 z"
         id="path30"
         inkscape:connector-curvature="0" />
    </g>
    <g
       transform="matrix(1.25,0,0,1.25,337.234,586.85331)"
       id="g32"
       style="fill:#ffffff;fill-rule:evenodd;stroke:none">
      <path
         d="m 11.0195,2.02 c 2.3877,1.102 2.3877,2.02 1.4698,4.405 0,0 -0.919,1.835 -0.919,1.835 -0.5508,1.285 -1.1015,2.02 -2.2031,2.02 0.7344,0.734 0.5508,1.652 0,2.753 0,0 -2.2041,5.139 -2.2041,5.139 0,0 -2.5713,-1.285 -2.5713,-1.285 0,0 2.5713,-5.322 2.5713,-5.322 0.1836,-0.367 0.1836,-0.551 0,-0.734 0,-0.184 -1.6533,-0.918 -1.8369,-1.102 0,0 -2.7549,6.24 -2.7549,6.24 C 2.5713,15.969 0,14.685 0,14.685 0,14.685 6.7959,0 6.7959,0 c 0,0 4.2236,2.02 4.2236,2.02 z M 6.2441,7.526 c 0.1836,0.183 1.6534,0.918 1.837,0.918 0.3671,0 0.5507,-0.184 0.7343,-0.55 0,0 1.2862,-2.938 1.2862,-2.938 0.1836,-0.55 0.3672,-0.734 0,-0.916 C 9.918,3.855 8.4482,3.122 8.2647,3.122 c 0,0 -2.0206,4.404 -2.0206,4.404 z"
         id="path34"
         inkscape:connector-curvature="0" />
    </g>
    <g
       transform="matrix(1.25,0,0,1.25,382.46175,592.13081)"
       id="g36"
       style="fill:#ffffff;fill-rule:evenodd;stroke:none">
      <path
         d="m 2.387,0.918 c 0,0 4.041,7.525 4.041,7.525 0,0 -1.469,-8.076 -1.469,-8.076 0,0 2.205,-0.367 2.205,-0.367 0,0 3.122,15.97 3.122,15.97 0,0 -2.388,0.367 -2.388,0.367 0,0 -4.041,-7.526 -4.041,-7.526 0,0 1.653,8.077 1.653,8.077 0,0 -2.388,0.55 -2.388,0.55 C 3.122,17.438 0,1.469 0,1.469 c 0,0 2.387,-0.551 2.387,-0.551 z"
         id="path38"
         inkscape:connector-curvature="0" />
    </g>
    <g
       transform="matrix(1.25,0,0,1.25,417.588,569.64706)"
       id="g40"
       style="fill:#ffffff;fill-rule:evenodd;stroke:none">
      <path
         d="M 2.938,2.202 C 4.592,0.182 5.694,0 7.53,1.835 7.53,1.835 9,3.12 9,3.12 c 1.102,0.917 1.653,1.652 1.285,2.753 1.103,-0.551 1.653,-0.184 2.755,0.734 0,0 4.041,3.671 4.041,3.671 0,0 -1.837,2.02 -1.837,2.02 0,0 -4.407,-3.855 -4.407,-3.855 C 10.653,8.076 10.469,8.076 10.285,8.076 10.102,8.259 9,9.36 8.816,9.544 c 0,0 4.959,4.405 4.959,4.405 0,0 -1.653,2.203 -1.653,2.203 C 12.122,16.152 0,5.506 0,5.506 0,5.506 2.938,2.202 2.938,2.202 z M 6.98,8.076 C 7.163,7.892 8.266,6.607 8.266,6.607 8.448,6.24 8.266,6.056 7.897,5.689 7.897,5.689 5.694,3.671 5.694,3.671 5.143,3.304 4.959,3.12 4.592,3.304 c 0,0.182 -1.103,1.284 -1.286,1.468 0,0 3.674,3.304 3.674,3.304 z"
         id="path42"
         inkscape:connector-curvature="0" />
    </g>
    <g
       transform="matrix(1.25,0,0,1.25,371.21225,450.33768)"
       id="g44"
       style="fill:#ffffff;fill-rule:evenodd;stroke:none">
      <path
         d="m 6.9796,0 c 0,0 0,2.2022 0,2.2022 0,0 -2.2042,0 -2.2042,0 0,0 0,14.1338 0,14.1338 0,0 -2.7549,0 -2.7549,0 0,0 0.1836,-14.1338 0.1836,-14.1338 0,0 -2.2041,0 -2.2041,0 C 0,2.2022 0,0 0,0 0,0 6.9796,0 6.9796,0 z"
         id="path46"
         inkscape:connector-curvature="0" />
    </g>
    <g
       transform="matrix(1.25,0,0,1.25,300.04163,494.16093)"
       id="g48"
       style="fill:#ffffff;fill-rule:evenodd;stroke:none">
      <path
         d="m 7.7139,1.835 c 0,0 -1.1026,2.5703 -1.1026,2.5703 0,0 -2.2041,-0.918 -2.2041,-0.918 C 4.04,3.3038 3.8564,3.3038 3.6729,3.3038 c 0,0.1835 -0.5508,1.4677 -0.5508,1.4677 -0.1836,0.3672 0,0.5508 0.3672,0.7344 0,0 2.3877,1.1016 2.3877,1.1016 0.3671,0.1836 0.7343,-0.1836 1.2851,-0.5508 0,0 1.8369,-2.2022 1.8369,-2.2022 1.1026,-0.7343 1.8369,-0.5507 2.7559,-0.1836 0,0 3.1221,1.4678 3.1221,1.4678 2.3876,1.1016 2.7548,1.6524 1.6523,4.0381 0,0 -0.5508,1.4687 -0.7344,1.4687 -1.1025,2.5704 -1.6533,2.753 -4.04,1.6524 0,0 -2.7559,-1.1016 -2.7559,-1.1016 0,0 1.2862,-2.5693 1.2862,-2.5693 0,0 2.9384,1.2842 2.9384,1.2842 0.3672,0.1836 0.5508,0.1836 0.7344,-0.1836 0,0 0.5508,-1.4678 0.5508,-1.4678 0,-0.1836 -0.1826,-0.3672 -0.5508,-0.3672 0,0 -2.9385,-1.4687 -2.9385,-1.4687 -0.5508,-0.1836 -1.1015,0.7343 -1.6533,1.1015 0,0 -1.6523,1.1016 -1.6523,1.1016 -0.919,0.7344 -1.8369,0.917 -2.9395,0.5498 0,0 -2.0195,-0.917 -2.0195,-0.917 C 0.3672,7.1582 0,6.4239 1.1016,3.8545 1.2852,3.8545 1.8359,2.3858 1.8359,2.3858 2.9385,0 3.4893,0 5.877,1.1016 c 0,0 1.8369,0.7334 1.8369,0.7334 z"
         id="path50"
         inkscape:connector-curvature="0" />
    </g>
    <g
       transform="matrix(1.25,0,0,1.25,317.48913,470.06918)"
       id="g52"
       style="fill:#ffffff;fill-rule:evenodd;stroke:none">
      <path
         d="m 4.2246,0 c 0,0 1.4688,1.4688 1.4688,1.4688 0,0 -2.2032,2.2021 -2.2032,2.2021 0,0 2.7549,2.9365 2.7549,2.9365 0,0 2.2041,-2.0185 2.2041,-2.0185 0,0 1.4688,1.4687 1.4688,1.4687 0,0 -2.2041,2.2022 -2.2041,2.2022 0,0 3.8574,4.0381 3.8574,4.0381 0,0 2.2041,-2.2022 2.2041,-2.2022 0,0 1.4697,1.6524 1.4697,1.6524 0,0 -4.2246,4.0371 -4.2246,4.0371 C 11.0205,15.7852 0,4.0381 0,4.0381 0,4.0381 4.2246,0 4.2246,0 z"
         id="path54"
         inkscape:connector-curvature="0" />
    </g>
    <g
       transform="matrix(1.25,0,0,1.25,343.66225,454.69693)"
       id="g56"
       style="fill:#ffffff;fill-rule:evenodd;stroke:none">
      <path
         d="m 4.2246,0 c 0,0 7.7139,14.3173 7.7139,14.3173 0,0 -2.3877,1.1006 -2.3877,1.1006 0,0 -1.6534,-3.1201 -1.6534,-3.1201 0,0 -2.2041,0.918 -2.2041,0.918 0,0 0.919,3.3037 0.919,3.3037 0,0 -2.5713,1.1015 -2.5713,1.1015 C 4.041,17.621 0,1.6523 0,1.6523 0,1.6523 4.2246,0 4.2246,0 z m 0.918,11.1962 c 0,0 1.6533,-0.7343 1.6533,-0.7343 0,0 -3.3067,-6.6075 -3.3067,-6.6075 0,0 -0.3671,0.1836 -0.3671,0.1836 0,0 2.0205,7.1582 2.0205,7.1582 z"
         id="path58"
         inkscape:connector-curvature="0" />
    </g>
    <g
       transform="matrix(1.25,0,0,1.25,395.778,454.46743)"
       id="g60"
       style="fill:#ffffff;fill-rule:evenodd;stroke:none">
      <path
         d="m 10.285,2.5693 c 0,0 -0.734,2.0195 -0.734,2.0195 0,0 -1.837,-0.7343 -1.837,-0.7343 0,0 -5.143,13.0322 -5.143,13.0322 0,0 -2.571,-0.918 -2.571,-0.918 0,0 5.142,-13.2148 5.142,-13.2148 0,0 -2.02,-0.7354 -2.02,-0.7354 0,0 0.735,-2.0185 0.735,-2.0185 0,0 6.428,2.5693 6.428,2.5693 z"
         id="path62"
         inkscape:connector-curvature="0" />
    </g>
    <g
       transform="matrix(1.25,0,0,1.25,414.37425,470.06918)"
       id="g64"
       style="fill:#ffffff;fill-rule:evenodd;stroke:none">
      <path
         d="m 12.673,1.8359 c 0,0 -9.368,10.6455 -9.368,10.6455 0,0 2.204,2.0196 2.204,2.0196 0,0 -1.285,1.6513 -1.285,1.6513 0,0 -4.224,-4.038 -4.224,-4.038 C 0,12.1143 10.653,0 10.653,0 c 0,0 2.02,1.8359 2.02,1.8359 z"
         id="path66"
         inkscape:connector-curvature="0" />
    </g>
    <g
       transform="matrix(1.25,0,0,1.25,428.148,493.47256)"
       id="g68"
       style="fill:#ffffff;fill-rule:evenodd;stroke:none">
      <path
         d="m 16.898,5.1386 c 0,0 -1.836,0.918 -1.836,0.918 0,0 -1.47,-2.7529 -1.47,-2.7529 0,0 -3.673,1.8349 -3.673,1.8349 0,0 1.469,2.7539 1.469,2.7539 0,0 -1.837,1.1016 -1.837,1.1016 0,0 -1.469,-2.7539 -1.469,-2.7539 0,0 -4.959,2.5703 -4.959,2.5703 0,0 1.469,2.7529 1.469,2.7529 0,0 -2.02,0.918 -2.02,0.918 C 2.572,12.4814 0,7.1582 0,7.1582 0,7.1582 14.326,0 14.326,0 c 0,0 2.572,5.1386 2.572,5.1386 z"
         id="path70"
         inkscape:connector-curvature="0" />
    </g>
    <g
       transform="matrix(1.25,0,0,1.25,322.08138,478.10018)"
       id="g72"
       style="fill:#ffffff;fill-rule:evenodd;stroke:none">
      <path
         d="m 42.4268,86.6365 c 23.3265,0 42.2445,-19.273 42.2445,-43.3191 C 84.6713,19.4561 65.7533,0 42.4268,0 18.918,0 0,19.4561 0,43.3174 0,67.3635 18.918,86.6365 42.4268,86.6365 z"
         id="path74"
         inkscape:connector-curvature="0" />
    </g>
    <g
       transform="matrix(1.25,0,0,1.25,322.08138,478.10018)"
       id="g76"
       style="fill:none;stroke:#006f61;stroke-width:2.81994009;stroke-linecap:butt;stroke-linejoin:miter;stroke-dasharray:none">
      <path
         d="m 42.4268,86.6365 c 23.3265,0 42.2445,-19.273 42.2445,-43.3191 C 84.6713,19.4561 65.7533,0 42.4268,0 18.918,0 0,19.4561 0,43.3174 0,67.3635 18.918,86.6365 42.4268,86.6365 z"
         id="path78"
         inkscape:connector-curvature="0" />
    </g>
    <g
       transform="matrix(1.25,0,0,1.25,340.90713,492.55456)"
       id="g80"
       style="fill:#bcccd3;fill-rule:evenodd;stroke:none">
      <path
         d="M 7.1631,17.9883 C 5.5097,14.1338 0,0.1836 0.1836,0 c 0,0 13.959,7.5254 16.7138,9.3613 -3.3066,0.917 -9,6.6074 -9.7343,8.627 z"
         id="path82"
         inkscape:connector-curvature="0" />
    </g>
    <g
       transform="matrix(1.25,0,0,1.25,340.90713,492.55456)"
       id="g84"
       style="fill:#006f61;fill-rule:evenodd;stroke:none">
      <path
         d="M 11.2041,13.0322 C 9.3672,15.0508 7.5303,17.0703 7.1631,17.9883 5.5097,14.1338 0,0.1836 0.1836,0 c 0,0 11.0205,13.0322 11.0205,13.0322 z"
         id="path86"
         inkscape:connector-curvature="0" />
    </g>
    <g
       transform="matrix(1.25,0,0,1.25,387.97175,492.78406)"
       id="g88"
       style="fill:#bcccd3;fill-rule:evenodd;stroke:none">
      <path
         d="M 9.734,17.9883 C 11.387,13.9502 16.897,0 16.714,0 16.714,0 2.756,7.5254 0,9.3613 c 3.306,0.7334 9,6.4238 9.734,8.627 z"
         id="path90"
         inkscape:connector-curvature="0" />
    </g>
    <g
       transform="matrix(1.25,0,0,1.25,388.20175,492.55456)"
       id="g92"
       style="fill:#006f61;fill-rule:evenodd;stroke:none">
      <path
         d="M 5.325,12.8486 C 3.306,11.1963 1.102,9.7285 0,9.5449 3.489,7.3418 16.53,0 16.53,0 16.53,0 5.325,12.8486 5.325,12.8486 z"
         id="path94"
         inkscape:connector-curvature="0" />
    </g>
    <g
       transform="matrix(1.25,0,0,1.25,340.90713,549.22581)"
       id="g96"
       style="fill:#bcccd3;fill-rule:evenodd;stroke:none">
      <path
         d="M 7.1631,0 C 5.5097,3.854 0,17.988 0.1836,18.172 c 0,0 13.959,-7.709 16.7138,-9.545 C 13.5908,7.709 7.8974,2.019 7.1631,0 z"
         id="path98"
         inkscape:connector-curvature="0" />
    </g>
    <g
       transform="matrix(1.25,0,0,1.25,340.90713,555.65081)"
       id="g100"
       style="fill:#006f61;fill-rule:evenodd;stroke:none">
      <path
         d="m 11.3877,0 c 2.2031,1.835 4.4072,3.303 5.5097,3.487 C 13.2236,5.69 0.1836,13.032 0,12.848 0,12.848 11.3877,0 11.3877,0 z"
         id="path102"
         inkscape:connector-curvature="0" />
    </g>
    <g
       transform="matrix(1.25,0,0,1.25,388.4305,549.22581)"
       id="g104"
       style="fill:#bcccd3;fill-rule:evenodd;stroke:none">
      <path
         d="m 9.551,0 c 1.653,3.854 6.796,18.172 6.612,18.355 0,0 -13.407,-7.892 -16.163,-9.728 C 3.123,7.709 8.816,2.019 9.551,0 z"
         id="path106"
         inkscape:connector-curvature="0" />
    </g>
    <g
       transform="matrix(1.25,0,0,1.25,395.31925,549.22581)"
       id="g108"
       style="fill:#006f61;fill-rule:evenodd;stroke:none">
      <path
         d="M 0,4.956 C 2.02,3.121 3.673,1.101 4.04,0 5.693,3.854 10.836,18.172 10.652,18.355 10.652,18.355 0,4.956 0,4.956 z"
         id="path110"
         inkscape:connector-curvature="0" />
    </g>
    <g
       transform="matrix(1.25,0,0,1.25,352.38663,510.68081)"
       id="g112"
       style="fill:#e63047;fill-rule:evenodd;stroke:none">
      <path
         d="M 2.2041,0.1826 C 2.2041,0.1826 1.8359,0 1.8359,0 1.8359,0 0,0.5498 0,0.5498 c 0,0 0.3672,0.3672 0.3672,0.3672 0,0 1.8369,-0.7344 1.8369,-0.7344 z"
         id="path114"
         inkscape:connector-curvature="0" />
    </g>
    <g
       transform="matrix(1.25,0,0,1.25,352.38663,510.68081)"
       id="g116"
       style="fill:none;stroke:#e63047;stroke-width:0.28263101;stroke-linecap:butt;stroke-linejoin:miter;stroke-dasharray:none">
      <path
         d="M 2.2041,0.1826 C 2.2041,0.1826 1.8359,0 1.8359,0 1.8359,0 0,0.5498 0,0.5498 c 0,0 0.3672,0.3672 0.3672,0.3672 0,0 1.8369,-0.7344 1.8369,-0.7344 z"
         id="path118"
         inkscape:connector-curvature="0" />
    </g>
    <g
       transform="matrix(1.25,0,0,1.25,355.14175,509.07431)"
       id="g120"
       style="fill:#e63047;fill-rule:evenodd;stroke:none">
      <path
         d="m 0.5508,0 c 0,0 0.3671,0.1836 0.3671,0.1836 0,0 -0.5507,1.6514 -0.5507,1.6514 C 0.3672,1.835 0,1.4678 0,1.4678 0,1.4678 0.5508,0 0.5508,0 z"
         id="path122"
         inkscape:connector-curvature="0" />
    </g>
    <g
       transform="matrix(1.25,0,0,1.25,355.14175,509.07431)"
       id="g124"
       style="fill:none;stroke:#e63047;stroke-width:0.28263101;stroke-linecap:butt;stroke-linejoin:miter;stroke-dasharray:none">
      <path
         d="m 0.5508,0 c 0,0 0.3671,0.1836 0.3671,0.1836 0,0 -0.5507,1.6514 -0.5507,1.6514 C 0.3672,1.835 0,1.4678 0,1.4678 0,1.4678 0.5508,0 0.5508,0 z"
         id="path126"
         inkscape:connector-curvature="0" />
    </g>
    <g
       transform="matrix(1.25,0,0,1.25,354.2225,512.05644)"
       id="g128"
       style="fill:#e63047;fill-rule:evenodd;stroke:none">
      <path
         d="M 2.3877,0.3672 C 2.3877,0.3672 1.8369,0 1.8369,0 1.8369,0 0,0.5508 0,0.5508 c 0,0 0.3672,0.3672 0.3672,0.3672 0,0 2.0205,-0.5508 2.0205,-0.5508 z"
         id="path130"
         inkscape:connector-curvature="0" />
    </g>
    <g
       transform="matrix(1.25,0,0,1.25,354.2225,512.05644)"
       id="g132"
       style="fill:none;stroke:#e63047;stroke-width:0.28263101;stroke-linecap:butt;stroke-linejoin:miter;stroke-dasharray:none">
      <path
         d="M 2.3877,0.3672 C 2.3877,0.3672 1.8369,0 1.8369,0 1.8369,0 0,0.5508 0,0.5508 c 0,0 0.3672,0.3672 0.3672,0.3672 0,0 2.0205,-0.5508 2.0205,-0.5508 z"
         id="path134"
         inkscape:connector-curvature="0" />
    </g>
    <g
       transform="matrix(1.25,0,0,1.25,357.20713,510.45006)"
       id="g136"
       style="fill:#e63047;fill-rule:evenodd;stroke:none">
      <path
         d="m 0.3682,0 c 0,0 0.5508,0.1846 0.5508,0.1846 0,0 -0.5508,1.6513 -0.5508,1.6513 C 0.3682,1.8359 0,1.6523 0,1.6523 0,1.6523 0.3682,0 0.3682,0 z"
         id="path138"
         inkscape:connector-curvature="0" />
    </g>
    <g
       transform="matrix(1.25,0,0,1.25,357.20713,510.45006)"
       id="g140"
       style="fill:none;stroke:#e63047;stroke-width:0.28263101;stroke-linecap:butt;stroke-linejoin:miter;stroke-dasharray:none">
      <path
         d="m 0.3682,0 c 0,0 0.5508,0.1846 0.5508,0.1846 0,0 -0.5508,1.6513 -0.5508,1.6513 C 0.3682,1.8359 0,1.6523 0,1.6523 0,1.6523 0.3682,0 0.3682,0 z"
         id="path142"
         inkscape:connector-curvature="0" />
    </g>
    <g
       transform="matrix(1.25,0,0,1.25,356.51863,513.43343)"
       id="g144"
       style="fill:#e63047;fill-rule:evenodd;stroke:none">
      <path
         d="M 2.3877,0.3672 C 2.3877,0.3672 1.837,0 1.837,0 1.837,0 0,0.7344 0,0.7344 c 0,0 0.5508,0.1836 0.5508,0.1836 0,0 1.8369,-0.5508 1.8369,-0.5508 z"
         id="path146"
         inkscape:connector-curvature="0" />
    </g>
    <g
       transform="matrix(1.25,0,0,1.25,356.51863,513.43343)"
       id="g148"
       style="fill:none;stroke:#e63047;stroke-width:0.28263101;stroke-linecap:butt;stroke-linejoin:miter;stroke-dasharray:none">
      <path
         d="M 2.3877,0.3672 C 2.3877,0.3672 1.837,0 1.837,0 1.837,0 0,0.7344 0,0.7344 c 0,0 0.5508,0.1836 0.5508,0.1836 0,0 1.8369,-0.5508 1.8369,-0.5508 z"
         id="path150"
         inkscape:connector-curvature="0" />
    </g>
    <g
       transform="matrix(1.25,0,0,1.25,359.50325,511.82706)"
       id="g152"
       style="fill:#e63047;fill-rule:evenodd;stroke:none">
      <path
         d="m 0.3672,0 c 0,0 0.5508,0.1835 0.5508,0.1835 0,0 -0.3672,1.6524 -0.3672,1.6524 C 0.5508,1.8359 0,1.6523 0,1.6523 0,1.6523 0.3672,0 0.3672,0 z"
         id="path154"
         inkscape:connector-curvature="0" />
    </g>
    <g
       transform="matrix(1.25,0,0,1.25,359.50325,511.82706)"
       id="g156"
       style="fill:none;stroke:#e63047;stroke-width:0.28263101;stroke-linecap:butt;stroke-linejoin:miter;stroke-dasharray:none">
      <path
         d="m 0.3672,0 c 0,0 0.5508,0.1835 0.5508,0.1835 0,0 -0.3672,1.6524 -0.3672,1.6524 C 0.5508,1.8359 0,1.6523 0,1.6523 0,1.6523 0.3672,0 0.3672,0 z"
         id="path158"
         inkscape:connector-curvature="0" />
    </g>
    <g
       transform="matrix(1.25,0,0,1.25,359.27375,514.81043)"
       id="g160"
       style="fill:#e63047;fill-rule:evenodd;stroke:none">
      <path
         d="M 2.3877,0.1836 C 2.3877,0.1836 1.837,0 1.837,0 1.837,0 0,0.7343 0,0.7343 c 0,0 0.5508,0.3663 0.5508,0.3663 0,0 1.8369,-0.917 1.8369,-0.917 z"
         id="path162"
         inkscape:connector-curvature="0" />
    </g>
    <g
       transform="matrix(1.25,0,0,1.25,359.27375,514.81043)"
       id="g164"
       style="fill:none;stroke:#e63047;stroke-width:0.28263101;stroke-linecap:butt;stroke-linejoin:miter;stroke-dasharray:none">
      <path
         d="M 2.3877,0.1836 C 2.3877,0.1836 1.837,0 1.837,0 1.837,0 0,0.7343 0,0.7343 c 0,0 0.5508,0.3663 0.5508,0.3663 0,0 1.8369,-0.917 1.8369,-0.917 z"
         id="path166"
         inkscape:connector-curvature="0" />
    </g>
    <g
       transform="matrix(1.25,0,0,1.25,362.25837,512.97443)"
       id="g168"
       style="fill:#e63047;fill-rule:evenodd;stroke:none">
      <path
         d="m 0.1836,0 c 0,0 0.5508,0.1836 0.5508,0.1836 0,0 -0.1836,1.836 -0.1836,1.836 C 0.5508,2.0196 0,1.6524 0,1.6524 0,1.6524 0.1836,0 0.1836,0 z"
         id="path170"
         inkscape:connector-curvature="0" />
    </g>
    <g
       transform="matrix(1.25,0,0,1.25,362.25837,512.97443)"
       id="g172"
       style="fill:none;stroke:#e63047;stroke-width:0.28263101;stroke-linecap:butt;stroke-linejoin:miter;stroke-dasharray:none">
      <path
         d="m 0.1836,0 c 0,0 0.5508,0.1836 0.5508,0.1836 0,0 -0.1836,1.836 -0.1836,1.836 C 0.5508,2.0196 0,1.6524 0,1.6524 0,1.6524 0.1836,0 0.1836,0 z"
         id="path174"
         inkscape:connector-curvature="0" />
    </g>
    <g
       transform="matrix(1.25,0,0,1.25,362.02887,515.95669)"
       id="g176"
       style="fill:#e63047;fill-rule:evenodd;stroke:none">
      <path
         d="M 2.3877,0.1836 C 2.3877,0.1836 1.6534,0 1.6534,0 1.6534,0 0,0.9179 0,0.9179 c 0,0 0.7344,0.1836 0.7344,0.1836 0,0 1.6533,-0.9179 1.6533,-0.9179 z"
         id="path178"
         inkscape:connector-curvature="0" />
    </g>
    <g
       transform="matrix(1.25,0,0,1.25,362.02887,515.95669)"
       id="g180"
       style="fill:none;stroke:#e63047;stroke-width:0.28263101;stroke-linecap:butt;stroke-linejoin:miter;stroke-dasharray:none">
      <path
         d="M 2.3877,0.1836 C 2.3877,0.1836 1.6534,0 1.6534,0 1.6534,0 0,0.918 0,0.918 c 0,0 0.7344,0.1835 0.7344,0.1835 0,0 1.6533,-0.9179 1.6533,-0.9179 z"
         id="path182"
         inkscape:connector-curvature="0" />
    </g>
    <g
       transform="matrix(1.25,0,0,1.25,364.784,513.89244)"
       id="g184"
       style="fill:#e63047;fill-rule:evenodd;stroke:none">
      <path
         d="m 0,0 c 0,0 0.5508,0.1836 0.5508,0.1836 0,0 0.1836,1.835 0.1836,1.835 0,0 -0.5508,-0.1836 -0.5508,-0.1836 C 0.1836,1.835 0,0 0,0 z"
         id="path186"
         inkscape:connector-curvature="0" />
    </g>
    <g
       transform="matrix(1.25,0,0,1.25,364.784,513.89244)"
       id="g188"
       style="fill:none;stroke:#e63047;stroke-width:0.28263101;stroke-linecap:butt;stroke-linejoin:miter;stroke-dasharray:none">
      <path
         d="m 0,0 c 0,0 0.5508,0.1836 0.5508,0.1836 0,0 0.1836,1.835 0.1836,1.835 0,0 -0.5508,-0.1836 -0.5508,-0.1836 C 0.1836,1.835 0,0 0,0 z"
         id="path190"
         inkscape:connector-curvature="0" />
    </g>
    <g
       transform="matrix(1.25,0,0,1.25,365.4725,516.87456)"
       id="g192"
       style="fill:#e63047;fill-rule:evenodd;stroke:none">
      <path
         d="m 2.2041,0 c 0,0 -0.5508,0 -0.5508,0 C 1.6533,0 0,0.918 0,0.918 c 0,0 0.7344,0.1836 0.7344,0.1836 0,0 1.4697,-1.1016 1.4697,-1.1016 z"
         id="path194"
         inkscape:connector-curvature="0" />
    </g>
    <g
       transform="matrix(1.25,0,0,1.25,365.4725,516.87456)"
       id="g196"
       style="fill:none;stroke:#e63047;stroke-width:0.28263101;stroke-linecap:butt;stroke-linejoin:miter;stroke-dasharray:none">
      <path
         d="m 2.2041,0 c 0,0 -0.5508,0 -0.5508,0 C 1.6533,0 0,0.918 0,0.918 c 0,0 0.7344,0.1836 0.7344,0.1836 0,0 1.4697,-1.1016 1.4697,-1.1016 z"
         id="path198"
         inkscape:connector-curvature="0" />
    </g>
    <g
       transform="matrix(1.25,0,0,1.25,367.76863,514.81043)"
       id="g200"
       style="fill:#e63047;fill-rule:evenodd;stroke:none">
      <path
         d="m 0,0 c 0,0 0.7344,0.1836 0.7344,0.1836 0,0 0.3672,1.6513 0.3672,1.6513 0,0 -0.5508,-0.1836 -0.5508,-0.1836 C 0.5508,1.6513 0,0 0,0 z"
         id="path202"
         inkscape:connector-curvature="0" />
    </g>
    <g
       transform="matrix(1.25,0,0,1.25,367.76863,514.81043)"
       id="g204"
       style="fill:none;stroke:#e63047;stroke-width:0.28263101;stroke-linecap:butt;stroke-linejoin:miter;stroke-dasharray:none">
      <path
         d="m 0,0 c 0,0 0.7344,0.1836 0.7344,0.1836 0,0 0.3672,1.6514 0.3672,1.6514 0,0 -0.5508,-0.1837 -0.5508,-0.1837 C 0.5508,1.6513 0,0 0,0 z"
         id="path206"
         inkscape:connector-curvature="0" />
    </g>
    <g
       transform="matrix(1.25,0,0,1.25,368.91612,517.33356)"
       id="g208"
       style="fill:#e63047;fill-rule:evenodd;stroke:none">
      <path
         d="m 2.0205,0 c 0,0 -0.7344,0 -0.7344,0 C 1.2861,0 0,1.2852 0,1.2852 c 0,0 0.7354,0 0.7354,0 0,0 1.2851,-1.2852 1.2851,-1.2852 z"
         id="path210"
         inkscape:connector-curvature="0" />
    </g>
    <g
       transform="matrix(1.25,0,0,1.25,368.91612,517.33356)"
       id="g212"
       style="fill:none;stroke:#e63047;stroke-width:0.28263101;stroke-linecap:butt;stroke-linejoin:miter;stroke-dasharray:none">
      <path
         d="m 2.0205,0 c 0,0 -0.7344,0 -0.7344,0 C 1.2861,0 0,1.2852 0,1.2852 c 0,0 0.7354,0 0.7354,0 0,0 1.2851,-1.2852 1.2851,-1.2852 z"
         id="path214"
         inkscape:connector-curvature="0" />
    </g>
    <g
       transform="matrix(1.25,0,0,1.25,370.29313,515.26943)"
       id="g216"
       style="fill:#e63047;fill-rule:evenodd;stroke:none">
      <path
         d="m 0,0 c 0,0 0.7353,0.1836 0.7353,0.1836 0,0 0.7344,1.4677 0.7344,1.4677 0,0 -0.5508,0 -0.5508,0 C 0.9189,1.6513 0,0 0,0 z"
         id="path218"
         inkscape:connector-curvature="0" />
    </g>
    <g
       transform="matrix(1.25,0,0,1.25,370.29313,515.26943)"
       id="g220"
       style="fill:none;stroke:#e63047;stroke-width:0.28263101;stroke-linecap:butt;stroke-linejoin:miter;stroke-dasharray:none">
      <path
         d="m 0,0 c 0,0 0.7353,0.1836 0.7353,0.1836 0,0 0.7344,1.4677 0.7344,1.4677 0,0 -0.5508,0 -0.5508,0 C 0.9189,1.6513 0,0 0,0 z"
         id="path222"
         inkscape:connector-curvature="0" />
    </g>
    <g
       transform="matrix(1.25,0,0,1.25,372.13025,517.56306)"
       id="g224"
       style="fill:#e63047;fill-rule:evenodd;stroke:none">
      <path
         d="m 1.8369,0 c 0,0 -0.7344,0 -0.7344,0 C 1.1025,0 0,1.2852 0,1.2852 c 0,0 0.7353,0 0.7353,0 0,0 1.1016,-1.2852 1.1016,-1.2852 z"
         id="path226"
         inkscape:connector-curvature="0" />
    </g>
    <g
       transform="matrix(1.25,0,0,1.25,372.13025,517.56306)"
       id="g228"
       style="fill:none;stroke:#e63047;stroke-width:0.28263101;stroke-linecap:butt;stroke-linejoin:miter;stroke-dasharray:none">
      <path
         d="m 1.8369,0 c 0,0 -0.7344,0 -0.7344,0 C 1.1025,0 0,1.2852 0,1.2852 c 0,0 0.7353,0 0.7353,0 0,0 1.1016,-1.2852 1.1016,-1.2852 z"
         id="path230"
         inkscape:connector-curvature="0" />
    </g>
    <g
       transform="matrix(1.25,0,0,1.25,373.27775,515.72831)"
       id="g232"
       style="fill:#e63047;fill-rule:evenodd;stroke:none">
      <path
         d="m 0,0 c 0,0 0.7353,0 0.7353,0 0,0 0.918,1.4678 0.918,1.4678 0,0 -0.7344,0 -0.7344,0 C 0.9189,1.4678 0,0 0,0 z"
         id="path234"
         inkscape:connector-curvature="0" />
    </g>
    <g
       transform="matrix(1.25,0,0,1.25,373.27775,515.72831)"
       id="g236"
       style="fill:none;stroke:#e63047;stroke-width:0.28263101;stroke-linecap:butt;stroke-linejoin:miter;stroke-dasharray:none">
      <path
         d="m 0,0 c 0,0 0.7353,0 0.7353,0 0,0 0.918,1.4678 0.918,1.4678 0,0 -0.7344,0 -0.7344,0 C 0.9189,1.4678 0,0 0,0 z"
         id="path238"
         inkscape:connector-curvature="0" />
    </g>
    <g
       transform="matrix(1.25,0,0,1.25,375.80338,517.56306)"
       id="g240"
       style="fill:#e63047;fill-rule:evenodd;stroke:none">
      <path
         d="m 1.4697,0 c 0,0 -0.7344,0 -0.7344,0 C 0.7353,0 0,1.4688 0,1.4688 0,1.4688 0.7353,1.2852 0.7353,1.2852 0.7353,1.2852 1.4697,0 1.4697,0 z"
         id="path242"
         inkscape:connector-curvature="0" />
    </g>
    <g
       transform="matrix(1.25,0,0,1.25,375.80325,517.56306)"
       id="g244"
       style="fill:none;stroke:#e63047;stroke-width:0.28263101;stroke-linecap:butt;stroke-linejoin:miter;stroke-dasharray:none">
      <path
         d="m 1.4698,0 c 0,0 -0.7344,0 -0.7344,0 C 0.7354,0 0,1.4687 0,1.4687 0,1.4687 0.7354,1.2852 0.7354,1.2852 0.7354,1.2852 1.4698,0 1.4698,0 z"
         id="path246"
         inkscape:connector-curvature="0" />
    </g>
    <g
       transform="matrix(1.25,0,0,1.25,376.2635,515.72831)"
       id="g248"
       style="fill:#e63047;fill-rule:evenodd;stroke:none">
      <path
         d="m 0,0 c 0,0 0.5508,0 0.5508,0 0,0 1.2852,1.4678 1.2852,1.4678 0,0 -0.7344,0 -0.7344,0 C 1.1016,1.4678 0,0 0,0 z"
         id="path250"
         inkscape:connector-curvature="0" />
    </g>
    <g
       transform="matrix(1.25,0,0,1.25,376.2635,515.72831)"
       id="g252"
       style="fill:none;stroke:#e63047;stroke-width:0.28263101;stroke-linecap:butt;stroke-linejoin:miter;stroke-dasharray:none">
      <path
         d="m 0,0 c 0,0 0.5508,0 0.5508,0 0,0 1.2852,1.4678 1.2852,1.4678 0,0 -0.7344,0 -0.7344,0 C 1.1016,1.4678 0,0 0,0 z"
         id="path254"
         inkscape:connector-curvature="0" />
    </g>
    <g
       transform="matrix(1.25,0,0,1.25,379.70675,517.10406)"
       id="g256"
       style="fill:#e63047;fill-rule:evenodd;stroke:none">
      <path
         d="M 1.285,0 C 1.285,0 0.551,0 0.551,0 0.551,0 0,1.4688 0,1.4688 c 0,0 0.551,0 0.551,0 C 0.551,1.4688 1.285,0 1.285,0 z"
         id="path258"
         inkscape:connector-curvature="0" />
    </g>
    <g
       transform="matrix(1.25,0,0,1.25,379.70675,517.10418)"
       id="g260"
       style="fill:none;stroke:#e63047;stroke-width:0.28263101;stroke-linecap:butt;stroke-linejoin:miter;stroke-dasharray:none">
      <path
         d="M 1.285,0 C 1.285,0 0.551,0 0.551,0 0.551,0 0,1.4687 0,1.4687 c 0,0 0.551,0 0.551,0 C 0.551,1.4687 1.285,0 1.285,0 z"
         id="path262"
         inkscape:connector-curvature="0" />
    </g>
    <g
       transform="matrix(1.25,0,0,1.25,379.70675,515.26943)"
       id="g264"
       style="fill:#e63047;fill-rule:evenodd;stroke:none">
      <path
         d="m 0,0 c 0,0 0.551,0 0.551,0 0,0 1.285,1.2841 1.285,1.2841 0,0 -0.551,0.1836 -0.551,0.1836 C 1.285,1.4677 0,0 0,0 z"
         id="path266"
         inkscape:connector-curvature="0" />
    </g>
    <g
       transform="matrix(1.25,0,0,1.25,379.70675,515.26943)"
       id="g268"
       style="fill:none;stroke:#e63047;stroke-width:0.28263101;stroke-linecap:butt;stroke-linejoin:miter;stroke-dasharray:none">
      <path
         d="m 0,0 c 0,0 0.551,0 0.551,0 0,0 1.285,1.2841 1.285,1.2841 0,0 -0.551,0.1837 -0.551,0.1837 C 1.285,1.4678 0,0 0,0 z"
         id="path270"
         inkscape:connector-curvature="0" />
    </g>
    <g
       transform="matrix(1.25,0,0,1.25,383.1505,516.41569)"
       id="g272"
       style="fill:#e63047;fill-rule:evenodd;stroke:none">
      <path
         d="m 0.918,0 c 0,0 -0.734,0.1835 -0.734,0.1835 0,0 -0.184,1.4688 -0.184,1.4688 0,0 0.735,-0.1836 0.735,-0.1836 C 0.735,1.4687 0.918,0 0.918,0 z"
         id="path274"
         inkscape:connector-curvature="0" />
    </g>
    <g
       transform="matrix(1.25,0,0,1.25,383.1505,516.41569)"
       id="g276"
       style="fill:none;stroke:#e63047;stroke-width:0.28263101;stroke-linecap:butt;stroke-linejoin:miter;stroke-dasharray:none">
      <path
         d="m 0.918,0 c 0,0 -0.734,0.1835 -0.734,0.1835 0,0 -0.184,1.4688 -0.184,1.4688 0,0 0.735,-0.1836 0.735,-0.1836 C 0.735,1.4687 0.918,0 0.918,0 z"
         id="path278"
         inkscape:connector-curvature="0" />
    </g>
    <g
       transform="matrix(1.25,0,0,1.25,382.46175,514.58094)"
       id="g280"
       style="fill:#e63047;fill-rule:evenodd;stroke:none">
      <path
         d="M 0,0.1836 C 0,0.1836 0.551,0 0.551,0 c 0,0 1.654,1.2842 1.654,1.2842 0,0 -0.736,0.1836 -0.736,0.1836 C 1.469,1.4678 0,0.1836 0,0.1836 z"
         id="path282"
         inkscape:connector-curvature="0" />
    </g>
    <g
       transform="matrix(1.25,0,0,1.25,382.46175,514.58094)"
       id="g284"
       style="fill:none;stroke:#e63047;stroke-width:0.28263101;stroke-linecap:butt;stroke-linejoin:miter;stroke-dasharray:none">
      <path
         d="M 0,0.1836 C 0,0.1836 0.551,0 0.551,0 c 0,0 1.654,1.2842 1.654,1.2842 0,0 -0.736,0.1836 -0.736,0.1836 C 1.469,1.4678 0,0.1836 0,0.1836 z"
         id="path286"
         inkscape:connector-curvature="0" />
    </g>
    <g
       transform="matrix(1.25,0,0,1.25,386.36425,515.26943)"
       id="g288"
       style="fill:#e63047;fill-rule:evenodd;stroke:none">
      <path
         d="m 0.918,0 c 0,0 -0.55,0.1836 -0.55,0.1836 0,0 -0.368,1.4677 -0.368,1.4677 0,0 0.735,-0.1836 0.735,-0.1836 C 0.735,1.4677 0.918,0 0.918,0 z"
         id="path290"
         inkscape:connector-curvature="0" />
    </g>
    <g
       transform="matrix(1.25,0,0,1.25,386.36425,515.26943)"
       id="g292"
       style="fill:none;stroke:#e63047;stroke-width:0.28263101;stroke-linecap:butt;stroke-linejoin:miter;stroke-dasharray:none">
      <path
         d="m 0.918,0 c 0,0 -0.55,0.1836 -0.55,0.1836 0,0 -0.368,1.4677 -0.368,1.4677 0,0 0.735,-0.1835 0.735,-0.1835 C 0.735,1.4678 0.918,0 0.918,0 z"
         id="path294"
         inkscape:connector-curvature="0" />
    </g>
    <g
       transform="matrix(1.25,0,0,1.25,385.4455,513.66293)"
       id="g296"
       style="fill:#e63047;fill-rule:evenodd;stroke:none">
      <path
         d="M 0,0.1836 C 0,0.1836 0.552,0 0.552,0 c 0,0 1.653,1.1016 1.653,1.1016 0,0 -0.552,0.1836 -0.552,0.1836 C 1.653,1.2852 0,0.1836 0,0.1836 z"
         id="path298"
         inkscape:connector-curvature="0" />
    </g>
    <g
       transform="matrix(1.25,0,0,1.25,385.4455,513.66293)"
       id="g300"
       style="fill:none;stroke:#e63047;stroke-width:0.28263101;stroke-linecap:butt;stroke-linejoin:miter;stroke-dasharray:none">
      <path
         d="M 0,0.1836 C 0,0.1836 0.552,0 0.552,0 c 0,0 1.653,1.1016 1.653,1.1016 0,0 -0.552,0.1836 -0.552,0.1836 C 1.653,1.2852 0,0.1836 0,0.1836 z"
         id="path302"
         inkscape:connector-curvature="0" />
    </g>
    <g
       transform="matrix(1.25,0,0,1.25,389.1205,514.12194)"
       id="g304"
       style="fill:#e63047;fill-rule:evenodd;stroke:none">
      <path
         d="M 0.55,0 C 0.55,0 0,0.3672 0,0.3672 c 0,0 0,1.4678 0,1.4678 0,0 0.55,-0.3672 0.55,-0.3672 0,0 0,-1.4678 0,-1.4678 z"
         id="path306"
         inkscape:connector-curvature="0" />
    </g>
    <g
       transform="matrix(1.25,0,0,1.25,389.1205,514.12194)"
       id="g308"
       style="fill:none;stroke:#e63047;stroke-width:0.28263101;stroke-linecap:butt;stroke-linejoin:miter;stroke-dasharray:none">
      <path
         d="M 0.55,0 C 0.55,0 0,0.3672 0,0.3672 c 0,0 0,1.4678 0,1.4678 0,0 0.55,-0.3672 0.55,-0.3672 0,0 0,-1.4678 0,-1.4678 z"
         id="path310"
         inkscape:connector-curvature="0" />
    </g>
    <g
       transform="matrix(1.25,0,0,1.25,387.74175,512.51544)"
       id="g312"
       style="fill:#e63047;fill-rule:evenodd;stroke:none">
      <path
         d="M 0,0.3672 C 0,0.3672 0.368,0 0.368,0 c 0,0 1.836,1.1016 1.836,1.1016 0,0 -0.551,0.1836 -0.551,0.1836 0,0 -1.653,-0.918 -1.653,-0.918 z"
         id="path314"
         inkscape:connector-curvature="0" />
    </g>
    <g
       transform="matrix(1.25,0,0,1.25,387.74175,512.51544)"
       id="g316"
       style="fill:none;stroke:#e63047;stroke-width:0.28263101;stroke-linecap:butt;stroke-linejoin:miter;stroke-dasharray:none">
      <path
         d="M 0,0.3672 C 0,0.3672 0.368,0 0.368,0 c 0,0 1.836,1.1016 1.836,1.1016 0,0 -0.551,0.1836 -0.551,0.1836 0,0 -1.653,-0.918 -1.653,-0.918 z"
         id="path318"
         inkscape:connector-curvature="0" />
    </g>
    <g
       transform="matrix(1.25,0,0,1.25,391.41675,512.97443)"
       id="g320"
       style="fill:#e63047;fill-rule:evenodd;stroke:none">
      <path
         d="M 0.55,0 C 0.55,0 0,0.3672 0,0.3672 c 0,0 0.182,1.4688 0.182,1.4688 0,0 0.368,-0.3672 0.368,-0.3672 0,0 0,-1.4688 0,-1.4688 z"
         id="path322"
         inkscape:connector-curvature="0" />
    </g>
    <g
       transform="matrix(1.25,0,0,1.25,391.41675,512.97443)"
       id="g324"
       style="fill:none;stroke:#e63047;stroke-width:0.28263101;stroke-linecap:butt;stroke-linejoin:miter;stroke-dasharray:none">
      <path
         d="M 0.55,0 C 0.55,0 0,0.3672 0,0.3672 c 0,0 0.182,1.4688 0.182,1.4688 0,0 0.368,-0.3672 0.368,-0.3672 0,0 0,-1.4688 0,-1.4688 z"
         id="path326"
         inkscape:connector-curvature="0" />
    </g>
    <g
       transform="matrix(1.25,0,0,1.25,389.808,511.59756)"
       id="g328"
       style="fill:#e63047;fill-rule:evenodd;stroke:none">
      <path
         d="M 0,0.1836 C 0,0.1836 0.551,0 0.551,0 c 0,0 1.653,0.9179 1.653,0.9179 0,0 -0.367,0.1836 -0.367,0.1836 C 1.837,1.1015 0,0.1836 0,0.1836 z"
         id="path330"
         inkscape:connector-curvature="0" />
    </g>
    <g
       transform="matrix(1.25,0,0,1.25,389.808,511.59756)"
       id="g332"
       style="fill:none;stroke:#e63047;stroke-width:0.28263101;stroke-linecap:butt;stroke-linejoin:miter;stroke-dasharray:none">
      <path
         d="M 0,0.1836 C 0,0.1836 0.551,0 0.551,0 c 0,0 1.653,0.9179 1.653,0.9179 0,0 -0.367,0.1836 -0.367,0.1836 C 1.837,1.1015 0,0.1836 0,0.1836 z"
         id="path334"
         inkscape:connector-curvature="0" />
    </g>
    <g
       transform="matrix(1.25,0,0,1.25,393.48175,511.59756)"
       id="g336"
       style="fill:#e63047;fill-rule:evenodd;stroke:none">
      <path
         d="M 0.367,0 C 0.367,0 0,0.3671 0,0.3671 c 0,0 0.551,1.2852 0.551,1.2852 0,0 0.368,-0.3672 0.368,-0.3672 C 0.919,1.2851 0.367,0 0.367,0 z"
         id="path338"
         inkscape:connector-curvature="0" />
    </g>
    <g
       transform="matrix(1.25,0,0,1.25,393.48175,511.59756)"
       id="g340"
       style="fill:none;stroke:#e63047;stroke-width:0.28263101;stroke-linecap:butt;stroke-linejoin:miter;stroke-dasharray:none">
      <path
         d="M 0.367,0 C 0.367,0 0,0.3671 0,0.3671 c 0,0 0.551,1.2852 0.551,1.2852 0,0 0.368,-0.3672 0.368,-0.3672 C 0.919,1.2851 0.367,0 0.367,0 z"
         id="path342"
         inkscape:connector-curvature="0" />
    </g>
    <g
       transform="matrix(1.25,0,0,1.25,391.8755,510.22181)"
       id="g344"
       style="fill:#e63047;fill-rule:evenodd;stroke:none">
      <path
         d="M 0,0.3672 C 0,0.3672 0.367,0 0.367,0 c 0,0 1.837,0.7334 1.837,0.7334 0,0 -0.368,0.3672 -0.368,0.3672 C 1.836,1.1006 0,0.3672 0,0.3672 z"
         id="path346"
         inkscape:connector-curvature="0" />
    </g>
    <g
       transform="matrix(1.25,0,0,1.25,391.8755,510.22181)"
       id="g348"
       style="fill:none;stroke:#e63047;stroke-width:0.28263101;stroke-linecap:butt;stroke-linejoin:miter;stroke-dasharray:none">
      <path
         d="M 0,0.3672 C 0,0.3672 0.367,0 0.367,0 c 0,0 1.837,0.7333 1.837,0.7333 0,0 -0.368,0.3673 -0.368,0.3673 C 1.836,1.1006 0,0.3672 0,0.3672 z"
         id="path350"
         inkscape:connector-curvature="0" />
    </g>
    <g
       transform="matrix(1.25,0,0,1.25,395.31925,509.99231)"
       id="g352"
       style="fill:#e63047;fill-rule:evenodd;stroke:none">
      <path
         d="M 0.55,0 C 0.55,0 0,0.3662 0,0.3662 c 0,0 0.55,1.2851 0.55,1.2851 0,0 0.368,-0.3671 0.368,-0.3671 C 0.918,1.2842 0.55,0 0.55,0 z"
         id="path354"
         inkscape:connector-curvature="0" />
    </g>
    <g
       transform="matrix(1.25,0,0,1.25,395.31925,509.99231)"
       id="g356"
       style="fill:none;stroke:#e63047;stroke-width:0.28263101;stroke-linecap:butt;stroke-linejoin:miter;stroke-dasharray:none">
      <path
         d="M 0.55,0 C 0.55,0 0,0.3662 0,0.3662 c 0,0 0.55,1.2851 0.55,1.2851 0,0 0.368,-0.3671 0.368,-0.3671 C 0.918,1.2842 0.55,0 0.55,0 z"
         id="path358"
         inkscape:connector-curvature="0" />
    </g>
    <g
       transform="matrix(1.25,0,0,1.25,393.7105,508.61531)"
       id="g360"
       style="fill:#e63047;fill-rule:evenodd;stroke:none">
      <path
         d="M 0,0.3672 C 0,0.3672 0.368,0 0.368,0 c 0,0 0.735,0.3672 0.735,0.3672 0,0 0.551,0.5508 0.551,0.5508 0,0 0.183,0.1836 0.183,0.1836 C 1.837,1.1016 0,0.3672 0,0.3672 z"
         id="path362"
         inkscape:connector-curvature="0" />
    </g>
    <g
       transform="matrix(1.25,0,0,1.25,393.7105,508.61531)"
       id="g364"
       style="fill:none;stroke:#e63047;stroke-width:0.28263101;stroke-linecap:butt;stroke-linejoin:miter;stroke-dasharray:none">
      <path
         d="M 0,0.3672 C 0,0.3672 0.368,0 0.368,0 c 0,0 0.735,0.3672 0.735,0.3672 0,0 0.551,0.5508 0.551,0.5508 0,0 0.183,0.1836 0.183,0.1836 C 1.837,1.1016 0,0.3672 0,0.3672 z"
         id="path366"
         inkscape:connector-curvature="0" />
    </g>
    <g
       transform="matrix(1.25,0,0,1.25,395.08925,552.89706)"
       id="g368"
       style="fill:#e63047;fill-rule:evenodd;stroke:none">
      <path
         d="m 0,0.551 c 0,0 0.367,0.366 0.367,0.366 0,0 1.837,-0.549 1.837,-0.549 C 2.204,0.368 1.836,0 1.836,0 1.836,0 0,0.551 0,0.551 z"
         id="path370"
         inkscape:connector-curvature="0" />
    </g>
    <g
       transform="matrix(1.25,0,0,1.25,395.08925,552.89706)"
       id="g372"
       style="fill:none;stroke:#e63047;stroke-width:0.28263101;stroke-linecap:butt;stroke-linejoin:miter;stroke-dasharray:none">
      <path
         d="m 0,0.551 c 0,0 0.367,0.366 0.367,0.366 0,0 1.837,-0.549 1.837,-0.549 C 2.204,0.368 1.836,0 1.836,0 1.836,0 0,0.551 0,0.551 z"
         id="path374"
         inkscape:connector-curvature="0" />
    </g>
    <g
       transform="matrix(1.25,0,0,1.25,393.9405,553.12706)"
       id="g376"
       style="fill:#e63047;fill-rule:evenodd;stroke:none">
      <path
         d="M 0.368,2.019 C 0.368,2.019 0,1.651 0,1.651 0,1.651 0.552,0 0.552,0 c 0,0 0.367,0.367 0.367,0.367 0,0 -0.551,1.652 -0.551,1.652 z"
         id="path378"
         inkscape:connector-curvature="0" />
    </g>
    <g
       transform="matrix(1.25,0,0,1.25,393.9405,553.12706)"
       id="g380"
       style="fill:none;stroke:#e63047;stroke-width:0.28263101;stroke-linecap:butt;stroke-linejoin:miter;stroke-dasharray:none">
      <path
         d="M 0.368,2.019 C 0.368,2.019 0,1.651 0,1.651 0,1.651 0.552,0 0.552,0 c 0,0 0.367,0.367 0.367,0.367 0,0 -0.551,1.652 -0.551,1.652 z"
         id="path382"
         inkscape:connector-curvature="0" />
    </g>
    <g
       transform="matrix(1.25,0,0,1.25,393.023,551.52081)"
       id="g384"
       style="fill:#e63047;fill-rule:evenodd;stroke:none">
      <path
         d="m 0,0.551 c 0,0 0.55,0.183 0.55,0.183 0,0 1.837,-0.551 1.837,-0.551 C 2.387,0.183 2.02,0 2.02,0 2.02,0 0,0.551 0,0.551 z"
         id="path386"
         inkscape:connector-curvature="0" />
    </g>
    <g
       transform="matrix(1.25,0,0,1.25,393.023,551.52081)"
       id="g388"
       style="fill:none;stroke:#e63047;stroke-width:0.28263101;stroke-linecap:butt;stroke-linejoin:miter;stroke-dasharray:none">
      <path
         d="m 0,0.551 c 0,0 0.55,0.183 0.55,0.183 0,0 1.837,-0.551 1.837,-0.551 C 2.387,0.183 2.02,0 2.02,0 2.02,0 0,0.551 0,0.551 z"
         id="path390"
         inkscape:connector-curvature="0" />
    </g>
    <g
       transform="matrix(1.25,0,0,1.25,391.8755,551.74956)"
       id="g392"
       style="fill:#e63047;fill-rule:evenodd;stroke:none">
      <path
         d="M 0.55,2.02 C 0.55,2.02 0,1.652 0,1.652 0,1.652 0.55,0 0.55,0 c 0,0 0.368,0.368 0.368,0.368 0,0 -0.368,1.652 -0.368,1.652 z"
         id="path394"
         inkscape:connector-curvature="0" />
    </g>
    <g
       transform="matrix(1.25,0,0,1.25,391.8755,551.74956)"
       id="g396"
       style="fill:none;stroke:#e63047;stroke-width:0.28263101;stroke-linecap:butt;stroke-linejoin:miter;stroke-dasharray:none">
      <path
         d="M 0.55,2.02 C 0.55,2.02 0,1.652 0,1.652 0,1.652 0.55,0 0.55,0 c 0,0 0.368,0.368 0.368,0.368 0,0 -0.368,1.652 -0.368,1.652 z"
         id="path398"
         inkscape:connector-curvature="0" />
    </g>
    <g
       transform="matrix(1.25,0,0,1.25,390.72675,549.91456)"
       id="g400"
       style="fill:#e63047;fill-rule:evenodd;stroke:none">
      <path
         d="m 0,0.734 c 0,0 0.552,0.184 0.552,0.184 0,0 1.835,-0.735 1.835,-0.735 C 2.387,0.183 1.837,0 1.837,0 1.837,0 0,0.734 0,0.734 z"
         id="path402"
         inkscape:connector-curvature="0" />
    </g>
    <g
       transform="matrix(1.25,0,0,1.25,390.72675,549.91456)"
       id="g404"
       style="fill:none;stroke:#e63047;stroke-width:0.28263101;stroke-linecap:butt;stroke-linejoin:miter;stroke-dasharray:none">
      <path
         d="m 0,0.734 c 0,0 0.552,0.184 0.552,0.184 0,0 1.835,-0.735 1.835,-0.735 C 2.387,0.183 1.837,0 1.837,0 1.837,0 0,0.734 0,0.734 z"
         id="path406"
         inkscape:connector-curvature="0" />
    </g>
    <g
       transform="matrix(1.25,0,0,1.25,389.57925,550.37331)"
       id="g408"
       style="fill:#e63047;fill-rule:evenodd;stroke:none">
      <path
         d="M 0.551,2.019 C 0.551,2.019 0,1.836 0,1.836 0,1.836 0.367,0 0.367,0 c 0,0 0.551,0.367 0.551,0.367 0,0 -0.367,1.652 -0.367,1.652 z"
         id="path410"
         inkscape:connector-curvature="0" />
    </g>
    <g
       transform="matrix(1.25,0,0,1.25,389.57925,550.37331)"
       id="g412"
       style="fill:none;stroke:#e63047;stroke-width:0.28263101;stroke-linecap:butt;stroke-linejoin:miter;stroke-dasharray:none">
      <path
         d="M 0.551,2.019 C 0.551,2.019 0,1.836 0,1.836 0,1.836 0.367,0 0.367,0 c 0,0 0.551,0.367 0.551,0.367 0,0 -0.367,1.652 -0.367,1.652 z"
         id="path414"
         inkscape:connector-curvature="0" />
    </g>
    <g
       transform="matrix(1.25,0,0,1.25,387.97175,548.53706)"
       id="g416"
       style="fill:#e63047;fill-rule:evenodd;stroke:none">
      <path
         d="m 0,0.734 c 0,0 0.551,0.184 0.551,0.184 0,0 1.836,-0.734 1.836,-0.734 C 2.387,0.184 1.837,0 1.837,0 1.837,0 0,0.734 0,0.734 z"
         id="path418"
         inkscape:connector-curvature="0" />
    </g>
    <g
       transform="matrix(1.25,0,0,1.25,387.97175,548.53706)"
       id="g420"
       style="fill:none;stroke:#e63047;stroke-width:0.28263101;stroke-linecap:butt;stroke-linejoin:miter;stroke-dasharray:none">
      <path
         d="m 0,0.734 c 0,0 0.551,0.184 0.551,0.184 0,0 1.836,-0.734 1.836,-0.734 C 2.387,0.184 1.837,0 1.837,0 1.837,0 0,0.734 0,0.734 z"
         id="path422"
         inkscape:connector-curvature="0" />
    </g>
    <g
       transform="matrix(1.25,0,0,1.25,387.053,549.22581)"
       id="g424"
       style="fill:#e63047;fill-rule:evenodd;stroke:none">
      <path
         d="M 0.551,1.836 C 0.551,1.836 0,1.652 0,1.652 0,1.652 0.184,0 0.184,0 c 0,0 0.551,0.183 0.551,0.183 0,0 -0.184,1.653 -0.184,1.653 z"
         id="path426"
         inkscape:connector-curvature="0" />
    </g>
    <g
       transform="matrix(1.25,0,0,1.25,387.053,549.22581)"
       id="g428"
       style="fill:none;stroke:#e63047;stroke-width:0.28263101;stroke-linecap:butt;stroke-linejoin:miter;stroke-dasharray:none">
      <path
         d="M 0.551,1.836 C 0.551,1.836 0,1.652 0,1.652 0,1.652 0.184,0 0.184,0 c 0,0 0.551,0.183 0.551,0.183 0,0 -0.184,1.653 -0.184,1.653 z"
         id="path430"
         inkscape:connector-curvature="0" />
    </g>
    <g
       transform="matrix(1.25,0,0,1.25,385.218,547.16206)"
       id="g432"
       style="fill:#e63047;fill-rule:evenodd;stroke:none">
      <path
         d="m 0,1.1 c 0,0 0.734,0.184 0.734,0.184 0,0 1.653,-1.101 1.653,-1.101 C 2.387,0.183 1.652,0 1.652,0 1.652,0 0,1.1 0,1.1 z"
         id="path434"
         inkscape:connector-curvature="0" />
    </g>
    <g
       transform="matrix(1.25,0,0,1.25,385.218,547.16206)"
       id="g436"
       style="fill:none;stroke:#e63047;stroke-width:0.28263101;stroke-linecap:butt;stroke-linejoin:miter;stroke-dasharray:none">
      <path
         d="m 0,1.1 c 0,0 0.734,0.184 0.734,0.184 0,0 1.653,-1.101 1.653,-1.101 C 2.387,0.183 1.652,0 1.652,0 1.652,0 0,1.1 0,1.1 z"
         id="path438"
         inkscape:connector-curvature="0" />
    </g>
    <g
       transform="matrix(1.25,0,0,1.25,384.528,548.30956)"
       id="g440"
       style="fill:#e63047;fill-rule:evenodd;stroke:none">
      <path
         d="m 0.734,1.834 c 0,0 -0.551,-0.183 -0.551,-0.183 C 0.183,1.651 0,0 0,0 c 0,0 0.552,0.182 0.552,0.182 0,0 0.182,1.652 0.182,1.652 z"
         id="path442"
         inkscape:connector-curvature="0" />
    </g>
    <g
       transform="matrix(1.25,0,0,1.25,384.528,548.30956)"
       id="g444"
       style="fill:none;stroke:#e63047;stroke-width:0.28263101;stroke-linecap:butt;stroke-linejoin:miter;stroke-dasharray:none">
      <path
         d="m 0.734,1.834 c 0,0 -0.551,-0.183 -0.551,-0.183 C 0.183,1.651 0,0 0,0 c 0,0 0.552,0.182 0.552,0.182 0,0 0.182,1.652 0.182,1.652 z"
         id="path446"
         inkscape:connector-curvature="0" />
    </g>
    <g
       transform="matrix(1.25,0,0,1.25,382.00175,546.24331)"
       id="g448"
       style="fill:#e63047;fill-rule:evenodd;stroke:none">
      <path
         d="m 0,1.102 c 0,0 0.551,0.182 0.551,0.182 0,0 1.653,-1.1 1.653,-1.1 C 2.204,0.184 1.47,0 1.47,0 1.47,0 0,1.102 0,1.102 z"
         id="path450"
         inkscape:connector-curvature="0" />
    </g>
    <g
       transform="matrix(1.25,0,0,1.25,382.00175,546.24331)"
       id="g452"
       style="fill:none;stroke:#e63047;stroke-width:0.28263101;stroke-linecap:butt;stroke-linejoin:miter;stroke-dasharray:none">
      <path
         d="m 0,1.102 c 0,0 0.551,0.182 0.551,0.182 0,0 1.653,-1.1 1.653,-1.1 C 2.204,0.184 1.47,0 1.47,0 1.47,0 0,1.102 0,1.102 z"
         id="path454"
         inkscape:connector-curvature="0" />
    </g>
    <g
       transform="matrix(1.25,0,0,1.25,381.08425,547.39081)"
       id="g456"
       style="fill:#e63047;fill-rule:evenodd;stroke:none">
      <path
         d="m 1.102,1.835 c 0,0 -0.735,0 -0.735,0 C 0.367,1.835 0,0 0,0 c 0,0 0.551,0.184 0.551,0.184 0,0 0.551,1.651 0.551,1.651 z"
         id="path458"
         inkscape:connector-curvature="0" />
    </g>
    <g
       transform="matrix(1.25,0,0,1.25,381.08425,547.39081)"
       id="g460"
       style="fill:none;stroke:#e63047;stroke-width:0.28263101;stroke-linecap:butt;stroke-linejoin:miter;stroke-dasharray:none">
      <path
         d="m 1.102,1.835 c 0,0 -0.735,0 -0.735,0 C 0.367,1.835 0,0 0,0 c 0,0 0.551,0.184 0.551,0.184 0,0 0.551,1.651 0.551,1.651 z"
         id="path462"
         inkscape:connector-curvature="0" />
    </g>
    <g
       transform="matrix(1.25,0,0,1.25,378.788,545.55456)"
       id="g464"
       style="fill:#e63047;fill-rule:evenodd;stroke:none">
      <path
         d="m 0,1.286 c 0,0 0.735,0 0.735,0 C 0.735,1.286 1.837,0 1.837,0 1.837,0 1.286,0 1.286,0 1.286,0 0,1.286 0,1.286 z"
         id="path466"
         inkscape:connector-curvature="0" />
    </g>
    <g
       transform="matrix(1.25,0,0,1.25,378.788,545.55456)"
       id="g468"
       style="fill:none;stroke:#e63047;stroke-width:0.28263101;stroke-linecap:butt;stroke-linejoin:miter;stroke-dasharray:none">
      <path
         d="m 0,1.286 c 0,0 0.735,0 0.735,0 C 0.735,1.286 1.837,0 1.837,0 1.837,0 1.286,0 1.286,0 1.286,0 0,1.286 0,1.286 z"
         id="path470"
         inkscape:connector-curvature="0" />
    </g>
    <g
       transform="matrix(1.25,0,0,1.25,378.0995,547.16206)"
       id="g472"
       style="fill:#e63047;fill-rule:evenodd;stroke:none">
      <path
         d="m 1.4698,1.651 c 0,0 -0.7354,0 -0.7354,0 C 0.7344,1.651 0,0 0,0 c 0,0 0.5508,0 0.5508,0 0,0 0.919,1.651 0.919,1.651 z"
         id="path474"
         inkscape:connector-curvature="0" />
    </g>
    <g
       transform="matrix(1.25,0,0,1.25,378.0995,547.16206)"
       id="g476"
       style="fill:none;stroke:#e63047;stroke-width:0.28263101;stroke-linecap:butt;stroke-linejoin:miter;stroke-dasharray:none">
      <path
         d="m 1.4698,1.651 c 0,0 -0.7354,0 -0.7354,0 C 0.7344,1.651 0,0 0,0 c 0,0 0.5508,0 0.5508,0 0,0 0.919,1.651 0.919,1.651 z"
         id="path478"
         inkscape:connector-curvature="0" />
    </g>
    <g
       transform="matrix(1.25,0,0,1.25,375.80338,545.32581)"
       id="g480"
       style="fill:#e63047;fill-rule:evenodd;stroke:none">
      <path
         d="m 0,1.285 c 0,0 0.7353,0 0.7353,0 0,0 1.1016,-1.285 1.1016,-1.285 0,0 -0.7344,0 -0.7344,0 C 1.1025,0 0,1.285 0,1.285 z"
         id="path482"
         inkscape:connector-curvature="0" />
    </g>
    <g
       transform="matrix(1.25,0,0,1.25,375.80325,545.32581)"
       id="g484"
       style="fill:none;stroke:#e63047;stroke-width:0.28263101;stroke-linecap:butt;stroke-linejoin:miter;stroke-dasharray:none">
      <path
         d="m 0,1.285 c 0,0 0.7354,0 0.7354,0 C 0.7354,1.285 1.837,0 1.837,0 1.837,0 1.1026,0 1.1026,0 1.1026,0 0,1.285 0,1.285 z"
         id="path486"
         inkscape:connector-curvature="0" />
    </g>
    <g
       transform="matrix(1.25,0,0,1.25,374.88538,546.93206)"
       id="g488"
       style="fill:#e63047;fill-rule:evenodd;stroke:none">
      <path
         d="m 1.6533,1.651 c 0,0 -0.7344,0 -0.7344,0 C 0.9189,1.651 0,0 0,0 c 0,0 0.7344,0 0.7344,0 0,0 0.9189,1.651 0.9189,1.651 z"
         id="path490"
         inkscape:connector-curvature="0" />
    </g>
    <g
       transform="matrix(1.25,0,0,1.25,374.88538,546.93206)"
       id="g492"
       style="fill:none;stroke:#e63047;stroke-width:0.28263101;stroke-linecap:butt;stroke-linejoin:miter;stroke-dasharray:none">
      <path
         d="m 1.6533,1.651 c 0,0 -0.7343,0 -0.7343,0 C 0.919,1.651 0,0 0,0 c 0,0 0.7343,0 0.7343,0 0,0 0.919,1.651 0.919,1.651 z"
         id="path494"
         inkscape:connector-curvature="0" />
    </g>
    <g
       transform="matrix(1.25,0,0,1.25,372.58925,545.32581)"
       id="g496"
       style="fill:#e63047;fill-rule:evenodd;stroke:none">
      <path
         d="m 0,1.469 c 0,0 0.7353,-0.184 0.7353,-0.184 0,0 0.7344,-1.285 0.7344,-1.285 0,0 -0.7344,0 -0.7344,0 C 0.7353,0 0,1.469 0,1.469 z"
         id="path498"
         inkscape:connector-curvature="0" />
    </g>
    <g
       transform="matrix(1.25,0,0,1.25,372.58925,545.32581)"
       id="g500"
       style="fill:none;stroke:#e63047;stroke-width:0.28263101;stroke-linecap:butt;stroke-linejoin:miter;stroke-dasharray:none">
      <path
         d="m 0,1.469 c 0,0 0.7353,-0.184 0.7353,-0.184 0,0 0.7344,-1.285 0.7344,-1.285 0,0 -0.7344,0 -0.7344,0 C 0.7353,0 0,1.469 0,1.469 z"
         id="path502"
         inkscape:connector-curvature="0" />
    </g>
    <g
       transform="matrix(1.25,0,0,1.25,371.67125,546.93206)"
       id="g504"
       style="fill:#e63047;fill-rule:evenodd;stroke:none">
      <path
         d="m 1.8369,1.468 c 0,0 -0.5517,0.183 -0.5517,0.183 C 1.2852,1.651 0,0.184 0,0.184 0,0.184 0.7344,0 0.7344,0 c 0,0 1.1025,1.468 1.1025,1.468 z"
         id="path506"
         inkscape:connector-curvature="0" />
    </g>
    <g
       transform="matrix(1.25,0,0,1.25,371.67125,546.93206)"
       id="g508"
       style="fill:none;stroke:#e63047;stroke-width:0.28263101;stroke-linecap:butt;stroke-linejoin:miter;stroke-dasharray:none">
      <path
         d="m 1.8369,1.468 c 0,0 -0.5517,0.183 -0.5517,0.183 C 1.2852,1.651 0,0.184 0,0.184 0,0.184 0.7344,0 0.7344,0 c 0,0 1.1025,1.468 1.1025,1.468 z"
         id="path510"
         inkscape:connector-curvature="0" />
    </g>
    <g
       transform="matrix(1.25,0,0,1.25,368.91612,545.55456)"
       id="g512"
       style="fill:#e63047;fill-rule:evenodd;stroke:none">
      <path
         d="m 0,1.653 c 0,0 0.7354,-0.184 0.7354,-0.184 0,0 0.5507,-1.469 0.5507,-1.469 0,0 -0.5507,0.184 -0.5507,0.184 C 0.7354,0.184 0,1.653 0,1.653 z"
         id="path514"
         inkscape:connector-curvature="0" />
    </g>
    <g
       transform="matrix(1.25,0,0,1.25,368.91612,545.55456)"
       id="g516"
       style="fill:none;stroke:#e63047;stroke-width:0.28263101;stroke-linecap:butt;stroke-linejoin:miter;stroke-dasharray:none">
      <path
         d="m 0,1.653 c 0,0 0.7354,-0.184 0.7354,-0.184 0,0 0.5507,-1.469 0.5507,-1.469 0,0 -0.5507,0.184 -0.5507,0.184 C 0.7354,0.184 0,1.653 0,1.653 z"
         id="path518"
         inkscape:connector-curvature="0" />
    </g>
    <g
       transform="matrix(1.25,0,0,1.25,368.22763,547.62081)"
       id="g520"
       style="fill:#e63047;fill-rule:evenodd;stroke:none">
      <path
         d="m 1.8369,1.284 c 0,0 -0.5507,0.183 -0.5507,0.183 C 1.2862,1.467 0,0 0,0 c 0,0 0.5508,0 0.5508,0 0,0 1.2861,1.284 1.2861,1.284 z"
         id="path522"
         inkscape:connector-curvature="0" />
    </g>
    <g
       transform="matrix(1.25,0,0,1.25,368.22763,547.62081)"
       id="g524"
       style="fill:none;stroke:#e63047;stroke-width:0.28263101;stroke-linecap:butt;stroke-linejoin:miter;stroke-dasharray:none">
      <path
         d="m 1.8369,1.284 c 0,0 -0.5507,0.183 -0.5507,0.183 C 1.2862,1.467 0,0 0,0 c 0,0 0.5508,0 0.5508,0 0,0 1.2861,1.284 1.2861,1.284 z"
         id="path526"
         inkscape:connector-curvature="0" />
    </g>
    <g
       transform="matrix(1.25,0,0,1.25,365.9315,546.24331)"
       id="g528"
       style="fill:#e63047;fill-rule:evenodd;stroke:none">
      <path
         d="M 0,1.653 C 0,1.653 0.7344,1.469 0.7344,1.469 0.7344,1.469 0.918,0 0.918,0 0.918,0 0.1836,0.184 0.1836,0.184 0.1836,0.184 0,1.653 0,1.653 z"
         id="path530"
         inkscape:connector-curvature="0" />
    </g>
    <g
       transform="matrix(1.25,0,0,1.25,365.9315,546.24331)"
       id="g532"
       style="fill:none;stroke:#e63047;stroke-width:0.28263101;stroke-linecap:butt;stroke-linejoin:miter;stroke-dasharray:none">
      <path
         d="M 0,1.653 C 0,1.653 0.7344,1.469 0.7344,1.469 0.7344,1.469 0.918,0 0.918,0 0.918,0 0.1836,0.184 0.1836,0.184 0.1836,0.184 0,1.653 0,1.653 z"
         id="path534"
         inkscape:connector-curvature="0" />
    </g>
    <g
       transform="matrix(1.25,0,0,1.25,365.0135,548.30956)"
       id="g536"
       style="fill:#e63047;fill-rule:evenodd;stroke:none">
      <path
         d="m 2.2041,1.1 c 0,0 -0.5517,0.184 -0.5517,0.184 C 1.6524,1.284 0,0.182 0,0.182 0,0.182 0.7344,0 0.7344,0 c 0,0 1.4697,1.1 1.4697,1.1 z"
         id="path538"
         inkscape:connector-curvature="0" />
    </g>
    <g
       transform="matrix(1.25,0,0,1.25,365.0135,548.30956)"
       id="g540"
       style="fill:none;stroke:#e63047;stroke-width:0.28263101;stroke-linecap:butt;stroke-linejoin:miter;stroke-dasharray:none">
      <path
         d="m 2.2041,1.1 c 0,0 -0.5517,0.184 -0.5517,0.184 C 1.6524,1.284 0,0.182 0,0.182 0,0.182 0.7344,0 0.7344,0 c 0,0 1.4697,1.1 1.4697,1.1 z"
         id="path542"
         inkscape:connector-curvature="0" />
    </g>
    <g
       transform="matrix(1.25,0,0,1.25,362.71738,547.16206)"
       id="g544"
       style="fill:#e63047;fill-rule:evenodd;stroke:none">
      <path
         d="M 0,1.651 C 0,1.651 0.5508,1.467 0.5508,1.467 0.5508,1.467 0.918,0 0.918,0 0.918,0 0.1836,0.183 0.1836,0.183 0.1836,0.183 0,1.651 0,1.651 z"
         id="path546"
         inkscape:connector-curvature="0" />
    </g>
    <g
       transform="matrix(1.25,0,0,1.25,362.71738,547.16206)"
       id="g548"
       style="fill:none;stroke:#e63047;stroke-width:0.28263101;stroke-linecap:butt;stroke-linejoin:miter;stroke-dasharray:none">
      <path
         d="M 0,1.651 C 0,1.651 0.5508,1.467 0.5508,1.467 0.5508,1.467 0.918,0 0.918,0 0.918,0 0.1836,0.183 0.1836,0.183 0.1836,0.183 0,1.651 0,1.651 z"
         id="path550"
         inkscape:connector-curvature="0" />
    </g>
    <g
       transform="matrix(1.25,0,0,1.25,362.02887,549.22581)"
       id="g552"
       style="fill:#e63047;fill-rule:evenodd;stroke:none">
      <path
         d="m 2.2041,1.101 c 0,0 -0.5507,0.368 -0.5507,0.368 C 1.6534,1.469 0,0.367 0,0.367 0,0.367 0.5508,0 0.5508,0 c 0,0 1.6533,1.101 1.6533,1.101 z"
         id="path554"
         inkscape:connector-curvature="0" />
    </g>
    <g
       transform="matrix(1.25,0,0,1.25,362.02887,549.22581)"
       id="g556"
       style="fill:none;stroke:#e63047;stroke-width:0.28263101;stroke-linecap:butt;stroke-linejoin:miter;stroke-dasharray:none">
      <path
         d="m 2.2041,1.101 c 0,0 -0.5507,0.368 -0.5507,0.368 C 1.6534,1.469 0,0.367 0,0.367 0,0.367 0.5508,0 0.5508,0 c 0,0 1.6533,1.101 1.6533,1.101 z"
         id="path558"
         inkscape:connector-curvature="0" />
    </g>
    <g
       transform="matrix(1.25,0,0,1.25,360.42125,548.30956)"
       id="g560"
       style="fill:#e63047;fill-rule:evenodd;stroke:none">
      <path
         d="m 0,1.651 c 0,0 0.5518,-0.367 0.5518,-0.367 0,0 0,-1.284 0,-1.284 C 0.5518,0 0,0.182 0,0.182 c 0,0 0,1.469 0,1.469 z"
         id="path562"
         inkscape:connector-curvature="0" />
    </g>
    <g
       transform="matrix(1.25,0,0,1.25,360.42125,548.30956)"
       id="g564"
       style="fill:none;stroke:#e63047;stroke-width:0.28263101;stroke-linecap:butt;stroke-linejoin:miter;stroke-dasharray:none">
      <path
         d="m 0,1.651 c 0,0 0.5518,-0.367 0.5518,-0.367 0,0 0,-1.284 0,-1.284 C 0.5518,0 0,0.182 0,0.182 c 0,0 0,1.469 0,1.469 z"
         id="path566"
         inkscape:connector-curvature="0" />
    </g>
    <g
       transform="matrix(1.25,0,0,1.25,359.73275,550.37331)"
       id="g568"
       style="fill:#e63047;fill-rule:evenodd;stroke:none">
      <path
         d="m 2.2041,1.101 c 0,0 -0.3672,0.184 -0.3672,0.184 C 1.8369,1.285 0,0.183 0,0.183 0,0.183 0.5508,0 0.5508,0 c 0,0 1.6533,1.101 1.6533,1.101 z"
         id="path570"
         inkscape:connector-curvature="0" />
    </g>
    <g
       transform="matrix(1.25,0,0,1.25,359.73275,550.37331)"
       id="g572"
       style="fill:none;stroke:#e63047;stroke-width:0.28263101;stroke-linecap:butt;stroke-linejoin:miter;stroke-dasharray:none">
      <path
         d="m 2.2041,1.101 c 0,0 -0.3672,0.184 -0.3672,0.184 C 1.8369,1.285 0,0.183 0,0.183 0,0.183 0.5508,0 0.5508,0 c 0,0 1.6533,1.101 1.6533,1.101 z"
         id="path574"
         inkscape:connector-curvature="0" />
    </g>
    <g
       transform="matrix(1.25,0,0,1.25,358.12637,549.45456)"
       id="g576"
       style="fill:#e63047;fill-rule:evenodd;stroke:none">
      <path
         d="M 0,1.653 C 0,1.653 0.5508,1.469 0.5508,1.469 0.5508,1.469 0.3672,0 0.3672,0 0.3672,0 0,0.184 0,0.184 c 0,0 0,1.469 0,1.469 z"
         id="path578"
         inkscape:connector-curvature="0" />
    </g>
    <g
       transform="matrix(1.25,0,0,1.25,358.12637,549.45456)"
       id="g580"
       style="fill:none;stroke:#e63047;stroke-width:0.28263101;stroke-linecap:butt;stroke-linejoin:miter;stroke-dasharray:none">
      <path
         d="M 0,1.653 C 0,1.653 0.5508,1.469 0.5508,1.469 0.5508,1.469 0.3672,0 0.3672,0 0.3672,0 0,0.184 0,0.184 c 0,0 0,1.469 0,1.469 z"
         id="path582"
         inkscape:connector-curvature="0" />
    </g>
    <g
       transform="matrix(1.25,0,0,1.25,357.66738,551.52081)"
       id="g584"
       style="fill:#e63047;fill-rule:evenodd;stroke:none">
      <path
         d="m 2.2031,0.918 c 0,0 -0.5508,0.367 -0.5508,0.367 C 1.6523,1.285 0,0.367 0,0.367 0,0.367 0.3672,0 0.3672,0 c 0,0 1.8359,0.918 1.8359,0.918 z"
         id="path586"
         inkscape:connector-curvature="0" />
    </g>
    <g
       transform="matrix(1.25,0,0,1.25,357.66738,551.52081)"
       id="g588"
       style="fill:none;stroke:#e63047;stroke-width:0.28263101;stroke-linecap:butt;stroke-linejoin:miter;stroke-dasharray:none">
      <path
         d="m 2.2031,0.918 c 0,0 -0.5508,0.367 -0.5508,0.367 C 1.6523,1.285 0,0.367 0,0.367 0,0.367 0.3672,0 0.3672,0 c 0,0 1.8359,0.918 1.8359,0.918 z"
         id="path590"
         inkscape:connector-curvature="0" />
    </g>
    <g
       transform="matrix(1.25,0,0,1.25,355.60075,550.83206)"
       id="g592"
       style="fill:#e63047;fill-rule:evenodd;stroke:none">
      <path
         d="m 0.5507,1.652 c 0,0 0.3672,-0.183 0.3672,-0.183 C 0.9179,1.469 0.3672,0 0.3672,0 0.3672,0 0,0.367 0,0.367 c 0,0 0.5507,1.285 0.5507,1.285 z"
         id="path594"
         inkscape:connector-curvature="0" />
    </g>
    <g
       transform="matrix(1.25,0,0,1.25,355.60075,550.83206)"
       id="g596"
       style="fill:none;stroke:#e63047;stroke-width:0.28263101;stroke-linecap:butt;stroke-linejoin:miter;stroke-dasharray:none">
      <path
         d="m 0.5507,1.652 c 0,0 0.3672,-0.183 0.3672,-0.183 C 0.9179,1.469 0.3672,0 0.3672,0 0.3672,0 0,0.367 0,0.367 c 0,0 0.5507,1.285 0.5507,1.285 z"
         id="path598"
         inkscape:connector-curvature="0" />
    </g>
    <g
       transform="matrix(1.25,0,0,1.25,355.60075,553.12706)"
       id="g600"
       style="fill:#e63047;fill-rule:evenodd;stroke:none">
      <path
         d="m 2.2041,0.55 c 0,0 -0.3682,0.368 -0.3682,0.368 C 1.8359,0.918 0,0.184 0,0.184 0,0.184 0.3672,0 0.3672,0 c 0,0 1.8369,0.55 1.8369,0.55 z"
         id="path602"
         inkscape:connector-curvature="0" />
    </g>
    <g
       transform="matrix(1.25,0,0,1.25,355.60075,553.12706)"
       id="g604"
       style="fill:none;stroke:#e63047;stroke-width:0.28263101;stroke-linecap:butt;stroke-linejoin:miter;stroke-dasharray:none">
      <path
         d="m 2.2041,0.55 c 0,0 -0.3682,0.368 -0.3682,0.368 C 1.8359,0.918 0,0.184 0,0.184 0,0.184 0.3672,0 0.3672,0 c 0,0 1.8369,0.55 1.8369,0.55 z"
         id="path606"
         inkscape:connector-curvature="0" />
    </g>
    <g
       transform="matrix(1.25,0,0,1.25,353.7635,552.43831)"
       id="g608"
       style="fill:#e63047;fill-rule:evenodd;stroke:none">
      <path
         d="m 0.3672,1.652 c 0,0 0.5518,-0.368 0.5518,-0.368 C 0.919,1.284 0.3672,0 0.3672,0 0.3672,0 0,0.367 0,0.367 c 0,0 0.3672,1.285 0.3672,1.285 z"
         id="path610"
         inkscape:connector-curvature="0" />
    </g>
    <g
       transform="matrix(1.25,0,0,1.25,353.7635,552.43831)"
       id="g612"
       style="fill:none;stroke:#e63047;stroke-width:0.28263101;stroke-linecap:butt;stroke-linejoin:miter;stroke-dasharray:none">
      <path
         d="m 0.3672,1.652 c 0,0 0.5518,-0.368 0.5518,-0.368 C 0.919,1.284 0.3672,0 0.3672,0 0.3672,0 0,0.367 0,0.367 c 0,0 0.3672,1.285 0.3672,1.285 z"
         id="path614"
         inkscape:connector-curvature="0" />
    </g>
    <g
       transform="matrix(1.25,0,0,1.25,354.2225,554.50331)"
       id="g616"
       style="fill:#e63047;fill-rule:evenodd;stroke:none">
      <path
         d="m 1.8369,0.734 c 0,0 -0.3671,0.367 -0.3671,0.367 0,0 -0.7344,-0.367 -0.7344,-0.367 0,0 -0.5518,-0.367 -0.5518,-0.367 C 0.1836,0.367 0,0 0,0 0,0 1.8369,0.734 1.8369,0.734 z"
         id="path618"
         inkscape:connector-curvature="0" />
    </g>
    <g
       transform="matrix(1.25,0,0,1.25,354.2225,554.50331)"
       id="g620"
       style="fill:none;stroke:#e63047;stroke-width:0.28263101;stroke-linecap:butt;stroke-linejoin:miter;stroke-dasharray:none">
      <path
         d="m 1.8369,0.734 c 0,0 -0.3671,0.367 -0.3671,0.367 0,0 -0.7344,-0.367 -0.7344,-0.367 0,0 -0.5518,-0.367 -0.5518,-0.367 C 0.1836,0.367 0,0 0,0 0,0 1.8369,0.734 1.8369,0.734 z"
         id="path622"
         inkscape:connector-curvature="0" />
    </g>
    <g
       transform="matrix(1.25,0,0,1.25,344.80975,501.27281)"
       id="g624"
       style="fill:none;stroke:#006f61;stroke-width:1.09878004;stroke-linecap:butt;stroke-linejoin:miter;stroke-dasharray:none">
      <path
         d="M 24.2441,0 C 10.8369,0 0,11.1973 0,24.7793 c 0,13.7661 10.8369,24.7801 24.2441,24.7801 13.4085,0 24.2445,-11.014 24.2445,-24.7801 C 48.4886,11.1973 37.6526,0 24.2441,0 z"
         id="path626"
         inkscape:connector-curvature="0" />
    </g>
    <g
       transform="matrix(1.25,0,0,1.25,364.784,471.44618)"
       id="g628"
       style="fill:#bcccd3;fill-rule:evenodd;stroke:none">
      <path
         d="M 8.2647,48.6406 C 7.3467,48.0898 2.0206,42.584 0,40.5644 0.3672,36.3427 7.8975,0 8.2647,0 8.4483,0 15.9782,36.3427 16.3472,40.5644 14.5102,42.584 9,48.0898 8.2647,48.6406 z"
         id="path630"
         inkscape:connector-curvature="0" />
    </g>
    <g
       transform="matrix(1.25,0,0,1.25,364.784,471.44618)"
       id="g632"
       style="fill:#006f61;fill-rule:evenodd;stroke:none">
      <path
         d="M 8.2647,48.6406 C 7.3467,48.0898 2.0206,42.584 0,40.5644 0.3672,36.3427 7.8975,0 8.2647,0 c 0,0 0,48.6406 0,48.6406 z"
         id="path634"
         inkscape:connector-curvature="0" />
    </g>
    <g
       transform="matrix(1.25,0,0,1.25,364.784,532.24694)"
       id="g636"
       style="fill:#bcccd3;fill-rule:evenodd;stroke:none">
      <path
         d="M 8.2647,0 C 7.3467,0.7344 2.0206,6.0581 0,8.0761 c 0.3672,4.223 7.8975,40.565 8.2647,40.565 0.1836,0.184 7.7135,-36.342 8.0825,-40.565 C 14.5102,6.0581 9,0.7344 8.2647,0 z"
         id="path638"
         inkscape:connector-curvature="0" />
    </g>
    <g
       transform="matrix(1.25,0,0,1.25,375.11488,532.24694)"
       id="g640"
       style="fill:#006f61;fill-rule:evenodd;stroke:none">
      <path
         d="M 0,0 C 0.7353,0.7344 6.2455,6.0581 8.0825,8.0761 7.7135,12.2991 0.1836,48.6411 0,48.6411 0,48.6411 0,0 0,0 z"
         id="path642"
         inkscape:connector-curvature="0" />
    </g>
    <g
       transform="matrix(1.25,0,0,1.25,287.184,521.92219)"
       id="g644"
       style="fill:#bcccd3;fill-rule:evenodd;stroke:none">
      <path
         d="M 70.3447,8.2598 C 69.6103,8.9942 64.2841,14.6849 62.2636,16.5209 58.2226,16.1529 0.1836,8.4444 0.1836,8.2598 0,7.8936 58.2226,0.3672 62.2636,0 c 2.0205,1.836 7.3467,7.5264 8.0811,8.2598 z"
         id="path646"
         inkscape:connector-curvature="0" />
    </g>
    <g
       transform="matrix(1.25,0,0,1.25,287.4135,532.24694)"
       id="g648"
       style="fill:#006f61;fill-rule:evenodd;stroke:none">
      <path
         d="M 70.1611,0 C 69.4267,0.7344 64.1005,6.4251 62.08,8.2611 58.039,7.8931 0,0.1846 0,0 0,0 70.1611,0 70.1611,0 z"
         id="path650"
         inkscape:connector-curvature="0" />
    </g>
    <g
       transform="matrix(1.25,0,0,1.25,375.11488,521.92219)"
       id="g652"
       style="fill:#bcccd3;fill-rule:evenodd;stroke:none">
      <path
         d="m 0,8.2598 c 0.5508,0.7344 5.8775,6.4251 7.8975,8.2611 4.041,-0.368 62.447,-8.0765 62.447,-8.2611 C 70.5285,7.8936 11.9385,0.3672 7.8975,0 5.8775,1.836 0.5508,7.5264 0,8.2598 z"
         id="path654"
         inkscape:connector-curvature="0" />
    </g>
    <g
       transform="matrix(1.25,0,0,1.25,375.11488,521.92219)"
       id="g656"
       style="fill:#006f61;fill-rule:evenodd;stroke:none">
      <path
         d="M 0,8.2598 C 0.5508,7.5264 5.8775,1.836 7.8975,0 11.9385,0.3672 70.3445,7.8936 70.3445,8.0772 70.3445,8.0772 0,8.2598 0,8.2598 z"
         id="path658"
         inkscape:connector-curvature="0" />
    </g>
    <g
       transform="matrix(1.25,0,0,1.25,445.82675,616.91081)"
       id="g660"
       style="fill:#004565;fill-rule:evenodd;stroke:none">
      <path
         d="m 4.224,1.101 c 0,0 -1.653,0 -1.653,0 0,0 0,4.405 0,4.405 0,0 -1.101,0 -1.101,0 0,0 0,-4.405 0,-4.405 0,0 -1.47,0 -1.47,0 C 0,1.101 0,0 0,0 c 0,0 4.224,0 4.224,0 0,0 0,1.101 0,1.101 z m 7.164,4.405 c 0,0 -0.918,0 -0.918,0 0,0 0,-4.405 0,-4.405 0,0 -0.184,0 -0.184,0 0,0 -1.47,4.405 -1.47,4.405 0,0 -1.101,0 -1.101,0 0,0 -1.47,-4.405 -1.47,-4.405 0,0 0,4.405 0,4.405 0,0 -1.103,0 -1.103,0 0,0 0,-5.506 0,-5.506 0,0 1.837,0 1.837,0 0,0 1.286,3.671 1.286,3.671 0,0 1.286,-3.671 1.286,-3.671 0,0 1.837,0 1.837,0 0,0 0,5.506 0,5.506 z"
         id="path662"
         inkscape:connector-curvature="0" />
    </g>
    <g
       transform="matrix(1.25,0,0,1.25,276.85313,432.21156)"
       id="g664"
       style="fill:#ffffff;fill-rule:evenodd;stroke:none">
      <path
         d="m 78.6094,160.241 c 43.1626,0 78.4256,-35.977 78.4256,-80.2127 C 157.035,35.7929 121.772,0 78.6094,0 35.2637,0 0,35.7929 0,80.0283 0,124.264 35.2637,160.241 78.6094,160.241 z m 0,-7.527 c 39.1216,0 71.0796,-32.488 71.0796,-72.6857 0,-40.1973 -31.958,-72.6865 -71.0796,-72.6865 -39.3047,0 -71.2627,32.4892 -71.2627,72.6865 0,40.1977 31.958,72.6857 71.2627,72.6857 z"
         id="path666"
         inkscape:connector-curvature="0" />
    </g>
    <g
       transform="matrix(1.25,0,0,1.25,276.85313,432.21156)"
       id="g668"
       style="fill:none;stroke:#bcccd3;stroke-width:4.93650007;stroke-linecap:butt;stroke-linejoin:miter;stroke-dasharray:none">
      <path
         d="m 78.6094,160.241 c 43.1626,0 78.4256,-35.977 78.4256,-80.2127 C 157.035,35.7929 121.772,0 78.6094,0 35.2637,0 0,35.7929 0,80.0283 0,124.264 35.2637,160.241 78.6094,160.241 z m 0,-7.527 c 39.1216,0 71.0796,-32.488 71.0796,-72.6857 0,-40.1973 -31.958,-72.6865 -71.0796,-72.6865 -39.3047,0 -71.2627,32.4892 -71.2627,72.6865 0,40.1977 31.958,72.6857 71.2627,72.6857 z"
         id="path670"
         inkscape:connector-curvature="0" />
    </g>
  </g>
</svg>
