<?xml version="1.0" encoding="UTF-8"?>
<svg xmlns="http://www.w3.org/2000/svg" xmlns:xlink="http://www.w3.org/1999/xlink" width="17pt" height="23pt" viewBox="0 0 17 23" version="1.1">
<g id="surface1">
<path style="fill-rule:nonzero;fill:rgb(0%,0%,0%);fill-opacity:1;stroke-width:0.319541;stroke-linecap:butt;stroke-linejoin:miter;stroke:rgb(0%,0%,0%);stroke-opacity:1;stroke-miterlimit:4;" d="M 231.902339 617.367803 C 179.706797 617.775412 142.400501 636.525412 142.06778 636.933021 C 141.9846 673.94389 148.056751 708.14226 162.654867 736.022695 C 178.750225 766.797151 209.485289 795.370521 232.56778 802.177586 C 260.64108 792.843347 288.298479 764.84063 302.855005 736.104217 C 316.870859 708.264543 323.02619 674.596064 323.06778 637.136825 C 290.710703 622.014543 259.268608 617.163999 231.902339 617.367803 Z M 232.027109 620.384108 C 258.353626 620.180303 288.71438 624.786282 320.073295 639.174869 C 320.406016 677.082477 313.294113 709.07976 300.11006 734.759108 C 283.806751 766.430303 255.400731 791.702043 232.692551 799.324325 C 207.197835 791.620521 178.625455 761.13139 165.150271 735.248238 C 145.228626 697.096064 144.272054 653.930303 145.394986 638.685738 C 145.727707 638.31889 181.70312 620.750956 232.027109 620.384108 Z M 232.027109 620.384108 " transform="matrix(0.0939227,0,0,0.0958333,-13.327758,-59.148789)"/>
<path style="fill-rule:nonzero;fill:rgb(0%,0%,0%);fill-opacity:1;stroke-width:0.299407;stroke-linecap:butt;stroke-linejoin:miter;stroke:rgb(0%,0%,0%);stroke-opacity:1;stroke-miterlimit:4;" d="M 317.28676 640.601499 C 265.215988 616.634108 193.306751 617.816173 147.931981 640.805303 C 147.224949 685.397695 158.7454 718.087912 169.350869 737.449325 C 181.32881 759.337912 208.736668 788.563456 232.858911 796.348782 C 265.631889 785.01726 295.119251 745.886825 304.976098 717.558021 C 314.583405 689.962912 317.20358 673.332477 317.28676 640.601499 Z M 317.28676 640.601499 " transform="matrix(0.0939227,0,0,0.0958333,-13.327758,-59.148789)"/>
<path style="fill-rule:nonzero;fill:rgb(100%,100%,100%);fill-opacity:1;stroke-width:0.319541;stroke-linecap:butt;stroke-linejoin:miter;stroke:rgb(0%,0%,0%);stroke-opacity:1;stroke-miterlimit:4;" d="M 160.325823 701.212912 L 160.367413 644.555303 C 160.367413 644.555303 160.201052 643.984651 161.199214 643.577043 C 162.197376 643.169434 168.851788 640.723782 168.851788 640.723782 C 168.851788 640.723782 169.725179 640.397695 169.891539 640.886825 C 170.09949 641.375956 187.02665 683.971064 187.02665 683.971064 L 186.693929 636.606934 C 186.693929 636.606934 186.652339 635.750956 187.484141 635.547151 C 188.315942 635.384108 193.389931 634.283564 193.389931 634.283564 C 193.348341 634.283564 194.138552 634.161282 194.138552 634.935738 C 194.138552 635.750956 194.013782 691.75639 194.013782 691.75639 C 194.013782 691.75639 193.930602 692.734651 193.181981 692.897695 C 192.433359 693.019977 184.905556 694.813456 184.947146 694.813456 C 184.988736 694.813456 184.032164 695.01726 183.741034 694.242803 C 183.408313 693.427586 167.105005 651.851499 167.105005 651.851499 C 167.105005 651.851499 167.354545 699.011825 167.354545 699.052586 C 167.312955 699.093347 167.437725 699.827043 166.689104 700.112369 C 165.940483 700.397695 161.199214 702.02813 161.199214 702.02813 C 161.199214 702.02813 160.325823 701.987369 160.325823 701.212912 Z M 160.325823 701.212912 " transform="matrix(0.0939227,0,0,0.0958333,-13.327758,-59.148789)"/>
<path style="fill-rule:nonzero;fill:rgb(100%,100%,100%);fill-opacity:1;stroke-width:0.319541;stroke-linecap:butt;stroke-linejoin:miter;stroke:rgb(0%,0%,0%);stroke-opacity:1;stroke-miterlimit:4;" d="M 200.293883 633.712912 C 200.293883 633.712912 200.002753 632.856934 201.458405 632.69389 C 202.914058 632.530847 210.525041 630.77813 229.906016 630.288999 C 229.906016 630.288999 231.236898 630.003673 231.236898 630.900412 C 231.236898 631.797151 231.236898 634.650412 231.236898 634.894977 C 231.236898 635.139543 231.153718 635.791717 230.405096 635.791717 C 229.656475 635.791717 216.721962 635.791717 208.071227 637.503673 L 207.988047 657.191173 C 207.988047 657.191173 214.018608 655.927586 226.329269 655.764543 C 226.329269 655.764543 227.036301 655.356934 227.036301 656.416717 C 227.036301 657.476499 227.036301 660.248238 227.036301 660.248238 C 227.036301 660.248238 227.119481 661.348782 226.204499 661.226499 C 225.331108 661.104217 212.022284 661.674869 207.904867 662.612369 L 207.863277 684.867803 C 207.863277 684.867803 215.099949 683.563456 230.197146 683.237369 C 230.197146 683.237369 231.195308 682.952043 231.195308 684.093347 C 231.195308 685.234651 231.195308 687.639543 231.195308 687.639543 C 231.195308 687.639543 231.403258 688.780847 230.197146 688.780847 C 228.991034 688.780847 212.271824 689.066173 201.499995 691.185738 C 201.499995 691.185738 200.377063 691.348782 200.377063 690.574325 Z M 200.293883 633.712912 " transform="matrix(0.0939227,0,0,0.0958333,-13.327758,-59.148789)"/>
<path style="fill-rule:nonzero;fill:rgb(100%,100%,100%);fill-opacity:1;stroke-width:0.319541;stroke-linecap:butt;stroke-linejoin:miter;stroke:rgb(0%,0%,0%);stroke-opacity:1;stroke-miterlimit:4;" d="M 249.37017 688.495521 L 249.32858 636.44389 C 249.32858 636.44389 241.343286 635.587912 235.770216 635.791717 C 235.770216 635.791717 234.980005 635.873238 234.980005 635.058021 C 234.980005 634.242803 234.938414 630.859651 234.938414 630.859651 C 234.938414 630.859651 234.730464 630.207477 235.687036 630.248238 C 236.726788 630.288999 254.610519 630.411282 270.789058 633.468347 C 270.789058 633.468347 271.662449 633.63139 271.662449 634.324325 C 271.662449 634.976499 271.662449 638.27813 271.662449 638.27813 C 271.662449 638.27813 271.537679 639.297151 270.705878 639.134108 C 269.915666 638.971064 264.051466 637.870521 257.022744 637.096064 L 257.022744 688.90313 C 257.022744 688.90313 257.230694 689.922151 256.315712 689.84063 L 250.285152 689.351499 C 250.285152 689.351499 249.41176 689.433021 249.37017 688.495521 Z M 249.37017 688.495521 " transform="matrix(0.0939227,0,0,0.0958333,-13.327758,-59.148789)"/>
<path style="fill-rule:nonzero;fill:rgb(100%,100%,100%);fill-opacity:1;stroke-width:0.319541;stroke-linecap:butt;stroke-linejoin:miter;stroke:rgb(0%,0%,0%);stroke-opacity:1;stroke-miterlimit:4;" d="M 299.153488 659.229217 C 299.153488 659.229217 298.488047 658.862369 298.529637 658.373238 C 298.571227 657.843347 298.571227 650.628673 298.571227 650.628673 C 298.571227 650.628673 298.446457 646.71563 293.497238 644.025412 C 293.497238 644.025412 290.253212 641.987369 284.971273 642.150412 C 284.763323 642.191173 281.810427 642.272695 281.602477 646.552586 C 281.602477 646.552586 281.352937 651.566173 283.47403 654.378673 C 283.47403 654.378673 286.718056 658.699325 290.835473 662.816173 L 297.531475 669.867803 C 297.531475 669.867803 303.395676 675.900412 305.142459 679.487369 C 305.142459 679.487369 306.889242 682.136825 307.055602 688.658564 C 307.055602 688.658564 307.845813 698.27813 300.15165 698.644977 C 300.15165 698.644977 294.329039 699.827043 283.22449 695.139543 C 283.22449 695.139543 272.951742 691.511825 272.07835 681.89226 L 271.99517 672.924869 C 271.99517 672.924869 271.95358 672.02813 272.868562 672.06889 L 278.940712 673.250956 C 278.940712 673.250956 279.647744 673.250956 279.647744 674.147695 L 279.689334 682.748238 C 279.689334 682.748238 279.980464 690.655847 293.913139 692.775412 C 293.913139 692.775412 299.527799 694.038999 299.444619 688.699325 L 299.486209 684.174869 C 299.486209 684.174869 299.361438 679.935738 293.206108 673.90313 L 279.772514 660.411282 C 279.772514 660.411282 274.948065 655.601499 274.033084 649.283564 C 274.033084 649.283564 273.575593 643.210195 275.696687 639.786282 C 275.696687 639.786282 280.188414 631.919434 296.408543 639.623238 C 296.408543 639.623238 304.684968 642.761825 305.68313 651.077043 L 306.14062 660.696608 C 306.14062 660.696608 306.05744 661.674869 305.225639 661.511825 C 304.352247 661.348782 299.153488 659.229217 299.153488 659.229217 Z M 299.153488 659.229217 " transform="matrix(0.0939227,0,0,0.0958333,-13.327758,-59.148789)"/>
<path style="fill:none;stroke-width:0.319541;stroke-linecap:butt;stroke-linejoin:miter;stroke:rgb(0%,0%,0%);stroke-opacity:1;stroke-miterlimit:4;" d="M 227.909692 715.846064 C 227.909692 715.846064 227.618562 715.764543 227.618562 716.212912 C 227.618562 716.620521 227.618562 734.188456 227.618562 734.188456 C 227.618562 734.188456 227.576971 734.514543 227.909692 734.514543 C 228.242413 734.514543 232.40142 734.473782 232.40142 734.473782 C 232.40142 734.473782 237.225869 733.862369 237.225869 729.623238 C 237.225869 725.343347 237.225869 719.88139 237.225869 719.88139 C 237.350639 715.397695 233.482762 715.886825 232.27665 715.846064 Z M 227.909692 715.846064 " transform="matrix(0.0939227,0,0,0.0958333,-13.327758,-59.148789)"/>
<path style="fill:none;stroke-width:0.319541;stroke-linecap:butt;stroke-linejoin:miter;stroke:rgb(0%,0%,0%);stroke-opacity:1;stroke-miterlimit:4;" d="M 227.909692 740.832477 C 227.909692 740.832477 227.618562 740.791717 227.618562 741.158564 C 227.618562 741.158564 227.618562 763.413999 227.618562 763.413999 C 227.576971 763.413999 227.618562 763.780847 228.034462 763.821608 C 228.450363 763.862369 234.522514 763.90313 234.522514 763.90313 C 235.063185 763.617803 239.513323 764.677586 239.513323 757.625956 L 239.513323 746.416717 C 239.430142 745.479217 239.014242 740.710195 231.611209 740.832477 Z M 227.909692 740.832477 " transform="matrix(0.0939227,0,0,0.0958333,-13.327758,-59.148789)"/>
<path style="fill-rule:nonzero;fill:rgb(100%,100%,100%);fill-opacity:1;stroke-width:0.319541;stroke-linecap:butt;stroke-linejoin:miter;stroke:rgb(100%,100%,100%);stroke-opacity:1;stroke-miterlimit:4;" d="M 220.631429 699.419434 C 215.68221 700.519977 205.534233 705.207477 198.21438 715.112369 C 207.405786 713.685738 214.933589 718.699325 217.720124 719.922151 L 217.803304 722.897695 C 208.195997 717.96563 202.456567 717.476499 196.841907 717.51726 C 194.803994 719.39226 190.270676 730.805303 190.811346 741.810738 C 192.391769 742.748238 193.639471 749.188456 217.678534 754.772695 L 217.595354 758.359651 C 217.595354 758.359651 200.085933 756.484651 191.102477 744.745521 C 192.142229 754.854217 200.127523 771.525412 215.22472 776.620521 C 228.491953 778.536282 236.310887 774.174869 248.288828 768.223782 C 261.264931 761.335195 261.140161 760.886825 265.340758 758.889543 C 266.4221 754.731934 266.54687 751.389543 266.54687 751.389543 C 259.393378 754.976499 249.2454 756.933021 249.2454 756.933021 L 249.20381 753.998238 C 258.020905 752.367803 266.713231 748.291717 266.713231 748.291717 C 266.796411 742.788999 266.17256 739.365086 266.17256 739.365086 C 259.892459 743.155847 248.995859 739.202043 247.332256 738.794434 C 246.042964 736.634108 245.460703 736.674869 245.460703 736.674869 C 246.833176 734.922151 246.417275 734.310738 246.417275 734.310738 C 251.616034 737.041717 260.183589 738.59063 265.382348 736.185738 C 259.434968 711.769977 237.89131 697.014543 220.631429 699.419434 Z M 220.631429 699.419434 " transform="matrix(0.0939227,0,0,0.0958333,-13.327758,-59.148789)"/>
<path style=" stroke:none;fill-rule:nonzero;fill:rgb(100%,100%,100%);fill-opacity:1;" d="M 7.214844 15.464844 C 7.761719 15.871094 10.878906 16 11.523438 13.855469 C 10.128906 14.738281 8.816406 15.699219 7.214844 15.464844 Z M 7.214844 15.464844 "/>
<path style=" stroke:none;fill-rule:nonzero;fill:rgb(100%,100%,100%);fill-opacity:1;" d="M 11.402344 14.421875 C 11.402344 14.421875 11.921875 13.832031 11.9375 13.613281 C 11.894531 13.570312 11.816406 13.640625 11.757812 13.679688 C 11.796875 13.695312 11.570312 14.148438 11.402344 14.421875 Z M 11.402344 14.421875 "/>
<path style=" stroke:none;fill-rule:nonzero;fill:rgb(100%,100%,100%);fill-opacity:1;" d="M 11.984375 12.691406 C 11.976562 12.785156 12.003906 12.839844 11.84375 13.460938 C 11.953125 13.429688 11.960938 13.421875 12.042969 13.507812 C 12.304688 13.03125 12.390625 12.5 12.414062 12.207031 C 12.21875 12.589844 11.984375 12.691406 11.984375 12.691406 Z M 11.984375 12.691406 "/>
<path style="fill-rule:nonzero;fill:rgb(0%,0%,0%);fill-opacity:1;stroke-width:0.319541;stroke-linecap:butt;stroke-linejoin:miter;stroke:rgb(0%,0%,0%);stroke-opacity:1;stroke-miterlimit:4;" d="M 220.714609 711.077043 C 220.756199 730.397695 220.756199 749.718347 220.797789 768.998238 C 221.629591 771.199325 224.832027 769.731934 226.70358 770.139543 C 230.197146 770.058021 233.690712 770.261825 237.184278 769.976499 C 241.634416 769.324325 245.793424 765.696608 246.042964 761.009108 C 246.042964 755.424869 246.042964 749.84063 246.001374 744.25639 C 245.585473 741.158564 243.339609 738.223782 240.345124 737.20476 C 243.339609 735.574325 244.213001 731.987369 244.005051 728.808021 C 243.92187 725.098782 244.129821 721.430303 243.75551 717.721064 C 243.46438 714.378673 241.343286 711.036282 237.9329 710.221064 C 234.980005 709.446608 231.943929 709.894977 228.949444 709.772695 C 226.49563 709.813456 224.000225 709.731934 221.546411 709.854217 C 221.00574 709.976499 220.714609 710.547151 220.714609 711.077043 Z M 220.714609 711.077043 " transform="matrix(0.0939227,0,0,0.0958333,-13.327758,-59.148789)"/>
<path style="fill-rule:nonzero;fill:rgb(100%,100%,100%);fill-opacity:1;stroke-width:0.319541;stroke-linecap:butt;stroke-linejoin:miter;stroke:rgb(0%,0%,0%);stroke-opacity:1;stroke-miterlimit:4;" d="M 227.784922 715.846064 C 227.784922 715.846064 227.535381 715.927586 227.535381 716.172151 C 227.535381 716.416717 227.576971 734.188456 227.576971 734.188456 C 227.576971 734.188456 227.535381 734.473782 227.868102 734.433021 C 228.159233 734.39226 232.40142 734.433021 232.40142 734.433021 C 232.40142 734.433021 237.142688 734.39226 237.184278 729.337912 L 237.225869 719.39226 C 237.225869 719.39226 237.600179 715.927586 233.482762 715.886825 Z M 227.784922 715.846064 " transform="matrix(0.0939227,0,0,0.0958333,-13.327758,-59.148789)"/>
<path style="fill-rule:nonzero;fill:rgb(100%,100%,100%);fill-opacity:1;stroke-width:0.319541;stroke-linecap:butt;stroke-linejoin:miter;stroke:rgb(0%,0%,0%);stroke-opacity:1;stroke-miterlimit:4;" d="M 227.618562 740.750956 L 227.576971 763.495521 C 227.576971 763.495521 227.535381 763.862369 228.117642 763.862369 C 228.699903 763.862369 234.855234 763.862369 234.855234 763.862369 C 234.855234 763.862369 239.430142 764.39226 239.430142 757.82976 L 239.388552 745.764543 C 239.388552 745.764543 238.889471 740.669434 231.860749 740.750956 Z M 227.618562 740.750956 " transform="matrix(0.0939227,0,0,0.0958333,-13.327758,-59.148789)"/>
<path style=" stroke:none;fill-rule:nonzero;fill:rgb(100%,100%,100%);fill-opacity:1;" d="M 12.3125 10.707031 C 12.496094 11.117188 12.453125 11.757812 12.453125 11.757812 C 12.332031 12.105469 12.179688 12.304688 11.976562 12.433594 C 11.980469 11.835938 11.886719 11.523438 11.886719 11.523438 C 12.242188 11.203125 12.3125 10.707031 12.3125 10.707031 Z M 12.3125 10.707031 "/>
<path style="fill-rule:nonzero;fill:rgb(100%,100%,100%);fill-opacity:1;stroke-width:0.319541;stroke-linecap:butt;stroke-linejoin:miter;stroke:rgb(100%,100%,100%);stroke-opacity:1;stroke-miterlimit:4;" d="M 270.622698 723.916717 C 267.877753 710.058021 248.871089 695.50639 228.699903 697.585195 C 252.988506 700.15313 264.550547 723.712912 267.711392 734.066173 C 271.080188 732.354217 270.622698 723.916717 270.622698 723.916717 Z M 270.622698 723.916717 " transform="matrix(0.0939227,0,0,0.0958333,-13.327758,-59.148789)"/>
<path style="fill-rule:nonzero;fill:rgb(0%,0%,0%);fill-opacity:1;stroke-width:0.319541;stroke-linecap:butt;stroke-linejoin:miter;stroke:rgb(0%,0%,0%);stroke-opacity:1;stroke-miterlimit:4;" d="M 156.707486 813.019977 L 156.749076 855.900412 C 156.749076 855.900412 156.749076 856.389543 156.915437 856.389543 C 157.081797 856.389543 167.853626 856.389543 167.853626 856.389543 C 168.227937 856.430303 174.133727 854.922151 174.133727 849.663999 L 174.133727 838.087912 C 174.050547 836.13139 172.262174 833.400412 169.558819 832.992803 C 169.808359 832.788999 172.719664 831.321608 172.636484 827.856934 L 172.678074 818.685738 C 172.761255 815.913999 170.39062 813.14226 167.188185 813.101499 Z M 156.707486 813.019977 " transform="matrix(0.0939227,0,0,0.0958333,-13.327758,-59.148789)"/>
<path style="fill-rule:nonzero;fill:rgb(100%,100%,100%);fill-opacity:1;stroke-width:0.319541;stroke-linecap:butt;stroke-linejoin:miter;stroke:rgb(0%,0%,0%);stroke-opacity:1;stroke-miterlimit:4;" d="M 160.949674 816.810738 C 160.908084 816.851499 160.783313 816.810738 160.783313 817.055303 C 160.783313 817.34063 160.824903 831.077043 160.824903 831.077043 C 160.824903 831.077043 160.741723 831.280847 160.991264 831.280847 C 161.199214 831.280847 163.819389 831.280847 163.819389 831.280847 C 163.819389 831.280847 168.394297 831.484651 168.477477 827.571608 L 168.435887 819.623238 C 168.435887 819.623238 168.810198 816.89226 165.067091 816.851499 Z M 160.949674 816.810738 " transform="matrix(0.0939227,0,0,0.0958333,-13.327758,-59.148789)"/>
<path style="fill-rule:nonzero;fill:rgb(100%,100%,100%);fill-opacity:1;stroke-width:0.319541;stroke-linecap:butt;stroke-linejoin:miter;stroke:rgb(0%,0%,0%);stroke-opacity:1;stroke-miterlimit:4;" d="M 160.991264 835.030847 C 160.783313 835.234651 160.824903 835.356934 160.824903 835.356934 L 160.866494 852.51726 C 160.866494 852.51726 160.824903 852.680303 160.991264 852.680303 C 161.116034 852.680303 166.148433 852.721064 166.148433 852.721064 C 166.148433 852.721064 170.18267 852.884108 170.14108 847.788999 L 170.09949 840.003673 C 170.09949 840.003673 170.556981 835.030847 164.859141 835.071608 Z M 160.991264 835.030847 " transform="matrix(0.0939227,0,0,0.0958333,-13.327758,-59.148789)"/>
<path style="fill-rule:nonzero;fill:rgb(0%,0%,0%);fill-opacity:1;stroke-width:0.319541;stroke-linecap:butt;stroke-linejoin:miter;stroke:rgb(0%,0%,0%);stroke-opacity:1;stroke-miterlimit:4;" d="M 176.587541 813.14226 L 176.753902 855.900412 C 176.753902 855.900412 176.795492 856.389543 177.045032 856.348782 C 177.252983 856.308021 180.289058 856.348782 180.289058 856.348782 C 180.289058 856.348782 180.746549 856.308021 180.746549 855.77813 C 180.746549 855.248238 180.829729 835.927586 180.829729 835.927586 L 184.364885 835.846064 L 192.017459 856.348782 L 195.802155 856.348782 C 195.802155 856.348782 196.093286 856.26726 196.134876 856.063456 L 196.134876 855.411282 L 188.648663 835.560738 C 189.355694 835.519977 194.263323 833.31889 194.221733 829.405847 L 194.221733 819.134108 C 194.221733 819.134108 193.722652 813.101499 186.569159 813.14226 Z M 176.587541 813.14226 " transform="matrix(0.0939227,0,0,0.0958333,-13.327758,-59.148789)"/>
<path style="fill-rule:nonzero;fill:rgb(100%,100%,100%);fill-opacity:1;stroke-width:0.319541;stroke-linecap:butt;stroke-linejoin:miter;stroke:rgb(0%,0%,0%);stroke-opacity:1;stroke-miterlimit:4;" d="M 180.746549 816.810738 L 180.788139 832.055303 L 186.98506 832.055303 C 186.98506 832.055303 189.979545 831.933021 189.937955 828.672151 L 189.979545 820.805303 C 189.979545 820.805303 190.312266 816.810738 186.402799 816.851499 Z M 180.746549 816.810738 " transform="matrix(0.0939227,0,0,0.0958333,-13.327758,-59.148789)"/>
<path style="fill-rule:nonzero;fill:rgb(0%,0%,0%);fill-opacity:1;stroke-width:0.319541;stroke-linecap:butt;stroke-linejoin:miter;stroke:rgb(0%,0%,0%);stroke-opacity:1;stroke-miterlimit:4;" d="M 196.883497 821.824325 L 196.966677 848.033564 C 197.049858 859.935738 215.18313 860.139543 215.141539 848.115086 L 215.099949 821.702043 C 215.22472 808.94389 196.841907 809.799869 196.883497 821.824325 Z M 196.883497 821.824325 " transform="matrix(0.0939227,0,0,0.0958333,-13.327758,-59.148789)"/>
<path style="fill-rule:nonzero;fill:rgb(100%,100%,100%);fill-opacity:1;stroke-width:0.319541;stroke-linecap:butt;stroke-linejoin:miter;stroke:rgb(0%,0%,0%);stroke-opacity:1;stroke-miterlimit:4;" d="M 201.000914 821.253673 L 201.000914 847.911282 C 200.959324 854.636825 211.065712 854.922151 211.107302 847.911282 L 211.107302 821.538999 C 211.107302 814.894977 201.084095 814.691173 201.000914 821.253673 Z M 201.000914 821.253673 " transform="matrix(0.0939227,0,0,0.0958333,-13.327758,-59.148789)"/>
<path style="fill-rule:nonzero;fill:rgb(0%,0%,0%);fill-opacity:1;stroke-width:0.319541;stroke-linecap:butt;stroke-linejoin:miter;stroke:rgb(0%,0%,0%);stroke-opacity:1;stroke-miterlimit:4;" d="M 217.678534 821.742803 L 217.720124 847.911282 C 217.720124 859.854217 235.978166 860.058021 235.936576 848.033564 L 235.853396 821.620521 C 235.978166 808.821608 217.595354 809.677586 217.678534 821.742803 Z M 217.678534 821.742803 " transform="matrix(0.0939227,0,0,0.0958333,-13.327758,-59.148789)"/>
<path style="fill-rule:nonzero;fill:rgb(100%,100%,100%);fill-opacity:1;stroke-width:0.319541;stroke-linecap:butt;stroke-linejoin:miter;stroke:rgb(0%,0%,0%);stroke-opacity:1;stroke-miterlimit:4;" d="M 221.795951 821.172151 L 221.795951 847.82976 C 221.712771 854.555303 231.819159 854.84063 231.860749 847.82976 L 231.860749 821.457477 C 231.860749 814.813456 221.837541 814.56889 221.795951 821.172151 Z M 221.795951 821.172151 " transform="matrix(0.0939227,0,0,0.0958333,-13.327758,-59.148789)"/>
<path style="fill-rule:nonzero;fill:rgb(0%,0%,0%);fill-opacity:1;stroke-width:0.319541;stroke-linecap:butt;stroke-linejoin:miter;stroke:rgb(0%,0%,0%);stroke-opacity:1;stroke-miterlimit:4;" d="M 242.133497 812.734651 L 238.972652 812.734651 C 238.889471 812.775412 238.390391 812.612369 238.473571 813.223782 L 238.515161 855.737369 C 238.515161 855.737369 238.515161 856.185738 238.889471 856.185738 C 239.388552 856.226499 242.133497 856.185738 242.133497 856.185738 C 242.175087 856.185738 242.674168 856.308021 242.632578 855.737369 L 242.632578 839.555303 L 244.878442 835.519977 L 252.239885 855.81889 C 252.239885 855.81889 252.281475 856.144977 252.655786 856.185738 L 256.149352 856.185738 C 256.149352 856.185738 256.523663 856.226499 256.523663 855.859651 C 256.523663 855.533564 256.523663 855.085195 256.523663 855.085195 L 247.581797 830.302586 L 256.482073 813.468347 C 256.482073 813.468347 256.648433 812.775412 256.149352 812.775412 L 252.323065 812.775412 C 252.198295 812.816173 252.115115 812.856934 252.073525 812.979217 L 242.674168 831.362369 L 242.632578 813.183021 C 242.632578 813.183021 242.715758 812.734651 242.341448 812.734651 Z M 242.133497 812.734651 " transform="matrix(0.0939227,0,0,0.0958333,-13.327758,-59.148789)"/>
<path style="fill-rule:nonzero;fill:rgb(0%,0%,0%);fill-opacity:1;stroke-width:0.319541;stroke-linecap:butt;stroke-linejoin:miter;stroke:rgb(0%,0%,0%);stroke-opacity:1;stroke-miterlimit:4;" d="M 262.096733 812.938456 L 258.727937 812.897695 C 258.727937 812.897695 258.270446 812.897695 258.270446 813.63139 L 258.270446 855.77813 C 258.270446 855.77813 258.519986 856.226499 258.727937 856.226499 L 273.118102 856.226499 C 273.118102 856.226499 273.450823 856.104217 273.450823 855.696608 L 273.450823 852.96563 C 273.450823 852.96563 273.575593 852.51726 272.993332 852.51726 L 262.595813 852.51726 L 262.554223 813.386825 C 262.554223 813.386825 262.429453 812.897695 262.096733 812.938456 Z M 262.096733 812.938456 " transform="matrix(0.0939227,0,0,0.0958333,-13.327758,-59.148789)"/>
<path style="fill-rule:nonzero;fill:rgb(0%,0%,0%);fill-opacity:1;stroke-width:0.319541;stroke-linecap:butt;stroke-linejoin:miter;stroke:rgb(0%,0%,0%);stroke-opacity:1;stroke-miterlimit:4;" d="M 271.704039 812.938456 L 268.543194 812.938456 C 268.543194 812.938456 267.960933 813.223782 268.085703 813.712912 C 268.210473 814.161282 276.486898 837.51726 276.486898 837.51726 L 276.570078 855.859651 C 276.570078 855.859651 276.486898 856.26726 276.778028 856.308021 C 277.069159 856.348782 280.022054 856.308021 280.022054 856.308021 C 280.022054 856.308021 280.479545 856.308021 280.479545 855.859651 L 280.479545 837.558021 L 289.296641 813.59063 C 289.296641 813.59063 289.587771 812.856934 288.79756 812.897695 C 288.007348 812.938456 285.470354 812.897695 285.470354 812.897695 C 285.470354 812.897695 285.054453 812.897695 284.888093 813.509108 C 284.721733 814.07976 278.649582 831.810738 278.649582 831.810738 L 272.452661 813.386825 C 272.452661 813.386825 272.20312 812.938456 271.704039 812.938456 Z M 271.704039 812.938456 " transform="matrix(0.0939227,0,0,0.0958333,-13.327758,-59.148789)"/>
<path style="fill-rule:nonzero;fill:rgb(0%,0%,0%);fill-opacity:1;stroke-width:0.319541;stroke-linecap:butt;stroke-linejoin:miter;stroke:rgb(0%,0%,0%);stroke-opacity:1;stroke-miterlimit:4;" d="M 295.410381 812.938456 L 291.043424 812.938456 C 291.043424 812.938456 290.585933 812.938456 290.585933 813.509108 C 290.544343 814.038999 290.544343 855.900412 290.544343 855.900412 C 290.544343 855.900412 290.377983 856.389543 290.877063 856.389543 C 291.376144 856.389543 293.996319 856.389543 293.996319 856.389543 C 293.996319 856.389543 294.4954 856.389543 294.53699 855.81889 C 294.57858 855.207477 294.37063 821.049869 294.37063 821.049869 L 303.021365 855.981934 C 303.021365 855.981934 303.229315 856.308021 303.562036 856.348782 L 308.136944 856.348782 C 308.136944 856.348782 308.552845 856.430303 308.552845 855.859651 L 308.552845 813.386825 C 308.552845 813.386825 308.552845 813.019977 308.012174 812.979217 L 304.892918 812.938456 C 304.892918 812.938456 304.435427 812.938456 304.435427 813.386825 L 304.976098 849.663999 L 295.951052 813.305303 C 295.951052 813.305303 295.909462 812.897695 295.410381 812.938456 Z M 295.410381 812.938456 " transform="matrix(0.0939227,0,0,0.0958333,-13.327758,-59.148789)"/>
</g>
</svg>
