<?xml version="1.0" encoding="UTF-8"?>
<svg xmlns="http://www.w3.org/2000/svg" xmlns:xlink="http://www.w3.org/1999/xlink" width="23pt" height="23pt" viewBox="0 0 23 23" version="1.1">
<g id="surface1">
<path style=" stroke:none;fill-rule:evenodd;fill:rgb(10.980392%,14.509804%,14.117647%);fill-opacity:1;" d="M 20.972656 8.839844 C 20.902344 7.464844 20.28125 6.207031 19.910156 5.472656 C 19.910156 5.472656 19.703125 5.0625 19.703125 5.0625 C 19.703125 5.0625 19.726562 5.425781 19.726562 5.425781 C 19.769531 5.90625 19.886719 7.601562 19.378906 8.566406 C 18.730469 9.871094 16.878906 9.753906 16.257812 9.710938 C 16.257812 9.710938 16.210938 9.710938 16.210938 9.710938 C 15.214844 9.640625 11.957031 9.527344 10.9375 9.527344 C 9.621094 9.527344 8.164062 9.640625 6.984375 9.730469 C 6.40625 9.777344 5.917969 9.800781 5.574219 9.824219 C 5.550781 9.824219 5.503906 9.824219 5.457031 9.824219 C 3.816406 9.984375 2.773438 9.503906 2.359375 8.402344 C 2.105469 7.71875 2.128906 6.390625 2.128906 5.746094 C 2.128906 5.746094 2.128906 5.289062 2.128906 5.289062 C 2.128906 5.289062 1.988281 5.519531 1.988281 5.519531 C 1.6875 6.089844 1.109375 7.144531 0.925781 8.886719 C 0.808594 10.96875 1.894531 11.703125 2.707031 12.066406 C 3.5625 12.480469 4.460938 12.527344 4.742188 12.550781 C 4.742188 12.550781 4.761719 12.550781 4.761719 12.550781 C 4.808594 12.550781 4.878906 12.550781 4.949219 12.570312 C 5.042969 12.570312 5.132812 12.570312 5.226562 12.59375 C 5.085938 12.617188 4.878906 12.664062 4.695312 12.6875 C 4.507812 12.710938 4.324219 12.753906 4.230469 12.777344 C 4.023438 12.800781 3.214844 13.007812 2.75 13.144531 C 2.382812 13.28125 1.964844 13.464844 1.964844 13.464844 C 1.964844 13.464844 1.894531 13.511719 1.894531 13.511719 C 1.894531 13.511719 1.941406 13.578125 1.941406 13.578125 C 1.941406 13.578125 2.082031 13.761719 2.21875 13.898438 C 2.519531 14.199219 3.328125 14.703125 4.300781 14.585938 C 5.085938 14.472656 5.503906 14.3125 5.664062 14.21875 C 5.734375 14.382812 5.851562 14.769531 5.964844 15.066406 C 6.3125 15.9375 7.121094 17.609375 7.421875 18.183594 C 7.675781 18.640625 7.910156 19.050781 8.070312 19.328125 C 8.070312 19.328125 8.140625 19.417969 8.140625 19.417969 C 8.09375 19.601562 7.953125 19.714844 7.863281 19.808594 C 7.839844 19.832031 7.816406 19.832031 7.792969 19.855469 C 7.792969 19.855469 7.769531 19.875 7.769531 19.875 C 7.769531 19.875 7.769531 19.898438 7.769531 19.898438 C 7.769531 20.058594 7.722656 21.503906 8.71875 22.554688 C 8.71875 22.554688 8.742188 22.578125 8.742188 22.578125 C 9.25 22.761719 9.875 22.945312 10.914062 22.945312 C 11.976562 22.945312 12.855469 22.714844 13.179688 22.554688 C 13.179688 22.554688 13.179688 22.535156 13.179688 22.535156 C 13.179688 22.535156 13.203125 22.535156 13.203125 22.535156 C 13.898438 21.730469 14.199219 20.519531 14.222656 20.058594 C 14.222656 20.058594 14.222656 20.039062 14.222656 20.039062 C 14.222656 20.039062 14.199219 20.015625 14.199219 20.015625 C 14.175781 19.992188 14.152344 19.992188 14.128906 19.96875 C 14.035156 19.855469 13.898438 19.738281 13.828125 19.441406 C 13.898438 19.304688 14.058594 18.960938 14.199219 18.6875 C 14.289062 18.527344 14.335938 18.386719 14.382812 18.320312 C 14.660156 17.746094 15.515625 15.9375 15.863281 15.089844 C 16.070312 14.542969 16.1875 14.265625 16.257812 14.175781 C 16.394531 14.242188 16.8125 14.425781 17.574219 14.496094 C 18.546875 14.609375 19.492188 13.945312 19.746094 13.578125 C 19.792969 13.535156 19.886719 13.441406 19.886719 13.441406 C 19.886719 13.441406 19.933594 13.375 19.933594 13.375 C 19.933594 13.375 19.863281 13.328125 19.863281 13.328125 C 19.839844 13.328125 19.816406 13.328125 19.679688 13.257812 C 19.679688 13.257812 18.570312 12.914062 18.570312 12.914062 C 18.429688 12.847656 17.757812 12.710938 17.273438 12.617188 C 17.273438 12.617188 16.902344 12.527344 16.902344 12.527344 C 16.902344 12.527344 17.019531 12.503906 17.019531 12.503906 C 18.152344 12.320312 21.160156 11.792969 20.972656 8.839844 Z M 20.972656 8.839844 "/>
<path style=" stroke:none;fill-rule:evenodd;fill:rgb(82.352941%,8.235294%,22.745098%);fill-opacity:1;" d="M 1.988281 5.863281 C 1.964844 6.640625 1.964844 7.464844 2.152344 8.199219 C 1.988281 8.0625 1.804688 7.878906 1.640625 7.738281 C 1.480469 7.902344 1.339844 8.082031 1.179688 8.242188 C 1.339844 7.417969 1.617188 6.617188 1.988281 5.863281 Z M 1.988281 5.863281 "/>
<path style=" stroke:none;fill-rule:evenodd;fill:rgb(82.352941%,8.235294%,22.745098%);fill-opacity:1;" d="M 20.671875 7.902344 C 20.671875 7.902344 20.71875 8.105469 20.71875 8.105469 C 20.71875 8.105469 20.324219 7.832031 20.324219 7.832031 C 20.140625 7.902344 19.980469 8.015625 19.792969 8.105469 C 19.933594 7.375 19.957031 6.59375 19.910156 5.816406 C 20.257812 6.480469 20.464844 7.191406 20.671875 7.902344 Z M 20.671875 7.902344 "/>
<path style=" stroke:none;fill-rule:evenodd;fill:rgb(82.352941%,8.235294%,22.745098%);fill-opacity:1;" d="M 10.960938 15.160156 C 11.378906 15.800781 12.164062 15.984375 12.855469 15.800781 C 13.132812 15.753906 13.390625 15.640625 13.621094 15.550781 C 13.410156 16.214844 13.25 16.96875 13.273438 17.722656 C 13.273438 18.386719 13.390625 19.03125 13.574219 19.625 C 13.480469 19.578125 13.390625 19.511719 13.273438 19.464844 C 11.839844 18.753906 9.851562 18.777344 8.441406 19.511719 C 8.507812 19.28125 8.578125 19.050781 8.625 18.824219 C 8.855469 17.746094 8.695312 16.625 8.324219 15.664062 C 9.085938 15.984375 10.175781 16.050781 10.800781 15.34375 C 10.867188 15.296875 10.890625 15.226562 10.960938 15.160156 Z M 10.960938 15.160156 "/>
<path style=" stroke:none;fill-rule:evenodd;fill:rgb(82.352941%,8.235294%,22.745098%);fill-opacity:1;" d="M 7.792969 15.6875 C 7.746094 16.007812 7.652344 16.328125 7.332031 16.441406 C 7.074219 16.511719 6.820312 16.375 6.660156 16.191406 C 6.589844 16.097656 6.519531 16.007812 6.496094 15.890625 C 6.890625 16.144531 7.421875 15.9375 7.769531 15.6875 C 7.769531 15.6875 7.792969 15.6875 7.792969 15.6875 Z M 7.792969 15.6875 "/>
<path style=" stroke:none;fill-rule:evenodd;fill:rgb(82.352941%,8.235294%,22.745098%);fill-opacity:1;" d="M 15.421875 15.730469 C 15.332031 16.007812 15.101562 16.28125 14.800781 16.328125 C 14.589844 16.375 14.40625 16.257812 14.269531 16.074219 C 14.199219 15.984375 14.175781 15.871094 14.152344 15.753906 C 14.5 16.03125 15.054688 15.960938 15.421875 15.730469 Z M 15.421875 15.730469 "/>
<path style=" stroke:none;fill-rule:evenodd;fill:rgb(82.352941%,8.235294%,22.745098%);fill-opacity:1;" d="M 14.636719 16.511719 C 14.777344 16.535156 14.9375 16.511719 15.078125 16.464844 C 14.683594 17.449219 14.199219 18.410156 13.691406 19.375 C 13.527344 18.890625 13.550781 18.367188 13.597656 17.839844 C 13.667969 17.199219 13.828125 16.578125 14.011719 15.984375 C 14.128906 16.234375 14.359375 16.464844 14.636719 16.511719 Z M 14.636719 16.511719 "/>
<path style=" stroke:none;fill-rule:evenodd;fill:rgb(82.352941%,8.235294%,22.745098%);fill-opacity:1;" d="M 8.300781 19.375 C 7.699219 18.457031 7.238281 17.496094 6.773438 16.511719 C 6.984375 16.601562 7.308594 16.695312 7.515625 16.535156 C 7.722656 16.394531 7.839844 16.191406 7.910156 15.960938 C 8.417969 16.945312 8.53125 18.25 8.300781 19.375 Z M 8.300781 19.375 "/>
<path style=" stroke:none;fill-rule:evenodd;fill:rgb(82.352941%,8.235294%,22.745098%);fill-opacity:1;" d="M 14.011719 20.152344 C 13.898438 21 13.597656 21.753906 13.042969 22.417969 C 11.792969 22.921875 10.082031 22.96875 8.832031 22.441406 C 8.210938 21.753906 7.976562 20.90625 7.929688 19.992188 C 9.273438 19.03125 11.378906 18.824219 12.902344 19.511719 C 13.296875 19.695312 13.667969 19.875 14.011719 20.152344 Z M 14.011719 20.152344 "/>
<path style=" stroke:none;fill-rule:evenodd;fill:rgb(82.352941%,8.235294%,22.745098%);fill-opacity:1;" d="M 19.191406 13.257812 C 18.152344 12.847656 16.789062 12.617188 15.65625 12.59375 C 15.539062 11.3125 15.402344 10.535156 15.144531 9.824219 C 14.566406 9.777344 11.933594 9.6875 10.9375 9.6875 C 9.921875 9.6875 7.351562 9.847656 6.753906 9.871094 C 6.519531 10.558594 6.242188 11.402344 6.128906 12.664062 C 4.972656 12.730469 3.398438 13.054688 2.359375 13.441406 C 2.195312 13.511719 2.128906 13.554688 2.128906 13.554688 C 2.289062 13.738281 2.867188 14.425781 3.953125 14.449219 C 4.300781 14.449219 4.949219 14.402344 5.386719 14.21875 C 5.503906 14.152344 5.734375 14.058594 5.734375 14.058594 C 5.734375 14.058594 5.804688 14.199219 5.851562 14.3125 C 5.964844 14.632812 6.105469 15.089844 6.195312 15.296875 C 6.359375 15.59375 6.589844 15.824219 7.007812 15.847656 C 7.351562 15.847656 7.609375 15.550781 7.652344 15.503906 C 6.636719 15.433594 6.21875 14.90625 6.152344 14.082031 C 5.898438 14.039062 5.828125 14.015625 5.804688 13.898438 C 5.78125 13.761719 5.828125 13.625 5.917969 13.464844 C 6.035156 13.328125 6.21875 13.167969 6.707031 13.328125 C 7.03125 13.417969 7.285156 13.625 7.445312 13.785156 C 7.675781 13.96875 8.277344 14.585938 8.648438 14.816406 C 9.042969 15.046875 9.78125 15.25 10.265625 14.769531 C 10.753906 14.3125 10.800781 13.921875 10.867188 13.695312 C 10.035156 13.671875 9.273438 13.578125 8.554688 13.488281 C 8.347656 13.464844 8.441406 13.257812 8.601562 13.304688 C 8.601562 13.304688 9.945312 13.488281 10.890625 13.488281 C 10.890625 13.375 10.890625 13.191406 10.890625 12.984375 C 10.335938 12.960938 9.410156 12.914062 8.53125 12.730469 C 8.347656 12.6875 8.371094 12.480469 8.554688 12.527344 C 8.671875 12.570312 10.128906 12.777344 10.914062 12.777344 C 10.914062 12.59375 10.914062 12.367188 10.914062 12.136719 C 10.40625 12.160156 9.644531 12.089844 8.578125 11.929688 C 8.394531 11.90625 8.417969 11.746094 8.578125 11.746094 C 8.578125 11.746094 9.921875 11.953125 10.914062 11.929688 C 10.914062 11.792969 10.914062 11.609375 10.914062 11.425781 C 10.914062 11.242188 11.078125 11.222656 11.078125 11.425781 C 11.078125 11.496094 11.097656 11.679688 11.097656 11.929688 C 12.046875 11.90625 12.902344 11.792969 13.296875 11.726562 C 13.527344 11.679688 13.503906 11.863281 13.390625 11.886719 C 13.25 11.90625 12.140625 12.113281 11.078125 12.136719 C 11.078125 12.320312 11.097656 12.570312 11.097656 12.753906 C 11.816406 12.730469 12.625 12.710938 13.34375 12.550781 C 13.597656 12.503906 13.621094 12.710938 13.390625 12.730469 C 12.695312 12.847656 11.699219 12.960938 11.097656 12.984375 C 11.097656 13.144531 11.097656 13.351562 11.121094 13.488281 C 12.253906 13.464844 13.320312 13.304688 13.503906 13.28125 C 13.691406 13.234375 13.734375 13.441406 13.527344 13.464844 C 13.34375 13.488281 12 13.671875 11.144531 13.671875 C 11.238281 13.96875 11.238281 14.382812 11.65625 14.722656 C 12.070312 15.066406 12.742188 15.046875 13.226562 14.769531 C 13.597656 14.5625 14.175781 13.921875 14.382812 13.738281 C 14.566406 13.578125 14.984375 13.214844 15.539062 13.214844 C 16.070312 13.214844 16.09375 13.511719 16.117188 13.578125 C 16.140625 13.671875 16.164062 13.832031 16.046875 13.898438 C 15.957031 13.96875 15.863281 13.945312 15.769531 13.992188 C 15.703125 14.425781 15.5625 14.929688 15.191406 15.207031 C 14.824219 15.480469 14.222656 15.527344 14.222656 15.527344 C 14.222656 15.527344 14.3125 15.617188 14.335938 15.640625 C 14.382812 15.6875 14.589844 15.800781 14.867188 15.777344 C 15.101562 15.753906 15.402344 15.570312 15.515625 15.433594 C 15.703125 15.207031 15.863281 14.703125 16 14.382812 C 16.046875 14.265625 16.164062 14.058594 16.1875 13.96875 C 16.300781 14.015625 16.347656 14.039062 16.558594 14.128906 C 16.996094 14.289062 17.550781 14.359375 17.898438 14.359375 C 18.453125 14.335938 19.101562 13.992188 19.492188 13.648438 C 19.5625 13.578125 19.679688 13.417969 19.679688 13.417969 C 19.679688 13.417969 19.308594 13.28125 19.191406 13.257812 Z M 19.191406 13.257812 "/>
<path style=" stroke:none;fill-rule:evenodd;fill:rgb(10.980392%,14.509804%,14.117647%);fill-opacity:1;" d="M 13.113281 20.265625 C 13.203125 20.472656 13.132812 20.703125 13.019531 20.863281 C 12.789062 21.113281 12.464844 21.226562 12.140625 21.136719 C 11.957031 21.089844 11.769531 20.976562 11.65625 20.769531 C 11.585938 20.929688 11.722656 21.066406 11.699219 21.207031 C 11.675781 21.25 11.632812 21.25 11.609375 21.226562 C 11.421875 20.976562 11.355469 20.609375 11.515625 20.335938 C 11.722656 19.992188 12.09375 19.832031 12.511719 19.875 C 12.742188 19.921875 12.996094 20.039062 13.113281 20.265625 Z M 13.113281 20.265625 "/>
<path style=" stroke:none;fill-rule:evenodd;fill:rgb(10.980392%,14.509804%,14.117647%);fill-opacity:1;" d="M 10.3125 20.402344 C 10.476562 20.65625 10.40625 21.023438 10.242188 21.25 C 10.222656 21.296875 10.199219 21.34375 10.152344 21.296875 C 10.082031 21.226562 10.175781 21.160156 10.175781 21.066406 C 10.199219 21 10.222656 20.929688 10.199219 20.863281 C 9.964844 21.160156 9.644531 21.296875 9.296875 21.226562 C 9.042969 21.183594 8.808594 21 8.71875 20.746094 C 8.671875 20.585938 8.695312 20.402344 8.789062 20.265625 C 9.019531 19.96875 9.457031 19.875 9.828125 20.015625 C 10.011719 20.058594 10.222656 20.21875 10.3125 20.402344 Z M 10.3125 20.402344 "/>
<path style=" stroke:none;fill-rule:evenodd;fill:rgb(10.980392%,14.509804%,14.117647%);fill-opacity:1;" d="M 13.089844 22.144531 C 13.066406 22.191406 13.042969 22.191406 12.996094 22.257812 C 12.878906 22.210938 12.742188 22.167969 12.601562 22.121094 C 11.445312 21.664062 9.964844 21.800781 8.878906 22.257812 C 8.855469 22.210938 8.832031 22.191406 8.808594 22.144531 C 10.082031 21.59375 11.816406 21.527344 13.089844 22.144531 Z M 13.089844 22.144531 "/>
<path style=" stroke:none;fill-rule:evenodd;fill:rgb(10.980392%,14.509804%,14.117647%);fill-opacity:1;" d="M 13.296875 16.050781 C 13.089844 16.96875 12.511719 18 11.5625 18.25 C 10.800781 18.457031 9.921875 18.296875 9.410156 17.679688 C 9.042969 17.21875 8.855469 16.671875 8.789062 16.074219 C 8.832031 16.050781 8.878906 16.050781 8.925781 16.050781 C 8.996094 16.898438 9.457031 17.863281 10.3125 18.136719 C 11.054688 18.367188 11.957031 18.136719 12.488281 17.496094 C 12.832031 17.058594 13.066406 16.535156 13.179688 16.007812 C 13.226562 16.007812 13.25 16.007812 13.296875 16.050781 Z M 13.296875 16.050781 "/>
<path style=" stroke:none;fill-rule:evenodd;fill:rgb(10.980392%,14.509804%,14.117647%);fill-opacity:1;" d="M 1.917969 0.25 C 1.757812 0.0898438 1.503906 0 1.25 0 C 0.996094 0.0234375 0 0.34375 0 1.808594 C 0 3.25 0.902344 3.734375 1.433594 3.734375 C 1.964844 3.734375 2.496094 3.320312 2.683594 2.609375 C 2.707031 2.519531 2.683594 2.496094 2.589844 2.449219 C 2.589844 2.449219 2.242188 2.3125 2.242188 2.3125 C 2.152344 2.289062 2.152344 2.289062 2.105469 2.425781 C 2.058594 2.519531 1.917969 2.953125 1.550781 2.953125 C 1.203125 2.953125 1.039062 2.425781 1.039062 1.878906 C 1.039062 1.328125 1.132812 0.824219 1.574219 0.824219 C 2.035156 0.824219 2.105469 1.28125 2.152344 1.464844 C 2.152344 1.535156 2.171875 1.535156 2.242188 1.535156 C 2.242188 1.535156 2.566406 1.535156 2.566406 1.535156 C 2.636719 1.535156 2.636719 1.535156 2.636719 1.375 C 2.636719 1.375 2.636719 0.207031 2.636719 0.207031 C 2.636719 0.113281 2.636719 0.113281 2.496094 0.113281 C 2.496094 0.113281 2.21875 0.113281 2.21875 0.113281 C 2.152344 0.113281 2.152344 0.136719 2.105469 0.207031 C 2.082031 0.273438 2.011719 0.320312 1.917969 0.25 Z M 1.917969 0.25 "/>
<path style=" stroke:none;fill-rule:evenodd;fill:rgb(10.980392%,14.509804%,14.117647%);fill-opacity:1;" d="M 15.125 0.824219 C 15.125 0.824219 15.792969 2.929688 15.792969 2.929688 C 15.816406 3.023438 15.816406 3.023438 15.863281 3.023438 C 15.863281 3.023438 15.980469 3.023438 15.980469 3.023438 C 16.09375 3.023438 16.09375 3.023438 16.09375 3.113281 C 16.09375 3.113281 16.09375 3.527344 16.09375 3.527344 C 16.09375 3.640625 16.09375 3.664062 16 3.664062 C 16 3.664062 14.683594 3.664062 14.683594 3.664062 C 14.566406 3.664062 14.566406 3.640625 14.566406 3.574219 C 14.566406 3.574219 14.566406 3.160156 14.566406 3.160156 C 14.566406 3.023438 14.589844 3.023438 14.660156 3.023438 C 14.660156 3.023438 14.800781 3.023438 14.800781 3.023438 C 14.867188 3.023438 14.867188 3.023438 14.847656 2.929688 C 14.847656 2.929688 14.730469 2.609375 14.730469 2.609375 C 14.707031 2.542969 14.683594 2.542969 14.613281 2.542969 C 14.613281 2.542969 13.804688 2.542969 13.804688 2.542969 C 13.804688 2.542969 13.96875 2.0625 13.96875 2.0625 C 13.96875 2.0625 14.453125 2.0625 14.476562 2.0625 C 14.546875 2.0625 14.566406 2.0625 14.546875 1.992188 C 14.546875 1.992188 14.246094 1.078125 14.246094 1.078125 C 14.222656 1.007812 14.199219 1.007812 14.175781 1.078125 C 14.175781 1.078125 13.875 1.992188 13.875 1.992188 C 13.875 2.0625 13.875 2.0625 13.96875 2.0625 C 13.96875 2.0625 13.804688 2.542969 13.804688 2.542969 C 13.710938 2.542969 13.710938 2.542969 13.691406 2.609375 C 13.691406 2.609375 13.574219 2.929688 13.574219 2.929688 C 13.550781 3.023438 13.550781 3.023438 13.621094 3.023438 C 13.621094 3.023438 13.757812 3.023438 13.757812 3.023438 C 13.851562 3.023438 13.851562 3.046875 13.851562 3.160156 C 13.851562 3.160156 13.851562 3.574219 13.851562 3.574219 C 13.851562 3.640625 13.851562 3.664062 13.734375 3.664062 C 13.734375 3.664062 12.8125 3.664062 12.8125 3.664062 C 12.742188 3.664062 12.742188 3.640625 12.742188 3.527344 C 12.742188 3.527344 12.742188 3.113281 12.742188 3.113281 C 12.742188 3.023438 12.742188 3.023438 12.855469 3.023438 C 12.855469 3.023438 12.949219 3.023438 12.949219 3.023438 C 12.996094 3.023438 13.019531 3 13.042969 2.953125 C 13.042969 2.953125 13.710938 0.824219 13.710938 0.824219 C 13.734375 0.777344 13.734375 0.753906 13.644531 0.753906 C 13.644531 0.753906 13.503906 0.753906 13.503906 0.753906 C 13.410156 0.753906 13.390625 0.753906 13.390625 0.664062 C 13.390625 0.664062 13.390625 0.25 13.390625 0.25 C 13.390625 0.113281 13.410156 0.113281 13.550781 0.113281 C 13.550781 0.113281 15.332031 0.113281 15.332031 0.113281 C 15.421875 0.113281 15.421875 0.136719 15.421875 0.25 C 15.421875 0.25 15.421875 0.640625 15.421875 0.640625 C 15.421875 0.734375 15.421875 0.734375 15.285156 0.734375 C 15.285156 0.734375 15.144531 0.734375 15.144531 0.734375 C 15.101562 0.734375 15.101562 0.753906 15.125 0.824219 Z M 15.125 0.824219 "/>
<path style=" stroke:none;fill-rule:evenodd;fill:rgb(10.980392%,14.509804%,14.117647%);fill-opacity:1;" d="M 18.3125 2.40625 C 18.3125 2.40625 18.546875 2.40625 18.546875 2.40625 C 18.660156 2.40625 18.660156 2.425781 18.660156 2.496094 C 18.660156 2.679688 18.5 2.953125 18.128906 2.953125 C 17.757812 2.953125 17.621094 2.425781 17.621094 1.878906 C 17.621094 1.328125 17.714844 0.824219 18.152344 0.824219 C 18.523438 0.824219 18.660156 1.078125 18.707031 1.257812 C 18.730469 1.328125 18.730469 1.328125 18.824219 1.328125 C 18.824219 1.328125 19.148438 1.328125 19.148438 1.328125 C 19.214844 1.328125 19.214844 1.328125 19.214844 1.167969 C 19.214844 1.167969 19.214844 0.207031 19.214844 0.207031 C 19.214844 0.113281 19.191406 0.113281 19.054688 0.113281 C 19.054688 0.113281 18.777344 0.113281 18.777344 0.113281 C 18.707031 0.113281 18.707031 0.136719 18.683594 0.207031 C 18.660156 0.273438 18.570312 0.320312 18.476562 0.25 C 18.3125 0.0898438 18.058594 0 17.828125 0 C 17.550781 0.0234375 16.578125 0.34375 16.578125 1.808594 C 16.578125 3.25 17.457031 3.734375 17.992188 3.734375 C 18.800781 3.734375 19.425781 3.113281 19.425781 1.96875 C 19.425781 1.855469 19.425781 1.855469 19.261719 1.855469 C 19.261719 1.855469 18.292969 1.855469 18.292969 1.855469 C 18.199219 1.855469 18.199219 1.855469 18.199219 1.945312 C 18.199219 1.945312 18.199219 2.335938 18.199219 2.335938 C 18.199219 2.40625 18.199219 2.40625 18.3125 2.40625 Z M 18.3125 2.40625 "/>
<path style=" stroke:none;fill-rule:evenodd;fill:rgb(10.980392%,14.509804%,14.117647%);fill-opacity:1;" d="M 21.4375 0.113281 C 20.558594 0.113281 19.839844 0.917969 19.839844 1.921875 C 19.839844 2.929688 20.558594 3.734375 21.4375 3.734375 C 22.292969 3.734375 23.007812 2.929688 23.007812 1.921875 C 23.007812 0.917969 22.292969 0.113281 21.4375 0.113281 C 21.4375 0.113281 21.414062 0.753906 21.414062 0.753906 C 21.738281 0.753906 22.015625 1.28125 22.015625 1.921875 C 22.015625 2.566406 21.738281 3.089844 21.414062 3.089844 C 21.089844 3.089844 20.835938 2.566406 20.835938 1.921875 C 20.835938 1.28125 21.089844 0.753906 21.414062 0.753906 C 21.414062 0.753906 21.4375 0.113281 21.4375 0.113281 Z M 21.4375 0.113281 "/>
<path style=" stroke:none;fill-rule:evenodd;fill:rgb(10.980392%,14.509804%,14.117647%);fill-opacity:1;" d="M 3.675781 2.953125 C 3.675781 2.953125 3.675781 0.847656 3.675781 0.847656 C 3.675781 0.777344 3.652344 0.753906 3.585938 0.753906 C 3.585938 0.753906 3.492188 0.753906 3.492188 0.753906 C 3.375 0.753906 3.375 0.753906 3.375 0.6875 C 3.375 0.6875 3.375 0.207031 3.375 0.207031 C 3.375 0.136719 3.375 0.113281 3.492188 0.113281 C 3.492188 0.113281 4.742188 0.113281 4.742188 0.113281 C 4.832031 0.113281 4.855469 0.136719 4.855469 0.230469 C 4.855469 0.230469 4.855469 0.640625 4.855469 0.640625 C 4.855469 0.734375 4.855469 0.734375 4.742188 0.734375 C 4.742188 0.734375 4.671875 0.734375 4.671875 0.734375 C 4.625 0.734375 4.625 0.734375 4.625 0.824219 C 4.625 0.824219 4.625 1.417969 4.625 1.417969 C 4.625 1.578125 4.625 1.578125 4.742188 1.578125 C 4.742188 1.578125 5.410156 1.578125 5.410156 1.578125 C 5.550781 1.578125 5.550781 1.578125 5.550781 1.417969 C 5.550781 1.417969 5.550781 0.824219 5.550781 0.824219 C 5.550781 0.734375 5.527344 0.734375 5.480469 0.734375 C 5.480469 0.734375 5.410156 0.734375 5.410156 0.734375 C 5.296875 0.734375 5.296875 0.734375 5.296875 0.640625 C 5.296875 0.640625 5.296875 0.230469 5.296875 0.230469 C 5.296875 0.136719 5.320312 0.113281 5.410156 0.113281 C 5.410156 0.113281 6.660156 0.113281 6.660156 0.113281 C 6.796875 0.113281 6.796875 0.136719 6.796875 0.207031 C 6.796875 0.207031 6.796875 0.6875 6.796875 0.6875 C 6.796875 0.753906 6.773438 0.753906 6.683594 0.753906 C 6.683594 0.753906 6.566406 0.753906 6.566406 0.753906 C 6.496094 0.753906 6.496094 0.753906 6.496094 0.847656 C 6.496094 0.847656 6.496094 2.953125 6.496094 2.953125 C 6.496094 3.023438 6.496094 3.023438 6.589844 3.023438 C 6.589844 3.023438 6.707031 3.023438 6.707031 3.023438 C 6.796875 3.023438 6.796875 3.023438 6.796875 3.160156 C 6.796875 3.160156 6.796875 3.574219 6.796875 3.574219 C 6.796875 3.640625 6.796875 3.664062 6.683594 3.664062 C 6.683594 3.664062 5.363281 3.664062 5.363281 3.664062 C 5.273438 3.664062 5.273438 3.664062 5.273438 3.527344 C 5.273438 3.527344 5.273438 3.113281 5.273438 3.113281 C 5.273438 3.023438 5.273438 3.023438 5.386719 3.023438 C 5.386719 3.023438 5.457031 3.023438 5.457031 3.023438 C 5.527344 3.023438 5.527344 3.023438 5.527344 2.929688 C 5.527344 2.929688 5.527344 2.289062 5.527344 2.289062 C 5.527344 2.128906 5.527344 2.128906 5.410156 2.128906 C 5.410156 2.128906 4.742188 2.128906 4.742188 2.128906 C 4.648438 2.128906 4.625 2.152344 4.625 2.289062 C 4.625 2.289062 4.625 2.929688 4.625 2.929688 C 4.625 3.023438 4.625 3.023438 4.71875 3.023438 C 4.71875 3.023438 4.761719 3.023438 4.761719 3.023438 C 4.878906 3.023438 4.878906 3.023438 4.878906 3.113281 C 4.878906 3.113281 4.878906 3.527344 4.878906 3.527344 C 4.878906 3.640625 4.878906 3.664062 4.785156 3.664062 C 4.785156 3.664062 3.492188 3.664062 3.492188 3.664062 C 3.375 3.664062 3.375 3.664062 3.375 3.574219 C 3.375 3.574219 3.375 3.160156 3.375 3.160156 C 3.375 3.023438 3.375 3.023438 3.46875 3.023438 C 3.46875 3.023438 3.5625 3.023438 3.5625 3.023438 C 3.675781 3.023438 3.675781 3.023438 3.675781 2.953125 Z M 3.675781 2.953125 "/>
<path style=" stroke:none;fill-rule:evenodd;fill:rgb(10.980392%,14.509804%,14.117647%);fill-opacity:1;" d="M 7.722656 0.824219 C 7.722656 0.734375 7.722656 0.734375 7.675781 0.734375 C 7.675781 0.734375 7.539062 0.734375 7.539062 0.734375 C 7.445312 0.734375 7.421875 0.734375 7.421875 0.640625 C 7.421875 0.640625 7.421875 0.230469 7.421875 0.230469 C 7.421875 0.136719 7.445312 0.113281 7.539062 0.113281 C 7.539062 0.113281 8.789062 0.113281 8.789062 0.113281 C 8.925781 0.113281 8.925781 0.136719 8.925781 0.207031 C 8.925781 0.207031 8.925781 0.6875 8.925781 0.6875 C 8.925781 0.753906 8.925781 0.753906 8.808594 0.753906 C 8.808594 0.753906 8.765625 0.753906 8.765625 0.753906 C 8.671875 0.753906 8.671875 0.753906 8.671875 0.847656 C 8.671875 0.847656 8.671875 2.953125 8.671875 2.953125 C 8.671875 3.023438 8.671875 3.023438 8.765625 3.023438 C 8.765625 3.023438 8.855469 3.023438 8.855469 3.023438 C 8.949219 3.023438 8.949219 3.023438 8.949219 3.160156 C 8.949219 3.160156 8.949219 3.574219 8.949219 3.574219 C 8.949219 3.640625 8.949219 3.664062 8.832031 3.664062 C 8.832031 3.664062 7.515625 3.664062 7.515625 3.664062 C 7.445312 3.664062 7.421875 3.664062 7.421875 3.527344 C 7.421875 3.527344 7.421875 3.113281 7.421875 3.113281 C 7.421875 3.023438 7.421875 3.023438 7.539062 3.023438 C 7.539062 3.023438 7.652344 3.023438 7.652344 3.023438 C 7.722656 3.023438 7.722656 3.023438 7.722656 2.929688 C 7.722656 2.929688 7.722656 0.824219 7.722656 0.824219 Z M 7.722656 0.824219 "/>
<path style=" stroke:none;fill-rule:evenodd;fill:rgb(10.980392%,14.509804%,14.117647%);fill-opacity:1;" d="M 11.332031 0.25 C 11.167969 0.0898438 10.9375 0 10.683594 0 C 10.429688 0.0234375 9.433594 0.34375 9.433594 1.808594 C 9.433594 3.25 10.3125 3.734375 10.84375 3.734375 C 11.398438 3.734375 11.933594 3.320312 12.09375 2.609375 C 12.140625 2.519531 12.117188 2.496094 12 2.449219 C 12 2.449219 11.65625 2.3125 11.65625 2.3125 C 11.585938 2.289062 11.585938 2.289062 11.515625 2.425781 C 11.492188 2.519531 11.332031 2.953125 10.984375 2.953125 C 10.613281 2.953125 10.476562 2.425781 10.476562 1.878906 C 10.476562 1.328125 10.566406 0.824219 11.007812 0.824219 C 11.445312 0.824219 11.539062 1.28125 11.5625 1.464844 C 11.585938 1.535156 11.585938 1.535156 11.675781 1.535156 C 11.675781 1.535156 12 1.535156 12 1.535156 C 12.070312 1.535156 12.070312 1.535156 12.070312 1.375 C 12.070312 1.375 12.070312 0.207031 12.070312 0.207031 C 12.070312 0.113281 12.046875 0.113281 11.933594 0.113281 C 11.933594 0.113281 11.632812 0.113281 11.632812 0.113281 C 11.585938 0.113281 11.585938 0.136719 11.539062 0.207031 C 11.515625 0.273438 11.445312 0.320312 11.332031 0.25 Z M 11.332031 0.25 "/>
<path style=" stroke:none;fill-rule:evenodd;fill:rgb(10.980392%,14.509804%,14.117647%);fill-opacity:1;" d="M 3.46875 5.3125 C 3.46875 5.3125 3.46875 7.398438 3.46875 7.398438 C 3.46875 7.464844 3.445312 7.488281 3.375 7.488281 C 3.375 7.488281 3.261719 7.488281 3.261719 7.488281 C 3.191406 7.488281 3.167969 7.488281 3.167969 7.578125 C 3.167969 7.578125 3.167969 8.015625 3.167969 8.015625 C 3.167969 8.105469 3.191406 8.105469 3.285156 8.105469 C 3.285156 8.105469 5.226562 8.105469 5.226562 8.105469 C 5.226562 8.105469 4.554688 7.441406 4.554688 7.441406 C 4.441406 7.441406 4.417969 7.441406 4.417969 7.304688 C 4.417969 7.304688 4.417969 6.710938 4.417969 6.710938 C 4.417969 6.59375 4.441406 6.570312 4.554688 6.570312 C 4.554688 6.570312 4.554688 6.046875 4.554688 6.046875 C 4.417969 6.046875 4.417969 6.023438 4.417969 5.90625 C 4.417969 5.90625 4.417969 5.3125 4.417969 5.3125 C 4.417969 5.175781 4.417969 5.175781 4.554688 5.175781 C 4.671875 5.175781 5.179688 5.199219 5.179688 5.632812 C 5.179688 6.046875 4.71875 6.046875 4.554688 6.046875 C 4.554688 6.046875 4.554688 6.570312 4.554688 6.570312 C 4.695312 6.570312 5.179688 6.59375 5.179688 7.03125 C 5.179688 7.464844 4.71875 7.441406 4.554688 7.441406 C 4.554688 7.441406 5.226562 8.105469 5.226562 8.105469 C 5.710938 8.105469 6.058594 7.671875 6.058594 7.191406 C 6.058594 6.6875 5.757812 6.503906 5.503906 6.320312 C 5.664062 6.160156 5.988281 5.976562 5.988281 5.472656 C 5.988281 4.921875 5.433594 4.578125 5.109375 4.578125 C 5.109375 4.578125 3.328125 4.578125 3.328125 4.578125 C 3.191406 4.578125 3.167969 4.578125 3.167969 4.695312 C 3.167969 4.695312 3.167969 5.128906 3.167969 5.128906 C 3.167969 5.199219 3.167969 5.222656 3.285156 5.222656 C 3.285156 5.222656 3.398438 5.222656 3.398438 5.222656 C 3.46875 5.222656 3.46875 5.222656 3.46875 5.3125 Z M 3.46875 5.3125 "/>
<path style=" stroke:none;fill-rule:evenodd;fill:rgb(10.980392%,14.509804%,14.117647%);fill-opacity:1;" d="M 9.363281 5.289062 C 9.363281 5.289062 9.363281 7.097656 9.363281 7.097656 C 9.363281 7.558594 9.132812 8.222656 8.210938 8.222656 C 7.308594 8.222656 6.867188 7.558594 6.867188 7.097656 C 6.867188 7.097656 6.867188 5.289062 6.867188 5.289062 C 6.867188 5.222656 6.84375 5.222656 6.773438 5.222656 C 6.773438 5.222656 6.660156 5.222656 6.660156 5.222656 C 6.566406 5.222656 6.566406 5.199219 6.566406 5.105469 C 6.566406 5.105469 6.566406 4.71875 6.566406 4.71875 C 6.566406 4.578125 6.566406 4.578125 6.707031 4.578125 C 6.707031 4.578125 7.929688 4.578125 7.929688 4.578125 C 8.023438 4.578125 8.046875 4.578125 8.046875 4.695312 C 8.046875 4.695312 8.046875 5.105469 8.046875 5.105469 C 8.046875 5.199219 8.046875 5.199219 7.910156 5.199219 C 7.910156 5.199219 7.816406 5.199219 7.816406 5.199219 C 7.746094 5.199219 7.746094 5.199219 7.746094 5.265625 C 7.746094 5.265625 7.746094 7.03125 7.746094 7.03125 C 7.746094 7.214844 7.910156 7.535156 8.277344 7.535156 C 8.742188 7.535156 8.832031 7.191406 8.832031 7.03125 C 8.832031 7.03125 8.832031 5.289062 8.832031 5.289062 C 8.832031 5.199219 8.808594 5.199219 8.742188 5.199219 C 8.742188 5.199219 8.648438 5.199219 8.648438 5.199219 C 8.53125 5.199219 8.53125 5.199219 8.53125 5.105469 C 8.53125 5.105469 8.53125 4.695312 8.53125 4.695312 C 8.53125 4.578125 8.53125 4.578125 8.625 4.578125 C 8.625 4.578125 9.550781 4.578125 9.550781 4.578125 C 9.710938 4.578125 9.710938 4.578125 9.710938 4.695312 C 9.710938 4.695312 9.710938 5.105469 9.710938 5.105469 C 9.710938 5.199219 9.710938 5.222656 9.597656 5.222656 C 9.597656 5.222656 9.457031 5.222656 9.457031 5.222656 C 9.386719 5.222656 9.363281 5.222656 9.363281 5.289062 Z M 9.363281 5.289062 "/>
<path style=" stroke:none;fill-rule:evenodd;fill:rgb(10.980392%,14.509804%,14.117647%);fill-opacity:1;" d="M 13.691406 7.488281 C 13.691406 7.488281 13.574219 7.488281 13.574219 7.488281 C 13.480469 7.488281 13.480469 7.488281 13.480469 7.601562 C 13.480469 7.601562 13.480469 8.015625 13.480469 8.015625 C 13.480469 8.105469 13.480469 8.105469 13.574219 8.105469 C 13.574219 8.105469 15.863281 8.105469 15.863281 8.105469 C 15.957031 8.105469 15.980469 8.105469 15.980469 7.96875 C 15.980469 7.96875 15.980469 6.960938 15.980469 6.960938 C 15.980469 6.871094 15.980469 6.847656 15.863281 6.847656 C 15.863281 6.847656 15.539062 6.847656 15.539062 6.847656 C 15.421875 6.847656 15.421875 6.871094 15.421875 6.984375 C 15.421875 6.984375 15.421875 7.351562 15.421875 7.351562 C 15.421875 7.488281 15.421875 7.488281 15.308594 7.488281 C 15.308594 7.488281 14.824219 7.488281 14.824219 7.488281 C 14.660156 7.488281 14.660156 7.464844 14.660156 7.375 C 14.660156 7.375 14.660156 5.335938 14.660156 5.335938 C 14.660156 5.199219 14.660156 5.199219 14.730469 5.199219 C 14.730469 5.199219 14.867188 5.199219 14.867188 5.199219 C 14.960938 5.199219 14.960938 5.175781 14.960938 5.105469 C 14.960938 5.105469 14.960938 4.695312 14.960938 4.695312 C 14.960938 4.578125 14.960938 4.578125 14.847656 4.578125 C 14.847656 4.578125 13.621094 4.578125 13.621094 4.578125 C 13.480469 4.578125 13.480469 4.578125 13.480469 4.695312 C 13.480469 4.695312 13.480469 5.105469 13.480469 5.105469 C 13.480469 5.199219 13.480469 5.222656 13.574219 5.222656 C 13.574219 5.222656 13.691406 5.222656 13.691406 5.222656 C 13.757812 5.222656 13.78125 5.222656 13.78125 5.335938 C 13.78125 5.335938 13.78125 7.375 13.78125 7.375 C 13.78125 7.464844 13.757812 7.488281 13.691406 7.488281 Z M 13.691406 7.488281 "/>
<path style=" stroke:none;fill-rule:evenodd;fill:rgb(10.980392%,14.509804%,14.117647%);fill-opacity:1;" d="M 18.984375 7.121094 C 18.984375 7.878906 18.269531 8.199219 17.96875 8.199219 C 17.734375 8.199219 17.480469 8.105469 17.320312 7.96875 C 17.203125 7.878906 17.113281 7.96875 17.089844 8.015625 C 17.019531 8.105469 17.019531 8.105469 16.972656 8.105469 C 16.972656 8.105469 16.835938 8.105469 16.835938 8.105469 C 16.671875 8.105469 16.671875 8.105469 16.671875 8.039062 C 16.671875 8.039062 16.671875 7.054688 16.671875 7.054688 C 16.671875 6.914062 16.695312 6.914062 16.742188 6.914062 C 16.742188 6.914062 16.972656 6.914062 16.972656 6.914062 C 17.066406 6.914062 17.066406 6.914062 17.089844 6.984375 C 17.136719 7.191406 17.367188 7.464844 17.714844 7.464844 C 17.898438 7.464844 18.035156 7.417969 18.035156 7.257812 C 18.035156 6.9375 17.851562 6.871094 17.503906 6.6875 C 17.15625 6.503906 16.625 6.296875 16.625 5.542969 C 16.625 4.808594 17.320312 4.488281 17.621094 4.488281 C 17.851562 4.488281 18.082031 4.578125 18.246094 4.71875 C 18.359375 4.808594 18.453125 4.71875 18.476562 4.671875 C 18.523438 4.558594 18.523438 4.558594 18.570312 4.558594 C 18.570312 4.558594 18.730469 4.558594 18.730469 4.558594 C 18.871094 4.558594 18.871094 4.558594 18.871094 4.648438 C 18.871094 4.648438 18.871094 5.609375 18.871094 5.609375 C 18.871094 5.769531 18.871094 5.769531 18.800781 5.769531 C 18.800781 5.769531 18.59375 5.769531 18.59375 5.769531 C 18.5 5.769531 18.5 5.769531 18.476562 5.703125 C 18.40625 5.496094 18.175781 5.222656 17.804688 5.222656 C 17.644531 5.222656 17.550781 5.3125 17.550781 5.449219 C 17.550781 5.65625 17.78125 5.839844 18.199219 6.023438 C 18.59375 6.207031 18.984375 6.503906 18.984375 7.121094 Z M 18.984375 7.121094 "/>
<path style=" stroke:none;fill-rule:evenodd;fill:rgb(10.980392%,14.509804%,14.117647%);fill-opacity:1;" d="M 10.519531 7.488281 C 10.519531 7.488281 10.40625 7.488281 10.40625 7.488281 C 10.3125 7.488281 10.3125 7.488281 10.3125 7.601562 C 10.3125 7.601562 10.3125 8.015625 10.3125 8.015625 C 10.3125 8.105469 10.3125 8.105469 10.40625 8.105469 C 10.40625 8.105469 12.695312 8.105469 12.695312 8.105469 C 12.789062 8.105469 12.8125 8.105469 12.8125 7.96875 C 12.8125 7.96875 12.8125 6.960938 12.8125 6.960938 C 12.8125 6.871094 12.8125 6.847656 12.695312 6.847656 C 12.695312 6.847656 12.371094 6.847656 12.371094 6.847656 C 12.253906 6.847656 12.253906 6.871094 12.253906 6.984375 C 12.253906 6.984375 12.253906 7.351562 12.253906 7.351562 C 12.253906 7.488281 12.253906 7.488281 12.140625 7.488281 C 12.140625 7.488281 11.65625 7.488281 11.65625 7.488281 C 11.492188 7.488281 11.492188 7.464844 11.492188 7.375 C 11.492188 7.375 11.492188 5.335938 11.492188 5.335938 C 11.492188 5.199219 11.492188 5.199219 11.5625 5.199219 C 11.5625 5.199219 11.699219 5.199219 11.699219 5.199219 C 11.792969 5.199219 11.792969 5.175781 11.792969 5.105469 C 11.792969 5.105469 11.792969 4.695312 11.792969 4.695312 C 11.792969 4.578125 11.792969 4.578125 11.675781 4.578125 C 11.675781 4.578125 10.453125 4.578125 10.453125 4.578125 C 10.3125 4.578125 10.3125 4.578125 10.3125 4.695312 C 10.3125 4.695312 10.3125 5.105469 10.3125 5.105469 C 10.3125 5.199219 10.3125 5.222656 10.40625 5.222656 C 10.40625 5.222656 10.519531 5.222656 10.519531 5.222656 C 10.589844 5.222656 10.613281 5.222656 10.613281 5.335938 C 10.613281 5.335938 10.613281 7.375 10.613281 7.375 C 10.613281 7.464844 10.589844 7.488281 10.519531 7.488281 Z M 10.519531 7.488281 "/>
<path style=" stroke:none;fill-rule:evenodd;fill:rgb(100%,100%,100%);fill-opacity:1;" d="M 2.359375 8.792969 C 2.84375 9.730469 3.863281 10.054688 4.878906 10.007812 C 5.457031 10.007812 6.011719 9.9375 6.566406 9.894531 C 6.566406 9.894531 6.566406 9.9375 6.566406 9.9375 C 6.289062 10.738281 6.082031 11.5625 5.964844 12.410156 C 4.484375 12.457031 2.984375 12.34375 1.871094 11.359375 C 1.132812 10.625 0.949219 9.59375 1.109375 8.585938 C 1.296875 8.382812 1.480469 8.199219 1.640625 7.992188 C 1.894531 8.242188 2.289062 8.449219 2.359375 8.792969 Z M 2.359375 8.792969 "/>
<path style=" stroke:none;fill-rule:evenodd;fill:rgb(100%,100%,100%);fill-opacity:1;" d="M 20.765625 8.359375 C 20.8125 8.519531 20.8125 8.65625 20.835938 8.792969 C 20.902344 9.9375 20.417969 10.96875 19.425781 11.542969 C 18.359375 12.183594 17.136719 12.410156 15.839844 12.433594 C 15.816406 12.320312 15.792969 12.160156 15.792969 12.046875 C 15.679688 11.289062 15.539062 10.535156 15.332031 9.824219 C 16.71875 9.824219 18.429688 10.191406 19.355469 8.90625 C 19.46875 8.726562 19.585938 8.566406 19.703125 8.382812 C 19.910156 8.289062 20.117188 8.152344 20.304688 8.0625 C 20.464844 8.128906 20.605469 8.265625 20.765625 8.359375 Z M 20.765625 8.359375 "/>
<path style=" stroke:none;fill-rule:evenodd;fill:rgb(100%,100%,100%);fill-opacity:1;" d="M 15.46875 14.082031 C 15.46875 14.519531 15.332031 14.953125 14.9375 15.160156 C 14.753906 15.25 14.546875 15.296875 14.335938 15.296875 C 14.3125 15.25 14.3125 15.207031 14.335938 15.160156 C 14.636719 15.160156 14.960938 15.046875 15.125 14.792969 C 15.238281 14.609375 15.285156 14.382812 15.285156 14.152344 C 15.332031 14.105469 15.402344 14.082031 15.46875 14.082031 Z M 15.46875 14.082031 "/>
<path style=" stroke:none;fill-rule:evenodd;fill:rgb(100%,100%,100%);fill-opacity:1;" d="M 7.585938 15.25 C 7.515625 15.25 7.492188 15.273438 7.375 15.25 C 6.867188 15.25 6.335938 14.839844 6.359375 14.152344 C 6.429688 14.128906 6.496094 14.128906 6.542969 14.152344 C 6.542969 14.542969 6.707031 15.089844 7.5625 15.089844 C 7.609375 15.183594 7.5625 15.183594 7.585938 15.25 Z M 7.585938 15.25 "/>
</g>
</svg>
