<?xml version="1.0" encoding="UTF-8"?>
<svg xmlns="http://www.w3.org/2000/svg" xmlns:xlink="http://www.w3.org/1999/xlink" width="17pt" height="23pt" viewBox="0 0 17 23" version="1.1">
<g id="surface1">
<path style=" stroke:none;fill-rule:nonzero;fill:rgb(100%,100%,100%);fill-opacity:1;" d="M 15.132812 7.394531 L 1.8125 7.398438 L 8.699219 23 L 15.570312 7.394531 L 15.132812 7.394531 "/>
<path style=" stroke:none;fill-rule:nonzero;fill:rgb(73.72549%,79.215686%,83.921569%);fill-opacity:1;" d="M 15.132812 7.394531 L 1.8125 7.398438 L 8.699219 23 L 15.566406 7.394531 L 15.132812 7.394531 M 8.699219 22.292969 L 2.246094 7.679688 L 15.132812 7.675781 Z M 8.699219 22.292969 "/>
<path style=" stroke:none;fill-rule:nonzero;fill:rgb(73.72549%,79.215686%,83.921569%);fill-opacity:1;" d="M 2.246094 7.679688 L 15.132812 7.675781 L 8.699219 22.292969 L 2.246094 7.679688 "/>
<path style=" stroke:none;fill-rule:nonzero;fill:rgb(76.862745%,12.54902%,19.607843%);fill-opacity:1;" d="M 2.246094 7.679688 L 4.566406 7.679688 C 5.421875 8.925781 6.425781 8.773438 6.425781 8.773438 C 6.511719 9.15625 6.585938 9.257812 6.585938 9.257812 C 6.472656 9.8125 6.578125 10.132812 6.578125 10.132812 C 6.378906 10.839844 6.480469 11.304688 6.480469 11.304688 C 5.960938 11.609375 5.863281 12.339844 5.863281 12.339844 C 5.191406 12.757812 4.816406 13.507812 4.816406 13.507812 L 2.246094 7.679688 "/>
<path style=" stroke:none;fill-rule:nonzero;fill:rgb(76.862745%,12.54902%,19.607843%);fill-opacity:1;" d="M 15.132812 7.675781 L 12.863281 7.675781 C 12.144531 8.84375 11.054688 8.757812 11.054688 8.757812 C 11.0625 9.019531 10.929688 9.207031 10.929688 9.207031 C 11.070312 9.742188 10.960938 10.074219 10.960938 10.074219 C 11.140625 10.515625 11.097656 11.238281 11.097656 11.238281 C 11.761719 11.730469 11.761719 12.28125 11.761719 12.28125 C 12.492188 12.9375 12.601562 13.414062 12.601562 13.414062 L 15.132812 7.675781 "/>
<path style=" stroke:none;fill-rule:nonzero;fill:rgb(73.72549%,79.215686%,83.921569%);fill-opacity:1;" d="M 15.882812 13.320312 L 13.691406 13.320312 C 10.316406 13.324219 3.882812 13.328125 3.6875 13.320312 L 1.023438 13.320312 L 0.0195312 14.679688 L 0.0195312 17.3125 L 0 18.234375 L 0 20.046875 L 1.011719 21.382812 L 15.996094 21.382812 L 17 20.023438 L 17 17.390625 L 17.015625 16.464844 L 17.015625 14.660156 L 16.003906 13.320312 L 15.882812 13.320312 M 3.671875 13.792969 L 3.660156 13.789062 C 3.746094 13.796875 3.875 13.796875 4.105469 13.796875 L 5.238281 13.800781 L 8.683594 13.800781 L 13.691406 13.792969 L 15.757812 13.792969 C 15.878906 13.953125 16.492188 14.765625 16.527344 14.8125 L 16.527344 16.460938 L 16.507812 17.382812 L 16.507812 19.871094 C 16.457031 19.941406 15.863281 20.75 15.746094 20.90625 L 1.257812 20.90625 C 1.136719 20.75 0.523438 19.9375 0.488281 19.890625 L 0.488281 18.242188 L 0.480469 18.25 C 0.488281 18.199219 0.488281 18.148438 0.492188 18.101562 L 0.507812 17.316406 L 0.507812 14.832031 C 0.558594 14.761719 1.152344 13.953125 1.269531 13.792969 Z M 3.671875 13.792969 "/>
<path style=" stroke:none;fill-rule:nonzero;fill:rgb(73.72549%,79.215686%,83.921569%);fill-opacity:1;" d="M 12.898438 3.183594 C 13.054688 3.410156 13.074219 3.621094 13.074219 3.691406 L 13.074219 3.714844 C 13.050781 3.925781 12.988281 4.097656 12.910156 4.230469 C 12.9375 3.980469 12.945312 3.765625 12.945312 3.75 C 12.941406 3.539062 12.921875 3.347656 12.898438 3.183594 M 10.820312 7.019531 C 10.789062 7.054688 10.710938 7.101562 10.660156 7.105469 C 10.6875 7.074219 10.742188 7.019531 10.878906 6.960938 L 10.898438 6.949219 C 10.871094 6.976562 10.851562 6.992188 10.820312 7.019531 M 6.628906 7.136719 C 6.488281 7.085938 6.421875 7.015625 6.402344 6.988281 C 6.550781 7.046875 6.617188 7.101562 6.644531 7.132812 Z M 4.195312 3.792969 C 4.191406 3.789062 4.191406 3.78125 4.191406 3.761719 C 4.191406 3.683594 4.210938 3.480469 4.359375 3.261719 C 4.339844 3.421875 4.324219 3.613281 4.324219 3.820312 C 4.324219 3.839844 4.335938 4.054688 4.363281 4.304688 C 4.289062 4.171875 4.21875 4.003906 4.195312 3.792969 M 13.539062 4.847656 C 13.550781 4.832031 13.949219 4.304688 13.949219 3.628906 C 13.949219 3.558594 13.945312 3.484375 13.9375 3.414062 C 13.929688 3.335938 13.566406 0.945312 11.484375 0.117188 C 12.53125 1.417969 12.71875 1.875 12.847656 2.246094 C 12.667969 2.132812 12.527344 2.0625 12.464844 2.03125 C 11.441406 0.078125 10.160156 0.0195312 10.121094 0 C 10.84375 0.585938 11.496094 1.5 11.621094 1.746094 C 10.929688 1.480469 9.941406 1.507812 9.886719 1.515625 L 10.625 1.851562 C 11.371094 2.171875 11.769531 2.382812 11.894531 2.457031 C 12.027344 2.832031 12.066406 3.242188 12.066406 3.574219 C 12.066406 3.972656 12.015625 4.265625 12.011719 4.273438 C 11.792969 5.292969 11.078125 5.808594 10.707031 6.011719 C 10.710938 5.957031 10.71875 5.898438 10.71875 5.847656 C 10.71875 4.691406 10.050781 4.09375 10.019531 4.066406 C 9.507812 3.558594 8.902344 3.46875 8.875 3.460938 L 9.242188 3.898438 C 9.757812 4.492188 9.898438 5.0625 9.898438 5.519531 C 9.898438 5.914062 9.792969 6.214844 9.726562 6.371094 C 8.695312 6.046875 7.808594 6.257812 7.476562 6.367188 C 7.339844 6.089844 7.285156 5.8125 7.28125 5.550781 C 7.265625 4.453125 8.300781 3.449219 8.308594 3.441406 C 6.664062 3.855469 6.472656 5.257812 6.472656 5.863281 C 6.472656 5.914062 6.476562 5.960938 6.480469 6.007812 C 5.355469 5.375 5.089844 4.378906 5.089844 3.601562 C 5.089844 3.082031 5.203125 2.667969 5.246094 2.523438 C 5.929688 2.082031 7.324219 1.550781 7.332031 1.546875 C 6.601562 1.539062 5.839844 1.671875 5.523438 1.800781 C 6.09375 0.707031 7.027344 0.00390625 7.03125 0 C 5.574219 0.207031 4.777344 1.859375 4.664062 2.117188 C 4.507812 2.179688 4.371094 2.253906 4.257812 2.320312 C 4.59375 1.304688 5.574219 0.113281 5.582031 0.105469 C 3.3125 1.214844 3.1875 3.355469 3.1875 3.628906 C 3.1875 3.648438 3.1875 3.660156 3.1875 3.664062 C 3.214844 4.398438 3.632812 4.902344 3.652344 4.921875 C 4.132812 5.566406 4.871094 6.101562 5.460938 6.46875 L 5.453125 6.46875 C 4.832031 6.28125 4.300781 6.222656 4.28125 6.21875 C 4.121094 6.210938 4.046875 6.273438 4.011719 6.324219 C 3.9375 6.4375 3.996094 6.5625 4.007812 6.582031 C 4.867188 8.640625 6.015625 8.75 6.457031 8.707031 C 6.5 8.972656 6.59375 9.191406 6.636719 9.285156 C 6.582031 9.492188 6.554688 9.65625 6.554688 9.777344 C 6.554688 9.964844 6.613281 10.058594 6.675781 10.105469 C 6.660156 10.136719 6.644531 10.167969 6.644531 10.167969 C 6.539062 10.386719 6.511719 10.71875 6.511719 10.992188 C 6.511719 11.148438 6.519531 11.28125 6.527344 11.363281 C 6.027344 11.734375 5.910156 12.238281 5.890625 12.417969 C 5.207031 12.957031 4.945312 13.535156 4.929688 13.558594 L 4.835938 13.777344 L 12.570312 13.777344 L 12.507812 13.578125 C 12.316406 12.964844 11.820312 12.519531 11.652344 12.382812 C 11.628906 11.808594 11.15625 11.429688 10.96875 11.300781 C 10.96875 11.261719 10.96875 11.21875 10.96875 11.179688 C 10.96875 10.402344 10.863281 10.175781 10.792969 10.113281 L 10.789062 10.105469 L 10.851562 10.074219 L 10.863281 9.996094 C 10.871094 9.941406 10.875 9.878906 10.875 9.8125 C 10.875 9.578125 10.828125 9.335938 10.808594 9.242188 C 10.914062 8.976562 10.960938 8.796875 10.980469 8.675781 C 11.332031 8.703125 12.113281 8.640625 12.710938 7.738281 C 12.726562 7.710938 13.132812 7.085938 13.28125 6.542969 C 13.296875 6.507812 13.320312 6.449219 13.320312 6.378906 C 13.320312 6.332031 13.308594 6.28125 13.277344 6.238281 C 13.246094 6.195312 13.167969 6.125 13.011719 6.148438 L 12.59375 6.210938 C 12.566406 6.214844 12.179688 6.289062 11.773438 6.429688 C 12.375 6.039062 13.128906 5.464844 13.539062 4.847656 "/>
<path style=" stroke:none;fill-rule:nonzero;fill:rgb(6.27451%,27.45098%,13.333333%);fill-opacity:1;" d="M 8.84375 13.621094 L 12.355469 13.621094 C 12.140625 12.9375 11.496094 12.460938 11.496094 12.460938 C 11.523438 11.792969 10.8125 11.382812 10.8125 11.382812 C 10.832031 10.363281 10.683594 10.222656 10.683594 10.222656 C 10.164062 10.496094 10.066406 11.070312 10.066406 11.070312 L 9.972656 11.007812 C 10.039062 10.332031 10.707031 9.976562 10.707031 9.976562 C 10.75 9.679688 10.644531 9.234375 10.644531 9.234375 C 10.871094 8.667969 10.835938 8.503906 10.835938 8.503906 C 10.835938 8.503906 11.855469 8.75 12.578125 7.652344 C 12.578125 7.652344 12.988281 7.023438 13.128906 6.496094 C 13.128906 6.496094 13.25 6.269531 13.035156 6.296875 C 13.035156 6.296875 12.957031 6.3125 12.617188 6.363281 C 12.617188 6.363281 11.921875 6.488281 11.433594 6.742188 C 11.433594 6.742188 11.292969 6.757812 10.9375 7.125 C 10.9375 7.125 10.671875 7.378906 10.511719 7.1875 C 10.511719 7.1875 10.386719 7.011719 10.8125 6.820312 C 10.8125 6.820312 12.683594 5.855469 13.40625 4.765625 C 13.40625 4.765625 13.875 4.152344 13.78125 3.433594 C 13.78125 3.433594 13.566406 1.582031 12.039062 0.585938 C 12.949219 1.625 13.117188 2.609375 13.117188 2.609375 C 12.707031 2.3125 12.351562 2.148438 12.351562 2.148438 C 11.664062 0.773438 10.695312 0.332031 10.695312 0.332031 C 11.855469 1.496094 11.882812 1.988281 11.882812 1.988281 C 10.914062 1.664062 10.6875 1.707031 10.6875 1.707031 C 11.636719 2.117188 12.03125 2.355469 12.03125 2.355469 C 12.359375 3.246094 12.167969 4.296875 12.167969 4.296875 C 11.847656 5.785156 10.53125 6.269531 10.53125 6.269531 C 10.722656 4.882812 9.914062 4.179688 9.914062 4.179688 C 9.601562 3.875 9.363281 3.796875 9.363281 3.796875 C 10.59375 5.214844 9.808594 6.558594 9.808594 6.558594 C 8.511719 6.089844 7.398438 6.558594 7.398438 6.558594 C 6.585938 5.171875 7.8125 3.78125 7.8125 3.78125 C 6.316406 4.542969 6.664062 6.285156 6.664062 6.285156 C 4.164062 5.140625 5.113281 2.421875 5.113281 2.421875 C 5.855469 1.972656 6.429688 1.769531 6.429688 1.769531 C 6.082031 1.757812 5.238281 2.054688 5.238281 2.054688 C 5.636719 1.003906 6.445312 0.332031 6.445312 0.332031 C 5.324219 0.890625 4.785156 2.234375 4.785156 2.234375 C 4.3125 2.414062 4.007812 2.695312 4.007812 2.695312 C 4.164062 1.648438 5.015625 0.625 5.015625 0.625 C 3.285156 1.839844 3.347656 3.660156 3.347656 3.660156 C 3.371094 4.347656 3.773438 4.824219 3.773438 4.824219 C 4.660156 6.007812 6.464844 6.847656 6.464844 6.847656 C 6.898438 7.015625 6.804688 7.195312 6.804688 7.195312 C 6.699219 7.339844 6.570312 7.28125 6.570312 7.28125 C 6.335938 7.195312 6.253906 7.050781 6.253906 7.050781 C 5.925781 6.726562 5.417969 6.617188 5.417969 6.617188 C 4.792969 6.429688 4.261719 6.371094 4.261719 6.371094 C 4.070312 6.363281 4.148438 6.515625 4.148438 6.515625 C 5.175781 8.96875 6.597656 8.527344 6.597656 8.527344 C 6.621094 8.925781 6.804688 9.265625 6.804688 9.265625 C 6.621094 9.886719 6.769531 9.980469 6.769531 9.980469 C 7.535156 10.539062 7.519531 11.058594 7.519531 11.058594 L 7.457031 11.210938 C 7.265625 10.449219 6.789062 10.234375 6.789062 10.234375 C 6.601562 10.609375 6.691406 11.433594 6.691406 11.433594 C 6.066406 11.839844 6.039062 12.492188 6.039062 12.492188 C 5.339844 13.03125 5.078125 13.621094 5.078125 13.621094 L 8.023438 13.621094 M 13.230469 3.730469 C 13.15625 4.445312 12.65625 4.75 12.65625 4.75 C 12.769531 4.398438 12.789062 3.746094 12.789062 3.746094 C 12.777344 3.1875 12.648438 2.734375 12.648438 2.734375 C 13.28125 3.144531 13.230469 3.730469 13.230469 3.730469 M 4.035156 3.808594 C 4.035156 3.808594 3.976562 3.226562 4.605469 2.808594 C 4.605469 2.808594 4.480469 3.257812 4.480469 3.820312 C 4.480469 3.820312 4.507812 4.472656 4.628906 4.820312 C 4.628906 4.820312 4.125 4.523438 4.035156 3.808594 "/>
<path style=" stroke:none;fill-rule:nonzero;fill:rgb(100%,100%,100%);fill-opacity:1;" d="M 7.796875 7.117188 L 7.640625 6.949219 C 7.542969 7.222656 7.253906 7.394531 7.253906 7.394531 C 7.578125 7.464844 7.796875 7.117188 7.796875 7.117188 "/>
<path style=" stroke:none;fill-rule:nonzero;fill:rgb(100%,100%,100%);fill-opacity:1;" d="M 9.5625 7.070312 L 9.742188 6.921875 C 9.796875 7.207031 10.0625 7.417969 10.0625 7.417969 C 9.726562 7.445312 9.5625 7.070312 9.5625 7.070312 "/>
<path style=" stroke:none;fill-rule:nonzero;fill:rgb(100%,100%,100%);fill-opacity:1;" d="M 10.972656 12.410156 C 10.972656 12.410156 11.144531 12.488281 11.175781 12.5 C 11.171875 12.535156 11.140625 13.210938 10.605469 13.625 C 10.585938 13.609375 10.429688 13.746094 10.429688 13.746094 C 10.429688 13.746094 10.785156 13.429688 10.882812 13.019531 L 10.726562 13.019531 C 10.75 12.960938 10.917969 12.820312 10.972656 12.410156 "/>
<path style=" stroke:none;fill-rule:nonzero;fill:rgb(100%,100%,100%);fill-opacity:1;" d="M 6.164062 7.855469 C 6.164062 7.855469 6.324219 7.710938 6.625 7.792969 C 6.609375 7.824219 6.566406 8.1875 6.582031 8.242188 C 6.464844 8.277344 5.296875 8.445312 4.6875 6.871094 C 4.71875 6.847656 5.496094 6.769531 6.164062 7.851562 "/>
<path style=" stroke:none;fill-rule:nonzero;fill:rgb(100%,100%,100%);fill-opacity:1;" d="M 11.269531 7.851562 C 11.269531 7.851562 11.105469 7.707031 10.808594 7.796875 C 10.824219 7.824219 10.890625 8.183594 10.875 8.238281 C 10.996094 8.269531 12.144531 8.433594 12.730469 6.851562 C 12.699219 6.828125 11.921875 6.757812 11.269531 7.847656 "/>
<path style=" stroke:none;fill-rule:nonzero;fill:rgb(100%,100%,100%);fill-opacity:1;" d="M 6.492188 12.425781 C 6.492188 12.425781 6.578125 12.332031 6.722656 12.238281 C 6.730469 12.277344 6.757812 12.789062 7.125 13.21875 C 7.097656 13.277344 7.066406 13.292969 7.066406 13.292969 C 7.066406 13.292969 6.722656 13.054688 6.492188 12.425781 "/>
<path style=" stroke:none;fill-rule:nonzero;fill:rgb(100%,100%,100%);fill-opacity:1;" d="M 7.746094 8.316406 C 7.335938 8.28125 7.144531 8.128906 7.144531 8.128906 L 7.023438 8.179688 C 6.746094 8.628906 7.09375 8.980469 7.09375 8.980469 C 7.363281 9.234375 7.738281 9.128906 7.738281 9.128906 C 7.65625 9.378906 7.71875 9.4375 7.71875 9.4375 C 7.78125 9.234375 7.988281 9.03125 7.988281 9.03125 C 7.738281 8.613281 7.746094 8.316406 7.746094 8.316406 "/>
<path style=" stroke:none;fill-rule:nonzero;fill:rgb(100%,100%,100%);fill-opacity:1;" d="M 9.703125 8.308594 C 10.109375 8.261719 10.296875 8.101562 10.296875 8.101562 L 10.421875 8.148438 C 10.714844 8.589844 10.378906 8.949219 10.378906 8.949219 C 10.117188 9.214844 9.738281 9.125 9.738281 9.125 C 9.824219 9.367188 9.765625 9.429688 9.765625 9.429688 C 9.699219 9.226562 9.480469 9.03125 9.480469 9.03125 C 9.71875 8.605469 9.703125 8.308594 9.703125 8.308594 "/>
<path style=" stroke:none;fill-rule:nonzero;fill:rgb(6.27451%,27.45098%,13.333333%);fill-opacity:1;" d="M 7.640625 8.402344 C 7.371094 8.375 7.152344 8.28125 7.152344 8.28125 C 6.976562 8.597656 7.136719 8.773438 7.136719 8.773438 C 7.328125 9.128906 7.832031 8.96875 7.832031 8.96875 C 7.648438 8.679688 7.640625 8.402344 7.640625 8.402344 "/>
<path style=" stroke:none;fill-rule:nonzero;fill:rgb(6.27451%,27.45098%,13.333333%);fill-opacity:1;" d="M 9.832031 8.410156 C 10.101562 8.382812 10.320312 8.289062 10.320312 8.289062 C 10.492188 8.605469 10.335938 8.78125 10.335938 8.78125 C 10.144531 9.140625 9.640625 8.980469 9.640625 8.980469 C 9.820312 8.691406 9.832031 8.410156 9.832031 8.410156 "/>
<path style=" stroke:none;fill-rule:nonzero;fill:rgb(100%,100%,100%);fill-opacity:1;" d="M 9.050781 9.328125 L 8.492188 9.328125 C 8.371094 9.707031 7.996094 9.785156 7.996094 9.785156 C 7.753906 9.964844 7.761719 10.457031 7.761719 10.457031 C 7.851562 11.007812 8.066406 11.085938 8.066406 11.085938 C 8.214844 10.933594 8.441406 10.863281 8.441406 10.863281 L 8.421875 10.804688 C 8.164062 10.847656 8.09375 10.90625 8.09375 10.90625 C 7.753906 10.40625 8.085938 9.925781 8.085938 9.925781 C 8.46875 9.824219 8.546875 9.566406 8.546875 9.566406 L 9.023438 9.566406 C 9.148438 9.851562 9.480469 9.902344 9.480469 9.902344 C 9.863281 10.464844 9.503906 10.933594 9.503906 10.933594 C 9.3125 10.832031 9.199219 10.839844 9.199219 10.839844 L 9.15625 10.914062 C 9.339844 10.949219 9.546875 11.109375 9.546875 11.109375 C 9.816406 10.941406 9.800781 10.5 9.800781 10.5 C 9.78125 9.886719 9.589844 9.777344 9.589844 9.777344 C 9.199219 9.726562 9.050781 9.328125 9.050781 9.328125 "/>
<path style=" stroke:none;fill-rule:nonzero;fill:rgb(100%,100%,100%);fill-opacity:1;" d="M 9.308594 10.117188 C 9.332031 10.484375 9.121094 10.566406 9.121094 10.566406 C 9.066406 10.496094 9.058594 10.34375 9.058594 10.34375 C 9.167969 10.289062 9.308594 10.117188 9.308594 10.117188 "/>
<path style=" stroke:none;fill-rule:nonzero;fill:rgb(100%,100%,100%);fill-opacity:1;" d="M 8.246094 10.136719 C 8.21875 10.507812 8.421875 10.566406 8.421875 10.566406 C 8.476562 10.496094 8.484375 10.34375 8.484375 10.34375 C 8.375 10.289062 8.246094 10.136719 8.246094 10.136719 "/>
<path style=" stroke:none;fill-rule:nonzero;fill:rgb(100%,100%,100%);fill-opacity:1;" d="M 9.28125 11.332031 C 9.019531 11.183594 8.789062 11.203125 8.789062 11.203125 C 8.480469 11.207031 8.292969 11.339844 8.292969 11.339844 L 8.34375 11.429688 C 8.492188 11.3125 8.789062 11.308594 8.789062 11.308594 C 9.101562 11.3125 9.226562 11.425781 9.226562 11.425781 L 9.28125 11.332031 "/>
<path style=" stroke:none;fill-rule:nonzero;fill:rgb(100%,100%,100%);fill-opacity:1;" d="M 8.023438 13.621094 C 8.167969 13.351562 8.449219 13.171875 8.449219 13.171875 L 8.285156 13.015625 C 8.175781 13.050781 7.992188 13.164062 7.992188 13.164062 L 7.980469 13.046875 L 8.179688 12.9375 L 7.960938 12.792969 C 7.898438 12.078125 7.511719 11.691406 7.511719 11.691406 L 7.714844 11.449219 C 8.285156 12.148438 8.613281 12.125 8.613281 12.125 C 8.730469 12.113281 9.078125 12.117188 9.078125 12.117188 C 9.207031 12.121094 9.347656 12.023438 9.347656 12.023438 C 9.773438 11.703125 9.875 11.519531 9.875 11.519531 L 10.007812 11.6875 C 9.449219 12.425781 9.898438 13.382812 9.898438 13.382812 C 9.25 13.515625 8.84375 13.621094 8.84375 13.621094 L 8.023438 13.621094 "/>
<path style=" stroke:none;fill-rule:nonzero;fill:rgb(6.27451%,27.45098%,13.333333%);fill-opacity:1;" d="M 13.34375 21.144531 L 15.871094 21.144531 C 15.960938 21.019531 16.695312 20.03125 16.753906 19.949219 L 16.753906 17.390625 L 16.773438 16.460938 L 16.773438 14.734375 C 16.710938 14.652344 15.972656 13.679688 15.882812 13.558594 L 1.144531 13.558594 C 1.054688 13.683594 0.320312 14.675781 0.261719 14.753906 L 0.261719 17.3125 L 0.242188 18.242188 L 0.242188 19.964844 C 0.304688 20.046875 1.042969 21.023438 1.136719 21.144531 L 13.34375 21.144531 "/>
<path style=" stroke:none;fill-rule:nonzero;fill:rgb(76.862745%,12.54902%,19.607843%);fill-opacity:1;" d="M 8.296875 21.382812 L 8.699219 22.292969 L 9.097656 21.382812 L 8.296875 21.382812 "/>
<path style=" stroke:none;fill-rule:nonzero;fill:rgb(100%,100%,100%);fill-opacity:1;" d="M 5.105469 14.875 L 4.925781 14.875 L 4.65625 14.054688 L 4.652344 14.054688 L 4.65625 14.875 L 4.453125 14.875 L 4.453125 13.917969 L 4.808594 13.917969 L 5.019531 14.613281 L 5.25 13.917969 L 5.59375 13.917969 L 5.59375 14.871094 L 5.390625 14.875 L 5.390625 14.054688 L 5.386719 14.054688 L 5.105469 14.875 "/>
<path style=" stroke:none;fill-rule:nonzero;fill:rgb(100%,100%,100%);fill-opacity:1;" d="M 6.097656 14.871094 L 5.882812 14.871094 L 5.878906 13.917969 L 6.097656 13.914062 L 6.097656 14.871094 "/>
<path style=" stroke:none;fill-rule:nonzero;fill:rgb(100%,100%,100%);fill-opacity:1;" d="M 6.34375 14.871094 L 6.34375 13.914062 L 6.558594 13.914062 L 6.5625 14.710938 L 7 14.710938 L 7 14.867188 L 6.34375 14.871094 "/>
<path style=" stroke:none;fill-rule:nonzero;fill:rgb(100%,100%,100%);fill-opacity:1;" d="M 7.570312 13.914062 L 7.8125 13.914062 L 7.992188 14.628906 L 8.15625 13.914062 L 8.363281 13.910156 L 8.105469 14.867188 L 7.863281 14.867188 L 7.683594 14.140625 L 7.679688 14.140625 L 7.488281 14.867188 L 7.238281 14.867188 L 6.992188 13.914062 L 7.21875 13.914062 L 7.371094 14.628906 L 7.375 14.628906 L 7.570312 13.914062 "/>
<path style=" stroke:none;fill-rule:nonzero;fill:rgb(100%,100%,100%);fill-opacity:1;" d="M 10.234375 13.910156 L 10.234375 14.507812 C 10.234375 14.761719 10.042969 14.882812 9.800781 14.882812 C 9.554688 14.882812 9.363281 14.761719 9.363281 14.507812 L 9.363281 13.910156 L 9.578125 13.910156 L 9.578125 14.425781 C 9.578125 14.589844 9.585938 14.734375 9.796875 14.734375 C 10.011719 14.734375 10.019531 14.589844 10.019531 14.425781 L 10.019531 13.910156 L 10.234375 13.910156 "/>
<path style=" stroke:none;fill-rule:nonzero;fill:rgb(100%,100%,100%);fill-opacity:1;" d="M 10.660156 14.320312 L 10.664062 14.320312 L 11 13.910156 L 11.253906 13.90625 L 10.882812 14.335938 L 11.285156 14.863281 L 11.015625 14.863281 L 10.664062 14.375 L 10.660156 14.375 L 10.660156 14.863281 L 10.449219 14.863281 L 10.445312 13.910156 L 10.660156 13.910156 L 10.660156 14.320312 "/>
<path style=" stroke:none;fill-rule:nonzero;fill:rgb(100%,100%,100%);fill-opacity:1;" d="M 11.421875 13.90625 L 12.097656 13.90625 L 12.097656 14.066406 L 11.636719 14.066406 L 11.636719 14.289062 L 12.066406 14.289062 L 12.066406 14.445312 L 11.636719 14.449219 L 11.636719 14.703125 L 12.113281 14.703125 L 12.113281 14.859375 L 11.421875 14.863281 L 11.421875 13.90625 "/>
<path style=" stroke:none;fill-rule:nonzero;fill:rgb(100%,100%,100%);fill-opacity:1;" d="M 12.3125 13.90625 L 12.988281 13.90625 L 12.988281 14.0625 L 12.527344 14.0625 L 12.527344 14.285156 L 12.957031 14.285156 L 12.957031 14.445312 L 12.527344 14.445312 L 12.527344 14.699219 L 13.003906 14.699219 L 13.003906 14.859375 L 12.3125 14.859375 L 12.3125 13.90625 "/>
<path style=" stroke:none;fill-rule:nonzero;fill:rgb(100%,100%,100%);fill-opacity:1;" d="M 8.351562 14.863281 L 8.710938 13.910156 L 8.96875 13.910156 L 9.320312 14.863281 L 9.105469 14.863281 L 9.03125 14.664062 L 8.632812 14.664062 L 8.558594 14.863281 L 8.351562 14.863281 M 8.980469 14.503906 L 8.835938 14.097656 L 8.6875 14.503906 Z M 8.980469 14.503906 "/>
<path style=" stroke:none;fill-rule:nonzero;fill:rgb(76.862745%,12.54902%,19.607843%);fill-opacity:1;" d="M 3.902344 15.125 L 3.359375 14.4375 L 1.460938 14.582031 L 1.449219 15.164062 L 1.703125 15.167969 L 1.703125 19.550781 L 1.472656 19.550781 L 1.429688 20.105469 L 3.464844 20.273438 L 3.902344 19.660156 L 3.902344 17.851562 L 3.53125 17.46875 L 3.902344 16.875 L 3.902344 15.125 M 3.21875 15.167969 L 3.21875 17.191406 L 2.390625 17.191406 L 2.390625 15.167969 Z M 2.390625 19.546875 L 2.390625 17.816406 L 3.21875 17.816406 L 3.21875 19.542969 Z M 2.390625 19.546875 "/>
<path style=" stroke:none;fill-rule:nonzero;fill:rgb(76.862745%,12.54902%,19.607843%);fill-opacity:1;" d="M 3.46875 14.226562 L 1.726562 14.226562 L 0.871094 15.375 L 1.488281 15.375 L 1.488281 19.339844 L 0.871094 19.34375 L 1.703125 20.488281 L 3.574219 20.488281 L 4.121094 19.726562 L 4.117188 17.769531 C 4.117188 17.769531 3.910156 17.554688 3.804688 17.445312 C 3.902344 17.28125 4.121094 16.933594 4.121094 16.933594 L 4.121094 15.050781 L 3.46875 14.226562 M 3.253906 14.648438 C 3.34375 14.765625 3.621094 15.113281 3.6875 15.195312 L 3.6875 16.816406 C 3.632812 16.898438 3.261719 17.496094 3.261719 17.496094 C 3.261719 17.496094 3.601562 17.851562 3.683594 17.9375 C 3.683594 18.082031 3.6875 19.476562 3.6875 19.59375 C 3.632812 19.671875 3.433594 19.945312 3.351562 20.0625 L 1.546875 20.0625 C 1.589844 19.921875 1.605469 19.859375 1.636719 19.761719 C 1.664062 19.761719 1.921875 19.761719 1.921875 19.761719 L 1.921875 14.957031 C 1.921875 14.957031 1.648438 14.957031 1.601562 14.957031 C 1.566406 14.859375 1.539062 14.792969 1.488281 14.648438 Z M 3.253906 14.648438 "/>
<path style=" stroke:none;fill-rule:nonzero;fill:rgb(76.862745%,12.54902%,19.607843%);fill-opacity:1;" d="M 2.171875 15.167969 L 2.171875 17.398438 L 3.4375 17.398438 L 3.4375 14.960938 L 2.171875 14.957031 L 2.171875 15.167969 M 2.605469 15.378906 C 2.757812 15.382812 2.851562 15.382812 3.003906 15.382812 L 3.003906 16.980469 L 2.605469 16.980469 Z M 2.605469 15.378906 "/>
<path style=" stroke:none;fill-rule:nonzero;fill:rgb(76.862745%,12.54902%,19.607843%);fill-opacity:1;" d="M 3.21875 17.605469 L 2.171875 17.605469 L 2.171875 19.757812 L 3.4375 19.75 L 3.4375 17.605469 L 3.21875 17.605469 M 3.003906 18.027344 L 3.003906 19.332031 C 2.851562 19.332031 2.757812 19.332031 2.605469 19.335938 L 2.605469 18.027344 Z M 3.003906 18.027344 "/>
<path style=" stroke:none;fill-rule:nonzero;fill:rgb(76.862745%,12.54902%,19.607843%);fill-opacity:1;" d="M 6.152344 15.496094 L 6.152344 16.226562 L 6.324219 16.226562 L 6.324219 19.535156 L 5.398438 19.535156 L 5.398438 16.226562 L 5.585938 16.226562 L 5.585938 15.496094 L 4.535156 15.496094 L 4.660156 16.226562 L 4.714844 16.226562 L 4.714844 19.65625 L 5.164062 20.269531 L 6.574219 20.269531 L 7.007812 19.65625 L 7.007812 16.226562 L 7.074219 16.226562 L 7.226562 15.496094 L 6.152344 15.496094 "/>
<path style=" stroke:none;fill-rule:nonzero;fill:rgb(76.862745%,12.54902%,19.607843%);fill-opacity:1;" d="M 7.226562 15.285156 L 5.9375 15.285156 L 5.9375 16.4375 L 6.109375 16.4375 L 6.109375 19.324219 L 5.617188 19.324219 L 5.617188 16.4375 L 5.800781 16.4375 L 5.800781 15.285156 L 4.277344 15.285156 L 4.476562 16.4375 L 4.5 16.4375 L 4.5 19.722656 L 5.050781 20.480469 L 6.683594 20.480469 L 7.226562 19.722656 L 7.226562 16.4375 L 7.25 16.4375 L 7.488281 15.285156 L 7.226562 15.285156 M 6.960938 15.707031 C 6.933594 15.847656 6.917969 15.90625 6.898438 16.015625 L 6.792969 16.015625 L 6.792969 19.589844 C 6.738281 19.664062 6.542969 19.9375 6.460938 20.058594 L 5.273438 20.058594 C 5.1875 19.941406 4.988281 19.664062 4.929688 19.585938 L 4.929688 16.015625 L 4.84375 16.015625 C 4.824219 15.902344 4.8125 15.84375 4.789062 15.707031 L 5.367188 15.707031 L 5.367188 16.015625 L 5.183594 16.015625 L 5.183594 19.746094 L 6.542969 19.746094 L 6.542969 16.015625 L 6.371094 16.015625 L 6.371094 15.707031 Z M 6.960938 15.707031 "/>
<path style=" stroke:none;fill-rule:nonzero;fill:rgb(76.862745%,12.54902%,19.607843%);fill-opacity:1;" d="M 9.734375 16.503906 L 9.734375 16.222656 L 9.191406 15.496094 L 8.183594 15.496094 L 7.679688 16.242188 L 7.679688 19.652344 L 8.089844 20.265625 L 9.3125 20.265625 L 9.734375 19.671875 L 9.734375 19.117188 L 9.046875 18.574219 L 9.046875 19.535156 L 8.363281 19.535156 L 8.363281 16.222656 L 9.046875 16.222656 L 9.046875 17.042969 L 9.734375 16.503906 "/>
<path style=" stroke:none;fill-rule:nonzero;fill:rgb(76.862745%,12.54902%,19.607843%);fill-opacity:1;" d="M 9.191406 15.285156 L 8.070312 15.285156 L 7.464844 16.179688 L 7.464844 19.714844 L 7.96875 20.476562 L 9.425781 20.476562 L 9.949219 19.738281 L 9.949219 19.015625 L 8.832031 18.132812 L 8.832031 19.320312 L 8.582031 19.320312 L 8.582031 16.433594 L 8.832031 16.433594 L 8.832031 17.488281 L 9.949219 16.605469 L 9.949219 16.15625 L 9.300781 15.285156 L 9.191406 15.285156 M 9.078125 15.707031 C 9.171875 15.828125 9.453125 16.210938 9.515625 16.292969 L 9.515625 16.402344 C 9.464844 16.445312 9.390625 16.503906 9.265625 16.601562 L 9.265625 16.011719 L 8.148438 16.011719 L 8.148438 19.746094 L 9.265625 19.746094 L 9.265625 19.015625 C 9.390625 19.117188 9.464844 19.175781 9.515625 19.214844 L 9.515625 19.605469 C 9.464844 19.679688 9.28125 19.9375 9.199219 20.054688 L 8.207031 20.054688 C 8.125 19.933594 7.945312 19.664062 7.894531 19.589844 L 7.894531 16.304688 C 7.949219 16.226562 8.210938 15.839844 8.304688 15.707031 Z M 9.078125 15.707031 "/>
<path style=" stroke:none;fill-rule:nonzero;fill:rgb(76.862745%,12.54902%,19.607843%);fill-opacity:1;" d="M 14.234375 16.632812 L 14.234375 15.160156 L 15.167969 15.160156 L 15.167969 16.363281 L 15.851562 15.90625 L 15.851562 15.019531 L 15.40625 14.425781 L 14.128906 14.425781 L 13.554688 15.019531 L 13.554688 16.953125 L 15.152344 18.222656 L 15.152344 19.535156 L 14.164062 19.535156 L 14.164062 18.539062 L 13.445312 19.078125 L 13.445312 19.660156 L 13.882812 20.265625 L 15.386719 20.265625 L 15.835938 19.660156 L 15.835938 17.890625 L 14.234375 16.632812 "/>
<path style=" stroke:none;fill-rule:nonzero;fill:rgb(76.862745%,12.54902%,19.607843%);fill-opacity:1;" d="M 15.40625 14.21875 L 14.035156 14.21875 L 13.335938 14.933594 L 13.335938 17.054688 C 13.335938 17.054688 14.792969 18.210938 14.933594 18.324219 L 14.933594 19.320312 L 14.382812 19.320312 L 14.382812 18.109375 L 13.230469 18.976562 L 13.230469 19.730469 L 13.769531 20.476562 L 15.5 20.476562 L 16.050781 19.730469 L 16.050781 17.789062 C 14.628906 16.671875 14.644531 16.6875 14.453125 16.535156 L 14.453125 15.371094 L 14.953125 15.371094 L 14.953125 16.765625 L 16.070312 16.015625 L 16.070312 14.929688 L 15.496094 14.21875 L 15.40625 14.21875 M 15.320312 14.640625 C 15.40625 14.722656 15.542969 15.019531 15.636719 15.109375 L 15.636719 15.792969 C 15.578125 15.832031 15.511719 15.878906 15.386719 15.960938 L 15.386719 14.953125 L 14.019531 14.953125 L 14.019531 16.734375 C 14.019531 16.734375 15.472656 17.875 15.621094 17.992188 L 15.621094 19.59375 C 15.5625 19.671875 15.363281 19.941406 15.277344 20.054688 L 13.996094 20.054688 C 13.910156 19.9375 13.71875 19.671875 13.664062 19.59375 L 13.664062 19.183594 C 13.722656 19.140625 13.804688 19.074219 13.949219 18.964844 L 13.949219 19.746094 L 15.367188 19.746094 L 15.367188 18.121094 C 15.367188 18.121094 13.914062 16.96875 13.769531 16.851562 L 13.769531 15.101562 C 13.851562 15.015625 14.132812 14.730469 14.222656 14.640625 Z M 15.320312 14.640625 "/>
<path style=" stroke:none;fill-rule:nonzero;fill:rgb(76.862745%,12.54902%,19.607843%);fill-opacity:1;" d="M 12.789062 19.523438 L 11.929688 17.640625 L 12.695312 16.214844 L 12.792969 16.214844 L 12.792969 15.480469 L 11.9375 15.480469 L 11.9375 16.214844 L 12.074219 16.214844 L 11.183594 17.875 L 11.183594 16.214844 L 11.320312 16.214844 L 11.320312 15.480469 L 10.210938 15.480469 L 10.386719 16.214844 L 10.496094 16.214844 L 10.496094 19.523438 L 10.355469 19.523438 L 10.175781 20.253906 L 11.335938 20.253906 L 11.335938 19.523438 L 11.183594 19.523438 L 11.183594 19.03125 L 11.5625 18.328125 L 12.066406 19.523438 L 11.988281 19.523438 L 11.988281 20.253906 L 12.957031 20.253906 L 12.957031 19.523438 L 12.789062 19.523438 "/>
<path style=" stroke:none;fill-rule:nonzero;fill:rgb(76.862745%,12.54902%,19.607843%);fill-opacity:1;" d="M 12.792969 15.269531 L 11.71875 15.269531 L 11.71875 16.417969 C 11.625 16.59375 11.558594 16.71875 11.398438 17.015625 L 11.398438 16.425781 L 11.539062 16.425781 L 11.539062 15.269531 L 9.933594 15.269531 L 10.214844 16.425781 L 10.28125 16.425781 L 10.28125 19.3125 L 10.183594 19.3125 L 9.90625 20.46875 L 11.554688 20.46875 L 11.554688 19.3125 L 11.398438 19.3125 L 11.398438 19.082031 C 11.417969 19.050781 11.46875 18.953125 11.535156 18.824219 C 11.644531 19.078125 11.699219 19.207031 11.769531 19.378906 L 11.769531 20.46875 L 13.175781 20.46875 L 13.175781 19.3125 L 12.929688 19.3125 C 12.832031 19.105469 12.242188 17.804688 12.171875 17.648438 C 12.25 17.5 12.730469 16.605469 12.828125 16.425781 L 13.007812 16.425781 L 13.007812 15.269531 L 12.792969 15.269531 M 12.574219 15.691406 L 12.574219 16.003906 L 12.566406 16.003906 L 11.691406 17.632812 L 12.648438 19.734375 L 12.742188 19.734375 L 12.742188 20.042969 L 12.207031 20.042969 L 12.207031 19.734375 L 12.390625 19.734375 L 11.585938 17.828125 L 10.964844 18.980469 L 10.964844 19.734375 L 11.121094 19.734375 L 11.121094 20.042969 L 10.449219 20.042969 C 10.484375 19.902344 10.5 19.839844 10.527344 19.734375 L 10.714844 19.734375 L 10.714844 16.003906 L 10.558594 16.003906 C 10.53125 15.894531 10.515625 15.832031 10.484375 15.691406 L 11.105469 15.691406 L 11.105469 16.003906 L 10.964844 16.003906 L 10.964844 17.875 L 11.375 17.972656 L 12.433594 16.003906 L 12.152344 16.003906 L 12.152344 15.691406 Z M 12.574219 15.691406 "/>
<path style=" stroke:none;fill-rule:nonzero;fill:rgb(100%,100%,100%);fill-opacity:1;" d="M 3.902344 15.125 L 3.359375 14.4375 L 1.835938 14.4375 L 1.25 15.164062 L 1.703125 15.167969 L 1.703125 19.550781 L 1.257812 19.550781 L 1.835938 20.273438 L 3.464844 20.273438 L 3.902344 19.660156 L 3.902344 17.855469 L 3.53125 17.46875 L 3.902344 16.875 L 3.902344 15.125 M 3.21875 15.167969 L 3.21875 17.191406 L 2.390625 17.191406 L 2.390625 15.167969 Z M 2.390625 19.546875 L 2.390625 17.816406 L 3.21875 17.816406 L 3.21875 19.542969 Z M 2.390625 19.546875 "/>
<path style=" stroke:none;fill-rule:nonzero;fill:rgb(100%,100%,100%);fill-opacity:1;" d="M 6.152344 15.496094 L 6.152344 16.226562 L 6.324219 16.226562 L 6.324219 19.535156 L 5.398438 19.535156 L 5.398438 16.226562 L 5.585938 16.226562 L 5.585938 15.496094 L 4.535156 15.496094 L 4.660156 16.226562 L 4.714844 16.226562 L 4.714844 19.65625 L 5.164062 20.269531 L 6.574219 20.269531 L 7.007812 19.65625 L 7.007812 16.226562 L 7.074219 16.226562 L 7.226562 15.496094 L 6.152344 15.496094 "/>
<path style=" stroke:none;fill-rule:nonzero;fill:rgb(100%,100%,100%);fill-opacity:1;" d="M 9.734375 16.503906 L 9.734375 16.222656 L 9.191406 15.496094 L 8.1875 15.496094 L 7.679688 16.242188 L 7.679688 19.652344 L 8.089844 20.265625 L 9.3125 20.265625 L 9.734375 19.671875 L 9.734375 19.117188 L 9.046875 18.574219 L 9.046875 19.535156 L 8.363281 19.535156 L 8.363281 16.222656 L 9.046875 16.222656 L 9.046875 17.042969 L 9.734375 16.503906 "/>
<path style=" stroke:none;fill-rule:nonzero;fill:rgb(100%,100%,100%);fill-opacity:1;" d="M 14.234375 16.632812 L 14.234375 15.160156 L 15.167969 15.160156 L 15.167969 16.363281 L 15.851562 15.90625 L 15.851562 15.019531 L 15.40625 14.425781 L 14.128906 14.425781 L 13.554688 15.019531 L 13.554688 16.953125 L 15.152344 18.222656 L 15.152344 19.535156 L 14.164062 19.535156 L 14.164062 18.539062 L 13.445312 19.078125 L 13.445312 19.660156 L 13.882812 20.265625 L 15.386719 20.265625 L 15.835938 19.660156 L 15.835938 17.890625 L 14.234375 16.632812 "/>
<path style=" stroke:none;fill-rule:nonzero;fill:rgb(100%,100%,100%);fill-opacity:1;" d="M 12.789062 19.523438 L 11.929688 17.640625 L 12.695312 16.214844 L 12.792969 16.214844 L 12.792969 15.480469 L 11.9375 15.480469 L 11.9375 16.214844 L 12.074219 16.214844 L 11.183594 17.875 L 11.183594 16.214844 L 11.324219 16.214844 L 11.324219 15.480469 L 10.210938 15.480469 L 10.386719 16.214844 L 10.496094 16.214844 L 10.496094 19.523438 L 10.355469 19.523438 L 10.175781 20.253906 L 11.335938 20.253906 L 11.335938 19.523438 L 11.183594 19.523438 L 11.183594 19.03125 L 11.5625 18.328125 L 12.066406 19.523438 L 11.988281 19.523438 L 11.988281 20.253906 L 12.957031 20.253906 L 12.957031 19.523438 L 12.789062 19.523438 "/>
<path style=" stroke:none;fill-rule:nonzero;fill:rgb(73.72549%,79.215686%,83.921569%);fill-opacity:1;" d="M 5.390625 15.84375 L 5.601562 16.226562 L 5.417969 16.226562 L 5.417969 19.535156 L 5.207031 19.707031 L 5.050781 19.5 L 5.078125 15.832031 L 5.390625 15.84375 "/>
<path style=" stroke:none;fill-rule:nonzero;fill:rgb(73.72549%,79.215686%,83.921569%);fill-opacity:1;" d="M 7.09375 16.226562 L 7.027344 16.226562 L 7.027344 19.65625 L 6.589844 20.269531 L 5.179688 20.269531 L 5.328125 19.882812 L 6.441406 19.882812 L 6.675781 19.605469 L 6.675781 15.820312 L 6.902344 15.820312 L 7.242188 15.496094 L 7.09375 16.226562 "/>
<path style=" stroke:none;fill-rule:nonzero;fill:rgb(73.72549%,79.215686%,83.921569%);fill-opacity:1;" d="M 6.34375 16.226562 L 6.171875 16.226562 L 6.335938 15.832031 L 6.675781 15.820312 L 6.34375 16.226562 "/>
<path style=" stroke:none;fill-rule:nonzero;fill:rgb(73.72549%,79.215686%,83.921569%);fill-opacity:1;" d="M 4.734375 16.226562 L 4.675781 16.226562 L 4.84375 15.84375 L 5.078125 15.832031 L 4.734375 16.226562 "/>
<path style=" stroke:none;fill-rule:nonzero;fill:rgb(73.72549%,79.215686%,83.921569%);fill-opacity:1;" d="M 4.734375 16.226562 L 4.675781 16.226562 L 4.84375 15.84375 L 5.078125 15.832031 L 4.734375 16.226562 "/>
<path style=" stroke:none;fill-rule:nonzero;fill:rgb(73.72549%,79.215686%,83.921569%);fill-opacity:1;" d="M 2.039062 19.898438 L 1.835938 20.273438 L 3.464844 20.273438 L 3.902344 19.660156 L 3.902344 17.855469 L 3.558594 17.890625 L 3.558594 19.613281 L 3.332031 19.910156 L 2.039062 19.898438 "/>
<path style=" stroke:none;fill-rule:nonzero;fill:rgb(73.72549%,79.215686%,83.921569%);fill-opacity:1;" d="M 3.535156 15.140625 L 3.550781 16.941406 L 3.242188 17.453125 L 3.53125 17.46875 L 3.902344 16.875 L 3.902344 15.125 L 3.535156 15.140625 "/>
<path style=" stroke:none;fill-rule:nonzero;fill:rgb(73.72549%,79.215686%,83.921569%);fill-opacity:1;" d="M 2.390625 17.191406 L 2.050781 17.472656 L 2.050781 14.777344 L 3.246094 14.78125 L 3.535156 15.140625 L 3.21875 15.167969 L 2.390625 15.167969 L 2.390625 17.191406 "/>
<path style=" stroke:none;fill-rule:nonzero;fill:rgb(73.72549%,79.215686%,83.921569%);fill-opacity:1;" d="M 3.21875 17.816406 L 3.449219 17.738281 L 3.238281 17.480469 L 2.050781 17.472656 L 2.03125 19.878906 L 2.390625 19.546875 L 2.390625 17.816406 L 3.21875 17.816406 "/>
<path style=" stroke:none;fill-rule:nonzero;fill:rgb(73.72549%,79.215686%,83.921569%);fill-opacity:1;" d="M 2.710938 17.542969 L 2.265625 17.542969 L 3.050781 17.160156 L 3.050781 17.148438 L 2.710938 17.542969 "/>
<path style=" stroke:none;fill-rule:nonzero;fill:rgb(73.72549%,79.215686%,83.921569%);fill-opacity:1;" d="M 8.292969 15.863281 L 8.023438 16.292969 L 8.042969 19.65625 L 8.382812 19.535156 L 8.382812 16.222656 L 9.066406 16.222656 L 9.285156 16.039062 L 9.117188 15.847656 L 8.292969 15.863281 "/>
<path style=" stroke:none;fill-rule:nonzero;fill:rgb(73.72549%,79.215686%,83.921569%);fill-opacity:1;" d="M 9.394531 16.175781 L 9.402344 16.414062 L 9.066406 17.042969 L 9.75 16.503906 L 9.75 16.222656 L 9.394531 16.175781 "/>
<path style=" stroke:none;fill-rule:nonzero;fill:rgb(73.72549%,79.215686%,83.921569%);fill-opacity:1;" d="M 9.375 19.179688 L 9.375 19.675781 L 9.214844 19.921875 L 8.25 19.921875 L 8.105469 20.265625 L 9.332031 20.265625 L 9.75 19.671875 L 9.75 19.117188 L 9.375 19.179688 "/>
<path style=" stroke:none;fill-rule:nonzero;fill:rgb(73.72549%,79.215686%,83.921569%);fill-opacity:1;" d="M 10.84375 15.785156 L 11.074219 15.785156 L 11.339844 15.480469 L 11.339844 16.214844 L 11.203125 16.214844 L 11.203125 17.851562 L 10.859375 18.488281 L 10.84375 15.785156 "/>
<path style=" stroke:none;fill-rule:nonzero;fill:rgb(73.72549%,79.215686%,83.921569%);fill-opacity:1;" d="M 12.390625 16.222656 L 10.871094 18.925781 L 10.84375 19.894531 L 10.546875 19.894531 L 10.195312 20.253906 L 11.355469 20.253906 L 11.355469 19.523438 L 11.128906 19.902344 L 10.84375 19.894531 L 11.203125 19.523438 L 11.203125 19.03125 L 12.714844 16.214844 L 12.808594 16.214844 L 12.808594 15.480469 L 12.59375 15.785156 L 12.40625 15.785156 L 12.390625 16.222656 "/>
<path style=" stroke:none;fill-rule:nonzero;fill:rgb(73.72549%,79.215686%,83.921569%);fill-opacity:1;" d="M 12.976562 19.523438 L 12.976562 20.253906 L 12.007812 20.253906 L 12.175781 19.925781 L 12.78125 19.921875 L 12.976562 19.523438 "/>
<path style=" stroke:none;fill-rule:nonzero;fill:rgb(73.72549%,79.215686%,83.921569%);fill-opacity:1;" d="M 11.585938 17.667969 L 12.578125 19.921875 L 12.808594 19.523438 L 11.933594 17.617188 L 11.585938 17.667969 "/>
<path style=" stroke:none;fill-rule:nonzero;fill:rgb(73.72549%,79.215686%,83.921569%);fill-opacity:1;" d="M 14.164062 18.539062 L 14.167969 19.507812 L 14.007812 19.875 L 13.792969 19.535156 L 13.792969 19.152344 L 14.164062 18.539062 "/>
<path style=" stroke:none;fill-rule:nonzero;fill:rgb(73.72549%,79.215686%,83.921569%);fill-opacity:1;" d="M 13.882812 20.265625 L 14.007812 19.875 L 15.222656 19.875 L 15.472656 19.585938 L 15.472656 18.054688 L 15.835938 17.890625 L 15.835938 19.660156 L 15.386719 20.265625 L 13.882812 20.265625 "/>
<path style=" stroke:none;fill-rule:nonzero;fill:rgb(73.72549%,79.215686%,83.921569%);fill-opacity:1;" d="M 13.550781 16.953125 L 15.152344 18.222656 L 15.472656 18.054688 L 13.917969 16.777344 L 13.550781 16.953125 "/>
<path style=" stroke:none;fill-rule:nonzero;fill:rgb(73.72549%,79.215686%,83.921569%);fill-opacity:1;" d="M 14.234375 16.632812 L 13.917969 16.777344 L 13.917969 15.125 L 14.203125 14.800781 L 15.253906 14.800781 L 15.511719 15.105469 L 15.167969 15.160156 L 14.234375 15.160156 L 14.234375 16.632812 "/>
<path style=" stroke:none;fill-rule:nonzero;fill:rgb(73.72549%,79.215686%,83.921569%);fill-opacity:1;" d="M 15.167969 16.363281 L 15.851562 15.90625 L 15.851562 15.019531 L 15.511719 15.105469 L 15.511719 15.785156 L 15.167969 16.363281 "/>
<path style=" stroke:none;fill-rule:nonzero;fill:rgb(73.72549%,79.215686%,83.921569%);fill-opacity:1;" d="M 10.496094 16.214844 L 10.386719 16.214844 L 10.609375 15.78125 L 10.84375 15.785156 L 10.496094 16.214844 "/>
<path style=" stroke:none;fill-rule:nonzero;fill:rgb(73.72549%,79.215686%,83.921569%);fill-opacity:1;" d="M 12.0625 16.214844 L 11.949219 16.214844 L 12.171875 15.78125 L 12.40625 15.785156 L 12.0625 16.214844 "/>
</g>
</svg>
