<?xml version="1.0" encoding="UTF-8"?>
<svg xmlns="http://www.w3.org/2000/svg" xmlns:xlink="http://www.w3.org/1999/xlink" width="17pt" height="23pt" viewBox="0 0 17 23" version="1.1">
<g id="surface1">
<path style=" stroke:none;fill-rule:evenodd;fill:rgb(10.980392%,14.509804%,14.117647%);fill-opacity:1;" d="M 16.589844 5.480469 C 15.949219 4.800781 14.5625 4.25 12.757812 3.910156 C 12.757812 3.710938 12.882812 3.625 13.121094 3.480469 C 13.230469 3.390625 13.359375 3.300781 13.503906 3.175781 C 14.070312 2.640625 13.394531 1.820312 13.359375 1.785156 L 12.992188 1.335938 L 13.085938 1.910156 C 13.140625 2.300781 12.992188 2.445312 12.554688 2.730469 C 12.5 2.785156 12.464844 2.820312 12.410156 2.855469 C 12.425781 2.605469 12.445312 2.300781 12.355469 1.945312 C 12.261719 1.570312 12.082031 1.425781 12.082031 1.425781 L 12.042969 1.960938 C 12.027344 1.960938 11.988281 2.375 11.421875 2.875 C 11.480469 2.820312 11.53125 2.765625 11.570312 2.710938 C 11.84375 2.320312 11.769531 1.875 11.660156 1.355469 L 11.644531 1.246094 C 11.550781 0.710938 11.699219 0.371094 11.789062 0.320312 C 11.898438 0.210938 12.082031 0.015625 12.082031 0.015625 C 12.082031 0.015625 11.972656 -0.0195312 11.699219 0.015625 C 11.351562 0.0703125 10.765625 0.265625 10.785156 0.730469 C 10.785156 0.945312 10.859375 1.140625 10.914062 1.320312 C 10.984375 1.5 11.039062 1.675781 10.984375 1.765625 C 10.949219 1.835938 10.820312 1.890625 10.601562 1.925781 C 9.78125 2.070312 9.144531 2.460938 8.832031 3 C 8.722656 3.175781 8.648438 3.355469 8.613281 3.570312 C 6.570312 3.570312 4.617188 3.820312 3.121094 4.285156 C 1.441406 4.785156 0.511719 5.480469 0.4375 6.285156 C 0.382812 6.710938 0.582031 7.320312 1.679688 7.910156 L 1.660156 7.910156 L 1.972656 8.050781 L 2.136719 8.140625 C 2.628906 8.355469 3.210938 8.535156 3.867188 8.695312 C 3.632812 8.820312 3.429688 8.960938 3.230469 9.140625 C 2.191406 9.980469 1.585938 11.230469 1.585938 12.570312 C 1.585938 13.75 2.042969 14.855469 2.902344 15.695312 C 3.757812 16.535156 4.910156 17 6.113281 17 C 8.25 17 10.109375 15.515625 10.546875 13.460938 C 10.914062 12.390625 10.875 11.25 10.859375 10.800781 C 10.820312 9.820312 11.3125 9.285156 11.625 9.035156 C 13.066406 8.855469 14.324219 8.550781 15.273438 8.140625 L 15.421875 8.070312 L 15.75 7.910156 C 16.496094 7.5 16.933594 7 16.972656 6.480469 C 17.007812 6.140625 16.878906 5.800781 16.589844 5.480469 Z M 15.109375 6.355469 C 15.238281 6.480469 15.238281 6.570312 15.238281 6.605469 C 15.21875 6.765625 15.019531 6.960938 14.671875 7.140625 C 13.941406 7.5 12.703125 7.785156 11.242188 7.925781 C 11.296875 7.890625 11.367188 7.855469 11.441406 7.820312 L 11.480469 7.820312 C 11.898438 7.640625 12.371094 7.460938 12.390625 6.765625 C 12.410156 6.660156 12.410156 6.335938 12.464844 6.210938 C 12.554688 6.050781 12.757812 5.820312 12.921875 5.75 C 12.9375 5.75 12.628906 5.695312 12.628906 5.695312 C 12.609375 5.695312 12.589844 5.695312 12.589844 5.695312 C 12.683594 5.625 12.757812 5.535156 12.8125 5.445312 C 13.996094 5.695312 14.816406 6.015625 15.109375 6.355469 Z M 2.171875 6.515625 C 2.226562 5.945312 4.308594 5.210938 7.683594 5.085938 C 7.371094 5.320312 6.988281 5.710938 6.898438 6.355469 L 6.863281 6.605469 C 6.84375 6.765625 6.824219 6.910156 6.753906 7.070312 C 6.625 7.390625 6.257812 7.675781 5.875 7.875 C 4.527344 7.710938 3.375 7.425781 2.71875 7.085938 C 2.355469 6.890625 2.152344 6.675781 2.171875 6.515625 Z M 2.171875 6.515625 "/>
<path style=" stroke:none;fill-rule:evenodd;fill:rgb(96.078431%,59.607843%,7.843137%);fill-opacity:1;" d="M 12.589844 3.890625 C 12.628906 3.5 13.011719 3.410156 13.375 3.070312 C 13.867188 2.625 13.25 1.890625 13.25 1.890625 C 13.320312 2.390625 13.085938 2.570312 12.644531 2.875 C 12.519531 2.960938 12.410156 3.085938 12.410156 3.25 C 12.390625 3.445312 12.371094 3.640625 12.335938 3.835938 C 12.425781 3.855469 12.519531 3.875 12.589844 3.890625 Z M 12.589844 3.890625 "/>
<path style=" stroke:none;fill-rule:evenodd;fill:rgb(96.078431%,59.607843%,7.843137%);fill-opacity:1;" d="M 11.277344 3.195312 C 11.167969 3.285156 11.058594 3.375 10.96875 3.445312 C 10.894531 3.515625 10.820312 3.585938 10.75 3.660156 C 11.167969 3.695312 11.589844 3.730469 11.972656 3.785156 C 12.226562 3.335938 12.355469 2.835938 12.191406 1.960938 C 12.191406 1.960938 12.152344 2.550781 11.277344 3.195312 Z M 11.277344 3.195312 "/>
<path style=" stroke:none;fill-rule:evenodd;fill:rgb(96.078431%,59.607843%,7.843137%);fill-opacity:1;" d="M 8.941406 3.570312 C 9.417969 3.570312 9.890625 3.585938 10.347656 3.625 C 10.367188 3.605469 10.382812 3.585938 10.402344 3.570312 C 10.695312 3.25 11.1875 2.980469 11.421875 2.625 C 11.679688 2.25 11.589844 1.800781 11.496094 1.265625 C 11.332031 0.335938 11.734375 0.175781 11.734375 0.175781 C 11.734375 0.175781 10.929688 0.285156 10.949219 0.730469 C 10.96875 1.335938 11.605469 1.910156 10.640625 2.085938 C 9.582031 2.265625 8.921875 2.835938 8.777344 3.570312 C 8.832031 3.570312 8.886719 3.570312 8.941406 3.570312 Z M 8.941406 3.570312 "/>
<path style=" stroke:none;fill-rule:evenodd;fill:rgb(10.980392%,14.509804%,14.117647%);fill-opacity:1;" d="M 4.527344 20.035156 L 5.089844 17.714844 L 4.140625 17.714844 L 3.558594 20.035156 Z M 4.527344 20.035156 "/>
<path style=" stroke:none;fill-rule:evenodd;fill:rgb(10.980392%,14.509804%,14.117647%);fill-opacity:1;" d="M 6.605469 18.285156 L 6.660156 19.230469 L 6.167969 19.230469 L 6.679688 20.035156 L 7.535156 20.035156 L 7.410156 17.714844 L 5.96875 17.714844 L 4.800781 20.035156 L 5.710938 20.035156 Z M 6.605469 18.285156 "/>
<path style=" stroke:none;fill-rule:evenodd;fill:rgb(10.980392%,14.509804%,14.117647%);fill-opacity:1;" d="M 4.398438 22.160156 L 4.195312 22.945312 L 5.089844 22.945312 L 5.675781 20.640625 L 4.78125 20.640625 L 4.5625 21.535156 L 3.886719 21.535156 L 4.105469 20.640625 L 3.210938 20.640625 L 2.628906 22.945312 L 3.523438 22.945312 L 3.722656 22.160156 Z M 4.398438 22.160156 "/>
<path style=" stroke:none;fill-rule:evenodd;fill:rgb(10.980392%,14.509804%,14.117647%);fill-opacity:1;" d="M 6.53125 22.425781 L 6.605469 22.105469 L 7.699219 22.105469 L 7.847656 21.605469 L 6.734375 21.605469 L 6.808594 21.265625 L 7.921875 21.265625 L 8.101562 20.640625 L 6.078125 20.640625 L 5.492188 22.945312 L 7.5 22.945312 L 7.644531 22.425781 Z M 6.53125 22.425781 "/>
<path style=" stroke:none;fill-rule:evenodd;fill:rgb(10.980392%,14.509804%,14.117647%);fill-opacity:1;" d="M 12.300781 20.035156 L 12.882812 17.714844 L 11.917969 17.714844 L 11.332031 20.035156 Z M 12.300781 20.035156 "/>
<path style=" stroke:none;fill-rule:evenodd;fill:rgb(10.980392%,14.509804%,14.117647%);fill-opacity:1;" d="M 13.886719 19.5 C 14.015625 19.675781 14.144531 20.015625 13.558594 20.285156 C 12.867188 20.589844 13.558594 21.355469 12.628906 21.355469 L 12.226562 21.355469 L 11.84375 22.945312 L 10.894531 22.945312 L 11.277344 21.355469 L 10.640625 21.355469 L 10.839844 20.640625 L 12.5 20.640625 C 13.484375 20.640625 12.792969 19.964844 13.285156 19.875 C 13.632812 19.820312 13.851562 19.75 13.886719 19.5 Z M 13.886719 19.5 "/>
<path style=" stroke:none;fill-rule:evenodd;fill:rgb(10.980392%,14.509804%,14.117647%);fill-opacity:1;" d="M 1.917969 18.910156 L 1.75 17.714844 L 0.582031 17.714844 L 0 20.035156 L 0.875 20.035156 L 1.1875 18.820312 L 1.203125 18.820312 L 1.367188 20.035156 L 1.878906 20.035156 L 2.589844 18.820312 L 2.609375 18.820312 L 2.316406 20.035156 L 3.140625 20.035156 L 3.722656 17.714844 L 2.589844 17.714844 Z M 1.917969 18.910156 "/>
<path style=" stroke:none;fill-rule:evenodd;fill:rgb(10.980392%,14.509804%,14.117647%);fill-opacity:1;" d="M 9.707031 18.910156 L 9.542969 17.714844 L 8.375 17.714844 L 7.792969 20.035156 L 8.667969 20.035156 L 8.976562 18.820312 L 8.996094 18.820312 L 9.160156 20.035156 L 9.671875 20.035156 L 10.382812 18.820312 L 10.402344 18.820312 L 10.109375 20.035156 L 10.929688 20.035156 L 11.515625 17.714844 L 10.382812 17.714844 Z M 9.707031 18.910156 "/>
<path style=" stroke:none;fill-rule:evenodd;fill:rgb(10.980392%,14.509804%,14.117647%);fill-opacity:1;" d="M 9.5625 21.195312 L 9.617188 22.140625 L 9.125 22.140625 L 9.617188 22.945312 L 10.492188 22.945312 L 10.367188 20.640625 C 10.367188 20.640625 8.90625 20.640625 8.921875 20.640625 C 8.921875 20.640625 7.738281 22.945312 7.753906 22.945312 L 8.667969 22.945312 Z M 9.5625 21.195312 "/>
<path style=" stroke:none;fill-rule:evenodd;fill:rgb(74.901961%,18.431373%,21.960784%);fill-opacity:1;" d="M 1.75 12.875 C 1.878906 13.460938 2.207031 14.160156 2.882812 14.625 C 3.101562 14.765625 3.320312 14.875 3.558594 14.960938 C 3.414062 14.730469 3.25 14.480469 3.066406 14.230469 C 2.738281 13.765625 2.410156 13.265625 2.191406 12.75 C 1.972656 12.210938 1.917969 11.660156 2.007812 11.085938 C 1.84375 11.550781 1.734375 12.035156 1.734375 12.570312 C 1.734375 12.660156 1.75 12.765625 1.75 12.875 Z M 1.75 12.875 "/>
<path style=" stroke:none;fill-rule:evenodd;fill:rgb(74.901961%,18.431373%,21.960784%);fill-opacity:1;" d="M 2.480469 12.640625 C 2.683594 13.125 3.011719 13.605469 3.320312 14.050781 C 3.578125 14.410156 3.8125 14.75 3.976562 15.089844 C 4.179688 15.140625 4.398438 15.175781 4.597656 15.175781 C 4.378906 14.875 4.195312 14.535156 4.03125 14.140625 C 3.414062 12.605469 3.503906 10.710938 4.269531 9.625 C 4.671875 9.050781 5.164062 8.675781 5.785156 8.335938 C 6.3125 8.050781 6.640625 7.980469 6.988281 7.785156 C 7.355469 7.550781 7.554688 7.195312 7.316406 6.390625 C 7.246094 6.160156 7.226562 5.960938 7.246094 5.820312 C 7.152344 5.980469 7.097656 6.175781 7.0625 6.390625 C 7.027344 6.605469 7.007812 6.855469 6.917969 7.125 C 6.585938 7.960938 5 8.425781 4.800781 8.480469 C 4.195312 8.660156 3.722656 8.925781 3.339844 9.25 C 2.261719 10.195312 2.0625 11.605469 2.480469 12.640625 Z M 2.480469 12.640625 "/>
<path style=" stroke:none;fill-rule:evenodd;fill:rgb(74.901961%,18.431373%,21.960784%);fill-opacity:1;" d="M 9.070312 5.070312 C 9.085938 5.125 9.105469 5.175781 9.105469 5.230469 C 9.160156 5.515625 9.070312 5.765625 8.703125 5.820312 C 8.320312 5.875 8.195312 5.550781 8.15625 5.300781 C 8.15625 5.195312 8.175781 5.125 8.175781 5.070312 C 8.121094 5.070312 8.046875 5.085938 7.992188 5.085938 C 7.867188 5.140625 7.699219 5.25 7.554688 5.410156 C 7.480469 5.570312 7.390625 5.785156 7.535156 6.300781 C 7.773438 7.195312 7.664062 7.75 6.933594 8.050781 C 5.984375 8.460938 5.382812 8.695312 4.5625 9.695312 C 4.179688 10.160156 3.960938 10.945312 3.941406 11.75 C 3.90625 12.515625 4.070312 13.335938 4.34375 14.015625 C 4.527344 14.460938 4.746094 14.855469 5 15.195312 C 5.253906 15.175781 5.511719 15.140625 5.765625 15.089844 C 5.476562 14.765625 5.308594 14.375 5.292969 13.925781 C 5.199219 12.460938 6.003906 11.855469 7.246094 10.875 L 7.792969 10.410156 C 10.019531 8.570312 9.363281 6.695312 9.617188 5.085938 C 9.433594 5.085938 9.253906 5.085938 9.070312 5.070312 Z M 9.070312 5.070312 "/>
<path style=" stroke:none;fill-rule:evenodd;fill:rgb(74.901961%,18.431373%,21.960784%);fill-opacity:1;" d="M 9.964844 5.105469 C 9.890625 5.425781 9.871094 5.765625 9.855469 6.105469 C 9.761719 7.5 9.800781 9.085938 7.992188 10.660156 L 7.445312 11.085938 C 6.242188 12.035156 5.546875 12.625 5.601562 13.910156 C 5.621094 14.339844 5.804688 14.714844 6.113281 15 C 6.441406 14.910156 6.769531 14.765625 7.097656 14.589844 C 8.667969 13.710938 9.652344 12.410156 10.035156 10.730469 C 10.273438 9.675781 10.273438 8.820312 10.253906 8.125 C 10.253906 7.785156 10.308594 7.085938 10.308594 7.085938 C 10.367188 6.660156 10.4375 6.050781 10.949219 5.265625 C 10.96875 5.230469 10.96875 5.210938 10.984375 5.175781 C 10.675781 5.160156 10.328125 5.125 9.964844 5.105469 Z M 9.964844 5.105469 "/>
<path style=" stroke:none;fill-rule:evenodd;fill:rgb(74.901961%,18.431373%,21.960784%);fill-opacity:1;" d="M 10.492188 9.585938 C 10.4375 9.855469 10.4375 10.125 10.402344 10.410156 C 10.382812 10.515625 10.367188 10.625 10.367188 10.710938 C 10.347656 10.75 10.347656 10.785156 10.347656 10.800781 C 9.945312 12.570312 8.921875 13.925781 7.261719 14.855469 C 6.988281 15.015625 6.699219 15.140625 6.40625 15.230469 C 6.898438 15.550781 7.464844 15.640625 7.847656 15.589844 C 9.324219 15.375 10.054688 14.425781 10.402344 13.410156 C 10.75 12.375 10.710938 11.265625 10.695312 10.820312 C 10.640625 9.285156 11.84375 8.710938 11.84375 8.710938 C 10.914062 8.660156 10.601562 9.070312 10.492188 9.585938 Z M 10.492188 9.585938 "/>
<path style=" stroke:none;fill-rule:evenodd;fill:rgb(74.901961%,18.431373%,21.960784%);fill-opacity:1;" d="M 9.507812 15.25 C 8.90625 15.75 8.25 15.855469 7.957031 15.890625 C 7.371094 15.980469 6.679688 15.855469 6.058594 15.375 L 6.039062 15.355469 C 5.765625 15.425781 5.511719 15.464844 5.253906 15.480469 C 5.859375 16.125 6.640625 16.464844 7.699219 16.535156 C 8.429688 16.265625 9.050781 15.800781 9.527344 15.230469 Z M 9.507812 15.25 "/>
<path style=" stroke:none;fill-rule:evenodd;fill:rgb(74.901961%,18.431373%,21.960784%);fill-opacity:1;" d="M 3.996094 16.300781 C 3.996094 15.980469 3.90625 15.660156 3.757812 15.339844 C 3.394531 15.25 3.046875 15.089844 2.699219 14.890625 C 2.5 14.765625 2.335938 14.589844 2.191406 14.425781 C 2.574219 15.230469 3.210938 15.875 3.996094 16.300781 Z M 3.996094 16.300781 "/>
<path style=" stroke:none;fill-rule:evenodd;fill:rgb(74.901961%,18.431373%,21.960784%);fill-opacity:1;" d="M 7.007812 16.75 C 6.421875 16.605469 5.914062 16.410156 5.476562 16.070312 C 5.253906 15.910156 5.035156 15.714844 4.855469 15.5 C 4.617188 15.5 4.378906 15.480469 4.140625 15.425781 C 4.269531 15.765625 4.34375 16.105469 4.289062 16.445312 C 4.855469 16.695312 5.457031 16.839844 6.113281 16.839844 C 6.421875 16.839844 6.734375 16.800781 7.027344 16.75 C 7.027344 16.75 7.027344 16.75 7.007812 16.75 Z M 7.007812 16.75 "/>
<path style=" stroke:none;fill-rule:evenodd;fill:rgb(74.901961%,18.431373%,21.960784%);fill-opacity:1;" d="M 12.097656 6.25 C 11.988281 6.570312 11.660156 6.535156 11.550781 6.355469 C 11.40625 6.070312 11.460938 5.855469 11.625 5.695312 C 11.789062 5.550781 12.042969 5.460938 12.300781 5.355469 C 12.007812 5.300781 11.699219 5.265625 11.367188 5.230469 C 11.351562 5.230469 11.351562 5.230469 11.351562 5.230469 C 11.3125 5.265625 11.296875 5.300781 11.257812 5.335938 C 10.730469 6.105469 10.675781 6.695312 10.621094 7.125 L 10.601562 7.265625 C 10.566406 7.5 10.566406 7.785156 10.585938 8.125 C 10.585938 8.175781 10.585938 8.230469 10.585938 8.265625 C 10.566406 8.390625 10.566406 8.5 10.566406 8.625 C 10.566406 8.570312 10.585938 8.550781 10.585938 8.585938 C 10.730469 8.125 11.003906 7.835938 11.386719 7.675781 C 11.808594 7.515625 12.207031 7.355469 12.226562 6.765625 C 12.246094 6.515625 12.261719 6.265625 12.316406 6.140625 C 12.425781 5.910156 12.609375 5.855469 12.609375 5.855469 C 12.410156 5.835938 12.191406 5.925781 12.097656 6.25 Z M 12.097656 6.25 "/>
<path style=" stroke:none;fill-rule:evenodd;fill:rgb(100%,100%,100%);fill-opacity:1;" d="M 8.941406 3.800781 C 4.507812 3.765625 0.804688 4.890625 0.675781 6.300781 C 0.621094 6.875 1.148438 7.410156 2.082031 7.835938 C 2.644531 8.105469 3.375 8.335938 4.214844 8.515625 C 4.398438 8.445312 4.5625 8.390625 4.746094 8.335938 C 4.890625 8.285156 5.164062 8.195312 5.476562 8.070312 C 4.234375 7.890625 3.230469 7.625 2.609375 7.300781 C 2.152344 7.050781 1.898438 6.785156 1.933594 6.5 C 2.007812 5.535156 5.109375 4.800781 8.851562 4.835938 C 12.589844 4.875 15.566406 5.675781 15.476562 6.625 C 15.457031 6.890625 15.203125 7.140625 14.78125 7.355469 C 13.996094 7.75 12.628906 8.070312 10.949219 8.210938 C 10.894531 8.285156 10.839844 8.375 10.785156 8.460938 C 11.550781 8.175781 12.425781 8.605469 12.425781 8.605469 C 12.425781 8.605469 12.5 8.625 12.535156 8.660156 C 13.648438 8.460938 14.597656 8.175781 15.3125 7.855469 C 16.167969 7.445312 16.679688 6.980469 16.734375 6.460938 C 16.863281 5.035156 13.359375 3.855469 8.941406 3.800781 Z M 8.941406 3.800781 "/>
</g>
</svg>
