<?xml version="1.0" encoding="UTF-8"?>
<svg xmlns="http://www.w3.org/2000/svg" xmlns:xlink="http://www.w3.org/1999/xlink" width="31pt" height="23pt" viewBox="0 0 31 23" version="1.1">
<g id="surface1">
<path style=" stroke:none;fill-rule:nonzero;fill:rgb(76.862745%,80.784314%,83.137255%);fill-opacity:1;" d="M 18.644531 5.964844 L 18.75 5.96875 L 18.964844 6.96875 L 21.648438 7.210938 L 21.648438 7.671875 L 18.644531 7.417969 Z M 30.984375 10.109375 L 30.984375 5.75 L 30.980469 5.75 C 30.949219 5.738281 28.523438 4.878906 27.109375 4.558594 C 25.449219 4.179688 24.96875 5.472656 24.898438 5.703125 L 24.898438 4.058594 C 24.898438 4.058594 20.34375 3.171875 17.09375 3.222656 C 16.53125 3.230469 15.6875 3.4375 15.421875 4.628906 L 15.421875 3.183594 C 15.421875 3.183594 12.292969 3.273438 11.132812 3.382812 C 10.84375 3.410156 9.59375 3.519531 9.195312 4.953125 L 9.199219 3.558594 C 9.199219 3.558594 5.074219 4.058594 1.386719 5.261719 C 0.851562 5.433594 0 6.066406 0 7.015625 L 0 16.597656 L 3.101562 15.59375 L 3.101562 13.941406 L 5.925781 13.265625 L 5.925781 14.910156 C 5.925781 14.910156 6.648438 14.757812 7.320312 14.617188 C 5.890625 15.847656 4.730469 17.40625 4.011719 19.121094 C 5.886719 17.492188 7.753906 15.910156 10.527344 15.148438 L 9.898438 16.628906 C 12.105469 15.40625 15.066406 15.367188 17.425781 16.132812 L 17.246094 16.527344 C 15.789062 15.90625 14.125 15.832031 12.460938 16.089844 C 14.089844 16.65625 15.460938 17.09375 16.828125 18.003906 C 16.738281 20.578125 18.824219 23.035156 21.511719 23.011719 C 25.835938 22.980469 27.828125 17.851562 25.414062 14.6875 C 25.660156 14.878906 25.960938 15.015625 26.417969 15.15625 C 27.945312 15.589844 30.984375 16.5 30.984375 16.5 L 30.984375 12.40625 L 28.664062 11.707031 L 28.410156 12.847656 C 28.257812 12.796875 28.039062 12.789062 28.035156 12.675781 C 28.03125 12.621094 28.035156 9.59375 28.035156 8.054688 L 28.21875 9.246094 Z M 30.984375 10.109375 "/>
<path style=" stroke:none;fill-rule:nonzero;fill:rgb(4.705882%,11.764706%,14.117647%);fill-opacity:1;" d="M 28.199219 7.355469 L 28.457031 9.027344 L 30.695312 9.722656 L 30.699219 9.726562 L 30.699219 5.949219 C 30.699219 5.949219 28.472656 5.160156 27.039062 4.828125 C 26.546875 4.691406 25.097656 4.605469 25.066406 6.453125 L 25.066406 12.835938 C 25.066406 13.933594 25.640625 14.667969 26.726562 14.957031 C 28.378906 15.394531 30.699219 16.117188 30.699219 16.117188 L 30.699219 12.613281 L 28.863281 12.058594 L 28.609375 13.199219 C 28.40625 13.136719 28.242188 13.09375 28.035156 13.039062 C 27.808594 12.976562 27.761719 12.855469 27.75 12.734375 L 27.75 7.230469 C 27.78125 7.238281 28.136719 7.339844 28.199219 7.355469 "/>
<path style=" stroke:none;fill-rule:nonzero;fill:rgb(4.705882%,11.764706%,14.117647%);fill-opacity:1;" d="M 21.921875 3.875 L 21.921875 14.042969 L 22.421875 14.085938 C 22.574219 14.105469 23.78125 14.308594 23.925781 14.339844 L 24.613281 14.515625 L 24.613281 4.292969 C 24.621094 4.277344 22.933594 3.996094 21.921875 3.875 "/>
<path style=" stroke:none;fill-rule:nonzero;fill:rgb(4.705882%,11.764706%,14.117647%);fill-opacity:1;" d="M 18.699219 9.707031 L 18.699219 11.597656 C 18.644531 11.59375 18.394531 11.617188 18.367188 11.449219 L 18.367188 9.683594 Z M 18.96875 5.703125 L 19.1875 6.707031 L 21.414062 6.90625 L 21.414062 3.800781 C 21.414062 3.800781 18.171875 3.492188 17.265625 3.492188 C 16.722656 3.492188 15.6875 3.691406 15.648438 5.085938 L 15.648438 11.726562 C 15.648438 12.875 16.308594 13.5625 17.453125 13.613281 C 17.453125 13.613281 19.832031 13.730469 20.75 13.863281 L 21.414062 13.992188 L 21.414062 7.929688 L 18.367188 7.683594 L 18.367188 5.667969 Z M 18.96875 5.703125 "/>
<path style=" stroke:none;fill-rule:nonzero;fill:rgb(4.705882%,11.764706%,14.117647%);fill-opacity:1;" d="M 12.089844 7.722656 L 12.089844 5.789062 C 12.097656 5.667969 12.371094 5.679688 12.410156 5.675781 L 12.410156 7.707031 C 12.304688 7.710938 12.199219 7.714844 12.089844 7.722656 M 11.152344 3.660156 C 10.042969 3.765625 9.382812 4.515625 9.382812 5.671875 L 9.382812 14.007812 L 10.035156 13.882812 C 10.183594 13.863281 11.402344 13.738281 11.554688 13.730469 L 12.089844 13.71875 L 12.089844 9.988281 C 12.195312 9.980469 12.304688 9.972656 12.410156 9.964844 L 12.410156 13.707031 L 13.027344 13.636719 C 13.15625 13.625 14.355469 13.582031 14.554688 13.582031 L 15.136719 13.613281 L 15.136719 3.46875 C 15.136719 3.46875 12.355469 3.546875 11.152344 3.660156 "/>
<path style=" stroke:none;fill-rule:nonzero;fill:rgb(4.705882%,11.764706%,14.117647%);fill-opacity:1;" d="M 8.914062 3.882812 C 8.914062 3.882812 6.386719 4.265625 5.636719 4.433594 C 5.464844 4.476562 5.300781 4.539062 5.144531 4.628906 L 5.144531 4.539062 C 5.144531 4.539062 3.046875 5.007812 1.464844 5.527344 C 0.96875 5.6875 0.269531 6.257812 0.269531 7.011719 L 0.269531 16.183594 L 2.816406 15.367188 L 2.816406 7.730469 C 2.816406 7.589844 2.9375 7.484375 3.175781 7.410156 C 3.1875 7.40625 3.199219 7.402344 3.21875 7.398438 L 3.21875 13.621094 L 5.910156 12.976562 L 5.910156 7.019531 C 5.941406 6.746094 6.171875 6.71875 6.195312 6.714844 L 6.195312 14.546875 C 6.195312 14.546875 8.289062 14.121094 8.40625 14.105469 L 8.914062 14.0625 Z M 8.914062 3.882812 "/>
<path style=" stroke:none;fill-rule:nonzero;fill:rgb(100%,100%,100%);fill-opacity:1;" d="M 29.101562 12.472656 L 28.851562 13.609375 C 28.445312 13.488281 28.246094 13.433594 27.953125 13.355469 C 27.667969 13.28125 27.496094 13.113281 27.445312 12.859375 L 27.445312 7.042969 C 27.539062 6.714844 27.960938 6.992188 28.488281 7.101562 L 28.746094 8.773438 L 30.371094 9.28125 L 30.371094 6.179688 C 30.371094 6.179688 28.355469 5.488281 26.964844 5.148438 C 26.8125 5.113281 25.421875 4.78125 25.390625 6.453125 L 25.390625 12.835938 C 25.390625 13.78125 25.867188 14.390625 26.808594 14.640625 C 28.167969 15 30.375 15.671875 30.375 15.671875 L 30.375 12.859375 Z M 29.101562 12.472656 "/>
<path style=" stroke:none;fill-rule:nonzero;fill:rgb(100%,100%,100%);fill-opacity:1;" d="M 24.289062 4.570312 L 22.246094 4.246094 L 22.246094 13.742188 C 22.246094 13.742188 23.898438 13.992188 24.003906 14.019531 L 24.289062 14.09375 Z M 24.289062 4.570312 "/>
<path style=" stroke:none;fill-rule:nonzero;fill:rgb(100%,100%,100%);fill-opacity:1;" d="M 18.457031 5.339844 C 18.472656 5.339844 19.03125 5.378906 19.234375 5.394531 L 19.453125 6.398438 L 21.089844 6.546875 L 21.089844 4.097656 C 21.089844 4.097656 17.703125 3.800781 17.265625 3.820312 C 16.859375 3.835938 16.03125 3.90625 15.972656 5.085938 L 15.972656 11.726562 C 15.972656 12.703125 16.488281 13.242188 17.464844 13.285156 C 17.464844 13.285156 19.714844 13.394531 20.703125 13.527344 L 21.089844 13.597656 L 21.089844 8.226562 L 18.613281 8.023438 L 18.613281 9.371094 C 18.613281 9.371094 18.945312 9.398438 19.027344 9.402344 L 19.027344 11.945312 C 18.71875 11.925781 18.070312 11.996094 18.042969 11.453125 L 18.042969 5.582031 C 18.066406 5.472656 18.148438 5.339844 18.457031 5.339844 "/>
<path style=" stroke:none;fill-rule:nonzero;fill:rgb(100%,100%,100%);fill-opacity:1;" d="M 12.710938 7.996094 C 12.703125 7.996094 12.089844 8.027344 11.789062 8.046875 L 11.789062 5.773438 C 11.8125 5.535156 11.972656 5.402344 12.269531 5.382812 C 12.269531 5.382812 12.566406 5.363281 12.710938 5.351562 Z M 11.179688 3.964844 C 10.234375 4.054688 9.691406 4.664062 9.683594 5.648438 L 9.683594 13.640625 L 9.71875 13.632812 L 10.039062 13.578125 C 10.308594 13.542969 11.4375 13.429688 11.542969 13.425781 L 11.789062 13.417969 L 11.789062 9.707031 C 12.089844 9.683594 12.398438 9.660156 12.710938 9.640625 L 12.714844 13.359375 L 12.996094 13.332031 C 13.09375 13.324219 14.335938 13.277344 14.554688 13.277344 L 14.835938 13.289062 L 14.835938 3.785156 C 14.835938 3.785156 12.414062 3.839844 11.179688 3.964844 "/>
<path style=" stroke:none;fill-rule:nonzero;fill:rgb(100%,100%,100%);fill-opacity:1;" d="M 8.589844 4.261719 C 8.589844 4.261719 6.128906 4.644531 5.710938 4.753906 C 5.375 4.84375 5.128906 4.980469 4.835938 5.3125 L 4.835938 4.945312 C 4.835938 4.945312 3.128906 5.328125 1.5625 5.839844 C 1.171875 5.964844 0.59375 6.425781 0.59375 7.011719 L 0.59375 15.703125 L 2.492188 15.105469 L 2.492188 7.730469 C 2.480469 7.109375 3.367188 7.03125 3.542969 7 L 3.542969 13.207031 L 5.585938 12.71875 C 5.585938 12.71875 5.585938 7.316406 5.585938 7.003906 C 5.65625 6.324219 6.402344 6.371094 6.519531 6.328125 L 6.523438 14.125 L 7.523438 13.949219 L 8.585938 13.761719 L 8.585938 13.734375 L 8.589844 13.730469 Z M 8.589844 4.261719 "/>
<path style=" stroke:none;fill-rule:nonzero;fill:rgb(1.568627%,45.490196%,73.72549%);fill-opacity:1;" d="M 30.136719 13.03125 L 29.273438 12.769531 L 29.023438 13.90625 C 28.460938 13.738281 28.242188 13.671875 27.894531 13.582031 C 27.5625 13.496094 27.226562 13.257812 27.195312 12.75 L 27.195312 7.105469 C 27.261719 6.667969 27.546875 6.589844 27.894531 6.6875 C 27.894531 6.679688 28.261719 6.789062 28.695312 6.917969 L 28.953125 8.59375 L 30.136719 8.960938 L 30.136719 6.347656 C 29.484375 6.117188 28.199219 5.691406 26.910156 5.378906 C 26.082031 5.175781 25.621094 5.601562 25.621094 6.453125 L 25.621094 12.835938 C 25.621094 13.691406 26.042969 14.195312 26.867188 14.414062 C 28.550781 14.859375 30.140625 15.355469 30.140625 15.355469 Z M 30.136719 13.03125 "/>
<path style=" stroke:none;fill-rule:nonzero;fill:rgb(1.568627%,45.490196%,73.72549%);fill-opacity:1;" d="M 22.476562 13.527344 C 22.574219 13.535156 23.960938 13.765625 24.058594 13.792969 L 24.058594 4.765625 C 23.582031 4.679688 23.160156 4.605469 22.476562 4.515625 Z M 22.476562 13.527344 "/>
<path style=" stroke:none;fill-rule:nonzero;fill:rgb(1.568627%,45.490196%,73.72549%);fill-opacity:1;" d="M 18.847656 9.15625 C 18.925781 9.160156 19.257812 9.183594 19.257812 9.183594 L 19.257812 12.199219 C 19.015625 12.179688 18.769531 12.164062 18.527344 12.148438 C 18.167969 12.125 17.808594 11.890625 17.808594 11.40625 C 17.808594 11.390625 17.808594 5.589844 17.808594 5.589844 C 17.859375 5.15625 18.273438 5.089844 18.527344 5.109375 C 18.527344 5.101562 18.945312 5.132812 19.421875 5.175781 L 19.640625 6.179688 L 20.855469 6.289062 L 20.855469 4.3125 L 20.847656 4.3125 C 18.644531 4.09375 17.410156 4.058594 17.410156 4.058594 C 17.152344 4.046875 16.761719 4.046875 16.496094 4.308594 C 16.324219 4.472656 16.207031 4.746094 16.207031 5.085938 L 16.207031 11.726562 C 16.207031 12.582031 16.632812 13.015625 17.476562 13.050781 C 17.476562 13.023438 20.429688 13.230469 20.855469 13.3125 L 20.855469 8.4375 C 20.148438 8.367188 19.746094 8.328125 18.847656 8.273438 Z M 18.847656 9.15625 "/>
<path style=" stroke:none;fill-rule:nonzero;fill:rgb(1.568627%,45.490196%,73.72549%);fill-opacity:1;" d="M 11.535156 5.761719 C 11.550781 5.585938 11.648438 5.167969 12.25 5.125 C 12.488281 5.109375 12.726562 5.09375 12.96875 5.078125 L 12.96875 8.242188 C 12.492188 8.265625 12.011719 8.285156 11.535156 8.324219 Z M 9.9375 5.671875 C 9.9375 5.671875 9.941406 13.222656 9.941406 13.332031 C 10.039062 13.3125 11.4375 13.171875 11.535156 13.167969 L 11.535156 9.46875 C 12.011719 9.429688 12.492188 9.394531 12.96875 9.371094 L 12.96875 13.078125 C 13.066406 13.066406 14.480469 13.011719 14.578125 13.019531 L 14.578125 4.050781 C 13.628906 4.074219 12.324219 4.117188 11.203125 4.21875 C 10.359375 4.296875 9.9375 4.820312 9.9375 5.671875 "/>
<path style=" stroke:none;fill-rule:nonzero;fill:rgb(1.568627%,45.490196%,73.72549%);fill-opacity:1;" d="M 5.761719 4.984375 C 5.175781 5.117188 4.734375 5.679688 4.605469 6.355469 L 4.605469 5.238281 C 4.605469 5.238281 3.210938 5.546875 1.636719 6.0625 C 1.320312 6.164062 0.828125 6.554688 0.828125 7.011719 L 0.828125 15.359375 C 0.921875 15.324219 2.164062 14.9375 2.257812 14.914062 L 2.257812 7.730469 C 2.257812 7.226562 2.667969 6.976562 3.015625 6.871094 C 3.207031 6.8125 3.773438 6.726562 3.773438 6.726562 L 3.773438 12.90625 L 5.359375 12.53125 L 5.359375 6.964844 C 5.414062 6.546875 5.640625 6.269531 6.058594 6.167969 C 6.460938 6.101562 6.753906 6.054688 6.753906 6.054688 L 6.753906 13.824219 C 6.851562 13.796875 8.253906 13.554688 8.351562 13.546875 C 8.351562 11.757812 8.355469 4.535156 8.355469 4.535156 C 8.355469 4.535156 6.5 4.816406 5.761719 4.984375 "/>
<path style=" stroke:none;fill-rule:nonzero;fill:rgb(4.705882%,11.764706%,14.117647%);fill-opacity:1;" d="M 22.5 12.90625 C 28.660156 15.371094 26.101562 22.625 21.582031 22.679688 C 19.109375 22.710938 17.003906 20.382812 17.179688 17.902344 C 16.070312 17 14.667969 16.5625 13.316406 16.175781 C 14.539062 16.042969 16.261719 16.367188 17.378906 16.890625 L 17.792969 15.972656 C 15.726562 15.207031 12.449219 15.074219 10.4375 16.054688 L 10.988281 14.753906 C 8.851562 15.230469 6.46875 16.5625 4.707031 18.234375 C 5.941406 15.839844 8.738281 13.414062 11.292969 12.605469 L 11.105469 13.171875 C 12.746094 12.566406 14.460938 12.238281 16.207031 12.136719 C 18.058594 12.027344 19.554688 12.136719 20.839844 12.421875 C 20.609375 12.121094 20.238281 11.582031 20.238281 11.582031 C 20.238281 11.582031 21.234375 11.839844 21.425781 11.886719 C 21.527344 11.722656 21.730469 11.390625 21.730469 11.390625 L 22.039062 10.882812 C 22.039062 10.882812 22.191406 11.9375 22.214844 12.121094 C 22.390625 12.179688 23.347656 12.496094 23.347656 12.496094 Z M 22.5 12.90625 "/>
<path style=" stroke:none;fill-rule:evenodd;fill:rgb(76.862745%,80.784314%,83.137255%);fill-opacity:1;" d="M 23.183594 16.484375 C 23.414062 16.796875 23.664062 17.164062 23.851562 17.511719 C 24.292969 17.207031 24.679688 16.886719 25.027344 16.476562 C 24.808594 16.050781 24.421875 15.570312 24.148438 15.335938 C 23.898438 15.785156 23.578125 16.15625 23.183594 16.484375 M 23.996094 17.8125 C 24.105469 18.0625 24.203125 18.316406 24.285156 18.578125 C 24.667969 18.453125 25.03125 18.386719 25.429688 18.363281 C 25.4375 17.785156 25.363281 17.359375 25.175781 16.820312 C 24.8125 17.199219 24.429688 17.519531 23.996094 17.8125 M 24.363281 18.878906 C 24.5 19.496094 24.542969 20.117188 24.507812 20.746094 C 24.996094 20.085938 25.257812 19.519531 25.394531 18.675781 C 25.046875 18.707031 24.695312 18.765625 24.363281 18.878906 M 24.101562 19.023438 C 22.878906 19.605469 22.386719 20.902344 21.90625 22.085938 C 22.707031 21.992188 23.449219 21.71875 24.070312 21.183594 C 24.253906 20.480469 24.230469 19.730469 24.101562 19.023438 M 24.003906 18.695312 C 23.929688 18.449219 23.84375 18.210938 23.742188 17.972656 C 22.007812 19.003906 19.976562 19.511719 17.96875 19.5 C 18.550781 21.050781 19.910156 22.082031 21.566406 22.097656 C 22.089844 20.789062 22.671875 19.359375 24.003906 18.695312 M 23.601562 17.671875 C 23.410156 17.3125 23.175781 16.976562 22.929688 16.65625 C 21.34375 17.679688 19.753906 17.085938 18.148438 16.492188 C 17.75 17.339844 17.652344 18.25 17.871094 19.164062 C 19.820312 19.214844 21.921875 18.683594 23.601562 17.671875 M 22.753906 16.402344 C 20.546875 13.949219 16.148438 13.460938 13.097656 14.300781 C 15.214844 14.242188 19.410156 14.355469 20.910156 16.160156 C 20.425781 15.890625 19.445312 15.433594 18.867188 15.464844 C 18.660156 15.695312 18.476562 15.949219 18.316406 16.214844 C 19.789062 16.765625 21.292969 17.316406 22.753906 16.402344 M 22.996094 16.230469 C 23.382812 15.921875 23.722656 15.574219 23.957031 15.140625 C 23.269531 14.460938 21.957031 13.621094 18.613281 13.390625 C 20.03125 13.714844 21.355469 14.167969 22.101562 14.703125 C 21.492188 14.46875 21.109375 14.402344 21.109375 14.402344 C 20.929688 14.425781 20.675781 14.449219 20.488281 14.496094 C 21.503906 14.898438 22.246094 15.382812 22.996094 16.230469 "/>
<path style=" stroke:none;fill-rule:nonzero;fill:rgb(76.862745%,80.784314%,83.137255%);fill-opacity:1;" d="M 20.9375 13.242188 L 21.621094 13 L 22.144531 13.597656 L 22.082031 12.820312 L 22.746094 12.527344 L 22.023438 12.285156 L 21.910156 11.507812 L 21.527344 12.140625 L 20.792969 11.949219 L 21.277344 12.582031 Z M 20.9375 13.242188 "/>
<path style=" stroke:none;fill-rule:evenodd;fill:rgb(1.568627%,45.490196%,73.72549%);fill-opacity:1;" d="M 18.347656 17.082031 C 19.394531 17.578125 20.226562 17.601562 21.300781 17.652344 L 19.570312 18.167969 C 20.441406 18.210938 21.460938 18.121094 22.308594 17.945312 C 20.449219 18.886719 18.191406 18.816406 18.191406 18.816406 C 18.023438 18.238281 18.105469 17.519531 18.347656 17.082031 M 18.546875 19.976562 C 19.699219 19.929688 21.328125 19.617188 22.582031 18.878906 C 21.859375 19.621094 21.085938 20.023438 19.910156 20.640625 C 21.199219 20.421875 21.832031 19.910156 22.675781 19.277344 C 22.019531 20.019531 21.695312 20.800781 21.191406 21.609375 C 21.191406 21.609375 19.6875 21.800781 18.546875 19.976562 M 22.359375 21.75 C 23.082031 21.496094 23.457031 21.203125 23.609375 21.078125 C 23.722656 20.832031 23.773438 20.304688 23.765625 19.664062 L 23.304688 20.445312 L 23.453125 19.6875 C 22.804688 20.480469 22.558594 21.046875 22.359375 21.75 "/>
<path style=" stroke:none;fill-rule:nonzero;fill:rgb(100%,100%,100%);fill-opacity:1;" d="M 17.28125 13.804688 L 17.757812 13.566406 L 18.15625 13.925781 L 18.078125 13.394531 L 18.535156 13.125 L 18.011719 13.035156 L 17.898438 12.511719 L 17.65625 12.984375 L 17.125 12.929688 L 17.496094 13.316406 Z M 17.28125 13.804688 "/>
<path style=" stroke:none;fill-rule:nonzero;fill:rgb(100%,100%,100%);fill-opacity:1;" d="M 11.925781 14.871094 L 12.238281 14.714844 L 12.5 14.949219 L 12.449219 14.601562 L 12.75 14.421875 L 12.40625 14.363281 L 12.332031 14.019531 L 12.167969 14.332031 L 11.820312 14.296875 L 12.066406 14.546875 Z M 11.925781 14.871094 "/>
<path style=" stroke:none;fill-rule:evenodd;fill:rgb(100%,100%,100%);fill-opacity:1;" d="M 21.828125 14.21875 C 21.765625 14.1875 21.707031 14.15625 21.644531 14.128906 C 22.609375 14.417969 23.261719 14.796875 23.625 15.082031 C 23.570312 15.167969 23.507812 15.246094 23.445312 15.328125 C 22.996094 14.855469 22.449219 14.476562 21.828125 14.21875 M 24.804688 19.695312 L 24.800781 19.628906 C 24.851562 19.367188 24.882812 19.101562 24.890625 18.84375 C 24.960938 18.824219 25.03125 18.808594 25.101562 18.796875 C 25.027344 19.121094 24.933594 19.414062 24.804688 19.695312 M 25.207031 17.980469 C 25.082031 17.996094 24.964844 18.015625 24.851562 18.039062 C 24.824219 17.851562 24.785156 17.664062 24.738281 17.480469 C 24.863281 17.371094 24.984375 17.265625 25.105469 17.148438 C 25.175781 17.421875 25.207031 17.675781 25.207031 17.980469 M 24.777344 16.371094 C 24.667969 16.488281 24.566406 16.59375 24.460938 16.691406 C 24.34375 16.433594 24.207031 16.191406 24.046875 15.960938 C 24.128906 15.859375 24.210938 15.753906 24.285156 15.644531 C 24.488281 15.871094 24.664062 16.136719 24.777344 16.371094 "/>
<path style=" stroke:none;fill-rule:nonzero;fill:rgb(4.705882%,11.764706%,14.117647%);fill-opacity:1;" d="M 21.796875 2.574219 C 21.796875 2.640625 21.757812 2.675781 21.710938 2.667969 C 21.671875 2.664062 21.554688 2.652344 21.480469 2.640625 C 21.425781 2.632812 21.394531 2.617188 21.394531 2.519531 L 21.394531 1.039062 C 21.394531 0.960938 21.433594 0.9375 21.488281 0.945312 C 21.542969 0.949219 21.632812 0.96875 21.6875 0.976562 C 21.742188 0.984375 21.796875 0.996094 21.796875 1.066406 Z M 21.957031 0.554688 C 21.789062 0.527344 21.179688 0.425781 21.140625 0.425781 C 20.8125 0.4375 20.773438 0.699219 20.773438 0.785156 L 20.773438 2.550781 C 20.773438 2.925781 21.089844 3.015625 21.1875 3.027344 C 21.375 3.046875 21.875 3.117188 22.039062 3.132812 C 22.21875 3.152344 22.410156 3.03125 22.410156 2.785156 L 22.410156 1.03125 C 22.410156 0.945312 22.382812 0.632812 21.957031 0.554688 "/>
<path style=" stroke:none;fill-rule:nonzero;fill:rgb(4.705882%,11.764706%,14.117647%);fill-opacity:1;" d="M 17.941406 0.0742188 C 17.605469 0.0429688 16.792969 0.015625 16.792969 0.015625 L 16.792969 2.691406 L 17.425781 2.714844 L 17.425781 0.507812 C 17.425781 0.507812 17.550781 0.511719 17.679688 0.519531 C 17.808594 0.523438 17.847656 0.578125 17.847656 0.644531 L 17.847656 2.730469 L 18.472656 2.769531 C 18.472656 2.769531 18.472656 0.691406 18.472656 0.53125 C 18.472656 0.382812 18.371094 0.109375 17.941406 0.0742188 "/>
<path style=" stroke:none;fill-rule:nonzero;fill:rgb(4.705882%,11.764706%,14.117647%);fill-opacity:1;" d="M 15.824219 1.21875 L 15.398438 1.21875 L 15.398438 0.578125 C 15.402344 0.527344 15.441406 0.457031 15.578125 0.457031 L 15.824219 0.457031 Z M 15.257812 0 C 14.949219 0 14.769531 0.144531 14.769531 0.472656 C 14.769531 0.632812 14.769531 2.675781 14.769531 2.675781 L 15.398438 2.671875 L 15.398438 1.621094 L 15.824219 1.621094 L 15.824219 2.675781 L 16.457031 2.679688 L 16.457031 0.0117188 C 16.457031 0.0117188 15.953125 0 15.785156 0 Z M 15.257812 0 "/>
<path style=" stroke:none;fill-rule:nonzero;fill:rgb(4.705882%,11.764706%,14.117647%);fill-opacity:1;" d="M 14.460938 1.835938 L 13.957031 1.851562 L 13.835938 2.292969 L 13.664062 2.300781 L 13.664062 0.0429688 L 13.035156 0.0820312 L 13.035156 2.734375 C 13.035156 2.734375 13.296875 2.722656 13.746094 2.707031 C 14.203125 2.695312 14.460938 2.6875 14.460938 2.6875 Z M 14.460938 1.835938 "/>
<path style=" stroke:none;fill-rule:nonzero;fill:rgb(4.705882%,11.764706%,14.117647%);fill-opacity:1;" d="M 11.953125 1.316406 C 11.828125 1.335938 11.675781 1.347656 11.675781 1.347656 L 11.675781 0.652344 C 11.746094 0.644531 11.875 0.628906 11.945312 0.625 C 12.074219 0.613281 12.085938 0.703125 12.085938 0.738281 C 12.085938 0.765625 12.085938 1.175781 12.085938 1.183594 L 12.085938 1.1875 C 12.085938 1.1875 12.082031 1.300781 11.953125 1.316406 M 12.71875 1.683594 C 12.726562 1.59375 12.671875 1.472656 12.5625 1.4375 C 12.632812 1.402344 12.710938 1.300781 12.710938 1.1875 L 12.710938 0.507812 C 12.710938 0.339844 12.582031 0.121094 12.289062 0.136719 C 11.957031 0.15625 11.050781 0.257812 11.050781 0.257812 L 11.050781 2.878906 L 11.675781 2.828125 L 11.675781 1.753906 C 11.75 1.742188 11.957031 1.722656 11.972656 1.71875 C 12.066406 1.714844 12.089844 1.769531 12.089844 1.796875 L 12.089844 2.796875 L 12.71875 2.753906 Z M 12.71875 1.683594 "/>
<path style=" stroke:none;fill-rule:nonzero;fill:rgb(4.705882%,11.764706%,14.117647%);fill-opacity:1;" d="M 10.03125 2.539062 C 9.992188 2.546875 9.871094 2.5625 9.792969 2.570312 C 9.734375 2.574219 9.707031 2.503906 9.707031 2.472656 C 9.707031 2.457031 9.707031 0.984375 9.707031 0.984375 C 9.707031 0.957031 9.71875 0.90625 9.777344 0.894531 C 9.832031 0.882812 9.953125 0.867188 10.011719 0.855469 C 10.066406 0.84375 10.105469 0.898438 10.105469 0.933594 C 10.105469 0.996094 10.105469 2.398438 10.105469 2.4375 C 10.105469 2.476562 10.085938 2.53125 10.03125 2.539062 M 10.34375 0.355469 C 10.269531 0.355469 9.699219 0.429688 9.53125 0.460938 C 9.402344 0.484375 9.082031 0.597656 9.089844 0.949219 L 9.089844 2.746094 C 9.089844 2.898438 9.171875 3.097656 9.4375 3.070312 C 9.515625 3.058594 10.09375 2.980469 10.304688 2.960938 C 10.628906 2.933594 10.734375 2.679688 10.726562 2.5 L 10.726562 0.703125 C 10.730469 0.355469 10.402344 0.355469 10.34375 0.355469 "/>
<path style=" stroke:none;fill-rule:nonzero;fill:rgb(4.705882%,11.764706%,14.117647%);fill-opacity:1;" d="M 19.851562 2.367188 C 19.84375 2.421875 19.796875 2.4375 19.726562 2.429688 L 19.433594 2.40625 L 19.433594 0.671875 C 19.433594 0.671875 19.589844 0.6875 19.699219 0.703125 C 19.800781 0.714844 19.839844 0.75 19.851562 0.800781 Z M 20.003906 0.246094 C 19.855469 0.21875 18.808594 0.121094 18.808594 0.121094 L 18.808594 2.792969 C 18.808594 2.792969 19.773438 2.871094 20 2.890625 C 20.226562 2.914062 20.480469 2.835938 20.480469 2.523438 L 20.480469 0.757812 C 20.480469 0.375 20.207031 0.285156 20.003906 0.246094 "/>
</g>
</svg>
