<?xml version="1.0" encoding="UTF-8"?>
<svg xmlns="http://www.w3.org/2000/svg" xmlns:xlink="http://www.w3.org/1999/xlink" width="23pt" height="23pt" viewBox="0 0 23 23" version="1.1">
<g id="surface1">
<path style=" stroke:none;fill-rule:nonzero;fill:rgb(100%,100%,100%);fill-opacity:1;" d="M 1.28125 11.503906 L 11.488281 21.710938 L 21.699219 11.5 C 18.292969 8.101562 14.898438 4.695312 11.492188 1.296875 Z M 1.28125 11.503906 "/>
<path style=" stroke:none;fill-rule:nonzero;fill:rgb(50.196078%,50.196078%,50.196078%);fill-opacity:1;" d="M 5.863281 5.878906 L 0.238281 11.503906 L 11.488281 22.753906 L 17.117188 17.128906 L 22.742188 11.5 L 17.117188 5.875 C 14.023438 2.78125 11.492188 0.25 11.492188 0.25 C 11.488281 0.25 8.957031 2.785156 5.863281 5.878906 Z M 16.226562 6.765625 L 20.960938 11.5 L 16.222656 16.234375 L 11.488281 20.972656 L 6.757812 16.234375 L 2.023438 11.5 L 6.757812 6.765625 C 9.359375 4.164062 11.488281 2.035156 11.492188 2.035156 C 11.492188 2.035156 13.625 4.164062 16.226562 6.765625 Z M 16.226562 6.765625 "/>
<path style=" stroke:none;fill-rule:nonzero;fill:rgb(25.098039%,25.098039%,25.098039%);fill-opacity:1;" d="M 11.621094 5.65625 C 10.410156 5.65625 8.636719 6.488281 8.636719 7.945312 C 8.636719 8.554688 8.972656 8.945312 9.457031 8.945312 C 10.316406 8.945312 10.492188 7.570312 11.621094 7.570312 C 12.183594 7.570312 12.734375 8.015625 12.734375 8.625 C 12.734375 9.429688 12.195312 9.652344 11.660156 9.804688 C 11.109375 9.957031 10.570312 10.042969 10.570312 10.539062 L 10.570312 11.929688 C 10.570312 12.484375 10.933594 12.882812 11.539062 12.882812 C 12.105469 12.882812 12.507812 12.484375 12.507812 11.929688 L 12.507812 11.429688 C 13.890625 11.066406 14.828125 10.164062 14.828125 8.625 C 14.828125 6.765625 13.351562 5.65625 11.621094 5.65625 Z M 11.566406 13.65625 C 11.546875 13.65625 11.527344 13.660156 11.507812 13.660156 C 11.210938 13.671875 10.929688 13.796875 10.710938 14.019531 C 10.640625 14.085938 10.601562 14.136719 10.546875 14.21875 C 10.425781 14.402344 10.359375 14.578125 10.328125 14.816406 C 10.320312 14.867188 10.320312 15.082031 10.328125 15.136719 C 10.359375 15.398438 10.457031 15.632812 10.613281 15.832031 C 10.652344 15.878906 10.730469 15.960938 10.78125 16.003906 C 10.925781 16.125 11.097656 16.21875 11.273438 16.261719 C 11.386719 16.289062 11.445312 16.296875 11.570312 16.296875 C 11.691406 16.296875 11.753906 16.289062 11.859375 16.265625 C 12.15625 16.191406 12.417969 16 12.59375 15.738281 C 12.722656 15.542969 12.796875 15.328125 12.816406 15.089844 C 12.820312 15.027344 12.816406 14.863281 12.808594 14.808594 C 12.789062 14.644531 12.75 14.511719 12.683594 14.375 C 12.496094 13.988281 12.136719 13.722656 11.734375 13.667969 C 11.6875 13.660156 11.625 13.65625 11.566406 13.65625 Z M 11.566406 13.65625 "/>
</g>
</svg>
