<?xml version="1.0" encoding="UTF-8"?>
<svg xmlns="http://www.w3.org/2000/svg" xmlns:xlink="http://www.w3.org/1999/xlink" width="35pt" height="25pt" viewBox="0 0 35 25" version="1.1">
<g id="surface1">
<path style="fill-rule:nonzero;fill:rgb(0%,0%,0%);fill-opacity:1;stroke-width:0.2666;stroke-linecap:butt;stroke-linejoin:miter;stroke:rgb(0%,0%,0%);stroke-opacity:1;stroke-miterlimit:4;" d="M 229.31034 637.36982 C 185.74784 637.71357 154.62284 653.36982 154.31034 653.68232 C 154.24784 684.58857 159.31034 713.11982 171.49784 736.40107 C 184.93534 762.05732 210.56034 785.90107 229.84159 791.58857 C 253.27909 783.80732 276.37284 760.43232 288.46659 736.46357 C 300.21659 713.24482 305.34159 685.15107 305.37284 653.86982 C 278.34159 641.24482 252.12284 637.21357 229.31034 637.36982 Z M 229.40409 639.86982 C 251.37284 639.71357 276.71659 643.55732 302.87284 655.55732 C 303.12284 687.21357 297.21659 713.90107 286.21659 735.30732 C 272.62284 761.74482 248.90409 782.83857 229.93534 789.18232 C 208.68534 782.77607 184.84159 757.33857 173.59159 735.74482 C 156.96659 703.90107 156.15409 667.86982 157.09159 655.15107 C 157.37284 654.86982 187.40409 640.18232 229.40409 639.86982 Z M 229.40409 639.86982 " transform="matrix(0.125,0,0,0.125,-11.230199,-79.671228)"/>
<path style="fill-rule:nonzero;fill:rgb(0%,0%,0%);fill-opacity:1;stroke-width:0.2498;stroke-linecap:butt;stroke-linejoin:miter;stroke:rgb(0%,0%,0%);stroke-opacity:1;stroke-miterlimit:4;" d="M 300.56034 656.77607 C 257.09159 636.74482 197.09159 637.74482 159.21659 656.93232 C 158.62284 694.15107 168.24784 721.43232 177.09159 737.58857 C 187.09159 755.83857 209.96659 780.24482 230.06034 786.71357 C 257.43534 777.24482 282.02909 744.61982 290.27909 720.96357 C 298.27909 697.93232 300.46659 684.05732 300.56034 656.77607 Z M 300.56034 656.77607 " transform="matrix(0.125,0,0,0.125,-11.230199,-79.671228)"/>
<path style="fill-rule:nonzero;fill:rgb(100%,100%,100%);fill-opacity:1;stroke-width:0.2666;stroke-linecap:butt;stroke-linejoin:miter;stroke:rgb(0%,0%,0%);stroke-opacity:1;stroke-miterlimit:4;" d="M 169.56034 707.33857 L 169.62284 660.05732 C 169.62284 660.05732 169.43534 659.55732 170.27909 659.24482 C 171.12284 658.90107 176.68534 656.83857 176.68534 656.83857 C 176.68534 656.83857 177.40409 656.58857 177.56034 656.99482 C 177.71659 657.40107 191.84159 692.93232 191.84159 692.93232 L 191.56034 653.43232 C 191.56034 653.43232 191.52909 652.71357 192.24784 652.55732 C 192.93534 652.40107 197.15409 651.46357 197.15409 651.46357 C 197.12284 651.46357 197.77909 651.36982 197.77909 652.05732 C 197.77909 652.71357 197.68534 699.43232 197.68534 699.43232 C 197.68534 699.43232 197.59159 700.24482 196.96659 700.36982 C 196.34159 700.49482 190.09159 701.99482 190.12284 701.99482 C 190.12284 701.99482 189.34159 702.18232 189.09159 701.52607 C 188.81034 700.83857 175.21659 666.15107 175.21659 666.15107 C 175.21659 666.15107 175.43534 705.52607 175.43534 705.52607 C 175.40409 705.55732 175.49784 706.18232 174.87284 706.43232 C 174.24784 706.65107 170.27909 708.02607 170.27909 708.02607 C 170.27909 708.02607 169.56034 707.99482 169.56034 707.33857 Z M 169.56034 707.33857 " transform="matrix(0.125,0,0,0.125,-11.230199,-79.671228)"/>
<path style="fill-rule:nonzero;fill:rgb(100%,100%,100%);fill-opacity:1;stroke-width:0.2666;stroke-linecap:butt;stroke-linejoin:miter;stroke:rgb(0%,0%,0%);stroke-opacity:1;stroke-miterlimit:4;" d="M 202.90409 650.99482 C 202.90409 650.99482 202.68534 650.30732 203.90409 650.15107 C 205.12284 650.02607 211.43534 648.55732 227.62284 648.15107 C 227.62284 648.15107 228.71659 647.90107 228.71659 648.65107 C 228.71659 649.43232 228.71659 651.80732 228.71659 651.99482 C 228.71659 652.18232 228.65409 652.74482 228.02909 652.74482 C 227.40409 652.74482 216.59159 652.74482 209.40409 654.18232 L 209.34159 670.61982 C 209.34159 670.61982 214.37284 669.55732 224.65409 669.43232 C 224.65409 669.43232 225.21659 669.08857 225.21659 669.96357 C 225.21659 670.83857 225.21659 673.15107 225.21659 673.15107 C 225.21659 673.15107 225.27909 674.05732 224.56034 673.96357 C 223.81034 673.86982 212.68534 674.33857 209.24784 675.15107 L 209.21659 693.68232 C 209.21659 693.68232 215.24784 692.61982 227.87284 692.33857 C 227.87284 692.33857 228.68534 692.11982 228.68534 693.05732 C 228.68534 693.99482 228.68534 696.02607 228.68534 696.02607 C 228.68534 696.02607 228.90409 696.96357 227.87284 696.96357 C 226.87284 696.96357 212.90409 697.18232 203.90409 698.99482 C 203.90409 698.99482 202.99784 699.11982 202.99784 698.46357 Z M 202.90409 650.99482 " transform="matrix(0.125,0,0,0.125,-11.230199,-79.671228)"/>
<path style="fill-rule:nonzero;fill:rgb(100%,100%,100%);fill-opacity:1;stroke-width:0.2666;stroke-linecap:butt;stroke-linejoin:miter;stroke:rgb(0%,0%,0%);stroke-opacity:1;stroke-miterlimit:4;" d="M 243.87284 696.71357 L 243.84159 653.30732 C 243.84159 653.30732 237.18534 652.55732 232.49784 652.74482 C 232.49784 652.74482 231.84159 652.80732 231.84159 652.11982 C 231.84159 651.43232 231.84159 648.65107 231.84159 648.65107 C 231.84159 648.65107 231.65409 648.08857 232.46659 648.11982 C 233.31034 648.15107 248.21659 648.24482 261.74784 650.80732 C 261.74784 650.80732 262.46659 650.93232 262.46659 651.49482 C 262.46659 652.08857 262.46659 654.80732 262.46659 654.80732 C 262.46659 654.80732 262.34159 655.68232 261.68534 655.55732 C 260.99784 655.40107 256.12284 654.46357 250.27909 653.83857 L 250.27909 697.05732 C 250.27909 697.05732 250.43534 697.90107 249.65409 697.83857 L 244.65409 697.43232 C 244.65409 697.43232 243.90409 697.49482 243.87284 696.71357 Z M 243.87284 696.71357 " transform="matrix(0.125,0,0,0.125,-11.230199,-79.671228)"/>
<path style="fill-rule:nonzero;fill:rgb(100%,100%,100%);fill-opacity:1;stroke-width:0.2666;stroke-linecap:butt;stroke-linejoin:miter;stroke:rgb(0%,0%,0%);stroke-opacity:1;stroke-miterlimit:4;" d="M 285.43534 672.30732 C 285.43534 672.30732 284.84159 672.02607 284.87284 671.58857 C 284.90409 671.15107 284.90409 665.15107 284.90409 665.15107 C 284.90409 665.15107 284.81034 661.86982 280.68534 659.61982 C 280.68534 659.61982 277.96659 657.90107 273.56034 658.02607 C 273.40409 658.08857 270.93534 658.15107 270.77909 661.71357 C 270.77909 661.71357 270.56034 665.93232 272.31034 668.24482 C 272.31034 668.24482 275.06034 671.86982 278.49784 675.30732 L 284.06034 681.18232 C 284.06034 681.18232 288.96659 686.21357 290.40409 689.21357 C 290.40409 689.21357 291.84159 691.40107 292.02909 696.86982 C 292.02909 696.86982 292.65409 704.86982 286.21659 705.21357 C 286.21659 705.21357 281.37284 706.18232 272.12284 702.27607 C 272.12284 702.27607 263.52909 699.24482 262.84159 691.21357 L 262.74784 683.71357 C 262.74784 683.71357 262.71659 682.99482 263.46659 683.02607 L 268.56034 683.99482 C 268.56034 683.99482 269.12284 683.99482 269.12284 684.74482 L 269.15409 691.93232 C 269.15409 691.93232 269.40409 698.52607 281.02909 700.27607 C 281.02909 700.27607 285.71659 701.33857 285.65409 696.90107 L 285.68534 693.11982 C 285.68534 693.11982 285.59159 689.58857 280.43534 684.52607 L 269.21659 673.27607 C 269.21659 673.27607 265.21659 669.27607 264.43534 663.99482 C 264.43534 663.99482 264.06034 658.93232 265.81034 656.08857 C 265.81034 656.08857 269.59159 649.52607 283.12284 655.96357 C 283.12284 655.96357 290.02909 658.58857 290.87284 665.52607 L 291.24784 673.52607 C 291.24784 673.52607 291.18534 674.33857 290.46659 674.21357 C 289.74784 674.05732 285.43534 672.30732 285.43534 672.30732 Z M 285.43534 672.30732 " transform="matrix(0.125,0,0,0.125,-11.230199,-79.671228)"/>
<path style="fill:none;stroke-width:0.2666;stroke-linecap:butt;stroke-linejoin:miter;stroke:rgb(0%,0%,0%);stroke-opacity:1;stroke-miterlimit:4;" d="M 225.96659 719.55732 C 225.96659 719.55732 225.71659 719.49482 225.71659 719.83857 C 225.71659 720.21357 225.71659 734.86982 225.71659 734.86982 C 225.71659 734.86982 225.68534 735.11982 225.96659 735.11982 C 226.24784 735.11982 229.71659 735.11982 229.71659 735.11982 C 229.71659 735.11982 233.71659 734.58857 233.71659 731.02607 C 233.71659 727.49482 233.71659 722.93232 233.71659 722.93232 C 233.84159 719.18232 230.59159 719.55732 229.59159 719.52607 Z M 225.96659 719.55732 " transform="matrix(0.125,0,0,0.125,-11.230199,-79.671228)"/>
<path style="fill:none;stroke-width:0.2666;stroke-linecap:butt;stroke-linejoin:miter;stroke:rgb(0%,0%,0%);stroke-opacity:1;stroke-miterlimit:4;" d="M 225.96659 740.40107 C 225.96659 740.40107 225.71659 740.36982 225.68534 740.68232 C 225.68534 740.68232 225.71659 759.24482 225.68534 759.24482 C 225.68534 759.24482 225.68534 759.55732 226.06034 759.58857 C 226.40409 759.58857 231.46659 759.65107 231.46659 759.65107 C 231.90409 759.40107 235.62284 760.30732 235.65409 754.40107 L 235.65409 745.05732 C 235.56034 744.27607 235.21659 740.27607 229.02909 740.40107 Z M 225.96659 740.40107 " transform="matrix(0.125,0,0,0.125,-11.230199,-79.671228)"/>
<path style="fill-rule:nonzero;fill:rgb(100%,100%,100%);fill-opacity:1;stroke-width:0.2666;stroke-linecap:butt;stroke-linejoin:miter;stroke:rgb(100%,100%,100%);stroke-opacity:1;stroke-miterlimit:4;" d="M 219.90409 705.83857 C 215.74784 706.74482 207.27909 710.65107 201.18534 718.93232 C 208.84159 717.74482 215.12284 721.93232 217.46659 722.93232 L 217.49784 725.43232 C 209.49784 721.33857 204.71659 720.90107 200.02909 720.93232 C 198.31034 722.52607 194.56034 732.05732 194.99784 741.21357 C 196.31034 741.99482 197.34159 747.36982 217.40409 752.02607 L 217.37284 755.02607 C 217.37284 755.02607 202.71659 753.46357 195.24784 743.65107 C 196.12284 752.08857 202.77909 766.02607 215.37284 770.27607 C 226.43534 771.83857 232.96659 768.21357 242.96659 763.24482 C 253.77909 757.49482 253.68534 757.15107 257.18534 755.46357 C 258.09159 751.99482 258.21659 749.18232 258.21659 749.18232 C 252.21659 752.18232 243.77909 753.83857 243.77909 753.83857 L 243.74784 751.36982 C 251.09159 750.02607 258.34159 746.61982 258.34159 746.61982 C 258.40409 742.02607 257.87284 739.18232 257.87284 739.18232 C 252.65409 742.33857 243.56034 739.02607 242.18534 738.71357 C 241.09159 736.90107 240.59159 736.93232 240.59159 736.93232 C 241.74784 735.46357 241.40409 734.93232 241.40409 734.93232 C 245.74784 737.21357 252.90409 738.52607 257.21659 736.52607 C 252.27909 716.11982 234.27909 703.83857 219.90409 705.83857 Z M 219.90409 705.83857 " transform="matrix(0.125,0,0,0.125,-11.230199,-79.671228)"/>
<path style=" stroke:none;fill-rule:nonzero;fill:rgb(100%,100%,100%);fill-opacity:1;" d="M 16.054688 16.816406 C 16.664062 17.257812 20.125 17.398438 20.84375 15.0625 C 19.292969 16.023438 17.835938 17.070312 16.054688 16.816406 Z M 16.054688 16.816406 "/>
<path style=" stroke:none;fill-rule:nonzero;fill:rgb(100%,100%,100%);fill-opacity:1;" d="M 20.707031 15.679688 C 20.707031 15.679688 21.28125 15.035156 21.300781 14.800781 C 21.253906 14.753906 21.164062 14.832031 21.101562 14.871094 C 21.144531 14.890625 20.890625 15.382812 20.707031 15.679688 Z M 20.707031 15.679688 "/>
<path style=" stroke:none;fill-rule:nonzero;fill:rgb(100%,100%,100%);fill-opacity:1;" d="M 21.351562 13.796875 C 21.34375 13.902344 21.371094 13.957031 21.199219 14.632812 C 21.316406 14.597656 21.328125 14.589844 21.417969 14.683594 C 21.710938 14.164062 21.804688 13.589844 21.828125 13.269531 C 21.613281 13.6875 21.351562 13.796875 21.351562 13.796875 Z M 21.351562 13.796875 "/>
<path style="fill-rule:nonzero;fill:rgb(0%,0%,0%);fill-opacity:1;stroke-width:0.2666;stroke-linecap:butt;stroke-linejoin:miter;stroke:rgb(0%,0%,0%);stroke-opacity:1;stroke-miterlimit:4;" d="M 219.96659 715.58857 C 219.99784 731.68232 219.99784 747.80732 220.02909 763.90107 C 220.71659 765.74482 223.37284 764.52607 224.96659 764.83857 C 227.87284 764.77607 230.77909 764.93232 233.68534 764.71357 C 237.43534 764.15107 240.90409 761.11982 241.09159 757.21357 C 241.09159 752.55732 241.09159 747.90107 241.06034 743.24482 C 240.71659 740.65107 238.84159 738.21357 236.34159 737.36982 C 238.84159 735.99482 239.59159 732.99482 239.37284 730.36982 C 239.31034 727.27607 239.49784 724.18232 239.18534 721.11982 C 238.93534 718.33857 237.15409 715.52607 234.31034 714.83857 C 231.87284 714.18232 229.34159 714.55732 226.84159 714.46357 C 224.77909 714.49482 222.68534 714.43232 220.62284 714.52607 C 220.18534 714.65107 219.93534 715.15107 219.96659 715.58857 Z M 219.96659 715.58857 " transform="matrix(0.125,0,0,0.125,-11.230199,-79.671228)"/>
<path style="fill-rule:nonzero;fill:rgb(100%,100%,100%);fill-opacity:1;stroke-width:0.2666;stroke-linecap:butt;stroke-linejoin:miter;stroke:rgb(0%,0%,0%);stroke-opacity:1;stroke-miterlimit:4;" d="M 225.87284 719.55732 C 225.87284 719.55732 225.65409 719.61982 225.65409 719.83857 C 225.65409 720.02607 225.68534 734.86982 225.68534 734.86982 C 225.68534 734.86982 225.65409 735.08857 225.90409 735.05732 C 226.18534 735.02607 229.68534 735.05732 229.68534 735.05732 C 229.68534 735.05732 233.68534 735.02607 233.68534 730.80732 L 233.71659 722.52607 C 233.71659 722.52607 234.02909 719.61982 230.59159 719.58857 Z M 225.87284 719.55732 " transform="matrix(0.125,0,0,0.125,-11.230199,-79.671228)"/>
<path style="fill-rule:nonzero;fill:rgb(100%,100%,100%);fill-opacity:1;stroke-width:0.2666;stroke-linecap:butt;stroke-linejoin:miter;stroke:rgb(0%,0%,0%);stroke-opacity:1;stroke-miterlimit:4;" d="M 225.68534 740.30732 L 225.68534 759.30732 C 225.68534 759.30732 225.65409 759.61982 226.12284 759.61982 C 226.59159 759.61982 231.74784 759.61982 231.74784 759.61982 C 231.74784 759.61982 235.59159 760.05732 235.56034 754.58857 L 235.52909 744.52607 C 235.52909 744.52607 235.09159 740.27607 229.24784 740.33857 L 225.68534 740.33857 Z M 225.68534 740.30732 " transform="matrix(0.125,0,0,0.125,-11.230199,-79.671228)"/>
<path style=" stroke:none;fill-rule:nonzero;fill:rgb(100%,100%,100%);fill-opacity:1;" d="M 21.71875 11.636719 C 21.921875 12.082031 21.875 12.78125 21.875 12.78125 C 21.738281 13.15625 21.570312 13.375 21.34375 13.519531 C 21.347656 12.867188 21.242188 12.523438 21.242188 12.523438 C 21.640625 12.175781 21.71875 11.636719 21.71875 11.636719 Z M 21.71875 11.636719 "/>
<path style="fill-rule:nonzero;fill:rgb(100%,100%,100%);fill-opacity:1;stroke-width:0.2666;stroke-linecap:butt;stroke-linejoin:miter;stroke:rgb(100%,100%,100%);stroke-opacity:1;stroke-miterlimit:4;" d="M 261.59159 726.27607 C 259.31034 714.71357 243.46659 702.55732 226.59159 704.33857 C 246.87284 706.46357 256.52909 726.11982 259.18534 734.74482 C 261.99784 733.30732 261.59159 726.27607 261.59159 726.27607 Z M 261.59159 726.27607 " transform="matrix(0.125,0,0,0.125,-11.230199,-79.671228)"/>
<path style="fill-rule:nonzero;fill:rgb(0%,0%,0%);fill-opacity:1;stroke-width:0.2666;stroke-linecap:butt;stroke-linejoin:miter;stroke:rgb(0%,0%,0%);stroke-opacity:1;stroke-miterlimit:4;" d="M 166.52909 800.61982 L 166.56034 836.40107 C 166.56034 836.40107 166.56034 836.83857 166.71659 836.83857 C 166.84159 836.83857 175.84159 836.83857 175.84159 836.83857 C 176.15409 836.83857 181.06034 835.58857 181.09159 831.21357 L 181.09159 821.55732 C 180.99784 819.90107 179.52909 817.61982 177.27909 817.30732 C 177.46659 817.11982 179.90409 815.90107 179.84159 813.02607 L 179.87284 805.36982 C 179.93534 803.05732 177.96659 800.71357 175.27909 800.68232 Z M 166.52909 800.61982 " transform="matrix(0.125,0,0,0.125,-11.230199,-79.671228)"/>
<path style="fill-rule:nonzero;fill:rgb(100%,100%,100%);fill-opacity:1;stroke-width:0.2666;stroke-linecap:butt;stroke-linejoin:miter;stroke:rgb(0%,0%,0%);stroke-opacity:1;stroke-miterlimit:4;" d="M 170.06034 803.77607 C 170.06034 803.83857 169.93534 803.77607 169.93534 803.99482 C 169.93534 804.21357 169.96659 815.71357 169.96659 815.71357 C 169.96659 815.71357 169.93534 815.86982 170.09159 815.86982 C 170.27909 815.86982 172.46659 815.86982 172.46659 815.86982 C 172.46659 815.86982 176.31034 816.05732 176.34159 812.77607 L 176.34159 806.11982 C 176.34159 806.11982 176.62284 803.86982 173.52909 803.83857 Z M 170.06034 803.77607 " transform="matrix(0.125,0,0,0.125,-11.230199,-79.671228)"/>
<path style="fill-rule:nonzero;fill:rgb(100%,100%,100%);fill-opacity:1;stroke-width:0.2666;stroke-linecap:butt;stroke-linejoin:miter;stroke:rgb(0%,0%,0%);stroke-opacity:1;stroke-miterlimit:4;" d="M 170.12284 818.99482 C 169.96659 819.18232 169.99784 819.27607 169.99784 819.27607 L 169.99784 833.58857 C 169.99784 833.58857 169.99784 833.74482 170.09159 833.74482 C 170.21659 833.74482 174.43534 833.74482 174.43534 833.74482 C 174.43534 833.74482 177.77909 833.90107 177.74784 829.61982 L 177.71659 823.15107 C 177.71659 823.15107 178.09159 818.99482 173.34159 819.02607 Z M 170.12284 818.99482 " transform="matrix(0.125,0,0,0.125,-11.230199,-79.671228)"/>
<path style="fill-rule:nonzero;fill:rgb(0%,0%,0%);fill-opacity:1;stroke-width:0.2666;stroke-linecap:butt;stroke-linejoin:miter;stroke:rgb(0%,0%,0%);stroke-opacity:1;stroke-miterlimit:4;" d="M 183.12284 800.74482 L 183.27909 836.40107 C 183.27909 836.40107 183.31034 836.83857 183.52909 836.77607 C 183.71659 836.74482 186.21659 836.77607 186.21659 836.77607 C 186.21659 836.77607 186.62284 836.74482 186.62284 836.30732 C 186.62284 835.86982 186.65409 819.74482 186.65409 819.74482 L 189.62284 819.68232 L 196.02909 836.77607 L 199.15409 836.77607 C 199.15409 836.77607 199.40409 836.74482 199.43534 836.55732 L 199.43534 835.99482 L 193.18534 819.43232 C 193.77909 819.43232 197.87284 817.58857 197.84159 814.30732 L 197.84159 805.71357 C 197.84159 805.71357 197.43534 800.71357 191.46659 800.74482 Z M 183.12284 800.74482 " transform="matrix(0.125,0,0,0.125,-11.230199,-79.671228)"/>
<path style="fill-rule:nonzero;fill:rgb(100%,100%,100%);fill-opacity:1;stroke-width:0.2666;stroke-linecap:butt;stroke-linejoin:miter;stroke:rgb(0%,0%,0%);stroke-opacity:1;stroke-miterlimit:4;" d="M 186.62284 803.80732 L 186.62284 816.52607 L 191.81034 816.52607 C 191.81034 816.52607 194.31034 816.43232 194.27909 813.71357 L 194.31034 807.15107 C 194.31034 807.15107 194.59159 803.77607 191.34159 803.83857 Z M 186.62284 803.80732 " transform="matrix(0.125,0,0,0.125,-11.230199,-79.671228)"/>
<path style="fill-rule:nonzero;fill:rgb(0%,0%,0%);fill-opacity:1;stroke-width:0.2666;stroke-linecap:butt;stroke-linejoin:miter;stroke:rgb(0%,0%,0%);stroke-opacity:1;stroke-miterlimit:4;" d="M 200.09159 807.99482 L 200.12284 829.83857 C 200.21659 839.77607 215.34159 839.96357 215.31034 829.93232 L 215.27909 807.86982 C 215.37284 797.21357 200.02909 797.93232 200.09159 807.99482 Z M 200.09159 807.99482 " transform="matrix(0.125,0,0,0.125,-11.230199,-79.671228)"/>
<path style="fill-rule:nonzero;fill:rgb(100%,100%,100%);fill-opacity:1;stroke-width:0.2666;stroke-linecap:butt;stroke-linejoin:miter;stroke:rgb(0%,0%,0%);stroke-opacity:1;stroke-miterlimit:4;" d="M 203.49784 807.49482 L 203.49784 829.74482 C 203.46659 835.36982 211.90409 835.58857 211.93534 829.74482 L 211.93534 807.74482 C 211.93534 802.18232 203.56034 802.02607 203.49784 807.49482 Z M 203.49784 807.49482 " transform="matrix(0.125,0,0,0.125,-11.230199,-79.671228)"/>
<path style="fill-rule:nonzero;fill:rgb(0%,0%,0%);fill-opacity:1;stroke-width:0.2666;stroke-linecap:butt;stroke-linejoin:miter;stroke:rgb(0%,0%,0%);stroke-opacity:1;stroke-miterlimit:4;" d="M 217.40409 807.90107 L 217.46659 829.77607 C 217.43534 839.71357 232.68534 839.86982 232.65409 829.86982 L 232.59159 807.80732 C 232.71659 797.15107 217.37284 797.86982 217.40409 807.90107 Z M 217.40409 807.90107 " transform="matrix(0.125,0,0,0.125,-11.230199,-79.671228)"/>
<path style="fill-rule:nonzero;fill:rgb(100%,100%,100%);fill-opacity:1;stroke-width:0.2666;stroke-linecap:butt;stroke-linejoin:miter;stroke:rgb(0%,0%,0%);stroke-opacity:1;stroke-miterlimit:4;" d="M 220.84159 807.43232 L 220.84159 829.68232 C 220.81034 835.27607 229.21659 835.52607 229.27909 829.68232 L 229.27909 807.68232 C 229.27909 802.11982 220.90409 801.93232 220.84159 807.43232 Z M 220.84159 807.43232 " transform="matrix(0.125,0,0,0.125,-11.230199,-79.671228)"/>
<path style="fill-rule:nonzero;fill:rgb(0%,0%,0%);fill-opacity:1;stroke-width:0.2666;stroke-linecap:butt;stroke-linejoin:miter;stroke:rgb(0%,0%,0%);stroke-opacity:1;stroke-miterlimit:4;" d="M 237.84159 800.40107 L 235.18534 800.40107 C 235.12284 800.43232 234.68534 800.30732 234.77909 800.80732 L 234.81034 836.27607 C 234.81034 836.27607 234.81034 836.65107 235.12284 836.68232 C 235.52909 836.68232 237.81034 836.68232 237.81034 836.68232 C 237.84159 836.65107 238.27909 836.77607 238.24784 836.27607 L 238.24784 822.77607 L 240.09159 819.40107 L 246.24784 836.33857 C 246.24784 836.33857 246.31034 836.61982 246.59159 836.65107 L 249.49784 836.65107 C 249.49784 836.65107 249.84159 836.68232 249.84159 836.40107 C 249.84159 836.08857 249.84159 835.74482 249.84159 835.74482 L 242.40409 815.05732 L 249.77909 800.99482 C 249.77909 800.99482 249.93534 800.43232 249.49784 800.43232 L 246.34159 800.43232 C 246.24784 800.46357 246.15409 800.49482 246.12284 800.58857 L 238.27909 815.96357 L 238.24784 800.77607 C 238.24784 800.77607 238.31034 800.40107 237.99784 800.40107 Z M 237.84159 800.40107 " transform="matrix(0.125,0,0,0.125,-11.230199,-79.671228)"/>
<path style="fill-rule:nonzero;fill:rgb(0%,0%,0%);fill-opacity:1;stroke-width:0.2666;stroke-linecap:butt;stroke-linejoin:miter;stroke:rgb(0%,0%,0%);stroke-opacity:1;stroke-miterlimit:4;" d="M 254.46659 800.55732 L 251.68534 800.52607 C 251.68534 800.52607 251.27909 800.52607 251.27909 801.11982 L 251.31034 836.33857 C 251.31034 836.33857 251.49784 836.68232 251.68534 836.68232 L 263.68534 836.68232 C 263.68534 836.68232 263.96659 836.58857 263.96659 836.21357 L 263.96659 833.96357 C 263.96659 833.96357 264.06034 833.58857 263.56034 833.58857 L 254.90409 833.58857 L 254.87284 800.93232 C 254.87284 800.93232 254.74784 800.52607 254.46659 800.55732 Z M 254.46659 800.55732 " transform="matrix(0.125,0,0,0.125,-11.230199,-79.671228)"/>
<path style="fill-rule:nonzero;fill:rgb(0%,0%,0%);fill-opacity:1;stroke-width:0.2666;stroke-linecap:butt;stroke-linejoin:miter;stroke:rgb(0%,0%,0%);stroke-opacity:1;stroke-miterlimit:4;" d="M 262.49784 800.55732 L 259.87284 800.55732 C 259.87284 800.55732 259.40409 800.80732 259.49784 801.21357 C 259.59159 801.58857 266.49784 821.05732 266.49784 821.05732 L 266.56034 836.36982 C 266.56034 836.36982 266.49784 836.71357 266.74784 836.74482 C 266.96659 836.77607 269.46659 836.74482 269.46659 836.74482 C 269.46659 836.74482 269.84159 836.74482 269.84159 836.36982 L 269.84159 821.08857 L 277.18534 801.08857 C 277.18534 801.08857 277.43534 800.49482 276.77909 800.52607 C 276.09159 800.55732 273.99784 800.52607 273.99784 800.52607 C 273.99784 800.52607 273.62284 800.52607 273.49784 801.02607 C 273.37284 801.52607 268.31034 816.30732 268.31034 816.30732 L 263.12284 800.93232 C 263.12284 800.93232 262.93534 800.55732 262.49784 800.55732 Z M 262.49784 800.55732 " transform="matrix(0.125,0,0,0.125,-11.230199,-79.671228)"/>
<path style="fill-rule:nonzero;fill:rgb(0%,0%,0%);fill-opacity:1;stroke-width:0.2666;stroke-linecap:butt;stroke-linejoin:miter;stroke:rgb(0%,0%,0%);stroke-opacity:1;stroke-miterlimit:4;" d="M 282.27909 800.55732 L 278.62284 800.55732 C 278.62284 800.55732 278.27909 800.58857 278.24784 801.02607 C 278.21659 801.49482 278.21659 836.40107 278.21659 836.40107 C 278.21659 836.40107 278.09159 836.80732 278.49784 836.80732 C 278.90409 836.80732 281.09159 836.83857 281.09159 836.83857 C 281.09159 836.83857 281.52909 836.83857 281.56034 836.33857 C 281.59159 835.83857 281.43534 807.33857 281.43534 807.33857 L 288.62284 836.46357 C 288.62284 836.46357 288.81034 836.77607 289.09159 836.77607 L 292.90409 836.77607 C 292.90409 836.77607 293.27909 836.86982 293.27909 836.36982 L 293.27909 800.93232 C 293.27909 800.93232 293.24784 800.61982 292.77909 800.58857 L 290.18534 800.58857 C 290.18534 800.58857 289.81034 800.55732 289.81034 800.93232 L 290.27909 831.18232 L 282.71659 800.86982 C 282.71659 800.86982 282.68534 800.55732 282.27909 800.55732 Z M 282.27909 800.55732 " transform="matrix(0.125,0,0,0.125,-11.230199,-79.671228)"/>
</g>
</svg>
