<?xml version="1.0" encoding="UTF-8"?>
<svg xmlns="http://www.w3.org/2000/svg" xmlns:xlink="http://www.w3.org/1999/xlink" width="20pt" height="20pt" viewBox="0 0 20 20" version="1.1">
<g id="surface1">
<path style=" stroke:none;fill-rule:evenodd;fill:rgb(10.980392%,14.509804%,14.117647%);fill-opacity:1;" d="M 18.238281 7.6875 C 18.175781 6.492188 17.632812 5.394531 17.3125 4.757812 C 17.3125 4.757812 17.132812 4.402344 17.132812 4.402344 C 17.132812 4.402344 17.152344 4.71875 17.152344 4.71875 C 17.191406 5.136719 17.292969 6.609375 16.851562 7.449219 C 16.289062 8.582031 14.679688 8.484375 14.136719 8.441406 C 14.136719 8.441406 14.09375 8.441406 14.09375 8.441406 C 13.230469 8.382812 10.394531 8.285156 9.511719 8.285156 C 8.363281 8.285156 7.097656 8.382812 6.074219 8.464844 C 5.570312 8.503906 5.148438 8.523438 4.847656 8.542969 C 4.824219 8.542969 4.785156 8.542969 4.746094 8.542969 C 3.316406 8.683594 2.414062 8.265625 2.050781 7.308594 C 1.828125 6.710938 1.851562 5.554688 1.851562 5 C 1.851562 5 1.851562 4.601562 1.851562 4.601562 C 1.851562 4.601562 1.730469 4.800781 1.730469 4.800781 C 1.46875 5.296875 0.964844 6.210938 0.804688 7.726562 C 0.703125 9.539062 1.648438 10.175781 2.351562 10.492188 C 3.097656 10.851562 3.878906 10.890625 4.121094 10.914062 C 4.121094 10.914062 4.140625 10.914062 4.140625 10.914062 C 4.183594 10.914062 4.242188 10.914062 4.304688 10.933594 C 4.382812 10.933594 4.464844 10.933594 4.542969 10.953125 C 4.421875 10.972656 4.242188 11.011719 4.082031 11.03125 C 3.921875 11.050781 3.761719 11.089844 3.679688 11.113281 C 3.5 11.132812 2.796875 11.308594 2.394531 11.429688 C 2.070312 11.550781 1.710938 11.707031 1.710938 11.707031 C 1.710938 11.707031 1.648438 11.75 1.648438 11.75 C 1.648438 11.75 1.6875 11.808594 1.6875 11.808594 C 1.6875 11.808594 1.808594 11.96875 1.929688 12.085938 C 2.191406 12.347656 2.894531 12.785156 3.738281 12.683594 C 4.421875 12.585938 4.785156 12.445312 4.925781 12.367188 C 4.988281 12.503906 5.085938 12.84375 5.1875 13.101562 C 5.488281 13.859375 6.191406 15.3125 6.453125 15.8125 C 6.675781 16.210938 6.875 16.566406 7.019531 16.804688 C 7.019531 16.804688 7.078125 16.886719 7.078125 16.886719 C 7.039062 17.046875 6.917969 17.144531 6.835938 17.222656 C 6.816406 17.246094 6.796875 17.246094 6.777344 17.265625 C 6.777344 17.265625 6.757812 17.285156 6.757812 17.285156 C 6.757812 17.285156 6.757812 17.304688 6.757812 17.304688 C 6.757812 17.445312 6.714844 18.699219 7.582031 19.613281 C 7.582031 19.613281 7.601562 19.632812 7.601562 19.632812 C 8.042969 19.792969 8.585938 19.953125 9.492188 19.953125 C 10.414062 19.953125 11.179688 19.753906 11.460938 19.613281 C 11.460938 19.613281 11.460938 19.59375 11.460938 19.59375 C 11.460938 19.59375 11.480469 19.59375 11.480469 19.59375 C 12.085938 18.898438 12.347656 17.84375 12.367188 17.445312 C 12.367188 17.445312 12.367188 17.421875 12.367188 17.421875 C 12.367188 17.421875 12.347656 17.402344 12.347656 17.402344 C 12.324219 17.382812 12.304688 17.382812 12.285156 17.363281 C 12.207031 17.265625 12.085938 17.164062 12.023438 16.90625 C 12.085938 16.785156 12.226562 16.488281 12.347656 16.25 C 12.425781 16.109375 12.46875 15.988281 12.507812 15.929688 C 12.75 15.433594 13.492188 13.859375 13.792969 13.121094 C 13.976562 12.644531 14.074219 12.40625 14.136719 12.324219 C 14.257812 12.386719 14.617188 12.546875 15.28125 12.605469 C 16.125 12.703125 16.949219 12.125 17.171875 11.808594 C 17.210938 11.769531 17.292969 11.6875 17.292969 11.6875 C 17.292969 11.6875 17.332031 11.628906 17.332031 11.628906 C 17.332031 11.628906 17.273438 11.589844 17.273438 11.589844 C 17.253906 11.589844 17.234375 11.589844 17.113281 11.53125 C 17.113281 11.53125 16.148438 11.230469 16.148438 11.230469 C 16.027344 11.171875 15.441406 11.050781 15.019531 10.972656 C 15.019531 10.972656 14.699219 10.890625 14.699219 10.890625 C 14.699219 10.890625 14.800781 10.871094 14.800781 10.871094 C 15.785156 10.714844 18.398438 10.253906 18.238281 7.6875 Z M 18.238281 7.6875 "/>
<path style=" stroke:none;fill-rule:evenodd;fill:rgb(82.352941%,8.235294%,22.745098%);fill-opacity:1;" d="M 1.730469 5.097656 C 1.710938 5.773438 1.710938 6.492188 1.871094 7.128906 C 1.730469 7.007812 1.570312 6.851562 1.425781 6.730469 C 1.285156 6.871094 1.167969 7.027344 1.027344 7.167969 C 1.167969 6.453125 1.40625 5.753906 1.730469 5.097656 Z M 1.730469 5.097656 "/>
<path style=" stroke:none;fill-rule:evenodd;fill:rgb(82.352941%,8.235294%,22.745098%);fill-opacity:1;" d="M 17.976562 6.871094 C 17.976562 6.871094 18.015625 7.050781 18.015625 7.050781 C 18.015625 7.050781 17.675781 6.808594 17.675781 6.808594 C 17.515625 6.871094 17.375 6.96875 17.210938 7.050781 C 17.332031 6.410156 17.351562 5.734375 17.3125 5.058594 C 17.613281 5.636719 17.796875 6.253906 17.976562 6.871094 Z M 17.976562 6.871094 "/>
<path style=" stroke:none;fill-rule:evenodd;fill:rgb(82.352941%,8.235294%,22.745098%);fill-opacity:1;" d="M 9.53125 13.183594 C 9.894531 13.738281 10.578125 13.898438 11.179688 13.738281 C 11.421875 13.699219 11.640625 13.601562 11.84375 13.519531 C 11.664062 14.097656 11.523438 14.753906 11.542969 15.414062 C 11.542969 15.988281 11.640625 16.546875 11.804688 17.066406 C 11.722656 17.027344 11.640625 16.964844 11.542969 16.925781 C 10.296875 16.308594 8.566406 16.328125 7.339844 16.964844 C 7.398438 16.765625 7.460938 16.566406 7.5 16.367188 C 7.703125 15.433594 7.5625 14.457031 7.238281 13.621094 C 7.902344 13.898438 8.847656 13.957031 9.390625 13.339844 C 9.449219 13.300781 9.472656 13.242188 9.53125 13.183594 Z M 9.53125 13.183594 "/>
<path style=" stroke:none;fill-rule:evenodd;fill:rgb(82.352941%,8.235294%,22.745098%);fill-opacity:1;" d="M 6.777344 13.640625 C 6.734375 13.917969 6.65625 14.199219 6.375 14.296875 C 6.152344 14.355469 5.933594 14.238281 5.792969 14.078125 C 5.730469 14 5.671875 13.917969 5.648438 13.820312 C 5.992188 14.039062 6.453125 13.859375 6.757812 13.640625 C 6.757812 13.640625 6.777344 13.640625 6.777344 13.640625 Z M 6.777344 13.640625 "/>
<path style=" stroke:none;fill-rule:evenodd;fill:rgb(82.352941%,8.235294%,22.745098%);fill-opacity:1;" d="M 13.410156 13.679688 C 13.332031 13.917969 13.128906 14.15625 12.871094 14.199219 C 12.6875 14.238281 12.527344 14.136719 12.40625 13.980469 C 12.347656 13.898438 12.324219 13.800781 12.304688 13.699219 C 12.609375 13.9375 13.089844 13.878906 13.410156 13.679688 Z M 13.410156 13.679688 "/>
<path style=" stroke:none;fill-rule:evenodd;fill:rgb(82.352941%,8.235294%,22.745098%);fill-opacity:1;" d="M 12.726562 14.355469 C 12.847656 14.378906 12.988281 14.355469 13.109375 14.316406 C 12.769531 15.171875 12.347656 16.007812 11.902344 16.847656 C 11.761719 16.429688 11.785156 15.96875 11.824219 15.511719 C 11.882812 14.953125 12.023438 14.417969 12.183594 13.898438 C 12.285156 14.117188 12.488281 14.316406 12.726562 14.355469 Z M 12.726562 14.355469 "/>
<path style=" stroke:none;fill-rule:evenodd;fill:rgb(82.352941%,8.235294%,22.745098%);fill-opacity:1;" d="M 7.21875 16.847656 C 6.695312 16.050781 6.292969 15.214844 5.890625 14.355469 C 6.074219 14.4375 6.355469 14.515625 6.535156 14.378906 C 6.714844 14.257812 6.816406 14.078125 6.875 13.878906 C 7.320312 14.734375 7.417969 15.871094 7.21875 16.847656 Z M 7.21875 16.847656 "/>
<path style=" stroke:none;fill-rule:evenodd;fill:rgb(82.352941%,8.235294%,22.745098%);fill-opacity:1;" d="M 12.183594 17.523438 C 12.085938 18.261719 11.824219 18.917969 11.339844 19.496094 C 10.253906 19.933594 8.765625 19.972656 7.679688 19.515625 C 7.136719 18.917969 6.9375 18.179688 6.898438 17.382812 C 8.0625 16.546875 9.894531 16.367188 11.21875 16.964844 C 11.5625 17.125 11.882812 17.285156 12.183594 17.523438 Z M 12.183594 17.523438 "/>
<path style=" stroke:none;fill-rule:evenodd;fill:rgb(82.352941%,8.235294%,22.745098%);fill-opacity:1;" d="M 16.6875 11.53125 C 15.785156 11.171875 14.597656 10.972656 13.613281 10.953125 C 13.511719 9.835938 13.390625 9.160156 13.171875 8.542969 C 12.667969 8.503906 10.375 8.421875 9.511719 8.421875 C 8.625 8.421875 6.394531 8.5625 5.871094 8.582031 C 5.671875 9.179688 5.429688 9.917969 5.328125 11.011719 C 4.324219 11.070312 2.957031 11.351562 2.050781 11.6875 C 1.910156 11.75 1.851562 11.789062 1.851562 11.789062 C 1.992188 11.949219 2.492188 12.546875 3.4375 12.566406 C 3.738281 12.566406 4.304688 12.523438 4.683594 12.367188 C 4.785156 12.304688 4.988281 12.226562 4.988281 12.226562 C 4.988281 12.226562 5.046875 12.347656 5.085938 12.445312 C 5.1875 12.722656 5.308594 13.121094 5.390625 13.300781 C 5.53125 13.5625 5.730469 13.757812 6.09375 13.78125 C 6.394531 13.78125 6.617188 13.519531 6.65625 13.480469 C 5.769531 13.421875 5.410156 12.964844 5.347656 12.246094 C 5.128906 12.207031 5.066406 12.1875 5.046875 12.085938 C 5.027344 11.96875 5.066406 11.847656 5.148438 11.707031 C 5.25 11.589844 5.410156 11.449219 5.832031 11.589844 C 6.113281 11.667969 6.335938 11.847656 6.476562 11.988281 C 6.675781 12.148438 7.199219 12.683594 7.519531 12.882812 C 7.863281 13.082031 8.503906 13.261719 8.929688 12.84375 C 9.351562 12.445312 9.390625 12.105469 9.449219 11.90625 C 8.726562 11.886719 8.0625 11.808594 7.441406 11.730469 C 7.257812 11.707031 7.339844 11.53125 7.480469 11.570312 C 7.480469 11.570312 8.644531 11.730469 9.472656 11.730469 C 9.472656 11.628906 9.472656 11.46875 9.472656 11.289062 C 8.988281 11.269531 8.183594 11.230469 7.417969 11.070312 C 7.257812 11.03125 7.277344 10.851562 7.441406 10.890625 C 7.539062 10.933594 8.808594 11.113281 9.492188 11.113281 C 9.492188 10.953125 9.492188 10.753906 9.492188 10.554688 C 9.046875 10.574219 8.386719 10.515625 7.460938 10.375 C 7.300781 10.355469 7.320312 10.214844 7.460938 10.214844 C 7.460938 10.214844 8.625 10.394531 9.492188 10.375 C 9.492188 10.253906 9.492188 10.097656 9.492188 9.9375 C 9.492188 9.777344 9.632812 9.757812 9.632812 9.9375 C 9.632812 9.996094 9.652344 10.15625 9.652344 10.375 C 10.476562 10.355469 11.21875 10.253906 11.5625 10.195312 C 11.761719 10.15625 11.742188 10.316406 11.640625 10.335938 C 11.523438 10.355469 10.558594 10.535156 9.632812 10.554688 C 9.632812 10.714844 9.652344 10.933594 9.652344 11.089844 C 10.273438 11.070312 10.980469 11.050781 11.601562 10.914062 C 11.824219 10.871094 11.84375 11.050781 11.640625 11.070312 C 11.039062 11.171875 10.175781 11.269531 9.652344 11.289062 C 9.652344 11.429688 9.652344 11.609375 9.671875 11.730469 C 10.65625 11.707031 11.582031 11.570312 11.742188 11.550781 C 11.902344 11.507812 11.945312 11.6875 11.761719 11.707031 C 11.601562 11.730469 10.4375 11.886719 9.691406 11.886719 C 9.773438 12.148438 9.773438 12.503906 10.132812 12.804688 C 10.496094 13.101562 11.078125 13.082031 11.5 12.84375 C 11.824219 12.664062 12.324219 12.105469 12.507812 11.949219 C 12.667969 11.808594 13.03125 11.488281 13.511719 11.488281 C 13.976562 11.488281 13.996094 11.75 14.015625 11.808594 C 14.035156 11.886719 14.054688 12.027344 13.953125 12.085938 C 13.875 12.148438 13.792969 12.125 13.714844 12.167969 C 13.652344 12.546875 13.53125 12.984375 13.210938 13.222656 C 12.890625 13.460938 12.367188 13.5 12.367188 13.5 C 12.367188 13.5 12.445312 13.582031 12.46875 13.601562 C 12.507812 13.640625 12.6875 13.738281 12.929688 13.71875 C 13.128906 13.699219 13.390625 13.539062 13.492188 13.421875 C 13.652344 13.222656 13.792969 12.785156 13.914062 12.503906 C 13.953125 12.40625 14.054688 12.226562 14.074219 12.148438 C 14.175781 12.1875 14.214844 12.207031 14.398438 12.285156 C 14.78125 12.425781 15.261719 12.484375 15.5625 12.484375 C 16.046875 12.464844 16.609375 12.167969 16.949219 11.867188 C 17.011719 11.808594 17.113281 11.667969 17.113281 11.667969 C 17.113281 11.667969 16.789062 11.550781 16.6875 11.53125 Z M 16.6875 11.53125 "/>
<path style=" stroke:none;fill-rule:evenodd;fill:rgb(10.980392%,14.509804%,14.117647%);fill-opacity:1;" d="M 11.402344 17.621094 C 11.480469 17.800781 11.421875 18 11.320312 18.140625 C 11.121094 18.359375 10.839844 18.460938 10.558594 18.378906 C 10.394531 18.339844 10.234375 18.238281 10.132812 18.0625 C 10.074219 18.199219 10.195312 18.320312 10.175781 18.4375 C 10.15625 18.480469 10.113281 18.480469 10.09375 18.460938 C 9.933594 18.238281 9.871094 17.921875 10.015625 17.683594 C 10.195312 17.382812 10.515625 17.246094 10.878906 17.285156 C 11.078125 17.324219 11.300781 17.421875 11.402344 17.621094 Z M 11.402344 17.621094 "/>
<path style=" stroke:none;fill-rule:evenodd;fill:rgb(10.980392%,14.509804%,14.117647%);fill-opacity:1;" d="M 8.96875 17.742188 C 9.109375 17.960938 9.046875 18.28125 8.90625 18.480469 C 8.886719 18.519531 8.867188 18.558594 8.828125 18.519531 C 8.765625 18.460938 8.847656 18.398438 8.847656 18.320312 C 8.867188 18.261719 8.886719 18.199219 8.867188 18.140625 C 8.667969 18.398438 8.386719 18.519531 8.082031 18.460938 C 7.863281 18.417969 7.660156 18.261719 7.582031 18.039062 C 7.539062 17.902344 7.5625 17.742188 7.640625 17.621094 C 7.84375 17.363281 8.222656 17.285156 8.546875 17.402344 C 8.707031 17.445312 8.886719 17.582031 8.96875 17.742188 Z M 8.96875 17.742188 "/>
<path style=" stroke:none;fill-rule:evenodd;fill:rgb(10.980392%,14.509804%,14.117647%);fill-opacity:1;" d="M 11.382812 19.253906 C 11.359375 19.296875 11.339844 19.296875 11.300781 19.355469 C 11.199219 19.316406 11.078125 19.277344 10.957031 19.234375 C 9.953125 18.835938 8.667969 18.957031 7.722656 19.355469 C 7.703125 19.316406 7.679688 19.296875 7.660156 19.253906 C 8.765625 18.777344 10.273438 18.71875 11.382812 19.253906 Z M 11.382812 19.253906 "/>
<path style=" stroke:none;fill-rule:evenodd;fill:rgb(10.980392%,14.509804%,14.117647%);fill-opacity:1;" d="M 11.5625 13.957031 C 11.382812 14.753906 10.878906 15.652344 10.054688 15.871094 C 9.390625 16.050781 8.625 15.910156 8.183594 15.371094 C 7.863281 14.972656 7.703125 14.496094 7.640625 13.980469 C 7.679688 13.957031 7.722656 13.957031 7.761719 13.957031 C 7.820312 14.695312 8.222656 15.53125 8.96875 15.769531 C 9.613281 15.96875 10.394531 15.769531 10.859375 15.214844 C 11.160156 14.835938 11.359375 14.378906 11.460938 13.917969 C 11.5 13.917969 11.523438 13.917969 11.5625 13.957031 Z M 11.5625 13.957031 "/>
<path style=" stroke:none;fill-rule:evenodd;fill:rgb(10.980392%,14.509804%,14.117647%);fill-opacity:1;" d="M 1.667969 0.21875 C 1.527344 0.078125 1.308594 0 1.085938 0 C 0.863281 0.0195312 0 0.296875 0 1.574219 C 0 2.828125 0.785156 3.246094 1.246094 3.246094 C 1.710938 3.246094 2.171875 2.886719 2.332031 2.269531 C 2.351562 2.191406 2.332031 2.171875 2.253906 2.128906 C 2.253906 2.128906 1.949219 2.011719 1.949219 2.011719 C 1.871094 1.992188 1.871094 1.992188 1.828125 2.109375 C 1.789062 2.191406 1.667969 2.570312 1.347656 2.570312 C 1.046875 2.570312 0.90625 2.109375 0.90625 1.632812 C 0.90625 1.15625 0.984375 0.714844 1.367188 0.714844 C 1.769531 0.714844 1.828125 1.113281 1.871094 1.273438 C 1.871094 1.335938 1.890625 1.335938 1.949219 1.335938 C 1.949219 1.335938 2.230469 1.335938 2.230469 1.335938 C 2.292969 1.335938 2.292969 1.335938 2.292969 1.195312 C 2.292969 1.195312 2.292969 0.179688 2.292969 0.179688 C 2.292969 0.0976562 2.292969 0.0976562 2.171875 0.0976562 C 2.171875 0.0976562 1.929688 0.0976562 1.929688 0.0976562 C 1.871094 0.0976562 1.871094 0.121094 1.828125 0.179688 C 1.808594 0.238281 1.75 0.277344 1.667969 0.21875 Z M 1.667969 0.21875 "/>
<path style=" stroke:none;fill-rule:evenodd;fill:rgb(10.980392%,14.509804%,14.117647%);fill-opacity:1;" d="M 13.152344 0.714844 C 13.152344 0.714844 13.734375 2.546875 13.734375 2.546875 C 13.753906 2.628906 13.753906 2.628906 13.792969 2.628906 C 13.792969 2.628906 13.894531 2.628906 13.894531 2.628906 C 13.996094 2.628906 13.996094 2.628906 13.996094 2.707031 C 13.996094 2.707031 13.996094 3.066406 13.996094 3.066406 C 13.996094 3.167969 13.996094 3.1875 13.914062 3.1875 C 13.914062 3.1875 12.769531 3.1875 12.769531 3.1875 C 12.667969 3.1875 12.667969 3.167969 12.667969 3.105469 C 12.667969 3.105469 12.667969 2.746094 12.667969 2.746094 C 12.667969 2.628906 12.6875 2.628906 12.75 2.628906 C 12.75 2.628906 12.871094 2.628906 12.871094 2.628906 C 12.929688 2.628906 12.929688 2.628906 12.910156 2.546875 C 12.910156 2.546875 12.808594 2.269531 12.808594 2.269531 C 12.789062 2.210938 12.769531 2.210938 12.707031 2.210938 C 12.707031 2.210938 12.003906 2.210938 12.003906 2.210938 C 12.003906 2.210938 12.144531 1.792969 12.144531 1.792969 C 12.144531 1.792969 12.566406 1.792969 12.585938 1.792969 C 12.648438 1.792969 12.667969 1.792969 12.648438 1.730469 C 12.648438 1.730469 12.386719 0.9375 12.386719 0.9375 C 12.367188 0.875 12.347656 0.875 12.324219 0.9375 C 12.324219 0.9375 12.066406 1.730469 12.066406 1.730469 C 12.066406 1.792969 12.066406 1.792969 12.144531 1.792969 C 12.144531 1.792969 12.003906 2.210938 12.003906 2.210938 C 11.925781 2.210938 11.925781 2.210938 11.902344 2.269531 C 11.902344 2.269531 11.804688 2.546875 11.804688 2.546875 C 11.785156 2.628906 11.785156 2.628906 11.84375 2.628906 C 11.84375 2.628906 11.964844 2.628906 11.964844 2.628906 C 12.042969 2.628906 12.042969 2.648438 12.042969 2.746094 C 12.042969 2.746094 12.042969 3.105469 12.042969 3.105469 C 12.042969 3.167969 12.042969 3.1875 11.945312 3.1875 C 11.945312 3.1875 11.140625 3.1875 11.140625 3.1875 C 11.078125 3.1875 11.078125 3.167969 11.078125 3.066406 C 11.078125 3.066406 11.078125 2.707031 11.078125 2.707031 C 11.078125 2.628906 11.078125 2.628906 11.179688 2.628906 C 11.179688 2.628906 11.261719 2.628906 11.261719 2.628906 C 11.300781 2.628906 11.320312 2.609375 11.339844 2.570312 C 11.339844 2.570312 11.925781 0.714844 11.925781 0.714844 C 11.945312 0.675781 11.945312 0.65625 11.863281 0.65625 C 11.863281 0.65625 11.742188 0.65625 11.742188 0.65625 C 11.664062 0.65625 11.640625 0.65625 11.640625 0.578125 C 11.640625 0.578125 11.640625 0.21875 11.640625 0.21875 C 11.640625 0.0976562 11.664062 0.0976562 11.785156 0.0976562 C 11.785156 0.0976562 13.332031 0.0976562 13.332031 0.0976562 C 13.410156 0.0976562 13.410156 0.121094 13.410156 0.21875 C 13.410156 0.21875 13.410156 0.558594 13.410156 0.558594 C 13.410156 0.636719 13.410156 0.636719 13.292969 0.636719 C 13.292969 0.636719 13.171875 0.636719 13.171875 0.636719 C 13.128906 0.636719 13.128906 0.65625 13.152344 0.714844 Z M 13.152344 0.714844 "/>
<path style=" stroke:none;fill-rule:evenodd;fill:rgb(10.980392%,14.509804%,14.117647%);fill-opacity:1;" d="M 15.925781 2.089844 C 15.925781 2.089844 16.125 2.089844 16.125 2.089844 C 16.226562 2.089844 16.226562 2.109375 16.226562 2.171875 C 16.226562 2.328125 16.085938 2.570312 15.765625 2.570312 C 15.441406 2.570312 15.320312 2.109375 15.320312 1.632812 C 15.320312 1.15625 15.402344 0.714844 15.785156 0.714844 C 16.105469 0.714844 16.226562 0.9375 16.265625 1.09375 C 16.289062 1.15625 16.289062 1.15625 16.367188 1.15625 C 16.367188 1.15625 16.648438 1.15625 16.648438 1.15625 C 16.710938 1.15625 16.710938 1.15625 16.710938 1.015625 C 16.710938 1.015625 16.710938 0.179688 16.710938 0.179688 C 16.710938 0.0976562 16.691406 0.0976562 16.570312 0.0976562 C 16.570312 0.0976562 16.328125 0.0976562 16.328125 0.0976562 C 16.265625 0.0976562 16.265625 0.121094 16.246094 0.179688 C 16.226562 0.238281 16.148438 0.277344 16.066406 0.21875 C 15.925781 0.078125 15.703125 0 15.503906 0 C 15.261719 0.0195312 14.417969 0.296875 14.417969 1.574219 C 14.417969 2.828125 15.179688 3.246094 15.644531 3.246094 C 16.347656 3.246094 16.890625 2.707031 16.890625 1.710938 C 16.890625 1.613281 16.890625 1.613281 16.75 1.613281 C 16.75 1.613281 15.90625 1.613281 15.90625 1.613281 C 15.824219 1.613281 15.824219 1.613281 15.824219 1.691406 C 15.824219 1.691406 15.824219 2.03125 15.824219 2.03125 C 15.824219 2.089844 15.824219 2.089844 15.925781 2.089844 Z M 15.925781 2.089844 "/>
<path style=" stroke:none;fill-rule:evenodd;fill:rgb(10.980392%,14.509804%,14.117647%);fill-opacity:1;" d="M 18.640625 0.0976562 C 17.875 0.0976562 17.253906 0.796875 17.253906 1.671875 C 17.253906 2.546875 17.875 3.246094 18.640625 3.246094 C 19.382812 3.246094 20.007812 2.546875 20.007812 1.671875 C 20.007812 0.796875 19.382812 0.0976562 18.640625 0.0976562 C 18.640625 0.0976562 18.621094 0.65625 18.621094 0.65625 C 18.902344 0.65625 19.144531 1.113281 19.144531 1.671875 C 19.144531 2.230469 18.902344 2.6875 18.621094 2.6875 C 18.339844 2.6875 18.117188 2.230469 18.117188 1.671875 C 18.117188 1.113281 18.339844 0.65625 18.621094 0.65625 C 18.621094 0.65625 18.640625 0.0976562 18.640625 0.0976562 Z M 18.640625 0.0976562 "/>
<path style=" stroke:none;fill-rule:evenodd;fill:rgb(10.980392%,14.509804%,14.117647%);fill-opacity:1;" d="M 3.195312 2.570312 C 3.195312 2.570312 3.195312 0.738281 3.195312 0.738281 C 3.195312 0.675781 3.175781 0.65625 3.117188 0.65625 C 3.117188 0.65625 3.035156 0.65625 3.035156 0.65625 C 2.9375 0.65625 2.9375 0.65625 2.9375 0.597656 C 2.9375 0.597656 2.9375 0.179688 2.9375 0.179688 C 2.9375 0.121094 2.9375 0.0976562 3.035156 0.0976562 C 3.035156 0.0976562 4.121094 0.0976562 4.121094 0.0976562 C 4.203125 0.0976562 4.222656 0.121094 4.222656 0.199219 C 4.222656 0.199219 4.222656 0.558594 4.222656 0.558594 C 4.222656 0.636719 4.222656 0.636719 4.121094 0.636719 C 4.121094 0.636719 4.0625 0.636719 4.0625 0.636719 C 4.023438 0.636719 4.023438 0.636719 4.023438 0.714844 C 4.023438 0.714844 4.023438 1.234375 4.023438 1.234375 C 4.023438 1.375 4.023438 1.375 4.121094 1.375 C 4.121094 1.375 4.707031 1.375 4.707031 1.375 C 4.824219 1.375 4.824219 1.375 4.824219 1.234375 C 4.824219 1.234375 4.824219 0.714844 4.824219 0.714844 C 4.824219 0.636719 4.804688 0.636719 4.765625 0.636719 C 4.765625 0.636719 4.707031 0.636719 4.707031 0.636719 C 4.605469 0.636719 4.605469 0.636719 4.605469 0.558594 C 4.605469 0.558594 4.605469 0.199219 4.605469 0.199219 C 4.605469 0.121094 4.625 0.0976562 4.707031 0.0976562 C 4.707031 0.0976562 5.792969 0.0976562 5.792969 0.0976562 C 5.910156 0.0976562 5.910156 0.121094 5.910156 0.179688 C 5.910156 0.179688 5.910156 0.597656 5.910156 0.597656 C 5.910156 0.65625 5.890625 0.65625 5.8125 0.65625 C 5.8125 0.65625 5.710938 0.65625 5.710938 0.65625 C 5.648438 0.65625 5.648438 0.65625 5.648438 0.738281 C 5.648438 0.738281 5.648438 2.570312 5.648438 2.570312 C 5.648438 2.628906 5.648438 2.628906 5.730469 2.628906 C 5.730469 2.628906 5.832031 2.628906 5.832031 2.628906 C 5.910156 2.628906 5.910156 2.628906 5.910156 2.746094 C 5.910156 2.746094 5.910156 3.105469 5.910156 3.105469 C 5.910156 3.167969 5.910156 3.1875 5.8125 3.1875 C 5.8125 3.1875 4.664062 3.1875 4.664062 3.1875 C 4.585938 3.1875 4.585938 3.1875 4.585938 3.066406 C 4.585938 3.066406 4.585938 2.707031 4.585938 2.707031 C 4.585938 2.628906 4.585938 2.628906 4.683594 2.628906 C 4.683594 2.628906 4.746094 2.628906 4.746094 2.628906 C 4.804688 2.628906 4.804688 2.628906 4.804688 2.546875 C 4.804688 2.546875 4.804688 1.992188 4.804688 1.992188 C 4.804688 1.851562 4.804688 1.851562 4.707031 1.851562 C 4.707031 1.851562 4.121094 1.851562 4.121094 1.851562 C 4.042969 1.851562 4.023438 1.871094 4.023438 1.992188 C 4.023438 1.992188 4.023438 2.546875 4.023438 2.546875 C 4.023438 2.628906 4.023438 2.628906 4.101562 2.628906 C 4.101562 2.628906 4.140625 2.628906 4.140625 2.628906 C 4.242188 2.628906 4.242188 2.628906 4.242188 2.707031 C 4.242188 2.707031 4.242188 3.066406 4.242188 3.066406 C 4.242188 3.167969 4.242188 3.1875 4.164062 3.1875 C 4.164062 3.1875 3.035156 3.1875 3.035156 3.1875 C 2.9375 3.1875 2.9375 3.1875 2.9375 3.105469 C 2.9375 3.105469 2.9375 2.746094 2.9375 2.746094 C 2.9375 2.628906 2.9375 2.628906 3.015625 2.628906 C 3.015625 2.628906 3.097656 2.628906 3.097656 2.628906 C 3.195312 2.628906 3.195312 2.628906 3.195312 2.570312 Z M 3.195312 2.570312 "/>
<path style=" stroke:none;fill-rule:evenodd;fill:rgb(10.980392%,14.509804%,14.117647%);fill-opacity:1;" d="M 6.714844 0.714844 C 6.714844 0.636719 6.714844 0.636719 6.675781 0.636719 C 6.675781 0.636719 6.554688 0.636719 6.554688 0.636719 C 6.476562 0.636719 6.453125 0.636719 6.453125 0.558594 C 6.453125 0.558594 6.453125 0.199219 6.453125 0.199219 C 6.453125 0.121094 6.476562 0.0976562 6.554688 0.0976562 C 6.554688 0.0976562 7.640625 0.0976562 7.640625 0.0976562 C 7.761719 0.0976562 7.761719 0.121094 7.761719 0.179688 C 7.761719 0.179688 7.761719 0.597656 7.761719 0.597656 C 7.761719 0.65625 7.761719 0.65625 7.660156 0.65625 C 7.660156 0.65625 7.621094 0.65625 7.621094 0.65625 C 7.539062 0.65625 7.539062 0.65625 7.539062 0.738281 C 7.539062 0.738281 7.539062 2.570312 7.539062 2.570312 C 7.539062 2.628906 7.539062 2.628906 7.621094 2.628906 C 7.621094 2.628906 7.703125 2.628906 7.703125 2.628906 C 7.78125 2.628906 7.78125 2.628906 7.78125 2.746094 C 7.78125 2.746094 7.78125 3.105469 7.78125 3.105469 C 7.78125 3.167969 7.78125 3.1875 7.679688 3.1875 C 7.679688 3.1875 6.535156 3.1875 6.535156 3.1875 C 6.476562 3.1875 6.453125 3.1875 6.453125 3.066406 C 6.453125 3.066406 6.453125 2.707031 6.453125 2.707031 C 6.453125 2.628906 6.453125 2.628906 6.554688 2.628906 C 6.554688 2.628906 6.65625 2.628906 6.65625 2.628906 C 6.714844 2.628906 6.714844 2.628906 6.714844 2.546875 C 6.714844 2.546875 6.714844 0.714844 6.714844 0.714844 Z M 6.714844 0.714844 "/>
<path style=" stroke:none;fill-rule:evenodd;fill:rgb(10.980392%,14.509804%,14.117647%);fill-opacity:1;" d="M 9.851562 0.21875 C 9.710938 0.078125 9.511719 0 9.289062 0 C 9.070312 0.0195312 8.203125 0.296875 8.203125 1.574219 C 8.203125 2.828125 8.96875 3.246094 9.429688 3.246094 C 9.914062 3.246094 10.375 2.886719 10.515625 2.269531 C 10.558594 2.191406 10.535156 2.171875 10.4375 2.128906 C 10.4375 2.128906 10.132812 2.011719 10.132812 2.011719 C 10.074219 1.992188 10.074219 1.992188 10.015625 2.109375 C 9.992188 2.191406 9.851562 2.570312 9.550781 2.570312 C 9.230469 2.570312 9.109375 2.109375 9.109375 1.632812 C 9.109375 1.15625 9.1875 0.714844 9.570312 0.714844 C 9.953125 0.714844 10.035156 1.113281 10.054688 1.273438 C 10.074219 1.335938 10.074219 1.335938 10.15625 1.335938 C 10.15625 1.335938 10.4375 1.335938 10.4375 1.335938 C 10.496094 1.335938 10.496094 1.335938 10.496094 1.195312 C 10.496094 1.195312 10.496094 0.179688 10.496094 0.179688 C 10.496094 0.0976562 10.476562 0.0976562 10.375 0.0976562 C 10.375 0.0976562 10.113281 0.0976562 10.113281 0.0976562 C 10.074219 0.0976562 10.074219 0.121094 10.035156 0.179688 C 10.015625 0.238281 9.953125 0.277344 9.851562 0.21875 Z M 9.851562 0.21875 "/>
<path style=" stroke:none;fill-rule:evenodd;fill:rgb(10.980392%,14.509804%,14.117647%);fill-opacity:1;" d="M 3.015625 4.621094 C 3.015625 4.621094 3.015625 6.433594 3.015625 6.433594 C 3.015625 6.492188 2.996094 6.511719 2.9375 6.511719 C 2.9375 6.511719 2.835938 6.511719 2.835938 6.511719 C 2.773438 6.511719 2.753906 6.511719 2.753906 6.589844 C 2.753906 6.589844 2.753906 6.96875 2.753906 6.96875 C 2.753906 7.050781 2.773438 7.050781 2.855469 7.050781 C 2.855469 7.050781 4.542969 7.050781 4.542969 7.050781 C 4.542969 7.050781 3.960938 6.472656 3.960938 6.472656 C 3.859375 6.472656 3.839844 6.472656 3.839844 6.351562 C 3.839844 6.351562 3.839844 5.835938 3.839844 5.835938 C 3.839844 5.734375 3.859375 5.714844 3.960938 5.714844 C 3.960938 5.714844 3.960938 5.257812 3.960938 5.257812 C 3.839844 5.257812 3.839844 5.238281 3.839844 5.136719 C 3.839844 5.136719 3.839844 4.621094 3.839844 4.621094 C 3.839844 4.5 3.839844 4.5 3.960938 4.5 C 4.0625 4.5 4.503906 4.519531 4.503906 4.898438 C 4.503906 5.257812 4.101562 5.257812 3.960938 5.257812 C 3.960938 5.257812 3.960938 5.714844 3.960938 5.714844 C 4.082031 5.714844 4.503906 5.734375 4.503906 6.113281 C 4.503906 6.492188 4.101562 6.472656 3.960938 6.472656 C 3.960938 6.472656 4.542969 7.050781 4.542969 7.050781 C 4.964844 7.050781 5.269531 6.671875 5.269531 6.253906 C 5.269531 5.8125 5.007812 5.65625 4.785156 5.496094 C 4.925781 5.355469 5.207031 5.195312 5.207031 4.757812 C 5.207031 4.28125 4.726562 3.984375 4.445312 3.984375 C 4.445312 3.984375 2.894531 3.984375 2.894531 3.984375 C 2.773438 3.984375 2.753906 3.984375 2.753906 4.082031 C 2.753906 4.082031 2.753906 4.460938 2.753906 4.460938 C 2.753906 4.519531 2.753906 4.539062 2.855469 4.539062 C 2.855469 4.539062 2.957031 4.539062 2.957031 4.539062 C 3.015625 4.539062 3.015625 4.539062 3.015625 4.621094 Z M 3.015625 4.621094 "/>
<path style=" stroke:none;fill-rule:evenodd;fill:rgb(10.980392%,14.509804%,14.117647%);fill-opacity:1;" d="M 8.144531 4.601562 C 8.144531 4.601562 8.144531 6.171875 8.144531 6.171875 C 8.144531 6.570312 7.941406 7.148438 7.136719 7.148438 C 6.355469 7.148438 5.972656 6.570312 5.972656 6.171875 C 5.972656 6.171875 5.972656 4.601562 5.972656 4.601562 C 5.972656 4.539062 5.953125 4.539062 5.890625 4.539062 C 5.890625 4.539062 5.792969 4.539062 5.792969 4.539062 C 5.710938 4.539062 5.710938 4.519531 5.710938 4.441406 C 5.710938 4.441406 5.710938 4.101562 5.710938 4.101562 C 5.710938 3.984375 5.710938 3.984375 5.832031 3.984375 C 5.832031 3.984375 6.898438 3.984375 6.898438 3.984375 C 6.976562 3.984375 6.996094 3.984375 6.996094 4.082031 C 6.996094 4.082031 6.996094 4.441406 6.996094 4.441406 C 6.996094 4.519531 6.996094 4.519531 6.875 4.519531 C 6.875 4.519531 6.796875 4.519531 6.796875 4.519531 C 6.734375 4.519531 6.734375 4.519531 6.734375 4.578125 C 6.734375 4.578125 6.734375 6.113281 6.734375 6.113281 C 6.734375 6.273438 6.875 6.550781 7.199219 6.550781 C 7.601562 6.550781 7.679688 6.253906 7.679688 6.113281 C 7.679688 6.113281 7.679688 4.601562 7.679688 4.601562 C 7.679688 4.519531 7.660156 4.519531 7.601562 4.519531 C 7.601562 4.519531 7.519531 4.519531 7.519531 4.519531 C 7.417969 4.519531 7.417969 4.519531 7.417969 4.441406 C 7.417969 4.441406 7.417969 4.082031 7.417969 4.082031 C 7.417969 3.984375 7.417969 3.984375 7.5 3.984375 C 7.5 3.984375 8.304688 3.984375 8.304688 3.984375 C 8.445312 3.984375 8.445312 3.984375 8.445312 4.082031 C 8.445312 4.082031 8.445312 4.441406 8.445312 4.441406 C 8.445312 4.519531 8.445312 4.539062 8.34375 4.539062 C 8.34375 4.539062 8.222656 4.539062 8.222656 4.539062 C 8.164062 4.539062 8.144531 4.539062 8.144531 4.601562 Z M 8.144531 4.601562 "/>
<path style=" stroke:none;fill-rule:evenodd;fill:rgb(10.980392%,14.509804%,14.117647%);fill-opacity:1;" d="M 11.902344 6.511719 C 11.902344 6.511719 11.804688 6.511719 11.804688 6.511719 C 11.722656 6.511719 11.722656 6.511719 11.722656 6.609375 C 11.722656 6.609375 11.722656 6.96875 11.722656 6.96875 C 11.722656 7.050781 11.722656 7.050781 11.804688 7.050781 C 11.804688 7.050781 13.792969 7.050781 13.792969 7.050781 C 13.875 7.050781 13.894531 7.050781 13.894531 6.929688 C 13.894531 6.929688 13.894531 6.054688 13.894531 6.054688 C 13.894531 5.972656 13.894531 5.953125 13.792969 5.953125 C 13.792969 5.953125 13.511719 5.953125 13.511719 5.953125 C 13.410156 5.953125 13.410156 5.972656 13.410156 6.074219 C 13.410156 6.074219 13.410156 6.390625 13.410156 6.390625 C 13.410156 6.511719 13.410156 6.511719 13.3125 6.511719 C 13.3125 6.511719 12.890625 6.511719 12.890625 6.511719 C 12.75 6.511719 12.75 6.492188 12.75 6.410156 C 12.75 6.410156 12.75 4.640625 12.75 4.640625 C 12.75 4.519531 12.75 4.519531 12.808594 4.519531 C 12.808594 4.519531 12.929688 4.519531 12.929688 4.519531 C 13.011719 4.519531 13.011719 4.5 13.011719 4.441406 C 13.011719 4.441406 13.011719 4.082031 13.011719 4.082031 C 13.011719 3.984375 13.011719 3.984375 12.910156 3.984375 C 12.910156 3.984375 11.84375 3.984375 11.84375 3.984375 C 11.722656 3.984375 11.722656 3.984375 11.722656 4.082031 C 11.722656 4.082031 11.722656 4.441406 11.722656 4.441406 C 11.722656 4.519531 11.722656 4.539062 11.804688 4.539062 C 11.804688 4.539062 11.902344 4.539062 11.902344 4.539062 C 11.964844 4.539062 11.984375 4.539062 11.984375 4.640625 C 11.984375 4.640625 11.984375 6.410156 11.984375 6.410156 C 11.984375 6.492188 11.964844 6.511719 11.902344 6.511719 Z M 11.902344 6.511719 "/>
<path style=" stroke:none;fill-rule:evenodd;fill:rgb(10.980392%,14.509804%,14.117647%);fill-opacity:1;" d="M 16.507812 6.191406 C 16.507812 6.851562 15.886719 7.128906 15.625 7.128906 C 15.421875 7.128906 15.203125 7.050781 15.0625 6.929688 C 14.960938 6.851562 14.878906 6.929688 14.859375 6.96875 C 14.800781 7.050781 14.800781 7.050781 14.757812 7.050781 C 14.757812 7.050781 14.636719 7.050781 14.636719 7.050781 C 14.496094 7.050781 14.496094 7.050781 14.496094 6.988281 C 14.496094 6.988281 14.496094 6.132812 14.496094 6.132812 C 14.496094 6.015625 14.519531 6.015625 14.558594 6.015625 C 14.558594 6.015625 14.757812 6.015625 14.757812 6.015625 C 14.839844 6.015625 14.839844 6.015625 14.859375 6.074219 C 14.898438 6.253906 15.101562 6.492188 15.402344 6.492188 C 15.5625 6.492188 15.683594 6.453125 15.683594 6.3125 C 15.683594 6.035156 15.523438 5.972656 15.222656 5.8125 C 14.921875 5.65625 14.457031 5.476562 14.457031 4.820312 C 14.457031 4.183594 15.0625 3.902344 15.320312 3.902344 C 15.523438 3.902344 15.722656 3.984375 15.863281 4.101562 C 15.964844 4.183594 16.046875 4.101562 16.066406 4.0625 C 16.105469 3.960938 16.105469 3.960938 16.148438 3.960938 C 16.148438 3.960938 16.289062 3.960938 16.289062 3.960938 C 16.40625 3.960938 16.40625 3.960938 16.40625 4.042969 C 16.40625 4.042969 16.40625 4.878906 16.40625 4.878906 C 16.40625 5.019531 16.40625 5.019531 16.347656 5.019531 C 16.347656 5.019531 16.167969 5.019531 16.167969 5.019531 C 16.085938 5.019531 16.085938 5.019531 16.066406 4.957031 C 16.007812 4.777344 15.804688 4.539062 15.484375 4.539062 C 15.34375 4.539062 15.261719 4.621094 15.261719 4.738281 C 15.261719 4.917969 15.464844 5.078125 15.824219 5.238281 C 16.167969 5.394531 16.507812 5.65625 16.507812 6.191406 Z M 16.507812 6.191406 "/>
<path style=" stroke:none;fill-rule:evenodd;fill:rgb(10.980392%,14.509804%,14.117647%);fill-opacity:1;" d="M 9.148438 6.511719 C 9.148438 6.511719 9.046875 6.511719 9.046875 6.511719 C 8.96875 6.511719 8.96875 6.511719 8.96875 6.609375 C 8.96875 6.609375 8.96875 6.96875 8.96875 6.96875 C 8.96875 7.050781 8.96875 7.050781 9.046875 7.050781 C 9.046875 7.050781 11.039062 7.050781 11.039062 7.050781 C 11.121094 7.050781 11.140625 7.050781 11.140625 6.929688 C 11.140625 6.929688 11.140625 6.054688 11.140625 6.054688 C 11.140625 5.972656 11.140625 5.953125 11.039062 5.953125 C 11.039062 5.953125 10.757812 5.953125 10.757812 5.953125 C 10.65625 5.953125 10.65625 5.972656 10.65625 6.074219 C 10.65625 6.074219 10.65625 6.390625 10.65625 6.390625 C 10.65625 6.511719 10.65625 6.511719 10.558594 6.511719 C 10.558594 6.511719 10.132812 6.511719 10.132812 6.511719 C 9.992188 6.511719 9.992188 6.492188 9.992188 6.410156 C 9.992188 6.410156 9.992188 4.640625 9.992188 4.640625 C 9.992188 4.519531 9.992188 4.519531 10.054688 4.519531 C 10.054688 4.519531 10.175781 4.519531 10.175781 4.519531 C 10.253906 4.519531 10.253906 4.5 10.253906 4.441406 C 10.253906 4.441406 10.253906 4.082031 10.253906 4.082031 C 10.253906 3.984375 10.253906 3.984375 10.15625 3.984375 C 10.15625 3.984375 9.089844 3.984375 9.089844 3.984375 C 8.96875 3.984375 8.96875 3.984375 8.96875 4.082031 C 8.96875 4.082031 8.96875 4.441406 8.96875 4.441406 C 8.96875 4.519531 8.96875 4.539062 9.046875 4.539062 C 9.046875 4.539062 9.148438 4.539062 9.148438 4.539062 C 9.210938 4.539062 9.230469 4.539062 9.230469 4.640625 C 9.230469 4.640625 9.230469 6.410156 9.230469 6.410156 C 9.230469 6.492188 9.210938 6.511719 9.148438 6.511719 Z M 9.148438 6.511719 "/>
<path style=" stroke:none;fill-rule:evenodd;fill:rgb(100%,100%,100%);fill-opacity:1;" d="M 2.050781 7.644531 C 2.472656 8.464844 3.359375 8.742188 4.242188 8.703125 C 4.746094 8.703125 5.226562 8.640625 5.710938 8.601562 C 5.710938 8.601562 5.710938 8.640625 5.710938 8.640625 C 5.46875 9.339844 5.289062 10.054688 5.1875 10.792969 C 3.902344 10.832031 2.59375 10.734375 1.628906 9.875 C 0.984375 9.238281 0.824219 8.34375 0.964844 7.46875 C 1.125 7.289062 1.285156 7.128906 1.425781 6.949219 C 1.648438 7.167969 1.992188 7.347656 2.050781 7.644531 Z M 2.050781 7.644531 "/>
<path style=" stroke:none;fill-rule:evenodd;fill:rgb(100%,100%,100%);fill-opacity:1;" d="M 18.058594 7.269531 C 18.097656 7.40625 18.097656 7.527344 18.117188 7.644531 C 18.175781 8.640625 17.753906 9.539062 16.890625 10.035156 C 15.964844 10.59375 14.898438 10.792969 13.773438 10.8125 C 13.753906 10.714844 13.734375 10.574219 13.734375 10.472656 C 13.632812 9.816406 13.511719 9.160156 13.332031 8.542969 C 14.539062 8.542969 16.027344 8.859375 16.832031 7.746094 C 16.929688 7.585938 17.03125 7.449219 17.132812 7.289062 C 17.3125 7.207031 17.492188 7.089844 17.65625 7.007812 C 17.796875 7.070312 17.917969 7.1875 18.058594 7.269531 Z M 18.058594 7.269531 "/>
<path style=" stroke:none;fill-rule:evenodd;fill:rgb(100%,100%,100%);fill-opacity:1;" d="M 13.453125 12.246094 C 13.453125 12.625 13.332031 13.003906 12.988281 13.183594 C 12.828125 13.261719 12.648438 13.300781 12.46875 13.300781 C 12.445312 13.261719 12.445312 13.222656 12.46875 13.183594 C 12.726562 13.183594 13.011719 13.082031 13.152344 12.863281 C 13.25 12.703125 13.292969 12.503906 13.292969 12.304688 C 13.332031 12.265625 13.390625 12.246094 13.453125 12.246094 Z M 13.453125 12.246094 "/>
<path style=" stroke:none;fill-rule:evenodd;fill:rgb(100%,100%,100%);fill-opacity:1;" d="M 6.59375 13.261719 C 6.535156 13.261719 6.515625 13.28125 6.414062 13.261719 C 5.972656 13.261719 5.507812 12.902344 5.53125 12.304688 C 5.589844 12.285156 5.648438 12.285156 5.691406 12.304688 C 5.691406 12.644531 5.832031 13.121094 6.574219 13.121094 C 6.617188 13.203125 6.574219 13.203125 6.59375 13.261719 Z M 6.59375 13.261719 "/>
</g>
</svg>
