<?xml version="1.0" encoding="UTF-8"?>
<svg xmlns="http://www.w3.org/2000/svg" xmlns:xlink="http://www.w3.org/1999/xlink" width="28pt" height="20pt" viewBox="0 0 28 20" version="1.1">
<g id="surface1">
<path style=" stroke:none;fill-rule:nonzero;fill:rgb(10.980392%,14.509804%,14.117647%);fill-opacity:1;" d="M 22.171875 7.703125 C 22.113281 6.507812 21.574219 5.410156 21.253906 4.769531 L 21.074219 4.410156 L 21.09375 4.730469 C 21.136719 5.148438 21.234375 6.625 20.796875 7.464844 C 20.238281 8.601562 18.640625 8.503906 18.101562 8.464844 L 18.0625 8.464844 C 17.203125 8.402344 14.390625 8.304688 13.511719 8.304688 C 12.371094 8.304688 11.117188 8.402344 10.097656 8.484375 C 9.597656 8.523438 9.179688 8.542969 8.878906 8.5625 C 8.859375 8.5625 8.820312 8.5625 8.78125 8.5625 C 7.363281 8.703125 6.464844 8.285156 6.105469 7.324219 C 5.886719 6.726562 5.90625 5.570312 5.90625 5.011719 L 5.90625 4.609375 L 5.785156 4.808594 C 5.527344 5.308594 5.027344 6.226562 4.867188 7.746094 C 4.769531 9.5625 5.707031 10.199219 6.40625 10.519531 C 7.144531 10.878906 7.921875 10.917969 8.160156 10.9375 L 8.179688 10.9375 C 8.222656 10.9375 8.28125 10.9375 8.339844 10.957031 C 8.421875 10.957031 8.5 10.957031 8.582031 10.976562 C 8.460938 10.996094 8.28125 11.039062 8.121094 11.058594 C 7.960938 11.078125 7.800781 11.117188 7.722656 11.136719 C 7.542969 11.15625 6.84375 11.335938 6.445312 11.457031 C 6.125 11.578125 5.765625 11.738281 5.765625 11.738281 L 5.707031 11.777344 L 5.746094 11.835938 C 5.746094 11.835938 5.867188 11.996094 5.984375 12.117188 C 6.246094 12.375 6.945312 12.8125 7.78125 12.714844 C 8.460938 12.613281 8.820312 12.476562 8.960938 12.394531 C 9.019531 12.535156 9.121094 12.875 9.21875 13.132812 C 9.519531 13.890625 10.21875 15.347656 10.476562 15.847656 C 10.695312 16.246094 10.894531 16.605469 11.035156 16.847656 L 11.097656 16.925781 C 11.054688 17.085938 10.9375 17.183594 10.855469 17.265625 C 10.835938 17.285156 10.816406 17.285156 10.796875 17.304688 L 10.777344 17.324219 L 10.777344 17.34375 C 10.777344 17.484375 10.738281 18.742188 11.59375 19.660156 L 11.613281 19.679688 C 12.054688 19.839844 12.59375 20 13.492188 20 C 14.410156 20 15.167969 19.800781 15.445312 19.660156 L 15.445312 19.640625 L 15.46875 19.640625 C 16.066406 18.941406 16.324219 17.882812 16.34375 17.484375 L 16.34375 17.464844 L 16.324219 17.445312 C 16.304688 17.425781 16.285156 17.425781 16.265625 17.40625 C 16.1875 17.304688 16.066406 17.207031 16.007812 16.945312 C 16.066406 16.828125 16.207031 16.527344 16.324219 16.289062 C 16.40625 16.148438 16.445312 16.027344 16.484375 15.96875 C 16.726562 15.46875 17.464844 13.890625 17.761719 13.152344 C 17.941406 12.675781 18.042969 12.433594 18.101562 12.355469 C 18.222656 12.414062 18.582031 12.574219 19.238281 12.632812 C 20.078125 12.734375 20.894531 12.15625 21.117188 11.835938 C 21.15625 11.796875 21.234375 11.714844 21.234375 11.714844 L 21.277344 11.65625 L 21.214844 11.617188 C 21.195312 11.617188 21.175781 11.617188 21.054688 11.558594 L 20.097656 11.257812 C 19.976562 11.199219 19.398438 11.078125 18.980469 10.996094 L 18.660156 10.917969 L 18.761719 10.898438 C 19.738281 10.738281 22.332031 10.28125 22.171875 7.703125 Z M 22.171875 7.703125 "/>
<path style=" stroke:none;fill-rule:nonzero;fill:rgb(82.352941%,8.235294%,22.745098%);fill-opacity:1;" d="M 5.785156 5.109375 C 5.765625 5.789062 5.765625 6.507812 5.925781 7.144531 C 5.785156 7.027344 5.625 6.867188 5.488281 6.746094 C 5.347656 6.886719 5.226562 7.046875 5.085938 7.183594 C 5.226562 6.46875 5.46875 5.769531 5.785156 5.109375 Z M 5.785156 5.109375 "/>
<path style=" stroke:none;fill-rule:nonzero;fill:rgb(82.352941%,8.235294%,22.745098%);fill-opacity:1;" d="M 21.914062 6.886719 L 21.953125 7.066406 L 21.613281 6.828125 C 21.453125 6.886719 21.316406 6.984375 21.15625 7.066406 C 21.277344 6.425781 21.296875 5.75 21.253906 5.070312 C 21.554688 5.648438 21.734375 6.265625 21.914062 6.886719 Z M 21.914062 6.886719 "/>
<path style=" stroke:none;fill-rule:nonzero;fill:rgb(82.352941%,8.235294%,22.745098%);fill-opacity:1;" d="M 13.53125 13.214844 C 13.890625 13.773438 14.570312 13.933594 15.167969 13.773438 C 15.40625 13.734375 15.625 13.632812 15.828125 13.554688 C 15.648438 14.132812 15.507812 14.789062 15.527344 15.449219 C 15.527344 16.027344 15.625 16.585938 15.785156 17.105469 C 15.707031 17.066406 15.625 17.007812 15.527344 16.964844 C 14.289062 16.347656 12.574219 16.367188 11.355469 17.007812 C 11.414062 16.804688 11.476562 16.605469 11.515625 16.40625 C 11.714844 15.46875 11.574219 14.492188 11.253906 13.652344 C 11.914062 13.933594 12.851562 13.992188 13.390625 13.375 C 13.449219 13.332031 13.472656 13.273438 13.53125 13.214844 Z M 13.53125 13.214844 "/>
<path style=" stroke:none;fill-rule:nonzero;fill:rgb(82.352941%,8.235294%,22.745098%);fill-opacity:1;" d="M 10.796875 13.671875 C 10.757812 13.953125 10.675781 14.230469 10.398438 14.332031 C 10.175781 14.390625 9.957031 14.269531 9.816406 14.113281 C 9.757812 14.03125 9.699219 13.953125 9.679688 13.851562 C 10.019531 14.070312 10.476562 13.890625 10.777344 13.671875 Z M 10.796875 13.671875 "/>
<path style=" stroke:none;fill-rule:nonzero;fill:rgb(82.352941%,8.235294%,22.745098%);fill-opacity:1;" d="M 17.382812 13.710938 C 17.304688 13.953125 17.105469 14.191406 16.84375 14.230469 C 16.664062 14.269531 16.503906 14.171875 16.386719 14.011719 C 16.324219 13.933594 16.304688 13.832031 16.285156 13.734375 C 16.585938 13.972656 17.0625 13.910156 17.382812 13.710938 Z M 17.382812 13.710938 "/>
<path style=" stroke:none;fill-rule:nonzero;fill:rgb(82.352941%,8.235294%,22.745098%);fill-opacity:1;" d="M 16.703125 14.390625 C 16.824219 14.410156 16.964844 14.390625 17.082031 14.351562 C 16.746094 15.210938 16.324219 16.046875 15.886719 16.886719 C 15.746094 16.46875 15.765625 16.007812 15.804688 15.550781 C 15.867188 14.988281 16.007812 14.453125 16.164062 13.933594 C 16.265625 14.152344 16.464844 14.351562 16.703125 14.390625 Z M 16.703125 14.390625 "/>
<path style=" stroke:none;fill-rule:nonzero;fill:rgb(82.352941%,8.235294%,22.745098%);fill-opacity:1;" d="M 11.234375 16.886719 C 10.714844 16.085938 10.316406 15.25 9.917969 14.390625 C 10.097656 14.472656 10.378906 14.550781 10.558594 14.410156 C 10.738281 14.292969 10.835938 14.113281 10.894531 13.910156 C 11.335938 14.769531 11.433594 15.90625 11.234375 16.886719 Z M 11.234375 16.886719 "/>
<path style=" stroke:none;fill-rule:nonzero;fill:rgb(82.352941%,8.235294%,22.745098%);fill-opacity:1;" d="M 16.164062 17.566406 C 16.066406 18.304688 15.804688 18.960938 15.328125 19.539062 C 14.25 19.980469 12.773438 20.019531 11.695312 19.5625 C 11.15625 18.960938 10.957031 18.222656 10.917969 17.425781 C 12.074219 16.585938 13.890625 16.40625 15.207031 17.003906 C 15.546875 17.164062 15.867188 17.324219 16.164062 17.566406 Z M 16.164062 17.566406 "/>
<path style=" stroke:none;fill-rule:nonzero;fill:rgb(82.352941%,8.235294%,22.745098%);fill-opacity:1;" d="M 20.636719 11.558594 C 19.738281 11.199219 18.5625 10.996094 17.582031 10.976562 C 17.484375 9.859375 17.363281 9.183594 17.144531 8.5625 C 16.644531 8.523438 14.367188 8.441406 13.511719 8.441406 C 12.632812 8.441406 10.417969 8.582031 9.898438 8.601562 C 9.699219 9.203125 9.457031 9.941406 9.359375 11.039062 C 8.359375 11.097656 7.003906 11.378906 6.105469 11.714844 C 5.964844 11.777344 5.90625 11.816406 5.90625 11.816406 C 6.046875 11.976562 6.542969 12.574219 7.484375 12.59375 C 7.78125 12.59375 8.339844 12.554688 8.71875 12.394531 C 8.820312 12.335938 9.019531 12.253906 9.019531 12.253906 C 9.019531 12.253906 9.078125 12.375 9.121094 12.476562 C 9.21875 12.753906 9.339844 13.152344 9.417969 13.332031 C 9.558594 13.59375 9.757812 13.792969 10.117188 13.8125 C 10.417969 13.8125 10.636719 13.554688 10.675781 13.511719 C 9.796875 13.453125 9.4375 12.992188 9.378906 12.277344 C 9.160156 12.234375 9.097656 12.214844 9.078125 12.117188 C 9.058594 11.996094 9.097656 11.875 9.179688 11.738281 C 9.277344 11.617188 9.4375 11.476562 9.859375 11.617188 C 10.136719 11.695312 10.355469 11.875 10.496094 12.015625 C 10.695312 12.175781 11.214844 12.714844 11.535156 12.914062 C 11.875 13.113281 12.511719 13.292969 12.933594 12.875 C 13.351562 12.476562 13.390625 12.136719 13.449219 11.9375 C 12.734375 11.917969 12.074219 11.835938 11.453125 11.757812 C 11.273438 11.738281 11.355469 11.558594 11.496094 11.597656 C 11.496094 11.597656 12.652344 11.757812 13.472656 11.757812 C 13.472656 11.65625 13.472656 11.496094 13.472656 11.316406 C 12.992188 11.296875 12.191406 11.257812 11.433594 11.097656 C 11.273438 11.058594 11.296875 10.878906 11.453125 10.917969 C 11.554688 10.957031 12.8125 11.136719 13.492188 11.136719 C 13.492188 10.976562 13.492188 10.777344 13.492188 10.578125 C 13.050781 10.597656 12.394531 10.539062 11.476562 10.398438 C 11.316406 10.378906 11.335938 10.238281 11.476562 10.238281 C 11.476562 10.238281 12.632812 10.417969 13.492188 10.398438 C 13.492188 10.277344 13.492188 10.121094 13.492188 9.960938 C 13.492188 9.800781 13.628906 9.78125 13.628906 9.960938 C 13.628906 10.019531 13.652344 10.179688 13.652344 10.398438 C 14.46875 10.378906 15.207031 10.277344 15.546875 10.21875 C 15.746094 10.179688 15.726562 10.339844 15.625 10.359375 C 15.507812 10.378906 14.550781 10.558594 13.628906 10.578125 C 13.628906 10.738281 13.652344 10.957031 13.652344 11.117188 C 14.269531 11.097656 14.96875 11.078125 15.585938 10.9375 C 15.804688 10.898438 15.828125 11.078125 15.625 11.097656 C 15.027344 11.199219 14.167969 11.296875 13.652344 11.316406 C 13.652344 11.457031 13.652344 11.636719 13.671875 11.757812 C 14.648438 11.734375 15.566406 11.597656 15.726562 11.578125 C 15.886719 11.535156 15.925781 11.714844 15.746094 11.734375 C 15.585938 11.757812 14.429688 11.917969 13.691406 11.917969 C 13.769531 12.175781 13.769531 12.535156 14.128906 12.835938 C 14.488281 13.132812 15.066406 13.113281 15.488281 12.875 C 15.804688 12.695312 16.304688 12.136719 16.484375 11.976562 C 16.644531 11.835938 17.003906 11.515625 17.484375 11.515625 C 17.941406 11.515625 17.960938 11.777344 17.980469 11.835938 C 18 11.917969 18.023438 12.054688 17.921875 12.117188 C 17.84375 12.175781 17.761719 12.15625 17.683594 12.195312 C 17.621094 12.574219 17.503906 13.015625 17.183594 13.253906 C 16.863281 13.492188 16.34375 13.53125 16.34375 13.53125 C 16.34375 13.53125 16.425781 13.613281 16.445312 13.632812 C 16.484375 13.671875 16.664062 13.773438 16.902344 13.753906 C 17.105469 13.730469 17.363281 13.574219 17.460938 13.453125 C 17.621094 13.253906 17.761719 12.8125 17.882812 12.535156 C 17.921875 12.433594 18.023438 12.253906 18.042969 12.175781 C 18.140625 12.214844 18.179688 12.234375 18.359375 12.316406 C 18.742188 12.453125 19.21875 12.515625 19.519531 12.515625 C 19.996094 12.496094 20.558594 12.195312 20.894531 11.894531 C 20.957031 11.835938 21.054688 11.695312 21.054688 11.695312 C 21.054688 11.695312 20.738281 11.578125 20.636719 11.558594 Z M 20.636719 11.558594 "/>
<path style=" stroke:none;fill-rule:nonzero;fill:rgb(10.980392%,14.509804%,14.117647%);fill-opacity:1;" d="M 15.386719 17.664062 C 15.46875 17.84375 15.40625 18.042969 15.308594 18.183594 C 15.109375 18.402344 14.828125 18.503906 14.546875 18.421875 C 14.390625 18.382812 14.230469 18.285156 14.128906 18.105469 C 14.070312 18.242188 14.1875 18.363281 14.167969 18.484375 C 14.148438 18.523438 14.109375 18.523438 14.089844 18.503906 C 13.929688 18.285156 13.871094 17.964844 14.011719 17.722656 C 14.1875 17.425781 14.507812 17.285156 14.867188 17.324219 C 15.066406 17.367188 15.289062 17.464844 15.386719 17.664062 Z M 15.386719 17.664062 "/>
<path style=" stroke:none;fill-rule:nonzero;fill:rgb(10.980392%,14.509804%,14.117647%);fill-opacity:1;" d="M 12.972656 17.785156 C 13.113281 18.003906 13.050781 18.324219 12.914062 18.523438 C 12.890625 18.5625 12.871094 18.601562 12.832031 18.5625 C 12.773438 18.503906 12.851562 18.441406 12.851562 18.363281 C 12.871094 18.304688 12.890625 18.242188 12.871094 18.183594 C 12.671875 18.441406 12.394531 18.5625 12.09375 18.503906 C 11.875 18.464844 11.675781 18.304688 11.59375 18.085938 C 11.554688 17.945312 11.574219 17.785156 11.65625 17.664062 C 11.855469 17.40625 12.234375 17.324219 12.554688 17.445312 C 12.710938 17.484375 12.890625 17.625 12.972656 17.785156 Z M 12.972656 17.785156 "/>
<path style=" stroke:none;fill-rule:nonzero;fill:rgb(10.980392%,14.509804%,14.117647%);fill-opacity:1;" d="M 15.367188 19.300781 C 15.347656 19.339844 15.328125 19.339844 15.289062 19.402344 C 15.1875 19.359375 15.066406 19.320312 14.949219 19.28125 C 13.949219 18.882812 12.671875 19.003906 11.734375 19.402344 C 11.714844 19.359375 11.695312 19.339844 11.675781 19.300781 C 12.773438 18.824219 14.269531 18.761719 15.367188 19.300781 Z M 15.367188 19.300781 "/>
<path style=" stroke:none;fill-rule:nonzero;fill:rgb(10.980392%,14.509804%,14.117647%);fill-opacity:1;" d="M 15.546875 13.992188 C 15.367188 14.789062 14.867188 15.6875 14.050781 15.90625 C 13.390625 16.089844 12.632812 15.949219 12.195312 15.410156 C 11.875 15.011719 11.714844 14.53125 11.65625 14.011719 C 11.695312 13.992188 11.734375 13.992188 11.773438 13.992188 C 11.835938 14.730469 12.234375 15.570312 12.972656 15.808594 C 13.609375 16.007812 14.390625 15.808594 14.847656 15.25 C 15.148438 14.871094 15.347656 14.410156 15.445312 13.953125 C 15.488281 13.953125 15.507812 13.953125 15.546875 13.992188 Z M 15.546875 13.992188 "/>
<path style=" stroke:none;fill-rule:nonzero;fill:rgb(10.980392%,14.509804%,14.117647%);fill-opacity:1;" d="M 5.726562 0.21875 C 5.585938 0.078125 5.367188 0 5.148438 0 C 4.929688 0.0195312 4.070312 0.300781 4.070312 1.578125 C 4.070312 2.835938 4.847656 3.253906 5.308594 3.253906 C 5.765625 3.253906 6.226562 2.894531 6.386719 2.273438 C 6.40625 2.195312 6.386719 2.175781 6.304688 2.136719 L 6.007812 2.015625 C 5.925781 1.996094 5.925781 1.996094 5.886719 2.117188 C 5.847656 2.195312 5.726562 2.574219 5.40625 2.574219 C 5.109375 2.574219 4.96875 2.117188 4.96875 1.636719 C 4.96875 1.15625 5.046875 0.71875 5.425781 0.71875 C 5.824219 0.71875 5.886719 1.117188 5.925781 1.277344 C 5.925781 1.335938 5.945312 1.335938 6.003906 1.335938 L 6.285156 1.335938 C 6.34375 1.335938 6.34375 1.335938 6.34375 1.199219 L 6.34375 0.179688 C 6.34375 0.101562 6.34375 0.101562 6.226562 0.101562 L 5.984375 0.101562 C 5.925781 0.101562 5.925781 0.121094 5.886719 0.179688 C 5.867188 0.238281 5.804688 0.28125 5.726562 0.21875 Z M 5.726562 0.21875 "/>
<path style=" stroke:none;fill-rule:nonzero;fill:rgb(10.980392%,14.509804%,14.117647%);fill-opacity:1;" d="M 17.125 0.71875 L 17.703125 2.554688 C 17.722656 2.632812 17.722656 2.632812 17.761719 2.632812 L 17.863281 2.632812 C 17.960938 2.632812 17.960938 2.632812 17.960938 2.714844 L 17.960938 3.074219 C 17.960938 3.171875 17.960938 3.195312 17.882812 3.195312 L 16.746094 3.195312 C 16.644531 3.195312 16.644531 3.171875 16.644531 3.113281 L 16.644531 2.753906 C 16.644531 2.632812 16.664062 2.632812 16.726562 2.632812 L 16.84375 2.632812 C 16.902344 2.632812 16.902344 2.632812 16.882812 2.554688 L 16.785156 2.273438 C 16.765625 2.214844 16.746094 2.214844 16.683594 2.214844 L 15.984375 2.214844 L 16.125 1.796875 C 16.125 1.796875 16.542969 1.796875 16.566406 1.796875 C 16.625 1.796875 16.644531 1.796875 16.625 1.734375 L 16.363281 0.9375 C 16.34375 0.878906 16.324219 0.878906 16.304688 0.9375 L 16.046875 1.734375 C 16.046875 1.796875 16.046875 1.796875 16.125 1.796875 L 15.984375 2.214844 C 15.90625 2.214844 15.90625 2.214844 15.886719 2.273438 L 15.785156 2.554688 C 15.765625 2.632812 15.765625 2.632812 15.828125 2.632812 L 15.945312 2.632812 C 16.027344 2.632812 16.027344 2.65625 16.027344 2.753906 L 16.027344 3.113281 C 16.027344 3.171875 16.027344 3.195312 15.925781 3.195312 L 15.128906 3.195312 C 15.066406 3.195312 15.066406 3.171875 15.066406 3.074219 L 15.066406 2.714844 C 15.066406 2.632812 15.066406 2.632812 15.167969 2.632812 L 15.246094 2.632812 C 15.289062 2.632812 15.308594 2.613281 15.328125 2.574219 L 15.90625 0.71875 C 15.925781 0.679688 15.925781 0.660156 15.847656 0.660156 L 15.726562 0.660156 C 15.648438 0.660156 15.625 0.660156 15.625 0.578125 L 15.625 0.21875 C 15.625 0.101562 15.648438 0.101562 15.765625 0.101562 L 17.304688 0.101562 C 17.382812 0.101562 17.382812 0.121094 17.382812 0.21875 L 17.382812 0.558594 C 17.382812 0.636719 17.382812 0.636719 17.261719 0.636719 L 17.144531 0.636719 C 17.105469 0.636719 17.105469 0.660156 17.125 0.71875 Z M 17.125 0.71875 "/>
<path style=" stroke:none;fill-rule:nonzero;fill:rgb(10.980392%,14.509804%,14.117647%);fill-opacity:1;" d="M 19.878906 2.097656 L 20.078125 2.097656 C 20.175781 2.097656 20.175781 2.117188 20.175781 2.175781 C 20.175781 2.335938 20.039062 2.574219 19.71875 2.574219 C 19.398438 2.574219 19.277344 2.117188 19.277344 1.636719 C 19.277344 1.15625 19.359375 0.71875 19.738281 0.71875 C 20.058594 0.71875 20.175781 0.9375 20.21875 1.097656 C 20.238281 1.15625 20.238281 1.15625 20.316406 1.15625 L 20.597656 1.15625 C 20.65625 1.15625 20.65625 1.15625 20.65625 1.019531 L 20.65625 0.179688 C 20.65625 0.101562 20.636719 0.101562 20.515625 0.101562 L 20.277344 0.101562 C 20.21875 0.101562 20.21875 0.121094 20.199219 0.179688 C 20.175781 0.238281 20.097656 0.28125 20.019531 0.21875 C 19.878906 0.078125 19.660156 0 19.460938 0 C 19.21875 0.0195312 18.382812 0.300781 18.382812 1.578125 C 18.382812 2.835938 19.140625 3.253906 19.597656 3.253906 C 20.296875 3.253906 20.835938 2.714844 20.835938 1.714844 C 20.835938 1.617188 20.835938 1.617188 20.695312 1.617188 L 19.859375 1.617188 C 19.777344 1.617188 19.777344 1.617188 19.777344 1.695312 L 19.777344 2.035156 C 19.777344 2.097656 19.777344 2.097656 19.878906 2.097656 Z M 19.878906 2.097656 "/>
<path style=" stroke:none;fill-rule:nonzero;fill:rgb(10.980392%,14.509804%,14.117647%);fill-opacity:1;" d="M 22.574219 0.101562 C 21.8125 0.101562 21.195312 0.796875 21.195312 1.675781 C 21.195312 2.554688 21.816406 3.253906 22.574219 3.253906 C 23.3125 3.253906 23.929688 2.554688 23.929688 1.675781 C 23.929688 0.796875 23.3125 0.101562 22.574219 0.101562 L 22.554688 0.660156 C 22.832031 0.660156 23.070312 1.117188 23.070312 1.675781 C 23.070312 2.234375 22.832031 2.695312 22.554688 2.695312 C 22.273438 2.695312 22.054688 2.234375 22.054688 1.675781 C 22.054688 1.117188 22.273438 0.660156 22.554688 0.660156 Z M 22.574219 0.101562 "/>
<path style=" stroke:none;fill-rule:nonzero;fill:rgb(10.980392%,14.509804%,14.117647%);fill-opacity:1;" d="M 7.242188 2.574219 L 7.242188 0.738281 C 7.242188 0.679688 7.222656 0.660156 7.164062 0.660156 L 7.082031 0.660156 C 6.984375 0.660156 6.984375 0.660156 6.984375 0.597656 L 6.984375 0.179688 C 6.984375 0.121094 6.984375 0.101562 7.082031 0.101562 L 8.160156 0.101562 C 8.242188 0.101562 8.261719 0.121094 8.261719 0.199219 L 8.261719 0.558594 C 8.261719 0.636719 8.261719 0.636719 8.160156 0.636719 L 8.101562 0.636719 C 8.0625 0.636719 8.0625 0.636719 8.0625 0.71875 L 8.0625 1.238281 C 8.0625 1.378906 8.0625 1.378906 8.160156 1.378906 L 8.742188 1.378906 C 8.859375 1.378906 8.859375 1.378906 8.859375 1.238281 L 8.859375 0.71875 C 8.859375 0.636719 8.839844 0.636719 8.800781 0.636719 L 8.742188 0.636719 C 8.640625 0.636719 8.640625 0.636719 8.640625 0.558594 L 8.640625 0.199219 C 8.640625 0.121094 8.660156 0.101562 8.742188 0.101562 L 9.820312 0.101562 C 9.9375 0.101562 9.9375 0.121094 9.9375 0.179688 L 9.9375 0.597656 C 9.9375 0.660156 9.917969 0.660156 9.839844 0.660156 L 9.738281 0.660156 C 9.679688 0.660156 9.679688 0.660156 9.679688 0.738281 L 9.679688 2.574219 C 9.679688 2.636719 9.679688 2.636719 9.757812 2.636719 L 9.859375 2.636719 C 9.9375 2.636719 9.9375 2.636719 9.9375 2.753906 L 9.9375 3.113281 C 9.9375 3.175781 9.9375 3.195312 9.839844 3.195312 L 8.699219 3.195312 C 8.621094 3.195312 8.621094 3.195312 8.621094 3.074219 L 8.621094 2.714844 C 8.621094 2.636719 8.621094 2.636719 8.71875 2.636719 L 8.78125 2.636719 C 8.839844 2.636719 8.839844 2.636719 8.839844 2.554688 L 8.839844 1.996094 C 8.839844 1.855469 8.839844 1.855469 8.742188 1.855469 L 8.160156 1.855469 C 8.082031 1.855469 8.0625 1.875 8.0625 1.996094 L 8.0625 2.554688 C 8.0625 2.636719 8.0625 2.636719 8.140625 2.636719 L 8.179688 2.636719 C 8.28125 2.636719 8.28125 2.636719 8.28125 2.714844 L 8.28125 3.074219 C 8.28125 3.175781 8.28125 3.195312 8.203125 3.195312 L 7.082031 3.195312 C 6.984375 3.195312 6.984375 3.195312 6.984375 3.113281 L 6.984375 2.753906 C 6.984375 2.636719 6.984375 2.636719 7.0625 2.636719 L 7.144531 2.636719 C 7.242188 2.632812 7.242188 2.632812 7.242188 2.574219 Z M 7.242188 2.574219 "/>
<path style=" stroke:none;fill-rule:nonzero;fill:rgb(10.980392%,14.509804%,14.117647%);fill-opacity:1;" d="M 10.738281 0.71875 C 10.738281 0.636719 10.738281 0.636719 10.695312 0.636719 L 10.578125 0.636719 C 10.496094 0.636719 10.476562 0.636719 10.476562 0.558594 L 10.476562 0.199219 C 10.476562 0.121094 10.496094 0.101562 10.578125 0.101562 L 11.65625 0.101562 C 11.773438 0.101562 11.773438 0.121094 11.773438 0.179688 L 11.773438 0.597656 C 11.773438 0.660156 11.773438 0.660156 11.675781 0.660156 L 11.632812 0.660156 C 11.554688 0.660156 11.554688 0.660156 11.554688 0.738281 L 11.554688 2.574219 C 11.554688 2.636719 11.554688 2.636719 11.632812 2.636719 L 11.714844 2.636719 C 11.792969 2.636719 11.792969 2.636719 11.792969 2.753906 L 11.792969 3.113281 C 11.792969 3.175781 11.792969 3.195312 11.695312 3.195312 L 10.558594 3.195312 C 10.496094 3.195312 10.476562 3.195312 10.476562 3.074219 L 10.476562 2.714844 C 10.476562 2.636719 10.476562 2.636719 10.578125 2.636719 L 10.675781 2.636719 C 10.734375 2.636719 10.734375 2.636719 10.734375 2.554688 L 10.734375 0.71875 Z M 10.738281 0.71875 "/>
<path style=" stroke:none;fill-rule:nonzero;fill:rgb(10.980392%,14.509804%,14.117647%);fill-opacity:1;" d="M 13.851562 0.21875 C 13.710938 0.078125 13.511719 0 13.292969 0 C 13.070312 0.0195312 12.214844 0.300781 12.214844 1.578125 C 12.214844 2.835938 12.972656 3.253906 13.429688 3.253906 C 13.910156 3.253906 14.371094 2.894531 14.507812 2.273438 C 14.546875 2.195312 14.527344 2.175781 14.429688 2.136719 L 14.128906 2.015625 C 14.070312 1.996094 14.070312 1.996094 14.011719 2.117188 C 13.988281 2.195312 13.851562 2.574219 13.550781 2.574219 C 13.230469 2.574219 13.113281 2.117188 13.113281 1.636719 C 13.113281 1.15625 13.191406 0.71875 13.570312 0.71875 C 13.949219 0.71875 14.03125 1.117188 14.050781 1.277344 C 14.070312 1.335938 14.070312 1.335938 14.148438 1.335938 L 14.429688 1.335938 C 14.488281 1.335938 14.488281 1.335938 14.488281 1.199219 L 14.488281 0.179688 C 14.488281 0.101562 14.46875 0.101562 14.371094 0.101562 L 14.109375 0.101562 C 14.070312 0.101562 14.070312 0.121094 14.03125 0.179688 C 14.011719 0.238281 13.949219 0.28125 13.851562 0.21875 Z M 13.851562 0.21875 "/>
<path style=" stroke:none;fill-rule:nonzero;fill:rgb(10.980392%,14.509804%,14.117647%);fill-opacity:1;" d="M 7.0625 4.628906 L 7.0625 6.445312 C 7.0625 6.507812 7.042969 6.527344 6.984375 6.527344 L 6.882812 6.527344 C 6.824219 6.527344 6.804688 6.527344 6.804688 6.605469 L 6.804688 6.984375 C 6.804688 7.066406 6.824219 7.066406 6.902344 7.066406 L 8.582031 7.066406 L 8 6.488281 C 7.902344 6.488281 7.882812 6.488281 7.882812 6.367188 L 7.882812 5.847656 C 7.882812 5.75 7.902344 5.726562 8 5.726562 L 8 5.269531 C 7.882812 5.269531 7.882812 5.25 7.882812 5.148438 L 7.882812 4.628906 C 7.882812 4.511719 7.882812 4.511719 8 4.511719 C 8.101562 4.511719 8.539062 4.53125 8.539062 4.910156 C 8.539062 5.269531 8.140625 5.269531 8 5.269531 L 8 5.726562 C 8.121094 5.726562 8.539062 5.75 8.539062 6.128906 C 8.539062 6.507812 8.140625 6.488281 8 6.488281 L 8.582031 7.066406 C 9 7.066406 9.300781 6.6875 9.300781 6.265625 C 9.300781 5.828125 9.039062 5.667969 8.820312 5.507812 C 8.960938 5.371094 9.238281 5.210938 9.238281 4.769531 C 9.238281 4.292969 8.761719 3.992188 8.480469 3.992188 L 6.945312 3.992188 C 6.824219 3.992188 6.804688 3.992188 6.804688 4.09375 L 6.804688 4.472656 C 6.804688 4.53125 6.804688 4.550781 6.902344 4.550781 L 7.003906 4.550781 C 7.0625 4.550781 7.0625 4.550781 7.0625 4.628906 Z M 7.0625 4.628906 "/>
<path style=" stroke:none;fill-rule:nonzero;fill:rgb(10.980392%,14.509804%,14.117647%);fill-opacity:1;" d="M 12.152344 4.609375 L 12.152344 6.1875 C 12.152344 6.585938 11.953125 7.164062 11.15625 7.164062 C 10.378906 7.164062 9.996094 6.585938 9.996094 6.1875 L 9.996094 4.609375 C 9.996094 4.550781 9.976562 4.550781 9.917969 4.550781 L 9.816406 4.550781 C 9.738281 4.550781 9.738281 4.53125 9.738281 4.453125 L 9.738281 4.113281 C 9.738281 3.992188 9.738281 3.992188 9.859375 3.992188 L 10.917969 3.992188 C 10.996094 3.992188 11.015625 3.992188 11.015625 4.09375 L 11.015625 4.449219 C 11.015625 4.53125 11.015625 4.53125 10.894531 4.53125 L 10.816406 4.53125 C 10.757812 4.53125 10.757812 4.53125 10.757812 4.589844 L 10.757812 6.128906 C 10.757812 6.289062 10.894531 6.566406 11.214844 6.566406 C 11.613281 6.566406 11.695312 6.265625 11.695312 6.128906 L 11.695312 4.609375 C 11.695312 4.53125 11.675781 4.53125 11.613281 4.53125 L 11.535156 4.53125 C 11.433594 4.53125 11.433594 4.53125 11.433594 4.449219 L 11.433594 4.09375 C 11.433594 3.992188 11.433594 3.992188 11.515625 3.992188 L 12.3125 3.992188 C 12.453125 3.992188 12.453125 3.992188 12.453125 4.09375 L 12.453125 4.449219 C 12.453125 4.53125 12.453125 4.550781 12.351562 4.550781 L 12.234375 4.550781 C 12.171875 4.550781 12.152344 4.550781 12.152344 4.609375 Z M 12.152344 4.609375 "/>
<path style=" stroke:none;fill-rule:nonzero;fill:rgb(10.980392%,14.509804%,14.117647%);fill-opacity:1;" d="M 15.886719 6.527344 L 15.785156 6.527344 C 15.707031 6.527344 15.707031 6.527344 15.707031 6.625 L 15.707031 6.984375 C 15.707031 7.066406 15.707031 7.066406 15.785156 7.066406 L 17.761719 7.066406 C 17.84375 7.066406 17.863281 7.066406 17.863281 6.945312 L 17.863281 6.066406 C 17.863281 5.988281 17.863281 5.96875 17.761719 5.96875 L 17.484375 5.96875 C 17.382812 5.96875 17.382812 5.988281 17.382812 6.085938 L 17.382812 6.40625 C 17.382812 6.527344 17.382812 6.527344 17.285156 6.527344 L 16.863281 6.527344 C 16.726562 6.527344 16.726562 6.507812 16.726562 6.425781 L 16.726562 4.652344 C 16.726562 4.53125 16.726562 4.53125 16.785156 4.53125 L 16.902344 4.53125 C 16.984375 4.53125 16.984375 4.511719 16.984375 4.449219 L 16.984375 4.09375 C 16.984375 3.992188 16.984375 3.992188 16.882812 3.992188 L 15.828125 3.992188 C 15.707031 3.992188 15.707031 3.992188 15.707031 4.09375 L 15.707031 4.449219 C 15.707031 4.53125 15.707031 4.550781 15.785156 4.550781 L 15.886719 4.550781 C 15.945312 4.550781 15.964844 4.550781 15.964844 4.652344 L 15.964844 6.425781 C 15.964844 6.507812 15.945312 6.527344 15.886719 6.527344 Z M 15.886719 6.527344 "/>
<path style=" stroke:none;fill-rule:nonzero;fill:rgb(10.980392%,14.509804%,14.117647%);fill-opacity:1;" d="M 20.457031 6.207031 C 20.457031 6.867188 19.839844 7.144531 19.578125 7.144531 C 19.378906 7.144531 19.160156 7.066406 19.019531 6.945312 C 18.921875 6.867188 18.839844 6.945312 18.820312 6.984375 C 18.761719 7.066406 18.761719 7.066406 18.71875 7.066406 L 18.601562 7.066406 C 18.460938 7.066406 18.460938 7.066406 18.460938 7.007812 L 18.460938 6.148438 C 18.460938 6.027344 18.480469 6.027344 18.519531 6.027344 L 18.71875 6.027344 C 18.800781 6.027344 18.800781 6.027344 18.820312 6.085938 C 18.859375 6.265625 19.058594 6.507812 19.359375 6.507812 C 19.519531 6.507812 19.636719 6.46875 19.636719 6.328125 C 19.636719 6.046875 19.480469 5.988281 19.179688 5.828125 C 18.878906 5.667969 18.421875 5.488281 18.421875 4.832031 C 18.421875 4.191406 19.019531 3.914062 19.277344 3.914062 C 19.480469 3.914062 19.679688 3.992188 19.816406 4.113281 C 19.917969 4.191406 19.996094 4.113281 20.019531 4.070312 C 20.058594 3.972656 20.058594 3.972656 20.097656 3.972656 L 20.238281 3.972656 C 20.355469 3.972656 20.355469 3.972656 20.355469 4.050781 L 20.355469 4.890625 C 20.355469 5.03125 20.355469 5.03125 20.296875 5.03125 L 20.117188 5.03125 C 20.039062 5.03125 20.039062 5.03125 20.019531 4.96875 C 19.957031 4.789062 19.757812 4.550781 19.4375 4.550781 C 19.300781 4.550781 19.21875 4.628906 19.21875 4.75 C 19.21875 4.929688 19.417969 5.089844 19.777344 5.25 C 20.117188 5.410156 20.457031 5.667969 20.457031 6.207031 Z M 20.457031 6.207031 "/>
<path style=" stroke:none;fill-rule:nonzero;fill:rgb(10.980392%,14.509804%,14.117647%);fill-opacity:1;" d="M 13.152344 6.527344 L 13.050781 6.527344 C 12.972656 6.527344 12.972656 6.527344 12.972656 6.625 L 12.972656 6.984375 C 12.972656 7.066406 12.972656 7.066406 13.050781 7.066406 L 15.027344 7.066406 C 15.109375 7.066406 15.128906 7.066406 15.128906 6.945312 L 15.128906 6.066406 C 15.128906 5.988281 15.128906 5.96875 15.027344 5.96875 L 14.75 5.96875 C 14.648438 5.96875 14.648438 5.988281 14.648438 6.085938 L 14.648438 6.40625 C 14.648438 6.527344 14.648438 6.527344 14.550781 6.527344 L 14.128906 6.527344 C 13.988281 6.527344 13.988281 6.507812 13.988281 6.425781 L 13.988281 4.652344 C 13.988281 4.53125 13.988281 4.53125 14.050781 4.53125 L 14.167969 4.53125 C 14.25 4.53125 14.25 4.511719 14.25 4.449219 L 14.25 4.09375 C 14.25 3.992188 14.25 3.992188 14.148438 3.992188 L 13.09375 3.992188 C 12.972656 3.992188 12.972656 3.992188 12.972656 4.09375 L 12.972656 4.449219 C 12.972656 4.53125 12.972656 4.550781 13.050781 4.550781 L 13.152344 4.550781 C 13.210938 4.550781 13.230469 4.550781 13.230469 4.652344 L 13.230469 6.425781 C 13.230469 6.507812 13.210938 6.527344 13.152344 6.527344 Z M 13.152344 6.527344 "/>
<path style=" stroke:none;fill-rule:nonzero;fill:rgb(100%,100%,100%);fill-opacity:1;" d="M 6.105469 7.664062 C 6.523438 8.484375 7.402344 8.761719 8.28125 8.722656 C 8.78125 8.722656 9.257812 8.664062 9.738281 8.621094 L 9.738281 8.664062 C 9.5 9.363281 9.320312 10.078125 9.21875 10.820312 C 7.941406 10.859375 6.644531 10.757812 5.6875 9.898438 C 5.046875 9.261719 4.886719 8.363281 5.027344 7.484375 C 5.1875 7.304688 5.347656 7.144531 5.488281 6.964844 C 5.707031 7.1875 6.046875 7.363281 6.105469 7.664062 Z M 6.105469 7.664062 "/>
<path style=" stroke:none;fill-rule:nonzero;fill:rgb(100%,100%,100%);fill-opacity:1;" d="M 21.996094 7.285156 C 22.035156 7.425781 22.035156 7.542969 22.054688 7.664062 C 22.113281 8.664062 21.695312 9.5625 20.835938 10.058594 C 19.917969 10.617188 18.859375 10.816406 17.742188 10.839844 C 17.722656 10.738281 17.703125 10.597656 17.703125 10.5 C 17.601562 9.839844 17.484375 9.183594 17.304688 8.5625 C 18.5 8.5625 19.976562 8.882812 20.777344 7.765625 C 20.875 7.605469 20.976562 7.464844 21.074219 7.304688 C 21.253906 7.226562 21.433594 7.105469 21.59375 7.027344 C 21.734375 7.085938 21.855469 7.207031 21.996094 7.285156 Z M 21.996094 7.285156 "/>
<path style=" stroke:none;fill-rule:nonzero;fill:rgb(100%,100%,100%);fill-opacity:1;" d="M 17.421875 12.277344 C 17.421875 12.65625 17.304688 13.035156 16.964844 13.214844 C 16.804688 13.292969 16.625 13.332031 16.445312 13.332031 C 16.425781 13.292969 16.425781 13.253906 16.445312 13.214844 C 16.703125 13.214844 16.984375 13.113281 17.125 12.894531 C 17.222656 12.734375 17.261719 12.535156 17.261719 12.335938 C 17.304688 12.296875 17.363281 12.277344 17.421875 12.277344 Z M 17.421875 12.277344 "/>
<path style=" stroke:none;fill-rule:nonzero;fill:rgb(100%,100%,100%);fill-opacity:1;" d="M 10.617188 13.292969 C 10.558594 13.292969 10.535156 13.3125 10.4375 13.292969 C 9.996094 13.292969 9.539062 12.933594 9.558594 12.335938 C 9.617188 12.316406 9.679688 12.316406 9.71875 12.335938 C 9.71875 12.675781 9.859375 13.152344 10.597656 13.152344 C 10.636719 13.234375 10.597656 13.234375 10.617188 13.292969 Z M 10.617188 13.292969 "/>
</g>
</svg>
