<?xml version="1.0" encoding="UTF-8"?>
<svg xmlns="http://www.w3.org/2000/svg" xmlns:xlink="http://www.w3.org/1999/xlink" width="38pt" height="20pt" viewBox="0 0 38 20" version="1.1">
<defs>
<clipPath id="clip1">
  <path d="M 12 3 L 31 3 L 31 19 L 12 19 Z M 12 3 "/>
</clipPath>
<clipPath id="clip2">
  <path d="M 21.113281 1.207031 C 20.597656 1.238281 20.09375 1.308594 19.609375 1.421875 C 19.300781 1.910156 19.03125 2.710938 18.851562 3.71875 C 19.308594 3.617188 19.765625 3.546875 20.222656 3.503906 C 20.347656 2.441406 21.011719 1.660156 21.753906 1.195312 C 21.71875 1.191406 21.683594 1.191406 21.644531 1.191406 C 21.46875 1.191406 21.289062 1.195312 21.113281 1.207031 M 20.910156 3.460938 C 24.253906 3.363281 27.484375 4.8125 30.039062 7.289062 C 29.003906 4.089844 26.191406 1.726562 22.8125 1.269531 C 21.929688 1.625 21.050781 2.34375 20.910156 3.460938 M 16.371094 2.910156 C 16.679688 3.503906 16.792969 3.957031 16.796875 4.390625 C 17.277344 4.183594 17.761719 4.011719 18.242188 3.871094 C 18.414062 2.925781 18.660156 2.140625 18.933594 1.605469 C 18 1.902344 17.136719 2.347656 16.371094 2.910156 M 13.523438 6.441406 C 14.386719 5.71875 15.269531 5.136719 16.167969 4.683594 C 16.214844 4.164062 16.179688 3.589844 15.878906 3.300781 C 14.871094 4.15625 14.0625 5.226562 13.523438 6.441406 M 20.910156 4.105469 C 21.035156 5.183594 21.804688 6.558594 23.675781 8.246094 C 25.765625 10.226562 28.25 12.644531 29.015625 14.835938 C 30.023438 13.308594 30.566406 11.457031 30.453125 9.492188 C 30.433594 9.214844 30.40625 8.9375 30.367188 8.667969 C 27.949219 5.757812 24.636719 4.097656 21.21875 4.101562 C 21.113281 4.101562 21.011719 4.101562 20.910156 4.105469 M 18.75 4.390625 C 18.246094 8.394531 19.125 14.859375 24.0625 18.464844 C 25.84375 17.957031 27.386719 16.910156 28.511719 15.519531 C 27.777344 13.265625 25.15625 10.605469 23.027344 8.59375 C 21.085938 6.84375 20.316406 5.347656 20.214844 4.148438 C 19.726562 4.195312 19.238281 4.273438 18.75 4.390625 M 16.714844 5.09375 C 16.644531 5.398438 16.542969 5.722656 16.433594 6.101562 C 16.136719 7.140625 15.15625 8.53125 14.820312 9.554688 C 14.195312 11.472656 14.375 14.339844 15.304688 16.164062 C 17.027344 17.914062 19.476562 18.941406 22.128906 18.789062 C 22.53125 18.765625 22.929688 18.71875 23.316406 18.640625 C 18.390625 15.109375 17.59375 8.652344 18.136719 4.558594 C 17.660156 4.699219 17.183594 4.878906 16.714844 5.09375 M 13.113281 7.570312 C 12.84375 8.5 12.726562 9.488281 12.789062 10.503906 C 12.875 12.03125 13.347656 13.445312 14.109375 14.65625 C 13.683594 12.863281 13.660156 10.722656 14.417969 8.878906 C 14.886719 7.726562 15.707031 6.695312 16.03125 5.464844 L 16.039062 5.425781 C 15.03125 5.96875 14.046875 6.679688 13.113281 7.570312 M 13.144531 7.460938 C 13.179688 7.398438 13.199219 7.335938 13.207031 7.269531 C 13.183594 7.332031 13.164062 7.394531 13.144531 7.460938 "/>
</clipPath>
<clipPath id="clip3">
  <path d="M 12 3 L 32 3 L 32 20 L 12 20 Z M 12 3 "/>
</clipPath>
<clipPath id="clip4">
  <path d="M 21.070312 0.484375 C 15.789062 0.789062 11.757812 5.292969 12.0625 10.546875 C 12.367188 15.800781 16.890625 19.816406 22.171875 19.511719 C 27.449219 19.210938 31.484375 14.703125 31.179688 9.449219 C 30.886719 4.382812 26.664062 0.46875 21.628906 0.46875 C 21.445312 0.46875 21.257812 0.476562 21.070312 0.484375 M 19.609375 1.421875 C 20.09375 1.308594 20.597656 1.238281 21.113281 1.207031 C 21.324219 1.195312 21.539062 1.191406 21.753906 1.195312 C 21.011719 1.660156 20.347656 2.441406 20.222656 3.503906 C 19.765625 3.546875 19.308594 3.617188 18.851562 3.71875 C 19.03125 2.710938 19.300781 1.910156 19.609375 1.421875 M 22.8125 1.269531 C 26.191406 1.726562 29.003906 4.089844 30.039062 7.289062 C 27.484375 4.8125 24.253906 3.363281 20.910156 3.460938 C 21.050781 2.34375 21.929688 1.625 22.8125 1.269531 M 16.371094 2.910156 C 17.136719 2.347656 18 1.902344 18.933594 1.605469 C 18.660156 2.140625 18.414062 2.925781 18.242188 3.871094 C 17.761719 4.011719 17.277344 4.183594 16.796875 4.390625 C 16.792969 3.957031 16.679688 3.503906 16.371094 2.910156 M 15.878906 3.300781 C 16.179688 3.589844 16.214844 4.164062 16.167969 4.683594 C 15.269531 5.136719 14.386719 5.71875 13.523438 6.441406 C 14.0625 5.226562 14.871094 4.15625 15.878906 3.300781 M 23.675781 8.246094 C 21.804688 6.558594 21.035156 5.183594 20.910156 4.105469 C 24.4375 4 27.875 5.667969 30.367188 8.667969 C 30.40625 8.9375 30.433594 9.214844 30.453125 9.492188 C 30.566406 11.457031 30.023438 13.308594 29.015625 14.835938 C 28.25 12.644531 25.765625 10.226562 23.675781 8.246094 M 18.75 4.390625 C 19.238281 4.273438 19.726562 4.195312 20.214844 4.148438 C 20.316406 5.347656 21.085938 6.84375 23.027344 8.59375 C 25.15625 10.605469 27.777344 13.265625 28.511719 15.519531 C 27.386719 16.910156 25.84375 17.957031 24.0625 18.464844 C 19.125 14.859375 18.246094 8.394531 18.75 4.390625 M 15.304688 16.164062 C 14.375 14.339844 14.195312 11.472656 14.820312 9.554688 C 15.15625 8.53125 16.136719 7.140625 16.433594 6.101562 C 16.542969 5.722656 16.644531 5.398438 16.714844 5.09375 C 17.183594 4.878906 17.660156 4.699219 18.136719 4.558594 C 17.59375 8.652344 18.390625 15.109375 23.316406 18.640625 C 22.929688 18.71875 22.53125 18.765625 22.128906 18.789062 C 21.957031 18.800781 21.785156 18.804688 21.613281 18.804688 C 19.160156 18.804688 16.917969 17.800781 15.304688 16.164062 M 12.789062 10.503906 C 12.726562 9.488281 12.84375 8.5 13.113281 7.570312 C 14.046875 6.679688 15.03125 5.96875 16.039062 5.425781 L 16.03125 5.464844 C 15.707031 6.695312 14.886719 7.726562 14.417969 8.878906 C 13.660156 10.722656 13.683594 12.863281 14.109375 14.65625 C 13.347656 13.445312 12.875 12.03125 12.789062 10.503906 M 13.207031 7.269531 C 13.199219 7.335938 13.179688 7.398438 13.144531 7.460938 C 13.164062 7.394531 13.183594 7.332031 13.207031 7.269531 "/>
</clipPath>
<clipPath id="clip5">
  <path d="M 28 12 L 35 12 L 35 19 L 28 19 Z M 28 12 "/>
</clipPath>
<clipPath id="clip6">
  <path d="M 30.398438 12.894531 C 29.792969 13.234375 28.960938 14.101562 28.960938 14.101562 C 28.960938 14.101562 28.910156 14.230469 29.027344 14.441406 C 29.089844 14.554688 29.152344 14.632812 29.191406 14.691406 C 29.195312 14.605469 29.226562 14.503906 29.296875 14.417969 C 29.863281 13.695312 30.851562 12.917969 32.15625 12.976562 C 30.863281 13.199219 29.992188 14.027344 29.4375 14.78125 C 29.355469 14.871094 29.289062 14.882812 29.25 14.855469 C 29.238281 15.007812 29.136719 15.203125 29 15.230469 C 28.855469 15.253906 28.289062 15.714844 28.289062 15.714844 L 28.289062 15.988281 L 28.34375 16.855469 C 28.34375 16.855469 28.445312 17.472656 28.644531 17.722656 C 28.84375 17.96875 29.421875 18.796875 30.332031 18.886719 C 30.332031 18.886719 30.398438 16.683594 30.671875 16.03125 C 30.949219 15.371094 31.320312 14.613281 31.914062 14.296875 C 32.507812 13.984375 33.414062 13.667969 33.890625 13.417969 C 34.363281 13.167969 34.574219 12.894531 34.574219 12.894531 C 34.574219 12.894531 33.597656 12.855469 32.808594 12.726562 C 32.472656 12.667969 32.09375 12.628906 31.722656 12.628906 C 31.226562 12.628906 30.746094 12.699219 30.398438 12.894531 "/>
</clipPath>
<clipPath id="clip7">
  <path d="M 0 4 L 38 4 L 38 20 L 0 20 Z M 0 4 "/>
</clipPath>
<clipPath id="clip8">
  <path d="M 19.5625 7.214844 C 16.15625 5.738281 12.011719 6.898438 8.757812 8.808594 L 6.25 8.179688 C 3.976562 7.597656 1.972656 7.101562 0 7.546875 C 1.507812 8.890625 3.507812 9.417969 5.78125 10.003906 L 6.664062 10.230469 C 5.789062 10.917969 5.042969 11.632812 4.476562 12.316406 L 3.910156 13.007812 L 5.964844 12.683594 C 1.226562 20.136719 9.019531 22.910156 14.273438 16.390625 L 19.722656 14.972656 C 18.964844 15.972656 18.964844 17.457031 18.964844 17.457031 L 19.292969 17.207031 C 20.9375 15.828125 22.84375 15.136719 24.320312 14.835938 L 27.8125 15.75 C 27.804688 15.761719 27.800781 15.78125 27.800781 15.808594 C 27.679688 17.722656 28.570312 19.019531 30.550781 19.339844 C 30.667969 19.363281 30.75 19.382812 30.898438 19.40625 C 30.863281 18.988281 30.859375 18.683594 30.878906 18.265625 C 32.382812 19.335938 34.039062 19.144531 35.40625 17.957031 L 35.511719 18.207031 C 36.980469 18.566406 37.714844 16.089844 37.597656 15.539062 C 37.597656 15.523438 36.8125 15.410156 35.941406 15.707031 L 32.242188 14.71875 C 32.917969 14.207031 35.179688 13.65625 35.210938 12.46875 C 35.214844 12.449219 35.214844 12.433594 35.214844 12.414062 C 36.429688 11.457031 36.855469 10.109375 36.4375 8.257812 L 37.996094 4.390625 C 37.996094 4.390625 33.96875 5.355469 33.324219 5.507812 L 33.929688 3.699219 Z M 28.085938 12.515625 C 31.550781 12 35.261719 11.140625 33.945312 9.175781 C 33.699219 8.941406 33.566406 8.878906 33.367188 8.617188 C 32.507812 7.46875 33.976562 6.160156 35.621094 6.265625 C 35.734375 6.277344 36.035156 6.320312 36.023438 6.332031 L 35.617188 7.355469 C 35.289062 6.832031 34.214844 6.707031 34.074219 7.34375 C 33.96875 7.820312 34.726562 7.992188 35.167969 8.824219 C 35.769531 9.960938 35.140625 11.105469 34.046875 11.664062 C 33.625 11.882812 33.1875 12.066406 32.738281 12.222656 C 32.375 12.316406 31.992188 12.421875 31.519531 12.554688 C 31.082031 12.671875 30.949219 12.75 29.289062 13.011719 C 26.46875 13.4375 23.492188 13.570312 21.003906 14.730469 C 22.085938 13.628906 24.941406 12.996094 28.085938 12.515625 M 10.171875 9.261719 C 14.164062 7.257812 17.882812 7.15625 19.476562 8.707031 C 19.414062 8.683594 16.328125 10.5 16.007812 10.738281 C 17.539062 7.761719 14.785156 8.441406 12.488281 9.871094 Z M 6.433594 11.671875 C 6.980469 11.234375 7.535156 10.832031 8.089844 10.464844 L 10.761719 11.195312 C 10.71875 11.242188 10.675781 11.28125 10.636719 11.324219 C 4.683594 17.507812 8.597656 18.542969 12.929688 16.164062 C 13.023438 16.121094 12.320312 16.769531 12.320312 16.769531 C 7.503906 21.476562 2.25 17.929688 8.664062 11.164062 C 7.976562 11.359375 6.601562 11.675781 6.445312 11.675781 C 6.4375 11.675781 6.433594 11.675781 6.433594 11.671875 "/>
</clipPath>
<clipPath id="clip9">
  <path d="M 0 3 L 38 3 L 38 20 L 0 20 Z M 0 3 "/>
</clipPath>
<clipPath id="clip10">
  <path d="M 19.5625 7.214844 C 16.15625 5.738281 12.011719 6.898438 8.757812 8.808594 L 6.25 8.179688 C 3.976562 7.597656 1.972656 7.101562 0 7.546875 C 1.507812 8.890625 3.507812 9.417969 5.78125 10.003906 L 6.664062 10.230469 C 5.789062 10.917969 5.042969 11.632812 4.476562 12.316406 L 3.910156 13.007812 L 5.964844 12.683594 C 1.226562 20.136719 9.019531 22.910156 14.273438 16.390625 L 19.722656 14.972656 C 18.964844 15.972656 18.964844 17.457031 18.964844 17.457031 L 19.292969 17.207031 C 20.9375 15.828125 22.84375 15.136719 24.320312 14.835938 L 27.8125 15.75 C 27.804688 15.761719 27.800781 15.78125 27.800781 15.808594 C 27.679688 17.722656 28.570312 19.019531 30.550781 19.339844 C 30.667969 19.363281 30.75 19.382812 30.898438 19.40625 C 30.863281 18.988281 30.859375 18.683594 30.878906 18.265625 C 32.382812 19.335938 34.039062 19.144531 35.40625 17.957031 L 35.511719 18.207031 C 36.980469 18.566406 37.714844 16.089844 37.597656 15.539062 C 37.597656 15.523438 36.8125 15.410156 35.941406 15.707031 L 32.242188 14.71875 C 32.917969 14.207031 35.179688 13.65625 35.210938 12.46875 C 35.214844 12.449219 35.214844 12.433594 35.214844 12.414062 C 36.429688 11.457031 36.855469 10.109375 36.4375 8.257812 L 37.996094 4.390625 C 37.996094 4.390625 33.96875 5.355469 33.324219 5.507812 L 33.929688 3.699219 Z M 28.085938 12.515625 C 31.550781 12 35.261719 11.140625 33.945312 9.175781 C 33.699219 8.941406 33.566406 8.878906 33.367188 8.617188 C 32.507812 7.46875 33.976562 6.160156 35.621094 6.265625 C 35.734375 6.277344 36.035156 6.320312 36.023438 6.332031 L 35.617188 7.355469 C 35.289062 6.832031 34.214844 6.707031 34.074219 7.34375 C 33.96875 7.820312 34.726562 7.992188 35.167969 8.824219 C 35.769531 9.960938 35.140625 11.105469 34.046875 11.664062 C 33.625 11.882812 33.1875 12.066406 32.738281 12.222656 C 32.375 12.316406 31.992188 12.421875 31.519531 12.554688 C 31.082031 12.671875 30.949219 12.75 29.289062 13.011719 C 26.46875 13.4375 23.492188 13.570312 21.003906 14.730469 C 22.085938 13.628906 24.941406 12.996094 28.085938 12.515625 M 10.171875 9.261719 C 14.164062 7.257812 17.882812 7.15625 19.476562 8.707031 C 19.414062 8.683594 16.328125 10.5 16.007812 10.738281 C 17.539062 7.761719 14.785156 8.441406 12.488281 9.871094 Z M 6.433594 11.671875 C 6.980469 11.234375 7.535156 10.832031 8.089844 10.464844 L 10.761719 11.195312 C 10.71875 11.242188 10.675781 11.28125 10.636719 11.324219 C 4.683594 17.507812 8.597656 18.542969 12.929688 16.164062 C 13.023438 16.121094 12.320312 16.769531 12.320312 16.769531 C 7.503906 21.476562 2.25 17.929688 8.664062 11.164062 C 7.976562 11.359375 6.601562 11.675781 6.445312 11.675781 C 6.4375 11.675781 6.433594 11.675781 6.433594 11.671875 "/>
</clipPath>
<clipPath id="clip11">
  <path d="M 29 12 L 33 12 L 33 15 L 29 15 Z M 29 12 "/>
</clipPath>
<clipPath id="clip12">
  <path d="M 29.167969 14.3125 C 29.335938 14.421875 29.445312 14.679688 29.429688 14.96875 C 29.40625 15.332031 29.195312 15.609375 28.949219 15.617188 C 28.953125 15.628906 28.953125 15.632812 28.953125 15.640625 C 28.980469 16.183594 29.171875 16.707031 29.441406 16.980469 C 29.542969 16.046875 30.042969 14.773438 31.460938 13.984375 C 30.050781 15.207031 29.773438 16.960938 29.875 18.160156 C 29.21875 18.027344 28.667969 16.925781 28.476562 16.347656 C 28.625 17.339844 29.246094 18.523438 30.199219 18.589844 C 30.003906 16.679688 30.75 14.703125 32.003906 14.042969 C 32.519531 13.773438 33.246094 13.59375 34.042969 13.082031 C 33.1875 13.011719 32.917969 12.9375 32.617188 12.882812 C 32.378906 12.839844 32.148438 12.820312 31.921875 12.820312 C 30.855469 12.820312 29.894531 13.285156 29.167969 14.3125 "/>
</clipPath>
<clipPath id="clip13">
  <path d="M 21 6 L 37 6 L 37 15 L 21 15 Z M 21 6 "/>
</clipPath>
<clipPath id="clip14">
  <path d="M 19.53125 7.601562 C 16.347656 6.160156 12.410156 7.160156 9.246094 8.929688 L 15.398438 10.472656 C 15.371094 10.554688 15.339844 10.632812 15.308594 10.699219 L 12.589844 11.527344 C 12.464844 11.578125 12.34375 11.636719 12.242188 11.691406 L 7.082031 10.34375 C 6.144531 11.054688 5.34375 11.808594 4.742188 12.535156 L 6.585938 12.296875 C 1.316406 20.699219 9.839844 21.765625 13.878906 16.113281 L 20.574219 14.441406 C 19.960938 15.039062 19.597656 15.90625 19.410156 16.667969 C 21.394531 14.964844 23.980469 14.433594 25.53125 14.324219 C 26.472656 14.253906 27.511719 14.152344 28.316406 14.0625 L 28.542969 13.777344 C 29.28125 12.773438 30.347656 12.285156 31.476562 12.175781 C 32.359375 12.089844 32.664062 12.21875 33.035156 12.285156 C 33.207031 12.328125 33.820312 12.492188 34.449219 12.519531 C 36.074219 11.578125 36.550781 10.210938 36.078125 8.234375 L 37.339844 4.890625 C 37.332031 4.902344 34.15625 5.660156 32.800781 5.984375 L 33.40625 4.175781 Z M 19.53125 7.601562 "/>
</clipPath>
<clipPath id="clip15">
  <path d="M 5 7 L 20 7 L 20 19 L 5 19 Z M 5 7 "/>
</clipPath>
<clipPath id="clip16">
  <path d="M 19.53125 7.601562 C 16.347656 6.160156 12.410156 7.160156 9.246094 8.929688 L 15.398438 10.472656 C 15.371094 10.554688 15.339844 10.632812 15.308594 10.699219 L 12.589844 11.527344 C 12.464844 11.578125 12.34375 11.636719 12.242188 11.691406 L 7.082031 10.34375 C 6.144531 11.054688 5.34375 11.808594 4.742188 12.535156 L 6.585938 12.296875 C 1.316406 20.699219 9.839844 21.765625 13.878906 16.113281 L 20.574219 14.441406 C 19.960938 15.039062 19.597656 15.90625 19.410156 16.667969 C 21.394531 14.964844 23.980469 14.433594 25.53125 14.324219 C 26.472656 14.253906 27.511719 14.152344 28.316406 14.0625 L 28.542969 13.777344 C 29.28125 12.773438 30.347656 12.285156 31.476562 12.175781 C 32.359375 12.089844 32.664062 12.21875 33.035156 12.285156 C 33.207031 12.328125 33.820312 12.492188 34.449219 12.519531 C 36.074219 11.578125 36.550781 10.210938 36.078125 8.234375 L 37.339844 4.890625 C 37.332031 4.902344 34.15625 5.660156 32.800781 5.984375 L 33.40625 4.175781 Z M 19.53125 7.601562 "/>
</clipPath>
</defs>
<g id="surface1">
<path style=" stroke:none;fill-rule:evenodd;fill:rgb(99.215686%,73.333333%,18.823529%);fill-opacity:1;" d="M 11.59375 10.574219 C 11.273438 5.0625 15.503906 0.332031 21.042969 0.015625 C 26.582031 -0.300781 31.332031 3.910156 31.648438 9.425781 C 31.96875 14.9375 27.738281 19.664062 22.199219 19.980469 C 16.660156 20.296875 11.910156 16.085938 11.59375 10.574219 "/>
<path style=" stroke:none;fill-rule:evenodd;fill:rgb(0%,16.862745%,37.647059%);fill-opacity:1;" d="M 31.179688 9.449219 C 31.484375 14.703125 27.449219 19.210938 22.171875 19.511719 C 16.890625 19.816406 12.367188 15.800781 12.0625 10.546875 C 11.757812 5.292969 15.789062 0.789062 21.070312 0.484375 C 26.347656 0.183594 30.875 4.195312 31.179688 9.449219 "/>
<path style="fill:none;stroke-width:0.288;stroke-linecap:butt;stroke-linejoin:miter;stroke:rgb(0%,16.862745%,37.647059%);stroke-opacity:1;stroke-miterlimit:4;" d="M 0.00747374 0.009603 C 1.899743 -32.774772 -23.160701 -60.903522 -55.935783 -62.780397 C -88.735125 -64.681647 -116.828053 -39.624147 -118.720322 -6.839772 C -120.612592 25.944603 -95.576408 54.048978 -62.777066 55.950228 C -30.001983 57.827103 -1.884796 32.793978 0.00747374 0.009603 Z M 0.00747374 0.009603 " transform="matrix(0.161017,0,0,-0.160256,31.178484,9.450758)"/>
<path style=" stroke:none;fill-rule:evenodd;fill:rgb(52.54902%,0%,21.960784%);fill-opacity:1;" d="M 30.449219 9.492188 C 30.566406 11.457031 30.023438 13.308594 29.015625 14.835938 C 28.25 12.644531 25.765625 10.226562 23.675781 8.246094 C 21.804688 6.558594 21.035156 5.183594 20.910156 4.105469 C 24.4375 4 27.875 5.667969 30.367188 8.667969 C 30.40625 8.9375 30.433594 9.214844 30.449219 9.492188 M 28.511719 15.519531 C 27.386719 16.910156 25.84375 17.957031 24.0625 18.464844 C 19.125 14.859375 18.246094 8.394531 18.75 4.390625 C 19.238281 4.273438 19.726562 4.195312 20.214844 4.148438 C 20.316406 5.347656 21.085938 6.84375 23.027344 8.59375 C 25.15625 10.605469 27.777344 13.265625 28.511719 15.519531 M 23.316406 18.640625 C 22.929688 18.71875 22.53125 18.765625 22.128906 18.789062 C 19.476562 18.941406 17.027344 17.914062 15.304688 16.164062 C 14.375 14.339844 14.195312 11.472656 14.820312 9.554688 C 15.15625 8.53125 16.136719 7.140625 16.433594 6.101562 C 16.542969 5.722656 16.644531 5.398438 16.714844 5.09375 C 17.183594 4.878906 17.660156 4.699219 18.136719 4.558594 C 17.59375 8.652344 18.390625 15.109375 23.316406 18.640625 M 14.109375 14.65625 C 13.347656 13.445312 12.875 12.03125 12.789062 10.503906 C 12.726562 9.488281 12.84375 8.5 13.113281 7.570312 C 14.046875 6.679688 15.03125 5.96875 16.039062 5.425781 L 16.03125 5.464844 C 15.707031 6.695312 14.886719 7.726562 14.417969 8.878906 C 13.660156 10.722656 13.683594 12.863281 14.109375 14.65625 M 13.144531 7.460938 C 13.164062 7.398438 13.183594 7.332031 13.207031 7.269531 C 13.199219 7.335938 13.179688 7.398438 13.144531 7.460938 M 13.523438 6.441406 C 14.0625 5.226562 14.871094 4.15625 15.875 3.300781 C 16.179688 3.589844 16.214844 4.164062 16.167969 4.683594 C 15.269531 5.136719 14.386719 5.71875 13.523438 6.441406 M 16.371094 2.910156 C 17.136719 2.347656 18 1.902344 18.933594 1.605469 C 18.660156 2.140625 18.414062 2.925781 18.242188 3.871094 C 17.761719 4.011719 17.277344 4.183594 16.796875 4.390625 C 16.792969 3.957031 16.679688 3.503906 16.371094 2.910156 M 19.609375 1.421875 C 20.09375 1.308594 20.597656 1.238281 21.113281 1.207031 C 21.324219 1.195312 21.539062 1.191406 21.753906 1.195312 C 21.011719 1.660156 20.347656 2.441406 20.222656 3.503906 C 19.765625 3.546875 19.308594 3.617188 18.851562 3.71875 C 19.03125 2.710938 19.300781 1.910156 19.609375 1.421875 M 22.8125 1.269531 C 26.191406 1.726562 29.003906 4.089844 30.039062 7.289062 C 27.484375 4.8125 24.253906 3.363281 20.910156 3.460938 C 21.050781 2.34375 21.929688 1.625 22.8125 1.269531 "/>
<path style="fill:none;stroke-width:0.288;stroke-linecap:butt;stroke-linejoin:miter;stroke:rgb(52.54902%,0%,21.960784%);stroke-opacity:1;stroke-miterlimit:4;" d="M -0.0115217 0.007578 C 0.716274 -12.253047 -2.655847 -23.806797 -8.914893 -33.337422 C -13.669828 -19.663047 -29.099104 -4.574922 -42.078133 7.783203 C -53.69861 18.313203 -58.477805 26.893203 -59.25412 33.620703 C -37.347459 34.278828 -15.998775 23.870703 -0.520979 5.150703 C -0.27838 3.468828 -0.108561 1.738203 -0.0115217 0.007578 Z M -12.044416 -37.603047 C -19.031258 -46.280547 -28.613907 -52.813047 -39.676407 -55.981797 C -70.34088 -33.483672 -75.799351 6.856953 -72.669828 31.841328 C -69.637344 32.572578 -66.60486 33.060078 -63.572377 33.352578 C -62.94162 25.869453 -58.162426 16.533828 -46.105272 5.613828 C -32.883643 -6.939297 -16.605272 -23.538672 -12.044416 -37.603047 Z M -44.310041 -57.078672 C -46.711768 -57.566172 -49.186275 -57.858672 -51.685041 -58.004922 C -68.157492 -58.955547 -83.36843 -52.544922 -94.067032 -41.624922 C -99.84088 -30.241797 -100.956834 -12.350547 -97.075255 -0.382422 C -94.988907 6.003828 -88.89968 14.681328 -87.05593 21.165078 C -86.376653 23.529453 -85.745897 25.552578 -85.309219 27.453828 C -82.398035 28.794453 -79.438331 29.915703 -76.478627 30.793203 C -79.850749 5.248203 -74.901735 -35.043672 -44.310041 -57.078672 Z M -101.490551 -32.216172 C -106.221226 -24.659922 -109.15667 -15.836172 -109.690387 -6.305547 C -110.078545 0.031953 -109.350749 6.198828 -107.676818 12.000078 C -101.878709 17.557578 -95.765222 21.993828 -89.506176 25.381953 L -89.554696 25.138203 C -91.568265 17.460078 -96.662837 11.025078 -99.574022 3.834453 C -104.280436 -7.670547 -104.134877 -21.028047 -101.490551 -32.216172 Z M -107.482739 12.682578 C -107.361439 13.072578 -107.24014 13.486953 -107.094581 13.876953 C -107.143101 13.462578 -107.2644 13.072578 -107.482739 12.682578 Z M -105.129532 19.044453 C -101.78167 26.625078 -96.759877 33.303828 -90.525091 38.641953 C -88.632821 36.838203 -88.414482 33.255078 -88.705601 30.013203 C -94.28537 27.185703 -99.768101 23.553828 -105.129532 19.044453 Z M -87.444087 41.079453 C -82.689153 44.589453 -77.327722 47.368203 -71.529614 49.220703 C -73.227805 45.881328 -74.756176 40.981953 -75.82361 35.083203 C -78.807574 34.205703 -81.815798 33.133203 -84.799762 31.841328 C -84.824022 34.546953 -85.527558 37.374453 -87.444087 41.079453 Z M -67.332657 50.366328 C -64.324433 51.073203 -61.19491 51.511953 -57.992607 51.706953 C -56.682574 51.780078 -55.348282 51.804453 -54.013989 51.780078 C -58.623364 48.879453 -62.747541 44.004453 -63.523857 37.374453 C -66.362262 37.106328 -69.200666 36.667578 -72.039071 36.033828 C -70.923117 42.322578 -69.249186 47.319453 -67.332657 50.366328 Z M -47.439564 51.316953 C -26.454778 48.465078 -8.987673 33.718203 -2.558808 13.755078 C -18.424762 29.208828 -38.487673 38.251953 -59.25412 37.642578 C -58.380765 44.613828 -52.922295 49.098828 -47.439564 51.316953 Z M -47.439564 51.316953 " transform="matrix(0.161017,0,0,-0.160256,30.451074,9.493402)"/>
<path style=" stroke:none;fill-rule:evenodd;fill:rgb(99.215686%,73.333333%,18.823529%);fill-opacity:1;" d="M 35.941406 15.707031 L 32.242188 14.71875 C 32.917969 14.207031 35.179688 13.65625 35.210938 12.46875 C 35.214844 12.449219 35.214844 12.433594 35.214844 12.414062 C 36.429688 11.457031 36.855469 10.109375 36.4375 8.257812 L 37.996094 4.390625 C 37.996094 4.390625 33.96875 5.355469 33.324219 5.507812 L 33.929688 3.699219 L 19.5625 7.214844 C 16.15625 5.738281 12.011719 6.898438 8.757812 8.808594 L 6.25 8.179688 C 3.976562 7.597656 1.972656 7.097656 0 7.546875 C 1.507812 8.890625 3.507812 9.417969 5.78125 10.003906 L 6.664062 10.230469 C 5.789062 10.917969 5.042969 11.632812 4.480469 12.316406 L 3.910156 13.007812 L 5.964844 12.683594 C 1.226562 20.136719 9.019531 22.910156 14.273438 16.390625 L 19.722656 14.972656 C 18.964844 15.972656 18.964844 17.457031 18.964844 17.457031 L 19.292969 17.207031 C 20.9375 15.828125 22.84375 15.136719 24.316406 14.835938 L 27.8125 15.75 C 27.804688 15.761719 27.800781 15.78125 27.800781 15.808594 C 27.679688 17.722656 28.570312 19.023438 30.550781 19.339844 C 30.667969 19.363281 30.75 19.382812 30.898438 19.40625 C 30.863281 18.988281 30.859375 18.683594 30.878906 18.265625 C 32.382812 19.335938 34.039062 19.144531 35.40625 17.957031 L 35.511719 18.207031 C 36.980469 18.566406 37.714844 16.089844 37.597656 15.539062 C 37.59375 15.523438 36.8125 15.410156 35.941406 15.707031 "/>
<g clip-path="url(#clip1)" clip-rule="nonzero">
<g clip-path="url(#clip2)" clip-rule="nonzero">
<path style=" stroke:none;fill-rule:evenodd;fill:rgb(99.215686%,73.333333%,18.823529%);fill-opacity:1;" d="M 35.941406 15.707031 L 32.242188 14.71875 C 32.917969 14.207031 35.179688 13.65625 35.210938 12.46875 C 35.214844 12.449219 35.214844 12.433594 35.214844 12.414062 C 36.429688 11.457031 36.855469 10.109375 36.4375 8.257812 L 37.996094 4.390625 C 37.996094 4.390625 33.96875 5.355469 33.324219 5.507812 L 33.929688 3.699219 L 19.5625 7.214844 C 16.15625 5.738281 12.011719 6.898438 8.757812 8.808594 L 6.25 8.179688 C 3.976562 7.597656 1.972656 7.097656 0 7.546875 C 1.507812 8.890625 3.507812 9.417969 5.78125 10.003906 L 6.664062 10.230469 C 5.789062 10.917969 5.042969 11.632812 4.480469 12.316406 L 3.910156 13.007812 L 5.964844 12.683594 C 1.226562 20.136719 9.019531 22.910156 14.273438 16.390625 L 19.722656 14.972656 C 18.964844 15.972656 18.964844 17.457031 18.964844 17.457031 L 19.292969 17.207031 C 20.9375 15.828125 22.84375 15.136719 24.316406 14.835938 L 27.8125 15.75 C 27.804688 15.761719 27.800781 15.78125 27.800781 15.808594 C 27.679688 17.722656 28.570312 19.023438 30.550781 19.339844 C 30.667969 19.363281 30.75 19.382812 30.898438 19.40625 C 30.863281 18.988281 30.859375 18.683594 30.878906 18.265625 C 32.382812 19.335938 34.039062 19.144531 35.40625 17.957031 L 35.511719 18.207031 C 36.980469 18.566406 37.714844 16.089844 37.597656 15.539062 C 37.59375 15.523438 36.8125 15.410156 35.941406 15.707031 "/>
<path style="fill:none;stroke-width:0.288;stroke-linecap:butt;stroke-linejoin:miter;stroke:rgb(52.54902%,0%,21.960784%);stroke-opacity:1;stroke-miterlimit:4;" d="M 0.00505334 -0.003547 L -22.969042 6.163328 C -18.772085 9.356453 -4.725621 12.793328 -4.531542 20.203328 C -4.507282 20.325203 -4.507282 20.422703 -4.507282 20.544578 C 3.037537 26.516453 5.681863 34.925828 3.086057 46.479578 L 12.765744 70.610828 C 12.765744 70.610828 -12.24618 64.590203 -16.249058 63.639578 L -12.488779 74.925203 L -101.716575 52.987703 C -122.87118 62.201453 -148.610901 54.962078 -168.819371 43.042703 L -184.394207 46.967078 C -198.51345 50.598953 -210.958762 53.718953 -223.209996 50.915828 C -213.845687 42.530828 -201.424634 39.240203 -187.305391 35.583953 L -181.82266 34.170203 C -187.256871 29.880203 -191.890506 25.419578 -195.383927 21.153953 L -198.925868 16.839578 L -186.165177 18.862703 C -215.592397 -27.644797 -167.19396 -44.951047 -134.564437 -4.269172 L -100.72192 4.578953 C -105.428335 -1.661047 -105.428335 -10.923547 -105.428335 -10.923547 L -103.390506 -9.363547 C -93.177101 -0.759172 -81.338285 3.555203 -72.192315 5.432078 L -50.479733 -0.271672 C -50.528253 -0.344797 -50.552512 -0.466672 -50.552512 -0.637297 C -51.304568 -12.581047 -45.773318 -20.697922 -33.473565 -22.672297 C -32.745769 -22.818547 -32.236312 -22.940422 -31.314437 -23.086672 C -31.532776 -20.478547 -31.557035 -18.577297 -31.435736 -15.969172 C -22.095687 -22.647922 -11.809503 -21.453547 -3.318549 -14.043547 L -2.663532 -15.603547 C 6.458178 -17.846047 11.019034 -2.392297 10.291238 1.044578 C 10.266978 1.142078 5.415004 1.848953 0.00505334 -0.003547 Z M 0.00505334 -0.003547 " transform="matrix(0.161017,0,0,-0.160256,35.940593,15.706463)"/>
</g>
</g>
<g clip-path="url(#clip3)" clip-rule="nonzero">
<g clip-path="url(#clip4)" clip-rule="nonzero">
<path style=" stroke:none;fill-rule:evenodd;fill:rgb(99.215686%,73.333333%,18.823529%);fill-opacity:1;" d="M 35.941406 15.707031 L 32.242188 14.71875 C 32.917969 14.207031 35.179688 13.65625 35.210938 12.46875 C 35.214844 12.449219 35.214844 12.433594 35.214844 12.414062 C 36.429688 11.457031 36.855469 10.109375 36.4375 8.257812 L 37.996094 4.390625 C 37.996094 4.390625 33.96875 5.355469 33.324219 5.507812 L 33.929688 3.699219 L 19.5625 7.214844 C 16.15625 5.738281 12.011719 6.898438 8.757812 8.808594 L 6.25 8.179688 C 3.976562 7.597656 1.972656 7.097656 0 7.546875 C 1.507812 8.890625 3.507812 9.417969 5.78125 10.003906 L 6.664062 10.230469 C 5.789062 10.917969 5.042969 11.632812 4.480469 12.316406 L 3.910156 13.007812 L 5.964844 12.683594 C 1.226562 20.136719 9.019531 22.910156 14.273438 16.390625 L 19.722656 14.972656 C 18.964844 15.972656 18.964844 17.457031 18.964844 17.457031 L 19.292969 17.207031 C 20.9375 15.828125 22.84375 15.136719 24.316406 14.835938 L 27.8125 15.75 C 27.804688 15.761719 27.800781 15.78125 27.800781 15.808594 C 27.679688 17.722656 28.570312 19.023438 30.550781 19.339844 C 30.667969 19.363281 30.75 19.382812 30.898438 19.40625 C 30.863281 18.988281 30.859375 18.683594 30.878906 18.265625 C 32.382812 19.335938 34.039062 19.144531 35.40625 17.957031 L 35.511719 18.207031 C 36.980469 18.566406 37.714844 16.089844 37.597656 15.539062 C 37.59375 15.523438 36.8125 15.410156 35.941406 15.707031 "/>
<path style="fill:none;stroke-width:0.288;stroke-linecap:butt;stroke-linejoin:miter;stroke:rgb(0%,16.862745%,37.647059%);stroke-opacity:1;stroke-miterlimit:4;" d="M 0.00505334 -0.003547 L -22.969042 6.163328 C -18.772085 9.356453 -4.725621 12.793328 -4.531542 20.203328 C -4.507282 20.325203 -4.507282 20.422703 -4.507282 20.544578 C 3.037537 26.516453 5.681863 34.925828 3.086057 46.479578 L 12.765744 70.610828 C 12.765744 70.610828 -12.24618 64.590203 -16.249058 63.639578 L -12.488779 74.925203 L -101.716575 52.987703 C -122.87118 62.201453 -148.610901 54.962078 -168.819371 43.042703 L -184.394207 46.967078 C -198.51345 50.598953 -210.958762 53.718953 -223.209996 50.915828 C -213.845687 42.530828 -201.424634 39.240203 -187.305391 35.583953 L -181.82266 34.170203 C -187.256871 29.880203 -191.890506 25.419578 -195.383927 21.153953 L -198.925868 16.839578 L -186.165177 18.862703 C -215.592397 -27.644797 -167.19396 -44.951047 -134.564437 -4.269172 L -100.72192 4.578953 C -105.428335 -1.661047 -105.428335 -10.923547 -105.428335 -10.923547 L -103.390506 -9.363547 C -93.177101 -0.759172 -81.338285 3.555203 -72.192315 5.432078 L -50.479733 -0.271672 C -50.528253 -0.344797 -50.552512 -0.466672 -50.552512 -0.637297 C -51.304568 -12.581047 -45.773318 -20.697922 -33.473565 -22.672297 C -32.745769 -22.818547 -32.236312 -22.940422 -31.314437 -23.086672 C -31.532776 -20.478547 -31.557035 -18.577297 -31.435736 -15.969172 C -22.095687 -22.647922 -11.809503 -21.453547 -3.318549 -14.043547 L -2.663532 -15.603547 C 6.458178 -17.846047 11.019034 -2.392297 10.291238 1.044578 C 10.266978 1.142078 5.415004 1.848953 0.00505334 -0.003547 Z M 0.00505334 -0.003547 " transform="matrix(0.161017,0,0,-0.160256,35.940593,15.706463)"/>
</g>
</g>
<path style=" stroke:none;fill-rule:nonzero;fill:rgb(0%,16.862745%,37.647059%);fill-opacity:1;" d="M 37.359375 15.84375 C 36.546875 15.699219 36.007812 16.035156 35.988281 16.035156 C 35.976562 16.035156 33.160156 15.277344 32.121094 15 L 31.574219 14.855469 C 31.925781 14.378906 32.605469 14.175781 33.285156 13.878906 C 33.578125 13.746094 33.980469 13.59375 34.285156 13.382812 C 34.828125 13.003906 34.90625 12.753906 34.910156 12.753906 C 33.914062 12.785156 32.976562 12.519531 32.8125 12.484375 C 32.375 12.394531 31.941406 12.378906 31.519531 12.421875 C 31.507812 12.421875 31.492188 12.425781 31.476562 12.425781 C 30.347656 12.5625 29.332031 13.15625 28.730469 14.035156 C 28.730469 14.035156 28.65625 14.128906 28.632812 14.15625 C 28.550781 14.246094 28.441406 14.378906 28.441406 14.378906 L 28.769531 14.464844 C 29 14.503906 28.871094 14.996094 28.570312 14.917969 L 27.113281 14.542969 C 26.546875 14.589844 25.957031 14.632812 25.554688 14.664062 C 25.347656 14.679688 25.121094 14.703125 24.875 14.742188 L 28.097656 15.582031 C 27.867188 17.675781 28.996094 18.964844 30.585938 19.089844 C 30.585938 18.878906 30.578125 18.429688 30.589844 17.628906 C 30.589844 17.628906 32.882812 20.074219 35.511719 17.445312 C 35.53125 17.425781 35.730469 17.941406 35.730469 17.941406 C 36.890625 18.074219 37.398438 15.847656 37.359375 15.84375 "/>
<path style="fill:none;stroke-width:0.288;stroke-linecap:butt;stroke-linejoin:miter;stroke:rgb(0%,16.862745%,37.647059%);stroke-opacity:1;stroke-miterlimit:4;" d="M -0.00211442 -0.005072 C -5.048167 0.896803 -8.396029 -1.199447 -8.517328 -1.199447 C -8.590108 -1.199447 -26.081473 3.529303 -32.534598 5.259928 L -35.93098 6.161803 C -33.747591 9.135553 -29.526374 10.403053 -25.305157 12.255553 C -23.485667 13.084303 -20.986901 14.034928 -19.094631 15.351178 C -15.722509 17.715553 -15.237312 19.275553 -15.213052 19.275553 C -21.399318 19.080553 -27.221687 20.738053 -28.240601 20.957428 C -30.957707 21.518053 -33.650552 21.615553 -36.270618 21.347428 C -36.343397 21.347428 -36.440437 21.323053 -36.537476 21.323053 C -43.548578 20.469928 -49.856144 16.764928 -53.592164 11.280553 C -53.592164 11.280553 -54.053101 10.695553 -54.19866 10.524928 C -54.708118 9.964303 -55.387394 9.135553 -55.387394 9.135553 L -53.349565 8.599303 C -51.918233 8.355553 -52.718808 5.284303 -54.586818 5.771803 L -63.635749 8.111803 C -67.15343 7.819303 -70.81667 7.551178 -73.315437 7.356178 C -74.60121 7.258678 -76.008282 7.112428 -77.536654 6.868678 L -57.522262 1.628053 C -58.953595 -11.436947 -51.942493 -19.480697 -42.068726 -20.260697 C -42.068726 -18.944447 -42.117246 -16.141322 -42.044466 -11.144447 C -42.044466 -11.144447 -27.803924 -26.403197 -11.477032 -9.998822 C -11.355733 -9.876947 -10.11848 -13.094447 -10.11848 -13.094447 C -2.913299 -13.923197 0.240484 -0.029447 -0.00211442 -0.005072 Z M -0.00211442 -0.005072 " transform="matrix(0.161017,0,0,-0.160256,37.359715,15.842937)"/>
<g clip-path="url(#clip5)" clip-rule="nonzero">
<g clip-path="url(#clip6)" clip-rule="nonzero">
<path style=" stroke:none;fill-rule:nonzero;fill:rgb(99.215686%,73.333333%,18.823529%);fill-opacity:1;" d="M 32.617188 12.882812 C 31.277344 12.648438 30.050781 13.066406 29.167969 14.316406 C 29.335938 14.421875 29.445312 14.679688 29.429688 14.96875 C 29.40625 15.332031 29.195312 15.609375 28.949219 15.617188 C 28.953125 15.628906 28.953125 15.632812 28.953125 15.640625 C 28.980469 16.183594 29.171875 16.707031 29.441406 16.980469 C 29.542969 16.046875 30.042969 14.773438 31.460938 13.984375 C 30.050781 15.207031 29.773438 16.960938 29.875 18.160156 C 29.21875 18.027344 28.667969 16.925781 28.476562 16.347656 C 28.625 17.339844 29.246094 18.523438 30.199219 18.589844 C 30.003906 16.679688 30.75 14.703125 32.003906 14.042969 C 32.519531 13.773438 33.246094 13.59375 34.042969 13.082031 C 33.1875 13.011719 32.917969 12.9375 32.617188 12.882812 "/>
<path style="fill:none;stroke-width:0.288;stroke-linecap:butt;stroke-linejoin:miter;stroke:rgb(0%,16.862745%,37.647059%);stroke-opacity:1;stroke-miterlimit:4;" d="M 0.00730532 -0.003422 C -8.31383 1.459078 -15.931428 -1.149047 -21.414158 -8.949047 C -20.370984 -9.607172 -19.691708 -11.215922 -19.788747 -13.019672 C -19.934307 -15.286547 -21.244339 -17.017172 -22.772711 -17.065922 C -22.748451 -17.139047 -22.748451 -17.163422 -22.748451 -17.212172 C -22.578632 -20.600297 -21.389899 -23.866547 -19.715968 -25.572797 C -19.085211 -19.747172 -15.979948 -11.800922 -7.173616 -6.877172 C -15.931428 -14.506547 -17.653879 -25.450922 -17.023122 -32.934047 C -21.09878 -32.105297 -24.519422 -25.231547 -25.708155 -21.624047 C -24.78628 -27.815297 -20.928961 -35.200922 -15.009553 -35.615297 C -16.222547 -23.695922 -11.588912 -11.362172 -3.801494 -7.242797 C -0.599191 -5.560922 3.913144 -4.439672 8.862157 -1.246547 C 3.549246 -0.807797 1.875315 -0.344672 0.00730532 -0.003422 Z M 0.00730532 -0.003422 " transform="matrix(0.161017,0,0,-0.160256,32.616011,12.882264)"/>
</g>
</g>
<path style=" stroke:none;fill-rule:nonzero;fill:rgb(0%,16.862745%,37.647059%);fill-opacity:1;" d="M 13.910156 11.109375 L 6.976562 9.308594 C 5 8.765625 4.484375 8.324219 4.355469 8.210938 L 8.382812 9.246094 L 14.921875 10.917969 C 14.628906 10.988281 14.183594 11.0625 13.910156 11.109375 M 37.339844 4.890625 C 37.332031 4.902344 34.15625 5.660156 32.800781 5.984375 L 33.40625 4.175781 L 19.53125 7.601562 C 16.347656 6.160156 12.410156 7.160156 9.246094 8.929688 L 15.398438 10.472656 C 15.371094 10.554688 15.339844 10.632812 15.308594 10.699219 L 5.964844 8.363281 C 4.066406 7.875 2.355469 7.410156 0.71875 7.734375 C 1.996094 8.800781 3.71875 9.214844 5.617188 9.703125 L 12.589844 11.527344 C 12.464844 11.578125 12.34375 11.636719 12.242188 11.691406 L 7.082031 10.34375 C 6.144531 11.054688 5.34375 11.808594 4.742188 12.535156 L 6.585938 12.296875 C 1.316406 20.699219 9.839844 21.765625 13.878906 16.113281 L 20.574219 14.441406 C 19.960938 15.039062 19.597656 15.90625 19.410156 16.667969 C 21.394531 14.964844 23.980469 14.433594 25.53125 14.324219 C 26.472656 14.253906 27.511719 14.152344 28.316406 14.0625 L 28.542969 13.777344 C 29.28125 12.773438 30.347656 12.285156 31.476562 12.175781 C 32.359375 12.089844 32.664062 12.21875 33.035156 12.285156 C 33.207031 12.328125 33.820312 12.492188 34.449219 12.519531 C 36.074219 11.578125 36.550781 10.210938 36.078125 8.234375 Z M 37.339844 4.890625 "/>
<g clip-path="url(#clip7)" clip-rule="nonzero">
<g clip-path="url(#clip8)" clip-rule="nonzero">
<path style=" stroke:none;fill-rule:nonzero;fill:rgb(0%,16.862745%,37.647059%);fill-opacity:1;" d="M 13.910156 11.109375 L 6.976562 9.308594 C 5 8.765625 4.484375 8.324219 4.355469 8.210938 L 8.382812 9.246094 L 14.921875 10.917969 C 14.628906 10.988281 14.183594 11.0625 13.910156 11.109375 M 37.339844 4.890625 C 37.332031 4.902344 34.15625 5.660156 32.800781 5.984375 L 33.40625 4.175781 L 19.53125 7.601562 C 16.347656 6.160156 12.410156 7.160156 9.246094 8.929688 L 15.398438 10.472656 C 15.371094 10.554688 15.339844 10.632812 15.308594 10.699219 L 5.964844 8.363281 C 4.066406 7.875 2.355469 7.410156 0.71875 7.734375 C 1.996094 8.800781 3.71875 9.214844 5.617188 9.703125 L 12.589844 11.527344 C 12.464844 11.578125 12.34375 11.636719 12.242188 11.691406 L 7.082031 10.34375 C 6.144531 11.054688 5.34375 11.808594 4.742188 12.535156 L 6.585938 12.296875 C 1.316406 20.699219 9.839844 21.765625 13.878906 16.113281 L 20.574219 14.441406 C 19.960938 15.039062 19.597656 15.90625 19.410156 16.667969 C 21.394531 14.964844 23.980469 14.433594 25.53125 14.324219 C 26.472656 14.253906 27.511719 14.152344 28.316406 14.0625 L 28.542969 13.777344 C 29.28125 12.773438 30.347656 12.285156 31.476562 12.175781 C 32.359375 12.089844 32.664062 12.21875 33.035156 12.285156 C 33.207031 12.328125 33.820312 12.492188 34.449219 12.519531 C 36.074219 11.578125 36.550781 10.210938 36.078125 8.234375 Z M 37.339844 4.890625 "/>
</g>
</g>
<g clip-path="url(#clip9)" clip-rule="nonzero">
<g clip-path="url(#clip10)" clip-rule="nonzero">
<path style="fill:none;stroke-width:0.288;stroke-linecap:butt;stroke-linejoin:miter;stroke:rgb(0%,16.862745%,37.647059%);stroke-opacity:1;stroke-miterlimit:4;" d="M 0.00359545 0.002228 L -43.057671 11.239103 C -55.333164 14.627228 -58.535467 17.381603 -59.336043 18.088478 L -34.324118 11.629103 L 6.286901 1.196603 C 4.467411 0.757853 1.701786 0.294728 0.00359545 0.002228 Z M 145.514286 38.807228 C 145.465767 38.734103 125.742493 34.005353 117.324319 31.982228 L 121.084599 43.267853 L 34.913546 21.890978 C 15.141753 30.885353 -9.312194 24.645353 -28.962687 13.603478 L 9.246605 3.975353 C 9.076786 3.463478 8.882707 2.975978 8.688628 2.561603 L -49.340977 17.137853 C -61.131273 20.184728 -71.757095 23.085353 -81.92198 21.062228 C -73.989003 14.407853 -63.290401 11.824103 -51.500105 8.777228 L -8.19624 -2.605897 C -8.972556 -2.922772 -9.724612 -3.288397 -10.355368 -3.629647 L -42.402655 4.779728 C -48.225023 0.343478 -53.198296 -4.360897 -56.934316 -8.894647 L -45.483658 -7.407772 C -78.21022 -59.838397 -25.275187 -66.492772 -0.190483 -31.222147 L 41.390931 -20.789647 C 37.582132 -24.519022 35.325964 -29.930272 34.16149 -34.683397 C 46.485503 -24.055897 62.545536 -20.740897 72.176704 -20.058397 C 78.023332 -19.619647 84.476457 -18.985897 89.47399 -18.425272 L 90.881063 -16.645897 C 95.466178 -10.381522 102.089122 -7.334647 109.100224 -6.652147 C 114.582954 -6.115897 116.475224 -6.920272 118.779911 -7.334647 C 119.847345 -7.602772 123.656145 -8.626522 127.561984 -8.797147 C 137.654089 -2.922772 140.613793 5.608478 137.678349 17.942228 Z M 145.514286 38.807228 " transform="matrix(0.161017,0,0,-0.160256,13.909577,11.109732)"/>
</g>
</g>
<path style=" stroke:none;fill-rule:evenodd;fill:rgb(99.215686%,73.333333%,18.823529%);fill-opacity:1;" d="M 36.140625 16.308594 C 36.421875 16.175781 36.738281 16.117188 37.042969 16.074219 C 36.617188 16.234375 36.402344 16.484375 36.375 16.472656 C 36.28125 16.710938 36.28125 16.960938 35.738281 17.230469 C 35.910156 16.964844 36.160156 16.652344 36.140625 16.308594 "/>
<path style="fill:none;stroke-width:0.288;stroke-linecap:butt;stroke-linejoin:miter;stroke:rgb(0%,16.862745%,37.647059%);stroke-opacity:1;stroke-miterlimit:4;" d="M -0.00669337 0.011303 C 1.740017 0.840053 3.705067 1.205678 5.597336 1.473803 C 2.953011 0.474428 1.618718 -1.085572 1.448899 -1.012447 C 0.866662 -2.499322 0.866662 -4.059322 -2.50546 -5.741197 C -1.438026 -4.083697 0.114606 -2.133697 -0.00669337 0.011303 Z M -0.00669337 0.011303 " transform="matrix(0.161017,0,0,-0.160256,36.141703,16.310405)"/>
<path style=" stroke:none;fill-rule:evenodd;fill:rgb(99.215686%,73.333333%,18.823529%);fill-opacity:1;" d="M 30.722656 16.765625 C 31.308594 18.046875 33.019531 18.347656 34.046875 18.132812 C 33.589844 18.53125 31.34375 18.445312 30.671875 17.136719 L 30.722656 16.765625 "/>
<path style="fill:none;stroke-width:0.288;stroke-linecap:butt;stroke-linejoin:miter;stroke:rgb(0%,16.862745%,37.647059%);stroke-opacity:1;stroke-miterlimit:4;" d="M -0.00673087 -0.011472 C 3.632249 -8.006472 14.258072 -9.883347 20.638417 -8.542722 C 17.800013 -11.028972 3.850588 -10.492722 -0.322109 -2.327097 Z M -0.00673087 -0.011472 " transform="matrix(0.161017,0,0,-0.160256,30.72374,16.763787)"/>
<path style=" stroke:none;fill-rule:nonzero;fill:rgb(99.215686%,73.333333%,18.823529%);fill-opacity:1;" d="M 31.351562 15.132812 L 35.785156 16.273438 C 35.929688 16.308594 35.867188 16.714844 35.679688 16.664062 L 31.121094 15.511719 C 31.148438 15.402344 31.3125 15.160156 31.351562 15.132812 "/>
<path style="fill:none;stroke-width:0.288;stroke-linecap:butt;stroke-linejoin:miter;stroke:rgb(0%,16.862745%,37.647059%);stroke-opacity:1;stroke-miterlimit:4;" d="M -0.0110921 -0.003422 L 27.523859 -7.120922 C 28.421474 -7.340297 28.033316 -9.875297 26.868842 -9.558422 L -1.442424 -2.367797 C -1.272605 -1.685297 -0.253691 -0.174047 -0.0110921 -0.003422 Z M -0.0110921 -0.003422 " transform="matrix(0.161017,0,0,-0.160256,31.353349,15.132264)"/>
<path style=" stroke:none;fill-rule:nonzero;fill:rgb(99.215686%,73.333333%,18.823529%);fill-opacity:1;" d="M 35.128906 17.082031 C 33.53125 18.65625 31.019531 17.574219 31.035156 16.300781 C 31.070312 16.300781 32.671875 17.472656 35.128906 17.082031 "/>
<path style="fill:none;stroke-width:0.288;stroke-linecap:butt;stroke-linejoin:miter;stroke:rgb(0%,16.862745%,37.647059%);stroke-opacity:1;stroke-miterlimit:4;" d="M -0.0106993 0.008753 C -9.932985 -9.814372 -25.532081 -3.062497 -25.435041 4.883753 C -25.216703 4.883753 -15.270157 -2.428747 -0.0106993 0.008753 Z M -0.0106993 0.008753 " transform="matrix(0.161017,0,0,-0.160256,35.130629,17.083434)"/>
<g clip-path="url(#clip11)" clip-rule="nonzero">
<g clip-path="url(#clip12)" clip-rule="nonzero">
<path style=" stroke:none;fill-rule:nonzero;fill:rgb(100%,100%,100%);fill-opacity:1;" d="M 29.296875 14.417969 C 29.097656 14.65625 29.199219 15.046875 29.4375 14.78125 C 29.992188 14.027344 30.863281 13.199219 32.15625 12.976562 C 30.851562 12.917969 29.863281 13.695312 29.296875 14.417969 "/>
</g>
</g>
<path style=" stroke:none;fill-rule:nonzero;fill:rgb(0%,16.862745%,37.647059%);fill-opacity:1;" d="M 34.367188 17.382812 C 32.65625 17.46875 31.429688 16.730469 31.429688 16.730469 C 31.667969 17.472656 33.445312 18.015625 34.367188 17.382812 "/>
<path style=" stroke:none;fill-rule:evenodd;fill:rgb(100%,100%,100%);fill-opacity:1;" d="M 30.179688 6.523438 L 30.035156 5.976562 L 29.671875 7.054688 L 29.308594 7.144531 L 29.855469 5.746094 L 30.226562 5.65625 L 30.34375 6.144531 L 30.566406 5.574219 L 30.929688 5.488281 L 30.378906 6.882812 L 30.011719 6.972656 L 30.179688 6.523438 M 28.996094 6.101562 C 28.988281 6.097656 28.976562 6.097656 28.949219 6.097656 C 28.898438 6.09375 28.863281 6.101562 28.851562 6.101562 C 28.832031 6.109375 28.789062 6.121094 28.722656 6.152344 C 28.691406 6.167969 28.675781 6.175781 28.667969 6.183594 L 28.445312 6.722656 L 28.789062 6.640625 L 29.003906 6.105469 Z M 28.730469 6.792969 L 28.390625 6.878906 L 28.179688 7.402344 L 27.808594 7.496094 L 28.296875 6.273438 C 28.320312 6.210938 28.417969 6.144531 28.5625 6.074219 C 28.683594 6.019531 28.800781 5.972656 28.914062 5.945312 C 29.023438 5.921875 29.128906 5.914062 29.230469 5.917969 C 29.335938 5.921875 29.394531 5.945312 29.371094 6 L 28.886719 7.230469 L 28.523438 7.320312 Z M 27.105469 6.425781 L 27.46875 6.339844 L 26.980469 7.582031 L 27.574219 7.433594 L 27.515625 7.585938 L 26.554688 7.824219 Z M 25.941406 6.726562 L 26.765625 6.523438 L 26.707031 6.675781 L 26.242188 6.789062 L 26.078125 7.210938 L 26.539062 7.097656 L 26.480469 7.25 L 26.015625 7.363281 L 25.8125 7.882812 L 26.273438 7.765625 L 26.214844 7.921875 L 25.390625 8.125 Z M 23.355469 7.363281 L 24.183594 7.160156 L 24.121094 7.308594 L 23.660156 7.425781 L 23.492188 7.84375 L 23.957031 7.730469 L 23.894531 7.886719 L 23.433594 8 L 23.230469 8.515625 L 23.691406 8.402344 L 23.628906 8.554688 L 22.804688 8.757812 Z M 22.117188 7.675781 L 22.476562 7.585938 L 21.988281 8.828125 L 22.582031 8.683594 L 22.523438 8.835938 L 21.566406 9.070312 Z M 20.601562 9.304688 C 20.511719 9.324219 20.414062 9.332031 20.3125 9.332031 C 20.183594 9.332031 20.113281 9.308594 20.136719 9.25 L 20.554688 8.191406 C 20.570312 8.148438 20.660156 8.089844 20.777344 8.027344 C 20.898438 7.964844 21.007812 7.917969 21.109375 7.894531 L 21.695312 7.75 L 21.597656 8 L 21.238281 8.085938 L 21.28125 7.992188 L 21.179688 8.015625 C 21.082031 8.039062 21.011719 8.058594 20.964844 8.078125 C 20.925781 8.097656 20.914062 8.109375 20.910156 8.117188 L 20.507812 9.148438 C 20.507812 9.148438 20.507812 9.160156 20.570312 9.15625 C 20.621094 9.15625 20.652344 9.148438 20.667969 9.148438 C 20.714844 9.136719 20.757812 9.117188 20.804688 9.089844 C 20.855469 9.0625 20.878906 9.039062 20.886719 9.019531 L 20.863281 8.96875 L 21.257812 8.875 L 21.210938 8.988281 C 21.191406 9.042969 21.085938 9.109375 20.941406 9.175781 C 20.816406 9.234375 20.703125 9.277344 20.601562 9.304688 M 31.402344 6.609375 L 30.808594 6.753906 L 31.359375 5.355469 L 31.953125 5.210938 C 32.054688 5.1875 32.148438 5.183594 32.238281 5.195312 C 32.328125 5.207031 32.382812 5.230469 32.367188 5.273438 L 31.960938 6.304688 C 31.941406 6.351562 31.855469 6.410156 31.734375 6.472656 C 31.613281 6.539062 31.5 6.585938 31.402344 6.609375 M 31.945312 5.371094 L 31.902344 5.363281 L 31.667969 5.417969 L 31.238281 6.511719 L 31.421875 6.464844 C 31.429688 6.460938 31.460938 6.453125 31.519531 6.425781 L 31.585938 6.390625 L 31.992188 5.382812 C 31.976562 5.375 31.964844 5.375 31.945312 5.371094 M 24.339844 7.144531 L 24.628906 7.078125 L 24.65625 7.824219 L 25.242188 6.9375 L 25.640625 6.832031 L 24.488281 8.371094 Z M 24.339844 7.144531 "/>
<path style=" stroke:none;fill-rule:nonzero;fill:rgb(100%,100%,100%);fill-opacity:1;" d="M 16.75 11.0625 L 17.320312 11.410156 C 17.027344 12.238281 15.75 14.003906 15.023438 14.539062 L 16.296875 11.164062 L 15.320312 11.421875 L 13.714844 15.484375 L 15.773438 14.960938 C 15.816406 14.949219 17.617188 13.523438 18.648438 10.582031 L 16.75 11.0625 "/>
<path style=" stroke:none;fill-rule:nonzero;fill:rgb(100%,100%,100%);fill-opacity:1;" d="M 12.683594 13.96875 L 11.878906 14.199219 C 11.878906 14.199219 12.550781 12.894531 13.242188 12.6875 L 12.683594 13.96875 M 10.785156 14.632812 C 10.773438 14.632812 10.035156 16.144531 9.882812 16.457031 L 10.902344 16.191406 L 11.585938 14.773438 L 12.410156 14.53125 L 11.84375 15.957031 L 12.921875 15.679688 L 14.585938 11.574219 C 14.03125 11.765625 12.054688 11.800781 10.785156 14.632812 "/>
<path style=" stroke:none;fill-rule:nonzero;fill:rgb(100%,100%,100%);fill-opacity:1;" d="M 30.566406 9.140625 L 31.035156 7.839844 L 31.769531 7.640625 C 31.664062 7.921875 31.46875 8.675781 30.566406 9.140625 M 31.347656 9.527344 C 31.292969 9.449219 31.25 9.28125 31.25 9.277344 C 31.28125 9.261719 31.316406 9.242188 31.351562 9.222656 C 32.011719 8.847656 32.738281 7.730469 32.710938 6.96875 C 31.78125 7.214844 30.222656 7.617188 30.214844 7.628906 L 28.726562 11.695312 L 29.691406 11.449219 L 30.332031 9.699219 C 30.40625 9.863281 30.832031 10.871094 31.664062 10.953125 C 32.621094 11.050781 33.183594 10.109375 33.183594 10.109375 C 32.929688 10.324219 31.785156 10.402344 31.347656 9.527344 "/>
<path style=" stroke:none;fill-rule:nonzero;fill:rgb(100%,100%,100%);fill-opacity:1;" d="M 20.023438 12.117188 L 19.222656 12.347656 C 19.222656 12.347656 19.890625 11.042969 20.585938 10.835938 L 20.023438 12.117188 M 18.125 12.78125 C 18.113281 12.78125 17.386719 14.265625 17.238281 14.578125 L 18.265625 14.316406 L 18.929688 12.921875 L 19.753906 12.679688 L 19.191406 14.085938 L 20.261719 13.816406 L 21.929688 9.730469 C 21.4375 9.871094 19.398438 9.945312 18.125 12.78125 "/>
<path style=" stroke:none;fill-rule:nonzero;fill:rgb(100%,100%,100%);fill-opacity:1;" d="M 25.636719 8.753906 L 24.03125 12.84375 L 25.050781 12.585938 L 26.648438 8.5 Z M 25.636719 8.753906 "/>
<path style=" stroke:none;fill-rule:nonzero;fill:rgb(100%,100%,100%);fill-opacity:1;" d="M 26.726562 11.683594 L 27.238281 10.488281 L 28.636719 9.734375 L 27.511719 9.816406 L 28.003906 8.515625 C 28.617188 8.324219 28.929688 8.511719 29.191406 8.898438 L 29.652344 7.753906 L 27.1875 8.378906 L 25.601562 12.460938 L 28.113281 11.808594 L 28.652344 10.546875 C 28.09375 11.15625 27.476562 11.554688 26.726562 11.683594 "/>
<path style=" stroke:none;fill-rule:nonzero;fill:rgb(100%,100%,100%);fill-opacity:1;" d="M 22.210938 12.828125 L 23.546875 9.289062 L 22.476562 9.558594 L 20.898438 13.652344 L 23.609375 12.957031 L 24.207031 11.507812 C 23.488281 12.351562 23.109375 12.683594 22.210938 12.828125 "/>
<g clip-path="url(#clip13)" clip-rule="nonzero">
<g clip-path="url(#clip14)" clip-rule="nonzero">
<path style=" stroke:none;fill-rule:nonzero;fill:rgb(100%,100%,100%);fill-opacity:1;" d="M 36.023438 6.332031 L 35.617188 7.355469 C 35.289062 6.832031 34.214844 6.707031 34.074219 7.34375 C 33.96875 7.820312 34.722656 7.992188 35.167969 8.824219 C 35.769531 9.960938 35.140625 11.105469 34.046875 11.664062 C 33.621094 11.882812 33.1875 12.066406 32.738281 12.222656 C 32.375 12.316406 31.992188 12.421875 31.519531 12.554688 C 31.082031 12.671875 30.949219 12.75 29.289062 13.011719 C 26.46875 13.4375 23.492188 13.570312 21.003906 14.730469 C 22.085938 13.628906 24.941406 12.996094 28.085938 12.515625 C 31.550781 12 35.261719 11.140625 33.945312 9.175781 C 33.699219 8.941406 33.566406 8.878906 33.367188 8.617188 C 32.507812 7.46875 33.976562 6.160156 35.621094 6.265625 C 35.734375 6.277344 36.035156 6.320312 36.023438 6.332031 "/>
</g>
</g>
<g clip-path="url(#clip15)" clip-rule="nonzero">
<g clip-path="url(#clip16)" clip-rule="nonzero">
<path style=" stroke:none;fill-rule:nonzero;fill:rgb(100%,100%,100%);fill-opacity:1;" d="M 19.476562 8.707031 C 19.464844 8.65625 16.332031 10.5 16.007812 10.738281 C 18.011719 6.84375 12.675781 9.207031 10.636719 11.324219 C 4.683594 17.507812 8.597656 18.542969 12.929688 16.164062 C 13.023438 16.121094 12.320312 16.769531 12.320312 16.769531 C 7.503906 21.476562 2.25 17.929688 8.664062 11.164062 C 7.9375 11.371094 6.433594 11.714844 6.433594 11.671875 C 11.660156 7.476562 17.390625 6.675781 19.476562 8.707031 "/>
</g>
</g>
</g>
</svg>
