<?xml version="1.0" encoding="UTF-8"?>
<svg xmlns="http://www.w3.org/2000/svg" xmlns:xlink="http://www.w3.org/1999/xlink" width="28pt" height="20pt" viewBox="0 0 28 20" version="1.1">
<defs>
<clipPath id="clip1">
  <path d="M 9 5 L 23 5 L 23 17 L 9 17 Z M 9 5 "/>
</clipPath>
<clipPath id="clip2">
  <path d="M 15.558594 3.46875 C 15.175781 3.492188 14.808594 3.546875 14.449219 3.628906 C 14.222656 3.988281 14.023438 4.585938 13.890625 5.328125 C 14.230469 5.253906 14.566406 5.203125 14.902344 5.171875 C 14.996094 4.382812 15.484375 3.804688 16.03125 3.460938 C 16.003906 3.460938 15.976562 3.460938 15.949219 3.460938 C 15.820312 3.460938 15.6875 3.464844 15.558594 3.46875 M 15.40625 5.140625 C 17.871094 5.066406 20.253906 6.140625 22.136719 7.972656 C 21.371094 5.605469 19.300781 3.855469 16.8125 3.519531 C 16.160156 3.78125 15.511719 4.3125 15.40625 5.140625 M 12.0625 4.730469 C 12.289062 5.171875 12.375 5.507812 12.378906 5.828125 C 12.730469 5.671875 13.085938 5.546875 13.441406 5.445312 C 13.570312 4.742188 13.75 4.164062 13.953125 3.765625 C 13.265625 3.984375 12.628906 4.3125 12.0625 4.730469 M 9.964844 7.34375 C 10.601562 6.8125 11.253906 6.378906 11.914062 6.046875 C 11.949219 5.660156 11.921875 5.234375 11.699219 5.019531 C 10.957031 5.652344 10.363281 6.449219 9.964844 7.34375 M 15.40625 5.617188 C 15.5 6.414062 16.070312 7.433594 17.449219 8.683594 C 18.988281 10.148438 20.816406 11.9375 21.378906 13.558594 C 22.125 12.429688 22.523438 11.058594 22.4375 9.605469 C 22.425781 9.398438 22.40625 9.195312 22.375 8.992188 C 20.59375 6.839844 18.15625 5.613281 15.632812 5.613281 C 15.558594 5.613281 15.484375 5.613281 15.40625 5.617188 M 13.816406 5.828125 C 13.445312 8.789062 14.09375 13.578125 17.730469 16.25 C 19.042969 15.871094 20.179688 15.097656 21.011719 14.070312 C 20.46875 12.398438 18.535156 10.429688 16.96875 8.941406 C 15.539062 7.644531 14.972656 6.535156 14.894531 5.648438 C 14.535156 5.683594 14.175781 5.742188 13.816406 5.828125 M 12.316406 6.347656 C 12.265625 6.574219 12.191406 6.8125 12.109375 7.09375 C 11.890625 7.863281 11.167969 8.894531 10.921875 9.652344 C 10.460938 11.070312 10.59375 13.195312 11.277344 14.546875 C 12.546875 15.839844 14.351562 16.601562 16.304688 16.488281 C 16.605469 16.472656 16.898438 16.433594 17.183594 16.378906 C 13.550781 13.761719 12.964844 8.980469 13.363281 5.953125 C 13.011719 6.058594 12.664062 6.191406 12.316406 6.347656 M 9.664062 8.183594 C 9.464844 8.871094 9.378906 9.601562 9.421875 10.355469 C 9.488281 11.484375 9.835938 12.53125 10.398438 13.429688 C 10.082031 12.097656 10.066406 10.515625 10.625 9.152344 C 10.96875 8.296875 11.574219 7.535156 11.8125 6.621094 L 11.820312 6.59375 C 11.074219 6.996094 10.351562 7.519531 9.664062 8.183594 M 9.6875 8.101562 C 9.710938 8.054688 9.726562 8.007812 9.730469 7.957031 C 9.714844 8.003906 9.699219 8.054688 9.6875 8.101562 "/>
</clipPath>
<clipPath id="clip3">
  <path d="M 8 5 L 23 5 L 23 18 L 8 18 Z M 8 5 "/>
</clipPath>
<clipPath id="clip4">
  <path d="M 15.527344 2.9375 C 11.636719 3.160156 8.664062 6.496094 8.886719 10.386719 C 9.113281 14.277344 12.445312 17.246094 16.335938 17.023438 C 20.226562 16.800781 23.199219 13.464844 22.976562 9.574219 C 22.757812 5.820312 19.648438 2.925781 15.9375 2.925781 C 15.800781 2.925781 15.664062 2.929688 15.527344 2.9375 M 14.449219 3.628906 C 14.808594 3.546875 15.175781 3.492188 15.558594 3.46875 C 15.714844 3.460938 15.871094 3.457031 16.03125 3.460938 C 15.484375 3.804688 14.992188 4.382812 14.902344 5.171875 C 14.566406 5.203125 14.226562 5.253906 13.890625 5.328125 C 14.023438 4.585938 14.222656 3.988281 14.449219 3.628906 M 16.8125 3.519531 C 19.300781 3.855469 21.371094 5.605469 22.136719 7.972656 C 20.253906 6.140625 17.871094 5.066406 15.40625 5.140625 C 15.511719 4.3125 16.160156 3.78125 16.8125 3.519531 M 12.0625 4.730469 C 12.628906 4.3125 13.265625 3.984375 13.953125 3.765625 C 13.75 4.164062 13.570312 4.742188 13.441406 5.445312 C 13.085938 5.546875 12.730469 5.675781 12.378906 5.828125 C 12.375 5.507812 12.289062 5.171875 12.0625 4.730469 M 11.699219 5.019531 C 11.921875 5.234375 11.949219 5.660156 11.914062 6.046875 C 11.253906 6.378906 10.601562 6.8125 9.964844 7.34375 C 10.363281 6.449219 10.957031 5.652344 11.699219 5.019531 M 17.449219 8.683594 C 16.070312 7.433594 15.5 6.414062 15.40625 5.617188 C 18.007812 5.539062 20.542969 6.773438 22.375 8.992188 C 22.40625 9.195312 22.425781 9.398438 22.4375 9.605469 C 22.523438 11.058594 22.125 12.429688 21.378906 13.558594 C 20.816406 11.9375 18.988281 10.148438 17.449219 8.683594 M 13.816406 5.828125 C 14.175781 5.742188 14.535156 5.683594 14.894531 5.648438 C 14.972656 6.535156 15.539062 7.644531 16.96875 8.941406 C 18.535156 10.429688 20.46875 12.398438 21.011719 14.070312 C 20.179688 15.097656 19.042969 15.871094 17.730469 16.25 C 14.089844 13.578125 13.445312 8.789062 13.816406 5.828125 M 11.277344 14.546875 C 10.59375 13.195312 10.460938 11.070312 10.921875 9.652344 C 11.167969 8.894531 11.890625 7.863281 12.109375 7.09375 C 12.191406 6.8125 12.265625 6.574219 12.316406 6.347656 C 12.664062 6.191406 13.011719 6.058594 13.363281 5.953125 C 12.964844 8.984375 13.550781 13.761719 17.183594 16.378906 C 16.898438 16.433594 16.605469 16.472656 16.304688 16.488281 C 16.179688 16.496094 16.050781 16.5 15.925781 16.5 C 14.117188 16.5 12.464844 15.757812 11.277344 14.546875 M 9.421875 10.355469 C 9.378906 9.601562 9.464844 8.871094 9.664062 8.183594 C 10.351562 7.519531 11.074219 6.996094 11.820312 6.59375 L 11.8125 6.621094 C 11.574219 7.535156 10.96875 8.296875 10.625 9.152344 C 10.066406 10.515625 10.082031 12.097656 10.398438 13.429688 C 9.835938 12.53125 9.488281 11.484375 9.421875 10.355469 M 9.730469 7.957031 C 9.726562 8.007812 9.710938 8.054688 9.6875 8.101562 C 9.699219 8.054688 9.714844 8.003906 9.730469 7.957031 "/>
</clipPath>
<clipPath id="clip5">
  <path d="M 20 12 L 26 12 L 26 17 L 20 17 Z M 20 12 "/>
</clipPath>
<clipPath id="clip6">
  <path d="M 22.398438 12.125 C 21.953125 12.375 21.339844 13.019531 21.339844 13.019531 C 21.339844 13.019531 21.300781 13.113281 21.390625 13.269531 C 21.4375 13.351562 21.480469 13.410156 21.511719 13.453125 C 21.511719 13.390625 21.535156 13.3125 21.589844 13.25 C 22.003906 12.714844 22.734375 12.140625 23.695312 12.183594 C 22.742188 12.351562 22.101562 12.960938 21.695312 13.519531 C 21.632812 13.585938 21.585938 13.597656 21.554688 13.574219 C 21.542969 13.6875 21.46875 13.835938 21.371094 13.851562 C 21.265625 13.871094 20.847656 14.210938 20.847656 14.210938 L 20.847656 14.414062 L 20.886719 15.054688 C 20.886719 15.054688 20.960938 15.511719 21.109375 15.699219 C 21.253906 15.878906 21.679688 16.492188 22.351562 16.5625 C 22.351562 16.5625 22.398438 14.929688 22.601562 14.445312 C 22.808594 13.957031 23.078125 13.394531 23.515625 13.164062 C 23.953125 12.929688 24.625 12.695312 24.972656 12.511719 C 25.324219 12.328125 25.476562 12.125 25.476562 12.125 C 25.476562 12.125 24.757812 12.09375 24.175781 12 C 23.925781 11.957031 23.648438 11.925781 23.375 11.925781 C 23.011719 11.925781 22.65625 11.980469 22.398438 12.125 "/>
</clipPath>
<clipPath id="clip7">
  <path d="M 20 11 L 26 11 L 26 17 L 20 17 Z M 20 11 "/>
</clipPath>
<clipPath id="clip8">
  <path d="M 22.398438 12.125 C 21.953125 12.375 21.339844 13.019531 21.339844 13.019531 C 21.339844 13.019531 21.300781 13.113281 21.390625 13.269531 C 21.4375 13.351562 21.480469 13.410156 21.511719 13.453125 C 21.511719 13.390625 21.535156 13.3125 21.589844 13.25 C 22.003906 12.714844 22.734375 12.140625 23.695312 12.183594 C 22.742188 12.351562 22.101562 12.960938 21.695312 13.519531 C 21.632812 13.585938 21.585938 13.597656 21.554688 13.574219 C 21.542969 13.6875 21.46875 13.835938 21.371094 13.851562 C 21.265625 13.871094 20.847656 14.210938 20.847656 14.210938 L 20.847656 14.414062 L 20.886719 15.054688 C 20.886719 15.054688 20.960938 15.511719 21.109375 15.699219 C 21.253906 15.878906 21.679688 16.492188 22.351562 16.5625 C 22.351562 16.5625 22.398438 14.929688 22.601562 14.445312 C 22.808594 13.957031 23.078125 13.394531 23.515625 13.164062 C 23.953125 12.929688 24.625 12.695312 24.972656 12.511719 C 25.324219 12.328125 25.476562 12.125 25.476562 12.125 C 25.476562 12.125 24.757812 12.09375 24.175781 12 C 23.925781 11.957031 23.648438 11.925781 23.375 11.925781 C 23.011719 11.925781 22.65625 11.980469 22.398438 12.125 "/>
</clipPath>
<clipPath id="clip9">
  <path d="M 0 5 L 28 5 L 28 18 L 0 18 Z M 0 5 "/>
</clipPath>
<clipPath id="clip10">
  <path d="M 14.414062 7.917969 C 11.90625 6.824219 8.851562 7.683594 6.453125 9.097656 L 4.605469 8.632812 C 2.929688 8.203125 1.453125 7.832031 0 8.164062 C 1.113281 9.15625 2.582031 9.550781 4.261719 9.984375 L 4.910156 10.152344 C 4.265625 10.660156 3.714844 11.1875 3.300781 11.695312 L 2.882812 12.207031 L 4.394531 11.96875 C 0.902344 17.484375 6.648438 19.539062 10.519531 14.714844 L 14.53125 13.660156 C 13.972656 14.402344 13.972656 15.503906 13.972656 15.503906 L 14.21875 15.316406 C 15.429688 14.296875 16.832031 13.785156 17.921875 13.5625 L 20.492188 14.238281 C 20.488281 14.246094 20.488281 14.261719 20.488281 14.28125 C 20.398438 15.699219 21.054688 16.660156 22.511719 16.898438 C 22.597656 16.914062 22.660156 16.929688 22.769531 16.945312 C 22.742188 16.636719 22.738281 16.410156 22.753906 16.101562 C 23.863281 16.894531 25.082031 16.75 26.089844 15.871094 L 26.167969 16.054688 C 27.25 16.324219 27.792969 14.492188 27.707031 14.082031 C 27.703125 14.070312 27.125 13.984375 26.484375 14.207031 L 23.757812 13.472656 C 24.257812 13.097656 25.925781 12.6875 25.949219 11.808594 C 25.949219 11.792969 25.949219 11.78125 25.949219 11.769531 C 26.847656 11.058594 27.160156 10.058594 26.851562 8.6875 L 28 5.828125 C 28 5.828125 25.03125 6.539062 24.554688 6.65625 L 25 5.316406 Z M 20.695312 11.84375 C 23.25 11.460938 25.984375 10.828125 25.015625 9.371094 C 24.832031 9.199219 24.734375 9.152344 24.585938 8.957031 C 23.957031 8.109375 25.039062 7.136719 26.25 7.21875 C 26.332031 7.222656 26.554688 7.257812 26.542969 7.265625 L 26.246094 8.023438 C 26.003906 7.636719 25.210938 7.542969 25.109375 8.011719 C 25.03125 8.367188 25.589844 8.496094 25.914062 9.109375 C 26.359375 9.953125 25.894531 10.796875 25.089844 11.210938 C 24.777344 11.375 24.453125 11.511719 24.125 11.625 C 23.855469 11.695312 23.574219 11.773438 23.226562 11.871094 C 22.90625 11.960938 22.808594 12.015625 21.585938 12.210938 C 19.503906 12.523438 17.3125 12.625 15.480469 13.484375 C 16.273438 12.667969 18.378906 12.199219 20.695312 11.84375 M 7.496094 9.433594 C 10.4375 7.949219 13.179688 7.875 14.351562 9.023438 C 14.308594 9.007812 12.03125 10.351562 11.796875 10.527344 C 12.925781 8.324219 10.894531 8.828125 9.203125 9.886719 Z M 4.738281 11.21875 C 5.144531 10.894531 5.550781 10.597656 5.960938 10.324219 L 7.929688 10.867188 C 7.898438 10.898438 7.867188 10.929688 7.835938 10.960938 C 3.453125 15.539062 6.335938 16.304688 9.527344 14.542969 C 9.59375 14.511719 9.078125 14.992188 9.078125 14.992188 C 5.53125 18.476562 1.65625 15.851562 6.386719 10.84375 C 5.878906 10.988281 4.863281 11.222656 4.75 11.222656 C 4.742188 11.222656 4.738281 11.222656 4.738281 11.21875 "/>
</clipPath>
<clipPath id="clip11">
  <path d="M 21 12 L 24 12 L 24 14 L 21 14 Z M 21 12 "/>
</clipPath>
<clipPath id="clip12">
  <path d="M 21.492188 13.175781 C 21.617188 13.253906 21.699219 13.445312 21.6875 13.660156 C 21.667969 13.925781 21.511719 14.132812 21.332031 14.140625 C 21.335938 14.148438 21.335938 14.152344 21.335938 14.15625 C 21.355469 14.558594 21.496094 14.945312 21.695312 15.148438 C 21.769531 14.457031 22.140625 13.515625 23.183594 12.929688 C 22.144531 13.835938 21.941406 15.132812 22.015625 16.023438 C 21.53125 15.925781 21.125 15.109375 20.984375 14.679688 C 21.09375 15.414062 21.550781 16.289062 22.253906 16.339844 C 22.109375 14.925781 22.660156 13.464844 23.582031 12.976562 C 23.964844 12.773438 24.5 12.640625 25.085938 12.261719 C 24.457031 12.210938 24.257812 12.152344 24.035156 12.113281 C 23.859375 12.082031 23.691406 12.066406 23.523438 12.066406 C 22.738281 12.066406 22.027344 12.414062 21.492188 13.175781 "/>
</clipPath>
<clipPath id="clip13">
  <path d="M 15 7 L 27 7 L 27 14 L 15 14 Z M 15 7 "/>
</clipPath>
<clipPath id="clip14">
  <path d="M 14.394531 8.207031 C 12.046875 7.136719 9.144531 7.878906 6.8125 9.1875 L 11.347656 10.332031 C 11.328125 10.390625 11.304688 10.449219 11.28125 10.5 L 9.277344 11.109375 C 9.183594 11.148438 9.097656 11.191406 9.023438 11.230469 L 5.21875 10.234375 C 4.527344 10.761719 3.9375 11.320312 3.496094 11.859375 L 4.855469 11.679688 C 0.96875 17.902344 7.253906 18.691406 10.226562 14.507812 L 15.160156 13.269531 C 14.710938 13.714844 14.441406 14.355469 14.304688 14.917969 C 15.765625 13.65625 17.671875 13.265625 18.8125 13.179688 C 19.507812 13.132812 20.273438 13.054688 20.867188 12.988281 L 21.035156 12.777344 C 21.578125 12.035156 22.363281 11.671875 23.195312 11.589844 C 23.84375 11.527344 24.070312 11.621094 24.34375 11.671875 C 24.472656 11.707031 24.921875 11.824219 25.386719 11.847656 C 26.582031 11.148438 26.933594 10.136719 26.585938 8.671875 L 27.515625 6.199219 C 27.507812 6.207031 25.167969 6.769531 24.171875 7.007812 L 24.617188 5.667969 Z M 14.394531 8.207031 "/>
</clipPath>
<clipPath id="clip15">
  <path d="M 4 8 L 15 8 L 15 17 L 4 17 Z M 4 8 "/>
</clipPath>
<clipPath id="clip16">
  <path d="M 14.394531 8.207031 C 12.046875 7.136719 9.144531 7.878906 6.8125 9.1875 L 11.347656 10.332031 C 11.328125 10.390625 11.304688 10.449219 11.28125 10.5 L 9.277344 11.109375 C 9.183594 11.148438 9.097656 11.191406 9.023438 11.230469 L 5.21875 10.234375 C 4.527344 10.761719 3.9375 11.320312 3.496094 11.859375 L 4.855469 11.679688 C 0.96875 17.902344 7.253906 18.691406 10.226562 14.507812 L 15.160156 13.269531 C 14.710938 13.714844 14.441406 14.355469 14.304688 14.917969 C 15.765625 13.65625 17.671875 13.265625 18.8125 13.179688 C 19.507812 13.132812 20.273438 13.054688 20.867188 12.988281 L 21.035156 12.777344 C 21.578125 12.035156 22.363281 11.671875 23.195312 11.589844 C 23.84375 11.527344 24.070312 11.621094 24.34375 11.671875 C 24.472656 11.707031 24.921875 11.824219 25.386719 11.847656 C 26.582031 11.148438 26.933594 10.136719 26.585938 8.671875 L 27.515625 6.199219 C 27.507812 6.207031 25.167969 6.769531 24.171875 7.007812 L 24.617188 5.667969 Z M 14.394531 8.207031 "/>
</clipPath>
</defs>
<g id="surface1">
<path style=" stroke:none;fill-rule:nonzero;fill:rgb(99.215686%,73.333333%,18.823529%);fill-opacity:1;" d="M 8.542969 10.40625 C 8.304688 6.324219 11.425781 2.824219 15.507812 2.589844 C 19.589844 2.355469 23.085938 5.472656 23.324219 9.554688 C 23.558594 13.636719 20.441406 17.136719 16.359375 17.371094 C 12.277344 17.605469 8.777344 14.488281 8.542969 10.40625 "/>
<path style=" stroke:none;fill-rule:nonzero;fill:rgb(0%,16.862745%,37.647059%);fill-opacity:1;" d="M 22.976562 9.574219 C 23.199219 13.464844 20.226562 16.800781 16.335938 17.023438 C 12.445312 17.246094 9.113281 14.277344 8.886719 10.386719 C 8.664062 6.496094 11.636719 3.160156 15.527344 2.9375 C 19.417969 2.710938 22.75 5.683594 22.976562 9.574219 "/>
<path style="fill:none;stroke-width:0.2734;stroke-linecap:butt;stroke-linejoin:miter;stroke:rgb(0%,16.862745%,37.647059%);stroke-opacity:1;stroke-miterlimit:4;" d="M -146.904275 -613.185012 C -144.677712 -574.278762 -174.404275 -540.919387 -213.310525 -538.692825 C -252.216775 -536.466262 -285.537087 -566.153762 -287.802712 -605.060012 C -290.029275 -643.966262 -260.302712 -677.325637 -221.396462 -679.5522 C -182.490212 -681.817825 -149.1699 -652.091262 -146.904275 -613.185012 Z M -146.904275 -613.185012 " transform="matrix(0.1,0,0,0.1,37.66699,70.89272)"/>
<path style=" stroke:none;fill-rule:nonzero;fill:rgb(52.54902%,0%,21.960784%);fill-opacity:1;" d="M 22.4375 9.605469 C 22.523438 11.058594 22.125 12.429688 21.378906 13.558594 C 20.816406 11.9375 18.988281 10.148438 17.449219 8.683594 C 16.070312 7.433594 15.5 6.414062 15.40625 5.617188 C 18.007812 5.539062 20.542969 6.773438 22.375 8.992188 C 22.40625 9.195312 22.425781 9.398438 22.4375 9.605469 M 21.007812 14.070312 C 20.179688 15.097656 19.042969 15.871094 17.730469 16.25 C 14.089844 13.578125 13.445312 8.789062 13.816406 5.828125 C 14.175781 5.742188 14.535156 5.683594 14.894531 5.648438 C 14.972656 6.535156 15.539062 7.644531 16.96875 8.941406 C 18.535156 10.429688 20.46875 12.398438 21.007812 14.070312 M 17.183594 16.378906 C 16.898438 16.433594 16.605469 16.472656 16.304688 16.488281 C 14.351562 16.601562 12.546875 15.839844 11.277344 14.546875 C 10.59375 13.195312 10.460938 11.070312 10.921875 9.652344 C 11.167969 8.894531 11.890625 7.863281 12.109375 7.09375 C 12.191406 6.8125 12.265625 6.574219 12.316406 6.347656 C 12.664062 6.191406 13.011719 6.058594 13.363281 5.953125 C 12.964844 8.984375 13.550781 13.761719 17.183594 16.378906 M 10.398438 13.429688 C 9.835938 12.53125 9.488281 11.484375 9.421875 10.355469 C 9.378906 9.601562 9.464844 8.871094 9.664062 8.183594 C 10.351562 7.519531 11.074219 6.996094 11.820312 6.59375 L 11.8125 6.621094 C 11.574219 7.535156 10.96875 8.296875 10.625 9.152344 C 10.066406 10.515625 10.082031 12.097656 10.398438 13.429688 M 9.6875 8.101562 C 9.699219 8.054688 9.714844 8.003906 9.730469 7.957031 C 9.726562 8.007812 9.710938 8.054688 9.6875 8.101562 M 9.964844 7.34375 C 10.363281 6.445312 10.957031 5.652344 11.699219 5.019531 C 11.921875 5.234375 11.949219 5.660156 11.914062 6.046875 C 11.253906 6.378906 10.601562 6.8125 9.964844 7.34375 M 12.0625 4.730469 C 12.628906 4.3125 13.265625 3.984375 13.953125 3.765625 C 13.75 4.164062 13.570312 4.742188 13.441406 5.445312 C 13.085938 5.546875 12.730469 5.675781 12.378906 5.828125 C 12.375 5.507812 12.289062 5.171875 12.0625 4.730469 M 14.449219 3.628906 C 14.808594 3.546875 15.175781 3.492188 15.558594 3.472656 C 15.714844 3.460938 15.871094 3.457031 16.03125 3.460938 C 15.484375 3.804688 14.992188 4.382812 14.902344 5.171875 C 14.566406 5.203125 14.230469 5.253906 13.890625 5.328125 C 14.023438 4.585938 14.222656 3.988281 14.449219 3.628906 M 16.8125 3.519531 C 19.300781 3.855469 21.371094 5.605469 22.136719 7.972656 C 20.253906 6.140625 17.871094 5.066406 15.40625 5.140625 C 15.511719 4.3125 16.160156 3.78125 16.8125 3.519531 "/>
<path style="fill:none;stroke-width:0.2734;stroke-linecap:butt;stroke-linejoin:miter;stroke:rgb(52.54902%,0%,21.960784%);stroke-opacity:1;stroke-miterlimit:4;" d="M -147.7773 -612.606413 C -146.917925 -598.075163 -150.9023 -584.364225 -158.363238 -573.075163 C -163.988238 -589.2861 -182.269488 -607.176725 -197.660113 -621.825163 C -211.449175 -634.325163 -217.1523 -644.520475 -218.0898 -652.489225 C -192.074175 -653.270475 -166.722613 -640.926725 -148.4023 -618.739225 C -148.0898 -616.707975 -147.894488 -614.676725 -147.7773 -612.606413 Z M -162.074175 -567.957975 C -170.355425 -557.684538 -181.722613 -549.950163 -194.847613 -546.1611 C -231.253863 -572.87985 -237.699175 -620.770475 -233.988238 -650.37985 C -230.394488 -651.239225 -226.800738 -651.825163 -223.206988 -652.176725 C -222.425738 -643.309538 -216.761675 -632.215788 -202.4648 -619.247038 C -186.800738 -604.364225 -167.4648 -584.676725 -162.074175 -567.957975 Z M -200.316363 -544.872038 C -203.167925 -544.325163 -206.097613 -543.934538 -209.105425 -543.778288 C -228.636675 -542.645475 -246.68355 -550.262663 -259.378863 -563.19235 C -266.2148 -576.707975 -267.542925 -597.957975 -262.93355 -612.137663 C -260.472613 -619.715788 -253.24605 -630.028288 -251.05855 -637.7236 C -250.238238 -640.5361 -249.49605 -642.918913 -248.988238 -645.184538 C -245.511675 -646.747038 -242.035113 -648.075163 -238.519488 -649.12985 C -242.503863 -618.81735 -236.644488 -571.043913 -200.316363 -544.872038 Z M -268.167925 -574.364225 C -273.792925 -583.3486 -277.269488 -593.81735 -277.93355 -605.106413 C -278.363238 -612.645475 -277.503863 -619.950163 -275.511675 -626.825163 C -268.636675 -633.465788 -261.410113 -638.700163 -253.949175 -642.7236 L -254.0273 -642.450163 C -256.410113 -633.309538 -262.4648 -625.69235 -265.9023 -617.137663 C -271.488238 -603.50485 -271.331988 -587.684538 -268.167925 -574.364225 Z M -275.2773 -627.645475 C -275.160113 -628.114225 -275.003863 -628.622038 -274.847613 -629.090788 C -274.886675 -628.582975 -275.042925 -628.114225 -275.2773 -627.645475 Z M -272.503863 -635.2236 C -268.519488 -644.207975 -262.581988 -652.137663 -255.160113 -658.465788 C -252.93355 -656.31735 -252.660113 -652.059538 -253.011675 -648.19235 C -259.613238 -644.872038 -266.136675 -640.5361 -272.503863 -635.2236 Z M -251.5273 -661.356413 C -245.863238 -665.5361 -239.49605 -668.81735 -232.62105 -671.00485 C -234.6523 -667.020475 -236.449175 -661.239225 -237.738238 -654.207975 C -241.292925 -653.19235 -244.847613 -651.903288 -248.363238 -650.37985 C -248.4023 -653.582975 -249.261675 -656.94235 -251.5273 -661.356413 Z M -227.660113 -672.372038 C -224.066363 -673.19235 -220.394488 -673.739225 -216.566363 -673.934538 C -215.003863 -674.051725 -213.441363 -674.090788 -211.8398 -674.051725 C -217.30855 -670.614225 -222.230425 -664.832975 -223.128863 -656.94235 C -226.488238 -656.62985 -229.847613 -656.122038 -233.24605 -655.37985 C -231.917925 -662.801725 -229.925738 -668.778288 -227.660113 -672.372038 Z M -204.0273 -673.465788 C -179.144488 -670.106413 -158.441363 -652.606413 -150.785113 -628.934538 C -169.613238 -647.25485 -193.441363 -657.997038 -218.0898 -657.25485 C -217.035113 -665.5361 -210.550738 -670.8486 -204.0273 -673.465788 Z M -204.0273 -673.465788 " transform="matrix(0.1,0,0,0.1,37.21523,70.86611)"/>
<path style=" stroke:none;fill-rule:nonzero;fill:rgb(99.215686%,73.333333%,18.823529%);fill-opacity:1;" d="M 26.484375 14.207031 L 23.757812 13.472656 C 24.257812 13.097656 25.925781 12.6875 25.949219 11.808594 C 25.949219 11.792969 25.949219 11.78125 25.949219 11.769531 C 26.847656 11.058594 27.160156 10.058594 26.851562 8.6875 L 28 5.828125 C 28 5.828125 25.03125 6.539062 24.554688 6.65625 L 25 5.316406 L 14.417969 7.917969 C 11.90625 6.824219 8.851562 7.683594 6.453125 9.097656 L 4.605469 8.632812 C 2.933594 8.203125 1.453125 7.832031 0 8.164062 C 1.113281 9.15625 2.582031 9.550781 4.261719 9.984375 L 4.910156 10.152344 C 4.265625 10.660156 3.714844 11.1875 3.300781 11.695312 L 2.882812 12.207031 L 4.394531 11.96875 C 0.902344 17.484375 6.648438 19.539062 10.519531 14.714844 L 14.53125 13.660156 C 13.972656 14.402344 13.972656 15.503906 13.972656 15.503906 L 14.21875 15.316406 C 15.429688 14.296875 16.832031 13.785156 17.917969 13.5625 L 20.492188 14.238281 C 20.488281 14.246094 20.488281 14.261719 20.488281 14.28125 C 20.398438 15.699219 21.054688 16.660156 22.511719 16.898438 C 22.597656 16.914062 22.660156 16.929688 22.769531 16.945312 C 22.742188 16.636719 22.738281 16.410156 22.753906 16.101562 C 23.863281 16.894531 25.082031 16.75 26.089844 15.871094 L 26.167969 16.058594 C 27.25 16.324219 27.792969 14.492188 27.707031 14.082031 C 27.703125 14.070312 27.125 13.984375 26.484375 14.207031 "/>
<g clip-path="url(#clip1)" clip-rule="nonzero">
<g clip-path="url(#clip2)" clip-rule="nonzero">
<path style=" stroke:none;fill-rule:nonzero;fill:rgb(99.215686%,73.333333%,18.823529%);fill-opacity:1;" d="M 26.484375 14.207031 L 23.757812 13.472656 C 24.257812 13.097656 25.925781 12.6875 25.949219 11.808594 C 25.949219 11.792969 25.949219 11.78125 25.949219 11.769531 C 26.847656 11.058594 27.160156 10.058594 26.851562 8.6875 L 28 5.828125 C 28 5.828125 25.03125 6.539062 24.554688 6.65625 L 25 5.316406 L 14.417969 7.917969 C 11.90625 6.824219 8.851562 7.683594 6.453125 9.097656 L 4.605469 8.632812 C 2.933594 8.203125 1.453125 7.832031 0 8.164062 C 1.113281 9.15625 2.582031 9.550781 4.261719 9.984375 L 4.910156 10.152344 C 4.265625 10.660156 3.714844 11.1875 3.300781 11.695312 L 2.882812 12.207031 L 4.394531 11.96875 C 0.902344 17.484375 6.648438 19.539062 10.519531 14.714844 L 14.53125 13.660156 C 13.972656 14.402344 13.972656 15.503906 13.972656 15.503906 L 14.21875 15.316406 C 15.429688 14.296875 16.832031 13.785156 17.917969 13.5625 L 20.492188 14.238281 C 20.488281 14.246094 20.488281 14.261719 20.488281 14.28125 C 20.398438 15.699219 21.054688 16.660156 22.511719 16.898438 C 22.597656 16.914062 22.660156 16.929688 22.769531 16.945312 C 22.742188 16.636719 22.738281 16.410156 22.753906 16.101562 C 23.863281 16.894531 25.082031 16.75 26.089844 15.871094 L 26.167969 16.058594 C 27.25 16.324219 27.792969 14.492188 27.707031 14.082031 C 27.703125 14.070312 27.125 13.984375 26.484375 14.207031 "/>
<path style="fill:none;stroke-width:0.2734;stroke-linecap:butt;stroke-linejoin:miter;stroke:rgb(52.54902%,0%,21.960784%);stroke-opacity:1;stroke-miterlimit:4;" d="M -141.40135 -527.821288 L -168.666975 -535.165038 C -163.666975 -538.915038 -146.987287 -543.0166 -146.752912 -551.805663 C -146.752912 -551.961913 -146.752912 -552.0791 -146.752912 -552.196288 C -137.768537 -559.305663 -134.643537 -569.305663 -137.729475 -583.0166 L -126.2451 -611.61035 C -126.2451 -611.61035 -155.9326 -604.500975 -160.698225 -603.3291 L -156.2451 -616.727538 L -262.065412 -590.711913 C -287.1826 -601.649413 -317.729475 -593.055663 -341.71385 -578.915038 L -360.190412 -583.563475 C -376.909162 -587.86035 -391.71385 -591.571288 -406.2451 -588.250975 C -395.112287 -578.3291 -380.424787 -574.383788 -363.627912 -570.04785 L -357.143537 -568.368163 C -363.58885 -563.290038 -369.096662 -558.0166 -373.237287 -552.938475 L -377.416975 -547.821288 L -362.299787 -550.2041 C -397.221662 -495.04785 -339.760725 -474.500975 -301.049787 -522.743163 L -260.9326 -533.290038 C -266.518537 -525.868163 -266.518537 -514.852538 -266.518537 -514.852538 L -264.0576 -516.727538 C -251.948225 -526.92285 -237.924787 -532.040038 -227.065412 -534.2666 L -201.323225 -527.508788 C -201.362287 -527.430663 -201.362287 -527.274413 -201.362287 -527.0791 C -202.260725 -512.899413 -195.698225 -503.290038 -181.127912 -500.907225 C -180.268537 -500.750975 -179.643537 -500.594725 -178.549787 -500.438475 C -178.823225 -503.524413 -178.862287 -505.790038 -178.706037 -508.875975 C -167.612287 -500.946288 -155.424787 -502.3916 -145.346662 -511.180663 L -144.565412 -509.305663 C -133.7451 -506.649413 -128.315412 -524.969725 -129.174787 -529.071288 C -129.21385 -529.188475 -134.9951 -530.04785 -141.40135 -527.821288 Z M -141.40135 -527.821288 " transform="matrix(0.1,0,0,0.1,40.62451,66.98916)"/>
</g>
</g>
<g clip-path="url(#clip3)" clip-rule="nonzero">
<g clip-path="url(#clip4)" clip-rule="nonzero">
<path style=" stroke:none;fill-rule:nonzero;fill:rgb(99.215686%,73.333333%,18.823529%);fill-opacity:1;" d="M 26.484375 14.207031 L 23.757812 13.472656 C 24.257812 13.097656 25.925781 12.6875 25.949219 11.808594 C 25.949219 11.792969 25.949219 11.78125 25.949219 11.769531 C 26.847656 11.058594 27.160156 10.058594 26.851562 8.6875 L 28 5.828125 C 28 5.828125 25.03125 6.539062 24.554688 6.65625 L 25 5.316406 L 14.417969 7.917969 C 11.90625 6.824219 8.851562 7.683594 6.453125 9.097656 L 4.605469 8.632812 C 2.933594 8.203125 1.453125 7.832031 0 8.164062 C 1.113281 9.15625 2.582031 9.550781 4.261719 9.984375 L 4.910156 10.152344 C 4.265625 10.660156 3.714844 11.1875 3.300781 11.695312 L 2.882812 12.207031 L 4.394531 11.96875 C 0.902344 17.484375 6.648438 19.539062 10.519531 14.714844 L 14.53125 13.660156 C 13.972656 14.402344 13.972656 15.503906 13.972656 15.503906 L 14.21875 15.316406 C 15.429688 14.296875 16.832031 13.785156 17.917969 13.5625 L 20.492188 14.238281 C 20.488281 14.246094 20.488281 14.261719 20.488281 14.28125 C 20.398438 15.699219 21.054688 16.660156 22.511719 16.898438 C 22.597656 16.914062 22.660156 16.929688 22.769531 16.945312 C 22.742188 16.636719 22.738281 16.410156 22.753906 16.101562 C 23.863281 16.894531 25.082031 16.75 26.089844 15.871094 L 26.167969 16.058594 C 27.25 16.324219 27.792969 14.492188 27.707031 14.082031 C 27.703125 14.070312 27.125 13.984375 26.484375 14.207031 "/>
<path style="fill:none;stroke-width:0.2734;stroke-linecap:butt;stroke-linejoin:miter;stroke:rgb(0%,16.862745%,37.647059%);stroke-opacity:1;stroke-miterlimit:4;" d="M -141.40135 -527.821288 L -168.666975 -535.165038 C -163.666975 -538.915038 -146.987287 -543.0166 -146.752912 -551.805663 C -146.752912 -551.961913 -146.752912 -552.0791 -146.752912 -552.196288 C -137.768537 -559.305663 -134.643537 -569.305663 -137.729475 -583.0166 L -126.2451 -611.61035 C -126.2451 -611.61035 -155.9326 -604.500975 -160.698225 -603.3291 L -156.2451 -616.727538 L -262.065412 -590.711913 C -287.1826 -601.649413 -317.729475 -593.055663 -341.71385 -578.915038 L -360.190412 -583.563475 C -376.909162 -587.86035 -391.71385 -591.571288 -406.2451 -588.250975 C -395.112287 -578.3291 -380.424787 -574.383788 -363.627912 -570.04785 L -357.143537 -568.368163 C -363.58885 -563.290038 -369.096662 -558.0166 -373.237287 -552.938475 L -377.416975 -547.821288 L -362.299787 -550.2041 C -397.221662 -495.04785 -339.760725 -474.500975 -301.049787 -522.743163 L -260.9326 -533.290038 C -266.518537 -525.868163 -266.518537 -514.852538 -266.518537 -514.852538 L -264.0576 -516.727538 C -251.948225 -526.92285 -237.924787 -532.040038 -227.065412 -534.2666 L -201.323225 -527.508788 C -201.362287 -527.430663 -201.362287 -527.274413 -201.362287 -527.0791 C -202.260725 -512.899413 -195.698225 -503.290038 -181.127912 -500.907225 C -180.268537 -500.750975 -179.643537 -500.594725 -178.549787 -500.438475 C -178.823225 -503.524413 -178.862287 -505.790038 -178.706037 -508.875975 C -167.612287 -500.946288 -155.424787 -502.3916 -145.346662 -511.180663 L -144.565412 -509.305663 C -133.7451 -506.649413 -128.315412 -524.969725 -129.174787 -529.071288 C -129.21385 -529.188475 -134.9951 -530.04785 -141.40135 -527.821288 Z M -141.40135 -527.821288 " transform="matrix(0.1,0,0,0.1,40.62451,66.98916)"/>
</g>
</g>
<path style=" stroke:none;fill-rule:nonzero;fill:rgb(0%,16.862745%,37.647059%);fill-opacity:1;" d="M 27.53125 14.304688 C 26.929688 14.199219 26.53125 14.449219 26.519531 14.449219 C 26.511719 14.449219 24.433594 13.890625 23.667969 13.683594 L 23.265625 13.574219 C 23.527344 13.222656 24.027344 13.074219 24.527344 12.851562 C 24.742188 12.753906 25.039062 12.640625 25.261719 12.484375 C 25.664062 12.203125 25.722656 12.019531 25.722656 12.019531 C 24.992188 12.042969 24.300781 11.847656 24.179688 11.820312 C 23.859375 11.753906 23.535156 11.742188 23.226562 11.773438 C 23.214844 11.773438 23.207031 11.777344 23.195312 11.777344 C 22.363281 11.878906 21.617188 12.316406 21.171875 12.96875 C 21.171875 12.96875 21.117188 13.039062 21.097656 13.058594 C 21.039062 13.125 20.957031 13.222656 20.957031 13.222656 L 21.203125 13.285156 C 21.371094 13.3125 21.277344 13.679688 21.050781 13.625 L 19.980469 13.34375 C 19.5625 13.378906 19.125 13.414062 18.832031 13.433594 C 18.679688 13.445312 18.511719 13.464844 18.332031 13.492188 L 20.703125 14.113281 C 20.535156 15.664062 21.367188 16.617188 22.539062 16.710938 C 22.539062 16.554688 22.535156 16.222656 22.542969 15.628906 C 22.542969 15.628906 24.230469 17.441406 26.167969 15.492188 C 26.183594 15.480469 26.328125 15.859375 26.328125 15.859375 C 27.183594 15.960938 27.558594 14.308594 27.53125 14.304688 "/>
<path style="fill:none;stroke-width:0.2734;stroke-linecap:butt;stroke-linejoin:miter;stroke:rgb(0%,16.862745%,37.647059%);stroke-opacity:1;stroke-miterlimit:4;" d="M -139.7461 -525.993125 C -145.761725 -527.047812 -149.7461 -524.547812 -149.863288 -524.547812 C -149.941413 -524.547812 -170.722663 -530.13375 -178.378913 -532.204062 L -182.40235 -533.297812 C -179.785163 -536.813437 -174.785163 -538.297812 -169.785163 -540.524375 C -167.636725 -541.500937 -164.667975 -542.63375 -162.441413 -544.19625 C -158.417975 -547.00875 -157.832038 -548.844687 -157.832038 -548.844687 C -165.136725 -548.610312 -172.050788 -550.563437 -173.261725 -550.836875 C -176.46485 -551.500937 -179.707038 -551.618125 -182.792975 -551.305625 C -182.910163 -551.305625 -182.988288 -551.266562 -183.105475 -551.266562 C -191.425788 -550.250937 -198.886725 -545.875937 -203.33985 -539.3525 C -203.33985 -539.3525 -203.886725 -538.649375 -204.082038 -538.454062 C -204.667975 -537.79 -205.488288 -536.813437 -205.488288 -536.813437 L -203.02735 -536.188437 C -201.347663 -535.915 -202.285163 -532.243125 -204.550788 -532.79 L -215.253913 -535.6025 C -219.4336 -535.250937 -223.8086 -534.899375 -226.738288 -534.704062 C -228.261725 -534.586875 -229.941413 -534.391562 -231.738288 -534.118125 L -208.02735 -527.907187 C -209.707038 -512.399375 -201.386725 -502.868125 -189.667975 -501.930625 C -189.667975 -503.493125 -189.707038 -506.813437 -189.628913 -512.750937 C -189.628913 -512.750937 -172.753913 -494.625937 -153.378913 -514.118125 C -153.222663 -514.235312 -151.77735 -510.44625 -151.77735 -510.44625 C -143.222663 -509.430625 -139.472663 -525.954062 -139.7461 -525.993125 Z M -139.7461 -525.993125 " transform="matrix(0.1,0,0,0.1,41.50586,66.904)"/>
<g clip-path="url(#clip5)" clip-rule="nonzero">
<g clip-path="url(#clip6)" clip-rule="nonzero">
<path style=" stroke:none;fill-rule:nonzero;fill:rgb(99.215686%,73.333333%,18.823529%);fill-opacity:1;" d="M 24.035156 12.113281 C 23.046875 11.941406 22.144531 12.25 21.492188 13.175781 C 21.617188 13.253906 21.699219 13.445312 21.683594 13.660156 C 21.667969 13.925781 21.511719 14.132812 21.332031 14.140625 C 21.335938 14.148438 21.335938 14.152344 21.335938 14.15625 C 21.355469 14.558594 21.496094 14.945312 21.695312 15.148438 C 21.769531 14.457031 22.140625 13.515625 23.183594 12.929688 C 22.144531 13.835938 21.941406 15.132812 22.015625 16.023438 C 21.53125 15.925781 21.125 15.109375 20.984375 14.679688 C 21.09375 15.414062 21.550781 16.289062 22.253906 16.339844 C 22.109375 14.925781 22.660156 13.464844 23.582031 12.976562 C 23.964844 12.773438 24.5 12.640625 25.085938 12.261719 C 24.457031 12.210938 24.257812 12.152344 24.035156 12.113281 "/>
</g>
</g>
<g clip-path="url(#clip7)" clip-rule="nonzero">
<g clip-path="url(#clip8)" clip-rule="nonzero">
<path style="fill:none;stroke-width:0.2734;stroke-linecap:butt;stroke-linejoin:miter;stroke:rgb(0%,16.862745%,37.647059%);stroke-opacity:1;stroke-miterlimit:4;" d="M -145.246137 -566.381787 C -155.12895 -568.100537 -164.152387 -565.0146 -170.675825 -555.756787 C -169.425825 -554.975537 -168.605512 -553.061475 -168.761762 -550.913037 C -168.918012 -548.256787 -170.480512 -546.186475 -172.277387 -546.10835 C -172.238325 -546.030225 -172.238325 -545.991162 -172.238325 -545.9521 C -172.043012 -541.928662 -170.636762 -538.061475 -168.644575 -536.030225 C -167.902387 -542.944287 -164.19145 -552.35835 -153.761762 -558.217725 C -164.152387 -549.155225 -166.183637 -536.186475 -165.44145 -527.280225 C -170.2852 -528.256787 -174.3477 -536.42085 -175.75395 -540.717725 C -174.6602 -533.373975 -170.089887 -524.623975 -163.058637 -524.116162 C -164.50395 -538.256787 -158.996137 -552.866162 -149.777387 -557.748975 C -145.949262 -559.780225 -140.5977 -561.10835 -134.738325 -564.897412 C -141.027387 -565.405225 -143.019575 -565.991162 -145.246137 -566.381787 Z M -145.246137 -566.381787 " transform="matrix(0.1,0,0,0.1,38.55977,68.75146)"/>
</g>
</g>
<path style=" stroke:none;fill-rule:nonzero;fill:rgb(0%,16.862745%,37.647059%);fill-opacity:1;" d="M 10.25 10.800781 L 5.140625 9.46875 C 3.683594 9.066406 3.304688 8.742188 3.207031 8.65625 L 6.175781 9.421875 L 10.996094 10.660156 C 10.777344 10.710938 10.449219 10.769531 10.25 10.800781 M 27.515625 6.199219 C 27.507812 6.207031 25.167969 6.769531 24.171875 7.007812 L 24.617188 5.667969 L 14.394531 8.207031 C 12.046875 7.136719 9.144531 7.878906 6.8125 9.1875 L 11.347656 10.332031 C 11.328125 10.390625 11.304688 10.449219 11.28125 10.5 L 4.394531 8.765625 C 2.996094 8.40625 1.734375 8.0625 0.53125 8.300781 C 1.46875 9.089844 2.742188 9.398438 4.140625 9.761719 L 9.277344 11.109375 C 9.183594 11.148438 9.097656 11.191406 9.023438 11.230469 L 5.21875 10.234375 C 4.527344 10.761719 3.9375 11.320312 3.496094 11.859375 L 4.855469 11.679688 C 0.96875 17.902344 7.253906 18.691406 10.226562 14.507812 L 15.160156 13.269531 C 14.710938 13.710938 14.441406 14.355469 14.304688 14.917969 C 15.765625 13.65625 17.671875 13.265625 18.8125 13.179688 C 19.507812 13.132812 20.273438 13.054688 20.867188 12.988281 L 21.035156 12.777344 C 21.578125 12.035156 22.363281 11.671875 23.195312 11.589844 C 23.84375 11.527344 24.070312 11.621094 24.34375 11.671875 C 24.472656 11.703125 24.921875 11.824219 25.386719 11.847656 C 26.582031 11.148438 26.933594 10.136719 26.585938 8.671875 Z M 27.515625 6.199219 "/>
<g clip-path="url(#clip9)" clip-rule="nonzero">
<g clip-path="url(#clip10)" clip-rule="nonzero">
<path style=" stroke:none;fill-rule:nonzero;fill:rgb(0%,16.862745%,37.647059%);fill-opacity:1;" d="M 10.25 10.800781 L 5.140625 9.46875 C 3.683594 9.066406 3.304688 8.742188 3.207031 8.65625 L 6.175781 9.421875 L 10.996094 10.660156 C 10.777344 10.710938 10.449219 10.769531 10.25 10.800781 M 27.515625 6.199219 C 27.507812 6.207031 25.167969 6.769531 24.171875 7.007812 L 24.617188 5.667969 L 14.394531 8.207031 C 12.046875 7.136719 9.144531 7.878906 6.8125 9.1875 L 11.347656 10.332031 C 11.328125 10.390625 11.304688 10.449219 11.28125 10.5 L 4.394531 8.765625 C 2.996094 8.40625 1.734375 8.0625 0.53125 8.300781 C 1.46875 9.089844 2.742188 9.398438 4.140625 9.761719 L 9.277344 11.109375 C 9.183594 11.148438 9.097656 11.191406 9.023438 11.230469 L 5.21875 10.234375 C 4.527344 10.761719 3.9375 11.320312 3.496094 11.859375 L 4.855469 11.679688 C 0.96875 17.902344 7.253906 18.691406 10.226562 14.507812 L 15.160156 13.269531 C 14.710938 13.710938 14.441406 14.355469 14.304688 14.917969 C 15.765625 13.65625 17.671875 13.265625 18.8125 13.179688 C 19.507812 13.132812 20.273438 13.054688 20.867188 12.988281 L 21.035156 12.777344 C 21.578125 12.035156 22.363281 11.671875 23.195312 11.589844 C 23.84375 11.527344 24.070312 11.621094 24.34375 11.671875 C 24.472656 11.703125 24.921875 11.824219 25.386719 11.847656 C 26.582031 11.148438 26.933594 10.136719 26.585938 8.671875 Z M 27.515625 6.199219 "/>
<path style="fill:none;stroke-width:0.2734;stroke-linecap:butt;stroke-linejoin:miter;stroke:rgb(0%,16.862745%,37.647059%);stroke-opacity:1;stroke-miterlimit:4;" d="M -166.9209 -590.567387 L -218.01465 -603.8877 C -232.584963 -607.911137 -236.374025 -611.153325 -237.350588 -612.0127 L -207.663088 -604.35645 L -159.459963 -591.973637 C -161.647463 -591.465825 -164.928713 -590.879887 -166.9209 -590.567387 Z M 5.73535 -636.583012 C 5.657225 -636.504887 -17.741213 -630.879887 -27.70215 -628.497075 L -23.249025 -641.895512 L -125.475588 -616.504887 C -148.95215 -627.208012 -177.975588 -619.786137 -201.2959 -606.7002 L -155.944338 -595.254887 C -156.13965 -594.66895 -156.374025 -594.083012 -156.6084 -593.5752 L -225.475588 -610.91895 C -239.459963 -614.5127 -252.07715 -617.9502 -264.1084 -615.567387 C -254.7334 -607.676762 -241.999025 -604.590825 -228.01465 -600.958012 L -176.647463 -587.48145 C -177.584963 -587.090825 -178.444338 -586.661137 -179.186525 -586.270512 L -217.2334 -596.23145 C -224.147463 -590.958012 -230.0459 -585.372075 -234.459963 -579.98145 L -220.866213 -581.778325 C -259.7334 -519.551762 -196.881838 -511.661137 -167.155275 -553.497075 L -117.819338 -565.879887 C -122.311525 -561.465825 -125.006838 -555.020512 -126.374025 -549.395512 C -111.76465 -562.0127 -92.70215 -565.91895 -81.2959 -566.778325 C -74.342775 -567.247075 -66.686525 -568.028325 -60.749025 -568.692387 L -59.069338 -570.801762 C -53.63965 -578.223637 -45.788088 -581.85645 -37.467775 -582.676762 C -30.9834 -583.301762 -28.717775 -582.364262 -25.9834 -581.85645 C -24.694338 -581.54395 -20.20215 -580.333012 -15.553713 -580.098637 C -3.600588 -587.090825 -0.0849625 -597.208012 -3.561525 -611.85645 Z M 5.73535 -636.583012 " transform="matrix(0.1,0,0,0.1,26.94209,69.85752)"/>
</g>
</g>
<path style=" stroke:none;fill-rule:nonzero;fill:rgb(99.215686%,73.333333%,18.823529%);fill-opacity:1;" d="M 26.632812 14.652344 C 26.839844 14.554688 27.070312 14.507812 27.296875 14.480469 C 26.980469 14.597656 26.824219 14.78125 26.804688 14.773438 C 26.734375 14.949219 26.734375 15.132812 26.335938 15.335938 C 26.460938 15.136719 26.648438 14.90625 26.632812 14.652344 "/>
<path style="fill:none;stroke-width:0.2734;stroke-linecap:butt;stroke-linejoin:miter;stroke:rgb(0%,16.862745%,37.647059%);stroke-opacity:1;stroke-miterlimit:4;" d="M -141.165975 -519.599563 C -139.095663 -520.576125 -136.790975 -521.044875 -134.52535 -521.318313 C -137.689413 -520.146438 -139.251913 -518.3105 -139.447225 -518.388625 C -140.15035 -516.630813 -140.15035 -514.794875 -144.134725 -512.763625 C -142.884725 -514.755813 -141.009725 -517.0605 -141.165975 -519.599563 Z M -141.165975 -519.599563 " transform="matrix(0.1,0,0,0.1,40.74941,66.6123)"/>
<path style=" stroke:none;fill-rule:nonzero;fill:rgb(99.215686%,73.333333%,18.823529%);fill-opacity:1;" d="M 22.640625 14.988281 C 23.070312 15.9375 24.332031 16.160156 25.089844 16 C 24.75 16.296875 23.097656 16.234375 22.601562 15.265625 L 22.640625 14.988281 "/>
<path style="fill:none;stroke-width:0.2734;stroke-linecap:butt;stroke-linejoin:miter;stroke:rgb(0%,16.862745%,37.647059%);stroke-opacity:1;stroke-miterlimit:4;" d="M -147.43945 -513.411088 C -143.142575 -503.9189 -130.525388 -501.692338 -122.947263 -503.2939 C -126.3457 -500.32515 -142.869138 -500.95015 -147.830075 -510.63765 Z M -147.43945 -513.411088 " transform="matrix(0.1,0,0,0.1,37.38457,66.32939)"/>
<path style=" stroke:none;fill-rule:nonzero;fill:rgb(99.215686%,73.333333%,18.823529%);fill-opacity:1;" d="M 23.105469 13.78125 L 26.367188 14.625 C 26.476562 14.652344 26.429688 14.953125 26.292969 14.914062 L 22.933594 14.0625 C 22.953125 13.980469 23.074219 13.800781 23.105469 13.78125 "/>
<path style="fill:none;stroke-width:0.2734;stroke-linecap:butt;stroke-linejoin:miter;stroke:rgb(0%,16.862745%,37.647059%);stroke-opacity:1;stroke-miterlimit:4;" d="M -146.701212 -535.6621 L -114.084025 -527.2246 C -112.990275 -526.951162 -113.459025 -523.94335 -114.826212 -524.333975 L -148.419962 -532.8496 C -148.22465 -533.669912 -147.013712 -535.466787 -146.701212 -535.6621 Z M -146.701212 -535.6621 " transform="matrix(0.1,0,0,0.1,37.77559,67.34746)"/>
<path style=" stroke:none;fill-rule:nonzero;fill:rgb(99.215686%,73.333333%,18.823529%);fill-opacity:1;" d="M 25.886719 15.226562 C 24.710938 16.390625 22.859375 15.589844 22.871094 14.644531 C 22.894531 14.644531 24.074219 15.511719 25.886719 15.226562 "/>
<path style="fill:none;stroke-width:0.2734;stroke-linecap:butt;stroke-linejoin:miter;stroke:rgb(0%,16.862745%,37.647059%);stroke-opacity:1;stroke-miterlimit:4;" d="M -142.347613 -509.033675 C -154.105425 -497.39305 -172.62105 -505.400863 -172.503863 -514.853988 C -172.269488 -514.853988 -160.472613 -506.182113 -142.347613 -509.033675 Z M -142.347613 -509.033675 " transform="matrix(0.1,0,0,0.1,40.12148,66.12993)"/>
<g clip-path="url(#clip11)" clip-rule="nonzero">
<g clip-path="url(#clip12)" clip-rule="nonzero">
<path style=" stroke:none;fill-rule:nonzero;fill:rgb(100%,100%,100%);fill-opacity:1;" d="M 21.589844 13.25 C 21.441406 13.429688 21.515625 13.714844 21.695312 13.519531 C 22.101562 12.960938 22.742188 12.351562 23.695312 12.183594 C 22.734375 12.140625 22.003906 12.714844 21.589844 13.25 "/>
</g>
</g>
<path style=" stroke:none;fill-rule:nonzero;fill:rgb(0%,16.862745%,37.647059%);fill-opacity:1;" d="M 25.324219 15.449219 C 24.0625 15.511719 23.160156 14.960938 23.160156 14.960938 C 23.335938 15.511719 24.644531 15.917969 25.324219 15.449219 "/>
<path style=" stroke:none;fill-rule:nonzero;fill:rgb(100%,100%,100%);fill-opacity:1;" d="M 22.238281 7.40625 L 22.132812 7 L 21.863281 7.800781 L 21.597656 7.867188 L 22 6.832031 L 22.273438 6.765625 L 22.359375 7.125 L 22.523438 6.703125 L 22.792969 6.640625 L 22.386719 7.671875 L 22.113281 7.738281 L 22.238281 7.40625 M 21.367188 7.09375 C 21.363281 7.089844 21.351562 7.089844 21.332031 7.089844 C 21.292969 7.089844 21.269531 7.09375 21.261719 7.09375 C 21.246094 7.097656 21.214844 7.109375 21.164062 7.132812 C 21.144531 7.140625 21.128906 7.148438 21.125 7.15625 L 20.960938 7.554688 L 21.214844 7.492188 L 21.371094 7.097656 Z M 21.171875 7.605469 L 20.917969 7.667969 L 20.765625 8.058594 L 20.492188 8.125 L 20.851562 7.21875 C 20.867188 7.175781 20.941406 7.125 21.046875 7.074219 C 21.136719 7.03125 21.222656 7 21.308594 6.980469 C 21.386719 6.960938 21.464844 6.953125 21.539062 6.957031 C 21.617188 6.960938 21.660156 6.980469 21.644531 7.019531 L 21.285156 7.929688 L 21.019531 7.996094 Z M 19.972656 7.335938 L 20.242188 7.269531 L 19.882812 8.1875 L 20.320312 8.082031 L 20.273438 8.195312 L 19.570312 8.367188 Z M 19.117188 7.558594 L 19.722656 7.40625 L 19.679688 7.519531 L 19.339844 7.601562 L 19.21875 7.914062 L 19.558594 7.832031 L 19.511719 7.945312 L 19.171875 8.027344 L 19.019531 8.410156 L 19.363281 8.328125 L 19.316406 8.441406 L 18.710938 8.589844 Z M 17.210938 8.027344 L 17.820312 7.878906 L 17.773438 7.988281 L 17.433594 8.074219 L 17.3125 8.382812 L 17.652344 8.300781 L 17.609375 8.414062 L 17.265625 8.5 L 17.117188 8.882812 L 17.457031 8.796875 L 17.414062 8.910156 L 16.804688 9.0625 Z M 16.296875 8.257812 L 16.5625 8.195312 L 16.203125 9.113281 L 16.640625 9.007812 L 16.597656 9.121094 L 15.890625 9.292969 Z M 15.179688 9.464844 C 15.113281 9.480469 15.042969 9.488281 14.96875 9.488281 C 14.875 9.488281 14.820312 9.46875 14.835938 9.425781 L 15.144531 8.640625 C 15.15625 8.609375 15.222656 8.566406 15.308594 8.519531 C 15.398438 8.472656 15.480469 8.4375 15.554688 8.421875 L 15.988281 8.316406 L 15.914062 8.5 L 15.648438 8.566406 L 15.683594 8.492188 L 15.609375 8.511719 C 15.535156 8.527344 15.484375 8.542969 15.449219 8.558594 C 15.417969 8.570312 15.410156 8.578125 15.410156 8.585938 L 15.113281 9.351562 C 15.113281 9.351562 15.109375 9.359375 15.160156 9.355469 C 15.195312 9.355469 15.21875 9.351562 15.230469 9.351562 C 15.265625 9.339844 15.296875 9.328125 15.332031 9.308594 C 15.367188 9.285156 15.386719 9.269531 15.390625 9.253906 L 15.375 9.21875 L 15.664062 9.148438 L 15.632812 9.234375 C 15.617188 9.273438 15.539062 9.324219 15.433594 9.371094 C 15.339844 9.414062 15.253906 9.445312 15.179688 9.464844 M 23.140625 7.472656 L 22.703125 7.578125 L 23.109375 6.542969 L 23.546875 6.433594 C 23.621094 6.417969 23.691406 6.414062 23.757812 6.425781 C 23.820312 6.433594 23.863281 6.449219 23.851562 6.480469 L 23.550781 7.246094 C 23.539062 7.277344 23.472656 7.320312 23.386719 7.371094 C 23.296875 7.417969 23.210938 7.453125 23.140625 7.472656 M 23.542969 6.550781 L 23.511719 6.546875 L 23.335938 6.589844 L 23.019531 7.398438 L 23.15625 7.363281 C 23.160156 7.359375 23.183594 7.355469 23.226562 7.335938 L 23.273438 7.308594 L 23.574219 6.5625 C 23.5625 6.558594 23.554688 6.554688 23.542969 6.550781 M 17.933594 7.867188 L 18.148438 7.816406 L 18.167969 8.371094 L 18.601562 7.714844 L 18.894531 7.636719 L 18.046875 8.773438 Z M 17.933594 7.867188 "/>
<path style=" stroke:none;fill-rule:nonzero;fill:rgb(100%,100%,100%);fill-opacity:1;" d="M 12.34375 10.769531 L 12.761719 11.023438 C 12.546875 11.636719 11.605469 12.945312 11.070312 13.339844 L 12.011719 10.839844 L 11.289062 11.03125 L 10.105469 14.039062 L 11.621094 13.652344 C 11.652344 13.644531 12.980469 12.589844 13.742188 10.410156 L 12.34375 10.769531 "/>
<path style=" stroke:none;fill-rule:nonzero;fill:rgb(100%,100%,100%);fill-opacity:1;" d="M 9.347656 12.921875 L 8.753906 13.089844 C 8.753906 13.089844 9.25 12.121094 9.757812 11.96875 L 9.347656 12.921875 M 7.945312 13.410156 C 7.9375 13.410156 7.394531 14.53125 7.285156 14.761719 L 8.035156 14.566406 L 8.539062 13.515625 L 9.144531 13.335938 L 8.726562 14.390625 L 9.523438 14.1875 L 10.75 11.148438 C 10.339844 11.285156 8.882812 11.3125 7.945312 13.410156 "/>
<path style=" stroke:none;fill-rule:nonzero;fill:rgb(100%,100%,100%);fill-opacity:1;" d="M 22.523438 9.34375 L 22.871094 8.378906 L 23.410156 8.234375 C 23.335938 8.441406 23.1875 9 22.523438 9.34375 M 23.101562 9.628906 C 23.058594 9.570312 23.027344 9.449219 23.027344 9.445312 C 23.050781 9.433594 23.078125 9.421875 23.101562 9.40625 C 23.589844 9.128906 24.125 8.300781 24.105469 7.734375 C 23.417969 7.917969 22.269531 8.214844 22.265625 8.226562 L 21.167969 11.238281 L 21.878906 11.054688 L 22.351562 9.757812 C 22.40625 9.878906 22.71875 10.625 23.332031 10.6875 C 24.039062 10.757812 24.453125 10.058594 24.453125 10.058594 C 24.265625 10.21875 23.421875 10.28125 23.101562 9.628906 "/>
<path style=" stroke:none;fill-rule:nonzero;fill:rgb(100%,100%,100%);fill-opacity:1;" d="M 14.757812 11.550781 L 14.164062 11.71875 C 14.164062 11.71875 14.660156 10.75 15.167969 10.597656 L 14.757812 11.550781 M 13.355469 12.039062 C 13.347656 12.039062 12.8125 13.140625 12.703125 13.371094 L 13.457031 13.175781 L 13.949219 12.144531 L 14.554688 11.964844 L 14.140625 13.007812 L 14.929688 12.804688 L 16.160156 9.78125 C 15.796875 9.886719 14.292969 9.941406 13.355469 12.039062 "/>
<path style=" stroke:none;fill-rule:nonzero;fill:rgb(100%,100%,100%);fill-opacity:1;" d="M 18.890625 9.058594 L 17.710938 12.085938 L 18.460938 11.894531 L 19.636719 8.871094 Z M 18.890625 9.058594 "/>
<path style=" stroke:none;fill-rule:nonzero;fill:rgb(100%,100%,100%);fill-opacity:1;" d="M 19.695312 11.226562 L 20.070312 10.34375 L 21.101562 9.785156 L 20.273438 9.84375 L 20.636719 8.882812 C 21.089844 8.742188 21.316406 8.878906 21.507812 9.164062 L 21.851562 8.316406 L 20.03125 8.78125 L 18.867188 11.800781 L 20.71875 11.320312 L 21.113281 10.382812 C 20.703125 10.835938 20.246094 11.132812 19.695312 11.226562 "/>
<path style=" stroke:none;fill-rule:nonzero;fill:rgb(100%,100%,100%);fill-opacity:1;" d="M 16.367188 12.074219 L 17.351562 9.453125 L 16.5625 9.652344 L 15.398438 12.6875 L 17.398438 12.171875 L 17.839844 11.097656 C 17.308594 11.722656 17.027344 11.96875 16.367188 12.074219 "/>
<g clip-path="url(#clip13)" clip-rule="nonzero">
<g clip-path="url(#clip14)" clip-rule="nonzero">
<path style=" stroke:none;fill-rule:nonzero;fill:rgb(100%,100%,100%);fill-opacity:1;" d="M 26.542969 7.265625 L 26.246094 8.023438 C 26.003906 7.636719 25.210938 7.542969 25.109375 8.011719 C 25.03125 8.367188 25.589844 8.496094 25.914062 9.109375 C 26.359375 9.949219 25.894531 10.796875 25.089844 11.210938 C 24.777344 11.375 24.453125 11.507812 24.125 11.625 C 23.855469 11.695312 23.574219 11.773438 23.226562 11.871094 C 22.90625 11.960938 22.808594 12.015625 21.585938 12.210938 C 19.503906 12.523438 17.3125 12.625 15.480469 13.484375 C 16.273438 12.667969 18.378906 12.199219 20.695312 11.84375 C 23.25 11.460938 25.984375 10.828125 25.015625 9.371094 C 24.832031 9.199219 24.734375 9.152344 24.585938 8.957031 C 23.957031 8.109375 25.039062 7.136719 26.25 7.21875 C 26.332031 7.222656 26.554688 7.257812 26.542969 7.265625 "/>
</g>
</g>
<g clip-path="url(#clip15)" clip-rule="nonzero">
<g clip-path="url(#clip16)" clip-rule="nonzero">
<path style=" stroke:none;fill-rule:nonzero;fill:rgb(100%,100%,100%);fill-opacity:1;" d="M 14.351562 9.023438 C 14.34375 8.984375 12.035156 10.351562 11.796875 10.527344 C 13.273438 7.644531 9.339844 9.394531 7.835938 10.960938 C 3.453125 15.539062 6.335938 16.304688 9.527344 14.542969 C 9.59375 14.511719 9.078125 14.992188 9.078125 14.992188 C 5.53125 18.476562 1.65625 15.851562 6.386719 10.84375 C 5.847656 10.996094 4.742188 11.25 4.738281 11.21875 C 8.589844 8.109375 12.816406 7.519531 14.351562 9.023438 "/>
</g>
</g>
</g>
</svg>
