<?xml version="1.0" encoding="UTF-8"?>
<svg xmlns="http://www.w3.org/2000/svg" xmlns:xlink="http://www.w3.org/1999/xlink" width="28pt" height="20pt" viewBox="0 0 28 20" version="1.1">
<g id="surface1">
<path style=" stroke:none;fill-rule:nonzero;fill:rgb(0%,0%,0%);fill-opacity:1;" d="M 5.53125 1.503906 C 5.53125 1.503906 5.984375 6.996094 8.007812 11.207031 C 8.007812 11.207031 6.519531 10.792969 4.703125 9.761719 L 8.089844 18.429688 C 8.089844 18.429688 9.824219 17.359375 11.390625 17.234375 C 11.390625 17.234375 13.085938 19.464844 13.910156 20 C 14.734375 19.464844 16.304688 17.191406 16.304688 17.191406 C 17.875 17.316406 19.484375 18.347656 19.484375 18.347656 L 22.992188 9.761719 C 21.175781 10.792969 19.980469 11.207031 19.980469 11.207031 C 21.796875 6.996094 22.414062 1.464844 22.414062 1.464844 L 18.78125 2.535156 L 9.039062 2.535156 Z M 5.53125 1.503906 "/>
<path style=" stroke:none;fill-rule:nonzero;fill:rgb(100%,100%,100%);fill-opacity:1;" d="M 9.039062 2.789062 L 18.820312 2.789062 C 18.820312 2.789062 21.511719 1.996094 22.113281 1.816406 C 21.9375 3.132812 21.253906 7.609375 19.746094 11.105469 L 19.441406 11.824219 C 19.441406 11.824219 22.566406 10.785156 24.019531 10.007812 C 23.574219 11.101562 20.832031 17.507812 20.640625 17.976562 C 20.101562 17.8125 17.578125 17.039062 16.324219 16.9375 L 16.179688 16.929688 L 16.097656 17.046875 C 15.695312 17.628906 14.578125 19.144531 13.910156 19.6875 C 13.085938 19.042969 11.609375 17.101562 11.59375 17.082031 L 11.511719 16.96875 L 11.371094 16.980469 C 10.195312 16.984375 7.261719 17.769531 6.933594 18.140625 C 6.582031 17.246094 4.238281 10.75 3.980469 10.089844 C 5.507812 10.882812 8.464844 11.722656 8.464844 11.722656 L 8.207031 11.09375 C 6.527344 7.597656 5.964844 3.152344 5.820312 1.855469 C 6.402344 2.027344 9.003906 2.789062 9.003906 2.789062 Z M 9.039062 2.789062 "/>
<path style=" stroke:none;fill-rule:nonzero;fill:rgb(76.862745%,80.784314%,83.137255%);fill-opacity:1;" d="M 6.148438 2.289062 L 8.625 3.03125 L 19.195312 3.03125 L 21.628906 2.246094 C 21.628906 2.246094 21.425781 6.003906 19.402344 10.957031 C 17.378906 15.914062 13.867188 19.175781 13.867188 19.175781 C 13.867188 19.175781 9.78125 14.714844 8.171875 10.214844 C 6.5625 5.714844 6.148438 2.289062 6.148438 2.289062 Z M 6.148438 2.289062 "/>
<path style=" stroke:none;fill-rule:nonzero;fill:rgb(6.27451%,38.039216%,67.45098%);fill-opacity:1;" d="M 4.578125 10.667969 C 4.578125 10.667969 8.007812 12.195312 11.308594 12.570312 C 14.613281 12.941406 16.71875 12.609375 16.71875 12.609375 C 16.71875 12.609375 20.0625 12.15625 23.199219 10.667969 L 20.269531 17.523438 C 20.269531 17.523438 18.121094 16.863281 16.511719 16.695312 C 14.902344 16.53125 12.339844 16.53125 11.101562 16.695312 C 9.863281 16.863281 7.179688 17.605469 7.179688 17.605469 Z M 4.578125 10.667969 "/>
<path style=" stroke:none;fill-rule:nonzero;fill:rgb(100%,100%,100%);fill-opacity:1;" d="M 19.925781 5.941406 C 19.925781 2.753906 17.242188 0.167969 13.933594 0.167969 C 10.625 0.167969 7.941406 2.753906 7.941406 5.941406 C 7.941406 9.128906 10.625 11.714844 13.933594 11.714844 C 17.242188 11.714844 19.925781 9.128906 19.925781 5.941406 Z M 19.925781 5.941406 "/>
<path style=" stroke:none;fill-rule:nonzero;fill:rgb(0%,0%,0%);fill-opacity:1;" d="M 7.769531 5.941406 C 7.769531 9.21875 10.535156 11.882812 13.933594 11.882812 C 17.328125 11.882812 20.09375 9.21875 20.09375 5.941406 C 20.09375 2.664062 17.328125 0 13.933594 0 C 10.535156 0 7.769531 2.664062 7.769531 5.941406 Z M 8.109375 5.941406 C 8.109375 2.851562 10.722656 0.339844 13.933594 0.339844 C 17.144531 0.339844 19.753906 2.851562 19.753906 5.941406 C 19.753906 9.03125 17.144531 11.542969 13.933594 11.542969 C 10.722656 11.542969 8.109375 9.03125 8.109375 5.941406 Z M 8.109375 5.941406 "/>
<path style=" stroke:none;fill-rule:nonzero;fill:rgb(6.27451%,38.039216%,67.45098%);fill-opacity:1;" d="M 19.535156 7.585938 C 19.535156 10.601562 17.09375 13.042969 14.082031 13.042969 C 11.066406 13.042969 8.625 10.601562 8.625 7.585938 C 8.625 4.574219 11.066406 2.132812 14.082031 2.132812 C 17.09375 2.132812 19.535156 4.574219 19.535156 7.585938 Z M 19.535156 7.585938 "/>
<path style=" stroke:none;fill-rule:nonzero;fill:rgb(0%,0%,0%);fill-opacity:1;" d="M 19.738281 7.585938 C 19.738281 10.710938 17.207031 13.246094 14.082031 13.246094 C 12.519531 13.246094 11.105469 12.613281 10.078125 11.589844 C 9.054688 10.5625 8.421875 9.148438 8.421875 7.585938 C 8.421875 6.023438 9.054688 4.609375 10.078125 3.585938 C 11.105469 2.5625 12.519531 1.929688 14.082031 1.929688 C 15.644531 1.929688 17.058594 2.5625 18.082031 3.585938 C 19.105469 4.609375 19.738281 6.023438 19.738281 7.585938 Z M 19.332031 7.585938 C 19.332031 6.136719 18.746094 4.824219 17.792969 3.875 C 16.84375 2.921875 15.53125 2.335938 14.082031 2.335938 C 12.628906 2.335938 11.316406 2.921875 10.367188 3.875 C 9.417969 4.824219 8.828125 6.136719 8.828125 7.585938 C 8.828125 9.039062 9.417969 10.351562 10.367188 11.300781 C 11.316406 12.25 12.628906 12.839844 14.082031 12.839844 C 16.980469 12.839844 19.332031 10.488281 19.332031 7.585938 Z M 19.332031 7.585938 "/>
<path style=" stroke:none;fill-rule:nonzero;fill:rgb(0%,0%,0%);fill-opacity:1;" d="M 13.609375 1.625 C 13.609375 1.625 13.359375 1.878906 13.359375 2.050781 C 13.359375 2.050781 14.425781 2.613281 14.65625 3.019531 C 14.65625 3.019531 15.085938 2.886719 15.375 2.90625 C 15.664062 2.925781 16.128906 3.117188 16.128906 3.117188 C 16.128906 3.117188 15.664062 3.371094 15.570312 3.46875 C 15.472656 3.5625 15.238281 3.894531 15.238281 3.894531 C 15.238281 3.894531 15.976562 4.398438 16.847656 4.476562 C 17.71875 4.550781 18.203125 4.28125 18.203125 4.28125 L 18.378906 4.359375 L 18.320312 4.476562 C 18.320312 4.476562 17.992188 4.609375 17.699219 4.667969 C 17.410156 4.726562 17.101562 4.785156 16.847656 4.785156 C 16.597656 4.785156 15.898438 4.648438 15.683594 4.570312 L 15.742188 4.863281 C 15.742188 4.863281 15.472656 4.570312 15.160156 4.570312 L 15.160156 4.707031 C 15.160156 4.707031 15.917969 5.019531 16.597656 5.542969 C 17.273438 6.0625 17.875 6.78125 17.875 6.78125 C 17.875 6.78125 18.316406 7.207031 18.613281 8.101562 C 18.785156 8.625 18.804688 9.28125 18.804688 9.28125 L 18.980469 9.378906 L 18.613281 10.171875 L 18.554688 9.882812 C 18.554688 9.882812 18.535156 9.164062 18.320312 8.507812 C 18.109375 7.847656 17.71875 7.421875 17.371094 6.996094 C 17.023438 6.566406 15.9375 5.851562 15.703125 5.734375 C 15.703125 5.734375 16.074219 6.453125 16.089844 6.703125 C 16.089844 6.703125 15.78125 6.394531 15.492188 6.335938 C 15.492188 6.335938 15.761719 6.550781 16.34375 7.519531 C 16.925781 8.488281 16.867188 9.785156 16.867188 9.785156 C 16.867188 9.785156 16.808594 10.792969 16.710938 11.21875 C 16.613281 11.648438 16.5 11.742188 16.5 11.742188 L 16.402344 11.257812 C 16.402344 11.257812 16.613281 10.484375 16.5 9.554688 C 16.382812 8.621094 16.167969 7.632812 15.472656 7.015625 C 15.472656 7.015625 15.625 7.578125 15.585938 7.964844 C 15.546875 8.351562 15.277344 8.855469 15.277344 8.855469 C 15.277344 8.855469 15.179688 7.945312 14.910156 7.925781 C 14.910156 7.925781 14.910156 8.175781 14.890625 8.351562 C 14.871094 8.527344 14.695312 8.855469 14.8125 9.125 C 14.929688 9.398438 15.101562 10.117188 15.121094 10.191406 C 15.140625 10.269531 15.179688 10.484375 15.179688 10.484375 C 15.179688 10.484375 15.21875 10.5625 15.101562 10.65625 C 14.988281 10.753906 14.578125 11.105469 14.578125 11.105469 C 14.578125 11.105469 14.269531 11.277344 14.464844 11.335938 C 14.65625 11.394531 15.761719 11.394531 15.761719 11.394531 C 15.761719 11.394531 17.003906 11.296875 17.757812 10.695312 C 18.515625 10.097656 19.117188 9.203125 19.117188 9.203125 L 18.863281 10.308594 C 18.863281 10.308594 18.476562 11.433594 17.429688 12.09375 C 16.382812 12.75 14.40625 13.914062 11.632812 12.710938 C 8.863281 11.511719 8.339844 8.894531 8.339844 8.894531 C 8.339844 8.894531 8.105469 8.097656 8.144531 7.75 C 8.183594 7.402344 7.988281 6.976562 8.359375 6.976562 C 8.359375 6.976562 8.359375 6.394531 8.550781 6.199219 L 8.648438 5.792969 C 8.648438 5.792969 8.785156 4.804688 9.460938 4.242188 C 9.460938 4.242188 9.832031 3.796875 9.910156 3.738281 C 9.984375 3.679688 10.023438 3.464844 10.023438 3.464844 L 10.488281 3.019531 L 10.742188 2.980469 C 10.742188 2.980469 11.421875 2.535156 11.554688 2.515625 C 11.691406 2.496094 12.097656 1.585938 13.609375 1.625 Z M 13.609375 1.625 "/>
<path style=" stroke:none;fill-rule:nonzero;fill:rgb(100%,100%,100%);fill-opacity:1;" d="M 14.113281 11.761719 C 13.378906 11.648438 13.242188 11.570312 12.777344 11.257812 C 12.3125 10.949219 12.117188 10.5625 12.117188 10.5625 C 12.503906 10.753906 12.972656 10.640625 13.046875 10.621094 C 13.125 10.601562 13.589844 10.328125 13.707031 10.210938 C 13.824219 10.097656 13.804688 10 13.785156 9.882812 C 13.765625 9.765625 13.726562 9.359375 13.726562 9.144531 C 13.726562 8.933594 13.648438 8.640625 13.648438 8.640625 L 13.476562 9.03125 C 13.476562 9.03125 13.476562 9.03125 13.417969 8.894531 C 13.359375 8.757812 13.320312 8.546875 13.300781 8.390625 C 13.28125 8.234375 13.183594 7.90625 13.144531 7.710938 C 13.105469 7.519531 13.027344 7.035156 13.027344 7.035156 C 13.027344 7.035156 12.777344 6.082031 12.757812 6.027344 C 12.738281 5.96875 12.796875 5.851562 12.796875 5.851562 C 12.796875 5.851562 12.894531 6.121094 13.125 6.277344 C 13.359375 6.433594 13.609375 6.453125 13.609375 6.453125 C 13.609375 6.453125 13.011719 5.851562 12.816406 5.523438 C 12.621094 5.191406 12.503906 4.589844 12.449219 4.378906 C 12.390625 4.164062 12.488281 4.085938 12.488281 4.085938 L 12.601562 4.300781 L 12.933594 4.359375 C 12.542969 3.078125 12.71875 2.652344 12.757812 2.496094 C 12.796875 2.34375 13.183594 1.859375 13.183594 1.859375 L 13.007812 1.878906 C 12.640625 1.953125 12.15625 2.34375 12.15625 2.34375 C 12.15625 2.34375 11.710938 2.652344 11.691406 3.019531 C 11.671875 3.390625 11.363281 3.601562 11.207031 3.796875 C 11.050781 3.988281 10.78125 4.511719 10.625 4.902344 C 10.46875 5.289062 10.453125 5.96875 10.566406 6.375 C 10.683594 6.78125 10.992188 7.1875 11.128906 7.324219 C 11.265625 7.460938 11.1875 7.480469 11.011719 7.421875 C 10.839844 7.363281 10.527344 7.207031 10.375 7.035156 C 10.21875 6.859375 10.21875 6.976562 10.21875 7.074219 C 10.21875 7.167969 10.566406 7.90625 10.644531 8.042969 C 10.722656 8.175781 10.585938 8.117188 10.453125 8.003906 C 10.316406 7.886719 10.042969 7.558594 10.042969 7.558594 C 10.042969 7.558594 10.101562 7.75 10.257812 8.101562 C 10.414062 8.449219 11.167969 9.457031 11.167969 9.457031 C 11.167969 9.457031 11.886719 9.902344 11.148438 9.707031 C 10.414062 9.515625 10.023438 9.242188 10.023438 9.242188 L 10.277344 9.707031 C 10.277344 9.707031 11.382812 11.21875 12.390625 11.667969 C 13.398438 12.113281 14.367188 12.074219 14.792969 12.074219 C 15.21875 12.074219 16.035156 11.859375 16.035156 11.859375 C 16.035156 11.859375 14.851562 11.878906 14.113281 11.761719 Z M 12.855469 9.398438 C 13.03125 9.050781 13.242188 9.300781 13.28125 9.59375 C 13.320312 9.894531 13.339844 10.136719 13.339844 10.136719 C 12.972656 9.164062 13.011719 9.960938 13.011719 9.960938 C 12.542969 9.882812 12.855469 9.398438 12.855469 9.398438 Z M 12.195312 2.632812 C 12.214844 2.554688 12.46875 2.285156 12.46875 2.285156 C 12.46875 2.285156 12.875 2.011719 12.816406 2.089844 C 12.757812 2.167969 12.429688 2.867188 12.429688 2.867188 L 12.332031 2.867188 L 12.019531 3.15625 C 12.019531 3.15625 12.175781 2.710938 12.195312 2.632812 Z M 11.984375 4.339844 C 12.019531 4.222656 12.136719 4.125 12.136719 4.125 C 12.136719 4.125 12.097656 4.417969 12.175781 4.765625 C 12.253906 5.113281 12.523438 5.523438 12.523438 5.523438 C 12.523438 5.523438 12.371094 5.558594 12.195312 5.445312 C 12.019531 5.328125 11.886719 5.132812 11.886719 4.960938 C 11.886719 4.785156 11.945312 4.457031 11.984375 4.339844 Z M 11.421875 4.863281 C 11.441406 4.609375 11.632812 4.339844 11.632812 4.339844 C 11.632812 4.339844 11.480469 4.726562 11.574219 5.054688 C 11.671875 5.386719 11.945312 5.8125 12 5.832031 C 12.058594 5.851562 12.136719 5.8125 12.136719 5.8125 L 12.351562 5.988281 L 12.527344 6.625 C 12.527344 6.625 12.097656 6.394531 11.789062 6.007812 C 11.476562 5.617188 11.402344 5.113281 11.421875 4.863281 Z M 11.460938 8.699219 C 11.226562 8.3125 10.917969 7.75 10.917969 7.75 L 11.515625 7.886719 C 11.515625 7.886719 12.253906 9.554688 12.3125 9.59375 C 12.371094 9.632812 12.332031 9.765625 12.332031 9.765625 L 12.214844 9.6875 C 12.214844 9.6875 11.691406 9.089844 11.460938 8.699219 Z M 11.460938 8.699219 "/>
<path style=" stroke:none;fill-rule:nonzero;fill:rgb(76.862745%,80.784314%,83.137255%);fill-opacity:1;" d="M 10.488281 3.5625 C 10.488281 3.5625 10.316406 3.855469 10.414062 3.972656 C 10.414062 3.972656 10.992188 3.273438 11.34375 3.15625 C 11.34375 3.15625 10.585938 3.914062 10.296875 4.6875 C 10.003906 5.464844 9.929688 6.472656 9.984375 7.109375 C 9.984375 7.109375 9.578125 6.046875 9.8125 5.269531 C 9.8125 5.269531 9.308594 5.734375 9.460938 6.917969 C 9.617188 8.101562 10.527344 9.164062 10.527344 9.164062 C 10.527344 9.164062 10.003906 8.894531 9.773438 8.660156 C 9.539062 8.429688 9.347656 8.023438 9.347656 8.023438 C 9.347656 8.023438 9.40625 9.4375 10.488281 10.734375 C 11.574219 12.035156 12.875 12.402344 13.785156 12.539062 C 14.695312 12.675781 16.246094 12.460938 17.625 11.550781 C 17.625 11.550781 16.207031 12.769531 14.328125 12.808594 C 12.449219 12.847656 10.878906 11.878906 10.179688 11.085938 C 9.480469 10.289062 8.492188 8.660156 8.6875 7.34375 C 8.6875 7.34375 8.765625 8.371094 9.191406 8.835938 C 9.191406 8.835938 8.785156 7.109375 8.824219 6.414062 C 8.863281 5.714844 9.210938 5 9.421875 4.84375 C 9.421875 4.84375 9.09375 5.558594 9.230469 5.890625 C 9.230469 5.890625 9.558594 4.882812 9.8125 4.667969 C 10.0625 4.457031 10.042969 4.300781 10.082031 4.183594 C 10.121094 4.066406 10.199219 3.777344 10.488281 3.5625 Z M 10.488281 3.5625 "/>
<path style=" stroke:none;fill-rule:nonzero;fill:rgb(76.862745%,80.784314%,83.137255%);fill-opacity:1;" d="M 12.640625 8.757812 L 12.601562 7.828125 C 12.601562 7.828125 12.621094 7.558594 12.5625 7.363281 C 12.507812 7.167969 12.5625 6.800781 12.5625 6.800781 L 12.679688 7.089844 C 12.679688 7.089844 12.71875 7.265625 12.71875 7.34375 C 12.71875 7.421875 12.757812 7.652344 12.855469 7.847656 C 12.953125 8.042969 13.125 8.855469 13.125 8.855469 C 13.125 8.855469 12.875 8.640625 12.640625 8.757812 Z M 12.640625 8.757812 "/>
<path style=" stroke:none;fill-rule:nonzero;fill:rgb(76.862745%,80.784314%,83.137255%);fill-opacity:1;" d="M 12.738281 9.613281 C 12.738281 9.613281 12.777344 9.222656 12.835938 9.164062 C 12.894531 9.109375 13.125 8.914062 13.261719 9.183594 C 13.398438 9.457031 13.4375 9.726562 13.359375 10.058594 C 13.359375 10.058594 13.28125 8.71875 12.738281 9.613281 Z M 12.738281 9.613281 "/>
<path style=" stroke:none;fill-rule:nonzero;fill:rgb(76.862745%,80.784314%,83.137255%);fill-opacity:1;" d="M 14.734375 3.195312 L 14.949219 3.523438 C 14.949219 3.523438 14.96875 3.3125 15.238281 3.195312 C 15.511719 3.078125 15.859375 3.097656 15.859375 3.097656 C 15.859375 3.097656 15.472656 2.980469 15.238281 3.019531 C 15.007812 3.058594 14.734375 3.195312 14.734375 3.195312 Z M 14.734375 3.195312 "/>
<path style=" stroke:none;fill-rule:nonzero;fill:rgb(76.862745%,80.784314%,83.137255%);fill-opacity:1;" d="M 14.308594 4.4375 C 14.308594 4.4375 14.597656 3.992188 14.597656 3.855469 L 14.695312 3.5625 L 14.734375 3.835938 C 14.792969 4.144531 14.773438 4.824219 14.773438 4.824219 C 14.773438 4.824219 14.753906 5.464844 14.636719 5.792969 C 14.523438 6.121094 14.328125 6.355469 14.328125 6.355469 C 14.328125 6.355469 14.464844 6.082031 14.558594 5.25 C 14.65625 4.417969 14.597656 4.417969 14.597656 4.417969 C 14.597656 4.417969 14.40625 4.921875 14.25 5.074219 C 14.25 5.074219 14.191406 4.707031 14.074219 4.457031 C 13.960938 4.203125 13.6875 4.011719 13.6875 4.011719 C 13.6875 4.011719 13.84375 4.457031 13.960938 4.941406 C 14.074219 5.425781 14.039062 6.296875 14.039062 6.296875 C 14.039062 6.296875 13.84375 5.523438 13.589844 4.609375 C 13.339844 3.699219 12.992188 3.097656 12.992188 3.097656 C 12.992188 3.097656 13.609375 3.523438 13.804688 3.738281 C 14 3.953125 14.308594 4.4375 14.308594 4.4375 Z M 14.308594 4.4375 "/>
<path style=" stroke:none;fill-rule:nonzero;fill:rgb(76.862745%,80.784314%,83.137255%);fill-opacity:1;" d="M 12.507812 4.144531 C 12.507812 4.144531 12.953125 4.863281 12.777344 3.332031 C 12.777344 3.332031 13.164062 4.726562 13.183594 4.765625 C 13.203125 4.804688 13.261719 5.035156 13.105469 4.902344 C 12.953125 4.765625 12.507812 4.144531 12.507812 4.144531 Z M 12.507812 4.144531 "/>
<path style=" stroke:none;fill-rule:nonzero;fill:rgb(76.862745%,80.784314%,83.137255%);fill-opacity:1;" d="M 15.066406 5.308594 C 15.066406 5.308594 15.027344 5 15.082031 5.132812 C 15.140625 5.269531 15.199219 5.734375 15.140625 6.007812 C 15.082031 6.277344 14.675781 6.644531 14.675781 6.644531 C 14.675781 6.644531 14.65625 6.664062 14.734375 6.492188 C 14.8125 6.316406 14.871094 6.179688 14.929688 5.929688 C 14.988281 5.675781 15.066406 5.308594 15.066406 5.308594 Z M 15.066406 5.308594 "/>
<path style=" stroke:none;fill-rule:nonzero;fill:rgb(76.862745%,80.784314%,83.137255%);fill-opacity:1;" d="M 14.074219 11.179688 L 14.910156 10.542969 C 14.910156 10.542969 14.949219 10.464844 14.929688 10.347656 C 14.910156 10.230469 14.542969 8.972656 14.542969 8.972656 C 14.542969 8.972656 14.464844 8.835938 14.523438 8.777344 C 14.578125 8.71875 14.597656 8.507812 14.578125 8.410156 C 14.5625 8.3125 14.597656 8.097656 14.636719 8.042969 C 14.675781 7.984375 14.734375 7.730469 14.734375 7.539062 C 14.734375 7.34375 14.695312 7.015625 14.695312 7.015625 C 14.695312 7.015625 14.578125 7.460938 14.558594 7.632812 C 14.542969 7.808594 14.445312 7.925781 14.464844 8.214844 C 14.484375 8.507812 14.367188 8.640625 14.367188 8.640625 C 14.367188 8.640625 14.269531 8.816406 14.347656 8.953125 C 14.425781 9.089844 14.714844 10.25 14.714844 10.25 C 14.714844 10.25 14.792969 10.386719 14.675781 10.503906 C 14.558594 10.621094 14.074219 11.179688 14.074219 11.179688 Z M 14.074219 11.179688 "/>
<path style=" stroke:none;fill-rule:nonzero;fill:rgb(0%,0%,0%);fill-opacity:1;" d="M 10.273438 2.195312 L 10.503906 2.003906 C 10.550781 1.96875 10.589844 1.941406 10.625 1.925781 C 10.660156 1.914062 10.691406 1.90625 10.722656 1.90625 C 10.753906 1.90625 10.785156 1.914062 10.808594 1.925781 C 10.832031 1.941406 10.855469 1.960938 10.875 1.980469 C 10.902344 2.019531 10.921875 2.050781 10.925781 2.082031 C 10.929688 2.109375 10.925781 2.140625 10.914062 2.171875 C 10.902344 2.203125 10.886719 2.230469 10.867188 2.257812 C 10.835938 2.292969 10.808594 2.320312 10.78125 2.34375 L 10.546875 2.53125 Z M 10.492188 2.144531 L 10.640625 2.328125 L 10.679688 2.296875 C 10.710938 2.269531 10.734375 2.25 10.742188 2.234375 C 10.753906 2.21875 10.757812 2.199219 10.753906 2.179688 C 10.753906 2.164062 10.742188 2.140625 10.71875 2.113281 C 10.691406 2.078125 10.660156 2.058594 10.632812 2.0625 C 10.605469 2.0625 10.570312 2.078125 10.53125 2.113281 Z M 10.492188 2.144531 "/>
<path style=" stroke:none;fill-rule:nonzero;fill:rgb(0%,0%,0%);fill-opacity:1;" d="M 12.054688 1.519531 L 11.84375 1.605469 L 11.84375 1.6875 L 11.652344 1.765625 L 11.710938 1.269531 L 11.917969 1.183594 L 12.308594 1.492188 L 12.113281 1.574219 Z M 11.980469 1.449219 L 11.855469 1.332031 L 11.847656 1.503906 Z M 11.980469 1.449219 "/>
<path style=" stroke:none;fill-rule:nonzero;fill:rgb(0%,0%,0%);fill-opacity:1;" d="M 13.046875 0.871094 L 13.25 0.847656 L 13.289062 1.175781 L 13.601562 1.140625 L 13.613281 1.246094 L 13.097656 1.304688 Z M 13.046875 0.871094 "/>
<path style=" stroke:none;fill-rule:nonzero;fill:rgb(0%,0%,0%);fill-opacity:1;" d="M 14.519531 0.832031 L 14.71875 0.859375 L 14.671875 1.183594 L 14.984375 1.230469 L 14.96875 1.335938 L 14.457031 1.261719 Z M 14.519531 0.832031 "/>
<path style=" stroke:none;fill-rule:nonzero;fill:rgb(0%,0%,0%);fill-opacity:1;" d="M 16.171875 1.664062 L 15.964844 1.574219 L 15.90625 1.625 L 15.71875 1.539062 L 16.121094 1.242188 L 16.320312 1.332031 L 16.367188 1.832031 L 16.171875 1.746094 Z M 16.171875 1.5625 L 16.171875 1.390625 L 16.042969 1.503906 Z M 16.171875 1.5625 "/>
<path style=" stroke:none;fill-rule:nonzero;fill:rgb(0%,0%,0%);fill-opacity:1;" d="M 17.105469 2.144531 L 17.257812 2.265625 C 17.246094 2.285156 17.242188 2.300781 17.246094 2.316406 C 17.25 2.34375 17.265625 2.371094 17.292969 2.394531 C 17.316406 2.414062 17.335938 2.425781 17.351562 2.429688 C 17.371094 2.433594 17.382812 2.429688 17.390625 2.421875 C 17.398438 2.414062 17.398438 2.402344 17.394531 2.382812 C 17.390625 2.367188 17.367188 2.339844 17.332031 2.296875 C 17.277344 2.230469 17.238281 2.171875 17.226562 2.132812 C 17.210938 2.089844 17.214844 2.058594 17.238281 2.03125 C 17.253906 2.015625 17.273438 2.003906 17.300781 2.003906 C 17.328125 2 17.363281 2.007812 17.398438 2.027344 C 17.4375 2.042969 17.480469 2.074219 17.53125 2.117188 C 17.59375 2.175781 17.636719 2.222656 17.65625 2.269531 C 17.675781 2.3125 17.671875 2.355469 17.648438 2.394531 L 17.5 2.273438 C 17.511719 2.257812 17.511719 2.238281 17.503906 2.222656 C 17.5 2.203125 17.484375 2.1875 17.464844 2.167969 C 17.445312 2.152344 17.429688 2.140625 17.417969 2.140625 C 17.402344 2.136719 17.394531 2.140625 17.386719 2.144531 C 17.382812 2.152344 17.382812 2.160156 17.386719 2.167969 C 17.390625 2.179688 17.402344 2.199219 17.425781 2.226562 C 17.484375 2.292969 17.523438 2.34375 17.542969 2.378906 C 17.5625 2.414062 17.574219 2.445312 17.574219 2.472656 C 17.574219 2.496094 17.566406 2.519531 17.550781 2.539062 C 17.53125 2.558594 17.507812 2.570312 17.472656 2.574219 C 17.441406 2.574219 17.40625 2.566406 17.367188 2.550781 C 17.328125 2.53125 17.28125 2.5 17.234375 2.457031 C 17.152344 2.386719 17.101562 2.324219 17.089844 2.273438 C 17.078125 2.222656 17.082031 2.179688 17.105469 2.144531 Z M 17.105469 2.144531 "/>
<path style=" stroke:none;fill-rule:nonzero;fill:rgb(100%,100%,100%);fill-opacity:1;" d="M 5.640625 11.976562 L 7.5 16.972656 C 7.5 16.972656 8.222656 16.757812 8.246094 16.75 C 8.246094 16.75 8.941406 16.566406 8.96875 16.554688 C 8.972656 16.558594 8.976562 16.574219 8.976562 16.574219 L 9.867188 16.390625 L 9.820312 16.214844 C 9.792969 16.121094 9.175781 13.898438 9.003906 13.375 C 8.804688 12.785156 8.160156 12.511719 8.132812 12.5 L 8.125 12.496094 L 8.113281 12.492188 C 7.914062 12.433594 7.574219 12.332031 7.507812 12.304688 C 7.390625 12.257812 7.296875 12.273438 7.234375 12.308594 C 7.136719 12.246094 7.007812 12.171875 6.988281 12.160156 L 6.976562 12.152344 L 5.515625 11.640625 Z M 5.640625 11.976562 "/>
<path style=" stroke:none;fill-rule:nonzero;fill:rgb(100%,100%,100%);fill-opacity:1;" d="M 8.890625 12.910156 L 9.761719 16.394531 C 9.761719 16.394531 10.445312 16.285156 10.488281 16.277344 C 10.488281 16.28125 10.492188 16.296875 10.492188 16.296875 L 11.230469 16.164062 L 11.199219 15.996094 C 11.183594 15.917969 10.828125 14.089844 10.734375 13.648438 C 10.617188 13.109375 10.003906 12.910156 9.980469 12.902344 L 9.972656 12.898438 L 8.824219 12.644531 Z M 9.285156 13.09375 C 9.539062 13.148438 9.867188 13.222656 9.882812 13.226562 C 9.9375 13.246094 10.332031 13.398438 10.402344 13.71875 C 10.480469 14.078125 10.742188 15.417969 10.832031 15.890625 C 10.792969 15.898438 10.789062 15.898438 10.75 15.90625 C 10.699219 15.667969 10.492188 14.742188 10.492188 14.742188 L 9.820312 14.699219 C 9.820312 14.699219 10.089844 15.722656 10.160156 15.988281 C 10.09375 15.996094 10.078125 16 10.015625 16.011719 C 9.953125 15.757812 9.394531 13.519531 9.285156 13.09375 Z M 9.285156 13.09375 "/>
<path style=" stroke:none;fill-rule:nonzero;fill:rgb(100%,100%,100%);fill-opacity:1;" d="M 9.722656 13.144531 C 9.527344 13.207031 9.542969 13.453125 9.546875 13.535156 L 9.546875 13.550781 L 9.851562 14.800781 L 10.488281 14.800781 L 10.464844 14.609375 C 10.445312 14.457031 10.335938 13.6875 10.1875 13.457031 C 10.078125 13.28125 9.90625 13.085938 9.722656 13.144531 Z M 9.933594 13.703125 C 9.972656 13.8125 10.019531 14.007812 10.054688 14.207031 C 10 13.980469 9.972656 13.863281 9.933594 13.703125 Z M 9.933594 13.703125 "/>
<path style=" stroke:none;fill-rule:nonzero;fill:rgb(100%,100%,100%);fill-opacity:1;" d="M 10.582031 13.25 C 10.617188 13.375 11.015625 15.496094 11.058594 15.800781 C 11.082031 15.957031 11.140625 16.066406 11.238281 16.125 C 11.308594 16.164062 11.382812 16.167969 11.441406 16.15625 C 11.539062 16.15625 11.980469 16.148438 12.226562 16.074219 C 12.488281 15.992188 12.5625 15.707031 12.5625 15.464844 C 12.5625 15.367188 12.550781 15.277344 12.535156 15.210938 L 12.535156 15.214844 C 12.511719 15.09375 12.5 14.054688 12.5 13.351562 L 12.5 13.1875 C 12.5 13.1875 11.636719 13.160156 11.578125 13.160156 C 11.574219 13.15625 11.574219 13.144531 11.574219 13.144531 L 10.5 12.992188 Z M 11.394531 15.75 C 11.367188 15.570312 11.085938 14.027344 10.960938 13.398438 C 11.101562 13.417969 11.171875 13.429688 11.265625 13.445312 C 11.316406 13.894531 11.472656 15.351562 11.503906 15.570312 C 11.523438 15.6875 11.574219 15.765625 11.632812 15.8125 C 11.542969 15.816406 11.46875 15.820312 11.421875 15.820312 C 11.421875 15.820312 11.414062 15.820312 11.410156 15.820312 C 11.40625 15.804688 11.398438 15.785156 11.394531 15.75 Z M 11.761719 14.867188 C 11.777344 14.996094 11.792969 15.113281 11.800781 15.207031 C 11.789062 15.109375 11.777344 14.992188 11.761719 14.867188 Z M 12.148438 15.53125 C 12.152344 15.511719 12.152344 15.488281 12.152344 15.453125 C 12.152344 15.113281 11.996094 14.054688 11.910156 13.507812 C 12.023438 13.511719 12.0625 13.511719 12.164062 13.515625 C 12.164062 14.046875 12.167969 15.148438 12.207031 15.292969 C 12.21875 15.339844 12.222656 15.398438 12.222656 15.460938 C 12.222656 15.589844 12.195312 15.726562 12.125 15.75 C 12.101562 15.757812 12.066406 15.765625 12.035156 15.773438 C 12.089844 15.710938 12.132812 15.628906 12.148438 15.53125 Z M 12.148438 15.53125 "/>
<path style=" stroke:none;fill-rule:nonzero;fill:rgb(100%,100%,100%);fill-opacity:1;" d="M 12.433594 13.894531 L 12.433594 13.898438 L 12.496094 16.101562 L 12.660156 16.101562 C 12.679688 16.101562 13.15625 16.101562 13.429688 16.082031 C 13.792969 16.054688 13.996094 15.601562 14.019531 15.550781 L 14.03125 15.523438 L 14.0625 14.949219 C 14.0625 14.949219 14.03125 14.949219 14.011719 14.949219 C 14.011719 14.898438 14.011719 14.605469 14.011719 14.589844 C 14.023438 14.589844 14.046875 14.589844 14.046875 14.589844 L 14.074219 13.269531 L 13.910156 13.261719 C 13.90625 13.261719 13.453125 13.242188 13.027344 13.242188 C 12.59375 13.242188 12.433594 13.632812 12.433594 13.894531 Z M 13.027344 13.582031 C 13.050781 13.582031 13.070312 13.582031 13.089844 13.582031 C 13.070312 13.59375 13.046875 13.605469 13.027344 13.625 C 12.96875 13.671875 12.898438 13.761719 12.898438 13.914062 C 12.898438 13.914062 12.898438 14.652344 12.898438 14.65625 C 12.894531 14.65625 12.878906 14.65625 12.878906 14.65625 C 12.878906 14.65625 12.878906 15.734375 12.878906 15.757812 C 12.859375 15.761719 12.84375 15.761719 12.824219 15.761719 C 12.816406 15.480469 12.773438 13.902344 12.773438 13.894531 C 12.773438 13.839844 12.789062 13.582031 13.027344 13.582031 Z M 13.566406 13.703125 C 13.566406 13.703125 13.566406 13.625 13.566406 13.589844 C 13.628906 13.589844 13.683594 13.589844 13.730469 13.59375 C 13.726562 13.777344 13.71875 14.066406 13.714844 14.25 C 13.648438 14.25 13.632812 14.25 13.566406 14.25 C 13.566406 14.050781 13.566406 13.703125 13.566406 13.703125 Z M 13.300781 14.996094 C 13.292969 15.039062 13.25 15.425781 13.25 15.425781 C 13.246094 15.464844 13.234375 15.492188 13.21875 15.5 C 13.21875 15.347656 13.21875 15.160156 13.21875 14.996094 C 13.246094 14.996094 13.265625 14.996094 13.300781 14.996094 Z M 13.703125 15.285156 C 13.699219 15.363281 13.695312 15.417969 13.695312 15.441406 C 13.652344 15.535156 13.570312 15.652344 13.488281 15.707031 C 13.535156 15.652344 13.570312 15.574219 13.585938 15.464844 C 13.585938 15.464844 13.59375 15.375 13.605469 15.285156 C 13.652344 15.285156 13.65625 15.285156 13.703125 15.285156 Z M 13.703125 15.285156 "/>
<path style=" stroke:none;fill-rule:nonzero;fill:rgb(100%,100%,100%);fill-opacity:1;" d="M 15.175781 13.203125 L 13.988281 13.246094 L 13.902344 16.015625 C 13.902344 16.015625 14.5625 16.039062 14.609375 16.039062 L 14.605469 16.042969 C 14.605469 16.042969 14.640625 16.042969 14.671875 16.042969 C 14.671875 16.042969 14.679688 16.042969 14.679688 16.042969 C 14.734375 16.042969 15.355469 16.042969 15.355469 16.042969 L 15.382812 15.910156 C 15.390625 15.886719 15.503906 15.363281 15.503906 15.039062 C 15.503906 14.890625 15.476562 14.785156 15.441406 14.707031 C 15.554688 14.570312 15.609375 14.390625 15.617188 14.363281 L 15.617188 14.355469 L 15.621094 14.34375 C 15.621094 14.324219 15.664062 13.988281 15.664062 13.734375 C 15.664062 13.691406 15.664062 13.648438 15.660156 13.609375 C 15.632812 13.3125 15.34375 13.214844 15.191406 13.203125 Z M 15.175781 13.542969 C 15.203125 13.546875 15.316406 13.5625 15.324219 13.636719 C 15.324219 13.667969 15.324219 13.699219 15.324219 13.734375 C 15.324219 13.917969 15.300781 14.175781 15.285156 14.285156 C 15.257812 14.375 15.195312 14.507812 15.132812 14.535156 C 15.132812 14.535156 14.78125 14.691406 14.730469 14.710938 C 14.6875 14.703125 14.636719 14.695312 14.578125 14.695312 L 14.421875 14.695312 C 14.421875 14.695312 14.375 15.464844 14.363281 15.691406 C 14.308594 15.691406 14.304688 15.691406 14.25 15.691406 C 14.257812 15.417969 14.308594 13.828125 14.316406 13.574219 C 14.539062 13.566406 15.15625 13.542969 15.175781 13.542969 Z M 15.039062 15.054688 L 15.039062 15.039062 C 15.039062 14.964844 15.003906 14.855469 14.890625 14.777344 C 15.007812 14.8125 15.105469 14.839844 15.128906 14.847656 C 15.140625 14.863281 15.167969 14.917969 15.167969 15.039062 C 15.167969 15.234375 15.113281 15.53125 15.082031 15.703125 C 15.035156 15.703125 15.03125 15.703125 14.980469 15.703125 C 15 15.480469 15.039062 15.054688 15.039062 15.054688 Z M 15.039062 15.054688 "/>
<path style=" stroke:none;fill-rule:nonzero;fill:rgb(100%,100%,100%);fill-opacity:1;" d="M 14.582031 13.484375 L 14.472656 13.523438 L 14.421875 14.707031 L 14.582031 14.722656 C 14.730469 14.738281 14.933594 14.742188 15.039062 14.597656 C 15.074219 14.550781 15.085938 14.5 15.085938 14.453125 C 15.085938 14.4375 15.082031 14.425781 15.082031 14.414062 C 15.09375 14.320312 15.136719 14.003906 15.136719 13.777344 C 15.136719 13.625 15.054688 13.542969 15.007812 13.507812 C 14.851562 13.398438 14.625 13.46875 14.582031 13.484375 Z M 14.582031 13.484375 "/>
<path style=" stroke:none;fill-rule:nonzero;fill:rgb(100%,100%,100%);fill-opacity:1;" d="M 16.390625 13.144531 L 15.628906 13.191406 L 15.28125 16.085938 L 16.097656 16.125 L 16.605469 13.132812 Z M 16.199219 13.496094 C 16.144531 13.832031 15.855469 15.53125 15.8125 15.773438 C 15.75 15.769531 15.734375 15.769531 15.660156 15.765625 C 15.695312 15.472656 15.90625 13.746094 15.933594 13.511719 C 16.027344 13.507812 16.078125 13.503906 16.199219 13.496094 Z M 16.199219 13.496094 "/>
<path style=" stroke:none;fill-rule:nonzero;fill:rgb(100%,100%,100%);fill-opacity:1;" d="M 18.171875 12.835938 L 17.054688 13.054688 L 17.042969 13.058594 C 17.023438 13.066406 16.589844 13.230469 16.472656 13.679688 C 16.375 14.046875 16.074219 15.65625 16.0625 15.726562 C 16.027344 15.890625 16.082031 16.09375 16.277344 16.152344 C 16.425781 16.195312 16.835938 16.210938 16.917969 16.214844 L 16.933594 16.214844 C 16.953125 16.214844 17.457031 16.1875 17.628906 15.695312 C 17.765625 15.304688 17.859375 14.941406 17.863281 14.925781 L 17.914062 14.75 C 17.914062 14.75 17.046875 14.761719 17.03125 14.761719 C 17.046875 14.6875 17.023438 14.804688 17.039062 14.726562 C 17.097656 14.726562 17.925781 14.699219 17.925781 14.699219 L 18.441406 12.785156 Z M 17.167969 13.375 C 17.097656 13.445312 17.011719 13.5625 16.910156 13.757812 L 16.902344 13.777344 L 16.894531 13.800781 C 16.753906 14.457031 16.53125 15.460938 16.511719 15.53125 L 16.511719 15.527344 C 16.503906 15.554688 16.5 15.578125 16.5 15.609375 C 16.5 15.691406 16.539062 15.789062 16.601562 15.851562 C 16.601562 15.851562 16.605469 15.855469 16.609375 15.855469 C 16.519531 15.847656 16.4375 15.839844 16.394531 15.832031 C 16.390625 15.824219 16.390625 15.820312 16.390625 15.816406 C 16.390625 15.804688 16.390625 15.796875 16.394531 15.789062 C 16.398438 15.769531 16.703125 14.121094 16.796875 13.765625 C 16.863281 13.515625 17.101562 13.402344 17.148438 13.378906 C 17.148438 13.378906 17.167969 13.375 17.167969 13.375 Z M 17.96875 13.222656 C 17.886719 13.523438 17.75 14.019531 17.707031 14.175781 C 17.628906 14.179688 17.585938 14.179688 17.476562 14.183594 C 17.53125 13.964844 17.613281 13.636719 17.613281 13.636719 L 17.617188 13.628906 C 17.617188 13.609375 17.621094 13.59375 17.621094 13.574219 C 17.621094 13.472656 17.574219 13.367188 17.484375 13.316406 C 17.695312 13.273438 17.792969 13.257812 17.96875 13.222656 Z M 17.472656 15.070312 C 17.433594 15.207031 17.375 15.394531 17.308594 15.585938 C 17.234375 15.792969 17.054688 15.851562 16.964844 15.871094 C 17.089844 15.777344 17.160156 15.597656 17.183594 15.515625 L 17.1875 15.511719 C 17.1875 15.511719 17.257812 15.226562 17.292969 15.082031 C 17.355469 15.078125 17.382812 15.078125 17.472656 15.070312 Z M 17.472656 15.070312 "/>
<path style=" stroke:none;fill-rule:nonzero;fill:rgb(100%,100%,100%);fill-opacity:1;" d="M 19.898438 12.453125 C 19.898438 12.453125 19.25 12.652344 19.246094 12.652344 C 19.246094 12.652344 19.25 12.640625 19.25 12.640625 L 18.339844 12.839844 L 17.34375 16.261719 C 17.34375 16.261719 17.988281 16.351562 18.027344 16.355469 C 18.027344 16.359375 18.023438 16.367188 18.023438 16.367188 L 18.78125 16.511719 L 18.828125 16.375 C 18.84375 16.339844 19.140625 15.519531 19.238281 15.226562 C 19.265625 15.148438 19.273438 15.070312 19.273438 15 C 19.273438 14.902344 19.253906 14.816406 19.226562 14.746094 C 19.359375 14.628906 19.476562 14.460938 19.53125 14.375 L 19.542969 14.355469 L 20.214844 12.359375 Z M 18.746094 13.097656 C 18.625 13.480469 18.25 14.652344 18.25 14.652344 C 18.25 14.652344 18.253906 14.652344 18.253906 14.652344 C 18.25 14.667969 17.917969 15.765625 17.851562 15.988281 C 17.816406 15.984375 17.8125 15.984375 17.777344 15.980469 C 17.871094 15.660156 18.5625 13.296875 18.609375 13.128906 C 18.652344 13.117188 18.679688 13.113281 18.746094 13.097656 Z M 19.683594 12.875 C 19.546875 13.277344 19.246094 14.175781 19.234375 14.207031 C 19.136719 14.359375 19.007812 14.507812 18.957031 14.527344 C 18.953125 14.527344 18.902344 14.542969 18.855469 14.554688 C 18.921875 14.507812 18.980469 14.441406 19.019531 14.347656 C 19.105469 14.144531 19.363281 13.234375 19.445312 12.945312 C 19.503906 12.929688 19.566406 12.910156 19.683594 12.875 Z M 18.730469 14.621094 C 18.757812 14.660156 18.871094 14.800781 18.871094 14.800781 C 18.875 14.804688 18.9375 14.878906 18.9375 15 C 18.9375 15.035156 18.929688 15.078125 18.917969 15.121094 C 18.84375 15.335938 18.652344 15.871094 18.558594 16.125 C 18.511719 16.117188 18.503906 16.113281 18.453125 16.105469 C 18.523438 15.855469 18.71875 15.179688 18.730469 15.144531 C 18.757812 15.097656 18.777344 15.039062 18.777344 14.976562 C 18.777344 14.9375 18.769531 14.898438 18.753906 14.863281 C 18.703125 14.753906 18.59375 14.6875 18.421875 14.664062 C 18.4375 14.664062 18.464844 14.664062 18.464844 14.664062 C 18.535156 14.667969 18.632812 14.660156 18.730469 14.621094 Z M 18.730469 14.621094 "/>
<path style=" stroke:none;fill-rule:nonzero;fill:rgb(100%,100%,100%);fill-opacity:1;" d="M 21.847656 11.796875 L 20.703125 12.230469 L 20.6875 12.242188 C 20.582031 12.3125 20.054688 12.679688 19.945312 13.007812 C 19.847656 13.292969 19.292969 14.769531 19.285156 14.785156 L 19.203125 15.007812 C 19.203125 15.007812 19.230469 15.007812 19.238281 15.007812 C 19.234375 15.019531 18.84375 16.101562 18.839844 16.105469 C 18.828125 16.136719 18.796875 16.210938 18.796875 16.300781 C 18.796875 16.351562 18.808594 16.40625 18.839844 16.460938 C 18.867188 16.507812 18.933594 16.589844 19.082031 16.601562 C 19.300781 16.625 19.515625 16.625 19.523438 16.625 L 19.535156 16.625 L 19.542969 16.621094 C 19.566406 16.621094 20.078125 16.546875 20.328125 16.113281 C 20.546875 15.734375 21.019531 14.472656 21.039062 14.417969 L 21.125 14.183594 C 21.125 14.183594 21.113281 14.183594 21.113281 14.183594 C 21.121094 14.167969 22.222656 11.65625 22.222656 11.65625 Z M 21.589844 12.257812 C 21.382812 12.730469 20.945312 13.722656 20.882812 13.867188 C 20.832031 13.867188 20.804688 13.867188 20.722656 13.871094 C 20.828125 13.605469 21.003906 13.148438 21.003906 13.148438 L 21.007812 13.132812 C 21.015625 13.089844 21.019531 13.046875 21.019531 13.007812 C 21.019531 12.921875 20.996094 12.855469 20.949219 12.808594 C 20.898438 12.761719 20.828125 12.746094 20.761719 12.761719 C 20.648438 12.789062 20.539062 12.890625 20.507812 12.921875 L 20.484375 12.945312 L 20.472656 12.972656 C 20.328125 13.296875 19.996094 14.0625 19.976562 14.222656 C 19.960938 14.347656 19.984375 14.4375 20.050781 14.496094 C 20.113281 14.550781 20.191406 14.558594 20.242188 14.542969 L 20.207031 14.550781 C 20.207031 14.550781 20.433594 14.542969 20.632812 14.535156 C 20.484375 14.925781 20.183594 15.683594 20.035156 15.941406 C 19.882812 16.207031 19.566406 16.273438 19.507812 16.285156 C 19.464844 16.285156 19.304688 16.28125 19.140625 16.269531 C 19.144531 16.257812 19.148438 16.242188 19.152344 16.234375 L 19.15625 16.226562 L 19.160156 16.222656 C 19.160156 16.222656 19.441406 15.445312 19.503906 15.265625 C 19.519531 15.265625 19.523438 15.265625 19.539062 15.265625 C 19.449219 15.476562 19.328125 15.761719 19.304688 15.839844 C 19.285156 15.890625 19.277344 15.941406 19.277344 15.988281 C 19.277344 16.046875 19.292969 16.101562 19.324219 16.148438 C 19.363281 16.195312 19.429688 16.253906 19.5625 16.253906 C 19.777344 16.253906 19.890625 16.027344 19.910156 15.980469 L 19.910156 15.976562 L 20.40625 14.703125 C 20.40625 14.703125 19.898438 14.6875 19.6875 14.683594 C 19.847656 14.253906 20.191406 13.339844 20.265625 13.117188 C 20.316406 12.957031 20.640625 12.683594 20.863281 12.535156 C 20.886719 12.523438 21.265625 12.382812 21.589844 12.257812 Z M 21.589844 12.257812 "/>
<path style=" stroke:none;fill-rule:nonzero;fill:rgb(100%,100%,100%);fill-opacity:1;" d="M 10.140625 14.226562 L 9.871094 14.226562 L 9.871094 13.644531 L 10.140625 13.644531 Z M 10.140625 14.226562 "/>
<path style=" stroke:none;fill-rule:nonzero;fill:rgb(100%,100%,100%);fill-opacity:1;" d="M 13.320312 15.5625 L 13.183594 15.5625 L 13.183594 14.921875 L 13.320312 14.921875 Z M 13.320312 15.5625 "/>
<path style=" stroke:none;fill-rule:nonzero;fill:rgb(100%,100%,100%);fill-opacity:1;" d="M 19.347656 14.882812 L 19.210938 14.882812 L 19.210938 14.652344 L 19.347656 14.652344 Z M 19.347656 14.882812 "/>
<path style=" stroke:none;fill-rule:nonzero;fill:rgb(100%,100%,100%);fill-opacity:1;" d="M 17.914062 14.824219 L 17.003906 14.824219 L 17.003906 14.671875 L 17.914062 14.671875 Z M 17.914062 14.824219 "/>
<path style=" stroke:none;fill-rule:nonzero;fill:rgb(0%,0%,0%);fill-opacity:1;" d="M 7.601562 16.765625 L 5.800781 11.917969 L 6.902344 12.304688 C 6.902344 12.304688 7.121094 12.40625 7.214844 12.5 C 7.28125 12.570312 7.3125 12.636719 7.3125 12.636719 L 7.3125 12.460938 C 7.3125 12.460938 7.351562 12.421875 7.445312 12.460938 C 7.542969 12.5 8.066406 12.65625 8.066406 12.65625 C 8.066406 12.65625 8.667969 12.90625 8.84375 13.429688 C 9.015625 13.953125 9.65625 16.261719 9.65625 16.261719 L 9.09375 16.375 L 8.261719 13.46875 C 8.261719 13.46875 8.046875 12.984375 7.929688 13.023438 C 7.816406 13.0625 7.929688 13.351562 7.929688 13.351562 L 8.863281 16.410156 L 8.359375 16.546875 C 8.359375 16.546875 7.273438 13.140625 7.175781 13.023438 C 7.175781 13.023438 7.03125 12.707031 6.863281 12.714844 C 6.746094 12.71875 6.828125 12.808594 6.863281 12.945312 C 6.902344 13.082031 8.144531 16.605469 8.144531 16.605469 Z M 7.601562 16.765625 "/>
<path style=" stroke:none;fill-rule:nonzero;fill:rgb(0%,0%,0%);fill-opacity:1;" d="M 10.621094 16.101562 L 11.03125 16.027344 C 11.03125 16.027344 10.664062 14.128906 10.566406 13.683594 C 10.46875 13.238281 9.929688 13.0625 9.929688 13.0625 L 9.054688 12.867188 L 9.890625 16.203125 L 10.375 16.125 L 10.042969 14.882812 L 10.355469 14.902344 Z M 9.984375 14.632812 L 9.714844 13.527344 C 9.695312 13.140625 9.910156 13.332031 10.042969 13.546875 C 10.179688 13.757812 10.296875 14.632812 10.296875 14.632812 Z M 9.984375 14.632812 "/>
<path style=" stroke:none;fill-rule:nonzero;fill:rgb(0%,0%,0%);fill-opacity:1;" d="M 10.742188 13.199219 L 11.421875 13.292969 C 11.421875 13.292969 11.632812 15.292969 11.671875 15.542969 C 11.710938 15.796875 11.945312 15.738281 11.980469 15.503906 C 12.019531 15.273438 11.710938 13.332031 11.710938 13.332031 L 12.332031 13.351562 C 12.332031 13.351562 12.332031 15.097656 12.371094 15.253906 C 12.410156 15.40625 12.429688 15.832031 12.175781 15.910156 C 11.925781 15.988281 11.421875 15.988281 11.421875 15.988281 C 11.421875 15.988281 11.265625 16.046875 11.226562 15.777344 C 11.1875 15.503906 10.78125 13.3125 10.742188 13.199219 Z M 10.742188 13.199219 "/>
<path style=" stroke:none;fill-rule:nonzero;fill:rgb(0%,0%,0%);fill-opacity:1;" d="M 13.902344 13.429688 L 13.882812 14.417969 L 13.398438 14.417969 L 13.398438 13.703125 C 13.398438 13.703125 13.066406 13.644531 13.066406 13.914062 C 13.066406 14.1875 13.066406 14.632812 13.066406 14.632812 L 13.84375 14.632812 L 13.84375 14.824219 L 13.046875 14.824219 L 13.046875 15.660156 C 13.046875 15.660156 13.378906 15.777344 13.417969 15.445312 C 13.457031 15.117188 13.457031 15.117188 13.457031 15.117188 L 13.882812 15.117188 L 13.863281 15.484375 C 13.863281 15.484375 13.6875 15.890625 13.417969 15.910156 C 13.144531 15.929688 12.660156 15.929688 12.660156 15.929688 L 12.601562 13.894531 C 12.601562 13.894531 12.601562 13.410156 13.03125 13.410156 C 13.457031 13.410156 13.902344 13.429688 13.902344 13.429688 Z M 13.902344 13.429688 "/>
<path style=" stroke:none;fill-rule:nonzero;fill:rgb(0%,0%,0%);fill-opacity:1;" d="M 15.453125 14.320312 C 15.453125 14.320312 15.511719 13.855469 15.492188 13.625 C 15.472656 13.390625 15.179688 13.371094 15.179688 13.371094 L 14.152344 13.410156 L 14.074219 15.851562 L 14.523438 15.867188 L 14.578125 14.863281 C 14.871094 14.863281 14.871094 15.039062 14.871094 15.039062 L 14.792969 15.871094 L 15.21875 15.871094 C 15.21875 15.871094 15.335938 15.347656 15.335938 15.039062 C 15.335938 14.730469 15.199219 14.691406 15.199219 14.691406 C 15.375 14.613281 15.453125 14.320312 15.453125 14.320312 Z M 14.597656 14.554688 L 14.636719 13.644531 C 14.636719 13.644531 14.96875 13.527344 14.96875 13.777344 C 14.96875 14.03125 14.910156 14.417969 14.910156 14.417969 C 14.910156 14.417969 14.988281 14.59375 14.597656 14.554688 Z M 14.597656 14.554688 "/>
<path style=" stroke:none;fill-rule:nonzero;fill:rgb(0%,0%,0%);fill-opacity:1;" d="M 15.78125 13.351562 L 16.402344 13.3125 L 15.957031 15.949219 L 15.472656 15.925781 Z M 15.78125 13.351562 "/>
<path style=" stroke:none;fill-rule:nonzero;fill:rgb(0%,0%,0%);fill-opacity:1;" d="M 17.253906 14.359375 L 17.835938 14.339844 L 18.203125 13.003906 L 17.101562 13.21875 C 17.101562 13.21875 16.730469 13.351562 16.632812 13.722656 C 16.539062 14.089844 16.226562 15.757812 16.226562 15.757812 C 16.226562 15.757812 16.1875 15.949219 16.324219 15.988281 C 16.460938 16.027344 16.925781 16.046875 16.925781 16.046875 C 16.925781 16.046875 17.332031 16.027344 17.46875 15.640625 C 17.605469 15.253906 17.699219 14.882812 17.699219 14.882812 L 17.15625 14.921875 L 17.023438 15.464844 C 17.023438 15.464844 16.945312 15.71875 16.828125 15.757812 C 16.710938 15.796875 16.652344 15.640625 16.671875 15.582031 C 16.691406 15.523438 17.0625 13.835938 17.0625 13.835938 C 17.0625 13.835938 17.273438 13.429688 17.371094 13.449219 C 17.46875 13.46875 17.449219 13.605469 17.449219 13.605469 Z M 17.253906 14.359375 "/>
<path style=" stroke:none;fill-rule:nonzero;fill:rgb(0%,0%,0%);fill-opacity:1;" d="M 18.476562 12.984375 L 19 12.867188 L 18.476562 14.496094 C 18.476562 14.496094 18.765625 14.515625 18.863281 14.28125 C 18.960938 14.050781 19.308594 12.808594 19.308594 12.808594 L 19.949219 12.617188 L 19.386719 14.28125 C 19.386719 14.28125 19.15625 14.652344 19 14.691406 C 19 14.691406 19.171875 14.882812 19.078125 15.175781 C 18.980469 15.464844 18.667969 16.320312 18.667969 16.320312 L 18.238281 16.234375 L 18.574219 15.078125 C 18.574219 15.078125 18.726562 14.863281 18.378906 14.824219 L 17.972656 16.179688 L 17.558594 16.121094 Z M 18.476562 12.984375 "/>
<path style=" stroke:none;fill-rule:nonzero;fill:rgb(0%,0%,0%);fill-opacity:1;" d="M 20.472656 14.050781 L 20.996094 14.03125 L 21.90625 11.957031 L 20.78125 12.382812 C 20.78125 12.382812 20.203125 12.769531 20.105469 13.0625 C 20.007812 13.351562 19.445312 14.84375 19.445312 14.84375 L 20.164062 14.863281 L 19.753906 15.910156 C 19.753906 15.910156 19.679688 16.085938 19.5625 16.085938 C 19.445312 16.085938 19.425781 16.007812 19.464844 15.890625 C 19.503906 15.777344 19.792969 15.097656 19.792969 15.097656 L 19.386719 15.097656 L 19 16.164062 C 19 16.164062 18.882812 16.414062 19.097656 16.433594 C 19.308594 16.453125 19.523438 16.453125 19.523438 16.453125 C 19.523438 16.453125 19.96875 16.394531 20.183594 16.027344 C 20.394531 15.660156 20.878906 14.359375 20.878906 14.359375 L 20.203125 14.378906 C 20.203125 14.378906 20.125 14.398438 20.144531 14.242188 C 20.164062 14.089844 20.628906 13.042969 20.628906 13.042969 C 20.628906 13.042969 20.726562 12.945312 20.800781 12.925781 C 20.878906 12.90625 20.839844 13.101562 20.839844 13.101562 Z M 20.472656 14.050781 "/>
<path style=" stroke:none;fill-rule:nonzero;fill:rgb(100%,100%,100%);fill-opacity:1;" d="M 13.867188 17.566406 L 13.214844 18.035156 L 13.492188 17.335938 C 13.335938 17.078125 12.644531 16.90625 12.644531 16.90625 C 12.816406 16.855469 13.660156 16.769531 13.660156 16.769531 C 13.695312 16.632812 13.867188 16.164062 13.867188 16.164062 C 13.867188 16.164062 14.039062 16.632812 14.070312 16.769531 C 14.070312 16.769531 14.917969 16.855469 15.089844 16.90625 C 15.089844 16.90625 14.398438 17.078125 14.242188 17.335938 L 14.515625 18.035156 Z M 13.867188 17.566406 "/>
<path style=" stroke:none;fill-rule:nonzero;fill:rgb(0%,0%,0%);fill-opacity:1;" d="M 13.804688 16.140625 C 13.796875 16.15625 13.660156 16.535156 13.609375 16.707031 C 13.429688 16.726562 12.777344 16.796875 12.625 16.839844 L 12.386719 16.914062 L 12.628906 16.972656 C 12.804688 17.015625 13.273438 17.164062 13.414062 17.34375 C 13.390625 17.40625 13.070312 18.226562 13.070312 18.226562 C 13.070312 18.226562 13.796875 17.699219 13.867188 17.648438 C 13.9375 17.699219 14.664062 18.226562 14.664062 18.226562 C 14.664062 18.226562 14.34375 17.40625 14.320312 17.34375 C 14.460938 17.164062 14.929688 17.015625 15.105469 16.972656 L 15.347656 16.914062 L 15.109375 16.839844 C 14.957031 16.796875 14.304688 16.726562 14.125 16.707031 C 14.074219 16.535156 13.9375 16.15625 13.929688 16.140625 L 13.867188 15.964844 Z M 13.667969 16.835938 L 13.714844 16.832031 L 13.726562 16.785156 C 13.746094 16.707031 13.816406 16.511719 13.867188 16.363281 C 13.917969 16.511719 13.988281 16.707031 14.007812 16.785156 L 14.019531 16.832031 L 14.066406 16.835938 C 14.21875 16.851562 14.554688 16.890625 14.796875 16.921875 C 14.578125 17 14.285156 17.128906 14.183594 17.300781 L 14.167969 17.328125 C 14.167969 17.328125 14.289062 17.640625 14.371094 17.84375 C 14.179688 17.707031 13.867188 17.480469 13.867188 17.480469 C 13.867188 17.480469 13.554688 17.707031 13.363281 17.84375 C 13.445312 17.640625 13.566406 17.328125 13.566406 17.328125 L 13.546875 17.300781 C 13.445312 17.128906 13.15625 17 12.933594 16.921875 C 13.179688 16.890625 13.511719 16.851562 13.667969 16.835938 Z M 13.667969 16.835938 "/>
</g>
</svg>
