<?xml version="1.0" encoding="UTF-8"?>
<svg xmlns="http://www.w3.org/2000/svg" xmlns:xlink="http://www.w3.org/1999/xlink" width="16pt" height="20pt" viewBox="0 0 16 20" version="1.1">
<g id="surface1">
<path style=" stroke:none;fill-rule:nonzero;fill:rgb(10.196078%,39.215686%,71.764706%);fill-opacity:1;" d="M 2.0625 16.207031 L 1.003906 16.75 C 0.949219 16.777344 0.914062 16.792969 0.90625 16.804688 C 0.878906 16.839844 0.882812 16.882812 0.921875 16.945312 L 0.894531 16.980469 L 0.433594 16.5625 L 0.464844 16.527344 C 0.519531 16.558594 0.5625 16.558594 0.597656 16.519531 C 0.605469 16.507812 0.625 16.464844 0.652344 16.394531 L 1.179688 14.949219 C 1.207031 14.875 1.21875 14.824219 1.21875 14.789062 C 1.21875 14.757812 1.207031 14.722656 1.179688 14.6875 L 1.210938 14.652344 L 1.707031 15.105469 L 1.675781 15.140625 C 1.625 15.109375 1.585938 15.109375 1.554688 15.144531 C 1.542969 15.160156 1.527344 15.1875 1.511719 15.226562 L 1.121094 16.257812 L 2.101562 15.761719 C 2.144531 15.738281 2.167969 15.722656 2.179688 15.710938 C 2.207031 15.679688 2.203125 15.636719 2.164062 15.585938 L 2.195312 15.550781 L 2.710938 16.023438 L 2.679688 16.058594 C 2.621094 16.027344 2.578125 16.03125 2.550781 16.0625 C 2.539062 16.074219 2.527344 16.101562 2.511719 16.144531 L 2.128906 17.179688 L 3.070312 16.679688 C 3.117188 16.652344 3.152344 16.628906 3.167969 16.613281 C 3.195312 16.582031 3.1875 16.539062 3.144531 16.484375 L 3.175781 16.449219 L 3.664062 16.894531 L 3.636719 16.929688 C 3.589844 16.910156 3.558594 16.898438 3.53125 16.902344 C 3.503906 16.90625 3.453125 16.925781 3.382812 16.960938 L 2.035156 17.664062 C 1.972656 17.695312 1.933594 17.722656 1.917969 17.738281 C 1.886719 17.773438 1.894531 17.820312 1.933594 17.871094 L 1.90625 17.90625 L 1.441406 17.480469 L 1.472656 17.449219 C 1.527344 17.484375 1.574219 17.484375 1.609375 17.441406 C 1.617188 17.429688 1.636719 17.386719 1.660156 17.316406 L 2.0625 16.207031 "/>
<path style=" stroke:none;fill-rule:nonzero;fill:rgb(10.196078%,39.215686%,71.764706%);fill-opacity:1;" d="M 1.464844 17.480469 L 1.90625 17.882812 L 1.917969 17.871094 C 1.894531 17.84375 1.886719 17.8125 1.886719 17.789062 C 1.886719 17.765625 1.894531 17.746094 1.90625 17.726562 C 1.925781 17.707031 1.964844 17.683594 2.03125 17.648438 L 3.375 16.949219 C 3.449219 16.914062 3.496094 16.890625 3.523438 16.886719 C 3.53125 16.886719 3.535156 16.886719 3.542969 16.886719 C 3.566406 16.886719 3.597656 16.894531 3.632812 16.914062 L 3.644531 16.898438 L 3.175781 16.46875 L 3.164062 16.484375 C 3.1875 16.515625 3.199219 16.542969 3.199219 16.566406 C 3.199219 16.589844 3.191406 16.609375 3.179688 16.621094 C 3.160156 16.644531 3.125 16.667969 3.078125 16.691406 L 2.101562 17.210938 L 2.496094 16.136719 C 2.511719 16.09375 2.527344 16.066406 2.539062 16.050781 C 2.554688 16.03125 2.578125 16.019531 2.605469 16.019531 C 2.628906 16.019531 2.652344 16.027344 2.675781 16.039062 L 2.6875 16.023438 L 2.195312 15.574219 L 2.183594 15.585938 C 2.199219 15.613281 2.210938 15.640625 2.210938 15.664062 C 2.210938 15.6875 2.203125 15.707031 2.191406 15.722656 C 2.175781 15.734375 2.152344 15.75 2.109375 15.773438 L 1.09375 16.285156 L 1.496094 15.222656 C 1.511719 15.179688 1.527344 15.152344 1.546875 15.132812 C 1.5625 15.113281 1.585938 15.101562 1.609375 15.101562 C 1.628906 15.101562 1.652344 15.109375 1.671875 15.121094 L 1.683594 15.105469 L 1.210938 14.675781 L 1.199219 14.6875 C 1.222656 14.722656 1.234375 14.757812 1.234375 14.789062 C 1.234375 14.828125 1.222656 14.882812 1.195312 14.953125 L 0.664062 16.402344 C 0.636719 16.472656 0.621094 16.511719 0.609375 16.527344 C 0.589844 16.550781 0.5625 16.566406 0.535156 16.566406 C 0.511719 16.566406 0.492188 16.558594 0.46875 16.546875 L 0.453125 16.558594 L 0.890625 16.957031 L 0.902344 16.945312 C 0.882812 16.910156 0.871094 16.882812 0.871094 16.851562 C 0.871094 16.832031 0.882812 16.8125 0.894531 16.792969 C 0.910156 16.777344 0.941406 16.761719 1 16.734375 L 2.058594 16.191406 L 2.089844 16.175781 L 1.671875 17.324219 C 1.648438 17.394531 1.632812 17.433594 1.617188 17.453125 C 1.597656 17.472656 1.570312 17.488281 1.546875 17.488281 C 1.523438 17.488281 1.5 17.480469 1.476562 17.46875 Z M 1.421875 17.484375 L 1.429688 17.472656 L 1.46875 17.425781 L 1.480469 17.433594 C 1.503906 17.453125 1.527344 17.457031 1.546875 17.457031 C 1.5625 17.457031 1.578125 17.449219 1.59375 17.433594 C 1.605469 17.425781 1.621094 17.382812 1.644531 17.3125 L 2.035156 16.238281 L 1.011719 16.765625 C 0.957031 16.789062 0.921875 16.808594 0.917969 16.816406 C 0.90625 16.828125 0.902344 16.839844 0.902344 16.851562 C 0.902344 16.875 0.910156 16.902344 0.933594 16.9375 L 0.941406 16.945312 L 0.933594 16.953125 L 0.894531 17 L 0.414062 16.5625 L 0.425781 16.550781 L 0.460938 16.507812 L 0.472656 16.511719 C 0.496094 16.527344 0.515625 16.535156 0.535156 16.535156 C 0.550781 16.535156 0.566406 16.527344 0.585938 16.507812 C 0.589844 16.503906 0.613281 16.460938 0.636719 16.390625 L 1.167969 14.945312 C 1.191406 14.871094 1.203125 14.820312 1.203125 14.789062 C 1.203125 14.761719 1.195312 14.730469 1.167969 14.695312 L 1.164062 14.6875 L 1.167969 14.679688 L 1.210938 14.632812 L 1.726562 15.105469 L 1.71875 15.117188 L 1.679688 15.160156 L 1.667969 15.152344 C 1.648438 15.140625 1.625 15.132812 1.609375 15.132812 C 1.589844 15.132812 1.578125 15.140625 1.566406 15.152344 C 1.554688 15.167969 1.539062 15.195312 1.523438 15.234375 L 1.148438 16.226562 L 2.09375 15.746094 C 2.136719 15.726562 2.164062 15.707031 2.167969 15.703125 C 2.179688 15.691406 2.179688 15.679688 2.179688 15.664062 C 2.179688 15.644531 2.171875 15.621094 2.152344 15.59375 L 2.144531 15.585938 L 2.152344 15.574219 L 2.191406 15.527344 L 2.730469 16.023438 L 2.71875 16.03125 L 2.683594 16.078125 L 2.675781 16.070312 C 2.648438 16.058594 2.625 16.050781 2.605469 16.050781 C 2.585938 16.050781 2.574219 16.058594 2.5625 16.070312 C 2.554688 16.082031 2.539062 16.105469 2.527344 16.148438 L 2.15625 17.144531 L 3.066406 16.664062 C 3.113281 16.640625 3.140625 16.617188 3.15625 16.601562 C 3.164062 16.59375 3.167969 16.582031 3.167969 16.566406 C 3.167969 16.550781 3.15625 16.523438 3.132812 16.492188 L 3.125 16.480469 L 3.132812 16.472656 L 3.171875 16.425781 L 3.683594 16.894531 L 3.675781 16.90625 L 3.636719 16.949219 L 3.628906 16.945312 C 3.59375 16.925781 3.5625 16.917969 3.542969 16.917969 C 3.539062 16.917969 3.535156 16.917969 3.53125 16.917969 C 3.507812 16.921875 3.460938 16.9375 3.386719 16.976562 L 2.042969 17.675781 C 1.980469 17.710938 1.941406 17.734375 1.929688 17.75 C 1.917969 17.761719 1.914062 17.773438 1.914062 17.789062 C 1.914062 17.808594 1.921875 17.832031 1.949219 17.863281 L 1.957031 17.871094 L 1.945312 17.882812 L 1.90625 17.929688 L 1.421875 17.484375 "/>
<path style=" stroke:none;fill-rule:nonzero;fill:rgb(10.196078%,39.215686%,71.764706%);fill-opacity:1;" d="M 4.007812 18.222656 L 4.027344 17.460938 L 3.445312 17.945312 Z M 4 18.515625 L 3.21875 18.128906 L 2.984375 18.316406 C 2.953125 18.339844 2.933594 18.363281 2.921875 18.386719 C 2.90625 18.421875 2.921875 18.460938 2.96875 18.503906 L 2.949219 18.546875 L 2.382812 18.261719 L 2.402344 18.222656 C 2.441406 18.230469 2.472656 18.234375 2.496094 18.222656 C 2.523438 18.21875 2.558594 18.191406 2.605469 18.15625 L 3.878906 17.121094 C 3.921875 17.089844 3.945312 17.058594 3.957031 17.035156 C 3.976562 16.996094 3.96875 16.953125 3.925781 16.914062 L 3.945312 16.871094 L 4.554688 17.175781 L 4.535156 17.21875 C 4.480469 17.207031 4.441406 17.222656 4.425781 17.257812 C 4.414062 17.28125 4.40625 17.3125 4.40625 17.351562 L 4.414062 19.03125 C 4.414062 19.105469 4.417969 19.15625 4.429688 19.183594 C 4.441406 19.214844 4.460938 19.246094 4.496094 19.269531 L 4.476562 19.3125 L 3.84375 18.996094 L 3.863281 18.953125 C 3.921875 18.972656 3.964844 18.957031 3.984375 18.914062 C 3.992188 18.898438 3.996094 18.867188 3.996094 18.824219 L 4 18.515625 "/>
<path style=" stroke:none;fill-rule:nonzero;fill:rgb(10.196078%,39.215686%,71.764706%);fill-opacity:1;" d="M 3.472656 17.9375 L 3.992188 18.199219 L 4.011719 17.492188 Z M 4.007812 18.222656 L 4.011719 18.210938 Z M 3.417969 17.945312 L 4.042969 17.425781 L 4.019531 18.222656 L 4.019531 18.246094 Z M 3.863281 18.988281 L 4.46875 19.289062 L 4.476562 19.273438 C 4.445312 19.25 4.425781 19.222656 4.414062 19.191406 C 4.402344 19.15625 4.398438 19.105469 4.398438 19.03125 L 4.394531 17.359375 C 4.390625 17.355469 4.394531 17.351562 4.394531 17.351562 C 4.394531 17.3125 4.398438 17.277344 4.410156 17.25 C 4.425781 17.214844 4.460938 17.199219 4.5 17.199219 C 4.511719 17.199219 4.523438 17.199219 4.519531 17.210938 L 4.535156 17.183594 L 3.953125 16.890625 L 3.945312 16.910156 C 3.96875 16.9375 3.980469 16.96875 3.980469 16.996094 C 3.980469 17.011719 3.980469 17.027344 3.972656 17.039062 C 3.957031 17.070312 3.933594 17.101562 3.890625 17.132812 L 2.613281 18.164062 C 2.566406 18.207031 2.53125 18.226562 2.5 18.238281 C 2.488281 18.242188 2.472656 18.246094 2.457031 18.246094 C 2.445312 18.246094 2.425781 18.242188 2.410156 18.238281 L 2.402344 18.253906 L 2.941406 18.527344 L 2.949219 18.507812 C 2.917969 18.480469 2.902344 18.449219 2.898438 18.417969 C 2.898438 18.402344 2.902344 18.390625 2.910156 18.378906 C 2.921875 18.355469 2.941406 18.332031 2.976562 18.304688 L 3.226562 18.113281 L 4.003906 18.503906 L 4 18.519531 L 4.011719 18.519531 L 4.011719 18.824219 C 4.011719 18.867188 4.007812 18.902344 3.996094 18.921875 C 3.980469 18.957031 3.949219 18.976562 3.910156 18.976562 C 3.898438 18.976562 3.886719 18.976562 3.871094 18.972656 Z M 3.824219 19 L 3.828125 18.988281 L 3.855469 18.9375 L 3.867188 18.9375 C 3.882812 18.945312 3.898438 18.945312 3.910156 18.945312 C 3.941406 18.945312 3.957031 18.933594 3.972656 18.910156 C 3.976562 18.894531 3.980469 18.867188 3.980469 18.824219 L 3.980469 18.527344 L 3.226562 18.140625 L 2.996094 18.328125 C 2.964844 18.355469 2.945312 18.375 2.9375 18.390625 C 2.933594 18.398438 2.929688 18.40625 2.929688 18.417969 C 2.929688 18.4375 2.945312 18.464844 2.980469 18.492188 L 2.988281 18.5 L 2.984375 18.511719 L 2.957031 18.566406 L 2.363281 18.269531 L 2.371094 18.253906 L 2.394531 18.203125 L 2.40625 18.207031 C 2.425781 18.210938 2.441406 18.214844 2.457031 18.214844 C 2.46875 18.214844 2.484375 18.210938 2.492188 18.210938 C 2.515625 18.203125 2.550781 18.179688 2.597656 18.140625 L 3.871094 17.109375 C 3.910156 17.078125 3.933594 17.050781 3.945312 17.027344 C 3.949219 17.015625 3.953125 17.007812 3.953125 16.996094 C 3.953125 16.972656 3.941406 16.949219 3.917969 16.925781 L 3.910156 16.914062 L 3.914062 16.90625 L 3.9375 16.851562 L 4.574219 17.167969 L 4.570312 17.183594 L 4.53125 17.230469 C 4.519531 17.230469 4.507812 17.230469 4.5 17.230469 C 4.464844 17.230469 4.449219 17.242188 4.4375 17.261719 C 4.425781 17.285156 4.421875 17.3125 4.421875 17.351562 L 4.414062 17.351562 L 4.421875 17.355469 L 4.429688 19.03125 C 4.429688 19.101562 4.433594 19.152344 4.445312 19.179688 C 4.453125 19.207031 4.472656 19.234375 4.503906 19.257812 L 4.511719 19.265625 L 4.507812 19.277344 L 4.480469 19.332031 L 3.824219 19 "/>
<path style=" stroke:none;fill-rule:nonzero;fill:rgb(10.196078%,39.215686%,71.764706%);fill-opacity:1;" d="M 5.429688 18.382812 L 6.058594 18.515625 C 6.152344 18.535156 6.214844 18.546875 6.257812 18.550781 C 6.296875 18.550781 6.335938 18.550781 6.367188 18.535156 C 6.445312 18.511719 6.496094 18.453125 6.515625 18.351562 C 6.535156 18.25 6.515625 18.175781 6.453125 18.125 C 6.425781 18.097656 6.390625 18.078125 6.355469 18.066406 C 6.320312 18.050781 6.257812 18.035156 6.160156 18.015625 L 5.53125 17.878906 Z M 5.363281 18.695312 L 5.234375 19.332031 C 5.226562 19.359375 5.230469 19.382812 5.242188 19.398438 C 5.25 19.417969 5.273438 19.433594 5.300781 19.449219 L 5.292969 19.496094 L 4.710938 19.367188 L 4.71875 19.324219 C 4.753906 19.324219 4.777344 19.316406 4.792969 19.304688 C 4.808594 19.292969 4.820312 19.269531 4.828125 19.242188 L 5.15625 17.625 C 5.164062 17.597656 5.160156 17.570312 5.152344 17.554688 C 5.144531 17.539062 5.121094 17.519531 5.089844 17.503906 L 5.101562 17.460938 L 6.265625 17.710938 C 6.410156 17.738281 6.519531 17.773438 6.601562 17.808594 C 6.679688 17.84375 6.75 17.886719 6.800781 17.941406 C 6.863281 18.003906 6.90625 18.085938 6.921875 18.175781 C 6.941406 18.261719 6.941406 18.351562 6.921875 18.441406 C 6.859375 18.753906 6.652344 18.898438 6.300781 18.882812 L 6.558594 19.488281 C 6.601562 19.589844 6.636719 19.660156 6.660156 19.695312 C 6.683594 19.726562 6.71875 19.75 6.761719 19.761719 L 6.75 19.804688 L 6.078125 19.664062 L 6.085938 19.617188 C 6.132812 19.621094 6.160156 19.609375 6.164062 19.582031 C 6.167969 19.566406 6.15625 19.519531 6.125 19.445312 L 5.863281 18.800781 L 5.363281 18.695312 "/>
<path style=" stroke:none;fill-rule:nonzero;fill:rgb(10.196078%,39.215686%,71.764706%);fill-opacity:1;" d="M 6.0625 18.5 C 6.152344 18.519531 6.21875 18.53125 6.257812 18.535156 C 6.265625 18.535156 6.273438 18.535156 6.28125 18.535156 C 6.308594 18.535156 6.335938 18.53125 6.363281 18.523438 C 6.4375 18.5 6.480469 18.445312 6.5 18.347656 C 6.503906 18.328125 6.507812 18.300781 6.507812 18.28125 C 6.507812 18.21875 6.488281 18.171875 6.445312 18.136719 C 6.414062 18.109375 6.382812 18.09375 6.351562 18.078125 C 6.316406 18.066406 6.253906 18.046875 6.15625 18.03125 L 5.542969 17.898438 L 5.445312 18.371094 Z M 6.257812 18.5625 C 6.214844 18.5625 6.148438 18.550781 6.054688 18.53125 L 5.425781 18.394531 L 5.410156 18.394531 L 5.519531 17.863281 L 6.164062 18 C 6.257812 18.019531 6.324219 18.039062 6.359375 18.050781 C 6.398438 18.0625 6.433594 18.085938 6.464844 18.113281 C 6.511719 18.152344 6.535156 18.210938 6.535156 18.28125 C 6.535156 18.304688 6.535156 18.328125 6.53125 18.355469 C 6.507812 18.457031 6.457031 18.527344 6.375 18.550781 C 6.34375 18.5625 6.3125 18.5625 6.28125 18.5625 C 6.273438 18.5625 6.265625 18.5625 6.257812 18.5625 M 5.363281 18.710938 L 5.363281 18.695312 Z M 6.09375 19.652344 L 6.738281 19.789062 L 6.742188 19.773438 C 6.703125 19.757812 6.671875 19.734375 6.648438 19.703125 C 6.621094 19.667969 6.589844 19.597656 6.542969 19.492188 L 6.28125 18.863281 L 6.300781 18.867188 C 6.324219 18.867188 6.34375 18.867188 6.359375 18.867188 C 6.671875 18.867188 6.847656 18.726562 6.90625 18.4375 C 6.917969 18.390625 6.921875 18.34375 6.921875 18.300781 C 6.921875 18.257812 6.917969 18.21875 6.90625 18.175781 C 6.890625 18.089844 6.851562 18.015625 6.792969 17.953125 C 6.738281 17.898438 6.675781 17.855469 6.597656 17.820312 C 6.515625 17.785156 6.40625 17.753906 6.265625 17.722656 L 5.105469 17.472656 L 5.097656 17.488281 C 5.128906 17.507812 5.152344 17.527344 5.164062 17.546875 C 5.171875 17.5625 5.175781 17.578125 5.175781 17.59375 C 5.175781 17.605469 5.175781 17.617188 5.171875 17.628906 L 4.84375 19.246094 C 4.835938 19.277344 4.824219 19.300781 4.804688 19.316406 C 4.785156 19.332031 4.757812 19.339844 4.734375 19.328125 L 4.726562 19.359375 L 5.285156 19.476562 L 5.292969 19.464844 C 5.265625 19.445312 5.242188 19.429688 5.226562 19.40625 C 5.21875 19.394531 5.214844 19.375 5.214844 19.359375 C 5.214844 19.347656 5.21875 19.335938 5.21875 19.328125 L 5.347656 18.695312 L 5.355469 18.679688 L 5.875 18.796875 L 6.140625 19.441406 C 6.164062 19.507812 6.179688 19.550781 6.179688 19.578125 L 6.179688 19.585938 C 6.171875 19.621094 6.140625 19.632812 6.097656 19.632812 Z M 6.058594 19.675781 L 6.0625 19.660156 L 6.085938 19.601562 L 6.097656 19.601562 C 6.136719 19.601562 6.148438 19.59375 6.152344 19.582031 L 6.152344 19.578125 C 6.152344 19.558594 6.136719 19.519531 6.113281 19.453125 L 5.859375 18.816406 L 5.375 18.714844 L 5.25 19.335938 C 5.246094 19.34375 5.246094 19.351562 5.246094 19.359375 C 5.246094 19.371094 5.25 19.382812 5.253906 19.394531 C 5.261719 19.40625 5.277344 19.421875 5.316406 19.453125 L 5.304688 19.511719 L 4.691406 19.378906 L 4.695312 19.367188 L 4.71875 19.308594 C 4.75 19.308594 4.773438 19.300781 4.785156 19.292969 C 4.796875 19.28125 4.804688 19.265625 4.8125 19.242188 L 5.144531 17.621094 C 5.144531 17.613281 5.144531 17.601562 5.144531 17.59375 C 5.144531 17.582031 5.144531 17.570312 5.136719 17.5625 C 5.132812 17.546875 5.113281 17.535156 5.074219 17.5 L 5.089844 17.441406 L 6.273438 17.695312 C 6.414062 17.726562 6.523438 17.757812 6.609375 17.792969 C 6.691406 17.828125 6.757812 17.875 6.8125 17.929688 C 6.875 17.996094 6.917969 18.078125 6.9375 18.171875 C 6.945312 18.214844 6.949219 18.257812 6.949219 18.300781 C 6.949219 18.347656 6.945312 18.394531 6.933594 18.445312 C 6.875 18.746094 6.675781 18.898438 6.359375 18.898438 C 6.351562 18.898438 6.335938 18.898438 6.324219 18.898438 L 6.570312 19.480469 C 6.613281 19.585938 6.648438 19.65625 6.671875 19.683594 C 6.695312 19.71875 6.722656 19.734375 6.761719 19.746094 L 6.777344 19.75 L 6.773438 19.765625 L 6.761719 19.824219 L 6.058594 19.675781 "/>
<path style=" stroke:none;fill-rule:nonzero;fill:rgb(10.196078%,39.215686%,71.764706%);fill-opacity:1;" d="M 7.667969 18.707031 L 8.308594 18.683594 C 8.40625 18.679688 8.472656 18.671875 8.507812 18.664062 C 8.550781 18.65625 8.585938 18.644531 8.617188 18.625 C 8.6875 18.582031 8.71875 18.511719 8.714844 18.410156 C 8.710938 18.308594 8.675781 18.238281 8.601562 18.203125 C 8.566406 18.183594 8.53125 18.175781 8.492188 18.171875 C 8.453125 18.167969 8.386719 18.167969 8.289062 18.171875 L 7.648438 18.195312 Z M 7.679688 19.027344 L 7.707031 19.675781 C 7.707031 19.707031 7.714844 19.726562 7.726562 19.742188 C 7.742188 19.757812 7.765625 19.769531 7.796875 19.777344 L 7.800781 19.824219 L 7.207031 19.847656 L 7.203125 19.800781 C 7.238281 19.789062 7.257812 19.777344 7.273438 19.761719 C 7.285156 19.746094 7.289062 19.722656 7.289062 19.695312 L 7.226562 18.042969 C 7.222656 18.011719 7.214844 17.992188 7.203125 17.976562 C 7.1875 17.960938 7.164062 17.949219 7.132812 17.941406 L 7.128906 17.894531 L 8.324219 17.847656 C 8.46875 17.839844 8.582031 17.84375 8.667969 17.859375 C 8.753906 17.871094 8.828125 17.898438 8.894531 17.9375 C 8.96875 17.984375 9.027344 18.050781 9.066406 18.136719 C 9.105469 18.214844 9.125 18.300781 9.128906 18.394531 C 9.140625 18.714844 8.976562 18.90625 8.632812 18.972656 L 9.023438 19.5 C 9.09375 19.589844 9.140625 19.648438 9.175781 19.675781 C 9.203125 19.703125 9.242188 19.714844 9.289062 19.71875 L 9.289062 19.761719 L 8.601562 19.789062 L 8.597656 19.746094 C 8.644531 19.734375 8.667969 19.71875 8.667969 19.691406 C 8.667969 19.671875 8.644531 19.632812 8.597656 19.570312 L 8.1875 19.007812 L 7.679688 19.027344 "/>
<path style=" stroke:none;fill-rule:nonzero;fill:rgb(10.196078%,39.215686%,71.764706%);fill-opacity:1;" d="M 8.292969 18.1875 L 7.664062 18.195312 L 7.683594 18.691406 L 8.308594 18.667969 C 8.40625 18.664062 8.472656 18.65625 8.507812 18.648438 C 8.542969 18.644531 8.578125 18.632812 8.609375 18.613281 C 8.667969 18.574219 8.699219 18.515625 8.699219 18.425781 C 8.699219 18.421875 8.699219 18.414062 8.699219 18.410156 C 8.695312 18.3125 8.660156 18.25 8.59375 18.214844 C 8.5625 18.199219 8.527344 18.1875 8.492188 18.1875 C 8.472656 18.183594 8.449219 18.183594 8.414062 18.183594 C 8.378906 18.183594 8.339844 18.183594 8.292969 18.1875 M 7.667969 18.707031 L 7.652344 18.707031 L 7.648438 18.179688 L 8.289062 18.15625 C 8.339844 18.152344 8.378906 18.152344 8.414062 18.152344 C 8.449219 18.152344 8.472656 18.152344 8.492188 18.15625 C 8.53125 18.160156 8.570312 18.171875 8.605469 18.1875 C 8.683594 18.226562 8.726562 18.304688 8.730469 18.410156 L 8.730469 18.425781 C 8.730469 18.523438 8.695312 18.597656 8.625 18.636719 C 8.589844 18.660156 8.554688 18.671875 8.511719 18.679688 C 8.472656 18.6875 8.40625 18.691406 8.3125 18.699219 L 7.667969 18.722656 Z M 8.652344 19.6875 L 8.652344 19.691406 L 8.652344 19.6875 M 7.203125 19.832031 L 7.785156 19.824219 L 7.796875 19.789062 C 7.761719 19.785156 7.734375 19.773438 7.71875 19.753906 C 7.699219 19.734375 7.691406 19.707031 7.691406 19.675781 L 7.664062 19.03125 L 7.679688 19.027344 L 7.679688 19.015625 L 8.199219 19 L 8.609375 19.558594 C 8.652344 19.617188 8.675781 19.65625 8.675781 19.691406 L 8.683594 19.691406 C 8.683594 19.730469 8.648438 19.75 8.613281 19.746094 L 8.601562 19.773438 L 9.273438 19.761719 L 9.289062 19.730469 C 9.238281 19.730469 9.199219 19.714844 9.164062 19.6875 C 9.132812 19.660156 9.082031 19.601562 9.011719 19.507812 L 8.605469 18.964844 L 8.628906 18.960938 C 8.957031 18.894531 9.113281 18.722656 9.117188 18.429688 C 9.117188 18.417969 9.117188 18.40625 9.113281 18.394531 C 9.109375 18.304688 9.089844 18.21875 9.054688 18.140625 C 9.015625 18.058594 8.960938 18 8.886719 17.953125 C 8.824219 17.914062 8.75 17.886719 8.667969 17.875 C 8.605469 17.863281 8.53125 17.859375 8.441406 17.859375 C 8.40625 17.859375 8.363281 17.863281 8.324219 17.863281 L 7.144531 17.894531 L 7.136719 17.925781 C 7.171875 17.933594 7.195312 17.949219 7.214844 17.964844 C 7.230469 17.984375 7.238281 18.007812 7.238281 18.042969 L 7.304688 19.695312 L 7.304688 19.699219 C 7.304688 19.726562 7.296875 19.75 7.28125 19.769531 C 7.269531 19.789062 7.242188 19.804688 7.21875 19.800781 Z M 7.199219 19.785156 C 7.230469 19.773438 7.25 19.761719 7.257812 19.75 C 7.269531 19.738281 7.273438 19.722656 7.273438 19.699219 C 7.273438 19.699219 7.273438 19.695312 7.273438 19.695312 L 7.210938 18.042969 C 7.210938 18.015625 7.203125 17.996094 7.191406 17.988281 C 7.179688 17.972656 7.160156 17.960938 7.117188 17.941406 L 7.128906 17.882812 L 8.324219 17.832031 C 8.363281 17.828125 8.40625 17.828125 8.441406 17.828125 C 8.53125 17.828125 8.609375 17.832031 8.671875 17.84375 C 8.757812 17.855469 8.835938 17.882812 8.902344 17.925781 C 8.980469 17.972656 9.039062 18.042969 9.082031 18.128906 C 9.121094 18.210938 9.140625 18.300781 9.144531 18.394531 C 9.144531 18.40625 9.144531 18.417969 9.144531 18.429688 C 9.144531 18.726562 8.980469 18.917969 8.65625 18.984375 L 9.035156 19.488281 C 9.105469 19.582031 9.15625 19.640625 9.183594 19.664062 C 9.210938 19.6875 9.246094 19.699219 9.300781 19.714844 L 9.289062 19.777344 L 8.585938 19.789062 L 8.59375 19.730469 C 8.640625 19.71875 8.652344 19.707031 8.652344 19.691406 C 8.652344 19.691406 8.652344 19.691406 8.652344 19.6875 C 8.652344 19.679688 8.628906 19.636719 8.585938 19.578125 L 8.1875 19.023438 L 7.695312 19.046875 L 7.71875 19.675781 C 7.71875 19.703125 7.726562 19.71875 7.738281 19.734375 C 7.75 19.746094 7.769531 19.753906 7.8125 19.773438 L 7.800781 19.835938 L 7.1875 19.847656 L 7.199219 19.785156 "/>
<path style=" stroke:none;fill-rule:nonzero;fill:rgb(10.196078%,39.215686%,71.764706%);fill-opacity:1;" d="M 9.707031 19.476562 L 9.359375 17.859375 C 9.351562 17.832031 9.339844 17.8125 9.324219 17.800781 C 9.3125 17.789062 9.285156 17.78125 9.25 17.78125 L 9.242188 17.734375 L 9.820312 17.605469 L 9.832031 17.648438 C 9.800781 17.664062 9.78125 17.679688 9.769531 17.699219 C 9.761719 17.71875 9.761719 17.742188 9.765625 17.769531 L 10.113281 19.382812 C 10.117188 19.414062 10.132812 19.433594 10.148438 19.445312 C 10.164062 19.457031 10.191406 19.464844 10.222656 19.464844 L 10.234375 19.511719 L 9.652344 19.640625 L 9.640625 19.597656 C 9.671875 19.582031 9.691406 19.5625 9.703125 19.542969 C 9.710938 19.527344 9.714844 19.503906 9.707031 19.476562 "/>
<path style=" stroke:none;fill-rule:nonzero;fill:rgb(10.196078%,39.215686%,71.764706%);fill-opacity:1;" d="M 9.722656 19.507812 C 9.722656 19.523438 9.722656 19.539062 9.714844 19.550781 C 9.703125 19.574219 9.679688 19.59375 9.65625 19.59375 L 9.664062 19.621094 L 10.21875 19.496094 L 10.222656 19.480469 C 10.1875 19.480469 10.160156 19.472656 10.140625 19.457031 C 10.117188 19.441406 10.105469 19.417969 10.097656 19.386719 L 9.753906 17.773438 C 9.75 17.757812 9.746094 17.746094 9.746094 17.738281 C 9.746094 17.722656 9.75 17.703125 9.757812 17.691406 C 9.769531 17.667969 9.792969 17.652344 9.816406 17.652344 L 9.808594 17.621094 L 9.253906 17.746094 L 9.25 17.765625 C 9.289062 17.765625 9.316406 17.773438 9.335938 17.789062 C 9.355469 17.804688 9.367188 17.828125 9.375 17.855469 L 9.722656 19.472656 L 9.707031 19.476562 L 9.722656 19.472656 C 9.722656 19.484375 9.722656 19.496094 9.722656 19.507812 M 9.636719 19.644531 L 9.632812 19.582031 C 9.664062 19.566406 9.679688 19.550781 9.6875 19.539062 C 9.691406 19.527344 9.695312 19.519531 9.695312 19.507812 C 9.695312 19.496094 9.695312 19.488281 9.691406 19.476562 L 9.34375 17.863281 C 9.339844 17.835938 9.328125 17.820312 9.316406 17.8125 C 9.304688 17.804688 9.28125 17.796875 9.234375 17.78125 L 9.222656 17.722656 L 9.832031 17.585938 L 9.835938 17.597656 L 9.835938 17.660156 C 9.808594 17.675781 9.792969 17.691406 9.785156 17.707031 C 9.777344 17.714844 9.777344 17.726562 9.777344 17.738281 C 9.777344 17.746094 9.777344 17.753906 9.78125 17.765625 L 10.128906 19.378906 C 10.132812 19.40625 10.144531 19.421875 10.15625 19.433594 C 10.167969 19.441406 10.191406 19.449219 10.238281 19.460938 L 10.25 19.519531 L 9.640625 19.660156 L 9.636719 19.644531 "/>
<path style=" stroke:none;fill-rule:nonzero;fill:rgb(10.196078%,39.215686%,71.764706%);fill-opacity:1;" d="M 11.050781 17.480469 C 10.882812 17.554688 10.765625 17.664062 10.699219 17.816406 C 10.617188 17.996094 10.617188 18.179688 10.695312 18.375 C 10.777344 18.570312 10.90625 18.699219 11.089844 18.761719 C 11.246094 18.8125 11.40625 18.800781 11.574219 18.726562 C 11.742188 18.65625 11.863281 18.542969 11.929688 18.394531 C 11.972656 18.304688 11.992188 18.207031 11.988281 18.105469 C 11.988281 18.015625 11.96875 17.925781 11.933594 17.84375 C 11.851562 17.640625 11.71875 17.507812 11.539062 17.449219 C 11.382812 17.398438 11.222656 17.410156 11.050781 17.480469 M 10.925781 17.175781 C 11.230469 17.042969 11.507812 17.023438 11.757812 17.113281 C 12.019531 17.207031 12.210938 17.394531 12.328125 17.675781 C 12.398438 17.847656 12.421875 18.027344 12.390625 18.21875 C 12.335938 18.585938 12.105469 18.859375 11.699219 19.035156 C 11.398438 19.167969 11.121094 19.1875 10.871094 19.097656 C 10.734375 19.050781 10.621094 18.972656 10.519531 18.867188 C 10.425781 18.773438 10.355469 18.667969 10.304688 18.542969 C 10.230469 18.363281 10.207031 18.179688 10.234375 17.992188 C 10.289062 17.632812 10.519531 17.359375 10.925781 17.175781 "/>
<path style=" stroke:none;fill-rule:nonzero;fill:rgb(10.196078%,39.215686%,71.764706%);fill-opacity:1;" d="M 10.710938 17.824219 C 10.667969 17.910156 10.652344 18 10.652344 18.089844 C 10.652344 18.179688 10.667969 18.273438 10.710938 18.371094 C 10.789062 18.558594 10.917969 18.683594 11.09375 18.746094 C 11.160156 18.769531 11.222656 18.777344 11.289062 18.777344 C 11.378906 18.777344 11.472656 18.753906 11.570312 18.714844 C 11.734375 18.640625 11.851562 18.53125 11.917969 18.386719 C 11.957031 18.300781 11.976562 18.210938 11.976562 18.113281 L 11.976562 18.105469 C 11.972656 18.015625 11.957031 17.929688 11.921875 17.847656 C 11.835938 17.648438 11.710938 17.523438 11.535156 17.464844 C 11.46875 17.445312 11.40625 17.433594 11.34375 17.433594 C 11.25 17.433594 11.15625 17.453125 11.058594 17.496094 C 10.894531 17.566406 10.777344 17.675781 10.710938 17.824219 M 11.085938 18.773438 C 10.898438 18.710938 10.765625 18.578125 10.683594 18.382812 C 10.640625 18.28125 10.621094 18.1875 10.621094 18.089844 C 10.621094 17.996094 10.640625 17.902344 10.683594 17.808594 C 10.753906 17.65625 10.875 17.542969 11.042969 17.46875 L 11.050781 17.480469 L 11.042969 17.46875 C 11.144531 17.421875 11.246094 17.402344 11.34375 17.402344 C 11.410156 17.402344 11.476562 17.414062 11.542969 17.433594 C 11.726562 17.496094 11.863281 17.628906 11.949219 17.835938 C 11.984375 17.921875 12.003906 18.011719 12.003906 18.109375 L 12.003906 18.113281 C 12.003906 18.214844 11.984375 18.3125 11.945312 18.398438 C 11.875 18.554688 11.753906 18.667969 11.582031 18.742188 C 11.480469 18.785156 11.382812 18.808594 11.289062 18.808594 C 11.21875 18.808594 11.148438 18.796875 11.085938 18.773438 M 10.929688 17.191406 C 10.527344 17.375 10.300781 17.640625 10.25 17.992188 C 10.238281 18.042969 10.238281 18.09375 10.238281 18.144531 C 10.238281 18.277344 10.265625 18.410156 10.316406 18.539062 C 10.367188 18.660156 10.4375 18.765625 10.527344 18.855469 C 10.628906 18.957031 10.746094 19.035156 10.875 19.082031 C 10.976562 19.117188 11.082031 19.136719 11.191406 19.136719 C 11.347656 19.136719 11.515625 19.097656 11.695312 19.019531 C 12.097656 18.84375 12.320312 18.578125 12.375 18.214844 C 12.386719 18.160156 12.390625 18.105469 12.390625 18.054688 C 12.390625 17.925781 12.363281 17.800781 12.3125 17.679688 C 12.199219 17.402344 12.011719 17.222656 11.75 17.128906 C 11.652344 17.089844 11.546875 17.074219 11.441406 17.074219 C 11.28125 17.074219 11.109375 17.113281 10.929688 17.191406 Z M 10.867188 19.109375 C 10.730469 19.0625 10.609375 18.984375 10.507812 18.878906 C 10.414062 18.785156 10.34375 18.675781 10.289062 18.550781 C 10.234375 18.417969 10.207031 18.28125 10.207031 18.144531 C 10.207031 18.09375 10.210938 18.042969 10.21875 17.988281 C 10.273438 17.625 10.507812 17.347656 10.917969 17.164062 C 11.101562 17.082031 11.273438 17.042969 11.441406 17.042969 C 11.550781 17.042969 11.660156 17.058594 11.761719 17.097656 C 12.027344 17.195312 12.222656 17.386719 12.34375 17.667969 C 12.390625 17.792969 12.417969 17.921875 12.417969 18.054688 C 12.417969 18.109375 12.414062 18.164062 12.40625 18.21875 C 12.351562 18.59375 12.113281 18.871094 11.707031 19.046875 C 11.523438 19.128906 11.351562 19.167969 11.191406 19.167969 C 11.078125 19.167969 10.96875 19.148438 10.867188 19.109375 "/>
<path style=" stroke:none;fill-rule:nonzero;fill:rgb(10.196078%,39.215686%,71.764706%);fill-opacity:1;" d="M 12.8125 17.113281 L 13.320312 16.714844 C 13.394531 16.652344 13.449219 16.609375 13.476562 16.582031 C 13.503906 16.550781 13.523438 16.519531 13.539062 16.484375 C 13.570312 16.410156 13.558594 16.332031 13.496094 16.25 C 13.433594 16.167969 13.367188 16.136719 13.285156 16.148438 C 13.246094 16.15625 13.210938 16.167969 13.179688 16.1875 C 13.148438 16.207031 13.09375 16.246094 13.015625 16.308594 L 12.507812 16.707031 Z M 13.003906 17.367188 L 13.390625 17.882812 C 13.40625 17.902344 13.425781 17.917969 13.445312 17.921875 C 13.464844 17.925781 13.492188 17.921875 13.523438 17.90625 L 13.550781 17.945312 L 13.078125 18.316406 L 13.050781 18.28125 C 13.070312 18.25 13.082031 18.226562 13.082031 18.207031 C 13.085938 18.1875 13.078125 18.164062 13.0625 18.140625 L 12.074219 16.835938 C 12.054688 16.808594 12.039062 16.796875 12.019531 16.792969 C 12 16.789062 11.972656 16.792969 11.941406 16.804688 L 11.914062 16.769531 L 12.859375 16.023438 C 12.972656 15.933594 13.070312 15.867188 13.148438 15.828125 C 13.226562 15.789062 13.300781 15.765625 13.378906 15.761719 C 13.464844 15.753906 13.550781 15.773438 13.628906 15.816406 C 13.703125 15.859375 13.773438 15.917969 13.828125 15.992188 C 14.015625 16.246094 13.992188 16.5 13.75 16.761719 L 14.367188 16.957031 C 14.472656 16.988281 14.546875 17.007812 14.585938 17.011719 C 14.625 17.011719 14.664062 17 14.703125 16.976562 L 14.730469 17.011719 L 14.183594 17.445312 L 14.15625 17.40625 C 14.191406 17.371094 14.199219 17.34375 14.183594 17.324219 C 14.171875 17.308594 14.128906 17.289062 14.054688 17.265625 L 13.40625 17.050781 L 13.003906 17.367188 "/>
<path style=" stroke:none;fill-rule:nonzero;fill:rgb(10.196078%,39.215686%,71.764706%);fill-opacity:1;" d="M 13.289062 16.164062 C 13.253906 16.171875 13.21875 16.179688 13.1875 16.199219 C 13.15625 16.21875 13.097656 16.257812 13.023438 16.320312 L 12.527344 16.710938 L 12.8125 17.09375 L 13.3125 16.699219 C 13.386719 16.640625 13.4375 16.597656 13.464844 16.570312 C 13.492188 16.539062 13.511719 16.511719 13.523438 16.476562 C 13.535156 16.453125 13.539062 16.429688 13.539062 16.402344 C 13.539062 16.359375 13.523438 16.308594 13.484375 16.257812 C 13.433594 16.191406 13.378906 16.160156 13.316406 16.160156 C 13.308594 16.160156 13.296875 16.160156 13.289062 16.164062 M 12.8125 17.113281 L 12.824219 17.105469 Z M 12.484375 16.707031 L 13.003906 16.292969 C 13.082031 16.234375 13.136719 16.191406 13.171875 16.175781 C 13.207031 16.152344 13.246094 16.140625 13.285156 16.136719 C 13.296875 16.132812 13.308594 16.128906 13.316406 16.128906 C 13.390625 16.128906 13.453125 16.167969 13.507812 16.242188 C 13.546875 16.296875 13.570312 16.347656 13.570312 16.402344 C 13.570312 16.433594 13.566406 16.464844 13.550781 16.488281 C 13.535156 16.527344 13.511719 16.5625 13.484375 16.589844 C 13.457031 16.621094 13.40625 16.664062 13.328125 16.726562 L 12.820312 17.128906 L 12.808594 17.136719 Z M 13.082031 18.292969 L 13.53125 17.941406 L 13.519531 17.925781 C 13.496094 17.933594 13.476562 17.9375 13.460938 17.9375 C 13.453125 17.9375 13.449219 17.9375 13.441406 17.9375 C 13.417969 17.933594 13.398438 17.917969 13.378906 17.890625 L 12.992188 17.378906 L 12.980469 17.367188 L 13.410156 17.035156 L 14.0625 17.25 C 14.136719 17.277344 14.175781 17.292969 14.191406 17.3125 C 14.203125 17.320312 14.203125 17.332031 14.203125 17.34375 C 14.203125 17.367188 14.191406 17.386719 14.175781 17.40625 L 14.1875 17.421875 L 14.707031 17.011719 L 14.699219 16.996094 C 14.664062 17.015625 14.632812 17.023438 14.597656 17.023438 C 14.59375 17.023438 14.589844 17.023438 14.585938 17.023438 C 14.542969 17.023438 14.46875 17.003906 14.359375 16.96875 L 13.722656 16.765625 L 13.738281 16.75 C 13.871094 16.605469 13.9375 16.464844 13.9375 16.328125 C 13.9375 16.21875 13.894531 16.113281 13.816406 16.003906 C 13.757812 15.929688 13.695312 15.871094 13.625 15.832031 C 13.554688 15.792969 13.484375 15.773438 13.410156 15.773438 C 13.398438 15.773438 13.390625 15.773438 13.378906 15.773438 C 13.304688 15.78125 13.230469 15.800781 13.15625 15.84375 C 13.078125 15.882812 12.980469 15.945312 12.867188 16.035156 L 11.933594 16.773438 L 11.945312 16.789062 C 11.96875 16.777344 11.984375 16.777344 12.003906 16.777344 C 12.011719 16.777344 12.015625 16.777344 12.019531 16.777344 C 12.046875 16.78125 12.066406 16.800781 12.085938 16.824219 L 13.074219 18.132812 C 13.089844 18.15625 13.097656 18.179688 13.097656 18.203125 L 13.097656 18.207031 C 13.097656 18.230469 13.085938 18.253906 13.070312 18.28125 Z M 13.066406 18.328125 L 13.03125 18.28125 L 13.039062 18.269531 C 13.058594 18.242188 13.066406 18.21875 13.070312 18.207031 L 13.070312 18.203125 C 13.070312 18.1875 13.0625 18.171875 13.046875 18.152344 L 12.0625 16.84375 C 12.046875 16.820312 12.027344 16.808594 12.015625 16.804688 C 12.011719 16.804688 12.007812 16.804688 12.003906 16.804688 C 11.988281 16.804688 11.96875 16.808594 11.945312 16.820312 L 11.933594 16.824219 L 11.929688 16.816406 L 11.890625 16.769531 L 12.847656 16.011719 C 12.964844 15.921875 13.0625 15.855469 13.140625 15.816406 C 13.21875 15.773438 13.300781 15.75 13.375 15.746094 C 13.386719 15.746094 13.398438 15.746094 13.410156 15.746094 C 13.488281 15.742188 13.566406 15.761719 13.636719 15.804688 C 13.710938 15.847656 13.78125 15.910156 13.839844 15.984375 C 13.921875 16.097656 13.964844 16.210938 13.964844 16.328125 C 13.964844 16.46875 13.902344 16.613281 13.777344 16.75 L 14.371094 16.941406 C 14.476562 16.972656 14.550781 16.992188 14.585938 16.996094 L 14.597656 16.996094 C 14.632812 16.996094 14.664062 16.984375 14.691406 16.964844 L 14.707031 16.957031 L 14.714844 16.964844 L 14.75 17.015625 L 14.179688 17.464844 L 14.171875 17.453125 L 14.136719 17.40625 L 14.144531 17.394531 C 14.167969 17.375 14.175781 17.355469 14.175781 17.34375 C 14.175781 17.339844 14.171875 17.335938 14.171875 17.332031 C 14.167969 17.324219 14.125 17.300781 14.050781 17.28125 L 13.414062 17.0625 L 13.023438 17.371094 L 13.402344 17.871094 C 13.417969 17.894531 13.433594 17.902344 13.449219 17.90625 C 13.449219 17.910156 13.453125 17.910156 13.460938 17.910156 C 13.472656 17.910156 13.492188 17.902344 13.515625 17.894531 L 13.527344 17.890625 L 13.535156 17.898438 L 13.570312 17.949219 L 13.074219 18.335938 L 13.066406 18.328125 "/>
<path style=" stroke:none;fill-rule:nonzero;fill:rgb(10.196078%,39.215686%,71.764706%);fill-opacity:1;" d="M 14.742188 14.183594 L 14.945312 14.65625 L 14.90625 14.671875 C 14.898438 14.664062 14.894531 14.660156 14.890625 14.65625 C 14.867188 14.636719 14.820312 14.636719 14.757812 14.65625 C 14.5625 14.710938 14.398438 14.828125 14.257812 15.007812 C 14.195312 15.085938 14.148438 15.164062 14.121094 15.238281 C 14.097656 15.292969 14.09375 15.347656 14.101562 15.398438 C 14.109375 15.449219 14.128906 15.488281 14.164062 15.519531 C 14.21875 15.566406 14.285156 15.558594 14.359375 15.507812 C 14.398438 15.480469 14.472656 15.414062 14.574219 15.304688 L 14.730469 15.144531 C 14.820312 15.050781 14.902344 14.980469 14.972656 14.933594 C 15.042969 14.882812 15.113281 14.847656 15.183594 14.828125 C 15.261719 14.804688 15.339844 14.804688 15.421875 14.824219 C 15.503906 14.839844 15.574219 14.878906 15.640625 14.933594 C 15.746094 15.019531 15.8125 15.128906 15.839844 15.265625 C 15.863281 15.390625 15.839844 15.53125 15.773438 15.691406 C 15.722656 15.8125 15.652344 15.929688 15.5625 16.039062 C 15.40625 16.242188 15.199219 16.398438 14.953125 16.519531 C 14.898438 16.542969 14.871094 16.5625 14.863281 16.570312 C 14.855469 16.578125 14.851562 16.601562 14.851562 16.632812 L 14.808594 16.652344 L 14.578125 16.1875 L 14.617188 16.167969 C 14.625 16.171875 14.628906 16.175781 14.628906 16.179688 C 14.664062 16.207031 14.707031 16.214844 14.757812 16.207031 C 14.839844 16.191406 14.933594 16.148438 15.042969 16.070312 C 15.15625 15.996094 15.246094 15.914062 15.316406 15.824219 C 15.394531 15.726562 15.445312 15.628906 15.46875 15.53125 C 15.480469 15.476562 15.480469 15.425781 15.46875 15.378906 C 15.457031 15.332031 15.433594 15.292969 15.402344 15.265625 C 15.351562 15.226562 15.296875 15.226562 15.234375 15.261719 C 15.1875 15.285156 15.113281 15.351562 15.011719 15.457031 L 14.859375 15.613281 C 14.753906 15.71875 14.679688 15.789062 14.632812 15.832031 C 14.585938 15.867188 14.53125 15.902344 14.472656 15.929688 C 14.382812 15.972656 14.292969 15.984375 14.195312 15.96875 C 14.109375 15.953125 14.03125 15.914062 13.953125 15.851562 C 13.828125 15.75 13.757812 15.617188 13.75 15.460938 C 13.730469 15.257812 13.816406 15.039062 14 14.808594 C 14.074219 14.710938 14.15625 14.628906 14.242188 14.5625 C 14.328125 14.492188 14.445312 14.417969 14.597656 14.335938 C 14.644531 14.304688 14.675781 14.285156 14.679688 14.277344 C 14.695312 14.261719 14.699219 14.234375 14.699219 14.203125 L 14.742188 14.183594 "/>
<path style=" stroke:none;fill-rule:nonzero;fill:rgb(10.196078%,39.215686%,71.764706%);fill-opacity:1;" d="M 14.597656 16.195312 L 14.820312 16.636719 L 14.835938 16.632812 C 14.839844 16.597656 14.839844 16.574219 14.851562 16.558594 C 14.863281 16.546875 14.890625 16.53125 14.945312 16.503906 C 15.191406 16.386719 15.394531 16.230469 15.550781 16.03125 C 15.640625 15.917969 15.707031 15.804688 15.757812 15.6875 C 15.808594 15.570312 15.832031 15.464844 15.832031 15.367188 C 15.832031 15.335938 15.832031 15.300781 15.824219 15.269531 C 15.796875 15.136719 15.734375 15.027344 15.632812 14.945312 C 15.570312 14.890625 15.496094 14.855469 15.417969 14.835938 C 15.378906 14.828125 15.34375 14.824219 15.308594 14.824219 C 15.269531 14.824219 15.230469 14.832031 15.191406 14.839844 C 15.121094 14.863281 15.046875 14.898438 14.980469 14.945312 C 14.910156 14.992188 14.832031 15.0625 14.738281 15.15625 L 14.585938 15.316406 C 14.480469 15.425781 14.410156 15.492188 14.367188 15.523438 C 14.324219 15.550781 14.285156 15.566406 14.25 15.566406 C 14.214844 15.566406 14.183594 15.554688 14.15625 15.53125 C 14.117188 15.5 14.09375 15.457031 14.085938 15.402344 C 14.082031 15.386719 14.082031 15.371094 14.082031 15.355469 C 14.082031 15.316406 14.089844 15.273438 14.105469 15.234375 C 14.136719 15.15625 14.183594 15.078125 14.246094 14.996094 C 14.386719 14.816406 14.558594 14.699219 14.753906 14.640625 C 14.785156 14.628906 14.8125 14.625 14.835938 14.625 C 14.863281 14.625 14.882812 14.628906 14.898438 14.644531 C 14.90625 14.648438 14.910156 14.652344 14.898438 14.65625 L 14.929688 14.644531 L 14.734375 14.199219 L 14.714844 14.203125 C 14.714844 14.238281 14.710938 14.265625 14.695312 14.289062 C 14.683594 14.300781 14.652344 14.316406 14.601562 14.347656 C 14.453125 14.429688 14.335938 14.507812 14.25 14.570312 C 14.167969 14.640625 14.085938 14.71875 14.007812 14.816406 C 13.84375 15.027344 13.757812 15.226562 13.757812 15.410156 C 13.757812 15.425781 13.761719 15.445312 13.761719 15.460938 C 13.773438 15.613281 13.839844 15.738281 13.964844 15.839844 C 14.035156 15.902344 14.117188 15.9375 14.199219 15.953125 C 14.226562 15.957031 14.25 15.957031 14.277344 15.957031 C 14.339844 15.957031 14.402344 15.945312 14.464844 15.917969 C 14.523438 15.886719 14.578125 15.855469 14.625 15.816406 C 14.671875 15.78125 14.746094 15.707031 14.847656 15.601562 L 15 15.445312 C 15.105469 15.339844 15.179688 15.273438 15.226562 15.25 C 15.257812 15.230469 15.289062 15.21875 15.320312 15.21875 C 15.351562 15.21875 15.382812 15.230469 15.410156 15.253906 C 15.445312 15.285156 15.472656 15.324219 15.484375 15.375 C 15.488281 15.398438 15.492188 15.425781 15.492188 15.449219 C 15.492188 15.476562 15.488281 15.503906 15.484375 15.535156 C 15.460938 15.632812 15.40625 15.734375 15.328125 15.832031 C 15.257812 15.925781 15.164062 16.007812 15.054688 16.085938 C 14.941406 16.160156 14.84375 16.207031 14.761719 16.222656 C 14.746094 16.222656 14.734375 16.226562 14.722656 16.226562 C 14.683594 16.226562 14.648438 16.214844 14.621094 16.191406 C 14.621094 16.191406 14.617188 16.1875 14.621094 16.183594 Z M 14.554688 16.179688 L 14.570312 16.175781 L 14.628906 16.15625 C 14.632812 16.160156 14.636719 16.164062 14.640625 16.167969 C 14.664062 16.1875 14.6875 16.195312 14.722656 16.195312 C 14.734375 16.195312 14.746094 16.191406 14.757812 16.191406 C 14.832031 16.179688 14.925781 16.136719 15.035156 16.058594 C 15.144531 15.984375 15.234375 15.90625 15.308594 15.816406 C 15.382812 15.71875 15.433594 15.621094 15.453125 15.527344 C 15.460938 15.5 15.460938 15.476562 15.460938 15.449219 C 15.460938 15.425781 15.460938 15.402344 15.457031 15.382812 C 15.445312 15.335938 15.421875 15.304688 15.394531 15.28125 C 15.367188 15.257812 15.34375 15.25 15.320312 15.25 C 15.296875 15.25 15.269531 15.257812 15.242188 15.273438 C 15.199219 15.296875 15.125 15.363281 15.023438 15.46875 L 14.867188 15.625 C 14.765625 15.730469 14.691406 15.800781 14.644531 15.839844 C 14.59375 15.882812 14.539062 15.914062 14.476562 15.945312 C 14.410156 15.976562 14.347656 15.988281 14.277344 15.988281 C 14.25 15.988281 14.222656 15.988281 14.195312 15.984375 C 14.105469 15.96875 14.023438 15.929688 13.945312 15.863281 C 13.816406 15.757812 13.746094 15.625 13.734375 15.464844 C 13.730469 15.445312 13.730469 15.429688 13.730469 15.410156 C 13.730469 15.214844 13.816406 15.011719 13.984375 14.796875 C 14.0625 14.699219 14.144531 14.617188 14.230469 14.546875 C 14.320312 14.480469 14.4375 14.40625 14.589844 14.320312 C 14.636719 14.292969 14.667969 14.273438 14.671875 14.265625 C 14.679688 14.257812 14.6875 14.234375 14.695312 14.1875 L 14.738281 14.167969 L 14.75 14.164062 L 14.964844 14.660156 L 14.953125 14.667969 L 14.894531 14.683594 C 14.886719 14.675781 14.882812 14.671875 14.878906 14.667969 C 14.871094 14.660156 14.855469 14.65625 14.835938 14.65625 C 14.816406 14.65625 14.789062 14.660156 14.765625 14.667969 C 14.574219 14.726562 14.40625 14.839844 14.269531 15.019531 C 14.207031 15.09375 14.160156 15.171875 14.132812 15.246094 C 14.121094 15.285156 14.113281 15.320312 14.113281 15.355469 C 14.113281 15.371094 14.113281 15.382812 14.117188 15.398438 C 14.121094 15.445312 14.144531 15.480469 14.171875 15.503906 C 14.195312 15.523438 14.222656 15.535156 14.25 15.535156 C 14.277344 15.535156 14.3125 15.523438 14.351562 15.496094 C 14.386719 15.46875 14.460938 15.402344 14.5625 15.296875 L 14.71875 15.136719 C 14.808594 15.039062 14.894531 14.96875 14.964844 14.917969 C 15.035156 14.871094 15.109375 14.835938 15.183594 14.8125 C 15.222656 14.800781 15.265625 14.792969 15.308594 14.792969 C 15.347656 14.792969 15.386719 14.796875 15.425781 14.808594 C 15.507812 14.824219 15.582031 14.867188 15.648438 14.921875 C 15.757812 15.007812 15.824219 15.125 15.851562 15.261719 C 15.859375 15.296875 15.863281 15.332031 15.863281 15.367188 C 15.863281 15.46875 15.835938 15.578125 15.785156 15.699219 C 15.734375 15.820312 15.664062 15.9375 15.574219 16.050781 C 15.414062 16.253906 15.207031 16.414062 14.957031 16.53125 C 14.90625 16.558594 14.875 16.578125 14.875 16.578125 C 14.871094 16.582031 14.867188 16.601562 14.859375 16.648438 L 14.804688 16.671875 L 14.554688 16.179688 "/>
<path style=" stroke:none;fill-rule:nonzero;fill:rgb(10.196078%,39.215686%,71.764706%);fill-opacity:1;" d="M 15.496094 9.515625 C 15.496094 13.839844 12.074219 17.339844 7.851562 17.339844 C 3.625 17.339844 0.203125 13.839844 0.203125 9.515625 C 0.203125 5.195312 3.625 1.691406 7.851562 1.691406 C 12.074219 1.691406 15.496094 5.195312 15.496094 9.515625 "/>
<path style=" stroke:none;fill-rule:nonzero;fill:rgb(98.431373%,74.901961%,8.627451%);fill-opacity:1;" d="M 7.847656 16.011719 C 4.207031 16.011719 1.253906 12.992188 1.253906 9.265625 C 1.253906 5.539062 4.207031 2.519531 7.847656 2.519531 C 11.488281 2.519531 14.4375 5.542969 14.4375 9.265625 C 14.4375 12.992188 11.488281 16.011719 7.847656 16.011719 M 7.84375 2.070312 C 3.960938 2.070312 0.808594 5.292969 0.808594 9.269531 C 0.808594 13.246094 3.960938 16.46875 7.84375 16.46875 C 11.730469 16.46875 14.882812 13.246094 14.882812 9.269531 C 14.882812 5.292969 11.730469 2.070312 7.84375 2.070312 "/>
<path style=" stroke:none;fill-rule:nonzero;fill:rgb(98.431373%,74.901961%,8.627451%);fill-opacity:1;" d="M 3.976562 5.859375 C 3.976562 5.859375 7.898438 11.21875 14.132812 12.4375 L 13.007812 12.765625 C 13.007812 12.765625 9.109375 11.84375 4.007812 6.015625 "/>
<path style=" stroke:none;fill-rule:nonzero;fill:rgb(98.431373%,74.901961%,8.627451%);fill-opacity:1;" d="M 2.128906 13.40625 C 2.128906 13.40625 7.203125 12.550781 12.792969 12.6875 L 13.914062 12.441406 L 13.308594 13.792969 C 13.308594 13.792969 7.40625 13.585938 3.039062 14.054688 C 2.257812 13.945312 2.363281 13.65625 2.363281 13.65625 L 2.128906 13.40625 "/>
<path style=" stroke:none;fill-rule:nonzero;fill:rgb(98.431373%,74.901961%,8.627451%);fill-opacity:1;" d="M 2.878906 14.140625 C 2.878906 14.140625 9.492188 13.847656 12.847656 14.300781 C 12.9375 14.3125 13.121094 13.992188 13.121094 13.992188 C 13.121094 13.992188 10.683594 13.648438 3.230469 13.914062 C 2.019531 13.957031 2.878906 14.140625 2.878906 14.140625 "/>
<path style=" stroke:none;fill-rule:nonzero;fill:rgb(98.431373%,74.901961%,8.627451%);fill-opacity:1;" d="M 3.65625 6.4375 C 2.449219 9.359375 1.027344 10.527344 1.027344 10.527344 L 1.109375 11.113281 C 1.109375 11.113281 2.679688 9.03125 3.65625 6.703125 C 4.195312 5.417969 3.65625 6.4375 3.65625 6.4375 "/>
<path style=" stroke:none;fill-rule:nonzero;fill:rgb(98.431373%,74.901961%,8.627451%);fill-opacity:1;" d="M 3.761719 5.632812 L 3.59375 5.675781 C 3.59375 5.675781 3.425781 14.011719 3.535156 14.941406 C 3.542969 15.023438 3.941406 14.949219 3.941406 14.949219 C 3.941406 14.949219 4.074219 15.515625 4.335938 15.277344 C 4.105469 12.324219 4.050781 5.460938 4.050781 5.460938 L 3.769531 5.460938 L 3.761719 5.632812 "/>
<path style=" stroke:none;fill-rule:nonzero;fill:rgb(98.431373%,74.901961%,8.627451%);fill-opacity:1;" d="M 4.15625 5.78125 L 4.347656 5.613281 L 4.550781 5.707031 C 4.550781 5.707031 4.757812 13.566406 5.125 15.769531 L 4.925781 15.753906 C 4.925781 15.753906 4.523438 15.730469 4.496094 15.472656 C 4.335938 14 4.15625 5.78125 4.15625 5.78125 "/>
<path style=" stroke:none;fill-rule:nonzero;fill:rgb(98.431373%,74.901961%,8.627451%);fill-opacity:1;" d="M 3.070312 13.578125 L 2.929688 13.550781 L 3.5 10.273438 L 3.636719 10.296875 Z M 3.070312 13.578125 "/>
<path style=" stroke:none;fill-rule:nonzero;fill:rgb(98.431373%,74.901961%,8.627451%);fill-opacity:1;" d="M 2.5625 13.515625 L 2.425781 13.488281 L 3.570312 6.878906 L 3.710938 6.902344 Z M 2.5625 13.515625 "/>
<path style=" stroke:none;fill-rule:nonzero;fill:rgb(98.431373%,74.901961%,8.627451%);fill-opacity:1;" d="M 2.15625 13.082031 L 2.050781 12.941406 L 2.84375 8.304688 L 3.039062 7.988281 Z M 2.15625 13.082031 "/>
<path style=" stroke:none;fill-rule:nonzero;fill:rgb(98.431373%,74.901961%,8.627451%);fill-opacity:1;" d="M 5.484375 13.214844 L 5.617188 13.171875 L 4.347656 9.054688 L 4.457031 9.917969 Z M 5.484375 13.214844 "/>
<path style=" stroke:none;fill-rule:nonzero;fill:rgb(98.431373%,74.901961%,8.627451%);fill-opacity:1;" d="M 5.976562 13.089844 L 6.109375 13.046875 L 4.398438 7.417969 L 4.410156 7.984375 Z M 5.976562 13.089844 "/>
<path style=" stroke:none;fill-rule:nonzero;fill:rgb(98.431373%,74.901961%,8.627451%);fill-opacity:1;" d="M 6.546875 12.980469 L 6.679688 12.941406 L 4.832031 6.898438 L 4.601562 6.652344 Z M 6.546875 12.980469 "/>
<path style=" stroke:none;fill-rule:nonzero;fill:rgb(98.431373%,74.901961%,8.627451%);fill-opacity:1;" d="M 5.410156 7.527344 L 7.101562 12.96875 L 7.238281 12.921875 L 5.648438 7.761719 L 5.566406 7.675781 "/>
<path style=" stroke:none;fill-rule:nonzero;fill:rgb(98.431373%,74.901961%,8.627451%);fill-opacity:1;" d="M 6.242188 8.335938 L 7.679688 12.972656 L 7.8125 12.929688 L 6.453125 8.519531 L 6.265625 8.335938 "/>
<path style=" stroke:none;fill-rule:nonzero;fill:rgb(98.431373%,74.901961%,8.627451%);fill-opacity:1;" d="M 8.199219 12.875 L 8.332031 12.832031 L 7.191406 9.164062 L 7.003906 9.015625 Z M 8.199219 12.875 "/>
<path style=" stroke:none;fill-rule:nonzero;fill:rgb(98.431373%,74.901961%,8.627451%);fill-opacity:1;" d="M 8.792969 12.847656 L 8.925781 12.804688 L 8.007812 9.832031 L 7.792969 9.632812 Z M 8.792969 12.847656 "/>
<path style=" stroke:none;fill-rule:nonzero;fill:rgb(98.431373%,74.901961%,8.627451%);fill-opacity:1;" d="M 8.53125 10.214844 L 9.347656 12.832031 L 9.480469 12.789062 L 8.738281 10.375 L 8.609375 10.296875 "/>
<path style=" stroke:none;fill-rule:nonzero;fill:rgb(98.431373%,74.901961%,8.627451%);fill-opacity:1;" d="M 9.300781 10.808594 L 9.925781 12.835938 L 10.058594 12.792969 L 9.480469 10.925781 L 9.320312 10.875 "/>
<path style=" stroke:none;fill-rule:nonzero;fill:rgb(98.431373%,74.901961%,8.627451%);fill-opacity:1;" d="M 10.726562 13.527344 L 10.859375 13.484375 L 10.234375 11.410156 L 10 11.125 Z M 10.726562 13.527344 "/>
<path style=" stroke:none;fill-rule:nonzero;fill:rgb(98.431373%,74.901961%,8.627451%);fill-opacity:1;" d="M 10.691406 11.5625 L 11.25 13.378906 L 11.382812 13.335938 L 10.90625 11.773438 Z M 10.691406 11.5625 "/>
<path style=" stroke:none;fill-rule:nonzero;fill:rgb(98.431373%,74.901961%,8.627451%);fill-opacity:1;" d="M 11.40625 12.011719 L 11.8125 13.324219 L 11.949219 13.28125 L 11.609375 12.1875 Z M 11.40625 12.011719 "/>
<path style=" stroke:none;fill-rule:nonzero;fill:rgb(98.431373%,74.901961%,8.627451%);fill-opacity:1;" d="M 1.476562 11.800781 L 1.3125 11.667969 L 1.738281 9.953125 L 1.878906 9.96875 Z M 1.476562 11.800781 "/>
<path style=" stroke:none;fill-rule:nonzero;fill:rgb(98.431373%,74.901961%,8.627451%);fill-opacity:1;" d="M 1.84375 12.28125 L 1.734375 12.140625 L 2.230469 9.273438 L 2.410156 9.007812 Z M 1.84375 12.28125 "/>
<path style=" stroke:none;fill-rule:nonzero;fill:rgb(10.196078%,39.215686%,71.764706%);fill-opacity:1;" d="M 0.886719 3.925781 L 0.851562 3.953125 C 0.847656 3.945312 0.839844 3.941406 0.832031 3.933594 C 0.816406 3.921875 0.792969 3.921875 0.761719 3.933594 C 0.730469 3.945312 0.699219 3.964844 0.664062 3.992188 C 0.632812 4.015625 0.597656 4.046875 0.5625 4.085938 C 0.53125 4.121094 0.5 4.160156 0.472656 4.195312 C 0.441406 4.238281 0.417969 4.289062 0.398438 4.339844 C 0.378906 4.394531 0.371094 4.449219 0.371094 4.5 C 0.375 4.554688 0.386719 4.605469 0.414062 4.660156 C 0.4375 4.710938 0.480469 4.757812 0.539062 4.800781 C 0.597656 4.84375 0.65625 4.871094 0.710938 4.882812 C 0.769531 4.894531 0.820312 4.890625 0.871094 4.875 C 0.921875 4.859375 0.96875 4.835938 1.011719 4.800781 C 1.054688 4.765625 1.09375 4.726562 1.125 4.683594 C 1.175781 4.613281 1.214844 4.546875 1.242188 4.484375 C 1.269531 4.421875 1.289062 4.367188 1.304688 4.320312 L 1.152344 4.207031 L 0.988281 4.4375 C 0.976562 4.453125 0.972656 4.46875 0.972656 4.480469 C 0.972656 4.496094 0.984375 4.511719 1.007812 4.53125 L 0.984375 4.566406 L 0.757812 4.394531 L 0.78125 4.363281 C 0.804688 4.375 0.820312 4.378906 0.832031 4.375 C 0.84375 4.371094 0.855469 4.359375 0.867188 4.34375 L 1.1875 3.894531 L 1.21875 3.917969 C 1.207031 3.945312 1.199219 3.960938 1.199219 3.972656 C 1.199219 3.980469 1.207031 3.992188 1.222656 4.003906 L 1.421875 4.152344 C 1.433594 4.160156 1.445312 4.164062 1.453125 4.15625 C 1.460938 4.152344 1.472656 4.148438 1.484375 4.140625 L 1.511719 4.164062 C 1.511719 4.222656 1.503906 4.28125 1.488281 4.339844 C 1.476562 4.394531 1.457031 4.449219 1.433594 4.503906 C 1.414062 4.554688 1.386719 4.605469 1.355469 4.652344 C 1.328125 4.699219 1.296875 4.742188 1.265625 4.785156 C 1.207031 4.871094 1.140625 4.941406 1.070312 4.992188 C 1 5.046875 0.925781 5.082031 0.851562 5.101562 C 0.777344 5.121094 0.699219 5.121094 0.621094 5.105469 C 0.542969 5.089844 0.46875 5.054688 0.394531 5 C 0.320312 4.941406 0.265625 4.878906 0.226562 4.808594 C 0.1875 4.738281 0.164062 4.664062 0.160156 4.582031 C 0.152344 4.503906 0.164062 4.421875 0.191406 4.335938 C 0.21875 4.25 0.261719 4.164062 0.324219 4.082031 C 0.359375 4.027344 0.402344 3.980469 0.441406 3.9375 C 0.484375 3.894531 0.523438 3.859375 0.558594 3.828125 C 0.59375 3.796875 0.625 3.773438 0.648438 3.753906 C 0.671875 3.734375 0.6875 3.722656 0.691406 3.714844 C 0.699219 3.707031 0.703125 3.695312 0.703125 3.6875 C 0.703125 3.675781 0.703125 3.667969 0.703125 3.65625 L 0.730469 3.644531 L 0.886719 3.925781 "/>
<path style=" stroke:none;fill-rule:nonzero;fill:rgb(10.196078%,39.215686%,71.764706%);fill-opacity:1;" d="M 1.605469 2.9375 C 1.578125 2.988281 1.558594 3.042969 1.546875 3.097656 C 1.535156 3.152344 1.535156 3.207031 1.550781 3.265625 C 1.5625 3.320312 1.585938 3.371094 1.628906 3.417969 C 1.667969 3.460938 1.714844 3.492188 1.769531 3.511719 C 1.824219 3.527344 1.875 3.535156 1.929688 3.527344 C 1.984375 3.523438 2.039062 3.507812 2.09375 3.480469 C 2.144531 3.457031 2.191406 3.425781 2.230469 3.386719 C 2.273438 3.351562 2.308594 3.304688 2.335938 3.253906 C 2.367188 3.203125 2.386719 3.148438 2.398438 3.09375 C 2.40625 3.039062 2.40625 2.984375 2.394531 2.925781 C 2.382812 2.871094 2.355469 2.820312 2.316406 2.773438 C 2.273438 2.730469 2.226562 2.695312 2.175781 2.679688 C 2.121094 2.664062 2.066406 2.65625 2.011719 2.664062 C 1.957031 2.667969 1.90625 2.683594 1.851562 2.707031 C 1.800781 2.734375 1.753906 2.765625 1.710938 2.804688 C 1.671875 2.839844 1.636719 2.886719 1.605469 2.9375 M 1.78125 2.511719 C 1.859375 2.472656 1.9375 2.445312 2.023438 2.4375 C 2.105469 2.425781 2.1875 2.433594 2.269531 2.457031 C 2.351562 2.484375 2.425781 2.535156 2.492188 2.609375 C 2.558594 2.6875 2.601562 2.765625 2.621094 2.851562 C 2.636719 2.9375 2.636719 3.023438 2.617188 3.105469 C 2.601562 3.1875 2.570312 3.269531 2.519531 3.339844 C 2.476562 3.414062 2.421875 3.480469 2.363281 3.535156 C 2.304688 3.589844 2.234375 3.636719 2.160156 3.679688 C 2.085938 3.71875 2.003906 3.746094 1.921875 3.753906 C 1.839844 3.765625 1.757812 3.757812 1.675781 3.734375 C 1.59375 3.707031 1.519531 3.65625 1.453125 3.582031 C 1.382812 3.503906 1.339844 3.425781 1.324219 3.339844 C 1.304688 3.253906 1.308594 3.167969 1.324219 3.085938 C 1.34375 3.003906 1.375 2.921875 1.421875 2.847656 C 1.464844 2.773438 1.515625 2.707031 1.578125 2.652344 C 1.636719 2.597656 1.703125 2.550781 1.78125 2.511719 "/>
<path style=" stroke:none;fill-rule:nonzero;fill:rgb(10.196078%,39.215686%,71.764706%);fill-opacity:1;" d="M 4.050781 2.292969 C 4.039062 2.296875 4.023438 2.304688 4.003906 2.316406 L 3.121094 2.878906 L 3.101562 2.84375 C 3.136719 2.820312 3.148438 2.796875 3.136719 2.773438 L 2.613281 1.914062 C 2.601562 1.890625 2.574219 1.890625 2.535156 1.914062 L 2.515625 1.878906 L 2.835938 1.675781 L 2.855469 1.710938 C 2.820312 1.734375 2.8125 1.757812 2.824219 1.777344 L 3.28125 2.535156 L 3.898438 2.144531 C 3.917969 2.132812 3.929688 2.117188 3.933594 2.101562 C 3.941406 2.085938 3.941406 2.070312 3.929688 2.054688 L 3.964844 2.03125 L 4.121094 2.292969 L 4.089844 2.3125 C 4.078125 2.296875 4.0625 2.289062 4.050781 2.292969 "/>
<path style=" stroke:none;fill-rule:nonzero;fill:rgb(10.196078%,39.215686%,71.764706%);fill-opacity:1;" d="M 4.804688 1.742188 C 4.871094 1.714844 4.921875 1.6875 4.964844 1.65625 C 5.007812 1.628906 5.039062 1.59375 5.0625 1.550781 C 5.082031 1.511719 5.089844 1.460938 5.085938 1.410156 C 5.085938 1.355469 5.070312 1.292969 5.039062 1.222656 C 5.011719 1.148438 4.980469 1.09375 4.949219 1.054688 C 4.914062 1.011719 4.875 0.984375 4.835938 0.96875 C 4.792969 0.953125 4.746094 0.949219 4.695312 0.957031 C 4.640625 0.964844 4.585938 0.980469 4.519531 1.007812 L 4.207031 1.136719 L 4.492188 1.871094 Z M 4.53125 0.796875 C 4.605469 0.765625 4.679688 0.75 4.753906 0.746094 C 4.824219 0.742188 4.894531 0.753906 4.960938 0.777344 C 5.023438 0.804688 5.085938 0.84375 5.136719 0.902344 C 5.191406 0.960938 5.234375 1.035156 5.273438 1.128906 C 5.308594 1.222656 5.324219 1.308594 5.324219 1.386719 C 5.324219 1.464844 5.308594 1.539062 5.28125 1.601562 C 5.25 1.664062 5.207031 1.722656 5.152344 1.769531 C 5.097656 1.820312 5.03125 1.859375 4.957031 1.886719 L 4.285156 2.160156 L 4.269531 2.125 C 4.300781 2.113281 4.3125 2.09375 4.300781 2.070312 L 3.9375 1.125 C 3.925781 1.101562 3.90625 1.09375 3.875 1.109375 L 3.859375 1.070312 L 4.53125 0.796875 "/>
<path style=" stroke:none;fill-rule:nonzero;fill:rgb(10.196078%,39.215686%,71.764706%);fill-opacity:1;" d="M 6.671875 0.46875 C 6.667969 0.453125 6.660156 0.441406 6.648438 0.433594 C 6.632812 0.429688 6.613281 0.429688 6.582031 0.433594 L 5.886719 0.574219 L 5.941406 0.847656 L 6.359375 0.761719 C 6.386719 0.757812 6.410156 0.746094 6.421875 0.738281 C 6.4375 0.726562 6.441406 0.703125 6.433594 0.667969 L 6.472656 0.660156 L 6.539062 1.003906 L 6.5 1.011719 C 6.492188 0.976562 6.480469 0.957031 6.464844 0.949219 C 6.445312 0.945312 6.421875 0.945312 6.394531 0.949219 L 5.976562 1.035156 L 6.03125 1.335938 L 6.75 1.195312 C 6.769531 1.1875 6.785156 1.179688 6.796875 1.167969 C 6.808594 1.15625 6.8125 1.140625 6.808594 1.121094 L 6.847656 1.113281 L 6.90625 1.414062 L 6.867188 1.421875 C 6.863281 1.402344 6.855469 1.390625 6.839844 1.390625 C 6.824219 1.386719 6.808594 1.390625 6.785156 1.394531 L 5.789062 1.59375 L 5.78125 1.554688 C 5.789062 1.554688 5.800781 1.546875 5.804688 1.539062 C 5.8125 1.53125 5.816406 1.519531 5.8125 1.507812 L 5.621094 0.511719 C 5.621094 0.5 5.613281 0.492188 5.605469 0.484375 C 5.597656 0.480469 5.585938 0.480469 5.578125 0.480469 L 5.570312 0.441406 L 6.546875 0.246094 C 6.574219 0.242188 6.59375 0.230469 6.605469 0.21875 C 6.617188 0.207031 6.621094 0.195312 6.617188 0.179688 L 6.65625 0.171875 L 6.710938 0.460938 L 6.671875 0.46875 "/>
<path style=" stroke:none;fill-rule:nonzero;fill:rgb(10.196078%,39.215686%,71.764706%);fill-opacity:1;" d="M 7.230469 1.292969 C 7.257812 1.292969 7.269531 1.28125 7.269531 1.253906 L 7.269531 0.242188 C 7.269531 0.214844 7.257812 0.199219 7.230469 0.199219 L 7.230469 0.160156 L 7.601562 0.160156 L 7.601562 0.199219 C 7.589844 0.199219 7.585938 0.207031 7.585938 0.222656 C 7.585938 0.234375 7.597656 0.253906 7.628906 0.285156 L 8.253906 0.949219 L 8.253906 0.242188 C 8.253906 0.214844 8.234375 0.199219 8.199219 0.199219 L 8.199219 0.160156 L 8.527344 0.160156 L 8.527344 0.199219 C 8.5 0.199219 8.484375 0.214844 8.484375 0.242188 L 8.484375 1.253906 C 8.484375 1.28125 8.5 1.292969 8.527344 1.292969 L 8.527344 1.335938 L 8.171875 1.335938 L 8.171875 1.292969 C 8.191406 1.292969 8.203125 1.289062 8.203125 1.273438 C 8.203125 1.261719 8.191406 1.246094 8.167969 1.222656 L 7.5 0.511719 L 7.5 1.253906 C 7.5 1.28125 7.519531 1.292969 7.550781 1.292969 L 7.550781 1.335938 L 7.226562 1.335938 L 7.230469 1.292969 "/>
<path style=" stroke:none;fill-rule:nonzero;fill:rgb(10.196078%,39.215686%,71.764706%);fill-opacity:1;" d="M 9.757812 1.167969 L 9.773438 1.183594 C 9.769531 1.195312 9.769531 1.207031 9.773438 1.21875 C 9.777344 1.238281 9.792969 1.261719 9.816406 1.285156 C 9.84375 1.3125 9.871094 1.335938 9.902344 1.359375 C 9.9375 1.382812 9.972656 1.402344 10.011719 1.421875 C 10.050781 1.441406 10.085938 1.457031 10.117188 1.464844 C 10.140625 1.472656 10.175781 1.480469 10.210938 1.488281 C 10.25 1.496094 10.289062 1.496094 10.328125 1.496094 C 10.371094 1.496094 10.40625 1.488281 10.4375 1.476562 C 10.46875 1.464844 10.488281 1.441406 10.5 1.40625 C 10.507812 1.375 10.503906 1.347656 10.480469 1.324219 C 10.460938 1.300781 10.433594 1.28125 10.394531 1.261719 C 10.355469 1.242188 10.3125 1.226562 10.261719 1.210938 C 10.210938 1.191406 10.160156 1.175781 10.109375 1.15625 C 10.054688 1.136719 10.003906 1.113281 9.957031 1.089844 C 9.910156 1.066406 9.867188 1.035156 9.835938 1 C 9.800781 0.964844 9.777344 0.921875 9.765625 0.875 C 9.75 0.828125 9.753906 0.769531 9.769531 0.703125 C 9.785156 0.660156 9.804688 0.621094 9.835938 0.582031 C 9.871094 0.542969 9.910156 0.515625 9.960938 0.496094 C 10.011719 0.472656 10.074219 0.460938 10.144531 0.460938 C 10.214844 0.457031 10.292969 0.46875 10.378906 0.492188 C 10.453125 0.515625 10.515625 0.539062 10.566406 0.566406 C 10.621094 0.59375 10.664062 0.617188 10.699219 0.644531 C 10.734375 0.667969 10.765625 0.6875 10.789062 0.707031 C 10.816406 0.726562 10.835938 0.738281 10.855469 0.746094 C 10.875 0.75 10.890625 0.75 10.898438 0.742188 L 10.921875 0.769531 L 10.703125 0.996094 L 10.683594 0.980469 C 10.6875 0.960938 10.683594 0.941406 10.679688 0.925781 C 10.671875 0.90625 10.660156 0.882812 10.636719 0.859375 C 10.617188 0.835938 10.589844 0.8125 10.558594 0.789062 C 10.527344 0.765625 10.492188 0.746094 10.453125 0.726562 C 10.414062 0.707031 10.375 0.691406 10.335938 0.679688 C 10.304688 0.671875 10.273438 0.664062 10.238281 0.660156 C 10.203125 0.65625 10.171875 0.65625 10.140625 0.65625 C 10.113281 0.660156 10.085938 0.667969 10.066406 0.679688 C 10.042969 0.691406 10.027344 0.707031 10.023438 0.730469 C 10.011719 0.765625 10.019531 0.796875 10.039062 0.820312 C 10.058594 0.84375 10.085938 0.867188 10.125 0.886719 C 10.160156 0.90625 10.207031 0.925781 10.253906 0.941406 C 10.304688 0.960938 10.355469 0.976562 10.410156 0.996094 C 10.460938 1.015625 10.511719 1.039062 10.558594 1.066406 C 10.609375 1.089844 10.648438 1.121094 10.683594 1.15625 C 10.714844 1.191406 10.738281 1.230469 10.753906 1.277344 C 10.765625 1.324219 10.765625 1.382812 10.746094 1.445312 C 10.726562 1.519531 10.691406 1.578125 10.640625 1.613281 C 10.585938 1.648438 10.53125 1.671875 10.464844 1.683594 C 10.398438 1.695312 10.332031 1.695312 10.265625 1.683594 C 10.195312 1.675781 10.132812 1.664062 10.074219 1.644531 C 9.992188 1.625 9.929688 1.601562 9.878906 1.574219 C 9.824219 1.550781 9.785156 1.527344 9.753906 1.503906 C 9.71875 1.476562 9.695312 1.457031 9.675781 1.441406 C 9.660156 1.425781 9.640625 1.414062 9.628906 1.410156 C 9.617188 1.40625 9.605469 1.410156 9.59375 1.417969 L 9.570312 1.394531 L 9.757812 1.167969 "/>
<path style=" stroke:none;fill-rule:nonzero;fill:rgb(10.196078%,39.215686%,71.764706%);fill-opacity:1;" d="M 11.574219 2.183594 L 11.558594 2.21875 L 11.253906 2.070312 L 11.273438 2.035156 C 11.28125 2.039062 11.289062 2.042969 11.300781 2.039062 C 11.3125 2.035156 11.320312 2.027344 11.324219 2.015625 L 11.695312 1.214844 L 11.371094 1.054688 C 11.359375 1.050781 11.347656 1.046875 11.332031 1.050781 C 11.316406 1.050781 11.304688 1.0625 11.296875 1.078125 L 11.261719 1.0625 L 11.394531 0.78125 L 11.429688 0.796875 C 11.417969 0.816406 11.417969 0.832031 11.425781 0.84375 C 11.433594 0.855469 11.445312 0.867188 11.457031 0.871094 L 12.332031 1.296875 C 12.34375 1.300781 12.355469 1.304688 12.371094 1.300781 C 12.386719 1.300781 12.398438 1.289062 12.40625 1.273438 L 12.441406 1.289062 L 12.3125 1.570312 L 12.277344 1.554688 C 12.285156 1.535156 12.285156 1.519531 12.277344 1.507812 C 12.269531 1.496094 12.257812 1.488281 12.246094 1.480469 L 11.921875 1.324219 L 11.550781 2.125 C 11.539062 2.148438 11.546875 2.167969 11.574219 2.183594 "/>
<path style=" stroke:none;fill-rule:nonzero;fill:rgb(10.196078%,39.215686%,71.764706%);fill-opacity:1;" d="M 12.835938 2.46875 L 12.914062 2.023438 L 12.515625 2.246094 Z M 11.929688 2.34375 C 11.945312 2.351562 11.960938 2.351562 11.980469 2.34375 C 12 2.339844 12.019531 2.328125 12.039062 2.316406 L 12.847656 1.828125 C 12.867188 1.816406 12.882812 1.808594 12.898438 1.800781 C 12.914062 1.789062 12.925781 1.78125 12.933594 1.773438 C 12.941406 1.757812 12.941406 1.746094 12.9375 1.738281 C 12.933594 1.726562 12.925781 1.714844 12.917969 1.707031 L 12.9375 1.671875 L 13.246094 1.882812 L 13.222656 1.917969 C 13.210938 1.914062 13.203125 1.910156 13.191406 1.910156 C 13.179688 1.910156 13.167969 1.914062 13.160156 1.929688 C 13.152344 1.9375 13.148438 1.949219 13.148438 1.960938 C 13.144531 1.976562 13.140625 1.992188 13.140625 2.015625 L 13.019531 3.027344 C 13.015625 3.046875 13.019531 3.0625 13.023438 3.074219 C 13.03125 3.085938 13.039062 3.101562 13.046875 3.117188 L 13.023438 3.148438 L 12.707031 2.929688 L 12.730469 2.898438 C 12.734375 2.902344 12.742188 2.902344 12.75 2.902344 C 12.761719 2.90625 12.769531 2.902344 12.773438 2.894531 C 12.78125 2.882812 12.785156 2.863281 12.789062 2.835938 L 12.8125 2.652344 L 12.371094 2.347656 L 12.21875 2.433594 C 12.1875 2.453125 12.171875 2.464844 12.164062 2.476562 C 12.15625 2.492188 12.160156 2.503906 12.183594 2.519531 L 12.164062 2.554688 L 11.90625 2.378906 L 11.929688 2.34375 "/>
<path style=" stroke:none;fill-rule:nonzero;fill:rgb(10.196078%,39.215686%,71.764706%);fill-opacity:1;" d="M 13.589844 3.640625 L 13.5625 3.667969 L 13.316406 3.433594 L 13.34375 3.40625 C 13.351562 3.414062 13.359375 3.417969 13.371094 3.417969 C 13.378906 3.417969 13.390625 3.414062 13.398438 3.402344 L 13.988281 2.75 L 13.722656 2.5 C 13.710938 2.492188 13.699219 2.484375 13.6875 2.480469 C 13.671875 2.480469 13.660156 2.484375 13.644531 2.5 L 13.617188 2.472656 L 13.824219 2.242188 L 13.851562 2.269531 C 13.839844 2.285156 13.832031 2.300781 13.839844 2.316406 C 13.839844 2.328125 13.847656 2.339844 13.859375 2.347656 L 14.570312 3.019531 C 14.582031 3.03125 14.59375 3.035156 14.605469 3.039062 C 14.621094 3.042969 14.632812 3.035156 14.648438 3.019531 L 14.675781 3.046875 L 14.46875 3.277344 L 14.441406 3.25 C 14.453125 3.234375 14.460938 3.222656 14.457031 3.207031 C 14.453125 3.191406 14.445312 3.179688 14.433594 3.171875 L 14.171875 2.921875 L 13.582031 3.574219 C 13.5625 3.597656 13.566406 3.617188 13.589844 3.640625 "/>
<path style=" stroke:none;fill-rule:nonzero;fill:rgb(10.196078%,39.215686%,71.764706%);fill-opacity:1;" d="M 15.429688 4.46875 C 15.445312 4.460938 15.449219 4.445312 15.449219 4.433594 C 15.449219 4.417969 15.4375 4.398438 15.417969 4.371094 L 14.988281 3.800781 L 14.773438 3.96875 L 15.035156 4.316406 C 15.050781 4.339844 15.070312 4.355469 15.085938 4.363281 C 15.101562 4.371094 15.121094 4.363281 15.148438 4.34375 L 15.171875 4.375 L 14.902344 4.589844 L 14.878906 4.554688 C 14.90625 4.535156 14.917969 4.515625 14.914062 4.496094 C 14.914062 4.476562 14.902344 4.457031 14.886719 4.433594 L 14.625 4.085938 L 14.386719 4.273438 L 14.832031 4.863281 C 14.84375 4.882812 14.859375 4.894531 14.875 4.898438 C 14.890625 4.902344 14.90625 4.898438 14.921875 4.890625 L 14.945312 4.921875 L 14.707031 5.109375 L 14.683594 5.078125 C 14.699219 5.0625 14.707031 5.050781 14.699219 5.035156 C 14.695312 5.023438 14.683594 5.007812 14.671875 4.988281 L 14.050781 4.164062 L 14.082031 4.140625 C 14.089844 4.148438 14.097656 4.15625 14.105469 4.15625 C 14.117188 4.160156 14.128906 4.15625 14.136719 4.148438 L 14.921875 3.53125 C 14.933594 3.523438 14.9375 3.511719 14.9375 3.503906 C 14.9375 3.492188 14.933594 3.480469 14.929688 3.472656 L 14.960938 3.449219 L 15.566406 4.253906 C 15.585938 4.28125 15.601562 4.292969 15.617188 4.300781 C 15.632812 4.304688 15.648438 4.300781 15.660156 4.289062 L 15.683594 4.320312 L 15.453125 4.503906 L 15.429688 4.46875 "/>
</g>
</svg>
