<?xml version="1.0" encoding="UTF-8"?>
<svg xmlns="http://www.w3.org/2000/svg" xmlns:xlink="http://www.w3.org/1999/xlink" width="35pt" height="25pt" viewBox="0 0 35 25" version="1.1">
<g id="surface1">
<path style=" stroke:none;fill-rule:nonzero;fill:rgb(74.509804%,75.294118%,76.078431%);fill-opacity:1;" d="M 27.472656 3.449219 C 25.636719 1.238281 22.992188 0.0117188 20.03125 0.0078125 L 8.179688 0 L 2.679688 24.996094 L 12.796875 25 L 14.246094 18.953125 C 15.609375 18.953125 19.179688 18.953125 19.175781 18.953125 C 22.566406 18.976562 25.347656 17.832031 27.21875 15.632812 C 30.617188 11.933594 30.023438 6.527344 27.472656 3.449219 "/>
<path style=" stroke:none;fill-rule:nonzero;fill:rgb(0%,17.647059%,38.431373%);fill-opacity:1;" d="M 13.730469 18.292969 L 12.277344 24.339844 L 3.496094 24.335938 L 8.707031 0.65625 L 20.027344 0.664062 C 22.847656 0.671875 25.261719 1.8125 26.964844 3.871094 C 29.472656 6.898438 29.722656 11.933594 26.71875 15.207031 C 24.875 17.367188 22.175781 18.316406 19.183594 18.296875 L 13.730469 18.292969 "/>
<path style=" stroke:none;fill-rule:nonzero;fill:rgb(100%,77.254902%,14.901961%);fill-opacity:1;" d="M 7.542969 5.921875 L 12.503906 5.921875 C 13.074219 5.921875 13.679688 6.402344 13.417969 7.125 C 13.253906 7.574219 13.128906 8.09375 13.074219 8.582031 C 13.027344 8.960938 13.453125 9.203125 13.695312 9.203125 L 23.808594 9.207031 C 23.996094 9.207031 24.097656 9.15625 24.097656 9.0625 C 24.097656 8.972656 24.089844 8.636719 24.054688 8.402344 C 24.019531 8.179688 23.980469 8.140625 23.800781 8.140625 C 22.539062 8.140625 22.027344 7.578125 20.703125 6.726562 C 19.382812 5.875 17.445312 5.382812 15.78125 5.382812 L 7.664062 5.378906 L 7.542969 5.921875 "/>
<path style=" stroke:none;fill-rule:nonzero;fill:rgb(100%,77.254902%,14.901961%);fill-opacity:1;" d="M 13.667969 12.46875 C 13.492188 12.09375 13.328125 11.648438 13.230469 11.238281 C 13.105469 10.710938 12.664062 10.285156 11.902344 10.285156 L 6.582031 10.28125 L 6.714844 9.683594 L 23.960938 9.695312 C 24.132812 9.695312 24.097656 9.769531 24.085938 9.960938 C 24.078125 10.148438 24.03125 10.503906 24.003906 10.710938 C 23.980469 10.917969 23.808594 10.867188 23.640625 10.871094 C 23.253906 10.882812 22.53125 10.972656 22.113281 11.289062 C 21.398438 11.828125 19.875 12.769531 19.015625 13.042969 C 18.097656 13.335938 14.664062 14.386719 13.65625 12.449219 "/>
<path style=" stroke:none;fill-rule:nonzero;fill:rgb(100%,77.254902%,14.901961%);fill-opacity:1;" d="M 5.625 14.628906 L 14.632812 14.632812 C 15.03125 14.632812 15.375 14.726562 15.640625 14.949219 C 16.398438 15.574219 17.386719 16.03125 18.433594 16.335938 C 18.902344 16.472656 19.710938 16.296875 20.4375 15.886719 C 22.238281 14.867188 23.398438 12.929688 23.777344 11.679688 C 23.878906 11.351562 23.6875 11.378906 23.433594 11.398438 C 22.675781 11.453125 21.878906 12.140625 20.828125 12.808594 C 19.777344 13.476562 17.640625 14.109375 15.609375 14.105469 L 5.742188 14.101562 L 5.625 14.628906 "/>
<path style=" stroke:none;fill-rule:nonzero;fill:rgb(100%,77.254902%,14.901961%);fill-opacity:1;" d="M 18.839844 2.566406 C 18.964844 2.542969 19.421875 2.515625 19.675781 2.613281 C 21.386719 3.289062 23.003906 5.070312 23.683594 6.964844 C 23.8125 7.328125 23.84375 7.558594 23.683594 7.578125 C 22.898438 7.667969 22.53125 7.277344 21.609375 6.652344 C 20.6875 6.03125 19.835938 5.601562 18.667969 5.230469 C 17.515625 4.863281 15.417969 4.8125 15.148438 4.800781 C 14.875 4.792969 14.910156 4.679688 15.027344 4.5625 C 16.035156 3.558594 17.382812 2.832031 18.839844 2.566406 "/>
<path style=" stroke:none;fill-rule:nonzero;fill:rgb(100%,77.254902%,14.901961%);fill-opacity:1;" d="M 27.046875 9.054688 C 27.050781 9.128906 26.976562 9.210938 26.886719 9.210938 C 26.875 9.210938 24.910156 9.210938 24.910156 9.210938 C 24.660156 9.210938 24.652344 9.089844 24.644531 8.945312 C 24.636719 8.800781 24.597656 8.511719 24.585938 8.339844 C 24.578125 8.171875 24.515625 7.980469 24.738281 7.886719 C 25.289062 7.65625 25.808594 7.117188 26.046875 6.660156 C 26.125 6.5 26.242188 6.246094 26.378906 6.464844 C 26.847656 7.210938 26.992188 8.132812 27.046875 9.054688 "/>
<path style=" stroke:none;fill-rule:nonzero;fill:rgb(100%,77.254902%,14.901961%);fill-opacity:1;" d="M 26.34375 12.601562 C 26.308594 12.667969 26.183594 12.71875 26.140625 12.609375 C 25.851562 11.835938 25.167969 11.308594 24.699219 11.046875 C 24.554688 10.964844 24.542969 10.875 24.5625 10.734375 C 24.582031 10.59375 24.640625 10.144531 24.648438 9.957031 C 24.65625 9.804688 24.714844 9.699219 24.832031 9.699219 L 26.886719 9.699219 C 26.957031 9.699219 27.046875 9.765625 27.046875 9.820312 C 27.046875 10.800781 26.75 11.765625 26.34375 12.601562 "/>
<path style=" stroke:none;fill-rule:nonzero;fill:rgb(100%,77.254902%,14.901961%);fill-opacity:1;" d="M 20.996094 16.457031 C 20.851562 16.480469 20.535156 16.429688 21.03125 16.140625 C 22.527344 15.269531 23.859375 13.234375 24.210938 12.0625 C 24.347656 11.617188 24.363281 11.59375 24.535156 11.640625 C 24.761719 11.710938 25.121094 12.019531 25.398438 12.398438 C 25.675781 12.777344 25.792969 13.519531 25.632812 13.734375 C 24.558594 15.175781 22.855469 16.1875 20.996094 16.457031 "/>
<path style=" stroke:none;fill-rule:nonzero;fill:rgb(100%,77.254902%,14.901961%);fill-opacity:1;" d="M 24.796875 7.234375 C 24.445312 7.421875 24.378906 7.386719 24.304688 7.125 C 23.65625 4.847656 21.742188 3.164062 20.960938 2.664062 C 20.8125 2.570312 20.851562 2.507812 20.957031 2.523438 C 22.832031 2.773438 24.667969 3.792969 25.589844 5.195312 C 26.117188 5.992188 25.128906 7.054688 24.796875 7.234375 "/>
<path style=" stroke:none;fill-rule:nonzero;fill:rgb(0%,17.647059%,38.431373%);fill-opacity:1;" d="M 16.914062 20.890625 C 16.890625 20.984375 16.542969 22.460938 16.523438 22.535156 C 16.449219 22.535156 15.707031 22.535156 15.597656 22.535156 C 15.625 22.417969 15.96875 20.96875 15.984375 20.890625 C 16.058594 20.890625 16.800781 20.890625 16.914062 20.890625 M 15.386719 20.226562 L 14.261719 24.957031 L 15.023438 24.957031 C 15.023438 24.957031 15.417969 23.277344 15.4375 23.203125 C 15.515625 23.203125 16.648438 23.203125 16.648438 23.203125 C 16.941406 23.203125 17.164062 23.023438 17.234375 22.738281 L 17.714844 20.707031 C 17.726562 20.664062 17.730469 20.621094 17.730469 20.578125 C 17.730469 20.496094 17.707031 20.425781 17.664062 20.367188 C 17.589844 20.273438 17.464844 20.226562 17.300781 20.226562 Z M 15.386719 20.226562 "/>
<path style=" stroke:none;fill-rule:nonzero;fill:rgb(0%,17.647059%,38.431373%);fill-opacity:1;" d="M 16.914062 20.890625 C 16.890625 20.984375 16.542969 22.460938 16.523438 22.535156 C 16.449219 22.535156 15.707031 22.535156 15.597656 22.535156 C 15.625 22.417969 15.96875 20.96875 15.984375 20.890625 C 16.058594 20.890625 16.800781 20.890625 16.914062 20.890625 Z M 15.386719 20.226562 L 14.261719 24.957031 L 15.023438 24.957031 C 15.023438 24.957031 15.417969 23.277344 15.4375 23.203125 C 15.515625 23.203125 16.648438 23.203125 16.648438 23.203125 C 16.941406 23.203125 17.164062 23.023438 17.234375 22.738281 L 17.714844 20.707031 C 17.726562 20.664062 17.730469 20.621094 17.730469 20.578125 C 17.730469 20.496094 17.707031 20.425781 17.664062 20.367188 C 17.589844 20.273438 17.464844 20.226562 17.300781 20.226562 Z M 15.386719 20.226562 "/>
<path style=" stroke:none;fill-rule:nonzero;fill:rgb(0%,17.647059%,38.431373%);fill-opacity:1;" d="M 19.410156 23.277344 C 19.386719 23.382812 19.179688 24.253906 19.164062 24.324219 C 19.09375 24.324219 18.4375 24.324219 18.324219 24.324219 C 18.351562 24.222656 18.558594 23.347656 18.574219 23.277344 C 18.648438 23.277344 19.300781 23.277344 19.410156 23.277344 M 18.808594 21.148438 C 18.519531 21.148438 18.332031 21.296875 18.261719 21.582031 L 18.066406 22.417969 L 18.804688 22.417969 C 18.804688 22.417969 18.933594 21.863281 18.953125 21.789062 C 19.023438 21.789062 19.652344 21.789062 19.765625 21.789062 C 19.738281 21.898438 19.582031 22.558594 19.5625 22.628906 C 19.488281 22.628906 18.488281 22.628906 18.488281 22.628906 C 18.160156 22.628906 17.945312 22.8125 17.867188 23.15625 L 17.539062 24.527344 C 17.53125 24.5625 17.523438 24.601562 17.523438 24.632812 C 17.523438 24.710938 17.546875 24.785156 17.597656 24.84375 C 17.667969 24.933594 17.785156 24.984375 17.929688 24.984375 C 17.933594 24.984375 17.949219 24.984375 17.949219 24.984375 C 18.214844 24.964844 18.800781 24.921875 19.027344 24.894531 C 19.023438 24.910156 19.011719 24.957031 19.011719 24.957031 L 19.753906 24.957031 L 20.546875 21.605469 C 20.582031 21.460938 20.570312 21.34375 20.507812 21.265625 C 20.445312 21.191406 20.339844 21.148438 20.199219 21.148438 Z M 18.808594 21.148438 "/>
<path style=" stroke:none;fill-rule:nonzero;fill:rgb(0%,17.647059%,38.431373%);fill-opacity:1;" d="M 19.410156 23.277344 C 19.386719 23.382812 19.179688 24.253906 19.164062 24.324219 C 19.09375 24.324219 18.4375 24.324219 18.324219 24.324219 C 18.351562 24.222656 18.558594 23.347656 18.574219 23.277344 C 18.648438 23.277344 19.300781 23.277344 19.410156 23.277344 Z M 18.808594 21.148438 C 18.519531 21.148438 18.332031 21.296875 18.261719 21.582031 L 18.066406 22.417969 L 18.804688 22.417969 C 18.804688 22.417969 18.933594 21.863281 18.953125 21.789062 C 19.023438 21.789062 19.652344 21.789062 19.765625 21.789062 C 19.738281 21.898438 19.582031 22.558594 19.5625 22.628906 C 19.488281 22.628906 18.488281 22.628906 18.488281 22.628906 C 18.160156 22.628906 17.945312 22.8125 17.867188 23.15625 L 17.539062 24.527344 C 17.53125 24.5625 17.523438 24.601562 17.523438 24.632812 C 17.523438 24.710938 17.546875 24.785156 17.597656 24.84375 C 17.667969 24.933594 17.785156 24.984375 17.929688 24.984375 C 17.933594 24.984375 17.949219 24.984375 17.949219 24.984375 C 18.214844 24.964844 18.800781 24.921875 19.027344 24.894531 C 19.023438 24.910156 19.011719 24.957031 19.011719 24.957031 L 19.753906 24.957031 L 20.546875 21.605469 C 20.582031 21.460938 20.570312 21.34375 20.507812 21.265625 C 20.445312 21.191406 20.339844 21.148438 20.199219 21.148438 Z M 18.808594 21.148438 "/>
<path style=" stroke:none;fill-rule:nonzero;fill:rgb(0%,17.647059%,38.431373%);fill-opacity:1;" d="M 21.910156 21.148438 C 21.625 21.148438 21.441406 21.296875 21.375 21.582031 L 20.683594 24.5 C 20.648438 24.644531 20.660156 24.761719 20.722656 24.839844 C 20.78125 24.914062 20.886719 24.957031 21.03125 24.957031 L 22.398438 24.957031 C 22.683594 24.957031 22.863281 24.808594 22.933594 24.523438 L 23.203125 23.386719 L 22.472656 23.386719 C 22.472656 23.386719 22.269531 24.242188 22.253906 24.3125 C 22.183594 24.3125 21.574219 24.3125 21.464844 24.3125 C 21.496094 24.195312 22.046875 21.867188 22.066406 21.789062 C 22.136719 21.789062 22.742188 21.789062 22.851562 21.789062 C 22.828125 21.902344 22.703125 22.410156 22.703125 22.410156 L 23.433594 22.410156 L 23.625 21.605469 C 23.660156 21.457031 23.648438 21.34375 23.585938 21.261719 C 23.527344 21.191406 23.421875 21.148438 23.277344 21.148438 L 21.910156 21.148438 "/>
<path style=" stroke:none;fill-rule:nonzero;fill:rgb(0%,17.647059%,38.431373%);fill-opacity:1;" d="M 21.910156 21.148438 C 21.625 21.148438 21.441406 21.296875 21.375 21.582031 L 20.683594 24.5 C 20.648438 24.644531 20.660156 24.761719 20.722656 24.839844 C 20.78125 24.914062 20.886719 24.957031 21.03125 24.957031 L 22.398438 24.957031 C 22.683594 24.957031 22.863281 24.808594 22.933594 24.523438 L 23.203125 23.386719 L 22.472656 23.386719 C 22.472656 23.386719 22.269531 24.242188 22.253906 24.3125 C 22.183594 24.3125 21.574219 24.3125 21.464844 24.3125 C 21.496094 24.195312 22.046875 21.867188 22.066406 21.789062 C 22.136719 21.789062 22.742188 21.789062 22.851562 21.789062 C 22.828125 21.902344 22.703125 22.410156 22.703125 22.410156 L 23.433594 22.410156 L 23.625 21.605469 C 23.660156 21.457031 23.648438 21.34375 23.585938 21.261719 C 23.527344 21.191406 23.421875 21.148438 23.277344 21.148438 Z M 21.910156 21.148438 "/>
<path style=" stroke:none;fill-rule:nonzero;fill:rgb(0%,17.647059%,38.431373%);fill-opacity:1;" d="M 25.851562 21.789062 C 25.828125 21.890625 25.664062 22.570312 25.648438 22.636719 C 25.578125 22.636719 24.976562 22.636719 24.867188 22.636719 C 24.890625 22.539062 25.054688 21.859375 25.070312 21.789062 C 25.140625 21.789062 25.742188 21.789062 25.851562 21.789062 M 24.914062 21.148438 C 24.628906 21.148438 24.445312 21.296875 24.378906 21.582031 L 23.6875 24.5 C 23.652344 24.644531 23.664062 24.761719 23.726562 24.839844 C 23.785156 24.914062 23.890625 24.957031 24.035156 24.957031 L 25.40625 24.957031 C 25.542969 24.957031 25.660156 24.921875 25.753906 24.851562 C 25.84375 24.777344 25.90625 24.671875 25.941406 24.523438 L 26.195312 23.457031 L 25.453125 23.457031 C 25.453125 23.457031 25.269531 24.242188 25.25 24.3125 C 25.179688 24.3125 24.578125 24.3125 24.46875 24.3125 C 24.496094 24.203125 24.703125 23.324219 24.71875 23.253906 C 24.800781 23.253906 26.066406 23.253906 26.066406 23.253906 L 26.28125 23.082031 L 26.632812 21.605469 C 26.648438 21.554688 26.652344 21.503906 26.652344 21.460938 C 26.652344 21.382812 26.632812 21.316406 26.59375 21.261719 C 26.53125 21.191406 26.429688 21.148438 26.285156 21.148438 Z M 24.914062 21.148438 "/>
<path style=" stroke:none;fill-rule:nonzero;fill:rgb(0%,17.647059%,38.431373%);fill-opacity:1;" d="M 25.851562 21.789062 C 25.828125 21.890625 25.664062 22.570312 25.648438 22.636719 C 25.578125 22.636719 24.976562 22.636719 24.867188 22.636719 C 24.890625 22.539062 25.054688 21.859375 25.070312 21.789062 C 25.140625 21.789062 25.742188 21.789062 25.851562 21.789062 Z M 24.914062 21.148438 C 24.628906 21.148438 24.445312 21.296875 24.378906 21.582031 L 23.6875 24.5 C 23.652344 24.644531 23.664062 24.761719 23.726562 24.839844 C 23.785156 24.914062 23.890625 24.957031 24.035156 24.957031 L 25.40625 24.957031 C 25.542969 24.957031 25.660156 24.921875 25.753906 24.851562 C 25.84375 24.777344 25.90625 24.671875 25.941406 24.523438 L 26.195312 23.457031 L 25.453125 23.457031 C 25.453125 23.457031 25.269531 24.242188 25.25 24.3125 C 25.179688 24.3125 24.578125 24.3125 24.46875 24.3125 C 24.496094 24.203125 24.703125 23.324219 24.71875 23.253906 C 24.800781 23.253906 26.066406 23.253906 26.066406 23.253906 L 26.28125 23.082031 L 26.632812 21.605469 C 26.648438 21.554688 26.652344 21.503906 26.652344 21.460938 C 26.652344 21.382812 26.632812 21.316406 26.59375 21.261719 C 26.53125 21.191406 26.429688 21.148438 26.285156 21.148438 Z M 24.914062 21.148438 "/>
<path style=" stroke:none;fill-rule:nonzero;fill:rgb(0%,17.647059%,38.431373%);fill-opacity:1;" d="M 29.234375 21.117188 C 28.9375 21.152344 28.460938 21.207031 28.253906 21.238281 C 28.253906 21.230469 28.277344 21.152344 28.277344 21.152344 L 27.535156 21.148438 L 26.632812 24.957031 L 27.371094 24.957031 C 27.371094 24.957031 28.089844 21.925781 28.109375 21.84375 C 28.179688 21.84375 28.734375 21.84375 28.84375 21.84375 C 28.816406 21.957031 28.722656 22.410156 28.722656 22.410156 L 29.46875 22.410156 L 29.652344 21.578125 C 29.6875 21.429688 29.671875 21.320312 29.613281 21.238281 C 29.546875 21.15625 29.429688 21.113281 29.265625 21.113281 C 29.257812 21.117188 29.234375 21.117188 29.234375 21.117188 "/>
<path style=" stroke:none;fill-rule:nonzero;fill:rgb(0%,17.647059%,38.431373%);fill-opacity:1;" d="M 29.234375 21.117188 C 28.9375 21.152344 28.460938 21.207031 28.253906 21.238281 C 28.253906 21.230469 28.277344 21.152344 28.277344 21.152344 L 27.535156 21.148438 L 26.632812 24.957031 L 27.371094 24.957031 C 27.371094 24.957031 28.089844 21.925781 28.109375 21.84375 C 28.179688 21.84375 28.734375 21.84375 28.84375 21.84375 C 28.816406 21.957031 28.722656 22.410156 28.722656 22.410156 L 29.46875 22.410156 L 29.652344 21.578125 C 29.6875 21.429688 29.671875 21.320312 29.613281 21.238281 C 29.546875 21.15625 29.429688 21.113281 29.265625 21.113281 C 29.257812 21.117188 29.234375 21.117188 29.234375 21.117188 Z M 29.234375 21.117188 "/>
<path style=" stroke:none;fill-rule:nonzero;fill:rgb(0%,17.647059%,38.431373%);fill-opacity:1;" d="M 30.582031 21.148438 C 30.433594 21.148438 30.171875 21.207031 30.085938 21.582031 L 29.867188 22.488281 C 29.859375 22.523438 29.847656 22.578125 29.847656 22.636719 C 29.847656 22.703125 29.863281 22.769531 29.90625 22.820312 C 29.910156 22.820312 29.910156 22.824219 29.910156 22.828125 C 29.914062 22.828125 29.914062 22.828125 29.914062 22.832031 L 29.914062 22.828125 C 29.921875 22.835938 29.929688 22.84375 29.953125 22.859375 C 30.796875 23.433594 31.019531 23.597656 31.082031 23.644531 C 31.066406 23.699219 30.925781 24.289062 30.921875 24.3125 C 30.851562 24.3125 30.296875 24.3125 30.191406 24.3125 C 30.21875 24.199219 30.390625 23.476562 30.390625 23.476562 L 29.652344 23.476562 L 29.410156 24.5 C 29.371094 24.648438 29.386719 24.765625 29.449219 24.84375 C 29.507812 24.917969 29.597656 24.953125 29.722656 24.953125 L 31.109375 24.953125 C 31.371094 24.953125 31.542969 24.804688 31.609375 24.523438 L 31.847656 23.527344 C 31.851562 23.5 31.863281 23.449219 31.863281 23.390625 C 31.863281 23.308594 31.84375 23.210938 31.761719 23.125 L 31.753906 23.117188 C 31.359375 22.863281 30.742188 22.453125 30.632812 22.371094 C 30.648438 22.316406 30.761719 21.839844 30.773438 21.789062 C 30.84375 21.789062 31.410156 21.789062 31.519531 21.789062 C 31.492188 21.902344 31.375 22.417969 31.375 22.417969 L 32.113281 22.417969 L 32.300781 21.605469 C 32.335938 21.460938 32.320312 21.34375 32.257812 21.261719 C 32.21875 21.210938 32.136719 21.148438 31.976562 21.148438 L 30.582031 21.148438 "/>
<path style=" stroke:none;fill-rule:nonzero;fill:rgb(0%,17.647059%,38.431373%);fill-opacity:1;" d="M 30.582031 21.148438 C 30.433594 21.148438 30.171875 21.207031 30.085938 21.582031 L 29.867188 22.488281 C 29.859375 22.523438 29.847656 22.578125 29.847656 22.636719 C 29.847656 22.703125 29.863281 22.769531 29.90625 22.820312 C 29.910156 22.820312 29.910156 22.824219 29.910156 22.828125 C 29.914062 22.828125 29.914062 22.828125 29.914062 22.832031 L 29.914062 22.828125 C 29.921875 22.835938 29.929688 22.84375 29.953125 22.859375 C 30.796875 23.433594 31.019531 23.597656 31.082031 23.644531 C 31.066406 23.699219 30.925781 24.289062 30.921875 24.3125 C 30.851562 24.3125 30.296875 24.3125 30.191406 24.3125 C 30.21875 24.199219 30.390625 23.476562 30.390625 23.476562 L 29.652344 23.476562 L 29.410156 24.5 C 29.371094 24.648438 29.386719 24.765625 29.449219 24.84375 C 29.507812 24.917969 29.597656 24.953125 29.722656 24.953125 L 31.109375 24.953125 C 31.371094 24.953125 31.542969 24.804688 31.609375 24.523438 L 31.847656 23.527344 C 31.851562 23.5 31.863281 23.449219 31.863281 23.390625 C 31.863281 23.308594 31.84375 23.210938 31.761719 23.125 L 31.753906 23.117188 C 31.359375 22.863281 30.742188 22.453125 30.632812 22.371094 C 30.648438 22.316406 30.761719 21.839844 30.773438 21.789062 C 30.84375 21.789062 31.410156 21.789062 31.519531 21.789062 C 31.492188 21.902344 31.375 22.417969 31.375 22.417969 L 32.113281 22.417969 L 32.300781 21.605469 C 32.335938 21.460938 32.320312 21.34375 32.257812 21.261719 C 32.21875 21.210938 32.136719 21.148438 31.976562 21.148438 Z M 30.582031 21.148438 "/>
</g>
</svg>
