<?xml version="1.0" encoding="UTF-8"?>
<svg xmlns="http://www.w3.org/2000/svg" xmlns:xlink="http://www.w3.org/1999/xlink" width="32pt" height="20pt" viewBox="0 0 32 20" version="1.1">
<defs>
<clipPath id="clip1">
  <path d="M 12 7 L 22 7 L 22 13 L 12 13 Z M 12 7 "/>
</clipPath>
<clipPath id="clip2">
  <path d="M 15.105469 19.761719 C 20.40625 19.761719 24.703125 15.390625 24.703125 9.996094 C 24.703125 4.601562 20.40625 0.230469 15.105469 0.230469 C 9.804688 0.230469 5.507812 4.601562 5.507812 9.996094 C 5.507812 15.390625 9.804688 19.761719 15.105469 19.761719 "/>
</clipPath>
<clipPath id="clip3">
  <path d="M 5 4 L 15 4 L 15 15 L 5 15 Z M 5 4 "/>
</clipPath>
<clipPath id="clip4">
  <path d="M 15.105469 19.761719 C 20.40625 19.761719 24.703125 15.390625 24.703125 9.996094 C 24.703125 4.601562 20.40625 0.230469 15.105469 0.230469 C 9.804688 0.230469 5.507812 4.601562 5.507812 9.996094 C 5.507812 15.390625 9.804688 19.761719 15.105469 19.761719 "/>
</clipPath>
<clipPath id="clip5">
  <path d="M 19 7 L 25 7 L 25 16 L 19 16 Z M 19 7 "/>
</clipPath>
<clipPath id="clip6">
  <path d="M 15.105469 19.761719 C 20.40625 19.761719 24.703125 15.390625 24.703125 9.996094 C 24.703125 4.601562 20.40625 0.230469 15.105469 0.230469 C 9.804688 0.230469 5.507812 4.601562 5.507812 9.996094 C 5.507812 15.390625 9.804688 19.761719 15.105469 19.761719 "/>
</clipPath>
<clipPath id="clip7">
  <path d="M 10 4 L 13 4 L 13 7 L 10 7 Z M 10 4 "/>
</clipPath>
<clipPath id="clip8">
  <path d="M 15.105469 19.761719 C 20.40625 19.761719 24.703125 15.390625 24.703125 9.996094 C 24.703125 4.601562 20.40625 0.230469 15.105469 0.230469 C 9.804688 0.230469 5.507812 4.601562 5.507812 9.996094 C 5.507812 15.390625 9.804688 19.761719 15.105469 19.761719 "/>
</clipPath>
<clipPath id="clip9">
  <path d="M 14 4 L 16 4 L 16 7 L 14 7 Z M 14 4 "/>
</clipPath>
<clipPath id="clip10">
  <path d="M 15.105469 19.761719 C 20.40625 19.761719 24.703125 15.390625 24.703125 9.996094 C 24.703125 4.601562 20.40625 0.230469 15.105469 0.230469 C 9.804688 0.230469 5.507812 4.601562 5.507812 9.996094 C 5.507812 15.390625 9.804688 19.761719 15.105469 19.761719 "/>
</clipPath>
<clipPath id="clip11">
  <path d="M 22 4 L 25 4 L 25 7 L 22 7 Z M 22 4 "/>
</clipPath>
<clipPath id="clip12">
  <path d="M 15.105469 19.761719 C 20.40625 19.761719 24.703125 15.390625 24.703125 9.996094 C 24.703125 4.601562 20.40625 0.230469 15.105469 0.230469 C 9.804688 0.230469 5.507812 4.601562 5.507812 9.996094 C 5.507812 15.390625 9.804688 19.761719 15.105469 19.761719 "/>
</clipPath>
<clipPath id="clip13">
  <path d="M 16 4 L 22 4 L 22 7 L 16 7 Z M 16 4 "/>
</clipPath>
<clipPath id="clip14">
  <path d="M 15.105469 19.761719 C 20.40625 19.761719 24.703125 15.390625 24.703125 9.996094 C 24.703125 4.601562 20.40625 0.230469 15.105469 0.230469 C 9.804688 0.230469 5.507812 4.601562 5.507812 9.996094 C 5.507812 15.390625 9.804688 19.761719 15.105469 19.761719 "/>
</clipPath>
<clipPath id="clip15">
  <path d="M 12 4 L 15 4 L 15 7 L 12 7 Z M 12 4 "/>
</clipPath>
<clipPath id="clip16">
  <path d="M 15.105469 19.761719 C 20.40625 19.761719 24.703125 15.390625 24.703125 9.996094 C 24.703125 4.601562 20.40625 0.230469 15.105469 0.230469 C 9.804688 0.230469 5.507812 4.601562 5.507812 9.996094 C 5.507812 15.390625 9.804688 19.761719 15.105469 19.761719 "/>
</clipPath>
<clipPath id="clip17">
  <path d="M 21 4 L 23 4 L 23 7 L 21 7 Z M 21 4 "/>
</clipPath>
<clipPath id="clip18">
  <path d="M 15.105469 19.761719 C 20.40625 19.761719 24.703125 15.390625 24.703125 9.996094 C 24.703125 4.601562 20.40625 0.230469 15.105469 0.230469 C 9.804688 0.230469 5.507812 4.601562 5.507812 9.996094 C 5.507812 15.390625 9.804688 19.761719 15.105469 19.761719 "/>
</clipPath>
</defs>
<g id="surface1">
<path style=" stroke:none;fill-rule:nonzero;fill:rgb(99.215686%,72.156863%,15.294118%);fill-opacity:1;" d="M 15.105469 19.761719 C 20.40625 19.761719 24.703125 15.390625 24.703125 9.996094 C 24.703125 4.601562 20.40625 0.230469 15.105469 0.230469 C 9.804688 0.230469 5.507812 4.601562 5.507812 9.996094 C 5.507812 15.390625 9.804688 19.761719 15.105469 19.761719 "/>
<path style=" stroke:none;fill-rule:nonzero;fill:rgb(33.333333%,14.509804%,50.980392%);fill-opacity:1;" d="M 19.480469 10.996094 C 18.582031 12.085938 18.074219 12.460938 17.164062 12.460938 C 16.855469 12.460938 16.691406 12.390625 16.78125 12.238281 L 17.859375 10.0625 L 18.273438 10.0625 C 18.730469 10.0625 18.667969 10.449219 18.542969 10.976562 C 18.519531 11.050781 18.578125 11.054688 18.632812 10.988281 L 19.660156 9.179688 C 19.707031 9.066406 19.578125 9.042969 19.515625 9.128906 C 19 9.832031 18.460938 9.777344 18.230469 9.777344 L 18.046875 9.777344 L 19.199219 7.570312 L 19.664062 7.570312 C 20.25 7.609375 20.523438 8.105469 20.355469 9.308594 L 20.597656 9.308594 L 21.445312 7.632812 C 21.515625 7.492188 21.371094 7.359375 21.210938 7.359375 L 15.453125 7.363281 C 15.121094 7.363281 15.105469 7.621094 15.425781 7.621094 C 15.683594 7.621094 15.667969 7.992188 15.4375 8.171875 L 12.992188 10.117188 L 13.488281 12.414062 C 13.523438 12.585938 13.632812 12.667969 13.824219 12.667969 L 18.585938 12.667969 C 18.78125 12.667969 18.863281 12.589844 18.925781 12.507812 L 19.789062 11.015625 C 19.90625 10.800781 19.628906 10.8125 19.480469 10.996094 M 16.164062 9.945312 L 15.746094 9.945312 C 15.714844 9.945312 15.691406 9.96875 15.691406 9.996094 C 15.691406 10.027344 15.714844 10.050781 15.746094 10.050781 L 16.171875 10.046875 C 16.3125 10.046875 16.445312 10.066406 16.410156 10.128906 L 15.308594 12.234375 C 15.171875 12.488281 14.882812 12.421875 14.835938 12.222656 L 14.292969 9.398438 L 16.207031 7.910156 C 16.398438 7.746094 16.765625 7.476562 16.953125 7.480469 L 17.371094 7.476562 C 17.625 7.476562 17.714844 7.59375 17.65625 7.75 L 17.582031 7.890625 C 17.53125 7.972656 17.382812 7.980469 17.253906 7.980469 L 17.015625 7.984375 C 16.984375 7.984375 16.960938 8.007812 16.960938 8.035156 C 16.960938 8.066406 16.984375 8.089844 17.015625 8.089844 L 17.25 8.089844 C 17.355469 8.089844 17.484375 8.09375 17.4375 8.167969 L 16.546875 9.867188 C 16.507812 9.933594 16.320312 9.945312 16.164062 9.945312 "/>
<path style=" stroke:none;fill-rule:nonzero;fill:rgb(33.333333%,14.509804%,50.980392%);fill-opacity:1;" d="M 12.214844 12.414062 C 12.082031 12.40625 12 12.320312 11.972656 12.234375 C 11.929688 12.109375 11.933594 11.894531 11.984375 11.796875 L 14.203125 7.847656 C 14.242188 7.777344 14.332031 7.625 14.441406 7.625 C 14.636719 7.625 14.722656 7.367188 14.390625 7.367188 L 12.609375 7.367188 C 12.277344 7.367188 12.277344 7.617188 12.59375 7.617188 C 12.722656 7.617188 12.777344 7.746094 12.738281 7.824219 L 12.246094 8.71875 C 12.1875 8.816406 12.050781 8.824219 11.90625 8.824219 L 11.484375 8.820312 C 11.453125 8.820312 11.429688 8.84375 11.429688 8.875 C 11.429688 8.90625 11.453125 8.929688 11.484375 8.929688 L 11.902344 8.929688 C 12.015625 8.929688 12.105469 8.964844 12.042969 9.09375 L 10.402344 12.089844 C 10.285156 12.253906 10.050781 12.289062 10.0625 11.976562 L 10.644531 7.589844 C 10.667969 7.453125 10.632812 7.359375 10.484375 7.359375 L 9.609375 7.363281 C 9.503906 7.363281 9.4375 7.414062 9.386719 7.480469 L 9.074219 7.878906 C 9.03125 7.917969 8.945312 7.917969 8.847656 7.917969 L 8.105469 7.917969 C 8.078125 7.917969 8.054688 7.941406 8.054688 7.972656 C 8.054688 8 8.078125 8.023438 8.105469 8.023438 L 8.710938 8.023438 C 8.816406 8.023438 8.941406 8.050781 8.898438 8.101562 L 8.050781 9.167969 C 8.027344 9.195312 7.945312 9.203125 7.894531 9.203125 L 7.652344 9.203125 C 7.625 9.203125 7.601562 9.226562 7.601562 9.257812 C 7.601562 9.285156 7.625 9.308594 7.652344 9.308594 L 7.851562 9.308594 C 7.914062 9.308594 7.914062 9.339844 7.890625 9.367188 L 7.097656 10.371094 C 7.054688 10.410156 6.976562 10.417969 6.898438 10.417969 L 6.195312 10.414062 C 6.167969 10.414062 6.144531 10.4375 6.144531 10.46875 C 6.144531 10.5 6.167969 10.523438 6.195312 10.523438 L 6.796875 10.523438 C 6.890625 10.523438 6.960938 10.539062 6.914062 10.601562 L 5.78125 12.019531 C 5.570312 12.292969 4.546875 12.429688 4.347656 12.429688 L 8.167969 5.261719 C 8.207031 5.179688 8.347656 5.054688 8.496094 5.054688 L 9.304688 5.054688 C 9.6875 5.054688 9.675781 4.800781 9.34375 4.800781 L 5.265625 4.800781 C 4.933594 4.800781 4.921875 5.054688 5.300781 5.054688 L 6.058594 5.054688 C 6.273438 5.054688 6.339844 5.183594 6.285156 5.292969 L 6.179688 5.488281 C 6.144531 5.550781 6.089844 5.578125 5.882812 5.578125 L 4.550781 5.578125 C 4.519531 5.578125 4.496094 5.601562 4.496094 5.628906 C 4.496094 5.660156 4.519531 5.683594 4.550781 5.683594 L 5.882812 5.683594 C 5.953125 5.683594 6.0625 5.703125 5.992188 5.832031 L 5.804688 6.179688 C 5.773438 6.234375 5.691406 6.257812 5.597656 6.257812 L 4.996094 6.257812 C 4.964844 6.257812 4.941406 6.28125 4.941406 6.308594 C 4.941406 6.339844 4.964844 6.363281 4.996094 6.363281 L 5.597656 6.363281 C 5.683594 6.363281 5.683594 6.421875 5.636719 6.5 L 5.203125 7.300781 C 5.167969 7.371094 5.097656 7.378906 4.960938 7.378906 L 4.722656 7.378906 C 4.691406 7.378906 4.667969 7.402344 4.667969 7.433594 C 4.667969 7.460938 4.691406 7.484375 4.722656 7.484375 L 4.957031 7.484375 C 5.050781 7.484375 5.074219 7.535156 5.03125 7.621094 L 4.679688 8.28125 C 4.625 8.375 4.550781 8.410156 4.316406 8.410156 L 2.984375 8.410156 C 2.953125 8.410156 2.929688 8.433594 2.929688 8.464844 C 2.929688 8.492188 2.953125 8.515625 2.984375 8.515625 L 4.3125 8.515625 C 4.464844 8.519531 4.519531 8.585938 4.460938 8.695312 L 3.769531 9.992188 C 3.730469 10.046875 3.617188 10.058594 3.425781 10.058594 L 2.09375 10.054688 C 2.0625 10.054688 2.039062 10.082031 2.039062 10.109375 C 2.039062 10.140625 2.0625 10.164062 2.09375 10.164062 L 3.421875 10.164062 C 3.582031 10.164062 3.679688 10.167969 3.632812 10.253906 L 3.234375 11.003906 C 3.160156 11.117188 2.957031 11.117188 2.878906 11.117188 L 2.453125 11.117188 C 2.425781 11.117188 2.402344 11.140625 2.402344 11.167969 C 2.402344 11.199219 2.425781 11.222656 2.453125 11.222656 L 2.875 11.222656 C 3.023438 11.222656 3.101562 11.246094 3.0625 11.328125 L 2.53125 12.328125 C 2.484375 12.417969 2.277344 12.421875 2.117188 12.421875 L 0.0546875 12.417969 C 0.0234375 12.417969 0 12.441406 0 12.472656 C 0 12.5 0.0234375 12.527344 0.0546875 12.527344 L 2.113281 12.527344 C 2.25 12.527344 2.421875 12.542969 2.359375 12.652344 L 2.019531 13.289062 C 1.988281 13.34375 1.875 13.347656 1.707031 13.347656 L 1.285156 13.347656 C 1.253906 13.347656 1.230469 13.371094 1.230469 13.398438 C 1.230469 13.429688 1.253906 13.453125 1.285156 13.453125 L 1.703125 13.453125 C 1.804688 13.453125 1.929688 13.464844 1.886719 13.542969 L 1.675781 13.949219 C 1.609375 14.050781 1.539062 14.140625 1.375 14.140625 L 0.339844 14.140625 C -0.0429688 14.140625 -0.0273438 14.398438 0.304688 14.398438 L 6.382812 14.398438 C 6.5625 14.398438 6.566406 14.375 6.652344 14.246094 L 7.550781 12.667969 L 12.160156 12.667969 C 12.492188 12.671875 12.40625 12.417969 12.214844 12.414062 M 8.597656 11.941406 C 8.554688 12.203125 8.292969 12.375 7.964844 12.460938 L 7.625 12.546875 L 7.902344 12.042969 C 7.976562 11.90625 7.816406 11.828125 7.640625 12.03125 C 6.464844 13.40625 6.089844 14.0625 4.273438 14.066406 L 3.785156 14.066406 C 3.636719 14.066406 3.476562 14.011719 3.578125 13.871094 L 4.21875 12.671875 L 6.65625 12.671875 C 6.992188 12.671875 6.90625 12.417969 6.710938 12.414062 C 6.582031 12.40625 6.4375 12.335938 6.339844 12.175781 C 6.3125 12.132812 6.25 11.957031 6.347656 11.824219 L 7.28125 10.578125 L 8.832031 10.578125 Z M 8.949219 10.371094 L 7.433594 10.371094 L 9.351562 7.835938 Z M 8.949219 10.371094 "/>
<path style=" stroke:none;fill-rule:nonzero;fill:rgb(33.333333%,14.509804%,50.980392%);fill-opacity:1;" d="M 31.996094 11.152344 C 31.972656 11.027344 31.925781 11.105469 31.84375 11.261719 C 31.820312 11.308594 31.738281 11.3125 31.660156 11.3125 L 31.414062 11.3125 C 31.386719 11.3125 31.363281 11.335938 31.363281 11.367188 C 31.363281 11.394531 31.386719 11.417969 31.414062 11.417969 L 31.65625 11.417969 C 31.746094 11.417969 31.746094 11.480469 31.703125 11.570312 C 31.535156 11.929688 31.363281 12.167969 31.136719 12.457031 C 31.097656 12.5 31.007812 12.539062 30.933594 12.539062 L 30.6875 12.542969 C 30.660156 12.542969 30.636719 12.566406 30.636719 12.597656 C 30.636719 12.625 30.660156 12.648438 30.6875 12.648438 L 30.929688 12.648438 C 31.050781 12.648438 30.925781 12.722656 30.90625 12.75 C 30.480469 13.320312 30.1875 13.574219 29.875 13.828125 C 29.839844 13.859375 29.664062 13.847656 29.539062 13.847656 L 29.296875 13.847656 C 29.269531 13.847656 29.246094 13.871094 29.246094 13.902344 C 29.246094 13.929688 29.269531 13.953125 29.296875 13.953125 L 29.535156 13.953125 C 29.71875 13.953125 29.582031 14.058594 29.554688 14.082031 C 28.890625 14.636719 27.90625 14.8125 27.453125 14.757812 C 25.988281 14.574219 25.6875 13.457031 25.578125 13.011719 C 25.554688 12.917969 25.484375 12.726562 25.460938 12.609375 C 25.414062 12.375 26.078125 12.308594 26.261719 12.433594 C 26.535156 12.617188 27.183594 12.808594 27.691406 12.8125 C 28.160156 12.8125 29.121094 12.46875 29.402344 11.660156 C 29.6875 10.832031 28.972656 9.914062 28.652344 9.597656 C 28.25 9.191406 27.867188 8.546875 28.03125 8.074219 C 28.152344 7.71875 28.351562 7.558594 28.785156 7.558594 C 29.347656 7.558594 29.753906 7.917969 29.753906 8.429688 C 29.753906 8.476562 29.726562 8.53125 29.691406 8.53125 L 29.492188 8.53125 C 29.464844 8.53125 29.4375 8.558594 29.4375 8.585938 C 29.4375 8.617188 29.464844 8.640625 29.492188 8.640625 L 29.679688 8.640625 C 29.730469 8.640625 29.765625 8.679688 29.75 8.742188 C 29.714844 8.914062 29.703125 9.035156 29.664062 9.207031 C 29.644531 9.308594 29.789062 9.375 29.839844 9.304688 L 30.722656 7.726562 C 30.785156 7.609375 30.644531 7.574219 30.539062 7.613281 C 30.296875 7.695312 29.90625 7.753906 29.765625 7.652344 C 29.4375 7.417969 29.136719 7.265625 28.675781 7.265625 C 27.890625 7.265625 27.34375 7.457031 26.992188 8.105469 C 26.964844 8.15625 26.886719 8.15625 26.820312 8.15625 L 26.671875 8.15625 C 26.640625 8.15625 26.617188 8.175781 26.617188 8.207031 C 26.617188 8.238281 26.640625 8.261719 26.671875 8.261719 L 26.800781 8.257812 C 26.855469 8.257812 26.890625 8.273438 26.863281 8.339844 C 26.839844 8.398438 26.816406 8.457031 26.796875 8.523438 C 26.707031 8.800781 26.738281 9.195312 26.875 9.542969 C 26.886719 9.566406 26.855469 9.578125 26.800781 9.578125 L 26.5625 9.578125 C 26.53125 9.578125 26.507812 9.601562 26.507812 9.632812 C 26.507812 9.660156 26.53125 9.683594 26.5625 9.683594 L 26.800781 9.683594 C 26.910156 9.6875 26.9375 9.695312 26.980469 9.761719 C 27.105469 9.933594 27.230469 10.0625 27.390625 10.265625 C 27.441406 10.332031 27.226562 10.347656 27.113281 10.347656 L 26.164062 10.347656 C 26.132812 10.347656 26.109375 10.371094 26.109375 10.402344 C 26.109375 10.429688 26.132812 10.453125 26.164062 10.453125 L 27.125 10.453125 C 27.28125 10.453125 27.542969 10.449219 27.574219 10.484375 C 27.804688 10.753906 28.089844 11.167969 28.136719 11.515625 C 28.148438 11.617188 28.113281 11.660156 27.988281 11.660156 L 27.859375 11.660156 C 27.832031 11.660156 27.804688 11.683594 27.804688 11.714844 C 27.804688 11.742188 27.832031 11.765625 27.859375 11.765625 L 27.972656 11.765625 C 28.070312 11.765625 28.125 11.78125 28.101562 11.855469 C 27.976562 12.253906 27.789062 12.542969 27.027344 12.539062 C 26.230469 12.535156 26.070312 11.753906 26.300781 10.933594 C 26.347656 10.773438 26.300781 10.703125 26.226562 10.828125 L 25.671875 11.703125 C 25.660156 11.726562 25.605469 11.773438 25.519531 11.773438 L 25.441406 11.773438 C 25.410156 11.773438 25.390625 11.796875 25.390625 11.828125 C 25.390625 11.855469 25.414062 11.882812 25.441406 11.882812 C 25.511719 11.882812 25.539062 11.917969 25.511719 11.957031 L 25.308594 12.277344 C 24.972656 11.507812 24.410156 10.558594 24.109375 10.214844 L 24.117188 10.199219 C 24.855469 10.152344 25.949219 9.457031 26.128906 8.835938 C 26.4375 7.757812 25.394531 7.359375 24.824219 7.359375 L 22.320312 7.359375 C 21.988281 7.359375 21.964844 7.613281 22.285156 7.613281 C 22.457031 7.613281 22.605469 7.765625 22.53125 7.917969 L 21.976562 8.917969 C 21.929688 9 21.757812 8.996094 21.535156 8.996094 L 21.292969 8.996094 C 21.265625 8.996094 21.242188 9.019531 21.242188 9.050781 C 21.242188 9.078125 21.265625 9.101562 21.292969 9.101562 L 21.53125 9.101562 C 21.691406 9.101562 21.867188 9.113281 21.808594 9.226562 L 21.152344 10.414062 C 21.121094 10.46875 21.035156 10.472656 20.8125 10.472656 L 20.570312 10.472656 C 20.542969 10.472656 20.519531 10.496094 20.519531 10.527344 C 20.519531 10.554688 20.542969 10.582031 20.570312 10.582031 L 20.808594 10.582031 C 20.984375 10.582031 21.050781 10.605469 21 10.695312 L 20.125 12.28125 C 20.019531 12.394531 19.894531 12.417969 19.679688 12.417969 C 19.363281 12.417969 19.367188 12.667969 19.699219 12.667969 L 21.839844 12.667969 C 22.171875 12.667969 22.089844 12.410156 21.890625 12.410156 C 21.777344 12.410156 21.65625 12.199219 21.730469 12.070312 L 22.824219 9.996094 L 22.9375 9.996094 C 23.421875 9.996094 23.539062 10.796875 23.632812 11.667969 C 23.636719 11.730469 23.519531 11.734375 23.277344 11.734375 L 22.667969 11.734375 C 22.640625 11.734375 22.617188 11.757812 22.617188 11.789062 C 22.617188 11.816406 22.640625 11.84375 22.667969 11.84375 L 23.269531 11.84375 C 23.429688 11.84375 23.652344 11.84375 23.660156 11.894531 C 23.699219 12.277344 23.734375 12.617188 23.804688 12.921875 C 23.828125 13.019531 23.660156 13.003906 23.476562 13.003906 L 22.703125 13.003906 C 22.671875 13.003906 22.648438 13.027344 22.648438 13.058594 C 22.648438 13.089844 22.671875 13.113281 22.703125 13.113281 L 23.476562 13.113281 C 23.71875 13.113281 23.84375 13.113281 23.859375 13.164062 C 24.191406 14.386719 25.621094 15.351562 27.007812 15.296875 C 28.203125 15.253906 29.210938 14.601562 29.722656 14.1875 C 30.410156 13.636719 31.417969 12.480469 31.828125 11.640625 C 31.902344 11.488281 32.023438 11.289062 31.996094 11.152344 M 23.980469 9.523438 C 23.8125 9.660156 23.550781 9.820312 23.5 9.769531 C 23.429688 9.699219 23.207031 9.542969 23.089844 9.488281 L 24.082031 7.671875 C 24.121094 7.605469 24.167969 7.570312 24.277344 7.570312 C 24.664062 7.570312 24.792969 7.992188 24.609375 8.515625 C 24.484375 8.882812 24.277344 9.277344 23.980469 9.523438 "/>
<path style=" stroke:none;fill-rule:nonzero;fill:rgb(33.333333%,14.509804%,50.980392%);fill-opacity:1;" d="M 11.917969 5.746094 C 11.714844 6.003906 11.449219 6.070312 11.152344 6.070312 L 11.066406 6.070312 L 11.59375 5.027344 C 11.617188 4.976562 11.675781 4.941406 11.742188 4.941406 C 11.808594 4.941406 11.800781 4.808594 11.714844 4.808594 L 10.882812 4.808594 C 10.8125 4.808594 10.789062 4.941406 10.855469 4.941406 C 10.925781 4.941406 10.9375 5.019531 10.902344 5.085938 L 10.433594 6.015625 C 10.398438 6.066406 10.347656 6.082031 10.289062 6.097656 C 10.21875 6.113281 10.171875 6.238281 10.25 6.238281 L 11.578125 6.238281 C 11.679688 6.238281 11.703125 6.203125 11.730469 6.164062 L 11.996094 5.75 C 12.035156 5.703125 11.957031 5.695312 11.917969 5.746094 "/>
<path style=" stroke:none;fill-rule:nonzero;fill:rgb(33.333333%,14.509804%,50.980392%);fill-opacity:1;" d="M 15.910156 4.84375 C 15.871094 4.867188 15.777344 4.878906 15.734375 4.84375 C 15.628906 4.757812 15.421875 4.6875 15.3125 4.6875 C 15 4.6875 14.773438 4.75 14.636719 5.046875 C 14.523438 5.296875 14.640625 5.507812 14.917969 5.636719 C 15.035156 5.691406 15.195312 5.765625 15.132812 5.910156 C 15.089844 6.015625 14.964844 6.023438 14.855469 6.023438 C 14.707031 6.023438 14.484375 5.910156 14.453125 5.703125 C 14.441406 5.632812 14.359375 5.648438 14.335938 5.6875 L 14.148438 6.0625 C 14.117188 6.113281 14.195312 6.167969 14.226562 6.136719 C 14.292969 6.066406 14.429688 6.050781 14.5 6.097656 C 14.59375 6.160156 14.835938 6.269531 14.976562 6.269531 C 15.296875 6.265625 15.503906 6.183594 15.679688 5.910156 C 15.835938 5.664062 15.738281 5.417969 15.449219 5.28125 C 15.296875 5.207031 15.167969 5.082031 15.234375 4.941406 C 15.28125 4.847656 15.414062 4.867188 15.480469 4.878906 C 15.613281 4.902344 15.777344 5.023438 15.796875 5.132812 C 15.804688 5.175781 15.863281 5.1875 15.886719 5.144531 L 15.988281 4.910156 C 16.011719 4.867188 15.9375 4.832031 15.910156 4.84375 "/>
<path style=" stroke:none;fill-rule:nonzero;fill:rgb(33.333333%,14.509804%,50.980392%);fill-opacity:1;" d="M 25.113281 5.21875 L 25.230469 5.007812 C 25.28125 4.914062 25.199219 4.804688 25.066406 4.804688 L 23.515625 4.804688 C 23.40625 4.804688 23.4375 4.921875 23.484375 4.921875 C 23.582031 4.921875 23.613281 5.042969 23.550781 5.148438 L 23.085938 6.003906 C 23.015625 6.089844 22.972656 6.125 22.875 6.125 C 22.792969 6.125 22.765625 6.238281 22.875 6.238281 L 24.445312 6.238281 C 24.507812 6.238281 24.539062 6.21875 24.558594 6.183594 L 24.773438 5.902344 C 24.824219 5.832031 24.714844 5.832031 24.679688 5.867188 C 24.410156 6.140625 24.117188 6.132812 23.90625 6.132812 L 23.726562 6.132812 L 23.941406 5.648438 L 23.984375 5.648438 C 24.125 5.648438 24.28125 5.648438 24.324219 5.753906 C 24.335938 5.777344 24.402344 5.800781 24.429688 5.753906 L 24.613281 5.386719 C 24.644531 5.332031 24.5625 5.324219 24.539062 5.363281 C 24.46875 5.492188 24.148438 5.457031 24.066406 5.457031 L 24.019531 5.457031 L 24.289062 4.925781 L 24.585938 4.925781 C 24.769531 4.925781 24.929688 5.058594 24.984375 5.203125 C 24.996094 5.234375 25.09375 5.261719 25.113281 5.21875 "/>
<path style=" stroke:none;fill-rule:nonzero;fill:rgb(33.333333%,14.509804%,50.980392%);fill-opacity:1;" d="M 21.152344 4.804688 L 20.601562 4.804688 C 20.488281 4.804688 20.523438 4.921875 20.566406 4.921875 C 20.6875 4.921875 20.792969 5.0625 20.730469 5.191406 L 20.5 5.609375 L 19.996094 4.871094 C 19.964844 4.824219 19.882812 4.800781 19.816406 4.800781 L 19.273438 4.800781 C 19.164062 4.800781 19.1875 4.917969 19.234375 4.917969 C 19.347656 4.917969 19.320312 5.003906 19.289062 5.066406 L 18.859375 5.898438 C 18.832031 5.964844 18.714844 5.976562 18.675781 5.890625 L 18.34375 4.800781 C 18.328125 4.757812 18.132812 4.757812 18.082031 4.800781 L 17.246094 5.492188 L 16.8125 5.492188 C 16.726562 5.492188 16.691406 5.527344 16.691406 5.574219 C 16.691406 5.621094 16.722656 5.660156 16.8125 5.660156 L 17.039062 5.660156 L 16.8125 5.847656 C 16.6875 5.941406 16.558594 6.070312 16.472656 6.070312 L 16.421875 6.070312 C 16.339844 6.070312 16.292969 6.085938 16.292969 6.152344 C 16.292969 6.21875 16.328125 6.242188 16.402344 6.242188 L 17.078125 6.242188 C 17.207031 6.242188 17.183594 6.074219 17.117188 6.074219 C 17.046875 6.074219 16.933594 5.984375 17.039062 5.859375 L 17.246094 5.660156 L 17.652344 5.660156 C 17.894531 5.660156 18.0625 5.941406 17.917969 6.027344 L 17.808594 6.089844 C 17.757812 6.117188 17.734375 6.242188 17.808594 6.242188 L 19.128906 6.242188 C 19.226562 6.242188 19.207031 6.109375 19.160156 6.109375 C 19.027344 6.109375 19.089844 5.914062 19.117188 5.863281 L 19.464844 5.203125 L 19.949219 6.152344 C 19.984375 6.210938 20.011719 6.242188 20.070312 6.242188 L 20.253906 6.242188 C 20.3125 6.242188 20.335938 6.207031 20.363281 6.160156 L 20.917969 5.15625 C 21.007812 4.976562 21.074219 4.925781 21.1875 4.925781 C 21.234375 4.925781 21.265625 4.804688 21.152344 4.804688 M 17.457031 5.492188 L 17.976562 5.070312 L 17.976562 5.492188 Z M 17.457031 5.492188 "/>
<path style=" stroke:none;fill-rule:nonzero;fill:rgb(33.333333%,14.509804%,50.980392%);fill-opacity:1;" d="M 13.328125 4.742188 C 12.863281 4.742188 12.386719 4.972656 12.289062 5.460938 C 12.207031 5.886719 12.5 6.328125 13.019531 6.328125 C 13.511719 6.328125 13.96875 6.003906 14.0625 5.535156 C 14.152344 5.0625 13.800781 4.742188 13.328125 4.742188 M 13.460938 5.640625 C 13.3125 5.933594 13.066406 6.109375 12.910156 6.03125 C 12.753906 5.949219 12.746094 5.648438 12.890625 5.355469 C 13.039062 5.058594 13.285156 4.882812 13.441406 4.964844 C 13.601562 5.042969 13.605469 5.34375 13.460938 5.640625 "/>
<path style=" stroke:none;fill-rule:nonzero;fill:rgb(33.333333%,14.509804%,50.980392%);fill-opacity:1;" d="M 22.722656 5.457031 L 22.125 5.457031 C 22.015625 5.457031 22.046875 5.574219 22.09375 5.574219 C 22.140625 5.574219 22.183594 5.597656 22.183594 5.671875 C 22.183594 5.914062 22.082031 6.007812 21.875 6.007812 C 21.648438 6.007812 21.566406 5.730469 21.71875 5.394531 C 21.816406 5.175781 22.074219 4.972656 22.378906 4.972656 C 22.570312 4.972656 22.726562 5.015625 22.75 5.191406 C 22.757812 5.234375 22.820312 5.234375 22.84375 5.195312 L 22.984375 4.9375 C 23 4.910156 22.976562 4.878906 22.933594 4.878906 C 22.898438 4.875 22.816406 4.921875 22.761719 4.882812 C 22.640625 4.792969 22.382812 4.707031 22.1875 4.707031 C 21.867188 4.707031 21.417969 4.777344 21.117188 5.304688 C 20.84375 5.78125 21.242188 6.285156 21.609375 6.285156 C 21.816406 6.285156 22.054688 6.132812 22.191406 6.074219 L 22.34375 6.179688 C 22.363281 6.207031 22.414062 6.238281 22.457031 6.238281 L 22.515625 6.238281 C 22.566406 6.238281 22.585938 6.167969 22.609375 6.121094 L 22.839844 5.554688 C 22.871094 5.496094 22.855469 5.457031 22.722656 5.457031 "/>
<path style=" stroke:none;fill-rule:nonzero;fill:rgb(33.333333%,14.509804%,50.980392%);fill-opacity:1;" d="M 30.898438 4.84375 C 30.859375 4.867188 30.761719 4.878906 30.722656 4.84375 C 30.617188 4.757812 30.410156 4.6875 30.300781 4.6875 C 29.988281 4.6875 29.761719 4.75 29.625 5.046875 C 29.507812 5.296875 29.628906 5.507812 29.902344 5.636719 C 30.023438 5.691406 30.183594 5.765625 30.121094 5.910156 C 30.074219 6.015625 29.953125 6.023438 29.84375 6.023438 C 29.695312 6.023438 29.472656 5.910156 29.4375 5.703125 C 29.425781 5.632812 29.347656 5.648438 29.324219 5.6875 L 29.136719 6.0625 C 29.105469 6.113281 29.183594 6.167969 29.214844 6.136719 C 29.277344 6.066406 29.417969 6.050781 29.484375 6.097656 C 29.578125 6.160156 29.820312 6.269531 29.964844 6.269531 C 30.28125 6.265625 30.492188 6.183594 30.664062 5.910156 C 30.824219 5.664062 30.726562 5.417969 30.4375 5.28125 C 30.285156 5.207031 30.152344 5.082031 30.222656 4.941406 C 30.265625 4.847656 30.402344 4.867188 30.46875 4.878906 C 30.597656 4.902344 30.765625 5.023438 30.785156 5.132812 C 30.792969 5.175781 30.847656 5.1875 30.875 5.144531 L 30.972656 4.910156 C 30.996094 4.867188 30.921875 4.832031 30.898438 4.84375 "/>
<path style=" stroke:none;fill-rule:nonzero;fill:rgb(33.333333%,14.509804%,50.980392%);fill-opacity:1;" d="M 26.75 5.746094 C 26.546875 6.003906 26.28125 6.070312 25.980469 6.070312 L 25.898438 6.070312 L 26.425781 5.027344 C 26.449219 4.976562 26.503906 4.941406 26.574219 4.941406 C 26.640625 4.941406 26.632812 4.808594 26.546875 4.808594 L 25.714844 4.808594 C 25.644531 4.808594 25.621094 4.941406 25.683594 4.941406 C 25.757812 4.941406 25.769531 5.019531 25.734375 5.085938 L 25.261719 6.015625 C 25.230469 6.066406 25.179688 6.082031 25.121094 6.097656 C 25.050781 6.113281 25.003906 6.238281 25.082031 6.238281 L 26.410156 6.238281 C 26.511719 6.238281 26.535156 6.203125 26.5625 6.164062 L 26.828125 5.75 C 26.867188 5.703125 26.789062 5.695312 26.75 5.746094 "/>
<path style=" stroke:none;fill-rule:nonzero;fill:rgb(33.333333%,14.509804%,50.980392%);fill-opacity:1;" d="M 28.75 4.925781 C 28.933594 4.925781 29.09375 5.058594 29.144531 5.203125 C 29.15625 5.234375 29.257812 5.261719 29.277344 5.21875 L 29.394531 5.007812 C 29.441406 4.914062 29.359375 4.804688 29.226562 4.804688 L 27.679688 4.804688 C 27.570312 4.804688 27.601562 4.921875 27.648438 4.921875 C 27.746094 4.921875 27.777344 5.042969 27.714844 5.148438 L 27.25 6.003906 C 27.179688 6.089844 27.136719 6.125 27.035156 6.125 C 26.957031 6.125 26.929688 6.238281 27.039062 6.238281 L 28.609375 6.238281 C 28.671875 6.238281 28.703125 6.21875 28.722656 6.183594 L 28.9375 5.902344 C 28.988281 5.832031 28.875 5.832031 28.84375 5.867188 C 28.570312 6.140625 28.28125 6.132812 28.070312 6.132812 L 27.886719 6.132812 L 28.105469 5.648438 L 28.148438 5.648438 C 28.285156 5.648438 28.445312 5.648438 28.488281 5.753906 C 28.5 5.777344 28.566406 5.800781 28.59375 5.753906 L 28.777344 5.386719 C 28.808594 5.332031 28.726562 5.324219 28.703125 5.363281 C 28.628906 5.492188 28.3125 5.457031 28.226562 5.457031 L 28.183594 5.457031 L 28.449219 4.925781 Z M 28.75 4.925781 "/>
<g clip-path="url(#clip1)" clip-rule="nonzero">
<g clip-path="url(#clip2)" clip-rule="nonzero">
<path style=" stroke:none;fill-rule:nonzero;fill:rgb(33.333333%,14.509804%,50.980392%);fill-opacity:1;" d="M 19.480469 10.996094 C 18.582031 12.085938 18.074219 12.460938 17.164062 12.460938 C 16.855469 12.460938 16.691406 12.390625 16.78125 12.238281 L 17.859375 10.0625 L 18.273438 10.0625 C 18.730469 10.0625 18.667969 10.449219 18.542969 10.976562 C 18.519531 11.050781 18.578125 11.054688 18.632812 10.988281 L 19.660156 9.179688 C 19.707031 9.066406 19.578125 9.042969 19.515625 9.128906 C 19 9.832031 18.460938 9.777344 18.230469 9.777344 L 18.046875 9.777344 L 19.199219 7.570312 L 19.664062 7.570312 C 20.25 7.609375 20.523438 8.105469 20.355469 9.308594 L 20.597656 9.308594 L 21.445312 7.632812 C 21.515625 7.492188 21.371094 7.359375 21.210938 7.359375 L 15.453125 7.363281 C 15.121094 7.363281 15.105469 7.621094 15.425781 7.621094 C 15.683594 7.621094 15.667969 7.992188 15.4375 8.171875 L 12.992188 10.117188 L 13.488281 12.414062 C 13.523438 12.585938 13.632812 12.667969 13.824219 12.667969 L 18.585938 12.667969 C 18.78125 12.667969 18.863281 12.589844 18.925781 12.507812 L 19.789062 11.015625 C 19.90625 10.800781 19.628906 10.8125 19.480469 10.996094 M 16.164062 9.945312 L 15.746094 9.945312 C 15.714844 9.945312 15.691406 9.96875 15.691406 9.996094 C 15.691406 10.027344 15.714844 10.050781 15.746094 10.050781 L 16.171875 10.046875 C 16.3125 10.046875 16.445312 10.066406 16.410156 10.128906 L 15.308594 12.234375 C 15.171875 12.488281 14.882812 12.421875 14.835938 12.222656 L 14.292969 9.398438 L 16.207031 7.910156 C 16.398438 7.746094 16.765625 7.476562 16.953125 7.480469 L 17.371094 7.476562 C 17.625 7.476562 17.714844 7.59375 17.65625 7.75 L 17.582031 7.890625 C 17.53125 7.972656 17.382812 7.980469 17.253906 7.980469 L 17.015625 7.984375 C 16.984375 7.984375 16.960938 8.007812 16.960938 8.035156 C 16.960938 8.066406 16.984375 8.089844 17.015625 8.089844 L 17.25 8.089844 C 17.355469 8.089844 17.484375 8.09375 17.4375 8.167969 L 16.546875 9.867188 C 16.507812 9.933594 16.320312 9.945312 16.164062 9.945312 "/>
</g>
</g>
<g clip-path="url(#clip3)" clip-rule="nonzero">
<g clip-path="url(#clip4)" clip-rule="nonzero">
<path style=" stroke:none;fill-rule:nonzero;fill:rgb(33.333333%,14.509804%,50.980392%);fill-opacity:1;" d="M 12.214844 12.414062 C 12.082031 12.40625 12 12.320312 11.972656 12.234375 C 11.929688 12.109375 11.933594 11.894531 11.984375 11.796875 L 14.203125 7.847656 C 14.242188 7.777344 14.332031 7.625 14.441406 7.625 C 14.636719 7.625 14.722656 7.367188 14.390625 7.367188 L 12.609375 7.367188 C 12.277344 7.367188 12.277344 7.617188 12.59375 7.617188 C 12.722656 7.617188 12.777344 7.746094 12.738281 7.824219 L 12.246094 8.71875 C 12.1875 8.816406 12.050781 8.824219 11.90625 8.824219 L 11.484375 8.820312 C 11.453125 8.820312 11.429688 8.84375 11.429688 8.875 C 11.429688 8.90625 11.453125 8.929688 11.484375 8.929688 L 11.902344 8.929688 C 12.015625 8.929688 12.105469 8.964844 12.042969 9.09375 L 10.402344 12.089844 C 10.285156 12.253906 10.050781 12.289062 10.0625 11.976562 L 10.644531 7.589844 C 10.667969 7.453125 10.632812 7.359375 10.484375 7.359375 L 9.609375 7.363281 C 9.503906 7.363281 9.4375 7.414062 9.386719 7.480469 L 9.074219 7.878906 C 9.03125 7.917969 8.945312 7.917969 8.847656 7.917969 L 8.105469 7.917969 C 8.078125 7.917969 8.054688 7.941406 8.054688 7.972656 C 8.054688 8 8.078125 8.023438 8.105469 8.023438 L 8.710938 8.023438 C 8.816406 8.023438 8.941406 8.050781 8.898438 8.101562 L 8.050781 9.167969 C 8.027344 9.195312 7.945312 9.203125 7.894531 9.203125 L 7.652344 9.203125 C 7.625 9.203125 7.601562 9.226562 7.601562 9.257812 C 7.601562 9.285156 7.625 9.308594 7.652344 9.308594 L 7.851562 9.308594 C 7.914062 9.308594 7.914062 9.339844 7.890625 9.367188 L 7.097656 10.371094 C 7.054688 10.410156 6.976562 10.417969 6.898438 10.417969 L 6.195312 10.414062 C 6.167969 10.414062 6.144531 10.4375 6.144531 10.46875 C 6.144531 10.5 6.167969 10.523438 6.195312 10.523438 L 6.796875 10.523438 C 6.890625 10.523438 6.960938 10.539062 6.914062 10.601562 L 5.78125 12.019531 C 5.570312 12.292969 4.546875 12.429688 4.347656 12.429688 L 8.167969 5.261719 C 8.207031 5.179688 8.347656 5.054688 8.496094 5.054688 L 9.304688 5.054688 C 9.6875 5.054688 9.675781 4.800781 9.34375 4.800781 L 5.265625 4.800781 C 4.933594 4.800781 4.921875 5.054688 5.300781 5.054688 L 6.058594 5.054688 C 6.273438 5.054688 6.339844 5.183594 6.285156 5.292969 L 6.179688 5.488281 C 6.144531 5.550781 6.089844 5.578125 5.882812 5.578125 L 4.550781 5.578125 C 4.519531 5.578125 4.496094 5.601562 4.496094 5.628906 C 4.496094 5.660156 4.519531 5.683594 4.550781 5.683594 L 5.882812 5.683594 C 5.953125 5.683594 6.0625 5.703125 5.992188 5.832031 L 5.804688 6.179688 C 5.773438 6.234375 5.691406 6.257812 5.597656 6.257812 L 4.996094 6.257812 C 4.964844 6.257812 4.941406 6.28125 4.941406 6.308594 C 4.941406 6.339844 4.964844 6.363281 4.996094 6.363281 L 5.597656 6.363281 C 5.683594 6.363281 5.683594 6.421875 5.636719 6.5 L 5.203125 7.300781 C 5.167969 7.371094 5.097656 7.378906 4.960938 7.378906 L 4.722656 7.378906 C 4.691406 7.378906 4.667969 7.402344 4.667969 7.433594 C 4.667969 7.460938 4.691406 7.484375 4.722656 7.484375 L 4.957031 7.484375 C 5.050781 7.484375 5.074219 7.535156 5.03125 7.621094 L 4.679688 8.28125 C 4.625 8.375 4.550781 8.410156 4.316406 8.410156 L 2.984375 8.410156 C 2.953125 8.410156 2.929688 8.433594 2.929688 8.464844 C 2.929688 8.492188 2.953125 8.515625 2.984375 8.515625 L 4.3125 8.515625 C 4.464844 8.519531 4.519531 8.585938 4.460938 8.695312 L 3.769531 9.992188 C 3.730469 10.046875 3.617188 10.058594 3.425781 10.058594 L 2.09375 10.054688 C 2.0625 10.054688 2.039062 10.082031 2.039062 10.109375 C 2.039062 10.140625 2.0625 10.164062 2.09375 10.164062 L 3.421875 10.164062 C 3.582031 10.164062 3.679688 10.167969 3.632812 10.253906 L 3.234375 11.003906 C 3.160156 11.117188 2.957031 11.117188 2.878906 11.117188 L 2.453125 11.117188 C 2.425781 11.117188 2.402344 11.140625 2.402344 11.167969 C 2.402344 11.199219 2.425781 11.222656 2.453125 11.222656 L 2.875 11.222656 C 3.023438 11.222656 3.101562 11.246094 3.0625 11.328125 L 2.53125 12.328125 C 2.484375 12.417969 2.277344 12.421875 2.117188 12.421875 L 0.0546875 12.417969 C 0.0234375 12.417969 0 12.441406 0 12.472656 C 0 12.5 0.0234375 12.527344 0.0546875 12.527344 L 2.113281 12.527344 C 2.25 12.527344 2.421875 12.542969 2.359375 12.652344 L 2.019531 13.289062 C 1.988281 13.34375 1.875 13.347656 1.707031 13.347656 L 1.285156 13.347656 C 1.253906 13.347656 1.230469 13.371094 1.230469 13.398438 C 1.230469 13.429688 1.253906 13.453125 1.285156 13.453125 L 1.703125 13.453125 C 1.804688 13.453125 1.929688 13.464844 1.886719 13.542969 L 1.675781 13.949219 C 1.609375 14.050781 1.539062 14.140625 1.375 14.140625 L 0.339844 14.140625 C -0.0429688 14.140625 -0.0273438 14.398438 0.304688 14.398438 L 6.382812 14.398438 C 6.5625 14.398438 6.566406 14.375 6.652344 14.246094 L 7.550781 12.667969 L 12.160156 12.667969 C 12.492188 12.671875 12.40625 12.417969 12.214844 12.414062 M 8.597656 11.941406 C 8.554688 12.203125 8.292969 12.375 7.964844 12.460938 L 7.625 12.546875 L 7.902344 12.042969 C 7.976562 11.90625 7.816406 11.828125 7.640625 12.03125 C 6.464844 13.40625 6.089844 14.0625 4.273438 14.066406 L 3.785156 14.066406 C 3.636719 14.066406 3.476562 14.011719 3.578125 13.871094 L 4.21875 12.671875 L 6.65625 12.671875 C 6.992188 12.671875 6.90625 12.417969 6.710938 12.414062 C 6.582031 12.40625 6.4375 12.335938 6.339844 12.175781 C 6.3125 12.132812 6.25 11.957031 6.347656 11.824219 L 7.28125 10.578125 L 8.832031 10.578125 Z M 8.949219 10.371094 L 7.433594 10.371094 L 9.351562 7.835938 Z M 8.949219 10.371094 "/>
</g>
</g>
<g clip-path="url(#clip5)" clip-rule="nonzero">
<g clip-path="url(#clip6)" clip-rule="nonzero">
<path style=" stroke:none;fill-rule:nonzero;fill:rgb(33.333333%,14.509804%,50.980392%);fill-opacity:1;" d="M 31.996094 11.152344 C 31.972656 11.027344 31.925781 11.105469 31.84375 11.261719 C 31.820312 11.308594 31.738281 11.3125 31.660156 11.3125 L 31.414062 11.3125 C 31.386719 11.3125 31.363281 11.335938 31.363281 11.367188 C 31.363281 11.394531 31.386719 11.417969 31.414062 11.417969 L 31.65625 11.417969 C 31.746094 11.417969 31.746094 11.480469 31.703125 11.570312 C 31.535156 11.929688 31.363281 12.167969 31.136719 12.457031 C 31.097656 12.5 31.007812 12.539062 30.933594 12.539062 L 30.6875 12.542969 C 30.660156 12.542969 30.636719 12.566406 30.636719 12.597656 C 30.636719 12.625 30.660156 12.648438 30.6875 12.648438 L 30.929688 12.648438 C 31.050781 12.648438 30.925781 12.722656 30.90625 12.75 C 30.480469 13.320312 30.1875 13.574219 29.875 13.828125 C 29.839844 13.859375 29.664062 13.847656 29.539062 13.847656 L 29.296875 13.847656 C 29.269531 13.847656 29.246094 13.871094 29.246094 13.902344 C 29.246094 13.929688 29.269531 13.953125 29.296875 13.953125 L 29.535156 13.953125 C 29.71875 13.953125 29.582031 14.058594 29.554688 14.082031 C 28.890625 14.636719 27.90625 14.8125 27.453125 14.757812 C 25.988281 14.574219 25.6875 13.457031 25.578125 13.011719 C 25.554688 12.917969 25.484375 12.726562 25.460938 12.609375 C 25.414062 12.375 26.078125 12.308594 26.261719 12.433594 C 26.535156 12.617188 27.183594 12.808594 27.691406 12.8125 C 28.160156 12.8125 29.121094 12.46875 29.402344 11.660156 C 29.6875 10.832031 28.972656 9.914062 28.652344 9.597656 C 28.25 9.191406 27.867188 8.546875 28.03125 8.074219 C 28.152344 7.71875 28.351562 7.558594 28.785156 7.558594 C 29.347656 7.558594 29.753906 7.917969 29.753906 8.429688 C 29.753906 8.476562 29.726562 8.53125 29.691406 8.53125 L 29.492188 8.53125 C 29.464844 8.53125 29.4375 8.558594 29.4375 8.585938 C 29.4375 8.617188 29.464844 8.640625 29.492188 8.640625 L 29.679688 8.640625 C 29.730469 8.640625 29.765625 8.679688 29.75 8.742188 C 29.714844 8.914062 29.703125 9.035156 29.664062 9.207031 C 29.644531 9.308594 29.789062 9.375 29.839844 9.304688 L 30.722656 7.726562 C 30.785156 7.609375 30.644531 7.574219 30.539062 7.613281 C 30.296875 7.695312 29.90625 7.753906 29.765625 7.652344 C 29.4375 7.417969 29.136719 7.265625 28.675781 7.265625 C 27.890625 7.265625 27.34375 7.457031 26.992188 8.105469 C 26.964844 8.15625 26.886719 8.15625 26.820312 8.15625 L 26.671875 8.15625 C 26.640625 8.15625 26.617188 8.175781 26.617188 8.207031 C 26.617188 8.238281 26.640625 8.261719 26.671875 8.261719 L 26.800781 8.257812 C 26.855469 8.257812 26.890625 8.273438 26.863281 8.339844 C 26.839844 8.398438 26.816406 8.457031 26.796875 8.523438 C 26.707031 8.800781 26.738281 9.195312 26.875 9.542969 C 26.886719 9.566406 26.855469 9.578125 26.800781 9.578125 L 26.5625 9.578125 C 26.53125 9.578125 26.507812 9.601562 26.507812 9.632812 C 26.507812 9.660156 26.53125 9.683594 26.5625 9.683594 L 26.800781 9.683594 C 26.910156 9.6875 26.9375 9.695312 26.980469 9.761719 C 27.105469 9.933594 27.230469 10.0625 27.390625 10.265625 C 27.441406 10.332031 27.226562 10.347656 27.113281 10.347656 L 26.164062 10.347656 C 26.132812 10.347656 26.109375 10.371094 26.109375 10.402344 C 26.109375 10.429688 26.132812 10.453125 26.164062 10.453125 L 27.125 10.453125 C 27.28125 10.453125 27.542969 10.449219 27.574219 10.484375 C 27.804688 10.753906 28.089844 11.167969 28.136719 11.515625 C 28.148438 11.617188 28.113281 11.660156 27.988281 11.660156 L 27.859375 11.660156 C 27.832031 11.660156 27.804688 11.683594 27.804688 11.714844 C 27.804688 11.742188 27.832031 11.765625 27.859375 11.765625 L 27.972656 11.765625 C 28.070312 11.765625 28.125 11.78125 28.101562 11.855469 C 27.976562 12.253906 27.789062 12.542969 27.027344 12.539062 C 26.230469 12.535156 26.070312 11.753906 26.300781 10.933594 C 26.347656 10.773438 26.300781 10.703125 26.226562 10.828125 L 25.671875 11.703125 C 25.660156 11.726562 25.605469 11.773438 25.519531 11.773438 L 25.441406 11.773438 C 25.410156 11.773438 25.390625 11.796875 25.390625 11.828125 C 25.390625 11.855469 25.414062 11.882812 25.441406 11.882812 C 25.511719 11.882812 25.539062 11.917969 25.511719 11.957031 L 25.308594 12.277344 C 24.972656 11.507812 24.410156 10.558594 24.109375 10.214844 L 24.117188 10.199219 C 24.855469 10.152344 25.949219 9.457031 26.128906 8.835938 C 26.4375 7.757812 25.394531 7.359375 24.824219 7.359375 L 22.320312 7.359375 C 21.988281 7.359375 21.964844 7.613281 22.285156 7.613281 C 22.457031 7.613281 22.605469 7.765625 22.53125 7.917969 L 21.976562 8.917969 C 21.929688 9 21.757812 8.996094 21.535156 8.996094 L 21.292969 8.996094 C 21.265625 8.996094 21.242188 9.019531 21.242188 9.050781 C 21.242188 9.078125 21.265625 9.101562 21.292969 9.101562 L 21.53125 9.101562 C 21.691406 9.101562 21.867188 9.113281 21.808594 9.226562 L 21.152344 10.414062 C 21.121094 10.46875 21.035156 10.472656 20.8125 10.472656 L 20.570312 10.472656 C 20.542969 10.472656 20.519531 10.496094 20.519531 10.527344 C 20.519531 10.554688 20.542969 10.582031 20.570312 10.582031 L 20.808594 10.582031 C 20.984375 10.582031 21.050781 10.605469 21 10.695312 L 20.125 12.28125 C 20.019531 12.394531 19.894531 12.417969 19.679688 12.417969 C 19.363281 12.417969 19.367188 12.667969 19.699219 12.667969 L 21.839844 12.667969 C 22.171875 12.667969 22.089844 12.410156 21.890625 12.410156 C 21.777344 12.410156 21.65625 12.199219 21.730469 12.070312 L 22.824219 9.996094 L 22.9375 9.996094 C 23.421875 9.996094 23.539062 10.796875 23.632812 11.667969 C 23.636719 11.730469 23.519531 11.734375 23.277344 11.734375 L 22.667969 11.734375 C 22.640625 11.734375 22.617188 11.757812 22.617188 11.789062 C 22.617188 11.816406 22.640625 11.84375 22.667969 11.84375 L 23.269531 11.84375 C 23.429688 11.84375 23.652344 11.84375 23.660156 11.894531 C 23.699219 12.277344 23.734375 12.617188 23.804688 12.921875 C 23.828125 13.019531 23.660156 13.003906 23.476562 13.003906 L 22.703125 13.003906 C 22.671875 13.003906 22.648438 13.027344 22.648438 13.058594 C 22.648438 13.089844 22.671875 13.113281 22.703125 13.113281 L 23.476562 13.113281 C 23.71875 13.113281 23.84375 13.113281 23.859375 13.164062 C 24.191406 14.386719 25.621094 15.351562 27.007812 15.296875 C 28.203125 15.253906 29.210938 14.601562 29.722656 14.1875 C 30.410156 13.636719 31.417969 12.480469 31.828125 11.640625 C 31.902344 11.488281 32.023438 11.289062 31.996094 11.152344 M 23.980469 9.523438 C 23.8125 9.660156 23.550781 9.820312 23.5 9.769531 C 23.429688 9.699219 23.207031 9.542969 23.089844 9.488281 L 24.082031 7.671875 C 24.121094 7.605469 24.167969 7.570312 24.277344 7.570312 C 24.664062 7.570312 24.792969 7.992188 24.609375 8.515625 C 24.484375 8.882812 24.277344 9.277344 23.980469 9.523438 "/>
</g>
</g>
<g clip-path="url(#clip7)" clip-rule="nonzero">
<g clip-path="url(#clip8)" clip-rule="nonzero">
<path style=" stroke:none;fill-rule:nonzero;fill:rgb(33.333333%,14.509804%,50.980392%);fill-opacity:1;" d="M 11.917969 5.746094 C 11.714844 6.003906 11.449219 6.070312 11.152344 6.070312 L 11.066406 6.070312 L 11.59375 5.027344 C 11.617188 4.976562 11.675781 4.941406 11.742188 4.941406 C 11.808594 4.941406 11.800781 4.808594 11.714844 4.808594 L 10.882812 4.808594 C 10.8125 4.808594 10.789062 4.941406 10.855469 4.941406 C 10.925781 4.941406 10.9375 5.019531 10.902344 5.085938 L 10.433594 6.015625 C 10.398438 6.066406 10.347656 6.082031 10.289062 6.097656 C 10.21875 6.113281 10.171875 6.238281 10.25 6.238281 L 11.578125 6.238281 C 11.679688 6.238281 11.703125 6.203125 11.730469 6.164062 L 11.996094 5.75 C 12.035156 5.703125 11.957031 5.695312 11.917969 5.746094 "/>
</g>
</g>
<g clip-path="url(#clip9)" clip-rule="nonzero">
<g clip-path="url(#clip10)" clip-rule="nonzero">
<path style=" stroke:none;fill-rule:nonzero;fill:rgb(33.333333%,14.509804%,50.980392%);fill-opacity:1;" d="M 15.910156 4.84375 C 15.871094 4.867188 15.777344 4.878906 15.734375 4.84375 C 15.628906 4.757812 15.421875 4.6875 15.3125 4.6875 C 15 4.6875 14.773438 4.75 14.636719 5.046875 C 14.523438 5.296875 14.640625 5.507812 14.917969 5.636719 C 15.035156 5.691406 15.195312 5.765625 15.132812 5.910156 C 15.089844 6.015625 14.964844 6.023438 14.855469 6.023438 C 14.707031 6.023438 14.484375 5.910156 14.453125 5.703125 C 14.441406 5.632812 14.359375 5.648438 14.335938 5.6875 L 14.148438 6.0625 C 14.117188 6.113281 14.195312 6.167969 14.226562 6.136719 C 14.292969 6.066406 14.429688 6.050781 14.5 6.097656 C 14.59375 6.160156 14.835938 6.269531 14.976562 6.269531 C 15.296875 6.265625 15.503906 6.183594 15.679688 5.910156 C 15.835938 5.664062 15.738281 5.417969 15.449219 5.28125 C 15.296875 5.207031 15.167969 5.082031 15.234375 4.941406 C 15.28125 4.847656 15.414062 4.867188 15.480469 4.878906 C 15.613281 4.902344 15.777344 5.023438 15.796875 5.132812 C 15.804688 5.175781 15.863281 5.1875 15.886719 5.144531 L 15.988281 4.910156 C 16.011719 4.867188 15.9375 4.832031 15.910156 4.84375 "/>
</g>
</g>
<g clip-path="url(#clip11)" clip-rule="nonzero">
<g clip-path="url(#clip12)" clip-rule="nonzero">
<path style=" stroke:none;fill-rule:nonzero;fill:rgb(33.333333%,14.509804%,50.980392%);fill-opacity:1;" d="M 25.113281 5.21875 L 25.230469 5.007812 C 25.28125 4.914062 25.199219 4.804688 25.066406 4.804688 L 23.515625 4.804688 C 23.40625 4.804688 23.4375 4.921875 23.484375 4.921875 C 23.582031 4.921875 23.613281 5.042969 23.550781 5.148438 L 23.085938 6.003906 C 23.015625 6.089844 22.972656 6.125 22.875 6.125 C 22.792969 6.125 22.765625 6.238281 22.875 6.238281 L 24.445312 6.238281 C 24.507812 6.238281 24.539062 6.21875 24.558594 6.183594 L 24.773438 5.902344 C 24.824219 5.832031 24.714844 5.832031 24.679688 5.867188 C 24.410156 6.140625 24.117188 6.132812 23.90625 6.132812 L 23.726562 6.132812 L 23.941406 5.648438 L 23.984375 5.648438 C 24.125 5.648438 24.28125 5.648438 24.324219 5.753906 C 24.335938 5.777344 24.402344 5.800781 24.429688 5.753906 L 24.613281 5.386719 C 24.644531 5.332031 24.5625 5.324219 24.539062 5.363281 C 24.46875 5.492188 24.148438 5.457031 24.066406 5.457031 L 24.019531 5.457031 L 24.289062 4.925781 L 24.585938 4.925781 C 24.769531 4.925781 24.929688 5.058594 24.984375 5.203125 C 24.996094 5.234375 25.09375 5.261719 25.113281 5.21875 "/>
</g>
</g>
<g clip-path="url(#clip13)" clip-rule="nonzero">
<g clip-path="url(#clip14)" clip-rule="nonzero">
<path style=" stroke:none;fill-rule:nonzero;fill:rgb(33.333333%,14.509804%,50.980392%);fill-opacity:1;" d="M 21.152344 4.804688 L 20.601562 4.804688 C 20.488281 4.804688 20.523438 4.921875 20.566406 4.921875 C 20.6875 4.921875 20.792969 5.0625 20.730469 5.191406 L 20.5 5.609375 L 19.996094 4.871094 C 19.964844 4.824219 19.882812 4.800781 19.816406 4.800781 L 19.273438 4.800781 C 19.164062 4.800781 19.1875 4.917969 19.234375 4.917969 C 19.347656 4.917969 19.320312 5.003906 19.289062 5.066406 L 18.859375 5.898438 C 18.832031 5.964844 18.714844 5.976562 18.675781 5.890625 L 18.34375 4.800781 C 18.328125 4.757812 18.132812 4.757812 18.082031 4.800781 L 17.246094 5.492188 L 16.8125 5.492188 C 16.726562 5.492188 16.691406 5.527344 16.691406 5.574219 C 16.691406 5.621094 16.722656 5.660156 16.8125 5.660156 L 17.039062 5.660156 L 16.8125 5.847656 C 16.6875 5.941406 16.558594 6.070312 16.472656 6.070312 L 16.421875 6.070312 C 16.339844 6.070312 16.292969 6.085938 16.292969 6.152344 C 16.292969 6.21875 16.328125 6.242188 16.402344 6.242188 L 17.078125 6.242188 C 17.207031 6.242188 17.183594 6.074219 17.117188 6.074219 C 17.046875 6.074219 16.933594 5.984375 17.039062 5.859375 L 17.246094 5.660156 L 17.652344 5.660156 C 17.894531 5.660156 18.0625 5.941406 17.917969 6.027344 L 17.808594 6.089844 C 17.757812 6.117188 17.734375 6.242188 17.808594 6.242188 L 19.128906 6.242188 C 19.226562 6.242188 19.207031 6.109375 19.160156 6.109375 C 19.027344 6.109375 19.089844 5.914062 19.117188 5.863281 L 19.464844 5.203125 L 19.949219 6.152344 C 19.984375 6.210938 20.011719 6.242188 20.070312 6.242188 L 20.253906 6.242188 C 20.3125 6.242188 20.335938 6.207031 20.363281 6.160156 L 20.917969 5.15625 C 21.007812 4.976562 21.074219 4.925781 21.1875 4.925781 C 21.234375 4.925781 21.265625 4.804688 21.152344 4.804688 M 17.457031 5.492188 L 17.976562 5.070312 L 17.976562 5.492188 Z M 17.457031 5.492188 "/>
</g>
</g>
<g clip-path="url(#clip15)" clip-rule="nonzero">
<g clip-path="url(#clip16)" clip-rule="nonzero">
<path style=" stroke:none;fill-rule:nonzero;fill:rgb(33.333333%,14.509804%,50.980392%);fill-opacity:1;" d="M 13.328125 4.742188 C 12.863281 4.742188 12.386719 4.972656 12.289062 5.460938 C 12.207031 5.886719 12.5 6.328125 13.019531 6.328125 C 13.511719 6.328125 13.96875 6.003906 14.0625 5.535156 C 14.152344 5.0625 13.800781 4.742188 13.328125 4.742188 M 13.460938 5.640625 C 13.3125 5.933594 13.066406 6.109375 12.910156 6.03125 C 12.753906 5.949219 12.746094 5.648438 12.890625 5.355469 C 13.039062 5.058594 13.285156 4.882812 13.441406 4.964844 C 13.601562 5.042969 13.605469 5.34375 13.460938 5.640625 "/>
</g>
</g>
<g clip-path="url(#clip17)" clip-rule="nonzero">
<g clip-path="url(#clip18)" clip-rule="nonzero">
<path style=" stroke:none;fill-rule:nonzero;fill:rgb(33.333333%,14.509804%,50.980392%);fill-opacity:1;" d="M 22.722656 5.457031 L 22.125 5.457031 C 22.015625 5.457031 22.046875 5.574219 22.09375 5.574219 C 22.140625 5.574219 22.183594 5.597656 22.183594 5.671875 C 22.183594 5.914062 22.082031 6.007812 21.875 6.007812 C 21.648438 6.007812 21.566406 5.730469 21.71875 5.394531 C 21.816406 5.175781 22.074219 4.972656 22.378906 4.972656 C 22.570312 4.972656 22.726562 5.015625 22.75 5.191406 C 22.757812 5.234375 22.820312 5.234375 22.84375 5.195312 L 22.984375 4.9375 C 23 4.910156 22.976562 4.878906 22.933594 4.878906 C 22.898438 4.875 22.816406 4.921875 22.761719 4.882812 C 22.640625 4.792969 22.382812 4.707031 22.1875 4.707031 C 21.867188 4.707031 21.417969 4.777344 21.117188 5.304688 C 20.84375 5.78125 21.242188 6.285156 21.609375 6.285156 C 21.816406 6.285156 22.054688 6.132812 22.191406 6.074219 L 22.34375 6.179688 C 22.363281 6.207031 22.414062 6.238281 22.457031 6.238281 L 22.515625 6.238281 C 22.566406 6.238281 22.585938 6.167969 22.609375 6.121094 L 22.839844 5.554688 C 22.871094 5.496094 22.855469 5.457031 22.722656 5.457031 "/>
</g>
</g>
<path style=" stroke:none;fill-rule:nonzero;fill:rgb(13.72549%,12.156863%,12.54902%);fill-opacity:1;" d="M 22.648438 3.671875 C 22.53125 3.535156 22.367188 3.242188 21.1875 2.210938 C 19.449219 0.691406 17.148438 0 14.988281 0 C 13.394531 0 12 0.359375 10.453125 1.210938 C 8.488281 2.296875 7.671875 3.542969 7.46875 3.796875 C 7.320312 3.984375 7.300781 4.09375 7.394531 4.148438 C 7.464844 4.191406 7.597656 4.042969 7.722656 3.878906 C 8.308594 3.105469 9.078125 2.335938 9.886719 1.886719 C 10.140625 1.921875 10.492188 2.273438 10.628906 2.460938 C 10.109375 2.742188 9.25 3.398438 8.925781 3.652344 C 8.644531 3.871094 8.546875 3.992188 8.625 4.082031 C 8.6875 4.15625 8.902344 4.011719 9.082031 3.863281 C 9.394531 3.605469 10.316406 2.949219 10.773438 2.703125 C 11.085938 3.066406 10.984375 3.742188 10.875 3.890625 C 10.816406 3.96875 10.808594 4.050781 10.875 4.089844 C 10.941406 4.128906 11.011719 4.035156 11.101562 3.902344 C 11.3125 3.597656 11.226562 2.851562 11.046875 2.585938 C 11.605469 2.238281 12.40625 2.003906 12.890625 1.894531 C 12.933594 1.972656 13.519531 3.695312 13.632812 4.007812 C 13.691406 4.179688 13.753906 4.382812 13.878906 4.347656 C 13.960938 4.320312 13.90625 4.132812 13.839844 3.945312 C 13.753906 3.710938 13.308594 2.265625 13.171875 1.835938 C 13.332031 1.746094 14.296875 1.550781 14.539062 1.5625 C 14.417969 2.191406 14.863281 2.449219 15.367188 2.78125 C 15.636719 2.957031 17.332031 3.933594 17.6875 4.15625 C 17.890625 4.28125 18.046875 4.359375 18.089844 4.300781 C 18.140625 4.234375 18.003906 4.089844 17.816406 3.980469 C 17.667969 3.894531 16.085938 2.972656 15.425781 2.554688 C 14.953125 2.257812 14.699219 1.9375 14.8125 1.515625 C 14.96875 1.46875 15.445312 1.464844 15.941406 1.46875 C 19.308594 1.496094 22.011719 3.433594 22.3125 3.742188 C 22.464844 3.902344 22.679688 4.035156 22.761719 3.972656 C 22.8125 3.933594 22.722656 3.753906 22.648438 3.671875 M 10.902344 2.335938 C 10.8125 2.183594 10.382812 1.792969 10.152344 1.714844 C 10.695312 1.3125 11.949219 0.738281 12.421875 0.640625 C 12.503906 0.777344 12.726562 1.359375 12.796875 1.605469 C 12.378906 1.699219 11.261719 2.101562 10.902344 2.335938 M 14.582031 1.25 C 14.144531 1.277344 13.347656 1.453125 13.0625 1.535156 C 12.992188 1.34375 12.789062 0.746094 12.726562 0.558594 C 13.535156 0.328125 14.472656 0.246094 15.199219 0.308594 C 14.996094 0.464844 14.65625 1.078125 14.582031 1.25 M 16.773438 1.222656 C 16.042969 1.171875 15.445312 1.152344 14.921875 1.207031 C 15.074219 0.824219 15.375 0.464844 15.609375 0.308594 C 16.105469 0.332031 16.621094 0.402344 17.027344 0.484375 C 18.332031 0.742188 20.359375 1.539062 21.230469 2.710938 C 20.066406 1.933594 18.132812 1.320312 16.773438 1.222656 "/>
<path style=" stroke:none;fill-rule:nonzero;fill:rgb(13.72549%,12.156863%,12.54902%);fill-opacity:1;" d="M 23.378906 15.234375 C 23.503906 15.003906 23.605469 14.871094 23.5 14.8125 C 23.402344 14.757812 23.304688 14.972656 23.1875 15.179688 C 22.792969 15.863281 22.363281 16.429688 21.394531 17.316406 C 20.316406 18.296875 19.082031 18.867188 18.652344 19.015625 C 18.285156 17.980469 16.886719 13.585938 16.851562 13.460938 C 16.796875 13.273438 16.75 13.21875 16.6875 13.242188 C 16.617188 13.269531 16.660156 13.371094 16.695312 13.535156 C 16.734375 13.699219 18.394531 18.902344 18.449219 19.082031 C 18.117188 19.246094 16.78125 19.621094 15.84375 19.652344 C 15.011719 19.679688 14.03125 19.652344 13.535156 19.539062 C 12.957031 19.070312 11.640625 17.203125 11.136719 16.210938 C 10.546875 15.039062 10.160156 13.964844 10.058594 13.507812 C 10.007812 13.289062 9.949219 13.128906 9.835938 13.152344 C 9.71875 13.175781 9.789062 13.347656 9.855469 13.582031 C 10.035156 14.183594 10.324219 15.035156 10.9375 16.25 C 11.585938 17.539062 12.75 19.050781 13.089844 19.460938 C 12.027344 19.238281 10.738281 18.742188 9.511719 17.824219 C 8.453125 17.035156 7.546875 16.03125 7.089844 15.296875 C 7.011719 15.171875 6.921875 14.992188 6.808594 15.070312 C 6.757812 15.101562 6.820312 15.246094 6.898438 15.386719 C 7.5625 16.582031 9.175781 18.269531 11.25 19.195312 C 13.660156 20.277344 16.292969 20.21875 18.644531 19.304688 C 20.703125 18.507812 22.496094 16.863281 23.378906 15.234375 "/>
</g>
</svg>
