<?xml version="1.0" encoding="UTF-8"?>
<svg xmlns="http://www.w3.org/2000/svg" xmlns:xlink="http://www.w3.org/1999/xlink" width="28pt" height="20pt" viewBox="0 0 28 20" version="1.1">
<g id="surface1">
<path style=" stroke:none;fill-rule:nonzero;fill:rgb(99.607843%,100%,99.607843%);fill-opacity:1;" d="M 16.421875 0.132812 C 17.210938 0 18.015625 -0.0351562 18.8125 0.0390625 C 19.351562 0.0859375 19.886719 0.1875 20.414062 0.316406 C 21.5 0.570312 22.542969 1.011719 23.46875 1.636719 C 23.917969 1.945312 24.359375 2.269531 24.757812 2.636719 C 25.421875 3.234375 25.976562 3.941406 26.464844 4.6875 C 26.925781 5.417969 27.304688 6.210938 27.550781 7.042969 C 27.769531 7.828125 27.9375 8.628906 27.988281 9.441406 C 28.050781 10.328125 27.960938 11.226562 27.761719 12.089844 C 27.640625 12.644531 27.492188 13.195312 27.28125 13.722656 C 27.042969 14.339844 26.734375 14.933594 26.363281 15.480469 C 25.980469 16.050781 25.558594 16.597656 25.070312 17.078125 C 24.582031 17.574219 24.03125 18 23.453125 18.386719 C 22.597656 18.957031 21.644531 19.375 20.648438 19.628906 C 20.214844 19.734375 19.78125 19.839844 19.335938 19.902344 C 18.175781 20.066406 16.988281 20.007812 15.847656 19.75 C 14.765625 19.53125 13.71875 19.136719 12.777344 18.554688 C 11.839844 17.980469 10.992188 17.25 10.304688 16.390625 C 9.53125 16.390625 8.761719 16.390625 7.988281 16.390625 C 7.660156 16.753906 7.285156 17.078125 6.875 17.351562 C 6.472656 17.621094 6.039062 17.851562 5.566406 17.964844 C 5.335938 18.019531 5.109375 18.082031 4.875 18.105469 C 4.460938 18.144531 4.039062 18.089844 3.636719 17.984375 C 3.1875 17.890625 2.753906 17.722656 2.363281 17.472656 C 1.9375 17.195312 1.523438 16.878906 1.203125 16.480469 C 0.886719 16.085938 0.597656 15.660156 0.410156 15.1875 C 0.261719 14.828125 0.179688 14.445312 0.0976562 14.066406 C -0.0664062 13.304688 -0.015625 12.511719 0.179688 11.761719 C 0.320312 11.113281 0.542969 10.480469 0.863281 9.898438 C 1.085938 9.480469 1.363281 9.097656 1.652344 8.726562 C 2.011719 8.273438 2.441406 7.875 2.914062 7.542969 C 2.621094 7.542969 2.332031 7.546875 2.039062 7.542969 C 1.90625 7.515625 1.742188 7.421875 1.761719 7.265625 C 1.773438 7.1875 1.769531 7.09375 1.828125 7.03125 C 2.925781 5.71875 4.019531 4.402344 5.117188 3.089844 C 5.230469 2.953125 5.34375 2.824219 5.449219 2.683594 C 5.652344 2.449219 5.980469 2.363281 6.277344 2.34375 C 8.042969 2.339844 9.808594 2.34375 11.574219 2.339844 C 12.097656 1.914062 12.644531 1.507812 13.242188 1.1875 C 13.792969 0.890625 14.375 0.648438 14.972656 0.46875 C 15.449219 0.332031 15.933594 0.21875 16.421875 0.132812 M 14.675781 1.46875 C 13.65625 1.863281 12.714844 2.449219 11.90625 3.1875 C 11.859375 3.226562 11.800781 3.257812 11.738281 3.253906 C 10.066406 3.257812 8.390625 3.257812 6.71875 3.253906 C 6.601562 3.257812 6.464844 3.238281 6.367188 3.328125 C 6.292969 3.386719 6.273438 3.484375 6.273438 3.574219 C 6.558594 3.621094 6.847656 3.59375 7.132812 3.601562 C 8.582031 3.601562 10.027344 3.59375 11.472656 3.605469 C 11.265625 3.796875 11.089844 4.015625 10.902344 4.222656 C 10.871094 4.265625 10.816406 4.261719 10.769531 4.265625 C 9.03125 4.261719 7.296875 4.265625 5.558594 4.261719 C 5.375 4.261719 5.222656 4.441406 5.25 4.621094 C 5.527344 4.652344 5.804688 4.628906 6.085938 4.636719 C 7.585938 4.640625 9.085938 4.632812 10.585938 4.640625 C 10.425781 4.867188 10.269531 5.101562 10.128906 5.34375 C 8.304688 5.351562 6.476562 5.34375 4.652344 5.347656 C 4.492188 5.347656 4.355469 5.515625 4.421875 5.667969 C 6.261719 5.667969 8.101562 5.667969 9.941406 5.667969 C 9.832031 5.90625 9.699219 6.132812 9.609375 6.378906 C 9.28125 6.390625 8.949219 6.382812 8.621094 6.386719 C 7.085938 6.390625 5.554688 6.382812 4.019531 6.386719 C 3.863281 6.394531 3.695312 6.40625 3.566406 6.507812 C 3.488281 6.5625 3.496094 6.667969 3.480469 6.753906 C 3.558594 6.769531 3.636719 6.789062 3.714844 6.789062 C 6.460938 6.789062 9.207031 6.789062 11.953125 6.789062 C 12.167969 6.792969 12.378906 6.761719 12.589844 6.765625 C 17.082031 6.765625 21.574219 6.769531 26.0625 6.765625 C 26.203125 7.050781 26.300781 7.351562 26.386719 7.65625 C 26.605469 8.480469 26.707031 9.332031 26.6875 10.183594 C 26.664062 11.109375 26.507812 12.035156 26.179688 12.898438 C 26.042969 13.257812 25.914062 13.613281 25.757812 13.960938 C 25.59375 14.328125 25.40625 14.683594 25.148438 14.992188 C 24.859375 15.042969 24.566406 14.980469 24.277344 15.003906 C 24.019531 15.019531 23.761719 15 23.503906 15.011719 C 23.171875 15.019531 22.84375 14.980469 22.515625 15.007812 C 21.695312 15.011719 20.875 15.003906 20.058594 15.007812 C 19.425781 15 18.789062 15.015625 18.15625 15.011719 C 17.6875 15.011719 17.21875 14.976562 16.75 15.007812 C 16.449219 14.984375 16.148438 15.015625 15.847656 15.003906 C 15.496094 14.996094 15.144531 15 14.792969 15.007812 C 14.488281 14.992188 14.1875 15.011719 13.882812 15 C 13.5625 15.027344 13.242188 14.984375 12.921875 15.007812 C 12.167969 15.019531 11.414062 14.996094 10.660156 15 C 10.402344 15 10.144531 15.015625 9.886719 15.007812 C 9.613281 14.996094 9.335938 15.019531 9.0625 15 C 8.585938 15.03125 8.105469 14.984375 7.628906 15.011719 C 7.308594 15.007812 6.984375 15.015625 6.664062 15.003906 C 6.453125 14.992188 6.242188 15.007812 6.03125 15.007812 C 5.46875 15.015625 4.90625 15.003906 4.347656 15.011719 C 4.261719 15 4.21875 15.089844 4.210938 15.160156 C 4.207031 15.304688 4.335938 15.441406 4.484375 15.4375 C 5.246094 15.4375 6.007812 15.4375 6.769531 15.4375 C 6.421875 15.832031 6.003906 16.179688 5.515625 16.371094 C 5.191406 16.5 4.824219 16.542969 4.484375 16.441406 C 4.023438 16.320312 3.648438 15.980469 3.402344 15.578125 C 3.082031 15.066406 2.957031 14.457031 2.9375 13.855469 C 2.90625 12.921875 3.09375 11.992188 3.402344 11.113281 C 3.679688 10.34375 4.054688 9.605469 4.550781 8.957031 C 4.976562 8.402344 5.589844 7.96875 6.285156 7.832031 C 6.792969 7.761719 7.335938 7.804688 7.785156 8.070312 C 8.167969 8.289062 8.453125 8.660156 8.605469 9.070312 C 8.683594 9.257812 8.707031 9.464844 8.796875 9.644531 C 8.84375 9.640625 8.886719 9.640625 8.933594 9.636719 C 9.011719 9.425781 9.054688 9.203125 9.109375 8.988281 C 9.238281 8.476562 9.359375 7.960938 9.492188 7.453125 C 9.519531 7.371094 9.5 7.285156 9.480469 7.207031 C 9.25 7.167969 9.019531 7.1875 8.789062 7.183594 C 8.097656 7.1875 7.410156 7.179688 6.722656 7.1875 C 6.464844 7.210938 6.210938 7.203125 5.953125 7.226562 C 5.1875 7.324219 4.4375 7.585938 3.777344 7.988281 C 3.007812 8.453125 2.359375 9.105469 1.875 9.863281 C 1.421875 10.566406 1.101562 11.355469 0.945312 12.175781 C 0.800781 12.929688 0.824219 13.722656 1.050781 14.460938 C 1.214844 14.988281 1.480469 15.484375 1.835938 15.910156 C 2.375 16.554688 3.125 17.03125 3.953125 17.199219 C 4.410156 17.289062 4.886719 17.292969 5.335938 17.160156 C 5.757812 17.035156 6.144531 16.820312 6.492188 16.558594 C 6.910156 16.238281 7.28125 15.859375 7.589844 15.4375 C 7.890625 15.4375 8.1875 15.433594 8.484375 15.441406 C 9.203125 15.453125 9.925781 15.433594 10.644531 15.449219 C 10.71875 15.53125 10.785156 15.617188 10.851562 15.707031 C 11.683594 16.78125 12.773438 17.660156 14 18.246094 C 15.785156 19.097656 17.84375 19.34375 19.78125 18.96875 C 21.457031 18.648438 23.03125 17.839844 24.269531 16.667969 C 25.539062 15.476562 26.457031 13.914062 26.875 12.21875 C 27.101562 11.304688 27.199219 10.355469 27.128906 9.414062 C 27.0625 8.441406 26.863281 7.472656 26.484375 6.570312 C 26.183594 5.867188 25.816406 5.191406 25.355469 4.574219 C 24.339844 3.199219 22.9375 2.109375 21.339844 1.488281 C 19.226562 0.65625 16.796875 0.644531 14.675781 1.46875 M 12.242188 7.5625 C 11.941406 7.601562 11.699219 7.835938 11.589844 8.113281 C 11.496094 8.335938 11.46875 8.589844 11.535156 8.824219 C 11.613281 9.003906 11.816406 9.109375 12.007812 9.109375 C 12.207031 9.125 12.414062 9.078125 12.574219 8.960938 C 12.816406 8.785156 12.941406 8.488281 12.980469 8.199219 C 13.007812 8.007812 12.960938 7.785156 12.800781 7.65625 C 12.644531 7.539062 12.429688 7.535156 12.242188 7.5625 M 19.160156 7.5625 C 18.890625 7.632812 18.648438 7.824219 18.535156 8.082031 C 18.433594 8.316406 18.367188 8.597656 18.484375 8.839844 C 18.539062 8.96875 18.671875 9.039062 18.804688 9.074219 C 19.09375 9.148438 19.402344 9.113281 19.6875 9.027344 C 19.742188 8.777344 19.792969 8.527344 19.847656 8.277344 C 19.640625 8.277344 19.4375 8.277344 19.230469 8.277344 C 19.210938 8.363281 19.199219 8.449219 19.183594 8.535156 C 19.277344 8.535156 19.371094 8.535156 19.464844 8.539062 C 19.441406 8.636719 19.414062 8.738281 19.390625 8.839844 C 19.226562 8.871094 19.035156 8.894531 18.890625 8.792969 C 18.785156 8.714844 18.769531 8.574219 18.78125 8.453125 C 18.804688 8.199219 18.921875 7.921875 19.167969 7.8125 C 19.300781 7.753906 19.480469 7.761719 19.574219 7.882812 C 19.585938 7.9375 19.582031 7.992188 19.582031 8.042969 C 19.695312 8.042969 19.808594 8.042969 19.925781 8.042969 C 19.925781 7.929688 19.945312 7.796875 19.863281 7.703125 C 19.78125 7.613281 19.660156 7.550781 19.539062 7.546875 C 19.414062 7.542969 19.285156 7.542969 19.160156 7.5625 M 10.589844 7.566406 C 10.5 8.070312 10.363281 8.566406 10.28125 9.074219 C 10.605469 9.078125 10.925781 9.074219 11.25 9.074219 C 11.265625 8.988281 11.285156 8.898438 11.300781 8.8125 C 11.089844 8.8125 10.878906 8.8125 10.667969 8.808594 C 10.746094 8.394531 10.859375 7.984375 10.917969 7.5625 C 10.808594 7.5625 10.699219 7.566406 10.589844 7.566406 M 13.425781 7.796875 C 13.328125 7.914062 13.300781 8.082031 13.339844 8.226562 C 13.398438 8.347656 13.53125 8.398438 13.652344 8.441406 C 13.757812 8.484375 13.882812 8.480469 13.976562 8.550781 C 14.054688 8.613281 14.007812 8.730469 13.945312 8.789062 C 13.835938 8.890625 13.671875 8.886719 13.539062 8.847656 C 13.472656 8.773438 13.476562 8.675781 13.480469 8.582031 C 13.371094 8.582031 13.257812 8.582031 13.148438 8.585938 C 13.144531 8.683594 13.128906 8.785156 13.152344 8.882812 C 13.191406 9.007812 13.320312 9.078125 13.445312 9.097656 C 13.675781 9.132812 13.933594 9.109375 14.132812 8.972656 C 14.25 8.890625 14.351562 8.765625 14.363281 8.617188 C 14.367188 8.523438 14.375 8.40625 14.296875 8.34375 C 14.140625 8.222656 13.933594 8.207031 13.757812 8.132812 C 13.65625 8.101562 13.675781 7.96875 13.71875 7.898438 C 13.800781 7.765625 13.988281 7.765625 14.109375 7.839844 C 14.136719 7.894531 14.140625 7.953125 14.15625 8.011719 C 14.261719 8.011719 14.363281 8.011719 14.46875 8.011719 C 14.46875 7.894531 14.488281 7.753906 14.390625 7.671875 C 14.246094 7.535156 14.035156 7.550781 13.855469 7.5625 C 13.691406 7.589844 13.527344 7.664062 13.425781 7.796875 M 24.246094 7.960938 C 24.203125 8.082031 24.214844 8.238281 24.324219 8.320312 C 24.496094 8.460938 24.730469 8.460938 24.925781 8.558594 C 24.933594 8.664062 24.894531 8.78125 24.796875 8.839844 C 24.679688 8.886719 24.546875 8.875 24.425781 8.84375 C 24.402344 8.757812 24.386719 8.671875 24.378906 8.582031 C 24.273438 8.582031 24.171875 8.582031 24.066406 8.582031 C 24.039062 8.714844 24.019531 8.878906 24.125 8.988281 C 24.257812 9.121094 24.460938 9.117188 24.636719 9.109375 C 24.886719 9.09375 25.15625 8.957031 25.253906 8.710938 C 25.300781 8.59375 25.3125 8.433594 25.210938 8.34375 C 25.058594 8.214844 24.847656 8.214844 24.671875 8.136719 C 24.621094 8.117188 24.554688 8.074219 24.578125 8.007812 C 24.597656 7.820312 24.851562 7.71875 25.003906 7.828125 C 25.050781 7.878906 25.050781 7.953125 25.070312 8.011719 C 25.171875 8.011719 25.277344 8.011719 25.378906 8.011719 C 25.378906 7.894531 25.390625 7.757812 25.300781 7.671875 C 25.140625 7.523438 24.90625 7.539062 24.710938 7.574219 C 24.503906 7.613281 24.316406 7.757812 24.246094 7.960938 M 15.820312 7.585938 C 15.550781 8.089844 15.25 8.574219 14.976562 9.074219 C 15.082031 9.074219 15.1875 9.074219 15.292969 9.074219 C 15.351562 8.972656 15.410156 8.867188 15.464844 8.765625 C 15.660156 8.761719 15.855469 8.761719 16.050781 8.761719 C 16.0625 8.867188 16.074219 8.972656 16.09375 9.078125 C 16.199219 9.078125 16.308594 9.074219 16.414062 9.074219 C 16.359375 8.574219 16.285156 8.078125 16.21875 7.582031 C 16.085938 7.582031 15.953125 7.582031 15.820312 7.585938 M 16.976562 7.585938 C 16.867188 8.082031 16.769531 8.578125 16.65625 9.074219 C 16.761719 9.074219 16.863281 9.074219 16.96875 9.078125 C 17.035156 8.78125 17.097656 8.484375 17.160156 8.1875 C 17.175781 8.09375 17.203125 8.007812 17.238281 7.917969 C 17.351562 8.300781 17.429688 8.691406 17.535156 9.074219 C 17.6875 9.074219 17.835938 9.074219 17.984375 9.078125 C 18.09375 8.578125 18.195312 8.082031 18.300781 7.582031 C 18.199219 7.582031 18.097656 7.582031 17.996094 7.585938 C 17.910156 7.964844 17.835938 8.351562 17.746094 8.734375 C 17.660156 8.347656 17.546875 7.96875 17.449219 7.585938 C 17.292969 7.582031 17.136719 7.582031 16.976562 7.585938 M 20.070312 9.074219 C 20.417969 9.074219 20.769531 9.082031 21.117188 9.070312 C 21.125 8.984375 21.136719 8.898438 21.148438 8.8125 C 20.921875 8.8125 20.695312 8.8125 20.472656 8.808594 C 20.484375 8.683594 20.511719 8.554688 20.539062 8.429688 C 20.753906 8.425781 20.972656 8.429688 21.191406 8.425781 C 21.199219 8.339844 21.207031 8.253906 21.21875 8.167969 C 21.007812 8.167969 20.800781 8.167969 20.59375 8.164062 C 20.617188 8.050781 20.644531 7.9375 20.679688 7.824219 C 20.898438 7.828125 21.121094 7.824219 21.34375 7.828125 C 21.363281 7.746094 21.378906 7.664062 21.398438 7.582031 C 21.0625 7.582031 20.722656 7.582031 20.386719 7.585938 C 20.285156 8.082031 20.179688 8.578125 20.070312 9.074219 M 21.738281 7.582031 C 21.632812 8.082031 21.527344 8.578125 21.421875 9.074219 C 21.75 9.078125 22.074219 9.078125 22.402344 9.074219 C 22.417969 8.984375 22.433594 8.898438 22.449219 8.8125 C 22.238281 8.8125 22.027344 8.8125 21.8125 8.808594 C 21.90625 8.402344 21.984375 7.992188 22.074219 7.585938 C 21.964844 7.582031 21.851562 7.582031 21.738281 7.582031 M 22.679688 9.074219 C 23.023438 9.078125 23.367188 9.074219 23.710938 9.074219 C 23.730469 8.988281 23.746094 8.898438 23.761719 8.8125 C 23.53125 8.8125 23.296875 8.8125 23.066406 8.808594 C 23.09375 8.683594 23.121094 8.554688 23.148438 8.429688 C 23.359375 8.425781 23.570312 8.429688 23.785156 8.429688 C 23.800781 8.339844 23.816406 8.253906 23.835938 8.167969 C 23.625 8.167969 23.414062 8.167969 23.203125 8.164062 C 23.226562 8.050781 23.253906 7.9375 23.285156 7.824219 C 23.507812 7.828125 23.734375 7.828125 23.957031 7.824219 C 23.972656 7.746094 23.988281 7.664062 24.003906 7.582031 C 23.667969 7.585938 23.332031 7.582031 22.996094 7.585938 C 22.894531 8.082031 22.785156 8.578125 22.679688 9.074219 M 23.46875 10.015625 C 23.148438 10.144531 22.90625 10.449219 22.847656 10.792969 C 22.789062 11.117188 22.839844 11.46875 23.019531 11.746094 C 23.304688 12.183594 23.648438 12.585938 23.847656 13.070312 C 23.925781 13.253906 23.957031 13.476562 23.851562 13.65625 C 23.773438 13.785156 23.65625 13.894531 23.511719 13.949219 C 23.335938 14.011719 23.132812 13.964844 22.980469 13.855469 C 22.695312 13.660156 22.53125 13.320312 22.496094 12.980469 C 22.472656 12.808594 22.511719 12.632812 22.449219 12.46875 C 22.273438 12.859375 22.265625 13.304688 22.058594 13.683594 C 22.011719 13.773438 21.933594 13.867188 21.820312 13.859375 C 21.738281 13.867188 21.675781 13.792969 21.652344 13.722656 C 21.566406 13.472656 21.589844 13.207031 21.5625 12.949219 C 21.542969 12.773438 21.574219 12.582031 21.5 12.414062 C 21.4375 12.269531 21.253906 12.210938 21.226562 12.046875 C 21.523438 11.933594 21.839844 11.828125 22.078125 11.605469 C 22.273438 11.425781 22.425781 11.179688 22.425781 10.90625 C 22.433594 10.640625 22.386719 10.34375 22.179688 10.160156 C 21.9375 9.953125 21.601562 9.9375 21.300781 9.941406 C 20.601562 9.949219 19.902344 9.933594 19.199219 9.949219 C 19.203125 9.964844 19.203125 9.996094 19.203125 10.011719 C 19.292969 10.078125 19.410156 10.140625 19.429688 10.261719 C 19.492188 10.664062 19.355469 11.058594 19.273438 11.453125 C 19.148438 11.980469 19.015625 12.511719 18.875 13.039062 C 18.800781 13.304688 18.730469 13.578125 18.589844 13.824219 C 18.527344 13.953125 18.386719 14.007812 18.28125 14.097656 C 18.914062 14.109375 19.546875 14.109375 20.183594 14.097656 C 20.085938 14.007812 19.960938 13.945312 19.882812 13.839844 C 19.78125 13.691406 19.804688 13.5 19.84375 13.332031 C 19.917969 13.035156 20 12.738281 20.066406 12.4375 C 20.089844 12.355469 20.113281 12.25 20.203125 12.210938 C 20.300781 12.191406 20.378906 12.28125 20.414062 12.363281 C 20.488281 12.550781 20.511719 12.753906 20.539062 12.953125 C 20.574219 13.199219 20.550781 13.449219 20.558594 13.695312 C 20.554688 13.875 20.660156 14.035156 20.785156 14.15625 C 21.0625 14.421875 21.546875 14.429688 21.832031 14.160156 C 21.933594 14.179688 22.039062 14.203125 22.140625 14.171875 C 22.300781 14.117188 22.449219 14.019531 22.621094 14.023438 C 22.859375 14.011719 23.046875 14.191406 23.28125 14.214844 C 23.734375 14.265625 24.230469 14.113281 24.53125 13.757812 C 24.769531 13.476562 24.863281 13.089844 24.820312 12.726562 C 24.796875 12.464844 24.695312 12.21875 24.570312 11.988281 C 24.347656 11.578125 24.050781 11.214844 23.8125 10.816406 C 23.742188 10.707031 23.6875 10.574219 23.707031 10.441406 C 23.726562 10.320312 23.835938 10.230469 23.945312 10.191406 C 24.238281 10.09375 24.589844 10.222656 24.742188 10.492188 C 24.851562 10.671875 24.832031 10.890625 24.851562 11.089844 C 24.910156 10.988281 24.945312 10.875 24.976562 10.761719 C 25.039062 10.515625 25.136719 10.28125 25.191406 10.03125 C 24.933594 9.933594 24.65625 9.9375 24.386719 9.914062 C 24.078125 9.898438 23.757812 9.894531 23.46875 10.015625 M 4.5625 9.976562 C 4.628906 10.089844 4.773438 10.113281 4.851562 10.214844 C 4.964844 10.339844 4.949219 10.523438 4.910156 10.679688 C 4.683594 11.539062 4.457031 12.402344 4.230469 13.265625 C 4.140625 13.597656 3.957031 13.925781 3.652344 14.105469 C 3.734375 14.125 3.820312 14.140625 3.910156 14.140625 C 4.570312 14.140625 5.230469 14.140625 5.890625 14.140625 C 6.085938 14.136719 6.277344 14.152344 6.46875 14.117188 C 6.625 13.699219 6.765625 13.273438 6.824219 12.828125 C 6.757812 12.875 6.703125 12.933594 6.667969 13.003906 C 6.523438 13.261719 6.339844 13.503906 6.097656 13.675781 C 5.855469 13.839844 5.554688 13.914062 5.265625 13.875 C 5.148438 13.84375 5.140625 13.707031 5.175781 13.609375 C 5.425781 12.675781 5.671875 11.742188 5.929688 10.8125 C 5.984375 10.597656 6.101562 10.402344 6.242188 10.234375 C 6.332031 10.128906 6.464844 10.074219 6.566406 9.980469 C 6.40625 9.964844 6.246094 9.96875 6.085938 9.96875 C 5.578125 9.976562 5.070312 9.960938 4.5625 9.976562 M 7.539062 9.972656 C 7.539062 9.988281 7.539062 10.019531 7.539062 10.035156 C 7.628906 10.109375 7.734375 10.183594 7.765625 10.300781 C 7.8125 10.5 7.738281 10.691406 7.6875 10.878906 C 7.484375 11.636719 7.28125 12.390625 7.078125 13.144531 C 7.023438 13.363281 6.964844 13.582031 6.863281 13.78125 C 6.796875 13.910156 6.675781 14 6.589844 14.109375 C 6.6875 14.125 6.785156 14.140625 6.886719 14.140625 C 7.242188 14.140625 7.601562 14.140625 7.960938 14.140625 C 8.066406 14.140625 8.175781 14.125 8.28125 14.109375 C 8.246094 14.015625 8.15625 13.957031 8.121094 13.863281 C 8.039062 13.6875 8.050781 13.480469 8.109375 13.296875 C 8.328125 12.476562 8.535156 11.652344 8.761719 10.832031 C 8.8125 10.65625 8.863281 10.480469 8.941406 10.316406 C 9.007812 10.164062 9.160156 10.082031 9.28125 9.976562 C 8.699219 9.964844 8.117188 9.96875 7.539062 9.972656 M 9.625 9.972656 C 9.800781 10.09375 10.007812 10.285156 9.945312 10.519531 C 9.875 10.871094 9.777344 11.21875 9.683594 11.5625 C 9.566406 12.015625 9.453125 12.46875 9.332031 12.921875 C 9.257812 13.195312 9.214844 13.480469 9.074219 13.730469 C 9 13.875 8.875 13.976562 8.769531 14.09375 C 8.835938 14.113281 8.902344 14.140625 8.976562 14.140625 C 9.335938 14.140625 9.695312 14.140625 10.054688 14.140625 C 10.238281 14.136719 10.425781 14.15625 10.605469 14.105469 C 10.488281 14.003906 10.328125 13.933594 10.273438 13.777344 C 10.203125 13.585938 10.253906 13.378906 10.296875 13.1875 C 10.378906 12.859375 10.464844 12.53125 10.585938 12.214844 C 10.851562 12.195312 11.121094 12.246094 11.382812 12.195312 C 11.769531 12.113281 12.148438 11.941406 12.425781 11.652344 C 12.65625 11.410156 12.832031 11.082031 12.796875 10.738281 C 12.777344 10.519531 12.703125 10.285156 12.519531 10.152344 C 12.355469 10.039062 12.15625 9.964844 11.957031 9.972656 C 11.179688 9.96875 10.402344 9.96875 9.625 9.972656 M 12.808594 9.972656 C 12.925781 10.066406 13.058594 10.15625 13.109375 10.300781 C 13.15625 10.40625 13.136719 10.523438 13.109375 10.628906 C 12.878906 11.519531 12.644531 12.40625 12.417969 13.296875 C 12.351562 13.59375 12.222656 13.894531 11.960938 14.0625 C 11.960938 14.089844 11.964844 14.113281 11.964844 14.140625 C 12.550781 14.140625 13.132812 14.140625 13.714844 14.140625 C 13.71875 14.117188 13.71875 14.078125 13.71875 14.058594 C 13.625 13.996094 13.515625 13.941406 13.472656 13.832031 C 13.386719 13.636719 13.421875 13.417969 13.472656 13.21875 C 13.558594 12.882812 13.640625 12.542969 13.765625 12.21875 C 14.035156 12.191406 14.308594 12.25 14.574219 12.191406 C 15.023438 12.097656 15.46875 11.875 15.738281 11.496094 C 15.878906 11.292969 16.007812 11.050781 15.980469 10.796875 C 15.96875 10.601562 15.90625 10.402344 15.773438 10.257812 C 15.605469 10.066406 15.351562 9.96875 15.101562 9.96875 C 14.335938 9.972656 13.574219 9.964844 12.808594 9.972656 M 15.894531 9.980469 C 16.003906 10.089844 16.171875 10.136719 16.242188 10.28125 C 16.28125 10.421875 16.261719 10.574219 16.226562 10.710938 C 16 11.589844 15.78125 12.46875 15.554688 13.347656 C 15.472656 13.660156 15.265625 13.945312 14.964844 14.074219 C 15.042969 14.097656 15.125 14.109375 15.207031 14.105469 C 16.179688 14.097656 17.15625 14.113281 18.128906 14.097656 C 18.171875 14.105469 18.191406 14.058594 18.210938 14.027344 C 18.269531 13.925781 18.289062 13.808594 18.324219 13.695312 C 18.398438 13.414062 18.515625 13.140625 18.539062 12.847656 C 18.238281 13.144531 18.054688 13.550781 17.695312 13.785156 C 17.390625 13.976562 17.011719 13.960938 16.664062 13.957031 C 16.527344 13.964844 16.445312 13.816406 16.484375 13.695312 C 16.609375 13.207031 16.742188 12.722656 16.871094 12.234375 C 16.898438 12.148438 16.921875 12.039062 17.015625 12 C 17.171875 11.933594 17.351562 12.011719 17.453125 12.132812 C 17.644531 12.332031 17.664062 12.621094 17.6875 12.878906 C 17.703125 12.871094 17.730469 12.859375 17.746094 12.851562 C 17.875 12.363281 17.992188 11.875 18.117188 11.386719 C 18.148438 11.277344 18.167969 11.164062 18.179688 11.046875 C 18 11.195312 17.882812 11.410156 17.6875 11.539062 C 17.511719 11.660156 17.289062 11.703125 17.078125 11.683594 C 17.070312 11.5625 17.078125 11.441406 17.109375 11.320312 C 17.175781 11.066406 17.246094 10.8125 17.308594 10.558594 C 17.34375 10.417969 17.398438 10.28125 17.488281 10.167969 C 17.796875 10.183594 18.152344 10.101562 18.421875 10.308594 C 18.652344 10.503906 18.628906 10.835938 18.648438 11.113281 C 18.707031 11.035156 18.746094 10.945312 18.761719 10.851562 C 18.828125 10.558594 18.921875 10.269531 18.957031 9.972656 C 17.9375 9.980469 16.914062 9.964844 15.894531 9.980469 Z M 15.894531 9.980469 "/>
<path style=" stroke:none;fill-rule:nonzero;fill:rgb(81.568627%,6.27451%,23.529412%);fill-opacity:1;" d="M 14.675781 1.46875 C 16.796875 0.644531 19.226562 0.65625 21.339844 1.488281 C 22.9375 2.109375 24.339844 3.199219 25.355469 4.574219 C 25.816406 5.191406 26.183594 5.867188 26.484375 6.570312 C 26.863281 7.472656 27.0625 8.441406 27.128906 9.414062 C 27.199219 10.355469 27.101562 11.304688 26.875 12.21875 C 26.457031 13.914062 25.539062 15.476562 24.269531 16.667969 C 23.03125 17.839844 21.457031 18.648438 19.78125 18.96875 C 17.84375 19.34375 15.785156 19.097656 14 18.246094 C 12.773438 17.660156 11.683594 16.78125 10.851562 15.707031 C 10.785156 15.617188 10.71875 15.53125 10.644531 15.449219 C 9.925781 15.433594 9.203125 15.453125 8.484375 15.441406 C 8.1875 15.433594 7.890625 15.4375 7.589844 15.4375 C 7.316406 15.433594 7.042969 15.433594 6.769531 15.4375 C 6.007812 15.4375 5.246094 15.4375 4.484375 15.4375 C 4.335938 15.441406 4.207031 15.304688 4.210938 15.160156 C 4.21875 15.089844 4.261719 15 4.347656 15.011719 C 4.90625 15.003906 5.46875 15.015625 6.03125 15.007812 C 6.242188 15.007812 6.453125 14.992188 6.664062 15.003906 C 6.984375 15.015625 7.308594 15.007812 7.628906 15.011719 C 8.105469 14.984375 8.585938 15.03125 9.0625 15 C 9.335938 15.019531 9.613281 14.996094 9.886719 15.007812 C 10.144531 15.015625 10.402344 15 10.660156 15 C 11.414062 14.996094 12.167969 15.019531 12.921875 15.007812 C 13.242188 14.984375 13.5625 15.027344 13.882812 15 C 14.1875 15.011719 14.488281 14.992188 14.792969 15.007812 C 15.144531 15 15.496094 14.996094 15.847656 15.003906 C 16.148438 15.015625 16.449219 14.984375 16.75 15.007812 C 17.21875 14.976562 17.6875 15.011719 18.15625 15.011719 C 18.789062 15.015625 19.425781 15 20.058594 15.007812 C 20.875 15.003906 21.695312 15.011719 22.515625 15.007812 C 22.84375 14.980469 23.171875 15.019531 23.503906 15.011719 C 23.761719 15 24.019531 15.019531 24.277344 15.003906 C 24.566406 14.980469 24.859375 15.042969 25.148438 14.992188 C 25.40625 14.683594 25.59375 14.328125 25.757812 13.960938 C 25.914062 13.613281 26.042969 13.257812 26.179688 12.898438 C 26.507812 12.035156 26.664062 11.109375 26.6875 10.183594 C 26.707031 9.332031 26.605469 8.480469 26.386719 7.65625 C 26.300781 7.351562 26.203125 7.050781 26.0625 6.765625 C 21.574219 6.769531 17.082031 6.765625 12.589844 6.765625 C 12.378906 6.761719 12.167969 6.792969 11.953125 6.789062 C 9.207031 6.789062 6.460938 6.789062 3.714844 6.789062 C 3.636719 6.789062 3.558594 6.769531 3.480469 6.753906 C 3.496094 6.667969 3.488281 6.5625 3.566406 6.507812 C 3.695312 6.40625 3.863281 6.394531 4.019531 6.386719 C 5.554688 6.382812 7.085938 6.390625 8.621094 6.386719 C 8.949219 6.382812 9.28125 6.390625 9.609375 6.378906 C 9.699219 6.132812 9.832031 5.90625 9.941406 5.667969 C 8.101562 5.667969 6.261719 5.667969 4.421875 5.667969 C 4.355469 5.515625 4.492188 5.347656 4.652344 5.347656 C 6.476562 5.34375 8.304688 5.351562 10.128906 5.34375 C 10.269531 5.101562 10.425781 4.867188 10.585938 4.640625 C 9.085938 4.632812 7.585938 4.640625 6.085938 4.636719 C 5.804688 4.628906 5.527344 4.652344 5.25 4.621094 C 5.222656 4.441406 5.375 4.261719 5.558594 4.261719 C 7.296875 4.265625 9.03125 4.261719 10.769531 4.265625 C 10.816406 4.261719 10.871094 4.265625 10.902344 4.222656 C 11.089844 4.015625 11.265625 3.796875 11.472656 3.605469 C 10.027344 3.59375 8.582031 3.601562 7.132812 3.601562 C 6.847656 3.59375 6.558594 3.621094 6.273438 3.574219 C 6.273438 3.484375 6.292969 3.386719 6.367188 3.328125 C 6.464844 3.238281 6.601562 3.257812 6.71875 3.253906 C 8.390625 3.257812 10.066406 3.257812 11.738281 3.253906 C 11.800781 3.257812 11.859375 3.226562 11.90625 3.1875 C 12.714844 2.449219 13.65625 1.863281 14.675781 1.46875 M 15.390625 1.714844 C 14.480469 2.007812 13.625 2.453125 12.855469 3.019531 C 12.96875 2.996094 13.078125 2.972656 13.191406 2.945312 C 14.5 2.601562 15.878906 2.519531 17.214844 2.730469 C 18.164062 2.875 19.078125 3.183594 19.941406 3.597656 C 20.074219 3.320312 20.171875 3.007812 20.09375 2.699219 C 20.011719 2.414062 19.78125 2.203125 19.550781 2.03125 C 19.164062 1.742188 18.722656 1.53125 18.277344 1.347656 C 18.136719 1.28125 17.976562 1.304688 17.824219 1.308594 C 17 1.332031 16.175781 1.460938 15.390625 1.714844 M 19.300781 1.40625 C 19.550781 1.550781 19.796875 1.707031 20.007812 1.90625 C 20.25 2.128906 20.457031 2.417969 20.503906 2.75 C 20.554688 3.109375 20.449219 3.464844 20.292969 3.78125 C 20.808594 4.066406 21.304688 4.386719 21.765625 4.75 C 21.804688 4.78125 21.878906 4.832031 21.910156 4.765625 C 22.308594 4.15625 22.695312 3.542969 23.054688 2.910156 C 21.945312 2.117188 20.652344 1.589844 19.300781 1.40625 M 12.117188 3.699219 C 12.046875 3.726562 11.984375 3.765625 11.933594 3.820312 C 11.1875 4.566406 10.558594 5.4375 10.140625 6.410156 C 11.636719 6.414062 13.132812 6.417969 14.628906 6.417969 C 14.757812 6.414062 14.894531 6.433594 15.015625 6.382812 C 15.820312 6.039062 16.640625 5.738281 17.460938 5.4375 C 17.972656 5.25 18.46875 5.003906 18.914062 4.683594 C 19.210938 4.46875 19.496094 4.222656 19.714844 3.925781 C 18.53125 3.347656 17.214844 3.03125 15.898438 3.015625 C 14.609375 3 13.324219 3.25 12.117188 3.699219 M 23.371094 3.144531 C 22.992188 3.800781 22.589844 4.441406 22.179688 5.078125 C 22.648438 5.46875 23.109375 5.878906 23.535156 6.316406 C 23.785156 5.996094 24.113281 5.714844 24.515625 5.621094 C 24.882812 5.523438 25.273438 5.617188 25.609375 5.777344 C 25.054688 4.757812 24.277344 3.867188 23.371094 3.144531 M 20.070312 4.113281 C 19.558594 4.785156 18.832031 5.261719 18.070312 5.605469 C 17.582031 5.820312 17.074219 5.984375 16.578125 6.179688 C 16.398438 6.25 16.210938 6.300781 16.046875 6.402344 C 17.636719 6.417969 19.226562 6.40625 20.816406 6.410156 C 21.101562 5.992188 21.382812 5.574219 21.660156 5.152344 C 21.15625 4.765625 20.640625 4.394531 20.070312 4.113281 M 21.304688 6.410156 C 21.894531 6.414062 22.488281 6.40625 23.082031 6.414062 C 22.917969 6.257812 22.753906 6.097656 22.585938 5.945312 C 22.382812 5.765625 22.1875 5.566406 21.957031 5.414062 C 21.742188 5.746094 21.511719 6.070312 21.304688 6.410156 M 23.984375 6.40625 C 24.621094 6.417969 25.257812 6.40625 25.898438 6.410156 C 25.609375 6.1875 25.273438 6.003906 24.90625 5.96875 C 24.550781 5.941406 24.207031 6.132812 23.984375 6.40625 M 11.292969 15.429688 C 11.75 15.988281 12.265625 16.503906 12.851562 16.929688 C 13.261719 16.433594 13.671875 15.9375 14.074219 15.4375 C 13.148438 15.429688 12.222656 15.445312 11.292969 15.429688 M 14.539062 15.476562 C 14.082031 16.035156 13.632812 16.601562 13.167969 17.152344 C 14.835938 18.316406 16.9375 18.816406 18.957031 18.605469 C 19.132812 18.597656 19.265625 18.476562 19.414062 18.402344 C 19.738281 18.222656 20.046875 18.019531 20.308594 17.753906 C 20.96875 17.117188 21.40625 16.285156 21.714844 15.429688 C 19.378906 15.425781 17.046875 15.429688 14.710938 15.425781 C 14.652344 15.429688 14.578125 15.417969 14.539062 15.476562 M 22.125 15.429688 C 21.992188 15.8125 21.835938 16.191406 21.648438 16.554688 C 21.285156 17.253906 20.804688 17.917969 20.160156 18.382812 C 20.511719 18.304688 20.855469 18.195312 21.191406 18.058594 C 21.878906 17.789062 22.535156 17.429688 23.132812 16.992188 C 23.753906 16.539062 24.320312 16.007812 24.828125 15.429688 C 23.929688 15.425781 23.027344 15.429688 22.125 15.429688 Z M 22.125 15.429688 "/>
<path style=" stroke:none;fill-rule:nonzero;fill:rgb(99.607843%,100%,99.607843%);fill-opacity:1;" d="M 15.390625 1.714844 C 16.175781 1.460938 17 1.332031 17.824219 1.308594 C 17.976562 1.304688 18.136719 1.28125 18.277344 1.347656 C 18.722656 1.53125 19.164062 1.742188 19.550781 2.03125 C 19.78125 2.203125 20.011719 2.414062 20.09375 2.699219 C 20.171875 3.007812 20.074219 3.320312 19.941406 3.597656 C 19.078125 3.183594 18.164062 2.875 17.214844 2.730469 C 15.878906 2.519531 14.5 2.601562 13.191406 2.945312 C 13.078125 2.972656 12.96875 2.996094 12.855469 3.019531 C 13.625 2.453125 14.480469 2.007812 15.390625 1.714844 Z M 15.390625 1.714844 "/>
<path style=" stroke:none;fill-rule:nonzero;fill:rgb(99.607843%,100%,99.607843%);fill-opacity:1;" d="M 19.300781 1.40625 C 20.652344 1.589844 21.945312 2.117188 23.054688 2.910156 C 22.695312 3.542969 22.308594 4.15625 21.910156 4.765625 C 21.878906 4.832031 21.804688 4.78125 21.765625 4.75 C 21.304688 4.386719 20.808594 4.066406 20.292969 3.78125 C 20.449219 3.464844 20.554688 3.109375 20.503906 2.75 C 20.457031 2.417969 20.25 2.128906 20.007812 1.90625 C 19.796875 1.707031 19.550781 1.550781 19.300781 1.40625 Z M 19.300781 1.40625 "/>
<path style=" stroke:none;fill-rule:nonzero;fill:rgb(99.607843%,100%,99.607843%);fill-opacity:1;" d="M 12.117188 3.699219 C 13.324219 3.25 14.609375 3 15.898438 3.015625 C 17.214844 3.03125 18.53125 3.347656 19.714844 3.925781 C 19.496094 4.222656 19.210938 4.46875 18.914062 4.683594 C 18.46875 5.003906 17.972656 5.25 17.460938 5.4375 C 16.640625 5.738281 15.820312 6.039062 15.015625 6.382812 C 14.894531 6.433594 14.757812 6.414062 14.628906 6.417969 C 13.132812 6.417969 11.636719 6.414062 10.140625 6.410156 C 10.558594 5.4375 11.1875 4.566406 11.933594 3.820312 C 11.984375 3.765625 12.046875 3.726562 12.117188 3.699219 Z M 12.117188 3.699219 "/>
<path style=" stroke:none;fill-rule:nonzero;fill:rgb(99.607843%,100%,99.607843%);fill-opacity:1;" d="M 23.371094 3.144531 C 24.277344 3.867188 25.054688 4.757812 25.609375 5.777344 C 25.273438 5.617188 24.882812 5.523438 24.515625 5.621094 C 24.113281 5.714844 23.785156 5.996094 23.535156 6.316406 C 23.109375 5.878906 22.648438 5.46875 22.179688 5.078125 C 22.589844 4.441406 22.992188 3.800781 23.371094 3.144531 Z M 23.371094 3.144531 "/>
<path style=" stroke:none;fill-rule:nonzero;fill:rgb(99.607843%,100%,99.607843%);fill-opacity:1;" d="M 20.070312 4.113281 C 20.640625 4.394531 21.15625 4.765625 21.660156 5.152344 C 21.382812 5.574219 21.101562 5.992188 20.816406 6.410156 C 19.226562 6.40625 17.636719 6.417969 16.046875 6.402344 C 16.210938 6.300781 16.398438 6.25 16.578125 6.179688 C 17.074219 5.984375 17.582031 5.820312 18.070312 5.605469 C 18.832031 5.261719 19.558594 4.785156 20.070312 4.113281 Z M 20.070312 4.113281 "/>
<path style=" stroke:none;fill-rule:nonzero;fill:rgb(99.607843%,100%,99.607843%);fill-opacity:1;" d="M 21.304688 6.410156 C 21.511719 6.070312 21.742188 5.746094 21.957031 5.414062 C 22.1875 5.566406 22.382812 5.765625 22.585938 5.945312 C 22.753906 6.097656 22.917969 6.257812 23.082031 6.414062 C 22.488281 6.40625 21.894531 6.414062 21.304688 6.410156 Z M 21.304688 6.410156 "/>
<path style=" stroke:none;fill-rule:nonzero;fill:rgb(99.607843%,100%,99.607843%);fill-opacity:1;" d="M 23.984375 6.40625 C 24.207031 6.132812 24.550781 5.941406 24.90625 5.96875 C 25.273438 6.003906 25.609375 6.1875 25.898438 6.410156 C 25.257812 6.40625 24.621094 6.417969 23.984375 6.40625 Z M 23.984375 6.40625 "/>
<path style=" stroke:none;fill-rule:nonzero;fill:rgb(1.568627%,27.45098%,67.45098%);fill-opacity:1;" d="M 5.953125 7.226562 C 6.210938 7.203125 6.464844 7.210938 6.722656 7.1875 C 7.410156 7.179688 8.097656 7.1875 8.789062 7.183594 C 9.019531 7.1875 9.25 7.167969 9.480469 7.207031 C 9.5 7.285156 9.519531 7.371094 9.492188 7.453125 C 9.359375 7.960938 9.238281 8.476562 9.109375 8.988281 C 9.054688 9.203125 9.011719 9.425781 8.933594 9.636719 C 8.886719 9.640625 8.84375 9.640625 8.796875 9.644531 C 8.707031 9.464844 8.683594 9.257812 8.605469 9.070312 C 8.453125 8.660156 8.167969 8.289062 7.785156 8.070312 C 7.335938 7.804688 6.792969 7.761719 6.285156 7.832031 C 5.589844 7.96875 4.976562 8.402344 4.550781 8.957031 C 4.054688 9.605469 3.679688 10.34375 3.402344 11.113281 C 3.09375 11.992188 2.90625 12.921875 2.9375 13.855469 C 2.957031 14.457031 3.082031 15.066406 3.402344 15.578125 C 3.648438 15.980469 4.023438 16.320312 4.484375 16.441406 C 4.824219 16.542969 5.191406 16.5 5.515625 16.371094 C 6.003906 16.179688 6.421875 15.832031 6.769531 15.4375 C 7.042969 15.433594 7.316406 15.433594 7.589844 15.4375 C 7.28125 15.859375 6.910156 16.238281 6.492188 16.558594 C 6.144531 16.820312 5.757812 17.035156 5.335938 17.160156 C 4.886719 17.292969 4.410156 17.289062 3.953125 17.199219 C 3.125 17.03125 2.375 16.554688 1.835938 15.910156 C 1.480469 15.484375 1.214844 14.988281 1.050781 14.460938 C 0.824219 13.722656 0.800781 12.929688 0.945312 12.175781 C 1.101562 11.355469 1.421875 10.566406 1.875 9.863281 C 2.359375 9.105469 3.007812 8.453125 3.777344 7.988281 C 4.4375 7.585938 5.1875 7.324219 5.953125 7.226562 Z M 5.953125 7.226562 "/>
<path style=" stroke:none;fill-rule:nonzero;fill:rgb(1.568627%,27.45098%,67.45098%);fill-opacity:1;" d="M 12.242188 7.5625 C 12.429688 7.535156 12.644531 7.539062 12.800781 7.65625 C 12.960938 7.785156 13.007812 8.007812 12.980469 8.199219 C 12.941406 8.488281 12.816406 8.785156 12.574219 8.960938 C 12.414062 9.078125 12.207031 9.125 12.007812 9.109375 C 11.816406 9.109375 11.613281 9.003906 11.535156 8.824219 C 11.46875 8.589844 11.496094 8.335938 11.589844 8.113281 C 11.699219 7.835938 11.941406 7.601562 12.242188 7.5625 M 12.242188 7.804688 C 12.128906 7.84375 12.03125 7.921875 11.976562 8.027344 C 11.859375 8.234375 11.824219 8.484375 11.863281 8.714844 C 11.929688 8.863281 12.128906 8.917969 12.269531 8.84375 C 12.511719 8.738281 12.59375 8.457031 12.636719 8.214844 C 12.675781 8.066406 12.621094 7.894531 12.488281 7.808594 C 12.410156 7.773438 12.320312 7.78125 12.242188 7.804688 Z M 12.242188 7.804688 "/>
<path style=" stroke:none;fill-rule:nonzero;fill:rgb(1.568627%,27.45098%,67.45098%);fill-opacity:1;" d="M 19.160156 7.5625 C 19.285156 7.542969 19.414062 7.542969 19.539062 7.546875 C 19.660156 7.550781 19.78125 7.613281 19.863281 7.703125 C 19.945312 7.796875 19.925781 7.929688 19.925781 8.042969 C 19.808594 8.042969 19.695312 8.042969 19.582031 8.042969 C 19.582031 7.992188 19.585938 7.9375 19.574219 7.882812 C 19.480469 7.761719 19.300781 7.753906 19.167969 7.8125 C 18.921875 7.921875 18.804688 8.199219 18.78125 8.453125 C 18.769531 8.574219 18.785156 8.714844 18.890625 8.792969 C 19.035156 8.894531 19.226562 8.871094 19.390625 8.839844 C 19.414062 8.738281 19.441406 8.636719 19.464844 8.539062 C 19.371094 8.535156 19.277344 8.535156 19.183594 8.535156 C 19.199219 8.449219 19.210938 8.363281 19.230469 8.277344 C 19.4375 8.277344 19.640625 8.277344 19.847656 8.277344 C 19.792969 8.527344 19.742188 8.777344 19.6875 9.027344 C 19.402344 9.113281 19.09375 9.148438 18.804688 9.074219 C 18.671875 9.039062 18.539062 8.96875 18.484375 8.839844 C 18.367188 8.597656 18.433594 8.316406 18.535156 8.082031 C 18.648438 7.824219 18.890625 7.632812 19.160156 7.5625 Z M 19.160156 7.5625 "/>
<path style=" stroke:none;fill-rule:nonzero;fill:rgb(1.568627%,27.45098%,67.45098%);fill-opacity:1;" d="M 10.589844 7.566406 C 10.699219 7.566406 10.808594 7.5625 10.917969 7.5625 C 10.859375 7.984375 10.746094 8.394531 10.667969 8.808594 C 10.878906 8.8125 11.089844 8.8125 11.300781 8.8125 C 11.285156 8.898438 11.265625 8.988281 11.25 9.074219 C 10.925781 9.074219 10.605469 9.078125 10.28125 9.074219 C 10.363281 8.566406 10.5 8.070312 10.589844 7.566406 Z M 10.589844 7.566406 "/>
<path style=" stroke:none;fill-rule:nonzero;fill:rgb(1.568627%,27.45098%,67.45098%);fill-opacity:1;" d="M 13.425781 7.796875 C 13.527344 7.664062 13.691406 7.589844 13.855469 7.5625 C 14.035156 7.550781 14.246094 7.535156 14.390625 7.671875 C 14.488281 7.753906 14.46875 7.894531 14.46875 8.011719 C 14.363281 8.011719 14.261719 8.011719 14.15625 8.011719 C 14.140625 7.953125 14.136719 7.894531 14.109375 7.839844 C 13.988281 7.765625 13.800781 7.765625 13.71875 7.898438 C 13.675781 7.96875 13.65625 8.101562 13.757812 8.132812 C 13.933594 8.207031 14.140625 8.222656 14.296875 8.34375 C 14.375 8.40625 14.367188 8.523438 14.363281 8.617188 C 14.351562 8.765625 14.25 8.890625 14.132812 8.972656 C 13.933594 9.109375 13.675781 9.132812 13.445312 9.097656 C 13.320312 9.078125 13.191406 9.007812 13.152344 8.882812 C 13.128906 8.785156 13.144531 8.683594 13.148438 8.585938 C 13.257812 8.582031 13.371094 8.582031 13.480469 8.582031 C 13.476562 8.675781 13.472656 8.773438 13.539062 8.847656 C 13.671875 8.886719 13.835938 8.890625 13.945312 8.789062 C 14.007812 8.730469 14.054688 8.613281 13.976562 8.550781 C 13.882812 8.480469 13.757812 8.484375 13.652344 8.441406 C 13.53125 8.398438 13.398438 8.347656 13.339844 8.226562 C 13.300781 8.082031 13.328125 7.914062 13.425781 7.796875 Z M 13.425781 7.796875 "/>
<path style=" stroke:none;fill-rule:nonzero;fill:rgb(1.568627%,27.45098%,67.45098%);fill-opacity:1;" d="M 24.246094 7.960938 C 24.316406 7.757812 24.503906 7.613281 24.710938 7.574219 C 24.90625 7.539062 25.140625 7.523438 25.300781 7.671875 C 25.390625 7.757812 25.378906 7.894531 25.378906 8.011719 C 25.277344 8.011719 25.171875 8.011719 25.070312 8.011719 C 25.050781 7.953125 25.050781 7.878906 25.003906 7.828125 C 24.851562 7.71875 24.597656 7.820312 24.578125 8.007812 C 24.554688 8.074219 24.621094 8.117188 24.671875 8.136719 C 24.847656 8.214844 25.058594 8.214844 25.210938 8.34375 C 25.3125 8.433594 25.300781 8.59375 25.253906 8.710938 C 25.15625 8.957031 24.886719 9.09375 24.636719 9.109375 C 24.460938 9.117188 24.257812 9.121094 24.125 8.988281 C 24.019531 8.878906 24.039062 8.714844 24.066406 8.582031 C 24.171875 8.582031 24.273438 8.582031 24.378906 8.582031 C 24.386719 8.671875 24.402344 8.757812 24.425781 8.84375 C 24.546875 8.875 24.679688 8.886719 24.796875 8.839844 C 24.894531 8.78125 24.933594 8.664062 24.925781 8.558594 C 24.730469 8.460938 24.496094 8.460938 24.324219 8.320312 C 24.214844 8.238281 24.203125 8.082031 24.246094 7.960938 Z M 24.246094 7.960938 "/>
<path style=" stroke:none;fill-rule:nonzero;fill:rgb(1.568627%,27.45098%,67.45098%);fill-opacity:1;" d="M 15.820312 7.585938 C 15.953125 7.582031 16.085938 7.582031 16.21875 7.582031 C 16.285156 8.078125 16.359375 8.574219 16.414062 9.074219 C 16.308594 9.074219 16.199219 9.078125 16.09375 9.078125 C 16.074219 8.972656 16.0625 8.867188 16.050781 8.761719 C 15.855469 8.761719 15.660156 8.761719 15.464844 8.765625 C 15.410156 8.867188 15.351562 8.972656 15.292969 9.074219 C 15.1875 9.074219 15.082031 9.074219 14.976562 9.074219 C 15.25 8.574219 15.550781 8.089844 15.820312 7.585938 M 15.617188 8.5 C 15.753906 8.503906 15.886719 8.503906 16.023438 8.503906 C 15.988281 8.308594 15.980469 8.113281 15.960938 7.917969 C 15.820312 8.097656 15.722656 8.304688 15.617188 8.5 Z M 15.617188 8.5 "/>
<path style=" stroke:none;fill-rule:nonzero;fill:rgb(1.568627%,27.45098%,67.45098%);fill-opacity:1;" d="M 16.976562 7.585938 C 17.136719 7.582031 17.292969 7.582031 17.449219 7.585938 C 17.546875 7.96875 17.660156 8.347656 17.746094 8.734375 C 17.835938 8.351562 17.910156 7.964844 17.996094 7.585938 C 18.097656 7.582031 18.199219 7.582031 18.300781 7.582031 C 18.195312 8.082031 18.09375 8.578125 17.984375 9.078125 C 17.835938 9.074219 17.6875 9.074219 17.535156 9.074219 C 17.429688 8.691406 17.351562 8.300781 17.238281 7.917969 C 17.203125 8.007812 17.175781 8.09375 17.160156 8.1875 C 17.097656 8.484375 17.035156 8.78125 16.96875 9.078125 C 16.863281 9.074219 16.761719 9.074219 16.65625 9.074219 C 16.769531 8.578125 16.867188 8.082031 16.976562 7.585938 Z M 16.976562 7.585938 "/>
<path style=" stroke:none;fill-rule:nonzero;fill:rgb(1.568627%,27.45098%,67.45098%);fill-opacity:1;" d="M 20.070312 9.074219 C 20.179688 8.578125 20.285156 8.082031 20.386719 7.585938 C 20.722656 7.582031 21.0625 7.582031 21.398438 7.582031 C 21.378906 7.664062 21.363281 7.746094 21.34375 7.828125 C 21.121094 7.824219 20.898438 7.828125 20.679688 7.824219 C 20.644531 7.9375 20.617188 8.050781 20.59375 8.164062 C 20.800781 8.167969 21.007812 8.167969 21.21875 8.167969 C 21.207031 8.253906 21.199219 8.339844 21.191406 8.425781 C 20.972656 8.429688 20.753906 8.425781 20.539062 8.429688 C 20.511719 8.554688 20.484375 8.683594 20.472656 8.808594 C 20.695312 8.8125 20.921875 8.8125 21.148438 8.8125 C 21.136719 8.898438 21.125 8.984375 21.117188 9.070312 C 20.769531 9.082031 20.417969 9.074219 20.070312 9.074219 Z M 20.070312 9.074219 "/>
<path style=" stroke:none;fill-rule:nonzero;fill:rgb(1.568627%,27.45098%,67.45098%);fill-opacity:1;" d="M 21.738281 7.582031 C 21.851562 7.582031 21.964844 7.582031 22.074219 7.585938 C 21.984375 7.992188 21.90625 8.402344 21.8125 8.808594 C 22.027344 8.8125 22.238281 8.8125 22.449219 8.8125 C 22.433594 8.898438 22.417969 8.984375 22.402344 9.074219 C 22.074219 9.078125 21.75 9.078125 21.421875 9.074219 C 21.527344 8.578125 21.632812 8.082031 21.738281 7.582031 Z M 21.738281 7.582031 "/>
<path style=" stroke:none;fill-rule:nonzero;fill:rgb(1.568627%,27.45098%,67.45098%);fill-opacity:1;" d="M 22.679688 9.074219 C 22.785156 8.578125 22.894531 8.082031 22.996094 7.585938 C 23.332031 7.582031 23.667969 7.585938 24.003906 7.582031 C 23.988281 7.664062 23.972656 7.746094 23.957031 7.824219 C 23.734375 7.828125 23.507812 7.828125 23.285156 7.824219 C 23.253906 7.9375 23.226562 8.050781 23.203125 8.164062 C 23.414062 8.167969 23.625 8.167969 23.835938 8.167969 C 23.816406 8.253906 23.800781 8.339844 23.785156 8.429688 C 23.570312 8.429688 23.359375 8.425781 23.148438 8.429688 C 23.121094 8.554688 23.09375 8.683594 23.066406 8.808594 C 23.296875 8.8125 23.53125 8.8125 23.761719 8.8125 C 23.746094 8.898438 23.730469 8.988281 23.710938 9.074219 C 23.367188 9.074219 23.023438 9.078125 22.679688 9.074219 Z M 22.679688 9.074219 "/>
<path style=" stroke:none;fill-rule:nonzero;fill:rgb(99.607843%,100%,99.607843%);fill-opacity:1;" d="M 12.242188 7.804688 C 12.320312 7.78125 12.410156 7.773438 12.488281 7.808594 C 12.621094 7.894531 12.675781 8.066406 12.636719 8.214844 C 12.59375 8.457031 12.511719 8.738281 12.269531 8.84375 C 12.128906 8.917969 11.929688 8.863281 11.863281 8.714844 C 11.824219 8.484375 11.859375 8.234375 11.976562 8.027344 C 12.03125 7.921875 12.128906 7.84375 12.242188 7.804688 Z M 12.242188 7.804688 "/>
<path style=" stroke:none;fill-rule:nonzero;fill:rgb(99.607843%,100%,99.607843%);fill-opacity:1;" d="M 15.617188 8.5 C 15.722656 8.304688 15.820312 8.097656 15.960938 7.917969 C 15.980469 8.113281 15.988281 8.308594 16.023438 8.503906 C 15.886719 8.503906 15.753906 8.503906 15.617188 8.5 Z M 15.617188 8.5 "/>
<path style=" stroke:none;fill-rule:nonzero;fill:rgb(1.568627%,27.45098%,67.45098%);fill-opacity:1;" d="M 23.46875 10.015625 C 23.757812 9.894531 24.078125 9.898438 24.386719 9.914062 C 24.65625 9.9375 24.933594 9.933594 25.191406 10.03125 C 25.136719 10.28125 25.039062 10.515625 24.976562 10.761719 C 24.945312 10.875 24.910156 10.988281 24.851562 11.089844 C 24.832031 10.890625 24.851562 10.671875 24.742188 10.492188 C 24.589844 10.222656 24.238281 10.09375 23.945312 10.191406 C 23.835938 10.230469 23.726562 10.320312 23.707031 10.441406 C 23.6875 10.574219 23.742188 10.707031 23.8125 10.816406 C 24.050781 11.214844 24.347656 11.578125 24.570312 11.988281 C 24.695312 12.21875 24.796875 12.464844 24.820312 12.726562 C 24.863281 13.089844 24.769531 13.476562 24.53125 13.757812 C 24.230469 14.113281 23.734375 14.265625 23.28125 14.214844 C 23.046875 14.191406 22.859375 14.011719 22.621094 14.023438 C 22.449219 14.019531 22.300781 14.117188 22.140625 14.171875 C 22.039062 14.203125 21.933594 14.179688 21.832031 14.160156 C 21.546875 14.429688 21.0625 14.421875 20.785156 14.15625 C 20.660156 14.035156 20.554688 13.875 20.558594 13.695312 C 20.550781 13.449219 20.574219 13.199219 20.539062 12.953125 C 20.511719 12.753906 20.488281 12.550781 20.414062 12.363281 C 20.378906 12.28125 20.300781 12.191406 20.203125 12.210938 C 20.113281 12.25 20.089844 12.355469 20.066406 12.4375 C 20 12.738281 19.917969 13.035156 19.84375 13.332031 C 19.804688 13.5 19.78125 13.691406 19.882812 13.839844 C 19.960938 13.945312 20.085938 14.007812 20.183594 14.097656 C 19.546875 14.109375 18.914062 14.109375 18.28125 14.097656 C 18.386719 14.007812 18.527344 13.953125 18.589844 13.824219 C 18.730469 13.578125 18.800781 13.304688 18.875 13.039062 C 19.015625 12.511719 19.148438 11.980469 19.273438 11.453125 C 19.355469 11.058594 19.492188 10.664062 19.429688 10.261719 C 19.410156 10.140625 19.292969 10.078125 19.203125 10.011719 C 19.203125 9.996094 19.203125 9.964844 19.199219 9.949219 C 19.902344 9.933594 20.601562 9.949219 21.300781 9.941406 C 21.601562 9.9375 21.9375 9.953125 22.179688 10.160156 C 22.386719 10.34375 22.433594 10.640625 22.425781 10.90625 C 22.425781 11.179688 22.273438 11.425781 22.078125 11.605469 C 21.839844 11.828125 21.523438 11.933594 21.226562 12.046875 C 21.253906 12.210938 21.4375 12.269531 21.5 12.414062 C 21.574219 12.582031 21.542969 12.773438 21.5625 12.949219 C 21.589844 13.207031 21.566406 13.472656 21.652344 13.722656 C 21.675781 13.792969 21.738281 13.867188 21.820312 13.859375 C 21.933594 13.867188 22.011719 13.773438 22.058594 13.683594 C 22.265625 13.304688 22.273438 12.859375 22.449219 12.46875 C 22.511719 12.632812 22.472656 12.808594 22.496094 12.980469 C 22.53125 13.320312 22.695312 13.660156 22.980469 13.855469 C 23.132812 13.964844 23.335938 14.011719 23.511719 13.949219 C 23.65625 13.894531 23.773438 13.785156 23.851562 13.65625 C 23.957031 13.476562 23.925781 13.253906 23.847656 13.070312 C 23.648438 12.585938 23.304688 12.183594 23.019531 11.746094 C 22.839844 11.46875 22.789062 11.117188 22.847656 10.792969 C 22.90625 10.449219 23.148438 10.144531 23.46875 10.015625 M 20.820312 10.183594 C 20.722656 10.210938 20.652344 10.296875 20.628906 10.390625 C 20.527344 10.78125 20.4375 11.175781 20.332031 11.5625 C 20.316406 11.644531 20.28125 11.730469 20.308594 11.8125 C 20.339844 11.851562 20.378906 11.882812 20.414062 11.917969 C 20.707031 11.890625 20.992188 11.734375 21.167969 11.492188 C 21.378906 11.199219 21.449219 10.800781 21.324219 10.460938 C 21.257812 10.261719 21.027344 10.117188 20.820312 10.183594 Z M 20.820312 10.183594 "/>
<path style=" stroke:none;fill-rule:nonzero;fill:rgb(1.568627%,27.45098%,67.45098%);fill-opacity:1;" d="M 4.5625 9.976562 C 5.070312 9.960938 5.578125 9.976562 6.085938 9.96875 C 6.246094 9.96875 6.40625 9.964844 6.566406 9.980469 C 6.464844 10.074219 6.332031 10.128906 6.242188 10.234375 C 6.101562 10.402344 5.984375 10.597656 5.929688 10.8125 C 5.671875 11.742188 5.425781 12.675781 5.175781 13.609375 C 5.140625 13.707031 5.148438 13.84375 5.265625 13.875 C 5.554688 13.914062 5.855469 13.839844 6.097656 13.675781 C 6.339844 13.503906 6.523438 13.261719 6.667969 13.003906 C 6.703125 12.933594 6.757812 12.875 6.824219 12.828125 C 6.765625 13.273438 6.625 13.699219 6.46875 14.117188 C 6.277344 14.152344 6.085938 14.136719 5.890625 14.140625 C 5.230469 14.140625 4.570312 14.140625 3.910156 14.140625 C 3.820312 14.140625 3.734375 14.125 3.652344 14.105469 C 3.957031 13.925781 4.140625 13.597656 4.230469 13.265625 C 4.457031 12.402344 4.683594 11.539062 4.910156 10.679688 C 4.949219 10.523438 4.964844 10.339844 4.851562 10.214844 C 4.773438 10.113281 4.628906 10.089844 4.5625 9.976562 Z M 4.5625 9.976562 "/>
<path style=" stroke:none;fill-rule:nonzero;fill:rgb(1.568627%,27.45098%,67.45098%);fill-opacity:1;" d="M 7.539062 9.972656 C 8.117188 9.96875 8.699219 9.964844 9.28125 9.976562 C 9.160156 10.082031 9.007812 10.164062 8.941406 10.316406 C 8.863281 10.480469 8.8125 10.65625 8.761719 10.832031 C 8.535156 11.652344 8.328125 12.476562 8.109375 13.296875 C 8.050781 13.480469 8.039062 13.6875 8.121094 13.863281 C 8.15625 13.957031 8.246094 14.015625 8.28125 14.109375 C 8.175781 14.125 8.066406 14.140625 7.960938 14.140625 C 7.601562 14.140625 7.242188 14.140625 6.886719 14.140625 C 6.785156 14.140625 6.6875 14.125 6.589844 14.109375 C 6.675781 14 6.796875 13.910156 6.863281 13.78125 C 6.964844 13.582031 7.023438 13.363281 7.078125 13.144531 C 7.28125 12.390625 7.484375 11.636719 7.6875 10.878906 C 7.738281 10.691406 7.8125 10.5 7.765625 10.300781 C 7.734375 10.183594 7.628906 10.109375 7.539062 10.035156 C 7.539062 10.019531 7.539062 9.988281 7.539062 9.972656 Z M 7.539062 9.972656 "/>
<path style=" stroke:none;fill-rule:nonzero;fill:rgb(1.568627%,27.45098%,67.45098%);fill-opacity:1;" d="M 9.625 9.972656 C 10.402344 9.96875 11.179688 9.96875 11.957031 9.972656 C 12.15625 9.964844 12.355469 10.039062 12.519531 10.152344 C 12.703125 10.285156 12.777344 10.519531 12.796875 10.738281 C 12.832031 11.082031 12.65625 11.410156 12.425781 11.652344 C 12.148438 11.941406 11.769531 12.113281 11.382812 12.195312 C 11.121094 12.246094 10.851562 12.195312 10.585938 12.214844 C 10.464844 12.53125 10.378906 12.859375 10.296875 13.1875 C 10.253906 13.378906 10.203125 13.585938 10.273438 13.777344 C 10.328125 13.933594 10.488281 14.003906 10.605469 14.105469 C 10.425781 14.15625 10.238281 14.136719 10.054688 14.140625 C 9.695312 14.140625 9.335938 14.140625 8.976562 14.140625 C 8.902344 14.140625 8.835938 14.113281 8.769531 14.09375 C 8.875 13.976562 9 13.875 9.074219 13.730469 C 9.214844 13.480469 9.257812 13.195312 9.332031 12.921875 C 9.453125 12.46875 9.566406 12.015625 9.683594 11.5625 C 9.777344 11.21875 9.875 10.871094 9.945312 10.519531 C 10.007812 10.285156 9.800781 10.09375 9.625 9.972656 M 11.15625 10.1875 C 11.070312 10.253906 11.039062 10.359375 11.011719 10.457031 C 10.902344 10.867188 10.792969 11.28125 10.679688 11.691406 C 10.660156 11.765625 10.648438 11.84375 10.640625 11.921875 C 10.671875 11.945312 10.703125 11.96875 10.738281 11.992188 C 11.046875 12.003906 11.355469 11.832031 11.511719 11.566406 C 11.707031 11.238281 11.785156 10.847656 11.746094 10.46875 C 11.730469 10.3125 11.597656 10.195312 11.464844 10.136719 C 11.359375 10.125 11.242188 10.117188 11.15625 10.1875 Z M 11.15625 10.1875 "/>
<path style=" stroke:none;fill-rule:nonzero;fill:rgb(1.568627%,27.45098%,67.45098%);fill-opacity:1;" d="M 12.808594 9.972656 C 13.574219 9.964844 14.335938 9.972656 15.101562 9.96875 C 15.351562 9.96875 15.605469 10.066406 15.773438 10.257812 C 15.90625 10.402344 15.96875 10.601562 15.980469 10.796875 C 16.007812 11.050781 15.878906 11.292969 15.738281 11.496094 C 15.46875 11.875 15.023438 12.097656 14.574219 12.191406 C 14.308594 12.25 14.035156 12.191406 13.765625 12.21875 C 13.640625 12.542969 13.558594 12.882812 13.472656 13.21875 C 13.421875 13.417969 13.386719 13.636719 13.472656 13.832031 C 13.515625 13.941406 13.625 13.996094 13.71875 14.058594 C 13.71875 14.078125 13.71875 14.117188 13.714844 14.140625 C 13.132812 14.140625 12.550781 14.140625 11.964844 14.140625 C 11.964844 14.113281 11.960938 14.089844 11.960938 14.0625 C 12.222656 13.894531 12.351562 13.59375 12.417969 13.296875 C 12.644531 12.40625 12.878906 11.519531 13.109375 10.628906 C 13.136719 10.523438 13.15625 10.40625 13.109375 10.300781 C 13.058594 10.15625 12.925781 10.066406 12.808594 9.972656 M 14.367188 10.183594 C 14.265625 10.246094 14.222656 10.363281 14.191406 10.472656 C 14.085938 10.878906 13.980469 11.28125 13.867188 11.683594 C 13.847656 11.773438 13.796875 11.875 13.847656 11.964844 C 13.949219 12.015625 14.074219 11.996094 14.183594 11.980469 C 14.390625 11.914062 14.570312 11.777344 14.683594 11.59375 C 14.878906 11.285156 14.949219 10.90625 14.933594 10.546875 C 14.925781 10.394531 14.839844 10.234375 14.691406 10.179688 C 14.585938 10.144531 14.46875 10.144531 14.367188 10.183594 Z M 14.367188 10.183594 "/>
<path style=" stroke:none;fill-rule:nonzero;fill:rgb(1.568627%,27.45098%,67.45098%);fill-opacity:1;" d="M 15.894531 9.980469 C 16.914062 9.964844 17.9375 9.980469 18.957031 9.972656 C 18.921875 10.269531 18.828125 10.558594 18.761719 10.851562 C 18.746094 10.945312 18.707031 11.035156 18.648438 11.113281 C 18.628906 10.835938 18.652344 10.503906 18.421875 10.308594 C 18.152344 10.101562 17.796875 10.183594 17.488281 10.167969 C 17.398438 10.28125 17.34375 10.417969 17.308594 10.558594 C 17.246094 10.8125 17.175781 11.066406 17.109375 11.320312 C 17.078125 11.441406 17.070312 11.5625 17.078125 11.683594 C 17.289062 11.703125 17.511719 11.660156 17.6875 11.539062 C 17.882812 11.410156 18 11.195312 18.179688 11.046875 C 18.167969 11.164062 18.148438 11.277344 18.117188 11.386719 C 17.992188 11.875 17.875 12.363281 17.746094 12.851562 C 17.730469 12.859375 17.703125 12.871094 17.6875 12.878906 C 17.664062 12.621094 17.644531 12.332031 17.453125 12.132812 C 17.351562 12.011719 17.171875 11.933594 17.015625 12 C 16.921875 12.039062 16.898438 12.148438 16.871094 12.234375 C 16.742188 12.722656 16.609375 13.207031 16.484375 13.695312 C 16.445312 13.816406 16.527344 13.964844 16.664062 13.957031 C 17.011719 13.960938 17.390625 13.976562 17.695312 13.785156 C 18.054688 13.550781 18.238281 13.144531 18.539062 12.847656 C 18.515625 13.140625 18.398438 13.414062 18.324219 13.695312 C 18.289062 13.808594 18.269531 13.925781 18.210938 14.027344 C 18.191406 14.058594 18.171875 14.105469 18.128906 14.097656 C 17.15625 14.113281 16.179688 14.097656 15.207031 14.105469 C 15.125 14.109375 15.042969 14.097656 14.964844 14.074219 C 15.265625 13.945312 15.472656 13.660156 15.554688 13.347656 C 15.78125 12.46875 16 11.589844 16.226562 10.710938 C 16.261719 10.574219 16.28125 10.421875 16.242188 10.28125 C 16.171875 10.136719 16.003906 10.089844 15.894531 9.980469 Z M 15.894531 9.980469 "/>
<path style=" stroke:none;fill-rule:nonzero;fill:rgb(99.607843%,100%,99.607843%);fill-opacity:1;" d="M 11.15625 10.1875 C 11.242188 10.117188 11.359375 10.125 11.464844 10.136719 C 11.597656 10.195312 11.730469 10.3125 11.746094 10.46875 C 11.785156 10.847656 11.707031 11.238281 11.511719 11.566406 C 11.355469 11.832031 11.046875 12.003906 10.738281 11.992188 C 10.703125 11.96875 10.671875 11.945312 10.640625 11.921875 C 10.648438 11.84375 10.660156 11.765625 10.679688 11.691406 C 10.792969 11.28125 10.902344 10.867188 11.011719 10.457031 C 11.039062 10.359375 11.070312 10.253906 11.15625 10.1875 Z M 11.15625 10.1875 "/>
<path style=" stroke:none;fill-rule:nonzero;fill:rgb(99.607843%,100%,99.607843%);fill-opacity:1;" d="M 14.367188 10.183594 C 14.46875 10.144531 14.585938 10.144531 14.691406 10.179688 C 14.839844 10.234375 14.925781 10.394531 14.933594 10.546875 C 14.949219 10.90625 14.878906 11.285156 14.683594 11.59375 C 14.570312 11.777344 14.390625 11.914062 14.183594 11.980469 C 14.074219 11.996094 13.949219 12.015625 13.847656 11.964844 C 13.796875 11.875 13.847656 11.773438 13.867188 11.683594 C 13.980469 11.28125 14.085938 10.878906 14.191406 10.472656 C 14.222656 10.363281 14.265625 10.246094 14.367188 10.183594 Z M 14.367188 10.183594 "/>
<path style=" stroke:none;fill-rule:nonzero;fill:rgb(99.607843%,100%,99.607843%);fill-opacity:1;" d="M 20.820312 10.183594 C 21.027344 10.117188 21.257812 10.261719 21.324219 10.460938 C 21.449219 10.800781 21.378906 11.199219 21.167969 11.492188 C 20.992188 11.734375 20.707031 11.890625 20.414062 11.917969 C 20.378906 11.882812 20.339844 11.851562 20.308594 11.8125 C 20.28125 11.730469 20.316406 11.644531 20.332031 11.5625 C 20.4375 11.175781 20.527344 10.78125 20.628906 10.390625 C 20.652344 10.296875 20.722656 10.210938 20.820312 10.183594 Z M 20.820312 10.183594 "/>
<path style=" stroke:none;fill-rule:nonzero;fill:rgb(99.607843%,100%,99.607843%);fill-opacity:1;" d="M 11.292969 15.429688 C 12.222656 15.445312 13.148438 15.429688 14.074219 15.4375 C 13.671875 15.9375 13.261719 16.433594 12.851562 16.929688 C 12.265625 16.503906 11.75 15.988281 11.292969 15.429688 Z M 11.292969 15.429688 "/>
<path style=" stroke:none;fill-rule:nonzero;fill:rgb(99.607843%,100%,99.607843%);fill-opacity:1;" d="M 14.539062 15.476562 C 14.578125 15.417969 14.652344 15.429688 14.710938 15.425781 C 17.046875 15.429688 19.378906 15.425781 21.714844 15.429688 C 21.40625 16.285156 20.96875 17.117188 20.308594 17.753906 C 20.046875 18.019531 19.738281 18.222656 19.414062 18.402344 C 19.265625 18.476562 19.132812 18.597656 18.957031 18.605469 C 16.9375 18.816406 14.835938 18.316406 13.167969 17.152344 C 13.632812 16.601562 14.082031 16.035156 14.539062 15.476562 Z M 14.539062 15.476562 "/>
<path style=" stroke:none;fill-rule:nonzero;fill:rgb(99.607843%,100%,99.607843%);fill-opacity:1;" d="M 22.125 15.429688 C 23.027344 15.429688 23.929688 15.425781 24.828125 15.429688 C 24.320312 16.007812 23.753906 16.539062 23.132812 16.992188 C 22.535156 17.429688 21.878906 17.789062 21.191406 18.058594 C 20.855469 18.195312 20.511719 18.304688 20.160156 18.382812 C 20.804688 17.917969 21.285156 17.253906 21.648438 16.554688 C 21.835938 16.191406 21.992188 15.8125 22.125 15.429688 Z M 22.125 15.429688 "/>
</g>
</svg>
