<?xml version="1.0" encoding="UTF-8"?>
<svg xmlns="http://www.w3.org/2000/svg" xmlns:xlink="http://www.w3.org/1999/xlink" width="16pt" height="20pt" viewBox="0 0 16 20" version="1.1">
<g id="surface1">
<path style=" stroke:none;fill-rule:nonzero;fill:rgb(13.72549%,21.568627%,35.686275%);fill-opacity:1;" d="M 3.738281 13.230469 L 3.738281 15.90625 C 3.886719 15.90625 5.425781 15.90625 5.425781 15.90625 L 5.425781 15.574219 L 4.066406 15.578125 L 4.066406 13.132812 L 5.425781 13.132812 L 5.425781 12.785156 L 3.578125 12.789062 Z M 7.558594 13.230469 C 7.558594 13.230469 7.359375 13.226562 7.109375 13.226562 L 7.109375 15.917969 L 7.390625 15.917969 L 7.390625 13.535156 L 7.492188 13.53125 C 7.550781 13.53125 7.597656 13.597656 7.597656 13.675781 L 7.597656 15.917969 L 7.898438 15.917969 L 7.898438 13.652344 C 7.898438 13.363281 7.742188 13.230469 7.558594 13.230469 M 6.160156 15.917969 L 6.445312 15.917969 L 6.445312 13.535156 L 6.679688 13.535156 L 6.679688 15.917969 L 6.972656 15.917969 L 6.972656 13.226562 C 6.621094 13.226562 6.226562 13.226562 6.160156 13.222656 Z M 2.597656 12.402344 C 2.597656 12.402344 2.371094 12.402344 2.09375 12.398438 L 2.09375 15.898438 L 2.410156 15.898438 L 2.410156 12.746094 L 2.523438 12.742188 C 2.585938 12.742188 2.640625 12.8125 2.640625 12.902344 L 2.636719 15.898438 L 2.988281 15.898438 L 2.988281 12.875 C 2.988281 12.566406 2.804688 12.402344 2.597656 12.402344 M 4.203125 14.28125 L 5.089844 14.28125 L 5.089844 13.964844 L 4.492188 13.964844 L 4.492188 13.59375 L 5.425781 13.59375 L 5.425781 13.269531 L 4.203125 13.269531 Z M 7.605469 12.800781 L 5.558594 12.800781 L 5.734375 13.273438 L 5.734375 15.917969 L 6.023438 15.917969 L 6.023438 13.085938 L 7.558594 13.089844 C 7.816406 13.089844 8.035156 13.285156 8.035156 13.652344 L 8.035156 15.917969 L 8.308594 15.917969 L 8.308594 13.460938 C 8.308594 13.046875 7.960938 12.800781 7.605469 12.800781 M 11.578125 14.015625 L 11.214844 14.015625 L 11.214844 12.777344 L 10.933594 12.78125 L 10.933594 14.253906 L 11.890625 14.253906 L 11.890625 12.777344 L 11.578125 12.777344 Z M 4.492188 14.753906 L 5.089844 14.753906 L 5.089844 14.417969 L 4.203125 14.417969 L 4.203125 15.441406 C 4.3125 15.441406 5.226562 15.4375 5.425781 15.4375 L 5.425781 15.140625 L 4.492188 15.140625 Z M 1.042969 15.898438 L 1.367188 15.898438 L 1.367188 12.746094 L 1.625 12.746094 L 1.625 15.898438 L 1.957031 15.898438 L 1.957031 12.398438 C 1.558594 12.398438 1.113281 12.398438 1.042969 12.398438 Z M 2.648438 11.9375 L 0.390625 11.9375 L 0.582031 12.457031 L 0.582031 15.898438 L 0.910156 15.898438 L 0.910156 12.257812 L 2.597656 12.261719 C 2.875 12.261719 3.125 12.476562 3.125 12.875 L 3.125 15.898438 L 3.421875 15.898438 L 3.421875 12.664062 C 3.421875 12.207031 3.039062 11.9375 2.648438 11.9375 M 13.105469 12.785156 L 13.105469 15.925781 L 13.4375 15.925781 L 13.4375 12.785156 Z M 12.636719 13.296875 L 12.636719 15.925781 L 12.96875 15.925781 L 12.96875 12.785156 L 12.449219 12.785156 Z M 14.519531 14.285156 C 14.808594 14.285156 14.761719 14.472656 14.761719 14.664062 L 14.761719 14.988281 C 14.761719 15.066406 14.710938 15.128906 14.648438 15.128906 L 14.601562 15.128906 C 14.539062 15.128906 14.488281 15.066406 14.488281 14.988281 L 14.488281 14.605469 L 14.136719 14.605469 L 14.136719 14.945312 C 14.136719 15.152344 14.136719 15.46875 14.609375 15.46875 C 15.097656 15.46875 15.117188 15.09375 15.117188 15.082031 L 15.117188 14.367188 C 15.117188 14.027344 14.941406 13.996094 14.660156 13.976562 C 14.574219 13.96875 14.488281 13.964844 14.410156 13.941406 C 14.078125 13.847656 14.039062 13.613281 14.023438 13.527344 C 14.011719 13.46875 14.015625 13.003906 14.015625 12.855469 C 14.015625 12.839844 14.003906 12.625 14.148438 12.460938 C 14.253906 12.34375 14.40625 12.289062 14.605469 12.289062 C 14.816406 12.289062 14.980469 12.351562 15.089844 12.476562 C 15.226562 12.628906 15.242188 12.824219 15.242188 12.902344 C 15.242188 12.914062 15.242188 12.925781 15.242188 12.929688 L 15.242188 13.226562 L 15.597656 13.226562 L 15.597656 12.722656 C 15.597656 12.246094 15.21875 11.925781 14.722656 11.925781 L 14.5625 11.925781 C 14.074219 11.925781 13.632812 12.1875 13.632812 12.734375 L 13.632812 13.46875 C 13.632812 14.007812 14.128906 14.285156 14.519531 14.285156 M 9.628906 12.800781 L 8.421875 12.800781 L 8.589844 13.269531 L 8.589844 15.925781 L 8.863281 15.925781 L 8.863281 13.082031 L 9.582031 13.082031 C 9.839844 13.082031 10.097656 13.265625 10.097656 13.597656 L 10.097656 13.933594 C 10.097656 14.265625 9.839844 14.4375 9.582031 14.4375 L 9 14.4375 L 9 15.925781 L 9.308594 15.925781 L 9.308594 14.691406 C 9.308594 14.691406 9.695312 14.683594 9.695312 14.683594 C 10.125 14.683594 10.355469 14.296875 10.355469 13.933594 L 10.363281 13.472656 C 10.363281 13.035156 9.984375 12.800781 9.628906 12.800781 M 14.851562 13.539062 L 14.699219 13.53125 C 14.558594 13.53125 14.480469 13.472656 14.480469 13.324219 L 14.480469 12.910156 C 14.480469 12.832031 14.53125 12.769531 14.59375 12.769531 L 14.640625 12.769531 C 14.703125 12.769531 14.753906 12.832031 14.753906 12.910156 L 14.753906 13.226562 L 15.109375 13.226562 L 15.109375 12.921875 C 15.109375 12.921875 15.121094 12.710938 14.992188 12.566406 C 14.90625 12.472656 14.777344 12.425781 14.605469 12.425781 C 14.445312 12.425781 14.324219 12.46875 14.246094 12.550781 C 14.136719 12.671875 14.148438 12.84375 14.148438 12.84375 L 14.148438 12.851562 C 14.148438 13.136719 14.148438 13.460938 14.152344 13.5 C 14.167969 13.578125 14.195312 13.738281 14.445312 13.8125 C 14.511719 13.828125 14.589844 13.835938 14.667969 13.839844 C 14.914062 13.859375 15.25 13.882812 15.25 14.367188 L 15.25 15.082031 C 15.25 15.085938 15.230469 15.601562 14.609375 15.601562 C 14.007812 15.601562 14.007812 15.140625 14.007812 14.945312 L 14.007812 14.605469 L 13.640625 14.605469 L 13.640625 15.105469 C 13.640625 15.703125 14.089844 15.933594 14.503906 15.933594 L 14.714844 15.933594 C 15.230469 15.933594 15.609375 15.609375 15.609375 15.085938 L 15.609375 14.308594 C 15.609375 13.742188 15.230469 13.539062 14.851562 13.539062 M 10.480469 13.265625 L 10.480469 15.945312 L 10.800781 15.945312 L 10.800781 12.78125 L 10.3125 12.78125 Z M 9.964844 13.933594 L 9.964844 13.597656 C 9.964844 13.34375 9.765625 13.21875 9.582031 13.21875 L 9 13.21875 L 9 14.300781 L 9.582031 14.300781 C 9.765625 14.300781 9.964844 14.1875 9.964844 13.933594 M 9.308594 14.015625 L 9.308594 13.484375 L 9.503906 13.484375 C 9.597656 13.484375 9.675781 13.578125 9.675781 13.695312 L 9.675781 13.800781 C 9.675781 13.921875 9.601562 14.015625 9.503906 14.015625 Z M 12.027344 15.945312 L 12.3125 15.945312 L 12.3125 12.777344 L 12.027344 12.777344 Z M 10.933594 15.945312 L 11.214844 15.945312 L 11.214844 14.695312 L 11.578125 14.695312 L 11.578125 15.945312 L 11.890625 15.945312 L 11.890625 14.390625 L 10.933594 14.390625 Z M 10.933594 15.945312 "/>
<path style=" stroke:none;fill-rule:nonzero;fill:rgb(38.039216%,53.72549%,72.54902%);fill-opacity:1;" d="M 6.023438 15.917969 L 6.023438 13.085938 L 7.558594 13.089844 C 7.816406 13.089844 8.035156 13.285156 8.035156 13.652344 L 8.035156 15.917969 L 7.898438 15.917969 L 7.898438 13.652344 C 7.898438 13.363281 7.742188 13.230469 7.558594 13.230469 C 7.558594 13.230469 7.359375 13.226562 7.109375 13.226562 L 7.109375 15.917969 L 6.972656 15.917969 L 6.972656 13.226562 C 6.621094 13.226562 6.226562 13.226562 6.160156 13.226562 L 6.160156 15.917969 Z M 5.425781 13.269531 L 4.203125 13.269531 L 4.203125 14.28125 L 5.089844 14.28125 L 5.089844 14.417969 L 4.203125 14.417969 L 4.203125 15.441406 C 4.3125 15.441406 5.226562 15.4375 5.425781 15.4375 L 5.425781 15.574219 L 4.066406 15.578125 L 4.066406 13.132812 L 5.425781 13.132812 Z M 0.910156 15.898438 L 0.910156 12.257812 L 2.597656 12.261719 C 2.875 12.261719 3.125 12.476562 3.125 12.875 L 3.125 15.898438 L 2.988281 15.898438 L 2.988281 12.875 C 2.988281 12.566406 2.804688 12.402344 2.597656 12.402344 C 2.597656 12.402344 2.371094 12.402344 2.09375 12.398438 L 2.09375 15.898438 L 1.957031 15.898438 L 1.957031 12.398438 C 1.558594 12.398438 1.113281 12.398438 1.042969 12.398438 L 1.042969 15.898438 Z M 12.96875 12.785156 L 13.105469 12.785156 L 13.105469 15.925781 L 12.96875 15.925781 Z M 8.863281 15.925781 L 8.863281 13.082031 L 9.582031 13.082031 C 9.839844 13.082031 10.097656 13.265625 10.097656 13.597656 L 10.097656 13.933594 C 10.097656 14.265625 9.839844 14.4375 9.582031 14.4375 L 9 14.4375 L 9 15.925781 Z M 14.136719 14.605469 L 14.136719 14.945312 C 14.136719 15.152344 14.136719 15.46875 14.609375 15.46875 C 15.097656 15.46875 15.117188 15.09375 15.117188 15.082031 L 15.117188 14.367188 C 15.117188 14.027344 14.941406 13.996094 14.660156 13.976562 C 14.574219 13.96875 14.488281 13.964844 14.410156 13.941406 C 14.078125 13.847656 14.039062 13.613281 14.023438 13.527344 C 14.011719 13.46875 14.015625 13.003906 14.015625 12.855469 C 14.015625 12.839844 14.003906 12.625 14.148438 12.460938 C 14.253906 12.34375 14.40625 12.289062 14.605469 12.289062 C 14.816406 12.289062 14.980469 12.351562 15.089844 12.476562 C 15.226562 12.628906 15.242188 12.824219 15.242188 12.902344 C 15.242188 12.914062 15.242188 12.925781 15.242188 12.929688 L 15.242188 13.226562 L 15.109375 13.226562 L 15.109375 12.921875 C 15.109375 12.917969 15.121094 12.710938 14.992188 12.566406 C 14.90625 12.472656 14.777344 12.425781 14.605469 12.425781 C 14.445312 12.425781 14.324219 12.46875 14.246094 12.550781 C 14.136719 12.671875 14.148438 12.84375 14.148438 12.84375 L 14.148438 12.851562 C 14.148438 13.136719 14.148438 13.460938 14.152344 13.5 C 14.167969 13.578125 14.195312 13.738281 14.445312 13.808594 C 14.511719 13.828125 14.589844 13.835938 14.667969 13.839844 C 14.914062 13.859375 15.25 13.882812 15.25 14.367188 L 15.25 15.082031 C 15.25 15.085938 15.230469 15.601562 14.609375 15.601562 C 14.007812 15.601562 14.007812 15.140625 14.007812 14.945312 L 14.007812 14.605469 Z M 9.964844 13.933594 L 9.964844 13.597656 C 9.964844 13.34375 9.765625 13.21875 9.582031 13.21875 L 9 13.21875 L 9 14.300781 L 9.582031 14.300781 C 9.765625 14.300781 9.964844 14.1875 9.964844 13.933594 M 10.800781 15.945312 L 10.800781 12.78125 L 10.933594 12.78125 L 10.933594 14.253906 L 11.890625 14.253906 L 11.890625 12.777344 L 12.027344 12.777344 L 12.027344 15.945312 L 11.890625 15.945312 L 11.890625 14.390625 L 10.933594 14.390625 L 10.933594 15.945312 Z M 10.800781 15.945312 "/>
<path style=" stroke:none;fill-rule:nonzero;fill:rgb(13.72549%,21.568627%,35.686275%);fill-opacity:1;" d="M 13.417969 3.246094 C 13.371094 3.171875 13.320312 3.097656 13.273438 3.027344 C 14.503906 0.980469 11.597656 -0.589844 10.546875 1.148438 C 9.25 0.90625 8.167969 1.386719 8.019531 1.457031 C 7.875 1.386719 6.804688 0.914062 5.523438 1.144531 C 4.25 -0.671875 1.628906 1.203125 2.785156 3.003906 C 2.730469 3.082031 2.675781 3.164062 2.621094 3.246094 C 0.980469 5.785156 2.210938 7.503906 2.210938 7.503906 L 2.464844 7.246094 C 2.464844 7.246094 2.824219 9.015625 4.722656 10.179688 L 4.789062 9.796875 C 5.957031 11.0625 7.039062 11.035156 8.046875 12.191406 C 8.980469 11.09375 10.335938 11.09375 11.386719 9.726562 L 11.386719 10.214844 C 13.335938 9.25 13.515625 7.167969 13.515625 7.167969 L 13.695312 7.507812 C 13.695312 7.507812 15.0625 5.785156 13.417969 3.246094 "/>
<path style=" stroke:none;fill-rule:nonzero;fill:rgb(99.215686%,72.156863%,15.294118%);fill-opacity:1;" d="M 9.289062 5.042969 C 9.378906 5.007812 9.539062 5.109375 9.625 5.277344 C 10.019531 5.160156 10 4.621094 9.996094 4.582031 C 9.683594 4.707031 9.425781 4.917969 9.289062 5.042969 "/>
<path style=" stroke:none;fill-rule:nonzero;fill:rgb(38.039216%,53.72549%,72.54902%);fill-opacity:1;" d="M 8.035156 7.65625 C 8.144531 7.636719 9.875 7.574219 8.816406 8.667969 C 9.554688 7.671875 8.214844 7.664062 8.035156 7.65625 M 11.03125 1.988281 C 11.03125 1.988281 11.421875 1 12.613281 1.238281 C 12.613281 1.238281 11.519531 0.507812 10.757812 1.832031 C 10.757812 1.832031 9.675781 1.308594 8.042969 2.023438 C 8.042969 2.023438 6.5 1.476562 5.335938 1.789062 C 5.335938 1.789062 4.65625 0.589844 3.699219 1.085938 C 2.746094 1.578125 3.242188 2.714844 3.410156 3.011719 C 3.410156 3.011719 1.824219 4.648438 2.417969 6.675781 L 2.738281 6.273438 C 2.738281 6.273438 3.191406 8.480469 4.367188 9.175781 L 4.4375 8.632812 C 4.4375 8.632812 5.664062 10.132812 7.105469 10.769531 C 7.242188 10.835938 8.011719 11.222656 8.03125 11.414062 L 8.03125 10.359375 C 8.03125 10.359375 7.03125 10.445312 6.765625 9.976562 C 6.585938 9.660156 5.4375 7.578125 6.007812 5.394531 C 6.007812 5.394531 5.453125 5.3125 5.347656 4.363281 C 5.347656 4.363281 4.9375 4.160156 4.421875 4.203125 C 4.421875 4.203125 5.339844 3.910156 6.199219 4.246094 C 7.058594 4.585938 7.289062 5.445312 7.871094 5.066406 L 8.042969 2.644531 L 8.207031 5.066406 C 8.789062 5.445312 9.019531 4.585938 9.878906 4.246094 C 10.738281 3.910156 11.65625 4.203125 11.65625 4.203125 C 11.65625 4.203125 11.289062 3.941406 10.699219 3.820312 C 10.207031 3.71875 9.484375 4.042969 9.484375 4.042969 C 9.484375 4.042969 9.585938 3.355469 9.914062 2.988281 C 10.195312 2.671875 10.832031 2.601562 11.03125 1.988281 M 3.613281 2.820312 C 3.578125 2.492188 3.992188 2.167969 3.992188 2.167969 C 3.820312 1.988281 3.527344 2.140625 3.527344 2.140625 C 3.792969 1.609375 4.394531 1.871094 4.394531 1.871094 C 4.167969 1.585938 3.683594 1.605469 3.683594 1.605469 C 4.28125 1.003906 5 1.921875 5 1.921875 C 4.359375 2.070312 3.613281 2.820312 3.613281 2.820312 M 10 4.582031 C 9.992188 4.585938 9.988281 4.585938 9.984375 4.589844 C 9.988281 4.585938 9.992188 4.585938 10 4.582031 M 9.519531 5.363281 C 10.476562 7.980469 9.257812 9.660156 9.257812 9.660156 C 10.007812 7.664062 9.527344 6.003906 9.195312 5.386719 C 9.027344 5.402344 8.828125 5.394531 8.828125 5.394531 C 8.828125 5.394531 9.078125 5.234375 9.246094 5.082031 C 9.257812 5.070312 9.273438 5.058594 9.289062 5.042969 C 9.378906 5.011719 9.539062 5.109375 9.625 5.277344 C 10.023438 5.160156 10 4.621094 10 4.582031 C 10.113281 4.539062 10.234375 4.503906 10.363281 4.492188 C 10.363281 4.492188 10.273438 5.351562 9.519531 5.363281 "/>
<path style=" stroke:none;fill-rule:nonzero;fill:rgb(99.215686%,72.156863%,15.294118%);fill-opacity:1;" d="M 6.125 4.582031 C 6.125 4.621094 6.101562 5.160156 6.496094 5.277344 C 6.582031 5.109375 6.734375 5.015625 6.828125 5.042969 C 6.613281 4.875 6.351562 4.691406 6.125 4.582031 "/>
<path style=" stroke:none;fill-rule:nonzero;fill:rgb(73.333333%,81.960784%,89.411765%);fill-opacity:1;" d="M 8.03125 10.109375 C 6.824219 10.109375 6.988281 9.839844 6.988281 9.839844 C 7.117188 9.757812 7.964844 9.742188 8.03125 9.742188 C 8.097656 9.742188 8.945312 9.757812 9.078125 9.839844 C 9.078125 9.839844 9.242188 10.109375 8.03125 10.109375 M 6.125 4.582031 L 6.125 4.582031 M 8.03125 8.976562 L 8.03125 9.472656 L 7.699219 9.492188 C 7.351562 9.5 6.894531 9.644531 6.894531 9.644531 C 6.046875 7.515625 6.515625 5.90625 6.742188 5.328125 C 5.902344 5.515625 5.765625 4.492188 5.765625 4.492188 C 5.855469 4.472656 5.980469 4.511719 6.125 4.582031 C 6.125 4.621094 6.105469 5.160156 6.496094 5.277344 C 6.582031 5.109375 6.734375 5.015625 6.824219 5.042969 C 6.886719 5.089844 6.945312 5.140625 7 5.183594 C 7.566406 5.671875 8.011719 5.570312 8.011719 5.570312 C 8.011719 5.570312 8.019531 7.425781 8.019531 7.65625 C 8.019531 7.65625 6.367188 7.523438 7.253906 8.667969 C 7.253906 8.667969 7.394531 8.25 7.546875 8.378906 C 7.757812 8.5625 8.03125 8.9375 8.03125 8.976562 "/>
<path style=" stroke:none;fill-rule:nonzero;fill:rgb(38.039216%,53.72549%,72.54902%);fill-opacity:1;" d="M 4.335938 17.8125 L 4.316406 17.863281 C 4.292969 17.925781 4.234375 17.960938 4.183594 17.941406 L 4.074219 17.902344 L 4.175781 17.625 L 4.28125 17.667969 C 4.332031 17.683594 4.355469 17.75 4.335938 17.8125 M 4.472656 17.339844 L 3.828125 17.101562 L 3.832031 17.375 L 3.339844 18.746094 L 3.722656 18.886719 L 3.949219 18.25 L 4.066406 18.292969 C 4.101562 18.304688 4.113281 18.351562 4.097656 18.394531 L 3.898438 18.953125 L 4.273438 19.09375 L 4.480469 18.515625 C 4.515625 18.425781 4.503906 18.339844 4.453125 18.28125 C 4.453125 18.28125 4.582031 18.257812 4.648438 18.066406 L 4.738281 17.828125 C 4.820312 17.605469 4.664062 17.410156 4.472656 17.339844 "/>
<path style=" stroke:none;fill-rule:nonzero;fill:rgb(38.039216%,53.72549%,72.54902%);fill-opacity:1;" d="M 12.351562 17.515625 L 12.21875 17.125 L 11.265625 17.464844 L 11.425781 17.664062 L 11.902344 19.054688 C 11.976562 19.027344 12.777344 18.746094 12.777344 18.746094 L 12.640625 18.359375 L 12.160156 18.527344 C 12.144531 18.488281 12.078125 18.300781 12.078125 18.300781 L 12.386719 18.191406 L 12.253906 17.800781 L 11.945312 17.90625 L 11.871094 17.683594 Z M 12.351562 17.515625 "/>
<path style=" stroke:none;fill-rule:nonzero;fill:rgb(38.039216%,53.72549%,72.54902%);fill-opacity:1;" d="M 9.683594 19.121094 L 9.558594 17.804688 L 9.050781 17.855469 L 9.175781 18.117188 L 9.3125 19.546875 L 10.308594 19.453125 L 10.273438 19.0625 Z M 9.683594 19.121094 "/>
<path style=" stroke:none;fill-rule:nonzero;fill:rgb(38.039216%,53.72549%,72.54902%);fill-opacity:1;" d="M 5.246094 17.859375 L 5.214844 17.566406 L 5.699219 17.671875 L 5.359375 19.347656 L 4.960938 19.261719 Z M 5.246094 17.859375 "/>
<path style=" stroke:none;fill-rule:nonzero;fill:rgb(38.039216%,53.72549%,72.54902%);fill-opacity:1;" d="M 10.519531 17.929688 L 10.371094 17.675781 L 10.859375 17.574219 L 11.214844 19.246094 L 10.816406 19.332031 Z M 10.519531 17.929688 "/>
<path style=" stroke:none;fill-rule:nonzero;fill:rgb(38.039216%,53.72549%,72.54902%);fill-opacity:1;" d="M 7.183594 17.871094 L 6.171875 17.761719 L 6.125 18.238281 L 6.410156 18.167969 L 6.574219 18.183594 L 5.996094 19.464844 L 7.007812 19.566406 L 7.042969 19.179688 L 6.605469 19.132812 Z M 7.183594 17.871094 "/>
<path style=" stroke:none;fill-rule:nonzero;fill:rgb(38.039216%,53.72549%,72.54902%);fill-opacity:1;" d="M 8.585938 17.894531 L 7.570312 17.886719 L 7.570312 18.367188 L 7.84375 18.265625 L 8.011719 18.265625 L 7.558594 19.601562 L 8.578125 19.601562 L 8.574219 19.210938 L 8.136719 19.207031 Z M 8.585938 17.894531 "/>
<path style=" stroke:none;fill-rule:nonzero;fill:rgb(38.039216%,53.72549%,72.54902%);fill-opacity:1;" d="M 13.609375 17.6875 L 13.6875 17.808594 C 13.707031 17.839844 13.703125 17.875 13.679688 17.890625 L 13.628906 17.925781 C 13.605469 17.941406 13.570312 17.933594 13.550781 17.902344 L 13.457031 17.757812 L 13.140625 17.972656 L 13.265625 18.160156 C 13.410156 18.382812 13.632812 18.355469 13.789062 18.25 L 13.898438 18.175781 C 14.09375 18.046875 14.15625 17.828125 14.027344 17.636719 L 13.835938 17.34375 C 13.699219 17.132812 13.507812 17.152344 13.367188 17.246094 L 13.273438 17.304688 C 13.222656 17.339844 13.175781 17.335938 13.140625 17.28125 L 13.039062 17.128906 C 13.019531 17.097656 13.023438 17.0625 13.046875 17.046875 L 13.101562 17.011719 C 13.125 16.996094 13.15625 17.007812 13.175781 17.035156 L 13.253906 17.152344 L 13.570312 16.941406 L 13.445312 16.753906 C 13.328125 16.574219 13.109375 16.550781 12.925781 16.675781 L 12.832031 16.738281 C 12.648438 16.863281 12.546875 17.070312 12.683594 17.273438 L 12.863281 17.546875 C 12.992188 17.75 13.246094 17.730469 13.390625 17.632812 C 13.523438 17.542969 13.5625 17.617188 13.609375 17.6875 "/>
<path style=" stroke:none;fill-rule:nonzero;fill:rgb(38.039216%,53.72549%,72.54902%);fill-opacity:1;" d="M 2.804688 18.160156 C 2.667969 18.363281 2.425781 18.375 2.261719 18.261719 L 2.089844 18.144531 C 1.925781 18.035156 1.84375 17.800781 1.980469 17.59375 L 2.535156 16.753906 C 2.671875 16.546875 2.914062 16.535156 3.078125 16.648438 L 3.25 16.761719 C 3.414062 16.875 3.496094 17.109375 3.363281 17.316406 L 3.25 17.484375 L 2.914062 17.253906 L 2.984375 17.148438 C 3.007812 17.109375 3.007812 17.0625 2.980469 17.042969 L 2.925781 17.007812 C 2.898438 16.988281 2.855469 17.007812 2.828125 17.046875 C 2.828125 17.046875 2.804688 17.085938 2.761719 17.148438 C 2.6875 17.265625 2.355469 17.761719 2.355469 17.761719 C 2.332031 17.800781 2.332031 17.847656 2.359375 17.867188 L 2.414062 17.90625 C 2.441406 17.921875 2.484375 17.90625 2.511719 17.867188 L 2.636719 17.679688 L 2.578125 17.640625 L 2.734375 17.402344 L 3.128906 17.671875 Z M 2.804688 18.160156 "/>
</g>
</svg>
