<?xml version="1.0" encoding="UTF-8"?>
<svg xmlns="http://www.w3.org/2000/svg" xmlns:xlink="http://www.w3.org/1999/xlink" width="35pt" height="25pt" viewBox="0 0 35 25" version="1.1">
<g id="surface1">
<path style=" stroke:none;fill-rule:nonzero;fill:rgb(13.72549%,21.568627%,35.686275%);fill-opacity:1;" d="M 11.867188 16.707031 L 11.867188 20.191406 C 12.0625 20.191406 14.097656 20.1875 14.097656 20.1875 L 14.097656 19.757812 L 12.300781 19.761719 L 12.300781 16.578125 L 14.097656 16.578125 L 14.097656 16.128906 L 11.652344 16.132812 Z M 16.917969 16.707031 C 16.917969 16.707031 16.652344 16.703125 16.324219 16.703125 L 16.324219 20.203125 L 16.695312 20.203125 L 16.695312 17.101562 L 16.832031 17.097656 C 16.90625 17.097656 16.96875 17.183594 16.96875 17.285156 L 16.96875 20.207031 L 17.367188 20.207031 L 17.367188 17.257812 C 17.367188 16.878906 17.160156 16.707031 16.917969 16.707031 M 15.066406 20.207031 L 15.445312 20.207031 L 15.445312 17.101562 L 15.753906 17.101562 L 15.753906 20.203125 L 16.144531 20.203125 L 16.144531 16.703125 C 15.675781 16.699219 15.15625 16.699219 15.066406 16.699219 Z M 10.359375 15.625 C 10.359375 15.625 10.0625 15.625 9.691406 15.625 L 9.691406 20.179688 L 10.113281 20.179688 L 10.113281 16.074219 L 10.261719 16.070312 C 10.347656 16.070312 10.414062 16.164062 10.414062 16.277344 L 10.414062 20.183594 L 10.878906 20.183594 L 10.878906 16.246094 C 10.878906 15.839844 10.636719 15.625 10.359375 15.625 M 12.480469 18.074219 L 13.652344 18.074219 L 13.652344 17.660156 L 12.863281 17.660156 L 12.863281 17.175781 L 14.097656 17.175781 L 14.097656 16.757812 L 12.480469 16.757812 Z M 16.980469 16.148438 L 14.273438 16.148438 L 14.503906 16.761719 L 14.503906 20.207031 L 14.886719 20.207031 L 14.886719 16.519531 L 16.917969 16.523438 C 17.257812 16.523438 17.546875 16.777344 17.546875 17.257812 L 17.546875 20.207031 L 17.910156 20.207031 L 17.90625 17.007812 C 17.90625 16.464844 17.445312 16.148438 16.980469 16.148438 M 22.226562 17.726562 L 21.75 17.726562 L 21.75 16.117188 L 21.378906 16.121094 L 21.378906 18.039062 L 22.640625 18.039062 L 22.640625 16.117188 L 22.226562 16.117188 Z M 12.863281 18.6875 L 13.652344 18.6875 L 13.652344 18.253906 L 12.480469 18.253906 L 12.480469 19.582031 C 12.625 19.582031 13.835938 19.582031 14.097656 19.578125 L 14.097656 19.195312 L 12.863281 19.191406 Z M 8.308594 20.183594 L 8.730469 20.183594 L 8.730469 16.074219 L 9.078125 16.074219 L 9.078125 20.179688 L 9.511719 20.179688 L 9.511719 15.625 C 8.988281 15.621094 8.398438 15.621094 8.308594 15.621094 Z M 10.425781 15.023438 L 7.445312 15.023438 L 7.695312 15.699219 L 7.695312 20.183594 L 8.128906 20.183594 L 8.128906 15.441406 L 10.359375 15.445312 C 10.726562 15.445312 11.058594 15.722656 11.058594 16.246094 L 11.058594 20.183594 L 11.449219 20.183594 L 11.449219 15.972656 C 11.445312 15.375 10.941406 15.023438 10.425781 15.023438 M 24.246094 16.128906 L 24.246094 20.214844 L 24.6875 20.214844 L 24.6875 16.128906 Z M 23.628906 16.792969 L 23.628906 20.214844 L 24.070312 20.214844 L 24.070312 16.128906 L 23.382812 16.128906 Z M 26.113281 18.078125 C 26.496094 18.078125 26.4375 18.320312 26.4375 18.570312 L 26.4375 18.996094 C 26.4375 19.097656 26.371094 19.179688 26.285156 19.179688 L 26.226562 19.179688 C 26.140625 19.179688 26.074219 19.097656 26.074219 18.996094 L 26.074219 18.496094 L 25.613281 18.496094 L 25.613281 18.9375 C 25.613281 19.210938 25.613281 19.617188 26.234375 19.617188 C 26.878906 19.617188 26.90625 19.132812 26.90625 19.113281 L 26.90625 18.183594 C 26.90625 17.746094 26.675781 17.707031 26.300781 17.679688 C 26.191406 17.667969 26.074219 17.660156 25.972656 17.632812 C 25.53125 17.511719 25.480469 17.207031 25.457031 17.089844 C 25.445312 17.015625 25.449219 16.410156 25.453125 16.21875 C 25.449219 16.195312 25.433594 15.914062 25.628906 15.703125 C 25.765625 15.554688 25.964844 15.480469 26.230469 15.480469 C 26.507812 15.480469 26.726562 15.5625 26.871094 15.722656 C 27.050781 15.921875 27.070312 16.179688 27.070312 16.277344 C 27.070312 16.296875 27.070312 16.308594 27.070312 16.316406 L 27.070312 16.699219 L 27.542969 16.699219 L 27.542969 16.042969 C 27.542969 15.421875 27.042969 15.007812 26.386719 15.007812 L 26.175781 15.007812 C 25.53125 15.007812 24.945312 15.347656 24.945312 16.058594 L 24.945312 17.015625 C 24.945312 17.71875 25.597656 18.078125 26.113281 18.078125 M 19.652344 16.148438 L 18.058594 16.148438 L 18.277344 16.757812 L 18.277344 20.214844 L 18.640625 20.214844 L 18.640625 16.511719 L 19.589844 16.511719 C 19.929688 16.511719 20.273438 16.75 20.273438 17.183594 L 20.273438 17.621094 C 20.273438 18.054688 19.929688 18.277344 19.589844 18.277344 L 18.820312 18.277344 L 18.820312 20.214844 L 19.230469 20.214844 L 19.230469 18.609375 C 19.230469 18.609375 19.742188 18.597656 19.742188 18.597656 C 20.308594 18.597656 20.613281 18.097656 20.613281 17.621094 L 20.625 17.019531 C 20.625 16.453125 20.121094 16.148438 19.652344 16.148438 M 26.554688 17.109375 L 26.351562 17.097656 C 26.167969 17.097656 26.0625 17.019531 26.0625 16.828125 L 26.0625 16.289062 C 26.0625 16.1875 26.132812 16.105469 26.214844 16.105469 L 26.277344 16.105469 C 26.359375 16.105469 26.425781 16.1875 26.425781 16.289062 L 26.425781 16.699219 L 26.894531 16.699219 L 26.894531 16.304688 C 26.894531 16.300781 26.914062 16.03125 26.742188 15.84375 C 26.628906 15.71875 26.457031 15.65625 26.230469 15.65625 C 26.019531 15.65625 25.859375 15.714844 25.757812 15.824219 C 25.613281 15.980469 25.625 16.203125 25.625 16.203125 L 25.625 16.210938 C 25.625 16.585938 25.625 17.007812 25.632812 17.058594 C 25.648438 17.160156 25.6875 17.371094 26.019531 17.460938 C 26.105469 17.484375 26.207031 17.492188 26.3125 17.5 C 26.636719 17.523438 27.082031 17.558594 27.082031 18.183594 L 27.082031 19.117188 C 27.082031 19.125 27.054688 19.796875 26.234375 19.796875 C 25.4375 19.796875 25.4375 19.195312 25.4375 18.9375 L 25.4375 18.496094 L 24.957031 18.496094 L 24.957031 19.148438 C 24.957031 19.929688 25.550781 20.226562 26.09375 20.226562 L 26.375 20.226562 C 27.054688 20.226562 27.554688 19.804688 27.554688 19.125 L 27.554688 18.109375 C 27.554688 17.371094 27.058594 17.109375 26.554688 17.109375 M 20.78125 16.75 L 20.78125 20.242188 L 21.199219 20.242188 L 21.199219 16.117188 L 20.554688 16.121094 Z M 20.09375 17.621094 L 20.09375 17.183594 C 20.09375 16.855469 19.832031 16.691406 19.589844 16.691406 L 18.820312 16.691406 L 18.820312 18.097656 L 19.589844 18.097656 C 19.832031 18.097656 20.09375 17.949219 20.09375 17.621094 M 19.230469 17.730469 L 19.230469 17.035156 L 19.484375 17.035156 C 19.613281 17.035156 19.714844 17.160156 19.714844 17.3125 L 19.714844 17.449219 C 19.714844 17.605469 19.617188 17.730469 19.484375 17.730469 Z M 22.820312 20.242188 L 23.199219 20.242188 L 23.199219 16.117188 L 22.820312 16.117188 Z M 21.378906 20.242188 L 21.75 20.242188 L 21.75 18.617188 L 22.226562 18.617188 L 22.226562 20.242188 L 22.640625 20.242188 L 22.640625 18.214844 L 21.378906 18.214844 Z M 21.378906 20.242188 "/>
<path style=" stroke:none;fill-rule:nonzero;fill:rgb(38.039216%,53.72549%,72.54902%);fill-opacity:1;" d="M 14.886719 20.207031 L 14.886719 16.519531 L 16.917969 16.523438 C 17.257812 16.523438 17.546875 16.777344 17.546875 17.257812 L 17.546875 20.207031 L 17.367188 20.207031 L 17.367188 17.257812 C 17.367188 16.878906 17.160156 16.703125 16.917969 16.703125 C 16.917969 16.703125 16.65625 16.703125 16.324219 16.703125 L 16.324219 20.203125 L 16.144531 20.203125 L 16.144531 16.703125 C 15.675781 16.699219 15.15625 16.699219 15.066406 16.699219 L 15.066406 20.207031 Z M 14.097656 16.757812 L 12.480469 16.757812 L 12.480469 18.074219 L 13.652344 18.074219 L 13.652344 18.253906 L 12.480469 18.253906 L 12.480469 19.582031 C 12.625 19.582031 13.835938 19.582031 14.097656 19.578125 L 14.097656 19.757812 L 12.300781 19.761719 L 12.300781 16.578125 L 14.097656 16.578125 Z M 8.128906 20.183594 L 8.128906 15.441406 L 10.359375 15.445312 C 10.726562 15.445312 11.058594 15.722656 11.058594 16.246094 L 11.058594 20.183594 L 10.878906 20.183594 L 10.878906 16.246094 C 10.878906 15.839844 10.636719 15.625 10.359375 15.625 C 10.359375 15.625 10.0625 15.625 9.691406 15.625 L 9.691406 20.179688 L 9.511719 20.179688 L 9.511719 15.625 C 8.988281 15.621094 8.398438 15.621094 8.308594 15.621094 L 8.308594 20.183594 Z M 24.070312 16.128906 L 24.246094 16.128906 L 24.246094 20.214844 L 24.070312 20.214844 Z M 18.640625 20.214844 L 18.640625 16.511719 L 19.589844 16.511719 C 19.929688 16.511719 20.273438 16.75 20.273438 17.183594 L 20.273438 17.621094 C 20.273438 18.054688 19.929688 18.277344 19.589844 18.277344 L 18.820312 18.277344 L 18.820312 20.214844 Z M 25.613281 18.496094 L 25.613281 18.9375 C 25.613281 19.210938 25.613281 19.617188 26.234375 19.617188 C 26.878906 19.617188 26.90625 19.132812 26.90625 19.113281 L 26.90625 18.183594 C 26.90625 17.746094 26.675781 17.707031 26.300781 17.679688 C 26.191406 17.667969 26.074219 17.660156 25.972656 17.632812 C 25.53125 17.511719 25.480469 17.207031 25.457031 17.089844 C 25.445312 17.015625 25.449219 16.410156 25.453125 16.21875 C 25.449219 16.195312 25.433594 15.914062 25.628906 15.703125 C 25.765625 15.554688 25.964844 15.480469 26.230469 15.480469 C 26.507812 15.480469 26.726562 15.5625 26.871094 15.722656 C 27.054688 15.921875 27.070312 16.179688 27.070312 16.277344 C 27.070312 16.296875 27.070312 16.308594 27.070312 16.316406 L 27.070312 16.699219 L 26.894531 16.699219 L 26.894531 16.304688 C 26.894531 16.300781 26.914062 16.03125 26.742188 15.84375 C 26.628906 15.71875 26.457031 15.65625 26.230469 15.65625 C 26.019531 15.65625 25.859375 15.714844 25.757812 15.824219 C 25.613281 15.980469 25.625 16.203125 25.625 16.203125 L 25.625 16.210938 C 25.625 16.585938 25.625 17.007812 25.632812 17.058594 C 25.648438 17.160156 25.6875 17.371094 26.019531 17.460938 C 26.105469 17.484375 26.207031 17.492188 26.3125 17.5 C 26.636719 17.523438 27.082031 17.558594 27.082031 18.183594 L 27.082031 19.117188 C 27.082031 19.125 27.054688 19.796875 26.234375 19.796875 C 25.4375 19.796875 25.4375 19.195312 25.4375 18.9375 L 25.4375 18.496094 Z M 20.09375 17.621094 L 20.09375 17.183594 C 20.09375 16.855469 19.832031 16.691406 19.589844 16.691406 L 18.820312 16.691406 L 18.820312 18.097656 L 19.589844 18.097656 C 19.832031 18.097656 20.09375 17.949219 20.09375 17.621094 M 21.199219 20.242188 L 21.199219 16.117188 L 21.378906 16.117188 L 21.378906 18.039062 L 22.640625 18.039062 L 22.640625 16.117188 L 22.820312 16.117188 L 22.820312 20.242188 L 22.640625 20.242188 L 22.640625 18.214844 L 21.378906 18.214844 L 21.378906 20.242188 Z M 21.199219 20.242188 "/>
<path style=" stroke:none;fill-rule:nonzero;fill:rgb(13.72549%,21.568627%,35.686275%);fill-opacity:1;" d="M 24.664062 3.707031 C 24.597656 3.605469 24.535156 3.515625 24.46875 3.421875 C 26.09375 0.753906 22.253906 -1.289062 20.863281 0.972656 C 19.152344 0.660156 17.71875 1.285156 17.527344 1.375 C 17.335938 1.285156 15.921875 0.667969 14.226562 0.96875 C 12.546875 -1.394531 9.082031 1.046875 10.609375 3.394531 C 10.535156 3.492188 10.464844 3.597656 10.390625 3.707031 C 8.222656 7.011719 9.851562 9.25 9.851562 9.25 L 10.183594 8.914062 C 10.183594 8.914062 10.660156 11.21875 13.167969 12.734375 L 13.257812 12.238281 C 14.800781 13.886719 16.230469 13.847656 17.5625 15.355469 C 18.796875 13.925781 20.585938 13.925781 21.976562 12.144531 L 21.976562 12.777344 C 24.554688 11.523438 24.789062 8.816406 24.789062 8.816406 L 25.027344 9.253906 C 25.027344 9.253906 26.832031 7.011719 24.664062 3.707031 "/>
<path style=" stroke:none;fill-rule:nonzero;fill:rgb(99.215686%,72.156863%,15.294118%);fill-opacity:1;" d="M 19.203125 6.046875 C 19.324219 6.003906 19.535156 6.128906 19.648438 6.351562 C 20.171875 6.199219 20.144531 5.496094 20.140625 5.445312 C 19.726562 5.609375 19.382812 5.886719 19.203125 6.046875 "/>
<path style=" stroke:none;fill-rule:nonzero;fill:rgb(38.039216%,53.72549%,72.54902%);fill-opacity:1;" d="M 17.546875 9.449219 C 17.691406 9.425781 19.980469 9.34375 18.578125 10.765625 C 19.554688 9.46875 17.785156 9.460938 17.546875 9.449219 M 21.507812 2.066406 C 21.507812 2.066406 22.019531 0.78125 23.597656 1.09375 C 23.597656 1.09375 22.148438 0.140625 21.144531 1.863281 C 21.144531 1.863281 19.714844 1.183594 17.558594 2.113281 C 17.558594 2.113281 15.515625 1.402344 13.976562 1.804688 C 13.976562 1.804688 13.082031 0.25 11.816406 0.890625 C 10.554688 1.53125 11.210938 3.015625 11.433594 3.398438 C 11.433594 3.398438 9.335938 5.53125 10.125 8.171875 L 10.546875 7.644531 C 10.546875 7.644531 11.148438 10.519531 12.699219 11.425781 L 12.792969 10.71875 C 12.792969 10.71875 14.414062 12.675781 16.320312 13.503906 C 16.5 13.589844 17.511719 14.089844 17.542969 14.339844 L 17.542969 12.96875 C 17.542969 12.96875 16.21875 13.082031 15.871094 12.46875 C 15.632812 12.054688 14.113281 9.34375 14.867188 6.503906 C 14.867188 6.503906 14.132812 6.394531 13.996094 5.160156 C 13.996094 5.160156 13.449219 4.894531 12.773438 4.949219 C 12.773438 4.949219 13.984375 4.570312 15.121094 5.011719 C 16.257812 5.449219 16.5625 6.570312 17.332031 6.074219 L 17.558594 2.921875 L 17.773438 6.074219 C 18.546875 6.570312 18.847656 5.449219 19.984375 5.011719 C 21.121094 4.570312 22.332031 4.949219 22.332031 4.949219 C 22.332031 4.949219 21.847656 4.609375 21.070312 4.453125 C 20.417969 4.324219 19.460938 4.742188 19.460938 4.742188 C 19.460938 4.742188 19.59375 3.847656 20.027344 3.367188 C 20.402344 2.960938 21.246094 2.867188 21.507812 2.066406 M 11.703125 3.152344 C 11.660156 2.726562 12.203125 2.300781 12.203125 2.300781 C 11.976562 2.066406 11.585938 2.269531 11.585938 2.269531 C 11.941406 1.574219 12.734375 1.914062 12.734375 1.914062 C 12.433594 1.546875 11.796875 1.570312 11.796875 1.570312 C 12.585938 0.789062 13.535156 1.984375 13.535156 1.984375 C 12.6875 2.175781 11.703125 3.152344 11.703125 3.152344 M 20.140625 5.445312 C 20.132812 5.449219 20.128906 5.453125 20.125 5.453125 C 20.128906 5.453125 20.132812 5.449219 20.140625 5.445312 M 19.507812 6.460938 C 20.773438 9.867188 19.164062 12.054688 19.164062 12.054688 C 20.15625 9.457031 19.515625 7.296875 19.082031 6.492188 C 18.859375 6.515625 18.59375 6.503906 18.59375 6.503906 C 18.59375 6.503906 18.925781 6.296875 19.144531 6.097656 C 19.160156 6.082031 19.179688 6.066406 19.203125 6.046875 C 19.324219 6.003906 19.535156 6.128906 19.648438 6.351562 C 20.171875 6.199219 20.144531 5.5 20.140625 5.445312 C 20.292969 5.386719 20.457031 5.34375 20.621094 5.328125 C 20.621094 5.328125 20.503906 6.445312 19.507812 6.460938 "/>
<path style=" stroke:none;fill-rule:nonzero;fill:rgb(99.215686%,72.156863%,15.294118%);fill-opacity:1;" d="M 15.023438 5.445312 C 15.019531 5.496094 14.992188 6.199219 15.515625 6.351562 C 15.625 6.132812 15.828125 6.007812 15.949219 6.042969 C 15.667969 5.828125 15.320312 5.585938 15.023438 5.445312 "/>
<path style=" stroke:none;fill-rule:nonzero;fill:rgb(73.333333%,81.960784%,89.411765%);fill-opacity:1;" d="M 17.542969 12.644531 C 15.949219 12.644531 16.160156 12.292969 16.160156 12.292969 C 16.335938 12.183594 17.453125 12.164062 17.542969 12.164062 C 17.632812 12.164062 18.75 12.183594 18.925781 12.292969 C 18.925781 12.292969 19.140625 12.644531 17.542969 12.644531 M 15.023438 5.445312 L 15.023438 5.445312 M 17.542969 11.167969 L 17.542969 11.8125 L 17.101562 11.835938 C 16.640625 11.851562 16.039062 12.039062 16.039062 12.039062 C 14.917969 9.265625 15.539062 7.167969 15.835938 6.417969 C 14.726562 6.660156 14.546875 5.328125 14.546875 5.328125 C 14.664062 5.304688 14.832031 5.355469 15.023438 5.445312 C 15.019531 5.496094 14.992188 6.199219 15.515625 6.351562 C 15.625 6.132812 15.828125 6.007812 15.949219 6.042969 C 16.03125 6.109375 16.109375 6.171875 16.175781 6.226562 C 16.929688 6.863281 17.515625 6.734375 17.515625 6.734375 C 17.515625 6.734375 17.523438 9.152344 17.523438 9.449219 C 17.523438 9.449219 15.339844 9.277344 16.511719 10.761719 C 16.511719 10.761719 16.703125 10.21875 16.902344 10.390625 C 17.179688 10.628906 17.542969 11.117188 17.542969 11.167969 "/>
<path style=" stroke:none;fill-rule:nonzero;fill:rgb(38.039216%,53.72549%,72.54902%);fill-opacity:1;" d="M 12.65625 22.671875 L 12.628906 22.742188 C 12.601562 22.820312 12.523438 22.867188 12.453125 22.839844 L 12.3125 22.789062 L 12.445312 22.429688 L 12.585938 22.480469 C 12.652344 22.507812 12.683594 22.589844 12.65625 22.671875 M 12.839844 22.054688 L 11.988281 21.746094 L 11.992188 22.105469 L 11.34375 23.890625 L 11.847656 24.074219 L 12.148438 23.242188 L 12.300781 23.296875 C 12.34375 23.3125 12.363281 23.371094 12.34375 23.429688 L 12.078125 24.160156 L 12.578125 24.339844 L 12.851562 23.589844 C 12.894531 23.472656 12.878906 23.363281 12.8125 23.28125 C 12.8125 23.28125 12.980469 23.253906 13.070312 23.003906 L 13.191406 22.695312 C 13.296875 22.402344 13.089844 22.148438 12.839844 22.054688 "/>
<path style=" stroke:none;fill-rule:nonzero;fill:rgb(38.039216%,53.72549%,72.54902%);fill-opacity:1;" d="M 23.25 22.285156 L 23.074219 21.78125 L 21.816406 22.21875 L 22.027344 22.476562 L 22.65625 24.289062 C 22.757812 24.253906 23.8125 23.886719 23.8125 23.886719 L 23.632812 23.382812 L 22.996094 23.605469 C 22.976562 23.554688 22.890625 23.308594 22.890625 23.308594 L 23.300781 23.167969 L 23.125 22.65625 L 22.714844 22.796875 L 22.613281 22.507812 Z M 23.25 22.285156 "/>
<path style=" stroke:none;fill-rule:nonzero;fill:rgb(38.039216%,53.72549%,72.54902%);fill-opacity:1;" d="M 19.726562 24.378906 L 19.558594 22.664062 L 18.886719 22.730469 L 19.054688 23.070312 L 19.234375 24.929688 L 20.550781 24.808594 L 20.503906 24.300781 Z M 19.726562 24.378906 "/>
<path style=" stroke:none;fill-rule:nonzero;fill:rgb(38.039216%,53.72549%,72.54902%);fill-opacity:1;" d="M 13.863281 22.734375 L 13.816406 22.351562 L 14.460938 22.488281 L 14.007812 24.675781 L 13.480469 24.5625 Z M 13.863281 22.734375 "/>
<path style=" stroke:none;fill-rule:nonzero;fill:rgb(38.039216%,53.72549%,72.54902%);fill-opacity:1;" d="M 20.832031 22.824219 L 20.636719 22.496094 L 21.28125 22.359375 L 21.75 24.542969 L 21.222656 24.652344 Z M 20.832031 22.824219 "/>
<path style=" stroke:none;fill-rule:nonzero;fill:rgb(38.039216%,53.72549%,72.54902%);fill-opacity:1;" d="M 16.417969 22.75 L 15.082031 22.609375 L 15.023438 23.226562 L 15.398438 23.132812 L 15.613281 23.15625 L 14.851562 24.824219 L 16.1875 24.957031 L 16.234375 24.453125 L 15.65625 24.394531 Z M 16.417969 22.75 "/>
<path style=" stroke:none;fill-rule:nonzero;fill:rgb(38.039216%,53.72549%,72.54902%);fill-opacity:1;" d="M 18.277344 22.777344 L 16.929688 22.769531 L 16.933594 23.394531 L 17.296875 23.261719 L 17.515625 23.261719 L 16.917969 25 L 18.265625 25 L 18.261719 24.492188 L 17.679688 24.492188 Z M 18.277344 22.777344 "/>
<path style=" stroke:none;fill-rule:nonzero;fill:rgb(38.039216%,53.72549%,72.54902%);fill-opacity:1;" d="M 24.910156 22.511719 L 25.015625 22.667969 C 25.042969 22.707031 25.039062 22.753906 25.007812 22.777344 L 24.9375 22.820312 C 24.90625 22.839844 24.863281 22.828125 24.835938 22.789062 L 24.714844 22.601562 L 24.296875 22.878906 L 24.457031 23.125 C 24.648438 23.414062 24.945312 23.378906 25.148438 23.242188 L 25.296875 23.144531 C 25.554688 22.976562 25.632812 22.695312 25.464844 22.441406 L 25.214844 22.0625 C 25.03125 21.785156 24.78125 21.808594 24.59375 21.9375 L 24.46875 22.011719 C 24.402344 22.054688 24.34375 22.054688 24.296875 21.984375 L 24.160156 21.78125 C 24.136719 21.742188 24.140625 21.695312 24.171875 21.671875 L 24.242188 21.628906 C 24.269531 21.609375 24.316406 21.621094 24.339844 21.660156 L 24.445312 21.8125 L 24.863281 21.539062 L 24.695312 21.292969 C 24.542969 21.058594 24.253906 21.03125 24.007812 21.191406 L 23.886719 21.273438 C 23.644531 21.433594 23.511719 21.707031 23.6875 21.972656 L 23.925781 22.328125 C 24.097656 22.589844 24.433594 22.5625 24.625 22.4375 C 24.800781 22.320312 24.851562 22.417969 24.910156 22.511719 "/>
<path style=" stroke:none;fill-rule:nonzero;fill:rgb(38.039216%,53.72549%,72.54902%);fill-opacity:1;" d="M 10.632812 23.125 C 10.453125 23.390625 10.132812 23.40625 9.914062 23.257812 L 9.691406 23.105469 C 9.472656 22.960938 9.363281 22.660156 9.542969 22.390625 L 10.277344 21.292969 C 10.457031 21.023438 10.777344 21.007812 10.996094 21.15625 L 11.222656 21.308594 C 11.441406 21.453125 11.550781 21.753906 11.371094 22.023438 L 11.226562 22.242188 L 10.777344 21.945312 L 10.871094 21.808594 C 10.902344 21.757812 10.902344 21.695312 10.867188 21.671875 L 10.792969 21.625 C 10.757812 21.601562 10.703125 21.621094 10.667969 21.671875 C 10.667969 21.671875 10.632812 21.726562 10.578125 21.808594 C 10.476562 21.957031 10.042969 22.605469 10.042969 22.605469 C 10.007812 22.660156 10.011719 22.71875 10.046875 22.742188 L 10.117188 22.792969 C 10.152344 22.816406 10.210938 22.792969 10.246094 22.742188 L 10.410156 22.5 L 10.332031 22.449219 L 10.539062 22.140625 L 11.0625 22.488281 Z M 10.632812 23.125 "/>
</g>
</svg>
