<?xml version="1.0" encoding="UTF-8"?>
<svg xmlns="http://www.w3.org/2000/svg" xmlns:xlink="http://www.w3.org/1999/xlink" width="28pt" height="20pt" viewBox="0 0 28 20" version="1.1">
<g id="surface1">
<path style=" stroke:none;fill-rule:nonzero;fill:rgb(10.980392%,14.509804%,14.117647%);fill-opacity:1;" d="M 20.910156 4.777344 C 20.363281 4.183594 19.179688 3.703125 17.640625 3.40625 C 17.640625 3.234375 17.75 3.15625 17.949219 3.035156 C 18.042969 2.957031 18.152344 2.878906 18.277344 2.769531 C 18.761719 2.300781 18.183594 1.585938 18.152344 1.554688 L 17.84375 1.164062 L 17.917969 1.664062 C 17.964844 2.007812 17.84375 2.128906 17.46875 2.378906 C 17.421875 2.425781 17.390625 2.457031 17.34375 2.488281 C 17.359375 2.269531 17.375 2.007812 17.296875 1.695312 C 17.21875 1.367188 17.0625 1.242188 17.0625 1.242188 L 17.03125 1.710938 C 17.015625 1.710938 16.984375 2.070312 16.503906 2.503906 C 16.550781 2.457031 16.597656 2.410156 16.628906 2.363281 C 16.863281 2.023438 16.800781 1.632812 16.707031 1.179688 L 16.691406 1.085938 C 16.613281 0.621094 16.738281 0.324219 16.816406 0.277344 C 16.90625 0.183594 17.0625 0.015625 17.0625 0.015625 C 17.0625 0.015625 16.96875 -0.015625 16.738281 0.015625 C 16.441406 0.0585938 15.941406 0.230469 15.957031 0.636719 C 15.957031 0.824219 16.019531 0.996094 16.066406 1.148438 C 16.128906 1.304688 16.175781 1.460938 16.128906 1.539062 C 16.097656 1.601562 15.988281 1.648438 15.804688 1.679688 C 15.101562 1.804688 14.558594 2.144531 14.292969 2.613281 C 14.199219 2.769531 14.136719 2.925781 14.105469 3.113281 C 12.363281 3.113281 10.699219 3.328125 9.421875 3.734375 C 7.988281 4.167969 7.195312 4.777344 7.132812 5.476562 C 7.085938 5.851562 7.257812 6.378906 8.191406 6.894531 L 8.175781 6.894531 L 8.441406 7.019531 L 8.582031 7.097656 C 9 7.28125 9.5 7.4375 10.058594 7.578125 C 9.855469 7.6875 9.683594 7.8125 9.515625 7.96875 C 8.625 8.699219 8.113281 9.789062 8.113281 10.957031 C 8.113281 11.984375 8.503906 12.949219 9.234375 13.679688 C 9.964844 14.410156 10.945312 14.816406 11.972656 14.816406 C 13.792969 14.816406 15.382812 13.523438 15.757812 11.734375 C 16.066406 10.800781 16.035156 9.804688 16.019531 9.414062 C 15.988281 8.558594 16.410156 8.09375 16.675781 7.875 C 17.90625 7.71875 18.976562 7.453125 19.789062 7.097656 L 19.914062 7.035156 L 20.191406 6.894531 C 20.832031 6.535156 21.203125 6.101562 21.234375 5.648438 C 21.265625 5.351562 21.15625 5.058594 20.910156 4.777344 Z M 19.648438 5.539062 C 19.757812 5.648438 19.757812 5.726562 19.757812 5.757812 C 19.742188 5.898438 19.570312 6.070312 19.273438 6.222656 C 18.652344 6.535156 17.59375 6.785156 16.347656 6.910156 C 16.394531 6.878906 16.457031 6.847656 16.519531 6.816406 L 16.550781 6.816406 C 16.90625 6.660156 17.3125 6.503906 17.328125 5.898438 C 17.34375 5.804688 17.34375 5.523438 17.390625 5.414062 C 17.46875 5.273438 17.640625 5.074219 17.78125 5.011719 C 17.796875 5.011719 17.53125 4.964844 17.53125 4.964844 C 17.515625 4.964844 17.5 4.964844 17.5 4.964844 C 17.578125 4.902344 17.640625 4.824219 17.6875 4.746094 C 18.699219 4.964844 19.398438 5.242188 19.648438 5.539062 Z M 8.613281 5.679688 C 8.660156 5.179688 10.433594 4.542969 13.3125 4.433594 C 13.046875 4.636719 12.722656 4.980469 12.644531 5.539062 L 12.613281 5.757812 C 12.597656 5.898438 12.582031 6.023438 12.519531 6.164062 C 12.410156 6.441406 12.097656 6.691406 11.769531 6.863281 C 10.621094 6.722656 9.640625 6.472656 9.078125 6.179688 C 8.765625 6.007812 8.597656 5.820312 8.613281 5.679688 Z M 8.613281 5.679688 "/>
<path style=" stroke:none;fill-rule:nonzero;fill:rgb(96.078431%,59.607843%,7.843137%);fill-opacity:1;" d="M 17.5 3.390625 C 17.53125 3.050781 17.859375 2.972656 18.167969 2.675781 C 18.589844 2.285156 18.058594 1.648438 18.058594 1.648438 C 18.121094 2.082031 17.917969 2.238281 17.546875 2.503906 C 17.4375 2.582031 17.34375 2.691406 17.34375 2.832031 C 17.328125 3.003906 17.3125 3.171875 17.28125 3.34375 C 17.359375 3.359375 17.4375 3.375 17.5 3.390625 Z M 17.5 3.390625 "/>
<path style=" stroke:none;fill-rule:nonzero;fill:rgb(96.078431%,59.607843%,7.843137%);fill-opacity:1;" d="M 16.378906 2.785156 C 16.285156 2.863281 16.191406 2.941406 16.113281 3.003906 C 16.050781 3.066406 15.988281 3.125 15.925781 3.1875 C 16.285156 3.21875 16.644531 3.25 16.96875 3.296875 C 17.1875 2.910156 17.296875 2.472656 17.15625 1.710938 C 17.15625 1.710938 17.125 2.222656 16.378906 2.785156 Z M 16.378906 2.785156 "/>
<path style=" stroke:none;fill-rule:nonzero;fill:rgb(96.078431%,59.607843%,7.843137%);fill-opacity:1;" d="M 14.386719 3.113281 C 14.792969 3.113281 15.195312 3.125 15.585938 3.15625 C 15.601562 3.140625 15.617188 3.125 15.632812 3.113281 C 15.882812 2.832031 16.300781 2.597656 16.503906 2.285156 C 16.722656 1.960938 16.644531 1.570312 16.566406 1.101562 C 16.425781 0.292969 16.769531 0.152344 16.769531 0.152344 C 16.769531 0.152344 16.082031 0.246094 16.097656 0.636719 C 16.113281 1.164062 16.660156 1.664062 15.835938 1.820312 C 14.929688 1.976562 14.371094 2.472656 14.246094 3.113281 C 14.292969 3.113281 14.339844 3.113281 14.386719 3.113281 Z M 14.386719 3.113281 "/>
<path style=" stroke:none;fill-rule:nonzero;fill:rgb(10.980392%,14.509804%,14.117647%);fill-opacity:1;" d="M 10.621094 17.460938 L 11.101562 15.4375 L 10.292969 15.4375 L 9.792969 17.460938 Z M 10.621094 17.460938 "/>
<path style=" stroke:none;fill-rule:nonzero;fill:rgb(10.980392%,14.509804%,14.117647%);fill-opacity:1;" d="M 12.394531 15.9375 L 12.441406 16.761719 L 12.019531 16.761719 L 12.457031 17.460938 L 13.1875 17.460938 L 13.078125 15.4375 L 11.847656 15.4375 L 10.851562 17.460938 L 11.632812 17.460938 Z M 12.394531 15.9375 "/>
<path style=" stroke:none;fill-rule:nonzero;fill:rgb(10.980392%,14.509804%,14.117647%);fill-opacity:1;" d="M 10.511719 19.316406 L 10.339844 20 L 11.101562 20 L 11.601562 17.992188 L 10.835938 17.992188 L 10.652344 18.769531 L 10.074219 18.769531 L 10.261719 17.992188 L 9.5 17.992188 L 9 20 L 9.761719 20 L 9.933594 19.316406 Z M 10.511719 19.316406 "/>
<path style=" stroke:none;fill-rule:nonzero;fill:rgb(10.980392%,14.509804%,14.117647%);fill-opacity:1;" d="M 12.332031 19.546875 L 12.394531 19.269531 L 13.328125 19.269531 L 13.453125 18.832031 L 12.503906 18.832031 L 12.566406 18.535156 L 13.515625 18.535156 L 13.671875 17.992188 L 11.941406 17.992188 L 11.445312 20 L 13.15625 20 L 13.28125 19.546875 Z M 12.332031 19.546875 "/>
<path style=" stroke:none;fill-rule:nonzero;fill:rgb(10.980392%,14.509804%,14.117647%);fill-opacity:1;" d="M 17.25 17.460938 L 17.75 15.4375 L 16.921875 15.4375 L 16.425781 17.460938 Z M 17.25 17.460938 "/>
<path style=" stroke:none;fill-rule:nonzero;fill:rgb(10.980392%,14.509804%,14.117647%);fill-opacity:1;" d="M 18.605469 16.996094 C 18.714844 17.152344 18.824219 17.445312 18.324219 17.679688 C 17.734375 17.945312 18.324219 18.613281 17.53125 18.613281 L 17.1875 18.613281 L 16.859375 20 L 16.050781 20 L 16.378906 18.613281 L 15.835938 18.613281 L 16.003906 17.992188 L 17.421875 17.992188 C 18.261719 17.992188 17.671875 17.402344 18.089844 17.324219 C 18.386719 17.277344 18.574219 17.214844 18.605469 16.996094 Z M 18.605469 16.996094 "/>
<path style=" stroke:none;fill-rule:nonzero;fill:rgb(10.980392%,14.509804%,14.117647%);fill-opacity:1;" d="M 8.394531 16.480469 L 8.253906 15.4375 L 7.257812 15.4375 L 6.757812 17.460938 L 7.507812 17.460938 L 7.769531 16.40625 L 7.785156 16.40625 L 7.925781 17.460938 L 8.363281 17.460938 L 8.96875 16.40625 L 8.984375 16.40625 L 8.734375 17.460938 L 9.4375 17.460938 L 9.933594 15.4375 L 8.96875 15.4375 Z M 8.394531 16.480469 "/>
<path style=" stroke:none;fill-rule:nonzero;fill:rgb(10.980392%,14.509804%,14.117647%);fill-opacity:1;" d="M 15.039062 16.480469 L 14.898438 15.4375 L 13.902344 15.4375 L 13.40625 17.460938 L 14.152344 17.460938 L 14.417969 16.40625 L 14.433594 16.40625 L 14.574219 17.460938 L 15.007812 17.460938 L 15.617188 16.40625 L 15.632812 16.40625 L 15.382812 17.460938 L 16.082031 17.460938 L 16.582031 15.4375 L 15.617188 15.4375 Z M 15.039062 16.480469 "/>
<path style=" stroke:none;fill-rule:nonzero;fill:rgb(10.980392%,14.509804%,14.117647%);fill-opacity:1;" d="M 14.914062 18.472656 L 14.960938 19.300781 L 14.542969 19.300781 L 14.960938 20 L 15.710938 20 L 15.601562 17.992188 C 15.601562 17.992188 14.355469 17.992188 14.371094 17.992188 C 14.371094 17.992188 13.359375 20 13.375 20 L 14.152344 20 Z M 14.914062 18.472656 "/>
<path style=" stroke:none;fill-rule:nonzero;fill:rgb(74.901961%,18.431373%,21.960784%);fill-opacity:1;" d="M 8.253906 11.222656 C 8.363281 11.734375 8.644531 12.339844 9.21875 12.746094 C 9.40625 12.871094 9.59375 12.964844 9.792969 13.042969 C 9.671875 12.839844 9.53125 12.621094 9.375 12.402344 C 9.09375 12 8.8125 11.5625 8.628906 11.113281 C 8.441406 10.644531 8.394531 10.164062 8.472656 9.664062 C 8.332031 10.070312 8.238281 10.488281 8.238281 10.957031 C 8.238281 11.035156 8.253906 11.128906 8.253906 11.222656 Z M 8.253906 11.222656 "/>
<path style=" stroke:none;fill-rule:nonzero;fill:rgb(74.901961%,18.431373%,21.960784%);fill-opacity:1;" d="M 8.875 11.019531 C 9.046875 11.4375 9.328125 11.859375 9.59375 12.25 C 9.808594 12.558594 10.011719 12.855469 10.152344 13.152344 C 10.324219 13.199219 10.511719 13.230469 10.683594 13.230469 C 10.496094 12.964844 10.339844 12.667969 10.199219 12.324219 C 9.671875 10.988281 9.75 9.335938 10.402344 8.386719 C 10.746094 7.890625 11.164062 7.5625 11.695312 7.265625 C 12.144531 7.019531 12.425781 6.957031 12.722656 6.785156 C 13.03125 6.582031 13.203125 6.269531 13 5.570312 C 12.9375 5.367188 12.921875 5.195312 12.9375 5.074219 C 12.859375 5.210938 12.8125 5.382812 12.785156 5.570312 C 12.753906 5.757812 12.738281 5.976562 12.660156 6.207031 C 12.378906 6.941406 11.023438 7.34375 10.851562 7.390625 C 10.339844 7.546875 9.933594 7.78125 9.609375 8.0625 C 8.691406 8.886719 8.519531 10.117188 8.875 11.019531 Z M 8.875 11.019531 "/>
<path style=" stroke:none;fill-rule:nonzero;fill:rgb(74.901961%,18.431373%,21.960784%);fill-opacity:1;" d="M 14.496094 4.417969 C 14.511719 4.464844 14.527344 4.511719 14.527344 4.558594 C 14.574219 4.808594 14.496094 5.027344 14.183594 5.074219 C 13.855469 5.121094 13.75 4.839844 13.71875 4.621094 C 13.71875 4.527344 13.734375 4.464844 13.734375 4.417969 C 13.6875 4.417969 13.625 4.433594 13.578125 4.433594 C 13.46875 4.480469 13.328125 4.574219 13.203125 4.714844 C 13.140625 4.855469 13.0625 5.042969 13.1875 5.492188 C 13.390625 6.269531 13.296875 6.753906 12.675781 7.019531 C 11.863281 7.375 11.351562 7.578125 10.652344 8.449219 C 10.324219 8.855469 10.136719 9.539062 10.121094 10.242188 C 10.089844 10.910156 10.230469 11.625 10.464844 12.21875 C 10.621094 12.605469 10.804688 12.949219 11.023438 13.246094 C 11.242188 13.230469 11.460938 13.199219 11.679688 13.152344 C 11.429688 12.871094 11.289062 12.527344 11.273438 12.140625 C 11.195312 10.863281 11.878906 10.332031 12.9375 9.476562 L 13.40625 9.074219 C 15.304688 7.46875 14.746094 5.835938 14.960938 4.433594 C 14.808594 4.433594 14.652344 4.433594 14.496094 4.417969 Z M 14.496094 4.417969 "/>
<path style=" stroke:none;fill-rule:nonzero;fill:rgb(74.901961%,18.431373%,21.960784%);fill-opacity:1;" d="M 15.257812 4.449219 C 15.195312 4.730469 15.179688 5.027344 15.164062 5.320312 C 15.085938 6.535156 15.117188 7.921875 13.578125 9.289062 L 13.109375 9.664062 C 12.082031 10.488281 11.492188 11.003906 11.539062 12.125 C 11.554688 12.496094 11.710938 12.824219 11.972656 13.074219 C 12.253906 12.996094 12.535156 12.871094 12.8125 12.714844 C 14.152344 11.953125 14.992188 10.816406 15.320312 9.351562 C 15.523438 8.433594 15.523438 7.6875 15.507812 7.082031 C 15.507812 6.785156 15.554688 6.175781 15.554688 6.175781 C 15.601562 5.804688 15.664062 5.273438 16.097656 4.589844 C 16.113281 4.558594 16.113281 4.542969 16.128906 4.511719 C 15.867188 4.496094 15.570312 4.464844 15.257812 4.449219 Z M 15.257812 4.449219 "/>
<path style=" stroke:none;fill-rule:nonzero;fill:rgb(74.901961%,18.431373%,21.960784%);fill-opacity:1;" d="M 15.710938 8.355469 C 15.664062 8.589844 15.664062 8.824219 15.632812 9.074219 C 15.617188 9.167969 15.601562 9.261719 15.601562 9.335938 C 15.585938 9.367188 15.585938 9.398438 15.585938 9.414062 C 15.242188 10.957031 14.371094 12.140625 12.953125 12.949219 C 12.722656 13.089844 12.472656 13.199219 12.222656 13.277344 C 12.644531 13.554688 13.125 13.632812 13.453125 13.585938 C 14.714844 13.398438 15.335938 12.574219 15.632812 11.6875 C 15.925781 10.785156 15.894531 9.820312 15.882812 9.429688 C 15.835938 8.09375 16.863281 7.59375 16.863281 7.59375 C 16.066406 7.546875 15.804688 7.90625 15.710938 8.355469 Z M 15.710938 8.355469 "/>
<path style=" stroke:none;fill-rule:nonzero;fill:rgb(74.901961%,18.431373%,21.960784%);fill-opacity:1;" d="M 14.867188 13.292969 C 14.355469 13.726562 13.796875 13.820312 13.546875 13.851562 C 13.046875 13.929688 12.457031 13.820312 11.925781 13.398438 L 11.910156 13.382812 C 11.679688 13.445312 11.460938 13.476562 11.242188 13.492188 C 11.757812 14.054688 12.425781 14.347656 13.328125 14.410156 C 13.949219 14.179688 14.480469 13.773438 14.882812 13.277344 Z M 14.867188 13.292969 "/>
<path style=" stroke:none;fill-rule:nonzero;fill:rgb(74.901961%,18.431373%,21.960784%);fill-opacity:1;" d="M 10.167969 14.210938 C 10.167969 13.929688 10.089844 13.648438 9.964844 13.367188 C 9.65625 13.292969 9.359375 13.152344 9.0625 12.980469 C 8.890625 12.871094 8.75 12.714844 8.628906 12.574219 C 8.953125 13.277344 9.5 13.835938 10.167969 14.210938 Z M 10.167969 14.210938 "/>
<path style=" stroke:none;fill-rule:nonzero;fill:rgb(74.901961%,18.431373%,21.960784%);fill-opacity:1;" d="M 12.738281 14.597656 C 12.238281 14.472656 11.800781 14.304688 11.429688 14.007812 C 11.242188 13.867188 11.054688 13.695312 10.898438 13.507812 C 10.699219 13.507812 10.496094 13.492188 10.292969 13.445312 C 10.402344 13.742188 10.464844 14.039062 10.417969 14.335938 C 10.898438 14.550781 11.414062 14.675781 11.972656 14.675781 C 12.238281 14.675781 12.503906 14.644531 12.753906 14.597656 C 12.753906 14.597656 12.753906 14.597656 12.738281 14.597656 Z M 12.738281 14.597656 "/>
<path style=" stroke:none;fill-rule:nonzero;fill:rgb(74.901961%,18.431373%,21.960784%);fill-opacity:1;" d="M 17.078125 5.445312 C 16.984375 5.726562 16.707031 5.695312 16.613281 5.539062 C 16.488281 5.289062 16.535156 5.105469 16.675781 4.964844 C 16.816406 4.839844 17.03125 4.761719 17.25 4.667969 C 17 4.621094 16.738281 4.589844 16.457031 4.558594 C 16.441406 4.558594 16.441406 4.558594 16.441406 4.558594 C 16.410156 4.589844 16.394531 4.621094 16.363281 4.652344 C 15.910156 5.320312 15.867188 5.835938 15.820312 6.207031 L 15.804688 6.332031 C 15.773438 6.535156 15.773438 6.785156 15.789062 7.082031 C 15.789062 7.128906 15.789062 7.175781 15.789062 7.207031 C 15.773438 7.3125 15.773438 7.40625 15.773438 7.515625 C 15.773438 7.46875 15.789062 7.453125 15.789062 7.484375 C 15.910156 7.082031 16.144531 6.832031 16.472656 6.691406 C 16.832031 6.550781 17.171875 6.410156 17.1875 5.898438 C 17.203125 5.679688 17.21875 5.460938 17.265625 5.351562 C 17.359375 5.152344 17.515625 5.105469 17.515625 5.105469 C 17.34375 5.089844 17.15625 5.164062 17.078125 5.445312 Z M 17.078125 5.445312 "/>
<path style=" stroke:none;fill-rule:nonzero;fill:rgb(100%,100%,100%);fill-opacity:1;" d="M 14.386719 3.3125 C 10.605469 3.28125 7.445312 4.261719 7.335938 5.492188 C 7.289062 5.992188 7.738281 6.457031 8.535156 6.832031 C 9.015625 7.066406 9.640625 7.265625 10.355469 7.421875 C 10.511719 7.359375 10.652344 7.3125 10.804688 7.265625 C 10.929688 7.222656 11.164062 7.144531 11.429688 7.035156 C 10.371094 6.878906 9.515625 6.644531 8.984375 6.363281 C 8.597656 6.148438 8.378906 5.914062 8.410156 5.664062 C 8.472656 4.824219 11.117188 4.1875 14.308594 4.214844 C 17.5 4.246094 20.035156 4.949219 19.960938 5.773438 C 19.945312 6.007812 19.726562 6.226562 19.367188 6.410156 C 18.699219 6.753906 17.53125 7.035156 16.097656 7.160156 C 16.050781 7.222656 16.003906 7.296875 15.957031 7.375 C 16.613281 7.128906 17.359375 7.5 17.359375 7.5 C 17.359375 7.5 17.421875 7.515625 17.453125 7.546875 C 18.402344 7.375 19.210938 7.128906 19.820312 6.847656 C 20.550781 6.488281 20.988281 6.085938 21.03125 5.632812 C 21.140625 4.386719 18.152344 3.359375 14.386719 3.3125 Z M 14.386719 3.3125 "/>
</g>
</svg>
