<?xml version="1.0" encoding="UTF-8"?>
<svg xmlns="http://www.w3.org/2000/svg" xmlns:xlink="http://www.w3.org/1999/xlink" width="35pt" height="25pt" viewBox="0 0 35 25" version="1.1">
<g id="surface1">
<path style=" stroke:none;fill-rule:nonzero;fill:rgb(10.980392%,14.509804%,14.117647%);fill-opacity:1;" d="M 26.136719 5.972656 C 25.453125 5.230469 23.976562 4.628906 22.050781 4.257812 C 22.050781 4.042969 22.1875 3.949219 22.4375 3.792969 C 22.554688 3.695312 22.691406 3.597656 22.847656 3.460938 C 23.449219 2.878906 22.730469 1.980469 22.691406 1.945312 L 22.304688 1.457031 L 22.398438 2.078125 C 22.457031 2.507812 22.304688 2.664062 21.835938 2.976562 C 21.777344 3.03125 21.738281 3.070312 21.679688 3.109375 C 21.699219 2.839844 21.71875 2.507812 21.621094 2.117188 C 21.523438 1.710938 21.328125 1.554688 21.328125 1.554688 L 21.289062 2.136719 C 21.269531 2.136719 21.234375 2.585938 20.628906 3.128906 C 20.6875 3.070312 20.746094 3.011719 20.785156 2.953125 C 21.078125 2.527344 21 2.039062 20.882812 1.476562 L 20.863281 1.359375 C 20.765625 0.777344 20.921875 0.40625 21.019531 0.347656 C 21.136719 0.230469 21.328125 0.015625 21.328125 0.015625 C 21.328125 0.015625 21.214844 -0.0234375 20.921875 0.015625 C 20.550781 0.0742188 19.929688 0.289062 19.949219 0.796875 C 19.949219 1.027344 20.027344 1.242188 20.085938 1.4375 C 20.164062 1.632812 20.21875 1.828125 20.164062 1.925781 C 20.125 2 19.988281 2.058594 19.753906 2.097656 C 18.878906 2.253906 18.195312 2.683594 17.867188 3.265625 C 17.75 3.460938 17.671875 3.65625 17.632812 3.890625 C 15.453125 3.890625 13.371094 4.160156 11.777344 4.667969 C 9.984375 5.210938 8.992188 5.972656 8.917969 6.847656 C 8.859375 7.3125 9.070312 7.976562 10.238281 8.617188 L 10.21875 8.617188 L 10.550781 8.773438 L 10.726562 8.871094 C 11.25 9.105469 11.875 9.296875 12.574219 9.472656 C 12.320312 9.609375 12.105469 9.765625 11.894531 9.960938 C 10.785156 10.875 10.140625 12.234375 10.140625 13.695312 C 10.140625 14.980469 10.628906 16.1875 11.542969 17.101562 C 12.457031 18.015625 13.683594 18.519531 14.96875 18.519531 C 17.242188 18.519531 19.226562 16.90625 19.695312 14.667969 C 20.085938 13.5 20.046875 12.253906 20.027344 11.769531 C 19.988281 10.699219 20.511719 10.117188 20.84375 9.84375 C 22.378906 9.648438 23.722656 9.316406 24.734375 8.871094 L 25.242188 8.617188 C 26.039062 8.167969 26.503906 7.625 26.542969 7.0625 C 26.582031 6.691406 26.445312 6.320312 26.136719 5.972656 Z M 24.558594 6.925781 C 24.695312 7.0625 24.695312 7.15625 24.695312 7.195312 C 24.675781 7.371094 24.460938 7.585938 24.09375 7.78125 C 23.3125 8.167969 21.992188 8.480469 20.433594 8.636719 C 20.492188 8.597656 20.570312 8.558594 20.648438 8.519531 L 20.6875 8.519531 C 21.136719 8.324219 21.640625 8.128906 21.660156 7.371094 C 21.679688 7.253906 21.679688 6.90625 21.738281 6.769531 C 21.835938 6.59375 22.050781 6.339844 22.226562 6.261719 C 22.242188 6.261719 21.914062 6.203125 21.914062 6.203125 C 21.894531 6.203125 21.875 6.203125 21.875 6.203125 C 21.972656 6.125 22.050781 6.03125 22.109375 5.933594 C 23.371094 6.203125 24.25 6.554688 24.558594 6.925781 Z M 10.765625 7.097656 C 10.824219 6.476562 13.042969 5.679688 16.640625 5.542969 C 16.308594 5.796875 15.902344 6.222656 15.804688 6.925781 L 15.765625 7.195312 C 15.746094 7.371094 15.726562 7.527344 15.648438 7.703125 C 15.511719 8.054688 15.121094 8.363281 14.714844 8.578125 C 13.273438 8.402344 12.046875 8.09375 11.347656 7.722656 C 10.960938 7.507812 10.746094 7.273438 10.765625 7.097656 Z M 10.765625 7.097656 "/>
<path style=" stroke:none;fill-rule:nonzero;fill:rgb(96.078431%,59.607843%,7.843137%);fill-opacity:1;" d="M 21.875 4.238281 C 21.914062 3.8125 22.320312 3.714844 22.710938 3.34375 C 23.238281 2.859375 22.574219 2.058594 22.574219 2.058594 C 22.652344 2.605469 22.398438 2.800781 21.933594 3.128906 C 21.796875 3.226562 21.679688 3.363281 21.679688 3.539062 C 21.660156 3.753906 21.640625 3.96875 21.601562 4.179688 C 21.699219 4.199219 21.796875 4.21875 21.875 4.238281 Z M 21.875 4.238281 "/>
<path style=" stroke:none;fill-rule:nonzero;fill:rgb(96.078431%,59.607843%,7.843137%);fill-opacity:1;" d="M 20.472656 3.480469 C 20.355469 3.578125 20.242188 3.675781 20.144531 3.753906 C 20.066406 3.832031 19.988281 3.910156 19.910156 3.988281 C 20.355469 4.027344 20.804688 4.0625 21.214844 4.121094 C 21.484375 3.636719 21.621094 3.089844 21.445312 2.136719 C 21.445312 2.136719 21.40625 2.78125 20.472656 3.480469 Z M 20.472656 3.480469 "/>
<path style=" stroke:none;fill-rule:nonzero;fill:rgb(96.078431%,59.607843%,7.843137%);fill-opacity:1;" d="M 17.984375 3.890625 C 18.488281 3.890625 18.996094 3.910156 19.480469 3.949219 C 19.5 3.929688 19.519531 3.910156 19.539062 3.890625 C 19.851562 3.539062 20.375 3.246094 20.628906 2.859375 C 20.902344 2.449219 20.804688 1.964844 20.707031 1.378906 C 20.53125 0.367188 20.960938 0.191406 20.960938 0.191406 C 20.960938 0.191406 20.105469 0.308594 20.125 0.796875 C 20.144531 1.457031 20.824219 2.078125 19.792969 2.273438 C 18.664062 2.46875 17.964844 3.089844 17.808594 3.890625 C 17.867188 3.890625 17.925781 3.890625 17.984375 3.890625 Z M 17.984375 3.890625 "/>
<path style=" stroke:none;fill-rule:nonzero;fill:rgb(10.980392%,14.509804%,14.117647%);fill-opacity:1;" d="M 13.273438 21.828125 L 13.878906 19.300781 L 12.867188 19.300781 L 12.242188 21.828125 Z M 13.273438 21.828125 "/>
<path style=" stroke:none;fill-rule:nonzero;fill:rgb(10.980392%,14.509804%,14.117647%);fill-opacity:1;" d="M 15.492188 19.921875 L 15.550781 20.953125 L 15.027344 20.953125 L 15.570312 21.828125 L 16.484375 21.828125 L 16.347656 19.300781 L 14.8125 19.300781 L 13.566406 21.828125 L 14.539062 21.828125 Z M 15.492188 19.921875 "/>
<path style=" stroke:none;fill-rule:nonzero;fill:rgb(10.980392%,14.509804%,14.117647%);fill-opacity:1;" d="M 13.136719 24.144531 L 12.925781 25 L 13.878906 25 L 14.5 22.488281 L 13.546875 22.488281 L 13.3125 23.460938 L 12.59375 23.460938 L 12.828125 22.488281 L 11.875 22.488281 L 11.25 25 L 12.203125 25 L 12.417969 24.144531 Z M 13.136719 24.144531 "/>
<path style=" stroke:none;fill-rule:nonzero;fill:rgb(10.980392%,14.509804%,14.117647%);fill-opacity:1;" d="M 15.414062 24.4375 L 15.492188 24.085938 L 16.660156 24.085938 L 16.816406 23.539062 L 15.628906 23.539062 L 15.707031 23.171875 L 16.894531 23.171875 L 17.089844 22.488281 L 14.929688 22.488281 L 14.304688 25 L 16.445312 25 L 16.601562 24.4375 Z M 15.414062 24.4375 "/>
<path style=" stroke:none;fill-rule:nonzero;fill:rgb(10.980392%,14.509804%,14.117647%);fill-opacity:1;" d="M 21.5625 21.828125 L 22.1875 19.300781 L 21.15625 19.300781 L 20.53125 21.828125 Z M 21.5625 21.828125 "/>
<path style=" stroke:none;fill-rule:nonzero;fill:rgb(10.980392%,14.509804%,14.117647%);fill-opacity:1;" d="M 23.257812 21.246094 C 23.390625 21.4375 23.527344 21.808594 22.90625 22.101562 C 22.167969 22.429688 22.90625 23.269531 21.914062 23.269531 L 21.484375 23.269531 L 21.078125 25 L 20.066406 25 L 20.472656 23.269531 L 19.792969 23.269531 L 20.007812 22.488281 L 21.777344 22.488281 C 22.828125 22.488281 22.089844 21.75 22.613281 21.652344 C 22.984375 21.59375 23.21875 21.515625 23.257812 21.246094 Z M 23.257812 21.246094 "/>
<path style=" stroke:none;fill-rule:nonzero;fill:rgb(10.980392%,14.509804%,14.117647%);fill-opacity:1;" d="M 10.492188 20.601562 L 10.316406 19.300781 L 9.070312 19.300781 L 8.449219 21.828125 L 9.382812 21.828125 L 9.714844 20.503906 L 9.734375 20.503906 L 9.910156 21.828125 L 10.453125 21.828125 L 11.210938 20.503906 L 11.230469 20.503906 L 10.921875 21.828125 L 11.796875 21.828125 L 12.417969 19.300781 L 11.210938 19.300781 Z M 10.492188 20.601562 "/>
<path style=" stroke:none;fill-rule:nonzero;fill:rgb(10.980392%,14.509804%,14.117647%);fill-opacity:1;" d="M 18.800781 20.601562 L 18.625 19.300781 L 17.378906 19.300781 L 16.757812 21.828125 L 17.691406 21.828125 L 18.023438 20.503906 L 18.042969 20.503906 L 18.214844 21.828125 L 18.761719 21.828125 L 19.519531 20.503906 L 19.539062 20.503906 L 19.226562 21.828125 L 20.105469 21.828125 L 20.726562 19.300781 L 19.519531 19.300781 Z M 18.800781 20.601562 "/>
<path style=" stroke:none;fill-rule:nonzero;fill:rgb(10.980392%,14.509804%,14.117647%);fill-opacity:1;" d="M 18.644531 23.09375 L 18.703125 24.125 L 18.179688 24.125 L 18.703125 25 L 19.636719 25 L 19.5 22.488281 C 19.5 22.488281 17.945312 22.488281 17.964844 22.488281 C 17.964844 22.488281 16.699219 25 16.71875 25 L 17.691406 25 Z M 18.644531 23.09375 "/>
<path style=" stroke:none;fill-rule:nonzero;fill:rgb(74.901961%,18.431373%,21.960784%);fill-opacity:1;" d="M 10.316406 14.027344 C 10.453125 14.667969 10.804688 15.425781 11.523438 15.933594 C 11.757812 16.089844 11.992188 16.207031 12.242188 16.300781 C 12.085938 16.050781 11.914062 15.777344 11.71875 15.503906 C 11.367188 15 11.015625 14.453125 10.785156 13.890625 C 10.550781 13.304688 10.492188 12.703125 10.589844 12.082031 C 10.414062 12.585938 10.296875 13.113281 10.296875 13.695312 C 10.296875 13.792969 10.316406 13.910156 10.316406 14.027344 Z M 10.316406 14.027344 "/>
<path style=" stroke:none;fill-rule:nonzero;fill:rgb(74.901961%,18.431373%,21.960784%);fill-opacity:1;" d="M 11.09375 13.773438 C 11.308594 14.296875 11.660156 14.824219 11.992188 15.308594 C 12.261719 15.699219 12.515625 16.070312 12.691406 16.4375 C 12.90625 16.496094 13.136719 16.535156 13.351562 16.535156 C 13.117188 16.207031 12.925781 15.835938 12.75 15.40625 C 12.085938 13.734375 12.183594 11.671875 13.003906 10.484375 C 13.429688 9.863281 13.957031 9.453125 14.617188 9.085938 C 15.179688 8.773438 15.53125 8.695312 15.902344 8.480469 C 16.289062 8.226562 16.503906 7.839844 16.25 6.964844 C 16.171875 6.710938 16.15625 6.496094 16.171875 6.339844 C 16.078125 6.515625 16.019531 6.730469 15.980469 6.964844 C 15.941406 7.195312 15.921875 7.46875 15.824219 7.761719 C 15.472656 8.675781 13.78125 9.179688 13.566406 9.238281 C 12.925781 9.433594 12.417969 9.726562 12.007812 10.078125 C 10.863281 11.109375 10.648438 12.644531 11.09375 13.773438 Z M 11.09375 13.773438 "/>
<path style=" stroke:none;fill-rule:nonzero;fill:rgb(74.901961%,18.431373%,21.960784%);fill-opacity:1;" d="M 18.121094 5.523438 C 18.140625 5.582031 18.160156 5.640625 18.160156 5.699219 C 18.21875 6.011719 18.121094 6.28125 17.730469 6.339844 C 17.320312 6.398438 17.183594 6.050781 17.148438 5.777344 C 17.148438 5.660156 17.167969 5.582031 17.167969 5.523438 C 17.109375 5.523438 17.03125 5.542969 16.972656 5.542969 C 16.835938 5.601562 16.660156 5.71875 16.503906 5.894531 C 16.425781 6.070312 16.328125 6.300781 16.484375 6.867188 C 16.738281 7.839844 16.621094 8.441406 15.84375 8.773438 C 14.832031 9.21875 14.1875 9.472656 13.3125 10.5625 C 12.90625 11.070312 12.671875 11.925781 12.652344 12.800781 C 12.613281 13.636719 12.789062 14.53125 13.078125 15.273438 C 13.273438 15.757812 13.507812 16.1875 13.78125 16.554688 C 14.054688 16.535156 14.324219 16.496094 14.597656 16.4375 C 14.285156 16.089844 14.109375 15.660156 14.089844 15.175781 C 13.996094 13.578125 14.851562 12.917969 16.171875 11.847656 L 16.757812 11.339844 C 19.132812 9.335938 18.429688 7.292969 18.703125 5.542969 C 18.507812 5.542969 18.3125 5.542969 18.121094 5.523438 Z M 18.121094 5.523438 "/>
<path style=" stroke:none;fill-rule:nonzero;fill:rgb(74.901961%,18.431373%,21.960784%);fill-opacity:1;" d="M 19.074219 5.5625 C 18.996094 5.914062 18.976562 6.28125 18.957031 6.652344 C 18.859375 8.167969 18.898438 9.902344 16.972656 11.613281 L 16.386719 12.082031 C 15.101562 13.113281 14.363281 13.753906 14.421875 15.15625 C 14.441406 15.621094 14.636719 16.03125 14.96875 16.339844 C 15.316406 16.246094 15.667969 16.089844 16.019531 15.894531 C 17.691406 14.941406 18.742188 13.519531 19.152344 11.691406 C 19.402344 10.542969 19.402344 9.609375 19.382812 8.851562 C 19.382812 8.480469 19.441406 7.722656 19.441406 7.722656 C 19.5 7.253906 19.578125 6.59375 20.125 5.738281 C 20.144531 5.699219 20.144531 5.679688 20.164062 5.640625 C 19.832031 5.621094 19.460938 5.582031 19.074219 5.5625 Z M 19.074219 5.5625 "/>
<path style=" stroke:none;fill-rule:nonzero;fill:rgb(74.901961%,18.431373%,21.960784%);fill-opacity:1;" d="M 19.636719 10.445312 C 19.578125 10.738281 19.578125 11.03125 19.539062 11.339844 C 19.519531 11.457031 19.5 11.574219 19.5 11.671875 C 19.480469 11.710938 19.480469 11.75 19.480469 11.769531 C 19.054688 13.695312 17.964844 15.175781 16.191406 16.1875 C 15.902344 16.359375 15.589844 16.496094 15.277344 16.59375 C 15.804688 16.945312 16.40625 17.042969 16.816406 16.984375 C 18.390625 16.75 19.171875 15.71875 19.539062 14.609375 C 19.910156 13.480469 19.871094 12.273438 19.851562 11.789062 C 19.792969 10.117188 21.078125 9.492188 21.078125 9.492188 C 20.085938 9.433594 19.753906 9.882812 19.636719 10.445312 Z M 19.636719 10.445312 "/>
<path style=" stroke:none;fill-rule:nonzero;fill:rgb(74.901961%,18.431373%,21.960784%);fill-opacity:1;" d="M 18.585938 16.613281 C 17.945312 17.160156 17.242188 17.277344 16.933594 17.3125 C 16.308594 17.410156 15.570312 17.273438 14.910156 16.75 L 14.890625 16.730469 C 14.597656 16.808594 14.324219 16.847656 14.054688 16.867188 C 14.695312 17.566406 15.53125 17.9375 16.660156 18.015625 C 17.4375 17.722656 18.101562 17.21875 18.605469 16.59375 Z M 18.585938 16.613281 "/>
<path style=" stroke:none;fill-rule:nonzero;fill:rgb(74.901961%,18.431373%,21.960784%);fill-opacity:1;" d="M 12.710938 17.761719 C 12.710938 17.410156 12.613281 17.0625 12.457031 16.710938 C 12.070312 16.613281 11.699219 16.4375 11.328125 16.226562 C 11.113281 16.089844 10.941406 15.894531 10.785156 15.71875 C 11.191406 16.59375 11.875 17.296875 12.710938 17.761719 Z M 12.710938 17.761719 "/>
<path style=" stroke:none;fill-rule:nonzero;fill:rgb(74.901961%,18.431373%,21.960784%);fill-opacity:1;" d="M 15.921875 18.25 C 15.296875 18.09375 14.753906 17.878906 14.285156 17.507812 C 14.054688 17.332031 13.820312 17.121094 13.625 16.886719 C 13.371094 16.886719 13.117188 16.867188 12.867188 16.808594 C 13.003906 17.179688 13.078125 17.546875 13.023438 17.917969 C 13.625 18.191406 14.265625 18.347656 14.96875 18.347656 C 15.296875 18.347656 15.628906 18.308594 15.941406 18.25 C 15.941406 18.25 15.941406 18.25 15.921875 18.25 Z M 15.921875 18.25 "/>
<path style=" stroke:none;fill-rule:nonzero;fill:rgb(74.901961%,18.431373%,21.960784%);fill-opacity:1;" d="M 21.347656 6.808594 C 21.234375 7.15625 20.882812 7.117188 20.765625 6.925781 C 20.609375 6.613281 20.667969 6.378906 20.84375 6.203125 C 21.019531 6.050781 21.289062 5.953125 21.5625 5.835938 C 21.25 5.777344 20.921875 5.738281 20.570312 5.699219 C 20.550781 5.699219 20.550781 5.699219 20.550781 5.699219 C 20.511719 5.738281 20.492188 5.777344 20.453125 5.816406 C 19.890625 6.652344 19.832031 7.292969 19.773438 7.761719 L 19.753906 7.917969 C 19.714844 8.167969 19.714844 8.480469 19.734375 8.851562 C 19.734375 8.910156 19.734375 8.96875 19.734375 9.007812 C 19.714844 9.144531 19.714844 9.257812 19.714844 9.394531 C 19.714844 9.335938 19.734375 9.316406 19.734375 9.355469 C 19.890625 8.851562 20.183594 8.539062 20.589844 8.363281 C 21.039062 8.1875 21.464844 8.015625 21.484375 7.371094 C 21.503906 7.101562 21.523438 6.828125 21.582031 6.691406 C 21.699219 6.4375 21.894531 6.378906 21.894531 6.378906 C 21.679688 6.359375 21.445312 6.457031 21.347656 6.808594 Z M 21.347656 6.808594 "/>
<path style=" stroke:none;fill-rule:nonzero;fill:rgb(100%,100%,100%);fill-opacity:1;" d="M 17.984375 4.140625 C 13.253906 4.101562 9.304688 5.328125 9.167969 6.867188 C 9.109375 7.488281 9.675781 8.074219 10.667969 8.539062 C 11.269531 8.832031 12.050781 9.085938 12.945312 9.277344 C 13.136719 9.199219 13.3125 9.144531 13.507812 9.085938 C 13.664062 9.027344 13.957031 8.929688 14.285156 8.792969 C 12.964844 8.597656 11.894531 8.304688 11.230469 7.957031 C 10.746094 7.683594 10.472656 7.390625 10.511719 7.082031 C 10.589844 6.03125 13.898438 5.230469 17.886719 5.269531 C 21.875 5.308594 25.046875 6.183594 24.949219 7.214844 C 24.929688 7.507812 24.65625 7.78125 24.210938 8.015625 C 23.371094 8.441406 21.914062 8.792969 20.125 8.949219 C 20.066406 9.027344 20.007812 9.125 19.949219 9.21875 C 20.765625 8.910156 21.699219 9.375 21.699219 9.375 C 21.699219 9.375 21.777344 9.394531 21.816406 9.433594 C 23.003906 9.21875 24.015625 8.910156 24.773438 8.558594 C 25.6875 8.113281 26.234375 7.605469 26.292969 7.042969 C 26.425781 5.484375 22.691406 4.199219 17.984375 4.140625 Z M 17.984375 4.140625 "/>
</g>
</svg>
