<?xml version="1.0" encoding="UTF-8"?>
<svg xmlns="http://www.w3.org/2000/svg" xmlns:xlink="http://www.w3.org/1999/xlink" width="27pt" height="20pt" viewBox="0 0 27 20" version="1.1">
<g id="surface1">
<path style=" stroke:none;fill-rule:nonzero;fill:rgb(0.392157%,0.392157%,0.392157%);fill-opacity:1;" d="M 16.789062 13.679688 C 16.789062 13.851562 16.914062 14.011719 17.066406 14.011719 C 17.21875 14.011719 17.34375 13.851562 17.34375 13.679688 C 17.34375 13.507812 17.21875 13.34375 17.066406 13.34375 C 16.914062 13.34375 16.789062 13.507812 16.789062 13.679688 "/>
<path style=" stroke:none;fill-rule:nonzero;fill:rgb(0.392157%,0.392157%,0.392157%);fill-opacity:1;" d="M 8.90625 15.90625 C 8.898438 15.703125 8.832031 15.644531 8.738281 15.621094 L 8.738281 16.203125 C 8.773438 16.195312 8.804688 16.175781 8.832031 16.152344 C 8.886719 16.101562 8.910156 16.019531 8.90625 15.90625 "/>
<path style=" stroke:none;fill-rule:nonzero;fill:rgb(0.392157%,0.392157%,0.392157%);fill-opacity:1;" d="M 9.433594 16.621094 C 9.574219 16.738281 9.683594 16.886719 9.746094 17.027344 L 9.742188 16.070312 C 9.6875 16.308594 9.554688 16.496094 9.433594 16.621094 "/>
<path style=" stroke:none;fill-rule:nonzero;fill:rgb(0.392157%,0.392157%,0.392157%);fill-opacity:1;" d="M 11.632812 15.191406 L 11.566406 15.660156 L 11.519531 15.976562 L 11.28125 15.765625 L 11.042969 15.5625 L 10.675781 15.558594 C 10.679688 15.738281 10.683594 16.03125 10.683594 16.210938 L 11.609375 16.210938 L 11.492188 16.457031 L 11.234375 17 L 11.167969 17.140625 L 11.019531 17.089844 L 10.683594 16.972656 L 10.675781 17.84375 L 10.964844 17.835938 L 11.445312 17.515625 L 11.714844 17.332031 L 11.714844 18.234375 L 11.769531 18.117188 L 11.75 15.441406 Z M 11.632812 15.191406 "/>
<path style=" stroke:none;fill-rule:nonzero;fill:rgb(0.392157%,0.392157%,0.392157%);fill-opacity:1;" d="M 17.195312 15.742188 C 17.195312 15.742188 17.179688 15.75 17.15625 15.777344 C 17.050781 15.898438 16.933594 16.246094 16.933594 16.730469 C 16.933594 17.382812 17.128906 17.726562 17.195312 17.726562 C 17.226562 17.726562 17.257812 17.699219 17.273438 17.679688 C 17.363281 17.578125 17.460938 17.175781 17.460938 16.730469 C 17.460938 16.246094 17.34375 15.894531 17.238281 15.777344 C 17.214844 15.75 17.199219 15.742188 17.195312 15.742188 "/>
<path style=" stroke:none;fill-rule:nonzero;fill:rgb(0.392157%,0.392157%,0.392157%);fill-opacity:1;" d="M 12.695312 18.140625 L 12.824219 18.398438 L 12.875 18.503906 L 12.910156 18.410156 L 12.996094 18.191406 L 12.683594 17.5625 Z M 12.695312 18.140625 "/>
<path style=" stroke:none;fill-rule:nonzero;fill:rgb(0.392157%,0.392157%,0.392157%);fill-opacity:1;" d="M 12.71875 15.597656 C 12.710938 15.761719 12.703125 16.027344 12.699219 16.207031 C 12.8125 16.148438 12.875 16.019531 12.886719 15.816406 C 12.886719 15.773438 12.863281 15.6875 12.808594 15.640625 C 12.796875 15.628906 12.769531 15.605469 12.71875 15.597656 "/>
<path style=" stroke:none;fill-rule:nonzero;fill:rgb(0.392157%,0.392157%,0.392157%);fill-opacity:1;" d="M 8.820312 17.117188 C 8.792969 17.09375 8.757812 17.082031 8.722656 17.070312 L 8.722656 17.828125 C 8.765625 17.820312 8.800781 17.804688 8.828125 17.785156 C 8.894531 17.726562 8.96875 17.640625 8.976562 17.4375 C 8.984375 17.292969 8.898438 17.171875 8.820312 17.117188 "/>
<path style=" stroke:none;fill-rule:nonzero;fill:rgb(0.392157%,0.392157%,0.392157%);fill-opacity:1;" d="M 5.183594 15.253906 L 5.019531 15.050781 L 4.925781 14.929688 L 4.871094 15.023438 L 4.742188 15.257812 L 4.742188 17.988281 L 4.753906 18.023438 Z M 5.183594 15.253906 "/>
<path style=" stroke:none;fill-rule:nonzero;fill:rgb(0.392157%,0.392157%,0.392157%);fill-opacity:1;" d="M 25.542969 17.964844 C 25.5 18.140625 25.367188 18.664062 24.714844 18.824219 C 24.097656 18.972656 23.652344 18.597656 23.519531 18.464844 L 23.519531 18.644531 L 21.347656 18.644531 L 21.414062 18.421875 L 21.554688 17.972656 L 21.542969 15.515625 L 20.675781 18.730469 L 20.640625 18.867188 L 20.375 18.867188 L 20.339844 18.726562 L 19.4375 15.265625 L 19.273438 15.074219 L 19.171875 15.261719 L 19.171875 17.839844 L 19.203125 17.839844 L 19.683594 17.515625 L 19.957031 17.332031 L 19.957031 18.644531 L 18.039062 18.644531 L 18.113281 18.421875 L 18.253906 17.996094 C 18.25 17.9375 18.25 17.789062 18.25 17.589844 C 18.179688 17.886719 18.066406 18.136719 17.902344 18.316406 C 17.707031 18.535156 17.460938 18.652344 17.183594 18.652344 C 16.90625 18.652344 16.65625 18.535156 16.460938 18.316406 C 16.195312 18.015625 16.050781 17.539062 16.039062 16.9375 L 15.679688 18.71875 L 15.652344 18.867188 L 15.390625 18.867188 L 15.347656 18.742188 L 15 17.765625 L 14.652344 18.742188 L 14.609375 18.867188 L 14.347656 18.867188 L 14.316406 18.71875 L 13.714844 15.816406 C 13.714844 15.914062 13.707031 16.019531 13.691406 16.136719 C 13.640625 16.453125 13.457031 16.671875 13.335938 16.789062 L 14.113281 18.398438 L 14.234375 18.648438 L 11.527344 18.648438 L 11.527344 18.644531 L 9.542969 18.644531 L 9.613281 18.421875 L 9.753906 17.972656 L 9.75 17.898438 C 9.695312 18.058594 9.613281 18.207031 9.5 18.320312 C 9.140625 18.691406 8.570312 18.667969 8.191406 18.652344 C 8.128906 18.652344 8.066406 18.648438 8.019531 18.648438 L 6.925781 18.648438 L 6.910156 18.492188 L 6.796875 17.40625 L 6.441406 18.730469 L 6.40625 18.867188 L 6.140625 18.867188 L 6.105469 18.726562 L 5.773438 17.457031 L 5.667969 18.492188 L 5.652344 18.648438 L 4.324219 18.648438 L 4.324219 18.644531 L 3.609375 18.644531 L 3.683594 18.421875 L 3.824219 17.996094 L 3.808594 15.257812 L 3.785156 15.210938 L 3.773438 15.28125 L 3.730469 15.589844 L 3.492188 15.390625 L 3.152344 15.113281 L 3.125 18.113281 L 3.296875 18.632812 L 3.367188 18.859375 L 1.972656 18.859375 L 2.046875 18.632812 L 2.210938 18.117188 L 2.199219 15.089844 L 2.191406 15.089844 L 1.824219 15.390625 L 1.582031 15.589844 L 1.539062 15.28125 L 1.429688 14.484375 L 1.40625 14.289062 L 3.90625 14.289062 L 3.882812 14.484375 L 3.84375 14.769531 L 6.101562 14.769531 L 6.128906 14.914062 L 6.292969 15.855469 L 6.460938 14.914062 L 6.488281 14.769531 L 7.453125 14.769531 L 7.722656 14.761719 L 7.828125 14.757812 C 8.042969 14.75 8.402344 14.742188 8.625 14.75 C 8.855469 14.757812 9.582031 14.851562 9.742188 15.613281 L 9.738281 15.414062 L 9.570312 15.007812 L 9.46875 14.769531 L 11.691406 14.769531 L 11.691406 14.777344 L 12.683594 14.777344 C 12.921875 14.777344 13.144531 14.832031 13.300781 14.925781 L 13.171875 14.78125 L 14.507812 14.78125 L 14.527344 14.929688 L 14.691406 16.074219 L 14.832031 15.523438 L 14.984375 14.933594 L 15.164062 15.515625 L 15.339844 16.070312 L 15.460938 14.9375 L 15.476562 14.78125 L 16.792969 14.78125 L 16.542969 15.066406 L 16.378906 15.253906 L 16.347656 15.417969 C 16.414062 15.285156 16.492188 15.164062 16.578125 15.070312 C 16.753906 14.867188 16.964844 14.761719 17.183594 14.761719 C 17.667969 14.761719 18.074219 15.296875 18.242188 16.070312 C 18.242188 15.714844 18.242188 15.453125 18.242188 15.449219 L 18.238281 15.273438 L 18.0625 15.050781 L 17.839844 14.769531 L 20.339844 14.769531 L 20.363281 14.914062 L 20.527344 15.90625 L 20.695312 14.914062 L 20.71875 14.769531 L 23.492188 14.769531 L 23.464844 14.964844 L 23.464844 14.96875 C 23.597656 14.621094 23.851562 14.386719 24.199219 14.304688 C 24.921875 14.125 25.414062 14.679688 25.433594 14.703125 L 25.511719 14.789062 L 25.460938 14.894531 L 25.074219 15.664062 L 24.878906 16.054688 L 24.753906 15.636719 L 24.613281 15.1875 C 24.589844 15.164062 24.542969 15.128906 24.480469 15.128906 C 24.386719 15.125 24.339844 15.15625 24.3125 15.238281 C 24.269531 15.371094 24.300781 15.5625 24.34375 15.644531 C 24.421875 15.796875 24.570312 15.933594 24.742188 16.09375 C 24.941406 16.28125 25.171875 16.492188 25.351562 16.789062 C 25.511719 17.050781 25.679688 17.425781 25.542969 17.964844 M 2.871094 12.609375 L 3.992188 10.707031 L 3.617188 10.621094 L 4.875 8.328125 L 5.628906 10.65625 L 5.238281 10.707031 L 5.863281 12.613281 L 4.558594 12.613281 L 4.164062 13.746094 L 2.664062 13.746094 L 3.304688 12.609375 Z M 6.246094 13.089844 L 6.25 13.089844 L 6.554688 13.777344 L 6.871094 13.089844 L 7.128906 14.25 L 6.886719 14.25 L 6.804688 13.726562 L 6.800781 13.726562 L 6.546875 14.269531 L 6.3125 13.726562 L 6.226562 14.25 L 5.980469 14.25 Z M 7.21875 8.574219 L 7.792969 10.347656 L 7.496094 10.386719 L 8.011719 11.839844 L 7.617188 11.839844 L 7.785156 12.605469 L 7.441406 12.605469 L 6.488281 11.019531 C 6.488281 11.019531 6.542969 11.011719 6.613281 10.996094 C 6.683594 10.976562 6.765625 10.953125 6.828125 10.914062 L 6.542969 10.394531 L 6.546875 10.386719 L 6.535156 10.382812 L 6.382812 10.101562 Z M 8.335938 14.242188 L 8.09375 14.242188 L 8.09375 13.101562 L 8.335938 13.101562 Z M 9.398438 13.089844 L 9.402344 13.089844 L 10.035156 13.71875 L 10.035156 13.101562 L 10.273438 13.101562 L 10.273438 14.269531 L 10.269531 14.269531 L 9.636719 13.625 L 9.636719 14.242188 L 9.398438 14.242188 Z M 8.449219 10.621094 C 8.449219 10.621094 8.492188 10.617188 8.542969 10.605469 C 8.597656 10.59375 8.65625 10.574219 8.707031 10.542969 L 8.457031 10.085938 L 9.117188 8.882812 L 9.585938 10.335938 L 9.34375 10.371094 L 9.765625 11.5625 L 9.441406 11.5625 L 9.667969 12.605469 L 9.1875 12.605469 L 8.90625 12.074219 C 8.90625 12.074219 8.910156 12.074219 8.917969 12.074219 C 8.972656 12.0625 9.175781 12.027344 9.261719 11.976562 Z M 8.117188 8.089844 C 8.117188 8.089844 8.375 6.769531 9.398438 5.984375 C 9.398438 5.984375 9.585938 5.902344 8.484375 5.882812 C 8.484375 5.882812 8.957031 5.261719 9.738281 4.914062 C 9.738281 4.914062 9.246094 4.832031 8.820312 4.875 C 8.820312 4.875 9.164062 4.21875 10.355469 4.039062 L 10.453125 4.023438 C 10.375 3.886719 10.183594 3.945312 10.109375 3.8125 C 10.066406 3.742188 11.15625 3.480469 11.113281 3.410156 C 11.066406 3.328125 10.148438 3.101562 10.097656 3.019531 C 10.070312 2.972656 10.429688 2.824219 10.402344 2.777344 C 10.378906 2.734375 10.175781 2.625 9.996094 2.503906 C 9.816406 2.382812 9.65625 2.246094 9.636719 2.25 C 9.480469 2.289062 9.6875 3.804688 9.695312 3.886719 C 9.695312 3.894531 9.539062 3.925781 9.539062 3.925781 C 9.453125 3.839844 8.742188 1.738281 8.898438 1.367188 C 8.921875 1.3125 9.015625 1.34375 9.355469 1.601562 C 10.792969 2.6875 12.042969 2.957031 12.042969 2.957031 C 12.078125 2.671875 12.042969 2.277344 12.042969 2.277344 C 12.601562 2.492188 12.925781 3.101562 12.925781 3.101562 L 12.945312 3.046875 C 13.027344 2.796875 13.050781 2.441406 13.050781 2.441406 C 13.324219 2.601562 13.585938 3.03125 13.585938 3.03125 C 13.585938 3.03125 13.671875 3.902344 13.445312 4.367188 C 13.320312 4.628906 12.894531 4.796875 12.511719 4.773438 C 12.511719 4.773438 12.613281 4.910156 12.773438 5.023438 C 12.871094 5.09375 13.054688 5.164062 13.054688 5.164062 C 13.054688 5.164062 12.71875 5.402344 11.949219 5.238281 C 11.882812 5.246094 12.332031 5.683594 12.980469 5.957031 C 13.289062 6.085938 13.445312 6.585938 13.039062 6.589844 C 13.039062 6.589844 13.371094 6.964844 13.402344 7.238281 L 13.453125 7.511719 C 13.328125 7.339844 13.148438 7.28125 13.003906 7.265625 C 12.96875 7.261719 12.9375 7.261719 12.910156 7.261719 L 12.898438 7.261719 C 12.871094 7.261719 12.84375 7.261719 12.824219 7.265625 C 12.804688 7.265625 12.792969 7.269531 12.777344 7.273438 C 12.765625 7.273438 12.757812 7.277344 12.75 7.277344 C 12.734375 7.28125 12.71875 7.289062 12.703125 7.292969 C 12.699219 7.296875 12.691406 7.296875 12.683594 7.300781 C 12.667969 7.308594 12.652344 7.316406 12.640625 7.324219 C 12.636719 7.324219 12.632812 7.324219 12.628906 7.328125 C 12.550781 7.375 12.511719 7.433594 12.511719 7.433594 C 12.625 7.417969 12.691406 7.402344 12.886719 7.46875 C 13.507812 7.675781 13.429688 8.519531 13.46875 8.65625 C 13.46875 8.652344 13.308594 8.539062 13.085938 8.539062 C 13.066406 8.539062 13.046875 8.542969 13.027344 8.546875 C 13.007812 8.550781 12.984375 8.554688 12.964844 8.5625 C 12.960938 8.566406 12.960938 8.566406 12.957031 8.566406 C 12.9375 8.574219 12.917969 8.582031 12.902344 8.59375 C 12.898438 8.59375 12.894531 8.597656 12.890625 8.597656 C 12.875 8.609375 12.859375 8.621094 12.84375 8.632812 C 12.839844 8.636719 12.835938 8.640625 12.828125 8.644531 C 12.816406 8.65625 12.804688 8.667969 12.792969 8.679688 C 12.789062 8.6875 12.78125 8.695312 12.777344 8.703125 C 12.769531 8.714844 12.761719 8.722656 12.753906 8.734375 C 12.746094 8.746094 12.738281 8.757812 12.734375 8.769531 C 12.730469 8.78125 12.722656 8.789062 12.71875 8.796875 C 12.710938 8.8125 12.707031 8.832031 12.703125 8.851562 C 12.703125 8.855469 12.699219 8.859375 12.699219 8.863281 C 12.695312 8.886719 12.691406 8.910156 12.691406 8.933594 C 12.691406 9.027344 12.722656 9.109375 12.761719 9.175781 C 12.800781 9.238281 12.847656 9.289062 12.882812 9.324219 C 12.925781 9.367188 12.972656 9.417969 12.972656 9.441406 C 12.972656 9.457031 12.957031 9.464844 12.910156 9.453125 C 12.636719 9.386719 12.328125 9.09375 12.304688 8.636719 C 12.289062 8.265625 12.386719 8.074219 12.511719 8.03125 C 12.519531 8.027344 12.53125 8.027344 12.542969 8.023438 C 12.542969 8.023438 12.546875 8.023438 12.546875 8.023438 C 12.765625 7.972656 13.042969 8.152344 13.042969 8.152344 C 13.042969 8.152344 13.011719 8.089844 12.941406 8.019531 C 12.871094 7.949219 12.765625 7.871094 12.609375 7.835938 C 12.542969 7.824219 12.476562 7.824219 12.417969 7.835938 C 12.234375 7.878906 12.09375 8.035156 11.996094 8.257812 C 11.953125 8.351562 11.921875 8.464844 11.90625 8.59375 C 11.902344 8.636719 11.902344 8.679688 11.902344 8.726562 C 11.902344 8.835938 11.917969 8.953125 11.957031 9.078125 C 12.046875 9.378906 12.144531 9.738281 12.25 9.957031 C 12.664062 10.78125 12.683594 11.300781 12.65625 11.78125 C 12.65625 11.796875 12.660156 11.8125 12.660156 11.824219 C 12.660156 11.84375 12.660156 11.859375 12.660156 11.875 C 12.660156 11.890625 12.664062 11.902344 12.664062 11.914062 C 12.667969 11.929688 12.671875 11.949219 12.675781 11.964844 C 12.675781 11.976562 12.679688 11.984375 12.683594 11.996094 C 12.691406 12.011719 12.695312 12.027344 12.703125 12.042969 C 12.707031 12.050781 12.710938 12.0625 12.714844 12.070312 C 12.722656 12.085938 12.730469 12.097656 12.738281 12.109375 C 12.742188 12.121094 12.75 12.125 12.753906 12.132812 C 12.765625 12.148438 12.773438 12.160156 12.785156 12.171875 C 12.792969 12.179688 12.796875 12.183594 12.804688 12.191406 C 12.816406 12.203125 12.828125 12.210938 12.839844 12.222656 C 12.847656 12.226562 12.855469 12.234375 12.859375 12.238281 C 12.875 12.25 12.886719 12.257812 12.902344 12.265625 C 12.910156 12.269531 12.917969 12.273438 12.921875 12.277344 C 12.9375 12.289062 12.957031 12.296875 12.972656 12.304688 C 12.976562 12.308594 12.984375 12.308594 12.992188 12.3125 C 13.011719 12.320312 13.03125 12.328125 13.046875 12.335938 C 13.054688 12.335938 13.058594 12.339844 13.0625 12.339844 C 13.109375 12.355469 13.160156 12.371094 13.210938 12.378906 C 13.21875 12.382812 13.230469 12.382812 13.238281 12.382812 C 13.253906 12.386719 13.269531 12.390625 13.285156 12.390625 C 13.296875 12.394531 13.308594 12.394531 13.320312 12.394531 C 13.332031 12.398438 13.34375 12.398438 13.355469 12.402344 C 13.367188 12.402344 13.382812 12.402344 13.394531 12.402344 C 13.402344 12.402344 13.414062 12.40625 13.421875 12.40625 C 13.4375 12.40625 13.453125 12.40625 13.464844 12.40625 C 13.5 12.410156 13.535156 12.410156 13.566406 12.410156 C 14.070312 12.410156 14.246094 12.121094 14.277344 11.730469 C 14.308594 11.28125 14.234375 10.738281 14.683594 9.945312 C 14.851562 9.648438 14.539062 10.179688 14.519531 11.035156 C 14.5 11.847656 14.515625 12.742188 13.46875 12.761719 C 13.414062 12.765625 13.363281 12.765625 13.304688 12.761719 C 13.304688 12.761719 12.902344 12.757812 12.671875 12.445312 C 12.628906 12.386719 12.597656 12.324219 12.566406 12.253906 C 12.386719 11.839844 12.441406 11.273438 12.335938 10.925781 C 12.238281 10.597656 12.089844 10.296875 11.976562 10.097656 C 11.894531 9.945312 11.832031 9.851562 11.832031 9.847656 L 11.832031 9.851562 C 11.824219 10.007812 11.832031 10.253906 11.960938 10.527344 C 12.097656 10.820312 12.113281 11.148438 12.113281 11.25 C 12.113281 11.253906 12.113281 11.257812 12.113281 11.261719 C 12.113281 11.273438 12.113281 11.28125 12.113281 11.28125 C 11.996094 11.171875 11.820312 11.144531 11.820312 11.144531 C 11.820312 11.148438 11.824219 11.15625 11.828125 11.164062 C 11.871094 11.273438 11.914062 11.488281 11.960938 11.796875 C 11.96875 11.84375 11.972656 11.894531 11.980469 11.945312 C 12.015625 12.1875 12.097656 12.398438 12.160156 12.53125 C 12.171875 12.558594 12.1875 12.585938 12.199219 12.605469 C 12.199219 12.605469 12.199219 12.605469 12.199219 12.609375 L 10.953125 12.609375 L 10.5 11.753906 C 10.5 11.753906 10.503906 11.753906 10.511719 11.753906 C 10.554688 11.746094 10.722656 11.714844 10.792969 11.675781 L 10.125 10.5625 C 10.125 10.5625 10.160156 10.558594 10.203125 10.546875 C 10.246094 10.539062 10.296875 10.523438 10.335938 10.5 L 9.117188 8.273438 L 8.289062 9.78125 L 8.070312 9.386719 L 7.941406 9.132812 C 7.941406 9.132812 8.015625 8.4375 8.117188 8.089844 M 14.875 13.4375 C 14.875 13.214844 15.050781 13.089844 15.226562 13.089844 C 15.339844 13.089844 15.453125 13.136719 15.539062 13.21875 L 15.40625 13.414062 C 15.351562 13.355469 15.308594 13.328125 15.234375 13.328125 C 15.191406 13.328125 15.128906 13.355469 15.128906 13.417969 C 15.128906 13.59375 15.5625 13.480469 15.5625 13.890625 C 15.5625 14.144531 15.390625 14.269531 15.191406 14.269531 C 15.070312 14.269531 14.945312 14.226562 14.855469 14.136719 L 15 13.921875 C 15.042969 13.984375 15.109375 14.011719 15.179688 14.011719 C 15.230469 14.011719 15.308594 13.984375 15.308594 13.914062 C 15.308594 13.734375 14.875 13.839844 14.875 13.4375 M 15.328125 6.191406 L 15.484375 6.085938 C 15.484375 6.085938 15.605469 6.351562 15.328125 6.558594 C 15.035156 6.777344 14.847656 6.460938 14.847656 6.460938 L 14.976562 6.375 C 14.976562 6.375 15.082031 6.472656 15.230469 6.402344 C 15.375 6.335938 15.328125 6.191406 15.328125 6.191406 M 13.914062 11.789062 C 14.136719 11.769531 14.0625 11.429688 14.0625 11.429688 C 14.101562 11.480469 14.167969 11.574219 14.167969 11.742188 C 14.167969 12.015625 14.019531 12.089844 13.988281 12.089844 C 13.957031 12.089844 13.878906 12.035156 13.878906 11.910156 C 13.878906 11.785156 13.914062 11.789062 13.914062 11.789062 M 13 9.777344 C 13.027344 9.710938 13.195312 9.75 13.234375 9.824219 C 13.3125 9.75 13.417969 9.785156 13.46875 9.835938 C 13.515625 9.785156 13.625 9.75 13.703125 9.824219 C 13.738281 9.75 13.90625 9.710938 13.9375 9.777344 C 13.9375 9.777344 13.9375 9.933594 13.835938 10.027344 C 13.835938 10.027344 13.777344 9.902344 13.730469 9.894531 C 13.730469 9.894531 13.632812 10.019531 13.59375 10.066406 L 13.46875 9.914062 L 13.339844 10.066406 C 13.300781 10.019531 13.203125 9.894531 13.203125 9.894531 C 13.15625 9.902344 13.097656 10.027344 13.097656 10.027344 C 13 9.933594 13 9.777344 13 9.777344 M 12.898438 11.429688 C 12.898438 11.429688 12.824219 11.769531 13.042969 11.789062 C 13.042969 11.789062 13.078125 11.785156 13.078125 11.910156 C 13.078125 12.035156 13.003906 12.089844 12.96875 12.089844 C 12.9375 12.089844 12.789062 12.015625 12.789062 11.742188 C 12.789062 11.574219 12.855469 11.480469 12.898438 11.429688 M 12.761719 10.320312 C 12.761719 10.320312 12.617188 10.234375 12.617188 9.972656 C 12.617188 9.632812 12.761719 9.566406 12.761719 9.566406 C 12.820312 9.546875 12.851562 9.578125 12.898438 9.613281 C 12.949219 9.652344 12.96875 9.75 12.96875 9.75 C 12.96875 9.75 12.859375 9.78125 12.78125 9.902344 C 12.703125 10.03125 12.761719 10.320312 12.761719 10.320312 M 13.753906 12.214844 C 13.699219 12.277344 13.625 12.214844 13.625 12.214844 C 13.625 12.214844 13.5625 12.265625 13.476562 12.222656 C 13.394531 12.265625 13.332031 12.214844 13.332031 12.214844 C 13.332031 12.214844 13.257812 12.277344 13.203125 12.214844 C 13.101562 12.09375 13.171875 11.910156 13.171875 11.910156 C 13.171875 11.910156 13.191406 12.109375 13.320312 12.121094 L 13.40625 11.972656 L 13.476562 12.128906 L 13.550781 11.972656 L 13.636719 12.121094 C 13.765625 12.109375 13.785156 11.910156 13.785156 11.910156 C 13.785156 11.910156 13.855469 12.09375 13.753906 12.214844 M 13.488281 11.527344 L 13.488281 11.523438 C 13.097656 11.507812 12.941406 11.121094 12.921875 10.792969 C 12.902344 10.464844 12.972656 10.335938 13.15625 10.328125 C 13.339844 10.316406 13.429688 10.550781 13.4375 10.648438 C 13.449219 10.742188 13.488281 10.832031 13.488281 10.832031 L 13.488281 10.835938 C 13.488281 10.835938 13.527344 10.746094 13.535156 10.648438 C 13.546875 10.554688 13.632812 10.324219 13.820312 10.332031 C 14.003906 10.339844 14.074219 10.46875 14.054688 10.792969 C 14.035156 11.125 13.878906 11.507812 13.488281 11.527344 M 14.152344 9.902344 C 14.074219 9.78125 13.964844 9.75 13.964844 9.75 C 13.964844 9.75 13.984375 9.652344 14.035156 9.613281 C 14.082031 9.578125 14.113281 9.546875 14.171875 9.566406 C 14.171875 9.566406 14.316406 9.632812 14.316406 9.972656 C 14.316406 10.234375 14.171875 10.320312 14.171875 10.320312 C 14.171875 10.320312 14.230469 10.03125 14.152344 9.902344 M 12.207031 13.101562 L 12.207031 14.269531 L 11.570312 13.625 L 11.570312 14.242188 L 11.332031 14.242188 L 11.332031 13.089844 L 11.335938 13.089844 L 11.96875 13.71875 L 11.96875 13.101562 Z M 13.757812 13.550781 L 13.757812 13.789062 L 13.511719 13.789062 L 13.511719 14.003906 L 13.890625 14.003906 L 13.832031 14.242188 L 13.269531 14.242188 L 13.269531 13.117188 L 13.816406 13.117188 L 13.859375 13.355469 L 13.511719 13.355469 L 13.511719 13.550781 Z M 14.753906 5.128906 C 14.777344 5.269531 14.824219 5.410156 14.851562 5.367188 C 14.925781 5.246094 15.386719 5.023438 15.386719 5.023438 C 15.386719 5.023438 15.222656 5.304688 15.292969 5.261719 C 15.394531 5.203125 15.632812 5.324219 15.632812 5.324219 C 14.953125 5.585938 14.417969 5.890625 14.207031 6.289062 C 14.183594 6.101562 14.730469 4.988281 14.753906 5.128906 M 17.582031 13.679688 C 17.582031 14.007812 17.347656 14.269531 17.066406 14.269531 C 16.785156 14.269531 16.550781 14.007812 16.550781 13.679688 C 16.550781 13.351562 16.785156 13.089844 17.066406 13.089844 C 17.347656 13.089844 17.582031 13.351562 17.582031 13.679688 M 18.03125 11.476562 L 17.726562 11.496094 L 17.613281 12.605469 L 16.390625 12.605469 L 16.773438 11.890625 L 16.964844 11.53125 L 16.675781 11.484375 L 17.140625 10.710938 L 17.367188 10.332031 L 17.117188 10.300781 L 17.894531 8.882812 L 18.128906 10.277344 L 17.882812 10.308594 Z M 15.609375 2.996094 C 16.488281 2.707031 17.820312 1.746094 17.832031 1.738281 C 18.238281 1.402344 18.375 1.300781 18.449219 1.335938 C 18.503906 1.359375 18.523438 1.410156 18.523438 1.449219 C 18.523438 1.449219 18.214844 3.058594 17.5625 4.0625 C 17.5625 4.0625 18.136719 4.265625 18.429688 4.738281 C 18.429688 4.738281 17.820312 4.726562 17.519531 4.785156 C 17.832031 4.972656 18.570312 5.644531 18.777344 6.007812 C 18.164062 5.910156 17.535156 5.953125 17.535156 5.953125 C 17.582031 5.996094 17.890625 6.320312 17.941406 6.367188 C 18.535156 6.867188 19.0625 7.628906 19.039062 8.851562 L 18.984375 8.511719 C 18.679688 7.4375 18.128906 6.820312 17.597656 6.371094 C 17.5 6.289062 16.980469 5.882812 16.902344 5.808594 C 16.902344 5.808594 17.273438 5.757812 17.410156 5.738281 C 17.628906 5.699219 18.066406 5.722656 18.289062 5.730469 C 17.902344 5.316406 16.988281 4.707031 16.980469 4.703125 L 16.90625 4.664062 C 17.273438 4.542969 17.957031 4.578125 17.980469 4.582031 C 17.980469 4.582031 17.71875 4.300781 17.304688 4.109375 C 18.003906 3.070312 18.246094 1.664062 18.25 1.664062 C 18.246094 1.664062 18.335938 1.507812 17.933594 1.871094 C 17.894531 1.902344 17.484375 2.246094 16.949219 2.75 L 17.15625 3.070312 C 16.832031 3.152344 16.414062 3.230469 15.988281 3.28125 L 16.515625 3.796875 C 16.027344 3.585938 15.605469 3.25 15.085938 3.191406 C 15.273438 3.121094 15.433594 3.058594 15.609375 2.996094 M 18.515625 13.371094 L 18.574219 13.117188 L 19.234375 13.117188 L 19.234375 13.371094 L 19 13.371094 L 19 14.242188 L 18.761719 14.242188 L 18.761719 13.371094 Z M 19.792969 8.574219 L 20.152344 10.308594 L 19.847656 10.347656 L 20.078125 11.816406 L 19.703125 11.839844 L 19.625 12.605469 L 18.226562 12.605469 L 18.421875 12.242188 L 18.65625 11.800781 L 18.304688 11.75 L 18.871094 10.804688 L 19.144531 10.34375 L 18.84375 10.304688 Z M 21.140625 14.242188 L 20.898438 14.242188 L 20.800781 14.027344 L 20.429688 14.027344 L 20.335938 14.242188 L 20.101562 14.242188 L 20.617188 13.089844 L 20.621094 13.089844 Z M 21.289062 10.648438 L 20.894531 10.597656 L 22.136719 8.328125 L 22.988281 10.65625 L 22.617188 10.707031 C 22.816406 11.125 23.273438 12.152344 23.460938 12.492188 L 23.074219 12.570312 L 23.648438 13.773438 C 23.386719 13.875 23.195312 14.195312 23.195312 14.195312 L 22.671875 14.203125 L 22.054688 12.613281 L 20.207031 12.605469 Z M 25.59375 15.96875 C 25.59375 15.96875 26.242188 14.617188 26.242188 14.613281 C 26.238281 14.609375 26.234375 14.601562 26.234375 14.601562 C 26.234375 14.601562 26.203125 14.5625 26.203125 14.566406 C 26.179688 14.53125 25.578125 13.792969 24.847656 13.699219 L 24.761719 13.691406 L 24.363281 12.945312 L 24.484375 12.921875 C 24.632812 12.890625 24.746094 12.855469 24.804688 12.820312 C 24.804688 12.820312 24.816406 12.8125 24.824219 12.804688 C 24.820312 12.796875 23.765625 11.042969 23.765625 11.042969 L 23.882812 11.011719 C 23.96875 10.988281 24.035156 10.964844 24.074219 10.941406 C 24.074219 10.941406 24.089844 10.9375 24.097656 10.929688 C 24.09375 10.917969 22.125 7.332031 22.117188 7.320312 C 22.101562 7.34375 20.816406 9.6875 20.816406 9.6875 C 20.816406 9.6875 19.785156 7.8125 19.777344 7.796875 C 19.769531 7.8125 19.445312 8.398438 19.445312 8.398438 L 19.402344 8.132812 C 19.367188 7.882812 19.296875 7.652344 19.195312 7.445312 C 19.074219 7.195312 18.878906 6.902344 18.621094 6.582031 L 18.453125 6.378906 L 18.710938 6.4375 C 18.941406 6.488281 19.117188 6.566406 19.136719 6.578125 C 19.136719 6.578125 19.371094 6.6875 19.386719 6.695312 C 19.382812 6.667969 19.332031 6.425781 19.332031 6.425781 C 19.253906 6.03125 19.046875 5.660156 18.714844 5.324219 L 18.492188 5.097656 L 18.933594 5.199219 C 18.933594 5.199219 19.238281 5.289062 19.257812 5.292969 C 19.238281 5.261719 19.089844 5 19.089844 5 C 18.808594 4.511719 18.511719 4.242188 18.304688 4.101562 L 18.246094 4.058594 L 18.273438 3.992188 C 18.75 2.839844 18.988281 1.960938 18.988281 1.371094 C 18.988281 0.886719 18.824219 0.742188 18.753906 0.703125 L 18.71875 0.683594 C 18.71875 0.683594 18.710938 0.679688 18.710938 0.675781 C 18.707031 0.679688 18.65625 0.6875 18.65625 0.6875 C 18.523438 0.71875 18.191406 0.9375 17.460938 1.425781 C 17.074219 1.691406 16.628906 1.988281 16.316406 2.175781 C 15.898438 2.421875 15.59375 2.53125 15.410156 2.578125 L 15.328125 2.597656 L 15.300781 2.519531 C 15.242188 2.363281 15.210938 2.128906 15.199219 1.96875 C 15.199219 1.96875 15.191406 1.746094 15.191406 1.730469 C 15.167969 1.746094 14.988281 1.859375 14.988281 1.859375 C 14.859375 1.941406 14.695312 2.125 14.515625 2.390625 L 14.441406 2.5 L 14.363281 2.394531 C 14.121094 2.058594 13.839844 1.839844 13.828125 1.832031 C 13.828125 1.832031 13.535156 1.605469 13.515625 1.589844 C 13.523438 1.632812 13.609375 1.972656 13.609375 1.972656 L 13.613281 1.976562 L 13.617188 2.039062 L 13.601562 2.320312 L 13.460938 2.214844 C 13.195312 2.015625 12.878906 1.832031 12.84375 1.8125 C 12.84375 1.8125 12.625 1.683594 12.609375 1.671875 C 12.613281 1.703125 12.621094 1.800781 12.621094 1.800781 L 12.65625 2.132812 L 12.492188 2.023438 C 12.117188 1.777344 11.695312 1.644531 11.644531 1.628906 C 11.644531 1.628906 11.390625 1.554688 11.371094 1.546875 C 11.382812 1.578125 11.476562 1.808594 11.476562 1.808594 C 11.519531 1.910156 11.550781 2.046875 11.574219 2.210938 L 11.601562 2.378906 L 11.445312 2.304688 C 10.8125 2.003906 9.648438 1.289062 9.222656 0.980469 C 8.976562 0.804688 8.789062 0.753906 8.644531 0.832031 C 8.453125 0.933594 8.453125 1.199219 8.453125 1.289062 L 8.457031 1.367188 C 8.492188 2.199219 8.945312 3.441406 9.140625 3.933594 L 9.167969 4.007812 L 9.101562 4.046875 C 8.5 4.417969 8.101562 4.953125 8.058594 5.015625 C 8.058594 5.015625 7.902344 5.234375 7.890625 5.25 C 7.921875 5.246094 8.179688 5.230469 8.179688 5.230469 L 8.589844 5.226562 L 8.386719 5.390625 C 7.867188 5.804688 7.613281 6.292969 7.609375 6.296875 C 7.609375 6.296875 7.46875 6.566406 7.457031 6.582031 C 7.492188 6.574219 7.769531 6.492188 7.769531 6.492188 C 7.902344 6.453125 8.042969 6.421875 8.183594 6.40625 L 8.410156 6.378906 L 8.265625 6.554688 C 7.988281 6.886719 7.789062 7.289062 7.675781 7.746094 C 7.644531 7.863281 7.621094 7.988281 7.605469 8.121094 L 7.570312 8.402344 C 7.570312 8.402344 7.242188 7.8125 7.234375 7.796875 C 7.226562 7.8125 6.195312 9.6875 6.195312 9.6875 C 6.195312 9.6875 4.902344 7.332031 4.898438 7.320312 C 4.882812 7.34375 2.917969 10.921875 2.914062 10.929688 C 2.925781 10.9375 2.9375 10.945312 2.9375 10.945312 C 2.976562 10.964844 3.042969 10.988281 3.128906 11.011719 L 3.246094 11.042969 C 3.246094 11.042969 2.191406 12.796875 2.1875 12.804688 C 2.199219 12.8125 2.207031 12.820312 2.207031 12.820312 C 2.265625 12.855469 2.382812 12.890625 2.527344 12.921875 L 2.648438 12.945312 L 2.242188 13.707031 L 0.757812 13.707031 C 0.757812 13.71875 1.195312 16.488281 1.195312 16.5 C 1.214844 16.488281 1.726562 16.152344 1.726562 16.152344 L 1.742188 17.992188 C 1.742188 17.992188 1.277344 19.320312 1.273438 19.332031 L 4.140625 19.332031 C 4.136719 19.3125 4.070312 19.113281 4.070312 19.113281 L 23.675781 19.113281 L 23.695312 19.121094 C 23.835938 19.183594 24.335938 19.386719 24.894531 19.320312 C 25.210938 19.28125 26.238281 19.039062 26.238281 17.464844 C 26.238281 16.773438 25.816406 16.21875 25.632812 16.011719 Z M 25.59375 15.96875 "/>
<path style=" stroke:none;fill-rule:nonzero;fill:rgb(0.392157%,0.392157%,0.392157%);fill-opacity:1;" d="M 20.488281 13.820312 L 20.746094 13.820312 L 20.617188 13.542969 Z M 20.488281 13.820312 "/>
<path style=" stroke:none;fill-rule:nonzero;fill:rgb(0.392157%,0.392157%,0.392157%);fill-opacity:1;" d="M 23.519531 18.105469 L 23.839844 17.464844 L 24.03125 17.074219 L 24.160156 17.488281 L 24.300781 17.933594 C 24.324219 17.957031 24.378906 17.992188 24.445312 18 C 24.511719 18.007812 24.632812 17.917969 24.664062 17.863281 C 24.757812 17.691406 24.683594 17.496094 24.597656 17.324219 C 24.539062 17.210938 24.363281 17.023438 24.1875 16.839844 C 23.964844 16.601562 23.710938 16.332031 23.5625 16.078125 C 23.46875 15.910156 23.410156 15.710938 23.386719 15.519531 L 23.367188 15.660156 L 23.324219 15.972656 L 23.082031 15.765625 L 22.84375 15.5625 L 22.476562 15.558594 C 22.480469 15.738281 22.484375 16.03125 22.488281 16.210938 L 23.410156 16.210938 L 23.296875 16.457031 L 23.039062 17 L 22.972656 17.140625 L 22.820312 17.089844 L 22.488281 16.972656 L 22.476562 17.84375 L 22.769531 17.835938 L 23.246094 17.515625 L 23.519531 17.332031 Z M 23.519531 18.105469 "/>
<path style=" stroke:none;fill-rule:nonzero;fill:rgb(0.392157%,0.392157%,0.392157%);fill-opacity:1;" d="M 7.765625 15.394531 L 7.574219 15.011719 C 7.574219 15.011719 7.566406 14.996094 7.554688 14.976562 L 7.523438 15.03125 L 7.394531 15.242188 L 7.835938 18.097656 Z M 7.765625 15.394531 "/>
<path style=" stroke:none;fill-rule:nonzero;fill:rgb(65.882353%,66.666667%,67.843137%);fill-opacity:1;" d="M 26.238281 17.464844 C 26.238281 19.039062 25.210938 19.28125 24.898438 19.320312 C 24.335938 19.386719 23.835938 19.183594 23.695312 19.121094 L 23.675781 19.113281 L 4.070312 19.113281 C 4.070312 19.113281 4.136719 19.3125 4.140625 19.332031 L 1.273438 19.332031 C 1.277344 19.320312 1.742188 17.992188 1.742188 17.992188 L 1.726562 16.152344 C 1.726562 16.152344 1.214844 16.488281 1.195312 16.5 C 1.191406 16.488281 0.757812 13.71875 0.757812 13.707031 L 2.242188 13.707031 L 2.648438 12.949219 L 2.527344 12.921875 C 2.382812 12.890625 2.265625 12.855469 2.210938 12.820312 C 2.210938 12.820312 2.199219 12.8125 2.1875 12.804688 C 2.191406 12.796875 3.246094 11.042969 3.246094 11.042969 L 3.128906 11.011719 C 3.042969 10.988281 2.976562 10.964844 2.9375 10.945312 C 2.9375 10.945312 2.925781 10.9375 2.914062 10.933594 C 2.917969 10.925781 4.882812 7.34375 4.894531 7.320312 C 4.90625 7.335938 6.199219 9.6875 6.199219 9.6875 C 6.199219 9.6875 7.226562 7.8125 7.234375 7.796875 C 7.242188 7.8125 7.570312 8.402344 7.570312 8.402344 L 7.605469 8.121094 C 7.621094 7.988281 7.644531 7.863281 7.675781 7.746094 C 7.789062 7.289062 7.988281 6.886719 8.265625 6.554688 L 8.410156 6.378906 L 8.183594 6.40625 C 8.042969 6.421875 7.902344 6.453125 7.769531 6.492188 C 7.769531 6.492188 7.492188 6.574219 7.457031 6.582031 C 7.46875 6.566406 7.609375 6.296875 7.609375 6.296875 C 7.613281 6.292969 7.867188 5.804688 8.386719 5.390625 L 8.589844 5.226562 L 8.179688 5.230469 C 8.179688 5.230469 7.921875 5.246094 7.890625 5.25 C 7.902344 5.234375 8.058594 5.015625 8.058594 5.015625 C 8.101562 4.953125 8.5 4.417969 9.101562 4.046875 L 9.167969 4.007812 L 9.140625 3.933594 C 8.949219 3.441406 8.492188 2.199219 8.457031 1.367188 L 8.453125 1.289062 C 8.453125 1.199219 8.453125 0.933594 8.644531 0.832031 C 8.789062 0.753906 8.976562 0.804688 9.222656 0.980469 C 9.648438 1.289062 10.8125 2.003906 11.445312 2.304688 L 11.601562 2.378906 L 11.574219 2.210938 C 11.550781 2.046875 11.515625 1.910156 11.476562 1.8125 C 11.476562 1.8125 11.382812 1.578125 11.371094 1.546875 C 11.390625 1.554688 11.644531 1.628906 11.644531 1.628906 C 11.695312 1.644531 12.117188 1.777344 12.492188 2.023438 L 12.65625 2.132812 L 12.621094 1.800781 C 12.621094 1.800781 12.613281 1.703125 12.609375 1.671875 C 12.625 1.683594 12.84375 1.8125 12.84375 1.8125 C 12.878906 1.832031 13.195312 2.015625 13.460938 2.214844 L 13.601562 2.320312 L 13.617188 2.039062 L 13.613281 1.976562 L 13.609375 1.972656 C 13.609375 1.972656 13.523438 1.632812 13.515625 1.589844 C 13.535156 1.605469 13.828125 1.832031 13.828125 1.832031 C 13.839844 1.839844 14.121094 2.058594 14.363281 2.394531 L 14.441406 2.5 L 14.515625 2.390625 C 14.695312 2.125 14.859375 1.941406 14.988281 1.859375 C 14.988281 1.859375 15.167969 1.746094 15.191406 1.730469 C 15.191406 1.746094 15.199219 1.96875 15.199219 1.96875 C 15.210938 2.128906 15.242188 2.363281 15.300781 2.519531 L 15.328125 2.597656 L 15.410156 2.578125 C 15.59375 2.53125 15.898438 2.421875 16.316406 2.175781 C 16.628906 1.988281 17.070312 1.691406 17.460938 1.425781 C 18.191406 0.9375 18.523438 0.71875 18.65625 0.6875 C 18.65625 0.6875 18.707031 0.679688 18.710938 0.675781 C 18.710938 0.679688 18.71875 0.683594 18.71875 0.683594 L 18.753906 0.703125 C 18.824219 0.742188 18.988281 0.886719 18.988281 1.371094 C 18.988281 1.960938 18.75 2.839844 18.273438 3.992188 L 18.246094 4.058594 L 18.304688 4.101562 C 18.507812 4.242188 18.8125 4.511719 19.089844 5 C 19.089844 5 19.238281 5.261719 19.257812 5.292969 C 19.238281 5.289062 18.933594 5.199219 18.933594 5.199219 L 18.492188 5.097656 L 18.714844 5.324219 C 19.046875 5.660156 19.253906 6.03125 19.332031 6.425781 C 19.332031 6.425781 19.382812 6.667969 19.386719 6.695312 C 19.371094 6.6875 19.136719 6.578125 19.136719 6.578125 C 19.117188 6.566406 18.941406 6.488281 18.710938 6.4375 L 18.453125 6.378906 L 18.621094 6.582031 C 18.878906 6.902344 19.074219 7.195312 19.195312 7.445312 C 19.296875 7.65625 19.363281 7.882812 19.402344 8.132812 L 19.445312 8.398438 C 19.445312 8.398438 19.769531 7.8125 19.777344 7.796875 C 19.785156 7.8125 20.816406 9.6875 20.816406 9.6875 C 20.816406 9.6875 22.101562 7.34375 22.117188 7.320312 C 22.125 7.332031 24.09375 10.917969 24.097656 10.929688 C 24.089844 10.933594 24.074219 10.941406 24.074219 10.941406 C 24.035156 10.964844 23.96875 10.988281 23.882812 11.011719 L 23.765625 11.042969 C 23.765625 11.042969 24.820312 12.796875 24.824219 12.804688 C 24.820312 12.808594 24.804688 12.820312 24.804688 12.820312 C 24.746094 12.855469 24.632812 12.890625 24.484375 12.921875 L 24.363281 12.945312 L 24.761719 13.691406 L 24.847656 13.699219 C 25.578125 13.792969 26.179688 14.53125 26.203125 14.566406 C 26.203125 14.5625 26.234375 14.601562 26.234375 14.601562 C 26.234375 14.601562 26.238281 14.609375 26.242188 14.613281 C 26.242188 14.617188 25.59375 15.96875 25.59375 15.96875 L 25.632812 16.011719 C 25.816406 16.21875 26.238281 16.773438 26.238281 17.464844 M 26.460938 14.589844 L 26.347656 14.449219 C 26.320312 14.417969 25.679688 13.628906 24.878906 13.519531 C 24.863281 13.492188 24.710938 13.203125 24.640625 13.070312 C 24.75 13.042969 24.839844 13.011719 24.898438 12.976562 L 25.078125 12.871094 L 24.972656 12.691406 C 24.972656 12.691406 24.257812 11.503906 24.046875 11.152344 C 24.089844 11.136719 24.128906 11.121094 24.15625 11.109375 C 24.15625 11.105469 24.351562 11.011719 24.351562 11.011719 L 24.25 10.820312 L 22.117188 6.9375 C 22.117188 6.9375 21.082031 8.820312 20.816406 9.304688 C 20.8125 9.296875 19.777344 7.414062 19.777344 7.414062 C 19.777344 7.414062 19.5625 7.804688 19.53125 7.859375 C 19.488281 7.6875 19.4375 7.519531 19.363281 7.367188 C 19.265625 7.164062 19.121094 6.9375 18.941406 6.695312 C 19.007812 6.71875 19.050781 6.738281 19.058594 6.742188 C 19.058594 6.742188 19.261719 6.839844 19.261719 6.839844 L 19.640625 7.023438 L 19.558594 6.609375 C 19.558594 6.609375 19.515625 6.390625 19.515625 6.390625 C 19.445312 6.050781 19.289062 5.726562 19.046875 5.425781 C 19.101562 5.441406 19.644531 5.597656 19.644531 5.597656 L 19.25 4.910156 C 18.980469 4.4375 18.6875 4.15625 18.472656 3.996094 C 18.9375 2.855469 19.171875 1.972656 19.171875 1.371094 C 19.171875 0.8125 18.96875 0.613281 18.847656 0.546875 C 18.847656 0.542969 18.738281 0.484375 18.738281 0.484375 L 18.617188 0.511719 C 18.449219 0.546875 18.15625 0.738281 17.363281 1.273438 C 16.972656 1.539062 16.53125 1.835938 16.21875 2.019531 C 15.867188 2.226562 15.609375 2.328125 15.449219 2.375 C 15.417969 2.253906 15.394531 2.097656 15.386719 1.957031 L 15.375 1.769531 C 15.375 1.765625 15.359375 1.40625 15.359375 1.40625 L 14.890625 1.703125 C 14.757812 1.789062 14.605469 1.953125 14.4375 2.1875 C 14.203125 1.894531 13.972656 1.710938 13.941406 1.6875 C 13.941406 1.6875 13.203125 1.121094 13.203125 1.121094 C 13.203125 1.121094 13.394531 1.867188 13.414062 1.957031 C 13.1875 1.796875 12.96875 1.671875 12.9375 1.652344 L 12.386719 1.332031 C 12.386719 1.332031 12.433594 1.757812 12.433594 1.773438 C 12.097656 1.578125 11.769531 1.476562 11.699219 1.453125 C 11.699219 1.453125 11.058594 1.265625 11.058594 1.265625 L 11.304688 1.878906 C 11.324219 1.925781 11.34375 1.988281 11.359375 2.058594 C 10.722656 1.730469 9.707031 1.105469 9.332031 0.832031 C 9.023438 0.609375 8.769531 0.558594 8.558594 0.671875 C 8.269531 0.824219 8.269531 1.171875 8.269531 1.289062 L 8.273438 1.375 C 8.308594 2.199219 8.734375 3.394531 8.941406 3.933594 C 8.34375 4.320312 7.953125 4.847656 7.90625 4.90625 C 7.90625 4.910156 7.515625 5.457031 7.515625 5.457031 L 7.957031 5.425781 C 7.957031 5.425781 8.015625 5.425781 8.070312 5.421875 C 7.65625 5.808594 7.453125 6.195312 7.445312 6.214844 C 7.445312 6.210938 7.320312 6.445312 7.320312 6.445312 L 7.089844 6.882812 L 7.824219 6.667969 C 7.871094 6.652344 7.925781 6.644531 7.976562 6.632812 C 7.761719 6.945312 7.59375 7.300781 7.496094 7.699219 C 7.484375 7.742188 7.476562 7.792969 7.46875 7.839844 C 7.449219 7.804688 7.234375 7.414062 7.234375 7.414062 C 7.234375 7.414062 6.332031 9.058594 6.199219 9.304688 C 6.152344 9.226562 4.898438 6.9375 4.898438 6.9375 L 4.710938 7.273438 L 2.660156 11.011719 L 2.855469 11.105469 C 2.882812 11.121094 2.921875 11.136719 2.964844 11.152344 C 2.859375 11.328125 1.933594 12.871094 1.933594 12.871094 L 2.113281 12.976562 C 2.171875 13.011719 2.265625 13.042969 2.371094 13.070312 C 2.371094 13.070312 2.171875 13.445312 2.128906 13.527344 L 0.539062 13.527344 L 0.578125 13.765625 L 1.058594 16.8125 C 1.058594 16.8125 1.453125 16.550781 1.546875 16.492188 C 1.546875 16.761719 1.558594 17.9375 1.558594 17.964844 C 1.546875 17.992188 1.011719 19.515625 1.011719 19.515625 L 4.398438 19.515625 C 4.398438 19.515625 4.339844 19.339844 4.324219 19.292969 L 23.636719 19.292969 C 23.808594 19.371094 24.332031 19.574219 24.917969 19.503906 C 25.273438 19.460938 26.425781 19.1875 26.425781 17.464844 C 26.425781 16.753906 26.023438 16.1875 25.8125 15.9375 C 25.855469 15.847656 26.460938 14.589844 26.460938 14.589844 "/>
<path style=" stroke:none;fill-rule:nonzero;fill:rgb(65.882353%,66.666667%,67.843137%);fill-opacity:1;" d="M 8.289062 9.78125 L 9.117188 8.273438 L 10.335938 10.5 C 10.296875 10.523438 10.246094 10.539062 10.203125 10.546875 C 10.160156 10.558594 10.125 10.5625 10.125 10.5625 L 10.792969 11.675781 C 10.722656 11.714844 10.554688 11.746094 10.507812 11.753906 C 10.503906 11.753906 10.5 11.753906 10.5 11.753906 L 10.953125 12.605469 L 12.195312 12.605469 L 11.726562 12.605469 C 11.421875 12.136719 11.523438 11.101562 11.09375 10.214844 C 10.964844 9.949219 10.871094 9.710938 10.808594 9.503906 C 10.671875 9.613281 10.558594 9.730469 10.558594 9.730469 C 10.429688 9.179688 10.546875 8.742188 10.605469 8.566406 C 10.277344 8.695312 10.066406 9.019531 10.066406 9.019531 C 10.066406 9.019531 9.859375 8.570312 10.167969 7.863281 C 10.378906 7.378906 10.789062 7.121094 11.082031 7.023438 C 10.808594 6.898438 10.691406 6.636719 10.65625 6.4375 C 10.585938 6.050781 10.859375 5.429688 10.859375 5.429688 C 11.3125 5.855469 11.902344 6.050781 12.324219 6.371094 C 12.726562 6.679688 12.816406 6.960938 12.816406 6.960938 C 12.816406 6.960938 12.816406 6.960938 12.8125 6.960938 C 12.917969 7.085938 12.988281 7.203125 13.007812 7.265625 C 13.007812 7.265625 13.003906 7.265625 13.003906 7.265625 C 13.148438 7.28125 13.328125 7.339844 13.453125 7.511719 L 13.402344 7.238281 C 13.371094 6.964844 13.039062 6.589844 13.039062 6.589844 C 13.445312 6.585938 13.292969 6.085938 12.980469 5.957031 C 12.332031 5.683594 11.882812 5.246094 11.949219 5.238281 C 12.71875 5.40625 13.054688 5.164062 13.054688 5.164062 C 13.054688 5.164062 12.871094 5.09375 12.773438 5.023438 C 12.617188 4.910156 12.511719 4.773438 12.511719 4.773438 C 12.894531 4.796875 13.320312 4.628906 13.449219 4.367188 C 13.671875 3.902344 13.585938 3.03125 13.585938 3.03125 C 13.585938 3.03125 13.324219 2.601562 13.050781 2.441406 C 13.050781 2.441406 13.027344 2.796875 12.945312 3.046875 L 12.925781 3.101562 C 12.925781 3.101562 12.601562 2.492188 12.042969 2.28125 C 12.042969 2.28125 12.078125 2.671875 12.042969 2.957031 C 12.042969 2.957031 10.792969 2.6875 9.355469 1.601562 C 9.015625 1.34375 8.921875 1.3125 8.898438 1.367188 C 8.746094 1.738281 9.453125 3.84375 9.539062 3.925781 C 9.539062 3.925781 9.699219 3.894531 9.695312 3.886719 C 9.6875 3.804688 9.480469 2.289062 9.640625 2.25 C 9.65625 2.246094 9.816406 2.382812 9.996094 2.503906 C 10.175781 2.625 10.378906 2.734375 10.402344 2.777344 C 10.429688 2.824219 10.070312 2.972656 10.097656 3.019531 C 10.144531 3.101562 11.066406 3.328125 11.113281 3.410156 C 11.15625 3.480469 10.066406 3.742188 10.109375 3.8125 C 10.183594 3.945312 10.375 3.886719 10.453125 4.023438 L 10.355469 4.039062 C 9.164062 4.21875 8.820312 4.875 8.820312 4.875 C 9.246094 4.832031 9.738281 4.914062 9.738281 4.914062 C 8.957031 5.261719 8.484375 5.882812 8.484375 5.882812 C 9.585938 5.902344 9.398438 5.984375 9.398438 5.984375 C 8.375 6.769531 8.117188 8.089844 8.117188 8.089844 C 8.019531 8.4375 7.941406 9.132812 7.941406 9.132812 L 8.070312 9.386719 Z M 8.289062 9.78125 "/>
<path style=" stroke:none;fill-rule:nonzero;fill:rgb(65.882353%,66.666667%,67.843137%);fill-opacity:1;" d="M 13.042969 8.152344 C 13.042969 8.152344 12.765625 7.972656 12.546875 8.023438 C 12.722656 8.058594 12.949219 8.335938 13.027344 8.546875 C 13.046875 8.542969 13.066406 8.539062 13.085938 8.539062 C 13.304688 8.539062 13.46875 8.652344 13.46875 8.65625 C 13.429688 8.519531 13.507812 7.675781 12.886719 7.46875 C 12.691406 7.402344 12.625 7.417969 12.511719 7.433594 C 13.082031 7.554688 13.042969 8.148438 13.042969 8.152344 "/>
<path style=" stroke:none;fill-rule:nonzero;fill:rgb(65.882353%,66.666667%,67.843137%);fill-opacity:1;" d="M 13.554688 12.566406 C 13.550781 12.664062 13.46875 12.761719 13.46875 12.761719 C 14.515625 12.742188 14.5 11.847656 14.519531 11.035156 C 14.539062 10.179688 14.851562 9.648438 14.683594 9.945312 C 14.234375 10.738281 14.308594 11.28125 14.277344 11.730469 C 14.246094 12.121094 14.070312 12.410156 13.566406 12.410156 C 13.535156 12.410156 13.5 12.410156 13.464844 12.40625 C 13.46875 12.40625 13.472656 12.410156 13.476562 12.410156 C 13.476562 12.410156 13.554688 12.488281 13.554688 12.566406 "/>
<path style=" stroke:none;fill-rule:nonzero;fill:rgb(65.882353%,66.666667%,67.843137%);fill-opacity:1;" d="M 15.632812 5.324219 C 15.632812 5.324219 15.394531 5.203125 15.292969 5.261719 C 15.21875 5.304688 15.386719 5.023438 15.386719 5.023438 C 15.386719 5.023438 14.925781 5.246094 14.851562 5.367188 C 14.824219 5.410156 14.777344 5.269531 14.753906 5.128906 C 14.730469 4.988281 14.183594 6.101562 14.207031 6.289062 C 14.417969 5.890625 14.953125 5.585938 15.632812 5.324219 "/>
<path style=" stroke:none;fill-rule:nonzero;fill:rgb(0%,31.764706%,51.372549%);fill-opacity:1;" d="M 15.988281 3.28125 C 16.414062 3.230469 16.832031 3.152344 17.15625 3.070312 L 16.949219 2.75 C 17.484375 2.246094 17.894531 1.902344 17.9375 1.871094 C 18.335938 1.507812 18.25 1.664062 18.25 1.664062 C 18.246094 1.664062 18.003906 3.070312 17.304688 4.109375 C 17.71875 4.300781 17.984375 4.582031 17.984375 4.582031 C 17.957031 4.578125 17.273438 4.542969 16.90625 4.664062 L 16.980469 4.703125 C 16.988281 4.707031 17.902344 5.316406 18.289062 5.730469 C 18.066406 5.722656 17.628906 5.699219 17.410156 5.738281 C 17.273438 5.757812 16.902344 5.808594 16.902344 5.808594 C 16.980469 5.882812 17.5 6.289062 17.597656 6.371094 C 18.128906 6.820312 18.679688 7.4375 18.984375 8.511719 L 19.039062 8.851562 C 19.0625 7.628906 18.535156 6.863281 17.941406 6.367188 C 17.890625 6.320312 17.582031 5.996094 17.535156 5.953125 C 17.535156 5.953125 18.167969 5.910156 18.777344 6.007812 C 18.570312 5.644531 17.828125 4.972656 17.519531 4.785156 C 17.820312 4.726562 18.429688 4.738281 18.429688 4.738281 C 18.136719 4.265625 17.5625 4.0625 17.5625 4.0625 C 18.214844 3.058594 18.523438 1.449219 18.523438 1.449219 C 18.523438 1.410156 18.503906 1.359375 18.449219 1.335938 C 18.375 1.300781 18.238281 1.40625 17.832031 1.738281 C 17.820312 1.746094 16.488281 2.707031 15.609375 2.996094 C 15.433594 3.058594 15.273438 3.121094 15.085938 3.191406 C 15.605469 3.25 16.027344 3.585938 16.515625 3.796875 Z M 15.988281 3.28125 "/>
<path style=" stroke:none;fill-rule:nonzero;fill:rgb(99.215686%,83.529412%,11.372549%);fill-opacity:1;" d="M 15.230469 6.402344 C 15.082031 6.472656 14.976562 6.375 14.976562 6.375 L 14.847656 6.460938 C 14.847656 6.460938 15.035156 6.777344 15.328125 6.558594 C 15.605469 6.351562 15.484375 6.085938 15.484375 6.085938 L 15.328125 6.191406 C 15.328125 6.191406 15.375 6.335938 15.230469 6.402344 "/>
<path style=" stroke:none;fill-rule:nonzero;fill:rgb(100%,100%,100%);fill-opacity:1;" d="M 12.96875 9.75 C 12.96875 9.75 12.949219 9.652344 12.898438 9.613281 C 12.851562 9.578125 12.820312 9.546875 12.761719 9.566406 C 12.761719 9.566406 12.617188 9.632812 12.617188 9.972656 C 12.617188 10.234375 12.761719 10.320312 12.761719 10.320312 C 12.761719 10.320312 12.703125 10.03125 12.78125 9.902344 C 12.859375 9.777344 12.96875 9.75 12.96875 9.75 "/>
<path style=" stroke:none;fill-rule:nonzero;fill:rgb(100%,100%,100%);fill-opacity:1;" d="M 12.96875 12.089844 C 13.003906 12.089844 13.078125 12.035156 13.078125 11.910156 C 13.078125 11.785156 13.042969 11.792969 13.042969 11.792969 C 12.824219 11.769531 12.898438 11.429688 12.898438 11.429688 C 12.855469 11.480469 12.789062 11.574219 12.789062 11.742188 C 12.789062 12.015625 12.9375 12.089844 12.96875 12.089844 "/>
<path style=" stroke:none;fill-rule:nonzero;fill:rgb(100%,100%,100%);fill-opacity:1;" d="M 14.316406 9.972656 C 14.316406 9.632812 14.171875 9.566406 14.171875 9.566406 C 14.113281 9.546875 14.082031 9.574219 14.035156 9.613281 C 13.984375 9.652344 13.964844 9.75 13.964844 9.75 C 13.964844 9.75 14.074219 9.777344 14.152344 9.90625 C 14.230469 10.03125 14.171875 10.320312 14.171875 10.320312 C 14.171875 10.320312 14.316406 10.234375 14.316406 9.972656 "/>
<path style=" stroke:none;fill-rule:nonzero;fill:rgb(100%,100%,100%);fill-opacity:1;" d="M 13.203125 9.894531 C 13.203125 9.894531 13.300781 10.019531 13.339844 10.066406 L 13.46875 9.914062 L 13.59375 10.066406 C 13.632812 10.019531 13.730469 9.894531 13.730469 9.894531 C 13.78125 9.902344 13.839844 10.027344 13.839844 10.027344 C 13.9375 9.933594 13.9375 9.777344 13.9375 9.777344 C 13.90625 9.710938 13.738281 9.75 13.703125 9.824219 C 13.625 9.75 13.515625 9.785156 13.46875 9.835938 C 13.417969 9.785156 13.308594 9.75 13.234375 9.824219 C 13.195312 9.75 13.027344 9.710938 13 9.777344 C 13 9.777344 13 9.933594 13.09375 10.027344 C 13.09375 10.027344 13.15625 9.902344 13.203125 9.894531 "/>
<path style=" stroke:none;fill-rule:nonzero;fill:rgb(100%,100%,100%);fill-opacity:1;" d="M 13.636719 12.121094 L 13.550781 11.972656 L 13.476562 12.128906 L 13.40625 11.972656 L 13.320312 12.121094 C 13.191406 12.109375 13.171875 11.910156 13.171875 11.910156 C 13.171875 11.910156 13.101562 12.09375 13.203125 12.214844 C 13.257812 12.277344 13.332031 12.214844 13.332031 12.214844 C 13.332031 12.214844 13.394531 12.265625 13.476562 12.222656 C 13.5625 12.265625 13.625 12.214844 13.625 12.214844 C 13.625 12.214844 13.699219 12.277344 13.753906 12.214844 C 13.855469 12.09375 13.785156 11.910156 13.785156 11.910156 C 13.785156 11.910156 13.765625 12.109375 13.636719 12.121094 "/>
<path style=" stroke:none;fill-rule:nonzero;fill:rgb(100%,100%,100%);fill-opacity:1;" d="M 13.988281 12.089844 C 14.019531 12.089844 14.167969 12.015625 14.167969 11.742188 C 14.167969 11.574219 14.101562 11.480469 14.0625 11.429688 C 14.0625 11.429688 14.136719 11.769531 13.914062 11.792969 C 13.914062 11.792969 13.878906 11.785156 13.878906 11.910156 C 13.878906 12.035156 13.957031 12.089844 13.988281 12.089844 "/>
<path style=" stroke:none;fill-rule:nonzero;fill:rgb(65.882353%,66.666667%,67.843137%);fill-opacity:1;" d="M 13.859375 13.355469 L 13.816406 13.117188 L 13.269531 13.117188 L 13.269531 14.242188 L 13.828125 14.242188 L 13.890625 14.003906 L 13.511719 14.003906 L 13.511719 13.789062 L 13.761719 13.789062 L 13.761719 13.550781 L 13.511719 13.550781 L 13.511719 13.355469 Z M 13.859375 13.355469 "/>
<path style=" stroke:none;fill-rule:nonzero;fill:rgb(65.882353%,66.666667%,67.843137%);fill-opacity:1;" d="M 11.335938 13.089844 L 11.332031 13.089844 L 11.332031 14.242188 L 11.570312 14.242188 L 11.570312 13.625 L 12.207031 14.269531 L 12.207031 13.101562 L 11.96875 13.101562 L 11.96875 13.71875 Z M 11.335938 13.089844 "/>
<path style=" stroke:none;fill-rule:nonzero;fill:rgb(65.882353%,66.666667%,67.843137%);fill-opacity:1;" d="M 15.179688 14.011719 C 15.109375 14.011719 15.042969 13.984375 15 13.921875 L 14.855469 14.136719 C 14.945312 14.226562 15.070312 14.269531 15.191406 14.269531 C 15.390625 14.269531 15.5625 14.144531 15.5625 13.890625 C 15.5625 13.480469 15.128906 13.59375 15.128906 13.417969 C 15.128906 13.355469 15.191406 13.328125 15.234375 13.328125 C 15.308594 13.328125 15.351562 13.355469 15.40625 13.414062 L 15.539062 13.21875 C 15.453125 13.136719 15.339844 13.089844 15.226562 13.089844 C 15.050781 13.089844 14.875 13.214844 14.875 13.4375 C 14.875 13.839844 15.308594 13.734375 15.308594 13.914062 C 15.308594 13.984375 15.230469 14.011719 15.179688 14.011719 "/>
<path style=" stroke:none;fill-rule:nonzero;fill:rgb(65.882353%,66.666667%,67.843137%);fill-opacity:1;" d="M 9.636719 13.625 L 10.269531 14.269531 L 10.273438 14.269531 L 10.273438 13.101562 L 10.035156 13.101562 L 10.035156 13.71875 L 9.402344 13.089844 L 9.398438 13.089844 L 9.398438 14.242188 L 9.636719 14.242188 Z M 9.636719 13.625 "/>
<path style=" stroke:none;fill-rule:nonzero;fill:rgb(65.882353%,66.666667%,67.843137%);fill-opacity:1;" d="M 17.339844 13.679688 C 17.339844 13.851562 17.21875 14.011719 17.066406 14.011719 C 16.914062 14.011719 16.789062 13.851562 16.789062 13.679688 C 16.789062 13.507812 16.914062 13.34375 17.066406 13.34375 C 17.21875 13.34375 17.339844 13.507812 17.339844 13.679688 M 16.550781 13.679688 C 16.550781 14.007812 16.78125 14.269531 17.066406 14.269531 C 17.347656 14.269531 17.582031 14.007812 17.582031 13.679688 C 17.582031 13.351562 17.347656 13.089844 17.066406 13.089844 C 16.78125 13.089844 16.550781 13.351562 16.550781 13.679688 "/>
<path style=" stroke:none;fill-rule:nonzero;fill:rgb(65.882353%,66.666667%,67.843137%);fill-opacity:1;" d="M 6.3125 13.726562 L 6.542969 14.269531 L 6.546875 14.269531 L 6.800781 13.726562 L 6.804688 13.726562 L 6.886719 14.25 L 7.128906 14.25 L 6.871094 13.089844 L 6.554688 13.777344 L 6.25 13.089844 L 6.246094 13.089844 L 5.984375 14.25 L 6.226562 14.25 Z M 6.3125 13.726562 "/>
<path style=" stroke:none;fill-rule:nonzero;fill:rgb(65.882353%,66.666667%,67.843137%);fill-opacity:1;" d="M 19.003906 14.242188 L 19.003906 13.371094 L 19.234375 13.371094 L 19.234375 13.117188 L 18.574219 13.117188 L 18.515625 13.371094 L 18.761719 13.371094 L 18.761719 14.242188 Z M 19.003906 14.242188 "/>
<path style=" stroke:none;fill-rule:nonzero;fill:rgb(65.882353%,66.666667%,67.843137%);fill-opacity:1;" d="M 8.09375 13.101562 L 8.335938 13.101562 L 8.335938 14.242188 L 8.09375 14.242188 Z M 8.09375 13.101562 "/>
<path style=" stroke:none;fill-rule:nonzero;fill:rgb(65.882353%,66.666667%,67.843137%);fill-opacity:1;" d="M 20.746094 13.820312 L 20.488281 13.820312 L 20.617188 13.542969 Z M 20.101562 14.242188 L 20.335938 14.242188 L 20.429688 14.027344 L 20.800781 14.027344 L 20.898438 14.242188 L 21.140625 14.242188 L 20.621094 13.089844 L 20.617188 13.089844 Z M 20.101562 14.242188 "/>
<path style=" stroke:none;fill-rule:nonzero;fill:rgb(100%,100%,100%);fill-opacity:1;" d="M 12.8125 6.960938 C 12.796875 6.949219 12.667969 6.871094 12.527344 6.808594 C 12.4375 6.769531 12.339844 6.738281 12.273438 6.742188 C 12.089844 6.75 11.976562 6.945312 11.527344 6.785156 C 11.152344 6.652344 11.132812 6.261719 11.15625 6.042969 C 11.167969 5.964844 11.070312 5.863281 11.007812 5.773438 C 10.925781 5.652344 10.867188 5.457031 10.859375 5.433594 C 10.859375 5.429688 10.859375 5.429688 10.859375 5.429688 C 10.859375 5.429688 10.585938 6.050781 10.65625 6.441406 C 10.691406 6.636719 10.808594 6.898438 11.082031 7.023438 C 10.789062 7.121094 10.378906 7.378906 10.167969 7.863281 C 9.859375 8.574219 10.066406 9.019531 10.066406 9.019531 C 10.066406 9.019531 10.277344 8.695312 10.605469 8.566406 C 10.546875 8.742188 10.429688 9.179688 10.558594 9.730469 C 10.558594 9.730469 10.671875 9.613281 10.808594 9.503906 C 10.871094 9.710938 10.964844 9.949219 11.09375 10.214844 C 11.523438 11.101562 11.421875 12.136719 11.726562 12.605469 L 12.195312 12.605469 C 12.1875 12.585938 12.171875 12.558594 12.160156 12.53125 C 12.097656 12.398438 12.015625 12.1875 11.980469 11.945312 C 11.972656 11.894531 11.96875 11.84375 11.960938 11.796875 C 11.914062 11.488281 11.867188 11.273438 11.828125 11.164062 C 11.824219 11.15625 11.820312 11.148438 11.820312 11.140625 C 11.820312 11.140625 11.996094 11.171875 12.113281 11.28125 C 12.113281 11.28125 12.113281 11.273438 12.113281 11.261719 C 12.113281 11.257812 12.113281 11.253906 12.113281 11.246094 C 12.113281 11.148438 12.097656 10.820312 11.960938 10.527344 C 11.832031 10.253906 11.824219 10.007812 11.828125 9.851562 L 11.828125 9.847656 C 11.832031 9.851562 11.894531 9.945312 11.976562 10.097656 C 12.089844 10.296875 12.234375 10.597656 12.335938 10.925781 C 12.441406 11.273438 12.386719 11.839844 12.566406 12.253906 C 12.597656 12.324219 12.628906 12.386719 12.671875 12.445312 C 12.902344 12.757812 13.304688 12.761719 13.304688 12.761719 C 13.363281 12.765625 13.414062 12.761719 13.46875 12.761719 C 13.46875 12.761719 13.550781 12.664062 13.550781 12.570312 C 13.554688 12.488281 13.476562 12.40625 13.476562 12.40625 C 13.472656 12.40625 13.46875 12.40625 13.464844 12.40625 C 13.449219 12.40625 13.4375 12.40625 13.421875 12.40625 C 13.414062 12.40625 13.402344 12.402344 13.394531 12.402344 C 13.382812 12.402344 13.367188 12.402344 13.355469 12.398438 C 13.34375 12.398438 13.332031 12.398438 13.320312 12.394531 C 13.308594 12.394531 13.296875 12.394531 13.28125 12.390625 C 13.269531 12.390625 13.253906 12.386719 13.238281 12.382812 C 13.230469 12.382812 13.21875 12.378906 13.210938 12.378906 C 13.160156 12.371094 13.109375 12.355469 13.0625 12.339844 C 13.058594 12.339844 13.054688 12.335938 13.046875 12.335938 C 13.027344 12.328125 13.007812 12.320312 12.992188 12.3125 C 12.984375 12.308594 12.976562 12.304688 12.972656 12.304688 C 12.957031 12.296875 12.9375 12.289062 12.921875 12.277344 C 12.917969 12.273438 12.910156 12.269531 12.902344 12.265625 C 12.886719 12.257812 12.875 12.25 12.859375 12.238281 C 12.855469 12.234375 12.847656 12.226562 12.839844 12.222656 C 12.828125 12.210938 12.816406 12.203125 12.804688 12.191406 C 12.796875 12.183594 12.789062 12.175781 12.785156 12.171875 C 12.773438 12.160156 12.765625 12.148438 12.753906 12.132812 C 12.75 12.125 12.742188 12.117188 12.738281 12.109375 C 12.730469 12.097656 12.722656 12.082031 12.714844 12.070312 C 12.710938 12.0625 12.703125 12.050781 12.699219 12.042969 C 12.695312 12.027344 12.691406 12.011719 12.683594 11.996094 C 12.679688 11.984375 12.675781 11.976562 12.675781 11.964844 C 12.671875 11.949219 12.667969 11.929688 12.664062 11.914062 C 12.664062 11.902344 12.660156 11.890625 12.660156 11.875 C 12.65625 11.859375 12.660156 11.84375 12.660156 11.824219 C 12.65625 11.808594 12.65625 11.796875 12.65625 11.777344 C 12.683594 11.300781 12.664062 10.78125 12.25 9.957031 C 12.140625 9.738281 12.046875 9.378906 11.957031 9.078125 C 11.917969 8.953125 11.902344 8.835938 11.902344 8.722656 C 11.902344 8.679688 11.902344 8.636719 11.90625 8.59375 C 11.921875 8.464844 11.953125 8.351562 11.992188 8.257812 C 12.09375 8.035156 12.234375 7.875 12.417969 7.835938 C 12.476562 7.824219 12.539062 7.824219 12.609375 7.835938 C 12.765625 7.871094 12.871094 7.949219 12.941406 8.019531 C 13.011719 8.089844 13.042969 8.152344 13.042969 8.152344 C 13.042969 8.148438 13.082031 7.550781 12.511719 7.433594 C 12.511719 7.433594 12.550781 7.375 12.628906 7.328125 C 12.632812 7.324219 12.636719 7.324219 12.640625 7.324219 C 12.652344 7.316406 12.667969 7.308594 12.683594 7.300781 C 12.691406 7.296875 12.699219 7.296875 12.703125 7.292969 C 12.71875 7.289062 12.730469 7.28125 12.746094 7.277344 C 12.757812 7.277344 12.765625 7.277344 12.777344 7.273438 C 12.792969 7.269531 12.804688 7.265625 12.824219 7.265625 C 12.84375 7.261719 12.867188 7.261719 12.898438 7.261719 L 12.910156 7.261719 C 12.9375 7.261719 12.96875 7.261719 13.003906 7.265625 C 13.003906 7.265625 13.003906 7.265625 13.007812 7.265625 C 12.988281 7.203125 12.917969 7.085938 12.8125 6.960938 "/>
<path style=" stroke:none;fill-rule:nonzero;fill:rgb(100%,100%,100%);fill-opacity:1;" d="M 12.546875 8.023438 C 12.546875 8.023438 12.542969 8.023438 12.542969 8.023438 C 12.53125 8.023438 12.519531 8.027344 12.511719 8.03125 C 12.386719 8.074219 12.289062 8.265625 12.304688 8.636719 C 12.328125 9.09375 12.636719 9.386719 12.910156 9.453125 C 12.957031 9.464844 12.972656 9.457031 12.972656 9.441406 C 12.972656 9.417969 12.925781 9.367188 12.882812 9.324219 C 12.847656 9.289062 12.800781 9.238281 12.761719 9.175781 C 12.722656 9.109375 12.691406 9.027344 12.691406 8.933594 C 12.691406 8.910156 12.695312 8.886719 12.699219 8.863281 C 12.699219 8.859375 12.703125 8.855469 12.703125 8.851562 C 12.707031 8.832031 12.714844 8.8125 12.71875 8.796875 C 12.722656 8.789062 12.730469 8.78125 12.734375 8.769531 C 12.738281 8.757812 12.746094 8.746094 12.753906 8.734375 C 12.761719 8.722656 12.769531 8.714844 12.777344 8.703125 C 12.78125 8.695312 12.789062 8.6875 12.796875 8.679688 C 12.804688 8.667969 12.816406 8.65625 12.828125 8.644531 C 12.835938 8.640625 12.839844 8.636719 12.84375 8.632812 C 12.859375 8.621094 12.875 8.609375 12.890625 8.597656 C 12.894531 8.597656 12.898438 8.59375 12.902344 8.59375 C 12.917969 8.582031 12.9375 8.574219 12.957031 8.566406 C 12.960938 8.566406 12.960938 8.566406 12.964844 8.5625 C 12.984375 8.554688 13.007812 8.550781 13.027344 8.546875 C 13.027344 8.546875 13.027344 8.546875 13.03125 8.546875 C 12.949219 8.335938 12.722656 8.058594 12.546875 8.023438 "/>
<path style=" stroke:none;fill-rule:nonzero;fill:rgb(0.392157%,0.392157%,0.392157%);fill-opacity:1;" d="M 11.421875 6.085938 L 11.578125 6.191406 C 11.578125 6.191406 11.53125 6.335938 11.675781 6.402344 C 11.820312 6.472656 11.929688 6.375 11.929688 6.375 L 12.058594 6.460938 C 12.058594 6.460938 11.871094 6.777344 11.578125 6.558594 C 11.300781 6.351562 11.421875 6.085938 11.421875 6.085938 M 11.007812 5.773438 C 11.070312 5.863281 11.167969 5.964844 11.15625 6.042969 C 11.132812 6.261719 11.152344 6.652344 11.527344 6.785156 C 11.976562 6.945312 12.089844 6.75 12.273438 6.742188 C 12.339844 6.738281 12.4375 6.769531 12.527344 6.808594 C 12.667969 6.871094 12.796875 6.949219 12.8125 6.960938 C 12.816406 6.960938 12.816406 6.960938 12.816406 6.960938 C 12.816406 6.960938 12.726562 6.675781 12.324219 6.371094 C 11.902344 6.050781 11.3125 5.855469 10.859375 5.429688 C 10.859375 5.429688 10.859375 5.429688 10.863281 5.433594 C 10.867188 5.457031 10.925781 5.652344 11.007812 5.773438 "/>
<path style=" stroke:none;fill-rule:nonzero;fill:rgb(99.215686%,83.529412%,11.372549%);fill-opacity:1;" d="M 11.578125 6.558594 C 11.871094 6.777344 12.058594 6.460938 12.058594 6.460938 L 11.929688 6.375 C 11.929688 6.375 11.820312 6.472656 11.675781 6.402344 C 11.53125 6.335938 11.578125 6.191406 11.578125 6.191406 L 11.421875 6.085938 C 11.421875 6.085938 11.300781 6.351562 11.578125 6.558594 "/>
<path style=" stroke:none;fill-rule:nonzero;fill:rgb(85.490196%,36.862745%,35.686275%);fill-opacity:1;" d="M 14.054688 10.792969 C 14.074219 10.46875 14.003906 10.339844 13.820312 10.332031 C 13.632812 10.324219 13.546875 10.554688 13.535156 10.648438 C 13.527344 10.746094 13.488281 10.832031 13.488281 10.832031 C 13.488281 10.832031 13.449219 10.742188 13.4375 10.648438 C 13.429688 10.550781 13.339844 10.320312 13.15625 10.328125 C 12.972656 10.339844 12.902344 10.464844 12.921875 10.792969 C 12.941406 11.121094 13.097656 11.507812 13.488281 11.523438 L 13.488281 11.527344 C 13.878906 11.507812 14.035156 11.125 14.054688 10.792969 "/>
<path style=" stroke:none;fill-rule:nonzero;fill:rgb(0%,31.764706%,51.372549%);fill-opacity:1;" d="M 17.273438 17.679688 C 17.257812 17.699219 17.226562 17.726562 17.195312 17.726562 C 17.128906 17.726562 16.933594 17.382812 16.933594 16.730469 C 16.933594 16.246094 17.046875 15.898438 17.15625 15.777344 C 17.179688 15.75 17.195312 15.742188 17.195312 15.742188 C 17.199219 15.742188 17.214844 15.75 17.238281 15.777344 C 17.34375 15.894531 17.460938 16.246094 17.460938 16.730469 C 17.460938 17.175781 17.363281 17.578125 17.273438 17.679688 M 17.195312 15.570312 C 17.136719 15.570312 17.078125 15.601562 17.023438 15.664062 C 16.863281 15.84375 16.757812 16.261719 16.757812 16.730469 C 16.757812 17.339844 16.933594 17.898438 17.195312 17.898438 C 17.269531 17.898438 17.34375 17.863281 17.40625 17.792969 C 17.550781 17.632812 17.632812 17.148438 17.632812 16.730469 C 17.632812 16.261719 17.53125 15.84375 17.371094 15.664062 C 17.316406 15.601562 17.257812 15.570312 17.195312 15.570312 "/>
<path style=" stroke:none;fill-rule:nonzero;fill:rgb(0%,31.764706%,51.372549%);fill-opacity:1;" d="M 12.699219 16.207031 C 12.703125 16.027344 12.710938 15.761719 12.71875 15.601562 C 12.773438 15.605469 12.796875 15.628906 12.808594 15.636719 C 12.867188 15.6875 12.886719 15.773438 12.886719 15.816406 C 12.875 16.019531 12.8125 16.148438 12.699219 16.207031 M 12.5625 15.4375 L 12.546875 15.4375 L 12.546875 15.453125 L 12.519531 16.402344 L 12.519531 16.421875 L 12.539062 16.421875 C 12.984375 16.414062 13.050781 16.003906 13.058594 15.824219 C 13.0625 15.730469 13.023438 15.59375 12.921875 15.507812 C 12.832031 15.429688 12.710938 15.40625 12.5625 15.4375 "/>
<path style=" stroke:none;fill-rule:nonzero;fill:rgb(0%,31.764706%,51.372549%);fill-opacity:1;" d="M 25.375 17.921875 C 25.304688 18.199219 25.160156 18.539062 24.675781 18.65625 C 24.042969 18.808594 23.609375 18.3125 23.609375 18.3125 L 23.996094 17.539062 L 24.144531 18.027344 C 24.144531 18.027344 24.25 18.152344 24.429688 18.171875 C 24.582031 18.1875 24.761719 18.042969 24.816406 17.949219 C 24.953125 17.695312 24.847656 17.429688 24.753906 17.25 C 24.605469 16.957031 23.96875 16.4375 23.714844 15.992188 C 23.578125 15.746094 23.53125 15.445312 23.566406 15.246094 C 23.613281 15.011719 23.753906 14.589844 24.238281 14.46875 C 24.871094 14.316406 25.304688 14.816406 25.304688 14.816406 L 24.917969 15.585938 L 24.769531 15.097656 C 24.769531 15.097656 24.664062 14.960938 24.484375 14.957031 C 24.269531 14.949219 24.179688 15.078125 24.148438 15.1875 C 24.089844 15.359375 24.125 15.597656 24.1875 15.722656 C 24.375 16.09375 24.878906 16.351562 25.203125 16.878906 C 25.375 17.160156 25.488281 17.480469 25.375 17.921875 M 23.246094 17.515625 L 22.769531 17.835938 L 22.476562 17.84375 L 22.488281 16.972656 L 22.824219 17.089844 L 22.972656 17.140625 L 23.039062 17 L 23.296875 16.457031 L 23.410156 16.210938 L 22.488281 16.210938 C 22.484375 16.03125 22.480469 15.738281 22.476562 15.558594 L 22.84375 15.5625 L 23.082031 15.765625 L 23.324219 15.972656 L 23.367188 15.660156 L 23.386719 15.519531 C 23.410156 15.710938 23.46875 15.910156 23.566406 16.078125 C 23.710938 16.332031 23.964844 16.601562 24.1875 16.839844 C 24.363281 17.023438 24.539062 17.210938 24.597656 17.324219 C 24.683594 17.496094 24.757812 17.691406 24.664062 17.863281 C 24.632812 17.917969 24.511719 18.007812 24.445312 18 C 24.378906 17.992188 24.328125 17.957031 24.296875 17.933594 L 24.160156 17.488281 L 24.03125 17.074219 L 23.839844 17.464844 L 23.519531 18.105469 L 23.519531 17.332031 Z M 23.34375 18.472656 L 21.582031 18.472656 L 21.726562 17.996094 L 21.714844 15.378906 L 21.5625 15.011719 L 21.453125 15.1875 L 20.507812 18.683594 L 19.59375 15.1875 L 19.390625 14.941406 L 20.191406 14.941406 L 20.527344 16.953125 L 20.867188 14.941406 L 23.292969 14.941406 L 23.195312 15.636719 L 22.910156 15.390625 L 22.324219 15.382812 L 22.300781 15.378906 L 22.300781 15.402344 L 22.316406 16.367188 L 22.316406 16.382812 L 23.136719 16.382812 L 22.878906 16.925781 L 22.316406 16.730469 L 22.300781 18.015625 L 22.824219 18.007812 L 23.34375 17.660156 Z M 19.261719 18.007812 L 19.78125 17.660156 L 19.78125 18.472656 L 18.28125 18.472656 L 18.425781 18.023438 L 18.414062 15.453125 L 18.414062 15.210938 L 18.199219 14.941406 L 19.148438 14.941406 L 19 15.21875 L 19 18.015625 Z M 17.773438 18.203125 C 17.613281 18.382812 17.40625 18.480469 17.183594 18.480469 C 16.957031 18.480469 16.753906 18.382812 16.59375 18.203125 C 16.34375 17.921875 16.210938 17.460938 16.210938 16.871094 C 16.210938 16.175781 16.402344 15.527344 16.707031 15.183594 C 16.851562 15.019531 17.015625 14.933594 17.183594 14.933594 C 17.71875 14.933594 18.152344 15.804688 18.152344 16.871094 C 18.152344 17.460938 18.019531 17.921875 17.773438 18.203125 M 15.511719 18.6875 L 15 17.246094 L 14.488281 18.6875 L 13.757812 15.175781 L 13.5625 14.953125 L 14.355469 14.953125 L 14.640625 16.964844 L 15 15.566406 L 15.421875 16.917969 L 15.632812 14.953125 L 16.410156 14.953125 L 16.21875 15.175781 Z M 13.519531 16.109375 C 13.453125 16.523438 13.121094 16.742188 13.121094 16.742188 L 13.957031 18.476562 L 13.074219 18.476562 L 13.1875 18.179688 L 12.589844 16.984375 L 12.496094 17 L 12.523438 18.179688 L 12.664062 18.476562 L 11.796875 18.476562 L 11.945312 18.152344 L 11.925781 15.402344 L 11.707031 14.949219 L 12.683594 14.949219 C 12.933594 14.949219 13.15625 15.015625 13.273438 15.121094 C 13.421875 15.25 13.605469 15.539062 13.519531 16.109375 M 12.910156 18.410156 L 12.875 18.503906 L 12.824219 18.398438 L 12.695312 18.140625 L 12.683594 17.5625 L 12.996094 18.191406 Z M 11.714844 18.234375 L 11.714844 17.332031 L 11.445312 17.515625 L 10.964844 17.835938 L 10.675781 17.84375 L 10.683594 16.972656 L 11.019531 17.089844 L 11.167969 17.140625 L 11.234375 17 L 11.492188 16.457031 L 11.609375 16.210938 L 10.683594 16.210938 C 10.679688 16.03125 10.675781 15.738281 10.675781 15.558594 L 11.042969 15.5625 L 11.277344 15.765625 L 11.519531 15.976562 L 11.566406 15.660156 L 11.632812 15.191406 L 11.75 15.441406 L 11.769531 18.117188 Z M 11.542969 18.472656 L 9.777344 18.472656 L 9.925781 17.996094 L 9.914062 15.378906 L 9.730469 14.941406 L 11.492188 14.941406 L 11.394531 15.636719 L 11.109375 15.390625 L 10.523438 15.382812 L 10.5 15.378906 L 10.5 15.402344 L 10.511719 16.367188 L 10.511719 16.382812 L 11.335938 16.382812 L 11.078125 16.925781 L 10.511719 16.730469 L 10.5 18.015625 L 11.019531 18.007812 L 11.542969 17.660156 Z M 9.433594 16.621094 C 9.554688 16.496094 9.6875 16.308594 9.742188 16.070312 L 9.746094 17.027344 C 9.683594 16.886719 9.574219 16.738281 9.433594 16.621094 M 9.375 18.199219 C 9.011719 18.574219 8.359375 18.476562 8.019531 18.476562 L 7.9375 15.351562 L 7.726562 14.933594 C 7.894531 14.929688 8.359375 14.910156 8.617188 14.921875 C 8.90625 14.933594 9.5 15.050781 9.585938 15.734375 C 9.660156 16.300781 9.171875 16.617188 9.167969 16.621094 L 9.136719 16.636719 L 9.167969 16.652344 C 9.433594 16.785156 9.605469 17.066406 9.636719 17.242188 C 9.699219 17.589844 9.597656 17.972656 9.375 18.199219 M 7.082031 18.476562 L 6.878906 16.449219 L 6.273438 18.683594 L 5.699219 16.480469 L 5.496094 18.476562 L 4.695312 18.476562 L 4.695312 18.472656 L 3.851562 18.472656 L 3.996094 18.019531 L 3.984375 15.214844 L 3.835938 14.941406 L 4.71875 14.941406 L 4.570312 15.214844 L 4.570312 18.015625 L 4.710938 18.453125 L 4.898438 18.230469 L 5.367188 15.207031 L 5.15625 14.941406 L 5.957031 14.941406 L 6.292969 16.851562 L 6.632812 14.941406 L 7.371094 14.941406 L 7.210938 15.207031 L 7.679688 18.230469 L 7.882812 18.472656 L 7.082031 18.472656 Z M 4.742188 15.257812 L 4.871094 15.023438 L 4.925781 14.929688 L 5.019531 15.050781 L 5.183594 15.253906 L 4.753906 18.023438 L 4.742188 17.988281 Z M 7.523438 15.03125 L 7.554688 14.976562 C 7.566406 14.996094 7.570312 15.011719 7.570312 15.011719 L 7.765625 15.394531 L 7.835938 18.101562 L 7.394531 15.242188 Z M 3.601562 15.257812 L 3.1875 14.917969 L 2.980469 14.914062 L 2.953125 18.140625 L 3.128906 18.683594 L 2.210938 18.683594 L 2.386719 18.144531 L 2.371094 14.914062 L 2.125 14.917969 L 1.710938 15.257812 L 1.605469 14.460938 L 3.707031 14.460938 Z M 24.742188 16.09375 C 24.570312 15.933594 24.421875 15.796875 24.34375 15.644531 C 24.300781 15.5625 24.269531 15.371094 24.3125 15.238281 C 24.339844 15.15625 24.386719 15.125 24.480469 15.128906 C 24.542969 15.128906 24.589844 15.164062 24.613281 15.1875 L 24.753906 15.636719 L 24.882812 16.054688 L 25.074219 15.664062 L 25.460938 14.894531 L 25.511719 14.789062 L 25.4375 14.703125 C 25.414062 14.679688 24.921875 14.125 24.199219 14.304688 C 23.851562 14.386719 23.597656 14.621094 23.464844 14.96875 L 23.464844 14.964844 L 23.496094 14.769531 L 20.722656 14.769531 L 20.695312 14.914062 L 20.527344 15.90625 L 20.363281 14.914062 L 20.339844 14.769531 L 17.839844 14.769531 L 18.0625 15.050781 L 18.238281 15.273438 L 18.242188 15.449219 C 18.242188 15.453125 18.242188 15.714844 18.246094 16.070312 C 18.078125 15.296875 17.667969 14.761719 17.183594 14.761719 C 16.964844 14.761719 16.757812 14.867188 16.578125 15.070312 C 16.492188 15.164062 16.414062 15.285156 16.347656 15.417969 L 16.378906 15.253906 L 16.542969 15.066406 L 16.792969 14.78125 L 15.476562 14.78125 L 15.460938 14.9375 L 15.339844 16.070312 L 15.164062 15.515625 L 14.984375 14.933594 L 14.832031 15.523438 L 14.691406 16.074219 L 14.527344 14.929688 L 14.507812 14.78125 L 13.171875 14.78125 L 13.300781 14.925781 C 13.144531 14.832031 12.925781 14.777344 12.683594 14.777344 L 11.691406 14.777344 L 11.691406 14.769531 L 9.46875 14.769531 L 9.570312 15.007812 L 9.738281 15.414062 L 9.742188 15.609375 C 9.582031 14.851562 8.855469 14.757812 8.625 14.75 C 8.402344 14.738281 8.042969 14.75 7.828125 14.757812 L 7.722656 14.761719 L 7.453125 14.769531 L 6.488281 14.769531 L 6.460938 14.914062 L 6.292969 15.855469 L 6.128906 14.914062 L 6.101562 14.769531 L 3.84375 14.769531 L 3.882812 14.484375 L 3.90625 14.289062 L 1.40625 14.289062 L 1.429688 14.484375 L 1.539062 15.28125 L 1.582031 15.589844 L 1.824219 15.390625 L 2.191406 15.089844 L 2.199219 15.089844 L 2.210938 18.117188 L 2.046875 18.632812 L 1.972656 18.859375 L 3.367188 18.859375 L 3.296875 18.632812 L 3.125 18.113281 L 3.152344 15.113281 L 3.492188 15.390625 L 3.734375 15.589844 L 3.773438 15.28125 L 3.785156 15.210938 L 3.808594 15.257812 L 3.824219 17.996094 L 3.683594 18.421875 L 3.609375 18.644531 L 4.324219 18.644531 L 4.324219 18.648438 L 5.652344 18.648438 L 5.667969 18.492188 L 5.773438 17.457031 L 6.105469 18.726562 L 6.140625 18.867188 L 6.40625 18.867188 L 6.441406 18.730469 L 6.800781 17.402344 L 6.910156 18.492188 L 6.925781 18.648438 L 8.019531 18.648438 C 8.066406 18.648438 8.128906 18.652344 8.191406 18.652344 C 8.570312 18.667969 9.140625 18.691406 9.5 18.320312 C 9.613281 18.207031 9.695312 18.058594 9.75 17.898438 L 9.753906 17.972656 L 9.613281 18.421875 L 9.542969 18.644531 L 11.527344 18.644531 L 11.527344 18.648438 L 14.234375 18.648438 L 14.113281 18.398438 L 13.335938 16.789062 C 13.457031 16.671875 13.640625 16.453125 13.691406 16.136719 C 13.707031 16.019531 13.714844 15.914062 13.714844 15.816406 L 14.316406 18.71875 L 14.347656 18.867188 L 14.609375 18.867188 L 14.652344 18.742188 L 15 17.765625 L 15.347656 18.742188 L 15.390625 18.867188 L 15.652344 18.867188 L 15.679688 18.71875 L 16.039062 16.9375 C 16.050781 17.539062 16.195312 18.015625 16.460938 18.316406 C 16.65625 18.535156 16.90625 18.652344 17.183594 18.652344 C 17.460938 18.652344 17.707031 18.535156 17.902344 18.316406 C 18.066406 18.132812 18.179688 17.886719 18.25 17.589844 C 18.25 17.785156 18.25 17.9375 18.253906 17.992188 L 18.113281 18.421875 L 18.039062 18.644531 L 19.957031 18.644531 L 19.957031 17.332031 L 19.683594 17.515625 L 19.203125 17.839844 L 19.175781 17.839844 L 19.175781 15.261719 L 19.273438 15.074219 L 19.4375 15.265625 L 20.339844 18.730469 L 20.375 18.867188 L 20.640625 18.867188 L 20.675781 18.730469 L 21.542969 15.515625 L 21.554688 17.972656 L 21.417969 18.421875 L 21.347656 18.644531 L 23.519531 18.644531 L 23.519531 18.464844 C 23.652344 18.597656 24.097656 18.972656 24.714844 18.824219 C 25.367188 18.664062 25.5 18.140625 25.542969 17.964844 C 25.679688 17.425781 25.511719 17.054688 25.351562 16.789062 C 25.171875 16.492188 24.941406 16.28125 24.742188 16.09375 "/>
<path style=" stroke:none;fill-rule:nonzero;fill:rgb(0%,31.764706%,51.372549%);fill-opacity:1;" d="M 8.828125 17.785156 C 8.800781 17.804688 8.765625 17.820312 8.722656 17.828125 L 8.722656 17.070312 C 8.757812 17.082031 8.792969 17.09375 8.820312 17.117188 C 8.898438 17.171875 8.984375 17.292969 8.976562 17.4375 C 8.96875 17.640625 8.894531 17.726562 8.828125 17.785156 M 8.929688 16.980469 C 8.777344 16.863281 8.550781 16.871094 8.550781 16.871094 L 8.550781 18.007812 C 8.550781 18.007812 8.796875 18.035156 8.941406 17.914062 C 9.0625 17.8125 9.140625 17.667969 9.152344 17.445312 C 9.160156 17.234375 9.039062 17.0625 8.929688 16.980469 "/>
<path style=" stroke:none;fill-rule:nonzero;fill:rgb(0%,31.764706%,51.372549%);fill-opacity:1;" d="M 8.738281 15.621094 C 8.832031 15.644531 8.898438 15.703125 8.90625 15.90625 C 8.910156 16.019531 8.886719 16.101562 8.832031 16.152344 C 8.804688 16.175781 8.773438 16.195312 8.738281 16.203125 Z M 9.082031 15.898438 C 9.0625 15.457031 8.78125 15.445312 8.625 15.4375 C 8.609375 15.4375 8.597656 15.433594 8.582031 15.433594 L 8.5625 15.433594 L 8.5625 16.394531 C 8.5625 16.394531 9.101562 16.453125 9.082031 15.898438 "/>
<path style=" stroke:none;fill-rule:nonzero;fill:rgb(100%,100%,100%);fill-opacity:1;" d="M 17.40625 17.792969 C 17.34375 17.863281 17.269531 17.898438 17.195312 17.898438 C 16.933594 17.898438 16.757812 17.339844 16.757812 16.730469 C 16.757812 16.261719 16.863281 15.84375 17.023438 15.664062 C 17.078125 15.601562 17.136719 15.570312 17.195312 15.570312 C 17.257812 15.570312 17.316406 15.601562 17.371094 15.664062 C 17.53125 15.84375 17.632812 16.261719 17.632812 16.730469 C 17.632812 17.148438 17.550781 17.632812 17.40625 17.792969 M 17.183594 14.933594 C 17.015625 14.933594 16.851562 15.019531 16.710938 15.183594 C 16.402344 15.527344 16.210938 16.175781 16.210938 16.871094 C 16.210938 17.464844 16.34375 17.921875 16.59375 18.203125 C 16.753906 18.382812 16.957031 18.476562 17.183594 18.476562 C 17.40625 18.476562 17.613281 18.382812 17.773438 18.203125 C 18.019531 17.921875 18.152344 17.464844 18.152344 16.871094 C 18.152344 15.804688 17.71875 14.933594 17.183594 14.933594 "/>
<path style=" stroke:none;fill-rule:nonzero;fill:rgb(100%,100%,100%);fill-opacity:1;" d="M 16.410156 14.953125 L 15.632812 14.953125 L 15.421875 16.917969 L 15 15.566406 L 14.640625 16.964844 L 14.355469 14.953125 L 13.5625 14.953125 L 13.757812 15.175781 L 14.488281 18.6875 L 15 17.246094 L 15.511719 18.6875 L 16.21875 15.175781 Z M 16.410156 14.953125 "/>
<path style=" stroke:none;fill-rule:nonzero;fill:rgb(100%,100%,100%);fill-opacity:1;" d="M 7.210938 15.207031 L 7.371094 14.941406 L 6.632812 14.941406 L 6.292969 16.851562 L 5.957031 14.941406 L 5.15625 14.941406 L 5.367188 15.207031 L 4.898438 18.230469 L 4.714844 18.453125 L 4.570312 18.015625 L 4.570312 15.214844 L 4.71875 14.941406 L 3.835938 14.941406 L 3.984375 15.214844 L 3.996094 18.023438 L 3.851562 18.472656 L 4.695312 18.472656 L 4.695312 18.476562 L 5.496094 18.476562 L 5.699219 16.480469 L 6.273438 18.6875 L 6.878906 16.449219 L 7.082031 18.476562 L 7.882812 18.476562 L 7.679688 18.230469 Z M 7.210938 15.207031 "/>
<path style=" stroke:none;fill-rule:nonzero;fill:rgb(100%,100%,100%);fill-opacity:1;" d="M 8.941406 17.914062 C 8.796875 18.035156 8.550781 18.007812 8.550781 18.007812 L 8.550781 16.871094 C 8.550781 16.871094 8.777344 16.863281 8.929688 16.980469 C 9.039062 17.0625 9.160156 17.234375 9.152344 17.445312 C 9.140625 17.667969 9.0625 17.8125 8.941406 17.914062 M 8.5625 15.453125 L 8.5625 15.433594 L 8.582031 15.433594 C 8.597656 15.433594 8.609375 15.4375 8.625 15.4375 C 8.78125 15.445312 9.0625 15.457031 9.082031 15.898438 C 9.101562 16.453125 8.5625 16.394531 8.5625 16.394531 Z M 9.167969 16.652344 L 9.136719 16.636719 L 9.167969 16.621094 C 9.171875 16.617188 9.660156 16.300781 9.585938 15.734375 C 9.5 15.050781 8.90625 14.933594 8.617188 14.921875 C 8.359375 14.910156 7.894531 14.929688 7.726562 14.933594 L 7.9375 15.351562 L 8.019531 18.476562 C 8.359375 18.476562 9.011719 18.574219 9.375 18.199219 C 9.597656 17.972656 9.699219 17.589844 9.636719 17.242188 C 9.605469 17.066406 9.433594 16.785156 9.167969 16.652344 "/>
<path style=" stroke:none;fill-rule:nonzero;fill:rgb(100%,100%,100%);fill-opacity:1;" d="M 22.300781 18.015625 L 22.316406 16.730469 L 22.878906 16.925781 L 23.136719 16.382812 L 22.316406 16.382812 L 22.316406 16.363281 L 22.300781 15.402344 L 22.300781 15.378906 L 22.324219 15.382812 L 22.910156 15.390625 L 23.195312 15.636719 L 23.292969 14.941406 L 20.867188 14.941406 L 20.527344 16.953125 L 20.191406 14.941406 L 19.390625 14.941406 L 19.59375 15.1875 L 20.507812 18.683594 L 21.453125 15.1875 L 21.5625 15.011719 L 21.714844 15.378906 L 21.730469 17.996094 L 21.582031 18.472656 L 23.34375 18.472656 L 23.34375 17.660156 L 22.824219 18.007812 Z M 22.300781 18.015625 "/>
<path style=" stroke:none;fill-rule:nonzero;fill:rgb(100%,100%,100%);fill-opacity:1;" d="M 10.5 18.015625 L 10.511719 16.730469 L 11.078125 16.925781 L 11.335938 16.382812 L 10.511719 16.382812 L 10.511719 16.363281 L 10.5 15.402344 L 10.5 15.378906 L 10.523438 15.382812 L 11.109375 15.390625 L 11.394531 15.636719 L 11.492188 14.941406 L 9.730469 14.941406 L 9.914062 15.378906 L 9.925781 17.996094 L 9.777344 18.472656 L 11.542969 18.472656 L 11.542969 17.660156 L 11.019531 18.007812 Z M 10.5 18.015625 "/>
<path style=" stroke:none;fill-rule:nonzero;fill:rgb(100%,100%,100%);fill-opacity:1;" d="M 19 15.21875 L 19.148438 14.941406 L 18.199219 14.941406 L 18.414062 15.210938 L 18.414062 15.453125 L 18.425781 18.023438 L 18.28125 18.472656 L 19.78125 18.472656 L 19.78125 17.660156 L 19.261719 18.007812 L 19 18.015625 Z M 19 15.21875 "/>
<path style=" stroke:none;fill-rule:nonzero;fill:rgb(100%,100%,100%);fill-opacity:1;" d="M 12.539062 16.421875 L 12.519531 16.421875 L 12.519531 16.402344 L 12.546875 15.453125 L 12.546875 15.4375 L 12.5625 15.4375 C 12.710938 15.40625 12.832031 15.429688 12.921875 15.507812 C 13.023438 15.59375 13.0625 15.730469 13.058594 15.824219 C 13.050781 16.003906 12.984375 16.414062 12.539062 16.421875 M 13.273438 15.121094 C 13.15625 15.015625 12.933594 14.949219 12.683594 14.949219 L 11.707031 14.949219 L 11.925781 15.402344 L 11.945312 18.152344 L 11.796875 18.472656 L 12.667969 18.472656 L 12.523438 18.179688 L 12.496094 17 L 12.589844 16.980469 L 13.1875 18.179688 L 13.074219 18.472656 L 13.957031 18.472656 L 13.121094 16.742188 C 13.121094 16.742188 13.453125 16.519531 13.519531 16.109375 C 13.605469 15.539062 13.421875 15.25 13.273438 15.121094 "/>
<path style=" stroke:none;fill-rule:nonzero;fill:rgb(100%,100%,100%);fill-opacity:1;" d="M 24.1875 15.722656 C 24.125 15.597656 24.089844 15.359375 24.148438 15.1875 C 24.183594 15.078125 24.269531 14.949219 24.484375 14.957031 C 24.664062 14.960938 24.769531 15.097656 24.769531 15.097656 L 24.917969 15.585938 L 25.304688 14.816406 C 25.304688 14.816406 24.871094 14.316406 24.238281 14.46875 C 23.753906 14.589844 23.613281 15.011719 23.566406 15.246094 C 23.53125 15.445312 23.578125 15.746094 23.714844 15.992188 C 23.96875 16.441406 24.605469 16.957031 24.753906 17.25 C 24.847656 17.429688 24.957031 17.699219 24.816406 17.949219 C 24.761719 18.042969 24.582031 18.1875 24.429688 18.171875 C 24.25 18.152344 24.144531 18.027344 24.144531 18.027344 L 23.996094 17.539062 L 23.609375 18.3125 C 23.609375 18.3125 24.042969 18.808594 24.675781 18.65625 C 25.160156 18.539062 25.304688 18.199219 25.375 17.921875 C 25.488281 17.480469 25.375 17.160156 25.203125 16.878906 C 24.878906 16.351562 24.375 16.09375 24.1875 15.722656 "/>
<path style=" stroke:none;fill-rule:nonzero;fill:rgb(100%,100%,100%);fill-opacity:1;" d="M 1.710938 15.257812 L 2.125 14.917969 L 2.371094 14.914062 L 2.386719 18.144531 L 2.210938 18.683594 L 3.128906 18.683594 L 2.953125 18.140625 L 2.980469 14.914062 L 3.1875 14.917969 L 3.601562 15.257812 L 3.707031 14.460938 L 1.605469 14.460938 Z M 1.710938 15.257812 "/>
<path style=" stroke:none;fill-rule:nonzero;fill:rgb(5.490196%,66.27451%,30.588235%);fill-opacity:1;" d="M 6.546875 10.386719 L 6.542969 10.394531 L 6.828125 10.914062 C 6.765625 10.953125 6.683594 10.976562 6.613281 10.996094 C 6.542969 11.011719 6.488281 11.019531 6.488281 11.019531 L 7.441406 12.605469 L 7.78125 12.605469 L 7.617188 11.839844 L 8.011719 11.839844 L 7.496094 10.386719 L 7.792969 10.347656 L 7.21875 8.574219 L 6.382812 10.101562 L 6.535156 10.382812 Z M 6.546875 10.386719 "/>
<path style=" stroke:none;fill-rule:nonzero;fill:rgb(5.490196%,66.27451%,30.588235%);fill-opacity:1;" d="M 4.164062 13.746094 L 4.558594 12.613281 L 5.863281 12.613281 L 5.238281 10.710938 L 5.628906 10.65625 L 4.875 8.328125 L 3.617188 10.621094 L 3.992188 10.707031 L 2.871094 12.609375 L 3.304688 12.613281 L 2.664062 13.746094 Z M 4.164062 13.746094 "/>
<path style=" stroke:none;fill-rule:nonzero;fill:rgb(5.490196%,66.27451%,30.588235%);fill-opacity:1;" d="M 8.90625 12.074219 L 9.1875 12.605469 L 9.667969 12.605469 L 9.441406 11.5625 L 9.765625 11.5625 L 9.34375 10.371094 L 9.585938 10.335938 L 9.117188 8.882812 L 8.457031 10.085938 L 8.707031 10.542969 C 8.65625 10.574219 8.59375 10.59375 8.542969 10.605469 C 8.488281 10.617188 8.449219 10.621094 8.449219 10.621094 L 9.261719 11.976562 C 9.175781 12.027344 8.972656 12.0625 8.917969 12.074219 C 8.910156 12.074219 8.90625 12.074219 8.90625 12.074219 "/>
<path style=" stroke:none;fill-rule:nonzero;fill:rgb(5.490196%,66.27451%,30.588235%);fill-opacity:1;" d="M 19.144531 10.34375 L 18.871094 10.804688 L 18.304688 11.75 L 18.65625 11.800781 L 18.421875 12.242188 L 18.226562 12.605469 L 19.625 12.605469 L 19.703125 11.839844 L 20.078125 11.816406 L 19.847656 10.347656 L 20.152344 10.308594 L 19.792969 8.574219 L 18.84375 10.304688 Z M 19.144531 10.34375 "/>
<path style=" stroke:none;fill-rule:nonzero;fill:rgb(5.490196%,66.27451%,30.588235%);fill-opacity:1;" d="M 17.894531 8.882812 L 17.117188 10.300781 L 17.367188 10.332031 L 17.140625 10.710938 L 16.675781 11.484375 L 16.964844 11.53125 L 16.773438 11.890625 L 16.390625 12.605469 L 17.613281 12.605469 L 17.726562 11.496094 L 18.03125 11.476562 L 17.882812 10.308594 L 18.128906 10.277344 Z M 17.894531 8.882812 "/>
<path style=" stroke:none;fill-rule:nonzero;fill:rgb(5.490196%,66.27451%,30.588235%);fill-opacity:1;" d="M 22.671875 14.203125 L 23.195312 14.195312 C 23.195312 14.195312 23.386719 13.875 23.648438 13.773438 L 23.074219 12.570312 L 23.460938 12.492188 C 23.273438 12.152344 22.816406 11.125 22.617188 10.707031 L 22.988281 10.65625 L 22.136719 8.328125 L 20.894531 10.597656 L 21.289062 10.648438 L 20.207031 12.605469 L 22.054688 12.613281 Z M 22.671875 14.203125 "/>
</g>
</svg>
