<?xml version="1.0" encoding="UTF-8"?>
<svg xmlns="http://www.w3.org/2000/svg" xmlns:xlink="http://www.w3.org/1999/xlink" width="35pt" height="25pt" viewBox="0 0 35 25" version="1.1">
<g id="surface1">
<path style=" stroke:none;fill-rule:nonzero;fill:rgb(92.941176%,9.019608%,30.980392%);fill-opacity:1;" d="M 7.679688 20.066406 L 27.320312 20.066406 L 27.320312 0.464844 L 7.679688 0.464844 Z M 7.679688 20.066406 "/>
<path style=" stroke:none;fill-rule:nonzero;fill:rgb(0%,40.392157%,69.411765%);fill-opacity:1;" d="M 7.679688 24.535156 L 27.320312 24.535156 L 27.320312 20.785156 L 7.679688 20.785156 Z M 7.679688 24.535156 "/>
<path style=" stroke:none;fill-rule:nonzero;fill:rgb(65.490196%,66.27451%,67.45098%);fill-opacity:1;" d="M 27.320312 20.066406 L 7.675781 20.066406 L 7.675781 0.464844 L 27.320312 0.464844 Z M 7.679688 24.535156 L 7.679688 20.785156 L 27.320312 20.785156 L 27.320312 24.535156 Z M 27.554688 0 L 7.445312 0 C 7.386719 0 7.328125 0.0234375 7.28125 0.0703125 C 7.238281 0.113281 7.214844 0.171875 7.214844 0.234375 L 7.214844 24.765625 C 7.214844 24.828125 7.238281 24.886719 7.28125 24.929688 C 7.328125 24.976562 7.386719 25 7.445312 25 L 27.554688 25 C 27.613281 25 27.671875 24.976562 27.71875 24.929688 C 27.761719 24.886719 27.785156 24.828125 27.785156 24.765625 L 27.785156 0.234375 C 27.785156 0.171875 27.761719 0.113281 27.71875 0.0703125 C 27.675781 0.0234375 27.613281 0 27.554688 0 "/>
<path style=" stroke:none;fill-rule:nonzero;fill:rgb(0%,40.392157%,69.411765%);fill-opacity:1;" d="M 17.546875 1.472656 C 12.6875 1.472656 8.75 5.40625 8.75 10.265625 C 8.75 15.121094 12.6875 19.054688 17.546875 19.054688 C 22.402344 19.054688 26.335938 15.117188 26.335938 10.265625 C 26.335938 5.40625 22.398438 1.472656 17.546875 1.472656 "/>
<path style=" stroke:none;fill-rule:nonzero;fill:rgb(100%,100%,100%);fill-opacity:1;" d="M 21.773438 14.183594 C 22.261719 14.921875 22.679688 15.625 23.003906 16.261719 C 21.5625 17.574219 19.46875 18.421875 17.417969 18.371094 C 17.390625 16.554688 18.25 14.792969 18.824219 14.011719 C 18.734375 13.945312 18.679688 13.890625 18.59375 13.785156 C 17.996094 14.5625 16.96875 16.40625 16.996094 18.351562 C 14.578125 18.191406 12.453125 16.972656 11.078125 15.15625 C 11.792969 14.921875 12.507812 14.640625 13.21875 14.320312 C 13.144531 14.246094 12.949219 14.175781 12.828125 14.144531 C 12.179688 14.425781 11.527344 14.671875 10.875 14.871094 C 10.019531 13.632812 9.496094 12.140625 9.441406 10.53125 C 9.941406 10.648438 10.515625 10.671875 11.164062 10.621094 L 11.164062 10.265625 C 10.519531 10.320312 9.929688 10.300781 9.4375 10.183594 C 9.464844 7.667969 10.632812 5.433594 12.453125 3.960938 C 13.566406 4.667969 15.300781 6.292969 16.925781 8.066406 C 16.847656 8.164062 16.738281 8.253906 16.707031 8.292969 L 17.039062 8.46875 C 18.667969 7.128906 19.996094 5.019531 20.257812 2.628906 C 21.664062 3.128906 22.890625 4.003906 23.816406 5.132812 C 22.429688 7.128906 20.507812 9.128906 18.320312 10.835938 C 18.332031 10.953125 18.390625 11.058594 18.453125 11.128906 C 20.65625 9.425781 22.601562 7.433594 24.046875 5.433594 C 24.957031 6.652344 25.527344 8.136719 25.628906 9.75 C 23.601562 9.957031 22.222656 10.632812 21.207031 11.28125 C 21.222656 11.351562 21.371094 11.472656 21.460938 11.488281 C 22.429688 10.875 23.738281 10.253906 25.640625 10.058594 C 25.644531 10.125 25.648438 10.199219 25.648438 10.269531 C 25.648438 12.496094 24.75 14.511719 23.300781 15.980469 C 22.957031 15.34375 22.53125 14.660156 22.050781 13.949219 L 21.777344 14.207031 "/>
<path style=" stroke:none;fill-rule:nonzero;fill:rgb(100%,100%,100%);fill-opacity:1;" d="M 17.195312 7.863281 C 15.527344 6.042969 13.90625 4.511719 12.753906 3.734375 C 14.097656 2.746094 15.753906 2.160156 17.546875 2.160156 C 18.367188 2.160156 19.160156 2.28125 19.90625 2.511719 C 19.695312 4.644531 18.59375 6.558594 17.195312 7.863281 "/>
<path style=" stroke:none;fill-rule:nonzero;fill:rgb(0%,40.392157%,69.411765%);fill-opacity:1;" d="M 13.261719 5.375 L 13.324219 5.578125 L 13.542969 5.578125 L 13.367188 5.707031 L 13.429688 5.90625 L 13.261719 5.78125 L 13.089844 5.90625 L 13.15625 5.703125 L 12.980469 5.578125 L 13.195312 5.578125 Z M 13.261719 5.375 "/>
<path style=" stroke:none;fill-rule:nonzero;fill:rgb(0%,40.392157%,69.411765%);fill-opacity:1;" d="M 14.535156 6.117188 L 14.597656 6.320312 L 14.8125 6.320312 L 14.640625 6.445312 L 14.703125 6.648438 L 14.535156 6.523438 L 14.363281 6.648438 L 14.429688 6.445312 L 14.25 6.320312 L 14.46875 6.320312 Z M 14.535156 6.117188 "/>
<path style=" stroke:none;fill-rule:nonzero;fill:rgb(0%,40.392157%,69.411765%);fill-opacity:1;" d="M 13.988281 5.542969 L 14.050781 5.746094 L 14.269531 5.746094 L 14.09375 5.875 L 14.15625 6.074219 L 13.988281 5.953125 L 13.816406 6.074219 L 13.882812 5.875 L 13.707031 5.746094 L 13.925781 5.746094 Z M 13.988281 5.542969 "/>
<path style=" stroke:none;fill-rule:nonzero;fill:rgb(0%,40.392157%,69.411765%);fill-opacity:1;" d="M 14.738281 6.816406 L 14.804688 7.019531 L 15.023438 7.019531 L 14.847656 7.148438 L 14.910156 7.347656 L 14.742188 7.226562 L 14.574219 7.347656 L 14.636719 7.148438 L 14.460938 7.019531 L 14.675781 7.019531 Z M 14.738281 6.816406 "/>
<path style=" stroke:none;fill-rule:nonzero;fill:rgb(0%,40.392157%,69.411765%);fill-opacity:1;" d="M 14.648438 7.558594 L 14.714844 7.761719 L 14.929688 7.761719 L 14.753906 7.890625 L 14.820312 8.089844 L 14.648438 7.964844 L 14.480469 8.089844 L 14.546875 7.890625 L 14.371094 7.761719 L 14.585938 7.761719 Z M 14.648438 7.558594 "/>
<path style=" stroke:none;fill-rule:nonzero;fill:rgb(0%,40.392157%,69.411765%);fill-opacity:1;" d="M 14.242188 8.148438 L 14.304688 8.351562 L 14.523438 8.351562 L 14.351562 8.480469 L 14.414062 8.679688 L 14.246094 8.558594 L 14.074219 8.679688 L 14.136719 8.480469 L 13.960938 8.351562 L 14.179688 8.351562 Z M 14.242188 8.148438 "/>
<path style=" stroke:none;fill-rule:nonzero;fill:rgb(0%,40.392157%,69.411765%);fill-opacity:1;" d="M 13.597656 8.480469 L 13.664062 8.683594 L 13.878906 8.683594 L 13.703125 8.8125 L 13.765625 9.011719 L 13.597656 8.886719 L 13.429688 9.011719 L 13.492188 8.8125 L 13.320312 8.683594 L 13.535156 8.683594 Z M 13.597656 8.480469 "/>
<path style=" stroke:none;fill-rule:nonzero;fill:rgb(0%,40.392157%,69.411765%);fill-opacity:1;" d="M 11.964844 6.050781 L 11.902344 6.253906 L 11.6875 6.253906 L 11.859375 6.382812 L 11.796875 6.582031 L 11.964844 6.460938 L 12.136719 6.582031 L 12.070312 6.382812 L 12.246094 6.253906 L 12.03125 6.253906 Z M 11.964844 6.050781 "/>
<path style=" stroke:none;fill-rule:nonzero;fill:rgb(0%,40.392157%,69.411765%);fill-opacity:1;" d="M 12.5 5.542969 L 12.433594 5.746094 L 12.21875 5.746094 L 12.394531 5.875 L 12.328125 6.074219 L 12.5 5.953125 L 12.667969 6.074219 L 12.601562 5.875 L 12.78125 5.746094 L 12.5625 5.746094 Z M 12.5 5.542969 "/>
<path style=" stroke:none;fill-rule:nonzero;fill:rgb(0%,40.392157%,69.411765%);fill-opacity:1;" d="M 11.71875 6.726562 L 11.65625 6.929688 L 11.4375 6.929688 L 11.613281 7.058594 L 11.550781 7.257812 L 11.71875 7.136719 L 11.886719 7.257812 L 11.824219 7.058594 L 12 6.929688 L 11.785156 6.929688 Z M 11.71875 6.726562 "/>
<path style=" stroke:none;fill-rule:nonzero;fill:rgb(0%,40.392157%,69.411765%);fill-opacity:1;" d="M 11.785156 7.46875 L 11.71875 7.671875 L 11.503906 7.671875 L 11.679688 7.800781 L 11.613281 8 L 11.785156 7.875 L 11.957031 8 L 11.890625 7.800781 L 12.066406 7.671875 L 11.851562 7.671875 Z M 11.785156 7.46875 "/>
<path style=" stroke:none;fill-rule:nonzero;fill:rgb(0%,40.392157%,69.411765%);fill-opacity:1;" d="M 12.195312 8.074219 L 12.128906 8.277344 L 11.910156 8.277344 L 12.089844 8.402344 L 12.023438 8.601562 L 12.195312 8.476562 L 12.367188 8.601562 L 12.300781 8.402344 L 12.472656 8.273438 L 12.257812 8.273438 Z M 12.195312 8.074219 "/>
<path style=" stroke:none;fill-rule:nonzero;fill:rgb(0%,40.392157%,69.411765%);fill-opacity:1;" d="M 12.835938 8.457031 L 12.773438 8.660156 L 12.554688 8.660156 L 12.730469 8.785156 L 12.664062 8.988281 L 12.832031 8.863281 L 13.003906 8.988281 L 12.941406 8.785156 L 13.117188 8.660156 L 12.902344 8.660156 Z M 12.835938 8.457031 "/>
<path style=" stroke:none;fill-rule:nonzero;fill:rgb(0%,40.392157%,69.411765%);fill-opacity:1;" d="M 14.914062 13.460938 C 14.503906 13.6875 14.136719 13.882812 13.726562 14.078125 C 13.703125 13.996094 13.679688 13.851562 13.679688 13.753906 C 14.046875 13.574219 14.417969 13.382812 14.78125 13.179688 C 14.824219 13.277344 14.867188 13.371094 14.914062 13.460938 "/>
<path style=" stroke:none;fill-rule:nonzero;fill:rgb(100%,100%,100%);fill-opacity:1;" d="M 8.828125 22.601562 C 8.945312 22.601562 9.046875 22.609375 9.148438 22.53125 C 9.234375 22.472656 9.300781 22.347656 9.300781 22.226562 C 9.300781 22.039062 9.195312 21.984375 9.042969 21.984375 C 8.859375 21.984375 8.859375 22.027344 8.832031 22.210938 L 8.773438 22.597656 L 8.828125 22.597656 Z M 8.671875 23.257812 C 8.65625 23.351562 8.777344 23.371094 8.863281 23.371094 L 8.828125 23.589844 L 8.019531 23.589844 L 8.050781 23.371094 L 8.097656 23.371094 C 8.125 23.367188 8.179688 23.351562 8.203125 23.335938 C 8.277344 23.285156 8.28125 23.191406 8.296875 23.105469 L 8.449219 22.101562 C 8.464844 22.007812 8.371094 21.984375 8.265625 21.984375 L 8.300781 21.765625 L 9.085938 21.765625 C 9.207031 21.765625 9.375 21.765625 9.488281 21.808594 C 9.648438 21.867188 9.734375 22.015625 9.734375 22.207031 C 9.734375 22.417969 9.632812 22.625 9.472656 22.722656 C 9.304688 22.828125 9.109375 22.832031 8.925781 22.832031 L 8.734375 22.832031 Z M 8.671875 23.257812 "/>
<path style=" stroke:none;fill-rule:nonzero;fill:rgb(100%,100%,100%);fill-opacity:1;" d="M 10.152344 23.253906 C 10.136719 23.355469 10.25 23.371094 10.339844 23.371094 L 10.304688 23.589844 L 9.472656 23.589844 L 9.507812 23.371094 L 9.5625 23.371094 C 9.589844 23.367188 9.644531 23.351562 9.667969 23.335938 C 9.742188 23.289062 9.75 23.191406 9.761719 23.109375 L 9.914062 22.105469 C 9.925781 22.011719 9.835938 21.996094 9.765625 21.988281 L 9.722656 21.988281 L 9.753906 21.765625 L 10.585938 21.765625 L 10.550781 21.988281 C 10.484375 21.984375 10.460938 21.988281 10.40625 22.015625 C 10.320312 22.0625 10.3125 22.15625 10.300781 22.25 L 10.261719 22.496094 L 10.847656 22.496094 L 10.90625 22.105469 C 10.921875 22.007812 10.808594 21.988281 10.726562 21.988281 L 10.757812 21.765625 L 11.570312 21.765625 L 11.539062 21.988281 C 11.480469 21.984375 11.453125 21.988281 11.402344 22.015625 C 11.316406 22.0625 11.308594 22.15625 11.296875 22.25 L 11.144531 23.261719 C 11.132812 23.355469 11.246094 23.375 11.324219 23.375 L 11.289062 23.597656 L 10.480469 23.597656 L 10.515625 23.375 L 10.5625 23.375 C 10.589844 23.371094 10.644531 23.355469 10.667969 23.34375 C 10.738281 23.292969 10.746094 23.199219 10.761719 23.113281 L 10.820312 22.730469 L 10.226562 22.730469 Z M 10.152344 23.253906 "/>
<path style=" stroke:none;fill-rule:nonzero;fill:rgb(100%,100%,100%);fill-opacity:1;" d="M 12.269531 23.589844 L 11.445312 23.589844 L 11.480469 23.371094 C 11.535156 23.371094 11.582031 23.363281 11.625 23.34375 C 11.707031 23.304688 11.71875 23.199219 11.730469 23.109375 L 11.882812 22.105469 C 11.898438 22.011719 11.804688 21.996094 11.738281 21.988281 L 11.695312 21.988281 L 11.730469 21.765625 L 12.554688 21.765625 L 12.515625 21.988281 C 12.46875 21.988281 12.421875 21.992188 12.382812 22.015625 C 12.296875 22.054688 12.289062 22.160156 12.277344 22.25 L 12.125 23.261719 C 12.113281 23.355469 12.222656 23.371094 12.304688 23.378906 Z M 12.269531 23.589844 "/>
<path style=" stroke:none;fill-rule:nonzero;fill:rgb(100%,100%,100%);fill-opacity:1;" d="M 13.824219 23.589844 L 12.433594 23.589844 L 12.464844 23.371094 C 12.515625 23.371094 12.5625 23.363281 12.597656 23.34375 C 12.683594 23.304688 12.695312 23.199219 12.707031 23.109375 L 12.859375 22.105469 C 12.875 22.011719 12.78125 21.988281 12.683594 21.988281 L 12.714844 21.765625 L 13.550781 21.765625 L 13.519531 21.988281 C 13.449219 21.988281 13.425781 21.988281 13.367188 22.015625 C 13.28125 22.0625 13.273438 22.15625 13.261719 22.25 L 13.101562 23.285156 C 13.089844 23.347656 13.1875 23.371094 13.230469 23.371094 C 13.390625 23.371094 13.515625 23.3125 13.652344 23.207031 C 13.785156 23.101562 13.835938 23.023438 13.9375 22.867188 L 14.101562 22.964844 Z M 13.824219 23.589844 "/>
<path style=" stroke:none;fill-rule:nonzero;fill:rgb(100%,100%,100%);fill-opacity:1;" d="M 14.996094 22.148438 L 14.707031 22.734375 L 15.09375 22.734375 Z M 15.582031 23.082031 C 15.589844 23.132812 15.613281 23.226562 15.632812 23.273438 C 15.660156 23.34375 15.714844 23.347656 15.773438 23.367188 L 15.800781 23.371094 L 15.765625 23.589844 L 14.9375 23.589844 L 14.972656 23.371094 L 15.015625 23.371094 C 15.074219 23.359375 15.203125 23.351562 15.183594 23.265625 L 15.128906 22.941406 L 14.609375 22.941406 L 14.488281 23.195312 C 14.472656 23.226562 14.464844 23.25 14.464844 23.289062 C 14.464844 23.367188 14.597656 23.363281 14.644531 23.375 L 14.609375 23.59375 L 13.933594 23.59375 L 13.964844 23.375 C 14.191406 23.324219 14.226562 23.195312 14.324219 23.003906 L 14.960938 21.769531 L 15.3125 21.769531 Z M 15.582031 23.082031 "/>
<path style=" stroke:none;fill-rule:nonzero;fill:rgb(100%,100%,100%);fill-opacity:1;" d="M 16.472656 23.207031 C 16.46875 23.222656 16.464844 23.25 16.464844 23.269531 C 16.464844 23.355469 16.574219 23.371094 16.628906 23.371094 C 17.046875 23.371094 17.257812 22.894531 17.257812 22.472656 C 17.257812 22.167969 17.140625 21.988281 16.863281 21.988281 C 16.8125 21.988281 16.71875 21.992188 16.679688 22.03125 C 16.640625 22.066406 16.636719 22.152344 16.628906 22.203125 L 16.480469 23.140625 Z M 16.824219 21.765625 C 17.015625 21.765625 17.242188 21.757812 17.414062 21.886719 C 17.601562 22.03125 17.667969 22.265625 17.667969 22.515625 C 17.667969 22.832031 17.550781 23.167969 17.332031 23.367188 C 17.089844 23.585938 16.785156 23.589844 16.484375 23.589844 L 15.8125 23.589844 L 15.851562 23.371094 C 15.894531 23.371094 15.941406 23.363281 15.976562 23.34375 C 16.0625 23.304688 16.074219 23.199219 16.085938 23.109375 L 16.238281 22.105469 C 16.253906 22.011719 16.160156 21.996094 16.0625 21.988281 L 16.097656 21.765625 Z M 16.824219 21.765625 "/>
<path style=" stroke:none;fill-rule:nonzero;fill:rgb(100%,100%,100%);fill-opacity:1;" d="M 18.949219 23.589844 L 17.457031 23.589844 L 17.492188 23.371094 C 17.539062 23.371094 17.582031 23.363281 17.621094 23.34375 C 17.703125 23.304688 17.714844 23.199219 17.726562 23.109375 L 17.878906 22.105469 C 17.882812 22.066406 17.875 22.046875 17.84375 22.027344 C 17.8125 22 17.757812 21.988281 17.71875 21.988281 L 17.753906 21.765625 L 19.117188 21.765625 L 19.25 22.359375 L 19.085938 22.421875 C 18.980469 22.148438 18.800781 21.988281 18.539062 21.988281 C 18.480469 21.988281 18.375 21.992188 18.328125 22.039062 C 18.285156 22.089844 18.273438 22.191406 18.265625 22.257812 L 18.226562 22.503906 L 18.394531 22.503906 C 18.503906 22.503906 18.566406 22.351562 18.589844 22.222656 L 18.757812 22.222656 L 18.632812 23.035156 L 18.460938 23.035156 L 18.460938 22.960938 C 18.460938 22.757812 18.375 22.734375 18.1875 22.734375 L 18.109375 23.265625 C 18.09375 23.363281 18.230469 23.371094 18.292969 23.371094 C 18.628906 23.371094 18.832031 23.179688 19.054688 22.894531 L 19.210938 22.988281 Z M 18.949219 23.589844 "/>
<path style=" stroke:none;fill-rule:nonzero;fill:rgb(100%,100%,100%);fill-opacity:1;" d="M 20.589844 23.589844 L 19.195312 23.589844 L 19.226562 23.371094 C 19.277344 23.371094 19.320312 23.363281 19.363281 23.34375 C 19.449219 23.304688 19.453125 23.199219 19.46875 23.109375 L 19.621094 22.105469 C 19.632812 22.011719 19.542969 21.988281 19.449219 21.988281 L 19.476562 21.765625 L 20.316406 21.765625 L 20.28125 21.988281 C 20.210938 21.988281 20.1875 21.988281 20.132812 22.015625 C 20.046875 22.0625 20.039062 22.15625 20.023438 22.25 L 19.867188 23.285156 C 19.859375 23.347656 19.953125 23.371094 19.992188 23.371094 C 20.15625 23.371094 20.28125 23.3125 20.417969 23.207031 C 20.546875 23.101562 20.597656 23.019531 20.703125 22.863281 L 20.863281 22.964844 Z M 20.589844 23.589844 "/>
<path style=" stroke:none;fill-rule:nonzero;fill:rgb(100%,100%,100%);fill-opacity:1;" d="M 21.554688 22.601562 C 21.671875 22.601562 21.773438 22.609375 21.875 22.53125 C 21.960938 22.472656 22.023438 22.347656 22.023438 22.226562 C 22.023438 22.039062 21.917969 21.984375 21.769531 21.984375 C 21.585938 21.984375 21.585938 22.027344 21.558594 22.210938 L 21.5 22.597656 L 21.554688 22.597656 Z M 21.398438 23.257812 C 21.382812 23.351562 21.5 23.371094 21.589844 23.371094 L 21.550781 23.589844 L 20.742188 23.589844 L 20.773438 23.371094 L 20.820312 23.371094 C 20.847656 23.367188 20.902344 23.351562 20.925781 23.335938 C 21 23.285156 21.007812 23.191406 21.019531 23.105469 L 21.171875 22.101562 C 21.1875 22.007812 21.09375 21.984375 20.992188 21.984375 L 21.023438 21.765625 L 21.808594 21.765625 C 21.929688 21.765625 22.097656 21.765625 22.210938 21.808594 C 22.371094 21.867188 22.457031 22.015625 22.457031 22.207031 C 22.457031 22.417969 22.355469 22.625 22.195312 22.722656 C 22.027344 22.828125 21.828125 22.832031 21.648438 22.832031 L 21.460938 22.832031 Z M 21.398438 23.257812 "/>
<path style=" stroke:none;fill-rule:nonzero;fill:rgb(100%,100%,100%);fill-opacity:1;" d="M 22.921875 23.253906 C 22.90625 23.355469 23.019531 23.371094 23.113281 23.371094 L 23.074219 23.589844 L 22.246094 23.589844 L 22.273438 23.371094 L 22.332031 23.371094 C 22.355469 23.367188 22.410156 23.351562 22.4375 23.335938 C 22.507812 23.289062 22.515625 23.191406 22.527344 23.109375 L 22.683594 22.105469 C 22.699219 22.011719 22.605469 21.996094 22.535156 21.988281 L 22.492188 21.988281 L 22.527344 21.765625 L 23.359375 21.765625 L 23.324219 21.988281 C 23.257812 21.984375 23.234375 21.988281 23.179688 22.015625 C 23.09375 22.0625 23.085938 22.15625 23.074219 22.25 L 23.035156 22.496094 L 23.625 22.496094 L 23.679688 22.105469 C 23.695312 22.007812 23.589844 21.988281 23.5 21.988281 L 23.535156 21.765625 L 24.347656 21.765625 L 24.316406 21.988281 C 24.253906 21.984375 24.230469 21.988281 24.179688 22.015625 C 24.09375 22.0625 24.085938 22.15625 24.070312 22.25 L 23.917969 23.261719 C 23.902344 23.355469 24.019531 23.375 24.101562 23.375 L 24.066406 23.597656 L 23.25 23.597656 L 23.285156 23.375 L 23.328125 23.375 C 23.359375 23.371094 23.410156 23.355469 23.433594 23.34375 C 23.507812 23.292969 23.515625 23.199219 23.527344 23.113281 L 23.585938 22.730469 L 22.996094 22.730469 Z M 22.921875 23.253906 "/>
<path style=" stroke:none;fill-rule:nonzero;fill:rgb(100%,100%,100%);fill-opacity:1;" d="M 25.039062 23.589844 L 24.21875 23.589844 L 24.25 23.371094 C 24.308594 23.371094 24.355469 23.363281 24.394531 23.34375 C 24.476562 23.304688 24.488281 23.199219 24.503906 23.109375 L 24.65625 22.105469 C 24.671875 22.011719 24.578125 21.996094 24.507812 21.988281 L 24.46875 21.988281 L 24.5 21.765625 L 25.324219 21.765625 L 25.289062 21.988281 C 25.238281 21.988281 25.195312 21.992188 25.15625 22.015625 C 25.070312 22.054688 25.058594 22.160156 25.046875 22.25 L 24.894531 23.261719 C 24.878906 23.355469 24.992188 23.371094 25.074219 23.378906 Z M 25.039062 23.589844 "/>
<path style=" stroke:none;fill-rule:nonzero;fill:rgb(100%,100%,100%);fill-opacity:1;" d="M 26.171875 22.148438 L 25.886719 22.734375 L 26.269531 22.734375 Z M 26.757812 23.082031 C 26.769531 23.132812 26.789062 23.226562 26.808594 23.273438 C 26.835938 23.34375 26.890625 23.347656 26.949219 23.367188 L 26.976562 23.371094 L 26.945312 23.589844 L 26.113281 23.589844 L 26.152344 23.371094 L 26.191406 23.371094 C 26.25 23.359375 26.378906 23.351562 26.359375 23.265625 L 26.304688 22.941406 L 25.785156 22.941406 L 25.664062 23.195312 C 25.652344 23.226562 25.640625 23.25 25.640625 23.289062 C 25.640625 23.367188 25.773438 23.363281 25.824219 23.375 L 25.785156 23.59375 L 25.109375 23.59375 L 25.140625 23.375 C 25.367188 23.324219 25.402344 23.195312 25.5 23.003906 L 26.136719 21.769531 L 26.488281 21.769531 Z M 26.757812 23.082031 "/>
<path style=" stroke:none;fill-rule:nonzero;fill:rgb(0%,40.392157%,69.411765%);fill-opacity:1;" d="M 21.800781 13.886719 L 20.609375 13.886719 L 20.609375 13.585938 L 20.828125 13.554688 L 20.828125 12.621094 C 20.828125 12.289062 20.785156 12.128906 20.546875 12.128906 L 20.546875 11.867188 L 21.390625 11.621094 C 21.484375 11.804688 21.515625 12.023438 21.53125 12.234375 L 21.539062 12.234375 C 21.621094 11.980469 21.726562 11.625 22.003906 11.625 C 22.246094 11.625 22.351562 11.8125 22.351562 12.039062 C 22.351562 12.269531 22.253906 12.460938 22.078125 12.460938 C 21.957031 12.460938 21.851562 12.410156 21.792969 12.390625 C 21.640625 12.335938 21.589844 13.007812 21.589844 13.148438 L 21.589844 13.554688 L 21.800781 13.585938 Z M 21.800781 13.886719 "/>
<path style=" stroke:none;fill-rule:nonzero;fill:rgb(0%,40.392157%,69.411765%);fill-opacity:1;" d="M 23.800781 12.058594 C 23.800781 12.242188 23.644531 12.332031 23.472656 12.332031 C 23.269531 12.332031 23.125 12.167969 23.089844 11.96875 C 23 11.96875 22.941406 12.011719 22.941406 12.160156 C 22.941406 12.503906 23.914062 12.257812 23.914062 13.132812 C 23.914062 13.785156 23.441406 13.949219 22.984375 13.949219 C 22.710938 13.949219 22.222656 13.910156 22.222656 13.488281 C 22.222656 13.296875 22.328125 13.152344 22.519531 13.152344 C 22.816406 13.152344 22.867188 13.425781 22.917969 13.617188 C 22.933594 13.667969 22.976562 13.675781 23.015625 13.675781 C 23.171875 13.675781 23.285156 13.613281 23.285156 13.507812 C 23.285156 13.117188 22.285156 13.269531 22.285156 12.417969 C 22.285156 11.878906 22.925781 11.632812 23.234375 11.632812 C 23.582031 11.636719 23.800781 11.75 23.800781 12.058594 "/>
<path style=" stroke:none;fill-rule:nonzero;fill:rgb(0%,40.392157%,69.411765%);fill-opacity:1;" d="M 16.617188 13.695312 C 16.195312 13.695312 16.210938 13.15625 16.210938 12.527344 C 16.210938 11.898438 16.269531 11.355469 16.617188 11.355469 C 17.042969 11.355469 17.0625 11.898438 17.0625 12.527344 C 17.0625 13.152344 16.980469 13.695312 16.617188 13.695312 M 17.144531 10.621094 C 16.761719 10.621094 16.375 10.773438 16.171875 11.089844 L 16.164062 11.089844 L 16.203125 10.542969 C 16.222656 10.171875 16.304688 9.160156 16.824219 9.160156 C 17.070312 9.160156 17.015625 9.488281 17.046875 9.640625 C 17.113281 9.988281 17.265625 10.390625 17.746094 10.390625 C 18.070312 10.390625 18.414062 10.171875 18.414062 9.730469 C 18.414062 9.050781 17.84375 8.601562 17.152344 8.601562 C 15.378906 8.601562 14.664062 9.957031 14.664062 11.601562 C 14.664062 13.023438 15.21875 14.253906 16.742188 14.253906 C 17.734375 14.253906 18.535156 13.550781 18.535156 12.367188 C 18.535156 11.363281 18.003906 10.621094 17.144531 10.621094 "/>
<path style=" stroke:none;fill-rule:nonzero;fill:rgb(92.941176%,9.019608%,30.980392%);fill-opacity:1;" d="M 11.277344 8.570312 L 11.277344 10.6875 C 12.464844 10.859375 13.878906 10.746094 14.875 9.28125 C 14.917969 9.222656 14.941406 9.265625 14.914062 9.316406 C 14.636719 9.886719 13.976562 10.414062 13.40625 10.863281 C 12.855469 11.292969 11.386719 12.835938 11.40625 14.195312 C 11.40625 14.296875 11.410156 14.269531 11.5 14.203125 C 11.945312 13.871094 12.820312 13.863281 13.355469 14.117188 C 13.429688 14.152344 13.4375 14.144531 13.429688 14.046875 C 13.328125 12.996094 13.5625 11.84375 14.015625 11.175781 C 14.324219 10.714844 15.160156 9.523438 15.308594 8.589844 C 15.320312 8.496094 15.269531 8.507812 15.148438 8.636719 C 14.203125 9.636719 12.488281 9.613281 11.382812 8.550781 C 11.316406 8.480469 11.285156 8.511719 11.277344 8.570312 "/>
<path style=" stroke:none;fill-rule:nonzero;fill:rgb(0%,40.392157%,69.411765%);fill-opacity:1;" d="M 19.453125 12.414062 C 19.453125 12.242188 19.453125 11.929688 19.636719 11.929688 C 19.8125 11.929688 19.851562 12.191406 19.851562 12.335938 C 19.851562 12.507812 19.769531 12.554688 19.648438 12.585938 L 19.453125 12.636719 Z M 19.949219 13.453125 C 19.6875 13.453125 19.53125 13.210938 19.507812 12.96875 L 20.636719 12.664062 C 20.601562 12.113281 20.285156 11.628906 19.683594 11.628906 C 19.046875 11.628906 18.625 12.121094 18.625 12.855469 C 18.625 13.429688 18.953125 13.949219 19.640625 13.949219 C 20.039062 13.949219 20.417969 13.761719 20.625 13.414062 L 20.402344 13.148438 C 20.292969 13.320312 20.164062 13.453125 19.949219 13.453125 "/>
</g>
</svg>
