<?xml version="1.0" encoding="UTF-8"?>
<svg xmlns="http://www.w3.org/2000/svg" xmlns:xlink="http://www.w3.org/1999/xlink" width="16pt" height="20pt" viewBox="0 0 16 20" version="1.1">
<defs>
<clipPath id="clip1">
  <path d="M 3 16 L 4 16 L 4 19 L 3 19 Z M 3 16 "/>
</clipPath>
<clipPath id="clip2">
  <path d="M 3.515625 16.503906 L 3.613281 16.679688 L 3.109375 18.609375 L 3.636719 18.609375 L 3.6875 18.417969 L 3.417969 18.417969 L 3.917969 16.503906 Z M 3.515625 16.503906 "/>
</clipPath>
<linearGradient id="linear0" gradientUnits="userSpaceOnUse" x1="-162.7505" y1="467.8828" x2="-157.9972" y2="467.8828" gradientTransform="matrix(0,0.444448,0.433608,0,-199.362521,88.839424)">
<stop offset="0" style="stop-color:rgb(100%,100%,100%);stop-opacity:1;"/>
<stop offset="0.1461" style="stop-color:rgb(100%,100%,100%);stop-opacity:1;"/>
<stop offset="0.2818" style="stop-color:rgb(98.039216%,98.431373%,98.431373%);stop-opacity:1;"/>
<stop offset="0.4423" style="stop-color:rgb(92.54902%,93.72549%,94.509804%);stop-opacity:1;"/>
<stop offset="0.6148" style="stop-color:rgb(83.137255%,85.882353%,87.843137%);stop-opacity:1;"/>
<stop offset="0.7079" style="stop-color:rgb(76.862745%,80.784314%,83.137255%);stop-opacity:1;"/>
<stop offset="1" style="stop-color:rgb(76.862745%,80.784314%,83.137255%);stop-opacity:1;"/>
</linearGradient>
<clipPath id="clip3">
  <path d="M 4 16 L 6 16 L 6 19 L 4 19 Z M 4 16 "/>
</clipPath>
<clipPath id="clip4">
  <path d="M 5.066406 16.871094 L 4.863281 17.882812 L 4.710938 17.882812 Z M 4.898438 16.675781 L 4.195312 18.609375 L 4.457031 18.609375 L 4.640625 18.074219 L 4.828125 18.074219 L 4.714844 18.609375 L 4.984375 18.609375 L 5.363281 16.503906 L 4.8125 16.503906 Z M 4.898438 16.675781 "/>
</clipPath>
<linearGradient id="linear1" gradientUnits="userSpaceOnUse" x1="-162.7549" y1="470.1895" x2="-158.0021" y2="470.1895" gradientTransform="matrix(0,0.444488,0.433647,0,-199.118829,88.848312)">
<stop offset="0" style="stop-color:rgb(100%,100%,100%);stop-opacity:1;"/>
<stop offset="0.1461" style="stop-color:rgb(100%,100%,100%);stop-opacity:1;"/>
<stop offset="0.2818" style="stop-color:rgb(98.039216%,98.431373%,98.431373%);stop-opacity:1;"/>
<stop offset="0.4423" style="stop-color:rgb(92.54902%,93.72549%,94.509804%);stop-opacity:1;"/>
<stop offset="0.6148" style="stop-color:rgb(83.137255%,85.882353%,87.843137%);stop-opacity:1;"/>
<stop offset="0.7079" style="stop-color:rgb(76.862745%,80.784314%,83.137255%);stop-opacity:1;"/>
<stop offset="1" style="stop-color:rgb(76.862745%,80.784314%,83.137255%);stop-opacity:1;"/>
</linearGradient>
<clipPath id="clip5">
  <path d="M 5 16 L 7 16 L 7 19 L 5 19 Z M 5 16 "/>
</clipPath>
<clipPath id="clip6">
  <path d="M 5.953125 16.503906 L 6.050781 16.6875 L 6.320312 16.6875 L 5.457031 18.609375 L 6.144531 18.609375 L 6.195312 18.417969 L 5.824219 18.417969 L 6.683594 16.503906 Z M 5.953125 16.503906 "/>
</clipPath>
<linearGradient id="linear2" gradientUnits="userSpaceOnUse" x1="-162.7588" y1="472.5469" x2="-158.0065" y2="472.5469" gradientTransform="matrix(0,0.444536,0.433694,0,-198.869058,88.857208)">
<stop offset="0" style="stop-color:rgb(100%,100%,100%);stop-opacity:1;"/>
<stop offset="0.1461" style="stop-color:rgb(100%,100%,100%);stop-opacity:1;"/>
<stop offset="0.2818" style="stop-color:rgb(98.039216%,98.431373%,98.431373%);stop-opacity:1;"/>
<stop offset="0.4423" style="stop-color:rgb(92.54902%,93.72549%,94.509804%);stop-opacity:1;"/>
<stop offset="0.6148" style="stop-color:rgb(83.137255%,85.882353%,87.843137%);stop-opacity:1;"/>
<stop offset="0.7079" style="stop-color:rgb(76.862745%,80.784314%,83.137255%);stop-opacity:1;"/>
<stop offset="1" style="stop-color:rgb(76.862745%,80.784314%,83.137255%);stop-opacity:1;"/>
</linearGradient>
<clipPath id="clip7">
  <path d="M 6 16 L 8 16 L 8 19 L 6 19 Z M 6 16 "/>
</clipPath>
<clipPath id="clip8">
  <path d="M 7.191406 16.503906 L 7.292969 16.679688 L 6.789062 18.609375 L 7.351562 18.609375 L 7.402344 18.417969 L 7.097656 18.417969 C 7.097656 18.417969 7.292969 17.675781 7.316406 17.585938 L 7.585938 17.585938 L 7.636719 17.394531 L 7.367188 17.394531 L 7.550781 16.6875 L 7.851562 16.6875 L 7.898438 16.503906 Z M 7.191406 16.503906 "/>
</clipPath>
<linearGradient id="linear3" gradientUnits="userSpaceOnUse" x1="-162.7588" y1="474.8652" x2="-158.0065" y2="474.8652" gradientTransform="matrix(0,0.444536,0.433694,0,-198.601374,88.857208)">
<stop offset="0" style="stop-color:rgb(100%,100%,100%);stop-opacity:1;"/>
<stop offset="0.1461" style="stop-color:rgb(100%,100%,100%);stop-opacity:1;"/>
<stop offset="0.2818" style="stop-color:rgb(98.039216%,98.431373%,98.431373%);stop-opacity:1;"/>
<stop offset="0.4423" style="stop-color:rgb(92.54902%,93.72549%,94.509804%);stop-opacity:1;"/>
<stop offset="0.6148" style="stop-color:rgb(83.137255%,85.882353%,87.843137%);stop-opacity:1;"/>
<stop offset="0.7079" style="stop-color:rgb(76.862745%,80.784314%,83.137255%);stop-opacity:1;"/>
<stop offset="1" style="stop-color:rgb(76.862745%,80.784314%,83.137255%);stop-opacity:1;"/>
</linearGradient>
<clipPath id="clip9">
  <path d="M 7 16 L 10 16 L 10 19 L 7 19 Z M 7 16 "/>
</clipPath>
<clipPath id="clip10">
  <path d="M 8.734375 16.675781 C 8.734375 16.675781 8.828125 16.671875 8.859375 16.683594 C 8.886719 16.691406 8.886719 16.71875 8.875 16.773438 L 8.746094 17.261719 C 8.726562 17.335938 8.710938 17.347656 8.699219 17.359375 C 8.683594 17.375 8.644531 17.394531 8.566406 17.394531 L 8.546875 17.394531 Z M 8.828125 16.503906 L 8.371094 16.503906 L 8.472656 16.679688 L 7.96875 18.609375 L 8.226562 18.609375 C 8.226562 18.609375 8.46875 17.679688 8.496094 17.585938 L 8.515625 17.585938 C 8.566406 17.585938 8.601562 17.589844 8.621094 17.605469 C 8.636719 17.621094 8.644531 17.652344 8.632812 17.703125 L 8.394531 18.609375 L 8.652344 18.609375 L 8.882812 17.726562 C 8.90625 17.644531 8.921875 17.570312 8.867188 17.515625 C 8.847656 17.5 8.824219 17.492188 8.824219 17.492188 C 8.824219 17.492188 8.847656 17.484375 8.882812 17.464844 C 8.90625 17.453125 8.929688 17.433594 8.949219 17.410156 C 8.964844 17.390625 8.976562 17.367188 8.992188 17.316406 L 9.125 16.800781 C 9.125 16.800781 9.132812 16.78125 9.132812 16.78125 C 9.152344 16.707031 9.171875 16.621094 9.089844 16.5625 C 9.015625 16.503906 8.917969 16.503906 8.832031 16.503906 Z M 8.828125 16.503906 "/>
</clipPath>
<linearGradient id="linear4" gradientUnits="userSpaceOnUse" x1="-162.7632" y1="477.1055" x2="-158.0126" y2="477.1055" gradientTransform="matrix(0,0.444584,0.43374,0,-198.370786,88.867152)">
<stop offset="0" style="stop-color:rgb(100%,100%,100%);stop-opacity:1;"/>
<stop offset="0.1461" style="stop-color:rgb(100%,100%,100%);stop-opacity:1;"/>
<stop offset="0.2818" style="stop-color:rgb(98.039216%,98.431373%,98.431373%);stop-opacity:1;"/>
<stop offset="0.4423" style="stop-color:rgb(92.54902%,93.72549%,94.509804%);stop-opacity:1;"/>
<stop offset="0.6148" style="stop-color:rgb(83.137255%,85.882353%,87.843137%);stop-opacity:1;"/>
<stop offset="0.7079" style="stop-color:rgb(76.862745%,80.784314%,83.137255%);stop-opacity:1;"/>
<stop offset="1" style="stop-color:rgb(76.862745%,80.784314%,83.137255%);stop-opacity:1;"/>
</linearGradient>
<clipPath id="clip11">
  <path d="M 9 16 L 11 16 L 11 19 L 9 19 Z M 9 16 "/>
</clipPath>
<clipPath id="clip12">
  <path d="M 10.027344 16.503906 L 9.691406 16.503906 L 9.738281 16.59375 L 9.78125 16.667969 C 9.757812 16.703125 9.746094 16.746094 9.734375 16.789062 L 9.707031 16.882812 C 9.6875 16.96875 9.667969 17.058594 9.667969 17.125 C 9.664062 17.199219 9.683594 17.285156 9.707031 17.34375 C 9.730469 17.40625 9.855469 17.726562 9.867188 17.773438 C 9.875 17.820312 9.882812 17.851562 9.851562 17.96875 L 9.742188 18.390625 C 9.730469 18.441406 9.722656 18.464844 9.640625 18.464844 C 9.558594 18.464844 9.5625 18.433594 9.574219 18.390625 L 9.714844 17.859375 L 9.453125 17.859375 L 9.332031 18.324219 C 9.3125 18.402344 9.300781 18.476562 9.34375 18.539062 C 9.382812 18.59375 9.46875 18.621094 9.605469 18.621094 C 9.898438 18.621094 9.976562 18.480469 10.015625 18.328125 C 10.015625 18.328125 10.097656 18.027344 10.117188 17.949219 C 10.152344 17.816406 10.144531 17.757812 10.128906 17.683594 C 10.117188 17.613281 10.089844 17.550781 10.070312 17.5 L 9.972656 17.25 C 9.945312 17.179688 9.933594 17.128906 9.933594 17.066406 C 9.933594 17 9.953125 16.933594 9.976562 16.84375 L 10.007812 16.726562 C 10.019531 16.683594 10.027344 16.652344 10.113281 16.648438 C 10.148438 16.648438 10.167969 16.65625 10.175781 16.667969 C 10.183594 16.675781 10.183594 16.695312 10.175781 16.726562 L 10.066406 17.148438 L 10.324219 17.148438 L 10.417969 16.792969 C 10.4375 16.71875 10.453125 16.636719 10.410156 16.578125 C 10.367188 16.519531 10.285156 16.496094 10.152344 16.496094 C 10.105469 16.492188 10.066406 16.5 10.027344 16.503906 "/>
</clipPath>
<linearGradient id="linear5" gradientUnits="userSpaceOnUse" x1="-162.7773" y1="479.4922" x2="-158.0224" y2="479.4922" gradientTransform="matrix(0,0.444696,0.43385,0,-198.151508,88.89008)">
<stop offset="0" style="stop-color:rgb(100%,100%,100%);stop-opacity:1;"/>
<stop offset="0.1461" style="stop-color:rgb(100%,100%,100%);stop-opacity:1;"/>
<stop offset="0.2818" style="stop-color:rgb(98.039216%,98.431373%,98.431373%);stop-opacity:1;"/>
<stop offset="0.4423" style="stop-color:rgb(92.54902%,93.72549%,94.509804%);stop-opacity:1;"/>
<stop offset="0.6148" style="stop-color:rgb(83.137255%,85.882353%,87.843137%);stop-opacity:1;"/>
<stop offset="0.7079" style="stop-color:rgb(76.862745%,80.784314%,83.137255%);stop-opacity:1;"/>
<stop offset="1" style="stop-color:rgb(76.862745%,80.784314%,83.137255%);stop-opacity:1;"/>
</linearGradient>
<clipPath id="clip13">
  <path d="M 1 16 L 3 16 L 3 19 L 1 19 Z M 1 16 "/>
</clipPath>
<clipPath id="clip14">
  <path d="M 2.242188 17.585938 L 2.261719 17.585938 C 2.3125 17.585938 2.347656 17.589844 2.367188 17.605469 C 2.382812 17.621094 2.390625 17.652344 2.375 17.703125 L 2.203125 18.367188 C 2.191406 18.402344 2.183594 18.417969 2.164062 18.429688 C 2.144531 18.441406 2.117188 18.445312 2.066406 18.445312 L 2.015625 18.445312 Z M 2.480469 16.675781 C 2.480469 16.675781 2.570312 16.671875 2.601562 16.683594 C 2.632812 16.691406 2.632812 16.71875 2.621094 16.773438 L 2.492188 17.261719 C 2.472656 17.335938 2.457031 17.347656 2.445312 17.359375 C 2.425781 17.375 2.390625 17.394531 2.3125 17.394531 L 2.292969 17.394531 Z M 2.597656 16.503906 L 2.125 16.503906 L 2.21875 16.683594 L 1.714844 18.609375 L 2.023438 18.609375 C 2.109375 18.609375 2.222656 18.617188 2.328125 18.554688 C 2.441406 18.492188 2.460938 18.386719 2.476562 18.320312 L 2.632812 17.726562 C 2.652344 17.644531 2.671875 17.570312 2.617188 17.515625 C 2.597656 17.5 2.574219 17.492188 2.574219 17.492188 C 2.574219 17.492188 2.597656 17.484375 2.632812 17.464844 C 2.652344 17.453125 2.675781 17.433594 2.695312 17.410156 C 2.714844 17.390625 2.726562 17.367188 2.738281 17.320312 L 2.878906 16.78125 C 2.878906 16.777344 2.882812 16.769531 2.882812 16.765625 C 2.902344 16.695312 2.914062 16.617188 2.839844 16.5625 C 2.765625 16.507812 2.667969 16.503906 2.613281 16.503906 C 2.605469 16.503906 2.601562 16.503906 2.597656 16.503906 "/>
</clipPath>
<linearGradient id="linear6" gradientUnits="userSpaceOnUse" x1="-162.7568" y1="465.7109" x2="-158.0034" y2="465.7109" gradientTransform="matrix(0,0.444512,0.43367,0,-199.651411,88.85328)">
<stop offset="0" style="stop-color:rgb(100%,100%,100%);stop-opacity:1;"/>
<stop offset="0.1461" style="stop-color:rgb(100%,100%,100%);stop-opacity:1;"/>
<stop offset="0.2818" style="stop-color:rgb(98.039216%,98.431373%,98.431373%);stop-opacity:1;"/>
<stop offset="0.4423" style="stop-color:rgb(92.54902%,93.72549%,94.509804%);stop-opacity:1;"/>
<stop offset="0.6148" style="stop-color:rgb(83.137255%,85.882353%,87.843137%);stop-opacity:1;"/>
<stop offset="0.7079" style="stop-color:rgb(76.862745%,80.784314%,83.137255%);stop-opacity:1;"/>
<stop offset="1" style="stop-color:rgb(76.862745%,80.784314%,83.137255%);stop-opacity:1;"/>
</linearGradient>
<clipPath id="clip15">
  <path d="M 8 14 L 10 14 L 10 17 L 8 17 Z M 8 14 "/>
</clipPath>
<clipPath id="clip16">
  <path d="M 9.210938 14.238281 L 8.707031 16.164062 L 9.234375 16.164062 L 9.285156 15.976562 L 9.015625 15.976562 L 9.515625 14.0625 L 9.113281 14.0625 Z M 9.210938 14.238281 "/>
</clipPath>
<linearGradient id="linear7" gradientUnits="userSpaceOnUse" x1="-166.9141" y1="477.8506" x2="-162.1558" y2="477.8506" gradientTransform="matrix(0,0.442168,0.431383,0,-197.025647,87.862176)">
<stop offset="0" style="stop-color:rgb(100%,100%,100%);stop-opacity:1;"/>
<stop offset="0.1461" style="stop-color:rgb(100%,100%,100%);stop-opacity:1;"/>
<stop offset="0.2818" style="stop-color:rgb(98.039216%,98.431373%,98.431373%);stop-opacity:1;"/>
<stop offset="0.4423" style="stop-color:rgb(92.54902%,93.72549%,94.509804%);stop-opacity:1;"/>
<stop offset="0.6148" style="stop-color:rgb(83.137255%,85.882353%,87.843137%);stop-opacity:1;"/>
<stop offset="0.7079" style="stop-color:rgb(76.862745%,80.784314%,83.137255%);stop-opacity:1;"/>
<stop offset="1" style="stop-color:rgb(76.862745%,80.784314%,83.137255%);stop-opacity:1;"/>
</linearGradient>
<clipPath id="clip17">
  <path d="M 6 14 L 8 14 L 8 17 L 6 17 Z M 6 14 "/>
</clipPath>
<clipPath id="clip18">
  <path d="M 6.90625 14.425781 L 6.707031 15.4375 L 6.550781 15.4375 Z M 6.742188 14.230469 L 6.039062 16.164062 L 6.300781 16.164062 L 6.480469 15.632812 L 6.671875 15.628906 C 6.648438 15.734375 6.554688 16.164062 6.554688 16.164062 L 6.828125 16.164062 L 7.207031 14.0625 L 6.65625 14.0625 Z M 6.742188 14.230469 "/>
</clipPath>
<linearGradient id="linear8" gradientUnits="userSpaceOnUse" x1="-166.9385" y1="473.3301" x2="-162.187" y2="473.3301" gradientTransform="matrix(0,0.442504,0.431711,0,-197.718291,87.929688)">
<stop offset="0" style="stop-color:rgb(100%,100%,100%);stop-opacity:1;"/>
<stop offset="0.1461" style="stop-color:rgb(100%,100%,100%);stop-opacity:1;"/>
<stop offset="0.2818" style="stop-color:rgb(98.039216%,98.431373%,98.431373%);stop-opacity:1;"/>
<stop offset="0.4423" style="stop-color:rgb(92.54902%,93.72549%,94.509804%);stop-opacity:1;"/>
<stop offset="0.6148" style="stop-color:rgb(83.137255%,85.882353%,87.843137%);stop-opacity:1;"/>
<stop offset="0.7079" style="stop-color:rgb(76.862745%,80.784314%,83.137255%);stop-opacity:1;"/>
<stop offset="1" style="stop-color:rgb(76.862745%,80.784314%,83.137255%);stop-opacity:1;"/>
</linearGradient>
<clipPath id="clip19">
  <path d="M 4 14 L 6 14 L 6 17 L 4 17 Z M 4 14 "/>
</clipPath>
<clipPath id="clip20">
  <path d="M 5.480469 14.234375 C 5.480469 14.234375 5.574219 14.226562 5.605469 14.238281 C 5.632812 14.25 5.632812 14.277344 5.621094 14.328125 L 5.492188 14.816406 C 5.472656 14.890625 5.460938 14.902344 5.445312 14.917969 C 5.429688 14.933594 5.394531 14.953125 5.3125 14.953125 L 5.292969 14.953125 Z M 5.578125 14.0625 L 5.121094 14.0625 L 5.21875 14.238281 L 4.714844 16.167969 L 4.972656 16.167969 L 5.242188 15.140625 L 5.265625 15.140625 C 5.316406 15.140625 5.351562 15.144531 5.367188 15.164062 C 5.386719 15.179688 5.394531 15.207031 5.378906 15.257812 L 5.140625 16.167969 L 5.402344 16.167969 L 5.632812 15.28125 C 5.652344 15.203125 5.671875 15.125 5.617188 15.074219 C 5.597656 15.054688 5.570312 15.046875 5.570312 15.046875 C 5.570312 15.046875 5.59375 15.039062 5.628906 15.019531 C 5.652344 15.007812 5.675781 14.992188 5.695312 14.964844 C 5.710938 14.945312 5.726562 14.925781 5.738281 14.875 L 5.875 14.355469 C 5.875 14.355469 5.878906 14.339844 5.878906 14.335938 C 5.898438 14.265625 5.917969 14.175781 5.835938 14.117188 C 5.761719 14.0625 5.671875 14.0625 5.585938 14.0625 C 5.582031 14.0625 5.578125 14.0625 5.578125 14.0625 "/>
</clipPath>
<linearGradient id="linear9" gradientUnits="userSpaceOnUse" x1="-166.8989" y1="470.8906" x2="-162.1456" y2="470.8906" gradientTransform="matrix(0,0.441992,0.431212,0,-197.736663,87.826624)">
<stop offset="0" style="stop-color:rgb(100%,100%,100%);stop-opacity:1;"/>
<stop offset="0.1461" style="stop-color:rgb(100%,100%,100%);stop-opacity:1;"/>
<stop offset="0.2818" style="stop-color:rgb(98.039216%,98.431373%,98.431373%);stop-opacity:1;"/>
<stop offset="0.4423" style="stop-color:rgb(92.54902%,93.72549%,94.509804%);stop-opacity:1;"/>
<stop offset="0.6148" style="stop-color:rgb(83.137255%,85.882353%,87.843137%);stop-opacity:1;"/>
<stop offset="0.7079" style="stop-color:rgb(76.862745%,80.784314%,83.137255%);stop-opacity:1;"/>
<stop offset="1" style="stop-color:rgb(76.862745%,80.784314%,83.137255%);stop-opacity:1;"/>
</linearGradient>
<clipPath id="clip21">
  <path d="M 7 14 L 9 14 L 9 17 L 7 17 Z M 7 14 "/>
</clipPath>
<clipPath id="clip22">
  <path d="M 8.078125 14.238281 L 7.574219 16.164062 L 7.832031 16.164062 L 8.382812 14.0625 L 7.980469 14.0625 Z M 8.078125 14.238281 "/>
</clipPath>
<linearGradient id="linear10" gradientUnits="userSpaceOnUse" x1="-166.9141" y1="475.7764" x2="-162.1558" y2="475.7764" gradientTransform="matrix(0,0.442168,0.431383,0,-197.263758,87.862176)">
<stop offset="0" style="stop-color:rgb(100%,100%,100%);stop-opacity:1;"/>
<stop offset="0.1461" style="stop-color:rgb(100%,100%,100%);stop-opacity:1;"/>
<stop offset="0.2818" style="stop-color:rgb(98.039216%,98.431373%,98.431373%);stop-opacity:1;"/>
<stop offset="0.4423" style="stop-color:rgb(92.54902%,93.72549%,94.509804%);stop-opacity:1;"/>
<stop offset="0.6148" style="stop-color:rgb(83.137255%,85.882353%,87.843137%);stop-opacity:1;"/>
<stop offset="0.7079" style="stop-color:rgb(76.862745%,80.784314%,83.137255%);stop-opacity:1;"/>
<stop offset="1" style="stop-color:rgb(76.862745%,80.784314%,83.137255%);stop-opacity:1;"/>
</linearGradient>
<clipPath id="clip23">
  <path d="M 3 14 L 5 14 L 5 17 L 3 17 Z M 3 14 "/>
</clipPath>
<clipPath id="clip24">
  <path d="M 3.84375 14.0625 L 3.949219 14.246094 L 4.066406 14.246094 L 3.566406 16.164062 L 3.824219 16.164062 L 4.328125 14.246094 L 4.523438 14.246094 L 4.605469 14.0625 Z M 3.84375 14.0625 "/>
</clipPath>
<linearGradient id="linear11" gradientUnits="userSpaceOnUse" x1="-166.8984" y1="468.6328" x2="-162.1416" y2="468.6328" gradientTransform="matrix(0,0.442016,0.431235,0,-198.003848,87.83072)">
<stop offset="0" style="stop-color:rgb(100%,100%,100%);stop-opacity:1;"/>
<stop offset="0.1461" style="stop-color:rgb(100%,100%,100%);stop-opacity:1;"/>
<stop offset="0.2818" style="stop-color:rgb(98.039216%,98.431373%,98.431373%);stop-opacity:1;"/>
<stop offset="0.4423" style="stop-color:rgb(92.54902%,93.72549%,94.509804%);stop-opacity:1;"/>
<stop offset="0.6148" style="stop-color:rgb(83.137255%,85.882353%,87.843137%);stop-opacity:1;"/>
<stop offset="0.7079" style="stop-color:rgb(76.862745%,80.784314%,83.137255%);stop-opacity:1;"/>
<stop offset="1" style="stop-color:rgb(76.862745%,80.784314%,83.137255%);stop-opacity:1;"/>
</linearGradient>
</defs>
<g id="surface1">
<path style=" stroke:none;fill-rule:nonzero;fill:rgb(76.862745%,80.784314%,83.137255%);fill-opacity:1;" d="M 5.398438 0.398438 L 0.359375 19.601562 L 10.605469 19.601562 L 15.640625 0.398438 Z M 5.398438 0.398438 "/>
<path style=" stroke:none;fill-rule:nonzero;fill:rgb(13.72549%,12.156863%,12.54902%);fill-opacity:1;" d="M 10.3125 19.210938 L 0.859375 19.210938 L 5.6875 0.789062 L 15.144531 0.789062 Z M 10.3125 19.210938 "/>
<path style=" stroke:none;fill-rule:nonzero;fill:rgb(76.862745%,80.784314%,83.137255%);fill-opacity:1;" d="M 7.945312 9.757812 L 8.257812 9.433594 C 7.898438 9.320312 7.695312 9.066406 7.695312 8.742188 C 7.695312 8.574219 7.765625 8.421875 7.875 8.3125 L 11.984375 4.101562 L 11.753906 4.101562 L 7.890625 7.671875 L 7.558594 7.980469 C 7.363281 8.171875 7.238281 8.441406 7.238281 8.742188 C 7.238281 8.8125 7.246094 8.878906 7.257812 8.945312 C 7.332031 9.324219 7.636719 9.644531 7.945312 9.757812 "/>
<path style=" stroke:none;fill-rule:nonzero;fill:rgb(76.862745%,80.784314%,83.137255%);fill-opacity:1;" d="M 7.464844 10.246094 L 7.777344 9.925781 C 7.296875 9.675781 7.027344 9.257812 7.027344 8.742188 C 7.027344 8.394531 7.160156 8.082031 7.382812 7.851562 L 11.035156 4.101562 L 10.824219 4.101562 L 7.40625 7.199219 C 7.359375 7.238281 7.066406 7.511719 7.027344 7.558594 C 6.742188 7.867188 6.570312 8.285156 6.570312 8.742188 C 6.570312 8.824219 6.578125 8.902344 6.589844 8.980469 C 6.667969 9.53125 7.003906 10 7.464844 10.246094 "/>
<path style=" stroke:none;fill-rule:nonzero;fill:rgb(76.862745%,80.784314%,83.137255%);fill-opacity:1;" d="M 6.980469 10.746094 L 7.296875 10.421875 C 6.707031 10.050781 6.359375 9.449219 6.359375 8.742188 C 6.359375 8.21875 6.558594 7.742188 6.886719 7.390625 L 10.089844 4.101562 L 9.898438 4.101562 L 6.921875 6.726562 C 6.824219 6.804688 6.574219 7.046875 6.496094 7.140625 C 6.125 7.566406 5.902344 8.128906 5.902344 8.742188 C 5.902344 8.832031 5.90625 8.921875 5.917969 9.011719 C 6 9.742188 6.40625 10.371094 6.980469 10.746094 "/>
<path style=" stroke:none;fill-rule:nonzero;fill:rgb(76.862745%,80.784314%,83.137255%);fill-opacity:1;" d="M 6.492188 11.246094 L 6.8125 10.914062 C 6.121094 10.429688 5.691406 9.640625 5.691406 8.742188 C 5.691406 8.039062 5.957031 7.40625 6.390625 6.933594 L 9.144531 4.101562 L 8.96875 4.101562 L 6.433594 6.253906 C 6.292969 6.371094 6.082031 6.578125 5.960938 6.722656 C 5.507812 7.265625 5.234375 7.972656 5.234375 8.742188 C 5.234375 8.84375 5.238281 8.945312 5.25 9.046875 C 5.339844 9.953125 5.808594 10.742188 6.492188 11.246094 "/>
<path style=" stroke:none;fill-rule:nonzero;fill:rgb(76.862745%,80.784314%,83.137255%);fill-opacity:1;" d="M 4.578125 9.078125 C 4.671875 10.164062 5.210938 11.113281 6.003906 11.746094 L 6.332031 11.410156 C 5.535156 10.804688 5.023438 9.832031 5.023438 8.742188 C 5.023438 7.863281 5.355469 7.066406 5.894531 6.472656 L 8.199219 4.101562 L 8.039062 4.101562 L 5.949219 5.78125 C 5.761719 5.9375 5.585938 6.113281 5.433594 6.300781 C 4.890625 6.964844 4.5625 7.8125 4.5625 8.742188 C 4.5625 8.855469 4.570312 8.96875 4.578125 9.078125 "/>
<path style=" stroke:none;fill-rule:nonzero;fill:rgb(88.235294%,22.745098%,24.313725%);fill-opacity:1;" d="M 8.675781 7.792969 L 8.359375 8.117188 C 8.722656 8.230469 8.925781 8.480469 8.925781 8.804688 C 8.925781 8.972656 8.855469 9.125 8.746094 9.234375 L 4.640625 13.445312 L 4.867188 13.445312 L 8.734375 9.875 L 9.0625 9.570312 C 9.257812 9.378906 9.382812 9.105469 9.382812 8.804688 C 9.382812 8.734375 9.375 8.667969 9.363281 8.601562 C 9.289062 8.222656 8.984375 7.902344 8.675781 7.792969 "/>
<path style=" stroke:none;fill-rule:nonzero;fill:rgb(88.235294%,22.745098%,24.313725%);fill-opacity:1;" d="M 9.15625 7.300781 L 8.84375 7.621094 C 9.328125 7.871094 9.59375 8.289062 9.59375 8.804688 C 9.59375 9.152344 9.460938 9.464844 9.242188 9.695312 L 5.585938 13.445312 L 5.796875 13.445312 L 9.21875 10.347656 C 9.265625 10.308594 9.554688 10.035156 9.59375 9.988281 C 9.878906 9.679688 10.050781 9.261719 10.050781 8.804688 C 10.050781 8.726562 10.046875 8.644531 10.03125 8.570312 C 9.953125 8.015625 9.617188 7.546875 9.15625 7.300781 "/>
<path style=" stroke:none;fill-rule:nonzero;fill:rgb(88.235294%,22.745098%,24.313725%);fill-opacity:1;" d="M 9.640625 6.800781 L 9.328125 7.125 C 9.914062 7.496094 10.261719 8.097656 10.261719 8.804688 C 10.261719 9.328125 10.0625 9.804688 9.734375 10.15625 L 6.53125 13.445312 L 6.726562 13.445312 L 9.703125 10.820312 C 9.796875 10.742188 10.046875 10.5 10.125 10.40625 C 10.496094 9.980469 10.71875 9.421875 10.71875 8.804688 C 10.71875 8.714844 10.714844 8.625 10.703125 8.535156 C 10.621094 7.804688 10.214844 7.175781 9.640625 6.800781 "/>
<path style=" stroke:none;fill-rule:nonzero;fill:rgb(88.235294%,22.745098%,24.313725%);fill-opacity:1;" d="M 10.128906 6.300781 L 9.808594 6.632812 C 10.5 7.121094 10.933594 7.90625 10.933594 8.804688 C 10.933594 9.507812 10.664062 10.144531 10.230469 10.617188 L 7.476562 13.445312 L 7.652344 13.445312 L 10.1875 11.292969 C 10.328125 11.175781 10.542969 10.96875 10.65625 10.828125 C 11.113281 10.28125 11.386719 9.578125 11.386719 8.804688 C 11.386719 8.703125 11.382812 8.601562 11.371094 8.5 C 11.285156 7.59375 10.8125 6.804688 10.128906 6.300781 "/>
<path style=" stroke:none;fill-rule:nonzero;fill:rgb(88.235294%,22.745098%,24.313725%);fill-opacity:1;" d="M 12.042969 8.46875 C 11.949219 7.386719 11.410156 6.433594 10.617188 5.804688 L 10.292969 6.136719 C 11.085938 6.746094 11.601562 7.714844 11.601562 8.804688 C 11.601562 9.683594 11.265625 10.480469 10.726562 11.078125 L 8.421875 13.445312 L 8.582031 13.445312 L 10.671875 11.765625 C 10.859375 11.609375 11.035156 11.4375 11.191406 11.246094 C 11.730469 10.585938 12.058594 9.734375 12.058594 8.804688 C 12.058594 8.691406 12.050781 8.578125 12.042969 8.46875 "/>
<g clip-path="url(#clip1)" clip-rule="nonzero">
<g clip-path="url(#clip2)" clip-rule="nonzero">
<path style=" stroke:none;fill-rule:nonzero;fill:url(#linear0);" d="M 3.109375 16.503906 L 3.917969 16.503906 L 3.917969 18.609375 L 3.109375 18.609375 Z M 3.109375 16.503906 "/>
</g>
</g>
<g clip-path="url(#clip3)" clip-rule="nonzero">
<g clip-path="url(#clip4)" clip-rule="nonzero">
<path style=" stroke:none;fill-rule:nonzero;fill:url(#linear1);" d="M 4.195312 16.503906 L 5.363281 16.503906 L 5.363281 18.609375 L 4.195312 18.609375 Z M 4.195312 16.503906 "/>
</g>
</g>
<g clip-path="url(#clip5)" clip-rule="nonzero">
<g clip-path="url(#clip6)" clip-rule="nonzero">
<path style=" stroke:none;fill-rule:nonzero;fill:url(#linear2);" d="M 5.457031 16.503906 L 6.683594 16.503906 L 6.683594 18.609375 L 5.457031 18.609375 Z M 5.457031 16.503906 "/>
</g>
</g>
<g clip-path="url(#clip7)" clip-rule="nonzero">
<g clip-path="url(#clip8)" clip-rule="nonzero">
<path style=" stroke:none;fill-rule:nonzero;fill:url(#linear3);" d="M 6.789062 16.503906 L 7.898438 16.503906 L 7.898438 18.609375 L 6.789062 18.609375 Z M 6.789062 16.503906 "/>
</g>
</g>
<g clip-path="url(#clip9)" clip-rule="nonzero">
<g clip-path="url(#clip10)" clip-rule="nonzero">
<path style=" stroke:none;fill-rule:nonzero;fill:url(#linear4);" d="M 7.96875 16.503906 L 9.171875 16.503906 L 9.171875 18.609375 L 7.96875 18.609375 Z M 7.96875 16.503906 "/>
</g>
</g>
<g clip-path="url(#clip11)" clip-rule="nonzero">
<g clip-path="url(#clip12)" clip-rule="nonzero">
<path style=" stroke:none;fill-rule:nonzero;fill:url(#linear5);" d="M 9.300781 16.492188 L 10.453125 16.492188 L 10.453125 18.621094 L 9.300781 18.621094 Z M 9.300781 16.492188 "/>
</g>
</g>
<g clip-path="url(#clip13)" clip-rule="nonzero">
<g clip-path="url(#clip14)" clip-rule="nonzero">
<path style=" stroke:none;fill-rule:nonzero;fill:url(#linear6);" d="M 1.714844 16.503906 L 2.914062 16.503906 L 2.914062 18.617188 L 1.714844 18.617188 Z M 1.714844 16.503906 "/>
</g>
</g>
<g clip-path="url(#clip15)" clip-rule="nonzero">
<g clip-path="url(#clip16)" clip-rule="nonzero">
<path style=" stroke:none;fill-rule:nonzero;fill:url(#linear7);" d="M 8.707031 14.0625 L 9.515625 14.0625 L 9.515625 16.164062 L 8.707031 16.164062 Z M 8.707031 14.0625 "/>
</g>
</g>
<g clip-path="url(#clip17)" clip-rule="nonzero">
<g clip-path="url(#clip18)" clip-rule="nonzero">
<path style=" stroke:none;fill-rule:nonzero;fill:url(#linear8);" d="M 6.039062 14.0625 L 7.207031 14.0625 L 7.207031 16.164062 L 6.039062 16.164062 Z M 6.039062 14.0625 "/>
</g>
</g>
<g clip-path="url(#clip19)" clip-rule="nonzero">
<g clip-path="url(#clip20)" clip-rule="nonzero">
<path style=" stroke:none;fill-rule:nonzero;fill:url(#linear9);" d="M 4.714844 14.0625 L 5.917969 14.0625 L 5.917969 16.167969 L 4.714844 16.167969 Z M 4.714844 14.0625 "/>
</g>
</g>
<g clip-path="url(#clip21)" clip-rule="nonzero">
<g clip-path="url(#clip22)" clip-rule="nonzero">
<path style=" stroke:none;fill-rule:nonzero;fill:url(#linear10);" d="M 7.574219 14.0625 L 8.382812 14.0625 L 8.382812 16.164062 L 7.574219 16.164062 Z M 7.574219 14.0625 "/>
</g>
</g>
<g clip-path="url(#clip23)" clip-rule="nonzero">
<g clip-path="url(#clip24)" clip-rule="nonzero">
<path style=" stroke:none;fill-rule:nonzero;fill:url(#linear11);" d="M 3.566406 14.0625 L 4.605469 14.0625 L 4.605469 16.164062 L 3.566406 16.164062 Z M 3.566406 14.0625 "/>
</g>
</g>
<path style=" stroke:none;fill-rule:nonzero;fill:rgb(88.235294%,22.745098%,24.313725%);fill-opacity:1;" d="M 5.445312 14.917969 C 5.460938 14.902344 5.472656 14.890625 5.492188 14.816406 L 5.621094 14.328125 C 5.632812 14.277344 5.632812 14.25 5.605469 14.238281 C 5.574219 14.226562 5.480469 14.230469 5.480469 14.230469 C 5.480469 14.230469 5.480469 14.234375 5.480469 14.234375 C 5.492188 14.234375 5.5 14.234375 5.503906 14.238281 C 5.535156 14.25 5.535156 14.277344 5.523438 14.328125 L 5.394531 14.816406 C 5.375 14.890625 5.359375 14.902344 5.347656 14.917969 C 5.335938 14.925781 5.292969 14.941406 5.292969 14.941406 L 5.292969 14.953125 L 5.3125 14.953125 C 5.394531 14.953125 5.429688 14.933594 5.445312 14.917969 M 3.464844 16.164062 L 3.566406 16.164062 L 4.066406 14.246094 L 3.96875 14.246094 Z M 4.761719 17.882812 L 4.863281 17.882812 L 5.066406 16.871094 L 4.832031 17.527344 Z M 6.039062 16.164062 L 6.742188 14.230469 L 6.65625 14.0625 L 6.554688 14.0625 L 6.640625 14.230469 L 5.9375 16.164062 Z M 3.949219 14.246094 L 3.84375 14.0625 L 3.746094 14.0625 L 3.847656 14.246094 Z M 4.714844 16.164062 L 5.21875 14.238281 L 5.121094 14.0625 L 5.023438 14.0625 L 5.121094 14.238281 L 4.613281 16.164062 Z M 5.367188 15.164062 C 5.351562 15.144531 5.316406 15.140625 5.265625 15.140625 L 5.242188 15.140625 C 5.242188 15.140625 5.242188 15.148438 5.242188 15.148438 C 5.253906 15.152344 5.261719 15.15625 5.269531 15.164062 C 5.285156 15.179688 5.292969 15.207031 5.277344 15.257812 L 5.042969 16.164062 L 5.140625 16.164062 L 5.378906 15.257812 C 5.394531 15.207031 5.386719 15.179688 5.367188 15.164062 M 9.707031 17.34375 C 9.683594 17.285156 9.664062 17.199219 9.667969 17.125 C 9.667969 17.054688 9.683594 16.96875 9.707031 16.882812 L 9.734375 16.789062 C 9.746094 16.746094 9.757812 16.703125 9.78125 16.667969 L 9.691406 16.503906 L 9.59375 16.503906 L 9.679688 16.667969 C 9.660156 16.703125 9.644531 16.746094 9.632812 16.789062 L 9.609375 16.886719 C 9.585938 16.96875 9.570312 17.058594 9.566406 17.128906 C 9.566406 17.199219 9.585938 17.285156 9.609375 17.347656 C 9.628906 17.40625 9.757812 17.730469 9.765625 17.773438 C 9.773438 17.820312 9.785156 17.851562 9.75 17.96875 L 9.640625 18.390625 C 9.632812 18.425781 9.625 18.449219 9.59375 18.460938 C 9.605469 18.464844 9.621094 18.464844 9.640625 18.464844 C 9.722656 18.464844 9.730469 18.441406 9.742188 18.390625 L 9.851562 17.96875 C 9.882812 17.851562 9.875 17.820312 9.867188 17.773438 C 9.855469 17.730469 9.730469 17.40625 9.707031 17.34375 M 6.457031 16.164062 L 6.558594 16.164062 L 6.671875 15.628906 L 6.570312 15.628906 Z M 7.574219 16.164062 L 8.078125 14.238281 L 7.980469 14.0625 L 7.878906 14.0625 L 7.976562 14.238281 L 7.472656 16.164062 Z M 10.105469 16.496094 C 10.089844 16.496094 10.070312 16.496094 10.054688 16.496094 C 10.007812 16.496094 9.96875 16.5 9.933594 16.503906 L 10.027344 16.503906 C 10.050781 16.5 10.078125 16.496094 10.105469 16.496094 M 9.113281 14.0625 L 9.011719 14.0625 L 9.109375 14.238281 L 8.605469 16.164062 L 8.707031 16.164062 L 9.210938 14.238281 Z M 8.859375 16.683594 C 8.828125 16.671875 8.734375 16.675781 8.734375 16.675781 L 8.734375 16.679688 C 8.742188 16.679688 8.75 16.679688 8.757812 16.683594 C 8.785156 16.695312 8.789062 16.71875 8.773438 16.773438 L 8.644531 17.261719 C 8.628906 17.335938 8.613281 17.347656 8.601562 17.359375 C 8.589844 17.367188 8.574219 17.378906 8.546875 17.386719 C 8.546875 17.390625 8.546875 17.394531 8.546875 17.394531 L 8.566406 17.394531 C 8.644531 17.394531 8.683594 17.375 8.699219 17.359375 C 8.710938 17.347656 8.726562 17.335938 8.746094 17.261719 L 8.875 16.773438 C 8.886719 16.71875 8.886719 16.691406 8.859375 16.683594 M 6.605469 15.4375 L 6.550781 15.4375 L 6.707031 15.4375 L 6.90625 14.425781 L 6.675781 15.085938 Z M 2.601562 16.683594 C 2.570312 16.671875 2.480469 16.675781 2.480469 16.675781 L 2.476562 16.679688 C 2.476562 16.679688 2.496094 16.679688 2.503906 16.683594 C 2.53125 16.695312 2.535156 16.71875 2.519531 16.773438 L 2.390625 17.261719 C 2.371094 17.335938 2.359375 17.347656 2.34375 17.359375 C 2.335938 17.367188 2.292969 17.386719 2.292969 17.386719 L 2.292969 17.394531 L 2.3125 17.394531 C 2.390625 17.394531 2.425781 17.375 2.445312 17.359375 C 2.457031 17.347656 2.472656 17.335938 2.492188 17.261719 L 2.621094 16.773438 C 2.632812 16.71875 2.632812 16.691406 2.601562 16.683594 M 10.066406 17.148438 L 10.175781 16.726562 C 10.1875 16.695312 10.1875 16.675781 10.179688 16.667969 C 10.167969 16.65625 10.148438 16.648438 10.117188 16.648438 C 10.09375 16.648438 10.074219 16.652344 10.0625 16.65625 C 10.070312 16.660156 10.074219 16.664062 10.078125 16.667969 C 10.085938 16.675781 10.085938 16.695312 10.078125 16.726562 L 9.96875 17.148438 Z M 8.519531 17.585938 L 8.496094 17.585938 L 8.492188 17.59375 C 8.492188 17.59375 8.511719 17.601562 8.519531 17.605469 C 8.539062 17.621094 8.546875 17.652344 8.53125 17.703125 L 8.292969 18.609375 L 8.394531 18.609375 L 8.632812 17.703125 C 8.644531 17.652344 8.636719 17.621094 8.621094 17.605469 C 8.601562 17.589844 8.566406 17.585938 8.519531 17.585938 M 7.195312 16.503906 L 7.09375 16.503906 L 7.191406 16.683594 L 6.6875 18.609375 L 7.25 18.609375 L 6.789062 18.609375 L 7.292969 16.679688 Z M 9.34375 18.539062 C 9.300781 18.476562 9.3125 18.402344 9.332031 18.324219 L 9.453125 17.859375 L 9.351562 17.859375 L 9.230469 18.328125 C 9.210938 18.402344 9.199219 18.480469 9.242188 18.539062 C 9.285156 18.597656 9.371094 18.621094 9.503906 18.621094 C 9.523438 18.621094 9.539062 18.621094 9.554688 18.621094 C 9.449219 18.613281 9.378906 18.585938 9.34375 18.539062 M 8.472656 16.679688 L 8.371094 16.503906 L 8.273438 16.503906 L 8.371094 16.683594 L 7.867188 18.609375 L 7.96875 18.609375 Z M 6.050781 16.6875 L 5.953125 16.503906 L 5.851562 16.503906 L 5.953125 16.6875 Z M 6.222656 16.6875 L 5.359375 18.609375 L 5.457031 18.609375 L 6.320312 16.6875 Z M 1.714844 18.609375 L 2.21875 16.683594 L 2.125 16.503906 L 2.027344 16.503906 L 2.117188 16.683594 L 1.613281 18.609375 Z M 2.261719 17.585938 L 2.242188 17.585938 L 2.238281 17.59375 C 2.238281 17.59375 2.257812 17.601562 2.265625 17.605469 C 2.285156 17.621094 2.292969 17.652344 2.277344 17.703125 L 2.101562 18.367188 C 2.09375 18.402344 2.085938 18.417969 2.066406 18.429688 C 2.054688 18.4375 2.015625 18.445312 2.015625 18.445312 L 2.0625 18.445312 C 2.117188 18.445312 2.144531 18.441406 2.164062 18.429688 C 2.183594 18.417969 2.195312 18.402344 2.203125 18.367188 L 2.375 17.703125 C 2.390625 17.652344 2.382812 17.621094 2.367188 17.605469 C 2.347656 17.589844 2.3125 17.585938 2.261719 17.585938 M 3.515625 16.503906 L 3.417969 16.503906 L 3.511719 16.683594 L 3.007812 18.609375 L 3.109375 18.609375 L 3.613281 16.679688 Z M 4.195312 18.609375 L 4.898438 16.675781 L 4.8125 16.503906 L 4.714844 16.503906 L 4.800781 16.675781 L 4.09375 18.609375 Z M 4.714844 18.609375 L 4.828125 18.074219 L 4.726562 18.074219 L 4.613281 18.609375 Z M 4.714844 18.609375 "/>
<path style=" stroke:none;fill-rule:nonzero;fill:rgb(100%,100%,100%);fill-opacity:1;" d="M 10.097656 1.375 L 10.019531 1.648438 L 9.765625 1.648438 L 9.242188 3.46875 L 8.953125 3.46875 L 9.476562 1.648438 L 9.332031 1.648438 L 9.210938 1.375 Z M 10.097656 1.375 "/>
<path style=" stroke:none;fill-rule:nonzero;fill:rgb(100%,100%,100%);fill-opacity:1;" d="M 6.550781 1.375 L 6.042969 1.375 L 6.171875 1.628906 L 5.640625 3.46875 L 5.933594 3.46875 L 6.164062 2.664062 L 6.285156 2.664062 C 6.511719 2.664062 6.671875 2.523438 6.757812 2.234375 L 6.886719 1.78125 C 6.976562 1.476562 6.851562 1.375 6.550781 1.375 M 6.585938 1.824219 L 6.441406 2.320312 C 6.414062 2.414062 6.320312 2.414062 6.238281 2.414062 L 6.464844 1.625 L 6.515625 1.625 C 6.617188 1.625 6.625 1.679688 6.585938 1.824219 "/>
<path style=" stroke:none;fill-rule:nonzero;fill:rgb(100%,100%,100%);fill-opacity:1;" d="M 7.699219 1.332031 C 7.632812 1.332031 7.5625 1.34375 7.488281 1.375 L 7.113281 1.375 L 7.242188 1.625 C 7.234375 1.644531 7.226562 1.664062 7.21875 1.6875 L 6.796875 3.15625 C 6.71875 3.429688 6.894531 3.511719 7.074219 3.511719 C 7.253906 3.511719 7.476562 3.429688 7.554688 3.15625 L 7.980469 1.6875 C 8.058594 1.414062 7.878906 1.332031 7.699219 1.332031 M 7.679688 1.714844 L 7.273438 3.128906 C 7.242188 3.238281 7.207031 3.261719 7.148438 3.261719 C 7.085938 3.261719 7.0625 3.238281 7.09375 3.128906 L 7.503906 1.714844 C 7.53125 1.605469 7.570312 1.582031 7.632812 1.582031 C 7.6875 1.582031 7.710938 1.605469 7.679688 1.714844 "/>
<path style=" stroke:none;fill-rule:nonzero;fill:rgb(100%,100%,100%);fill-opacity:1;" d="M 8.761719 1.375 L 8.179688 1.375 L 8.308594 1.621094 L 7.777344 3.46875 L 8.066406 3.46875 L 8.355469 2.46875 C 8.488281 2.460938 8.519531 2.511719 8.484375 2.636719 C 8.359375 3.0625 8.242188 3.46875 8.242188 3.46875 L 8.53125 3.46875 C 8.53125 3.46875 8.613281 3.175781 8.785156 2.570312 C 8.839844 2.382812 8.738281 2.355469 8.738281 2.355469 C 8.878906 2.296875 8.886719 2.226562 8.929688 2.070312 L 9.027344 1.734375 C 9.105469 1.460938 8.996094 1.375 8.761719 1.375 M 8.746094 1.726562 L 8.628906 2.128906 C 8.605469 2.203125 8.566406 2.261719 8.46875 2.261719 L 8.414062 2.261719 L 8.597656 1.625 L 8.667969 1.625 C 8.730469 1.625 8.769531 1.648438 8.746094 1.726562 "/>
<path style=" stroke:none;fill-rule:nonzero;fill:rgb(100%,100%,100%);fill-opacity:1;" d="M 10.746094 1.375 L 10.253906 1.375 L 10.382812 1.625 L 9.851562 3.46875 L 10.511719 3.46875 L 10.589844 3.195312 L 10.21875 3.195312 Z M 10.746094 1.375 "/>
<path style=" stroke:none;fill-rule:nonzero;fill:rgb(100%,100%,100%);fill-opacity:1;" d="M 11.335938 1.375 L 11.460938 1.625 L 10.738281 3.46875 L 11 3.46875 L 11.226562 2.902344 L 11.429688 2.902344 L 11.320312 3.46875 L 11.617188 3.46875 L 11.996094 1.375 Z M 11.484375 2.628906 L 11.332031 2.628906 L 11.652344 1.757812 L 11.671875 1.757812 Z M 11.484375 2.628906 "/>
<path style=" stroke:none;fill-rule:nonzero;fill:rgb(100%,100%,100%);fill-opacity:1;" d="M 13.148438 1.375 L 12.644531 3.164062 L 12.632812 3.164062 L 12.925781 1.375 L 12.292969 1.375 L 12.421875 1.625 L 11.890625 3.46875 L 12.125 3.46875 L 12.632812 1.679688 L 12.644531 1.679688 L 12.355469 3.46875 L 12.785156 3.46875 L 13.386719 1.375 Z M 13.148438 1.375 "/>
<path style=" stroke:none;fill-rule:nonzero;fill:rgb(100%,100%,100%);fill-opacity:1;" d="M 14.078125 1.375 L 13.523438 1.375 L 13.65625 1.628906 L 13.125 3.46875 L 13.539062 3.46875 C 13.765625 3.46875 13.9375 3.289062 13.996094 3.089844 L 14.351562 1.847656 C 14.457031 1.480469 14.367188 1.375 14.078125 1.375 M 14.082031 1.78125 L 13.710938 3.0625 C 13.671875 3.199219 13.632812 3.21875 13.558594 3.21875 L 13.488281 3.21875 L 13.949219 1.625 L 14.015625 1.625 C 14.089844 1.625 14.121094 1.644531 14.082031 1.78125 "/>
</g>
</svg>
