<?xml version="1.0" encoding="UTF-8"?>
<svg xmlns="http://www.w3.org/2000/svg" xmlns:xlink="http://www.w3.org/1999/xlink" width="28pt" height="20pt" viewBox="0 0 28 20" version="1.1">
<defs>
<clipPath id="clip1">
  <path d="M 7.96875 18.375 L 8.28125 18.375 L 8.28125 19.398438 L 7.96875 19.398438 Z M 7.96875 18.375 "/>
</clipPath>
<clipPath id="clip2">
  <path d="M 9.613281 16.496094 L 9.933594 16.496094 L 9.933594 17.535156 L 9.613281 17.535156 Z M 9.613281 16.496094 "/>
</clipPath>
<clipPath id="clip3">
  <path d="M 8.789062 17.4375 L 9.105469 17.4375 L 9.105469 18.46875 L 8.789062 18.46875 Z M 8.789062 17.4375 "/>
</clipPath>
<clipPath id="clip4">
  <path d="M 19.691406 18.382812 L 20.003906 18.382812 L 20.003906 19.40625 L 19.691406 19.40625 Z M 19.691406 18.382812 "/>
</clipPath>
<clipPath id="clip5">
  <path d="M 18.039062 16.503906 L 18.359375 16.503906 L 18.359375 17.542969 L 18.039062 17.542969 Z M 18.039062 16.503906 "/>
</clipPath>
<clipPath id="clip6">
  <path d="M 18.867188 17.445312 L 19.183594 17.445312 L 19.183594 18.476562 L 18.867188 18.476562 Z M 18.867188 17.445312 "/>
</clipPath>
</defs>
<g id="surface1">
<path style=" stroke:none;fill-rule:nonzero;fill:rgb(100%,100%,100%);fill-opacity:1;" d="M 22.078125 3.359375 C 22.078125 3.292969 22.050781 3.226562 21.996094 3.175781 C 21.914062 3.105469 21.796875 3.09375 21.703125 3.152344 C 21.332031 3.382812 20.296875 4.359375 19.539062 5.074219 C 19.535156 5.074219 19.289062 5.3125 19.246094 5.355469 C 19.167969 5.324219 19.066406 5.28125 18.996094 5.261719 C 18.730469 5.199219 18.5 5.199219 18.328125 5.234375 C 18.457031 4.929688 19.140625 3.324219 19.140625 3.324219 C 19.140625 3.324219 17.347656 4.269531 17.097656 4.398438 C 17.125 4.101562 17.429688 0.789062 17.429688 0.789062 C 17.429688 0.789062 15.253906 3.472656 15.054688 3.71875 C 14.96875 3.414062 14.003906 0 14.003906 0 C 14.003906 0 13.03125 3.414062 12.945312 3.714844 C 12.746094 3.472656 10.574219 0.785156 10.574219 0.785156 C 10.574219 0.785156 10.875 4.09375 10.898438 4.394531 C 10.648438 4.261719 8.859375 3.316406 8.859375 3.316406 C 8.859375 3.316406 9.539062 4.921875 9.667969 5.226562 C 9.496094 5.191406 9.265625 5.191406 9.003906 5.253906 C 8.929688 5.273438 8.824219 5.316406 8.75 5.347656 C 8.707031 5.304688 8.460938 5.066406 8.460938 5.066406 C 7.703125 4.351562 6.667969 3.371094 6.296875 3.140625 C 6.203125 3.082031 6.085938 3.089844 6.003906 3.164062 C 5.953125 3.210938 5.921875 3.28125 5.921875 3.347656 C 5.921875 3.382812 5.929688 3.417969 5.945312 3.449219 C 6.136719 3.867188 7.128906 5.238281 7.71875 6.03125 C 7.503906 6.238281 7.375 6.480469 7.367188 6.707031 L 7.367188 6.726562 C 7.367188 6.867188 7.414062 6.988281 7.5 7.074219 C 7.5 7.074219 7.566406 7.136719 7.632812 7.203125 C 7.296875 7.203125 6.050781 7.203125 6.050781 7.203125 L 6.046875 7.371094 C 6.019531 8.554688 5.988281 11.496094 6.261719 13.273438 C 6.523438 14.953125 6.949219 16.15625 7.691406 17.292969 L 7.769531 17.410156 L 7.84375 17.289062 C 8.015625 17.015625 8.554688 16.316406 9.390625 15.617188 C 9.472656 15.691406 9.726562 15.929688 9.8125 16.015625 C 9.703125 16.136719 7.234375 18.945312 7.234375 18.945312 C 7.132812 19.058594 7.078125 19.207031 7.078125 19.359375 C 7.078125 19.375 7.078125 19.386719 7.078125 19.398438 C 7.089844 19.566406 7.164062 19.71875 7.289062 19.832031 C 7.550781 20.0625 7.949219 20.039062 8.175781 19.777344 C 8.175781 19.777344 10.371094 17.296875 10.757812 16.855469 C 10.878906 16.960938 12.3125 18.234375 12.3125 18.234375 L 12.25 17.5625 C 12.242188 17.507812 12.242188 17.449219 12.242188 17.386719 C 12.242188 17.222656 12.265625 17.03125 12.304688 16.820312 C 12.714844 17.328125 13.328125 17.628906 13.988281 17.628906 C 14.648438 17.628906 15.261719 17.332031 15.671875 16.824219 C 15.710938 17.03125 15.734375 17.222656 15.734375 17.386719 C 15.734375 17.449219 15.730469 17.507812 15.722656 17.566406 L 15.660156 18.238281 C 15.660156 18.238281 16.976562 17.074219 17.214844 16.863281 C 17.332031 16.992188 19.792969 19.785156 19.792969 19.785156 C 19.90625 19.914062 20.058594 19.988281 20.226562 20 C 20.394531 20.007812 20.554688 19.953125 20.679688 19.84375 C 20.941406 19.613281 20.964844 19.214844 20.734375 18.957031 C 20.734375 18.957031 18.273438 16.144531 18.164062 16.019531 C 18.25 15.9375 18.503906 15.699219 18.585938 15.621094 C 19.421875 16.328125 19.960938 17.023438 20.132812 17.300781 L 20.207031 17.421875 L 20.285156 17.300781 C 21.027344 16.167969 21.457031 14.96875 21.71875 13.285156 C 21.914062 12.03125 21.960938 10.191406 21.960938 8.804688 C 21.960938 8.226562 21.953125 7.730469 21.945312 7.386719 L 21.941406 7.21875 L 21.855469 7.214844 L 20.355469 7.214844 C 20.421875 7.148438 20.492188 7.085938 20.492188 7.085938 C 20.578125 7 20.625 6.875 20.625 6.734375 L 20.625 6.71875 C 20.621094 6.492188 20.488281 6.25 20.277344 6.042969 C 20.867188 5.25 21.859375 3.878906 22.054688 3.464844 C 22.070312 3.429688 22.078125 3.394531 22.078125 3.359375 M 21.972656 3.425781 C 21.78125 3.84375 20.757812 5.25 20.15625 6.050781 C 20.578125 6.414062 20.613281 6.835938 20.429688 7.019531 L 20.136719 7.304688 L 21.855469 7.304688 C 21.855469 7.417969 21.960938 11.15625 21.632812 13.273438 C 21.382812 14.882812 20.980469 16.078125 20.210938 17.253906 C 20.03125 16.96875 19.464844 16.230469 18.582031 15.503906 L 18.039062 16.015625 L 20.667969 19.015625 C 20.867188 19.238281 20.84375 19.578125 20.621094 19.777344 C 20.398438 19.972656 20.058594 19.949219 19.863281 19.726562 L 17.222656 16.734375 L 16.109375 17.722656 L 15.773438 18.019531 L 15.816406 17.574219 C 15.84375 17.277344 15.796875 16.929688 15.722656 16.605469 C 15.355469 17.167969 14.714844 17.539062 13.988281 17.539062 C 13.261719 17.539062 12.625 17.164062 12.25 16.601562 C 12.179688 16.929688 12.132812 17.273438 12.160156 17.570312 L 12.203125 18.015625 L 11.867188 17.71875 L 10.753906 16.730469 L 8.109375 19.71875 C 7.914062 19.941406 7.570312 19.960938 7.351562 19.765625 C 7.125 19.566406 7.105469 19.226562 7.304688 19.003906 L 9.9375 16.007812 L 9.394531 15.496094 C 8.511719 16.222656 7.945312 16.957031 7.765625 17.242188 C 7 16.066406 6.597656 14.867188 6.351562 13.261719 C 6.023438 11.140625 6.136719 7.402344 6.136719 7.292969 L 7.859375 7.292969 L 7.5625 7.007812 C 7.375 6.828125 7.414062 6.40625 7.835938 6.039062 C 7.242188 5.242188 6.21875 3.828125 6.027344 3.414062 C 6 3.351562 6.015625 3.277344 6.0625 3.234375 C 6.117188 3.1875 6.191406 3.179688 6.25 3.214844 C 6.613281 3.441406 7.644531 4.417969 8.398438 5.132812 C 8.503906 5.230469 8.644531 5.371094 8.730469 5.453125 C 8.839844 5.40625 8.957031 5.363281 9.023438 5.34375 C 9.402344 5.25 9.699219 5.296875 9.832031 5.378906 L 9.039062 3.515625 L 11.003906 4.550781 L 10.691406 1.070312 L 12.980469 3.910156 L 14.003906 0.328125 L 15.015625 3.910156 L 17.3125 1.078125 L 16.992188 4.558594 L 18.957031 3.523438 L 18.167969 5.382812 C 18.296875 5.304688 18.597656 5.257812 18.972656 5.351562 C 19.039062 5.371094 19.15625 5.414062 19.265625 5.464844 C 19.355469 5.378906 19.492188 5.238281 19.597656 5.140625 C 20.351562 4.429688 21.386719 3.453125 21.75 3.230469 C 21.808594 3.195312 21.882812 3.199219 21.933594 3.246094 C 21.988281 3.289062 22 3.363281 21.972656 3.425781 "/>
<path style=" stroke:none;fill-rule:nonzero;fill:rgb(1.960784%,9.803922%,13.333333%);fill-opacity:1;" d="M 21.75 3.230469 C 21.386719 3.453125 20.351562 4.429688 19.597656 5.140625 C 19.492188 5.238281 19.351562 5.378906 19.265625 5.464844 C 19.15625 5.414062 19.039062 5.371094 18.972656 5.351562 C 18.597656 5.257812 18.296875 5.304688 18.167969 5.382812 L 18.957031 3.523438 L 16.992188 4.558594 L 17.3125 1.078125 L 15.015625 3.910156 L 14.003906 0.328125 L 12.980469 3.90625 L 10.691406 1.070312 L 11.003906 4.550781 L 9.039062 3.515625 L 9.828125 5.378906 C 9.699219 5.296875 9.402344 5.25 9.023438 5.34375 C 8.957031 5.363281 8.839844 5.40625 8.730469 5.453125 C 8.644531 5.371094 8.503906 5.230469 8.398438 5.132812 C 7.644531 4.417969 6.613281 3.441406 6.25 3.214844 C 6.191406 3.179688 6.117188 3.1875 6.0625 3.234375 C 6.011719 3.277344 6 3.351562 6.027344 3.414062 C 6.21875 3.828125 7.238281 5.242188 7.835938 6.039062 C 7.414062 6.40625 7.375 6.828125 7.5625 7.007812 L 7.859375 7.292969 L 6.136719 7.289062 C 6.136719 7.402344 6.023438 11.140625 6.351562 13.261719 C 6.597656 14.867188 6.996094 16.066406 7.765625 17.242188 C 7.941406 16.957031 8.511719 16.222656 9.394531 15.496094 L 9.9375 16.007812 L 7.304688 19.003906 C 7.105469 19.226562 7.125 19.566406 7.347656 19.765625 C 7.570312 19.960938 7.914062 19.941406 8.109375 19.71875 L 10.753906 16.730469 L 11.867188 17.71875 L 12.203125 18.015625 L 12.160156 17.570312 C 12.132812 17.273438 12.179688 16.929688 12.25 16.601562 C 12.621094 17.164062 13.261719 17.539062 13.988281 17.539062 C 14.714844 17.539062 15.355469 17.167969 15.722656 16.601562 C 15.796875 16.929688 15.84375 17.273438 15.816406 17.574219 L 15.773438 18.019531 L 16.109375 17.722656 L 17.222656 16.734375 L 19.863281 19.726562 C 20.058594 19.949219 20.398438 19.972656 20.621094 19.777344 C 20.84375 19.578125 20.863281 19.238281 20.667969 19.015625 L 18.039062 16.011719 L 18.582031 15.5 C 19.464844 16.230469 20.03125 16.964844 20.207031 17.25 C 20.980469 16.078125 21.378906 14.882812 21.632812 13.269531 C 21.960938 11.15625 21.855469 7.414062 21.855469 7.304688 L 20.136719 7.304688 L 20.429688 7.019531 C 20.617188 6.835938 20.578125 6.414062 20.15625 6.046875 C 20.753906 5.25 21.78125 3.84375 21.972656 3.425781 C 22 3.363281 21.984375 3.289062 21.933594 3.246094 C 21.882812 3.199219 21.808594 3.195312 21.75 3.230469 M 18.464844 5.644531 C 18.550781 5.535156 18.753906 5.550781 19.046875 5.6875 L 19.078125 5.699219 L 18.710938 6.082031 L 18.695312 6.074219 C 18.5625 5.996094 18.46875 5.882812 18.445312 5.769531 C 18.4375 5.71875 18.441406 5.671875 18.464844 5.644531 M 18.199219 5.6875 L 18.238281 5.710938 C 18.207031 5.765625 18.199219 5.835938 18.226562 5.910156 C 18.28125 6.089844 18.484375 6.292969 18.75 6.425781 L 18.773438 6.441406 L 18.644531 6.59375 L 18.628906 6.589844 C 18.625 6.589844 18.160156 6.445312 17.839844 6.300781 L 17.816406 6.289062 Z M 19.726562 9.09375 L 18.707031 9.09375 L 18.703125 9.183594 C 18.6875 9.605469 18.699219 9.863281 19.117188 10.34375 L 19.589844 10.882812 C 19.738281 11.046875 19.863281 11.191406 19.988281 11.335938 C 20.015625 11.367188 20.046875 11.40625 20.082031 11.441406 C 20.335938 11.710938 20.761719 12.160156 20.480469 13.484375 C 20.265625 14.46875 20.140625 14.867188 20.015625 15.179688 L 19.992188 15.234375 C 19.078125 14.414062 18.179688 13.867188 17.351562 13.503906 C 17.472656 12.902344 17.554688 12.253906 17.609375 11.613281 L 18.542969 12.351562 C 18.523438 12.546875 18.492188 12.742188 18.464844 12.941406 C 18.652344 13.039062 19.195312 13.347656 19.363281 13.472656 C 19.382812 13.378906 19.4375 13.175781 19.449219 13.09375 C 19.585938 12.210938 19.355469 11.960938 19.183594 11.773438 C 19.164062 11.753906 19.144531 11.734375 19.128906 11.714844 C 19.054688 11.628906 18.996094 11.570312 18.910156 11.476562 C 18.78125 11.34375 18.589844 11.144531 18.179688 10.691406 C 17.648438 10.101562 17.683594 9.222656 17.691406 8.683594 L 17.707031 8.347656 L 18.183594 8.347656 C 18.328125 8.382812 18.449219 8.402344 18.546875 8.402344 C 18.625 8.402344 18.726562 8.394531 18.828125 8.347656 L 20.777344 8.34375 C 20.785156 8.902344 20.785156 9.691406 20.761719 10.523438 L 19.730469 9.761719 C 19.730469 9.519531 19.730469 9.289062 19.726562 9.09375 M 18.824219 8.121094 C 18.742188 8.195312 18.660156 8.207031 18.539062 8.207031 C 18.214844 8.203125 17.613281 7.96875 16.976562 7.71875 L 16.894531 7.683594 C 16.289062 7.449219 15.378906 7.09375 13.996094 7.089844 C 12.617188 7.089844 11.703125 7.445312 11.097656 7.679688 L 11.011719 7.714844 C 10.378906 7.960938 9.777344 8.195312 9.449219 8.199219 C 9.332031 8.199219 9.246094 8.1875 9.171875 8.113281 C 9.09375 8.042969 8.1875 7.140625 8.148438 7.101562 L 8.105469 7.058594 L 8.164062 7.066406 C 8.5 7.089844 9.523438 6.785156 10.324219 6.476562 L 10.472656 6.417969 C 11.28125 6.101562 12.390625 5.667969 13.996094 5.667969 C 15.609375 5.671875 16.714844 6.105469 17.519531 6.425781 L 17.671875 6.484375 C 18.46875 6.792969 19.492188 7.101562 19.828125 7.074219 L 19.890625 7.070312 L 19.84375 7.113281 C 19.804688 7.152344 18.898438 8.050781 18.824219 8.121094 M 16.691406 7.839844 C 16.691406 7.867188 16.6875 8.046875 16.6875 8.082031 C 16.644531 8.082031 11.347656 8.078125 11.300781 8.078125 C 11.300781 8.039062 11.300781 7.859375 11.300781 7.835938 C 11.953125 7.589844 12.847656 7.308594 13.996094 7.308594 C 15.144531 7.3125 16.039062 7.59375 16.691406 7.839844 M 8.511719 13.035156 C 8.59375 13.5625 8.703125 14.066406 8.828125 14.539062 C 8.542969 14.746094 8.253906 14.984375 7.960938 15.246094 C 7.726562 14.59375 7.539062 13.863281 7.410156 13.03125 C 7.195312 11.636719 7.199219 9.441406 7.214844 8.332031 L 8.3125 8.332031 C 8.304688 8.992188 8.296875 9.988281 8.339844 10.988281 L 9.3125 10.277344 C 9.292969 9.539062 9.300781 8.882812 9.3125 8.382812 C 9.359375 8.390625 9.40625 8.394531 9.441406 8.394531 C 9.546875 8.394531 9.683594 8.371094 9.835938 8.332031 L 10.253906 8.335938 C 10.246094 8.949219 10.246094 9.691406 10.277344 10.496094 L 9.441406 11.101562 L 10.347656 11.617188 C 10.40625 12.253906 10.492188 12.902344 10.609375 13.507812 C 10.308594 13.636719 10 13.796875 9.683594 13.980469 C 9.5625 13.394531 9.476562 12.761719 9.417969 12.132812 L 8.363281 11.507812 C 8.394531 12.054688 8.441406 12.589844 8.511719 13.035156 M 11.53125 5.339844 C 11.53125 5.339844 11.285156 2.640625 11.273438 2.496094 C 11.363281 2.609375 13.179688 4.871094 13.179688 4.871094 C 13.179688 4.871094 13.960938 2.117188 14 1.972656 C 14.042969 2.117188 14.816406 4.875 14.816406 4.875 C 14.816406 4.875 16.636719 2.613281 16.726562 2.503906 C 16.714844 2.644531 16.460938 5.34375 16.460938 5.34375 C 16.460938 5.34375 17.933594 4.570312 18.039062 4.515625 C 17.992188 4.625 17.359375 6.085938 17.34375 6.125 C 16.4375 5.773438 15.402344 5.457031 14 5.453125 C 12.59375 5.453125 11.558594 5.769531 10.652344 6.117188 C 10.632812 6.078125 10.003906 4.617188 9.957031 4.507812 C 10.0625 4.5625 11.53125 5.339844 11.53125 5.339844 M 9.757812 5.703125 L 9.796875 5.679688 L 10.175781 6.285156 L 10.152344 6.292969 C 9.835938 6.4375 9.367188 6.582031 9.363281 6.582031 L 9.347656 6.589844 L 9.21875 6.433594 L 9.246094 6.417969 C 9.507812 6.285156 9.714844 6.082031 9.769531 5.902344 C 9.792969 5.828125 9.789062 5.761719 9.757812 5.703125 M 8.949219 5.679688 C 9.238281 5.542969 9.445312 5.527344 9.53125 5.636719 C 9.554688 5.667969 9.558594 5.710938 9.550781 5.761719 C 9.527344 5.875 9.433594 5.988281 9.300781 6.066406 L 9.285156 6.074219 L 8.921875 5.691406 Z M 6.933594 4.21875 C 7.34375 4.59375 7.8125 5.035156 8.167969 5.371094 L 8.722656 5.894531 C 8.722656 5.894531 8.757812 5.933594 8.757812 5.933594 C 8.757812 5.933594 8.972656 6.183594 9.003906 6.21875 C 8.976562 6.234375 8.945312 6.253906 8.945312 6.253906 C 8.90625 6.28125 8.867188 6.3125 8.816406 6.328125 L 8.785156 6.339844 C 8.785156 6.339844 8.996094 6.59375 9.03125 6.636719 C 8.984375 6.648438 8.84375 6.691406 8.820312 6.699219 C 8.804688 6.679688 8.375 6.195312 8.375 6.195312 C 8.050781 5.769531 7.410156 4.90625 6.933594 4.21875 M 7.84375 6.71875 C 7.691406 6.570312 7.875 6.382812 8 6.257812 L 8.019531 6.242188 L 8.035156 6.261719 L 8.382812 6.699219 L 8.355469 6.710938 C 8.226562 6.761719 7.929688 6.808594 7.84375 6.71875 M 9.070312 15.207031 C 8.621094 15.578125 8.199219 16.003906 7.808594 16.46875 L 7.785156 16.496094 L 7.769531 16.464844 C 7.308594 15.566406 6.96875 14.488281 6.769531 13.261719 C 6.585938 12.121094 6.511719 10.195312 6.5625 7.847656 L 6.566406 7.710938 L 8.503906 7.710938 L 8.515625 7.714844 L 9 8.191406 L 9.027344 8.21875 L 9.09375 8.273438 L 9.089844 8.324219 C 9.078125 8.972656 9.074219 9.574219 9.089844 10.15625 L 9.089844 10.167969 L 8.546875 10.5625 L 8.542969 10.519531 C 8.53125 10.105469 8.527344 9.664062 8.527344 9.195312 C 8.527344 8.917969 8.527344 8.632812 8.53125 8.335938 C 8.53125 8.335938 8.535156 8.148438 8.535156 8.113281 C 8.5 8.113281 7.03125 8.109375 6.996094 8.109375 C 6.996094 8.148438 6.992188 8.328125 6.992188 8.328125 C 6.988281 8.601562 6.984375 8.890625 6.984375 9.191406 C 6.984375 10.496094 7.027344 12.011719 7.191406 13.066406 C 7.320312 13.882812 7.507812 14.640625 7.753906 15.320312 C 7.753906 15.320312 7.847656 15.578125 7.867188 15.628906 C 7.90625 15.59375 8.109375 15.410156 8.109375 15.410156 C 8.324219 15.21875 8.523438 15.050781 8.71875 14.894531 L 8.734375 14.886719 L 9.089844 15.1875 Z M 10.355469 16.742188 L 10.355469 16.75 L 9.933594 17.222656 L 9.65625 17.535156 L 9.105469 18.15625 L 8.832031 18.46875 L 8.28125 19.089844 L 8.011719 19.398438 L 7.894531 19.527344 C 7.804688 19.632812 7.644531 19.640625 7.542969 19.546875 C 7.492188 19.503906 7.460938 19.441406 7.457031 19.375 C 7.453125 19.308594 7.476562 19.246094 7.519531 19.195312 L 7.96875 18.6875 L 8.789062 17.75 L 9.066406 17.4375 L 9.613281 16.8125 L 9.890625 16.496094 L 9.984375 16.390625 L 9.992188 16.390625 C 10.097656 16.367188 10.195312 16.386719 10.265625 16.445312 C 10.328125 16.503906 10.359375 16.582031 10.359375 16.675781 C 10.359375 16.695312 10.359375 16.71875 10.355469 16.742188 M 11.96875 16.023438 C 11.84375 16.445312 11.773438 16.804688 11.746094 17.121094 C 11.683594 17.066406 9.457031 15.089844 9.394531 15.035156 C 10.027344 14.90625 10.675781 14.597656 11.027344 14.429688 C 11.101562 14.394531 11.5 14.195312 11.957031 13.886719 C 12.269531 13.792969 12.589844 13.71875 12.90625 13.664062 C 12.277344 14.046875 11.890625 14.71875 11.890625 15.460938 C 11.890625 15.652344 11.914062 15.839844 11.96875 16.023438 M 15.789062 15.589844 C 15.773438 15.796875 15.722656 15.996094 15.644531 16.175781 C 15.585938 16.320312 15.503906 16.453125 15.410156 16.570312 C 15.378906 16.609375 15.347656 16.648438 15.316406 16.6875 C 14.996094 17.03125 14.542969 17.25 14.035156 17.265625 C 14.019531 17.265625 14.003906 17.265625 13.988281 17.265625 C 13.972656 17.265625 13.953125 17.265625 13.9375 17.265625 C 13.433594 17.25 12.980469 17.03125 12.664062 16.683594 C 12.628906 16.648438 12.597656 16.609375 12.566406 16.574219 C 12.472656 16.449219 12.390625 16.316406 12.332031 16.171875 C 12.253906 15.992188 12.203125 15.796875 12.1875 15.589844 C 12.1875 15.546875 12.183594 15.503906 12.183594 15.460938 C 12.183594 14.757812 12.585938 14.152344 13.167969 13.851562 C 13.199219 13.835938 13.230469 13.820312 13.265625 13.808594 C 13.472656 13.714844 13.699219 13.664062 13.941406 13.65625 C 13.957031 13.65625 13.972656 13.65625 13.992188 13.65625 C 14.007812 13.65625 14.023438 13.65625 14.039062 13.65625 C 14.28125 13.664062 14.511719 13.71875 14.71875 13.808594 C 14.75 13.824219 14.78125 13.839844 14.8125 13.855469 C 15.394531 14.152344 15.792969 14.761719 15.792969 15.460938 C 15.792969 15.503906 15.792969 15.546875 15.789062 15.589844 M 18.085938 16.503906 C 18.148438 16.578125 18.246094 16.6875 18.359375 16.816406 C 18.515625 16.996094 18.707031 17.210938 18.910156 17.445312 C 19 17.546875 19.09375 17.652344 19.183594 17.757812 C 19.371094 17.972656 19.558594 18.1875 19.734375 18.382812 C 19.828125 18.496094 19.921875 18.597656 20.003906 18.695312 C 20.269531 18.996094 20.453125 19.207031 20.453125 19.207031 C 20.492188 19.253906 20.515625 19.3125 20.515625 19.371094 C 20.515625 19.375 20.515625 19.382812 20.515625 19.386719 C 20.511719 19.457031 20.480469 19.515625 20.429688 19.558594 C 20.324219 19.652344 20.167969 19.640625 20.074219 19.539062 L 19.960938 19.40625 L 19.691406 19.101562 L 19.144531 18.476562 L 18.867188 18.167969 L 18.320312 17.542969 L 18.039062 17.226562 L 17.625 16.753906 L 17.621094 16.746094 C 17.605469 16.628906 17.636719 16.519531 17.714844 16.453125 C 17.785156 16.390625 17.878906 16.375 17.984375 16.394531 L 17.992188 16.398438 C 17.992188 16.398438 18.027344 16.4375 18.085938 16.503906 M 16.191406 17.125 C 16.167969 16.828125 16.101562 16.480469 15.992188 16.089844 C 16.058594 15.886719 16.089844 15.675781 16.089844 15.460938 C 16.089844 14.726562 15.707031 14.058594 15.089844 13.675781 C 15.390625 13.730469 15.695312 13.800781 15.992188 13.894531 C 16.441406 14.199219 16.84375 14.398438 16.917969 14.433594 C 17.269531 14.601562 17.917969 14.914062 18.546875 15.042969 C 18.484375 15.097656 16.253906 17.070312 16.191406 17.125 M 17.527344 14.269531 C 15.921875 13.386719 14.519531 13.289062 13.992188 13.285156 C 13.460938 13.285156 12.058594 13.382812 10.453125 14.265625 C 10.070312 14.449219 9.421875 14.707031 8.863281 14.839844 L 8.84375 14.800781 L 8.957031 14.714844 C 8.957031 14.714844 9.058594 14.640625 9.082031 14.628906 C 9.074219 14.601562 9.039062 14.480469 9.039062 14.480469 C 8.910156 14 8.808594 13.5 8.730469 13 C 8.683594 12.710938 8.648438 12.359375 8.617188 11.957031 L 8.613281 11.914062 L 9.210938 12.265625 L 9.210938 12.277344 C 9.273438 12.925781 9.359375 13.511719 9.46875 14.027344 C 9.46875 14.027344 9.519531 14.277344 9.53125 14.328125 C 9.601562 14.285156 9.796875 14.171875 9.796875 14.171875 C 10.113281 13.988281 10.410156 13.835938 10.699219 13.710938 C 10.699219 13.710938 10.835938 13.648438 10.863281 13.640625 C 10.851562 13.597656 10.828125 13.464844 10.828125 13.464844 C 10.714844 12.894531 10.628906 12.265625 10.570312 11.597656 C 10.570312 11.597656 10.5625 11.5 10.558594 11.480469 C 10.535156 11.46875 9.851562 11.078125 9.851562 11.078125 C 9.851562 11.078125 10.488281 10.617188 10.503906 10.605469 C 10.503906 10.585938 10.5 10.484375 10.5 10.484375 C 10.480469 10.023438 10.46875 9.546875 10.46875 9.039062 C 10.46875 8.8125 10.472656 8.578125 10.476562 8.339844 L 10.480469 8.117188 L 10.480469 8.101562 L 10.855469 7.960938 L 10.855469 8.445312 C 10.902344 8.445312 17.089844 8.453125 17.132812 8.453125 C 17.132812 8.410156 17.132812 7.964844 17.132812 7.964844 L 17.492188 8.101562 L 17.484375 8.335938 C 17.484375 8.335938 17.46875 8.675781 17.46875 8.679688 L 17.46875 8.734375 C 17.457031 9.285156 17.445312 10.207031 18.015625 10.839844 L 18.75 11.628906 L 18.960938 11.859375 L 19.019531 11.925781 C 19.175781 12.09375 19.351562 12.28125 19.230469 13.0625 L 19.226562 13.085938 L 19.222656 13.117188 L 18.71875 12.828125 L 18.707031 12.820312 L 18.765625 12.375 C 18.765625 12.375 18.777344 12.273438 18.777344 12.253906 C 18.753906 12.234375 17.476562 11.226562 17.421875 11.183594 C 17.414062 11.292969 17.386719 11.59375 17.386719 11.59375 C 17.328125 12.296875 17.242188 12.921875 17.132812 13.460938 C 17.132812 13.460938 17.105469 13.605469 17.097656 13.636719 C 17.136719 13.652344 17.261719 13.707031 17.261719 13.707031 C 17.898438 13.984375 18.523438 14.355469 19.125 14.804688 L 19.105469 14.847656 C 18.550781 14.714844 17.910156 14.453125 17.527344 14.269531 M 21.40625 7.722656 L 21.425781 7.722656 L 21.429688 7.859375 C 21.476562 10.207031 21.398438 12.132812 21.210938 13.277344 C 21.011719 14.5 20.671875 15.578125 20.207031 16.476562 L 20.191406 16.503906 L 20.167969 16.480469 C 19.78125 16.015625 19.359375 15.585938 18.910156 15.214844 L 18.890625 15.199219 L 19.242188 14.894531 L 19.257812 14.910156 C 19.457031 15.0625 19.65625 15.230469 19.84375 15.398438 C 19.84375 15.398438 20.027344 15.5625 20.066406 15.59375 C 20.097656 15.523438 20.214844 15.273438 20.214844 15.273438 C 20.214844 15.273438 20.21875 15.269531 20.222656 15.265625 C 20.355469 14.933594 20.484375 14.511719 20.695312 13.53125 C 20.765625 13.207031 20.792969 12.929688 20.792969 12.691406 C 20.792969 11.871094 20.449219 11.507812 20.246094 11.289062 L 20.15625 11.191406 C 20.15625 11.191406 19.753906 10.734375 19.753906 10.734375 L 19.28125 10.199219 C 18.980469 9.847656 18.921875 9.644531 18.921875 9.363281 C 18.921875 9.355469 18.921875 9.316406 18.921875 9.316406 L 19.484375 9.3125 L 19.507812 9.3125 L 19.507812 9.761719 C 19.507812 9.761719 19.507812 9.859375 19.507812 9.875 C 19.53125 9.890625 20.914062 10.914062 20.972656 10.953125 C 20.976562 10.84375 20.984375 10.53125 20.984375 10.53125 C 21 10.085938 21.003906 9.617188 21.003906 9.113281 C 21.003906 8.863281 21.003906 8.609375 21 8.339844 C 21 8.339844 21 8.15625 21 8.121094 C 20.960938 8.121094 19.125 8.125 19.125 8.125 L 19.070312 8.125 L 19.476562 7.722656 Z M 20.152344 6.730469 C 20.066406 6.816406 19.765625 6.769531 19.636719 6.71875 L 19.613281 6.707031 L 19.941406 6.292969 L 19.976562 6.25 L 19.996094 6.269531 C 20.117188 6.390625 20.304688 6.578125 20.152344 6.730469 M 19.617188 6.207031 C 19.617188 6.203125 19.222656 6.652344 19.171875 6.707031 C 19.148438 6.703125 19.007812 6.65625 18.960938 6.644531 C 19 6.601562 19.207031 6.347656 19.207031 6.347656 L 19.175781 6.339844 C 19.128906 6.320312 19.089844 6.292969 19.046875 6.261719 C 19.046875 6.261719 19.015625 6.242188 18.992188 6.226562 C 19.023438 6.191406 19.242188 5.9375 19.242188 5.9375 L 19.273438 5.902344 L 19.828125 5.382812 C 20.183594 5.046875 20.652344 4.605469 21.066406 4.230469 C 20.585938 4.917969 19.949219 5.777344 19.617188 6.207031 "/>
<path style=" stroke:none;fill-rule:nonzero;fill:rgb(1.960784%,9.803922%,13.333333%);fill-opacity:1;" d="M 8.71875 14.894531 C 8.523438 15.050781 8.324219 15.21875 8.109375 15.410156 C 8.109375 15.410156 7.90625 15.59375 7.867188 15.628906 C 7.847656 15.578125 7.753906 15.320312 7.753906 15.320312 C 7.507812 14.640625 7.320312 13.882812 7.191406 13.066406 C 7.027344 12.007812 6.984375 10.496094 6.984375 9.191406 C 6.984375 8.890625 6.988281 8.601562 6.992188 8.328125 C 6.992188 8.328125 6.996094 8.148438 6.996094 8.109375 C 7.03125 8.109375 8.5 8.113281 8.535156 8.113281 C 8.535156 8.148438 8.53125 8.335938 8.53125 8.335938 C 8.527344 8.632812 8.527344 8.917969 8.527344 9.195312 C 8.527344 9.664062 8.53125 10.105469 8.542969 10.519531 L 8.546875 10.5625 L 9.089844 10.167969 L 9.089844 10.15625 C 9.074219 9.574219 9.078125 8.972656 9.089844 8.324219 L 9.09375 8.273438 L 9.027344 8.21875 L 9 8.191406 L 8.515625 7.714844 L 8.503906 7.710938 L 6.566406 7.710938 L 6.5625 7.847656 C 6.511719 10.195312 6.585938 12.121094 6.769531 13.261719 C 6.96875 14.488281 7.308594 15.566406 7.769531 16.464844 L 7.785156 16.496094 L 7.808594 16.46875 C 8.199219 16.003906 8.621094 15.578125 9.070312 15.207031 L 9.089844 15.1875 L 8.734375 14.886719 Z M 8.71875 14.894531 "/>
<path style=" stroke:none;fill-rule:nonzero;fill:rgb(22.352941%,23.921569%,58.039216%);fill-opacity:1;" d="M 8.71875 14.894531 C 8.523438 15.050781 8.324219 15.21875 8.109375 15.410156 C 8.109375 15.410156 7.90625 15.59375 7.867188 15.628906 C 7.847656 15.578125 7.753906 15.320312 7.753906 15.320312 C 7.507812 14.640625 7.320312 13.882812 7.191406 13.066406 C 7.027344 12.007812 6.984375 10.496094 6.984375 9.191406 C 6.984375 8.890625 6.988281 8.601562 6.992188 8.328125 C 6.992188 8.328125 6.996094 8.148438 6.996094 8.109375 C 7.03125 8.109375 8.5 8.113281 8.535156 8.113281 C 8.535156 8.148438 8.53125 8.335938 8.53125 8.335938 C 8.527344 8.632812 8.527344 8.917969 8.527344 9.195312 C 8.527344 9.664062 8.53125 10.105469 8.542969 10.519531 L 8.546875 10.5625 L 9.089844 10.167969 L 9.089844 10.15625 C 9.074219 9.574219 9.078125 8.972656 9.089844 8.324219 L 9.09375 8.273438 L 9.027344 8.21875 L 9 8.191406 L 8.515625 7.714844 L 8.503906 7.710938 L 6.566406 7.710938 L 6.5625 7.847656 C 6.511719 10.195312 6.585938 12.121094 6.769531 13.261719 C 6.96875 14.488281 7.308594 15.566406 7.769531 16.464844 L 7.785156 16.496094 L 7.808594 16.46875 C 8.199219 16.003906 8.621094 15.578125 9.070312 15.207031 L 9.089844 15.1875 L 8.734375 14.886719 Z M 8.71875 14.894531 "/>
<path style=" stroke:none;fill-rule:nonzero;fill:rgb(1.960784%,9.803922%,13.333333%);fill-opacity:1;" d="M 19.890625 7.070312 L 19.828125 7.074219 C 19.492188 7.101562 18.46875 6.792969 17.671875 6.484375 L 17.519531 6.425781 C 16.714844 6.105469 15.609375 5.671875 13.996094 5.667969 C 12.390625 5.667969 11.28125 6.101562 10.472656 6.417969 L 10.324219 6.476562 C 9.523438 6.785156 8.5 7.089844 8.164062 7.066406 L 8.105469 7.058594 L 8.148438 7.101562 C 8.1875 7.140625 9.09375 8.042969 9.171875 8.113281 C 9.246094 8.1875 9.332031 8.199219 9.449219 8.199219 C 9.777344 8.195312 10.378906 7.960938 11.015625 7.714844 L 11.097656 7.679688 C 11.703125 7.445312 12.617188 7.089844 13.996094 7.089844 C 15.378906 7.09375 16.289062 7.449219 16.894531 7.683594 L 16.980469 7.71875 C 17.613281 7.96875 18.214844 8.203125 18.539062 8.207031 C 18.660156 8.207031 18.742188 8.195312 18.824219 8.121094 C 18.898438 8.050781 19.804688 7.148438 19.84375 7.113281 Z M 9.828125 7.707031 C 9.714844 7.75 9.550781 7.777344 9.464844 7.773438 L 9.410156 7.855469 L 9.328125 7.644531 C 9.476562 7.6875 9.640625 7.675781 9.777344 7.625 C 9.878906 7.589844 9.949219 7.546875 9.933594 7.5 C 9.914062 7.453125 9.816406 7.5 9.683594 7.535156 C 9.46875 7.601562 9.304688 7.601562 9.257812 7.476562 C 9.210938 7.351562 9.332031 7.226562 9.542969 7.148438 C 9.660156 7.109375 9.796875 7.085938 9.886719 7.09375 L 9.945312 7.011719 L 10.015625 7.199219 C 9.867188 7.167969 9.730469 7.1875 9.601562 7.234375 C 9.5 7.273438 9.410156 7.324219 9.425781 7.363281 C 9.441406 7.410156 9.535156 7.363281 9.664062 7.324219 C 9.878906 7.257812 10.066406 7.253906 10.117188 7.386719 C 10.167969 7.523438 10.042969 7.628906 9.828125 7.707031 M 10.648438 7.433594 L 10.714844 7.269531 L 10.683594 7.246094 L 10.382812 7.351562 L 10.375 7.386719 L 10.558594 7.46875 C 10.46875 7.5 10.265625 7.574219 10.152344 7.617188 L 10.234375 7.4375 L 10.304688 7.035156 L 10.128906 6.964844 C 10.300781 6.902344 10.585938 6.804688 10.707031 6.757812 L 10.609375 6.925781 L 10.917969 7.175781 L 11.105469 7.257812 C 10.96875 7.304688 10.730469 7.402344 10.648438 7.433594 M 11.457031 7.132812 C 11.195312 7.207031 10.960938 7.144531 10.910156 6.972656 C 10.859375 6.796875 11.019531 6.613281 11.285156 6.539062 C 11.394531 6.503906 11.515625 6.5 11.601562 6.515625 L 11.664062 6.4375 L 11.730469 6.667969 C 11.585938 6.601562 11.5 6.601562 11.371094 6.640625 C 11.234375 6.679688 11.113281 6.789062 11.144531 6.902344 C 11.175781 7.011719 11.339844 7.039062 11.476562 7 C 11.5625 6.976562 11.6875 6.941406 11.765625 6.796875 L 11.800781 6.902344 C 11.746094 6.988281 11.621094 7.082031 11.457031 7.132812 M 14.5 6.722656 L 14.636719 6.609375 L 14.667969 6.261719 L 14.425781 6.71875 L 14.3125 6.714844 L 14.117188 6.234375 L 14.105469 6.585938 L 14.238281 6.710938 C 14.15625 6.707031 13.941406 6.703125 13.828125 6.707031 C 13.636719 6.707031 13.429688 6.730469 13.339844 6.730469 L 13.445312 6.597656 L 13.425781 6.566406 L 13.109375 6.585938 L 13.09375 6.621094 L 13.246094 6.738281 C 13.171875 6.746094 13.011719 6.761719 12.886719 6.777344 L 12.890625 6.78125 L 12.535156 6.835938 C 12.480469 6.800781 12.433594 6.730469 12.394531 6.671875 C 12.371094 6.640625 12.355469 6.625 12.316406 6.636719 L 12.179688 6.667969 L 12.203125 6.777344 L 12.367188 6.867188 L 11.859375 6.996094 L 11.972656 6.84375 L 11.902344 6.5 L 11.738281 6.410156 C 11.921875 6.367188 12.117188 6.308594 12.289062 6.269531 C 12.507812 6.222656 12.664062 6.261719 12.683594 6.371094 C 12.695312 6.457031 12.628906 6.527344 12.519531 6.566406 L 12.523438 6.566406 C 12.554688 6.558594 12.601562 6.566406 12.636719 6.601562 C 12.65625 6.625 12.675781 6.652344 12.699219 6.679688 L 12.84375 6.753906 L 12.945312 6.632812 L 13.117188 6.273438 L 12.964844 6.164062 C 13.179688 6.144531 13.40625 6.125 13.566406 6.113281 L 13.433594 6.246094 L 13.667969 6.574219 L 13.828125 6.707031 L 13.972656 6.582031 L 13.988281 6.234375 L 13.855469 6.109375 C 13.976562 6.109375 14.203125 6.109375 14.308594 6.113281 L 14.433594 6.410156 L 14.582031 6.125 C 14.691406 6.132812 14.9375 6.15625 15.054688 6.171875 L 14.90625 6.285156 L 14.871094 6.625 L 15.003906 6.765625 C 14.855469 6.75 14.609375 6.726562 14.5 6.722656 M 15.890625 6.9375 C 15.660156 6.882812 15.285156 6.808594 15.035156 6.769531 L 15.195312 6.671875 L 15.257812 6.328125 L 15.140625 6.183594 C 15.332031 6.207031 15.671875 6.269531 16.019531 6.347656 L 15.976562 6.558594 L 15.808594 6.40625 L 15.492188 6.347656 L 15.46875 6.472656 L 15.652344 6.507812 L 15.769531 6.464844 L 15.726562 6.6875 L 15.632812 6.609375 L 15.453125 6.574219 L 15.425781 6.722656 L 15.738281 6.777344 L 15.945312 6.695312 Z M 16.9375 6.753906 L 16.792969 7.222656 L 16.550781 7.136719 L 16.332031 6.652344 L 16.269531 6.910156 L 16.375 7.074219 L 15.972656 6.957031 L 16.140625 6.875 L 16.226562 6.527344 L 16.113281 6.371094 L 16.503906 6.484375 L 16.738281 6.964844 L 16.8125 6.714844 L 16.710938 6.550781 L 17.101562 6.6875 Z M 17.722656 7.035156 L 17.613281 6.996094 L 17.484375 7.363281 L 17.578125 7.527344 L 17.085938 7.34375 L 17.261719 7.277344 L 17.390625 6.910156 L 17.28125 6.867188 L 17.046875 6.941406 L 17.128906 6.703125 C 17.269531 6.753906 17.722656 6.925781 17.9375 7.007812 L 17.855469 7.25 Z M 18.730469 7.582031 C 18.671875 7.761719 18.453125 7.832031 18.203125 7.757812 C 17.949219 7.683594 17.816406 7.5 17.875 7.324219 C 17.933594 7.144531 18.148438 7.074219 18.402344 7.148438 C 18.652344 7.226562 18.789062 7.402344 18.730469 7.582031 "/>
<path style=" stroke:none;fill-rule:nonzero;fill:rgb(22.352941%,23.921569%,58.039216%);fill-opacity:1;" d="M 19.890625 7.070312 L 19.828125 7.074219 C 19.492188 7.101562 18.46875 6.792969 17.671875 6.484375 L 17.519531 6.425781 C 16.714844 6.105469 15.609375 5.671875 13.996094 5.667969 C 12.390625 5.667969 11.28125 6.101562 10.472656 6.417969 L 10.324219 6.476562 C 9.523438 6.785156 8.5 7.089844 8.164062 7.066406 L 8.105469 7.058594 L 8.148438 7.101562 C 8.1875 7.140625 9.09375 8.042969 9.171875 8.113281 C 9.246094 8.1875 9.332031 8.199219 9.449219 8.199219 C 9.777344 8.195312 10.378906 7.960938 11.015625 7.714844 L 11.097656 7.679688 C 11.703125 7.445312 12.617188 7.089844 13.996094 7.089844 C 15.378906 7.09375 16.289062 7.449219 16.894531 7.683594 L 16.980469 7.71875 C 17.613281 7.96875 18.214844 8.203125 18.539062 8.207031 C 18.660156 8.207031 18.742188 8.195312 18.824219 8.121094 C 18.898438 8.050781 19.804688 7.148438 19.84375 7.113281 Z M 9.828125 7.707031 C 9.714844 7.75 9.550781 7.777344 9.464844 7.773438 L 9.410156 7.855469 L 9.328125 7.644531 C 9.476562 7.6875 9.640625 7.675781 9.777344 7.625 C 9.878906 7.589844 9.949219 7.546875 9.933594 7.5 C 9.914062 7.453125 9.816406 7.5 9.683594 7.535156 C 9.46875 7.601562 9.304688 7.601562 9.257812 7.476562 C 9.210938 7.351562 9.332031 7.226562 9.542969 7.148438 C 9.660156 7.109375 9.796875 7.085938 9.886719 7.09375 L 9.945312 7.011719 L 10.015625 7.199219 C 9.867188 7.167969 9.730469 7.1875 9.601562 7.234375 C 9.5 7.273438 9.410156 7.324219 9.425781 7.363281 C 9.441406 7.410156 9.535156 7.363281 9.664062 7.324219 C 9.878906 7.257812 10.066406 7.253906 10.117188 7.386719 C 10.167969 7.523438 10.042969 7.628906 9.828125 7.707031 M 10.648438 7.433594 L 10.714844 7.269531 L 10.683594 7.246094 L 10.382812 7.351562 L 10.375 7.386719 L 10.558594 7.46875 C 10.46875 7.5 10.265625 7.574219 10.152344 7.617188 L 10.234375 7.4375 L 10.304688 7.035156 L 10.128906 6.964844 C 10.300781 6.902344 10.585938 6.804688 10.707031 6.757812 L 10.609375 6.925781 L 10.917969 7.175781 L 11.105469 7.257812 C 10.96875 7.304688 10.730469 7.402344 10.648438 7.433594 M 11.457031 7.132812 C 11.195312 7.207031 10.960938 7.144531 10.910156 6.972656 C 10.859375 6.796875 11.019531 6.613281 11.285156 6.539062 C 11.394531 6.503906 11.515625 6.5 11.601562 6.515625 L 11.664062 6.4375 L 11.730469 6.667969 C 11.585938 6.601562 11.5 6.601562 11.371094 6.640625 C 11.234375 6.679688 11.113281 6.789062 11.144531 6.902344 C 11.175781 7.011719 11.339844 7.039062 11.476562 7 C 11.5625 6.976562 11.6875 6.941406 11.765625 6.796875 L 11.800781 6.902344 C 11.746094 6.988281 11.621094 7.082031 11.457031 7.132812 M 14.5 6.722656 L 14.636719 6.609375 L 14.667969 6.261719 L 14.425781 6.71875 L 14.3125 6.714844 L 14.117188 6.234375 L 14.105469 6.585938 L 14.238281 6.710938 C 14.15625 6.707031 13.941406 6.703125 13.828125 6.707031 C 13.636719 6.707031 13.429688 6.730469 13.339844 6.730469 L 13.445312 6.597656 L 13.425781 6.566406 L 13.109375 6.585938 L 13.09375 6.621094 L 13.246094 6.738281 C 13.171875 6.746094 13.011719 6.761719 12.886719 6.777344 L 12.890625 6.78125 L 12.535156 6.835938 C 12.480469 6.800781 12.433594 6.730469 12.394531 6.671875 C 12.371094 6.640625 12.355469 6.625 12.316406 6.636719 L 12.179688 6.667969 L 12.203125 6.777344 L 12.367188 6.867188 L 11.859375 6.996094 L 11.972656 6.84375 L 11.902344 6.5 L 11.738281 6.410156 C 11.921875 6.367188 12.117188 6.308594 12.289062 6.269531 C 12.507812 6.222656 12.664062 6.261719 12.683594 6.371094 C 12.695312 6.457031 12.628906 6.527344 12.519531 6.566406 L 12.523438 6.566406 C 12.554688 6.558594 12.601562 6.566406 12.636719 6.601562 C 12.65625 6.625 12.675781 6.652344 12.699219 6.679688 L 12.84375 6.753906 L 12.945312 6.632812 L 13.117188 6.273438 L 12.964844 6.164062 C 13.179688 6.144531 13.40625 6.125 13.566406 6.113281 L 13.433594 6.246094 L 13.667969 6.574219 L 13.828125 6.707031 L 13.972656 6.582031 L 13.988281 6.234375 L 13.855469 6.109375 C 13.976562 6.109375 14.203125 6.109375 14.308594 6.113281 L 14.433594 6.410156 L 14.582031 6.125 C 14.691406 6.132812 14.9375 6.15625 15.054688 6.171875 L 14.90625 6.285156 L 14.871094 6.625 L 15.003906 6.765625 C 14.855469 6.75 14.609375 6.726562 14.5 6.722656 M 15.890625 6.9375 C 15.660156 6.882812 15.285156 6.808594 15.035156 6.769531 L 15.195312 6.671875 L 15.257812 6.328125 L 15.140625 6.183594 C 15.332031 6.207031 15.671875 6.269531 16.019531 6.347656 L 15.976562 6.558594 L 15.808594 6.40625 L 15.492188 6.347656 L 15.46875 6.472656 L 15.652344 6.507812 L 15.769531 6.464844 L 15.726562 6.6875 L 15.632812 6.609375 L 15.453125 6.574219 L 15.425781 6.722656 L 15.738281 6.777344 L 15.945312 6.695312 Z M 16.9375 6.753906 L 16.792969 7.222656 L 16.550781 7.136719 L 16.332031 6.652344 L 16.269531 6.910156 L 16.375 7.074219 L 15.972656 6.957031 L 16.140625 6.875 L 16.226562 6.527344 L 16.113281 6.371094 L 16.503906 6.484375 L 16.738281 6.964844 L 16.8125 6.714844 L 16.710938 6.550781 L 17.101562 6.6875 Z M 17.722656 7.035156 L 17.613281 6.996094 L 17.484375 7.363281 L 17.578125 7.527344 L 17.085938 7.34375 L 17.261719 7.277344 L 17.390625 6.910156 L 17.28125 6.867188 L 17.046875 6.941406 L 17.128906 6.703125 C 17.269531 6.753906 17.722656 6.925781 17.9375 7.007812 L 17.855469 7.25 Z M 18.730469 7.582031 C 18.671875 7.761719 18.453125 7.832031 18.203125 7.757812 C 17.949219 7.683594 17.816406 7.5 17.875 7.324219 C 17.933594 7.144531 18.148438 7.074219 18.402344 7.148438 C 18.652344 7.226562 18.789062 7.402344 18.730469 7.582031 "/>
<path style=" stroke:none;fill-rule:nonzero;fill:rgb(1.960784%,9.803922%,13.333333%);fill-opacity:1;" d="M 13.15625 6.484375 L 13.355469 6.46875 L 13.238281 6.3125 Z M 13.15625 6.484375 "/>
<path style=" stroke:none;fill-rule:nonzero;fill:rgb(35.294118%,25.098039%,60%);fill-opacity:1;" d="M 13.15625 6.484375 L 13.355469 6.46875 L 13.238281 6.3125 Z M 13.15625 6.484375 "/>
<path style=" stroke:none;fill-rule:nonzero;fill:rgb(1.960784%,9.803922%,13.333333%);fill-opacity:1;" d="M 12.300781 6.378906 L 12.125 6.417969 L 12.15625 6.566406 L 12.328125 6.527344 C 12.390625 6.511719 12.425781 6.476562 12.421875 6.4375 C 12.414062 6.382812 12.363281 6.363281 12.300781 6.378906 "/>
<path style=" stroke:none;fill-rule:nonzero;fill:rgb(35.294118%,25.098039%,60%);fill-opacity:1;" d="M 12.300781 6.378906 L 12.125 6.417969 L 12.15625 6.566406 L 12.328125 6.527344 C 12.390625 6.511719 12.425781 6.476562 12.421875 6.4375 C 12.414062 6.382812 12.363281 6.363281 12.300781 6.378906 "/>
<path style=" stroke:none;fill-rule:nonzero;fill:rgb(1.960784%,9.803922%,13.333333%);fill-opacity:1;" d="M 10.40625 7.234375 L 10.589844 7.167969 L 10.433594 7.042969 Z M 10.40625 7.234375 "/>
<path style=" stroke:none;fill-rule:nonzero;fill:rgb(35.294118%,25.098039%,60%);fill-opacity:1;" d="M 10.40625 7.234375 L 10.589844 7.167969 L 10.433594 7.042969 Z M 10.40625 7.234375 "/>
<path style=" stroke:none;fill-rule:nonzero;fill:rgb(1.960784%,9.803922%,13.333333%);fill-opacity:1;" d="M 18.359375 7.265625 C 18.242188 7.230469 18.140625 7.285156 18.101562 7.394531 C 18.070312 7.503906 18.121094 7.601562 18.238281 7.636719 C 18.355469 7.671875 18.464844 7.625 18.5 7.515625 C 18.535156 7.40625 18.476562 7.300781 18.359375 7.265625 "/>
<path style=" stroke:none;fill-rule:nonzero;fill:rgb(35.294118%,25.098039%,60%);fill-opacity:1;" d="M 18.359375 7.265625 C 18.242188 7.230469 18.140625 7.285156 18.101562 7.394531 C 18.070312 7.503906 18.121094 7.601562 18.238281 7.636719 C 18.355469 7.671875 18.464844 7.625 18.5 7.515625 C 18.535156 7.40625 18.476562 7.300781 18.359375 7.265625 "/>
<path style=" stroke:none;fill-rule:nonzero;fill:rgb(100%,100%,100%);fill-opacity:1;" d="M 9.664062 7.324219 C 9.535156 7.363281 9.441406 7.410156 9.425781 7.363281 C 9.410156 7.324219 9.5 7.273438 9.601562 7.234375 C 9.730469 7.1875 9.867188 7.167969 10.015625 7.199219 L 9.945312 7.011719 L 9.886719 7.09375 C 9.796875 7.085938 9.660156 7.109375 9.542969 7.148438 C 9.332031 7.226562 9.210938 7.351562 9.257812 7.476562 C 9.304688 7.601562 9.46875 7.601562 9.683594 7.535156 C 9.816406 7.5 9.914062 7.457031 9.933594 7.5 C 9.949219 7.546875 9.878906 7.589844 9.773438 7.625 C 9.640625 7.675781 9.476562 7.691406 9.328125 7.648438 L 9.410156 7.855469 L 9.464844 7.773438 C 9.550781 7.78125 9.714844 7.75 9.828125 7.707031 C 10.042969 7.628906 10.167969 7.523438 10.117188 7.386719 C 10.066406 7.253906 9.878906 7.257812 9.664062 7.324219 "/>
<path style=" stroke:none;fill-rule:nonzero;fill:rgb(100%,100%,100%);fill-opacity:1;" d="M 11.476562 7 C 11.339844 7.039062 11.175781 7.011719 11.144531 6.902344 C 11.113281 6.789062 11.234375 6.679688 11.371094 6.640625 C 11.5 6.601562 11.585938 6.605469 11.730469 6.667969 L 11.664062 6.4375 L 11.601562 6.515625 C 11.515625 6.5 11.394531 6.503906 11.285156 6.539062 C 11.019531 6.613281 10.859375 6.796875 10.910156 6.972656 C 10.960938 7.144531 11.195312 7.207031 11.457031 7.132812 C 11.621094 7.082031 11.746094 6.988281 11.800781 6.90625 L 11.765625 6.796875 C 11.6875 6.941406 11.5625 6.976562 11.476562 7 "/>
<path style=" stroke:none;fill-rule:nonzero;fill:rgb(100%,100%,100%);fill-opacity:1;" d="M 14.90625 6.285156 L 15.054688 6.171875 C 14.9375 6.15625 14.691406 6.132812 14.582031 6.125 L 14.433594 6.410156 L 14.308594 6.113281 C 14.207031 6.109375 13.976562 6.109375 13.855469 6.109375 L 13.988281 6.234375 L 13.972656 6.582031 L 13.828125 6.707031 C 13.941406 6.703125 14.15625 6.707031 14.238281 6.707031 L 14.105469 6.585938 L 14.117188 6.234375 L 14.3125 6.714844 L 14.425781 6.71875 L 14.667969 6.261719 L 14.636719 6.605469 L 14.5 6.71875 C 14.609375 6.726562 14.855469 6.75 15.003906 6.765625 L 14.871094 6.625 Z M 14.90625 6.285156 "/>
<path style=" stroke:none;fill-rule:nonzero;fill:rgb(100%,100%,100%);fill-opacity:1;" d="M 15.425781 6.71875 L 15.453125 6.574219 L 15.632812 6.609375 L 15.726562 6.691406 L 15.769531 6.464844 L 15.652344 6.507812 L 15.46875 6.472656 L 15.492188 6.34375 L 15.808594 6.40625 L 15.972656 6.558594 L 16.019531 6.347656 C 15.671875 6.269531 15.332031 6.207031 15.140625 6.183594 L 15.257812 6.328125 L 15.195312 6.671875 L 15.035156 6.769531 C 15.285156 6.808594 15.660156 6.882812 15.890625 6.9375 L 15.945312 6.695312 L 15.738281 6.777344 Z M 15.425781 6.71875 "/>
<path style=" stroke:none;fill-rule:nonzero;fill:rgb(100%,100%,100%);fill-opacity:1;" d="M 16.710938 6.550781 L 16.8125 6.714844 L 16.738281 6.964844 L 16.507812 6.484375 L 16.113281 6.371094 L 16.226562 6.527344 L 16.140625 6.875 L 15.972656 6.957031 L 16.375 7.074219 L 16.269531 6.910156 L 16.332031 6.652344 L 16.550781 7.136719 L 16.796875 7.222656 L 16.9375 6.753906 L 17.101562 6.6875 Z M 16.710938 6.550781 "/>
<path style=" stroke:none;fill-rule:nonzero;fill:rgb(100%,100%,100%);fill-opacity:1;" d="M 17.128906 6.703125 L 17.046875 6.941406 L 17.28125 6.867188 L 17.390625 6.910156 L 17.261719 7.277344 L 17.085938 7.339844 L 17.578125 7.527344 L 17.484375 7.359375 L 17.613281 6.992188 L 17.722656 7.035156 L 17.855469 7.25 L 17.9375 7.007812 C 17.722656 6.925781 17.269531 6.753906 17.128906 6.703125 "/>
<path style=" stroke:none;fill-rule:nonzero;fill:rgb(100%,100%,100%);fill-opacity:1;" d="M 18.402344 7.148438 C 18.148438 7.074219 17.933594 7.144531 17.875 7.324219 C 17.816406 7.5 17.949219 7.683594 18.203125 7.757812 C 18.453125 7.835938 18.671875 7.761719 18.730469 7.582031 C 18.789062 7.402344 18.652344 7.226562 18.402344 7.148438 M 18.5 7.515625 C 18.464844 7.625 18.355469 7.671875 18.238281 7.636719 C 18.121094 7.601562 18.070312 7.503906 18.101562 7.394531 C 18.140625 7.285156 18.242188 7.234375 18.359375 7.265625 C 18.476562 7.300781 18.535156 7.402344 18.5 7.515625 "/>
<path style=" stroke:none;fill-rule:nonzero;fill:rgb(100%,100%,100%);fill-opacity:1;" d="M 10.609375 6.925781 L 10.707031 6.757812 C 10.585938 6.804688 10.300781 6.902344 10.128906 6.964844 L 10.304688 7.035156 L 10.234375 7.4375 L 10.152344 7.617188 C 10.265625 7.574219 10.46875 7.5 10.558594 7.46875 L 10.375 7.386719 L 10.382812 7.351562 L 10.683594 7.246094 L 10.714844 7.269531 L 10.648438 7.433594 C 10.730469 7.402344 10.96875 7.304688 11.105469 7.257812 L 10.917969 7.175781 Z M 10.40625 7.234375 L 10.433594 7.042969 L 10.589844 7.167969 Z M 10.40625 7.234375 "/>
<path style=" stroke:none;fill-rule:nonzero;fill:rgb(100%,100%,100%);fill-opacity:1;" d="M 13.433594 6.246094 L 13.566406 6.113281 C 13.40625 6.125 13.179688 6.140625 12.964844 6.164062 L 13.117188 6.273438 L 12.945312 6.632812 L 12.84375 6.753906 L 12.699219 6.679688 C 12.675781 6.652344 12.65625 6.625 12.636719 6.601562 C 12.601562 6.566406 12.554688 6.558594 12.523438 6.566406 L 12.519531 6.566406 C 12.632812 6.527344 12.695312 6.457031 12.683594 6.371094 C 12.664062 6.261719 12.507812 6.222656 12.289062 6.269531 C 12.117188 6.308594 11.921875 6.367188 11.738281 6.410156 L 11.902344 6.5 L 11.972656 6.84375 L 11.863281 6.996094 L 12.367188 6.867188 L 12.203125 6.777344 L 12.179688 6.667969 L 12.316406 6.632812 C 12.355469 6.625 12.371094 6.640625 12.394531 6.667969 C 12.433594 6.730469 12.480469 6.800781 12.535156 6.835938 L 12.890625 6.78125 L 12.886719 6.777344 C 13.011719 6.761719 13.171875 6.746094 13.246094 6.742188 L 13.09375 6.621094 L 13.109375 6.589844 L 13.425781 6.566406 L 13.445312 6.597656 L 13.339844 6.730469 C 13.429688 6.730469 13.636719 6.707031 13.828125 6.707031 L 13.667969 6.574219 Z M 12.328125 6.527344 L 12.15625 6.566406 L 12.125 6.417969 L 12.300781 6.375 C 12.363281 6.363281 12.414062 6.382812 12.421875 6.4375 C 12.425781 6.476562 12.390625 6.511719 12.328125 6.527344 M 13.15625 6.484375 L 13.238281 6.3125 L 13.355469 6.46875 Z M 13.15625 6.484375 "/>
<path style=" stroke:none;fill-rule:nonzero;fill:rgb(22.352941%,23.921569%,58.039216%);fill-opacity:1;" d="M 14.039062 13.964844 L 14.0625 13.964844 C 14.222656 13.972656 14.386719 14.003906 14.539062 14.050781 L 14.558594 14.058594 L 14.566406 14.039062 C 14.613281 13.933594 14.671875 13.859375 14.710938 13.816406 C 14.710938 13.816406 14.714844 13.8125 14.71875 13.808594 C 14.511719 13.71875 14.28125 13.664062 14.039062 13.65625 Z M 14.039062 13.964844 "/>
<path style=" stroke:none;fill-rule:nonzero;fill:rgb(22.352941%,23.921569%,58.039216%);fill-opacity:1;" d="M 13.414062 14.039062 L 13.421875 14.058594 L 13.441406 14.050781 C 13.597656 14 13.757812 13.972656 13.917969 13.964844 L 13.941406 13.964844 L 13.941406 13.65625 C 13.699219 13.664062 13.472656 13.714844 13.265625 13.808594 C 13.265625 13.808594 13.269531 13.8125 13.269531 13.8125 C 13.308594 13.855469 13.367188 13.933594 13.414062 14.039062 "/>
<path style=" stroke:none;fill-rule:nonzero;fill:rgb(22.352941%,23.921569%,58.039216%);fill-opacity:1;" d="M 14.871094 15.285156 C 14.871094 15.285156 14.648438 14.921875 14.648438 14.921875 C 14.546875 14.742188 14.492188 14.5625 14.492188 14.386719 C 14.492188 14.3125 14.5 14.242188 14.519531 14.171875 L 14.527344 14.148438 L 14.503906 14.144531 C 14.363281 14.097656 14.214844 14.074219 14.0625 14.066406 L 14.039062 14.066406 L 14.035156 17.265625 C 14.542969 17.25 14.996094 17.03125 15.316406 16.6875 L 15.316406 16.683594 C 15.316406 15.976562 15.117188 15.671875 14.871094 15.285156 "/>
<path style=" stroke:none;fill-rule:nonzero;fill:rgb(22.352941%,23.921569%,58.039216%);fill-opacity:1;" d="M 15.699219 15.773438 C 15.699219 15.316406 15.523438 14.886719 15.199219 14.566406 C 15.039062 14.40625 14.851562 14.277344 14.644531 14.195312 L 14.617188 14.183594 L 14.613281 14.207031 C 14.597656 14.265625 14.589844 14.328125 14.589844 14.386719 C 14.589844 14.542969 14.636719 14.707031 14.734375 14.875 L 14.949219 15.230469 C 15.183594 15.59375 15.386719 15.902344 15.410156 16.542969 C 15.410156 16.542969 15.410156 16.558594 15.410156 16.570312 C 15.503906 16.453125 15.585938 16.320312 15.644531 16.175781 C 15.679688 16.042969 15.699219 15.90625 15.699219 15.773438 Z M 15.699219 15.773438 "/>
<path style=" stroke:none;fill-rule:nonzero;fill:rgb(22.352941%,23.921569%,58.039216%);fill-opacity:1;" d="M 13.308594 14.101562 L 13.332031 14.089844 L 13.320312 14.070312 C 13.273438 13.96875 13.210938 13.898438 13.167969 13.851562 C 12.585938 14.152344 12.183594 14.757812 12.183594 15.460938 C 12.183594 15.503906 12.1875 15.546875 12.1875 15.589844 C 12.199219 15.527344 12.207031 15.476562 12.207031 15.476562 C 12.308594 14.863281 12.730469 14.335938 13.308594 14.101562 "/>
<path style=" stroke:none;fill-rule:nonzero;fill:rgb(22.352941%,23.921569%,58.039216%);fill-opacity:1;" d="M 13.027344 15.230469 C 13.027344 15.230469 13.246094 14.875 13.246094 14.875 C 13.34375 14.703125 13.390625 14.539062 13.390625 14.386719 C 13.390625 14.324219 13.382812 14.265625 13.367188 14.207031 L 13.363281 14.183594 L 13.339844 14.191406 C 13.128906 14.277344 12.941406 14.402344 12.78125 14.5625 C 12.457031 14.886719 12.28125 15.316406 12.28125 15.773438 C 12.28125 15.90625 12.296875 16.039062 12.332031 16.171875 C 12.390625 16.316406 12.472656 16.449219 12.566406 16.574219 L 12.566406 16.542969 C 12.59375 15.898438 12.796875 15.589844 13.027344 15.230469 "/>
<path style=" stroke:none;fill-rule:nonzero;fill:rgb(22.352941%,23.921569%,58.039216%);fill-opacity:1;" d="M 14.8125 13.855469 C 14.769531 13.898438 14.710938 13.964844 14.660156 14.070312 L 14.652344 14.089844 L 14.675781 14.101562 C 14.898438 14.191406 15.097656 14.324219 15.269531 14.496094 C 15.535156 14.765625 15.710938 15.105469 15.773438 15.476562 C 15.773438 15.476562 15.78125 15.527344 15.789062 15.589844 C 15.792969 15.546875 15.792969 15.503906 15.792969 15.460938 C 15.792969 14.761719 15.394531 14.152344 14.8125 13.855469 "/>
<path style=" stroke:none;fill-rule:nonzero;fill:rgb(22.352941%,23.921569%,58.039216%);fill-opacity:1;" d="M 13.917969 14.066406 C 13.765625 14.074219 13.617188 14.097656 13.476562 14.140625 L 13.457031 14.148438 L 13.460938 14.171875 C 13.476562 14.238281 13.488281 14.3125 13.488281 14.386719 C 13.488281 14.558594 13.4375 14.738281 13.332031 14.921875 L 13.109375 15.285156 C 12.859375 15.667969 12.664062 15.976562 12.664062 16.683594 C 12.980469 17.03125 13.433594 17.25 13.9375 17.265625 C 13.9375 16.789062 13.941406 14.066406 13.941406 14.066406 Z M 13.917969 14.066406 "/>
<path style=" stroke:none;fill-rule:nonzero;fill:rgb(65.490196%,66.27451%,67.45098%);fill-opacity:1;" d="M 15.269531 14.496094 C 15.097656 14.324219 14.898438 14.191406 14.675781 14.101562 L 14.652344 14.089844 L 14.660156 14.070312 C 14.710938 13.964844 14.769531 13.898438 14.8125 13.855469 C 14.78125 13.839844 14.75 13.824219 14.71875 13.808594 C 14.714844 13.8125 14.710938 13.816406 14.710938 13.816406 C 14.671875 13.859375 14.613281 13.933594 14.566406 14.039062 L 14.558594 14.058594 L 14.539062 14.050781 C 14.386719 14.003906 14.222656 13.972656 14.0625 13.964844 L 14.039062 13.964844 L 14.042969 13.660156 L 14.042969 13.65625 C 14.023438 13.65625 14.007812 13.65625 13.992188 13.65625 C 13.972656 13.65625 13.957031 13.65625 13.941406 13.65625 L 13.941406 13.964844 L 13.917969 13.964844 C 13.757812 13.972656 13.597656 14 13.441406 14.050781 L 13.421875 14.058594 L 13.414062 14.039062 C 13.367188 13.933594 13.308594 13.855469 13.269531 13.8125 C 13.269531 13.8125 13.265625 13.808594 13.265625 13.808594 C 13.230469 13.824219 13.203125 13.835938 13.167969 13.851562 C 13.210938 13.898438 13.273438 13.96875 13.320312 14.070312 L 13.332031 14.089844 L 13.308594 14.101562 C 12.730469 14.335938 12.308594 14.863281 12.207031 15.476562 C 12.207031 15.476562 12.199219 15.527344 12.1875 15.589844 C 12.203125 15.796875 12.253906 15.992188 12.332031 16.171875 C 12.296875 16.039062 12.28125 15.90625 12.28125 15.773438 C 12.28125 15.316406 12.457031 14.886719 12.78125 14.5625 C 12.941406 14.402344 13.128906 14.277344 13.339844 14.191406 L 13.363281 14.183594 L 13.367188 14.207031 C 13.382812 14.265625 13.390625 14.324219 13.390625 14.386719 C 13.390625 14.539062 13.34375 14.703125 13.246094 14.875 C 13.246094 14.875 13.027344 15.230469 13.027344 15.230469 C 12.796875 15.589844 12.59375 15.902344 12.570312 16.542969 L 12.570312 16.574219 C 12.597656 16.609375 12.628906 16.648438 12.664062 16.683594 C 12.664062 15.976562 12.859375 15.667969 13.109375 15.285156 L 13.332031 14.921875 C 13.4375 14.738281 13.488281 14.558594 13.488281 14.386719 C 13.488281 14.3125 13.476562 14.242188 13.460938 14.171875 L 13.457031 14.148438 L 13.476562 14.144531 C 13.617188 14.097656 13.769531 14.074219 13.917969 14.066406 L 13.941406 14.066406 C 13.941406 14.066406 13.9375 16.789062 13.9375 17.265625 C 13.953125 17.265625 13.972656 17.265625 13.988281 17.265625 C 14.003906 17.265625 14.019531 17.265625 14.035156 17.265625 L 14.039062 14.066406 L 14.0625 14.066406 C 14.214844 14.074219 14.363281 14.097656 14.503906 14.144531 L 14.527344 14.148438 L 14.519531 14.171875 C 14.5 14.242188 14.492188 14.3125 14.492188 14.386719 C 14.492188 14.5625 14.546875 14.742188 14.648438 14.921875 C 14.648438 14.921875 14.871094 15.285156 14.871094 15.285156 C 15.117188 15.671875 15.316406 15.976562 15.316406 16.683594 L 15.316406 16.6875 C 15.347656 16.652344 15.378906 16.609375 15.410156 16.570312 C 15.410156 16.558594 15.410156 16.542969 15.410156 16.542969 C 15.386719 15.902344 15.183594 15.59375 14.949219 15.230469 L 14.734375 14.875 C 14.636719 14.707031 14.589844 14.542969 14.589844 14.386719 C 14.589844 14.328125 14.597656 14.265625 14.613281 14.207031 L 14.617188 14.183594 L 14.644531 14.195312 C 14.851562 14.28125 15.039062 14.40625 15.199219 14.566406 C 15.523438 14.886719 15.699219 15.316406 15.699219 15.773438 C 15.699219 15.910156 15.679688 16.046875 15.644531 16.175781 C 15.722656 15.996094 15.773438 15.796875 15.789062 15.589844 C 15.78125 15.527344 15.773438 15.476562 15.773438 15.476562 C 15.710938 15.105469 15.535156 14.765625 15.269531 14.496094 "/>
<g clip-path="url(#clip1)" clip-rule="nonzero">
<path style=" stroke:none;fill-rule:nonzero;fill:rgb(65.490196%,66.27451%,67.45098%);fill-opacity:1;" d="M 8.242188 18.40625 L 8.242188 18.375 L 7.96875 18.6875 L 7.972656 18.714844 L 7.972656 18.75 L 7.988281 18.984375 L 8.007812 19.363281 L 8.011719 19.398438 L 8.28125 19.089844 L 8.277344 19.058594 Z M 8.242188 18.40625 "/>
</g>
<g clip-path="url(#clip2)" clip-rule="nonzero">
<path style=" stroke:none;fill-rule:nonzero;fill:rgb(65.490196%,66.27451%,67.45098%);fill-opacity:1;" d="M 9.929688 17.15625 L 9.910156 16.796875 L 9.894531 16.527344 L 9.890625 16.496094 L 9.613281 16.8125 L 9.617188 16.84375 L 9.65625 17.503906 L 9.65625 17.535156 L 9.933594 17.222656 L 9.933594 17.1875 Z M 9.929688 17.15625 "/>
</g>
<g clip-path="url(#clip3)" clip-rule="nonzero">
<path style=" stroke:none;fill-rule:nonzero;fill:rgb(65.490196%,66.27451%,67.45098%);fill-opacity:1;" d="M 9.066406 17.46875 L 9.066406 17.4375 L 8.789062 17.75 L 8.792969 17.78125 L 8.816406 18.175781 L 8.828125 18.40625 L 8.828125 18.4375 L 8.832031 18.46875 L 9.105469 18.15625 L 9.105469 18.125 Z M 9.066406 17.46875 "/>
</g>
<g clip-path="url(#clip4)" clip-rule="nonzero">
<path style=" stroke:none;fill-rule:nonzero;fill:rgb(65.490196%,66.27451%,67.45098%);fill-opacity:1;" d="M 19.722656 18.554688 L 19.695312 19.039062 L 19.691406 19.070312 L 19.691406 19.101562 L 19.960938 19.40625 L 19.960938 19.375 L 19.964844 19.34375 L 20 18.757812 L 20.003906 18.726562 L 20.003906 18.695312 C 19.921875 18.597656 19.828125 18.496094 19.730469 18.382812 L 19.730469 18.417969 Z M 19.722656 18.554688 "/>
</g>
<g clip-path="url(#clip5)" clip-rule="nonzero">
<path style=" stroke:none;fill-rule:nonzero;fill:rgb(65.490196%,66.27451%,67.45098%);fill-opacity:1;" d="M 18.082031 16.566406 L 18.050781 17.066406 L 18.042969 17.195312 L 18.039062 17.226562 L 18.320312 17.542969 L 18.320312 17.511719 L 18.359375 16.851562 L 18.359375 16.816406 C 18.246094 16.6875 18.148438 16.578125 18.085938 16.503906 L 18.082031 16.535156 Z M 18.082031 16.566406 "/>
</g>
<g clip-path="url(#clip6)" clip-rule="nonzero">
<path style=" stroke:none;fill-rule:nonzero;fill:rgb(65.490196%,66.27451%,67.45098%);fill-opacity:1;" d="M 18.90625 17.511719 L 18.890625 17.808594 L 18.871094 18.132812 L 18.867188 18.167969 L 19.144531 18.476562 L 19.144531 18.414062 L 19.15625 18.214844 L 19.183594 17.789062 L 19.183594 17.757812 C 19.09375 17.652344 19 17.546875 18.910156 17.445312 L 18.90625 17.476562 Z M 18.90625 17.511719 "/>
</g>
<path style=" stroke:none;fill-rule:nonzero;fill:rgb(65.490196%,66.27451%,67.45098%);fill-opacity:1;" d="M 8.820312 6.699219 C 8.84375 6.691406 8.984375 6.652344 9.03125 6.636719 C 8.996094 6.59375 8.785156 6.339844 8.785156 6.339844 L 8.816406 6.328125 C 8.867188 6.3125 8.90625 6.28125 8.945312 6.253906 C 8.945312 6.253906 8.976562 6.234375 9.003906 6.21875 C 8.972656 6.183594 8.757812 5.933594 8.757812 5.933594 C 8.757812 5.933594 8.722656 5.894531 8.722656 5.894531 L 8.167969 5.371094 C 7.8125 5.035156 7.34375 4.59375 6.933594 4.21875 C 7.410156 4.90625 8.050781 5.769531 8.375 6.195312 C 8.375 6.195312 8.804688 6.679688 8.820312 6.699219 "/>
<path style=" stroke:none;fill-rule:nonzero;fill:rgb(1.960784%,9.803922%,13.333333%);fill-opacity:1;" d="M 8.355469 6.710938 L 8.382812 6.699219 L 8.035156 6.261719 L 8.019531 6.242188 L 8 6.257812 C 7.875 6.382812 7.691406 6.570312 7.84375 6.71875 C 7.929688 6.808594 8.226562 6.761719 8.355469 6.710938 "/>
<path style=" stroke:none;fill-rule:nonzero;fill:rgb(22.352941%,23.921569%,58.039216%);fill-opacity:1;" d="M 8.355469 6.710938 L 8.382812 6.699219 L 8.035156 6.261719 L 8.019531 6.242188 L 8 6.257812 C 7.875 6.382812 7.691406 6.570312 7.84375 6.71875 C 7.929688 6.808594 8.226562 6.761719 8.355469 6.710938 "/>
<path style=" stroke:none;fill-rule:nonzero;fill:rgb(1.960784%,9.803922%,13.333333%);fill-opacity:1;" d="M 9.300781 6.066406 C 9.433594 5.988281 9.527344 5.875 9.550781 5.761719 C 9.558594 5.710938 9.554688 5.667969 9.53125 5.636719 C 9.445312 5.527344 9.238281 5.542969 8.949219 5.679688 L 8.921875 5.691406 L 9.285156 6.074219 Z M 9.300781 6.066406 "/>
<path style=" stroke:none;fill-rule:nonzero;fill:rgb(22.352941%,23.921569%,58.039216%);fill-opacity:1;" d="M 9.300781 6.066406 C 9.433594 5.988281 9.527344 5.875 9.550781 5.761719 C 9.558594 5.710938 9.554688 5.667969 9.53125 5.636719 C 9.445312 5.527344 9.238281 5.542969 8.949219 5.679688 L 8.921875 5.691406 L 9.285156 6.074219 Z M 9.300781 6.066406 "/>
<path style=" stroke:none;fill-rule:nonzero;fill:rgb(1.960784%,9.803922%,13.333333%);fill-opacity:1;" d="M 9.246094 6.421875 L 9.21875 6.433594 L 9.347656 6.589844 L 9.363281 6.582031 C 9.367188 6.582031 9.835938 6.4375 10.152344 6.292969 L 10.175781 6.285156 L 9.796875 5.679688 L 9.757812 5.703125 C 9.789062 5.761719 9.792969 5.828125 9.769531 5.902344 C 9.714844 6.082031 9.507812 6.285156 9.246094 6.421875 "/>
<path style=" stroke:none;fill-rule:nonzero;fill:rgb(22.352941%,23.921569%,58.039216%);fill-opacity:1;" d="M 9.246094 6.421875 L 9.21875 6.433594 L 9.347656 6.589844 L 9.363281 6.582031 C 9.367188 6.582031 9.835938 6.4375 10.152344 6.292969 L 10.175781 6.285156 L 9.796875 5.679688 L 9.757812 5.703125 C 9.789062 5.761719 9.792969 5.828125 9.769531 5.902344 C 9.714844 6.082031 9.507812 6.285156 9.246094 6.421875 "/>
<path style=" stroke:none;fill-rule:nonzero;fill:rgb(65.490196%,66.27451%,67.45098%);fill-opacity:1;" d="M 14 5.453125 C 15.402344 5.457031 16.4375 5.773438 17.34375 6.125 C 17.359375 6.085938 17.992188 4.625 18.039062 4.515625 C 17.933594 4.570312 16.460938 5.34375 16.460938 5.34375 C 16.460938 5.34375 16.714844 2.644531 16.726562 2.503906 C 16.640625 2.613281 14.816406 4.875 14.816406 4.875 C 14.816406 4.875 14.042969 2.117188 14 1.972656 C 13.960938 2.121094 13.179688 4.875 13.179688 4.875 C 13.179688 4.875 11.363281 2.609375 11.273438 2.496094 C 11.285156 2.640625 11.53125 5.339844 11.53125 5.339844 C 11.53125 5.339844 10.0625 4.5625 9.957031 4.507812 C 10.003906 4.617188 10.632812 6.078125 10.652344 6.117188 C 11.558594 5.769531 12.59375 5.453125 14 5.453125 "/>
<path style=" stroke:none;fill-rule:nonzero;fill:rgb(1.960784%,9.803922%,13.333333%);fill-opacity:1;" d="M 19.976562 6.25 L 19.941406 6.292969 L 19.613281 6.707031 L 19.636719 6.71875 C 19.765625 6.769531 20.066406 6.816406 20.152344 6.730469 C 20.304688 6.578125 20.117188 6.390625 19.996094 6.269531 Z M 19.976562 6.25 "/>
<path style=" stroke:none;fill-rule:nonzero;fill:rgb(22.352941%,23.921569%,58.039216%);fill-opacity:1;" d="M 19.976562 6.25 L 19.941406 6.292969 L 19.613281 6.707031 L 19.636719 6.71875 C 19.765625 6.769531 20.066406 6.816406 20.152344 6.730469 C 20.304688 6.578125 20.117188 6.390625 19.996094 6.269531 Z M 19.976562 6.25 "/>
<path style=" stroke:none;fill-rule:nonzero;fill:rgb(1.960784%,9.803922%,13.333333%);fill-opacity:1;" d="M 18.695312 6.074219 L 18.710938 6.082031 L 19.078125 5.699219 L 19.046875 5.6875 C 18.753906 5.554688 18.550781 5.535156 18.464844 5.644531 C 18.441406 5.671875 18.4375 5.71875 18.445312 5.769531 C 18.46875 5.882812 18.558594 5.996094 18.695312 6.074219 "/>
<path style=" stroke:none;fill-rule:nonzero;fill:rgb(22.352941%,23.921569%,58.039216%);fill-opacity:1;" d="M 18.695312 6.074219 L 18.710938 6.082031 L 19.078125 5.699219 L 19.046875 5.6875 C 18.753906 5.554688 18.550781 5.535156 18.464844 5.644531 C 18.441406 5.671875 18.4375 5.71875 18.445312 5.769531 C 18.46875 5.882812 18.558594 5.996094 18.695312 6.074219 "/>
<path style=" stroke:none;fill-rule:nonzero;fill:rgb(1.960784%,9.803922%,13.333333%);fill-opacity:1;" d="M 17.839844 6.300781 C 18.160156 6.445312 18.625 6.589844 18.628906 6.589844 L 18.644531 6.59375 L 18.773438 6.441406 L 18.75 6.425781 C 18.484375 6.292969 18.28125 6.089844 18.226562 5.910156 C 18.203125 5.835938 18.207031 5.765625 18.238281 5.710938 L 18.199219 5.6875 L 17.816406 6.289062 Z M 17.839844 6.300781 "/>
<path style=" stroke:none;fill-rule:nonzero;fill:rgb(22.352941%,23.921569%,58.039216%);fill-opacity:1;" d="M 17.839844 6.300781 C 18.160156 6.445312 18.625 6.589844 18.628906 6.589844 L 18.644531 6.59375 L 18.773438 6.441406 L 18.75 6.425781 C 18.484375 6.292969 18.28125 6.089844 18.226562 5.910156 C 18.203125 5.835938 18.207031 5.765625 18.238281 5.710938 L 18.199219 5.6875 L 17.816406 6.289062 Z M 17.839844 6.300781 "/>
<path style=" stroke:none;fill-rule:nonzero;fill:rgb(1.960784%,9.803922%,13.333333%);fill-opacity:1;" d="M 19.070312 8.125 L 19.125 8.125 C 19.125 8.125 20.960938 8.121094 21 8.121094 C 21 8.160156 21 8.339844 21 8.339844 C 21.003906 8.609375 21.003906 8.863281 21.003906 9.113281 C 21.003906 9.617188 21 10.085938 20.984375 10.53125 C 20.984375 10.53125 20.976562 10.839844 20.972656 10.953125 C 20.917969 10.910156 19.53125 9.890625 19.507812 9.875 C 19.507812 9.859375 19.507812 9.761719 19.507812 9.761719 L 19.507812 9.3125 L 18.921875 9.3125 C 18.921875 9.3125 18.921875 9.355469 18.921875 9.367188 C 18.921875 9.644531 18.980469 9.847656 19.28125 10.195312 L 19.753906 10.734375 C 19.757812 10.734375 20.15625 11.191406 20.15625 11.191406 L 20.246094 11.289062 C 20.449219 11.507812 20.792969 11.871094 20.792969 12.695312 C 20.792969 12.929688 20.765625 13.207031 20.695312 13.53125 C 20.484375 14.511719 20.355469 14.933594 20.222656 15.265625 C 20.21875 15.269531 20.214844 15.273438 20.214844 15.273438 C 20.214844 15.273438 20.097656 15.523438 20.066406 15.59375 C 20.027344 15.5625 19.84375 15.398438 19.84375 15.398438 C 19.65625 15.230469 19.457031 15.0625 19.257812 14.90625 L 19.242188 14.894531 L 18.890625 15.195312 L 18.910156 15.214844 C 19.359375 15.585938 19.78125 16.015625 20.167969 16.480469 L 20.191406 16.503906 L 20.207031 16.472656 C 20.671875 15.578125 21.011719 14.5 21.210938 13.277344 C 21.398438 12.132812 21.476562 10.210938 21.429688 7.859375 L 21.425781 7.722656 L 19.476562 7.722656 Z M 19.070312 8.125 "/>
<path style=" stroke:none;fill-rule:nonzero;fill:rgb(22.352941%,23.921569%,58.039216%);fill-opacity:1;" d="M 19.070312 8.125 L 19.125 8.125 C 19.125 8.125 20.960938 8.121094 21 8.121094 C 21 8.160156 21 8.339844 21 8.339844 C 21.003906 8.609375 21.003906 8.863281 21.003906 9.113281 C 21.003906 9.617188 21 10.085938 20.984375 10.53125 C 20.984375 10.53125 20.976562 10.839844 20.972656 10.953125 C 20.917969 10.910156 19.53125 9.890625 19.507812 9.875 C 19.507812 9.859375 19.507812 9.761719 19.507812 9.761719 L 19.507812 9.3125 L 18.921875 9.3125 C 18.921875 9.3125 18.921875 9.355469 18.921875 9.367188 C 18.921875 9.644531 18.980469 9.847656 19.28125 10.195312 L 19.753906 10.734375 C 19.757812 10.734375 20.15625 11.191406 20.15625 11.191406 L 20.246094 11.289062 C 20.449219 11.507812 20.792969 11.871094 20.792969 12.695312 C 20.792969 12.929688 20.765625 13.207031 20.695312 13.53125 C 20.484375 14.511719 20.355469 14.933594 20.222656 15.265625 C 20.21875 15.269531 20.214844 15.273438 20.214844 15.273438 C 20.214844 15.273438 20.097656 15.523438 20.066406 15.59375 C 20.027344 15.5625 19.84375 15.398438 19.84375 15.398438 C 19.65625 15.230469 19.457031 15.0625 19.257812 14.90625 L 19.242188 14.894531 L 18.890625 15.195312 L 18.910156 15.214844 C 19.359375 15.585938 19.78125 16.015625 20.167969 16.480469 L 20.191406 16.503906 L 20.207031 16.472656 C 20.671875 15.578125 21.011719 14.5 21.210938 13.277344 C 21.398438 12.132812 21.476562 10.210938 21.429688 7.859375 L 21.425781 7.722656 L 19.476562 7.722656 Z M 19.070312 8.125 "/>
<path style=" stroke:none;fill-rule:nonzero;fill:rgb(65.490196%,66.27451%,67.45098%);fill-opacity:1;" d="M 19.273438 5.902344 L 19.242188 5.9375 C 19.242188 5.9375 19.023438 6.191406 18.992188 6.226562 C 19.015625 6.242188 19.046875 6.261719 19.046875 6.261719 C 19.089844 6.292969 19.128906 6.320312 19.175781 6.335938 L 19.207031 6.347656 C 19.207031 6.347656 19 6.601562 18.960938 6.644531 C 19.007812 6.660156 19.148438 6.703125 19.171875 6.710938 C 19.222656 6.652344 19.617188 6.203125 19.617188 6.207031 C 19.949219 5.777344 20.585938 4.917969 21.066406 4.230469 C 20.652344 4.605469 20.183594 5.046875 19.828125 5.382812 Z M 19.273438 5.902344 "/>
<path style=" stroke:none;fill-rule:nonzero;fill:rgb(65.490196%,66.27451%,67.45098%);fill-opacity:1;" d="M 11.300781 7.835938 C 11.300781 7.859375 11.300781 8.039062 11.300781 8.078125 C 11.347656 8.078125 16.644531 8.082031 16.6875 8.082031 C 16.6875 8.046875 16.691406 7.867188 16.691406 7.839844 C 16.039062 7.59375 15.144531 7.3125 13.996094 7.308594 C 12.847656 7.308594 11.953125 7.589844 11.300781 7.835938 M 16.167969 7.917969 L 11.824219 7.914062 L 12.160156 7.671875 L 15.828125 7.675781 Z M 16.167969 7.917969 "/>
<path style=" stroke:none;fill-rule:nonzero;fill:rgb(1.960784%,9.803922%,13.333333%);fill-opacity:1;" d="M 11.824219 7.914062 L 16.167969 7.917969 L 15.828125 7.675781 L 12.160156 7.671875 Z M 11.824219 7.914062 "/>
<path style=" stroke:none;fill-rule:nonzero;fill:rgb(1.960784%,9.803922%,13.333333%);fill-opacity:1;" d="M 11.824219 7.914062 L 16.167969 7.917969 L 15.828125 7.675781 L 12.160156 7.671875 Z M 11.824219 7.914062 "/>
<path style=" stroke:none;fill-rule:nonzero;fill:rgb(100%,100%,100%);fill-opacity:1;" d="M 20.761719 10.523438 C 20.785156 9.691406 20.785156 8.902344 20.777344 8.34375 L 18.828125 8.347656 C 18.726562 8.394531 18.625 8.402344 18.546875 8.402344 C 18.449219 8.402344 18.328125 8.382812 18.183594 8.347656 L 17.703125 8.347656 L 17.691406 8.683594 C 17.679688 9.222656 17.648438 10.101562 18.179688 10.691406 C 18.589844 11.144531 18.78125 11.34375 18.910156 11.476562 C 18.996094 11.570312 19.054688 11.628906 19.128906 11.714844 C 19.144531 11.734375 19.164062 11.753906 19.183594 11.773438 C 19.355469 11.960938 19.585938 12.210938 19.449219 13.09375 C 19.4375 13.175781 19.382812 13.378906 19.363281 13.472656 C 19.195312 13.347656 18.652344 13.039062 18.464844 12.941406 C 18.492188 12.742188 18.519531 12.546875 18.542969 12.351562 L 17.609375 11.613281 C 17.554688 12.253906 17.472656 12.902344 17.351562 13.503906 C 18.179688 13.867188 19.078125 14.414062 19.992188 15.234375 L 20.015625 15.179688 C 20.140625 14.867188 20.265625 14.46875 20.480469 13.484375 C 20.761719 12.160156 20.335938 11.710938 20.082031 11.441406 C 20.046875 11.402344 20.015625 11.367188 19.988281 11.335938 C 19.863281 11.191406 19.738281 11.046875 19.589844 10.882812 L 19.117188 10.34375 C 18.699219 9.863281 18.6875 9.605469 18.703125 9.183594 L 18.707031 9.09375 L 19.726562 9.09375 C 19.730469 9.289062 19.730469 9.519531 19.730469 9.765625 Z M 20.761719 10.523438 "/>
<path style=" stroke:none;fill-rule:nonzero;fill:rgb(100%,100%,100%);fill-opacity:1;" d="M 9.683594 13.980469 C 10 13.796875 10.308594 13.636719 10.609375 13.507812 C 10.492188 12.902344 10.40625 12.253906 10.347656 11.617188 L 9.441406 11.101562 L 10.277344 10.496094 C 10.246094 9.691406 10.246094 8.949219 10.253906 8.335938 L 9.835938 8.332031 C 9.683594 8.371094 9.546875 8.394531 9.441406 8.394531 C 9.40625 8.394531 9.359375 8.390625 9.3125 8.382812 C 9.300781 8.882812 9.292969 9.539062 9.3125 10.277344 L 8.339844 10.988281 C 8.296875 9.988281 8.304688 8.992188 8.3125 8.332031 L 7.214844 8.332031 C 7.199219 9.441406 7.195312 11.636719 7.410156 13.03125 C 7.539062 13.863281 7.726562 14.59375 7.960938 15.246094 C 8.253906 14.984375 8.539062 14.746094 8.828125 14.539062 C 8.703125 14.066406 8.59375 13.5625 8.511719 13.035156 C 8.441406 12.585938 8.394531 12.054688 8.363281 11.507812 L 9.417969 12.132812 C 9.476562 12.761719 9.5625 13.394531 9.683594 13.980469 "/>
<path style=" stroke:none;fill-rule:nonzero;fill:rgb(1.960784%,9.803922%,13.333333%);fill-opacity:1;" d="M 19.125 14.808594 C 18.523438 14.355469 17.898438 13.984375 17.261719 13.707031 C 17.261719 13.707031 17.136719 13.652344 17.097656 13.636719 C 17.105469 13.609375 17.132812 13.460938 17.132812 13.460938 C 17.242188 12.921875 17.328125 12.296875 17.386719 11.59375 C 17.386719 11.59375 17.414062 11.292969 17.421875 11.183594 C 17.476562 11.226562 18.753906 12.234375 18.78125 12.253906 C 18.777344 12.273438 18.765625 12.375 18.765625 12.375 L 18.707031 12.820312 L 18.71875 12.828125 L 19.222656 13.117188 L 19.226562 13.085938 L 19.234375 13.0625 C 19.351562 12.28125 19.175781 12.09375 19.019531 11.925781 L 18.960938 11.859375 L 18.75 11.628906 L 18.015625 10.839844 C 17.445312 10.207031 17.457031 9.285156 17.46875 8.734375 L 17.46875 8.679688 C 17.46875 8.675781 17.484375 8.335938 17.484375 8.335938 L 17.492188 8.101562 L 17.132812 7.964844 C 17.132812 7.964844 17.132812 8.410156 17.132812 8.453125 C 17.089844 8.453125 10.902344 8.445312 10.855469 8.445312 L 10.855469 7.960938 L 10.480469 8.101562 L 10.480469 8.117188 L 10.476562 8.339844 C 10.472656 8.578125 10.46875 8.8125 10.46875 9.042969 C 10.46875 9.546875 10.480469 10.023438 10.5 10.484375 C 10.5 10.484375 10.503906 10.585938 10.503906 10.605469 C 10.488281 10.617188 9.851562 11.078125 9.851562 11.078125 C 9.851562 11.078125 10.535156 11.46875 10.558594 11.480469 C 10.5625 11.5 10.570312 11.597656 10.570312 11.597656 C 10.628906 12.265625 10.714844 12.894531 10.828125 13.464844 C 10.828125 13.464844 10.855469 13.597656 10.863281 13.640625 C 10.835938 13.652344 10.699219 13.710938 10.699219 13.710938 C 10.410156 13.835938 10.113281 13.988281 9.796875 14.171875 C 9.796875 14.171875 9.601562 14.285156 9.53125 14.328125 C 9.519531 14.277344 9.46875 14.027344 9.46875 14.027344 C 9.359375 13.515625 9.273438 12.925781 9.210938 12.277344 L 9.210938 12.265625 L 8.613281 11.914062 L 8.617188 11.957031 C 8.648438 12.359375 8.683594 12.710938 8.730469 13 C 8.808594 13.5 8.914062 14 9.039062 14.480469 C 9.039062 14.480469 9.074219 14.601562 9.082031 14.628906 C 9.0625 14.640625 8.957031 14.714844 8.957031 14.714844 L 8.84375 14.800781 L 8.863281 14.839844 C 9.421875 14.710938 10.070312 14.449219 10.453125 14.265625 C 12.0625 13.382812 13.464844 13.285156 13.992188 13.285156 C 14.519531 13.289062 15.921875 13.386719 17.527344 14.269531 C 17.910156 14.453125 18.550781 14.714844 19.105469 14.847656 Z M 12.011719 13.269531 C 11.800781 13.320312 11.597656 13.378906 11.402344 13.445312 C 11.402344 13.445312 11.199219 13.511719 11.160156 13.527344 C 11.152344 13.480469 11.113281 13.273438 11.113281 13.273438 C 10.886719 11.964844 10.832031 10.515625 10.832031 9.402344 C 10.832031 9.230469 10.832031 9.066406 10.835938 8.910156 C 10.835938 8.910156 10.835938 8.75 10.839844 8.691406 C 10.875 8.691406 11.890625 8.691406 11.949219 8.691406 C 11.949219 8.730469 11.949219 8.917969 11.949219 8.917969 C 11.945312 9.117188 11.941406 9.308594 11.941406 9.503906 C 11.941406 10.824219 12.023438 12.003906 12.179688 13.019531 C 12.179688 13.019531 12.203125 13.1875 12.207031 13.21875 Z M 14.601562 12.835938 C 14.601562 12.835938 14.585938 13.011719 14.585938 13.046875 C 14.546875 13.046875 14.371094 13.039062 14.371094 13.039062 L 13.988281 13.03125 L 13.945312 13.03125 C 13.941406 13.03125 13.917969 13.027344 13.917969 13.027344 C 13.917969 13.027344 13.753906 13.027344 13.695312 13.027344 C 13.695312 12.992188 13.703125 10.8125 13.703125 10.8125 L 13.292969 10.539062 L 13.292969 10.582031 C 13.300781 11.476562 13.324219 12.214844 13.367188 12.835938 C 13.367188 12.835938 13.378906 13 13.382812 13.050781 C 13.347656 13.054688 13.167969 13.070312 13.167969 13.070312 L 12.691406 13.132812 C 12.691406 13.132812 12.503906 13.160156 12.464844 13.164062 C 12.460938 13.128906 12.4375 12.9375 12.4375 12.9375 C 12.324219 11.972656 12.269531 10.875 12.269531 9.65625 C 12.269531 9.414062 12.269531 9.164062 12.277344 8.910156 C 12.277344 8.910156 12.28125 8.746094 12.28125 8.691406 C 12.316406 8.691406 13.082031 8.691406 13.082031 8.691406 C 13.082031 8.691406 13.269531 8.691406 13.304688 8.695312 C 13.304688 8.730469 13.296875 9.121094 13.296875 9.121094 L 13.699219 9.402344 C 13.699219 9.402344 13.699219 8.730469 13.699219 8.691406 C 13.738281 8.691406 14.660156 8.695312 14.71875 8.695312 C 14.71875 8.730469 14.71875 8.914062 14.71875 8.914062 C 14.722656 9.117188 14.726562 9.339844 14.726562 9.582031 C 14.726562 10.503906 14.699219 11.675781 14.601562 12.835938 M 16.828125 13.527344 C 16.789062 13.511719 16.585938 13.445312 16.585938 13.445312 C 16.101562 13.28125 15.601562 13.167969 15.0625 13.101562 C 15.0625 13.101562 14.882812 13.078125 14.847656 13.074219 C 14.851562 13.035156 14.871094 12.855469 14.871094 12.855469 C 14.996094 11.691406 15.0625 10.363281 15.074219 8.914062 C 15.074219 8.914062 15.078125 8.730469 15.078125 8.695312 C 15.113281 8.695312 17.160156 8.699219 17.199219 8.699219 L 17.199219 8.960938 C 17.199219 9.300781 17.191406 9.664062 17.175781 10.097656 C 17.175781 10.097656 17.164062 10.398438 17.164062 10.460938 C 17.109375 10.429688 16.414062 10.042969 16.414062 10.042969 C 16.351562 10.003906 16.316406 9.988281 16.296875 9.976562 C 16.296875 9.957031 16.300781 9.789062 16.300781 9.789062 L 16.304688 9.679688 L 16.058594 9.679688 L 16.058594 9.699219 C 16.035156 10.691406 15.988281 11.515625 15.914062 12.226562 L 15.914062 12.246094 L 16.113281 12.285156 L 16.113281 12.261719 L 16.199219 11.5 L 16.175781 11.496094 C 16.132812 11.492188 16.109375 11.488281 16.089844 11.488281 C 16.09375 11.453125 16.113281 11.164062 16.113281 11.164062 C 16.113281 11.164062 16.140625 10.757812 16.144531 10.695312 C 16.179688 10.699219 16.34375 10.714844 16.34375 10.714844 C 16.347656 10.714844 16.941406 10.769531 16.941406 10.769531 C 16.941406 10.769531 17.101562 10.789062 17.152344 10.792969 C 17.148438 10.828125 17.140625 11.003906 17.140625 11.003906 C 17.082031 11.855469 16.996094 12.617188 16.875 13.273438 C 16.875 13.273438 16.835938 13.484375 16.828125 13.527344 "/>
<path style=" stroke:none;fill-rule:nonzero;fill:rgb(22.352941%,23.921569%,58.039216%);fill-opacity:1;" d="M 19.125 14.808594 C 18.523438 14.355469 17.898438 13.984375 17.261719 13.707031 C 17.261719 13.707031 17.136719 13.652344 17.097656 13.636719 C 17.105469 13.609375 17.132812 13.460938 17.132812 13.460938 C 17.242188 12.921875 17.328125 12.296875 17.386719 11.59375 C 17.386719 11.59375 17.414062 11.292969 17.421875 11.183594 C 17.476562 11.226562 18.753906 12.234375 18.78125 12.253906 C 18.777344 12.273438 18.765625 12.375 18.765625 12.375 L 18.707031 12.820312 L 18.71875 12.828125 L 19.222656 13.117188 L 19.226562 13.085938 L 19.234375 13.0625 C 19.351562 12.28125 19.175781 12.09375 19.019531 11.925781 L 18.960938 11.859375 L 18.75 11.628906 L 18.015625 10.839844 C 17.445312 10.207031 17.457031 9.285156 17.46875 8.734375 L 17.46875 8.679688 C 17.46875 8.675781 17.484375 8.335938 17.484375 8.335938 L 17.492188 8.101562 L 17.132812 7.964844 C 17.132812 7.964844 17.132812 8.410156 17.132812 8.453125 C 17.089844 8.453125 10.902344 8.445312 10.855469 8.445312 L 10.855469 7.960938 L 10.480469 8.101562 L 10.480469 8.117188 L 10.476562 8.339844 C 10.472656 8.578125 10.46875 8.8125 10.46875 9.042969 C 10.46875 9.546875 10.480469 10.023438 10.5 10.484375 C 10.5 10.484375 10.503906 10.585938 10.503906 10.605469 C 10.488281 10.617188 9.851562 11.078125 9.851562 11.078125 C 9.851562 11.078125 10.535156 11.46875 10.558594 11.480469 C 10.5625 11.5 10.570312 11.597656 10.570312 11.597656 C 10.628906 12.265625 10.714844 12.894531 10.828125 13.464844 C 10.828125 13.464844 10.855469 13.597656 10.863281 13.640625 C 10.835938 13.652344 10.699219 13.710938 10.699219 13.710938 C 10.410156 13.835938 10.113281 13.988281 9.796875 14.171875 C 9.796875 14.171875 9.601562 14.285156 9.53125 14.328125 C 9.519531 14.277344 9.46875 14.027344 9.46875 14.027344 C 9.359375 13.515625 9.273438 12.925781 9.210938 12.277344 L 9.210938 12.265625 L 8.613281 11.914062 L 8.617188 11.957031 C 8.648438 12.359375 8.683594 12.710938 8.730469 13 C 8.808594 13.5 8.914062 14 9.039062 14.480469 C 9.039062 14.480469 9.074219 14.601562 9.082031 14.628906 C 9.0625 14.640625 8.957031 14.714844 8.957031 14.714844 L 8.84375 14.800781 L 8.863281 14.839844 C 9.421875 14.710938 10.070312 14.449219 10.453125 14.265625 C 12.0625 13.382812 13.464844 13.285156 13.992188 13.285156 C 14.519531 13.289062 15.921875 13.386719 17.527344 14.269531 C 17.910156 14.453125 18.550781 14.714844 19.105469 14.847656 Z M 12.011719 13.269531 C 11.800781 13.320312 11.597656 13.378906 11.402344 13.445312 C 11.402344 13.445312 11.199219 13.511719 11.160156 13.527344 C 11.152344 13.480469 11.113281 13.273438 11.113281 13.273438 C 10.886719 11.964844 10.832031 10.515625 10.832031 9.402344 C 10.832031 9.230469 10.832031 9.066406 10.835938 8.910156 C 10.835938 8.910156 10.835938 8.75 10.839844 8.691406 C 10.875 8.691406 11.890625 8.691406 11.949219 8.691406 C 11.949219 8.730469 11.949219 8.917969 11.949219 8.917969 C 11.945312 9.117188 11.941406 9.308594 11.941406 9.503906 C 11.941406 10.824219 12.023438 12.003906 12.179688 13.019531 C 12.179688 13.019531 12.203125 13.1875 12.207031 13.21875 Z M 14.601562 12.835938 C 14.601562 12.835938 14.585938 13.011719 14.585938 13.046875 C 14.546875 13.046875 14.371094 13.039062 14.371094 13.039062 L 13.988281 13.03125 L 13.945312 13.03125 C 13.941406 13.03125 13.917969 13.027344 13.917969 13.027344 C 13.917969 13.027344 13.753906 13.027344 13.695312 13.027344 C 13.695312 12.992188 13.703125 10.8125 13.703125 10.8125 L 13.292969 10.539062 L 13.292969 10.582031 C 13.300781 11.476562 13.324219 12.214844 13.367188 12.835938 C 13.367188 12.835938 13.378906 13 13.382812 13.050781 C 13.347656 13.054688 13.167969 13.070312 13.167969 13.070312 L 12.691406 13.132812 C 12.691406 13.132812 12.503906 13.160156 12.464844 13.164062 C 12.460938 13.128906 12.4375 12.9375 12.4375 12.9375 C 12.324219 11.972656 12.269531 10.875 12.269531 9.65625 C 12.269531 9.414062 12.269531 9.164062 12.277344 8.910156 C 12.277344 8.910156 12.28125 8.746094 12.28125 8.691406 C 12.316406 8.691406 13.082031 8.691406 13.082031 8.691406 C 13.082031 8.691406 13.269531 8.691406 13.304688 8.695312 C 13.304688 8.730469 13.296875 9.121094 13.296875 9.121094 L 13.699219 9.402344 C 13.699219 9.402344 13.699219 8.730469 13.699219 8.691406 C 13.738281 8.691406 14.660156 8.695312 14.71875 8.695312 C 14.71875 8.730469 14.71875 8.914062 14.71875 8.914062 C 14.722656 9.117188 14.726562 9.339844 14.726562 9.582031 C 14.726562 10.503906 14.699219 11.675781 14.601562 12.835938 M 16.828125 13.527344 C 16.789062 13.511719 16.585938 13.445312 16.585938 13.445312 C 16.101562 13.28125 15.601562 13.167969 15.0625 13.101562 C 15.0625 13.101562 14.882812 13.078125 14.847656 13.074219 C 14.851562 13.035156 14.871094 12.855469 14.871094 12.855469 C 14.996094 11.691406 15.0625 10.363281 15.074219 8.914062 C 15.074219 8.914062 15.078125 8.730469 15.078125 8.695312 C 15.113281 8.695312 17.160156 8.699219 17.199219 8.699219 L 17.199219 8.960938 C 17.199219 9.300781 17.191406 9.664062 17.175781 10.097656 C 17.175781 10.097656 17.164062 10.398438 17.164062 10.460938 C 17.109375 10.429688 16.414062 10.042969 16.414062 10.042969 C 16.351562 10.003906 16.316406 9.988281 16.296875 9.976562 C 16.296875 9.957031 16.300781 9.789062 16.300781 9.789062 L 16.304688 9.679688 L 16.058594 9.679688 L 16.058594 9.699219 C 16.035156 10.691406 15.988281 11.515625 15.914062 12.226562 L 15.914062 12.246094 L 16.113281 12.285156 L 16.113281 12.261719 L 16.199219 11.5 L 16.175781 11.496094 C 16.132812 11.492188 16.109375 11.488281 16.089844 11.488281 C 16.09375 11.453125 16.113281 11.164062 16.113281 11.164062 C 16.113281 11.164062 16.140625 10.757812 16.144531 10.695312 C 16.179688 10.699219 16.34375 10.714844 16.34375 10.714844 C 16.347656 10.714844 16.941406 10.769531 16.941406 10.769531 C 16.941406 10.769531 17.101562 10.789062 17.152344 10.792969 C 17.148438 10.828125 17.140625 11.003906 17.140625 11.003906 C 17.082031 11.855469 16.996094 12.617188 16.875 13.273438 C 16.875 13.273438 16.835938 13.484375 16.828125 13.527344 "/>
<path style=" stroke:none;fill-rule:nonzero;fill:rgb(1.960784%,9.803922%,13.333333%);fill-opacity:1;" d="M 14.71875 8.695312 C 14.660156 8.695312 13.738281 8.691406 13.699219 8.691406 C 13.699219 8.730469 13.699219 9.402344 13.699219 9.402344 L 13.296875 9.121094 C 13.296875 9.121094 13.304688 8.730469 13.304688 8.695312 C 13.269531 8.691406 13.082031 8.691406 13.082031 8.691406 C 13.082031 8.691406 12.316406 8.691406 12.28125 8.691406 C 12.28125 8.742188 12.277344 8.910156 12.277344 8.910156 C 12.273438 9.164062 12.269531 9.414062 12.269531 9.65625 C 12.269531 10.871094 12.324219 11.972656 12.4375 12.9375 C 12.4375 12.9375 12.460938 13.128906 12.464844 13.164062 C 12.503906 13.160156 12.691406 13.132812 12.691406 13.132812 L 13.167969 13.070312 C 13.167969 13.070312 13.347656 13.054688 13.382812 13.050781 C 13.378906 13 13.367188 12.832031 13.367188 12.832031 C 13.324219 12.214844 13.300781 11.476562 13.292969 10.582031 L 13.292969 10.539062 L 13.703125 10.8125 C 13.703125 10.8125 13.695312 12.992188 13.695312 13.027344 C 13.753906 13.027344 13.917969 13.027344 13.917969 13.027344 C 13.917969 13.027344 13.941406 13.03125 13.945312 13.03125 L 13.988281 13.03125 L 14.371094 13.039062 C 14.371094 13.039062 14.550781 13.046875 14.585938 13.046875 C 14.585938 13.011719 14.601562 12.835938 14.601562 12.835938 C 14.699219 11.675781 14.726562 10.503906 14.726562 9.582031 C 14.726562 9.339844 14.722656 9.117188 14.722656 8.914062 C 14.722656 8.914062 14.71875 8.730469 14.71875 8.695312 M 14.382812 12.816406 C 14.242188 12.8125 14.109375 12.808594 13.988281 12.808594 C 13.964844 12.808594 13.941406 12.804688 13.917969 12.804688 C 13.921875 12.113281 13.925781 11.351562 13.925781 10.691406 L 13.066406 10.128906 C 13.070312 10.957031 13.085938 11.9375 13.148438 12.851562 C 12.992188 12.863281 12.828125 12.886719 12.660156 12.910156 C 12.484375 11.410156 12.480469 9.839844 12.496094 8.914062 L 13.082031 8.914062 C 13.074219 9.019531 13.074219 9.125 13.074219 9.234375 L 13.925781 9.828125 C 13.921875 9.515625 13.921875 9.210938 13.921875 8.914062 L 14.5 8.914062 C 14.511719 9.835938 14.507812 11.316406 14.382812 12.816406 "/>
<path style=" stroke:none;fill-rule:nonzero;fill:rgb(1.960784%,9.803922%,13.333333%);fill-opacity:1;" d="M 11.941406 9.503906 C 11.941406 9.308594 11.945312 9.117188 11.949219 8.917969 C 11.949219 8.917969 11.949219 8.730469 11.949219 8.691406 C 11.890625 8.691406 10.875 8.691406 10.839844 8.691406 C 10.835938 8.75 10.835938 8.910156 10.835938 8.910156 C 10.832031 9.066406 10.832031 9.230469 10.832031 9.402344 C 10.832031 10.519531 10.886719 11.964844 11.113281 13.273438 C 11.113281 13.273438 11.152344 13.480469 11.160156 13.527344 C 11.199219 13.511719 11.402344 13.445312 11.402344 13.445312 C 11.597656 13.378906 11.800781 13.320312 12.011719 13.269531 L 12.207031 13.21875 C 12.203125 13.1875 12.179688 13.019531 12.179688 13.019531 C 12.023438 12.003906 11.941406 10.824219 11.941406 9.503906 M 11.332031 13.234375 C 11.0625 11.695312 11.039062 9.992188 11.058594 8.914062 L 11.726562 8.914062 C 11.710938 9.929688 11.722656 11.523438 11.957031 13.054688 C 11.757812 13.101562 11.546875 13.164062 11.332031 13.234375 "/>
<path style=" stroke:none;fill-rule:nonzero;fill:rgb(1.960784%,9.803922%,13.333333%);fill-opacity:1;" d="M 17.152344 10.792969 C 17.101562 10.789062 16.941406 10.769531 16.941406 10.769531 C 16.941406 10.769531 16.347656 10.714844 16.34375 10.714844 C 16.34375 10.714844 16.179688 10.699219 16.144531 10.695312 C 16.140625 10.757812 16.113281 11.164062 16.113281 11.164062 C 16.113281 11.164062 16.09375 11.453125 16.089844 11.484375 C 16.109375 11.488281 16.132812 11.492188 16.175781 11.496094 L 16.199219 11.5 L 16.117188 12.261719 L 16.113281 12.285156 L 15.914062 12.246094 L 15.914062 12.226562 C 15.988281 11.515625 16.035156 10.691406 16.058594 9.699219 L 16.058594 9.675781 L 16.304688 9.675781 L 16.300781 9.789062 C 16.300781 9.789062 16.296875 9.957031 16.296875 9.976562 C 16.316406 9.988281 16.351562 10.003906 16.414062 10.039062 C 16.414062 10.039062 17.109375 10.429688 17.164062 10.460938 C 17.167969 10.398438 17.175781 10.097656 17.175781 10.097656 C 17.191406 9.664062 17.199219 9.300781 17.199219 8.960938 L 17.199219 8.699219 C 17.160156 8.699219 15.113281 8.695312 15.078125 8.695312 C 15.078125 8.730469 15.074219 8.914062 15.074219 8.914062 C 15.0625 10.363281 14.996094 11.6875 14.871094 12.855469 C 14.871094 12.855469 14.851562 13.035156 14.847656 13.074219 C 14.882812 13.078125 15.0625 13.101562 15.0625 13.101562 C 15.601562 13.167969 16.101562 13.28125 16.585938 13.445312 C 16.585938 13.445312 16.789062 13.511719 16.828125 13.527344 C 16.835938 13.484375 16.875 13.273438 16.875 13.273438 C 16.996094 12.617188 17.085938 11.855469 17.140625 11.003906 C 17.140625 11.003906 17.148438 10.828125 17.152344 10.792969 M 16.65625 13.234375 C 16.085938 13.042969 15.558594 12.941406 15.089844 12.878906 C 15.253906 11.359375 15.289062 9.851562 15.296875 8.917969 L 16.976562 8.917969 C 16.976562 9.265625 16.96875 9.636719 16.953125 10.089844 L 16.523438 9.847656 C 16.523438 9.722656 16.527344 9.574219 16.527344 9.457031 L 15.84375 9.457031 C 15.828125 10.144531 15.796875 11.324219 15.671875 12.433594 C 15.871094 12.460938 16.085938 12.503906 16.300781 12.550781 C 16.363281 12.097656 16.40625 11.679688 16.4375 11.304688 L 16.304688 11.289062 C 16.3125 11.171875 16.324219 11.050781 16.328125 10.933594 C 16.519531 10.949219 16.714844 10.96875 16.917969 10.988281 C 16.871094 11.714844 16.792969 12.496094 16.65625 13.234375 "/>
<path style=" stroke:none;fill-rule:nonzero;fill:rgb(100%,100%,100%);fill-opacity:1;" d="M 11.726562 8.914062 L 11.058594 8.914062 C 11.039062 9.992188 11.0625 11.695312 11.332031 13.234375 C 11.546875 13.164062 11.757812 13.101562 11.957031 13.054688 C 11.722656 11.523438 11.710938 9.929688 11.726562 8.914062 "/>
<path style=" stroke:none;fill-rule:nonzero;fill:rgb(100%,100%,100%);fill-opacity:1;" d="M 13.921875 8.914062 C 13.921875 9.214844 13.921875 9.519531 13.925781 9.828125 L 13.074219 9.234375 C 13.074219 9.125 13.074219 9.019531 13.082031 8.914062 L 12.5 8.914062 C 12.480469 9.839844 12.484375 11.410156 12.660156 12.910156 C 12.828125 12.886719 12.992188 12.863281 13.148438 12.851562 C 13.085938 11.9375 13.070312 10.960938 13.066406 10.128906 L 13.925781 10.691406 C 13.925781 11.351562 13.921875 12.113281 13.917969 12.804688 C 13.941406 12.804688 13.964844 12.808594 13.988281 12.808594 C 14.109375 12.808594 14.242188 12.8125 14.382812 12.816406 C 14.507812 11.316406 14.511719 9.835938 14.5 8.914062 Z M 13.921875 8.914062 "/>
<path style=" stroke:none;fill-rule:nonzero;fill:rgb(100%,100%,100%);fill-opacity:1;" d="M 16.304688 11.289062 L 16.4375 11.304688 C 16.40625 11.679688 16.363281 12.097656 16.300781 12.550781 C 16.085938 12.503906 15.871094 12.460938 15.671875 12.433594 C 15.796875 11.324219 15.828125 10.144531 15.84375 9.457031 L 16.527344 9.457031 C 16.527344 9.574219 16.523438 9.722656 16.523438 9.847656 L 16.953125 10.089844 C 16.96875 9.636719 16.976562 9.265625 16.976562 8.917969 L 15.296875 8.917969 C 15.289062 9.855469 15.253906 11.359375 15.089844 12.878906 C 15.558594 12.941406 16.085938 13.042969 16.65625 13.234375 C 16.792969 12.496094 16.871094 11.714844 16.917969 10.988281 C 16.714844 10.96875 16.519531 10.949219 16.328125 10.933594 C 16.324219 11.050781 16.3125 11.171875 16.304688 11.289062 "/>
<path style=" stroke:none;fill-rule:nonzero;fill:rgb(22.352941%,23.921569%,58.039216%);fill-opacity:1;" d="M 8.816406 18.175781 L 8.792969 17.78125 L 8.789062 17.75 L 8.242188 18.375 L 8.242188 18.40625 L 8.277344 19.058594 L 8.28125 19.089844 L 8.832031 18.46875 L 8.828125 18.4375 Z M 8.816406 18.175781 "/>
<path style=" stroke:none;fill-rule:nonzero;fill:rgb(22.352941%,23.921569%,58.039216%);fill-opacity:1;" d="M 7.988281 18.984375 L 7.972656 18.71875 L 7.96875 18.6875 L 7.519531 19.195312 C 7.476562 19.246094 7.453125 19.308594 7.457031 19.375 C 7.460938 19.445312 7.492188 19.503906 7.542969 19.546875 C 7.644531 19.640625 7.804688 19.628906 7.894531 19.527344 L 8.011719 19.398438 L 8.007812 19.363281 Z M 7.988281 18.984375 "/>
<path style=" stroke:none;fill-rule:nonzero;fill:rgb(22.352941%,23.921569%,58.039216%);fill-opacity:1;" d="M 9.617188 16.84375 L 9.613281 16.8125 L 9.066406 17.4375 L 9.066406 17.46875 L 9.105469 18.125 L 9.105469 18.15625 L 9.65625 17.535156 L 9.65625 17.503906 Z M 9.617188 16.84375 "/>
<path style=" stroke:none;fill-rule:nonzero;fill:rgb(22.352941%,23.921569%,58.039216%);fill-opacity:1;" d="M 9.992188 16.386719 L 9.984375 16.390625 L 9.890625 16.496094 L 9.894531 16.527344 L 9.910156 16.796875 L 9.933594 17.1875 L 9.933594 17.222656 L 10.355469 16.746094 L 10.355469 16.742188 C 10.359375 16.71875 10.359375 16.695312 10.359375 16.675781 C 10.359375 16.582031 10.324219 16.503906 10.265625 16.449219 C 10.195312 16.386719 10.097656 16.367188 9.992188 16.386719 "/>
<path style=" stroke:none;fill-rule:nonzero;fill:rgb(65.490196%,66.27451%,67.45098%);fill-opacity:1;" d="M 12.90625 13.664062 C 12.589844 13.71875 12.269531 13.792969 11.957031 13.886719 C 11.5 14.195312 11.101562 14.394531 11.027344 14.429688 C 10.675781 14.597656 10.027344 14.90625 9.394531 15.035156 C 9.457031 15.089844 11.683594 17.066406 11.746094 17.121094 C 11.773438 16.804688 11.84375 16.445312 11.96875 16.023438 C 11.914062 15.839844 11.890625 15.652344 11.890625 15.460938 C 11.890625 14.71875 12.277344 14.046875 12.90625 13.664062 "/>
<path style=" stroke:none;fill-rule:nonzero;fill:rgb(65.490196%,66.27451%,67.45098%);fill-opacity:1;" d="M 15.992188 13.894531 C 15.695312 13.800781 15.390625 13.730469 15.089844 13.675781 C 15.707031 14.058594 16.089844 14.726562 16.089844 15.460938 C 16.089844 15.675781 16.058594 15.886719 15.992188 16.089844 C 16.101562 16.480469 16.167969 16.828125 16.191406 17.125 C 16.253906 17.070312 18.484375 15.097656 18.546875 15.042969 C 17.917969 14.914062 17.269531 14.601562 16.917969 14.433594 C 16.84375 14.398438 16.441406 14.199219 15.992188 13.894531 "/>
<path style=" stroke:none;fill-rule:nonzero;fill:rgb(22.352941%,23.921569%,58.039216%);fill-opacity:1;" d="M 17.984375 16.394531 C 17.878906 16.375 17.785156 16.394531 17.714844 16.453125 C 17.636719 16.519531 17.605469 16.628906 17.621094 16.746094 L 17.625 16.753906 L 18.039062 17.226562 L 18.042969 17.195312 L 18.050781 17.066406 L 18.082031 16.535156 L 18.085938 16.503906 C 18.027344 16.4375 17.992188 16.398438 17.992188 16.398438 Z M 17.984375 16.394531 "/>
<path style=" stroke:none;fill-rule:nonzero;fill:rgb(22.352941%,23.921569%,58.039216%);fill-opacity:1;" d="M 19.960938 19.375 L 19.960938 19.40625 L 20.074219 19.539062 C 20.167969 19.640625 20.324219 19.652344 20.429688 19.558594 C 20.480469 19.515625 20.511719 19.457031 20.515625 19.386719 C 20.515625 19.382812 20.515625 19.375 20.515625 19.371094 C 20.515625 19.3125 20.492188 19.253906 20.453125 19.207031 C 20.453125 19.207031 20.269531 18.996094 20.003906 18.695312 L 20.003906 18.726562 Z M 19.960938 19.375 "/>
<path style=" stroke:none;fill-rule:nonzero;fill:rgb(22.352941%,23.921569%,58.039216%);fill-opacity:1;" d="M 18.320312 17.511719 L 18.320312 17.542969 L 18.867188 18.167969 L 18.871094 18.132812 L 18.890625 17.808594 L 18.90625 17.476562 L 18.910156 17.445312 C 18.707031 17.210938 18.515625 16.996094 18.359375 16.816406 L 18.359375 16.851562 Z M 18.320312 17.511719 "/>
<path style=" stroke:none;fill-rule:nonzero;fill:rgb(22.352941%,23.921569%,58.039216%);fill-opacity:1;" d="M 19.15625 18.214844 L 19.144531 18.445312 L 19.144531 18.476562 L 19.691406 19.101562 L 19.691406 19.070312 L 19.722656 18.554688 L 19.730469 18.417969 L 19.730469 18.382812 C 19.558594 18.1875 19.371094 17.972656 19.183594 17.757812 L 19.183594 17.789062 Z M 19.15625 18.214844 "/>
</g>
</svg>
