<?xml version="1.0" encoding="UTF-8"?>
<svg xmlns="http://www.w3.org/2000/svg" xmlns:xlink="http://www.w3.org/1999/xlink" width="35pt" height="25pt" viewBox="0 0 35 25" version="1.1">
<defs>
<clipPath id="clip1">
  <path d="M 9.960938 22.96875 L 10.351562 22.96875 L 10.351562 24.246094 L 9.960938 24.246094 Z M 9.960938 22.96875 "/>
</clipPath>
<clipPath id="clip2">
  <path d="M 12.019531 20.621094 L 12.417969 20.621094 L 12.417969 21.921875 L 12.019531 21.921875 Z M 12.019531 20.621094 "/>
</clipPath>
<clipPath id="clip3">
  <path d="M 10.988281 21.796875 L 11.382812 21.796875 L 11.382812 23.085938 L 10.988281 23.085938 Z M 10.988281 21.796875 "/>
</clipPath>
<clipPath id="clip4">
  <path d="M 24.617188 22.980469 L 25.003906 22.980469 L 25.003906 24.257812 L 24.617188 24.257812 Z M 24.617188 22.980469 "/>
</clipPath>
<clipPath id="clip5">
  <path d="M 22.550781 20.628906 L 22.949219 20.628906 L 22.949219 21.929688 L 22.550781 21.929688 Z M 22.550781 20.628906 "/>
</clipPath>
<clipPath id="clip6">
  <path d="M 23.585938 21.804688 L 23.980469 21.804688 L 23.980469 23.097656 L 23.585938 23.097656 Z M 23.585938 21.804688 "/>
</clipPath>
</defs>
<g id="surface1">
<path style=" stroke:none;fill-rule:nonzero;fill:rgb(100%,100%,100%);fill-opacity:1;" d="M 27.597656 4.199219 C 27.597656 4.113281 27.5625 4.03125 27.496094 3.96875 C 27.390625 3.882812 27.246094 3.871094 27.128906 3.941406 C 26.664062 4.226562 25.371094 5.449219 24.421875 6.34375 C 24.421875 6.34375 24.113281 6.640625 24.054688 6.695312 C 23.960938 6.65625 23.832031 6.601562 23.746094 6.578125 C 23.414062 6.496094 23.125 6.5 22.910156 6.542969 C 23.070312 6.164062 23.925781 4.15625 23.925781 4.15625 C 23.925781 4.15625 21.6875 5.335938 21.375 5.5 C 21.40625 5.125 21.785156 0.988281 21.785156 0.988281 C 21.785156 0.988281 19.070312 4.339844 18.820312 4.648438 C 18.710938 4.269531 17.503906 0 17.503906 0 C 17.503906 0 16.285156 4.265625 16.179688 4.644531 C 15.929688 4.339844 13.21875 0.980469 13.21875 0.980469 C 13.21875 0.980469 13.589844 5.121094 13.625 5.492188 C 13.3125 5.328125 11.074219 4.148438 11.074219 4.148438 C 11.074219 4.148438 11.921875 6.15625 12.085938 6.53125 C 11.871094 6.488281 11.582031 6.488281 11.253906 6.566406 C 11.164062 6.59375 11.03125 6.644531 10.9375 6.6875 C 10.882812 6.632812 10.574219 6.332031 10.574219 6.332031 C 9.628906 5.4375 8.335938 4.210938 7.871094 3.921875 C 7.753906 3.851562 7.609375 3.863281 7.503906 3.953125 C 7.4375 4.015625 7.402344 4.097656 7.402344 4.183594 C 7.402344 4.226562 7.410156 4.269531 7.429688 4.3125 C 7.667969 4.832031 8.910156 6.550781 9.648438 7.539062 C 9.378906 7.796875 9.214844 8.101562 9.207031 8.382812 L 9.207031 8.40625 C 9.207031 8.582031 9.269531 8.738281 9.375 8.839844 C 9.375 8.839844 9.457031 8.921875 9.542969 9.003906 C 9.121094 9.003906 7.5625 9 7.5625 9 L 7.558594 9.214844 C 7.523438 10.691406 7.484375 14.371094 7.828125 16.589844 C 8.152344 18.695312 8.683594 20.195312 9.613281 21.613281 L 9.710938 21.761719 L 9.804688 21.613281 C 10.019531 21.269531 10.695312 20.394531 11.742188 19.519531 C 11.84375 19.617188 12.15625 19.914062 12.265625 20.015625 C 12.128906 20.171875 9.042969 23.679688 9.042969 23.679688 C 8.917969 23.824219 8.847656 24.007812 8.847656 24.199219 C 8.847656 24.214844 8.847656 24.230469 8.847656 24.25 C 8.863281 24.457031 8.953125 24.648438 9.113281 24.789062 C 9.4375 25.078125 9.933594 25.046875 10.21875 24.722656 C 10.21875 24.722656 12.960938 21.625 13.449219 21.070312 C 13.597656 21.203125 15.386719 22.796875 15.386719 22.796875 L 15.3125 21.953125 C 15.304688 21.882812 15.304688 21.808594 15.304688 21.734375 C 15.304688 21.53125 15.332031 21.285156 15.378906 21.023438 C 15.890625 21.660156 16.660156 22.035156 17.484375 22.035156 L 17.488281 22.035156 C 18.308594 22.035156 19.078125 21.664062 19.589844 21.027344 C 19.636719 21.285156 19.667969 21.527344 19.667969 21.734375 C 19.667969 21.8125 19.664062 21.886719 19.65625 21.957031 L 19.578125 22.796875 C 19.578125 22.796875 21.222656 21.339844 21.519531 21.078125 C 21.664062 21.238281 24.742188 24.734375 24.742188 24.734375 C 24.882812 24.890625 25.074219 24.984375 25.285156 25 C 25.492188 25.011719 25.695312 24.941406 25.851562 24.804688 C 26.175781 24.515625 26.207031 24.015625 25.921875 23.695312 C 25.921875 23.695312 22.84375 20.179688 22.707031 20.023438 C 22.8125 19.921875 23.132812 19.625 23.234375 19.527344 C 24.277344 20.410156 24.953125 21.28125 25.167969 21.625 L 25.257812 21.773438 L 25.355469 21.628906 C 26.285156 20.210938 26.824219 18.710938 27.152344 16.609375 C 27.394531 15.039062 27.453125 12.738281 27.453125 11.003906 C 27.453125 10.285156 27.441406 9.664062 27.433594 9.230469 L 27.429688 9.023438 L 27.316406 9.019531 L 25.445312 9.019531 C 25.53125 8.9375 25.613281 8.855469 25.613281 8.855469 C 25.722656 8.75 25.78125 8.597656 25.78125 8.417969 L 25.78125 8.398438 C 25.773438 8.113281 25.613281 7.8125 25.34375 7.550781 C 26.085938 6.5625 27.324219 4.851562 27.570312 4.328125 C 27.589844 4.289062 27.597656 4.246094 27.597656 4.199219 M 27.464844 4.28125 C 27.226562 4.804688 25.945312 6.5625 25.195312 7.5625 C 25.726562 8.019531 25.769531 8.546875 25.539062 8.777344 L 25.167969 9.132812 L 27.316406 9.132812 C 27.316406 9.269531 27.453125 13.945312 27.039062 16.589844 C 26.726562 18.601562 26.222656 20.097656 25.261719 21.566406 C 25.039062 21.207031 24.328125 20.289062 23.230469 19.378906 L 22.546875 20.015625 L 25.835938 23.769531 C 26.082031 24.046875 26.054688 24.472656 25.777344 24.71875 C 25.5 24.964844 25.074219 24.9375 24.828125 24.660156 L 21.53125 20.917969 L 20.136719 22.152344 L 19.714844 22.523438 L 19.769531 21.964844 C 19.804688 21.59375 19.746094 21.164062 19.65625 20.753906 C 19.191406 21.460938 18.390625 21.925781 17.484375 21.921875 C 16.578125 21.921875 15.777344 21.457031 15.316406 20.75 C 15.222656 21.160156 15.164062 21.589844 15.199219 21.960938 L 15.25 22.519531 L 14.832031 22.148438 L 13.441406 20.914062 L 10.136719 24.648438 C 9.890625 24.925781 9.464844 24.949219 9.1875 24.707031 C 8.910156 24.457031 8.882812 24.03125 9.128906 23.753906 L 12.421875 20.007812 L 11.742188 19.367188 C 10.640625 20.277344 9.929688 21.195312 9.707031 21.554688 C 8.746094 20.085938 8.25 18.585938 7.9375 16.574219 C 7.53125 13.925781 7.671875 9.253906 7.671875 9.113281 L 9.824219 9.117188 L 9.457031 8.761719 C 9.222656 8.535156 9.269531 8.007812 9.796875 7.550781 C 9.050781 6.550781 7.773438 4.785156 7.53125 4.265625 C 7.496094 4.1875 7.515625 4.097656 7.578125 4.039062 C 7.644531 3.984375 7.738281 3.972656 7.8125 4.019531 C 8.265625 4.300781 9.554688 5.523438 10.496094 6.414062 C 10.628906 6.539062 10.804688 6.714844 10.914062 6.816406 C 11.050781 6.757812 11.195312 6.703125 11.28125 6.675781 C 11.75 6.5625 12.125 6.621094 12.289062 6.722656 L 11.300781 4.394531 L 13.753906 5.691406 L 13.363281 1.339844 L 16.226562 4.886719 L 17.503906 0.414062 L 18.769531 4.890625 L 21.640625 1.347656 L 21.242188 5.695312 L 23.699219 4.40625 L 22.707031 6.730469 C 22.871094 6.632812 23.246094 6.570312 23.714844 6.6875 C 23.796875 6.710938 23.941406 6.769531 24.082031 6.828125 C 24.191406 6.726562 24.367188 6.550781 24.5 6.425781 C 25.441406 5.535156 26.734375 4.320312 27.1875 4.035156 C 27.261719 3.992188 27.355469 4 27.417969 4.054688 C 27.484375 4.113281 27.503906 4.207031 27.464844 4.28125 "/>
<path style=" stroke:none;fill-rule:nonzero;fill:rgb(1.960784%,9.803922%,13.333333%);fill-opacity:1;" d="M 27.1875 4.035156 C 26.734375 4.316406 25.441406 5.535156 24.5 6.425781 C 24.367188 6.550781 24.191406 6.726562 24.082031 6.828125 C 23.941406 6.769531 23.796875 6.710938 23.714844 6.6875 C 23.246094 6.570312 22.871094 6.632812 22.707031 6.730469 L 23.699219 4.402344 L 21.242188 5.695312 L 21.640625 1.347656 L 18.769531 4.890625 L 17.503906 0.410156 L 16.226562 4.886719 L 13.363281 1.339844 L 13.753906 5.691406 L 11.300781 4.394531 L 12.289062 6.722656 C 12.125 6.621094 11.75 6.5625 11.28125 6.675781 C 11.195312 6.703125 11.050781 6.757812 10.914062 6.816406 C 10.804688 6.714844 10.628906 6.539062 10.496094 6.414062 C 9.554688 5.523438 8.265625 4.300781 7.808594 4.019531 C 7.738281 3.972656 7.644531 3.984375 7.578125 4.039062 C 7.515625 4.097656 7.496094 4.1875 7.53125 4.265625 C 7.773438 4.785156 9.050781 6.550781 9.796875 7.550781 C 9.269531 8.003906 9.21875 8.535156 9.453125 8.761719 L 9.824219 9.117188 L 7.671875 9.113281 C 7.671875 9.253906 7.527344 13.925781 7.9375 16.574219 C 8.25 18.585938 8.746094 20.082031 9.707031 21.554688 C 9.929688 21.195312 10.640625 20.277344 11.742188 19.367188 L 12.421875 20.007812 L 9.128906 23.753906 C 8.882812 24.03125 8.910156 24.457031 9.1875 24.703125 C 9.464844 24.949219 9.890625 24.925781 10.136719 24.648438 L 13.441406 20.910156 L 14.832031 22.148438 L 15.25 22.519531 L 15.199219 21.960938 C 15.164062 21.589844 15.222656 21.160156 15.3125 20.75 C 15.777344 21.457031 16.574219 21.921875 17.484375 21.921875 C 18.390625 21.921875 19.191406 21.460938 19.65625 20.753906 C 19.746094 21.164062 19.804688 21.59375 19.769531 21.964844 L 19.714844 22.523438 L 20.136719 22.152344 L 21.53125 20.917969 L 24.828125 24.660156 C 25.074219 24.9375 25.5 24.964844 25.777344 24.71875 C 26.054688 24.472656 26.082031 24.046875 25.835938 23.769531 L 22.546875 20.015625 L 23.230469 19.378906 C 24.328125 20.285156 25.039062 21.207031 25.261719 21.566406 C 26.222656 20.097656 26.726562 18.601562 27.039062 16.589844 C 27.453125 13.945312 27.316406 9.269531 27.316406 9.132812 L 25.167969 9.128906 L 25.539062 8.777344 C 25.769531 8.546875 25.722656 8.019531 25.195312 7.5625 C 25.945312 6.5625 27.226562 4.804688 27.464844 4.28125 C 27.5 4.203125 27.484375 4.113281 27.417969 4.054688 C 27.355469 4 27.261719 3.992188 27.1875 4.035156 M 23.082031 7.054688 C 23.1875 6.921875 23.445312 6.941406 23.808594 7.109375 L 23.84375 7.125 L 23.386719 7.601562 L 23.367188 7.59375 C 23.199219 7.496094 23.085938 7.351562 23.058594 7.210938 C 23.046875 7.148438 23.054688 7.089844 23.082031 7.054688 M 22.75 7.109375 L 22.796875 7.136719 C 22.757812 7.210938 22.75 7.292969 22.78125 7.386719 C 22.851562 7.609375 23.105469 7.867188 23.4375 8.035156 L 23.464844 8.050781 L 23.308594 8.246094 L 23.289062 8.238281 C 23.28125 8.238281 22.699219 8.054688 22.300781 7.875 L 22.273438 7.863281 Z M 24.65625 11.367188 L 23.382812 11.367188 L 23.382812 11.480469 C 23.359375 12.003906 23.375 12.328125 23.894531 12.929688 L 24.488281 13.601562 C 24.671875 13.808594 24.832031 13.988281 24.984375 14.167969 C 25.019531 14.210938 25.058594 14.253906 25.101562 14.300781 C 25.421875 14.636719 25.953125 15.203125 25.597656 16.855469 C 25.332031 18.085938 25.175781 18.585938 25.019531 18.976562 L 24.988281 19.039062 C 23.847656 18.019531 22.726562 17.335938 21.6875 16.882812 C 21.839844 16.128906 21.941406 15.320312 22.011719 14.515625 L 23.179688 15.4375 C 23.152344 15.683594 23.117188 15.925781 23.082031 16.175781 C 23.3125 16.296875 23.996094 16.683594 24.207031 16.839844 C 24.226562 16.722656 24.296875 16.46875 24.3125 16.367188 C 24.484375 15.261719 24.195312 14.953125 23.976562 14.71875 C 23.953125 14.691406 23.929688 14.667969 23.910156 14.644531 C 23.816406 14.535156 23.746094 14.460938 23.636719 14.34375 C 23.476562 14.183594 23.234375 13.929688 22.726562 13.367188 C 22.0625 12.628906 22.101562 11.53125 22.113281 10.855469 L 22.132812 10.433594 L 22.730469 10.433594 C 22.910156 10.476562 23.0625 10.503906 23.183594 10.503906 C 23.28125 10.503906 23.40625 10.492188 23.535156 10.433594 L 25.972656 10.429688 C 25.980469 11.128906 25.984375 12.113281 25.953125 13.15625 L 24.664062 12.203125 C 24.664062 11.898438 24.664062 11.613281 24.65625 11.367188 M 23.527344 10.152344 C 23.429688 10.242188 23.324219 10.261719 23.175781 10.257812 C 22.769531 10.253906 22.019531 9.960938 21.222656 9.648438 L 21.117188 9.605469 C 20.363281 9.3125 19.222656 8.867188 17.492188 8.863281 C 15.769531 8.863281 14.628906 9.308594 13.875 9.601562 L 13.765625 9.644531 C 12.972656 9.949219 12.21875 10.246094 11.8125 10.25 C 11.664062 10.25 11.558594 10.234375 11.460938 10.144531 C 11.367188 10.054688 10.234375 8.925781 10.183594 8.878906 L 10.128906 8.824219 L 10.207031 8.832031 C 10.625 8.863281 11.90625 8.484375 12.902344 8.097656 L 13.09375 8.023438 C 14.101562 7.625 15.484375 7.085938 17.496094 7.085938 C 19.507812 7.089844 20.890625 7.632812 21.902344 8.03125 L 22.089844 8.101562 C 23.085938 8.492188 24.363281 8.875 24.785156 8.84375 L 24.859375 8.839844 L 24.804688 8.894531 C 24.757812 8.9375 23.621094 10.066406 23.527344 10.152344 M 20.863281 9.796875 C 20.863281 9.832031 20.863281 10.058594 20.863281 10.101562 C 20.808594 10.101562 14.183594 10.097656 14.128906 10.097656 C 14.128906 10.050781 14.125 9.824219 14.125 9.792969 C 14.941406 9.484375 16.058594 9.136719 17.492188 9.136719 C 18.929688 9.136719 20.050781 9.492188 20.863281 9.796875 M 10.636719 16.292969 C 10.742188 16.953125 10.875 17.582031 11.035156 18.171875 C 10.675781 18.433594 10.316406 18.730469 9.953125 19.054688 C 9.660156 18.242188 9.425781 17.328125 9.265625 16.289062 C 8.996094 14.546875 9 11.800781 9.019531 10.414062 L 10.390625 10.417969 C 10.378906 11.238281 10.371094 12.484375 10.421875 13.734375 L 11.640625 12.847656 C 11.617188 11.921875 11.625 11.105469 11.640625 10.480469 C 11.699219 10.488281 11.757812 10.492188 11.804688 10.492188 C 11.9375 10.492188 12.101562 10.464844 12.296875 10.414062 L 12.816406 10.417969 C 12.808594 11.183594 12.808594 12.113281 12.847656 13.121094 L 11.800781 13.875 L 12.9375 14.519531 C 13.003906 15.316406 13.113281 16.128906 13.261719 16.882812 C 12.886719 17.046875 12.5 17.246094 12.105469 17.476562 C 11.953125 16.742188 11.847656 15.953125 11.773438 15.164062 L 10.457031 14.386719 C 10.492188 15.070312 10.550781 15.734375 10.636719 16.292969 M 14.417969 6.675781 C 14.417969 6.675781 14.105469 3.300781 14.089844 3.121094 C 14.203125 3.261719 16.476562 6.089844 16.476562 6.089844 C 16.476562 6.089844 17.449219 2.648438 17.503906 2.464844 C 17.550781 2.648438 18.519531 6.09375 18.519531 6.09375 C 18.519531 6.09375 20.796875 3.265625 20.910156 3.128906 C 20.894531 3.304688 20.578125 6.679688 20.578125 6.679688 C 20.578125 6.679688 22.417969 5.714844 22.546875 5.644531 C 22.488281 5.777344 21.703125 7.605469 21.683594 7.65625 C 20.546875 7.21875 19.253906 6.820312 17.496094 6.816406 C 15.742188 6.816406 14.449219 7.214844 13.3125 7.648438 C 13.292969 7.597656 12.507812 5.769531 12.449219 5.636719 C 12.582031 5.703125 14.417969 6.675781 14.417969 6.675781 M 12.199219 7.128906 L 12.246094 7.097656 L 12.722656 7.855469 L 12.691406 7.867188 C 12.292969 8.046875 11.707031 8.226562 11.703125 8.230469 L 11.6875 8.234375 L 11.527344 8.042969 L 11.558594 8.023438 C 11.886719 7.855469 12.144531 7.601562 12.214844 7.378906 C 12.242188 7.285156 12.238281 7.199219 12.199219 7.128906 M 11.1875 7.097656 C 11.550781 6.929688 11.808594 6.910156 11.914062 7.042969 C 11.941406 7.082031 11.949219 7.136719 11.9375 7.203125 C 11.910156 7.34375 11.792969 7.488281 11.625 7.582031 L 11.605469 7.59375 L 11.148438 7.113281 Z M 8.667969 5.273438 C 9.179688 5.742188 9.765625 6.296875 10.210938 6.714844 L 10.90625 7.367188 C 10.90625 7.367188 10.945312 7.414062 10.945312 7.414062 C 10.945312 7.414062 11.214844 7.726562 11.253906 7.769531 C 11.222656 7.789062 11.179688 7.820312 11.179688 7.820312 C 11.132812 7.851562 11.082031 7.890625 11.019531 7.910156 L 10.980469 7.921875 C 10.980469 7.921875 11.246094 8.242188 11.289062 8.296875 C 11.230469 8.3125 11.054688 8.367188 11.027344 8.375 C 11.003906 8.347656 10.46875 7.742188 10.46875 7.742188 C 10.0625 7.210938 9.265625 6.136719 8.667969 5.273438 M 9.804688 8.402344 C 9.613281 8.210938 9.84375 7.976562 10 7.824219 L 10.023438 7.800781 L 10.042969 7.824219 L 10.480469 8.371094 L 10.445312 8.386719 C 10.285156 8.449219 9.910156 8.507812 9.804688 8.402344 M 11.339844 19.007812 C 10.777344 19.472656 10.246094 20.003906 9.757812 20.585938 L 9.734375 20.617188 L 9.714844 20.582031 C 9.132812 19.457031 8.710938 18.109375 8.464844 16.578125 C 8.230469 15.148438 8.136719 12.746094 8.203125 9.808594 L 8.207031 9.636719 L 10.632812 9.640625 L 10.644531 9.640625 L 11.246094 10.238281 L 11.285156 10.273438 L 11.367188 10.339844 L 11.363281 10.40625 C 11.34375 11.21875 11.34375 11.96875 11.359375 12.695312 L 11.359375 12.710938 L 10.679688 13.203125 L 10.679688 13.148438 C 10.664062 12.632812 10.660156 12.078125 10.660156 11.496094 C 10.660156 11.148438 10.660156 10.789062 10.667969 10.421875 C 10.667969 10.421875 10.667969 10.1875 10.671875 10.140625 C 10.625 10.140625 8.789062 10.140625 8.742188 10.140625 C 8.742188 10.183594 8.742188 10.410156 8.742188 10.410156 C 8.734375 10.75 8.730469 11.113281 8.730469 11.488281 C 8.730469 13.121094 8.785156 15.011719 8.988281 16.332031 C 9.148438 17.355469 9.386719 18.304688 9.695312 19.148438 C 9.695312 19.148438 9.808594 19.472656 9.832031 19.535156 C 9.886719 19.492188 10.136719 19.261719 10.136719 19.261719 C 10.40625 19.023438 10.652344 18.8125 10.898438 18.621094 L 10.917969 18.605469 L 11.363281 18.988281 Z M 12.941406 20.925781 L 12.941406 20.933594 L 12.417969 21.527344 L 12.070312 21.921875 L 11.382812 22.695312 L 11.039062 23.085938 L 10.351562 23.863281 L 10.015625 24.246094 L 9.867188 24.410156 C 9.753906 24.539062 9.554688 24.550781 9.425781 24.433594 C 9.363281 24.382812 9.328125 24.304688 9.324219 24.21875 C 9.316406 24.136719 9.34375 24.054688 9.398438 23.996094 L 9.960938 23.359375 L 10.300781 22.96875 L 12.019531 21.015625 L 12.363281 20.621094 L 12.480469 20.488281 L 12.492188 20.488281 C 12.621094 20.457031 12.742188 20.484375 12.832031 20.558594 C 12.90625 20.628906 12.949219 20.726562 12.949219 20.84375 C 12.949219 20.871094 12.949219 20.898438 12.941406 20.925781 M 14.957031 20.03125 C 14.804688 20.558594 14.714844 21.007812 14.683594 21.402344 C 14.605469 21.332031 11.824219 18.863281 11.746094 18.792969 C 12.53125 18.632812 13.34375 18.246094 13.78125 18.035156 C 13.875 17.992188 14.375 17.746094 14.945312 17.359375 C 15.335938 17.238281 15.738281 17.148438 16.132812 17.082031 C 15.347656 17.558594 14.863281 18.398438 14.859375 19.324219 C 14.859375 19.5625 14.894531 19.800781 14.957031 20.03125 M 19.738281 19.488281 C 19.71875 19.746094 19.65625 19.992188 19.558594 20.222656 C 19.480469 20.398438 19.382812 20.5625 19.265625 20.714844 C 19.226562 20.761719 19.1875 20.8125 19.144531 20.855469 C 18.742188 21.289062 18.175781 21.566406 17.546875 21.582031 C 17.527344 21.582031 17.507812 21.582031 17.484375 21.582031 C 17.464844 21.582031 17.441406 21.582031 17.421875 21.582031 C 16.792969 21.5625 16.226562 21.285156 15.828125 20.855469 C 15.785156 20.808594 15.746094 20.761719 15.710938 20.714844 C 15.589844 20.5625 15.488281 20.394531 15.414062 20.214844 C 15.316406 19.988281 15.253906 19.742188 15.234375 19.488281 C 15.234375 19.433594 15.230469 19.378906 15.230469 19.324219 C 15.230469 18.449219 15.730469 17.691406 16.460938 17.316406 C 16.5 17.296875 16.539062 17.277344 16.582031 17.257812 C 16.839844 17.144531 17.125 17.078125 17.425781 17.070312 C 17.449219 17.070312 17.46875 17.070312 17.488281 17.070312 C 17.507812 17.070312 17.527344 17.070312 17.550781 17.070312 C 17.851562 17.078125 18.136719 17.148438 18.398438 17.261719 C 18.4375 17.28125 18.476562 17.300781 18.515625 17.320312 C 19.246094 17.691406 19.742188 18.453125 19.742188 19.328125 C 19.742188 19.382812 19.742188 19.433594 19.738281 19.488281 M 22.605469 20.628906 C 22.6875 20.722656 22.804688 20.855469 22.949219 21.023438 C 23.144531 21.242188 23.382812 21.515625 23.636719 21.804688 C 23.75 21.933594 23.867188 22.066406 23.980469 22.199219 C 24.214844 22.464844 24.449219 22.734375 24.664062 22.980469 C 24.785156 23.117188 24.902344 23.25 25.003906 23.371094 C 25.335938 23.746094 25.566406 24.007812 25.566406 24.007812 C 25.617188 24.066406 25.644531 24.136719 25.644531 24.214844 C 25.644531 24.21875 25.644531 24.230469 25.640625 24.234375 C 25.636719 24.320312 25.601562 24.398438 25.539062 24.449219 C 25.40625 24.5625 25.210938 24.554688 25.09375 24.421875 L 24.949219 24.257812 L 24.613281 23.878906 L 23.929688 23.097656 L 22.898438 21.925781 L 22.550781 21.535156 L 22.03125 20.941406 L 22.027344 20.933594 C 22.003906 20.785156 22.042969 20.648438 22.140625 20.566406 C 22.230469 20.492188 22.351562 20.46875 22.484375 20.496094 L 22.488281 20.496094 C 22.488281 20.496094 22.535156 20.546875 22.605469 20.628906 M 20.238281 21.40625 C 20.210938 21.03125 20.128906 20.601562 19.992188 20.113281 C 20.070312 19.859375 20.113281 19.597656 20.113281 19.328125 L 20.113281 19.324219 C 20.113281 18.410156 19.636719 17.574219 18.863281 17.097656 C 19.238281 17.164062 19.617188 17.25 19.992188 17.367188 C 20.550781 17.75 21.054688 17.996094 21.148438 18.042969 C 21.585938 18.253906 22.394531 18.644531 23.183594 18.800781 C 23.105469 18.871094 20.320312 21.339844 20.238281 21.40625 M 21.910156 17.835938 C 19.902344 16.730469 18.148438 16.609375 17.488281 16.609375 C 16.828125 16.609375 15.074219 16.726562 13.066406 17.832031 C 12.585938 18.058594 11.78125 18.386719 11.078125 18.550781 L 11.054688 18.5 L 11.199219 18.394531 C 11.199219 18.394531 11.324219 18.304688 11.351562 18.285156 C 11.339844 18.253906 11.300781 18.101562 11.300781 18.101562 C 11.140625 17.5 11.007812 16.875 10.910156 16.25 C 10.855469 15.886719 10.808594 15.449219 10.769531 14.945312 L 10.765625 14.890625 L 11.511719 15.332031 L 11.511719 15.347656 C 11.59375 16.15625 11.699219 16.890625 11.835938 17.53125 C 11.835938 17.53125 11.898438 17.847656 11.914062 17.910156 C 12 17.855469 12.246094 17.714844 12.246094 17.714844 C 12.644531 17.484375 13.011719 17.292969 13.371094 17.136719 C 13.371094 17.136719 13.542969 17.0625 13.578125 17.050781 C 13.566406 16.996094 13.535156 16.832031 13.535156 16.832031 C 13.390625 16.117188 13.285156 15.332031 13.210938 14.496094 C 13.210938 14.496094 13.203125 14.375 13.199219 14.351562 C 13.171875 14.332031 12.3125 13.847656 12.3125 13.847656 C 12.3125 13.847656 13.109375 13.269531 13.128906 13.257812 C 13.128906 13.230469 13.125 13.105469 13.125 13.105469 C 13.101562 12.527344 13.085938 11.929688 13.085938 11.300781 C 13.085938 11.015625 13.089844 10.722656 13.097656 10.421875 L 13.101562 10.148438 L 13.101562 10.128906 L 13.570312 9.953125 L 13.570312 10.558594 C 13.628906 10.558594 21.363281 10.5625 21.417969 10.5625 C 21.417969 10.511719 21.417969 9.957031 21.417969 9.957031 L 21.867188 10.125 L 21.855469 10.421875 C 21.855469 10.421875 21.835938 10.84375 21.835938 10.851562 L 21.835938 10.917969 C 21.820312 11.605469 21.804688 12.757812 22.519531 13.550781 L 23.433594 14.535156 L 23.699219 14.824219 L 23.773438 14.90625 C 23.96875 15.117188 24.191406 15.351562 24.039062 16.328125 L 24.035156 16.355469 L 24.027344 16.394531 L 23.398438 16.035156 L 23.382812 16.023438 L 23.453125 15.46875 C 23.453125 15.46875 23.46875 15.34375 23.472656 15.316406 C 23.445312 15.292969 21.847656 14.035156 21.777344 13.980469 C 21.765625 14.117188 21.734375 14.492188 21.734375 14.492188 C 21.660156 15.367188 21.554688 16.152344 21.417969 16.824219 C 21.417969 16.824219 21.378906 17.007812 21.371094 17.046875 C 21.421875 17.066406 21.578125 17.136719 21.578125 17.136719 C 22.371094 17.480469 23.15625 17.945312 23.90625 18.507812 L 23.882812 18.558594 C 23.1875 18.390625 22.386719 18.066406 21.910156 17.835938 M 26.757812 9.652344 L 26.785156 9.652344 L 26.789062 9.824219 C 26.847656 12.761719 26.75 15.167969 26.515625 16.59375 C 26.261719 18.125 25.839844 19.472656 25.257812 20.59375 L 25.238281 20.632812 L 25.210938 20.597656 C 24.726562 20.015625 24.195312 19.484375 23.636719 19.019531 L 23.609375 18.996094 L 24.054688 18.621094 L 24.070312 18.636719 C 24.324219 18.828125 24.570312 19.035156 24.804688 19.246094 C 24.804688 19.246094 25.035156 19.453125 25.082031 19.492188 C 25.125 19.40625 25.269531 19.09375 25.269531 19.09375 C 25.269531 19.09375 25.273438 19.085938 25.277344 19.078125 C 25.441406 18.664062 25.605469 18.140625 25.867188 16.914062 C 25.957031 16.511719 25.992188 16.164062 25.992188 15.867188 C 25.992188 14.839844 25.5625 14.382812 25.304688 14.113281 L 25.195312 13.992188 C 25.195312 13.992188 24.695312 13.417969 24.691406 13.417969 L 24.101562 12.746094 C 23.726562 12.3125 23.652344 12.058594 23.652344 11.707031 C 23.652344 11.695312 23.652344 11.644531 23.652344 11.644531 L 24.355469 11.640625 L 24.386719 11.640625 L 24.386719 12.203125 C 24.386719 12.203125 24.382812 12.324219 24.382812 12.347656 C 24.410156 12.363281 26.144531 13.640625 26.214844 13.691406 C 26.21875 13.550781 26.230469 13.164062 26.230469 13.164062 C 26.25 12.605469 26.253906 12.019531 26.253906 11.390625 C 26.253906 11.082031 26.253906 10.757812 26.25 10.425781 C 26.25 10.425781 26.246094 10.199219 26.246094 10.152344 C 26.199219 10.152344 23.90625 10.15625 23.90625 10.15625 L 23.839844 10.15625 L 24.347656 9.652344 Z M 25.1875 8.414062 C 25.082031 8.519531 24.707031 8.464844 24.546875 8.398438 L 24.515625 8.382812 L 24.929688 7.867188 L 24.96875 7.8125 L 24.992188 7.835938 C 25.148438 7.992188 25.378906 8.222656 25.1875 8.414062 M 24.523438 7.757812 C 24.523438 7.753906 24.027344 8.316406 23.964844 8.386719 C 23.9375 8.378906 23.757812 8.324219 23.703125 8.304688 C 23.75 8.253906 24.011719 7.9375 24.011719 7.9375 L 23.972656 7.921875 C 23.910156 7.902344 23.859375 7.863281 23.8125 7.828125 C 23.8125 7.828125 23.769531 7.800781 23.738281 7.78125 C 23.777344 7.738281 24.050781 7.421875 24.050781 7.421875 L 24.089844 7.375 L 24.785156 6.726562 C 25.226562 6.308594 25.816406 5.757812 26.332031 5.289062 C 25.730469 6.148438 24.933594 7.222656 24.523438 7.757812 "/>
<path style=" stroke:none;fill-rule:nonzero;fill:rgb(1.960784%,9.803922%,13.333333%);fill-opacity:1;" d="M 10.898438 18.621094 C 10.652344 18.8125 10.40625 19.023438 10.136719 19.261719 C 10.136719 19.261719 9.886719 19.492188 9.832031 19.535156 C 9.808594 19.472656 9.695312 19.148438 9.695312 19.148438 C 9.386719 18.304688 9.148438 17.355469 8.992188 16.332031 C 8.785156 15.011719 8.730469 13.121094 8.730469 11.488281 C 8.730469 11.113281 8.734375 10.75 8.742188 10.410156 C 8.742188 10.410156 8.742188 10.183594 8.742188 10.140625 C 8.789062 10.140625 10.625 10.140625 10.671875 10.140625 C 10.667969 10.1875 10.667969 10.421875 10.667969 10.421875 C 10.660156 10.789062 10.660156 11.148438 10.660156 11.496094 C 10.660156 12.078125 10.664062 12.632812 10.679688 13.148438 L 10.679688 13.203125 L 11.359375 12.710938 L 11.359375 12.695312 C 11.34375 11.96875 11.34375 11.21875 11.363281 10.40625 L 11.367188 10.34375 L 11.285156 10.273438 L 11.246094 10.238281 L 10.644531 9.640625 L 10.632812 9.640625 L 8.207031 9.636719 L 8.203125 9.808594 C 8.136719 12.746094 8.230469 15.152344 8.464844 16.578125 C 8.710938 18.109375 9.132812 19.457031 9.714844 20.582031 L 9.734375 20.617188 L 9.757812 20.585938 C 10.246094 20.003906 10.777344 19.472656 11.339844 19.007812 L 11.363281 18.988281 L 10.917969 18.605469 Z M 10.898438 18.621094 "/>
<path style=" stroke:none;fill-rule:nonzero;fill:rgb(22.352941%,23.921569%,58.039216%);fill-opacity:1;" d="M 10.898438 18.621094 C 10.652344 18.8125 10.40625 19.023438 10.136719 19.261719 C 10.136719 19.261719 9.886719 19.492188 9.832031 19.535156 C 9.808594 19.472656 9.695312 19.148438 9.695312 19.148438 C 9.386719 18.304688 9.148438 17.355469 8.992188 16.332031 C 8.785156 15.011719 8.730469 13.121094 8.730469 11.488281 C 8.730469 11.113281 8.734375 10.75 8.742188 10.410156 C 8.742188 10.410156 8.742188 10.183594 8.742188 10.140625 C 8.789062 10.140625 10.625 10.140625 10.671875 10.140625 C 10.667969 10.1875 10.667969 10.421875 10.667969 10.421875 C 10.660156 10.789062 10.660156 11.148438 10.660156 11.496094 C 10.660156 12.078125 10.664062 12.632812 10.679688 13.148438 L 10.679688 13.203125 L 11.359375 12.710938 L 11.359375 12.695312 C 11.34375 11.96875 11.34375 11.21875 11.363281 10.40625 L 11.367188 10.34375 L 11.285156 10.273438 L 11.246094 10.238281 L 10.644531 9.640625 L 10.632812 9.640625 L 8.207031 9.636719 L 8.203125 9.808594 C 8.136719 12.746094 8.230469 15.152344 8.464844 16.578125 C 8.710938 18.109375 9.132812 19.457031 9.714844 20.582031 L 9.734375 20.617188 L 9.757812 20.585938 C 10.246094 20.003906 10.777344 19.472656 11.339844 19.007812 L 11.363281 18.988281 L 10.917969 18.605469 Z M 10.898438 18.621094 "/>
<path style=" stroke:none;fill-rule:nonzero;fill:rgb(1.960784%,9.803922%,13.333333%);fill-opacity:1;" d="M 24.859375 8.839844 L 24.785156 8.84375 C 24.363281 8.875 23.085938 8.492188 22.089844 8.105469 L 21.902344 8.03125 C 20.890625 7.632812 19.507812 7.089844 17.496094 7.085938 C 15.484375 7.085938 14.101562 7.625 13.09375 8.023438 L 12.902344 8.097656 C 11.90625 8.484375 10.625 8.863281 10.207031 8.832031 L 10.128906 8.824219 L 10.183594 8.878906 C 10.230469 8.925781 11.367188 10.054688 11.464844 10.144531 C 11.558594 10.234375 11.664062 10.25 11.8125 10.25 C 12.21875 10.246094 12.972656 9.949219 13.765625 9.640625 L 13.875 9.601562 C 14.628906 9.308594 15.769531 8.863281 17.492188 8.863281 C 19.222656 8.867188 20.363281 9.3125 21.117188 9.605469 L 21.222656 9.648438 C 22.015625 9.957031 22.769531 10.253906 23.175781 10.257812 C 23.324219 10.257812 23.429688 10.242188 23.527344 10.152344 C 23.621094 10.066406 24.757812 8.9375 24.804688 8.894531 Z M 12.285156 9.636719 C 12.144531 9.6875 11.941406 9.722656 11.828125 9.71875 L 11.761719 9.816406 L 11.660156 9.558594 C 11.84375 9.613281 12.054688 9.59375 12.21875 9.53125 C 12.347656 9.484375 12.4375 9.433594 12.417969 9.378906 C 12.394531 9.320312 12.269531 9.375 12.105469 9.417969 C 11.835938 9.503906 11.632812 9.503906 11.574219 9.347656 C 11.511719 9.1875 11.664062 9.035156 11.929688 8.9375 C 12.074219 8.882812 12.246094 8.859375 12.359375 8.867188 L 12.433594 8.761719 L 12.519531 9 C 12.332031 8.960938 12.164062 8.984375 12 9.042969 C 11.875 9.09375 11.761719 9.15625 11.78125 9.203125 C 11.800781 9.261719 11.921875 9.203125 12.082031 9.152344 C 12.347656 9.070312 12.585938 9.066406 12.644531 9.234375 C 12.710938 9.402344 12.550781 9.539062 12.285156 9.636719 M 13.308594 9.289062 L 13.394531 9.085938 L 13.355469 9.054688 L 12.980469 9.1875 L 12.96875 9.234375 L 13.195312 9.335938 C 13.085938 9.371094 12.832031 9.46875 12.6875 9.519531 L 12.792969 9.296875 L 12.882812 8.792969 L 12.664062 8.707031 C 12.875 8.628906 13.234375 8.507812 13.382812 8.449219 L 13.261719 8.65625 L 13.648438 8.96875 L 13.878906 9.074219 C 13.710938 9.132812 13.410156 9.253906 13.308594 9.289062 M 14.320312 8.914062 C 13.992188 9.007812 13.703125 8.929688 13.636719 8.714844 C 13.574219 8.496094 13.777344 8.269531 14.105469 8.171875 C 14.246094 8.132812 14.394531 8.125 14.5 8.144531 L 14.578125 8.046875 L 14.664062 8.335938 C 14.484375 8.253906 14.375 8.253906 14.214844 8.300781 C 14.042969 8.347656 13.890625 8.484375 13.929688 8.625 C 13.972656 8.765625 14.175781 8.800781 14.34375 8.75 C 14.453125 8.71875 14.609375 8.675781 14.710938 8.492188 L 14.75 8.628906 C 14.683594 8.734375 14.523438 8.855469 14.320312 8.914062 M 18.128906 8.402344 L 18.296875 8.257812 L 18.335938 7.828125 L 18.035156 8.398438 L 17.894531 8.394531 L 17.648438 7.792969 L 17.632812 8.230469 L 17.796875 8.386719 C 17.695312 8.382812 17.425781 8.378906 17.285156 8.382812 C 17.046875 8.382812 16.785156 8.410156 16.675781 8.414062 L 16.808594 8.246094 L 16.78125 8.207031 L 16.386719 8.234375 L 16.371094 8.277344 L 16.558594 8.425781 C 16.464844 8.429688 16.265625 8.453125 16.109375 8.472656 L 16.113281 8.476562 L 15.667969 8.542969 C 15.601562 8.5 15.542969 8.414062 15.492188 8.335938 C 15.460938 8.296875 15.441406 8.285156 15.398438 8.292969 L 15.222656 8.332031 L 15.253906 8.472656 L 15.457031 8.585938 L 14.828125 8.742188 L 14.96875 8.554688 L 14.875 8.125 L 14.671875 8.015625 C 14.902344 7.957031 15.144531 7.886719 15.359375 7.839844 C 15.636719 7.777344 15.832031 7.824219 15.851562 7.964844 C 15.871094 8.070312 15.789062 8.15625 15.652344 8.207031 C 15.695312 8.199219 15.75 8.207031 15.792969 8.25 C 15.816406 8.28125 15.84375 8.3125 15.875 8.351562 L 16.054688 8.445312 L 16.179688 8.289062 L 16.394531 7.839844 L 16.207031 7.703125 C 16.472656 7.679688 16.757812 7.65625 16.957031 7.644531 L 16.792969 7.808594 L 17.082031 8.21875 L 17.285156 8.382812 L 17.46875 8.230469 L 17.484375 7.792969 L 17.316406 7.636719 C 17.46875 7.636719 17.757812 7.636719 17.882812 7.640625 L 18.042969 8.015625 L 18.226562 7.65625 C 18.363281 7.667969 18.671875 7.695312 18.816406 7.714844 L 18.632812 7.855469 L 18.589844 8.28125 L 18.753906 8.457031 C 18.570312 8.4375 18.261719 8.40625 18.128906 8.402344 M 19.863281 8.671875 C 19.574219 8.601562 19.105469 8.507812 18.792969 8.464844 L 18.996094 8.339844 L 19.070312 7.910156 L 18.925781 7.726562 C 19.167969 7.761719 19.589844 7.835938 20.023438 7.933594 L 19.96875 8.199219 L 19.761719 8.003906 L 19.363281 7.933594 L 19.335938 8.09375 L 19.566406 8.132812 L 19.710938 8.082031 L 19.65625 8.363281 L 19.542969 8.261719 L 19.316406 8.21875 L 19.285156 8.402344 L 19.671875 8.472656 L 19.929688 8.367188 Z M 21.167969 8.441406 L 20.992188 9.027344 L 20.6875 8.917969 L 20.414062 8.316406 L 20.335938 8.636719 L 20.46875 8.84375 L 19.96875 8.695312 L 20.175781 8.59375 L 20.285156 8.160156 L 20.140625 7.964844 L 20.632812 8.105469 L 20.921875 8.707031 L 21.015625 8.390625 L 20.890625 8.1875 L 21.378906 8.359375 Z M 22.152344 8.792969 L 22.015625 8.742188 L 21.855469 9.203125 L 21.972656 9.410156 L 21.359375 9.175781 L 21.574219 9.097656 L 21.738281 8.636719 L 21.601562 8.582031 L 21.3125 8.679688 L 21.414062 8.378906 C 21.585938 8.441406 22.152344 8.65625 22.425781 8.761719 L 22.320312 9.0625 Z M 23.414062 9.480469 C 23.339844 9.699219 23.066406 9.792969 22.753906 9.699219 C 22.4375 9.601562 22.269531 9.375 22.34375 9.15625 C 22.414062 8.933594 22.6875 8.839844 23.003906 8.9375 C 23.316406 9.03125 23.484375 9.253906 23.414062 9.480469 "/>
<path style=" stroke:none;fill-rule:nonzero;fill:rgb(22.352941%,23.921569%,58.039216%);fill-opacity:1;" d="M 24.859375 8.839844 L 24.785156 8.84375 C 24.363281 8.875 23.085938 8.492188 22.089844 8.105469 L 21.902344 8.03125 C 20.890625 7.632812 19.507812 7.089844 17.496094 7.085938 C 15.484375 7.085938 14.101562 7.625 13.09375 8.023438 L 12.902344 8.097656 C 11.90625 8.484375 10.625 8.863281 10.207031 8.832031 L 10.128906 8.824219 L 10.183594 8.878906 C 10.230469 8.925781 11.367188 10.054688 11.464844 10.144531 C 11.558594 10.234375 11.664062 10.25 11.8125 10.25 C 12.21875 10.246094 12.972656 9.949219 13.765625 9.640625 L 13.875 9.601562 C 14.628906 9.308594 15.769531 8.863281 17.492188 8.863281 C 19.222656 8.867188 20.363281 9.3125 21.117188 9.605469 L 21.222656 9.648438 C 22.015625 9.957031 22.769531 10.253906 23.175781 10.257812 C 23.324219 10.257812 23.429688 10.242188 23.527344 10.152344 C 23.621094 10.066406 24.757812 8.9375 24.804688 8.894531 Z M 12.285156 9.636719 C 12.144531 9.6875 11.941406 9.722656 11.828125 9.71875 L 11.761719 9.816406 L 11.660156 9.558594 C 11.84375 9.613281 12.054688 9.59375 12.21875 9.53125 C 12.347656 9.484375 12.4375 9.433594 12.417969 9.378906 C 12.394531 9.320312 12.269531 9.375 12.105469 9.417969 C 11.835938 9.503906 11.632812 9.503906 11.574219 9.347656 C 11.511719 9.1875 11.664062 9.035156 11.929688 8.9375 C 12.074219 8.882812 12.246094 8.859375 12.359375 8.867188 L 12.433594 8.761719 L 12.519531 9 C 12.332031 8.960938 12.164062 8.984375 12 9.042969 C 11.875 9.09375 11.761719 9.15625 11.78125 9.203125 C 11.800781 9.261719 11.921875 9.203125 12.082031 9.152344 C 12.347656 9.070312 12.585938 9.066406 12.644531 9.234375 C 12.710938 9.402344 12.550781 9.539062 12.285156 9.636719 M 13.308594 9.289062 L 13.394531 9.085938 L 13.355469 9.054688 L 12.980469 9.1875 L 12.96875 9.234375 L 13.195312 9.335938 C 13.085938 9.371094 12.832031 9.46875 12.6875 9.519531 L 12.792969 9.296875 L 12.882812 8.792969 L 12.664062 8.707031 C 12.875 8.628906 13.234375 8.507812 13.382812 8.449219 L 13.261719 8.65625 L 13.648438 8.96875 L 13.878906 9.074219 C 13.710938 9.132812 13.410156 9.253906 13.308594 9.289062 M 14.320312 8.914062 C 13.992188 9.007812 13.703125 8.929688 13.636719 8.714844 C 13.574219 8.496094 13.777344 8.269531 14.105469 8.171875 C 14.246094 8.132812 14.394531 8.125 14.5 8.144531 L 14.578125 8.046875 L 14.664062 8.335938 C 14.484375 8.253906 14.375 8.253906 14.214844 8.300781 C 14.042969 8.347656 13.890625 8.484375 13.929688 8.625 C 13.972656 8.765625 14.175781 8.800781 14.34375 8.75 C 14.453125 8.71875 14.609375 8.675781 14.710938 8.492188 L 14.75 8.628906 C 14.683594 8.734375 14.523438 8.855469 14.320312 8.914062 M 18.128906 8.402344 L 18.296875 8.257812 L 18.335938 7.828125 L 18.035156 8.398438 L 17.894531 8.394531 L 17.648438 7.792969 L 17.632812 8.230469 L 17.796875 8.386719 C 17.695312 8.382812 17.425781 8.378906 17.285156 8.382812 C 17.046875 8.382812 16.785156 8.410156 16.675781 8.414062 L 16.808594 8.246094 L 16.78125 8.207031 L 16.386719 8.234375 L 16.371094 8.277344 L 16.558594 8.425781 C 16.464844 8.429688 16.265625 8.453125 16.109375 8.472656 L 16.113281 8.476562 L 15.667969 8.542969 C 15.601562 8.5 15.542969 8.414062 15.492188 8.335938 C 15.460938 8.296875 15.441406 8.285156 15.398438 8.292969 L 15.222656 8.332031 L 15.253906 8.472656 L 15.457031 8.585938 L 14.828125 8.742188 L 14.96875 8.554688 L 14.875 8.125 L 14.671875 8.015625 C 14.902344 7.957031 15.144531 7.886719 15.359375 7.839844 C 15.636719 7.777344 15.832031 7.824219 15.851562 7.964844 C 15.871094 8.070312 15.789062 8.15625 15.652344 8.207031 C 15.695312 8.199219 15.75 8.207031 15.792969 8.25 C 15.816406 8.28125 15.84375 8.3125 15.875 8.351562 L 16.054688 8.445312 L 16.179688 8.289062 L 16.394531 7.839844 L 16.207031 7.703125 C 16.472656 7.679688 16.757812 7.65625 16.957031 7.644531 L 16.792969 7.808594 L 17.082031 8.21875 L 17.285156 8.382812 L 17.46875 8.230469 L 17.484375 7.792969 L 17.316406 7.636719 C 17.46875 7.636719 17.757812 7.636719 17.882812 7.640625 L 18.042969 8.015625 L 18.226562 7.65625 C 18.363281 7.667969 18.671875 7.695312 18.816406 7.714844 L 18.632812 7.855469 L 18.589844 8.28125 L 18.753906 8.457031 C 18.570312 8.4375 18.261719 8.40625 18.128906 8.402344 M 19.863281 8.671875 C 19.574219 8.601562 19.105469 8.507812 18.792969 8.464844 L 18.996094 8.339844 L 19.070312 7.910156 L 18.925781 7.726562 C 19.167969 7.761719 19.589844 7.835938 20.023438 7.933594 L 19.96875 8.199219 L 19.761719 8.003906 L 19.363281 7.933594 L 19.335938 8.09375 L 19.566406 8.132812 L 19.710938 8.082031 L 19.65625 8.363281 L 19.542969 8.261719 L 19.316406 8.21875 L 19.285156 8.402344 L 19.671875 8.472656 L 19.929688 8.367188 Z M 21.167969 8.441406 L 20.992188 9.027344 L 20.6875 8.917969 L 20.414062 8.316406 L 20.335938 8.636719 L 20.46875 8.84375 L 19.96875 8.695312 L 20.175781 8.59375 L 20.285156 8.160156 L 20.140625 7.964844 L 20.632812 8.105469 L 20.921875 8.707031 L 21.015625 8.390625 L 20.890625 8.1875 L 21.378906 8.359375 Z M 22.152344 8.792969 L 22.015625 8.742188 L 21.855469 9.203125 L 21.972656 9.410156 L 21.359375 9.175781 L 21.574219 9.097656 L 21.738281 8.636719 L 21.601562 8.582031 L 21.3125 8.679688 L 21.414062 8.378906 C 21.585938 8.441406 22.152344 8.65625 22.425781 8.761719 L 22.320312 9.0625 Z M 23.414062 9.480469 C 23.339844 9.699219 23.066406 9.792969 22.753906 9.699219 C 22.4375 9.601562 22.269531 9.375 22.34375 9.15625 C 22.414062 8.933594 22.6875 8.839844 23.003906 8.9375 C 23.316406 9.03125 23.484375 9.253906 23.414062 9.480469 "/>
<path style=" stroke:none;fill-rule:nonzero;fill:rgb(1.960784%,9.803922%,13.333333%);fill-opacity:1;" d="M 16.445312 8.105469 L 16.691406 8.085938 L 16.546875 7.890625 Z M 16.445312 8.105469 "/>
<path style=" stroke:none;fill-rule:nonzero;fill:rgb(35.294118%,25.098039%,60%);fill-opacity:1;" d="M 16.445312 8.105469 L 16.691406 8.085938 L 16.546875 7.890625 Z M 16.445312 8.105469 "/>
<path style=" stroke:none;fill-rule:nonzero;fill:rgb(1.960784%,9.803922%,13.333333%);fill-opacity:1;" d="M 15.378906 7.972656 L 15.15625 8.023438 L 15.195312 8.207031 L 15.410156 8.160156 C 15.488281 8.140625 15.535156 8.09375 15.527344 8.046875 C 15.515625 7.980469 15.457031 7.957031 15.378906 7.972656 "/>
<path style=" stroke:none;fill-rule:nonzero;fill:rgb(35.294118%,25.098039%,60%);fill-opacity:1;" d="M 15.378906 7.972656 L 15.15625 8.023438 L 15.195312 8.207031 L 15.410156 8.160156 C 15.488281 8.140625 15.535156 8.09375 15.527344 8.046875 C 15.515625 7.980469 15.457031 7.957031 15.378906 7.972656 "/>
<path style=" stroke:none;fill-rule:nonzero;fill:rgb(1.960784%,9.803922%,13.333333%);fill-opacity:1;" d="M 13.003906 9.042969 L 13.238281 8.960938 L 13.042969 8.804688 Z M 13.003906 9.042969 "/>
<path style=" stroke:none;fill-rule:nonzero;fill:rgb(35.294118%,25.098039%,60%);fill-opacity:1;" d="M 13.003906 9.042969 L 13.238281 8.960938 L 13.042969 8.804688 Z M 13.003906 9.042969 "/>
<path style=" stroke:none;fill-rule:nonzero;fill:rgb(1.960784%,9.803922%,13.333333%);fill-opacity:1;" d="M 22.949219 9.082031 C 22.804688 9.039062 22.671875 9.105469 22.628906 9.242188 C 22.585938 9.378906 22.652344 9.503906 22.800781 9.546875 C 22.945312 9.589844 23.082031 9.527344 23.125 9.394531 C 23.167969 9.257812 23.097656 9.128906 22.949219 9.082031 "/>
<path style=" stroke:none;fill-rule:nonzero;fill:rgb(35.294118%,25.098039%,60%);fill-opacity:1;" d="M 22.949219 9.082031 C 22.804688 9.039062 22.671875 9.105469 22.628906 9.242188 C 22.585938 9.378906 22.652344 9.503906 22.800781 9.546875 C 22.945312 9.589844 23.082031 9.527344 23.125 9.394531 C 23.167969 9.257812 23.097656 9.128906 22.949219 9.082031 "/>
<path style=" stroke:none;fill-rule:nonzero;fill:rgb(100%,100%,100%);fill-opacity:1;" d="M 12.082031 9.152344 C 11.921875 9.203125 11.800781 9.261719 11.78125 9.207031 C 11.761719 9.15625 11.875 9.09375 12 9.042969 C 12.164062 8.984375 12.332031 8.960938 12.519531 8.996094 L 12.433594 8.761719 L 12.359375 8.867188 C 12.246094 8.859375 12.074219 8.886719 11.929688 8.9375 C 11.664062 9.035156 11.511719 9.1875 11.574219 9.347656 C 11.632812 9.503906 11.835938 9.503906 12.105469 9.417969 C 12.269531 9.375 12.394531 9.320312 12.417969 9.378906 C 12.4375 9.433594 12.347656 9.484375 12.21875 9.53125 C 12.054688 9.59375 11.84375 9.613281 11.660156 9.558594 L 11.761719 9.820312 L 11.828125 9.71875 C 11.941406 9.726562 12.144531 9.6875 12.285156 9.636719 C 12.550781 9.539062 12.710938 9.402344 12.644531 9.234375 C 12.585938 9.070312 12.347656 9.070312 12.082031 9.152344 "/>
<path style=" stroke:none;fill-rule:nonzero;fill:rgb(100%,100%,100%);fill-opacity:1;" d="M 14.34375 8.75 C 14.175781 8.800781 13.96875 8.765625 13.929688 8.625 C 13.890625 8.484375 14.042969 8.351562 14.214844 8.300781 C 14.375 8.253906 14.484375 8.253906 14.664062 8.335938 L 14.582031 8.046875 L 14.5 8.144531 C 14.394531 8.125 14.246094 8.132812 14.105469 8.171875 C 13.777344 8.269531 13.574219 8.496094 13.636719 8.714844 C 13.703125 8.929688 13.992188 9.007812 14.320312 8.914062 C 14.523438 8.855469 14.683594 8.734375 14.75 8.628906 L 14.710938 8.492188 C 14.609375 8.675781 14.453125 8.71875 14.34375 8.75 "/>
<path style=" stroke:none;fill-rule:nonzero;fill:rgb(100%,100%,100%);fill-opacity:1;" d="M 18.632812 7.855469 L 18.816406 7.714844 C 18.671875 7.695312 18.363281 7.664062 18.226562 7.65625 L 18.042969 8.015625 L 17.882812 7.640625 C 17.757812 7.636719 17.46875 7.636719 17.320312 7.636719 L 17.484375 7.789062 L 17.46875 8.230469 L 17.285156 8.382812 C 17.425781 8.378906 17.695312 8.382812 17.796875 8.386719 L 17.632812 8.230469 L 17.648438 7.792969 L 17.894531 8.394531 L 18.035156 8.398438 L 18.335938 7.828125 L 18.296875 8.257812 L 18.128906 8.398438 C 18.261719 8.40625 18.570312 8.4375 18.753906 8.457031 L 18.589844 8.277344 Z M 18.632812 7.855469 "/>
<path style=" stroke:none;fill-rule:nonzero;fill:rgb(100%,100%,100%);fill-opacity:1;" d="M 19.285156 8.402344 L 19.316406 8.21875 L 19.542969 8.261719 L 19.65625 8.363281 L 19.710938 8.082031 L 19.566406 8.132812 L 19.335938 8.09375 L 19.363281 7.933594 L 19.761719 8.003906 L 19.96875 8.199219 L 20.023438 7.933594 C 19.589844 7.835938 19.167969 7.757812 18.921875 7.726562 L 19.070312 7.910156 L 18.996094 8.339844 L 18.792969 8.464844 C 19.105469 8.507812 19.574219 8.601562 19.863281 8.667969 L 19.929688 8.367188 L 19.671875 8.472656 Z M 19.285156 8.402344 "/>
<path style=" stroke:none;fill-rule:nonzero;fill:rgb(100%,100%,100%);fill-opacity:1;" d="M 20.890625 8.1875 L 21.015625 8.390625 L 20.921875 8.707031 L 20.632812 8.105469 L 20.140625 7.960938 L 20.285156 8.160156 L 20.175781 8.59375 L 19.96875 8.695312 L 20.46875 8.84375 L 20.335938 8.636719 L 20.414062 8.316406 L 20.6875 8.917969 L 20.996094 9.027344 L 21.167969 8.441406 L 21.378906 8.359375 Z M 20.890625 8.1875 "/>
<path style=" stroke:none;fill-rule:nonzero;fill:rgb(100%,100%,100%);fill-opacity:1;" d="M 21.414062 8.378906 L 21.3125 8.679688 L 21.601562 8.582031 L 21.738281 8.636719 L 21.574219 9.097656 L 21.359375 9.175781 L 21.972656 9.410156 L 21.855469 9.203125 L 22.019531 8.742188 L 22.152344 8.792969 L 22.320312 9.0625 L 22.425781 8.761719 C 22.152344 8.65625 21.585938 8.441406 21.414062 8.378906 "/>
<path style=" stroke:none;fill-rule:nonzero;fill:rgb(100%,100%,100%);fill-opacity:1;" d="M 23.003906 8.9375 C 22.6875 8.839844 22.414062 8.933594 22.34375 9.15625 C 22.269531 9.378906 22.4375 9.601562 22.753906 9.699219 C 23.066406 9.792969 23.339844 9.699219 23.414062 9.480469 C 23.484375 9.253906 23.316406 9.03125 23.003906 8.9375 M 23.125 9.390625 C 23.082031 9.527344 22.945312 9.589844 22.800781 9.546875 C 22.652344 9.503906 22.585938 9.378906 22.628906 9.242188 C 22.671875 9.105469 22.804688 9.039062 22.949219 9.082031 C 23.097656 9.128906 23.167969 9.253906 23.125 9.390625 "/>
<path style=" stroke:none;fill-rule:nonzero;fill:rgb(100%,100%,100%);fill-opacity:1;" d="M 13.261719 8.65625 L 13.382812 8.445312 C 13.234375 8.507812 12.875 8.628906 12.664062 8.707031 L 12.882812 8.792969 L 12.792969 9.292969 L 12.6875 9.519531 C 12.832031 9.464844 13.085938 9.371094 13.195312 9.335938 L 12.96875 9.234375 L 12.980469 9.1875 L 13.355469 9.054688 L 13.394531 9.085938 L 13.308594 9.289062 C 13.410156 9.253906 13.710938 9.132812 13.878906 9.074219 L 13.648438 8.96875 Z M 13.003906 9.042969 L 13.042969 8.804688 L 13.238281 8.960938 Z M 13.003906 9.042969 "/>
<path style=" stroke:none;fill-rule:nonzero;fill:rgb(100%,100%,100%);fill-opacity:1;" d="M 16.792969 7.808594 L 16.957031 7.644531 C 16.757812 7.65625 16.472656 7.675781 16.207031 7.703125 L 16.394531 7.839844 L 16.183594 8.289062 L 16.054688 8.441406 L 15.875 8.347656 C 15.84375 8.3125 15.820312 8.28125 15.792969 8.25 C 15.753906 8.207031 15.695312 8.199219 15.652344 8.207031 C 15.789062 8.15625 15.871094 8.070312 15.855469 7.964844 C 15.832031 7.824219 15.636719 7.777344 15.359375 7.839844 C 15.144531 7.886719 14.902344 7.957031 14.671875 8.015625 L 14.878906 8.121094 L 14.96875 8.554688 L 14.828125 8.742188 L 15.457031 8.585938 L 15.253906 8.472656 L 15.222656 8.332031 L 15.398438 8.292969 C 15.441406 8.285156 15.464844 8.296875 15.492188 8.335938 C 15.542969 8.414062 15.601562 8.5 15.667969 8.542969 L 16.113281 8.476562 L 16.109375 8.472656 C 16.265625 8.453125 16.464844 8.429688 16.558594 8.425781 L 16.371094 8.277344 L 16.386719 8.234375 L 16.78125 8.207031 L 16.808594 8.246094 L 16.675781 8.414062 C 16.785156 8.410156 17.046875 8.386719 17.285156 8.386719 L 17.082031 8.21875 Z M 15.410156 8.160156 L 15.195312 8.207031 L 15.15625 8.023438 L 15.378906 7.972656 C 15.457031 7.957031 15.515625 7.976562 15.527344 8.046875 C 15.535156 8.09375 15.488281 8.140625 15.410156 8.160156 M 16.445312 8.105469 L 16.546875 7.890625 L 16.691406 8.085938 Z M 16.445312 8.105469 "/>
<path style=" stroke:none;fill-rule:nonzero;fill:rgb(22.352941%,23.921569%,58.039216%);fill-opacity:1;" d="M 17.550781 17.457031 L 17.578125 17.457031 C 17.78125 17.46875 17.980469 17.503906 18.171875 17.566406 L 18.199219 17.570312 L 18.207031 17.546875 C 18.265625 17.417969 18.339844 17.324219 18.390625 17.269531 C 18.390625 17.269531 18.390625 17.265625 18.398438 17.261719 C 18.136719 17.148438 17.851562 17.078125 17.550781 17.070312 Z M 17.550781 17.457031 "/>
<path style=" stroke:none;fill-rule:nonzero;fill:rgb(22.352941%,23.921569%,58.039216%);fill-opacity:1;" d="M 16.769531 17.546875 L 16.777344 17.570312 L 16.800781 17.5625 C 16.996094 17.5 17.195312 17.46875 17.398438 17.457031 L 17.425781 17.457031 L 17.425781 17.070312 C 17.125 17.078125 16.839844 17.144531 16.582031 17.257812 C 16.582031 17.261719 16.585938 17.265625 16.585938 17.265625 C 16.636719 17.320312 16.710938 17.417969 16.769531 17.546875 "/>
<path style=" stroke:none;fill-rule:nonzero;fill:rgb(22.352941%,23.921569%,58.039216%);fill-opacity:1;" d="M 18.589844 19.109375 C 18.585938 19.105469 18.308594 18.65625 18.308594 18.65625 C 18.179688 18.425781 18.117188 18.203125 18.117188 17.984375 C 18.117188 17.890625 18.128906 17.800781 18.148438 17.714844 L 18.15625 17.6875 L 18.132812 17.679688 C 17.953125 17.621094 17.769531 17.589844 17.578125 17.582031 L 17.550781 17.582031 L 17.546875 21.582031 C 18.175781 21.566406 18.742188 21.289062 19.144531 20.859375 L 19.144531 20.855469 C 19.144531 19.96875 18.898438 19.589844 18.589844 19.109375 "/>
<path style=" stroke:none;fill-rule:nonzero;fill:rgb(22.352941%,23.921569%,58.039216%);fill-opacity:1;" d="M 19.625 19.714844 C 19.625 19.144531 19.402344 18.609375 19 18.207031 C 18.796875 18.003906 18.5625 17.847656 18.304688 17.742188 L 18.273438 17.730469 L 18.265625 17.761719 C 18.246094 17.832031 18.238281 17.90625 18.238281 17.984375 C 18.238281 18.179688 18.296875 18.382812 18.417969 18.59375 L 18.6875 19.039062 C 18.980469 19.492188 19.230469 19.878906 19.261719 20.679688 C 19.261719 20.679688 19.261719 20.695312 19.265625 20.714844 C 19.382812 20.5625 19.480469 20.398438 19.558594 20.222656 C 19.597656 20.054688 19.625 19.886719 19.625 19.71875 Z M 19.625 19.714844 "/>
<path style=" stroke:none;fill-rule:nonzero;fill:rgb(22.352941%,23.921569%,58.039216%);fill-opacity:1;" d="M 16.632812 17.625 L 16.664062 17.613281 L 16.648438 17.585938 C 16.589844 17.460938 16.515625 17.371094 16.460938 17.316406 C 15.730469 17.691406 15.230469 18.449219 15.230469 19.324219 C 15.230469 19.378906 15.234375 19.433594 15.234375 19.488281 C 15.25 19.40625 15.257812 19.34375 15.257812 19.34375 C 15.386719 18.578125 15.914062 17.917969 16.632812 17.625 "/>
<path style=" stroke:none;fill-rule:nonzero;fill:rgb(22.352941%,23.921569%,58.039216%);fill-opacity:1;" d="M 16.28125 19.039062 C 16.28125 19.039062 16.558594 18.59375 16.558594 18.59375 C 16.675781 18.382812 16.738281 18.175781 16.738281 17.980469 C 16.738281 17.90625 16.726562 17.832031 16.710938 17.757812 L 16.703125 17.726562 L 16.671875 17.738281 C 16.414062 17.847656 16.179688 18.003906 15.976562 18.203125 C 15.574219 18.605469 15.351562 19.144531 15.351562 19.714844 C 15.351562 19.882812 15.371094 20.046875 15.414062 20.214844 C 15.488281 20.394531 15.589844 20.5625 15.710938 20.714844 L 15.710938 20.679688 C 15.742188 19.875 15.992188 19.488281 16.28125 19.039062 "/>
<path style=" stroke:none;fill-rule:nonzero;fill:rgb(22.352941%,23.921569%,58.039216%);fill-opacity:1;" d="M 18.515625 17.320312 C 18.460938 17.371094 18.386719 17.457031 18.328125 17.585938 L 18.316406 17.613281 L 18.34375 17.625 C 18.621094 17.738281 18.871094 17.90625 19.085938 18.121094 C 19.421875 18.457031 19.636719 18.882812 19.714844 19.347656 C 19.714844 19.347656 19.726562 19.40625 19.738281 19.488281 C 19.742188 19.4375 19.742188 19.382812 19.742188 19.328125 C 19.742188 18.453125 19.246094 17.691406 18.515625 17.320312 "/>
<path style=" stroke:none;fill-rule:nonzero;fill:rgb(22.352941%,23.921569%,58.039216%);fill-opacity:1;" d="M 17.398438 17.582031 C 17.210938 17.589844 17.023438 17.621094 16.84375 17.675781 L 16.820312 17.6875 L 16.828125 17.714844 C 16.847656 17.800781 16.859375 17.890625 16.859375 17.980469 C 16.859375 18.199219 16.796875 18.421875 16.664062 18.65625 L 16.386719 19.105469 C 16.074219 19.585938 15.828125 19.96875 15.828125 20.855469 C 16.226562 21.285156 16.792969 21.5625 17.425781 21.582031 C 17.425781 20.984375 17.425781 17.582031 17.425781 17.582031 Z M 17.398438 17.582031 "/>
<path style=" stroke:none;fill-rule:nonzero;fill:rgb(65.490196%,66.27451%,67.45098%);fill-opacity:1;" d="M 19.085938 18.121094 C 18.871094 17.90625 18.621094 17.738281 18.34375 17.625 L 18.316406 17.613281 L 18.328125 17.585938 C 18.386719 17.457031 18.464844 17.371094 18.515625 17.320312 C 18.476562 17.300781 18.4375 17.28125 18.398438 17.261719 C 18.390625 17.265625 18.390625 17.269531 18.390625 17.269531 C 18.339844 17.324219 18.265625 17.417969 18.207031 17.546875 L 18.199219 17.570312 L 18.171875 17.566406 C 17.980469 17.503906 17.78125 17.46875 17.578125 17.457031 L 17.550781 17.457031 L 17.550781 17.070312 C 17.527344 17.070312 17.507812 17.070312 17.488281 17.070312 C 17.46875 17.070312 17.449219 17.070312 17.425781 17.070312 L 17.425781 17.457031 L 17.398438 17.457031 C 17.195312 17.46875 16.996094 17.503906 16.804688 17.5625 L 16.777344 17.570312 L 16.769531 17.546875 C 16.710938 17.417969 16.636719 17.320312 16.585938 17.269531 C 16.585938 17.269531 16.582031 17.261719 16.582031 17.257812 C 16.539062 17.277344 16.5 17.296875 16.460938 17.316406 C 16.515625 17.371094 16.589844 17.460938 16.648438 17.585938 L 16.664062 17.613281 L 16.632812 17.625 C 15.914062 17.917969 15.386719 18.578125 15.257812 19.34375 C 15.257812 19.34375 15.25 19.40625 15.238281 19.488281 C 15.253906 19.742188 15.316406 19.988281 15.414062 20.214844 C 15.371094 20.050781 15.351562 19.882812 15.351562 19.71875 L 15.351562 19.714844 C 15.351562 19.144531 15.574219 18.609375 15.976562 18.203125 C 16.179688 18.003906 16.414062 17.847656 16.671875 17.742188 L 16.703125 17.730469 L 16.710938 17.761719 C 16.726562 17.832031 16.738281 17.90625 16.738281 17.980469 C 16.738281 18.175781 16.679688 18.382812 16.558594 18.59375 C 16.558594 18.59375 16.285156 19.039062 16.285156 19.039062 C 15.996094 19.488281 15.742188 19.875 15.710938 20.679688 L 15.710938 20.714844 C 15.746094 20.765625 15.785156 20.808594 15.828125 20.855469 C 15.828125 19.96875 16.074219 19.585938 16.386719 19.105469 L 16.664062 18.652344 C 16.796875 18.421875 16.859375 18.199219 16.859375 17.980469 C 16.859375 17.890625 16.847656 17.800781 16.828125 17.714844 L 16.820312 17.6875 L 16.84375 17.679688 C 17.023438 17.621094 17.210938 17.589844 17.398438 17.582031 L 17.425781 17.582031 C 17.425781 17.582031 17.425781 20.984375 17.425781 21.582031 C 17.441406 21.582031 17.464844 21.582031 17.484375 21.582031 C 17.507812 21.582031 17.527344 21.582031 17.546875 21.582031 L 17.550781 17.582031 L 17.578125 17.582031 C 17.769531 17.589844 17.953125 17.621094 18.132812 17.679688 L 18.15625 17.6875 L 18.148438 17.714844 C 18.128906 17.800781 18.117188 17.894531 18.117188 17.984375 C 18.117188 18.203125 18.179688 18.425781 18.308594 18.65625 C 18.308594 18.65625 18.589844 19.105469 18.589844 19.109375 C 18.898438 19.589844 19.144531 19.96875 19.144531 20.855469 L 19.144531 20.859375 C 19.1875 20.8125 19.226562 20.761719 19.265625 20.714844 C 19.261719 20.695312 19.261719 20.679688 19.261719 20.679688 C 19.230469 19.878906 18.980469 19.492188 18.6875 19.039062 L 18.417969 18.59375 C 18.296875 18.382812 18.238281 18.179688 18.238281 17.984375 C 18.238281 17.90625 18.246094 17.832031 18.265625 17.761719 L 18.273438 17.730469 L 18.304688 17.742188 C 18.5625 17.847656 18.796875 18.003906 19 18.207031 C 19.402344 18.609375 19.625 19.144531 19.625 19.714844 L 19.625 19.71875 C 19.625 19.886719 19.597656 20.054688 19.558594 20.222656 C 19.65625 19.992188 19.71875 19.746094 19.738281 19.488281 C 19.726562 19.40625 19.714844 19.347656 19.714844 19.347656 C 19.636719 18.882812 19.421875 18.457031 19.085938 18.121094 "/>
<g clip-path="url(#clip1)" clip-rule="nonzero">
<path style=" stroke:none;fill-rule:nonzero;fill:rgb(65.490196%,66.27451%,67.45098%);fill-opacity:1;" d="M 10.304688 23.007812 L 10.300781 22.96875 L 9.960938 23.359375 L 9.964844 23.394531 L 9.96875 23.433594 L 9.984375 23.730469 L 10.011719 24.203125 L 10.015625 24.246094 L 10.351562 23.863281 L 10.347656 23.824219 Z M 10.304688 23.007812 "/>
</g>
<g clip-path="url(#clip2)" clip-rule="nonzero">
<path style=" stroke:none;fill-rule:nonzero;fill:rgb(65.490196%,66.27451%,67.45098%);fill-opacity:1;" d="M 12.414062 21.445312 L 12.386719 20.996094 L 12.367188 20.660156 L 12.363281 20.621094 L 12.019531 21.015625 L 12.023438 21.050781 L 12.066406 21.882812 L 12.070312 21.921875 L 12.417969 21.527344 L 12.417969 21.488281 Z M 12.414062 21.445312 "/>
</g>
<g clip-path="url(#clip3)" clip-rule="nonzero">
<path style=" stroke:none;fill-rule:nonzero;fill:rgb(65.490196%,66.27451%,67.45098%);fill-opacity:1;" d="M 11.335938 21.835938 L 11.332031 21.796875 L 10.988281 22.1875 L 10.992188 22.226562 L 11.019531 22.722656 L 11.035156 23.007812 L 11.039062 23.046875 L 11.039062 23.085938 L 11.382812 22.695312 L 11.378906 22.65625 Z M 11.335938 21.835938 "/>
</g>
<g clip-path="url(#clip4)" clip-rule="nonzero">
<path style=" stroke:none;fill-rule:nonzero;fill:rgb(65.490196%,66.27451%,67.45098%);fill-opacity:1;" d="M 24.652344 23.195312 L 24.621094 23.796875 L 24.617188 23.835938 L 24.613281 23.878906 L 24.949219 24.257812 L 24.953125 24.21875 L 24.953125 24.179688 L 25 23.449219 L 25.003906 23.410156 L 25.003906 23.371094 C 24.902344 23.25 24.785156 23.117188 24.664062 22.980469 L 24.664062 23.019531 Z M 24.652344 23.195312 "/>
</g>
<g clip-path="url(#clip5)" clip-rule="nonzero">
<path style=" stroke:none;fill-rule:nonzero;fill:rgb(65.490196%,66.27451%,67.45098%);fill-opacity:1;" d="M 22.601562 20.710938 L 22.5625 21.332031 L 22.554688 21.496094 L 22.550781 21.535156 L 22.898438 21.929688 L 22.902344 21.890625 L 22.949219 21.0625 L 22.953125 21.023438 C 22.804688 20.859375 22.6875 20.722656 22.605469 20.628906 L 22.605469 20.671875 Z M 22.601562 20.710938 "/>
</g>
<g clip-path="url(#clip6)" clip-rule="nonzero">
<path style=" stroke:none;fill-rule:nonzero;fill:rgb(65.490196%,66.27451%,67.45098%);fill-opacity:1;" d="M 23.632812 21.886719 L 23.613281 22.257812 L 23.585938 22.667969 L 23.585938 22.707031 L 23.929688 23.097656 L 23.929688 23.058594 L 23.933594 23.019531 L 23.945312 22.765625 L 23.976562 22.238281 L 23.980469 22.199219 C 23.867188 22.066406 23.75 21.933594 23.636719 21.804688 L 23.632812 21.847656 Z M 23.632812 21.886719 "/>
</g>
<path style=" stroke:none;fill-rule:nonzero;fill:rgb(65.490196%,66.27451%,67.45098%);fill-opacity:1;" d="M 11.027344 8.375 C 11.054688 8.367188 11.230469 8.3125 11.289062 8.296875 C 11.246094 8.242188 10.980469 7.925781 10.980469 7.925781 L 11.019531 7.910156 C 11.082031 7.890625 11.132812 7.851562 11.179688 7.820312 C 11.179688 7.820312 11.222656 7.792969 11.253906 7.773438 C 11.214844 7.726562 10.945312 7.414062 10.945312 7.414062 C 10.945312 7.414062 10.90625 7.367188 10.90625 7.367188 L 10.210938 6.714844 C 9.765625 6.296875 9.183594 5.742188 8.667969 5.273438 C 9.265625 6.136719 10.0625 7.210938 10.46875 7.742188 C 10.46875 7.742188 11.003906 8.351562 11.027344 8.375 "/>
<path style=" stroke:none;fill-rule:nonzero;fill:rgb(1.960784%,9.803922%,13.333333%);fill-opacity:1;" d="M 10.445312 8.386719 L 10.480469 8.371094 L 10.042969 7.824219 L 10.023438 7.800781 L 10 7.824219 C 9.84375 7.976562 9.613281 8.210938 9.804688 8.402344 C 9.910156 8.507812 10.285156 8.453125 10.445312 8.386719 "/>
<path style=" stroke:none;fill-rule:nonzero;fill:rgb(22.352941%,23.921569%,58.039216%);fill-opacity:1;" d="M 10.445312 8.386719 L 10.480469 8.371094 L 10.042969 7.824219 L 10.023438 7.800781 L 10 7.824219 C 9.84375 7.976562 9.613281 8.210938 9.804688 8.402344 C 9.910156 8.507812 10.285156 8.453125 10.445312 8.386719 "/>
<path style=" stroke:none;fill-rule:nonzero;fill:rgb(1.960784%,9.803922%,13.333333%);fill-opacity:1;" d="M 11.625 7.582031 C 11.792969 7.488281 11.910156 7.34375 11.9375 7.203125 C 11.949219 7.136719 11.941406 7.082031 11.914062 7.042969 C 11.808594 6.910156 11.550781 6.929688 11.1875 7.097656 L 11.148438 7.113281 L 11.605469 7.59375 Z M 11.625 7.582031 "/>
<path style=" stroke:none;fill-rule:nonzero;fill:rgb(22.352941%,23.921569%,58.039216%);fill-opacity:1;" d="M 11.625 7.582031 C 11.792969 7.488281 11.910156 7.34375 11.9375 7.203125 C 11.949219 7.136719 11.941406 7.082031 11.914062 7.042969 C 11.808594 6.910156 11.550781 6.929688 11.1875 7.097656 L 11.148438 7.113281 L 11.605469 7.59375 Z M 11.625 7.582031 "/>
<path style=" stroke:none;fill-rule:nonzero;fill:rgb(1.960784%,9.803922%,13.333333%);fill-opacity:1;" d="M 11.558594 8.023438 L 11.527344 8.042969 L 11.6875 8.234375 L 11.703125 8.230469 C 11.707031 8.226562 12.292969 8.046875 12.691406 7.867188 L 12.722656 7.855469 L 12.246094 7.097656 L 12.199219 7.128906 C 12.238281 7.199219 12.242188 7.285156 12.210938 7.378906 C 12.144531 7.601562 11.882812 7.855469 11.558594 8.023438 "/>
<path style=" stroke:none;fill-rule:nonzero;fill:rgb(22.352941%,23.921569%,58.039216%);fill-opacity:1;" d="M 11.558594 8.023438 L 11.527344 8.042969 L 11.6875 8.234375 L 11.703125 8.230469 C 11.707031 8.226562 12.292969 8.046875 12.691406 7.867188 L 12.722656 7.855469 L 12.246094 7.097656 L 12.199219 7.128906 C 12.238281 7.199219 12.242188 7.285156 12.210938 7.378906 C 12.144531 7.601562 11.882812 7.855469 11.558594 8.023438 "/>
<path style=" stroke:none;fill-rule:nonzero;fill:rgb(65.490196%,66.27451%,67.45098%);fill-opacity:1;" d="M 17.496094 6.816406 C 19.253906 6.820312 20.546875 7.21875 21.683594 7.65625 C 21.703125 7.605469 22.488281 5.78125 22.546875 5.644531 C 22.417969 5.714844 20.578125 6.679688 20.578125 6.679688 C 20.578125 6.679688 20.894531 3.304688 20.910156 3.128906 C 20.796875 3.265625 18.519531 6.09375 18.519531 6.09375 C 18.519531 6.09375 17.550781 2.648438 17.503906 2.464844 C 17.449219 2.648438 16.476562 6.089844 16.476562 6.089844 C 16.476562 6.089844 14.203125 3.261719 14.089844 3.121094 C 14.105469 3.300781 14.417969 6.675781 14.417969 6.675781 C 14.417969 6.675781 12.582031 5.703125 12.449219 5.636719 C 12.507812 5.769531 13.292969 7.601562 13.3125 7.648438 C 14.449219 7.214844 15.742188 6.816406 17.496094 6.816406 "/>
<path style=" stroke:none;fill-rule:nonzero;fill:rgb(1.960784%,9.803922%,13.333333%);fill-opacity:1;" d="M 24.96875 7.8125 L 24.929688 7.867188 L 24.515625 8.382812 L 24.546875 8.398438 C 24.707031 8.464844 25.082031 8.519531 25.1875 8.414062 C 25.378906 8.222656 25.148438 7.992188 24.992188 7.835938 Z M 24.96875 7.8125 "/>
<path style=" stroke:none;fill-rule:nonzero;fill:rgb(22.352941%,23.921569%,58.039216%);fill-opacity:1;" d="M 24.96875 7.8125 L 24.929688 7.867188 L 24.515625 8.382812 L 24.546875 8.398438 C 24.707031 8.464844 25.082031 8.519531 25.1875 8.414062 C 25.378906 8.222656 25.148438 7.992188 24.992188 7.835938 Z M 24.96875 7.8125 "/>
<path style=" stroke:none;fill-rule:nonzero;fill:rgb(1.960784%,9.803922%,13.333333%);fill-opacity:1;" d="M 23.367188 7.59375 L 23.386719 7.601562 L 23.84375 7.125 L 23.808594 7.109375 C 23.445312 6.941406 23.1875 6.917969 23.082031 7.054688 C 23.050781 7.089844 23.042969 7.148438 23.058594 7.210938 C 23.085938 7.351562 23.199219 7.496094 23.367188 7.59375 "/>
<path style=" stroke:none;fill-rule:nonzero;fill:rgb(22.352941%,23.921569%,58.039216%);fill-opacity:1;" d="M 23.367188 7.59375 L 23.386719 7.601562 L 23.84375 7.125 L 23.808594 7.109375 C 23.445312 6.941406 23.1875 6.917969 23.082031 7.054688 C 23.050781 7.089844 23.042969 7.148438 23.058594 7.210938 C 23.085938 7.351562 23.199219 7.496094 23.367188 7.59375 "/>
<path style=" stroke:none;fill-rule:nonzero;fill:rgb(1.960784%,9.803922%,13.333333%);fill-opacity:1;" d="M 22.300781 7.875 C 22.699219 8.054688 23.28125 8.238281 23.289062 8.238281 L 23.308594 8.246094 L 23.464844 8.050781 L 23.4375 8.035156 C 23.105469 7.867188 22.851562 7.609375 22.78125 7.386719 C 22.75 7.292969 22.757812 7.207031 22.796875 7.136719 L 22.75 7.109375 L 22.273438 7.863281 Z M 22.300781 7.875 "/>
<path style=" stroke:none;fill-rule:nonzero;fill:rgb(22.352941%,23.921569%,58.039216%);fill-opacity:1;" d="M 22.300781 7.875 C 22.699219 8.054688 23.28125 8.238281 23.289062 8.238281 L 23.308594 8.246094 L 23.464844 8.050781 L 23.4375 8.035156 C 23.105469 7.867188 22.851562 7.609375 22.78125 7.386719 C 22.75 7.292969 22.757812 7.207031 22.796875 7.136719 L 22.75 7.109375 L 22.273438 7.863281 Z M 22.300781 7.875 "/>
<path style=" stroke:none;fill-rule:nonzero;fill:rgb(1.960784%,9.803922%,13.333333%);fill-opacity:1;" d="M 23.839844 10.15625 L 23.90625 10.15625 C 23.90625 10.15625 26.199219 10.152344 26.246094 10.152344 C 26.246094 10.199219 26.25 10.425781 26.25 10.425781 C 26.253906 10.757812 26.253906 11.082031 26.253906 11.390625 C 26.253906 12.019531 26.25 12.605469 26.230469 13.164062 C 26.230469 13.164062 26.21875 13.550781 26.214844 13.691406 C 26.144531 13.640625 24.410156 12.363281 24.382812 12.347656 C 24.382812 12.320312 24.386719 12.203125 24.386719 12.203125 L 24.386719 11.640625 L 23.652344 11.640625 C 23.652344 11.640625 23.652344 11.695312 23.652344 11.707031 C 23.652344 12.058594 23.726562 12.3125 24.101562 12.746094 L 24.695312 13.417969 C 24.695312 13.417969 25.195312 13.992188 25.195312 13.992188 L 25.304688 14.113281 C 25.5625 14.386719 25.992188 14.839844 25.992188 15.867188 C 25.992188 16.164062 25.957031 16.511719 25.867188 16.914062 C 25.605469 18.140625 25.441406 18.667969 25.277344 19.078125 C 25.273438 19.085938 25.269531 19.09375 25.269531 19.09375 C 25.269531 19.09375 25.125 19.40625 25.082031 19.492188 C 25.035156 19.453125 24.804688 19.246094 24.804688 19.246094 C 24.570312 19.035156 24.324219 18.828125 24.070312 18.632812 L 24.054688 18.621094 L 23.613281 18.996094 L 23.636719 19.019531 C 24.199219 19.484375 24.726562 20.015625 25.210938 20.601562 L 25.238281 20.632812 L 25.257812 20.59375 C 25.839844 19.472656 26.261719 18.125 26.515625 16.59375 C 26.75 15.167969 26.847656 12.761719 26.789062 9.824219 L 26.785156 9.652344 L 24.347656 9.652344 Z M 23.839844 10.15625 "/>
<path style=" stroke:none;fill-rule:nonzero;fill:rgb(22.352941%,23.921569%,58.039216%);fill-opacity:1;" d="M 23.839844 10.15625 L 23.90625 10.15625 C 23.90625 10.15625 26.199219 10.152344 26.246094 10.152344 C 26.246094 10.199219 26.25 10.425781 26.25 10.425781 C 26.253906 10.757812 26.253906 11.082031 26.253906 11.390625 C 26.253906 12.019531 26.25 12.605469 26.230469 13.164062 C 26.230469 13.164062 26.21875 13.550781 26.214844 13.691406 C 26.144531 13.640625 24.410156 12.363281 24.382812 12.347656 C 24.382812 12.320312 24.386719 12.203125 24.386719 12.203125 L 24.386719 11.640625 L 23.652344 11.640625 C 23.652344 11.640625 23.652344 11.695312 23.652344 11.707031 C 23.652344 12.058594 23.726562 12.3125 24.101562 12.746094 L 24.695312 13.417969 C 24.695312 13.417969 25.195312 13.992188 25.195312 13.992188 L 25.304688 14.113281 C 25.5625 14.386719 25.992188 14.839844 25.992188 15.867188 C 25.992188 16.164062 25.957031 16.511719 25.867188 16.914062 C 25.605469 18.140625 25.441406 18.667969 25.277344 19.078125 C 25.273438 19.085938 25.269531 19.09375 25.269531 19.09375 C 25.269531 19.09375 25.125 19.40625 25.082031 19.492188 C 25.035156 19.453125 24.804688 19.246094 24.804688 19.246094 C 24.570312 19.035156 24.324219 18.828125 24.070312 18.632812 L 24.054688 18.621094 L 23.613281 18.996094 L 23.636719 19.019531 C 24.199219 19.484375 24.726562 20.015625 25.210938 20.601562 L 25.238281 20.632812 L 25.257812 20.59375 C 25.839844 19.472656 26.261719 18.125 26.515625 16.59375 C 26.75 15.167969 26.847656 12.761719 26.789062 9.824219 L 26.785156 9.652344 L 24.347656 9.652344 Z M 23.839844 10.15625 "/>
<path style=" stroke:none;fill-rule:nonzero;fill:rgb(65.490196%,66.27451%,67.45098%);fill-opacity:1;" d="M 24.089844 7.375 L 24.050781 7.421875 C 24.050781 7.421875 23.777344 7.742188 23.738281 7.78125 C 23.769531 7.800781 23.8125 7.828125 23.8125 7.828125 C 23.859375 7.863281 23.910156 7.902344 23.972656 7.921875 L 24.011719 7.9375 C 24.011719 7.9375 23.75 8.253906 23.703125 8.304688 C 23.761719 8.324219 23.9375 8.378906 23.964844 8.386719 C 24.027344 8.316406 24.523438 7.753906 24.523438 7.757812 C 24.933594 7.222656 25.730469 6.148438 26.332031 5.289062 C 25.816406 5.757812 25.230469 6.308594 24.785156 6.726562 Z M 24.089844 7.375 "/>
<path style=" stroke:none;fill-rule:nonzero;fill:rgb(65.490196%,66.27451%,67.45098%);fill-opacity:1;" d="M 14.125 9.792969 C 14.125 9.824219 14.128906 10.050781 14.128906 10.097656 C 14.183594 10.097656 20.804688 10.101562 20.863281 10.101562 C 20.863281 10.058594 20.863281 9.832031 20.863281 9.796875 C 20.050781 9.492188 18.929688 9.136719 17.492188 9.136719 C 16.058594 9.136719 14.941406 9.484375 14.125 9.792969 M 20.210938 9.898438 L 14.78125 9.894531 L 15.203125 9.589844 L 19.789062 9.59375 Z M 20.210938 9.898438 "/>
<path style=" stroke:none;fill-rule:nonzero;fill:rgb(1.960784%,9.803922%,13.333333%);fill-opacity:1;" d="M 14.78125 9.894531 L 20.210938 9.898438 L 19.789062 9.59375 L 15.203125 9.589844 Z M 14.78125 9.894531 "/>
<path style=" stroke:none;fill-rule:nonzero;fill:rgb(1.960784%,9.803922%,13.333333%);fill-opacity:1;" d="M 14.78125 9.894531 L 20.210938 9.898438 L 19.789062 9.59375 L 15.203125 9.589844 Z M 14.78125 9.894531 "/>
<path style=" stroke:none;fill-rule:nonzero;fill:rgb(100%,100%,100%);fill-opacity:1;" d="M 25.953125 13.15625 C 25.984375 12.113281 25.980469 11.128906 25.972656 10.429688 L 23.535156 10.433594 C 23.40625 10.492188 23.28125 10.503906 23.183594 10.503906 C 23.0625 10.503906 22.910156 10.476562 22.730469 10.433594 L 22.132812 10.433594 L 22.113281 10.855469 C 22.101562 11.53125 22.0625 12.628906 22.726562 13.367188 C 23.234375 13.929688 23.476562 14.183594 23.636719 14.347656 C 23.746094 14.460938 23.816406 14.535156 23.910156 14.644531 C 23.929688 14.667969 23.953125 14.691406 23.976562 14.71875 C 24.195312 14.953125 24.484375 15.261719 24.3125 16.367188 C 24.296875 16.46875 24.226562 16.722656 24.207031 16.839844 C 23.992188 16.683594 23.3125 16.296875 23.078125 16.175781 C 23.117188 15.925781 23.152344 15.683594 23.179688 15.4375 L 22.011719 14.515625 C 21.941406 15.320312 21.839844 16.128906 21.6875 16.882812 C 22.722656 17.332031 23.847656 18.019531 24.988281 19.039062 L 25.019531 18.976562 C 25.175781 18.585938 25.332031 18.089844 25.597656 16.855469 C 25.953125 15.203125 25.417969 14.636719 25.101562 14.300781 C 25.058594 14.253906 25.019531 14.210938 24.984375 14.167969 C 24.832031 13.988281 24.671875 13.808594 24.484375 13.601562 L 23.894531 12.929688 C 23.375 12.332031 23.359375 12.003906 23.378906 11.480469 L 23.382812 11.367188 L 24.65625 11.367188 C 24.664062 11.613281 24.664062 11.898438 24.664062 12.207031 Z M 25.953125 13.15625 "/>
<path style=" stroke:none;fill-rule:nonzero;fill:rgb(100%,100%,100%);fill-opacity:1;" d="M 12.105469 17.476562 C 12.5 17.246094 12.886719 17.046875 13.261719 16.882812 C 13.113281 16.128906 13.003906 15.320312 12.9375 14.519531 L 11.800781 13.875 L 12.847656 13.121094 C 12.808594 12.113281 12.808594 11.183594 12.816406 10.417969 L 12.296875 10.414062 C 12.101562 10.464844 11.9375 10.492188 11.804688 10.492188 C 11.757812 10.492188 11.699219 10.488281 11.640625 10.480469 C 11.625 11.105469 11.617188 11.921875 11.640625 12.847656 L 10.421875 13.734375 C 10.371094 12.484375 10.378906 11.238281 10.390625 10.417969 L 9.019531 10.414062 C 9 11.804688 8.996094 14.546875 9.265625 16.289062 C 9.425781 17.328125 9.660156 18.246094 9.953125 19.058594 C 10.316406 18.730469 10.675781 18.433594 11.035156 18.171875 C 10.878906 17.582031 10.742188 16.953125 10.636719 16.292969 C 10.550781 15.734375 10.492188 15.070312 10.457031 14.386719 L 11.773438 15.164062 C 11.847656 15.953125 11.953125 16.746094 12.105469 17.476562 "/>
<path style=" stroke:none;fill-rule:nonzero;fill:rgb(1.960784%,9.803922%,13.333333%);fill-opacity:1;" d="M 23.90625 18.507812 C 23.15625 17.945312 22.371094 17.480469 21.578125 17.136719 C 21.578125 17.136719 21.421875 17.066406 21.375 17.046875 C 21.382812 17.011719 21.417969 16.828125 21.417969 16.828125 C 21.554688 16.152344 21.660156 15.371094 21.734375 14.492188 C 21.734375 14.492188 21.765625 14.117188 21.777344 13.980469 C 21.847656 14.035156 23.445312 15.292969 23.472656 15.320312 C 23.46875 15.34375 23.457031 15.472656 23.457031 15.472656 L 23.382812 16.023438 L 23.398438 16.035156 L 24.027344 16.394531 L 24.035156 16.355469 L 24.039062 16.328125 C 24.191406 15.351562 23.96875 15.117188 23.773438 14.90625 L 23.699219 14.824219 L 23.4375 14.539062 L 22.519531 13.550781 C 21.804688 12.757812 21.820312 11.609375 21.835938 10.917969 L 21.835938 10.851562 C 21.835938 10.84375 21.855469 10.421875 21.855469 10.421875 L 21.867188 10.125 L 21.417969 9.957031 C 21.417969 9.957031 21.417969 10.511719 21.417969 10.566406 C 21.363281 10.566406 13.628906 10.558594 13.570312 10.558594 L 13.570312 9.953125 L 13.101562 10.128906 L 13.101562 10.148438 L 13.097656 10.421875 C 13.089844 10.722656 13.089844 11.015625 13.089844 11.300781 C 13.089844 11.933594 13.101562 12.527344 13.125 13.105469 C 13.125 13.105469 13.132812 13.230469 13.132812 13.257812 C 13.109375 13.269531 12.3125 13.847656 12.3125 13.847656 C 12.3125 13.847656 13.171875 14.335938 13.199219 14.351562 C 13.203125 14.375 13.210938 14.496094 13.210938 14.496094 C 13.285156 15.332031 13.394531 16.117188 13.535156 16.832031 C 13.535156 16.832031 13.566406 16.996094 13.578125 17.050781 C 13.542969 17.0625 13.375 17.136719 13.375 17.136719 C 13.011719 17.296875 12.644531 17.484375 12.246094 17.714844 C 12.246094 17.714844 12 17.859375 11.914062 17.910156 C 11.898438 17.847656 11.835938 17.535156 11.835938 17.535156 C 11.699219 16.890625 11.59375 16.15625 11.511719 15.347656 L 11.511719 15.332031 L 10.765625 14.894531 L 10.769531 14.945312 C 10.808594 15.449219 10.855469 15.886719 10.914062 16.25 C 11.007812 16.875 11.140625 17.5 11.300781 18.101562 C 11.300781 18.101562 11.34375 18.253906 11.351562 18.285156 C 11.324219 18.304688 11.199219 18.394531 11.199219 18.394531 L 11.054688 18.5 L 11.082031 18.550781 C 11.78125 18.386719 12.585938 18.058594 13.066406 17.832031 C 15.074219 16.726562 16.828125 16.609375 17.488281 16.609375 C 18.148438 16.609375 19.902344 16.730469 21.910156 17.835938 C 22.386719 18.066406 23.1875 18.390625 23.882812 18.558594 Z M 15.015625 16.585938 C 14.75 16.652344 14.496094 16.722656 14.253906 16.804688 C 14.253906 16.804688 14 16.886719 13.949219 16.90625 C 13.9375 16.851562 13.890625 16.589844 13.890625 16.589844 C 13.609375 14.957031 13.539062 13.148438 13.539062 11.753906 C 13.539062 11.539062 13.539062 11.332031 13.542969 11.136719 C 13.542969 11.136719 13.546875 10.9375 13.546875 10.863281 C 13.59375 10.863281 14.867188 10.867188 14.9375 10.867188 C 14.9375 10.914062 14.9375 11.144531 14.9375 11.144531 C 14.933594 11.394531 14.929688 11.636719 14.929688 11.878906 C 14.929688 13.527344 15.027344 15.003906 15.222656 16.277344 C 15.222656 16.277344 15.253906 16.484375 15.261719 16.523438 Z M 18.253906 16.042969 C 18.253906 16.042969 18.234375 16.265625 18.230469 16.308594 C 18.1875 16.308594 17.964844 16.296875 17.964844 16.296875 L 17.488281 16.289062 L 17.433594 16.289062 C 17.429688 16.289062 17.398438 16.285156 17.398438 16.285156 C 17.398438 16.285156 17.191406 16.285156 17.121094 16.285156 C 17.121094 16.242188 17.128906 13.511719 17.128906 13.511719 L 16.613281 13.175781 L 16.613281 13.226562 C 16.625 14.347656 16.65625 15.265625 16.710938 16.042969 C 16.710938 16.042969 16.726562 16.25 16.726562 16.316406 C 16.683594 16.316406 16.460938 16.339844 16.460938 16.339844 L 15.863281 16.414062 C 15.863281 16.414062 15.628906 16.449219 15.582031 16.457031 C 15.574219 16.410156 15.546875 16.171875 15.546875 16.171875 C 15.40625 14.96875 15.335938 13.59375 15.335938 12.070312 C 15.335938 11.765625 15.339844 11.453125 15.34375 11.136719 C 15.34375 11.136719 15.351562 10.929688 15.351562 10.867188 C 15.398438 10.867188 16.351562 10.867188 16.351562 10.867188 C 16.351562 10.867188 16.589844 10.867188 16.632812 10.867188 C 16.632812 10.914062 16.621094 11.398438 16.621094 11.398438 L 17.125 11.753906 C 17.125 11.753906 17.125 10.914062 17.125 10.867188 C 17.171875 10.867188 18.324219 10.867188 18.398438 10.867188 C 18.398438 10.914062 18.402344 11.144531 18.402344 11.144531 C 18.402344 11.394531 18.40625 11.675781 18.40625 11.976562 C 18.40625 13.128906 18.375 14.59375 18.253906 16.042969 M 21.035156 16.910156 C 20.984375 16.890625 20.734375 16.804688 20.734375 16.804688 C 20.125 16.601562 19.503906 16.460938 18.828125 16.375 C 18.828125 16.375 18.605469 16.347656 18.558594 16.339844 C 18.5625 16.296875 18.585938 16.070312 18.585938 16.070312 C 18.742188 14.613281 18.828125 12.953125 18.84375 11.144531 C 18.84375 11.144531 18.847656 10.914062 18.847656 10.867188 C 18.890625 10.867188 21.453125 10.871094 21.496094 10.871094 L 21.496094 11.203125 C 21.496094 11.625 21.488281 12.078125 21.46875 12.621094 C 21.46875 12.621094 21.457031 13 21.457031 13.074219 C 21.386719 13.039062 20.515625 12.550781 20.515625 12.550781 C 20.4375 12.507812 20.394531 12.484375 20.375 12.472656 C 20.375 12.445312 20.375 12.234375 20.375 12.234375 L 20.378906 12.097656 L 20.074219 12.097656 L 20.074219 12.125 C 20.042969 13.363281 19.984375 14.394531 19.894531 15.285156 L 19.890625 15.308594 L 20.140625 15.355469 L 20.144531 15.324219 L 20.246094 14.375 L 20.21875 14.371094 C 20.164062 14.363281 20.136719 14.359375 20.109375 14.359375 C 20.113281 14.316406 20.140625 13.953125 20.140625 13.953125 C 20.140625 13.953125 20.175781 13.445312 20.179688 13.371094 C 20.226562 13.375 20.429688 13.394531 20.429688 13.394531 C 20.433594 13.394531 21.175781 13.464844 21.175781 13.464844 C 21.175781 13.464844 21.378906 13.484375 21.441406 13.492188 C 21.4375 13.535156 21.421875 13.757812 21.421875 13.757812 C 21.355469 14.820312 21.242188 15.773438 21.09375 16.59375 C 21.09375 16.59375 21.042969 16.855469 21.035156 16.910156 "/>
<path style=" stroke:none;fill-rule:nonzero;fill:rgb(22.352941%,23.921569%,58.039216%);fill-opacity:1;" d="M 23.90625 18.507812 C 23.15625 17.945312 22.371094 17.480469 21.578125 17.136719 C 21.578125 17.136719 21.421875 17.066406 21.375 17.046875 C 21.382812 17.011719 21.417969 16.828125 21.417969 16.828125 C 21.554688 16.152344 21.660156 15.371094 21.734375 14.492188 C 21.734375 14.492188 21.765625 14.117188 21.777344 13.980469 C 21.847656 14.035156 23.445312 15.292969 23.472656 15.320312 C 23.46875 15.34375 23.457031 15.472656 23.457031 15.472656 L 23.382812 16.023438 L 23.398438 16.035156 L 24.027344 16.394531 L 24.035156 16.355469 L 24.039062 16.328125 C 24.191406 15.351562 23.96875 15.117188 23.773438 14.90625 L 23.699219 14.824219 L 23.4375 14.539062 L 22.519531 13.550781 C 21.804688 12.757812 21.820312 11.609375 21.835938 10.917969 L 21.835938 10.851562 C 21.835938 10.84375 21.855469 10.421875 21.855469 10.421875 L 21.867188 10.125 L 21.417969 9.957031 C 21.417969 9.957031 21.417969 10.511719 21.417969 10.566406 C 21.363281 10.566406 13.628906 10.558594 13.570312 10.558594 L 13.570312 9.953125 L 13.101562 10.128906 L 13.101562 10.148438 L 13.097656 10.421875 C 13.089844 10.722656 13.089844 11.015625 13.089844 11.300781 C 13.089844 11.933594 13.101562 12.527344 13.125 13.105469 C 13.125 13.105469 13.132812 13.230469 13.132812 13.257812 C 13.109375 13.269531 12.3125 13.847656 12.3125 13.847656 C 12.3125 13.847656 13.171875 14.335938 13.199219 14.351562 C 13.203125 14.375 13.210938 14.496094 13.210938 14.496094 C 13.285156 15.332031 13.394531 16.117188 13.535156 16.832031 C 13.535156 16.832031 13.566406 16.996094 13.578125 17.050781 C 13.542969 17.0625 13.375 17.136719 13.375 17.136719 C 13.011719 17.296875 12.644531 17.484375 12.246094 17.714844 C 12.246094 17.714844 12 17.859375 11.914062 17.910156 C 11.898438 17.847656 11.835938 17.535156 11.835938 17.535156 C 11.699219 16.890625 11.59375 16.15625 11.511719 15.347656 L 11.511719 15.332031 L 10.765625 14.894531 L 10.769531 14.945312 C 10.808594 15.449219 10.855469 15.886719 10.914062 16.25 C 11.007812 16.875 11.140625 17.5 11.300781 18.101562 C 11.300781 18.101562 11.34375 18.253906 11.351562 18.285156 C 11.324219 18.304688 11.199219 18.394531 11.199219 18.394531 L 11.054688 18.5 L 11.082031 18.550781 C 11.78125 18.386719 12.585938 18.058594 13.066406 17.832031 C 15.074219 16.726562 16.828125 16.609375 17.488281 16.609375 C 18.148438 16.609375 19.902344 16.730469 21.910156 17.835938 C 22.386719 18.066406 23.1875 18.390625 23.882812 18.558594 Z M 15.015625 16.585938 C 14.75 16.652344 14.496094 16.722656 14.253906 16.804688 C 14.253906 16.804688 14 16.886719 13.949219 16.90625 C 13.9375 16.851562 13.890625 16.589844 13.890625 16.589844 C 13.609375 14.957031 13.539062 13.148438 13.539062 11.753906 C 13.539062 11.539062 13.539062 11.332031 13.542969 11.136719 C 13.542969 11.136719 13.546875 10.9375 13.546875 10.863281 C 13.59375 10.863281 14.867188 10.867188 14.9375 10.867188 C 14.9375 10.914062 14.9375 11.144531 14.9375 11.144531 C 14.933594 11.394531 14.929688 11.636719 14.929688 11.878906 C 14.929688 13.527344 15.027344 15.003906 15.222656 16.277344 C 15.222656 16.277344 15.253906 16.484375 15.261719 16.523438 Z M 18.253906 16.042969 C 18.253906 16.042969 18.234375 16.265625 18.230469 16.308594 C 18.1875 16.308594 17.964844 16.296875 17.964844 16.296875 L 17.488281 16.289062 L 17.433594 16.289062 C 17.429688 16.289062 17.398438 16.285156 17.398438 16.285156 C 17.398438 16.285156 17.191406 16.285156 17.121094 16.285156 C 17.121094 16.242188 17.128906 13.511719 17.128906 13.511719 L 16.613281 13.175781 L 16.613281 13.226562 C 16.625 14.347656 16.65625 15.265625 16.710938 16.042969 C 16.710938 16.042969 16.726562 16.25 16.726562 16.316406 C 16.683594 16.316406 16.460938 16.339844 16.460938 16.339844 L 15.863281 16.414062 C 15.863281 16.414062 15.628906 16.449219 15.582031 16.457031 C 15.574219 16.410156 15.546875 16.171875 15.546875 16.171875 C 15.40625 14.96875 15.335938 13.59375 15.335938 12.070312 C 15.335938 11.765625 15.339844 11.453125 15.34375 11.136719 C 15.34375 11.136719 15.351562 10.929688 15.351562 10.867188 C 15.398438 10.867188 16.351562 10.867188 16.351562 10.867188 C 16.351562 10.867188 16.589844 10.867188 16.632812 10.867188 C 16.632812 10.914062 16.621094 11.398438 16.621094 11.398438 L 17.125 11.753906 C 17.125 11.753906 17.125 10.914062 17.125 10.867188 C 17.171875 10.867188 18.324219 10.867188 18.398438 10.867188 C 18.398438 10.914062 18.402344 11.144531 18.402344 11.144531 C 18.402344 11.394531 18.40625 11.675781 18.40625 11.976562 C 18.40625 13.128906 18.375 14.59375 18.253906 16.042969 M 21.035156 16.910156 C 20.984375 16.890625 20.734375 16.804688 20.734375 16.804688 C 20.125 16.601562 19.503906 16.460938 18.828125 16.375 C 18.828125 16.375 18.605469 16.347656 18.558594 16.339844 C 18.5625 16.296875 18.585938 16.070312 18.585938 16.070312 C 18.742188 14.613281 18.828125 12.953125 18.84375 11.144531 C 18.84375 11.144531 18.847656 10.914062 18.847656 10.867188 C 18.890625 10.867188 21.453125 10.871094 21.496094 10.871094 L 21.496094 11.203125 C 21.496094 11.625 21.488281 12.078125 21.46875 12.621094 C 21.46875 12.621094 21.457031 13 21.457031 13.074219 C 21.386719 13.039062 20.515625 12.550781 20.515625 12.550781 C 20.4375 12.507812 20.394531 12.484375 20.375 12.472656 C 20.375 12.445312 20.375 12.234375 20.375 12.234375 L 20.378906 12.097656 L 20.074219 12.097656 L 20.074219 12.125 C 20.042969 13.363281 19.984375 14.394531 19.894531 15.285156 L 19.890625 15.308594 L 20.140625 15.355469 L 20.144531 15.324219 L 20.246094 14.375 L 20.21875 14.371094 C 20.164062 14.363281 20.136719 14.359375 20.109375 14.359375 C 20.113281 14.316406 20.140625 13.953125 20.140625 13.953125 C 20.140625 13.953125 20.175781 13.445312 20.179688 13.371094 C 20.226562 13.375 20.429688 13.394531 20.429688 13.394531 C 20.433594 13.394531 21.175781 13.464844 21.175781 13.464844 C 21.175781 13.464844 21.378906 13.484375 21.441406 13.492188 C 21.4375 13.535156 21.421875 13.757812 21.421875 13.757812 C 21.355469 14.820312 21.242188 15.773438 21.09375 16.59375 C 21.09375 16.59375 21.042969 16.855469 21.035156 16.910156 "/>
<path style=" stroke:none;fill-rule:nonzero;fill:rgb(1.960784%,9.803922%,13.333333%);fill-opacity:1;" d="M 18.398438 10.867188 C 18.324219 10.867188 17.171875 10.867188 17.125 10.867188 C 17.125 10.914062 17.125 11.753906 17.125 11.753906 L 16.621094 11.398438 C 16.621094 11.398438 16.632812 10.914062 16.632812 10.867188 C 16.589844 10.867188 16.351562 10.867188 16.351562 10.867188 C 16.351562 10.867188 15.398438 10.863281 15.351562 10.863281 C 15.351562 10.929688 15.34375 11.136719 15.34375 11.136719 C 15.339844 11.453125 15.335938 11.765625 15.335938 12.070312 C 15.335938 13.589844 15.40625 14.96875 15.546875 16.171875 C 15.546875 16.171875 15.574219 16.410156 15.582031 16.457031 C 15.628906 16.449219 15.867188 16.414062 15.867188 16.414062 L 16.460938 16.339844 C 16.460938 16.339844 16.683594 16.316406 16.726562 16.316406 C 16.726562 16.25 16.710938 16.042969 16.710938 16.042969 C 16.65625 15.265625 16.625 14.347656 16.613281 13.226562 L 16.613281 13.175781 L 17.128906 13.515625 C 17.128906 13.515625 17.121094 16.242188 17.121094 16.285156 C 17.191406 16.285156 17.398438 16.285156 17.398438 16.285156 C 17.398438 16.285156 17.429688 16.289062 17.433594 16.289062 L 17.488281 16.289062 L 17.964844 16.296875 C 17.964844 16.296875 18.1875 16.308594 18.230469 16.308594 C 18.234375 16.265625 18.253906 16.042969 18.253906 16.042969 C 18.375 14.59375 18.40625 13.128906 18.40625 11.976562 C 18.40625 11.675781 18.402344 11.394531 18.402344 11.140625 C 18.402344 11.140625 18.398438 10.914062 18.398438 10.867188 M 17.976562 16.019531 C 17.800781 16.011719 17.636719 16.011719 17.488281 16.011719 C 17.457031 16.011719 17.425781 16.007812 17.398438 16.007812 C 17.402344 15.140625 17.40625 14.191406 17.40625 13.363281 L 16.332031 12.660156 C 16.335938 13.699219 16.355469 14.921875 16.433594 16.0625 C 16.242188 16.082031 16.035156 16.109375 15.824219 16.140625 C 15.605469 14.261719 15.601562 12.300781 15.621094 11.144531 L 16.351562 11.144531 C 16.34375 11.277344 16.34375 11.40625 16.339844 11.542969 L 17.40625 12.289062 C 17.402344 11.898438 17.402344 11.515625 17.402344 11.144531 L 18.125 11.144531 C 18.140625 12.296875 18.132812 14.144531 17.976562 16.019531 "/>
<path style=" stroke:none;fill-rule:nonzero;fill:rgb(1.960784%,9.803922%,13.333333%);fill-opacity:1;" d="M 14.929688 11.878906 C 14.929688 11.636719 14.933594 11.394531 14.9375 11.144531 C 14.9375 11.144531 14.9375 10.914062 14.9375 10.863281 C 14.867188 10.863281 13.59375 10.863281 13.546875 10.863281 C 13.546875 10.9375 13.542969 11.136719 13.542969 11.136719 C 13.539062 11.332031 13.539062 11.539062 13.539062 11.753906 C 13.539062 13.148438 13.609375 14.957031 13.890625 16.589844 C 13.890625 16.589844 13.9375 16.851562 13.949219 16.90625 C 14 16.890625 14.253906 16.804688 14.253906 16.804688 C 14.496094 16.726562 14.75 16.652344 15.015625 16.585938 L 15.261719 16.523438 C 15.253906 16.484375 15.222656 16.277344 15.222656 16.277344 C 15.027344 15.003906 14.929688 13.527344 14.929688 11.878906 M 14.164062 16.542969 C 13.832031 14.617188 13.800781 12.488281 13.820312 11.140625 L 14.660156 11.140625 C 14.636719 12.410156 14.65625 14.40625 14.949219 16.316406 C 14.695312 16.378906 14.433594 16.453125 14.164062 16.542969 "/>
<path style=" stroke:none;fill-rule:nonzero;fill:rgb(1.960784%,9.803922%,13.333333%);fill-opacity:1;" d="M 21.441406 13.492188 C 21.378906 13.484375 21.179688 13.460938 21.179688 13.460938 C 21.179688 13.460938 20.433594 13.394531 20.429688 13.394531 C 20.429688 13.394531 20.226562 13.375 20.179688 13.367188 C 20.175781 13.445312 20.140625 13.953125 20.140625 13.953125 C 20.140625 13.953125 20.117188 14.3125 20.113281 14.359375 C 20.136719 14.359375 20.167969 14.363281 20.21875 14.371094 L 20.246094 14.371094 L 20.144531 15.324219 L 20.140625 15.355469 L 19.894531 15.308594 L 19.894531 15.28125 C 19.984375 14.394531 20.042969 13.363281 20.074219 12.125 L 20.074219 12.097656 L 20.378906 12.097656 L 20.378906 12.234375 C 20.378906 12.234375 20.375 12.445312 20.375 12.472656 C 20.398438 12.484375 20.4375 12.507812 20.515625 12.550781 C 20.515625 12.550781 21.390625 13.039062 21.457031 13.074219 C 21.457031 13 21.46875 12.621094 21.46875 12.621094 C 21.488281 12.078125 21.5 11.625 21.5 11.203125 L 21.5 10.871094 C 21.453125 10.871094 18.890625 10.867188 18.847656 10.867188 C 18.847656 10.914062 18.84375 11.140625 18.84375 11.140625 C 18.828125 12.953125 18.742188 14.609375 18.589844 16.070312 C 18.589844 16.070312 18.5625 16.296875 18.558594 16.339844 C 18.605469 16.34375 18.828125 16.375 18.828125 16.375 C 19.503906 16.460938 20.125 16.601562 20.734375 16.804688 C 20.734375 16.804688 20.984375 16.890625 21.035156 16.910156 C 21.042969 16.855469 21.09375 16.59375 21.09375 16.59375 C 21.242188 15.773438 21.355469 14.816406 21.425781 13.753906 C 21.425781 13.757812 21.4375 13.535156 21.441406 13.492188 M 20.820312 16.542969 C 20.109375 16.304688 19.445312 16.175781 18.863281 16.101562 C 19.066406 14.199219 19.109375 12.316406 19.117188 11.144531 L 21.21875 11.148438 C 21.222656 11.582031 21.214844 12.046875 21.191406 12.613281 L 20.652344 12.308594 C 20.65625 12.152344 20.660156 11.964844 20.660156 11.820312 L 19.800781 11.820312 C 19.785156 12.679688 19.742188 14.15625 19.589844 15.542969 C 19.839844 15.578125 20.105469 15.628906 20.378906 15.691406 C 20.453125 15.121094 20.507812 14.597656 20.546875 14.132812 L 20.382812 14.113281 C 20.390625 13.964844 20.402344 13.8125 20.410156 13.667969 C 20.648438 13.6875 20.894531 13.710938 21.148438 13.738281 C 21.089844 14.644531 20.992188 15.621094 20.820312 16.542969 "/>
<path style=" stroke:none;fill-rule:nonzero;fill:rgb(100%,100%,100%);fill-opacity:1;" d="M 14.660156 11.140625 L 13.820312 11.140625 C 13.800781 12.488281 13.832031 14.617188 14.164062 16.542969 C 14.433594 16.453125 14.695312 16.378906 14.949219 16.316406 C 14.65625 14.40625 14.636719 12.410156 14.660156 11.140625 "/>
<path style=" stroke:none;fill-rule:nonzero;fill:rgb(100%,100%,100%);fill-opacity:1;" d="M 17.402344 11.144531 C 17.402344 11.515625 17.402344 11.898438 17.40625 12.289062 L 16.339844 11.542969 C 16.34375 11.410156 16.34375 11.277344 16.351562 11.144531 L 15.625 11.144531 C 15.601562 12.300781 15.605469 14.261719 15.824219 16.140625 C 16.035156 16.109375 16.242188 16.082031 16.433594 16.0625 C 16.355469 14.921875 16.335938 13.699219 16.332031 12.660156 L 17.40625 13.363281 C 17.40625 14.191406 17.402344 15.140625 17.398438 16.007812 C 17.425781 16.007812 17.457031 16.011719 17.488281 16.011719 C 17.636719 16.011719 17.800781 16.011719 17.976562 16.019531 C 18.132812 14.144531 18.140625 12.296875 18.125 11.144531 Z M 17.402344 11.144531 "/>
<path style=" stroke:none;fill-rule:nonzero;fill:rgb(100%,100%,100%);fill-opacity:1;" d="M 20.382812 14.113281 L 20.546875 14.132812 C 20.507812 14.597656 20.453125 15.121094 20.378906 15.691406 C 20.105469 15.628906 19.839844 15.578125 19.589844 15.542969 C 19.742188 14.15625 19.785156 12.679688 19.800781 11.820312 L 20.660156 11.820312 C 20.660156 11.964844 20.65625 12.152344 20.652344 12.308594 L 21.191406 12.613281 C 21.214844 12.046875 21.222656 11.582031 21.21875 11.148438 L 19.117188 11.144531 C 19.109375 12.316406 19.066406 14.199219 18.863281 16.101562 C 19.445312 16.175781 20.109375 16.304688 20.820312 16.542969 C 20.992188 15.621094 21.089844 14.644531 21.148438 13.738281 C 20.894531 13.710938 20.648438 13.6875 20.410156 13.667969 C 20.402344 13.8125 20.390625 13.964844 20.382812 14.113281 "/>
<path style=" stroke:none;fill-rule:nonzero;fill:rgb(22.352941%,23.921569%,58.039216%);fill-opacity:1;" d="M 11.019531 22.722656 L 10.992188 22.226562 L 10.988281 22.1875 L 10.300781 22.96875 L 10.304688 23.007812 L 10.347656 23.824219 L 10.351562 23.863281 L 11.039062 23.085938 L 11.039062 23.046875 Z M 11.019531 22.722656 "/>
<path style=" stroke:none;fill-rule:nonzero;fill:rgb(22.352941%,23.921569%,58.039216%);fill-opacity:1;" d="M 9.984375 23.730469 L 9.964844 23.398438 L 9.960938 23.359375 L 9.398438 23.996094 C 9.347656 24.054688 9.316406 24.136719 9.324219 24.21875 C 9.328125 24.304688 9.363281 24.382812 9.425781 24.4375 C 9.554688 24.550781 9.753906 24.539062 9.867188 24.410156 L 10.015625 24.246094 L 10.011719 24.203125 Z M 9.984375 23.730469 "/>
<path style=" stroke:none;fill-rule:nonzero;fill:rgb(22.352941%,23.921569%,58.039216%);fill-opacity:1;" d="M 12.023438 21.054688 L 12.019531 21.015625 L 11.332031 21.796875 L 11.335938 21.835938 L 11.378906 22.65625 L 11.382812 22.695312 L 12.070312 21.921875 L 12.066406 21.882812 Z M 12.023438 21.054688 "/>
<path style=" stroke:none;fill-rule:nonzero;fill:rgb(22.352941%,23.921569%,58.039216%);fill-opacity:1;" d="M 12.492188 20.484375 L 12.480469 20.488281 L 12.363281 20.621094 L 12.367188 20.660156 L 12.386719 20.996094 L 12.417969 21.488281 L 12.417969 21.527344 L 12.941406 20.933594 L 12.941406 20.925781 C 12.949219 20.898438 12.949219 20.871094 12.949219 20.84375 C 12.949219 20.730469 12.90625 20.628906 12.828125 20.558594 C 12.742188 20.484375 12.621094 20.457031 12.492188 20.484375 "/>
<path style=" stroke:none;fill-rule:nonzero;fill:rgb(65.490196%,66.27451%,67.45098%);fill-opacity:1;" d="M 16.132812 17.082031 C 15.738281 17.148438 15.335938 17.238281 14.945312 17.359375 C 14.375 17.746094 13.875 17.992188 13.78125 18.035156 C 13.34375 18.246094 12.53125 18.632812 11.746094 18.792969 C 11.824219 18.863281 14.605469 21.332031 14.683594 21.402344 C 14.714844 21.007812 14.804688 20.558594 14.957031 20.03125 C 14.894531 19.800781 14.859375 19.5625 14.859375 19.328125 L 14.859375 19.324219 C 14.863281 18.398438 15.347656 17.558594 16.132812 17.082031 "/>
<path style=" stroke:none;fill-rule:nonzero;fill:rgb(65.490196%,66.27451%,67.45098%);fill-opacity:1;" d="M 19.992188 17.367188 C 19.617188 17.25 19.238281 17.164062 18.863281 17.097656 C 19.632812 17.574219 20.113281 18.410156 20.113281 19.324219 L 20.113281 19.328125 C 20.113281 19.597656 20.070312 19.859375 19.992188 20.113281 C 20.128906 20.601562 20.210938 21.03125 20.238281 21.40625 C 20.320312 21.339844 23.105469 18.871094 23.183594 18.800781 C 22.394531 18.644531 21.585938 18.253906 21.148438 18.042969 C 21.054688 17.996094 20.550781 17.75 19.992188 17.367188 "/>
<path style=" stroke:none;fill-rule:nonzero;fill:rgb(22.352941%,23.921569%,58.039216%);fill-opacity:1;" d="M 22.484375 20.496094 C 22.351562 20.464844 22.230469 20.492188 22.140625 20.566406 C 22.042969 20.652344 22.003906 20.785156 22.027344 20.933594 L 22.03125 20.941406 L 22.550781 21.535156 L 22.554688 21.496094 L 22.5625 21.332031 L 22.605469 20.667969 L 22.605469 20.628906 C 22.535156 20.546875 22.488281 20.496094 22.488281 20.496094 Z M 22.484375 20.496094 "/>
<path style=" stroke:none;fill-rule:nonzero;fill:rgb(22.352941%,23.921569%,58.039216%);fill-opacity:1;" d="M 24.953125 24.21875 L 24.949219 24.257812 L 25.09375 24.421875 C 25.210938 24.554688 25.40625 24.5625 25.539062 24.449219 C 25.601562 24.398438 25.636719 24.320312 25.640625 24.234375 C 25.644531 24.230469 25.644531 24.21875 25.644531 24.214844 C 25.644531 24.140625 25.617188 24.066406 25.566406 24.007812 C 25.566406 24.007812 25.335938 23.746094 25.003906 23.371094 L 25.003906 23.410156 Z M 24.953125 24.21875 "/>
<path style=" stroke:none;fill-rule:nonzero;fill:rgb(22.352941%,23.921569%,58.039216%);fill-opacity:1;" d="M 22.902344 21.890625 L 22.898438 21.929688 L 23.585938 22.707031 L 23.585938 22.667969 L 23.632812 21.847656 L 23.636719 21.804688 C 23.382812 21.515625 23.144531 21.242188 22.949219 21.023438 L 22.949219 21.0625 Z M 22.902344 21.890625 "/>
<path style=" stroke:none;fill-rule:nonzero;fill:rgb(22.352941%,23.921569%,58.039216%);fill-opacity:1;" d="M 23.945312 22.765625 L 23.929688 23.058594 L 23.929688 23.097656 L 24.613281 23.878906 L 24.617188 23.839844 L 24.652344 23.195312 L 24.664062 23.019531 L 24.664062 22.980469 C 24.449219 22.734375 24.214844 22.464844 23.980469 22.199219 L 23.976562 22.238281 Z M 23.945312 22.765625 "/>
</g>
</svg>
