<?xml version="1.0" encoding="UTF-8"?>
<svg xmlns="http://www.w3.org/2000/svg" xmlns:xlink="http://www.w3.org/1999/xlink" width="35pt" height="25pt" viewBox="0 0 35 25" version="1.1">
<defs>
<clipPath id="clip1">
  <path d="M 12 7 L 21 7 L 21 17 L 12 17 Z M 12 7 "/>
</clipPath>
<clipPath id="clip2">
  <path d="M 19.046875 7.859375 L 18.480469 8.863281 L 18.382812 9.667969 L 17.367188 11.472656 L 16.042969 11.472656 L 17.03125 9.722656 L 17.03125 7.859375 L 16.003906 7.859375 L 15.460938 8.855469 L 15.371094 9.667969 L 13.925781 12.242188 L 14.167969 12.847656 L 15.066406 12.847656 L 14.65625 13.882812 L 13.890625 13.054688 L 13.980469 14.269531 L 12.652344 14.328125 L 13.710938 15.070312 L 12.957031 16.1875 L 14.171875 15.792969 L 14.671875 16.996094 L 15.054688 15.6875 L 16.40625 16.03125 L 15.53125 15.023438 L 16.605469 14.136719 L 15.496094 14.203125 L 16.699219 12.847656 L 18.277344 12.847656 L 20.027344 9.746094 L 20.027344 7.859375 Z M 19.046875 7.859375 "/>
</clipPath>
<clipPath id="clip3">
  <path d="M 20 7 L 26 7 L 26 14 L 20 14 Z M 20 7 "/>
</clipPath>
<clipPath id="clip4">
  <path d="M 23.875 10.25 L 21.890625 9.914062 L 22.019531 9.128906 L 24.003906 9.464844 C 24.089844 9.480469 24.148438 9.5625 24.132812 9.652344 L 24.0625 10.117188 C 24.046875 10.195312 23.980469 10.25 23.902344 10.25 C 23.894531 10.25 23.882812 10.25 23.875 10.25 M 20.300781 12.515625 L 21.410156 12.703125 L 21.722656 10.894531 L 23.15625 11.136719 L 23.707031 11.230469 C 23.796875 11.246094 23.855469 11.328125 23.839844 11.417969 L 23.605469 12.777344 C 23.554688 13.066406 23.722656 13.085938 23.792969 13.097656 C 23.875 13.113281 24.746094 13.269531 24.746094 13.269531 C 24.722656 13.242188 24.667969 13.140625 24.710938 12.945312 L 24.984375 11.34375 C 25.011719 11.1875 24.933594 11.050781 24.800781 10.988281 C 24.988281 10.96875 25.074219 10.820312 25.101562 10.667969 L 25.125 10.53125 L 25.363281 9.09375 C 25.398438 8.875 25.253906 8.667969 25.03125 8.628906 L 21.074219 7.960938 Z M 20.300781 12.515625 "/>
</clipPath>
<clipPath id="clip5">
  <path d="M 9 8 L 15 8 L 15 14 L 9 14 Z M 9 8 "/>
</clipPath>
<clipPath id="clip6">
  <path d="M 10.75 9.542969 L 12.726562 9.167969 C 12.816406 9.148438 12.898438 9.207031 12.917969 9.296875 L 13.007812 9.757812 C 13.023438 9.84375 12.96875 9.929688 12.878906 9.945312 L 10.898438 10.320312 Z M 13.402344 8.023438 L 9.457031 8.773438 L 10.320312 13.3125 L 11.425781 13.105469 L 11.082031 11.300781 L 13.925781 10.761719 C 14.148438 10.71875 14.289062 10.507812 14.25 10.289062 L 13.875 8.34375 C 13.835938 8.152344 13.667969 8.015625 13.476562 8.015625 C 13.453125 8.015625 13.429688 8.019531 13.402344 8.023438 "/>
</clipPath>
<clipPath id="clip7">
  <path d="M 25 9 L 31 9 L 31 15 L 25 15 Z M 25 9 "/>
</clipPath>
<clipPath id="clip8">
  <path d="M 26.757812 9.484375 L 26.191406 11.226562 L 26.140625 11.378906 C 26.074219 11.59375 26.1875 11.820312 26.398438 11.886719 L 27.664062 12.296875 L 28.871094 12.691406 C 28.957031 12.71875 28.996094 12.824219 28.96875 12.910156 L 28.824219 13.367188 C 28.796875 13.449219 28.703125 13.496094 28.621094 13.46875 L 26.984375 12.9375 C 26.898438 12.910156 26.855469 12.820312 26.882812 12.734375 L 26.976562 12.445312 L 25.90625 12.097656 L 25.578125 13.113281 C 25.507812 13.324219 25.625 13.550781 25.835938 13.621094 L 29.144531 14.695312 C 29.355469 14.765625 29.582031 14.648438 29.652344 14.4375 L 30.214844 12.703125 L 30.277344 12.511719 C 30.34375 12.300781 30.230469 12.074219 30.019531 12.007812 L 27.929688 11.328125 L 27.546875 11.203125 C 27.464844 11.175781 27.417969 11.082031 27.445312 11 L 27.589844 10.550781 C 27.621094 10.464844 27.710938 10.417969 27.792969 10.445312 L 29.429688 10.976562 C 29.511719 11.003906 29.558594 11.097656 29.53125 11.179688 L 29.441406 11.4375 L 30.515625 11.785156 L 30.832031 10.808594 C 30.898438 10.597656 30.785156 10.371094 30.574219 10.300781 L 27.265625 9.226562 C 27.222656 9.210938 27.179688 9.207031 27.136719 9.207031 C 26.96875 9.207031 26.8125 9.3125 26.757812 9.484375 "/>
</clipPath>
<clipPath id="clip9">
  <path d="M 4 9 L 10 9 L 10 15 L 4 15 Z M 4 9 "/>
</clipPath>
<clipPath id="clip10">
  <path d="M 7.71875 9.246094 L 4.410156 10.320312 C 4.199219 10.390625 4.082031 10.617188 4.152344 10.828125 L 4.71875 12.570312 L 4.769531 12.722656 C 4.835938 12.933594 5.0625 13.050781 5.273438 12.980469 L 6.539062 12.574219 L 7.746094 12.179688 C 7.832031 12.152344 7.925781 12.214844 7.957031 12.296875 L 8.105469 12.753906 C 8.132812 12.835938 8.085938 12.925781 8 12.957031 L 6.367188 13.488281 C 6.28125 13.515625 6.191406 13.46875 6.164062 13.382812 L 6.070312 13.09375 L 5 13.441406 L 5.332031 14.457031 C 5.398438 14.667969 5.628906 14.785156 5.839844 14.714844 L 9.148438 13.640625 C 9.359375 13.570312 9.472656 13.34375 9.40625 13.132812 L 8.839844 11.398438 L 8.777344 11.207031 C 8.710938 10.996094 8.484375 10.882812 8.273438 10.949219 L 6.183594 11.628906 L 5.800781 11.753906 C 5.714844 11.78125 5.625 11.734375 5.597656 11.648438 L 5.453125 11.199219 C 5.425781 11.113281 5.472656 11.023438 5.554688 10.996094 L 7.191406 10.464844 C 7.273438 10.4375 7.367188 10.484375 7.394531 10.570312 L 7.476562 10.824219 L 8.542969 10.480469 L 8.226562 9.503906 C 8.171875 9.332031 8.011719 9.226562 7.84375 9.226562 C 7.800781 9.226562 7.757812 9.230469 7.71875 9.246094 "/>
</clipPath>
</defs>
<g id="surface1">
<path style=" stroke:none;fill-rule:nonzero;fill:rgb(76.862745%,80.784314%,83.137255%);fill-opacity:1;" d="M 33.859375 9.265625 C 33.972656 8.875 34.148438 8.273438 34.148438 8.273438 L 32.835938 7.738281 C 32.78125 7.71875 32.722656 7.695312 32.667969 7.671875 L 32.894531 7.007812 L 31.652344 6.605469 C 31.75 6.277344 31.804688 6.082031 31.808594 6.074219 L 31.953125 5.578125 L 31.464844 5.410156 C 26.824219 3.835938 22.519531 3.136719 17.5 3.136719 C 12.476562 3.136719 8.171875 3.835938 3.535156 5.410156 L 3.046875 5.578125 L 3.191406 6.074219 C 3.195312 6.082031 3.25 6.277344 3.347656 6.605469 L 2.105469 7.007812 L 2.332031 7.671875 C 2.277344 7.695312 2.21875 7.714844 2.160156 7.738281 L 0.851562 8.269531 C 0.851562 8.269531 1.027344 8.875 1.140625 9.265625 C 0.773438 9.398438 0 9.675781 0 9.675781 L 2.8125 18.257812 C 2.8125 18.257812 3.5625 17.988281 3.980469 17.835938 C 4.148438 18.28125 4.355469 18.824219 4.355469 18.824219 L 5.839844 18.210938 C 5.890625 18.191406 5.9375 18.171875 5.984375 18.152344 L 6.136719 18.636719 L 6.683594 18.398438 C 7.128906 18.207031 8.492188 17.648438 10.355469 17.160156 C 9.695312 18.144531 8.992188 19.191406 8.992188 19.191406 C 8.992188 19.191406 12.867188 17.921875 13.25 17.796875 C 13.390625 18.128906 14.941406 21.863281 14.941406 21.863281 C 14.941406 21.863281 16.066406 18.003906 16.167969 17.644531 C 16.480469 17.726562 21.023438 18.894531 21.023438 18.894531 C 21.023438 18.894531 19.738281 17.40625 18.789062 16.3125 C 23.171875 16.347656 27.132812 17.886719 28.316406 18.398438 L 28.863281 18.632812 L 29.015625 18.152344 C 29.0625 18.171875 29.109375 18.191406 29.15625 18.210938 L 30.644531 18.824219 C 30.644531 18.824219 30.851562 18.28125 31.019531 17.835938 C 31.433594 17.988281 32.183594 18.253906 32.183594 18.253906 L 35 9.675781 C 35 9.675781 34.226562 9.398438 33.859375 9.265625 "/>
<path style=" stroke:none;fill-rule:nonzero;fill:rgb(3.921569%,10.588235%,13.72549%);fill-opacity:1;" d="M 33.160156 9.621094 C 33.171875 9.585938 33.457031 8.605469 33.457031 8.605469 L 32.621094 8.269531 C 32.410156 8.183594 32.195312 8.097656 31.976562 8.015625 L 32.203125 7.351562 L 30.980469 6.960938 C 31.175781 6.320312 31.289062 5.921875 31.289062 5.921875 C 27.015625 4.472656 22.796875 3.675781 17.5 3.675781 C 12.199219 3.675781 7.980469 4.472656 3.710938 5.921875 C 3.710938 5.921875 3.824219 6.320312 4.015625 6.960938 L 2.792969 7.351562 L 3.019531 8.015625 C 2.804688 8.097656 2.589844 8.183594 2.375 8.269531 L 1.542969 8.605469 C 1.542969 8.605469 1.828125 9.585938 1.839844 9.621094 C 1.773438 9.648438 0.714844 10.027344 0.714844 10.027344 L 3.171875 17.519531 C 3.171875 17.519531 4.265625 17.128906 4.3125 17.109375 C 4.3125 17.109375 4.679688 18.074219 4.679688 18.074219 L 5.625 17.683594 C 5.855469 17.585938 6.082031 17.496094 6.3125 17.40625 C 6.394531 17.671875 6.453125 17.84375 6.46875 17.898438 C 7.007812 17.671875 8.921875 16.886719 11.464844 16.335938 C 10.882812 17.203125 10.121094 18.335938 10.121094 18.335938 C 10.121094 18.335938 13.460938 17.242188 13.511719 17.226562 C 13.539062 17.289062 14.863281 20.480469 14.863281 20.480469 C 14.863281 20.480469 15.832031 17.15625 15.851562 17.089844 C 15.9375 17.109375 19.710938 18.082031 19.710938 18.082031 C 19.710938 18.082031 18.472656 16.648438 17.730469 15.789062 C 22.867188 15.539062 27.621094 17.511719 28.527344 17.898438 C 28.546875 17.84375 28.601562 17.671875 28.6875 17.40625 C 28.917969 17.496094 29.144531 17.585938 29.375 17.683594 L 30.320312 18.074219 L 30.6875 17.109375 C 30.734375 17.128906 31.824219 17.519531 31.824219 17.519531 L 34.28125 10.027344 C 34.28125 10.027344 33.226562 9.648438 33.160156 9.621094 "/>
<path style=" stroke:none;fill-rule:nonzero;fill:rgb(100%,100%,100%);fill-opacity:1;" d="M 32.125 10.148438 C 32.125 10.148438 32.371094 9.304688 32.433594 9.101562 C 32.367188 9.078125 32.304688 9.050781 32.304688 9.050781 C 27.746094 7.203125 22.492188 6.183594 17.519531 6.183594 C 12.519531 6.183594 7.253906 7.203125 2.691406 9.050781 C 2.691406 9.050781 2.628906 9.078125 2.566406 9.101562 C 2.625 9.304688 2.871094 10.148438 2.871094 10.148438 C 2.871094 10.148438 1.988281 10.464844 1.773438 10.542969 C 1.859375 10.808594 3.613281 16.148438 3.707031 16.429688 C 3.929688 16.351562 4.804688 16.035156 4.804688 16.035156 C 4.804688 16.035156 5.078125 16.75 5.160156 16.960938 C 5.230469 16.929688 5.300781 16.902344 5.300781 16.902344 C 7.796875 15.875 10.183594 15.175781 12.582031 14.777344 C 12.894531 14.996094 13.148438 15.175781 13.148438 15.175781 C 13.148438 15.175781 12.09375 16.746094 11.957031 16.949219 C 12.1875 16.871094 13.9375 16.300781 13.9375 16.300781 C 13.9375 16.300781 14.648438 18.003906 14.738281 18.226562 C 14.804688 17.996094 15.335938 16.179688 15.335938 16.179688 C 15.335938 16.179688 17.3125 16.6875 17.574219 16.757812 C 17.398438 16.550781 16.117188 15.074219 16.117188 15.074219 C 16.117188 15.074219 16.511719 14.734375 16.925781 14.382812 C 17.117188 14.378906 17.308594 14.375 17.5 14.375 C 21.640625 14.375 25.515625 15.175781 29.699219 16.902344 C 29.699219 16.902344 29.769531 16.929688 29.839844 16.960938 C 29.917969 16.75 30.191406 16.035156 30.191406 16.035156 C 30.191406 16.035156 31.070312 16.351562 31.292969 16.429688 C 31.386719 16.148438 33.136719 10.808594 33.226562 10.542969 C 33.011719 10.464844 32.125 10.148438 32.125 10.148438 "/>
<path style="fill:none;stroke-width:0.3106;stroke-linecap:butt;stroke-linejoin:miter;stroke:rgb(13.72549%,12.156863%,12.54902%);stroke-opacity:1;stroke-miterlimit:3.864;" d="M 257 81.1875 C 257 81.1875 258.96875 74.4375 259.46875 72.8125 C 258.9375 72.625 258.4375 72.40625 258.4375 72.40625 C 221.96875 57.625 179.9375 49.46875 140.15625 49.46875 C 100.15625 49.46875 58.03125 57.625 21.53125 72.40625 C 21.53125 72.40625 21.03125 72.625 20.53125 72.8125 C 21 74.4375 22.96875 81.1875 22.96875 81.1875 C 22.96875 81.1875 15.90625 83.71875 14.1875 84.34375 C 14.875 86.46875 28.90625 129.1875 29.65625 131.4375 C 31.4375 130.8125 38.4375 128.28125 38.4375 128.28125 C 38.4375 128.28125 40.625 134 41.28125 135.6875 C 41.84375 135.4375 42.40625 135.21875 42.40625 135.21875 C 62.375 127 81.46875 121.40625 100.65625 118.21875 C 103.15625 119.96875 105.1875 121.40625 105.1875 121.40625 C 105.1875 121.40625 96.75 133.96875 95.65625 135.59375 C 97.5 134.96875 111.5 130.40625 111.5 130.40625 C 111.5 130.40625 117.1875 144.03125 117.90625 145.8125 C 118.4375 143.96875 122.6875 129.4375 122.6875 129.4375 C 122.6875 129.4375 138.5 133.5 140.59375 134.0625 C 139.1875 132.40625 128.9375 120.59375 128.9375 120.59375 C 128.9375 120.59375 132.09375 117.875 135.40625 115.0625 C 136.9375 115.03125 138.46875 115 140 115 C 173.125 115 204.125 121.40625 237.59375 135.21875 C 237.59375 135.21875 238.15625 135.4375 238.71875 135.6875 C 239.34375 134 241.53125 128.28125 241.53125 128.28125 C 241.53125 128.28125 248.5625 130.8125 250.34375 131.4375 C 251.09375 129.1875 265.09375 86.46875 265.8125 84.34375 C 264.09375 83.71875 257 81.1875 257 81.1875 Z M 257 81.1875 " transform="matrix(0.125,0,0,0.125,0,0)"/>
<path style=" stroke:none;fill-rule:nonzero;fill:rgb(100%,100%,100%);fill-opacity:1;" d="M 2.691406 9.050781 C 2.691406 9.050781 2.628906 9.078125 2.566406 9.101562 C 2.625 9.304688 2.871094 10.148438 2.871094 10.148438 C 2.871094 10.148438 1.988281 10.464844 1.773438 10.542969 C 1.859375 10.808594 3.613281 16.152344 3.707031 16.429688 C 3.929688 16.351562 4.808594 16.035156 4.808594 16.035156 C 4.808594 16.035156 5.082031 16.75 5.160156 16.960938 C 5.230469 16.929688 5.300781 16.902344 5.300781 16.902344 C 9.480469 15.175781 13.359375 14.375 17.5 14.375 C 21.640625 14.375 25.515625 15.175781 29.699219 16.902344 C 29.699219 16.902344 29.769531 16.929688 29.839844 16.960938 C 29.917969 16.75 30.191406 16.035156 30.191406 16.035156 C 30.191406 16.035156 31.070312 16.351562 31.292969 16.429688 C 31.386719 16.152344 33.140625 10.808594 33.226562 10.542969 C 33.011719 10.464844 32.125 10.148438 32.125 10.148438 C 32.125 10.148438 32.371094 9.304688 32.433594 9.101562 C 32.367188 9.078125 32.304688 9.050781 32.304688 9.050781 C 27.746094 7.203125 22.492188 6.183594 17.519531 6.183594 C 12.519531 6.183594 7.253906 7.203125 2.691406 9.050781 "/>
<path style=" stroke:none;fill-rule:nonzero;fill:rgb(76.862745%,80.784314%,83.137255%);fill-opacity:1;" d="M 31.007812 15.84375 C 30.691406 15.730469 29.925781 15.457031 29.925781 15.457031 C 29.925781 15.457031 29.683594 16.09375 29.578125 16.367188 C 25.453125 14.703125 21.605469 13.921875 17.5 13.921875 C 13.394531 13.921875 9.542969 14.703125 5.421875 16.367188 C 5.316406 16.09375 5.074219 15.457031 5.074219 15.457031 C 5.074219 15.457031 4.304688 15.730469 3.992188 15.84375 C 3.824219 15.335938 2.5 11.300781 2.34375 10.820312 C 2.65625 10.710938 3.429688 10.429688 3.429688 10.429688 C 3.429688 10.429688 3.207031 9.671875 3.121094 9.375 C 7.570312 7.609375 12.667969 6.636719 17.519531 6.636719 C 22.34375 6.636719 27.429688 7.609375 31.878906 9.375 C 31.792969 9.671875 31.570312 10.429688 31.570312 10.429688 C 31.570312 10.429688 32.34375 10.710938 32.65625 10.820312 C 32.496094 11.300781 31.171875 15.339844 31.007812 15.84375 "/>
<path style=" stroke:none;fill-rule:nonzero;fill:rgb(100%,100%,100%);fill-opacity:1;" d="M 25.117188 13.09375 L 25.8125 9.167969 C 25.8125 9.167969 25.824219 9.035156 25.824219 9.035156 C 25.828125 8.851562 25.769531 8.679688 25.664062 8.53125 C 25.53125 8.34375 25.335938 8.21875 25.109375 8.179688 L 20.699219 7.433594 L 20.390625 9.246094 C 20.390625 9.246094 19.804688 12.714844 19.773438 12.890625 C 20.023438 12.929688 21.539062 13.1875 21.785156 13.230469 C 21.828125 12.972656 22.097656 11.417969 22.097656 11.417969 L 23.339844 11.628906 L 23.3125 11.785156 C 23.3125 11.785156 23.144531 12.824219 23.132812 12.890625 C 23.101562 13.136719 23.152344 13.207031 23.222656 13.308594 C 23.296875 13.417969 23.421875 13.492188 23.574219 13.53125 C 23.554688 13.527344 25.65625 14.039062 25.65625 14.039062 Z M 23.757812 9.996094 L 22.148438 9.726562 L 22.195312 9.449219 L 23.804688 9.71875 Z M 23.757812 9.996094 "/>
<path style=" stroke:none;fill-rule:nonzero;fill:rgb(100%,100%,100%);fill-opacity:1;" d="M 9.839844 12.992188 L 8.660156 9.363281 C 8.515625 8.914062 8.027344 8.664062 7.578125 8.8125 L 4.269531 9.886719 C 4.050781 9.957031 3.871094 10.109375 3.769531 10.3125 C 3.707031 10.4375 3.675781 10.566406 3.675781 10.703125 C 3.675781 10.792969 3.691406 10.882812 3.71875 10.96875 L 4.898438 14.597656 C 5.042969 15.046875 5.527344 15.296875 5.976562 15.148438 C 5.976562 15.148438 5.96875 15.15625 5.960938 15.15625 C 5.992188 15.144531 6.238281 15.066406 9.289062 14.074219 C 9.640625 13.960938 9.878906 13.628906 9.878906 13.257812 C 9.878906 13.167969 9.867188 13.078125 9.839844 12.992188 M 5.84375 11.511719 L 5.757812 11.246094 L 7.214844 10.765625 L 7.300781 11.035156 Z M 6.402344 13.199219 L 6.316406 12.929688 L 7.773438 12.449219 L 7.863281 12.71875 Z M 6.402344 13.199219 "/>
<path style=" stroke:none;fill-rule:nonzero;fill:rgb(100%,100%,100%);fill-opacity:1;" d="M 14.695312 10.207031 C 14.695312 10.207031 14.320312 8.257812 14.320312 8.257812 C 14.277344 8.035156 14.152344 7.839844 13.960938 7.710938 C 13.773438 7.582031 13.542969 7.535156 13.320312 7.578125 C 13.320312 7.578125 9.207031 8.359375 8.925781 8.410156 C 8.960938 8.617188 9.757812 12.808594 9.757812 12.808594 L 9.871094 13.402344 L 9.953125 13.847656 C 9.953125 13.847656 11.710938 13.511719 11.957031 13.464844 C 11.910156 13.210938 11.613281 11.664062 11.613281 11.664062 L 14.011719 11.207031 C 14.238281 11.167969 14.433594 11.039062 14.5625 10.847656 C 14.664062 10.699219 14.714844 10.523438 14.710938 10.34375 Z M 11.070312 10.035156 L 11.019531 9.757812 L 12.625 9.453125 L 12.675781 9.726562 Z M 11.070312 10.035156 "/>
<path style=" stroke:none;fill-rule:nonzero;fill:rgb(100%,100%,100%);fill-opacity:1;" d="M 13.433594 12.183594 C 13.441406 12.324219 13.554688 13.878906 13.554688 13.878906 C 13.554688 13.878906 11.683594 13.957031 11.433594 13.964844 C 11.636719 14.109375 13.144531 15.171875 13.144531 15.171875 C 13.144531 15.171875 12.09375 16.746094 11.957031 16.945312 C 12.1875 16.871094 13.9375 16.300781 13.9375 16.300781 C 13.9375 16.300781 14.648438 18.003906 14.738281 18.226562 C 14.808594 17.996094 15.335938 16.179688 15.335938 16.179688 C 15.335938 16.179688 17.3125 16.6875 17.574219 16.753906 C 17.398438 16.550781 16.117188 15.074219 16.117188 15.074219 C 16.117188 15.074219 17.671875 13.746094 17.851562 13.597656 C 17.636719 13.597656 16.652344 13.582031 16.652344 13.582031 L 16.90625 13.304688 L 18.546875 13.304688 L 20.488281 9.867188 L 20.488281 7.402344 L 18.78125 7.402344 L 18.035156 8.71875 C 18.035156 8.71875 17.953125 9.382812 17.9375 9.527344 C 17.867188 9.648438 17.289062 10.679688 17.101562 11.015625 L 16.828125 11.015625 C 17.113281 10.507812 17.492188 9.84375 17.492188 9.84375 L 17.492188 7.402344 L 15.734375 7.402344 L 15.015625 8.714844 C 15.015625 8.714844 14.941406 9.382812 14.925781 9.527344 C 14.851562 9.65625 13.433594 12.183594 13.433594 12.183594 "/>
<g clip-path="url(#clip1)" clip-rule="nonzero">
<g clip-path="url(#clip2)" clip-rule="nonzero">
<path style="fill-rule:nonzero;fill:rgb(3.921569%,10.588235%,13.72549%);fill-opacity:1;stroke-width:0.3106;stroke-linecap:butt;stroke-linejoin:miter;stroke:rgb(13.72549%,12.156863%,12.54902%);stroke-opacity:1;stroke-miterlimit:3.864;" d="M 152.375 62.875 L 147.84375 70.90625 L 147.03125 77.34375 L 138.96875 91.78125 L 128.34375 91.78125 L 136.25 77.78125 L 136.25 62.875 L 128.03125 62.875 L 123.6875 70.84375 L 122.96875 77.34375 L 111.40625 97.9375 L 113.34375 102.78125 L 120.53125 102.78125 L 117.25 111.0625 L 111.125 104.4375 L 111.84375 114.15625 L 101.21875 114.625 L 109.6875 120.5625 L 103.65625 129.5 L 113.375 126.34375 L 117.375 135.96875 L 120.4375 125.46875 L 131.25 128.25 L 124.25 120.1875 L 132.875 113.0625 L 124 113.625 L 133.59375 102.78125 L 146.21875 102.78125 L 160.21875 77.96875 L 160.21875 62.875 Z M 152.375 62.875 " transform="matrix(0.125,0,0,0.125,0,0)"/>
</g>
</g>
<path style=" stroke:none;fill-rule:nonzero;fill:rgb(100%,100%,100%);fill-opacity:1;" d="M 31.214844 10.292969 C 31.109375 10.089844 30.929688 9.9375 30.714844 9.867188 L 27.40625 8.792969 C 27.1875 8.722656 26.953125 8.738281 26.75 8.84375 C 26.542969 8.949219 26.394531 9.125 26.324219 9.34375 L 25.144531 12.972656 C 25.117188 13.058594 25.101562 13.148438 25.101562 13.238281 C 25.101562 13.371094 25.132812 13.503906 25.195312 13.625 C 25.300781 13.832031 25.476562 13.984375 25.695312 14.054688 L 29.003906 15.128906 C 29.222656 15.203125 29.453125 15.183594 29.660156 15.078125 C 29.863281 14.972656 30.015625 14.796875 30.085938 14.578125 L 31.265625 10.949219 C 31.292969 10.863281 31.308594 10.769531 31.308594 10.683594 C 31.308594 10.550781 31.277344 10.417969 31.214844 10.292969 M 28.660156 13.160156 L 27.207031 12.683594 L 27.292969 12.414062 L 28.75 12.894531 Z M 29.222656 11.476562 L 27.765625 10.996094 L 27.851562 10.730469 L 29.308594 11.210938 Z M 29.222656 11.476562 "/>
<path style=" stroke:none;fill-rule:nonzero;fill:rgb(76.862745%,80.784314%,83.137255%);fill-opacity:1;" d="M 19.1875 8.128906 L 18.835938 8.757812 L 19.3125 8.757812 L 19.648438 8.128906 Z M 19.1875 8.128906 "/>
<path style=" stroke:none;fill-rule:nonzero;fill:rgb(76.862745%,80.784314%,83.137255%);fill-opacity:1;" d="M 16.664062 8.128906 L 16.167969 8.128906 L 15.820312 8.757812 L 16.335938 8.757812 Z M 16.664062 8.128906 "/>
<path style=" stroke:none;fill-rule:nonzero;fill:rgb(76.862745%,80.784314%,83.137255%);fill-opacity:1;" d="M 17.550781 11.714844 L 15.035156 11.714844 L 16.085938 9.867188 L 15.589844 9.867188 L 14.324219 12.105469 L 15.730469 12.105469 L 14.699219 14.449219 L 14.238281 13.949219 L 14.285156 14.582031 L 13.59375 14.609375 L 14.144531 14.996094 L 13.753906 15.578125 L 14.382812 15.371094 L 14.640625 15.996094 L 14.839844 15.316406 L 15.542969 15.496094 L 15.089844 14.972656 L 15.648438 14.511719 L 14.863281 14.558594 L 14.808594 14.558594 L 16.433594 12.105469 L 17.84375 12.105469 L 19.085938 9.867188 L 18.601562 9.867188 Z M 14.554688 15.117188 C 14.457031 15.117188 14.378906 15.039062 14.378906 14.941406 C 14.378906 14.847656 14.457031 14.769531 14.554688 14.769531 C 14.648438 14.769531 14.726562 14.847656 14.726562 14.941406 C 14.726562 15.039062 14.648438 15.117188 14.554688 15.117188 "/>
<path style=" stroke:none;fill-rule:nonzero;fill:rgb(76.862745%,80.784314%,83.137255%);fill-opacity:1;" d="M 16.207031 9.011719 L 15.753906 9.011719 L 15.699219 9.546875 L 16.160156 9.546875 Z M 16.207031 9.011719 "/>
<path style=" stroke:none;fill-rule:nonzero;fill:rgb(76.862745%,80.784314%,83.137255%);fill-opacity:1;" d="M 18.703125 9.546875 L 19.167969 9.546875 L 19.210938 9.011719 L 18.757812 9.011719 Z M 18.703125 9.546875 "/>
<path style="fill-rule:nonzero;fill:rgb(100%,100%,100%);fill-opacity:1;stroke-width:0.3106;stroke-linecap:butt;stroke-linejoin:miter;stroke:rgb(13.72549%,12.156863%,12.54902%);stroke-opacity:1;stroke-miterlimit:3.864;" d="M 44.90625 56.34375 C 45.4375 58.21875 46.5 58.40625 48.90625 57.78125 L 52.0625 56.90625 C 55.5625 55.96875 56.25 55.375 55.625 53.09375 C 54.96875 50.59375 53.9375 50.59375 49.875 51.6875 C 47.03125 52.46875 46.71875 52.53125 46.53125 51.78125 C 46.40625 51.3125 46.75 51 47.34375 50.84375 L 50.25 50.0625 C 51.46875 49.75 51.59375 49.96875 51.78125 50.59375 L 54.40625 49.90625 L 54.3125 49.625 C 53.90625 48.125 53.34375 47.15625 50.34375 48 L 46.65625 48.96875 C 43.34375 49.875 43.53125 51.09375 43.9375 52.65625 C 44.5 54.75 45.09375 55.125 49.03125 54.03125 C 52.4375 53.15625 52.75 53.09375 52.9375 53.84375 C 53.125 54.53125 52.5625 54.71875 52.03125 54.875 L 48.78125 55.71875 C 48.03125 55.9375 47.65625 55.96875 47.40625 55.0625 L 44.78125 55.78125 Z M 44.90625 56.34375 " transform="matrix(0.125,0,0,0.125,0,0)"/>
<path style=" stroke:none;fill-rule:nonzero;fill:rgb(100%,100%,100%);fill-opacity:1;" d="M 7.972656 6.722656 L 8.34375 6.644531 L 8.398438 6.429688 L 9.074219 6.285156 L 9.21875 6.457031 L 9.585938 6.378906 L 8.761719 5.421875 L 8.328125 5.511719 Z M 8.597656 5.71875 L 8.898438 6.078125 L 8.472656 6.167969 Z M 8.597656 5.71875 "/>
<path style="fill:none;stroke-width:0.3106;stroke-linecap:butt;stroke-linejoin:miter;stroke:rgb(13.72549%,12.156863%,12.54902%);stroke-opacity:1;stroke-miterlimit:3.864;" d="M 63.78125 53.78125 L 66.75 53.15625 L 67.1875 51.4375 L 72.59375 50.28125 L 73.75 51.65625 L 76.6875 51.03125 L 70.09375 43.375 L 66.625 44.09375 L 63.78125 53.78125 M 68.78125 45.75 L 71.1875 48.625 L 67.78125 49.34375 Z M 68.78125 45.75 " transform="matrix(0.125,0,0,0.125,0,0)"/>
<path style="fill-rule:nonzero;fill:rgb(100%,100%,100%);fill-opacity:1;stroke-width:0.3106;stroke-linecap:butt;stroke-linejoin:miter;stroke:rgb(13.72549%,12.156863%,12.54902%);stroke-opacity:1;stroke-miterlimit:3.864;" d="M 84.40625 49.65625 L 87.09375 49.25 L 86.09375 42.875 L 86.125 42.875 L 92.1875 48.4375 L 96.34375 47.78125 L 94.96875 39 L 92.28125 39.4375 L 93.28125 45.8125 L 93.25 45.8125 L 87.1875 40.25 L 83.03125 40.90625 Z M 84.40625 49.65625 " transform="matrix(0.125,0,0,0.125,0,0)"/>
<path style=" stroke:none;fill-rule:nonzero;fill:rgb(100%,100%,100%);fill-opacity:1;" d="M 14.09375 5.769531 L 14.472656 5.75 L 14.5625 5.550781 L 15.25 5.515625 L 15.367188 5.707031 L 15.742188 5.683594 L 15.078125 4.609375 L 14.632812 4.632812 Z M 14.867188 4.878906 L 15.109375 5.28125 L 14.675781 5.304688 Z M 14.867188 4.878906 "/>
<path style="fill:none;stroke-width:0.3106;stroke-linecap:butt;stroke-linejoin:miter;stroke:rgb(13.72549%,12.156863%,12.54902%);stroke-opacity:1;stroke-miterlimit:3.864;" d="M 112.75 46.15625 L 115.78125 46 L 116.5 44.40625 L 122 44.125 L 122.9375 45.65625 L 125.9375 45.46875 L 120.625 36.875 L 117.0625 37.0625 L 112.75 46.15625 M 118.9375 39.03125 L 120.875 42.25 L 117.40625 42.4375 Z M 118.9375 39.03125 " transform="matrix(0.125,0,0,0.125,0,0)"/>
<path style="fill-rule:nonzero;fill:rgb(100%,100%,100%);fill-opacity:1;stroke-width:0.3106;stroke-linecap:butt;stroke-linejoin:miter;stroke:rgb(13.72549%,12.156863%,12.54902%);stroke-opacity:1;stroke-miterlimit:3.864;" d="M 133.78125 45.21875 L 136.5 45.21875 L 136.5 38.78125 L 136.53125 38.78125 L 141.625 45.21875 L 145.84375 45.21875 L 145.84375 36.34375 L 143.125 36.34375 L 143.125 42.8125 L 138 36.34375 L 133.78125 36.34375 Z M 133.78125 45.21875 " transform="matrix(0.125,0,0,0.125,0,0)"/>
<path style="fill-rule:nonzero;fill:rgb(100%,100%,100%);fill-opacity:1;stroke-width:0.3106;stroke-linecap:butt;stroke-linejoin:miter;stroke:rgb(13.72549%,12.156863%,12.54902%);stroke-opacity:1;stroke-miterlimit:3.864;" d="M 154.25 38.71875 L 158.0625 38.90625 L 157.71875 45.59375 L 160.4375 45.71875 L 160.78125 39.0625 L 164.625 39.25 L 164.71875 37.0625 L 154.375 36.5 Z M 154.25 38.71875 " transform="matrix(0.125,0,0,0.125,0,0)"/>
<path style="fill-rule:nonzero;fill:rgb(100%,100%,100%);fill-opacity:1;stroke-width:0.3106;stroke-linecap:butt;stroke-linejoin:miter;stroke:rgb(13.72549%,12.156863%,12.54902%);stroke-opacity:1;stroke-miterlimit:3.864;" d="M 172.4375 43.46875 C 172.15625 46.0625 173.53125 46.8125 175.96875 47.0625 L 180.3125 47.53125 C 182.75 47.78125 184.28125 47.3125 184.53125 44.75 L 184.8125 42.09375 C 185.09375 39.53125 183.71875 38.75 181.25 38.5 L 176.9375 38.03125 C 174.46875 37.8125 172.96875 38.25 172.6875 40.84375 L 172.4375 43.46875 M 175.40625 41.96875 C 175.5 40.875 175.84375 40.21875 177.28125 40.375 L 180.4375 40.71875 C 181.875 40.875 182.0625 41.5625 181.96875 42.65625 L 181.84375 43.59375 C 181.71875 44.875 181.40625 45.34375 180.125 45.21875 L 176.65625 44.84375 C 175.375 44.71875 175.15625 44.21875 175.28125 42.90625 Z M 175.40625 41.96875 " transform="matrix(0.125,0,0,0.125,0,0)"/>
<path style="fill-rule:nonzero;fill:rgb(100%,100%,100%);fill-opacity:1;stroke-width:0.3106;stroke-linecap:butt;stroke-linejoin:miter;stroke:rgb(13.72549%,12.156863%,12.54902%);stroke-opacity:1;stroke-miterlimit:3.864;" d="M 192.6875 49.0625 L 195.375 49.53125 L 196.46875 43.15625 L 196.5 43.1875 L 200.40625 50.40625 L 204.5625 51.15625 L 206.125 42.40625 L 203.4375 41.9375 L 202.3125 48.28125 L 202.28125 48.28125 L 198.375 41.03125 L 194.21875 40.3125 Z M 192.6875 49.0625 " transform="matrix(0.125,0,0,0.125,0,0)"/>
<path style="fill-rule:nonzero;fill:rgb(100%,100%,100%);fill-opacity:1;stroke-width:0.3106;stroke-linecap:butt;stroke-linejoin:miter;stroke:rgb(13.72549%,12.156863%,12.54902%);stroke-opacity:1;stroke-miterlimit:3.864;" d="M 213.1875 52.875 L 215.875 53.46875 L 217.71875 44.78125 L 215.03125 44.21875 Z M 213.1875 52.875 " transform="matrix(0.125,0,0,0.125,0,0)"/>
<path style="fill-rule:nonzero;fill:rgb(100%,100%,100%);fill-opacity:1;stroke-width:0.3106;stroke-linecap:butt;stroke-linejoin:miter;stroke:rgb(13.72549%,12.156863%,12.54902%);stroke-opacity:1;stroke-miterlimit:3.864;" d="M 225.09375 52.5 C 224.40625 55.03125 225.65625 56 228.03125 56.625 L 232.25 57.75 C 234.625 58.375 236.1875 58.15625 236.84375 55.65625 L 237.53125 53.09375 C 238.1875 50.59375 236.96875 49.625 234.59375 49 L 230.375 47.84375 C 228 47.21875 226.4375 47.4375 225.75 49.9375 L 225.09375 52.5 M 228.25 51.5 C 228.53125 50.40625 228.96875 49.84375 230.34375 50.21875 L 233.4375 51.03125 C 234.8125 51.40625 234.90625 52.125 234.625 53.1875 L 234.375 54.125 C 234.03125 55.375 233.65625 55.78125 232.40625 55.4375 L 229.03125 54.53125 C 227.8125 54.1875 227.6875 53.65625 228 52.40625 Z M 228.25 51.5 " transform="matrix(0.125,0,0,0.125,0,0)"/>
<path style=" stroke:none;fill-rule:nonzero;fill:rgb(100%,100%,100%);fill-opacity:1;" d="M 5.613281 7.042969 C 5.679688 7.277344 5.8125 7.300781 6.113281 7.222656 L 6.507812 7.113281 C 6.945312 6.996094 7.03125 6.921875 6.953125 6.636719 C 6.871094 6.324219 6.742188 6.324219 6.234375 6.460938 C 5.878906 6.558594 5.839844 6.566406 5.816406 6.472656 C 5.800781 6.414062 5.84375 6.375 5.917969 6.355469 L 6.28125 6.257812 C 6.433594 6.21875 6.449219 6.246094 6.472656 6.324219 L 6.800781 6.238281 L 6.789062 6.203125 C 6.738281 6.015625 6.667969 5.894531 6.292969 6 L 5.832031 6.121094 C 5.417969 6.234375 5.441406 6.386719 5.492188 6.582031 C 5.5625 6.84375 5.636719 6.890625 6.128906 6.753906 C 6.554688 6.644531 6.59375 6.636719 6.617188 6.730469 C 6.640625 6.816406 6.570312 6.839844 6.503906 6.859375 L 6.097656 6.964844 C 6.003906 6.992188 5.957031 6.996094 5.925781 6.882812 L 5.597656 6.972656 Z M 5.613281 7.042969 "/>
<path style=" stroke:none;fill-rule:nonzero;fill:rgb(100%,100%,100%);fill-opacity:1;" d="M 7.972656 6.722656 L 8.34375 6.644531 L 8.398438 6.429688 L 9.074219 6.285156 L 9.21875 6.457031 L 9.585938 6.378906 L 8.761719 5.421875 L 8.328125 5.511719 Z M 8.597656 5.71875 L 8.898438 6.078125 L 8.472656 6.167969 Z M 8.597656 5.71875 "/>
<path style=" stroke:none;fill-rule:nonzero;fill:rgb(100%,100%,100%);fill-opacity:1;" d="M 10.550781 6.207031 L 10.886719 6.15625 L 10.761719 5.359375 L 10.765625 5.359375 L 11.523438 6.054688 L 12.042969 5.972656 L 11.871094 4.875 L 11.535156 4.929688 L 11.660156 5.726562 L 11.65625 5.726562 L 10.898438 5.03125 L 10.378906 5.113281 Z M 10.550781 6.207031 "/>
<path style=" stroke:none;fill-rule:nonzero;fill:rgb(100%,100%,100%);fill-opacity:1;" d="M 14.09375 5.769531 L 14.472656 5.75 L 14.5625 5.550781 L 15.25 5.515625 L 15.367188 5.707031 L 15.742188 5.683594 L 15.078125 4.609375 L 14.632812 4.632812 Z M 14.867188 4.878906 L 15.109375 5.28125 L 14.675781 5.304688 Z M 14.867188 4.878906 "/>
<path style=" stroke:none;fill-rule:nonzero;fill:rgb(100%,100%,100%);fill-opacity:1;" d="M 16.722656 5.652344 L 17.0625 5.652344 L 17.0625 4.847656 L 17.066406 4.847656 L 17.703125 5.652344 L 18.230469 5.652344 L 18.230469 4.542969 L 17.890625 4.542969 L 17.890625 5.351562 L 17.25 4.542969 L 16.722656 4.542969 Z M 16.722656 5.652344 "/>
<path style=" stroke:none;fill-rule:nonzero;fill:rgb(100%,100%,100%);fill-opacity:1;" d="M 19.28125 4.839844 L 19.757812 4.863281 L 19.714844 5.699219 L 20.054688 5.714844 L 20.097656 4.882812 L 20.578125 4.90625 L 20.589844 4.632812 L 19.296875 4.5625 Z M 19.28125 4.839844 "/>
<path style=" stroke:none;fill-rule:nonzero;fill:rgb(100%,100%,100%);fill-opacity:1;" d="M 21.554688 5.433594 C 21.519531 5.757812 21.691406 5.851562 21.996094 5.882812 L 22.539062 5.941406 C 22.84375 5.972656 23.035156 5.914062 23.066406 5.59375 L 23.101562 5.261719 C 23.136719 4.941406 22.964844 4.84375 22.65625 4.8125 L 22.117188 4.753906 C 21.808594 4.726562 21.621094 4.78125 21.585938 5.105469 L 21.554688 5.433594 M 21.925781 5.246094 C 21.9375 5.109375 21.980469 5.027344 22.160156 5.046875 L 22.554688 5.089844 C 22.734375 5.109375 22.757812 5.195312 22.746094 5.332031 L 22.730469 5.449219 C 22.714844 5.609375 22.675781 5.667969 22.515625 5.652344 L 22.082031 5.605469 C 21.921875 5.589844 21.894531 5.527344 21.910156 5.363281 Z M 21.925781 5.246094 "/>
<path style=" stroke:none;fill-rule:nonzero;fill:rgb(100%,100%,100%);fill-opacity:1;" d="M 24.085938 6.132812 L 24.421875 6.191406 L 24.558594 5.394531 L 24.5625 5.398438 L 25.050781 6.300781 L 25.570312 6.394531 L 25.765625 5.300781 L 25.429688 5.242188 L 25.289062 6.035156 L 25.285156 6.035156 L 24.796875 5.128906 L 24.277344 5.039062 Z M 24.085938 6.132812 "/>
<path style=" stroke:none;fill-rule:nonzero;fill:rgb(100%,100%,100%);fill-opacity:1;" d="M 26.648438 6.609375 L 26.984375 6.683594 L 27.214844 5.597656 L 26.878906 5.527344 Z M 26.648438 6.609375 "/>
<path style=" stroke:none;fill-rule:nonzero;fill:rgb(100%,100%,100%);fill-opacity:1;" d="M 28.136719 6.5625 C 28.050781 6.878906 28.207031 7 28.503906 7.078125 L 29.03125 7.21875 C 29.328125 7.296875 29.523438 7.269531 29.605469 6.957031 L 29.691406 6.636719 C 29.773438 6.324219 29.621094 6.203125 29.324219 6.125 L 28.796875 5.980469 C 28.5 5.902344 28.304688 5.929688 28.21875 6.242188 L 28.136719 6.5625 M 28.53125 6.4375 C 28.566406 6.300781 28.621094 6.230469 28.792969 6.277344 L 29.179688 6.378906 C 29.351562 6.425781 29.363281 6.515625 29.328125 6.648438 L 29.296875 6.765625 C 29.253906 6.921875 29.207031 6.972656 29.050781 6.929688 L 28.628906 6.816406 C 28.476562 6.773438 28.460938 6.707031 28.5 6.550781 Z M 28.53125 6.4375 "/>
<g clip-path="url(#clip3)" clip-rule="nonzero">
<g clip-path="url(#clip4)" clip-rule="nonzero">
<path style=" stroke:none;fill-rule:nonzero;fill:rgb(3.921569%,10.588235%,13.72549%);fill-opacity:1;" d="M 25.03125 8.628906 L 21.074219 7.960938 L 20.300781 12.515625 L 21.410156 12.703125 L 21.722656 10.894531 L 23.15625 11.140625 L 23.707031 11.230469 C 23.796875 11.246094 23.855469 11.328125 23.839844 11.417969 L 23.605469 12.777344 C 23.554688 13.066406 23.722656 13.082031 23.792969 13.097656 C 23.875 13.113281 24.746094 13.269531 24.746094 13.269531 C 24.722656 13.242188 24.667969 13.140625 24.710938 12.945312 L 24.984375 11.34375 C 25.007812 11.1875 24.933594 11.050781 24.800781 10.988281 C 24.988281 10.96875 25.074219 10.820312 25.101562 10.667969 L 25.125 10.53125 L 25.363281 9.09375 C 25.398438 8.875 25.253906 8.667969 25.03125 8.628906 M 24.132812 9.652344 L 24.0625 10.117188 C 24.042969 10.203125 23.960938 10.261719 23.875 10.25 L 21.890625 9.914062 L 22.019531 9.128906 L 24.003906 9.464844 C 24.089844 9.480469 24.148438 9.566406 24.132812 9.652344 "/>
<path style="fill:none;stroke-width:0.3106;stroke-linecap:butt;stroke-linejoin:miter;stroke:rgb(13.72549%,12.156863%,12.54902%);stroke-opacity:1;stroke-miterlimit:3.864;" d="M 200.25 69.03125 L 168.59375 63.6875 L 162.40625 100.125 L 171.28125 101.625 L 173.78125 87.15625 L 185.25 89.125 L 189.65625 89.84375 C 190.375 89.96875 190.84375 90.625 190.71875 91.34375 L 188.84375 102.21875 C 188.4375 104.53125 189.78125 104.65625 190.34375 104.78125 C 191 104.90625 197.96875 106.15625 197.96875 106.15625 C 197.78125 105.9375 197.34375 105.125 197.6875 103.5625 L 199.875 90.75 C 200.0625 89.5 199.46875 88.40625 198.40625 87.90625 C 199.90625 87.75 200.59375 86.5625 200.8125 85.34375 L 201 84.25 L 202.90625 72.75 C 203.1875 71 202.03125 69.34375 200.25 69.03125 Z M 193.0625 77.21875 L 192.5 80.9375 C 192.34375 81.625 191.6875 82.09375 191 82 L 175.125 79.3125 L 176.15625 73.03125 L 192.03125 75.71875 C 192.71875 75.84375 193.1875 76.53125 193.0625 77.21875 Z M 193.0625 77.21875 " transform="matrix(0.125,0,0,0.125,0,0)"/>
</g>
</g>
<g clip-path="url(#clip5)" clip-rule="nonzero">
<g clip-path="url(#clip6)" clip-rule="nonzero">
<path style="fill-rule:nonzero;fill:rgb(3.921569%,10.588235%,13.72549%);fill-opacity:1;stroke-width:0.3106;stroke-linecap:butt;stroke-linejoin:miter;stroke:rgb(13.72549%,12.156863%,12.54902%);stroke-opacity:1;stroke-miterlimit:3.864;" d="M 87.1875 82.5625 L 103.03125 79.5625 C 103.75 79.4375 104.21875 78.75 104.0625 78.0625 L 103.34375 74.375 C 103.1875 73.65625 102.53125 73.1875 101.84375 73.34375 L 86 76.34375 L 87.1875 82.5625 M 91.40625 104.84375 L 82.53125 106.5 L 75.65625 70.1875 L 107.21875 64.1875 C 108.96875 63.875 110.65625 65.03125 111 66.75 L 113.96875 82.3125 C 114.3125 84.0625 113.15625 85.75 111.40625 86.09375 L 88.65625 90.40625 Z M 91.40625 104.84375 " transform="matrix(0.125,0,0,0.125,0,0)"/>
</g>
</g>
<g clip-path="url(#clip7)" clip-rule="nonzero">
<g clip-path="url(#clip8)" clip-rule="nonzero">
<path style="fill-rule:nonzero;fill:rgb(3.921569%,10.588235%,13.72549%);fill-opacity:1;stroke-width:0.3106;stroke-linecap:butt;stroke-linejoin:miter;stroke:rgb(13.72549%,12.156863%,12.54902%);stroke-opacity:1;stroke-miterlimit:3.864;" d="M 230.96875 101.53125 C 231.65625 101.75 232 102.59375 231.78125 103.28125 L 230.59375 106.9375 C 230.375 107.59375 229.65625 107.96875 228.96875 107.75 L 215.875 103.5 C 215.1875 103.28125 214.84375 102.5625 215.0625 101.875 L 215.8125 99.5625 L 207.25 96.78125 L 204.625 104.90625 C 204.0625 106.59375 205 108.40625 206.6875 108.96875 L 233.15625 117.5625 C 234.84375 118.125 236.65625 117.1875 237.21875 115.5 L 241.71875 101.625 L 242.21875 100.09375 C 242.75 98.40625 241.84375 96.59375 240.15625 96.0625 L 223.46875 90.625 L 220.375 89.625 C 219.71875 89.40625 219.34375 88.6875 219.5625 88 L 220.71875 84.40625 C 220.96875 83.71875 221.6875 83.34375 222.34375 83.5625 L 235.4375 87.8125 C 236.09375 88.03125 236.46875 88.78125 236.25 89.4375 L 235.53125 91.5 L 244.125 94.28125 L 246.65625 86.46875 C 247.1875 84.78125 246.28125 82.96875 244.59375 82.40625 L 218.125 73.8125 C 216.4375 73.25 214.59375 74.1875 214.0625 75.875 L 209.53125 89.8125 L 209.125 91.03125 C 208.59375 92.75 209.5 94.5625 211.1875 95.09375 L 221.3125 98.375 Z M 230.96875 101.53125 " transform="matrix(0.125,0,0,0.125,0,0)"/>
</g>
</g>
<g clip-path="url(#clip9)" clip-rule="nonzero">
<g clip-path="url(#clip10)" clip-rule="nonzero">
<path style="fill-rule:nonzero;fill:rgb(3.921569%,10.588235%,13.72549%);fill-opacity:1;stroke-width:0.3106;stroke-linecap:butt;stroke-linejoin:miter;stroke:rgb(13.72549%,12.156863%,12.54902%);stroke-opacity:1;stroke-miterlimit:3.864;" d="M 52.3125 100.59375 L 42.1875 103.84375 C 40.5 104.40625 38.6875 103.46875 38.15625 101.78125 L 37.75 100.5625 L 33.21875 86.625 C 32.65625 84.9375 33.59375 83.09375 35.28125 82.5625 L 61.75 73.96875 C 63.4375 73.40625 65.25 74.34375 65.8125 76.03125 L 68.34375 83.84375 L 59.8125 86.625 L 59.15625 84.5625 C 58.9375 83.875 58.1875 83.5 57.53125 83.71875 L 44.4375 87.96875 C 43.78125 88.1875 43.40625 88.9375 43.625 89.59375 L 44.78125 93.1875 C 45 93.875 45.75 94.25 46.40625 94.03125 L 49.46875 93.03125 L 66.1875 87.59375 C 67.875 87.0625 69.6875 87.96875 70.21875 89.65625 L 70.71875 91.1875 L 75.25 105.0625 C 75.78125 106.75 74.875 108.5625 73.1875 109.125 L 46.6875 117.71875 C 45 118.28125 43.1875 117.34375 42.625 115.65625 L 40 107.53125 L 48.5625 104.75 L 49.3125 107.0625 C 49.53125 107.75 50.25 108.125 50.9375 107.875 L 64 103.65625 C 64.6875 103.4375 65.0625 102.6875 64.8125 102.03125 L 63.65625 98.375 C 63.40625 97.71875 62.65625 97.21875 62 97.4375 Z M 52.3125 100.59375 " transform="matrix(0.125,0,0,0.125,0,0)"/>
</g>
</g>
</g>
</svg>
