<?xml version="1.0" encoding="UTF-8"?>
<svg xmlns="http://www.w3.org/2000/svg" xmlns:xlink="http://www.w3.org/1999/xlink" width="35pt" height="25pt" viewBox="0 0 35 25" version="1.1">
<g id="surface1">
<path style=" stroke:none;fill-rule:nonzero;fill:rgb(100%,100%,100%);fill-opacity:1;" d="M 25.390625 18.71875 L 23.308594 18.71875 L 23.316406 18.699219 L 26.566406 11.265625 L 28.691406 11.265625 Z M 11.585938 15.992188 L 12.128906 14.808594 L 12.386719 15.992188 Z M 30.632812 18.71875 L 30.640625 18.703125 L 34.347656 10.226562 L 34.523438 9.824219 L 27.195312 9.824219 L 27.199219 9.824219 L 17.210938 9.824219 L 17.128906 9.96875 L 16.644531 10.835938 L 16.40625 11.265625 L 21.371094 11.265625 L 18.355469 18.066406 L 15.921875 10.027344 L 15.859375 9.824219 L 12.375 9.824219 L 12.300781 10 L 7.949219 19.921875 L 7.773438 20.324219 L 9.789062 20.324219 L 9.863281 20.144531 L 10.820312 17.722656 L 12.785156 17.722656 L 13.492188 20.121094 L 13.554688 20.324219 L 34.304688 20.324219 L 34.378906 20.148438 L 34.824219 19.121094 L 35 18.71875 Z M 30.632812 18.71875 "/>
<path style=" stroke:none;fill-rule:nonzero;fill:rgb(100%,100%,100%);fill-opacity:1;" d="M 12.539062 4.546875 L 12.464844 4.71875 C 12.179688 5.355469 8.945312 12.542969 8.910156 12.617188 C 8.835938 12.777344 8.722656 12.902344 8.628906 12.992188 C 8.570312 12.914062 8.511719 12.839844 8.453125 12.765625 C 8.398438 12.699219 8.34375 12.632812 8.285156 12.574219 C 8.285156 12.570312 8.28125 12.566406 8.277344 12.5625 C 8.246094 12.53125 8.21875 12.496094 8.191406 12.464844 L 8.109375 12.386719 L 7.921875 12.207031 L 7.917969 12.210938 C 7.078125 11.46875 5.972656 11.019531 4.757812 11.019531 C 2.128906 11.019531 0 13.128906 0 15.734375 C 0 18.339844 2.128906 20.453125 4.757812 20.453125 C 7.386719 20.453125 9.515625 18.339844 9.515625 15.734375 C 9.515625 15.671875 9.511719 15.613281 9.511719 15.550781 C 9.984375 14.496094 12.011719 10.046875 12.121094 9.757812 C 12.214844 9.507812 12.277344 9.398438 12.753906 9.355469 C 12.871094 9.347656 13.496094 9.328125 16.347656 9.328125 C 18.078125 9.328125 19.96875 9.335938 20.351562 9.339844 L 20.519531 9.34375 L 21.886719 9.34375 L 21.960938 9.167969 L 23.757812 4.949219 L 23.925781 4.550781 L 12.539062 4.550781 Z M 12.539062 4.546875 "/>
<path style=" stroke:none;fill-rule:nonzero;fill:rgb(4.705882%,13.72549%,25.098039%);fill-opacity:1;" d="M 11.128906 16.277344 L 12.21875 13.902344 L 12.734375 16.277344 Z M 14.308594 10.144531 L 12.542969 10.144531 L 8.207031 20.035156 L 9.585938 20.035156 L 10.617188 17.429688 L 12.992188 17.429688 L 13.761719 20.035156 L 17.292969 20.035156 Z M 14.308594 10.144531 "/>
<path style=" stroke:none;fill-rule:nonzero;fill:rgb(4.705882%,13.72549%,25.098039%);fill-opacity:1;" d="M 25.410156 10.109375 L 17.382812 10.109375 L 16.898438 10.976562 L 21.8125 10.976562 L 17.796875 20.035156 L 24.671875 20.035156 L 25.121094 19.007812 L 21.527344 19.007812 Z M 25.410156 10.109375 "/>
<path style=" stroke:none;fill-rule:nonzero;fill:rgb(0%,27.843137%,10.588235%);fill-opacity:1;" d="M 26.757812 10.109375 L 26.023438 10.109375 L 22.234375 18.585938 L 23.128906 18.585938 Z M 26.757812 10.109375 "/>
<path style=" stroke:none;fill-rule:nonzero;fill:rgb(4.705882%,13.72549%,25.098039%);fill-opacity:1;" d="M 32.734375 10.113281 L 27.273438 10.113281 L 26.855469 10.980469 L 29.132812 10.980469 L 25.121094 20.035156 L 34.113281 20.035156 L 34.558594 19.007812 L 28.847656 19.007812 Z M 32.734375 10.113281 "/>
<path style=" stroke:none;fill-rule:nonzero;fill:rgb(0%,27.843137%,10.588235%);fill-opacity:1;" d="M 34.082031 10.109375 L 33.34375 10.109375 L 29.636719 18.585938 L 30.375 18.585938 Z M 34.082031 10.109375 "/>
<path style=" stroke:none;fill-rule:nonzero;fill:rgb(100%,100%,100%);fill-opacity:1;" d="M 9.238281 15.730469 C 9.238281 18.171875 7.242188 20.148438 4.78125 20.148438 C 2.320312 20.148438 0.324219 18.171875 0.324219 15.730469 C 0.324219 13.289062 2.320312 11.3125 4.78125 11.3125 C 7.242188 11.3125 9.238281 13.289062 9.238281 15.730469 "/>
<path style=" stroke:none;fill-rule:nonzero;fill:rgb(4.705882%,13.72549%,25.098039%);fill-opacity:1;" d="M 3.164062 15.582031 C 3.085938 14.417969 2.527344 13.300781 1.660156 12.578125 C 1.625 12.613281 1.558594 12.683594 1.5625 12.679688 C 0.847656 13.410156 0.382812 14.390625 0.328125 15.582031 Z M 3.164062 15.582031 "/>
<path style=" stroke:none;fill-rule:nonzero;fill:rgb(4.705882%,13.72549%,25.098039%);fill-opacity:1;" d="M 1.328125 18.523438 L 1.535156 18.761719 L 1.722656 18.949219 C 2.53125 18.261719 3.0625 17.144531 3.160156 15.980469 L 0.335938 15.980469 C 0.375 16.976562 0.800781 17.910156 1.328125 18.523438 "/>
<path style=" stroke:none;fill-rule:nonzero;fill:rgb(97.647059%,62.745098%,10.588235%);fill-opacity:1;" d="M 1.9375 12.320312 L 1.878906 12.378906 C 2.835938 13.195312 3.386719 14.332031 3.449219 15.578125 L 4.539062 15.578125 L 4.539062 11.316406 C 3.449219 11.382812 2.59375 11.761719 1.9375 12.320312 M 1.964844 19.152344 C 2.714844 19.773438 3.71875 20.125 4.542969 20.144531 L 4.539062 15.960938 L 3.449219 15.960938 C 3.40625 17.195312 2.882812 18.332031 1.964844 19.152344 "/>
<path style=" stroke:none;fill-rule:nonzero;fill:rgb(4.705882%,13.72549%,25.098039%);fill-opacity:1;" d="M 7.832031 18.960938 L 8 18.785156 C 8 18.785156 8.074219 18.714844 8.167969 18.609375 C 8.789062 17.902344 9.183594 16.960938 9.234375 15.980469 L 6.414062 15.980469 C 6.511719 17.152344 7.027344 18.273438 7.832031 18.960938 "/>
<path style=" stroke:none;fill-rule:nonzero;fill:rgb(0%,27.843137%,10.588235%);fill-opacity:1;" d="M 6.039062 15.964844 L 4.921875 15.964844 L 4.925781 20.148438 C 5.796875 20.109375 6.714844 19.855469 7.558594 19.1875 C 6.632812 18.367188 6.078125 17.199219 6.039062 15.964844 M 7.628906 12.367188 L 7.648438 12.347656 L 7.636719 12.335938 L 7.597656 12.304688 C 6.933594 11.742188 5.945312 11.34375 4.925781 11.316406 L 4.921875 11.445312 L 4.921875 15.582031 L 6.039062 15.582031 C 6.101562 14.335938 6.671875 13.179688 7.628906 12.367188 "/>
<path style=" stroke:none;fill-rule:nonzero;fill:rgb(0%,27.843137%,10.588235%);fill-opacity:1;" d="M 15.644531 10.113281 L 14.902344 10.113281 L 17.667969 19.238281 L 18.105469 18.238281 Z M 15.644531 10.113281 "/>
<path style=" stroke:none;fill-rule:nonzero;fill:rgb(4.705882%,13.72549%,25.098039%);fill-opacity:1;" d="M 12.726562 4.835938 C 12.4375 5.480469 9.175781 12.734375 9.175781 12.734375 C 8.992188 13.125 8.636719 13.355469 8.621094 13.367188 L 8.574219 13.398438 L 8.488281 13.269531 C 8.328125 13.023438 8.179688 12.851562 7.988281 12.660156 L 7.914062 12.585938 C 7.050781 13.304688 6.484375 14.417969 6.40625 15.582031 L 9.234375 15.582031 C 9.234375 15.507812 9.234375 15.460938 9.234375 15.460938 L 9.234375 15.433594 C 9.261719 15.375 11.726562 9.992188 11.851562 9.65625 C 11.988281 9.296875 12.152344 9.117188 12.730469 9.066406 C 13.25 9.027344 19.652344 9.042969 20.355469 9.050781 L 22.148438 4.835938 Z M 12.726562 4.835938 "/>
<path style=" stroke:none;fill-rule:nonzero;fill:rgb(0%,27.843137%,10.588235%);fill-opacity:1;" d="M 23.492188 4.835938 L 22.75 4.835938 L 20.957031 9.054688 L 21.695312 9.054688 Z M 23.492188 4.835938 "/>
</g>
</svg>
