<?xml version="1.0" encoding="UTF-8"?>
<svg xmlns="http://www.w3.org/2000/svg" xmlns:xlink="http://www.w3.org/1999/xlink" width="44pt" height="20pt" viewBox="0 0 44 20" version="1.1">
<defs>
<clipPath id="clip1">
  <path d="M 0.125 0.125 L 31 0.125 L 31 19.859375 L 0.125 19.859375 Z M 0.125 0.125 "/>
</clipPath>
<clipPath id="clip2">
  <path d="M 10 7 L 22 7 L 22 19.859375 L 10 19.859375 Z M 10 7 "/>
</clipPath>
<clipPath id="clip3">
  <path d="M 21 7 L 32 7 L 32 19.859375 L 21 19.859375 Z M 21 7 "/>
</clipPath>
<clipPath id="clip4">
  <path d="M 31 7 L 43.90625 7 L 43.90625 19.859375 L 31 19.859375 Z M 31 7 "/>
</clipPath>
<clipPath id="clip5">
  <path d="M 0.125 8 L 12 8 L 12 19.859375 L 0.125 19.859375 Z M 0.125 8 "/>
</clipPath>
<clipPath id="clip6">
  <path d="M 0.125 10 L 5 10 L 5 14 L 0.125 14 Z M 0.125 10 "/>
</clipPath>
<clipPath id="clip7">
  <path d="M 0.125 14 L 5 14 L 5 18 L 0.125 18 Z M 0.125 14 "/>
</clipPath>
<clipPath id="clip8">
  <path d="M 2 8 L 6 8 L 6 19.859375 L 2 19.859375 Z M 2 8 "/>
</clipPath>
<clipPath id="clip9">
  <path d="M 6 8 L 10 8 L 10 19.859375 L 6 19.859375 Z M 6 8 "/>
</clipPath>
<clipPath id="clip10">
  <path d="M 8 0.125 L 28 0.125 L 28 14 L 8 14 Z M 8 0.125 "/>
</clipPath>
<clipPath id="clip11">
  <path d="M 26 0.125 L 30 0.125 L 30 6 L 26 6 Z M 26 0.125 "/>
</clipPath>
</defs>
<g id="surface1">
<path style=" stroke:none;fill-rule:nonzero;fill:rgb(100%,100%,100%);fill-opacity:1;" d="M 31.882812 17.710938 L 29.28125 17.710938 L 29.292969 17.683594 L 33.355469 8.460938 L 36.011719 8.460938 Z M 14.617188 14.324219 L 15.296875 12.859375 L 15.617188 14.324219 Z M 38.441406 17.707031 L 38.449219 17.6875 L 43.085938 7.171875 L 43.308594 6.671875 L 41.597656 6.671875 L 41.59375 6.675781 L 34.144531 6.675781 L 34.148438 6.671875 L 21.65625 6.671875 L 21.554688 6.851562 L 20.949219 7.929688 L 20.648438 8.460938 L 26.855469 8.460938 L 23.085938 16.898438 L 20.042969 6.925781 L 19.964844 6.671875 L 18.28125 6.671875 L 18.28125 6.675781 L 15.605469 6.675781 L 15.511719 6.886719 L 10.070312 19.203125 L 9.847656 19.703125 L 12.375 19.703125 L 12.464844 19.476562 L 13.660156 16.46875 L 16.117188 16.46875 L 17.003906 19.445312 L 17.078125 19.703125 L 22.25 19.703125 L 22.25 19.699219 L 43.035156 19.699219 L 43.128906 19.484375 L 43.6875 18.207031 L 43.90625 17.707031 Z M 38.441406 17.707031 "/>
<g clip-path="url(#clip1)" clip-rule="nonzero">
<path style=" stroke:none;fill-rule:nonzero;fill:rgb(100%,100%,100%);fill-opacity:1;" d="M 15.808594 0.125 L 15.714844 0.335938 C 15.359375 1.128906 11.3125 10.046875 11.273438 10.136719 C 11.179688 10.332031 11.039062 10.492188 10.917969 10.605469 C 10.847656 10.507812 10.773438 10.414062 10.699219 10.320312 C 10.632812 10.238281 10.5625 10.160156 10.492188 10.082031 C 10.488281 10.078125 10.484375 10.070312 10.480469 10.066406 C 10.441406 10.027344 10.40625 9.984375 10.371094 9.949219 L 10.269531 9.851562 L 10.039062 9.628906 L 10.03125 9.632812 C 8.980469 8.714844 7.59375 8.15625 6.078125 8.15625 C 2.792969 8.15625 0.125 10.773438 0.125 14.007812 C 0.125 17.238281 2.792969 19.859375 6.078125 19.859375 C 9.363281 19.859375 12.027344 17.238281 12.027344 14.007812 C 12.027344 13.929688 12.027344 13.855469 12.023438 13.777344 C 12.617188 12.464844 15.152344 6.945312 15.289062 6.585938 C 15.40625 6.28125 15.480469 6.140625 16.082031 6.089844 C 16.226562 6.078125 17.007812 6.058594 20.574219 6.058594 C 22.738281 6.058594 25.105469 6.066406 25.582031 6.070312 L 25.792969 6.074219 L 27.5 6.074219 L 27.59375 5.855469 L 29.839844 0.621094 L 30.054688 0.125 Z M 15.808594 0.125 "/>
</g>
<g clip-path="url(#clip2)" clip-rule="nonzero">
<path style=" stroke:none;fill-rule:nonzero;fill:rgb(4.705882%,13.72549%,25.098039%);fill-opacity:1;" d="M 14.046875 14.679688 L 15.414062 11.734375 L 16.054688 14.679688 Z M 18.023438 7.070312 L 15.8125 7.070312 L 10.390625 19.339844 L 12.117188 19.339844 L 13.40625 16.109375 L 16.375 16.109375 L 17.339844 19.339844 L 21.757812 19.339844 Z M 18.023438 7.070312 "/>
</g>
<g clip-path="url(#clip3)" clip-rule="nonzero">
<path style=" stroke:none;fill-rule:nonzero;fill:rgb(4.705882%,13.72549%,25.098039%);fill-opacity:1;" d="M 31.910156 7.027344 L 21.867188 7.027344 L 21.261719 8.105469 L 27.410156 8.105469 L 22.386719 19.339844 L 30.984375 19.339844 L 31.550781 18.066406 L 27.050781 18.066406 Z M 31.910156 7.027344 "/>
</g>
<path style=" stroke:none;fill-rule:nonzero;fill:rgb(0%,27.843137%,10.588235%);fill-opacity:1;" d="M 33.59375 7.027344 L 32.675781 7.027344 L 27.9375 17.542969 L 29.058594 17.542969 Z M 33.59375 7.027344 "/>
<g clip-path="url(#clip4)" clip-rule="nonzero">
<path style=" stroke:none;fill-rule:nonzero;fill:rgb(4.705882%,13.72549%,25.098039%);fill-opacity:1;" d="M 41.070312 7.03125 L 34.242188 7.03125 L 33.714844 8.105469 L 36.566406 8.105469 L 31.550781 19.34375 L 42.796875 19.34375 L 43.355469 18.066406 L 36.210938 18.066406 Z M 41.070312 7.03125 "/>
</g>
<path style=" stroke:none;fill-rule:nonzero;fill:rgb(0%,27.843137%,10.588235%);fill-opacity:1;" d="M 42.757812 7.027344 L 41.832031 7.027344 L 37.195312 17.542969 L 38.121094 17.542969 Z M 42.757812 7.027344 "/>
<g clip-path="url(#clip5)" clip-rule="nonzero">
<path style=" stroke:none;fill-rule:nonzero;fill:rgb(100%,100%,100%);fill-opacity:1;" d="M 11.683594 14.003906 C 11.683594 17.027344 9.1875 19.484375 6.109375 19.484375 C 3.03125 19.484375 0.535156 17.027344 0.535156 14.003906 C 0.535156 10.972656 3.03125 8.519531 6.109375 8.519531 C 9.1875 8.519531 11.683594 10.972656 11.683594 14.003906 "/>
</g>
<g clip-path="url(#clip6)" clip-rule="nonzero">
<path style=" stroke:none;fill-rule:nonzero;fill:rgb(4.705882%,13.72549%,25.098039%);fill-opacity:1;" d="M 4.082031 13.820312 C 3.984375 12.375 3.285156 10.984375 2.203125 10.089844 C 2.15625 10.128906 2.074219 10.21875 2.078125 10.214844 C 1.1875 11.121094 0.605469 12.335938 0.535156 13.820312 Z M 4.082031 13.820312 "/>
</g>
<g clip-path="url(#clip7)" clip-rule="nonzero">
<path style=" stroke:none;fill-rule:nonzero;fill:rgb(4.705882%,13.72549%,25.098039%);fill-opacity:1;" d="M 1.789062 17.46875 L 2.046875 17.761719 L 2.28125 17.992188 C 3.292969 17.144531 3.960938 15.757812 4.082031 14.3125 L 0.542969 14.3125 C 0.597656 15.546875 1.128906 16.707031 1.789062 17.46875 "/>
</g>
<g clip-path="url(#clip8)" clip-rule="nonzero">
<path style=" stroke:none;fill-rule:nonzero;fill:rgb(97.647059%,62.745098%,10.588235%);fill-opacity:1;" d="M 2.550781 9.769531 L 2.515625 9.800781 L 2.488281 9.828125 L 2.476562 9.84375 C 3.675781 10.855469 4.363281 12.265625 4.441406 13.8125 L 5.804688 13.8125 L 5.804688 8.527344 C 4.441406 8.609375 3.371094 9.074219 2.550781 9.769531 M 2.585938 18.246094 C 3.519531 19.015625 4.78125 19.453125 5.808594 19.476562 L 5.804688 14.285156 L 4.441406 14.285156 C 4.386719 15.816406 3.734375 17.230469 2.585938 18.246094 "/>
</g>
<path style=" stroke:none;fill-rule:nonzero;fill:rgb(4.705882%,13.72549%,25.098039%);fill-opacity:1;" d="M 9.921875 18.007812 L 10.132812 17.792969 C 10.132812 17.792969 10.226562 17.703125 10.34375 17.570312 C 11.117188 16.695312 11.613281 15.527344 11.679688 14.3125 L 8.148438 14.3125 C 8.269531 15.761719 8.917969 17.15625 9.921875 18.007812 "/>
<g clip-path="url(#clip9)" clip-rule="nonzero">
<path style=" stroke:none;fill-rule:nonzero;fill:rgb(0%,27.843137%,10.588235%);fill-opacity:1;" d="M 7.679688 14.292969 L 6.28125 14.292969 L 6.285156 19.480469 C 7.378906 19.433594 8.527344 19.121094 9.578125 18.289062 C 8.425781 17.269531 7.730469 15.820312 7.679688 14.292969 M 9.671875 9.828125 L 9.691406 9.804688 L 9.675781 9.789062 L 9.628906 9.75 C 8.800781 9.050781 7.5625 8.558594 6.285156 8.519531 L 6.28125 8.679688 L 6.28125 13.820312 L 7.679688 13.820312 C 7.757812 12.269531 8.472656 10.832031 9.671875 9.828125 "/>
</g>
<path style=" stroke:none;fill-rule:nonzero;fill:rgb(0%,27.843137%,10.588235%);fill-opacity:1;" d="M 19.695312 7.03125 L 18.765625 7.03125 L 22.226562 18.351562 L 22.773438 17.113281 Z M 19.695312 7.03125 "/>
<g clip-path="url(#clip10)" clip-rule="nonzero">
<path style=" stroke:none;fill-rule:nonzero;fill:rgb(4.705882%,13.72549%,25.098039%);fill-opacity:1;" d="M 16.046875 0.484375 C 15.6875 1.28125 11.601562 10.285156 11.601562 10.285156 C 11.375 10.765625 10.929688 11.054688 10.90625 11.070312 L 10.851562 11.109375 L 10.746094 10.949219 C 10.546875 10.640625 10.355469 10.429688 10.117188 10.191406 L 10.027344 10.097656 C 8.945312 10.988281 8.238281 12.371094 8.140625 13.820312 L 11.679688 13.820312 C 11.675781 13.722656 11.675781 13.667969 11.675781 13.667969 L 11.675781 13.628906 C 11.710938 13.558594 14.792969 6.878906 14.953125 6.460938 C 15.121094 6.015625 15.324219 5.796875 16.050781 5.734375 C 16.699219 5.679688 24.707031 5.703125 25.585938 5.714844 L 27.828125 0.484375 Z M 16.046875 0.484375 "/>
</g>
<g clip-path="url(#clip11)" clip-rule="nonzero">
<path style=" stroke:none;fill-rule:nonzero;fill:rgb(0%,27.843137%,10.588235%);fill-opacity:1;" d="M 29.507812 0.484375 L 28.582031 0.484375 L 26.339844 5.71875 L 27.261719 5.71875 Z M 29.507812 0.484375 "/>
</g>
</g>
</svg>
