<?xml version="1.0" encoding="UTF-8"?>
<svg xmlns="http://www.w3.org/2000/svg" xmlns:xlink="http://www.w3.org/1999/xlink" width="35pt" height="25pt" viewBox="0 0 35 25" version="1.1">
<g id="surface1">
<path style=" stroke:none;fill-rule:nonzero;fill:rgb(89.019608%,9.411765%,21.568627%);fill-opacity:1;" d="M 31.039062 1.707031 C 30.984375 1.492188 30.882812 1.308594 30.742188 1.160156 C 30.710938 1.121094 30.65625 1.117188 30.613281 1.152344 C 30.4375 1.34375 30.289062 1.492188 29.835938 1.570312 L 29.890625 1.957031 L 30.949219 1.800781 C 31 1.796875 31.027344 1.8125 31.058594 1.851562 C 31.085938 1.890625 31.039062 1.714844 31.039062 1.707031 "/>
<path style=" stroke:none;fill-rule:nonzero;fill:rgb(89.019608%,9.411765%,21.568627%);fill-opacity:1;" d="M 30.757812 2.628906 C 30.796875 2.652344 30.804688 2.695312 30.808594 2.71875 C 30.8125 2.753906 30.8125 2.765625 30.867188 2.683594 C 30.867188 2.683594 31.039062 2.449219 31.070312 2.070312 C 31.074219 1.964844 30.96875 1.914062 30.902344 1.925781 L 29.90625 2.070312 L 29.953125 2.40625 C 30.277344 2.382812 30.632812 2.535156 30.757812 2.628906 "/>
<path style=" stroke:none;fill-rule:nonzero;fill:rgb(0%,16.862745%,36.078431%);fill-opacity:1;" d="M 9.703125 12.574219 C 9.699219 12.566406 9.699219 12.558594 9.699219 12.550781 C 9.496094 11.542969 9.480469 10.503906 9.640625 9.488281 C 9.644531 9.480469 9.648438 9.464844 9.648438 9.453125 C 9.183594 9.9375 8.683594 10.292969 8.191406 10.476562 C 8.09375 11.433594 8.226562 12.28125 8.28125 12.695312 C 8.335938 13.085938 8.550781 13.839844 8.617188 14.066406 C 9.011719 13.765625 9.441406 13.460938 9.882812 13.175781 Z M 9.703125 12.574219 "/>
<path style=" stroke:none;fill-rule:nonzero;fill:rgb(0%,16.862745%,36.078431%);fill-opacity:1;" d="M 8.023438 13.046875 C 7.871094 12.3125 7.792969 11.667969 7.875 10.601562 C 7.421875 10.742188 7.175781 10.617188 7.042969 10.46875 C 7.03125 10.457031 7.019531 10.441406 7.011719 10.425781 C 7.007812 10.433594 7.003906 10.445312 7.003906 10.453125 C 6.761719 11.714844 6.800781 13.011719 7.152344 14.25 L 7.414062 15.050781 C 7.695312 14.800781 8.015625 14.53125 8.363281 14.261719 C 8.324219 14.144531 8.132812 13.5625 8.023438 13.046875 "/>
<path style=" stroke:none;fill-rule:nonzero;fill:rgb(89.019608%,9.411765%,21.568627%);fill-opacity:1;" d="M 10.132812 11.960938 C 10.175781 12.171875 10.234375 12.113281 10.234375 12.113281 C 12.179688 10.890625 13.984375 10.222656 14.539062 10.03125 C 14.378906 9.582031 13.976562 8.441406 13.9375 8.328125 C 13.378906 8.566406 12.832031 8.816406 12.3125 9.085938 C 12.3125 9.085938 12.9375 7.675781 13.492188 7.0625 C 13.105469 5.972656 12.785156 5.078125 12.628906 4.632812 C 12.074219 5.226562 9.4375 8.261719 10.097656 11.753906 Z M 22.484375 5.609375 C 21.90625 6.4375 21.253906 7.539062 20.628906 8.757812 L 24.964844 7.917969 L 27.492188 4.625 C 26.785156 4.734375 24.871094 5.046875 22.484375 5.609375 M 19.953125 10.140625 C 19.941406 10.167969 19.929688 10.199219 19.914062 10.226562 C 18.808594 12.640625 17.9375 15.273438 17.917969 17.09375 L 23.835938 9.390625 Z M 6.855469 16.261719 C 5.835938 17.417969 4.875 18.792969 4.089844 20.429688 C 3.984375 20.644531 3.933594 20.765625 3.933594 20.765625 L 6.792969 18.359375 C 6.960938 18.210938 7.585938 17.707031 7.613281 17.683594 C 9.253906 16.421875 11.289062 15.363281 14.332031 14.402344 C 14.902344 14.207031 15.429688 14.046875 15.902344 13.914062 C 15.648438 13.179688 15.304688 12.210938 14.941406 11.171875 C 12.121094 11.914062 8.941406 14.105469 6.855469 16.261719 M 19.765625 4.859375 L 19.496094 5.082031 L 19.558594 4.75 L 19.25 4.578125 L 19.605469 4.53125 L 19.679688 4.203125 L 19.839844 4.503906 L 20.195312 4.46875 L 19.9375 4.703125 L 20.085938 5.015625 Z M 21.613281 3.292969 C 21.613281 3.292969 22.210938 3.652344 22.511719 3.894531 C 22.511719 3.894531 22.179688 3.121094 21.796875 2.503906 C 21.796875 2.503906 19.722656 3.269531 18.117188 5.636719 L 20.089844 5.230469 C 20.5 4.523438 20.84375 4.0625 21.613281 3.292969 "/>
<path style=" stroke:none;fill-rule:nonzero;fill:rgb(0%,16.862745%,36.078431%);fill-opacity:1;" d="M 10.28125 17.972656 C 10.175781 18.070312 10.117188 18.195312 10.105469 18.355469 C 10.097656 18.507812 10.136719 18.667969 10.195312 18.820312 C 10.207031 18.824219 10.214844 18.832031 10.226562 18.839844 C 10.988281 19.34375 11.835938 19.714844 12.730469 19.949219 C 12.757812 19.960938 12.789062 19.96875 12.824219 19.976562 C 11.792969 19.472656 10.957031 18.757812 10.28125 17.972656 "/>
<path style=" stroke:none;fill-rule:nonzero;fill:rgb(0%,16.862745%,36.078431%);fill-opacity:1;" d="M 10.0625 17.710938 C 9.875 17.476562 9.703125 17.238281 9.542969 17 C 9.257812 17.175781 8.984375 17.359375 8.726562 17.542969 C 9.050781 17.902344 9.402344 18.230469 9.78125 18.519531 C 9.789062 18.523438 9.792969 18.53125 9.800781 18.535156 C 9.792969 18.464844 9.789062 18.394531 9.792969 18.320312 C 9.800781 18.136719 9.863281 17.902344 10.0625 17.710938 "/>
<path style=" stroke:none;fill-rule:nonzero;fill:rgb(0%,16.862745%,36.078431%);fill-opacity:1;" d="M 14.011719 17.75 C 13.960938 17.730469 13.90625 17.707031 13.855469 17.683594 C 12.546875 17.367188 11.15625 17.445312 10.558594 17.796875 C 11.554688 18.929688 12.902344 19.898438 14.707031 20.246094 C 14.753906 20.246094 14.796875 20.246094 14.839844 20.246094 C 16.710938 20.292969 18.667969 19.78125 20.4375 18.664062 C 20.890625 18.382812 21.308594 18.070312 21.699219 17.734375 C 19.394531 18.726562 16.429688 18.691406 14.011719 17.75 "/>
<path style=" stroke:none;fill-rule:nonzero;fill:rgb(0%,16.862745%,36.078431%);fill-opacity:1;" d="M 18.089844 11.96875 C 17.664062 10.351562 18.074219 8.667969 18.074219 8.667969 C 17.328125 9.628906 16.523438 12.207031 16.523438 12.207031 C 16.351562 9.890625 17.171875 8.207031 17.816406 6.863281 C 16.757812 7.203125 15.566406 7.628906 14.316406 8.15625 C 15.015625 10.132812 15.8125 12.394531 16.300781 13.796875 C 16.515625 13.734375 16.703125 13.679688 16.882812 13.636719 L 16.890625 13.605469 C 16.890625 13.605469 17.042969 12.613281 17.363281 11.914062 C 17.394531 12.640625 17.566406 13.476562 17.566406 13.476562 C 17.773438 13.433594 17.988281 13.390625 18.238281 13.34375 C 18.589844 12.261719 19.042969 11.136719 19.535156 10.054688 C 20.277344 8.429688 21.117188 6.90625 21.882812 5.75 C 21.574219 5.820312 20.921875 5.976562 20.027344 6.214844 C 18.257812 9.351562 18.089844 11.96875 18.089844 11.96875 "/>
<path style=" stroke:none;fill-rule:nonzero;fill:rgb(0%,16.862745%,36.078431%);fill-opacity:1;" d="M 29.113281 4.242188 L 28.617188 4.023438 C 28.257812 4.292969 28.121094 4.730469 28.121094 4.730469 L 27.894531 4.796875 L 27.078125 5.855469 C 29.46875 5.148438 29.675781 4.683594 30.042969 3.476562 C 29.566406 3.902344 29.304688 4.191406 29.113281 4.242188 "/>
<path style=" stroke:none;fill-rule:nonzero;fill:rgb(0%,16.862745%,36.078431%);fill-opacity:1;" d="M 18.734375 6.832031 C 18.910156 6.667969 19.457031 6.421875 19.457031 6.421875 L 18.746094 6.613281 C 18.746094 6.613281 18.730469 6.753906 18.734375 6.832031 "/>
<path style=" stroke:none;fill-rule:nonzero;fill:rgb(0%,16.862745%,36.078431%);fill-opacity:1;" d="M 19.496094 5.082031 L 19.765625 4.855469 L 20.085938 5.011719 L 19.941406 4.703125 L 20.199219 4.46875 L 19.839844 4.503906 L 19.679688 4.199219 L 19.605469 4.53125 L 19.25 4.582031 L 19.558594 4.75 Z M 19.496094 5.082031 "/>
<path style=" stroke:none;fill-rule:nonzero;fill:rgb(0%,16.862745%,36.078431%);fill-opacity:1;" d="M 19.640625 6.128906 L 20.03125 5.992188 L 19.980469 5.417969 L 18.363281 5.835938 L 18.304688 6.109375 C 18.265625 5.984375 18.257812 5.941406 18.222656 5.9375 C 18.082031 5.925781 18.136719 6.066406 18.125 6.097656 C 18.113281 6.128906 18.179688 6.402344 18.269531 6.4375 L 18.277344 6.667969 L 18.679688 6.542969 L 18.851562 6.402344 L 19.5625 6.253906 Z M 19.453125 5.914062 L 18.9375 5.890625 L 19.488281 5.699219 C 19.546875 5.789062 19.503906 5.886719 19.453125 5.914062 "/>
<path style=" stroke:none;fill-rule:nonzero;fill:rgb(0%,16.862745%,36.078431%);fill-opacity:1;" d="M 9.773438 8.820312 C 9.78125 8.804688 9.78125 8.789062 9.785156 8.773438 C 10.355469 6.421875 11.855469 4.277344 14.046875 3.027344 C 13.574219 3.15625 13.066406 3.28125 12.296875 3.664062 C 11.609375 4.003906 10.980469 4.410156 10.410156 4.871094 C 10.386719 4.890625 10.363281 4.910156 10.339844 4.929688 C 9.121094 6.503906 8.460938 8.4375 8.234375 10.09375 C 8.761719 9.859375 9.292969 9.414062 9.773438 8.820312 "/>
<path style=" stroke:none;fill-rule:nonzero;fill:rgb(0%,16.862745%,36.078431%);fill-opacity:1;" d="M 7.261719 10.234375 C 7.425781 10.347656 7.601562 10.355469 7.914062 10.226562 C 8.078125 8.859375 8.523438 7.308594 9.320312 5.894531 C 9.300781 5.917969 9.277344 5.9375 9.257812 5.964844 C 8.207031 7.140625 7.472656 8.527344 7.109375 9.980469 C 7.105469 9.996094 7.101562 10.007812 7.101562 10.019531 C 7.128906 10.101562 7.175781 10.179688 7.261719 10.234375 "/>
<path style=" stroke:none;fill-rule:nonzero;fill:rgb(0%,16.862745%,36.078431%);fill-opacity:1;" d="M 9.816406 16.832031 C 9.976562 17.070312 10.144531 17.300781 10.332031 17.53125 C 10.835938 17.199219 11.789062 17.078125 12.796875 17.167969 C 12.785156 17.160156 12.773438 17.152344 12.757812 17.144531 C 12.21875 16.832031 11.726562 16.460938 11.300781 16.039062 C 10.765625 16.296875 10.273438 16.5625 9.816406 16.832031 "/>
<path style=" stroke:none;fill-rule:nonzero;fill:rgb(0%,16.862745%,36.078431%);fill-opacity:1;" d="M 14.71875 3.121094 C 14.339844 3.257812 13.628906 3.582031 12.957031 4.308594 C 13.011719 4.460938 13.113281 4.757812 13.257812 5.15625 L 13.410156 4.976562 C 13.410156 4.976562 14.070312 4.777344 14.371094 4.671875 L 14.261719 3.820312 L 14.65625 3.398438 Z M 14.71875 3.121094 "/>
<path style=" stroke:none;fill-rule:nonzero;fill:rgb(0%,16.862745%,36.078431%);fill-opacity:1;" d="M 20.207031 24.839844 L 19.941406 24.183594 C 20.066406 24.179688 20.1875 24.128906 20.242188 24.074219 C 20.335938 23.988281 20.410156 23.808594 20.472656 23.53125 C 20.472656 23.53125 20.566406 23.039062 20.578125 22.964844 C 20.597656 22.8125 20.554688 22.710938 20.488281 22.664062 C 20.417969 22.613281 20.289062 22.589844 20.105469 22.589844 L 18.105469 22.589844 C 18.105469 22.589844 18.28125 22.707031 18.25 22.875 L 17.789062 24.992188 L 18.273438 24.992188 C 18.371094 24.992188 18.441406 24.984375 18.488281 24.917969 L 18.640625 24.199219 L 19.246094 24.199219 L 19.515625 24.992188 L 20.378906 24.992188 C 20.375 24.996094 20.253906 24.933594 20.207031 24.839844 M 19.875 23.296875 C 19.871094 23.347656 19.828125 23.523438 19.792969 23.566406 C 19.761719 23.605469 19.722656 23.628906 19.675781 23.628906 L 19.011719 23.628906 C 18.921875 23.628906 18.820312 23.710938 18.726562 23.8125 L 18.863281 23.171875 L 19.777344 23.171875 C 19.847656 23.171875 19.878906 23.210938 19.875 23.296875 "/>
<path style=" stroke:none;fill-rule:nonzero;fill:rgb(0%,16.862745%,36.078431%);fill-opacity:1;" d="M 17.125 22.589844 L 16.375 22.589844 C 16.277344 22.589844 16.210938 22.617188 16.15625 22.691406 L 15.085938 24.761719 C 15.019531 24.894531 14.863281 24.996094 14.863281 24.996094 L 15.59375 24.996094 C 15.671875 24.996094 15.738281 24.941406 15.773438 24.871094 L 15.921875 24.578125 L 16.835938 24.578125 L 16.886719 24.804688 C 16.894531 24.957031 16.75 24.996094 16.75 24.996094 L 17.695312 24.996094 Z M 16.195312 24 L 16.5625 23.234375 L 16.722656 24 Z M 16.195312 24 "/>
<path style=" stroke:none;fill-rule:nonzero;fill:rgb(0%,16.862745%,36.078431%);fill-opacity:1;" d="M 23.375 22.964844 C 23.394531 22.8125 23.355469 22.714844 23.285156 22.667969 C 23.21875 22.617188 23.089844 22.589844 22.902344 22.589844 L 20.890625 22.589844 C 20.890625 22.589844 21.050781 22.714844 21.035156 22.878906 L 20.636719 24.75 C 20.589844 24.875 20.476562 24.976562 20.441406 24.992188 L 22.40625 24.996094 C 22.636719 24.996094 22.800781 24.953125 22.890625 24.871094 C 22.984375 24.785156 23.0625 24.605469 23.121094 24.324219 L 23.335938 23.203125 C 23.359375 23.089844 23.367188 23.039062 23.375 22.964844 M 22.671875 23.296875 C 22.671875 23.347656 22.476562 24.324219 22.441406 24.363281 C 22.414062 24.40625 22.371094 24.429688 22.324219 24.429688 L 21.390625 24.429688 L 21.582031 23.523438 C 21.59375 23.464844 21.621094 23.328125 21.652344 23.171875 L 22.574219 23.171875 C 22.644531 23.171875 22.679688 23.210938 22.671875 23.296875 "/>
<path style=" stroke:none;fill-rule:nonzero;fill:rgb(0%,16.862745%,36.078431%);fill-opacity:1;" d="M 26.046875 22.589844 L 24.488281 22.589844 C 24.171875 22.589844 23.949219 22.632812 23.828125 22.71875 C 23.703125 22.804688 23.613281 22.992188 23.554688 23.269531 L 23.503906 23.507812 C 23.496094 23.546875 23.492188 23.582031 23.492188 23.613281 C 23.492188 23.746094 23.539062 23.851562 23.632812 23.9375 C 23.746094 24.039062 23.914062 24.085938 24.140625 24.085938 L 25.152344 24.085938 C 25.289062 24.085938 25.355469 24.132812 25.355469 24.226562 C 25.355469 24.25 25.347656 24.277344 25.335938 24.296875 C 25.335938 24.296875 25.296875 24.414062 25.023438 24.414062 L 23.570312 24.414062 C 23.421875 24.40625 23.351562 24.171875 23.351562 24.171875 L 23.226562 24.804688 C 23.207031 24.949219 23.308594 24.992188 23.4375 24.992188 L 25.042969 24.992188 C 25.363281 24.992188 25.582031 24.949219 25.707031 24.863281 C 25.832031 24.777344 25.910156 24.605469 25.972656 24.324219 C 25.972656 24.324219 26.011719 24.117188 26.019531 24.058594 C 26.0625 23.726562 25.847656 23.507812 25.492188 23.507812 L 24.421875 23.507812 C 24.277344 23.507812 24.203125 23.460938 24.203125 23.371094 C 24.203125 23.367188 24.210938 23.332031 24.210938 23.328125 C 24.230469 23.269531 24.253906 23.164062 24.46875 23.164062 L 25.859375 23.164062 C 26.015625 23.164062 26.117188 23.382812 26.117188 23.382812 C 26.117188 23.382812 26.199219 22.992188 26.242188 22.78125 C 26.257812 22.660156 26.171875 22.589844 26.046875 22.589844 "/>
<path style=" stroke:none;fill-rule:nonzero;fill:rgb(0%,16.862745%,36.078431%);fill-opacity:1;" d="M 11.339844 22.59375 C 11.261719 22.59375 11.179688 22.597656 11.148438 22.65625 L 10.3125 24.34375 L 10.15625 22.828125 C 10.148438 22.683594 10.335938 22.601562 10.335938 22.601562 C 10.335938 22.601562 9.707031 22.597656 9.703125 22.597656 C 9.59375 22.597656 9.507812 22.625 9.449219 22.707031 L 8.585938 24.34375 L 8.523438 22.816406 C 8.546875 22.695312 8.722656 22.601562 8.722656 22.601562 L 8.03125 22.59375 C 8.03125 22.59375 8.027344 22.59375 8.023438 22.59375 C 7.773438 22.601562 7.777344 22.757812 7.777344 22.757812 L 7.953125 24.992188 L 8.699219 24.992188 C 8.804688 24.992188 8.851562 24.980469 8.90625 24.90625 L 9.605469 23.597656 L 9.675781 24.992188 L 10.488281 24.992188 C 10.585938 24.992188 10.652344 24.980469 10.710938 24.90625 L 11.804688 22.832031 C 11.882812 22.691406 12.027344 22.589844 12.027344 22.589844 C 12.027344 22.589844 11.34375 22.59375 11.339844 22.59375 "/>
<path style=" stroke:none;fill-rule:nonzero;fill:rgb(0%,16.862745%,36.078431%);fill-opacity:1;" d="M 12.300781 24.773438 C 12.300781 24.773438 12.707031 22.855469 12.730469 22.769531 C 12.753906 22.683594 12.875 22.597656 12.875 22.597656 C 12.808594 22.597656 12.496094 22.601562 12.222656 22.597656 C 12.222656 22.597656 12.082031 22.570312 12.023438 22.882812 L 11.574219 24.996094 L 12.316406 24.996094 C 12.316406 24.996094 12.285156 24.90625 12.300781 24.773438 "/>
<path style=" stroke:none;fill-rule:nonzero;fill:rgb(0%,16.862745%,36.078431%);fill-opacity:1;" d="M 15.1875 23.0625 L 15.292969 22.59375 C 15.292969 22.59375 13.199219 22.59375 13.175781 22.597656 C 13.027344 22.613281 12.96875 22.71875 12.929688 22.84375 L 12.859375 23.171875 L 12.828125 23.304688 C 12.828125 23.304688 12.964844 23.179688 13.113281 23.171875 L 14.214844 23.171875 L 12.554688 24.597656 L 12.472656 24.992188 L 14.570312 24.992188 C 14.6875 24.992188 14.769531 24.980469 14.8125 24.859375 L 14.9375 24.253906 C 14.9375 24.253906 14.800781 24.40625 14.652344 24.417969 L 13.632812 24.417969 Z M 15.1875 23.0625 "/>
<path style=" stroke:none;fill-rule:nonzero;fill:rgb(89.019608%,9.411765%,21.568627%);fill-opacity:1;" d="M 28.878906 1.40625 C 28.792969 1.347656 28.855469 1.226562 28.785156 1.34375 L 28.777344 1.359375 C 28.683594 1.507812 28.628906 1.675781 28.609375 1.855469 C 28.597656 2.050781 28.65625 2.136719 28.742188 2.128906 L 29.773438 1.976562 L 29.71875 1.59375 C 29.210938 1.652344 28.878906 1.40625 28.878906 1.40625 "/>
<path style=" stroke:none;fill-rule:nonzero;fill:rgb(89.019608%,9.411765%,21.568627%);fill-opacity:1;" d="M 30.511719 1.097656 C 30.589844 1.023438 30.65625 1.078125 30.605469 1.035156 C 30.601562 1.03125 30.574219 1.011719 30.574219 1.011719 C 30.34375 0.839844 30.0625 0.75 29.757812 0.765625 C 29.757812 0.765625 29.738281 0.769531 29.714844 0.769531 L 29.8125 1.457031 C 30.164062 1.394531 30.355469 1.257812 30.511719 1.097656 "/>
<path style=" stroke:none;fill-rule:nonzero;fill:rgb(89.019608%,9.411765%,21.568627%);fill-opacity:1;" d="M 29.542969 0.796875 C 29.320312 0.851562 29.125 0.964844 28.972656 1.113281 C 28.902344 1.179688 28.902344 1.296875 28.996094 1.347656 C 29.203125 1.453125 29.484375 1.5 29.699219 1.476562 L 29.601562 0.785156 C 29.582031 0.789062 29.5625 0.792969 29.542969 0.796875 "/>
<path style=" stroke:none;fill-rule:nonzero;fill:rgb(89.019608%,9.411765%,21.568627%);fill-opacity:1;" d="M 29.160156 2.890625 C 29.085938 2.972656 29.042969 2.921875 29.03125 2.933594 C 29.019531 2.945312 29.085938 2.988281 29.085938 2.988281 C 29.304688 3.15625 29.578125 3.242188 29.859375 3.234375 C 29.859375 3.234375 29.910156 3.234375 29.953125 3.230469 L 29.851562 2.53125 C 29.550781 2.582031 29.367188 2.6875 29.160156 2.890625 "/>
<path style=" stroke:none;fill-rule:nonzero;fill:rgb(89.019608%,9.411765%,21.568627%);fill-opacity:1;" d="M 30.128906 3.203125 C 30.175781 3.191406 30.230469 3.175781 30.28125 3.15625 C 30.417969 3.101562 30.554688 3.019531 30.652344 2.929688 C 30.75 2.839844 30.710938 2.738281 30.652344 2.703125 C 30.515625 2.625 30.285156 2.492188 29.96875 2.515625 L 30.070312 3.21875 C 30.089844 3.210938 30.109375 3.207031 30.128906 3.203125 "/>
<path style=" stroke:none;fill-rule:nonzero;fill:rgb(89.019608%,9.411765%,21.568627%);fill-opacity:1;" d="M 28.71875 2.246094 C 28.664062 2.25 28.644531 2.21875 28.628906 2.199219 C 28.605469 2.167969 28.609375 2.214844 28.632812 2.292969 C 28.679688 2.496094 28.777344 2.675781 28.90625 2.820312 C 28.945312 2.859375 29.03125 2.859375 29.070312 2.820312 C 29.242188 2.628906 29.457031 2.492188 29.839844 2.425781 L 29.792969 2.089844 Z M 28.71875 2.246094 "/>
<path style=" stroke:none;fill-rule:nonzero;fill:rgb(89.019608%,9.411765%,21.568627%);fill-opacity:1;" d="M 18.492188 1.621094 L 16.578125 2.136719 L 17.253906 0.925781 L 16.082031 1.835938 L 16.410156 0 L 15.75 1.570312 L 15.097656 0.644531 L 15.429688 2.050781 L 13.917969 1.84375 L 15.222656 2.546875 L 14.714844 3.117188 L 14.65625 3.398438 L 15.371094 3.238281 L 15.332031 4.585938 L 16.054688 3.183594 L 16.894531 4.105469 L 16.40625 2.828125 Z M 18.492188 1.621094 "/>
</g>
</svg>
