<?xml version="1.0" encoding="UTF-8"?>
<svg xmlns="http://www.w3.org/2000/svg" xmlns:xlink="http://www.w3.org/1999/xlink" width="28pt" height="20pt" viewBox="0 0 28 20" version="1.1">
<g id="surface1">
<path style=" stroke:none;fill-rule:nonzero;fill:rgb(89.019608%,9.411765%,21.568627%);fill-opacity:1;" d="M 24.828125 1.363281 C 24.789062 1.195312 24.703125 1.046875 24.59375 0.925781 C 24.570312 0.898438 24.527344 0.890625 24.492188 0.921875 C 24.351562 1.074219 24.230469 1.195312 23.867188 1.257812 L 23.914062 1.566406 L 24.757812 1.441406 C 24.800781 1.4375 24.820312 1.449219 24.847656 1.480469 C 24.871094 1.515625 24.828125 1.371094 24.828125 1.363281 "/>
<path style=" stroke:none;fill-rule:nonzero;fill:rgb(89.019608%,9.411765%,21.568627%);fill-opacity:1;" d="M 24.605469 2.101562 C 24.636719 2.121094 24.644531 2.15625 24.648438 2.175781 C 24.648438 2.203125 24.652344 2.214844 24.695312 2.148438 C 24.695312 2.148438 24.832031 1.960938 24.855469 1.65625 C 24.859375 1.570312 24.777344 1.53125 24.722656 1.542969 L 23.925781 1.65625 L 23.960938 1.925781 C 24.222656 1.90625 24.507812 2.027344 24.605469 2.101562 "/>
<path style=" stroke:none;fill-rule:nonzero;fill:rgb(0%,16.862745%,36.078431%);fill-opacity:1;" d="M 7.761719 10.058594 C 7.761719 10.050781 7.761719 10.046875 7.757812 10.039062 C 7.597656 9.234375 7.585938 8.402344 7.714844 7.59375 C 7.714844 7.582031 7.71875 7.570312 7.71875 7.5625 C 7.347656 7.949219 6.945312 8.234375 6.550781 8.378906 C 6.476562 9.148438 6.582031 9.824219 6.625 10.15625 C 6.671875 10.46875 6.839844 11.074219 6.894531 11.253906 C 7.210938 11.011719 7.550781 10.769531 7.90625 10.539062 Z M 7.761719 10.058594 "/>
<path style=" stroke:none;fill-rule:nonzero;fill:rgb(0%,16.862745%,36.078431%);fill-opacity:1;" d="M 6.417969 10.4375 C 6.296875 9.851562 6.234375 9.335938 6.300781 8.480469 C 5.9375 8.59375 5.738281 8.492188 5.632812 8.375 C 5.625 8.363281 5.617188 8.355469 5.609375 8.339844 C 5.605469 8.347656 5.605469 8.355469 5.605469 8.363281 C 5.410156 9.371094 5.441406 10.410156 5.722656 11.402344 L 5.933594 12.042969 C 6.15625 11.839844 6.414062 11.625 6.691406 11.410156 C 6.660156 11.316406 6.503906 10.851562 6.417969 10.4375 "/>
<path style=" stroke:none;fill-rule:nonzero;fill:rgb(89.019608%,9.411765%,21.568627%);fill-opacity:1;" d="M 8.105469 9.570312 C 8.140625 9.738281 8.1875 9.691406 8.1875 9.691406 C 9.742188 8.714844 11.1875 8.175781 11.632812 8.023438 C 11.503906 7.664062 11.183594 6.753906 11.148438 6.664062 C 10.703125 6.855469 10.265625 7.050781 9.851562 7.269531 C 9.851562 7.269531 10.351562 6.140625 10.792969 5.648438 C 10.484375 4.777344 10.230469 4.0625 10.105469 3.707031 C 9.660156 4.179688 7.550781 6.609375 8.078125 9.402344 Z M 17.988281 4.484375 C 17.523438 5.152344 17.003906 6.03125 16.5 7.003906 L 19.972656 6.335938 L 21.992188 3.699219 C 21.425781 3.785156 19.898438 4.035156 17.988281 4.484375 M 15.964844 8.113281 C 15.953125 8.136719 15.945312 8.160156 15.929688 8.179688 C 15.046875 10.113281 14.347656 12.21875 14.335938 13.675781 L 19.066406 7.511719 Z M 5.484375 13.007812 C 4.667969 13.933594 3.898438 15.035156 3.273438 16.34375 C 3.1875 16.515625 3.144531 16.613281 3.144531 16.613281 L 5.433594 14.6875 C 5.570312 14.570312 6.066406 14.164062 6.089844 14.148438 C 7.40625 13.136719 9.03125 12.292969 11.464844 11.523438 C 11.921875 11.367188 12.34375 11.238281 12.71875 11.128906 C 12.515625 10.542969 12.242188 9.769531 11.953125 8.9375 C 9.699219 9.53125 7.15625 11.285156 5.484375 13.007812 M 15.8125 3.886719 L 15.597656 4.066406 L 15.648438 3.800781 L 15.398438 3.660156 L 15.683594 3.625 L 15.746094 3.359375 L 15.871094 3.605469 L 16.15625 3.574219 L 15.949219 3.761719 L 16.070312 4.011719 Z M 17.292969 2.632812 C 17.292969 2.632812 17.769531 2.921875 18.007812 3.117188 C 18.007812 3.117188 17.742188 2.496094 17.4375 2.003906 C 17.4375 2.003906 15.777344 2.613281 14.496094 4.507812 L 16.070312 4.183594 C 16.398438 3.621094 16.675781 3.25 17.292969 2.632812 "/>
<path style=" stroke:none;fill-rule:nonzero;fill:rgb(0%,16.862745%,36.078431%);fill-opacity:1;" d="M 8.226562 14.378906 C 8.140625 14.457031 8.09375 14.558594 8.085938 14.683594 C 8.078125 14.804688 8.109375 14.933594 8.15625 15.054688 C 8.164062 15.058594 8.171875 15.066406 8.183594 15.070312 C 8.789062 15.476562 9.46875 15.773438 10.183594 15.960938 C 10.207031 15.96875 10.234375 15.976562 10.257812 15.980469 C 9.433594 15.578125 8.765625 15.007812 8.226562 14.378906 "/>
<path style=" stroke:none;fill-rule:nonzero;fill:rgb(0%,16.862745%,36.078431%);fill-opacity:1;" d="M 8.050781 14.167969 C 7.902344 13.980469 7.761719 13.792969 7.632812 13.601562 C 7.40625 13.742188 7.1875 13.886719 6.980469 14.035156 C 7.238281 14.320312 7.523438 14.582031 7.824219 14.816406 C 7.832031 14.820312 7.835938 14.824219 7.839844 14.828125 C 7.835938 14.769531 7.832031 14.714844 7.835938 14.65625 C 7.839844 14.507812 7.890625 14.320312 8.050781 14.167969 "/>
<path style=" stroke:none;fill-rule:nonzero;fill:rgb(0%,16.862745%,36.078431%);fill-opacity:1;" d="M 11.210938 14.199219 C 11.167969 14.183594 11.125 14.164062 11.082031 14.148438 C 10.035156 13.894531 8.925781 13.957031 8.445312 14.238281 C 9.242188 15.144531 10.324219 15.917969 11.765625 16.195312 C 11.804688 16.195312 11.839844 16.195312 11.875 16.199219 C 13.371094 16.234375 14.933594 15.828125 16.351562 14.929688 C 16.710938 14.703125 17.046875 14.453125 17.359375 14.1875 C 15.515625 14.980469 13.144531 14.953125 11.210938 14.199219 "/>
<path style=" stroke:none;fill-rule:nonzero;fill:rgb(0%,16.862745%,36.078431%);fill-opacity:1;" d="M 14.472656 9.574219 C 14.132812 8.28125 14.460938 6.933594 14.460938 6.933594 C 13.863281 7.703125 13.21875 9.765625 13.21875 9.765625 C 13.082031 7.914062 13.738281 6.566406 14.253906 5.488281 C 13.40625 5.761719 12.453125 6.101562 11.453125 6.527344 C 12.015625 8.109375 12.652344 9.914062 13.039062 11.039062 C 13.210938 10.988281 13.363281 10.945312 13.507812 10.910156 L 13.515625 10.882812 C 13.515625 10.882812 13.636719 10.089844 13.890625 9.53125 C 13.917969 10.113281 14.054688 10.78125 14.054688 10.78125 C 14.21875 10.746094 14.390625 10.710938 14.59375 10.675781 C 14.871094 9.808594 15.234375 8.910156 15.628906 8.042969 C 16.222656 6.742188 16.894531 5.523438 17.507812 4.597656 C 17.257812 4.65625 16.738281 4.78125 16.023438 4.972656 C 14.605469 7.480469 14.472656 9.574219 14.472656 9.574219 "/>
<path style=" stroke:none;fill-rule:nonzero;fill:rgb(0%,16.862745%,36.078431%);fill-opacity:1;" d="M 23.289062 3.394531 L 22.890625 3.21875 C 22.605469 3.433594 22.496094 3.785156 22.496094 3.785156 L 22.316406 3.839844 L 21.660156 4.683594 C 23.574219 4.117188 23.742188 3.75 24.035156 2.78125 C 23.652344 3.125 23.441406 3.351562 23.289062 3.394531 "/>
<path style=" stroke:none;fill-rule:nonzero;fill:rgb(0%,16.862745%,36.078431%);fill-opacity:1;" d="M 14.988281 5.464844 C 15.125 5.335938 15.566406 5.136719 15.566406 5.136719 L 14.996094 5.289062 C 14.996094 5.289062 14.984375 5.402344 14.988281 5.464844 "/>
<path style=" stroke:none;fill-rule:nonzero;fill:rgb(0%,16.862745%,36.078431%);fill-opacity:1;" d="M 15.597656 4.066406 L 15.8125 3.886719 L 16.066406 4.011719 L 15.953125 3.761719 L 16.160156 3.574219 L 15.871094 3.601562 L 15.746094 3.359375 L 15.683594 3.625 L 15.398438 3.664062 L 15.648438 3.800781 Z M 15.597656 4.066406 "/>
<path style=" stroke:none;fill-rule:nonzero;fill:rgb(0%,16.862745%,36.078431%);fill-opacity:1;" d="M 15.710938 4.902344 L 16.027344 4.792969 L 15.984375 4.335938 L 14.6875 4.671875 L 14.644531 4.886719 C 14.613281 4.785156 14.609375 4.753906 14.578125 4.75 C 14.464844 4.738281 14.507812 4.851562 14.5 4.875 C 14.488281 4.902344 14.542969 5.121094 14.613281 5.148438 L 14.621094 5.335938 L 14.945312 5.234375 L 15.082031 5.121094 L 15.652344 5.003906 Z M 15.5625 4.730469 L 15.152344 4.714844 L 15.589844 4.558594 C 15.636719 4.628906 15.601562 4.707031 15.5625 4.730469 "/>
<path style=" stroke:none;fill-rule:nonzero;fill:rgb(0%,16.862745%,36.078431%);fill-opacity:1;" d="M 7.820312 7.058594 C 7.824219 7.046875 7.824219 7.03125 7.828125 7.019531 C 8.285156 5.140625 9.484375 3.421875 11.238281 2.421875 C 10.859375 2.523438 10.453125 2.625 9.839844 2.929688 C 9.289062 3.203125 8.785156 3.527344 8.328125 3.898438 C 8.308594 3.914062 8.289062 3.929688 8.269531 3.941406 C 7.296875 5.203125 6.769531 6.75 6.585938 8.074219 C 7.007812 7.886719 7.4375 7.53125 7.820312 7.058594 "/>
<path style=" stroke:none;fill-rule:nonzero;fill:rgb(0%,16.862745%,36.078431%);fill-opacity:1;" d="M 5.808594 8.1875 C 5.941406 8.277344 6.082031 8.28125 6.332031 8.179688 C 6.460938 7.089844 6.820312 5.847656 7.457031 4.714844 C 7.4375 4.734375 7.421875 4.75 7.40625 4.769531 C 6.5625 5.710938 5.976562 6.824219 5.6875 7.984375 C 5.683594 7.996094 5.683594 8.007812 5.679688 8.015625 C 5.703125 8.082031 5.742188 8.144531 5.808594 8.1875 "/>
<path style=" stroke:none;fill-rule:nonzero;fill:rgb(0%,16.862745%,36.078431%);fill-opacity:1;" d="M 7.855469 13.46875 C 7.980469 13.65625 8.117188 13.84375 8.265625 14.023438 C 8.667969 13.757812 9.433594 13.664062 10.238281 13.734375 C 10.230469 13.726562 10.21875 13.71875 10.207031 13.71875 C 9.773438 13.464844 9.382812 13.167969 9.039062 12.832031 C 8.613281 13.039062 8.21875 13.25 7.855469 13.46875 "/>
<path style=" stroke:none;fill-rule:nonzero;fill:rgb(0%,16.862745%,36.078431%);fill-opacity:1;" d="M 11.773438 2.496094 C 11.472656 2.605469 10.902344 2.867188 10.363281 3.445312 C 10.40625 3.566406 10.492188 3.804688 10.605469 4.125 L 10.730469 3.980469 C 10.730469 3.980469 11.257812 3.820312 11.496094 3.738281 L 11.410156 3.054688 L 11.726562 2.71875 Z M 11.773438 2.496094 "/>
<path style=" stroke:none;fill-rule:nonzero;fill:rgb(0%,16.862745%,36.078431%);fill-opacity:1;" d="M 16.164062 19.871094 L 15.953125 19.347656 C 16.054688 19.34375 16.148438 19.304688 16.195312 19.261719 C 16.269531 19.191406 16.328125 19.046875 16.378906 18.824219 C 16.378906 18.824219 16.453125 18.433594 16.460938 18.371094 C 16.480469 18.25 16.445312 18.171875 16.390625 18.132812 C 16.335938 18.09375 16.234375 18.070312 16.082031 18.070312 L 14.484375 18.070312 C 14.484375 18.070312 14.625 18.167969 14.601562 18.296875 L 14.230469 19.992188 L 14.621094 19.992188 C 14.695312 19.992188 14.753906 19.988281 14.789062 19.933594 L 14.914062 19.359375 L 15.394531 19.359375 L 15.609375 19.992188 L 16.304688 19.992188 C 16.300781 19.996094 16.203125 19.945312 16.164062 19.871094 M 15.898438 18.636719 C 15.898438 18.675781 15.859375 18.820312 15.835938 18.851562 C 15.808594 18.886719 15.777344 18.902344 15.738281 18.902344 L 15.207031 18.902344 C 15.136719 18.902344 15.054688 18.96875 14.980469 19.046875 L 15.089844 18.535156 L 15.820312 18.535156 C 15.878906 18.535156 15.902344 18.570312 15.898438 18.636719 "/>
<path style=" stroke:none;fill-rule:nonzero;fill:rgb(0%,16.862745%,36.078431%);fill-opacity:1;" d="M 13.699219 18.074219 L 13.101562 18.074219 C 13.023438 18.074219 12.96875 18.09375 12.925781 18.152344 L 12.066406 19.8125 C 12.015625 19.914062 11.890625 19.996094 11.890625 19.996094 L 12.476562 19.996094 C 12.535156 19.996094 12.589844 19.953125 12.621094 19.898438 L 12.738281 19.660156 L 13.46875 19.660156 L 13.507812 19.84375 C 13.515625 19.964844 13.402344 19.996094 13.402344 19.996094 L 14.15625 19.996094 Z M 12.957031 19.199219 L 13.25 18.585938 L 13.378906 19.199219 Z M 12.957031 19.199219 "/>
<path style=" stroke:none;fill-rule:nonzero;fill:rgb(0%,16.862745%,36.078431%);fill-opacity:1;" d="M 18.699219 18.371094 C 18.714844 18.25 18.683594 18.171875 18.628906 18.132812 C 18.574219 18.09375 18.46875 18.070312 18.320312 18.070312 L 16.710938 18.070312 C 16.710938 18.070312 16.839844 18.171875 16.828125 18.300781 L 16.507812 19.800781 C 16.472656 19.898438 16.382812 19.980469 16.355469 19.996094 L 17.925781 20 C 18.109375 20 18.242188 19.964844 18.3125 19.898438 C 18.390625 19.828125 18.449219 19.683594 18.496094 19.460938 L 18.667969 18.5625 C 18.6875 18.472656 18.691406 18.433594 18.699219 18.371094 M 18.140625 18.636719 C 18.136719 18.675781 17.980469 19.457031 17.953125 19.492188 C 17.929688 19.523438 17.898438 19.542969 17.859375 19.542969 L 17.113281 19.542969 L 17.265625 18.820312 C 17.273438 18.773438 17.296875 18.660156 17.324219 18.535156 L 18.058594 18.535156 C 18.117188 18.535156 18.140625 18.570312 18.140625 18.636719 "/>
<path style=" stroke:none;fill-rule:nonzero;fill:rgb(0%,16.862745%,36.078431%);fill-opacity:1;" d="M 20.835938 18.070312 L 19.59375 18.070312 C 19.335938 18.070312 19.160156 18.105469 19.0625 18.175781 C 18.964844 18.246094 18.890625 18.394531 18.84375 18.617188 L 18.804688 18.804688 C 18.796875 18.835938 18.792969 18.863281 18.792969 18.890625 C 18.792969 18.996094 18.832031 19.082031 18.90625 19.152344 C 18.996094 19.230469 19.128906 19.269531 19.3125 19.269531 L 20.121094 19.269531 C 20.230469 19.269531 20.285156 19.304688 20.285156 19.378906 C 20.285156 19.402344 20.277344 19.421875 20.269531 19.4375 C 20.269531 19.4375 20.238281 19.53125 20.019531 19.53125 L 18.855469 19.53125 C 18.738281 19.523438 18.683594 19.339844 18.683594 19.339844 L 18.582031 19.84375 C 18.566406 19.960938 18.648438 19.996094 18.75 19.996094 L 20.035156 19.996094 C 20.292969 19.996094 20.46875 19.960938 20.566406 19.890625 C 20.664062 19.820312 20.726562 19.683594 20.777344 19.460938 C 20.777344 19.460938 20.808594 19.292969 20.816406 19.246094 C 20.847656 18.980469 20.679688 18.804688 20.394531 18.804688 L 19.539062 18.804688 C 19.421875 18.804688 19.363281 18.769531 19.363281 18.695312 C 19.363281 18.695312 19.367188 18.667969 19.367188 18.664062 C 19.386719 18.617188 19.402344 18.53125 19.574219 18.53125 L 20.6875 18.53125 C 20.8125 18.53125 20.894531 18.707031 20.894531 18.707031 C 20.894531 18.707031 20.957031 18.394531 20.992188 18.226562 C 21.007812 18.128906 20.9375 18.070312 20.835938 18.070312 "/>
<path style=" stroke:none;fill-rule:nonzero;fill:rgb(0%,16.862745%,36.078431%);fill-opacity:1;" d="M 9.070312 18.074219 C 9.007812 18.074219 8.941406 18.078125 8.917969 18.125 L 8.25 19.476562 L 8.125 18.261719 C 8.117188 18.148438 8.269531 18.078125 8.269531 18.078125 C 8.269531 18.078125 7.765625 18.078125 7.761719 18.078125 C 7.675781 18.078125 7.605469 18.101562 7.558594 18.167969 L 6.867188 19.476562 L 6.820312 18.25 C 6.835938 18.15625 6.976562 18.078125 6.976562 18.078125 L 6.425781 18.074219 C 6.425781 18.074219 6.421875 18.074219 6.417969 18.074219 C 6.21875 18.078125 6.222656 18.207031 6.222656 18.207031 L 6.363281 19.996094 L 6.960938 19.996094 C 7.042969 19.996094 7.082031 19.984375 7.125 19.925781 L 7.683594 18.878906 L 7.742188 19.996094 L 8.390625 19.996094 C 8.46875 19.996094 8.523438 19.984375 8.566406 19.925781 L 9.445312 18.265625 C 9.507812 18.152344 9.621094 18.074219 9.621094 18.074219 C 9.621094 18.074219 9.074219 18.074219 9.070312 18.074219 "/>
<path style=" stroke:none;fill-rule:nonzero;fill:rgb(0%,16.862745%,36.078431%);fill-opacity:1;" d="M 9.84375 19.820312 C 9.84375 19.820312 10.167969 18.285156 10.183594 18.21875 C 10.203125 18.144531 10.296875 18.078125 10.296875 18.078125 C 10.246094 18.078125 9.996094 18.082031 9.777344 18.078125 C 9.777344 18.078125 9.667969 18.058594 9.617188 18.308594 L 9.257812 19.996094 L 9.851562 19.996094 C 9.855469 19.996094 9.828125 19.921875 9.84375 19.820312 "/>
<path style=" stroke:none;fill-rule:nonzero;fill:rgb(0%,16.862745%,36.078431%);fill-opacity:1;" d="M 12.152344 18.453125 L 12.234375 18.074219 C 12.234375 18.074219 10.5625 18.074219 10.539062 18.078125 C 10.421875 18.089844 10.375 18.175781 10.34375 18.273438 L 10.289062 18.535156 L 10.261719 18.644531 C 10.261719 18.644531 10.371094 18.542969 10.488281 18.535156 L 11.371094 18.535156 L 10.042969 19.679688 L 9.980469 19.996094 L 11.65625 19.996094 C 11.75 19.996094 11.816406 19.984375 11.847656 19.886719 L 11.949219 19.402344 C 11.949219 19.402344 11.839844 19.527344 11.71875 19.53125 L 10.90625 19.53125 Z M 12.152344 18.453125 "/>
<path style=" stroke:none;fill-rule:nonzero;fill:rgb(89.019608%,9.411765%,21.568627%);fill-opacity:1;" d="M 23.105469 1.125 C 23.035156 1.078125 23.085938 0.980469 23.027344 1.074219 L 23.019531 1.085938 C 22.945312 1.207031 22.902344 1.339844 22.886719 1.484375 C 22.878906 1.640625 22.925781 1.707031 22.992188 1.703125 L 23.820312 1.582031 L 23.777344 1.273438 C 23.367188 1.320312 23.105469 1.125 23.105469 1.125 "/>
<path style=" stroke:none;fill-rule:nonzero;fill:rgb(89.019608%,9.411765%,21.568627%);fill-opacity:1;" d="M 24.410156 0.878906 C 24.472656 0.820312 24.523438 0.863281 24.484375 0.828125 C 24.480469 0.824219 24.460938 0.808594 24.460938 0.808594 C 24.273438 0.671875 24.046875 0.601562 23.808594 0.613281 C 23.808594 0.613281 23.792969 0.613281 23.769531 0.617188 L 23.851562 1.167969 C 24.128906 1.117188 24.285156 1.007812 24.410156 0.878906 "/>
<path style=" stroke:none;fill-rule:nonzero;fill:rgb(89.019608%,9.411765%,21.568627%);fill-opacity:1;" d="M 23.632812 0.636719 C 23.457031 0.679688 23.300781 0.773438 23.179688 0.890625 C 23.121094 0.945312 23.121094 1.039062 23.195312 1.078125 C 23.363281 1.160156 23.585938 1.199219 23.761719 1.179688 L 23.679688 0.625 C 23.664062 0.628906 23.648438 0.632812 23.632812 0.636719 "/>
<path style=" stroke:none;fill-rule:nonzero;fill:rgb(89.019608%,9.411765%,21.568627%);fill-opacity:1;" d="M 23.328125 2.3125 C 23.269531 2.375 23.234375 2.339844 23.222656 2.347656 C 23.21875 2.355469 23.269531 2.390625 23.269531 2.390625 C 23.445312 2.523438 23.660156 2.59375 23.886719 2.589844 C 23.886719 2.589844 23.929688 2.589844 23.964844 2.585938 L 23.882812 2.023438 C 23.640625 2.066406 23.492188 2.148438 23.328125 2.3125 "/>
<path style=" stroke:none;fill-rule:nonzero;fill:rgb(89.019608%,9.411765%,21.568627%);fill-opacity:1;" d="M 24.101562 2.5625 C 24.140625 2.550781 24.183594 2.539062 24.222656 2.523438 C 24.335938 2.480469 24.445312 2.414062 24.523438 2.34375 C 24.601562 2.273438 24.570312 2.191406 24.519531 2.164062 C 24.414062 2.101562 24.230469 1.992188 23.976562 2.011719 L 24.058594 2.574219 C 24.070312 2.570312 24.085938 2.566406 24.101562 2.5625 "/>
<path style=" stroke:none;fill-rule:nonzero;fill:rgb(89.019608%,9.411765%,21.568627%);fill-opacity:1;" d="M 22.972656 1.796875 C 22.933594 1.800781 22.914062 1.777344 22.902344 1.757812 C 22.882812 1.734375 22.890625 1.773438 22.90625 1.832031 C 22.945312 1.996094 23.019531 2.140625 23.125 2.253906 C 23.15625 2.285156 23.222656 2.285156 23.253906 2.257812 C 23.394531 2.105469 23.566406 1.996094 23.871094 1.941406 L 23.832031 1.671875 Z M 22.972656 1.796875 "/>
<path style=" stroke:none;fill-rule:nonzero;fill:rgb(89.019608%,9.411765%,21.568627%);fill-opacity:1;" d="M 14.792969 1.296875 L 13.265625 1.710938 L 13.800781 0.738281 L 12.867188 1.46875 L 13.128906 0 L 12.597656 1.257812 L 12.078125 0.515625 L 12.34375 1.640625 L 11.132812 1.476562 L 12.175781 2.039062 L 11.773438 2.496094 L 11.722656 2.71875 L 12.296875 2.589844 L 12.265625 3.667969 L 12.84375 2.546875 L 13.515625 3.285156 L 13.125 2.261719 Z M 14.792969 1.296875 "/>
</g>
</svg>
