<?xml version="1.0" encoding="UTF-8" standalone="no"?>
<svg
   xmlns:dc="http://purl.org/dc/elements/1.1/"
   xmlns:cc="http://creativecommons.org/ns#"
   xmlns:rdf="http://www.w3.org/1999/02/22-rdf-syntax-ns#"
   xmlns:svg="http://www.w3.org/2000/svg"
   xmlns="http://www.w3.org/2000/svg"
   xmlns:sodipodi="http://sodipodi.sourceforge.net/DTD/sodipodi-0.dtd"
   xmlns:inkscape="http://www.inkscape.org/namespaces/inkscape"
   width="1270.3254"
   height="905.73834"
   viewBox="0 0 1016.2604 724.59067"
   version="1.1"
   id="svg2"
   inkscape:version="0.48.4 r9939"
   sodipodi:docname="los-angeles-clippers.svg">
  <metadata
     id="metadata76">
    <rdf:RDF>
      <cc:Work
         rdf:about="">
        <dc:format>image/svg+xml</dc:format>
        <dc:type
           rdf:resource="http://purl.org/dc/dcmitype/StillImage" />
      </cc:Work>
    </rdf:RDF>
  </metadata>
  <defs
     id="defs74" />
  <sodipodi:namedview
     pagecolor="#ffffff"
     bordercolor="#666666"
     borderopacity="1"
     objecttolerance="10"
     gridtolerance="10"
     guidetolerance="10"
     inkscape:pageopacity="0"
     inkscape:pageshadow="2"
     inkscape:window-width="640"
     inkscape:window-height="480"
     id="namedview72"
     showgrid="false"
     inkscape:zoom="0.24455959"
     inkscape:cx="644.7721"
     inkscape:cy="452.93573"
     inkscape:window-x="65"
     inkscape:window-y="24"
     inkscape:window-maximized="0"
     inkscape:current-layer="svg2" />
  <path
     d="m 595.86768,4.7820973 c 28.61,-4.82999999 57.84,-6.08 86.74,-3.39 19.64,1.66 39.03,5.42 58.15,10.1199997 39.41,9.15 77.27,25.2 110.85,47.82 16.3,11.11 32.23,22.87 46.76,36.24 24.03,21.670003 44.25,47.210003 61.87,74.270003 16.78,26.57 30.52,55.22 39.48,85.38 7.92002,28.4 14.02002,57.43 15.80002,86.91 2.31,32.2 -0.87,64.65 -8.13,96.05 -4.45,20.1 -9.83002,40.04 -17.43002,59.19 -8.75,22.37 -19.95,43.79 -33.39,63.7 -13.87,20.61 -29.12,40.4 -46.84,57.86 -17.72,17.94 -37.79,33.38 -58.73,47.35 -31.05,20.67 -65.68,35.87 -101.82,45.03 -15.7,3.91 -31.47,7.66 -47.51,9.88 -42.1,6.04 -85.23,3.91 -126.69,-5.44 -39.22,-7.98 -77.24,-22.29 -111.39,-43.26 -33.98,-20.89 -64.67,-47.37 -89.63,-78.52 -28.05,0.01 -56.1,0 -84.15,0 -11.91,13.25 -25.52,24.94 -40.28,34.9 -14.64,9.66 -30.39,18.09 -47.54,22.24 -8.3,1.91 -16.57,4.17 -25.06,5.06 -15.1,1.45 -30.31,-0.56 -44.92,-4.42 -16.34,-3.37 -32.11,-9.52 -46.2,-18.48 -15.52,-10.1 -30.46,-21.51 -42.16,-35.99 -11.44,-14.37 -22.01,-29.72 -28.74,-46.92 -5.4199999,-13.02 -8.3499999,-26.86 -11.4299999,-40.56 -5.82,-27.6 -4.00999998,-56.38 3.01,-83.58 5.0699999,-23.52 13.1999999,-46.43 24.8199999,-67.52 8.1,-15.06 18.11,-28.98 28.62,-42.44 13.12,-16.4 28.63,-30.86 45.86,-42.86 -10.61,-0.01 -21.23,0.13 -31.83,-0.06 -4.73,-1.01 -10.81,-4.36 -9.98,-10.07 0.42,-2.84 0.28,-6.14 2.32,-8.41 39.81,-47.63 79.6,-95.27 119.4,-142.91 4.05,-4.87 8.19,-9.67 12.03,-14.710003 7.44,-8.5 19.21,-11.54 30.08,-12.32 64.06,-0.11 128.13,0.04 192.19,-0.07 19.03,-15.5 38.84,-30.25 60.52,-41.86 19.97,-10.75 41.04,-19.49 62.78,-25.96 17.3,-4.94 34.86,-9.0799997 52.57,-12.2499997 m -63.31,48.3999997 c -36.98,14.35 -71.25,35.6 -100.6,62.270003 -1.65,1.54 -3.76,2.68 -6.07,2.54 -60.68,0.01 -121.36,0.02 -182.04,-0.01 -4.32,0.03 -9.3,-0.62 -12.74,2.6 -2.76,2.13 -3.54,5.68 -3.53,8.99 10.35,1.6 20.85,0.61 31.27,0.88 52.49,0.08 104.98,-0.18 157.47,0.17 -7.48,6.95 -13.86,14.95 -20.74,22.46 -1.09,1.55 -3.12,1.33 -4.76,1.48 -63.05,-0.1 -126.1,0.03 -189.14,-0.08 -6.67,-0.04 -12.1,6.44 -11.21,13.01 10.07,1.11 20.23,0.33 30.34,0.56 54.45,0.06 108.9,-0.13 163.35,0.11 -5.87,8.28 -11.45,16.78 -16.59,25.54 -66.26,0.23 -132.52,-0.04 -198.77,0.13 -5.75,-0.08 -10.78,6 -8.32,11.57 66.77,0.04 133.53,-0.03 200.3,0.04 -4.02,8.57 -8.84,16.78 -12.1,25.69 -11.94,0.5 -23.9,0.12 -35.84,0.29 -55.65,0.2 -111.3,-0.12 -166.95,0.05 -5.67,0.22 -11.86,0.68 -16.46,4.38 -2.8,2.04 -2.61,5.83 -3.16,8.88 2.8,0.65 5.63,1.32 8.53,1.29 99.66,-0.04 199.33,-0.02 299,-0.01 7.7,0.15 15.37,-0.94 23.08,-0.83 162.96,0.05 325.92,0.2 488.88,-0.01 5.06,10.31 8.57,21.28 11.65,32.32 7.96,29.81 11.64,60.75 10.97,91.6 -0.89,33.48 -6.46,67.04 -18.4,98.41 -4.92,12.9 -9.72,25.87 -15.4,38.47 -5.9,13.23 -12.73,26.22 -22.07,37.38 -10.49,1.86 -21.08,-0.52 -31.61,0.32 -9.36,0.6 -18.74,-0.02 -28.1,0.3 -11.96,0.39 -23.92,-1.04 -35.87,-0.08 -29.7,0.14 -59.4,-0.13 -89.1,0.06 -23,-0.39 -46.01,0.15 -69.02,0.06 -17.01,0.06 -34.01,-1.21 -51.01,-0.17 -10.94,-0.74 -21.86,0.36 -32.8,-0.07 -12.74,-0.27 -25.48,-0.18 -38.22,0.15 -10.99,-0.61 -21.98,0.15 -32.97,-0.27 -11.63,0.95 -23.28,-0.61 -34.91,0.23 -27.35,0.45 -54.7,-0.41 -82.06,-0.24 -9.34,-0.03 -18.68,0.52 -28.03,0.3 -10,-0.47 -20,0.38 -29.99,-0.34 -17.32,1.12 -34.67,-0.53 -51.99,0.36 -11.69,-0.1 -23.38,0.23 -35.06,-0.16 -7.65,-0.55 -15.29,0.14 -22.94,0.11 -20.38,0.25 -40.77,-0.23 -61.14,0.13 -3.07,-0.41 -4.67,2.79 -4.82,5.39 -0.28,5.26 4.53,10.23 9.82,10 27.64,0 55.28,0.01 82.91,-0.02 -12.53,14.31 -27.68,26.87 -45.5,33.94 -11.79,4.56 -25.05,6.1 -37.31,2.53 -16.76,-4.4 -30.34,-16.81 -39.29,-31.29 -11.6,-18.61 -16.21,-40.72 -16.92,-62.4 -1.07,-33.87 5.7,-67.62 16.92,-99.46 10.01,-27.86 23.56,-54.61 41.56,-78.17 15.54,-20.13 37.77,-35.81 62.97,-40.73 18.39,-2.61 38.2,-0.99 54.49,8.59 13.91,7.98 24.14,21.4 29.79,36.25 2.72,6.84 3.66,14.28 6.95,20.91 1.62,-0.14 3.24,-0.26 4.88,-0.38 2.85,-7.62 4.36,-15.64 6.42,-23.5 4.71,-18.54 9.11,-37.16 13.94,-55.66 0.94,-2.93 0.19,-5.96 -0.49,-8.84 -8.32,-1.43 -16.77,-0.74 -25.15,-0.86 -24.99,0.07 -49.97,-0.17 -74.95,0.11 -9.27,0.86 -18.6,0.65 -27.87,1.5 -27.87,3.53 -54.97,13.01 -79.02,27.53 -27.92,16.82 -51.39,40.57 -68.99,67.94 -16.37,25.49 -28.11,54.05 -33.78,83.83 -5.22,27.38 -4.29,56.07 3.95,82.77 5.9,19.13 15.49,37.16 28.35,52.52 19.64,23.35 46.87,40.72 76.92,46.78 16.53,3.18 33.91,3.4 50.14,-1.48 15.25,-4.43 29.38,-12.22 41.97,-21.82 15.15,-11.53 28.66,-25.22 39.89,-40.6 10.79,0.08 21.57,-0.16 32.36,0.16 26.15,0.41 52.3,-0.29 78.45,0.34 2.7,2.92 5.08,6.11 7.43,9.32 30.27,38.96 69.74,70.71 114.27,91.96 64.74,30.88 139.48,39.76 209.83,26.24 60.71,-11.68 117.89,-40.95 162.82,-83.43 46.07,-43.2 79.41,-99.82 94.56,-161.15 8.22,-33.14 11.78,-67.56 9.25,-101.66 -2.52,-35.26 -9.66,-70.44 -23.49,-103.06 -10.81,-25.56 -24.25,-50.07 -40.84,-72.34 -36.88,-49.87 -87.84,-89.370003 -145.71,-111.850003 -76.8,-30.2 -164.87,-30.58 -241.84,-0.77 m -88.31,220.830003 c -10.93,1.42 -19.73,10.01 -23.75,19.95 -3.31,8.09 -4.33,17.33 -1.96,25.81 2.84,6.6 10.23,10.41 17.23,10.39 7.18,0.47 14.63,-1.14 20.49,-5.46 8.79,-6.34 13.26,-17.06 14.81,-27.5 0.87,-7.01 -0.75,-15.1 -6.57,-19.67 -5.74,-4.35 -13.42,-4.47 -20.25,-3.52 m 250.99,0.06 c -9.84,2.59 -18.59,9.45 -22.69,18.87 -3.61,8.49 -6.13,18.63 -1.83,27.36 2,4.77 6.85,7.34 11.62,8.56 10.49,2.66 21.75,1.45 31.98,-1.76 2.02,-9.03 3.88,-18.1 5.87,-27.13 -7.46,-0.04 -14.92,-0.02 -22.38,-0.05 -0.66,3.11 -1.22,6.24 -1.71,9.38 3.4,0.03 6.81,0.06 10.22,0.09 -0.94,3.66 -1.81,7.32 -2.68,11 -6.02,1.15 -12.9,1.92 -18.22,-1.78 -3.81,-2.75 -4.35,-7.93 -3.95,-12.26 0.82,-9.2 5.16,-19.21 14.02,-23.22 4.8,-2.14 11.42,-1.91 14.81,2.6 0.37,1.89 0.19,3.84 0.27,5.77 4.13,-0.01 8.27,0 12.41,0 0.02,-4.14 0.76,-8.93 -2.26,-12.29 -2.98,-3.29 -7.27,-5.58 -11.75,-5.65 -4.58,-0.18 -9.2,-0.24 -13.73,0.51 m -311.02,0.11 c -3.21,18.33 -8.12,36.33 -11.09,54.71 11.68,0.03 23.36,0.02 35.04,0 0.66,-3.18 1.28,-6.37 1.86,-9.56 -7.63,-0.01 -15.27,0.02 -22.9,-0.04 2.74,-15.11 6.98,-29.93 9.04,-45.16 -3.98,0 -7.97,0.02 -11.95,0.05 m 102.88,8.41 c -3.53,4.22 -4.48,10.26 -3.11,15.5 2.14,4.39 7.07,6.26 11.38,7.84 3.88,1.48 8.41,1.37 11.84,3.91 2.79,2.37 1.1,6.6 -1.24,8.63 -3.93,3.69 -9.83,3.64 -14.71,2.2 -2.34,-2.72 -2.27,-6.25 -2.07,-9.62 -4.03,0.01 -8.06,0.02 -12.09,0.06 -0.17,3.6 -0.7,7.28 0.14,10.84 1.47,4.5 6.14,7.04 10.57,7.81 8.48,1.18 17.73,0.31 24.97,-4.62 4.26,-3 8.02,-7.49 8.37,-12.9 0.23,-3.37 0.51,-7.54 -2.39,-9.92 -5.66,-4.38 -13.1,-4.92 -19.56,-7.53 -3.62,-1.15 -3.01,-5.96 -1.47,-8.57 3,-4.76 9.83,-4.82 14.21,-2.06 1.03,1.88 1.16,4.12 1.71,6.19 3.8,0.01 7.6,-0.02 11.4,-0.05 -0.06,-4.2 0.61,-9.27 -2.94,-12.34 -5.22,-4.84 -12.77,-4.34 -19.36,-3.96 -5.93,1.03 -11.84,3.78 -15.65,8.59 m 392.74,5.89 c -1.57,4.35 -1.17,10.01 2.76,13 6.28,5.13 14.83,5.19 21.91,8.63 0.27,3.93 -1.22,8.14 -4.74,10.22 -4.27,1.74 -9.06,1.32 -13.4,0.11 -0.95,-3.05 -1.52,-6.19 -1.76,-9.37 -3.78,0 -7.55,-0.04 -11.32,-0.06 -1.03,4.88 -1.71,10.78 2.07,14.72 4.86,4.76 12.2,4.67 18.54,4.34 9.2,-0.5 18.98,-5.44 22.45,-14.41 1.69,-4.27 2.11,-9.99 -1.58,-13.35 -5.56,-4.6 -13.15,-4.66 -19.56,-7.4 -1.82,-0.8 -4.17,-2.29 -3.43,-4.64 0.76,-6.91 10.03,-10.58 15.53,-6.57 1.69,1.77 1.68,4.46 2.39,6.7 3.73,-0.03 7.47,-0.05 11.21,-0.08 -0.01,-4.19 0.46,-9.14 -2.86,-12.32 -5.74,-5.32 -14.26,-4.8 -21.41,-3.48 -7.51,1.35 -14.36,6.62 -16.8,13.96 m -305.78,-13.51 c -9.84,18.14 -20.63,35.75 -30.56,53.84 3.79,0.07 7.58,0.1 11.37,0.1 2.11,-3.77 4.25,-7.53 6.35,-11.3 7.06,-0.08 14.13,-0.05 21.2,-0.04 0.38,3.8 0.9,7.58 1.55,11.35 3.87,0 7.76,-0.03 11.64,-0.07 -1.93,-18.07 -4.62,-36.05 -7.15,-54.05 -4.8,-0.02 -9.61,0.02 -14.4,0.17 m 41.96,-0.11 c -3.93,17.98 -7.59,36.02 -11.58,53.99 3.75,0.04 7.51,0.06 11.27,0.07 2.4,-10.72 4.71,-21.46 6.9,-32.22 0.64,-3.32 1.67,-6.54 2.87,-9.69 4.09,13.84 6.99,28 10.86,41.9 5.41,-0.01 10.83,-0.01 16.25,0.01 3.89,-18.02 7.7,-36.05 11.52,-54.08 -3.7,-0.02 -7.41,-0.01 -11.1,0.02 -3.15,13.85 -5.75,27.82 -9.14,41.61 -3.05,-13.99 -7.19,-27.72 -10.65,-41.61 -5.74,-0.06 -11.47,-0.05 -17.2,0 m 112.25,53.98 c 12.66,0.05 25.33,0.26 37.99,-0.13 0.34,-3.14 0.71,-6.27 1.1,-9.4 -8.19,0.02 -16.37,0.04 -24.56,-0.02 0.54,-4.66 1.42,-9.26 2.42,-13.84 7.91,-0.07 15.83,0.08 23.74,-0.16 0.3,-3.12 0.62,-6.23 0.96,-9.33 -7.57,0.04 -15.14,0.07 -22.71,-0.06 0.92,-4.13 1.94,-8.24 3.11,-12.31 8.06,0.04 16.13,0.01 24.2,0.04 0.62,-2.93 1.25,-5.86 1.92,-8.79 -12.23,-0.02 -24.45,-0.08 -36.68,0.05 -3.75,18 -7.57,35.98 -11.49,53.95 m 60.56,-54 c -3.91,17.99 -7.69,36 -11.47,54.02 11.84,0.07 23.69,0.11 35.53,-0.04 0.55,-3.17 1.13,-6.34 1.75,-9.5 -7.71,0 -15.43,0.04 -23.14,-0.06 3.32,-14.77 6.27,-29.63 9.55,-44.41 -4.08,-0.02 -8.15,-0.03 -12.22,-0.01 m 34.12,54.02 c 12.48,0.11 24.97,0.01 37.46,0.05 0.62,-3.19 1.22,-6.38 1.78,-9.58 -8.39,-0.02 -16.78,0.04 -25.17,-0.06 0.99,-4.6 1.99,-9.2 2.95,-13.81 7.67,-0.07 15.35,-0.03 23.03,-0.03 0.62,-3.15 1.24,-6.3 1.84,-9.45 -7.64,-0.01 -15.28,0.05 -22.92,-0.06 0.88,-4.15 1.85,-8.27 3.03,-12.34 8.11,0.05 16.22,0.05 24.34,0.02 0.55,-2.93 1.13,-5.86 1.73,-8.78 -12.2,0.03 -24.39,-0.07 -36.58,0.06 -3.75,18.01 -7.64,35.99 -11.49,53.98 m 28.65,34.07 c -11.68,4.72 -20.45,15.8 -22.57,28.19 -2.11,11.76 -0.26,24.48 6.3,34.59 10.26,15.8 22.81,30.35 30.05,47.93 2.73,6.68 3.86,14.78 0.12,21.31 -2.9,4.64 -7.17,8.61 -12.32,10.58 -6.48,2.2 -13.8,0.51 -19.3,-3.37 -10.42,-7.11 -16.38,-19.41 -17.65,-31.75 -0.8,-6.16 0.63,-12.58 -1.64,-18.51 -6.43,14.1 -6.69,30.28 -14.14,43.99 -1.72,3.25 -4.58,6.68 -8.64,6.42 -3.05,0.3 -5.28,-2.39 -6.12,-5.03 -3.08,-8.99 -2.33,-18.64 -3.27,-27.96 -0.66,-6.46 0.44,-13.31 -2.34,-19.39 -2.16,-5.33 -8.82,-7.37 -9.91,-13.32 10.87,-4.14 22.3,-7.95 30.95,-16.09 7.14,-6.41 12.65,-15.42 12.61,-25.26 0.36,-9.59 -1.48,-20.34 -8.88,-27.11 -8.83,-7.43 -20.95,-7.96 -31.95,-7.86 -25.39,0.21 -50.79,-0.24 -76.18,0.22 0.03,0.57 0.1,1.7 0.14,2.26 3.22,2.41 7.42,4.7 8.13,9.06 2.34,14.66 -2.6,29 -5.62,43.16 -4.54,19.24 -9.37,38.41 -14.52,57.49 -2.71,9.73 -5.26,19.65 -10.26,28.51 -2.38,4.6 -7.39,6.69 -11.2,9.86 22.97,0.45 45.95,0.48 68.93,0 -3.48,-3.25 -7.95,-5.43 -10.84,-9.28 -3.66,-5.43 -2.78,-12.39 -1.41,-18.42 2.62,-10.82 5.69,-21.51 8.11,-32.37 0.78,-3.08 1.63,-6.85 4.84,-8.26 3.59,-0.64 6.48,2.49 7.71,5.54 2.7,6.79 3.57,14.12 4.57,21.31 1.28,8.94 0.34,17.97 0.64,26.96 -0.08,6.46 3.67,12.31 8.22,16.62 10.16,9.71 27.75,9.97 37.99,0.23 3.68,0.66 7.56,1.59 11.24,0.36 5.75,-1.89 11.13,-5.44 17.4,-5.27 8.66,-0.55 15.52,6.07 23.92,6.93 16.52,1.81 34.48,-3.7 45.38,-16.66 8.74,-10.19 12.09,-24.21 10.59,-37.39 -0.89,-9.47 -4.66,-18.35 -9.12,-26.64 -8.02,-14.89 -18.83,-28.02 -27.56,-42.48 -2.43,-4.08 -4.51,-8.79 -3.74,-13.65 0.7,-4.43 4.59,-7.58 8.61,-9.04 10.61,-3.6 23.37,1.14 28.95,10.89 3.87,6.51 3.26,14.38 3.99,21.63 2.07,-3.71 3.41,-7.75 4.45,-11.85 2.32,-8.92 5.91,-17.46 7.87,-26.47 -9.34,-3.53 -19.45,-3.46 -29.26,-4.31 -11.15,-0.46 -22.77,-0.63 -33.27,3.7 m -686.04,-1.33 c 2.36,4.07 7.61,4.86 10.44,8.52 4.17,4.56 3.64,11.31 2.18,16.87 -8.27,31.23 -16.49,62.47 -24.74,93.7 -3.22,12.12 -9.9,23.96 -20.98,30.47 3.08,0.67 6.19,1.34 9.36,1.29 23.99,-0.06 47.98,-0.05 71.98,-0.03 6.99,-0.06 14.03,0.4 20.96,-0.83 5.69,-15.12 10.7,-30.63 12.9,-46.69 -2.4,1.64 -4.38,3.8 -5.72,6.38 -5.2,9.36 -11.94,18.07 -20.71,24.33 -8.69,5.96 -19.67,8.64 -30.1,7.19 -4.26,-1.04 -4.57,-6.08 -3.35,-9.54 9.03,-33.84 18.05,-67.68 27.39,-101.44 2.04,-7.75 6.19,-14.82 11.36,-20.89 3.24,-3.84 8.01,-5.86 11.69,-9.21 -5.79,-0.56 -11.61,-0.41 -17.42,-0.4 -18.41,0.17 -36.83,-0.35 -55.24,0.28 m 107.97,-0.16 c 0.02,0.56 0.07,1.68 0.09,2.23 3.22,2.71 7.07,5.37 8.16,9.69 1.7,7.09 -1.01,14.14 -2.77,20.93 -7.4,27.37 -14.77,54.75 -22.14,82.13 -2.08,7.86 -4.09,15.83 -7.88,23.08 -2.38,4.64 -6.69,7.79 -9.93,11.78 3.56,0.64 7.15,1.2 10.77,1.18 12.99,-0.06 25.98,-0.07 38.97,0 3.93,0.03 7.84,-0.51 11.71,-1.19 -1.29,-3.39 -4.51,-5.5 -5.88,-8.84 -2.95,-6.46 -2.43,-13.92 -0.43,-20.56 7.99,-29.76 15.53,-59.63 23.76,-89.32 1.86,-6.32 3.64,-12.71 6.42,-18.7 2.54,-5.45 7.96,-8.53 12.37,-12.27 -21.07,-0.49 -42.15,-0.26 -63.22,-0.14 m 75.77,-0.06 c 6.28,4.44 13.88,11.38 11.54,19.89 -2.48,12.75 -6.07,25.25 -9.45,37.78 -4.22,16.4 -8.44,32.8 -12.74,49.18 -2.77,9.9 -4.26,20.32 -9.38,29.39 -2.63,5.18 -7.22,8.9 -11.07,13.11 2.44,0.75 4.89,1.75 7.5,1.7 13.05,0 26.11,-0.03 39.16,-0.01 6.66,-0.08 13.45,0.6 19.95,-1.24 -4.23,-3.65 -10.07,-6.23 -12.03,-11.87 -2.62,-6.98 -0.68,-14.48 0.9,-21.46 2.89,-11.87 6.1,-23.7 10.46,-35.13 9.61,-0.82 19.35,1.14 28.88,-0.83 14.05,-2.92 27.85,-9.07 37.82,-19.63 8.47,-8.73 14.75,-20.68 13.53,-33.14 -0.68,-7.91 -3.49,-16.35 -10.12,-21.23 -5.94,-4.14 -13.11,-6.73 -20.41,-6.48 -28.18,-0.17 -56.36,-0.1 -84.54,-0.03 m 115.54,0.08 c 4.16,3.34 8.97,6.57 10.86,11.82 1.62,3.81 1.04,8.06 0.03,11.95 -8.37,32.23 -16.88,64.43 -25.08,96.7 -2.4,10.64 -7.08,21.65 -16.67,27.7 0.07,0.92 0.14,1.85 0.22,2.78 21.17,0.01 42.35,0.01 63.52,0 0.01,-0.74 0.03,-2.23 0.04,-2.97 -3.38,-2.18 -7.36,-4.2 -8.96,-8.13 -3.05,-7.08 -1.83,-15.05 0.04,-22.26 3.13,-12.19 6.1,-24.47 10.68,-36.23 9.75,-1 19.63,1.1 29.3,-1 16.32,-3.38 32.41,-11.43 42.28,-25.26 5.08,-7.37 9.77,-16.05 8.73,-25.31 -0.45,-7.05 -2.68,-14.25 -7.54,-19.54 -6.02,-6.93 -15.3,-10.49 -24.38,-10.41 -27.69,0.13 -55.38,-0.17 -83.07,0.16 m 111.87,0.3 c 3.94,3.95 10.08,5.65 12.65,10.87 1.45,5.08 0.64,10.51 -0.5,15.58 -8.27,31.82 -16.25,63.72 -24.45,95.56 -3.01,11.25 -10.52,21.54 -21.37,26.29 2.85,0.81 5.8,1.26 8.77,1.13 35.33,-0.29 70.66,0.29 105.98,-0.28 1.61,0.22 2.31,-1.49 3.08,-2.58 2.01,-3.73 2.76,-7.96 4.03,-11.97 2.74,-10.2 6.89,-20.11 7.74,-30.74 -10.88,10.67 -17.51,25.42 -30.52,33.93 -11.12,6.98 -24.85,6.44 -37.47,6.31 -4.88,0.21 -7.94,-5.2 -6.48,-9.56 4.49,-17.66 9.38,-35.23 13.96,-52.87 1.05,-3.14 1.91,-7.09 5.3,-8.51 5.63,-2.49 12.14,0.37 15.94,4.78 6.84,7.17 7.6,17.63 8.39,27 0.56,-0.24 1.66,-0.73 2.22,-0.97 4.59,-17.68 8.82,-35.45 13.47,-53.1 1.09,-4.01 1.84,-8.11 2.18,-12.25 -6.5,5.39 -10.67,13.18 -17.87,17.78 -6.37,4.45 -14.35,6 -22,5.3 -0.33,-4.42 -0.05,-8.87 1.06,-13.16 2.36,-9.25 5.01,-18.42 7.22,-27.71 1.24,-5.05 3.28,-9.94 6.52,-14.04 11.27,0.54 24.14,-2.45 33.83,4.97 8.45,7.12 7.51,19.2 8.31,29.16 2.14,-2.77 3.48,-6.05 4.14,-9.48 2.3,-10.6 5.69,-20.97 7.06,-31.76 -37.06,0.26 -74.13,-0.36 -111.19,0.32 z"
     id="path4"
     inkscape:connector-curvature="0"
     style="fill:#fefffe" />
  <path
     d="m 532.55768,53.182097 c 76.97,-29.81 165.04,-29.43 241.84,0.77 57.87,22.48 108.83,61.980003 145.71,111.850003 16.59,22.27 30.03,46.78 40.84,72.34 13.83,32.62 20.97,67.8 23.49,103.06 2.53,34.1 -1.03,68.52 -9.25,101.66 -15.15,61.33 -48.49,117.95 -94.56,161.15 -44.93,42.48 -102.11,71.75 -162.82,83.43 -70.35,13.52 -145.09,4.64 -209.83,-26.24 -44.53,-21.25 -84,-53 -114.27,-91.96 -2.35,-3.21 -4.73,-6.4 -7.43,-9.32 -26.15,-0.63 -52.3,0.07 -78.45,-0.34 -10.79,-0.32 -21.57,-0.08 -32.36,-0.16 -9.96,-0.05 -19.91,-0.04 -29.87,-0.01 -27.63,0.03 -55.27,0.02 -82.91,0.02 -5.29,0.23 -10.1,-4.74 -9.82,-10 0.15,-2.6 1.75,-5.8 4.82,-5.39 20.37,-0.36 40.76,0.12 61.14,-0.13 7.65,0.03 15.29,-0.66 22.94,-0.11 11.68,0.39 23.37,0.06 35.06,0.16 17.32,-0.89 34.67,0.76 51.99,-0.36 9.99,0.72 19.99,-0.13 29.99,0.34 9.35,0.22 18.69,-0.33 28.03,-0.3 27.36,-0.17 54.71,0.69 82.06,0.24 11.63,-0.84 23.28,0.72 34.91,-0.23 10.99,0.42 21.98,-0.34 32.97,0.27 12.74,-0.33 25.48,-0.42 38.22,-0.15 10.94,0.43 21.86,-0.67 32.8,0.07 17,-1.04 34,0.23 51.01,0.17 23.01,0.09 46.02,-0.45 69.02,-0.06 29.7,-0.19 59.4,0.08 89.1,-0.06 11.95,-0.96 23.91,0.47 35.87,0.08 9.36,-0.32 18.74,0.3 28.1,-0.3 10.53,-0.84 21.12,1.54 31.61,-0.32 9.34,-11.16 16.17,-24.15 22.07,-37.38 5.68,-12.6 10.48,-25.57 15.4,-38.47 11.94,-31.37 17.51,-64.93 18.4,-98.41 0.67,-30.85 -3.01,-61.79 -10.97,-91.6 -3.08,-11.04 -6.59,-22.01 -11.65,-32.32 -162.96,0.21 -325.92,0.06 -488.88,0.01 -7.71,-0.11 -15.38,0.98 -23.08,0.83 -99.67,-0.01 -199.34,-0.03 -299,0.01 -2.9,0.03 -5.73,-0.64 -8.53,-1.29 0.55,-3.05 0.36,-6.84 3.16,-8.88 4.6,-3.7 10.79,-4.16 16.46,-4.38 55.65,-0.17 111.3,0.15 166.95,-0.05 11.94,-0.17 23.9,0.21 35.84,-0.29 3.26,-8.91 8.08,-17.12 12.1,-25.69 -66.77,-0.07 -133.53,0 -200.3,-0.04 -2.46,-5.57 2.57,-11.65 8.32,-11.57 66.25,-0.17 132.51,0.1 198.77,-0.13 5.14,-8.76 10.72,-17.26 16.59,-25.54 -54.45,-0.24 -108.9,-0.05 -163.35,-0.11 -10.11,-0.23 -20.27,0.55 -30.34,-0.56 -0.89,-6.57 4.54,-13.05 11.21,-13.01 63.04,0.11 126.09,-0.02 189.14,0.08 1.64,-0.15 3.67,0.07 4.76,-1.48 6.88,-7.51 13.26,-15.51 20.74,-22.46 -52.49,-0.35 -104.98,-0.09 -157.47,-0.17 -10.42,-0.27 -20.92,0.72 -31.27,-0.88 -0.01,-3.31 0.77,-6.86 3.53,-8.99 3.44,-3.22 8.42,-2.57 12.74,-2.6 60.68,0.03 121.36,0.02 182.04,0.01 2.31,0.14 4.42,-1 6.07,-2.54 29.35,-26.670003 63.62,-47.920003 100.6,-62.270003 m 25.85,9.01 c -32.94,10.59 -64.08,26.71 -91.89,47.290003 4.05,-0.88 8.1,-1.77 12.13,-2.76 47.48,-12.450003 97.55,-15.420003 146.07,-7.760003 34.33,5.260003 67.56,16.430003 98.86,31.360003 4.9,-9.95 8.33,-21.38 5.56,-32.460003 -3.01,-10.37 -11.31,-18.04 -19.72,-24.28 -14.07,-10.49 -30.01,-18.13 -46.18,-24.79 -5.2,-2.3 -10.96,-1.45 -16.46,-1.39 -29.95,0.81 -59.83,5.59 -88.37,14.79 m 141.93,-11.28 c 9.08,5.23 17.97,10.95 25.67,18.11 8.71,8.19 16.29,18.57 18.02,30.68 1.88,12.920003 -2.03,25.890003 -7.72,37.370003 18.73,10.26 36.7,21.93 53.52,35.08 1.42,1.13 4.08,2.99 5.26,0.55 14.45,-22.02 28.43,-44.37 41.48,-67.25 -40.2,-28.670003 -87.25,-47.860003 -136.23,-54.540003 m -260.66,83.190003 c -2.54,0.89 -4.82,2.4 -6.71,4.3 -27.07,27.04 -49.85,58.68 -65.05,93.89 54.31,0.19 108.61,0.27 162.92,0.23 4.66,-0.13 9.57,0.64 14,-1.26 29.19,-12.38 58.98,-23.25 88.72,-34.2 18.62,-6.86 36.57,-15.75 52.73,-27.32 10.85,-7.85 21.12,-16.74 29.14,-27.54 -43.03,-20.94 -90.71,-32.3 -138.57,-32.85 -46.78,-0.69 -93.43,8.45 -137.18,24.75 m 408.43,-20.16 c -13.86,23.73 -28.42,47.05 -43.37,70.12 17.12,14.19 33.76,28.99 49.32,44.89 8.95,-11.62 20.87,-21.82 35.45,-25.26 13.38,-3.48 27.53,-0.19 39.72,5.73 -20.05,-37.02 -48.3,-69.26 -81.12,-95.48 m -119.79,35.18 c -18.68,24.24 -44.93,41.58 -72.59,54.03 -17.71,7.83 -36.19,13.72 -54.22,20.75 -6.46,2.57 -13.26,4.41 -19.19,8.12 57.66,0.61 115.33,0.13 173,0.31 10.35,-15.11 20.55,-30.32 30.6,-45.63 -18.19,-13.97 -36.92,-27.51 -57.6,-37.58 m 44.67,83.15 c 21.53,0.14 43.06,-0.09 64.59,0.13 -5.97,-5.68 -11.89,-11.41 -17.98,-16.96 -7.48,-6.55 -14.55,-13.72 -22.83,-19.26 -7.82,12.1 -16.25,23.8 -23.78,36.09 m 97.25,-0.13 c 23.14,0.38 46.29,0.08 69.44,0.17 -10.38,-8.13 -22.57,-14.68 -35.88,-15.94 -13,-1.01 -25.47,5.93 -33.56,15.77 m -460.4,327.04 c 16.55,20.29 35.26,38.95 56.54,54.29 14.86,-17.9 29.65,-35.86 44.28,-53.95 -33.61,-0.4 -67.22,0.22 -100.82,-0.34 m 117.75,1.75 c -16.59,20.24 -32.98,40.65 -49.84,60.67 60.6,42.2 136.87,60.25 210.1,52.63 6.34,-0.2 11.24,-4.64 16.64,-7.37 11.74,-6.43 22.99,-13.9 32.48,-23.4 23.91,-23.14 39.74,-53.28 50.99,-84.27 -84.71,-0.18 -169.42,0.03 -254.12,-0.11 -2.18,0.12 -4.89,-0.28 -6.25,1.85 m 275.3,-1.77 c -4.95,13.91 -10.59,27.6 -17.38,40.72 -13.21,25.39 -30.54,49.4 -53.98,66.26 12.76,-2.83 25.25,-6.8 37.38,-11.65 25.02,-9.8 48.78,-22.78 70.45,-38.68 22.58,-16.46 43.08,-35.68 61.55,-56.62 -32.67,-0.14 -65.35,-0.07 -98.02,-0.03 z"
     id="path6"
     inkscape:connector-curvature="0"
     style="fill:#d0103c" />
  <path
     d="m 558.40768,62.192097 c 28.54,-9.2 58.42,-13.98 88.37,-14.79 5.5,-0.06 11.26,-0.91 16.46,1.39 16.17,6.66 32.11,14.3 46.18,24.79 8.41,6.24 16.71,13.91 19.72,24.28 2.77,11.080003 -0.66,22.510003 -5.56,32.460003 -31.3,-14.93 -64.53,-26.1 -98.86,-31.360003 -48.52,-7.66 -98.59,-4.69 -146.07,7.760003 -4.03,0.99 -8.08,1.88 -12.13,2.76 27.81,-20.580003 58.95,-36.700003 91.89,-47.290003 z"
     id="path8"
     inkscape:connector-curvature="0"
     style="fill:#fefffe" />
  <path
     d="m 700.33768,50.912097 c 48.98,6.68 96.03,25.87 136.23,54.540003 -13.05,22.88 -27.03,45.23 -41.48,67.25 -1.18,2.44 -3.84,0.58 -5.26,-0.55 -16.82,-13.15 -34.79,-24.82 -53.52,-35.08 5.69,-11.48 9.6,-24.45 7.72,-37.370003 -1.73,-12.11 -9.31,-22.49 -18.02,-30.68 -7.7,-7.16 -16.59,-12.88 -25.67,-18.11 z"
     id="path10"
     inkscape:connector-curvature="0"
     style="fill:#fefffe" />
  <path
     d="m 439.67768,134.1021 c 43.75,-16.3 90.4,-25.44 137.18,-24.75 47.86,0.55 95.54,11.91 138.57,32.85 -8.02,10.8 -18.29,19.69 -29.14,27.54 -16.16,11.57 -34.11,20.46 -52.73,27.32 -29.74,10.95 -59.53,21.82 -88.72,34.2 -4.43,1.9 -9.34,1.13 -14,1.26 -54.31,0.04 -108.61,-0.04 -162.92,-0.23 15.2,-35.21 37.98,-66.85 65.05,-93.89 1.89,-1.9 4.17,-3.41 6.71,-4.3 z"
     id="path12"
     inkscape:connector-curvature="0"
     style="fill:#fefffe" />
  <path
     d="m 848.10768,113.9421 c 32.82,26.22 61.07,58.46 81.12,95.48 -12.19,-5.92 -26.34,-9.21 -39.72,-5.73 -14.58,3.44 -26.5,13.64 -35.45,25.26 -15.56,-15.9 -32.2,-30.7 -49.32,-44.89 14.95,-23.07 29.51,-46.39 43.37,-70.12 z"
     id="path14"
     inkscape:connector-curvature="0"
     style="fill:#fefffe" />
  <path
     d="m 728.31768,149.1221 c 20.68,10.07 39.41,23.61 57.6,37.58 -10.05,15.31 -20.25,30.52 -30.6,45.63 -57.67,-0.18 -115.34,0.3 -173,-0.31 5.93,-3.71 12.73,-5.55 19.19,-8.12 18.03,-7.03 36.51,-12.92 54.22,-20.75 27.66,-12.45 53.91,-29.79 72.59,-54.03 z"
     id="path16"
     inkscape:connector-curvature="0"
     style="fill:#fefffe" />
  <path
     d="m 772.98768,232.2721 c 7.53,-12.29 15.96,-23.99 23.78,-36.09 8.28,5.54 15.35,12.71 22.83,19.26 6.09,5.55 12.01,11.28 17.98,16.96 -21.53,-0.22 -43.06,0.01 -64.59,-0.13 z"
     id="path18"
     inkscape:connector-curvature="0"
     style="fill:#fefffe" />
  <path
     d="m 870.23768,232.1421 c 8.09,-9.84 20.56,-16.78 33.56,-15.77 13.31,1.26 25.5,7.81 35.88,15.94 -23.15,-0.09 -46.3,0.21 -69.44,-0.17 z"
     id="path20"
     inkscape:connector-curvature="0"
     style="fill:#fefffe" />
  <path
     d="m 216.03768,261.9521 c 9.27,-0.85 18.6,-0.64 27.87,-1.5 24.98,-0.28 49.96,-0.04 74.95,-0.11 8.38,0.12 16.83,-0.57 25.15,0.86 0.68,2.88 1.43,5.91 0.49,8.84 -4.83,18.5 -9.23,37.12 -13.94,55.66 -2.06,7.86 -3.57,15.88 -6.42,23.5 -1.64,0.12 -3.26,0.24 -4.88,0.38 -3.29,-6.63 -4.23,-14.07 -6.95,-20.91 -5.65,-14.85 -15.88,-28.27 -29.79,-36.25 -16.29,-9.58 -36.1,-11.2 -54.49,-8.59 -25.2,4.92 -47.43,20.6 -62.97,40.73 -18,23.56 -31.55,50.31 -41.56,78.17 -11.22,31.84 -17.99,65.59 -16.92,99.46 0.71,21.68 5.32,43.79 16.92,62.4 8.95,14.48 22.53,26.89 39.29,31.29 12.26,3.57 25.52,2.03 37.31,-2.53 17.82,-7.07 32.97,-19.63 45.5,-33.94 9.96,-0.03 19.91,-0.04 29.87,0.01 -11.23,15.38 -24.74,29.07 -39.89,40.6 -12.59,9.6 -26.72,17.39 -41.97,21.82 -16.23,4.88 -33.61,4.66 -50.14,1.48 -30.05,-6.06 -57.28,-23.43 -76.92,-46.78 -12.86,-15.36 -22.45,-33.39 -28.35,-52.52 -8.24,-26.7 -9.17,-55.39 -3.95,-82.77 5.67,-29.78 17.41,-58.34 33.78,-83.83 17.6,-27.37 41.07,-51.12 68.99,-67.94 24.05,-14.52 51.15,-24 79.02,-27.53 z"
     id="path22"
     inkscape:connector-curvature="0"
     style="fill:#0446ac" />
  <path
     d="m 444.24768,274.0121 c 6.83,-0.95 14.51,-0.83 20.25,3.52 5.82,4.57 7.44,12.66 6.57,19.67 -1.55,10.44 -6.02,21.16 -14.81,27.5 -5.86,4.32 -13.31,5.93 -20.49,5.46 -7,0.02 -14.39,-3.79 -17.23,-10.39 -2.37,-8.48 -1.35,-17.72 1.96,-25.81 4.02,-9.94 12.82,-18.53 23.75,-19.95 m -0.01,8.79 c -4.1,1.43 -7.71,4.26 -9.73,8.14 -4.23,7.46 -5.45,16.51 -4.09,24.92 2.43,5.29 9.66,7.31 14.75,4.63 8.83,-3.83 11.83,-14.05 13.42,-22.72 1.33,-5.43 -0.69,-11.7 -5.45,-14.81 -2.78,-1.22 -6.05,-1.02 -8.9,-0.16 z"
     id="path24"
     inkscape:connector-curvature="0"
     style="fill:#0446ac" />
  <path
     d="m 695.23768,274.0721 c 4.53,-0.75 9.15,-0.69 13.73,-0.51 4.48,0.07 8.77,2.36 11.75,5.65 3.02,3.36 2.28,8.15 2.26,12.29 -4.14,0 -8.28,-0.01 -12.41,0 -0.08,-1.93 0.1,-3.88 -0.27,-5.77 -3.39,-4.51 -10.01,-4.74 -14.81,-2.6 -8.86,4.01 -13.2,14.02 -14.02,23.22 -0.4,4.33 0.14,9.51 3.95,12.26 5.32,3.7 12.2,2.93 18.22,1.78 0.87,-3.68 1.74,-7.34 2.68,-11 -3.41,-0.03 -6.82,-0.06 -10.22,-0.09 0.49,-3.14 1.05,-6.27 1.71,-9.38 7.46,0.03 14.92,0.01 22.38,0.05 -1.99,9.03 -3.85,18.1 -5.87,27.13 -10.23,3.21 -21.49,4.42 -31.98,1.76 -4.77,-1.22 -9.62,-3.79 -11.62,-8.56 -4.3,-8.73 -1.78,-18.87 1.83,-27.36 4.1,-9.42 12.85,-16.28 22.69,-18.87 z"
     id="path26"
     inkscape:connector-curvature="0"
     style="fill:#0446ac" />
  <path
     d="m 384.21768,274.1821 c 3.98,-0.03 7.97,-0.05 11.95,-0.05 -2.06,15.23 -6.3,30.05 -9.04,45.16 7.63,0.06 15.27,0.03 22.9,0.04 -0.58,3.19 -1.2,6.38 -1.86,9.56 -11.68,0.02 -23.36,0.03 -35.04,0 2.97,-18.38 7.88,-36.38 11.09,-54.71 z"
     id="path28"
     inkscape:connector-curvature="0"
     style="fill:#0446ac" />
  <path
     d="m 487.09768,282.5921 c 3.81,-4.81 9.72,-7.56 15.65,-8.59 6.59,-0.38 14.14,-0.88 19.36,3.96 3.55,3.07 2.88,8.14 2.94,12.34 -3.8,0.03 -7.6,0.06 -11.4,0.05 -0.55,-2.07 -0.68,-4.31 -1.71,-6.19 -4.38,-2.76 -11.21,-2.7 -14.21,2.06 -1.54,2.61 -2.15,7.42 1.47,8.57 6.46,2.61 13.9,3.15 19.56,7.53 2.9,2.38 2.62,6.55 2.39,9.92 -0.35,5.41 -4.11,9.9 -8.37,12.9 -7.24,4.93 -16.49,5.8 -24.97,4.62 -4.43,-0.77 -9.1,-3.31 -10.57,-7.81 -0.84,-3.56 -0.31,-7.24 -0.14,-10.84 4.03,-0.04 8.06,-0.05 12.09,-0.06 -0.2,3.37 -0.27,6.9 2.07,9.62 4.88,1.44 10.78,1.49 14.71,-2.2 2.34,-2.03 4.03,-6.26 1.24,-8.63 -3.43,-2.54 -7.96,-2.43 -11.84,-3.91 -4.31,-1.58 -9.24,-3.45 -11.38,-7.84 -1.37,-5.24 -0.42,-11.28 3.11,-15.5 z"
     id="path30"
     inkscape:connector-curvature="0"
     style="fill:#0446ac" />
  <path
     d="m 879.83768,288.4821 c 2.44,-7.34 9.29,-12.61 16.8,-13.96 7.15,-1.32 15.67,-1.84 21.41,3.48 3.32,3.18 2.85,8.13 2.86,12.32 -3.74,0.03 -7.48,0.05 -11.21,0.08 -0.71,-2.24 -0.7,-4.93 -2.39,-6.7 -5.5,-4.01 -14.77,-0.34 -15.53,6.57 -0.74,2.35 1.61,3.84 3.43,4.64 6.41,2.74 14,2.8 19.56,7.4 3.69,3.36 3.27,9.08 1.58,13.35 -3.47,8.97 -13.25,13.91 -22.45,14.41 -6.34,0.33 -13.68,0.42 -18.54,-4.34 -3.78,-3.94 -3.1,-9.84 -2.07,-14.72 3.77,0.02 7.54,0.06 11.32,0.06 0.24,3.18 0.81,6.32 1.76,9.37 4.34,1.21 9.13,1.63 13.4,-0.11 3.52,-2.08 5.01,-6.29 4.74,-10.22 -7.08,-3.44 -15.63,-3.5 -21.91,-8.63 -3.93,-2.99 -4.33,-8.65 -2.76,-13 z"
     id="path32"
     inkscape:connector-curvature="0"
     style="fill:#0446ac" />
  <path
     d="m 574.05768,274.9721 c 4.79,-0.15 9.6,-0.19 14.4,-0.17 2.53,18 5.22,35.98 7.15,54.05 -3.88,0.04 -7.77,0.07 -11.64,0.07 -0.65,-3.77 -1.17,-7.55 -1.55,-11.35 -7.07,-0.01 -14.14,-0.04 -21.2,0.04 -2.1,3.77 -4.24,7.53 -6.35,11.3 -3.79,0 -7.58,-0.03 -11.37,-0.1 9.93,-18.09 20.72,-35.7 30.56,-53.84 m -7.41,33.11 c 4.93,0.09 9.87,0.09 14.81,0.07 -1.32,-7 -1.54,-14.12 -2.3,-21.18 -5.14,6.42 -8.6,13.93 -12.51,21.11 z"
     id="path34"
     inkscape:connector-curvature="0"
     style="fill:#0446ac" />
  <path
     d="m 616.01768,274.8621 c 5.73,-0.05 11.46,-0.06 17.2,0 3.46,13.89 7.6,27.62 10.65,41.61 3.39,-13.79 5.99,-27.76 9.14,-41.61 3.69,-0.03 7.4,-0.04 11.1,-0.02 -3.82,18.03 -7.63,36.06 -11.52,54.08 -5.42,-0.02 -10.84,-0.02 -16.25,-0.01 -3.87,-13.9 -6.77,-28.06 -10.86,-41.9 -1.2,3.15 -2.23,6.37 -2.87,9.69 -2.19,10.76 -4.5,21.5 -6.9,32.22 -3.76,-0.01 -7.52,-0.03 -11.27,-0.07 3.99,-17.97 7.65,-36.01 11.58,-53.99 z"
     id="path36"
     inkscape:connector-curvature="0"
     style="fill:#0446ac" />
  <path
     d="m 728.26768,328.8421 c 3.92,-17.97 7.74,-35.95 11.49,-53.95 12.23,-0.13 24.45,-0.07 36.68,-0.05 -0.67,2.93 -1.3,5.86 -1.92,8.79 -8.07,-0.03 -16.14,0 -24.2,-0.04 -1.17,4.07 -2.19,8.18 -3.11,12.31 7.57,0.13 15.14,0.1 22.71,0.06 -0.34,3.1 -0.66,6.21 -0.96,9.33 -7.91,0.24 -15.83,0.09 -23.74,0.16 -1,4.58 -1.88,9.18 -2.42,13.84 8.19,0.06 16.37,0.04 24.56,0.02 -0.39,3.13 -0.76,6.26 -1.1,9.4 -12.66,0.39 -25.33,0.18 -37.99,0.13 z"
     id="path38"
     inkscape:connector-curvature="0"
     style="fill:#0446ac" />
  <path
     d="m 788.82768,274.8421 c 4.07,-0.02 8.14,-0.01 12.22,0.01 -3.28,14.78 -6.23,29.64 -9.55,44.41 7.71,0.1 15.43,0.06 23.14,0.06 -0.62,3.16 -1.2,6.33 -1.75,9.5 -11.84,0.15 -23.69,0.11 -35.53,0.04 3.78,-18.02 7.56,-36.03 11.47,-54.02 z"
     id="path40"
     inkscape:connector-curvature="0"
     style="fill:#0446ac" />
  <path
     d="m 822.94768,328.8621 c 3.85,-17.99 7.74,-35.97 11.49,-53.98 12.19,-0.13 24.38,-0.03 36.58,-0.06 -0.6,2.92 -1.18,5.85 -1.73,8.78 -8.12,0.03 -16.23,0.03 -24.34,-0.02 -1.18,4.07 -2.15,8.19 -3.03,12.34 7.64,0.11 15.28,0.05 22.92,0.06 -0.6,3.15 -1.22,6.3 -1.84,9.45 -7.68,0 -15.36,-0.04 -23.03,0.03 -0.96,4.61 -1.96,9.21 -2.95,13.81 8.39,0.1 16.78,0.04 25.17,0.06 -0.56,3.2 -1.16,6.39 -1.78,9.58 -12.49,-0.04 -24.98,0.06 -37.46,-0.05 z"
     id="path42"
     inkscape:connector-curvature="0"
     style="fill:#0446ac" />
  <path
     d="m 444.23768,282.8021 c 2.85,-0.86 6.12,-1.06 8.9,0.16 4.76,3.11 6.78,9.38 5.45,14.81 -1.59,8.67 -4.59,18.89 -13.42,22.72 -5.09,2.68 -12.32,0.66 -14.75,-4.63 -1.36,-8.41 -0.14,-17.46 4.09,-24.92 2.02,-3.88 5.63,-6.71 9.73,-8.14 z"
     id="path44"
     inkscape:connector-curvature="0"
     style="fill:#fefffe" />
  <path
     d="m 566.64768,308.0821 c 3.91,-7.18 7.37,-14.69 12.51,-21.11 0.76,7.06 0.98,14.18 2.3,21.18 -4.94,0.02 -9.88,0.02 -14.81,-0.07 z"
     id="path46"
     inkscape:connector-curvature="0"
     style="fill:#fefffe" />
  <path
     d="m 851.59768,362.9321 c 10.5,-4.33 22.12,-4.16 33.27,-3.7 9.81,0.85 19.92,0.78 29.26,4.31 -1.96,9.01 -5.55,17.55 -7.87,26.47 -1.04,4.1 -2.38,8.14 -4.45,11.85 -0.73,-7.25 -0.12,-15.12 -3.99,-21.63 -5.58,-9.75 -18.34,-14.49 -28.95,-10.89 -4.02,1.46 -7.91,4.61 -8.61,9.04 -0.77,4.86 1.31,9.57 3.74,13.65 8.73,14.46 19.54,27.59 27.56,42.48 4.46,8.29 8.23,17.17 9.12,26.64 1.5,13.18 -1.85,27.2 -10.59,37.39 -10.9,12.96 -28.86,18.47 -45.38,16.66 -8.4,-0.86 -15.26,-7.48 -23.92,-6.93 -6.27,-0.17 -11.65,3.38 -17.4,5.27 -3.68,1.23 -7.56,0.3 -11.24,-0.36 -10.24,9.74 -27.83,9.48 -37.99,-0.23 -4.55,-4.31 -8.3,-10.16 -8.22,-16.62 -0.3,-8.99 0.64,-18.02 -0.64,-26.96 -1,-7.19 -1.87,-14.52 -4.57,-21.31 -1.23,-3.05 -4.12,-6.18 -7.71,-5.54 -3.21,1.41 -4.06,5.18 -4.84,8.26 -2.42,10.86 -5.49,21.55 -8.11,32.37 -1.37,6.03 -2.25,12.99 1.41,18.42 2.89,3.85 7.36,6.03 10.84,9.28 -22.98,0.48 -45.96,0.45 -68.93,0 3.81,-3.17 8.82,-5.26 11.2,-9.86 5,-8.86 7.55,-18.78 10.26,-28.51 5.15,-19.08 9.98,-38.25 14.52,-57.49 3.02,-14.16 7.96,-28.5 5.62,-43.16 -0.71,-4.36 -4.91,-6.65 -8.13,-9.06 -0.04,-0.56 -0.11,-1.69 -0.14,-2.26 25.39,-0.46 50.79,-0.01 76.18,-0.22 11,-0.1 23.12,0.43 31.95,7.86 7.4,6.77 9.24,17.52 8.88,27.11 0.04,9.84 -5.47,18.85 -12.61,25.26 -8.65,8.14 -20.08,11.95 -30.95,16.09 1.09,5.95 7.75,7.99 9.91,13.32 2.78,6.08 1.68,12.93 2.34,19.39 0.94,9.32 0.19,18.97 3.27,27.96 0.84,2.64 3.07,5.33 6.12,5.03 4.06,0.26 6.92,-3.17 8.64,-6.42 7.45,-13.71 7.71,-29.89 14.14,-43.99 2.27,5.93 0.84,12.35 1.64,18.51 1.27,12.34 7.23,24.64 17.65,31.75 5.5,3.88 12.82,5.57 19.3,3.37 5.15,-1.97 9.42,-5.94 12.32,-10.58 3.74,-6.53 2.61,-14.63 -0.12,-21.31 -7.24,-17.58 -19.79,-32.13 -30.05,-47.93 -6.56,-10.11 -8.41,-22.83 -6.3,-34.59 2.12,-12.39 10.89,-23.47 22.57,-28.19 m -96.11,6.12 c -3.52,0.99 -6.1,4.05 -6.93,7.56 -3.68,14.12 -6.92,28.37 -10.76,42.46 -0.67,2.92 -1.81,6.02 -0.88,9.01 1.09,1.42 2.51,2.54 3.83,3.76 10.69,-0.95 21.02,-6.65 27.31,-15.4 7.72,-10.54 10.25,-24.97 5.66,-37.32 -2.39,-7.23 -10.73,-12.44 -18.23,-10.07 z"
     id="path48"
     inkscape:connector-curvature="0"
     style="fill:#0446ac" />
  <path
     d="m 165.55768,361.6021 c 18.41,-0.63 36.83,-0.11 55.24,-0.28 5.81,-0.01 11.63,-0.16 17.42,0.4 -3.68,3.35 -8.45,5.37 -11.69,9.21 -5.17,6.07 -9.32,13.14 -11.36,20.89 -9.34,33.76 -18.36,67.6 -27.39,101.44 -1.22,3.46 -0.91,8.5 3.35,9.54 10.43,1.45 21.41,-1.23 30.1,-7.19 8.77,-6.26 15.51,-14.97 20.71,-24.33 1.34,-2.58 3.32,-4.74 5.72,-6.38 -2.2,16.06 -7.21,31.57 -12.9,46.69 -6.93,1.23 -13.97,0.77 -20.96,0.83 -24,-0.02 -47.99,-0.03 -71.98,0.03 -3.17,0.05 -6.28,-0.62 -9.36,-1.29 11.08,-6.51 17.76,-18.35 20.98,-30.47 8.25,-31.23 16.47,-62.47 24.74,-93.7 1.46,-5.56 1.99,-12.31 -2.18,-16.87 -2.83,-3.66 -8.08,-4.45 -10.44,-8.52 z"
     id="path50"
     inkscape:connector-curvature="0"
     style="fill:#0446ac" />
  <path
     d="m 273.52768,361.4421 c 21.07,-0.12 42.15,-0.35 63.22,0.14 -4.41,3.74 -9.83,6.82 -12.37,12.27 -2.78,5.99 -4.56,12.38 -6.42,18.7 -8.23,29.69 -15.77,59.56 -23.76,89.32 -2,6.64 -2.52,14.1 0.43,20.56 1.37,3.34 4.59,5.45 5.88,8.84 -3.87,0.68 -7.78,1.22 -11.71,1.19 -12.99,-0.07 -25.98,-0.06 -38.97,0 -3.62,0.02 -7.21,-0.54 -10.77,-1.18 3.24,-3.99 7.55,-7.14 9.93,-11.78 3.79,-7.25 5.8,-15.22 7.88,-23.08 7.37,-27.38 14.74,-54.76 22.14,-82.13 1.76,-6.79 4.47,-13.84 2.77,-20.93 -1.09,-4.32 -4.94,-6.98 -8.16,-9.69 -0.02,-0.55 -0.07,-1.67 -0.09,-2.23 z"
     id="path52"
     inkscape:connector-curvature="0"
     style="fill:#0446ac" />
  <path
     d="m 349.29768,361.3821 c 28.18,-0.07 56.36,-0.14 84.54,0.03 7.3,-0.25 14.47,2.34 20.41,6.48 6.63,4.88 9.44,13.32 10.12,21.23 1.22,12.46 -5.06,24.41 -13.53,33.14 -9.97,10.56 -23.77,16.71 -37.82,19.63 -9.53,1.97 -19.27,0.01 -28.88,0.83 -4.36,11.43 -7.57,23.26 -10.46,35.13 -1.58,6.98 -3.52,14.48 -0.9,21.46 1.96,5.64 7.8,8.22 12.03,11.87 -6.5,1.84 -13.29,1.16 -19.95,1.24 -13.05,-0.02 -26.11,0.01 -39.16,0.01 -2.61,0.05 -5.06,-0.95 -7.5,-1.7 3.85,-4.21 8.44,-7.93 11.07,-13.11 5.12,-9.07 6.61,-19.49 9.38,-29.39 4.3,-16.38 8.52,-32.78 12.74,-49.18 3.38,-12.53 6.97,-25.03 9.45,-37.78 2.34,-8.51 -5.26,-15.45 -11.54,-19.89 m 55.5,7.85 c -3.05,2.35 -4.29,6.18 -5.27,9.75 -3.93,14.91 -7.86,29.82 -11.97,44.68 -0.72,2.74 -1.14,5.55 -1.5,8.37 1.18,0.86 2.36,1.74 3.55,2.62 11.29,0.41 22.41,-5.79 28.05,-15.55 7.17,-11.8 9.91,-26.02 8.52,-39.69 -0.51,-5.66 -5.32,-9.94 -10.23,-12.12 -3.74,-0.36 -8.07,-0.61 -11.15,1.94 z"
     id="path54"
     inkscape:connector-curvature="0"
     style="fill:#0446ac" />
  <path
     d="m 464.83768,361.4621 c 27.69,-0.33 55.38,-0.03 83.07,-0.16 9.08,-0.08 18.36,3.48 24.38,10.41 4.86,5.29 7.09,12.49 7.54,19.54 1.04,9.26 -3.65,17.94 -8.73,25.31 -9.87,13.83 -25.96,21.88 -42.28,25.26 -9.67,2.1 -19.55,0 -29.3,1 -4.58,11.76 -7.55,24.04 -10.68,36.23 -1.87,7.21 -3.09,15.18 -0.04,22.26 1.6,3.93 5.58,5.95 8.96,8.13 -0.01,0.74 -0.03,2.23 -0.04,2.97 -21.17,0.01 -42.35,0.01 -63.52,0 -0.08,-0.93 -0.15,-1.86 -0.22,-2.78 9.59,-6.05 14.27,-17.06 16.67,-27.7 8.2,-32.27 16.71,-64.47 25.08,-96.7 1.01,-3.89 1.59,-8.14 -0.03,-11.95 -1.89,-5.25 -6.7,-8.48 -10.86,-11.82 m 56.46,7.55 c -3.69,2.25 -5.21,6.61 -6.33,10.56 -3.89,14.63 -7.7,29.28 -11.75,43.87 -0.71,3.28 -2.53,6.94 -0.79,10.18 3.8,1.86 8.26,1.16 12.29,0.54 7.41,-2.41 14.01,-7.29 18.11,-13.97 7.09,-11.23 9.63,-24.88 9.04,-38.02 -0.31,-5.53 -3.4,-11.34 -8.82,-13.3 -3.77,-1.23 -8.02,-1.17 -11.75,0.14 z"
     id="path56"
     inkscape:connector-curvature="0"
     style="fill:#0446ac" />
  <path
     d="m 576.70768,361.7621 c 37.06,-0.68 74.13,-0.06 111.19,-0.32 -1.37,10.79 -4.76,21.16 -7.06,31.76 -0.66,3.43 -2,6.71 -4.14,9.48 -0.8,-9.96 0.14,-22.04 -8.31,-29.16 -9.69,-7.42 -22.56,-4.43 -33.83,-4.97 -3.24,4.1 -5.28,8.99 -6.52,14.04 -2.21,9.29 -4.86,18.46 -7.22,27.71 -1.11,4.29 -1.39,8.74 -1.06,13.16 7.65,0.7 15.63,-0.85 22,-5.3 7.2,-4.6 11.37,-12.39 17.87,-17.78 -0.34,4.14 -1.09,8.24 -2.18,12.25 -4.65,17.65 -8.88,35.42 -13.47,53.1 -0.56,0.24 -1.66,0.73 -2.22,0.97 -0.79,-9.37 -1.55,-19.83 -8.39,-27 -3.8,-4.41 -10.31,-7.27 -15.94,-4.78 -3.39,1.42 -4.25,5.37 -5.3,8.51 -4.58,17.64 -9.47,35.21 -13.96,52.87 -1.46,4.36 1.6,9.77 6.48,9.56 12.62,0.13 26.35,0.67 37.47,-6.31 13.01,-8.51 19.64,-23.26 30.52,-33.93 -0.85,10.63 -5,20.54 -7.74,30.74 -1.27,4.01 -2.02,8.24 -4.03,11.97 -0.77,1.09 -1.47,2.8 -3.08,2.58 -35.32,0.57 -70.65,-0.01 -105.98,0.28 -2.97,0.13 -5.92,-0.32 -8.77,-1.13 10.85,-4.75 18.36,-15.04 21.37,-26.29 8.2,-31.84 16.18,-63.74 24.45,-95.56 1.14,-5.07 1.95,-10.5 0.5,-15.58 -2.57,-5.22 -8.71,-6.92 -12.65,-10.87 z"
     id="path58"
     inkscape:connector-curvature="0"
     style="fill:#0446ac" />
  <path
     d="m 404.79768,369.2321 c 3.08,-2.55 7.41,-2.3 11.15,-1.94 4.91,2.18 9.72,6.46 10.23,12.12 1.39,13.67 -1.35,27.89 -8.52,39.69 -5.64,9.76 -16.76,15.96 -28.05,15.55 -1.19,-0.88 -2.37,-1.76 -3.55,-2.62 0.36,-2.82 0.78,-5.63 1.5,-8.37 4.11,-14.86 8.04,-29.77 11.97,-44.68 0.98,-3.57 2.22,-7.4 5.27,-9.75 z"
     id="path60"
     inkscape:connector-curvature="0"
     style="fill:#fefffe" />
  <path
     d="m 521.29768,369.0121 c 3.73,-1.31 7.98,-1.37 11.75,-0.14 5.42,1.96 8.51,7.77 8.82,13.3 0.59,13.14 -1.95,26.79 -9.04,38.02 -4.1,6.68 -10.7,11.56 -18.11,13.97 -4.03,0.62 -8.49,1.32 -12.29,-0.54 -1.74,-3.24 0.08,-6.9 0.79,-10.18 4.05,-14.59 7.86,-29.24 11.75,-43.87 1.12,-3.95 2.64,-8.31 6.33,-10.56 z"
     id="path62"
     inkscape:connector-curvature="0"
     style="fill:#fefffe" />
  <path
     d="m 755.48768,369.0521 c 7.5,-2.37 15.84,2.84 18.23,10.07 4.59,12.35 2.06,26.78 -5.66,37.32 -6.29,8.75 -16.62,14.45 -27.31,15.4 -1.32,-1.22 -2.74,-2.34 -3.83,-3.76 -0.93,-2.99 0.21,-6.09 0.88,-9.01 3.84,-14.09 7.08,-28.34 10.76,-42.46 0.83,-3.51 3.41,-6.57 6.93,-7.56 z"
     id="path64"
     inkscape:connector-curvature="0"
     style="fill:#fefffe" />
  <path
     d="m 409.83768,559.1821 c 33.6,0.56 67.21,-0.06 100.82,0.34 -14.63,18.09 -29.42,36.05 -44.28,53.95 -21.28,-15.34 -39.99,-34 -56.54,-54.29 z"
     id="path66"
     inkscape:connector-curvature="0"
     style="fill:#fefffe" />
  <path
     d="m 527.58768,560.9321 c 1.36,-2.13 4.07,-1.73 6.25,-1.85 84.7,0.14 169.41,-0.07 254.12,0.11 -11.25,30.99 -27.08,61.13 -50.99,84.27 -9.49,9.5 -20.74,16.97 -32.48,23.4 -5.4,2.73 -10.3,7.17 -16.64,7.37 -73.23,7.62 -149.5,-10.43 -210.1,-52.63 16.86,-20.02 33.25,-40.43 49.84,-60.67 z"
     id="path68"
     inkscape:connector-curvature="0"
     style="fill:#fefffe" />
  <path
     d="m 802.88768,559.1621 c 32.67,-0.04 65.35,-0.11 98.02,0.03 -18.47,20.94 -38.97,40.16 -61.55,56.62 -21.67,15.9 -45.43,28.88 -70.45,38.68 -12.13,4.85 -24.62,8.82 -37.38,11.65 23.44,-16.86 40.77,-40.87 53.98,-66.26 6.79,-13.12 12.43,-26.81 17.38,-40.72 z"
     id="path70"
     inkscape:connector-curvature="0"
     style="fill:#fefffe" />
</svg>
