<?xml version="1.0" encoding="UTF-8"?>
<svg xmlns="http://www.w3.org/2000/svg" xmlns:xlink="http://www.w3.org/1999/xlink" width="25pt" height="25pt" viewBox="0 0 25 25" version="1.1">
<g id="surface1">
<path style=" stroke:none;fill-rule:evenodd;fill:rgb(100%,100%,100%);fill-opacity:1;" d="M 0 0 L 24.96875 0 L 24.96875 24.96875 L 0 24.96875 Z M 0 0 "/>
<path style=" stroke:none;fill-rule:evenodd;fill:rgb(0%,0%,0%);fill-opacity:1;" d="M 23.003906 17.441406 C 22.1875 17.089844 21.363281 16.769531 20.511719 16.5 C 19.808594 16.277344 19.140625 16.101562 18.484375 15.949219 L 18.277344 15.902344 L 18.242188 16.109375 L 17.851562 18.371094 L 17.824219 18.535156 L 17.976562 18.589844 C 18.996094 18.984375 19.988281 19.445312 20.964844 19.929688 Z M 23.003906 17.441406 "/>
<path style=" stroke:none;fill-rule:evenodd;fill:rgb(0%,0%,0%);fill-opacity:1;" d="M 1.964844 17.441406 C 2.78125 17.089844 3.605469 16.769531 4.457031 16.5 C 5.160156 16.277344 5.832031 16.101562 6.488281 15.949219 L 6.691406 15.902344 L 6.730469 16.109375 L 7.117188 18.371094 L 7.144531 18.535156 L 6.992188 18.589844 C 5.972656 18.984375 4.980469 19.445312 4.003906 19.929688 Z M 1.964844 17.441406 "/>
<path style=" stroke:none;fill-rule:evenodd;fill:rgb(0%,0%,0%);fill-opacity:1;" d="M 12.488281 23.867188 L 12.242188 23.71875 C 9.113281 21.808594 6.742188 19.683594 5.144531 17.101562 C 3.546875 14.507812 2.734375 11.480469 2.734375 7.757812 L 2.734375 4.878906 L 12.488281 1.101562 L 22.230469 4.878906 L 22.230469 7.757812 C 22.230469 11.480469 21.421875 14.507812 19.824219 17.101562 C 18.226562 19.683594 15.855469 21.808594 12.730469 23.71875 Z M 12.488281 23.867188 "/>
<path style=" stroke:none;fill-rule:evenodd;fill:rgb(100%,100%,100%);fill-opacity:1;" d="M 12.488281 23.320312 C 6.347656 19.574219 3.203125 15.015625 3.203125 7.757812 L 3.203125 5.195312 L 12.488281 1.601562 L 21.765625 5.195312 L 21.765625 7.757812 C 21.765625 15.015625 18.621094 19.574219 12.488281 23.320312 Z M 12.488281 23.320312 "/>
<path style=" stroke:none;fill-rule:evenodd;fill:rgb(0%,56.470588%,29.803922%);fill-opacity:1;" d="M 12.488281 22.714844 C 15.351562 20.929688 17.527344 18.953125 18.988281 16.585938 C 20.492188 14.15625 21.25 11.292969 21.25 7.757812 L 21.25 5.546875 L 12.488281 2.152344 L 3.71875 5.546875 L 3.71875 7.757812 C 3.71875 11.292969 4.480469 14.15625 5.980469 16.585938 C 7.445312 18.953125 9.617188 20.929688 12.488281 22.714844 Z M 12.488281 22.714844 "/>
<path style=" stroke:none;fill-rule:evenodd;fill:rgb(100%,94.901961%,0%);fill-opacity:1;" d="M 12.488281 4.175781 C 16.738281 4.175781 20.214844 7.648438 20.214844 11.910156 C 20.214844 14.898438 18.496094 17.503906 16 18.789062 C 14.941406 19.332031 13.746094 19.46875 12.488281 19.46875 C 11.023438 19.46875 9.652344 19.226562 8.484375 18.515625 C 6.25 17.15625 4.757812 14.699219 4.757812 11.910156 C 4.757812 7.648438 8.226562 4.175781 12.488281 4.175781 Z M 12.488281 4.175781 "/>
<path style=" stroke:none;fill-rule:evenodd;fill:rgb(0%,56.470588%,29.803922%);fill-opacity:1;" d="M 2.609375 17.601562 L 4.109375 19.429688 C 4.828125 19.078125 5.5 18.773438 6.128906 18.511719 C 5.773438 18.050781 5.445312 17.585938 5.144531 17.101562 C 5.078125 16.988281 5.015625 16.878906 4.945312 16.765625 C 4.824219 16.804688 4.699219 16.839844 4.574219 16.878906 C 3.957031 17.078125 3.304688 17.3125 2.609375 17.601562 Z M 2.609375 17.601562 "/>
<path style=" stroke:none;fill-rule:evenodd;fill:rgb(0%,56.470588%,29.803922%);fill-opacity:1;" d="M 12.488281 4.589844 C 16.511719 4.589844 19.796875 7.875 19.796875 11.910156 C 19.796875 15.929688 16.511719 19.21875 12.488281 19.21875 C 8.457031 19.21875 5.171875 15.929688 5.171875 11.910156 C 5.171875 7.875 8.457031 4.589844 12.488281 4.589844 Z M 12.488281 4.589844 "/>
<path style=" stroke:none;fill-rule:evenodd;fill:rgb(100%,94.901961%,0%);fill-opacity:1;" d="M 18.34375 14.636719 C 18.289062 14.707031 18.242188 14.753906 18.199219 14.773438 C 18.140625 14.804688 18.082031 14.804688 18.023438 14.777344 C 17.960938 14.75 17.917969 14.699219 17.894531 14.632812 C 17.875 14.542969 17.890625 14.441406 17.941406 14.316406 L 18.136719 13.886719 L 18.160156 13.894531 C 18.140625 13.9375 18.132812 13.960938 18.136719 13.984375 C 18.136719 14 18.140625 14.011719 18.148438 14.023438 C 18.160156 14.035156 18.1875 14.050781 18.234375 14.070312 L 18.789062 14.316406 C 18.835938 14.339844 18.867188 14.347656 18.878906 14.347656 C 18.894531 14.347656 18.90625 14.34375 18.921875 14.332031 C 18.933594 14.316406 18.949219 14.296875 18.96875 14.253906 L 18.992188 14.265625 L 18.8125 14.671875 C 18.765625 14.773438 18.726562 14.839844 18.6875 14.871094 C 18.652344 14.90625 18.617188 14.921875 18.570312 14.929688 C 18.523438 14.941406 18.480469 14.9375 18.441406 14.917969 C 18.398438 14.902344 18.371094 14.867188 18.351562 14.824219 C 18.332031 14.78125 18.332031 14.714844 18.34375 14.636719 Z M 18.34375 14.636719 "/>
<path style=" stroke:none;fill-rule:evenodd;fill:rgb(0%,56.470588%,29.803922%);fill-opacity:1;" d="M 18.417969 14.390625 L 18.140625 14.265625 L 18.113281 14.253906 C 18.085938 14.246094 18.070312 14.242188 18.054688 14.25 C 18.035156 14.253906 18.023438 14.269531 18.011719 14.292969 C 17.996094 14.328125 17.988281 14.359375 17.992188 14.394531 C 17.992188 14.429688 18.007812 14.460938 18.027344 14.488281 C 18.046875 14.515625 18.078125 14.539062 18.113281 14.554688 C 18.15625 14.570312 18.191406 14.574219 18.234375 14.570312 C 18.273438 14.566406 18.308594 14.554688 18.332031 14.523438 C 18.363281 14.5 18.386719 14.453125 18.417969 14.390625 Z M 18.417969 14.390625 "/>
<path style=" stroke:none;fill-rule:evenodd;fill:rgb(0%,56.470588%,29.803922%);fill-opacity:1;" d="M 18.464844 14.410156 C 18.4375 14.46875 18.425781 14.515625 18.425781 14.554688 C 18.429688 14.589844 18.4375 14.617188 18.453125 14.644531 C 18.472656 14.667969 18.5 14.691406 18.539062 14.707031 C 18.574219 14.722656 18.605469 14.734375 18.640625 14.726562 C 18.671875 14.722656 18.699219 14.710938 18.722656 14.6875 C 18.746094 14.664062 18.773438 14.621094 18.800781 14.5625 Z M 18.464844 14.410156 "/>
<path style=" stroke:none;fill-rule:evenodd;fill:rgb(100%,94.901961%,0%);fill-opacity:1;" d="M 19.292969 13.085938 L 19.191406 13.554688 L 19.167969 13.550781 L 19.175781 13.527344 C 19.179688 13.492188 19.183594 13.464844 19.179688 13.449219 C 19.175781 13.4375 19.167969 13.425781 19.152344 13.414062 C 19.140625 13.40625 19.105469 13.398438 19.054688 13.386719 L 18.605469 13.292969 C 18.527344 13.277344 18.472656 13.269531 18.441406 13.277344 C 18.414062 13.28125 18.386719 13.296875 18.363281 13.324219 C 18.339844 13.347656 18.324219 13.382812 18.316406 13.425781 C 18.300781 13.476562 18.308594 13.515625 18.320312 13.554688 C 18.335938 13.597656 18.363281 13.632812 18.394531 13.65625 C 18.433594 13.683594 18.496094 13.703125 18.59375 13.726562 L 18.96875 13.804688 C 19.007812 13.8125 19.039062 13.8125 19.0625 13.808594 C 19.078125 13.804688 19.089844 13.796875 19.101562 13.785156 C 19.117188 13.765625 19.128906 13.742188 19.136719 13.703125 L 19.164062 13.707031 L 19.09375 14.027344 L 19.070312 14.015625 L 19.074219 14 C 19.078125 13.976562 19.078125 13.953125 19.070312 13.933594 C 19.066406 13.914062 19.050781 13.898438 19.03125 13.886719 C 19.019531 13.878906 18.992188 13.867188 18.953125 13.859375 L 18.609375 13.789062 C 18.5 13.761719 18.425781 13.742188 18.378906 13.714844 C 18.335938 13.691406 18.296875 13.648438 18.273438 13.585938 C 18.242188 13.523438 18.238281 13.441406 18.261719 13.347656 C 18.277344 13.269531 18.296875 13.207031 18.328125 13.175781 C 18.371094 13.125 18.417969 13.089844 18.46875 13.074219 C 18.519531 13.058594 18.578125 13.058594 18.652344 13.078125 L 19.101562 13.171875 C 19.15625 13.179688 19.1875 13.183594 19.203125 13.179688 C 19.21875 13.175781 19.230469 13.171875 19.238281 13.15625 C 19.25 13.144531 19.257812 13.121094 19.269531 13.082031 Z M 19.292969 13.085938 "/>
<path style=" stroke:none;fill-rule:evenodd;fill:rgb(100%,94.901961%,0%);fill-opacity:1;" d="M 18.726562 12.839844 L 18.398438 12.785156 L 18.460938 11.953125 L 18.484375 11.953125 L 18.480469 11.988281 C 18.480469 12.015625 18.484375 12.035156 18.492188 12.050781 C 18.496094 12.066406 18.503906 12.078125 18.523438 12.085938 C 18.535156 12.089844 18.5625 12.09375 18.605469 12.097656 L 19.222656 12.140625 C 19.269531 12.144531 19.300781 12.144531 19.308594 12.140625 C 19.324219 12.136719 19.335938 12.125 19.34375 12.113281 C 19.355469 12.09375 19.359375 12.078125 19.367188 12.046875 L 19.367188 12.019531 L 19.390625 12.019531 L 19.355469 12.519531 L 19.332031 12.515625 L 19.335938 12.476562 C 19.335938 12.445312 19.332031 12.425781 19.324219 12.40625 C 19.320312 12.394531 19.304688 12.386719 19.292969 12.378906 C 19.28125 12.375 19.253906 12.371094 19.207031 12.367188 L 18.613281 12.324219 C 18.566406 12.320312 18.535156 12.320312 18.523438 12.324219 C 18.503906 12.332031 18.496094 12.339844 18.488281 12.355469 C 18.484375 12.367188 18.480469 12.394531 18.476562 12.4375 L 18.472656 12.515625 C 18.46875 12.566406 18.476562 12.605469 18.488281 12.640625 C 18.503906 12.675781 18.53125 12.703125 18.566406 12.734375 C 18.601562 12.757812 18.652344 12.785156 18.726562 12.8125 Z M 18.726562 12.839844 "/>
<path style=" stroke:none;fill-rule:evenodd;fill:rgb(100%,94.901961%,0%);fill-opacity:1;" d="M 19.421875 11.769531 L 19.097656 11.796875 L 19.097656 11.769531 C 19.179688 11.742188 19.238281 11.699219 19.28125 11.640625 C 19.320312 11.582031 19.335938 11.519531 19.332031 11.445312 C 19.328125 11.386719 19.304688 11.335938 19.269531 11.289062 C 19.230469 11.246094 19.183594 11.214844 19.128906 11.195312 C 19.054688 11.175781 18.976562 11.167969 18.890625 11.175781 C 18.8125 11.179688 18.734375 11.195312 18.667969 11.226562 C 18.597656 11.25 18.550781 11.289062 18.523438 11.335938 C 18.488281 11.386719 18.476562 11.445312 18.484375 11.519531 C 18.488281 11.574219 18.507812 11.628906 18.535156 11.675781 C 18.566406 11.722656 18.617188 11.769531 18.683594 11.816406 L 18.605469 11.824219 C 18.542969 11.777344 18.496094 11.726562 18.46875 11.671875 C 18.4375 11.617188 18.421875 11.550781 18.417969 11.476562 C 18.40625 11.378906 18.417969 11.285156 18.449219 11.207031 C 18.484375 11.125 18.535156 11.0625 18.609375 11.015625 C 18.679688 10.964844 18.757812 10.9375 18.839844 10.929688 C 18.929688 10.921875 19.015625 10.9375 19.097656 10.976562 C 19.183594 11.015625 19.25 11.074219 19.300781 11.148438 C 19.351562 11.222656 19.382812 11.308594 19.386719 11.394531 C 19.394531 11.460938 19.386719 11.53125 19.367188 11.609375 C 19.351562 11.648438 19.34375 11.675781 19.347656 11.6875 C 19.347656 11.699219 19.351562 11.714844 19.367188 11.726562 C 19.378906 11.734375 19.394531 11.738281 19.421875 11.742188 Z M 19.421875 11.769531 "/>
<path style=" stroke:none;fill-rule:evenodd;fill:rgb(100%,94.901961%,0%);fill-opacity:1;" d="M 18.5625 10.210938 L 18.238281 10.28125 L 17.96875 9.5 L 17.992188 9.492188 L 18 9.519531 C 18.011719 9.546875 18.023438 9.5625 18.039062 9.574219 C 18.046875 9.582031 18.0625 9.59375 18.078125 9.59375 C 18.089844 9.59375 18.121094 9.582031 18.164062 9.570312 L 18.742188 9.371094 C 18.789062 9.355469 18.820312 9.34375 18.828125 9.332031 C 18.835938 9.324219 18.84375 9.3125 18.847656 9.296875 C 18.847656 9.277344 18.847656 9.257812 18.839844 9.230469 L 18.828125 9.203125 L 18.851562 9.195312 L 19.015625 9.664062 L 18.992188 9.671875 L 18.980469 9.632812 C 18.96875 9.609375 18.957031 9.59375 18.941406 9.578125 C 18.933594 9.566406 18.921875 9.5625 18.902344 9.5625 C 18.890625 9.5625 18.863281 9.566406 18.820312 9.582031 L 18.253906 9.777344 C 18.210938 9.792969 18.179688 9.804688 18.171875 9.8125 C 18.164062 9.824219 18.152344 9.835938 18.152344 9.855469 C 18.152344 9.867188 18.164062 9.894531 18.175781 9.933594 L 18.199219 10.007812 C 18.21875 10.054688 18.238281 10.089844 18.265625 10.117188 C 18.292969 10.140625 18.328125 10.160156 18.371094 10.171875 C 18.417969 10.179688 18.476562 10.183594 18.550781 10.179688 Z M 18.5625 10.210938 "/>
<path style=" stroke:none;fill-rule:evenodd;fill:rgb(100%,94.901961%,0%);fill-opacity:1;" d="M 18.230469 9.261719 L 17.925781 9.398438 L 17.511719 8.675781 L 17.535156 8.664062 L 17.546875 8.691406 C 17.5625 8.714844 17.578125 8.730469 17.59375 8.742188 C 17.609375 8.75 17.621094 8.75 17.636719 8.75 C 17.648438 8.746094 17.675781 8.738281 17.71875 8.710938 L 18.246094 8.402344 C 18.289062 8.378906 18.316406 8.363281 18.324219 8.351562 C 18.332031 8.34375 18.335938 8.328125 18.335938 8.308594 C 18.335938 8.292969 18.328125 8.269531 18.316406 8.25 L 18.296875 8.222656 L 18.324219 8.210938 L 18.570312 8.644531 L 18.546875 8.65625 L 18.527344 8.617188 C 18.515625 8.597656 18.5 8.578125 18.484375 8.570312 C 18.472656 8.5625 18.460938 8.558594 18.441406 8.5625 C 18.429688 8.5625 18.402344 8.574219 18.363281 8.597656 L 17.84375 8.898438 C 17.804688 8.917969 17.777344 8.933594 17.769531 8.949219 C 17.761719 8.960938 17.761719 8.972656 17.761719 8.992188 C 17.765625 9.003906 17.777344 9.027344 17.796875 9.066406 L 17.835938 9.132812 C 17.863281 9.175781 17.890625 9.210938 17.921875 9.226562 C 17.957031 9.25 17.992188 9.261719 18.035156 9.261719 C 18.082031 9.261719 18.140625 9.257812 18.214844 9.234375 Z M 18.230469 9.261719 "/>
<path style=" stroke:none;fill-rule:evenodd;fill:rgb(100%,94.901961%,0%);fill-opacity:1;" d="M 17.453125 8.140625 L 17.242188 7.882812 L 17.148438 7.910156 C 17.117188 7.917969 17.089844 7.925781 17.078125 7.941406 C 17.058594 7.957031 17.050781 7.976562 17.054688 8.003906 C 17.054688 8.015625 17.070312 8.042969 17.097656 8.085938 L 17.078125 8.101562 L 16.882812 7.859375 L 16.902344 7.84375 C 16.925781 7.863281 16.957031 7.875 16.984375 7.882812 C 17.019531 7.882812 17.070312 7.871094 17.148438 7.855469 L 17.9375 7.644531 L 17.941406 7.652344 L 17.5625 8.398438 C 17.523438 8.46875 17.507812 8.519531 17.503906 8.546875 C 17.503906 8.566406 17.511719 8.589844 17.527344 8.613281 L 17.507812 8.628906 L 17.222656 8.277344 L 17.242188 8.261719 L 17.253906 8.273438 C 17.277344 8.304688 17.292969 8.320312 17.3125 8.324219 C 17.324219 8.328125 17.335938 8.324219 17.351562 8.316406 C 17.355469 8.3125 17.359375 8.308594 17.367188 8.300781 C 17.367188 8.296875 17.375 8.277344 17.390625 8.25 Z M 17.453125 8.140625 "/>
<path style=" stroke:none;fill-rule:evenodd;fill:rgb(0%,56.470588%,29.803922%);fill-opacity:1;" d="M 17.476562 8.089844 L 17.636719 7.78125 L 17.300781 7.867188 Z M 17.476562 8.089844 "/>
<path style=" stroke:none;fill-rule:evenodd;fill:rgb(100%,94.901961%,0%);fill-opacity:1;" d="M 16.984375 7.265625 C 17.035156 7.34375 17.066406 7.402344 17.070312 7.449219 C 17.078125 7.511719 17.0625 7.570312 17.015625 7.617188 C 16.96875 7.675781 16.910156 7.695312 16.832031 7.691406 C 16.75 7.683594 16.65625 7.636719 16.558594 7.546875 L 16.210938 7.222656 L 16.226562 7.203125 C 16.257812 7.234375 16.28125 7.25 16.300781 7.253906 C 16.316406 7.257812 16.328125 7.257812 16.347656 7.25 C 16.359375 7.246094 16.378906 7.226562 16.417969 7.191406 L 16.828125 6.746094 C 16.863281 6.707031 16.882812 6.683594 16.886719 6.671875 C 16.890625 6.65625 16.890625 6.640625 16.882812 6.625 C 16.878906 6.605469 16.863281 6.585938 16.828125 6.554688 L 16.847656 6.539062 L 17.175781 6.84375 C 17.253906 6.914062 17.304688 6.976562 17.320312 7.015625 C 17.339844 7.0625 17.34375 7.105469 17.339844 7.152344 C 17.332031 7.199219 17.316406 7.238281 17.285156 7.265625 C 17.257812 7.300781 17.214844 7.316406 17.167969 7.324219 C 17.121094 7.328125 17.058594 7.308594 16.984375 7.265625 Z M 16.984375 7.265625 "/>
<path style=" stroke:none;fill-rule:evenodd;fill:rgb(0%,56.470588%,29.803922%);fill-opacity:1;" d="M 16.777344 7.117188 L 16.574219 7.339844 L 16.550781 7.363281 C 16.53125 7.382812 16.523438 7.402344 16.523438 7.417969 C 16.523438 7.4375 16.53125 7.453125 16.554688 7.46875 C 16.578125 7.496094 16.609375 7.511719 16.644531 7.519531 C 16.675781 7.53125 16.710938 7.53125 16.746094 7.519531 C 16.777344 7.507812 16.808594 7.488281 16.832031 7.460938 C 16.863281 7.429688 16.882812 7.394531 16.894531 7.351562 C 16.902344 7.3125 16.898438 7.28125 16.878906 7.242188 C 16.863281 7.207031 16.828125 7.167969 16.777344 7.117188 Z M 16.777344 7.117188 "/>
<path style=" stroke:none;fill-rule:evenodd;fill:rgb(0%,56.470588%,29.803922%);fill-opacity:1;" d="M 16.816406 7.082031 C 16.863281 7.128906 16.902344 7.152344 16.933594 7.164062 C 16.96875 7.175781 17 7.175781 17.027344 7.164062 C 17.058594 7.15625 17.085938 7.140625 17.117188 7.109375 C 17.148438 7.082031 17.164062 7.046875 17.167969 7.015625 C 17.175781 6.988281 17.171875 6.957031 17.160156 6.929688 C 17.148438 6.894531 17.113281 6.855469 17.066406 6.8125 Z M 16.816406 7.082031 "/>
<path style=" stroke:none;fill-rule:evenodd;fill:rgb(100%,94.901961%,0%);fill-opacity:1;" d="M 16.636719 6.375 L 16.503906 6.585938 L 16.480469 6.574219 C 16.503906 6.519531 16.511719 6.472656 16.507812 6.441406 C 16.507812 6.40625 16.496094 6.378906 16.476562 6.347656 C 16.46875 6.332031 16.445312 6.3125 16.40625 6.289062 L 16.347656 6.253906 L 15.964844 6.863281 C 15.941406 6.90625 15.925781 6.933594 15.921875 6.945312 C 15.921875 6.957031 15.925781 6.972656 15.933594 6.988281 C 15.945312 7.003906 15.957031 7.015625 15.980469 7.035156 L 16.007812 7.050781 L 15.996094 7.074219 L 15.578125 6.808594 L 15.59375 6.789062 L 15.617188 6.804688 C 15.644531 6.824219 15.664062 6.828125 15.679688 6.832031 C 15.695312 6.832031 15.710938 6.828125 15.722656 6.8125 C 15.730469 6.808594 15.75 6.785156 15.773438 6.746094 L 16.15625 6.136719 L 16.101562 6.097656 C 16.046875 6.0625 16.003906 6.050781 15.960938 6.058594 C 15.910156 6.070312 15.859375 6.101562 15.8125 6.152344 L 15.792969 6.140625 L 15.925781 5.925781 Z M 16.636719 6.375 "/>
<path style=" stroke:none;fill-rule:evenodd;fill:rgb(100%,94.901961%,0%);fill-opacity:1;" d="M 15.269531 5.582031 C 15.410156 5.636719 15.503906 5.726562 15.550781 5.847656 C 15.597656 5.972656 15.59375 6.09375 15.539062 6.222656 C 15.488281 6.332031 15.414062 6.410156 15.3125 6.46875 C 15.179688 6.539062 15.039062 6.539062 14.886719 6.472656 C 14.734375 6.402344 14.636719 6.296875 14.597656 6.15625 C 14.566406 6.042969 14.582031 5.933594 14.632812 5.820312 C 14.6875 5.691406 14.773438 5.605469 14.902344 5.5625 C 15.023438 5.515625 15.148438 5.523438 15.269531 5.582031 Z M 15.269531 5.582031 "/>
<path style=" stroke:none;fill-rule:evenodd;fill:rgb(0%,56.470588%,29.803922%);fill-opacity:1;" d="M 15.261719 5.625 C 15.179688 5.589844 15.105469 5.601562 15.027344 5.667969 C 14.964844 5.71875 14.910156 5.800781 14.855469 5.925781 C 14.789062 6.074219 14.765625 6.191406 14.789062 6.285156 C 14.800781 6.347656 14.84375 6.394531 14.90625 6.425781 C 14.949219 6.441406 14.992188 6.449219 15.027344 6.441406 C 15.074219 6.429688 15.121094 6.398438 15.167969 6.347656 C 15.21875 6.300781 15.261719 6.230469 15.304688 6.132812 C 15.355469 6.019531 15.378906 5.929688 15.386719 5.867188 C 15.390625 5.800781 15.378906 5.746094 15.359375 5.707031 C 15.335938 5.675781 15.304688 5.644531 15.261719 5.625 Z M 15.261719 5.625 "/>
<path style=" stroke:none;fill-rule:evenodd;fill:rgb(100%,94.901961%,0%);fill-opacity:1;" d="M 14.046875 5.171875 C 14.195312 5.195312 14.304688 5.265625 14.378906 5.375 C 14.449219 5.484375 14.46875 5.605469 14.441406 5.742188 C 14.414062 5.859375 14.359375 5.953125 14.273438 6.027344 C 14.160156 6.128906 14.019531 6.15625 13.855469 6.125 C 13.691406 6.085938 13.578125 6.003906 13.507812 5.875 C 13.457031 5.773438 13.445312 5.65625 13.472656 5.539062 C 13.5 5.402344 13.566406 5.296875 13.683594 5.230469 C 13.792969 5.160156 13.914062 5.136719 14.046875 5.171875 Z M 14.046875 5.171875 "/>
<path style=" stroke:none;fill-rule:evenodd;fill:rgb(0%,56.470588%,29.803922%);fill-opacity:1;" d="M 14.046875 5.21875 C 13.964844 5.199219 13.890625 5.230469 13.832031 5.304688 C 13.78125 5.367188 13.742188 5.464844 13.710938 5.59375 C 13.679688 5.75 13.683594 5.875 13.71875 5.957031 C 13.746094 6.019531 13.796875 6.054688 13.863281 6.074219 C 13.910156 6.082031 13.953125 6.078125 13.988281 6.066406 C 14.035156 6.042969 14.070312 6 14.109375 5.945312 C 14.144531 5.886719 14.171875 5.804688 14.195312 5.703125 C 14.21875 5.582031 14.230469 5.488281 14.21875 5.425781 C 14.207031 5.363281 14.191406 5.3125 14.160156 5.28125 C 14.132812 5.246094 14.09375 5.226562 14.046875 5.21875 Z M 14.046875 5.21875 "/>
<path style=" stroke:none;fill-rule:evenodd;fill:rgb(100%,94.901961%,0%);fill-opacity:1;" d="M 12.90625 5.066406 L 12.882812 5.445312 L 12.90625 5.449219 C 12.949219 5.449219 12.984375 5.445312 13.011719 5.4375 C 13.039062 5.429688 13.058594 5.40625 13.082031 5.378906 C 13.101562 5.351562 13.113281 5.316406 13.128906 5.265625 L 13.148438 5.265625 L 13.113281 5.734375 L 13.09375 5.730469 C 13.089844 5.640625 13.074219 5.582031 13.035156 5.550781 C 12.996094 5.523438 12.953125 5.5 12.90625 5.5 L 12.878906 5.496094 L 12.855469 5.785156 C 12.855469 5.832031 12.855469 5.859375 12.859375 5.875 C 12.863281 5.886719 12.875 5.894531 12.890625 5.90625 C 12.902344 5.917969 12.925781 5.925781 12.949219 5.925781 L 12.980469 5.929688 L 12.980469 5.949219 L 12.492188 5.917969 L 12.492188 5.890625 L 12.527344 5.894531 C 12.550781 5.894531 12.574219 5.894531 12.589844 5.886719 C 12.601562 5.878906 12.613281 5.871094 12.621094 5.851562 C 12.628906 5.84375 12.632812 5.816406 12.636719 5.769531 L 12.679688 5.152344 C 12.679688 5.109375 12.679688 5.078125 12.675781 5.066406 C 12.671875 5.050781 12.660156 5.039062 12.648438 5.03125 C 12.632812 5.023438 12.609375 5.015625 12.585938 5.015625 L 12.554688 5.011719 L 12.554688 4.984375 L 13.339844 5.039062 L 13.324219 5.308594 L 13.296875 5.308594 C 13.296875 5.242188 13.28125 5.195312 13.257812 5.164062 C 13.234375 5.132812 13.195312 5.109375 13.148438 5.089844 C 13.121094 5.082031 13.070312 5.074219 12.996094 5.070312 Z M 12.90625 5.066406 "/>
<path style=" stroke:none;fill-rule:evenodd;fill:rgb(100%,94.901961%,0%);fill-opacity:1;" d="M 11.019531 5.148438 L 11.566406 5.648438 L 11.507812 5.25 C 11.496094 5.195312 11.480469 5.164062 11.464844 5.144531 C 11.4375 5.121094 11.398438 5.117188 11.34375 5.125 L 11.34375 5.097656 L 11.648438 5.046875 L 11.648438 5.074219 C 11.613281 5.085938 11.589844 5.097656 11.578125 5.105469 C 11.566406 5.117188 11.554688 5.132812 11.550781 5.148438 C 11.546875 5.171875 11.546875 5.199219 11.554688 5.242188 L 11.675781 6.011719 L 11.652344 6.019531 L 10.910156 5.347656 L 11 5.933594 C 11.011719 5.988281 11.027344 6.023438 11.050781 6.035156 C 11.082031 6.050781 11.113281 6.054688 11.140625 6.050781 L 11.164062 6.046875 L 11.167969 6.074219 L 10.839844 6.125 L 10.835938 6.097656 C 10.886719 6.089844 10.921875 6.074219 10.9375 6.050781 C 10.957031 6.027344 10.960938 5.992188 10.949219 5.941406 L 10.84375 5.289062 L 10.824219 5.269531 C 10.796875 5.246094 10.78125 5.234375 10.765625 5.230469 C 10.746094 5.226562 10.726562 5.222656 10.695312 5.226562 L 10.691406 5.199219 Z M 11.019531 5.148438 "/>
<path style=" stroke:none;fill-rule:evenodd;fill:rgb(100%,94.901961%,0%);fill-opacity:1;" d="M 10.324219 6.050781 L 10.015625 6.171875 L 10.011719 6.269531 C 10.011719 6.300781 10.015625 6.328125 10.019531 6.34375 C 10.03125 6.371094 10.046875 6.382812 10.070312 6.386719 C 10.085938 6.390625 10.117188 6.382812 10.164062 6.371094 L 10.171875 6.394531 L 9.878906 6.503906 L 9.871094 6.480469 C 9.902344 6.460938 9.921875 6.441406 9.933594 6.410156 C 9.949219 6.382812 9.957031 6.332031 9.960938 6.25 L 10.003906 5.4375 L 10.015625 5.433594 L 10.605469 6.027344 C 10.664062 6.082031 10.703125 6.117188 10.726562 6.128906 C 10.746094 6.132812 10.773438 6.132812 10.796875 6.125 L 10.808594 6.148438 L 10.386719 6.308594 L 10.375 6.289062 L 10.394531 6.28125 C 10.425781 6.269531 10.453125 6.253906 10.460938 6.238281 C 10.46875 6.230469 10.46875 6.21875 10.464844 6.203125 C 10.460938 6.195312 10.457031 6.1875 10.453125 6.183594 C 10.449219 6.179688 10.433594 6.167969 10.414062 6.140625 Z M 10.324219 6.050781 "/>
<path style=" stroke:none;fill-rule:evenodd;fill:rgb(0%,56.470588%,29.803922%);fill-opacity:1;" d="M 10.28125 6.007812 L 10.039062 5.757812 L 10.019531 6.109375 Z M 10.28125 6.007812 "/>
<path style=" stroke:none;fill-rule:evenodd;fill:rgb(100%,94.901961%,0%);fill-opacity:1;" d="M 8.929688 5.96875 C 9.058594 5.890625 9.183594 5.871094 9.3125 5.902344 C 9.441406 5.941406 9.535156 6.019531 9.605469 6.140625 C 9.660156 6.242188 9.679688 6.351562 9.664062 6.460938 C 9.644531 6.613281 9.558594 6.730469 9.410156 6.808594 C 9.261719 6.890625 9.121094 6.902344 8.988281 6.847656 C 8.875 6.804688 8.796875 6.730469 8.738281 6.625 C 8.667969 6.5 8.652344 6.378906 8.691406 6.25 C 8.726562 6.125 8.808594 6.027344 8.929688 5.96875 Z M 8.929688 5.96875 "/>
<path style=" stroke:none;fill-rule:evenodd;fill:rgb(0%,56.470588%,29.803922%);fill-opacity:1;" d="M 8.960938 6 C 8.886719 6.042969 8.851562 6.109375 8.855469 6.207031 C 8.855469 6.289062 8.890625 6.390625 8.957031 6.503906 C 9.03125 6.644531 9.113281 6.734375 9.203125 6.777344 C 9.261719 6.800781 9.320312 6.796875 9.382812 6.761719 C 9.421875 6.742188 9.453125 6.710938 9.46875 6.679688 C 9.492188 6.632812 9.496094 6.578125 9.480469 6.507812 C 9.472656 6.441406 9.441406 6.359375 9.394531 6.273438 C 9.328125 6.160156 9.273438 6.085938 9.226562 6.042969 C 9.175781 6 9.128906 5.980469 9.089844 5.976562 C 9.042969 5.972656 9 5.980469 8.960938 6 Z M 8.960938 6 "/>
<path style=" stroke:none;fill-rule:evenodd;fill:rgb(100%,94.901961%,0%);fill-opacity:1;" d="M 7.578125 7.039062 L 7.941406 6.722656 L 7.957031 6.742188 L 7.9375 6.753906 C 7.910156 6.78125 7.894531 6.800781 7.890625 6.8125 C 7.886719 6.832031 7.882812 6.84375 7.890625 6.855469 C 7.894531 6.871094 7.910156 6.898438 7.945312 6.9375 L 8.246094 7.285156 C 8.300781 7.347656 8.34375 7.386719 8.371094 7.398438 C 8.398438 7.40625 8.425781 7.410156 8.460938 7.40625 C 8.496094 7.402344 8.527344 7.386719 8.5625 7.355469 C 8.601562 7.324219 8.625 7.285156 8.640625 7.246094 C 8.648438 7.203125 8.648438 7.160156 8.636719 7.117188 C 8.621094 7.082031 8.585938 7.023438 8.519531 6.945312 L 8.269531 6.65625 C 8.242188 6.628906 8.21875 6.605469 8.199219 6.597656 C 8.183594 6.589844 8.164062 6.589844 8.152344 6.59375 C 8.125 6.597656 8.101562 6.613281 8.074219 6.636719 L 8.058594 6.621094 L 8.300781 6.40625 L 8.316406 6.425781 L 8.304688 6.4375 C 8.285156 6.453125 8.269531 6.476562 8.265625 6.492188 C 8.257812 6.511719 8.257812 6.535156 8.265625 6.554688 C 8.269531 6.570312 8.289062 6.589844 8.3125 6.621094 L 8.546875 6.886719 C 8.617188 6.972656 8.664062 7.035156 8.6875 7.082031 C 8.707031 7.128906 8.707031 7.1875 8.695312 7.253906 C 8.675781 7.324219 8.636719 7.386719 8.558594 7.449219 C 8.5 7.503906 8.445312 7.535156 8.398438 7.546875 C 8.335938 7.5625 8.273438 7.5625 8.230469 7.546875 C 8.175781 7.53125 8.125 7.492188 8.074219 7.433594 L 7.777344 7.085938 C 7.742188 7.046875 7.714844 7.023438 7.703125 7.015625 C 7.691406 7.007812 7.679688 7.007812 7.660156 7.011719 C 7.644531 7.015625 7.625 7.03125 7.59375 7.054688 Z M 7.578125 7.039062 "/>
<path style=" stroke:none;fill-rule:evenodd;fill:rgb(100%,94.901961%,0%);fill-opacity:1;" d="M 7.34375 7.253906 L 7.601562 7.460938 L 7.585938 7.480469 C 7.496094 7.449219 7.410156 7.441406 7.339844 7.457031 C 7.261719 7.480469 7.203125 7.515625 7.15625 7.570312 C 7.109375 7.625 7.089844 7.683594 7.09375 7.746094 C 7.09375 7.804688 7.113281 7.863281 7.15625 7.921875 C 7.199219 7.984375 7.25 8.039062 7.308594 8.085938 C 7.378906 8.140625 7.445312 8.179688 7.511719 8.207031 C 7.574219 8.230469 7.636719 8.238281 7.691406 8.21875 C 7.746094 8.203125 7.792969 8.167969 7.835938 8.121094 C 7.847656 8.101562 7.859375 8.085938 7.871094 8.0625 C 7.882812 8.042969 7.894531 8.015625 7.902344 7.992188 L 7.75 7.867188 C 7.71875 7.847656 7.703125 7.835938 7.691406 7.832031 C 7.675781 7.832031 7.664062 7.832031 7.648438 7.839844 C 7.632812 7.84375 7.613281 7.855469 7.601562 7.871094 L 7.585938 7.894531 L 7.566406 7.875 L 7.851562 7.519531 L 7.871094 7.539062 C 7.851562 7.566406 7.839844 7.589844 7.839844 7.605469 C 7.835938 7.617188 7.839844 7.636719 7.84375 7.652344 C 7.847656 7.660156 7.863281 7.671875 7.890625 7.695312 L 8.042969 7.816406 C 8.023438 7.878906 8.003906 7.941406 7.96875 8 C 7.941406 8.058594 7.90625 8.117188 7.859375 8.167969 C 7.804688 8.242188 7.75 8.289062 7.695312 8.316406 C 7.640625 8.351562 7.582031 8.367188 7.519531 8.378906 C 7.460938 8.390625 7.40625 8.390625 7.351562 8.375 C 7.285156 8.363281 7.214844 8.328125 7.15625 8.277344 C 7.046875 8.195312 6.988281 8.078125 6.976562 7.941406 C 6.960938 7.804688 7 7.675781 7.09375 7.558594 C 7.121094 7.523438 7.152344 7.496094 7.183594 7.46875 C 7.199219 7.457031 7.230469 7.4375 7.265625 7.414062 C 7.308594 7.390625 7.335938 7.371094 7.339844 7.367188 C 7.347656 7.355469 7.351562 7.34375 7.351562 7.332031 C 7.351562 7.316406 7.34375 7.296875 7.332031 7.273438 Z M 7.34375 7.253906 "/>
<path style=" stroke:none;fill-rule:evenodd;fill:rgb(100%,94.901961%,0%);fill-opacity:1;" d="M 6.234375 8.875 L 6.539062 9 L 6.53125 9.023438 C 6.433594 9.015625 6.351562 9.03125 6.285156 9.074219 C 6.222656 9.113281 6.175781 9.167969 6.144531 9.234375 C 6.121094 9.300781 6.117188 9.359375 6.136719 9.417969 C 6.152344 9.476562 6.191406 9.527344 6.25 9.570312 C 6.304688 9.617188 6.371094 9.652344 6.441406 9.679688 C 6.523438 9.714844 6.597656 9.730469 6.671875 9.742188 C 6.742188 9.746094 6.800781 9.730469 6.847656 9.699219 C 6.894531 9.667969 6.929688 9.621094 6.953125 9.5625 C 6.960938 9.542969 6.964844 9.519531 6.972656 9.496094 C 6.980469 9.46875 6.980469 9.445312 6.980469 9.417969 L 6.800781 9.347656 C 6.765625 9.332031 6.742188 9.324219 6.730469 9.324219 C 6.722656 9.328125 6.707031 9.332031 6.691406 9.347656 C 6.679688 9.355469 6.664062 9.371094 6.65625 9.394531 L 6.648438 9.414062 L 6.628906 9.40625 L 6.796875 8.988281 L 6.820312 8.996094 C 6.808594 9.027344 6.804688 9.050781 6.804688 9.066406 C 6.804688 9.085938 6.8125 9.097656 6.828125 9.109375 C 6.835938 9.117188 6.851562 9.125 6.886719 9.140625 L 7.0625 9.210938 C 7.070312 9.277344 7.0625 9.34375 7.050781 9.40625 C 7.039062 9.472656 7.023438 9.539062 6.996094 9.601562 C 6.960938 9.6875 6.921875 9.75 6.878906 9.792969 C 6.835938 9.839844 6.785156 9.875 6.734375 9.902344 C 6.679688 9.925781 6.625 9.945312 6.570312 9.949219 C 6.496094 9.957031 6.425781 9.945312 6.351562 9.914062 C 6.222656 9.859375 6.132812 9.769531 6.078125 9.644531 C 6.027344 9.515625 6.027344 9.378906 6.085938 9.242188 C 6.101562 9.199219 6.121094 9.160156 6.140625 9.128906 C 6.152344 9.113281 6.175781 9.089844 6.207031 9.050781 C 6.238281 9.015625 6.257812 8.996094 6.257812 8.988281 C 6.265625 8.972656 6.269531 8.960938 6.257812 8.949219 C 6.253906 8.9375 6.242188 8.917969 6.222656 8.898438 Z M 6.234375 8.875 "/>
<path style=" stroke:none;fill-rule:evenodd;fill:rgb(100%,94.901961%,0%);fill-opacity:1;" d="M 5.707031 10.585938 L 6.378906 10.265625 L 5.984375 10.175781 C 5.929688 10.164062 5.890625 10.164062 5.871094 10.175781 C 5.835938 10.1875 5.816406 10.222656 5.804688 10.273438 L 5.78125 10.269531 L 5.847656 9.96875 L 5.875 9.972656 C 5.871094 10.011719 5.871094 10.039062 5.878906 10.054688 C 5.882812 10.070312 5.890625 10.082031 5.90625 10.097656 C 5.925781 10.105469 5.953125 10.117188 5.996094 10.125 L 6.753906 10.304688 L 6.75 10.324219 L 5.847656 10.765625 L 6.429688 10.898438 C 6.480469 10.914062 6.519531 10.910156 6.542969 10.886719 C 6.566406 10.867188 6.582031 10.839844 6.589844 10.8125 L 6.59375 10.789062 L 6.621094 10.792969 L 6.542969 11.121094 L 6.519531 11.113281 C 6.53125 11.0625 6.527344 11.027344 6.515625 11.003906 C 6.496094 10.976562 6.460938 10.960938 6.417969 10.945312 L 5.773438 10.800781 L 5.742188 10.816406 C 5.71875 10.828125 5.695312 10.839844 5.683594 10.855469 C 5.675781 10.867188 5.667969 10.886719 5.660156 10.914062 L 5.632812 10.910156 Z M 5.707031 10.585938 "/>
<path style=" stroke:none;fill-rule:evenodd;fill:rgb(100%,94.901961%,0%);fill-opacity:1;" d="M 6.53125 11.171875 L 6.554688 11.175781 L 6.511719 11.664062 L 6.488281 11.660156 L 6.492188 11.628906 C 6.492188 11.597656 6.492188 11.578125 6.484375 11.5625 C 6.480469 11.546875 6.46875 11.539062 6.453125 11.53125 C 6.441406 11.527344 6.410156 11.519531 6.367188 11.515625 L 5.753906 11.464844 C 5.707031 11.460938 5.675781 11.460938 5.664062 11.464844 C 5.652344 11.46875 5.640625 11.476562 5.632812 11.488281 C 5.621094 11.503906 5.617188 11.523438 5.613281 11.550781 L 5.605469 11.582031 L 5.582031 11.578125 L 5.625 11.089844 L 5.648438 11.09375 L 5.648438 11.125 C 5.644531 11.15625 5.648438 11.175781 5.65625 11.191406 C 5.664062 11.207031 5.675781 11.214844 5.6875 11.222656 C 5.699219 11.230469 5.726562 11.234375 5.773438 11.238281 L 6.386719 11.289062 C 6.433594 11.292969 6.460938 11.292969 6.476562 11.292969 C 6.488281 11.285156 6.5 11.277344 6.507812 11.265625 C 6.523438 11.246094 6.527344 11.230469 6.53125 11.199219 Z M 6.53125 11.171875 "/>
<path style=" stroke:none;fill-rule:evenodd;fill:rgb(100%,94.901961%,0%);fill-opacity:1;" d="M 5.617188 12.207031 L 5.589844 12.207031 L 5.578125 11.714844 L 5.605469 11.714844 L 5.605469 11.742188 C 5.605469 11.773438 5.613281 11.792969 5.621094 11.8125 C 5.628906 11.820312 5.636719 11.832031 5.652344 11.835938 C 5.667969 11.839844 5.695312 11.84375 5.742188 11.84375 L 6.199219 11.835938 C 6.289062 11.832031 6.351562 11.839844 6.394531 11.859375 C 6.4375 11.875 6.472656 11.910156 6.5 11.949219 C 6.527344 11.996094 6.542969 12.050781 6.542969 12.117188 C 6.542969 12.195312 6.527344 12.261719 6.484375 12.304688 C 6.441406 12.355469 6.398438 12.382812 6.347656 12.382812 C 6.316406 12.382812 6.289062 12.375 6.269531 12.351562 C 6.25 12.335938 6.238281 12.308594 6.238281 12.28125 C 6.238281 12.253906 6.246094 12.230469 6.265625 12.214844 C 6.28125 12.191406 6.300781 12.183594 6.332031 12.183594 C 6.34375 12.183594 6.351562 12.183594 6.367188 12.1875 C 6.371094 12.1875 6.378906 12.195312 6.398438 12.210938 C 6.417969 12.222656 6.429688 12.226562 6.4375 12.226562 C 6.449219 12.226562 6.460938 12.21875 6.472656 12.210938 C 6.484375 12.1875 6.488281 12.167969 6.488281 12.136719 C 6.488281 12.121094 6.480469 12.101562 6.472656 12.089844 C 6.460938 12.078125 6.445312 12.070312 6.425781 12.066406 C 6.402344 12.058594 6.34375 12.058594 6.246094 12.0625 L 5.746094 12.070312 C 5.695312 12.070312 5.667969 12.074219 5.65625 12.078125 C 5.644531 12.082031 5.632812 12.09375 5.625 12.105469 C 5.617188 12.125 5.613281 12.144531 5.613281 12.171875 Z M 5.617188 12.207031 "/>
<path style=" stroke:none;fill-rule:evenodd;fill:rgb(100%,94.901961%,0%);fill-opacity:1;" d="M 6.507812 12.4375 L 6.535156 12.433594 L 6.59375 12.917969 L 6.570312 12.921875 L 6.5625 12.890625 C 6.5625 12.859375 6.554688 12.839844 6.542969 12.828125 C 6.535156 12.816406 6.523438 12.804688 6.503906 12.800781 C 6.496094 12.796875 6.464844 12.800781 6.421875 12.804688 L 5.808594 12.882812 C 5.765625 12.886719 5.734375 12.894531 5.722656 12.898438 C 5.707031 12.90625 5.699219 12.917969 5.695312 12.933594 C 5.6875 12.949219 5.683594 12.972656 5.6875 12.996094 L 5.691406 13.027344 L 5.667969 13.03125 L 5.605469 12.546875 L 5.632812 12.542969 L 5.636719 12.574219 C 5.640625 12.601562 5.644531 12.625 5.65625 12.636719 C 5.667969 12.648438 5.679688 12.65625 5.695312 12.664062 C 5.703125 12.667969 5.734375 12.664062 5.78125 12.65625 L 6.390625 12.582031 C 6.441406 12.578125 6.472656 12.574219 6.480469 12.566406 C 6.492188 12.554688 6.5 12.546875 6.507812 12.53125 C 6.515625 12.515625 6.519531 12.492188 6.515625 12.46875 Z M 6.507812 12.4375 "/>
<path style=" stroke:none;fill-rule:evenodd;fill:rgb(100%,94.901961%,0%);fill-opacity:1;" d="M 5.875 13.714844 L 6.242188 13.613281 L 6.234375 13.59375 C 6.222656 13.539062 6.191406 13.5 6.144531 13.488281 C 6.101562 13.472656 6.046875 13.472656 5.976562 13.484375 L 5.96875 13.457031 L 6.4375 13.324219 L 6.445312 13.347656 C 6.394531 13.371094 6.355469 13.390625 6.328125 13.414062 C 6.300781 13.445312 6.285156 13.472656 6.28125 13.496094 C 6.277344 13.523438 6.28125 13.554688 6.289062 13.597656 L 6.542969 13.527344 C 6.59375 13.511719 6.625 13.5 6.632812 13.492188 C 6.644531 13.488281 6.648438 13.476562 6.652344 13.460938 C 6.65625 13.449219 6.652344 13.429688 6.648438 13.402344 L 6.632812 13.347656 C 6.605469 13.265625 6.570312 13.203125 6.515625 13.171875 C 6.460938 13.128906 6.394531 13.109375 6.304688 13.109375 L 6.300781 13.085938 L 6.597656 13.042969 L 6.816406 13.816406 L 6.796875 13.828125 L 6.789062 13.792969 C 6.78125 13.765625 6.765625 13.75 6.753906 13.738281 C 6.746094 13.726562 6.734375 13.71875 6.714844 13.714844 C 6.703125 13.714844 6.675781 13.71875 6.632812 13.734375 L 6.039062 13.902344 C 5.996094 13.914062 5.976562 13.925781 5.96875 13.929688 C 5.949219 13.9375 5.941406 13.949219 5.9375 13.960938 C 5.929688 13.984375 5.929688 14.007812 5.9375 14.039062 L 5.945312 14.066406 L 5.921875 14.078125 L 5.703125 13.324219 L 5.972656 13.246094 L 5.980469 13.273438 C 5.917969 13.304688 5.878906 13.335938 5.851562 13.363281 C 5.832031 13.398438 5.824219 13.4375 5.820312 13.484375 C 5.820312 13.507812 5.828125 13.554688 5.847656 13.625 Z M 5.875 13.714844 "/>
<path style=" stroke:none;fill-rule:evenodd;fill:rgb(100%,94.901961%,0%);fill-opacity:1;" d="M 6.492188 14.347656 C 6.476562 14.257812 6.472656 14.191406 6.484375 14.148438 C 6.5 14.082031 6.539062 14.039062 6.601562 14.007812 C 6.664062 13.984375 6.730469 13.984375 6.792969 14.015625 C 6.875 14.054688 6.941406 14.140625 6.992188 14.257812 L 7.1875 14.695312 L 7.164062 14.703125 C 7.144531 14.664062 7.132812 14.640625 7.117188 14.625 C 7.101562 14.617188 7.089844 14.609375 7.078125 14.609375 C 7.058594 14.609375 7.03125 14.617188 6.984375 14.640625 L 6.429688 14.890625 C 6.386719 14.90625 6.355469 14.921875 6.347656 14.9375 C 6.335938 14.945312 6.332031 14.960938 6.332031 14.976562 C 6.332031 14.996094 6.339844 15.023438 6.355469 15.0625 L 6.332031 15.070312 L 6.148438 14.664062 C 6.105469 14.566406 6.085938 14.492188 6.085938 14.445312 C 6.085938 14.394531 6.09375 14.351562 6.121094 14.3125 C 6.144531 14.273438 6.175781 14.246094 6.210938 14.230469 C 6.253906 14.210938 6.296875 14.207031 6.34375 14.222656 C 6.390625 14.242188 6.4375 14.28125 6.492188 14.347656 Z M 6.492188 14.347656 "/>
<path style=" stroke:none;fill-rule:evenodd;fill:rgb(0%,65.098039%,31.764706%);fill-opacity:1;" d="M 6.625 14.5625 L 6.898438 14.441406 L 6.933594 14.429688 C 6.953125 14.414062 6.964844 14.402344 6.976562 14.386719 C 6.980469 14.367188 6.980469 14.351562 6.96875 14.328125 C 6.953125 14.296875 6.933594 14.265625 6.90625 14.246094 C 6.878906 14.226562 6.847656 14.210938 6.808594 14.207031 C 6.777344 14.207031 6.742188 14.210938 6.707031 14.230469 C 6.664062 14.246094 6.636719 14.269531 6.609375 14.304688 C 6.589844 14.335938 6.578125 14.371094 6.582031 14.410156 C 6.582031 14.449219 6.597656 14.5 6.625 14.5625 Z M 6.625 14.5625 "/>
<path style=" stroke:none;fill-rule:evenodd;fill:rgb(0%,65.098039%,31.764706%);fill-opacity:1;" d="M 6.578125 14.585938 C 6.550781 14.523438 6.523438 14.484375 6.496094 14.460938 C 6.472656 14.441406 6.441406 14.429688 6.410156 14.421875 C 6.382812 14.417969 6.34375 14.421875 6.308594 14.441406 C 6.273438 14.457031 6.242188 14.480469 6.226562 14.503906 C 6.207031 14.53125 6.199219 14.558594 6.199219 14.59375 C 6.199219 14.628906 6.210938 14.671875 6.238281 14.734375 Z M 6.578125 14.585938 "/>
<path style=" stroke:none;fill-rule:evenodd;fill:rgb(100%,94.901961%,0%);fill-opacity:1;" d="M 12.484375 6.300781 C 15.570312 6.300781 18.085938 8.820312 18.085938 11.910156 C 18.085938 14.992188 15.570312 17.511719 12.484375 17.511719 C 9.398438 17.511719 6.878906 14.992188 6.878906 11.910156 C 6.878906 8.820312 9.398438 6.300781 12.484375 6.300781 Z M 12.484375 6.300781 "/>
<path style=" stroke:none;fill-rule:evenodd;fill:rgb(0%,56.470588%,29.803922%);fill-opacity:1;" d="M 12.484375 6.636719 C 15.386719 6.636719 17.757812 9.003906 17.757812 11.910156 C 17.757812 14.808594 15.386719 17.175781 12.484375 17.175781 C 9.582031 17.175781 7.210938 14.808594 7.210938 11.910156 C 7.210938 9.003906 9.582031 6.636719 12.484375 6.636719 Z M 12.484375 6.636719 "/>
<path style=" stroke:none;fill-rule:evenodd;fill:rgb(100%,94.901961%,0%);fill-opacity:1;" d="M 9.835938 16.121094 C 8.441406 15.238281 7.503906 13.675781 7.503906 11.910156 C 7.503906 10.132812 8.441406 8.574219 9.835938 7.691406 L 9.835938 11.53125 L 9.191406 11.53125 L 9.191406 11.226562 C 9.191406 11.035156 9.03125 10.878906 8.84375 10.878906 C 8.652344 10.878906 8.496094 11.035156 8.496094 11.226562 L 8.496094 12.53125 C 8.496094 12.71875 8.652344 12.875 8.84375 12.875 C 9.03125 12.875 9.191406 12.71875 9.191406 12.53125 L 9.191406 12.222656 L 9.835938 12.222656 Z M 9.835938 16.121094 "/>
<path style=" stroke:none;fill-rule:evenodd;fill:rgb(100%,94.901961%,0%);fill-opacity:1;" d="M 10.265625 8.257812 L 10.265625 16.4375 L 11.34375 16.632812 L 11.34375 9.3125 C 11.34375 9.246094 11.175781 9.082031 11.113281 9.019531 C 10.839844 8.753906 10.527344 8.476562 10.265625 8.257812 Z M 10.265625 8.257812 "/>
<path style=" stroke:none;fill-rule:evenodd;fill:rgb(100%,94.901961%,0%);fill-opacity:1;" d="M 11.773438 16.832031 L 11.773438 9.386719 C 11.773438 8.976562 10.953125 8.289062 10.335938 7.761719 C 10.261719 7.695312 10.265625 7.710938 10.265625 7.609375 L 10.265625 7.449219 C 10.933594 7.113281 11.6875 6.925781 12.484375 6.925781 C 12.484375 6.925781 12.488281 6.925781 12.484375 6.925781 C 13.28125 6.925781 14.03125 7.113281 14.699219 7.449219 L 14.699219 7.609375 C 14.699219 7.710938 14.707031 7.695312 14.632812 7.761719 C 14.015625 8.289062 13.199219 8.976562 13.199219 9.386719 L 13.199219 16.832031 C 12.726562 16.902344 12.246094 16.902344 11.773438 16.832031 Z M 11.773438 16.832031 "/>
<path style=" stroke:none;fill-rule:evenodd;fill:rgb(100%,94.901961%,0%);fill-opacity:1;" d="M 14.699219 8.257812 L 14.699219 16.4375 L 13.625 16.632812 L 13.625 9.3125 C 13.625 9.246094 13.792969 9.082031 13.855469 9.019531 C 14.128906 8.753906 14.441406 8.476562 14.699219 8.257812 Z M 14.699219 8.257812 "/>
<path style=" stroke:none;fill-rule:evenodd;fill:rgb(100%,94.901961%,0%);fill-opacity:1;" d="M 15.125 7.691406 C 16.429688 8.511719 17.328125 9.914062 17.445312 11.53125 L 17.023438 11.53125 L 17.023438 11.226562 C 17.023438 11.035156 16.867188 10.878906 16.675781 10.878906 C 16.488281 10.878906 16.332031 11.035156 16.332031 11.226562 L 16.332031 12.53125 C 16.332031 12.71875 16.488281 12.875 16.675781 12.875 C 16.867188 12.875 17.023438 12.71875 17.023438 12.53125 L 17.023438 12.222656 L 17.453125 12.222656 C 17.351562 13.859375 16.445312 15.292969 15.125 16.121094 Z M 15.125 7.691406 "/>
<path style=" stroke:none;fill-rule:evenodd;fill:rgb(0%,56.470588%,29.803922%);fill-opacity:1;" d="M 22.359375 17.601562 L 20.859375 19.429688 C 20.140625 19.078125 19.472656 18.773438 18.839844 18.511719 C 19.195312 18.050781 19.523438 17.585938 19.824219 17.101562 C 19.890625 16.988281 19.957031 16.878906 20.023438 16.765625 C 20.144531 16.804688 20.265625 16.839844 20.394531 16.878906 C 21.015625 17.078125 21.664062 17.3125 22.359375 17.601562 Z M 22.359375 17.601562 "/>
<path style="fill-rule:evenodd;fill:rgb(0%,56.470588%,29.803922%);fill-opacity:1;stroke-width:3.0889;stroke-linecap:butt;stroke-linejoin:miter;stroke:rgb(0%,0%,0%);stroke-opacity:1;stroke-miterlimit:2.6131;" d="M 96.409531 149.454375 C 112.784375 149.454375 130.486094 152.560469 150.54 160.099531 L 160.91375 136.095156 C 139.412344 127.108594 117.880781 123.27875 96.409531 123.27875 C 74.908125 123.27875 53.346406 127.108594 31.845 136.095156 L 42.248906 160.099531 C 62.272656 152.560469 80.004531 149.454375 96.409531 149.454375 Z M 96.409531 149.454375 " transform="matrix(0.129534,0,0,0.129534,0,0)"/>
<path style=" stroke:none;fill-rule:evenodd;fill:rgb(100%,94.901961%,0%);fill-opacity:1;" d="M 12.488281 14.75 C 13.640625 14.75 14.585938 15.691406 14.585938 16.851562 C 14.585938 18.007812 13.640625 18.949219 12.488281 18.949219 C 11.328125 18.949219 10.386719 18.007812 10.386719 16.851562 C 10.386719 15.691406 11.328125 14.75 12.488281 14.75 Z M 12.488281 14.75 "/>
<path style=" stroke:none;fill-rule:evenodd;fill:rgb(100%,94.901961%,0%);fill-opacity:1;" d="M 16.867188 19.195312 L 17.515625 17.203125 L 17.816406 17.300781 L 17.820312 17.3125 L 18.644531 18.964844 L 19.042969 17.734375 L 19.054688 17.699219 L 19.449219 17.832031 L 18.800781 19.824219 L 18.503906 19.726562 L 18.5 19.710938 L 17.675781 18.058594 L 17.273438 19.292969 L 17.265625 19.324219 Z M 16.867188 19.195312 "/>
<path style=" stroke:none;fill-rule:evenodd;fill:rgb(100%,94.901961%,0%);fill-opacity:1;" d="M 8.558594 16.964844 L 8.828125 18.519531 C 8.832031 18.535156 8.847656 18.546875 8.863281 18.5625 C 8.875 18.570312 8.898438 18.578125 8.910156 18.574219 L 9.800781 18.417969 C 9.8125 18.417969 9.828125 18.398438 9.839844 18.382812 C 9.851562 18.367188 9.859375 18.339844 9.855469 18.324219 L 9.582031 16.78125 L 10.03125 16.707031 L 10.308594 18.265625 C 10.324219 18.359375 10.328125 18.4375 10.328125 18.503906 C 10.324219 18.574219 10.308594 18.628906 10.285156 18.675781 C 10.257812 18.71875 10.21875 18.75 10.160156 18.78125 C 10.105469 18.8125 10.035156 18.832031 9.957031 18.84375 L 8.914062 19.03125 C 8.828125 19.042969 8.757812 19.046875 8.699219 19.039062 C 8.636719 19.03125 8.585938 19.015625 8.546875 18.980469 C 8.507812 18.949219 8.472656 18.898438 8.445312 18.835938 C 8.417969 18.773438 8.398438 18.695312 8.378906 18.601562 L 8.105469 17.042969 Z M 8.558594 16.964844 "/>
<path style=" stroke:none;fill-rule:evenodd;fill:rgb(100%,94.901961%,0%);fill-opacity:1;" d="M 7.636719 17.542969 L 6.167969 18.023438 C 6.152344 18.027344 6.140625 18.035156 6.136719 18.042969 C 6.132812 18.058594 6.132812 18.070312 6.136719 18.085938 L 6.484375 19.152344 C 6.488281 19.160156 6.496094 19.171875 6.507812 19.179688 C 6.519531 19.183594 6.527344 19.1875 6.53125 19.183594 L 7.550781 18.851562 C 7.558594 18.847656 7.5625 18.839844 7.574219 18.832031 C 7.578125 18.820312 7.582031 18.800781 7.578125 18.792969 L 7.484375 18.515625 C 7.484375 18.503906 7.476562 18.496094 7.460938 18.492188 C 7.453125 18.484375 7.445312 18.484375 7.4375 18.484375 L 6.863281 18.671875 L 6.738281 18.28125 L 7.765625 17.945312 L 7.996094 18.640625 C 8.023438 18.730469 8.042969 18.808594 8.046875 18.878906 C 8.054688 18.945312 8.046875 19.003906 8.03125 19.050781 C 8.007812 19.097656 7.976562 19.140625 7.925781 19.175781 C 7.875 19.207031 7.808594 19.242188 7.730469 19.269531 L 6.628906 19.625 C 6.546875 19.648438 6.480469 19.660156 6.417969 19.664062 C 6.351562 19.664062 6.300781 19.652344 6.253906 19.628906 C 6.214844 19.601562 6.175781 19.554688 6.140625 19.496094 C 6.105469 19.4375 6.074219 19.363281 6.042969 19.277344 L 5.714844 18.261719 C 5.683594 18.167969 5.667969 18.089844 5.664062 18.023438 C 5.652344 17.953125 5.664062 17.894531 5.679688 17.847656 C 5.695312 17.800781 5.734375 17.761719 5.785156 17.722656 C 5.835938 17.6875 5.898438 17.660156 5.980469 17.632812 L 7.503906 17.136719 Z M 7.636719 17.542969 "/>
<path style=" stroke:none;fill-rule:evenodd;fill:rgb(100%,94.901961%,0%);fill-opacity:1;" d="M 15.101562 18.828125 L 15.203125 18.25 L 16.230469 18.433594 L 16.128906 19.007812 L 16.578125 19.085938 L 16.855469 17.527344 C 16.871094 17.433594 16.875 17.355469 16.871094 17.289062 C 16.871094 17.21875 16.855469 17.164062 16.828125 17.121094 C 16.804688 17.074219 16.765625 17.039062 16.707031 17.011719 C 16.652344 16.980469 16.582031 16.960938 16.5 16.949219 L 15.457031 16.765625 C 15.375 16.75 15.304688 16.746094 15.246094 16.753906 C 15.179688 16.761719 15.128906 16.78125 15.09375 16.8125 C 15.050781 16.847656 15.019531 16.890625 14.992188 16.957031 C 14.964844 17.019531 14.945312 17.09375 14.925781 17.1875 L 14.652344 18.746094 Z M 15.101562 18.828125 "/>
<path style=" stroke:none;fill-rule:evenodd;fill:rgb(0%,56.470588%,29.803922%);fill-opacity:1;" d="M 15.277344 17.824219 L 15.375 17.273438 C 15.378906 17.261719 15.394531 17.242188 15.40625 17.230469 C 15.421875 17.222656 15.441406 17.214844 15.457031 17.21875 L 16.347656 17.375 C 16.359375 17.378906 16.375 17.390625 16.382812 17.410156 C 16.398438 17.425781 16.40625 17.453125 16.402344 17.46875 L 16.308594 18.007812 Z M 15.277344 17.824219 "/>
<path style=" stroke:none;fill-rule:evenodd;fill:rgb(100%,100%,100%);fill-opacity:1;" d="M 14.40625 20.273438 C 14.402344 20.316406 14.390625 20.363281 14.367188 20.40625 C 14.351562 20.445312 14.320312 20.484375 14.289062 20.511719 C 14.230469 20.566406 14.167969 20.625 14.101562 20.6875 C 14.039062 20.742188 13.980469 20.796875 13.917969 20.851562 L 14.351562 20.890625 L 14.335938 21.070312 L 13.613281 21.007812 L 13.628906 20.839844 C 13.714844 20.765625 13.800781 20.691406 13.886719 20.609375 C 13.941406 20.558594 13.988281 20.515625 14.03125 20.484375 C 14.066406 20.445312 14.105469 20.410156 14.136719 20.390625 C 14.175781 20.351562 14.195312 20.304688 14.199219 20.253906 C 14.203125 20.207031 14.195312 20.160156 14.164062 20.125 C 14.152344 20.105469 14.140625 20.09375 14.121094 20.085938 C 14.089844 20.0625 14.042969 20.058594 14.003906 20.078125 C 13.925781 20.105469 13.902344 20.195312 13.902344 20.277344 L 13.691406 20.226562 C 13.695312 20.167969 13.707031 20.113281 13.734375 20.0625 C 13.800781 19.945312 13.945312 19.875 14.082031 19.886719 C 14.132812 19.890625 14.175781 19.902344 14.214844 19.925781 C 14.257812 19.945312 14.292969 19.976562 14.328125 20.011719 C 14.355469 20.046875 14.378906 20.089844 14.394531 20.132812 C 14.40625 20.175781 14.410156 20.222656 14.40625 20.273438 Z M 14.40625 20.273438 "/>
<path style=" stroke:none;fill-rule:evenodd;fill:rgb(100%,100%,100%);fill-opacity:1;" d="M 13.320312 20.367188 C 13.320312 20.449219 13.304688 20.527344 13.289062 20.59375 C 13.273438 20.65625 13.246094 20.714844 13.210938 20.769531 C 13.175781 20.835938 13.125 20.882812 13.0625 20.914062 C 13.003906 20.945312 12.941406 20.960938 12.867188 20.957031 C 12.835938 20.957031 12.804688 20.953125 12.777344 20.949219 C 12.722656 20.9375 12.660156 20.910156 12.617188 20.882812 C 12.585938 20.859375 12.566406 20.839844 12.542969 20.8125 L 12.636719 20.65625 C 12.652344 20.675781 12.671875 20.695312 12.691406 20.710938 C 12.722656 20.734375 12.757812 20.753906 12.792969 20.765625 C 12.808594 20.769531 12.828125 20.777344 12.839844 20.777344 C 12.878906 20.777344 12.910156 20.765625 12.945312 20.753906 C 12.976562 20.738281 13 20.710938 13.027344 20.675781 C 13.046875 20.644531 13.0625 20.613281 13.078125 20.578125 C 13.085938 20.554688 13.089844 20.53125 13.09375 20.503906 C 13.078125 20.511719 13.054688 20.523438 13.035156 20.527344 C 12.992188 20.535156 12.945312 20.539062 12.898438 20.539062 C 12.851562 20.535156 12.804688 20.527344 12.769531 20.507812 C 12.730469 20.496094 12.691406 20.46875 12.65625 20.441406 C 12.625 20.402344 12.59375 20.363281 12.578125 20.316406 C 12.558594 20.273438 12.550781 20.222656 12.550781 20.164062 C 12.554688 20.101562 12.570312 20.050781 12.585938 20.003906 C 12.605469 19.953125 12.636719 19.914062 12.675781 19.882812 C 12.707031 19.851562 12.746094 19.832031 12.789062 19.820312 C 12.832031 19.804688 12.878906 19.796875 12.929688 19.800781 C 13.0625 19.804688 13.164062 19.855469 13.234375 19.953125 C 13.296875 20.046875 13.324219 20.1875 13.320312 20.367188 Z M 13.320312 20.367188 "/>
<path style=" stroke:none;fill-rule:evenodd;fill:rgb(0%,56.470588%,29.803922%);fill-opacity:1;" d="M 13.113281 20.292969 C 13.113281 20.292969 13.109375 20.296875 13.109375 20.292969 C 13.109375 20.289062 13.113281 20.28125 13.113281 20.273438 C 13.113281 20.238281 13.109375 20.207031 13.105469 20.179688 C 13.101562 20.148438 13.09375 20.121094 13.082031 20.089844 L 13.082031 20.09375 C 13.0625 20.054688 13.042969 20.03125 13.023438 20.007812 C 12.996094 19.992188 12.972656 19.984375 12.9375 19.984375 C 12.910156 19.984375 12.890625 19.988281 12.875 19.996094 C 12.851562 20.003906 12.832031 20.015625 12.816406 20.039062 C 12.796875 20.054688 12.785156 20.074219 12.777344 20.09375 C 12.769531 20.113281 12.765625 20.136719 12.765625 20.15625 C 12.765625 20.191406 12.769531 20.222656 12.777344 20.246094 C 12.789062 20.273438 12.800781 20.292969 12.824219 20.308594 C 12.839844 20.328125 12.851562 20.335938 12.871094 20.34375 C 12.882812 20.351562 12.894531 20.355469 12.90625 20.355469 C 12.953125 20.355469 12.996094 20.351562 13.03125 20.34375 C 13.0625 20.332031 13.089844 20.3125 13.113281 20.292969 Z M 13.113281 20.292969 "/>
<path style=" stroke:none;fill-rule:evenodd;fill:rgb(100%,100%,100%);fill-opacity:1;" d="M 12.183594 20.339844 C 12.1875 20.417969 12.183594 20.492188 12.171875 20.558594 C 12.15625 20.632812 12.140625 20.691406 12.113281 20.746094 C 12.078125 20.8125 12.03125 20.867188 11.976562 20.902344 C 11.921875 20.941406 11.851562 20.960938 11.78125 20.964844 C 11.75 20.964844 11.722656 20.964844 11.691406 20.960938 C 11.664062 20.957031 11.632812 20.949219 11.601562 20.941406 C 11.542969 20.921875 11.492188 20.894531 11.445312 20.847656 L 11.527344 20.683594 C 11.5625 20.714844 11.59375 20.738281 11.636719 20.757812 C 11.667969 20.769531 11.703125 20.785156 11.738281 20.785156 C 11.777344 20.78125 11.8125 20.769531 11.839844 20.75 C 11.871094 20.734375 11.894531 20.703125 11.917969 20.667969 C 11.933594 20.636719 11.945312 20.601562 11.960938 20.5625 C 11.964844 20.542969 11.96875 20.515625 11.96875 20.492188 C 11.949219 20.503906 11.929688 20.511719 11.90625 20.515625 C 11.871094 20.53125 11.828125 20.539062 11.777344 20.542969 C 11.730469 20.542969 11.683594 20.539062 11.644531 20.527344 C 11.601562 20.511719 11.566406 20.492188 11.53125 20.464844 C 11.488281 20.433594 11.460938 20.394531 11.4375 20.351562 C 11.417969 20.304688 11.402344 20.253906 11.398438 20.199219 C 11.394531 20.140625 11.402344 20.085938 11.421875 20.039062 C 11.433594 19.988281 11.460938 19.945312 11.496094 19.90625 C 11.527344 19.878906 11.566406 19.851562 11.609375 19.835938 C 11.644531 19.816406 11.691406 19.804688 11.742188 19.804688 C 11.878906 19.796875 11.984375 19.839844 12.0625 19.933594 C 12.132812 20.023438 12.171875 20.15625 12.183594 20.339844 Z M 12.183594 20.339844 "/>
<path style=" stroke:none;fill-rule:evenodd;fill:rgb(0%,56.470588%,29.803922%);fill-opacity:1;" d="M 11.972656 20.28125 C 11.972656 20.28125 11.96875 20.285156 11.96875 20.28125 C 11.96875 20.277344 11.96875 20.265625 11.96875 20.253906 C 11.96875 20.226562 11.964844 20.195312 11.953125 20.164062 C 11.945312 20.136719 11.933594 20.105469 11.921875 20.082031 C 11.898438 20.046875 11.878906 20.023438 11.851562 20.003906 C 11.828125 19.992188 11.796875 19.984375 11.769531 19.988281 C 11.742188 19.988281 11.722656 19.992188 11.703125 20.003906 C 11.683594 20.011719 11.667969 20.03125 11.648438 20.050781 C 11.636719 20.070312 11.625 20.089844 11.617188 20.109375 C 11.613281 20.132812 11.609375 20.152344 11.613281 20.175781 C 11.613281 20.207031 11.621094 20.238281 11.628906 20.261719 C 11.640625 20.285156 11.660156 20.304688 11.683594 20.324219 C 11.699219 20.335938 11.714844 20.347656 11.730469 20.351562 C 11.742188 20.355469 11.761719 20.359375 11.773438 20.359375 C 11.816406 20.355469 11.855469 20.347656 11.890625 20.335938 C 11.921875 20.324219 11.949219 20.304688 11.972656 20.28125 Z M 11.972656 20.28125 "/>
<path style=" stroke:none;fill-rule:evenodd;fill:rgb(100%,100%,100%);fill-opacity:1;" d="M 10.78125 21.085938 L 10.6875 20.226562 L 10.570312 20.238281 L 10.554688 20.089844 C 10.632812 20.082031 10.667969 20.007812 10.683594 19.925781 L 10.867188 19.90625 L 10.988281 21.058594 Z M 10.78125 21.085938 "/>
<path style=" stroke:none;fill-rule:evenodd;fill:rgb(0%,0%,0%);fill-opacity:1;" d="M 12.402344 15.007812 C 12.917969 14.988281 13.351562 15.152344 13.730469 15.492188 C 14.105469 15.832031 14.300781 16.261719 14.332031 16.769531 C 14.355469 17.285156 14.191406 17.726562 13.847656 18.101562 C 13.503906 18.484375 13.082031 18.683594 12.570312 18.703125 C 12.054688 18.726562 11.617188 18.566406 11.238281 18.222656 C 10.863281 17.878906 10.664062 17.453125 10.636719 16.9375 C 10.613281 16.425781 10.773438 15.984375 11.121094 15.605469 C 11.464844 15.226562 11.890625 15.027344 12.402344 15.007812 Z M 12.402344 15.007812 "/>
<path style=" stroke:none;fill-rule:evenodd;fill:rgb(100%,100%,100%);fill-opacity:1;" d="M 12.101562 18.375 L 12.097656 18.378906 C 12.019531 18.425781 11.945312 18.460938 11.878906 18.480469 L 11.875 18.484375 C 11.597656 18.378906 11.363281 18.210938 11.167969 17.976562 C 11.144531 17.914062 11.140625 17.820312 11.148438 17.707031 L 11.15625 17.644531 L 11.160156 17.640625 C 11.261719 17.566406 11.34375 17.515625 11.421875 17.503906 L 11.429688 17.503906 L 11.433594 17.507812 C 11.613281 17.722656 11.820312 17.890625 12.0625 18.023438 L 12.066406 18.019531 L 12.066406 18.027344 C 12.089844 18.164062 12.097656 18.28125 12.097656 18.371094 Z M 12.101562 18.375 "/>
<path style=" stroke:none;fill-rule:evenodd;fill:rgb(100%,100%,100%);fill-opacity:1;" d="M 10.808594 16.847656 L 10.804688 16.851562 L 10.757812 16.855469 L 10.753906 16.839844 C 10.753906 16.335938 10.941406 15.914062 11.324219 15.566406 L 11.332031 15.566406 C 11.367188 15.570312 11.40625 15.582031 11.433594 15.609375 L 11.441406 15.617188 L 11.4375 15.617188 C 11.296875 15.824219 11.199219 16.046875 11.132812 16.285156 L 10.917969 16.617188 Z M 10.808594 16.847656 "/>
<path style=" stroke:none;fill-rule:evenodd;fill:rgb(100%,100%,100%);fill-opacity:1;" d="M 13.007812 18.46875 L 13.019531 18.460938 C 13.148438 18.347656 13.261719 18.21875 13.347656 18.082031 L 13.351562 18.078125 C 13.578125 18 13.765625 17.890625 13.925781 17.738281 L 13.929688 17.734375 L 13.929688 17.738281 C 13.949219 17.742188 13.957031 17.746094 13.960938 17.753906 L 13.976562 17.757812 L 13.964844 17.765625 C 13.742188 18.125 13.433594 18.375 13.039062 18.503906 L 13.03125 18.511719 Z M 13.007812 18.46875 "/>
<path style=" stroke:none;fill-rule:evenodd;fill:rgb(100%,100%,100%);fill-opacity:1;" d="M 13.59375 16.488281 L 13.589844 16.480469 C 13.550781 16.285156 13.484375 16.082031 13.390625 15.871094 L 13.390625 15.863281 L 13.546875 15.671875 L 13.550781 15.675781 C 13.664062 15.707031 13.785156 15.765625 13.898438 15.847656 L 13.902344 15.851562 C 14.0625 16.074219 14.164062 16.324219 14.207031 16.601562 L 14.203125 16.601562 L 14.207031 16.605469 C 14.160156 16.71875 14.105469 16.796875 14.035156 16.832031 L 14.03125 16.835938 L 14.027344 16.828125 C 13.90625 16.683594 13.761719 16.570312 13.59375 16.488281 Z M 13.59375 16.488281 "/>
<path style=" stroke:none;fill-rule:evenodd;fill:rgb(100%,100%,100%);fill-opacity:1;" d="M 13.433594 15.574219 L 13.433594 15.578125 L 13.273438 15.789062 L 13.269531 15.78125 C 13.023438 15.75 12.792969 15.742188 12.585938 15.761719 L 12.582031 15.765625 L 12.582031 15.761719 C 12.449219 15.613281 12.324219 15.5 12.203125 15.40625 L 12.199219 15.40625 L 12.203125 15.398438 C 12.300781 15.277344 12.394531 15.1875 12.496094 15.117188 L 12.5 15.117188 C 12.734375 15.117188 12.957031 15.164062 13.175781 15.253906 C 13.28125 15.359375 13.363281 15.460938 13.433594 15.574219 Z M 13.433594 15.574219 "/>
<path style=" stroke:none;fill-rule:evenodd;fill:rgb(100%,100%,100%);fill-opacity:1;" d="M 12.890625 18.546875 L 12.878906 18.546875 C 12.753906 18.578125 12.648438 18.589844 12.570312 18.59375 C 12.425781 18.597656 12.28125 18.589844 12.125 18.5625 L 12.101562 18.546875 L 12.203125 18.492188 C 12.425781 18.535156 12.648438 18.539062 12.875 18.527344 L 12.878906 18.527344 L 12.882812 18.53125 Z M 12.890625 18.546875 "/>
<path style=" stroke:none;fill-rule:evenodd;fill:rgb(100%,100%,100%);fill-opacity:1;" d="M 13.9375 16.957031 L 13.929688 17.132812 L 13.851562 17.605469 L 13.847656 17.609375 C 13.679688 17.769531 13.492188 17.882812 13.292969 17.945312 L 13.289062 17.949219 L 13.285156 17.945312 C 13.144531 17.910156 13.015625 17.820312 12.890625 17.675781 L 12.886719 17.671875 L 12.890625 17.667969 C 12.9375 17.511719 12.96875 17.355469 12.976562 17.191406 L 12.980469 16.949219 L 12.976562 16.941406 L 12.984375 16.941406 C 13.179688 16.816406 13.351562 16.707031 13.527344 16.617188 L 13.527344 16.621094 L 13.53125 16.621094 C 13.695312 16.710938 13.835938 16.824219 13.9375 16.953125 Z M 13.9375 16.957031 "/>
<path style=" stroke:none;fill-rule:evenodd;fill:rgb(100%,100%,100%);fill-opacity:1;" d="M 12.742188 17.648438 L 12.738281 17.660156 C 12.554688 17.78125 12.363281 17.863281 12.148438 17.910156 L 12.144531 17.90625 C 11.902344 17.78125 11.699219 17.609375 11.519531 17.390625 L 11.515625 17.386719 C 11.519531 17.371094 11.519531 17.328125 11.527344 17.261719 L 11.582031 16.804688 L 11.589844 16.796875 L 12.324219 16.535156 L 12.328125 16.53125 L 12.332031 16.535156 L 12.484375 16.621094 C 12.617188 16.707031 12.734375 16.804688 12.832031 16.917969 L 12.835938 16.921875 L 12.835938 17.1875 C 12.824219 17.335938 12.792969 17.492188 12.742188 17.648438 Z M 12.742188 17.648438 "/>
<path style=" stroke:none;fill-rule:evenodd;fill:rgb(100%,100%,100%);fill-opacity:1;" d="M 11.546875 16.660156 L 11.492188 16.585938 L 11.488281 16.589844 C 11.488281 16.578125 11.480469 16.570312 11.472656 16.558594 L 11.277344 16.296875 L 11.28125 16.292969 C 11.335938 16.070312 11.4375 15.859375 11.582031 15.660156 L 11.582031 15.652344 L 11.585938 15.65625 C 11.75 15.566406 11.914062 15.511719 12.070312 15.492188 L 12.078125 15.492188 L 12.078125 15.496094 C 12.238281 15.617188 12.359375 15.730469 12.46875 15.851562 L 12.472656 15.851562 L 12.46875 15.855469 C 12.390625 16.007812 12.332031 16.1875 12.277344 16.398438 L 12.277344 16.402344 L 12.273438 16.402344 L 11.550781 16.65625 Z M 11.546875 16.660156 "/>
<path style=" stroke:none;fill-rule:evenodd;fill:rgb(100%,100%,100%);fill-opacity:1;" d="M 10.800781 17.007812 L 10.800781 17.011719 L 10.875 17.304688 L 11.015625 17.617188 L 11.015625 17.621094 L 11.003906 17.761719 C 11.003906 17.753906 10.992188 17.742188 10.984375 17.730469 C 10.855469 17.507812 10.78125 17.269531 10.761719 17.015625 L 10.757812 17.007812 Z M 10.800781 17.007812 "/>
</g>
</svg>
