<?xml version="1.0" encoding="UTF-8"?>
<svg xmlns="http://www.w3.org/2000/svg" xmlns:xlink="http://www.w3.org/1999/xlink" width="23pt" height="25pt" viewBox="0 0 23 25" version="1.1">
<g id="surface1">
<path style=" stroke:none;fill-rule:nonzero;fill:rgb(25.098039%,52.941176%,74.901961%);fill-opacity:1;" d="M 21.171875 0.226562 L 21.171875 18.390625 C 21.171875 18.75 21.171875 19.128906 21.105469 19.496094 C 21.035156 19.871094 20.894531 20.230469 20.625 20.527344 C 20.378906 20.796875 20.058594 20.988281 19.714844 21.136719 C 19.378906 21.28125 19.023438 21.382812 18.679688 21.476562 C 17.988281 21.664062 17.292969 21.867188 16.613281 22.09375 C 15.929688 22.320312 15.253906 22.574219 14.601562 22.863281 C 14.070312 23.105469 13.550781 23.375 13.0625 23.6875 C 12.582031 24 12.125 24.359375 11.726562 24.785156 L 11.640625 24.878906 L 11.554688 24.785156 C 11.15625 24.359375 10.699219 24 10.21875 23.6875 C 9.734375 23.375 9.210938 23.105469 8.675781 22.863281 C 8.027344 22.574219 7.351562 22.320312 6.667969 22.09375 C 5.988281 21.867188 5.292969 21.664062 4.601562 21.476562 C 4.261719 21.382812 3.902344 21.28125 3.566406 21.136719 C 3.222656 20.988281 2.902344 20.796875 2.65625 20.527344 C 2.386719 20.230469 2.246094 19.871094 2.179688 19.496094 C 2.113281 19.128906 2.113281 18.75 2.113281 18.390625 L 2.113281 0.226562 Z M 21.171875 0.226562 "/>
<path style=" stroke:none;fill-rule:nonzero;fill:rgb(100%,100%,100%);fill-opacity:1;" d="M 20.929688 0.46875 L 2.351562 0.46875 L 2.351562 18.390625 C 2.351562 18.742188 2.355469 19.109375 2.414062 19.457031 C 2.476562 19.789062 2.597656 20.101562 2.835938 20.363281 C 3.058594 20.605469 3.347656 20.78125 3.660156 20.917969 C 3.980469 21.054688 4.332031 21.15625 4.664062 21.246094 C 5.355469 21.433594 6.050781 21.636719 6.746094 21.867188 C 7.4375 22.097656 8.121094 22.355469 8.777344 22.648438 C 9.320312 22.890625 9.851562 23.164062 10.347656 23.488281 C 10.8125 23.789062 11.25 24.128906 11.640625 24.53125 C 12.03125 24.128906 12.46875 23.789062 12.933594 23.488281 C 13.429688 23.164062 13.960938 22.890625 14.503906 22.648438 C 15.160156 22.355469 15.84375 22.097656 16.535156 21.867188 C 17.230469 21.636719 17.925781 21.433594 18.617188 21.246094 C 18.949219 21.15625 19.300781 21.054688 19.621094 20.917969 C 19.933594 20.78125 20.222656 20.605469 20.449219 20.363281 C 20.683594 20.101562 20.804688 19.789062 20.867188 19.457031 C 20.925781 19.109375 20.929688 18.742188 20.929688 18.390625 Z M 20.929688 0.46875 "/>
<path style=" stroke:none;fill-rule:nonzero;fill:rgb(25.098039%,52.941176%,74.901961%);fill-opacity:1;" d="M 20.6875 0.710938 L 2.59375 0.710938 L 2.59375 18.390625 C 2.59375 18.730469 2.589844 19.078125 2.652344 19.410156 C 2.773438 20.070312 3.152344 20.4375 3.757812 20.699219 C 4.066406 20.832031 4.398438 20.921875 4.726562 21.015625 C 5.429688 21.207031 6.128906 21.410156 6.820312 21.640625 C 7.519531 21.871094 8.207031 22.128906 8.875 22.429688 C 9.429688 22.675781 9.972656 22.957031 10.480469 23.285156 C 10.894531 23.554688 11.285156 23.855469 11.640625 24.191406 C 11.996094 23.855469 12.386719 23.554688 12.800781 23.285156 C 13.308594 22.957031 13.851562 22.675781 14.40625 22.429688 C 15.074219 22.128906 15.761719 21.871094 16.460938 21.640625 C 17.152344 21.410156 17.851562 21.207031 18.554688 21.015625 C 18.882812 20.921875 19.214844 20.832031 19.523438 20.699219 C 20.132812 20.4375 20.507812 20.070312 20.628906 19.410156 C 20.691406 19.078125 20.6875 18.730469 20.6875 18.390625 Z M 20.6875 0.710938 "/>
<path style=" stroke:none;fill-rule:nonzero;fill:rgb(100%,100%,100%);fill-opacity:1;" d="M 3.222656 1.332031 L 20.058594 1.332031 L 20.058594 4.980469 L 3.222656 4.980469 Z M 3.222656 1.332031 "/>
<path style=" stroke:none;fill-rule:nonzero;fill:rgb(25.098039%,52.941176%,74.901961%);fill-opacity:1;" d="M 5.679688 4.023438 L 5.210938 4.121094 L 5.027344 3.726562 L 4.324219 3.726562 L 4.160156 4.121094 L 3.691406 4.023438 L 4.6875 2.191406 Z M 4.867188 3.367188 L 4.675781 2.984375 L 4.484375 3.367188 Z M 4.867188 3.367188 "/>
<path style=" stroke:none;fill-rule:nonzero;fill:rgb(25.098039%,52.941176%,74.901961%);fill-opacity:1;" d="M 6.285156 3.804688 L 5.988281 4.113281 L 5.675781 3.8125 L 5.972656 3.492188 Z M 6.285156 3.804688 "/>
<path style=" stroke:none;fill-rule:nonzero;fill:rgb(25.098039%,52.941176%,74.901961%);fill-opacity:1;" d="M 7.339844 3.367188 C 7.339844 3.511719 7.320312 3.628906 7.289062 3.726562 C 7.246094 3.835938 7.179688 3.921875 7.089844 3.980469 C 6.980469 4.054688 6.851562 4.089844 6.695312 4.089844 C 6.667969 4.089844 6.625 4.089844 6.570312 4.078125 C 6.511719 4.074219 6.488281 4.070312 6.496094 4.070312 L 6.382812 3.628906 C 6.425781 3.648438 6.519531 3.664062 6.652344 3.664062 C 6.734375 3.652344 6.792969 3.632812 6.824219 3.589844 C 6.847656 3.554688 6.863281 3.496094 6.863281 3.410156 L 6.863281 2.273438 L 7.339844 2.230469 Z M 7.339844 3.367188 "/>
<path style=" stroke:none;fill-rule:nonzero;fill:rgb(25.098039%,52.941176%,74.901961%);fill-opacity:1;" d="M 12.238281 3.414062 C 12.238281 3.636719 12.167969 3.804688 12.019531 3.929688 C 11.949219 3.988281 11.871094 4.027344 11.78125 4.058594 C 11.683594 4.089844 11.589844 4.105469 11.492188 4.105469 C 11.378906 4.109375 11.273438 4.09375 11.175781 4.0625 C 10.988281 4 10.855469 3.890625 10.78125 3.726562 C 10.75 3.648438 10.730469 3.5625 10.730469 3.464844 L 10.730469 2.28125 L 11.207031 2.242188 L 11.207031 3.429688 C 11.207031 3.53125 11.238281 3.601562 11.285156 3.648438 C 11.332031 3.691406 11.40625 3.71875 11.507812 3.714844 C 11.601562 3.710938 11.664062 3.675781 11.699219 3.617188 C 11.730469 3.574219 11.769531 3.503906 11.769531 3.410156 L 11.769531 2.289062 L 12.238281 2.246094 Z M 12.238281 3.414062 "/>
<path style=" stroke:none;fill-rule:nonzero;fill:rgb(25.098039%,52.941176%,74.901961%);fill-opacity:1;" d="M 14.003906 3.960938 L 13.566406 4.101562 L 13.179688 3.46875 L 12.765625 4.117188 L 12.34375 3.960938 L 12.929688 3.128906 L 12.371094 2.355469 L 12.804688 2.230469 L 13.191406 2.800781 L 13.574219 2.226562 L 13.992188 2.371094 L 13.4375 3.121094 Z M 14.003906 3.960938 "/>
<path style=" stroke:none;fill-rule:nonzero;fill:rgb(25.098039%,52.941176%,74.901961%);fill-opacity:1;" d="M 15.304688 3.675781 L 15.1875 4.070312 L 14.125 4.070312 L 14.125 2.289062 L 15.167969 2.289062 L 15.257812 2.683594 L 14.574219 2.683594 L 14.574219 2.964844 L 15.066406 2.964844 L 15.066406 3.355469 L 14.570312 3.355469 L 14.570312 3.675781 Z M 15.304688 3.675781 "/>
<path style=" stroke:none;fill-rule:nonzero;fill:rgb(25.098039%,52.941176%,74.901961%);fill-opacity:1;" d="M 16.878906 3.960938 L 16.417969 4.105469 L 15.878906 3.277344 L 15.878906 4.058594 L 15.414062 4.085938 L 15.414062 2.289062 L 15.960938 2.289062 C 16.164062 2.289062 16.328125 2.324219 16.449219 2.398438 C 16.515625 2.4375 16.570312 2.492188 16.609375 2.558594 C 16.65625 2.632812 16.679688 2.714844 16.679688 2.800781 C 16.683594 3.015625 16.589844 3.179688 16.394531 3.289062 Z M 16.222656 2.894531 C 16.21875 2.742188 16.132812 2.664062 15.972656 2.664062 L 15.878906 2.664062 L 15.878906 3.140625 L 15.980469 3.140625 C 16.089844 3.140625 16.160156 3.097656 16.199219 3.011719 C 16.214844 2.96875 16.222656 2.933594 16.222656 2.894531 Z M 16.222656 2.894531 "/>
<path style=" stroke:none;fill-rule:nonzero;fill:rgb(25.098039%,52.941176%,74.901961%);fill-opacity:1;" d="M 8.019531 3.804688 L 7.722656 4.113281 L 7.410156 3.8125 L 7.707031 3.492188 Z M 8.019531 3.804688 "/>
<path style=" stroke:none;fill-rule:nonzero;fill:rgb(25.098039%,52.941176%,74.901961%);fill-opacity:1;" d="M 10.699219 4.023438 L 10.238281 4.121094 L 10.050781 3.726562 L 9.347656 3.726562 L 9.179688 4.121094 L 8.714844 4.023438 L 9.707031 2.191406 Z M 9.890625 3.367188 L 9.699219 2.984375 L 9.507812 3.367188 Z M 9.890625 3.367188 "/>
<path style=" stroke:none;fill-rule:nonzero;fill:rgb(25.098039%,52.941176%,74.901961%);fill-opacity:1;" d="M 18.363281 3.960938 L 17.894531 4.105469 L 17.359375 3.277344 L 17.359375 4.058594 L 16.894531 4.085938 L 16.894531 2.289062 L 17.441406 2.289062 C 17.648438 2.289062 17.8125 2.324219 17.933594 2.398438 C 18 2.4375 18.050781 2.492188 18.089844 2.558594 C 18.136719 2.632812 18.160156 2.714844 18.160156 2.800781 C 18.167969 3.015625 18.070312 3.179688 17.875 3.289062 Z M 17.707031 2.894531 C 17.699219 2.742188 17.613281 2.664062 17.453125 2.664062 L 17.359375 2.664062 L 17.359375 3.140625 L 17.464844 3.140625 C 17.570312 3.140625 17.644531 3.097656 17.679688 3.011719 C 17.695312 2.96875 17.707031 2.933594 17.707031 2.894531 Z M 17.707031 2.894531 "/>
<path style=" stroke:none;fill-rule:nonzero;fill:rgb(25.098039%,52.941176%,74.901961%);fill-opacity:1;" d="M 19.589844 3.675781 L 19.476562 4.070312 L 18.40625 4.070312 L 18.40625 2.289062 L 19.453125 2.289062 L 19.542969 2.683594 L 18.859375 2.683594 L 18.859375 2.964844 L 19.351562 2.964844 L 19.351562 3.355469 L 18.855469 3.355469 L 18.855469 3.675781 Z M 19.589844 3.675781 "/>
<path style=" stroke:none;fill-rule:nonzero;fill:rgb(100%,100%,100%);fill-opacity:1;" d="M 11.640625 16.269531 C 13.054688 16.269531 14.207031 15.121094 14.207031 13.71875 C 14.207031 12.316406 13.054688 11.171875 11.640625 11.171875 C 10.226562 11.171875 9.074219 12.316406 9.074219 13.71875 C 9.074219 15.121094 10.226562 16.269531 11.640625 16.269531 Z M 11.640625 16.269531 "/>
<path style=" stroke:none;fill-rule:nonzero;fill:rgb(25.098039%,52.941176%,74.901961%);fill-opacity:1;" d="M 11.640625 16.117188 C 12.972656 16.117188 14.058594 15.042969 14.058594 13.71875 C 14.058594 12.402344 12.972656 11.324219 11.640625 11.324219 C 10.308594 11.324219 9.226562 12.402344 9.226562 13.71875 C 9.226562 15.042969 10.308594 16.117188 11.640625 16.117188 Z M 11.640625 16.117188 "/>
<path style=" stroke:none;fill-rule:nonzero;fill:rgb(100%,100%,100%);fill-opacity:1;" d="M 10.304688 11.027344 L 8.5 7.03125 L 11.640625 9.078125 L 14.78125 7.03125 L 12.976562 11.027344 C 12.574219 10.828125 12.121094 10.71875 11.640625 10.71875 C 11.160156 10.71875 10.707031 10.828125 10.304688 11.027344 Z M 10.289062 8.535156 C 10.230469 8.542969 10.214844 8.578125 10.242188 8.632812 L 11.640625 10.082031 L 13.039062 8.632812 C 13.066406 8.578125 13.050781 8.542969 12.992188 8.535156 L 11.640625 9.417969 Z M 10.289062 8.535156 "/>
<path style=" stroke:none;fill-rule:nonzero;fill:rgb(100%,100%,100%);fill-opacity:1;" d="M 8.929688 15.046875 L 4.898438 16.839844 L 6.960938 13.71875 L 4.898438 10.605469 L 8.929688 12.394531 C 8.726562 12.789062 8.613281 13.246094 8.613281 13.71875 C 8.613281 14.195312 8.726562 14.648438 8.929688 15.046875 Z M 6.417969 15.0625 C 6.421875 15.121094 6.457031 15.136719 6.515625 15.105469 L 7.972656 13.71875 L 6.515625 12.332031 C 6.457031 12.304688 6.421875 12.320312 6.417969 12.378906 L 7.308594 13.71875 Z M 6.417969 15.0625 "/>
<path style=" stroke:none;fill-rule:nonzero;fill:rgb(100%,100%,100%);fill-opacity:1;" d="M 12.976562 16.414062 L 14.78125 20.414062 L 11.640625 18.367188 L 8.5 20.414062 L 10.304688 16.414062 C 10.707031 16.613281 11.160156 16.726562 11.640625 16.726562 C 12.121094 16.726562 12.574219 16.613281 12.976562 16.414062 Z M 12.992188 18.90625 C 13.050781 18.898438 13.066406 18.867188 13.039062 18.808594 L 11.640625 17.359375 L 10.242188 18.808594 C 10.214844 18.867188 10.230469 18.898438 10.289062 18.90625 L 11.640625 18.023438 Z M 12.992188 18.90625 "/>
<path style=" stroke:none;fill-rule:nonzero;fill:rgb(100%,100%,100%);fill-opacity:1;" d="M 14.355469 12.394531 L 18.382812 10.605469 L 16.320312 13.71875 L 18.382812 16.839844 L 14.355469 15.046875 C 14.554688 14.648438 14.667969 14.195312 14.667969 13.71875 C 14.667969 13.246094 14.554688 12.789062 14.355469 12.394531 Z M 16.863281 12.378906 C 16.859375 12.320312 16.828125 12.304688 16.765625 12.332031 L 15.308594 13.71875 L 16.765625 15.105469 C 16.828125 15.136719 16.859375 15.121094 16.863281 15.0625 L 15.976562 13.71875 Z M 16.863281 12.378906 "/>
<path style=" stroke:none;fill-rule:nonzero;fill:rgb(100%,100%,100%);fill-opacity:1;" d="M 12.53125 11.695312 C 12.570312 11.710938 12.609375 11.730469 12.648438 11.75 L 12.671875 12.082031 L 12.257812 12.242188 L 12.667969 13.035156 C 12.804688 12.980469 12.9375 12.925781 13.070312 12.867188 C 13.171875 13.03125 13.273438 13.195312 13.378906 13.355469 L 13.691406 12.851562 C 13.710938 12.898438 13.726562 12.9375 13.742188 12.980469 L 13.445312 13.460938 C 13.570312 13.652344 13.699219 13.84375 13.84375 14.023438 L 13.847656 14.027344 C 13.84375 14.050781 13.839844 14.078125 13.835938 14.101562 C 13.699219 14.261719 13.574219 14.429688 13.457031 14.609375 L 13.632812 14.710938 C 13.617188 14.742188 13.597656 14.777344 13.582031 14.808594 L 13.402344 14.699219 C 13.316406 14.835938 13.238281 14.972656 13.167969 15.113281 L 12.566406 14.914062 L 12.273438 15.839844 C 12.242188 15.847656 12.214844 15.859375 12.183594 15.863281 L 11.640625 15.609375 L 11.097656 15.863281 C 11.066406 15.859375 11.039062 15.847656 11.007812 15.839844 L 10.714844 14.914062 L 10.113281 15.113281 C 10.042969 14.972656 9.960938 14.835938 9.878906 14.699219 L 9.699219 14.808594 C 9.683594 14.773438 9.667969 14.742188 9.648438 14.710938 L 9.824219 14.609375 C 9.707031 14.429688 9.582031 14.261719 9.445312 14.101562 C 9.441406 14.078125 9.4375 14.050781 9.433594 14.027344 L 9.4375 14.023438 C 9.582031 13.84375 9.710938 13.652344 9.835938 13.460938 L 9.539062 12.980469 C 9.554688 12.9375 9.570312 12.898438 9.589844 12.851562 L 9.902344 13.355469 C 10.007812 13.195312 10.109375 13.03125 10.210938 12.867188 C 10.34375 12.925781 10.476562 12.980469 10.613281 13.035156 L 11.023438 12.242188 L 10.609375 12.082031 L 10.632812 11.75 C 10.671875 11.730469 10.710938 11.710938 10.75 11.695312 L 10.726562 12.011719 L 11.640625 12.363281 L 12.554688 12.011719 Z M 11.339844 14.023438 L 11.339844 14.703125 L 10.816406 14.878906 L 11.09375 15.746094 L 11.640625 15.488281 L 12.1875 15.746094 L 12.464844 14.878906 L 11.941406 14.703125 L 11.941406 14.023438 Z M 11.640625 12.484375 L 11.125 12.285156 L 10.714844 13.074219 C 10.925781 13.148438 11.132812 13.214844 11.339844 13.285156 L 11.339844 13.914062 L 11.941406 13.914062 L 11.941406 13.285156 C 12.148438 13.214844 12.355469 13.148438 12.566406 13.074219 L 12.15625 12.285156 Z M 13.730469 14.054688 C 13.472656 13.71875 13.25 13.363281 13.027344 13.007812 C 12.863281 13.074219 12.707031 13.136719 12.542969 13.199219 C 12.382812 13.257812 12.21875 13.308594 12.050781 13.367188 L 12.050781 14.625 L 13.109375 14.980469 C 13.289062 14.648438 13.492188 14.34375 13.730469 14.054688 Z M 9.550781 14.054688 C 9.789062 14.34375 9.992188 14.648438 10.171875 14.980469 L 11.226562 14.625 L 11.226562 13.367188 C 11.0625 13.308594 10.898438 13.257812 10.738281 13.199219 C 10.574219 13.136719 10.417969 13.074219 10.253906 13.007812 C 10.03125 13.363281 9.808594 13.71875 9.550781 14.054688 Z M 9.550781 14.054688 "/>
<path style=" stroke:none;fill-rule:nonzero;fill:rgb(100%,100%,100%);fill-opacity:1;" d="M 13.648438 14.054688 C 13.410156 13.746094 13.207031 13.417969 13.003906 13.089844 C 12.859375 13.148438 12.714844 13.203125 12.566406 13.257812 C 12.414062 13.3125 12.265625 13.363281 12.117188 13.410156 L 12.117188 14.578125 L 13.082031 14.902344 C 13.242188 14.601562 13.433594 14.316406 13.648438 14.054688 Z M 13.648438 14.054688 "/>
<path style=" stroke:none;fill-rule:nonzero;fill:rgb(100%,100%,100%);fill-opacity:1;" d="M 10.898438 14.917969 L 11.402344 14.75 L 11.402344 14.089844 L 11.878906 14.089844 L 11.878906 14.75 L 12.382812 14.917969 L 12.148438 15.65625 L 11.640625 15.417969 L 11.132812 15.65625 Z M 10.898438 14.917969 "/>
<path style=" stroke:none;fill-rule:nonzero;fill:rgb(100%,100%,100%);fill-opacity:1;" d="M 9.632812 14.054688 C 9.871094 13.746094 10.078125 13.417969 10.277344 13.089844 C 10.421875 13.148438 10.566406 13.203125 10.714844 13.257812 C 10.867188 13.3125 11.015625 13.363281 11.164062 13.410156 L 11.164062 14.578125 L 10.199219 14.902344 C 10.039062 14.601562 9.847656 14.316406 9.632812 14.054688 Z M 9.632812 14.054688 "/>
<path style=" stroke:none;fill-rule:nonzero;fill:rgb(100%,100%,100%);fill-opacity:1;" d="M 11.15625 12.363281 L 11.640625 12.554688 L 12.125 12.363281 L 12.472656 13.039062 C 12.273438 13.109375 12.074219 13.171875 11.878906 13.238281 L 11.878906 13.847656 L 11.402344 13.847656 L 11.402344 13.238281 C 11.207031 13.171875 11.007812 13.109375 10.808594 13.039062 Z M 11.15625 12.363281 "/>
<path style=" stroke:none;fill-rule:nonzero;fill:rgb(100%,100%,100%);fill-opacity:1;" d="M 10.363281 11.910156 C 10.429688 11.863281 10.496094 11.824219 10.566406 11.785156 L 10.542969 12.128906 L 10.933594 12.277344 L 10.582031 12.953125 C 10.449219 12.898438 10.316406 12.84375 10.1875 12.785156 C 10.09375 12.933594 9.996094 13.085938 9.902344 13.234375 L 9.65625 12.839844 L 10.34375 12.597656 Z M 10.363281 11.910156 "/>
<path style=" stroke:none;fill-rule:nonzero;fill:rgb(100%,100%,100%);fill-opacity:1;" d="M 9.753906 12.546875 C 9.855469 12.386719 9.976562 12.238281 10.117188 12.113281 L 10.109375 12.425781 Z M 9.753906 12.546875 "/>
<path style=" stroke:none;fill-rule:nonzero;fill:rgb(100%,100%,100%);fill-opacity:1;" d="M 9.621094 12.785156 C 9.648438 12.730469 9.671875 12.679688 9.699219 12.632812 L 10.171875 12.472656 L 10.183594 12.050781 C 10.222656 12.015625 10.257812 11.988281 10.296875 11.957031 L 10.28125 12.554688 Z M 9.621094 12.785156 "/>
<path style=" stroke:none;fill-rule:nonzero;fill:rgb(100%,100%,100%);fill-opacity:1;" d="M 9.421875 13.9375 C 9.417969 13.863281 9.410156 13.792969 9.410156 13.71875 C 9.410156 13.492188 9.449219 13.269531 9.511719 13.0625 L 9.761719 13.457031 C 9.652344 13.621094 9.542969 13.78125 9.421875 13.9375 Z M 9.421875 13.9375 "/>
<path style=" stroke:none;fill-rule:nonzero;fill:rgb(100%,100%,100%);fill-opacity:1;" d="M 9.617188 14.648438 C 9.558594 14.519531 9.507812 14.382812 9.472656 14.238281 C 9.566406 14.351562 9.652344 14.464844 9.730469 14.585938 Z M 9.617188 14.648438 "/>
<path style=" stroke:none;fill-rule:nonzero;fill:rgb(100%,100%,100%);fill-opacity:1;" d="M 10.929688 15.816406 C 10.429688 15.648438 10.003906 15.304688 9.734375 14.863281 L 9.859375 14.789062 C 9.9375 14.917969 10.011719 15.058594 10.082031 15.191406 L 10.667969 14.996094 Z M 10.929688 15.816406 "/>
<path style=" stroke:none;fill-rule:nonzero;fill:rgb(100%,100%,100%);fill-opacity:1;" d="M 12.078125 15.890625 C 11.9375 15.917969 11.789062 15.933594 11.640625 15.933594 C 11.492188 15.933594 11.34375 15.917969 11.203125 15.890625 L 11.640625 15.679688 Z M 12.078125 15.890625 "/>
<path style=" stroke:none;fill-rule:nonzero;fill:rgb(100%,100%,100%);fill-opacity:1;" d="M 13.550781 14.863281 C 13.277344 15.304688 12.851562 15.648438 12.351562 15.816406 L 12.613281 14.996094 L 13.199219 15.191406 C 13.273438 15.058594 13.34375 14.917969 13.421875 14.789062 Z M 13.550781 14.863281 "/>
<path style=" stroke:none;fill-rule:nonzero;fill:rgb(100%,100%,100%);fill-opacity:1;" d="M 13.808594 14.238281 C 13.773438 14.382812 13.722656 14.519531 13.664062 14.648438 L 13.550781 14.585938 C 13.632812 14.464844 13.714844 14.351562 13.808594 14.238281 Z M 13.808594 14.238281 "/>
<path style=" stroke:none;fill-rule:nonzero;fill:rgb(100%,100%,100%);fill-opacity:1;" d="M 13.769531 13.0625 C 13.832031 13.269531 13.871094 13.492188 13.871094 13.71875 C 13.871094 13.792969 13.863281 13.867188 13.859375 13.9375 C 13.738281 13.78125 13.628906 13.621094 13.519531 13.457031 Z M 13.769531 13.0625 "/>
<path style=" stroke:none;fill-rule:nonzero;fill:rgb(100%,100%,100%);fill-opacity:1;" d="M 13.164062 12.113281 C 13.304688 12.238281 13.425781 12.386719 13.527344 12.546875 L 13.171875 12.425781 Z M 13.164062 12.113281 "/>
<path style=" stroke:none;fill-rule:nonzero;fill:rgb(100%,100%,100%);fill-opacity:1;" d="M 12.984375 11.957031 C 13.023438 11.988281 13.058594 12.015625 13.097656 12.046875 L 13.109375 12.472656 L 13.582031 12.632812 C 13.609375 12.679688 13.632812 12.730469 13.660156 12.785156 L 13 12.554688 Z M 12.984375 11.957031 "/>
<path style=" stroke:none;fill-rule:nonzero;fill:rgb(100%,100%,100%);fill-opacity:1;" d="M 12.714844 11.785156 C 12.785156 11.824219 12.851562 11.863281 12.917969 11.910156 L 12.9375 12.597656 L 13.625 12.839844 L 13.378906 13.234375 C 13.285156 13.085938 13.191406 12.933594 13.09375 12.785156 C 12.964844 12.84375 12.832031 12.898438 12.699219 12.953125 L 12.347656 12.277344 L 12.738281 12.128906 Z M 12.714844 11.785156 "/>
<path style=" stroke:none;fill-rule:nonzero;fill:rgb(100%,100%,100%);fill-opacity:1;" d="M 11.640625 11.511719 C 11.929688 11.511719 12.207031 11.5625 12.464844 11.667969 L 12.484375 11.96875 L 11.640625 12.296875 L 10.796875 11.96875 L 10.816406 11.667969 C 11.074219 11.5625 11.351562 11.511719 11.640625 11.511719 Z M 11.640625 11.511719 "/>
</g>
</svg>
