<?xml version="1.0" encoding="UTF-8"?>
<svg xmlns="http://www.w3.org/2000/svg" xmlns:xlink="http://www.w3.org/1999/xlink" width="33pt" height="25pt" viewBox="0 0 33 25" version="1.1">
<g id="surface1">
<path style=" stroke:none;fill-rule:nonzero;fill:rgb(0%,0%,0%);fill-opacity:1;" d="M 9.324219 1.894531 C 13.746094 0.214844 20.398438 0.105469 25.054688 1.902344 C 26.015625 7.761719 25.984375 12.988281 25.148438 18.203125 C 22.949219 20.585938 20.578125 22.671875 17.15625 24.40625 C 14.582031 23.015625 11.90625 21.179688 9.257812 18.253906 C 8.425781 13.792969 8.324219 8.566406 9.324219 1.894531 Z M 9.324219 1.894531 "/>
<path style=" stroke:none;fill-rule:nonzero;fill:rgb(100%,100%,100%);fill-opacity:1;" d="M 9.9375 2.402344 C 14.660156 0.871094 19.480469 0.894531 24.425781 2.398438 C 25.324219 7.867188 25.289062 13.027344 24.511719 17.890625 C 22.457031 20.113281 20.351562 21.980469 17.160156 23.597656 C 14.761719 22.300781 12.34375 20.640625 9.871094 17.914062 C 9.214844 13.769531 9.003906 8.625 9.9375 2.402344 Z M 9.9375 2.402344 "/>
<path style=" stroke:none;fill-rule:nonzero;fill:rgb(69.411765%,69.019608%,13.333333%);fill-opacity:1;" d="M 9.949219 11.011719 C 11.414062 14.222656 13.015625 17.417969 15.1875 20.515625 C 12.351562 17.792969 10.820312 14.875 9.949219 11.011719 Z M 9.949219 11.011719 "/>
<path style=" stroke:none;fill-rule:nonzero;fill:rgb(69.411765%,69.019608%,13.333333%);fill-opacity:1;" d="M 24.269531 11.117188 C 22.792969 14.324219 21.179688 17.507812 18.996094 20.601562 C 21.839844 17.886719 23.386719 14.976562 24.269531 11.117188 Z M 24.269531 11.117188 "/>
<path style=" stroke:none;fill-rule:nonzero;fill:rgb(0%,0%,0%);fill-opacity:1;" d="M 17.183594 5.226562 C 15.585938 5.222656 13.902344 5.300781 12.148438 5.5 C 11.433594 6.464844 10.859375 7.109375 9.902344 9.46875 C 11.59375 13.164062 13.257812 16.839844 17.078125 22.300781 C 19.078125 19.390625 21.199219 16.433594 24.488281 9.496094 C 23.910156 8.039062 23.289062 6.808594 22.273438 5.519531 C 20.699219 5.347656 18.996094 5.234375 17.183594 5.226562 Z M 16.191406 5.382812 L 18.1875 5.394531 L 18.175781 7.117188 L 16.179688 7.105469 Z M 21.007812 5.5625 L 22.207031 5.707031 C 22.570312 6.152344 22.914062 6.617188 23.21875 7.132812 L 20.996094 7.121094 Z M 13.351562 5.546875 L 13.34375 7.105469 L 11.207031 7.09375 C 11.507812 6.582031 11.84375 6.121094 12.199219 5.679688 Z M 20.996094 11.75 L 23.246094 11.761719 C 22.460938 13.304688 21.71875 14.613281 20.972656 15.925781 Z M 16.175781 11.761719 L 18.164062 11.777344 L 18.15625 20.476562 C 17.71875 21.125 17.417969 21.542969 17.070312 22.039062 C 16.796875 21.632812 16.496094 21.242188 16.171875 20.75 Z M 11.097656 11.761719 L 13.34375 11.773438 L 13.320312 16.03125 C 12.589844 14.6875 11.863281 13.339844 11.097656 11.761719 Z M 11.097656 11.761719 "/>
<path style=" stroke:none;fill-rule:nonzero;fill:rgb(0%,0%,0%);fill-opacity:1;" d="M 17.414062 2.632812 L 17.410156 2.929688 C 17.277344 2.820312 17.105469 2.800781 16.957031 2.800781 C 16.746094 2.8125 16.5625 2.910156 16.507812 3.085938 C 16.488281 3.167969 16.472656 3.265625 16.472656 3.386719 C 16.457031 3.605469 16.515625 3.769531 16.722656 3.917969 C 16.773438 3.945312 16.820312 3.957031 16.878906 3.957031 C 16.9375 3.957031 17.011719 3.957031 17.0625 3.925781 L 17.066406 3.507812 C 17.066406 3.476562 17.0625 3.449219 17.054688 3.429688 L 17.441406 3.433594 C 17.433594 3.453125 17.429688 3.480469 17.429688 3.511719 L 17.425781 3.976562 C 17.425781 4.019531 17.433594 4.082031 17.441406 4.113281 C 17.25 4.160156 17.027344 4.1875 16.851562 4.1875 C 16.683594 4.1875 16.546875 4.160156 16.441406 4.105469 C 16.308594 4.039062 16.207031 3.9375 16.140625 3.804688 C 16.082031 3.683594 16.050781 3.542969 16.054688 3.378906 C 16.054688 3.097656 16.144531 2.878906 16.324219 2.730469 C 16.472656 2.605469 16.667969 2.542969 16.914062 2.546875 C 17.066406 2.546875 17.25 2.574219 17.414062 2.632812 "/>
<path style=" stroke:none;fill-rule:nonzero;fill:rgb(0%,0%,0%);fill-opacity:1;" d="M 18.183594 2.613281 L 19.167969 2.636719 L 19.164062 2.855469 C 19.136719 2.847656 19.113281 2.84375 19.082031 2.84375 L 18.539062 2.832031 L 18.527344 3.238281 L 18.964844 3.246094 C 19 3.246094 19.03125 3.246094 19.054688 3.238281 L 19.046875 3.503906 C 19.027344 3.496094 19 3.492188 18.964844 3.492188 L 18.523438 3.484375 L 18.515625 3.933594 L 19.074219 3.945312 C 19.109375 3.945312 19.140625 3.941406 19.167969 3.933594 L 19.164062 4.183594 L 18.148438 4.160156 C 18.160156 4.140625 18.164062 4.117188 18.164062 4.085938 L 18.195312 2.691406 C 18.195312 2.660156 18.191406 2.632812 18.183594 2.613281 "/>
<path style=" stroke:none;fill-rule:nonzero;fill:rgb(0%,0%,0%);fill-opacity:1;" d="M 14.402344 3.21875 L 14.453125 4.175781 C 14.453125 4.207031 14.460938 4.234375 14.46875 4.253906 L 14.152344 4.28125 C 14.160156 4.257812 14.164062 4.234375 14.164062 4.203125 L 14.113281 2.773438 C 14.113281 2.742188 14.105469 2.714844 14.097656 2.695312 L 14.398438 2.683594 C 14.402344 2.699219 14.417969 2.722656 14.441406 2.75 L 15.125 3.644531 L 15.089844 2.730469 C 15.089844 2.699219 15.082031 2.671875 15.074219 2.652344 L 15.371094 2.644531 C 15.363281 2.660156 15.359375 2.6875 15.359375 2.722656 L 15.429688 4.15625 C 15.429688 4.1875 15.433594 4.210938 15.445312 4.230469 L 15.152344 4.246094 C 15.148438 4.230469 15.132812 4.207031 15.105469 4.175781 "/>
<path style=" stroke:none;fill-rule:nonzero;fill:rgb(0%,0%,0%);fill-opacity:1;" d="M 12.4375 3.996094 L 12.34375 4.332031 C 12.335938 4.351562 12.335938 4.371094 12.335938 4.386719 C 12.335938 4.390625 12.339844 4.394531 12.339844 4.402344 L 12.03125 4.429688 C 12.046875 4.40625 12.058594 4.382812 12.0625 4.351562 L 12.484375 2.871094 C 12.488281 2.847656 12.488281 2.832031 12.488281 2.816406 C 12.488281 2.8125 12.488281 2.808594 12.488281 2.804688 L 12.847656 2.765625 C 12.847656 2.78125 12.855469 2.800781 12.867188 2.828125 L 13.566406 4.238281 C 13.582031 4.265625 13.601562 4.289062 13.621094 4.308594 L 13.230469 4.34375 C 13.230469 4.339844 13.226562 4.332031 13.226562 4.328125 C 13.226562 4.3125 13.21875 4.296875 13.210938 4.273438 L 13.042969 3.949219 M 12.492188 3.75 L 12.941406 3.710938 L 12.664062 3.179688 "/>
<path style=" stroke:none;fill-rule:nonzero;fill:rgb(0%,0%,0%);fill-opacity:1;" d="M 21.582031 4.289062 L 21.648438 4.023438 C 21.714844 4.105469 21.800781 4.128906 21.800781 4.128906 C 21.800781 4.128906 21.9375 4.1875 22.046875 4.203125 C 22.167969 4.207031 22.308594 4.152344 22.320312 4.039062 C 22.328125 3.96875 22.304688 3.910156 22.25 3.859375 C 22.019531 3.628906 21.660156 3.507812 21.691406 3.210938 C 21.703125 3.113281 21.726562 3.03125 21.789062 2.957031 C 21.90625 2.820312 22.070312 2.761719 22.304688 2.789062 C 22.441406 2.804688 22.558594 2.847656 22.6875 2.925781 L 22.617188 3.1875 C 22.496094 3.074219 22.386719 3.046875 22.285156 3.039062 C 22.222656 3.03125 22.171875 3.023438 22.128906 3.054688 C 22.050781 3.125 22.035156 3.21875 22.097656 3.285156 C 22.128906 3.320312 22.226562 3.402344 22.34375 3.5 C 22.484375 3.613281 22.59375 3.6875 22.636719 3.769531 C 22.71875 3.914062 22.703125 4.105469 22.605469 4.238281 C 22.488281 4.394531 22.277344 4.449219 22.015625 4.445312 C 21.824219 4.4375 21.648438 4.363281 21.582031 4.289062 "/>
<path style=" stroke:none;fill-rule:nonzero;fill:rgb(0%,0%,0%);fill-opacity:1;" d="M 20.195312 3.597656 L 20.164062 4.179688 C 20.164062 4.207031 20.164062 4.234375 20.171875 4.253906 L 19.832031 4.238281 C 19.839844 4.21875 19.847656 4.195312 19.851562 4.160156 L 19.921875 2.75 C 19.921875 2.71875 19.917969 2.695312 19.910156 2.671875 L 20.574219 2.691406 C 20.808594 2.710938 20.988281 2.921875 20.972656 3.148438 C 20.96875 3.285156 20.785156 3.476562 20.644531 3.5625 L 21.085938 4.230469 C 21.105469 4.265625 21.125 4.289062 21.140625 4.304688 L 20.664062 4.277344 C 20.660156 4.253906 20.65625 4.230469 20.644531 4.207031 L 20.347656 3.609375 M 20.203125 3.382812 L 20.386719 3.390625 C 20.449219 3.394531 20.503906 3.382812 20.542969 3.347656 C 20.605469 3.296875 20.621094 3.246094 20.628906 3.148438 C 20.628906 3.007812 20.535156 2.917969 20.414062 2.910156 L 20.230469 2.902344 L 20.203125 3.382812 "/>
<path style="fill-rule:nonzero;fill:rgb(0%,0%,0%);fill-opacity:1;stroke-width:1.25;stroke-linecap:butt;stroke-linejoin:miter;stroke:rgb(0%,0%,0%);stroke-opacity:1;stroke-miterlimit:4;" d="M 328.181411 473.566478 L 307.498123 473.560283 L 307.475529 469.727271 L 314.996468 469.685967 L 314.973544 444.53114 L 307.967416 446.845541 L 307.945528 443.132311 L 320.961346 439.58705 L 321.013219 469.652924 L 328.158817 469.733466 Z M 328.181411 473.566478 " transform="matrix(0.031162,0.000179093,-0.000183687,0.0326104,7.364109,-1.744144)"/>
<path style="fill-rule:nonzero;fill:rgb(0%,0%,0%);fill-opacity:1;stroke-width:1.398786;stroke-linecap:butt;stroke-linejoin:miter;stroke:rgb(0%,0%,0%);stroke-opacity:1;stroke-miterlimit:4;" d="M 288.163577 574.695042 L 288.138307 569.688271 C 290.269371 570.860455 292.5165 571.63661 294.8777 571.621466 C 298.301438 571.599506 300.423192 570.92709 302.298187 568.148074 C 304.173846 565.500816 304.626135 561.545072 304.718925 556.537544 C 304.600865 556.538301 304.600865 556.538301 304.600865 556.538301 C 302.963986 559.711074 301.083007 561.304275 297.187028 561.329264 C 290.575006 561.239911 286.653092 556.126371 286.620506 549.670271 C 286.698001 541.632328 292.106149 537.117752 298.245266 537.078376 C 301.905125 537.054902 304.863939 538.4853 306.886254 541.502841 C 308.907903 544.388626 310.582023 548.594253 310.610618 554.259811 C 310.527803 561.243697 309.019624 566.523827 306.322865 570.230443 C 303.626771 574.068817 299.503983 575.93992 294.781585 575.970209 C 292.184266 575.986868 290.056527 575.473469 288.163577 574.695042 Z M 297.790982 540.638848 C 292.952519 541.065166 291.435029 544.500696 291.45764 548.980439 C 291.01333 554.517268 293.743339 557.398509 298.112223 557.502248 C 302.242991 557.212231 304.827675 554.692186 304.80573 550.3442 C 305.014584 544.940643 302.395985 540.741073 297.790982 540.638848 Z M 297.790982 540.638848 " transform="matrix(0.0330859,0.00019015,-0.000166992,0.0296464,7.366497,-1.190083)"/>
<path style="fill-rule:nonzero;fill:rgb(0%,0%,0%);fill-opacity:1;stroke-width:1.25;stroke-linecap:butt;stroke-linejoin:miter;stroke:rgb(0%,0%,0%);stroke-opacity:1;stroke-miterlimit:4;" d="M 328.706673 473.480331 L 308.023385 473.474136 L 308.000791 469.641125 L 315.522436 469.719602 L 315.499511 444.564775 L 308.493384 446.879176 L 308.471496 443.165946 L 321.487314 439.620685 L 321.539187 469.686559 L 328.684079 469.64732 Z M 328.706673 473.480331 " transform="matrix(0.031162,0.000179093,-0.000183687,0.0326104,7.339912,2.55154)"/>
<path style="fill-rule:nonzero;fill:rgb(0%,0%,0%);fill-opacity:1;stroke-width:1.398786;stroke-linecap:butt;stroke-linejoin:miter;stroke:rgb(0%,0%,0%);stroke-opacity:1;stroke-miterlimit:4;" d="M 288.195615 574.713274 L 288.170345 569.706502 C 290.301409 570.878686 292.548538 571.654842 294.791677 571.640454 C 298.215416 571.618495 300.45523 570.945322 302.330224 568.166306 C 304.205219 565.38729 304.658173 561.563304 304.632903 556.556532 C 302.996024 559.729305 301.115045 561.322507 297.101006 561.348252 C 290.488318 561.127143 286.68513 556.144603 286.651879 549.556745 C 286.611314 541.519559 292.138187 537.135983 298.277304 537.096608 C 301.937163 537.073133 304.777917 538.504289 306.917626 541.389316 C 308.939941 544.406857 310.61406 548.612485 310.524596 554.278799 C 310.559176 561.130171 309.051662 566.542058 306.354903 570.248675 C 303.658809 574.087048 299.536021 575.958151 294.695563 575.989198 C 292.215639 575.873342 289.970504 575.492458 288.195615 574.713274 Z M 297.82302 540.65708 C 292.984556 541.083397 291.349007 544.519684 291.371617 548.999427 C 291.045368 554.535499 293.775377 557.41674 298.14426 557.52048 C 302.275029 557.230463 304.741653 554.711175 304.837768 550.362432 C 304.928562 544.959632 302.428023 540.759305 297.82302 540.65708 Z M 297.82302 540.65708 " transform="matrix(0.0330859,0.00019015,-0.000166992,0.0296464,7.361534,3.114058)"/>
<path style=" stroke:none;fill-rule:nonzero;fill:rgb(100%,100%,100%);fill-opacity:1;" d="M 15.800781 8.359375 C 14.804688 9.230469 15.25 10.59375 16.589844 10.886719 C 17.25 11.101562 18.296875 11.015625 18.75 10.730469 L 18.753906 10.222656 C 18.207031 10.613281 17.203125 10.613281 16.769531 10.386719 C 16.117188 10.085938 15.882812 9.417969 16.261719 8.773438 C 16.675781 8.175781 18.015625 8.167969 18.769531 8.648438 L 18.847656 8.113281 C 17.914062 7.75 16.472656 7.785156 15.800781 8.359375 Z M 15.800781 8.359375 "/>
<path style=" stroke:none;fill-rule:nonzero;fill:rgb(100%,100%,100%);fill-opacity:1;" d="M 14.632812 10.28125 C 14.765625 9.398438 13.636719 9.234375 13.289062 9.132812 C 13.0625 9.066406 12.863281 9.015625 12.742188 8.960938 C 12.097656 8.648438 12.722656 8.308594 13.445312 8.359375 C 13.910156 8.402344 13.96875 8.476562 14.445312 8.644531 C 14.457031 8.480469 14.492188 8.320312 14.585938 8.160156 C 14.304688 8.066406 14.117188 8 13.824219 7.933594 C 13.582031 7.878906 13.03125 7.875 12.757812 7.929688 C 12.492188 7.976562 12.113281 8.144531 11.96875 8.289062 C 11.734375 8.519531 11.710938 8.855469 11.871094 9.136719 C 12.003906 9.371094 12.441406 9.582031 12.964844 9.660156 C 13.589844 9.832031 13.84375 9.832031 13.890625 10.285156 C 13.894531 10.839844 12.5 10.648438 12.105469 10.417969 L 11.953125 10.289062 C 11.949219 10.480469 11.90625 10.652344 11.855469 10.835938 L 12.132812 10.90625 C 12.5625 11.015625 12.761719 11.050781 13.246094 11.035156 C 13.742188 11.039062 14.507812 10.898438 14.632812 10.28125 Z M 14.632812 10.28125 "/>
<path style=" stroke:none;fill-rule:nonzero;fill:rgb(100%,100%,100%);fill-opacity:1;" d="M 22.582031 10.085938 C 22.582031 10.085938 22.617188 9.457031 22.617188 9.410156 C 22.617188 9.410156 22.65625 9.054688 22.59375 8.839844 C 22.40625 8.21875 21.753906 7.898438 20.921875 7.929688 C 20.242188 7.925781 19.777344 8.195312 19.570312 8.566406 C 19.414062 8.847656 19.4375 9.175781 19.4375 9.542969 C 19.410156 9.828125 19.429688 10.085938 19.519531 10.308594 C 19.671875 10.683594 20.109375 10.957031 20.464844 11.003906 C 20.769531 11.0625 21.226562 11.066406 21.621094 10.984375 C 22.136719 10.871094 22.566406 10.445312 22.582031 10.085938 Z M 20.589844 10.582031 C 20.472656 10.546875 20.324219 10.464844 20.265625 10.34375 C 20.15625 10.128906 20.195312 9.832031 20.195312 9.484375 C 20.195312 9.230469 20.175781 8.925781 20.261719 8.722656 C 20.394531 8.390625 20.671875 8.34375 21.035156 8.347656 C 21.410156 8.347656 21.722656 8.449219 21.796875 8.707031 C 21.847656 8.882812 21.832031 9.105469 21.828125 9.480469 C 21.824219 10.125 21.847656 10.273438 21.679688 10.4375 C 21.582031 10.535156 21.410156 10.632812 21.175781 10.628906 C 20.976562 10.628906 20.777344 10.640625 20.589844 10.582031 Z M 20.589844 10.582031 "/>
</g>
</svg>
