<?xml version="1.0" encoding="UTF-8"?>
<svg xmlns="http://www.w3.org/2000/svg" xmlns:xlink="http://www.w3.org/1999/xlink" width="18pt" height="25pt" viewBox="0 0 18 25" version="1.1">
<defs>
<clipPath id="clip1">
  <path d="M 0 6 L 18 6 L 18 25 L 0 25 Z M 0 6 "/>
</clipPath>
<clipPath id="clip2">
  <path d="M 0.21875 15.847656 C 0.21875 20.769531 4.144531 24.761719 8.988281 24.761719 C 13.835938 24.761719 17.761719 20.769531 17.761719 15.847656 C 17.761719 10.925781 13.835938 6.9375 8.988281 6.9375 C 4.144531 6.9375 0.21875 10.925781 0.21875 15.847656 M 9.765625 10.222656 C 10.359375 10.308594 10.925781 10.484375 11.445312 10.742188 L 11.445312 14.378906 L 9.765625 14.378906 Z M 6.742188 10.648438 C 7.203125 10.441406 7.695312 10.296875 8.214844 10.222656 L 8.214844 14.378906 L 6.742188 14.378906 Z M 3.398438 15.847656 C 3.398438 14.203125 4.085938 12.71875 5.191406 11.679688 L 5.191406 14.378906 L 4.492188 14.378906 L 4.492188 17.320312 L 5.191406 17.320312 L 5.191406 20.015625 C 4.085938 18.980469 3.398438 17.496094 3.398438 15.847656 M 12.996094 11.886719 C 13.976562 12.910156 14.582031 14.308594 14.582031 15.847656 C 14.582031 17.390625 13.976562 18.789062 12.996094 19.8125 L 12.996094 17.320312 L 13.484375 17.320312 L 13.484375 14.378906 L 12.996094 14.378906 Z M 4.59375 14.484375 L 13.382812 14.484375 L 13.382812 17.214844 L 4.59375 17.214844 Z M 9.765625 17.320312 L 11.445312 17.320312 L 11.445312 20.953125 C 10.925781 21.210938 10.359375 21.390625 9.765625 21.472656 Z M 6.742188 21.050781 L 6.742188 17.320312 L 8.214844 17.320312 L 8.214844 21.472656 C 7.695312 21.402344 7.203125 21.257812 6.742188 21.050781 "/>
</clipPath>
<clipPath id="clip3">
  <path d="M 5 0.222656 L 13 0.222656 L 13 8 L 5 8 Z M 5 0.222656 "/>
</clipPath>
</defs>
<g id="surface17">
<path style=" stroke:none;fill-rule:nonzero;fill:rgb(100%,100%,100%);fill-opacity:1;" d="M 17.636719 15.699219 C 17.636719 20.320312 13.765625 24.0625 8.988281 24.0625 C 4.214844 24.0625 0.34375 20.320312 0.34375 15.699219 C 0.34375 11.082031 4.214844 7.335938 8.988281 7.335938 C 13.765625 7.335938 17.636719 11.082031 17.636719 15.699219 Z M 17.636719 15.699219 "/>
<path style=" stroke:none;fill-rule:nonzero;fill:rgb(0%,27.058824%,12.941176%);fill-opacity:1;" d="M 9.832031 10.292969 C 10.402344 10.371094 10.945312 10.539062 11.445312 10.78125 L 11.445312 10.742188 C 10.925781 10.484375 10.359375 10.308594 9.765625 10.222656 L 9.765625 14.378906 L 9.832031 14.378906 Z M 9.832031 10.292969 "/>
<path style=" stroke:none;fill-rule:nonzero;fill:rgb(0%,27.058824%,12.941176%);fill-opacity:1;" d="M 6.808594 10.714844 C 7.25 10.519531 7.722656 10.378906 8.214844 10.300781 L 8.214844 10.222656 C 7.695312 10.296875 7.203125 10.441406 6.742188 10.648438 L 6.742188 14.378906 L 6.808594 14.378906 Z M 6.808594 10.714844 "/>
<path style=" stroke:none;fill-rule:nonzero;fill:rgb(0%,27.058824%,12.941176%);fill-opacity:1;" d="M 3.464844 15.917969 C 3.464844 14.304688 4.128906 12.851562 5.191406 11.816406 L 5.191406 11.679688 C 4.085938 12.71875 3.398438 14.203125 3.398438 15.847656 C 3.398438 17.425781 4.03125 18.855469 5.054688 19.882812 C 4.070312 18.859375 3.464844 17.460938 3.464844 15.917969 "/>
<path style=" stroke:none;fill-rule:nonzero;fill:rgb(0%,27.058824%,12.941176%);fill-opacity:1;" d="M 4.5625 17.386719 L 5.191406 17.386719 L 5.191406 17.320312 L 4.492188 17.320312 Z M 4.5625 17.386719 "/>
<path style=" stroke:none;fill-rule:nonzero;fill:rgb(0%,27.058824%,12.941176%);fill-opacity:1;" d="M 6.808594 17.386719 L 8.214844 17.386719 L 8.214844 17.320312 L 6.742188 17.320312 L 6.742188 21.050781 C 6.761719 21.0625 6.785156 21.070312 6.808594 21.082031 Z M 6.808594 17.386719 "/>
<path style=" stroke:none;fill-rule:nonzero;fill:rgb(0%,27.058824%,12.941176%);fill-opacity:1;" d="M 9.832031 17.386719 L 11.445312 17.386719 L 11.445312 17.320312 L 9.765625 17.320312 L 9.765625 21.472656 C 9.789062 21.472656 9.808594 21.46875 9.832031 21.464844 Z M 9.832031 17.386719 "/>
<path style=" stroke:none;fill-rule:nonzero;fill:rgb(0%,27.058824%,12.941176%);fill-opacity:1;" d="M 13.0625 11.960938 C 13.039062 11.933594 13.019531 11.910156 12.996094 11.886719 L 12.996094 14.378906 L 13.0625 14.378906 Z M 13.0625 11.960938 "/>
<path style=" stroke:none;fill-rule:nonzero;fill:rgb(0%,27.058824%,12.941176%);fill-opacity:1;" d="M 13.0625 17.386719 L 13.554688 17.386719 L 13.554688 14.308594 L 13.484375 14.382812 L 13.484375 17.320312 L 12.996094 17.320312 L 12.996094 19.8125 C 13.019531 19.785156 13.039062 19.761719 13.0625 19.738281 Z M 13.0625 17.386719 "/>
<path style=" stroke:none;fill-rule:nonzero;fill:rgb(100%,100%,100%);fill-opacity:1;" d="M 11.355469 10.742188 L 11.355469 14.3125 L 9.765625 14.3125 L 9.765625 14.378906 L 11.445312 14.378906 L 11.445312 10.742188 Z M 11.355469 10.742188 "/>
<path style=" stroke:none;fill-rule:nonzero;fill:rgb(100%,100%,100%);fill-opacity:1;" d="M 8.125 10.316406 L 8.125 14.3125 L 6.742188 14.3125 L 6.742188 14.378906 L 8.214844 14.378906 L 8.214844 10.222656 C 8.183594 10.226562 8.152344 10.308594 8.125 10.316406 "/>
<path style=" stroke:none;fill-rule:nonzero;fill:rgb(100%,100%,100%);fill-opacity:1;" d="M 5.101562 17.386719 L 5.101562 19.929688 C 5.128906 19.957031 5.160156 19.988281 5.191406 20.015625 L 5.191406 17.320312 Z M 5.101562 17.386719 "/>
<path style=" stroke:none;fill-rule:nonzero;fill:rgb(100%,100%,100%);fill-opacity:1;" d="M 5.101562 11.9375 L 5.101562 14.3125 L 4.402344 14.3125 L 4.402344 17.226562 L 4.492188 17.320312 L 4.492188 14.378906 L 5.191406 14.378906 L 5.191406 11.679688 C 5.160156 11.710938 5.128906 11.910156 5.101562 11.9375 "/>
<path style=" stroke:none;fill-rule:nonzero;fill:rgb(100%,100%,100%);fill-opacity:1;" d="M 8.125 17.390625 L 8.125 21.40625 C 7.664062 21.339844 7.222656 21.21875 6.808594 21.050781 L 6.742188 21.050781 C 7.203125 21.257812 7.695312 21.402344 8.214844 21.472656 L 8.214844 17.320312 Z M 8.125 17.390625 "/>
<path style=" stroke:none;fill-rule:nonzero;fill:rgb(100%,100%,100%);fill-opacity:1;" d="M 11.355469 17.390625 L 11.355469 20.886719 C 10.882812 21.121094 10.371094 21.289062 9.832031 21.378906 L 9.765625 21.472656 C 10.359375 21.390625 10.925781 21.210938 11.445312 20.953125 L 11.445312 17.320312 Z M 11.355469 17.390625 "/>
<path style=" stroke:none;fill-rule:nonzero;fill:rgb(100%,100%,100%);fill-opacity:1;" d="M 12.996094 11.886719 C 12.996094 11.886719 13.042969 11.96875 13.066406 11.992188 C 13.953125 13 14.492188 14.324219 14.492188 15.78125 C 14.492188 17.238281 13.949219 18.566406 13.0625 19.570312 L 12.996094 19.8125 C 13.976562 18.789062 14.582031 17.390625 14.582031 15.847656 C 14.582031 14.308594 13.976562 12.910156 12.996094 11.886719 "/>
<path style=" stroke:none;fill-rule:nonzero;fill:rgb(100%,100%,100%);fill-opacity:1;" d="M 13.0625 14.3125 L 12.996094 14.378906 L 13.484375 14.378906 L 13.554688 14.3125 Z M 13.0625 14.3125 "/>
<g clip-path="url(#clip1)" clip-rule="nonzero">
<g clip-path="url(#clip2)" clip-rule="nonzero">
<path style=" stroke:none;fill-rule:nonzero;fill:rgb(0%,41.568627%,19.607843%);fill-opacity:1;" d="M 8.980469 6.917969 C 8.78125 6.917969 8.578125 6.925781 8.378906 6.941406 C 8.183594 6.953125 7.992188 6.972656 7.796875 7 C 7.601562 7.027344 7.410156 7.058594 7.21875 7.097656 C 7.027344 7.136719 6.84375 7.183594 6.660156 7.234375 C 6.386719 7.308594 6.121094 7.402344 5.859375 7.503906 C 5.601562 7.605469 5.34375 7.71875 5.097656 7.84375 C 4.851562 7.96875 4.609375 8.101562 4.375 8.25 C 4.140625 8.398438 3.910156 8.558594 3.691406 8.726562 C 3.613281 8.789062 3.535156 8.847656 3.457031 8.914062 C 3.378906 8.976562 3.296875 9.046875 3.21875 9.113281 C 3.144531 9.179688 3.066406 9.25 2.992188 9.320312 C 2.917969 9.390625 2.851562 9.464844 2.78125 9.535156 C 2.5625 9.753906 2.359375 9.988281 2.167969 10.230469 C 2.070312 10.347656 1.972656 10.472656 1.882812 10.597656 C 1.792969 10.722656 1.707031 10.851562 1.625 10.980469 C 1.5 11.171875 1.386719 11.367188 1.277344 11.566406 C 1.167969 11.765625 1.070312 11.96875 0.976562 12.179688 C 0.789062 12.597656 0.636719 13.03125 0.515625 13.480469 C 0.394531 13.917969 0.3125 14.363281 0.257812 14.816406 C 0.238281 14.988281 0.222656 15.167969 0.214844 15.34375 C 0.203125 15.519531 0.203125 15.695312 0.203125 15.871094 C 0.203125 16.277344 0.230469 16.675781 0.28125 17.070312 C 0.335938 17.460938 0.414062 17.847656 0.515625 18.21875 C 0.585938 18.484375 0.667969 18.738281 0.761719 18.988281 C 0.855469 19.242188 0.960938 19.488281 1.074219 19.730469 C 1.191406 19.96875 1.316406 20.207031 1.449219 20.433594 C 1.585938 20.664062 1.730469 20.882812 1.882812 21.097656 C 2.019531 21.285156 2.164062 21.464844 2.3125 21.644531 C 2.460938 21.820312 2.617188 21.996094 2.78125 22.160156 C 2.921875 22.304688 3.066406 22.449219 3.21875 22.582031 C 3.371094 22.71875 3.53125 22.847656 3.691406 22.972656 C 3.910156 23.140625 4.140625 23.300781 4.375 23.445312 C 4.609375 23.59375 4.851562 23.726562 5.097656 23.851562 C 5.34375 23.976562 5.601562 24.089844 5.859375 24.191406 C 6.121094 24.292969 6.386719 24.378906 6.660156 24.457031 C 7.027344 24.558594 7.410156 24.644531 7.796875 24.695312 C 8.183594 24.75 8.578125 24.777344 8.980469 24.78125 C 9.375 24.78125 9.769531 24.75 10.160156 24.695312 C 10.550781 24.644531 10.941406 24.5625 11.324219 24.457031 C 12.167969 24.21875 12.957031 23.863281 13.679688 23.398438 C 14.09375 23.132812 14.484375 22.832031 14.847656 22.5 C 14.910156 22.445312 14.96875 22.386719 15.027344 22.332031 C 15.085938 22.273438 15.144531 22.21875 15.199219 22.160156 C 15.363281 21.996094 15.519531 21.820312 15.667969 21.644531 C 15.820312 21.464844 15.960938 21.285156 16.097656 21.097656 C 16.40625 20.667969 16.675781 20.210938 16.90625 19.730469 C 17.136719 19.25 17.324219 18.746094 17.46875 18.21875 C 17.570312 17.847656 17.644531 17.460938 17.699219 17.070312 C 17.75 16.675781 17.777344 16.277344 17.777344 15.871094 C 17.777344 15.695312 17.777344 15.519531 17.765625 15.34375 C 17.757812 15.167969 17.742188 14.988281 17.722656 14.816406 C 17.671875 14.363281 17.585938 13.917969 17.46875 13.480469 C 17.34375 13.03125 17.191406 12.597656 17.003906 12.179688 C 16.820312 11.761719 16.601562 11.359375 16.355469 10.980469 C 16.191406 10.71875 16.007812 10.46875 15.8125 10.230469 C 15.621094 9.988281 15.417969 9.753906 15.199219 9.535156 C 15.085938 9.417969 14.96875 9.304688 14.847656 9.195312 C 14.667969 9.03125 14.476562 8.871094 14.28125 8.71875 C 14.085938 8.570312 13.886719 8.429688 13.679688 8.296875 C 13.589844 8.238281 13.496094 8.179688 13.402344 8.125 C 13.3125 8.070312 13.222656 8.019531 13.125 7.96875 C 12.9375 7.863281 12.746094 7.769531 12.546875 7.679688 C 12.351562 7.589844 12.144531 7.507812 11.941406 7.433594 C 11.738281 7.359375 11.535156 7.292969 11.324219 7.234375 C 11.132812 7.179688 10.9375 7.140625 10.746094 7.097656 C 10.550781 7.058594 10.355469 7.027344 10.160156 7 C 9.964844 6.972656 9.769531 6.949219 9.570312 6.933594 C 9.375 6.921875 9.179688 6.917969 8.980469 6.917969 Z M 8.980469 6.917969 "/>
</g>
</g>
<path style=" stroke:none;fill-rule:nonzero;fill:rgb(0%,27.058824%,12.941176%);fill-opacity:1;" d="M 3.785156 10.15625 C 3.691406 10.042969 3.558594 10.015625 3.449219 10.128906 C 3.289062 10.289062 3.371094 10.40625 3.445312 10.484375 C 3.515625 10.554688 3.585938 10.566406 3.675781 10.527344 C 3.746094 10.496094 3.816406 10.464844 3.890625 10.433594 C 4.148438 10.316406 4.246094 10.347656 4.375 10.480469 C 4.5625 10.671875 4.550781 10.902344 4.359375 11.09375 C 4.261719 11.191406 4.117188 11.277344 3.933594 11.203125 C 3.863281 11.175781 3.789062 11.09375 3.734375 11.039062 L 3.84375 10.929688 C 3.984375 11.085938 4.101562 11.152344 4.269531 10.988281 C 4.378906 10.875 4.402344 10.738281 4.285156 10.621094 C 4.136719 10.46875 4.074219 10.527344 3.9375 10.589844 C 3.863281 10.621094 3.746094 10.679688 3.667969 10.703125 C 3.527344 10.75 3.425781 10.691406 3.328125 10.59375 C 3.167969 10.425781 3.175781 10.203125 3.339844 10.039062 C 3.519531 9.859375 3.722656 9.84375 3.898438 10.042969 Z M 3.785156 10.15625 "/>
<path style=" stroke:none;fill-rule:nonzero;fill:rgb(0%,27.058824%,12.941176%);fill-opacity:1;" d="M 4.34375 9.359375 L 4.339844 9.363281 L 4.625 10.082031 L 4.925781 9.863281 Z M 4.195312 9.328125 L 4.363281 9.207031 L 5.496094 10.117188 L 5.359375 10.21875 L 5.035156 9.957031 L 4.679688 10.21875 L 4.867188 10.664062 L 4.742188 10.757812 L 4.691406 10.710938 Z M 4.195312 9.328125 "/>
<path style=" stroke:none;fill-rule:nonzero;fill:rgb(0%,27.058824%,12.941176%);fill-opacity:1;" d="M 5.699219 10.09375 L 5.648438 10.046875 L 4.960938 8.816406 L 5.09375 8.738281 L 5.144531 8.785156 L 5.78125 9.972656 Z M 5.699219 10.09375 "/>
<path style=" stroke:none;fill-rule:nonzero;fill:rgb(0%,27.058824%,12.941176%);fill-opacity:1;" d="M 6.136719 8.246094 L 6.277344 8.1875 L 6.328125 8.230469 L 6.8125 9.492188 L 6.578125 9.589844 L 5.792969 8.699219 C 5.746094 8.648438 5.707031 8.59375 5.664062 8.519531 L 5.660156 8.523438 C 5.6875 8.589844 5.71875 8.65625 5.746094 8.722656 L 6.171875 9.765625 L 6.082031 9.871094 L 6.027344 9.824219 L 5.492188 8.515625 L 5.726562 8.417969 L 5.777344 8.464844 L 6.527344 9.335938 C 6.5625 9.367188 6.589844 9.40625 6.632812 9.460938 L 6.636719 9.457031 C 6.613281 9.410156 6.59375 9.363281 6.570312 9.3125 Z M 6.136719 8.246094 "/>
<path style=" stroke:none;fill-rule:nonzero;fill:rgb(0%,27.058824%,12.941176%);fill-opacity:1;" d="M 6.59375 8.078125 L 7.441406 7.863281 L 7.496094 7.910156 L 7.125 8.089844 L 7.429688 9.328125 L 7.328125 9.410156 L 7.277344 9.367188 L 6.976562 8.128906 L 6.679688 8.261719 L 6.625 8.214844 Z M 6.59375 8.078125 "/>
<path style=" stroke:none;fill-rule:nonzero;fill:rgb(0%,27.058824%,12.941176%);fill-opacity:1;" d="M 7.734375 8.785156 L 7.683594 8.738281 L 7.660156 8.582031 L 8.109375 8.519531 L 8.160156 8.5625 L 8.128906 8.671875 Z M 7.734375 8.785156 "/>
<path style=" stroke:none;fill-rule:nonzero;fill:rgb(0%,27.058824%,12.941176%);fill-opacity:1;" d="M 8.4375 9.210938 L 8.386719 9.164062 L 8.339844 7.75 L 9.039062 7.726562 L 9.089844 7.769531 L 9.09375 7.882812 L 8.5 7.886719 L 8.515625 8.351562 L 9.023438 8.335938 L 9.074219 8.382812 L 9.027344 8.476562 L 8.519531 8.496094 L 8.535156 9.019531 L 9.082031 9 L 9.132812 9.046875 L 9.085938 9.140625 Z M 8.4375 9.210938 "/>
<path style=" stroke:none;fill-rule:nonzero;fill:rgb(0%,27.058824%,12.941176%);fill-opacity:1;" d="M 9.332031 7.730469 L 10.203125 7.820312 L 10.253906 7.867188 L 10.191406 7.960938 L 9.832031 7.925781 L 9.703125 9.191406 L 9.601562 9.222656 L 9.550781 9.175781 L 9.675781 7.910156 L 9.371094 7.917969 L 9.320312 7.871094 Z M 9.332031 7.730469 "/>
<path style=" stroke:none;fill-rule:nonzero;fill:rgb(0%,27.058824%,12.941176%);fill-opacity:1;" d="M 10.28125 9.324219 L 10.230469 9.277344 L 10.519531 7.894531 L 10.667969 7.925781 L 10.71875 7.972656 L 10.378906 9.3125 Z M 10.28125 9.324219 "/>
<path style=" stroke:none;fill-rule:nonzero;fill:rgb(0%,27.058824%,12.941176%);fill-opacity:1;" d="M 10.710938 9.417969 L 10.660156 9.371094 L 11.089844 8.023438 L 11.753906 8.246094 L 11.804688 8.289062 L 11.195312 8.207031 L 11.050781 8.652344 L 11.535156 8.8125 L 11.585938 8.859375 L 11.007812 8.789062 L 10.847656 9.285156 L 11.367188 9.457031 L 11.417969 9.503906 L 11.324219 9.59375 Z M 10.710938 9.417969 "/>
<path style=" stroke:none;fill-rule:nonzero;fill:rgb(0%,27.058824%,12.941176%);fill-opacity:1;" d="M 12.746094 8.710938 L 12.886719 8.78125 L 12.9375 8.828125 L 12.257812 10.050781 L 12.082031 9.980469 L 12.03125 9.933594 L 12.183594 8.742188 C 12.191406 8.675781 12.207031 8.609375 12.230469 8.527344 C 12.199219 8.589844 12.167969 8.65625 12.136719 8.722656 L 11.636719 9.730469 L 11.550781 9.707031 L 11.5 9.660156 L 12.125 8.394531 L 12.351562 8.507812 L 12.402344 8.554688 L 12.191406 9.726562 C 12.1875 9.773438 12.179688 9.820312 12.167969 9.886719 L 12.167969 9.890625 C 12.191406 9.84375 12.210938 9.792969 12.234375 9.746094 Z M 12.746094 8.710938 "/>
<path style=" stroke:none;fill-rule:nonzero;fill:rgb(0%,27.058824%,12.941176%);fill-opacity:1;" d="M 13.839844 9.445312 L 13.964844 9.539062 L 13.140625 10.679688 L 12.9375 10.53125 L 13.28125 9.382812 C 13.300781 9.316406 13.324219 9.253906 13.363281 9.179688 L 13.359375 9.175781 C 13.316406 9.234375 13.277344 9.296875 13.234375 9.351562 L 12.582031 10.265625 L 12.457031 10.171875 L 13.277344 9.027344 L 13.480469 9.179688 L 13.128906 10.351562 C 13.117188 10.398438 13.101562 10.441406 13.078125 10.507812 C 13.109375 10.464844 13.136719 10.421875 13.167969 10.378906 Z M 13.839844 9.445312 "/>
<path style=" stroke:none;fill-rule:nonzero;fill:rgb(0%,27.058824%,12.941176%);fill-opacity:1;" d="M 13.3125 10.839844 L 14.292969 9.832031 L 14.789062 10.332031 L 14.691406 10.429688 L 14.304688 10.042969 L 13.980469 10.375 L 14.34375 10.742188 L 14.246094 10.839844 L 13.882812 10.476562 L 13.519531 10.851562 L 13.910156 11.238281 L 13.8125 11.339844 Z M 13.3125 10.839844 "/>
<path style=" stroke:none;fill-rule:nonzero;fill:rgb(0%,27.058824%,12.941176%);fill-opacity:1;" d="M 6.585938 23.429688 L 6.949219 22.0625 L 7.097656 22.101562 L 6.773438 23.332031 L 7.320312 23.484375 L 7.285156 23.621094 Z M 6.585938 23.429688 "/>
<path style=" stroke:none;fill-rule:nonzero;fill:rgb(0%,27.058824%,12.941176%);fill-opacity:1;" d="M 8.167969 22.527344 C 7.929688 22.5 7.84375 22.742188 7.808594 23.054688 C 7.761719 23.464844 7.777344 23.683594 8.035156 23.714844 C 8.289062 23.746094 8.355469 23.535156 8.402344 23.125 C 8.441406 22.8125 8.410156 22.554688 8.167969 22.527344 M 8.191406 22.386719 C 8.59375 22.433594 8.601562 22.820312 8.5625 23.140625 C 8.515625 23.53125 8.421875 23.902344 8.019531 23.855469 C 7.613281 23.808594 7.609375 23.425781 7.648438 23.035156 C 7.6875 22.710938 7.777344 22.339844 8.191406 22.386719 "/>
<path style=" stroke:none;fill-rule:nonzero;fill:rgb(0%,27.058824%,12.941176%);fill-opacity:1;" d="M 8.863281 22.457031 L 9.015625 22.457031 L 9.015625 23.875 L 8.863281 23.875 Z M 8.863281 22.457031 "/>
<path style=" stroke:none;fill-rule:nonzero;fill:rgb(0%,27.058824%,12.941176%);fill-opacity:1;" d="M 9.519531 23.089844 L 9.761719 23.0625 C 9.832031 23.050781 10.03125 23.015625 10 22.773438 C 9.96875 22.53125 9.78125 22.546875 9.675781 22.558594 L 9.460938 22.585938 Z M 9.605469 23.851562 L 9.453125 23.867188 L 9.292969 22.460938 L 9.648438 22.417969 C 9.9375 22.386719 10.132812 22.441406 10.160156 22.765625 C 10.171875 22.933594 10.085938 23.0625 9.929688 23.101562 L 9.929688 23.105469 C 10.109375 23.101562 10.160156 23.15625 10.203125 23.339844 C 10.222656 23.445312 10.242188 23.546875 10.269531 23.648438 C 10.277344 23.675781 10.296875 23.738281 10.332031 23.730469 L 10.335938 23.765625 L 10.15625 23.785156 C 10.113281 23.699219 10.078125 23.527344 10.070312 23.433594 C 10.050781 23.292969 9.984375 23.179688 9.800781 23.199219 L 9.535156 23.230469 Z M 9.605469 23.851562 "/>
<path style=" stroke:none;fill-rule:nonzero;fill:rgb(0%,27.058824%,12.941176%);fill-opacity:1;" d="M 10.671875 23.597656 L 10.3125 22.230469 L 10.984375 22.046875 L 11.023438 22.183594 L 10.496094 22.324219 L 10.617188 22.777344 L 11.109375 22.644531 L 11.144531 22.78125 L 10.652344 22.914062 L 10.785156 23.421875 L 11.316406 23.277344 L 11.351562 23.414062 Z M 10.671875 23.597656 "/>
<path style=" stroke:none;fill-rule:nonzero;fill:rgb(100%,100%,100%);fill-opacity:1;" d="M 3.835938 10.199219 C 3.742188 10.085938 3.613281 10.0625 3.5 10.171875 C 3.339844 10.332031 3.421875 10.453125 3.5 10.53125 C 3.566406 10.601562 3.636719 10.613281 3.726562 10.574219 C 3.796875 10.542969 3.867188 10.511719 3.941406 10.476562 C 4.199219 10.359375 4.296875 10.394531 4.425781 10.527344 C 4.613281 10.71875 4.601562 10.949219 4.410156 11.140625 C 4.3125 11.238281 4.167969 11.324219 3.984375 11.25 C 3.914062 11.222656 3.839844 11.140625 3.785156 11.085938 L 3.894531 10.976562 C 4.035156 11.132812 4.152344 11.199219 4.320312 11.03125 C 4.429688 10.921875 4.453125 10.785156 4.339844 10.667969 C 4.191406 10.511719 4.128906 10.574219 3.988281 10.632812 C 3.914062 10.667969 3.796875 10.726562 3.71875 10.75 C 3.578125 10.796875 3.476562 10.738281 3.378906 10.640625 C 3.21875 10.472656 3.226562 10.246094 3.390625 10.085938 C 3.570312 9.90625 3.773438 9.890625 3.949219 10.089844 Z M 3.835938 10.199219 "/>
<path style=" stroke:none;fill-rule:nonzero;fill:rgb(100%,100%,100%);fill-opacity:1;" d="M 4.394531 9.40625 L 4.390625 9.40625 L 4.675781 10.128906 L 4.976562 9.90625 Z M 4.246094 9.375 L 4.414062 9.25 L 5.550781 10.164062 L 5.410156 10.265625 L 5.085938 10 L 4.730469 10.265625 L 4.882812 10.65625 L 4.742188 10.757812 Z M 4.246094 9.375 "/>
<path style=" stroke:none;fill-rule:nonzero;fill:rgb(100%,100%,100%);fill-opacity:1;" d="M 5.699219 10.09375 L 5.011719 8.859375 L 5.144531 8.785156 L 5.832031 10.015625 Z M 5.699219 10.09375 "/>
<path style=" stroke:none;fill-rule:nonzero;fill:rgb(100%,100%,100%);fill-opacity:1;" d="M 6.1875 8.292969 L 6.328125 8.230469 L 6.863281 9.539062 L 6.632812 9.636719 L 5.84375 8.742188 C 5.796875 8.691406 5.757812 8.640625 5.714844 8.566406 L 5.710938 8.570312 C 5.738281 8.632812 5.769531 8.703125 5.796875 8.769531 L 6.222656 9.808594 L 6.082031 9.871094 L 5.542969 8.5625 L 5.777344 8.464844 L 6.578125 9.378906 C 6.613281 9.414062 6.640625 9.449219 6.683594 9.503906 L 6.6875 9.503906 C 6.664062 9.457031 6.644531 9.40625 6.625 9.359375 Z M 6.1875 8.292969 "/>
<path style=" stroke:none;fill-rule:nonzero;fill:rgb(100%,100%,100%);fill-opacity:1;" d="M 6.644531 8.125 L 7.496094 7.910156 L 7.527344 8.046875 L 7.179688 8.136719 L 7.480469 9.375 L 7.328125 9.410156 L 7.027344 8.171875 L 6.679688 8.261719 Z M 6.644531 8.125 "/>
<path style=" stroke:none;fill-rule:nonzero;fill:rgb(100%,100%,100%);fill-opacity:1;" d="M 7.734375 8.785156 L 7.710938 8.628906 L 8.160156 8.5625 L 8.179688 8.71875 Z M 7.734375 8.785156 "/>
<path style=" stroke:none;fill-rule:nonzero;fill:rgb(100%,100%,100%);fill-opacity:1;" d="M 8.4375 9.210938 L 8.390625 7.792969 L 9.089844 7.769531 L 9.09375 7.914062 L 8.550781 7.929688 L 8.566406 8.398438 L 9.074219 8.382812 L 9.078125 8.523438 L 8.570312 8.539062 L 8.585938 9.0625 L 9.132812 9.046875 L 9.136719 9.1875 Z M 8.4375 9.210938 "/>
<path style=" stroke:none;fill-rule:nonzero;fill:rgb(100%,100%,100%);fill-opacity:1;" d="M 9.382812 7.777344 L 10.253906 7.867188 L 10.242188 8.007812 L 9.882812 7.96875 L 9.753906 9.238281 L 9.601562 9.222656 L 9.726562 7.953125 L 9.371094 7.917969 Z M 9.382812 7.777344 "/>
<path style=" stroke:none;fill-rule:nonzero;fill:rgb(100%,100%,100%);fill-opacity:1;" d="M 10.28125 9.324219 L 10.570312 7.9375 L 10.71875 7.972656 L 10.429688 9.355469 Z M 10.28125 9.324219 "/>
<path style=" stroke:none;fill-rule:nonzero;fill:rgb(100%,100%,100%);fill-opacity:1;" d="M 10.710938 9.417969 L 11.140625 8.070312 L 11.804688 8.289062 L 11.761719 8.425781 L 11.246094 8.253906 L 11.101562 8.699219 L 11.585938 8.859375 L 11.542969 8.996094 L 11.058594 8.835938 L 10.898438 9.332031 L 11.417969 9.503906 L 11.375 9.640625 Z M 10.710938 9.417969 "/>
<path style=" stroke:none;fill-rule:nonzero;fill:rgb(100%,100%,100%);fill-opacity:1;" d="M 12.796875 8.757812 L 12.9375 8.828125 L 12.308594 10.09375 L 12.082031 9.980469 L 12.234375 8.789062 C 12.246094 8.71875 12.257812 8.65625 12.285156 8.574219 L 12.28125 8.570312 C 12.25 8.636719 12.21875 8.703125 12.1875 8.765625 L 11.6875 9.777344 L 11.550781 9.707031 L 12.175781 8.441406 L 12.402344 8.554688 L 12.242188 9.773438 C 12.238281 9.820312 12.230469 9.867188 12.21875 9.933594 C 12.242188 9.890625 12.261719 9.839844 12.289062 9.792969 Z M 12.796875 8.757812 "/>
<path style=" stroke:none;fill-rule:nonzero;fill:rgb(100%,100%,100%);fill-opacity:1;" d="M 13.890625 9.492188 L 14.015625 9.582031 L 13.191406 10.726562 L 12.988281 10.574219 L 13.332031 9.425781 C 13.351562 9.363281 13.375 9.300781 13.414062 9.222656 L 13.410156 9.222656 C 13.371094 9.28125 13.328125 9.339844 13.285156 9.398438 L 12.632812 10.308594 L 12.507812 10.21875 L 13.328125 9.074219 L 13.53125 9.226562 L 13.179688 10.398438 C 13.167969 10.445312 13.152344 10.488281 13.128906 10.550781 L 13.128906 10.554688 C 13.160156 10.511719 13.1875 10.46875 13.21875 10.425781 Z M 13.890625 9.492188 "/>
<path style=" stroke:none;fill-rule:nonzero;fill:rgb(100%,100%,100%);fill-opacity:1;" d="M 13.363281 10.886719 L 14.34375 9.878906 L 14.839844 10.375 L 14.742188 10.476562 L 14.355469 10.089844 L 14.03125 10.421875 L 14.394531 10.785156 L 14.296875 10.886719 L 13.933594 10.523438 L 13.570312 10.894531 L 13.960938 11.285156 L 13.863281 11.386719 Z M 13.363281 10.886719 "/>
<path style=" stroke:none;fill-rule:nonzero;fill:rgb(100%,100%,100%);fill-opacity:1;" d="M 6.636719 23.476562 L 7 22.105469 L 7.148438 22.148438 L 6.824219 23.378906 L 7.375 23.527344 L 7.335938 23.664062 Z M 6.636719 23.476562 "/>
<path style=" stroke:none;fill-rule:nonzero;fill:rgb(100%,100%,100%);fill-opacity:1;" d="M 8.21875 22.570312 C 7.980469 22.542969 7.894531 22.789062 7.859375 23.101562 C 7.816406 23.507812 7.832031 23.730469 8.085938 23.757812 C 8.339844 23.789062 8.40625 23.578125 8.453125 23.171875 C 8.492188 22.859375 8.460938 22.601562 8.21875 22.570312 M 8.242188 22.433594 C 8.644531 22.480469 8.652344 22.863281 8.613281 23.1875 C 8.566406 23.578125 8.472656 23.949219 8.070312 23.898438 C 7.664062 23.851562 7.660156 23.46875 7.703125 23.078125 C 7.738281 22.757812 7.828125 22.382812 8.242188 22.433594 "/>
<path style=" stroke:none;fill-rule:nonzero;fill:rgb(100%,100%,100%);fill-opacity:1;" d="M 8.914062 22.503906 L 9.066406 22.503906 L 9.066406 23.917969 L 8.914062 23.917969 Z M 8.914062 22.503906 "/>
<path style=" stroke:none;fill-rule:nonzero;fill:rgb(100%,100%,100%);fill-opacity:1;" d="M 9.570312 23.136719 L 9.8125 23.109375 C 9.882812 23.097656 10.082031 23.0625 10.050781 22.816406 C 10.019531 22.574219 9.832031 22.59375 9.726562 22.605469 L 9.511719 22.628906 Z M 9.65625 23.894531 L 9.503906 23.914062 L 9.34375 22.507812 L 9.699219 22.464844 C 9.988281 22.429688 10.183594 22.488281 10.210938 22.8125 C 10.222656 22.976562 10.136719 23.105469 9.980469 23.148438 L 9.980469 23.152344 C 10.160156 23.148438 10.210938 23.203125 10.253906 23.386719 C 10.273438 23.488281 10.292969 23.59375 10.320312 23.695312 C 10.328125 23.722656 10.347656 23.78125 10.382812 23.777344 L 10.386719 23.808594 L 10.210938 23.832031 C 10.164062 23.746094 10.132812 23.570312 10.121094 23.476562 C 10.105469 23.335938 10.035156 23.222656 9.855469 23.246094 L 9.585938 23.277344 Z M 9.65625 23.894531 "/>
<path style=" stroke:none;fill-rule:nonzero;fill:rgb(100%,100%,100%);fill-opacity:1;" d="M 10.722656 23.644531 L 10.363281 22.273438 L 11.035156 22.089844 L 11.074219 22.226562 L 10.546875 22.371094 L 10.667969 22.824219 L 11.160156 22.691406 L 11.195312 22.828125 L 10.703125 22.960938 L 10.835938 23.464844 L 11.367188 23.324219 L 11.402344 23.460938 Z M 10.722656 23.644531 "/>
<path style=" stroke:none;fill-rule:nonzero;fill:rgb(89.019608%,2.352941%,7.45098%);fill-opacity:1;" d="M 8.339844 3.507812 L 8.375 3.507812 C 8.375 3.507812 8.90625 1.863281 8.988281 1.609375 C 9.070312 1.863281 9.605469 3.507812 9.605469 3.507812 C 9.605469 3.507812 11.304688 3.511719 11.570312 3.515625 C 11.355469 3.671875 9.984375 4.695312 9.984375 4.695312 C 9.984375 4.695312 10.503906 6.339844 10.585938 6.597656 C 10.371094 6.441406 8.988281 5.425781 8.988281 5.425781 C 8.988281 5.425781 7.609375 6.441406 7.394531 6.597656 C 7.476562 6.339844 7.996094 4.695312 7.996094 4.695312 C 7.996094 4.695312 6.621094 3.671875 6.40625 3.515625 C 6.664062 3.515625 7.980469 3.507812 7.980469 3.507812 Z M 8.941406 1.429688 C 8.941406 1.429688 8.324219 3.335938 8.300781 3.40625 C 8.242188 3.40625 6.097656 3.414062 6.097656 3.414062 C 6.097656 3.414062 7.820312 4.691406 7.875 4.734375 C 7.855469 4.800781 7.203125 6.863281 7.203125 6.863281 C 7.203125 6.863281 8.933594 5.597656 8.988281 5.554688 C 9.046875 5.597656 10.777344 6.863281 10.777344 6.863281 C 10.777344 6.863281 10.125 4.800781 10.101562 4.734375 C 10.160156 4.691406 11.878906 3.414062 11.878906 3.414062 C 11.878906 3.414062 9.746094 3.40625 9.675781 3.40625 C 9.65625 3.335938 8.988281 1.277344 8.988281 1.277344 Z M 8.941406 1.429688 "/>
<g clip-path="url(#clip3)" clip-rule="nonzero">
<path style=" stroke:none;fill-rule:nonzero;fill:rgb(100%,100%,100%);fill-opacity:1;" d="M 10.777344 6.863281 C 10.304688 6.519531 8.988281 5.554688 8.988281 5.554688 C 8.988281 5.554688 7.675781 6.519531 7.203125 6.863281 C 7.378906 6.300781 7.875 4.734375 7.875 4.734375 C 7.875 4.734375 6.566406 3.761719 6.097656 3.414062 C 6.679688 3.410156 8.203125 3.40625 8.203125 3.40625 L 8.300781 3.40625 C 8.300781 3.40625 8.96875 1.335938 8.988281 1.277344 C 9.171875 1.839844 9.675781 3.40625 9.675781 3.40625 C 9.675781 3.40625 11.300781 3.410156 11.878906 3.414062 C 11.410156 3.761719 10.101562 4.734375 10.101562 4.734375 C 10.101562 4.734375 10.597656 6.300781 10.777344 6.863281 M 12.5625 3.1875 C 12.285156 3.1875 9.839844 3.179688 9.839844 3.179688 C 9.839844 3.179688 9.074219 0.816406 8.988281 0.550781 C 8.949219 0.667969 8.90625 0.804688 8.90625 0.804688 L 8.140625 3.179688 C 8.140625 3.179688 5.695312 3.1875 5.417969 3.1875 C 5.640625 3.355469 7.613281 4.820312 7.613281 4.820312 C 7.613281 4.820312 6.867188 7.183594 6.78125 7.453125 C 7.007812 7.289062 8.988281 5.835938 8.988281 5.835938 C 8.988281 5.835938 10.972656 7.289062 11.195312 7.453125 C 11.113281 7.183594 10.363281 4.820312 10.363281 4.820312 C 10.363281 4.820312 12.335938 3.351562 12.5625 3.1875 "/>
<path style=" stroke:none;fill-rule:nonzero;fill:rgb(0%,44.705882%,73.333333%);fill-opacity:1;" d="M 8.988281 0.550781 C 9.074219 0.816406 9.839844 3.179688 9.839844 3.179688 C 9.839844 3.179688 12.285156 3.1875 12.558594 3.1875 C 12.335938 3.351562 10.363281 4.820312 10.363281 4.820312 C 10.363281 4.820312 11.113281 7.183594 11.195312 7.453125 C 10.972656 7.289062 8.988281 5.835938 8.988281 5.835938 C 8.988281 5.835938 7.007812 7.289062 6.78125 7.453125 C 6.867188 7.183594 7.613281 4.820312 7.613281 4.820312 C 7.613281 4.820312 5.640625 3.351562 5.417969 3.1875 C 5.695312 3.1875 8.140625 3.179688 8.140625 3.179688 L 8.90625 0.804688 C 8.90625 0.804688 8.949219 0.667969 8.988281 0.550781 M 8.941406 0.371094 C 8.941406 0.371094 8.144531 2.835938 8.066406 3.074219 C 7.996094 3.074219 5.109375 3.085938 5.109375 3.085938 C 5.109375 3.085938 7.4375 4.816406 7.496094 4.859375 C 7.472656 4.929688 6.589844 7.71875 6.589844 7.71875 C 6.589844 7.71875 8.929688 6.003906 8.988281 5.960938 C 9.046875 6.003906 11.386719 7.71875 11.386719 7.71875 C 11.386719 7.71875 10.503906 4.929688 10.484375 4.859375 C 10.542969 4.816406 12.871094 3.085938 12.871094 3.085938 C 12.871094 3.085938 9.984375 3.074219 9.914062 3.074219 C 9.890625 3.007812 8.988281 0.222656 8.988281 0.222656 Z M 8.941406 0.371094 "/>
</g>
<path style=" stroke:none;fill-rule:nonzero;fill:rgb(0%,27.058824%,12.941176%);fill-opacity:1;" d="M 11.597656 16.785156 L 11.550781 16.742188 L 11.597656 14.898438 L 12.480469 14.851562 L 12.527344 14.808594 L 12.527344 15.085938 L 11.800781 15.085938 L 11.800781 15.710938 L 12.4375 15.667969 L 12.480469 15.621094 L 12.480469 15.902344 L 11.800781 15.902344 L 11.800781 16.597656 L 12.488281 16.554688 L 12.53125 16.507812 L 12.53125 16.785156 Z M 10.992188 16.785156 L 10.945312 16.742188 L 10.992188 16.535156 L 11.171875 16.488281 L 11.21875 16.535156 L 11.21875 16.785156 Z M 10.40625 15.394531 L 10.359375 15.347656 C 10.367188 15.164062 10.308594 15.050781 10.109375 15.050781 C 9.808594 15.050781 9.777344 15.242188 9.777344 15.386719 C 9.777344 15.519531 9.835938 15.597656 9.953125 15.644531 C 10.054688 15.683594 10.148438 15.71875 10.25 15.757812 C 10.601562 15.890625 10.664062 16.015625 10.664062 16.265625 C 10.664062 16.625 10.445312 16.832031 10.085938 16.832031 C 9.90625 16.832031 9.6875 16.78125 9.582031 16.53125 C 9.539062 16.441406 9.542969 16.289062 9.539062 16.1875 L 9.703125 16.140625 L 9.746094 16.1875 C 9.734375 16.46875 9.789062 16.644531 10.097656 16.644531 C 10.304688 16.644531 10.453125 16.535156 10.453125 16.3125 C 10.453125 16.027344 10.339844 16.023438 10.148438 15.953125 C 10.046875 15.910156 9.886719 15.859375 9.785156 15.804688 C 9.609375 15.714844 9.566406 15.5625 9.566406 15.378906 C 9.566406 15.066406 9.78125 14.859375 10.082031 14.859375 C 10.421875 14.859375 10.628906 15.039062 10.609375 15.394531 Z M 8.992188 16.785156 L 8.945312 16.742188 L 8.992188 16.535156 L 9.171875 16.488281 L 9.21875 16.535156 L 9.21875 16.785156 Z M 8.40625 15.394531 L 8.359375 15.347656 C 8.363281 15.167969 8.304688 15.050781 8.109375 15.050781 C 7.8125 15.050781 7.777344 15.242188 7.777344 15.386719 C 7.777344 15.519531 7.835938 15.597656 7.953125 15.644531 C 8.054688 15.683594 8.148438 15.71875 8.25 15.757812 C 8.601562 15.890625 8.664062 16.015625 8.664062 16.265625 C 8.664062 16.625 8.445312 16.832031 8.089844 16.832031 C 7.90625 16.832031 7.6875 16.78125 7.582031 16.53125 C 7.539062 16.441406 7.542969 16.289062 7.539062 16.1875 L 7.703125 16.140625 L 7.746094 16.1875 C 7.734375 16.46875 7.789062 16.644531 8.097656 16.644531 C 8.304688 16.644531 8.453125 16.535156 8.453125 16.3125 C 8.453125 16.027344 8.339844 16.023438 8.148438 15.953125 C 8.050781 15.910156 7.886719 15.859375 7.785156 15.804688 C 7.609375 15.714844 7.566406 15.5625 7.566406 15.378906 C 7.566406 15.066406 7.78125 14.859375 8.082031 14.859375 C 8.421875 14.859375 8.632812 15.039062 8.613281 15.394531 Z M 6.992188 16.785156 L 6.945312 16.742188 L 6.992188 16.535156 L 7.171875 16.488281 L 7.21875 16.535156 L 7.21875 16.785156 Z M 6.105469 15.050781 L 6.101562 15.050781 L 5.855469 16.054688 L 6.347656 16.054688 Z M 5.398438 16.742188 L 5.972656 14.898438 L 6.199219 14.851562 L 6.21875 14.808594 L 6.769531 16.785156 L 6.539062 16.785156 L 6.496094 16.742188 L 6.394531 16.242188 L 5.804688 16.242188 L 5.667969 16.785156 L 5.441406 16.785156 Z M 5.398438 16.742188 "/>
<path style=" stroke:none;fill-rule:nonzero;fill:rgb(0%,41.568627%,19.607843%);fill-opacity:1;" d="M 11.550781 16.742188 L 11.507812 16.695312 L 11.507812 14.808594 L 12.527344 14.808594 L 12.480469 14.851562 L 12.4375 14.996094 L 11.710938 14.996094 L 11.710938 15.730469 L 11.796875 15.621094 L 12.480469 15.621094 L 12.4375 15.667969 L 12.390625 15.808594 L 11.710938 15.808594 L 11.710938 16.605469 L 11.804688 16.507812 L 12.53125 16.507812 L 12.488281 16.550781 L 12.441406 16.695312 Z M 10.945312 16.742188 L 10.902344 16.695312 L 10.902344 16.445312 L 11.128906 16.445312 L 11.171875 16.488281 L 11.128906 16.695312 Z M 10.359375 15.347656 L 10.316406 15.304688 C 10.324219 15.210938 10.304688 15.128906 10.257812 15.070312 C 10.210938 15 10.128906 14.960938 10.019531 14.960938 C 9.722656 14.960938 9.6875 15.148438 9.6875 15.296875 C 9.6875 15.425781 9.746094 15.507812 9.863281 15.554688 C 9.964844 15.589844 10.058594 15.628906 10.160156 15.667969 C 10.511719 15.800781 10.574219 15.925781 10.574219 16.175781 C 10.574219 16.53125 10.355469 16.742188 10 16.742188 C 9.816406 16.742188 9.597656 16.6875 9.492188 16.441406 C 9.449219 16.347656 9.453125 16.199219 9.449219 16.097656 L 9.65625 16.097656 L 9.699219 16.140625 C 9.695312 16.402344 9.710938 16.550781 10.007812 16.550781 C 10.214844 16.550781 10.363281 16.445312 10.363281 16.222656 C 10.363281 15.9375 10.25 15.933594 10.058594 15.859375 C 9.957031 15.820312 9.796875 15.765625 9.695312 15.714844 C 9.519531 15.625 9.476562 15.472656 9.476562 15.285156 C 9.476562 14.972656 9.691406 14.769531 9.992188 14.769531 C 10.332031 14.769531 10.542969 14.949219 10.519531 15.304688 Z M 8.945312 16.742188 L 8.902344 16.695312 L 8.902344 16.445312 L 9.128906 16.445312 L 9.171875 16.488281 L 9.128906 16.695312 Z M 8.359375 15.347656 L 8.316406 15.304688 C 8.332031 15.105469 8.226562 14.960938 8.019531 14.960938 C 7.722656 14.960938 7.6875 15.148438 7.6875 15.296875 C 7.6875 15.425781 7.746094 15.507812 7.863281 15.554688 C 7.964844 15.589844 8.058594 15.628906 8.160156 15.667969 C 8.511719 15.800781 8.574219 15.925781 8.574219 16.175781 C 8.574219 16.53125 8.355469 16.742188 8 16.742188 C 7.816406 16.742188 7.597656 16.6875 7.492188 16.441406 C 7.449219 16.347656 7.453125 16.199219 7.449219 16.097656 L 7.65625 16.097656 L 7.703125 16.140625 C 7.699219 16.398438 7.710938 16.550781 8.007812 16.550781 C 8.214844 16.550781 8.363281 16.445312 8.363281 16.222656 C 8.363281 15.9375 8.25 15.933594 8.058594 15.859375 C 7.960938 15.820312 7.796875 15.765625 7.695312 15.714844 C 7.519531 15.625 7.476562 15.472656 7.476562 15.285156 C 7.476562 14.972656 7.691406 14.769531 7.992188 14.769531 C 8.332031 14.769531 8.542969 14.949219 8.523438 15.304688 Z M 6.949219 16.742188 L 6.902344 16.695312 L 6.902344 16.445312 L 7.128906 16.445312 L 7.171875 16.488281 L 7.128906 16.695312 Z M 6.070312 15.183594 L 6.0625 14.960938 L 6.011719 14.960938 L 5.765625 16.054688 L 5.882812 15.964844 L 6.257812 15.964844 Z M 5.882812 14.808594 L 6.21875 14.808594 L 6.199219 14.851562 L 6.679688 16.695312 L 6.496094 16.742188 L 6.449219 16.695312 L 6.328125 16.242188 L 6.363281 16.152344 L 5.714844 16.152344 L 5.582031 16.695312 L 5.398438 16.742188 L 5.351562 16.695312 Z M 5.882812 14.808594 "/>
</g>
</svg>
