<?xml version="1.0" encoding="UTF-8"?>
<svg xmlns="http://www.w3.org/2000/svg" xmlns:xlink="http://www.w3.org/1999/xlink" width="21pt" height="25pt" viewBox="0 0 21 25" version="1.1">
<g id="surface1">
<path style=" stroke:none;fill-rule:nonzero;fill:rgb(77.254902%,0%,29.019608%);fill-opacity:1;" d="M 2.886719 14.992188 C 3.65625 16.761719 4.671875 18.398438 5.90625 19.863281 C 7.179688 21.378906 8.730469 22.75 10.507812 23.949219 C 12.289062 22.75 13.835938 21.378906 15.113281 19.863281 C 16.34375 18.398438 17.359375 16.761719 18.132812 14.992188 C 19.113281 12.746094 19.726562 10.277344 19.984375 7.507812 L 1.03125 7.507812 C 1.292969 10.277344 1.90625 12.746094 2.886719 14.992188 Z M 2.886719 14.992188 "/>
<path style=" stroke:none;fill-rule:nonzero;fill:rgb(0%,29.411765%,48.235294%);fill-opacity:1;" d="M 14.136719 1.355469 C 13.292969 1.144531 11.976562 0.890625 10.511719 0.890625 C 10.511719 0.890625 10.503906 0.890625 10.503906 0.890625 C 9.039062 0.890625 7.726562 1.144531 6.878906 1.355469 C 4.570312 1.9375 2.558594 2.988281 0.886719 4.476562 C 0.890625 5.527344 0.941406 6.535156 1.03125 7.507812 L 19.984375 7.507812 C 20.078125 6.535156 20.125 5.527344 20.128906 4.476562 C 18.460938 2.988281 16.445312 1.9375 14.136719 1.355469 Z M 14.136719 1.355469 "/>
<path style=" stroke:none;fill-rule:nonzero;fill:rgb(77.254902%,0%,29.019608%);fill-opacity:1;" d="M 0.886719 4.476562 C 2.558594 2.988281 4.570312 1.9375 6.878906 1.355469 C 7.726562 1.144531 9.039062 0.890625 10.503906 0.890625 C 10.503906 0.890625 10.511719 0.890625 10.511719 0.890625 C 11.976562 0.890625 13.292969 1.144531 14.136719 1.355469 C 16.445312 1.9375 18.460938 2.988281 20.128906 4.476562 C 20.125 5.527344 20.078125 6.535156 19.984375 7.507812 L 20.875 7.507812 C 20.96875 6.472656 21.019531 5.398438 21.019531 4.28125 L 21.019531 4.085938 L 20.875 3.953125 C 19.066406 2.289062 16.871094 1.125 14.351562 0.492188 C 13.457031 0.269531 12.066406 0 10.511719 0 L 10.503906 0 C 8.949219 0 7.558594 0.269531 6.664062 0.492188 C 4.144531 1.125 1.953125 2.289062 0.144531 3.953125 L 0 4.085938 L 0 4.28125 C 0 5.398438 0.046875 6.472656 0.140625 7.507812 L 1.03125 7.507812 C 0.941406 6.535156 0.890625 5.527344 0.886719 4.476562 Z M 0.886719 4.476562 "/>
<path style=" stroke:none;fill-rule:nonzero;fill:rgb(100%,100%,100%);fill-opacity:1;" d="M 3.234375 5.433594 C 2.945312 5.628906 2.589844 5.445312 2.398438 5.195312 C 2.195312 4.929688 2.1875 4.542969 2.488281 4.339844 C 2.535156 4.304688 2.585938 4.28125 2.644531 4.261719 C 2.558594 4.136719 2.519531 4.074219 2.433594 3.949219 C 2.355469 3.972656 2.28125 4.007812 2.214844 4.054688 C 1.738281 4.386719 1.671875 5.046875 2.027344 5.492188 C 2.359375 5.902344 2.96875 6.097656 3.429688 5.773438 C 3.484375 5.738281 3.527344 5.691406 3.5625 5.636719 C 3.480469 5.511719 3.4375 5.445312 3.351562 5.316406 C 3.316406 5.359375 3.277344 5.402344 3.234375 5.433594 Z M 3.234375 5.433594 "/>
<path style=" stroke:none;fill-rule:nonzero;fill:rgb(100%,100%,100%);fill-opacity:1;" d="M 3.890625 4.992188 C 3.601562 4.511719 3.3125 4.035156 3.027344 3.554688 C 2.863281 3.652344 2.785156 3.703125 2.628906 3.804688 C 3 4.382812 3.371094 4.957031 3.742188 5.535156 C 4.023438 5.355469 4.164062 5.269531 4.449219 5.109375 C 4.375 4.972656 4.335938 4.90625 4.261719 4.773438 C 4.113281 4.859375 4.039062 4.902344 3.890625 4.992188 Z M 3.890625 4.992188 "/>
<path style=" stroke:none;fill-rule:nonzero;fill:rgb(100%,100%,100%);fill-opacity:1;" d="M 4.792969 4.492188 C 4.710938 4.324219 4.667969 4.242188 4.585938 4.074219 C 4.722656 4.007812 4.789062 3.972656 4.929688 3.910156 C 4.863281 3.769531 4.832031 3.703125 4.765625 3.5625 C 4.625 3.628906 4.554688 3.664062 4.417969 3.734375 C 4.335938 3.570312 4.296875 3.492188 4.21875 3.332031 C 4.378906 3.25 4.464844 3.210938 4.628906 3.132812 C 4.566406 2.992188 4.535156 2.925781 4.46875 2.785156 C 4.132812 2.941406 3.964844 3.023438 3.632812 3.203125 C 3.960938 3.808594 4.285156 4.414062 4.609375 5.019531 C 4.894531 4.863281 5.039062 4.792969 5.332031 4.65625 C 5.269531 4.515625 5.234375 4.449219 5.171875 4.308594 C 5.019531 4.378906 4.945312 4.414062 4.792969 4.492188 Z M 4.792969 4.492188 "/>
<path style=" stroke:none;fill-rule:nonzero;fill:rgb(100%,100%,100%);fill-opacity:1;" d="M 6.109375 2.765625 C 5.972656 2.320312 5.503906 2.339844 5.15625 2.488281 C 4.984375 2.558594 4.898438 2.59375 4.730469 2.667969 C 5.003906 3.296875 5.277344 3.929688 5.550781 4.558594 C 5.695312 4.496094 5.769531 4.464844 5.914062 4.40625 C 5.773438 4.050781 5.703125 3.875 5.5625 3.519531 C 5.566406 3.519531 5.566406 3.519531 5.570312 3.519531 C 5.800781 3.765625 6.027344 4.019531 6.246094 4.277344 C 6.402344 4.222656 6.480469 4.195312 6.636719 4.140625 C 6.429688 3.878906 6.214844 3.621094 5.992188 3.371094 C 6.152344 3.195312 6.175781 2.976562 6.109375 2.765625 Z M 5.550781 3.289062 C 5.523438 3.296875 5.511719 3.300781 5.480469 3.3125 C 5.402344 3.109375 5.359375 3.007812 5.277344 2.800781 C 5.300781 2.792969 5.3125 2.789062 5.335938 2.78125 C 5.542969 2.6875 5.65625 2.773438 5.707031 2.910156 C 5.765625 3.070312 5.734375 3.214844 5.550781 3.289062 Z M 5.550781 3.289062 "/>
<path style=" stroke:none;fill-rule:nonzero;fill:rgb(100%,100%,100%);fill-opacity:1;" d="M 7.347656 1.808594 C 7.375 2.214844 7.410156 2.625 7.449219 3.03125 C 7.445312 3.03125 7.445312 3.03125 7.445312 3.035156 C 7.285156 2.65625 7.117188 2.277344 6.945312 1.902344 C 6.710938 1.964844 6.597656 1.996094 6.367188 2.066406 C 6.5 2.742188 6.640625 3.417969 6.789062 4.089844 C 6.949219 4.039062 7.03125 4.015625 7.195312 3.972656 C 7.082031 3.488281 6.96875 3.007812 6.859375 2.523438 C 6.863281 2.523438 6.863281 2.523438 6.867188 2.523438 C 6.867188 2.535156 6.871094 2.542969 6.875 2.558594 C 6.953125 2.726562 6.988281 2.8125 7.0625 2.984375 C 7.214844 3.28125 7.363281 3.585938 7.503906 3.890625 C 7.621094 3.859375 7.679688 3.84375 7.796875 3.820312 C 7.78125 3.488281 7.769531 3.15625 7.761719 2.828125 C 7.746094 2.621094 7.738281 2.519531 7.722656 2.316406 C 7.726562 2.3125 7.726562 2.3125 7.730469 2.3125 C 7.863281 2.792969 7.992188 3.269531 8.121094 3.75 C 8.277344 3.71875 8.359375 3.703125 8.515625 3.675781 C 8.335938 3.011719 8.144531 2.347656 7.945312 1.683594 C 7.703125 1.730469 7.585938 1.753906 7.347656 1.808594 Z M 7.347656 1.808594 "/>
<path style=" stroke:none;fill-rule:nonzero;fill:rgb(100%,100%,100%);fill-opacity:1;" d="M 9.128906 1.484375 C 8.554688 1.542969 8.410156 2.160156 8.488281 2.636719 C 8.554688 3.070312 8.816406 3.652344 9.335938 3.601562 C 9.851562 3.550781 9.996094 2.929688 9.980469 2.492188 C 9.960938 2.007812 9.699219 1.429688 9.128906 1.484375 Z M 9.296875 3.226562 C 9.03125 3.253906 8.953125 2.738281 8.933594 2.578125 C 8.910156 2.394531 8.871094 1.890625 9.164062 1.859375 C 9.457031 1.832031 9.515625 2.335938 9.53125 2.519531 C 9.542969 2.679688 9.5625 3.199219 9.296875 3.226562 Z M 9.296875 3.226562 "/>
<path style=" stroke:none;fill-rule:nonzero;fill:rgb(100%,100%,100%);fill-opacity:1;" d="M 11.109375 2.386719 C 11.105469 2.492188 11.109375 2.597656 11.128906 2.699219 C 11.128906 2.703125 11.125 2.703125 11.125 2.703125 C 10.96875 2.277344 10.796875 1.859375 10.609375 1.449219 C 10.4375 1.445312 10.347656 1.449219 10.175781 1.453125 C 10.195312 2.140625 10.210938 2.828125 10.230469 3.515625 C 10.382812 3.511719 10.460938 3.507812 10.617188 3.511719 C 10.621094 3.132812 10.621094 2.941406 10.625 2.5625 C 10.621094 2.53125 10.621094 2.511719 10.621094 2.480469 C 10.613281 2.394531 10.609375 2.355469 10.601562 2.269531 C 10.605469 2.269531 10.605469 2.269531 10.609375 2.265625 C 10.78125 2.679688 10.941406 3.097656 11.085938 3.519531 C 11.230469 3.527344 11.304688 3.53125 11.453125 3.542969 C 11.5 2.855469 11.550781 2.171875 11.597656 1.484375 C 11.417969 1.472656 11.328125 1.46875 11.144531 1.460938 C 11.132812 1.832031 11.125 2.015625 11.109375 2.386719 Z M 11.109375 2.386719 "/>
<path style=" stroke:none;fill-rule:nonzero;fill:rgb(100%,100%,100%);fill-opacity:1;" d="M 11.769531 1.882812 C 11.910156 1.894531 11.976562 1.902344 12.117188 1.917969 C 12.054688 2.472656 11.992188 3.027344 11.933594 3.585938 C 12.085938 3.601562 12.164062 3.613281 12.320312 3.632812 C 12.398438 3.082031 12.476562 2.527344 12.554688 1.972656 C 12.695312 1.992188 12.761719 2.003906 12.902344 2.027344 C 12.925781 1.875 12.9375 1.800781 12.964844 1.648438 C 12.578125 1.589844 12.191406 1.539062 11.804688 1.5 C 11.789062 1.652344 11.78125 1.730469 11.769531 1.882812 Z M 11.769531 1.882812 "/>
<path style=" stroke:none;fill-rule:nonzero;fill:rgb(100%,100%,100%);fill-opacity:1;" d="M 14.246094 2.320312 C 14.421875 2.367188 14.507812 2.390625 14.683594 2.445312 C 14.730469 2.300781 14.75 2.226562 14.796875 2.078125 C 14.441406 1.972656 14.261719 1.921875 13.902344 1.835938 C 13.746094 2.507812 13.589844 3.175781 13.433594 3.84375 C 13.585938 3.882812 13.660156 3.898438 13.8125 3.941406 C 13.902344 3.609375 13.945312 3.445312 14.035156 3.113281 C 14.183594 3.15625 14.257812 3.175781 14.40625 3.21875 C 14.449219 3.074219 14.472656 3 14.515625 2.855469 C 14.363281 2.808594 14.285156 2.785156 14.132812 2.746094 C 14.179688 2.574219 14.203125 2.488281 14.246094 2.320312 Z M 14.246094 2.320312 "/>
<path style=" stroke:none;fill-rule:nonzero;fill:rgb(100%,100%,100%);fill-opacity:1;" d="M 15.773438 2.382812 C 15.234375 2.171875 14.824219 2.65625 14.675781 3.121094 C 14.542969 3.542969 14.527344 4.179688 15.015625 4.367188 C 15.503906 4.554688 15.917969 4.074219 16.101562 3.667969 C 16.304688 3.222656 16.3125 2.589844 15.773438 2.382812 Z M 15.679688 3.488281 C 15.617188 3.640625 15.402344 4.113281 15.152344 4.015625 C 14.898438 3.917969 15.054688 3.421875 15.109375 3.269531 C 15.171875 3.097656 15.359375 2.625 15.636719 2.734375 C 15.917969 2.839844 15.746094 3.316406 15.679688 3.488281 Z M 15.679688 3.488281 "/>
<path style=" stroke:none;fill-rule:nonzero;fill:rgb(100%,100%,100%);fill-opacity:1;" d="M 17.425781 3.136719 C 16.914062 2.863281 16.441406 3.28125 16.238281 3.730469 C 16.050781 4.140625 15.964844 4.765625 16.429688 5.015625 C 16.894531 5.265625 17.367188 4.84375 17.601562 4.460938 C 17.859375 4.039062 17.9375 3.410156 17.425781 3.136719 Z M 17.199219 4.226562 C 17.117188 4.367188 16.847656 4.8125 16.605469 4.683594 C 16.363281 4.550781 16.578125 4.078125 16.652344 3.933594 C 16.734375 3.769531 16.980469 3.328125 17.246094 3.46875 C 17.515625 3.613281 17.289062 4.066406 17.199219 4.226562 Z M 17.199219 4.226562 "/>
<path style=" stroke:none;fill-rule:nonzero;fill:rgb(100%,100%,100%);fill-opacity:1;" d="M 18.246094 3.648438 C 18.164062 3.78125 18.125 3.84375 18.042969 3.976562 C 18.164062 4.050781 18.226562 4.089844 18.347656 4.171875 C 18.042969 4.636719 17.738281 5.105469 17.429688 5.574219 C 17.566406 5.664062 17.632812 5.710938 17.769531 5.804688 C 18.089844 5.347656 18.410156 4.890625 18.730469 4.433594 C 18.851562 4.515625 18.910156 4.5625 19.027344 4.648438 C 19.121094 4.527344 19.164062 4.464844 19.257812 4.34375 C 18.929688 4.097656 18.589844 3.867188 18.246094 3.648438 Z M 18.246094 3.648438 "/>
<path style=" stroke:none;fill-rule:nonzero;fill:rgb(100%,100%,100%);fill-opacity:1;" d="M 5.679688 4.859375 L 5.21875 7.050781 L 5.609375 7.050781 L 5.679688 6.679688 L 6.074219 6.679688 L 6.148438 7.050781 L 6.5625 7.050781 L 6.089844 4.859375 Z M 5.742188 6.335938 L 5.824219 5.753906 L 5.867188 5.421875 L 5.871094 5.421875 L 5.917969 5.753906 L 6.015625 6.335938 Z M 5.742188 6.335938 "/>
<path style=" stroke:none;fill-rule:nonzero;fill:rgb(100%,100%,100%);fill-opacity:1;" d="M 7.488281 6.371094 C 7.484375 6.53125 7.484375 6.691406 7.292969 6.691406 C 7.082031 6.691406 7.097656 6.441406 7.097656 6.277344 L 7.097656 4.859375 L 6.710938 4.859375 L 6.710938 6.484375 C 6.710938 6.894531 6.925781 7.085938 7.289062 7.085938 C 7.851562 7.085938 7.878906 6.691406 7.878906 6.457031 L 7.878906 4.859375 L 7.488281 4.859375 Z M 7.488281 6.371094 "/>
<path style=" stroke:none;fill-rule:nonzero;fill:rgb(100%,100%,100%);fill-opacity:1;" d="M 8.816406 5.90625 C 8.785156 6.03125 8.777344 6.15625 8.757812 6.285156 L 8.75 6.285156 C 8.726562 6.160156 8.714844 6.035156 8.679688 5.910156 L 8.445312 4.859375 L 8.027344 4.859375 L 8.597656 7.050781 L 8.914062 7.050781 L 9.460938 4.859375 L 9.054688 4.859375 Z M 8.816406 5.90625 "/>
<path style=" stroke:none;fill-rule:nonzero;fill:rgb(100%,100%,100%);fill-opacity:1;" d="M 10.011719 6.148438 L 10.359375 6.148438 L 10.359375 5.742188 L 10.011719 5.742188 L 10.011719 5.265625 L 10.40625 5.265625 L 10.40625 4.859375 L 9.621094 4.859375 L 9.621094 7.050781 L 10.414062 7.050781 L 10.414062 6.644531 L 10.011719 6.644531 Z M 10.011719 6.148438 "/>
<path style=" stroke:none;fill-rule:nonzero;fill:rgb(100%,100%,100%);fill-opacity:1;" d="M 11.734375 5.488281 C 11.734375 4.886719 11.289062 4.859375 11.039062 4.859375 L 10.648438 4.859375 L 10.648438 7.050781 L 11.039062 7.050781 L 11.039062 6.039062 L 11.042969 6.039062 L 11.386719 7.050781 L 11.796875 7.050781 L 11.453125 6.054688 C 11.648438 5.933594 11.734375 5.726562 11.734375 5.488281 Z M 11.105469 5.804688 L 11.039062 5.800781 L 11.039062 5.214844 L 11.089844 5.214844 C 11.285156 5.203125 11.355469 5.332031 11.355469 5.488281 C 11.355469 5.667969 11.285156 5.804688 11.105469 5.804688 Z M 11.105469 5.804688 "/>
<path style=" stroke:none;fill-rule:nonzero;fill:rgb(100%,100%,100%);fill-opacity:1;" d="M 12.664062 6.234375 L 12.910156 6.234375 C 12.910156 6.386719 12.878906 6.683594 12.679688 6.683594 C 12.394531 6.683594 12.378906 6.179688 12.378906 5.953125 C 12.378906 5.75 12.40625 5.207031 12.671875 5.226562 C 12.820312 5.226562 12.851562 5.398438 12.867188 5.507812 L 13.25 5.34375 C 13.164062 5.035156 12.96875 4.824219 12.667969 4.824219 C 12.109375 4.824219 11.964844 5.460938 11.964844 5.964844 C 11.964844 6.449219 12.136719 7.085938 12.667969 7.085938 C 13.199219 7.085938 13.300781 6.464844 13.300781 6 L 13.300781 5.828125 L 12.664062 5.828125 Z M 12.664062 6.234375 "/>
<path style=" stroke:none;fill-rule:nonzero;fill:rgb(100%,100%,100%);fill-opacity:1;" d="M 14.34375 5.84375 C 14.34375 5.957031 14.351562 6.070312 14.375 6.175781 L 14.367188 6.179688 L 13.882812 4.859375 L 13.507812 4.859375 L 13.507812 7.050781 L 13.898438 7.050781 L 13.898438 6.042969 L 13.894531 5.953125 L 13.875 5.734375 L 13.882812 5.726562 L 14.363281 7.050781 L 14.734375 7.050781 L 14.734375 4.859375 L 14.34375 4.859375 Z M 14.34375 5.84375 "/>
<path style=" stroke:none;fill-rule:nonzero;fill:rgb(100%,100%,100%);fill-opacity:1;" d="M 15.398438 6.644531 L 15.398438 6.148438 L 15.746094 6.148438 L 15.746094 5.742188 L 15.398438 5.742188 L 15.398438 5.265625 L 15.792969 5.265625 L 15.792969 4.859375 L 15.007812 4.859375 L 15.007812 7.050781 L 15.796875 7.050781 L 15.796875 6.644531 Z M 15.398438 6.644531 "/>
<path style=" stroke:none;fill-rule:nonzero;fill:rgb(100%,100%,100%);fill-opacity:1;" d="M 13.363281 21.691406 L 13.136719 21.300781 L 13.945312 19.898438 L 14.128906 19.898438 C 13.980469 19.515625 13.777344 19.164062 13.527344 18.851562 L 13.433594 19.011719 L 11.824219 19.011719 L 11.019531 17.609375 L 11.109375 17.449219 C 10.914062 17.417969 10.714844 17.402344 10.507812 17.402344 C 10.304688 17.402344 10.101562 17.417969 9.90625 17.449219 L 10 17.609375 L 9.195312 19.011719 L 7.582031 19.011719 L 7.492188 18.851562 C 7.238281 19.164062 7.035156 19.515625 6.890625 19.898438 L 7.074219 19.898438 L 7.878906 21.300781 L 7.652344 21.691406 C 8.523438 22.5 9.476562 23.253906 10.507812 23.949219 C 11.539062 23.253906 12.496094 22.5 13.363281 21.691406 Z M 13.363281 21.691406 "/>
<path style=" stroke:none;fill-rule:nonzero;fill:rgb(0%,29.411765%,48.235294%);fill-opacity:1;" d="M 19.984375 7.507812 C 19.726562 10.277344 19.113281 12.746094 18.132812 14.992188 C 17.359375 16.761719 16.34375 18.398438 15.113281 19.863281 C 14.867188 20.152344 14.609375 20.441406 14.34375 20.722656 C 14.300781 20.4375 14.230469 20.160156 14.128906 19.898438 L 13.945312 19.898438 L 13.136719 21.300781 L 13.363281 21.691406 C 12.496094 22.5 11.539062 23.253906 10.507812 23.949219 C 9.476562 23.253906 8.523438 22.5 7.652344 21.691406 L 7.878906 21.300781 L 7.074219 19.898438 L 6.890625 19.898438 C 6.789062 20.160156 6.714844 20.4375 6.671875 20.722656 C 6.40625 20.441406 6.152344 20.152344 5.90625 19.863281 C 4.671875 18.398438 3.65625 16.761719 2.886719 14.992188 C 1.90625 12.746094 1.292969 10.277344 1.03125 7.507812 L 0.140625 7.507812 C 0.40625 10.40625 1.046875 12.992188 2.074219 15.351562 C 2.882812 17.195312 3.941406 18.90625 5.230469 20.4375 C 6.617188 22.085938 8.3125 23.574219 10.265625 24.859375 L 10.507812 25.019531 L 10.75 24.859375 C 12.703125 23.574219 14.398438 22.085938 15.789062 20.4375 C 17.074219 18.90625 18.136719 17.195312 18.941406 15.351562 C 19.972656 12.992188 20.609375 10.40625 20.875 7.507812 Z M 19.984375 7.507812 "/>
<path style=" stroke:none;fill-rule:nonzero;fill:rgb(0%,29.411765%,48.235294%);fill-opacity:1;" d="M 9.542969 19.617188 L 8.574219 21.300781 L 9.542969 22.984375 L 11.476562 22.984375 L 12.445312 21.300781 L 11.476562 19.617188 Z M 9.542969 19.617188 "/>
<path style=" stroke:none;fill-rule:nonzero;fill:rgb(0%,29.411765%,48.235294%);fill-opacity:1;" d="M 13.433594 19.011719 L 13.527344 18.851562 C 12.933594 18.117188 12.082031 17.601562 11.109375 17.449219 L 11.019531 17.609375 L 11.824219 19.011719 Z M 13.433594 19.011719 "/>
<path style=" stroke:none;fill-rule:nonzero;fill:rgb(0%,29.411765%,48.235294%);fill-opacity:1;" d="M 9.195312 19.011719 L 10 17.609375 L 9.90625 17.449219 C 8.933594 17.601562 8.082031 18.117188 7.492188 18.851562 L 7.582031 19.011719 Z M 9.195312 19.011719 "/>
<path style=" stroke:none;fill-rule:nonzero;fill:rgb(100%,100%,100%);fill-opacity:1;" d="M 15.359375 14.25 C 15.335938 14.222656 15.355469 14.183594 15.34375 14.136719 C 15.316406 14.015625 15.238281 13.898438 15.140625 13.847656 C 14.789062 13.671875 14.46875 14.089844 14.0625 13.988281 C 14.058594 13.980469 14.050781 13.976562 14.046875 13.972656 C 14.070312 13.878906 14.210938 13.734375 14.28125 13.683594 C 14.226562 13.496094 14.167969 13.3125 14.113281 13.125 C 13.996094 12.792969 13.941406 12.511719 13.851562 12.148438 C 13.808594 11.980469 13.726562 11.78125 13.742188 11.582031 C 13.773438 11.5625 13.804688 11.542969 13.832031 11.527344 C 14.027344 11.550781 14.328125 11.804688 14.550781 11.886719 C 14.6875 11.871094 14.789062 11.757812 14.902344 11.707031 C 14.980469 11.679688 15.054688 11.652344 15.132812 11.625 C 15.140625 11.621094 15.148438 11.617188 15.15625 11.617188 C 14.855469 10.851562 14.558594 10.089844 14.257812 9.328125 C 14.171875 9.300781 13.925781 9.457031 13.824219 9.507812 C 13.71875 9.363281 13.613281 9.21875 13.507812 9.070312 C 13.421875 9.03125 13.1875 9.191406 13.074219 9.226562 C 13.15625 9.382812 13.238281 9.535156 13.320312 9.6875 C 12.96875 9.6875 12.617188 9.6875 12.265625 9.6875 C 12.148438 9.742188 12.019531 9.820312 11.882812 9.859375 C 11.878906 9.863281 11.878906 9.871094 11.875 9.875 C 12.011719 9.96875 12.152344 10.0625 12.289062 10.15625 C 12.179688 10.234375 11.867188 10.160156 11.734375 10.164062 C 11.625 10.214844 11.511719 10.265625 11.402344 10.320312 C 11.382812 10.269531 11.367188 10.222656 11.351562 10.171875 C 11.460938 10.089844 11.574219 10.039062 11.628906 9.902344 C 11.738281 9.621094 11.394531 9.09375 11.210938 9.039062 C 11.078125 9.109375 10.945312 9.183594 10.8125 9.253906 C 10.820312 9.273438 10.828125 9.296875 10.835938 9.320312 C 10.769531 9.347656 10.699219 9.378906 10.632812 9.410156 C 10.628906 9.402344 10.621094 9.398438 10.617188 9.390625 C 10.667969 9.191406 10.714844 8.878906 10.78125 8.628906 C 10.777344 8.625 10.773438 8.617188 10.773438 8.613281 C 10.632812 8.679688 10.496094 8.742188 10.355469 8.808594 C 10.269531 9.085938 10.179688 9.363281 10.09375 9.640625 C 10.089844 9.640625 10.082031 9.640625 10.078125 9.640625 C 10.035156 9.511719 9.929688 9.429688 9.867188 9.328125 C 9.742188 9.121094 9.613281 8.917969 9.488281 8.710938 C 9.453125 8.648438 9.390625 8.601562 9.367188 8.523438 C 9.550781 8.480469 9.503906 8.214844 9.335938 8.1875 C 9.214844 8.164062 8.953125 8.351562 8.84375 8.390625 C 8.835938 8.46875 8.917969 8.582031 8.949219 8.652344 C 8.914062 8.675781 8.875 8.699219 8.835938 8.71875 C 8.832031 8.753906 8.851562 8.738281 8.878906 8.761719 C 8.863281 8.773438 8.84375 8.78125 8.828125 8.792969 C 8.960938 8.957031 9.09375 9.121094 9.226562 9.285156 C 9.246094 9.363281 9.265625 9.4375 9.285156 9.515625 C 9.460938 9.832031 9.632812 10.148438 9.808594 10.46875 C 9.808594 10.46875 9.808594 10.472656 9.808594 10.476562 C 9.546875 10.4375 9.285156 10.398438 9.023438 10.359375 C 8.898438 10.414062 8.773438 10.46875 8.648438 10.523438 C 8.632812 10.582031 8.710938 10.636719 8.738281 10.707031 C 8.644531 10.824219 8.527344 10.9375 8.429688 11.058594 C 8.121094 11.425781 7.945312 12.179688 7.957031 12.847656 C 7.960938 12.847656 7.964844 12.851562 7.972656 12.855469 C 8.386719 12.847656 8.796875 12.84375 9.210938 12.839844 C 9.210938 12.839844 9.210938 12.84375 9.210938 12.847656 C 9.175781 12.929688 9.140625 13.015625 9.105469 13.101562 C 8.234375 13.289062 7.277344 13.335938 6.582031 13.714844 C 6.347656 13.84375 6.136719 14.039062 5.988281 14.257812 C 5.898438 14.390625 5.871094 14.566406 5.742188 14.660156 C 5.476562 14.851562 5.136719 14.929688 4.796875 15.027344 C 4.679688 15.042969 4.566406 15.054688 4.453125 15.070312 C 4.324219 15.128906 4.195312 15.191406 4.066406 15.25 C 4.125 15.304688 4.703125 15.320312 4.828125 15.332031 C 4.863281 15.296875 4.898438 15.261719 4.933594 15.226562 C 5.585938 15.226562 6.035156 15.136719 6.453125 14.882812 C 6.949219 14.578125 7.28125 14.089844 7.867188 13.871094 C 7.8125 14.035156 7.703125 14.195312 7.644531 14.371094 C 7.488281 14.855469 7.476562 15.3125 7.074219 15.554688 C 6.925781 15.644531 6.625 15.699219 6.386719 15.652344 C 6.3125 15.640625 6.242188 15.625 6.167969 15.613281 C 6.042969 15.675781 5.917969 15.738281 5.792969 15.800781 C 5.925781 15.964844 6.058594 16.128906 6.191406 16.292969 C 6.230469 16.359375 6.023438 16.695312 5.980469 16.761719 C 5.757812 17.078125 5.402344 17.5625 4.949219 17.136719 C 4.808594 17.199219 4.667969 17.265625 4.523438 17.328125 C 4.578125 17.371094 4.628906 17.414062 4.679688 17.457031 C 4.636719 17.511719 4.59375 17.566406 4.550781 17.621094 C 4.550781 17.632812 4.550781 17.644531 4.550781 17.65625 C 5.140625 17.769531 5.921875 17.601562 6.371094 17.457031 C 6.589844 17.386719 6.832031 17.34375 6.96875 17.1875 C 7.140625 16.980469 6.972656 16.457031 7.238281 16.316406 C 7.445312 16.203125 7.695312 16.367188 7.863281 16.40625 C 8.195312 16.488281 8.609375 16.46875 8.902344 16.367188 C 9.261719 16.238281 9.460938 15.882812 9.839844 15.792969 C 10.0625 15.777344 10.289062 15.765625 10.511719 15.75 C 10.886719 15.679688 11.230469 15.609375 11.5625 15.511719 C 11.613281 15.53125 11.695312 15.570312 11.777344 15.546875 C 11.8125 15.523438 11.847656 15.496094 11.882812 15.472656 C 12.03125 15.414062 12.183594 15.359375 12.332031 15.300781 C 12.738281 15.132812 13.125 15.027344 13.546875 14.898438 C 13.660156 14.863281 14.175781 14.691406 14.300781 14.726562 C 14.507812 14.8125 14.71875 14.898438 14.929688 14.988281 C 14.929688 14.992188 14.933594 15 14.9375 15.003906 C 14.800781 15.121094 14.699219 15.246094 14.460938 15.265625 C 14.460938 15.273438 14.457031 15.277344 14.453125 15.285156 C 14.46875 15.386719 14.371094 15.339844 14.347656 15.382812 C 14.347656 15.617188 14.347656 15.851562 14.347656 16.085938 C 14.664062 16.050781 15.222656 15.457031 15.359375 15.203125 C 15.589844 15.308594 15.816406 15.414062 16.046875 15.523438 C 16.546875 15.742188 17.03125 15.980469 17.523438 16.210938 C 17.675781 16.140625 17.824219 16.074219 17.972656 16.003906 C 17.972656 15.996094 17.972656 15.988281 17.972656 15.980469 C 17.101562 15.402344 16.230469 14.828125 15.359375 14.25 Z M 15.359375 14.25 "/>
<path style=" stroke:none;fill-rule:nonzero;fill:rgb(0%,29.411765%,48.235294%);fill-opacity:1;" d="M 15.703125 14.914062 C 15.5625 14.832031 15.078125 14.4375 14.96875 14.429688 C 14.9375 14.316406 14.957031 14.238281 14.902344 14.152344 C 14.75 13.90625 14.445312 13.964844 14.226562 14.078125 C 14.175781 14.101562 13.71875 14.257812 13.660156 14.125 C 13.742188 14.039062 13.820312 13.953125 13.898438 13.863281 C 13.886719 13.703125 13.792969 13.484375 13.71875 13.289062 C 13.550781 12.851562 13.4375 12.277344 13.359375 11.761719 C 13.378906 11.753906 13.398438 11.742188 13.417969 11.730469 C 13.503906 11.699219 13.601562 11.800781 13.652344 11.835938 C 13.792969 11.941406 13.957031 12.03125 14.152344 12.082031 C 14.351562 12.136719 14.621094 11.847656 14.765625 11.820312 C 14.761719 11.613281 14.625 11.429688 14.5625 11.277344 C 14.433594 10.988281 14.324219 10.699219 14.21875 10.410156 C 14.195312 10.34375 14.167969 10.160156 14.128906 10.105469 C 14.023438 9.960938 13.886719 9.621094 13.875 9.480469 C 13.851562 9.480469 13.824219 9.476562 13.800781 9.472656 C 13.804688 9.597656 13.777344 9.878906 13.671875 9.949219 C 13.660156 9.980469 13.664062 9.972656 13.644531 9.992188 C 13.464844 9.761719 13.242188 9.46875 13.097656 9.21875 C 13.089844 9.214844 13.082031 9.207031 13.074219 9.203125 C 13.035156 9.25 13.066406 9.738281 13.097656 9.851562 C 12.683594 9.847656 12.265625 9.847656 11.851562 9.84375 C 11.851562 9.863281 11.851562 9.882812 11.851562 9.902344 C 11.976562 10.023438 12.101562 10.148438 12.226562 10.269531 C 12.042969 10.390625 11.554688 10.332031 11.285156 10.328125 C 11.289062 10.414062 11.53125 10.8125 11.597656 10.859375 C 11.570312 11.078125 11.390625 11.058594 11.269531 11.171875 C 11.246094 11.164062 10.972656 10.484375 10.96875 10.34375 C 11.085938 10.316406 11.113281 10.246094 11.179688 10.171875 C 11.488281 9.816406 10.988281 9.40625 10.835938 9.195312 C 10.828125 9.195312 10.816406 9.195312 10.804688 9.195312 C 10.746094 9.375 10.796875 9.632812 10.761719 9.777344 C 10.761719 9.777344 10.757812 9.777344 10.753906 9.777344 C 10.683594 9.664062 10.597656 9.5625 10.519531 9.464844 C 10.382812 9.472656 10.347656 9.539062 10.234375 9.554688 C 10.246094 9.265625 10.386719 9.039062 10.386719 8.777344 C 10.371094 8.777344 10.355469 8.777344 10.339844 8.777344 C 10.289062 8.855469 10.203125 8.902344 10.136719 8.980469 C 9.933594 9.222656 9.816406 9.648438 9.890625 10.105469 C 9.804688 10.015625 9.785156 9.898438 9.703125 9.785156 C 9.53125 9.558594 9.382812 9.347656 9.230469 9.105469 C 9.136719 8.957031 9.050781 8.664062 8.8125 8.71875 C 8.75 8.78125 8.769531 9.214844 8.789062 9.320312 C 8.875 9.773438 9.046875 10.039062 9.238281 10.34375 C 9.289062 10.425781 9.304688 10.554688 9.382812 10.605469 C 9.382812 10.613281 9.382812 10.621094 9.382812 10.632812 C 9.109375 10.605469 8.902344 10.53125 8.617188 10.53125 C 8.613281 10.535156 8.59375 10.679688 8.59375 10.679688 C 8.539062 10.742188 8.429688 10.792969 8.355469 10.835938 C 8.382812 10.847656 8.332031 10.878906 8.332031 10.878906 C 8.292969 10.886719 8.066406 11.132812 8.027344 11.1875 C 7.726562 11.601562 7.535156 12.28125 7.546875 13.042969 C 7.960938 13.042969 8.378906 13.042969 8.796875 13.042969 C 8.753906 13.101562 8.710938 13.195312 8.714844 13.25 C 8.550781 13.351562 8.292969 13.289062 8.109375 13.355469 C 7.921875 13.425781 7.597656 13.402344 7.367188 13.484375 C 7.113281 13.578125 6.839844 13.621094 6.617188 13.707031 C 6.527344 13.734375 6.441406 13.761719 6.355469 13.789062 C 6.125 13.933594 5.871094 14.054688 5.703125 14.257812 C 5.578125 14.40625 5.527344 14.59375 5.414062 14.757812 C 5.265625 14.980469 4.433594 15.242188 4.027344 15.242188 C 4.027344 15.253906 4.027344 15.269531 4.027344 15.285156 C 4.375 15.464844 5.058594 15.457031 5.457031 15.332031 C 5.558594 15.300781 6.003906 15.089844 6.035156 15.101562 C 6.257812 14.898438 6.546875 14.730469 6.761719 14.542969 C 6.9375 14.394531 7.171875 14.125 7.441406 14.078125 C 7.046875 14.59375 7.242188 15.464844 6.582031 15.757812 C 6.488281 15.800781 6.230469 15.867188 6.085938 15.824219 C 6.011719 15.804688 5.847656 15.78125 5.78125 15.792969 C 5.773438 15.792969 5.765625 15.792969 5.757812 15.792969 C 5.785156 15.875 5.8125 15.960938 5.839844 16.046875 C 5.882812 16.234375 5.808594 16.4375 5.757812 16.546875 C 5.59375 16.910156 5.4375 17.273438 5.03125 17.449219 C 5.015625 17.445312 5 17.445312 4.984375 17.441406 C 4.914062 17.441406 4.839844 17.46875 4.769531 17.433594 C 4.691406 17.390625 4.613281 17.351562 4.535156 17.308594 C 4.527344 17.308594 4.515625 17.308594 4.507812 17.308594 C 4.382812 17.476562 4.253906 17.644531 4.125 17.808594 C 4.128906 17.820312 4.132812 17.832031 4.132812 17.84375 C 4.773438 17.980469 6.269531 17.691406 6.574219 17.382812 C 6.761719 17.195312 6.582031 16.625 6.84375 16.503906 C 7.074219 16.402344 7.367188 16.558594 7.546875 16.628906 C 7.734375 16.703125 8.246094 16.652344 8.402344 16.597656 C 8.808594 16.460938 9.023438 16.140625 9.398438 15.996094 C 9.660156 15.976562 9.917969 15.957031 10.175781 15.941406 C 10.480469 15.886719 10.839844 15.785156 11.140625 15.71875 C 11.222656 15.722656 11.308594 15.730469 11.390625 15.734375 C 11.476562 15.710938 11.613281 15.621094 11.703125 15.578125 C 11.867188 15.523438 12.03125 15.46875 12.191406 15.414062 C 12.394531 15.308594 12.761719 15.1875 12.976562 15.144531 C 13.5 15.035156 14 14.757812 14.585938 14.996094 C 14.539062 15.292969 14.257812 15.433594 13.933594 15.449219 C 13.933594 15.726562 13.933594 16.003906 13.933594 16.285156 C 14.066406 16.28125 14.203125 16.15625 14.292969 16.085938 C 14.558594 15.878906 15.042969 15.566406 15.027344 15.136719 C 15.21875 15.203125 15.414062 15.273438 15.605469 15.339844 C 16.015625 15.527344 16.558594 15.890625 16.78125 16.269531 C 16.960938 16.269531 17.40625 16.261719 17.550781 16.203125 C 17.554688 16.203125 17.558594 16.203125 17.566406 16.203125 C 17.566406 16.179688 17.566406 16.160156 17.566406 16.136719 C 16.917969 15.738281 16.359375 15.292969 15.703125 14.914062 Z M 15.703125 14.914062 "/>
</g>
</svg>
