<?xml version="1.0" encoding="UTF-8"?>
<svg xmlns="http://www.w3.org/2000/svg" xmlns:xlink="http://www.w3.org/1999/xlink" width="33pt" height="25pt" viewBox="0 0 33 25" version="1.1">
<defs>
<clipPath id="clip1">
  <path d="M 7.894531 0.59375 L 25 0.59375 L 25 24.40625 L 7.894531 24.40625 Z M 7.894531 0.59375 "/>
</clipPath>
<clipPath id="clip2">
  <path d="M 8 0.59375 L 24 0.59375 L 24 23 L 8 23 Z M 8 0.59375 "/>
</clipPath>
<clipPath id="clip3">
  <path d="M 8 0.59375 L 24 0.59375 L 24 8 L 8 8 Z M 8 0.59375 "/>
</clipPath>
<clipPath id="clip4">
  <path d="M 8 0.59375 L 25 0.59375 L 25 24.40625 L 8 24.40625 Z M 8 0.59375 "/>
</clipPath>
</defs>
<g id="surface1">
<g clip-path="url(#clip1)" clip-rule="nonzero">
<path style=" stroke:none;fill-rule:nonzero;fill:rgb(100%,100%,100%);fill-opacity:1;" d="M 16.113281 24.40625 L 15.996094 24.339844 C 12.582031 22.402344 10.210938 19.671875 8.949219 16.222656 C 7.894531 13.332031 7.894531 10.621094 7.894531 9.460938 C 7.894531 6.757812 8.460938 3.1875 8.464844 3.152344 L 8.484375 3.027344 C 8.484375 3.027344 8.699219 2.925781 8.753906 2.898438 C 8.800781 2.519531 8.859375 2.101562 8.859375 2.101562 L 8.976562 2.042969 C 9.007812 2.027344 9.792969 1.644531 11.015625 1.296875 C 12.144531 0.976562 13.949219 0.59375 16.113281 0.59375 C 18.28125 0.59375 20.082031 0.976562 21.214844 1.296875 C 22.433594 1.644531 23.222656 2.027344 23.253906 2.042969 L 23.371094 2.101562 C 23.371094 2.101562 23.429688 2.519531 23.476562 2.898438 C 23.527344 2.925781 23.746094 3.027344 23.746094 3.027344 L 23.765625 3.152344 C 23.769531 3.1875 24.335938 6.757812 24.335938 9.460938 C 24.335938 10.621094 24.335938 13.332031 23.277344 16.222656 C 22.019531 19.671875 19.648438 22.402344 16.234375 24.339844 Z M 16.113281 24.40625 "/>
</g>
<g clip-path="url(#clip2)" clip-rule="nonzero">
<path style=" stroke:none;fill-rule:nonzero;fill:rgb(96.078431%,50.588235%,7.45098%);fill-opacity:1;" d="M 23.035156 2.347656 C 23.035156 2.347656 20.226562 0.960938 16.113281 0.960938 C 12.003906 0.960938 9.195312 2.347656 9.195312 2.347656 C 9.195312 2.347656 8.847656 4.847656 8.714844 7.195312 L 23.515625 7.195312 C 23.382812 4.847656 23.035156 2.347656 23.035156 2.347656 M 16.113281 22.070312 C 21.730469 18.765625 23.117188 14.296875 23.453125 11.199219 L 8.773438 11.199219 C 9.113281 14.296875 10.496094 18.765625 16.113281 22.070312 "/>
</g>
<path style=" stroke:none;fill-rule:nonzero;fill:rgb(100%,100%,100%);fill-opacity:1;" d="M 16.058594 18.03125 L 16.214844 18.03125 L 16.058594 18.242188 Z M 16.578125 18.132812 L 16.578125 18.339844 L 16.425781 18.339844 Z M 15.4375 17.664062 L 15.4375 17.617188 L 15.128906 17.617188 L 15.105469 17.65625 L 15.015625 17.832031 L 14.957031 17.941406 L 15.09375 17.941406 L 15.09375 18.667969 L 15.4375 18.667969 L 15.4375 18.621094 C 15.472656 18.652344 15.511719 18.664062 15.5625 18.667969 L 15.867188 18.667969 C 15.910156 18.664062 15.949219 18.652344 15.988281 18.621094 L 15.988281 18.667969 L 16.652344 18.667969 L 16.652344 18.625 C 16.6875 18.652344 16.726562 18.664062 16.773438 18.667969 L 17.078125 18.667969 C 17.128906 18.664062 17.171875 18.648438 17.214844 18.609375 C 17.25 18.574219 17.269531 18.53125 17.269531 18.472656 L 17.269531 18.171875 C 17.269531 18.117188 17.253906 18.074219 17.21875 18.039062 L 17.269531 18.039062 L 17.269531 17.8125 C 17.269531 17.753906 17.25 17.710938 17.210938 17.671875 C 17.171875 17.636719 17.128906 17.621094 17.078125 17.617188 L 16.773438 17.617188 C 16.722656 17.621094 16.675781 17.636719 16.636719 17.675781 C 16.628906 17.679688 16.621094 17.6875 16.617188 17.695312 C 16.609375 17.6875 16.601562 17.679688 16.59375 17.671875 C 16.554688 17.636719 16.511719 17.621094 16.460938 17.617188 L 16.179688 17.617188 C 16.128906 17.621094 16.085938 17.636719 16.042969 17.675781 C 16.035156 17.683594 16.027344 17.691406 16.023438 17.699219 C 16.015625 17.691406 16.007812 17.679688 16 17.671875 C 15.960938 17.636719 15.917969 17.621094 15.863281 17.617188 L 15.558594 17.617188 C 15.511719 17.621094 15.472656 17.632812 15.4375 17.664062 M 15.589844 16.289062 C 15.691406 16.28125 15.792969 16.269531 15.890625 16.261719 C 17.308594 16.15625 18.441406 16.421875 18.828125 17.097656 C 19.222656 17.785156 18.496094 19.082031 17.148438 19.546875 C 17.144531 19.550781 17.136719 19.550781 17.132812 19.554688 C 17.097656 19.566406 17.058594 19.578125 17.023438 19.589844 C 16.992188 19.597656 16.960938 19.605469 16.929688 19.613281 C 16.914062 19.617188 16.902344 19.621094 16.886719 19.625 C 16.839844 19.636719 16.792969 19.648438 16.742188 19.65625 C 16.742188 19.660156 16.742188 19.660156 16.738281 19.660156 C 16.574219 19.691406 16.398438 19.710938 16.21875 19.71875 C 16.183594 19.71875 16.148438 19.71875 16.113281 19.71875 C 15.542969 19.71875 15.007812 19.523438 14.535156 19.179688 C 13.933594 18.722656 13.582031 18.085938 13.554688 17.703125 C 13.507812 17.109375 13.488281 16.628906 15.78125 15.949219 C 16.414062 15.773438 16.761719 15.746094 17.136719 15.683594 C 17.613281 15.605469 18.328125 15.445312 18.816406 15.023438 C 18.816406 15.023438 18.996094 15 19.035156 14.984375 C 19.082031 14.964844 19.109375 14.761719 19.082031 14.726562 C 19.050781 14.691406 18.765625 14.28125 17.921875 13.929688 C 17.296875 13.671875 16.265625 13.375 15.011719 13.375 C 14.816406 13.375 14.765625 13.378906 14.476562 13.285156 C 14.382812 13.253906 14.238281 13.210938 14.054688 13.167969 C 14.636719 12.753906 15.347656 12.507812 16.113281 12.507812 C 18.023438 12.507812 19.585938 14.023438 19.683594 15.925781 C 18.707031 15.800781 16.886719 15.9375 15.589844 16.289062 M 19.988281 15.996094 C 19.957031 15.984375 19.929688 15.972656 19.898438 15.964844 C 19.855469 13.894531 18.175781 12.222656 16.113281 12.222656 C 15.199219 12.222656 14.355469 12.550781 13.703125 13.101562 C 13.359375 13.046875 12.96875 13.023438 12.632812 13.101562 C 12.566406 13.117188 12.449219 13.171875 12.609375 13.378906 L 12.867188 13.714844 C 12.890625 13.746094 12.921875 13.847656 12.824219 13.847656 C 12.726562 13.847656 12.3125 13.820312 12.269531 13.863281 C 11.941406 14.195312 11.574219 14.972656 11.574219 15.941406 C 11.574219 16.214844 11.625 16.496094 11.722656 16.777344 C 11.722656 16.777344 11.757812 16.875 11.773438 16.921875 C 12.457031 18.679688 14.125 19.863281 16.113281 19.863281 C 17.550781 19.863281 18.808594 19.238281 19.664062 18.234375 C 19.875 17.988281 20.058594 17.714844 20.21875 17.421875 C 20.539062 16.75 20.449219 16.183594 19.988281 15.996094 "/>
<g clip-path="url(#clip3)" clip-rule="nonzero">
<path style=" stroke:none;fill-rule:nonzero;fill:rgb(100%,100%,100%);fill-opacity:1;" d="M 23.515625 7.195312 C 23.382812 4.847656 23.035156 2.347656 23.035156 2.347656 C 23.035156 2.347656 20.226562 0.960938 16.113281 0.960938 C 14.925781 0.960938 13.847656 1.078125 12.914062 1.242188 C 12.917969 1.253906 12.925781 1.292969 12.9375 1.363281 C 12.964844 1.5 13.003906 1.753906 13.035156 2.097656 C 12.15625 2.179688 10.984375 2.238281 9.429688 2.238281 C 9.273438 2.304688 9.195312 2.347656 9.195312 2.347656 C 9.195312 2.347656 9.191406 2.351562 9.191406 2.363281 C 9.191406 2.363281 9.191406 2.367188 9.191406 2.367188 C 9.160156 2.605469 8.839844 4.96875 8.714844 7.195312 Z M 23.515625 7.195312 "/>
</g>
<g clip-path="url(#clip4)" clip-rule="nonzero">
<path style=" stroke:none;fill-rule:nonzero;fill:rgb(13.72549%,12.156863%,12.54902%);fill-opacity:1;" d="M 14.429688 3.941406 C 14.285156 3.632812 14.148438 3.320312 14.011719 3.007812 C 13.835938 3.355469 13.652344 3.703125 13.460938 4.046875 C 13.558594 4.011719 13.65625 3.972656 13.753906 3.929688 C 13.816406 3.984375 13.878906 4.035156 13.9375 4.089844 C 14.007812 4.023438 14.082031 3.953125 14.148438 3.886719 C 14.242188 3.90625 14.335938 3.925781 14.429688 3.941406 M 13.769531 5.546875 C 13.71875 5.503906 13.664062 5.457031 13.613281 5.414062 C 13.46875 5.476562 13.320312 5.539062 13.171875 5.601562 C 13.308594 5.640625 13.449219 5.679688 13.585938 5.71875 C 13.648438 5.660156 13.710938 5.605469 13.769531 5.546875 M 13.675781 5.355469 C 13.726562 5.398438 13.78125 5.441406 13.832031 5.488281 C 13.890625 5.429688 13.949219 5.375 14.011719 5.320312 C 13.964844 5.214844 13.917969 5.109375 13.871094 5.003906 C 13.808594 5.121094 13.742188 5.238281 13.675781 5.355469 M 14.21875 3.078125 C 14.351562 3.011719 14.488281 2.941406 14.621094 2.875 C 14.492188 2.84375 14.363281 2.808594 14.234375 2.773438 C 14.179688 2.832031 14.121094 2.886719 14.066406 2.945312 C 14.117188 2.988281 14.167969 3.03125 14.21875 3.078125 M 13.214844 6.636719 C 13.320312 6.601562 13.425781 6.5625 13.53125 6.523438 C 13.59375 6.574219 13.660156 6.628906 13.726562 6.679688 C 13.804688 6.613281 13.878906 6.546875 13.957031 6.480469 C 14.054688 6.5 14.152344 6.519531 14.25 6.539062 C 14.105469 6.226562 13.960938 5.914062 13.820312 5.597656 C 13.625 5.945312 13.421875 6.292969 13.214844 6.636719 M 12.914062 4.398438 C 12.71875 4.738281 12.515625 5.082031 12.308594 5.421875 C 12.410156 5.386719 12.511719 5.347656 12.613281 5.3125 C 12.675781 5.367188 12.738281 5.421875 12.800781 5.476562 C 12.875 5.410156 12.949219 5.347656 13.023438 5.28125 C 13.121094 5.304688 13.214844 5.324219 13.3125 5.347656 C 13.175781 5.03125 13.042969 4.714844 12.914062 4.398438 M 13.882812 5.539062 C 13.933594 5.582031 13.988281 5.625 14.042969 5.671875 C 14.1875 5.605469 14.335938 5.539062 14.480469 5.46875 C 14.34375 5.4375 14.203125 5.402344 14.066406 5.367188 C 14.003906 5.425781 13.945312 5.480469 13.882812 5.539062 M 9.507812 5.519531 C 9.554688 5.570312 9.601562 5.621094 9.648438 5.667969 C 9.710938 5.621094 9.777344 5.570312 9.84375 5.523438 C 9.808594 5.414062 9.773438 5.300781 9.742188 5.191406 C 9.664062 5.300781 9.585938 5.410156 9.507812 5.519531 M 10.886719 4.496094 C 10.671875 4.828125 10.449219 5.15625 10.222656 5.484375 C 10.328125 5.453125 10.429688 5.425781 10.535156 5.394531 C 10.59375 5.453125 10.652344 5.511719 10.710938 5.566406 C 10.792969 5.507812 10.871094 5.449219 10.949219 5.386719 C 11.042969 5.414062 11.136719 5.441406 11.230469 5.46875 C 11.113281 5.144531 11 4.820312 10.886719 4.496094 M 9.691406 5.726562 C 9.738281 5.773438 9.785156 5.824219 9.835938 5.875 C 9.988281 5.828125 10.140625 5.777344 10.292969 5.726562 C 10.160156 5.679688 10.027344 5.628906 9.890625 5.578125 C 9.824219 5.625 9.757812 5.675781 9.691406 5.726562 M 11.789062 5.691406 C 11.839844 5.738281 11.890625 5.785156 11.941406 5.832031 C 12.09375 5.777344 12.242188 5.71875 12.390625 5.660156 C 12.253906 5.617188 12.117188 5.574219 11.984375 5.53125 C 11.917969 5.585938 11.855469 5.636719 11.789062 5.691406 M 14.183594 2.726562 C 14.136719 2.621094 14.089844 2.515625 14.046875 2.410156 C 13.988281 2.527344 13.929688 2.644531 13.871094 2.761719 C 13.921875 2.804688 13.96875 2.851562 14.019531 2.894531 C 14.074219 2.839844 14.128906 2.78125 14.183594 2.726562 M 11.0625 6.753906 C 11.167969 6.71875 11.277344 6.6875 11.382812 6.65625 C 11.445312 6.710938 11.507812 6.769531 11.570312 6.824219 C 11.648438 6.761719 11.730469 6.699219 11.808594 6.640625 C 11.90625 6.664062 12.003906 6.6875 12.101562 6.710938 C 11.972656 6.390625 11.847656 6.070312 11.726562 5.75 C 11.511719 6.085938 11.289062 6.417969 11.0625 6.753906 M 10.261719 4.449219 C 10.390625 4.5 10.519531 4.546875 10.652344 4.59375 C 10.714844 4.542969 10.777344 4.492188 10.84375 4.441406 C 10.796875 4.394531 10.746094 4.34375 10.703125 4.296875 C 10.554688 4.347656 10.410156 4.398438 10.261719 4.449219 M 11.929688 5.480469 C 11.890625 5.375 11.847656 5.265625 11.808594 5.15625 C 11.738281 5.269531 11.667969 5.382812 11.597656 5.496094 C 11.644531 5.542969 11.695312 5.589844 11.742188 5.636719 C 11.804688 5.585938 11.867188 5.535156 11.929688 5.480469 M 13.960938 2.957031 C 13.914062 2.910156 13.863281 2.867188 13.8125 2.824219 C 13.679688 2.886719 13.542969 2.953125 13.40625 3.015625 C 13.535156 3.050781 13.664062 3.089844 13.792969 3.125 C 13.851562 3.070312 13.90625 3.011719 13.960938 2.957031 M 10.308594 2.96875 C 10.273438 2.855469 10.242188 2.746094 10.207031 2.636719 C 10.136719 2.746094 10.066406 2.855469 9.996094 2.96875 C 10.039062 3.015625 10.082031 3.066406 10.125 3.117188 C 10.1875 3.066406 10.246094 3.015625 10.308594 2.96875 M 10.304688 3.320312 C 10.445312 3.269531 10.585938 3.21875 10.730469 3.164062 C 10.601562 3.117188 10.476562 3.070312 10.355469 3.019531 C 10.292969 3.070312 10.230469 3.121094 10.167969 3.171875 C 10.214844 3.21875 10.257812 3.269531 10.304688 3.320312 M 11.089844 4.234375 C 11.054688 4.125 11.015625 4.015625 10.980469 3.90625 C 10.910156 4.019531 10.839844 4.128906 10.765625 4.242188 C 10.8125 4.289062 10.859375 4.339844 10.90625 4.386719 C 10.96875 4.335938 11.027344 4.285156 11.089844 4.234375 M 10.0625 3.171875 C 10.019531 3.121094 9.976562 3.070312 9.929688 3.019531 C 9.789062 3.070312 9.644531 3.117188 9.503906 3.164062 C 9.625 3.214844 9.75 3.265625 9.875 3.320312 C 9.9375 3.269531 10 3.21875 10.0625 3.171875 M 9.578125 5.722656 C 9.53125 5.671875 9.484375 5.621094 9.4375 5.570312 C 9.285156 5.617188 9.132812 5.664062 8.976562 5.707031 C 9.109375 5.761719 9.242188 5.816406 9.375 5.867188 C 9.445312 5.820312 9.511719 5.773438 9.578125 5.722656 M 9.914062 4.292969 C 9.988281 4.234375 10.066406 4.175781 10.144531 4.117188 C 10.234375 4.144531 10.324219 4.175781 10.414062 4.203125 C 10.308594 3.878906 10.207031 3.550781 10.105469 3.226562 C 9.890625 3.550781 9.667969 3.875 9.441406 4.199219 C 9.542969 4.171875 9.644531 4.144531 9.746094 4.113281 C 9.800781 4.175781 9.855469 4.234375 9.914062 4.292969 M 11.09375 4.585938 C 11.238281 4.53125 11.386719 4.476562 11.53125 4.421875 C 11.398438 4.378906 11.269531 4.332031 11.140625 4.285156 C 11.078125 4.335938 11.015625 4.390625 10.949219 4.441406 C 11 4.488281 11.046875 4.539062 11.09375 4.585938 M 13.125 4.472656 C 13.269531 4.414062 13.410156 4.347656 13.550781 4.285156 C 13.417969 4.246094 13.285156 4.210938 13.152344 4.171875 C 13.09375 4.226562 13.035156 4.28125 12.972656 4.335938 C 13.023438 4.382812 13.074219 4.429688 13.125 4.472656 M 12.683594 4.507812 C 12.746094 4.453125 12.804688 4.398438 12.867188 4.34375 C 12.816406 4.296875 12.765625 4.253906 12.714844 4.207031 C 12.574219 4.265625 12.429688 4.328125 12.285156 4.386719 C 12.417969 4.425781 12.550781 4.46875 12.683594 4.507812 M 13.101562 4.121094 C 13.058594 4.015625 13.015625 3.90625 12.972656 3.800781 C 12.910156 3.917969 12.84375 4.03125 12.777344 4.148438 C 12.828125 4.195312 12.875 4.238281 12.925781 4.285156 C 12.984375 4.230469 13.042969 4.175781 13.101562 4.121094 M 8.902344 6.742188 C 9.011719 6.714844 9.121094 6.691406 9.230469 6.664062 C 9.289062 6.722656 9.347656 6.785156 9.40625 6.84375 C 9.488281 6.785156 9.574219 6.730469 9.65625 6.671875 C 9.753906 6.703125 9.847656 6.730469 9.945312 6.761719 C 9.835938 6.433594 9.730469 6.109375 9.625 5.777344 C 9.390625 6.101562 9.148438 6.421875 8.902344 6.742188 M 11.929688 4.25 C 12.003906 4.1875 12.078125 4.125 12.152344 4.058594 C 12.242188 4.085938 12.332031 4.109375 12.425781 4.132812 C 12.300781 3.8125 12.179688 3.492188 12.0625 3.171875 C 11.867188 3.511719 11.664062 3.847656 11.453125 4.179688 C 11.554688 4.148438 11.652344 4.113281 11.753906 4.082031 C 11.8125 4.136719 11.871094 4.191406 11.929688 4.25 M 12.015625 3.121094 C 11.96875 3.070312 11.921875 3.023438 11.875 2.976562 C 11.738281 3.035156 11.597656 3.089844 11.457031 3.144531 C 11.582031 3.191406 11.710938 3.234375 11.839844 3.277344 C 11.898438 3.226562 11.957031 3.171875 12.015625 3.121094 M 12.25 2.902344 C 12.210938 2.796875 12.171875 2.6875 12.132812 2.578125 C 12.066406 2.691406 12.003906 2.808594 11.9375 2.921875 C 11.984375 2.96875 12.027344 3.015625 12.074219 3.0625 C 12.132812 3.007812 12.191406 2.957031 12.25 2.902344 M 12.265625 3.253906 C 12.402344 3.195312 12.542969 3.136719 12.679688 3.078125 C 12.550781 3.035156 12.425781 2.996094 12.296875 2.953125 C 12.238281 3.007812 12.179688 3.058594 12.121094 3.113281 C 12.167969 3.160156 12.214844 3.207031 12.265625 3.253906 M 11.078125 5.714844 C 11.210938 5.761719 11.347656 5.808594 11.484375 5.851562 C 11.550781 5.800781 11.613281 5.75 11.679688 5.695312 C 11.628906 5.648438 11.578125 5.601562 11.527344 5.550781 C 11.378906 5.609375 11.226562 5.664062 11.078125 5.714844 M 16.578125 18.339844 L 16.425781 18.339844 L 16.578125 18.132812 Z M 16.578125 18.59375 L 16.0625 18.59375 L 16.0625 18.363281 L 16.363281 17.957031 L 16.363281 17.867188 L 16.277344 17.867188 L 16.277344 17.957031 L 16.0625 17.957031 L 16.0625 17.8125 C 16.0625 17.777344 16.070312 17.75 16.09375 17.726562 C 16.121094 17.703125 16.148438 17.695312 16.179688 17.691406 L 16.460938 17.691406 C 16.492188 17.695312 16.519531 17.703125 16.546875 17.726562 C 16.566406 17.75 16.578125 17.777344 16.578125 17.8125 L 16.578125 18.007812 L 16.277344 18.417969 L 16.578125 18.417969 Z M 16.058594 18.03125 L 16.214844 18.03125 L 16.058594 18.242188 Z M 15.984375 18.472656 C 15.984375 18.507812 15.972656 18.535156 15.949219 18.558594 C 15.921875 18.582031 15.898438 18.589844 15.863281 18.59375 L 15.5625 18.59375 C 15.527344 18.589844 15.5 18.582031 15.476562 18.558594 C 15.453125 18.535156 15.441406 18.507812 15.441406 18.472656 L 15.441406 18.320312 L 15.644531 18.320312 L 15.644531 18.417969 L 15.769531 18.417969 L 15.769531 18.230469 L 15.5625 18.230469 C 15.527344 18.230469 15.5 18.21875 15.476562 18.195312 C 15.453125 18.171875 15.441406 18.148438 15.441406 18.113281 L 15.441406 17.8125 C 15.441406 17.777344 15.453125 17.75 15.476562 17.726562 C 15.5 17.703125 15.527344 17.695312 15.5625 17.691406 L 15.863281 17.691406 C 15.898438 17.695312 15.921875 17.703125 15.949219 17.726562 C 15.972656 17.75 15.984375 17.777344 15.984375 17.8125 Z M 15.363281 18.59375 L 15.167969 18.59375 L 15.167969 17.867188 L 15.082031 17.867188 L 15.171875 17.691406 L 15.363281 17.691406 Z M 16.652344 17.8125 C 16.65625 17.777344 16.664062 17.75 16.6875 17.726562 C 16.714844 17.703125 16.742188 17.695312 16.773438 17.691406 L 17.078125 17.691406 C 17.109375 17.695312 17.136719 17.703125 17.160156 17.726562 C 17.183594 17.75 17.195312 17.777344 17.195312 17.8125 L 17.195312 17.964844 L 16.992188 17.964844 L 16.992188 17.867188 L 16.871094 17.867188 L 16.871094 18.054688 L 17.078125 18.054688 C 17.109375 18.054688 17.136719 18.066406 17.160156 18.089844 C 17.183594 18.109375 17.195312 18.136719 17.195312 18.171875 L 17.195312 18.472656 C 17.195312 18.507812 17.183594 18.535156 17.160156 18.558594 C 17.136719 18.582031 17.109375 18.589844 17.078125 18.59375 L 16.773438 18.59375 C 16.742188 18.589844 16.714844 18.582031 16.6875 18.558594 C 16.664062 18.535156 16.65625 18.507812 16.652344 18.472656 Z M 16.652344 18.625 C 16.6875 18.652344 16.726562 18.667969 16.773438 18.667969 L 17.078125 18.667969 C 17.128906 18.664062 17.171875 18.648438 17.214844 18.609375 C 17.25 18.574219 17.269531 18.53125 17.269531 18.472656 L 17.269531 18.171875 C 17.269531 18.117188 17.253906 18.074219 17.21875 18.039062 L 17.269531 18.039062 L 17.269531 17.8125 C 17.269531 17.753906 17.25 17.710938 17.210938 17.671875 C 17.171875 17.636719 17.128906 17.617188 17.078125 17.617188 L 16.769531 17.617188 C 16.722656 17.617188 16.679688 17.636719 16.636719 17.675781 C 16.628906 17.679688 16.621094 17.6875 16.617188 17.695312 C 16.609375 17.6875 16.601562 17.679688 16.59375 17.671875 C 16.554688 17.636719 16.511719 17.617188 16.460938 17.617188 L 16.179688 17.617188 C 16.128906 17.617188 16.085938 17.636719 16.042969 17.675781 C 16.035156 17.679688 16.027344 17.691406 16.023438 17.699219 C 16.015625 17.691406 16.007812 17.679688 16 17.671875 C 15.960938 17.636719 15.917969 17.617188 15.863281 17.617188 L 15.558594 17.617188 C 15.511719 17.617188 15.472656 17.632812 15.433594 17.664062 L 15.433594 17.617188 L 15.125 17.617188 L 15.105469 17.65625 L 15.015625 17.832031 L 14.957031 17.941406 L 15.09375 17.941406 L 15.09375 18.667969 L 15.433594 18.667969 L 15.433594 18.621094 C 15.472656 18.652344 15.511719 18.667969 15.5625 18.667969 L 15.867188 18.667969 C 15.910156 18.667969 15.949219 18.652344 15.988281 18.621094 L 15.988281 18.667969 L 16.652344 18.667969 Z M 16.992188 18.226562 L 16.871094 18.226562 L 16.871094 18.414062 L 16.992188 18.414062 Z M 15.644531 18.058594 L 15.769531 18.058594 L 15.769531 17.871094 L 15.644531 17.871094 Z M 17.046875 14.554688 C 17.589844 14.726562 17.792969 14.511719 17.804688 14.449219 C 17.820312 14.386719 17.835938 14.273438 17.539062 14.117188 C 17.480469 14.085938 17.386719 14.042969 17.335938 14.03125 C 17.277344 14.019531 17 14 17.136719 14.132812 C 17.246094 14.238281 17.394531 14.371094 17.351562 14.414062 C 17.308594 14.457031 17.105469 14.503906 16.84375 14.390625 C 16.558594 14.269531 16.542969 14.117188 16.542969 14.117188 C 16.542969 14.117188 16.507812 14.386719 17.046875 14.554688 M 13.957031 15.527344 C 14.386719 15.597656 14.5 15.5625 14.703125 15.398438 C 14.910156 15.238281 15.417969 14.695312 15.417969 14.695312 C 15.417969 14.695312 15.042969 14.957031 14.753906 15.128906 C 14.460938 15.296875 14.332031 15.289062 14.277344 15.289062 C 14.226562 15.289062 13.664062 15.175781 13.46875 15.117188 C 13.273438 15.0625 13.296875 14.941406 13.507812 14.859375 C 14.238281 14.574219 15.351562 14.503906 15.351562 14.503906 C 14.023438 14.398438 13.222656 14.683594 12.890625 14.847656 C 12.558594 15.007812 12.679688 15.183594 12.847656 15.25 C 13.015625 15.316406 13.527344 15.457031 13.957031 15.527344 M 13.929688 13.925781 C 15.585938 13.386719 17.261719 13.703125 17.871094 13.9375 C 18.492188 14.175781 18.820312 14.554688 18.878906 14.699219 C 18.90625 14.765625 18.855469 14.882812 18.824219 14.894531 C 18.695312 14.949219 18.285156 15.039062 17.855469 15.085938 C 18.105469 15.085938 18.816406 15.023438 18.816406 15.023438 C 18.816406 15.023438 18.996094 15 19.035156 14.984375 C 19.082031 14.964844 19.109375 14.761719 19.082031 14.726562 C 19.050781 14.691406 18.765625 14.28125 17.921875 13.929688 C 17.296875 13.671875 16.265625 13.375 15.011719 13.375 C 14.8125 13.375 14.765625 13.378906 14.476562 13.285156 C 14.382812 13.253906 14.234375 13.210938 14.054688 13.167969 C 14.636719 12.753906 15.347656 12.507812 16.113281 12.507812 C 18.023438 12.507812 19.585938 14.023438 19.683594 15.925781 C 18.707031 15.800781 16.890625 15.9375 15.589844 16.289062 C 17.246094 16.109375 18.726562 16.332031 19.125 17.101562 C 19.597656 18.015625 18.460938 19.101562 17.808594 19.40625 C 17.15625 19.714844 16.742188 19.816406 16.113281 19.816406 C 15.484375 19.816406 14.042969 19.605469 12.8125 18.195312 C 12.082031 17.355469 11.277344 14.785156 13.929688 13.925781 M 11.722656 16.773438 C 11.722656 16.777344 11.757812 16.875 11.773438 16.921875 C 12.460938 18.679688 14.125 19.863281 16.113281 19.863281 C 17.550781 19.863281 18.808594 19.238281 19.664062 18.234375 C 19.875 17.988281 20.058594 17.714844 20.21875 17.421875 C 20.539062 16.75 20.449219 16.179688 19.984375 15.996094 C 19.957031 15.984375 19.929688 15.972656 19.894531 15.964844 C 19.855469 13.894531 18.175781 12.21875 16.113281 12.21875 C 15.199219 12.21875 14.355469 12.550781 13.703125 13.101562 C 13.359375 13.046875 12.96875 13.027344 12.632812 13.101562 C 12.566406 13.117188 12.449219 13.171875 12.609375 13.378906 L 12.867188 13.714844 C 12.890625 13.746094 12.921875 13.84375 12.824219 13.84375 C 12.726562 13.84375 12.3125 13.820312 12.269531 13.863281 C 11.941406 14.195312 11.574219 14.972656 11.574219 15.941406 C 11.574219 16.214844 11.625 16.496094 11.722656 16.773438 M 15.589844 16.289062 C 15.691406 16.277344 15.792969 16.269531 15.890625 16.261719 C 15.789062 16.269531 15.691406 16.277344 15.589844 16.289062 M 16.800781 15.371094 C 16.605469 15.335938 16.488281 15.265625 16.367188 15.171875 C 15.832031 14.757812 15.597656 14.292969 15.65625 14.171875 C 15.777344 13.925781 16.453125 13.9375 16.453125 13.9375 C 16.453125 13.9375 16.085938 13.902344 15.695312 13.996094 C 15.394531 14.066406 15.367188 14.242188 15.414062 14.382812 C 15.457031 14.515625 15.632812 14.847656 15.917969 15.160156 C 15.972656 15.21875 15.929688 15.265625 15.871094 15.28125 C 15.757812 15.308594 13.101562 16.140625 12.9375 16.992188 C 12.71875 18.113281 14.207031 19.71875 16.113281 19.71875 C 15.546875 19.71875 15.007812 19.523438 14.535156 19.179688 C 13.933594 18.722656 13.582031 18.082031 13.554688 17.703125 C 13.507812 17.109375 13.488281 16.628906 15.78125 15.949219 C 16.414062 15.773438 16.761719 15.746094 17.140625 15.683594 C 17.613281 15.605469 18.328125 15.449219 18.816406 15.023438 C 18.082031 15.574219 17.03125 15.414062 16.800781 15.371094 M 16.113281 22.070312 C 10.496094 18.765625 9.113281 14.296875 8.773438 11.199219 L 23.453125 11.199219 C 23.117188 14.296875 21.730469 18.765625 16.113281 22.070312 M 9.191406 2.363281 C 9.25 2.363281 9.304688 2.363281 9.363281 2.363281 C 11.859375 2.363281 13.382812 2.222656 14.296875 2.058594 C 14.753906 1.976562 15.058594 1.886719 15.257812 1.804688 C 15.304688 1.785156 15.347656 1.765625 15.382812 1.746094 C 15.15625 2.328125 14.59375 4.03125 14.59375 6.777344 C 14.59375 6.824219 14.59375 6.871094 14.59375 6.921875 L 18.144531 6.921875 C 18.375 6.867188 18.609375 6.8125 18.847656 6.765625 C 21.105469 6.3125 22.832031 6.28125 23.453125 6.289062 C 23.429688 5.96875 23.402344 5.648438 23.375 5.339844 C 23.429688 5.933594 23.476562 6.570312 23.515625 7.195312 L 8.714844 7.195312 C 8.84375 4.964844 9.160156 2.59375 9.191406 2.363281 M 9.425781 2.242188 C 9.40625 2.25 9.390625 2.257812 9.375 2.261719 C 9.390625 2.257812 9.40625 2.25 9.425781 2.242188 M 12.914062 1.242188 C 12.917969 1.253906 12.925781 1.292969 12.9375 1.363281 C 12.964844 1.5 13.003906 1.753906 13.035156 2.097656 C 12.15625 2.179688 10.984375 2.238281 9.429688 2.238281 C 9.921875 2.03125 11.164062 1.550781 12.914062 1.242188 M 13.824219 1.105469 C 13.589844 1.132812 13.355469 1.167969 13.132812 1.203125 C 13.355469 1.167969 13.589844 1.132812 13.824219 1.105469 M 15.210938 1.6875 C 14.898438 1.816406 14.28125 1.972656 13.160156 2.085938 C 13.121094 1.6875 13.074219 1.410156 13.050781 1.285156 C 13.871094 1.289062 14.480469 1.347656 14.890625 1.417969 C 15.101562 1.453125 15.253906 1.488281 15.355469 1.523438 C 15.398438 1.535156 15.425781 1.546875 15.449219 1.558594 C 15.410156 1.589844 15.335938 1.640625 15.210938 1.6875 M 18.792969 1.746094 C 21.570312 1.746094 23.023438 2.339844 23.035156 2.34375 C 23.035156 2.34375 23.035156 2.347656 23.035156 2.347656 C 23.035156 2.347656 23.222656 3.691406 23.375 5.339844 C 23.363281 5.234375 23.355469 5.132812 23.34375 5.035156 C 22.851562 4.988281 21.488281 4.917969 19.324219 5.210938 C 17.363281 5.476562 15.511719 6.09375 14.71875 6.382812 C 14.730469 5.890625 14.757812 5.433594 14.796875 5.015625 C 15.386719 4.800781 16.710938 4.371094 18.558594 4.140625 C 21.191406 3.8125 22.964844 4.070312 23.25 4.117188 C 23.203125 3.691406 23.160156 3.320312 23.125 3.027344 C 22.867188 2.945312 21.410156 2.542969 18.890625 2.695312 C 17.136719 2.800781 15.71875 3.152344 15.050781 3.347656 C 15.082031 3.1875 15.117188 3.035156 15.152344 2.894531 C 15.238281 2.550781 15.324219 2.273438 15.398438 2.0625 C 16.144531 1.917969 17.304688 1.746094 18.792969 1.746094 M 23.527344 3.191406 C 23.433594 3.148438 23.253906 3.066406 23.253906 3.066406 C 23.199219 2.617188 23.148438 2.261719 23.148438 2.261719 C 23.148438 2.261719 22.363281 1.878906 21.148438 1.535156 C 20.03125 1.214844 18.253906 0.835938 16.113281 0.835938 C 13.976562 0.835938 12.195312 1.214844 11.078125 1.535156 C 9.867188 1.878906 9.082031 2.261719 9.082031 2.261719 C 9.082031 2.261719 9.03125 2.617188 8.976562 3.066406 C 8.976562 3.066406 8.796875 3.148438 8.703125 3.191406 C 8.703125 3.191406 8.136719 6.746094 8.136719 9.460938 C 8.136719 12.175781 8.253906 19.667969 16.113281 24.125 C 23.976562 19.667969 24.09375 12.175781 24.09375 9.460938 C 24.09375 6.746094 23.527344 3.191406 23.527344 3.191406 "/>
</g>
<path style=" stroke:none;fill-rule:nonzero;fill:rgb(100%,100%,100%);fill-opacity:1;" d="M 11.675781 8.007812 C 11.601562 7.941406 11.523438 7.910156 11.429688 7.90625 L 10.75 7.90625 C 10.65625 7.910156 10.578125 7.941406 10.503906 8.007812 C 10.4375 8.074219 10.40625 8.144531 10.40625 8.246094 L 10.40625 10.140625 C 10.40625 10.242188 10.4375 10.3125 10.503906 10.378906 C 10.578125 10.445312 10.65625 10.476562 10.75 10.480469 L 11.429688 10.480469 C 11.523438 10.476562 11.601562 10.445312 11.675781 10.378906 C 11.742188 10.3125 11.773438 10.242188 11.773438 10.140625 L 11.773438 9.550781 L 11.261719 9.550781 L 11.261719 10.015625 C 11.261719 10.035156 11.25 10.058594 11.238281 10.074219 C 11.222656 10.085938 11.203125 10.097656 11.179688 10.097656 L 11.007812 10.097656 C 10.984375 10.097656 10.964844 10.085938 10.949219 10.070312 C 10.9375 10.058594 10.929688 10.035156 10.929688 10.015625 L 10.929688 8.367188 C 10.929688 8.347656 10.9375 8.324219 10.953125 8.3125 C 10.964844 8.296875 10.984375 8.289062 11.007812 8.289062 L 11.179688 8.289062 C 11.203125 8.289062 11.222656 8.296875 11.238281 8.3125 C 11.25 8.328125 11.261719 8.347656 11.261719 8.367188 L 11.261719 8.839844 L 11.773438 8.839844 L 11.773438 8.246094 C 11.773438 8.144531 11.742188 8.074219 11.675781 8.007812 Z M 22.1875 7.90625 L 22.1875 8.289062 L 22.449219 8.289062 C 22.472656 8.289062 22.492188 8.296875 22.507812 8.3125 C 22.523438 8.324219 22.53125 8.347656 22.53125 8.367188 L 22.53125 10.480469 L 23.019531 10.480469 L 23.019531 8.367188 C 23.019531 8.347656 23.027344 8.324219 23.042969 8.3125 C 23.058594 8.296875 23.078125 8.289062 23.097656 8.289062 L 23.359375 8.289062 L 23.359375 7.90625 Z M 18.933594 10.480469 L 20.089844 10.480469 L 20.089844 10.097656 L 19.535156 10.097656 C 19.492188 10.097656 19.457031 10.066406 19.457031 10.019531 L 19.457031 9.472656 C 19.457031 9.425781 19.492188 9.390625 19.535156 9.390625 L 20.089844 9.390625 L 20.089844 9 L 19.535156 9 C 19.492188 9 19.457031 8.964844 19.457031 8.917969 L 19.457031 8.367188 C 19.457031 8.324219 19.492188 8.289062 19.535156 8.289062 L 20.089844 8.289062 L 20.089844 7.90625 L 18.933594 7.90625 Z M 18.035156 10.480469 L 18.546875 10.480469 L 18.546875 7.90625 L 18.035156 7.90625 Z M 21.746094 8.007812 C 21.671875 7.941406 21.597656 7.910156 21.503906 7.90625 L 20.480469 7.90625 L 20.480469 10.480469 L 21 10.480469 L 21 8.367188 C 21 8.347656 21.007812 8.324219 21.023438 8.3125 C 21.039062 8.296875 21.058594 8.289062 21.078125 8.289062 L 21.253906 8.289062 C 21.273438 8.289062 21.292969 8.296875 21.308594 8.3125 C 21.324219 8.328125 21.332031 8.347656 21.332031 8.367188 L 21.332031 10.480469 L 21.84375 10.480469 L 21.84375 8.246094 C 21.84375 8.144531 21.8125 8.074219 21.746094 8.007812 Z M 15.363281 10.015625 C 15.363281 10.035156 15.355469 10.058594 15.339844 10.074219 C 15.324219 10.085938 15.304688 10.097656 15.285156 10.097656 L 15.109375 10.097656 C 15.089844 10.097656 15.070312 10.085938 15.054688 10.070312 C 15.039062 10.058594 15.03125 10.035156 15.03125 10.015625 L 15.03125 8.367188 C 15.03125 8.347656 15.039062 8.324219 15.054688 8.3125 C 15.070312 8.296875 15.089844 8.289062 15.109375 8.289062 L 15.285156 8.289062 C 15.304688 8.289062 15.324219 8.296875 15.339844 8.3125 C 15.355469 8.328125 15.363281 8.347656 15.363281 8.367188 Z M 15.777344 8.007812 C 15.703125 7.941406 15.628906 7.910156 15.535156 7.90625 L 14.851562 7.90625 C 14.757812 7.910156 14.683594 7.941406 14.609375 8.007812 C 14.542969 8.074219 14.511719 8.144531 14.511719 8.246094 L 14.511719 10.140625 C 14.511719 10.242188 14.542969 10.3125 14.609375 10.378906 C 14.683594 10.445312 14.757812 10.476562 14.851562 10.480469 L 15.535156 10.480469 C 15.628906 10.476562 15.703125 10.445312 15.777344 10.378906 C 15.84375 10.3125 15.875 10.242188 15.875 10.140625 L 15.875 8.246094 C 15.875 8.144531 15.84375 8.074219 15.777344 8.007812 Z M 17.105469 8.917969 C 17.105469 8.941406 17.097656 8.960938 17.082031 8.976562 C 17.070312 8.992188 17.046875 9 17.027344 9 L 16.851562 9 C 16.832031 9 16.8125 8.992188 16.796875 8.976562 C 16.78125 8.960938 16.773438 8.941406 16.773438 8.917969 L 16.773438 8.367188 C 16.773438 8.347656 16.78125 8.324219 16.796875 8.3125 C 16.8125 8.296875 16.832031 8.289062 16.851562 8.289062 L 17.027344 8.289062 C 17.046875 8.289062 17.066406 8.296875 17.082031 8.3125 C 17.097656 8.328125 17.105469 8.347656 17.105469 8.367188 Z M 17.425781 9.316406 C 17.472656 9.28125 17.488281 9.269531 17.546875 9.21875 C 17.609375 9.167969 17.644531 9.082031 17.644531 8.980469 L 17.644531 8.246094 C 17.644531 8.144531 17.613281 8.070312 17.546875 8.007812 C 17.472656 7.941406 17.394531 7.910156 17.300781 7.90625 L 16.265625 7.90625 L 16.265625 10.480469 L 16.773438 10.480469 L 16.773438 9.65625 C 16.773438 9.617188 16.800781 9.582031 16.839844 9.574219 C 16.84375 9.574219 16.847656 9.574219 16.851562 9.574219 C 16.886719 9.574219 16.914062 9.59375 16.925781 9.625 L 17.246094 10.480469 L 17.734375 10.480469 L 17.382812 9.539062 C 17.34375 9.441406 17.375 9.359375 17.425781 9.316406 M 13.574219 10.066406 C 13.558594 10.050781 13.550781 10.03125 13.550781 10.007812 L 13.550781 7.90625 L 13.023438 7.90625 L 13.023438 10.480469 L 14.164062 10.480469 L 14.164062 10.089844 L 13.632812 10.089844 C 13.609375 10.089844 13.589844 10.082031 13.574219 10.066406 M 8.863281 10.480469 L 9.382812 10.480469 L 9.382812 9.472656 C 9.382812 9.425781 9.417969 9.390625 9.460938 9.390625 L 10.015625 9.390625 L 10.015625 9 L 9.460938 9 C 9.441406 9 9.421875 8.992188 9.40625 8.976562 C 9.390625 8.960938 9.382812 8.941406 9.382812 8.917969 L 9.382812 8.367188 C 9.382812 8.324219 9.417969 8.289062 9.460938 8.289062 L 10.015625 8.289062 L 10.015625 7.90625 L 8.863281 7.90625 Z M 8.863281 10.480469 "/>
</g>
</svg>
