<?xml version="1.0" encoding="UTF-8"?>
<svg xmlns="http://www.w3.org/2000/svg" xmlns:xlink="http://www.w3.org/1999/xlink" width="35pt" height="25pt" viewBox="0 0 35 25" version="1.1">
<g id="surface1">
<path style=" stroke:none;fill-rule:nonzero;fill:rgb(82.745098%,2.745098%,16.470588%);fill-opacity:1;" d="M 17.445312 0.28125 C 9.742188 0.28125 7.65625 2.523438 7.566406 2.617188 C 7.542969 2.65625 5.917969 5.429688 6.328125 9.519531 C 6.703125 13.285156 8.929688 18.972656 17.410156 24.683594 L 17.445312 24.710938 L 17.480469 24.683594 C 25.960938 18.972656 28.1875 13.285156 28.5625 9.519531 C 28.972656 5.429688 27.347656 2.65625 27.328125 2.628906 C 27.238281 2.523438 25.148438 0.28125 17.445312 0.28125 Z M 17.445312 0.28125 "/>
<path style=" stroke:none;fill-rule:nonzero;fill:rgb(100%,100%,100%);fill-opacity:1;" d="M 27.5625 2.410156 L 27.558594 2.410156 L 27.554688 2.40625 C 27.46875 2.308594 25.355469 0 17.445312 0 C 9.570312 0 7.429688 2.296875 7.339844 2.394531 C 7.320312 2.425781 5.648438 5.273438 6.066406 9.460938 C 6.453125 13.3125 8.726562 19.128906 17.386719 24.957031 L 17.445312 25 L 17.503906 24.957031 C 26.164062 19.128906 28.441406 13.3125 28.824219 9.460938 C 29.242188 5.28125 27.578125 2.4375 27.5625 2.410156 Z M 28.5625 9.519531 C 28.1875 13.285156 25.960938 18.972656 17.480469 24.683594 L 17.445312 24.710938 L 17.410156 24.683594 C 8.929688 18.972656 6.703125 13.285156 6.328125 9.519531 C 5.917969 5.429688 7.542969 2.65625 7.566406 2.617188 C 7.65625 2.523438 9.742188 0.28125 17.445312 0.28125 C 25.148438 0.28125 27.238281 2.523438 27.328125 2.628906 C 27.347656 2.65625 28.972656 5.429688 28.5625 9.519531 Z M 28.5625 9.519531 "/>
<path style=" stroke:none;fill-rule:nonzero;fill:rgb(100%,100%,100%);fill-opacity:1;" d="M 17.445312 1.28125 C 21.472656 1.28125 23.839844 1.9375 25.144531 2.519531 L 25.570312 2.519531 C 25.6875 2.519531 25.792969 2.519531 25.898438 2.527344 C 24.730469 1.871094 22.238281 0.953125 17.445312 0.953125 C 12.667969 0.953125 10.175781 1.867188 9.003906 2.519531 L 9.746094 2.519531 C 11.050781 1.9375 13.417969 1.28125 17.445312 1.28125 Z M 17.445312 1.28125 "/>
<path style=" stroke:none;fill-rule:nonzero;fill:rgb(100%,100%,100%);fill-opacity:1;" d="M 27.792969 6.117188 L 27.792969 6.816406 C 27.792969 6.9375 27.769531 7.148438 27.640625 7.363281 C 27.703125 8.058594 27.710938 8.824219 27.628906 9.648438 C 27.28125 13.117188 25.230469 18.351562 17.445312 23.644531 C 9.660156 18.351562 7.609375 13.117188 7.261719 9.648438 C 7.117188 8.210938 7.246094 6.957031 7.460938 5.949219 L 7.460938 4.703125 C 7.085938 5.851562 6.730469 7.585938 6.9375 9.683594 C 7.292969 13.242188 9.398438 18.617188 17.410156 24.015625 L 17.445312 24.035156 L 17.480469 24.015625 C 25.492188 18.617188 27.597656 13.242188 27.953125 9.683594 C 28.089844 8.320312 27.984375 7.113281 27.792969 6.117188 Z M 27.792969 6.117188 "/>
<path style=" stroke:none;fill-rule:nonzero;fill:rgb(100%,100%,100%);fill-opacity:1;" d="M 19.089844 15.011719 C 19.066406 14.886719 18.660156 14.644531 18.496094 14.621094 C 18.054688 14.566406 18.859375 14.386719 18.789062 14.332031 C 18.46875 14.050781 18.503906 13.964844 18.503906 13.964844 C 17.933594 13.765625 17.878906 13.65625 17.878906 13.65625 C 17.421875 13.5625 16.765625 13.722656 16.765625 13.722656 C 16.589844 13.800781 16.507812 13.839844 16.472656 13.855469 C 16.507812 13.855469 16.597656 13.867188 16.269531 13.980469 C 16.128906 14.027344 16.320312 14.449219 16.214844 14.597656 C 16.105469 14.753906 15.785156 14.996094 15.773438 15.089844 C 15.722656 15.496094 16.089844 16.320312 16.253906 16.5625 C 16.480469 16.898438 16.601562 17.15625 16.757812 17.285156 C 17.414062 17.894531 17.929688 17.40625 17.996094 17.34375 C 18.273438 17.082031 18.34375 16.933594 18.519531 16.691406 C 18.609375 16.5625 19.023438 15.785156 19.070312 15.527344 C 19.105469 15.34375 19.089844 14.996094 19.089844 15.011719 Z M 16.460938 14.65625 C 16.773438 14.527344 16.609375 14.492188 16.6875 14.433594 C 16.816406 14.335938 16.375 14.414062 16.46875 14.339844 C 16.761719 14.113281 16.492188 14.085938 16.492188 14.085938 C 16.488281 13.992188 16.886719 14.199219 16.921875 13.90625 C 16.921875 13.902344 17.203125 13.890625 17.433594 13.847656 C 17.691406 13.796875 17.726562 13.988281 17.945312 13.976562 C 17.945312 13.976562 17.945312 14.101562 18.121094 14.167969 C 18.121094 14.167969 18.273438 14.125 18.382812 14.199219 C 18.449219 14.238281 17.976562 14.257812 18.1875 14.433594 C 18.226562 14.464844 17.820312 14.472656 17.980469 14.582031 C 18.125 14.675781 18.472656 14.722656 18.496094 14.792969 C 18.382812 14.761719 18.5625 14.910156 18.386719 14.894531 C 18.027344 14.859375 17.546875 15.25 17.5625 15.355469 C 17.53125 15.15625 17.003906 14.921875 16.449219 14.859375 C 16.3125 14.851562 16.34375 14.851562 16.203125 14.863281 C 16.285156 14.773438 16.324219 14.710938 16.460938 14.65625 Z M 18.765625 15.734375 C 18.765625 15.734375 18.589844 16.152344 18.359375 16.542969 C 18.117188 16.957031 17.828125 17.203125 17.828125 17.203125 C 17.828125 17.203125 17.554688 17.433594 17.1875 17.296875 C 17.1875 17.296875 17.09375 17.285156 16.820312 17.042969 C 16.546875 16.796875 16.382812 16.429688 16.382812 16.429688 C 16.382812 16.429688 15.789062 15.148438 16.101562 15.140625 C 16.101562 15.140625 16.585938 15.074219 16.929688 15.261719 C 16.929688 15.261719 17.414062 15.433594 17.523438 15.703125 C 17.523438 15.703125 17.792969 15.4375 18.089844 15.285156 C 18.386719 15.125 18.460938 15.046875 18.890625 15.097656 C 18.890625 15.097656 18.894531 15.445312 18.765625 15.734375 Z M 18.765625 15.734375 "/>
<path style=" stroke:none;fill-rule:nonzero;fill:rgb(100%,100%,100%);fill-opacity:1;" d="M 16.140625 15.402344 L 16.675781 15.582031 C 16.675781 15.582031 16.59375 15.972656 16.921875 15.992188 C 16.921875 15.992188 16.984375 15.980469 17.03125 16.050781 C 17.101562 16.15625 17.265625 16.554688 17.269531 16.574219 C 17.269531 16.574219 17.371094 15.949219 16.949219 15.632812 C 16.585938 15.359375 16.140625 15.402344 16.140625 15.402344 Z M 16.140625 15.402344 "/>
<path style=" stroke:none;fill-rule:nonzero;fill:rgb(100%,100%,100%);fill-opacity:1;" d="M 18.769531 15.429688 L 18.3125 15.632812 C 18.3125 15.632812 18.496094 16 17.996094 16.066406 C 17.949219 16.074219 17.632812 16.5625 17.628906 16.585938 C 17.628906 16.585938 17.703125 15.910156 17.96875 15.699219 C 18.335938 15.414062 18.769531 15.429688 18.769531 15.429688 Z M 18.769531 15.429688 "/>
<path style=" stroke:none;fill-rule:nonzero;fill:rgb(100%,100%,100%);fill-opacity:1;" d="M 17.578125 16.875 C 17.578125 16.992188 17.457031 17.171875 17.433594 17.171875 C 17.40625 17.171875 17.335938 16.972656 17.339844 16.855469 C 17.34375 16.738281 17.425781 16.695312 17.453125 16.695312 C 17.480469 16.695312 17.585938 16.753906 17.578125 16.875 Z M 17.578125 16.875 "/>
<path style=" stroke:none;fill-rule:nonzero;fill:rgb(100%,100%,100%);fill-opacity:1;" d="M 16.664062 19.34375 C 16.261719 19.34375 15.945312 20.625 15.972656 20.460938 C 15.972656 20.460938 16.792969 19.847656 16.664062 19.34375 Z M 16.664062 19.34375 "/>
<path style=" stroke:none;fill-rule:nonzero;fill:rgb(100%,100%,100%);fill-opacity:1;" d="M 16.789062 20.453125 L 17.078125 19.78125 C 17.078125 19.78125 17.167969 20.394531 16.789062 20.453125 Z M 16.789062 20.453125 "/>
<path style=" stroke:none;fill-rule:nonzero;fill:rgb(100%,100%,100%);fill-opacity:1;" d="M 16.902344 22.285156 C 17.351562 22.246094 17.5 22.027344 17.320312 21.765625 C 17.292969 21.726562 17.167969 21.683594 17.144531 21.632812 C 17.179688 21.597656 17.15625 21.347656 17.132812 21.277344 C 17.105469 21.175781 16.9375 21.128906 16.90625 21.058594 C 16.875 20.984375 16.839844 20.851562 16.789062 20.746094 C 16.402344 19.929688 16.078125 20.652344 16.371094 20.785156 C 16.3125 20.757812 16.425781 20.640625 16.476562 20.644531 C 16.503906 20.699219 16.441406 20.699219 16.496094 20.863281 C 16.601562 21.164062 16.703125 21.027344 16.527344 21.0625 C 16.261719 21.1875 15.992188 20.65625 15.757812 20.667969 C 15.238281 20.691406 15.523438 21.144531 15.539062 21.15625 C 15.542969 20.898438 15.675781 20.863281 15.710938 20.871094 C 15.679688 21.019531 15.789062 21.082031 15.945312 21.117188 C 16.097656 21.152344 16.132812 21.328125 16.132812 21.332031 C 16.066406 21.347656 15.757812 21.476562 15.644531 21.511719 C 15.226562 21.636719 15.335938 22.007812 15.347656 21.992188 C 15.351562 21.90625 15.492188 21.78125 15.621094 21.769531 C 15.6875 21.789062 15.722656 21.902344 15.894531 21.839844 C 16.117188 21.753906 16.078125 21.679688 16.195312 21.664062 C 16.34375 21.648438 16.382812 21.789062 16.496094 21.742188 C 16.695312 21.734375 16.824219 21.652344 16.871094 21.679688 C 16.972656 21.742188 16.867188 21.707031 16.871094 21.847656 C 16.878906 22.007812 17.027344 22 17.050781 22.042969 C 17.050781 22.042969 17.09375 22.121094 16.902344 22.285156 Z M 16.902344 22.285156 "/>
<path style=" stroke:none;fill-rule:nonzero;fill:rgb(100%,100%,100%);fill-opacity:1;" d="M 18.253906 19.34375 C 18.65625 19.34375 18.972656 20.625 18.949219 20.460938 C 18.949219 20.460938 18.125 19.847656 18.253906 19.34375 Z M 18.253906 19.34375 "/>
<path style=" stroke:none;fill-rule:nonzero;fill:rgb(100%,100%,100%);fill-opacity:1;" d="M 18.015625 20.242188 L 17.730469 19.574219 C 17.730469 19.574219 17.636719 20.1875 18.015625 20.242188 Z M 18.015625 20.242188 "/>
<path style=" stroke:none;fill-rule:nonzero;fill:rgb(100%,100%,100%);fill-opacity:1;" d="M 18.015625 22.285156 C 17.566406 22.246094 17.417969 22.027344 17.597656 21.765625 C 17.625 21.726562 17.75 21.683594 17.773438 21.632812 C 17.738281 21.597656 17.761719 21.347656 17.785156 21.277344 C 17.8125 21.175781 17.980469 21.128906 18.011719 21.058594 C 18.042969 20.984375 18.078125 20.851562 18.128906 20.746094 C 18.515625 19.929688 18.839844 20.652344 18.546875 20.785156 C 18.605469 20.757812 18.492188 20.640625 18.445312 20.644531 C 18.417969 20.699219 18.476562 20.699219 18.421875 20.863281 C 18.316406 21.164062 18.214844 21.027344 18.390625 21.0625 C 18.65625 21.1875 18.925781 20.65625 19.160156 20.667969 C 19.679688 20.691406 19.394531 21.144531 19.378906 21.15625 C 19.375 20.898438 19.242188 20.863281 19.210938 20.871094 C 19.242188 21.019531 19.128906 21.082031 18.972656 21.117188 C 18.820312 21.152344 18.785156 21.328125 18.785156 21.332031 C 18.851562 21.347656 19.160156 21.476562 19.273438 21.511719 C 19.691406 21.636719 19.582031 22.007812 19.570312 21.992188 C 19.566406 21.90625 19.425781 21.78125 19.296875 21.769531 C 19.230469 21.789062 19.195312 21.902344 19.023438 21.839844 C 18.800781 21.753906 18.839844 21.679688 18.722656 21.664062 C 18.574219 21.648438 18.539062 21.789062 18.421875 21.742188 C 18.226562 21.734375 18.09375 21.652344 18.046875 21.679688 C 17.945312 21.742188 18.050781 21.707031 18.046875 21.847656 C 18.039062 22.007812 17.890625 22 17.867188 22.042969 C 17.867188 22.042969 17.824219 22.121094 18.015625 22.285156 Z M 18.015625 22.285156 "/>
<path style=" stroke:none;fill-rule:nonzero;fill:rgb(100%,100%,100%);fill-opacity:1;" d="M 27.382812 8.207031 C 27.371094 8.203125 24.507812 8.019531 22.011719 8.921875 C 21.945312 8.945312 21.011719 9.394531 20.492188 9.726562 L 20.492188 9.410156 C 20.492188 9.371094 20.484375 9.3125 20.445312 9.25 C 20.476562 9.199219 20.492188 9.140625 20.492188 9.078125 L 20.492188 8.628906 C 20.492188 8.457031 20.40625 8.167969 19.816406 8.167969 L 19.300781 8.167969 C 19.085938 8.167969 18.921875 8.207031 18.804688 8.28125 C 18.769531 8.253906 18.730469 8.234375 18.683594 8.21875 C 18.59375 8.183594 18.472656 8.167969 18.300781 8.167969 L 17.785156 8.167969 C 17.640625 8.167969 17.515625 8.1875 17.40625 8.230469 C 17.367188 8.246094 17.332031 8.265625 17.300781 8.285156 C 17.261719 8.257812 17.21875 8.234375 17.171875 8.21875 C 17.082031 8.183594 16.957031 8.167969 16.785156 8.167969 L 16.273438 8.167969 C 16.128906 8.167969 16 8.1875 15.890625 8.230469 C 15.84375 8.25 15.800781 8.273438 15.765625 8.300781 C 15.730469 8.273438 15.691406 8.253906 15.648438 8.238281 C 15.539062 8.191406 15.410156 8.167969 15.269531 8.167969 L 14.316406 8.167969 L 14.78125 8.929688 L 14.910156 8.929688 L 14.910156 10.09375 C 14.863281 10.058594 14.820312 10.019531 14.789062 9.984375 C 14.65625 9.839844 13 8.957031 12.90625 8.921875 C 10.566406 8.019531 7.546875 8.203125 7.535156 8.207031 L 7.601562 8.355469 C 7.539062 8.613281 7.359375 9.277344 8.050781 9.523438 C 8 9.828125 7.941406 10.441406 8.546875 10.664062 C 8.546875 10.664062 8.574219 10.671875 8.582031 10.675781 C 8.582031 10.980469 8.738281 11.550781 9.539062 11.859375 C 9.613281 12.261719 9.878906 13.007812 10.863281 13.265625 C 10.921875 13.785156 11.121094 14.664062 12.398438 14.851562 C 12.417969 14.898438 12.441406 14.945312 12.460938 14.988281 C 12.492188 15.054688 12.558594 14.949219 12.589844 15.011719 C 12.816406 15.472656 13.03125 16.183594 13.410156 16.589844 C 13.425781 16.605469 13.445312 16.621094 13.457031 16.640625 C 13.765625 16.953125 14.039062 17.445312 14.453125 17.621094 C 14.46875 17.625 14.480469 17.632812 14.496094 17.640625 C 14.523438 17.621094 14.546875 17.648438 14.574219 17.628906 C 14.8125 17.488281 15.417969 17.136719 15.628906 17.039062 C 15.722656 17.230469 15.757812 17.265625 15.792969 17.484375 C 14.660156 17.949219 13.476562 19.324219 13.453125 19.355469 C 13.355469 19.503906 13.539062 19.9375 14.359375 20.066406 C 14.46875 20.246094 14.738281 20.457031 15.183594 20.429688 C 15.25 20.492188 15.390625 20.511719 15.515625 20.566406 L 15.816406 20.566406 C 15.734375 20.546875 15.660156 20.375 15.5625 20.34375 L 15.507812 20.21875 C 15.542969 20 15.84375 19.679688 15.984375 19 C 15.984375 19 15.09375 20.21875 15.132812 20.265625 C 14.933594 20.214844 14.859375 20.140625 14.667969 19.953125 L 14.71875 19.855469 C 15.097656 19.3125 15.820312 18.417969 15.910156 18.167969 C 15.910156 18.167969 14.316406 19.730469 14.371094 19.84375 C 14.1875 19.75 13.960938 19.679688 13.828125 19.382812 C 13.828125 19.382812 15.226562 17.921875 15.867188 17.660156 C 15.875 17.722656 15.980469 18.101562 15.96875 18.148438 C 15.984375 18.105469 16.152344 17.898438 16.15625 17.816406 C 16.203125 17.675781 16.125 17.195312 16.03125 16.867188 C 16.003906 16.777344 15.738281 16.175781 15.664062 16.292969 C 15.65625 16.304688 15.550781 16.734375 15.550781 16.734375 C 15.234375 16.855469 14.84375 17.195312 14.621094 17.207031 C 14.476562 17.214844 14.304688 16.925781 13.894531 16.464844 C 14.117188 15.871094 14.441406 15.171875 15.15625 14.007812 C 14.726562 14.707031 13.773438 15.429688 13.558594 16.074219 C 13.269531 15.734375 13.125 15.5 12.832031 14.960938 C 12.851562 14.921875 12.875 14.886719 12.894531 14.847656 C 12.980469 14.851562 13.066406 14.855469 13.160156 14.855469 C 13.160156 14.855469 13.0625 14.847656 12.914062 14.8125 C 13.5 13.761719 13.933594 13.179688 15.308594 12.4375 C 15.308594 12.4375 13.113281 12.871094 12.605469 14.523438 C 12.484375 14.292969 12.488281 14.261719 12.371094 13.988281 C 12.363281 13.960938 12.351562 13.9375 12.34375 13.910156 C 12.253906 13.695312 12.167969 13.460938 12.085938 13.214844 C 12.085938 13.214844 12.132812 13.480469 12.25 13.875 C 12.257812 13.898438 12.265625 13.929688 12.273438 13.953125 C 12.34375 14.179688 12.433594 14.433594 12.546875 14.707031 C 12.019531 14.523438 11.46875 14.160156 11.203125 13.242188 C 11.246094 13.253906 11.292969 13.261719 11.335938 13.269531 C 11.335938 13.269531 11.300781 13.25 11.234375 13.210938 C 11.902344 12.722656 12.304688 12.460938 12.855469 12.300781 C 13.117188 12.390625 13.535156 12.402344 13.835938 12.464844 C 13.835938 12.464844 13.582031 12.375 13.1875 12.175781 C 13.726562 12.035156 14.09375 12.019531 14.09375 12.019531 C 14.132812 11.769531 13.527344 11.847656 12.777344 12 C 12.628906 12.027344 12.175781 11.621094 11.648438 11.203125 C 12.390625 11.101562 12.898438 11.125 12.898438 11.125 C 13.164062 10.894531 12.304688 10.921875 11.441406 11.050781 C 11.386719 11.058594 11.011719 10.679688 10.710938 10.339844 C 11.53125 10.328125 12.070312 10.359375 12.070312 10.359375 C 12.273438 10.179688 11.476562 10.128906 10.574219 10.1875 C 10.359375 9.9375 10.355469 9.871094 10.082031 9.488281 C 10.144531 9.578125 10.863281 9.507812 10.863281 9.507812 C 11.054688 9.339844 10.59375 9.277344 9.949219 9.285156 C 9.863281 9.140625 9.742188 8.957031 9.664062 8.800781 C 9.664062 8.800781 9.652344 9.011719 9.761719 9.285156 C 9.175781 9.292969 8.578125 9.328125 8.21875 9.410156 C 8.21875 9.371094 8.183594 9.253906 8.1875 9.210938 C 8.1875 9.210938 8.136719 9.324219 8.117188 9.402344 L 8.109375 9.402344 C 7.921875 9.222656 7.65625 8.898438 7.628906 8.425781 C 10.894531 8.472656 13.125 9.800781 14.621094 10.445312 C 15.453125 11.441406 15.714844 11.640625 17.199219 13.546875 C 17.199219 13.546875 17.253906 12.492188 15.191406 10.316406 L 15.953125 10.316406 L 15.953125 9.964844 L 16.171875 10.316406 L 16.785156 10.316406 C 16.925781 10.316406 17.050781 10.292969 17.164062 10.246094 C 17.359375 10.171875 17.433594 10.046875 17.457031 9.949219 L 17.683594 10.316406 L 18.296875 10.316406 C 18.441406 10.316406 18.570312 10.292969 18.675781 10.25 C 18.722656 10.230469 18.765625 10.207031 18.804688 10.183594 C 18.839844 10.203125 18.878906 10.226562 18.921875 10.242188 C 19.035156 10.292969 19.164062 10.316406 19.300781 10.316406 L 19.726562 10.316406 C 17.664062 12.492188 17.71875 13.546875 17.71875 13.546875 C 19.203125 11.640625 19.464844 11.441406 20.296875 10.445312 C 21.792969 9.800781 24.023438 8.472656 27.289062 8.425781 C 27.261719 8.898438 26.996094 9.222656 26.808594 9.402344 L 26.800781 9.402344 C 26.78125 9.324219 26.730469 9.210938 26.730469 9.210938 C 26.734375 9.253906 26.699219 9.371094 26.699219 9.410156 C 26.339844 9.328125 25.742188 9.292969 25.15625 9.285156 C 25.265625 9.011719 25.253906 8.800781 25.253906 8.800781 C 25.175781 8.957031 25.054688 9.140625 24.96875 9.285156 C 24.324219 9.277344 23.863281 9.339844 24.054688 9.507812 C 24.054688 9.507812 24.773438 9.578125 24.835938 9.488281 C 24.5625 9.871094 24.558594 9.9375 24.339844 10.1875 C 23.441406 10.128906 22.644531 10.179688 22.847656 10.359375 C 22.847656 10.359375 23.386719 10.328125 24.207031 10.339844 C 23.90625 10.679688 23.53125 11.058594 23.476562 11.050781 C 22.613281 10.921875 21.753906 10.894531 22.015625 11.125 C 22.015625 11.125 22.527344 11.101562 23.269531 11.203125 C 22.742188 11.621094 22.289062 12.027344 22.140625 12 C 21.390625 11.847656 20.785156 11.769531 20.824219 12.019531 C 20.824219 12.019531 21.191406 12.035156 21.730469 12.175781 C 21.335938 12.375 21.082031 12.464844 21.082031 12.464844 C 21.382812 12.402344 21.800781 12.390625 22.0625 12.300781 C 22.613281 12.460938 23.015625 12.722656 23.683594 13.210938 C 23.617188 13.25 23.582031 13.269531 23.582031 13.269531 C 23.625 13.261719 23.671875 13.253906 23.714844 13.242188 C 23.449219 14.160156 22.898438 14.523438 22.371094 14.707031 C 22.484375 14.433594 22.574219 14.179688 22.644531 13.953125 C 22.652344 13.929688 22.660156 13.898438 22.667969 13.875 C 22.785156 13.480469 22.832031 13.214844 22.832031 13.214844 C 22.75 13.460938 22.664062 13.695312 22.574219 13.914062 C 22.566406 13.9375 22.554688 13.960938 22.546875 13.988281 C 22.429688 14.261719 22.433594 14.292969 22.3125 14.523438 C 21.804688 12.871094 19.609375 12.4375 19.609375 12.4375 C 20.984375 13.179688 21.417969 13.761719 22.003906 14.8125 C 21.855469 14.847656 21.757812 14.855469 21.757812 14.855469 C 21.851562 14.855469 21.9375 14.851562 22.023438 14.847656 C 22.042969 14.886719 22.066406 14.921875 22.085938 14.960938 C 21.792969 15.5 21.648438 15.734375 21.359375 16.074219 C 21.144531 15.429688 20.191406 14.707031 19.761719 14.007812 C 20.476562 15.171875 20.800781 15.871094 21.023438 16.464844 C 20.613281 16.925781 20.441406 17.214844 20.296875 17.207031 C 20.074219 17.195312 19.683594 16.855469 19.367188 16.734375 C 19.367188 16.734375 19.261719 16.304688 19.253906 16.292969 C 19.179688 16.175781 18.914062 16.777344 18.886719 16.867188 C 18.792969 17.195312 18.707031 17.613281 18.753906 17.753906 C 18.757812 17.835938 18.925781 18.042969 18.941406 18.085938 C 18.925781 18.039062 19.042969 17.722656 19.050781 17.660156 C 19.691406 17.921875 21.089844 19.382812 21.089844 19.382812 C 20.957031 19.679688 20.730469 19.75 20.546875 19.84375 C 20.601562 19.730469 19.007812 18.167969 19.007812 18.167969 C 19.097656 18.417969 19.820312 19.3125 20.199219 19.855469 L 20.246094 19.953125 C 20.058594 20.136719 19.984375 20.214844 19.785156 20.265625 C 19.824219 20.21875 18.929688 19 18.929688 19 C 19.074219 19.679688 19.375 20 19.410156 20.21875 L 19.355469 20.34375 C 19.257812 20.375 19.183594 20.546875 19.101562 20.566406 L 19.402344 20.566406 C 19.523438 20.511719 19.667969 20.492188 19.734375 20.429688 C 20.179688 20.457031 20.445312 20.246094 20.558594 20.066406 C 21.378906 19.9375 21.5625 19.503906 21.460938 19.355469 C 21.441406 19.324219 20.257812 17.949219 19.125 17.484375 C 19.160156 17.265625 19.195312 17.230469 19.289062 17.039062 C 19.5 17.136719 20.105469 17.488281 20.34375 17.628906 C 20.371094 17.648438 20.394531 17.621094 20.421875 17.640625 C 20.4375 17.628906 20.449219 17.625 20.464844 17.621094 C 20.878906 17.445312 21.152344 16.953125 21.457031 16.640625 C 21.472656 16.621094 21.492188 16.605469 21.507812 16.589844 C 21.886719 16.183594 22.101562 15.472656 22.328125 15.011719 C 22.355469 14.949219 22.425781 15.054688 22.457031 14.988281 C 22.476562 14.945312 22.496094 14.898438 22.519531 14.851562 C 23.796875 14.664062 23.996094 13.785156 24.054688 13.265625 C 25.039062 13.007812 25.304688 12.261719 25.378906 11.859375 C 26.179688 11.550781 26.335938 10.980469 26.335938 10.675781 C 26.34375 10.671875 26.371094 10.664062 26.371094 10.664062 C 26.976562 10.441406 26.917969 9.828125 26.867188 9.523438 C 27.558594 9.277344 27.378906 8.613281 27.316406 8.355469 Z M 12.320312 12.136719 C 11.671875 12.355469 11.546875 12.449219 11.058594 12.953125 L 10.992188 12.941406 C 10.96875 12.84375 10.925781 12.816406 10.910156 12.703125 C 10.910156 12.703125 10.867188 12.804688 10.878906 12.972656 C 10.5625 12.773438 10.070312 12.496094 9.753906 11.859375 C 9.789062 11.871094 9.851562 11.855469 9.886719 11.867188 C 9.886719 11.867188 9.859375 11.765625 9.796875 11.78125 C 10.414062 11.613281 10.839844 11.410156 11.316406 11.3125 C 11.742188 11.671875 11.847656 11.886719 12.320312 12.136719 Z M 11.121094 11.152344 C 10.574219 11.28125 10.070312 11.4375 9.671875 11.613281 C 9.648438 11.558594 9.691406 11.511719 9.671875 11.453125 C 9.671875 11.453125 9.566406 11.542969 9.578125 11.644531 C 9.324219 11.421875 9 11.183594 8.847656 10.75 C 8.859375 10.753906 9.042969 10.738281 9.058594 10.738281 C 9.058594 10.738281 8.984375 10.691406 8.949219 10.660156 C 8.949219 10.652344 8.910156 10.632812 8.898438 10.632812 C 9.691406 10.507812 9.921875 10.390625 10.414062 10.363281 C 10.632812 10.675781 10.757812 10.839844 11.121094 11.152344 Z M 9.835938 9.46875 C 9.933594 9.703125 10.082031 9.890625 10.296875 10.210938 C 9.714844 10.261719 9.125 10.355469 8.769531 10.488281 C 8.765625 10.460938 8.757812 10.433594 8.757812 10.40625 C 8.757812 10.40625 8.75 10.441406 8.742188 10.5 C 8.730469 10.503906 8.71875 10.507812 8.707031 10.511719 C 8.527344 10.335938 8.308594 10.097656 8.265625 9.652344 C 8.296875 9.664062 8.398438 9.648438 8.433594 9.65625 C 8.433594 9.65625 8.316406 9.589844 8.25 9.53125 C 8.25 9.527344 8.253906 9.515625 8.25 9.515625 C 9.070312 9.554688 9.335938 9.476562 9.835938 9.46875 Z M 19.300781 10.210938 C 19.183594 10.210938 19.070312 10.191406 18.964844 10.144531 C 18.890625 10.113281 18.839844 10.078125 18.800781 10.042969 C 18.765625 10.082031 18.714844 10.117188 18.636719 10.148438 C 18.539062 10.191406 18.425781 10.210938 18.296875 10.210938 L 17.742188 10.210938 L 17.40625 9.664062 C 17.40625 9.664062 17.9375 9.664062 18.050781 9.664062 C 18.050781 9.609375 18.050781 9.570312 18.050781 9.511719 C 17.957031 9.511719 17.785156 9.511719 17.785156 9.511719 C 17.710938 9.511719 17.636719 9.503906 17.566406 9.488281 C 17.488281 9.46875 17.417969 9.441406 17.359375 9.402344 L 17.359375 9.859375 C 17.359375 9.949219 17.320312 10.070312 17.125 10.148438 C 17.023438 10.191406 16.910156 10.210938 16.785156 10.210938 L 16.230469 10.210938 L 15.894531 9.664062 C 15.894531 9.664062 16.421875 9.664062 16.535156 9.664062 C 16.535156 9.609375 16.535156 9.570312 16.535156 9.511719 C 16.445312 9.511719 16.273438 9.511719 16.273438 9.511719 C 16.195312 9.511719 16.121094 9.503906 16.054688 9.488281 C 15.976562 9.46875 15.902344 9.441406 15.847656 9.402344 L 15.847656 10.210938 L 15.019531 10.210938 C 15.019531 10.210938 15.019531 10.199219 15.019531 10.175781 C 15.019531 9.96875 15.019531 8.945312 15.019531 8.824219 C 14.957031 8.824219 14.84375 8.824219 14.84375 8.824219 L 14.507812 8.273438 L 15.269531 8.273438 C 15.394531 8.273438 15.507812 8.296875 15.605469 8.335938 C 15.679688 8.367188 15.730469 8.402344 15.769531 8.4375 C 15.804688 8.398438 15.855469 8.363281 15.929688 8.332031 C 16.03125 8.292969 16.144531 8.273438 16.273438 8.273438 L 16.785156 8.273438 C 16.9375 8.273438 17.050781 8.289062 17.132812 8.320312 C 17.207031 8.347656 17.257812 8.382812 17.292969 8.425781 C 17.328125 8.390625 17.378906 8.359375 17.445312 8.332031 C 17.542969 8.292969 17.65625 8.273438 17.785156 8.273438 L 18.296875 8.273438 C 18.453125 8.273438 18.566406 8.289062 18.644531 8.320312 C 18.71875 8.34375 18.769531 8.378906 18.804688 8.417969 C 18.882812 8.335938 19.03125 8.273438 19.300781 8.273438 L 19.816406 8.273438 C 20.285156 8.273438 20.386719 8.464844 20.386719 8.628906 L 20.386719 9.078125 C 20.386719 9.144531 20.355469 9.207031 20.300781 9.25 C 20.367188 9.304688 20.386719 9.363281 20.386719 9.410156 L 20.386719 9.859375 C 20.386719 10.015625 20.289062 10.199219 19.851562 10.210938 C 19.839844 10.210938 19.828125 10.210938 19.816406 10.210938 Z M 24.039062 12.972656 C 24.054688 12.804688 24.007812 12.703125 24.007812 12.703125 C 23.992188 12.816406 23.949219 12.84375 23.925781 12.941406 L 23.859375 12.953125 C 23.371094 12.449219 23.246094 12.355469 22.597656 12.136719 C 23.070312 11.886719 23.175781 11.671875 23.601562 11.3125 C 24.078125 11.410156 24.503906 11.613281 25.121094 11.78125 C 25.058594 11.765625 25.03125 11.867188 25.03125 11.867188 C 25.066406 11.855469 25.128906 11.871094 25.164062 11.859375 C 24.847656 12.496094 24.355469 12.773438 24.039062 12.972656 Z M 25.339844 11.644531 C 25.351562 11.542969 25.246094 11.453125 25.246094 11.453125 C 25.226562 11.511719 25.269531 11.558594 25.246094 11.613281 C 24.847656 11.4375 24.34375 11.28125 23.796875 11.152344 C 24.160156 10.839844 24.285156 10.675781 24.503906 10.363281 C 24.996094 10.390625 25.226562 10.507812 26.019531 10.632812 C 26.007812 10.632812 25.96875 10.652344 25.96875 10.660156 C 25.933594 10.691406 25.859375 10.738281 25.859375 10.738281 C 25.875 10.738281 26.058594 10.753906 26.070312 10.75 C 25.917969 11.183594 25.59375 11.421875 25.339844 11.644531 Z M 26.667969 9.53125 C 26.605469 9.589844 26.484375 9.65625 26.484375 9.65625 C 26.519531 9.648438 26.621094 9.664062 26.652344 9.652344 C 26.609375 10.097656 26.390625 10.335938 26.210938 10.511719 C 26.199219 10.507812 26.1875 10.503906 26.175781 10.5 C 26.167969 10.441406 26.160156 10.40625 26.160156 10.40625 C 26.160156 10.433594 26.15625 10.460938 26.148438 10.488281 C 25.792969 10.355469 25.203125 10.261719 24.621094 10.210938 C 24.835938 9.890625 24.984375 9.703125 25.082031 9.46875 C 25.582031 9.476562 25.847656 9.554688 26.667969 9.515625 C 26.664062 9.515625 26.667969 9.527344 26.667969 9.53125 Z M 26.667969 9.53125 "/>
<path style=" stroke:none;fill-rule:nonzero;fill:rgb(100%,100%,100%);fill-opacity:1;" d="M 17.207031 8.628906 C 17.207031 8.625 17.207031 8.625 17.207031 8.621094 C 17.207031 8.542969 17.167969 8.492188 17.082031 8.460938 C 17.015625 8.4375 16.917969 8.425781 16.785156 8.425781 L 16.273438 8.425781 C 16.164062 8.425781 16.066406 8.441406 15.984375 8.472656 C 15.859375 8.519531 15.847656 8.585938 15.847656 8.628906 L 15.847656 9.167969 C 15.847656 9.179688 15.847656 9.21875 15.921875 9.269531 C 15.96875 9.304688 16.023438 9.324219 16.089844 9.34375 C 16.148438 9.355469 16.207031 9.363281 16.273438 9.363281 L 16.6875 9.363281 L 16.6875 9.8125 C 16.6875 9.8125 16.324219 9.8125 16.164062 9.8125 C 16.226562 9.914062 16.289062 10.019531 16.316406 10.0625 C 16.386719 10.0625 16.785156 10.0625 16.785156 10.0625 C 16.886719 10.0625 16.980469 10.039062 17.066406 10.003906 C 17.207031 9.949219 17.207031 9.886719 17.207031 9.859375 L 17.207031 9.171875 C 17.207031 9.171875 17.207031 9.167969 17.207031 9.167969 Z M 16.6875 9.121094 L 16.371094 9.121094 L 16.371094 8.671875 L 16.6875 8.671875 Z M 16.6875 9.121094 "/>
<path style=" stroke:none;fill-rule:nonzero;fill:rgb(100%,100%,100%);fill-opacity:1;" d="M 15.550781 8.476562 C 15.464844 8.445312 15.371094 8.425781 15.269531 8.425781 C 15.269531 8.425781 14.945312 8.425781 14.777344 8.425781 C 14.839844 8.527344 14.90625 8.632812 14.929688 8.671875 C 14.980469 8.671875 15.171875 8.671875 15.171875 8.671875 C 15.171875 8.671875 15.171875 9.925781 15.171875 10.0625 C 15.277344 10.0625 15.589844 10.0625 15.691406 10.0625 C 15.691406 9.925781 15.691406 8.628906 15.691406 8.628906 C 15.691406 8.601562 15.691406 8.535156 15.550781 8.476562 Z M 15.550781 8.476562 "/>
<path style=" stroke:none;fill-rule:nonzero;fill:rgb(100%,100%,100%);fill-opacity:1;" d="M 18.59375 8.460938 C 18.53125 8.4375 18.433594 8.425781 18.300781 8.425781 L 17.785156 8.425781 C 17.675781 8.425781 17.582031 8.441406 17.5 8.472656 C 17.375 8.519531 17.359375 8.585938 17.359375 8.628906 L 17.359375 9.167969 C 17.359375 9.179688 17.359375 9.21875 17.4375 9.269531 C 17.484375 9.304688 17.539062 9.324219 17.605469 9.34375 C 17.664062 9.355469 17.722656 9.363281 17.785156 9.363281 L 18.203125 9.363281 L 18.203125 9.8125 C 18.203125 9.8125 17.835938 9.8125 17.675781 9.8125 C 17.738281 9.914062 17.804688 10.019531 17.828125 10.0625 C 17.898438 10.0625 18.296875 10.0625 18.296875 10.0625 C 18.402344 10.0625 18.496094 10.042969 18.582031 10.003906 C 18.722656 9.949219 18.722656 9.886719 18.722656 9.859375 L 18.722656 8.628906 C 18.722656 8.542969 18.683594 8.492188 18.59375 8.460938 Z M 18.203125 9.121094 L 17.886719 9.121094 L 17.886719 8.671875 L 18.203125 8.671875 Z M 18.203125 9.121094 "/>
<path style=" stroke:none;fill-rule:nonzero;fill:rgb(100%,100%,100%);fill-opacity:1;" d="M 20.089844 10.027344 C 20.1875 9.996094 20.21875 9.945312 20.230469 9.90625 C 20.234375 9.886719 20.234375 9.871094 20.234375 9.859375 L 20.234375 9.410156 C 20.234375 9.402344 20.234375 9.386719 20.195312 9.355469 C 20.164062 9.332031 20.132812 9.320312 20.09375 9.316406 L 20.105469 9.167969 C 20.140625 9.167969 20.175781 9.15625 20.203125 9.136719 C 20.226562 9.121094 20.234375 9.101562 20.234375 9.078125 L 20.234375 8.628906 C 20.234375 8.578125 20.234375 8.425781 19.816406 8.425781 L 19.300781 8.425781 C 18.875 8.425781 18.875 8.578125 18.875 8.628906 L 18.875 9.078125 C 18.875 9.09375 18.878906 9.117188 18.914062 9.132812 C 18.9375 9.152344 18.972656 9.164062 19.015625 9.167969 L 19.015625 9.316406 C 18.976562 9.320312 18.945312 9.332031 18.917969 9.355469 C 18.875 9.382812 18.875 9.402344 18.875 9.410156 L 18.875 9.859375 C 18.875 9.882812 18.875 9.945312 19.019531 10.003906 C 19.109375 10.039062 19.203125 10.0625 19.300781 10.0625 L 19.816406 10.0625 C 19.9375 10.0625 20.027344 10.046875 20.089844 10.027344 Z M 19.71875 9.8125 L 19.394531 9.8125 L 19.394531 9.363281 L 19.71875 9.363281 Z M 19.71875 9.121094 L 19.394531 9.121094 L 19.394531 8.671875 L 19.71875 8.671875 Z M 19.71875 9.121094 "/>
<path style=" stroke:none;fill-rule:nonzero;fill:rgb(100%,100%,100%);fill-opacity:1;" d="M 17.972656 20.769531 C 17.332031 19.941406 17.578125 18.839844 17.578125 18.839844 C 17.472656 19.0625 17.277344 18.839844 17.277344 18.839844 C 17.359375 19.03125 17.46875 20.242188 16.90625 20.691406 C 16.90625 20.691406 17.480469 20.785156 17.480469 20.121094 C 17.480469 20.660156 17.972656 20.769531 17.972656 20.769531 Z M 17.972656 20.769531 "/>
<path style=" stroke:none;fill-rule:nonzero;fill:rgb(100%,100%,100%);fill-opacity:1;" d="M 11.296875 3.183594 L 8.125 3.183594 L 8.125 7.476562 L 11.296875 7.476562 C 11.519531 7.476562 11.730469 7.457031 11.9375 7.414062 C 12.164062 7.371094 12.363281 7.308594 12.53125 7.21875 C 12.695312 7.128906 12.800781 7.03125 12.839844 6.925781 L 12.839844 3.699219 C 12.734375 3.355469 12.21875 3.183594 11.296875 3.183594 Z M 11.558594 6.398438 C 11.4375 6.515625 11.230469 6.519531 11.1875 6.519531 C 11.183594 6.519531 11.179688 6.519531 11.179688 6.519531 L 9.859375 6.519531 L 9.859375 4.132812 L 11.160156 4.132812 C 11.160156 4.132812 11.195312 4.128906 11.246094 4.128906 C 11.34375 4.128906 11.503906 4.136719 11.558594 4.191406 C 11.636719 4.273438 11.617188 4.589844 11.617188 4.589844 L 11.617188 6.066406 C 11.617188 6.066406 11.628906 6.328125 11.558594 6.398438 Z M 11.558594 6.398438 "/>
<path style=" stroke:none;fill-rule:nonzero;fill:rgb(100%,100%,100%);fill-opacity:1;" d="M 17.34375 4.59375 L 17.640625 4.59375 L 17.640625 4.390625 L 15.460938 4.390625 L 15.460938 4.59375 Z M 17.34375 4.59375 "/>
<path style=" stroke:none;fill-rule:nonzero;fill:rgb(100%,100%,100%);fill-opacity:1;" d="M 13.097656 3.660156 L 13.097656 7.476562 L 15.203125 7.476562 L 15.203125 5.800781 L 16.730469 5.800781 L 17.34375 4.851562 L 15.203125 4.851562 L 15.203125 4.132812 L 17.640625 4.132812 L 17.640625 3.84375 C 17.640625 3.8125 17.644531 3.777344 17.648438 3.738281 L 17.648438 3.183594 L 13.097656 3.183594 Z M 13.097656 3.660156 "/>
<path style=" stroke:none;fill-rule:nonzero;fill:rgb(100%,100%,100%);fill-opacity:1;" d="M 11.246094 4.386719 C 11.203125 4.386719 11.175781 4.390625 11.175781 4.390625 L 10.117188 4.390625 L 10.117188 6.261719 L 11.1875 6.261719 C 11.246094 6.261719 11.3125 6.25 11.351562 6.230469 C 11.359375 6.191406 11.363281 6.125 11.359375 6.074219 L 11.359375 4.578125 C 11.363281 4.523438 11.363281 4.449219 11.355469 4.394531 C 11.328125 4.390625 11.292969 4.386719 11.246094 4.386719 Z M 11.230469 4.570312 L 11.230469 6.078125 C 11.230469 6.097656 11.230469 6.113281 11.230469 6.132812 C 11.21875 6.132812 11.203125 6.132812 11.191406 6.132812 L 10.246094 6.132812 L 10.246094 4.519531 L 11.183594 4.519531 C 11.183594 4.519531 11.203125 4.515625 11.234375 4.515625 C 11.234375 4.535156 11.230469 4.554688 11.230469 4.570312 Z M 11.230469 4.570312 "/>
<path style=" stroke:none;fill-rule:nonzero;fill:rgb(100%,100%,100%);fill-opacity:1;" d="M 25.34375 4.390625 L 24.535156 4.390625 C 24.527344 4.390625 24.515625 4.390625 24.507812 4.390625 C 24.507812 4.394531 24.507812 4.402344 24.507812 4.40625 L 24.515625 4.421875 L 24.515625 6.179688 L 24.511719 6.1875 C 24.511719 6.210938 24.511719 6.238281 24.515625 6.261719 C 24.53125 6.265625 24.550781 6.265625 24.570312 6.265625 C 24.597656 6.265625 24.613281 6.265625 24.613281 6.265625 L 24.625 6.261719 L 25.304688 6.261719 L 25.320312 6.265625 C 25.320312 6.265625 25.320312 6.265625 25.324219 6.265625 C 25.34375 6.265625 25.363281 6.261719 25.375 6.257812 C 25.378906 6.234375 25.378906 6.203125 25.378906 6.175781 L 25.378906 4.460938 L 25.382812 4.441406 C 25.382812 4.425781 25.382812 4.410156 25.382812 4.390625 C 25.371094 4.390625 25.355469 4.390625 25.34375 4.390625 Z M 25.25 6.132812 L 24.644531 6.132812 L 24.644531 4.519531 L 25.25 4.519531 Z M 25.25 6.132812 "/>
<path style=" stroke:none;fill-rule:nonzero;fill:rgb(100%,100%,100%);fill-opacity:1;" d="M 26.890625 2.992188 C 26.578125 2.859375 26.148438 2.796875 25.570312 2.796875 L 23.960938 2.796875 C 23.75 2.796875 23.558594 2.804688 23.386719 2.820312 L 23.402344 2.796875 L 19.46875 2.796875 C 19.0625 2.796875 18.695312 2.847656 18.375 2.945312 C 18.25 2.984375 18.136719 3.027344 18.035156 3.078125 L 18.035156 2.796875 L 12.710938 2.796875 L 12.710938 3.03125 C 12.683594 3.019531 12.652344 3.003906 12.621094 2.992188 C 12.308594 2.859375 11.875 2.796875 11.296875 2.796875 L 7.738281 2.796875 L 7.738281 7.863281 L 11.296875 7.863281 C 11.554688 7.863281 11.789062 7.839844 12.011719 7.792969 C 12.269531 7.746094 12.507812 7.667969 12.710938 7.558594 L 12.710938 7.863281 L 15.589844 7.863281 L 15.589844 6.1875 L 16.941406 6.1875 L 17.511719 5.304688 L 17.511719 6.816406 C 17.511719 7.101562 17.664062 7.488281 18.386719 7.707031 C 18.71875 7.8125 19.074219 7.863281 19.46875 7.863281 L 21.675781 7.863281 L 22.109375 7.191406 C 22.21875 7.378906 22.441406 7.574219 22.875 7.703125 C 23.203125 7.8125 23.566406 7.863281 23.960938 7.863281 L 25.570312 7.863281 C 25.988281 7.863281 26.355469 7.816406 26.664062 7.722656 C 27.40625 7.496094 27.515625 7.058594 27.515625 6.816406 L 27.515625 3.84375 C 27.515625 3.625 27.4375 3.222656 26.890625 2.992188 Z M 27.386719 6.816406 C 27.386719 7.066406 27.257812 7.40625 26.628906 7.601562 C 26.328125 7.691406 25.972656 7.734375 25.570312 7.734375 L 23.960938 7.734375 C 23.582031 7.734375 23.226562 7.683594 22.914062 7.582031 C 22.34375 7.410156 22.175781 7.128906 22.144531 6.898438 L 21.679688 7.617188 L 21.605469 7.734375 L 19.46875 7.734375 C 19.085938 7.734375 18.746094 7.6875 18.425781 7.582031 C 17.777344 7.386719 17.640625 7.058594 17.640625 6.816406 L 17.640625 4.867188 L 17.5625 4.992188 L 16.949219 5.941406 L 16.871094 6.058594 L 15.460938 6.058594 L 15.460938 7.734375 L 12.839844 7.734375 L 12.839844 7.320312 C 12.785156 7.363281 12.726562 7.40625 12.65625 7.445312 L 12.652344 7.445312 L 12.648438 7.449219 C 12.457031 7.546875 12.234375 7.621094 11.988281 7.667969 C 11.773438 7.714844 11.546875 7.734375 11.296875 7.734375 L 7.867188 7.734375 L 7.867188 2.925781 L 11.296875 2.925781 C 11.859375 2.925781 12.277344 2.984375 12.570312 3.109375 C 12.679688 3.15625 12.769531 3.210938 12.839844 3.265625 L 12.839844 2.925781 L 17.90625 2.925781 L 17.90625 3.316406 C 18.023438 3.222656 18.183594 3.136719 18.410156 3.070312 C 18.71875 2.972656 19.074219 2.925781 19.46875 2.925781 L 23.167969 2.925781 L 23.128906 2.988281 C 23.359375 2.945312 23.636719 2.925781 23.964844 2.925781 L 25.570312 2.925781 C 26.128906 2.925781 26.546875 2.984375 26.839844 3.109375 C 27.292969 3.300781 27.386719 3.617188 27.386719 3.84375 Z M 27.386719 6.816406 "/>
<path style=" stroke:none;fill-rule:nonzero;fill:rgb(100%,100%,100%);fill-opacity:1;" d="M 25.570312 3.183594 L 23.960938 3.183594 C 23.523438 3.183594 23.179688 3.222656 22.925781 3.300781 C 22.574219 3.40625 22.394531 3.589844 22.394531 3.84375 L 22.394531 6.816406 C 22.394531 7.039062 22.59375 7.214844 22.992188 7.335938 C 23.285156 7.433594 23.609375 7.476562 23.960938 7.476562 L 25.570312 7.476562 C 25.949219 7.476562 26.277344 7.4375 26.550781 7.351562 C 26.9375 7.234375 27.128906 7.058594 27.128906 6.816406 L 27.128906 3.84375 C 27.128906 3.402344 26.609375 3.183594 25.570312 3.183594 Z M 25.578125 6.429688 C 25.5 6.511719 25.378906 6.523438 25.324219 6.523438 C 25.308594 6.523438 25.296875 6.519531 25.296875 6.519531 L 24.636719 6.519531 C 24.636719 6.519531 24.609375 6.523438 24.570312 6.523438 C 24.496094 6.523438 24.371094 6.515625 24.316406 6.457031 C 24.242188 6.382812 24.257812 6.171875 24.257812 6.171875 L 24.257812 4.453125 C 24.257812 4.453125 24.222656 4.285156 24.316406 4.191406 C 24.375 4.136719 24.5 4.132812 24.535156 4.132812 C 24.542969 4.132812 24.542969 4.132812 24.542969 4.132812 L 25.339844 4.132812 C 25.339844 4.132812 25.34375 4.132812 25.34375 4.132812 C 25.359375 4.132812 25.515625 4.132812 25.578125 4.191406 C 25.660156 4.277344 25.636719 4.46875 25.636719 4.46875 L 25.636719 6.171875 C 25.636719 6.171875 25.640625 6.371094 25.578125 6.429688 Z M 25.578125 6.429688 "/>
<path style=" stroke:none;fill-rule:nonzero;fill:rgb(100%,100%,100%);fill-opacity:1;" d="M 19.46875 3.183594 C 19.101562 3.183594 18.773438 3.226562 18.488281 3.316406 C 18.140625 3.417969 17.945312 3.570312 17.90625 3.765625 L 17.90625 4.390625 L 17.898438 4.390625 L 17.898438 6.816406 C 17.898438 7.039062 18.097656 7.214844 18.5 7.335938 C 18.796875 7.433594 19.117188 7.476562 19.46875 7.476562 L 21.464844 7.476562 L 22.082031 6.519531 L 20.003906 6.519531 L 20.003906 4.132812 L 22.082031 4.132812 L 22.136719 4.042969 L 22.136719 3.84375 C 22.136719 3.640625 22.210938 3.375 22.542969 3.183594 Z M 19.46875 3.183594 "/>
<path style=" stroke:none;fill-rule:nonzero;fill:rgb(100%,100%,100%);fill-opacity:1;" d="M 20.261719 4.390625 L 20.261719 6.261719 L 22.136719 6.261719 L 22.136719 4.390625 Z M 22.007812 6.132812 L 20.390625 6.132812 L 20.390625 4.519531 L 22.007812 4.519531 Z M 22.007812 6.132812 "/>
</g>
</svg>
