<?xml version="1.0" encoding="UTF-8"?>
<svg xmlns="http://www.w3.org/2000/svg" xmlns:xlink="http://www.w3.org/1999/xlink" width="35pt" height="25pt" viewBox="0 0 35 25" version="1.1">
<g id="surface1">
<path style="fill:none;stroke-width:1.036862;stroke-linecap:butt;stroke-linejoin:miter;stroke:rgb(49.411765%,76.862745%,85.098039%);stroke-opacity:1;stroke-miterlimit:2.6131;" d="M 430.468751 477.96875 L 69.531251 477.96875 L 69.531251 22.03125 L 430.468751 22.03125 Z M 430.468751 477.96875 " transform="matrix(0.05,0,0,0.05,4.75,0.00000000125)"/>
<path style=" stroke:none;fill-rule:evenodd;fill:rgb(31.764706%,43.137255%,65.882353%);fill-opacity:1;" d="M 9.910156 22.855469 C 9.910156 22.855469 10.617188 23.023438 11.15625 23.023438 C 13.140625 23.023438 12.703125 22.316406 14.117188 22.316406 C 15.296875 22.316406 16.105469 23.023438 17.519531 23.023438 C 18.664062 23.023438 19.203125 22.316406 20.75 22.316406 C 22.164062 22.316406 23.546875 23.125 23.546875 23.125 L 23.75 22.777344 C 23.691406 22.742188 22.257812 21.914062 20.75 21.914062 C 19.84375 21.914062 19.253906 22.136719 18.734375 22.332031 C 18.328125 22.488281 17.976562 22.621094 17.519531 22.621094 C 16.847656 22.621094 16.308594 22.4375 15.789062 22.261719 C 15.277344 22.089844 14.746094 21.914062 14.117188 21.914062 C 13.363281 21.914062 13.027344 22.105469 12.730469 22.273438 C 12.417969 22.453125 12.125 22.621094 11.15625 22.621094 C 10.671875 22.621094 10.007812 22.464844 10.003906 22.460938 Z M 9.910156 22.855469 "/>
<path style=" stroke:none;fill-rule:evenodd;fill:rgb(13.72549%,38.823529%,67.058824%);fill-opacity:1;" d="M 11.121094 15.59375 C 11.121094 15.59375 11.828125 15.761719 12.367188 15.761719 C 14.355469 15.761719 13.917969 15.054688 15.332031 15.054688 C 16.507812 15.054688 17.316406 15.761719 18.730469 15.761719 C 19.875 15.761719 20.414062 15.054688 21.964844 15.054688 C 23.378906 15.054688 24.757812 15.863281 24.757812 15.863281 L 24.964844 15.515625 C 24.902344 15.480469 23.46875 14.652344 21.964844 14.652344 C 21.058594 14.652344 20.46875 14.875 19.949219 15.070312 C 19.539062 15.226562 19.1875 15.359375 18.730469 15.359375 C 18.058594 15.359375 17.519531 15.175781 17 15 C 16.488281 14.828125 15.960938 14.652344 15.332031 14.652344 C 14.578125 14.652344 14.238281 14.84375 13.941406 15.011719 C 13.632812 15.191406 13.335938 15.359375 12.367188 15.359375 C 11.882812 15.359375 11.222656 15.203125 11.214844 15.199219 Z M 11.121094 15.59375 "/>
<path style=" stroke:none;fill-rule:evenodd;fill:rgb(60%,68.235294%,81.960784%);fill-opacity:1;" d="M 11.390625 14.515625 C 11.390625 14.515625 12.097656 14.683594 12.636719 14.683594 C 14.625 14.683594 14.1875 13.980469 15.601562 13.980469 C 16.777344 13.980469 17.585938 14.683594 19 14.683594 C 20.144531 14.683594 20.683594 13.980469 22.234375 13.980469 C 23.648438 13.980469 25.027344 14.785156 25.027344 14.785156 L 25.230469 14.4375 C 25.171875 14.402344 23.738281 13.574219 22.234375 13.574219 C 21.328125 13.574219 20.738281 13.796875 20.21875 13.996094 C 19.808594 14.148438 19.457031 14.28125 19 14.28125 C 18.328125 14.28125 17.789062 14.101562 17.269531 13.925781 C 16.757812 13.753906 16.230469 13.574219 15.601562 13.574219 C 14.84375 13.574219 14.507812 13.769531 14.210938 13.9375 C 13.902344 14.113281 13.605469 14.28125 12.636719 14.28125 C 12.152344 14.28125 11.492188 14.125 11.484375 14.125 Z M 11.390625 14.515625 "/>
<path style=" stroke:none;fill-rule:evenodd;fill:rgb(0%,0%,0%);fill-opacity:1;" d="M 13.359375 17.429688 L 13.597656 16.132812 L 15.207031 16.132812 L 14.480469 20.058594 L 12.871094 20.058594 L 13.117188 18.726562 L 12.179688 18.726562 L 11.933594 20.058594 L 10.324219 20.058594 L 11.046875 16.132812 L 12.660156 16.132812 L 12.417969 17.429688 Z M 13.359375 17.429688 "/>
<path style=" stroke:none;fill-rule:evenodd;fill:rgb(0%,0%,0%);fill-opacity:1;" d="M 17.472656 16.132812 L 19.347656 16.132812 L 20.234375 20.058594 L 18.433594 20.058594 L 18.386719 19.582031 L 17.222656 19.582031 L 17.007812 20.058594 L 15.195312 20.058594 Z M 17.65625 18.628906 L 18.292969 18.628906 L 18.179688 17.472656 Z M 17.65625 18.628906 "/>
<path style=" stroke:none;fill-rule:evenodd;fill:rgb(0%,0%,0%);fill-opacity:1;" d="M 23.4375 16.0625 C 22.328125 16.0625 20.710938 16.878906 20.710938 18.507812 C 20.710938 19.410156 21.449219 20.125 22.699219 20.125 C 23.714844 20.125 23.890625 19.921875 23.890625 19.921875 L 24.160156 18.464844 C 24.160156 18.464844 23.671875 18.835938 23.15625 18.835938 C 22.695312 18.835938 22.417969 18.472656 22.417969 18.226562 C 22.417969 17.789062 22.917969 17.363281 23.410156 17.363281 C 23.847656 17.363281 24.292969 17.742188 24.292969 17.742188 L 24.570312 16.253906 C 24.570312 16.253906 24.167969 16.0625 23.4375 16.0625 Z M 23.4375 16.0625 "/>
<path style=" stroke:none;fill-rule:evenodd;fill:rgb(0%,0%,0%);fill-opacity:1;" d="M 11.132812 20.953125 L 11.199219 20.523438 L 11.320312 20.523438 L 11.15625 21.582031 L 11.035156 21.582031 L 11.117188 21.054688 L 10.496094 21.054688 L 10.414062 21.582031 L 10.289062 21.582031 L 10.453125 20.523438 L 10.578125 20.523438 L 10.511719 20.953125 Z M 11.132812 20.953125 "/>
<path style=" stroke:none;fill-rule:evenodd;fill:rgb(0%,0%,0%);fill-opacity:1;" d="M 12.027344 21.582031 L 11.945312 21.582031 L 11.957031 21.488281 C 11.886719 21.5625 11.800781 21.597656 11.703125 21.597656 C 11.617188 21.597656 11.546875 21.570312 11.488281 21.515625 C 11.433594 21.457031 11.40625 21.386719 11.40625 21.296875 C 11.40625 21.195312 11.441406 21.109375 11.515625 21.035156 C 11.589844 20.960938 11.675781 20.925781 11.773438 20.925781 C 11.828125 20.925781 11.875 20.9375 11.914062 20.957031 C 11.953125 20.980469 11.988281 21.015625 12.015625 21.0625 L 12.03125 20.941406 L 12.117188 20.941406 Z M 11.714844 21.523438 C 11.765625 21.523438 11.8125 21.511719 11.859375 21.488281 C 11.902344 21.460938 11.933594 21.425781 11.960938 21.378906 C 11.988281 21.332031 12 21.28125 12 21.226562 C 12 21.160156 11.976562 21.105469 11.9375 21.0625 C 11.894531 21.023438 11.839844 21 11.773438 21 C 11.695312 21 11.625 21.03125 11.570312 21.085938 C 11.515625 21.144531 11.488281 21.214844 11.488281 21.296875 C 11.488281 21.367188 11.507812 21.421875 11.550781 21.460938 C 11.589844 21.503906 11.644531 21.523438 11.714844 21.523438 Z M 11.714844 21.523438 "/>
<path style=" stroke:none;fill-rule:evenodd;fill:rgb(0%,0%,0%);fill-opacity:1;" d="M 12.554688 21.582031 L 12.539062 21.582031 L 12.316406 20.941406 L 12.402344 20.941406 L 12.5625 21.410156 L 12.832031 20.941406 L 12.921875 20.941406 Z M 12.554688 21.582031 "/>
<path style=" stroke:none;fill-rule:evenodd;fill:rgb(0%,0%,0%);fill-opacity:1;" d="M 13.121094 20.941406 L 13.203125 20.941406 L 13.191406 21.023438 C 13.214844 20.992188 13.238281 20.96875 13.269531 20.949219 C 13.304688 20.933594 13.335938 20.925781 13.367188 20.925781 C 13.390625 20.925781 13.414062 20.929688 13.441406 20.941406 L 13.402344 21.015625 C 13.382812 21.007812 13.363281 21.003906 13.351562 21.003906 C 13.320312 21.003906 13.292969 21.015625 13.265625 21.035156 C 13.238281 21.054688 13.214844 21.082031 13.195312 21.121094 C 13.179688 21.160156 13.164062 21.222656 13.152344 21.3125 L 13.113281 21.582031 L 13.035156 21.582031 Z M 13.121094 20.941406 "/>
<path style=" stroke:none;fill-rule:evenodd;fill:rgb(0%,0%,0%);fill-opacity:1;" d="M 14.183594 21.277344 L 13.609375 21.277344 C 13.609375 21.355469 13.628906 21.414062 13.671875 21.460938 C 13.710938 21.503906 13.765625 21.523438 13.832031 21.523438 C 13.878906 21.523438 13.921875 21.515625 13.957031 21.496094 C 13.996094 21.476562 14.027344 21.453125 14.054688 21.417969 L 14.117188 21.464844 C 14.085938 21.507812 14.042969 21.539062 13.992188 21.5625 C 13.945312 21.585938 13.890625 21.597656 13.832031 21.597656 C 13.730469 21.597656 13.65625 21.566406 13.605469 21.503906 C 13.554688 21.441406 13.53125 21.375 13.53125 21.296875 C 13.53125 21.230469 13.546875 21.171875 13.582031 21.113281 C 13.613281 21.054688 13.660156 21.007812 13.71875 20.972656 C 13.773438 20.941406 13.835938 20.925781 13.902344 20.925781 C 13.984375 20.925781 14.050781 20.953125 14.105469 21.007812 C 14.160156 21.0625 14.1875 21.132812 14.1875 21.21875 C 14.1875 21.234375 14.183594 21.253906 14.183594 21.277344 Z M 14.105469 21.207031 C 14.105469 21.148438 14.085938 21.097656 14.046875 21.0625 C 14.007812 21.023438 13.957031 21.003906 13.898438 21.003906 C 13.835938 21.003906 13.777344 21.023438 13.730469 21.058594 C 13.679688 21.09375 13.644531 21.144531 13.625 21.207031 Z M 14.105469 21.207031 "/>
<path style=" stroke:none;fill-rule:evenodd;fill:rgb(0%,0%,0%);fill-opacity:1;" d="M 15.472656 20.523438 L 15.875 21.582031 L 15.75 21.582031 L 15.617188 21.238281 L 15.121094 21.238281 L 14.898438 21.582031 L 14.761719 21.582031 L 15.445312 20.523438 Z M 15.433594 20.753906 L 15.1875 21.136719 L 15.578125 21.136719 Z M 15.433594 20.753906 "/>
<path style=" stroke:none;fill-rule:evenodd;fill:rgb(0%,0%,0%);fill-opacity:1;" d="M 16.300781 20.941406 L 16.292969 21.011719 L 16.164062 21.011719 L 16.085938 21.582031 L 16.003906 21.582031 L 16.082031 21.011719 L 15.972656 21.011719 L 15.980469 20.941406 L 16.089844 20.941406 L 16.125 20.703125 L 16.207031 20.703125 L 16.171875 20.941406 Z M 16.300781 20.941406 "/>
<path style=" stroke:none;fill-rule:evenodd;fill:rgb(0%,0%,0%);fill-opacity:1;" d="M 16.867188 20.984375 C 16.824219 20.945312 16.773438 20.925781 16.707031 20.925781 C 16.621094 20.925781 16.546875 20.964844 16.480469 21.039062 L 16.527344 20.695312 L 16.5625 20.417969 L 16.484375 20.417969 L 16.324219 21.582031 L 16.40625 21.582031 L 16.445312 21.304688 C 16.457031 21.222656 16.472656 21.160156 16.492188 21.125 C 16.511719 21.085938 16.539062 21.054688 16.578125 21.03125 C 16.617188 21.011719 16.65625 21 16.695312 21 C 16.742188 21 16.777344 21.011719 16.804688 21.039062 C 16.832031 21.066406 16.847656 21.101562 16.847656 21.148438 C 16.847656 21.179688 16.84375 21.230469 16.835938 21.289062 L 16.796875 21.582031 L 16.878906 21.582031 L 16.917969 21.289062 C 16.925781 21.226562 16.929688 21.179688 16.929688 21.144531 C 16.929688 21.078125 16.910156 21.027344 16.867188 20.984375 Z M 16.867188 20.984375 "/>
<path style=" stroke:none;fill-rule:evenodd;fill:rgb(0%,0%,0%);fill-opacity:1;" d="M 17.410156 20.417969 L 17.332031 20.417969 L 17.171875 21.582031 L 17.253906 21.582031 Z M 17.410156 20.417969 "/>
<path style=" stroke:none;fill-rule:evenodd;fill:rgb(0%,0%,0%);fill-opacity:1;" d="M 18.207031 21.277344 L 17.636719 21.277344 C 17.636719 21.355469 17.65625 21.414062 17.695312 21.460938 C 17.738281 21.503906 17.792969 21.523438 17.859375 21.523438 C 17.90625 21.523438 17.945312 21.515625 17.984375 21.496094 C 18.023438 21.476562 18.054688 21.453125 18.078125 21.417969 L 18.140625 21.464844 C 18.109375 21.507812 18.070312 21.539062 18.019531 21.5625 C 17.96875 21.585938 17.914062 21.597656 17.859375 21.597656 C 17.757812 21.597656 17.683594 21.566406 17.632812 21.503906 C 17.582031 21.441406 17.554688 21.375 17.554688 21.296875 C 17.554688 21.230469 17.574219 21.171875 17.605469 21.113281 C 17.640625 21.054688 17.6875 21.007812 17.742188 20.972656 C 17.800781 20.941406 17.863281 20.925781 17.929688 20.925781 C 18.011719 20.925781 18.078125 20.953125 18.132812 21.007812 C 18.1875 21.0625 18.210938 21.132812 18.210938 21.21875 C 18.210938 21.234375 18.210938 21.253906 18.207031 21.277344 Z M 18.132812 21.207031 C 18.128906 21.148438 18.109375 21.097656 18.070312 21.0625 C 18.03125 21.023438 17.984375 21.003906 17.925781 21.003906 C 17.859375 21.003906 17.804688 21.023438 17.753906 21.058594 C 17.707031 21.09375 17.671875 21.144531 17.652344 21.207031 Z M 18.132812 21.207031 "/>
<path style=" stroke:none;fill-rule:evenodd;fill:rgb(0%,0%,0%);fill-opacity:1;" d="M 18.652344 20.941406 L 18.644531 21.011719 L 18.515625 21.011719 L 18.4375 21.582031 L 18.355469 21.582031 L 18.433594 21.011719 L 18.324219 21.011719 L 18.332031 20.941406 L 18.441406 20.941406 L 18.476562 20.703125 L 18.554688 20.703125 L 18.523438 20.941406 Z M 18.652344 20.941406 "/>
<path style=" stroke:none;fill-rule:evenodd;fill:rgb(0%,0%,0%);fill-opacity:1;" d="M 18.8125 20.941406 L 18.890625 20.941406 L 18.804688 21.582031 L 18.726562 21.582031 Z M 18.875 20.679688 C 18.894531 20.679688 18.910156 20.683594 18.921875 20.699219 C 18.9375 20.710938 18.941406 20.726562 18.941406 20.742188 C 18.941406 20.761719 18.9375 20.777344 18.921875 20.792969 C 18.910156 20.804688 18.894531 20.8125 18.875 20.8125 C 18.859375 20.8125 18.84375 20.804688 18.828125 20.792969 C 18.816406 20.777344 18.808594 20.761719 18.808594 20.742188 C 18.808594 20.726562 18.816406 20.710938 18.828125 20.699219 C 18.84375 20.683594 18.859375 20.679688 18.875 20.679688 Z M 18.875 20.679688 "/>
<path style=" stroke:none;fill-rule:evenodd;fill:rgb(0%,0%,0%);fill-opacity:1;" d="M 19.753906 21.082031 L 19.683594 21.121094 C 19.636719 21.042969 19.566406 21.003906 19.46875 21.003906 C 19.410156 21.003906 19.359375 21.015625 19.3125 21.042969 C 19.265625 21.066406 19.230469 21.101562 19.203125 21.148438 C 19.175781 21.191406 19.164062 21.242188 19.164062 21.292969 C 19.164062 21.335938 19.171875 21.378906 19.191406 21.414062 C 19.210938 21.449219 19.238281 21.476562 19.277344 21.496094 C 19.3125 21.515625 19.351562 21.523438 19.402344 21.523438 C 19.449219 21.523438 19.496094 21.515625 19.542969 21.496094 C 19.585938 21.476562 19.621094 21.449219 19.648438 21.417969 L 19.714844 21.464844 C 19.671875 21.511719 19.628906 21.546875 19.578125 21.566406 C 19.527344 21.589844 19.46875 21.597656 19.40625 21.597656 C 19.304688 21.597656 19.222656 21.570312 19.167969 21.515625 C 19.109375 21.460938 19.082031 21.386719 19.082031 21.296875 C 19.082031 21.195312 19.121094 21.105469 19.195312 21.035156 C 19.269531 20.960938 19.359375 20.925781 19.46875 20.925781 C 19.53125 20.925781 19.589844 20.9375 19.640625 20.964844 C 19.6875 20.992188 19.726562 21.03125 19.753906 21.082031 Z M 19.753906 21.082031 "/>
<path style=" stroke:none;fill-rule:evenodd;fill:rgb(0%,0%,0%);fill-opacity:1;" d="M 21.539062 20.671875 L 21.472656 20.757812 C 21.363281 20.652344 21.234375 20.601562 21.09375 20.601562 C 21 20.601562 20.914062 20.625 20.832031 20.667969 C 20.75 20.714844 20.6875 20.777344 20.640625 20.851562 C 20.597656 20.929688 20.574219 21.011719 20.574219 21.101562 C 20.574219 21.179688 20.589844 21.25 20.625 21.3125 C 20.660156 21.371094 20.710938 21.421875 20.777344 21.457031 C 20.84375 21.492188 20.921875 21.507812 21.003906 21.507812 C 21.136719 21.507812 21.257812 21.464844 21.371094 21.382812 L 21.429688 21.464844 C 21.34375 21.523438 21.273438 21.558594 21.210938 21.578125 C 21.152344 21.597656 21.082031 21.609375 21.003906 21.609375 C 20.859375 21.609375 20.738281 21.570312 20.648438 21.5 C 20.523438 21.398438 20.464844 21.269531 20.464844 21.105469 C 20.464844 20.9375 20.523438 20.792969 20.648438 20.675781 C 20.769531 20.558594 20.921875 20.5 21.101562 20.5 C 21.183594 20.5 21.261719 20.511719 21.328125 20.539062 C 21.394531 20.566406 21.464844 20.609375 21.539062 20.671875 Z M 21.539062 20.671875 "/>
<path style=" stroke:none;fill-rule:evenodd;fill:rgb(0%,0%,0%);fill-opacity:1;" d="M 21.882812 20.417969 L 21.800781 20.417969 L 21.644531 21.582031 L 21.726562 21.582031 Z M 21.882812 20.417969 "/>
<path style=" stroke:none;fill-rule:evenodd;fill:rgb(0%,0%,0%);fill-opacity:1;" d="M 22.070312 20.941406 L 22.15625 20.941406 L 22.117188 21.210938 C 22.105469 21.289062 22.101562 21.339844 22.101562 21.359375 C 22.101562 21.40625 22.113281 21.445312 22.144531 21.476562 C 22.175781 21.507812 22.214844 21.523438 22.261719 21.523438 C 22.304688 21.523438 22.339844 21.511719 22.371094 21.488281 C 22.398438 21.464844 22.421875 21.433594 22.433594 21.394531 C 22.441406 21.375 22.449219 21.332031 22.457031 21.261719 L 22.5 20.941406 L 22.582031 20.941406 L 22.550781 21.183594 C 22.535156 21.300781 22.519531 21.382812 22.503906 21.429688 C 22.488281 21.480469 22.457031 21.519531 22.414062 21.550781 C 22.371094 21.582031 22.320312 21.597656 22.257812 21.597656 C 22.1875 21.597656 22.132812 21.578125 22.085938 21.53125 C 22.042969 21.484375 22.019531 21.429688 22.019531 21.359375 C 22.019531 21.332031 22.023438 21.300781 22.027344 21.265625 L 22.035156 21.210938 L 22.039062 21.1875 Z M 22.070312 20.941406 "/>
<path style=" stroke:none;fill-rule:evenodd;fill:rgb(0%,0%,0%);fill-opacity:1;" d="M 23.40625 21.007812 C 23.351562 20.953125 23.28125 20.925781 23.195312 20.925781 C 23.097656 20.925781 23.015625 20.960938 22.941406 21.039062 L 23.023438 20.417969 C 23.023438 20.417969 22.941406 20.417969 22.941406 20.421875 L 22.9375 20.421875 L 22.78125 21.582031 L 22.867188 21.582031 L 22.882812 21.460938 C 22.910156 21.507812 22.945312 21.542969 22.984375 21.566406 C 23.027344 21.585938 23.074219 21.597656 23.125 21.597656 C 23.222656 21.597656 23.308594 21.5625 23.382812 21.488281 C 23.457031 21.414062 23.492188 21.328125 23.492188 21.226562 C 23.492188 21.136719 23.464844 21.066406 23.40625 21.007812 Z M 23.328125 21.4375 C 23.269531 21.492188 23.203125 21.523438 23.125 21.523438 C 23.058594 21.523438 23.003906 21.5 22.960938 21.460938 C 22.925781 21.425781 22.90625 21.378906 22.902344 21.328125 C 22.898438 21.316406 22.898438 21.308594 22.898438 21.296875 C 22.898438 21.285156 22.898438 21.273438 22.898438 21.261719 C 22.902344 21.257812 22.902344 21.253906 22.902344 21.25 C 22.902344 21.242188 22.90625 21.234375 22.90625 21.226562 C 22.90625 21.222656 22.910156 21.21875 22.910156 21.210938 C 22.910156 21.203125 22.914062 21.199219 22.917969 21.191406 C 22.917969 21.1875 22.917969 21.183594 22.921875 21.179688 C 22.925781 21.167969 22.929688 21.15625 22.9375 21.144531 C 22.960938 21.097656 22.996094 21.0625 23.039062 21.035156 C 23.082031 21.011719 23.132812 21 23.183594 21 C 23.25 21 23.304688 21.019531 23.347656 21.0625 C 23.390625 21.101562 23.410156 21.160156 23.410156 21.226562 C 23.410156 21.308594 23.382812 21.378906 23.328125 21.4375 Z M 23.328125 21.4375 "/>
<path style=" stroke:none;fill-rule:evenodd;fill:rgb(42.352941%,62.745098%,78.431373%);fill-opacity:1;" d="M 25.5 13.226562 C 25.441406 13.191406 24.007812 12.367188 22.503906 12.367188 C 21.628906 12.367188 20.890625 12.609375 20.238281 12.824219 C 19.667969 13.011719 19.132812 13.1875 18.566406 13.1875 C 18.347656 13.195312 17.703125 13.21875 17.359375 12.886719 C 17.195312 12.726562 17.046875 12.632812 17.046875 12.164062 C 17.046875 10.886719 18.847656 9.894531 18.847656 9.894531 C 18.847656 9.894531 16.710938 10.785156 16.710938 12.164062 C 16.710938 13.660156 18.578125 13.59375 18.578125 13.59375 C 19.875 13.59375 20.953125 12.769531 22.503906 12.769531 C 23.917969 12.769531 25.296875 13.574219 25.296875 13.574219 Z M 25.5 13.226562 "/>
<path style=" stroke:none;fill-rule:evenodd;fill:rgb(42.352941%,62.745098%,78.431373%);fill-opacity:1;" d="M 14.480469 12.726562 C 14.347656 12.863281 13.875 13.070312 12.90625 13.070312 C 12.421875 13.070312 11.761719 12.914062 11.753906 12.914062 L 11.660156 13.308594 C 11.660156 13.308594 12.636719 13.476562 12.90625 13.476562 C 13.765625 13.476562 16.375 13.171875 16.542969 9.238281 C 16.542969 8.699219 16.410156 8.128906 16.410156 8.128906 C 16.410156 8.128906 16.644531 11.8125 14.480469 12.726562 Z M 14.480469 12.726562 "/>
<path style=" stroke:none;fill-rule:evenodd;fill:rgb(42.352941%,62.745098%,78.431373%);fill-opacity:1;" d="M 16.238281 12.921875 C 16.238281 13.113281 16.082031 13.273438 15.886719 13.273438 C 15.691406 13.273438 15.53125 13.113281 15.53125 12.921875 C 15.53125 12.726562 15.691406 12.566406 15.886719 12.566406 C 16.082031 12.566406 16.238281 12.726562 16.238281 12.921875 Z M 16.238281 12.921875 "/>
<path style=" stroke:none;fill-rule:evenodd;fill:rgb(42.352941%,62.745098%,78.431373%);fill-opacity:1;" d="M 18.613281 12.652344 C 18.613281 12.863281 18.441406 13.039062 18.226562 13.039062 C 18.011719 13.039062 17.839844 12.863281 17.839844 12.652344 C 17.839844 12.4375 18.011719 12.265625 18.226562 12.265625 C 18.441406 12.265625 18.613281 12.4375 18.613281 12.652344 Z M 18.613281 12.652344 "/>
<path style=" stroke:none;fill-rule:evenodd;fill:rgb(42.352941%,62.745098%,78.431373%);fill-opacity:1;" d="M 15.398438 9.84375 C 15.398438 9.957031 15.308594 10.046875 15.195312 10.046875 C 15.085938 10.046875 14.992188 9.957031 14.992188 9.84375 C 14.992188 9.734375 15.085938 9.640625 15.195312 9.640625 C 15.308594 9.640625 15.398438 9.734375 15.398438 9.84375 Z M 15.398438 9.84375 "/>
<path style=" stroke:none;fill-rule:evenodd;fill:rgb(42.352941%,62.745098%,78.431373%);fill-opacity:1;" d="M 18.34375 11.257812 C 18.34375 11.386719 18.238281 11.492188 18.109375 11.492188 C 17.976562 11.492188 17.871094 11.386719 17.871094 11.257812 C 17.871094 11.125 17.976562 11.019531 18.109375 11.019531 C 18.238281 11.019531 18.34375 11.125 18.34375 11.257812 Z M 18.34375 11.257812 "/>
<path style=" stroke:none;fill-rule:evenodd;fill:rgb(42.352941%,62.745098%,78.431373%);fill-opacity:1;" d="M 19.289062 10.640625 C 19.289062 10.730469 19.214844 10.800781 19.128906 10.800781 C 19.039062 10.800781 18.96875 10.730469 18.96875 10.640625 C 18.96875 10.554688 19.039062 10.484375 19.128906 10.484375 C 19.214844 10.484375 19.289062 10.554688 19.289062 10.640625 Z M 19.289062 10.640625 "/>
<path style=" stroke:none;fill-rule:evenodd;fill:rgb(42.352941%,62.745098%,78.431373%);fill-opacity:1;" d="M 18.105469 9.4375 C 18.105469 9.539062 18.023438 9.621094 17.921875 9.621094 C 17.820312 9.621094 17.738281 9.539062 17.738281 9.4375 C 17.738281 9.335938 17.820312 9.253906 17.921875 9.253906 C 18.023438 9.253906 18.105469 9.335938 18.105469 9.4375 Z M 18.105469 9.4375 "/>
<path style=" stroke:none;fill-rule:evenodd;fill:rgb(42.352941%,62.745098%,78.431373%);fill-opacity:1;" d="M 20.515625 9.675781 C 20.515625 9.816406 20.402344 9.929688 20.265625 9.929688 C 20.125 9.929688 20.011719 9.816406 20.011719 9.675781 C 20.011719 9.535156 20.125 9.421875 20.265625 9.421875 C 20.402344 9.421875 20.515625 9.535156 20.515625 9.675781 Z M 20.515625 9.675781 "/>
<path style=" stroke:none;fill-rule:evenodd;fill:rgb(42.352941%,62.745098%,78.431373%);fill-opacity:1;" d="M 15.921875 7.238281 C 15.921875 7.367188 15.8125 7.472656 15.683594 7.472656 C 15.554688 7.472656 15.449219 7.367188 15.449219 7.238281 C 15.449219 7.109375 15.554688 7.003906 15.683594 7.003906 C 15.8125 7.003906 15.921875 7.109375 15.921875 7.238281 Z M 15.921875 7.238281 "/>
<path style=" stroke:none;fill-rule:evenodd;fill:rgb(42.352941%,62.745098%,78.431373%);fill-opacity:1;" d="M 15.363281 6.3125 C 15.363281 6.40625 15.289062 6.480469 15.195312 6.480469 C 15.101562 6.480469 15.027344 6.40625 15.027344 6.3125 C 15.027344 6.222656 15.101562 6.144531 15.195312 6.144531 C 15.289062 6.144531 15.363281 6.222656 15.363281 6.3125 Z M 15.363281 6.3125 "/>
<path style=" stroke:none;fill-rule:evenodd;fill:rgb(42.352941%,62.745098%,78.431373%);fill-opacity:1;" d="M 14.757812 5.523438 C 14.757812 5.609375 14.691406 5.675781 14.605469 5.675781 C 14.523438 5.675781 14.457031 5.609375 14.457031 5.523438 C 14.457031 5.441406 14.523438 5.371094 14.605469 5.371094 C 14.691406 5.371094 14.757812 5.441406 14.757812 5.523438 Z M 14.757812 5.523438 "/>
<path style=" stroke:none;fill-rule:evenodd;fill:rgb(42.352941%,62.745098%,78.431373%);fill-opacity:1;" d="M 21.558594 9.851562 C 21.558594 9.960938 21.472656 10.046875 21.367188 10.046875 C 21.257812 10.046875 21.171875 9.960938 21.171875 9.851562 C 21.171875 9.746094 21.257812 9.660156 21.367188 9.660156 C 21.472656 9.660156 21.558594 9.746094 21.558594 9.851562 Z M 21.558594 9.851562 "/>
<path style=" stroke:none;fill-rule:evenodd;fill:rgb(42.352941%,62.745098%,78.431373%);fill-opacity:1;" d="M 22.285156 10.230469 C 22.285156 10.304688 22.222656 10.363281 22.148438 10.363281 C 22.074219 10.363281 22.015625 10.304688 22.015625 10.230469 C 22.015625 10.15625 22.074219 10.097656 22.148438 10.097656 C 22.222656 10.097656 22.285156 10.15625 22.285156 10.230469 Z M 22.285156 10.230469 "/>
<path style=" stroke:none;fill-rule:evenodd;fill:rgb(0%,0%,0%);fill-opacity:1;" d="M 16.128906 5.3125 C 16.128906 7.296875 17.746094 8.914062 19.734375 8.914062 C 21.722656 8.914062 23.339844 7.296875 23.339844 5.3125 C 23.339844 3.328125 21.722656 1.714844 19.734375 1.714844 C 17.746094 1.714844 16.128906 3.328125 16.128906 5.3125 Z M 16.128906 5.3125 "/>
<path style=" stroke:none;fill-rule:evenodd;fill:rgb(100%,100%,100%);fill-opacity:1;" d="M 16.292969 5.3125 C 16.292969 7.207031 17.835938 8.746094 19.734375 8.746094 C 21.628906 8.746094 23.171875 7.207031 23.171875 5.3125 C 23.171875 3.421875 21.628906 1.878906 19.734375 1.878906 C 17.835938 1.878906 16.292969 3.421875 16.292969 5.3125 Z M 16.292969 5.3125 "/>
<path style=" stroke:none;fill-rule:evenodd;fill:rgb(0%,0%,0%);fill-opacity:1;" d="M 22.742188 6.160156 C 22.835938 5.753906 22.871094 4.835938 22.746094 4.402344 C 22.820312 4.242188 22.859375 4.035156 22.875 3.894531 C 22.773438 3.65625 22.316406 2.933594 21.996094 2.667969 C 21.863281 2.621094 21.65625 2.617188 21.449219 2.652344 C 21.125 2.367188 20.480469 2.089844 19.96875 2.09375 C 19.863281 1.890625 19.695312 1.832031 19.488281 1.757812 C 19.152344 1.742188 18.140625 2.078125 17.90625 2.363281 C 17.878906 2.472656 17.863281 2.652344 17.90625 2.777344 C 17.566406 3.019531 17.066406 3.695312 16.992188 4.082031 C 16.777344 4.101562 16.570312 4.21875 16.425781 4.363281 C 16.289062 4.648438 16.257812 5.609375 16.289062 5.859375 C 16.40625 6.136719 16.613281 6.304688 16.917969 6.496094 C 17.050781 6.917969 17.464844 7.484375 17.785156 7.730469 C 17.773438 7.910156 17.777344 8.128906 17.824219 8.296875 C 18.210938 8.53125 19.1875 8.820312 19.507812 8.867188 C 19.667969 8.75 19.84375 8.582031 19.953125 8.472656 C 20.386719 8.5 21.191406 8.246094 21.515625 7.949219 C 21.632812 7.984375 21.785156 8.027344 21.964844 8.011719 C 22.148438 7.84375 22.789062 6.988281 22.941406 6.683594 C 22.898438 6.484375 22.839844 6.332031 22.742188 6.160156 Z M 19.980469 2.230469 C 20.464844 2.230469 21.089844 2.496094 21.378906 2.773438 C 21.398438 3.066406 21.503906 3.453125 21.65625 3.855469 C 21.457031 3.957031 21.011719 4.261719 20.828125 4.410156 C 20.640625 4.269531 19.953125 4.039062 19.648438 4.03125 C 19.566406 3.722656 19.339844 3.171875 19.179688 2.863281 C 19.480469 2.671875 19.804688 2.4375 19.980469 2.230469 Z M 18.011719 2.867188 C 18.265625 2.925781 18.703125 2.929688 19.039062 2.886719 C 19.195312 3.175781 19.433594 3.746094 19.515625 4.058594 C 19.304688 4.179688 18.785156 4.867188 18.636719 5.144531 L 17.460938 5.144531 C 17.410156 4.738281 17.300781 4.398438 17.121094 4.117188 C 17.175781 3.78125 17.691406 3.074219 18.011719 2.867188 Z M 17.890625 7.644531 C 17.585938 7.421875 17.128906 6.804688 17.03125 6.402344 C 17.21875 6.125 17.378906 5.773438 17.457031 5.28125 L 18.597656 5.28125 C 18.648438 5.515625 19.203125 6.324219 19.433594 6.5 C 19.371094 6.835938 19.183594 7.378906 19.023438 7.640625 C 18.617188 7.566406 18.191406 7.566406 17.890625 7.644531 Z M 19.917969 8.335938 C 19.722656 8.089844 19.546875 7.90625 19.160156 7.675781 C 19.324219 7.386719 19.5 6.871094 19.5625 6.535156 C 19.84375 6.511719 20.648438 6.199219 20.863281 6.046875 C 21.074219 6.207031 21.511719 6.578125 21.703125 6.785156 C 21.574219 7.101562 21.492188 7.519531 21.453125 7.824219 C 21.1875 8.101562 20.335938 8.386719 19.917969 8.335938 Z M 21.769531 6.664062 C 21.554688 6.4375 21.140625 6.089844 20.9375 5.933594 C 21.015625 5.652344 20.984375 4.808594 20.898438 4.523438 C 21.074219 4.382812 21.574219 4.039062 21.746094 3.960938 C 22.003906 4.148438 22.386719 4.375 22.621094 4.457031 C 22.730469 4.847656 22.707031 5.683594 22.621094 6.097656 C 22.339844 6.234375 22.101562 6.394531 21.769531 6.664062 Z M 21.769531 6.664062 "/>
</g>
</svg>
