<?xml version="1.0" encoding="UTF-8"?>
<svg xmlns="http://www.w3.org/2000/svg" xmlns:xlink="http://www.w3.org/1999/xlink" width="35pt" height="25pt" viewBox="0 0 35 25" version="1.1">
<defs>
<linearGradient id="linear0" gradientUnits="userSpaceOnUse" x1="86.71875" y1="41.333645" x2="86.71875" y2="61.56498" gradientTransform="matrix(0.125,0,0,0.125,0.000000964742,0.0000000570595)">
<stop offset="0" style="stop-color:rgb(78.431373%,7.058824%,9.411765%);stop-opacity:1;"/>
<stop offset="1" style="stop-color:rgb(56.078431%,7.058824%,6.27451%);stop-opacity:1;"/>
</linearGradient>
<linearGradient id="linear1" gradientUnits="userSpaceOnUse" x1="275.29233" y1="332.68716" x2="275.29233" y2="348.31259" gradientTransform="matrix(0.125,0,0,0.125,-27.940257,-40.5459)">
<stop offset="0" style="stop-color:rgb(78.431373%,7.058824%,9.411765%);stop-opacity:1;"/>
<stop offset="1" style="stop-color:rgb(56.078431%,7.058824%,6.27451%);stop-opacity:1;"/>
</linearGradient>
<linearGradient id="linear2" gradientUnits="userSpaceOnUse" x1="361.97855" y1="464.6076" x2="373.70175" y2="415.58972" gradientTransform="matrix(0.125,0,0,0.125,-27.940258,-40.5459)">
<stop offset="0" style="stop-color:rgb(78.431373%,7.058824%,9.411765%);stop-opacity:1;"/>
<stop offset="1" style="stop-color:rgb(56.078431%,7.058824%,6.27451%);stop-opacity:1;"/>
</linearGradient>
</defs>
<g id="surface1">
<path style=" stroke:none;fill-rule:nonzero;fill:url(#linear0);" d="M 16.445312 2.132812 C 15.265625 2.132812 14.675781 2.855469 14.675781 3.757812 C 14.675781 4.71875 15.289062 5.351562 16.398438 5.351562 C 17.621094 5.351562 18.128906 4.539062 18.128906 3.664062 C 18.128906 2.773438 17.574219 2.132812 16.445312 2.132812 Z M 19.796875 2.132812 C 19.25 2.132812 18.992188 2.242188 18.832031 2.347656 C 18.597656 2.492188 18.445312 2.722656 18.445312 2.992188 C 18.445312 3.375 18.75 3.65625 19.464844 3.976562 C 19.507812 3.996094 19.738281 4.097656 19.78125 4.117188 C 20.03125 4.226562 20.167969 4.339844 20.167969 4.519531 C 20.167969 4.667969 20.023438 4.828125 19.714844 4.828125 C 19.277344 4.828125 19.273438 4.527344 19.273438 4.394531 L 19.273438 4.246094 L 18.445312 4.246094 L 18.445312 5.175781 C 18.621094 5.226562 19.058594 5.351562 19.742188 5.351562 C 20.339844 5.351562 20.621094 5.226562 20.8125 5.085938 C 21.003906 4.941406 21.171875 4.714844 21.171875 4.402344 C 21.171875 3.878906 20.738281 3.675781 20.246094 3.460938 L 19.882812 3.304688 C 19.53125 3.148438 19.398438 3.050781 19.398438 2.894531 C 19.398438 2.855469 19.457031 2.613281 19.8125 2.613281 C 20.199219 2.613281 20.199219 2.847656 20.199219 2.980469 L 20.199219 3.144531 L 20.992188 3.144531 L 20.992188 2.316406 C 20.808594 2.257812 20.421875 2.132812 19.796875 2.132812 Z M 23.222656 2.132812 C 22 2.132812 21.480469 2.910156 21.480469 3.746094 C 21.480469 4.359375 21.792969 5.351562 23.144531 5.351562 C 23.742188 5.351562 24.082031 5.199219 24.371094 5.027344 L 24.371094 4.355469 C 24.0625 4.535156 23.710938 4.65625 23.347656 4.65625 C 22.609375 4.65625 22.460938 4.144531 22.460938 3.65625 C 22.460938 3.375 22.496094 2.664062 23.167969 2.664062 C 23.601562 2.664062 23.613281 2.953125 23.613281 3.121094 L 23.613281 3.355469 L 24.386719 3.355469 L 24.386719 2.371094 C 24.214844 2.296875 23.824219 2.132812 23.222656 2.132812 Z M 11.699219 2.234375 L 11.699219 2.71875 L 11.800781 2.71875 C 12.039062 2.71875 12.039062 2.78125 12.039062 2.925781 L 12.039062 4.585938 C 12.039062 4.683594 12.039062 4.765625 11.828125 4.765625 L 11.699219 4.765625 L 11.699219 5.253906 L 14.429688 5.253906 L 14.429688 4.265625 L 13.710938 4.265625 L 13.710938 4.5 C 13.710938 4.59375 13.710938 4.671875 13.492188 4.671875 L 13 4.671875 L 13 2.910156 C 13 2.792969 13.003906 2.71875 13.222656 2.71875 L 13.386719 2.71875 L 13.386719 2.234375 Z M 16.429688 2.730469 C 17.171875 2.730469 17.148438 3.480469 17.148438 3.707031 C 17.148438 4.402344 16.949219 4.761719 16.417969 4.761719 C 15.808594 4.761719 15.671875 4.277344 15.671875 3.769531 C 15.671875 3.328125 15.785156 2.730469 16.429688 2.730469 Z M 16.429688 2.730469 "/>
<path style=" stroke:none;fill-rule:nonzero;fill:url(#linear1);" d="M 17.835938 0 C 17.566406 0 17.273438 0.0117188 17.007812 0.0234375 C 17.011719 0.105469 17.015625 0.144531 17.019531 0.230469 C 17.042969 0.226562 17.054688 0.226562 17.078125 0.226562 C 17.207031 0.222656 17.210938 0.257812 17.214844 0.332031 C 17.21875 0.410156 17.265625 1.242188 17.269531 1.324219 C 17.273438 1.386719 17.273438 1.425781 17.160156 1.425781 C 17.136719 1.429688 17.125 1.425781 17.101562 1.425781 C 17.105469 1.511719 17.109375 1.550781 17.113281 1.636719 L 18.441406 1.636719 L 18.457031 1.152344 L 18.15625 1.152344 C 18.15625 1.203125 18.15625 1.230469 18.15625 1.28125 C 18.15625 1.347656 18.148438 1.382812 18.046875 1.382812 C 17.96875 1.382812 17.746094 1.382812 17.667969 1.382812 C 17.667969 1.3125 17.640625 0.394531 17.640625 0.324219 C 17.636719 0.246094 17.636719 0.210938 17.765625 0.210938 C 17.796875 0.210938 17.804688 0.210938 17.839844 0.210938 C 17.835938 0.125 17.835938 0.0820312 17.835938 0 Z M 18.738281 0.0078125 C 18.734375 0.09375 18.730469 0.132812 18.726562 0.214844 C 18.75 0.214844 18.765625 0.21875 18.789062 0.21875 C 18.917969 0.222656 18.914062 0.257812 18.910156 0.332031 C 18.90625 0.410156 18.863281 1.242188 18.859375 1.324219 C 18.855469 1.386719 18.851562 1.425781 18.738281 1.425781 L 18.679688 1.425781 C 18.675781 1.507812 18.671875 1.550781 18.667969 1.636719 L 20 1.636719 L 20.0625 1.183594 L 19.765625 1.175781 C 19.757812 1.226562 19.753906 1.25 19.75 1.296875 C 19.742188 1.359375 19.734375 1.394531 19.628906 1.394531 C 19.554688 1.390625 19.320312 1.386719 19.246094 1.386719 C 19.253906 1.304688 19.320312 0.429688 19.328125 0.347656 C 19.335938 0.269531 19.339844 0.238281 19.464844 0.246094 C 19.5 0.246094 19.515625 0.25 19.546875 0.25 C 19.554688 0.167969 19.5625 0.128906 19.570312 0.046875 C 19.398438 0.0351562 18.964844 0.0117188 18.738281 0.0078125 Z M 16.707031 0.0390625 C 16.542969 0.0429688 16.078125 0.0820312 15.898438 0.101562 C 15.910156 0.179688 15.914062 0.21875 15.925781 0.296875 C 15.949219 0.292969 15.964844 0.292969 15.988281 0.289062 C 16.105469 0.28125 16.117188 0.308594 16.125 0.386719 C 16.136719 0.460938 16.238281 1.253906 16.246094 1.328125 C 16.257812 1.410156 16.261719 1.433594 16.144531 1.4375 C 16.121094 1.4375 16.109375 1.4375 16.089844 1.4375 C 16.101562 1.515625 16.105469 1.554688 16.117188 1.636719 L 16.84375 1.636719 C 16.835938 1.554688 16.832031 1.511719 16.824219 1.429688 C 16.800781 1.429688 16.792969 1.429688 16.769531 1.429688 C 16.65625 1.429688 16.652344 1.40625 16.644531 1.324219 C 16.636719 1.246094 16.558594 0.449219 16.550781 0.375 C 16.539062 0.289062 16.539062 0.25 16.664062 0.246094 C 16.6875 0.242188 16.695312 0.242188 16.722656 0.242188 C 16.714844 0.160156 16.710938 0.121094 16.707031 0.0390625 Z M 20.46875 0.121094 C 20.457031 0.199219 20.449219 0.238281 20.4375 0.316406 C 20.464844 0.316406 20.480469 0.316406 20.507812 0.320312 C 20.617188 0.332031 20.613281 0.367188 20.601562 0.429688 C 20.589844 0.503906 20.460938 1.269531 20.445312 1.34375 C 20.433594 1.414062 20.429688 1.441406 20.324219 1.441406 C 20.300781 1.441406 20.285156 1.441406 20.261719 1.441406 C 20.25 1.519531 20.242188 1.558594 20.230469 1.636719 L 21.679688 1.636719 L 21.78125 1.269531 L 21.488281 1.257812 C 21.480469 1.289062 21.476562 1.308594 21.46875 1.339844 C 21.453125 1.402344 21.441406 1.425781 21.324219 1.421875 C 21.242188 1.421875 20.910156 1.414062 20.828125 1.410156 L 20.910156 1.007812 C 20.96875 1.011719 21.300781 1.027344 21.359375 1.03125 L 21.410156 0.8125 C 21.351562 0.808594 21.015625 0.785156 20.957031 0.78125 C 20.96875 0.707031 21.015625 0.492188 21.03125 0.417969 C 21.125 0.425781 21.4375 0.449219 21.519531 0.457031 C 21.609375 0.46875 21.652344 0.476562 21.636719 0.550781 C 21.628906 0.578125 21.625 0.585938 21.617188 0.613281 L 21.925781 0.648438 L 22.019531 0.289062 C 21.519531 0.226562 21.023438 0.179688 20.46875 0.121094 Z M 14.996094 0.203125 C 14.761719 0.230469 14.386719 0.289062 14.179688 0.324219 C 14.199219 0.394531 14.210938 0.425781 14.230469 0.492188 C 14.253906 0.488281 14.265625 0.488281 14.285156 0.484375 C 14.414062 0.464844 14.421875 0.496094 14.4375 0.558594 C 14.453125 0.625 14.636719 1.3125 14.65625 1.375 C 14.667969 1.429688 14.679688 1.460938 14.566406 1.464844 C 14.542969 1.464844 14.527344 1.46875 14.503906 1.46875 C 14.523438 1.535156 14.535156 1.566406 14.554688 1.636719 L 15.882812 1.636719 L 15.8125 1.191406 L 15.511719 1.203125 C 15.519531 1.25 15.523438 1.269531 15.535156 1.316406 C 15.542969 1.375 15.542969 1.40625 15.441406 1.410156 C 15.367188 1.410156 15.136719 1.414062 15.058594 1.417969 C 15.042969 1.34375 14.867188 0.578125 14.851562 0.507812 C 14.835938 0.441406 14.828125 0.410156 14.953125 0.394531 C 14.988281 0.390625 15.003906 0.386719 15.039062 0.386719 C 15.023438 0.3125 15.011719 0.277344 14.996094 0.203125 Z M 14.996094 0.203125 "/>
<path style=" stroke:none;fill-rule:nonzero;fill:url(#linear2);" d="M 17.960938 6.199219 L 17.960938 6.859375 L 11.203125 6.859375 L 11.203125 14.949219 C 11.203125 19.398438 14.527344 23.054688 18.929688 24.707031 L 18.929688 23.398438 C 22.285156 21.800781 24.867188 17.765625 24.867188 14.300781 L 24.867188 6.199219 Z M 17.960938 6.199219 "/>
<path style=" stroke:none;fill-rule:nonzero;fill:rgb(0%,0%,0%);fill-opacity:0.431373;" d="M 19.730469 8.28125 C 19.710938 8.28125 19.699219 8.316406 19.699219 8.40625 C 19.699219 8.613281 19.59375 8.84375 19.507812 8.996094 C 19.421875 8.996094 19.347656 9.003906 19.300781 9.027344 C 19.152344 9.089844 18.398438 9.246094 18.398438 9.246094 L 18.398438 21.800781 L 17.816406 21.800781 L 17.816406 23.234375 L 18.914062 23.234375 L 18.914062 22.195312 C 18.933594 22.195312 18.980469 22.195312 18.988281 22.195312 C 19.445312 22.195312 19.742188 21.804688 19.742188 21.351562 C 19.363281 21.433594 19.121094 21.070312 19.121094 20.675781 C 19.121094 20.183594 19.566406 19.691406 19.976562 19.632812 C 20.027344 19.625 20.027344 19.589844 19.96875 19.480469 C 19.929688 19.410156 19.890625 19.347656 19.964844 19.253906 C 21.023438 17.894531 21.882812 16.675781 21.882812 14.777344 C 21.882812 14.628906 21.875 14.507812 21.847656 14.421875 C 21.28125 13.835938 20.296875 13.550781 19.8125 13.371094 C 19.546875 13.273438 19.445312 13.015625 19.445312 12.753906 C 19.445312 12.273438 19.71875 12.03125 20.003906 12.03125 C 20.523438 12.03125 20.730469 12.664062 21.167969 12.664062 C 21.320312 12.664062 21.5 12.585938 21.761719 12.421875 C 22.300781 12.089844 22.328125 11.421875 22.425781 11.023438 C 22.394531 10.996094 22.332031 10.992188 22.269531 10.992188 L 22.15625 10.992188 C 22 10.992188 21.992188 10.917969 21.992188 10.859375 C 21.992188 10.757812 22.085938 10.679688 22.085938 10.679688 C 22.3125 10.695312 22.425781 10.777344 22.484375 10.847656 C 22.527344 10.769531 22.640625 10.652344 22.640625 10.542969 C 22.640625 10.34375 22.242188 10.378906 21.835938 10.242188 C 21.320312 10.0625 21.222656 9.972656 21.222656 9.921875 C 21.222656 9.902344 21.238281 9.886719 21.257812 9.878906 C 21.257812 9.878906 21.308594 9.8125 21.308594 9.722656 C 21.308594 9.675781 21.292969 9.617188 21.238281 9.566406 C 21.0625 9.390625 20.464844 9.160156 19.964844 9.054688 C 19.988281 9.015625 19.996094 8.953125 19.996094 8.90625 C 19.996094 8.675781 19.824219 8.386719 19.804688 8.355469 C 19.785156 8.335938 19.753906 8.28125 19.730469 8.28125 Z M 20.351562 9.472656 C 20.515625 9.523438 20.871094 9.664062 20.871094 9.886719 C 20.722656 9.980469 20.625 10.011719 20.550781 10.011719 C 20.34375 10.011719 20.390625 9.71875 20.152344 9.664062 C 20.0625 9.640625 20.027344 9.617188 20.027344 9.59375 C 20.027344 9.519531 20.292969 9.472656 20.351562 9.472656 Z M 20.351562 9.472656 "/>
<path style=" stroke:none;fill-rule:nonzero;fill:rgb(100%,100%,100%);fill-opacity:1;" d="M 19.597656 9.277344 C 19.597656 9.203125 19.863281 9.15625 19.921875 9.15625 C 20.085938 9.207031 20.441406 9.347656 20.441406 9.574219 C 20.292969 9.664062 20.195312 9.699219 20.125 9.699219 C 19.917969 9.699219 19.964844 9.40625 19.722656 9.347656 C 19.632812 9.328125 19.597656 9.300781 19.597656 9.277344 M 24.371094 14.300781 C 24.371094 18.253906 21.164062 21.917969 18.445312 23.078125 L 18.445312 21.867188 C 18.480469 21.875 18.519531 21.878906 18.558594 21.878906 C 19.019531 21.878906 19.316406 21.488281 19.316406 21.039062 C 18.933594 21.117188 18.695312 20.753906 18.695312 20.359375 C 18.695312 19.867188 19.136719 19.375 19.550781 19.316406 C 19.601562 19.308594 19.597656 19.277344 19.539062 19.167969 C 19.503906 19.097656 19.464844 19.03125 19.535156 18.941406 C 20.59375 17.582031 21.457031 16.359375 21.457031 14.460938 C 21.457031 14.3125 21.445312 14.191406 21.417969 14.105469 C 20.851562 13.519531 19.871094 13.234375 19.386719 13.058594 C 19.117188 12.960938 19.015625 12.703125 19.015625 12.441406 C 19.015625 11.957031 19.289062 11.714844 19.574219 11.714844 C 20.09375 11.714844 20.300781 12.347656 20.738281 12.347656 C 20.894531 12.347656 21.070312 12.269531 21.332031 12.105469 C 21.875 11.773438 21.898438 11.109375 21.996094 10.710938 C 21.964844 10.679688 21.90625 10.675781 21.839844 10.675781 L 21.726562 10.675781 C 21.574219 10.675781 21.566406 10.605469 21.566406 10.546875 C 21.566406 10.445312 21.660156 10.363281 21.660156 10.363281 C 21.886719 10.378906 21.996094 10.460938 22.054688 10.53125 C 22.097656 10.453125 22.210938 10.339844 22.210938 10.230469 C 22.210938 10.03125 21.816406 10.066406 21.410156 9.925781 C 20.890625 9.75 20.792969 9.65625 20.792969 9.609375 C 20.792969 9.585938 20.8125 9.570312 20.832031 9.566406 C 20.832031 9.566406 20.882812 9.496094 20.882812 9.410156 C 20.882812 9.359375 20.863281 9.304688 20.808594 9.25 C 20.632812 9.078125 20.035156 8.84375 19.535156 8.738281 C 19.558594 8.699219 19.570312 8.640625 19.570312 8.589844 C 19.570312 8.363281 19.398438 8.070312 19.375 8.042969 C 19.359375 8.019531 19.324219 7.96875 19.300781 7.96875 C 19.285156 7.96875 19.269531 8 19.269531 8.089844 C 19.269531 8.296875 19.164062 8.527344 19.078125 8.679688 C 18.992188 8.679688 18.921875 8.691406 18.871094 8.710938 C 18.722656 8.773438 18.582031 8.847656 18.445312 8.929688 L 18.445312 6.671875 L 24.371094 6.671875 Z M 17.960938 6.199219 L 17.960938 6.859375 L 11.203125 6.859375 L 11.203125 14.949219 C 11.203125 19.398438 14.527344 23.054688 18.929688 24.707031 L 18.929688 23.398438 C 22.285156 21.800781 24.867188 17.765625 24.867188 14.300781 L 24.867188 6.199219 Z M 17.960938 6.199219 "/>
<path style=" stroke:none;fill-rule:nonzero;fill:rgb(78.431373%,7.058824%,9.411765%);fill-opacity:1;" d="M 15.085938 17.800781 C 15.449219 18.78125 16.808594 18.679688 16.128906 17.683594 C 15.996094 18.011719 15.460938 18.183594 15.085938 17.800781 "/>
<path style=" stroke:none;fill-rule:nonzero;fill:rgb(78.431373%,7.058824%,9.411765%);fill-opacity:1;" d="M 15.8125 16.515625 C 15.488281 16.019531 15.261719 15.46875 15.121094 14.921875 C 13.371094 16.035156 13.824219 18.308594 15.59375 18.675781 C 14.265625 18.035156 14.902344 16.585938 15.8125 16.515625 "/>
<path style=" stroke:none;fill-rule:nonzero;fill:rgb(78.431373%,7.058824%,9.411765%);fill-opacity:1;" d="M 17.699219 8.226562 C 17.734375 8.339844 17.75 8.449219 17.75 8.558594 C 17.75 9.78125 15.355469 11.042969 15.355469 13.65625 C 15.355469 15.015625 16.054688 16.964844 17.757812 17.710938 L 17.757812 14.085938 C 17.304688 13.25 17.402344 12.175781 17.859375 11.394531 C 17.039062 12.015625 16.855469 13.089844 17.121094 14.082031 C 15.785156 12.390625 18.042969 10.074219 18.042969 8.828125 C 18.042969 8.574219 17.945312 8.367188 17.699219 8.226562 "/>
<path style=" stroke:none;fill-rule:nonzero;fill:rgb(78.431373%,7.058824%,9.411765%);fill-opacity:1;" d="M 19.113281 16.117188 C 17.949219 18.027344 17.527344 19.355469 17.527344 20.238281 C 17.527344 20.847656 17.714844 21.257812 18.011719 21.488281 C 18.011719 21.488281 17.824219 21.207031 17.824219 20.582031 C 17.824219 19.855469 18.09375 18.652344 19.269531 16.839844 C 19.296875 16.550781 19.238281 16.265625 19.113281 16.117188 "/>
<path style=" stroke:none;fill-rule:nonzero;fill:rgb(78.431373%,7.058824%,9.411765%);fill-opacity:1;" d="M 19.132812 23.527344 C 22.472656 21.875 25.070312 17.851562 25.070312 14.304688 L 25.070312 6.007812 L 17.757812 6.007812 L 17.757812 6.667969 L 17.960938 6.859375 L 17.960938 6.199219 L 24.867188 6.199219 L 24.867188 14.304688 C 24.867188 17.765625 22.285156 21.800781 18.929688 23.398438 Z M 19.132812 23.527344 "/>
<path style=" stroke:none;fill-rule:nonzero;fill:rgb(16.470588%,14.901961%,40%);fill-opacity:1;" d="M 18.929688 23.398438 L 18.929688 24.695312 C 14.53125 23.042969 11.203125 19.398438 11.203125 14.949219 L 11.203125 6.859375 L 17.960938 6.859375 L 17.757812 6.667969 L 11 6.667969 L 11 14.949219 C 11 19.726562 14.570312 23.347656 19.132812 25 L 19.132812 23.527344 Z M 18.929688 23.398438 "/>
<path style=" stroke:none;fill-rule:nonzero;fill:rgb(16.470588%,14.901961%,40%);fill-opacity:1;" d="M 14.539062 10.605469 C 14.542969 9.9375 14.835938 9.398438 15.003906 9.152344 L 14.488281 8.496094 L 13.96875 9.152344 C 14.136719 9.398438 14.429688 9.9375 14.433594 10.605469 C 14.429688 10.703125 14.449219 10.773438 14.488281 10.773438 C 14.515625 10.773438 14.539062 10.714844 14.539062 10.605469 "/>
<path style=" stroke:none;fill-rule:nonzero;fill:rgb(16.470588%,14.901961%,40%);fill-opacity:1;" d="M 14.707031 11.304688 C 14.722656 11.320312 14.722656 11.347656 14.707031 11.367188 L 14.519531 11.550781 C 14.503906 11.570312 14.472656 11.570312 14.457031 11.550781 L 14.273438 11.367188 C 14.253906 11.347656 14.253906 11.320312 14.273438 11.304688 L 14.457031 11.117188 C 14.472656 11.101562 14.503906 11.101562 14.519531 11.117188 Z M 14.707031 11.304688 "/>
<path style=" stroke:none;fill-rule:nonzero;fill:rgb(16.470588%,14.901961%,40%);fill-opacity:1;" d="M 14.105469 11.230469 L 14.027344 11.148438 C 14.359375 10.277344 13.414062 9.828125 12.980469 10.089844 C 12.886719 9.789062 13.070312 9.460938 13.417969 9.460938 C 13.984375 9.460938 14.488281 10.464844 14.105469 11.230469 "/>
<path style=" stroke:none;fill-rule:nonzero;fill:rgb(16.470588%,14.901961%,40%);fill-opacity:1;" d="M 14.867188 11.230469 L 14.945312 11.148438 C 14.617188 10.277344 15.558594 9.828125 15.996094 10.089844 C 16.089844 9.789062 15.90625 9.460938 15.554688 9.460938 C 14.988281 9.460938 14.484375 10.464844 14.867188 11.230469 "/>
<path style=" stroke:none;fill-rule:nonzero;fill:rgb(16.470588%,14.901961%,40%);fill-opacity:1;" d="M 12.074219 14.5625 L 12.074219 7.6875 L 18.445312 7.6875 L 18.445312 7.332031 L 11.699219 7.332031 L 11.699219 14.949219 C 11.699219 21.269531 18.445312 23.972656 18.445312 23.972656 L 18.445312 23.078125 C 14.976562 21.453125 12.074219 18.917969 12.074219 14.5625 "/>
<path style=" stroke:none;fill-rule:nonzero;fill:rgb(0%,0%,0%);fill-opacity:0.431373;" d="M 15.121094 14.921875 C 13.609375 15.878906 13.742188 17.703125 14.941406 18.421875 C 14.3125 17.558594 14.371094 16.613281 15.289062 15.460938 C 15.222656 15.28125 15.167969 15.101562 15.121094 14.921875 Z M 15.121094 14.921875 "/>
<path style=" stroke:none;fill-rule:nonzero;fill:rgb(0%,0%,0%);fill-opacity:0.431373;" d="M 16.128906 17.679688 C 15.996094 18.011719 15.460938 18.179688 15.085938 17.800781 C 15.113281 17.871094 15.144531 17.933594 15.179688 17.992188 C 15.554688 18.328125 16.089844 18.164062 16.21875 17.84375 C 16.226562 17.851562 16.234375 17.863281 16.238281 17.871094 C 16.210938 17.8125 16.175781 17.75 16.128906 17.679688 Z M 16.128906 17.679688 "/>
<path style=" stroke:none;fill-rule:nonzero;fill:rgb(0%,0%,0%);fill-opacity:0.431373;" d="M 19.113281 16.117188 C 17.949219 18.027344 17.53125 19.355469 17.53125 20.238281 C 17.53125 20.847656 17.714844 21.257812 18.011719 21.488281 C 18.011719 21.488281 18.007812 21.484375 18.007812 21.480469 C 17.828125 21.238281 17.726562 20.894531 17.726562 20.4375 C 17.726562 19.570312 18.132812 18.273438 19.25 16.417969 C 19.222656 16.296875 19.175781 16.191406 19.113281 16.117188 Z M 19.113281 16.117188 "/>
<path style=" stroke:none;fill-rule:nonzero;fill:rgb(0%,0%,0%);fill-opacity:0.431373;" d="M 17.699219 8.226562 C 17.734375 8.339844 17.746094 8.449219 17.746094 8.558594 C 17.746094 9.78125 15.355469 11.042969 15.355469 13.65625 C 15.355469 14.96875 16.003906 16.832031 17.582031 17.628906 C 16.222656 16.757812 15.660156 15.054688 15.660156 13.828125 C 15.660156 11.332031 17.84375 10.074219 18.039062 8.898438 C 18.039062 8.875 18.042969 8.851562 18.042969 8.828125 C 18.042969 8.574219 17.945312 8.367188 17.699219 8.226562 Z M 17.699219 8.226562 "/>
<path style=" stroke:none;fill-rule:nonzero;fill:rgb(0%,0%,0%);fill-opacity:0.431373;" d="M 17.859375 11.394531 C 17.046875 12.007812 16.859375 13.066406 17.109375 14.050781 C 17.226562 14.269531 17.386719 14.472656 17.601562 14.652344 C 17.179688 13.832031 17.09375 12.875 17.5625 12.121094 C 17.628906 11.863281 17.730469 11.617188 17.859375 11.394531 Z M 17.859375 11.394531 "/>
</g>
</svg>
