<?xml version="1.0" encoding="UTF-8"?>
<svg xmlns="http://www.w3.org/2000/svg" xmlns:xlink="http://www.w3.org/1999/xlink" width="35pt" height="25pt" viewBox="0 0 35 25" version="1.1">
<g id="surface1">
<path style=" stroke:none;fill-rule:nonzero;fill:rgb(100%,100%,100%);fill-opacity:1;" d="M 23.300781 20.058594 L 23.300781 20.054688 C 23.296875 20.054688 23.296875 20.054688 23.296875 20.054688 Z M 23.300781 20.058594 "/>
<path style=" stroke:none;fill-rule:nonzero;fill:rgb(10.196078%,9.019608%,10.980392%);fill-opacity:1;" d="M 17.027344 24.808594 C 5.519531 18.492188 6.726562 2.449219 6.726562 2.449219 L 7.648438 0.339844 L 7.710938 0.195312 L 26.410156 0.195312 L 27.410156 2.449219 C 27.410156 2.449219 28.566406 18.382812 17.09375 24.808594 Z M 17.027344 24.808594 "/>
<path style=" stroke:none;fill-rule:nonzero;fill:rgb(10.196078%,9.019608%,10.980392%);fill-opacity:1;" d="M 6.917969 2.546875 C 6.914062 2.605469 6.910156 2.695312 6.90625 2.804688 C 6.894531 3.027344 6.886719 3.355469 6.886719 3.769531 C 6.886719 5.246094 7.003906 7.832031 7.648438 10.753906 C 8.289062 13.675781 9.457031 16.929688 11.558594 19.761719 C 12.945312 21.632812 14.738281 23.316406 17.0625 24.601562 C 19.394531 23.285156 21.191406 21.570312 22.582031 19.679688 C 23.984375 17.765625 24.972656 15.671875 25.664062 13.621094 C 27.046875 9.519531 27.25 5.589844 27.246094 3.675781 C 27.246094 3.027344 27.226562 2.613281 27.21875 2.496094 L 26.285156 0.390625 L 7.839844 0.390625 L 7.824219 0.417969 L 6.921875 2.496094 C 6.921875 2.507812 6.917969 2.527344 6.917969 2.546875 M 17.09375 24.6875 L 17.121094 24.636719 Z M 17.027344 25 L 17.027344 24.808594 L 17.0625 24.746094 L 17.027344 24.808594 L 17.027344 25 C 16.996094 25 16.964844 24.992188 16.9375 24.976562 C 14.53125 23.660156 12.675781 21.917969 11.246094 19.992188 C 9.820312 18.066406 8.8125 15.953125 8.113281 13.882812 C 6.707031 9.738281 6.5 5.765625 6.5 3.769531 C 6.5 2.929688 6.535156 2.4375 6.535156 2.433594 C 6.539062 2.410156 6.542969 2.390625 6.554688 2.371094 L 7.46875 0.265625 L 7.535156 0.117188 C 7.566406 0.046875 7.636719 0 7.710938 0 L 26.410156 0 C 26.488281 0 26.558594 0.046875 26.585938 0.113281 L 27.585938 2.367188 C 27.597656 2.390625 27.601562 2.410156 27.601562 2.433594 C 27.601562 2.4375 27.636719 2.894531 27.636719 3.675781 C 27.636719 5.132812 27.519531 7.726562 26.875 10.6875 C 26.226562 13.648438 25.042969 16.980469 22.894531 19.90625 C 21.460938 21.855469 19.601562 23.621094 17.191406 24.976562 C 17.160156 24.992188 17.128906 25 17.09375 25 Z M 17.027344 25 "/>
<path style=" stroke:none;fill-rule:nonzero;fill:rgb(83.137255%,0.784314%,11.372549%);fill-opacity:1;" d="M 25.332031 10.472656 L 23.410156 10.472656 L 23.410156 16.402344 C 24.40625 14.179688 25.050781 12.027344 25.332031 10.472656 "/>
<path style=" stroke:none;fill-rule:nonzero;fill:rgb(83.137255%,0.784314%,11.372549%);fill-opacity:1;" d="M 10.910156 10.472656 L 8.695312 10.472656 C 9.285156 12.632812 9.980469 14.847656 10.910156 16.9375 Z M 10.910156 10.472656 "/>
<path style=" stroke:none;fill-rule:nonzero;fill:rgb(83.137255%,0.784314%,11.372549%);fill-opacity:1;" d="M 15.8125 22.605469 L 15.8125 10.472656 L 13.433594 10.472656 L 13.433594 20.648438 C 14.152344 21.382812 14.9375 22.023438 15.8125 22.605469 "/>
<path style=" stroke:none;fill-rule:nonzero;fill:rgb(83.137255%,0.784314%,11.372549%);fill-opacity:1;" d="M 20.886719 20.234375 L 20.886719 10.472656 L 18.335938 10.472656 L 18.335938 22.527344 C 19.25 21.871094 20.105469 21.105469 20.886719 20.234375 "/>
<path style=" stroke:none;fill-rule:nonzero;fill:rgb(10.196078%,9.019608%,10.980392%);fill-opacity:1;" d="M 23.410156 16.625 L 23.410156 0.386719 L 20.886719 0.386719 L 20.886719 20.234375 C 21.84375 19.175781 22.695312 17.964844 23.410156 16.625 "/>
<path style=" stroke:none;fill-rule:nonzero;fill:rgb(10.196078%,9.019608%,10.980392%);fill-opacity:1;" d="M 10.910156 17.125 C 11.65625 18.539062 12.484375 19.679688 13.433594 20.648438 L 13.433594 0.386719 L 10.910156 0.386719 Z M 10.910156 17.125 "/>
<path style=" stroke:none;fill-rule:nonzero;fill:rgb(10.196078%,9.019608%,10.980392%);fill-opacity:1;" d="M 17.007812 23.34375 L 17.074219 23.34375 C 17.503906 23.097656 17.925781 22.820312 18.335938 22.527344 L 18.335938 0.386719 L 15.8125 0.386719 L 15.8125 22.605469 C 16.195312 22.859375 16.59375 23.105469 17.007812 23.34375 "/>
<path style=" stroke:none;fill-rule:nonzero;fill:rgb(100%,100%,100%);fill-opacity:1;" d="M 11.542969 9.710938 L 10.890625 9.710938 L 10.890625 5.9375 L 11.835938 5.9375 L 13.515625 8.285156 L 13.515625 5.9375 L 14.214844 5.9375 L 14.214844 9.710938 L 13.515625 9.710938 L 11.542969 6.960938 Z M 11.542969 9.710938 "/>
<path style=" stroke:none;fill-rule:nonzero;fill:rgb(75.294118%,60.784314%,35.686275%);fill-opacity:1;" d="M 11.585938 6.929688 L 13.542969 9.65625 L 14.160156 9.65625 L 14.160156 5.996094 L 13.570312 5.996094 L 13.570312 8.285156 C 13.570312 8.3125 13.558594 8.332031 13.535156 8.339844 C 13.511719 8.347656 13.488281 8.339844 13.472656 8.320312 L 11.808594 5.996094 L 10.945312 5.996094 L 10.945312 9.65625 L 11.488281 9.65625 L 11.488281 6.960938 C 11.488281 6.9375 11.503906 6.914062 11.523438 6.90625 C 11.53125 6.90625 11.535156 6.90625 11.542969 6.90625 C 11.5625 6.90625 11.574219 6.910156 11.585938 6.929688 M 11.542969 9.710938 L 11.542969 9.65625 Z M 13.515625 9.765625 C 13.5 9.765625 13.480469 9.757812 13.472656 9.742188 L 11.597656 7.132812 L 11.597656 9.710938 C 11.597656 9.726562 11.589844 9.742188 11.582031 9.753906 C 11.574219 9.761719 11.558594 9.765625 11.542969 9.765625 L 10.890625 9.765625 C 10.875 9.765625 10.863281 9.761719 10.851562 9.753906 C 10.839844 9.742188 10.832031 9.726562 10.832031 9.710938 L 10.832031 5.9375 C 10.832031 5.925781 10.839844 5.910156 10.851562 5.898438 C 10.863281 5.890625 10.875 5.882812 10.890625 5.882812 L 11.835938 5.882812 C 11.855469 5.882812 11.871094 5.890625 11.882812 5.90625 L 13.460938 8.113281 L 13.460938 5.9375 C 13.460938 5.925781 13.46875 5.910156 13.476562 5.898438 C 13.488281 5.890625 13.503906 5.882812 13.515625 5.882812 L 14.21875 5.882812 C 14.230469 5.882812 14.246094 5.890625 14.253906 5.898438 C 14.265625 5.910156 14.273438 5.925781 14.273438 5.9375 L 14.273438 9.710938 C 14.273438 9.726562 14.265625 9.742188 14.253906 9.753906 C 14.246094 9.761719 14.230469 9.765625 14.21875 9.765625 Z M 13.515625 9.765625 "/>
<path style=" stroke:none;fill-rule:nonzero;fill:rgb(100%,100%,100%);fill-opacity:1;" d="M 14.867188 5.949219 L 15.691406 5.949219 L 15.691406 9.710938 L 14.867188 9.710938 Z M 14.867188 5.949219 "/>
<path style=" stroke:none;fill-rule:nonzero;fill:rgb(75.294118%,60.784314%,35.686275%);fill-opacity:1;" d="M 14.921875 9.652344 L 15.632812 9.652344 L 15.632812 6.003906 L 14.921875 6.003906 Z M 14.867188 9.761719 C 14.847656 9.761719 14.835938 9.757812 14.824219 9.746094 C 14.8125 9.734375 14.808594 9.722656 14.808594 9.710938 L 14.808594 5.949219 C 14.808594 5.933594 14.8125 5.917969 14.824219 5.910156 C 14.835938 5.898438 14.847656 5.894531 14.867188 5.894531 L 15.691406 5.894531 C 15.707031 5.894531 15.71875 5.898438 15.726562 5.910156 C 15.742188 5.917969 15.746094 5.933594 15.746094 5.949219 L 15.746094 9.710938 C 15.746094 9.722656 15.742188 9.734375 15.726562 9.746094 C 15.71875 9.757812 15.707031 9.761719 15.691406 9.761719 Z M 14.867188 9.761719 "/>
<path style=" stroke:none;fill-rule:nonzero;fill:rgb(100%,100%,100%);fill-opacity:1;" d="M 19.808594 8.703125 C 19.726562 8.855469 19.628906 8.992188 19.511719 9.113281 C 19.394531 9.238281 19.269531 9.347656 19.121094 9.433594 C 18.980469 9.527344 18.820312 9.59375 18.652344 9.644531 C 18.480469 9.691406 18.308594 9.71875 18.121094 9.71875 C 17.859375 9.71875 17.609375 9.667969 17.378906 9.566406 C 17.148438 9.46875 16.945312 9.332031 16.773438 9.160156 C 16.601562 8.988281 16.46875 8.785156 16.367188 8.554688 C 16.265625 8.320312 16.214844 8.078125 16.214844 7.8125 C 16.214844 7.554688 16.265625 7.308594 16.367188 7.074219 C 16.46875 6.84375 16.601562 6.640625 16.773438 6.46875 C 16.945312 6.292969 17.148438 6.15625 17.378906 6.058594 C 17.609375 5.957031 17.859375 5.90625 18.121094 5.90625 C 18.300781 5.90625 18.472656 5.929688 18.640625 5.976562 C 18.804688 6.027344 18.957031 6.089844 19.097656 6.179688 C 19.242188 6.261719 19.371094 6.367188 19.484375 6.488281 C 19.597656 6.605469 19.695312 6.738281 19.777344 6.878906 C 19.695312 6.921875 19.628906 6.957031 19.582031 6.984375 C 19.53125 7.011719 19.484375 7.035156 19.4375 7.058594 C 19.394531 7.078125 19.34375 7.105469 19.285156 7.132812 C 19.230469 7.164062 19.160156 7.199219 19.070312 7.238281 C 18.980469 7.078125 18.847656 6.945312 18.679688 6.847656 C 18.511719 6.746094 18.328125 6.695312 18.121094 6.695312 C 17.96875 6.695312 17.824219 6.726562 17.6875 6.785156 C 17.554688 6.847656 17.433594 6.925781 17.332031 7.027344 C 17.230469 7.125 17.152344 7.246094 17.09375 7.378906 C 17.035156 7.519531 17.007812 7.660156 17.007812 7.8125 C 17.007812 7.964844 17.035156 8.113281 17.09375 8.246094 C 17.152344 8.382812 17.230469 8.5 17.332031 8.601562 C 17.433594 8.703125 17.554688 8.785156 17.6875 8.839844 C 17.824219 8.898438 17.96875 8.929688 18.121094 8.929688 C 18.332031 8.929688 18.527344 8.875 18.699219 8.769531 C 18.871094 8.660156 19.007812 8.519531 19.101562 8.34375 C 19.191406 8.390625 19.261719 8.425781 19.3125 8.453125 C 19.371094 8.484375 19.417969 8.507812 19.464844 8.53125 C 19.511719 8.558594 19.558594 8.582031 19.605469 8.609375 C 19.65625 8.632812 19.722656 8.664062 19.808594 8.703125 "/>
<path style=" stroke:none;fill-rule:nonzero;fill:rgb(75.294118%,60.784314%,35.686275%);fill-opacity:1;" d="M 17.402344 6.105469 C 17.175781 6.203125 16.980469 6.339844 16.8125 6.507812 C 16.648438 6.675781 16.515625 6.871094 16.417969 7.097656 C 16.320312 7.320312 16.273438 7.558594 16.273438 7.8125 C 16.273438 8.066406 16.320312 8.308594 16.417969 8.53125 C 16.515625 8.757812 16.648438 8.953125 16.8125 9.121094 C 16.980469 9.285156 17.175781 9.421875 17.402344 9.515625 C 17.628906 9.613281 17.867188 9.664062 18.121094 9.664062 C 18.300781 9.664062 18.472656 9.636719 18.636719 9.589844 C 18.800781 9.542969 18.953125 9.476562 19.09375 9.390625 C 19.234375 9.300781 19.359375 9.199219 19.472656 9.078125 C 19.570312 8.972656 19.65625 8.855469 19.726562 8.726562 C 19.667969 8.699219 19.621094 8.675781 19.582031 8.65625 C 19.53125 8.632812 19.484375 8.605469 19.4375 8.582031 C 19.394531 8.558594 19.34375 8.53125 19.289062 8.503906 C 19.246094 8.480469 19.191406 8.453125 19.125 8.417969 C 19.027344 8.578125 18.894531 8.710938 18.730469 8.816406 C 18.546875 8.925781 18.34375 8.984375 18.121094 8.984375 C 17.960938 8.984375 17.808594 8.953125 17.667969 8.894531 C 17.523438 8.832031 17.402344 8.746094 17.292969 8.640625 C 17.1875 8.53125 17.101562 8.410156 17.042969 8.269531 C 16.980469 8.128906 16.949219 7.972656 16.949219 7.8125 C 16.949219 7.65625 16.980469 7.503906 17.042969 7.359375 C 17.101562 7.214844 17.1875 7.089844 17.292969 6.984375 C 17.402344 6.878906 17.523438 6.796875 17.667969 6.734375 C 17.808594 6.671875 17.960938 6.640625 18.121094 6.640625 C 18.335938 6.640625 18.53125 6.695312 18.707031 6.800781 C 18.871094 6.894531 18.996094 7.015625 19.09375 7.164062 C 19.160156 7.132812 19.214844 7.105469 19.261719 7.085938 C 19.316406 7.054688 19.367188 7.03125 19.414062 7.007812 C 19.457031 6.984375 19.503906 6.960938 19.554688 6.933594 C 19.589844 6.914062 19.640625 6.890625 19.699219 6.859375 C 19.625 6.738281 19.542969 6.625 19.445312 6.523438 C 19.332031 6.40625 19.207031 6.308594 19.070312 6.226562 C 18.933594 6.140625 18.78125 6.078125 18.621094 6.03125 C 18.464844 5.984375 18.292969 5.960938 18.121094 5.960938 C 17.867188 5.960938 17.628906 6.007812 17.402344 6.105469 M 17.359375 9.617188 C 17.121094 9.515625 16.914062 9.375 16.734375 9.199219 C 16.558594 9.023438 16.417969 8.8125 16.316406 8.578125 C 16.210938 8.335938 16.160156 8.082031 16.160156 7.8125 C 16.160156 7.542969 16.210938 7.292969 16.316406 7.054688 C 16.417969 6.816406 16.558594 6.609375 16.734375 6.429688 C 16.914062 6.25 17.121094 6.109375 17.359375 6.007812 C 17.597656 5.902344 17.851562 5.851562 18.121094 5.851562 C 18.308594 5.851562 18.484375 5.875 18.652344 5.925781 C 18.824219 5.972656 18.984375 6.042969 19.128906 6.128906 C 19.273438 6.21875 19.40625 6.324219 19.523438 6.449219 C 19.640625 6.570312 19.742188 6.703125 19.824219 6.855469 C 19.832031 6.867188 19.832031 6.878906 19.828125 6.894531 C 19.824219 6.910156 19.8125 6.921875 19.800781 6.929688 C 19.71875 6.972656 19.65625 7.007812 19.609375 7.03125 C 19.558594 7.058594 19.507812 7.082031 19.464844 7.105469 C 19.417969 7.128906 19.367188 7.15625 19.3125 7.183594 C 19.253906 7.210938 19.183594 7.246094 19.09375 7.289062 C 19.066406 7.300781 19.039062 7.289062 19.023438 7.265625 C 18.933594 7.113281 18.8125 6.988281 18.652344 6.894531 C 18.492188 6.800781 18.316406 6.753906 18.121094 6.753906 C 17.972656 6.753906 17.839844 6.78125 17.710938 6.835938 C 17.582031 6.894531 17.46875 6.972656 17.371094 7.066406 C 17.277344 7.160156 17.199219 7.273438 17.144531 7.402344 C 17.089844 7.53125 17.0625 7.667969 17.0625 7.8125 C 17.0625 7.960938 17.089844 8.097656 17.144531 8.222656 C 17.199219 8.355469 17.277344 8.464844 17.371094 8.5625 C 17.46875 8.660156 17.582031 8.734375 17.710938 8.792969 C 17.835938 8.84375 17.972656 8.871094 18.121094 8.871094 C 18.324219 8.871094 18.503906 8.820312 18.667969 8.71875 C 18.835938 8.617188 18.960938 8.484375 19.050781 8.320312 C 19.066406 8.289062 19.101562 8.28125 19.128906 8.296875 C 19.214844 8.339844 19.285156 8.378906 19.34375 8.40625 C 19.394531 8.433594 19.445312 8.460938 19.492188 8.484375 C 19.535156 8.507812 19.582031 8.53125 19.632812 8.558594 C 19.679688 8.582031 19.746094 8.613281 19.832031 8.652344 L 19.808594 8.703125 L 19.832031 8.652344 C 19.84375 8.660156 19.851562 8.667969 19.859375 8.683594 C 19.863281 8.699219 19.859375 8.714844 19.855469 8.726562 C 19.773438 8.882812 19.671875 9.023438 19.554688 9.152344 C 19.433594 9.28125 19.300781 9.390625 19.152344 9.484375 C 19.003906 9.578125 18.84375 9.648438 18.667969 9.695312 C 18.492188 9.75 18.308594 9.773438 18.121094 9.773438 C 17.851562 9.773438 17.597656 9.722656 17.359375 9.617188 "/>
<path style=" stroke:none;fill-rule:nonzero;fill:rgb(100%,100%,100%);fill-opacity:1;" d="M 21.023438 9.007812 L 23.144531 9.007812 L 23.144531 9.703125 L 20.222656 9.703125 L 20.222656 5.933594 L 22.964844 5.933594 L 22.964844 6.628906 L 21.023438 6.628906 L 21.023438 7.476562 L 22.738281 7.476562 L 22.738281 8.207031 L 21.023438 8.207031 Z M 21.023438 9.007812 "/>
<path style=" stroke:none;fill-rule:nonzero;fill:rgb(75.294118%,60.784314%,35.686275%);fill-opacity:1;" d="M 20.277344 9.648438 L 23.089844 9.648438 L 23.089844 9.0625 L 21.023438 9.0625 C 21.007812 9.0625 20.996094 9.054688 20.984375 9.046875 C 20.972656 9.035156 20.964844 9.023438 20.964844 9.007812 L 20.964844 8.207031 C 20.964844 8.191406 20.972656 8.179688 20.984375 8.167969 C 20.996094 8.15625 21.007812 8.152344 21.023438 8.152344 L 22.683594 8.152344 L 22.683594 7.53125 L 21.023438 7.53125 C 21.007812 7.53125 20.996094 7.523438 20.984375 7.515625 C 20.972656 7.503906 20.964844 7.488281 20.964844 7.476562 L 20.964844 6.628906 C 20.964844 6.613281 20.972656 6.597656 20.984375 6.589844 C 20.996094 6.578125 21.007812 6.574219 21.023438 6.574219 L 22.910156 6.574219 L 22.910156 5.988281 L 20.277344 5.988281 Z M 20.222656 9.757812 C 20.207031 9.757812 20.195312 9.75 20.183594 9.742188 C 20.175781 9.730469 20.167969 9.71875 20.167969 9.703125 L 20.167969 5.933594 C 20.167969 5.917969 20.175781 5.90625 20.183594 5.894531 C 20.195312 5.886719 20.207031 5.878906 20.222656 5.878906 L 22.964844 5.878906 C 22.980469 5.878906 22.996094 5.886719 23.003906 5.894531 C 23.015625 5.90625 23.023438 5.917969 23.023438 5.933594 L 23.023438 6.628906 C 23.023438 6.640625 23.015625 6.65625 23.003906 6.667969 C 22.996094 6.675781 22.980469 6.683594 22.964844 6.683594 L 21.078125 6.683594 L 21.078125 7.417969 L 22.738281 7.417969 C 22.753906 7.417969 22.769531 7.425781 22.777344 7.4375 C 22.789062 7.449219 22.792969 7.460938 22.792969 7.476562 L 22.792969 8.207031 C 22.792969 8.222656 22.789062 8.234375 22.777344 8.246094 C 22.769531 8.257812 22.753906 8.261719 22.738281 8.261719 L 21.078125 8.261719 L 21.078125 8.953125 L 23.144531 8.953125 C 23.160156 8.953125 23.175781 8.957031 23.183594 8.96875 C 23.195312 8.976562 23.199219 8.992188 23.199219 9.007812 L 23.199219 9.703125 C 23.199219 9.71875 23.195312 9.730469 23.183594 9.742188 C 23.171875 9.75 23.160156 9.757812 23.144531 9.757812 Z M 20.222656 9.757812 "/>
<path style=" stroke:none;fill-rule:nonzero;fill:rgb(100%,100%,100%);fill-opacity:1;" d="M 12.792969 2.261719 C 12.625 2.261719 12.464844 2.296875 12.320312 2.359375 C 12.171875 2.425781 12.046875 2.511719 11.933594 2.625 C 11.824219 2.734375 11.738281 2.867188 11.671875 3.011719 C 11.605469 3.160156 11.574219 3.316406 11.574219 3.484375 C 11.574219 3.652344 11.605469 3.808594 11.671875 3.953125 C 11.738281 4.101562 11.824219 4.230469 11.933594 4.339844 C 12.046875 4.449219 12.171875 4.535156 12.320312 4.601562 C 12.464844 4.664062 12.625 4.699219 12.792969 4.699219 C 12.957031 4.699219 13.113281 4.664062 13.257812 4.601562 C 13.402344 4.535156 13.53125 4.449219 13.640625 4.339844 C 13.75 4.230469 13.835938 4.101562 13.902344 3.953125 C 13.964844 3.808594 13.996094 3.652344 13.996094 3.484375 C 13.996094 3.316406 13.964844 3.160156 13.902344 3.011719 C 13.835938 2.867188 13.75 2.734375 13.640625 2.625 C 13.53125 2.511719 13.402344 2.425781 13.257812 2.359375 C 13.113281 2.296875 12.957031 2.261719 12.792969 2.261719 M 14.855469 3.484375 C 14.855469 3.769531 14.796875 4.039062 14.6875 4.285156 C 14.582031 4.535156 14.429688 4.753906 14.246094 4.9375 C 14.058594 5.125 13.84375 5.273438 13.589844 5.378906 C 13.339844 5.488281 13.074219 5.542969 12.792969 5.542969 C 12.503906 5.542969 12.238281 5.488281 11.988281 5.378906 C 11.738281 5.273438 11.519531 5.125 11.335938 4.9375 C 11.152344 4.753906 11.003906 4.535156 10.894531 4.285156 C 10.785156 4.039062 10.734375 3.769531 10.734375 3.484375 C 10.734375 3.195312 10.785156 2.929688 10.894531 2.675781 C 11.003906 2.425781 11.152344 2.207031 11.335938 2.023438 C 11.519531 1.835938 11.738281 1.691406 11.988281 1.582031 C 12.238281 1.476562 12.503906 1.421875 12.792969 1.421875 C 13.074219 1.421875 13.339844 1.476562 13.589844 1.582031 C 13.84375 1.691406 14.058594 1.835938 14.246094 2.023438 C 14.429688 2.207031 14.582031 2.425781 14.6875 2.675781 C 14.796875 2.929688 14.855469 3.195312 14.855469 3.484375 "/>
<path style=" stroke:none;fill-rule:nonzero;fill:rgb(75.294118%,60.784314%,35.686275%);fill-opacity:1;" d="M 12.296875 4.652344 C 12.144531 4.585938 12.007812 4.492188 11.894531 4.378906 C 11.78125 4.261719 11.6875 4.128906 11.621094 3.976562 C 11.554688 3.824219 11.519531 3.660156 11.519531 3.484375 C 11.519531 3.308594 11.554688 3.144531 11.621094 2.988281 C 11.6875 2.839844 11.78125 2.703125 11.894531 2.585938 C 12.007812 2.46875 12.144531 2.378906 12.296875 2.3125 C 12.453125 2.242188 12.617188 2.207031 12.792969 2.207031 L 12.792969 2.316406 C 12.628906 2.320312 12.480469 2.347656 12.339844 2.410156 C 12.199219 2.472656 12.078125 2.558594 11.972656 2.664062 C 11.867188 2.769531 11.785156 2.894531 11.722656 3.035156 C 11.660156 3.175781 11.628906 3.324219 11.628906 3.484375 C 11.628906 3.644531 11.660156 3.792969 11.722656 3.933594 C 11.785156 4.074219 11.867188 4.195312 11.972656 4.300781 C 12.078125 4.40625 12.199219 4.488281 12.339844 4.550781 C 12.480469 4.613281 12.628906 4.644531 12.792969 4.644531 C 12.949219 4.644531 13.097656 4.613281 13.238281 4.550781 C 13.375 4.488281 13.496094 4.40625 13.601562 4.300781 C 13.707031 4.195312 13.789062 4.074219 13.847656 3.933594 C 13.910156 3.792969 13.9375 3.644531 13.9375 3.484375 C 13.9375 3.324219 13.910156 3.175781 13.847656 3.035156 C 13.789062 2.894531 13.707031 2.769531 13.601562 2.664062 C 13.496094 2.554688 13.375 2.472656 13.238281 2.410156 C 13.097656 2.347656 12.949219 2.320312 12.792969 2.316406 L 12.792969 2.207031 C 12.964844 2.207031 13.128906 2.242188 13.28125 2.3125 C 13.433594 2.378906 13.566406 2.46875 13.679688 2.585938 C 13.792969 2.703125 13.886719 2.839844 13.949219 2.988281 C 14.015625 3.144531 14.050781 3.308594 14.050781 3.484375 C 14.050781 3.660156 14.015625 3.824219 13.949219 3.976562 C 13.886719 4.128906 13.792969 4.261719 13.679688 4.378906 C 13.566406 4.492188 13.433594 4.585938 13.28125 4.652344 C 13.128906 4.71875 12.964844 4.753906 12.792969 4.753906 C 12.617188 4.753906 12.453125 4.71875 12.296875 4.652344 M 12.007812 1.632812 C 11.765625 1.738281 11.554688 1.882812 11.375 2.0625 C 11.191406 2.242188 11.050781 2.453125 10.945312 2.699219 C 10.839844 2.945312 10.789062 3.203125 10.789062 3.484375 C 10.789062 3.761719 10.839844 4.023438 10.945312 4.265625 C 11.050781 4.507812 11.191406 4.71875 11.375 4.902344 C 11.554688 5.082031 11.765625 5.222656 12.007812 5.328125 C 12.25 5.433594 12.511719 5.488281 12.792969 5.488281 C 13.066406 5.488281 13.324219 5.433594 13.570312 5.328125 C 13.8125 5.222656 14.027344 5.082031 14.207031 4.902344 C 14.386719 4.71875 14.53125 4.507812 14.636719 4.261719 C 14.742188 4.023438 14.796875 3.761719 14.796875 3.484375 C 14.796875 3.203125 14.742188 2.945312 14.636719 2.699219 C 14.53125 2.453125 14.386719 2.242188 14.207031 2.0625 C 14.027344 1.882812 13.8125 1.738281 13.570312 1.632812 C 13.324219 1.527344 13.066406 1.476562 12.792969 1.476562 C 12.511719 1.476562 12.25 1.527344 12.007812 1.632812 M 11.964844 5.429688 C 11.710938 5.320312 11.488281 5.167969 11.296875 4.976562 C 11.105469 4.789062 10.953125 4.5625 10.84375 4.308594 C 10.734375 4.050781 10.675781 3.777344 10.675781 3.484375 C 10.675781 3.191406 10.734375 2.914062 10.84375 2.65625 C 10.953125 2.398438 11.105469 2.175781 11.296875 1.984375 C 11.488281 1.792969 11.710938 1.640625 11.964844 1.53125 C 12.222656 1.421875 12.496094 1.367188 12.792969 1.367188 C 13.078125 1.367188 13.355469 1.421875 13.613281 1.53125 C 13.867188 1.640625 14.09375 1.792969 14.285156 1.984375 C 14.476562 2.175781 14.628906 2.398438 14.738281 2.65625 C 14.851562 2.914062 14.910156 3.191406 14.910156 3.484375 C 14.910156 3.777344 14.851562 4.050781 14.738281 4.308594 C 14.628906 4.5625 14.476562 4.789062 14.285156 4.976562 C 14.09375 5.167969 13.867188 5.320312 13.613281 5.429688 C 13.355469 5.542969 13.078125 5.597656 12.792969 5.597656 C 12.496094 5.597656 12.222656 5.542969 11.964844 5.429688 "/>
<path style=" stroke:none;fill-rule:nonzero;fill:rgb(100%,100%,100%);fill-opacity:1;" d="M 19.125 3.5 C 19.125 3.539062 19.117188 3.601562 19.105469 3.6875 C 19.097656 3.773438 19.082031 3.867188 19.0625 3.96875 C 19.042969 4.070312 19.019531 4.167969 18.992188 4.261719 C 18.964844 4.359375 18.933594 4.433594 18.898438 4.488281 C 18.808594 4.648438 18.703125 4.792969 18.578125 4.925781 C 18.453125 5.058594 18.308594 5.167969 18.152344 5.261719 C 18 5.355469 17.832031 5.429688 17.648438 5.480469 C 17.46875 5.53125 17.285156 5.558594 17.089844 5.558594 C 16.804688 5.558594 16.539062 5.503906 16.292969 5.398438 C 16.042969 5.289062 15.824219 5.140625 15.636719 4.953125 C 15.449219 4.765625 15.300781 4.546875 15.191406 4.296875 C 15.085938 4.050781 15.03125 3.78125 15.03125 3.496094 C 15.03125 3.214844 15.085938 2.945312 15.191406 2.699219 C 15.300781 2.449219 15.449219 2.230469 15.636719 2.042969 C 15.824219 1.855469 16.042969 1.707031 16.292969 1.601562 C 16.539062 1.492188 16.804688 1.4375 17.089844 1.4375 C 17.285156 1.4375 17.46875 1.464844 17.648438 1.515625 C 17.824219 1.566406 17.988281 1.640625 18.148438 1.730469 C 18.300781 1.820312 18.441406 1.929688 18.566406 2.0625 C 18.691406 2.1875 18.800781 2.328125 18.890625 2.488281 C 18.800781 2.53125 18.730469 2.566406 18.675781 2.597656 C 18.621094 2.628906 18.566406 2.65625 18.519531 2.675781 C 18.46875 2.703125 18.414062 2.730469 18.355469 2.757812 C 18.292969 2.789062 18.21875 2.828125 18.121094 2.875 C 18.015625 2.703125 17.875 2.558594 17.691406 2.453125 C 17.507812 2.34375 17.308594 2.289062 17.089844 2.289062 C 16.921875 2.289062 16.761719 2.320312 16.617188 2.386719 C 16.472656 2.449219 16.34375 2.535156 16.238281 2.640625 C 16.128906 2.75 16.042969 2.875 15.980469 3.023438 C 15.917969 3.171875 15.886719 3.328125 15.886719 3.496094 C 15.886719 3.664062 15.917969 3.816406 15.980469 3.964844 C 16.042969 4.113281 16.128906 4.242188 16.238281 4.351562 C 16.34375 4.460938 16.472656 4.546875 16.617188 4.605469 C 16.761719 4.667969 16.921875 4.699219 17.089844 4.699219 C 17.3125 4.699219 17.515625 4.644531 17.703125 4.53125 C 17.886719 4.421875 18.035156 4.277344 18.140625 4.097656 C 18.039062 4.09375 17.949219 4.089844 17.871094 4.09375 C 17.792969 4.097656 17.707031 4.097656 17.613281 4.097656 C 17.523438 4.097656 17.441406 4.097656 17.363281 4.101562 C 17.285156 4.101562 17.21875 4.101562 17.167969 4.101562 C 17.113281 4.101562 17.089844 4.101562 17.089844 4.097656 L 17.089844 3.496094 L 18.0625 3.496094 C 18.238281 3.496094 18.417969 3.496094 18.597656 3.5 L 19.125 3.5 "/>
<path style=" stroke:none;fill-rule:nonzero;fill:rgb(75.294118%,60.784314%,35.686275%);fill-opacity:1;" d="M 16.316406 1.648438 C 16.074219 1.753906 15.859375 1.898438 15.675781 2.082031 C 15.492188 2.265625 15.351562 2.476562 15.246094 2.71875 C 15.140625 2.960938 15.085938 3.222656 15.085938 3.496094 C 15.085938 3.773438 15.140625 4.035156 15.246094 4.277344 C 15.351562 4.519531 15.492188 4.730469 15.675781 4.914062 C 15.859375 5.097656 16.074219 5.242188 16.316406 5.347656 C 16.554688 5.449219 16.8125 5.5 17.089844 5.5 C 17.28125 5.5 17.460938 5.476562 17.632812 5.425781 C 17.808594 5.375 17.972656 5.304688 18.125 5.214844 C 18.277344 5.125 18.414062 5.015625 18.539062 4.886719 C 18.660156 4.757812 18.765625 4.617188 18.847656 4.460938 L 18.851562 4.453125 C 18.882812 4.410156 18.914062 4.34375 18.9375 4.25 C 18.964844 4.15625 18.988281 4.058594 19.007812 3.957031 C 19.027344 3.859375 19.042969 3.765625 19.050781 3.679688 C 19.058594 3.632812 19.0625 3.589844 19.066406 3.554688 C 18.914062 3.554688 18.757812 3.554688 18.597656 3.550781 C 18.417969 3.550781 18.238281 3.550781 18.0625 3.550781 L 17.144531 3.550781 L 17.144531 4.046875 L 17.167969 4.046875 C 17.21875 4.046875 17.285156 4.046875 17.363281 4.046875 C 17.4375 4.042969 17.523438 4.039062 17.613281 4.039062 C 17.707031 4.039062 17.789062 4.039062 17.867188 4.039062 C 17.894531 4.039062 17.921875 4.039062 17.953125 4.039062 C 18.011719 4.039062 18.074219 4.039062 18.144531 4.039062 C 18.164062 4.042969 18.179688 4.054688 18.191406 4.070312 C 18.203125 4.085938 18.203125 4.105469 18.191406 4.125 C 18.078125 4.3125 17.921875 4.464844 17.730469 4.582031 C 17.535156 4.695312 17.320312 4.753906 17.089844 4.753906 C 16.914062 4.753906 16.75 4.722656 16.597656 4.65625 C 16.445312 4.59375 16.308594 4.503906 16.195312 4.390625 C 16.082031 4.277344 15.996094 4.140625 15.929688 3.988281 C 15.863281 3.835938 15.828125 3.667969 15.828125 3.496094 C 15.828125 3.320312 15.863281 3.15625 15.929688 3.003906 C 15.996094 2.847656 16.082031 2.714844 16.195312 2.601562 C 16.308594 2.488281 16.445312 2.398438 16.597656 2.332031 C 16.75 2.269531 16.914062 2.238281 17.089844 2.238281 C 17.316406 2.238281 17.53125 2.289062 17.71875 2.40625 C 17.894531 2.507812 18.035156 2.640625 18.140625 2.804688 C 18.21875 2.765625 18.28125 2.734375 18.332031 2.710938 C 18.390625 2.679688 18.445312 2.652344 18.496094 2.628906 C 18.542969 2.605469 18.59375 2.578125 18.648438 2.546875 C 18.691406 2.523438 18.746094 2.496094 18.8125 2.460938 C 18.730469 2.332031 18.636719 2.207031 18.527344 2.097656 C 18.40625 1.972656 18.269531 1.867188 18.117188 1.777344 C 17.96875 1.6875 17.804688 1.621094 17.632812 1.566406 C 17.457031 1.519531 17.28125 1.492188 17.089844 1.492188 C 16.8125 1.492188 16.554688 1.546875 16.316406 1.648438 M 16.269531 5.445312 C 16.015625 5.335938 15.789062 5.183594 15.597656 4.992188 C 15.402344 4.800781 15.253906 4.574219 15.144531 4.320312 C 15.03125 4.066406 14.976562 3.789062 14.976562 3.496094 C 14.976562 3.203125 15.03125 2.929688 15.144531 2.675781 C 15.253906 2.421875 15.402344 2.195312 15.597656 2.003906 C 15.789062 1.8125 16.015625 1.660156 16.269531 1.546875 C 16.527344 1.4375 16.800781 1.382812 17.089844 1.382812 C 17.289062 1.382812 17.476562 1.410156 17.664062 1.464844 C 17.84375 1.515625 18.015625 1.589844 18.175781 1.683594 C 18.332031 1.773438 18.476562 1.890625 18.605469 2.019531 C 18.734375 2.152344 18.847656 2.296875 18.9375 2.460938 C 18.945312 2.472656 18.949219 2.488281 18.941406 2.503906 C 18.9375 2.515625 18.929688 2.527344 18.914062 2.535156 C 18.824219 2.582031 18.753906 2.617188 18.703125 2.644531 C 18.648438 2.675781 18.59375 2.703125 18.542969 2.726562 C 18.492188 2.753906 18.4375 2.777344 18.378906 2.808594 C 18.320312 2.839844 18.242188 2.875 18.144531 2.925781 C 18.121094 2.9375 18.089844 2.929688 18.070312 2.90625 C 17.972656 2.738281 17.835938 2.605469 17.664062 2.5 C 17.492188 2.398438 17.300781 2.347656 17.089844 2.347656 C 16.929688 2.347656 16.777344 2.378906 16.636719 2.4375 C 16.5 2.496094 16.378906 2.578125 16.273438 2.679688 C 16.171875 2.785156 16.089844 2.90625 16.03125 3.046875 C 15.972656 3.1875 15.941406 3.332031 15.941406 3.496094 C 15.941406 3.65625 15.972656 3.804688 16.03125 3.945312 C 16.089844 4.085938 16.171875 4.207031 16.273438 4.3125 C 16.382812 4.417969 16.5 4.496094 16.636719 4.558594 C 16.777344 4.613281 16.929688 4.644531 17.089844 4.644531 C 17.304688 4.644531 17.496094 4.589844 17.671875 4.484375 C 17.824219 4.394531 17.945312 4.285156 18.042969 4.152344 C 18.011719 4.148438 17.980469 4.148438 17.953125 4.148438 C 17.921875 4.148438 17.898438 4.148438 17.871094 4.152344 C 17.792969 4.152344 17.707031 4.152344 17.613281 4.152344 C 17.523438 4.152344 17.441406 4.152344 17.363281 4.15625 C 17.285156 4.15625 17.21875 4.15625 17.167969 4.15625 C 17.144531 4.15625 17.128906 4.15625 17.113281 4.15625 C 17.097656 4.15625 17.089844 4.15625 17.074219 4.152344 C 17.070312 4.148438 17.0625 4.148438 17.050781 4.136719 C 17.042969 4.128906 17.035156 4.113281 17.035156 4.097656 L 17.035156 3.496094 C 17.035156 3.480469 17.039062 3.46875 17.050781 3.453125 C 17.058594 3.445312 17.074219 3.4375 17.089844 3.4375 L 18.0625 3.4375 C 18.238281 3.4375 18.417969 3.4375 18.597656 3.441406 C 18.78125 3.445312 18.953125 3.445312 19.125 3.445312 L 19.125 3.5 L 19.125 3.445312 C 19.136719 3.445312 19.152344 3.449219 19.164062 3.460938 C 19.175781 3.472656 19.179688 3.488281 19.179688 3.5 C 19.179688 3.542969 19.175781 3.605469 19.164062 3.695312 C 19.152344 3.78125 19.136719 3.875 19.117188 3.976562 C 19.097656 4.082031 19.074219 4.183594 19.046875 4.28125 C 19.015625 4.378906 18.984375 4.457031 18.941406 4.515625 C 18.855469 4.679688 18.746094 4.828125 18.617188 4.964844 C 18.488281 5.097656 18.34375 5.214844 18.183594 5.308594 C 18.019531 5.40625 17.847656 5.480469 17.664062 5.53125 C 17.476562 5.585938 17.289062 5.613281 17.089844 5.613281 C 16.800781 5.613281 16.527344 5.558594 16.269531 5.445312 "/>
<path style=" stroke:none;fill-rule:nonzero;fill:rgb(100%,100%,100%);fill-opacity:1;" d="M 23.175781 4.425781 C 23.09375 4.585938 22.988281 4.734375 22.863281 4.863281 C 22.742188 4.996094 22.605469 5.109375 22.453125 5.203125 C 22.300781 5.296875 22.132812 5.371094 21.953125 5.425781 C 21.773438 5.476562 21.585938 5.5 21.390625 5.5 C 21.113281 5.5 20.851562 5.449219 20.609375 5.34375 C 20.359375 5.238281 20.148438 5.09375 19.964844 4.910156 C 19.785156 4.726562 19.640625 4.515625 19.535156 4.269531 C 19.425781 4.023438 19.375 3.761719 19.375 3.484375 C 19.375 3.210938 19.425781 2.949219 19.535156 2.703125 C 19.640625 2.457031 19.785156 2.246094 19.964844 2.0625 C 20.148438 1.875 20.359375 1.730469 20.609375 1.625 C 20.851562 1.519531 21.113281 1.464844 21.390625 1.464844 C 21.585938 1.464844 21.765625 1.492188 21.941406 1.539062 C 22.113281 1.589844 22.277344 1.660156 22.429688 1.753906 C 22.578125 1.84375 22.714844 1.953125 22.835938 2.078125 C 22.957031 2.203125 23.058594 2.34375 23.144531 2.496094 C 23.058594 2.542969 22.988281 2.578125 22.9375 2.605469 C 22.886719 2.632812 22.835938 2.660156 22.785156 2.683594 C 22.738281 2.707031 22.683594 2.734375 22.625 2.765625 C 22.566406 2.792969 22.488281 2.832031 22.398438 2.875 C 22.300781 2.707031 22.164062 2.566406 21.984375 2.460938 C 21.808594 2.355469 21.609375 2.300781 21.390625 2.300781 C 21.230469 2.300781 21.078125 2.332031 20.933594 2.398438 C 20.789062 2.460938 20.664062 2.542969 20.558594 2.652344 C 20.449219 2.757812 20.363281 2.882812 20.304688 3.027344 C 20.242188 3.171875 20.214844 3.324219 20.214844 3.484375 C 20.214844 3.648438 20.242188 3.800781 20.304688 3.945312 C 20.363281 4.085938 20.449219 4.210938 20.558594 4.320312 C 20.664062 4.425781 20.789062 4.511719 20.933594 4.574219 C 21.078125 4.636719 21.230469 4.664062 21.390625 4.664062 C 21.617188 4.664062 21.820312 4.609375 22.003906 4.496094 C 22.1875 4.382812 22.332031 4.234375 22.429688 4.046875 C 22.523438 4.09375 22.597656 4.136719 22.65625 4.164062 C 22.714844 4.195312 22.765625 4.21875 22.8125 4.246094 C 22.863281 4.273438 22.914062 4.296875 22.964844 4.328125 C 23.015625 4.351562 23.089844 4.386719 23.175781 4.425781 "/>
<path style=" stroke:none;fill-rule:nonzero;fill:rgb(75.294118%,60.784314%,35.686275%);fill-opacity:1;" d="M 20.628906 1.675781 C 20.390625 1.777344 20.183594 1.917969 20.003906 2.097656 C 19.828125 2.277344 19.6875 2.488281 19.585938 2.726562 C 19.484375 2.964844 19.429688 3.214844 19.429688 3.484375 C 19.429688 3.753906 19.484375 4.011719 19.585938 4.246094 C 19.6875 4.488281 19.828125 4.695312 20.003906 4.871094 C 20.183594 5.050781 20.390625 5.1875 20.628906 5.292969 C 20.867188 5.394531 21.121094 5.445312 21.390625 5.445312 C 21.582031 5.445312 21.761719 5.421875 21.9375 5.371094 C 22.113281 5.320312 22.277344 5.25 22.425781 5.15625 C 22.570312 5.0625 22.707031 4.953125 22.824219 4.828125 C 22.929688 4.710938 23.023438 4.585938 23.101562 4.453125 C 23.035156 4.421875 22.984375 4.394531 22.941406 4.375 C 22.886719 4.347656 22.835938 4.324219 22.789062 4.296875 C 22.742188 4.269531 22.6875 4.246094 22.632812 4.214844 C 22.582031 4.1875 22.523438 4.160156 22.453125 4.121094 C 22.347656 4.292969 22.207031 4.433594 22.03125 4.542969 C 21.839844 4.664062 21.625 4.722656 21.390625 4.71875 C 21.222656 4.71875 21.0625 4.691406 20.910156 4.625 C 20.761719 4.5625 20.628906 4.472656 20.519531 4.359375 C 20.40625 4.246094 20.316406 4.113281 20.253906 3.964844 C 20.1875 3.816406 20.15625 3.65625 20.15625 3.484375 C 20.15625 3.316406 20.1875 3.15625 20.253906 3.003906 C 20.316406 2.855469 20.40625 2.722656 20.519531 2.609375 C 20.628906 2.5 20.761719 2.410156 20.910156 2.34375 C 21.0625 2.28125 21.222656 2.246094 21.390625 2.246094 C 21.617188 2.246094 21.828125 2.300781 22.011719 2.414062 C 22.183594 2.515625 22.320312 2.644531 22.417969 2.804688 C 22.492188 2.769531 22.550781 2.738281 22.601562 2.714844 C 22.660156 2.683594 22.714844 2.660156 22.761719 2.632812 C 22.808594 2.609375 22.859375 2.585938 22.910156 2.554688 C 22.953125 2.535156 23.003906 2.507812 23.066406 2.472656 C 22.988281 2.34375 22.898438 2.226562 22.792969 2.117188 C 22.675781 1.996094 22.542969 1.890625 22.398438 1.800781 C 22.253906 1.710938 22.09375 1.644531 21.921875 1.59375 C 21.753906 1.546875 21.578125 1.519531 21.390625 1.519531 C 21.121094 1.519531 20.867188 1.570312 20.628906 1.675781 M 20.585938 5.394531 C 20.332031 5.285156 20.113281 5.136719 19.925781 4.949219 C 19.738281 4.761719 19.589844 4.542969 19.484375 4.292969 C 19.375 4.039062 19.320312 3.769531 19.320312 3.484375 C 19.320312 3.203125 19.375 2.933594 19.484375 2.679688 C 19.589844 2.429688 19.738281 2.207031 19.925781 2.019531 C 20.113281 1.832031 20.332031 1.679688 20.585938 1.570312 C 20.835938 1.464844 21.109375 1.410156 21.390625 1.410156 C 21.585938 1.410156 21.773438 1.433594 21.957031 1.488281 C 22.132812 1.539062 22.300781 1.609375 22.457031 1.703125 C 22.609375 1.800781 22.75 1.910156 22.875 2.042969 C 23 2.171875 23.105469 2.3125 23.191406 2.46875 C 23.199219 2.484375 23.203125 2.496094 23.195312 2.511719 C 23.191406 2.527344 23.183594 2.539062 23.167969 2.546875 C 23.082031 2.589844 23.015625 2.628906 22.964844 2.65625 C 22.910156 2.683594 22.863281 2.707031 22.8125 2.734375 C 22.761719 2.757812 22.710938 2.785156 22.652344 2.8125 C 22.589844 2.84375 22.515625 2.882812 22.421875 2.925781 C 22.394531 2.9375 22.363281 2.929688 22.347656 2.902344 C 22.257812 2.742188 22.128906 2.609375 21.957031 2.507812 C 21.785156 2.40625 21.597656 2.359375 21.390625 2.359375 C 21.234375 2.359375 21.09375 2.386719 20.957031 2.449219 C 20.816406 2.507812 20.699219 2.589844 20.597656 2.691406 C 20.492188 2.789062 20.414062 2.910156 20.355469 3.046875 C 20.296875 3.1875 20.265625 3.332031 20.265625 3.484375 C 20.265625 3.640625 20.296875 3.785156 20.355469 3.921875 C 20.414062 4.058594 20.492188 4.179688 20.597656 4.28125 C 20.699219 4.386719 20.816406 4.464844 20.957031 4.523438 C 21.09375 4.582031 21.234375 4.609375 21.390625 4.609375 C 21.605469 4.609375 21.796875 4.558594 21.972656 4.449219 C 22.148438 4.339844 22.285156 4.199219 22.378906 4.019531 C 22.398438 3.992188 22.429688 3.984375 22.457031 3.996094 C 22.546875 4.046875 22.625 4.085938 22.679688 4.113281 C 22.738281 4.144531 22.792969 4.175781 22.839844 4.199219 C 22.886719 4.222656 22.9375 4.25 22.992188 4.277344 C 23.042969 4.300781 23.113281 4.335938 23.199219 4.375 L 23.175781 4.425781 L 23.199219 4.375 C 23.214844 4.382812 23.222656 4.394531 23.230469 4.410156 C 23.234375 4.421875 23.234375 4.441406 23.226562 4.453125 C 23.140625 4.617188 23.03125 4.765625 22.90625 4.902344 C 22.777344 5.035156 22.636719 5.152344 22.484375 5.25 C 22.324219 5.351562 22.152344 5.425781 21.96875 5.476562 C 21.78125 5.53125 21.589844 5.558594 21.390625 5.558594 C 21.109375 5.558594 20.835938 5.503906 20.585938 5.394531 "/>
<path style=" stroke:none;fill-rule:nonzero;fill:rgb(100%,100%,100%);fill-opacity:1;" d="M 17.039062 23.269531 C 21.0625 21.148438 23.304688 17.273438 24.542969 13.304688 C 25.78125 9.332031 26.011719 5.277344 26.011719 2.832031 C 26.011719 1.765625 25.96875 1.003906 25.945312 0.695312 C 25.945312 0.65625 25.941406 0.625 25.941406 0.601562 L 8.117188 0.601562 C 8.113281 0.625 8.113281 0.65625 8.109375 0.695312 C 8.101562 0.792969 8.09375 0.949219 8.082031 1.148438 C 8.0625 1.546875 8.046875 2.125 8.046875 2.835938 C 8.046875 5.277344 8.273438 9.332031 9.511719 13.304688 C 10.75 17.273438 12.996094 21.148438 17.019531 23.269531 Z M 17 23.417969 C 16.988281 23.417969 16.976562 23.414062 16.964844 23.410156 C 12.882812 21.261719 10.617188 17.339844 9.375 13.347656 C 8.125 9.355469 7.898438 5.289062 7.898438 2.835938 C 7.898438 1.40625 7.976562 0.523438 7.976562 0.519531 C 7.980469 0.484375 8.011719 0.453125 8.046875 0.453125 L 26.007812 0.453125 L 26.007812 0.527344 L 26.007812 0.453125 C 26.046875 0.453125 26.078125 0.484375 26.082031 0.519531 C 26.082031 0.523438 26.160156 1.402344 26.160156 2.832031 C 26.160156 5.289062 25.929688 9.355469 24.683594 13.347656 C 23.4375 17.339844 21.171875 21.261719 17.09375 23.410156 C 17.082031 23.414062 17.070312 23.417969 17.054688 23.417969 Z M 17 23.417969 "/>
<path style=" stroke:none;fill-rule:nonzero;fill:rgb(100%,100%,100%);fill-opacity:1;" d="M 16.984375 23.34375 L 17.132812 23.34375 L 17.132812 24.808594 L 16.984375 24.808594 Z M 16.984375 23.34375 "/>
</g>
</svg>
