<?xml version="1.0" encoding="UTF-8"?>
<svg xmlns="http://www.w3.org/2000/svg" xmlns:xlink="http://www.w3.org/1999/xlink" width="35pt" height="25pt" viewBox="0 0 35 25" version="1.1">
<g id="surface1">
<path style=" stroke:none;fill-rule:evenodd;fill:rgb(100%,100%,100%);fill-opacity:1;" d="M 25.667969 5.222656 L 9.167969 5.222656 L 9.183594 11.492188 C 9.277344 14.085938 10.015625 16.472656 11.402344 18.648438 C 12.773438 20.800781 14.777344 22.75 17.417969 24.496094 C 20.058594 22.75 22.0625 20.800781 23.433594 18.648438 C 24.820312 16.472656 25.558594 14.085938 25.652344 11.492188 Z M 25.667969 5.222656 "/>
<path style=" stroke:none;fill-rule:evenodd;fill:rgb(100%,100%,100%);fill-opacity:1;" d="M 9.660156 5.910156 L 9.660156 5.710938 L 25.175781 5.710938 L 25.175781 5.910156 C 25.167969 9.828125 25.113281 11.671875 25.113281 11.679688 C 25.03125 14.085938 24.339844 16.320312 23.074219 18.359375 C 21.800781 20.410156 19.941406 22.261719 17.53125 23.898438 L 17.417969 23.972656 L 17.308594 23.898438 C 14.894531 22.261719 13.039062 20.410156 11.765625 18.359375 C 10.496094 16.320312 9.804688 14.085938 9.722656 11.679688 C 9.722656 11.671875 9.667969 9.828125 9.660156 5.910156 Z M 9.660156 5.910156 "/>
<path style=" stroke:none;fill-rule:evenodd;fill:rgb(81.960784%,65.490196%,41.568627%);fill-opacity:1;" d="M 17.304688 24.925781 C 14.558594 23.125 12.472656 21.105469 11.050781 18.871094 C 9.621094 16.632812 8.863281 14.175781 8.765625 11.507812 L 8.765625 11.5 L 8.75 5.011719 L 8.75 4.800781 L 26.085938 4.800781 L 26.085938 5.011719 L 26.070312 11.5 L 26.070312 11.507812 C 25.976562 14.175781 25.214844 16.632812 23.785156 18.871094 C 22.363281 21.105469 20.277344 23.125 17.535156 24.925781 L 17.417969 25 Z M 11.402344 18.648438 C 12.773438 20.800781 14.777344 22.75 17.417969 24.496094 C 20.058594 22.75 22.0625 20.800781 23.433594 18.648438 C 24.820312 16.472656 25.558594 14.085938 25.652344 11.492188 L 25.667969 5.222656 L 9.167969 5.222656 L 9.183594 11.492188 C 9.277344 14.085938 10.015625 16.472656 11.402344 18.648438 Z M 11.402344 18.648438 "/>
<path style=" stroke:none;fill-rule:evenodd;fill:rgb(81.960784%,65.490196%,41.568627%);fill-opacity:1;" d="M 16.421875 4.109375 L 15.085938 3.136719 L 13.75 4.109375 L 14.265625 2.539062 L 12.925781 1.570312 L 14.578125 1.574219 L 15.085938 0 L 15.59375 1.574219 L 17.246094 1.570312 L 15.90625 2.539062 Z M 16.421875 4.109375 "/>
<path style=" stroke:none;fill-rule:evenodd;fill:rgb(81.960784%,65.490196%,41.568627%);fill-opacity:1;" d="M 21.097656 4.109375 L 19.761719 3.136719 L 18.425781 4.109375 L 18.941406 2.539062 L 17.601562 1.570312 L 19.253906 1.574219 L 19.761719 0 L 20.269531 1.574219 L 21.921875 1.570312 L 20.585938 2.539062 Z M 21.097656 4.109375 "/>
<path style=" stroke:none;fill-rule:evenodd;fill:rgb(80.784314%,0%,4.705882%);fill-opacity:1;" d="M 12.523438 9.53125 L 12.523438 9.78125 L 12.105469 9.78125 L 12.105469 9.53125 C 11.769531 9.519531 11.53125 9.433594 11.394531 9.277344 C 11.253906 9.121094 11.1875 8.921875 11.1875 8.6875 C 11.1875 8.4375 11.257812 8.238281 11.402344 8.089844 C 11.546875 7.9375 11.78125 7.859375 12.105469 7.84375 L 12.105469 7.632812 L 12.523438 7.632812 L 12.523438 7.84375 C 12.859375 7.855469 13.097656 7.941406 13.234375 8.097656 C 13.375 8.253906 13.445312 8.449219 13.445312 8.6875 C 13.445312 8.925781 13.375 9.121094 13.234375 9.277344 C 13.097656 9.433594 12.859375 9.519531 12.523438 9.53125 Z M 12.523438 9.167969 C 12.636719 9.167969 12.730469 9.148438 12.8125 9.113281 C 12.890625 9.074219 12.949219 9.023438 12.980469 8.957031 C 13.015625 8.894531 13.03125 8.796875 13.03125 8.675781 C 13.03125 8.363281 12.863281 8.207031 12.523438 8.207031 Z M 12.105469 9.167969 L 12.105469 8.207031 C 11.925781 8.207031 11.796875 8.246094 11.71875 8.332031 C 11.640625 8.410156 11.597656 8.535156 11.597656 8.699219 C 11.597656 9.011719 11.769531 9.167969 12.105469 9.167969 Z M 13.847656 9.78125 L 13.847656 7.628906 L 14.273438 7.628906 L 14.273438 8.585938 L 15.132812 7.628906 L 15.707031 7.628906 L 14.78125 8.605469 L 15.75 9.78125 L 15.199219 9.78125 L 14.488281 8.910156 L 14.273438 9.132812 L 14.273438 9.78125 Z M 13.847656 9.78125 "/>
<path style=" stroke:none;fill-rule:evenodd;fill:rgb(80.784314%,0%,4.705882%);fill-opacity:1;" d="M 20.828125 17.691406 L 17.417969 15.125 L 14.007812 17.691406 L 15.320312 13.554688 L 11.898438 11.003906 L 16.121094 11.011719 L 17.417969 6.867188 L 18.714844 11.011719 L 22.9375 11.003906 L 19.515625 13.554688 Z M 20.828125 17.691406 "/>
<path style=" stroke:none;fill-rule:evenodd;fill:rgb(80.784314%,0%,4.705882%);fill-opacity:1;" d="M 17.53125 23.898438 C 19.941406 22.261719 21.800781 20.410156 23.074219 18.359375 C 24.339844 16.320312 25.03125 14.085938 25.113281 11.679688 C 25.113281 11.671875 25.167969 9.828125 25.175781 5.910156 L 25.175781 5.710938 L 9.660156 5.710938 L 9.660156 5.910156 C 9.671875 9.828125 9.722656 11.671875 9.722656 11.679688 C 9.804688 14.085938 10.496094 16.320312 11.765625 18.359375 C 13.039062 20.410156 14.894531 22.261719 17.308594 23.898438 L 17.417969 23.972656 Z M 21.578125 18.683594 L 17.394531 15.617188 L 13.316406 18.683594 L 14.941406 13.5625 L 11.1875 16.40625 C 10.539062 14.914062 10.179688 13.332031 10.121094 11.667969 C 10.121094 11.605469 10.070312 9.820312 10.058594 6.109375 L 24.777344 6.109375 L 24.777344 6.117188 L 18.835938 10.617188 L 24.109375 10.617188 L 20.066406 13.632812 Z M 21.578125 18.683594 "/>
</g>
</svg>
