<?xml version="1.0" encoding="UTF-8"?>
<svg xmlns="http://www.w3.org/2000/svg" xmlns:xlink="http://www.w3.org/1999/xlink" width="35pt" height="25pt" viewBox="0 0 35 25" version="1.1">
<g id="surface1">
<path style=" stroke:none;fill-rule:nonzero;fill:rgb(98.823529%,73.72549%,9.019608%);fill-opacity:1;" d="M 26.851562 7.960938 C 26.574219 6.8125 26.335938 5.824219 26.273438 5.261719 C 26.109375 3.816406 26.75 2.828125 26.753906 2.816406 L 26.9375 2.539062 L 24.90625 0 L 24.625 0.0703125 C 22.761719 0.527344 20.34375 0.777344 17.8125 0.777344 L 17.699219 0.777344 C 15.167969 0.777344 12.75 0.527344 10.886719 0.0703125 L 10.605469 0 L 8.574219 2.539062 L 8.757812 2.816406 C 8.765625 2.828125 9.402344 3.816406 9.242188 5.261719 C 9.175781 5.824219 8.9375 6.8125 8.660156 7.960938 C 8.144531 10.105469 7.5 12.777344 7.5 14.664062 C 7.5 18.097656 8.902344 19.808594 13.0625 21.4375 L 13.488281 21.605469 C 15.09375 22.226562 16.824219 22.765625 17.394531 24.082031 C 17.582031 24.441406 17.628906 24.535156 17.757812 25 C 17.882812 24.535156 17.933594 24.441406 18.117188 24.082031 C 18.6875 22.765625 20.421875 22.226562 22.023438 21.605469 L 22.453125 21.4375 C 26.609375 19.808594 28.011719 18.097656 28.011719 14.664062 C 28.011719 12.777344 27.367188 10.105469 26.851562 7.960938 Z M 26.851562 7.960938 "/>
<path style=" stroke:none;fill-rule:nonzero;fill:rgb(88.235294%,20%,15.294118%);fill-opacity:1;" d="M 27.179688 11.492188 C 26.957031 10.335938 26.667969 9.140625 26.410156 8.066406 C 26.132812 6.914062 25.894531 5.933594 25.824219 5.3125 C 25.800781 5.132812 25.792969 4.957031 25.792969 4.789062 C 25.792969 3.820312 26.09375 3.097656 26.261719 2.769531 C 26.320312 2.660156 26.359375 2.59375 26.375 2.570312 C 26.378906 2.570312 26.378906 2.570312 26.378906 2.570312 L 26.378906 2.566406 L 24.734375 0.507812 C 22.820312 0.976562 20.375 1.230469 17.8125 1.230469 L 17.757812 1.230469 L 17.757812 23.785156 C 17.925781 23.441406 18.164062 23.144531 18.4375 22.894531 C 18.742188 22.613281 19.09375 22.382812 19.46875 22.183594 C 20.21875 21.78125 21.066406 21.488281 21.859375 21.183594 L 22.285156 21.015625 C 23.820312 20.414062 24.949219 19.808594 25.746094 19.136719 C 26.542969 18.464844 27.019531 17.738281 27.292969 16.8125 C 27.476562 16.199219 27.558594 15.492188 27.558594 14.664062 C 27.558594 13.769531 27.40625 12.652344 27.179688 11.492188 Z M 27.179688 11.492188 "/>
<path style=" stroke:none;fill-rule:nonzero;fill:rgb(0%,0%,0%);fill-opacity:1;" d="M 17.757812 1.230469 L 17.699219 1.230469 C 15.136719 1.230469 12.691406 0.976562 10.78125 0.507812 L 10.777344 0.507812 L 9.132812 2.566406 C 9.132812 2.566406 9.136719 2.570312 9.136719 2.570312 C 9.136719 2.570312 9.136719 2.574219 9.140625 2.574219 C 9.140625 2.578125 9.144531 2.585938 9.148438 2.589844 C 9.152344 2.597656 9.160156 2.609375 9.171875 2.625 C 9.1875 2.65625 9.214844 2.699219 9.242188 2.753906 C 9.296875 2.863281 9.367188 3.015625 9.4375 3.207031 C 9.582031 3.589844 9.71875 4.132812 9.71875 4.789062 C 9.71875 4.957031 9.710938 5.132812 9.691406 5.3125 C 9.617188 5.933594 9.378906 6.914062 9.101562 8.066406 C 8.84375 9.140625 8.554688 10.335938 8.332031 11.492188 C 8.109375 12.648438 7.953125 13.769531 7.953125 14.664062 C 7.953125 15.492188 8.039062 16.199219 8.21875 16.8125 C 8.398438 17.429688 8.675781 17.957031 9.070312 18.441406 C 9.859375 19.40625 11.175781 20.214844 13.222656 21.015625 L 13.652344 21.179688 C 14.246094 21.410156 14.871094 21.636719 15.464844 21.902344 C 16.054688 22.167969 16.617188 22.472656 17.074219 22.894531 C 17.351562 23.144531 17.585938 23.441406 17.757812 23.785156 Z M 17.757812 1.230469 "/>
<path style=" stroke:none;fill-rule:nonzero;fill:rgb(100%,100%,100%);fill-opacity:1;" d="M 10.59375 14.898438 C 10.5 14.804688 10.351562 14.75 10.21875 14.75 C 10.082031 14.75 9.914062 14.800781 9.914062 14.964844 C 9.914062 15.292969 10.730469 15.285156 10.730469 15.726562 C 10.730469 15.980469 10.464844 16.21875 10.09375 16.21875 C 9.949219 16.21875 9.804688 16.199219 9.667969 16.148438 L 9.597656 15.851562 C 9.738281 15.972656 9.933594 16.046875 10.121094 16.046875 C 10.253906 16.046875 10.460938 15.96875 10.460938 15.800781 C 10.460938 15.429688 9.640625 15.496094 9.640625 14.992188 C 9.640625 14.691406 9.949219 14.578125 10.238281 14.578125 C 10.359375 14.578125 10.480469 14.59375 10.59375 14.628906 L 10.59375 14.898438 "/>
<path style=" stroke:none;fill-rule:nonzero;fill:rgb(100%,100%,100%);fill-opacity:1;" d="M 11.40625 15.871094 C 11.40625 16.007812 11.40625 16.101562 11.53125 16.175781 L 11.53125 16.179688 L 11.058594 16.179688 L 11.058594 16.175781 C 11.179688 16.128906 11.164062 15.957031 11.164062 15.847656 L 11.164062 14.785156 L 10.953125 14.785156 C 10.851562 14.785156 10.746094 14.8125 10.671875 14.882812 L 10.664062 14.882812 L 10.746094 14.597656 L 10.753906 14.597656 C 10.785156 14.609375 10.8125 14.609375 10.84375 14.617188 L 11.792969 14.617188 C 11.832031 14.617188 11.871094 14.613281 11.902344 14.597656 L 11.910156 14.597656 L 11.832031 14.882812 L 11.824219 14.882812 C 11.792969 14.800781 11.699219 14.785156 11.621094 14.785156 L 11.40625 14.785156 L 11.40625 15.871094 "/>
<path style=" stroke:none;fill-rule:nonzero;fill:rgb(100%,100%,100%);fill-opacity:1;" d="M 12.46875 14.816406 L 12.234375 15.417969 L 12.703125 15.417969 L 12.46875 14.816406 M 12.171875 15.59375 L 12.046875 15.929688 C 11.996094 16.0625 11.980469 16.132812 12.09375 16.175781 L 12.09375 16.179688 L 11.65625 16.179688 L 11.65625 16.175781 C 11.792969 16.105469 11.835938 15.972656 11.886719 15.835938 L 12.285156 14.84375 C 12.320312 14.757812 12.363281 14.660156 12.25 14.621094 L 12.25 14.617188 L 12.625 14.617188 L 13.121094 15.835938 C 13.175781 15.972656 13.21875 16.105469 13.355469 16.175781 L 13.355469 16.179688 L 12.867188 16.179688 L 12.867188 16.175781 C 12.984375 16.121094 12.964844 16.097656 12.898438 15.929688 L 12.769531 15.59375 Z M 12.171875 15.59375 "/>
<path style=" stroke:none;fill-rule:nonzero;fill:rgb(100%,100%,100%);fill-opacity:1;" d="M 13.78125 15.992188 C 13.835938 16.003906 13.894531 16.011719 13.953125 16.011719 C 14.308594 16.011719 14.625 15.824219 14.625 15.414062 C 14.625 14.996094 14.390625 14.785156 13.992188 14.785156 C 13.921875 14.785156 13.851562 14.796875 13.78125 14.8125 L 13.78125 15.992188 M 13.539062 14.941406 C 13.539062 14.832031 13.554688 14.660156 13.433594 14.621094 L 13.433594 14.617188 L 14.015625 14.617188 C 14.558594 14.617188 14.894531 14.910156 14.894531 15.382812 C 14.894531 15.851562 14.535156 16.179688 14.003906 16.179688 L 13.433594 16.179688 L 13.433594 16.175781 C 13.550781 16.09375 13.539062 15.980469 13.539062 15.839844 Z M 13.539062 14.941406 "/>
<path style=" stroke:none;fill-rule:nonzero;fill:rgb(100%,100%,100%);fill-opacity:1;" d="M 15.355469 15.980469 L 15.65625 16.011719 C 15.816406 16.023438 15.980469 15.972656 16.097656 15.871094 L 16.105469 15.871094 L 16 16.179688 L 15.003906 16.179688 L 15.003906 16.175781 C 15.128906 16.132812 15.113281 15.957031 15.113281 15.847656 L 15.113281 14.949219 C 15.113281 14.839844 15.128906 14.667969 15.003906 14.621094 L 15.003906 14.617188 L 15.765625 14.617188 C 15.808594 14.617188 15.847656 14.621094 15.878906 14.601562 L 15.886719 14.601562 L 15.886719 14.882812 L 15.878906 14.882812 C 15.804688 14.796875 15.707031 14.785156 15.597656 14.785156 C 15.515625 14.785156 15.429688 14.789062 15.355469 14.804688 L 15.355469 15.246094 L 15.640625 15.246094 C 15.675781 15.246094 15.714844 15.246094 15.742188 15.230469 L 15.75 15.230469 L 15.75 15.484375 L 15.742188 15.484375 C 15.707031 15.414062 15.605469 15.417969 15.53125 15.417969 L 15.355469 15.417969 L 15.355469 15.980469 "/>
<path style=" stroke:none;fill-rule:nonzero;fill:rgb(100%,100%,100%);fill-opacity:1;" d="M 17.347656 14.617188 C 17.667969 14.617188 17.84375 14.78125 17.84375 15 C 17.84375 15.207031 17.660156 15.371094 17.464844 15.417969 L 17.804688 15.847656 C 17.90625 15.972656 18.054688 16.097656 18.191406 16.179688 L 17.972656 16.179688 C 17.847656 16.179688 17.769531 16.152344 17.695312 16.0625 L 17.40625 15.703125 L 17.1875 15.367188 C 17.378906 15.339844 17.597656 15.25 17.597656 15.027344 C 17.597656 14.855469 17.453125 14.757812 17.292969 14.761719 C 17.238281 14.765625 17.183594 14.773438 17.128906 14.78125 L 17.128906 15.847656 C 17.128906 15.957031 17.117188 16.132812 17.238281 16.175781 L 17.238281 16.179688 L 16.78125 16.179688 L 16.78125 16.175781 C 16.902344 16.132812 16.886719 15.957031 16.886719 15.847656 L 16.886719 14.953125 C 16.886719 14.84375 16.902344 14.667969 16.78125 14.621094 L 16.78125 14.617188 L 17.347656 14.617188 "/>
<path style=" stroke:none;fill-rule:nonzero;fill:rgb(100%,100%,100%);fill-opacity:1;" d="M 18.460938 15.980469 L 18.761719 16.011719 C 18.917969 16.023438 19.082031 15.972656 19.203125 15.871094 L 19.210938 15.871094 L 19.101562 16.179688 L 18.109375 16.179688 L 18.109375 16.175781 C 18.230469 16.132812 18.21875 15.957031 18.21875 15.847656 L 18.21875 14.949219 C 18.21875 14.839844 18.230469 14.667969 18.109375 14.621094 L 18.109375 14.617188 L 18.871094 14.617188 C 18.914062 14.617188 18.953125 14.621094 18.984375 14.601562 L 18.992188 14.601562 L 18.992188 14.882812 L 18.984375 14.882812 C 18.910156 14.796875 18.8125 14.785156 18.703125 14.785156 C 18.621094 14.785156 18.535156 14.789062 18.460938 14.804688 L 18.460938 15.246094 L 18.742188 15.246094 C 18.78125 15.246094 18.820312 15.246094 18.847656 15.230469 L 18.855469 15.230469 L 18.855469 15.484375 L 18.847656 15.484375 C 18.808594 15.414062 18.710938 15.417969 18.636719 15.417969 L 18.460938 15.417969 L 18.460938 15.980469 "/>
<path style=" stroke:none;fill-rule:nonzero;fill:rgb(100%,100%,100%);fill-opacity:1;" d="M 19.5625 15.871094 C 19.5625 16.003906 19.5625 16.101562 19.6875 16.175781 L 19.6875 16.179688 L 19.265625 16.179688 L 19.265625 16.175781 C 19.394531 16.101562 19.394531 16.003906 19.394531 15.871094 L 19.394531 14.921875 C 19.394531 14.789062 19.394531 14.695312 19.269531 14.621094 L 19.269531 14.617188 L 19.617188 14.617188 C 19.625 14.644531 19.636719 14.660156 19.652344 14.675781 L 19.6875 14.726562 L 20.558594 15.824219 L 20.558594 14.921875 C 20.558594 14.789062 20.558594 14.695312 20.433594 14.621094 L 20.433594 14.617188 L 20.851562 14.617188 L 20.851562 14.621094 C 20.726562 14.695312 20.726562 14.789062 20.726562 14.921875 L 20.726562 16.257812 C 20.558594 16.199219 20.484375 16.121094 20.378906 15.988281 L 19.5625 14.953125 L 19.5625 15.871094 "/>
<path style=" stroke:none;fill-rule:nonzero;fill:rgb(100%,100%,100%);fill-opacity:1;" d="M 21.21875 15.871094 C 21.21875 16.003906 21.214844 16.101562 21.34375 16.175781 L 21.34375 16.179688 L 20.921875 16.179688 L 20.921875 16.175781 C 21.046875 16.101562 21.046875 16.003906 21.046875 15.871094 L 21.046875 14.921875 C 21.046875 14.789062 21.046875 14.695312 20.921875 14.621094 L 20.921875 14.617188 L 21.269531 14.617188 C 21.28125 14.644531 21.289062 14.660156 21.304688 14.675781 L 21.339844 14.726562 L 22.210938 15.824219 L 22.210938 14.921875 C 22.210938 14.789062 22.214844 14.695312 22.085938 14.621094 L 22.085938 14.617188 L 22.507812 14.617188 L 22.507812 14.621094 C 22.382812 14.695312 22.382812 14.789062 22.382812 14.921875 L 22.382812 16.257812 C 22.214844 16.199219 22.140625 16.121094 22.035156 15.988281 L 21.21875 14.953125 L 21.21875 15.871094 "/>
<path style=" stroke:none;fill-rule:nonzero;fill:rgb(100%,100%,100%);fill-opacity:1;" d="M 23.320312 14.816406 L 23.085938 15.417969 L 23.554688 15.417969 L 23.320312 14.816406 M 23.023438 15.59375 L 22.898438 15.929688 C 22.847656 16.0625 22.832031 16.132812 22.945312 16.175781 L 22.945312 16.179688 L 22.507812 16.179688 L 22.507812 16.175781 C 22.644531 16.105469 22.6875 15.972656 22.738281 15.835938 L 23.136719 14.84375 C 23.171875 14.757812 23.214844 14.660156 23.101562 14.621094 L 23.101562 14.617188 L 23.476562 14.617188 L 23.972656 15.835938 C 24.027344 15.972656 24.070312 16.105469 24.207031 16.175781 L 24.207031 16.179688 L 23.71875 16.179688 L 23.71875 16.175781 C 23.835938 16.121094 23.816406 16.097656 23.75 15.929688 L 23.621094 15.59375 Z M 23.023438 15.59375 "/>
<path style=" stroke:none;fill-rule:nonzero;fill:rgb(100%,100%,100%);fill-opacity:1;" d="M 24.390625 14.953125 C 24.390625 14.84375 24.40625 14.667969 24.285156 14.621094 L 24.285156 14.617188 L 24.738281 14.617188 L 24.738281 14.621094 C 24.621094 14.667969 24.632812 14.84375 24.632812 14.953125 L 24.632812 15.847656 C 24.632812 15.957031 24.621094 16.128906 24.738281 16.175781 L 24.738281 16.179688 L 24.285156 16.179688 L 24.285156 16.175781 C 24.40625 16.132812 24.390625 15.957031 24.390625 15.847656 L 24.390625 14.953125 "/>
<path style=" stroke:none;fill-rule:nonzero;fill:rgb(100%,100%,100%);fill-opacity:1;" d="M 25.777344 14.898438 C 25.683594 14.804688 25.535156 14.75 25.402344 14.75 C 25.265625 14.75 25.09375 14.800781 25.09375 14.964844 C 25.09375 15.292969 25.914062 15.285156 25.914062 15.726562 C 25.914062 15.980469 25.648438 16.21875 25.277344 16.21875 C 25.128906 16.21875 24.984375 16.199219 24.851562 16.148438 L 24.78125 15.851562 C 24.921875 15.972656 25.117188 16.046875 25.300781 16.046875 C 25.4375 16.046875 25.644531 15.96875 25.644531 15.800781 C 25.644531 15.429688 24.824219 15.496094 24.824219 14.992188 C 24.824219 14.691406 25.128906 14.578125 25.421875 14.578125 C 25.539062 14.578125 25.660156 14.59375 25.777344 14.628906 L 25.777344 14.898438 "/>
<path style=" stroke:none;fill-rule:nonzero;fill:rgb(100%,100%,100%);fill-opacity:1;" d="M 12.207031 17.757812 C 12.207031 17.816406 12.199219 17.914062 12.265625 17.941406 L 12.265625 17.945312 L 12.011719 17.945312 L 12.011719 17.941406 C 12.082031 17.914062 12.070312 17.816406 12.070312 17.757812 L 12.070312 17.257812 C 12.070312 17.195312 12.082031 17.097656 12.011719 17.074219 L 12.011719 17.066406 L 12.4375 17.066406 C 12.460938 17.066406 12.484375 17.070312 12.5 17.0625 L 12.503906 17.0625 L 12.503906 17.214844 L 12.5 17.214844 C 12.460938 17.167969 12.40625 17.164062 12.34375 17.164062 C 12.296875 17.164062 12.25 17.164062 12.207031 17.171875 L 12.207031 17.421875 L 12.367188 17.421875 C 12.386719 17.421875 12.410156 17.421875 12.425781 17.414062 L 12.429688 17.414062 L 12.429688 17.554688 L 12.425781 17.554688 C 12.402344 17.515625 12.347656 17.515625 12.304688 17.515625 L 12.207031 17.515625 L 12.207031 17.757812 "/>
<path style=" stroke:none;fill-rule:nonzero;fill:rgb(100%,100%,100%);fill-opacity:1;" d="M 12.800781 17.492188 C 12.800781 17.675781 12.929688 17.871094 13.140625 17.871094 C 13.34375 17.871094 13.472656 17.722656 13.472656 17.523438 C 13.472656 17.328125 13.347656 17.140625 13.136719 17.140625 C 12.929688 17.140625 12.800781 17.289062 12.800781 17.492188 M 13.625 17.496094 C 13.625 17.769531 13.398438 17.964844 13.132812 17.964844 C 12.871094 17.964844 12.648438 17.777344 12.648438 17.503906 C 12.648438 17.25 12.867188 17.039062 13.148438 17.046875 C 13.425781 17.042969 13.625 17.257812 13.625 17.496094 Z M 13.625 17.496094 "/>
<path style=" stroke:none;fill-rule:nonzero;fill:rgb(100%,100%,100%);fill-opacity:1;" d="M 13.929688 17.492188 C 13.929688 17.675781 14.0625 17.871094 14.269531 17.871094 C 14.472656 17.871094 14.601562 17.722656 14.601562 17.523438 C 14.601562 17.328125 14.480469 17.140625 14.269531 17.140625 C 14.0625 17.140625 13.929688 17.289062 13.929688 17.492188 M 14.753906 17.496094 C 14.753906 17.769531 14.53125 17.964844 14.265625 17.964844 C 14 17.964844 13.777344 17.777344 13.777344 17.503906 C 13.777344 17.25 14 17.039062 14.277344 17.046875 C 14.558594 17.042969 14.753906 17.257812 14.753906 17.496094 Z M 14.753906 17.496094 "/>
<path style=" stroke:none;fill-rule:nonzero;fill:rgb(100%,100%,100%);fill-opacity:1;" d="M 15.246094 17.769531 C 15.246094 17.847656 15.242188 17.898438 15.3125 17.941406 L 15.3125 17.945312 L 15.050781 17.945312 L 15.050781 17.941406 C 15.117188 17.914062 15.109375 17.816406 15.109375 17.757812 L 15.109375 17.164062 L 14.992188 17.164062 C 14.933594 17.164062 14.875 17.179688 14.832031 17.21875 L 14.828125 17.21875 L 14.875 17.058594 L 14.878906 17.058594 C 14.894531 17.066406 14.914062 17.066406 14.929688 17.066406 L 15.460938 17.066406 C 15.484375 17.066406 15.503906 17.066406 15.523438 17.058594 L 15.527344 17.058594 L 15.484375 17.21875 L 15.480469 17.21875 C 15.460938 17.171875 15.410156 17.164062 15.363281 17.164062 L 15.246094 17.164062 L 15.246094 17.769531 "/>
<path style=" stroke:none;fill-rule:nonzero;fill:rgb(100%,100%,100%);fill-opacity:1;" d="M 15.96875 17.421875 C 16.054688 17.421875 16.179688 17.390625 16.179688 17.28125 C 16.179688 17.191406 16.09375 17.144531 16.011719 17.152344 L 15.925781 17.160156 L 15.925781 17.421875 L 15.96875 17.421875 M 16.039062 17.847656 C 16.148438 17.859375 16.257812 17.808594 16.257812 17.683594 C 16.257812 17.550781 16.132812 17.496094 16.015625 17.503906 L 15.925781 17.507812 L 15.925781 17.835938 Z M 15.789062 17.253906 C 15.789062 17.195312 15.796875 17.097656 15.730469 17.074219 L 15.730469 17.066406 L 16.046875 17.066406 C 16.21875 17.066406 16.324219 17.144531 16.324219 17.261719 C 16.324219 17.351562 16.265625 17.402344 16.191406 17.433594 C 16.308594 17.460938 16.40625 17.539062 16.40625 17.667969 C 16.40625 17.773438 16.335938 17.859375 16.246094 17.902344 C 16.152344 17.949219 16.050781 17.945312 15.949219 17.945312 L 15.730469 17.945312 L 15.730469 17.941406 C 15.796875 17.914062 15.789062 17.816406 15.789062 17.757812 Z M 15.789062 17.253906 "/>
<path style=" stroke:none;fill-rule:nonzero;fill:rgb(100%,100%,100%);fill-opacity:1;" d="M 17.015625 17.179688 L 16.886719 17.515625 L 17.148438 17.515625 L 17.015625 17.179688 M 16.851562 17.613281 L 16.78125 17.800781 C 16.753906 17.878906 16.742188 17.914062 16.808594 17.941406 L 16.808594 17.945312 L 16.5625 17.945312 L 16.5625 17.941406 C 16.640625 17.902344 16.664062 17.828125 16.691406 17.75 L 16.914062 17.195312 C 16.933594 17.148438 16.957031 17.09375 16.894531 17.074219 L 16.894531 17.066406 L 17.105469 17.066406 L 17.382812 17.75 C 17.410156 17.828125 17.4375 17.902344 17.511719 17.941406 L 17.511719 17.945312 L 17.238281 17.945312 L 17.238281 17.941406 C 17.304688 17.910156 17.292969 17.894531 17.257812 17.800781 L 17.1875 17.613281 Z M 16.851562 17.613281 "/>
<path style=" stroke:none;fill-rule:nonzero;fill:rgb(100%,100%,100%);fill-opacity:1;" d="M 18.042969 17.847656 C 18.132812 17.851562 18.210938 17.824219 18.277344 17.765625 L 18.28125 17.765625 L 18.210938 17.945312 L 17.664062 17.945312 L 17.664062 17.941406 C 17.734375 17.914062 17.722656 17.816406 17.722656 17.757812 L 17.722656 17.257812 C 17.722656 17.195312 17.734375 17.097656 17.664062 17.074219 L 17.664062 17.066406 L 17.917969 17.066406 L 17.917969 17.074219 C 17.851562 17.097656 17.859375 17.195312 17.859375 17.257812 L 17.859375 17.835938 L 18.042969 17.847656 "/>
<path style=" stroke:none;fill-rule:nonzero;fill:rgb(100%,100%,100%);fill-opacity:1;" d="M 18.824219 17.847656 C 18.917969 17.851562 18.996094 17.824219 19.0625 17.765625 L 19.066406 17.765625 L 18.996094 17.945312 L 18.449219 17.945312 L 18.449219 17.941406 C 18.515625 17.914062 18.507812 17.816406 18.507812 17.757812 L 18.507812 17.257812 C 18.507812 17.195312 18.515625 17.097656 18.449219 17.074219 L 18.449219 17.066406 L 18.703125 17.066406 L 18.703125 17.074219 C 18.636719 17.097656 18.644531 17.195312 18.644531 17.257812 L 18.644531 17.835938 L 18.824219 17.847656 "/>
<path style=" stroke:none;fill-rule:nonzero;fill:rgb(100%,100%,100%);fill-opacity:1;" d="M 20.738281 17.234375 C 20.664062 17.1875 20.582031 17.15625 20.492188 17.15625 C 20.308594 17.15625 20.183594 17.292969 20.183594 17.484375 C 20.183594 17.679688 20.316406 17.855469 20.519531 17.855469 C 20.621094 17.855469 20.71875 17.820312 20.804688 17.769531 L 20.808594 17.769531 L 20.738281 17.925781 C 20.675781 17.953125 20.609375 17.964844 20.539062 17.964844 C 20.222656 17.964844 20.03125 17.789062 20.03125 17.503906 C 20.03125 17.230469 20.222656 17.046875 20.496094 17.046875 C 20.578125 17.046875 20.660156 17.0625 20.738281 17.082031 L 20.738281 17.234375 "/>
<path style=" stroke:none;fill-rule:nonzero;fill:rgb(100%,100%,100%);fill-opacity:1;" d="M 21.421875 17.847656 C 21.511719 17.851562 21.589844 17.824219 21.65625 17.765625 L 21.660156 17.765625 L 21.59375 17.945312 L 21.046875 17.945312 L 21.046875 17.941406 C 21.113281 17.914062 21.105469 17.816406 21.105469 17.757812 L 21.105469 17.257812 C 21.105469 17.195312 21.113281 17.097656 21.046875 17.074219 L 21.046875 17.066406 L 21.300781 17.066406 L 21.300781 17.074219 C 21.230469 17.097656 21.242188 17.195312 21.242188 17.257812 L 21.242188 17.835938 L 21.421875 17.847656 "/>
<path style=" stroke:none;fill-rule:nonzero;fill:rgb(100%,100%,100%);fill-opacity:1;" d="M 22.433594 17.855469 C 22.375 17.933594 22.265625 17.964844 22.171875 17.964844 C 22.085938 17.964844 21.992188 17.9375 21.929688 17.871094 C 21.859375 17.796875 21.863281 17.707031 21.863281 17.609375 L 21.863281 17.253906 C 21.863281 17.195312 21.871094 17.097656 21.804688 17.074219 L 21.804688 17.066406 L 22.058594 17.066406 L 22.058594 17.074219 C 21.992188 17.097656 22 17.195312 22 17.253906 L 22 17.609375 C 22 17.785156 22.074219 17.871094 22.210938 17.871094 C 22.285156 17.871094 22.363281 17.839844 22.40625 17.777344 C 22.433594 17.734375 22.433594 17.703125 22.433594 17.65625 L 22.433594 17.253906 C 22.433594 17.195312 22.441406 17.097656 22.375 17.074219 L 22.375 17.066406 L 22.628906 17.066406 L 22.628906 17.074219 C 22.5625 17.097656 22.570312 17.195312 22.570312 17.257812 L 22.570312 17.757812 C 22.570312 17.816406 22.5625 17.914062 22.628906 17.941406 L 22.628906 17.945312 L 22.433594 17.945312 L 22.433594 17.855469 "/>
<path style=" stroke:none;fill-rule:nonzero;fill:rgb(100%,100%,100%);fill-opacity:1;" d="M 23.0625 17.421875 C 23.148438 17.421875 23.269531 17.390625 23.269531 17.28125 C 23.269531 17.191406 23.1875 17.144531 23.105469 17.152344 L 23.015625 17.160156 L 23.015625 17.421875 L 23.0625 17.421875 M 23.132812 17.847656 C 23.242188 17.859375 23.351562 17.808594 23.351562 17.683594 C 23.351562 17.550781 23.226562 17.496094 23.109375 17.503906 L 23.015625 17.507812 L 23.015625 17.835938 Z M 22.882812 17.253906 C 22.882812 17.195312 22.890625 17.097656 22.824219 17.074219 L 22.824219 17.066406 L 23.136719 17.066406 C 23.3125 17.066406 23.417969 17.144531 23.417969 17.261719 C 23.417969 17.351562 23.359375 17.402344 23.285156 17.433594 C 23.402344 17.460938 23.5 17.539062 23.5 17.667969 C 23.5 17.773438 23.429688 17.859375 23.339844 17.902344 C 23.246094 17.949219 23.140625 17.945312 23.042969 17.945312 L 22.824219 17.945312 L 22.824219 17.941406 C 22.890625 17.914062 22.882812 17.816406 22.882812 17.757812 Z M 22.882812 17.253906 "/>
<path style=" stroke:none;fill-rule:nonzero;fill:rgb(98.823529%,73.72549%,9.019608%);fill-opacity:1;" d="M 16.042969 19.226562 C 16.148438 19.191406 16.246094 19.113281 16.300781 19.015625 L 16.304688 19.015625 L 16.304688 19.695312 C 16.304688 19.765625 16.296875 19.820312 16.363281 19.863281 L 16.363281 19.867188 L 16.109375 19.867188 L 16.109375 19.863281 C 16.1875 19.824219 16.183594 19.769531 16.183594 19.695312 L 16.183594 19.230469 L 16.042969 19.230469 L 16.042969 19.226562 "/>
<path style=" stroke:none;fill-rule:nonzero;fill:rgb(98.823529%,73.72549%,9.019608%);fill-opacity:1;" d="M 16.992188 19.816406 C 17.183594 19.777344 17.359375 19.601562 17.359375 19.398438 C 17.359375 19.273438 17.292969 19.140625 17.152344 19.140625 C 17.050781 19.140625 16.976562 19.21875 16.976562 19.320312 C 16.976562 19.429688 17.050781 19.519531 17.160156 19.519531 C 17.207031 19.519531 17.25 19.503906 17.289062 19.480469 L 17.207031 19.578125 C 17.175781 19.589844 17.144531 19.597656 17.109375 19.597656 C 16.96875 19.597656 16.855469 19.492188 16.855469 19.347656 C 16.855469 19.171875 17 19.054688 17.167969 19.054688 C 17.359375 19.054688 17.480469 19.203125 17.480469 19.382812 C 17.480469 19.523438 17.410156 19.65625 17.300781 19.742188 C 17.191406 19.828125 17.070312 19.871094 16.933594 19.890625 L 16.992188 19.816406 "/>
<path style=" stroke:none;fill-rule:nonzero;fill:rgb(98.823529%,73.72549%,9.019608%);fill-opacity:1;" d="M 18.132812 19.460938 C 18.132812 19.582031 18.171875 19.792969 18.328125 19.792969 C 18.445312 19.792969 18.515625 19.644531 18.515625 19.472656 C 18.515625 19.300781 18.441406 19.152344 18.320312 19.148438 C 18.167969 19.148438 18.132812 19.34375 18.132812 19.460938 M 18.003906 19.472656 C 18.003906 19.25 18.113281 19.054688 18.324219 19.054688 C 18.546875 19.054688 18.644531 19.269531 18.644531 19.464844 C 18.644531 19.660156 18.546875 19.886719 18.320312 19.886719 C 18.132812 19.882812 18.003906 19.695312 18.003906 19.472656 Z M 18.003906 19.472656 "/>
<path style=" stroke:none;fill-rule:nonzero;fill:rgb(98.823529%,73.72549%,9.019608%);fill-opacity:1;" d="M 19.148438 19.226562 C 19.257812 19.191406 19.351562 19.113281 19.40625 19.015625 L 19.410156 19.015625 L 19.410156 19.695312 C 19.410156 19.765625 19.40625 19.820312 19.46875 19.863281 L 19.46875 19.867188 L 19.21875 19.867188 L 19.21875 19.863281 C 19.292969 19.824219 19.289062 19.769531 19.289062 19.695312 L 19.289062 19.230469 L 19.148438 19.230469 L 19.148438 19.226562 "/>
<path style=" stroke:none;fill-rule:nonzero;fill:rgb(100%,100%,100%);fill-opacity:1;" d="M 20.007812 13.117188 L 20.039062 13.085938 L 22.835938 10.234375 L 22.835938 5.636719 L 20.078125 2.84375 L 15.433594 2.84375 L 12.675781 5.636719 L 12.675781 10.234375 L 15.507812 13.117188 Z M 20.007812 13.117188 "/>
<path style=" stroke:none;fill-rule:nonzero;fill:rgb(88.235294%,20%,15.294118%);fill-opacity:1;" d="M 16.714844 6.363281 C 16.714844 5.804688 17.148438 5.351562 17.695312 5.320312 L 17.695312 2.957031 L 15.480469 2.957031 L 12.789062 5.683594 L 12.789062 10.1875 L 15.554688 13.007812 L 17.695312 13.007812 L 17.695312 7.402344 C 17.148438 7.371094 16.714844 6.917969 16.714844 6.363281 Z M 16.714844 6.363281 "/>
<path style=" stroke:none;fill-rule:nonzero;fill:rgb(0%,0%,0%);fill-opacity:1;" d="M 20.03125 2.957031 L 17.816406 2.957031 L 17.816406 5.320312 C 18.363281 5.351562 18.796875 5.808594 18.796875 6.363281 C 18.796875 6.917969 18.363281 7.371094 17.816406 7.402344 L 17.816406 13.007812 L 19.960938 13.007812 L 22.722656 10.1875 L 22.722656 5.683594 Z M 20.03125 2.957031 "/>
<path style=" stroke:none;fill-rule:nonzero;fill:rgb(100%,100%,100%);fill-opacity:1;" d="M 18.046875 5.148438 L 18.074219 4.785156 C 18.074219 4.785156 18.613281 4.757812 19.089844 5.152344 C 19.089844 5.152344 19.472656 4.027344 20.015625 3.789062 C 20.015625 3.789062 20.050781 3.933594 20.085938 3.945312 C 20.125 3.953125 20.253906 3.808594 20.289062 3.816406 C 20.324219 3.824219 20.242188 4.320312 21.386719 4.75 L 21.324219 5.050781 C 21.324219 5.050781 19.921875 4.941406 19.921875 5.777344 C 19.921875 6.152344 20.464844 6.800781 20.554688 6.921875 C 20.648438 7.039062 21.230469 7.515625 21.3125 8.789062 C 21.3125 8.789062 21.523438 8.632812 21.523438 8.230469 C 21.523438 7.828125 21.289062 7.019531 21.289062 6.726562 C 21.289062 6.433594 21.242188 5.648438 22.039062 5.648438 L 22.039062 6.050781 C 22.039062 6.050781 21.769531 6.042969 21.734375 6.398438 C 21.707031 6.699219 22.101562 8.027344 21.917969 8.53125 C 21.769531 8.945312 21.691406 9.109375 21.398438 9.335938 C 21.105469 9.566406 20.171875 10.308594 21.066406 10.964844 L 20.234375 12.476562 C 20.234375 12.476562 19.75 12.652344 19.710938 12.652344 C 19.675781 12.652344 19.574219 12.667969 19.648438 12.585938 C 19.722656 12.503906 20.363281 11.910156 20.363281 11.257812 C 20.363281 10.609375 19.417969 10.40625 19.417969 9.429688 C 19.417969 8.777344 19.988281 8.382812 19.988281 8.382812 C 19.988281 8.382812 19.886719 8.148438 19.785156 8.0625 C 19.683594 7.980469 19.125 7.652344 19.042969 7.449219 C 19.042969 7.449219 18.496094 7.898438 18.054688 7.925781 C 18.054688 7.925781 17.945312 7.734375 17.9375 7.597656 C 17.9375 7.597656 19.035156 7.457031 19.011719 6.308594 C 18.996094 5.34375 18.046875 5.148438 18.046875 5.148438 "/>
<path style=" stroke:none;fill-rule:nonzero;fill:rgb(100%,100%,100%);fill-opacity:1;" d="M 17.464844 5.148438 L 17.4375 4.785156 C 17.4375 4.785156 16.898438 4.757812 16.421875 5.152344 C 16.421875 5.152344 16.039062 4.027344 15.496094 3.789062 C 15.496094 3.789062 15.460938 3.933594 15.425781 3.945312 C 15.386719 3.953125 15.261719 3.808594 15.222656 3.816406 C 15.1875 3.824219 15.269531 4.320312 14.125 4.75 L 14.1875 5.050781 C 14.1875 5.050781 15.589844 4.941406 15.589844 5.777344 C 15.589844 6.152344 15.050781 6.800781 14.957031 6.921875 C 14.867188 7.039062 14.28125 7.515625 14.199219 8.789062 C 14.199219 8.789062 13.988281 8.632812 13.988281 8.230469 C 13.988281 7.828125 14.226562 7.019531 14.226562 6.726562 C 14.226562 6.433594 14.269531 5.648438 13.476562 5.648438 L 13.476562 6.050781 C 13.476562 6.050781 13.746094 6.042969 13.777344 6.398438 C 13.804688 6.699219 13.410156 8.027344 13.59375 8.53125 C 13.742188 8.945312 13.824219 9.109375 14.117188 9.335938 C 14.410156 9.566406 15.34375 10.308594 14.445312 10.964844 L 15.277344 12.476562 C 15.277344 12.476562 15.761719 12.652344 15.800781 12.652344 C 15.835938 12.652344 15.9375 12.667969 15.863281 12.585938 C 15.789062 12.503906 15.148438 11.910156 15.148438 11.257812 C 15.148438 10.609375 16.09375 10.40625 16.09375 9.429688 C 16.09375 8.777344 15.523438 8.382812 15.523438 8.382812 C 15.523438 8.382812 15.625 8.148438 15.726562 8.0625 C 15.828125 7.980469 16.386719 7.652344 16.46875 7.449219 C 16.46875 7.449219 17.015625 7.898438 17.457031 7.925781 C 17.457031 7.925781 17.566406 7.734375 17.574219 7.597656 C 17.574219 7.597656 16.476562 7.457031 16.5 6.308594 C 16.515625 5.34375 17.464844 5.148438 17.464844 5.148438 "/>
<path style=" stroke:none;fill-rule:nonzero;fill:rgb(100%,100%,100%);fill-opacity:1;" d="M 15.84375 10.992188 L 16.6875 12.214844 L 17.191406 12.300781 C 17.191406 12.300781 17.277344 12.300781 17.230469 12.226562 C 17.179688 12.152344 16.613281 11.492188 16.558594 11.328125 C 16.503906 11.164062 16.375 11.023438 16.601562 10.710938 C 16.828125 10.402344 17.257812 10.109375 17.257812 9.484375 C 17.257812 8.863281 16.730469 8.363281 16.03125 8.375 C 15.722656 8.382812 15.972656 8.570312 16.003906 8.609375 C 16.070312 8.691406 16.257812 8.957031 16.300781 9.351562 C 16.347656 9.789062 16.128906 10.054688 16.128906 10.089844 C 16.128906 10.195312 16.289062 10.210938 16.289062 10.476562 C 16.289062 10.78125 15.84375 10.992188 15.84375 10.992188 "/>
<path style=" stroke:none;fill-rule:nonzero;fill:rgb(100%,100%,100%);fill-opacity:1;" d="M 19.652344 10.992188 L 18.8125 12.214844 L 18.304688 12.300781 C 18.304688 12.300781 18.21875 12.300781 18.269531 12.226562 C 18.316406 12.152344 18.886719 11.492188 18.941406 11.328125 C 18.996094 11.164062 19.125 11.023438 18.898438 10.710938 C 18.671875 10.402344 18.238281 10.109375 18.238281 9.484375 C 18.238281 8.863281 18.769531 8.363281 19.464844 8.375 C 19.777344 8.382812 19.523438 8.570312 19.496094 8.609375 C 19.429688 8.691406 19.238281 8.957031 19.195312 9.351562 C 19.148438 9.789062 19.367188 10.054688 19.367188 10.089844 C 19.367188 10.195312 19.207031 10.210938 19.207031 10.476562 C 19.207031 10.78125 19.652344 10.992188 19.652344 10.992188 "/>
</g>
</svg>
