<?xml version="1.0" encoding="UTF-8"?>
<svg xmlns="http://www.w3.org/2000/svg" xmlns:xlink="http://www.w3.org/1999/xlink" width="35pt" height="25pt" viewBox="0 0 35 25" version="1.1">
<g id="surface1">
<path style=" stroke:none;fill-rule:evenodd;fill:rgb(88.627451%,21.176471%,13.72549%);fill-opacity:1;" d="M 10.496094 16.660156 C 10.589844 21.183594 14.15625 24.855469 18.214844 24.8125 C 22.554688 24.765625 26.488281 21.433594 26.289062 16.699219 C 25.378906 16.671875 24.46875 16.644531 23.558594 16.621094 C 23.386719 19.929688 21.441406 21.503906 18.886719 22.042969 C 17.53125 22.328125 16.039062 21.515625 14.96875 20.65625 C 18.542969 20.273438 21.328125 18.414062 23.320312 15.074219 C 22.753906 14.085938 22.238281 13.492188 21.460938 12.820312 C 20.695312 14.152344 19.652344 15.484375 18.414062 16.382812 C 16.882812 17.320312 15.5625 17.886719 13.542969 18.28125 C 13.398438 17.726562 13.371094 17.132812 13.226562 16.578125 C 12.304688 16.632812 11.421875 16.605469 10.496094 16.660156 Z M 10.496094 16.660156 "/>
<path style=" stroke:none;fill-rule:evenodd;fill:rgb(32.156863%,61.176471%,27.058824%);fill-opacity:1;" d="M 16.179688 11.851562 L 16.242188 10.355469 L 16.371094 10.398438 C 17.863281 10.804688 19.566406 10.742188 20.605469 10.320312 L 20.730469 11.839844 C 20.78125 12.890625 19.144531 13.101562 18.535156 13.089844 C 17.695312 13.089844 16.226562 13.082031 16.109375 11.992188 Z M 20.503906 8.609375 C 19.121094 8.898438 17.761719 8.90625 16.429688 8.566406 L 16.339844 8.535156 L 16.359375 8.144531 C 16.367188 7.996094 16.359375 7.972656 16.371094 7.804688 C 16.636719 6.238281 16.914062 6.566406 17.378906 5.183594 C 17.785156 5.195312 18.710938 5.214844 19.460938 5.132812 C 19.621094 5.570312 19.59375 5.421875 19.746094 5.800781 C 19.925781 6.238281 20.519531 7.507812 20.476562 8.167969 Z M 20.503906 8.609375 "/>
<path style=" stroke:none;fill-rule:evenodd;fill:rgb(0%,0%,0%);fill-opacity:1;" d="M 20.515625 11.945312 L 20.515625 11.882812 L 20.453125 10.691406 C 19.789062 10.859375 19.140625 10.953125 18.496094 10.953125 C 17.824219 10.957031 17.15625 10.867188 16.464844 10.671875 L 16.410156 11.882812 C 16.402344 12.082031 16.414062 12.199219 16.550781 12.375 C 16.9375 12.824219 18.003906 12.949219 18.480469 12.941406 C 18.960938 12.933594 19.878906 12.808594 20.296875 12.40625 C 20.445312 12.261719 20.515625 12.109375 20.515625 11.945312 Z M 25.65625 16.367188 L 26.515625 16.367188 C 26.523438 16.53125 26.53125 16.695312 26.53125 16.859375 C 26.53125 21.355469 22.886719 25 18.390625 25 C 13.894531 25 10.25 21.355469 10.25 16.859375 C 10.25 16.695312 10.253906 16.53125 10.265625 16.367188 L 13.039062 16.367188 C 13.207031 14.515625 14.316406 12.9375 15.882812 12.109375 C 15.878906 12.074219 15.878906 12.035156 15.882812 12 L 16.070312 8.058594 C 16.121094 7.253906 16.523438 6.546875 16.875 5.839844 C 17.097656 5.382812 17.296875 4.914062 17.417969 4.417969 C 17.5 4.058594 17.574219 3.699219 17.609375 3.332031 L 17.617188 3.242188 L 17.632812 3 C 17.632812 2.746094 17.625 2.492188 17.613281 2.238281 C 17.589844 1.808594 17.382812 1.90625 17.386719 1.59375 C 17.390625 1.457031 17.503906 1.335938 17.523438 1.207031 C 17.585938 0.796875 17.597656 0.441406 17.863281 0.207031 C 18 0.0859375 18.207031 0 18.515625 0 C 19.253906 0.00390625 19.347656 0.519531 19.425781 1.09375 C 19.449219 1.273438 19.574219 1.371094 19.574219 1.550781 C 19.570312 1.765625 19.414062 1.84375 19.390625 2.148438 C 19.371094 2.433594 19.355469 2.714844 19.355469 3 L 19.375 3.308594 C 19.410156 3.699219 19.484375 4.082031 19.578125 4.460938 C 19.699219 4.925781 19.882812 5.371094 20.078125 5.808594 C 20.4375 6.59375 20.753906 7.253906 20.808594 8.136719 L 21.007812 11.894531 C 21.015625 11.988281 21.007812 12.074219 20.992188 12.160156 C 22.507812 13 23.574219 14.554688 23.738281 16.367188 Z M 11.039062 16.851562 L 10.757812 16.851562 C 10.75 16.851562 10.757812 16.867188 10.757812 16.878906 C 10.773438 21.078125 14.183594 24.492188 18.390625 24.492188 C 20.421875 24.492188 22.269531 23.695312 23.640625 22.398438 L 23.636719 22.398438 C 23.652344 22.386719 23.664062 22.375 23.675781 22.359375 L 23.675781 22.363281 C 25.117188 20.976562 26.015625 19.03125 26.019531 16.875 C 26.019531 16.871094 26.027344 16.859375 26.019531 16.859375 L 23.761719 16.859375 C 23.761719 19.828125 21.355469 22.234375 18.390625 22.234375 C 15.421875 22.234375 13.015625 19.828125 13.015625 16.859375 C 13.015625 16.855469 13.015625 16.855469 13.015625 16.851562 Z M 20.785156 12.625 C 20.328125 13.230469 19.257812 13.492188 18.382812 13.480469 C 17.605469 13.46875 16.464844 13.230469 16.046875 12.597656 C 15.761719 12.753906 15.492188 12.941406 15.246094 13.148438 C 15.246094 13.148438 15.246094 13.152344 15.246094 13.152344 C 17.003906 13.167969 18.496094 13.648438 19.980469 14.570312 C 20.414062 14.03125 20.800781 13.46875 21.148438 12.855469 C 21.03125 12.773438 20.910156 12.695312 20.785156 12.625 Z M 16.578125 8.347656 C 17.835938 8.710938 19.039062 8.703125 20.332031 8.367188 L 20.316406 8.117188 C 20.296875 7.714844 20.207031 7.335938 20.074219 6.964844 C 19.949219 6.632812 19.625 6.0625 19.472656 5.648438 C 19.222656 5.925781 19.046875 6.242188 18.90625 6.558594 C 18.75 6.910156 18.65625 7.304688 18.546875 7.683594 C 18.519531 7.773438 18.425781 7.773438 18.40625 7.6875 C 18.320312 7.285156 18.230469 6.875 18.09375 6.527344 C 17.960938 6.195312 17.804688 5.941406 17.542969 5.636719 C 17.191406 6.433594 16.648438 7.140625 16.589844 8.035156 Z M 20.355469 8.878906 C 19.730469 9.03125 19.117188 9.113281 18.503906 9.113281 C 17.859375 9.117188 17.214844 9.035156 16.550781 8.855469 L 16.492188 10.164062 C 17.8125 10.558594 19.066406 10.546875 20.425781 10.179688 Z M 23.113281 15.691406 C 22.34375 16.972656 21.402344 18.074219 20.210938 18.941406 C 20.5 19.167969 20.792969 19.328125 21.015625 19.410156 C 21.523438 19.078125 22.011719 18.613281 22.417969 18.109375 C 22.753906 17.695312 23.035156 17.253906 23.253906 16.859375 C 23.253906 16.457031 23.203125 16.066406 23.113281 15.691406 Z M 23.109375 18.042969 C 22.824219 18.449219 22.507812 18.808594 22.226562 19.078125 C 21.933594 19.363281 21.683594 19.558594 21.585938 19.636719 C 21.792969 19.707031 21.921875 19.742188 22.253906 19.816406 C 22.253906 19.8125 22.253906 19.8125 22.253906 19.8125 C 22.652344 19.292969 22.945312 18.695312 23.109375 18.042969 Z M 21.878906 20.25 C 21.117188 20.058594 20.378906 19.75 19.777344 19.242188 C 19.3125 19.542969 18.824219 19.808594 18.320312 20.027344 C 18.898438 20.609375 19.671875 21 20.433594 21.273438 C 20.976562 21.023438 21.464844 20.671875 21.878906 20.25 Z M 15.570312 20.820312 L 15.585938 20.832031 C 15.585938 20.835938 15.585938 20.835938 15.585938 20.835938 C 16.378906 21.394531 17.347656 21.722656 18.390625 21.722656 C 18.855469 21.722656 19.300781 21.660156 19.726562 21.539062 C 19.023438 21.222656 18.351562 20.828125 17.8125 20.234375 C 17.085938 20.507812 16.335938 20.703125 15.570312 20.820312 Z M 14.726562 13.660156 C 14.300781 14.148438 13.972656 14.714844 13.769531 15.34375 C 15.320312 15.300781 16.652344 15.5625 17.972656 16.4375 C 18.585938 16.015625 19.148438 15.515625 19.644531 14.964844 C 18.117188 14.039062 16.566406 13.59375 14.726562 13.660156 Z M 13.632812 15.851562 C 13.5625 16.175781 13.527344 16.515625 13.527344 16.859375 C 13.527344 17.226562 13.566406 17.585938 13.644531 17.929688 L 13.652344 17.929688 C 15.011719 17.863281 16.324219 17.4375 17.5 16.742188 L 17.507812 16.738281 C 16.394531 16.007812 14.964844 15.796875 13.632812 15.851562 Z M 21.554688 13.167969 C 20.789062 14.496094 19.839844 15.648438 18.71875 16.527344 C 17.332031 17.609375 15.667969 18.296875 13.785156 18.429688 C 14.039062 19.175781 14.472656 19.839844 15.027344 20.375 C 15.03125 20.375 15.03125 20.378906 15.035156 20.378906 L 15.035156 20.382812 C 16.957031 20.148438 18.472656 19.558594 19.820312 18.601562 C 20.976562 17.78125 22.070312 16.535156 22.902344 15.042969 C 22.609375 14.3125 22.140625 13.671875 21.554688 13.167969 Z M 21.554688 13.167969 "/>
<path style=" stroke:none;fill-rule:evenodd;fill:rgb(89.803922%,76.078431%,38.823529%);fill-opacity:1;" d="M 17.792969 2.859375 C 17.792969 2.664062 17.800781 2.449219 17.769531 2.222656 C 17.738281 1.984375 17.71875 1.890625 17.695312 1.785156 L 17.816406 1.75 C 17.859375 2.125 17.945312 2.4375 18.035156 2.800781 C 17.953125 2.816406 17.878906 2.839844 17.792969 2.859375 Z M 17.617188 1.457031 C 17.636719 1.417969 17.660156 1.355469 17.671875 1.320312 C 17.761719 0.960938 17.710938 0.542969 18.015625 0.34375 C 17.964844 0.445312 17.921875 0.554688 17.914062 0.644531 C 17.902344 0.789062 17.917969 0.910156 17.898438 1.078125 C 17.890625 1.171875 17.84375 1.304688 17.824219 1.398438 C 17.753906 1.417969 17.683594 1.433594 17.617188 1.457031 Z M 18.492188 0.226562 C 18.585938 0.226562 18.566406 0.253906 18.59375 0.308594 C 18.667969 0.445312 18.640625 0.964844 18.664062 1.273438 C 18.511719 1.273438 18.359375 1.289062 18.207031 1.316406 C 18.234375 1.214844 18.242188 1.085938 18.242188 0.988281 C 18.242188 0.875 18.230469 0.765625 18.25 0.652344 C 18.269531 0.550781 18.28125 0.507812 18.339844 0.386719 C 18.378906 0.304688 18.402344 0.230469 18.492188 0.226562 Z M 18.929688 0.324219 C 19.199219 0.492188 19.199219 0.847656 19.265625 1.175781 C 19.277344 1.226562 19.296875 1.273438 19.320312 1.320312 C 19.222656 1.300781 19.109375 1.308594 19.015625 1.265625 L 19.019531 1.261719 C 19.003906 0.949219 18.984375 0.601562 18.929688 0.324219 Z M 19.371094 1.671875 C 19.328125 1.765625 19.253906 1.867188 19.226562 2.105469 C 19.214844 2.222656 19.191406 2.769531 19.183594 2.878906 C 19.117188 2.84375 19.011719 2.832031 18.933594 2.820312 C 18.980469 2.632812 18.992188 2.4375 19.003906 2.238281 C 19.015625 2.027344 19.023438 1.808594 19.027344 1.605469 C 19.128906 1.605469 19.289062 1.65625 19.371094 1.671875 Z M 18.582031 2.800781 C 18.570312 2.789062 18.402344 2.804688 18.371094 2.804688 C 18.261719 2.433594 18.191406 2.023438 18.152344 1.640625 C 18.234375 1.621094 18.320312 1.621094 18.40625 1.605469 C 18.449219 1.597656 18.484375 1.578125 18.53125 1.570312 C 18.570312 1.5625 18.625 1.566406 18.667969 1.566406 C 18.679688 1.722656 18.652344 2.253906 18.632812 2.421875 C 18.628906 2.480469 18.621094 2.539062 18.609375 2.597656 C 18.597656 2.667969 18.582031 2.734375 18.582031 2.800781 Z M 18.582031 2.800781 "/>
<path style=" stroke:none;fill-rule:evenodd;fill:rgb(89.803922%,76.078431%,38.823529%);fill-opacity:1;" d="M 18.195312 0.253906 C 18.109375 0.390625 18.015625 0.601562 18.019531 0.730469 C 18.023438 0.871094 18.023438 1.0625 18.003906 1.148438 C 17.980469 1.25 17.941406 1.355469 17.925781 1.460938 C 17.832031 1.484375 17.734375 1.511719 17.640625 1.542969 C 17.539062 1.597656 17.574219 1.703125 17.691406 1.675781 C 17.769531 1.644531 17.84375 1.621094 17.917969 1.601562 C 17.953125 2.082031 18.0625 2.503906 18.164062 2.941406 C 18.074219 2.960938 17.980469 2.984375 17.890625 3.011719 C 17.789062 3.070312 17.832031 3.183594 17.929688 3.160156 C 18.015625 3.125 18.117188 3.089844 18.214844 3.074219 C 18.292969 3.0625 18.367188 3.066406 18.449219 3.0625 C 18.5 3.0625 18.558594 3.046875 18.609375 3.046875 C 18.679688 3.050781 18.75 3.066406 18.820312 3.082031 C 18.914062 3.097656 18.992188 3.109375 19.082031 3.128906 C 19.152344 3.148438 19.195312 3.015625 19.121094 2.984375 C 19.027344 2.953125 18.929688 2.933594 18.828125 2.917969 C 18.824219 2.875 18.8125 2.839844 18.824219 2.792969 C 18.855469 2.683594 18.863281 2.546875 18.875 2.433594 C 18.90625 2.125 18.917969 1.804688 18.910156 1.480469 C 19.046875 1.492188 19.195312 1.527344 19.324219 1.558594 C 19.410156 1.582031 19.425781 1.488281 19.339844 1.441406 C 19.210938 1.414062 19.058594 1.382812 18.910156 1.363281 C 18.898438 1.019531 18.867188 0.664062 18.816406 0.3125 C 18.777344 0.183594 18.742188 0.183594 18.6875 0.164062 C 18.742188 0.558594 18.773438 0.972656 18.78125 1.355469 C 18.769531 1.355469 18.761719 1.355469 18.753906 1.355469 C 18.53125 1.351562 18.292969 1.378906 18.050781 1.429688 C 18.074219 1.332031 18.109375 1.234375 18.121094 1.136719 C 18.136719 0.992188 18.125 0.863281 18.125 0.71875 C 18.125 0.578125 18.230469 0.347656 18.296875 0.214844 C 18.273438 0.222656 18.214844 0.242188 18.195312 0.253906 Z M 18.289062 2.921875 C 18.164062 2.519531 18.078125 2.066406 18.035156 1.617188 C 18.03125 1.601562 18.03125 1.585938 18.03125 1.570312 C 18.148438 1.542969 18.261719 1.523438 18.378906 1.503906 C 18.402344 1.5 18.460938 1.484375 18.5 1.476562 C 18.539062 1.46875 18.582031 1.46875 18.621094 1.46875 C 18.675781 1.464844 18.726562 1.46875 18.78125 1.472656 C 18.785156 1.761719 18.773438 2.046875 18.753906 2.332031 C 18.746094 2.480469 18.722656 2.660156 18.691406 2.773438 C 18.683594 2.816406 18.691406 2.863281 18.695312 2.90625 C 18.5625 2.898438 18.425781 2.902344 18.289062 2.921875 Z M 18.289062 2.921875 "/>
<path style=" stroke:none;fill-rule:evenodd;fill:rgb(89.803922%,76.078431%,38.823529%);fill-opacity:1;" d="M 24.277344 16.707031 L 23.589844 16.707031 C 23.59375 16.757812 23.59375 16.808594 23.59375 16.859375 C 23.59375 19.734375 21.261719 22.0625 18.390625 22.0625 C 15.515625 22.0625 13.1875 19.734375 13.1875 16.859375 C 13.1875 16.808594 13.1875 16.757812 13.1875 16.707031 L 10.589844 16.707031 C 10.589844 16.757812 10.589844 16.808594 10.589844 16.859375 C 10.589844 21.167969 14.082031 24.660156 18.390625 24.660156 C 22.671875 24.660156 26.148438 21.207031 26.191406 16.9375 C 26.191406 16.910156 26.191406 16.886719 26.191406 16.859375 C 26.191406 16.808594 26.191406 16.757812 26.1875 16.707031 Z M 12.40625 16.539062 L 13.195312 16.539062 C 13.3125 14.636719 14.449219 13.011719 16.066406 12.203125 C 16.054688 12.140625 16.046875 12.074219 16.050781 12.003906 L 16.238281 8.066406 C 16.273438 7.304688 16.699219 6.582031 17.058594 5.847656 C 17.289062 5.375 17.488281 4.890625 17.59375 4.410156 C 17.683594 3.996094 17.746094 3.683594 17.777344 3.378906 C 17.964844 3.085938 19.144531 3.144531 19.207031 3.335938 C 19.238281 3.730469 19.308594 4.074219 19.402344 4.457031 C 19.523438 4.953125 19.714844 5.402344 19.894531 5.8125 C 20.203125 6.515625 20.582031 7.054688 20.640625 8.148438 L 20.839844 11.945312 C 20.835938 12.050781 20.820312 12.152344 20.789062 12.242188 C 22.363281 13.0625 23.464844 14.660156 23.582031 16.527344 L 23.582031 16.539062 L 26.320312 16.539062 L 26.320312 16.542969 L 26.355469 16.542969 C 26.359375 16.648438 26.359375 16.753906 26.359375 16.859375 C 26.359375 21.261719 22.792969 24.832031 18.390625 24.832031 C 13.988281 24.832031 10.417969 21.261719 10.417969 16.859375 C 10.417969 16.832031 10.417969 16.804688 10.421875 16.777344 L 10.417969 16.777344 C 10.421875 16.703125 10.421875 16.628906 10.425781 16.550781 C 10.425781 16.550781 10.425781 16.546875 10.425781 16.542969 L 10.425781 16.539062 Z M 16.226562 12.128906 C 16.226562 12.1875 16.242188 12.238281 16.269531 12.292969 C 16.527344 12.945312 17.769531 13.148438 18.464844 13.140625 C 19.09375 13.132812 20.179688 12.953125 20.546875 12.382812 C 20.605469 12.292969 20.640625 12.199219 20.660156 12.089844 C 20.667969 12.035156 20.671875 11.972656 20.667969 11.90625 L 20.59375 10.472656 L 20.578125 10.476562 C 19.1875 10.871094 17.683594 10.890625 16.296875 10.441406 L 16.222656 12.003906 C 16.21875 12.046875 16.21875 12.089844 16.226562 12.128906 Z M 20.722656 12.398438 C 20.359375 13.082031 19.21875 13.300781 18.46875 13.308594 C 17.691406 13.320312 16.421875 13.078125 16.117188 12.367188 C 15.632812 12.613281 15.191406 12.9375 14.8125 13.320312 C 16.867188 13.277344 18.359375 13.777344 20.015625 14.792969 C 20.511719 14.199219 20.960938 13.535156 21.371094 12.804688 C 21.167969 12.652344 20.949219 12.519531 20.722656 12.398438 Z M 16.300781 10.28125 C 17.652344 10.738281 19.171875 10.726562 20.585938 10.3125 L 20.496094 8.65625 C 19.160156 9.019531 17.71875 9.039062 16.382812 8.625 Z M 16.390625 8.460938 C 17.6875 8.882812 19.132812 8.875 20.488281 8.496094 L 20.472656 8.15625 C 20.421875 7.183594 20.089844 6.667969 19.738281 5.878906 C 19.664062 5.71875 19.59375 5.554688 19.53125 5.390625 C 19.050781 5.824219 18.710938 6.433594 18.488281 7.234375 C 18.316406 6.371094 17.941406 5.789062 17.484375 5.316406 C 17.402344 5.519531 17.308594 5.722656 17.210938 5.921875 C 16.875 6.605469 16.441406 7.332031 16.40625 8.074219 Z M 21.027344 19.609375 C 22.066406 18.925781 22.800781 18.027344 23.421875 16.902344 C 23.421875 16.890625 23.421875 16.875 23.421875 16.859375 C 23.421875 16.75 23.417969 16.644531 23.414062 16.535156 C 23.386719 16.09375 23.300781 15.667969 23.164062 15.265625 C 22.292969 16.804688 21.246094 18.019531 19.933594 18.933594 C 20.257812 19.21875 20.628906 19.441406 21.027344 19.609375 Z M 23.40625 17.269531 C 22.832031 18.246094 22.128906 19.070312 21.214844 19.6875 C 21.574219 19.828125 21.953125 19.929688 22.320312 20 C 22.929688 19.242188 23.324219 18.300781 23.40625 17.269531 Z M 18.027344 19.96875 C 18.671875 20.691406 19.539062 21.136719 20.441406 21.457031 C 21.121094 21.152344 21.71875 20.703125 22.199219 20.148438 C 21.320312 19.964844 20.460938 19.632812 19.789062 19.03125 C 19.6875 19.101562 19.582031 19.167969 19.472656 19.234375 C 19.015625 19.515625 18.535156 19.761719 18.027344 19.96875 Z M 20.214844 21.554688 C 19.34375 21.21875 18.503906 20.773438 17.859375 20.035156 C 17.019531 20.363281 16.117188 20.589844 15.148438 20.710938 C 16.023438 21.449219 17.15625 21.894531 18.390625 21.894531 C 19.03125 21.894531 19.648438 21.773438 20.214844 21.554688 Z M 19.90625 14.921875 C 18.136719 13.835938 16.617188 13.425781 14.648438 13.496094 C 14.132812 14.066406 13.75 14.753906 13.539062 15.515625 C 15.375 15.464844 16.613281 15.726562 17.976562 16.640625 C 18.015625 16.617188 18.054688 16.589844 18.09375 16.5625 C 18.761719 16.097656 19.363281 15.550781 19.90625 14.921875 Z M 17.820312 16.742188 C 16.523438 15.839844 15.125 15.628906 13.496094 15.6875 C 13.40625 16.0625 13.355469 16.457031 13.355469 16.859375 C 13.355469 17.289062 13.410156 17.707031 13.511719 18.105469 C 15.09375 18.050781 16.582031 17.535156 17.820312 16.742188 Z M 14.976562 20.558594 C 16.589844 20.375 18.066406 19.894531 19.300781 19.148438 C 20.847656 18.214844 22.089844 16.851562 23.089844 15.054688 C 22.761719 14.203125 22.210938 13.464844 21.507812 12.910156 C 20.636719 14.476562 19.507812 15.804688 18.132812 16.742188 C 16.835938 17.628906 15.269531 18.195312 13.558594 18.269531 C 13.816406 19.160156 14.316406 19.949219 14.976562 20.558594 Z M 14.976562 20.558594 "/>
<path style=" stroke:none;fill-rule:nonzero;fill:rgb(90.196078%,78.823529%,38.431373%);fill-opacity:1;" d="M 24.339844 18.246094 C 24.273438 18.296875 24.054688 18.519531 24.191406 18.605469 C 24.292969 18.671875 24.382812 18.558594 24.449219 18.429688 C 24.597656 18.140625 24.910156 18.035156 25.210938 18.242188 C 25.421875 18.390625 25.476562 18.644531 25.402344 18.878906 C 25.34375 19.058594 25.234375 19.21875 25.105469 19.351562 L 24.777344 19.082031 C 24.953125 18.945312 25.046875 18.710938 24.929688 18.648438 C 24.769531 18.566406 24.734375 18.84375 24.574219 19 C 24.457031 19.113281 24.222656 19.167969 24 19.03125 C 23.800781 18.910156 23.742188 18.726562 23.753906 18.59375 C 23.765625 18.398438 23.898438 18.15625 24.042969 18.035156 Z M 24.339844 18.246094 "/>
<path style=" stroke:none;fill-rule:nonzero;fill:rgb(90.196078%,78.823529%,38.431373%);fill-opacity:1;" d="M 12.777344 18.03125 L 12.785156 18.050781 L 12.921875 18.605469 C 12.976562 18.820312 12.976562 18.988281 12.921875 19.117188 C 12.867188 19.246094 12.796875 19.34375 12.707031 19.414062 C 12.644531 19.464844 12.574219 19.503906 12.503906 19.527344 L 12.359375 19.578125 C 12.164062 19.625 11.972656 19.609375 11.789062 19.527344 C 11.605469 19.449219 11.476562 19.265625 11.40625 18.988281 L 11.402344 18.964844 L 11.261719 18.410156 Z M 11.746094 18.792969 L 11.765625 18.875 C 11.773438 18.898438 11.789062 18.929688 11.8125 18.964844 C 11.84375 19.023438 11.894531 19.070312 11.964844 19.105469 C 12.03125 19.144531 12.125 19.148438 12.242188 19.117188 C 12.386719 19.082031 12.480469 19.015625 12.519531 18.921875 C 12.558594 18.828125 12.5625 18.71875 12.53125 18.59375 L 12.527344 18.566406 L 11.738281 18.765625 Z M 11.746094 18.792969 "/>
<path style=" stroke:none;fill-rule:nonzero;fill:rgb(90.196078%,78.823529%,38.431373%);fill-opacity:1;" d="M 13.746094 20.820312 L 13.492188 20.441406 L 13.308594 20.558594 L 13.539062 20.910156 L 13.230469 21.113281 L 12.996094 20.757812 L 12.808594 20.882812 L 13.066406 21.269531 L 12.75 21.476562 L 12.261719 20.734375 L 13.570312 19.878906 L 13.582031 19.894531 L 14.054688 20.617188 Z M 13.746094 20.820312 "/>
<path style=" stroke:none;fill-rule:nonzero;fill:rgb(90.196078%,78.823529%,38.431373%);fill-opacity:1;" d="M 19.550781 22.8125 L 19.097656 22.859375 L 19.121094 23.078125 L 19.535156 23.039062 L 19.574219 23.40625 L 19.152344 23.449219 L 19.175781 23.671875 L 19.636719 23.621094 L 19.675781 23.996094 L 18.792969 24.089844 L 18.632812 22.535156 L 18.652344 22.53125 L 19.511719 22.441406 Z M 19.550781 22.8125 "/>
<path style=" stroke:none;fill-rule:nonzero;fill:rgb(90.196078%,78.823529%,38.431373%);fill-opacity:1;" d="M 16.335938 22.136719 L 16.355469 22.144531 L 16.933594 22.339844 L 17.023438 22.375 C 17.042969 22.382812 17.066406 22.394531 17.089844 22.410156 C 17.113281 22.425781 17.136719 22.441406 17.15625 22.460938 C 17.300781 22.589844 17.316406 22.796875 17.265625 22.972656 C 17.210938 23.160156 17.046875 23.277344 16.855469 23.28125 L 17.089844 24.015625 L 16.59375 23.839844 L 16.449219 23.269531 L 16.414062 23.257812 L 16.257812 23.738281 L 16.238281 23.730469 L 15.847656 23.597656 Z M 16.601562 22.957031 C 16.667969 22.980469 16.722656 22.980469 16.757812 22.957031 C 16.792969 22.933594 16.820312 22.90625 16.835938 22.867188 L 16.847656 22.84375 L 16.851562 22.828125 C 16.859375 22.789062 16.855469 22.75 16.839844 22.714844 C 16.820312 22.675781 16.78125 22.644531 16.714844 22.621094 L 16.640625 22.597656 L 16.527344 22.933594 Z M 16.601562 22.957031 "/>
<path style=" stroke:none;fill-rule:nonzero;fill:rgb(90.196078%,78.823529%,38.431373%);fill-opacity:1;" d="M 21.878906 23.203125 L 21.859375 23.210938 L 21.476562 23.410156 L 20.761719 22.046875 L 20.78125 22.035156 L 21.164062 21.835938 Z M 21.878906 23.203125 "/>
<path style=" stroke:none;fill-rule:nonzero;fill:rgb(90.196078%,78.823529%,38.431373%);fill-opacity:1;" d="M 22.875 20.339844 L 23.152344 20.003906 L 24.515625 20.789062 L 24.230469 21.132812 L 23.5625 20.703125 L 23.976562 21.445312 L 23.796875 21.660156 L 22.996094 21.390625 L 23.539062 21.96875 L 23.253906 22.3125 L 22.230469 21.117188 L 22.503906 20.78125 L 23.28125 21.054688 Z M 22.875 20.339844 "/>
<path style=" stroke:none;fill-rule:nonzero;fill:rgb(90.196078%,78.823529%,38.431373%);fill-opacity:1;" d="M 15.773438 18.769531 C 15.695312 18.738281 15.390625 18.675781 15.390625 18.839844 C 15.390625 18.957031 15.535156 18.972656 15.679688 18.957031 C 16 18.925781 16.261719 19.132812 16.246094 19.5 C 16.238281 19.757812 16.050781 19.941406 15.8125 20.003906 C 15.632812 20.050781 15.4375 20.046875 15.257812 20.011719 L 15.304688 19.585938 C 15.519531 19.664062 15.765625 19.617188 15.75 19.480469 C 15.734375 19.300781 15.480469 19.421875 15.265625 19.371094 C 15.105469 19.332031 14.933594 19.167969 14.929688 18.902344 C 14.925781 18.671875 15.046875 18.527344 15.164062 18.460938 C 15.335938 18.367188 15.609375 18.347656 15.789062 18.402344 Z M 15.773438 18.769531 "/>
<path style=" stroke:none;fill-rule:nonzero;fill:rgb(90.196078%,78.823529%,38.431373%);fill-opacity:1;" d="M 17.582031 17.597656 L 17.738281 17.9375 L 17.429688 18.082031 L 17.929688 19.160156 L 17.910156 19.171875 L 17.511719 19.355469 L 17.011719 18.277344 L 16.699219 18.421875 L 16.539062 18.082031 L 16.5625 18.074219 Z M 17.582031 17.597656 "/>
<path style=" stroke:none;fill-rule:nonzero;fill:rgb(89.803922%,76.078431%,38.823529%);fill-opacity:1;" d="M 19.480469 16.339844 L 19.496094 16.328125 L 19.886719 15.933594 C 20.035156 15.78125 20.175781 15.699219 20.3125 15.679688 C 20.449219 15.664062 20.566406 15.675781 20.671875 15.714844 C 20.746094 15.746094 20.816406 15.785156 20.875 15.832031 L 20.988281 15.929688 C 21.132812 16.074219 21.21875 16.242188 21.246094 16.441406 C 21.277344 16.636719 21.191406 16.835938 20.996094 17.035156 L 20.589844 17.441406 Z M 20.65625 16.84375 L 20.714844 16.785156 C 20.730469 16.765625 20.75 16.738281 20.765625 16.699219 C 20.796875 16.644531 20.808594 16.578125 20.804688 16.5 C 20.800781 16.421875 20.753906 16.34375 20.667969 16.257812 C 20.5625 16.152344 20.460938 16.105469 20.359375 16.121094 C 20.257812 16.132812 20.167969 16.183594 20.078125 16.269531 L 20.0625 16.289062 L 20.636719 16.863281 Z M 20.65625 16.84375 "/>
<path style=" stroke:none;fill-rule:nonzero;fill:rgb(90.196078%,78.823529%,38.431373%);fill-opacity:1;" d="M 21.636719 14.367188 L 21.371094 14.738281 L 21.550781 14.867188 L 21.796875 14.527344 L 22.097656 14.742188 L 21.847656 15.085938 L 22.027344 15.214844 L 22.300781 14.839844 L 22.605469 15.058594 L 22.089844 15.78125 L 20.820312 14.871094 L 20.832031 14.851562 L 21.335938 14.148438 Z M 21.636719 14.367188 "/>
<path style=" stroke:none;fill-rule:evenodd;fill:rgb(89.803922%,76.078431%,38.823529%);fill-opacity:1;" d="M 18.769531 18.8125 L 19.167969 18.535156 L 19.09375 18.257812 L 19.503906 17.972656 L 19.738281 18.140625 L 20.136719 17.863281 L 18.730469 16.925781 L 18.386719 17.167969 Z M 19 17.910156 L 18.898438 17.539062 L 19.210938 17.761719 Z M 19 17.910156 "/>
</g>
</svg>
