<?xml version="1.0" encoding="UTF-8"?>
<svg xmlns="http://www.w3.org/2000/svg" xmlns:xlink="http://www.w3.org/1999/xlink" width="35pt" height="25pt" viewBox="0 0 35 25" version="1.1">
<defs>
<clipPath id="clip1">
  <path d="M 7.75 0 L 28.386719 0 L 28.386719 25 L 7.75 25 Z M 7.75 0 "/>
</clipPath>
</defs>
<g id="surface1">
<g clip-path="url(#clip1)" clip-rule="nonzero">
<path style=" stroke:none;fill-rule:nonzero;fill:rgb(13.72549%,12.156863%,12.54902%);fill-opacity:1;" d="M 18.0625 0.847656 C 17.644531 0.859375 15.953125 0.710938 14.613281 -0.00390625 C 12.066406 1.765625 10.898438 2.429688 7.746094 3.25 C 7.882812 5.964844 7.742188 18.21875 18.089844 24.980469 L 18.117188 25 L 18.125 24.992188 C 28.476562 18.230469 28.25 5.964844 28.386719 3.25 C 25.234375 2.429688 24.164062 1.765625 21.617188 -0.00390625 C 20.28125 0.710938 18.484375 0.859375 18.0625 0.847656 "/>
</g>
<path style=" stroke:none;fill-rule:nonzero;fill:rgb(92.941176%,10.980392%,14.117647%);fill-opacity:1;" d="M 27.808594 3.667969 C 24.777344 2.875 23.941406 2.261719 21.488281 0.550781 C 20.203125 1.238281 18.574219 1.238281 18.171875 1.226562 L 18.171875 1.222656 L 18.121094 1.226562 L 18.074219 1.222656 L 18.074219 1.226562 C 17.667969 1.238281 16.042969 1.238281 14.753906 0.550781 C 12.300781 2.261719 11.464844 2.875 8.433594 3.667969 C 8.566406 6.292969 8.144531 18.179688 18.097656 24.726562 L 18.125 24.746094 L 18.132812 24.738281 C 28.085938 18.191406 27.679688 6.292969 27.808594 3.667969 "/>
<path style=" stroke:none;fill-rule:nonzero;fill:rgb(100%,100%,100%);fill-opacity:1;" d="M 27.339844 4.109375 C 24.480469 3.359375 23.691406 2.78125 21.378906 1.167969 C 20.167969 1.820312 18.628906 1.820312 18.25 1.808594 L 18.25 1.804688 L 18.15625 1.804688 L 18.15625 1.808594 C 17.773438 1.820312 16.242188 1.820312 15.027344 1.167969 C 12.714844 2.78125 11.925781 3.359375 9.066406 4.109375 C 9.191406 6.585938 8.792969 17.792969 18.179688 23.960938 L 18.203125 23.980469 L 18.214844 23.972656 C 27.601562 17.800781 27.214844 6.585938 27.339844 4.109375 "/>
<path style=" stroke:none;fill-rule:nonzero;fill:rgb(92.941176%,10.980392%,14.117647%);fill-opacity:1;" d="M 27.207031 4.144531 C 24.386719 3.4375 23.609375 2.894531 21.328125 1.367188 C 20.128906 1.984375 18.613281 1.980469 18.238281 1.96875 L 18.148438 1.96875 C 17.769531 1.980469 16.257812 1.984375 15.058594 1.367188 C 12.777344 2.894531 11.996094 3.4375 9.175781 4.144531 C 9.300781 6.484375 8.90625 17.078125 18.167969 22.90625 L 18.167969 22.941406 L 18.195312 22.925781 L 18.203125 22.933594 L 18.203125 22.917969 C 27.464844 17.085938 27.085938 6.484375 27.207031 4.144531 "/>
<path style=" stroke:none;fill-rule:nonzero;fill:rgb(13.72549%,12.156863%,12.54902%);fill-opacity:1;" d="M 19.257812 21.304688 L 19.257812 21.304688 M 19.058594 21.382812 C 18.972656 21.382812 18.894531 21.339844 18.839844 21.253906 C 18.789062 21.183594 18.757812 21.09375 18.757812 21.023438 C 18.757812 20.933594 18.839844 20.863281 18.945312 20.863281 C 19.027344 20.863281 19.101562 20.902344 19.160156 20.972656 C 19.21875 21.046875 19.253906 21.148438 19.253906 21.230469 C 19.253906 21.320312 19.175781 21.382812 19.058594 21.382812 M 19.003906 20.796875 C 18.785156 20.796875 18.625 20.945312 18.625 21.144531 C 18.625 21.164062 18.625 21.183594 18.628906 21.199219 L 18.628906 21.203125 C 18.660156 21.335938 18.789062 21.4375 18.953125 21.457031 C 18.988281 21.460938 19.011719 21.460938 19.011719 21.460938 C 19.214844 21.460938 19.390625 21.304688 19.390625 21.121094 C 19.390625 20.941406 19.21875 20.796875 19.003906 20.796875 M 18.390625 21.605469 C 18.390625 21.605469 18.394531 21.601562 18.394531 21.601562 C 18.394531 21.601562 18.390625 21.605469 18.390625 21.605469 M 18.3125 21.125 C 18.285156 21.125 18.257812 21.125 18.210938 21.132812 C 18.207031 21.132812 18.195312 21.132812 18.191406 21.132812 C 18.171875 21.132812 18.164062 21.121094 18.164062 21.089844 C 18.164062 21.050781 18.175781 21.003906 18.195312 20.980469 C 18.207031 20.957031 18.226562 20.957031 18.316406 20.957031 C 18.398438 20.957031 18.453125 20.957031 18.519531 20.957031 C 18.535156 20.960938 18.550781 20.960938 18.558594 20.960938 C 18.585938 20.960938 18.59375 20.953125 18.601562 20.921875 C 18.605469 20.910156 18.617188 20.882812 18.648438 20.808594 C 18.652344 20.796875 18.65625 20.792969 18.65625 20.785156 C 18.65625 20.78125 18.644531 20.773438 18.636719 20.773438 C 18.628906 20.773438 18.621094 20.777344 18.609375 20.785156 C 18.570312 20.824219 18.558594 20.828125 18.5 20.828125 L 18.203125 20.828125 C 18.152344 20.828125 18.148438 20.828125 18.148438 20.863281 C 18.136719 20.988281 18.125 21.058594 18.105469 21.125 C 18.078125 21.214844 18.078125 21.214844 18.078125 21.222656 C 18.078125 21.242188 18.097656 21.257812 18.125 21.257812 C 18.132812 21.257812 18.144531 21.257812 18.15625 21.257812 C 18.207031 21.25 18.246094 21.25 18.269531 21.25 C 18.390625 21.25 18.480469 21.320312 18.484375 21.421875 C 18.484375 21.421875 18.484375 21.425781 18.484375 21.425781 C 18.480469 21.4375 18.480469 21.445312 18.480469 21.457031 C 18.476562 21.464844 18.476562 21.472656 18.472656 21.480469 C 18.46875 21.488281 18.464844 21.5 18.460938 21.507812 C 18.417969 21.585938 18.320312 21.632812 18.195312 21.632812 C 18.132812 21.632812 18.085938 21.625 18.023438 21.59375 C 18.007812 21.589844 18 21.585938 17.992188 21.585938 C 17.980469 21.585938 17.964844 21.597656 17.964844 21.605469 C 17.964844 21.640625 18.109375 21.683594 18.226562 21.683594 C 18.46875 21.683594 18.648438 21.546875 18.648438 21.363281 C 18.648438 21.214844 18.519531 21.125 18.3125 21.125 M 17.699219 21.277344 C 17.574219 21.277344 17.472656 21.164062 17.472656 21.019531 C 17.472656 20.902344 17.542969 20.824219 17.644531 20.824219 C 17.773438 20.824219 17.886719 20.953125 17.886719 21.101562 C 17.886719 21.207031 17.8125 21.277344 17.699219 21.277344 M 17.730469 20.820312 C 17.730469 20.820312 17.726562 20.820312 17.722656 20.820312 C 17.722656 20.820312 17.722656 20.820312 17.71875 20.816406 C 17.722656 20.820312 17.726562 20.820312 17.730469 20.820312 M 17.964844 20.890625 C 17.898438 20.820312 17.808594 20.785156 17.691406 20.785156 C 17.5625 20.785156 17.46875 20.820312 17.398438 20.890625 C 17.347656 20.945312 17.316406 21.019531 17.316406 21.097656 C 17.316406 21.25 17.429688 21.355469 17.585938 21.355469 C 17.660156 21.355469 17.714844 21.339844 17.800781 21.292969 C 17.816406 21.285156 17.828125 21.28125 17.832031 21.28125 C 17.839844 21.28125 17.84375 21.285156 17.84375 21.292969 C 17.84375 21.324219 17.808594 21.394531 17.773438 21.441406 C 17.691406 21.542969 17.574219 21.609375 17.414062 21.640625 C 17.386719 21.644531 17.375 21.648438 17.375 21.664062 C 17.375 21.675781 17.390625 21.683594 17.410156 21.683594 C 17.507812 21.683594 17.667969 21.632812 17.78125 21.570312 C 17.953125 21.472656 18.0625 21.308594 18.0625 21.140625 C 18.0625 21.046875 18.027344 20.960938 17.964844 20.890625 M 17.421875 21.4375 C 17.421875 21.421875 17.410156 21.417969 17.382812 21.417969 C 17.273438 21.414062 17.238281 21.382812 17.238281 21.273438 L 17.238281 20.996094 C 17.238281 20.957031 17.242188 20.890625 17.246094 20.855469 C 17.246094 20.84375 17.25 20.828125 17.25 20.820312 C 17.25 20.808594 17.242188 20.800781 17.226562 20.800781 C 17.21875 20.800781 17.210938 20.804688 17.199219 20.816406 C 17.132812 20.863281 17.105469 20.878906 17.027344 20.894531 C 16.917969 20.914062 16.902344 20.917969 16.902344 20.945312 C 16.902344 20.953125 16.910156 20.960938 16.921875 20.960938 C 16.925781 20.960938 16.929688 20.960938 16.941406 20.957031 C 16.960938 20.949219 16.976562 20.945312 16.996094 20.945312 C 17.019531 20.945312 17.035156 20.949219 17.046875 20.960938 L 17.0625 20.972656 C 17.0625 20.972656 17.0625 20.976562 17.0625 20.980469 L 17.078125 21.105469 L 17.078125 21.3125 C 17.078125 21.320312 17.074219 21.332031 17.074219 21.339844 L 17.058594 21.382812 C 17.039062 21.402344 17.011719 21.414062 16.96875 21.417969 C 16.929688 21.417969 16.917969 21.421875 16.917969 21.4375 C 16.917969 21.449219 16.925781 21.457031 16.949219 21.457031 C 16.957031 21.457031 16.96875 21.457031 16.984375 21.453125 C 17.050781 21.449219 17.121094 21.449219 17.175781 21.449219 C 17.234375 21.449219 17.308594 21.449219 17.375 21.453125 C 17.382812 21.457031 17.390625 21.457031 17.394531 21.457031 C 17.410156 21.457031 17.421875 21.449219 17.421875 21.4375 "/>
<path style=" stroke:none;fill-rule:nonzero;fill:rgb(13.72549%,12.156863%,12.54902%);fill-opacity:1;" d="M 19.863281 4.316406 C 19.863281 4.316406 19.140625 3.890625 18.957031 4.457031 C 18.949219 4.476562 18.941406 4.5 18.9375 4.523438 C 18.9375 4.53125 18.933594 4.542969 18.933594 4.550781 C 18.933594 4.554688 18.933594 4.558594 18.933594 4.558594 L 18.929688 4.558594 C 18.929688 4.566406 18.933594 4.574219 18.933594 4.578125 C 18.933594 4.609375 18.941406 4.636719 18.957031 4.660156 C 19.140625 5.164062 19.851562 4.855469 19.851562 4.855469 C 20.191406 4.714844 20.46875 4.644531 20.511719 4.632812 L 20.53125 4.632812 C 20.53125 4.632812 20.234375 4.527344 19.863281 4.316406 M 18.3125 3.875 C 18.335938 3.886719 18.363281 3.894531 18.390625 3.898438 C 18.398438 3.902344 18.40625 3.902344 18.410156 3.902344 L 18.410156 3.898438 C 18.414062 3.898438 18.417969 3.898438 18.421875 3.898438 L 18.421875 3.902344 C 18.429688 3.902344 18.4375 3.898438 18.445312 3.898438 C 18.472656 3.894531 18.5 3.890625 18.527344 3.882812 C 19.109375 3.734375 18.714844 3.011719 18.714844 3.011719 C 18.519531 2.644531 18.425781 2.351562 18.425781 2.351562 L 18.425781 2.367188 C 18.410156 2.40625 18.324219 2.671875 18.15625 2.996094 C 18.15625 2.996094 17.800781 3.667969 18.3125 3.875 M 17.925781 4.617188 C 17.941406 4.589844 17.949219 4.5625 17.949219 4.53125 C 17.953125 4.523438 17.953125 4.519531 17.957031 4.511719 L 17.949219 4.511719 C 17.949219 4.511719 17.949219 4.507812 17.949219 4.503906 L 17.953125 4.503906 C 17.949219 4.5 17.949219 4.496094 17.949219 4.488281 C 17.945312 4.457031 17.9375 4.421875 17.925781 4.390625 C 17.738281 3.832031 17.023438 4.179688 17.023438 4.179688 C 16.652344 4.355469 16.355469 4.433594 16.355469 4.433594 L 16.371094 4.433594 C 16.410156 4.449219 16.6875 4.542969 17.027344 4.71875 C 17.027344 4.71875 17.734375 5.097656 17.925781 4.617188 M 18.421875 4.355469 L 18.421875 4.335938 C 18.421875 4.335938 18.421875 4.339844 18.421875 4.347656 C 18.417969 4.292969 18.417969 4.261719 18.417969 4.261719 L 18.414062 4.414062 C 18.382812 4.824219 18.160156 6.753906 16.78125 7.730469 L 17.089844 7.746094 C 17.453125 7.824219 18.117188 8.152344 18.363281 9.476562 C 18.363281 9.476562 18.371094 9.445312 18.386719 9.390625 L 18.390625 9.398438 L 18.390625 9.382812 C 18.5 9.035156 18.960938 7.792969 19.882812 7.851562 C 18.628906 6.761719 18.445312 4.804688 18.421875 4.355469 "/>
<path style=" stroke:none;fill-rule:nonzero;fill:rgb(13.72549%,12.156863%,12.54902%);fill-opacity:1;" d="M 18.457031 4.355469 C 18.457031 4.351562 18.457031 4.34375 18.457031 4.335938 C 18.457031 4.289062 18.386719 4.289062 18.382812 4.335938 C 18.382812 4.339844 18.382812 4.34375 18.382812 4.347656 L 18.457031 4.347656 C 18.457031 4.320312 18.453125 4.292969 18.453125 4.261719 C 18.453125 4.214844 18.382812 4.214844 18.378906 4.261719 C 18.371094 5.527344 17.796875 6.945312 16.761719 7.699219 C 16.734375 7.71875 16.742188 7.765625 16.78125 7.769531 C 17.738281 7.8125 18.152344 8.613281 18.328125 9.484375 C 18.335938 9.519531 18.390625 9.519531 18.398438 9.484375 C 18.40625 9.457031 18.414062 9.429688 18.421875 9.402344 L 18.351562 9.402344 C 18.355469 9.40625 18.355469 9.40625 18.355469 9.410156 C 18.367188 9.449219 18.425781 9.441406 18.425781 9.398438 C 18.429688 9.136719 18.671875 8.785156 18.804688 8.574219 C 19.042969 8.1875 19.40625 7.875 19.882812 7.886719 C 19.914062 7.890625 19.929688 7.847656 19.90625 7.824219 C 18.949219 6.964844 18.53125 5.613281 18.457031 4.355469 C 18.453125 4.308594 18.382812 4.308594 18.382812 4.355469 C 18.449219 5.425781 18.757812 6.53125 19.40625 7.398438 C 19.5 7.523438 19.609375 7.636719 19.71875 7.75 C 19.796875 7.828125 19.839844 7.8125 19.726562 7.816406 C 19.679688 7.820312 19.625 7.832031 19.574219 7.84375 C 19.332031 7.894531 19.128906 8.0625 18.964844 8.238281 C 18.785156 8.429688 18.65625 8.664062 18.542969 8.898438 C 18.476562 9.039062 18.355469 9.242188 18.355469 9.398438 C 18.378906 9.398438 18.402344 9.394531 18.425781 9.390625 C 18.425781 9.386719 18.425781 9.386719 18.421875 9.382812 C 18.410156 9.347656 18.363281 9.347656 18.351562 9.382812 C 18.34375 9.410156 18.335938 9.4375 18.328125 9.464844 L 18.398438 9.464844 C 18.21875 8.554688 17.773438 7.742188 16.78125 7.695312 C 16.789062 7.71875 16.792969 7.738281 16.800781 7.761719 C 17.855469 6.992188 18.445312 5.554688 18.453125 4.261719 L 18.378906 4.261719 C 18.382812 4.292969 18.382812 4.320312 18.382812 4.347656 C 18.386719 4.394531 18.453125 4.394531 18.457031 4.347656 C 18.457031 4.34375 18.457031 4.339844 18.457031 4.335938 L 18.382812 4.335938 C 18.382812 4.34375 18.382812 4.351562 18.382812 4.355469 C 18.382812 4.402344 18.457031 4.402344 18.457031 4.355469 "/>
<path style=" stroke:none;fill-rule:nonzero;fill:rgb(13.72549%,12.156863%,12.54902%);fill-opacity:1;" d="M 17.960938 4.625 C 17.972656 4.589844 17.980469 4.558594 17.992188 4.523438 C 17.996094 4.5 17.980469 4.476562 17.957031 4.476562 C 17.953125 4.496094 17.953125 4.519531 17.953125 4.542969 C 17.976562 4.542969 17.992188 4.515625 17.988281 4.496094 C 17.804688 3.625 16.828125 4.265625 16.34375 4.398438 C 16.304688 4.410156 16.3125 4.46875 16.355469 4.46875 C 16.792969 4.488281 17.617188 5.328125 17.957031 4.632812 C 17.976562 4.589844 17.914062 4.554688 17.894531 4.597656 C 17.585938 5.230469 16.769531 4.414062 16.355469 4.398438 C 16.359375 4.421875 16.363281 4.445312 16.363281 4.46875 C 16.621094 4.398438 16.855469 4.285156 17.097656 4.1875 C 17.214844 4.140625 17.335938 4.113281 17.460938 4.109375 C 17.550781 4.105469 17.632812 4.128906 17.710938 4.167969 C 17.800781 4.222656 17.859375 4.300781 17.890625 4.402344 C 17.882812 4.503906 17.902344 4.527344 17.949219 4.46875 C 17.929688 4.46875 17.914062 4.484375 17.914062 4.503906 C 17.914062 4.507812 17.914062 4.511719 17.914062 4.511719 C 17.914062 4.535156 17.929688 4.550781 17.949219 4.550781 C 17.910156 4.5 17.886719 4.515625 17.890625 4.605469 C 17.875 4.652344 17.945312 4.667969 17.960938 4.625 "/>
<path style=" stroke:none;fill-rule:nonzero;fill:rgb(13.72549%,12.156863%,12.54902%);fill-opacity:1;" d="M 18.300781 3.910156 C 18.335938 3.921875 18.367188 3.929688 18.402344 3.941406 C 18.425781 3.945312 18.449219 3.929688 18.449219 3.902344 C 18.425781 3.902344 18.40625 3.902344 18.382812 3.902344 C 18.382812 3.929688 18.40625 3.941406 18.429688 3.9375 C 19.324219 3.796875 18.605469 2.789062 18.460938 2.34375 C 18.445312 2.304688 18.386719 2.308594 18.386719 2.351562 C 18.386719 2.550781 18.210938 2.804688 18.125 2.976562 C 18.089844 3.050781 18.058594 3.132812 18.035156 3.214844 C 17.949219 3.5 18.015625 3.769531 18.292969 3.90625 C 18.335938 3.925781 18.375 3.863281 18.332031 3.839844 C 17.652344 3.515625 18.460938 2.789062 18.460938 2.351562 C 18.4375 2.355469 18.414062 2.359375 18.390625 2.363281 C 18.46875 2.605469 18.585938 2.835938 18.699219 3.066406 C 18.753906 3.175781 18.789062 3.296875 18.804688 3.417969 C 18.820312 3.53125 18.796875 3.640625 18.722656 3.734375 C 18.644531 3.832031 18.457031 3.816406 18.457031 3.898438 C 18.457031 3.878906 18.441406 3.863281 18.421875 3.863281 C 18.417969 3.863281 18.414062 3.863281 18.410156 3.863281 C 18.390625 3.863281 18.375 3.878906 18.375 3.898438 C 18.421875 3.855469 18.402344 3.835938 18.320312 3.839844 C 18.277344 3.824219 18.257812 3.894531 18.300781 3.910156 "/>
<path style=" stroke:none;fill-rule:nonzero;fill:rgb(13.72549%,12.156863%,12.54902%);fill-opacity:1;" d="M 19.882812 4.285156 C 19.507812 4.066406 19.011719 4.035156 18.894531 4.542969 C 18.890625 4.566406 18.90625 4.585938 18.929688 4.589844 C 18.929688 4.566406 18.929688 4.546875 18.929688 4.523438 C 18.90625 4.523438 18.890625 4.546875 18.894531 4.570312 C 19.101562 5.457031 20.054688 4.644531 20.53125 4.671875 C 20.574219 4.671875 20.578125 4.613281 20.539062 4.597656 C 20.3125 4.515625 20.09375 4.402344 19.882812 4.285156 C 19.839844 4.261719 19.804688 4.324219 19.84375 4.347656 C 20.0625 4.46875 20.285156 4.582031 20.519531 4.667969 C 20.523438 4.644531 20.527344 4.621094 20.53125 4.597656 C 20.300781 4.585938 20.011719 4.757812 19.804688 4.835938 C 19.6875 4.878906 19.566406 4.902344 19.445312 4.910156 C 19.371094 4.917969 19.296875 4.90625 19.226562 4.882812 C 19.132812 4.851562 19.0625 4.792969 19.019531 4.710938 C 19.019531 4.570312 18.992188 4.535156 18.933594 4.597656 C 18.953125 4.597656 18.972656 4.578125 18.972656 4.558594 C 18.972656 4.558594 18.972656 4.554688 18.972656 4.550781 C 18.972656 4.53125 18.953125 4.515625 18.933594 4.515625 C 19.019531 4.519531 19.058594 4.308594 19.167969 4.238281 C 19.269531 4.175781 19.414062 4.199219 19.523438 4.21875 C 19.636719 4.242188 19.746094 4.289062 19.84375 4.347656 C 19.886719 4.371094 19.921875 4.308594 19.882812 4.285156 "/>
<path style=" stroke:none;fill-rule:nonzero;fill:rgb(100%,100%,100%);fill-opacity:1;" d="M 19.941406 4.246094 C 19.941406 4.246094 19.21875 3.824219 19.03125 4.386719 C 19.023438 4.410156 19.015625 4.433594 19.015625 4.457031 C 19.011719 4.464844 19.007812 4.472656 19.007812 4.484375 L 19.011719 4.484375 C 19.011719 4.488281 19.011719 4.488281 19.011719 4.492188 L 19.007812 4.492188 C 19.007812 4.496094 19.007812 4.503906 19.011719 4.511719 C 19.011719 4.539062 19.019531 4.566406 19.035156 4.59375 C 19.21875 5.097656 19.929688 4.789062 19.929688 4.789062 C 20.269531 4.644531 20.546875 4.574219 20.589844 4.566406 L 20.605469 4.566406 C 20.605469 4.566406 20.308594 4.457031 19.941406 4.246094 M 18.386719 3.804688 C 18.414062 3.820312 18.4375 3.828125 18.464844 3.828125 C 18.472656 3.832031 18.480469 3.835938 18.488281 3.835938 L 18.488281 3.832031 C 18.492188 3.832031 18.492188 3.832031 18.496094 3.832031 L 18.496094 3.835938 C 18.507812 3.832031 18.515625 3.832031 18.523438 3.828125 C 18.550781 3.828125 18.578125 3.820312 18.601562 3.816406 C 19.1875 3.664062 18.792969 2.945312 18.792969 2.945312 C 18.59375 2.578125 18.5 2.285156 18.5 2.285156 L 18.5 2.296875 C 18.488281 2.335938 18.402344 2.601562 18.234375 2.925781 C 18.234375 2.925781 17.875 3.601562 18.386719 3.804688 M 16.667969 4.375 L 16.664062 4.375 Z M 18 4.546875 C 18.015625 4.523438 18.027344 4.492188 18.027344 4.460938 C 18.027344 4.457031 18.03125 4.453125 18.03125 4.445312 L 18.027344 4.445312 C 18.027344 4.441406 18.027344 4.4375 18.027344 4.4375 C 18.027344 4.429688 18.027344 4.425781 18.027344 4.421875 C 18.019531 4.390625 18.011719 4.355469 18 4.324219 C 17.816406 3.761719 17.101562 4.113281 17.101562 4.113281 C 16.730469 4.285156 16.429688 4.363281 16.429688 4.363281 L 16.445312 4.367188 C 16.484375 4.378906 16.761719 4.476562 17.105469 4.652344 C 17.105469 4.652344 17.808594 5.027344 18 4.546875 M 18.496094 4.289062 L 18.496094 4.269531 C 18.496094 4.269531 18.496094 4.273438 18.496094 4.28125 C 18.492188 4.226562 18.492188 4.195312 18.492188 4.195312 L 18.492188 4.347656 C 18.460938 4.753906 18.238281 6.6875 16.859375 7.664062 L 17.167969 7.675781 C 17.53125 7.757812 18.191406 8.085938 18.4375 9.40625 C 18.4375 9.40625 18.445312 9.375 18.464844 9.324219 L 18.464844 9.332031 L 18.464844 9.316406 C 18.578125 8.96875 19.039062 7.722656 19.957031 7.78125 C 18.703125 6.691406 18.523438 4.738281 18.496094 4.289062 "/>
<path style=" stroke:none;fill-rule:nonzero;fill:rgb(13.72549%,12.156863%,12.54902%);fill-opacity:1;" d="M 23.03125 14.929688 C 22.871094 15.074219 22.664062 15.195312 22.410156 15.28125 C 22.113281 15.386719 21.792969 15.429688 21.339844 15.429688 C 19.960938 15.429688 19.542969 15.214844 19.542969 14.507812 L 19.542969 13.277344 C 19.542969 12.980469 19.730469 12.90625 20.429688 12.90625 C 21.574219 12.90625 22.378906 13.046875 22.855469 13.335938 C 23.296875 13.664062 23.363281 14.023438 23.371094 14.125 C 23.371094 14.136719 23.371094 14.148438 23.371094 14.160156 C 23.367188 14.480469 23.214844 14.734375 23.03125 14.929688 M 20.007812 17.976562 C 19.246094 17.976562 18.648438 17.40625 18.648438 16.664062 C 18.648438 16.078125 19.054688 15.667969 19.652344 15.660156 C 19.6875 15.664062 19.722656 15.664062 19.765625 15.664062 C 20.503906 15.714844 21.128906 16.355469 21.128906 17.082031 C 21.128906 17.625 20.6875 17.976562 20.007812 17.976562 M 19.585938 10.914062 C 19.585938 10.589844 19.917969 10.425781 20.589844 10.425781 C 21.886719 10.425781 22.835938 11.003906 22.835938 11.777344 C 22.835938 12.28125 22.355469 12.585938 21.578125 12.585938 L 20.46875 12.585938 C 19.878906 12.585938 19.585938 12.421875 19.585938 12.089844 Z M 12.386719 12.289062 L 12.730469 12.546875 C 12.597656 12.472656 12.480469 12.382812 12.386719 12.289062 M 23.789062 12.832031 C 23.480469 12.734375 23.238281 12.691406 22.703125 12.609375 C 23.695312 12.402344 24.203125 12.027344 24.203125 11.496094 C 24.203125 10.988281 23.707031 10.550781 22.878906 10.328125 C 22.394531 10.203125 21.726562 10.136719 20.921875 10.136719 C 20.667969 10.136719 20.453125 10.144531 20.265625 10.15625 C 19.007812 10.222656 19.007812 10.222656 18.433594 10.222656 C 18.113281 10.222656 17.859375 10.210938 17.738281 10.203125 C 17.558594 10.1875 17.464844 10.179688 17.414062 10.171875 C 17.410156 10.175781 17.402344 10.175781 17.394531 10.175781 C 17.179688 10.175781 17.125 10.253906 17.125 10.34375 C 17.125 10.4375 17.109375 10.464844 17.390625 10.496094 C 17.621094 10.515625 17.777344 10.546875 17.890625 10.589844 L 18.03125 10.6875 L 18.125 12.976562 L 18.125 14.597656 C 18.125 15.058594 17.964844 15.289062 17.550781 15.410156 C 17.203125 15.519531 17.160156 15.535156 17.160156 15.609375 C 17.160156 15.683594 17.242188 15.726562 17.375 15.726562 C 17.441406 15.726562 17.441406 15.726562 17.710938 15.699219 C 17.964844 15.683594 18.324219 15.667969 18.757812 15.664062 C 18.542969 15.746094 18.359375 15.859375 18.195312 16 C 17.878906 16.289062 17.691406 16.671875 17.691406 17.066406 C 17.691406 17.304688 17.757812 17.523438 17.878906 17.707031 C 17.855469 17.714844 17.832031 17.734375 17.804688 17.757812 C 17.578125 17.96875 17.464844 18.046875 17.28125 18.117188 C 17.042969 18.203125 16.621094 18.261719 16.222656 18.261719 C 15.777344 18.261719 15.355469 18.195312 15.355469 18.132812 C 15.355469 18.105469 15.375 18.089844 15.757812 17.886719 C 17.292969 17.050781 17.496094 16.898438 17.496094 16.515625 C 17.496094 16.007812 16.847656 15.621094 16.003906 15.621094 C 15.925781 15.621094 15.84375 15.625 15.765625 15.628906 C 16.707031 15.347656 17.339844 14.75 17.339844 14.023438 C 17.339844 13.265625 16.726562 12.722656 15.425781 12.34375 L 13.949219 11.902344 C 13.203125 11.683594 12.839844 11.414062 12.839844 11.089844 C 12.839844 10.625 13.5 10.238281 14.289062 10.238281 C 15.359375 10.238281 16.511719 10.871094 16.796875 11.625 C 16.863281 11.785156 16.929688 11.84375 17.054688 11.84375 C 17.160156 11.84375 17.230469 11.785156 17.230469 11.683594 C 17.230469 11.648438 17.230469 11.617188 17.214844 11.589844 C 17.082031 10.929688 17.054688 10.804688 17.054688 10.566406 L 17.054688 10.484375 C 17.066406 10.390625 17.066406 10.3125 17.066406 10.296875 C 17.066406 10.230469 17.011719 10.179688 16.90625 10.179688 C 16.863281 10.179688 16.796875 10.195312 16.742188 10.21875 C 16.539062 10.304688 16.539062 10.304688 16.429688 10.304688 C 16.292969 10.304688 16.253906 10.296875 15.859375 10.179688 C 15.371094 10.035156 14.871094 9.957031 14.355469 9.957031 C 13.683594 9.957031 13.097656 10.109375 12.664062 10.363281 C 12.179688 10.648438 11.890625 11.066406 11.890625 11.546875 C 11.890625 11.707031 11.917969 11.847656 11.972656 11.980469 C 11.972656 11.984375 11.972656 11.984375 11.972656 11.984375 C 12.144531 12.386719 12.585938 12.683594 13.339844 12.925781 L 15.320312 13.550781 C 16.105469 13.800781 16.398438 14.027344 16.425781 14.40625 L 16.425781 14.519531 C 16.378906 15.046875 15.613281 15.488281 14.75 15.488281 C 13.691406 15.488281 12.378906 14.695312 12.105469 13.882812 C 12.050781 13.746094 11.984375 13.695312 11.863281 13.695312 C 11.738281 13.695312 11.660156 13.773438 11.660156 13.898438 C 11.660156 14.023438 11.699219 14.136719 11.875 14.59375 C 11.96875 14.820312 12.011719 14.929688 12.039062 15.058594 L 12.121094 15.378906 C 12.796875 15.632812 13.734375 15.800781 14.53125 15.800781 C 14.71875 15.800781 14.898438 15.789062 15.070312 15.769531 C 14.855469 15.839844 14.648438 15.933594 14.460938 16.050781 C 14.183594 16.21875 13.976562 16.425781 13.976562 16.515625 C 13.976562 16.558594 14.027344 16.601562 14.101562 16.601562 C 14.140625 16.601562 14.183594 16.585938 14.246094 16.539062 C 14.625 16.253906 14.996094 16.128906 15.46875 16.128906 C 16.046875 16.128906 16.46875 16.402344 16.46875 16.777344 C 16.46875 16.941406 16.40625 17.066406 16.242188 17.242188 C 16.078125 17.421875 15.964844 17.503906 15.222656 17.929688 C 13.875 18.710938 13.863281 18.71875 13.863281 18.789062 C 13.863281 18.847656 13.914062 18.875 13.996094 18.875 C 14.039062 18.875 14.109375 18.875 14.183594 18.867188 C 14.398438 18.851562 14.625 18.847656 14.863281 18.847656 C 15.058594 18.847656 15.367188 18.851562 15.765625 18.867188 C 16.242188 18.882812 16.476562 18.886719 17.074219 18.886719 C 17.261719 18.886719 17.300781 18.882812 17.332031 18.859375 C 17.382812 18.832031 17.445312 18.746094 17.671875 18.410156 L 17.917969 18.035156 C 17.964844 17.964844 17.996094 17.914062 18.015625 17.878906 C 18.304688 18.1875 18.769531 18.375 19.328125 18.375 C 19.773438 18.375 20.101562 18.289062 20.617188 18.046875 C 20.707031 18.003906 20.761719 17.992188 20.800781 17.992188 C 20.839844 17.992188 20.871094 18.019531 20.871094 18.0625 C 20.871094 18.210938 20.667969 18.570312 20.441406 18.816406 C 19.957031 19.339844 19.257812 19.664062 18.28125 19.820312 C 18.125 19.847656 18.0625 19.875 18.0625 19.941406 C 18.0625 20.003906 18.136719 20.046875 18.257812 20.046875 C 18.84375 20.046875 19.8125 19.800781 20.480469 19.472656 C 21.53125 18.964844 22.167969 18.140625 22.167969 17.285156 C 22.167969 16.804688 21.972656 16.359375 21.605469 16.015625 C 21.472656 15.894531 21.324219 15.792969 21.160156 15.710938 C 21.277344 15.714844 21.398438 15.71875 21.511719 15.71875 C 22.464844 15.71875 23.210938 15.609375 23.746094 15.394531 C 24.457031 15.105469 24.898438 14.570312 24.898438 13.988281 C 24.898438 13.441406 24.523438 13.039062 23.789062 12.832031 M 17.414062 10.171875 C 17.460938 10.171875 17.292969 10.160156 17.414062 10.171875 "/>
<path style="fill:none;stroke-width:0.138;stroke-linecap:butt;stroke-linejoin:miter;stroke:rgb(13.72549%,12.156863%,12.54902%);stroke-opacity:1;stroke-miterlimit:1;" d="M -0.000299317 -0.00247547 C -0.26426 -0.240684 -0.605477 -0.440264 -1.023951 -0.581901 C -1.513244 -0.755729 -2.041165 -0.826547 -2.78798 -0.826547 C -5.060616 -0.826547 -5.749489 -0.472454 -5.749489 0.692835 L -5.749489 2.720825 C -5.749489 3.210118 -5.440462 3.332441 -4.288049 3.332441 C -2.401697 3.332441 -1.075456 3.100671 -0.290012 2.624254 C 0.437489 2.083457 0.546936 1.491155 0.559812 1.323765 C 0.559812 1.304451 0.559812 1.285137 0.559812 1.265823 C 0.553374 0.737902 0.30229 0.319428 -0.000299317 -0.00247547 Z M -4.98336 -5.024164 C -6.238782 -5.024164 -7.223806 -4.084207 -7.223806 -2.860975 C -7.223806 -1.895266 -6.554247 -1.219269 -5.569223 -1.206393 C -5.511281 -1.212831 -5.453338 -1.212831 -5.38252 -1.212831 C -4.165726 -1.296526 -3.135636 -2.352368 -3.135636 -3.549848 C -3.135636 -4.444739 -3.863137 -5.024164 -4.98336 -5.024164 Z M -5.678671 6.615853 C -5.678671 7.150212 -5.131435 7.420611 -4.024088 7.420611 C -1.886652 7.420611 -0.322202 6.467777 -0.322202 5.193041 C -0.322202 4.362531 -1.114084 3.860362 -2.395259 3.860362 L -4.223668 3.860362 C -5.195816 3.860362 -5.678671 4.130761 -5.678671 4.677996 Z M -17.54402 4.349655 L -16.97747 3.924743 C -17.196364 4.047066 -17.389506 4.195141 -17.54402 4.349655 Z M 1.248685 3.454764 C 0.740078 3.615716 0.340918 3.686534 -0.541097 3.821734 C 1.094171 4.162951 1.931119 4.781005 1.931119 5.656582 C 1.931119 6.49353 1.113486 7.214593 -0.251384 7.581562 C -1.049704 7.78758 -2.150612 7.897027 -3.476853 7.897027 C -3.895327 7.897027 -4.249421 7.884151 -4.558448 7.864837 C -6.631504 7.75539 -6.631504 7.75539 -7.577899 7.75539 C -8.10582 7.75539 -8.524294 7.774704 -8.723874 7.78758 C -9.020025 7.813332 -9.174538 7.826209 -9.258233 7.839085 C -9.264671 7.832647 -9.277547 7.832647 -9.290424 7.832647 C -9.644517 7.832647 -9.73465 7.703885 -9.73465 7.55581 C -9.73465 7.401296 -9.760402 7.35623 -9.296862 7.304726 C -8.917016 7.272535 -8.659493 7.221031 -8.47279 7.150212 L -8.241019 6.98926 L -8.086506 3.216556 L -8.086506 0.54476 C -8.086506 -0.214932 -8.350466 -0.594777 -9.032901 -0.794357 C -9.605889 -0.974623 -9.676707 -1.000375 -9.676707 -1.122698 C -9.676707 -1.245022 -9.541508 -1.31584 -9.322614 -1.31584 C -9.213167 -1.31584 -9.213167 -1.31584 -8.768941 -1.270774 C -8.350466 -1.245022 -7.758165 -1.219269 -7.04354 -1.212831 C -7.397633 -1.348031 -7.700222 -1.534734 -7.970621 -1.766505 C -8.492104 -2.242921 -8.801131 -2.873851 -8.801131 -3.524096 C -8.801131 -3.916818 -8.691684 -4.277349 -8.492104 -4.579938 C -8.530732 -4.592814 -8.569361 -4.625004 -8.614427 -4.663633 C -8.987835 -5.011288 -9.174538 -5.140049 -9.477127 -5.255935 C -9.869849 -5.397572 -10.56516 -5.494143 -11.221842 -5.494143 C -11.955782 -5.494143 -12.651092 -5.384696 -12.651092 -5.281687 C -12.651092 -5.23662 -12.618902 -5.210868 -11.987972 -4.876089 C -9.457813 -3.498343 -9.123034 -3.247259 -9.123034 -2.616329 C -9.123034 -1.779381 -10.191752 -1.142013 -11.582374 -1.142013 C -11.711135 -1.142013 -11.846334 -1.148451 -11.975096 -1.154889 C -10.423523 -0.691348 -9.380556 0.293675 -9.380556 1.491155 C -9.380556 2.740139 -10.391332 3.63503 -12.535207 4.259522 L -14.968795 4.987023 C -16.198465 5.347555 -16.797205 5.791781 -16.797205 6.32614 C -16.797205 7.092269 -15.709172 7.729638 -14.408683 7.729638 C -12.644654 7.729638 -10.745426 6.686672 -10.275447 5.444125 C -10.166 5.180165 -10.056553 5.083594 -9.850535 5.083594 C -9.676707 5.083594 -9.560822 5.180165 -9.560822 5.347555 C -9.560822 5.405497 -9.560822 5.457002 -9.586574 5.502068 C -9.805469 6.590101 -9.850535 6.796119 -9.850535 7.18884 L -9.850535 7.32404 C -9.831221 7.478553 -9.831221 7.607314 -9.831221 7.633067 C -9.831221 7.742514 -9.921354 7.826209 -10.095181 7.826209 C -10.166 7.826209 -10.275447 7.800456 -10.36558 7.761828 C -10.700359 7.620191 -10.700359 7.620191 -10.880625 7.620191 C -11.105957 7.620191 -11.170338 7.633067 -11.820582 7.826209 C -12.62534 8.064417 -13.449412 8.193178 -14.299236 8.193178 C -15.406583 8.193178 -16.372292 7.942094 -17.086917 7.52362 C -17.885237 7.053641 -18.361654 6.364768 -18.361654 5.572887 C -18.361654 5.308926 -18.316587 5.077156 -18.226454 4.858262 C -18.226454 4.851824 -18.226454 4.851824 -18.226454 4.851824 C -17.94318 4.188703 -17.215679 3.699411 -15.973133 3.300251 L -12.709035 2.270161 C -11.414984 1.858125 -10.93213 1.484717 -10.887063 0.860225 L -10.887063 0.673521 C -10.96432 -0.195617 -12.22618 -0.923118 -13.648992 -0.923118 C -15.393707 -0.923118 -17.556896 0.383808 -18.00756 1.722925 C -18.097693 1.948257 -18.20714 2.031952 -18.40672 2.031952 C -18.612738 2.031952 -18.741499 1.903191 -18.741499 1.697173 C -18.741499 1.491155 -18.677119 1.304451 -18.387406 0.551198 C -18.232893 0.17779 -18.162074 -0.00247547 -18.117007 -0.214932 L -17.981808 -0.742853 C -16.868023 -1.161327 -15.322888 -1.438163 -14.009523 -1.438163 C -13.700496 -1.438163 -13.404346 -1.418849 -13.121071 -1.386659 C -13.475164 -1.502544 -13.816382 -1.657058 -14.125409 -1.850199 C -14.582511 -2.127036 -14.923728 -2.468253 -14.923728 -2.616329 C -14.923728 -2.687148 -14.840034 -2.757966 -14.71771 -2.757966 C -14.65333 -2.757966 -14.582511 -2.732214 -14.479502 -2.654957 C -13.85501 -2.184979 -13.243394 -1.978961 -12.464388 -1.978961 C -11.511555 -1.978961 -10.816244 -2.429625 -10.816244 -3.047679 C -10.816244 -3.318078 -10.919253 -3.524096 -11.189652 -3.813809 C -11.460051 -4.109959 -11.646755 -4.245159 -12.869986 -4.946908 C -15.091118 -6.23452 -15.110432 -6.247396 -15.110432 -6.363281 C -15.110432 -6.459852 -15.026737 -6.504919 -14.891538 -6.504919 C -14.820719 -6.504919 -14.704834 -6.504919 -14.582511 -6.492043 C -14.228418 -6.46629 -13.85501 -6.459852 -13.462288 -6.459852 C -13.140385 -6.459852 -12.631778 -6.46629 -11.975096 -6.492043 C -11.189652 -6.517795 -10.803368 -6.524233 -9.818345 -6.524233 C -9.509318 -6.524233 -9.444937 -6.517795 -9.393433 -6.479166 C -9.309738 -6.4341 -9.206729 -6.292463 -8.833321 -5.738789 L -8.427723 -5.120735 C -8.350466 -5.00485 -8.298962 -4.921155 -8.266772 -4.863213 C -7.790355 -5.37182 -7.024226 -5.680847 -6.103583 -5.680847 C -5.369643 -5.680847 -4.828846 -5.539209 -3.979022 -5.140049 C -3.830947 -5.069231 -3.740814 -5.049917 -3.676433 -5.049917 C -3.612052 -5.049917 -3.560548 -5.094983 -3.560548 -5.165802 C -3.560548 -5.410448 -3.895327 -6.00275 -4.268735 -6.408348 C -5.067055 -7.271048 -6.219468 -7.805407 -7.828983 -8.06293 C -8.086506 -8.107996 -8.189515 -8.153063 -8.189515 -8.26251 C -8.189515 -8.365519 -8.067192 -8.436337 -7.867612 -8.436337 C -6.901902 -8.436337 -5.305263 -8.030739 -4.204354 -7.489942 C -2.472515 -6.652994 -1.423111 -5.294563 -1.423111 -3.884627 C -1.423111 -3.092746 -1.745014 -2.358806 -2.350192 -1.792257 C -2.569086 -1.592677 -2.813733 -1.425287 -3.084131 -1.290088 C -2.890989 -1.296526 -2.691409 -1.302964 -2.504706 -1.302964 C -0.933818 -1.302964 0.295852 -1.122698 1.177866 -0.768605 C 2.349594 -0.292188 3.077095 0.589826 3.077095 1.549098 C 3.077095 2.450426 2.459041 3.113547 1.248685 3.454764 Z M -9.258233 7.839085 C -9.180977 7.839085 -9.457813 7.858399 -9.258233 7.839085 Z M -9.258233 7.839085 " transform="matrix(0.606743,0,0,-0.606743,23.031432,14.928186)"/>
<path style=" stroke:none;fill-rule:nonzero;fill:rgb(100%,100%,100%);fill-opacity:1;" d="M 23.046875 14.792969 C 22.890625 14.941406 22.679688 15.0625 22.425781 15.144531 C 22.128906 15.253906 21.808594 15.292969 21.355469 15.292969 C 19.976562 15.292969 19.5625 15.078125 19.5625 14.371094 L 19.5625 13.140625 C 19.5625 12.84375 19.75 12.773438 20.445312 12.773438 C 21.589844 12.773438 22.394531 12.914062 22.871094 13.199219 C 23.3125 13.527344 23.378906 13.882812 23.386719 13.988281 C 23.386719 14 23.386719 14.011719 23.386719 14.027344 C 23.386719 14.34375 23.230469 14.601562 23.046875 14.792969 M 21.21875 16.964844 C 21.21875 17.507812 20.773438 17.863281 20.097656 17.863281 C 19.335938 17.863281 18.738281 17.289062 18.738281 16.550781 C 18.738281 15.957031 19.148438 15.546875 19.757812 15.546875 C 20.539062 15.546875 21.21875 16.210938 21.21875 16.964844 M 19.601562 10.777344 C 19.601562 10.457031 19.9375 10.292969 20.605469 10.292969 C 21.902344 10.292969 22.855469 10.867188 22.855469 11.644531 C 22.855469 12.144531 22.371094 12.449219 21.59375 12.449219 L 20.484375 12.449219 C 19.894531 12.449219 19.601562 12.285156 19.601562 11.957031 Z M 16.273438 13.691406 L 16.273438 13.691406 M 12.402344 12.15625 L 12.746094 12.410156 C 12.613281 12.335938 12.5 12.25 12.402344 12.15625 M 23.804688 12.699219 C 23.496094 12.597656 23.253906 12.558594 22.71875 12.476562 C 23.710938 12.269531 24.21875 11.890625 24.21875 11.363281 C 24.21875 10.851562 23.722656 10.414062 22.894531 10.191406 C 22.410156 10.070312 21.742188 10.003906 20.941406 10.003906 C 20.683594 10.003906 20.472656 10.011719 20.285156 10.019531 C 19.027344 10.085938 19.027344 10.085938 18.449219 10.085938 C 18.128906 10.085938 17.875 10.078125 17.753906 10.070312 C 17.574219 10.054688 17.476562 10.042969 17.429688 10.039062 C 17.425781 10.039062 17.417969 10.039062 17.410156 10.039062 C 17.199219 10.039062 17.144531 10.121094 17.144531 10.210938 C 17.144531 10.300781 17.125 10.328125 17.40625 10.363281 C 17.636719 10.378906 17.796875 10.410156 17.90625 10.457031 L 18.046875 10.554688 L 18.140625 12.839844 L 18.140625 14.460938 C 18.140625 14.921875 17.980469 15.152344 17.566406 15.277344 C 17.21875 15.382812 17.179688 15.398438 17.179688 15.472656 C 17.179688 15.546875 17.257812 15.589844 17.390625 15.589844 C 17.460938 15.589844 17.460938 15.589844 17.726562 15.566406 C 18.007812 15.546875 18.410156 15.53125 18.902344 15.527344 C 18.664062 15.613281 18.460938 15.734375 18.285156 15.886719 C 17.964844 16.175781 17.78125 16.554688 17.78125 16.953125 C 17.78125 17.191406 17.847656 17.40625 17.964844 17.59375 C 17.945312 17.601562 17.921875 17.617188 17.894531 17.644531 C 17.667969 17.855469 17.554688 17.933594 17.367188 18.003906 C 17.132812 18.089844 16.710938 18.144531 16.308594 18.144531 C 15.867188 18.144531 15.445312 18.082031 15.445312 18.019531 C 15.445312 17.992188 15.464844 17.976562 15.84375 17.769531 C 17.378906 16.9375 17.585938 16.78125 17.585938 16.402344 C 17.585938 15.894531 16.9375 15.503906 16.09375 15.503906 C 15.90625 15.503906 15.722656 15.523438 15.539062 15.558594 C 16.617188 15.3125 17.355469 14.671875 17.355469 13.890625 C 17.355469 13.128906 16.746094 12.589844 15.441406 12.207031 L 13.964844 11.769531 C 13.21875 11.546875 12.855469 11.277344 12.855469 10.957031 C 12.855469 10.492188 13.519531 10.101562 14.304688 10.101562 C 15.375 10.101562 16.527344 10.738281 16.8125 11.488281 C 16.878906 11.648438 16.949219 11.707031 17.070312 11.707031 C 17.179688 11.707031 17.246094 11.648438 17.246094 11.546875 C 17.246094 11.515625 17.246094 11.480469 17.234375 11.453125 C 17.097656 10.796875 17.070312 10.667969 17.070312 10.433594 L 17.070312 10.347656 C 17.082031 10.253906 17.082031 10.179688 17.082031 10.160156 C 17.082031 10.09375 17.027344 10.042969 16.921875 10.042969 C 16.878906 10.042969 16.8125 10.058594 16.757812 10.085938 C 16.554688 10.171875 16.554688 10.171875 16.445312 10.171875 C 16.3125 10.171875 16.269531 10.160156 15.878906 10.042969 C 15.390625 9.898438 14.886719 9.824219 14.371094 9.824219 C 13.703125 9.824219 13.113281 9.972656 12.679688 10.230469 C 12.195312 10.515625 11.90625 10.929688 11.90625 11.414062 C 11.90625 11.570312 11.933594 11.714844 11.988281 11.847656 L 11.992188 11.847656 C 12.164062 12.25 12.601562 12.550781 13.355469 12.792969 L 15.335938 13.417969 C 16.121094 13.664062 16.417969 13.890625 16.445312 14.269531 L 16.445312 14.382812 C 16.394531 14.910156 15.628906 15.351562 14.765625 15.351562 C 13.707031 15.351562 12.394531 14.558594 12.121094 13.746094 C 12.066406 13.613281 12 13.558594 11.878906 13.558594 C 11.757812 13.558594 11.675781 13.636719 11.675781 13.761719 C 11.675781 13.890625 11.714844 14 11.890625 14.457031 C 11.988281 14.683594 12.027344 14.796875 12.054688 14.921875 L 12.136719 15.242188 C 12.8125 15.496094 13.75 15.664062 14.546875 15.664062 C 14.851562 15.664062 15.140625 15.636719 15.414062 15.585938 C 15.101562 15.65625 14.804688 15.773438 14.546875 15.933594 C 14.269531 16.105469 14.066406 16.308594 14.066406 16.402344 C 14.066406 16.445312 14.117188 16.484375 14.1875 16.484375 C 14.230469 16.484375 14.269531 16.472656 14.332031 16.421875 C 14.710938 16.140625 15.082031 16.011719 15.558594 16.011719 C 16.132812 16.011719 16.554688 16.289062 16.554688 16.664062 C 16.554688 16.824219 16.492188 16.953125 16.328125 17.128906 C 16.164062 17.304688 16.050781 17.390625 15.308594 17.8125 C 13.960938 18.597656 13.953125 18.605469 13.953125 18.675781 C 13.953125 18.730469 14.003906 18.757812 14.085938 18.757812 C 14.125 18.757812 14.199219 18.757812 14.269531 18.753906 C 14.488281 18.738281 14.710938 18.730469 14.949219 18.730469 C 15.144531 18.730469 15.453125 18.738281 15.855469 18.753906 C 16.328125 18.765625 16.566406 18.773438 17.164062 18.773438 C 17.347656 18.773438 17.390625 18.765625 17.421875 18.746094 C 17.472656 18.71875 17.535156 18.632812 17.761719 18.292969 L 18.007812 17.917969 C 18.050781 17.847656 18.082031 17.800781 18.105469 17.765625 C 18.394531 18.074219 18.855469 18.257812 19.417969 18.257812 C 19.859375 18.257812 20.1875 18.171875 20.703125 17.933594 C 20.796875 17.890625 20.847656 17.875 20.890625 17.875 C 20.929688 17.875 20.960938 17.90625 20.960938 17.945312 C 20.960938 18.097656 20.753906 18.457031 20.527344 18.703125 C 20.042969 19.226562 19.34375 19.550781 18.367188 19.707031 C 18.210938 19.734375 18.152344 19.761719 18.152344 19.828125 C 18.152344 19.890625 18.222656 19.933594 18.347656 19.933594 C 18.933594 19.933594 19.902344 19.683594 20.570312 19.359375 C 21.621094 18.851562 22.257812 18.027344 22.257812 17.171875 C 22.257812 16.691406 22.0625 16.246094 21.691406 15.898438 C 21.546875 15.769531 21.386719 15.664062 21.203125 15.578125 C 21.316406 15.578125 21.421875 15.582031 21.527344 15.582031 C 22.480469 15.582031 23.226562 15.472656 23.765625 15.261719 C 24.472656 14.972656 24.914062 14.4375 24.914062 13.851562 C 24.914062 13.308594 24.539062 12.902344 23.804688 12.699219 M 17.429688 10.039062 C 17.476562 10.035156 17.308594 10.027344 17.429688 10.039062 "/>
<path style=" stroke:none;fill-rule:nonzero;fill:rgb(100%,100%,100%);fill-opacity:1;" d="M 13.503906 12.308594 L 12.777344 12.484375 L 12.378906 12.074219 L 12.777344 11.894531 Z M 13.503906 12.308594 "/>
</g>
</svg>
