<?xml version="1.0" encoding="UTF-8"?>
<svg xmlns="http://www.w3.org/2000/svg" xmlns:xlink="http://www.w3.org/1999/xlink" width="33pt" height="25pt" viewBox="0 0 33 25" version="1.1">
<g id="surface1">
<path style=" stroke:none;fill-rule:nonzero;fill:rgb(0%,0%,0%);fill-opacity:1;" d="M 7.277344 18.515625 L 6.6875 18.8125 C 6.65625 18.6875 6.621094 18.570312 6.578125 18.480469 C 6.539062 18.402344 6.484375 18.328125 6.429688 18.28125 C 6.386719 18.246094 6.347656 18.226562 6.308594 18.222656 C 6.28125 18.214844 6.25 18.226562 6.226562 18.257812 C 6.183594 18.300781 6.207031 18.382812 6.308594 18.511719 C 6.332031 18.554688 6.363281 18.582031 6.375 18.609375 C 6.472656 18.746094 6.527344 18.878906 6.527344 19.011719 C 6.519531 19.144531 6.472656 19.273438 6.371094 19.386719 C 6.21875 19.5625 6.027344 19.652344 5.808594 19.652344 C 5.585938 19.652344 5.375 19.570312 5.167969 19.382812 C 5.078125 19.304688 4.988281 19.210938 4.921875 19.105469 C 4.851562 19.007812 4.789062 18.878906 4.75 18.753906 L 5.300781 18.476562 C 5.316406 18.570312 5.347656 18.648438 5.382812 18.71875 C 5.425781 18.796875 5.464844 18.855469 5.519531 18.90625 C 5.5625 18.933594 5.597656 18.957031 5.632812 18.964844 C 5.671875 18.96875 5.699219 18.964844 5.722656 18.933594 C 5.757812 18.886719 5.71875 18.777344 5.582031 18.597656 C 5.5625 18.566406 5.542969 18.542969 5.53125 18.53125 C 5.4375 18.410156 5.394531 18.269531 5.402344 18.136719 C 5.402344 18.003906 5.449219 17.875 5.550781 17.761719 C 5.707031 17.582031 5.902344 17.488281 6.128906 17.488281 C 6.363281 17.488281 6.585938 17.582031 6.792969 17.761719 C 6.902344 17.859375 6.992188 17.96875 7.082031 18.09375 C 7.152344 18.214844 7.21875 18.359375 7.277344 18.515625 "/>
<path style=" stroke:none;fill-rule:nonzero;fill:rgb(0%,0%,0%);fill-opacity:1;" d="M 5.753906 16.765625 L 4.605469 17.671875 L 4.875 18.023438 L 4.3125 18.464844 L 3.296875 17.152344 L 3.855469 16.703125 L 4.125 17.054688 L 5.273438 16.148438 L 5.753906 16.765625 "/>
<path style=" stroke:none;fill-rule:nonzero;fill:rgb(0%,0%,0%);fill-opacity:1;" d="M 4.738281 15.230469 L 4.457031 15.285156 L 4.214844 14.734375 L 4.445312 14.558594 L 4.097656 13.785156 L 2.421875 15.375 L 2.78125 16.183594 L 5.078125 16.003906 Z M 3.210938 15.523438 L 3.207031 15.511719 C 3.257812 15.484375 3.804688 15.070312 3.804688 15.070312 L 3.933594 15.367188 C 3.933594 15.367188 3.265625 15.5 3.210938 15.523438 "/>
<path style=" stroke:none;fill-rule:nonzero;fill:rgb(0%,0%,0%);fill-opacity:1;" d="M 4.019531 13.125 C 4.007812 13.039062 3.988281 12.96875 3.976562 12.894531 C 3.945312 12.761719 3.921875 12.652344 3.894531 12.5625 C 3.84375 12.425781 3.792969 12.320312 3.726562 12.230469 C 3.601562 12.066406 3.4375 11.945312 3.265625 11.875 C 3.085938 11.800781 2.894531 11.785156 2.695312 11.820312 C 2.488281 11.855469 2.3125 11.941406 2.164062 12.066406 C 2.027344 12.199219 1.917969 12.363281 1.859375 12.5625 C 1.828125 12.652344 1.816406 12.761719 1.8125 12.894531 C 1.8125 12.90625 1.8125 12.925781 1.8125 12.9375 C 1.816406 13.078125 1.835938 13.253906 1.871094 13.445312 L 1.984375 14.082031 L 4.121094 13.699219 Z M 2.503906 13.191406 L 2.492188 13.15625 C 2.476562 13.058594 2.476562 12.96875 2.492188 12.894531 C 2.503906 12.855469 2.515625 12.8125 2.542969 12.78125 C 2.589844 12.691406 2.691406 12.636719 2.835938 12.613281 C 2.972656 12.585938 3.085938 12.613281 3.164062 12.679688 C 3.21875 12.726562 3.265625 12.800781 3.296875 12.894531 C 3.308594 12.9375 3.320312 12.992188 3.332031 13.046875 L 2.503906 13.191406 "/>
<path style=" stroke:none;fill-rule:nonzero;fill:rgb(0%,0%,0%);fill-opacity:1;" d="M 3.816406 11.332031 L 1.648438 11.179688 L 1.75 9.714844 L 2.332031 9.757812 L 2.289062 10.449219 L 2.5 10.464844 L 2.542969 9.835938 L 3.089844 9.875 L 3.050781 10.503906 L 3.28125 10.519531 L 3.332031 9.808594 L 3.917969 9.847656 L 3.816406 11.332031 "/>
<path style=" stroke:none;fill-rule:nonzero;fill:rgb(0%,0%,0%);fill-opacity:1;" d="M 4.257812 8.582031 L 2.273438 7.6875 L 2.589844 6.964844 L 3.929688 7.566406 L 4.238281 6.863281 L 4.886719 7.152344 L 4.257812 8.582031 "/>
<path style=" stroke:none;fill-rule:nonzero;fill:rgb(0%,0%,0%);fill-opacity:1;" d="M 4.1875 4.398438 L 3.648438 5.09375 L 4.878906 7.058594 L 5.402344 6.390625 L 5.222656 6.167969 L 5.585938 5.695312 L 5.84375 5.8125 L 6.363281 5.140625 Z M 5.09375 5.484375 L 4.898438 5.738281 C 4.898438 5.738281 4.46875 5.207031 4.425781 5.164062 L 4.433594 5.160156 C 4.480469 5.1875 5.011719 5.449219 5.011719 5.449219 L 5.09375 5.484375 "/>
<path style=" stroke:none;fill-rule:nonzero;fill:rgb(0%,0%,0%);fill-opacity:1;" d="M 6.8125 4.851562 L 4.820312 3.636719 L 5.492188 3.109375 L 6.15625 3.585938 C 6.246094 3.660156 6.332031 3.726562 6.386719 3.78125 C 6.453125 3.828125 6.507812 3.882812 6.554688 3.933594 L 6.566406 3.925781 C 6.53125 3.859375 6.488281 3.792969 6.453125 3.714844 C 6.417969 3.640625 6.382812 3.550781 6.347656 3.460938 L 6.046875 2.667969 L 6.703125 2.148438 L 7.386719 4.398438 L 6.8125 4.851562 "/>
<path style=" stroke:none;fill-rule:nonzero;fill:rgb(0%,0%,0%);fill-opacity:1;" d="M 8.429688 1.332031 L 7.625 1.695312 L 7.804688 4.015625 L 8.570312 3.671875 L 8.515625 3.386719 L 9.0625 3.144531 L 9.234375 3.375 L 10 3.023438 Z M 8.433594 2.863281 C 8.433594 2.863281 8.300781 2.183594 8.277344 2.128906 L 8.289062 2.125 C 8.320312 2.179688 8.726562 2.730469 8.726562 2.730469 L 8.433594 2.863281 "/>
<path style=" stroke:none;fill-rule:nonzero;fill:rgb(0%,0%,0%);fill-opacity:1;" d="M 10.078125 3.085938 L 9.703125 0.929688 L 10.472656 0.789062 L 10.730469 2.246094 L 11.480469 2.113281 L 11.605469 2.8125 L 10.078125 3.085938 "/>
<path style=" stroke:none;fill-rule:nonzero;fill:rgb(0%,0%,0%);fill-opacity:1;" d="M 11.8125 2.789062 L 11.890625 0.59375 L 12.675781 0.625 L 12.621094 2.105469 L 13.382812 2.128906 L 13.355469 2.84375 L 11.8125 2.789062 "/>
<path style=" stroke:none;fill-rule:nonzero;fill:rgb(0%,0%,0%);fill-opacity:1;" d="M 16.03125 1.960938 C 16.019531 1.808594 15.976562 1.664062 15.90625 1.53125 C 15.820312 1.40625 15.726562 1.285156 15.605469 1.195312 C 15.488281 1.097656 15.347656 1.03125 15.1875 0.988281 C 15.03125 0.941406 14.875 0.921875 14.726562 0.941406 C 14.570312 0.953125 14.429688 1 14.296875 1.066406 C 14.164062 1.144531 14.050781 1.234375 13.960938 1.355469 C 13.871094 1.472656 13.804688 1.609375 13.757812 1.769531 C 13.726562 1.875 13.714844 1.984375 13.710938 2.089844 C 13.710938 2.136719 13.710938 2.179688 13.714844 2.226562 C 13.726562 2.371094 13.777344 2.511719 13.855469 2.644531 C 13.929688 2.777344 14.027344 2.898438 14.148438 2.988281 C 14.265625 3.085938 14.402344 3.152344 14.558594 3.199219 C 14.714844 3.242188 14.863281 3.253906 15.019531 3.242188 C 15.175781 3.226562 15.320312 3.183594 15.449219 3.109375 C 15.582031 3.039062 15.695312 2.941406 15.785156 2.820312 C 15.882812 2.710938 15.953125 2.570312 15.996094 2.414062 C 16.023438 2.304688 16.042969 2.195312 16.042969 2.089844 C 16.042969 2.046875 16.035156 2.003906 16.03125 1.960938 Z M 15.222656 2.191406 C 15.1875 2.3125 15.132812 2.402344 15.042969 2.449219 C 14.964844 2.503906 14.871094 2.523438 14.761719 2.492188 C 14.65625 2.464844 14.582031 2.398438 14.535156 2.304688 C 14.503906 2.238281 14.492188 2.171875 14.503906 2.089844 C 14.503906 2.058594 14.511719 2.023438 14.523438 1.984375 C 14.554688 1.871094 14.621094 1.785156 14.703125 1.726562 C 14.785156 1.671875 14.882812 1.660156 14.992188 1.691406 C 15.097656 1.71875 15.175781 1.78125 15.21875 1.875 C 15.246094 1.9375 15.253906 2.007812 15.246094 2.089844 C 15.242188 2.125 15.234375 2.15625 15.222656 2.191406 "/>
<path style=" stroke:none;fill-rule:nonzero;fill:rgb(0%,0%,0%);fill-opacity:1;" d="M 15.933594 3.648438 L 16.921875 1.695312 L 17.628906 2.058594 L 16.648438 4.015625 L 15.933594 3.648438 "/>
<path style=" stroke:none;fill-rule:nonzero;fill:rgb(0%,0%,0%);fill-opacity:1;" d="M 16.917969 3.957031 L 17.492188 3.628906 C 17.527344 3.757812 17.570312 3.867188 17.617188 3.949219 C 17.664062 4.035156 17.71875 4.101562 17.777344 4.148438 C 17.820312 4.179688 17.863281 4.199219 17.898438 4.203125 C 17.925781 4.203125 17.957031 4.191406 17.980469 4.160156 C 18.015625 4.113281 17.988281 4.027344 17.886719 3.90625 C 17.855469 3.871094 17.824219 3.839844 17.8125 3.824219 C 17.710938 3.683594 17.652344 3.558594 17.640625 3.417969 C 17.640625 3.285156 17.683594 3.160156 17.777344 3.042969 C 17.921875 2.855469 18.101562 2.753906 18.328125 2.742188 C 18.550781 2.730469 18.757812 2.808594 18.980469 2.976562 C 19.070312 3.050781 19.164062 3.140625 19.238281 3.242188 C 19.316406 3.339844 19.382812 3.460938 19.433594 3.585938 L 18.898438 3.894531 C 18.871094 3.800781 18.835938 3.71875 18.796875 3.652344 C 18.753906 3.582031 18.710938 3.519531 18.652344 3.480469 C 18.609375 3.449219 18.566406 3.429688 18.53125 3.425781 C 18.5 3.417969 18.472656 3.429688 18.449219 3.453125 C 18.414062 3.503906 18.464844 3.613281 18.609375 3.792969 C 18.628906 3.8125 18.652344 3.835938 18.65625 3.851562 C 18.757812 3.96875 18.808594 4.101562 18.8125 4.234375 C 18.8125 4.367188 18.777344 4.5 18.679688 4.613281 C 18.539062 4.808594 18.347656 4.910156 18.113281 4.917969 C 17.886719 4.933594 17.660156 4.855469 17.4375 4.6875 C 17.324219 4.597656 17.226562 4.488281 17.136719 4.367188 C 17.054688 4.253906 16.980469 4.105469 16.917969 3.957031 "/>
<path style=" stroke:none;fill-rule:nonzero;fill:rgb(96.078431%,47.45098%,16.470588%);fill-opacity:1;" d="M 12.28125 3.308594 C 16.671875 3.308594 20.25 6.925781 20.25 11.359375 C 20.25 15.796875 16.671875 19.410156 12.28125 19.410156 C 7.890625 19.410156 4.3125 15.796875 4.3125 11.359375 C 4.3125 6.925781 7.890625 3.308594 12.28125 3.308594 "/>
<path style="fill:none;stroke-width:5.18307;stroke-linecap:butt;stroke-linejoin:miter;stroke:rgb(13.72549%,12.156863%,12.54902%);stroke-opacity:1;stroke-miterlimit:4;" d="M 864.172331 -638.513612 L 859.216596 -638.513612 C 834.196178 -638.513612 863.326229 -678.348638 798.53906 -678.348638 L 777.386533 -678.348638 L 777.386533 -506.567566 C 777.386533 -482.642626 808.45053 -498.672336 808.45053 -479.891258 L 808.45053 -474.508146 L 699.424361 -474.508146 L 699.424361 -479.891258 C 699.424361 -498.672336 729.642257 -482.642626 729.642257 -506.567566 L 729.642257 -662.199303 C 729.642257 -686.722367 699.424361 -670.333783 699.424361 -690.789607 L 699.424361 -697.010092 L 864.172331 -697.010092 Z M 864.172331 -638.513612 " transform="matrix(0.0323174,0,0,-0.0326542,-11.44339,-7.768126)"/>
<path style="fill:none;stroke-width:5.18307;stroke-linecap:butt;stroke-linejoin:miter;stroke:rgb(13.72549%,12.156863%,12.54902%);stroke-opacity:1;stroke-miterlimit:4;" d="M 578.069291 -561.594929 L 578.069291 -620.928781 L 595.112184 -620.928781 C 596.200029 -615.784919 597.167001 -613.751299 601.397507 -613.751299 C 608.166315 -613.751299 621.583061 -626.670767 647.812195 -626.670767 C 687.216331 -626.670767 725.774367 -594.730971 725.774367 -549.273585 C 725.774367 -468.287661 621.583061 -488.982735 621.583061 -441.252479 C 621.583061 -422.351776 634.637192 -412.183676 655.910591 -412.183676 C 687.216331 -411.585553 689.512891 -457.162564 709.698446 -457.162564 L 718.884686 -457.162564 L 718.884686 -402.733325 L 705.951427 -402.733325 C 705.226197 -405.006194 702.808766 -409.432308 699.424361 -409.432308 C 695.556471 -409.432308 691.325965 -405.006194 684.07367 -401.297828 C 677.063118 -398.426835 667.997749 -394.71847 647.812195 -394.71847 C 613.363793 -394.71847 580.124108 -420.318156 580.124108 -459.315809 C 580.124108 -538.98586 684.07367 -520.324407 684.07367 -572.121903 C 684.07367 -595.44872 667.997749 -607.650439 650.108755 -607.650439 C 598.013102 -607.650439 602.243608 -561.594929 589.189477 -561.594929 Z M 578.069291 -561.594929 " transform="matrix(0.0323174,0,0,-0.0326542,-11.44339,-7.768126)"/>
<path style=" stroke:none;fill-rule:nonzero;fill:rgb(100%,100%,100%);fill-opacity:1;" d="M 10.582031 21.980469 L 10.832031 21.96875 L 11.078125 21.933594 L 11.3125 21.871094 L 11.542969 21.789062 L 11.765625 21.671875 L 11.96875 21.550781 L 12.160156 21.414062 L 12.335938 21.242188 L 12.5 21.066406 L 12.640625 20.875 L 12.757812 20.667969 L 12.871094 20.445312 L 12.949219 20.214844 L 13.015625 19.972656 L 13.046875 19.726562 L 13.0625 19.472656 L 13.046875 19.210938 L 13.015625 18.964844 L 12.949219 18.730469 L 12.871094 18.492188 L 12.757812 18.277344 L 12.640625 18.070312 L 12.5 17.875 L 12.335938 17.695312 L 12.160156 17.53125 L 11.96875 17.386719 L 11.765625 17.265625 L 11.542969 17.15625 L 11.3125 17.074219 L 11.078125 17.011719 L 10.832031 16.96875 L 10.582031 16.957031 L 10.324219 16.96875 L 10.078125 17.011719 L 9.84375 17.074219 L 9.613281 17.15625 L 9.398438 17.265625 L 9.1875 17.386719 L 8.996094 17.53125 L 8.828125 17.695312 L 8.667969 17.875 L 8.523438 18.070312 L 8.398438 18.277344 L 8.296875 18.492188 L 8.207031 18.730469 L 8.152344 18.964844 L 8.109375 19.210938 L 8.097656 19.472656 L 8.109375 19.726562 L 8.152344 19.972656 L 8.207031 20.214844 L 8.296875 20.445312 L 8.398438 20.667969 L 8.523438 20.875 L 8.667969 21.066406 L 8.828125 21.242188 L 8.996094 21.414062 L 9.1875 21.550781 L 9.398438 21.671875 L 9.613281 21.789062 L 9.84375 21.871094 L 10.078125 21.933594 L 10.324219 21.96875 L 10.582031 21.980469 "/>
<path style="fill:none;stroke-width:1.47828;stroke-linecap:butt;stroke-linejoin:miter;stroke:rgb(13.72549%,12.156863%,12.54902%);stroke-opacity:1;stroke-miterlimit:4;" d="M 681.535367 -911.0187 L 689.271148 -910.659826 L 696.886058 -909.583204 L 704.138353 -907.669208 L 711.269777 -905.15709 L 718.159457 -901.568349 L 724.444779 -897.859983 L 730.367487 -893.673118 L 735.806708 -888.409631 L 740.883315 -883.02652 L 745.234692 -877.164909 L 748.860839 -870.8248 L 752.366115 -864.006192 L 754.783547 -856.948335 L 756.838364 -849.531603 L 757.805337 -841.995247 L 758.288823 -834.219641 L 757.805337 -826.204786 L 756.838364 -818.66843 L 754.783547 -811.490948 L 752.366115 -804.193841 L 748.860839 -797.614483 L 745.234692 -791.274373 L 740.883315 -785.293138 L 735.806708 -779.790402 L 730.367487 -774.766165 L 724.444779 -770.340051 L 718.159457 -766.631685 L 711.269777 -763.282193 L 704.138353 -760.770074 L 696.886058 -758.856079 L 689.271148 -757.540207 L 681.535367 -757.181333 L 673.557842 -757.540207 L 665.942933 -758.856079 L 658.690638 -760.770074 L 651.559214 -763.282193 L 644.911277 -766.631685 L 638.384211 -770.340051 L 632.461504 -774.766165 L 627.264026 -779.790402 L 622.308291 -785.293138 L 617.836042 -791.274373 L 613.968151 -797.614483 L 610.82549 -804.193841 L 608.045444 -811.490948 L 606.353242 -818.66843 L 605.023654 -826.204786 L 604.661039 -834.219641 L 605.023654 -841.995247 L 606.353242 -849.531603 L 608.045444 -856.948335 L 610.82549 -864.006192 L 613.968151 -870.8248 L 617.836042 -877.164909 L 622.308291 -883.02652 L 627.264026 -888.409631 L 632.461504 -893.673118 L 638.384211 -897.859983 L 644.911277 -901.568349 L 651.559214 -905.15709 L 658.690638 -907.669208 L 665.942933 -909.583204 L 673.557842 -910.659826 Z M 681.535367 -911.0187 " transform="matrix(0.0323174,0,0,-0.0326542,-11.44339,-7.768126)"/>
<path style=" stroke:none;fill-rule:nonzero;fill:rgb(13.72549%,12.156863%,12.54902%);fill-opacity:1;" d="M 10.121094 18.765625 L 11.097656 18.800781 L 11.363281 19.757812 L 10.574219 20.3125 L 9.785156 19.695312 L 10.121094 18.765625 "/>
<path style=" stroke:none;fill-rule:nonzero;fill:rgb(13.72549%,12.156863%,12.54902%);fill-opacity:1;" d="M 9.660156 17.144531 L 10.167969 17.40625 L 9.757812 18.144531 L 8.964844 18.34375 L 8.78125 17.75 L 8.828125 17.703125 L 8.871094 17.652344 L 8.917969 17.605469 L 8.972656 17.5625 L 9.019531 17.519531 L 9.078125 17.476562 L 9.128906 17.429688 L 9.1875 17.394531 L 9.234375 17.363281 L 9.296875 17.320312 L 9.355469 17.289062 L 9.410156 17.253906 L 9.476562 17.230469 L 9.535156 17.195312 L 9.59375 17.167969 L 9.660156 17.144531 "/>
<path style=" stroke:none;fill-rule:nonzero;fill:rgb(13.72549%,12.156863%,12.54902%);fill-opacity:1;" d="M 12.441406 17.804688 L 12.382812 18.355469 L 11.5625 18.144531 L 11.121094 17.515625 L 11.585938 17.179688 L 11.652344 17.210938 L 11.71875 17.234375 L 11.785156 17.273438 L 11.835938 17.300781 L 11.890625 17.332031 L 11.945312 17.367188 L 12.003906 17.398438 L 12.054688 17.441406 L 12.113281 17.484375 L 12.160156 17.527344 L 12.207031 17.5625 L 12.257812 17.609375 L 12.304688 17.652344 L 12.351562 17.703125 L 12.394531 17.75 L 12.441406 17.804688 "/>
<path style=" stroke:none;fill-rule:nonzero;fill:rgb(13.72549%,12.156863%,12.54902%);fill-opacity:1;" d="M 12.65625 20.839844 L 12.082031 20.949219 L 12.09375 20.046875 L 12.585938 19.507812 L 13.027344 19.902344 L 13 20.027344 L 12.96875 20.15625 L 12.933594 20.28125 L 12.882812 20.398438 L 12.84375 20.511719 L 12.777344 20.625 L 12.722656 20.734375 L 12.65625 20.839844 "/>
<path style=" stroke:none;fill-rule:nonzero;fill:rgb(13.72549%,12.156863%,12.54902%);fill-opacity:1;" d="M 10.191406 21.949219 L 9.886719 21.441406 L 10.640625 21.082031 L 11.394531 21.335938 L 11.226562 21.894531 L 11.070312 21.933594 L 11 21.949219 L 10.90625 21.957031 L 10.828125 21.96875 L 10.742188 21.976562 L 10.664062 21.980469 L 10.527344 21.980469 L 10.480469 21.976562 L 10.433594 21.976562 L 10.378906 21.96875 L 10.335938 21.96875 L 10.28125 21.960938 L 10.234375 21.949219 L 10.191406 21.949219 "/>
<path style=" stroke:none;fill-rule:nonzero;fill:rgb(13.72549%,12.156863%,12.54902%);fill-opacity:1;" d="M 8.128906 19.835938 L 8.546875 19.375 L 9.050781 19.96875 L 9.078125 20.808594 L 8.480469 20.808594 L 8.46875 20.789062 L 8.402344 20.679688 L 8.34375 20.574219 L 8.296875 20.453125 L 8.25 20.335938 L 8.207031 20.214844 L 8.171875 20.082031 L 8.140625 19.957031 L 8.128906 19.835938 "/>
<path style="fill:none;stroke-width:0.552749;stroke-linecap:butt;stroke-linejoin:miter;stroke:rgb(13.72549%,12.156863%,12.54902%);stroke-opacity:1;stroke-miterlimit:4;" d="M 631.494531 -799.648103 L 629.9232 -800.84435 L 627.989255 -803.117219 L 625.934438 -805.868587 L 624.000493 -809.576953 L 621.703933 -814.003067 L 620.011731 -819.027304 L 618.923886 -824.76929 L 618.561272 -831.229024 " transform="matrix(0.0323174,0,0,-0.0326542,-11.44339,-7.768126)"/>
<path style="fill:none;stroke-width:0.552749;stroke-linecap:butt;stroke-linejoin:miter;stroke:rgb(13.72549%,12.156863%,12.54902%);stroke-opacity:1;stroke-miterlimit:4;" d="M 655.910591 -793.547243 L 657.119307 -795.341613 L 658.690638 -797.973357 L 660.745454 -801.083599 L 662.6794 -804.433091 L 664.492474 -807.423708 L 665.942933 -810.175076 L 666.909905 -811.849822 L 667.27252 -812.56757 " transform="matrix(0.0323174,0,0,-0.0326542,-11.44339,-7.768126)"/>
<path style="fill:none;stroke-width:0.552749;stroke-linecap:butt;stroke-linejoin:miter;stroke:rgb(13.72549%,12.156863%,12.54902%);stroke-opacity:1;stroke-miterlimit:4;" d="M 711.874135 -793.547243 L 710.907162 -795.341613 L 709.335831 -798.092981 L 707.281014 -801.083599 L 704.984454 -804.433091 L 702.204408 -807.782582 L 700.149591 -810.653575 L 698.57826 -812.687195 L 697.490416 -813.644193 " transform="matrix(0.0323174,0,0,-0.0326542,-11.44339,-7.768126)"/>
<path style="fill:none;stroke-width:0.552749;stroke-linecap:butt;stroke-linejoin:miter;stroke:rgb(13.72549%,12.156863%,12.54902%);stroke-opacity:1;stroke-miterlimit:4;" d="M 656.877564 -841.038249 L 655.185362 -841.995247 L 652.647058 -843.311119 L 649.262654 -844.62699 L 645.636506 -845.823237 L 641.768616 -847.019484 L 638.384211 -848.335356 L 635.845908 -849.053104 L 634.153706 -849.411979 " transform="matrix(0.0323174,0,0,-0.0326542,-11.44339,-7.768126)"/>
<path style="fill:none;stroke-width:0.552749;stroke-linecap:butt;stroke-linejoin:miter;stroke:rgb(13.72549%,12.156863%,12.54902%);stroke-opacity:1;stroke-miterlimit:4;" d="M 705.709684 -842.952245 L 708.006244 -843.789618 L 710.544547 -844.746615 L 714.049823 -846.062487 L 717.796842 -847.378359 L 721.181247 -848.69423 L 724.323908 -849.890477 L 726.741339 -851.086724 L 728.31267 -851.804473 " transform="matrix(0.0323174,0,0,-0.0326542,-11.44339,-7.768126)"/>
<path style="fill:none;stroke-width:0.552749;stroke-linecap:butt;stroke-linejoin:miter;stroke:rgb(13.72549%,12.156863%,12.54902%);stroke-opacity:1;stroke-miterlimit:4;" d="M 681.293624 -859.938952 L 681.656238 -864.006192 L 682.260596 -871.662173 L 683.227569 -879.198529 L 683.348441 -883.505019 " transform="matrix(0.0323174,0,0,-0.0326542,-11.44339,-7.768126)"/>
<path style="fill:none;stroke-width:0.552749;stroke-linecap:butt;stroke-linejoin:miter;stroke:rgb(13.72549%,12.156863%,12.54902%);stroke-opacity:1;stroke-miterlimit:4;" d="M 634.999807 -875.131289 L 635.483293 -876.088287 L 636.329394 -877.164909 L 637.417239 -878.839655 L 640.439028 -881.830273 L 642.252102 -883.505019 L 644.065176 -884.940515 L 646.361736 -886.376011 L 648.17481 -887.931133 L 650.229627 -889.366629 L 652.284444 -891.041375 L 654.097517 -892.117997 L 655.789719 -893.074995 L 657.481922 -893.792743 L 658.690638 -894.390866 L 660.020225 -894.510491 " transform="matrix(0.0323174,0,0,-0.0326542,-11.44339,-7.768126)"/>
<path style="fill:none;stroke-width:0.552749;stroke-linecap:butt;stroke-linejoin:miter;stroke:rgb(13.72549%,12.156863%,12.54902%);stroke-opacity:1;stroke-miterlimit:4;" d="M 668.722979 -770.938174 L 669.689952 -770.938174 L 671.019539 -770.698925 L 672.228255 -770.5793 L 673.920457 -770.340051 L 675.733531 -770.220426 L 677.667476 -769.981176 L 679.722293 -769.741927 L 681.656238 -769.622302 L 683.952799 -769.622302 L 686.128487 -769.741927 L 688.304176 -769.981176 L 690.358993 -770.340051 L 692.776424 -770.938174 L 694.71037 -771.775547 L 696.523443 -772.971794 L 698.215646 -774.287666 " transform="matrix(0.0323174,0,0,-0.0326542,-11.44339,-7.768126)"/>
<path style="fill:none;stroke-width:0.552749;stroke-linecap:butt;stroke-linejoin:miter;stroke:rgb(13.72549%,12.156863%,12.54902%);stroke-opacity:1;stroke-miterlimit:4;" d="M 737.257167 -800.006977 L 738.707626 -802.160221 L 740.158085 -805.509713 L 741.245929 -809.935827 L 742.454645 -814.960064 L 743.179875 -820.343176 L 743.663361 -825.726288 L 743.905104 -830.750525 L 743.54249 -835.296264 " transform="matrix(0.0323174,0,0,-0.0326542,-11.44339,-7.768126)"/>
<path style="fill:none;stroke-width:0.552749;stroke-linecap:butt;stroke-linejoin:miter;stroke:rgb(13.72549%,12.156863%,12.54902%);stroke-opacity:1;stroke-miterlimit:4;" d="M 727.950055 -879.437779 L 726.136981 -880.9929 L 723.961293 -882.906895 L 721.302118 -884.940515 L 718.522072 -886.734886 L 715.258539 -888.648881 L 712.115878 -890.443251 L 709.094088 -891.759123 L 706.555785 -892.476871 " transform="matrix(0.0323174,0,0,-0.0326542,-11.44339,-7.768126)"/>
<path style=" stroke:none;fill-rule:nonzero;fill:rgb(96.078431%,47.45098%,16.470588%);fill-opacity:1;" d="M 22.726562 2.867188 C 22.804688 2.945312 22.707031 3.183594 22.671875 3.242188 C 23.011719 3.277344 22.820312 3.230469 23.101562 3.175781 C 23.269531 3.152344 23.144531 3.132812 23.382812 3.039062 C 23.4375 3.019531 23.800781 2.910156 23.855469 3.285156 L 23.378906 3.53125 C 23.710938 3.625 23.339844 3.617188 23.753906 3.617188 L 23.824219 3.558594 L 23.953125 3.59375 C 23.902344 3.816406 23.851562 3.824219 23.785156 3.867188 C 23.25 4.234375 23.957031 3.839844 24.035156 4.136719 L 23.898438 4.234375 L 23.550781 4.320312 C 23.527344 4.601562 23.59375 4.542969 23.59375 4.753906 C 23.59375 4.910156 23.558594 4.898438 23.15625 4.933594 C 23.15625 4.996094 23.167969 4.984375 23.179688 4.988281 C 23.457031 5.074219 23.414062 5.148438 23.570312 5.230469 L 23.167969 5.320312 C 23.148438 5.441406 23.203125 5.339844 23.292969 5.417969 C 23.675781 5.757812 23.394531 5.546875 23.4375 5.722656 L 23.125 5.710938 L 23.222656 5.757812 C 23.570312 5.957031 24.027344 5.855469 24.09375 5.921875 C 24.179688 6.003906 24.316406 5.828125 24.832031 6.101562 C 25.429688 6.410156 25.460938 6.46875 25.714844 6.710938 C 26.386719 7.335938 26.46875 7.59375 26.75 7.84375 C 26.964844 8.03125 26.757812 7.890625 26.996094 8.125 C 27.164062 8.289062 27.144531 8.277344 27.660156 8.285156 C 27.863281 8.289062 27.898438 8.378906 28.203125 8.902344 C 28.246094 8.953125 28.367188 9.191406 28.460938 9.226562 C 28.515625 9.246094 29 9.8125 29.058594 9.898438 C 29.222656 10.132812 29.042969 9.933594 29.238281 10.132812 C 29.570312 10.519531 29.8125 10.695312 30.183594 10.902344 C 30.183594 11.050781 30.269531 11.039062 30.449219 11.058594 C 30.800781 11.105469 30.53125 11.023438 30.789062 11.101562 C 30.789062 11.15625 30.84375 11.089844 30.878906 11.148438 C 31.34375 11.90625 31.261719 11.746094 31.53125 12.320312 C 31.355469 12.417969 31.375 12.417969 31.136719 12.429688 C 31.179688 12.601562 31.179688 12.582031 31.101562 12.757812 C 30.96875 12.746094 30.855469 12.738281 30.835938 12.707031 C 30.796875 12.625 30.65625 12.601562 30.640625 12.496094 C 30.621094 12.363281 30.359375 12.28125 30.375 12.175781 L 29.785156 12.097656 C 29.6875 12.078125 29.722656 12.019531 29.648438 11.976562 C 29.441406 11.875 29.324219 11.464844 29.101562 11.214844 C 28.941406 11.027344 28.953125 11.144531 28.4375 10.878906 C 28.019531 10.652344 27.695312 10.316406 27.582031 10.222656 C 27.421875 10.101562 27.199219 9.765625 26.953125 9.601562 C 26.554688 9.324219 26.773438 9.171875 26.417969 9.3125 C 25.703125 9.566406 24.96875 9.4375 24.765625 9.378906 C 24.203125 9.203125 24.339844 9.226562 23.796875 9.558594 C 23.71875 9.613281 23.621094 9.675781 23.582031 9.777344 C 23.558594 9.84375 23.496094 10.152344 23.492188 10.464844 L 23.46875 10.972656 C 23.484375 11.785156 23.492188 11.679688 22.933594 12.078125 C 22.976562 12.414062 22.980469 12.351562 22.917969 12.636719 C 23.378906 12.636719 23.316406 12.679688 23.367188 12.734375 C 23.585938 12.9375 23.425781 12.769531 23.617188 12.746094 L 23.617188 12.695312 C 23.761719 12.695312 23.742188 12.695312 23.832031 12.847656 C 23.867188 12.914062 23.898438 12.835938 23.898438 12.949219 C 23.976562 12.960938 23.964844 12.949219 23.964844 12.992188 C 24.285156 12.960938 24.328125 12.90625 24.375 13.148438 C 24.386719 13.222656 24.347656 13.246094 24.589844 13.378906 C 24.519531 13.574219 24.488281 13.6875 24.28125 13.6875 C 24.160156 13.6875 24.21875 13.710938 24.160156 13.734375 C 24.125 13.75 23.628906 13.917969 23.515625 14.007812 C 23.402344 14.09375 23.390625 14.015625 23.238281 14.085938 L 21.625 14.921875 C 21.273438 15.101562 21.460938 15.1875 21.308594 15.320312 C 21.171875 15.433594 21.21875 15.507812 21.0625 15.574219 C 20.90625 15.640625 20.625 16.019531 20.488281 16.136719 C 20.339844 16.261719 20.308594 16.152344 20.273438 16.09375 C 19.589844 16.472656 20.074219 16.246094 19.476562 16.613281 C 19.050781 16.886719 19.253906 16.824219 19.070312 16.921875 C 18.734375 17.089844 18.847656 17.574219 18.679688 17.859375 C 18.5 18.144531 18.796875 18.6875 18.375 18.863281 C 18.234375 18.933594 18.328125 18.941406 18.257812 18.957031 C 18.214844 18.96875 18.078125 19.117188 18.054688 19.175781 C 18.023438 19.273438 17.675781 19.460938 17.554688 19.660156 C 17.527344 19.714844 17.328125 19.839844 17.234375 20.015625 C 17.066406 20.332031 17.101562 20.300781 16.699219 20.664062 C 16.648438 20.71875 16.289062 21.226562 16.054688 21.417969 C 15.808594 21.613281 15.976562 21.703125 15.828125 21.84375 C 15.703125 21.957031 15.792969 21.882812 15.796875 21.960938 C 15.832031 22.277344 15.859375 22.324219 15.683594 22.265625 C 15.546875 22.222656 15.492188 22.210938 15.359375 22.269531 C 15.300781 22.308594 15.3125 22.320312 15.019531 22.351562 C 14.929688 22.363281 15.019531 22.269531 14.863281 22.257812 C 14.761719 22.402344 14.683594 22.230469 14.59375 22.289062 C 14.421875 22.378906 14.511719 22.300781 14.1875 22.265625 C 13.878906 22.230469 14.085938 22.433594 13.804688 22.265625 C 13.675781 22.199219 13.78125 22.289062 13.703125 22.296875 C 13.40625 22.300781 13.675781 22.253906 13.429688 22.34375 C 13.28125 22.390625 13.171875 22.175781 13.152344 22.132812 C 13.546875 21.605469 13.464844 21.648438 13.765625 21.382812 C 13.914062 21.25 13.902344 21.164062 14.199219 21.316406 L 14.339844 21.207031 C 14.402344 21.164062 14.296875 21.148438 14.457031 21.128906 C 14.605469 21.105469 14.523438 21.066406 14.710938 20.886719 L 15.164062 20.441406 C 15.253906 20.300781 15.179688 20.402344 15.410156 20.066406 C 15.691406 19.628906 15.578125 19.894531 15.808594 19.613281 C 16.191406 19 16.613281 18.34375 16.980469 17.941406 C 17.199219 17.75 16.957031 17.53125 17.417969 17.15625 C 17.382812 16.964844 17.316406 17.0625 17.316406 16.933594 C 17.316406 15.882812 17.4375 15.296875 17.875 13.3125 C 17.921875 13.078125 17.9375 13.058594 18.046875 12.855469 C 18.292969 12.40625 18.117188 12.859375 18.285156 12.363281 C 18.507812 11.6875 18.261719 12.054688 18.589844 11.542969 C 18.707031 11.359375 18.808594 11.519531 18.890625 11.324219 C 19.011719 11.023438 19.128906 11.257812 19.164062 11.082031 C 19.242188 10.742188 19.238281 10.785156 19.28125 10.695312 C 19.429688 10.355469 19.398438 10.71875 19.398438 10.242188 C 19.398438 10.175781 19.484375 10.21875 19.394531 10.152344 C 19.457031 9.957031 19.191406 9.621094 19.152344 9.558594 C 19.148438 9.546875 19.160156 9.542969 19.101562 9.542969 C 19.0625 9.214844 18.921875 9.269531 19.011719 8.9375 C 19.5 7.09375 19.292969 7.847656 19.636719 6.6875 C 19.664062 6.589844 19.578125 6.664062 19.664062 6.46875 C 19.726562 6.285156 19.644531 6.417969 20.148438 6.167969 L 20.546875 5.980469 L 20.464844 5.617188 L 20.242188 5.65625 C 20.238281 5.175781 20.433594 5.230469 20.109375 5.082031 C 19.984375 4.921875 20.058594 4.90625 20.035156 4.695312 C 20.0625 3.792969 20.0625 3.605469 20.207031 3.527344 C 20.847656 3.171875 20.636719 3.375 20.925781 3.210938 C 21.117188 3.105469 21.074219 3.195312 21.164062 3.128906 C 21.230469 3.078125 21.460938 3.042969 21.59375 3.074219 C 22.28125 3.230469 22.640625 2.785156 22.726562 2.867188 "/>
<path style=" stroke:none;fill-rule:nonzero;fill:rgb(0%,0%,0%);fill-opacity:1;" d="M 8.128906 22.097656 L 8.128906 24.40625 L 24.398438 24.40625 L 24.398438 22.097656 Z M 8.128906 22.097656 "/>
<path style=" stroke:none;fill-rule:nonzero;fill:rgb(100%,100%,100%);fill-opacity:1;" d="M 10.359375 23.886719 L 10.042969 23.886719 L 9.972656 23.335938 C 9.964844 23.296875 9.960938 23.25 9.953125 23.207031 C 9.953125 23.160156 9.949219 23.105469 9.941406 23.050781 C 9.933594 23.105469 9.917969 23.171875 9.894531 23.25 C 9.886719 23.269531 9.886719 23.28125 9.882812 23.292969 L 9.714844 23.886719 L 9.488281 23.886719 L 9.3125 23.292969 C 9.3125 23.28125 9.308594 23.269531 9.300781 23.25 C 9.277344 23.171875 9.265625 23.105469 9.257812 23.050781 C 9.253906 23.097656 9.246094 23.148438 9.246094 23.195312 C 9.242188 23.238281 9.234375 23.285156 9.230469 23.335938 L 9.152344 23.886719 L 8.835938 23.886719 L 9.03125 22.617188 L 9.367188 22.617188 L 9.558594 23.269531 C 9.558594 23.273438 9.566406 23.28125 9.566406 23.292969 C 9.582031 23.351562 9.59375 23.402344 9.601562 23.445312 C 9.601562 23.417969 9.605469 23.394531 9.613281 23.363281 C 9.617188 23.339844 9.628906 23.304688 9.636719 23.269531 L 9.828125 22.617188 L 10.167969 22.617188 L 10.359375 23.886719 "/>
<path style=" stroke:none;fill-rule:nonzero;fill:rgb(100%,100%,100%);fill-opacity:1;" d="M 11.539062 22.617188 L 11.109375 22.617188 L 10.675781 23.886719 L 11.019531 23.886719 L 11.082031 23.65625 L 11.570312 23.65625 L 11.632812 23.886719 L 11.976562 23.886719 Z M 11.15625 23.40625 C 11.15625 23.40625 11.316406 22.851562 11.324219 22.820312 C 11.335938 22.863281 11.496094 23.40625 11.496094 23.40625 L 11.15625 23.40625 "/>
<path style=" stroke:none;fill-rule:nonzero;fill:rgb(100%,100%,100%);fill-opacity:1;" d="M 12.53125 23.886719 L 12.53125 23.304688 L 12.089844 22.617188 L 12.484375 22.617188 L 12.652344 22.941406 C 12.652344 22.941406 12.65625 22.949219 12.65625 22.953125 C 12.675781 22.984375 12.6875 23.019531 12.691406 23.050781 C 12.699219 23.019531 12.710938 22.992188 12.730469 22.953125 C 12.734375 22.949219 12.734375 22.941406 12.742188 22.941406 L 12.910156 22.617188 L 13.296875 22.617188 L 12.859375 23.304688 L 12.859375 23.886719 L 12.53125 23.886719 "/>
<path style=" stroke:none;fill-rule:nonzero;fill:rgb(100%,100%,100%);fill-opacity:1;" d="M 13.632812 23.886719 L 13.632812 22.617188 L 14.402344 22.617188 L 14.402344 22.894531 L 13.96875 22.894531 L 13.96875 23.109375 L 14.378906 23.109375 L 14.378906 23.382812 L 13.96875 23.382812 L 13.96875 23.601562 L 14.402344 23.601562 L 14.402344 23.886719 L 13.632812 23.886719 "/>
<path style=" stroke:none;fill-rule:nonzero;fill:rgb(100%,100%,100%);fill-opacity:1;" d="M 14.90625 23.886719 L 14.90625 22.617188 L 15.242188 22.617188 L 15.714844 23.269531 C 15.71875 23.28125 15.738281 23.3125 15.761719 23.347656 C 15.78125 23.390625 15.804688 23.4375 15.828125 23.492188 C 15.820312 23.4375 15.816406 23.390625 15.816406 23.351562 C 15.808594 23.3125 15.808594 23.273438 15.808594 23.246094 L 15.808594 22.617188 L 16.140625 22.617188 L 16.140625 23.886719 L 15.808594 23.886719 L 15.332031 23.226562 C 15.324219 23.214844 15.308594 23.191406 15.289062 23.148438 C 15.265625 23.109375 15.242188 23.0625 15.21875 23.007812 C 15.230469 23.058594 15.230469 23.105469 15.234375 23.148438 C 15.234375 23.191406 15.242188 23.226562 15.242188 23.257812 L 15.242188 23.886719 L 14.90625 23.886719 "/>
<path style=" stroke:none;fill-rule:nonzero;fill:rgb(100%,100%,100%);fill-opacity:1;" d="M 16.683594 23.886719 L 16.683594 22.617188 L 17.019531 22.617188 L 17.492188 23.269531 C 17.496094 23.28125 17.515625 23.3125 17.539062 23.347656 C 17.554688 23.390625 17.582031 23.4375 17.605469 23.492188 C 17.597656 23.4375 17.59375 23.390625 17.59375 23.351562 C 17.585938 23.3125 17.585938 23.273438 17.585938 23.246094 L 17.585938 22.617188 L 17.914062 22.617188 L 17.914062 23.886719 L 17.585938 23.886719 L 17.109375 23.226562 C 17.101562 23.214844 17.085938 23.191406 17.066406 23.148438 C 17.042969 23.109375 17.019531 23.0625 16.996094 23.007812 C 17.007812 23.058594 17.007812 23.105469 17.011719 23.148438 C 17.011719 23.191406 17.019531 23.226562 17.019531 23.257812 L 17.019531 23.886719 L 16.683594 23.886719 "/>
<path style=" stroke:none;fill-rule:nonzero;fill:rgb(100%,100%,100%);fill-opacity:1;" d="M 18.460938 23.886719 L 18.460938 22.617188 L 19.230469 22.617188 L 19.230469 22.894531 L 18.796875 22.894531 L 18.796875 23.109375 L 19.207031 23.109375 L 19.207031 23.382812 L 18.796875 23.382812 L 18.796875 23.601562 L 19.230469 23.601562 L 19.230469 23.886719 L 18.460938 23.886719 "/>
<path style=" stroke:none;fill-rule:nonzero;fill:rgb(100%,100%,100%);fill-opacity:1;" d="M 20.273438 23.886719 L 20.273438 22.617188 L 21.042969 22.617188 L 21.042969 22.894531 L 20.609375 22.894531 L 20.609375 23.109375 L 21.019531 23.109375 L 21.019531 23.382812 L 20.609375 23.382812 L 20.609375 23.886719 L 20.273438 23.886719 "/>
<path style=" stroke:none;fill-rule:nonzero;fill:rgb(100%,100%,100%);fill-opacity:1;" d="M 21.195312 23.738281 C 21.195312 23.691406 21.210938 23.648438 21.242188 23.617188 C 21.277344 23.582031 21.320312 23.570312 21.367188 23.570312 C 21.414062 23.570312 21.457031 23.582031 21.492188 23.617188 C 21.523438 23.648438 21.539062 23.691406 21.539062 23.738281 C 21.539062 23.789062 21.523438 23.835938 21.492188 23.867188 C 21.457031 23.902344 21.414062 23.921875 21.367188 23.921875 C 21.320312 23.921875 21.277344 23.902344 21.242188 23.867188 C 21.210938 23.835938 21.195312 23.789062 21.195312 23.738281 "/>
<path style=" stroke:none;fill-rule:nonzero;fill:rgb(100%,100%,100%);fill-opacity:1;" d="M 22.964844 22.664062 L 22.964844 23.042969 C 22.917969 22.992188 22.867188 22.953125 22.820312 22.929688 C 22.777344 22.898438 22.726562 22.886719 22.671875 22.886719 C 22.574219 22.886719 22.492188 22.925781 22.433594 22.992188 C 22.371094 23.058594 22.34375 23.148438 22.34375 23.257812 C 22.34375 23.359375 22.371094 23.445312 22.433594 23.511719 C 22.496094 23.578125 22.574219 23.613281 22.671875 23.613281 C 22.726562 23.613281 22.773438 23.601562 22.820312 23.578125 C 22.867188 23.550781 22.917969 23.511719 22.964844 23.457031 L 22.964844 23.835938 C 22.910156 23.859375 22.851562 23.886719 22.804688 23.898438 C 22.75 23.910156 22.6875 23.914062 22.636719 23.914062 C 22.570312 23.914062 22.503906 23.910156 22.449219 23.890625 C 22.390625 23.878906 22.335938 23.847656 22.289062 23.820312 C 22.191406 23.75 22.121094 23.671875 22.074219 23.578125 C 22.023438 23.480469 21.996094 23.371094 21.996094 23.25 C 21.996094 23.152344 22.011719 23.0625 22.042969 22.984375 C 22.074219 22.90625 22.121094 22.832031 22.1875 22.765625 C 22.246094 22.707031 22.3125 22.65625 22.390625 22.628906 C 22.460938 22.597656 22.546875 22.585938 22.636719 22.585938 C 22.6875 22.585938 22.75 22.589844 22.804688 22.601562 C 22.851562 22.617188 22.910156 22.640625 22.964844 22.664062 "/>
<path style=" stroke:none;fill-rule:nonzero;fill:rgb(100%,100%,100%);fill-opacity:1;" d="M 23.402344 23.738281 C 23.402344 23.691406 23.417969 23.648438 23.449219 23.617188 C 23.484375 23.582031 23.527344 23.570312 23.574219 23.570312 C 23.621094 23.570312 23.664062 23.582031 23.699219 23.617188 C 23.730469 23.648438 23.75 23.691406 23.75 23.738281 C 23.75 23.789062 23.730469 23.835938 23.699219 23.867188 C 23.664062 23.902344 23.621094 23.921875 23.574219 23.921875 C 23.527344 23.921875 23.484375 23.902344 23.449219 23.867188 C 23.417969 23.835938 23.402344 23.789062 23.402344 23.738281 "/>
<path style=" stroke:none;fill-rule:nonzero;fill:rgb(13.72549%,12.156863%,12.54902%);fill-opacity:1;" d="M 22.511719 2.675781 C 22.585938 2.746094 22.492188 2.984375 22.457031 3.042969 C 22.796875 3.078125 22.605469 3.03125 22.886719 2.976562 C 23.054688 2.953125 22.929688 2.933594 23.167969 2.839844 C 23.222656 2.820312 23.585938 2.710938 23.640625 3.085938 L 23.160156 3.332031 C 23.496094 3.425781 23.125 3.417969 23.539062 3.417969 L 23.609375 3.359375 L 23.734375 3.394531 C 23.6875 3.617188 23.628906 3.625 23.570312 3.667969 C 23.035156 4.035156 23.742188 3.640625 23.820312 3.9375 L 23.683594 4.035156 L 23.335938 4.121094 C 23.3125 4.402344 23.378906 4.34375 23.378906 4.554688 C 23.378906 4.710938 23.339844 4.699219 22.941406 4.734375 C 22.941406 4.800781 22.953125 4.785156 22.964844 4.789062 C 23.238281 4.875 23.199219 4.949219 23.351562 5.03125 L 22.953125 5.121094 C 22.933594 5.242188 22.988281 5.140625 23.078125 5.21875 C 23.460938 5.558594 23.179688 5.347656 23.222656 5.523438 L 22.910156 5.507812 L 23.007812 5.558594 C 23.351562 5.757812 23.8125 5.660156 23.878906 5.722656 C 23.964844 5.804688 24.101562 5.628906 24.617188 5.902344 C 25.214844 6.210938 25.242188 6.269531 25.5 6.519531 C 26.171875 7.136719 26.253906 7.394531 26.535156 7.644531 C 26.75 7.832031 26.542969 7.691406 26.78125 7.925781 C 26.949219 8.089844 26.929688 8.078125 27.445312 8.085938 C 27.648438 8.089844 27.683594 8.179688 27.988281 8.699219 C 28.03125 8.753906 28.152344 8.992188 28.246094 9.027344 C 28.300781 9.046875 28.785156 9.613281 28.84375 9.703125 C 29.007812 9.933594 28.828125 9.734375 29.023438 9.933594 C 29.351562 10.320312 29.597656 10.496094 29.96875 10.703125 C 29.96875 10.851562 30.054688 10.839844 30.234375 10.859375 C 30.585938 10.90625 30.316406 10.824219 30.574219 10.902344 C 30.574219 10.957031 30.628906 10.890625 30.664062 10.949219 C 31.128906 11.707031 31.046875 11.546875 31.316406 12.121094 C 31.140625 12.21875 31.160156 12.21875 30.921875 12.230469 C 30.960938 12.398438 30.960938 12.382812 30.886719 12.558594 C 30.753906 12.546875 30.640625 12.539062 30.621094 12.507812 C 30.578125 12.425781 30.441406 12.398438 30.425781 12.296875 C 30.40625 12.164062 30.144531 12.078125 30.160156 11.976562 L 29.570312 11.898438 C 29.472656 11.878906 29.507812 11.820312 29.429688 11.777344 C 29.226562 11.675781 29.109375 11.265625 28.886719 11.015625 C 28.726562 10.828125 28.738281 10.945312 28.222656 10.675781 C 27.804688 10.453125 27.480469 10.117188 27.367188 10.023438 C 27.207031 9.902344 26.984375 9.566406 26.738281 9.402344 C 26.339844 9.125 26.558594 8.972656 26.199219 9.113281 C 25.488281 9.367188 24.753906 9.238281 24.550781 9.179688 C 23.988281 9.003906 24.125 9.027344 23.582031 9.359375 C 23.503906 9.414062 23.40625 9.476562 23.367188 9.578125 C 23.339844 9.644531 23.28125 9.953125 23.277344 10.265625 L 23.25 10.78125 C 23.269531 11.585938 23.277344 11.480469 22.71875 11.878906 C 22.761719 12.214844 22.765625 12.152344 22.703125 12.4375 C 23.160156 12.4375 23.101562 12.484375 23.148438 12.535156 C 23.371094 12.738281 23.203125 12.570312 23.402344 12.546875 L 23.402344 12.496094 C 23.542969 12.496094 23.527344 12.496094 23.617188 12.648438 C 23.652344 12.714844 23.683594 12.636719 23.683594 12.75 C 23.761719 12.761719 23.75 12.75 23.75 12.792969 C 24.070312 12.761719 24.113281 12.707031 24.160156 12.949219 C 24.171875 13.023438 24.132812 13.046875 24.375 13.179688 C 24.304688 13.375 24.273438 13.488281 24.066406 13.488281 C 23.945312 13.488281 24.003906 13.511719 23.945312 13.542969 C 23.910156 13.554688 23.414062 13.71875 23.300781 13.808594 C 23.1875 13.894531 23.175781 13.816406 23.023438 13.886719 L 21.410156 14.722656 C 21.054688 14.902344 21.246094 14.988281 21.09375 15.121094 C 20.953125 15.234375 21.003906 15.308594 20.847656 15.375 C 20.691406 15.441406 20.410156 15.820312 20.273438 15.9375 C 20.125 16.0625 20.09375 15.953125 20.058594 15.898438 C 19.375 16.273438 19.859375 16.046875 19.261719 16.414062 C 18.835938 16.6875 19.039062 16.625 18.855469 16.722656 C 18.519531 16.890625 18.632812 17.382812 18.464844 17.660156 C 18.285156 17.941406 18.578125 18.488281 18.160156 18.667969 C 18.015625 18.734375 18.113281 18.742188 18.042969 18.757812 C 18 18.769531 17.863281 18.917969 17.835938 18.976562 C 17.808594 19.074219 17.460938 19.261719 17.339844 19.460938 C 17.3125 19.519531 17.113281 19.640625 17.019531 19.816406 C 16.851562 20.132812 16.886719 20.101562 16.484375 20.464844 C 16.433594 20.519531 16.074219 21.027344 15.839844 21.226562 C 15.59375 21.414062 15.761719 21.503906 15.605469 21.648438 C 15.488281 21.757812 15.578125 21.683594 15.582031 21.761719 C 15.617188 22.082031 15.640625 22.125 15.46875 22.066406 C 15.332031 22.023438 15.277344 22.011719 15.144531 22.078125 C 15.085938 22.109375 15.097656 22.121094 14.804688 22.148438 C 14.714844 22.164062 14.804688 22.078125 14.648438 22.058594 C 14.546875 22.203125 14.46875 22.027344 14.378906 22.089844 C 14.207031 22.179688 14.296875 22.101562 13.972656 22.066406 C 13.664062 22.027344 13.871094 22.234375 13.589844 22.066406 C 13.457031 22 13.566406 22.089844 13.488281 22.097656 C 13.191406 22.101562 13.457031 22.054688 13.214844 22.144531 C 13.0625 22.191406 12.957031 21.976562 12.9375 21.933594 C 13.332031 21.40625 13.25 21.449219 13.546875 21.183594 C 13.699219 21.050781 13.6875 20.964844 13.984375 21.117188 L 14.121094 21.015625 C 14.1875 20.964844 14.082031 20.949219 14.242188 20.929688 C 14.390625 20.90625 14.308594 20.867188 14.492188 20.6875 L 14.949219 20.238281 C 15.039062 20.101562 14.964844 20.203125 15.1875 19.867188 C 15.476562 19.429688 15.359375 19.695312 15.59375 19.410156 C 15.976562 18.800781 16.394531 18.144531 16.765625 17.742188 C 16.980469 17.550781 16.742188 17.332031 17.203125 16.964844 C 17.167969 16.765625 17.101562 16.859375 17.101562 16.734375 C 17.101562 15.6875 17.222656 15.097656 17.660156 13.121094 C 17.707031 12.878906 17.71875 12.859375 17.832031 12.652344 C 18.078125 12.207031 17.902344 12.660156 18.070312 12.164062 C 18.292969 11.488281 18.046875 11.855469 18.375 11.34375 C 18.488281 11.160156 18.589844 11.320312 18.675781 11.125 C 18.796875 10.824219 18.914062 11.058594 18.949219 10.882812 C 19.027344 10.542969 19.023438 10.585938 19.0625 10.496094 C 19.214844 10.15625 19.183594 10.519531 19.183594 10.042969 C 19.183594 9.976562 19.265625 10.019531 19.179688 9.953125 C 19.242188 9.757812 18.972656 9.421875 18.9375 9.359375 C 18.933594 9.347656 18.945312 9.34375 18.882812 9.34375 C 18.847656 9.015625 18.707031 9.074219 18.796875 8.738281 C 19.285156 6.894531 19.074219 7.648438 19.421875 6.488281 C 19.445312 6.390625 19.363281 6.464844 19.445312 6.269531 C 19.511719 6.089844 19.429688 6.214844 19.929688 5.96875 L 20.332031 5.78125 L 20.25 5.417969 L 20.027344 5.457031 C 20.019531 4.976562 20.21875 5.03125 19.894531 4.878906 C 19.769531 4.722656 19.839844 4.707031 19.816406 4.492188 C 19.847656 3.59375 19.847656 3.40625 19.992188 3.328125 C 20.632812 2.972656 20.421875 3.175781 20.710938 3.011719 C 20.902344 2.90625 20.859375 2.996094 20.949219 2.929688 C 21.015625 2.886719 21.246094 2.84375 21.378906 2.875 C 22.066406 3.03125 22.425781 2.585938 22.511719 2.675781 "/>
</g>
</svg>
