<?xml version="1.0" encoding="UTF-8"?>
<!-- Generator: Adobe Illustrator 13.0.0, SVG Export Plug-In . SVG Version: 6.00 Build 14948)  -->
<!DOCTYPE svg PUBLIC "-//W3C//DTD SVG 1.1 Tiny//EN" "http://www.w3.org/Graphics/SVG/1.1/DTD/svg11-tiny.dtd">
<svg version="1.1" baseProfile="tiny" id="Ebene_1" xmlns="http://www.w3.org/2000/svg" xmlns:xlink="http://www.w3.org/1999/xlink" x="0px" y="0px" width="566.845px" height="553.824px" viewBox="0 0 566.845 553.824" xml:space="preserve">
<path fill="#FFFFFF" d="M288.247,553.824h-9.648c-4.032-12.168-13.32-15.768-25.056-18.072c-14.832-3.024-30.096-3.456-45.432-3.96  c-25.056-0.792-48.456-3.816-73.008-8.64c-51.768-10.296-103.392-30.456-124.992-83.16c-13.752-33.408-12.024-70.2-3.456-104.688  c5.184-21.096,13.536-40.104,21.744-60.12c9.072-22.176,14.328-45.432,12.96-69.552c-1.008-18.72-5.832-35.064-13.896-51.84V21.024  c30.672-0.072,61.344-0.504,92.016-1.872c41.688-1.8,83.448-4.464,124.632-11.088c13.248-2.16,26.208-5.976,39.312-8.064  c13.104,2.088,26.064,5.904,39.312,8.064c41.184,6.624,82.944,9.288,124.632,11.088c30.672,1.368,61.344,1.8,92.016,1.872v132.768  c-8.064,16.776-12.888,33.12-13.896,51.84c-1.368,24.12,3.888,47.376,12.96,69.552c8.208,20.016,16.56,39.024,21.744,60.12  c8.568,34.488,10.296,71.28-3.456,104.688c-21.6,52.704-73.224,72.864-124.992,83.16c-24.552,4.824-47.952,7.848-73.008,8.64  c-15.336,0.504-30.6,0.936-45.432,3.96C301.567,538.056,292.279,541.656,288.247,553.824z"/>
<path d="M284.791,549.072c3.744-11.16,17.136-15.912,27.576-18c28.728-5.76,58.392-2.376,87.264-7.128  c20.592-3.312,41.904-6.912,62.28-12.96c39.744-11.808,74.16-33.12,90.504-72.792c13.32-32.472,11.52-68.256,3.24-101.736  c-3.6-14.4-8.64-29.448-15.192-45.072l-0.072-0.072c-4.464-9.504-8.568-19.152-11.808-29.016  c-11.88-36.432-11.232-75.168,6.048-109.584V25.704c-29.16,0-58.32-0.504-87.48-1.8c-41.688-1.8-83.952-4.464-125.208-11.16  c-13.032-2.16-25.632-5.4-38.52-7.992c-12.888,2.592-25.488,5.832-38.52,7.992c-41.256,6.696-83.52,9.36-125.208,11.16  c-29.16,1.296-58.32,1.8-87.48,1.8v127.008c17.28,34.416,17.928,73.152,6.048,109.584c-3.24,9.864-7.344,19.512-11.808,29.016  l-0.072,0.072c-6.552,15.624-11.592,30.672-15.192,45.072c-8.28,33.48-10.08,69.264,3.24,101.736  c16.344,39.672,50.76,60.984,90.504,72.792c20.376,6.048,41.688,9.648,62.28,12.96c28.872,4.752,58.536,1.368,87.264,7.128  c10.44,2.088,23.832,6.84,27.576,18H284.791z"/>
<path fill="#E2001A" d="M283.423,8.064c5.76,1.368,11.664,2.664,17.568,3.888v271.224h232.416c1.368,3.168,2.808,6.336,4.248,9.432  v-0.072c6.336,15.048,11.232,29.52,14.688,43.344h-62.496v161.28c-9.072,4.392-18.792,7.92-28.8,10.944  c-2.088,0.576-4.248,1.224-6.336,1.8V335.88h-67.464v186.624c-11.664,1.152-23.4,1.368-35.136,1.728V335.88h-51.12v195.264  c-7.128,2.664-14.04,6.84-17.568,13.032c-3.528-6.192-10.44-10.368-17.568-13.032V335.88h-51.048v188.424  c-11.808-0.432-23.544-0.648-35.208-1.8V335.88h-67.464v174.024c-2.088-0.576-4.248-1.224-6.336-1.8  c-10.008-3.024-19.728-6.552-28.8-10.944V335.88H14.503c3.456-13.824,8.352-28.296,14.688-43.344v0.072  c1.44-3.096,2.88-6.264,4.248-9.432h232.416V11.952C271.759,10.728,277.663,9.432,283.423,8.064z"/>
<path fill="#FFFFFF" d="M33.439,283.176c2.88-6.48,5.472-13.176,7.704-19.944c11.952-36.648,11.592-76.536-5.904-111.24V28.728  c28.152-0.072,56.376-0.576,84.6-1.8c41.76-1.8,84.168-4.536,125.568-11.232c6.84-1.152,13.68-2.376,20.448-3.744v271.224H33.439z"/>
<path fill="#FFFFFF" d="M76.999,497.16c-26.28-12.528-47.952-31.32-59.76-60.12c-13.104-31.824-11.232-67.104-3.096-99.864  c0.144-0.432,0.216-0.864,0.36-1.296h62.496V497.16z"/>
<path fill="#FFFFFF" d="M179.599,522.504c-3.96-0.36-7.92-0.864-11.88-1.512c-18.36-3.024-37.296-6.192-55.584-11.088V335.88h67.464  V522.504z"/>
<path fill="#FFFFFF" d="M265.854,531.144c-3.672-1.368-7.416-2.376-10.8-3.024c-13.248-2.664-26.784-3.384-40.248-3.816V335.88  h51.048V531.144z"/>
<path fill="#FFFFFF" d="M352.111,524.232c-13.536,0.504-27.072,1.224-40.32,3.888c-3.384,0.648-7.128,1.656-10.8,3.024V335.88h51.12  V524.232z"/>
<path fill="#FFFFFF" d="M454.71,509.904c-18.288,4.896-37.224,8.064-55.584,11.088c-3.96,0.648-7.92,1.152-11.88,1.512V335.88  h67.464V509.904z"/>
<path fill="#FFFFFF" d="M552.343,335.88c0.144,0.432,0.216,0.864,0.36,1.296c8.136,32.76,10.008,68.04-3.096,99.864  c-11.808,28.8-33.48,47.592-59.76,60.12V335.88H552.343z"/>
<path fill="#FFFFFF" d="M300.991,11.952c6.768,1.368,13.608,2.592,20.448,3.744c41.4,6.696,83.808,9.432,125.568,11.232  c28.224,1.224,56.448,1.728,84.6,1.8v123.264c-17.496,34.704-17.856,74.592-5.904,111.24c2.232,6.768,4.824,13.464,7.704,19.944  H300.991V11.952z"/>
<path d="M71.958,112.032c0.504,3.744,2.592,3.24,1.584,6.696c-0.576,2.088-2.952,7.56-2.592,8.424  c1.008,2.736,1.728,11.304,1.728,11.304l-11.376,27.72c0,0-0.864,2.952,0.864,4.968c1.8,1.944,9.648,2.448,11.376,3.456  c1.8,1.008,2.664,0.504,0.936,2.448c-1.8,2.016-5.256,4.968-4.824,7.992c0.432,2.952,1.728,5.904,1.728,5.904  s-0.432,6.48,1.296,7.92c1.8,1.512,5.256,2.52,5.256,5.472c0,2.952-4.824,7.92-3.024,13.392c0,0,3.456,6.912,17.064,7.416  c0,0,11.376-3.456,16.632,1.008c5.256,4.464,1.944,0.792,7.416,8.928c5.76,8.424,13.608,8.424,14.472,9.936  c0.864,1.44,7.848,8.496,10.08,27.72c0.864,7.344,31.104-5.472,43.344-31.752c2.16-4.608,7.488-18.792,25.848-25.776  c0,0,3.96-0.432,1.728-2.952c-2.16-2.448-23.184-10.368-22.752-30.744c0.072-3.096,3.096-4.464,3.096-4.464s2.592-1.44,2.592-2.952  s-5.256-2.448-5.256-2.448s3.96-4.968,5.688-3.024c1.8,2.016,0-1.44,0-1.44l-3.024-4.464c0,0-1.368-2.952,0.864-2.016  c2.16,1.008,7.848,2.016,7.848,2.016l-0.432-3.96c0,0-3.96-0.504-3.024-7.416c0.864-6.984,3.888-3.024,4.824-1.008  c0.864,1.944-0.432,22.248,6.12,29.736c6.552,7.416,17.712,1.296,21.024,8.424c6.12,13.392-0.648,17.496-11.88,30.24  c-1.728,1.944,4.824,13.824,4.824,13.824s-21.888,21.816-24.48,22.32c-2.664,0.504,5.112,30.672,24.48,20.304  c8.352-4.392,2.664-18.288,20.592-38.16c0,0,5.256-10.368,4.392-16.344c-0.864-5.904,0.864-21.816,0-23.76  c-0.864-2.016-5.688-14.4-4.824-19.872c0.864-5.4-2.16-9.864-3.456-12.384c-1.368-2.448-5.256-3.96-9.648-4.464  c-4.392-0.432-13.608-1.944-14.472-5.4c-0.864-3.456-1.296-5.976,0-7.488c1.296-1.44,1.296-2.448,4.824-2.448  c3.528,0,18.864-0.504,24.048-15.336c5.328-14.904,0.504-40.176,18.432-69.912c1.8-2.952-3.096-8.424-3.096-8.424  s-4.824,0.144-6.12,8.928c-0.432,2.952-9.648,5.904-9.648,5.904s-0.864-4.896-2.592-13.824c-0.576-3.096-9.648-3.456-9.648-3.456  l-1.296-3.024c0,0,3.528-5.4,1.296-8.424c-2.16-2.952-10.512-5.904-11.808,1.008c-1.296,6.912,1.296,6.912,1.296,6.912  s-15.336,11.448-14.472,14.4c0.864,2.952,18.432,31.752,15.336,49.536c-3.024,17.856-10.224,24.912-16.632,18.864  c-2.592-2.448,1.728-3.96,1.728-3.96l3.528-1.008l-2.592-4.968l5.256-3.96l-3.528-3.96l5.256-4.464l-4.392-5.472l4.392-5.904  l-8.784-10.944l1.8-5.4l-2.232-2.52l-2.16,1.512l-1.296-1.512l1.728-3.96l-8.352-3.96l-7.416-7.416l-4.608-3.96l0.648-3.96  c-1.296-1.512-5.688,0.504-7.416-0.504c-1.8-1.008-10.08-7.416-13.608-5.976c-3.528,1.512-11.376-3.456-15.768-1.944  c-4.392,1.44-6.552-2.52-6.552-2.52s-6.12-0.504-7.848,1.512c-1.8,2.016-2.232,4.968-3.96,2.952c-1.8-1.944-7.056-0.936-9.648,0  c-2.664,1.008-10.512,6.48-11.808,6.48c-1.368,0-3.528-3.456-3.528-3.456l-4.824,4.464c0,0-10.512,4.392-11.808,9.36  c-1.296,4.968-3.528,11.448-7.92,16.848C78.799,79.416,69.727,97.056,71.958,112.032z"/>
<path fill="#FFFFFF" d="M78.151,106.2c-1.296,1.728-2.16,5.184-0.864,6.696c1.296,1.512,26.28,13.392,55.44,7.2  c3.456-0.72,4.68,1.728,4.968,3.456c0,0-1.512,2.448-2.808,2.448s-3.096,1.008-3.96,1.008c-0.864,0-2.16-0.504-3.24-0.504  c-1.152,0-2.448,0-3.528,0.504s-1.08-1.008-1.944-1.008c-0.936,0-2.016,0.792-0.432,2.232c1.512,1.512,3.24,2.232,4.32,1.8  c1.152-0.504,1.584-0.504,3.312,0c1.728,0.432,3.312,1.44,5.256,1.224c1.944-0.288,5.688,1.224,7.416,1.224  c1.8,0,4.608,0,5.256-0.504c0.648-0.504,4.824-9.936,12.528-10.152c7.632-0.288,15.336,6.192,10.728,16.848  c-1.08,2.52-3.312,5.472-3.312,5.472s0.216,2.952,2.376,0.216c2.232-2.736,1.8-3.456,3.744-2.952  c2.016,0.504,4.824,2.232,5.904,2.232c1.152,0,11.88,0,11.88,0s1.944,0.72,2.376-0.288c0.432-0.936,1.08-1.944,0-2.736  c-1.08-0.72-1.08-0.432-2.592-0.936c-1.584-0.504-12.528-5.472-13.824-4.968c-1.296,0.504-1.728-2.232-1.08-3.24  c0.648-1.008,1.08-1.008,3.024-1.224c2.016-0.216,4.176,1.224,5.688,1.512c1.584,0.216,10.08,3.456,10.728,4.896  c0.648,1.512,1.152,2.232,0.504,3.24c-0.72,1.008,0.144,2.52,0.648,1.728c0.432-0.72,4.32-13.104,2.376-16.344  c-1.944-3.24-16.848-20.448-34.776-18.792c-8.352,0.72-9.432-0.504-10.8-1.008c0,0-4.32-1.728-3.888-4.752  c0.432-2.952,2.592-0.216,3.456,0.288c0.936,0.504,2.448,0.216,2.448,0.216s1.728,0,1.296-1.008  c-0.432-0.936-2.592-2.664-3.528-2.952c-0.864-0.216-0.648-0.504-1.512,0c-0.864,0.504-1.944,1.224-1.944,1.224  s-0.432-1.728-1.08-1.944c-0.72-0.288-0.72-1.512-1.368,0c-0.648,1.44-0.864,2.952-1.512,2.736c-0.648-0.288-1.08-0.792-1.08-1.512  c0-0.72,0.864-1.944,0.864-1.944s-0.432-1.512-1.08-1.8c-0.648-0.216-0.648-0.432-1.512-0.432c-0.936,0-1.8,0-1.8,0  s-0.648,0.936-1.296,0.936s-1.728-1.224-1.728-1.224s-0.504-1.224-1.368-1.008c-0.864,0.288-1.512,1.008-2.808,1.008  c-1.296,0-6.12-1.944-10.728-1.44c-4.608,0.432-16.992,4.32-27.144-7.2c-1.152-1.296-0.72-2.52,0.216-3.024  c0,0,1.296-0.72,2.16,0.288c0.864,1.008,3.096,2.448,3.96,3.24c0.864,0.72,6.336,2.664,7.416,2.664c1.152,0,2.664,1.008,3.312,0.288  c0.648-0.792,1.08-1.224,0.216-2.232c-0.864-1.008-1.296-1.512-2.88-2.232c-1.512-0.72-2.376-1.224-3.888-1.728  c-1.584-0.504-16.632-7.2-18.864-6.696c-2.16,0.504-0.864,2.952-2.376,3.96c-1.584,1.008-6.624,4.464-5.04,6.912  c1.512,2.52,3.888-0.72,4.608-1.44c0.648-0.792,3.24,1.224,1.944,2.664c-1.296,1.512-10.512,8.928-10.08,10.44  c0.432,1.512,2.376,2.448,4.608,1.728c2.16-0.72,13.968-2.952,22.32,5.976c3.528,3.672,15.984,4.176,15.984,4.176  s5.976-1.656,19.512,2.736c1.512,0.504,0.432,3.24,0.432,3.24s-21.168-3.6-24.768-0.288c-1.296,1.296-9.216-2.952-10.728-2.664  c-1.512,0.216-13.32-5.256-15.552-4.752c-2.16,0.504-5.472-1.008-6.336-1.008S78.151,106.2,78.151,106.2z"/>
<path d="M156.991,111.384c-0.864,1.296-1.944,2.52-0.648,3.528c1.296,0.936,19.08,8.64,19.08,8.64l1.728-1.224l2.16,1.944  l7.704,2.736c0,0,1.08,2.016,2.592,2.52c1.584,0.504,4.176,2.448,4.824,2.664c0.648,0.288,2.016-0.216,2.232-1.224  c0.216-0.936-0.216-1.944-1.152-2.448c-0.864-0.504-15.768-22.032-29.952-18.864l-0.216,2.232c0,0,10.728,3.24,11.376,4.248  s1.728,2.232-0.216,2.736C174.559,119.376,156.991,111.384,156.991,111.384z"/>
<path fill="#FFFFFF" d="M205.159,134.712c-1.296,0.216-2.376,0.72-2.376,1.944c0,1.296,0.432,2.52,0,3.24  c-0.432,0.72-0.864,1.224,0.432,1.728c1.296,0.504,2.592,0.792,2.592,0c0-0.72,0.72-1.008,0.432-2.232  c-0.216-1.224,0.288-1.944,0.288-1.944l-0.72-2.232L205.159,134.712z"/>
<path fill="#FFFFFF" d="M257.503,62.28c1.08,0,2.016-1.44,2.016-3.168s-0.936-3.168-2.016-3.168c-1.152,0-2.016,1.44-2.016,3.168  S256.351,62.28,257.503,62.28z"/>
<path fill="#FFFFFF" d="M218.119,51.48c0,0,0.648,5.688,1.728,5.688s9.216-5.688,9-6.696c-0.216-1.008-0.432-2.52-1.368-2.52  C226.615,47.952,218.119,51.48,218.119,51.48z"/>
<path fill="#FFFFFF" d="M236.479,67.032c0.432,1.008,0.864,3.456,0.648,4.248c-0.216,0.72-0.216,2.736,0.648,2.232  c0.936-0.504,3.312-3.24,3.312-3.96c0-0.792-0.216-2.736-0.864-3.24c-0.648-0.504-1.08-0.72-1.8-0.504  C237.775,66.024,236.479,67.032,236.479,67.032z"/>
<path fill="#FFFFFF" d="M213.943,67.32c0.648-0.792,14.256-13.392,21.24-13.392s3.24,6.192,3.24,6.192s-9.216,7.272-9.792,9.432  c-0.936,3.24,5.688,30.24,5.04,31.968c0,0,1.512,4.176,2.808-1.512c1.296-5.688-2.808-17.856-2.808-17.856s1.08-3.24,5.688-5.688  c4.608-2.448,3.024-2.952,3.456-3.96c0.432-1.008,7.488-6.696,11.376-4.68c3.96,1.944-8.928,6.696-12.024,52.272  c-1.152,17.856-15.768,19.8-15.768,19.8s-1.512-1.944-0.216-3.24c1.296-1.224,8.784-5.688,11.592-14.832  c1.368-4.248-1.512-2.952-2.376-2.448c-0.864,0.432-7.704,12.816-10.08,12.816c0,0-2.16,1.008-1.728-1.944  c0.432-2.952,9.072-9.936,8.712-18.36c-0.216-5.4-3.024,0-3.024,0s-5.904,13.176-7.056,12.672c-1.08-0.504-2.376-1.512-1.512-3.456  c0,0,12.6-12.384-5.472-51.048C213.871,67.032,213.943,67.32,213.943,67.32z"/>
<path fill="#FFFFFF" d="M209.911,171.504c-1.008,1.872-0.36,3.744,0.648,4.824c0.936,1.152,2.304,2.232,3.24,2.232  c1.008,0,2.016-0.72,1.368-2.592S209.911,171.504,209.911,171.504z"/>
<path fill="#FFFFFF" d="M215.455,161.496c-1.656,2.232-1.656,4.032-0.648,5.544c1.008,1.512,6.264,7.056,6.264,7.056  s1.656,1.872,0.288,2.232c-1.296,0.36-2.304-0.36-2.592,0.72c-0.36,1.152-2.664,0-0.648,1.872c1.944,1.872,9.864,2.592,9.864,2.592  l3.6,1.512c0,0-0.648-2.592-0.36-3.744c0.36-1.08,1.296-1.44,1.296-2.592c0-1.08,1.656-4.464,1.656-4.464s1.656,2.232,2.664,2.232  c0.936,0,2.952-1.08,1.944-3.312s-5.256-6.696-12.816-7.056C223.015,163.944,215.455,161.496,215.455,161.496z"/>
<path fill="#FFFFFF" d="M221.071,221.688l19.656-30.096c0,0,2.016-1.152,2.664,1.872c0.648,2.952-0.36,26.712,0.288,27.864  c0.648,1.08-1.944,4.824-1.944,5.904c0,1.152-1.944-0.36-2.952,0.432c-1.008,0.72-2.304,1.44-2.304,2.592  c0,1.08-1.656,1.44-1.656,1.44l-3.24,1.872l0.648,2.592l0.288,2.592c0,0,0.36,2.664,0,3.744c-0.288,1.152-1.584,2.232-1.584,2.232  s-0.72-1.512-1.008-2.952C229.567,240.264,228.631,230.976,221.071,221.688z"/>
<path fill="#FFFFFF" d="M200.695,257.4c-1.08,0.864,1.296,11.88,8.208,14.832c6.912,2.952,2.952-2.232,2.952-2.232l-4.608-5.904  c0,0,0.36-1.872,1.296-1.512c1.008,0.36,5.256,0,5.256,0l-0.648-1.512c0,0,0.648,0.792,1.656,0.36  c1.008-0.36,1.944-4.032,1.944-4.032l2.016-0.432l0.288-2.232l3.312-1.8l1.008-1.512l4.248-0.72c0,0-0.648-11.952-2.664-13.032  c0,0-1.008-1.08-2.016,0.072c-1.08,1.152-14.616,14.472-15.768,14.832C205.951,252.936,201.055,257.04,200.695,257.4z"/>
<path fill="#FFFFFF" d="M223.375,38.304c-1.152,0-1.584,3.744-0.432,4.248c1.08,0.504,2.808,1.44,3.24,0.504  c0.432-1.008,0.864-0.792,0.864-2.016c0-1.224-0.864-2.736-0.864-2.736S224.022,38.304,223.375,38.304z"/>
<polygon fill="#E2001A" points="440.022,302.688 433.255,316.8 446.863,316.8 "/>
<path fill="#FFFFFF" d="M283.423,309.528c0,15.912,39.96,6.84,39.96,6.84v14.04c0,0-76.68,7.704-76.68-20.88  s76.68-20.88,76.68-20.88v14.04C323.383,302.688,283.423,293.616,283.423,309.528z"/>
<path fill="#FFFFFF" d="M149.215,287.568h-38.52l-34.848,43.848l36.144-0.072l4.896-4.464h26.28l4.896,4.464l36.144,0.072  L149.215,287.568L149.215,287.568z M123.583,316.368l6.48-13.896l6.408,13.896H123.583z"/>
<path fill="#FFFFFF" d="M417.631,287.568h38.52l34.848,43.848l-36.144-0.072l-4.896-4.464h-26.28l-4.896,4.464l-36.144,0.072  L417.631,287.568L417.631,287.568z M443.263,316.368l-6.48-13.896l-6.408,13.896H443.263z"/>
<path d="M315.391,140.472c0,0,6.552,11.016,1.512,20.016c0,0-16.488,20.664-8.568,37.152c0,0-5.256,5.04-5.256,8.784  s0.216-0.648,0.216-0.648s9-3.096,10.944-1.08c0,0-4.608,7.92,0.72,12.528c0,0,0-8.136,1.296-8.136c1.296,0,2.88-0.432,3.312,2.232  c0.432,2.592,1.512,3.744,2.376,4.608c0,0,6.624-4.392,6.624-7.704c0,0,1.08-2.016,1.296,0.216c0,0-2.376,9.864,4.824,13.608  c0,0,2.448,2.232,0.288,2.664c0,0-5.112-2.448-4.68,4.392l-5.256,1.512c0,0-0.648,6.624-0.864,10.368c0,0-1.944,9.864,0.432,11.88  c0,0,7.92,2.232,8.136,5.904c0,0,5.256,5.112,7.92,2.664c0,0,0.864-4.176,3.312-1.944c0,0,5.688,5.04,4.392,0  c0,0-4.104-3.744-5.112-3.24c-0.072,0-0.144,0.072-0.144,0.144l0,0l0,0c0,0,0-0.072,0.144-0.144  c0.576-0.504,2.808-2.232,4.896-0.288c0,0,4.176,5.472,5.688,4.824c1.584-0.648,2.232-5.256,0.216-5.472  c0,0-3.024,0.432-5.904-3.096c-2.88-3.528-0.648-0.216-0.648-0.216l-1.584-1.584l-2.592,1.152h-5.544c0,0-4.176-9.936-6.552-10.584  c0,0,0.648-7.92,10.08-10.8c0,0,9-4.824,6.192-11.16c0,0,4.608-16.344-2.664-19.368c0,0-2.664-2.232-0.216-1.584  c0,0,7.704-2.808,5.472,23.112c0,0,3.096-0.432,3.96-4.176c0,0,1.8,0.864,2.016,4.392h1.296c0,0,0.648-3.744,1.584-3.528  c0,0,0.648,2.232,0.864,4.176l2.16-5.472l1.8,4.824c0,0,4.392-5.256,3.744-9.216l3.744-7.92c0,0,1.08,0.648,0.216,2.376  c0,0-2.232,5.328-2.016,7.92c0.216,2.664-0.216-0.648-0.216-0.648s-2.88,6.624-3.096,8.568c0,0-4.608,6.192-1.728,9.288  c0,0,8.352,0.432,12.744-0.864c0,0,12.672-1.944,15.912-1.224c2.16,3.456,4.752,0.648,5.04-2.088c0.216-2.016-1.872-2.88-3.672-2.52  c2.736-0.576,8.064-1.944,7.272-5.616c0,0-2.664-3.312-3.672,0c0,0-2.592,2.952-3.96-0.36c0,0,8.928-4.968,3.672-6.624  c0,0-3.96-0.648-5.616,4.32c0,0-2.304,2.664-5.976,3.312c0,0-11.16,2.304-8.856-3.312c0,0,8.568-11.88,7.2-15.48  c0,0,1.008-4.968-3.24-5.328c0,0-25.128,2.664-27.72-0.288c0,0,5.904-6.984,6.552-10.224c0,0,1.368,5.616,0.72,7.56  c0,0,3.96-3.312,5.256-3.312c3.6-2.232,4.392-7.488,4.248-11.52c0.144,2.52,0.864,8.208,2.016,9.576c0,0,2.952-12.528,5.256-13.896  c0,0,2.016,4.968,1.296,7.272c0,0,7.632,0,4.68-8.568c0,0-20.448-4.608-28.728-17.136l1.296-1.008c0,0,15.192,16.2,27.72,16.2  c0,0,9.216,0.648,12.6,2.952c0,0,4.248,6.552,6.264,1.656c0,0,1.944-2.376,1.944-4.32c0,0,1.656-3.312-1.008-3.6  c0,0,2.016-3.312-0.936-3.312c0,0-11.952,10.872-37.656-22.464c0,0,6.912,0.648,2.016-4.608l2.952-1.656  c0,0-5.616-4.896-3.312-8.208c0,0,8.568-5.328,2.664-8.928c0,0-3.312,1.008-4.32-0.36c0,0-4.248,1.656-4.968,0.72  c0,0-5.616-1.368-6.552,0.288c0,0-5.976-3.312-0.36-6.264c0,0,4.32,0,5.616,2.952c0,0,2.952,1.656,2.952-1.296l1.368-3.6  l-4.32-1.008c0,0-6.912,0.648-5.976-2.952c1.008-3.672,6.336-4.68,7.992-3.024c0,0,5.256,2.304,4.896-1.656  c0-0.504-0.144-1.08-0.144-1.656c0-0.288,0-0.504,0-0.792c-0.072-0.576-0.432-1.152-1.8-0.792c0,0-0.36-3.024,1.656-1.368  c0,0,7.272,0.648,1.656-2.952c0,0-5.328-3.312-5.616-1.656c0,0-5.616-3.312-6.264-1.944c0,0-8.928-6.624-10.944-3.312  c0,0-5.256-2.016-5.544-0.648c0,0,0-5.976-1.656-6.624c0,0-4.968,1.008-4.32,3.96l-2.16,1.512c0,0-0.936-4.608-2.448-4.608  c0,0-3.96,2.448-3.528,6.408c0,0-2.88-0.648-4.392,1.728c0,0,2.664,3.96,1.512,6.84c-1.08,2.88-6.552,1.728-6.768,2.88  c-0.216,1.08,3.744,5.472,10.512,3.744c0,0-9,9.432-9.432,11.16c-0.432,1.8-1.8,7.704,4.824,3.312  c6.624-4.392,5.472-7.704,6.408-5.904c0.864,1.728,0,2.592-1.368,4.176c-1.296,1.512-1.728,3.312-0.864,8.784  c0.864,5.472,0.432,8.136-1.08,9.432c-1.584,1.368,5.904-0.216,6.12-10.512c0,0,2.448-3.744,2.232-0.648c0,0-1.08,8.352,0.648,14.04  c0,0,2.016,3.096,0,5.256c0,0,6.84,5.112,4.608-9c0,0,0.432-3.096,1.584-0.216c0,0,2.808,10.8-2.664,16.272  c0,0,6.84,3.96,9.216-7.92c0,0,3.312-0.648,1.368,3.096c0,0-2.664,5.04-3.96,5.688c0,0,1.08,2.016,0.216,4.824  c0,0-3.312,3.312-3.096,6.624c0,0,4.176,4.824,8.352-6.624c0,0,0.72-1.44,0.936-0.792c0.144,0.648-0.072,1.8-0.216,2.52  c0,0-2.232,5.544-2.232,7.56c0,0-5.544,4.608-5.544,8.568c-0.288,2.52-1.008,6.912,0,9.216c0,0-7.704,4.392-7.272,10.368  c0,0-7.632,0.864-8.136,5.904c0,0-8.784,8.136-12.096-5.472c-3.24-13.68,6.408-29.664,6.408-29.664s1.368-3.384,0.864-9.792  c0.72-6.048,0.36-13.536-4.824-17.208c-0.72-1.656-1.584-3.384-2.52-5.112c0,0-8.28-61.704,30.744-65.736  c39.024-4.104,33.624-20.88,22.248-25.488c0,0,5.472,22.248-14.544,15.048C352.398,54.432,280.831,63.072,315.391,140.472  L315.391,140.472z M320.719,148.68c-0.504-2.52-1.224-5.328-2.376-8.424l0.72-0.216C319.063,140.04,320.431,143.712,320.719,148.68z  "/>
<path fill="#FFFFFF" d="M328.495,93.384c2.664,0.936,3.24,4.608,5.904,5.328c0.648,0.288-0.36,0.936-0.36,1.296  c-1.296-1.008-2.592-2.016-3.96-2.952c0.36-0.36,0.36-1.008,0-1.008c-0.936,0.36-0.936-0.648-1.584-1.008  c0.648-0.648-0.72-0.648-0.72-1.296c0.144-0.072-0.432,0-0.648,0.288c0.288-0.432,0.36-0.648,0.36-0.936  c-1.368-1.368-1.008-2.952-2.016-4.32c0.36,0.36,0.36,0.36,0.648,0.648c0.36-0.648,0.72-1.296,1.368-1.656l-0.36,0.36  c0.648,0.648,1.368,0.36,2.016-0.36c-1.008,0.72,0.288,0.72,0.288,1.008c0.36-0.288,0.36-0.648,0.648-0.648  c0.36,0.36,0.72,0.648,1.008,1.008c0.648-1.368,1.368,0.288,2.304-0.36c-0.288,0.36-0.648,0.36-0.648,0.648  c0,0.36,0.36,0.36,0.648,0.72c0.36-0.36,0.648-0.72,1.008-1.008l-0.36,0.288c1.008,0.36,1.368,0,1.656,1.008  c0.36-0.288,0.36-0.288,0.72-0.648l-0.36,0.36l0.36,0.288l-0.36,0.36l-0.36-0.36c-0.288,0-0.288,0.36-0.288,0.648  c-1.008-1.296-2.664-1.656-3.672-1.656c-1.656,0.36-3.6-0.936-4.608,0.72c0,0.648-0.288,1.584,0.648,2.304l0.36-0.36  C328.783,92.448,327.487,93.096,328.495,93.384z"/>
<path fill="#FFFFFF" d="M344.623,94.032l0.36,0.36l0.288-0.36C344.982,94.032,344.982,94.032,344.623,94.032z"/>
<path fill="#FFFFFF" d="M346.927,94.032l-0.288-0.288l-0.36,0.288l-0.36-0.288c-0.648,0,0.36,1.008-0.648,1.008l-0.288-0.36  l-0.36,0.36c-0.648-1.008,0.648-1.008,0.648-1.656c1.008,0.648,0.648-0.648,1.368-0.648c0.288,0,0.288,0.288,0.648,0.288  c0.648,0,0-1.008,0.648-1.008c1.008,0.36,1.296-0.648,1.944-0.936c0.36,0,0.36,0.648,0.72,0.648c0.288,0,0.288-0.36,0.288-0.648  c1.008,0.288,1.944,0.288,2.664,1.296l-0.36-0.36c-0.648,0.36-0.648,1.368-1.296,1.656c0.288,0.36,0.288,0.36,0.648,0.648  l-0.36-0.288c-0.288,0.288-0.648,1.296-0.936,1.296c-1.008-0.288-2.016-1.296-3.024-1.944  C347.935,93.096,347.575,94.032,346.927,94.032z"/>
<path fill="#FFFFFF" d="M343.327,115.2l0.288,0.288l0.36-0.288C343.615,115.2,343.615,115.2,343.327,115.2z"/>
<path fill="#FFFFFF" d="M336.415,116.856c0.288,0.648,0.288,1.296,0.648,1.656l0.288-0.36c-0.288,0.36-0.648,0.36-0.648,0.648  c0.36,1.656,1.296,2.664,2.304,3.96l0.36-0.288c0.648,0.288-0.648,0.936,0.288,1.296l0.36-0.36c0.648,0.36,0.648,1.008,1.008,1.368  l0.288-0.36c0.648,0,0,1.008,0.648,1.008l0.36-0.36c-0.36,0.36-0.648,0.648-1.008,1.008c0.36-0.36,0.648-0.36,0.648-0.648  c0-0.36-0.288-0.36-0.648-0.36c-0.288,0.36-0.648,0.648-0.648,0.648c-1.656-1.296-2.664-3.24-4.248-4.608  c0.648-0.648,0-1.008-0.36-1.656l-0.36,0.36c0.36-0.36,0.72-0.36,0.72-0.648c0-0.36-0.36-0.36-0.72-0.36  c0.36,0,0.36-0.288,0.36-0.648c-0.36-0.36-0.36-0.36-0.648-0.648l0.288,0.288c0.36,0,0.36-0.288,0.36-0.648  c-0.36-0.288-0.648-0.648-0.648-0.648c0.288-0.648,0.288-1.944,0.648-2.664c0.36-0.936,0.36-2.592,1.008-3.6l0.288,0.36  c0.648,0,0-1.368,0.648-1.368c1.008,0.36-0.648,1.368,0.36,1.656c-0.36-0.288-0.36-0.648-0.648-0.648c-0.36,0-0.36,0.36-0.36,0.648  c0.36,0.36,0.36,0.36,0.648,0.648c-0.648,0.648-0.936,1.368-1.584,2.016c0,0.288,0.288,0.288,0.648,0.288  c-0.36,0-0.648,0-0.648,0.36c0,0.36,0.288,0.36,0.648,0.36c-0.36,0-0.648,0-0.648,0.288  C336.703,115.488,336.055,116.208,336.415,116.856z"/>
<path fill="#FFFFFF" d="M343.327,112.536l-0.36,0.36c0,0.288,0.36,0.288,0.648,0.288c-0.288,0-0.648,0.36-0.288,0.648  c0.936,0.72,0.648,1.656,1.296,2.016c-0.36,0-0.36,0.36-0.36,0.648c0.72,1.008,0.72-0.288,1.008-0.288  c-0.648,1.944,1.368,2.592,2.016,3.888l0.288-0.288c0.36,0.288,0.36,1.008,1.008,1.296c0.36,0,0.648,0,0.648-0.288l-0.288,0.288  c1.296,1.008,2.304,2.304,3.888,2.664c-0.288,0.288-0.288,0.288-0.648,0.648l0.36-0.36c0-0.288-0.36-0.288-0.648-0.288  c-0.36,0.288-0.36,0.288-0.648,0.288c-0.36-0.288-0.36-0.288-0.648-0.648c-0.36,0-0.72,0-0.72,0.36  c-1.944-2.664-5.256-4.608-6.264-7.56c-0.288-1.368-1.296-2.376-0.936-3.672c0.288-1.008,0.288-2.664,1.296-2.664  c0.648-0.288,0.648-0.936,1.296-0.936l-0.288-0.36c0.288,0,0.648,0.36,0.288,0.648c-0.288,0-0.648,0-0.648,0.36  c0,0.288,0.36,0.288,0.648,0.288c-0.288,0-0.648-0.288-0.648-0.288c-0.648,0,0,1.008-0.648,1.296c1.008,0.36-1.008,1.008,0,1.296  C343.615,112.176,343.615,112.536,343.327,112.536z"/>
<path fill="#FFFFFF" d="M344.623,134.64c-0.936-0.72-1.008-1.296-1.296-2.304l-0.36,0.36c-0.288-0.72,0-1.368-0.648-1.656  l-0.36,0.288c0-0.288,0.36-0.936-0.288-0.936l-0.36,0.288c-0.288-2.016-3.6-3.312-2.592-5.256c0,0.288,0,0.648,0.288,0.648  l0.36-0.36c0.288,1.368,1.296,2.016,1.656,3.312c0.936-0.36,0.936,0.648,1.656,1.008c-0.72,0.648,0.288,1.008,0.288,1.296  l0.36-0.288c0.936,0.648,0.936,2.304,1.944,2.952l0.36-0.36l0.288,0.36l-0.288,0.288c0.648,1.008,1.656,1.368,2.592,1.656  l-0.288,0.36c1.296,0.648,2.952,1.008,4.248,1.656c0.36,0.288,1.368,0.288,2.016,0.288c0.648-0.288,0.648-1.584,0.288-2.304  c-0.288-0.648-0.936-1.296-1.656-1.944c0.36-0.36,0.72-0.648,0-1.008l-0.288,0.36c-1.296-1.008-1.296-2.664-1.296-4.32  c1.584,2.664,2.952,5.256,4.608,7.92c0.288,0.648,0,1.296-1.368,1.656l0.36,0.36c-1.008,0.648-1.296-0.36-2.016,0  C349.591,139.248,347.287,136.656,344.623,134.64z"/>
<path fill="#FFFFFF" d="M378.606,135.936c0,0.72-1.008,0.36-1.008,1.008c-0.288,0-0.288-0.288-0.288-0.648  c0.288-0.648,0.936-0.648,1.296-1.296c0-0.36,0-0.72-0.36-0.72c0.36-0.288,0.36-0.288,0.648-0.648  c-0.648-0.648-0.648-1.656-1.296-2.592c0-0.36,0-1.008,0.36-1.368c0,1.008,1.296,0.72,1.296,1.368c0,0-0.36,0.288-0.36,0.648  c0.36,0.648,0.72,1.296,1.008,1.944c0,0.648-0.288,1.368-0.288,2.016C379.615,135.936,378.895,135.936,378.606,135.936z"/>
<path fill="#FFFFFF" d="M379.903,144.216c0-0.72,0.36-0.648,0-1.008c-0.288-0.288-1.008-1.008-1.296-1.296  c0.648,1.008,0.648-0.36,1.008-0.36c0.288,0.36,0.936,0.36,0.648,1.368c0,0.936,1.008-0.36,1.296,0.288l-0.288,0.36  c0.288,0.648,0.648,0,0.936,0c1.008,0.288-1.296,1.008,0,1.656c-0.288-0.648-0.936-0.648-1.296,0c0,0.288,0.36,0.288,0.648,0.288  c-0.288,0-0.648,0-0.648,0.36c0.648,1.296-0.648,2.304-1.656,2.592c-1.656,0.72-2.952-0.648-4.608-0.648  c-0.36,0-0.36-0.648-0.36-0.936c1.368,0,2.664,0.936,3.96,0.936c0.648-0.288,2.016-0.648,2.304-1.656  c0-0.288-0.288-0.288-0.648-0.288c0.36,0,0.648,0,0.648-0.36C380.263,145.224,379.903,144.864,379.903,144.216z"/>
<path fill="#FFFFFF" d="M383.575,144.216l0.288,0.36l0.36-0.36C383.863,144.216,383.863,144.216,383.575,144.216z"/>
<path fill="#FFFFFF" d="M384.223,142.56c0-0.72,0.288-1.296,0-1.944l-0.36,0.288c-0.288-0.648,0-1.008,0-1.656  c0-0.288,0.36-0.648,0.648-0.288c0,0.288-0.288,0.937,0.36,0.937l0.36-0.288c-0.36,0.288-0.36,0.288-0.72,0.648  c0.72,0.36,0.72,1.296,1.008,1.944c0,0.72-0.288,1.368-0.648,2.016c-0.648,1.008-1.296,0.36-2.016,0.36  C383.863,144.216,384.223,143.568,384.223,142.56z"/>
<path d="M408.991,251.064c0,0,30.312-0.864,32.976,0.288c0,0,3.96,7.848-2.664,7.848l-29.664-0.36L408.991,251.064z"/>
<path d="M502.663,140.472c0,0-6.624,11.016-1.584,20.016c0,0,16.488,20.664,8.568,37.152c0,0,5.328,5.04,5.328,8.784  s-0.216-0.648-0.216-0.648s-9.072-3.096-11.016-1.08c0,0,4.608,7.92-0.648,12.528c0,0,0-8.136-1.368-8.136  c-1.296,0-2.808-0.432-3.24,2.232c-0.432,2.592-1.584,3.744-2.448,4.608c0,0-6.624-4.392-6.624-7.704c0,0-1.08-2.016-1.296,0.216  c0,0,2.448,9.864-4.824,13.608c0,0-2.448,2.232-0.216,2.664c0,0,5.04-2.448,4.608,4.392l5.256,1.512c0,0,0.648,6.624,0.864,10.368  c0,0,2.016,9.864-0.432,11.88c0,0-7.92,2.232-8.136,5.904c0,0-5.256,5.112-7.92,2.664c0,0-0.864-4.176-3.312-1.944  c0,0-5.688,5.04-4.392,0c0,0,4.176-3.744,5.184-3.24c0,0,0.072,0.072,0.144,0.144l0,0l0,0c0,0-0.072-0.072-0.144-0.144  c-0.648-0.504-2.88-2.232-4.896-0.288c0,0-4.248,5.472-5.76,4.824c-1.512-0.648-2.232-5.256-0.216-5.472  c0,0,3.096,0.432,5.976-3.096c2.808-3.528,0.648-0.216,0.648-0.216l1.512-1.584l2.664,1.152h5.472c0,0,4.176-9.936,6.624-10.584  c0,0-0.72-7.92-10.152-10.8c0,0-9-4.824-6.12-11.16c0,0-4.608-16.344,2.592-19.368c0,0,2.664-2.232,0.216-1.584  c0,0-7.704-2.808-5.472,23.112c0,0-3.096-0.432-3.96-4.176c0,0-1.728,0.864-2.016,4.392h-1.296c0,0-0.648-3.744-1.512-3.528  c0,0-0.648,2.232-0.864,4.176l-2.232-5.472l-1.728,4.824c0,0-4.392-5.256-3.744-9.216l-3.744-7.92c0,0-1.152,0.648-0.216,2.376  c0,0,2.16,5.328,1.944,7.92c-0.216,2.664,0.216-0.648,0.216-0.648s2.88,6.624,3.096,8.568c0,0,4.608,6.192,1.728,9.288  c0,0-8.352,0.432-12.744-0.864c0,0-12.6-1.944-15.912-1.224c-2.088,3.456-4.752,0.648-5.04-2.088  c-0.216-2.016,1.944-2.88,3.672-2.52c-2.736-0.576-7.992-1.944-7.2-5.616c0,0,2.592-3.312,3.6,0c0,0,2.664,2.952,3.96-0.36  c0,0-8.928-4.968-3.6-6.624c0,0,3.96-0.648,5.544,4.32c0,0,2.376,2.664,5.976,3.312c0,0,11.232,2.304,8.928-3.312  c0,0-8.568-11.88-7.272-15.48c0,0-1.008-4.968,3.312-5.328c0,0,25.056,2.664,27.72-0.288c0,0-5.976-6.984-6.624-10.224  c0,0-1.296,5.616-0.648,7.56c0,0-3.96-3.312-5.256-3.312c-3.6-2.232-4.392-7.488-4.32-11.52c-0.144,2.52-0.792,8.208-2.016,9.576  c0,0-2.952-12.528-5.256-13.896c0,0-1.944,4.968-1.296,7.272c0,0-7.632,0-4.608-8.568c0,0,20.448-4.608,28.656-17.136l-1.296-1.008  c0,0-15.192,16.2-27.72,16.2c0,0-9.216,0.648-12.528,2.952c0,0-4.32,6.552-6.264,1.656c0,0-2.016-2.376-2.016-4.32  c0,0-1.656-3.312,1.008-3.6c0,0-1.944-3.312,1.008-3.312c0,0,11.88,10.872,37.584-22.464c0,0-6.912,0.648-1.944-4.608l-2.952-1.656  c0,0,5.544-4.896,3.24-8.208c0,0-8.568-5.328-2.592-8.928c0,0,3.312,1.008,4.248-0.36c0,0,4.32,1.656,4.968,0.72  c0,0,5.616-1.368,6.624,0.288c0,0,5.904-3.312,0.288-6.264c0,0-4.248,0-5.616,2.952c0,0-2.952,1.656-2.952-1.296l-1.296-3.6  l4.248-1.008c0,0,6.912,0.648,5.976-2.952c-1.008-3.672-6.264-4.68-7.92-3.024c0,0-5.256,2.304-4.968-1.656  c0.072-0.504,0.144-1.08,0.216-1.656c0-0.288-0.072-0.504-0.072-0.792c0.072-0.576,0.432-1.152,1.872-0.792  c0,0,0.288-3.024-1.656-1.368c0,0-7.272,0.648-1.656-2.952c0,0,5.256-3.312,5.616-1.656c0,0,5.616-3.312,6.264-1.944  c0,0,8.856-6.624,10.872-3.312c0,0,5.256-2.016,5.616-0.648c0,0,0-5.976,1.656-6.624c0,0,4.896,1.008,4.248,3.96l2.232,1.512  c0,0,0.864-4.608,2.376-4.608c0,0,3.96,2.448,3.528,6.408c0,0,2.88-0.648,4.392,1.728c0,0-2.592,3.96-1.512,6.84  c1.08,2.88,6.624,1.728,6.84,2.88c0.216,1.08-3.744,5.472-10.584,3.744c0,0,9,9.432,9.432,11.16c0.504,1.8,1.8,7.704-4.824,3.312  c-6.552-4.392-5.472-7.704-6.336-5.904c-0.936,1.728,0,2.592,1.296,4.176c1.296,1.512,1.728,3.312,0.864,8.784  c-0.864,5.472-0.432,8.136,1.152,9.432c1.512,1.368-5.976-0.216-6.192-10.512c0,0-2.448-3.744-2.232-0.648  c0,0,1.152,8.352-0.648,14.04c0,0-1.944,3.096,0,5.256c0,0-6.768,5.112-4.608-9c0,0-0.432-3.096-1.512-0.216  c0,0-2.88,10.8,2.592,16.272c0,0-6.768,3.96-9.216-7.92c0,0-3.312-0.648-1.296,3.096c0,0,2.592,5.04,3.96,5.688  c0,0-1.08,2.016-0.216,4.824c0,0,3.24,3.312,3.024,6.624c0,0-4.176,4.824-8.352-6.624c0,0-0.72-1.44-0.864-0.792  c-0.216,0.648,0.072,1.8,0.144,2.52c0,0,2.304,5.544,2.304,7.56c0,0,5.472,4.608,5.472,8.568c0.288,2.52,1.08,6.912,0,9.216  c0,0,7.704,4.392,7.272,10.368c0,0,7.704,0.864,8.136,5.904c0,0,8.784,8.136,12.096-5.472c3.312-13.68-6.408-29.664-6.408-29.664  s-1.296-3.384-0.792-9.792c-0.792-6.048-0.432-13.536,4.752-17.208c0.72-1.656,1.584-3.384,2.52-5.112  c0,0,8.352-61.704-30.744-65.736c-39.024-4.104-33.552-20.88-22.248-25.488c0,0-5.4,22.248,14.544,15.048  C465.583,54.432,537.223,63.072,502.663,140.472L502.663,140.472z M497.334,148.68c0.432-2.52,1.224-5.328,2.304-8.424l-0.648-0.216  C498.991,140.04,497.551,143.712,497.334,148.68z"/>
<path fill="#FFFFFF" d="M489.559,93.384c-2.664,0.936-3.312,4.608-5.976,5.328c-0.648,0.288,0.36,0.936,0.36,1.296  c1.296-1.008,2.664-2.016,3.96-2.952c-0.36-0.36-0.36-1.008,0-1.008c1.008,0.36,1.008-0.648,1.656-1.008  c-0.648-0.648,0.648-0.648,0.648-1.296c-0.072-0.072,0.432,0,0.648,0.288c-0.288-0.432-0.288-0.648-0.288-0.936  c1.296-1.368,0.936-2.952,1.944-4.32c-0.36,0.36-0.36,0.36-0.648,0.648c-0.36-0.648-0.648-1.296-1.296-1.656l0.288,0.36  c-0.648,0.648-1.296,0.36-1.944-0.36c0.936,0.72-0.36,0.72-0.36,1.008c-0.288-0.288-0.288-0.648-0.648-0.648  c-0.36,0.36-0.648,0.648-1.008,1.008c-0.648-1.368-1.296,0.288-2.304-0.36c0.36,0.36,0.648,0.36,0.648,0.648  c0,0.36-0.288,0.36-0.648,0.72c-0.288-0.36-0.648-0.72-1.008-1.008l0.36,0.288c-1.008,0.36-1.296,0-1.656,1.008  c-0.36-0.288-0.36-0.288-0.648-0.648l0.288,0.36l-0.288,0.288l0.288,0.36l0.36-0.36c0.36,0,0.36,0.36,0.36,0.648  c0.936-1.296,2.592-1.656,3.6-1.656c1.656,0.36,3.6-0.936,4.608,0.72c0,0.648,0.36,1.584-0.648,2.304l-0.36-0.36  C489.199,92.448,490.567,93.096,489.559,93.384z"/>
<path fill="#FFFFFF" d="M473.359,94.032l-0.288,0.36l-0.36-0.36C473.071,94.032,473.071,94.032,473.359,94.032z"/>
<path fill="#FFFFFF" d="M471.055,94.032l0.36-0.288l0.288,0.288l0.36-0.288c0.648,0-0.36,1.008,0.648,1.008l0.36-0.36l0.288,0.36  c0.648-1.008-0.648-1.008-0.648-1.656c-1.008,0.648-0.648-0.648-1.296-0.648c-0.36,0-0.36,0.288-0.648,0.288  c-0.72,0,0-1.008-0.72-1.008c-0.936,0.36-1.296-0.648-1.944-0.936c-0.36,0-0.36,0.648-0.648,0.648c-0.36,0-0.36-0.36-0.36-0.648  c-1.008,0.288-1.944,0.288-2.592,1.296l0.288-0.36c0.648,0.36,0.648,1.368,1.296,1.656c-0.288,0.36-0.288,0.36-0.648,0.648  l0.36-0.288c0.288,0.288,0.648,1.296,1.008,1.296c0.936-0.288,1.944-1.296,2.952-1.944  C470.047,93.096,470.407,94.032,471.055,94.032z"/>
<path fill="#FFFFFF" d="M474.727,115.2l-0.36,0.288l-0.36-0.288C474.367,115.2,474.367,115.2,474.727,115.2z"/>
<path fill="#FFFFFF" d="M481.639,116.856c-0.36,0.648-0.36,1.296-0.648,1.656l-0.36-0.36c0.36,0.36,0.648,0.36,0.648,0.648  c-0.288,1.656-1.296,2.664-2.304,3.96l-0.288-0.288c-0.72,0.288,0.648,0.936-0.36,1.296l-0.36-0.36  c-0.648,0.36-0.648,1.008-0.936,1.368l-0.36-0.36c-0.648,0,0,1.008-0.648,1.008l-0.36-0.36c0.36,0.36,0.72,0.648,1.008,1.008  c-0.288-0.36-0.648-0.36-0.648-0.648c0-0.36,0.36-0.36,0.648-0.36c0.36,0.36,0.648,0.648,0.648,0.648  c1.656-1.296,2.664-3.24,4.32-4.608c-0.648-0.648,0-1.008,0.288-1.656l0.36,0.36c-0.36-0.36-0.648-0.36-0.648-0.648  c0-0.36,0.288-0.36,0.648-0.36c-0.36,0-0.36-0.288-0.36-0.648c0.36-0.36,0.36-0.36,0.72-0.648l-0.36,0.288  c-0.36,0-0.36-0.288-0.36-0.648c0.36-0.288,0.72-0.648,0.72-0.648c-0.36-0.648-0.36-1.944-0.72-2.664  c-0.288-0.936-0.288-2.592-0.936-3.6l-0.36,0.36c-0.648,0,0-1.368-0.648-1.368c-1.008,0.36,0.648,1.368-0.36,1.656  c0.36-0.288,0.36-0.648,0.72-0.648c0.288,0,0.288,0.36,0.288,0.648c-0.288,0.36-0.288,0.36-0.648,0.648  c0.648,0.648,1.008,1.368,1.656,2.016c0,0.288-0.36,0.288-0.648,0.288c0.288,0,0.648,0,0.648,0.36c0,0.36-0.36,0.36-0.648,0.36  c0.288,0,0.648,0,0.648,0.288C481.279,115.488,481.927,116.208,481.639,116.856z"/>
<path fill="#FFFFFF" d="M474.727,112.536l0.288,0.36c0,0.288-0.288,0.288-0.648,0.288c0.36,0,0.648,0.36,0.36,0.648  c-1.008,0.72-0.72,1.656-1.368,2.016c0.36,0,0.36,0.36,0.36,0.648c-0.648,1.008-0.648-0.288-1.008-0.288  c0.648,1.944-1.296,2.592-1.944,3.888l-0.36-0.288c-0.36,0.288-0.36,1.008-1.008,1.296c-0.288,0-0.648,0-0.648-0.288l0.36,0.288  c-1.368,1.008-2.304,2.304-3.96,2.664c0.288,0.288,0.288,0.288,0.648,0.648l-0.36-0.36c0-0.288,0.36-0.288,0.648-0.288  c0.36,0.288,0.36,0.288,0.72,0.288c0.288-0.288,0.288-0.288,0.648-0.648c0.288,0,0.648,0,0.648,0.36  c1.944-2.664,5.256-4.608,6.264-7.56c0.36-1.368,1.296-2.376,1.008-3.672c-0.36-1.008-0.36-2.664-1.368-2.664  c-0.648-0.288-0.648-0.936-1.296-0.936l0.36-0.36c-0.36,0-0.648,0.36-0.36,0.648c0.36,0,0.648,0,0.648,0.36  c0,0.288-0.288,0.288-0.648,0.288c0.36,0,0.648-0.288,0.648-0.288c0.648,0,0,1.008,0.648,1.296c-0.936,0.36,1.008,1.008,0,1.296  C474.367,112.176,474.367,112.536,474.727,112.536z"/>
<path fill="#FFFFFF" d="M473.359,134.64c1.008-0.72,1.008-1.296,1.368-2.304l0.288,0.36c0.36-0.72,0-1.368,0.648-1.656l0.36,0.288  c0-0.288-0.36-0.936,0.36-0.936l0.288,0.288c0.36-2.016,3.672-3.312,2.664-5.256c0,0.288,0,0.648-0.36,0.648l-0.288-0.36  c-0.36,1.368-1.368,2.016-1.656,3.312c-1.008-0.36-1.008,0.648-1.656,1.008c0.648,0.648-0.36,1.008-0.36,1.296l-0.288-0.288  c-1.008,0.648-1.008,2.304-2.016,2.952l-0.288-0.36l-0.36,0.36l0.36,0.288c-0.72,1.008-1.656,1.368-2.664,1.656l0.288,0.36  c-1.296,0.648-2.952,1.008-4.248,1.656c-0.36,0.288-1.296,0.288-2.016,0.288c-0.648-0.288-0.648-1.584-0.288-2.304  c0.288-0.648,1.008-1.296,1.656-1.944c-0.36-0.36-0.648-0.648,0-1.008l0.288,0.36c1.368-1.008,1.368-2.664,1.368-4.32  c-1.656,2.664-3.024,5.256-4.608,7.92c-0.36,0.648,0,1.296,1.296,1.656l-0.36,0.36c1.008,0.648,1.368-0.36,2.016,0  C468.463,139.248,470.767,136.656,473.359,134.64z"/>
<path fill="#FFFFFF" d="M439.375,135.936c0,0.72,1.008,0.36,1.008,1.008c0.36,0,0.36-0.288,0.36-0.648  c-0.36-0.648-1.008-0.648-1.368-1.296c0-0.36,0-0.72,0.36-0.72c-0.36-0.288-0.36-0.288-0.648-0.648  c0.648-0.648,0.648-1.656,1.296-2.592c0-0.36,0-1.008-0.288-1.368c0,1.008-1.368,0.72-1.368,1.368c0,0,0.36,0.288,0.36,0.648  c-0.36,0.648-0.648,1.296-1.008,1.944c0,0.648,0.36,1.368,0.36,2.016C438.438,135.936,439.087,135.936,439.375,135.936z"/>
<path fill="#FFFFFF" d="M438.079,144.216c0-0.72-0.36-0.648,0-1.008c0.36-0.288,1.008-1.008,1.296-1.296  c-0.648,1.008-0.648-0.36-0.936-0.36c-0.36,0.36-1.008,0.36-0.72,1.368c0,0.936-0.936-0.36-1.296,0.288l0.36,0.36  c-0.36,0.648-0.72,0-1.008,0c-1.008,0.288,1.296,1.008,0,1.656c0.288-0.648,1.008-0.648,1.296,0c0,0.288-0.288,0.288-0.648,0.288  c0.36,0,0.648,0,0.648,0.36c-0.648,1.296,0.648,2.304,1.656,2.592c1.656,0.72,2.952-0.648,4.608-0.648c0.36,0,0.36-0.648,0.36-0.936  c-1.296,0-2.664,0.936-3.96,0.936c-0.648-0.288-2.016-0.648-2.304-1.656c0-0.288,0.288-0.288,0.648-0.288  c-0.36,0-0.648,0-0.648-0.36C437.719,145.224,438.079,144.864,438.079,144.216z"/>
<path fill="#FFFFFF" d="M434.479,144.216l-0.36,0.36l-0.36-0.36C434.119,144.216,434.119,144.216,434.479,144.216z"/>
<path fill="#FFFFFF" d="M433.759,142.56c0-0.72-0.288-1.296,0-1.944l0.36,0.288c0.36-0.648,0-1.008,0-1.656  c0-0.288-0.36-0.648-0.648-0.288c0,0.288,0.288,0.937-0.36,0.937l-0.288-0.288c0.288,0.288,0.288,0.288,0.648,0.648  c-0.648,0.36-0.648,1.296-1.008,1.944c0,0.72,0.36,1.368,0.648,2.016c0.648,1.008,1.368,0.36,2.016,0.36  C434.119,144.216,433.759,143.568,433.759,142.56z"/>
<path d="M408.991,251.064c0,0-30.312-0.864-32.976,0.288c0,0-3.888,7.848,2.664,7.848l29.736-0.36L408.991,251.064z"/>
<path d="M408.991,242.064c0,0,15.912-0.864,20.088,0.288c0,0,7.488,3.312,1.8,5.76c0,0-19.8-1.224-21.888,0.576  c-2.088-1.8-21.888-0.576-21.888-0.576c-5.688-2.448,1.8-5.76,1.8-5.76C393.079,241.2,408.991,242.064,408.991,242.064z"/>
<path d="M408.991,85.824c0,0,14.688-0.576,21.312,1.512c0,0-2.376,5.4,0.288,6.912c0,0-14.688-2.088-21.6-2.088  s-21.6,2.088-21.6,2.088c2.736-1.512,0.288-6.912,0.288-6.912C394.303,85.248,408.991,85.824,408.991,85.824z"/>
<path d="M408.991,70.848c0,0,18.288-0.936,27,1.8c0,0-7.2,7.2-6.624,12.888c0,0-11.664-2.088-20.376-1.8  c-8.712-0.288-20.376,1.8-20.376,1.8c0.576-5.688-6.624-12.888-6.624-12.888C390.703,69.912,408.991,70.848,408.991,70.848z"/>
<path d="M434.982,67.536l9.504-27.576l-14.112,8.424l-6.048-11.088L416.19,47.88l-7.2-11.736l-7.2,11.736l-8.136-10.584  l-6.048,11.088l-14.112-8.424l9.504,27.576c-0.504,1.008-0.432,2.16,1.296,3.168c0,0,18.432-1.728,24.696-1.728  s24.696,1.728,24.696,1.728C435.415,69.696,435.487,68.544,434.982,67.536z"/>
<path fill="#FFFFFF" d="M408.991,63.216c2.88,0,5.832,0.216,8.64,0.648c-4.824-0.072-8.64,0.072-8.64,0.072  s-3.816-0.144-8.568-0.072C403.159,63.432,406.111,63.216,408.991,63.216z"/>
<path d="M408.991,94.824c0,0,14.688-1.8,20.376,2.088v8.424c-0.72-1.368-2.304-2.592-3.888-3.528  c-0.72-0.504-1.512-0.936-2.016-1.224c-0.432-0.216-0.792-0.36-1.08-0.576c-6.624,0-4.68,3.816-2.088,6.624  c-2.521,1.656-1.512,4.32,0.216,6.552c-4.68-2.88-1.08,6.696-1.08,6.696l0.72,1.8l1.152-1.08c0,0,0.504,0.72,0.648,1.224  c-0.936,4.608,2.016,13.176,5.256,18.432c0.792,1.44,1.584,2.52,2.16,2.88c0.36-0.216,0.648-0.216,0.792-0.216  c0,0,1.296-9.288,3.96-7.632c0,0,9.216-14.184,13.896-7.272c0,0,4.248,1.656-2.016,6.624c0,0,3.312,5.616,1.296,9.576  c-0.936,1.944-1.512,3.816-5.616,7.92c-1.296,1.296-6.912,6.912-9.216,5.256c-2.304-1.656,1.656-7.272,1.656-7.272  s-3.744,1.08-4.752,2.736v2.88c0.216,0.144,0.36,0.216,0.432,0.36c0,0.36,0,0.648-0.288,0.648l0.36,0.36  c0-0.36,0.288-0.36,0.648-0.36c0.288,1.008,0.936,1.008,1.656,1.656c-0.72,0.36,0.288,0.648,0,1.008  c-1.368,0.288-1.368,1.296-2.016,1.944c-0.216,0.216-0.432-0.144-0.792-0.288V162c-9.072,4.752-13.176,1.008-13.176,1.008  l-0.864-0.288c-3.456,0-3.312,2.232-2.808,3.816c-1.8,1.224-0.864,3.816-0.504,4.68c0.144,2.016,1.656,4.104,2.16,4.68  c2.664,6.264,7.416,0,8.352-1.368c1.008-0.648,2.736-1.152,4.464-1.584c0.792-0.144,1.656-0.288,2.376-0.432v45.36  c-1.152-0.648-2.016-1.44-2.304-1.8c-3.024-8.352-13.392-4.608-8.856,0.36c-1.224,0.36-2.592,1.512-3.168,2.736  c-0.72,3.168,1.656,4.968,4.032,5.976c-0.144,0.216-0.216,0.432-0.288,0.648c-0.216,0.576-0.216,1.296-0.144,2.016  c0.144,1.728,1.08,3.528,2.304,4.32c2.16,1.44,3.96-0.288,4.68-1.224c0.504-0.072,1.224-0.072,1.944-0.072  c0.576,0,1.224,0.072,1.8,0.072v9.072h-40.752v-9.072c0.648,0,1.224-0.072,1.8-0.072c0.792,0,1.44,0,1.944,0.072  c0.792,0.936,2.52,2.664,4.68,1.224c1.224-0.792,2.16-2.592,2.376-4.32c0.072-0.72,0-1.44-0.216-2.016  c-0.072-0.216-0.144-0.432-0.288-0.648c2.376-1.008,4.752-2.808,4.104-5.976c-0.648-1.224-1.944-2.376-3.24-2.736  c4.536-4.968-5.76-8.712-8.784-0.36c-0.36,0.36-1.152,1.152-2.376,1.8v-45.36c0.792,0.144,1.584,0.288,2.376,0.432  c1.728,0.432,3.456,0.936,4.464,1.584c0.936,1.368,5.688,7.632,8.352,1.368c0.504-0.576,2.016-2.664,2.16-4.68  c0.36-0.864,1.296-3.456-0.504-4.68c0.504-1.584,0.72-3.816-2.808-3.816l-0.864,0.288c0,0-4.032,3.744-13.176-1.008v-0.936  c-0.36,0.144-0.576,0.504-0.792,0.288c-0.648-0.648-0.648-1.656-1.944-1.944c-0.36-0.36,0.648-0.648,0-1.008  c0.648-0.648,1.296-0.648,1.656-1.656c0.288,0,0.648,0,0.648,0.36l0.288-0.36c-0.288,0-0.288-0.288-0.288-0.648  c0.072-0.144,0.288-0.216,0.432-0.36v-2.88c-1.008-1.656-4.752-2.736-4.752-2.736s3.96,5.616,1.656,7.272  c-2.304,1.656-7.92-3.96-9.216-5.256c-4.104-4.104-4.68-5.976-5.616-7.92c-2.016-3.96,1.296-9.576,1.296-9.576  c-6.264-4.968-1.944-6.624-1.944-6.624c4.608-6.912,13.824,7.272,13.824,7.272c2.664-1.656,3.96,7.632,3.96,7.632  c0.216,0,0.504,0,0.792,0.216c0.576-0.36,1.368-1.44,2.16-2.88c3.24-5.256,6.192-13.824,5.256-18.432  c0.216-0.504,0.72-1.224,0.72-1.224l1.152,1.08l0.648-1.8c0,0,3.6-9.576-1.08-6.696c1.728-2.232,2.736-4.896,0.216-6.552  c2.592-2.808,4.536-6.624-2.088-6.624c-0.288,0.216-0.648,0.36-1.08,0.576c-0.504,0.288-1.224,0.72-2.016,1.224  c-1.584,0.936-3.168,2.16-3.888,3.528v-8.424C394.303,93.024,408.991,94.824,408.991,94.824z"/>
<path d="M422.239,101.304c0,0,7.272,3.312,6.264,5.976c0,0,0.36,9.576,1.296,10.512c0,0,7.92,8.64,7.92,10.224  c0,0-9.72,8.712-9.72,11.304c0,0.36-6.12-13.464-4.752-17.568c0,0-1.368-3.6-2.664-2.304c0,0-2.304-6.264-0.288-4.896l4.248,2.304  v-1.368c0,0-4.68-3.744-4.536-6.336c0.072-2.304,3.528-1.224,4.536-0.216C424.255,108.576,414.895,101.232,422.239,101.304z"/>
<path d="M395.743,101.304c0,0-7.272,3.312-6.264,5.976c0,0-0.36,9.576-1.296,10.512c0,0-7.92,8.64-7.92,10.224  c0,0,9.72,8.712,9.72,11.304c0,0.36,6.12-13.464,4.752-17.568c0,0,1.368-3.6,2.664-2.304c0,0,2.304-6.264,0.36-4.896l-4.32,2.304  v-1.368c0,0,4.752-3.744,4.608-6.336c-0.144-2.304-3.528-1.224-4.608-0.216C393.727,108.576,403.159,101.232,395.743,101.304z"/>
<path fill="#FFFFFF" d="M378.671,135.986c0,0.657-1,0.324-1,0.986c-0.333,0-0.333-0.329-0.333-0.662  c0.333-0.652,0.999-0.652,1.333-1.319c0-0.328,0-0.661-0.334-0.661c0.334-0.324,0.334-0.324,0.648-0.652  c-0.648-0.667-0.648-1.652-1.314-2.646c0-0.328,0-0.986,0.333-1.314c0,0.986,1.315,0.662,1.315,1.314c0,0-0.333,0.333-0.333,0.666  c0.333,0.652,0.667,1.314,1,1.98c0,0.652-0.333,1.313-0.333,1.98C379.652,135.986,378.985,135.986,378.671,135.986"/>
<path fill="#FFFFFF" d="M379.984,144.231c0-0.74,0.334-0.662,0-0.995c-0.333-0.324-1-0.985-1.313-1.319  c0.647,0.995,0.647-0.328,0.981-0.328c0.333,0.328,0.99,0.328,0.667,1.323c0,0.985,0.98-0.329,1.313,0.324l-0.333,0.333  c0.333,0.662,0.667,0,0.99,0c0.99,0.329-1.323,0.995,0,1.647c-0.323-0.652-0.99-0.652-1.323,0c0,0.333,0.333,0.333,0.666,0.333  c-0.333,0-0.666,0-0.666,0.329c0.666,1.319-0.646,2.304-1.646,2.638c-1.647,0.662-2.961-0.652-4.609-0.652  c-0.333,0-0.333-0.667-0.333-1c1.314,0,2.637,1,3.96,1c0.648-0.333,1.981-0.667,2.305-1.652c0-0.333-0.323-0.333-0.657-0.333  c0.334,0,0.657,0,0.657-0.329C380.318,145.217,379.984,144.884,379.984,144.231"/>
<path fill="#FFFFFF" d="M384.269,142.584c0-0.74,0.333-1.328,0-1.981l-0.324,0.329c-0.333-0.662,0-0.995,0-1.647  c0-0.333,0.324-0.662,0.657-0.333c0,0.333-0.333,0.985,0.324,0.985l0.333-0.328c-0.333,0.328-0.333,0.328-0.657,0.661  c0.657,0.333,0.657,1.319,0.991,1.981c0,0.662-0.333,1.318-0.667,1.98c-0.657,0.985-1.313,0.333-1.981,0.333  C383.945,144.231,384.269,143.57,384.269,142.584"/>
<path fill="#FFFFFF" d="M439.382,135.986c0,0.657,1,0.324,1,0.986c0.333,0,0.333-0.329,0.333-0.662  c-0.333-0.652-0.999-0.652-1.333-1.319c0-0.328,0-0.661,0.334-0.661c-0.334-0.324-0.334-0.324-0.648-0.652  c0.648-0.667,0.648-1.652,1.314-2.646c0-0.328,0-0.986-0.333-1.314c0,0.986-1.315,0.662-1.315,1.314c0,0,0.333,0.333,0.333,0.666  c-0.333,0.652-0.667,1.314-1,1.98c0,0.652,0.333,1.313,0.333,1.98C438.401,135.986,439.068,135.986,439.382,135.986"/>
<path fill="#FFFFFF" d="M438.069,144.231c0-0.74-0.334-0.662,0-0.995c0.333-0.324,1-0.985,1.313-1.319  c-0.647,0.995-0.647-0.328-0.981-0.328c-0.333,0.328-0.99,0.328-0.667,1.323c0,0.985-0.98-0.329-1.313,0.324l0.333,0.333  c-0.333,0.662-0.667,0-0.99,0c-0.99,0.329,1.323,0.995,0,1.647c0.323-0.652,0.99-0.652,1.323,0c0,0.333-0.333,0.333-0.666,0.333  c0.333,0,0.666,0,0.666,0.329c-0.666,1.319,0.646,2.304,1.646,2.638c1.647,0.662,2.961-0.652,4.609-0.652  c0.333,0,0.333-0.667,0.333-1c-1.314,0-2.637,1-3.96,1c-0.648-0.333-1.981-0.667-2.305-1.652c0-0.333,0.323-0.333,0.657-0.333  c-0.334,0-0.657,0-0.657-0.329C437.735,145.217,438.069,144.884,438.069,144.231"/>
<path fill="#FFFFFF" d="M433.784,142.584c0-0.74-0.333-1.328,0-1.981l0.324,0.329c0.333-0.662,0-0.995,0-1.647  c0-0.333-0.324-0.662-0.657-0.333c0,0.333,0.333,0.985-0.324,0.985l-0.333-0.328c0.333,0.328,0.333,0.328,0.657,0.661  c-0.657,0.333-0.657,1.319-0.991,1.981c0,0.662,0.333,1.318,0.667,1.98c0.657,0.985,1.313,0.333,1.981,0.333  C434.108,144.231,433.784,143.57,433.784,142.584"/>
</svg>