<?xml version="1.0" encoding="UTF-8" standalone="no"?>
<!-- Created with Inkscape (http://www.inkscape.org/) -->

<svg
   xmlns:dc="http://purl.org/dc/elements/1.1/"
   xmlns:cc="http://creativecommons.org/ns#"
   xmlns:rdf="http://www.w3.org/1999/02/22-rdf-syntax-ns#"
   xmlns:svg="http://www.w3.org/2000/svg"
   xmlns="http://www.w3.org/2000/svg"
   version="1.1"
   width="280"
   height="200"
   id="svg2"
   xml:space="preserve"><metadata
     id="metadata8"><rdf:RDF><cc:Work
         rdf:about=""><dc:format>image/svg+xml</dc:format><dc:type
           rdf:resource="http://purl.org/dc/dcmitype/StillImage" /><dc:title></dc:title></cc:Work></rdf:RDF></metadata><defs
     id="defs6" /><g
     transform="matrix(1.25,0,0,-1.25,-272.0475,472.43128)"
     id="g10"><g
       transform="matrix(0.02687829,0,0,0.02687829,252.838,217.86251)"
       id="g12"><path
         d="m 0,3.07031 5952.76,0 0,5952.75999 -5952.76,0 L 0,3.07031 z"
         id="path14"
         style="fill:#ffffff;fill-opacity:1;fill-rule:evenodd;stroke:none" /><path
         d="M 5266.21,3062.64 C 5216.37,2554.3 5022,2066.14 4750.29,1635.46 4514.59,1261.86 4236.63,941.375 3885.82,672.957 3601.45,455.371 3307.73,274.141 2972.96,144.805 2155.7,461.859 1560.73,1036.22 1136.54,1747.74 857.094,2216.48 706.891,2722.55 674.715,3266.2 c -16.828,284.35 24.777,664.83 76.715,944.34 77.019,414.47 204.84,793.38 373.3,1148.78 l 34.61,23.87 c 470.61,324.53 1259.45,430.9 1826.46,430.9 568.92,0 1336.25,-105.48 1807.74,-432.84 l 35.05,-24.33 c 331.75,-642.47 509.04,-1565.94 437.62,-2294.28"
         id="path16"
         style="fill:#d6931d;fill-opacity:1;fill-rule:evenodd;stroke:none" /><path
         d="m 1265.54,5229.16 c 414.15,285.56 1136.16,417.1 1707.42,417.1 571.27,0 1297.96,-129.88 1713.88,-418.68 268,-473.24 481.34,-1463.25 412.52,-2132.98 -48.9,-475.81 -223.2,-936.85 -481.63,-1346.48 C 4393.43,1392.58 4104.37,1075.74 3772.14,821.539 3526.46,633.555 3257.16,479.82 2972.96,370.02 c -659.2,244.644 -1304.84,821.2 -1701.39,1486.36 -101.08,169.54 -182.98,347.85 -248.31,524.35 -107.217,289.65 -169.401,598.09 -187.455,902.95 -37.395,631.49 213.145,1571.65 429.735,1945.48"
         id="path18"
         style="fill:#2271bf;fill-opacity:1;fill-rule:evenodd;stroke:none" /><path
         d="m 1289.09,4655.2 c -165,-488.04 -301.906,-1090.01 -225.25,-1653.56 25.82,-189.85 65.85,-369.49 134.87,-555.96 93.47,-252.54 221.28,-499.77 374.81,-721.67 97.66,-141.15 209.48,-274.16 329.02,-399.05 303.6,-317.17 684.94,-566.362 1069.39,-728.14 346.28,127.723 658.12,335.2 928.72,581.92 214.31,195.4 403.14,422.38 558.85,669.2 161.79,256.45 290.11,536.34 370.93,829.03 58.75,212.73 79.8,425.08 81.97,644.97 4.44,450.25 -90.7,911.7 -246.65,1329.55 -515.57,238.76 -1093.43,347.03 -1688.35,342.75 -594.94,-4.28 -1206.98,-121.14 -1688.31,-339.04 z m 174.15,-66.7 c -137.7,-427.32 -228.11,-873.21 -219.13,-1315.61 2.44,-120.33 10.83,-240.4 28.59,-359.77 101.3,-680.82 448.15,-1325.88 955.93,-1792.78 190.9,-175.531 428.3,-340.652 743.01,-493.172 262.89,106.352 512.41,275.703 731.47,473.722 309.99,280.23 562.21,624.31 732.82,984.17 177.4,374.17 267.09,790.85 274.31,1203.42 7.74,442.32 -104.14,985.73 -215.76,1292.14 -465.43,233.63 -991.55,339.42 -1518.94,335.62 -516.52,-3.72 -1024.69,-100.28 -1512.3,-327.74"
         id="path20"
         style="fill:#ffffff;fill-opacity:1;fill-rule:evenodd;stroke:none" /><path
         d="m 2992.34,2668.02 c 389.79,0 705.88,-316.1 705.88,-705.88 0,-389.78 -316.09,-705.87 -705.88,-705.87 -389.77,0 -705.87,316.09 -705.87,705.87 0,389.78 316.1,705.88 705.87,705.88 z m 0.01,-74.84 c 348.45,0 631.04,-282.58 631.04,-631.04 0,-348.45 -282.59,-631.04 -631.04,-631.04 -348.46,0 -631.05,282.59 -631.05,631.04 0,348.46 282.59,631.04 631.05,631.04"
         id="path22"
         style="fill:#ffffff;fill-opacity:1;fill-rule:evenodd;stroke:none" /><path
         d="m 1795.58,4104.52 c -48.96,-8.18 -84.1,-26.32 -105.12,-54.39 -20.86,-28.02 -28.67,-66.89 -23,-116.52 l 375.15,62.25 18.25,-109.2 -375.97,-62.83 c 9.43,-54.54 27.82,-91.88 55.47,-111.8 27.5,-19.95 68.72,-25.33 123.52,-16.17 l 222.65,37.21 18.25,-109.18 -229.24,-38.32 c -50.46,-8.43 -90.99,-10.87 -121.27,-7.39 -30.31,3.61 -59.92,13.18 -88.56,28.89 -37.37,20.09 -67.65,49.3 -91.13,87.58 -23.33,38.3 -39.79,86.14 -49.33,143.2 -18.54,110.94 -7.51,196.89 33.06,257.99 40.6,60.96 112.71,100.1 216.47,117.44 l 225.19,37.64 18.26,-109.19 -222.65,-37.21"
         id="path24"
         style="fill:#ffffff;fill-opacity:1;fill-rule:nonzero;stroke:none" /><path
         d="m 2626.21,4178.18 -271.68,-16.13 c -32.52,-1.92 -55.87,-9.98 -70.24,-24.09 -14.44,-14.18 -20.8,-35.53 -19.12,-64.25 1.35,-23.13 8.89,-31.96 22.49,-42.72 13.52,-10.7 33.13,-15.29 58.65,-13.86 l 141.03,7.9 c 66.96,3.75 115.46,-15.1 145.38,-41.02 30,-25.99 46.85,-71.18 50.64,-135.72 3.83,-65.27 -9.68,-114.27 -40.56,-146.84 -30.86,-32.56 -81.39,-50.91 -151.59,-55.03 l -325.46,-19.1 -6.64,113.16 283.73,17.97 c 34.82,2.21 58.97,9.05 72.6,20.97 13.54,11.85 19.6,35.39 18.1,61.02 -1.55,26.52 -9.15,45.01 -22.9,55.44 -13.74,10.42 -36.38,15.05 -68.07,12.85 l -122.02,-8.48 c -73.83,-5.12 -121.55,8.9 -154.24,35.15 -33.27,26.72 -50.87,67.92 -54.56,130.83 -3.95,67.48 9.49,117.67 40.2,150.66 30.69,33 86.3,51.38 157.3,55.68 l 310.31,18.78 6.65,-113.17"
         id="path26"
         style="fill:#ffffff;fill-opacity:1;fill-rule:nonzero;stroke:none" /><path
         d="m 2905.95,4186.8 -208.4,0 0,110.7 557.97,0 0,-110.7 -209.14,0 0,-524.14 -140.43,0 0,524.14"
         id="path28"
         style="fill:#ffffff;fill-opacity:1;fill-rule:nonzero;stroke:none" /><path
         d="m 3469.7,3904.45 159.67,-11.2 -64.23,221.6 -95.44,-210.4 z m 32.9,378.28 138.65,-8.37 205.77,-650.43 -145.11,8.8 -41.7,148.02 -235.64,14.73 -58.22,-139.62 -143.61,8.39 279.86,618.48"
         id="path30"
         style="fill:#ffffff;fill-opacity:1;fill-rule:nonzero;stroke:none" /><path
         d="m 4185.59,4084.24 c -50.96,7.45 -86.96,6.61 -114.5,-24.99 -27.47,-31.52 -47.16,-87.1 -58.78,-166.7 -10.06,-68.92 -4.91,-107.98 12.5,-139.4 17.4,-31.38 52.52,-50.94 105.39,-58.65 l 202.2,-29.54 -17.6,-115.94 -208.19,30.41 c -45.93,6.7 -81.49,16.16 -106.47,28.38 -25.02,12.24 -47.57,30.14 -67.83,53.46 -26.2,30.16 -43.75,66.83 -52.75,110.18 -9,43.41 -9.33,89.05 -0.97,146.3 16.26,111.29 50.67,190.11 103.25,236.58 52.57,46.31 126.01,62.59 220.18,48.84 l 204.66,-29.9 -18.89,-118.56 -202.2,29.53"
         id="path32"
         style="fill:#ffffff;fill-opacity:1;fill-rule:nonzero;stroke:none" /><path
         d="m 1652.88,3230.22 -118.07,0 0,53.73 316.12,0 0,-53.73 -118.49,0 0,-254.38 -79.56,0 0,254.38"
         id="path34"
         style="fill:#e6cf56;fill-opacity:1;fill-rule:nonzero;stroke:none" /><path
         d="m 2206.67,3229.36 -94.15,0 0,-77.58 94.15,0 c 25.53,0 43.25,2.94 53.18,8.81 9.92,5.87 14.93,15.9 14.93,30.16 0,14.18 -4.83,24.14 -14.5,29.95 -9.76,5.8 -27.57,8.66 -53.61,8.66 z m -170.91,55.02 189.06,0 c 44.11,0 76.42,-7.45 96.95,-22.42 20.52,-14.98 30.79,-38.47 30.79,-70.35 0,-23.64 -6.36,-42.91 -19,-57.88 -12.72,-14.98 -30.96,-24.64 -54.79,-28.94 l 91.18,-128.95 -86.43,0 -80.58,121.35 -90.42,0 0,-121.35 -76.76,0 0,308.54"
         id="path36"
         style="fill:#e6cf56;fill-opacity:1;fill-rule:nonzero;stroke:none" /><path
         d="m 2541.45,3133.23 c 0,53.08 15.01,92.55 45.04,118.41 30.11,25.86 75.83,38.83 137.24,38.83 61.91,0 107.72,-13.11 137.41,-39.26 29.77,-26.14 44.61,-66.55 44.61,-121.14 0,-54.51 -14.84,-94.98 -44.61,-121.28 -29.69,-26.29 -75.5,-39.47 -137.41,-39.47 -62.6,0 -108.57,13.25 -138.09,39.69 -29.43,26.43 -44.19,67.84 -44.19,124.22 z m 182.28,104.37 c -32.91,0 -57.59,-8.67 -73.88,-26 -16.28,-17.41 -24.43,-43.63 -24.43,-78.73 0,-38.11 7.89,-65.98 23.75,-83.67 15.78,-17.7 40.63,-26.58 74.56,-26.58 33.42,0 58.18,8.81 74.38,26.36 16.12,17.55 24.18,44.63 24.18,81.17 0,36.6 -8.06,63.68 -24.18,81.23 -16.2,17.48 -40.96,26.22 -74.38,26.22"
         id="path38"
         style="fill:#e6cf56;fill-opacity:1;fill-rule:nonzero;stroke:none" /><path
         d="m 3053.76,3284.38 86.51,0 90.17,-117.77 91.43,117.77 89.23,0 -141.14,-172.29 0,-136.25 -76.76,0 0,136.25 -139.44,172.29"
         id="path40"
         style="fill:#e6cf56;fill-opacity:1;fill-rule:nonzero;stroke:none" /><path
         d="m 3741.3,3230.65 c -27.73,0 -48.76,-5.87 -62.93,-17.62 -14.08,-11.75 -21.97,-29.73 -23.41,-53.94 l 212.47,-0.21 0,-53.74 -212.98,0 c 0.17,-26.86 6.87,-46.2 20.27,-57.95 13.32,-11.75 35.54,-17.62 66.58,-17.62 l 126.13,0 0,-53.73 -129.86,0 c -28.58,0 -51.14,2.08 -67.52,6.16 -16.37,4.16 -31.8,11.11 -46.14,20.92 -18.74,12.61 -32.74,29.01 -42.15,49.22 -9.33,20.2 -13.99,44.41 -13.99,72.49 0,54.59 13.99,94.85 41.98,120.85 27.99,25.93 71.33,38.9 130.11,38.9 l 127.57,0 0,-53.73 -126.13,0"
         id="path42"
         style="fill:#e6cf56;fill-opacity:1;fill-rule:nonzero;stroke:none" /><path
         d="m 4391.27,3229.36 -189.82,0 c -20.44,0 -35.37,-3.22 -44.87,-9.67 -9.59,-6.44 -14.33,-16.62 -14.33,-30.59 0,-11.24 4.07,-19.62 12.21,-25.21 8.06,-5.59 20.18,-8.38 36.22,-8.38 l 101.7,0 c 42.07,0 72.01,-6.74 89.82,-20.13 17.81,-13.47 26.72,-35.83 26.72,-67.2 0,-31.73 -10.26,-55.09 -30.79,-69.99 -20.53,-14.9 -52.84,-22.35 -96.95,-22.35 l -204.5,0 0,55.02 192.37,0 c 21.88,0 37.24,2.72 46.22,8.09 8.91,5.37 13.41,14.26 13.41,26.72 0,12.9 -4.07,22.07 -12.3,27.51 -8.23,5.45 -22.22,8.17 -42.16,8.17 l -90.76,0 c -42.07,0 -72.77,7.09 -92.28,21.28 -19.42,14.25 -29.18,36.67 -29.18,67.26 0,32.81 10.27,56.74 30.71,71.85 20.44,15.12 52.93,22.64 97.54,22.64 l 201.02,0 0,-55.02"
         id="path44"
         style="fill:#e6cf56;fill-opacity:1;fill-rule:nonzero;stroke:none" /><path
         d="m 2364.06,5433.7 71.03,7.27 34.51,-336.91 -71.03,-7.28 -34.51,336.92"
         id="path46"
         style="fill:#ffffff;fill-opacity:1;fill-rule:nonzero;stroke:none" /><path
         d="m 2652.58,5324.56 111.86,0.24 c -0.76,30.74 -7.85,52.45 -21.44,65.26 -13.58,12.74 -36.38,19.12 -68.54,19.12 -21.8,0 -37.58,-3.55 -47.39,-10.62 -9.81,-7.08 -14.72,-18.33 -14.72,-33.9 0,-13.21 3.4,-23.2 10.19,-29.95 6.8,-6.76 16.75,-10.15 30.04,-10.15 z m -4,-57.33 c -38.57,0 -67.02,7.63 -85.37,22.81 -18.26,15.17 -27.39,38.85 -27.39,70.93 0,34.91 12.22,61.33 36.61,79.26 24.37,18.01 60.3,26.97 107.78,26.97 56,0 97.14,-13.75 123.48,-41.36 26.34,-27.52 39.47,-70.53 39.47,-128.88 0,-59.6 -13.88,-103.25 -41.66,-131.08 -27.78,-27.76 -71.7,-41.68 -131.71,-41.68 l -116.31,0 0,58.03 118.12,0 c 30.79,0 53.67,6.84 68.61,20.53 14.94,13.68 23.02,35.15 24.23,64.47 l -115.86,0"
         id="path48"
         style="fill:#ffffff;fill-opacity:1;fill-rule:nonzero;stroke:none" /><path
         d="m 2967.38,5293.97 c -14.42,10.62 -25.29,22.65 -32.45,36.17 -7.25,13.53 -10.88,28.55 -10.88,45.14 0,29.96 8.68,52.06 25.97,66.29 17.36,14.23 44.31,21.31 80.84,21.31 l 87.78,0 c 36.23,0 63.17,-7.08 80.68,-21.31 17.59,-14.23 26.35,-36.02 26.35,-65.35 0,-16.9 -3.63,-32.24 -10.95,-45.92 -7.32,-13.76 -18.04,-25.87 -32.15,-36.33 16.23,-7.23 28.08,-17.22 35.7,-30.04 7.62,-12.82 11.4,-29.4 11.4,-49.69 0,-28.7 -8.69,-50.88 -26.12,-66.53 -17.36,-15.64 -42.27,-23.51 -74.5,-23.51 l -107.7,0 c -32.38,0 -57.37,7.87 -74.88,23.51 -17.43,15.65 -26.19,37.98 -26.19,67 0,19.66 3.85,36.01 11.63,48.99 7.69,12.97 19.55,23.04 35.47,30.27 z m 82.5,-28.78 c -17.97,0 -31.25,-3.3 -39.78,-9.99 -8.53,-6.68 -12.83,-17.21 -12.83,-31.45 0,-14.31 4.22,-24.85 12.61,-31.53 8.37,-6.68 21.73,-9.99 40,-9.99 l 50.19,0 c 18.27,0 31.7,3.31 40.23,9.99 8.53,6.68 12.84,17.22 12.84,31.53 0,14.08 -4.31,24.54 -12.91,31.3 -8.69,6.76 -22.04,10.14 -40.16,10.14 l -50.19,0 z m 0.91,139.89 c -18.27,0 -31.71,-3.38 -40.24,-10.06 -8.52,-6.68 -12.82,-17.06 -12.82,-31.22 0,-14 4.22,-24.22 12.67,-30.75 8.53,-6.52 21.97,-9.82 40.39,-9.82 l 49.28,0 c 18.27,0 31.63,3.3 40,9.82 8.38,6.53 12.61,16.75 12.61,30.75 0,14.31 -4.23,24.77 -12.61,31.38 -8.37,6.6 -21.73,9.9 -40,9.9 l -49.28,0"
         id="path50"
         style="fill:#ffffff;fill-opacity:1;fill-rule:nonzero;stroke:none" /><path
         d="m 3495.65,5236.64 -111.58,7.84 c -1.94,-29.73 3.47,-51.79 16.15,-66.16 12.76,-14.38 34.28,-22.59 64.55,-24.72 22.89,-1.61 39.69,0.76 50.21,7.11 10.58,6.35 16.43,17.37 17.54,33.14 0.93,13.33 -1.67,23.61 -7.83,30.74 -6.16,7.13 -15.79,11.12 -29.04,12.05 z m 8.06,57.61 c 38.33,-2.7 66.18,-12.3 83.39,-28.88 17.23,-16.51 24.76,-40.76 22.51,-72.77 -2.44,-34.67 -16.48,-60.09 -42.14,-76.25 -25.73,-16.25 -62.13,-22.68 -109.33,-19.36 -55.87,3.93 -96.02,20.47 -120.45,49.62 -24.37,29.07 -34.53,72.82 -30.43,131.18 4.18,59.31 21.25,101.94 51.14,127.89 29.89,25.89 74.62,36.77 134.1,32.59 l 115.65,-8.13 -4.06,-57.66 -117.38,8.26 c -32.22,2.26 -56.04,-2.84 -71.51,-15.23 -15.55,-12.39 -24.52,-33.44 -27.06,-63.13 l 115.57,-8.13"
         id="path52"
         style="fill:#ffffff;fill-opacity:1;fill-rule:nonzero;stroke:none" /><path
         d="m 2790.64,1674.74 -109.59,0 0,463.33 -96.73,-33.12 0,100.38 147.66,62.46 58.66,0 0,-593.05"
         id="path54"
         style="fill:#ffffff;fill-opacity:1;fill-rule:nonzero;stroke:none" /><path
         d="m 3081.16,2079.48 0,-216.86 c 0,-69.26 26.37,-105.09 100.32,-105.09 75.9,0 101.15,37.94 101.15,108.36 l 0,221.92 c 0,65.3 -28.95,89.55 -100.33,89.55 -72.56,0 -101.14,-29.39 -101.14,-97.88 z m -113.96,-21.63 c 0,36.17 2.85,64.15 8.46,83.79 5.58,19.52 14.91,37.27 27.57,53.78 20.09,26.21 43.83,45.93 71.51,58.68 27.72,12.77 70.99,19.24 107.56,19.24 34.12,0 76.72,-6.7 105.38,-20.2 28.65,-13.5 53.49,-33.3 74.51,-59.36 12,-14.87 20.74,-33.04 26.2,-54.46 5.44,-21.28 8.19,-49.01 8.19,-83.11 l 0,-179.18 c 0,-36.15 -2.89,-64.28 -8.46,-84.07 -5.6,-19.91 -14.93,-37.8 -27.57,-54.17 -20.1,-26.06 -43.69,-45.57 -71.37,-58.28 -27.58,-12.66 -70.85,-18.97 -107.7,-18.97 -34.12,0 -76.72,6.69 -105.37,20.2 -28.66,13.5 -53.49,33.3 -74.52,59.36 -12,14.88 -20.75,33.03 -26.2,54.19 -5.46,21.14 -8.19,48.72 -8.19,82.56 l 0,180"
         id="path56"
         style="fill:#ffffff;fill-opacity:1;fill-rule:nonzero;stroke:none" /></g></g></svg>