<?xml version="1.0" encoding="UTF-8" standalone="no"?>
<!-- Created with Inkscape (http://www.inkscape.org/) -->

<svg
   xmlns:dc="http://purl.org/dc/elements/1.1/"
   xmlns:cc="http://creativecommons.org/ns#"
   xmlns:rdf="http://www.w3.org/1999/02/22-rdf-syntax-ns#"
   xmlns:svg="http://www.w3.org/2000/svg"
   xmlns="http://www.w3.org/2000/svg"
   version="1.0"
   width="280"
   height="207.58"
   id="svg49890"
   xml:space="preserve"><metadata
     id="metadata5538"><rdf:RDF><cc:Work
         rdf:about=""><dc:format>image/svg+xml</dc:format><dc:type
           rdf:resource="http://purl.org/dc/dcmitype/StillImage" /><dc:title></dc:title></cc:Work></rdf:RDF></metadata><defs
     id="defs49893"><clipPath
       id="clipPath49905"><path
         d="M 0,841 595,841 595,0 0,0 0,841 z"
         id="path49907" /></clipPath><clipPath
       id="clipPath49911"><path
         d="m 0.36,841.68 595.44,0 L 595.8,0 0.36,0 l 0,841.68 z"
         id="path49913" /></clipPath><clipPath
       id="clipPath50001"><path
         d="m 399.685,682.535 68.031,0 0,-70 -68.031,0 0,70 z"
         id="path50003" /></clipPath><clipPath
       id="clipPath50007"><path
         d="M 0,841 595,841 595,0 0,0 0,841 z"
         id="path50009" /></clipPath><clipPath
       id="clipPath50013"><path
         d="m 0.36,841.68 595.44,0 L 595.8,0 0.36,0 l 0,841.68 z"
         id="path50015" /></clipPath><clipPath
       id="clipPath50063"><path
         d="m 484.724,682.535 68.032,0 0,-70 -68.032,0 0,70 z"
         id="path50065" /></clipPath><clipPath
       id="clipPath50069"><path
         d="M 0,841 595,841 595,0 0,0 0,841 z"
         id="path50071" /></clipPath><clipPath
       id="clipPath50075"><path
         d="m 0.36,841.68 595.44,0 L 595.8,0 0.36,0 l 0,841.68 z"
         id="path50077" /></clipPath><clipPath
       id="clipPath50149"><path
         d="m 144.567,682.535 68.031,0 0,-70 -68.031,0 0,70 z"
         id="path50151" /></clipPath><clipPath
       id="clipPath50155"><path
         d="M 0,841 595,841 595,0 0,0 0,841 z"
         id="path50157" /></clipPath><clipPath
       id="clipPath50161"><path
         d="m 0.36,841.68 595.44,0 L 595.8,0 0.36,0 l 0,841.68 z"
         id="path50163" /></clipPath><clipPath
       id="clipPath50327"><path
         d="m 229.606,682.535 68.032,0 0,-70 -68.032,0 0,70 z"
         id="path50329" /></clipPath><clipPath
       id="clipPath50333"><path
         d="M 0,841 595,841 595,0 0,0 0,841 z"
         id="path50335" /></clipPath><clipPath
       id="clipPath50339"><path
         d="m 0.36,841.68 595.44,0 L 595.8,0 0.36,0 l 0,841.68 z"
         id="path50341" /></clipPath><clipPath
       id="clipPath50401"><path
         d="m 314.646,682.535 68.031,0 0,-70 -68.031,0 0,70 z"
         id="path50403" /></clipPath><clipPath
       id="clipPath50407"><path
         d="M 0,841 595,841 595,0 0,0 0,841 z"
         id="path50409" /></clipPath><clipPath
       id="clipPath50413"><path
         d="m 0.36,841.68 595.44,0 L 595.8,0 0.36,0 l 0,841.68 z"
         id="path50415" /></clipPath><clipPath
       id="clipPath50447"><path
         d="m 458.677,531.224 c 0,-0.192 0,-0.384 0,-0.576 -0.012,0 -0.024,0 -0.036,0 0,-0.132 0,-0.264 0,-0.396 -0.012,0 -0.024,0 -0.036,0 0,-0.12 0,-0.24 0,-0.36 -0.012,0 -0.024,0 -0.036,0 0,-0.108 0,-0.216 0,-0.324 -0.012,0 -0.024,0 -0.036,0 0,-0.096 0,-0.192 0,-0.288 -0.103,-0.353 -0.112,-0.806 -0.216,-1.152 0,-0.072 0,-0.144 0,-0.216 -0.117,-0.381 -0.168,-0.852 -0.288,-1.224 0,-0.06 0,-0.12 0,-0.18 -0.102,-0.312 -0.182,-0.698 -0.288,-1.008 -0.012,-0.096 -0.024,-0.192 -0.036,-0.288 -0.188,-0.521 -0.339,-1.116 -0.54,-1.62 -0.06,-0.216 -0.12,-0.432 -0.18,-0.648 -0.012,0 -0.024,0 -0.036,0 0,-0.024 0,-0.048 0,-0.072 -0.012,0 -0.024,0 -0.036,0 -0.012,-0.072 -0.024,-0.144 -0.036,-0.216 -0.012,0 -0.024,0 -0.036,0 0,-0.024 0,-0.048 0,-0.072 -0.012,0 -0.024,0 -0.036,0 -0.012,-0.072 -0.024,-0.144 -0.036,-0.216 -0.012,0 -0.024,0 -0.036,0 0,-0.024 0,-0.048 0,-0.072 -0.012,0 -0.024,0 -0.036,0 0,-0.036 0,-0.072 0,-0.108 -0.012,0 -0.024,0 -0.036,0 0,-0.024 0,-0.048 0,-0.072 -0.012,0 -0.024,0 -0.036,0 -0.012,-0.06 -0.024,-0.12 -0.036,-0.18 -0.012,0 -0.024,0 -0.036,0 0,-0.036 0,-0.072 0,-0.108 -0.012,0 -0.024,0 -0.036,0 0,-0.024 0,-0.048 0,-0.072 -0.012,0 -0.024,0 -0.036,0 0,-0.036 0,-0.072 0,-0.108 -0.012,0 -0.024,0 -0.036,0 -0.012,-0.048 -0.024,-0.096 -0.036,-0.144 -0.012,0 -0.024,0 -0.036,0 0,-0.036 0,-0.072 0,-0.108 -0.012,0 -0.024,0 -0.036,0 -0.012,-0.048 -0.024,-0.096 -0.036,-0.144 -0.012,0 -0.024,0 -0.036,0 0,-0.036 0,-0.072 0,-0.108 -0.012,0 -0.024,0 -0.036,0 0,-0.024 0,-0.048 0,-0.072 -0.012,0 -0.024,0 -0.036,0 0,-0.024 0,-0.048 0,-0.072 -0.012,0 -0.024,0 -0.036,0 -0.024,-0.072 -0.048,-0.144 -0.072,-0.216 -0.012,0 -0.024,0 -0.036,0 0,-0.036 0,-0.072 0,-0.108 -0.012,0 -0.024,0 -0.036,0 -0.024,-0.072 -0.048,-0.144 -0.072,-0.216 -0.012,0 -0.024,0 -0.036,0 0,-0.024 0,-0.048 0,-0.072 -0.012,0 -0.024,0 -0.036,0 0,-0.024 0,-0.048 0,-0.072 -0.012,0 -0.024,0 -0.036,0 0,-0.024 0,-0.048 0,-0.072 -0.012,0 -0.024,0 -0.036,0 0,-0.024 0,-0.048 0,-0.072 -0.012,0 -0.024,0 -0.036,0 -0.012,-0.06 -0.024,-0.12 -0.036,-0.18 -0.024,-0.012 -0.048,-0.024 -0.072,-0.036 0,-0.024 0,-0.048 0,-0.072 l -0.072,-0.072 c 0,-0.024 0,-0.048 0,-0.072 -0.012,0 -0.024,0 -0.036,0 0,-0.024 0,-0.048 0,-0.072 -0.012,0 -0.024,0 -0.036,0 0,-0.024 0,-0.048 0,-0.072 -0.012,0 -0.024,0 -0.036,0 0,-0.024 0,-0.048 0,-0.072 -0.012,0 -0.024,0 -0.036,0 0,-0.024 0,-0.048 0,-0.072 l -0.072,-0.072 c 0,-0.024 0,-0.048 0,-0.072 -0.024,-0.012 -0.048,-0.024 -0.072,-0.036 0,-0.024 0,-0.048 0,-0.072 l -0.072,-0.072 c 0,-0.024 0,-0.048 0,-0.072 -0.012,0 -0.024,0 -0.036,0 0,-0.024 0,-0.048 0,-0.072 -0.012,0 -0.024,0 -0.036,0 0,-0.024 0,-0.048 0,-0.072 -0.024,-0.012 -0.048,-0.024 -0.072,-0.036 -0.024,-0.072 -0.048,-0.144 -0.072,-0.216 -0.024,-0.012 -0.048,-0.024 -0.072,-0.036 -0.012,-0.048 -0.024,-0.096 -0.036,-0.144 -0.024,-0.012 -0.048,-0.024 -0.072,-0.036 -0.024,-0.072 -0.048,-0.144 -0.072,-0.216 -0.024,-0.012 -0.048,-0.024 -0.072,-0.036 0,-0.024 0,-0.048 0,-0.072 -0.024,-0.012 -0.048,-0.024 -0.072,-0.036 -0.012,-0.048 -0.024,-0.096 -0.036,-0.144 -0.012,0 -0.024,0 -0.036,0 -0.012,-0.036 -0.024,-0.072 -0.036,-0.108 -0.024,-0.012 -0.048,-0.024 -0.072,-0.036 -0.012,-0.048 -0.024,-0.096 -0.036,-0.144 -0.024,-0.012 -0.048,-0.024 -0.072,-0.036 0,-0.024 0,-0.048 0,-0.072 -0.024,-0.012 -0.048,-0.024 -0.072,-0.036 0,-0.024 0,-0.048 0,-0.072 -0.012,0 -0.024,0 -0.036,0 -0.012,-0.036 -0.024,-0.072 -0.036,-0.108 -0.024,-0.012 -0.048,-0.024 -0.072,-0.036 0,-0.024 0,-0.048 0,-0.072 -0.012,0 -0.024,0 -0.036,0 -0.012,-0.036 -0.024,-0.072 -0.036,-0.108 -0.024,-0.012 -0.048,-0.024 -0.072,-0.036 0,-0.024 0,-0.048 0,-0.072 -0.036,-0.024 -0.072,-0.048 -0.108,-0.072 0,-0.024 0,-0.048 0,-0.072 -0.024,-0.012 -0.048,-0.024 -0.072,-0.036 0,-0.024 0,-0.048 0,-0.072 -0.036,-0.024 -0.072,-0.048 -0.108,-0.072 0,-0.024 0,-0.048 0,-0.072 -0.024,-0.012 -0.048,-0.024 -0.072,-0.036 0,-0.024 0,-0.048 0,-0.072 -0.036,-0.024 -0.072,-0.048 -0.108,-0.072 0,-0.024 0,-0.048 0,-0.072 -0.036,-0.024 -0.072,-0.048 -0.108,-0.072 0,-0.024 0,-0.048 0,-0.072 -0.048,-0.036 -0.096,-0.072 -0.144,-0.108 0,-0.024 0,-0.048 0,-0.072 -0.048,-0.036 -0.096,-0.072 -0.144,-0.108 -0.012,-0.036 -0.024,-0.072 -0.036,-0.108 -0.024,-0.012 -0.048,-0.024 -0.072,-0.036 0,-0.024 0,-0.048 0,-0.072 -0.06,-0.048 -0.12,-0.096 -0.18,-0.144 0,-0.024 0,-0.048 0,-0.072 -0.06,-0.048 -0.12,-0.096 -0.18,-0.144 0,-0.024 0,-0.048 0,-0.072 -0.072,-0.06 -0.144,-0.12 -0.216,-0.18 0,-0.024 0,-0.048 0,-0.072 -0.096,-0.084 -0.192,-0.168 -0.288,-0.252 -0.012,-0.036 -0.024,-0.072 -0.036,-0.108 -0.168,-0.156 -0.336,-0.312 -0.504,-0.468 -0.216,-0.228 -0.432,-0.456 -0.648,-0.684 -0.024,0 -0.048,0 -0.072,0 -0.096,-0.108 -0.192,-0.216 -0.288,-0.324 -0.024,0 -0.048,0 -0.072,0 -0.012,-0.024 -0.024,-0.048 -0.036,-0.072 -0.012,0 -0.024,0 -0.036,0 -0.036,-0.048 -0.072,-0.096 -0.108,-0.144 -0.024,0 -0.048,0 -0.072,0 -0.06,-0.072 -0.12,-0.144 -0.18,-0.216 -0.024,0 -0.048,0 -0.072,0 -0.012,-0.024 -0.024,-0.048 -0.036,-0.072 -0.012,0 -0.024,0 -0.036,0 -0.024,-0.036 -0.048,-0.072 -0.072,-0.108 -0.024,0 -0.048,0 -0.072,0 -0.048,-0.06 -0.096,-0.12 -0.144,-0.18 -0.024,0 -0.048,0 -0.072,0 -0.036,-0.048 -0.072,-0.096 -0.108,-0.144 -0.024,0 -0.048,0 -0.072,0 -0.036,-0.048 -0.072,-0.096 -0.108,-0.144 -0.024,0 -0.048,0 -0.072,0 -0.036,-0.048 -0.072,-0.096 -0.108,-0.144 -0.024,0 -0.048,0 -0.072,0 -0.024,-0.036 -0.048,-0.072 -0.072,-0.108 -0.024,0 -0.048,0 -0.072,0 -0.036,-0.048 -0.072,-0.096 -0.108,-0.144 -0.024,0 -0.048,0 -0.072,0 -0.024,-0.036 -0.048,-0.072 -0.072,-0.108 -0.024,0 -0.048,0 -0.072,0 -0.024,-0.036 -0.048,-0.072 -0.072,-0.108 -0.024,0 -0.048,0 -0.072,0 -0.024,-0.036 -0.048,-0.072 -0.072,-0.108 -0.024,0 -0.048,0 -0.072,0 -0.012,-0.024 -0.024,-0.048 -0.036,-0.072 -0.024,0 -0.048,0 -0.072,0 -0.012,-0.024 -0.024,-0.048 -0.036,-0.072 -0.036,-0.012 -0.072,-0.024 -0.108,-0.036 -0.024,-0.036 -0.048,-0.072 -0.072,-0.108 -0.024,0 -0.048,0 -0.072,0 0,-0.012 0,-0.024 0,-0.036 -0.036,-0.012 -0.072,-0.024 -0.108,-0.036 -0.012,-0.024 -0.024,-0.048 -0.036,-0.072 -0.024,0 -0.048,0 -0.072,0 -0.024,-0.036 -0.048,-0.072 -0.072,-0.108 -0.024,0 -0.048,0 -0.072,0 -0.012,-0.024 -0.024,-0.048 -0.036,-0.072 -0.036,-0.012 -0.072,-0.024 -0.108,-0.036 0,-0.012 0,-0.024 0,-0.036 -0.024,0 -0.048,0 -0.072,0 -0.012,-0.024 -0.024,-0.048 -0.036,-0.072 -0.024,0 -0.048,0 -0.072,0 -0.012,-0.024 -0.024,-0.048 -0.036,-0.072 -0.024,0 -0.048,0 -0.072,0 -0.012,-0.024 -0.024,-0.048 -0.036,-0.072 -0.024,0 -0.048,0 -0.072,0 -0.012,-0.024 -0.024,-0.048 -0.036,-0.072 -0.024,0 -0.048,0 -0.072,0 -0.012,-0.024 -0.024,-0.048 -0.036,-0.072 -0.024,0 -0.048,0 -0.072,0 -0.012,-0.024 -0.024,-0.048 -0.036,-0.072 -0.024,0 -0.048,0 -0.072,0 -0.012,-0.024 -0.024,-0.048 -0.036,-0.072 -0.048,-0.012 -0.096,-0.024 -0.144,-0.036 -0.012,-0.024 -0.024,-0.048 -0.036,-0.072 -0.024,0 -0.048,0 -0.072,0 -0.012,-0.024 -0.024,-0.048 -0.036,-0.072 -0.048,-0.012 -0.096,-0.024 -0.144,-0.036 -0.012,-0.024 -0.024,-0.048 -0.036,-0.072 -0.048,-0.012 -0.096,-0.024 -0.144,-0.036 -0.012,-0.024 -0.024,-0.048 -0.036,-0.072 -0.048,-0.012 -0.096,-0.024 -0.144,-0.036 -0.012,-0.024 -0.024,-0.048 -0.036,-0.072 -0.048,-0.012 -0.096,-0.024 -0.144,-0.036 -0.012,-0.024 -0.024,-0.048 -0.036,-0.072 -0.072,-0.024 -0.144,-0.048 -0.216,-0.072 -0.012,-0.024 -0.024,-0.048 -0.036,-0.072 -0.024,0 -0.048,0 -0.072,0 0,-0.012 0,-0.024 0,-0.036 -0.024,0 -0.048,0 -0.072,0 l -0.072,-0.072 c -0.024,0 -0.048,0 -0.072,0 -0.012,-0.024 -0.024,-0.048 -0.036,-0.072 -0.192,-0.084 -0.384,-0.168 -0.576,-0.252 -0.012,-0.024 -0.024,-0.048 -0.036,-0.072 -0.072,-0.024 -0.144,-0.048 -0.216,-0.072 0,-0.012 0,-0.024 0,-0.036 -0.024,0 -0.048,0 -0.072,0 0,-0.012 0,-0.024 0,-0.036 -0.072,-0.024 -0.144,-0.048 -0.216,-0.072 0,-0.012 0,-0.024 0,-0.036 -0.036,0 -0.072,0 -0.108,0 0,-0.012 0,-0.024 0,-0.036 -0.024,0 -0.048,0 -0.072,0 0,-0.012 0,-0.024 0,-0.036 -0.024,0 -0.048,0 -0.072,0 0,-0.012 0,-0.024 0,-0.036 -0.024,0 -0.048,0 -0.072,0 0,-0.012 0,-0.024 0,-0.036 -0.072,-0.024 -0.144,-0.048 -0.216,-0.072 0,-0.012 0,-0.024 0,-0.036 -0.108,-0.036 -0.216,-0.072 -0.324,-0.108 0,-0.012 0,-0.024 0,-0.036 -0.024,0 -0.048,0 -0.072,0 0,-0.012 0,-0.024 0,-0.036 -0.036,0 -0.072,0 -0.108,0 0,-0.012 0,-0.024 0,-0.036 -0.024,0 -0.048,0 -0.072,0 0,-0.012 0,-0.024 0,-0.036 -0.036,0 -0.072,0 -0.108,0 0,-0.012 0,-0.024 0,-0.036 -0.048,-0.012 -0.096,-0.024 -0.144,-0.036 0,-0.012 0,-0.024 0,-0.036 -0.036,0 -0.072,0 -0.108,0 0,-0.012 0,-0.024 0,-0.036 -0.024,0 -0.048,0 -0.072,0 0,-0.012 0,-0.024 0,-0.036 -0.036,0 -0.072,0 -0.108,0 0,-0.012 0,-0.024 0,-0.036 -0.024,0 -0.048,0 -0.072,0 0,-0.012 0,-0.024 0,-0.036 -0.06,-0.012 -0.12,-0.024 -0.18,-0.036 0,-0.012 0,-0.024 0,-0.036 -0.036,0 -0.072,0 -0.108,0 0,-0.012 0,-0.024 0,-0.036 -0.024,0 -0.048,0 -0.072,0 0,-0.012 0,-0.024 0,-0.036 -0.108,-0.024 -0.216,-0.048 -0.324,-0.072 0,-0.012 0,-0.024 0,-0.036 -0.024,0 -0.048,0 -0.072,0 0,-0.012 0,-0.024 0,-0.036 -0.036,0 -0.072,0 -0.108,0 0,-0.012 0,-0.024 0,-0.036 -0.036,0 -0.072,0 -0.108,0 0,-0.012 0,-0.024 0,-0.036 -0.036,0 -0.072,0 -0.108,0 0,-0.012 0,-0.024 0,-0.036 -0.036,0 -0.072,0 -0.108,0 0,-0.012 0,-0.024 0,-0.036 -0.036,0 -0.072,0 -0.108,0 -0.589,-0.234 -1.28,-0.374 -1.908,-0.576 -0.06,0 -0.12,0 -0.18,0 0,-0.012 0,-0.024 0,-0.036 -0.048,0 -0.096,0 -0.144,0 0,-0.012 0,-0.024 0,-0.036 -0.048,0 -0.096,0 -0.144,0 0,-0.012 0,-0.024 0,-0.036 -0.06,0 -0.12,0 -0.18,0 0,-0.012 0,-0.024 0,-0.036 -0.06,0 -0.12,0 -0.18,0 0,-0.012 0,-0.024 0,-0.036 -0.12,-0.012 -0.24,-0.024 -0.36,-0.036 0,-0.012 0,-0.024 0,-0.036 -0.072,0 -0.144,0 -0.216,0 -0.365,-0.109 -0.848,-0.108 -1.224,-0.216 -0.108,0 -0.216,0 -0.324,0 0,-0.012 0,-0.024 0,-0.036 -0.108,0 -0.216,0 -0.324,0 0,-0.012 0,-0.024 0,-0.036 -0.132,0 -0.264,0 -0.396,0 -0.05,-0.008 0.013,-0.022 -0.036,-0.036 -0.156,0 -0.312,0 -0.468,0 0,-0.012 0,-0.024 0,-0.036 -0.217,-0.061 -0.58,0.024 -0.792,-0.036 -0.324,0 -0.648,0 -0.972,0 -0.331,0 -0.774,-0.04 -1.044,0.036 -0.218,0.062 -0.56,-0.019 -0.756,0.036 -0.18,0 -0.36,0 -0.54,0 0,0.012 0,0.024 0,0.036 -0.24,0.012 -0.48,0.024 -0.72,0.036 -0.66,0.096 -1.32,0.192 -1.98,0.288 -0.636,0.144 -1.272,0.288 -1.908,0.432 0,0.012 0,0.024 0,0.036 -0.084,0.012 -0.168,0.024 -0.252,0.036 0,0.012 0,0.024 0,0.036 -0.084,0.012 -0.168,0.024 -0.252,0.036 0,0.012 0,0.024 0,0.036 -0.084,0.012 -0.168,0.024 -0.252,0.036 0,0.012 0,0.024 0,0.036 -0.036,0 -0.072,0 -0.108,0 0,0.012 0,0.024 0,0.036 -0.036,0 -0.072,0 -0.108,0 0,0.012 0,0.024 0,0.036 -0.036,0 -0.072,0 -0.108,0 0,0.012 0,0.024 0,0.036 -0.048,0 -0.096,0 -0.144,0 0,0.012 0,0.024 0,0.036 -0.036,0 -0.072,0 -0.108,0 0,0.012 0,0.024 0,0.036 -0.036,0 -0.072,0 -0.108,0 0,0.012 0,0.024 0,0.036 -0.036,0 -0.072,0 -0.108,0 0,0.012 0,0.024 0,0.036 -0.036,0 -0.072,0 -0.108,0 0,0.012 0,0.024 0,0.036 -0.024,0 -0.048,0 -0.072,0 0,0.012 0,0.024 0,0.036 -0.036,0 -0.072,0 -0.108,0 0,0.012 0,0.024 0,0.036 -0.036,0 -0.072,0 -0.108,0 0,0.012 0,0.024 0,0.036 -0.036,0 -0.072,0 -0.108,0 0,0.012 0,0.024 0,0.036 -0.036,0 -0.072,0 -0.108,0 0,0.012 0,0.024 0,0.036 -0.036,0 -0.072,0 -0.108,0 0,0.012 0,0.024 0,0.036 -0.024,0 -0.048,0 -0.072,0 0,0.012 0,0.024 0,0.036 -0.036,0 -0.072,0 -0.108,0 0,0.012 0,0.024 0,0.036 -0.024,0 -0.048,0 -0.072,0 0,0.012 0,0.024 0,0.036 -0.072,0.012 -0.144,0.024 -0.216,0.036 0,0.012 0,0.024 0,0.036 -0.024,0 -0.048,0 -0.072,0 0,0.012 0,0.024 0,0.036 -0.036,0 -0.072,0 -0.108,0 0,0.012 0,0.024 0,0.036 -0.048,0.012 -0.096,0.024 -0.144,0.036 0,0.012 0,0.024 0,0.036 -0.036,0 -0.072,0 -0.108,0 0,0.012 0,0.024 0,0.036 -0.024,0 -0.048,0 -0.072,0 0,0.012 0,0.024 0,0.036 -0.036,0 -0.072,0 -0.108,0 0,0.012 0,0.024 0,0.036 -0.048,0.012 -0.096,0.024 -0.144,0.036 0,0.012 0,0.024 0,0.036 -0.036,0 -0.072,0 -0.108,0 0,0.012 0,0.024 0,0.036 -0.024,0 -0.048,0 -0.072,0 0,0.012 0,0.024 0,0.036 -0.024,0 -0.048,0 -0.072,0 0,0.012 0,0.024 0,0.036 -0.024,0 -0.048,0 -0.072,0 0,0.012 0,0.024 0,0.036 -0.036,0 -0.072,0 -0.108,0 0,0.012 0,0.024 0,0.036 -0.024,0 -0.048,0 -0.072,0 0,0.012 0,0.024 0,0.036 -0.072,0.024 -0.144,0.048 -0.216,0.072 0,0.012 0,0.024 0,0.036 -0.036,0 -0.072,0 -0.108,0 0,0.012 0,0.024 0,0.036 -0.072,0.024 -0.144,0.048 -0.216,0.072 0,0.012 0,0.024 0,0.036 -0.024,0 -0.048,0 -0.072,0 0,0.012 0,0.024 0,0.036 -0.024,0 -0.048,0 -0.072,0 0,0.012 0,0.024 0,0.036 -0.024,0 -0.048,0 -0.072,0 0,0.012 0,0.024 0,0.036 -0.024,0 -0.048,0 -0.072,0 0,0.012 0,0.024 0,0.036 -0.024,0 -0.048,0 -0.072,0 0,0.012 0,0.024 0,0.036 -0.024,0 -0.048,0 -0.072,0 l -0.072,0.072 c -0.024,0 -0.048,0 -0.072,0 -0.012,0.024 -0.024,0.048 -0.036,0.072 -0.024,0 -0.048,0 -0.072,0 l -0.072,0.072 c -0.024,0 -0.048,0 -0.072,0 0,0.012 0,0.024 0,0.036 -0.024,0 -0.048,0 -0.072,0 0,0.012 0,0.024 0,0.036 -0.024,0 -0.048,0 -0.072,0 0,0.012 0,0.024 0,0.036 -0.048,0.012 -0.096,0.024 -0.144,0.036 -0.012,0.024 -0.024,0.048 -0.036,0.072 -0.072,0.024 -0.144,0.048 -0.216,0.072 -0.012,0.024 -0.024,0.048 -0.036,0.072 -0.072,0.024 -0.144,0.048 -0.216,0.072 -0.012,0.024 -0.024,0.048 -0.036,0.072 -0.072,0.024 -0.144,0.048 -0.216,0.072 -0.012,0.024 -0.024,0.048 -0.036,0.072 -0.024,0 -0.048,0 -0.072,0 0,0.012 0,0.024 0,0.036 -0.024,0 -0.048,0 -0.072,0 0,0.012 0,0.024 0,0.036 -0.036,0.012 -0.072,0.024 -0.108,0.036 -0.012,0.024 -0.024,0.048 -0.036,0.072 -0.048,0.012 -0.096,0.024 -0.144,0.036 0,0.012 0,0.024 0,0.036 -0.036,0.012 -0.072,0.024 -0.108,0.036 -0.012,0.024 -0.024,0.048 -0.036,0.072 -0.048,0.012 -0.096,0.024 -0.144,0.036 -0.012,0.024 -0.024,0.048 -0.036,0.072 -0.024,0 -0.048,0 -0.072,0 0,0.012 0,0.024 0,0.036 -0.036,0.012 -0.072,0.024 -0.108,0.036 -0.012,0.024 -0.024,0.048 -0.036,0.072 -0.024,0 -0.048,0 -0.072,0 -0.012,0.024 -0.024,0.048 -0.036,0.072 -0.024,0 -0.048,0 -0.072,0 -0.012,0.024 -0.024,0.048 -0.036,0.072 -0.024,0 -0.048,0 -0.072,0 -0.012,0.024 -0.024,0.048 -0.036,0.072 -0.024,0 -0.048,0 -0.072,0 0,0.012 0,0.024 0,0.036 -0.036,0.012 -0.072,0.024 -0.108,0.036 -0.012,0.024 -0.024,0.048 -0.036,0.072 -0.024,0 -0.048,0 -0.072,0 -0.024,0.036 -0.048,0.072 -0.072,0.108 -0.024,0 -0.048,0 -0.072,0 -0.012,0.024 -0.024,0.048 -0.036,0.072 -0.024,0 -0.048,0 -0.072,0 -0.024,0.036 -0.048,0.072 -0.072,0.108 -0.024,0 -0.048,0 -0.072,0 -0.012,0.024 -0.024,0.048 -0.036,0.072 -0.024,0 -0.048,0 -0.072,0 -0.024,0.036 -0.048,0.072 -0.072,0.108 -0.024,0 -0.048,0 -0.072,0 -0.024,0.036 -0.048,0.072 -0.072,0.108 -0.024,0 -0.048,0 -0.072,0 -0.024,0.036 -0.048,0.072 -0.072,0.108 -0.024,0 -0.048,0 -0.072,0 -0.024,0.036 -0.048,0.072 -0.072,0.108 -0.024,0 -0.048,0 -0.072,0 -0.036,0.048 -0.072,0.096 -0.108,0.144 -0.024,0 -0.048,0 -0.072,0 -0.024,0.036 -0.048,0.072 -0.072,0.108 -0.024,0 -0.048,0 -0.072,0 -0.036,0.048 -0.072,0.096 -0.108,0.144 -0.024,0 -0.048,0 -0.072,0 -0.036,0.048 -0.072,0.096 -0.108,0.144 -0.024,0 -0.048,0 -0.072,0 -0.048,0.06 -0.096,0.12 -0.144,0.18 -0.024,0 -0.048,0 -0.072,0 -0.06,0.072 -0.12,0.144 -0.18,0.216 -0.024,0 -0.048,0 -0.072,0 -0.06,0.072 -0.12,0.144 -0.18,0.216 -0.024,0 -0.048,0 -0.072,0 -0.096,0.108 -0.192,0.216 -0.288,0.324 -0.024,0 -0.048,0 -0.072,0 -0.144,0.156 -0.288,0.312 -0.432,0.468 -0.024,0 -0.048,0 -0.072,0 -0.108,0.12 -0.216,0.24 -0.324,0.36 -0.263,0.263 -0.534,0.485 -0.756,0.792 -0.156,0.144 -0.312,0.288 -0.468,0.432 0,0.024 0,0.048 0,0.072 -0.096,0.084 -0.192,0.168 -0.288,0.252 0,0.024 0,0.048 0,0.072 -0.084,0.072 -0.168,0.144 -0.252,0.216 0,0.024 0,0.048 0,0.072 -0.084,0.072 -0.168,0.144 -0.252,0.216 0,0.024 0,0.048 0,0.072 -0.06,0.048 -0.12,0.096 -0.18,0.144 0,0.024 0,0.048 0,0.072 -0.06,0.048 -0.12,0.096 -0.18,0.144 0,0.024 0,0.048 0,0.072 -0.024,0.012 -0.048,0.024 -0.072,0.036 -0.012,0.036 -0.024,0.072 -0.036,0.108 -0.048,0.036 -0.096,0.072 -0.144,0.108 0,0.024 0,0.048 0,0.072 -0.036,0.024 -0.072,0.048 -0.108,0.072 0,0.024 0,0.048 0,0.072 -0.036,0.024 -0.072,0.048 -0.108,0.072 0,0.024 0,0.048 0,0.072 -0.036,0.024 -0.072,0.048 -0.108,0.072 -0.012,0.036 -0.024,0.072 -0.036,0.108 -0.024,0.012 -0.048,0.024 -0.072,0.036 0,0.024 0,0.048 0,0.072 -0.024,0.012 -0.048,0.024 -0.072,0.036 0,0.024 0,0.048 0,0.072 -0.036,0.024 -0.072,0.048 -0.108,0.072 0,0.024 0,0.048 0,0.072 -0.024,0.012 -0.048,0.024 -0.072,0.036 0,0.024 0,0.048 0,0.072 -0.012,0 -0.024,0 -0.036,0 -0.012,0.036 -0.024,0.072 -0.036,0.108 -0.024,0.012 -0.048,0.024 -0.072,0.036 0,0.024 0,0.048 0,0.072 -0.036,0.024 -0.072,0.048 -0.108,0.072 0,0.024 0,0.048 0,0.072 -0.024,0.012 -0.048,0.024 -0.072,0.036 -0.012,0.048 -0.024,0.096 -0.036,0.144 -0.024,0.012 -0.048,0.024 -0.072,0.036 0,0.024 0,0.048 0,0.072 -0.024,0.012 -0.048,0.024 -0.072,0.036 0,0.024 0,0.048 0,0.072 -0.024,0.012 -0.048,0.024 -0.072,0.036 0,0.024 0,0.048 0,0.072 -0.024,0.012 -0.048,0.024 -0.072,0.036 -0.012,0.048 -0.024,0.096 -0.036,0.144 -0.024,0.012 -0.048,0.024 -0.072,0.036 -0.012,0.048 -0.024,0.096 -0.036,0.144 -0.024,0.012 -0.048,0.024 -0.072,0.036 -0.012,0.048 -0.024,0.096 -0.036,0.144 -0.024,0.012 -0.048,0.024 -0.072,0.036 -0.024,0.072 -0.048,0.144 -0.072,0.216 -0.024,0.012 -0.048,0.024 -0.072,0.036 -0.024,0.072 -0.048,0.144 -0.072,0.216 -0.024,0.012 -0.048,0.024 -0.072,0.036 0,0.024 0,0.048 0,0.072 l -0.072,0.072 c 0,0.024 0,0.048 0,0.072 -0.012,0 -0.024,0 -0.036,0 0,0.024 0,0.048 0,0.072 -0.012,0 -0.024,0 -0.036,0 0,0.024 0,0.048 0,0.072 -0.012,0 -0.024,0 -0.036,0 -0.012,0.048 -0.024,0.096 -0.036,0.144 -0.024,0.012 -0.048,0.024 -0.072,0.036 0,0.024 0,0.048 0,0.072 l -0.072,0.072 c 0,0.024 0,0.048 0,0.072 -0.012,0 -0.024,0 -0.036,0 0,0.024 0,0.048 0,0.072 -0.012,0 -0.024,0 -0.036,0 0,0.024 0,0.048 0,0.072 -0.012,0 -0.024,0 -0.036,0 0,0.024 0,0.048 0,0.072 -0.012,0 -0.024,0 -0.036,0 -0.024,0.072 -0.048,0.144 -0.072,0.216 -0.012,0 -0.024,0 -0.036,0 0,0.036 0,0.072 0,0.108 -0.012,0 -0.024,0 -0.036,0 0,0.024 0,0.048 0,0.072 -0.012,0 -0.024,0 -0.036,0 0,0.024 0,0.048 0,0.072 -0.012,0 -0.024,0 -0.036,0 -0.024,0.072 -0.048,0.144 -0.072,0.216 -0.012,0 -0.024,0 -0.036,0 0,0.036 0,0.072 0,0.108 -0.012,0 -0.024,0 -0.036,0 0,0.024 0,0.048 0,0.072 -0.012,0 -0.024,0 -0.036,0 -0.012,0.048 -0.024,0.096 -0.036,0.144 -0.012,0 -0.024,0 -0.036,0 0,0.036 0,0.072 0,0.108 -0.012,0 -0.024,0 -0.036,0 -0.012,0.048 -0.024,0.096 -0.036,0.144 -0.012,0 -0.024,0 -0.036,0 0,0.036 0,0.072 0,0.108 -0.012,0 -0.024,0 -0.036,0 0,0.024 0,0.048 0,0.072 -0.012,0 -0.024,0 -0.036,0 0,0.036 0,0.072 0,0.108 -0.012,0 -0.024,0 -0.036,0 0,0.024 0,0.048 0,0.072 -0.012,0 -0.024,0 -0.036,0 0,0.036 0,0.072 0,0.108 -0.012,0 -0.024,0 -0.036,0 0,0.024 0,0.048 0,0.072 -0.012,0 -0.024,0 -0.036,0 -0.012,0.06 -0.024,0.12 -0.036,0.18 -0.012,0 -0.024,0 -0.036,0 -0.012,0.072 -0.024,0.144 -0.036,0.216 -0.012,0 -0.024,0 -0.036,0 0,0.024 0,0.048 0,0.072 -0.012,0 -0.024,0 -0.036,0 -0.024,0.108 -0.048,0.216 -0.072,0.324 -0.012,0 -0.024,0 -0.036,0 0,0.024 0,0.048 0,0.072 -0.012,0 -0.024,0 -0.036,0 -0.024,0.108 -0.048,0.216 -0.072,0.324 -0.012,0 -0.024,0 -0.036,0 0,0.036 0,0.072 0,0.108 -0.012,0 -0.024,0 -0.036,0 0,0.036 0,0.072 0,0.108 -0.012,0 -0.024,0 -0.036,0 0,0.036 0,0.072 0,0.108 -0.012,0 -0.024,0 -0.036,0 -0.024,0.12 -0.048,0.24 -0.072,0.36 -0.012,0 -0.024,0 -0.036,0 0,0.036 0,0.072 0,0.108 -0.012,0 -0.024,0 -0.036,0 0,0.048 0,0.096 0,0.144 -0.012,0 -0.024,0 -0.036,0 0,0.036 0,0.072 0,0.108 -0.012,0 -0.024,0 -0.036,0 -0.012,0.084 -0.024,0.168 -0.036,0.252 -0.012,0 -0.024,0 -0.036,0 -0.012,0.096 -0.024,0.192 -0.036,0.288 -0.012,0 -0.024,0 -0.036,0 -0.012,0.096 -0.024,0.192 -0.036,0.288 -0.172,0.505 -0.236,1.13 -0.396,1.656 0,0.072 0,0.144 0,0.216 -0.059,0.197 -0.086,0.483 -0.144,0.684 0,0.096 0,0.192 0,0.288 -0.012,0 -0.024,0 -0.036,0 0,0.084 0,0.168 0,0.252 -0.012,0 -0.024,0 -0.036,0 0,0.108 0,0.216 0,0.324 -0.012,0 -0.024,0 -0.036,0 0,0.12 0,0.24 0,0.36 -0.012,0 -0.024,0 -0.036,0 0,0.132 0,0.264 0,0.396 -0.012,0 -0.024,0 -0.036,0 -0.012,0.3 -0.024,0.6 -0.036,0.9 0,0.132 0,0.264 0,0.396 -0.076,0.273 -0.077,1.348 0,1.62 0,0.216 0,0.432 0,0.648 0.024,0.36 0.048,0.72 0.072,1.08 0.012,0 0.024,0 0.036,0 0,0.132 0,0.264 0,0.396 0.012,0 0.024,0 0.036,0 0,0.096 0,0.192 0,0.288 0.112,0.385 0.104,0.887 0.216,1.26 0.012,0.144 0.024,0.288 0.036,0.432 0.066,0.214 0.113,0.507 0.18,0.72 0,0.06 0,0.12 0,0.18 0.012,0 0.024,0 0.036,0 0.024,0.156 0.048,0.312 0.072,0.468 0.012,0 0.024,0 0.036,0 0,0.048 0,0.096 0,0.144 0.012,0 0.024,0 0.036,0 0,0.048 0,0.096 0,0.144 0.012,0 0.024,0 0.036,0 0,0.048 0,0.096 0,0.144 0.012,0 0.024,0 0.036,0 0,0.048 0,0.096 0,0.144 0.012,0 0.024,0 0.036,0 0,0.048 0,0.096 0,0.144 0.012,0 0.024,0 0.036,0 0,0.036 0,0.072 0,0.108 0.012,0 0.024,0 0.036,0 0.012,0.096 0.024,0.192 0.036,0.288 0.159,0.441 0.298,0.942 0.468,1.368 0,0.036 0,0.072 0,0.108 0.012,0 0.024,0 0.036,0 0,0.036 0,0.072 0,0.108 0.012,0 0.024,0 0.036,0 0,0.036 0,0.072 0,0.108 0.012,0 0.024,0 0.036,0 0,0.036 0,0.072 0,0.108 0.012,0 0.024,0 0.036,0 0,0.024 0,0.048 0,0.072 0.012,0 0.024,0 0.036,0 0.012,0.072 0.024,0.144 0.036,0.216 0.012,0 0.024,0 0.036,0 0,0.024 0,0.048 0,0.072 0.012,0 0.024,0 0.036,0 0.012,0.072 0.024,0.144 0.036,0.216 0.012,0 0.024,0 0.036,0 0,0.024 0,0.048 0,0.072 0.012,0 0.024,0 0.036,0 0,0.036 0,0.072 0,0.108 0.012,0 0.024,0 0.036,0 0,0.024 0,0.048 0,0.072 0.012,0 0.024,0 0.036,0 0.012,0.06 0.024,0.12 0.036,0.18 0.012,0 0.024,0 0.036,0 0,0.036 0,0.072 0,0.108 0.012,0 0.024,0 0.036,0 0,0.024 0,0.048 0,0.072 0.012,0 0.024,0 0.036,0 0,0.036 0,0.072 0,0.108 0.012,0 0.024,0 0.036,0 0.012,0.048 0.024,0.096 0.036,0.144 0.012,0 0.024,0 0.036,0 0,0.036 0,0.072 0,0.108 0.012,0 0.024,0 0.036,0 0,0.024 0,0.048 0,0.072 0.012,0 0.024,0 0.036,0 0.012,0.048 0.024,0.096 0.036,0.144 0.012,0 0.024,0 0.036,0 0,0.036 0,0.072 0,0.108 0.012,0 0.024,0 0.036,0 0,0.024 0,0.048 0,0.072 0.012,0 0.024,0 0.036,0 0,0.024 0,0.048 0,0.072 0.012,0 0.024,0 0.036,0 0,0.024 0,0.048 0,0.072 0.012,0 0.024,0 0.036,0 0,0.036 0,0.072 0,0.108 0.012,0 0.024,0 0.036,0 0,0.024 0,0.048 0,0.072 0.012,0 0.024,0 0.036,0 0.012,0.048 0.024,0.096 0.036,0.144 0.012,0 0.024,0 0.036,0 0.012,0.048 0.024,0.096 0.036,0.144 0.012,0 0.024,0 0.036,0 0.012,0.048 0.024,0.096 0.036,0.144 0.012,0 0.024,0 0.036,0 0,0.024 0,0.048 0,0.072 0.012,0 0.024,0 0.036,0 0,0.024 0,0.048 0,0.072 0.012,0 0.024,0 0.036,0 0,0.024 0,0.048 0,0.072 0.012,0 0.024,0 0.036,0 0,0.024 0,0.048 0,0.072 0.012,0 0.024,0 0.036,0 0,0.024 0,0.048 0,0.072 0.012,0 0.024,0 0.036,0 0,0.024 0,0.048 0,0.072 0.012,0 0.024,0 0.036,0 0,0.024 0,0.048 0,0.072 0.012,0 0.024,0 0.036,0 0,0.024 0,0.048 0,0.072 0.012,0 0.024,0 0.036,0 0,0.024 0,0.048 0,0.072 0.012,0 0.024,0 0.036,0 0,0.024 0,0.048 0,0.072 l 0.072,0.072 c 0,0.024 0,0.048 0,0.072 0.024,0.012 0.048,0.024 0.072,0.036 0.024,0.072 0.048,0.144 0.072,0.216 l 0.072,0.072 c 0,0.024 0,0.048 0,0.072 0.024,0.012 0.048,0.024 0.072,0.036 0.024,0.072 0.048,0.144 0.072,0.216 0.024,0.012 0.048,0.024 0.072,0.036 0.024,0.072 0.048,0.144 0.072,0.216 0.024,0.012 0.048,0.024 0.072,0.036 0.012,0.048 0.024,0.096 0.036,0.144 0.024,0.012 0.048,0.024 0.072,0.036 0,0.024 0,0.048 0,0.072 0.012,0 0.024,0 0.036,0 0,0.024 0,0.048 0,0.072 0.024,0.012 0.048,0.024 0.072,0.036 0,0.024 0,0.048 0,0.072 0.024,0.012 0.048,0.024 0.072,0.036 0.012,0.048 0.024,0.096 0.036,0.144 0.024,0.012 0.048,0.024 0.072,0.036 0,0.024 0,0.048 0,0.072 0.024,0.012 0.048,0.024 0.072,0.036 0,0.024 0,0.048 0,0.072 0.024,0.012 0.048,0.024 0.072,0.036 0.012,0.048 0.024,0.096 0.036,0.144 0.012,0 0.024,0 0.036,0 0.012,0.036 0.024,0.072 0.036,0.108 0.024,0.012 0.048,0.024 0.072,0.036 0,0.024 0,0.048 0,0.072 0.012,0 0.024,0 0.036,0 0.012,0.036 0.024,0.072 0.036,0.108 0.024,0.012 0.048,0.024 0.072,0.036 0,0.024 0,0.048 0,0.072 0.036,0.024 0.072,0.048 0.108,0.072 0,0.024 0,0.048 0,0.072 0.012,0 0.024,0 0.036,0 0.012,0.036 0.024,0.072 0.036,0.108 0.024,0.012 0.048,0.024 0.072,0.036 0,0.024 0,0.048 0,0.072 0.024,0.012 0.048,0.024 0.072,0.036 0.012,0.036 0.024,0.072 0.036,0.108 0.036,0.024 0.072,0.048 0.108,0.072 0,0.024 0,0.048 0,0.072 0.024,0.012 0.048,0.024 0.072,0.036 0,0.024 0,0.048 0,0.072 0.024,0.012 0.048,0.024 0.072,0.036 0.012,0.036 0.024,0.072 0.036,0.108 0.036,0.024 0.072,0.048 0.108,0.072 0,0.024 0,0.048 0,0.072 0.048,0.036 0.096,0.072 0.144,0.108 0,0.024 0,0.048 0,0.072 0.036,0.024 0.072,0.048 0.108,0.072 0,0.024 0,0.048 0,0.072 0.048,0.036 0.096,0.072 0.144,0.108 0,0.024 0,0.048 0,0.072 0.048,0.036 0.096,0.072 0.144,0.108 0,0.024 0,0.048 0,0.072 0.06,0.048 0.12,0.096 0.18,0.144 0,0.024 0,0.048 0,0.072 0.072,0.06 0.144,0.12 0.216,0.18 0,0.024 0,0.048 0,0.072 0.084,0.072 0.168,0.144 0.252,0.216 0,0.024 0,0.048 0,0.072 0.132,0.12 0.264,0.24 0.396,0.36 0,0.024 0,0.048 0,0.072 0.156,0.144 0.312,0.288 0.468,0.432 0.326,0.326 0.628,0.662 1.008,0.936 0.084,0.096 0.168,0.192 0.252,0.288 0.024,0 0.048,0 0.072,0 0.06,0.072 0.12,0.144 0.18,0.216 0.024,0 0.048,0 0.072,0 0.048,0.06 0.096,0.12 0.144,0.18 0.024,0 0.048,0 0.072,0 0.036,0.048 0.072,0.096 0.108,0.144 0.024,0 0.048,0 0.072,0 0.036,0.048 0.072,0.096 0.108,0.144 0.024,0 0.048,0 0.072,0 0.036,0.048 0.072,0.096 0.108,0.144 0.024,0 0.048,0 0.072,0 0.024,0.036 0.048,0.072 0.072,0.108 0.024,0 0.048,0 0.072,0 0.036,0.048 0.072,0.096 0.108,0.144 0.024,0 0.048,0 0.072,0 0.012,0.024 0.024,0.048 0.036,0.072 0.024,0 0.048,0 0.072,0 0.024,0.036 0.048,0.072 0.072,0.108 0.024,0 0.048,0 0.072,0 0.012,0.024 0.024,0.048 0.036,0.072 0.024,0 0.048,0 0.072,0 0.024,0.036 0.048,0.072 0.072,0.108 0.024,0 0.048,0 0.072,0 0.012,0.024 0.024,0.048 0.036,0.072 0.024,0 0.048,0 0.072,0 0.024,0.036 0.048,0.072 0.072,0.108 0.024,0 0.048,0 0.072,0 0.012,0.024 0.024,0.048 0.036,0.072 0.024,0 0.048,0 0.072,0 0.024,0.036 0.048,0.072 0.072,0.108 0.024,0 0.048,0 0.072,0 0.012,0.024 0.024,0.048 0.036,0.072 0.024,0 0.048,0 0.072,0 0.012,0.024 0.024,0.048 0.036,0.072 0.024,0 0.048,0 0.072,0 0.012,0.024 0.024,0.048 0.036,0.072 0.024,0 0.048,0 0.072,0 0.012,0.024 0.024,0.048 0.036,0.072 0.048,0.012 0.096,0.024 0.144,0.036 0.012,0.024 0.024,0.048 0.036,0.072 0.024,0 0.048,0 0.072,0 0.012,0.024 0.024,0.048 0.036,0.072 0.024,0 0.048,0 0.072,0 0.012,0.024 0.024,0.048 0.036,0.072 0.024,0 0.048,0 0.072,0 0,0.012 0,0.024 0,0.036 0.024,0 0.048,0 0.072,0 0.012,0.024 0.024,0.048 0.036,0.072 0.048,0.012 0.096,0.024 0.144,0.036 0.012,0.024 0.024,0.048 0.036,0.072 0.036,0.012 0.072,0.024 0.108,0.036 0,0.012 0,0.024 0,0.036 0.072,0.024 0.144,0.048 0.216,0.072 0.012,0.024 0.024,0.048 0.036,0.072 0.048,0.012 0.096,0.024 0.144,0.036 0.012,0.024 0.024,0.048 0.036,0.072 0.072,0.024 0.144,0.048 0.216,0.072 0.012,0.024 0.024,0.048 0.036,0.072 0.024,0 0.048,0 0.072,0 0,0.012 0,0.024 0,0.036 0.024,0 0.048,0 0.072,0 0,0.012 0,0.024 0,0.036 0.024,0 0.048,0 0.072,0 l 0.072,0.072 c 0.024,0 0.048,0 0.072,0 0.012,0.024 0.024,0.048 0.036,0.072 0.048,0.012 0.096,0.024 0.144,0.036 l 0.072,0.072 c 0.024,0 0.048,0 0.072,0 0,0.012 0,0.024 0,0.036 0.024,0 0.048,0 0.072,0 0,0.012 0,0.024 0,0.036 0.024,0 0.048,0 0.072,0 0,0.012 0,0.024 0,0.036 0.024,0 0.048,0 0.072,0 0,0.012 0,0.024 0,0.036 0.048,0.012 0.096,0.024 0.144,0.036 0,0.012 0,0.024 0,0.036 0.048,0.012 0.096,0.024 0.144,0.036 0,0.012 0,0.024 0,0.036 0.048,0.012 0.096,0.024 0.144,0.036 0,0.012 0,0.024 0,0.036 0.048,0.012 0.096,0.024 0.144,0.036 0,0.012 0,0.024 0,0.036 0.024,0 0.048,0 0.072,0 0,0.012 0,0.024 0,0.036 0.024,0 0.048,0 0.072,0 0,0.012 0,0.024 0,0.036 0.024,0 0.048,0 0.072,0 0,0.012 0,0.024 0,0.036 0.024,0 0.048,0 0.072,0 0,0.012 0,0.024 0,0.036 0.048,0.012 0.096,0.024 0.144,0.036 0,0.012 0,0.024 0,0.036 0.024,0 0.048,0 0.072,0 0,0.012 0,0.024 0,0.036 0.036,0 0.072,0 0.108,0 0,0.012 0,0.024 0,0.036 0.024,0 0.048,0 0.072,0 0,0.012 0,0.024 0,0.036 0.072,0.024 0.144,0.048 0.216,0.072 0,0.012 0,0.024 0,0.036 0.036,0 0.072,0 0.108,0 0,0.012 0,0.024 0,0.036 0.024,0 0.048,0 0.072,0 0,0.012 0,0.024 0,0.036 0.048,0.012 0.096,0.024 0.144,0.036 0,0.012 0,0.024 0,0.036 0.036,0 0.072,0 0.108,0 0,0.012 0,0.024 0,0.036 0.024,0 0.048,0 0.072,0 0,0.012 0,0.024 0,0.036 0.036,0 0.072,0 0.108,0 0,0.012 0,0.024 0,0.036 0.048,0.012 0.096,0.024 0.144,0.036 0,0.012 0,0.024 0,0.036 0.036,0 0.072,0 0.108,0 0,0.012 0,0.024 0,0.036 0.048,0.012 0.096,0.024 0.144,0.036 0,0.012 0,0.024 0,0.036 0.036,0 0.072,0 0.108,0 0,0.012 0,0.024 0,0.036 0.024,0 0.048,0 0.072,0 0,0.012 0,0.024 0,0.036 0.072,0.012 0.144,0.024 0.216,0.036 0,0.012 0,0.024 0,0.036 0.06,0.012 0.12,0.024 0.18,0.036 0,0.012 0,0.024 0,0.036 0.024,0 0.048,0 0.072,0 0,0.012 0,0.024 0,0.036 0.036,0 0.072,0 0.108,0 0,0.012 0,0.024 0,0.036 0.024,0 0.048,0 0.072,0 0,0.012 0,0.024 0,0.036 0.036,0 0.072,0 0.108,0 0,0.012 0,0.024 0,0.036 0.036,0 0.072,0 0.108,0 0,0.012 0,0.024 0,0.036 0.036,0 0.072,0 0.108,0 0,0.012 0,0.024 0,0.036 0.036,0 0.072,0 0.108,0 0,0.012 0,0.024 0,0.036 0.024,0 0.048,0 0.072,0 0,0.012 0,0.024 0,0.036 0.036,0 0.072,0 0.108,0 0,0.012 0,0.024 0,0.036 0.036,0 0.072,0 0.108,0 0,0.012 0,0.024 0,0.036 0.036,0 0.072,0 0.108,0 0,0.012 0,0.024 0,0.036 0.036,0 0.072,0 0.108,0 0,0.012 0,0.024 0,0.036 0.036,0 0.072,0 0.108,0 0,0.012 0,0.024 0,0.036 0.072,0.012 0.144,0.024 0.216,0.036 0,0.012 0,0.024 0,0.036 0.024,0 0.048,0 0.072,0 0,0.012 0,0.024 0,0.036 0.036,0 0.072,0 0.108,0 0,0.012 0,0.024 0,0.036 0.048,0 0.096,0 0.144,0 0.189,0.068 0.396,0.171 0.612,0.216 0.756,2.34 1.512,4.68 2.268,7.02 -0.036,0.024 -0.072,0.048 -0.108,0.072 0,0.012 0,0.024 0,0.036 -0.024,0 -0.048,0 -0.072,0 -0.024,0.036 -0.048,0.072 -0.072,0.108 -0.024,0 -0.048,0 -0.072,0 -0.012,0.024 -0.024,0.048 -0.036,0.072 -0.024,0 -0.048,0 -0.072,0 -0.012,0.024 -0.024,0.048 -0.036,0.072 -0.036,0.012 -0.072,0.024 -0.108,0.036 -0.024,0.036 -0.048,0.072 -0.072,0.108 -0.024,0 -0.048,0 -0.072,0 -0.024,0.036 -0.048,0.072 -0.072,0.108 -0.036,0.012 -0.072,0.024 -0.108,0.036 -0.012,0.024 -0.024,0.048 -0.036,0.072 -0.024,0 -0.048,0 -0.072,0 -0.012,0.024 -0.024,0.048 -0.036,0.072 -0.024,0 -0.048,0 -0.072,0 -0.012,0.024 -0.024,0.048 -0.036,0.072 -0.036,0.012 -0.072,0.024 -0.108,0.036 -0.024,0.036 -0.048,0.072 -0.072,0.108 -0.024,0 -0.048,0 -0.072,0 -0.024,0.036 -0.048,0.072 -0.072,0.108 -0.036,0.012 -0.072,0.024 -0.108,0.036 -0.012,0.024 -0.024,0.048 -0.036,0.072 -0.024,0 -0.048,0 -0.072,0 -0.012,0.024 -0.024,0.048 -0.036,0.072 -0.024,0 -0.048,0 -0.072,0 -0.012,0.024 -0.024,0.048 -0.036,0.072 -0.036,0.012 -0.072,0.024 -0.108,0.036 -0.024,0.036 -0.048,0.072 -0.072,0.108 -0.024,0 -0.048,0 -0.072,0 -0.024,0.036 -0.048,0.072 -0.072,0.108 -0.024,0 -0.048,0 -0.072,0 -0.024,0.036 -0.048,0.072 -0.072,0.108 -0.024,0 -0.048,0 -0.072,0 -0.024,0.036 -0.048,0.072 -0.072,0.108 -0.024,0 -0.048,0 -0.072,0 -0.012,0.024 -0.024,0.048 -0.036,0.072 -0.024,0 -0.048,0 -0.072,0 -0.024,0.036 -0.048,0.072 -0.072,0.108 -0.024,0 -0.048,0 -0.072,0 -0.024,0.036 -0.048,0.072 -0.072,0.108 -0.024,0 -0.048,0 -0.072,0 -0.024,0.036 -0.048,0.072 -0.072,0.108 -0.024,0 -0.048,0 -0.072,0 -0.024,0.036 -0.048,0.072 -0.072,0.108 -0.024,0 -0.048,0 -0.072,0 -0.012,0.024 -0.024,0.048 -0.036,0.072 -0.024,0 -0.048,0 -0.072,0 -0.024,0.036 -0.048,0.072 -0.072,0.108 -0.024,0 -0.048,0 -0.072,0 -0.024,0.036 -0.048,0.072 -0.072,0.108 -0.024,0 -0.048,0 -0.072,0 -0.024,0.036 -0.048,0.072 -0.072,0.108 -0.024,0 -0.048,0 -0.072,0 -0.024,0.036 -0.048,0.072 -0.072,0.108 -0.024,0 -0.048,0 -0.072,0 -0.012,0.024 -0.024,0.048 -0.036,0.072 -0.024,0 -0.048,0 -0.072,0 -0.024,0.036 -0.048,0.072 -0.072,0.108 -0.024,0 -0.048,0 -0.072,0 -0.024,0.036 -0.048,0.072 -0.072,0.108 -0.024,0 -0.048,0 -0.072,0 -0.024,0.036 -0.048,0.072 -0.072,0.108 -0.024,0 -0.048,0 -0.072,0 -0.024,0.036 -0.048,0.072 -0.072,0.108 -0.024,0 -0.048,0 -0.072,0 -0.012,0.024 -0.024,0.048 -0.036,0.072 -0.024,0 -0.048,0 -0.072,0 -0.012,0.024 -0.024,0.048 -0.036,0.072 -0.036,0.012 -0.072,0.024 -0.108,0.036 -0.024,0.036 -0.048,0.072 -0.072,0.108 -0.024,0 -0.048,0 -0.072,0 -0.024,0.036 -0.048,0.072 -0.072,0.108 -0.036,0.012 -0.072,0.024 -0.108,0.036 -0.012,0.024 -0.024,0.048 -0.036,0.072 -0.024,0 -0.048,0 -0.072,0 -0.012,0.024 -0.024,0.048 -0.036,0.072 -0.024,0 -0.048,0 -0.072,0 -0.024,0.036 -0.048,0.072 -0.072,0.108 -0.024,0 -0.048,0 -0.072,0 -0.024,0.036 -0.048,0.072 -0.072,0.108 -0.024,0 -0.048,0 -0.072,0 -0.024,0.036 -0.048,0.072 -0.072,0.108 -0.024,0 -0.048,0 -0.072,0 -0.024,0.036 -0.048,0.072 -0.072,0.108 -0.024,0 -0.048,0 -0.072,0 -0.024,0.036 -0.048,0.072 -0.072,0.108 -0.024,0 -0.048,0 -0.072,0 -0.012,0.024 -0.024,0.048 -0.036,0.072 -0.024,0 -0.048,0 -0.072,0 -0.024,0.036 -0.048,0.072 -0.072,0.108 -0.024,0 -0.048,0 -0.072,0 -0.024,0.036 -0.048,0.072 -0.072,0.108 -0.024,0 -0.048,0 -0.072,0 -0.024,0.036 -0.048,0.072 -0.072,0.108 -0.082,0.058 -0.155,0.069 -0.216,0.144 2.796,0 5.592,0 8.388,0 0,0.012 0,0.024 0,0.036 0.012,0 0.024,0 0.036,0 0.013,0.215 0.147,0.476 0.216,0.648 0.024,0.108 0.048,0.216 0.072,0.324 0.012,0 0.024,0 0.036,0 0.012,0.072 0.024,0.144 0.036,0.216 0.012,0 0.024,0 0.036,0 0,0.036 0,0.072 0,0.108 0.012,0 0.024,0 0.036,0 0,0.036 0,0.072 0,0.108 0.012,0 0.024,0 0.036,0 0,0.036 0,0.072 0,0.108 0.012,0 0.024,0 0.036,0 0,0.036 0,0.072 0,0.108 0.012,0 0.024,0 0.036,0 0,0.036 0,0.072 0,0.108 0.012,0 0.024,0 0.036,0 0.012,0.072 0.024,0.144 0.036,0.216 0.012,0 0.024,0 0.036,0 0,0.036 0,0.072 0,0.108 0.012,0 0.024,0 0.036,0 0,0.036 0,0.072 0,0.108 0.012,0 0.024,0 0.036,0 0,0.036 0,0.072 0,0.108 0.012,0 0.024,0 0.036,0 0,0.036 0,0.072 0,0.108 0.012,0 0.024,0 0.036,0 0,0.036 0,0.072 0,0.108 0.012,0 0.024,0 0.036,0 0,0.036 0,0.072 0,0.108 0.012,0 0.024,0 0.036,0 0.012,0.072 0.024,0.144 0.036,0.216 0.39,0.972 0.655,2.051 1.044,3.024 0.024,0.108 0.048,0.216 0.072,0.324 0.15,0.375 0.283,0.813 0.432,1.188 0,0.036 0,0.072 0,0.108 0.012,0 0.024,0 0.036,0 0,0.036 0,0.072 0,0.108 0.012,0 0.024,0 0.036,0 0,0.036 0,0.072 0,0.108 0.012,0 0.024,0 0.036,0 0,0.036 0,0.072 0,0.108 0.012,0 0.024,0 0.036,0 0.012,0.06 0.024,0.12 0.036,0.18 0.012,0 0.024,0 0.036,0 0.864,-2.652 1.728,-5.304 2.592,-7.956 2.808,-0.012 5.616,-0.024 8.424,-0.036 0,-0.012 0,-0.024 0,-0.036 -0.024,0 -0.048,0 -0.072,0 -0.076,-0.121 -0.175,-0.136 -0.288,-0.216 -0.024,-0.036 -0.048,-0.072 -0.072,-0.108 -0.024,0 -0.048,0 -0.072,0 -0.012,-0.024 -0.024,-0.048 -0.036,-0.072 -0.024,0 -0.048,0 -0.072,0 -0.024,-0.036 -0.048,-0.072 -0.072,-0.108 -0.024,0 -0.048,0 -0.072,0 -0.024,-0.036 -0.048,-0.072 -0.072,-0.108 -0.024,0 -0.048,0 -0.072,0 -0.024,-0.036 -0.048,-0.072 -0.072,-0.108 -0.024,0 -0.048,0 -0.072,0 -0.012,-0.024 -0.024,-0.048 -0.036,-0.072 -0.024,0 -0.048,0 -0.072,0 -0.024,-0.036 -0.048,-0.072 -0.072,-0.108 -0.024,0 -0.048,0 -0.072,0 -0.024,-0.036 -0.048,-0.072 -0.072,-0.108 -0.024,0 -0.048,0 -0.072,0 -0.024,-0.036 -0.048,-0.072 -0.072,-0.108 -0.024,0 -0.048,0 -0.072,0 -0.012,-0.024 -0.024,-0.048 -0.036,-0.072 -0.024,0 -0.048,0 -0.072,0 -0.024,-0.036 -0.048,-0.072 -0.072,-0.108 -0.024,0 -0.048,0 -0.072,0 -0.024,-0.036 -0.048,-0.072 -0.072,-0.108 -0.024,0 -0.048,0 -0.072,0 -0.024,-0.036 -0.048,-0.072 -0.072,-0.108 -0.024,0 -0.048,0 -0.072,0 -0.012,-0.024 -0.024,-0.048 -0.036,-0.072 -0.024,0 -0.048,0 -0.072,0 -0.024,-0.036 -0.048,-0.072 -0.072,-0.108 -0.024,0 -0.048,0 -0.072,0 -0.024,-0.036 -0.048,-0.072 -0.072,-0.108 -0.024,0 -0.048,0 -0.072,0 -0.024,-0.036 -0.048,-0.072 -0.072,-0.108 -0.024,0 -0.048,0 -0.072,0 -0.012,-0.024 -0.024,-0.048 -0.036,-0.072 -0.024,0 -0.048,0 -0.072,0 -0.024,-0.036 -0.048,-0.072 -0.072,-0.108 -0.024,0 -0.048,0 -0.072,0 -0.024,-0.036 -0.048,-0.072 -0.072,-0.108 -0.024,0 -0.048,0 -0.072,0 -0.024,-0.036 -0.048,-0.072 -0.072,-0.108 -0.024,0 -0.048,0 -0.072,0 -0.012,-0.024 -0.024,-0.048 -0.036,-0.072 -0.024,0 -0.048,0 -0.072,0 -0.024,-0.036 -0.048,-0.072 -0.072,-0.108 -0.024,0 -0.048,0 -0.072,0 -0.024,-0.036 -0.048,-0.072 -0.072,-0.108 -0.024,0 -0.048,0 -0.072,0 -0.024,-0.036 -0.048,-0.072 -0.072,-0.108 -0.024,0 -0.048,0 -0.072,0 -0.012,-0.024 -0.024,-0.048 -0.036,-0.072 -0.024,0 -0.048,0 -0.072,0 -0.024,-0.036 -0.048,-0.072 -0.072,-0.108 -0.024,0 -0.048,0 -0.072,0 -0.024,-0.036 -0.048,-0.072 -0.072,-0.108 -0.024,0 -0.048,0 -0.072,0 -0.024,-0.036 -0.048,-0.072 -0.072,-0.108 -0.024,0 -0.048,0 -0.072,0 -0.012,-0.024 -0.024,-0.048 -0.036,-0.072 -0.024,0 -0.048,0 -0.072,0 -0.024,-0.036 -0.048,-0.072 -0.072,-0.108 -0.024,0 -0.048,0 -0.072,0 -0.024,-0.036 -0.048,-0.072 -0.072,-0.108 -0.036,-0.012 -0.072,-0.024 -0.108,-0.036 -0.012,-0.024 -0.024,-0.048 -0.036,-0.072 -0.024,0 -0.048,0 -0.072,0 -0.012,-0.024 -0.024,-0.048 -0.036,-0.072 -0.024,0 -0.048,0 -0.072,0 -0.012,-0.024 -0.024,-0.048 -0.036,-0.072 -0.036,-0.012 -0.072,-0.024 -0.108,-0.036 -0.024,-0.036 -0.048,-0.072 -0.072,-0.108 -0.024,0 -0.048,0 -0.072,0 -0.024,-0.036 -0.048,-0.072 -0.072,-0.108 -0.036,-0.012 -0.072,-0.024 -0.108,-0.036 -0.012,-0.024 -0.024,-0.048 -0.036,-0.072 -0.024,0 -0.048,0 -0.072,0 -0.012,-0.024 -0.024,-0.048 -0.036,-0.072 -0.024,0 -0.048,0 -0.072,0 -0.024,-0.036 -0.048,-0.072 -0.072,-0.108 -0.024,0 -0.048,0 -0.072,0 -0.024,-0.036 -0.048,-0.072 -0.072,-0.108 -0.036,-0.012 -0.072,-0.024 -0.108,-0.036 -0.012,-0.024 -0.024,-0.048 -0.036,-0.072 -0.024,0 -0.048,0 -0.072,0 -0.012,-0.024 -0.024,-0.048 -0.036,-0.072 -0.024,0 -0.048,0 -0.072,0 -0.012,-0.024 -0.024,-0.048 -0.036,-0.072 -0.036,-0.012 -0.072,-0.024 -0.108,-0.036 -0.024,-0.036 -0.048,-0.072 -0.072,-0.108 -0.024,0 -0.048,0 -0.072,0 -0.024,-0.036 -0.048,-0.072 -0.072,-0.108 -0.127,-0.088 -0.242,-0.079 -0.288,-0.252 0.105,-0.115 0.115,-0.377 0.18,-0.54 0.139,-0.346 0.257,-0.769 0.396,-1.116 0.024,-0.108 0.048,-0.216 0.072,-0.324 0.355,-0.887 0.583,-1.888 0.936,-2.772 0.024,-0.12 0.048,-0.24 0.072,-0.36 0.012,0 0.024,0 0.036,0 0.012,-0.072 0.024,-0.144 0.036,-0.216 0.012,0 0.024,0 0.036,0 0,-0.036 0,-0.072 0,-0.108 0.012,0 0.024,0 0.036,0 0,-0.036 0,-0.072 0,-0.108 0.012,0 0.024,0 0.036,0 0,-0.036 0,-0.072 0,-0.108 0.012,0 0.024,0 0.036,0 0,-0.036 0,-0.072 0,-0.108 0.012,0 0.024,0 0.036,0 0,-0.036 0,-0.072 0,-0.108 0.012,0 0.024,0 0.036,0 0.012,-0.072 0.024,-0.144 0.036,-0.216 0.012,0 0.024,0 0.036,0 0.012,-0.084 0.024,-0.168 0.036,-0.252 0.068,-0.189 0.171,-0.395 0.216,-0.612 0.294,-0.004 0.603,-0.134 0.828,-0.216 0.048,0 0.096,0 0.144,0 0,-0.012 0,-0.024 0,-0.036 0.036,0 0.072,0 0.108,0 0,-0.012 0,-0.024 0,-0.036 0.048,0 0.096,0 0.144,0 0,-0.012 0,-0.024 0,-0.036 0.036,0 0.072,0 0.108,0 0,-0.012 0,-0.024 0,-0.036 0.036,0 0.072,0 0.108,0 0,-0.012 0,-0.024 0,-0.036 0.036,0 0.072,0 0.108,0 0,-0.012 0,-0.024 0,-0.036 0.036,0 0.072,0 0.108,0 0,-0.012 0,-0.024 0,-0.036 0.036,0 0.072,0 0.108,0 0,-0.012 0,-0.024 0,-0.036 0.072,-0.012 0.144,-0.024 0.216,-0.036 0,-0.012 0,-0.024 0,-0.036 0.024,0 0.048,0 0.072,0 0,-0.012 0,-0.024 0,-0.036 0.108,-0.024 0.216,-0.048 0.324,-0.072 0,-0.012 0,-0.024 0,-0.036 0.024,0 0.048,0 0.072,0 0,-0.012 0,-0.024 0,-0.036 0.072,-0.012 0.144,-0.024 0.216,-0.036 0,-0.012 0,-0.024 0,-0.036 0.024,0 0.048,0 0.072,0 0,-0.012 0,-0.024 0,-0.036 0.036,0 0.072,0 0.108,0 0,-0.012 0,-0.024 0,-0.036 0.06,-0.012 0.12,-0.024 0.18,-0.036 0,-0.012 0,-0.024 0,-0.036 0.048,-0.012 0.096,-0.024 0.144,-0.036 0,-0.012 0,-0.024 0,-0.036 0.036,0 0.072,0 0.108,0 0,-0.012 0,-0.024 0,-0.036 0.024,0 0.048,0 0.072,0 0,-0.012 0,-0.024 0,-0.036 0.036,0 0.072,0 0.108,0 0,-0.012 0,-0.024 0,-0.036 0.048,-0.012 0.096,-0.024 0.144,-0.036 0,-0.012 0,-0.024 0,-0.036 0.024,0 0.048,0 0.072,0 0,-0.012 0,-0.024 0,-0.036 0.036,0 0.072,0 0.108,0 0,-0.012 0,-0.024 0,-0.036 0.024,0 0.048,0 0.072,0 0,-0.012 0,-0.024 0,-0.036 0.072,-0.024 0.144,-0.048 0.216,-0.072 0,-0.012 0,-0.024 0,-0.036 0.036,0 0.072,0 0.108,0 0,-0.012 0,-0.024 0,-0.036 0.024,0 0.048,0 0.072,0 0,-0.012 0,-0.024 0,-0.036 0.048,-0.012 0.096,-0.024 0.144,-0.036 0,-0.012 0,-0.024 0,-0.036 0.048,-0.012 0.096,-0.024 0.144,-0.036 0,-0.012 0,-0.024 0,-0.036 0.048,-0.012 0.096,-0.024 0.144,-0.036 0,-0.012 0,-0.024 0,-0.036 0.024,0 0.048,0 0.072,0 0,-0.012 0,-0.024 0,-0.036 0.024,0 0.048,0 0.072,0 0,-0.012 0,-0.024 0,-0.036 0.024,0 0.048,0 0.072,0 0,-0.012 0,-0.024 0,-0.036 0.024,0 0.048,0 0.072,0 0,-0.012 0,-0.024 0,-0.036 0.024,0 0.048,0 0.072,0 0,-0.012 0,-0.024 0,-0.036 0.192,-0.084 0.384,-0.168 0.576,-0.252 0.012,-0.024 0.024,-0.048 0.036,-0.072 0.024,0 0.048,0 0.072,0 0,-0.012 0,-0.024 0,-0.036 0.024,0 0.048,0 0.072,0 l 0.072,-0.072 c 0.024,0 0.048,0 0.072,0 0.012,-0.024 0.024,-0.048 0.036,-0.072 0.024,0 0.048,0 0.072,0 0,-0.012 0,-0.024 0,-0.036 0.024,0 0.048,0 0.072,0 l 0.072,-0.072 c 0.024,0 0.048,0 0.072,0 0.012,-0.024 0.024,-0.048 0.036,-0.072 0.048,-0.012 0.096,-0.024 0.144,-0.036 0.012,-0.024 0.024,-0.048 0.036,-0.072 0.048,-0.012 0.096,-0.024 0.144,-0.036 0.012,-0.024 0.024,-0.048 0.036,-0.072 0.048,-0.012 0.096,-0.024 0.144,-0.036 0.012,-0.024 0.024,-0.048 0.036,-0.072 0.048,-0.012 0.096,-0.024 0.144,-0.036 0,-0.012 0,-0.024 0,-0.036 0.036,-0.012 0.072,-0.024 0.108,-0.036 0.012,-0.024 0.024,-0.048 0.036,-0.072 0.048,-0.012 0.096,-0.024 0.144,-0.036 0.012,-0.024 0.024,-0.048 0.036,-0.072 0.024,0 0.048,0 0.072,0 0.012,-0.024 0.024,-0.048 0.036,-0.072 0.024,0 0.048,0 0.072,0 0.012,-0.024 0.024,-0.048 0.036,-0.072 0.024,0 0.048,0 0.072,0 0.012,-0.024 0.024,-0.048 0.036,-0.072 0.048,-0.012 0.096,-0.024 0.144,-0.036 0.012,-0.024 0.024,-0.048 0.036,-0.072 0.024,0 0.048,0 0.072,0 0.024,-0.036 0.048,-0.072 0.072,-0.108 0.024,0 0.048,0 0.072,0 0.012,-0.024 0.024,-0.048 0.036,-0.072 0.036,-0.012 0.072,-0.024 0.108,-0.036 0,-0.012 0,-0.024 0,-0.036 0.024,0 0.048,0 0.072,0 0.012,-0.024 0.024,-0.048 0.036,-0.072 0.024,0 0.048,0 0.072,0 0.012,-0.024 0.024,-0.048 0.036,-0.072 0.024,0 0.048,0 0.072,0 0.024,-0.036 0.048,-0.072 0.072,-0.108 0.024,0 0.048,0 0.072,0 0.024,-0.036 0.048,-0.072 0.072,-0.108 0.024,0 0.048,0 0.072,0 0.012,-0.024 0.024,-0.048 0.036,-0.072 0.024,0 0.048,0 0.072,0 0.024,-0.036 0.048,-0.072 0.072,-0.108 0.024,0 0.048,0 0.072,0 0.024,-0.036 0.048,-0.072 0.072,-0.108 0.024,0 0.048,0 0.072,0 0.024,-0.036 0.048,-0.072 0.072,-0.108 0.024,0 0.048,0 0.072,0 0.036,-0.048 0.072,-0.096 0.108,-0.144 0.024,0 0.048,0 0.072,0 0.024,-0.036 0.048,-0.072 0.072,-0.108 0.024,0 0.048,0 0.072,0 0.036,-0.048 0.072,-0.096 0.108,-0.144 0.024,0 0.048,0 0.072,0 0.036,-0.048 0.072,-0.096 0.108,-0.144 0.024,0 0.048,0 0.072,0 0.048,-0.06 0.096,-0.12 0.144,-0.18 0.024,0 0.048,0 0.072,0 0.048,-0.06 0.096,-0.12 0.144,-0.18 0.024,0 0.048,0 0.072,0 0.06,-0.072 0.12,-0.144 0.18,-0.216 0.024,0 0.048,0 0.072,0 0.084,-0.096 0.168,-0.192 0.252,-0.288 0.024,0 0.048,0 0.072,0 0.12,-0.132 0.24,-0.264 0.36,-0.396 0.024,0 0.048,0 0.072,0 0.144,-0.156 0.288,-0.312 0.432,-0.468 0.297,-0.297 0.614,-0.554 0.864,-0.9 0.144,-0.132 0.288,-0.264 0.432,-0.396 0,-0.024 0,-0.048 0,-0.072 0.084,-0.072 0.168,-0.144 0.252,-0.216 0,-0.024 0,-0.048 0,-0.072 0.06,-0.048 0.12,-0.096 0.18,-0.144 0,-0.024 0,-0.048 0,-0.072 0.024,-0.012 0.048,-0.024 0.072,-0.036 0.024,-0.036 0.048,-0.072 0.072,-0.108 0.012,0 0.024,0 0.036,0 0,-0.024 0,-0.048 0,-0.072 0.06,-0.048 0.12,-0.096 0.18,-0.144 0,-0.024 0,-0.048 0,-0.072 0.048,-0.036 0.096,-0.072 0.144,-0.108 0,-0.024 0,-0.048 0,-0.072 0.036,-0.024 0.072,-0.048 0.108,-0.072 0,-0.024 0,-0.048 0,-0.072 0.036,-0.024 0.072,-0.048 0.108,-0.072 0,-0.024 0,-0.048 0,-0.072 0.036,-0.024 0.072,-0.048 0.108,-0.072 0,-0.024 0,-0.048 0,-0.072 0.048,-0.036 0.096,-0.072 0.144,-0.108 0,-0.024 0,-0.048 0,-0.072 0.024,-0.012 0.048,-0.024 0.072,-0.036 0,-0.024 0,-0.048 0,-0.072 0.036,-0.024 0.072,-0.048 0.108,-0.072 0,-0.024 0,-0.048 0,-0.072 0.024,-0.012 0.048,-0.024 0.072,-0.036 0,-0.024 0,-0.048 0,-0.072 0.036,-0.024 0.072,-0.048 0.108,-0.072 0,-0.024 0,-0.048 0,-0.072 0.024,-0.012 0.048,-0.024 0.072,-0.036 0.012,-0.036 0.024,-0.072 0.036,-0.108 0.012,0 0.024,0 0.036,0 0,-0.024 0,-0.048 0,-0.072 0.024,-0.012 0.048,-0.024 0.072,-0.036 0,-0.024 0,-0.048 0,-0.072 0.024,-0.012 0.048,-0.024 0.072,-0.036 0,-0.024 0,-0.048 0,-0.072 0.024,-0.012 0.048,-0.024 0.072,-0.036 0,-0.024 0,-0.048 0,-0.072 0.024,-0.012 0.048,-0.024 0.072,-0.036 0,-0.024 0,-0.048 0,-0.072 0.024,-0.012 0.048,-0.024 0.072,-0.036 0.012,-0.048 0.024,-0.096 0.036,-0.144 0.012,0 0.024,0 0.036,0 0.012,-0.036 0.024,-0.072 0.036,-0.108 0.024,-0.012 0.048,-0.024 0.072,-0.036 0,-0.024 0,-0.048 0,-0.072 0.012,0 0.024,0 0.036,0 0,-0.024 0,-0.048 0,-0.072 0.024,-0.012 0.048,-0.024 0.072,-0.036 0.012,-0.048 0.024,-0.096 0.036,-0.144 0.024,-0.012 0.048,-0.024 0.072,-0.036 0.012,-0.048 0.024,-0.096 0.036,-0.144 0.024,-0.012 0.048,-0.024 0.072,-0.036 0.012,-0.048 0.024,-0.096 0.036,-0.144 0.024,-0.012 0.048,-0.024 0.072,-0.036 0,-0.024 0,-0.048 0,-0.072 0.012,0 0.024,0 0.036,0 0,-0.024 0,-0.048 0,-0.072 l 0.072,-0.072 c 0,-0.024 0,-0.048 0,-0.072 0.024,-0.012 0.048,-0.024 0.072,-0.036 0,-0.024 0,-0.048 0,-0.072 l 0.072,-0.072 c 0,-0.024 0,-0.048 0,-0.072 0.012,0 0.024,0 0.036,0 0,-0.024 0,-0.048 0,-0.072 0.012,0 0.024,0 0.036,0 0.012,-0.048 0.024,-0.096 0.036,-0.144 0.024,-0.012 0.048,-0.024 0.072,-0.036 0,-0.024 0,-0.048 0,-0.072 l 0.072,-0.072 c 0,-0.024 0,-0.048 0,-0.072 0.012,0 0.024,0 0.036,0 0,-0.024 0,-0.048 0,-0.072 0.012,0 0.024,0 0.036,0 0,-0.024 0,-0.048 0,-0.072 0.012,0 0.024,0 0.036,0 0,-0.024 0,-0.048 0,-0.072 0.012,0 0.024,0 0.036,0 0,-0.024 0,-0.048 0,-0.072 0.012,0 0.024,0 0.036,0 0,-0.024 0,-0.048 0,-0.072 0.012,0 0.024,0 0.036,0 0,-0.024 0,-0.048 0,-0.072 0.012,0 0.024,0 0.036,0 0.024,-0.072 0.048,-0.144 0.072,-0.216 0.012,0 0.024,0 0.036,0 0,-0.036 0,-0.072 0,-0.108 0.012,0 0.024,0 0.036,0 0,-0.024 0,-0.048 0,-0.072 0.012,0 0.024,0 0.036,0 0,-0.024 0,-0.048 0,-0.072 0.012,0 0.024,0 0.036,0 0.024,-0.072 0.048,-0.144 0.072,-0.216 0.012,0 0.024,0 0.036,0 0,-0.036 0,-0.072 0,-0.108 0.012,0 0.024,0 0.036,0 0,-0.024 0,-0.048 0,-0.072 0.012,0 0.024,0 0.036,0 0,-0.024 0,-0.048 0,-0.072 0.012,0 0.024,0 0.036,0 0,-0.024 0,-0.048 0,-0.072 0.012,0 0.024,0 0.036,0 0,-0.036 0,-0.072 0,-0.108 0.012,0 0.024,0 0.036,0 0,-0.024 0,-0.048 0,-0.072 0.012,0 0.024,0 0.036,0 0,-0.036 0,-0.072 0,-0.108 0.012,0 0.024,0 0.036,0 0.012,-0.048 0.024,-0.096 0.036,-0.144 0.012,0 0.024,0 0.036,0 0,-0.036 0,-0.072 0,-0.108 0.012,0 0.024,0 0.036,0 0,-0.024 0,-0.048 0,-0.072 0.012,0 0.024,0 0.036,0 0,-0.036 0,-0.072 0,-0.108 0.012,0 0.024,0 0.036,0 0,-0.024 0,-0.048 0,-0.072 0.012,0 0.024,0 0.036,0 0,-0.036 0,-0.072 0,-0.108 0.012,0 0.024,0 0.036,0 0,-0.024 0,-0.048 0,-0.072 0.012,0 0.024,0 0.036,0 0.012,-0.072 0.024,-0.144 0.036,-0.216 0.012,0 0.024,0 0.036,0 0,-0.024 0,-0.048 0,-0.072 0.012,0 0.024,0 0.036,0 0.024,-0.108 0.048,-0.216 0.072,-0.324 0.012,0 0.024,0 0.036,0 0,-0.024 0,-0.048 0,-0.072 0.012,0 0.024,0 0.036,0 0.012,-0.072 0.024,-0.144 0.036,-0.216 0.012,0 0.024,0 0.036,0 0,-0.036 0,-0.072 0,-0.108 0.012,0 0.024,0 0.036,0 0,-0.036 0,-0.072 0,-0.108 0.012,0 0.024,0 0.036,0 0,-0.036 0,-0.072 0,-0.108 0.012,0 0.024,0 0.036,0 0,-0.036 0,-0.072 0,-0.108 0.012,0 0.024,0 0.036,0 0,-0.036 0,-0.072 0,-0.108 0.012,0 0.024,0 0.036,0 0,-0.036 0,-0.072 0,-0.108 0.012,0 0.024,0 0.036,0 0,-0.048 0,-0.096 0,-0.144 0.012,0 0.024,0 0.036,0 0,-0.036 0,-0.072 0,-0.108 0.012,0 0.024,0 0.036,0 0,-0.036 0,-0.072 0,-0.108 0.012,0 0.024,0 0.036,0 0,-0.036 0,-0.072 0,-0.108 0.012,0 0.024,0 0.036,0 0.012,-0.084 0.024,-0.168 0.036,-0.252 0.012,0 0.024,0 0.036,0 0,-0.048 0,-0.096 0,-0.144 0.012,0 0.024,0 0.036,0 0,-0.048 0,-0.096 0,-0.144 0.012,0 0.024,0 0.036,0 0,-0.036 0,-0.072 0,-0.108 0.012,0 0.024,0 0.036,0 0,-0.048 0,-0.096 0,-0.144 0.012,0 0.024,0 0.036,0 0.012,-0.096 0.024,-0.192 0.036,-0.288 0.131,-0.384 0.2,-0.864 0.324,-1.26 0.012,-0.132 0.024,-0.264 0.036,-0.396 0.118,-0.388 0.136,-0.899 0.252,-1.296 0,-0.096 0,-0.192 0,-0.288 0.012,0 0.024,0 0.036,0 0,-0.096 0,-0.192 0,-0.288 0.012,0 0.024,0 0.036,0 0,-0.108 0,-0.216 0,-0.324 0.012,0 0.024,0 0.036,0 0,-0.12 0,-0.24 0,-0.36 0.012,0 0.024,0 0.036,0 0,-0.132 0,-0.264 0,-0.396 0.012,0 0.024,0 0.036,0 0.012,-0.42 0.024,-0.84 0.036,-1.26 0.076,-0.273 0.077,-1.348 0,-1.62 m -21.096,26.532 c -1.608,1.164 -3.216,2.328 -4.824,3.492 -0.063,-0.074 -0.134,-0.086 -0.216,-0.144 -0.024,-0.036 -0.048,-0.072 -0.072,-0.108 -0.024,0 -0.048,0 -0.072,0 -0.012,-0.024 -0.024,-0.048 -0.036,-0.072 -0.024,0 -0.048,0 -0.072,0 -0.012,-0.024 -0.024,-0.048 -0.036,-0.072 -0.036,-0.012 -0.072,-0.024 -0.108,-0.036 -0.024,-0.036 -0.048,-0.072 -0.072,-0.108 -0.024,0 -0.048,0 -0.072,0 -0.012,-0.024 -0.024,-0.048 -0.036,-0.072 -0.024,0 -0.048,0 -0.072,0 -0.024,-0.036 -0.048,-0.072 -0.072,-0.108 -0.024,0 -0.048,0 -0.072,0 -0.012,-0.024 -0.024,-0.048 -0.036,-0.072 -0.024,0 -0.048,0 -0.072,0 -0.012,-0.024 -0.024,-0.048 -0.036,-0.072 -0.036,-0.012 -0.072,-0.024 -0.108,-0.036 -0.024,-0.036 -0.048,-0.072 -0.072,-0.108 -0.024,0 -0.048,0 -0.072,0 -0.012,-0.024 -0.024,-0.048 -0.036,-0.072 -0.024,0 -0.048,0 -0.072,0 -0.012,-0.024 -0.024,-0.048 -0.036,-0.072 -0.036,-0.012 -0.072,-0.024 -0.108,-0.036 -0.024,-0.036 -0.048,-0.072 -0.072,-0.108 -0.024,0 -0.048,0 -0.072,0 -0.012,-0.024 -0.024,-0.048 -0.036,-0.072 -0.024,0 -0.048,0 -0.072,0 -0.012,-0.024 -0.024,-0.048 -0.036,-0.072 -0.036,-0.012 -0.072,-0.024 -0.108,-0.036 -0.024,-0.036 -0.048,-0.072 -0.072,-0.108 -0.024,0 -0.048,0 -0.072,0 -0.012,-0.024 -0.024,-0.048 -0.036,-0.072 -0.024,0 -0.048,0 -0.072,0 -0.012,-0.024 -0.024,-0.048 -0.036,-0.072 -0.036,-0.012 -0.072,-0.024 -0.108,-0.036 -0.024,-0.036 -0.048,-0.072 -0.072,-0.108 -0.024,0 -0.048,0 -0.072,0 -0.012,-0.024 -0.024,-0.048 -0.036,-0.072 -0.024,0 -0.048,0 -0.072,0 -0.024,-0.036 -0.048,-0.072 -0.072,-0.108 -0.024,0 -0.048,0 -0.072,0 -0.012,-0.024 -0.024,-0.048 -0.036,-0.072 -0.024,0 -0.048,0 -0.072,0 -0.024,-0.036 -0.048,-0.072 -0.072,-0.108 -0.024,0 -0.048,0 -0.072,0 -0.024,-0.036 -0.048,-0.072 -0.072,-0.108 -0.024,0 -0.048,0 -0.072,0 -0.012,-0.024 -0.024,-0.048 -0.036,-0.072 -0.024,0 -0.048,0 -0.072,0 -0.012,-0.024 -0.024,-0.048 -0.036,-0.072 -0.036,-0.012 -0.072,-0.024 -0.108,-0.036 -0.024,-0.036 -0.048,-0.072 -0.072,-0.108 -0.024,0 -0.048,0 -0.072,0 -0.012,-0.024 -0.024,-0.048 -0.036,-0.072 -0.024,0 -0.048,0 -0.072,0 -0.012,-0.024 -0.024,-0.048 -0.036,-0.072 -0.036,-0.012 -0.072,-0.024 -0.108,-0.036 -0.024,-0.036 -0.048,-0.072 -0.072,-0.108 -0.024,0 -0.048,0 -0.072,0 -0.012,-0.024 -0.024,-0.048 -0.036,-0.072 -0.024,0 -0.048,0 -0.072,0 -0.024,-0.036 -0.048,-0.072 -0.072,-0.108 -0.024,0 -0.048,0 -0.072,0 -0.012,-0.024 -0.024,-0.048 -0.036,-0.072 -0.024,0 -0.048,0 -0.072,0 -0.024,-0.036 -0.048,-0.072 -0.072,-0.108 -0.024,0 -0.048,0 -0.072,0 -0.024,-0.036 -0.048,-0.072 -0.072,-0.108 -0.103,-0.072 -0.186,-0.07 -0.252,-0.18 0.024,0 0.048,0 0.072,0 0.097,0.087 0.246,0.028 0.396,0.072 0,0.012 0,0.024 0,0.036 0.084,0 0.168,0 0.252,0 0.341,0.098 0.806,0.083 1.152,0.18 0.12,0 0.24,0 0.36,0 0,0.012 0,0.024 0,0.036 0.144,0 0.288,0 0.432,0 0,0 0.004,0.03 0.072,0.036 0.132,0 0.264,0 0.396,0 0,0.012 0,0.024 0,0.036 0.228,0 0.456,0 0.684,0 0,0.012 0,0.024 0,0.036 0.576,0 1.152,0 1.728,0 1.494,0 2.871,-0.162 4.14,-0.396 0,0.012 0,0.024 0,0.036"
         id="path50449" /></clipPath><clipPath
       id="clipPath50453"><path
         d="m 399.685,574.913 68.031,0 0,-70 -68.031,0 0,70 z"
         id="path50455" /></clipPath><clipPath
       id="clipPath50459"><path
         d="M 0,841 595,841 595,0 0,0 0,841 z"
         id="path50461" /></clipPath><clipPath
       id="clipPath50465"><path
         d="m 0.36,841.68 595.44,0 L 595.8,0 0.36,0 l 0,841.68 z"
         id="path50467" /></clipPath><clipPath
       id="clipPath50477"><path
         d="m 484.724,574.913 68.032,0 0,-70 -68.032,0 0,70 z"
         id="path50479" /></clipPath><clipPath
       id="clipPath50483"><path
         d="M 0,841 595,841 595,0 0,0 0,841 z"
         id="path50485" /></clipPath><clipPath
       id="clipPath50489"><path
         d="m 0.36,841.68 595.44,0 L 595.8,0 0.36,0 l 0,841.68 z"
         id="path50491" /></clipPath><clipPath
       id="clipPath50575"><path
         d="m 149.952,574.913 62.646,0 0,-70 -62.646,0 0,70 z"
         id="path50577" /></clipPath><clipPath
       id="clipPath50581"><path
         d="M 0,841 595,841 595,0 0,0 0,841 z"
         id="path50583" /></clipPath><clipPath
       id="clipPath50587"><path
         d="m 0.36,841.68 595.44,0 L 595.8,0 0.36,0 l 0,841.68 z"
         id="path50589" /></clipPath><clipPath
       id="clipPath50657"><path
         d="m 229.606,574.913 68.032,0 0,-70 -68.032,0 0,70 z"
         id="path50659" /></clipPath><clipPath
       id="clipPath50663"><path
         d="M 0,841 595,841 595,0 0,0 0,841 z"
         id="path50665" /></clipPath><clipPath
       id="clipPath50669"><path
         d="m 0.36,841.68 595.44,0 L 595.8,0 0.36,0 l 0,841.68 z"
         id="path50671" /></clipPath><clipPath
       id="clipPath50749"><path
         d="m 314.646,574.913 68.031,0 0,-70 -68.031,0 0,70 z"
         id="path50751" /></clipPath><clipPath
       id="clipPath50755"><path
         d="M 0,841 595,841 595,0 0,0 0,841 z"
         id="path50757" /></clipPath><clipPath
       id="clipPath50761"><path
         d="m 0.36,841.68 595.44,0 L 595.8,0 0.36,0 l 0,841.68 z"
         id="path50763" /></clipPath><clipPath
       id="clipPath50845"><path
         d="m 399.685,468.291 68.031,0 0,-70 -68.031,0 0,70 z"
         id="path50847" /></clipPath><clipPath
       id="clipPath50851"><path
         d="M 0,841 595,841 595,0 0,0 0,841 z"
         id="path50853" /></clipPath><clipPath
       id="clipPath50857"><path
         d="m 0.36,841.68 595.44,0 L 595.8,0 0.36,0 l 0,841.68 z"
         id="path50859" /></clipPath><clipPath
       id="clipPath50945"><path
         d="m 484.724,468.291 68.032,0 0,-70 -68.032,0 0,70 z"
         id="path50947" /></clipPath><clipPath
       id="clipPath50951"><path
         d="M 0,841 595,841 595,0 0,0 0,841 z"
         id="path50953" /></clipPath><clipPath
       id="clipPath50957"><path
         d="m 0.36,841.68 595.44,0 L 595.8,0 0.36,0 l 0,841.68 z"
         id="path50959" /></clipPath><clipPath
       id="clipPath51011"><path
         d="m 150.236,468.291 62.362,0 0,-70 -62.362,0 0,70 z"
         id="path51013" /></clipPath><clipPath
       id="clipPath51017"><path
         d="M 0,841 595,841 595,0 0,0 0,841 z"
         id="path51019" /></clipPath><clipPath
       id="clipPath51023"><path
         d="m 0.36,841.68 595.44,0 L 595.8,0 0.36,0 l 0,841.68 z"
         id="path51025" /></clipPath><clipPath
       id="clipPath51115"><path
         d="m 229.606,468.291 68.032,0 0,-70 -68.032,0 0,70 z"
         id="path51117" /></clipPath><clipPath
       id="clipPath51121"><path
         d="M 0,841 595,841 595,0 0,0 0,841 z"
         id="path51123" /></clipPath><clipPath
       id="clipPath51127"><path
         d="m 0.36,841.68 595.44,0 L 595.8,0 0.36,0 l 0,841.68 z"
         id="path51129" /></clipPath><clipPath
       id="clipPath51241"><path
         d="m 314.646,468.291 68.031,0 0,-70 -68.031,0 0,70 z"
         id="path51243" /></clipPath><clipPath
       id="clipPath51247"><path
         d="M 0,841 595,841 595,0 0,0 0,841 z"
         id="path51249" /></clipPath><clipPath
       id="clipPath51253"><path
         d="m 0.36,841.68 595.44,0 L 595.8,0 0.36,0 l 0,841.68 z"
         id="path51255" /></clipPath><clipPath
       id="clipPath51307"><path
         d="m 399.685,362.137 68.031,0 0,-70 -68.031,0 0,70 z"
         id="path51309" /></clipPath><clipPath
       id="clipPath51313"><path
         d="M 0,841 595,841 595,0 0,0 0,841 z"
         id="path51315" /></clipPath><clipPath
       id="clipPath51319"><path
         d="m 0.36,841.68 595.44,0 L 595.8,0 0.36,0 l 0,841.68 z"
         id="path51321" /></clipPath><clipPath
       id="clipPath51415"><path
         d="m 484.724,362.137 68.032,0 0,-70 -68.032,0 0,70 z"
         id="path51417" /></clipPath><clipPath
       id="clipPath51421"><path
         d="M 0,841 595,841 595,0 0,0 0,841 z"
         id="path51423" /></clipPath><clipPath
       id="clipPath51427"><path
         d="m 0.36,841.68 595.44,0 L 595.8,0 0.36,0 l 0,841.68 z"
         id="path51429" /></clipPath><clipPath
       id="clipPath51457"><path
         d="m 144.567,362.137 68.031,0 0,-70 -68.031,0 0,70 z"
         id="path51459" /></clipPath><clipPath
       id="clipPath51463"><path
         d="M 0,841 595,841 595,0 0,0 0,841 z"
         id="path51465" /></clipPath><clipPath
       id="clipPath51469"><path
         d="m 0.36,841.68 595.44,0 L 595.8,0 0.36,0 l 0,841.68 z"
         id="path51471" /></clipPath><clipPath
       id="clipPath51505"><path
         d="m 177.983,298.659 c 0.192,2.683 8.145,2.492 8.145,2.492 6.805,0.287 11.309,1.916 11.309,1.916 16.387,5.175 7.283,23.191 7.283,23.191 -3.929,8.433 -0.384,14.279 -0.384,14.279 l 0,13.225 c -20.028,0.096 -26.353,2.204 -26.353,2.204 0,0 -6.325,-2.108 -26.353,-2.204 l 0,-13.225 c 0,0 3.545,-5.846 -0.384,-14.279 0,0 -9.104,-18.016 7.283,-23.191 0,0 4.504,-1.629 11.308,-1.916 0,0 7.954,0.191 8.146,-2.492"
         id="path51507" /></clipPath><clipPath
       id="clipPath51511"><path
         d="m 144.567,362.137 68.031,0 0,-70 -68.031,0 0,70 z"
         id="path51513" /></clipPath><clipPath
       id="clipPath51517"><path
         d="M 0,841 595,841 595,0 0,0 0,841 z"
         id="path51519" /></clipPath><clipPath
       id="clipPath51523"><path
         d="m 0.36,841.68 595.44,0 L 595.8,0 0.36,0 l 0,841.68 z"
         id="path51525" /></clipPath><clipPath
       id="clipPath51543"><path
         d="m 144.567,362.137 68.031,0 0,-70 -68.031,0 0,70 z"
         id="path51545" /></clipPath><clipPath
       id="clipPath51549"><path
         d="M 0,841 595,841 595,0 0,0 0,841 z"
         id="path51551" /></clipPath><clipPath
       id="clipPath51555"><path
         d="m 0.36,841.68 595.44,0 L 595.8,0 0.36,0 l 0,841.68 z"
         id="path51557" /></clipPath><clipPath
       id="clipPath51669"><path
         d="m 229.606,362.137 68.032,0 0,-70 -68.032,0 0,70 z"
         id="path51671" /></clipPath><clipPath
       id="clipPath51675"><path
         d="M 0,841 595,841 595,0 0,0 0,841 z"
         id="path51677" /></clipPath><clipPath
       id="clipPath51681"><path
         d="m 0.36,841.68 595.44,0 L 595.8,0 0.36,0 l 0,841.68 z"
         id="path51683" /></clipPath><clipPath
       id="clipPath51763"><path
         d="m 263.589,298.126 c 4.05,3.118 11.069,4.711 11.069,4.711 15.391,4.86 10.531,19.035 10.531,19.035 -0.54,1.62 -1.215,6.21 -1.215,6.21 -1.485,13.095 4.05,21.195 4.05,21.195 -3.241,3.105 -6.075,7.425 -6.075,7.425 -7.966,-2.835 -18.36,-2.551 -18.36,-2.551 0,0 -10.395,-0.284 -18.361,2.551 0,0 -2.834,-4.32 -6.075,-7.425 0,0 5.536,-8.1 4.05,-21.195 0,0 -0.675,-4.59 -1.215,-6.21 0,0 -4.86,-14.175 10.531,-19.035 0,0 7.02,-1.593 11.07,-4.711"
         id="path51765" /></clipPath><clipPath
       id="clipPath51775"><path
         d="m 229.606,362.137 68.032,0 0,-70 -68.032,0 0,70 z"
         id="path51777" /></clipPath><clipPath
       id="clipPath51781"><path
         d="M 0,841 595,841 595,0 0,0 0,841 z"
         id="path51783" /></clipPath><clipPath
       id="clipPath51787"><path
         d="m 0.36,841.68 595.44,0 L 595.8,0 0.36,0 l 0,841.68 z"
         id="path51789" /></clipPath><clipPath
       id="clipPath51885"><path
         d="m 314.646,362.137 68.031,0 0,-70 -68.031,0 0,70 z"
         id="path51887" /></clipPath><clipPath
       id="clipPath51891"><path
         d="M 0,841 595,841 595,0 0,0 0,841 z"
         id="path51893" /></clipPath><clipPath
       id="clipPath51897"><path
         d="m 0.36,841.68 595.44,0 L 595.8,0 0.36,0 l 0,841.68 z"
         id="path51899" /></clipPath><clipPath
       id="clipPath52025"><path
         d="M 0,841 595,841 595,0 0,0 0,841 z"
         id="path52027" /></clipPath><clipPath
       id="clipPath52031"><path
         d="m 0.36,841.68 595.44,0 L 595.8,0 0.36,0 l 0,841.68 z"
         id="path52033" /></clipPath></defs><g
     transform="matrix(0.30567309,0,0,-0.30567309,51.122464,255.27201)"
     id="g49899"><g
       transform="matrix(9.6870574,0,0,9.7011026,-1449.7228,-4742.1899)"
       id="g50571"><g
         clip-path="url(#clipPath50575)"
         id="g50573"><g
           clip-path="url(#clipPath50581)"
           id="g50579"><g
             clip-path="url(#clipPath50587)"
             id="g50585"><path
               d="m 206.224,568.503 0.496,-30.507 c 0,0 1.183,-23.589 -27.291,-31.453 0,0 -25.635,4.967 -27.788,31.453 l 0.568,30.384 c 0,0 26.369,12.208 54.015,0.123 z"
               id="path50591"
               style="fill:#001b50;fill-opacity:1;fill-rule:nonzero;stroke:#ffffff;stroke-width:0.5970431;stroke-linecap:butt;stroke-linejoin:miter;stroke-miterlimit:4;stroke-opacity:1;stroke-dasharray:none" /><path
               d="m 176.578,533.696 c 0,-0.18 0.107,-0.262 0.274,-0.262 0.078,0 0.123,-0.012 0.123,-0.062 0,-0.049 -0.024,-0.069 -0.102,-0.069 -0.197,0 -0.397,0.017 -0.594,0.017 -0.213,0 -0.421,-0.017 -0.634,-0.017 -0.041,0 -0.086,0.02 -0.086,0.069 0,0.05 0.045,0.062 0.123,0.062 0.208,0 0.307,0.045 0.307,0.192 l 0,1.752 c 0,0.102 -0.021,0.131 -0.086,0.131 -0.115,0 -0.23,-0.114 -0.303,-0.114 -0.037,0 -0.054,0.016 -0.054,0.065 0,0.04 0.05,0.078 0.45,0.266 0.43,0.2 0.459,0.221 0.517,0.221 0.04,0 0.065,-0.017 0.065,-0.054 l 0,-2.197"
               id="path50593"
               style="fill:#ffffff;fill-opacity:1;fill-rule:nonzero;stroke:none" /><path
               d="m 178.568,534.833 c 0.348,-0.151 0.651,-0.368 0.651,-0.785 0,-0.516 -0.491,-0.795 -0.958,-0.795 -0.413,0 -0.917,0.222 -0.917,0.709 0,0.377 0.275,0.458 0.545,0.589 -0.246,0.147 -0.45,0.36 -0.45,0.675 0,0.488 0.438,0.721 0.875,0.721 0.475,0 0.778,-0.25 0.778,-0.59 0,-0.298 -0.282,-0.437 -0.524,-0.524 z m -0.561,-0.356 c -0.114,-0.163 -0.139,-0.294 -0.139,-0.495 0,-0.409 0.172,-0.597 0.426,-0.597 0.254,0 0.401,0.16 0.401,0.384 0,0.389 -0.392,0.561 -0.688,0.708 z m 0.447,0.43 c 0.139,0.123 0.204,0.23 0.204,0.442 0,0.205 -0.081,0.467 -0.393,0.467 -0.216,0 -0.303,-0.152 -0.303,-0.311 0,-0.328 0.267,-0.467 0.492,-0.598"
               id="path50595"
               style="fill:#ffffff;fill-opacity:1;fill-rule:nonzero;stroke:none" /><path
               d="m 180.779,534.833 c 0.348,-0.151 0.651,-0.368 0.651,-0.785 0,-0.516 -0.491,-0.795 -0.957,-0.795 -0.414,0 -0.917,0.222 -0.917,0.709 0,0.377 0.274,0.458 0.544,0.589 -0.245,0.147 -0.45,0.36 -0.45,0.675 0,0.488 0.438,0.721 0.876,0.721 0.475,0 0.777,-0.25 0.777,-0.59 0,-0.298 -0.282,-0.437 -0.524,-0.524 z m -0.56,-0.356 c -0.115,-0.163 -0.139,-0.294 -0.139,-0.495 0,-0.409 0.172,-0.597 0.425,-0.597 0.254,0 0.401,0.16 0.401,0.384 0,0.389 -0.393,0.561 -0.687,0.708 z m 0.446,0.43 c 0.139,0.123 0.205,0.23 0.205,0.442 0,0.205 -0.082,0.467 -0.393,0.467 -0.217,0 -0.303,-0.152 -0.303,-0.311 0,-0.328 0.266,-0.467 0.491,-0.598"
               id="path50597"
               style="fill:#ffffff;fill-opacity:1;fill-rule:nonzero;stroke:none" /><path
               d="m 182.884,533.696 c 0,-0.18 0.107,-0.262 0.275,-0.262 0.077,0 0.122,-0.012 0.122,-0.062 0,-0.049 -0.024,-0.069 -0.102,-0.069 -0.197,0 -0.397,0.017 -0.594,0.017 -0.212,0 -0.421,-0.017 -0.634,-0.017 -0.041,0 -0.086,0.02 -0.086,0.069 0,0.05 0.045,0.062 0.123,0.062 0.209,0 0.307,0.045 0.307,0.192 l 0,1.752 c 0,0.102 -0.02,0.131 -0.086,0.131 -0.114,0 -0.229,-0.114 -0.303,-0.114 -0.037,0 -0.053,0.016 -0.053,0.065 0,0.04 0.049,0.078 0.45,0.266 0.43,0.2 0.458,0.221 0.516,0.221 0.041,0 0.065,-0.017 0.065,-0.054 l 0,-2.197"
               id="path50599"
               style="fill:#ffffff;fill-opacity:1;fill-rule:nonzero;stroke:none" /><path
               d="m 171.954,543.094 c 0,-0.123 -0.009,-0.193 0.135,-0.193 0.086,0 0.266,0 0.343,0.017 0.115,0.02 0.164,0.11 0.197,0.217 0.016,0.053 0.045,0.134 0.119,0.134 0.065,0 0.082,-0.048 0.082,-0.106 -0.009,-0.114 -0.009,-0.238 -0.017,-0.352 0,-0.114 0.008,-0.237 0.017,-0.352 0,-0.053 -0.017,-0.114 -0.087,-0.114 -0.196,0 -0.053,0.392 -0.487,0.392 l -0.175,-0.008 c -0.136,-0.008 -0.127,-0.065 -0.127,-0.176 l 0,-0.523 c 0,-0.242 -0.017,-0.34 0.241,-0.381 0.053,-0.008 0.131,-0.021 0.131,-0.095 0,-0.061 -0.045,-0.077 -0.098,-0.077 -0.213,0 -0.418,0.016 -0.63,0.016 -0.197,0 -0.393,-0.016 -0.59,-0.016 -0.057,0 -0.098,0.016 -0.098,0.077 0,0.066 0.061,0.087 0.111,0.095 0.269,0.045 0.257,0.115 0.257,0.381 l 0,1.457 c 0,0.245 0.017,0.356 -0.245,0.397 -0.053,0.007 -0.131,0.007 -0.131,0.077 0,0.066 0.041,0.082 0.098,0.082 0.377,0 0.761,-0.016 1.138,-0.016 0.262,0 0.532,0.016 0.794,0.016 0.106,0 0.135,-0.004 0.135,-0.119 l 0,-0.392 c 0,-0.054 -0.02,-0.111 -0.082,-0.111 -0.078,0 -0.123,0.098 -0.16,0.156 -0.061,0.102 -0.094,0.163 -0.204,0.216 -0.119,0.058 -0.266,0.053 -0.397,0.053 -0.049,0 -0.18,0.009 -0.23,-0.024 -0.04,-0.029 -0.04,-0.098 -0.04,-0.143 l 0,-0.585"
               id="path50601"
               style="fill:#ffffff;fill-opacity:1;fill-rule:nonzero;stroke:none" /><path
               d="m 188.302,541.849 c -0.008,-0.135 -0.004,-0.188 -0.131,-0.262 -0.23,-0.139 -0.52,-0.188 -0.786,-0.188 -0.36,0 -0.782,0.082 -1.077,0.303 -0.311,0.233 -0.52,0.622 -0.52,1.015 0,0.405 0.205,0.774 0.528,1.015 0.32,0.233 0.758,0.344 1.151,0.344 0.192,0 0.425,-0.033 0.613,-0.086 0.111,-0.033 0.111,-0.049 0.132,-0.164 l 0.033,-0.209 c 0.008,-0.041 0.016,-0.077 0.016,-0.118 0,-0.045 -0.033,-0.07 -0.078,-0.07 -0.188,0 -0.201,0.487 -0.753,0.487 -0.271,0 -0.52,-0.151 -0.676,-0.368 -0.159,-0.225 -0.225,-0.524 -0.225,-0.794 0,-0.266 0.062,-0.561 0.205,-0.786 0.156,-0.242 0.401,-0.409 0.696,-0.409 0.16,0 0.307,0.057 0.43,0.155 0.122,0.103 0.196,0.238 0.27,0.377 0.02,0.045 0.049,0.086 0.102,0.086 0.09,0 0.086,-0.094 0.082,-0.156 l -0.012,-0.172"
               id="path50603"
               style="fill:#ffffff;fill-opacity:1;fill-rule:nonzero;stroke:none" /><path
               d="m 166.811,559.667 c 0,-0.255 0.136,-0.299 0.273,-0.324 0.136,-0.025 0.281,-0.051 0.281,-0.204 0,-0.094 -0.085,-0.119 -0.23,-0.119 -0.179,0 -0.443,0.034 -0.979,0.034 -0.537,0 -0.8,-0.034 -0.979,-0.034 -0.145,0 -0.23,0.025 -0.23,0.119 0,0.153 0.145,0.179 0.315,0.204 0.187,0.025 0.238,0.154 0.238,0.545 l 0,3.814 c 0,0.195 0,0.323 -0.153,0.408 -0.145,0.069 -0.349,0.069 -0.349,0.179 0,0.119 0.102,0.128 0.256,0.128 0.102,0 0.365,-0.034 0.902,-0.034 0.536,0 0.8,0.034 0.979,0.034 0.145,0 0.23,-0.034 0.23,-0.119 0,-0.102 -0.196,-0.154 -0.332,-0.204 -0.187,-0.077 -0.222,-0.188 -0.222,-0.426 l 0,-4.001"
               id="path50605"
               style="fill:#ffffff;fill-opacity:1;fill-rule:nonzero;stroke:none" /><path
               d="m 175.189,558.917 c -1.515,0 -2.375,1.516 -2.375,2.801 0,1.456 0.826,2.801 2.375,2.801 1.515,0 2.375,-1.515 2.375,-2.801 0,-1.455 -0.826,-2.801 -2.375,-2.801 z m -0.094,5.33 c -0.561,0 -0.851,-1.065 -0.851,-1.95 0,-1.643 0.392,-3.107 1.09,-3.107 0.51,0 0.8,0.834 0.8,2.119 0,1.363 -0.358,2.938 -1.039,2.938"
               id="path50607"
               style="fill:#ffffff;fill-opacity:1;fill-rule:nonzero;stroke:none" /><path
               d="m 181.589,563.446 c 0,0.341 -0.05,0.648 -0.314,0.682 -0.136,0.016 -0.315,0.059 -0.315,0.17 0,0.076 0.051,0.119 0.144,0.119 0.162,0 0.298,-0.034 0.605,-0.034 0.187,0 0.391,0.034 0.604,0.034 0.102,0 0.162,-0.043 0.162,-0.128 0,-0.102 -0.145,-0.136 -0.281,-0.161 -0.204,-0.043 -0.281,-0.162 -0.281,-0.452 l 0,-4.648 c 0,-0.085 -0.068,-0.111 -0.247,-0.111 -0.102,0 -0.17,0.026 -0.238,0.128 l -2.673,4.231 -0.026,0 0,-3.32 c 0,-0.536 0.162,-0.621 0.332,-0.647 0.171,-0.026 0.341,-0.009 0.341,-0.162 0,-0.067 -0.069,-0.127 -0.17,-0.127 -0.239,0 -0.418,0.034 -0.613,0.034 -0.205,0 -0.426,-0.034 -0.571,-0.034 -0.128,0 -0.187,0.025 -0.187,0.127 0,0.298 0.545,0 0.545,0.537 l 0,4.069 c 0,0.579 -0.528,0.272 -0.528,0.511 0,0.094 0.085,0.153 0.23,0.153 0.195,0 0.4,-0.034 0.604,-0.034 0.204,0 0.409,0.034 0.613,0.034 0.17,0 0.273,-0.026 0.349,-0.144 l 1.898,-3.074 0.017,0 0,2.247"
               id="path50609"
               style="fill:#ffffff;fill-opacity:1;fill-rule:nonzero;stroke:none" /><path
               d="m 183.49,563.659 c 0,0.494 -0.578,0.128 -0.578,0.383 0,0.187 0.57,0.477 2,0.477 1.796,0 2.835,-0.97 2.835,-2.758 0,-1.686 -0.953,-2.741 -2.367,-2.741 -0.596,0 -0.987,0.034 -1.345,0.034 -0.434,0 -0.698,-0.034 -0.876,-0.034 -0.145,0 -0.23,0.025 -0.23,0.119 0,0.153 0.144,0.179 0.28,0.204 0.137,0.025 0.281,0.069 0.281,0.324 l 0,3.992 z m 1.311,-3.865 c 0,-0.238 0.205,-0.451 0.443,-0.451 0.579,0 1.072,0.511 1.072,2.452 0,1.617 -0.425,2.401 -1.132,2.401 -0.255,0 -0.383,-0.128 -0.383,-0.384 l 0,-4.018"
               id="path50611"
               style="fill:#ffffff;fill-opacity:1;fill-rule:nonzero;stroke:none" /><path
               d="m 190.087,559.667 c 0,-0.255 0.136,-0.299 0.272,-0.324 0.136,-0.025 0.281,-0.051 0.281,-0.204 0,-0.094 -0.085,-0.119 -0.23,-0.119 -0.179,0 -0.442,0.034 -0.979,0.034 -0.536,0 -0.8,-0.034 -0.979,-0.034 -0.144,0 -0.229,0.025 -0.229,0.119 0,0.153 0.144,0.179 0.315,0.204 0.187,0.025 0.238,0.154 0.238,0.545 l 0,3.814 c 0,0.195 0,0.323 -0.153,0.408 -0.145,0.069 -0.35,0.069 -0.35,0.179 0,0.119 0.103,0.128 0.256,0.128 0.102,0 0.366,-0.034 0.902,-0.034 0.537,0 0.8,0.034 0.979,0.034 0.145,0 0.23,-0.034 0.23,-0.119 0,-0.102 -0.196,-0.154 -0.331,-0.204 -0.188,-0.077 -0.222,-0.188 -0.222,-0.426 l 0,-4.001"
               id="path50613"
               style="fill:#ffffff;fill-opacity:1;fill-rule:nonzero;stroke:none" /><path
               d="m 194.64,563.446 c 0,0.341 -0.052,0.648 -0.315,0.682 -0.137,0.016 -0.316,0.059 -0.316,0.17 0,0.076 0.052,0.119 0.146,0.119 0.161,0 0.297,-0.034 0.604,-0.034 0.187,0 0.391,0.034 0.604,0.034 0.102,0 0.162,-0.043 0.162,-0.128 0,-0.102 -0.145,-0.136 -0.281,-0.161 -0.204,-0.043 -0.281,-0.162 -0.281,-0.452 l 0,-4.648 c 0,-0.085 -0.068,-0.111 -0.247,-0.111 -0.102,0 -0.17,0.026 -0.238,0.128 l -2.673,4.231 -0.026,0 0,-3.32 c 0,-0.536 0.162,-0.621 0.332,-0.647 0.17,-0.026 0.341,-0.009 0.341,-0.162 0,-0.067 -0.068,-0.127 -0.171,-0.127 -0.238,0 -0.417,0.034 -0.612,0.034 -0.205,0 -0.426,-0.034 -0.571,-0.034 -0.127,0 -0.187,0.025 -0.187,0.127 0,0.298 0.545,0 0.545,0.537 l 0,4.069 c 0,0.579 -0.528,0.272 -0.528,0.511 0,0.094 0.085,0.153 0.23,0.153 0.195,0 0.4,-0.034 0.604,-0.034 0.205,0 0.409,0.034 0.613,0.034 0.17,0 0.273,-0.026 0.349,-0.144 l 1.898,-3.074 0.018,0 0,2.247"
               id="path50615"
               style="fill:#ffffff;fill-opacity:1;fill-rule:nonzero;stroke:none" /><path
               d="m 197.67,564.519 c 0.332,0 0.791,-0.085 1.056,-0.196 0.119,-0.05 0.212,-0.076 0.212,-0.229 0,-0.282 0,-0.563 -0.008,-0.843 0,-0.264 -0.009,-0.375 -0.204,-0.375 -0.358,0 -0.401,1.371 -1.175,1.371 -0.401,0 -0.596,-0.273 -0.596,-0.63 0,-1.141 2.205,-1.311 2.205,-2.929 0,-1.064 -0.92,-1.771 -1.976,-1.771 -0.238,0 -1.413,0.009 -1.413,0.46 0,0.486 0.017,0.724 0.026,0.903 0.025,0.442 0.068,0.587 0.281,0.587 0.434,0 0.213,-1.677 1.166,-1.677 0.519,0 0.826,0.374 0.826,0.834 0,1.192 -2.205,1.524 -2.205,2.963 0,0.996 0.962,1.532 1.805,1.532"
               id="path50617"
               style="fill:#ffffff;fill-opacity:1;fill-rule:nonzero;stroke:none" /><path
               d="m 160.351,555.731 c 0,0.199 -0.051,0.244 -0.236,0.244 -0.088,0 -0.169,-0.015 -0.228,-0.015 -0.096,0 -0.111,0.023 -0.111,0.096 0,0.155 1.077,0.303 1.668,0.303 1.372,0 2.228,-0.915 2.228,-2.398 0,-1.041 -0.576,-2.369 -1.977,-2.369 -0.318,0 -0.605,0.03 -0.886,0.03 -0.598,0 -0.805,-0.03 -0.959,-0.03 -0.045,0 -0.074,0.044 -0.074,0.096 0,0.081 0.037,0.096 0.258,0.111 0.236,0.007 0.317,0.133 0.317,0.531 l 0,3.401 z m 0.723,-3.342 c 0,-0.421 0.2,-0.59 0.584,-0.59 0.76,0 1.217,0.915 1.217,2.066 0,1.357 -0.531,2.287 -1.343,2.287 -0.281,0 -0.458,-0.103 -0.458,-0.442 l 0,-3.321"
               id="path50619"
               style="fill:#ffffff;fill-opacity:1;fill-rule:nonzero;stroke:none" /><path
               d="m 164.453,555.791 c 0,0.184 -0.051,0.235 -0.273,0.273 -0.14,0.021 -0.207,0.014 -0.207,0.11 0,0.081 0.06,0.096 0.215,0.096 0.066,0 0.236,-0.029 1.173,-0.029 0.775,0 1.122,0.029 1.336,0.029 0.132,0 0.169,-0.029 0.169,-0.14 l 0,-0.937 c 0,-0.096 -0.029,-0.133 -0.081,-0.133 -0.118,0 -0.074,0.037 -0.244,0.413 -0.199,0.443 -0.405,0.591 -0.974,0.591 -0.354,0 -0.391,-0.03 -0.391,-0.2 l 0,-1.498 c 0,-0.103 0.015,-0.132 0.2,-0.132 0.612,0 0.641,0.007 0.775,0.28 0.117,0.243 0.11,0.339 0.206,0.339 0.066,0 0.088,-0.037 0.088,-0.132 0,-0.155 -0.029,-0.406 -0.029,-0.635 0,-0.28 0.029,-0.472 0.029,-0.62 0,-0.133 -0.014,-0.206 -0.103,-0.206 -0.11,0 -0.11,0.147 -0.191,0.405 -0.104,0.34 -0.134,0.362 -0.65,0.362 -0.295,0 -0.325,-0.007 -0.325,-0.133 l 0,-1.409 c 0,-0.531 0.089,-0.686 0.591,-0.686 0.486,0 0.723,0.206 0.914,0.723 0.148,0.391 0.141,0.42 0.215,0.42 0.066,0 0.08,-0.022 0.08,-0.169 l 0,-1.049 c 0,-0.102 -0.029,-0.132 -0.177,-0.132 -0.199,0 -0.553,0.03 -1.305,0.03 -0.834,0 -1.048,-0.03 -1.403,-0.03 -0.132,0 -0.154,0.037 -0.154,0.089 0,0.081 0.022,0.103 0.125,0.118 0.318,0.051 0.391,0.118 0.391,0.339 l 0,3.653"
               id="path50621"
               style="fill:#ffffff;fill-opacity:1;fill-rule:nonzero;stroke:none" /><path
               d="m 169.933,555.908 c 0,0.096 -0.044,0.156 -0.17,0.156 l -0.228,0 c -0.052,0 -0.089,0.021 -0.089,0.081 0,0.073 0.074,0.11 0.177,0.125 0.605,0.074 0.989,0.089 1.446,0.089 0.989,0 1.55,-0.34 1.55,-1.07 0,-0.598 -0.369,-0.871 -0.922,-1.055 l 0,-0.015 c 0.686,-0.081 1.202,-0.561 1.202,-1.255 0,-0.693 -0.524,-1.372 -1.284,-1.372 -0.324,0 -0.605,0.03 -1.099,0.03 -0.436,0 -0.723,-0.03 -0.908,-0.03 -0.125,0 -0.162,0.03 -0.162,0.081 0,0.066 0.037,0.066 0.192,0.118 0.244,0.081 0.295,0.104 0.295,0.303 l 0,3.814 z m 0.723,-1.32 c 0,-0.251 0.074,-0.281 0.288,-0.281 0.509,0 0.937,0.251 0.937,0.989 0,0.539 -0.31,0.856 -0.826,0.856 -0.34,0 -0.399,-0.111 -0.399,-0.303 l 0,-1.261 z m 0,-2.243 c 0,-0.355 0.163,-0.546 0.591,-0.546 0.391,0 0.855,0.295 0.855,1.195 0,0.613 -0.317,1.106 -1.047,1.106 -0.34,0 -0.399,-0.043 -0.399,-0.206 l 0,-1.549"
               id="path50623"
               style="fill:#ffffff;fill-opacity:1;fill-rule:nonzero;stroke:none" /><path
               d="m 175.098,551.504 c -1.136,0 -1.845,1.254 -1.845,2.427 0,1.173 0.709,2.428 1.845,2.428 1.136,0 1.845,-1.255 1.845,-2.428 0,-1.173 -0.709,-2.427 -1.845,-2.427 z m 0,4.648 c -0.731,0 -1.048,-1.313 -1.048,-2.221 0,-0.908 0.317,-2.221 1.048,-2.221 0.731,0 1.048,1.313 1.048,2.221 0,0.908 -0.317,2.221 -1.048,2.221"
               id="path50625"
               style="fill:#ffffff;fill-opacity:1;fill-rule:nonzero;stroke:none" /><path
               d="m 178.521,552.219 c 0,-0.214 0.059,-0.361 0.287,-0.406 0.281,-0.051 0.311,-0.089 0.311,-0.14 0,-0.051 -0.022,-0.081 -0.096,-0.081 -0.163,0 -0.435,0.03 -0.79,0.03 -0.413,0 -0.612,-0.03 -0.797,-0.03 -0.074,0 -0.11,0.03 -0.11,0.096 0,0.051 0.029,0.096 0.154,0.111 0.237,0.021 0.318,0.162 0.318,0.31 l 0,3.615 c 0,0.244 -0.052,0.325 -0.266,0.34 -0.17,0.014 -0.206,0.044 -0.206,0.096 0,0.073 0.051,0.11 0.132,0.11 0.207,0 0.421,-0.029 0.738,-0.029 0.392,0 0.657,0.029 1.085,0.029 0.804,0 1.291,-0.517 1.291,-1.21 0,-0.657 -0.538,-1.018 -1.136,-1.099 l 0,-0.015 c 0.221,-0.037 0.31,-0.14 0.42,-0.362 0.605,-1.217 0.679,-1.645 0.893,-1.785 0.148,-0.096 0.266,-0.03 0.266,-0.14 0,-0.037 -0.022,-0.067 -0.089,-0.067 -0.169,0 -0.339,0.03 -0.509,0.03 -0.184,0 -0.243,-0.03 -0.391,-0.03 -0.051,0 -0.089,0.037 -0.133,0.14 l -0.907,1.978 c -0.044,0.096 -0.096,0.155 -0.236,0.155 -0.162,0 -0.229,-0.038 -0.229,-0.177 l 0,-1.469 z m 0,2.029 c 0,-0.148 0.022,-0.177 0.236,-0.177 0.664,0 1.018,0.273 1.018,1.004 0,0.531 -0.354,0.989 -0.797,0.989 -0.369,0 -0.465,-0.096 -0.457,-0.392 l 0,-1.424"
               id="path50627"
               style="fill:#ffffff;fill-opacity:1;fill-rule:nonzero;stroke:none" /><path
               d="m 181.697,555.731 c 0,0.199 -0.052,0.244 -0.236,0.244 -0.089,0 -0.17,-0.015 -0.229,-0.015 -0.096,0 -0.11,0.023 -0.11,0.096 0,0.155 1.077,0.303 1.667,0.303 1.372,0 2.228,-0.915 2.228,-2.398 0,-1.041 -0.575,-2.369 -1.977,-2.369 -0.318,0 -0.605,0.03 -0.885,0.03 -0.598,0 -0.805,-0.03 -0.96,-0.03 -0.044,0 -0.073,0.044 -0.073,0.096 0,0.081 0.036,0.096 0.258,0.111 0.236,0.007 0.317,0.133 0.317,0.531 l 0,3.401 z m 0.723,-3.342 c 0,-0.421 0.199,-0.59 0.583,-0.59 0.76,0 1.218,0.915 1.218,2.066 0,1.357 -0.532,2.287 -1.344,2.287 -0.28,0 -0.457,-0.103 -0.457,-0.442 l 0,-3.321"
               id="path50629"
               style="fill:#ffffff;fill-opacity:1;fill-rule:nonzero;stroke:none" /><path
               d="m 185.799,555.791 c 0,0.184 -0.052,0.235 -0.273,0.273 -0.141,0.021 -0.207,0.014 -0.207,0.11 0,0.081 0.059,0.096 0.214,0.096 0.067,0 0.236,-0.029 1.173,-0.029 0.775,0 1.122,0.029 1.336,0.029 0.132,0 0.169,-0.029 0.169,-0.14 l 0,-0.937 c 0,-0.096 -0.029,-0.133 -0.081,-0.133 -0.118,0 -0.074,0.037 -0.243,0.413 -0.199,0.443 -0.406,0.591 -0.974,0.591 -0.354,0 -0.391,-0.03 -0.391,-0.2 l 0,-1.498 c 0,-0.103 0.014,-0.132 0.199,-0.132 0.612,0 0.642,0.007 0.775,0.28 0.118,0.243 0.11,0.339 0.206,0.339 0.067,0 0.089,-0.037 0.089,-0.132 0,-0.155 -0.03,-0.406 -0.03,-0.635 0,-0.28 0.03,-0.472 0.03,-0.62 0,-0.133 -0.015,-0.206 -0.103,-0.206 -0.111,0 -0.111,0.147 -0.192,0.405 -0.104,0.34 -0.133,0.362 -0.649,0.362 -0.296,0 -0.325,-0.007 -0.325,-0.133 l 0,-1.409 c 0,-0.531 0.088,-0.686 0.59,-0.686 0.487,0 0.723,0.206 0.915,0.723 0.147,0.391 0.14,0.42 0.214,0.42 0.066,0 0.081,-0.022 0.081,-0.169 l 0,-1.049 c 0,-0.102 -0.03,-0.132 -0.177,-0.132 -0.199,0 -0.553,0.03 -1.306,0.03 -0.834,0 -1.047,-0.03 -1.402,-0.03 -0.133,0 -0.155,0.037 -0.155,0.089 0,0.081 0.022,0.103 0.125,0.118 0.318,0.051 0.392,0.118 0.392,0.339 l 0,3.653"
               id="path50631"
               style="fill:#ffffff;fill-opacity:1;fill-rule:nonzero;stroke:none" /><path
               d="m 189.719,553.26 c -0.111,0 -0.111,-0.045 -0.214,-0.473 -0.148,-0.619 -0.185,-0.715 -0.185,-0.767 0,-0.096 0.059,-0.17 0.222,-0.221 0.14,-0.045 0.347,-0.015 0.347,-0.111 0,-0.045 -0.023,-0.096 -0.133,-0.096 -0.067,0 -0.355,0.03 -0.532,0.03 -0.354,0 -0.479,-0.03 -0.553,-0.03 -0.052,0 -0.074,0.022 -0.074,0.074 0,0.111 0.096,0.066 0.252,0.133 0.169,0.073 0.243,0.42 0.84,2.39 0.65,2.14 0.598,2.17 0.731,2.17 0.155,0 0.095,-0.089 1.003,-3.041 0.369,-1.195 0.413,-1.468 0.561,-1.519 0.17,-0.06 0.258,-0.037 0.258,-0.126 0,-0.051 -0.022,-0.081 -0.154,-0.081 -0.119,0 -0.354,0.03 -0.628,0.03 -0.398,0 -0.664,-0.03 -0.745,-0.03 -0.081,0 -0.096,0.037 -0.096,0.089 0,0.066 0.074,0.058 0.325,0.118 0.096,0.021 0.125,0.11 0.125,0.169 0,0.067 -0.036,0.163 -0.184,0.694 -0.148,0.538 -0.148,0.598 -0.244,0.598 l -0.922,0 z m 0.863,0.206 c 0.052,0 0.066,0 0.066,0.022 0,0.052 -0.044,0.185 -0.324,1.159 -0.111,0.383 -0.111,0.413 -0.14,0.413 -0.037,0 -0.037,-0.044 -0.28,-0.915 -0.155,-0.576 -0.185,-0.635 -0.185,-0.657 0,-0.015 0.014,-0.022 0.081,-0.022 l 0.782,0"
               id="path50633"
               style="fill:#ffffff;fill-opacity:1;fill-rule:nonzero;stroke:none" /><path
               d="m 195.067,552.876 0,2.612 c 0,0.495 -0.103,0.553 -0.295,0.576 -0.207,0.021 -0.229,0.044 -0.229,0.11 0,0.052 0.03,0.096 0.156,0.096 0.08,0 0.198,-0.029 0.464,-0.029 0.303,0 0.376,0.029 0.487,0.029 0.074,0 0.147,-0.037 0.147,-0.096 0,-0.073 -0.043,-0.096 -0.235,-0.11 -0.17,-0.015 -0.288,-0.119 -0.288,-0.37 l 0,-2.737 c 0,-1.018 -0.495,-1.453 -1.284,-1.453 -0.768,0 -1.461,0.199 -1.461,1.084 l 0,3.18 c 0,0.185 -0.03,0.281 -0.133,0.296 -0.258,0.037 -0.28,0.066 -0.28,0.125 0,0.044 0.037,0.081 0.103,0.081 0.14,0 0.288,-0.029 0.686,-0.029 0.465,0 0.716,0.029 0.768,0.029 0.088,0 0.125,-0.037 0.125,-0.081 0,-0.074 -0.044,-0.081 -0.273,-0.125 -0.185,-0.03 -0.273,-0.104 -0.273,-0.34 l 0,-2.966 c 0,-0.664 0.332,-1.004 0.923,-1.004 0.486,0 0.892,0.355 0.892,1.122"
               id="path50635"
               style="fill:#ffffff;fill-opacity:1;fill-rule:nonzero;stroke:none" /><path
               d="m 196.181,555.724 c -0.125,0.236 -0.14,0.31 -0.287,0.34 -0.133,0.029 -0.2,0.029 -0.2,0.11 0,0.059 0.037,0.096 0.111,0.096 0.133,0 0.31,-0.029 0.642,-0.029 0.494,0 0.641,0.029 0.753,0.029 0.058,0 0.103,-0.029 0.103,-0.074 0,-0.074 -0.03,-0.111 -0.258,-0.132 -0.082,-0.008 -0.155,-0.052 -0.155,-0.134 0,-0.103 0.059,-0.199 0.634,-1.35 0.517,1.048 0.627,1.181 0.627,1.307 0,0.117 -0.11,0.177 -0.31,0.177 -0.066,0 -0.147,0.021 -0.147,0.096 0,0.095 0.081,0.11 0.155,0.11 0.074,0 0.243,-0.029 0.59,-0.029 0.236,0 0.362,0.029 0.472,0.029 0.111,0 0.148,-0.029 0.148,-0.096 0,-0.059 -0.015,-0.103 -0.111,-0.11 -0.317,-0.023 -0.457,-0.148 -0.582,-0.392 l -0.716,-1.365 0.597,-1.217 c 0.568,-1.158 0.59,-1.21 0.76,-1.291 0.104,-0.052 0.163,-0.067 0.163,-0.118 0,-0.052 -0.015,-0.089 -0.118,-0.089 -0.134,0 -0.377,0.03 -0.561,0.03 -0.561,0 -0.687,-0.03 -0.753,-0.03 -0.088,0 -0.118,0.03 -0.118,0.081 0,0.089 0.111,0.089 0.221,0.126 0.118,0.037 0.192,0.088 0.192,0.169 0,0.074 -0.096,0.244 -0.538,1.181 -0.17,0.369 -0.207,0.42 -0.222,0.42 -0.037,0 -0.066,-0.096 -0.362,-0.642 -0.302,-0.56 -0.368,-0.745 -0.368,-0.863 0,-0.132 0.081,-0.221 0.295,-0.265 0.14,-0.03 0.199,-0.045 0.199,-0.111 0,-0.074 -0.044,-0.096 -0.096,-0.096 -0.111,0 -0.236,0.03 -0.597,0.03 -0.384,0 -0.517,-0.03 -0.598,-0.03 -0.126,0 -0.148,0.022 -0.148,0.096 0,0.096 0.052,0.096 0.192,0.125 0.243,0.059 0.258,0.082 0.509,0.524 l 0.849,1.498 -0.967,1.889"
               id="path50637"
               style="fill:#ffffff;fill-opacity:1;fill-rule:nonzero;stroke:none" /><path
               d="m 203.506,566.221 0.225,-27.929 c 0,0 1.501,-21.396 -24.324,-28.529 0,0 -22.823,4.505 -24.775,28.529 l 0.289,27.817 c 0,0 23.51,11.072 48.585,0.112 z"
               id="path50639"
               style="fill:none;stroke:#ffffff;stroke-width:10.76722145;stroke-linecap:butt;stroke-linejoin:miter;stroke-miterlimit:4;stroke-opacity:1;stroke-dasharray:none" /><path
               d="m 158.256,534.708 13.003,0 8.138,-8.837 8.115,8.837 13.003,0 -21.118,-20.1 -21.141,20.1"
               id="path50641"
               style="fill:#ffffff;fill-opacity:1;fill-rule:nonzero;stroke:none" /><path
               d="m 179.63,549.18 c 0,0 2.107,-3.064 0.713,-5.618 -1.393,-2.553 -5.109,-2.439 -5.109,-2.439 0,0 4.494,-1.512 6.284,1.788 1.687,3.108 -1.888,6.269 -1.888,6.269"
               id="path50643"
               style="fill:#ffffff;fill-opacity:1;fill-rule:nonzero;stroke:none" /><path
               d="m 179.431,549.098 c 0,0 -2.107,-3.064 -0.713,-5.617 1.393,-2.554 5.109,-2.44 5.109,-2.44 0,0 -4.494,-1.511 -6.284,1.788 -1.687,3.108 1.888,6.269 1.888,6.269"
               id="path50645"
               style="fill:#ffffff;fill-opacity:1;fill-rule:nonzero;stroke:none" /><path
               d="m 184.096,541.465 c 0,0 -1.662,3.326 -4.571,3.342 -2.909,0.016 -4.608,-3.291 -4.608,-3.291 0,0 0.852,4.664 4.606,4.635 3.536,-0.027 4.573,-4.686 4.573,-4.686"
               id="path50647"
               style="fill:#ffffff;fill-opacity:1;fill-rule:nonzero;stroke:none" /><path
               d="m 168.644,563.758 c 0,0.257 -0.137,0.351 -0.275,0.377 -0.128,0.026 -0.274,0.051 -0.274,0.154 0,0.095 0.077,0.12 0.223,0.12 0.18,0 0.446,-0.034 0.986,-0.034 0.351,0 0.865,0.034 1.413,0.034 0.926,0 1.611,-0.446 1.611,-1.345 0,-1.346 -1.525,-1.226 -1.525,-1.32 0,-0.043 0.069,-0.051 0.163,-0.051 0.437,0 0.651,-0.078 0.814,-0.489 l 0.6,-1.508 c 0.248,-0.617 0.565,-0.343 0.565,-0.591 0,-0.095 -0.077,-0.129 -0.154,-0.129 l -1.157,0 c -0.368,0 -0.394,0.034 -0.531,0.403 l -0.608,1.654 c -0.112,0.308 -0.206,0.497 -0.455,0.497 -0.06,0 -0.077,-0.035 -0.077,-0.069 l 0,-1.602 c 0,-0.266 0.009,-0.472 0.215,-0.557 0.162,-0.069 0.308,-0.043 0.308,-0.206 0,-0.094 -0.086,-0.12 -0.231,-0.12 -0.146,0 -0.412,0.034 -0.951,0.034 -0.54,0 -0.806,-0.034 -0.986,-0.034 -0.111,0 -0.189,0.026 -0.189,0.12 0,0.154 0.103,0.18 0.24,0.206 0.138,0.026 0.275,0.068 0.275,0.325 l 0,4.131 z m 1.319,-1.86 c 0,-0.025 0.043,-0.043 0.077,-0.043 0.6,0 0.969,0.48 0.969,1.158 0,0.599 -0.317,1.122 -0.78,1.122 -0.171,0 -0.266,-0.069 -0.266,-0.394 l 0,-1.843"
               id="path50649"
               style="fill:#ffffff;fill-opacity:1;fill-rule:nonzero;stroke:none" /><path
               d="m 164.07,559.631 c 0,-0.296 -0.912,-0.696 -1.694,-0.696 -1.425,0 -2.415,1.286 -2.415,2.711 0,1.824 1.112,3.005 2.58,3.005 0.356,0 0.713,-0.069 1.008,-0.156 0.174,-0.061 0.304,-0.113 0.321,-0.304 0.018,-0.26 0.026,-0.599 0.026,-1.051 0,-0.174 -0.078,-0.243 -0.173,-0.243 -0.504,0 -0.409,1.477 -1.269,1.477 -0.46,0 -1.034,-0.695 -1.034,-2.52 0,-1.685 0.426,-2.64 1.052,-2.64 0.199,0 0.312,0.225 0.312,0.599 l 0,1.26 c 0,0.469 -0.53,0.208 -0.53,0.434 0,0.121 0.07,0.156 0.226,0.156 0.296,0 0.678,-0.035 0.991,-0.035 0.26,0 0.616,0.035 0.851,0.035 0.156,0 0.191,-0.043 0.191,-0.13 0,-0.208 -0.443,-0.026 -0.443,-0.53 l 0,-1.372"
               id="path50651"
               style="fill:#ffffff;fill-opacity:1;fill-rule:nonzero;stroke:none" /></g></g></g></g></g></svg>