<?xml version="1.0" encoding="UTF-8" standalone="no"?>
<!-- Created with Inkscape (http://www.inkscape.org/) -->

<svg
   xmlns:dc="http://purl.org/dc/elements/1.1/"
   xmlns:cc="http://creativecommons.org/ns#"
   xmlns:rdf="http://www.w3.org/1999/02/22-rdf-syntax-ns#"
   xmlns:svg="http://www.w3.org/2000/svg"
   xmlns="http://www.w3.org/2000/svg"
   version="1.0"
   width="280"
   height="200"
   id="svg17383"
   xml:space="preserve"><metadata
     id="metadata5237"><rdf:RDF><cc:Work
         rdf:about=""><dc:format>image/svg+xml</dc:format><dc:type
           rdf:resource="http://purl.org/dc/dcmitype/StillImage" /><dc:title></dc:title></cc:Work></rdf:RDF></metadata><defs
     id="defs17386"><clipPath
       id="clipPath17398"><path
         d="M 0,841 595,841 595,0 0,0 0,841 z"
         id="path17400" /></clipPath><clipPath
       id="clipPath17404"><path
         d="m 0.36,841.68 595.44,0 L 595.8,0 0.36,0 l 0,841.68 z"
         id="path17406" /></clipPath><clipPath
       id="clipPath17494"><path
         d="m 399.685,682.535 68.031,0 0,-70 -68.031,0 0,70 z"
         id="path17496" /></clipPath><clipPath
       id="clipPath17500"><path
         d="M 0,841 595,841 595,0 0,0 0,841 z"
         id="path17502" /></clipPath><clipPath
       id="clipPath17506"><path
         d="m 0.36,841.68 595.44,0 L 595.8,0 0.36,0 l 0,841.68 z"
         id="path17508" /></clipPath><clipPath
       id="clipPath17556"><path
         d="m 484.724,682.535 68.032,0 0,-70 -68.032,0 0,70 z"
         id="path17558" /></clipPath><clipPath
       id="clipPath17562"><path
         d="M 0,841 595,841 595,0 0,0 0,841 z"
         id="path17564" /></clipPath><clipPath
       id="clipPath17568"><path
         d="m 0.36,841.68 595.44,0 L 595.8,0 0.36,0 l 0,841.68 z"
         id="path17570" /></clipPath><clipPath
       id="clipPath17642"><path
         d="m 144.567,682.535 68.031,0 0,-70 -68.031,0 0,70 z"
         id="path17644" /></clipPath><clipPath
       id="clipPath17648"><path
         d="M 0,841 595,841 595,0 0,0 0,841 z"
         id="path17650" /></clipPath><clipPath
       id="clipPath17654"><path
         d="m 0.36,841.68 595.44,0 L 595.8,0 0.36,0 l 0,841.68 z"
         id="path17656" /></clipPath><clipPath
       id="clipPath17820"><path
         d="m 229.606,682.535 68.032,0 0,-70 -68.032,0 0,70 z"
         id="path17822" /></clipPath><clipPath
       id="clipPath17826"><path
         d="M 0,841 595,841 595,0 0,0 0,841 z"
         id="path17828" /></clipPath><clipPath
       id="clipPath17832"><path
         d="m 0.36,841.68 595.44,0 L 595.8,0 0.36,0 l 0,841.68 z"
         id="path17834" /></clipPath><clipPath
       id="clipPath17894"><path
         d="m 314.646,682.535 68.031,0 0,-70 -68.031,0 0,70 z"
         id="path17896" /></clipPath><clipPath
       id="clipPath17900"><path
         d="M 0,841 595,841 595,0 0,0 0,841 z"
         id="path17902" /></clipPath><clipPath
       id="clipPath17906"><path
         d="m 0.36,841.68 595.44,0 L 595.8,0 0.36,0 l 0,841.68 z"
         id="path17908" /></clipPath><clipPath
       id="clipPath17940"><path
         d="m 458.677,531.224 c 0,-0.192 0,-0.384 0,-0.576 -0.012,0 -0.024,0 -0.036,0 0,-0.132 0,-0.264 0,-0.396 -0.012,0 -0.024,0 -0.036,0 0,-0.12 0,-0.24 0,-0.36 -0.012,0 -0.024,0 -0.036,0 0,-0.108 0,-0.216 0,-0.324 -0.012,0 -0.024,0 -0.036,0 0,-0.096 0,-0.192 0,-0.288 -0.103,-0.353 -0.112,-0.806 -0.216,-1.152 0,-0.072 0,-0.144 0,-0.216 -0.117,-0.381 -0.168,-0.852 -0.288,-1.224 0,-0.06 0,-0.12 0,-0.18 -0.102,-0.312 -0.182,-0.698 -0.288,-1.008 -0.012,-0.096 -0.024,-0.192 -0.036,-0.288 -0.188,-0.521 -0.339,-1.116 -0.54,-1.62 -0.06,-0.216 -0.12,-0.432 -0.18,-0.648 -0.012,0 -0.024,0 -0.036,0 0,-0.024 0,-0.048 0,-0.072 -0.012,0 -0.024,0 -0.036,0 -0.012,-0.072 -0.024,-0.144 -0.036,-0.216 -0.012,0 -0.024,0 -0.036,0 0,-0.024 0,-0.048 0,-0.072 -0.012,0 -0.024,0 -0.036,0 -0.012,-0.072 -0.024,-0.144 -0.036,-0.216 -0.012,0 -0.024,0 -0.036,0 0,-0.024 0,-0.048 0,-0.072 -0.012,0 -0.024,0 -0.036,0 0,-0.036 0,-0.072 0,-0.108 -0.012,0 -0.024,0 -0.036,0 0,-0.024 0,-0.048 0,-0.072 -0.012,0 -0.024,0 -0.036,0 -0.012,-0.06 -0.024,-0.12 -0.036,-0.18 -0.012,0 -0.024,0 -0.036,0 0,-0.036 0,-0.072 0,-0.108 -0.012,0 -0.024,0 -0.036,0 0,-0.024 0,-0.048 0,-0.072 -0.012,0 -0.024,0 -0.036,0 0,-0.036 0,-0.072 0,-0.108 -0.012,0 -0.024,0 -0.036,0 -0.012,-0.048 -0.024,-0.096 -0.036,-0.144 -0.012,0 -0.024,0 -0.036,0 0,-0.036 0,-0.072 0,-0.108 -0.012,0 -0.024,0 -0.036,0 -0.012,-0.048 -0.024,-0.096 -0.036,-0.144 -0.012,0 -0.024,0 -0.036,0 0,-0.036 0,-0.072 0,-0.108 -0.012,0 -0.024,0 -0.036,0 0,-0.024 0,-0.048 0,-0.072 -0.012,0 -0.024,0 -0.036,0 0,-0.024 0,-0.048 0,-0.072 -0.012,0 -0.024,0 -0.036,0 -0.024,-0.072 -0.048,-0.144 -0.072,-0.216 -0.012,0 -0.024,0 -0.036,0 0,-0.036 0,-0.072 0,-0.108 -0.012,0 -0.024,0 -0.036,0 -0.024,-0.072 -0.048,-0.144 -0.072,-0.216 -0.012,0 -0.024,0 -0.036,0 0,-0.024 0,-0.048 0,-0.072 -0.012,0 -0.024,0 -0.036,0 0,-0.024 0,-0.048 0,-0.072 -0.012,0 -0.024,0 -0.036,0 0,-0.024 0,-0.048 0,-0.072 -0.012,0 -0.024,0 -0.036,0 0,-0.024 0,-0.048 0,-0.072 -0.012,0 -0.024,0 -0.036,0 -0.012,-0.06 -0.024,-0.12 -0.036,-0.18 -0.024,-0.012 -0.048,-0.024 -0.072,-0.036 0,-0.024 0,-0.048 0,-0.072 l -0.072,-0.072 c 0,-0.024 0,-0.048 0,-0.072 -0.012,0 -0.024,0 -0.036,0 0,-0.024 0,-0.048 0,-0.072 -0.012,0 -0.024,0 -0.036,0 0,-0.024 0,-0.048 0,-0.072 -0.012,0 -0.024,0 -0.036,0 0,-0.024 0,-0.048 0,-0.072 -0.012,0 -0.024,0 -0.036,0 0,-0.024 0,-0.048 0,-0.072 l -0.072,-0.072 c 0,-0.024 0,-0.048 0,-0.072 -0.024,-0.012 -0.048,-0.024 -0.072,-0.036 0,-0.024 0,-0.048 0,-0.072 l -0.072,-0.072 c 0,-0.024 0,-0.048 0,-0.072 -0.012,0 -0.024,0 -0.036,0 0,-0.024 0,-0.048 0,-0.072 -0.012,0 -0.024,0 -0.036,0 0,-0.024 0,-0.048 0,-0.072 -0.024,-0.012 -0.048,-0.024 -0.072,-0.036 -0.024,-0.072 -0.048,-0.144 -0.072,-0.216 -0.024,-0.012 -0.048,-0.024 -0.072,-0.036 -0.012,-0.048 -0.024,-0.096 -0.036,-0.144 -0.024,-0.012 -0.048,-0.024 -0.072,-0.036 -0.024,-0.072 -0.048,-0.144 -0.072,-0.216 -0.024,-0.012 -0.048,-0.024 -0.072,-0.036 0,-0.024 0,-0.048 0,-0.072 -0.024,-0.012 -0.048,-0.024 -0.072,-0.036 -0.012,-0.048 -0.024,-0.096 -0.036,-0.144 -0.012,0 -0.024,0 -0.036,0 -0.012,-0.036 -0.024,-0.072 -0.036,-0.108 -0.024,-0.012 -0.048,-0.024 -0.072,-0.036 -0.012,-0.048 -0.024,-0.096 -0.036,-0.144 -0.024,-0.012 -0.048,-0.024 -0.072,-0.036 0,-0.024 0,-0.048 0,-0.072 -0.024,-0.012 -0.048,-0.024 -0.072,-0.036 0,-0.024 0,-0.048 0,-0.072 -0.012,0 -0.024,0 -0.036,0 -0.012,-0.036 -0.024,-0.072 -0.036,-0.108 -0.024,-0.012 -0.048,-0.024 -0.072,-0.036 0,-0.024 0,-0.048 0,-0.072 -0.012,0 -0.024,0 -0.036,0 -0.012,-0.036 -0.024,-0.072 -0.036,-0.108 -0.024,-0.012 -0.048,-0.024 -0.072,-0.036 0,-0.024 0,-0.048 0,-0.072 -0.036,-0.024 -0.072,-0.048 -0.108,-0.072 0,-0.024 0,-0.048 0,-0.072 -0.024,-0.012 -0.048,-0.024 -0.072,-0.036 0,-0.024 0,-0.048 0,-0.072 -0.036,-0.024 -0.072,-0.048 -0.108,-0.072 0,-0.024 0,-0.048 0,-0.072 -0.024,-0.012 -0.048,-0.024 -0.072,-0.036 0,-0.024 0,-0.048 0,-0.072 -0.036,-0.024 -0.072,-0.048 -0.108,-0.072 0,-0.024 0,-0.048 0,-0.072 -0.036,-0.024 -0.072,-0.048 -0.108,-0.072 0,-0.024 0,-0.048 0,-0.072 -0.048,-0.036 -0.096,-0.072 -0.144,-0.108 0,-0.024 0,-0.048 0,-0.072 -0.048,-0.036 -0.096,-0.072 -0.144,-0.108 -0.012,-0.036 -0.024,-0.072 -0.036,-0.108 -0.024,-0.012 -0.048,-0.024 -0.072,-0.036 0,-0.024 0,-0.048 0,-0.072 -0.06,-0.048 -0.12,-0.096 -0.18,-0.144 0,-0.024 0,-0.048 0,-0.072 -0.06,-0.048 -0.12,-0.096 -0.18,-0.144 0,-0.024 0,-0.048 0,-0.072 -0.072,-0.06 -0.144,-0.12 -0.216,-0.18 0,-0.024 0,-0.048 0,-0.072 -0.096,-0.084 -0.192,-0.168 -0.288,-0.252 -0.012,-0.036 -0.024,-0.072 -0.036,-0.108 -0.168,-0.156 -0.336,-0.312 -0.504,-0.468 -0.216,-0.228 -0.432,-0.456 -0.648,-0.684 -0.024,0 -0.048,0 -0.072,0 -0.096,-0.108 -0.192,-0.216 -0.288,-0.324 -0.024,0 -0.048,0 -0.072,0 -0.012,-0.024 -0.024,-0.048 -0.036,-0.072 -0.012,0 -0.024,0 -0.036,0 -0.036,-0.048 -0.072,-0.096 -0.108,-0.144 -0.024,0 -0.048,0 -0.072,0 -0.06,-0.072 -0.12,-0.144 -0.18,-0.216 -0.024,0 -0.048,0 -0.072,0 -0.012,-0.024 -0.024,-0.048 -0.036,-0.072 -0.012,0 -0.024,0 -0.036,0 -0.024,-0.036 -0.048,-0.072 -0.072,-0.108 -0.024,0 -0.048,0 -0.072,0 -0.048,-0.06 -0.096,-0.12 -0.144,-0.18 -0.024,0 -0.048,0 -0.072,0 -0.036,-0.048 -0.072,-0.096 -0.108,-0.144 -0.024,0 -0.048,0 -0.072,0 -0.036,-0.048 -0.072,-0.096 -0.108,-0.144 -0.024,0 -0.048,0 -0.072,0 -0.036,-0.048 -0.072,-0.096 -0.108,-0.144 -0.024,0 -0.048,0 -0.072,0 -0.024,-0.036 -0.048,-0.072 -0.072,-0.108 -0.024,0 -0.048,0 -0.072,0 -0.036,-0.048 -0.072,-0.096 -0.108,-0.144 -0.024,0 -0.048,0 -0.072,0 -0.024,-0.036 -0.048,-0.072 -0.072,-0.108 -0.024,0 -0.048,0 -0.072,0 -0.024,-0.036 -0.048,-0.072 -0.072,-0.108 -0.024,0 -0.048,0 -0.072,0 -0.024,-0.036 -0.048,-0.072 -0.072,-0.108 -0.024,0 -0.048,0 -0.072,0 -0.012,-0.024 -0.024,-0.048 -0.036,-0.072 -0.024,0 -0.048,0 -0.072,0 -0.012,-0.024 -0.024,-0.048 -0.036,-0.072 -0.036,-0.012 -0.072,-0.024 -0.108,-0.036 -0.024,-0.036 -0.048,-0.072 -0.072,-0.108 -0.024,0 -0.048,0 -0.072,0 0,-0.012 0,-0.024 0,-0.036 -0.036,-0.012 -0.072,-0.024 -0.108,-0.036 -0.012,-0.024 -0.024,-0.048 -0.036,-0.072 -0.024,0 -0.048,0 -0.072,0 -0.024,-0.036 -0.048,-0.072 -0.072,-0.108 -0.024,0 -0.048,0 -0.072,0 -0.012,-0.024 -0.024,-0.048 -0.036,-0.072 -0.036,-0.012 -0.072,-0.024 -0.108,-0.036 0,-0.012 0,-0.024 0,-0.036 -0.024,0 -0.048,0 -0.072,0 -0.012,-0.024 -0.024,-0.048 -0.036,-0.072 -0.024,0 -0.048,0 -0.072,0 -0.012,-0.024 -0.024,-0.048 -0.036,-0.072 -0.024,0 -0.048,0 -0.072,0 -0.012,-0.024 -0.024,-0.048 -0.036,-0.072 -0.024,0 -0.048,0 -0.072,0 -0.012,-0.024 -0.024,-0.048 -0.036,-0.072 -0.024,0 -0.048,0 -0.072,0 -0.012,-0.024 -0.024,-0.048 -0.036,-0.072 -0.024,0 -0.048,0 -0.072,0 -0.012,-0.024 -0.024,-0.048 -0.036,-0.072 -0.024,0 -0.048,0 -0.072,0 -0.012,-0.024 -0.024,-0.048 -0.036,-0.072 -0.048,-0.012 -0.096,-0.024 -0.144,-0.036 -0.012,-0.024 -0.024,-0.048 -0.036,-0.072 -0.024,0 -0.048,0 -0.072,0 -0.012,-0.024 -0.024,-0.048 -0.036,-0.072 -0.048,-0.012 -0.096,-0.024 -0.144,-0.036 -0.012,-0.024 -0.024,-0.048 -0.036,-0.072 -0.048,-0.012 -0.096,-0.024 -0.144,-0.036 -0.012,-0.024 -0.024,-0.048 -0.036,-0.072 -0.048,-0.012 -0.096,-0.024 -0.144,-0.036 -0.012,-0.024 -0.024,-0.048 -0.036,-0.072 -0.048,-0.012 -0.096,-0.024 -0.144,-0.036 -0.012,-0.024 -0.024,-0.048 -0.036,-0.072 -0.072,-0.024 -0.144,-0.048 -0.216,-0.072 -0.012,-0.024 -0.024,-0.048 -0.036,-0.072 -0.024,0 -0.048,0 -0.072,0 0,-0.012 0,-0.024 0,-0.036 -0.024,0 -0.048,0 -0.072,0 l -0.072,-0.072 c -0.024,0 -0.048,0 -0.072,0 -0.012,-0.024 -0.024,-0.048 -0.036,-0.072 -0.192,-0.084 -0.384,-0.168 -0.576,-0.252 -0.012,-0.024 -0.024,-0.048 -0.036,-0.072 -0.072,-0.024 -0.144,-0.048 -0.216,-0.072 0,-0.012 0,-0.024 0,-0.036 -0.024,0 -0.048,0 -0.072,0 0,-0.012 0,-0.024 0,-0.036 -0.072,-0.024 -0.144,-0.048 -0.216,-0.072 0,-0.012 0,-0.024 0,-0.036 -0.036,0 -0.072,0 -0.108,0 0,-0.012 0,-0.024 0,-0.036 -0.024,0 -0.048,0 -0.072,0 0,-0.012 0,-0.024 0,-0.036 -0.024,0 -0.048,0 -0.072,0 0,-0.012 0,-0.024 0,-0.036 -0.024,0 -0.048,0 -0.072,0 0,-0.012 0,-0.024 0,-0.036 -0.072,-0.024 -0.144,-0.048 -0.216,-0.072 0,-0.012 0,-0.024 0,-0.036 -0.108,-0.036 -0.216,-0.072 -0.324,-0.108 0,-0.012 0,-0.024 0,-0.036 -0.024,0 -0.048,0 -0.072,0 0,-0.012 0,-0.024 0,-0.036 -0.036,0 -0.072,0 -0.108,0 0,-0.012 0,-0.024 0,-0.036 -0.024,0 -0.048,0 -0.072,0 0,-0.012 0,-0.024 0,-0.036 -0.036,0 -0.072,0 -0.108,0 0,-0.012 0,-0.024 0,-0.036 -0.048,-0.012 -0.096,-0.024 -0.144,-0.036 0,-0.012 0,-0.024 0,-0.036 -0.036,0 -0.072,0 -0.108,0 0,-0.012 0,-0.024 0,-0.036 -0.024,0 -0.048,0 -0.072,0 0,-0.012 0,-0.024 0,-0.036 -0.036,0 -0.072,0 -0.108,0 0,-0.012 0,-0.024 0,-0.036 -0.024,0 -0.048,0 -0.072,0 0,-0.012 0,-0.024 0,-0.036 -0.06,-0.012 -0.12,-0.024 -0.18,-0.036 0,-0.012 0,-0.024 0,-0.036 -0.036,0 -0.072,0 -0.108,0 0,-0.012 0,-0.024 0,-0.036 -0.024,0 -0.048,0 -0.072,0 0,-0.012 0,-0.024 0,-0.036 -0.108,-0.024 -0.216,-0.048 -0.324,-0.072 0,-0.012 0,-0.024 0,-0.036 -0.024,0 -0.048,0 -0.072,0 0,-0.012 0,-0.024 0,-0.036 -0.036,0 -0.072,0 -0.108,0 0,-0.012 0,-0.024 0,-0.036 -0.036,0 -0.072,0 -0.108,0 0,-0.012 0,-0.024 0,-0.036 -0.036,0 -0.072,0 -0.108,0 0,-0.012 0,-0.024 0,-0.036 -0.036,0 -0.072,0 -0.108,0 0,-0.012 0,-0.024 0,-0.036 -0.036,0 -0.072,0 -0.108,0 -0.589,-0.234 -1.28,-0.374 -1.908,-0.576 -0.06,0 -0.12,0 -0.18,0 0,-0.012 0,-0.024 0,-0.036 -0.048,0 -0.096,0 -0.144,0 0,-0.012 0,-0.024 0,-0.036 -0.048,0 -0.096,0 -0.144,0 0,-0.012 0,-0.024 0,-0.036 -0.06,0 -0.12,0 -0.18,0 0,-0.012 0,-0.024 0,-0.036 -0.06,0 -0.12,0 -0.18,0 0,-0.012 0,-0.024 0,-0.036 -0.12,-0.012 -0.24,-0.024 -0.36,-0.036 0,-0.012 0,-0.024 0,-0.036 -0.072,0 -0.144,0 -0.216,0 -0.365,-0.109 -0.848,-0.108 -1.224,-0.216 -0.108,0 -0.216,0 -0.324,0 0,-0.012 0,-0.024 0,-0.036 -0.108,0 -0.216,0 -0.324,0 0,-0.012 0,-0.024 0,-0.036 -0.132,0 -0.264,0 -0.396,0 -0.05,-0.008 0.013,-0.022 -0.036,-0.036 -0.156,0 -0.312,0 -0.468,0 0,-0.012 0,-0.024 0,-0.036 -0.217,-0.061 -0.58,0.024 -0.792,-0.036 -0.324,0 -0.648,0 -0.972,0 -0.331,0 -0.774,-0.04 -1.044,0.036 -0.218,0.062 -0.56,-0.019 -0.756,0.036 -0.18,0 -0.36,0 -0.54,0 0,0.012 0,0.024 0,0.036 -0.24,0.012 -0.48,0.024 -0.72,0.036 -0.66,0.096 -1.32,0.192 -1.98,0.288 -0.636,0.144 -1.272,0.288 -1.908,0.432 0,0.012 0,0.024 0,0.036 -0.084,0.012 -0.168,0.024 -0.252,0.036 0,0.012 0,0.024 0,0.036 -0.084,0.012 -0.168,0.024 -0.252,0.036 0,0.012 0,0.024 0,0.036 -0.084,0.012 -0.168,0.024 -0.252,0.036 0,0.012 0,0.024 0,0.036 -0.036,0 -0.072,0 -0.108,0 0,0.012 0,0.024 0,0.036 -0.036,0 -0.072,0 -0.108,0 0,0.012 0,0.024 0,0.036 -0.036,0 -0.072,0 -0.108,0 0,0.012 0,0.024 0,0.036 -0.048,0 -0.096,0 -0.144,0 0,0.012 0,0.024 0,0.036 -0.036,0 -0.072,0 -0.108,0 0,0.012 0,0.024 0,0.036 -0.036,0 -0.072,0 -0.108,0 0,0.012 0,0.024 0,0.036 -0.036,0 -0.072,0 -0.108,0 0,0.012 0,0.024 0,0.036 -0.036,0 -0.072,0 -0.108,0 0,0.012 0,0.024 0,0.036 -0.024,0 -0.048,0 -0.072,0 0,0.012 0,0.024 0,0.036 -0.036,0 -0.072,0 -0.108,0 0,0.012 0,0.024 0,0.036 -0.036,0 -0.072,0 -0.108,0 0,0.012 0,0.024 0,0.036 -0.036,0 -0.072,0 -0.108,0 0,0.012 0,0.024 0,0.036 -0.036,0 -0.072,0 -0.108,0 0,0.012 0,0.024 0,0.036 -0.036,0 -0.072,0 -0.108,0 0,0.012 0,0.024 0,0.036 -0.024,0 -0.048,0 -0.072,0 0,0.012 0,0.024 0,0.036 -0.036,0 -0.072,0 -0.108,0 0,0.012 0,0.024 0,0.036 -0.024,0 -0.048,0 -0.072,0 0,0.012 0,0.024 0,0.036 -0.072,0.012 -0.144,0.024 -0.216,0.036 0,0.012 0,0.024 0,0.036 -0.024,0 -0.048,0 -0.072,0 0,0.012 0,0.024 0,0.036 -0.036,0 -0.072,0 -0.108,0 0,0.012 0,0.024 0,0.036 -0.048,0.012 -0.096,0.024 -0.144,0.036 0,0.012 0,0.024 0,0.036 -0.036,0 -0.072,0 -0.108,0 0,0.012 0,0.024 0,0.036 -0.024,0 -0.048,0 -0.072,0 0,0.012 0,0.024 0,0.036 -0.036,0 -0.072,0 -0.108,0 0,0.012 0,0.024 0,0.036 -0.048,0.012 -0.096,0.024 -0.144,0.036 0,0.012 0,0.024 0,0.036 -0.036,0 -0.072,0 -0.108,0 0,0.012 0,0.024 0,0.036 -0.024,0 -0.048,0 -0.072,0 0,0.012 0,0.024 0,0.036 -0.024,0 -0.048,0 -0.072,0 0,0.012 0,0.024 0,0.036 -0.024,0 -0.048,0 -0.072,0 0,0.012 0,0.024 0,0.036 -0.036,0 -0.072,0 -0.108,0 0,0.012 0,0.024 0,0.036 -0.024,0 -0.048,0 -0.072,0 0,0.012 0,0.024 0,0.036 -0.072,0.024 -0.144,0.048 -0.216,0.072 0,0.012 0,0.024 0,0.036 -0.036,0 -0.072,0 -0.108,0 0,0.012 0,0.024 0,0.036 -0.072,0.024 -0.144,0.048 -0.216,0.072 0,0.012 0,0.024 0,0.036 -0.024,0 -0.048,0 -0.072,0 0,0.012 0,0.024 0,0.036 -0.024,0 -0.048,0 -0.072,0 0,0.012 0,0.024 0,0.036 -0.024,0 -0.048,0 -0.072,0 0,0.012 0,0.024 0,0.036 -0.024,0 -0.048,0 -0.072,0 0,0.012 0,0.024 0,0.036 -0.024,0 -0.048,0 -0.072,0 0,0.012 0,0.024 0,0.036 -0.024,0 -0.048,0 -0.072,0 l -0.072,0.072 c -0.024,0 -0.048,0 -0.072,0 -0.012,0.024 -0.024,0.048 -0.036,0.072 -0.024,0 -0.048,0 -0.072,0 l -0.072,0.072 c -0.024,0 -0.048,0 -0.072,0 0,0.012 0,0.024 0,0.036 -0.024,0 -0.048,0 -0.072,0 0,0.012 0,0.024 0,0.036 -0.024,0 -0.048,0 -0.072,0 0,0.012 0,0.024 0,0.036 -0.048,0.012 -0.096,0.024 -0.144,0.036 -0.012,0.024 -0.024,0.048 -0.036,0.072 -0.072,0.024 -0.144,0.048 -0.216,0.072 -0.012,0.024 -0.024,0.048 -0.036,0.072 -0.072,0.024 -0.144,0.048 -0.216,0.072 -0.012,0.024 -0.024,0.048 -0.036,0.072 -0.072,0.024 -0.144,0.048 -0.216,0.072 -0.012,0.024 -0.024,0.048 -0.036,0.072 -0.024,0 -0.048,0 -0.072,0 0,0.012 0,0.024 0,0.036 -0.024,0 -0.048,0 -0.072,0 0,0.012 0,0.024 0,0.036 -0.036,0.012 -0.072,0.024 -0.108,0.036 -0.012,0.024 -0.024,0.048 -0.036,0.072 -0.048,0.012 -0.096,0.024 -0.144,0.036 0,0.012 0,0.024 0,0.036 -0.036,0.012 -0.072,0.024 -0.108,0.036 -0.012,0.024 -0.024,0.048 -0.036,0.072 -0.048,0.012 -0.096,0.024 -0.144,0.036 -0.012,0.024 -0.024,0.048 -0.036,0.072 -0.024,0 -0.048,0 -0.072,0 0,0.012 0,0.024 0,0.036 -0.036,0.012 -0.072,0.024 -0.108,0.036 -0.012,0.024 -0.024,0.048 -0.036,0.072 -0.024,0 -0.048,0 -0.072,0 -0.012,0.024 -0.024,0.048 -0.036,0.072 -0.024,0 -0.048,0 -0.072,0 -0.012,0.024 -0.024,0.048 -0.036,0.072 -0.024,0 -0.048,0 -0.072,0 -0.012,0.024 -0.024,0.048 -0.036,0.072 -0.024,0 -0.048,0 -0.072,0 0,0.012 0,0.024 0,0.036 -0.036,0.012 -0.072,0.024 -0.108,0.036 -0.012,0.024 -0.024,0.048 -0.036,0.072 -0.024,0 -0.048,0 -0.072,0 -0.024,0.036 -0.048,0.072 -0.072,0.108 -0.024,0 -0.048,0 -0.072,0 -0.012,0.024 -0.024,0.048 -0.036,0.072 -0.024,0 -0.048,0 -0.072,0 -0.024,0.036 -0.048,0.072 -0.072,0.108 -0.024,0 -0.048,0 -0.072,0 -0.012,0.024 -0.024,0.048 -0.036,0.072 -0.024,0 -0.048,0 -0.072,0 -0.024,0.036 -0.048,0.072 -0.072,0.108 -0.024,0 -0.048,0 -0.072,0 -0.024,0.036 -0.048,0.072 -0.072,0.108 -0.024,0 -0.048,0 -0.072,0 -0.024,0.036 -0.048,0.072 -0.072,0.108 -0.024,0 -0.048,0 -0.072,0 -0.024,0.036 -0.048,0.072 -0.072,0.108 -0.024,0 -0.048,0 -0.072,0 -0.036,0.048 -0.072,0.096 -0.108,0.144 -0.024,0 -0.048,0 -0.072,0 -0.024,0.036 -0.048,0.072 -0.072,0.108 -0.024,0 -0.048,0 -0.072,0 -0.036,0.048 -0.072,0.096 -0.108,0.144 -0.024,0 -0.048,0 -0.072,0 -0.036,0.048 -0.072,0.096 -0.108,0.144 -0.024,0 -0.048,0 -0.072,0 -0.048,0.06 -0.096,0.12 -0.144,0.18 -0.024,0 -0.048,0 -0.072,0 -0.06,0.072 -0.12,0.144 -0.18,0.216 -0.024,0 -0.048,0 -0.072,0 -0.06,0.072 -0.12,0.144 -0.18,0.216 -0.024,0 -0.048,0 -0.072,0 -0.096,0.108 -0.192,0.216 -0.288,0.324 -0.024,0 -0.048,0 -0.072,0 -0.144,0.156 -0.288,0.312 -0.432,0.468 -0.024,0 -0.048,0 -0.072,0 -0.108,0.12 -0.216,0.24 -0.324,0.36 -0.263,0.263 -0.534,0.485 -0.756,0.792 -0.156,0.144 -0.312,0.288 -0.468,0.432 0,0.024 0,0.048 0,0.072 -0.096,0.084 -0.192,0.168 -0.288,0.252 0,0.024 0,0.048 0,0.072 -0.084,0.072 -0.168,0.144 -0.252,0.216 0,0.024 0,0.048 0,0.072 -0.084,0.072 -0.168,0.144 -0.252,0.216 0,0.024 0,0.048 0,0.072 -0.06,0.048 -0.12,0.096 -0.18,0.144 0,0.024 0,0.048 0,0.072 -0.06,0.048 -0.12,0.096 -0.18,0.144 0,0.024 0,0.048 0,0.072 -0.024,0.012 -0.048,0.024 -0.072,0.036 -0.012,0.036 -0.024,0.072 -0.036,0.108 -0.048,0.036 -0.096,0.072 -0.144,0.108 0,0.024 0,0.048 0,0.072 -0.036,0.024 -0.072,0.048 -0.108,0.072 0,0.024 0,0.048 0,0.072 -0.036,0.024 -0.072,0.048 -0.108,0.072 0,0.024 0,0.048 0,0.072 -0.036,0.024 -0.072,0.048 -0.108,0.072 -0.012,0.036 -0.024,0.072 -0.036,0.108 -0.024,0.012 -0.048,0.024 -0.072,0.036 0,0.024 0,0.048 0,0.072 -0.024,0.012 -0.048,0.024 -0.072,0.036 0,0.024 0,0.048 0,0.072 -0.036,0.024 -0.072,0.048 -0.108,0.072 0,0.024 0,0.048 0,0.072 -0.024,0.012 -0.048,0.024 -0.072,0.036 0,0.024 0,0.048 0,0.072 -0.012,0 -0.024,0 -0.036,0 -0.012,0.036 -0.024,0.072 -0.036,0.108 -0.024,0.012 -0.048,0.024 -0.072,0.036 0,0.024 0,0.048 0,0.072 -0.036,0.024 -0.072,0.048 -0.108,0.072 0,0.024 0,0.048 0,0.072 -0.024,0.012 -0.048,0.024 -0.072,0.036 -0.012,0.048 -0.024,0.096 -0.036,0.144 -0.024,0.012 -0.048,0.024 -0.072,0.036 0,0.024 0,0.048 0,0.072 -0.024,0.012 -0.048,0.024 -0.072,0.036 0,0.024 0,0.048 0,0.072 -0.024,0.012 -0.048,0.024 -0.072,0.036 0,0.024 0,0.048 0,0.072 -0.024,0.012 -0.048,0.024 -0.072,0.036 -0.012,0.048 -0.024,0.096 -0.036,0.144 -0.024,0.012 -0.048,0.024 -0.072,0.036 -0.012,0.048 -0.024,0.096 -0.036,0.144 -0.024,0.012 -0.048,0.024 -0.072,0.036 -0.012,0.048 -0.024,0.096 -0.036,0.144 -0.024,0.012 -0.048,0.024 -0.072,0.036 -0.024,0.072 -0.048,0.144 -0.072,0.216 -0.024,0.012 -0.048,0.024 -0.072,0.036 -0.024,0.072 -0.048,0.144 -0.072,0.216 -0.024,0.012 -0.048,0.024 -0.072,0.036 0,0.024 0,0.048 0,0.072 l -0.072,0.072 c 0,0.024 0,0.048 0,0.072 -0.012,0 -0.024,0 -0.036,0 0,0.024 0,0.048 0,0.072 -0.012,0 -0.024,0 -0.036,0 0,0.024 0,0.048 0,0.072 -0.012,0 -0.024,0 -0.036,0 -0.012,0.048 -0.024,0.096 -0.036,0.144 -0.024,0.012 -0.048,0.024 -0.072,0.036 0,0.024 0,0.048 0,0.072 l -0.072,0.072 c 0,0.024 0,0.048 0,0.072 -0.012,0 -0.024,0 -0.036,0 0,0.024 0,0.048 0,0.072 -0.012,0 -0.024,0 -0.036,0 0,0.024 0,0.048 0,0.072 -0.012,0 -0.024,0 -0.036,0 0,0.024 0,0.048 0,0.072 -0.012,0 -0.024,0 -0.036,0 -0.024,0.072 -0.048,0.144 -0.072,0.216 -0.012,0 -0.024,0 -0.036,0 0,0.036 0,0.072 0,0.108 -0.012,0 -0.024,0 -0.036,0 0,0.024 0,0.048 0,0.072 -0.012,0 -0.024,0 -0.036,0 0,0.024 0,0.048 0,0.072 -0.012,0 -0.024,0 -0.036,0 -0.024,0.072 -0.048,0.144 -0.072,0.216 -0.012,0 -0.024,0 -0.036,0 0,0.036 0,0.072 0,0.108 -0.012,0 -0.024,0 -0.036,0 0,0.024 0,0.048 0,0.072 -0.012,0 -0.024,0 -0.036,0 -0.012,0.048 -0.024,0.096 -0.036,0.144 -0.012,0 -0.024,0 -0.036,0 0,0.036 0,0.072 0,0.108 -0.012,0 -0.024,0 -0.036,0 -0.012,0.048 -0.024,0.096 -0.036,0.144 -0.012,0 -0.024,0 -0.036,0 0,0.036 0,0.072 0,0.108 -0.012,0 -0.024,0 -0.036,0 0,0.024 0,0.048 0,0.072 -0.012,0 -0.024,0 -0.036,0 0,0.036 0,0.072 0,0.108 -0.012,0 -0.024,0 -0.036,0 0,0.024 0,0.048 0,0.072 -0.012,0 -0.024,0 -0.036,0 0,0.036 0,0.072 0,0.108 -0.012,0 -0.024,0 -0.036,0 0,0.024 0,0.048 0,0.072 -0.012,0 -0.024,0 -0.036,0 -0.012,0.06 -0.024,0.12 -0.036,0.18 -0.012,0 -0.024,0 -0.036,0 -0.012,0.072 -0.024,0.144 -0.036,0.216 -0.012,0 -0.024,0 -0.036,0 0,0.024 0,0.048 0,0.072 -0.012,0 -0.024,0 -0.036,0 -0.024,0.108 -0.048,0.216 -0.072,0.324 -0.012,0 -0.024,0 -0.036,0 0,0.024 0,0.048 0,0.072 -0.012,0 -0.024,0 -0.036,0 -0.024,0.108 -0.048,0.216 -0.072,0.324 -0.012,0 -0.024,0 -0.036,0 0,0.036 0,0.072 0,0.108 -0.012,0 -0.024,0 -0.036,0 0,0.036 0,0.072 0,0.108 -0.012,0 -0.024,0 -0.036,0 0,0.036 0,0.072 0,0.108 -0.012,0 -0.024,0 -0.036,0 -0.024,0.12 -0.048,0.24 -0.072,0.36 -0.012,0 -0.024,0 -0.036,0 0,0.036 0,0.072 0,0.108 -0.012,0 -0.024,0 -0.036,0 0,0.048 0,0.096 0,0.144 -0.012,0 -0.024,0 -0.036,0 0,0.036 0,0.072 0,0.108 -0.012,0 -0.024,0 -0.036,0 -0.012,0.084 -0.024,0.168 -0.036,0.252 -0.012,0 -0.024,0 -0.036,0 -0.012,0.096 -0.024,0.192 -0.036,0.288 -0.012,0 -0.024,0 -0.036,0 -0.012,0.096 -0.024,0.192 -0.036,0.288 -0.172,0.505 -0.236,1.13 -0.396,1.656 0,0.072 0,0.144 0,0.216 -0.059,0.197 -0.086,0.483 -0.144,0.684 0,0.096 0,0.192 0,0.288 -0.012,0 -0.024,0 -0.036,0 0,0.084 0,0.168 0,0.252 -0.012,0 -0.024,0 -0.036,0 0,0.108 0,0.216 0,0.324 -0.012,0 -0.024,0 -0.036,0 0,0.12 0,0.24 0,0.36 -0.012,0 -0.024,0 -0.036,0 0,0.132 0,0.264 0,0.396 -0.012,0 -0.024,0 -0.036,0 -0.012,0.3 -0.024,0.6 -0.036,0.9 0,0.132 0,0.264 0,0.396 -0.076,0.273 -0.077,1.348 0,1.62 0,0.216 0,0.432 0,0.648 0.024,0.36 0.048,0.72 0.072,1.08 0.012,0 0.024,0 0.036,0 0,0.132 0,0.264 0,0.396 0.012,0 0.024,0 0.036,0 0,0.096 0,0.192 0,0.288 0.112,0.385 0.104,0.887 0.216,1.26 0.012,0.144 0.024,0.288 0.036,0.432 0.066,0.214 0.113,0.507 0.18,0.72 0,0.06 0,0.12 0,0.18 0.012,0 0.024,0 0.036,0 0.024,0.156 0.048,0.312 0.072,0.468 0.012,0 0.024,0 0.036,0 0,0.048 0,0.096 0,0.144 0.012,0 0.024,0 0.036,0 0,0.048 0,0.096 0,0.144 0.012,0 0.024,0 0.036,0 0,0.048 0,0.096 0,0.144 0.012,0 0.024,0 0.036,0 0,0.048 0,0.096 0,0.144 0.012,0 0.024,0 0.036,0 0,0.048 0,0.096 0,0.144 0.012,0 0.024,0 0.036,0 0,0.036 0,0.072 0,0.108 0.012,0 0.024,0 0.036,0 0.012,0.096 0.024,0.192 0.036,0.288 0.159,0.441 0.298,0.942 0.468,1.368 0,0.036 0,0.072 0,0.108 0.012,0 0.024,0 0.036,0 0,0.036 0,0.072 0,0.108 0.012,0 0.024,0 0.036,0 0,0.036 0,0.072 0,0.108 0.012,0 0.024,0 0.036,0 0,0.036 0,0.072 0,0.108 0.012,0 0.024,0 0.036,0 0,0.024 0,0.048 0,0.072 0.012,0 0.024,0 0.036,0 0.012,0.072 0.024,0.144 0.036,0.216 0.012,0 0.024,0 0.036,0 0,0.024 0,0.048 0,0.072 0.012,0 0.024,0 0.036,0 0.012,0.072 0.024,0.144 0.036,0.216 0.012,0 0.024,0 0.036,0 0,0.024 0,0.048 0,0.072 0.012,0 0.024,0 0.036,0 0,0.036 0,0.072 0,0.108 0.012,0 0.024,0 0.036,0 0,0.024 0,0.048 0,0.072 0.012,0 0.024,0 0.036,0 0.012,0.06 0.024,0.12 0.036,0.18 0.012,0 0.024,0 0.036,0 0,0.036 0,0.072 0,0.108 0.012,0 0.024,0 0.036,0 0,0.024 0,0.048 0,0.072 0.012,0 0.024,0 0.036,0 0,0.036 0,0.072 0,0.108 0.012,0 0.024,0 0.036,0 0.012,0.048 0.024,0.096 0.036,0.144 0.012,0 0.024,0 0.036,0 0,0.036 0,0.072 0,0.108 0.012,0 0.024,0 0.036,0 0,0.024 0,0.048 0,0.072 0.012,0 0.024,0 0.036,0 0.012,0.048 0.024,0.096 0.036,0.144 0.012,0 0.024,0 0.036,0 0,0.036 0,0.072 0,0.108 0.012,0 0.024,0 0.036,0 0,0.024 0,0.048 0,0.072 0.012,0 0.024,0 0.036,0 0,0.024 0,0.048 0,0.072 0.012,0 0.024,0 0.036,0 0,0.024 0,0.048 0,0.072 0.012,0 0.024,0 0.036,0 0,0.036 0,0.072 0,0.108 0.012,0 0.024,0 0.036,0 0,0.024 0,0.048 0,0.072 0.012,0 0.024,0 0.036,0 0.012,0.048 0.024,0.096 0.036,0.144 0.012,0 0.024,0 0.036,0 0.012,0.048 0.024,0.096 0.036,0.144 0.012,0 0.024,0 0.036,0 0.012,0.048 0.024,0.096 0.036,0.144 0.012,0 0.024,0 0.036,0 0,0.024 0,0.048 0,0.072 0.012,0 0.024,0 0.036,0 0,0.024 0,0.048 0,0.072 0.012,0 0.024,0 0.036,0 0,0.024 0,0.048 0,0.072 0.012,0 0.024,0 0.036,0 0,0.024 0,0.048 0,0.072 0.012,0 0.024,0 0.036,0 0,0.024 0,0.048 0,0.072 0.012,0 0.024,0 0.036,0 0,0.024 0,0.048 0,0.072 0.012,0 0.024,0 0.036,0 0,0.024 0,0.048 0,0.072 0.012,0 0.024,0 0.036,0 0,0.024 0,0.048 0,0.072 0.012,0 0.024,0 0.036,0 0,0.024 0,0.048 0,0.072 0.012,0 0.024,0 0.036,0 0,0.024 0,0.048 0,0.072 l 0.072,0.072 c 0,0.024 0,0.048 0,0.072 0.024,0.012 0.048,0.024 0.072,0.036 0.024,0.072 0.048,0.144 0.072,0.216 l 0.072,0.072 c 0,0.024 0,0.048 0,0.072 0.024,0.012 0.048,0.024 0.072,0.036 0.024,0.072 0.048,0.144 0.072,0.216 0.024,0.012 0.048,0.024 0.072,0.036 0.024,0.072 0.048,0.144 0.072,0.216 0.024,0.012 0.048,0.024 0.072,0.036 0.012,0.048 0.024,0.096 0.036,0.144 0.024,0.012 0.048,0.024 0.072,0.036 0,0.024 0,0.048 0,0.072 0.012,0 0.024,0 0.036,0 0,0.024 0,0.048 0,0.072 0.024,0.012 0.048,0.024 0.072,0.036 0,0.024 0,0.048 0,0.072 0.024,0.012 0.048,0.024 0.072,0.036 0.012,0.048 0.024,0.096 0.036,0.144 0.024,0.012 0.048,0.024 0.072,0.036 0,0.024 0,0.048 0,0.072 0.024,0.012 0.048,0.024 0.072,0.036 0,0.024 0,0.048 0,0.072 0.024,0.012 0.048,0.024 0.072,0.036 0.012,0.048 0.024,0.096 0.036,0.144 0.012,0 0.024,0 0.036,0 0.012,0.036 0.024,0.072 0.036,0.108 0.024,0.012 0.048,0.024 0.072,0.036 0,0.024 0,0.048 0,0.072 0.012,0 0.024,0 0.036,0 0.012,0.036 0.024,0.072 0.036,0.108 0.024,0.012 0.048,0.024 0.072,0.036 0,0.024 0,0.048 0,0.072 0.036,0.024 0.072,0.048 0.108,0.072 0,0.024 0,0.048 0,0.072 0.012,0 0.024,0 0.036,0 0.012,0.036 0.024,0.072 0.036,0.108 0.024,0.012 0.048,0.024 0.072,0.036 0,0.024 0,0.048 0,0.072 0.024,0.012 0.048,0.024 0.072,0.036 0.012,0.036 0.024,0.072 0.036,0.108 0.036,0.024 0.072,0.048 0.108,0.072 0,0.024 0,0.048 0,0.072 0.024,0.012 0.048,0.024 0.072,0.036 0,0.024 0,0.048 0,0.072 0.024,0.012 0.048,0.024 0.072,0.036 0.012,0.036 0.024,0.072 0.036,0.108 0.036,0.024 0.072,0.048 0.108,0.072 0,0.024 0,0.048 0,0.072 0.048,0.036 0.096,0.072 0.144,0.108 0,0.024 0,0.048 0,0.072 0.036,0.024 0.072,0.048 0.108,0.072 0,0.024 0,0.048 0,0.072 0.048,0.036 0.096,0.072 0.144,0.108 0,0.024 0,0.048 0,0.072 0.048,0.036 0.096,0.072 0.144,0.108 0,0.024 0,0.048 0,0.072 0.06,0.048 0.12,0.096 0.18,0.144 0,0.024 0,0.048 0,0.072 0.072,0.06 0.144,0.12 0.216,0.18 0,0.024 0,0.048 0,0.072 0.084,0.072 0.168,0.144 0.252,0.216 0,0.024 0,0.048 0,0.072 0.132,0.12 0.264,0.24 0.396,0.36 0,0.024 0,0.048 0,0.072 0.156,0.144 0.312,0.288 0.468,0.432 0.326,0.326 0.628,0.662 1.008,0.936 0.084,0.096 0.168,0.192 0.252,0.288 0.024,0 0.048,0 0.072,0 0.06,0.072 0.12,0.144 0.18,0.216 0.024,0 0.048,0 0.072,0 0.048,0.06 0.096,0.12 0.144,0.18 0.024,0 0.048,0 0.072,0 0.036,0.048 0.072,0.096 0.108,0.144 0.024,0 0.048,0 0.072,0 0.036,0.048 0.072,0.096 0.108,0.144 0.024,0 0.048,0 0.072,0 0.036,0.048 0.072,0.096 0.108,0.144 0.024,0 0.048,0 0.072,0 0.024,0.036 0.048,0.072 0.072,0.108 0.024,0 0.048,0 0.072,0 0.036,0.048 0.072,0.096 0.108,0.144 0.024,0 0.048,0 0.072,0 0.012,0.024 0.024,0.048 0.036,0.072 0.024,0 0.048,0 0.072,0 0.024,0.036 0.048,0.072 0.072,0.108 0.024,0 0.048,0 0.072,0 0.012,0.024 0.024,0.048 0.036,0.072 0.024,0 0.048,0 0.072,0 0.024,0.036 0.048,0.072 0.072,0.108 0.024,0 0.048,0 0.072,0 0.012,0.024 0.024,0.048 0.036,0.072 0.024,0 0.048,0 0.072,0 0.024,0.036 0.048,0.072 0.072,0.108 0.024,0 0.048,0 0.072,0 0.012,0.024 0.024,0.048 0.036,0.072 0.024,0 0.048,0 0.072,0 0.024,0.036 0.048,0.072 0.072,0.108 0.024,0 0.048,0 0.072,0 0.012,0.024 0.024,0.048 0.036,0.072 0.024,0 0.048,0 0.072,0 0.012,0.024 0.024,0.048 0.036,0.072 0.024,0 0.048,0 0.072,0 0.012,0.024 0.024,0.048 0.036,0.072 0.024,0 0.048,0 0.072,0 0.012,0.024 0.024,0.048 0.036,0.072 0.048,0.012 0.096,0.024 0.144,0.036 0.012,0.024 0.024,0.048 0.036,0.072 0.024,0 0.048,0 0.072,0 0.012,0.024 0.024,0.048 0.036,0.072 0.024,0 0.048,0 0.072,0 0.012,0.024 0.024,0.048 0.036,0.072 0.024,0 0.048,0 0.072,0 0,0.012 0,0.024 0,0.036 0.024,0 0.048,0 0.072,0 0.012,0.024 0.024,0.048 0.036,0.072 0.048,0.012 0.096,0.024 0.144,0.036 0.012,0.024 0.024,0.048 0.036,0.072 0.036,0.012 0.072,0.024 0.108,0.036 0,0.012 0,0.024 0,0.036 0.072,0.024 0.144,0.048 0.216,0.072 0.012,0.024 0.024,0.048 0.036,0.072 0.048,0.012 0.096,0.024 0.144,0.036 0.012,0.024 0.024,0.048 0.036,0.072 0.072,0.024 0.144,0.048 0.216,0.072 0.012,0.024 0.024,0.048 0.036,0.072 0.024,0 0.048,0 0.072,0 0,0.012 0,0.024 0,0.036 0.024,0 0.048,0 0.072,0 0,0.012 0,0.024 0,0.036 0.024,0 0.048,0 0.072,0 l 0.072,0.072 c 0.024,0 0.048,0 0.072,0 0.012,0.024 0.024,0.048 0.036,0.072 0.048,0.012 0.096,0.024 0.144,0.036 l 0.072,0.072 c 0.024,0 0.048,0 0.072,0 0,0.012 0,0.024 0,0.036 0.024,0 0.048,0 0.072,0 0,0.012 0,0.024 0,0.036 0.024,0 0.048,0 0.072,0 0,0.012 0,0.024 0,0.036 0.024,0 0.048,0 0.072,0 0,0.012 0,0.024 0,0.036 0.048,0.012 0.096,0.024 0.144,0.036 0,0.012 0,0.024 0,0.036 0.048,0.012 0.096,0.024 0.144,0.036 0,0.012 0,0.024 0,0.036 0.048,0.012 0.096,0.024 0.144,0.036 0,0.012 0,0.024 0,0.036 0.048,0.012 0.096,0.024 0.144,0.036 0,0.012 0,0.024 0,0.036 0.024,0 0.048,0 0.072,0 0,0.012 0,0.024 0,0.036 0.024,0 0.048,0 0.072,0 0,0.012 0,0.024 0,0.036 0.024,0 0.048,0 0.072,0 0,0.012 0,0.024 0,0.036 0.024,0 0.048,0 0.072,0 0,0.012 0,0.024 0,0.036 0.048,0.012 0.096,0.024 0.144,0.036 0,0.012 0,0.024 0,0.036 0.024,0 0.048,0 0.072,0 0,0.012 0,0.024 0,0.036 0.036,0 0.072,0 0.108,0 0,0.012 0,0.024 0,0.036 0.024,0 0.048,0 0.072,0 0,0.012 0,0.024 0,0.036 0.072,0.024 0.144,0.048 0.216,0.072 0,0.012 0,0.024 0,0.036 0.036,0 0.072,0 0.108,0 0,0.012 0,0.024 0,0.036 0.024,0 0.048,0 0.072,0 0,0.012 0,0.024 0,0.036 0.048,0.012 0.096,0.024 0.144,0.036 0,0.012 0,0.024 0,0.036 0.036,0 0.072,0 0.108,0 0,0.012 0,0.024 0,0.036 0.024,0 0.048,0 0.072,0 0,0.012 0,0.024 0,0.036 0.036,0 0.072,0 0.108,0 0,0.012 0,0.024 0,0.036 0.048,0.012 0.096,0.024 0.144,0.036 0,0.012 0,0.024 0,0.036 0.036,0 0.072,0 0.108,0 0,0.012 0,0.024 0,0.036 0.048,0.012 0.096,0.024 0.144,0.036 0,0.012 0,0.024 0,0.036 0.036,0 0.072,0 0.108,0 0,0.012 0,0.024 0,0.036 0.024,0 0.048,0 0.072,0 0,0.012 0,0.024 0,0.036 0.072,0.012 0.144,0.024 0.216,0.036 0,0.012 0,0.024 0,0.036 0.06,0.012 0.12,0.024 0.18,0.036 0,0.012 0,0.024 0,0.036 0.024,0 0.048,0 0.072,0 0,0.012 0,0.024 0,0.036 0.036,0 0.072,0 0.108,0 0,0.012 0,0.024 0,0.036 0.024,0 0.048,0 0.072,0 0,0.012 0,0.024 0,0.036 0.036,0 0.072,0 0.108,0 0,0.012 0,0.024 0,0.036 0.036,0 0.072,0 0.108,0 0,0.012 0,0.024 0,0.036 0.036,0 0.072,0 0.108,0 0,0.012 0,0.024 0,0.036 0.036,0 0.072,0 0.108,0 0,0.012 0,0.024 0,0.036 0.024,0 0.048,0 0.072,0 0,0.012 0,0.024 0,0.036 0.036,0 0.072,0 0.108,0 0,0.012 0,0.024 0,0.036 0.036,0 0.072,0 0.108,0 0,0.012 0,0.024 0,0.036 0.036,0 0.072,0 0.108,0 0,0.012 0,0.024 0,0.036 0.036,0 0.072,0 0.108,0 0,0.012 0,0.024 0,0.036 0.036,0 0.072,0 0.108,0 0,0.012 0,0.024 0,0.036 0.072,0.012 0.144,0.024 0.216,0.036 0,0.012 0,0.024 0,0.036 0.024,0 0.048,0 0.072,0 0,0.012 0,0.024 0,0.036 0.036,0 0.072,0 0.108,0 0,0.012 0,0.024 0,0.036 0.048,0 0.096,0 0.144,0 0.189,0.068 0.396,0.171 0.612,0.216 0.756,2.34 1.512,4.68 2.268,7.02 -0.036,0.024 -0.072,0.048 -0.108,0.072 0,0.012 0,0.024 0,0.036 -0.024,0 -0.048,0 -0.072,0 -0.024,0.036 -0.048,0.072 -0.072,0.108 -0.024,0 -0.048,0 -0.072,0 -0.012,0.024 -0.024,0.048 -0.036,0.072 -0.024,0 -0.048,0 -0.072,0 -0.012,0.024 -0.024,0.048 -0.036,0.072 -0.036,0.012 -0.072,0.024 -0.108,0.036 -0.024,0.036 -0.048,0.072 -0.072,0.108 -0.024,0 -0.048,0 -0.072,0 -0.024,0.036 -0.048,0.072 -0.072,0.108 -0.036,0.012 -0.072,0.024 -0.108,0.036 -0.012,0.024 -0.024,0.048 -0.036,0.072 -0.024,0 -0.048,0 -0.072,0 -0.012,0.024 -0.024,0.048 -0.036,0.072 -0.024,0 -0.048,0 -0.072,0 -0.012,0.024 -0.024,0.048 -0.036,0.072 -0.036,0.012 -0.072,0.024 -0.108,0.036 -0.024,0.036 -0.048,0.072 -0.072,0.108 -0.024,0 -0.048,0 -0.072,0 -0.024,0.036 -0.048,0.072 -0.072,0.108 -0.036,0.012 -0.072,0.024 -0.108,0.036 -0.012,0.024 -0.024,0.048 -0.036,0.072 -0.024,0 -0.048,0 -0.072,0 -0.012,0.024 -0.024,0.048 -0.036,0.072 -0.024,0 -0.048,0 -0.072,0 -0.012,0.024 -0.024,0.048 -0.036,0.072 -0.036,0.012 -0.072,0.024 -0.108,0.036 -0.024,0.036 -0.048,0.072 -0.072,0.108 -0.024,0 -0.048,0 -0.072,0 -0.024,0.036 -0.048,0.072 -0.072,0.108 -0.024,0 -0.048,0 -0.072,0 -0.024,0.036 -0.048,0.072 -0.072,0.108 -0.024,0 -0.048,0 -0.072,0 -0.024,0.036 -0.048,0.072 -0.072,0.108 -0.024,0 -0.048,0 -0.072,0 -0.012,0.024 -0.024,0.048 -0.036,0.072 -0.024,0 -0.048,0 -0.072,0 -0.024,0.036 -0.048,0.072 -0.072,0.108 -0.024,0 -0.048,0 -0.072,0 -0.024,0.036 -0.048,0.072 -0.072,0.108 -0.024,0 -0.048,0 -0.072,0 -0.024,0.036 -0.048,0.072 -0.072,0.108 -0.024,0 -0.048,0 -0.072,0 -0.024,0.036 -0.048,0.072 -0.072,0.108 -0.024,0 -0.048,0 -0.072,0 -0.012,0.024 -0.024,0.048 -0.036,0.072 -0.024,0 -0.048,0 -0.072,0 -0.024,0.036 -0.048,0.072 -0.072,0.108 -0.024,0 -0.048,0 -0.072,0 -0.024,0.036 -0.048,0.072 -0.072,0.108 -0.024,0 -0.048,0 -0.072,0 -0.024,0.036 -0.048,0.072 -0.072,0.108 -0.024,0 -0.048,0 -0.072,0 -0.024,0.036 -0.048,0.072 -0.072,0.108 -0.024,0 -0.048,0 -0.072,0 -0.012,0.024 -0.024,0.048 -0.036,0.072 -0.024,0 -0.048,0 -0.072,0 -0.024,0.036 -0.048,0.072 -0.072,0.108 -0.024,0 -0.048,0 -0.072,0 -0.024,0.036 -0.048,0.072 -0.072,0.108 -0.024,0 -0.048,0 -0.072,0 -0.024,0.036 -0.048,0.072 -0.072,0.108 -0.024,0 -0.048,0 -0.072,0 -0.024,0.036 -0.048,0.072 -0.072,0.108 -0.024,0 -0.048,0 -0.072,0 -0.012,0.024 -0.024,0.048 -0.036,0.072 -0.024,0 -0.048,0 -0.072,0 -0.012,0.024 -0.024,0.048 -0.036,0.072 -0.036,0.012 -0.072,0.024 -0.108,0.036 -0.024,0.036 -0.048,0.072 -0.072,0.108 -0.024,0 -0.048,0 -0.072,0 -0.024,0.036 -0.048,0.072 -0.072,0.108 -0.036,0.012 -0.072,0.024 -0.108,0.036 -0.012,0.024 -0.024,0.048 -0.036,0.072 -0.024,0 -0.048,0 -0.072,0 -0.012,0.024 -0.024,0.048 -0.036,0.072 -0.024,0 -0.048,0 -0.072,0 -0.024,0.036 -0.048,0.072 -0.072,0.108 -0.024,0 -0.048,0 -0.072,0 -0.024,0.036 -0.048,0.072 -0.072,0.108 -0.024,0 -0.048,0 -0.072,0 -0.024,0.036 -0.048,0.072 -0.072,0.108 -0.024,0 -0.048,0 -0.072,0 -0.024,0.036 -0.048,0.072 -0.072,0.108 -0.024,0 -0.048,0 -0.072,0 -0.024,0.036 -0.048,0.072 -0.072,0.108 -0.024,0 -0.048,0 -0.072,0 -0.012,0.024 -0.024,0.048 -0.036,0.072 -0.024,0 -0.048,0 -0.072,0 -0.024,0.036 -0.048,0.072 -0.072,0.108 -0.024,0 -0.048,0 -0.072,0 -0.024,0.036 -0.048,0.072 -0.072,0.108 -0.024,0 -0.048,0 -0.072,0 -0.024,0.036 -0.048,0.072 -0.072,0.108 -0.082,0.058 -0.155,0.069 -0.216,0.144 2.796,0 5.592,0 8.388,0 0,0.012 0,0.024 0,0.036 0.012,0 0.024,0 0.036,0 0.013,0.215 0.147,0.476 0.216,0.648 0.024,0.108 0.048,0.216 0.072,0.324 0.012,0 0.024,0 0.036,0 0.012,0.072 0.024,0.144 0.036,0.216 0.012,0 0.024,0 0.036,0 0,0.036 0,0.072 0,0.108 0.012,0 0.024,0 0.036,0 0,0.036 0,0.072 0,0.108 0.012,0 0.024,0 0.036,0 0,0.036 0,0.072 0,0.108 0.012,0 0.024,0 0.036,0 0,0.036 0,0.072 0,0.108 0.012,0 0.024,0 0.036,0 0,0.036 0,0.072 0,0.108 0.012,0 0.024,0 0.036,0 0.012,0.072 0.024,0.144 0.036,0.216 0.012,0 0.024,0 0.036,0 0,0.036 0,0.072 0,0.108 0.012,0 0.024,0 0.036,0 0,0.036 0,0.072 0,0.108 0.012,0 0.024,0 0.036,0 0,0.036 0,0.072 0,0.108 0.012,0 0.024,0 0.036,0 0,0.036 0,0.072 0,0.108 0.012,0 0.024,0 0.036,0 0,0.036 0,0.072 0,0.108 0.012,0 0.024,0 0.036,0 0,0.036 0,0.072 0,0.108 0.012,0 0.024,0 0.036,0 0.012,0.072 0.024,0.144 0.036,0.216 0.39,0.972 0.655,2.051 1.044,3.024 0.024,0.108 0.048,0.216 0.072,0.324 0.15,0.375 0.283,0.813 0.432,1.188 0,0.036 0,0.072 0,0.108 0.012,0 0.024,0 0.036,0 0,0.036 0,0.072 0,0.108 0.012,0 0.024,0 0.036,0 0,0.036 0,0.072 0,0.108 0.012,0 0.024,0 0.036,0 0,0.036 0,0.072 0,0.108 0.012,0 0.024,0 0.036,0 0.012,0.06 0.024,0.12 0.036,0.18 0.012,0 0.024,0 0.036,0 0.864,-2.652 1.728,-5.304 2.592,-7.956 2.808,-0.012 5.616,-0.024 8.424,-0.036 0,-0.012 0,-0.024 0,-0.036 -0.024,0 -0.048,0 -0.072,0 -0.076,-0.121 -0.175,-0.136 -0.288,-0.216 -0.024,-0.036 -0.048,-0.072 -0.072,-0.108 -0.024,0 -0.048,0 -0.072,0 -0.012,-0.024 -0.024,-0.048 -0.036,-0.072 -0.024,0 -0.048,0 -0.072,0 -0.024,-0.036 -0.048,-0.072 -0.072,-0.108 -0.024,0 -0.048,0 -0.072,0 -0.024,-0.036 -0.048,-0.072 -0.072,-0.108 -0.024,0 -0.048,0 -0.072,0 -0.024,-0.036 -0.048,-0.072 -0.072,-0.108 -0.024,0 -0.048,0 -0.072,0 -0.012,-0.024 -0.024,-0.048 -0.036,-0.072 -0.024,0 -0.048,0 -0.072,0 -0.024,-0.036 -0.048,-0.072 -0.072,-0.108 -0.024,0 -0.048,0 -0.072,0 -0.024,-0.036 -0.048,-0.072 -0.072,-0.108 -0.024,0 -0.048,0 -0.072,0 -0.024,-0.036 -0.048,-0.072 -0.072,-0.108 -0.024,0 -0.048,0 -0.072,0 -0.012,-0.024 -0.024,-0.048 -0.036,-0.072 -0.024,0 -0.048,0 -0.072,0 -0.024,-0.036 -0.048,-0.072 -0.072,-0.108 -0.024,0 -0.048,0 -0.072,0 -0.024,-0.036 -0.048,-0.072 -0.072,-0.108 -0.024,0 -0.048,0 -0.072,0 -0.024,-0.036 -0.048,-0.072 -0.072,-0.108 -0.024,0 -0.048,0 -0.072,0 -0.012,-0.024 -0.024,-0.048 -0.036,-0.072 -0.024,0 -0.048,0 -0.072,0 -0.024,-0.036 -0.048,-0.072 -0.072,-0.108 -0.024,0 -0.048,0 -0.072,0 -0.024,-0.036 -0.048,-0.072 -0.072,-0.108 -0.024,0 -0.048,0 -0.072,0 -0.024,-0.036 -0.048,-0.072 -0.072,-0.108 -0.024,0 -0.048,0 -0.072,0 -0.012,-0.024 -0.024,-0.048 -0.036,-0.072 -0.024,0 -0.048,0 -0.072,0 -0.024,-0.036 -0.048,-0.072 -0.072,-0.108 -0.024,0 -0.048,0 -0.072,0 -0.024,-0.036 -0.048,-0.072 -0.072,-0.108 -0.024,0 -0.048,0 -0.072,0 -0.024,-0.036 -0.048,-0.072 -0.072,-0.108 -0.024,0 -0.048,0 -0.072,0 -0.012,-0.024 -0.024,-0.048 -0.036,-0.072 -0.024,0 -0.048,0 -0.072,0 -0.024,-0.036 -0.048,-0.072 -0.072,-0.108 -0.024,0 -0.048,0 -0.072,0 -0.024,-0.036 -0.048,-0.072 -0.072,-0.108 -0.024,0 -0.048,0 -0.072,0 -0.024,-0.036 -0.048,-0.072 -0.072,-0.108 -0.024,0 -0.048,0 -0.072,0 -0.012,-0.024 -0.024,-0.048 -0.036,-0.072 -0.024,0 -0.048,0 -0.072,0 -0.024,-0.036 -0.048,-0.072 -0.072,-0.108 -0.024,0 -0.048,0 -0.072,0 -0.024,-0.036 -0.048,-0.072 -0.072,-0.108 -0.024,0 -0.048,0 -0.072,0 -0.024,-0.036 -0.048,-0.072 -0.072,-0.108 -0.024,0 -0.048,0 -0.072,0 -0.012,-0.024 -0.024,-0.048 -0.036,-0.072 -0.024,0 -0.048,0 -0.072,0 -0.024,-0.036 -0.048,-0.072 -0.072,-0.108 -0.024,0 -0.048,0 -0.072,0 -0.024,-0.036 -0.048,-0.072 -0.072,-0.108 -0.036,-0.012 -0.072,-0.024 -0.108,-0.036 -0.012,-0.024 -0.024,-0.048 -0.036,-0.072 -0.024,0 -0.048,0 -0.072,0 -0.012,-0.024 -0.024,-0.048 -0.036,-0.072 -0.024,0 -0.048,0 -0.072,0 -0.012,-0.024 -0.024,-0.048 -0.036,-0.072 -0.036,-0.012 -0.072,-0.024 -0.108,-0.036 -0.024,-0.036 -0.048,-0.072 -0.072,-0.108 -0.024,0 -0.048,0 -0.072,0 -0.024,-0.036 -0.048,-0.072 -0.072,-0.108 -0.036,-0.012 -0.072,-0.024 -0.108,-0.036 -0.012,-0.024 -0.024,-0.048 -0.036,-0.072 -0.024,0 -0.048,0 -0.072,0 -0.012,-0.024 -0.024,-0.048 -0.036,-0.072 -0.024,0 -0.048,0 -0.072,0 -0.024,-0.036 -0.048,-0.072 -0.072,-0.108 -0.024,0 -0.048,0 -0.072,0 -0.024,-0.036 -0.048,-0.072 -0.072,-0.108 -0.036,-0.012 -0.072,-0.024 -0.108,-0.036 -0.012,-0.024 -0.024,-0.048 -0.036,-0.072 -0.024,0 -0.048,0 -0.072,0 -0.012,-0.024 -0.024,-0.048 -0.036,-0.072 -0.024,0 -0.048,0 -0.072,0 -0.012,-0.024 -0.024,-0.048 -0.036,-0.072 -0.036,-0.012 -0.072,-0.024 -0.108,-0.036 -0.024,-0.036 -0.048,-0.072 -0.072,-0.108 -0.024,0 -0.048,0 -0.072,0 -0.024,-0.036 -0.048,-0.072 -0.072,-0.108 -0.127,-0.088 -0.242,-0.079 -0.288,-0.252 0.105,-0.115 0.115,-0.377 0.18,-0.54 0.139,-0.346 0.257,-0.769 0.396,-1.116 0.024,-0.108 0.048,-0.216 0.072,-0.324 0.355,-0.887 0.583,-1.888 0.936,-2.772 0.024,-0.12 0.048,-0.24 0.072,-0.36 0.012,0 0.024,0 0.036,0 0.012,-0.072 0.024,-0.144 0.036,-0.216 0.012,0 0.024,0 0.036,0 0,-0.036 0,-0.072 0,-0.108 0.012,0 0.024,0 0.036,0 0,-0.036 0,-0.072 0,-0.108 0.012,0 0.024,0 0.036,0 0,-0.036 0,-0.072 0,-0.108 0.012,0 0.024,0 0.036,0 0,-0.036 0,-0.072 0,-0.108 0.012,0 0.024,0 0.036,0 0,-0.036 0,-0.072 0,-0.108 0.012,0 0.024,0 0.036,0 0.012,-0.072 0.024,-0.144 0.036,-0.216 0.012,0 0.024,0 0.036,0 0.012,-0.084 0.024,-0.168 0.036,-0.252 0.068,-0.189 0.171,-0.395 0.216,-0.612 0.294,-0.004 0.603,-0.134 0.828,-0.216 0.048,0 0.096,0 0.144,0 0,-0.012 0,-0.024 0,-0.036 0.036,0 0.072,0 0.108,0 0,-0.012 0,-0.024 0,-0.036 0.048,0 0.096,0 0.144,0 0,-0.012 0,-0.024 0,-0.036 0.036,0 0.072,0 0.108,0 0,-0.012 0,-0.024 0,-0.036 0.036,0 0.072,0 0.108,0 0,-0.012 0,-0.024 0,-0.036 0.036,0 0.072,0 0.108,0 0,-0.012 0,-0.024 0,-0.036 0.036,0 0.072,0 0.108,0 0,-0.012 0,-0.024 0,-0.036 0.036,0 0.072,0 0.108,0 0,-0.012 0,-0.024 0,-0.036 0.072,-0.012 0.144,-0.024 0.216,-0.036 0,-0.012 0,-0.024 0,-0.036 0.024,0 0.048,0 0.072,0 0,-0.012 0,-0.024 0,-0.036 0.108,-0.024 0.216,-0.048 0.324,-0.072 0,-0.012 0,-0.024 0,-0.036 0.024,0 0.048,0 0.072,0 0,-0.012 0,-0.024 0,-0.036 0.072,-0.012 0.144,-0.024 0.216,-0.036 0,-0.012 0,-0.024 0,-0.036 0.024,0 0.048,0 0.072,0 0,-0.012 0,-0.024 0,-0.036 0.036,0 0.072,0 0.108,0 0,-0.012 0,-0.024 0,-0.036 0.06,-0.012 0.12,-0.024 0.18,-0.036 0,-0.012 0,-0.024 0,-0.036 0.048,-0.012 0.096,-0.024 0.144,-0.036 0,-0.012 0,-0.024 0,-0.036 0.036,0 0.072,0 0.108,0 0,-0.012 0,-0.024 0,-0.036 0.024,0 0.048,0 0.072,0 0,-0.012 0,-0.024 0,-0.036 0.036,0 0.072,0 0.108,0 0,-0.012 0,-0.024 0,-0.036 0.048,-0.012 0.096,-0.024 0.144,-0.036 0,-0.012 0,-0.024 0,-0.036 0.024,0 0.048,0 0.072,0 0,-0.012 0,-0.024 0,-0.036 0.036,0 0.072,0 0.108,0 0,-0.012 0,-0.024 0,-0.036 0.024,0 0.048,0 0.072,0 0,-0.012 0,-0.024 0,-0.036 0.072,-0.024 0.144,-0.048 0.216,-0.072 0,-0.012 0,-0.024 0,-0.036 0.036,0 0.072,0 0.108,0 0,-0.012 0,-0.024 0,-0.036 0.024,0 0.048,0 0.072,0 0,-0.012 0,-0.024 0,-0.036 0.048,-0.012 0.096,-0.024 0.144,-0.036 0,-0.012 0,-0.024 0,-0.036 0.048,-0.012 0.096,-0.024 0.144,-0.036 0,-0.012 0,-0.024 0,-0.036 0.048,-0.012 0.096,-0.024 0.144,-0.036 0,-0.012 0,-0.024 0,-0.036 0.024,0 0.048,0 0.072,0 0,-0.012 0,-0.024 0,-0.036 0.024,0 0.048,0 0.072,0 0,-0.012 0,-0.024 0,-0.036 0.024,0 0.048,0 0.072,0 0,-0.012 0,-0.024 0,-0.036 0.024,0 0.048,0 0.072,0 0,-0.012 0,-0.024 0,-0.036 0.024,0 0.048,0 0.072,0 0,-0.012 0,-0.024 0,-0.036 0.192,-0.084 0.384,-0.168 0.576,-0.252 0.012,-0.024 0.024,-0.048 0.036,-0.072 0.024,0 0.048,0 0.072,0 0,-0.012 0,-0.024 0,-0.036 0.024,0 0.048,0 0.072,0 l 0.072,-0.072 c 0.024,0 0.048,0 0.072,0 0.012,-0.024 0.024,-0.048 0.036,-0.072 0.024,0 0.048,0 0.072,0 0,-0.012 0,-0.024 0,-0.036 0.024,0 0.048,0 0.072,0 l 0.072,-0.072 c 0.024,0 0.048,0 0.072,0 0.012,-0.024 0.024,-0.048 0.036,-0.072 0.048,-0.012 0.096,-0.024 0.144,-0.036 0.012,-0.024 0.024,-0.048 0.036,-0.072 0.048,-0.012 0.096,-0.024 0.144,-0.036 0.012,-0.024 0.024,-0.048 0.036,-0.072 0.048,-0.012 0.096,-0.024 0.144,-0.036 0.012,-0.024 0.024,-0.048 0.036,-0.072 0.048,-0.012 0.096,-0.024 0.144,-0.036 0,-0.012 0,-0.024 0,-0.036 0.036,-0.012 0.072,-0.024 0.108,-0.036 0.012,-0.024 0.024,-0.048 0.036,-0.072 0.048,-0.012 0.096,-0.024 0.144,-0.036 0.012,-0.024 0.024,-0.048 0.036,-0.072 0.024,0 0.048,0 0.072,0 0.012,-0.024 0.024,-0.048 0.036,-0.072 0.024,0 0.048,0 0.072,0 0.012,-0.024 0.024,-0.048 0.036,-0.072 0.024,0 0.048,0 0.072,0 0.012,-0.024 0.024,-0.048 0.036,-0.072 0.048,-0.012 0.096,-0.024 0.144,-0.036 0.012,-0.024 0.024,-0.048 0.036,-0.072 0.024,0 0.048,0 0.072,0 0.024,-0.036 0.048,-0.072 0.072,-0.108 0.024,0 0.048,0 0.072,0 0.012,-0.024 0.024,-0.048 0.036,-0.072 0.036,-0.012 0.072,-0.024 0.108,-0.036 0,-0.012 0,-0.024 0,-0.036 0.024,0 0.048,0 0.072,0 0.012,-0.024 0.024,-0.048 0.036,-0.072 0.024,0 0.048,0 0.072,0 0.012,-0.024 0.024,-0.048 0.036,-0.072 0.024,0 0.048,0 0.072,0 0.024,-0.036 0.048,-0.072 0.072,-0.108 0.024,0 0.048,0 0.072,0 0.024,-0.036 0.048,-0.072 0.072,-0.108 0.024,0 0.048,0 0.072,0 0.012,-0.024 0.024,-0.048 0.036,-0.072 0.024,0 0.048,0 0.072,0 0.024,-0.036 0.048,-0.072 0.072,-0.108 0.024,0 0.048,0 0.072,0 0.024,-0.036 0.048,-0.072 0.072,-0.108 0.024,0 0.048,0 0.072,0 0.024,-0.036 0.048,-0.072 0.072,-0.108 0.024,0 0.048,0 0.072,0 0.036,-0.048 0.072,-0.096 0.108,-0.144 0.024,0 0.048,0 0.072,0 0.024,-0.036 0.048,-0.072 0.072,-0.108 0.024,0 0.048,0 0.072,0 0.036,-0.048 0.072,-0.096 0.108,-0.144 0.024,0 0.048,0 0.072,0 0.036,-0.048 0.072,-0.096 0.108,-0.144 0.024,0 0.048,0 0.072,0 0.048,-0.06 0.096,-0.12 0.144,-0.18 0.024,0 0.048,0 0.072,0 0.048,-0.06 0.096,-0.12 0.144,-0.18 0.024,0 0.048,0 0.072,0 0.06,-0.072 0.12,-0.144 0.18,-0.216 0.024,0 0.048,0 0.072,0 0.084,-0.096 0.168,-0.192 0.252,-0.288 0.024,0 0.048,0 0.072,0 0.12,-0.132 0.24,-0.264 0.36,-0.396 0.024,0 0.048,0 0.072,0 0.144,-0.156 0.288,-0.312 0.432,-0.468 0.297,-0.297 0.614,-0.554 0.864,-0.9 0.144,-0.132 0.288,-0.264 0.432,-0.396 0,-0.024 0,-0.048 0,-0.072 0.084,-0.072 0.168,-0.144 0.252,-0.216 0,-0.024 0,-0.048 0,-0.072 0.06,-0.048 0.12,-0.096 0.18,-0.144 0,-0.024 0,-0.048 0,-0.072 0.024,-0.012 0.048,-0.024 0.072,-0.036 0.024,-0.036 0.048,-0.072 0.072,-0.108 0.012,0 0.024,0 0.036,0 0,-0.024 0,-0.048 0,-0.072 0.06,-0.048 0.12,-0.096 0.18,-0.144 0,-0.024 0,-0.048 0,-0.072 0.048,-0.036 0.096,-0.072 0.144,-0.108 0,-0.024 0,-0.048 0,-0.072 0.036,-0.024 0.072,-0.048 0.108,-0.072 0,-0.024 0,-0.048 0,-0.072 0.036,-0.024 0.072,-0.048 0.108,-0.072 0,-0.024 0,-0.048 0,-0.072 0.036,-0.024 0.072,-0.048 0.108,-0.072 0,-0.024 0,-0.048 0,-0.072 0.048,-0.036 0.096,-0.072 0.144,-0.108 0,-0.024 0,-0.048 0,-0.072 0.024,-0.012 0.048,-0.024 0.072,-0.036 0,-0.024 0,-0.048 0,-0.072 0.036,-0.024 0.072,-0.048 0.108,-0.072 0,-0.024 0,-0.048 0,-0.072 0.024,-0.012 0.048,-0.024 0.072,-0.036 0,-0.024 0,-0.048 0,-0.072 0.036,-0.024 0.072,-0.048 0.108,-0.072 0,-0.024 0,-0.048 0,-0.072 0.024,-0.012 0.048,-0.024 0.072,-0.036 0.012,-0.036 0.024,-0.072 0.036,-0.108 0.012,0 0.024,0 0.036,0 0,-0.024 0,-0.048 0,-0.072 0.024,-0.012 0.048,-0.024 0.072,-0.036 0,-0.024 0,-0.048 0,-0.072 0.024,-0.012 0.048,-0.024 0.072,-0.036 0,-0.024 0,-0.048 0,-0.072 0.024,-0.012 0.048,-0.024 0.072,-0.036 0,-0.024 0,-0.048 0,-0.072 0.024,-0.012 0.048,-0.024 0.072,-0.036 0,-0.024 0,-0.048 0,-0.072 0.024,-0.012 0.048,-0.024 0.072,-0.036 0.012,-0.048 0.024,-0.096 0.036,-0.144 0.012,0 0.024,0 0.036,0 0.012,-0.036 0.024,-0.072 0.036,-0.108 0.024,-0.012 0.048,-0.024 0.072,-0.036 0,-0.024 0,-0.048 0,-0.072 0.012,0 0.024,0 0.036,0 0,-0.024 0,-0.048 0,-0.072 0.024,-0.012 0.048,-0.024 0.072,-0.036 0.012,-0.048 0.024,-0.096 0.036,-0.144 0.024,-0.012 0.048,-0.024 0.072,-0.036 0.012,-0.048 0.024,-0.096 0.036,-0.144 0.024,-0.012 0.048,-0.024 0.072,-0.036 0.012,-0.048 0.024,-0.096 0.036,-0.144 0.024,-0.012 0.048,-0.024 0.072,-0.036 0,-0.024 0,-0.048 0,-0.072 0.012,0 0.024,0 0.036,0 0,-0.024 0,-0.048 0,-0.072 l 0.072,-0.072 c 0,-0.024 0,-0.048 0,-0.072 0.024,-0.012 0.048,-0.024 0.072,-0.036 0,-0.024 0,-0.048 0,-0.072 l 0.072,-0.072 c 0,-0.024 0,-0.048 0,-0.072 0.012,0 0.024,0 0.036,0 0,-0.024 0,-0.048 0,-0.072 0.012,0 0.024,0 0.036,0 0.012,-0.048 0.024,-0.096 0.036,-0.144 0.024,-0.012 0.048,-0.024 0.072,-0.036 0,-0.024 0,-0.048 0,-0.072 l 0.072,-0.072 c 0,-0.024 0,-0.048 0,-0.072 0.012,0 0.024,0 0.036,0 0,-0.024 0,-0.048 0,-0.072 0.012,0 0.024,0 0.036,0 0,-0.024 0,-0.048 0,-0.072 0.012,0 0.024,0 0.036,0 0,-0.024 0,-0.048 0,-0.072 0.012,0 0.024,0 0.036,0 0,-0.024 0,-0.048 0,-0.072 0.012,0 0.024,0 0.036,0 0,-0.024 0,-0.048 0,-0.072 0.012,0 0.024,0 0.036,0 0,-0.024 0,-0.048 0,-0.072 0.012,0 0.024,0 0.036,0 0.024,-0.072 0.048,-0.144 0.072,-0.216 0.012,0 0.024,0 0.036,0 0,-0.036 0,-0.072 0,-0.108 0.012,0 0.024,0 0.036,0 0,-0.024 0,-0.048 0,-0.072 0.012,0 0.024,0 0.036,0 0,-0.024 0,-0.048 0,-0.072 0.012,0 0.024,0 0.036,0 0.024,-0.072 0.048,-0.144 0.072,-0.216 0.012,0 0.024,0 0.036,0 0,-0.036 0,-0.072 0,-0.108 0.012,0 0.024,0 0.036,0 0,-0.024 0,-0.048 0,-0.072 0.012,0 0.024,0 0.036,0 0,-0.024 0,-0.048 0,-0.072 0.012,0 0.024,0 0.036,0 0,-0.024 0,-0.048 0,-0.072 0.012,0 0.024,0 0.036,0 0,-0.036 0,-0.072 0,-0.108 0.012,0 0.024,0 0.036,0 0,-0.024 0,-0.048 0,-0.072 0.012,0 0.024,0 0.036,0 0,-0.036 0,-0.072 0,-0.108 0.012,0 0.024,0 0.036,0 0.012,-0.048 0.024,-0.096 0.036,-0.144 0.012,0 0.024,0 0.036,0 0,-0.036 0,-0.072 0,-0.108 0.012,0 0.024,0 0.036,0 0,-0.024 0,-0.048 0,-0.072 0.012,0 0.024,0 0.036,0 0,-0.036 0,-0.072 0,-0.108 0.012,0 0.024,0 0.036,0 0,-0.024 0,-0.048 0,-0.072 0.012,0 0.024,0 0.036,0 0,-0.036 0,-0.072 0,-0.108 0.012,0 0.024,0 0.036,0 0,-0.024 0,-0.048 0,-0.072 0.012,0 0.024,0 0.036,0 0.012,-0.072 0.024,-0.144 0.036,-0.216 0.012,0 0.024,0 0.036,0 0,-0.024 0,-0.048 0,-0.072 0.012,0 0.024,0 0.036,0 0.024,-0.108 0.048,-0.216 0.072,-0.324 0.012,0 0.024,0 0.036,0 0,-0.024 0,-0.048 0,-0.072 0.012,0 0.024,0 0.036,0 0.012,-0.072 0.024,-0.144 0.036,-0.216 0.012,0 0.024,0 0.036,0 0,-0.036 0,-0.072 0,-0.108 0.012,0 0.024,0 0.036,0 0,-0.036 0,-0.072 0,-0.108 0.012,0 0.024,0 0.036,0 0,-0.036 0,-0.072 0,-0.108 0.012,0 0.024,0 0.036,0 0,-0.036 0,-0.072 0,-0.108 0.012,0 0.024,0 0.036,0 0,-0.036 0,-0.072 0,-0.108 0.012,0 0.024,0 0.036,0 0,-0.036 0,-0.072 0,-0.108 0.012,0 0.024,0 0.036,0 0,-0.048 0,-0.096 0,-0.144 0.012,0 0.024,0 0.036,0 0,-0.036 0,-0.072 0,-0.108 0.012,0 0.024,0 0.036,0 0,-0.036 0,-0.072 0,-0.108 0.012,0 0.024,0 0.036,0 0,-0.036 0,-0.072 0,-0.108 0.012,0 0.024,0 0.036,0 0.012,-0.084 0.024,-0.168 0.036,-0.252 0.012,0 0.024,0 0.036,0 0,-0.048 0,-0.096 0,-0.144 0.012,0 0.024,0 0.036,0 0,-0.048 0,-0.096 0,-0.144 0.012,0 0.024,0 0.036,0 0,-0.036 0,-0.072 0,-0.108 0.012,0 0.024,0 0.036,0 0,-0.048 0,-0.096 0,-0.144 0.012,0 0.024,0 0.036,0 0.012,-0.096 0.024,-0.192 0.036,-0.288 0.131,-0.384 0.2,-0.864 0.324,-1.26 0.012,-0.132 0.024,-0.264 0.036,-0.396 0.118,-0.388 0.136,-0.899 0.252,-1.296 0,-0.096 0,-0.192 0,-0.288 0.012,0 0.024,0 0.036,0 0,-0.096 0,-0.192 0,-0.288 0.012,0 0.024,0 0.036,0 0,-0.108 0,-0.216 0,-0.324 0.012,0 0.024,0 0.036,0 0,-0.12 0,-0.24 0,-0.36 0.012,0 0.024,0 0.036,0 0,-0.132 0,-0.264 0,-0.396 0.012,0 0.024,0 0.036,0 0.012,-0.42 0.024,-0.84 0.036,-1.26 0.076,-0.273 0.077,-1.348 0,-1.62 m -21.096,26.532 c -1.608,1.164 -3.216,2.328 -4.824,3.492 -0.063,-0.074 -0.134,-0.086 -0.216,-0.144 -0.024,-0.036 -0.048,-0.072 -0.072,-0.108 -0.024,0 -0.048,0 -0.072,0 -0.012,-0.024 -0.024,-0.048 -0.036,-0.072 -0.024,0 -0.048,0 -0.072,0 -0.012,-0.024 -0.024,-0.048 -0.036,-0.072 -0.036,-0.012 -0.072,-0.024 -0.108,-0.036 -0.024,-0.036 -0.048,-0.072 -0.072,-0.108 -0.024,0 -0.048,0 -0.072,0 -0.012,-0.024 -0.024,-0.048 -0.036,-0.072 -0.024,0 -0.048,0 -0.072,0 -0.024,-0.036 -0.048,-0.072 -0.072,-0.108 -0.024,0 -0.048,0 -0.072,0 -0.012,-0.024 -0.024,-0.048 -0.036,-0.072 -0.024,0 -0.048,0 -0.072,0 -0.012,-0.024 -0.024,-0.048 -0.036,-0.072 -0.036,-0.012 -0.072,-0.024 -0.108,-0.036 -0.024,-0.036 -0.048,-0.072 -0.072,-0.108 -0.024,0 -0.048,0 -0.072,0 -0.012,-0.024 -0.024,-0.048 -0.036,-0.072 -0.024,0 -0.048,0 -0.072,0 -0.012,-0.024 -0.024,-0.048 -0.036,-0.072 -0.036,-0.012 -0.072,-0.024 -0.108,-0.036 -0.024,-0.036 -0.048,-0.072 -0.072,-0.108 -0.024,0 -0.048,0 -0.072,0 -0.012,-0.024 -0.024,-0.048 -0.036,-0.072 -0.024,0 -0.048,0 -0.072,0 -0.012,-0.024 -0.024,-0.048 -0.036,-0.072 -0.036,-0.012 -0.072,-0.024 -0.108,-0.036 -0.024,-0.036 -0.048,-0.072 -0.072,-0.108 -0.024,0 -0.048,0 -0.072,0 -0.012,-0.024 -0.024,-0.048 -0.036,-0.072 -0.024,0 -0.048,0 -0.072,0 -0.012,-0.024 -0.024,-0.048 -0.036,-0.072 -0.036,-0.012 -0.072,-0.024 -0.108,-0.036 -0.024,-0.036 -0.048,-0.072 -0.072,-0.108 -0.024,0 -0.048,0 -0.072,0 -0.012,-0.024 -0.024,-0.048 -0.036,-0.072 -0.024,0 -0.048,0 -0.072,0 -0.024,-0.036 -0.048,-0.072 -0.072,-0.108 -0.024,0 -0.048,0 -0.072,0 -0.012,-0.024 -0.024,-0.048 -0.036,-0.072 -0.024,0 -0.048,0 -0.072,0 -0.024,-0.036 -0.048,-0.072 -0.072,-0.108 -0.024,0 -0.048,0 -0.072,0 -0.024,-0.036 -0.048,-0.072 -0.072,-0.108 -0.024,0 -0.048,0 -0.072,0 -0.012,-0.024 -0.024,-0.048 -0.036,-0.072 -0.024,0 -0.048,0 -0.072,0 -0.012,-0.024 -0.024,-0.048 -0.036,-0.072 -0.036,-0.012 -0.072,-0.024 -0.108,-0.036 -0.024,-0.036 -0.048,-0.072 -0.072,-0.108 -0.024,0 -0.048,0 -0.072,0 -0.012,-0.024 -0.024,-0.048 -0.036,-0.072 -0.024,0 -0.048,0 -0.072,0 -0.012,-0.024 -0.024,-0.048 -0.036,-0.072 -0.036,-0.012 -0.072,-0.024 -0.108,-0.036 -0.024,-0.036 -0.048,-0.072 -0.072,-0.108 -0.024,0 -0.048,0 -0.072,0 -0.012,-0.024 -0.024,-0.048 -0.036,-0.072 -0.024,0 -0.048,0 -0.072,0 -0.024,-0.036 -0.048,-0.072 -0.072,-0.108 -0.024,0 -0.048,0 -0.072,0 -0.012,-0.024 -0.024,-0.048 -0.036,-0.072 -0.024,0 -0.048,0 -0.072,0 -0.024,-0.036 -0.048,-0.072 -0.072,-0.108 -0.024,0 -0.048,0 -0.072,0 -0.024,-0.036 -0.048,-0.072 -0.072,-0.108 -0.103,-0.072 -0.186,-0.07 -0.252,-0.18 0.024,0 0.048,0 0.072,0 0.097,0.087 0.246,0.028 0.396,0.072 0,0.012 0,0.024 0,0.036 0.084,0 0.168,0 0.252,0 0.341,0.098 0.806,0.083 1.152,0.18 0.12,0 0.24,0 0.36,0 0,0.012 0,0.024 0,0.036 0.144,0 0.288,0 0.432,0 0,0 0.004,0.03 0.072,0.036 0.132,0 0.264,0 0.396,0 0,0.012 0,0.024 0,0.036 0.228,0 0.456,0 0.684,0 0,0.012 0,0.024 0,0.036 0.576,0 1.152,0 1.728,0 1.494,0 2.871,-0.162 4.14,-0.396 0,0.012 0,0.024 0,0.036"
         id="path17942" /></clipPath><clipPath
       id="clipPath17946"><path
         d="m 399.685,574.913 68.031,0 0,-70 -68.031,0 0,70 z"
         id="path17948" /></clipPath><clipPath
       id="clipPath17952"><path
         d="M 0,841 595,841 595,0 0,0 0,841 z"
         id="path17954" /></clipPath><clipPath
       id="clipPath17958"><path
         d="m 0.36,841.68 595.44,0 L 595.8,0 0.36,0 l 0,841.68 z"
         id="path17960" /></clipPath><clipPath
       id="clipPath17970"><path
         d="m 484.724,574.913 68.032,0 0,-70 -68.032,0 0,70 z"
         id="path17972" /></clipPath><clipPath
       id="clipPath17976"><path
         d="M 0,841 595,841 595,0 0,0 0,841 z"
         id="path17978" /></clipPath><clipPath
       id="clipPath17982"><path
         d="m 0.36,841.68 595.44,0 L 595.8,0 0.36,0 l 0,841.68 z"
         id="path17984" /></clipPath><clipPath
       id="clipPath18068"><path
         d="m 149.952,574.913 62.646,0 0,-70 -62.646,0 0,70 z"
         id="path18070" /></clipPath><clipPath
       id="clipPath18074"><path
         d="M 0,841 595,841 595,0 0,0 0,841 z"
         id="path18076" /></clipPath><clipPath
       id="clipPath18080"><path
         d="m 0.36,841.68 595.44,0 L 595.8,0 0.36,0 l 0,841.68 z"
         id="path18082" /></clipPath><clipPath
       id="clipPath18150"><path
         d="m 229.606,574.913 68.032,0 0,-70 -68.032,0 0,70 z"
         id="path18152" /></clipPath><clipPath
       id="clipPath18156"><path
         d="M 0,841 595,841 595,0 0,0 0,841 z"
         id="path18158" /></clipPath><clipPath
       id="clipPath18162"><path
         d="m 0.36,841.68 595.44,0 L 595.8,0 0.36,0 l 0,841.68 z"
         id="path18164" /></clipPath><clipPath
       id="clipPath18242"><path
         d="m 314.646,574.913 68.031,0 0,-70 -68.031,0 0,70 z"
         id="path18244" /></clipPath><clipPath
       id="clipPath18248"><path
         d="M 0,841 595,841 595,0 0,0 0,841 z"
         id="path18250" /></clipPath><clipPath
       id="clipPath18254"><path
         d="m 0.36,841.68 595.44,0 L 595.8,0 0.36,0 l 0,841.68 z"
         id="path18256" /></clipPath><clipPath
       id="clipPath18338"><path
         d="m 399.685,468.291 68.031,0 0,-70 -68.031,0 0,70 z"
         id="path18340" /></clipPath><clipPath
       id="clipPath18344"><path
         d="M 0,841 595,841 595,0 0,0 0,841 z"
         id="path18346" /></clipPath><clipPath
       id="clipPath18350"><path
         d="m 0.36,841.68 595.44,0 L 595.8,0 0.36,0 l 0,841.68 z"
         id="path18352" /></clipPath><clipPath
       id="clipPath18438"><path
         d="m 484.724,468.291 68.032,0 0,-70 -68.032,0 0,70 z"
         id="path18440" /></clipPath><clipPath
       id="clipPath18444"><path
         d="M 0,841 595,841 595,0 0,0 0,841 z"
         id="path18446" /></clipPath><clipPath
       id="clipPath18450"><path
         d="m 0.36,841.68 595.44,0 L 595.8,0 0.36,0 l 0,841.68 z"
         id="path18452" /></clipPath><clipPath
       id="clipPath18504"><path
         d="m 150.236,468.291 62.362,0 0,-70 -62.362,0 0,70 z"
         id="path18506" /></clipPath><clipPath
       id="clipPath18510"><path
         d="M 0,841 595,841 595,0 0,0 0,841 z"
         id="path18512" /></clipPath><clipPath
       id="clipPath18516"><path
         d="m 0.36,841.68 595.44,0 L 595.8,0 0.36,0 l 0,841.68 z"
         id="path18518" /></clipPath><clipPath
       id="clipPath18608"><path
         d="m 229.606,468.291 68.032,0 0,-70 -68.032,0 0,70 z"
         id="path18610" /></clipPath><clipPath
       id="clipPath18614"><path
         d="M 0,841 595,841 595,0 0,0 0,841 z"
         id="path18616" /></clipPath><clipPath
       id="clipPath18620"><path
         d="m 0.36,841.68 595.44,0 L 595.8,0 0.36,0 l 0,841.68 z"
         id="path18622" /></clipPath><clipPath
       id="clipPath18734"><path
         d="m 314.646,468.291 68.031,0 0,-70 -68.031,0 0,70 z"
         id="path18736" /></clipPath><clipPath
       id="clipPath18740"><path
         d="M 0,841 595,841 595,0 0,0 0,841 z"
         id="path18742" /></clipPath><clipPath
       id="clipPath18746"><path
         d="m 0.36,841.68 595.44,0 L 595.8,0 0.36,0 l 0,841.68 z"
         id="path18748" /></clipPath><clipPath
       id="clipPath18800"><path
         d="m 399.685,362.137 68.031,0 0,-70 -68.031,0 0,70 z"
         id="path18802" /></clipPath><clipPath
       id="clipPath18806"><path
         d="M 0,841 595,841 595,0 0,0 0,841 z"
         id="path18808" /></clipPath><clipPath
       id="clipPath18812"><path
         d="m 0.36,841.68 595.44,0 L 595.8,0 0.36,0 l 0,841.68 z"
         id="path18814" /></clipPath><clipPath
       id="clipPath18908"><path
         d="m 484.724,362.137 68.032,0 0,-70 -68.032,0 0,70 z"
         id="path18910" /></clipPath><clipPath
       id="clipPath18914"><path
         d="M 0,841 595,841 595,0 0,0 0,841 z"
         id="path18916" /></clipPath><clipPath
       id="clipPath18920"><path
         d="m 0.36,841.68 595.44,0 L 595.8,0 0.36,0 l 0,841.68 z"
         id="path18922" /></clipPath><clipPath
       id="clipPath18950"><path
         d="m 144.567,362.137 68.031,0 0,-70 -68.031,0 0,70 z"
         id="path18952" /></clipPath><clipPath
       id="clipPath18956"><path
         d="M 0,841 595,841 595,0 0,0 0,841 z"
         id="path18958" /></clipPath><clipPath
       id="clipPath18962"><path
         d="m 0.36,841.68 595.44,0 L 595.8,0 0.36,0 l 0,841.68 z"
         id="path18964" /></clipPath><clipPath
       id="clipPath18998"><path
         d="m 177.983,298.659 c 0.192,2.683 8.145,2.492 8.145,2.492 6.805,0.287 11.309,1.916 11.309,1.916 16.387,5.175 7.283,23.191 7.283,23.191 -3.929,8.433 -0.384,14.279 -0.384,14.279 l 0,13.225 c -20.028,0.096 -26.353,2.204 -26.353,2.204 0,0 -6.325,-2.108 -26.353,-2.204 l 0,-13.225 c 0,0 3.545,-5.846 -0.384,-14.279 0,0 -9.104,-18.016 7.283,-23.191 0,0 4.504,-1.629 11.308,-1.916 0,0 7.954,0.191 8.146,-2.492"
         id="path19000" /></clipPath><clipPath
       id="clipPath19004"><path
         d="m 144.567,362.137 68.031,0 0,-70 -68.031,0 0,70 z"
         id="path19006" /></clipPath><clipPath
       id="clipPath19010"><path
         d="M 0,841 595,841 595,0 0,0 0,841 z"
         id="path19012" /></clipPath><clipPath
       id="clipPath19016"><path
         d="m 0.36,841.68 595.44,0 L 595.8,0 0.36,0 l 0,841.68 z"
         id="path19018" /></clipPath><clipPath
       id="clipPath19036"><path
         d="m 144.567,362.137 68.031,0 0,-70 -68.031,0 0,70 z"
         id="path19038" /></clipPath><clipPath
       id="clipPath19042"><path
         d="M 0,841 595,841 595,0 0,0 0,841 z"
         id="path19044" /></clipPath><clipPath
       id="clipPath19048"><path
         d="m 0.36,841.68 595.44,0 L 595.8,0 0.36,0 l 0,841.68 z"
         id="path19050" /></clipPath><clipPath
       id="clipPath19162"><path
         d="m 229.606,362.137 68.032,0 0,-70 -68.032,0 0,70 z"
         id="path19164" /></clipPath><clipPath
       id="clipPath19168"><path
         d="M 0,841 595,841 595,0 0,0 0,841 z"
         id="path19170" /></clipPath><clipPath
       id="clipPath19174"><path
         d="m 0.36,841.68 595.44,0 L 595.8,0 0.36,0 l 0,841.68 z"
         id="path19176" /></clipPath><clipPath
       id="clipPath19256"><path
         d="m 263.589,298.126 c 4.05,3.118 11.069,4.711 11.069,4.711 15.391,4.86 10.531,19.035 10.531,19.035 -0.54,1.62 -1.215,6.21 -1.215,6.21 -1.485,13.095 4.05,21.195 4.05,21.195 -3.241,3.105 -6.075,7.425 -6.075,7.425 -7.966,-2.835 -18.36,-2.551 -18.36,-2.551 0,0 -10.395,-0.284 -18.361,2.551 0,0 -2.834,-4.32 -6.075,-7.425 0,0 5.536,-8.1 4.05,-21.195 0,0 -0.675,-4.59 -1.215,-6.21 0,0 -4.86,-14.175 10.531,-19.035 0,0 7.02,-1.593 11.07,-4.711"
         id="path19258" /></clipPath><clipPath
       id="clipPath19268"><path
         d="m 229.606,362.137 68.032,0 0,-70 -68.032,0 0,70 z"
         id="path19270" /></clipPath><clipPath
       id="clipPath19274"><path
         d="M 0,841 595,841 595,0 0,0 0,841 z"
         id="path19276" /></clipPath><clipPath
       id="clipPath19280"><path
         d="m 0.36,841.68 595.44,0 L 595.8,0 0.36,0 l 0,841.68 z"
         id="path19282" /></clipPath><clipPath
       id="clipPath19378"><path
         d="m 314.646,362.137 68.031,0 0,-70 -68.031,0 0,70 z"
         id="path19380" /></clipPath><clipPath
       id="clipPath19384"><path
         d="M 0,841 595,841 595,0 0,0 0,841 z"
         id="path19386" /></clipPath><clipPath
       id="clipPath19390"><path
         d="m 0.36,841.68 595.44,0 L 595.8,0 0.36,0 l 0,841.68 z"
         id="path19392" /></clipPath><clipPath
       id="clipPath19518"><path
         d="M 0,841 595,841 595,0 0,0 0,841 z"
         id="path19520" /></clipPath><clipPath
       id="clipPath19524"><path
         d="m 0.36,841.68 595.44,0 L 595.8,0 0.36,0 l 0,841.68 z"
         id="path19526" /></clipPath></defs><g
     transform="matrix(0.32338818,0,0,-0.32338818,47.631619,268.78872)"
     id="g17392"><g
       transform="matrix(9.8816317,0,0,9.8816317,-4839.3329,-2717.6656)"
       id="g18904"><g
         clip-path="url(#clipPath18908)"
         id="g18906"><g
           clip-path="url(#clipPath18914)"
           id="g18912"><g
             clip-path="url(#clipPath18920)"
             id="g18918"><path
               d="m 518.447,296.631 c 6.224,1.521 11.695,5.521 16.012,10.699 5.841,7.785 9.546,16.66 9.925,26.506 l 0.053,25.278 -52.714,0.02 0.004,-0.02 0.053,-25.278 c 0.379,-9.846 4.084,-18.721 9.925,-26.506 4.317,-5.178 9.788,-9.178 16.013,-10.699 l 0.356,-0.083 0.373,0.083"
               id="path18924"
               style="fill:#b0053a;fill-opacity:1;fill-rule:nonzero;stroke:none" /><path
               d="m 540.097,330.865 -8.051,0 0,5.515 6.05,0 0,2.635 -6.05,0 0,5.953 -2.635,0 0,-5.953 -6.247,0 0,-2.635 6.247,0 0,-5.515 -8.052,0 0,-2.635 8.052,0 0,-14.395 2.635,0 0,14.395 8.051,0 0,2.635"
               id="path18926"
               style="fill:#ffffff;fill-opacity:1;fill-rule:nonzero;stroke:none" /><path
               d="m 492.519,358.338 51.042,0 0,-9.077 -51.042,0 0,9.077 z"
               id="path18928"
               style="fill:#ffffff;fill-opacity:1;fill-rule:nonzero;stroke:none" /><path
               d="m 518.016,297.408 0,51.114 -25.499,0 0,-15.324 c 0,0 0.383,-11.753 7.733,-22.226 4.128,-7.451 13.091,-12.889 17.766,-13.564"
               id="path18930"
               style="fill:#ffffff;fill-opacity:1;fill-rule:nonzero;stroke:none" /><path
               d="m 516.525,324.036 c -0.657,0.847 0.135,1.763 -0.082,2.692 -0.347,0.825 -0.925,1.544 -0.755,2.556 -0.115,1.034 -1.259,1.41 -1.991,1.919 -0.318,0.619 -0.326,1.37 -0.67,1.987 -0.367,0.462 -0.812,0.82 -1.383,0.943 -1.374,0.113 -2.748,0.2 -3.489,1.565 -1.518,1.433 -3.779,-0.225 -5.045,1.806 -0.891,0.897 -2.256,0.234 -3.172,1.052 -0.469,0.28 -0.734,0.795 -0.662,1.287 1.374,-0.165 2.689,0.369 3.847,1.029 0.927,0.399 1.992,0.178 3.003,0.086 0.569,0.11 0.744,0.657 0.946,1.125 0.807,-0.354 1.897,-0.574 2.773,-0.227 1.68,0.304 2.776,1.922 4.456,2.175 0.518,-0.02 0.937,-0.352 1.252,-0.737 l 0.127,0.131 c -0.062,0.906 -0.435,1.86 -1.346,2.264 -2.861,1.029 -3.726,-2.607 -6.052,-3.022 -0.492,-0.032 -1.01,-0.012 -1.222,0.4 l 0.488,0.394 c 0.358,0.366 0.43,0.912 0.371,1.481 -0.423,0.823 -1.426,0.139 -2.128,0.39 -0.859,0.326 -1.792,0.445 -2.499,1.136 -1.202,0.893 -2.458,-0.313 -3.675,-0.327 -2.911,0.925 -2.294,-3.134 -4.807,-3.137 0.482,-1.342 0.085,-2.874 -0.679,-3.971 1.019,-0.843 1.475,-2.081 1.205,-3.483 -0.034,-1.476 1.245,-2.342 2.291,-3.236 0.109,-0.439 -0.356,-0.574 -0.587,-0.784 -0.654,0.614 -1.617,1.018 -2.519,0.67 -0.642,-0.499 0.555,-0.978 0.639,-1.521 -0.565,-0.498 -1.022,-1.228 -1.014,-1.98 0.575,-0.407 1.557,-0.241 2.149,0.077 0.446,-0.435 0.479,-1.057 0.795,-1.57 0.181,10e-4 0.439,0.134 0.54,0.342 0.509,0.731 0.757,1.744 0.384,2.62 l 0.54,0.343 c 0.799,0.346 1.148,-0.712 1.748,-1.015 1.565,-0.993 1.636,-2.675 2.583,-3.959 0.318,-0.618 1.616,-0.862 1.212,-1.774 -0.567,-0.317 -1.053,-0.763 -1.7,-0.873 -1.054,-0.66 -1.742,0.653 -2.727,0.693 -0.467,0.098 -1.272,0.218 -1.656,-0.122 l 1.132,-1.645 c -0.561,-0.706 -1.069,-1.567 -1.085,-2.473 0.73,-0.354 1.841,-0.186 2.512,0.081 0.394,-0.565 0.61,-1.21 0.824,-1.856 1.056,0.505 1.301,1.699 1.366,2.787 0.352,0.963 1.348,-0.088 1.938,0.437 0.638,0.784 1.645,1.106 2.734,0.99 0.851,0.32 0.735,1.381 0.934,2.109 0.674,-0.096 1.503,-0.061 2.205,-0.286 0.572,-0.252 0.605,-0.874 0.638,-1.417 -0.113,-1.529 1.89,-2.231 1.365,-3.922 -0.72,-0.37 -1.574,-0.457 -2.349,-0.674 -0.154,-0.105 -0.438,-0.134 -0.409,-0.393 0.598,-0.252 1.3,-0.477 2.077,-0.416 -0.043,-0.856 -1.159,-0.609 -1.752,-0.901 -0.386,-0.212 -1.007,-0.219 -1.131,-0.713 0.497,-0.356 1.323,-0.165 1.866,-0.133 -0.454,-1.067 -1.884,-0.54 -2.733,-1.042 -0.155,-0.079 -0.465,-0.134 -0.41,-0.419 0.161,-0.464 0.78,-0.276 1.094,-0.479 -0.721,-0.424 -1.598,-0.666 -2.108,-1.423 -1.073,-1.23 -0.403,-3.164 0,-4.481 0.108,-0.413 -0.172,-0.805 0.117,-1.112 0.104,-0.051 0.155,0.053 0.232,0.08 0.529,1.276 0.096,2.928 0.911,4.103 0.409,0.419 0.924,0.71 1.441,0.767 0.006,-0.466 -0.014,-0.933 0.171,-1.318 0.928,0.347 0.497,1.87 1.479,2.011 0.213,-0.464 0.194,-1.112 0.689,-1.365 0.742,0.786 -0.079,2.33 1.237,2.734 0.317,-0.463 0.402,-1.031 0.82,-1.467 l 0.155,0.079 c 0.379,0.859 0.262,1.972 0.382,2.854 0.758,1.588 0.889,-0.793 1.716,-0.602 0.33,0.574 0.19,1.427 0.08,2.047 -0.346,0.773 0.608,1.146 0.444,1.896 -0.634,1.107 -0.21,2.509 0.53,3.424 0.3,0.962 0.029,1.995 -0.601,2.713 z m -13.613,19.371 c 1.295,0.042 2.285,-0.465 3.375,-0.686 l 0.42,-0.435 c -1.531,0.267 -3.063,0.56 -4.644,0.645 0.127,0.235 0.514,0.395 0.849,0.476"
               id="path18932"
               style="fill:#b0053a;fill-opacity:1;fill-rule:nonzero;stroke:none" /><path
               d="m 498.582,356.055 -2.258,0 0,-1.835 2.216,0 0,-1.381 -2.216,0 0,-2.785 -2.225,0 0,7.384 4.483,0 0,-1.383 z"
               id="path18934"
               style="fill:#b0053a;fill-opacity:1;fill-rule:nonzero;stroke:#b0053a;stroke-width:0.49862674;stroke-linecap:butt;stroke-linejoin:miter;stroke-miterlimit:4;stroke-opacity:1;stroke-dasharray:none" /><path
               d="m 506.262,350.254 c -0.412,-0.158 -1.108,-0.327 -1.783,-0.327 -2.458,0 -4.473,1.477 -4.473,3.892 0,2.236 1.835,3.745 4.346,3.745 0.486,0 1.361,-0.137 1.888,-0.369 l -0.548,-1.307 c -0.359,0.105 -1.013,0.137 -1.224,0.137 -1.065,0 -2.141,-0.686 -2.141,-2.29 0,-1.572 1.086,-2.268 2.247,-2.268 0.475,0 0.917,0.085 1.255,0.169 l 0.433,-1.382 z"
               id="path18936"
               style="fill:#b0053a;fill-opacity:1;fill-rule:nonzero;stroke:#b0053a;stroke-width:0.49862674;stroke-linecap:butt;stroke-linejoin:miter;stroke-miterlimit:4;stroke-opacity:1;stroke-dasharray:none" /><path
               d="m 520.455,350.054 -2.226,0 0,5.168 -0.021,0 c -0.57,-1.93 -1.161,-3.554 -1.751,-5.168 l -1.403,0 c -0.602,1.614 -1.203,3.238 -1.783,5.168 l -0.021,0 0,-5.168 -1.751,0 0,7.384 3.016,0 c 0.507,-1.413 1.013,-2.816 1.509,-4.547 l 0.021,0 c 0.476,1.731 0.971,3.134 1.456,4.547 l 2.954,0 0,-7.384 z"
               id="path18938"
               style="fill:#b0053a;fill-opacity:1;fill-rule:nonzero;stroke:#b0053a;stroke-width:0.49862674;stroke-linecap:butt;stroke-linejoin:miter;stroke-miterlimit:4;stroke-opacity:1;stroke-dasharray:none" /><path
               d="m 526.837,356.055 -2.257,0 0,-1.455 2.204,0 0,-1.382 -2.204,0 0,-1.783 2.71,0 0,-1.381 -4.937,0 0,7.384 4.484,0 0,-1.383 z"
               id="path18940"
               style="fill:#b0053a;fill-opacity:1;fill-rule:nonzero;stroke:#b0053a;stroke-width:0.49862674;stroke-linecap:butt;stroke-linejoin:miter;stroke-miterlimit:4;stroke-opacity:1;stroke-dasharray:none" /><path
               d="m 530.434,350.054 0,6.001 -2.131,0 0,1.383 6.487,0 0,-1.383 -2.131,0 0,-6.001 -2.225,0 z"
               id="path18942"
               style="fill:#b0053a;fill-opacity:1;fill-rule:nonzero;stroke:#b0053a;stroke-width:0.49862674;stroke-linecap:butt;stroke-linejoin:miter;stroke-miterlimit:4;stroke-opacity:1;stroke-dasharray:none" /><path
               d="m 542.08,356.699 -3.292,-5.264 3.47,0 0,-1.381 -6.287,0 0,0.748 3.366,5.253 -2.585,0 0,1.383 5.328,0 0,-0.739 z"
               id="path18944"
               style="fill:#b0053a;fill-opacity:1;fill-rule:nonzero;stroke:#b0053a;stroke-width:0.49862674;stroke-linecap:butt;stroke-linejoin:miter;stroke-miterlimit:4;stroke-opacity:1;stroke-dasharray:none" /></g></g></g></g></g></svg>