<?xml version="1.0" encoding="UTF-8" standalone="no"?>
<!-- Created with Inkscape (http://www.inkscape.org/) -->

<svg
   xmlns:dc="http://purl.org/dc/elements/1.1/"
   xmlns:cc="http://creativecommons.org/ns#"
   xmlns:rdf="http://www.w3.org/1999/02/22-rdf-syntax-ns#"
   xmlns:svg="http://www.w3.org/2000/svg"
   xmlns="http://www.w3.org/2000/svg"
   version="1.1"
   width="280"
   height="200"
   viewBox="0 0 280 200"
   id="Ebene_1"
   xml:space="preserve"><metadata
     id="metadata107"><rdf:RDF><cc:Work
         rdf:about=""><dc:format>image/svg+xml</dc:format><dc:type
           rdf:resource="http://purl.org/dc/dcmitype/StillImage" /><dc:title></dc:title></cc:Work></rdf:RDF></metadata><defs
     id="defs105" /><path
     d="m 68.81303,29.432196 8.57567,-10.61013 2.74002,1.94133 c 7.66549,5.43101 17.47341,9.22548 26.90455,6.6742 8.23559,-2.22744 15.75962,-10.62918 19.8857,-17.75846 1.35008,-2.33291 2.5153,-4.78542 3.43499,-7.31977 L 131.19181,0.05149604 142.64825,-3.9621722e-6 C 147.55044,11.655056 159.3512,27.752276 176.05802,27.168436 c 6.6054,-0.23107 13.0076,-2.68111 18.39698,-6.49957 l 2.74037,-1.94133 8.48959,11.02005 -1.65312,1.96885 c -4.24461,5.0553 -6.13409,12.66858 -5.91925,19.1685 0.11854,3.59657 0.60608,7.02521 1.46509,10.5177 0.91369,3.71263 2.1664,7.36282 3.3542,10.99536 1.62031,4.95511 3.1182,9.88941 4.38432,14.95 2.66805,10.66445 3.48826,21.933224 2.77742,32.891184 -0.73413,11.32592 -3.18417,22.18969 -8.97572,32.0544 -4.53848,7.73217 -10.73113,14.14214 -17.95389,19.40769 -3.63819,2.65218 -7.47746,5.05318 -11.32662,7.38504 L 137.30685,200 102.75373,179.18473 C 97.30967,175.90567 91.83457,172.4234 86.97013,168.31814 72.74968,156.31736 64.93284,138.50634 64.1084,120.07373 c -0.4632,-10.35542 0.56444,-22.136064 2.9605,-32.213154 1.48731,-6.25615 3.62832,-12.08297 5.55131,-18.20648 1.82985,-5.82435 3.62231,-11.97996 3.85127,-18.12393 0.31608,-8.45889 -2.50014,-16.34628 -7.65845,-22.09796 l 0,0 z"
     id="path3"
     style="fill:#1b8f3a;fill-rule:evenodd" /><path
     d="m 73.32117,29.545786 4.73921,-5.8628 c 10.84226,7.68172 21.34797,9.52392 29.90705,7.20865 10.33037,-2.794 21.10207,-14.22574 25.74956,-27.02803 l 7.19701,-0.14182 c 5.30824,12.89683 15.46681,23.05435 25.79683,25.84834 8.55909,2.31493 18.97025,1.69968 29.81286,-5.98204 l 4.73921,6.05154 c -5.00556,6.11927 -6.95148,14.53054 -6.7257,21.36313 0.42721,12.93916 4.9223,19.68038 9.30873,37.21306 2.57598,10.29686 3.36126,21.250954 2.67829,31.791584 -0.78388,12.08333 -3.48262,21.9431 -8.491,30.47466 -4.29718,7.32013 -10.15434,13.35509 -16.97599,18.32784 -3.29,2.39853 -6.97406,4.73286 -11.07298,7.21535 l -32.68198,19.79468 -32.70175,-19.69978 c -5.9704,-3.59727 -11.0384,-6.92114 -15.32253,-10.53711 -13.99608,-11.81098 -20.85089,-29.04062 -21.5949,-45.66948 -0.38735,-8.65892 0.2226,-20.900644 2.67793,-31.225724 3.63043,-15.26714 8.88152,-25.59505 9.30873,-37.02433 0.25541,-6.83118 -1.34302,-15.2435 -6.34858,-22.11772 l 0,0 z"
     id="path5"
     style="fill:#ffd600;fill-rule:evenodd" /><path
     d="m 77.40034,28.573886 c 3.9765,6.54155 5.94006,15.62168 5.65572,23.22368 -0.0462,1.23895 -0.14534,2.47579 -0.29104,3.70698 -0.65052,5.50191 -2.41758,10.83626 -4.07316,16.10534 -1.87219,5.95876 -3.78037,11.8191 -5.22781,17.90591 -2.2419,9.42833 -2.64054,20.548934 -2.20697,30.237954 0.73483,16.43237 7.63939,32.38742 20.32843,43.09527 4.56388,3.85162 9.75323,7.12928 14.86074,10.20655 l 30.85108,18.58431 30.83872,-18.67779 c 4.15008,-2.50049 8.35518,-5.13397 12.23397,-8.09942 5.43171,-4.15219 10.11659,-9.09142 13.77595,-14.89037 5.46875,-8.66527 8.0479,-18.47812 8.80814,-30.19632 0.66252,-10.2182 0.0977,-20.747184 -2.39007,-30.691624 -1.22519,-4.8962 -2.48778,-9.66857 -4.05517,-14.46281 -1.24495,-3.80753 -2.73226,-7.61717 -3.6897,-11.50971 -0.9779,-3.97474 -1.53387,-7.89762 -1.66863,-11.9909 -0.2406,-7.28626 2.02458,-16.17907 6.12139,-22.41123 l -0.39511,-0.47978 c -8.94961,5.57565 -19.40557,9.33131 -31.19363,6.20959 -11.62224,-3.07728 -23.39689,-15.80231 -28.25886,-27.26192 l -0.42898,-0.003 c -4.89337,11.51924 -16.00268,24.11515 -27.99817,27.35999 -10.44749,2.82575 -22.36149,-0.58631 -31.31074,-6.35069 l -0.2861,0.39017 0,0 z"
     id="path7"
     style="fill:#1b8f3a;fill-rule:evenodd" /><path
     d="m 82.54383,33.655646 c 2.16782,5.82258 3.18875,12.40082 2.97038,18.23399 -0.0487,1.30493 -0.1531,2.60703 -0.30621,3.90384 -0.67239,5.68712 -2.46097,11.11636 -4.16947,16.55407 -1.1684,3.71862 -2.36114,7.4309 -3.44134,11.17598 h 58.14792 v -68.58519 c -5.97499,9.82944 -15.60193,19.12865 -26.10658,21.97026 -0.62477,0.16898 -1.25553,0.31786 -1.89018,0.44697 -8.35658,1.69616 -17.36793,-0.0699 -25.20452,-3.69992 l 0,0 z m 56.22105,49.86788 h 57.81596 c -0.74048,-2.73014 -1.53035,-5.44617 -2.41018,-8.13751 -1.27211,-3.89078 -2.76083,-7.7036 -3.7405,-11.68645 -1.01211,-4.11268 -1.59878,-8.26346 -1.73883,-12.49714 -0.1838,-5.56859 0.98424,-11.88224 3.21838,-17.43777 -2.88148,1.36701 -5.87974,2.47861 -8.9937,3.22367 -5.96299,1.42699 -11.92881,1.40053 -17.86358,-0.17074 -10.25629,-2.71603 -20.2099,-12.08862 -26.2879,-21.81892 v 68.52486 l 3.5e-4,0 z M 74.11916,124.4785 c 1.44885,11.83532 6.26179,23.14748 14.30088,31.92563 V 125.8 h 16.07006 v 43.17817 c 1.07244,0.6664 2.14983,1.32221 3.22544,1.97062 l 12.84286,7.7364 v -52.88484 h 16.07006 v 62.56575 l 0.66534,0.40041 15.40296,-9.3292 V 125.8 h 16.07006 v 43.90066 c 3.46286,-2.11949 6.88621,-4.32858 10.10918,-6.79237 2.10785,-1.61149 4.10104,-3.34927 5.95912,-5.21581 V 125.8 h 15.05935 c 0.0589,-0.43956 0.1143,-0.87982 0.16616,-1.3215 H 74.11916 l 0,0 z"
     id="path9"
     style="fill:#ffd600;fill-rule:evenodd" /><path
     d="m 136.54697,129.21136 c 11.35167,0 20.55774,9.20607 20.55774,20.55739 0,11.35131 -9.20607,20.55738 -20.55774,20.55738 -11.35167,0 -20.55739,-9.20607 -20.55739,-20.55738 0,-11.35132 9.20572,-20.55739 20.55739,-20.55739 l 0,0 z"
     id="path11"
     style="fill:#ffd600;fill-rule:evenodd" /><path
     d="m 136.54697,130.32966 c 10.73431,0 19.43944,8.70513 19.43944,19.43944 0,10.7343 -8.70513,19.43944 -19.43944,19.43944 -10.73431,0 -19.43944,-8.70514 -19.43944,-19.43944 0,-10.73431 8.70513,-19.43944 19.43944,-19.43944 l 0,0 z m 0.31044,12.61743 5.77144,4.47463 5.16219,-1.12642 -0.14288,-5.8561 -5.13044,-3.92747 -5.66031,1.7847 v 4.65066 l 0,0 z m 6.11504,5.31494 -2.51389,6.06954 2.66876,4.43582 4.79601,-1.28235 2.72732,-5.63703 -2.63278,-4.68735 -5.04542,1.10137 0,0 z m 8.44972,3.13231 3.14819,0.01 c 0.0483,-0.53869 0.0748,-1.08373 0.0748,-1.63512 0,-4.04601 -1.32962,-7.78333 -3.57434,-10.79746 l -2.52412,1.60055 0.14534,5.96053 2.73014,4.86197 0,0 z m -0.73554,9.66751 -2.56927,-2.70298 -4.89091,1.30775 -2.71709,4.70252 1.15147,2.76295 c 3.60221,-1.06045 6.73875,-3.21063 9.0258,-6.07024 l 0,0 z m -19.11064,6.11222 1.06609,-2.90018 -2.55764,-4.72581 -4.73427,-1.08161 -2.84303,2.71885 c 2.30893,2.83527 5.45817,4.95934 9.06885,5.98875 l 0,0 z m -13.04888,-15.73492 3.19404,-0.19509 2.55199,-4.82987 0.21379,-5.86916 -2.54141,-1.46685 c -2.1971,2.99579 -3.49638,6.69184 -3.49638,10.69092 0,0.56338 0.0275,1.11936 0.078,1.67005 l 0,0 z m 11.40176,-18.51869 0.87806,2.83597 5.60387,1.74237 5.89949,-1.85949 0.73166,-2.76648 c -2.01647,-0.77575 -4.20546,-1.20156 -6.49498,-1.20156 -2.33609,0 -4.56847,0.44239 -6.6181,1.24919 l 0,0 z m 9.77122,21.88594 -6.35634,0.0399 -2.46379,4.2933 2.58938,4.78401 h 6.26391 l 2.67088,-4.62209 -2.70404,-4.49509 0,0 z m -7.17055,-0.33831 -2.54317,-6.04201 -5.07787,-1.29893 -2.3876,4.51802 2.72908,5.88079 4.8842,1.11619 2.39536,-4.17406 0,0 z m -2.36396,-6.91972 5.79754,-4.59916 v -4.65243 l -5.48604,-1.70603 -5.09304,3.89149 -0.21061,5.78907 4.99215,1.27706 0,0 z"
     id="path13"
     style="fill:#1b8f3a;fill-rule:evenodd" /><path
     d="m 155.96312,49.928906 c -0.81703,4.5473 -1.81609,8.05355 -4.50602,11.51288 0.90417,0.0328 1.67499,-0.18626 2.57139,-1.2259 0.39652,1.09714 1.22343,2.08033 1.95862,2.26342 0.69286,-0.17639 1.46932,-1.14758 1.911,-2.23872 0.96661,1.06327 1.84714,1.27423 2.59467,1.20155 -2.50189,-3.11149 -3.63396,-6.68936 -4.52966,-11.51323 l 0,0 z"
     id="path15"
     style="fill:#1b8f3a;fill-rule:evenodd" /><path
     d="m 155.9476,43.218726 c -0.39652,1.17404 -0.93063,2.18687 -0.98072,3.0487 -0.025,0.43498 0.21907,1.12113 0.98883,1.0989 0.76976,-0.0222 1.00154,-0.53375 0.99519,-1.0996 -0.008,-0.7232 -0.55915,-1.85279 -1.0033,-3.048 l 0,0 z"
     id="path17"
     style="fill:#1b8f3a;fill-rule:evenodd" /><path
     d="m 151.02777,48.522026 c 1.17404,0.39652 2.18687,0.93063 3.04905,0.98072 0.43498,0.0254 1.12113,-0.21907 1.0989,-0.98848 -0.0222,-0.76976 -0.5341,-1.00153 -1.0996,-0.99554 -0.7232,0.008 -1.85244,0.5588 -3.04835,1.0033 l 0,0 z"
     id="path19"
     style="fill:#1b8f3a;fill-rule:evenodd" /><path
     d="m 160.8759,48.533666 c -1.17404,0.39652 -2.18722,0.93063 -3.04905,0.98072 -0.43498,0.025 -1.12148,-0.21907 -1.09891,-0.98848 0.0226,-0.76941 0.53411,-1.00153 1.09961,-0.99554 0.72355,0.008 1.85279,0.5588 3.04835,1.0033 l 0,0 z"
     id="path21"
     style="fill:#1b8f3a;fill-rule:evenodd" /><path
     d="m 147.84784,66.915126 c -0.81739,4.5473 -1.8161,8.0532 -4.50603,11.51289 0.90417,0.0332 1.67499,-0.18627 2.57104,-1.22591 0.39652,1.09714 1.22343,2.08033 1.95862,2.26342 0.69286,-0.17638 1.46967,-1.14758 1.911,-2.23872 0.96661,1.06327 1.84749,1.27423 2.59467,1.20156 -2.50154,-3.1115 -3.63396,-6.68972 -4.5293,-11.51324 l 0,0 z"
     id="path23"
     style="fill:#1b8f3a;fill-rule:evenodd" /><path
     d="m 147.83196,60.204596 c -0.39652,1.17404 -0.93063,2.18722 -0.98072,3.04906 -0.0251,0.43497 0.21907,1.12112 0.98883,1.0989 0.76976,-0.0222 1.00154,-0.53376 0.99519,-1.09961 -0.008,-0.72355 -0.5588,-1.85279 -1.0033,-3.04835 l 0,0 z"
     id="path25"
     style="fill:#1b8f3a;fill-rule:evenodd" /><path
     d="m 142.91248,65.508256 c 1.17369,0.39652 2.18652,0.93062 3.0487,0.98072 0.43498,0.0254 1.12113,-0.21908 1.0989,-0.98849 -0.0222,-0.76976 -0.5341,-1.00153 -1.0996,-0.99518 -0.7232,0.008 -1.85244,0.55845 -3.048,1.00295 l 0,0 z"
     id="path27"
     style="fill:#1b8f3a;fill-rule:evenodd" /><path
     d="m 152.76026,65.519896 c -1.17404,0.39652 -2.18687,0.93062 -3.04906,0.98072 -0.43497,0.025 -1.12112,-0.21908 -1.0989,-0.98848 0.0222,-0.76976 0.53411,-1.00154 1.09961,-0.99554 0.72355,0.008 1.85279,0.5588 3.04835,1.0033 l 0,0 z"
     id="path29"
     style="fill:#1b8f3a;fill-rule:evenodd" /><path
     d="m 173.44994,49.928906 c -0.81703,4.5473 -1.8161,8.05355 -4.50603,11.51288 0.90417,0.0328 1.67499,-0.18626 2.5714,-1.2259 0.39652,1.09714 1.22343,2.08033 1.95862,2.26342 0.69285,-0.17639 1.46931,-1.14758 1.91099,-2.23872 0.96661,1.06327 1.84714,1.27423 2.59468,1.20155 -2.5019,-3.11149 -3.63396,-6.68936 -4.52966,-11.51323 l 0,0 z"
     id="path31"
     style="fill:#1b8f3a;fill-rule:evenodd" /><path
     d="m 173.43442,43.218726 c -0.39653,1.17404 -0.93063,2.18687 -0.98073,3.0487 -0.025,0.43498 0.21908,1.12113 0.98884,1.0989 0.76976,-0.0222 1.00153,-0.53375 0.99518,-1.0996 -0.008,-0.7232 -0.5588,-1.85279 -1.00329,-3.048 l 0,0 z"
     id="path33"
     style="fill:#1b8f3a;fill-rule:evenodd" /><path
     d="m 168.51494,48.522026 c 1.17404,0.39652 2.18686,0.93063 3.04905,0.98072 0.43498,0.0254 1.12113,-0.21907 1.0989,-0.98848 -0.0222,-0.76976 -0.5341,-1.00153 -1.09996,-0.99554 -0.72319,0.008 -1.85243,0.5588 -3.04799,1.0033 l 0,0 z"
     id="path35"
     style="fill:#1b8f3a;fill-rule:evenodd" /><path
     d="m 178.36271,48.533666 c -1.17369,0.39652 -2.18686,0.93063 -3.0487,0.98072 -0.43497,0.025 -1.12112,-0.21907 -1.0989,-0.98848 0.0222,-0.76941 0.53411,-1.00153 1.09961,-0.99554 0.72319,0.008 1.85243,0.5588 3.04799,1.0033 l 0,0 z"
     id="path37"
     style="fill:#1b8f3a;fill-rule:evenodd" /><path
     d="m 164.66367,66.915126 c -0.81703,4.5473 -1.8161,8.0532 -4.50603,11.51289 0.90417,0.0332 1.67499,-0.18627 2.5714,-1.22591 0.39652,1.09714 1.22343,2.08033 1.95862,2.26342 0.69285,-0.17638 1.46931,-1.14758 1.91064,-2.23872 0.96696,1.06327 1.84749,1.27423 2.59503,1.20156 -2.5019,-3.1115 -3.63396,-6.68972 -4.52966,-11.51324 l 0,0 z"
     id="path39"
     style="fill:#1b8f3a;fill-rule:evenodd" /><path
     d="m 164.64815,60.204596 c -0.39653,1.17404 -0.93098,2.18722 -0.98072,3.04906 -0.025,0.43497 0.21907,1.12112 0.98883,1.0989 0.76976,-0.0222 1.00153,-0.53376 0.99518,-1.09961 -0.008,-0.72355 -0.55879,-1.85279 -1.00329,-3.04835 l 0,0 z"
     id="path41"
     style="fill:#1b8f3a;fill-rule:evenodd" /><path
     d="m 159.72831,65.508256 c 1.17405,0.39652 2.18687,0.93062 3.04906,0.98072 0.43497,0.0254 1.12112,-0.21908 1.0989,-0.98849 -0.0222,-0.76976 -0.53411,-1.00153 -1.09996,-0.99518 -0.72319,0.008 -1.85208,0.55845 -3.048,1.00295 l 0,0 z"
     id="path43"
     style="fill:#1b8f3a;fill-rule:evenodd" /><path
     d="m 169.57609,65.519896 c -1.17369,0.39652 -2.18687,0.93062 -3.0487,0.98072 -0.43497,0.025 -1.12148,-0.21908 -1.0989,-0.98848 0.0222,-0.76976 0.5341,-1.00154 1.09961,-0.99554 0.72354,0.008 1.85278,0.5588 3.04799,1.0033 l 0,0 z"
     id="path45"
     style="fill:#1b8f3a;fill-rule:evenodd" /><path
     d="m 181.47985,66.915126 c -0.81738,4.5473 -1.81609,8.0532 -4.50602,11.51289 0.90417,0.0332 1.67499,-0.18627 2.57104,-1.22591 0.39687,1.09714 1.22343,2.08033 1.95897,2.26342 0.6925,-0.17638 1.46932,-1.14758 1.91064,-2.23872 0.96697,1.06327 1.8475,1.27423 2.59468,1.20156 -2.50154,-3.1115 -3.63396,-6.68972 -4.52931,-11.51324 l 0,0 z"
     id="path47"
     style="fill:#1b8f3a;fill-rule:evenodd" /><path
     d="m 181.46433,60.204596 c -0.39687,1.17404 -0.93098,2.18722 -0.98072,3.04906 -0.0254,0.43497 0.21872,1.12112 0.98848,1.0989 0.76976,-0.0222 1.00189,-0.53376 0.99554,-1.09961 -0.008,-0.72355 -0.55915,-1.85279 -1.0033,-3.04835 l 0,0 z"
     id="path49"
     style="fill:#1b8f3a;fill-rule:evenodd" /><path
     d="m 176.5445,65.508256 c 1.17369,0.39652 2.18687,0.93062 3.0487,0.98072 0.43497,0.0254 1.12148,-0.21908 1.0989,-0.98849 -0.0222,-0.76976 -0.53375,-1.00153 -1.0996,-0.99518 -0.7232,0.008 -1.85244,0.55845 -3.048,1.00295 l 0,0 z"
     id="path51"
     style="fill:#1b8f3a;fill-rule:evenodd" /><path
     d="m 186.39228,65.519896 c -1.17405,0.39652 -2.18687,0.93062 -3.04906,0.98072 -0.43497,0.025 -1.12112,-0.21908 -1.09855,-0.98848 0.0222,-0.76976 0.53376,-1.00154 1.09961,-0.99554 0.72355,0.008 1.85279,0.5588 3.048,1.0033 l 0,0 z"
     id="path53"
     style="fill:#1b8f3a;fill-rule:evenodd" /><polygon
     points="49.798,331.476 57.973,331.46 51.35,336.251 53.891,344.021 47.287,339.203 40.684,344.021 43.225,336.251 36.602,331.46 44.776,331.476 47.287,323.697 47.287,323.697 "
     transform="matrix(0.35277724,0,0,0.35277724,64.00009,-1.3962172e-5)"
     id="polygon55"
     style="fill:#ffd600;fill-rule:evenodd" /><polygon
     points="95.12,331.476 103.295,331.46 96.672,336.251 99.213,344.021 92.61,339.203 86.006,344.021 88.547,336.251 81.924,331.46 90.099,331.476 92.61,323.697 92.61,323.697 "
     transform="matrix(0.35277724,0,0,0.35277724,64.00009,-1.3962172e-5)"
     id="polygon57"
     style="fill:#ffd600;fill-rule:evenodd" /><polygon
     points="140.442,331.476 148.617,331.46 141.994,336.251 144.536,344.021 137.932,339.203 131.328,344.021 133.869,336.251 127.247,331.46 135.421,331.476 137.932,323.697 137.932,323.697 "
     transform="matrix(0.35277724,0,0,0.35277724,64.00009,-1.3962172e-5)"
     id="polygon59"
     style="fill:#ffd600;fill-rule:evenodd" /><polygon
     points="185.765,331.476 193.939,331.46 187.316,336.251 189.858,344.021 183.254,339.203 176.65,344.021 179.191,336.251 172.569,331.46 180.743,331.476 183.254,323.697 183.254,323.697 "
     transform="matrix(0.35277724,0,0,0.35277724,64.00009,-1.3962172e-5)"
     id="polygon61"
     style="fill:#ffd600;fill-rule:evenodd" /><polygon
     points="231.087,331.476 239.262,331.46 232.639,336.251 235.18,344.021 228.576,339.203 221.973,344.021 224.514,336.251 217.891,331.46 226.065,331.476 228.576,323.697 228.576,323.697 "
     transform="matrix(0.35277724,0,0,0.35277724,64.00009,-1.3962172e-5)"
     id="polygon63"
     style="fill:#ffd600;fill-rule:evenodd" /><polygon
     points="276.409,331.476 284.584,331.46 277.961,336.251 280.502,344.021 273.898,339.203 267.295,344.021 269.836,336.251 263.213,331.46 271.388,331.476 273.898,323.697 273.898,323.697 "
     transform="matrix(0.35277724,0,0,0.35277724,64.00009,-1.3962172e-5)"
     id="polygon65"
     style="fill:#ffd600;fill-rule:evenodd" /><polygon
     points="321.731,331.476 329.906,331.46 323.283,336.251 325.825,344.021 319.221,339.203 312.617,344.021 315.158,336.251 308.536,331.46 316.71,331.476 319.221,323.697 319.221,323.697 "
     transform="matrix(0.35277724,0,0,0.35277724,64.00009,-1.3962172e-5)"
     id="polygon67"
     style="fill:#ffd600;fill-rule:evenodd" /><polygon
     points="367.054,331.476 375.229,331.46 368.605,336.251 371.147,344.021 364.543,339.203 357.939,344.021 360.48,336.251 353.858,331.46 362.032,331.476 364.543,323.697 364.543,323.697 "
     transform="matrix(0.35277724,0,0,0.35277724,64.00009,-1.3962172e-5)"
     id="polygon69"
     style="fill:#ffd600;fill-rule:evenodd" /><path
     d="m 129.04269,57.336876 -0.14605,0 0.005,-11.30263 -0.62865,0.01 0.002,2.52589 c -0.59514,-0.30198 -1.55575,-0.46884 -2.28,-0.26917 -1.33562,0.3683 -2.31211,1.20544 -5.03237,0.90416 0.43991,0.27694 1.28058,0.6022 2.19921,0.90911 -0.28539,0.47237 -0.75177,0.76235 -1.11054,0.99272 2.17487,0.24377 3.30588,0.32984 4.13984,-0.10054 1.05833,-0.54646 1.39065,-0.99907 2.08421,-0.43815 v 6.76909 l -0.30339,0 7.1e-4,1.60972 -1.32927,0 v -1.60972 h -1.29928 l -0.01,1.61007 -1.53423,-3.5e-4 0,-1.60972 h -1.21849 l -3.6e-4,1.60972 -1.42663,0 3.6e-4,-1.60902 -1.27,-7e-4 0.001,2.98237 -1.57586,7.51451 7.20301,0.0138 3.532,-4.83587 -0.002,-5.67477 0,0 z m -3.12137,3.36126 h 1.57515 v 2.5093 h -1.57515 v -2.5093 l 0,0 z m -2.54952,0 h 1.5755 v 2.5093 h -1.5755 v -2.5093 l 0,0 z m -1.06786,2.51671 -1.5755,-0.007 0,-2.51283 1.57515,0.007 v 2.51283 l 3.5e-4,0 z"
     id="path71"
     style="fill:#1b8f3a;fill-rule:evenodd" /><path
     d="m 125.08171,68.802836 -7.17196,-3.5e-4 c -4.26332,2.74566 -7.90468,3.01695 -10.96467,2.39994 -5.10045,-1.0287 -8.41974,-4.77978 -9.08507,-5.51426 l -4.44641,-4.90466 2.57986,-2.49202 c 1.01776,4.38502 3.68794,8.05426 7.83377,10.0224 2.80529,1.33209 6.23993,1.82386 9.9776,0.67733 -4.37232,-0.81703 -10.34907,-3.49214 -12.92823,-8.58765 5.3788,4.64749 10.72584,6.92784 15.28725,7.2665 -2.7065,-3.02541 -3.35773,-5.60704 -2.74002,-7.91314 0.13406,-0.49989 0.29986,-0.99201 0.50906,-1.47496 l 3.73591,9.40786 0.2219,-1.02059 -3.60539,-9.11082 c 0.10125,-0.18591 0.21132,-0.37006 0.3295,-0.5528 l 3.70557,7.66726 0.20144,-1.0033 -3.52883,-7.20406 c 0.12876,-0.1704 0.26634,-0.33902 0.4131,-0.50553 l 3.52883,5.80671 0.1905,-0.8703 -3.28083,-5.39926 c 0.46355,-0.4579 1.00577,-0.89993 1.64112,-1.32221 l -3.20004,-1.24354 -0.7366,-1.21249 6.17924,2.39183 -10e-4,0.0409 c 0,0.57326 0.46496,1.03787 1.03787,1.03787 0.57291,0 1.03787,-0.46496 1.03787,-1.03787 0,-0.57326 -0.46496,-1.03822 -1.03787,-1.03822 -0.34008,0 -0.64206,0.16439 -0.83115,0.41769 l -6.90879,-2.67441 -3.47344,-5.7164 v -1.86302 h 1.36772 v -0.61595 h -1.36772 v -1.50953 h -0.61595 v 1.50953 h -1.46226 v 0.61595 h 1.46226 v 1.65594 l -3.20745,3.09844 -7.24216,-2.80317 c 0.006,-0.0452 0.008,-0.0907 0.008,-0.13723 0,-0.57326 -0.46496,-1.03787 -1.03787,-1.03787 -0.57291,0 -1.03787,0.46496 -1.03787,1.03787 0,0.57291 0.46496,1.03787 1.03787,1.03787 0.30551,0 0.57997,-0.13194 0.77011,-0.34184 l 7.01427,2.71498 -0.67451,0.65122 -5.29377,-2.05704 c -3.58351,3.03353 -4.06047,7.04073 -3.42688,10.48172 l -2.84444,2.74813 -1.26259,-1.39312 -0.48966,0.44344 5.69877,6.2872 -4.75226,-0.11889 c 0.22048,4.27778 1.44779,8.09977 3.68017,11.37143 0.25999,0.004 0.64029,-0.1076 1.11407,-0.17392 4.17371,0.97472 8.91926,1.10313 12.38036,-0.58068 4.35715,1.61925 8.10012,1.39912 10.94633,-0.75529 0.94403,0.69321 1.60443,0.94438 2.54775,1.13241 l -0.28292,-4.24743 c 0.97472,-0.94051 1.96567,-1.97873 2.50013,-3.48862 l 0,0 z m -15.47493,3.77437 h 1.69863 v 1.69862 h -1.69863 v -1.69862 l 0,0 z m 3.10691,0 h 1.69862 v 1.69862 h -1.69862 v -1.69862 l 0,0 z m -6.26956,0 h 1.69863 v 1.69862 h -1.69863 v -1.69862 l 0,0 z m 4.20511,-10.41152 c -1.34585,-3.66712 -0.23671,-7.00227 1.74554,-9.0124 l 1.7459,0.66075 c -2.57281,1.97944 -3.6255,4.54236 -3.49144,8.35165 l 0,0 z m -4.69688,-1.79881 c -1.34584,-3.66712 -0.23671,-7.00228 1.74555,-9.0124 l 1.74589,0.66075 c -2.5728,1.97908 -3.62549,4.54236 -3.49144,8.35165 l 0,0 z m -4.03612,-1.53881 c -1.34585,-3.66712 -0.23671,-7.00228 1.74554,-9.0124 l 1.74554,0.66039 c -2.57245,1.97944 -3.62514,4.54272 -3.49108,8.35201 l 0,0 z m -3.68194,-1.39665 c -1.34584,-3.66712 -0.23671,-7.00228 1.74554,-9.0124 l 1.7459,0.66075 c -2.57245,1.97943 -3.62549,4.54236 -3.49144,8.35165 l 0,0 z m 10.98937,-11.64482 h -0.0395 l 0.091,0.0847 -0.0515,-0.0847 0,0 z m -0.25259,0 h -0.0335 l -2.57844,2.49096 4.25519,1.64676 -1.64323,-4.13772 0,0 z m 3.09174,4.69864 0.0212,0.008 -0.0875,-0.14358 0.0663,0.13582 0,0 z m 0.54504,0.8703 -0.1464,-0.0564 0.5588,1.14159 0.32243,0.12524 -0.73483,-1.21038 0,0 z m -0.89006,-0.34431 -0.0275,-0.0106 0.43179,1.09044 0.145,0.0564 -0.54928,-1.13629 0,0 z m -0.7941,-0.30727 -5.05177,-1.95545 -0.67486,0.65229 6.15949,2.39359 -0.43286,-1.09043 0,0 z"
     id="path73"
     style="fill:#1b8f3a;fill-rule:evenodd" /><path
     d="m 128.3382,76.273606 c -3.14678,2.03093 -6.51368,2.56751 -10.19597,1.84643 -6.34117,2.88254 -12.11578,2.88113 -21.24284,2.08315 0.19121,0.12665 -0.0787,0.29563 0.1323,0.41169 4.28201,2.35726 12.86896,2.33609 21.15781,-2.11631 2.9023,1.63653 8.26804,0.95709 10.1487,-2.22496 l 0,0 z"
     id="path75"
     style="fill:#1b8f3a;fill-rule:evenodd" /><path
     d="m 87.57055,78.050536 1.4157,1.60408 c 2.64336,-0.47166 5.55271,-1.21143 7.69125,-1.93498 2.68851,1.89794 7.40656,2.44757 11.79581,1.79422 3.45334,1.79458 8.07754,1.08091 10.14481,0.0437 -2.73649,0.31573 -6.55848,0.55351 -10.09789,-0.84702 -3.50872,0.54751 -7.72018,0.28857 -11.84273,-1.41569 -2.56363,0.59866 -5.47369,0.73906 -9.10695,0.75564 l 0,0 z"
     id="path77"
     style="fill:#1b8f3a;fill-rule:evenodd" /><polygon
     points="173.969,488.16 178.018,488.16 178.018,505.628 178.018,505.628 174.827,505.628 174.827,490.982 170.284,495.474 168.375,493.447 "
     transform="matrix(0.35277724,0,0,0.35277724,64.00009,-1.3962172e-5)"
     id="polygon79"
     style="fill:#ffd600" /><path
     d="m 134.16466,176.5911 c 0,0.66958 -0.18379,1.14653 -0.55174,1.43052 -0.26987,0.20813 -0.66957,0.33337 -1.19979,0.375 -0.25083,0.0194 -0.55175,0.0289 -0.90276,0.0289 -0.69991,0 -1.18992,-0.0801 -1.47073,-0.23848 -0.44909,-0.25647 -0.6738,-0.76553 -0.6738,-1.52964 h 1.11759 c 0.009,0.21343 0.0314,0.37077 0.066,0.47201 0.0367,0.1076 0.10654,0.18521 0.21343,0.23425 0.12206,0.0593 0.34819,0.097 0.67381,0.11641 0.0713,-0.0123 0.1658,-0.0194 0.2861,-0.0194 0.37006,0 0.63147,-0.0131 0.78493,-0.0392 0.14393,-0.0261 0.26035,-0.0889 0.34925,-0.18944 0.13829,-0.15452 0.20426,-0.42016 0.19861,-0.79798 l -0.0162,-1.05904 h -0.0176 c -0.18486,0.31962 -0.47273,0.50588 -0.86396,0.55598 -0.17956,0.0233 -0.40675,0.036 -0.68086,0.036 -0.40146,0 -0.73554,-0.0289 -1.00118,-0.0875 -0.26035,-0.0564 -0.47801,-0.17286 -0.65052,-0.34784 -0.26846,-0.27269 -0.40252,-0.74894 -0.40252,-1.4298 0,-0.79163 0.16687,-1.31339 0.5013,-1.56951 0.26952,-0.20531 0.6477,-0.32314 1.131,-0.35348 0.19721,-0.0123 0.4318,-0.018 0.70274,-0.018 0.68227,0 1.18744,0.0688 1.51764,0.20743 0.22155,0.0931 0.40111,0.23777 0.53658,0.43462 0.23565,0.33902 0.35348,1.0287 0.35348,2.07116 v 1.71696 l -7.1e-4,0 z m -1.12571,-2.34138 v -0.22401 c 0,-0.35278 -0.0737,-0.58843 -0.22189,-0.70485 -0.11078,-0.0861 -0.26847,-0.14111 -0.47378,-0.16616 -0.0808,-0.008 -0.17392,-0.0145 -0.28081,-0.0194 -0.0713,-0.004 -0.17251,-0.007 -0.30551,-0.0116 -0.57926,-0.004 -0.9271,0.0614 -1.04493,0.1972 -0.12029,0.115 -0.18062,0.37959 -0.18062,0.79587 0,0.34995 0.0547,0.58031 0.1644,0.68967 0.0974,0.0977 0.29033,0.1577 0.57643,0.18133 0.15346,0.0124 0.32068,0.0194 0.5013,0.0194 0.19438,0 0.36971,-0.007 0.52564,-0.0194 0.27516,-0.0208 0.46425,-0.0801 0.56691,-0.17709 0.11501,-0.10548 0.17286,-0.29281 0.17286,-0.56092 l 0,0 z"
     id="path81"
     style="fill:#ffd600" /><path
     d="m 143.07194,177.061 h -0.7232 v 1.31339 h -1.11759 V 177.061 h -3.36056 v -1.28164 l 2.72767,-3.56763 h 1.75048 v 3.96063 h 0.7232 v 0.88864 l 0,0 z m -1.84079,-0.88899 v -3.10621 l -0.0314,0.001 -2.39254,3.1048 h 2.42394 l 0,0 z"
     id="path83"
     style="fill:#1b8f3a" /><path
     d="m 149.76059,176.54348 c 0,0.88194 -0.25223,1.43792 -0.756,1.66687 -0.31609,0.14323 -0.91087,0.21484 -1.78329,0.21484 -0.54645,0 -0.9465,-0.0332 -1.19944,-0.0984 -0.19614,-0.0497 -0.35772,-0.11783 -0.48613,-0.20673 -0.22648,-0.15769 -0.375,-0.40569 -0.44943,-0.74401 -0.0723,-0.32878 -0.10831,-0.68474 -0.10831,-1.07209 h 1.11795 c 0,0.29422 0.0148,0.51612 0.0466,0.66428 0.03,0.14958 0.0847,0.25894 0.16439,0.3302 0.0808,0.0709 0.17922,0.11501 0.29845,0.13441 0.12489,0.0201 0.2727,0.0296 0.4438,0.0296 h 0.54081 c 0.39863,0 0.66851,-0.0434 0.80644,-0.12946 0.1577,-0.11924 0.23707,-0.36583 0.23707,-0.74154 0,-0.3616 -0.06,-0.60643 -0.18062,-0.73801 -0.10583,-0.11501 -0.36583,-0.17286 -0.7807,-0.17286 h -0.75635 v -0.90452 c 0.32914,0 0.5588,0.006 0.69038,0.0166 0.31503,-0.0208 0.50694,-0.0399 0.57503,-0.0579 0.23566,-0.0917 0.35348,-0.39828 0.35348,-0.9204 0,-0.22754 -0.0356,-0.39123 -0.10689,-0.49247 -0.12982,-0.13159 -0.50553,-0.1972 -1.12465,-0.1972 -0.24624,0 -0.43956,0.01 -0.57785,0.0282 -0.14817,0.0208 -0.26141,0.0607 -0.34396,0.11924 -0.0822,0.0607 -0.14076,0.16051 -0.17392,0.30303 -0.0328,0.13512 -0.048,0.33973 -0.048,0.60925 h -1.12571 c 0,-0.57256 0.0755,-1.00683 0.2279,-1.3021 0.0709,-0.14252 0.16827,-0.26317 0.28998,-0.36583 0.21343,-0.1778 0.52317,-0.2861 0.92886,-0.32597 0.20249,-0.0194 0.4378,-0.0289 0.70661,-0.0289 0.7807,0 1.33244,0.0593 1.65418,0.17851 0.14075,0.0515 0.26282,0.12206 0.36688,0.20955 0.17392,0.14323 0.29316,0.33408 0.35631,0.56973 0.0737,0.27905 0.10689,0.59408 0.0956,0.94192 -0.0208,0.6985 -0.34113,1.08232 -0.96167,1.15076 l -0.0148,0.0317 c 0.26247,0.0226 0.46955,0.0808 0.61878,0.17215 0.15875,0.0998 0.27269,0.23425 0.34113,0.40393 0.0787,0.19227 0.11712,0.43498 0.11712,0.72355 l 0,0 z"
     id="path85"
     style="fill:#1b8f3a" /><polygon
     points="48.148,265.87 48.148,280.219 67.43,280.219 67.43,288.789 48.148,288.789 48.148,311.083 39.835,311.083 39.835,257 68.584,257 68.584,265.87 68.584,265.87 "
     transform="matrix(0.35277724,0,0,0.35277724,64.00009,-1.3962172e-5)"
     id="polygon87"
     style="fill:#ffd600" /><path
     d="m 102.43341,104.58327 c 0,1.91629 -0.37359,3.27272 -1.1236,4.06576 -0.6043,0.64417 -1.60901,1.02588 -3.01412,1.14512 -0.56656,0.0504 -1.14688,0.0847 -1.74413,0.10548 l -1.20862,0.0469 c -2.10784,0 -3.57399,-0.51753 -4.39878,-1.55152 -0.69603,-0.87383 -1.08937,-2.31104 -1.17757,-4.30353 -0.0409,-0.88617 -0.061,-2.13254 -0.061,-3.7352 0,-3.014494 0.11536,-5.015794 0.3429,-6.003574 0.16263,-0.71261 0.42086,-1.34831 0.77717,-1.90782 0.33584,-0.52987 0.80433,-0.94121 1.40194,-1.23401 0.95002,-0.47061 2.26729,-0.70379 3.95039,-0.70379 1.69369,0 2.90901,0.127 3.64525,0.37712 1.03858,0.3563 1.7279,1.14476 2.0708,2.36149 0.25118,0.90346 0.37677,2.17946 0.37677,3.82869 h -2.8956 v -1.19592 c 0,-0.76341 -0.14957,-1.32679 -0.44802,-1.6831 -0.31574,-0.36865 -1.16417,-0.55562 -2.54564,-0.55562 h -0.42757 c -1.37442,0 -2.274,0.25859 -2.70157,0.77611 -0.42439,0.52141 -0.63817,1.58573 -0.63817,3.19263 v 4.986164 c 0,1.88665 0.25118,3.05646 0.75671,3.51048 0.33267,0.30128 0.68932,0.48366 1.06256,0.55139 0.40393,0.0766 0.96732,0.11042 1.68663,0.11042 0.86889,0 1.44921,-0.0131 1.74836,-0.0469 0.5327,-0.12664 0.9264,-0.35136 1.18428,-0.66569 0.21378,-0.25823 0.3496,-0.67803 0.40745,-1.24636 0.0339,-0.33478 0.061,-0.96273 0.078,-1.88242 h 2.89524 v 1.6577 l 0,0 z"
     id="path89"
     style="fill:#ffd600" /><polygon
     points="141.388,265.87 141.86,288.296 142.081,311.083 133.711,311.083 133.711,257 147.508,257 166.096,302.212 166.327,302.212 165.634,257 174.004,257 174.004,311.083 174.004,311.083 160.092,311.083 141.726,265.87 "
     transform="matrix(0.35277724,0,0,0.35277724,64.00009,-1.3962172e-5)"
     id="polygon91"
     style="fill:#ffd600" /><path
     d="m 141.20857,109.74299 h -2.99014 l -0.97755,-3.59127 h -6.61528 l -0.98107,3.59127 h -3.03424 l 5.09128,-19.079254 h 4.29718 l 5.20982,19.079254 0,0 z m -4.66019,-6.36022 -2.62713,-9.950794 -0.0169,0.004 -2.6303,9.946204 h 5.27437 l 0,3.5e-4 z"
     id="path93"
     style="fill:#ffd600" /><polygon
     points="230.579,265.87 231.051,288.296 231.271,311.083 222.901,311.083 222.901,257 236.698,257 255.287,302.212 255.518,302.212 254.825,257 263.195,257 263.195,311.083 263.195,311.083 249.283,311.083 230.916,265.87 "
     transform="matrix(0.35277724,0,0,0.35277724,64.00009,-1.3962172e-5)"
     id="polygon95"
     style="fill:#ffd600" /><polygon
     points="300.131,265.87 287.374,265.87 287.374,311.083 279.061,311.083 279.061,265.87 266.418,265.87 266.418,257 300.131,257 300.131,265.87 "
     transform="matrix(0.35277724,0,0,0.35277724,64.00009,-1.3962172e-5)"
     id="polygon97"
     style="fill:#ffd600" /><polygon
     points="311.726,279.426 332.055,279.426 332.055,287.863 311.726,287.863 311.726,302.212 333.267,302.212 333.267,311.083 333.267,311.083 303.412,311.083 303.412,257 333.152,257 333.152,265.87 311.726,265.87 "
     transform="matrix(0.35277724,0,0,0.35277724,64.00009,-1.3962172e-5)"
     id="polygon99"
     style="fill:#ffd600" /><path
     d="m 195.37716,104.22273 c 0.0134,1.01777 -0.10548,1.95898 -0.35666,2.8194 -0.24447,0.81844 -0.59407,1.44145 -1.05233,1.86513 -0.71261,0.66146 -2.17558,0.99237 -4.37832,0.99237 h -1.09925 c -1.01847,0 -1.77553,-0.0462 -2.27118,-0.14394 -0.87913,-0.16933 -1.56492,-0.52175 -2.06375,-1.05551 -0.64841,-0.69532 -1.01882,-1.66687 -1.10314,-2.91323 -0.0409,-0.53411 -0.0614,-1.23331 -0.0614,-2.09797 h 2.91218 c 0,0.22049 -0.01,0.39829 -0.037,0.53411 0.0205,0.53798 0.0476,0.90734 0.0783,1.11054 0.0677,0.43674 0.19685,0.76341 0.39017,0.9839 0.19721,0.22048 0.45473,0.36441 0.7807,0.44097 0.37006,0.0889 0.82832,0.14393 1.37477,0.16122 0.32562,0.0123 0.53587,0.0289 0.63077,0.0543 0.72002,-0.042 1.16804,-0.0716 1.34443,-0.0931 0.59055,-0.0808 1.01812,-0.22048 1.28305,-0.41945 0.45121,-0.33902 0.67557,-1.1363 0.67557,-2.39148 0,-0.89429 -0.14252,-1.52188 -0.42792,-1.88665 -0.0847,-0.1143 -0.22048,-0.21237 -0.40393,-0.30127 -0.24765,-0.1143 -0.61771,-0.19085 -1.11301,-0.2286 -0.18027,-0.0131 -0.46178,-0.0296 -0.84878,-0.055 l -1.5374,-0.0889 c -1.10667,-0.0642 -1.99531,-0.2293 -2.66418,-0.496 -0.41098,-0.16122 -0.76729,-0.3817 -1.06927,-0.65722 -0.82832,-0.771884 -1.25588,-2.162184 -1.2834,-4.172304 -0.0268,-2.14947 0.36019,-3.64172 1.15782,-4.4771 0.76341,-0.80115 2.28423,-1.19944 4.56493,-1.19944 1.45944,0 2.42676,0.0335 2.90865,0.10583 0.91299,0.13124 1.62913,0.46602 2.14171,0.99625 0.51611,0.5341 0.85901,1.24248 1.0287,2.1283 0.11501,0.57679 0.16933,1.42487 0.16933,2.54811 h -2.9531 v -0.76305 c 0,-0.70803 -0.10195,-1.19557 -0.30197,-1.47567 -0.24412,-0.33902 -0.85866,-0.50871 -1.83621,-0.50871 h -1.20156 c -1.15711,0 -1.91064,0.16969 -2.25671,0.50871 -0.18662,0.18238 -0.31574,0.4071 -0.3937,0.67839 -0.0882,0.32244 -0.12877,0.74224 -0.11889,1.25518 0.0134,0.57256 0.0575,1.02623 0.13582,1.36948 0.10195,0.48366 0.49918,0.80574 1.19803,0.97084 0.29175,0.0723 0.63818,0.12277 1.03858,0.15699 l 1.13347,0.0974 c 1.28341,0.10195 2.13183,0.19085 2.54952,0.26705 1.1303,0.19932 1.90747,0.52564 2.33151,0.97931 0.41416,0.449444 0.69567,1.102074 0.84208,1.959324 0.061,0.38982 0.0981,0.72496 0.11183,1.01283 0.0138,0.24976 0.0307,0.72883 0.0512,1.42874 l 0,0 z"
     id="path101"
     style="fill:#ffd600" /></svg>