<?xml version="1.0" encoding="UTF-8" standalone="no"?>
<svg
   xmlns:dc="http://purl.org/dc/elements/1.1/"
   xmlns:cc="http://creativecommons.org/ns#"
   xmlns:rdf="http://www.w3.org/1999/02/22-rdf-syntax-ns#"
   xmlns:svg="http://www.w3.org/2000/svg"
   xmlns="http://www.w3.org/2000/svg"
   id="svg2"
   xml:space="preserve"
   enable-background="new -0.3779297 -0.3779297 501 501"
   viewBox="-0.3779297 -0.3779297 280 200"
   height="200"
   width="280"
   version="1.1"><metadata
     id="metadata94"><rdf:RDF><cc:Work
         rdf:about=""><dc:format>image/svg+xml</dc:format><dc:type
           rdf:resource="http://purl.org/dc/dcmitype/StillImage" /><dc:title></dc:title></cc:Work></rdf:RDF></metadata><defs
     id="defs4" /><polygon
     transform="matrix(0.4,0,0,0.4,37.62207,-0.37792969)"
     style="clip-rule:evenodd;opacity:0;fill:#ffffff;fill-rule:evenodd"
     id="polygon6"
     points="0,0 0,0 500,0 500,500 0,500 " /><path
     style="clip-rule:evenodd;opacity:0;fill:#ffffff;fill-rule:evenodd"
     id="path8"
     d="m 65.72891,8.7445303 c 0,0.59473 0,181.1603497 0,181.7552797 0.59492,0 143.1916,0 143.78613,0 0,-0.59493 0,-181.1605497 0,-181.7552797 -0.59453,0 -143.19121,0 -143.78613,0 l 0,0 z" /><polygon
     transform="matrix(0.4,0,0,0.4,37.62207,-0.37792969)"
     style="fill:none;stroke:#7ec4d9;stroke-width:1.03686249;stroke-miterlimit:2.61310005"
     id="polygon10"
     points="430.48242,477.94141 430.48242,477.94141 69.518555,477.94141 69.518555,22.058594 430.48242,22.058594 "
     stroke-miterlimit="2.6131001" /><path
     style="clip-rule:evenodd;fill:#516ea8;fill-rule:evenodd"
     id="path12"
     d="m 78.89844,182.46035 c 0,0 5.65703,1.3457 9.96699,1.3457 15.89297,0 12.39121,-5.64804 23.70469,-5.64804 9.42793,0 15.89297,5.64804 27.20703,5.64804 9.15898,0 13.46836,-5.64804 25.85976,-5.64804 11.3129,0 22.3586,6.45468 22.3586,6.45468 l 1.63242,-2.78554 c -0.48125,-0.28164 -11.94024,-6.89727 -23.99102,-6.89727 -7.25312,0 -11.9707,1.78125 -16.13242,3.35195 -3.26445,1.23204 -6.08359,2.29688 -9.72734,2.29688 -5.38477,0 -9.68965,-1.44805 -13.85215,-2.84922 -4.09355,-1.37617 -8.32559,-2.79961 -13.35488,-2.79961 -6.03496,0 -8.72871,1.53594 -11.10528,2.89063 -2.48769,1.41875 -4.8373,2.7582 -12.59941,2.7582 -3.86973,0 -9.1666,-1.24531 -9.21973,-1.25742 l -0.74726,3.13906 0,0 z" /><path
     style="clip-rule:evenodd;fill:#2363ab;fill-rule:evenodd"
     id="path14"
     d="m 88.5959,124.36582 c 0,0 5.65703,1.34492 9.96679,1.34492 15.89317,0 12.39122,-5.64805 23.70489,-5.64805 9.42851,0 15.89355,5.64805 27.20644,5.64805 9.15899,0 13.46953,-5.64805 25.86055,-5.64805 11.31328,0 22.35898,6.45547 22.35898,6.45547 l 1.63204,-2.78554 c -0.48204,-0.28164 -11.94024,-6.89727 -23.99102,-6.89727 -7.25391,0 -11.9707,1.78047 -16.13203,3.35078 -3.26485,1.2332 -6.08477,2.29727 -9.72852,2.29727 -5.38437,0 -9.68984,-1.44805 -13.85156,-2.84844 -4.09316,-1.37578 -8.32559,-2.79961 -13.35488,-2.79961 -6.03496,0 -8.72871,1.53516 -11.10527,2.89102 -2.4877,1.41758 -4.8375,2.75703 -12.59962,2.75703 -3.86914,0 -9.1664,-1.24453 -9.21953,-1.25742 l -0.74726,3.13984 0,0 z" /><path
     style="clip-rule:evenodd;fill:#99aed1;fill-rule:evenodd"
     id="path16"
     d="m 90.75059,115.75918 c 0,0 5.65703,1.34453 9.96699,1.34453 15.89355,0 12.39121,-5.64766 23.70527,-5.64766 9.42793,0 15.89336,5.64766 27.20664,5.64766 9.15899,0 13.46914,-5.64766 25.86055,-5.64766 11.31211,0 22.35742,6.45547 22.35742,6.45547 l 1.63359,-2.78554 c -0.48242,-0.28165 -11.94023,-6.89727 -23.99101,-6.89727 -7.25391,0 -11.97188,1.78047 -16.13242,3.35078 -3.26563,1.2332 -6.08438,2.29727 -9.72813,2.29727 -5.38437,0 -9.68984,-1.44805 -13.85234,-2.84844 -4.09316,-1.37617 -8.325,-2.79961 -13.3543,-2.79961 -6.03516,0 -8.7289,1.53516 -11.10586,2.89102 -2.48711,1.41758 -4.83691,2.75703 -12.59941,2.75703 -3.86914,0 -9.16602,-1.24453 -9.21934,-1.25743 l -0.74765,3.13985 0,0 z" /><polygon
     transform="matrix(0.4,0,0,0.4,37.62207,-0.37792969)"
     style="clip-rule:evenodd;fill-rule:evenodd"
     id="polygon18"
     points="172.15479,348.61328 176.95264,322.69434 209.1543,322.69434 194.63379,401.15332 162.43115,401.15332 167.36182,374.5127 148.57715,374.5127 143.64795,401.15332 111.44775,401.15332 125.96631,322.69434 125.96631,322.69434 158.16943,322.69434 153.36865,348.61328 " /><path
     style="clip-rule:evenodd;fill-rule:evenodd"
     id="path20"
     d="m 139.41269,128.69981 14.9961,0 7.08594,31.38359 -14.4129,0 -0.37187,-3.81602 -9.29512,0 -1.72969,3.81602 -14.48808,0 18.21562,-31.38359 0,0 z m 1.45782,19.95117 5.09687,0 -0.90078,-9.25117 -4.19609,9.25117 0,0 z" /><path
     style="clip-rule:evenodd;fill-rule:evenodd"
     id="path22"
     d="m 187.13223,128.10801 c -8.88438,0 -21.82461,6.54882 -21.82461,19.5875 0,7.20508 5.90312,12.91992 15.92109,12.91992 8.11016,0 9.52188,-1.61016 9.52188,-1.61016 l 2.15937,-11.66758 c 0,0 -3.92851,2.97774 -8.04336,2.97774 -3.69648,0 -5.90351,-2.91602 -5.90351,-4.88164 0,-3.51289 3.99531,-6.90664 7.93203,-6.90664 3.51797,0 7.08359,3.03281 7.08359,3.03281 l 2.20078,-11.8957 c 0,0 -3.20273,-1.55625 -9.04726,-1.55625 l 0,0 z" /><polygon
     transform="matrix(0.4,0,0,0.4,37.62207,-0.37792969)"
     style="clip-rule:evenodd;fill-rule:evenodd"
     id="polygon24"
     points="127.63818,419.09863 128.9707,410.50391 131.43408,410.50391 128.15527,431.6582 125.69141,431.6582 127.32666,421.10938 114.90039,421.10938 113.26367,431.6582 110.8042,431.6582 114.0835,410.50391 114.0835,410.50391 116.54443,410.50391 115.21191,419.09863 " /><path
     style="clip-rule:evenodd;fill-rule:evenodd"
     id="path26"
     d="m 95.85488,172.28027 -0.66582,0 0.10195,-0.76601 c -0.58867,0.59883 -1.26718,0.89961 -2.03222,0.89961 -0.69648,0 -1.26953,-0.225 -1.71797,-0.67383 -0.44824,-0.45 -0.67266,-1.02852 -0.67266,-1.73555 0,-0.81562 0.29219,-1.51797 0.87637,-2.10468 0.58516,-0.58477 1.27266,-0.87735 2.06406,-0.87735 0.42813,0 0.80391,0.0879 1.12774,0.26719 0.32226,0.17968 0.5918,0.4582 0.80664,0.83828 l 0.1291,-0.97305 0.67637,0 -0.69356,5.12539 0,0 z m -2.5291,-0.4582 c 0.42344,0 0.80859,-0.10039 1.15605,-0.30078 0.34805,-0.20078 0.62325,-0.49063 0.82735,-0.86641 0.20371,-0.375 0.30605,-0.78515 0.30605,-1.22695 0,-0.53008 -0.16777,-0.96172 -0.50371,-1.29414 -0.33535,-0.33242 -0.77109,-0.49844 -1.30644,-0.49844 -0.63027,0 -1.16836,0.22891 -1.61719,0.68477 -0.44746,0.45703 -0.67188,1.01757 -0.67188,1.68203 0,0.54531 0.16876,0.98516 0.50372,1.31953 0.33476,0.33242 0.7705,0.50039 1.30605,0.50039 l 0,0 z" /><polygon
     transform="matrix(0.4,0,0,0.4,37.62207,-0.37792969)"
     style="clip-rule:evenodd;fill-rule:evenodd"
     id="polygon28"
     points="156.06787,431.64551 155.7627,431.64551 151.34619,418.83203 151.34619,418.83203 153.02686,418.83203 156.24658,428.16504 161.64209,418.83203 163.47607,418.83203 " /><path
     style="clip-rule:evenodd;fill-rule:evenodd"
     id="path30"
     d="m 104.58769,167.15488 0.6545,0 -0.0891,0.64453 c 0.17675,-0.24531 0.39062,-0.43554 0.64082,-0.57343 0.25136,-0.13594 0.50722,-0.20352 0.77011,-0.20352 0.18633,0 0.38145,0.0434 0.58301,0.13047 l -0.31055,0.6039 c -0.16465,-0.0668 -0.30137,-0.098 -0.41191,-0.098 -0.23047,0 -0.45781,0.0789 -0.68379,0.23906 -0.22598,0.16094 -0.40937,0.39414 -0.54981,0.70117 -0.14023,0.30586 -0.25878,0.8086 -0.35468,1.50977 l -0.29883,2.17148 -0.64336,0 0.69355,-5.12539 0,0 z" /><path
     style="clip-rule:evenodd;fill-rule:evenodd"
     id="path32"
     d="m 113.08379,169.84629 -4.57383,0 c -0.009,0.61523 0.14903,1.09726 0.47578,1.44883 0.32676,0.35156 0.76094,0.52695 1.30449,0.52695 0.36036,0 0.69414,-0.075 1.00176,-0.22578 0.30742,-0.15117 0.56172,-0.36094 0.76289,-0.63438 l 0.49199,0.39102 c -0.24824,0.32109 -0.57246,0.57852 -0.97285,0.77109 -0.40019,0.19375 -0.83222,0.28985 -1.29687,0.28985 -0.80352,0 -1.40742,-0.25039 -1.81016,-0.74688 -0.4039,-0.49844 -0.60547,-1.05859 -0.60547,-1.68086 0,-0.50859 0.13672,-0.99922 0.40781,-1.47031 0.27266,-0.47109 0.63575,-0.83789 1.0918,-1.10156 0.45488,-0.26133 0.94786,-0.3918 1.47988,-0.3918 0.65567,0 1.19962,0.2207 1.62989,0.66563 0.43105,0.44374 0.64531,1.00898 0.64531,1.69609 0,0.12578 -0.01,0.28086 -0.0324,0.46211 l 0,0 z m -0.60391,-0.56953 c -0.0192,-0.48125 -0.18476,-0.87149 -0.49531,-1.17031 -0.31113,-0.29883 -0.70176,-0.44766 -1.17442,-0.44766 -0.51132,0 -0.96425,0.14258 -1.35527,0.43164 -0.39121,0.2875 -0.66836,0.68281 -0.83144,1.18633 l 3.85644,0 0,0 z" /><path
     style="clip-rule:evenodd;fill-rule:evenodd"
     id="path34"
     d="m 123.41055,163.82363 3.20351,8.46172 -1.00683,0 -1.04708,-2.76953 -3.9625,0 -1.79687,2.76953 -1.09844,0 5.48887,-8.46172 0.21934,0 0,0 z m -0.30957,1.83477 -1.98243,3.05508 3.1375,0 -1.15507,-3.05508 0,0 z" /><polygon
     transform="matrix(0.4,0,0,0.4,37.62207,-0.37792969)"
     style="clip-rule:evenodd;fill-rule:evenodd"
     id="polygon36"
     points="231.02393,418.83203 230.83398,420.25586 228.27295,420.25586 226.74951,431.64551 225.09668,431.64551 226.64062,420.25586 224.4292,420.25586 224.62891,418.83203 226.83057,418.83203 227.48145,414.03418 227.48145,414.03418 229.10645,414.03418 228.46191,418.83203 " /><path
     style="clip-rule:evenodd;fill-rule:evenodd"
     id="path38"
     d="m 134.56094,167.50762 c -0.33067,-0.32422 -0.75586,-0.48516 -1.27774,-0.48516 -0.68183,0 -1.28887,0.30586 -1.81875,0.91875 l 0.37383,-2.76094 -0.002,0 0.29903,-2.20273 -0.64297,0 -1.26094,9.30273 0.002,0 0.64043,0 0.002,0 0.30039,-2.21914 c 0.09,-0.66289 0.21621,-1.14687 0.37832,-1.45195 0.16328,-0.30508 0.39375,-0.54727 0.69121,-0.72656 0.29941,-0.1793 0.61543,-0.26875 0.95039,-0.26875 0.36015,0 0.64941,0.10742 0.87129,0.32656 0.2209,0.2168 0.33086,0.50156 0.33086,0.8539 0.009,0.28086 -0.0201,0.65782 -0.084,1.13204 l -0.31875,2.3539 0.64297,0 0.31914,-2.3539 c 0.0649,-0.48438 0.0973,-0.87032 0.0973,-1.15625 0,-0.51875 -0.16465,-0.93907 -0.49453,-1.2625 l 0,0 z" /><polygon
     transform="matrix(0.4,0,0,0.4,37.62207,-0.37792969)"
     style="clip-rule:evenodd;fill-rule:evenodd"
     id="polygon40"
     points="253.21484,408.38867 253.21484,408.38867 251.6084,408.38867 248.45361,431.64551 250.06104,431.64551 " /><path
     style="clip-rule:evenodd;fill-rule:evenodd"
     id="path42"
     d="m 145.28926,169.84629 -4.57266,0 c -0.009,0.61523 0.15,1.09726 0.47617,1.44883 0.32618,0.35156 0.76094,0.52695 1.30313,0.52695 0.36289,0 0.69609,-0.075 1.00312,-0.22578 0.30703,-0.15117 0.56133,-0.36094 0.76211,-0.63438 l 0.49219,0.39102 c -0.24727,0.32109 -0.57227,0.57852 -0.97266,0.77109 -0.40039,0.19375 -0.83281,0.28985 -1.29687,0.28985 -0.80352,0 -1.40742,-0.25039 -1.80977,-0.74688 -0.40312,-0.49844 -0.60586,-1.05859 -0.60586,-1.68086 0,-0.50859 0.13555,-0.99922 0.40821,-1.47031 0.27148,-0.47109 0.63554,-0.83789 1.0914,-1.10156 0.45508,-0.26133 0.94844,-0.3918 1.4793,-0.3918 0.65664,0 1.20078,0.2207 1.63047,0.66563 0.43164,0.44374 0.64531,1.00898 0.64531,1.69609 0,0.12578 -0.0102,0.28086 -0.0336,0.46211 l 0,0 z m -0.60391,-0.56953 c -0.0172,-0.48125 -0.1832,-0.87149 -0.49414,-1.17031 -0.31211,-0.29883 -0.70234,-0.44766 -1.17461,-0.44766 -0.51172,0 -0.9625,0.14258 -1.35351,0.43164 -0.39219,0.2875 -0.66876,0.68281 -0.83321,1.18633 l 3.85547,0 0,0 z" /><polygon
     transform="matrix(0.4,0,0,0.4,37.62207,-0.37792969)"
     style="clip-rule:evenodd;fill-rule:evenodd"
     id="polygon44"
     points="278.04492,418.83203 277.85449,420.25586 275.29395,420.25586 273.76855,431.64551 272.11914,431.64551 273.66211,420.25586 271.44824,420.25586 271.64551,418.83203 273.85254,418.83203 274.50293,414.03418 274.50293,414.03418 276.12402,414.03418 275.4834,418.83203 " /><path
     style="clip-rule:evenodd;fill-rule:evenodd"
     id="path46"
     d="m 150.11348,167.15488 0.62031,0 -0.6707,5.12539 -0.64376,0 0.69415,-5.12539 0,0 z m 0.51797,-2.10937 c 0.14687,0 0.27148,0.0516 0.37578,0.15703 0.10351,0.10312 0.15625,0.22812 0.15625,0.37265 0,0.14805 -0.0527,0.27462 -0.15625,0.37696 -0.1043,0.10351 -0.22891,0.1543 -0.37578,0.1543 -0.14805,0 -0.27383,-0.0508 -0.37618,-0.1543 -0.10234,-0.10234 -0.15468,-0.22891 -0.15468,-0.37696 0,-0.14453 0.0523,-0.26953 0.15468,-0.37265 0.10235,-0.10547 0.22813,-0.15703 0.37618,-0.15703 l 0,0 z" /><path
     style="clip-rule:evenodd;fill-rule:evenodd"
     id="path48"
     d="m 157.64707,168.26855 -0.5418,0.31641 c -0.38008,-0.61719 -0.96172,-0.92617 -1.74414,-0.92617 -0.45195,0 -0.86523,0.1 -1.23906,0.30195 -0.37383,0.20157 -0.6668,0.48203 -0.87734,0.83985 -0.20977,0.36054 -0.31524,0.74492 -0.31524,1.15507 0,0.36172 0.0789,0.68594 0.23516,0.97266 0.15781,0.28789 0.37773,0.50664 0.6625,0.66172 0.28281,0.15508 0.61718,0.23203 1.0043,0.23203 0.39492,0 0.77187,-0.0789 1.13164,-0.23711 0.35859,-0.15898 0.64062,-0.36172 0.84023,-0.61211 l 0.54297,0.38203 c -0.33946,0.36797 -0.7082,0.63555 -1.10547,0.80469 -0.39727,0.17031 -0.8582,0.2543 -1.3832,0.2543 -0.80938,0 -1.44297,-0.22071 -1.89571,-0.6625 -0.4539,-0.44102 -0.68086,-1.02969 -0.68086,-1.76524 0,-0.8168 0.29883,-1.51484 0.89376,-2.09531 0.5957,-0.57851 1.32617,-0.86836 2.1914,-0.86836 0.51797,0 0.975,0.10937 1.37227,0.3293 0.39492,0.21875 0.69883,0.52578 0.90859,0.91679 l 0,0 z" /><path
     style="clip-rule:evenodd;fill-rule:evenodd"
     id="path50"
     d="m 171.92519,164.99082 -0.51367,0.7082 c -0.89297,-0.84804 -1.91015,-1.27265 -3.05,-1.27265 -0.7457,0 -1.44179,0.18125 -2.08828,0.54492 -0.64648,0.36484 -1.15234,0.8543 -1.51679,1.47148 -0.36602,0.61719 -0.54649,1.27852 -0.54649,1.98711 0,0.63321 0.13985,1.19336 0.41953,1.68281 0.28086,0.49141 0.68711,0.8754 1.21719,1.15313 0.52969,0.27851 1.13672,0.41641 1.81953,0.41641 1.0418,0 2.0125,-0.33438 2.91328,-1.00391 l 0.47305,0.67266 c -0.67071,0.44687 -1.24609,0.74765 -1.72735,0.9039 -0.48242,0.15274 -1.03984,0.23086 -1.67109,0.23086 -1.16719,0 -2.11875,-0.29258 -2.85312,-0.87734 -0.97579,-0.78321 -1.46329,-1.83008 -1.46329,-3.13828 0,-1.35039 0.4875,-2.49571 1.46329,-3.43672 0.97578,-0.94063 2.18945,-1.41055 3.63867,-1.41055 0.6625,0 1.26445,0.10234 1.80859,0.31016 0.54297,0.20742 1.10117,0.55937 1.67695,1.05781 l 0,0 z" /><polygon
     transform="matrix(0.4,0,0,0.4,37.62207,-0.37792969)"
     style="clip-rule:evenodd;fill-rule:evenodd"
     id="polygon52"
     points="342.66016,408.38867 342.66016,408.38867 341.05176,408.38867 337.89844,431.64551 339.50684,431.64551 " /><path
     style="clip-rule:evenodd;fill-rule:evenodd"
     id="path54"
     d="m 176.19902,167.15488 0.6668,0 -0.30703,2.14414 c -0.0902,0.63243 -0.13477,1.03243 -0.13477,1.20079 0,0.38202 0.11953,0.69531 0.35977,0.9371 0.23906,0.24141 0.55508,0.3629 0.94726,0.3629 0.32735,0 0.61211,-0.0941 0.85313,-0.28282 0.24023,-0.18828 0.4125,-0.43437 0.5168,-0.73945 0.0516,-0.15391 0.1125,-0.50664 0.18359,-1.06094 l 0.34726,-2.56172 0.64844,0 -0.24922,1.94141 c -0.12031,0.92852 -0.24609,1.58711 -0.3789,1.97695 -0.13282,0.39219 -0.36992,0.7125 -0.71133,0.96485 -0.34141,0.25 -0.75664,0.37578 -1.24609,0.37578 -0.5586,0 -1.01446,-0.18125 -1.3711,-0.54414 -0.35664,-0.36368 -0.53398,-0.81758 -0.53398,-1.35977 0,-0.21797 0.0203,-0.47031 0.059,-0.75898 l 0.0496,-0.45196 0.0274,-0.19257 0.27344,-1.95157 0,0 z" /><path
     style="clip-rule:evenodd;fill-rule:evenodd"
     id="path56"
     d="m 186.88691,167.69512 c -0.4457,-0.44883 -1.0164,-0.67266 -1.71132,-0.67266 -0.76016,0 -1.43672,0.30195 -2.0336,0.90664 l 0.66875,-4.95156 c 0,0 -0.64336,0 -0.64453,0.006 l -0.0336,0 -1.2582,9.29687 0.6414,0 0.0332,0 0.009,0 0.13164,-0.9789 c 0.22188,0.38008 0.49453,0.66054 0.81758,0.84101 0.32226,0.18125 0.69726,0.27149 1.12383,0.27149 0.78711,0 1.47109,-0.29375 2.05195,-0.87969 0.58047,-0.58555 0.87109,-1.28672 0.87109,-2.1043 0,-0.70742 -0.22265,-1.28476 -0.66757,-1.73476 l 0,0 z m -0.65351,3.41992 c -0.44805,0.45664 -0.98711,0.68477 -1.61602,0.68477 -0.5332,0 -0.96875,-0.16719 -1.30429,-0.49962 -0.28555,-0.28164 -0.44258,-0.6414 -0.48711,-1.06484 l 0,-0.001 c -0.006,-0.0758 -0.0184,-0.14883 -0.0184,-0.22969 0,-0.0973 0.007,-0.19453 0.0152,-0.28984 0.004,-0.0324 0.009,-0.066 0.0152,-0.0973 0.009,-0.0629 0.0192,-0.1246 0.0332,-0.18554 0.008,-0.0375 0.0172,-0.0738 0.0274,-0.11055 0.0152,-0.0605 0.0356,-0.11836 0.0559,-0.17813 0.0121,-0.0316 0.0203,-0.0629 0.0324,-0.0933 0.0363,-0.0922 0.0781,-0.18243 0.12578,-0.27149 0.20352,-0.375 0.48008,-0.66289 0.82969,-0.86328 0.34961,-0.20156 0.73477,-0.30117 1.1543,-0.30117 0.53789,0 0.97461,0.16641 1.30898,0.50078 0.33321,0.3332 0.50039,0.77305 0.50039,1.31719 0,0.66484 -0.22382,1.22617 -0.67265,1.6832 l 0,0 z" /><path
     style="clip-rule:evenodd;fill:#6ca0c8;fill-rule:evenodd"
     id="path58"
     d="m 203.63613,105.44316 c -0.48242,-0.28164 -11.94023,-6.89726 -23.99101,-6.89726 -6.99063,0 -12.90703,1.95351 -18.12617,3.67617 -4.53946,1.49883 -8.82774,2.91328 -13.37618,2.91524 -1.7539,0.0527 -6.90429,0.2207 -9.63125,-2.42266 -1.32363,-1.28203 -2.50566,-2.01641 -2.50566,-5.78223 0,-10.22031 14.41152,-18.15469 14.41152,-18.15469 0,0 -17.10527,7.12774 -17.10527,18.15469 0,11.96895 14.93691,11.43106 14.93691,11.43106 10.38399,0 19.00391,-6.58946 31.3961,-6.58946 11.31211,0 22.35781,6.45469 22.35781,6.45469 l 1.6332,-2.78555 0,0 z" /><path
     style="clip-rule:evenodd;fill:#6ca0c8;fill-rule:evenodd"
     id="path60"
     d="m 115.47207,101.43691 c -1.08008,1.08008 -4.8373,2.75704 -12.59942,2.75704 -3.86914,0 -9.1664,-1.24414 -9.21914,-1.25664 l -0.74785,3.13906 c 0,0 7.81192,1.3457 9.96699,1.3457 6.86895,0 27.74571,-2.4207 29.09278,-33.88906 0,-4.30274 -1.07754,-8.87559 -1.07754,-8.87559 0,0 1.88516,29.45098 -15.41582,36.77949 l 0,0 z" /><path
     style="clip-rule:evenodd;fill:#6ca0c8;fill-rule:evenodd"
     id="path62"
     d="m 129.54082,102.98418 c 0,1.55937 -1.2666,2.82383 -2.82851,2.82383 -1.56192,0 -2.82813,-1.26446 -2.82813,-2.82383 0,-1.55937 1.26621,-2.82422 2.82813,-2.82422 1.56191,0 2.82851,1.26485 2.82851,2.82422 l 0,0 z" /><path
     style="clip-rule:evenodd;fill:#6ca0c8;fill-rule:evenodd"
     id="path64"
     d="m 148.53183,100.83183 c 0,1.70938 -1.3871,3.09336 -3.09843,3.09336 -1.71055,0 -3.09766,-1.38398 -3.09766,-3.09336 0,-1.70781 1.38711,-3.09238 3.09766,-3.09238 1.71133,0 3.09843,1.38457 3.09843,3.09238 l 0,0 z" /><path
     style="clip-rule:evenodd;fill:#6ca0c8;fill-rule:evenodd"
     id="path66"
     d="m 122.80664,78.37441 c 0,0.89122 -0.72344,1.61368 -1.61621,1.61368 -0.89316,0 -1.61602,-0.72246 -1.61602,-1.61368 0,-0.89121 0.72286,-1.61367 1.61602,-1.61367 0.89277,0 1.61621,0.72246 1.61621,1.61367 l 0,0 z" /><path
     style="clip-rule:evenodd;fill:#6ca0c8;fill-rule:evenodd"
     id="path68"
     d="m 146.37676,89.6707 c 0,1.03965 -0.84531,1.88281 -1.88594,1.88281 -1.04063,0 -1.88555,-0.84316 -1.88555,-1.88281 0,-1.03945 0.84492,-1.88261 1.88555,-1.88261 1.04063,0 1.88594,0.84316 1.88594,1.88261 l 0,0 z" /><path
     style="clip-rule:evenodd;fill:#6ca0c8;fill-rule:evenodd"
     id="path70"
     d="m 153.91933,84.7625 c 0,0.70527 -0.57343,1.27734 -1.27968,1.27734 -0.70625,0 -1.27969,-0.57207 -1.27969,-1.27734 0,-0.70567 0.57344,-1.27773 1.27969,-1.27773 0.70625,0 1.27968,0.57206 1.27968,1.27773 l 0,0 z" /><path
     style="clip-rule:evenodd;fill:#6ca0c8;fill-rule:evenodd"
     id="path72"
     d="m 144.45762,75.13047 c 0,0.80762 -0.65547,1.46211 -1.46524,1.46211 -0.80859,0 -1.46406,-0.65449 -1.46406,-1.46211 0,-0.80801 0.65547,-1.4627 1.46406,-1.4627 0.80977,0 1.46524,0.65469 1.46524,1.4627 l 0,0 z" /><path
     style="clip-rule:evenodd;fill:#6ca0c8;fill-rule:evenodd"
     id="path74"
     d="m 163.75098,77.02988 c 0,1.11407 -0.90352,2.01739 -2.01915,2.01739 -1.11679,0 -2.0207,-0.90332 -2.0207,-2.01739 0,-1.11406 0.90391,-2.01757 2.0207,-2.01757 1.11563,0 2.01915,0.90351 2.01915,2.01757 l 0,0 z" /><path
     style="clip-rule:evenodd;fill:#6ca0c8;fill-rule:evenodd"
     id="path76"
     d="m 126.98183,57.53008 c 0,1.04004 -0.84452,1.88261 -1.88574,1.88261 -1.04121,0 -1.88574,-0.84257 -1.88574,-1.88261 0,-1.03907 0.84453,-1.88262 1.88574,-1.88262 1.04122,0 1.88574,0.84355 1.88574,1.88262 l 0,0 z" /><path
     style="clip-rule:evenodd;fill:#6ca0c8;fill-rule:evenodd"
     id="path78"
     d="m 122.53711,50.13418 c 0,0.74277 -0.60293,1.34473 -1.34668,1.34473 -0.74414,0 -1.34707,-0.60196 -1.34707,-1.34473 0,-0.74317 0.60293,-1.34512 1.34707,-1.34512 0.74375,0 1.34668,0.60195 1.34668,1.34512 l 0,0 z" /><path
     style="clip-rule:evenodd;fill:#6ca0c8;fill-rule:evenodd"
     id="path80"
     d="m 117.68809,43.81348 c 0,0.66835 -0.54258,1.21035 -1.21172,1.21035 -0.66934,0 -1.2125,-0.542 -1.2125,-1.21035 0,-0.66817 0.54316,-1.21035 1.2125,-1.21035 0.66914,0 1.21172,0.54218 1.21172,1.21035 l 0,0 z" /><path
     style="clip-rule:evenodd;fill:#6ca0c8;fill-rule:evenodd"
     id="path82"
     d="m 172.10254,78.4418 c 0,0.8541 -0.69414,1.54629 -1.54922,1.54629 -0.85547,0 -1.54961,-0.69219 -1.54961,-1.54629 0,-0.85411 0.69414,-1.54668 1.54961,-1.54668 0.85508,0 1.54922,0.69257 1.54922,1.54668 l 0,0 z" /><path
     style="clip-rule:evenodd;fill:#6ca0c8;fill-rule:evenodd"
     id="path84"
     d="m 177.89316,81.46738 c 0,0.59434 -0.48242,1.07617 -1.07695,1.07617 -0.59492,0 -1.07734,-0.48183 -1.07734,-1.07617 0,-0.59375 0.48242,-1.07558 1.07734,-1.07558 0.59453,0 1.07695,0.48183 1.07695,1.07558 l 0,0 z" /><path
     style="clip-rule:evenodd;fill-rule:evenodd"
     id="path86"
     d="m 128.64453,42.13262 c 0,15.87969 12.93926,28.79883 28.84356,28.79883 15.90507,0 28.84374,-12.91914 28.84374,-28.79883 0,-15.88008 -12.93867,-28.79903 -28.84374,-28.79903 -15.9043,0 -28.84356,12.91895 -28.84356,28.79903 l 0,0 z" /><path
     style="clip-rule:evenodd;fill:#ffffff;fill-rule:evenodd"
     id="path88"
     d="m 129.97851,42.13262 c 0,15.1457 12.34122,27.46699 27.50958,27.46699 15.16953,0 27.51015,-12.32129 27.51015,-27.46699 0,-15.1459 -12.34062,-27.46758 -27.51015,-27.46758 -15.16836,0 -27.50958,12.32168 -27.50958,27.46758 l 0,0 z" /><path
     style="clip-rule:evenodd;fill-rule:evenodd"
     id="path90"
     d="m 181.56621,48.88848 c 0.75391,-3.23887 1.03867,-10.58672 0.0223,-14.04746 0.59101,-1.29083 0.90508,-2.92481 1.01953,-4.07168 -0.80859,-1.88282 -4.44531,-7.66543 -7.00391,-9.817 -1.08711,-0.3623 -2.71758,-0.39629 -4.40351,-0.10898 -2.58477,-2.29805 -7.73438,-4.49434 -11.83672,-4.45684 -0.85117,-1.62539 -2.18594,-2.11074 -3.82813,-2.69629 -2.69336,-0.13437 -10.77539,2.55489 -12.66093,4.84141 -0.22188,0.88555 -0.34453,2.31016 -0.009,3.31426 -2.71172,1.94551 -6.72422,7.34258 -7.29863,10.41953 -1.72715,0.15859 -3.38574,1.11191 -4.54492,2.26914 -1.07715,2.28594 -1.34668,9.95117 -1.07715,11.96875 0.91445,2.21738 2.59589,3.54981 5.02988,5.10117 1.05371,3.35078 4.37871,7.89238 6.93027,9.87129 -0.0965,1.42305 -0.0699,3.18672 0.29571,4.52676 3.09843,1.88261 10.90976,4.16895 13.46953,4.57227 1.3039,-0.9463 2.71132,-2.30918 3.58086,-3.17305 3.45703,0.21133 9.89453,-1.8086 12.50546,-4.18164 0.9211,0.27343 2.15821,0.60527 3.57774,0.49648 1.48164,-1.34511 6.59961,-8.20351 7.8125,-10.62422 -0.34258,-1.59219 -0.80156,-2.81172 -1.58086,-4.2039 l 0,0 z M 159.47402,17.46367 c 3.85743,-0.002 8.85703,2.12871 11.1836,4.33164 0.16406,2.36992 0.98867,5.45039 2.21875,8.66192 -1.5836,0.81211 -5.1461,3.26113 -6.62656,4.44062 -1.49766,-1.12773 -7.01602,-2.95625 -9.43672,-3.02207 -0.66446,-2.48496 -2.47305,-6.88867 -3.76016,-9.35957 2.40547,-1.5209 5.01797,-3.38789 6.42109,-5.05254 l 0,0 z m -15.7664,5.10274 c 2.05312,0.46406 5.55273,0.49394 8.23476,0.15293 1.24961,2.31289 3.13711,6.87656 3.81289,9.36562 -1.69609,0.96914 -5.85156,6.46465 -7.04296,8.70235 l -9.40196,0 c -0.4125,-3.26114 -1.28086,-5.96797 -2.7041,-8.21993 0.41504,-2.69433 4.53574,-8.35293 7.10137,-10.00097 l 0,0 z m -0.94531,38.21328 c -2.44102,-1.77832 -6.09532,-6.70586 -6.89415,-9.94786 1.51329,-2.19511 2.77188,-5.03788 3.40235,-8.96835 l 9.14687,0 c 0.39922,1.87851 4.83243,8.33808 6.66133,9.74511 -0.48125,2.70586 -1.98203,7.05586 -3.2668,9.12344 -3.25976,-0.56387 -6.66953,-0.57461 -9.0496,0.0477 l 0,0 z m 16.20702,5.52676 0,0.002 c -1.56718,-1.96582 -2.9789,-3.43965 -6.06835,-5.29532 1.32461,-2.29004 2.72265,-6.40839 3.22031,-9.11836 2.25352,-0.19296 8.68984,-2.66855 10.40703,-3.90918 1.675,1.27774 5.175,4.26172 6.70586,5.92911 -1.01719,2.51699 -1.67695,5.87637 -1.97969,8.31172 -2.11797,2.19531 -8.94922,4.49023 -12.28516,4.08047 l 0,0 z m 14.81524,-13.37559 c -1.73086,-1.81172 -5.02188,-4.59609 -6.66016,-5.84043 0.63828,-2.23887 0.36954,-8.9918 -0.30117,-11.27266 1.38321,-1.12519 5.40195,-3.89082 6.76367,-4.51191 l -0.004,-0.009 c 2.07735,1.5082 5.12344,3.32461 7.01211,3.9791 0.86016,3.12383 0.68164,9.82051 -0.0184,13.11211 -2.24648,1.11504 -4.15429,2.40254 -6.79179,4.54297 l 0,0 z" /></svg>