<?xml version="1.0" encoding="UTF-8" standalone="no"?>
<svg
   xmlns:dc="http://purl.org/dc/elements/1.1/"
   xmlns:cc="http://creativecommons.org/ns#"
   xmlns:rdf="http://www.w3.org/1999/02/22-rdf-syntax-ns#"
   xmlns:svg="http://www.w3.org/2000/svg"
   xmlns="http://www.w3.org/2000/svg"
   id="svg2"
   xml:space="preserve"
   enable-background="new 0 0 416.095 600"
   viewBox="0 0 279.99999 200"
   height="200"
   width="280"
   y="0px"
   x="0px"
   version="1.1"><metadata
     id="metadata24"><rdf:RDF><cc:Work
         rdf:about=""><dc:format>image/svg+xml</dc:format><dc:type
           rdf:resource="http://purl.org/dc/dcmitype/StillImage" /><dc:title></dc:title></cc:Work></rdf:RDF></metadata><defs
     id="defs22" /><path
     style="clip-rule:evenodd;fill:#ffffff;fill-rule:evenodd"
     id="path4"
     d="m 205.343,41.77167 -131.98867,0 L 73.476,91.929 c 0.74066,20.75933 6.65766,39.84467 17.75033,57.25467 10.966,17.20933 27.00733,32.80966 48.122,46.8 21.115,-13.991 37.15633,-29.59067 48.12233,-46.8 11.09334,-17.41 17.01034,-36.495 17.751,-57.25467 L 205.343,41.77167 Z" /><path
     style="clip-rule:evenodd;fill:#ffffff;fill-rule:evenodd"
     id="path6"
     d="m 77.286,47.29533 -0.004,-1.59366 1.59766,0 120.938,-6.7e-4 1.597,0 -0.004,1.59367 c -0.0733,31.324 -0.49967,46.079 -0.50034,46.12833 -0.664,19.26333 -6.18433,37.13233 -16.32633,53.45067 -10.19067,16.39533 -25.051,31.21866 -44.34233,44.30533 l -0.893,0.60633 -0.894,-0.60633 c -19.29134,-13.08667 -34.15134,-27.90967 -44.342,-44.30533 -10.14167,-16.318 -15.66134,-34.187 -16.326,-53.45034 -6.7e-4,-0.0497 -0.42767,-14.804 -0.501,-46.128 z" /><path
     style="clip-rule:evenodd;fill:#d1a76a;fill-rule:evenodd"
     id="path8"
     d="M 138.42966,199.39767 C 116.47133,184.997 99.79566,168.858 88.405,150.98133 76.98366,133.056 70.89133,113.41133 70.13,92.04733 l 0,-0.059 L 70.003,40.092 70,38.41133 l 1.67734,6.7e-4 135.344,0 1.677,-6.7e-4 -0.004,1.68067 -0.12634,51.896 0,0.059 c -0.76133,21.36433 -6.85433,41.00867 -18.275,58.93433 -11.39066,17.87634 -28.06666,34.01534 -50.025,48.41634 L 139.34833,200 l -0.91867,-0.60233 0,0 z m -47.20333,-50.214 c 10.966,17.20933 27.00733,32.80966 48.122,46.8 21.115,-13.991 37.15633,-29.59067 48.12233,-46.8 11.09334,-17.41 17.01034,-36.495 17.75034,-57.25467 l 6.6e-4,0 0.12134,-50.15733 -131.98867,0 0.12167,50.15733 0,0 c 0.74066,20.75933 6.65766,39.84467 17.75033,57.25467 z" /><polygon
     style="clip-rule:evenodd;fill:#d1a76a;fill-rule:evenodd"
     transform="matrix(0.33333333,0,0,0.33333333,69.99966,0)"
     id="polygon10"
     points="184.106,98.613 152.065,75.238 120.026,98.613 132.355,60.917 100.224,37.667 139.883,37.744 152.065,0 164.25,37.744 203.908,37.667 171.78,60.917 " /><polygon
     style="clip-rule:evenodd;fill:#d1a76a;fill-rule:evenodd"
     transform="matrix(0.33333333,0,0,0.33333333,69.99966,0)"
     id="polygon12"
     points="296.345,98.613 264.305,75.238 232.266,98.613 244.593,60.917 212.462,37.667 252.122,37.744 264.305,0 276.487,37.744 316.147,37.667 284.017,60.917 " /><path
     style="clip-rule:evenodd;fill:#ce000c;fill-rule:evenodd"
     id="path14"
     d="m 100.189,76.252 0,2.00667 -3.33567,0 0,-2.00667 C 94.15766,76.1537 92.26066,75.46867 91.152,74.218 90.044,72.96133 89.49,71.39 89.49,69.497 c 0,-1.98967 0.57566,-3.584 1.73666,-4.77967 1.15634,-1.20233 3.03767,-1.85466 5.62667,-1.958 l 0,-1.70233 3.336,0 0,1.70233 c 2.68033,0.0977 4.57633,0.77167 5.69033,2.01767 1.11267,1.245 1.67234,2.822 1.67234,4.73067 0,1.89766 -0.55334,3.47033 -1.66734,4.721 -1.11333,1.24533 -3.01066,1.925 -5.69566,2.02333 l 0,0 0,0 z m 0,-2.90467 c 0.88966,0 1.65666,-0.152 2.29633,-0.45633 0.63967,-0.30433 1.09733,-0.71833 1.36367,-1.229 0.26666,-0.51667 0.405,-1.273 0.405,-2.268 0,-2.491 -1.353,-3.736 -4.065,-3.736 l 0,7.68933 0,0 0,0 z m -3.33567,0 0,-7.689 c -1.433,0 -2.47267,0.326 -3.106,0.984 -0.634,0.653 -0.954,1.64267 -0.954,2.96367 -3.3e-4,2.497 1.35333,3.74133 4.06,3.74133 l 0,0 0,0 z m 13.934,4.91134 0,-17.21734 3.40433,0 0,7.64567 6.87867,-7.64567 4.57667,0 -7.405,7.80234 7.75133,9.415 -4.406,0 -5.69067,-6.98367 -1.71033,1.77933 0,5.20434 -3.405,0 0,0 0.006,0 z" /><polygon
     style="clip-rule:evenodd;fill:#ce000c;fill-rule:evenodd"
     transform="matrix(0.33333333,0,0,0.33333333,69.99966,0)"
     id="polygon16"
     points="289.913,424.616 208.049,363.037 126.182,424.616 157.681,325.306 75.586,264.052 176.918,264.251 208.049,164.817 239.177,264.251 340.509,264.052 258.415,325.306 " /><path
     style="clip-rule:evenodd;fill:#ce000c;fill-rule:evenodd"
     id="path18"
     d="m 140.24233,191.179 c 19.29133,-13.08667 34.15167,-27.90967 44.34233,-44.30533 10.142,-16.318 15.662,-34.18734 16.32634,-53.45067 6.6e-4,-0.0493 0.427,-14.80433 0.50033,-46.12833 l 0.004,-1.59367 -1.597,0 -120.93834,6.7e-4 -1.59766,0 0.004,1.59366 c 0.0733,31.324 0.50033,46.07834 0.501,46.12767 0.66466,19.26333 6.18433,37.13233 16.32633,53.45067 10.191,16.39533 25.051,31.21866 44.342,44.30533 l 0.894,0.60633 0.893,-0.60633 0,0 z m 32.384,-41.697 L 139.156,124.94867 106.54,149.482 119.53566,108.50767 89.48966,131.244 C 84.30033,119.326 81.43433,106.66833 80.97466,93.32967 80.96096,92.851 80.55966,78.564 80.477,48.88933 l 117.74266,-6.6e-4 0,0.0427 -47.54266,35.991 42.21166,0 -32.34966,24.14834 12.08733,40.41133 z" /></svg>