<?xml version="1.0" encoding="UTF-8" standalone="no"?>
<!-- Created with Inkscape (http://www.inkscape.org/) -->

<svg
   xmlns:dc="http://purl.org/dc/elements/1.1/"
   xmlns:cc="http://creativecommons.org/ns#"
   xmlns:rdf="http://www.w3.org/1999/02/22-rdf-syntax-ns#"
   xmlns:svg="http://www.w3.org/2000/svg"
   xmlns="http://www.w3.org/2000/svg"
   version="1.0"
   width="280"
   height="200"
   viewBox="0 0 280 199.99999"
   id="Ebene_1"
   xml:space="preserve"><metadata
     id="metadata6850"><rdf:RDF><cc:Work
         rdf:about=""><dc:format>image/svg+xml</dc:format><dc:type
           rdf:resource="http://purl.org/dc/dcmitype/StillImage" /><dc:title></dc:title></cc:Work></rdf:RDF></metadata><defs
     id="defs6848" /><path
     d="M 74.33277,2.7072831 C 74.20608,2.8840531 61.57243,20.443313 54.93261,26.291093 L 52,28.874343 l 2.34161,3.13518 c 0.12898,0.17487 13.18481,18.3092 13.18481,52.75101 0,3.24935 -0.11873,6.59506 -0.35164,9.94342 -0.0869,0.78559 -1.55526,13.772017 -5.627,28.369457 -0.1377,0.50906 -1.31401,5.0489 -1.31401,11.59996 0,6.33219 1.15014,15.81207 6.62844,25.01807 7.42315,12.47356 20.57268,21.02863 39.08407,25.42698 0.1817,0.0444 19.48324,4.86531 29.64022,12.83128 l 2.61398,2.05029 2.61511,-2.05029 c 10.19757,-7.99821 29.47445,-12.79031 29.66791,-12.8381 18.48901,-4.39418 31.63285,-12.94811 39.05638,-25.42054 5.47868,-9.20638 6.6292,-18.68816 6.6292,-25.02034 0,-6.55144 -1.17252,-11.07118 -1.30566,-11.56431 -4.07516,-14.60958 -5.55,-27.615347 -5.63649,-28.403217 -0.23215,-3.34912 -0.35126,-6.69445 -0.35126,-9.94342 l 0,0 c 0,-34.44332 13.05584,-52.575 13.18822,-52.75443 -0.003,0.004 1.4426,-1.93193 1.4426,-1.93193 l 0.89029,-1.19186 -2.92389,-2.5878 C 214.88959,20.494903 202.19601,2.8832931 202.06818,2.7057631 L 200.12486,-6.9381276e-6 197.03521,1.2514031 c -19.78367,8.0149 -58.41519,7.84534 -58.80325,7.84269 -0.40968,0.003 -39.144,0.14718 -58.86735,-7.84269 L 76.27647,-6.9381276e-6 74.33277,2.7072831 l 0,0 z"
     id="path6762"
     style="fill-rule:evenodd" /><path
     d="M 75.64602,3.6503031 C 75.51856,3.8285831 62.77871,21.535033 56.00119,27.504573 l -1.81245,1.59699 1.44867,1.94028 c 0.14718,0.19725 13.50535,18.52694 13.50535,53.71869 0,3.21901 -0.11229,6.58026 -0.3562,10.08074 -0.0694,0.63614 -1.54691,13.843707 -5.68163,28.666467 -0.10166,0.37554 -1.25483,4.7921 -1.25483,11.16563 0,6.70697 1.27684,15.58067 6.40123,24.19113 7.19099,12.08247 19.9995,20.38604 38.06821,24.68046 0.17905,0.0444 19.79619,4.9222 30.2646,13.13246 l 1.6152,1.26811 1.61709,-1.26811 c 10.46766,-8.21064 30.08594,-13.08808 30.28243,-13.13588 18.05126,-4.291 30.85939,-12.59457 38.04963,-24.67704 5.12667,-8.61273 6.40236,-17.48871 6.40236,-24.1934 0,-6.36784 -1.15127,-10.77644 -1.24914,-11.14097 -4.14079,-14.84629 -5.6179,-28.054237 -5.6877,-28.689237 -0.24353,-3.5001 -0.35657,-6.86135 -0.35657,-10.08074 0,-35.19099 13.35816,-53.5203 13.50572,-53.71793 l 1.44602,-1.93611 -1.80942,-1.60154 C 213.62186,21.535033 200.88277,3.8282131 200.75379,3.6499231 l -1.20134,-1.67361 -1.90918,0.77345 c -20.07499,8.1321199 -59.03084,7.9636999 -59.42231,7.9610399 -0.43282,0.003 -39.38905,0.17108 -59.46366,-7.9610399 l -1.90918,-0.77345 -1.2021,1.67399 0,0 z"
     id="path6764"
     style="fill:#ffdd00;fill-rule:evenodd" /><path
     d="m 205.00383,95.060903 c -3.03731,-43.42324 13.66466,-65.59101 13.66466,-65.59101 -7.0825,-6.23773 -20.04161,-24.2931599 -20.04161,-24.2931599 -20.80179,8.4272299 -60.42375,8.1533599 -60.42375,8.1533599 l -0.006,0.0117 v -0.0117 c 0,0 -39.62195,0.27387 -60.42261,-8.1533599 0,0 -12.95987,18.0550499 -20.04199,24.2931599 0,0 16.7016,22.16739 13.66467,65.59101 0,0 -1.43805,13.624457 -5.76926,29.151637 0,0 -11.9224,44.13715 41.29784,56.78407 0,0 20.22483,4.95445 31.27439,13.61914 l 0,0 c 11.04993,-8.66507 31.2759,-13.61914 31.2759,-13.61914 53.2191,-12.64692 41.2967,-56.78407 41.2967,-56.78407 -4.33083,-15.52718 -5.76887,-29.151637 -5.76887,-29.151637 l 0,0 z"
     id="path6766"
     style="fill:#00519e;fill-rule:evenodd" /><path
     d="m 205.24053,97.007253 c -0.16235,-1.24914 -0.2367,-1.94635 -0.2367,-1.94635 -0.0565,-0.8167 -0.10432,-1.6243 -0.14794,-2.42659 H 71.54544 c -0.0432,0.80229 -0.091,1.60989 -0.14831,2.42659 0,0 -0.0732,0.69721 -0.23671,1.94635 h 40.58926 v 85.341667 c 1.28138,0.38768 2.76115,0.85577 4.37255,1.40467 V 97.007253 h 44.15611 v 86.746717 c 1.6114,-0.5489 3.09042,-1.01699 4.3718,-1.40467 V 97.007253 h 40.59039 l 0,0 z"
     id="path6768"
     style="fill-rule:evenodd" /><path
     d="m 71.39713,95.060903 c 0,0 -0.0201,0.18739 -0.0599,0.52917 h 41.83005 v 87.196217 c 0.49275,0.15553 1.00674,0.32129 1.53971,0.49579 V 95.590073 h 46.9863 V 183.2817 c 0.53334,-0.17449 1.04809,-0.33988 1.54046,-0.49579 V 95.590073 h 41.83005 c -0.0398,-0.34178 -0.0599,-0.52917 -0.0599,-0.52917 -0.0235,-0.3395 -0.0421,-0.67407 -0.0634,-1.0113 H 71.46161 c -0.0216,0.33723 -0.0406,0.6718 -0.0645,1.0113 l 0,0 z"
     id="path6770"
     style="fill:#ffffff;fill-rule:evenodd" /><path
     d="m 90.17822,105.0267 c -0.18853,0.003 -16.87306,0.42675 -17.48947,17.72466 -0.006,0.0869 -0.53941,12.359 15.5196,15.51315 2.26082,0.37781 6.33673,1.75706 6.19676,3.42726 l -0.009,0.10318 0.006,0.12669 c 0.001,0.01 0.0379,0.97147 -0.57697,1.63037 -0.45747,0.49123 -1.22258,0.75335 -2.27333,0.77915 -0.28602,0.0133 -5.99117,0.22987 -7.4277,-4.66313 l -0.44609,-1.51922 -12.5225,3.58393 0.17905,1.36255 c 0.019,0.14225 2.06432,14.26819 18.2614,14.51058 0.20333,10e-4 19.39486,-0.0322 19.68315,-18.03343 l -0.005,0.0899 c 0.001,-0.0133 0.0106,-0.16463 0.0106,-0.42675 0,-2.35944 -0.7378,-13.7428 -14.74994,-15.61632 l -0.0451,-0.006 -0.0467,-0.003 c -1.36369,-0.10545 -5.57731,-0.79697 -7.00094,-2.54607 -0.29892,-0.36795 -0.43965,-0.73894 -0.43965,-1.17593 0,-0.0732 0.007,-0.14908 0.0152,-0.2257 0.11455,-0.43244 0.72793,-2.02715 3.57216,-1.86821 0.1745,0.008 3.4762,0.18549 5.01325,3.58279 l 0.635,1.40239 11.46606,-4.71548 -0.33343,-1.33562 c -0.0281,-0.11608 -3.08321,-11.71377 -17.19283,-11.70163 l 0,0 z"
     id="path6772"
     style="fill-rule:evenodd" /><path
     d="m 138.43604,104.79114 c -0.15894,0.007 -17.89725,1.06364 -18.38128,26.00281 -0.008,0.20104 -0.68848,23.19765 17.99778,25.87497 0.24505,0.0398 6.73958,1.03254 12.11623,-3.3586 4.1552,-3.39388 6.41791,-8.96058 6.72669,-16.54531 l 0.0633,-1.56816 -12.41667,-0.69797 0.0577,1.74493 c 0.0391,1.18123 -0.21432,4.6176 -1.83255,6.31132 -0.65359,0.68355 -1.47598,1.0223 -2.51611,1.03481 l -0.0755,0.003 c -0.34785,0.0167 -3.41854,0.0444 -4.19086,-4.08844 -0.86943,-4.40632 -2.3492,-16.65759 1.1691,-20.55295 0.0463,-0.0501 1.16796,-1.24117 2.92161,-1.20021 l 0.0501,0.001 0.0679,-0.003 c 0.55116,-0.0213 3.32939,0.0656 4.04291,3.86615 0.0133,0.0922 0.71922,5.03411 0.71922,5.03411 l 1.48925,-0.10242 10.60763,-0.80001 0.011,-1.46688 c 0.003,-0.39223 0.01,-9.66196 -5.93236,-15.32841 -3.2027,-3.05287 -7.47474,-4.45336 -12.6951,-4.16089 l 0,0 z"
     id="path6774"
     style="fill-rule:evenodd" /><path
     d="m 203.8389,141.0268 c 0,-1.51695 -0.50224,-6.1778 -5.94792,-10.65771 2.32265,-1.87465 5.81667,-5.78784 5.82653,-12.37911 -0.008,-3.64499 -1.927,-11.03665 -9.14075,-12.95911 l -0.20105,-0.0535 h -0.20901 -25.43874 v 50.73637 h 26.12836 l 0.20674,-0.0565 c 0.0899,-0.0254 8.77053,-2.54721 8.77053,-13.80274 0,-0.15097 -0.003,-0.3046 -0.006,-0.45899 0.006,-0.0854 0.011,-0.20067 0.011,-0.36871 l 0,0 0,0 z m -12.5335,-0.4533 c 0,4.3699 -3.41171,4.64871 -4.09982,4.65971 -0.0178,0 -3.86311,0 -5.82653,0 0,-2.07267 0,-7.24903 0,-9.3217 1.92055,0 5.52231,0.001 5.52231,0.001 4.1442,0 4.39645,3.88056 4.40404,4.65857 0,0.001 0,0.002 0,0.002 l 0,0 0,0 z m -4.4397,-15.98314 c -0.0144,0 -3.57065,0 -5.4821,0 0,-2.06167 -0.002,-7.1212 -0.003,-9.184 1.92814,0 5.57883,0 5.57883,0 4.07857,0 4.3441,3.84187 4.35624,4.61305 3.8e-4,4.291 -3.70379,4.56108 -4.44956,4.57095 l 0,0 z"
     id="path6776"
     style="fill-rule:evenodd" /><path
     d="m 97.05702,120.72079 8.76787,-3.6063 c 0,0 -2.6189,-10.50522 -15.64478,-10.49308 0,0 -15.32841,0.2056 -15.89817,16.18647 0,0 -0.64524,10.96989 14.23367,13.89264 0,0 7.8002,1.28138 7.47738,5.12439 0,0 0.29437,3.98526 -4.40252,4.09982 0,0 -7.1743,0.39792 -8.99623,-5.80795 l -9.67979,2.77064 c 0,0 1.69751,12.90031 16.70501,13.12374 0,0 17.79901,0.16235 18.0653,-16.463 0,0 0.90129,-12.44132 -13.36158,-14.34822 0,0 -9.53678,-0.71238 -8.88244,-5.80795 0,0 0.65511,-3.44509 5.2382,-3.18828 7.5e-4,-3.8e-4 4.38469,0.11304 6.37808,4.51708 l 0,0 z"
     id="path6778"
     style="fill:#ffffff;fill-rule:evenodd" /><path
     d="m 155.46993,124.26716 c 0,0 0.15325,-18.8414 -16.94475,-17.88435 0,0 -16.41596,0.71125 -16.87608,24.44262 0,0 -0.84971,21.76074 16.6299,24.26585 0,0 16.16977,2.61929 17.02441,-18.39 l -9.11079,-0.51248 c 0,0 0.32774,8.91733 -5.92099,8.99623 0,0 -4.78262,0.34102 -5.85347,-5.38651 0,0 -3.27856,-16.56541 1.55298,-21.91513 0,0 1.58144,-1.78362 4.14117,-1.72482 0,0 4.67754,-0.28905 5.69453,5.17636 0,0 0.28563,1.92928 0.51778,3.62414 l 9.14531,-0.69191 0,0 z"
     id="path6780"
     style="fill:#ffffff;fill-rule:evenodd" /><path
     d="m 202.23319,141.35037 c 0,0 0.64904,-5.82654 -7.07454,-11.04311 0,0 6.95239,-3.52285 6.96453,-12.32031 0,0 -0.019,-9.2997 -7.9561,-11.41447 h -23.84555 v 47.54695 h 24.31895 c 0,0 7.85065,-2.16029 7.59271,-12.76906 l 0,0 0,0 z m -15.01737,5.47755 h -7.43034 V 134.3168 l 7.11702,0.002 c 5.99799,0 5.99799,6.24342 5.99799,6.24342 0.002,6.26542 -5.68467,6.26542 -5.68467,6.26542 l 0,0 0,0 z m -0.34101,-20.64285 h -7.08478 l -0.005,-12.37343 h 7.17354 c 5.92099,0 5.95019,6.19222 5.95019,6.19222 0,6.17817 -6.0344,6.18121 -6.0344,6.18121 l 0,0 z"
     id="path6782"
     style="fill:#ffffff;fill-rule:evenodd" /><path
     d="m 135.84672,25.739923 -0.007,-0.21394 -0.19574,-0.0876 c -16.78543,-7.49711 -33.87053,-7.16974 -34.04085,-7.16595 -0.1707,-0.004 -17.25618,-0.33116 -34.04161,7.16595 l -0.19573,0.0876 -0.007,0.21394 c -0.003,0.10242 -0.26402,10.36145 3.79028,22.74663 3.74476,11.43875 12.03847,27.09225 30.28585,36.70414 l 0.16614,0.0876 v 10e-4 l 0.002,-3.8e-4 0.001,3.8e-4 v -10e-4 l 0.16615,-0.0876 c 18.24737,-9.61189 26.54108,-25.26539 30.28584,-36.70414 4.0543,-12.38518 3.7937,-22.64459 3.79066,-22.74663 l 0,0 z"
     id="path6784"
     style="fill-rule:evenodd" /><path
     d="m 131.39944,48.296893 c -3.69469,11.27449 -11.86322,26.68522 -29.77792,36.19355 -0.006,-0.004 -0.011,-0.007 -0.0171,-0.011 v -0.001 c -3.8e-4,0 -0.001,3.8e-4 -0.001,3.8e-4 -3.8e-4,0 -0.001,-3.8e-4 -0.002,-3.8e-4 v 0.001 c -0.006,0.004 -0.011,0.007 -0.0167,0.011 -17.91508,-9.50833 -26.08398,-24.91906 -29.7783,-36.19355 -3.5513,-10.83865 -3.76866,-20.0272 -3.76866,-22.10025 0,-0.0945 10e-4,-0.15401 0.002,-0.2185 16.5749,-7.34082 33.37816,-7.02636 33.56024,-7.02257 0,0 0.001,0 0.002,0 3.8e-4,0 0.002,0 0.003,0 10e-4,0 0.002,0 0.002,0 0.18208,-0.004 16.98495,-0.31825 33.56023,7.02257 3.8e-4,0.0645 0.001,0.12404 0.001,0.2185 7.6e-4,2.07305 -0.21622,11.2616 -3.76752,22.10025 l 0,0 z"
     id="path6786"
     style="fill:#ffffff;fill-rule:evenodd" /><path
     d="m 207.65194,25.750543 -0.007,-0.21394 -0.19573,-0.0876 c -16.78543,-7.49636 -33.87091,-7.16975 -34.04085,-7.1652 -0.17108,-0.005 -17.25656,-0.33116 -34.04161,7.1652 l -0.19611,0.0876 -0.006,0.21394 c -0.003,0.10242 -0.2644,10.36145 3.79028,22.74663 3.744,11.43875 12.03885,27.09225 30.28584,36.70414 l 0.16577,0.0876 v 0.001 l 0.002,-3.8e-4 10e-4,3.8e-4 v -0.001 l 0.16652,-0.0876 c 18.247,-9.61189 26.54071,-25.26539 30.28585,-36.70414 4.05392,-12.38518 3.79294,-22.64459 3.78952,-22.74663 l 0,0 z"
     id="path6788"
     style="fill-rule:evenodd" /><path
     d="m 203.20428,48.307513 c -3.69393,11.27449 -11.86322,26.68522 -29.77792,36.19355 -0.006,-0.004 -0.011,-0.007 -0.0167,-0.0106 v -0.002 c -0.001,0 -0.001,3.8e-4 -0.001,3.8e-4 -0.001,0 -0.001,-3.8e-4 -0.002,-3.8e-4 v 0.002 c -0.006,0.003 -0.011,0.007 -0.0167,0.0106 -17.9147,-9.50833 -26.08398,-24.91906 -29.77792,-36.19355 -3.55168,-10.83865 -3.76866,-20.0272 -3.76866,-22.09987 0,-0.0948 7.6e-4,-0.15439 0.001,-0.21888 16.57528,-7.34082 33.37854,-7.02636 33.561,-7.02181 h 0.001 c 10e-4,0 0.002,0 0.003,0 0.001,0 0.001,0 0.001,0 0.18207,-0.005 16.98533,-0.31901 33.56099,7.02181 0.001,0.0645 0.001,0.12405 0.001,0.21888 0,2.07267 -0.2166,11.26122 -3.76866,22.09987 l 0,0 z"
     id="path6790"
     style="fill:#ffffff;fill-rule:evenodd" /><path
     d="m 173.46884,21.015733 c 0.16122,-0.003 15.80296,-0.22609 31.43371,6.32725 -0.0967,3.20687 -0.64904,11.17208 -3.63742,20.30373 -3.50957,10.71916 -11.20432,25.28208 -27.8566,34.51046 -16.6519,-9.22838 -24.34817,-23.7913 -27.8566,-34.51046 -2.98952,-9.13165 -3.54183,-17.09724 -3.63855,-20.30373 15.63301,-6.55334 31.27248,-6.33067 31.4337,-6.32725 l 0.0565,10e-4 0.0652,-10e-4 0,0 z"
     id="path6792"
     style="fill-rule:evenodd" /><path
     d="m 173.48326,21.698523 c 0.1578,-0.003 15.38531,-0.21356 30.71904,6.09131 -0.13428,3.42688 -0.76246,11.01428 -3.58734,19.64483 -3.44737,10.52987 -10.97862,24.80678 -27.20643,33.93805 -16.22857,-9.13051 -23.7602,-23.40818 -27.20757,-33.93805 -2.82488,-8.63055 -3.45305,-16.21795 -3.58734,-19.64483 15.33638,-6.30449 30.56124,-6.09434 30.72018,-6.09131 l 0.069,0.002 0.0804,-0.002 0,0 z"
     id="path6794"
     style="fill:#ffffff;fill-rule:evenodd" /><path
     d="m 101.50127,21.015733 c 0.16122,-0.003 15.80258,-0.22609 31.43332,6.32725 -0.096,3.20687 -0.6479,11.17208 -3.63741,20.30373 -3.50844,10.71916 -11.20432,25.28208 -27.8566,34.51046 -16.65191,-9.22838 -24.34741,-23.7913 -27.85585,-34.51046 -2.98951,-9.13165 -3.54182,-17.09724 -3.63779,-20.30373 15.63226,-6.55334 31.27211,-6.33067 31.4337,-6.32725 l 0.0561,10e-4 0.0645,-10e-4 0,0 z"
     id="path6796"
     style="fill-rule:evenodd" /><path
     d="m 101.51493,21.698523 c 0.15818,-0.003 15.38531,-0.21356 30.72018,6.09131 -0.13505,3.42688 -0.76284,11.01428 -3.58772,19.64483 -3.44661,10.52987 -10.97824,24.80678 -27.20681,33.93805 -16.22819,-9.13051 -23.75945,-23.40818 -27.20643,-33.93805 -2.82564,-8.63055 -3.45344,-16.21795 -3.58848,-19.64483 15.33676,-6.30449 30.56238,-6.09434 30.72094,-6.09131 l 0.0683,0.002 0.08,-0.002 0,0 z"
     id="path6798"
     style="fill:#ffffff;fill-rule:evenodd" /><path
     d="m 119.26879,30.201243 c -0.19232,-0.57165 -0.59972,-0.52234 -0.59972,-0.52234 -0.6847,0.11835 -0.88461,1.39291 -0.88461,1.39291 -0.94112,0.87057 -1.92586,0.83339 -1.92586,0.83339 -0.12177,-0.64069 -0.1855,-1.4058 -0.1855,-1.4058 -0.0216,-0.13049 -0.036,-0.22343 -0.0535,-0.3634 -0.0895,-0.46961 -0.35354,-0.6718 -0.35354,-0.6718 -0.30005,-0.27729 -1.39139,-0.23291 -1.39139,-0.23291 l -0.52803,-0.62855 c 0.25567,-0.19763 0.35657,-0.49161 0.35657,-0.49161 0.25188,-0.54055 -0.15666,-0.95744 -0.15666,-0.95744 -0.22343,-0.2367 -0.8497,-0.2735 -0.8497,-0.2735 -0.79167,0.0277 -0.96313,0.73363 -0.96313,0.73363 -0.1339,0.64676 0.29968,0.92671 0.29968,0.92671 -1.78362,1.05682 -2.86851,2.25702 -2.86851,2.25702 2.95386,4.18593 2.91099,6.34357 2.91099,6.34357 0.30005,4.88883 -2.26878,4.96317 -2.26878,4.96317 -0.55686,0.0433 -1.0701,-0.41005 -1.0701,-0.41005 0.25719,-0.14946 0.34216,-0.44799 0.34216,-0.44799 0.68583,-0.14946 0.85615,-0.37289 0.85615,-0.37289 -0.42826,-0.37402 -0.42826,-0.74614 -0.42826,-0.74614 0.85691,-0.26174 0.94188,-0.59783 0.94188,-0.59783 -0.34216,-0.14908 -0.68394,-0.67142 -0.68394,-0.67142 0.59897,-0.14945 0.98399,-0.74614 0.98399,-0.74614 -0.59973,-0.37327 -0.89902,-0.89561 -0.89902,-0.89561 0.38578,-0.11152 0.77005,-0.59668 0.77005,-0.59668 -0.0637,-0.74691 -1.2408,-1.53023 -1.2408,-1.53023 -0.39299,-0.25453 -0.0861,-0.89522 -0.0861,-0.89522 0.25681,-0.44837 0.0861,-0.59669 0.0861,-0.59669 -0.25681,0.074 -1.24117,-0.0379 -1.24117,-0.0379 0.42788,-0.22343 0.64183,-0.85843 0.64183,-0.85843 -1.62696,-0.22381 -2.69667,-1.45474 -2.69667,-1.45474 -0.54283,-0.56027 -0.68583,-0.59745 -0.68583,-0.59745 -0.42789,-0.14945 -0.47075,-0.52234 -0.47075,-0.52234 0.32129,-0.18663 0.0429,-0.44799 0.0429,-0.44799 -0.1339,-0.11683 -0.85615,0.0744 -0.85615,0.0744 -0.73856,0.13998 -0.85577,-0.52158 -0.85577,-0.52158 -0.514,-0.0744 -1.15621,-0.59745 -1.15621,-0.59745 l -1.28403,0.0744 c -0.51893,0.0235 -0.64221,-0.0744 -0.64221,-0.0744 -0.34216,-0.20559 -0.6847,-0.26173 -0.6847,-0.26173 -0.85691,-0.0743 -1.28404,0.11228 -1.28404,0.11228 -0.54547,0.13428 -0.85691,-0.52234 -0.85691,-0.52234 l -1.369,0.0743 c -0.0861,0.37326 -0.17184,0.52234 -0.17184,0.52234 -0.17184,0.44799 -0.68507,0.14945 -0.68507,0.14945 -0.25681,-0.14945 -0.64221,-0.18625 -0.64221,-0.18625 -1.25256,-0.0762 -2.18268,0.74615 -2.18268,0.74615 -0.56748,0.56406 -1.00447,0.48137 -1.00447,0.48137 -0.39185,-0.0717 -0.53675,-0.70556 -0.53675,-0.70556 -0.98513,0.97071 -2.18306,1.38077 -2.18306,1.38077 -0.79166,0.37781 -1.24193,1.75441 -1.24193,1.75441 -0.21963,0.6718 -0.85615,1.56702 -0.85615,1.56702 -0.9984,1.64213 -1.54047,4.70144 -1.54047,4.70144 -0.0812,0.64827 0.34178,1.26924 0.34178,1.26924 0.38578,0.65245 0,1.11979 0,1.11979 -0.38502,0.5083 -0.34178,0.96957 -0.34178,0.96957 0.13239,0.89408 0.37137,1.69182 0.37137,1.69182 -0.95478,1.25597 -1.09968,2.18874 -1.09968,2.18874 -0.0159,0.23784 -0.89864,1.71648 -0.89864,1.71648 -0.59972,1.22676 0,1.38039 0,1.38039 1.12927,0.31105 1.15013,0.25908 2.26878,0.37402 0,0 0.20826,0.69911 -0.30005,0.82011 0,0 -0.93581,0.28071 -0.51361,1.30642 0,0 0.17677,0.45748 0.51361,1.15696 -0.42788,0 -0.25681,0.59669 -0.25681,0.59669 0.0967,0.29892 0.89902,0.41082 0.89902,0.41082 0.59897,0.48516 0.0432,1.08185 0.0432,1.08185 -0.20901,0.26629 -0.30005,0.63463 -0.30005,0.63463 -0.31598,1.21727 0.514,1.53022 0.514,1.53022 1.94028,0.68356 3.93784,0.37288 3.93784,0.37288 2.26916,-0.17373 2.86851,1.71648 2.86851,1.71648 0.49958,1.30566 2.9971,1.71647 2.9971,1.71647 0.8129,1.26925 1.11258,2.08974 1.11258,2.08974 0.52803,1.31818 0.51399,2.57491 0.51399,2.57491 4.6233,0.009 7.32034,-4.73937 7.32034,-4.73937 0.95289,-1.6042 1.66906,-2.53697 1.66906,-2.53697 1.19907,-1.52075 3.89612,-2.46338 3.89612,-2.46338 -1.66489,-1.11903 -2.61208,-1.64137 -2.61208,-1.64137 -2.18267,-1.30566 -1.71154,-3.84415 -1.71154,-3.84415 1.06971,-0.48441 0.98398,-0.89522 0.98398,-0.89522 -0.57241,-0.13505 -0.68469,-0.37289 -0.68469,-0.37289 -0.0861,-0.2238 0.12783,-0.48516 0.12783,-0.48516 0.51438,0.14908 0.85616,0.14908 0.85616,0.14908 -0.5561,-0.59745 -0.85616,-1.19414 -0.85616,-1.19414 0.85616,-0.22381 1.71269,0.22381 1.71269,0.22381 0.0322,-0.43851 -0.25681,-0.74615 -0.25681,-0.74615 -0.80229,-0.77915 -0.34216,-1.45588 -0.34216,-1.45588 0.23557,-0.27008 0.40665,-0.28829 0.61338,-0.17221 0.25491,0.14339 0.24277,0.2845 0.24277,0.2845 0.0857,0.89636 0.34216,2.31392 0.34216,2.31392 0.18739,1.34321 0.21432,1.52984 0.21432,1.52984 0.35278,1.7032 1.64023,1.62961 1.64023,1.62961 1.90653,-0.0994 2.42621,0.23633 2.42621,0.23633 0.80608,0.50413 0.7708,2.27599 0.7708,2.27599 -0.68507,1.26848 -2.52597,2.94778 -2.52597,2.94778 0.0861,0.97034 0.85691,2.3511 0.85691,2.3511 -0.52841,0.26781 -1.71268,1.49305 -1.71268,1.49305 -0.34216,0.46013 -2.82564,2.23882 -2.82564,2.23882 0.49237,3.2338 2.86775,3.28349 2.86775,3.28349 2.19746,0.0751 2.31202,-0.97033 2.31202,-0.97033 0.69001,-2.45807 1.54085,-3.58241 1.54085,-3.58241 0.60465,-0.84401 1.45625,-1.86517 1.45625,-1.86517 0.63083,-0.70442 0.64107,-1.72937 0.64107,-1.72937 0.006,-1.12093 0.12898,-2.74902 0.12898,-2.74902 0.0493,-2.5309 -0.514,-2.98496 -0.514,-2.98496 -0.42826,-0.4791 -0.42826,-1.34321 -0.42826,-1.34321 0.0649,-1.28139 -0.17791,-1.89097 -0.28488,-2.16447 -0.23519,-0.58493 -0.98399,-1.00751 -0.98399,-1.00751 -0.54282,-0.25567 -2.3693,-0.38616 -2.3693,-0.38616 -1.60458,-0.10545 -1.49874,-1.21841 -1.49874,-1.21841 0.0861,-1.02002 0.6422,-1.08261 0.6422,-1.08261 0.92785,-0.10015 2.26917,-0.29892 2.26917,-0.29892 3.05324,-0.45937 2.91099,-4.14116 2.91099,-4.14116 0.0713,-3.39502 1.13458,-5.82161 1.13458,-5.82161 0.46354,-1.08185 1.17744,-2.46224 1.17744,-2.46224 0.87854,-0.71542 0.51438,-1.5674 0.51438,-1.5674 l 0,0 0,0 z m -11.056,11.32116 c -0.0907,2.95234 -0.74501,2.65001 -0.74501,2.65001 -0.22267,-0.0338 -0.17222,-0.45064 -0.17222,-0.45064 0.03,-0.28299 -0.17184,-0.525 -0.17184,-0.525 -0.29056,-0.39678 -2.52331,-0.89977 -2.52331,-0.89977 -0.55003,-0.13618 -0.63121,0.17487 -0.63121,0.17487 -0.085,0.42561 0.28602,0.45026 0.28602,0.45026 1.28252,0.23215 2.00742,0.59973 2.00742,0.59973 1.06251,0.4533 0.91798,0.65055 0.91798,0.65055 -0.20332,0.65776 -2.46034,0.35961 -2.46034,0.35961 -0.6919,-0.0618 -1.49684,-0.56028 -1.49684,-0.56028 -0.459,0.90016 -1.03292,0.60011 -1.03292,0.60011 0.96577,-1.63682 0.57392,-2.7494 0.57392,-2.7494 -0.35657,-1.02533 -2.18039,-0.85008 -2.18039,-0.85008 -0.84743,0.0876 -1.63265,1.3929 -1.63265,1.3929 -0.26894,0.31826 -1.63643,0.30688 -1.63643,0.30688 -0.28678,-0.15021 -0.70556,-0.15666 -0.70556,-0.15666 -0.4901,0.0649 -0.90016,-0.0933 -0.90016,-0.0933 -0.50451,-0.23328 -1.43425,-0.14945 -1.43425,-0.14945 -0.53675,-0.0235 -0.51627,-0.4002 -0.51627,-0.4002 0.0489,-0.3835 0.40133,-0.30005 0.40133,-0.30005 1.96532,0.11266 2.18002,0 2.18002,0 0.14377,-0.0417 0.40171,-0.30005 0.40171,-0.30005 0.5341,-0.40778 -0.40171,-0.65017 -0.40171,-0.65017 -0.68848,-0.15022 -1.9509,0.24998 -1.9509,0.24998 -0.65624,0.22077 -2.69477,0.10014 -2.69477,0.10014 -1.48243,-0.08 -4.13017,-0.79963 -4.13017,-0.79963 -2.70311,-0.65663 -1.7783,-1.6004 -1.7783,-1.6004 0.29436,-0.39527 1.31969,-0.10015 1.31969,-0.10015 0.45748,0.1396 0.91723,0.15022 0.91723,0.15022 0.85122,-0.0379 0.8607,0.24998 0.8607,0.24998 0.63083,0.29967 2.33061,0.5083 2.33061,0.5083 0.95668,0.12101 0.93923,0.49124 0.93923,0.49124 0.45064,0.15742 0.63083,0 0.63083,0 l 0.28677,-0.2496 c 1.60647,-0.30005 3.38402,0.19991 3.38402,0.19991 0.56407,0.14604 0.68887,-0.10053 0.68887,-0.10053 0.15325,-0.30839 -0.22912,-0.35012 -0.22912,-0.35012 -0.60731,-0.01 -0.97564,-0.14946 -0.97564,-0.14946 -0.57393,-0.30005 -1.31932,-0.19991 -1.31932,-0.19991 -1.20741,0.055 -2.46641,-0.15021 -2.46641,-0.15021 -0.80115,-0.0512 -1.66375,-0.6001 -1.66375,-0.6001 -1.13344,-0.77574 -2.12274,-0.94947 -2.12274,-0.94947 -0.62779,-0.11077 -1.94977,0.0501 -1.94977,0.0501 -0.86032,0.0584 -0.57355,-0.55003 -0.57355,-0.55003 0.26933,-0.57697 1.60572,-1.24952 1.60572,-1.24952 0.32281,-0.1707 0.22949,-0.55079 0.22949,-0.55079 -0.17222,0.10052 -0.51627,0 -0.51627,0 -0.12328,0.45937 -0.51627,0.45027 -0.51627,0.45027 -0.3835,0.0512 -0.34443,-0.49958 -0.34443,-0.49958 0.058,-0.70025 0.97602,-0.95023 0.97602,-0.95023 0.16766,-0.19687 0.11456,-0.49958 0.11456,-0.49958 0.11721,-0.14452 1.14747,-0.10014 1.14747,-0.10014 l 0.22912,0.19991 c 0.0577,-0.15022 0.80305,-0.4002 0.80305,-0.4002 0,0 -0.007,-0.002 -0.0573,0.19991 -0.0512,0.20673 0.11569,0.40019 0.11569,0.40019 1.89211,0.2496 2.81009,1.09893 2.81009,1.09893 0.3562,0.2606 0.22798,0.52158 0.22798,0.52158 -0.47075,0.71845 -2.69439,-0.52158 -2.69439,-0.52158 -0.21622,-0.0983 -0.28678,-0.34937 -0.28678,-0.34937 -0.0899,-0.17297 -0.34405,0.10053 -0.34405,0.10053 0.63917,0.81746 2.20809,1.29959 2.20809,1.29959 0.62021,0.21735 1.49039,0.17373 1.49039,0.17373 0.56407,-0.0634 0.88954,-0.12404 0.88954,-0.12404 1.95052,-0.30043 2.29495,0.2496 2.29495,0.2496 l 0.45899,-0.15022 c 0.31826,-0.0948 0.459,0.19991 0.459,0.19991 0.18018,0.26895 0.34405,0.10014 0.34405,0.10014 0.17829,-0.30156 0.74501,-0.15021 0.74501,-0.15021 0.45899,0.15021 -0.0573,0.55003 -0.0573,0.55003 l 0.22949,0.30005 c 0.11494,-0.35012 0.63121,-0.55003 0.63121,-0.55003 -0.0577,0.15022 0.2295,0.4002 0.2295,0.4002 0.28677,-0.19991 0.86032,-0.0501 0.86032,-0.0501 0.64449,0.1635 0.34406,0.75032 0.34406,0.75032 -0.19233,0.35051 -1.26128,-0.15059 -1.26128,-0.15059 0.32509,1.00068 1.204,0.80001 1.204,0.80001 0.36302,-0.15401 0.57355,-0.10014 0.57355,-0.10014 0.46885,0.10962 1.37697,0.10014 1.37697,0.10014 1.01699,-0.0922 1.4335,0.15021 1.4335,0.15021 4.55501,1.89401 4.41542,3.05097 4.41542,3.05097 l 0,0 0,0 z m 0.57468,2.65001 c -0.3285,-0.13618 -0.22987,-0.75032 -0.22987,-0.75032 0.10014,-0.63614 0.63121,-0.54965 0.63121,-0.54965 0.42675,0.0622 0.45899,0.34937 0.45899,0.34937 0.0216,0.59441 -0.2295,0.8497 -0.2295,0.8497 -0.20408,0.25794 -0.63083,0.1009 -0.63083,0.1009 l 0,0 0,0 z m 4.41694,17.3127 c 0,0 -0.37174,-0.0493 -1.17137,0.67218 0,0 -0.40854,0.37781 -0.62856,0.67293 0,0 -0.005,0.20712 -0.22835,0.44799 0,0 -0.13656,0.19232 -0.57166,0.14946 0,0 -0.54168,-0.025 -0.7708,0.0243 0.6001,0.52272 0.85691,0.94567 0.85691,0.94567 0.26212,0.38047 0.1138,0.6479 0.1138,0.6479 -0.0922,0.17563 -0.46506,0.0599 -0.46506,0.0599 -0.54738,-0.1449 -1.67968,-0.68128 -2.05863,-2.65115 0.67141,-0.48554 2.28319,-1.67247 2.66708,-2.13412 -0.001,0.001 -0.002,0.002 -0.002,0.002 l 0.0349,-0.0421 c -0.009,0.0121 -0.0224,0.0266 -0.0326,0.0398 0.2735,-0.28222 0.69342,-0.6919 1.05188,-1.00143 0,0 0.18436,-0.1707 0.48176,-0.15629 0,0 0.44002,-0.007 0.49464,0.15629 0,0 0.007,0.43547 0.18512,0.71997 0,3.8e-4 0.37743,0.72338 0.0432,1.44639 l 0,0 0,0 z m 2.60374,-9.53336 c 0.0254,0.0262 0.41574,0.49464 0.41574,2.42051 0,0.0971 -3.8e-4,0.19688 -0.003,0.30043 -0.004,0.0467 -0.12291,1.63378 -0.12822,2.75509 -0.03,0.18511 -0.1468,0.34823 -0.1468,0.34823 -0.21053,0.30877 -0.7708,0.12442 -0.7708,0.12442 -0.0861,0.59441 -0.3433,0.59744 -0.3433,0.59744 -0.49351,0.036 -0.74235,0.29854 -0.74235,0.29854 0.22798,0.19953 0.31409,0.3983 0.31409,0.3983 0.10432,0.40967 -0.0861,0.97146 -0.0861,0.97146 -0.10963,0.29247 -0.51361,0.22381 -0.51361,0.22381 -0.37137,-0.12442 -0.51438,-1.19527 -0.51438,-1.19527 -0.21773,-0.9673 -0.91343,-1.84128 -0.91343,-1.84128 -0.45671,-0.57355 -0.43471,-1.00409 -0.43471,-1.00409 0.44078,-0.41613 1.72027,-1.66716 2.36058,-2.74598 0.62665,-0.99423 1.07313,-1.47864 1.07313,-1.47864 0.27615,-0.29967 0.43282,-0.17297 0.43282,-0.17297 l 0,0 0,0 z m -5.11757,-4.40822 c 0.0804,-0.74614 0.50717,-0.51551 0.50717,-0.51551 0.25453,0.0994 0.55079,0.16122 0.88574,0.18284 0.70783,0.0512 1.83407,0.14604 2.16484,0.33267 0.19877,0.1028 0.62287,0.4313 0.77308,0.78256 0.0573,0.13656 0.0967,0.29171 0.16842,0.54662 0.0766,0.27046 0.0216,0.34899 0.0216,0.34899 -0.17222,0.24998 -0.51665,0 -0.51665,0 -0.39185,-0.23291 -0.40134,0.10014 -0.40134,0.10014 0.0152,0.59176 -0.34671,0.83567 -0.34671,0.83567 -0.15211,0.15211 0.1745,0.41461 0.1745,0.41461 -0.31561,0.2367 -0.65169,0.0743 -0.65169,0.0743 -0.10773,-0.066 -0.46127,-0.25719 -1.48585,-0.31788 -0.45747,-0.0379 -0.61527,-0.25681 -0.61527,-0.25681 -0.17222,-0.24998 0.0565,-0.24998 0.0565,-0.24998 0.22987,0 0.45937,-0.19991 0.45937,-0.19991 0.18663,-0.16122 0.17184,-0.30005 0.17184,-0.30005 -0.56786,-0.19232 -1.14748,-0.94947 -1.14748,-0.94947 -0.23898,-0.28753 -0.21812,-0.82884 -0.21812,-0.82884 l 0,0 0,0 z m 0.36226,1.7032 c 0,0 0.2644,0.0971 -0.14376,0.67521 0,0 -0.33571,0.44837 -0.67559,0.2424 -0.2424,-0.1635 -0.50679,-0.48555 -0.63804,-1.1179 0,0 -0.0345,-0.34936 0.42523,-0.34936 0,0 0.2295,0 0.40171,0.19991 0,-3.8e-4 0.17753,0.17677 0.63045,0.34974 l 0,0 0,0 z m 4.50267,-17.32408 c 0.25112,0.45672 -0.11494,0.90015 -0.11494,0.90015 -0.29739,0.4901 -0.63083,0.35013 -0.63083,0.35013 -0.28222,-0.0751 -0.11493,-0.30005 -0.11493,-0.30005 0.085,-0.19991 -0.0649,-0.55345 -0.0649,-0.55345 -0.11266,-0.32243 0.29436,-0.49692 0.29436,-0.49692 0.49238,-0.19877 0.63121,0.10014 0.63121,0.10014 l 0,0 0,0 z m -3.36695,-4.06909 c 0,-0.0489 0.005,-0.10394 0.0178,-0.16501 0.0133,-0.0478 0.12215,-0.36112 0.49161,-0.38616 0.19384,0.0171 0.42296,0.0721 0.48024,0.11949 0.019,0.0212 0.12707,0.14832 0.12707,0.33002 0,0.0622 -0.0129,0.13049 -0.0463,0.20294 -0.24278,0.57279 -0.68697,0.4184 -0.68697,0.4184 -0.43055,-0.0834 -0.38351,-0.51968 -0.38351,-0.51968 l 0,0 0,0 z m -0.76321,2.11933 c 0.009,-0.41992 0.17221,-0.45027 0.17221,-0.45027 0.89674,-0.24998 1.26204,-0.44951 1.26204,-0.44951 0.57355,-0.30005 0.63083,0.30005 0.63083,0.30005 0.0315,0.15629 -1.08982,0.89978 -1.08982,0.89978 -0.60124,0.39526 -0.73894,0.32622 -0.73894,0.32622 -0.2697,-0.0899 -0.23632,-0.62627 -0.23632,-0.62627 l 0,0 0,0 z m 5.70363,4.11195 c -0.0433,0.0994 -1.09248,2.53052 -1.16455,5.96006 0,0.004 3.8e-4,0.0228 3.8e-4,0.0561 0,0.43965 -0.0922,3.31726 -2.51383,3.6818 0,0 -0.15401,0.0262 -0.38958,0.007 -0.3046,-0.0523 -0.31674,-0.31825 -0.31674,-0.31825 -0.0474,-0.47076 0.40171,-0.49958 0.40171,-0.49958 0.80343,-0.17715 1.72027,-1.99984 1.72027,-1.99984 0.2496,-0.45785 -0.0573,-0.55003 -0.0573,-0.55003 -0.23328,-0.0288 -0.34443,0.30005 -0.34443,0.30005 -0.36492,1.0003 -1.37621,1.74986 -1.37621,1.74986 -0.40172,0.35126 -0.63083,0.0501 -0.63083,0.0501 -0.26857,-0.3285 0.0573,-0.59973 0.0573,-0.59973 1.51543,-1.43577 1.43425,-2.50055 1.43425,-2.50055 0.011,-0.38275 -0.12783,-0.37212 -0.12783,-0.37212 -0.27274,-0.0144 -0.34633,0.36226 -0.34633,0.36226 -0.35658,1.3929 -1.07503,1.86024 -1.07503,1.86024 -0.49465,0.30384 -0.5011,-0.16235 -0.5011,-0.16235 -0.0118,-0.11987 0.0444,-0.22457 0.16956,-0.42675 0.10508,-0.16956 0.12822,-0.2367 0.12822,-0.2367 0.25491,-0.69115 0.38464,-1.53744 0.38464,-2.53318 0,-0.25454 -0.009,-0.51893 -0.0254,-0.79394 0,-0.002 0,-0.006 0,-0.0118 0,-0.16577 -0.0751,-1.86025 -1.96645,-4.97001 0,0 2.88595,-2.496 3.76335,-2.48197 0.26439,0.0171 0.49503,0.0554 0.56938,0.10166 0.0326,0.0288 0.16842,0.15515 0.22342,0.44686 3.8e-4,0.005 0.0523,0.35505 0.0523,0.35505 0,0.006 0.0152,0.17184 0.041,0.41158 0,0 -0.39944,0.26401 -0.54472,0.40247 0,0 -0.45824,0.54965 -1.14672,0.8497 0,0 -0.14605,1.05682 0.25605,2.56846 0,0 0.35657,1.75365 0.43243,2.78164 0,0 0.83757,0.46506 0.68773,-0.30043 0,0 -0.26439,-1.56095 -0.74576,-2.49942 0,0 -0.29626,-0.69683 0.80304,-1.04961 0,0 0.6847,-0.20712 1.03292,-0.90016 0,0 0.17943,-0.41954 1.03178,-0.50071 0,0 0.38237,-0.008 0.9085,-0.005 -0.24504,0.49731 -0.57013,1.17252 -0.82542,1.76655 l 0,0 0,0 z m 1.75327,-3.01227 c -0.23405,0.41157 -0.51627,0.30043 -0.51627,0.30043 -0.32774,-0.13163 -0.11494,-0.6001 -0.11494,-0.6001 0.20522,-0.53448 0.51551,-0.44079 0.51551,-0.44079 0.42751,0.20105 0.1157,0.74046 0.1157,0.74046 l 0,0 z"
     id="path6800"
     style="fill-rule:evenodd" /><path
     d="m 98.76515,45.564183 c 0,0 -0.45558,0.64524 0.0755,0.94909 0,0 0.9267,0.3505 0.94909,0.1138 l 0.15173,-0.68356 c 0,3.8e-4 -0.19005,-0.49313 -1.17631,-0.37933 l 0,0 z"
     id="path6802"
     style="fill:#ffffff;fill-rule:evenodd" /><path
     d="m 87.14963,41.616853 c 0,0 0.0823,0.63007 0.60731,0.6828 0,0 0.64525,0 0.79736,1.02533 0,0 -0.45558,-0.19004 -0.34178,0.64525 0,0 0.0379,0.15173 -0.22798,0.41802 0,0 -0.68279,-0.0762 -0.68279,-0.75942 0,0 0.10773,-0.69001 -0.2663,-0.83529 0,-3.8e-4 -0.7211,-0.53144 0.11418,-1.17669 l 0,0 z"
     id="path6804"
     style="fill:#ffffff;fill-rule:evenodd" /><path
     d="m 89.04781,43.324983 c 0,0 -0.22798,0.22798 0.15097,0.37933 0,0 0.15212,0.18967 0.15212,0.34178 0,0 0.19004,0.18967 0.45557,0.18967 0,0 -0.1138,0.34102 0.30347,0.53106 0,0 0.46392,-0.52234 0.19004,-1.13837 0,0 -0.81935,-1.00637 -1.25217,-0.30347 l 0,0 z"
     id="path6806"
     style="fill:#ffffff;fill-rule:evenodd" /><path
     d="m 101.42161,45.715913 c 0,0 -0.50072,-0.0857 -0.53106,0.83529 0,0 -0.0379,0 -0.19005,0.22798 0,0 -0.53106,0.30346 -0.53106,0.87284 0,0 -0.41803,0.64524 -1.6702,0 0,0 -0.41727,0.60731 0.38009,0.91077 0,0 0.60731,0.22798 0.87246,-0.0379 0,0 1.63265,0.15173 2.01198,-2.31544 -3.8e-4,0 0.074,-0.37554 -0.34216,-0.49351 l 0,0 z"
     id="path6808"
     style="fill:#ffffff;fill-rule:evenodd" /><path
     d="m 99.75141,55.015613 c 0,0 0.45558,0 0.53183,0.45557 0,0 0.15173,0.30347 0.37933,0.37934 0,0 0.37933,0.68355 -0.60731,0.87284 0,0 -0.30157,0.074 -0.0379,1.21462 0,0 0.20598,0.4294 -0.41726,0.64562 0,0 -0.6718,0.32964 -0.83529,-0.72111 0,0 -0.16387,-0.55306 0.18967,-0.53106 0,0 0.49351,0.0372 0.68279,0.22722 0,0 -0.11342,-0.6828 -0.0565,-1.04354 0,0 -0.36074,-0.20902 -0.32281,-0.66459 0,0 -0.22267,-0.71618 0.49351,-0.83491 l 0,0 z"
     id="path6810"
     style="fill:#ffffff;fill-rule:evenodd" /><path
     d="m 102.1431,56.078493 c 0,0 -0.56938,1.89818 0.37933,2.20165 l -0.1138,0.56937 c 0,0 -0.91077,-0.26553 -0.6828,-2.04991 0,0 -0.30384,-0.15173 -0.22797,-0.45557 0,0 -0.0929,-0.41499 0.64524,-0.26554 l 0,0 z"
     id="path6812"
     style="fill:#ffffff;fill-rule:evenodd" /><path
     d="m 107.35322,41.918423 c 0,0 -2.95348,-2.82337 -4.3809,-2.99558 0,0 -0.5322,-0.0599 -0.95516,0.10318 0,0 -0.30005,0.16842 0.0368,0.29663 0,0 0.0596,0.025 0.10242,0.0205 0.29777,-0.0323 0.84742,-0.002 0.90167,0.20522 0,0 0.0501,0.19156 0.8607,0.24998 0,0 0.4901,0.044 0.17222,0.49995 0,0 -0.0994,0.13618 -1.08982,-0.17487 0,0 -1.66413,-0.52499 -2.15271,-0.8258 0,0 -0.38881,-0.20181 -0.5451,0.025 0,0 -0.14908,0.24467 0.17222,0.40627 0,0 1.93535,0.89408 2.91061,1.16948 0,0 0.57772,0.2128 0.84856,0.025 0,0 0.31561,0.52576 1.66375,0.55003 0,0 0.31599,0.60049 0.91837,0.65056 0,0 0.27767,0.35354 0.6312,0.22456 3.8e-4,7.6e-4 0.28412,-0.0944 -0.0948,-0.43016 l 0,0 z"
     id="path6814"
     style="fill-rule:evenodd" /><polygon
     points="97.866,117.116 97.866,117.116 98.766,117.615 98.265,118.816 97.566,118.015 "
     transform="matrix(0.37933172,0,0,0.37933172,52,-6.9381277e-6)"
     id="polygon6816"
     style="fill:#ffffff;fill-rule:evenodd" /><path
     d="m 160.25862,50.726503 0.41878,-0.38388 v -2.90037 c -0.66459,-1.25635 -1.55602,-2.57946 -2.24033,-2.29496 0,0 -1.66603,0.79698 -1.93611,-1.13913 0,0 -0.0857,-1.73658 -1.59471,-1.70813 0,0 -1.94484,-0.0284 -2.16371,1.70813 0,0 -0.10546,1.08185 -0.45558,1.13913 0,0 -1.70699,0.569 -0.68242,2.96069 0,0 0.22001,0.62627 -0.34216,1.25255 0,0 -1.73582,1.64402 0.45558,3.87146 0,0 1.09703,1.23852 1.02458,2.73346 0,0 -0.099,4.75417 3.4174,5.01022 0,0 0.58796,0.86336 2.27713,0.56899 0,0 1.80258,-0.21773 1.70813,-2.7327 0,0 0.21546,-0.005 0.5322,-0.0941 v -6.8678 c -0.18436,-0.0842 -1.03027,-0.51209 -0.41878,-1.12358 l 0,0 z"
     id="path6818"
     style="fill:#009036;fill-rule:evenodd" /><path
     d="m 195.53305,49.360153 c -0.56217,-0.62628 -0.34215,-1.25255 -0.34215,-1.25255 1.02571,-2.39169 -0.68242,-2.96069 -0.68242,-2.96069 -0.34899,-0.0573 -0.45672,-1.13913 -0.45672,-1.13913 -0.21773,-1.73658 -2.16257,-1.70813 -2.16257,-1.70813 -1.50936,-0.0284 -1.59471,1.70813 -1.59471,1.70813 -0.27008,1.93611 -1.93611,1.13913 -1.93611,1.13913 -0.68128,-0.28298 -1.56588,1.02458 -2.22933,2.27448 v 2.93109 l 0.40778,0.37402 c 0.59783,0.59859 -0.20104,1.02192 -0.40778,1.11789 v 6.87577 c 0.31105,0.0869 0.5212,0.091 0.5212,0.091 -0.0944,2.51497 1.70813,2.73271 1.70813,2.73271 1.68917,0.29436 2.27827,-0.569 2.27827,-0.569 3.51527,-0.25605 3.41512,-5.01022 3.41512,-5.01022 -0.0702,-1.49456 1.02571,-2.73346 1.02571,-2.73346 2.1914,-2.22706 0.45558,-3.87108 0.45558,-3.87108 l 0,0 z"
     id="path6820"
     style="fill:#009036;fill-rule:evenodd" /><path
     d="m 184.45846,41.313013 c -4.04974,-2.76381 -11.05562,-3.02555 -11.05562,-3.02555 0,0 -7.00588,0.26174 -11.05562,3.02555 0,0 -1.66906,1.00864 -1.6702,3.4925 v 17.46064 c 0,0 4.2231,8.50234 12.72582,11.38716 8.50158,-2.88482 12.72582,-11.38716 12.72582,-11.38716 v -17.46064 c -7.6e-4,-2.48424 -1.6702,-3.4925 -1.6702,-3.4925 l 0,0 z"
     id="path6822"
     style="fill:#ffdd00;fill-rule:evenodd" /><path
     d="m 184.98991,46.626693 v 1.36635 c 0,4.85658 0,13.58918 0,13.9871 -0.68356,1.25065 -4.59295,7.89275 -11.58669,10.45097 v 3.7e-4 c -6.99374,-2.55897 -10.90313,-9.19993 -11.58669,-10.45134 0,-0.39716 0,-9.13052 0,-13.98672 v -1.36635 l -1.13913,-1.36712 v 17.00544 c 0,0 4.2231,8.50235 12.72582,11.38716 v -3.8e-4 c 8.50158,-2.88443 12.72582,-11.38715 12.72582,-11.38715 v -17.00507 l -1.13913,1.36674 0,0 z"
     id="path6824"
     style="fill:#e85236;fill-rule:evenodd" /><path
     d="m 186.88581,61.145613 c 0,0 -0.1157,-0.22722 -0.62552,-0.0945 0,0 0.0121,-0.48895 -0.45558,-0.51285 0,0 -0.52917,-0.0118 -0.53106,0.51285 0,0 -0.47455,-0.24656 -1.23359,-0.24656 0,0 0.0565,-2.20202 -0.74008,-2.18268 0,0 -0.0956,-0.99916 -0.91115,-1.06288 0,0 -0.74008,-0.019 -0.75904,0.98702 0,0 -0.98703,-0.0755 -1.06251,1.51846 0,0 -0.91116,0.1138 -1.06365,1.25256 0,0 -0.98702,0.11379 -0.98702,-0.34178 0,0 -0.53106,0.1707 -0.75904,0.70252 0,0 -1.32804,0.47189 -1.40467,-0.0573 0,0 -0.0379,-0.63804 -0.49237,-0.72073 0,0 -0.34216,-0.003 -0.49351,0.51248 0,0 -0.67445,0.2606 -0.79811,-0.20901 0,0 -0.23216,0.34102 -0.54548,0.34102 0,0 -0.49124,0.008 -0.62363,-0.49276 v 0.0118 l -0.003,-0.0118 c -0.13352,0.50072 -0.62362,0.49276 -0.62362,0.49276 -0.31333,0 -0.54662,-0.34102 -0.54662,-0.34102 -0.12214,0.46961 -0.79697,0.20901 -0.79697,0.20901 -0.15098,-0.51513 -0.49351,-0.51248 -0.49351,-0.51248 -0.45444,0.0827 -0.49238,0.72073 -0.49238,0.72073 -0.0766,0.52917 -1.40466,0.0573 -1.40466,0.0573 -0.22798,-0.53182 -0.76018,-0.70252 -0.76018,-0.70252 0,0.45557 -0.98589,0.34178 -0.98589,0.34178 -0.15211,-1.13838 -1.06364,-1.25256 -1.06364,-1.25256 -0.0755,-1.59433 -1.06251,-1.51846 -1.06251,-1.51846 -0.019,-1.00561 -0.75904,-0.98702 -0.75904,-0.98702 -0.8167,0.0637 -0.91116,1.06288 -0.91116,1.06288 -0.79697,-0.0193 -0.74007,2.18268 -0.74007,2.18268 -0.75905,0 -1.23359,0.24656 -1.23359,0.24656 -0.002,-0.52461 -0.53107,-0.51285 -0.53107,-0.51285 -0.46771,0.0239 -0.45557,0.51285 -0.45557,0.51285 -0.5102,-0.13276 -0.62552,0.0945 -0.62552,0.0945 -0.59669,0.96843 -0.0766,1.59433 -0.0766,1.59433 0.40551,0.56217 0.20902,1.23359 0.20902,1.23359 -0.14567,0.66686 0,1.13913 0,1.13913 0.28222,0.98702 0.72111,0.49351 0.72111,0.49351 0.26553,1.56816 0.79697,1.82193 0.79697,1.82193 1.25256,0.83529 2.48614,0.13277 2.48614,0.13277 0.98702,0.60731 1.36711,-0.22798 1.36711,-0.22798 0.75791,0.0762 1.11903,-0.81632 1.11903,-0.81632 0.98702,0.0762 1.21462,-0.98703 1.21462,-0.98703 0.68356,-0.0755 1.13914,-0.98626 1.13914,-0.98626 0.0766,1.59433 0.75904,1.13838 0.75904,1.13838 0.0876,0.60958 0.70252,0.64524 0.70252,0.64524 0.8535,0.13277 1.138,-0.79736 1.138,-0.79736 0.85235,0.14946 0.91115,-0.22722 0.91115,-0.22722 0.16122,-0.3467 0.98892,-0.32129 1.0003,-0.32053 l 0,0 h 0.001 c 0.01,-3.8e-4 0.83908,-0.0262 1.00029,0.32053 0,0 0.0588,0.37668 0.91002,0.22722 0,0 0.28564,0.93013 1.13913,0.79736 0,0 0.61452,-0.0357 0.70253,-0.64524 0,0 0.68241,0.45557 0.75904,-1.13838 0,0 0.45558,0.91078 1.13799,0.98626 0,0 0.22912,1.06289 1.21576,0.98703 0,0 0.35999,0.89256 1.11903,0.81632 0,0 0.38009,0.83529 1.36711,0.22798 0,0 1.23245,0.70252 2.48614,-0.13277 0,0 0.53107,-0.25377 0.79698,-1.82193 0,0 0.43889,0.49351 0.72111,-0.49351 0,0 0.14452,-0.47227 0,-1.13913 0,0 -0.19687,-0.67142 0.20901,-1.23359 -7.6e-4,0 0.51931,-0.6259 -0.0774,-1.59433 l 0,0 0,0 z m -13.48714,3.15566 c -0.23102,0 -0.41803,-0.33988 -0.41803,-0.75904 0,-0.41955 0.18663,-0.75943 0.41803,-0.75943 0.23139,0 0.41802,0.33988 0.41802,0.75943 0,0.41878 -0.18663,0.75904 -0.41802,0.75904 l 0,0 z"
     id="path6826"
     style="fill:#009036;fill-rule:evenodd" /><rect
     width="0"
     height="0.00037933173"
     x="183.98619"
     y="40.830124"
     id="rect6828"
     style="fill-rule:evenodd" /><path
     d="m 183.98619,40.830123 c -0.73552,-0.43737 -1.54691,-0.80418 -2.38372,-1.11258 l 0.75336,-1.5693 -0.005,-0.002 2.22479,-4.63544 -1.68689,-1.06516 c 0,0 -0.96578,1.28745 -1.12927,1.50519 -0.19764,-0.15629 -1.03141,-0.81063 -1.03141,-0.81063 l -0.099,0.0751 c -0.003,0.002 -0.0778,0.0588 -0.20674,0.13618 l -0.10128,-0.90698 -2.53697,-1.09703 -0.0755,0.1066 -0.84553,1.20931 c -0.29663,-0.43358 -0.55458,-0.97792 -0.76663,-1.64706 l -0.0357,-0.11153 h -0.11684 -5.21202 l -0.0357,0.11153 c -0.21243,0.668 -0.46999,1.21196 -0.76663,1.64478 l -0.91912,-1.31363 -0.11873,0.0512 -2.41824,1.04582 -0.10129,0.90888 c -0.13124,-0.0789 -0.20673,-0.13618 -0.21015,-0.13846 l -0.0979,-0.0743 c 0,0 -0.83339,0.65396 -1.03141,0.81025 -0.16463,-0.21774 -1.13002,-1.50519 -1.13002,-1.50519 l -1.68575,1.06516 2.97851,6.20549 c -0.83795,0.3084 -1.65047,0.67559 -2.38714,1.1141 -0.0178,0.01 -0.43357,0.2606 -0.43888,0.68583 -0.003,0.33192 0.24125,0.65359 0.7268,0.95668 l 1.92473,1.14747 v 14.24012 l 0.0368,0.0159 -10e-4,0.002 4.53529,2.03966 h 7.61812 l 3.66966,-1.65085 0.86336,-0.38881 0,0 0.0391,-0.0178 v -14.24543 l 1.91259,-1.14027 c 0.48554,-0.30232 0.73021,-0.62172 0.73021,-0.95022 0,-0.003 0,-0.006 0,-0.008 -0.006,-0.42447 -0.42144,-0.67445 -0.43927,-0.68545 l 0,0 0,0 z m -14.45595,18.71016 c -0.001,-3.8e-4 -0.001,-3.8e-4 -0.002,-0.001 -0.62249,-0.27995 -3.36847,-1.51581 -4.03837,-1.817 0.13125,-0.26515 2.19026,-4.43097 2.52825,-5.11643 l 1.84469,1.08755 -0.3323,5.84702 0,0 0,0 z m 0.67218,-6.35684 2.05256,-2.12654 h 2.28282 l 2.05256,2.12654 -0.008,3.8e-4 0.34898,6.15655 -1.78134,-3.14845 h -3.50389 l -1.78589,3.15338 0.35126,-6.16186 -0.009,0 0,0 0,0 z m 2.20733,-2.44556 v -3.20762 c 0.0288,-0.009 0.0455,-0.014 0.0455,-0.014 l 1.92928,0.007 v 3.21521 h -1.9748 l 0,-3.8e-4 0,0 z m -2.52825,2.59691 -1.81472,-1.0701 c 0,-0.78407 0,-3.25125 0,-3.43826 0.0922,-0.0273 0.91116,-0.2716 1.81472,-0.5413 v 5.04966 l 0,0 0,0 z m 7.38142,6.2089 -0.3323,-5.85043 1.85038,-1.09058 c 0.33458,0.67635 2.40383,4.86379 2.53053,5.12098 -0.25226,0.11304 -3.40071,1.5287 -4.04861,1.82003 l 0,0 0,0 z m -0.35126,-6.2089 v -5.05535 c 0.90584,0.2716 1.72937,0.51892 1.82269,0.54661 0,0.18663 0,2.64546 0,3.43447 l -1.82269,1.07427 0,0 0,0 z m 4.55198,3.97729 c -0.68242,-1.38152 -2.38486,-4.82586 -2.41028,-4.87858 0,-0.0728 0,-3.84453 0,-3.84453 l -4.61646,-1.37811 -2.02715,-0.007 -4.66199,1.38456 c 0,0 0,3.7717 0,3.84453 -0.0254,0.0527 -1.72254,3.4853 -2.40724,4.87213 0,-2.03208 0,-12.23306 0,-13.63166 h 16.12312 c 0,1.40049 0,11.6269 0,13.63849 l 0,0 0,0 z m 2.64394,-15.78816 c 0,0.20901 -0.19991,0.44344 -0.57772,0.67862 0,0 -1.86024,1.10917 -1.93383,1.15241 -0.0357,0 -2.76609,0 -5.98889,0 0.0121,-0.0918 0.0288,-0.18208 0.0288,-0.27729 0,-1.26204 -1.02344,-2.28472 -2.28586,-2.28472 -1.26128,0 -2.28471,1.02306 -2.28471,2.28472 0,0.0948 0.0167,0.18549 0.0277,0.27729 -3.1807,0 -5.85764,0 -5.8933,0 -0.0732,-0.0432 -1.93611,-1.15393 -1.93611,-1.15393 -0.3744,-0.23328 -0.57469,-0.46771 -0.57469,-0.67672 0,-3.8e-4 0,-0.002 0,-0.002 0.002,-0.24543 0.27995,-0.41575 0.28223,-0.41726 0.72907,-0.43358 1.53364,-0.79584 2.36285,-1.10007 l 1.48471,3.0927 0.15211,-0.25226 c 1.40694,-2.32644 3.62945,-3.55624 6.42664,-3.55661 2.79605,3.7e-4 5.0178,1.23017 6.42474,3.55661 l 0.15211,0.25226 0.002,-0.006 0.005,0.006 1.48357,-3.09156 c 0.82808,0.30461 1.63264,0.66687 2.35944,1.09893 0.002,0.002 0.27995,0.17183 0.28336,0.41726 0,3.8e-4 0,0.002 0,0.002 l 0,0 z"
     id="path6830"
     style="fill-rule:evenodd" /><path
     d="m 157.61012,31.982213 c -0.90698,2.02411 1.18693,3.15945 1.20817,3.17121 0.17905,0.14339 0.29019,0.34329 0.31675,0.59517 0.0846,0.81139 -0.75563,1.82686 -0.7636,1.8371 -0.71921,1.0113 -2.07722,0.27957 -2.13488,0.24771 -2.69591,-1.10917 -3.85515,0.32129 -3.90408,0.38274 -1.00788,1.44298 0.56445,3.09687 0.58,3.1128 l 0.37136,0.38237 -0.10014,-0.52272 c -0.1578,-0.83908 0.32357,-1.82535 0.32888,-1.83521 0.83225,-1.22524 2.78733,-0.33381 2.80706,-0.32433 2.61169,1.39405 3.51185,1.06744 3.60516,1.02572 0.49124,-0.12291 0.87702,-0.42068 1.12131,-0.87702 0.74235,-1.38798 -0.0899,-3.77587 -0.12442,-3.87677 0.002,0.008 -0.45217,-1.58485 -0.45217,-1.58485 -0.20332,-0.84477 0.47,-1.60761 0.47682,-1.61481 4.14648,-4.92487 12.36356,-4.77465 12.44702,-4.77276 0.0899,-0.002 8.30812,-0.15211 12.45004,4.76858 0.011,0.011 0.6847,0.77422 0.48024,1.62468 10e-4,-0.006 -0.45444,1.5875 -0.45444,1.5875 -0.0322,0.0922 -0.86336,2.48007 -0.12101,3.86805 0.24353,0.45634 0.62893,0.75411 1.14672,0.88574 0.0679,0.0326 0.96805,0.35961 3.5862,-1.03861 0.0133,-0.006 1.96722,-0.89674 2.81161,0.34747 l 0,0 c 0,0.003 0.34898,0.72338 0.34898,1.45474 0,0.121 -0.01,0.24277 -0.0322,0.36188 l -0.099,0.52272 0.37022,-0.38237 c 0.0156,-0.0167 1.58827,-1.66982 0.58569,-3.10597 l -0.006,-0.007 c -0.0478,-0.0618 -1.20817,-1.49191 -3.88739,-0.39071 -0.0732,0.0394 -1.43236,0.77118 -2.1436,-0.22987 -0.0156,-0.0201 -0.85578,-1.03558 -0.77005,-1.84697 0.0254,-0.25188 0.1377,-0.45178 0.34102,-0.61072 -0.003,0.004 2.08936,-1.13117 1.18466,-3.15187 -0.0391,-0.0827 -3.92533,-7.86582 -15.78855,-7.86582 -11.86246,0 -15.74871,7.78312 -15.78665,7.86203 l 0,0 z"
     id="path6832"
     style="fill-rule:evenodd" /><path
     d="m 159.45178,35.715593 c 0.099,0.94567 -0.79698,2.02942 -0.82808,2.0647 -0.19991,0.28109 -0.44686,0.45217 -0.71011,0.54965 l 0.002,3.8e-4 c -0.007,0.002 -0.0133,0.004 -0.0201,0.007 -0.0345,0.0121 -0.069,0.0235 -0.10318,0.0334 -0.61679,0.21129 -1.1323,0.28792 -1.49457,0.30499 0.0967,0.0372 0.16008,0.0649 0.16463,0.0671 2.48387,1.32576 3.32826,1.02192 3.35861,1.01092 0.43243,-0.10963 0.74121,-0.34747 0.94453,-0.72642 0.45103,-0.84288 0.23898,-2.15916 0.0455,-2.95386 -0.36112,-0.27881 -1.02571,-0.43168 -1.38683,-0.49731 0.009,0.0463 0.0228,0.0907 0.0273,0.1396 l 0,0 z"
     id="path6834"
     style="fill:#ffffff;fill-rule:evenodd" /><path
     d="m 189.14055,38.406193 c -0.35771,-0.066 -0.70138,-0.24657 -0.9635,-0.61566 -0.0379,-0.0455 -0.93467,-1.12927 -0.83567,-2.07494 0.006,-0.0474 0.019,-0.0899 0.0277,-0.13429 -0.37895,0.0713 -1.05036,0.23102 -1.39252,0.51893 -0.19232,0.79394 -0.39451,2.09202 0.0523,2.92731 0.20218,0.37895 0.51134,0.61679 0.96577,0.734 0.008,0.003 0.8535,0.30726 3.34381,-1.0223 0.003,-0.001 0.0645,-0.0284 0.16236,-0.0649 -0.33875,-0.0182 -0.8057,-0.0899 -1.36029,-0.26819 l 0,0 z"
     id="path6836"
     style="fill:#ffffff;fill-rule:evenodd" /><path
     d="m 188.89626,32.120663 c -0.0368,-0.0766 -3.84642,-7.68147 -15.49949,-7.68147 -11.65307,0 -15.46308,7.60485 -15.49722,7.67692 -0.64676,1.44298 0.45103,2.35337 0.90888,2.6576 0.41689,-1.08755 1.60913,-2.53811 1.85379,-2.82982 0.0243,-0.03 0.041,-0.0482 0.0444,-0.0523 0.001,-0.001 0.001,-0.002 0.002,-0.003 0.001,-3.8e-4 0.001,-0.002 0.001,-0.002 v 3.8e-4 c 0.59138,-0.70138 1.26355,-1.29807 1.97935,-1.81245 -0.48213,-0.71959 -0.12442,-1.0075 -0.12442,-1.0075 0,0 0.40778,-0.1707 0.79584,0.558 0.91229,-0.56938 1.88035,-1.01509 2.84044,-1.3637 -0.10887,-0.011 -0.22002,-0.0296 -0.33344,-0.0618 -0.60806,-0.17374 -1.02002,-0.59783 -0.92139,-0.94795 0.099,-0.3505 0.67141,-0.49351 1.2791,-0.32016 0.60693,0.17374 1.01927,0.59859 0.92026,0.94795 -0.008,0.0277 -0.0235,0.0516 -0.0368,0.0774 0.97222,-0.2974 1.91373,-0.50072 2.76153,-0.6407 -0.43888,-0.10052 -0.76587,-0.49047 -0.76587,-0.95895 0,-0.54472 0.44116,-0.98588 0.98475,-0.98588 0.54472,0 0.98588,0.44116 0.98588,0.98588 0,0.36606 -0.20218,0.6828 -0.49882,0.85236 1.64478,-0.22153 2.7896,-0.2018 2.8173,-0.20066 0.03,-0.001 1.16796,-0.0212 2.80288,0.19763 -0.29323,-0.1707 -0.49351,-0.48517 -0.49351,-0.84971 0,-0.54472 0.44002,-0.98588 0.98474,-0.98588 0.54358,0 0.98589,0.44116 0.98589,0.98588 0,0.4662 -0.32547,0.85464 -0.76019,0.95668 0.84478,0.13959 1.78362,0.34102 2.75281,0.63576 -0.0121,-0.0228 -0.0265,-0.0444 -0.0345,-0.0702 -0.099,-0.34936 0.31332,-0.77421 0.92025,-0.94795 0.60807,-0.17335 1.18011,-0.0307 1.27911,0.32016 0.10014,0.35012 -0.31333,0.77421 -0.92026,0.94795 -0.10887,0.0307 -0.21546,0.0482 -0.31902,0.0599 0.95668,0.34671 1.92056,0.78977 2.83058,1.35573 0.38578,-0.71731 0.79015,-0.54851 0.79015,-0.54851 0,0 0.35581,0.28564 -0.11874,0.9984 0.72111,0.51627 1.39708,1.11562 1.9915,1.82079 0.001,0.002 0.009,0.0118 0.011,0.0144 l 0.0167,-0.0144 c 0,3.8e-4 0.002,0.003 0.002,0.004 v 3.8e-4 c 0.0622,0.0721 1.43236,1.68309 1.89477,2.8685 0.44912,-0.30308 1.52491,-1.20969 0.88611,-2.63825 l 0,0 z"
     id="path6838"
     style="fill:#ffffff;fill-rule:evenodd" /><path
     d="m 168.59898,33.741933 c 0.4222,-0.13353 0.79812,-0.40854 1.13117,-0.8114 -0.31788,-0.45292 -0.7469,-1.06781 -0.83112,-1.1873 -0.20673,0.0895 -1.97935,0.85615 -2.12805,0.92063 -0.01,0.0861 -0.0546,0.48517 -0.0944,0.85198 0.46544,0.22495 1.18883,0.45748 1.92245,0.22609 l 0,0 z"
     id="path6840"
     style="fill:#ffffff;fill-rule:evenodd" /><path
     d="m 178.19418,33.741933 c 0.73476,0.23177 1.46043,-0.002 1.92587,-0.22798 -0.041,-0.36568 -0.0857,-0.76398 -0.0945,-0.85009 -0.14908,-0.0645 -1.92131,-0.83111 -2.12805,-0.92063 -0.0846,0.11949 -0.51551,0.73628 -0.83225,1.1892 0.33191,0.40171 0.70745,0.67635 1.12889,0.8095 l 0,0 z"
     id="path6842"
     style="fill:#ffffff;fill-rule:evenodd" /><path
     d="m 167.11086,34.795713 h 1.39708 c 0,0 0.44344,1.08451 0.51248,1.25293 0.19005,0 2.58818,0 2.82944,0 0.0345,-0.22608 0.22797,-1.53743 0.22797,-1.53743 h 2.50701 0.13656 c 0,0 0.19459,1.31135 0.22797,1.53743 0.2424,0 2.64053,0 2.83058,0 0.069,-0.16842 0.51248,-1.25293 0.51248,-1.25293 h 1.39594 c 0,0 0.10886,1.88604 0.11797,2.05218 0.11987,0.0607 1.62126,0.82733 2.26157,1.15355 1.02344,-2.13222 2.04157,-4.25079 2.09923,-4.37256 -0.18322,-0.11569 -1.00903,-0.63727 -1.19793,-0.75676 -0.15022,0.20066 -1.14786,1.53136 -1.14786,1.53136 0,0 -0.94568,-0.74349 -1.09893,-0.86336 -0.29246,0.20218 -1.40238,0.88953 -2.62042,0.50679 -0.98892,-0.31067 -1.74796,-1.26735 -2.26385,-2.82261 -0.19763,0 -2.44062,0 -2.44062,0 0,0 -2.24261,0 -2.43948,0 -0.51665,1.55526 -1.2757,2.51231 -2.26499,2.82261 -1.2169,0.38274 -2.3272,-0.30461 -2.61929,-0.50679 -0.15325,0.11987 -1.09892,0.86336 -1.09892,0.86336 0,0 -0.99802,-1.3307 -1.14786,-1.53136 -0.18891,0.11949 -1.01585,0.64107 -1.19907,0.75676 0.0588,0.12215 1.07692,2.24223 2.10036,4.37522 0.63804,-0.32509 2.14702,-1.09513 2.26727,-1.15621 0.009,-0.16652 0.11531,-2.05218 0.11531,-2.05218 l 0,0 z"
     id="path6844"
     style="fill:#ffffff;fill-rule:evenodd" /></svg>