<?xml version="1.0" encoding="UTF-8" standalone="no"?>
<svg
   xmlns:dc="http://purl.org/dc/elements/1.1/"
   xmlns:cc="http://creativecommons.org/ns#"
   xmlns:rdf="http://www.w3.org/1999/02/22-rdf-syntax-ns#"
   xmlns:svg="http://www.w3.org/2000/svg"
   xmlns="http://www.w3.org/2000/svg"
   version="1.1"
   id="svg61081"
   height="210"
   width="280">
  <defs
     id="defs61083" />
  <metadata
     id="metadata61086">
    <rdf:RDF>
      <cc:Work
         rdf:about="">
        <dc:format>image/svg+xml</dc:format>
        <dc:type
           rdf:resource="http://purl.org/dc/dcmitype/StillImage" />
        <dc:title></dc:title>
      </cc:Work>
    </rdf:RDF>
  </metadata>
  <g
     transform="translate(-235.10066,-427.36218)"
     id="layer1">
    <g
       transform="matrix(0.45708579,0,0,0.45708579,206.80685,289.02699)"
       id="g61684">
      <g
         transform="matrix(0,0.6,0.6,0,-150.52233,159.88887)"
         id="g61065">
        <path
           d="m 805.098,579.246 9.07,-18.324 c -3.891,-0.922 -7.406,-2.039 -10.184,-3.332 -2.406,-1.297 -4.629,-2.961 -6.109,-4.629 -1.109,-1.293 -1.668,-2.586 -1.852,-3.699 -0.187,-0.926 0.184,-1.852 1.11,-2.594 1.297,-1.293 3.89,-0.555 7.777,2.594 1.293,0.738 2.219,1.664 2.961,2.035 4.262,2.965 8.332,4.629 12.402,4.629 4.075,-0.188 7.965,-1.664 11.481,-4.813 5.367,-4.625 8.144,-10.55 8.144,-17.398 0,-6.848 -2.589,-13.324 -8.332,-19.801 -2.402,-2.781 -5.179,-5.555 -8.515,-7.59 -2.961,-2.219 -6.848,-4.07 -10.738,-5.367 l -8.516,17.023 c 2.965,0.559 5.371,1.485 7.406,2.594 2.41,1.293 4.258,2.59 5.742,4.258 0.926,1.293 1.664,2.406 1.848,3.516 0.184,1.109 0,2.035 -0.922,2.777 -1.484,1.109 -4.816,-0.187 -10.371,-4.441 -0.926,-0.559 -1.664,-1.114 -2.035,-1.485 -3.703,-2.961 -7.961,-4.254 -12.035,-4.07 -4.071,0 -7.961,1.48 -11.481,4.629 -5.551,4.808 -8.328,10.918 -8.328,17.949 0,7.219 2.777,14.066 8.328,20.547 2.965,3.328 6.301,6.105 10.184,8.883 3.703,2.222 8.148,4.258 12.965,6.109"
           style="fill:#000000;fill-opacity:1;fill-rule:nonzero;stroke:none"
           id="path3079" />
        <path
           d="m 751.406,532.047 27.77,-35.531 10.738,8.328 13.516,-17.399 -40.176,-31.465 -13.699,17.399 10.734,8.328 -27.769,35.535 18.886,14.805"
           style="fill:#000000;fill-opacity:1;fill-rule:nonzero;stroke:none"
           id="path3081" />
        <path
           d="m 704.379,500.586 1.668,-8.699 -16.848,-7.403 -5.371,7.032 -23.695,-10.735 48.691,-51.82 24.809,11.102 -5.555,71.07 -23.699,-10.547 z m 9.07,-47.195 -0.367,-0.184 c -0.926,1.664 -13.516,18.508 -13.516,18.508 l 9.071,4.07 c 0,0 4.074,-20.73 4.812,-22.394"
           style="fill:#000000;fill-opacity:1;fill-rule:nonzero;stroke:none"
           id="path3083" />
        <path
           d="m 639.953,478.375 c -2.594,-0.371 -4.812,-0.922 -7.035,-1.293 -4.074,-0.926 -7.406,-1.668 -10.184,-2.594 -4.261,-1.48 -7.406,-3.144 -10.183,-5.179 -4.996,-3.887 -8.699,-8.887 -10.922,-14.254 -2.223,-5.551 -2.777,-11.473 -1.664,-17.582 1.109,-6.477 3.699,-11.844 7.59,-16.473 4.074,-4.254 9.07,-7.586 15.179,-9.437 2.778,-0.926 6.11,-1.297 10.184,-1.481 0.367,0 0.922,0 1.293,0 4.262,0.184 9.629,0.738 15.555,1.852 l 19.437,3.515 -11.664,66.074 -17.586,-3.148 z m 2.035,-46.824 -1.109,-0.371 c -2.961,-0.555 -5.738,-0.555 -7.961,0 -1.297,0.371 -2.594,0.742 -3.52,1.48 -2.777,1.481 -4.441,4.629 -5.183,9.07 -0.738,4.258 0,7.774 2.035,10.18 1.484,1.664 3.707,3.145 6.668,4.07 1.293,0.372 2.961,0.743 4.629,1.114 l 4.441,-25.543"
           style="fill:#000000;fill-opacity:1;fill-rule:nonzero;stroke:none"
           id="path3085" />
        <path
           d="m 584.969,472.082 -4.633,-66.996 -44.801,3.144 1.297,17.954 21.106,-1.297 0.554,6.48 -19.254,1.293 1.11,17.028 19.254,-1.293 0.558,7.218 -21.847,1.481 1.296,18.136 45.36,-3.148"
           style="fill:#000000;fill-opacity:1;fill-rule:nonzero;stroke:none"
           id="path3087" />
        <path
           d="m 500.73,485.781 -27.402,-61.449 -22.031,9.809 18.332,41.461 -21.477,9.621 8.883,19.988 43.695,-19.43"
           style="fill:#000000;fill-opacity:1;fill-rule:nonzero;stroke:none"
           id="path3089" />
        <path
           d="m 372.617,483.559 21.289,-16.657 60.168,38.125 -20.367,16.102 -6.848,-5.551 -14.441,11.289 3.52,7.957 -20.551,16.102 -22.77,-67.367 z m 33.324,28.129 7.774,-6.106 c 0,0 -16.289,-13.324 -17.586,-14.621 l -0.188,0.184 c 0.926,1.484 8.887,17.953 8.887,17.953 l 1.113,2.59"
           style="fill:#000000;fill-opacity:1;fill-rule:nonzero;stroke:none"
           id="path3091" />
        <path
           d="m 386.5,564.809 -37.211,-61.633 -16.109,20.73 14.629,20.543 c 2.218,2.778 4.257,5.551 5.921,7.219 1.481,2.035 3.149,3.699 4.629,5.18 l -0.183,0.371 c -2.039,-1.106 -4.074,-2.406 -6.481,-3.516 -2.222,-1.113 -5,-2.223 -7.777,-3.328 l -24.25,-9.258 -15.926,20.36 68.875,21.097 13.883,-17.765"
           style="fill:#000000;fill-opacity:1;fill-rule:nonzero;stroke:none"
           id="path3093" />
        <path
           d="m 278.75,614.777 11.109,-24.8 71.094,5.554 -10.555,23.688 -8.699,-1.664 -7.406,16.843 7.031,5.368 -10.734,23.687 -51.84,-48.676 z m 46.84,0.188 c 0,0 -20.735,-4.074 -22.399,-4.813 l -0.187,0.371 c 1.668,0.922 18.512,13.508 18.512,13.508 l 4.074,-9.066"
           style="fill:#000000;fill-opacity:1;fill-rule:nonzero;stroke:none"
           id="path3095" />
        <path
           d="m 332.441,665.859 -66.093,-11.66 -4.258,23.875 44.617,7.957 -4.074,23.137 21.476,3.887 8.332,-47.196"
           style="fill:#000000;fill-opacity:1;fill-rule:nonzero;stroke:none"
           id="path3097" />
        <path
           d="m 323.371,719.531 -67.211,2.407 0.93,24.246 45.355,-1.664 0.746,23.503 21.844,-0.742 -1.664,-47.75"
           style="fill:#000000;fill-opacity:1;fill-rule:nonzero;stroke:none"
           id="path3099" />
        <path
           d="m 298.004,850.012 c -4.625,-0.367 -9.07,-1.664 -13.145,-3.887 -3.886,-2.59 -7.589,-5.551 -10.367,-9.254 -2.965,-3.703 -5,-7.957 -6.293,-12.957 -1.48,-4.809 -2.039,-9.621 -1.48,-14.25 0.371,-4.812 1.851,-9.254 3.886,-13.324 2.407,-4.07 5.184,-7.59 8.883,-10.363 3.52,-2.778 7.778,-4.813 12.594,-6.293 3.332,-0.926 6.664,-1.297 9.813,-1.481 1.48,0 2.777,0 4.257,0.184 4.442,0.371 8.7,1.851 12.774,4.258 4.074,2.406 7.777,5.367 10.551,9.066 2.964,3.703 5,7.961 6.48,12.773 1.297,4.809 1.668,9.438 1.297,14.254 -0.555,4.809 -1.852,9.25 -4.074,13.321 -2.219,4.074 -5.184,7.589 -8.887,10.367 -3.332,2.961 -7.59,5.179 -12.402,6.476 -3.332,0.926 -6.664,1.481 -9.996,1.481 -1.297,0 -2.594,-0.188 -3.891,-0.371 z m 7.035,-24.985 c 3.703,-1.113 6.481,-2.773 7.961,-5.554 1.668,-2.407 2.223,-5.364 1.297,-8.696 -0.926,-3.332 -2.961,-5.554 -5.738,-7.035 -2.036,-0.926 -4.075,-1.293 -6.664,-0.926 -0.926,0 -2.04,0.184 -3.149,0.555 -3.519,0.926 -6.109,2.961 -7.961,5.555 -1.664,2.59 -2.035,5.551 -1.109,8.883 0.926,3.332 2.777,5.738 5.738,7.031 1.852,0.926 4.07,1.113 6.481,0.926 1.109,-0.184 2.035,-0.368 3.144,-0.739"
           style="fill:#000000;fill-opacity:1;fill-rule:nonzero;stroke:none"
           id="path3101" />
        <path
           d="m 349.66,847.051 -59.801,30.539 11.11,21.84 59.984,-30.356 -11.293,-22.023"
           style="fill:#000000;fill-opacity:1;fill-rule:nonzero;stroke:none"
           id="path3103" />
        <path
           d="m 359.102,877.402 -10,17.77 c 3.89,1.109 7.218,2.406 9.816,3.887 2.59,1.48 4.625,3.148 6.105,4.996 0.926,1.293 1.481,2.59 1.668,3.703 0,0.926 -0.371,1.847 -1.296,2.59 -1.485,1.109 -4.075,0.183 -7.774,-2.961 -1.117,-0.926 -2.039,-1.852 -2.594,-2.223 -4.257,-3.144 -8.144,-4.996 -12.402,-5.367 -4.074,0 -7.961,1.297 -11.48,4.258 -5.743,4.441 -8.887,9.992 -9.258,17.027 -0.371,6.848 2.039,13.324 7.222,20.172 2.219,2.777 5,5.738 8.145,7.961 2.961,2.402 6.664,4.441 10.555,6.105 l 9.441,-16.656 c -2.965,-0.738 -5.371,-1.851 -7.406,-3.144 -2.223,-1.297 -4.074,-2.59 -5.367,-4.442 -0.926,-1.301 -1.485,-2.594 -1.668,-3.703 -0.184,-0.926 0.183,-1.852 0.925,-2.59 1.481,-1.109 4.813,0.555 10.368,4.992 0.554,0.559 1.296,1.301 1.851,1.485 3.516,3.144 7.59,4.625 11.664,4.808 4.071,0 8.145,-1.105 11.66,-4.07 5.926,-4.441 9.075,-10.363 9.262,-17.582 0.555,-7.031 -1.851,-14.066 -7.039,-20.914 -2.773,-3.516 -6.105,-6.477 -9.812,-9.25 -3.516,-2.594 -7.961,-4.813 -12.586,-6.852"
           style="fill:#000000;fill-opacity:1;fill-rule:nonzero;stroke:none"
           id="path3105" />
      </g>
      <path
         id="path3017"
         style="fill:#f5792a;fill-opacity:1;fill-rule:nonzero;stroke:none"
         d="m 289.85907,363.46227 c 81.5064,0 147.9162,66.429 147.9162,147.9636 0,81.5316 -66.4098,147.9606 -147.9162,147.9606 -81.5088,0 -147.9144,-66.429 -147.9144,-147.9606 0,-81.5346 66.4056,-147.9636 147.9144,-147.9636" />
      <g
         transform="matrix(0,0.6,0.6,0,-150.52233,159.88888)"
         id="g61202">
        <g
           id="g3129"
           transform="matrix(0,0.999841,-1.00016,0,0,0)">
          <path
             d="m 864.215,-638.555 -4.996,0 c -24.989,0 4.071,-39.798 -60.717,-39.798 l -21.101,0 0,171.777 c 0,23.879 31.099,7.96 31.099,26.66 l 0,5.366 -109.029,0 0,-5.366 c 0,-18.7 30.172,-2.781 30.172,-26.66 l 0,-155.674 c 0,-24.434 -30.172,-8.143 -30.172,-28.504 l 0,-6.295 164.744,0 0,58.494 z"
             style="fill:none;stroke:#231f20;stroke-width:5.18307018;stroke-linecap:butt;stroke-linejoin:miter;stroke-miterlimit:4;stroke-dasharray:none;stroke-opacity:1"
             id="path3131" />
        </g>
        <g
           id="g3133"
           transform="matrix(0,0.999841,-1.00016,0,0,0)">
          <path
             d="m 578.041,-561.551 0,-59.417 17.03,0 c 1.11,5.179 2.036,7.218 6.294,7.218 6.845,0 20.175,-12.959 46.461,-12.959 39.428,0 77.93,32.026 77.93,77.378 0,81.073 -104.216,60.342 -104.216,108.104 0,18.876 13.143,29.058 34.431,29.058 31.283,0.555 33.502,-44.981 53.681,-44.981 l 9.255,0 0,54.425 -12.959,0 c -0.738,-2.226 -3.145,-6.667 -6.477,-6.667 -3.888,0 -8.146,4.441 -15.366,8.143 -7.033,2.777 -16.104,6.484 -36.279,6.484 -34.432,0 -67.749,-25.551 -67.749,-64.607 0,-79.597 104.028,-60.901 104.028,-112.728 0,-23.321 -16.104,-35.542 -34.056,-35.542 -52.016,0 -47.762,46.091 -60.905,46.091 l -11.103,0 z"
             style="fill:none;stroke:#231f20;stroke-width:5.18307018;stroke-linecap:butt;stroke-linejoin:miter;stroke-miterlimit:4;stroke-dasharray:none;stroke-opacity:1"
             id="path3135" />
        </g>
      </g>
      <g
         transform="matrix(0,0.6,0.6,0,-150.52233,159.88887)"
         id="g61415">
        <path
           d="m 911.18,681.406 0,0 -0.371,7.774 -1.114,7.59 -1.847,7.214 -2.594,7.219 -3.52,6.848 -3.699,6.293 -4.262,5.922 -5.183,5.367 -5.367,5.183 -5.926,4.258 -6.293,3.699 -6.852,3.52 -7.035,2.402 -7.402,2.039 -7.594,0.922 -7.777,0.559 0,0 -7.957,-0.559 -7.594,-0.922 -7.219,-2.039 -7.222,-2.402 -6.664,-3.52 -6.293,-3.699 -5.926,-4.258 -5.551,-5.183 -5,-5.367 -4.445,-5.922 -3.7,-6.293 -3.335,-6.848 -2.59,-7.219 -1.852,-7.214 -1.297,-7.59 -0.371,-7.774 0,0 0.371,-7.957 1.297,-7.59 1.852,-7.218 2.59,-7.219 3.335,-6.66 3.7,-6.481 4.445,-5.922 5,-5.179 5.551,-5 5.926,-4.442 6.293,-3.886 6.664,-3.145 7.222,-2.777 7.219,-1.664 7.594,-1.297 7.957,-0.371 0,0 7.777,0.371 7.594,1.297 7.402,1.664 7.035,2.777 6.852,3.145 6.293,3.886 5.926,4.442 5.367,5 5.183,5.179 4.262,5.922 3.699,6.481 3.52,6.66 2.594,7.219 1.847,7.218 1.114,7.59 0.371,7.957"
           style="fill:#ffffff;fill-opacity:1;fill-rule:nonzero;stroke:none"
           id="path3019" />
        <g
           id="g61275">
          <g
             transform="matrix(0,0.999841,-1.00016,0,0,0)"
             id="g3021">
            <path
               id="path3023"
               style="fill:none;stroke:#231f20;stroke-width:1.47827995;stroke-linecap:butt;stroke-linejoin:miter;stroke-miterlimit:4;stroke-dasharray:none;stroke-opacity:1"
               d="m 681.515,-911.035 0,0 7.774,0.371 7.591,1.113 7.216,1.848 7.22,2.593 6.849,3.519 6.294,3.699 5.923,4.261 5.368,5.182 5.184,5.367 4.259,5.925 3.699,6.291 3.521,6.851 2.402,7.034 2.04,7.401 0.922,7.593 0.558,7.776 0,0 -0.558,7.956 -0.922,7.592 -2.04,7.218 -2.402,7.221 -3.521,6.663 -3.699,6.292 -4.259,5.925 -5.184,5.55 -5.368,4.999 -5.923,4.445 -6.294,3.698 -6.849,3.336 -7.22,2.589 -7.216,1.851 -7.591,1.297 -7.774,0.371 0,0 -7.959,-0.371 -7.591,-1.297 -7.22,-1.851 -7.22,-2.589 -6.661,-3.336 -6.481,-3.698 -5.923,-4.445 -5.181,-4.999 -5,-5.55 -4.443,-5.925 -3.887,-6.292 -3.145,-6.663 -2.778,-7.221 -1.664,-7.218 -1.297,-7.592 -0.371,-7.956 0,0 0.371,-7.776 1.297,-7.593 1.664,-7.401 2.778,-7.034 3.145,-6.851 3.887,-6.291 4.443,-5.925 5,-5.367 5.181,-5.182 5.923,-4.261 6.481,-3.699 6.661,-3.519 7.22,-2.593 7.22,-1.848 7.591,-1.113 7.959,-0.371 z" />
          </g>
          <g
             id="g61246">
            <g
               id="g61238">
              <path
                 id="path3025"
                 style="fill:#231f20;fill-opacity:1;fill-rule:nonzero;stroke:none"
                 d="m 812.688,667.156 1.109,30.168 29.25,8.328 17.031,-24.429 -18.883,-24.434 -28.507,10.367" />
              <path
                 id="path3027"
                 style="fill:#231f20;fill-opacity:1;fill-rule:nonzero;stroke:none"
                 d="m 763.066,652.902 7.961,15.735 22.59,-12.77 6.11,-24.429 -18.145,-5.739 -1.48,1.481 -1.481,1.293 -1.484,1.48 -1.293,1.668 -1.297,1.481 -1.297,1.851 -1.48,1.481 -1.11,1.847 -0.926,1.485 -1.296,1.847 -0.926,1.852 -1.114,1.664 -0.738,2.039 -1.113,1.848 -0.734,1.851 -0.747,2.035" />
              <path
                 id="path3029"
                 style="fill:#231f20;fill-opacity:1;fill-rule:nonzero;stroke:none"
                 d="m 783.25,738.965 16.844,-1.852 -6.477,-25.355 -19.254,-13.695 -10.183,14.437 0.925,2.035 0.739,2.035 1.113,2.035 0.926,1.668 0.926,1.665 1.109,1.667 0.926,1.848 1.297,1.481 1.293,1.851 1.296,1.481 1.114,1.48 1.48,1.481 1.297,1.484 1.481,1.48 1.48,1.293 1.668,1.481" />
              <path
                 id="path3031"
                 style="fill:#231f20;fill-opacity:1;fill-rule:nonzero;stroke:none"
                 d="m 876.188,745.629 3.332,-17.77 -27.586,0.371 -16.477,15.176 12.031,13.696 3.891,-0.926 3.887,-0.922 3.89,-1.113 3.516,-1.481 3.516,-1.293 3.519,-2.039 3.332,-1.664 3.149,-2.035" />
              <path
                 id="path3033"
                 style="fill:#231f20;fill-opacity:1;fill-rule:nonzero;stroke:none"
                 d="m 910.25,669.375 -15.547,-9.437 -11.109,23.32 7.773,23.32 17.219,-5.183 0.555,-2.407 0.554,-2.406 0.555,-2.223 0.188,-2.957 0.371,-2.406 0.183,-2.594 0.188,-2.406 0,-4.254 -0.188,-1.48 0,-1.485 -0.183,-1.664 0,-1.297 -0.188,-1.664 -0.371,-1.48 0,-1.297" />
              <path
                 id="path3035"
                 style="fill:#231f20;fill-opacity:1;fill-rule:nonzero;stroke:none"
                 d="m 845.453,605.523 -14.07,12.957 18.144,15.547 25.735,0.926 0,-18.512 -0.559,-0.367 -3.328,-2.035 -3.336,-1.851 -3.703,-1.481 -3.516,-1.48 -3.703,-1.297 -4.074,-1.11 -3.887,-0.925 -3.703,-0.372" />
            </g>
            <g
               id="g3037"
               transform="matrix(0,0.999841,-1.00016,0,0,0)">
              <path
                 d="m 631.538,-799.6 0,0 -1.668,-1.296 -1.852,-2.219 -2.036,-2.776 -2.035,-3.703 -2.219,-4.445 -1.669,-4.995 -1.109,-5.737 -0.371,-6.48"
                 style="fill:none;stroke:#231f20;stroke-width:0.55274898;stroke-linecap:butt;stroke-linejoin:miter;stroke-miterlimit:4;stroke-dasharray:none;stroke-opacity:1"
                 id="path3039" />
            </g>
            <g
               id="g3041"
               transform="matrix(0,0.999841,-1.00016,0,0,0)">
              <path
                 d="m 655.971,-793.491 0,0 1.11,-1.851 1.664,-2.59 2.036,-3.148 1.852,-3.331 1.851,-2.961 1.481,-2.777 0.926,-1.667 0.371,-0.742"
                 style="fill:none;stroke:#231f20;stroke-width:0.55274898;stroke-linecap:butt;stroke-linejoin:miter;stroke-miterlimit:4;stroke-dasharray:none;stroke-opacity:1"
                 id="path3043" />
            </g>
            <g
               id="g3045"
               transform="matrix(0,0.999841,-1.00016,0,0,0)">
              <path
                 d="m 711.871,-793.491 0,0 -0.926,-1.851 -1.664,-2.777 -2.036,-2.961 -2.223,-3.331 -2.778,-3.332 -2.035,-2.96 -1.664,-2.039 -1.11,-0.926"
                 style="fill:none;stroke:#231f20;stroke-width:0.55274898;stroke-linecap:butt;stroke-linejoin:miter;stroke-miterlimit:4;stroke-dasharray:none;stroke-opacity:1"
                 id="path3047" />
            </g>
            <g
               id="g3049"
               transform="matrix(0,0.999841,-1.00016,0,0,0)">
              <path
                 d="m 656.893,-841.062 0,0 -1.664,-0.925 -2.59,-1.297 -3.333,-1.297 -3.703,-1.292 -3.888,-1.114 -3.332,-1.296 -2.591,-0.738 -1.664,-0.371"
                 style="fill:none;stroke:#231f20;stroke-width:0.55274898;stroke-linecap:butt;stroke-linejoin:miter;stroke-miterlimit:4;stroke-dasharray:none;stroke-opacity:1"
                 id="path3051" />
            </g>
            <g
               id="g3053"
               transform="matrix(0,0.999841,-1.00016,0,0,0)">
              <path
                 d="m 705.764,-842.913 0,0 2.22,-0.926 2.594,-0.925 3.516,-1.297 3.7,-1.293 3.332,-1.296 3.149,-1.297 2.407,-1.113 1.664,-0.738"
                 style="fill:none;stroke:#231f20;stroke-width:0.55274898;stroke-linecap:butt;stroke-linejoin:miter;stroke-miterlimit:4;stroke-dasharray:none;stroke-opacity:1"
                 id="path3055" />
            </g>
            <g
               id="g3057"
               transform="matrix(0,0.999841,-1.00016,0,0,0)">
              <path
                 d="m 681.331,-859.941 0,0 0.367,-4.074 0.555,-7.589 0.926,-7.592 0.187,-4.257"
                 style="fill:none;stroke:#231f20;stroke-width:0.55274898;stroke-linecap:butt;stroke-linejoin:miter;stroke-miterlimit:4;stroke-dasharray:none;stroke-opacity:1"
                 id="path3059" />
            </g>
            <g
               id="g3061"
               transform="matrix(0,0.999841,-1.00016,0,0,0)">
              <path
                 d="m 635.054,-875.123 0,0 0.371,-0.925 0.922,-1.109 1.114,-1.668 1.293,-1.293 1.668,-1.668 1.848,-1.667 1.852,-1.481 2.223,-1.48 1.852,-1.48 2.035,-1.48 2.036,-1.668 1.852,-1.109 1.664,-0.926 1.664,-0.742 1.297,-0.555 1.297,-0.187"
                 style="fill:none;stroke:#231f20;stroke-width:0.55274898;stroke-linecap:butt;stroke-linejoin:miter;stroke-miterlimit:4;stroke-dasharray:none;stroke-opacity:1"
                 id="path3063" />
            </g>
            <g
               id="g3065"
               transform="matrix(0,0.999841,-1.00016,0,0,0)">
              <path
                 d="m 668.743,-770.905 0.926,0 1.293,0.184 1.297,0.183 1.664,0.188 1.852,0.183 1.852,0.188 2.036,0.183 2.035,0.184 2.223,0 2.219,-0.184 2.223,-0.183 2.036,-0.371 2.406,-0.555 1.852,-0.929 1.852,-1.11 1.664,-1.296"
                 style="fill:none;stroke:#231f20;stroke-width:0.55274898;stroke-linecap:butt;stroke-linejoin:miter;stroke-miterlimit:4;stroke-dasharray:none;stroke-opacity:1"
                 id="path3067" />
            </g>
            <g
               id="g3069"
               transform="matrix(0,0.999841,-1.00016,0,0,0)">
              <path
                 d="m 737.23,-799.967 0,0 1.481,-2.222 1.485,-3.331 1.109,-4.445 1.11,-4.995 0.742,-5.371 0.555,-5.366 0.184,-4.999 -0.372,-4.628"
                 style="fill:none;stroke:#231f20;stroke-width:0.55274898;stroke-linecap:butt;stroke-linejoin:miter;stroke-miterlimit:4;stroke-dasharray:none;stroke-opacity:1"
                 id="path3071" />
            </g>
            <g
               id="g3073"
               transform="matrix(0,0.999841,-1.00016,0,0,0)">
              <path
                 d="m 727.975,-879.38 0,0 -1.848,-1.667 -2.223,-1.848 -2.59,-2.039 -2.778,-1.851 -3.333,-1.847 -3.145,-1.855 -2.961,-1.297 -2.594,-0.738"
                 style="fill:none;stroke:#231f20;stroke-width:0.55274898;stroke-linecap:butt;stroke-linejoin:miter;stroke-miterlimit:4;stroke-dasharray:none;stroke-opacity:1"
                 id="path3075" />
            </g>
          </g>
        </g>
      </g>
      <path
         id="path3011"
         style="fill:#f5792a;fill-opacity:1;fill-rule:nonzero;stroke:none"
         d="m 483.74367,355.35267 c 1.446,1.4466 -0.33,5.7774 -0.996,6.8886 6.33,0.6678 2.772,-0.2226 7.992,-1.221 3.114,-0.4452 0.78,-0.7782 5.22,-2.5548 1.002,-0.333 7.776,-2.3346 8.778,4.554 l -8.886,4.554 c 6.216,1.6638 -0.666,1.5534 6.996,1.5534 l 1.332,-1.1082 2.328,0.6654 c -0.888,4.1112 -1.884,4.221 -3.102,4.9968 -9.888,6.7782 3.216,-0.4428 4.662,5.0016 l -2.556,1.7766 -6.438,1.554 c -0.45,5.2218 0.774,4.1112 0.774,7.9992 0,2.8878 -0.666,2.6646 -8.106,3.333 0,1.1106 0.222,0.888 0.444,0.9984 5.112,1.5564 4.332,2.8896 7.218,4.4436 l -7.44,1.6662 c -0.336,2.2224 0.666,0.333 2.334,1.7766 7.104,6.2208 1.884,2.3346 2.664,5.5548 l -5.772,-0.2226 1.776,0.8886 c 6.438,3.6678 14.988,1.7784 16.212,3 1.554,1.5558 4.104,-1.6668 13.656,3.3324 11.106,5.6652 11.664,6.7758 16.434,11.2194 12.438,11.4426 13.992,16.2168 19.212,20.7732 4.002,3.4428 0.114,0.8856 4.554,5.2194 3.108,3 2.778,2.7774 12.324,2.8896 3.78,0.1104 4.446,1.7766 10.104,11.3274 0.78,1.0008 3,5.3346 4.782,6 0.996,0.333 9.99,10.7742 11.1,12.3282 3,4.3338 -0.336,0.6678 3.33,4.3338 6.108,7.1106 10.662,10.3308 17.55,14.1066 0,2.7774 1.554,2.5572 4.884,2.8902 6.552,0.888 1.554,-0.6684 6.33,0.7782 0,0.9984 1.002,-0.2226 1.668,0.8856 8.658,13.8846 7.104,10.9992 12.102,21.5508 -3.222,1.7766 -2.886,1.7766 -7.332,1.9992 0.78,3.1128 0.78,2.7774 -0.666,6 -2.442,-0.2226 -4.548,-0.333 -4.884,-0.888 -0.78,-1.5564 -3.33,-1.9992 -3.666,-3.8886 -0.336,-2.4444 -5.22,-4.0008 -4.884,-5.8896 l -10.992,-1.4418 c -1.782,-0.3324 -1.11,-1.446 -2.556,-2.2218 -3.774,-1.8888 -5.994,-9.4428 -10.104,-13.9968 -3,-3.4428 -2.778,-1.3332 -12.33,-6.2202 -7.77,-4.1112 -13.77,-10.3314 -15.876,-11.9976 -3,-2.2218 -7.11,-8.442 -11.664,-11.4396 -7.434,-5.112 -3.33,-7.887 -9.99,-5.3322 -13.218,4.6638 -26.874,2.3322 -30.654,1.221 -10.434,-3.2226 -7.878,-2.7774 -17.988,3.333 -1.44,1.0008 -3.216,2.109 -3.996,3.9984 -0.444,1.2234 -1.554,6.8856 -1.668,12.663 l -0.444,9.3306 c 0.336,14.8854 0.444,12.996 -9.882,20.3298 0.78,6.1074 0.888,4.9968 -0.33,10.2186 8.55,0 7.434,0.7758 8.328,1.7766 4.11,3.7758 1.11,0.6654 4.662,0.2226 l 0,-0.888 c 2.664,0 2.334,0 4.002,2.7774 0.66,1.2186 1.218,-0.2232 1.218,1.8864 1.44,0.2226 1.224,0 1.224,0.7782 5.994,-0.5556 6.768,-1.5564 7.662,2.8896 0.222,1.3314 -0.558,1.7766 3.996,4.221 -1.332,3.5532 -1.89,5.6652 -5.778,5.6652 -2.214,0 -1.11,0.4428 -2.214,0.888 -0.672,0.2208 -9.888,3.333 -12,4.9992 -2.106,1.554 -2.328,0.1104 -5.106,1.4442 l -29.982,15.3282 c -6.552,3.3324 -3,4.8864 -5.886,7.3308 -2.55,2.112 -1.662,3.4452 -4.554,4.6668 -2.886,1.221 -8.1048,8.2194 -10.659,10.3284 -2.7774,2.3346 -3.3306,0.3354 -3.999,-0.7758 -12.6582,6.999 -3.663,2.7774 -14.7678,9.5532 -7.884,4.9992 -4.1082,3.8862 -7.5516,5.6652 -6.2202,3.1098 -4.1082,11.9976 -7.2186,17.217 -3.3306,5.2218 2.112,15.2178 -5.6604,18.4404 -2.667,1.3338 -0.8904,1.4442 -2.2218,1.7766 -0.7782,0.2208 -3.3324,2.8878 -3.7758,4.0008 -0.5574,1.7766 -6.996,5.22 -9.2178,8.8854 -0.5556,0.9984 -4.221,3.333 -5.9976,6.5532 -3.108,5.775 -2.442,5.2218 -9.8814,11.8872 -1.0008,0.9984 -7.6638,10.329 -11.9928,13.8846 -4.554,3.5532 -1.4436,5.2194 -4.221,7.7742 -2.3322,2.112 -0.666,0.7782 -0.5556,2.2218 0.6654,5.7774 1.1112,6.6654 -2.1096,5.5548 -2.5542,-0.7782 -3.5532,-0.9984 -5.9952,0.1104 -1.113,0.6678 -0.8904,0.888 -6.3282,1.446 -1.6686,0.2202 0,-1.446 -2.8896,-1.6668 -1.887,2.6652 -3.3306,-0.555 -4.9968,0.5556 -3.2202,1.6662 -1.5564,0.2226 -7.5516,-0.4452 -5.775,-0.6654 -1.887,3.1104 -7.1064,0 -2.4444,-1.221 -0.4452,0.4452 -1.8888,0.5556 -5.5524,0.1122 -0.5556,-0.7782 -5.1072,0.888 -2.775,0.8886 -4.7766,-3.1098 -5.1096,-3.888 7.3314,-9.6636 5.775,-8.8854 11.3274,-13.7742 2.7774,-2.445 2.5548,-3.9984 8.1072,-1.221 l 2.5548,-1.9998 c 1.221,-0.7776 -0.7782,-1.1106 2.2194,-1.4436 2.7774,-0.4452 1.221,-1.1106 4.6638,-4.4436 l 8.4402,-8.2194 c 1.6662,-2.5548 0.3324,-0.6684 4.554,-6.8886 5.217,-7.9968 3.1074,-3.1098 7.4388,-8.3298 7.1088,-11.2194 14.8806,-23.3268 21.7662,-30.6606 3.9966,-3.5532 -0.4452,-7.5516 8.1048,-14.4396 -0.6654,-3.5556 -1.8864,-1.7766 -1.8864,-4.1088 0,-19.329 2.2194,-30.1032 10.329,-66.5394 0.8856,-4.3308 1.2186,-4.6638 3.2178,-8.442 4.554,-8.2218 1.3332,0.1104 4.4436,-8.9976 4.1064,-12.4428 -0.4452,-5.6646 5.6628,-15.1056 2.109,-3.3324 3.996,-0.4452 5.55,-4.0008 2.2218,-5.5548 4.4436,-1.221 5.109,-4.4436 1.4436,-6.2202 1.3338,-5.442 2.1096,-7.1088 2.7774,-6.2202 2.2218,0.4458 2.2218,-8.3292 0,-1.224 1.554,-0.4458 -0.1128,-1.6692 1.224,-3.5532 -3.7758,-9.7734 -4.4412,-10.884 -0.1098,-0.2226 0.1128,-0.333 -0.9984,-0.333 -0.6678,-6 -3.3306,-4.9992 -1.6662,-11.1096 9.1074,-33.8784 5.2194,-19.9944 11.6598,-41.3226 0.4452,-1.7766 -1.1082,-0.4428 0.4452,-3.9984 1.2216,-3.4428 -0.3324,-0.9984 8.9934,-5.5548 l 7.4412,-3.4428 -1.5564,-6.6654 -4.1058,0.6678 c -0.1128,-8.7774 3.5526,-7.7766 -2.4426,-10.554 -2.3316,-2.8872 -1.0008,-3.2202 -1.4436,-7.1082 0.5532,-16.5516 0.5532,-19.995 3.2178,-21.4386 11.883,-6.5556 7.995,-2.7798 13.329,-5.7774 3.552,-1.9992 2.772,-0.333 4.44,-1.554 1.224,-0.8904 5.55,-1.5558 7.998,-1.0008 12.768,2.8878 19.428,-5.3316 20.982,-3.7782" />
      <g
         transform="matrix(0,0.6,0.6,0,-150.52233,159.88887)"
         id="g61594">
        <path
           d="m 914.695,605.523 70.7227,0 0,503.41 -70.7227,0 0,-503.41 z"
           style="fill:#000000;fill-opacity:1;fill-rule:nonzero;stroke:none"
           id="path3013" />
        <g
           id="g61581">
          <path
             id="path3107"
             style="fill:#ffffff;fill-opacity:1;fill-rule:nonzero;stroke:none"
             d="m 969.496,674.559 0,-9.809 -16.848,-2.223 c -1.113,-0.183 -2.593,-0.367 -3.89,-0.554 -1.481,0 -3.145,-0.184 -4.813,-0.371 1.668,-0.184 3.707,-0.739 6.11,-1.481 0.554,-0.183 0.929,-0.183 1.297,-0.367 l 18.144,-5.184 0,-7.031 -18.144,-5.371 c -0.368,0 -0.743,-0.184 -1.297,-0.367 -2.403,-0.742 -4.442,-1.113 -6.11,-1.297 1.485,-0.184 2.965,-0.371 4.446,-0.371 1.297,-0.184 2.777,-0.367 4.257,-0.555 l 16.848,-2.406 0,-9.809 -38.879,6.11 0,10.363 19.992,5.922 c 0.188,0 0.375,0.187 0.743,0.187 1.851,0.555 3.332,0.922 4.628,1.11 -0.738,0 -1.48,0.183 -2.406,0.367 -0.742,0.187 -1.851,0.558 -2.965,0.742 l -19.992,5.922 0,10.551 38.879,5.922" />
          <path
             id="path3109"
             style="fill:#ffffff;fill-opacity:1;fill-rule:nonzero;stroke:none"
             d="m 930.617,711.02 0,-13.329 38.879,-13.324 0,10.551 -7.035,2.035 0,14.992 7.035,2.035 0,10.551 -38.879,-13.511 z m 24.254,-11.844 c 0,0 -17.031,4.996 -17.961,5.179 1.297,0.372 17.961,5.368 17.961,5.368 l 0,-10.547" />
          <path
             id="path3111"
             style="fill:#ffffff;fill-opacity:1;fill-rule:nonzero;stroke:none"
             d="m 969.496,741.742 -17.773,0 -21.106,-13.695 0,12.215 10,5.179 c 0,0 0.184,0.188 0.367,0.188 0.926,0.555 2.036,0.926 2.961,1.109 -0.925,0.184 -1.847,0.555 -2.961,1.11 -0.183,0.187 -0.367,0.187 -0.367,0.371 l -10,5.183 0,12.028 21.106,-13.508 17.773,0 0,-10.18" />
          <path
             id="path3113"
             style="fill:#ffffff;fill-opacity:1;fill-rule:nonzero;stroke:none"
             d="m 969.496,775.797 -38.879,0 0,23.875 8.516,0 0,-13.512 6.664,0 0,12.77 8.332,0 0,-12.77 6.668,0 0,13.512 8.699,0 0,-23.875" />
          <path
             id="path3115"
             style="fill:#ffffff;fill-opacity:1;fill-rule:nonzero;stroke:none"
             d="m 969.496,815.219 -38.879,0 0,10.363 19.992,14.621 c 0.375,0.184 1.297,0.742 2.411,1.485 1.293,0.55 2.773,1.289 4.441,2.031 -1.668,-0.184 -3.148,-0.367 -4.258,-0.367 -1.297,-0.188 -2.406,-0.188 -3.332,-0.188 l -19.254,0 0,10.184 38.879,0 0,-10.184 -20.18,-14.805 c -0.371,-0.187 -1.109,-0.742 -2.406,-1.296 -1.113,-0.739 -2.594,-1.481 -4.258,-2.223 1.481,0.375 2.961,0.375 4.258,0.558 1.297,0 2.406,0.184 3.332,0.184 l 19.254,0 0,-10.363" />
          <path
             id="path3117"
             style="fill:#ffffff;fill-opacity:1;fill-rule:nonzero;stroke:none"
             d="m 969.496,870.188 -38.879,0 0,10.363 19.992,14.621 c 0.375,0.183 1.297,0.742 2.411,1.48 1.293,0.555 2.773,1.293 4.441,2.036 -1.668,-0.184 -3.148,-0.368 -4.258,-0.368 -1.297,-0.187 -2.406,-0.187 -3.332,-0.187 l -19.254,0 0,10.18 38.879,0 0,-10.18 -20.18,-14.805 c -0.371,-0.187 -1.109,-0.742 -2.406,-1.297 -1.113,-0.742 -2.594,-1.48 -4.258,-2.222 1.481,0.375 2.961,0.375 4.258,0.558 1.297,0 2.406,0.184 3.332,0.184 l 19.254,0 0,-10.363" />
          <path
             id="path3119"
             style="fill:#ffffff;fill-opacity:1;fill-rule:nonzero;stroke:none"
             d="m 969.496,925.156 -38.879,0 0,23.875 8.516,0 0,-13.511 6.664,0 0,12.769 8.332,0 0,-12.769 6.668,0 0,13.511 8.699,0 0,-23.875" />
          <path
             id="path3121"
             style="fill:#ffffff;fill-opacity:1;fill-rule:nonzero;stroke:none"
             d="m 969.496,981.23 -38.879,0 0,23.88 8.516,0 0,-13.512 6.664,0 0,12.772 8.332,0 0,-12.772 15.367,0 0,-10.368" />
          <path
             id="path3123"
             style="fill:#ffffff;fill-opacity:1;fill-rule:nonzero;stroke:none"
             d="m 965.051,1009.73 c -1.481,0 -2.774,0.56 -3.703,1.49 -1.11,1.1 -1.481,2.4 -1.481,3.88 0,1.48 0.371,2.78 1.481,3.89 0.929,0.92 2.222,1.48 3.703,1.48 1.484,0 2.965,-0.56 3.887,-1.48 1.113,-1.11 1.671,-2.41 1.671,-3.89 0,-1.48 -0.558,-2.78 -1.671,-3.88 -0.922,-0.93 -2.403,-1.49 -3.887,-1.49" />
          <path
             id="path3125"
             style="fill:#ffffff;fill-opacity:1;fill-rule:nonzero;stroke:none"
             d="m 932.098,1064.52 11.664,0 c -1.664,-1.48 -2.778,-2.97 -3.52,-4.45 -0.922,-1.29 -1.297,-2.96 -1.297,-4.62 0,-2.96 1.114,-5.56 3.153,-7.4 2.035,-1.85 4.812,-2.78 8.144,-2.78 3.149,0 5.738,0.93 7.778,2.78 2.035,2.03 3.144,4.44 3.144,7.4 0,1.66 -0.367,3.14 -1.109,4.62 -0.742,1.48 -2.035,2.97 -3.703,4.45 l 11.664,0 c 0.738,-1.67 1.48,-3.52 1.851,-5 0.371,-1.67 0.555,-3.52 0.555,-5.18 0,-2.04 -0.184,-4.07 -0.742,-5.74 -0.367,-1.85 -1.297,-3.52 -2.223,-4.99 -2.035,-2.97 -4.441,-5.19 -7.402,-6.67 -2.965,-1.48 -6.293,-2.4 -10,-2.4 -2.961,0 -5.739,0.55 -8.145,1.48 -2.406,0.92 -4.629,2.4 -6.664,4.44 -1.851,1.85 -3.332,3.88 -4.258,6.29 -0.925,2.22 -1.297,4.81 -1.297,7.59 0,1.66 0.184,3.51 0.555,5.18 0.371,1.48 1.109,3.33 1.852,5" />
          <path
             id="path3127"
             style="fill:#ffffff;fill-opacity:1;fill-rule:nonzero;stroke:none"
             d="m 965.051,1078.03 c -1.481,0 -2.774,0.55 -3.703,1.48 -1.11,1.11 -1.481,2.4 -1.481,3.88 0,1.49 0.371,2.78 1.481,3.89 0.929,0.93 2.222,1.48 3.703,1.48 1.484,0 2.965,-0.55 3.887,-1.48 1.113,-1.11 1.671,-2.4 1.671,-3.89 0,-1.48 -0.558,-2.77 -1.671,-3.88 -0.922,-0.93 -2.403,-1.48 -3.887,-1.48" />
        </g>
      </g>
      <path
         id="path3077"
         style="fill:#231f20;fill-opacity:1;fill-rule:nonzero;stroke:none"
         d="m 479.74767,351.80008 c 1.446,1.3332 -0.336,5.6646 -0.996,6.7758 6.33,0.6654 2.772,-0.2232 7.992,-1.2216 3.108,-0.4452 0.78,-0.7776 5.22,-2.5542 1.002,-0.3354 7.776,-2.3346 8.772,4.5534 l -8.88,4.554 c 6.216,1.6668 -0.666,1.5564 6.996,1.5564 l 1.332,-1.113 2.328,0.6678 c -0.888,4.1082 -1.998,4.2186 -3.108,4.9992 -9.882,6.7758 3.222,-0.4452 4.662,4.9968 l -2.55,1.779 -6.444,1.554 c -0.444,5.2218 0.78,4.1106 0.78,7.9992 0,2.8872 -0.666,2.6646 -8.106,3.3324 0,1.2216 0.222,0.8886 0.444,0.9984 5.106,1.554 4.326,2.8878 7.218,4.4442 l -7.44,1.6638 c -0.336,2.2242 0.666,0.3354 2.334,1.779 7.104,6.2202 1.884,2.3346 2.664,5.5548 l -5.778,-0.2226 1.776,0.888 c 6.444,3.666 14.994,1.8894 16.218,3 1.554,1.554 4.104,-1.6662 13.656,3.333 11.106,5.6646 11.658,6.7758 16.434,11.3298 12.438,11.3292 13.992,16.1058 19.212,20.6598 3.996,3.4452 0.108,0.891 4.554,5.2218 3.108,3 2.772,2.7774 12.324,2.8878 3.774,0.1122 4.44,1.77899 10.104,11.33219 0.78,0.9984 3,5.3316 4.776,5.9976 1.002,0.3324 9.996,10.7766 11.106,12.4404 3,4.221 -0.336,0.5556 3.33,4.221 6.108,7.1112 10.662,10.3314 17.544,14.1072 0,2.7774 1.56,2.5572 4.89,2.8896 6.546,0.8862 1.554,-0.6678 6.33,0.7758 0,1.0008 0.996,-0.2202 1.662,0.891 8.664,13.884 7.104,10.9968 12.108,21.5484 -3.222,1.779 -2.892,1.779 -7.332,1.9992 0.774,3.1098 0.774,2.7774 -0.666,6 -2.442,-0.2226 -4.554,-0.333 -4.89,-0.891 -0.774,-1.5558 -3.324,-1.9992 -3.66,-3.8856 -0.336,-2.4468 -5.22,-3.9984 -4.89,-5.8878 l -10.992,-1.4436 c -1.776,-0.3348 -1.11,-1.4436 -2.55,-2.2218 -3.78,-1.8912 -6,-9.4428 -10.11,-13.9968 -2.994,-3.4428 -2.772,-1.3338 -12.324,-6.2226 -7.77,-4.1088 -13.77,-10.329 -15.882,-11.9952 -2.994,-2.2224 -7.104,-8.4426 -11.658,-11.4426 -7.44,-5.109 -3.33,-7.8864 -9.996,-5.3298 -13.212,4.6644 -26.868,2.3322 -30.648,1.2216 -10.434,-3.2208 -7.884,-2.7774 -17.988,3.3324 -1.44,0.9984 -3.222,2.1096 -3.996,3.9984 -0.444,1.2216 -1.56,6.8886 -1.668,12.6636 l -0.444,9.4428 c 0.336,14.7726 0.444,12.8838 -9.882,20.2152 0.78,6.1098 0.888,4.9992 -0.33,10.2186 8.55,0 7.434,0.8904 8.322,1.779 4.116,3.7776 1.002,0.6678 4.668,0.2226 l 0,-0.8886 c 2.664,0 2.328,0 3.996,2.7774 0.666,1.221 1.224,-0.2226 1.224,1.887 1.44,0.2226 1.218,0 1.218,0.7782 5.994,-0.5556 6.774,-1.554 7.668,2.8872 0.216,1.3338 -0.558,1.779 3.996,4.221 -1.332,3.5556 -1.89,5.6652 -5.778,5.6652 -2.22,0 -1.11,0.4452 -2.22,1.0008 -0.666,0.2226 -9.882,3.2202 -11.994,4.8888 -2.112,1.554 -2.328,0.1104 -5.106,1.4436 l -29.988,15.3282 c -6.546,3.333 -2.994,4.8894 -5.88,7.3314 -2.556,2.1114 -1.668,3.4452 -4.554,4.6662 -2.8872,1.221 -8.1072,8.2194 -10.662,10.329 -2.7726,2.3346 -3.33,0.3354 -3.996,-0.6654 -12.6582,6.8856 -3.663,2.667 -14.7702,9.4404 -7.884,4.9992 -4.1088,3.8904 -7.5516,5.667 -6.2178,3.1104 -4.1082,12.108 -7.2162,17.2176 -3.3306,5.2194 2.109,15.2178 -5.6652,18.5508 -2.6646,1.221 -0.888,1.3332 -2.2194,1.6662 -0.7758,0.2226 -3.3324,2.8878 -3.7758,3.9984 -0.5556,1.779 -6.996,5.2218 -9.2154,8.8878 -0.558,1.1106 -4.221,3.3324 -5.9976,6.5526 -3.1104,5.7774 -2.4426,5.22 -9.8838,11.8854 -0.9984,1.0008 -7.6614,10.3314 -11.9928,13.9968 -4.554,3.4428 -1.4412,5.112 -4.3314,7.7766 -2.2218,1.9992 -0.5556,0.6654 -0.4428,2.1096 0.6654,5.8872 1.1106,6.6654 -2.112,5.5548 -2.5524,-0.7782 -3.5532,-0.999 -5.9928,0.2226 -1.113,0.555 -0.8904,0.7782 -6.333,1.3332 -1.6662,0.2226 0,-1.3332 -2.8872,-1.6662 -1.887,2.6646 -3.3306,-0.5556 -4.9968,0.5532 -3.2202,1.6662 -1.554,0.225 -7.5516,-0.4428 -5.7726,-0.666 -1.887,3.1098 -7.1064,0 -2.442,-1.2216 -0.4428,0.4428 -1.887,0.555 -5.5518,0.1128 -0.555,-0.7782 -5.109,0.8886 -2.775,0.888 -4.7742,-3.1104 -5.1072,-3.8886 7.329,-9.663 5.7726,-8.8872 11.3274,-13.7718 2.775,-2.4444 2.5524,-4.0008 8.1048,-1.2234 l 2.5548,-1.8888 c 1.221,-0.8886 -0.7782,-1.221 2.2194,-1.554 2.7774,-0.4452 1.2234,-1.1112 4.6662,-4.4436 l 8.4402,-8.22 c 1.6638,-2.5566 0.33,-0.6654 4.4388,-6.8856 5.3322,-7.9992 3.2226,-3.1128 7.5516,-8.3322 7.1088,-11.2194 14.8806,-23.3274 21.7662,-30.6588 3.9984,-3.555 -0.4452,-7.5534 8.1048,-14.3316 -0.6654,-3.6636 -1.8864,-1.887 -1.8864,-4.2192 0,-19.2162 2.2218,-30.105 10.3266,-66.4284 0.888,-4.4418 1.113,-4.7766 3.2202,-8.5524 4.554,-8.2194 1.3332,0.1098 4.4412,-9 4.1112,-12.4386 -0.4428,-5.6628 5.667,-15.1056 2.1072,-3.333 3.9966,-0.4428 5.55,-3.9984 2.2224,-5.5548 4.4418,-1.221 5.1096,-4.4436 1.4412,-6.2208 1.3314,-5.4426 2.1072,-7.1088 2.7774,-6.2226 2.2218,0.4452 2.2218,-8.3322 0,-1.221 1.554,-0.4428 -0.1104,-1.6638 1.221,-3.5556 -3.7758,-9.7782 -4.4436,-10.887 -0.1104,-0.2226 0.1128,-0.3324 -0.9984,-0.3324 -0.6654,-6 -3.3306,-4.8894 -1.6638,-11.1096 9.105,-33.88139 5.2194,-19.99679 11.6574,-41.32259 0.4452,-1.779 -1.1082,-0.4428 0.4452,-3.9984 1.2216,-3.333 -0.3324,-1.0008 8.9934,-5.5548 l 7.4412,-3.4428 -1.5516,-6.666 -4.1106,0.6684 c -0.1104,-8.775 3.5526,-7.7766 -2.4426,-10.5564 -2.3316,-2.8854 -1.0008,-3.2178 -1.4436,-7.1064 0.5532,-16.5516 0.5532,-19.9944 3.2202,-21.438 11.8806,-6.5556 7.9944,-2.7774 13.3242,-5.7774 3.5508,-1.9992 2.7774,-0.333 4.4388,-1.554 1.224,-0.7782 5.556,-1.5564 7.998,-1.0008 12.768,2.8872 19.434,-5.3322 20.988,-3.6654" />
    </g>
  </g>
</svg>
