<?xml version="1.0" encoding="UTF-8" standalone="no"?>
<!-- Generator: Adobe Illustrator 14.0.0, SVG Export Plug-In . SVG Version: 6.00 Build 43363)  -->

<svg
   xmlns:dc="http://purl.org/dc/elements/1.1/"
   xmlns:cc="http://creativecommons.org/ns#"
   xmlns:rdf="http://www.w3.org/1999/02/22-rdf-syntax-ns#"
   xmlns:svg="http://www.w3.org/2000/svg"
   xmlns="http://www.w3.org/2000/svg"
   xmlns:sodipodi="http://sodipodi.sourceforge.net/DTD/sodipodi-0.dtd"
   xmlns:inkscape="http://www.inkscape.org/namespaces/inkscape"
   version="1.1"
   id="Layer_1"
   x="0px"
   y="0px"
   width="240"
   height="223.61858"
   viewBox="0 0 240 223.61858"
   xml:space="preserve"
   inkscape:version="0.48.4 r9939"
   sodipodi:docname="philadelphia-phillies.svg"><metadata
     id="metadata39"><rdf:RDF><cc:Work
         rdf:about=""><dc:format>image/svg+xml</dc:format><dc:type
           rdf:resource="http://purl.org/dc/dcmitype/StillImage" /></cc:Work></rdf:RDF></metadata><defs
     id="defs37" /><sodipodi:namedview
     pagecolor="#ffffff"
     bordercolor="#666666"
     borderopacity="1"
     objecttolerance="10"
     gridtolerance="10"
     guidetolerance="10"
     inkscape:pageopacity="0"
     inkscape:pageshadow="2"
     inkscape:window-width="640"
     inkscape:window-height="480"
     id="namedview35"
     showgrid="false"
     inkscape:zoom="1.0128755"
     inkscape:cx="120"
     inkscape:cy="111.81"
     inkscape:window-x="65"
     inkscape:window-y="24"
     inkscape:window-maximized="0"
     inkscape:current-layer="Layer_1" /><g
     id="g3"
     transform="translate(-5,-4.6914167)"><path
       style="fill:#ffffff"
       d="M 125.079,4.694 C 78.701,5.036 19.436,32.345 5.028,108.18 L 5,108.328 125.079,228.31 245,108.443 C 230.569,25.702 160.245,4.421 125.079,4.694"
       id="path5"
       inkscape:connector-curvature="0" /><path
       style="fill:#cd1141"
       d="m 125.125,10.454 c 32.802,-0.254 98.415,19.604 111.958,96.557 -0.028,0 -111.991,111.907 -111.991,111.907 0,-0.06 -111.602,-111.565 -111.967,-111.925 13.457,-70.74 68.74,-96.22 112,-96.539"
       id="path7"
       inkscape:connector-curvature="0" /><path
       style="fill:#ffffff"
       d="M 125.116,20.838 C 68.372,21.355 31.081,64.476 24.799,104.789 l -0.102,0.656 100.428,100.035 99.939,-100.035 -0.102,-0.647 c -6.126,-40.322 -43.19,-83.443 -99.823,-83.96 h -0.014"
       id="path9"
       inkscape:connector-curvature="0" /><path
       style="fill:#00529b"
       d="m 125.125,23.434 c 54.901,0.508 90.894,42.054 97.149,81.129 -0.961,0.961 -95.361,95.458 -97.149,97.246 -1.797,-1.788 -96.667,-96.275 -97.638,-97.246 6.402,-39.075 42.622,-80.621 97.638,-81.129"
       id="path11"
       inkscape:connector-curvature="0" /><path
       style="fill:#ffffff"
       d="m 205.053,88.963 h -2.116 v 5.756 h -1.423 v -5.756 h -2.115 v -1.251 h 5.654 m 9.58,7.007 h -1.423 v -5.576 h -0.037 l -2.032,5.576 h -1.377 l -1.968,-5.576 h -0.027 v 5.576 h -1.432 v -7.007 h 2.476 l 1.635,4.573 h 0.028 l 1.69,-4.573 h 2.467 v 7.007 z"
       id="path13"
       inkscape:connector-curvature="0" /><path
       style="fill:#ffffff"
       d="m 67.504,70.962 -0.989,0.064 v 13.862 l 1.266,-0.24 c 4.712,-0.896 7.368,-3.954 6.938,-7.978 -0.448,-4.072 -2.878,-5.989 -7.215,-5.708"
       id="path15"
       inkscape:connector-curvature="0" /><path
       style="fill:#ffffff"
       d="m 173.263,97.034 c 0,-0.157 -0.01,-0.3 -0.019,-0.435 0,0 -0.25,-0.679 -0.25,-0.702 -0.462,-0.291 -1.191,-0.337 -2.022,-0.129 -1.451,0.36 -2.809,1.368 -3.475,2.56 l -0.027,0.032 c -1.46,1.737 -2.144,3.931 -1.958,4.966 0.046,0.254 0.138,0.425 0.342,0.54 l 0.868,0.296 c 1.386,-0.019 3.603,-1.289 4.942,-2.836 1.081,-1.271 1.599,-3.055 1.599,-4.292"
       id="path17"
       inkscape:connector-curvature="0" /><path
       style="fill:#ffffff"
       d="m 191.979,91.148 c 0,0 -0.582,-0.434 -0.979,-0.716 -0.212,-0.365 -1.801,-2.998 -1.801,-2.998 l -7.724,5.516 0.083,1.298 c 0.027,0.43 0.037,0.845 0.037,1.261 0,3.035 -0.758,5.603 -2.162,7.626 1.174,-2.111 1.599,-4.038 1.599,-5.557 0,-1.418 -0.305,-2.504 -0.536,-3.123 -1.607,-4.314 -6.347,-6.938 -11.253,-6.231 -1.709,0.25 -6.005,1.464 -8.952,6.643 -0.674,-2.804 -1.912,-7.908 -1.968,-8.167 0.167,-0.171 2.587,-2.61 4.231,-4.273 l 10.967,-0.028 V 66.805 c 0,0 -3.104,0 -3.631,0 0,-0.624 0,-24.112 0,-24.112 -0.056,-0.171 -3.631,-5.955 -3.631,-5.955 L 166.166,36.586 155.1,36.535 c -0.12,0.023 -8.556,3.206 -8.556,3.206 L 124.88,39.723 c 0,0 -20.796,0 -20.801,0 0,-0.019 -8.324,-3.165 -8.324,-3.165 -0.116,-0.023 -11.008,0.028 -11.008,0.028 h -0.176 l -3.672,5.936 c 0,0 -0.046,23.66 -0.046,24.284 -0.088,0 -0.259,0 -0.458,0 -1.372,-1.446 -3.09,-2.674 -5.15,-3.622 -9.054,-4.162 -21.845,-2.263 -28.52,4.241 -4.319,4.222 -6.425,9.382 -5.636,13.789 0.48,2.716 2.065,4.855 4.352,5.88 3.118,1.4 5.479,0.813 6.911,0.083 0.979,-0.508 1.788,-1.219 2.458,-2.004 0,8.943 0,17.83 0,18.625 -2.388,2.794 -3.807,5.663 -3.807,8.231 0,0.785 0.116,1.538 0.351,2.254 0.739,2.245 2.61,3.784 5.127,4.227 2.809,0.499 5.88,-0.384 8.227,-2.352 2.273,-1.908 3.575,-4.633 3.575,-7.488 0,0 0,-11.945 0,-14.542 4.763,-1.806 9.308,-4.005 12.315,-7.626 0,10.5 0,25.933 0,25.942 -0.023,0.189 -0.042,0.388 -0.042,0.578 0,1.806 0.804,3.376 2.277,4.384 1.926,1.316 4.744,1.404 6.855,0.226 1.83,-1.03 2.85,-2.794 2.85,-4.873 0,-0.111 -0.004,-0.222 -0.009,-0.328 0,0 0.004,-11.627 0.004,-12.223 0.06,-0.028 0.092,-0.051 0.143,-0.065 0.014,0.046 0.019,0.056 0.037,0.097 0,0.67 0,11.47 0,11.47 0.042,3.072 1.792,5.386 4.684,6.379 -0.051,0.236 -0.106,0.485 -0.157,0.721 H 59.193 l -0.147,0.023 c -2.786,0.355 -4.675,2.435 -4.675,5.091 0,0.097 0,0.188 0.014,0.281 0.125,2.734 2.25,4.854 4.934,4.934 0,0 14.93,0 34.28,0 -3.335,6.181 -6.537,9.405 -9.008,11.853 -2.965,2.934 -5.007,4.952 -5.007,9.932 0,0.426 0.019,0.864 0.042,1.335 l 0.019,0.291 c 0,0 32.363,0 39.777,0 0.06,-1.681 -0.167,-2.97 -0.374,-4.106 0,0 -0.282,-2.929 -0.282,-2.942 0.092,-1.017 -0.37,-1.653 -0.952,-2.462 -0.508,-0.707 -1.085,-1.511 -1.293,-2.675 l -0.596,-0.859 c 0,0 -0.832,-1.64 -0.832,-1.662 0.055,-0.564 -0.199,-0.942 -0.642,-1.562 0,0 -0.966,-1.898 -0.97,-1.931 -0.231,-1.34 0.083,-2.199 0.351,-2.962 0.24,-0.669 0.448,-1.247 0.287,-2.18 0,0 -0.005,-0.056 -0.005,-0.069 0.471,0 0.938,0 1.404,0 0.037,0.249 0.064,0.489 0.064,0.707 0,0.826 -0.222,1.45 -0.429,2.019 -0.185,0.517 -0.356,0.979 -0.356,1.589 0,0.189 0.019,0.397 0.06,0.619 l 0.734,1.381 c 0.435,0.605 0.91,1.275 0.91,2.222 0,0.088 0,0.181 -0.014,0.277 l 0.448,0.577 c 0,0 0.97,1.636 0.97,1.612 0.148,0.827 0.582,1.432 1.048,2.074 0.633,0.878 1.344,1.871 1.215,3.396 l 0.263,2.582 c 0.222,1.191 0.453,2.555 0.388,4.355 0.046,0 0.097,0 0.111,0 0,0.443 0,1.668 0,1.89 -0.407,0.31 -2.596,2.115 -2.795,4.984 -0.009,0.134 -0.019,0.268 -0.019,0.401 0,1.936 0.975,3.862 2.91,5.737 l -0.097,4.333 v 0.318 h 8.873 v -4.882 c 1.848,-1.654 2.818,-3.571 2.818,-5.507 0,-0.134 0,-0.268 -0.01,-0.401 -0.203,-2.869 -2.401,-4.675 -2.809,-4.984 0,-0.222 0,-1.446 0,-1.89 0.638,0 41.288,0 41.288,0 l 0.018,-0.291 c 0.037,-0.471 0.047,-0.914 0.047,-1.339 0,-4.976 -2.042,-6.994 -5.008,-9.928 -2.467,-2.443 -5.663,-5.663 -8.998,-11.853 13.091,0 22.312,0 22.911,0 2.015,2.587 4.656,4 7.483,3.807 2.837,-0.199 5.313,-1.945 6.468,-4.551 l 0.083,-0.189 0.046,-0.198 c 0.804,-3.313 -0.129,-5.386 -1.053,-6.531 -2.015,-2.499 -5.387,-2.693 -6.754,-2.661 h -11.363 c 1.081,-0.166 2.144,-0.443 3.178,-0.868 1.922,-0.79 3.529,-2.005 4.971,-3.345 5.46,4.786 9.82,4.624 12.527,3.612 4.056,-1.51 6.707,-5.89 7.15,-9.238 0.111,-0.79 0.167,-1.548 0.167,-2.268 0.003,-7.577 -5.809,-11.799 -10.983,-15.56 m -32.5,5.331 c -0.721,1.603 -1.312,3.511 -1.7,5.797 0,-2.268 0,-4.596 0,-4.596 -0.102,-1.247 -0.397,-2.268 -0.813,-3.113 0.979,0.748 1.893,1.441 2.513,1.912 z m 0.304,-13.668 c 0,0 -3.963,3.488 -4.028,3.414 0,0.014 1.765,5.742 1.765,5.742 0.01,0.018 0.01,0.037 0.01,0.055 0,0.06 -0.028,0.12 -0.083,0.157 -0.065,0.046 -0.157,0.046 -0.222,-0.005 0,0 -4.278,-3.307 -4.278,-3.478 -0.018,0.014 -4.489,3.478 -4.489,3.478 -0.064,0.051 -0.157,0.051 -0.222,0.005 -0.056,-0.037 -0.083,-0.097 -0.083,-0.157 0,-0.019 0.009,-0.037 0.009,-0.055 0,0 1.719,-5.548 1.829,-5.553 -0.009,-0.004 -4.093,-3.603 -4.093,-3.603 -0.037,-0.032 -0.064,-0.087 -0.064,-0.143 0,-0.023 0,-0.042 0.019,-0.064 0.027,-0.074 0.093,-0.12 0.176,-0.12 l 4.545,0.125 2.088,-5.954 c 0.028,-0.079 0.102,-0.129 0.176,-0.129 0.083,0 0.157,0.051 0.185,0.129 0,0 1.922,5.474 1.922,5.811 0,0.014 0,0.014 -0.01,0.019 0.019,0 4.722,0 4.722,0 0.083,0 0.147,0.046 0.175,0.12 0.025,0.072 0.007,0.155 -0.049,0.206 z m -21.682,-16.45 c 0.601,0 12.722,0 13.202,0 0.046,0.189 0.545,2.67 1.146,5.622 -0.555,1.404 -2.375,5.913 -3.077,7.677 -1.894,-5.871 -6.282,-10.047 -11.271,-10.231 0,-0.374 0,-2.578 0,-3.068 z m -21.189,16.122 c 0.42,0 0.707,0 0.707,0 0.074,0 0.144,0.046 0.18,0.12 0.023,0.074 0,0.157 -0.055,0.208 0,0 -0.36,0.314 -0.845,0.739 -1.164,1.016 -3.137,2.726 -3.188,2.675 0.004,0.014 1.769,5.742 1.769,5.742 0.009,0.018 0.009,0.037 0.009,0.055 0,0.06 -0.028,0.12 -0.083,0.157 -0.069,0.046 -0.157,0.046 -0.217,-0.005 0,0 -4.277,-3.307 -4.282,-3.478 -0.014,0.014 -4.485,3.478 -4.485,3.478 -0.069,0.051 -0.162,0.051 -0.231,0.005 -0.051,-0.037 -0.074,-0.097 -0.074,-0.157 0,-0.019 0,-0.037 0.005,-0.055 0,0 1.709,-5.548 1.82,-5.553 -0.004,-0.004 -4.083,-3.603 -4.083,-3.603 -0.037,-0.032 -0.06,-0.087 -0.06,-0.143 0,-0.023 0,-0.042 0.014,-0.064 0.023,-0.074 0.092,-0.12 0.171,-0.12 l 4.55,0.125 2.088,-5.954 c 0.028,-0.079 0.097,-0.129 0.18,-0.129 0.074,0 0.152,0.051 0.176,0.129 0,0 1.926,5.474 1.926,5.811 0,0.014 -0.004,0.014 -0.004,0.014 0.007,0.003 2.7,0.003 4.012,0.003 z M 96.148,82.455 c 0,0 3.188,-15.6 3.284,-16.094 0.49,0 12.611,0 13.207,0 0,0.49 0,2.693 0,3.067 -6.208,0.226 -11.548,6.596 -12.213,14.786 L 100.277,89 c -0.416,-0.319 -0.85,-0.61 -1.326,-0.832 -2.18,-1.035 -4.462,-0.776 -6.319,-0.24 0,-1.589 0,-3.612 0,-5.483 l 3.516,0.01 z M 80.6,82.667 c -2.564,5.266 -8.218,7.779 -14.283,9.862 v 16.14 c 0,2.222 -0.998,4.287 -2.822,5.82 -1.889,1.589 -4.439,2.333 -6.643,1.945 -1.654,-0.287 -2.809,-1.215 -3.271,-2.596 -0.152,-0.462 -0.226,-0.96 -0.226,-1.487 0,-2.314 1.446,-5.165 4.056,-7.848 0,0 0,-31.152 0,-31.864 -2.48,1.159 -4.31,3.501 -4.31,4.961 0,0.106 0.009,0.212 0.028,0.305 0.18,0.836 1.1,0.989 1.843,0.97 l 0.25,-0.004 -0.037,0.254 c -0.032,0.185 -0.776,4.601 -3.728,6.19 -1.459,0.785 -3.187,0.734 -5.155,-0.143 -1.663,-0.744 -2.771,-2.282 -3.141,-4.324 -0.656,-3.723 1.224,-8.181 5.04,-11.918 5.991,-5.843 17.974,-7.599 26.168,-3.834 1.067,0.49 1.995,1.076 2.859,1.714 2.217,1.654 3.709,3.765 4.384,6.241 0.351,1.275 0.499,2.642 0.411,4.093 -0.135,2.142 -0.657,3.944 -1.423,5.523 z m 72.845,35.943 c 0.555,0.11 1.1,0.176 1.636,0.203 h -1.589 c -0.01,-0.064 -0.028,-0.138 -0.047,-0.203 z m 32.946,2.523 c 2.115,-0.051 6.873,0.684 5.497,6.328 -1.617,3.677 -7.206,4.998 -10.698,-0.638 H 59.388 c -3.285,-0.097 -3.871,-5.201 -0.046,-5.69 h 127.049 z m -30.164,-2.32 c 2.032,-0.097 3.944,-0.688 5.487,-1.547 0.545,-0.305 0.832,-0.647 1.238,-0.965 2.596,1.335 5.1,2.171 7.502,2.513 h -14.227 z m 44.464,-10.116 c -0.313,2.342 -2.318,6.222 -5.792,7.525 -2.171,0.813 -5.765,0.892 -10.551,-3.589 0.093,-0.162 2.31,-3.996 3.964,-4.453 1.736,1.755 3.288,2.435 4.388,1.917 0.878,-0.416 1.404,-1.593 1.404,-3.09 0,-0.235 -0.009,-0.476 -0.037,-0.725 -0.24,-2.287 -1.718,-5.206 -5.025,-6.102 -0.342,1.266 -3.548,12.44 -11.705,15.803 -4.333,1.783 -9.331,0.984 -14.828,-2.227 -0.194,0.513 -0.942,1.155 -1.829,1.654 -3.243,1.806 -8.01,2.272 -11.761,-1.672 -0.601,0.458 -8.832,6.513 -15.706,-0.471 -0.48,0.439 -4.074,3.524 -8.319,3.354 -2.102,-0.087 -3.968,-1.025 -5.589,-2.716 -0.406,0.416 -2.836,2.767 -6.24,2.804 -2.111,0.023 -4.121,-0.928 -5.964,-2.753 -1.358,1.958 -5.479,3.09 -8.569,2.277 -2.342,-0.615 -3.649,-2.217 -3.69,-4.522 l 0.004,-11.774 c -0.476,-2.171 -2.102,-2.005 -2.578,-1.903 -1.099,0.231 -2.005,1.113 -1.857,1.862 v 12.643 c 0.069,1.409 -0.554,2.559 -1.76,3.238 -1.414,0.79 -3.349,0.734 -4.619,-0.125 -1.035,-0.711 -1.497,-1.857 -1.308,-3.201 V 77.009 c -0.194,-1.645 0.443,-3.063 1.751,-3.898 1.349,-0.864 3.104,-0.915 4.375,-0.134 1.104,0.679 1.695,1.875 1.695,3.4 0,0.208 -0.009,0.43 -0.037,0.651 0,0 0,13.359 0,14.057 0.956,-0.555 4.527,-2.412 7.539,-0.993 2.097,0.988 3.391,3.367 3.839,7.1 v 10.14 c 0.12,1.45 1.51,2.171 2.822,2.139 1.187,-0.028 2.402,-0.698 2.443,-2.125 l 0.005,-9.4 c -0.129,-1.797 0.499,-3.266 1.718,-4.023 1.012,-0.642 2.291,-0.665 3.326,-0.069 1.238,0.716 1.912,2.181 1.852,4.028 v 8.749 c -0.079,1.016 0.305,1.852 1.072,2.347 0.785,0.503 1.811,0.54 2.61,0.102 0.845,-0.471 1.303,-1.395 1.289,-2.61 V 82.972 c -0.115,-2.961 0.42,-5.03 1.631,-6.31 0.933,-0.989 2.268,-1.483 4.074,-1.515 2.061,-0.056 3.723,0.767 4.795,2.374 0.993,1.483 1.474,3.566 1.474,6.116 0,4.619 -1.594,10.768 -4.68,17.664 -0.277,1.459 -0.388,2.545 -0.388,3.381 0,1.543 0.374,2.259 0.748,3.002 0,0 0.157,0.305 0.162,0.337 1.183,1.012 2.499,1.372 3.603,0.984 0.952,-0.333 2.199,-1.367 2.753,-4.356 l 0.01,-22.159 c -0.213,-2.679 0.249,-4.647 1.376,-5.844 1.303,-1.376 3.243,-1.529 4.971,-1.501 1.599,0.051 3.039,1.039 4.074,2.785 0.388,0.666 0.702,1.501 0.961,2.407 0.388,1.344 0.591,2.942 0.582,4.781 -0.037,4.204 -1.266,9.608 -4.582,16.052 -1.257,4.661 0.11,6.781 1.025,7.631 1.09,1.002 2.679,1.289 4.157,0.757 1.607,-0.582 2.697,-1.986 2.938,-3.737 V 97.7 c -0.193,-2.217 1.57,-3.88 3.354,-4.037 1.553,-0.129 3.308,0.845 3.594,4.014 l -0.009,10.172 c 0.425,1.048 1.349,1.626 2.227,1.409 0.859,-0.208 1.783,-1.284 1.58,-3.645 0.914,-12.957 7.963,-14.971 10.098,-15.281 3.926,-0.568 7.687,1.478 8.961,4.869 1.626,4.393 -1.386,9.581 -8,13.766 -0.019,0.088 -0.037,0.199 0.119,0.314 0.685,0.55 3.317,0.444 6.052,-0.97 2.854,-1.479 7.558,-5.285 7.086,-14.385 l 4.804,-3.423 0.12,0.194 c 0,0 0.684,1.141 0.684,1.173 l 1.358,0.993 c 5.183,3.77 10.098,7.35 10.098,13.84 -0.003,0.636 -0.049,1.301 -0.142,1.994 z"
       id="path19"
       inkscape:connector-curvature="0" /><path
       style="fill:#ffffff"
       d="m 124.94,80.413 c -0.259,-0.157 -0.545,-0.175 -0.832,-0.051 l -0.125,0.065 V 94.4 l 0.245,-0.042 c 1.155,-0.175 1.866,-2.989 2.227,-8.846 -0.064,-1.583 -0.476,-4.461 -1.515,-5.099"
       id="path21"
       inkscape:connector-curvature="0" /><path
       style="fill:#ffffff"
       d="m 139.116,80.413 c -0.259,-0.157 -0.545,-0.175 -0.831,-0.051 l -0.129,0.065 V 94.4 l 0.249,-0.042 c 1.146,-0.175 1.875,-3.076 2.227,-8.864 -0.056,-1.565 -0.481,-4.443 -1.516,-5.081"
       id="path23"
       inkscape:connector-curvature="0" /><path
       style="fill:#cd1141"
       d="M 59.388,126.823 H 181.19 c 3.492,5.636 9.081,4.314 10.698,0.638 1.376,-5.645 -3.382,-6.379 -5.497,-6.328 H 59.341 c -3.824,0.489 -3.238,5.594 0.047,5.69"
       id="path25"
       inkscape:connector-curvature="0" /><path
       style="fill:#cd1141"
       d="M 77.227,66.81 C 76.363,66.172 75.435,65.586 74.368,65.096 66.173,61.331 54.191,63.087 48.2,68.93 c -3.815,3.737 -5.696,8.195 -5.04,11.918 0.37,2.042 1.478,3.58 3.141,4.324 1.968,0.877 3.695,0.928 5.155,0.143 2.952,-1.589 3.696,-6.005 3.728,-6.19 l 0.037,-0.254 -0.25,0.004 C 54.227,78.894 53.308,78.741 53.128,77.905 53.109,77.813 53.1,77.707 53.1,77.6 c 0,-1.459 1.83,-3.802 4.31,-4.961 0,0.711 0,31.864 0,31.864 -2.61,2.684 -4.056,5.534 -4.056,7.848 0,0.527 0.074,1.025 0.226,1.487 0.462,1.381 1.617,2.31 3.271,2.596 2.204,0.388 4.753,-0.355 6.643,-1.945 1.825,-1.534 2.822,-3.598 2.822,-5.82 V 92.53 c 6.065,-2.083 11.719,-4.596 14.283,-9.862 0.767,-1.58 1.289,-3.381 1.422,-5.524 0.088,-1.451 -0.06,-2.818 -0.411,-4.093 -0.673,-2.477 -2.166,-4.588 -4.383,-6.241 m -9.446,17.839 -1.266,0.24 V 71.027 l 0.989,-0.064 c 4.337,-0.282 6.767,1.635 7.215,5.709 0.429,4.023 -2.226,7.081 -6.938,7.977 z"
       id="path27"
       inkscape:connector-curvature="0" /><path
       style="fill:#cd1141"
       d="m 190.732,92.867 -1.358,-0.993 c 0,-0.032 -0.684,-1.173 -0.684,-1.173 l -0.12,-0.194 -4.804,3.423 c 0.472,9.1 -4.231,12.906 -7.086,14.385 -2.734,1.414 -5.367,1.52 -6.052,0.97 -0.156,-0.115 -0.138,-0.226 -0.119,-0.314 6.614,-4.185 9.626,-9.373 8,-13.766 -1.274,-3.391 -5.035,-5.437 -8.961,-4.869 -2.135,0.31 -9.184,2.324 -10.098,15.281 0.203,2.36 -0.721,3.437 -1.58,3.645 -0.878,0.217 -1.802,-0.36 -2.227,-1.409 l 0.009,-10.172 c -0.286,-3.169 -2.041,-4.144 -3.594,-4.014 -1.783,0.157 -3.547,1.82 -3.354,4.037 v 8.121 c -0.24,1.75 -1.33,3.155 -2.938,3.737 -1.479,0.531 -3.067,0.245 -4.157,-0.757 -0.915,-0.85 -2.282,-2.97 -1.025,-7.631 3.316,-6.444 4.545,-11.849 4.582,-16.052 0.009,-1.838 -0.194,-3.437 -0.582,-4.781 -0.259,-0.905 -0.573,-1.741 -0.961,-2.407 -1.035,-1.746 -2.476,-2.734 -4.074,-2.785 -1.728,-0.028 -3.668,0.125 -4.971,1.501 -1.127,1.196 -1.589,3.165 -1.376,5.844 l -0.01,22.159 c -0.554,2.989 -1.801,4.023 -2.753,4.356 -1.104,0.388 -2.42,0.028 -3.603,-0.984 -0.005,-0.033 -0.162,-0.337 -0.162,-0.337 -0.374,-0.744 -0.748,-1.459 -0.748,-3.002 0,-0.836 0.11,-1.922 0.388,-3.381 3.086,-6.896 4.68,-13.045 4.68,-17.664 0,-2.55 -0.48,-4.633 -1.474,-6.116 -1.072,-1.607 -2.734,-2.43 -4.795,-2.374 -1.806,0.032 -3.141,0.526 -4.074,1.515 -1.21,1.279 -1.746,3.349 -1.631,6.31 v 23.494 c 0.014,1.215 -0.443,2.139 -1.289,2.61 -0.799,0.438 -1.825,0.402 -2.61,-0.102 -0.767,-0.495 -1.15,-1.331 -1.072,-2.347 v -8.749 c 0.06,-1.848 -0.614,-3.312 -1.852,-4.028 -1.035,-0.596 -2.314,-0.573 -3.326,0.069 -1.219,0.758 -1.848,2.227 -1.718,4.023 l -0.005,9.4 c -0.042,1.427 -1.256,2.097 -2.443,2.125 -1.312,0.032 -2.702,-0.688 -2.822,-2.139 V 97.19 c -0.448,-3.732 -1.742,-6.111 -3.839,-7.1 -3.012,-1.418 -6.583,0.438 -7.539,0.993 0,-0.698 0,-14.057 0,-14.057 0.028,-0.222 0.037,-0.443 0.037,-0.651 0,-1.524 -0.591,-2.721 -1.695,-3.4 -1.271,-0.78 -3.026,-0.729 -4.375,0.134 -1.308,0.836 -1.945,2.254 -1.751,3.898 v 35.439 c -0.189,1.344 0.272,2.49 1.308,3.201 1.27,0.859 3.206,0.915 4.619,0.125 1.206,-0.679 1.829,-1.829 1.76,-3.238 V 99.893 c -0.148,-0.749 0.758,-1.631 1.857,-1.862 0.476,-0.102 2.102,-0.268 2.578,1.903 l -0.004,11.774 c 0.042,2.305 1.349,3.908 3.69,4.522 3.09,0.813 7.211,-0.319 8.569,-2.277 1.843,1.825 3.853,2.776 5.964,2.753 3.404,-0.037 5.834,-2.388 6.24,-2.804 1.622,1.69 3.488,2.628 5.589,2.716 4.245,0.171 7.839,-2.915 8.319,-3.354 6.874,6.984 15.105,0.929 15.706,0.471 3.751,3.945 8.518,3.479 11.761,1.672 0.887,-0.499 1.635,-1.141 1.829,-1.654 5.497,3.21 10.495,4.009 14.828,2.227 8.157,-3.363 11.363,-14.537 11.705,-15.803 3.308,0.896 4.785,3.815 5.025,6.102 0.028,0.25 0.037,0.49 0.037,0.725 0,1.497 -0.526,2.675 -1.404,3.09 -1.1,0.518 -2.651,-0.162 -4.388,-1.917 -1.654,0.458 -3.871,4.292 -3.964,4.453 4.786,4.481 8.38,4.402 10.551,3.589 3.474,-1.303 5.479,-5.183 5.792,-7.525 0.093,-0.693 0.139,-1.358 0.139,-1.991 0.003,-6.487 -4.912,-10.067 -10.095,-13.836 m -66.503,1.492 -0.245,0.042 V 80.427 l 0.125,-0.065 c 0.287,-0.125 0.573,-0.106 0.832,0.051 1.04,0.638 1.451,3.516 1.515,5.1 -0.361,5.857 -1.073,8.671 -2.227,8.846 z m 14.176,0 -0.249,0.042 V 80.427 l 0.129,-0.065 c 0.286,-0.125 0.572,-0.106 0.831,0.051 1.035,0.638 1.46,3.516 1.516,5.082 -0.352,5.788 -1.081,8.689 -2.227,8.864 z m 27.449,9.506 c -0.204,-0.115 -0.296,-0.286 -0.342,-0.54 -0.186,-1.035 0.498,-3.229 1.958,-4.966 l 0.027,-0.032 c 0.666,-1.192 2.023,-2.199 3.475,-2.56 0.831,-0.208 1.561,-0.162 2.022,0.129 0,0.023 0.25,0.702 0.25,0.702 0.009,0.134 0.019,0.277 0.019,0.435 0,1.238 -0.518,3.021 -1.599,4.291 -1.34,1.547 -3.557,2.818 -4.942,2.836 l -0.868,-0.295 z"
       id="path29"
       inkscape:connector-curvature="0" /><path
       style="fill:#00529b"
       d="m 110.976,76.653 c -0.023,-0.079 -0.102,-0.129 -0.176,-0.129 -0.083,0 -0.152,0.051 -0.18,0.129 l -2.088,5.954 -4.55,-0.125 c -0.079,0 -0.148,0.046 -0.171,0.12 -0.014,0.023 -0.014,0.042 -0.014,0.064 0,0.056 0.023,0.111 0.06,0.143 0,0 4.079,3.599 4.083,3.603 -0.111,0.005 -1.82,5.553 -1.82,5.553 -0.005,0.018 -0.005,0.037 -0.005,0.055 0,0.06 0.023,0.12 0.074,0.157 0.069,0.046 0.162,0.046 0.231,-0.005 0,0 4.471,-3.464 4.485,-3.478 0.004,0.171 4.282,3.478 4.282,3.478 0.06,0.051 0.148,0.051 0.217,0.005 0.055,-0.037 0.083,-0.097 0.083,-0.157 0,-0.019 0,-0.037 -0.009,-0.055 0,0 -1.765,-5.728 -1.769,-5.742 0.051,0.051 2.023,-1.659 3.188,-2.675 0.485,-0.425 0.845,-0.739 0.845,-0.739 0.055,-0.051 0.079,-0.134 0.055,-0.208 -0.037,-0.074 -0.106,-0.12 -0.18,-0.12 0,0 -0.286,0 -0.707,0 -1.312,0 -4.005,0 -4.014,0 0,0 0.004,-0.005 0.004,-0.019 0.002,-0.335 -1.924,-5.809 -1.924,-5.809"
       id="path31"
       inkscape:connector-curvature="0" /><path
       style="fill:#00529b"
       d="m 154.933,82.483 c 0.01,-0.005 0.01,-0.005 0.01,-0.019 0,-0.337 -1.922,-5.811 -1.922,-5.811 -0.027,-0.079 -0.102,-0.129 -0.185,-0.129 -0.074,0 -0.147,0.051 -0.176,0.129 l -2.088,5.954 -4.545,-0.125 c -0.083,0 -0.148,0.046 -0.176,0.12 -0.019,0.023 -0.019,0.042 -0.019,0.064 0,0.056 0.027,0.111 0.064,0.143 0,0 4.084,3.599 4.093,3.603 -0.11,0.005 -1.829,5.553 -1.829,5.553 0,0.018 -0.009,0.037 -0.009,0.055 0,0.06 0.027,0.12 0.083,0.157 0.064,0.046 0.157,0.046 0.222,-0.005 0,0 4.472,-3.464 4.489,-3.478 0,0.171 4.278,3.478 4.278,3.478 0.064,0.051 0.156,0.051 0.222,0.005 0.055,-0.037 0.083,-0.097 0.083,-0.157 0,-0.019 0,-0.037 -0.01,-0.055 0,0 -1.765,-5.728 -1.765,-5.742 0.065,0.074 4.028,-3.414 4.028,-3.414 0.056,-0.051 0.074,-0.134 0.046,-0.208 -0.027,-0.074 -0.092,-0.12 -0.175,-0.12 0.002,0.002 -4.701,0.002 -4.719,0.002"
       id="path33"
       inkscape:connector-curvature="0" /></g></svg>