<?xml version="1.0" encoding="UTF-8" standalone="no"?>
<!-- Generator: Adobe Illustrator 14.0.0, SVG Export Plug-In . SVG Version: 6.00 Build 43363)  -->

<svg
   xmlns:dc="http://purl.org/dc/elements/1.1/"
   xmlns:cc="http://creativecommons.org/ns#"
   xmlns:rdf="http://www.w3.org/1999/02/22-rdf-syntax-ns#"
   xmlns:svg="http://www.w3.org/2000/svg"
   xmlns="http://www.w3.org/2000/svg"
   xmlns:sodipodi="http://sodipodi.sourceforge.net/DTD/sodipodi-0.dtd"
   xmlns:inkscape="http://www.inkscape.org/namespaces/inkscape"
   version="1.1"
   id="Layer_1"
   x="0px"
   y="0px"
   width="239.99001"
   height="240"
   viewBox="0 0 239.99001 240"
   xml:space="preserve"
   inkscape:version="0.48.4 r9939"
   sodipodi:docname="texas-rangers.svg"><metadata
     id="metadata139"><rdf:RDF><cc:Work
         rdf:about=""><dc:format>image/svg+xml</dc:format><dc:type
           rdf:resource="http://purl.org/dc/dcmitype/StillImage" /></cc:Work></rdf:RDF></metadata><defs
     id="defs137" /><sodipodi:namedview
     pagecolor="#ffffff"
     bordercolor="#666666"
     borderopacity="1"
     objecttolerance="10"
     gridtolerance="10"
     guidetolerance="10"
     inkscape:pageopacity="0"
     inkscape:pageshadow="2"
     inkscape:window-width="640"
     inkscape:window-height="480"
     id="namedview135"
     showgrid="false"
     inkscape:zoom="0.944"
     inkscape:cx="119.733"
     inkscape:cy="119.824"
     inkscape:window-x="65"
     inkscape:window-y="24"
     inkscape:window-maximized="0"
     inkscape:current-layer="Layer_1" /><g
     id="g3"
     transform="translate(-5.267,-4.824)"><path
       style="fill:#ffffff"
       d="m 125.262,4.824 c -66.17,0 -119.995,53.84 -119.995,120 0,66.17 53.825,120 119.995,120 66.17,0 119.995,-53.83 119.995,-120 0,-66.16 -53.825,-120 -119.995,-120"
       id="path5"
       inkscape:connector-curvature="0" /><path
       style="fill:#ffffff"
       d="m 235.906,124.824 c -0.01,-0.689 -0.04,-1.379 -0.05,-2.068 h -34.513 c -0.547,-18.662 -7.863,-37.167 -22.104,-51.407 -29.618,-29.624 -77.647,-29.624 -107.266,0 -14.294,14.29 -21.622,32.863 -22.124,51.585 l -35.192,-0.04 c -0.015,0.66 -0.024,1.29 -0.039,1.911 0,0.187 -0.01,0.364 -0.01,0.561 0,0.502 0.03,0.995 0.04,1.487 h 35.197 c 0.458,18.791 7.79,37.424 22.129,51.763 29.619,29.613 77.643,29.613 107.266,-0.01 14.379,-14.369 21.706,-33.09 22.129,-51.93 h 34.508 c 0.011,-0.492 0.04,-0.985 0.04,-1.487 -0.001,-0.119 -0.006,-0.247 -0.011,-0.365"
       id="path7"
       inkscape:connector-curvature="0" /><path
       style="fill:#cd1141"
       d="M 125.262,14.17 C 64.893,14.17 15.696,62.771 14.657,122.894 l 0,0 35.192,0.04 c 0.502,-18.722 7.83,-37.295 22.124,-51.585 29.619,-29.624 77.648,-29.624 107.266,0 14.241,14.24 21.558,32.745 22.104,51.407 h 34.513 c 0.01,0.689 0.04,1.379 0.05,2.068 h 0.01 C 235.916,63.805 186.281,14.17 125.262,14.17"
       id="path9"
       inkscape:connector-curvature="0" /><path
       style="fill:#004784"
       d="m 125.262,8.892 c -64.028,0 -115.928,51.91 -115.928,115.933 0,64.023 51.9,115.933 115.928,115.933 64.023,0 115.923,-51.909 115.923,-115.933 0,-64.024 -51.9,-115.933 -115.923,-115.933 M 95.545,194.569 c 0.685,0.039 1.334,-0.01 2.053,-0.158 0.817,0.906 1.526,1.408 2.285,1.852 -1.458,-0.522 -2.9,-1.074 -4.338,-1.694 z m 140.371,-69.381 c 0,0.502 -0.029,0.995 -0.04,1.487 h -34.508 c -0.423,18.84 -7.75,37.561 -22.129,51.93 -20.799,20.799 -50.648,26.935 -76.855,18.534 l 0.571,-0.837 c -1.665,-0.414 -3.762,-1.813 -4.998,-2.994 -2.738,0.699 -4.225,-0.562 -6.116,-1.113 l -0.172,0.581 c -7.095,-3.555 -13.777,-8.243 -19.696,-14.161 -2.812,-2.807 -5.259,-5.82 -7.529,-8.913 0.749,0.443 1.61,0.926 2.314,1.172 l -0.675,-1.143 c 0,0 -1.93,-1.27 -3.486,-2.53 -1.255,-1.881 -2.403,-3.802 -3.471,-5.762 2.245,2.049 3.776,2.403 5.476,3.211 l -0.512,-2.433 c -1.453,-0.463 -4.338,-1.694 -6.475,-3.792 -4.87,-9.946 -7.509,-20.72 -7.771,-31.573 H 14.647 c -0.01,-0.492 -0.04,-0.984 -0.04,-1.487 0,-0.197 0.01,-0.374 0.01,-0.561 0,0.01 -0.01,0.01 -0.01,0.02 0,-0.64 0.04,-1.28 0.049,-1.93 C 15.696,62.771 64.893,14.17 125.262,14.17 c 61.02,0 110.654,49.635 110.654,110.654 h -0.01 c 0.005,0.118 0.01,0.246 0.01,0.364 z"
       id="path11"
       inkscape:connector-curvature="0" /><path
       style="fill:#ffffff"
       d="m 45.152,159.342 c 1.319,-0.482 2.23,-1.408 2.752,-2.767 0.719,-1.872 0.586,-4.521 -0.359,-7.091 l -2.659,-7.249 -0.409,0.395 c 0,0 -1.467,1.418 -1.477,1.428 -0.025,-0.02 -1.792,0.62 -1.792,0.62 0,0 -3.536,1.271 -3.57,1.29 0,-0.098 -2.132,-0.984 -2.132,-0.984 l -0.33,-0.138 c 0,0 -1.059,2.334 -1.177,2.59 -0.261,0.099 -5.918,2.167 -5.928,2.167 -0.01,-0.021 -1.936,-0.128 -1.936,-0.128 l -0.556,-0.03 2.398,6.678 c 0,0 1.871,-1.96 1.876,-1.97 0.025,0.02 4.786,-1.753 6.111,-2.235 0.049,0.138 0.345,0.975 0.438,1.25 -0.281,0.306 -6.795,7.495 -6.795,7.495 l 1.901,5.416 c 0,0 1.684,-2.57 1.728,-2.64 0.113,-0.118 5.515,-5.771 5.914,-6.194 1.673,1.93 4.022,2.816 6.002,2.097 m -0.045,-6.726 c -0.276,0.729 -0.891,1.29 -1.772,1.614 -0.96,0.345 -1.975,0.286 -2.758,-0.147 h -0.01 c -0.605,-0.315 -1.049,-0.847 -1.3,-1.517 0,0 -0.429,-1.152 -0.64,-1.724 0.596,-0.206 5.273,-1.772 5.854,-1.97 0.167,0.453 0.542,1.487 0.542,1.487 0.172,0.473 0.251,0.916 0.251,1.319 10e-4,0.337 -0.053,0.652 -0.167,0.938 z"
       id="path13"
       inkscape:connector-curvature="0" /><path
       style="fill:#ffffff"
       d="m 62.573,178.034 c 0,0 -7.834,2.737 -7.864,2.747 0,-0.049 -2.344,-0.63 -2.344,-0.63 l -0.295,-0.069 c 0,0 -0.931,1.979 -1.044,2.226 -0.295,0.099 -6.559,2.196 -6.559,2.196 0,0 0.04,0.02 0.044,0.02 -0.295,0.021 -0.837,0.099 -2.019,0.276 -0.005,0 -0.936,0.157 -0.936,0.157 l 4.008,4.6 c 0,0 0.936,-1.979 1.039,-2.216 0.222,-0.089 2.516,-1.005 2.89,-1.143 0.291,0.335 3.974,4.51 4.254,4.835 -0.197,0.354 -1.388,2.442 -1.501,2.64 -0.242,0.079 -2.354,0.719 -2.354,0.719 l 5.22,5.958 c 0,0 0.679,-3.043 0.679,-3.063 0.005,0.059 1.35,-2.187 1.35,-2.187 0,0 2.122,-3.525 2.137,-3.545 0.025,0.059 2.088,-0.749 2.088,-0.749 l 0.276,-0.108 c 0,0 -0.418,-2.836 -0.423,-2.846 0.059,0.01 3.634,-7.356 3.634,-7.356 l 0.108,-0.217 -2.053,-2.363 m -4.678,5.091 c -0.689,1.192 -2.561,4.442 -2.935,5.092 -0.487,-0.552 -2.196,-2.501 -2.708,-3.082 0.758,-0.267 4.338,-1.547 5.643,-2.01 z"
       id="path15"
       inkscape:connector-curvature="0" /><path
       style="fill:#ffffff"
       d="m 94.496,203.797 c -0.044,-0.029 -2.669,5.338 -2.669,5.338 0,0 -0.768,1.565 -1.285,2.609 -0.345,-1.891 -2.531,-13.945 -2.531,-13.945 l -5.121,-2.511 0.044,0.63 c 0,0 0.153,2.384 0.153,2.403 -0.03,-0.05 -1.398,2.737 -1.398,2.737 0,0 -0.857,1.753 -0.97,1.989 -0.261,0.099 -2.462,0.946 -2.462,0.946 0,0 0.714,2.679 0.719,2.698 -0.079,-0.01 -1.861,3.595 -1.861,3.595 0,0 -1.034,2.098 -1.049,2.117 -0.024,-0.03 -1.635,1.143 -1.635,1.143 l -0.482,0.364 5.835,2.895 c 0,0 -0.35,-2.944 -0.354,-2.954 0.044,0 3.703,-7.347 5.018,-9.996 0.34,1.95 2.896,16.723 2.896,16.723 l 2.403,1.221 c 0,0 3.885,-7.957 3.9,-7.996 0.044,0.068 2.014,-0.848 2.014,-0.848 l 0.276,-0.128 c 0,0 -0.601,-2.452 -0.611,-2.472 0.089,0 1.566,-3.033 1.566,-3.033 0,0 0.965,-1.989 0.975,-2.009 0.039,0.01 1.566,-1.201 1.566,-1.201 l 0.453,-0.355 -5.643,-2.855 c -0.003,-10e-4 0.253,2.885 0.253,2.895"
       id="path17"
       inkscape:connector-curvature="0" /><path
       style="fill:#ffffff"
       d="m 130.723,220.056 c -0.034,0 -0.045,1.832 -0.045,1.832 l -0.01,3.585 c -0.413,0.128 -0.886,0.512 -2.344,0.502 -3.565,-0.029 -5.663,-3.22 -6.165,-6.372 0.034,-0.029 1.605,-1.595 1.605,-1.595 L 124,217.772 c 0,0 -1.453,-1.724 -1.649,-1.96 0.015,-0.079 0.104,-0.62 0.104,-0.62 0.733,-2.521 2.718,-5.229 6.096,-5.151 2.433,0.05 4.245,0.641 5.097,1.665 0,-0.01 0.301,0.374 0.301,0.374 l 0.63,0.778 0.118,-3.861 -0.251,-0.167 c -1.738,-1.182 -3.235,-1.596 -5.909,-1.615 -5.136,-0.049 -9.809,3.103 -11.37,7.652 -0.005,0.02 -0.256,0.945 -0.266,0.965 -0.015,-0.039 -1.477,1.487 -1.477,1.487 l -0.217,0.227 1.635,2.146 c 0.867,5.141 5.82,9.041 11.463,9.09 3.959,0.03 5.116,-0.541 6.461,-1.211 l 0.787,-0.395 c 0,0 0.04,-7.218 0.04,-7.248 0.049,0 1.023,-1.743 1.023,-1.743 l 0.311,-0.551 -7.479,-0.05 c -0.001,0 1.27,2.452 1.275,2.472"
       id="path19"
       inkscape:connector-curvature="0" /><path
       style="fill:#ffffff"
       d="m 171.666,214.561 c -0.01,-0.039 -3.132,1.33 -3.132,1.33 0,0 -1.211,0.531 -1.684,0.738 -0.152,-0.354 -2.324,-5.545 -2.57,-6.146 0.552,-0.236 3.354,-1.447 3.358,-1.447 0.01,0.01 2.048,-0.099 2.048,-0.099 l 0.518,-0.029 -1.793,-4.323 c 0,0 -1.954,1.812 -1.959,1.812 -0.005,-0.01 -3.255,1.398 -3.255,1.398 0,0 -0.04,0.02 -0.06,0.029 -0.246,-0.571 -1.905,-4.422 -2.146,-4.982 0.512,-0.217 4.815,-2.078 4.973,-2.147 0.197,0.02 3.654,0.207 3.654,0.207 l -1.768,-4.195 -0.498,0.217 -13.162,5.712 2.314,1.693 c 0,0.099 2.143,5.092 2.319,5.535 -0.118,0.256 -1.133,2.433 -1.133,2.433 0,0 2.324,0.856 2.591,0.955 0.108,0.266 2.354,5.761 2.354,5.781 -0.029,0.01 -0.188,2.009 -0.188,2.009 l -0.049,0.61 13.472,-5.869 -1.738,-4.067 c 0.001,-0.001 -2.451,2.835 -2.466,2.845"
       id="path21"
       inkscape:connector-curvature="0" /><path
       style="fill:#ffffff"
       d="m 198.306,183.313 c 0.285,-0.808 0.502,-1.625 0.502,-2.394 0,-1.556 -0.557,-2.964 -1.62,-3.88 -1.073,-0.916 -2.329,-1.271 -3.762,-1.054 -1.975,0.286 -4.215,1.714 -5.982,3.802 l -4.993,5.879 c 0,0 2.561,0.759 2.57,0.759 l 0,0 c 0,0.059 4.19,3.713 4.229,3.752 -0.015,0 -0.015,0.039 -0.015,0.118 0,0.482 0.197,2.216 0.197,2.216 l 0.039,0.364 c 0,0 2.561,-0.227 2.836,-0.256 0.227,0.197 4.807,4.136 4.807,4.136 0,0.06 0.827,1.743 0.827,1.743 l 0.241,0.503 4.634,-5.367 c 0,0 -2.61,-0.68 -2.615,-0.68 0,-0.029 -3.89,-3.329 -4.958,-4.235 0.177,-0.216 0.699,-0.808 0.871,-1.004 0.409,0.089 9.844,2.265 9.844,2.265 l 3.771,-4.323 c 0,0 -3.082,-0.217 -3.127,-0.217 -0.053,-0.02 -7.686,-1.97 -8.296,-2.127 m -3.433,0.364 c 0,0.67 -0.236,1.3 -0.693,1.822 0,0.01 -0.788,0.945 -1.173,1.418 -0.487,-0.443 -4.136,-3.752 -4.589,-4.166 0.306,-0.354 1.029,-1.191 1.029,-1.191 0.586,-0.699 1.236,-1.093 1.905,-1.182 0.778,-0.118 1.562,0.138 2.275,0.748 0.777,0.68 1.221,1.596 1.245,2.492 10e-4,0.02 10e-4,0.039 10e-4,0.059 z"
       id="path23"
       inkscape:connector-curvature="0" /><path
       style="fill:#ffffff"
       d="m 223.793,151.207 c -0.754,-1.703 -2.206,-2.944 -4.077,-3.506 -0.827,-0.256 -1.822,-0.196 -2.452,-0.039 h -0.005 c -1.049,0.296 -1.975,0.965 -2.369,1.319 -0.01,0.01 -1.271,1.251 -1.271,1.251 -0.029,0.039 -0.442,0.532 -0.591,0.709 -0.266,0 -1.852,0.02 -1.852,0.02 0,0 -0.601,2.384 -0.62,2.492 -0.039,0 -0.227,0.217 -0.227,0.217 -1.438,1.506 -2.383,1.517 -2.826,1.378 -0.921,-0.354 -2.497,-1.772 -1.738,-3.87 0.62,-1.733 1.28,-2.629 2.418,-3.27 l 0.29,-0.157 0.015,-0.404 -0.797,-1.802 -0.493,0.246 c -1.394,0.729 -2.619,2.512 -3.451,5.013 -1.118,3.358 -0.453,7.662 2.983,9.021 0.547,0.197 1.35,0.443 2.133,0.296 0.945,-0.197 1.939,-0.699 2.816,-1.418 0.01,-0.01 0.566,-0.522 0.566,-0.522 -0.016,0.01 0.221,-0.177 0.251,-0.206 0.02,0.068 1.57,0.098 1.57,0.098 h 0.281 c 0,0 0.768,-2.698 0.768,-2.708 0.03,0.01 1.852,-2.048 1.852,-2.048 0.704,-0.66 1.68,-1.044 2.305,-0.896 1.063,0.295 1.792,0.936 2.23,1.782 0.542,1.063 0.605,2.403 0.183,3.87 -0.887,2.492 -2.625,3.26 -3.93,3.477 l -0.453,0.079 -0.044,0.463 0.733,1.871 0.384,-0.039 c 1.536,-0.148 4.225,-1.979 5.367,-5.594 0.883,-2.75 0.898,-5.212 0.051,-7.123"
       id="path25"
       inkscape:connector-curvature="0" /><path
       style="fill:#ffffff"
       d="m 62.711,68.877 c 0,-0.069 -4.84,-4.156 -4.919,-4.225 0.005,0 0.01,-0.01 0.01,-0.04 0,-0.325 -0.325,-2.127 -0.325,-2.127 L 57.413,62.15 c 0,0 -2.176,0.227 -2.442,0.246 -0.211,-0.177 -3.58,-3.013 -4.057,-3.407 0.374,-0.453 1.999,-2.423 2.009,-2.442 0.015,0.029 2.615,-1.133 2.615,-1.133 l 0.562,-0.246 -3.531,-2.767 -0.222,0.286 -10.726,12.792 3.403,2.797 c 0,0 0.817,-3.27 0.822,-3.27 0.02,0.01 1.576,-1.842 2.107,-2.472 0.482,0.404 3.865,3.181 4.072,3.348 0.024,0.266 0.281,2.482 0.281,2.482 0,0 2.235,-0.099 2.486,-0.108 0.207,0.177 4.929,4.146 4.929,4.146 0,0.069 0.813,1.822 0.813,1.822 l 0.246,0.532 4.58,-5.476 c 0,0 -2.634,-0.403 -2.649,-0.403"
       id="path27"
       inkscape:connector-curvature="0" /><path
       style="fill:#ffffff"
       d="m 78.044,42.996 c -0.103,0.276 -0.94,2.462 -0.94,2.462 0,0 2.334,0.669 2.605,0.748 0.138,0.286 2.841,5.751 2.846,5.771 -0.035,0.01 -0.049,1.813 -0.049,1.813 l -0.005,0.62 12.783,-6.707 -1.935,-3.88 c 0,0 -2.122,2.846 -2.122,2.856 -0.02,-0.029 -4.097,2.127 -4.949,2.581 -0.3,-0.571 -2.822,-5.505 -3.107,-6.066 0.542,-0.276 3.486,-1.822 3.496,-1.822 0,0.02 1.822,-0.227 1.822,-0.227 l 0.517,-0.069 -1.891,-3.792 c 0,0 -1.694,1.812 -1.699,1.812 -0.01,-0.02 -2.679,1.379 -3.452,1.783 -0.286,-0.542 -2.246,-4.323 -2.526,-4.865 0.576,-0.295 5.161,-2.679 5.175,-2.679 0,0.03 2.787,-0.02 2.787,-0.02 l 0.596,-0.02 -2.083,-4.028 -0.33,0.177 -12.611,6.627 2.275,1.409 c 0.001,0.099 2.423,4.797 2.797,5.516"
       id="path29"
       inkscape:connector-curvature="0" /><path
       style="fill:#ffffff"
       d="m 157.091,46.196 c 0.178,-0.177 2.049,-2.048 2.354,-2.354 0.424,0.197 5.742,2.708 6.165,2.905 -0.049,0.433 -0.335,3.003 -0.364,3.25 -0.187,0.167 -1.753,1.497 -1.753,1.497 l 6.697,3.132 -0.522,-2.787 c 0.02,0 0.906,-6.431 0.916,-6.52 0.06,0.04 1.876,-1.585 1.876,-1.585 l 0.256,-0.227 c 0,0 -1.847,-2.344 -1.856,-2.354 0.089,-0.01 0.483,-8.519 0.483,-8.519 l 0.01,-0.246 -2.63,-1.26 -0.188,0.167 c 0,0 -6.44,5.958 -6.46,5.968 -0.01,-0.049 -2.442,0.325 -2.442,0.325 l -0.315,0.049 c 0,0 0.015,2.187 0.015,2.472 -0.231,0.216 -5.076,4.569 -5.076,4.569 0.049,-0.04 -1.743,1.083 -1.743,1.083 l -0.571,0.354 5.082,2.383 c -0.003,0.003 0.056,-2.045 0.066,-2.302 m 4.52,-4.451 c 0.601,-0.571 3.939,-3.683 4.988,-4.668 -0.163,1.428 -0.675,5.879 -0.769,6.667 -0.684,-0.335 -3.495,-1.654 -4.219,-1.999 z"
       id="path31"
       inkscape:connector-curvature="0" /><path
       style="fill:#ffffff"
       d="m 192.278,74.54 c 1.615,0.502 3.3,0.315 4.885,-0.532 0.764,-0.404 1.428,-1.143 1.714,-1.665 0.581,-0.985 0.738,-2.167 0.738,-2.531 L 199.645,68 c 0,-0.029 -0.059,-0.748 -0.078,-0.984 0.191,-0.197 1.271,-1.3 1.271,-1.3 0,0 -1.222,-2.078 -1.251,-2.127 0.01,-0.01 0.015,-0.069 0.015,-0.138 0,-0.098 -0.005,-0.354 -0.005,-0.414 0,-1.605 0.429,-2.679 1.221,-3.023 0.966,-0.423 3.157,-0.374 4.107,1.674 0.798,1.733 0.955,2.875 0.591,4.215 l -0.094,0.325 1.861,0.719 0.123,-0.374 c 0.625,-1.97 -0.394,-4.54 -1.049,-5.899 -1.541,-3.122 -4.969,-5.673 -8.307,-4.235 -0.513,0.207 -1.231,0.601 -1.665,1.231 -0.536,0.788 -0.886,1.832 -0.994,2.945 l -0.049,0.788 c 0,-0.039 -0.03,0.354 -0.04,0.404 -0.059,-0.049 -1.133,0.985 -1.133,0.985 l -0.206,0.197 c 0,0 1.319,2.403 1.319,2.413 0,0 0,0.029 0,0.079 0,0.453 0.118,2.728 0.118,2.728 -0.029,1.024 -0.492,2.068 -1.093,2.442 -0.769,0.492 -1.753,0.64 -2.709,0.394 -0.905,-0.227 -2.206,-0.906 -3.25,-2.807 -1.161,-2.521 -0.442,-4.383 0.365,-5.496 l 0.275,-0.374 -1.955,-0.847 -0.177,0.217 c -1.113,1.369 -1.463,4.5 0.123,7.623 1.39,2.736 3.221,4.529 5.299,5.179"
       id="path33"
       inkscape:connector-curvature="0" /><path
       style="fill:#ffffff"
       d="m 120.289,40.829 c 0.192,-0.246 3.614,-4.668 4.146,-5.357 0.492,0.729 3.673,5.476 3.683,5.495 -0.005,0 -0.005,0.01 -0.005,0.03 0,0.236 0.148,1.507 0.148,1.507 l 0.034,0.325 7.057,-0.01 -2.576,-2.521 c 0,-0.01 -3.924,-5.84 -4.584,-6.825 0.188,-0.295 0.892,-1.418 0.892,-1.418 0,0 -0.906,-1.014 -1.187,-1.329 0.329,-0.453 4.761,-6.382 4.761,-6.382 l 2.044,-2.364 -6.347,-0.01 0.216,0.512 c 0,0 0.503,1.172 0.631,1.477 -0.222,0.296 -3.334,4.432 -3.856,5.121 -0.487,-0.748 -3.412,-5.219 -3.422,-5.239 0,0 0,-0.01 0,-0.039 0,-0.236 -0.138,-1.507 -0.138,-1.507 l -0.039,-0.325 -6.579,0.01 2.098,2.403 c 0,0.01 3.664,5.574 4.289,6.529 -0.182,0.295 -0.901,1.458 -0.901,1.458 0,0 1.054,1.014 1.369,1.33 -0.354,0.482 -5.101,6.746 -5.101,6.746 -0.005,0 -1.812,1.714 -1.812,1.714 l -0.689,0.65 6.313,-0.069 c -0.003,-10e-4 -0.386,-1.636 -0.445,-1.912"
       id="path35"
       inkscape:connector-curvature="0" /><polyline
       style="fill:#ffffff"
       points="214.151,87.913 216.869,96.274 225.664,96.274 218.544,101.435 221.262,109.786    214.151,104.625 207.046,109.786 209.759,101.435 202.653,96.274 211.443,96.274  "
       id="polyline37" /><polyline
       style="fill:#ffffff"
       points="35.638,87.913 38.352,96.274 47.136,96.274 40.036,101.435 42.744,109.786 35.638,104.625    28.533,109.786 31.246,101.435 24.141,96.274 32.92,96.274  "
       id="polyline39" /><path
       style="fill:#004784"
       d="m 195.012,229.767 h -2.389 v 6.529 h -1.625 v -6.529 h -2.388 v -1.418 h 6.401 m 10.858,7.947 h -1.615 v -6.322 h -0.039 l -2.295,6.322 h -1.565 l -2.216,-6.322 h -0.05 v 6.322 h -1.615 v -7.947 h 2.807 l 1.852,5.189 h 0.029 l 1.931,-5.189 h 2.777 v 7.947 z"
       id="path41"
       inkscape:connector-curvature="0" /><path
       style="fill:#004784"
       d="m 120.209,50.904 c 0,0 -1.083,-0.876 -1.852,-1.418 -0.561,0.049 -1.123,0.118 -1.674,0.187 0.512,0.187 2.383,0.926 2.639,1.359"
       id="path43"
       inkscape:connector-curvature="0" /><path
       style="fill:#004784"
       d="m 116.733,51.958 c 0,0 -1.162,-1.004 -2.836,-1.92 -0.68,0.099 -1.344,0.236 -2.009,0.354 1.241,0.325 2.403,1.063 3.649,1.674"
       id="path45"
       inkscape:connector-curvature="0" /><path
       style="fill:#004784"
       d="m 110.125,53.77 2.014,-0.64 c 0,0 -2.625,-1.29 -3.575,-1.31 -0.478,-0.227 -0.733,-0.424 -1.118,-0.493 -0.906,0.227 -1.802,0.473 -2.698,0.729 0.581,0.088 1.792,0.335 2.235,0.837 1.35,-0.236 2.285,0.443 3.142,0.877"
       id="path47"
       inkscape:connector-curvature="0" /><path
       style="fill:#004784"
       d="m 104.916,56.124 2.029,-0.719 c -0.222,-0.374 -2.846,-1.517 -4.314,-1.536 -0.537,-0.423 -1.103,-0.552 -1.576,-0.65 -0.783,0.266 -1.546,0.532 -2.324,0.827 0.261,0.059 1.684,0.384 2.373,0.975 1.408,-0.237 2.802,0.462 3.812,1.103"
       id="path49"
       inkscape:connector-curvature="0" /><path
       style="fill:#004784"
       d="m 95.53,57 c 1.512,-0.148 3.142,0.768 4.126,1.388 l 2.167,-0.551 C 100.661,56.793 98.524,55.956 97.302,56.025 96.79,55.257 95.697,55.65 95.008,55.572 l -2.679,1.211 c 0.35,0 2.916,-0.443 3.201,0.217"
       id="path51"
       inkscape:connector-curvature="0" /><path
       style="fill:#004784"
       d="m 94.481,61.766 1.896,-1.438 C 94.89,59.53 92.576,59.087 91.359,59.146 90.754,58.93 90.837,58.732 90.143,58.654 l -2.605,1.408 c 0.33,0.02 2.526,0.069 2.827,0.709 1.502,-0.127 3.156,0.395 4.116,0.995"
       id="path53"
       inkscape:connector-curvature="0" /><path
       style="fill:#004784"
       d="m 83.466,65.972 c 1.768,-0.325 4.363,-1.034 6.894,-0.463 l 1.9,-1.684 c -2.856,-0.502 -5.889,-0.354 -7.425,0.049 -0.374,-0.571 -1.236,-1.162 -1.236,-1.162 l -1.812,1.526 c 0.861,0.266 1.157,0.995 1.679,1.734"
       id="path55"
       inkscape:connector-curvature="0" /><path
       style="fill:#004784"
       d="m 78.384,71.664 c 1.467,-0.719 4.678,-1.231 7.933,-0.797 l 1.679,-2.157 c -4.934,-0.354 -6.958,0.275 -8.494,1.014 -0.527,-0.886 -1.295,-1.408 -1.295,-1.408 l -1.502,1.379 c 0.867,0.265 1.148,1.25 1.679,1.969"
       id="path57"
       inkscape:connector-curvature="0" /><path
       style="fill:#004784"
       d="m 75.026,75.849 c -0.512,-0.896 -1.443,-1.802 -1.443,-1.802 l -1.187,1.871 c 1.088,0.591 0.985,1.3 1.507,2.039 1.473,-0.738 4.476,-2.146 7.741,-1.694 l 1.665,-2.157 c -5.102,0.118 -7.918,0.561 -8.283,1.743"
       id="path59"
       inkscape:connector-curvature="0" /><path
       style="fill:#004784"
       d="m 71.422,82.339 c -0.517,-1.231 -1.891,-2.708 -1.891,-2.708 l -0.886,2.117 c 0.788,0.591 1.275,2.049 1.817,2.787 1.467,-0.758 3.354,-2.196 6.599,-1.723 l 1.541,-2.511 c -4.137,0 -6.811,0.846 -7.18,2.038"
       id="path61"
       inkscape:connector-curvature="0" /><path
       style="fill:#004784"
       d="m 68.384,88.612 c -0.655,-1.635 -2.127,-3.043 -2.127,-3.043 l -0.876,2.354 c 1.093,0.601 1.271,2.059 1.802,2.768 1.462,-0.719 3.668,-2.078 6.943,-1.645 l 1.354,-2.482 c -3.984,0 -6.742,0.857 -7.096,2.048"
       id="path63"
       inkscape:connector-curvature="0" /><path
       style="fill:#004784"
       d="m 65.38,96.137 c -0.739,-1.458 -2.354,-3.28 -2.354,-3.28 l -0.724,2.442 c 1.083,0.611 1.59,2.058 2.118,2.807 1.472,-0.749 3.265,-1.959 6.529,-1.507 l 1.044,-2.354 c -4.959,0.306 -6.244,0.719 -6.613,1.892"
       id="path65"
       inkscape:connector-curvature="0" /><path
       style="fill:#004784"
       d="M 62.391,102.892 C 61.869,101.996 60.042,99.77 60.042,99.77 l -0.492,2.442 c 1.103,0.61 1.595,2.058 2.137,2.797 1.453,-0.739 3.895,-2.078 7.149,-1.645 l 0.822,-2.433 c -4.79,0.287 -6.883,0.76 -7.267,1.961"
       id="path67"
       inkscape:connector-curvature="0" /><path
       style="fill:#004784"
       d="m 60.633,111.027 c -0.522,-0.896 -2.777,-4.018 -2.777,-4.018 l -0.512,2.61 c 1.088,1.004 1.891,2.866 2.423,3.624 1.462,-0.749 3.757,-2.787 6.997,-2.324 l 0.512,-2.186 c -4.737,0.364 -5.491,0.886 -6.643,2.294"
       id="path69"
       inkscape:connector-curvature="0" /><path
       style="fill:#004784"
       d="m 58.648,121.555 c 0.63,-1.251 3.028,-2.433 6.303,-2.167 l 0.404,-2.374 c -3.885,0.217 -5.633,0.857 -6.146,1.97 -0.571,-0.887 -3.457,-3.88 -3.457,-3.88 l -0.379,2.521 c 1.917,1.665 2.71,3.24 3.275,3.93"
       id="path71"
       inkscape:connector-curvature="0" /><path
       style="fill:#004784"
       d="m 57.541,130.23 c 0.124,-0.128 0.281,-0.571 0.606,-0.975 0.586,-0.699 2.26,-1.694 5.865,-1.546 l 0.207,-2.226 c -4.156,0.04 -5.495,1.064 -5.845,1.467 -0.325,0.296 -0.453,0.848 -0.547,1.162 -0.64,-1.703 -3.383,-4.441 -3.383,-4.441 l -0.167,2.433 c 0.959,0.434 2.732,3.398 3.264,4.126"
       id="path73"
       inkscape:connector-curvature="0" /><path
       style="fill:#004784"
       d="m 63.499,144.166 -0.064,-2.383 c -3.137,-1.398 -4.742,-1.152 -5.895,-0.474 -0.527,-0.905 -3.673,-2.067 -3.673,-2.067 l 0.153,2.402 c 1.271,0.296 2.821,1.084 3.363,1.822 1.463,-0.747 3.541,-0.679 6.116,0.7"
       id="path75"
       inkscape:connector-curvature="0" /><path
       style="fill:#004784"
       d="m 57.176,137.085 c 0.675,-1.132 1.438,-1.724 6.298,-0.699 l 0.02,-2.314 c -5.732,-0.285 -5.648,0.236 -5.83,0.976 -0.488,-0.916 -3.792,-3.742 -3.792,-3.742 l 0.049,2.679 c 1.079,0.648 2.758,2.332 3.255,3.1"
       id="path77"
       inkscape:connector-curvature="0" /><path
       style="fill:#004784"
       d="m 57.925,150.095 c 0.286,-0.749 1.191,-0.335 2.374,0.197 1.059,0.482 1.836,1.044 3.043,1.703 l -0.064,-2.402 c -2.634,-1.694 -5.225,-2.984 -5.589,-1.813 -0.517,-0.887 -3.265,-2.137 -3.265,-2.137 l 0.615,2.669 c 1.419,0.375 2.354,1.044 2.886,1.783"
       id="path79"
       inkscape:connector-curvature="0" /><path
       style="fill:#004784"
       d="m 58.56,156.142 c 1.246,-0.158 2.344,0.325 5.022,2.245 l -0.197,-2.274 c -2.733,-2.285 -4.063,-2.157 -5.038,-2.157 -0.537,-0.975 -2.703,-2.167 -2.703,-2.167 l 0.335,2.423 c 1.153,0.472 2.04,1.122 2.581,1.93"
       id="path81"
       inkscape:connector-curvature="0" /><path
       style="fill:#004784"
       d="m 170.189,135.52 c -0.857,-0.601 -2.324,-1.438 -5.023,-4.402 l -1.999,1.221 c 0.906,0.68 4.979,5.388 6.884,4.679 0,0 -0.856,5.83 -0.704,8.844 l 2.182,-1.409 c -0.068,-1.585 0.034,-8.262 0.424,-9.828 0.088,-0.081 -1.223,1.269 -1.764,0.895"
       id="path83"
       inkscape:connector-curvature="0" /><path
       style="fill:#004784"
       d="m 175.979,131.511 c -2.053,-2.993 -3.422,-4.323 -4.608,-5.141 l -1.468,1.094 c 0.62,0.177 2.275,1.831 4.619,5.317 l 1.403,-1.152 c 0.197,3.871 0.507,7.554 0.079,9.316 l 1.693,-1.31 c 0.345,-2.836 0.251,-6.125 -0.152,-9.139"
       id="path85"
       inkscape:connector-curvature="0" /><path
       style="fill:#004784"
       d="m 99.863,189.557 c -2.743,0.689 -5.279,-0.532 -7.16,-1.094 l -0.522,1.605 c 2.649,1.379 5.21,1.172 7.14,0.748 1.068,1.517 1.969,2.364 4.323,3.25 l 0.847,-1.23 c -2.511,-0.296 -3.495,-1.586 -4.628,-3.279"
       id="path87"
       inkscape:connector-curvature="0" /><path
       style="fill:#004784"
       d="m 101.793,185.164 c -2.752,0.699 -5.653,-0.306 -7.554,-0.867 l -0.792,1.813 c 2.871,0.984 5.535,1.191 7.479,0.778 0.985,1.635 2.059,3.181 4.422,4.067 l 0.876,-1.547 c -1.964,-0.807 -3.79,-1.851 -4.431,-4.244"
       id="path89"
       inkscape:connector-curvature="0" /><path
       style="fill:#004784"
       d="m 104.886,179.373 -0.295,0.463 c -2.738,0.699 -6.057,0.099 -7.957,-0.463 l -0.97,1.724 c 2.644,0.817 4.954,0.955 7.893,0.62 l 0.158,-0.266 c 1.068,1.96 1.344,3.132 4.097,4.747 l 1.35,-1.546 c -1.745,-0.699 -3.863,-3.497 -4.276,-5.279"
       id="path91"
       inkscape:connector-curvature="0" /><path
       style="fill:#004784"
       d="m 107.594,175.857 -0.153,0.217 c -2.639,0.502 -5.761,-0.867 -7.647,-1.418 l -1.083,1.625 c 2.649,1.389 5.239,1.496 7.563,1.496 l 0.138,-0.196 c 0.975,2.137 1.911,4.362 4.254,5.259 l 1.339,-1.556 c -1.732,-0.689 -3.992,-3.644 -4.411,-5.427"
       id="path93"
       inkscape:connector-curvature="0" /><path
       style="fill:#004784"
       d="m 102.591,170.825 c 0.241,0.118 0.512,0.236 0.788,0.364 v -1.201"
       id="path95"
       inkscape:connector-curvature="0" /><path
       style="fill:#004784"
       d="m 147.912,158.102 c -1.418,-1.487 -1.368,-5.89 -1.221,-8.272 l -0.65,0.394 c -2.664,-0.434 -5.534,-3.082 -6.869,-4.885 l -0.162,0.06 c 0,-5.437 0,-11.424 0,-13.887 0,-5.013 6.943,-6.933 6.943,-6.933 0,0 -1.892,-0.749 -3.693,-2.107 l -2.816,0.797 c -0.069,0.02 -6.18,1.792 -6.18,5.939 v 24.512 c 0,1.664 0.685,2.768 4.013,2.768 h 1.733 c 0,-0.158 0.01,-0.315 0,-0.482 0,0 0,-3.25 0,-7.426 1.733,1.517 3.55,2.768 4.929,2.925 l 0.601,-0.354 c 0.025,2.984 -0.231,4.747 0.479,6.835 l -1.468,-1.369 v 14.87 h -40.053 l 6.293,5.938 h 2.728 c 0.404,0.66 0.872,1.173 1.443,1.33 l 1.305,-1.33 H 148.4 v -16.288 l -2.398,-2.226"
       id="path97"
       inkscape:connector-curvature="0" /><path
       style="fill:#004784"
       d="m 155.801,145.367 -0.654,0.385 c -2.664,-0.434 -5.53,-3.083 -6.869,-4.895 l -2.482,1.033 c 2.251,2.345 5.229,4.905 7.248,5.142 l 0.602,-0.354 c 0.029,3.516 -0.424,5.308 0.905,7.986 l 2.473,-1.034 c -1.43,-1.477 -1.371,-5.889 -1.223,-8.263"
       id="path99"
       inkscape:connector-curvature="0" /><path
       style="fill:#004784"
       d="m 165.098,140.778 -0.089,-0.147 c -0.876,0.305 -1.989,0.039 -2.994,-0.817 -0.994,-0.848 -4.293,-4.757 -4.293,-4.757 l -2.719,1.487 c 1.576,1.625 6.736,5.722 7.79,5.751 l 0.152,-0.108 c 0.016,3.457 -0.418,5.239 0.901,7.889 l 2.472,-1.024 c -1.422,-1.489 -1.358,-5.901 -1.22,-8.274"
       id="path101"
       inkscape:connector-curvature="0" /><path
       style="fill:#004784"
       d="m 180.707,127.769 c -1.015,-1.763 -3.083,-4.126 -4.658,-5.209 l -1.418,1.251 c 1.418,0.837 4.323,3.536 5.199,5.653 l 0.936,-1.005 c 0.281,3.368 0.267,7.15 -0.128,8.913 l 1.743,-1.379 c 0.286,-3.043 0.099,-6.549 -0.443,-9.119"
       id="path103"
       inkscape:connector-curvature="0" /><path
       style="fill:#004784"
       d="m 185.069,124.361 c 0.438,1.132 0.778,2.512 0.438,9.326 l 1.659,-1.546 c 0.05,-5.111 -0.231,-6.51 -0.777,-9.08"
       id="path105"
       inkscape:connector-curvature="0" /><path
       style="fill:#004784"
       d="m 189.216,119.999 c 0.769,2.58 1.251,6.972 0.827,9.513 l 1.526,-2.019 c 0.266,-2.876 -0.64,-6.47 -1.172,-9.041"
       id="path107"
       inkscape:connector-curvature="0" /><path
       style="fill:#004784"
       d="m 192.446,115.311 -0.596,1.024 c 1.669,2.137 2.309,4.55 2.496,7.76 l 1.182,-1.812 c -0.039,-3.358 -2.255,-7.73 -3.082,-6.972"
       id="path109"
       inkscape:connector-curvature="0" /><path
       style="fill:#004784"
       d="m 194.504,111.884 -0.324,0.394 0.241,-0.394 c -0.887,-1.792 -1.965,-3.723 -3.669,-4.904 l -0.921,1.231 c 1.394,0.867 2.852,2.954 3.737,5.072 l 0.453,-0.749 c 0.769,0.669 2.152,1.674 3.053,6.894 l 0.694,-1.812 c -0.762,-4.974 -3.077,-6.835 -3.264,-5.732"
       id="path111"
       inkscape:connector-curvature="0" /><path
       style="fill:#004784"
       d="m 196.396,107.964 -0.148,0.423 c -0.886,-1.763 -1.457,-2.974 -3.446,-4.786 l -0.68,1.093 c 1.856,1.665 2.679,2.581 3.545,5.013 l 0.434,-0.925 -0.049,0.138 c 1.044,0.867 2.226,2.245 2.939,6.057 l 0.536,-2.157 c -0.207,-2.758 -2.757,-5.801 -3.131,-4.856"
       id="path113"
       inkscape:connector-curvature="0" /><path
       style="fill:#004784"
       d="m 180.047,118.61 -1.408,1.251 c 1.408,0.837 4.313,3.535 5.181,5.653 l 1.167,-1.241 c -0.887,-1.783 -3.226,-4.491 -4.94,-5.663"
       id="path115"
       inkscape:connector-curvature="0" /><path
       style="fill:#004784"
       d="m 184.312,114.563 -1.34,1.073 c 0.976,0.65 4.363,3.486 5.229,5.614 l 1.024,-1.409 c -0.886,-1.802 -3.141,-4.087 -4.913,-5.278"
       id="path117"
       inkscape:connector-curvature="0" /><path
       style="fill:#004784"
       d="m 191.195,117.192 0.837,-1.251 c -0.886,-1.802 -2.368,-4.077 -4.077,-5.259 l -1.162,1.231 c 1.394,0.857 3.511,3.162 4.402,5.279"
       id="path119"
       inkscape:connector-curvature="0" /><path
       style="fill:#004784"
       d="m 197.095,105.758 0.521,-1.083 c -0.887,-1.812 -1.354,-2.294 -3.339,-4.294 l -0.364,1.103 c 1.384,1.192 2.315,2.166 3.182,4.274"
       id="path121"
       inkscape:connector-curvature="0" /><path
       style="fill:#004784"
       d="m 197.479,105.216 c 0.62,0.434 1.23,1.064 1.871,2.078 -0.188,-0.808 -0.399,-1.615 -0.61,-2.413 L 198,104.054"
       id="path123"
       inkscape:connector-curvature="0" /><path
       style="fill:#004784"
       d="m 196.799,98.776 c -0.29,-0.364 -0.685,-0.798 -1.261,-1.369 l -0.305,1.034 c 1.033,1.123 2.038,2.305 2.846,4.126 -0.393,-1.28 -0.827,-2.541 -1.28,-3.791"
       id="path125"
       inkscape:connector-curvature="0" /><polyline
       style="fill:#004784"
       points="152.364,112.199 158.411,117.92 168.278,117.92 168.278,85.333 162.808,80.222    162.808,112.199  "
       id="polyline127" /><path
       style="fill:#004784"
       d="m 133.264,114.976 c 0,3.86 6.209,6.333 6.273,6.362 l 2.555,1.004 c -1.595,-1.241 -3.082,-2.935 -3.082,-5.072 0,-4.619 0,-20.819 0,-20.819 l 0.984,0.059 c 3.821,0.325 6.579,1.339 8.529,2.816 -3.172,-3.171 -8.282,-4.904 -15.26,-4.924 0.001,1.951 0.001,20.574 0.001,20.574"
       id="path129"
       inkscape:connector-curvature="0" /><path
       style="fill:#004784"
       d="m 113.493,94.344 c -12.734,0 -17.929,4.412 -17.943,15.363 l -0.01,2.492 H 82.949 l 5.741,5.387 h 11.966 l 0.015,-2.009 c 0,-11.217 1.093,-18.288 12.99,-19.47 0,-0.857 0,-1.497 0,-1.763 -0.045,0 -0.168,0 -0.168,0"
       id="path131"
       inkscape:connector-curvature="0" /><path
       style="fill:#cd1141"
       d="m 131.229,153.719 v -24.512 c 0,-3.841 3.265,-5.958 5.535,-7.022 -2.246,-1.251 -5.535,-3.634 -5.535,-7.209 V 92.247 l 1.068,0.059 c 0,0 0.971,0.049 0.921,0.049 13.384,0 21.056,6.046 21.056,16.614 0,0 0,0.601 0,1.191 1.369,0 5.131,0 6.5,0 0,-1.832 0,-26.196 0,-28.028 -1.97,0 -73.92,0 -75.88,0 0,1.832 0,26.196 0,28.028 1.502,0 7.322,0 8.706,0 0.049,-0.571 0.099,-1.142 0.099,-1.142 l -0.172,0.571 c 0,-11.956 6.155,-17.283 19.967,-17.283 h 2.206 v 22.67 c 0,3.88 -2.822,6.096 -4.84,7.258 2.039,1.043 4.84,3.092 4.84,6.973 v 24.285 c 0,3.151 -2.177,5.032 -5.811,5.032 0,0 -3.127,0 -4.476,0 0,1.586 0,9.336 0,10.922 1.876,0 34.217,0 36.098,0 0,-1.586 0,-9.336 0,-10.922 -1.319,0 -4.234,0 -4.234,0 -4.018,0 -6.048,-1.615 -6.048,-4.805"
       id="path133"
       inkscape:connector-curvature="0" /></g></svg>