<?xml version="1.0" encoding="UTF-8"?>
<svg xmlns="http://www.w3.org/2000/svg" xmlns:xlink="http://www.w3.org/1999/xlink" width="18pt" height="25pt" viewBox="0 0 18 25" version="1.1">
<g id="surface1">
<path style=" stroke:none;fill-rule:evenodd;fill:rgb(8.627451%,7.843137%,7.45098%);fill-opacity:1;" d="M 17.046875 9.328125 C 17.058594 9.335938 17.085938 9.339844 17.09375 9.347656 C 17.136719 9.363281 17.171875 9.382812 17.199219 9.417969 C 17.265625 9.496094 17.265625 9.582031 17.261719 9.679688 C 17.3125 9.726562 17.394531 9.773438 17.445312 9.820312 C 17.535156 9.910156 17.582031 9.957031 17.613281 10.085938 C 17.628906 10.160156 17.621094 10.25 17.613281 10.328125 C 17.652344 10.371094 17.667969 10.425781 17.667969 10.484375 C 17.664062 10.648438 17.660156 10.8125 17.648438 10.976562 C 17.652344 10.980469 17.65625 10.980469 17.660156 10.984375 C 17.742188 11.027344 17.796875 11.089844 17.804688 11.1875 C 17.808594 11.246094 17.773438 11.328125 17.761719 11.382812 C 17.921875 11.394531 18.015625 11.46875 17.996094 11.648438 C 17.976562 11.867188 17.820312 12.066406 17.648438 12.191406 C 17.542969 12.273438 17.394531 12.363281 17.363281 12.503906 C 17.359375 12.519531 17.355469 12.539062 17.347656 12.554688 C 17.347656 12.5625 17.351562 12.566406 17.351562 12.570312 C 17.382812 12.609375 17.410156 12.652344 17.425781 12.699219 C 17.511719 12.722656 17.554688 12.796875 17.558594 12.894531 C 17.566406 13.046875 17.515625 13.324219 17.457031 13.488281 C 17.464844 13.492188 17.46875 13.496094 17.472656 13.496094 C 17.554688 13.550781 17.613281 13.625 17.609375 13.730469 C 17.605469 13.765625 17.59375 13.796875 17.574219 13.828125 C 17.566406 13.84375 17.546875 13.867188 17.53125 13.886719 C 17.554688 13.898438 17.585938 13.914062 17.601562 13.925781 C 17.664062 13.972656 17.691406 14.042969 17.699219 14.121094 C 17.714844 14.316406 17.515625 14.515625 17.375 14.628906 C 17.308594 14.683594 17.234375 14.726562 17.160156 14.769531 C 17.117188 14.796875 17.019531 14.851562 16.988281 14.886719 C 16.980469 14.894531 16.949219 14.921875 16.957031 14.9375 C 17.027344 15.039062 17.046875 15.144531 16.992188 15.25 C 17.03125 15.441406 17.015625 15.644531 16.949219 15.828125 C 16.871094 16.070312 16.761719 16.296875 16.660156 16.527344 C 16.496094 16.894531 16.394531 17.34375 16.101562 17.632812 C 15.976562 17.757812 15.859375 17.84375 15.703125 17.917969 C 15.65625 17.941406 15.609375 17.960938 15.5625 17.980469 C 15.550781 18.214844 15.425781 18.472656 15.292969 18.664062 C 15.359375 18.726562 15.390625 18.808594 15.367188 18.902344 C 15.351562 18.957031 15.324219 18.976562 15.292969 19.011719 C 15.308594 19.027344 15.339844 19.058594 15.34375 19.0625 C 15.398438 19.125 15.410156 19.199219 15.40625 19.277344 C 15.378906 19.554688 14.773438 19.808594 14.539062 19.867188 C 14.480469 19.882812 14.46875 19.890625 14.464844 19.953125 C 14.457031 20.148438 14.484375 20.289062 14.277344 20.394531 C 14.242188 20.410156 14.203125 20.429688 14.164062 20.441406 C 14.128906 20.664062 13.96875 20.867188 13.757812 20.9375 C 13.714844 20.953125 13.671875 20.960938 13.628906 20.964844 C 13.648438 21.015625 13.652344 21.070312 13.644531 21.125 C 13.636719 21.175781 13.621094 21.21875 13.589844 21.257812 C 13.570312 21.28125 13.550781 21.300781 13.535156 21.320312 C 13.523438 21.335938 13.519531 21.347656 13.519531 21.363281 C 13.519531 21.539062 13.640625 21.707031 13.535156 21.890625 C 13.4375 22.066406 13.199219 22.179688 13.027344 22.269531 C 12.984375 22.292969 12.929688 22.300781 12.878906 22.300781 C 12.855469 22.300781 12.796875 22.296875 12.757812 22.300781 C 12.757812 22.300781 12.78125 22.300781 12.78125 22.300781 C 12.78125 22.300781 12.496094 22.542969 12.496094 22.542969 C 12 22.972656 11.53125 23.433594 11.011719 23.835938 C 10.855469 23.957031 10.761719 24.035156 10.550781 23.976562 C 10.457031 23.949219 10.359375 23.925781 10.261719 23.902344 C 9.914062 24.203125 9.5625 24.496094 9.199219 24.78125 C 9.199219 24.78125 8.945312 24.976562 8.945312 24.976562 C 8.945312 24.976562 8.695312 24.777344 8.695312 24.777344 C 8.34375 24.488281 7.996094 24.1875 7.65625 23.886719 C 7.550781 23.910156 7.449219 23.941406 7.347656 23.976562 C 7.15625 24.039062 7.101562 23.972656 6.957031 23.871094 C 6.410156 23.480469 5.933594 23 5.421875 22.5625 C 5.421875 22.5625 5.183594 22.359375 5.183594 22.359375 C 5.042969 22.292969 4.878906 22.207031 4.777344 22.101562 C 4.777344 22.101562 3.109375 20.378906 3.109375 20.378906 C 3.109375 20.378906 3.355469 20.328125 3.355469 20.328125 C 3.382812 20.320312 3.410156 20.316406 3.4375 20.3125 C 3.4375 20.3125 2.160156 18.675781 2.160156 18.675781 C 2.160156 18.675781 2.265625 18.671875 2.265625 18.671875 C 2.347656 18.667969 2.429688 18.667969 2.507812 18.664062 C 2.40625 18.390625 2.28125 18.128906 2.121094 17.882812 C 2.121094 17.882812 2.09375 17.839844 2.09375 17.839844 C 1.957031 17.78125 1.828125 17.703125 1.714844 17.601562 C 1.40625 17.316406 1.375 16.902344 1.214844 16.539062 C 1.109375 16.296875 0.96875 16.070312 0.882812 15.816406 C 0.820312 15.628906 0.796875 15.421875 0.84375 15.226562 C 0.84375 15.226562 0.886719 15.046875 0.886719 15.046875 C 0.800781 14.90625 0.722656 14.757812 0.652344 14.609375 C 0.652344 14.609375 0.535156 14.355469 0.535156 14.355469 C 0.535156 14.355469 0.792969 14.414062 0.792969 14.414062 C 0.75 14.214844 0.699219 14.015625 0.644531 13.820312 C 0.5 13.324219 0.324219 12.832031 0.121094 12.355469 C 0.121094 12.355469 0 12.082031 0 12.082031 C 0 12.082031 0.285156 12.167969 0.285156 12.167969 C 0.382812 12.199219 0.480469 12.234375 0.578125 12.273438 C 0.496094 12.097656 0.433594 11.902344 0.394531 11.722656 C 0.21875 10.945312 0.421875 10.058594 0.851562 9.402344 C 0.851562 9.402344 0.917969 9.300781 0.917969 9.300781 C 0.875 8.597656 0.847656 7.894531 0.84375 7.1875 C 0.84375 7.1875 0.839844 6.851562 0.839844 6.851562 C 1.027344 6.863281 1.207031 6.828125 1.394531 6.792969 C 2.007812 6.675781 2.542969 6.410156 3.125 6.136719 C 4.046875 5.707031 4.945312 5.214844 5.84375 4.738281 C 6.050781 4.625 6.257812 4.515625 6.464844 4.40625 C 6.464844 4.40625 4.910156 2.996094 4.910156 2.996094 C 4.910156 2.996094 7.777344 2.710938 7.777344 2.710938 C 7.777344 2.710938 8.929688 0 8.929688 0 C 8.929688 0 10.082031 2.710938 10.082031 2.710938 C 10.082031 2.710938 12.949219 2.996094 12.949219 2.996094 C 12.949219 2.996094 11.425781 4.382812 11.425781 4.382812 C 11.800781 4.582031 12.171875 4.785156 12.542969 4.984375 C 13.289062 5.394531 14.039062 5.800781 14.816406 6.15625 C 15.40625 6.425781 16.0625 6.699219 16.707031 6.785156 C 16.707031 6.785156 17.070312 6.835938 17.070312 6.835938 C 17.070312 6.835938 17.058594 7.210938 17.058594 7.210938 C 17.039062 7.886719 17.03125 8.5625 17.011719 9.238281 C 17.023438 9.269531 17.035156 9.300781 17.046875 9.328125 Z M 8.351562 23.765625 C 8.550781 23.9375 8.75 24.109375 8.953125 24.277344 C 9.160156 24.113281 9.367188 23.945312 9.570312 23.773438 C 9.359375 23.746094 9.140625 23.730469 8.925781 23.730469 C 8.734375 23.734375 8.542969 23.746094 8.351562 23.765625 Z M 8.351562 23.765625 "/>
<path style=" stroke:none;fill-rule:evenodd;fill:rgb(96.470588%,79.215686%,0%);fill-opacity:1;" d="M 2.738281 8.144531 C 3.902344 7.679688 5.035156 7.113281 6.140625 6.515625 C 6.417969 6.367188 6.691406 6.214844 6.96875 6.058594 C 6.96875 6.058594 7.214844 4.90625 7.214844 4.90625 C 7.214844 4.90625 6.917969 4.636719 6.917969 4.636719 C 5.472656 5.386719 3.945312 6.230469 2.761719 6.753906 C 2.160156 7.019531 1.625 7.179688 1.253906 7.21875 C 1.261719 8.3125 1.320312 9.363281 1.398438 10.328125 C 1.269531 10.058594 1.160156 9.777344 1.066406 9.519531 C 1.019531 8.742188 0.984375 7.964844 0.976562 7.1875 C 0.976562 7.1875 0.976562 6.980469 0.976562 6.980469 C 1.1875 6.964844 1.535156 6.90625 1.820312 6.8125 C 2.300781 6.65625 2.824219 6.429688 3.179688 6.265625 C 4.101562 5.832031 5.007812 5.335938 5.90625 4.859375 C 6.171875 4.71875 6.433594 4.578125 6.703125 4.4375 C 6.703125 4.4375 5.230469 3.101562 5.230469 3.101562 C 5.230469 3.101562 7.871094 2.839844 7.871094 2.839844 C 7.871094 2.839844 8.929688 0.347656 8.929688 0.347656 C 8.929688 0.347656 9.992188 2.839844 9.992188 2.839844 C 9.992188 2.839844 12.628906 3.101562 12.628906 3.101562 C 12.628906 3.101562 11.1875 4.410156 11.1875 4.410156 C 11.621094 4.640625 12.050781 4.875 12.476562 5.109375 C 13.226562 5.515625 13.984375 5.925781 14.757812 6.28125 C 15.347656 6.550781 16.046875 6.835938 16.6875 6.921875 C 16.6875 6.921875 16.929688 6.957031 16.929688 6.957031 C 16.929688 6.957031 16.921875 7.203125 16.921875 7.203125 C 16.902344 7.835938 16.898438 8.464844 16.878906 9.09375 C 16.847656 9.054688 16.808594 9.023438 16.769531 8.992188 C 16.722656 8.953125 16.671875 8.914062 16.613281 8.914062 C 16.625 8.421875 16.628906 7.902344 16.652344 7.195312 C 15.136719 6.988281 12.945312 5.644531 10.972656 4.609375 C 10.972656 4.609375 10.644531 4.90625 10.644531 4.90625 C 10.644531 4.90625 10.894531 6.0625 10.894531 6.0625 C 11.097656 6.171875 11.304688 6.285156 11.507812 6.394531 C 12.152344 6.742188 12.800781 7.082031 13.457031 7.402344 C 14.007812 7.671875 14.582031 7.9375 15.160156 8.140625 C 15.160156 8.140625 15.351562 8.207031 15.351562 8.207031 C 15.351562 8.207031 15.34375 8.414062 15.34375 8.414062 C 15.246094 10.222656 15.074219 12.054688 14.597656 13.800781 C 13.722656 16.984375 12.03125 19.566406 9.832031 21.914062 C 9.71875 21.898438 9.605469 21.886719 9.488281 21.878906 C 11.878906 19.367188 13.496094 16.789062 14.335938 13.726562 C 14.785156 12.078125 14.972656 10.3125 15.070312 8.402344 C 13.941406 8.003906 12.425781 7.207031 10.96875 6.414062 C 10.96875 6.414062 11.21875 7.558594 11.21875 7.558594 C 11.21875 7.558594 8.929688 6.183594 8.929688 6.183594 C 8.929688 6.183594 6.644531 7.558594 6.644531 7.558594 C 6.644531 7.558594 6.890625 6.417969 6.890625 6.417969 C 5.554688 7.160156 4.171875 7.871094 2.839844 8.402344 C 2.976562 10.273438 3.082031 12.105469 3.539062 13.765625 C 4.378906 16.816406 6.246094 19.746094 8.46875 21.882812 C 8.351562 21.894531 8.234375 21.90625 8.117188 21.921875 C 5.902344 19.738281 4.097656 16.824219 3.277344 13.839844 C 3.210938 13.589844 3.148438 13.335938 3.09375 13.082031 C 3.09375 13.082031 3.160156 12.925781 3.160156 12.925781 C 3.160156 12.925781 3.066406 12.949219 3.066406 12.949219 C 2.765625 11.46875 2.679688 9.917969 2.566406 8.421875 C 2.566406 8.421875 2.554688 8.21875 2.554688 8.21875 C 2.554688 8.21875 2.738281 8.144531 2.738281 8.144531 Z M 8.113281 23.742188 C 8.457031 24.039062 8.742188 24.28125 8.949219 24.453125 C 9.242188 24.226562 9.527344 23.992188 9.808594 23.75 C 9.921875 23.769531 10.035156 23.792969 10.148438 23.816406 C 9.8125 24.109375 9.46875 24.398438 9.117188 24.671875 C 9.117188 24.671875 8.945312 24.804688 8.945312 24.804688 C 8.945312 24.804688 8.78125 24.667969 8.78125 24.667969 C 8.4375 24.386719 8.101562 24.097656 7.769531 23.804688 C 7.882812 23.78125 7.996094 23.757812 8.113281 23.742188 Z M 8.113281 23.742188 "/>
<path style=" stroke:none;fill-rule:evenodd;fill:rgb(96.470588%,79.215686%,0%);fill-opacity:1;" d="M 1.6875 10.992188 C 1.34375 10.5 1.113281 9.898438 0.964844 9.476562 C 0.484375 10.210938 0.386719 11.070312 0.527344 11.691406 C 0.585938 11.957031 0.675781 12.175781 0.761719 12.332031 C 0.8125 12.15625 0.882812 11.988281 0.96875 11.832031 C 0.992188 11.792969 1.011719 11.757812 1.035156 11.71875 C 0.929688 11.316406 0.847656 10.578125 0.902344 10.132812 C 0.902344 10.421875 0.929688 10.769531 0.972656 11.085938 C 1 10.949219 1.042969 10.789062 1.109375 10.664062 C 1.050781 10.867188 1.003906 11.125 1.007812 11.285156 C 1.027344 11.417969 1.054688 11.539062 1.085938 11.644531 C 1.242188 11.414062 1.453125 11.183594 1.6875 10.992188 Z M 1.6875 10.992188 "/>
<path style=" stroke:none;fill-rule:evenodd;fill:rgb(96.470588%,79.215686%,0%);fill-opacity:1;" d="M 2.339844 10.703125 C 1.785156 10.898438 1.269531 11.453125 1.042969 11.871094 C 0.941406 12.050781 0.867188 12.238281 0.816406 12.433594 C 1.007812 12.519531 1.199219 12.625 1.378906 12.742188 C 1.390625 12.6875 1.40625 12.628906 1.421875 12.566406 C 1.410156 12.40625 1.328125 12.148438 1.242188 11.945312 C 1.347656 12.089844 1.421875 12.296875 1.457031 12.445312 C 1.566406 12.054688 1.734375 11.59375 1.917969 11.292969 C 1.714844 11.753906 1.542969 12.300781 1.441406 12.785156 C 1.710938 12.972656 1.949219 13.195312 2.109375 13.453125 C 2.1875 13.390625 2.265625 13.328125 2.347656 13.273438 C 2.355469 13.222656 2.363281 13.167969 2.371094 13.117188 C 2.394531 12.839844 2.347656 12.503906 2.273438 12.179688 C 2.1875 11.777344 2.207031 11.097656 2.339844 10.703125 Z M 2.339844 10.703125 "/>
<path style=" stroke:none;fill-rule:evenodd;fill:rgb(96.470588%,79.215686%,0%);fill-opacity:1;" d="M 1.34375 15.476562 C 1.125 15.195312 0.945312 14.914062 0.777344 14.550781 C 1.714844 14.761719 2.160156 15.078125 2.550781 15.421875 C 2.472656 15.546875 2.402344 15.675781 2.339844 15.8125 C 2.0625 15.546875 1.695312 15.234375 1.375 15.050781 C 1.664062 15.285156 2.019531 15.578125 2.308594 15.882812 C 2.296875 15.914062 2.285156 15.949219 2.273438 15.980469 C 2.191406 15.945312 2.109375 15.914062 2.027344 15.875 C 1.785156 15.761719 1.554688 15.632812 1.34375 15.476562 Z M 1.34375 15.476562 "/>
<path style=" stroke:none;fill-rule:evenodd;fill:rgb(96.470588%,79.215686%,0%);fill-opacity:1;" d="M 0.953125 14.507812 C 0.800781 13.726562 0.46875 12.816406 0.242188 12.300781 C 1.007812 12.539062 1.71875 12.976562 2.046875 13.507812 C 1.863281 13.664062 1.707031 13.84375 1.585938 14.023438 C 1.46875 14.203125 1.375 14.402344 1.308594 14.609375 C 1.191406 14.570312 1.070312 14.539062 0.953125 14.507812 Z M 0.644531 12.707031 C 0.871094 12.957031 1.089844 13.210938 1.285156 13.480469 C 1.183594 13.421875 1.0625 13.375 0.890625 13.332031 C 1.058594 13.40625 1.230469 13.488281 1.351562 13.574219 C 1.445312 13.707031 1.53125 13.84375 1.605469 13.984375 C 1.605469 13.984375 1.652344 13.917969 1.652344 13.917969 C 1.445312 13.546875 1.0625 13.085938 0.644531 12.707031 Z M 0.644531 12.707031 "/>
<path style=" stroke:none;fill-rule:evenodd;fill:rgb(96.470588%,79.215686%,0%);fill-opacity:1;" d="M 3.019531 13.046875 C 2.453125 13.199219 1.917969 13.671875 1.65625 14.070312 C 1.535156 14.25 1.449219 14.441406 1.386719 14.636719 C 1.589844 14.707031 1.789062 14.796875 1.976562 14.902344 C 2.007812 14.917969 2.035156 14.9375 2.0625 14.953125 C 2.132812 14.664062 2.234375 14.363281 2.367188 14.117188 C 2.277344 14.402344 2.191406 14.699219 2.125 14.992188 C 2.195312 15.039062 2.265625 15.089844 2.335938 15.140625 C 2.429688 15.039062 2.527344 14.90625 2.613281 14.777344 C 2.519531 14.96875 2.460938 15.074219 2.375 15.171875 C 2.453125 15.230469 2.527344 15.292969 2.597656 15.355469 C 2.683594 15.238281 2.773438 15.128906 2.878906 15.03125 C 2.878906 14.851562 2.859375 14.65625 2.832031 14.464844 C 2.777344 14.058594 2.855469 13.429688 3.019531 13.046875 Z M 3.019531 13.046875 "/>
<path style=" stroke:none;fill-rule:evenodd;fill:rgb(96.470588%,79.215686%,0%);fill-opacity:1;" d="M 3.132812 18.066406 C 3.105469 18.300781 3.09375 18.597656 3.109375 18.75 C 3.175781 18.765625 3.46875 18.820312 3.617188 18.863281 C 3.605469 18.675781 3.605469 18.476562 3.613281 18.265625 C 3.445312 18.179688 3.308594 18.121094 3.132812 18.066406 Z M 3.683594 18.882812 C 3.753906 18.902344 3.824219 18.929688 3.894531 18.953125 C 3.929688 18.96875 3.964844 18.980469 4 18.996094 C 4.039062 18.855469 4.085938 18.722656 4.144531 18.585938 C 3.988281 18.480469 3.820312 18.375 3.648438 18.285156 C 3.65625 18.480469 3.664062 18.683594 3.683594 18.882812 Z M 3.683594 18.882812 "/>
<path style=" stroke:none;fill-rule:evenodd;fill:rgb(96.470588%,79.215686%,0%);fill-opacity:1;" d="M 3.628906 20.335938 C 3.628906 20.335938 2.433594 18.804688 2.433594 18.804688 C 3.039062 18.78125 3.550781 18.898438 3.976562 19.074219 C 3.933594 19.238281 3.90625 19.40625 3.890625 19.570312 C 3.664062 19.421875 3.363281 19.257812 3.070312 19.121094 C 3.328125 19.28125 3.640625 19.484375 3.886719 19.660156 C 3.882812 19.710938 3.882812 19.761719 3.882812 19.8125 C 3.785156 19.820312 3.691406 19.828125 3.511719 19.84375 C 3.632812 19.855469 3.769531 19.859375 3.886719 19.863281 C 3.890625 20.011719 3.910156 20.160156 3.941406 20.308594 C 3.839844 20.3125 3.734375 20.324219 3.628906 20.335938 Z M 3.628906 20.335938 "/>
<path style=" stroke:none;fill-rule:evenodd;fill:rgb(96.470588%,79.215686%,0%);fill-opacity:1;" d="M 4.539062 18.035156 C 4.054688 18.78125 3.855469 19.554688 4.023438 20.304688 C 4.214844 20.304688 4.402344 20.316406 4.589844 20.347656 C 4.492188 19.941406 4.433594 19.417969 4.464844 18.8125 C 4.484375 19.222656 4.523438 19.65625 4.601562 20.0625 C 4.644531 19.910156 4.703125 19.804688 4.839844 19.585938 C 4.742188 19.78125 4.644531 20.050781 4.628906 20.199219 C 4.640625 20.253906 4.652344 20.308594 4.664062 20.359375 C 4.78125 20.382812 4.898438 20.410156 5.011719 20.445312 C 5.070312 20.339844 5.148438 20.246094 5.234375 20.160156 C 5.183594 20.242188 5.117188 20.34375 5.066406 20.460938 C 5.234375 20.519531 5.402344 20.589844 5.5625 20.679688 C 5.597656 20.695312 5.632812 20.714844 5.664062 20.734375 C 5.617188 20.46875 5.515625 20.230469 5.410156 20.03125 C 5.277344 19.789062 5.097656 19.578125 4.945312 19.289062 C 4.753906 18.925781 4.609375 18.421875 4.539062 18.035156 Z M 4.539062 18.035156 "/>
<path style="fill:none;stroke-width:0.1;stroke-linecap:butt;stroke-linejoin:miter;stroke:rgb(8.627451%,7.843137%,7.45098%);stroke-opacity:1;stroke-miterlimit:4;" d="M 51.709822 52.071673 C 45.034198 49.766526 37.546674 46.663443 34.479496 43.471701 C 34.479496 43.471701 0.0188424 8.451198 0.0188424 8.451198 C 42.057231 0.0285451 65.87297 26.271758 72.097539 33.00988 C 73.991972 34.960389 76.878729 41.87583 78.863374 47.28406 C 76.427673 47.816017 74.082184 48.347974 71.646483 48.879931 C 67.767404 44.535615 62.715581 40.013981 56.220379 35.226368 C 55.949746 31.32535 55.588901 28.310926 53.87489 23.966611 C 54.68679 27.512991 54.957423 30.882052 54.68679 34.162454 C 45.124409 27.424331 32.675273 20.331571 16.166635 12.972832 C 23.022682 16.696532 29.788517 20.242912 36.464141 24.14393 C 33.487173 24.409908 31.592739 24.409908 26.360494 24.587227 C 30.87105 25.119184 36.013085 25.385163 38.899841 25.562482 C 46.387365 29.995457 53.694467 34.87173 60.640725 40.811916 C 56.400801 41.166554 48.823066 41.255214 43.410398 41.432533 C 47.740532 41.96449 58.205024 42.141809 62.264525 42.319128 C 64.700226 44.535615 67.135926 46.840762 69.481416 49.411888 C 67.677193 49.766526 65.87297 50.121164 64.068748 50.475802 C 60.550513 51.096419 55.679112 52.160333 51.709822 52.071673 Z M 51.709822 52.071673 " transform="matrix(0.0433012,0,0,0.044059,3.381997,20.088586)"/>
<path style=" stroke:none;fill-rule:evenodd;fill:rgb(96.470588%,79.215686%,0%);fill-opacity:1;" d="M 5.621094 22.382812 C 5.332031 22.28125 5.007812 22.144531 4.875 22.003906 C 4.875 22.003906 3.382812 20.460938 3.382812 20.460938 C 5.203125 20.089844 6.234375 21.246094 6.503906 21.542969 C 6.585938 21.628906 6.710938 21.933594 6.796875 22.171875 C 6.691406 22.195312 6.589844 22.21875 6.484375 22.242188 C 6.316406 22.050781 6.097656 21.851562 5.816406 21.640625 C 5.804688 21.46875 5.789062 21.335938 5.714844 21.144531 C 5.75 21.300781 5.761719 21.449219 5.75 21.59375 C 5.335938 21.296875 4.796875 20.984375 4.082031 20.660156 C 4.378906 20.824219 4.671875 20.980469 4.960938 21.152344 C 4.832031 21.164062 4.75 21.164062 4.523438 21.171875 C 4.71875 21.195312 4.941406 21.207031 5.066406 21.214844 C 5.390625 21.410156 5.707031 21.625 6.007812 21.886719 C 5.824219 21.902344 5.496094 21.90625 5.261719 21.914062 C 5.449219 21.9375 5.902344 21.945312 6.078125 21.953125 C 6.183594 22.050781 6.289062 22.152344 6.390625 22.265625 C 6.3125 22.28125 6.234375 22.296875 6.15625 22.3125 C 6.003906 22.339844 5.792969 22.386719 5.621094 22.382812 Z M 5.621094 22.382812 "/>
<path style=" stroke:none;fill-rule:evenodd;fill:rgb(96.470588%,79.215686%,0%);fill-opacity:1;" d="M 2.257812 17.84375 C 2.425781 18.109375 2.558594 18.394531 2.671875 18.714844 C 2.78125 18.71875 2.878906 18.726562 3.027344 18.75 C 3.011719 18.539062 3.019531 18.28125 3.058594 18.039062 C 2.804688 17.96875 2.519531 17.929688 2.257812 17.84375 Z M 2.257812 17.84375 "/>
<path style="fill:none;stroke-width:0.1;stroke-linecap:butt;stroke-linejoin:miter;stroke:rgb(8.627451%,7.843137%,7.45098%);stroke-opacity:1;stroke-miterlimit:4;" d="M 0.99179 -0.0172253 C -0.000532318 3.883793 0.540734 7.87347 1.80369 11.685829 C 3.517702 16.562102 6.494669 21.261055 9.381426 27.821859 C 12.719238 35.180597 13.891982 45.110462 20.116551 50.873329 C 27.874708 57.87743 37.978355 58.054749 48.71348 60.980513 C 57.193327 63.28566 66.034018 67.895954 74.96492 73.83614 C 75.957243 71.708312 77.039776 69.669144 78.212521 67.629975 C 74.333442 56.813516 69.462041 44.223867 67.206763 39.613572 C 63.327684 31.545558 55.389104 27.999178 47.630946 24.807435 C 33.828643 19.133227 15.245149 14.434274 0.99179 -0.0172253 Z M 0.99179 -0.0172253 " transform="matrix(0.0433012,0,0,0.044059,0.933617,15.258571)"/>
<path style=" stroke:none;fill-rule:evenodd;fill:rgb(96.470588%,79.215686%,0%);fill-opacity:1;" d="M 3.171875 14.898438 C 2.75 15.191406 2.496094 15.605469 2.347656 16.011719 C 2.492188 16.070312 2.640625 16.125 2.789062 16.179688 C 2.816406 15.894531 2.875 15.601562 2.964844 15.347656 C 2.917969 15.632812 2.878906 15.917969 2.851562 16.207031 C 2.910156 16.230469 2.96875 16.253906 3.027344 16.277344 C 3.203125 16.351562 3.359375 16.421875 3.492188 16.507812 C 3.460938 16.433594 3.429688 16.355469 3.402344 16.273438 C 3.265625 15.886719 3.183594 15.292969 3.171875 14.898438 Z M 3.171875 14.898438 "/>
<path style=" stroke:none;fill-rule:evenodd;fill:rgb(85.098039%,8.235294%,12.941176%);fill-opacity:1;" d="M 0.976562 15.257812 C 0.933594 15.429688 0.957031 15.605469 1.011719 15.773438 C 1.085938 15.988281 1.214844 16.195312 1.339844 16.484375 C 1.484375 16.808594 1.535156 17.246094 1.804688 17.5 C 2.140625 17.808594 2.578125 17.816406 3.042969 17.945312 C 3.410156 18.046875 3.792969 18.25 4.179688 18.511719 C 4.222656 18.417969 4.269531 18.328125 4.320312 18.238281 C 4.152344 17.761719 3.941406 17.207031 3.84375 17.003906 C 3.675781 16.648438 3.332031 16.492188 2.996094 16.351562 C 2.398438 16.101562 1.59375 15.894531 0.976562 15.257812 Z M 0.976562 15.257812 "/>
<path style=" stroke:none;fill-rule:evenodd;fill:rgb(85.098039%,8.235294%,12.941176%);fill-opacity:1;" d="M 16.855469 15.265625 C 16.894531 15.4375 16.878906 15.617188 16.824219 15.785156 C 16.75 16 16.660156 16.183594 16.535156 16.472656 C 16.390625 16.796875 16.269531 17.273438 16.007812 17.535156 C 15.878906 17.660156 15.78125 17.726562 15.644531 17.792969 C 15.347656 17.9375 15 18.019531 14.683594 18.097656 C 14.300781 18.191406 13.816406 18.386719 13.347656 18.691406 C 13.558594 18.222656 13.957031 17.222656 14.046875 17.015625 C 14.246094 16.5625 14.542969 16.476562 14.878906 16.335938 C 15.464844 16.097656 16.242188 15.882812 16.855469 15.265625 Z M 16.855469 15.265625 "/>
<path style=" stroke:none;fill-rule:evenodd;fill:rgb(96.470588%,79.215686%,0%);fill-opacity:1;" d="M 11.113281 22.167969 C 11.128906 21.957031 11.132812 21.726562 11.246094 21.59375 C 11.34375 21.476562 11.535156 21.601562 11.640625 21.507812 C 11.738281 21.417969 11.695312 21.046875 11.894531 20.808594 C 11.976562 20.710938 12.148438 20.789062 12.273438 20.761719 C 12.4375 20.726562 12.457031 20.542969 12.597656 20.527344 C 12.734375 20.507812 12.808594 20.679688 12.941406 20.640625 C 13.015625 20.621094 13.078125 20.53125 13.15625 20.453125 C 13.234375 20.378906 13.328125 20.316406 13.402344 20.347656 C 13.507812 20.394531 13.527344 20.503906 13.515625 20.613281 C 13.5 20.722656 13.425781 20.804688 13.441406 20.902344 C 13.453125 20.964844 13.527344 20.992188 13.511719 21.105469 C 13.492188 21.226562 13.386719 21.207031 13.386719 21.363281 C 13.386719 21.519531 13.488281 21.703125 13.417969 21.820312 C 13.34375 21.953125 13.148438 22.054688 12.96875 22.148438 C 12.910156 22.175781 12.730469 22.148438 12.671875 22.179688 C 12.574219 22.234375 12.5 22.296875 12.425781 22.355469 C 12.425781 22.355469 12.410156 22.355469 12.410156 22.355469 C 12.171875 22.355469 11.949219 22.351562 11.71875 22.304688 C 11.914062 22.148438 12.113281 21.96875 12.328125 21.75 C 12.539062 21.765625 12.875 21.753906 13.078125 21.722656 C 12.921875 21.726562 12.558594 21.734375 12.375 21.703125 C 12.640625 21.429688 12.925781 21.09375 13.25 20.675781 C 13.046875 20.898438 12.851562 21.125 12.648438 21.347656 C 12.660156 21.203125 12.671875 21.097656 12.691406 20.925781 C 12.640625 21.113281 12.613281 21.292969 12.578125 21.421875 C 12.429688 21.582031 12.273438 21.738281 12.109375 21.890625 C 12.109375 21.710938 12.125 21.363281 12.136719 21.117188 C 12.101562 21.3125 12.058594 21.78125 12.039062 21.953125 C 11.914062 22.066406 11.777344 22.175781 11.636719 22.28125 C 11.59375 22.128906 11.566406 22.027344 11.515625 21.851562 C 11.53125 22.007812 11.5625 22.15625 11.582031 22.277344 C 11.425781 22.242188 11.269531 22.207031 11.113281 22.167969 Z M 11.113281 22.167969 "/>
<path style=" stroke:none;fill-rule:evenodd;fill:rgb(96.470588%,79.215686%,0%);fill-opacity:1;" d="M 14.796875 18.15625 C 14.644531 18.4375 14.445312 18.761719 14.253906 19.054688 C 14.207031 18.863281 14.160156 18.707031 14.101562 18.578125 C 14.144531 18.746094 14.1875 18.921875 14.21875 19.105469 C 14.152344 19.207031 14.082031 19.304688 14.019531 19.394531 C 14.019531 19.382812 14.015625 19.371094 14.011719 19.355469 C 13.988281 19.25 13.925781 19.222656 13.878906 19.136719 C 13.851562 19.078125 13.871094 18.890625 13.867188 18.816406 C 13.855469 18.691406 13.820312 18.597656 13.71875 18.570312 C 14.03125 18.398438 14.367188 18.261719 14.703125 18.179688 C 14.703125 18.179688 14.796875 18.15625 14.796875 18.15625 Z M 15.425781 17.976562 C 15.414062 18.214844 15.257812 18.484375 15.144531 18.632812 C 15.074219 18.726562 15.265625 18.746094 15.234375 18.867188 C 15.226562 18.910156 15.140625 18.933594 15.152344 19.015625 C 15.164062 19.132812 15.28125 19.117188 15.269531 19.265625 C 15.257812 19.410156 14.8125 19.65625 14.507812 19.734375 C 14.421875 19.757812 14.339844 19.789062 14.332031 19.949219 C 14.324219 20.082031 14.359375 20.199219 14.21875 20.269531 C 14.183594 20.285156 14.152344 20.300781 14.117188 20.3125 C 14.113281 20.230469 14.085938 20.164062 14.011719 20.097656 C 13.925781 20.023438 13.851562 19.9375 13.84375 19.839844 C 13.90625 19.707031 13.972656 19.566406 14.0625 19.425781 C 14.339844 19.386719 14.628906 19.375 14.875 19.324219 C 14.609375 19.335938 14.34375 19.359375 14.109375 19.359375 C 14.203125 19.222656 14.316406 19.050781 14.429688 18.867188 C 14.527344 18.828125 14.636719 18.785156 14.746094 18.730469 C 14.632812 18.761719 14.550781 18.789062 14.464844 18.8125 C 14.59375 18.597656 14.726562 18.363281 14.820312 18.148438 C 15.023438 18.097656 15.230469 18.046875 15.425781 17.976562 Z M 15.425781 17.976562 "/>
<path style=" stroke:none;fill-rule:evenodd;fill:rgb(96.470588%,79.215686%,0%);fill-opacity:1;" d="M 12.292969 20.667969 C 12.269531 20.53125 12.261719 20.402344 12.285156 20.316406 C 12.304688 20.238281 12.4375 20.195312 12.480469 20.117188 C 12.542969 20 12.425781 19.699219 12.4375 19.578125 C 12.457031 19.40625 12.632812 19.453125 12.742188 19.417969 C 12.875 19.375 12.796875 19.21875 12.898438 19.167969 C 13.019531 19.105469 12.992188 19.261719 13.113281 19.183594 C 13.167969 19.148438 13.230469 19 13.253906 18.933594 C 13.277344 18.863281 13.335938 18.839844 13.375 18.808594 C 13.480469 18.71875 13.585938 18.644531 13.636719 18.644531 C 13.753906 18.636719 13.773438 18.707031 13.785156 18.824219 C 13.792969 18.929688 13.765625 19.089844 13.808594 19.175781 C 13.855469 19.265625 13.914062 19.289062 13.933594 19.375 C 13.960938 19.484375 13.902344 19.535156 13.839844 19.613281 C 13.660156 19.835938 13.816406 20.035156 13.957031 20.160156 C 14.042969 20.234375 14.042969 20.308594 14.035156 20.402344 C 14.007812 20.621094 13.839844 20.765625 13.714844 20.808594 C 13.660156 20.828125 13.59375 20.832031 13.527344 20.832031 C 13.542969 20.769531 13.585938 20.699219 13.59375 20.625 C 13.613281 20.480469 13.578125 20.335938 13.433594 20.273438 C 13.328125 20.226562 13.21875 20.289062 13.136719 20.359375 C 13.214844 20.164062 13.296875 19.941406 13.367188 19.710938 C 13.449219 19.640625 13.542969 19.558594 13.632812 19.46875 C 13.535156 19.539062 13.464844 19.589844 13.386719 19.640625 C 13.449219 19.433594 13.503906 19.226562 13.535156 19.03125 C 13.4375 19.457031 13.234375 20.003906 13.046875 20.449219 C 13.027344 20.46875 13.007812 20.492188 12.988281 20.507812 C 12.933594 20.199219 12.886719 19.957031 12.8125 19.773438 C 12.867188 20.019531 12.914062 20.285156 12.925781 20.558594 C 12.925781 20.558594 12.921875 20.5625 12.917969 20.5625 C 12.847656 20.582031 12.746094 20.425781 12.585938 20.441406 C 12.425781 20.464844 12.390625 20.617188 12.292969 20.667969 Z M 12.292969 20.667969 "/>
<path style=" stroke:none;fill-rule:evenodd;fill:rgb(96.470588%,79.215686%,0%);fill-opacity:1;" d="M 15.371094 14.710938 C 15.371094 14.617188 15.386719 14.535156 15.425781 14.464844 C 15.503906 14.332031 15.714844 14.417969 15.800781 14.300781 C 15.878906 14.195312 15.765625 13.839844 15.917969 13.570312 C 15.980469 13.457031 16.152344 13.480469 16.265625 13.429688 C 16.421875 13.363281 16.335938 13.359375 16.464844 13.308594 C 16.609375 13.246094 16.628906 13.140625 16.71875 13.097656 C 16.773438 13.070312 16.832031 13.164062 16.980469 12.996094 C 17.054688 12.914062 17.171875 12.867188 17.25 12.851562 C 17.328125 12.835938 17.417969 12.792969 17.425781 12.902344 C 17.429688 13.007812 17.382812 13.339844 17.3125 13.488281 C 17.265625 13.597656 17.480469 13.601562 17.472656 13.722656 C 17.46875 13.769531 17.363281 13.84375 17.390625 13.921875 C 17.425781 14.035156 17.550781 13.984375 17.5625 14.132812 C 17.574219 14.234375 17.464844 14.378906 17.289062 14.523438 C 17.210938 14.585938 16.949219 14.726562 16.886719 14.792969 C 16.824219 14.863281 16.789062 14.9375 16.847656 15.015625 C 16.941406 15.152344 16.855469 15.234375 16.726562 15.332031 C 16.699219 15.238281 16.660156 15.152344 16.59375 15.074219 C 16.570312 15.046875 16.476562 14.957031 16.464844 14.9375 C 16.457031 14.914062 16.464844 14.800781 16.453125 14.75 C 16.449219 14.71875 16.4375 14.6875 16.421875 14.664062 C 16.632812 14.628906 16.945312 14.566406 17.09375 14.507812 C 16.871094 14.558594 16.566406 14.597656 16.378906 14.605469 C 16.359375 14.585938 16.339844 14.570312 16.3125 14.554688 C 16.519531 14.222656 17.015625 13.628906 17.226562 13.386719 C 17.003906 13.597656 16.414062 14.207031 16.253906 14.527344 C 16.234375 14.519531 16.214844 14.515625 16.191406 14.511719 C 16.054688 14.480469 15.800781 14.558594 15.667969 14.601562 C 15.570312 14.636719 15.46875 14.671875 15.371094 14.710938 Z M 15.371094 14.710938 "/>
<path style=" stroke:none;fill-rule:evenodd;fill:rgb(96.470588%,79.215686%,0%);fill-opacity:1;" d="M 15.734375 12.507812 C 15.734375 12.480469 15.734375 12.453125 15.734375 12.425781 C 15.746094 12.460938 15.75 12.488281 15.734375 12.507812 Z M 16.300781 11.351562 C 16.320312 11.234375 16.359375 11.132812 16.433594 11.085938 C 16.578125 11 16.664062 11.023438 16.785156 10.949219 C 16.921875 10.867188 16.855469 10.777344 16.941406 10.722656 C 16.988281 10.691406 17.066406 10.753906 17.167969 10.621094 C 17.234375 10.535156 17.277344 10.480469 17.351562 10.453125 C 17.425781 10.425781 17.535156 10.371094 17.53125 10.480469 C 17.527344 10.582031 17.523438 10.8125 17.511719 11 C 17.503906 11.121094 17.660156 11.078125 17.667969 11.199219 C 17.671875 11.246094 17.597656 11.398438 17.632812 11.472656 C 17.683594 11.578125 17.882812 11.445312 17.863281 11.632812 C 17.851562 11.761719 17.761719 11.9375 17.570312 12.082031 C 17.476562 12.148438 17.304688 12.253906 17.242188 12.429688 C 17.210938 12.367188 17.164062 12.3125 17.105469 12.265625 C 17.082031 12.242188 16.925781 12.136719 16.914062 12.121094 C 16.910156 12.109375 16.910156 12.097656 16.910156 12.085938 C 17.097656 11.996094 17.34375 11.863281 17.457031 11.777344 C 17.296875 11.863281 17.078125 11.964844 16.90625 12.03125 C 16.90625 12.019531 16.90625 12.007812 16.902344 11.996094 C 17.011719 11.601562 17.171875 11.101562 17.253906 10.863281 C 17.191406 11 17.09375 11.246094 17.003906 11.507812 C 16.941406 11.40625 16.902344 11.339844 16.824219 11.203125 C 16.878906 11.347656 16.933594 11.464844 16.980469 11.570312 C 16.941406 11.679688 16.90625 11.789062 16.871094 11.894531 C 16.867188 11.890625 16.863281 11.882812 16.859375 11.875 C 16.832031 11.839844 16.796875 11.820312 16.753906 11.804688 C 16.746094 11.800781 16.707031 11.792969 16.695312 11.785156 C 16.65625 11.710938 16.632812 11.636719 16.585938 11.558594 C 16.53125 11.464844 16.417969 11.351562 16.300781 11.351562 Z M 17.296875 12.753906 C 17.300781 12.773438 17.296875 12.792969 17.292969 12.8125 C 17.292969 12.8125 17.292969 12.808594 17.292969 12.808594 C 17.292969 12.789062 17.292969 12.769531 17.296875 12.753906 Z M 17.296875 12.753906 "/>
<path style=" stroke:none;fill-rule:evenodd;fill:rgb(96.470588%,79.215686%,0%);fill-opacity:1;" d="M 15.796875 13.640625 C 15.789062 13.621094 15.78125 13.597656 15.777344 13.578125 C 15.761719 13.503906 15.859375 13.402344 15.863281 13.3125 C 15.871094 13.179688 15.632812 12.964844 15.589844 12.851562 C 15.53125 12.6875 15.707031 12.652344 15.789062 12.570312 C 15.890625 12.472656 15.75 12.367188 15.820312 12.273438 C 15.902344 12.164062 15.945312 12.316406 16.019531 12.1875 C 16.054688 12.132812 16.054688 12.019531 16.046875 11.949219 C 16.035156 11.875 16.082031 11.785156 16.101562 11.734375 C 16.128906 11.667969 16.195312 11.480469 16.25 11.449219 C 16.335938 11.394531 16.457031 11.503906 16.519531 11.601562 C 16.574219 11.695312 16.585938 11.75 16.625 11.828125 C 16.65625 11.886719 16.75 11.867188 16.792969 11.925781 C 16.832031 11.976562 16.820312 12.023438 16.832031 12.132812 C 16.839844 12.203125 16.949219 12.238281 17.054688 12.328125 C 17.117188 12.382812 17.179688 12.453125 17.210938 12.558594 C 17.226562 12.621094 17.21875 12.6875 17.214844 12.773438 C 17.109375 12.800781 16.992188 12.859375 16.921875 12.941406 C 16.792969 13.085938 16.792969 12.96875 16.683594 13.019531 C 16.640625 13.042969 16.609375 13.074219 16.578125 13.109375 C 16.574219 13.042969 16.570312 12.96875 16.5625 12.894531 C 16.625 12.792969 16.710938 12.667969 16.785156 12.527344 C 16.691406 12.648438 16.632812 12.726562 16.558594 12.820312 C 16.519531 12.441406 16.457031 12.011719 16.414062 11.808594 C 16.445312 12.097656 16.503906 12.753906 16.523438 13.171875 C 16.496094 13.195312 16.46875 13.214844 16.433594 13.230469 C 16.386719 13.25 16.351562 13.269531 16.316406 13.304688 C 16.296875 13.328125 16.261719 13.339844 16.234375 13.351562 C 16.105469 13.410156 15.933594 13.371094 15.847656 13.527344 C 15.824219 13.566406 15.808594 13.601562 15.796875 13.640625 Z M 15.796875 13.640625 "/>
<path style=" stroke:none;fill-rule:evenodd;fill:rgb(96.470588%,79.215686%,0%);fill-opacity:1;" d="M 16.039062 11.675781 C 15.933594 11.589844 15.847656 11.476562 15.785156 11.417969 C 15.640625 11.277344 15.730469 11.382812 15.644531 11.25 C 15.574219 11.144531 15.664062 11 15.761719 10.929688 C 15.824219 10.886719 15.859375 10.816406 15.863281 10.769531 C 15.878906 10.640625 15.71875 10.496094 15.671875 10.34375 C 15.628906 10.210938 15.714844 9.9375 15.996094 9.890625 C 16.078125 9.878906 16.054688 9.722656 16.101562 9.675781 C 16.234375 9.546875 16.375 9.734375 16.363281 9.496094 C 16.359375 9.421875 16.390625 9.332031 16.414062 9.28125 C 16.441406 9.21875 16.519531 9.035156 16.574219 9.007812 C 16.625 8.976562 16.667969 9.015625 16.71875 9.054688 C 16.761719 9.089844 16.808594 9.125 16.835938 9.171875 C 16.886719 9.269531 16.894531 9.324219 16.933594 9.402344 C 16.960938 9.464844 17.046875 9.449219 17.097656 9.507812 C 17.132812 9.550781 17.128906 9.597656 17.125 9.703125 C 17.121094 9.773438 17.253906 9.828125 17.351562 9.921875 C 17.414062 9.980469 17.453125 10.007812 17.480469 10.117188 C 17.492188 10.171875 17.484375 10.253906 17.476562 10.332031 C 17.441406 10.332031 17.40625 10.34375 17.371094 10.355469 C 17.355469 10.363281 17.339844 10.371094 17.324219 10.375 C 17.222656 10.410156 17.167969 10.488281 17.105469 10.570312 C 17.023438 10.675781 16.984375 10.597656 16.894531 10.652344 C 16.777344 10.730469 16.84375 10.816406 16.742188 10.878906 C 16.703125 10.902344 16.667969 10.914062 16.625 10.925781 C 16.625 10.925781 16.601562 10.929688 16.601562 10.929688 C 16.625 10.773438 16.640625 10.570312 16.65625 10.355469 C 16.730469 10.257812 16.839844 10.136719 16.929688 10.003906 C 16.824219 10.113281 16.746094 10.191406 16.660156 10.277344 C 16.679688 9.941406 16.683594 9.605469 16.679688 9.429688 C 16.664062 9.6875 16.621094 10.242188 16.578125 10.65625 C 16.445312 10.511719 16.273438 10.34375 16.144531 10.28125 C 16.300781 10.414062 16.457031 10.59375 16.566406 10.734375 C 16.558594 10.816406 16.550781 10.886719 16.539062 10.949219 C 16.488281 10.964844 16.445312 10.984375 16.390625 11.015625 C 16.277344 11.082031 16.230469 11.234375 16.21875 11.375 C 16.214844 11.375 16.210938 11.378906 16.207031 11.378906 C 16.132812 11.425781 16.074219 11.582031 16.039062 11.675781 Z M 16.039062 11.675781 "/>
<path style=" stroke:none;fill-rule:evenodd;fill:rgb(96.470588%,79.215686%,0%);fill-opacity:1;" d="M 14.847656 16.257812 C 14.84375 16.199219 14.84375 16.15625 14.847656 16.136719 C 14.875 16.019531 15.027344 16.003906 15.105469 15.894531 C 15.175781 15.796875 15.121094 15.6875 15.066406 15.546875 C 14.992188 15.367188 14.902344 15.148438 14.972656 14.933594 C 14.992188 14.757812 15.09375 14.902344 15.199219 14.867188 C 15.234375 14.855469 15.566406 14.710938 15.847656 14.636719 C 15.789062 14.914062 15.71875 15.195312 15.644531 15.476562 C 15.515625 15.3125 15.320312 15.089844 15.183594 14.976562 C 15.292969 15.09375 15.539062 15.382812 15.628906 15.542969 C 15.585938 15.695312 15.542969 15.851562 15.5 16.003906 C 15.285156 16.09375 15.066406 16.171875 14.847656 16.257812 Z M 15.851562 14.632812 C 15.984375 14.597656 16.105469 14.574219 16.175781 14.589844 C 16.453125 14.652344 16.355469 14.875 16.386719 14.964844 C 16.414062 15.039062 16.570312 15.09375 16.648438 15.347656 C 16.398438 15.5625 16.121094 15.726562 15.824219 15.867188 C 15.742188 15.90625 15.660156 15.941406 15.578125 15.972656 C 15.59375 15.910156 15.609375 15.847656 15.625 15.777344 C 15.796875 15.660156 16.113281 15.425781 16.253906 15.269531 C 16.132812 15.371094 15.808594 15.605469 15.644531 15.691406 C 15.679688 15.535156 15.714844 15.367188 15.75 15.1875 C 15.828125 15.089844 15.9375 14.96875 16.035156 14.835938 C 15.925781 14.941406 15.855469 15.007812 15.769531 15.09375 C 15.796875 14.949219 15.824219 14.792969 15.851562 14.632812 Z M 15.851562 14.632812 "/>
<path style=" stroke:none;fill-rule:evenodd;fill:rgb(85.098039%,8.235294%,12.941176%);fill-opacity:1;" d="M 8.929688 1.042969 C 8.929688 1.042969 8.058594 3.097656 8.058594 3.097656 C 8.058594 3.097656 5.875 3.316406 5.875 3.316406 C 5.875 3.316406 7.515625 4.808594 7.515625 4.808594 C 7.515625 4.808594 7.042969 7 7.042969 7 C 7.042969 7 8.929688 5.863281 8.929688 5.863281 C 8.929688 5.863281 10.820312 7 10.820312 7 C 10.820312 7 10.347656 4.808594 10.347656 4.808594 C 10.347656 4.808594 11.988281 3.316406 11.988281 3.316406 C 11.988281 3.316406 9.804688 3.097656 9.804688 3.097656 C 9.804688 3.097656 8.929688 1.042969 8.929688 1.042969 Z M 8.929688 1.042969 "/>
<path style=" stroke:none;fill-rule:evenodd;fill:rgb(96.470588%,79.215686%,0%);fill-opacity:1;" d="M 8.957031 2.261719 C 8.957031 2.261719 8.898438 4.222656 8.898438 4.222656 C 8.898438 4.222656 7 3.683594 7 3.683594 C 7 3.683594 8.847656 4.382812 8.847656 4.382812 C 8.847656 4.382812 7.765625 5.984375 7.765625 5.984375 C 7.765625 5.984375 8.960938 4.464844 8.960938 4.464844 C 8.960938 4.464844 10.105469 5.949219 10.105469 5.949219 C 10.105469 5.949219 9.078125 4.375 9.078125 4.375 C 9.078125 4.375 10.816406 3.734375 10.816406 3.734375 C 10.816406 3.734375 9.039062 4.238281 9.039062 4.238281 C 9.039062 4.238281 8.957031 2.261719 8.957031 2.261719 Z M 8.957031 2.261719 "/>
<path style=" stroke:none;fill-rule:evenodd;fill:rgb(85.098039%,8.235294%,12.941176%);fill-opacity:1;" d="M 5.511719 22.457031 C 6.015625 22.890625 6.464844 23.351562 7.035156 23.757812 C 7.144531 23.835938 7.167969 23.890625 7.304688 23.84375 C 7.71875 23.703125 8.390625 23.597656 8.925781 23.59375 C 9.476562 23.589844 10.046875 23.6875 10.589844 23.84375 C 10.746094 23.890625 10.808594 23.820312 10.929688 23.726562 C 11.445312 23.328125 11.914062 22.867188 12.410156 22.4375 C 12.148438 22.4375 11.925781 22.433594 11.675781 22.382812 C 10.890625 22.21875 10.089844 21.933594 8.941406 21.945312 C 7.792969 21.957031 6.804688 22.273438 6.171875 22.394531 C 5.90625 22.445312 5.683594 22.488281 5.511719 22.457031 Z M 5.511719 22.457031 "/>
<path style=" stroke:none;fill-rule:evenodd;fill:rgb(85.098039%,8.235294%,12.941176%);fill-opacity:1;" d="M 2.710938 8.066406 C 3.875 7.605469 5 7.039062 6.101562 6.441406 C 6.367188 6.296875 6.632812 6.152344 6.894531 6.003906 C 6.894531 6.003906 7.125 4.933594 7.125 4.933594 C 7.125 4.933594 6.90625 4.734375 6.90625 4.734375 C 6.625 4.882812 6.347656 5.03125 6.070312 5.175781 C 5.164062 5.660156 4.257812 6.15625 3.328125 6.589844 C 3.121094 6.6875 2.871094 6.800781 2.609375 6.90625 C 2.179688 7.082031 1.757812 7.230469 1.335938 7.292969 C 1.34375 8.234375 1.386719 9.144531 1.457031 10.082031 C 1.46875 10.226562 1.480469 10.371094 1.492188 10.519531 C 1.570312 10.667969 1.65625 10.808594 1.75 10.941406 C 1.929688 10.804688 2.121094 10.691406 2.3125 10.625 C 2.3125 10.625 2.472656 10.570312 2.472656 10.570312 C 2.472656 10.570312 2.417969 10.730469 2.417969 10.730469 C 2.289062 11.109375 2.269531 11.769531 2.355469 12.160156 C 2.421875 12.464844 2.480469 12.8125 2.449219 13.125 C 2.445312 13.15625 2.445312 13.183594 2.4375 13.214844 C 2.617188 13.105469 2.804688 13.019531 2.988281 12.972656 C 2.683594 11.480469 2.597656 9.9375 2.488281 8.429688 C 2.488281 8.429688 2.46875 8.164062 2.46875 8.164062 C 2.46875 8.164062 2.710938 8.066406 2.710938 8.066406 Z M 6.878906 22.152344 C 7.035156 22.117188 7.191406 22.082031 7.347656 22.046875 C 7.566406 22.003906 7.789062 21.964844 8.011719 21.933594 C 5.808594 19.746094 4.019531 16.839844 3.199219 13.863281 C 3.140625 13.648438 3.089844 13.4375 3.042969 13.222656 C 2.921875 13.59375 2.863281 14.105469 2.914062 14.453125 C 2.933594 14.613281 2.953125 14.789062 2.960938 14.960938 C 3.011719 14.914062 3.066406 14.871094 3.125 14.832031 C 3.125 14.832031 3.25 14.746094 3.25 14.746094 C 3.25 14.746094 3.253906 14.894531 3.253906 14.894531 C 3.265625 15.308594 3.339844 15.855469 3.476562 16.246094 C 3.519531 16.367188 3.570312 16.484375 3.625 16.601562 C 3.679688 16.640625 3.726562 16.6875 3.769531 16.738281 C 3.886719 16.867188 3.957031 17.039062 4.042969 17.261719 C 4.125 17.46875 4.296875 17.929688 4.375 18.148438 C 4.375 18.148438 4.582031 17.816406 4.582031 17.816406 C 4.582031 17.816406 4.617188 18.019531 4.617188 18.019531 C 4.6875 18.398438 4.839844 18.914062 5.015625 19.246094 C 5.152344 19.507812 5.339844 19.734375 5.480469 19.988281 C 5.617188 20.238281 5.714844 20.511719 5.757812 20.789062 C 6.0625 20.984375 6.3125 21.210938 6.566406 21.484375 C 6.664062 21.589844 6.789062 21.90625 6.878906 22.152344 Z M 8.222656 23.726562 C 8.460938 23.9375 8.707031 24.144531 8.953125 24.347656 C 9.207031 24.148438 9.457031 23.941406 9.703125 23.734375 C 9.445312 23.695312 9.183594 23.675781 8.925781 23.675781 C 8.710938 23.675781 8.464844 23.695312 8.222656 23.726562 Z M 11.035156 22.148438 C 11.046875 21.941406 11.054688 21.691406 11.183594 21.539062 C 11.3125 21.390625 11.523438 21.503906 11.585938 21.445312 C 11.613281 21.421875 11.640625 21.238281 11.648438 21.199219 C 11.679688 21.039062 11.726562 20.882812 11.832031 20.753906 C 11.9375 20.628906 12.085938 20.691406 12.210938 20.6875 C 12.191406 20.539062 12.179688 20.394531 12.207031 20.292969 C 12.238281 20.171875 12.371094 20.144531 12.410156 20.074219 C 12.449219 20.003906 12.347656 19.683594 12.359375 19.570312 C 12.367188 19.503906 12.390625 19.445312 12.445312 19.40625 C 12.539062 19.339844 12.625 19.371094 12.714844 19.339844 C 12.78125 19.320312 12.722656 19.160156 12.863281 19.089844 C 12.910156 19.070312 12.972656 19.066406 13.003906 19.097656 C 13.015625 19.105469 13.023438 19.113281 13.035156 19.117188 C 13.035156 19.117188 13.039062 19.113281 13.039062 19.113281 C 13.0625 19.085938 13.089844 19.066406 13.121094 19.054688 C 13.121094 19.054688 13.175781 18.929688 13.175781 18.929688 C 13.199219 18.839844 13.234375 18.75 13.273438 18.660156 C 13.382812 18.417969 13.480469 18.175781 13.582031 17.929688 C 13.710938 17.617188 13.835938 17.292969 13.972656 16.980469 C 14.15625 16.558594 14.398438 16.445312 14.769531 16.292969 C 14.761719 16.214844 14.761719 16.152344 14.769531 16.117188 C 14.804688 15.953125 14.96875 15.949219 15.039062 15.847656 C 15.089844 15.78125 15.015625 15.644531 14.988281 15.578125 C 14.902344 15.367188 14.820312 15.144531 14.894531 14.914062 C 14.902344 14.855469 14.921875 14.792969 14.984375 14.769531 C 15.0625 14.742188 15.132812 14.800781 15.175781 14.789062 C 15.210938 14.777344 15.253906 14.757812 15.289062 14.742188 C 15.289062 14.628906 15.300781 14.515625 15.355469 14.421875 C 15.453125 14.25 15.683594 14.320312 15.734375 14.25 C 15.753906 14.222656 15.75 14.035156 15.75 13.996094 C 15.75 13.921875 15.753906 13.84375 15.765625 13.769531 C 15.734375 13.707031 15.707031 13.648438 15.695312 13.597656 C 15.671875 13.476562 15.777344 13.390625 15.78125 13.308594 C 15.785156 13.226562 15.554688 12.988281 15.515625 12.878906 C 15.492188 12.816406 15.488281 12.753906 15.519531 12.691406 C 15.554688 12.625 15.609375 12.597656 15.660156 12.566406 C 15.648438 12.464844 15.648438 12.363281 15.6875 12.273438 C 15.738281 12.140625 15.878906 12.125 15.964844 12.097656 C 15.972656 12.050781 15.96875 11.992188 15.964844 11.960938 C 15.957031 11.890625 15.976562 11.820312 16.003906 11.753906 C 15.902344 11.675781 15.824219 11.570312 15.726562 11.476562 C 15.703125 11.453125 15.640625 11.402344 15.625 11.378906 C 15.609375 11.351562 15.59375 11.320312 15.578125 11.296875 C 15.476562 11.144531 15.585938 10.957031 15.714844 10.863281 C 15.742188 10.84375 15.78125 10.796875 15.785156 10.761719 C 15.789062 10.703125 15.707031 10.585938 15.675781 10.535156 C 15.644531 10.480469 15.613281 10.425781 15.59375 10.367188 C 15.5625 10.261719 15.589844 10.136719 15.640625 10.042969 C 15.714844 9.917969 15.832031 9.835938 15.972656 9.8125 C 15.996094 9.769531 15.984375 9.675781 16.042969 9.617188 C 16.09375 9.570312 16.148438 9.546875 16.214844 9.542969 C 16.230469 9.542969 16.261719 9.546875 16.28125 9.546875 C 16.285156 9.53125 16.285156 9.507812 16.28125 9.5 C 16.28125 9.417969 16.304688 9.316406 16.339844 9.246094 C 16.378906 9.160156 16.449219 8.988281 16.53125 8.9375 C 16.546875 8.378906 16.550781 7.824219 16.570312 7.265625 C 15.910156 7.164062 15.214844 6.882812 14.613281 6.609375 C 13.832031 6.25 13.070312 5.835938 12.3125 5.425781 C 11.871094 5.183594 11.429688 4.941406 10.984375 4.707031 C 10.984375 4.707031 10.734375 4.933594 10.734375 4.933594 C 10.734375 4.933594 10.964844 6.007812 10.964844 6.007812 C 11.160156 6.113281 11.351562 6.214844 11.546875 6.320312 C 12.191406 6.667969 12.835938 7.007812 13.492188 7.328125 C 14.042969 7.597656 14.605469 7.859375 15.1875 8.0625 C 15.1875 8.0625 15.4375 8.152344 15.4375 8.152344 C 15.4375 8.152344 15.421875 8.421875 15.421875 8.421875 C 15.328125 10.234375 15.15625 12.066406 14.675781 13.824219 C 13.804688 17 12.117188 19.585938 9.933594 21.925781 C 10.109375 21.949219 10.285156 21.980469 10.460938 22.015625 C 10.652344 22.054688 10.84375 22.101562 11.035156 22.148438 Z M 11.035156 22.148438 "/>
<path style=" stroke:none;fill-rule:evenodd;fill:rgb(85.098039%,8.235294%,12.941176%);fill-opacity:1;" d="M 2.925781 8.457031 C 3.054688 10.207031 3.152344 12.046875 3.617188 13.742188 C 4.449219 16.765625 6.3125 19.714844 8.582031 21.875 C 8.699219 21.867188 8.820312 21.863281 8.941406 21.863281 C 9.089844 21.859375 9.234375 21.863281 9.382812 21.871094 C 11.636719 19.515625 13.375 16.921875 14.257812 13.707031 C 14.722656 12.003906 14.890625 10.21875 14.988281 8.460938 C 14.414062 8.253906 13.851562 7.992188 13.304688 7.726562 C 12.644531 7.40625 11.992188 7.058594 11.34375 6.710938 C 11.257812 6.664062 11.171875 6.617188 11.085938 6.574219 C 11.085938 6.574219 11.335938 7.726562 11.335938 7.726562 C 11.335938 7.726562 8.929688 6.277344 8.929688 6.277344 C 8.929688 6.277344 6.527344 7.726562 6.527344 7.726562 C 6.527344 7.726562 6.773438 6.578125 6.773438 6.578125 C 6.617188 6.664062 6.460938 6.746094 6.304688 6.832031 C 5.207031 7.425781 4.082031 7.992188 2.925781 8.457031 Z M 2.925781 8.457031 "/>
<path style=" stroke:none;fill-rule:evenodd;fill:rgb(16.078431%,20.392157%,51.764706%);fill-opacity:1;" d="M 2.925781 8.457031 C 3.054688 10.207031 3.152344 12.046875 3.617188 13.742188 C 3.992188 15.105469 4.574219 16.453125 5.3125 17.71875 C 5.3125 17.71875 5.3125 7.355469 5.3125 7.355469 C 4.53125 7.753906 3.734375 8.128906 2.925781 8.457031 Z M 7.761719 21.042969 C 8.027344 21.332031 8.300781 21.609375 8.582031 21.875 C 8.699219 21.867188 8.820312 21.863281 8.941406 21.863281 C 9.089844 21.859375 9.234375 21.863281 9.382812 21.871094 C 9.628906 21.613281 9.867188 21.355469 10.101562 21.089844 C 10.101562 21.089844 10.101562 6.984375 10.101562 6.984375 C 10.101562 6.984375 8.929688 6.277344 8.929688 6.277344 C 8.929688 6.277344 7.761719 6.984375 7.761719 6.984375 C 7.761719 6.984375 7.761719 21.042969 7.761719 21.042969 Z M 12.550781 17.75 C 13.277344 16.507812 13.855469 15.171875 14.257812 13.707031 C 14.722656 12.003906 14.890625 10.21875 14.988281 8.460938 C 14.414062 8.253906 13.851562 7.992188 13.304688 7.726562 C 13.050781 7.605469 12.800781 7.476562 12.550781 7.347656 C 12.550781 7.347656 12.550781 17.75 12.550781 17.75 Z M 12.550781 17.75 "/>
<path style=" stroke:none;fill-rule:evenodd;fill:rgb(96.470588%,79.215686%,0%);fill-opacity:1;" d="M 7.03125 5.386719 C 7.03125 5.386719 4.789062 6.558594 4.789062 6.558594 C 4.429688 6.746094 4.074219 6.925781 3.710938 7.097656 C 3.203125 7.335938 2.667969 7.570312 2.132812 7.71875 C 2.132812 7.71875 2.09375 7.730469 2.09375 7.730469 C 2.09375 7.730469 2.070312 7.652344 2.070312 7.652344 C 2.070312 7.652344 2.109375 7.640625 2.109375 7.640625 C 2.644531 7.492188 3.175781 7.257812 3.675781 7.023438 C 4.039062 6.851562 4.394531 6.671875 4.75 6.488281 C 4.75 6.488281 7.050781 5.28125 7.050781 5.28125 C 7.050781 5.28125 7.03125 5.386719 7.03125 5.386719 Z M 7.03125 5.386719 "/>
<path style=" stroke:none;fill-rule:evenodd;fill:rgb(96.470588%,79.215686%,0%);fill-opacity:1;" d="M 10.800781 5.238281 C 10.800781 5.238281 13.183594 6.488281 13.183594 6.488281 C 13.539062 6.671875 13.894531 6.851562 14.257812 7.023438 C 14.757812 7.257812 15.289062 7.492188 15.820312 7.640625 C 15.820312 7.640625 15.859375 7.652344 15.859375 7.652344 C 15.859375 7.652344 15.839844 7.730469 15.839844 7.730469 C 15.839844 7.730469 15.800781 7.71875 15.800781 7.71875 C 15.261719 7.570312 14.726562 7.335938 14.222656 7.097656 C 13.859375 6.925781 13.503906 6.746094 13.144531 6.558594 C 13.144531 6.558594 10.824219 5.34375 10.824219 5.34375 C 10.824219 5.34375 10.800781 5.238281 10.800781 5.238281 Z M 10.800781 5.238281 "/>
<path style=" stroke:none;fill-rule:evenodd;fill:rgb(96.470588%,79.215686%,0%);fill-opacity:1;" d="M 1.957031 7.882812 C 1.960938 8.828125 2.042969 9.765625 2.128906 10.703125 C 2.105469 10.714844 2.078125 10.730469 2.050781 10.742188 C 1.964844 9.792969 1.878906 8.839844 1.875 7.882812 C 1.875 7.882812 1.875 7.839844 1.875 7.839844 C 1.875 7.839844 1.957031 7.839844 1.957031 7.839844 C 1.957031 7.839844 1.957031 7.882812 1.957031 7.882812 Z M 1.957031 7.882812 "/>
<path style=" stroke:none;fill-rule:evenodd;fill:rgb(96.470588%,79.215686%,0%);fill-opacity:1;" d="M 16.050781 7.882812 C 16.046875 8.527344 16.007812 9.171875 15.953125 9.816406 C 15.925781 9.820312 15.898438 9.832031 15.871094 9.839844 C 15.925781 9.191406 15.964844 8.539062 15.96875 7.882812 C 15.96875 7.882812 15.96875 7.839844 15.96875 7.839844 C 15.96875 7.839844 16.050781 7.839844 16.050781 7.839844 C 16.050781 7.839844 16.050781 7.882812 16.050781 7.882812 Z M 16.050781 7.882812 "/>
<path style=" stroke:none;fill-rule:evenodd;fill:rgb(96.470588%,79.215686%,0%);fill-opacity:1;" d="M 15.117188 14.660156 C 15.117188 14.660156 15.078125 14.769531 15.078125 14.769531 C 15.054688 14.761719 15.023438 14.757812 14.996094 14.765625 C 14.996094 14.765625 15.039062 14.636719 15.039062 14.636719 C 15.039062 14.636719 15.050781 14.597656 15.050781 14.597656 C 15.050781 14.597656 15.128906 14.621094 15.128906 14.621094 C 15.128906 14.621094 15.117188 14.660156 15.117188 14.660156 Z M 14.894531 15.304688 C 14.757812 15.683594 14.613281 16.0625 14.457031 16.433594 C 14.414062 16.457031 14.375 16.484375 14.339844 16.507812 C 14.53125 16.058594 14.703125 15.597656 14.867188 15.136719 C 14.871094 15.191406 14.878906 15.25 14.894531 15.304688 Z M 13.234375 18.757812 C 13.160156 18.875 13.089844 18.992188 13.015625 19.105469 C 13.011719 19.101562 13.007812 19.097656 13.003906 19.097656 C 12.988281 19.082031 12.964844 19.074219 12.9375 19.074219 C 13.125 18.78125 13.304688 18.484375 13.476562 18.183594 C 13.410156 18.34375 13.34375 18.5 13.273438 18.660156 C 13.261719 18.691406 13.246094 18.726562 13.234375 18.757812 Z M 12.414062 19.972656 C 11.882812 20.703125 11.308594 21.398438 10.703125 22.070312 C 10.671875 22.0625 10.640625 22.054688 10.609375 22.046875 C 11.242188 21.347656 11.84375 20.625 12.398438 19.859375 C 12.40625 19.898438 12.410156 19.9375 12.414062 19.972656 Z M 12.414062 19.972656 "/>
<path style=" stroke:none;fill-rule:evenodd;fill:rgb(96.470588%,79.215686%,0%);fill-opacity:1;" d="M 2.957031 14.867188 C 2.957031 14.867188 2.980469 14.941406 2.980469 14.941406 C 2.972656 14.945312 2.964844 14.953125 2.960938 14.960938 C 2.957031 14.929688 2.957031 14.898438 2.957031 14.867188 Z M 4.289062 17.917969 C 4.324219 17.980469 4.359375 18.046875 4.398438 18.109375 C 4.398438 18.109375 4.375 18.148438 4.375 18.148438 C 4.351562 18.085938 4.320312 18.007812 4.289062 17.917969 Z M 4.855469 18.882812 C 5.007812 19.121094 5.160156 19.355469 5.324219 19.585938 C 5.933594 20.453125 6.601562 21.273438 7.3125 22.054688 C 7.28125 22.0625 7.25 22.070312 7.21875 22.074219 C 6.519531 21.300781 5.859375 20.492188 5.257812 19.636719 C 5.257812 19.636719 5.242188 19.617188 5.242188 19.617188 C 5.164062 19.496094 5.082031 19.375 5.015625 19.246094 C 4.960938 19.140625 4.90625 19.015625 4.855469 18.882812 Z M 4.855469 18.882812 "/>
<path style=" stroke:none;fill-rule:evenodd;fill:rgb(8.627451%,7.843137%,7.45098%);fill-opacity:1;" d="M 1.964844 7.441406 C 2.148438 7.441406 2.300781 7.59375 2.300781 7.78125 C 2.300781 7.96875 2.148438 8.121094 1.964844 8.121094 C 1.78125 8.121094 1.632812 7.96875 1.632812 7.78125 C 1.632812 7.59375 1.78125 7.441406 1.964844 7.441406 Z M 1.964844 7.441406 "/>
<path style=" stroke:none;fill-rule:evenodd;fill:rgb(96.470588%,79.215686%,0%);fill-opacity:1;" d="M 1.964844 7.523438 C 2.105469 7.523438 2.21875 7.640625 2.21875 7.78125 C 2.21875 7.921875 2.105469 8.039062 1.964844 8.039062 C 1.824219 8.039062 1.710938 7.921875 1.710938 7.78125 C 1.710938 7.640625 1.824219 7.523438 1.964844 7.523438 Z M 1.964844 7.523438 "/>
<path style=" stroke:none;fill-rule:evenodd;fill:rgb(8.627451%,7.843137%,7.45098%);fill-opacity:1;" d="M 4.753906 6.1875 C 4.9375 6.1875 5.089844 6.339844 5.089844 6.527344 C 5.089844 6.714844 4.9375 6.867188 4.753906 6.867188 C 4.570312 6.867188 4.421875 6.714844 4.421875 6.527344 C 4.421875 6.339844 4.570312 6.1875 4.753906 6.1875 Z M 4.753906 6.1875 "/>
<path style=" stroke:none;fill-rule:evenodd;fill:rgb(96.470588%,79.215686%,0%);fill-opacity:1;" d="M 4.753906 6.273438 C 4.894531 6.273438 5.007812 6.386719 5.007812 6.527344 C 5.007812 6.671875 4.894531 6.785156 4.753906 6.785156 C 4.613281 6.785156 4.5 6.671875 4.5 6.527344 C 4.5 6.386719 4.613281 6.273438 4.753906 6.273438 Z M 4.753906 6.273438 "/>
<path style=" stroke:none;fill-rule:evenodd;fill:rgb(8.627451%,7.843137%,7.45098%);fill-opacity:1;" d="M 15.960938 7.441406 C 16.144531 7.441406 16.296875 7.59375 16.296875 7.78125 C 16.296875 7.96875 16.144531 8.121094 15.960938 8.121094 C 15.777344 8.121094 15.628906 7.96875 15.628906 7.78125 C 15.628906 7.59375 15.777344 7.441406 15.960938 7.441406 Z M 15.960938 7.441406 "/>
<path style=" stroke:none;fill-rule:evenodd;fill:rgb(96.470588%,79.215686%,0%);fill-opacity:1;" d="M 15.960938 7.523438 C 16.101562 7.523438 16.214844 7.640625 16.214844 7.78125 C 16.214844 7.921875 16.101562 8.039062 15.960938 8.039062 C 15.820312 8.039062 15.707031 7.921875 15.707031 7.78125 C 15.707031 7.640625 15.820312 7.523438 15.960938 7.523438 Z M 15.960938 7.523438 "/>
<path style=" stroke:none;fill-rule:evenodd;fill:rgb(8.627451%,7.843137%,7.45098%);fill-opacity:1;" d="M 13.164062 6.1875 C 13.347656 6.1875 13.5 6.339844 13.5 6.527344 C 13.5 6.714844 13.347656 6.867188 13.164062 6.867188 C 12.980469 6.867188 12.832031 6.714844 12.832031 6.527344 C 12.832031 6.339844 12.980469 6.1875 13.164062 6.1875 Z M 13.164062 6.1875 "/>
<path style=" stroke:none;fill-rule:evenodd;fill:rgb(96.470588%,79.215686%,0%);fill-opacity:1;" d="M 13.164062 6.273438 C 13.304688 6.273438 13.417969 6.386719 13.417969 6.527344 C 13.417969 6.671875 13.304688 6.785156 13.164062 6.785156 C 13.027344 6.785156 12.914062 6.671875 12.914062 6.527344 C 12.914062 6.386719 13.027344 6.273438 13.164062 6.273438 Z M 13.164062 6.273438 "/>
<path style=" stroke:none;fill-rule:evenodd;fill:rgb(8.627451%,7.843137%,7.45098%);fill-opacity:1;" d="M 4.207031 8.390625 C 4.207031 8.390625 5.6875 8.050781 5.6875 8.050781 C 5.6875 8.050781 5.828125 8.503906 5.828125 8.503906 C 5.828125 8.503906 6.535156 7.910156 6.535156 7.910156 C 6.535156 7.910156 8.105469 7.792969 8.105469 7.792969 C 8.105469 7.792969 9.140625 8.59375 9.140625 8.59375 C 9.140625 8.59375 9.0625 12.480469 9.0625 12.480469 C 9.0625 12.480469 9.132812 13.546875 9.132812 13.546875 C 9.132812 13.546875 8.253906 14.460938 8.253906 14.460938 C 8.253906 14.460938 6.4375 14.542969 6.4375 14.542969 C 6.4375 14.542969 6.039062 14.195312 6.039062 14.195312 C 6.039062 14.195312 5.96875 15.339844 5.96875 15.339844 C 5.96875 15.339844 4.207031 15.515625 4.207031 15.515625 C 4.207031 15.515625 3.714844 14.882812 3.714844 14.882812 C 3.714844 14.882812 2.851562 15.054688 2.851562 15.054688 C 2.851562 15.054688 1.222656 14.238281 1.222656 14.238281 C 1.222656 14.238281 2.835938 8.71875 2.835938 8.71875 C 2.835938 8.71875 4.207031 8.390625 4.207031 8.390625 Z M 4.207031 8.390625 "/>
<path style=" stroke:none;fill-rule:evenodd;fill:rgb(96.470588%,79.215686%,0%);fill-opacity:1;" d="M 3.023438 12.5 C 3.023438 12.5 3.46875 12.429688 3.46875 12.429688 C 3.46875 12.429688 4.34375 8.53125 4.34375 8.53125 C 4.34375 8.53125 5.53125 8.253906 5.53125 8.253906 C 5.53125 8.253906 4.875 12.234375 4.875 12.234375 C 4.875 12.234375 5.09375 12.222656 5.09375 12.222656 C 5.09375 12.222656 5.613281 8.902344 5.613281 8.902344 C 5.613281 8.902344 6.574219 8.078125 6.574219 8.078125 C 6.574219 8.078125 8.054688 7.964844 8.054688 7.964844 C 8.054688 7.964844 8.925781 8.652344 8.925781 8.652344 C 8.925781 8.652344 8.925781 9.96875 8.925781 9.96875 C 8.925781 9.96875 7.519531 9.976562 7.519531 9.976562 C 7.519531 9.976562 7.535156 9.074219 7.535156 9.074219 C 7.535156 9.074219 6.957031 9.101562 6.957031 9.101562 C 6.957031 9.101562 6.632812 12.101562 6.632812 12.101562 C 6.632812 12.101562 7.460938 12.066406 7.460938 12.066406 C 7.460938 12.066406 7.539062 10.714844 7.539062 10.714844 C 7.539062 10.714844 8.933594 10.667969 8.933594 10.667969 C 8.933594 10.667969 8.902344 12.402344 8.902344 12.402344 C 8.902344 12.402344 7.851562 13.242188 7.851562 13.242188 C 7.851562 13.242188 5.929688 13.375 5.929688 13.375 C 5.929688 13.375 5.238281 12.78125 5.238281 12.78125 C 5.238281 12.78125 5.027344 14.417969 5.027344 14.417969 C 5.027344 14.417969 3.625 14.53125 3.625 14.53125 C 3.625 14.53125 3.753906 13.628906 3.753906 13.628906 C 3.753906 13.628906 1.453125 14.03125 1.453125 14.03125 C 1.453125 14.03125 2.953125 8.84375 2.953125 8.84375 C 2.953125 8.84375 3.980469 8.613281 3.980469 8.613281 C 3.980469 8.613281 3.023438 12.5 3.023438 12.5 Z M 3.023438 12.5 "/>
<path style=" stroke:none;fill-rule:evenodd;fill:rgb(100%,100%,100%);fill-opacity:1;" d="M 3.050781 8.953125 C 3.050781 8.953125 1.625 13.875 1.625 13.875 C 1.625 13.875 3.898438 13.480469 3.898438 13.480469 C 3.898438 13.480469 3.765625 14.394531 3.765625 14.394531 C 3.765625 14.394531 4.917969 14.300781 4.917969 14.300781 C 4.917969 14.300781 5.144531 12.539062 5.144531 12.539062 C 5.144531 12.539062 5.96875 13.246094 5.96875 13.246094 C 5.96875 13.246094 7.804688 13.121094 7.804688 13.121094 C 7.804688 13.121094 8.78125 12.339844 8.78125 12.339844 C 8.78125 12.339844 8.8125 10.796875 8.8125 10.796875 C 8.8125 10.796875 7.652344 10.835938 7.652344 10.835938 C 7.652344 10.835938 7.578125 12.183594 7.578125 12.183594 C 7.578125 12.183594 6.496094 12.230469 6.496094 12.230469 C 6.496094 12.230469 6.84375 8.984375 6.84375 8.984375 C 6.84375 8.984375 7.667969 8.945312 7.667969 8.945312 C 7.667969 8.945312 7.652344 9.828125 7.652344 9.828125 C 7.652344 9.828125 8.796875 9.828125 8.796875 9.828125 C 8.796875 9.828125 8.804688 8.726562 8.804688 8.726562 C 8.804688 8.726562 8.011719 8.105469 8.011719 8.105469 C 8.011719 8.105469 6.609375 8.214844 6.609375 8.214844 C 6.609375 8.214844 5.726562 8.96875 5.726562 8.96875 C 5.726562 8.96875 5.199219 12.339844 5.199219 12.339844 C 5.199219 12.339844 4.726562 12.371094 4.726562 12.371094 C 4.726562 12.371094 5.382812 8.417969 5.382812 8.417969 C 5.382812 8.417969 4.445312 8.632812 4.445312 8.632812 C 4.445312 8.632812 3.570312 12.539062 3.570312 12.539062 C 3.570312 12.539062 2.859375 12.648438 2.859375 12.648438 C 2.859375 12.648438 3.804688 8.796875 3.804688 8.796875 C 3.804688 8.796875 3.050781 8.953125 3.050781 8.953125 Z M 3.050781 8.953125 "/>
<path style=" stroke:none;fill-rule:evenodd;fill:rgb(8.627451%,7.843137%,7.45098%);fill-opacity:1;" d="M 10.714844 8.941406 C 10.714844 8.941406 11.148438 7.867188 11.148438 7.867188 C 11.148438 7.867188 12.769531 8.160156 12.769531 8.160156 C 12.769531 8.160156 12.585938 8.703125 12.585938 8.703125 C 12.585938 8.703125 13.117188 8.25 13.117188 8.25 C 13.117188 8.25 15.070312 8.808594 15.070312 8.808594 C 15.070312 8.808594 16.773438 14.277344 16.773438 14.277344 C 16.773438 14.277344 15.390625 15.085938 15.390625 15.085938 C 15.390625 15.085938 13.285156 14.746094 13.285156 14.746094 C 13.285156 14.746094 11.230469 14.523438 11.230469 14.523438 C 11.230469 14.523438 10.914062 13.964844 10.914062 13.964844 C 10.914062 13.964844 10.851562 14.503906 10.851562 14.503906 C 10.851562 14.503906 8.851562 14.445312 8.851562 14.445312 C 8.851562 14.445312 8.925781 7.773438 8.925781 7.773438 C 8.925781 7.773438 10.640625 7.84375 10.640625 7.84375 C 10.640625 7.84375 10.714844 8.941406 10.714844 8.941406 Z M 10.714844 8.941406 "/>
<path style=" stroke:none;fill-rule:evenodd;fill:rgb(96.470588%,79.215686%,0%);fill-opacity:1;" d="M 10.597656 9.664062 C 10.597656 9.664062 11.25 8.050781 11.25 8.050781 C 11.25 8.050781 12.554688 8.289062 12.554688 8.289062 C 12.554688 8.289062 11.824219 10.417969 11.824219 10.417969 C 11.824219 10.417969 13.148438 12.605469 13.148438 12.605469 C 13.148438 12.605469 12.503906 8.988281 12.503906 8.988281 C 12.503906 8.988281 13.15625 8.433594 13.15625 8.433594 C 13.15625 8.433594 14.941406 8.941406 14.941406 8.941406 C 14.941406 8.941406 16.535156 14.054688 16.535156 14.054688 C 16.535156 14.054688 15.269531 13.777344 15.269531 13.777344 C 15.269531 13.777344 15.023438 12.757812 15.023438 12.757812 C 15.023438 12.757812 14.566406 12.71875 14.566406 12.71875 C 14.566406 12.71875 14.753906 13.710938 14.753906 13.710938 C 14.753906 13.710938 13.414062 13.507812 13.414062 13.507812 C 13.414062 13.507812 11.953125 13.378906 11.953125 13.378906 C 11.953125 13.378906 10.71875 11.199219 10.71875 11.199219 C 10.71875 11.199219 10.84375 13.296875 10.84375 13.296875 C 10.84375 13.296875 9.164062 13.257812 9.164062 13.257812 C 9.164062 13.257812 9.089844 7.945312 9.089844 7.945312 C 9.089844 7.945312 10.488281 8.003906 10.488281 8.003906 C 10.488281 8.003906 10.597656 9.664062 10.597656 9.664062 Z M 13.792969 9.53125 C 13.792969 9.53125 14.25 11.46875 14.25 11.46875 C 14.25 11.46875 14.75 11.539062 14.75 11.539062 C 14.75 11.539062 14.191406 9.648438 14.191406 9.648438 C 14.191406 9.648438 13.792969 9.53125 13.792969 9.53125 Z M 13.792969 9.53125 "/>
<path style=" stroke:none;fill-rule:evenodd;fill:rgb(100%,100%,100%);fill-opacity:1;" d="M 9.214844 8.074219 C 9.214844 8.074219 9.285156 13.136719 9.285156 13.136719 C 9.285156 13.136719 10.714844 13.167969 10.714844 13.167969 C 10.714844 13.167969 10.5625 10.679688 10.5625 10.679688 C 10.5625 10.679688 12.027344 13.261719 12.027344 13.261719 C 12.027344 13.261719 13.429688 13.386719 13.429688 13.386719 C 13.429688 13.386719 14.601562 13.5625 14.601562 13.5625 C 14.601562 13.5625 14.417969 12.578125 14.417969 12.578125 C 14.417969 12.578125 15.121094 12.640625 15.121094 12.640625 C 15.121094 12.640625 15.371094 13.671875 15.371094 13.671875 C 15.371094 13.671875 16.351562 13.890625 16.351562 13.890625 C 16.351562 13.890625 14.84375 9.042969 14.84375 9.042969 C 14.84375 9.042969 13.183594 8.570312 13.183594 8.570312 C 13.183594 8.570312 12.636719 9.035156 12.636719 9.035156 C 12.636719 9.035156 13.382812 13.230469 13.382812 13.230469 C 13.382812 13.230469 11.691406 10.433594 11.691406 10.433594 C 11.691406 10.433594 12.390625 8.386719 12.390625 8.386719 C 12.390625 8.386719 11.324219 8.191406 11.324219 8.191406 C 11.324219 8.191406 10.523438 10.253906 10.523438 10.253906 C 10.523438 10.253906 10.371094 8.121094 10.371094 8.121094 C 10.371094 8.121094 9.214844 8.074219 9.214844 8.074219 Z M 13.625 9.355469 C 13.625 9.355469 14.152344 11.578125 14.152344 11.578125 C 14.152344 11.578125 14.921875 11.6875 14.921875 11.6875 C 14.921875 11.6875 14.289062 9.546875 14.289062 9.546875 C 14.289062 9.546875 13.625 9.355469 13.625 9.355469 Z M 13.625 9.355469 "/>
<path style=" stroke:none;fill-rule:evenodd;fill:rgb(100%,100%,100%);fill-opacity:1;" d="M 8.957031 14.722656 C 10.5 14.722656 11.75 15.996094 11.75 17.5625 C 11.75 19.132812 10.5 20.40625 8.957031 20.40625 C 7.414062 20.40625 6.160156 19.132812 6.160156 17.5625 C 6.160156 15.996094 7.414062 14.722656 8.957031 14.722656 Z M 8.957031 14.722656 "/>
<path style=" stroke:none;fill-rule:evenodd;fill:rgb(8.627451%,7.843137%,7.45098%);fill-opacity:1;" d="M 8.957031 14.679688 C 10.519531 14.679688 11.789062 15.972656 11.789062 17.5625 C 11.789062 19.15625 10.519531 20.449219 8.957031 20.449219 C 7.390625 20.449219 6.121094 19.15625 6.121094 17.5625 C 6.121094 15.972656 7.390625 14.679688 8.957031 14.679688 Z M 10.921875 16.949219 C 10.921875 16.949219 9.902344 17.3125 9.902344 17.3125 C 9.863281 17.679688 9.753906 18.03125 9.5625 18.371094 C 9.5625 18.371094 10.191406 19.246094 10.191406 19.246094 C 10.453125 19.238281 10.730469 19.144531 10.992188 18.949219 C 11.238281 18.578125 11.386719 18.136719 11.40625 17.660156 C 11.304688 17.355469 11.136719 17.113281 10.921875 16.949219 Z M 9.882812 17.25 C 9.882812 17.25 10.894531 16.882812 10.894531 16.882812 C 10.972656 16.625 10.980469 16.339844 10.878906 16.019531 C 10.601562 15.664062 10.230469 15.382812 9.804688 15.222656 C 9.488281 15.226562 9.210938 15.3125 8.988281 15.46875 C 8.988281 15.46875 8.988281 16.59375 8.988281 16.59375 C 9.320312 16.742188 9.621094 16.957031 9.882812 17.25 Z M 10.128906 19.277344 C 10.128906 19.277344 9.503906 18.402344 9.503906 18.402344 C 9.160156 18.472656 8.808594 18.476562 8.441406 18.402344 C 8.441406 18.402344 7.808594 19.308594 7.808594 19.308594 C 7.902344 19.558594 8.0625 19.785156 8.324219 19.976562 C 8.527344 20.027344 8.738281 20.058594 8.957031 20.058594 C 9.1875 20.058594 9.410156 20.027344 9.621094 19.964844 C 9.878906 19.773438 10.042969 19.542969 10.128906 19.277344 Z M 7.765625 19.253906 C 7.765625 19.253906 8.382812 18.363281 8.382812 18.363281 C 8.203125 18.042969 8.085938 17.691406 8.046875 17.300781 C 8.046875 17.300781 6.996094 16.953125 6.996094 16.953125 C 6.78125 17.117188 6.609375 17.34375 6.507812 17.660156 C 6.523438 18.152344 6.683594 18.601562 6.9375 18.980469 C 7.203125 19.167969 7.488281 19.261719 7.765625 19.253906 Z M 7.007812 16.882812 C 7.007812 16.882812 8.078125 17.238281 8.078125 17.238281 C 8.3125 16.980469 8.589844 16.769531 8.921875 16.613281 C 8.921875 16.613281 8.921875 15.476562 8.921875 15.476562 C 8.703125 15.320312 8.4375 15.226562 8.105469 15.222656 C 7.679688 15.386719 7.308594 15.664062 7.03125 16.019531 C 6.933594 16.324219 6.929688 16.621094 7.007812 16.882812 Z M 10.917969 15.957031 C 11.066406 15.996094 11.203125 16.054688 11.328125 16.140625 C 10.949219 15.488281 10.316406 15.007812 9.570312 14.832031 C 9.683594 14.9375 9.789062 15.050781 9.859375 15.171875 C 10.277344 15.335938 10.640625 15.609375 10.917969 15.957031 Z M 11.699219 17.316406 C 11.636719 17.457031 11.558594 17.59375 11.472656 17.703125 C 11.445312 18.167969 11.300781 18.601562 11.0625 18.96875 C 11.074219 19.121094 11.058594 19.273438 11.019531 19.417969 C 11.449219 18.921875 11.707031 18.273438 11.707031 17.5625 C 11.707031 17.480469 11.703125 17.398438 11.699219 17.316406 Z M 10.035156 20.140625 C 9.882812 20.125 9.730469 20.09375 9.605469 20.039062 C 9.398438 20.097656 9.179688 20.128906 8.957031 20.128906 C 8.738281 20.128906 8.53125 20.097656 8.332031 20.046875 C 8.1875 20.105469 8.042969 20.140625 7.894531 20.148438 C 8.222656 20.289062 8.582031 20.367188 8.957031 20.367188 C 9.339844 20.367188 9.703125 20.285156 10.035156 20.140625 Z M 6.90625 19.433594 C 6.871094 19.285156 6.851562 19.128906 6.859375 18.988281 C 6.613281 18.613281 6.460938 18.167969 6.441406 17.691406 C 6.34375 17.570312 6.265625 17.441406 6.214844 17.296875 C 6.207031 17.386719 6.203125 17.476562 6.203125 17.5625 C 6.203125 18.28125 6.46875 18.9375 6.90625 19.433594 Z M 6.59375 16.125 C 6.726562 16.046875 6.867188 15.980469 7 15.949219 C 7.277344 15.601562 7.644531 15.328125 8.0625 15.167969 C 8.144531 15.035156 8.242188 14.921875 8.359375 14.828125 C 7.609375 15 6.976562 15.476562 6.59375 16.125 Z M 6.59375 16.125 "/>
<path style=" stroke:none;fill-rule:nonzero;fill:rgb(96.470588%,79.215686%,0%);fill-opacity:1;" d="M 9.035156 23.296875 C 9.035156 23.296875 9.035156 23.128906 9.035156 23.128906 C 9.035156 23.128906 9.160156 23.128906 9.160156 23.128906 C 9.238281 23.128906 9.304688 23.09375 9.304688 22.984375 C 9.304688 22.984375 9.304688 22.613281 9.304688 22.613281 C 9.304688 22.519531 9.21875 22.472656 9.140625 22.472656 C 9.140625 22.472656 9.035156 22.472656 9.035156 22.472656 C 9.035156 22.472656 9.035156 22.308594 9.035156 22.308594 C 9.035156 22.308594 8.882812 22.308594 8.882812 22.308594 C 8.882812 22.308594 8.882812 22.472656 8.882812 22.472656 C 8.882812 22.472656 8.773438 22.472656 8.773438 22.472656 C 8.699219 22.472656 8.609375 22.519531 8.609375 22.613281 C 8.609375 22.746094 8.609375 22.855469 8.609375 22.988281 C 8.609375 23.097656 8.683594 23.128906 8.761719 23.128906 C 8.761719 23.128906 8.882812 23.128906 8.882812 23.128906 C 8.882812 23.128906 8.882812 23.296875 8.882812 23.296875 C 8.882812 23.296875 9.035156 23.296875 9.035156 23.296875 Z M 9.035156 23.042969 C 9.035156 23.042969 9.035156 22.5625 9.035156 22.5625 C 9.035156 22.5625 9.089844 22.5625 9.089844 22.5625 C 9.128906 22.5625 9.15625 22.566406 9.15625 22.632812 C 9.15625 22.632812 9.15625 22.988281 9.15625 22.988281 C 9.15625 23.03125 9.128906 23.039062 9.101562 23.042969 C 9.101562 23.042969 9.035156 23.042969 9.035156 23.042969 Z M 8.882812 22.5625 C 8.882812 22.5625 8.882812 23.042969 8.882812 23.042969 C 8.882812 23.042969 8.820312 23.042969 8.820312 23.042969 C 8.785156 23.042969 8.761719 23.023438 8.761719 22.988281 C 8.761719 22.988281 8.761719 22.625 8.761719 22.625 C 8.761719 22.578125 8.785156 22.5625 8.820312 22.5625 C 8.820312 22.5625 8.882812 22.5625 8.882812 22.5625 Z M 8.882812 22.5625 "/>
<path style=" stroke:none;fill-rule:evenodd;fill:rgb(96.470588%,79.215686%,0%);fill-opacity:1;" d="M 2.027344 16.5 C 2.078125 16.488281 2.136719 16.472656 2.167969 16.386719 C 2.167969 16.386719 2.265625 16.402344 2.265625 16.402344 C 2.265625 16.402344 2.511719 17.390625 2.511719 17.390625 C 2.511719 17.390625 2.355469 17.371094 2.355469 17.371094 C 2.355469 17.371094 2.167969 16.589844 2.167969 16.589844 C 2.167969 16.589844 2.050781 16.589844 2.050781 16.589844 C 2.050781 16.589844 2.027344 16.5 2.027344 16.5 Z M 2.027344 16.5 "/>
<path style=" stroke:none;fill-rule:evenodd;fill:rgb(96.470588%,79.215686%,0%);fill-opacity:1;" d="M 15.527344 16.554688 C 15.589844 16.53125 15.660156 16.5 15.738281 16.386719 C 15.738281 16.386719 15.835938 16.367188 15.835938 16.367188 C 15.835938 16.367188 15.546875 17.347656 15.546875 17.347656 C 15.546875 17.347656 15.398438 17.378906 15.398438 17.378906 C 15.398438 17.378906 15.613281 16.625 15.613281 16.625 C 15.613281 16.625 15.496094 16.652344 15.496094 16.652344 C 15.496094 16.652344 15.527344 16.554688 15.527344 16.554688 Z M 15.527344 16.554688 "/>
<path style=" stroke:none;fill-rule:evenodd;fill:rgb(96.470588%,79.215686%,0%);fill-opacity:1;" d="M 14.867188 16.804688 C 14.929688 16.785156 15.003906 16.753906 15.078125 16.636719 C 15.078125 16.636719 15.175781 16.621094 15.175781 16.621094 C 15.175781 16.621094 14.882812 17.601562 14.882812 17.601562 C 14.882812 17.601562 14.738281 17.628906 14.738281 17.628906 C 14.738281 17.628906 14.953125 16.875 14.953125 16.875 C 14.953125 16.875 14.835938 16.902344 14.835938 16.902344 C 14.835938 16.902344 14.867188 16.804688 14.867188 16.804688 Z M 14.867188 16.804688 "/>
<path style=" stroke:none;fill-rule:evenodd;fill:rgb(96.470588%,79.215686%,0%);fill-opacity:1;" d="M 3.144531 16.875 C 3.144531 16.875 3.300781 17.480469 3.300781 17.480469 C 3.335938 17.613281 3.265625 17.660156 3.183594 17.648438 C 3.183594 17.648438 3.121094 17.644531 3.121094 17.644531 C 3 17.628906 2.921875 17.507812 2.90625 17.449219 C 2.90625 17.449219 2.886719 17.363281 2.886719 17.363281 C 2.886719 17.363281 3.035156 17.394531 3.035156 17.394531 C 3.035156 17.394531 3.058594 17.480469 3.058594 17.480469 C 3.0625 17.503906 3.09375 17.539062 3.128906 17.546875 C 3.15625 17.550781 3.179688 17.542969 3.167969 17.492188 C 3.167969 17.492188 3.113281 17.273438 3.113281 17.273438 C 3.09375 17.28125 3.0625 17.277344 3.027344 17.273438 C 2.902344 17.257812 2.847656 17.195312 2.820312 17.070312 C 2.820312 17.070312 2.753906 16.785156 2.753906 16.785156 C 2.722656 16.65625 2.789062 16.617188 2.882812 16.628906 C 2.882812 16.628906 2.921875 16.628906 2.921875 16.628906 C 3.050781 16.640625 3.113281 16.746094 3.144531 16.875 Z M 3.078125 17.144531 C 3.078125 17.144531 2.988281 16.800781 2.988281 16.800781 C 2.980469 16.769531 2.964844 16.738281 2.921875 16.730469 C 2.871094 16.722656 2.882812 16.765625 2.890625 16.792969 C 2.890625 16.792969 2.972656 17.125 2.972656 17.125 C 2.980469 17.160156 3.007812 17.179688 3.035156 17.183594 C 3.054688 17.1875 3.09375 17.203125 3.078125 17.144531 Z M 3.078125 17.144531 "/>
<path style=" stroke:none;fill-rule:evenodd;fill:rgb(96.470588%,79.215686%,0%);fill-opacity:1;" d="M 8.148438 22.382812 C 8.148438 22.382812 8.300781 23.34375 8.300781 23.34375 C 8.300781 23.34375 8.152344 23.359375 8.152344 23.359375 C 8.152344 23.359375 8.011719 22.496094 8.011719 22.496094 C 8.011719 22.496094 7.839844 22.511719 7.839844 22.511719 C 7.839844 22.511719 7.980469 23.375 7.980469 23.375 C 7.980469 23.375 7.828125 23.386719 7.828125 23.386719 C 7.828125 23.386719 7.675781 22.425781 7.675781 22.425781 C 7.675781 22.425781 8.148438 22.382812 8.148438 22.382812 Z M 8.148438 22.382812 "/>
<path style=" stroke:none;fill-rule:evenodd;fill:rgb(96.470588%,79.215686%,0%);fill-opacity:1;" d="M 9.914062 22.371094 C 9.914062 22.371094 9.761719 22.355469 9.761719 22.355469 C 9.761719 22.355469 9.628906 23.332031 9.628906 23.332031 C 9.628906 23.332031 9.78125 23.347656 9.78125 23.347656 C 9.78125 23.347656 9.847656 22.839844 9.847656 22.839844 C 9.847656 22.839844 9.964844 23.367188 9.964844 23.367188 C 9.964844 23.367188 10.113281 23.382812 10.113281 23.382812 C 10.113281 23.382812 9.996094 22.847656 9.996094 22.847656 C 9.996094 22.847656 10.253906 22.417969 10.253906 22.417969 C 10.253906 22.417969 10.101562 22.402344 10.101562 22.402344 C 10.101562 22.402344 9.851562 22.828125 9.851562 22.828125 C 9.851562 22.828125 9.914062 22.371094 9.914062 22.371094 Z M 9.914062 22.371094 "/>
</g>
</svg>
