<?xml version="1.0" encoding="UTF-8"?>
<svg xmlns="http://www.w3.org/2000/svg" xmlns:xlink="http://www.w3.org/1999/xlink" width="28pt" height="20pt" viewBox="0 0 28 20" version="1.1">
<g id="surface1">
<path style="fill-rule:nonzero;fill:rgb(100%,100%,100%);fill-opacity:1;stroke-width:1.865;stroke-linecap:butt;stroke-linejoin:miter;stroke:rgb(100%,100%,100%);stroke-opacity:1;stroke-miterlimit:4;" d="M 366.4365 149.811867 C 380.420875 147.272804 394.600563 145.632179 408.819313 145.788429 C 433.038063 146.179054 457.452125 151.999367 478.46775 164.343117 C 485.577125 168.639992 492.452125 173.639992 497.881813 180.046242 C 500.1865 182.897804 502.569313 186.179054 502.803688 190.007179 C 502.53025 193.132179 500.499 195.710304 498.741188 198.210304 C 493.9365 204.421242 488.077125 209.733742 482.022438 214.694679 C 470.499 223.991554 457.881813 231.804054 444.756813 238.561867 C 416.827125 252.819679 386.514625 262.038429 355.538063 266.725929 C 333.350563 270.085304 310.772438 271.100929 288.350563 270.046242 C 301.983375 266.257179 315.420875 261.569679 327.999 254.968117 C 334.600563 251.452492 341.045875 247.429054 346.28025 241.999367 C 350.069313 238.014992 353.233375 232.936867 353.15525 227.272804 C 353.272438 224.069679 351.553688 221.100929 349.288063 218.952492 C 344.874 214.772804 339.014625 212.507179 333.272438 210.866554 C 339.014625 208.366554 344.600563 205.397804 349.795875 201.843117 C 354.444313 198.639992 358.897438 194.968117 362.21775 190.358742 C 364.756813 186.804054 366.553688 182.468117 366.163063 178.014992 C 365.889625 174.968117 364.170875 172.194679 361.827125 170.241554 C 358.858375 167.780617 355.225563 166.257179 351.553688 165.124367 C 345.577125 163.366554 339.366188 162.546242 333.15525 162.155617 C 328.624 161.843117 324.09275 161.686867 319.522438 161.921242 C 334.874 156.764992 350.538063 152.741554 366.4365 149.811867 M 382.413063 149.968117 C 366.553688 151.960304 350.850563 155.397804 335.459938 159.694679 C 341.045875 160.163429 346.631813 160.983742 351.983375 162.624367 C 357.100563 164.225929 362.256813 166.530617 365.772438 170.749367 C 368.3115 173.796242 369.288063 177.975929 368.584938 181.882179 C 367.569313 188.405617 363.233375 193.874367 358.506813 198.249367 C 353.038063 203.210304 346.709938 207.116554 340.1865 210.475929 C 344.522438 212.272804 348.78025 214.577492 351.983375 218.093117 C 354.366188 220.671242 355.928688 224.108742 355.772438 227.702492 C 355.65525 233.288429 352.803688 238.483742 349.131813 242.585304 C 345.108375 247.116554 340.1865 250.710304 335.069313 253.874367 C 325.420875 259.772804 314.952125 264.030617 304.366188 267.858742 C 322.21775 267.819679 340.108375 266.491554 357.725563 263.639992 C 388.46775 258.679054 418.584938 249.225929 446.202125 234.811867 C 458.350563 228.483742 470.03025 221.218117 480.733375 212.663429 C 485.850563 208.522804 490.8115 204.108742 495.069313 199.069679 C 496.983375 196.804054 498.858375 194.421242 499.913063 191.608742 C 500.772438 189.225929 499.522438 186.804054 498.3115 184.772804 C 495.381813 180.241554 491.319313 176.608742 487.100563 173.288429 C 481.397438 168.835304 475.108375 165.124367 468.624 161.999367 C 453.624 154.811867 437.334938 150.554054 420.8115 149.030617 C 408.038063 147.819679 395.147438 148.405617 382.413063 149.968117 Z M 382.413063 149.968117 " transform="matrix(0.1,0,0,0.1,-23.5499,-11.199937)"/>
<path style="fill-rule:nonzero;fill:rgb(100%,100%,100%);fill-opacity:1;stroke-width:1.865;stroke-linecap:butt;stroke-linejoin:miter;stroke:rgb(100%,100%,100%);stroke-opacity:1;stroke-miterlimit:4;" d="M 384.053688 168.210304 C 397.295875 166.061867 410.928688 166.374367 424.131813 168.679054 C 442.21775 171.843117 459.600563 179.655617 473.272438 191.999367 C 463.350563 201.100929 452.022438 208.600929 440.1865 215.007179 C 426.319313 222.389992 411.631813 228.288429 396.631813 232.936867 C 385.733375 236.296242 374.639625 239.069679 363.389625 241.061867 C 378.3115 233.679054 393.272438 226.374367 407.959938 218.522804 C 416.514625 213.874367 425.225563 209.304054 433.194313 203.718117 C 410.772438 204.343117 388.350563 205.124367 365.889625 205.866554 C 389.5615 199.655617 413.272438 193.600929 436.944313 187.429054 C 431.006813 183.522804 424.366188 180.749367 417.725563 178.210304 C 406.749 174.147804 395.420875 170.944679 384.053688 168.210304 M 399.249 169.616554 C 404.053688 170.671242 408.741188 172.350929 413.389625 173.874367 C 423.78025 177.624367 434.170875 181.921242 443.116188 188.483742 C 425.1865 193.171242 407.21775 197.780617 389.288063 202.468117 C 406.709938 201.960304 424.09275 201.335304 441.514625 200.788429 C 434.678688 206.374367 427.022438 210.749367 419.444313 215.163429 C 407.803688 221.804054 395.928688 227.858742 383.975563 233.796242 C 400.850563 229.382179 417.374 223.405617 433.038063 215.710304 C 445.96775 209.264992 458.350563 201.569679 469.249 192.038429 C 464.209938 187.897804 458.78025 184.225929 452.999 181.218117 C 438.46775 173.679054 422.139625 169.968117 405.8115 169.499367 C 403.624 169.499367 401.4365 169.264992 399.249 169.616554 Z M 399.249 169.616554 " transform="matrix(0.1,0,0,0.1,-23.5499,-11.199937)"/>
<path style=" stroke:none;fill-rule:nonzero;fill:rgb(50.980392%,52.54902%,53.72549%);fill-opacity:1;" d="M 14.675781 2.234375 C 16.671875 2.015625 18.707031 2.074219 20.675781 2.488281 C 22.128906 2.789062 23.558594 3.265625 24.855469 4.003906 C 25.785156 4.539062 26.65625 5.214844 27.265625 6.105469 C 27.683594 6.710938 27.949219 7.425781 28 8.160156 L 28 8.59375 C 27.964844 9.035156 27.832031 9.460938 27.636719 9.855469 C 27.351562 10.4375 26.949219 10.949219 26.511719 11.421875 C 25.707031 12.273438 24.765625 12.984375 23.777344 13.613281 C 22.492188 14.425781 21.121094 15.097656 19.714844 15.667969 C 16.996094 16.757812 14.128906 17.472656 11.214844 17.761719 C 8.707031 18.007812 6.160156 17.898438 3.6875 17.417969 C 2.433594 17.167969 1.191406 16.84375 0.0117188 16.339844 C 1.566406 15.914062 3.109375 15.441406 4.628906 14.902344 C 5.816406 14.472656 6.996094 14.019531 8.101562 13.410156 C 8.519531 13.175781 8.9375 12.917969 9.277344 12.574219 C 9.449219 12.390625 9.617188 12.164062 9.605469 11.898438 C 9.582031 11.648438 9.351562 11.496094 9.152344 11.386719 C 8.691406 11.160156 8.183594 11.054688 7.683594 10.960938 C 6.789062 10.804688 5.882812 10.738281 4.980469 10.695312 C 6.109375 10.265625 7.21875 9.789062 8.296875 9.242188 C 8.886719 8.941406 9.46875 8.621094 10.003906 8.230469 C 10.253906 8.046875 10.492188 7.84375 10.675781 7.59375 C 10.804688 7.421875 10.90625 7.1875 10.800781 6.980469 C 10.652344 6.710938 10.347656 6.585938 10.070312 6.492188 C 9.394531 6.277344 8.679688 6.214844 7.972656 6.167969 C 6.464844 6.085938 4.949219 6.136719 3.441406 6.242188 C 4.105469 5.796875 4.808594 5.410156 5.515625 5.046875 C 8.375 3.59375 11.480469 2.585938 14.675781 2.234375 M 9.636719 3.691406 C 7.960938 4.25 6.332031 4.960938 4.785156 5.824219 C 5.957031 5.761719 7.132812 5.746094 8.300781 5.851562 C 8.9375 5.910156 9.578125 6 10.1875 6.207031 C 10.511719 6.324219 10.847656 6.480469 11.054688 6.769531 C 11.199219 6.972656 11.214844 7.246094 11.117188 7.472656 C 10.972656 7.824219 10.6875 8.089844 10.402344 8.332031 C 9.816406 8.8125 9.152344 9.1875 8.480469 9.539062 C 7.835938 9.867188 7.175781 10.167969 6.507812 10.449219 C 7.074219 10.507812 7.636719 10.582031 8.191406 10.710938 C 8.632812 10.816406 9.074219 10.949219 9.460938 11.195312 C 9.695312 11.34375 9.910156 11.570312 9.941406 11.859375 C 9.96875 12.1875 9.78125 12.488281 9.574219 12.722656 C 9.21875 13.113281 8.769531 13.40625 8.320312 13.671875 C 7.363281 14.21875 6.34375 14.640625 5.3125 15.03125 C 3.929688 15.550781 2.519531 15.988281 1.097656 16.394531 C 2.21875 16.769531 3.375 17.035156 4.542969 17.226562 C 6.710938 17.578125 8.925781 17.644531 11.113281 17.433594 C 14.289062 17.128906 17.414062 16.320312 20.335938 15.050781 C 21.6875 14.460938 23 13.765625 24.21875 12.925781 C 25.183594 12.25 26.109375 11.484375 26.824219 10.539062 C 27.21875 10.003906 27.554688 9.398438 27.648438 8.726562 C 27.726562 8 27.554688 7.257812 27.203125 6.621094 C 26.886719 6.050781 26.449219 5.5625 25.953125 5.148438 C 25.011719 4.359375 23.894531 3.8125 22.742188 3.402344 C 21.113281 2.828125 19.390625 2.53125 17.667969 2.460938 C 14.945312 2.363281 12.21875 2.839844 9.636719 3.691406 Z M 9.636719 3.691406 "/>
<path style="fill-rule:nonzero;fill:rgb(11.764706%,11.764706%,11.764706%);fill-opacity:1;stroke-width:1.865;stroke-linecap:butt;stroke-linejoin:miter;stroke:rgb(11.764706%,11.764706%,11.764706%);stroke-opacity:1;stroke-miterlimit:4;" d="M 331.866188 148.913429 C 357.6865 140.397804 384.952125 135.632179 412.178688 136.608742 C 429.40525 137.311867 446.631813 140.280617 462.920875 146.022804 C 474.444313 150.124367 485.616188 155.593117 495.03025 163.483742 C 499.991188 167.624367 504.366188 172.507179 507.53025 178.210304 C 511.045875 184.577492 512.764625 191.999367 511.983375 199.264992 C 511.045875 205.983742 507.6865 212.038429 503.741188 217.389992 C 496.59275 226.882179 487.334938 234.499367 477.647438 241.257179 C 465.499 249.655617 452.374 256.608742 438.858375 262.507179 C 409.639625 275.202492 378.389625 283.327492 346.631813 286.335304 C 324.756813 288.444679 302.608375 287.780617 280.928688 284.264992 C 269.249 282.350929 257.6865 279.694679 246.475562 275.944679 C 260.694313 271.882179 274.795875 267.507179 288.624 262.311867 C 298.9365 258.405617 309.131813 254.186867 318.702125 248.718117 C 323.194313 246.061867 327.6865 243.132179 331.241188 239.225929 C 333.3115 236.882179 335.1865 233.874367 334.913063 230.593117 C 334.600563 227.702492 332.452125 225.436867 330.108375 223.952492 C 326.241188 221.491554 321.827125 220.202492 317.413063 219.108742 C 311.866188 217.819679 306.241188 217.077492 300.577125 216.491554 C 307.256813 213.679054 313.858375 210.710304 320.303688 207.389992 C 327.022438 203.874367 333.663063 200.124367 339.522438 195.319679 C 342.374 192.897804 345.225563 190.241554 346.670875 186.725929 C 347.647438 184.460304 347.491188 181.725929 346.045875 179.694679 C 343.975563 176.804054 340.616188 175.241554 337.374 174.069679 C 331.28025 171.999367 324.874 171.100929 318.506813 170.514992 C 306.827125 169.460304 295.069313 169.616554 283.350563 170.241554 C 298.819313 161.608742 315.108375 154.499367 331.866188 148.913429 M 366.4365 149.811867 C 350.538063 152.741554 334.874 156.764992 319.522438 161.921242 C 324.09275 161.686867 328.624 161.843117 333.15525 162.155617 C 339.366188 162.585304 345.577125 163.366554 351.553688 165.124367 C 355.225563 166.257179 358.858375 167.780617 361.827125 170.241554 C 364.170875 172.194679 365.889625 174.968117 366.163063 178.014992 C 366.553688 182.468117 364.756813 186.804054 362.21775 190.358742 C 358.897438 194.968117 354.444313 198.639992 349.795875 201.843117 C 344.600563 205.397804 339.014625 208.366554 333.272438 210.866554 C 339.014625 212.507179 344.874 214.772804 349.288063 218.952492 C 351.553688 221.100929 353.272438 224.069679 353.15525 227.272804 C 353.233375 232.936867 350.069313 238.014992 346.28025 241.999367 C 341.045875 247.429054 334.600563 251.491554 327.999 254.968117 C 315.420875 261.569679 301.983375 266.257179 288.350563 270.046242 C 310.772438 271.100929 333.350563 270.085304 355.538063 266.725929 C 386.475563 262.038429 416.827125 252.819679 444.71775 238.561867 C 457.881813 231.804054 470.499 223.991554 482.022438 214.694679 C 488.077125 209.733742 493.9365 204.421242 498.741188 198.210304 C 500.499 195.710304 502.53025 193.132179 502.803688 190.007179 C 502.569313 186.179054 500.1865 182.936867 497.881813 180.046242 C 492.452125 173.639992 485.577125 168.639992 478.428688 164.343117 C 457.452125 151.999367 433.038063 146.179054 408.819313 145.788429 C 394.600563 145.632179 380.420875 147.272804 366.4365 149.811867 M 504.678688 198.132179 C 497.452125 206.686867 489.288063 214.421242 480.499 221.374367 C 457.647438 239.421242 431.084938 252.429054 403.46775 261.374367 C 371.553688 271.569679 337.84275 276.257179 304.366188 275.241554 C 300.733375 276.139992 297.139625 277.116554 293.506813 278.132179 C 319.678688 280.358742 346.163063 279.108742 371.944313 273.952492 C 402.413063 267.897804 431.90525 256.764992 458.663063 240.944679 C 470.850563 233.679054 482.53025 225.514992 492.920875 215.905617 C 496.709938 212.350929 500.420875 208.639992 503.3115 204.304054 C 504.522438 202.507179 505.538063 200.319679 504.678688 198.132179 Z M 504.678688 198.132179 " transform="matrix(0.1,0,0,0.1,-23.5499,-11.199937)"/>
<path style="fill-rule:nonzero;fill:rgb(11.764706%,11.764706%,11.764706%);fill-opacity:1;stroke-width:1.865;stroke-linecap:butt;stroke-linejoin:miter;stroke:rgb(11.764706%,11.764706%,11.764706%);stroke-opacity:1;stroke-miterlimit:4;" d="M 399.249 169.616554 C 401.4365 169.264992 403.624 169.499367 405.8115 169.499367 C 422.139625 169.968117 438.46775 173.639992 452.999 181.218117 C 458.78025 184.225929 464.209938 187.897804 469.249 192.038429 C 458.350563 201.569679 445.96775 209.264992 433.038063 215.710304 C 417.374 223.405617 400.850563 229.382179 383.975563 233.796242 C 395.928688 227.858742 407.84275 221.804054 419.444313 215.163429 C 427.022438 210.749367 434.678688 206.374367 441.514625 200.788429 C 424.09275 201.335304 406.709938 201.960304 389.288063 202.468117 C 407.21775 197.780617 425.1865 193.171242 443.116188 188.483742 C 434.170875 181.921242 423.78025 177.624367 413.389625 173.874367 C 408.741188 172.350929 404.053688 170.671242 399.249 169.616554 Z M 399.249 169.616554 " transform="matrix(0.1,0,0,0.1,-23.5499,-11.199937)"/>
<path style="fill-rule:nonzero;fill:rgb(56.862745%,46.27451%,29.803922%);fill-opacity:1;stroke-width:1.865;stroke-linecap:butt;stroke-linejoin:miter;stroke:rgb(56.862745%,46.27451%,29.803922%);stroke-opacity:1;stroke-miterlimit:4;" d="M 382.413063 149.968117 C 395.147438 148.405617 408.038063 147.819679 420.8115 149.030617 C 437.295875 150.554054 453.624 154.811867 468.624 161.999367 C 475.108375 165.124367 481.397438 168.835304 487.100563 173.288429 C 491.319313 176.608742 495.381813 180.241554 498.3115 184.772804 C 499.522438 186.804054 500.772438 189.225929 499.913063 191.608742 C 498.858375 194.421242 496.983375 196.804054 495.108375 199.069679 C 490.8115 204.108742 485.850563 208.522804 480.733375 212.663429 C 470.03025 221.218117 458.350563 228.483742 446.202125 234.811867 C 418.584938 249.225929 388.46775 258.679054 357.725563 263.639992 C 340.108375 266.491554 322.21775 267.819679 304.366188 267.858742 C 314.952125 264.030617 325.420875 259.772804 335.069313 253.874367 C 340.1865 250.710304 345.108375 247.116554 349.131813 242.585304 C 352.803688 238.483742 355.65525 233.288429 355.772438 227.702492 C 355.928688 224.108742 354.366188 220.671242 351.983375 218.093117 C 348.78025 214.577492 344.522438 212.272804 340.1865 210.475929 C 346.709938 207.116554 353.038063 203.210304 358.506813 198.249367 C 363.272438 193.874367 367.569313 188.405617 368.584938 181.882179 C 369.288063 177.975929 368.3115 173.796242 365.772438 170.749367 C 362.256813 166.530617 357.100563 164.225929 351.983375 162.624367 C 346.631813 160.983742 341.045875 160.163429 335.459938 159.694679 C 350.850563 155.397804 366.553688 151.960304 382.413063 149.968117 M 384.053688 168.210304 C 395.420875 170.944679 406.749 174.147804 417.725563 178.210304 C 424.366188 180.749367 430.96775 183.522804 436.944313 187.429054 C 413.272438 193.600929 389.5615 199.655617 365.889625 205.866554 C 388.3115 205.124367 410.772438 204.343117 433.194313 203.718117 C 425.225563 209.304054 416.514625 213.874367 407.959938 218.522804 C 393.272438 226.374367 378.3115 233.679054 363.389625 241.061867 C 374.639625 239.069679 385.733375 236.296242 396.631813 232.936867 C 411.631813 228.288429 426.319313 222.389992 440.1865 215.007179 C 452.022438 208.600929 463.350563 201.100929 473.272438 191.999367 C 459.600563 179.655617 442.21775 171.843117 424.131813 168.679054 C 410.928688 166.374367 397.295875 166.061867 384.053688 168.210304 Z M 384.053688 168.210304 " transform="matrix(0.1,0,0,0.1,-23.5499,-11.199937)"/>
<path style="fill-rule:nonzero;fill:rgb(93.72549%,32.156863%,13.72549%);fill-opacity:1;stroke-width:1.865;stroke-linecap:butt;stroke-linejoin:miter;stroke:rgb(93.72549%,32.156863%,13.72549%);stroke-opacity:1;stroke-miterlimit:4;" d="M 504.678688 198.132179 C 505.538063 200.319679 504.522438 202.507179 503.3115 204.304054 C 500.420875 208.639992 496.709938 212.350929 492.920875 215.905617 C 482.53025 225.514992 470.850563 233.679054 458.663063 240.944679 C 431.90525 256.764992 402.452125 267.897804 371.944313 273.952492 C 346.163063 279.108742 319.678688 280.358742 293.506813 278.132179 C 297.139625 277.116554 300.733375 276.139992 304.366188 275.241554 C 337.84275 276.257179 371.553688 271.569679 403.46775 261.374367 C 431.084938 252.429054 457.647438 239.421242 480.499 221.374367 C 489.288063 214.421242 497.452125 206.686867 504.678688 198.132179 Z M 504.678688 198.132179 " transform="matrix(0.1,0,0,0.1,-23.5499,-11.199937)"/>
<path style=" stroke:none;fill-rule:nonzero;fill:rgb(100%,100%,100%);fill-opacity:1;" d="M 13.082031 3.78125 C 14.480469 3.527344 15.898438 3.363281 17.320312 3.378906 C 19.742188 3.417969 22.183594 4 24.28125 5.234375 C 24.996094 5.664062 25.683594 6.164062 26.226562 6.804688 C 26.457031 7.089844 26.695312 7.417969 26.71875 7.800781 C 26.691406 8.113281 26.488281 8.371094 26.3125 8.617188 C 25.832031 9.242188 25.246094 9.773438 24.640625 10.269531 C 23.488281 11.199219 22.226562 11.980469 20.910156 12.65625 C 18.121094 14.082031 15.085938 15.003906 11.992188 15.472656 C 9.769531 15.808594 7.515625 15.910156 5.273438 15.804688 C 6.636719 15.425781 7.980469 14.957031 9.238281 14.296875 C 9.898438 13.945312 10.542969 13.542969 11.066406 13 C 11.445312 12.601562 11.761719 12.09375 11.753906 11.527344 C 11.765625 11.207031 11.59375 10.910156 11.367188 10.695312 C 10.925781 10.277344 10.339844 10.050781 9.765625 9.886719 C 10.339844 9.636719 10.898438 9.339844 11.417969 8.984375 C 11.882812 8.664062 12.328125 8.296875 12.660156 7.835938 C 12.914062 7.480469 13.09375 7.046875 13.054688 6.601562 C 13.027344 6.296875 12.855469 6.019531 12.621094 5.824219 C 12.324219 5.578125 11.960938 5.425781 11.59375 5.3125 C 10.996094 5.136719 10.375 5.054688 9.753906 5.011719 C 9.300781 4.984375 8.847656 4.96875 8.390625 4.992188 C 9.925781 4.476562 11.492188 4.074219 13.082031 3.78125 M 14.679688 3.796875 C 13.09375 3.996094 11.523438 4.339844 9.984375 4.769531 C 10.542969 4.816406 11.101562 4.898438 11.636719 5.0625 C 12.148438 5.222656 12.664062 5.453125 13.015625 5.875 C 13.269531 6.179688 13.367188 6.597656 13.296875 6.988281 C 13.195312 7.640625 12.761719 8.1875 12.289062 8.625 C 11.742188 9.121094 11.109375 9.511719 10.457031 9.847656 C 10.890625 10.027344 11.316406 10.257812 11.636719 10.609375 C 11.875 10.867188 12.03125 11.210938 12.015625 11.570312 C 12.003906 12.128906 11.71875 12.648438 11.351562 13.058594 C 10.949219 13.511719 10.457031 13.871094 9.941406 14.1875 C 8.980469 14.777344 7.933594 15.203125 6.875 15.585938 C 8.660156 15.582031 10.449219 15.449219 12.210938 15.164062 C 15.285156 14.667969 18.296875 13.722656 21.058594 12.28125 C 22.273438 11.648438 23.4375 10.921875 24.511719 10.066406 C 25.023438 9.652344 25.519531 9.210938 25.945312 8.707031 C 26.136719 8.480469 26.324219 8.242188 26.429688 7.960938 C 26.515625 7.722656 26.390625 7.480469 26.269531 7.277344 C 25.976562 6.824219 25.570312 6.460938 25.148438 6.128906 C 24.578125 5.683594 23.949219 5.3125 23.296875 5 C 21.800781 4.28125 20.167969 3.855469 18.519531 3.703125 C 17.242188 3.582031 15.953125 3.640625 14.679688 3.796875 Z M 14.679688 3.796875 "/>
<path style=" stroke:none;fill-rule:nonzero;fill:rgb(100%,100%,100%);fill-opacity:1;" d="M 14.84375 5.621094 C 16.167969 5.40625 17.53125 5.4375 18.851562 5.667969 C 20.660156 5.984375 22.398438 6.765625 23.765625 8 C 22.773438 8.910156 21.640625 9.660156 20.457031 10.300781 C 19.070312 11.039062 17.601562 11.628906 16.101562 12.09375 C 15.011719 12.429688 13.902344 12.707031 12.777344 12.90625 C 14.269531 12.167969 15.765625 11.4375 17.234375 10.652344 C 18.089844 10.1875 18.960938 9.730469 19.757812 9.171875 C 17.515625 9.234375 15.269531 9.3125 13.027344 9.386719 C 15.394531 8.765625 17.765625 8.160156 20.132812 7.542969 C 19.535156 7.152344 18.875 6.875 18.210938 6.621094 C 17.109375 6.214844 15.980469 5.894531 14.84375 5.621094 M 16.363281 5.761719 C 16.84375 5.867188 17.3125 6.035156 17.777344 6.1875 C 18.816406 6.5625 19.855469 6.992188 20.75 7.648438 C 18.957031 8.117188 17.160156 8.578125 15.367188 9.046875 C 17.105469 8.996094 18.847656 8.933594 20.589844 8.878906 C 19.90625 9.4375 19.140625 9.875 18.378906 10.316406 C 17.21875 10.980469 16.03125 11.585938 14.835938 12.179688 C 16.523438 11.738281 18.175781 11.140625 19.742188 10.371094 C 21.035156 9.726562 22.273438 8.957031 23.363281 8.003906 C 22.859375 7.589844 22.316406 7.222656 21.738281 6.921875 C 20.285156 6.167969 18.652344 5.796875 17.019531 5.75 C 16.800781 5.75 16.582031 5.726562 16.363281 5.761719 Z M 16.363281 5.761719 "/>
<path style=" stroke:none;fill-rule:nonzero;fill:rgb(50.980392%,52.54902%,53.72549%);fill-opacity:1;" d="M 14.664062 2.234375 C 16.660156 2.015625 18.695312 2.074219 20.660156 2.488281 C 22.117188 2.789062 23.546875 3.265625 24.84375 4.003906 C 25.773438 4.535156 26.644531 5.214844 27.253906 6.105469 C 27.671875 6.710938 27.9375 7.425781 27.988281 8.160156 L 27.988281 8.59375 C 27.953125 9.035156 27.820312 9.460938 27.621094 9.855469 C 27.339844 10.4375 26.9375 10.949219 26.5 11.421875 C 25.695312 12.273438 24.753906 12.984375 23.765625 13.613281 C 22.480469 14.425781 21.109375 15.097656 19.703125 15.667969 C 16.984375 16.757812 14.113281 17.472656 11.203125 17.761719 C 8.695312 18.007812 6.148438 17.898438 3.675781 17.417969 C 2.421875 17.167969 1.179688 16.84375 0 16.339844 C 1.554688 15.914062 3.097656 15.441406 4.617188 14.902344 C 5.804688 14.472656 6.984375 14.019531 8.089844 13.410156 C 8.507812 13.175781 8.925781 12.917969 9.265625 12.574219 C 9.4375 12.390625 9.605469 12.164062 9.59375 11.898438 C 9.566406 11.648438 9.339844 11.496094 9.140625 11.386719 C 8.679688 11.160156 8.171875 11.054688 7.671875 10.960938 C 6.777344 10.804688 5.871094 10.738281 4.96875 10.695312 C 6.09375 10.265625 7.207031 9.789062 8.285156 9.242188 C 8.875 8.941406 9.457031 8.621094 9.992188 8.230469 C 10.238281 8.046875 10.480469 7.84375 10.664062 7.59375 C 10.792969 7.421875 10.894531 7.1875 10.789062 6.980469 C 10.640625 6.710938 10.335938 6.585938 10.058594 6.492188 C 9.382812 6.277344 8.667969 6.214844 7.960938 6.167969 C 6.453125 6.085938 4.9375 6.136719 3.429688 6.242188 C 4.09375 5.800781 4.796875 5.410156 5.503906 5.046875 C 8.363281 3.59375 11.46875 2.585938 14.664062 2.234375 M 9.625 3.691406 C 7.949219 4.25 6.320312 4.960938 4.773438 5.824219 C 5.945312 5.761719 7.117188 5.746094 8.289062 5.851562 C 8.925781 5.910156 9.566406 6 10.175781 6.207031 C 10.5 6.324219 10.835938 6.480469 11.042969 6.769531 C 11.1875 6.972656 11.203125 7.246094 11.105469 7.472656 C 10.960938 7.824219 10.675781 8.089844 10.390625 8.332031 C 9.804688 8.8125 9.140625 9.1875 8.46875 9.539062 C 7.824219 9.867188 7.164062 10.167969 6.496094 10.449219 C 7.0625 10.507812 7.625 10.582031 8.179688 10.710938 C 8.621094 10.816406 9.0625 10.949219 9.449219 11.195312 C 9.683594 11.34375 9.898438 11.570312 9.929688 11.859375 C 9.957031 12.1875 9.769531 12.488281 9.5625 12.722656 C 9.207031 13.113281 8.757812 13.40625 8.308594 13.671875 C 7.351562 14.21875 6.332031 14.640625 5.300781 15.03125 C 3.917969 15.550781 2.507812 15.988281 1.085938 16.394531 C 2.207031 16.769531 3.363281 17.035156 4.53125 17.226562 C 6.699219 17.578125 8.914062 17.644531 11.101562 17.433594 C 14.277344 17.128906 17.402344 16.320312 20.324219 15.050781 C 21.675781 14.460938 22.988281 13.765625 24.203125 12.925781 C 25.171875 12.25 26.097656 11.484375 26.8125 10.539062 C 27.207031 10.003906 27.542969 9.398438 27.636719 8.726562 C 27.714844 8 27.542969 7.257812 27.191406 6.621094 C 26.875 6.050781 26.4375 5.5625 25.941406 5.144531 C 25 4.359375 23.882812 3.8125 22.730469 3.402344 C 21.101562 2.828125 19.378906 2.53125 17.65625 2.460938 C 14.929688 2.363281 12.207031 2.839844 9.625 3.691406 Z M 9.625 3.691406 "/>
<path style=" stroke:none;fill-rule:nonzero;fill:rgb(11.764706%,11.764706%,11.764706%);fill-opacity:1;" d="M 9.625 3.691406 C 12.207031 2.839844 14.929688 2.363281 17.65625 2.460938 C 19.378906 2.53125 21.101562 2.828125 22.730469 3.402344 C 23.882812 3.8125 25 4.359375 25.941406 5.148438 C 26.4375 5.5625 26.875 6.050781 27.191406 6.621094 C 27.542969 7.257812 27.714844 8 27.636719 8.726562 C 27.542969 9.398438 27.207031 10.003906 26.8125 10.539062 C 26.097656 11.484375 25.171875 12.25 24.203125 12.925781 C 22.988281 13.765625 21.675781 14.460938 20.324219 15.050781 C 17.402344 16.320312 14.277344 17.132812 11.101562 17.433594 C 8.914062 17.644531 6.699219 17.578125 4.53125 17.226562 C 3.363281 17.035156 2.207031 16.769531 1.085938 16.394531 C 2.503906 15.988281 3.917969 15.550781 5.300781 15.03125 C 6.332031 14.640625 7.351562 14.21875 8.308594 13.671875 C 8.757812 13.40625 9.207031 13.113281 9.5625 12.722656 C 9.769531 12.488281 9.957031 12.1875 9.929688 11.859375 C 9.898438 11.570312 9.683594 11.34375 9.449219 11.195312 C 9.0625 10.949219 8.621094 10.816406 8.179688 10.710938 C 7.625 10.582031 7.0625 10.507812 6.496094 10.449219 C 7.164062 10.167969 7.824219 9.867188 8.46875 9.539062 C 9.140625 9.1875 9.804688 8.8125 10.390625 8.332031 C 10.675781 8.089844 10.960938 7.824219 11.105469 7.472656 C 11.203125 7.246094 11.1875 6.972656 11.042969 6.769531 C 10.835938 6.480469 10.496094 6.324219 10.175781 6.207031 C 9.566406 6 8.925781 5.910156 8.285156 5.851562 C 7.117188 5.746094 5.945312 5.761719 4.773438 5.824219 C 6.320312 4.960938 7.949219 4.25 9.625 3.691406 M 13.082031 3.78125 C 11.492188 4.074219 9.925781 4.476562 8.390625 4.992188 C 8.847656 4.96875 9.300781 4.984375 9.753906 5.011719 C 10.375 5.054688 10.996094 5.136719 11.59375 5.3125 C 11.960938 5.425781 12.324219 5.578125 12.621094 5.824219 C 12.855469 6.019531 13.027344 6.296875 13.054688 6.601562 C 13.09375 7.046875 12.914062 7.480469 12.660156 7.835938 C 12.328125 8.296875 11.882812 8.664062 11.417969 8.984375 C 10.898438 9.339844 10.339844 9.636719 9.765625 9.886719 C 10.339844 10.050781 10.925781 10.277344 11.367188 10.695312 C 11.59375 10.910156 11.765625 11.207031 11.753906 11.527344 C 11.761719 12.09375 11.445312 12.601562 11.066406 13 C 10.542969 13.542969 9.898438 13.945312 9.238281 14.296875 C 7.980469 14.957031 6.636719 15.425781 5.273438 15.804688 C 7.515625 15.910156 9.773438 15.808594 11.992188 15.472656 C 15.085938 15.003906 18.121094 14.082031 20.910156 12.65625 C 22.226562 11.980469 23.488281 11.199219 24.640625 10.269531 C 25.246094 9.773438 25.832031 9.242188 26.3125 8.617188 C 26.488281 8.371094 26.691406 8.113281 26.71875 7.800781 C 26.695312 7.417969 26.457031 7.089844 26.226562 6.804688 C 25.683594 6.164062 24.996094 5.664062 24.28125 5.234375 C 22.183594 4 19.742188 3.417969 17.320312 3.378906 C 15.898438 3.363281 14.480469 3.527344 13.082031 3.78125 M 26.90625 8.613281 C 26.183594 9.46875 25.367188 10.242188 24.488281 10.9375 C 22.203125 12.742188 19.546875 14.042969 16.785156 14.9375 C 13.59375 15.957031 10.222656 16.425781 6.875 16.324219 C 6.511719 16.414062 6.148438 16.511719 5.789062 16.613281 C 8.40625 16.835938 11.054688 16.710938 13.632812 16.195312 C 16.679688 15.589844 19.628906 14.476562 22.304688 12.894531 C 23.519531 12.167969 24.691406 11.351562 25.730469 10.390625 C 26.109375 10.035156 26.480469 9.664062 26.769531 9.230469 C 26.890625 9.050781 26.992188 8.832031 26.90625 8.613281 Z M 26.90625 8.613281 "/>
<path style=" stroke:none;fill-rule:nonzero;fill:rgb(11.764706%,11.764706%,11.764706%);fill-opacity:1;" d="M 16.363281 5.761719 C 16.582031 5.726562 16.800781 5.75 17.019531 5.75 C 18.652344 5.796875 20.285156 6.164062 21.738281 6.921875 C 22.316406 7.222656 22.859375 7.589844 23.363281 8.003906 C 22.273438 8.957031 21.035156 9.726562 19.742188 10.371094 C 18.175781 11.140625 16.523438 11.738281 14.835938 12.179688 C 16.03125 11.585938 17.21875 10.980469 18.382812 10.316406 C 19.140625 9.875 19.90625 9.4375 20.589844 8.878906 C 18.847656 8.933594 17.109375 8.996094 15.367188 9.046875 C 17.160156 8.574219 18.957031 8.117188 20.75 7.648438 C 19.855469 6.992188 18.816406 6.5625 17.777344 6.1875 C 17.3125 6.035156 16.84375 5.867188 16.363281 5.761719 Z M 16.363281 5.761719 "/>
<path style=" stroke:none;fill-rule:nonzero;fill:rgb(56.862745%,46.27451%,29.803922%);fill-opacity:1;" d="M 14.679688 3.796875 C 15.953125 3.640625 17.242188 3.582031 18.519531 3.703125 C 20.167969 3.855469 21.800781 4.28125 23.300781 5 C 23.949219 5.3125 24.578125 5.683594 25.148438 6.128906 C 25.570312 6.460938 25.976562 6.824219 26.269531 7.277344 C 26.390625 7.476562 26.515625 7.722656 26.429688 7.960938 C 26.324219 8.238281 26.136719 8.480469 25.945312 8.707031 C 25.519531 9.210938 25.023438 9.648438 24.511719 10.066406 C 23.441406 10.921875 22.273438 11.648438 21.058594 12.28125 C 18.296875 13.722656 15.285156 14.667969 12.210938 15.164062 C 10.449219 15.449219 8.660156 15.582031 6.875 15.582031 C 7.933594 15.203125 8.980469 14.777344 9.945312 14.1875 C 10.457031 13.871094 10.949219 13.511719 11.351562 13.058594 C 11.71875 12.648438 12.003906 12.128906 12.015625 11.570312 C 12.03125 11.210938 11.875 10.867188 11.636719 10.609375 C 11.316406 10.257812 10.890625 10.027344 10.457031 9.847656 C 11.109375 9.511719 11.742188 9.121094 12.289062 8.625 C 12.761719 8.1875 13.195312 7.640625 13.296875 6.988281 C 13.367188 6.597656 13.269531 6.179688 13.015625 5.875 C 12.664062 5.453125 12.148438 5.222656 11.636719 5.0625 C 11.101562 4.898438 10.542969 4.8125 9.984375 4.769531 C 11.523438 4.339844 13.09375 3.996094 14.679688 3.796875 M 14.84375 5.621094 C 15.980469 5.894531 17.109375 6.214844 18.210938 6.621094 C 18.875 6.875 19.535156 7.152344 20.132812 7.542969 C 17.765625 8.160156 15.394531 8.765625 13.027344 9.386719 C 15.269531 9.3125 17.515625 9.234375 19.757812 9.171875 C 18.960938 9.730469 18.089844 10.1875 17.234375 10.652344 C 15.765625 11.4375 14.269531 12.167969 12.777344 12.90625 C 13.902344 12.707031 15.011719 12.429688 16.101562 12.09375 C 17.601562 11.628906 19.066406 11.039062 20.457031 10.300781 C 21.640625 9.660156 22.773438 8.910156 23.765625 8 C 22.398438 6.765625 20.660156 5.984375 18.851562 5.667969 C 17.53125 5.4375 16.167969 5.40625 14.84375 5.621094 Z M 14.84375 5.621094 "/>
<path style=" stroke:none;fill-rule:nonzero;fill:rgb(93.72549%,32.156863%,13.72549%);fill-opacity:1;" d="M 26.90625 8.613281 C 26.992188 8.832031 26.890625 9.050781 26.769531 9.230469 C 26.480469 9.664062 26.109375 10.035156 25.730469 10.390625 C 24.691406 11.351562 23.519531 12.167969 22.304688 12.894531 C 19.628906 14.476562 16.679688 15.589844 13.632812 16.195312 C 11.054688 16.707031 8.40625 16.835938 5.789062 16.613281 C 6.148438 16.511719 6.511719 16.414062 6.875 16.324219 C 10.222656 16.425781 13.59375 15.957031 16.785156 14.9375 C 19.546875 14.042969 22.203125 12.742188 24.488281 10.9375 C 25.367188 10.242188 26.183594 9.46875 26.90625 8.613281 Z M 26.90625 8.613281 "/>
</g>
</svg>
