<?xml version="1.0" encoding="UTF-8"?>
<svg xmlns="http://www.w3.org/2000/svg" xmlns:xlink="http://www.w3.org/1999/xlink" width="35pt" height="25pt" viewBox="0 0 35 25" version="1.1">
<g id="surface1">
<path style=" stroke:none;fill-rule:nonzero;fill:rgb(100%,100%,100%);fill-opacity:1;" d="M 29.25 11.878906 L 28.632812 11.605469 C 28.648438 11.484375 28.65625 11.335938 28.648438 11.167969 C 28.621094 10.605469 28.398438 10.074219 28.007812 9.636719 L 27.371094 8.921875 L 27.398438 9.863281 C 27.398438 9.882812 27.386719 10 27.316406 10.183594 C 27.257812 10.332031 27.148438 10.546875 26.949219 10.796875 L 26.8125 10.726562 L 26.464844 9.828125 L 27.898438 6.828125 L 28.007812 7.347656 L 28.464844 6.605469 C 28.476562 6.585938 28.582031 6.410156 28.671875 6.109375 C 28.78125 5.75 28.820312 5.359375 28.789062 4.96875 L 29.101562 4.332031 L 29.144531 4.246094 L 29.136719 4.152344 C 29.136719 4.128906 28.960938 1.691406 28.941406 1.28125 C 28.933594 1.082031 28.75 0.769531 28.5 0.519531 C 28.261719 0.285156 27.851562 0 27.261719 0 C 27.046875 0 26.835938 0.0351562 26.644531 0.105469 C 26.5 0.160156 26.390625 0.21875 26.34375 0.257812 C 26.296875 0.292969 25.738281 0.726562 24.964844 1.328125 C 22.699219 3.078125 20.476562 4.800781 19.964844 5.199219 C 19.953125 5.199219 19.941406 5.199219 19.925781 5.199219 C 19.714844 5.199219 19.273438 5.214844 18.703125 5.300781 C 18.035156 5.40625 17.386719 5.578125 16.773438 5.820312 C 15.972656 6.132812 15.242188 6.554688 14.597656 7.074219 C 13.839844 7.6875 13.199219 8.445312 12.691406 9.324219 L 5.671875 14.964844 L 5.402344 15.179688 L 5.617188 15.453125 C 5.644531 15.484375 5.675781 15.53125 5.714844 15.585938 C 5.933594 15.878906 6.335938 16.433594 6.972656 16.910156 C 7.757812 17.496094 8.667969 17.796875 9.671875 17.796875 C 9.945312 17.796875 10.230469 17.773438 10.519531 17.726562 L 10.53125 17.726562 L 11.886719 17.472656 C 11.9375 17.660156 12.007812 17.917969 12.101562 18.230469 C 12.386719 19.164062 12.917969 20.539062 13.828125 21.804688 C 14.332031 22.503906 14.902344 23.101562 15.53125 23.578125 C 16.261719 24.136719 17.074219 24.542969 17.953125 24.78125 L 18.761719 25 L 18.34375 24.269531 C 18.339844 24.261719 17.851562 23.394531 17.515625 22.222656 C 17.285156 21.421875 17.09375 20.351562 17.273438 19.324219 C 17.398438 19.632812 17.558594 19.980469 17.75 20.335938 C 18.078125 20.941406 18.433594 21.433594 18.8125 21.800781 C 19.316406 22.285156 19.855469 22.550781 20.421875 22.597656 L 21.285156 22.664062 L 20.714844 22.019531 C 20.699219 22.003906 20.289062 21.511719 20.050781 20.667969 C 19.777344 19.707031 19.820312 18.691406 20.175781 17.632812 C 20.28125 17.765625 20.402344 17.910156 20.546875 18.050781 C 20.839844 18.34375 21.152344 18.578125 21.480469 18.746094 C 21.902344 18.960938 22.34375 19.074219 22.796875 19.074219 L 23.519531 19.074219 L 23.070312 18.507812 C 22.953125 18.359375 22.851562 18.160156 22.738281 17.910156 C 22.347656 17.046875 22.246094 16.042969 22.453125 15.167969 L 26.1875 15.3125 L 26.261719 15.316406 L 26.335938 15.285156 L 28.132812 14.527344 L 28.246094 14.480469 L 28.304688 14.375 L 29.414062 12.367188 L 29.597656 12.035156 Z M 29.25 11.878906 "/>
<path style=" stroke:none;fill-rule:nonzero;fill:rgb(0%,0%,0%);fill-opacity:1;" d="M 5.890625 15.234375 C 6.246094 15.6875 7.53125 17.84375 10.46875 17.382812 C 12.148438 17.066406 12.148438 17.066406 12.148438 17.066406 C 12.148438 17.066406 12.238281 17.480469 12.433594 18.128906 C 12.984375 19.929688 14.480469 23.476562 18.042969 24.445312 C 18.042969 24.445312 16.015625 20.890625 17.253906 18.21875 C 17.253906 18.21875 18.332031 22.082031 20.449219 22.25 C 20.449219 22.25 18.636719 20.171875 20.09375 16.886719 C 20.09375 16.886719 21.058594 18.722656 22.796875 18.726562 C 22.652344 18.542969 22.539062 18.3125 22.421875 18.050781 C 22.03125 17.191406 21.824219 15.972656 22.191406 14.808594 L 26.199219 14.964844 L 27.996094 14.207031 L 29.109375 12.199219 L 28.234375 11.808594 C 28.234375 11.808594 28.574219 10.792969 27.746094 9.867188 C 27.746094 9.867188 27.742188 10.46875 27.035156 11.230469 L 26.535156 10.976562 L 26.085938 9.8125 L 27.960938 5.886719 C 27.960938 5.886719 28.125 6.214844 28.167969 6.421875 C 28.167969 6.421875 28.535156 5.828125 28.433594 4.902344 L 28.789062 4.179688 C 28.789062 4.179688 28.613281 1.71875 28.59375 1.300781 C 28.585938 1.152344 28.140625 0.347656 27.261719 0.347656 C 26.84375 0.347656 26.582031 0.515625 26.558594 0.53125 C 26.398438 0.65625 20.273438 5.394531 20.082031 5.550781 C 19.65625 5.53125 15.25 5.503906 12.960938 9.554688 Z M 5.890625 15.234375 "/>
<path style=" stroke:none;fill-rule:nonzero;fill:rgb(93.72549%,88.235294%,77.647059%);fill-opacity:1;" d="M 9.636719 16.445312 C 10.011719 16.359375 9.246094 16.097656 9.105469 15.378906 C 9.3125 15.542969 10.117188 15.84375 10.300781 15.695312 C 10.433594 15.558594 10.007812 15.101562 10.175781 14.078125 C 10.347656 13.015625 10.949219 12.84375 10.648438 12.671875 C 10.3125 12.613281 7.203125 15.179688 7.203125 15.179688 L 7.691406 15.988281 C 7.691406 15.988281 9.328125 16.597656 9.636719 16.445312 Z M 9.636719 16.445312 "/>
<path style=" stroke:none;fill-rule:nonzero;fill:rgb(55.686275%,0%,15.686275%);fill-opacity:1;" d="M 26.777344 14.128906 L 27.769531 13.714844 L 27.480469 13.039062 Z M 26.777344 14.128906 "/>
<path style=" stroke:none;fill-rule:nonzero;fill:rgb(55.686275%,0%,15.686275%);fill-opacity:1;" d="M 19.335938 17.414062 C 19.3125 17.570312 19.515625 17.652344 19.589844 17.476562 C 19.664062 17.300781 20.074219 16.128906 20.234375 16.113281 C 20.292969 16.109375 20.367188 16.449219 20.578125 16.792969 C 20.914062 17.351562 21.558594 18.019531 21.914062 18.019531 C 22.074219 18.019531 22.101562 18 22.101562 18 L 21.710938 17.421875 L 20.578125 14.273438 L 19.878906 15.320312 Z M 19.335938 17.414062 "/>
<path style=" stroke:none;fill-rule:nonzero;fill:rgb(55.686275%,0%,15.686275%);fill-opacity:1;" d="M 17.820312 15.234375 C 17.820312 15.234375 19.363281 20.992188 19.261719 20.875 C 17.632812 18.957031 17.558594 16.828125 17.558594 16.828125 C 17.558594 16.828125 16.507812 18.078125 16.476562 20.15625 L 16.101562 20.128906 L 16.882812 16.980469 Z M 17.820312 15.234375 "/>
<path style=" stroke:none;fill-rule:nonzero;fill:rgb(93.72549%,88.235294%,77.647059%);fill-opacity:1;" d="M 27.878906 11.90625 C 27.878906 11.90625 28.117188 11.085938 27.851562 10.496094 C 27.707031 11.003906 27.40625 11.332031 27.152344 11.558594 L 26.25 11.121094 L 28.078125 12.304688 L 26.976562 12.5625 L 25.96875 12.199219 C 25.96875 12.199219 26.164062 11.132812 25.90625 10.761719 C 25.890625 10.84375 25.828125 10.964844 25.796875 11.046875 C 25.601562 11.515625 25.179688 11.902344 25.179688 11.902344 L 24.207031 11.550781 L 23.40625 9.453125 L 26.332031 4.730469 C 26.332031 4.730469 26.652344 5.054688 26.8125 5.453125 C 27.007812 4.84375 26.726562 4.082031 26.726562 4.082031 L 27.074219 3.519531 L 27.921875 2.902344 L 28.078125 3.675781 L 26.683594 7.542969 L 27.789062 5.160156 C 27.789062 5.160156 27.84375 5.207031 27.917969 5.316406 C 28 5.429688 28.101562 5.609375 28.15625 5.753906 C 28.285156 5.421875 28.105469 4.535156 28.105469 4.535156 L 28.425781 3.945312 L 28.035156 2.503906 L 26.554688 3.527344 L 22.1875 8.511719 C 22.1875 8.511719 21.195312 8.894531 20.507812 9.414062 C 20.363281 9.523438 20.238281 9.648438 20.128906 9.769531 C 20.128906 9.769531 21.28125 9.988281 21.382812 10.757812 C 21.382812 10.757812 21.011719 10.976562 20.460938 11.394531 C 18.449219 12.910156 13.980469 16.90625 15.742188 21.292969 C 16.0625 22.089844 16.59375 22.890625 17.378906 23.703125 C 17.378906 23.703125 15.160156 19.945312 17.828125 15.679688 C 17.832031 15.777344 17.820312 19.695312 19.578125 21.222656 C 18.320312 18.253906 20.507812 14.714844 20.507812 14.714844 C 20.109375 16.539062 22.097656 18 22.097656 18 C 21.167969 16.03125 21.964844 14.210938 21.964844 14.210938 L 26.195312 14.378906 L 26.777344 14.128906 L 27.503906 13.414062 L 27.769531 13.714844 L 28.589844 12.234375 Z M 22.785156 9.402344 L 24.113281 7.765625 L 23.160156 9.394531 L 23.945312 11.539062 Z M 22.785156 9.402344 "/>
<path style=" stroke:none;fill-rule:nonzero;fill:rgb(55.686275%,0%,15.686275%);fill-opacity:1;" d="M 28.269531 1.558594 C 28.140625 1.71875 27.949219 2.386719 27.949219 2.386719 C 27.949219 2.386719 27.929688 1.832031 27.667969 1.484375 C 27.421875 1.15625 27.117188 1.441406 26.902344 1.136719 C 26.804688 1 26.808594 0.796875 26.808594 0.796875 L 26.214844 1.242188 C 26.214844 1.242188 26.054688 1.882812 26.089844 2.671875 C 26.089844 2.671875 25.734375 2.394531 25.535156 1.84375 C 25.535156 1.84375 25.394531 2.164062 25.386719 3.347656 C 25.386719 3.347656 25.003906 3 24.78125 2.433594 C 24.78125 2.433594 24.605469 3.175781 24.628906 4.074219 C 24.628906 4.074219 24.292969 3.824219 23.949219 3.070312 C 23.949219 3.070312 23.785156 3.949219 23.796875 4.875 C 23.796875 4.875 23.253906 4.378906 23.042969 3.710938 C 23.042969 3.710938 20.441406 5.707031 20.257812 5.84375 C 20.078125 5.984375 18.953125 7.210938 18.664062 8.53125 C 18.664062 8.53125 18.632812 7.878906 18.726562 7.261719 C 18.726562 7.261719 17.617188 8.050781 16.996094 8.726562 C 16.996094 8.726562 16.980469 7.890625 17.441406 7.195312 C 17.441406 7.195312 17.277344 7.300781 17.070312 7.460938 C 16.941406 7.566406 16.816406 7.679688 16.636719 7.835938 C 16.191406 8.234375 15.640625 8.75 15.300781 9.101562 C 15.300781 9.101562 16.230469 7.34375 17.648438 6.34375 C 17.648438 6.34375 14.007812 7.152344 12.730469 11.160156 C 12.699219 11.121094 12.796875 10.238281 12.796875 10.238281 L 6.5625 15.183594 C 7.984375 17.144531 10.328125 16.875 10.585938 16.828125 C 11.363281 16.691406 13.773438 16.3125 13.773438 16.3125 C 13.773438 16.3125 13.378906 15.316406 13.464844 14.65625 C 13.464844 14.65625 13.730469 15.941406 14.640625 16.742188 L 12.652344 17.015625 C 12.652344 17.015625 12.757812 17.421875 12.933594 18.019531 C 13.382812 19.535156 14.53125 22.382812 17.378906 23.703125 C 17.378906 23.703125 17.140625 23.453125 16.792969 23.039062 C 15.8125 21.871094 14.136719 19.199219 15.847656 15.695312 C 14.480469 16.019531 14.277344 15.089844 14.277344 15.089844 C 16.101562 16.363281 20.082031 11.046875 19.109375 9.785156 C 19.109375 9.785156 20.769531 8.433594 21.949219 8.265625 L 26.554688 3.527344 L 27.949219 2.75 L 28.425781 3.945312 Z M 10.398438 16.351562 C 10.230469 16.382812 9.980469 16.398438 9.886719 16.398438 C 9.296875 16.394531 7.9375 16.195312 7.425781 15.300781 L 12.289062 11.402344 C 8.96875 14.671875 12.589844 15.738281 13.050781 15.890625 C 13.050781 15.890625 10.933594 16.246094 10.398438 16.351562 Z M 10.398438 16.351562 "/>
<path style=" stroke:none;fill-rule:nonzero;fill:rgb(55.686275%,0%,15.686275%);fill-opacity:1;" d="M 25.261719 9.601562 L 25.875 8.703125 L 25.539062 9.609375 L 25.867188 10.453125 Z M 25.261719 9.601562 "/>
<path style=" stroke:none;fill-rule:nonzero;fill:rgb(93.72549%,88.235294%,77.647059%);fill-opacity:1;" d="M 17.886719 6.839844 C 17.886719 6.839844 18.355469 6.722656 19.015625 6.753906 C 19.0625 6.621094 18.847656 6.59375 18.679688 6.59375 C 18.949219 6.402344 19.371094 6.269531 19.371094 6.269531 L 19.601562 5.996094 C 18.910156 6.054688 17.886719 6.839844 17.886719 6.839844 Z M 17.886719 6.839844 "/>
</g>
</svg>
