<?xml version="1.0" encoding="UTF-8"?>
<svg xmlns="http://www.w3.org/2000/svg" xmlns:xlink="http://www.w3.org/1999/xlink" width="28pt" height="20pt" viewBox="0 0 28 20" version="1.1">
<g id="surface1">
<path style=" stroke:none;fill-rule:nonzero;fill:rgb(100%,100%,100%);fill-opacity:1;" d="M 24.847656 3.117188 L 24.835938 3.269531 C 24.796875 3.84375 24.597656 4.074219 24.269531 4.464844 L 24.253906 4.480469 C 24.011719 4.765625 23.171875 5.316406 20.308594 5.777344 C 19.25 5.949219 17.046875 6.101562 16.464844 6.085938 C 16.164062 6.082031 15.957031 5.980469 15.824219 5.792969 C 15.867188 5.75 15.921875 5.691406 15.921875 5.691406 L 15.992188 5.625 C 15.992188 5.625 15.648438 5.414062 15.566406 5.363281 C 15.597656 5.332031 15.691406 5.238281 15.691406 5.238281 L 15.617188 5.183594 C 15.179688 4.875 14.589844 4.699219 14 4.699219 C 13.410156 4.699219 12.820312 4.875 12.382812 5.183594 L 12.308594 5.238281 C 12.308594 5.238281 12.402344 5.332031 12.433594 5.363281 C 12.351562 5.414062 12.011719 5.625 12.011719 5.625 C 12.011719 5.625 12.132812 5.75 12.179688 5.792969 C 12.046875 5.980469 11.835938 6.082031 11.53125 6.085938 C 10.953125 6.101562 8.753906 5.949219 7.691406 5.777344 C 4.828125 5.316406 3.988281 4.765625 3.746094 4.480469 L 3.730469 4.464844 C 3.402344 4.074219 3.203125 3.839844 3.164062 3.269531 L 3.152344 3.117188 L 3.039062 3.214844 C 2.582031 3.585938 2.457031 4.035156 2.457031 4.371094 C 2.457031 4.441406 2.464844 4.507812 2.472656 4.566406 C 2.074219 4.402344 1.707031 4.09375 1.480469 3.703125 L 1.410156 3.578125 L 1.34375 3.710938 C 1.277344 3.847656 1.242188 3.992188 1.242188 4.140625 C 1.242188 4.367188 1.328125 4.605469 1.492188 4.855469 C 1.15625 4.808594 0.859375 4.675781 0.554688 4.4375 L 0.410156 4.320312 L 0.429688 4.503906 C 0.480469 4.957031 0.574219 5.25 0.910156 5.542969 C 0.613281 5.507812 0.335938 5.425781 0.1875 5.320312 L 0.0703125 5.230469 L 0.0664062 5.378906 C 0.0664062 5.386719 0.0664062 5.394531 0.0664062 5.402344 C 0.0664062 5.78125 0.363281 6.136719 0.695312 6.367188 C 0.480469 6.367188 0.308594 6.324219 0.152344 6.277344 L 0 6.230469 L 0.0585938 6.378906 C 0.25 6.871094 0.617188 7.125 1.113281 7.316406 C 0.984375 7.328125 0.839844 7.316406 0.722656 7.261719 L 0.527344 7.167969 L 0.617188 7.363281 C 0.816406 7.789062 1.171875 8.050781 1.769531 8.214844 C 1.65625 8.226562 1.542969 8.226562 1.4375 8.207031 L 1.300781 8.183594 L 1.351562 8.3125 C 1.519531 8.714844 2.039062 9.128906 3.007812 9.109375 C 3.027344 9.207031 3.105469 9.628906 3.105469 9.628906 C 3.105469 9.628906 3.523438 9.644531 3.609375 9.648438 C 3.636719 9.730469 3.769531 10.167969 3.769531 10.167969 C 3.769531 10.167969 4.210938 10.136719 4.296875 10.132812 C 4.332031 10.214844 4.515625 10.640625 4.515625 10.640625 C 4.515625 10.640625 4.957031 10.566406 5.042969 10.550781 C 5.085938 10.628906 5.3125 11.039062 5.3125 11.039062 C 5.3125 11.039062 5.746094 10.917969 5.832031 10.898438 C 5.882812 10.96875 6.144531 11.339844 6.144531 11.339844 C 6.144531 11.339844 6.570312 11.164062 6.648438 11.132812 C 6.707031 11.191406 7 11.496094 7 11.496094 C 7 11.496094 7.386719 11.25 7.46875 11.199219 C 7.535156 11.261719 7.777344 11.492188 7.777344 11.492188 L 7.808594 11.492188 C 8.917969 11.507812 9.726562 11.402344 10.597656 11.121094 L 10.632812 11.109375 L 10.644531 11.070312 C 10.75 10.722656 11.140625 10.355469 11.492188 10.152344 C 11.621094 10.292969 11.652344 10.429688 11.652344 10.523438 C 11.652344 10.539062 11.652344 10.542969 11.648438 10.558594 C 11.421875 10.527344 11.214844 10.59375 11.023438 10.773438 C 10.847656 10.933594 10.753906 11.164062 10.753906 11.417969 C 10.753906 11.507812 10.769531 11.601562 10.796875 11.699219 C 10.472656 11.722656 10.09375 11.9375 9.953125 12.195312 C 9.871094 12.34375 9.832031 12.503906 9.832031 12.65625 C 9.832031 12.886719 9.925781 13.105469 10.09375 13.261719 C 10.003906 13.363281 8.71875 14.792969 8.71875 14.792969 C 8.71875 14.792969 9.894531 14.636719 9.972656 14.628906 C 10.019531 14.683594 10.484375 15.230469 10.484375 15.230469 C 10.484375 15.230469 10.664062 15.117188 10.746094 15.066406 C 11.175781 16.527344 12.5 17.539062 14.011719 17.539062 C 15.523438 17.539062 16.84375 16.527344 17.273438 15.070312 C 17.355469 15.121094 17.53125 15.230469 17.53125 15.230469 C 17.53125 15.230469 17.992188 14.683594 18.039062 14.628906 C 18.117188 14.636719 19.292969 14.792969 19.292969 14.792969 C 19.292969 14.792969 18.007812 13.363281 17.917969 13.261719 C 18.085938 13.105469 18.179688 12.886719 18.179688 12.65625 C 18.179688 12.503906 18.140625 12.34375 18.058594 12.195312 C 17.917969 11.9375 17.539062 11.722656 17.214844 11.699219 C 17.242188 11.601562 17.257812 11.507812 17.257812 11.417969 C 17.257812 11.164062 17.164062 10.933594 16.988281 10.773438 C 16.792969 10.589844 16.582031 10.523438 16.351562 10.558594 C 16.347656 10.542969 16.34375 10.539062 16.34375 10.523438 C 16.34375 10.429688 16.378906 10.292969 16.507812 10.152344 C 16.859375 10.355469 17.25 10.722656 17.355469 11.070312 L 17.367188 11.109375 L 17.402344 11.121094 C 18.273438 11.402344 19.082031 11.507812 20.191406 11.492188 L 20.21875 11.492188 C 20.21875 11.492188 20.464844 11.261719 20.53125 11.199219 C 20.613281 11.25 21 11.496094 21 11.496094 C 21 11.496094 21.292969 11.191406 21.351562 11.132812 C 21.429688 11.164062 21.855469 11.339844 21.855469 11.339844 C 21.855469 11.339844 22.117188 10.96875 22.167969 10.898438 C 22.253906 10.917969 22.6875 11.039062 22.6875 11.039062 C 22.6875 11.039062 22.914062 10.628906 22.957031 10.550781 C 23.042969 10.566406 23.484375 10.640625 23.484375 10.640625 C 23.484375 10.640625 23.667969 10.214844 23.703125 10.132812 C 23.789062 10.140625 24.230469 10.167969 24.230469 10.167969 C 24.230469 10.167969 24.363281 9.730469 24.390625 9.648438 C 24.476562 9.644531 24.894531 9.628906 24.894531 9.628906 C 24.894531 9.628906 24.972656 9.207031 24.992188 9.109375 C 25.960938 9.128906 26.484375 8.714844 26.648438 8.3125 L 26.699219 8.183594 L 26.5625 8.207031 C 26.457031 8.226562 26.34375 8.226562 26.230469 8.214844 C 26.828125 8.050781 27.183594 7.789062 27.382812 7.363281 L 27.472656 7.167969 L 27.277344 7.261719 C 27.160156 7.316406 27.015625 7.328125 26.886719 7.316406 C 27.382812 7.125 27.75 6.871094 27.941406 6.378906 L 28 6.230469 L 27.847656 6.277344 C 27.691406 6.324219 27.519531 6.367188 27.304688 6.367188 C 27.636719 6.136719 27.933594 5.78125 27.933594 5.402344 C 27.933594 5.394531 27.933594 5.386719 27.933594 5.378906 L 27.929688 5.230469 L 27.8125 5.320312 C 27.664062 5.425781 27.386719 5.507812 27.089844 5.542969 C 27.425781 5.25 27.519531 4.957031 27.570312 4.503906 L 27.589844 4.320312 L 27.445312 4.4375 C 27.140625 4.675781 26.84375 4.808594 26.507812 4.855469 C 26.671875 4.605469 26.757812 4.367188 26.757812 4.140625 C 26.757812 3.992188 26.722656 3.847656 26.652344 3.707031 L 26.589844 3.578125 L 26.515625 3.703125 C 26.292969 4.09375 25.925781 4.402344 25.527344 4.566406 C 25.535156 4.507812 25.542969 4.441406 25.542969 4.371094 C 25.542969 4.035156 25.414062 3.585938 24.960938 3.214844 Z M 24.847656 3.117188 "/>
<path style=" stroke:none;fill-rule:nonzero;fill:rgb(0%,16.862745%,36.078431%);fill-opacity:1;" d="M 27.871094 6.351562 C 27.636719 6.421875 27.394531 6.476562 27.058594 6.429688 C 27.421875 6.246094 27.871094 5.828125 27.855469 5.378906 C 27.65625 5.527344 27.242188 5.632812 26.839844 5.636719 C 27.3125 5.316406 27.433594 5.039062 27.492188 4.496094 C 27.121094 4.792969 26.765625 4.929688 26.347656 4.957031 C 26.628906 4.585938 26.792969 4.171875 26.585938 3.742188 C 26.292969 4.246094 25.832031 4.570312 25.414062 4.699219 C 25.503906 4.441406 25.539062 3.789062 24.914062 3.273438 C 24.871094 3.882812 24.648438 4.132812 24.3125 4.53125 C 23.972656 4.929688 22.894531 5.441406 20.320312 5.855469 C 19.238281 6.027344 17.023438 6.179688 16.464844 6.164062 C 16.027344 6.15625 15.824219 5.964844 15.71875 5.785156 L 15.863281 5.636719 C 15.742188 5.550781 15.632812 5.488281 15.441406 5.378906 L 15.570312 5.246094 C 15.101562 4.917969 14.507812 4.777344 14 4.777344 C 13.492188 4.777344 12.898438 4.917969 12.425781 5.246094 L 12.558594 5.378906 C 12.367188 5.488281 12.257812 5.550781 12.132812 5.636719 L 12.28125 5.785156 C 12.175781 5.964844 11.972656 6.15625 11.535156 6.164062 C 10.976562 6.179688 8.761719 6.027344 7.679688 5.855469 C 5.101562 5.441406 4.027344 4.929688 3.6875 4.53125 C 3.351562 4.132812 3.128906 3.882812 3.085938 3.273438 C 2.460938 3.789062 2.492188 4.441406 2.582031 4.699219 C 2.167969 4.570312 1.707031 4.246094 1.414062 3.742188 C 1.207031 4.171875 1.371094 4.585938 1.652344 4.957031 C 1.234375 4.929688 0.878906 4.792969 0.507812 4.496094 C 0.566406 5.039062 0.6875 5.316406 1.160156 5.636719 C 0.757812 5.632812 0.34375 5.527344 0.144531 5.378906 C 0.128906 5.828125 0.578125 6.246094 0.941406 6.429688 C 0.605469 6.476562 0.359375 6.421875 0.128906 6.351562 C 0.332031 6.875 0.753906 7.125 1.378906 7.332031 C 1.207031 7.417969 0.898438 7.433594 0.6875 7.332031 C 0.933594 7.855469 1.425781 8.089844 2.144531 8.222656 C 1.910156 8.296875 1.65625 8.324219 1.425781 8.285156 C 1.585938 8.683594 2.113281 9.070312 3.074219 9.027344 L 3.167969 9.554688 L 3.667969 9.574219 L 3.824219 10.085938 L 4.347656 10.050781 L 4.5625 10.554688 L 5.085938 10.46875 L 5.347656 10.945312 L 5.863281 10.808594 L 6.171875 11.246094 L 6.667969 11.039062 L 7.011719 11.394531 L 7.476562 11.101562 L 7.808594 11.417969 C 8.824219 11.429688 9.640625 11.347656 10.570312 11.046875 C 10.691406 10.65625 11.125 10.257812 11.507812 10.050781 C 11.738281 10.269531 11.753906 10.503906 11.714844 10.644531 C 11.5 10.589844 11.28125 10.625 11.0625 10.828125 C 10.84375 11.03125 10.746094 11.375 10.878906 11.765625 C 10.582031 11.746094 10.15625 11.960938 10.007812 12.230469 C 9.804688 12.601562 9.886719 13.03125 10.191406 13.257812 L 8.90625 14.6875 L 9.988281 14.542969 L 10.484375 15.128906 L 10.765625 14.953125 C 11.144531 16.398438 12.445312 17.460938 13.988281 17.460938 C 15.535156 17.460938 16.835938 16.394531 17.210938 14.949219 L 17.5 15.128906 L 17.996094 14.542969 L 19.082031 14.6875 L 17.796875 13.257812 C 18.101562 13.03125 18.183594 12.601562 17.976562 12.230469 C 17.832031 11.960938 17.40625 11.746094 17.105469 11.765625 C 17.242188 11.375 17.140625 11.03125 16.925781 10.828125 C 16.710938 10.628906 16.496094 10.589844 16.28125 10.644531 C 16.246094 10.503906 16.261719 10.269531 16.492188 10.050781 C 16.871094 10.257812 17.308594 10.65625 17.425781 11.046875 C 18.359375 11.347656 19.175781 11.429688 20.1875 11.417969 L 20.523438 11.101562 L 20.988281 11.394531 L 21.332031 11.039062 L 21.828125 11.246094 L 22.136719 10.808594 L 22.648438 10.945312 L 22.914062 10.46875 L 23.4375 10.554688 L 23.652344 10.050781 L 24.171875 10.085938 L 24.332031 9.574219 L 24.828125 9.554688 L 24.925781 9.027344 C 25.882812 9.070312 26.410156 8.683594 26.574219 8.285156 C 26.34375 8.324219 26.089844 8.296875 25.851562 8.222656 C 26.574219 8.089844 27.066406 7.855469 27.3125 7.332031 C 27.101562 7.433594 26.792969 7.417969 26.617188 7.332031 C 27.246094 7.125 27.667969 6.875 27.871094 6.351562 "/>
<path style=" stroke:none;fill-rule:nonzero;fill:rgb(74.509804%,75.294118%,76.078431%);fill-opacity:1;" d="M 13.277344 15.230469 C 13.246094 15.527344 13.148438 15.78125 13.003906 15.949219 C 12.710938 16.292969 12.433594 16.449219 12.167969 16.515625 C 12.636719 16.867188 13.207031 17.089844 13.832031 17.121094 L 13.832031 15.269531 C 13.644531 15.265625 13.460938 15.25 13.277344 15.230469 "/>
<path style=" stroke:none;fill-rule:nonzero;fill:rgb(74.509804%,75.294118%,76.078431%);fill-opacity:1;" d="M 12.738281 15.761719 C 12.851562 15.625 12.933594 15.421875 12.964844 15.179688 C 12.21875 15.042969 11.542969 14.761719 10.964844 14.363281 C 11.035156 15.105469 11.371094 15.773438 11.875 16.265625 C 12.148438 16.238281 12.429688 16.117188 12.738281 15.761719 "/>
<path style=" stroke:none;fill-rule:nonzero;fill:rgb(74.509804%,75.294118%,76.078431%);fill-opacity:1;" d="M 12.363281 13.390625 C 12.167969 13.164062 11.980469 12.996094 11.808594 12.855469 C 11.675781 12.792969 11.546875 12.710938 11.425781 12.589844 C 11.410156 12.570312 11.390625 12.550781 11.375 12.535156 C 11.242188 12.757812 11.140625 12.996094 11.066406 13.25 C 11.203125 13.464844 11.558594 13.792969 12.15625 13.84375 C 11.957031 13.9375 11.59375 14.136719 10.964844 13.816406 C 10.960938 13.863281 10.957031 13.90625 10.957031 13.953125 C 11.523438 14.394531 12.207031 14.710938 12.976562 14.859375 C 12.953125 14.402344 12.769531 13.871094 12.363281 13.390625 "/>
<path style=" stroke:none;fill-rule:nonzero;fill:rgb(74.509804%,75.294118%,76.078431%);fill-opacity:1;" d="M 11.78125 12.035156 C 11.835938 12.277344 12.160156 12.863281 12.855469 12.898438 C 12.789062 12.929688 12.625 12.976562 12.414062 12.976562 C 12.464844 13.03125 12.511719 13.085938 12.5625 13.140625 C 13.054688 13.71875 13.269531 14.363281 13.289062 14.910156 C 13.46875 14.933594 13.648438 14.949219 13.832031 14.953125 L 13.832031 11.039062 C 13.632812 11.050781 13.441406 11.078125 13.257812 11.125 C 13.191406 11.257812 13.0625 11.375 12.867188 11.390625 C 12.832031 11.75 13.101562 12.324219 13.605469 12.539062 C 13.351562 12.550781 12.886719 12.476562 12.5625 12.042969 C 12.417969 11.84375 12.335938 11.707031 12.28125 11.566406 C 12.199219 11.621094 12.125 11.679688 12.050781 11.738281 C 12.019531 11.855469 11.921875 12.03125 11.78125 12.035156 "/>
<path style=" stroke:none;fill-rule:nonzero;fill:rgb(74.509804%,75.294118%,76.078431%);fill-opacity:1;" d="M 14.722656 15.230469 C 14.753906 15.527344 14.851562 15.78125 14.996094 15.949219 C 15.289062 16.292969 15.566406 16.449219 15.832031 16.515625 C 15.363281 16.867188 14.792969 17.089844 14.167969 17.121094 L 14.167969 15.269531 C 14.355469 15.265625 14.539062 15.25 14.722656 15.230469 "/>
<path style=" stroke:none;fill-rule:nonzero;fill:rgb(74.509804%,75.294118%,76.078431%);fill-opacity:1;" d="M 15.265625 15.761719 C 15.144531 15.625 15.066406 15.421875 15.035156 15.179688 C 15.78125 15.042969 16.457031 14.761719 17.035156 14.363281 C 16.964844 15.105469 16.628906 15.773438 16.125 16.265625 C 15.851562 16.238281 15.570312 16.117188 15.265625 15.761719 "/>
<path style=" stroke:none;fill-rule:nonzero;fill:rgb(74.509804%,75.294118%,76.078431%);fill-opacity:1;" d="M 15.636719 13.390625 C 15.832031 13.164062 16.019531 12.996094 16.191406 12.855469 C 16.324219 12.792969 16.453125 12.710938 16.574219 12.589844 C 16.589844 12.570312 16.609375 12.550781 16.625 12.535156 C 16.757812 12.757812 16.859375 12.996094 16.933594 13.25 C 16.796875 13.464844 16.441406 13.792969 15.84375 13.84375 C 16.042969 13.9375 16.40625 14.136719 17.035156 13.816406 C 17.039062 13.863281 17.042969 13.90625 17.042969 13.953125 C 16.476562 14.394531 15.792969 14.710938 15.023438 14.859375 C 15.046875 14.402344 15.226562 13.871094 15.636719 13.390625 "/>
<path style=" stroke:none;fill-rule:nonzero;fill:rgb(74.509804%,75.294118%,76.078431%);fill-opacity:1;" d="M 16.21875 12.035156 C 16.167969 12.277344 15.839844 12.863281 15.144531 12.898438 C 15.210938 12.929688 15.375 12.976562 15.585938 12.976562 C 15.535156 13.03125 15.488281 13.085938 15.4375 13.140625 C 14.945312 13.71875 14.730469 14.363281 14.710938 14.910156 C 14.53125 14.933594 14.351562 14.949219 14.167969 14.953125 L 14.167969 11.039062 C 14.363281 11.050781 14.558594 11.078125 14.742188 11.125 C 14.808594 11.257812 14.941406 11.375 15.132812 11.390625 C 15.167969 11.75 14.898438 12.324219 14.394531 12.539062 C 14.648438 12.550781 15.113281 12.476562 15.4375 12.042969 C 15.582031 11.84375 15.664062 11.707031 15.71875 11.566406 C 15.800781 11.621094 15.875 11.679688 15.949219 11.738281 C 15.980469 11.855469 16.078125 12.03125 16.21875 12.035156 "/>
<path style=" stroke:none;fill-rule:nonzero;fill:rgb(0%,16.862745%,36.078431%);fill-opacity:1;" d="M 9.617188 2.578125 L 9.671875 2.460938 L 8.8125 2.460938 L 8.863281 2.578125 L 8.5625 3.988281 L 8.480469 4.105469 L 8.964844 4.105469 L 8.917969 3.996094 L 8.964844 3.792969 L 9.519531 3.792969 L 9.558594 3.996094 L 9.511719 4.105469 L 10 4.105469 L 9.917969 3.988281 Z M 9.03125 3.492188 L 9.183594 2.761719 L 9.296875 2.761719 L 9.453125 3.492188 Z M 8.144531 3.808594 L 8.28125 3.761719 L 8.28125 4.105469 L 7.238281 4.105469 L 7.285156 3.992188 L 7.285156 2.578125 L 7.238281 2.460938 L 7.699219 2.460938 L 7.640625 2.585938 L 7.640625 3.804688 L 8.144531 3.804688 Z M 5.566406 2.578125 L 5.617188 2.460938 L 4.761719 2.460938 L 4.816406 2.578125 L 4.511719 3.992188 L 4.429688 4.105469 L 4.914062 4.105469 L 4.867188 3.996094 L 4.914062 3.792969 L 5.464844 3.792969 L 5.507812 3.996094 L 5.460938 4.105469 L 5.949219 4.105469 L 5.867188 3.988281 Z M 4.980469 3.492188 L 5.132812 2.761719 L 5.246094 2.761719 L 5.402344 3.492188 Z M 5.867188 2.460938 L 7.035156 2.460938 L 7.035156 2.808594 L 6.902344 2.761719 L 6.632812 2.761719 L 6.632812 3.984375 L 6.6875 4.105469 L 6.214844 4.105469 L 6.273438 3.984375 L 6.273438 2.761719 L 6 2.761719 L 5.863281 2.808594 L 5.863281 2.460938 Z M 12.515625 3.984375 L 12.574219 4.105469 L 12.101562 4.105469 L 12.160156 3.984375 L 12.160156 2.761719 L 11.886719 2.761719 L 11.75 2.808594 L 11.75 2.460938 L 12.921875 2.460938 L 12.921875 2.808594 L 12.785156 2.761719 L 12.515625 2.761719 Z M 13.976562 2.578125 L 14.027344 2.460938 L 13.167969 2.460938 L 13.222656 2.578125 L 12.917969 3.988281 L 12.839844 4.105469 L 13.320312 4.105469 L 13.277344 3.996094 L 13.320312 3.792969 L 13.875 3.792969 L 13.914062 3.996094 L 13.871094 4.105469 L 14.359375 4.105469 L 14.273438 3.988281 Z M 13.386719 3.492188 L 13.539062 2.761719 L 13.652344 2.761719 L 13.808594 3.492188 Z M 11.492188 2.585938 L 11.492188 3.984375 L 11.550781 4.105469 L 11.082031 4.105469 L 11.136719 3.984375 L 11.136719 3.640625 L 10.632812 3 L 10.632812 3.988281 L 10.714844 4.105469 L 10.222656 4.105469 L 10.28125 3.992188 L 10.28125 2.566406 L 10.222656 2.460938 L 10.734375 2.460938 L 10.703125 2.546875 L 11.136719 3.097656 L 11.136719 2.585938 L 11.082031 2.460938 L 11.550781 2.460938 Z M 11.492188 2.585938 "/>
<path style=" stroke:none;fill-rule:nonzero;fill:rgb(74.509804%,75.294118%,76.078431%);fill-opacity:1;" d="M 11.410156 4.035156 L 11.21875 4.035156 L 11.21875 3.621094 L 10.550781 2.769531 L 10.550781 4.039062 L 10.359375 4.039062 L 10.359375 2.53125 L 10.59375 2.53125 L 11.21875 3.328125 L 11.21875 2.53125 L 11.410156 2.53125 L 11.410156 4.035156 M 9.527344 2.53125 L 9.84375 4.039062 L 9.648438 4.039062 L 9.585938 3.722656 L 8.898438 3.722656 L 8.828125 4.039062 L 8.636719 4.039062 L 8.960938 2.53125 Z M 9.550781 3.566406 L 9.363281 2.691406 L 9.117188 2.691406 L 8.929688 3.566406 Z M 13.882812 2.53125 L 14.199219 4.035156 L 14.003906 4.035156 L 13.945312 3.722656 L 13.253906 3.722656 L 13.183594 4.035156 L 12.992188 4.035156 L 13.316406 2.53125 Z M 13.910156 3.566406 L 13.722656 2.691406 L 13.472656 2.691406 L 13.289062 3.566406 Z M 5.945312 2.691406 L 6.355469 2.691406 L 6.355469 4.035156 L 6.550781 4.035156 L 6.550781 2.691406 L 6.953125 2.691406 L 6.953125 2.53125 L 5.945312 2.53125 Z M 11.832031 2.691406 L 12.242188 2.691406 L 12.242188 4.035156 L 12.433594 4.035156 L 12.433594 2.691406 L 12.839844 2.691406 L 12.839844 2.53125 L 11.832031 2.53125 Z M 5.472656 2.53125 L 5.796875 4.035156 L 5.601562 4.035156 L 5.539062 3.722656 L 4.84375 3.722656 L 4.773438 4.039062 L 4.585938 4.039062 L 4.90625 2.53125 Z M 5.5 3.566406 L 5.316406 2.691406 L 5.066406 2.691406 L 4.878906 3.566406 Z M 7.554688 2.53125 L 7.367188 2.53125 L 7.367188 4.039062 L 8.199219 4.039062 L 8.199219 3.875 L 7.554688 3.875 Z M 7.554688 2.53125 "/>
<path style=" stroke:none;fill-rule:nonzero;fill:rgb(0%,16.862745%,36.078431%);fill-opacity:1;" d="M 11.449219 4.070312 L 11.257812 4.070312 L 11.257812 3.613281 L 10.589844 2.765625 L 10.589844 4.070312 L 10.398438 4.070312 L 10.398438 2.5625 L 10.632812 2.5625 L 11.257812 3.363281 C 11.257812 3.363281 11.257812 2.566406 11.257812 2.5625 L 11.449219 2.5625 C 11.449219 2.566406 11.449219 4.070312 11.449219 4.070312 M 9.5625 2.5625 L 9.882812 4.070312 L 9.695312 4.070312 L 9.632812 3.757812 L 8.933594 3.757812 L 8.863281 4.070312 L 8.675781 4.070312 L 9 2.5625 Z M 9.597656 3.597656 L 9.410156 2.726562 L 9.152344 2.726562 L 8.96875 3.597656 Z M 13.917969 2.5625 L 14.238281 4.070312 L 14.058594 4.070312 L 13.992188 3.757812 L 13.292969 3.757812 L 13.21875 4.070312 L 13.03125 4.070312 L 13.355469 2.5625 Z M 13.957031 3.597656 L 13.769531 2.726562 L 13.511719 2.726562 L 13.328125 3.597656 Z M 5.984375 2.726562 L 6.394531 2.726562 L 6.394531 4.070312 L 6.585938 4.070312 L 6.585938 2.726562 L 6.992188 2.722656 L 6.992188 2.5625 L 5.984375 2.5625 Z M 11.871094 2.726562 L 12.28125 2.726562 L 12.28125 4.070312 L 12.472656 4.070312 L 12.472656 2.726562 L 12.878906 2.722656 L 12.878906 2.5625 L 11.871094 2.5625 Z M 5.511719 2.5625 L 5.835938 4.070312 L 5.648438 4.070312 L 5.582031 3.757812 L 4.882812 3.757812 L 4.8125 4.070312 L 4.621094 4.070312 L 4.945312 2.5625 Z M 5.546875 3.597656 L 5.359375 2.726562 L 5.101562 2.726562 L 4.917969 3.597656 Z M 7.59375 2.5625 L 7.40625 2.5625 L 7.40625 4.070312 L 8.238281 4.070312 L 8.238281 3.90625 L 7.59375 3.90625 Z M 7.59375 2.5625 "/>
<path style=" stroke:none;fill-rule:nonzero;fill:rgb(0%,16.862745%,36.078431%);fill-opacity:1;" d="M 23.394531 4.105469 L 22.234375 4.105469 C 22.195312 3.960938 22.1875 3.730469 22.179688 3.625 L 22.53125 3.625 C 22.53125 3.664062 22.53125 3.761719 22.535156 3.808594 L 23.089844 3.808594 C 23.101562 3.722656 23.101562 3.59375 23.097656 3.527344 L 22.203125 3.191406 C 22.152344 2.9375 22.191406 2.628906 22.246094 2.460938 L 23.386719 2.460938 C 23.425781 2.589844 23.441406 2.820312 23.449219 2.921875 L 23.097656 2.921875 C 23.097656 2.886719 23.09375 2.804688 23.089844 2.761719 L 22.535156 2.761719 C 22.527344 2.847656 22.527344 2.894531 22.53125 2.960938 L 23.425781 3.296875 C 23.472656 3.527344 23.4375 3.921875 23.394531 4.105469 M 16.554688 2.460938 L 16.085938 2.460938 L 16.144531 2.585938 L 16.144531 3.042969 L 15.671875 3.042969 L 15.671875 2.585938 L 15.726562 2.460938 L 15.253906 2.460938 L 15.3125 2.585938 L 15.316406 3.984375 L 15.253906 4.105469 L 15.726562 4.105469 L 15.671875 3.984375 L 15.671875 3.34375 L 16.144531 3.34375 L 16.144531 3.984375 L 16.085938 4.105469 L 16.558594 4.105469 L 16.5 3.984375 L 16.5 2.585938 Z M 19.980469 2.585938 L 19.78125 3.488281 L 19.511719 2.585938 L 19.578125 2.460938 L 19.09375 2.460938 L 19.152344 2.585938 L 18.882812 3.488281 L 18.683594 2.585938 L 18.71875 2.460938 L 18.242188 2.460938 L 18.332031 2.585938 L 18.636719 3.984375 L 18.601562 4.105469 L 19.113281 4.105469 L 19.089844 3.984375 L 19.332031 3.167969 L 19.574219 3.984375 L 19.550781 4.105469 L 20.0625 4.105469 L 20.03125 3.984375 L 20.335938 2.585938 L 20.421875 2.460938 L 19.949219 2.460938 Z M 21.546875 2.996094 L 21.96875 2.460938 L 21.453125 2.460938 L 21.46875 2.546875 L 21.035156 3.097656 L 21.035156 2.585938 L 21.089844 2.460938 L 20.621094 2.460938 L 20.679688 2.585938 L 20.679688 3.984375 L 20.621094 4.105469 L 21.089844 4.105469 L 21.035156 3.984375 L 21.035156 3.640625 L 21.289062 3.320312 L 21.554688 3.984375 L 21.519531 4.105469 L 22.003906 4.105469 Z M 18.199219 3.988281 L 18.28125 4.105469 L 17.792969 4.105469 L 17.835938 3.996094 L 17.796875 3.792969 L 17.246094 3.792969 L 17.199219 3.996094 L 17.246094 4.105469 L 16.761719 4.105469 L 16.84375 3.988281 L 17.144531 2.578125 L 17.09375 2.460938 L 17.949219 2.460938 L 17.898438 2.578125 Z M 17.734375 3.492188 L 17.574219 2.761719 L 17.464844 2.761719 L 17.3125 3.492188 Z M 17.734375 3.492188 "/>
<path style=" stroke:none;fill-rule:nonzero;fill:rgb(74.509804%,75.294118%,76.078431%);fill-opacity:1;" d="M 17.238281 2.53125 L 16.917969 4.035156 L 17.105469 4.035156 L 17.175781 3.722656 L 17.867188 3.722656 L 17.929688 4.035156 L 18.125 4.035156 L 17.804688 2.53125 Z M 17.210938 3.5625 L 17.394531 2.691406 L 17.644531 2.691406 L 17.832031 3.5625 Z M 21.875 4.035156 L 21.660156 4.035156 L 21.3125 3.167969 L 20.953125 3.621094 L 20.953125 4.035156 L 20.761719 4.035156 L 20.761719 2.53125 L 20.953125 2.53125 L 20.953125 3.328125 L 21.578125 2.53125 L 21.816406 2.53125 L 21.453125 2.984375 Z M 23.363281 3.578125 C 23.363281 3.734375 23.347656 3.898438 23.324219 4.023438 C 23.324219 4.023438 23.324219 4.03125 23.324219 4.035156 L 22.304688 4.035156 C 22.300781 4.03125 22.300781 4.023438 22.300781 4.023438 C 22.285156 3.917969 22.273438 3.785156 22.269531 3.695312 L 22.449219 3.695312 C 22.449219 3.714844 22.457031 3.875 22.457031 3.875 L 23.164062 3.875 L 23.175781 3.8125 C 23.179688 3.753906 23.183594 3.675781 23.183594 3.609375 C 23.183594 3.578125 23.183594 3.546875 23.179688 3.523438 L 23.179688 3.480469 C 23.179688 3.480469 22.359375 3.171875 22.28125 3.144531 C 22.269531 3.074219 22.265625 3.003906 22.265625 2.9375 C 22.265625 2.796875 22.28125 2.660156 22.300781 2.546875 C 22.300781 2.546875 22.300781 2.539062 22.304688 2.53125 L 23.324219 2.53125 C 23.324219 2.539062 23.324219 2.546875 23.324219 2.546875 C 23.34375 2.65625 23.355469 2.777344 23.359375 2.855469 L 23.179688 2.855469 C 23.175781 2.820312 23.167969 2.691406 23.167969 2.691406 L 22.460938 2.691406 L 22.453125 2.757812 C 22.449219 2.808594 22.445312 2.855469 22.445312 2.898438 C 22.445312 2.917969 22.445312 2.941406 22.449219 2.964844 L 22.449219 3.007812 C 22.449219 3.007812 23.269531 3.316406 23.347656 3.34375 C 23.359375 3.417969 23.363281 3.496094 23.363281 3.578125 M 20.074219 2.53125 L 20.265625 2.53125 L 19.933594 4.035156 L 19.675781 4.035156 L 19.332031 2.882812 L 18.988281 4.035156 L 18.734375 4.035156 L 18.402344 2.53125 L 18.589844 2.53125 L 18.871094 3.8125 L 19.25 2.53125 L 19.414062 2.53125 L 19.792969 3.808594 Z M 16.417969 4.035156 L 16.226562 4.035156 L 16.226562 3.273438 L 15.589844 3.273438 L 15.589844 4.035156 L 15.398438 4.035156 L 15.398438 2.53125 L 15.589844 2.53125 L 15.589844 3.113281 L 16.226562 3.113281 L 16.226562 2.53125 L 16.417969 2.53125 Z M 16.417969 4.035156 "/>
<path style=" stroke:none;fill-rule:nonzero;fill:rgb(0%,16.862745%,36.078431%);fill-opacity:1;" d="M 17.277344 2.5625 L 16.957031 4.070312 L 17.144531 4.070312 L 17.214844 3.757812 L 17.917969 3.757812 L 17.980469 4.070312 L 18.164062 4.070312 L 17.84375 2.5625 Z M 17.25 3.597656 L 17.433594 2.726562 L 17.695312 2.726562 L 17.882812 3.597656 Z M 21.914062 4.070312 L 21.707031 4.070312 L 21.355469 3.199219 L 20.988281 3.652344 L 20.988281 4.070312 L 20.800781 4.070312 L 20.800781 2.5625 L 20.988281 2.5625 L 20.988281 3.335938 L 21.59375 2.5625 L 21.855469 2.5625 L 21.492188 3.019531 Z M 23.402344 3.609375 C 23.402344 3.765625 23.386719 3.929688 23.363281 4.054688 C 23.363281 4.054688 23.363281 4.0625 23.359375 4.070312 L 22.34375 4.070312 C 22.339844 4.0625 22.339844 4.054688 22.339844 4.054688 C 22.324219 3.949219 22.3125 3.816406 22.304688 3.726562 L 22.488281 3.726562 C 22.488281 3.75 22.496094 3.90625 22.496094 3.90625 L 23.207031 3.90625 L 23.210938 3.84375 C 23.21875 3.785156 23.21875 3.707031 23.21875 3.644531 C 23.21875 3.609375 23.21875 3.578125 23.21875 3.554688 L 23.214844 3.511719 C 23.214844 3.511719 22.394531 3.203125 22.320312 3.175781 C 22.308594 3.105469 22.300781 3.039062 22.300781 2.96875 C 22.300781 2.828125 22.320312 2.691406 22.339844 2.578125 C 22.339844 2.578125 22.339844 2.570312 22.34375 2.5625 L 23.359375 2.5625 C 23.363281 2.570312 23.363281 2.578125 23.363281 2.578125 C 23.378906 2.6875 23.390625 2.808594 23.398438 2.886719 L 23.21875 2.886719 C 23.214844 2.855469 23.207031 2.726562 23.207031 2.726562 L 22.5 2.726562 L 22.492188 2.789062 C 22.488281 2.84375 22.480469 2.886719 22.480469 2.933594 C 22.480469 2.953125 22.484375 2.972656 22.484375 2.996094 L 22.488281 3.058594 C 22.488281 3.058594 23.308594 3.367188 23.386719 3.394531 C 23.394531 3.464844 23.402344 3.527344 23.402344 3.609375 M 20.113281 2.5625 L 20.300781 2.5625 L 19.972656 4.070312 L 19.730469 4.070312 L 19.378906 2.894531 L 19.027344 4.070312 L 18.78125 4.070312 L 18.453125 2.5625 L 18.625 2.5625 L 18.910156 3.84375 L 19.289062 2.5625 L 19.453125 2.5625 L 19.828125 3.839844 Z M 16.457031 4.070312 L 16.265625 4.070312 L 16.265625 3.308594 L 15.628906 3.308594 L 15.628906 4.070312 L 15.433594 4.070312 L 15.433594 2.5625 L 15.628906 2.5625 L 15.628906 3.144531 L 16.265625 3.144531 L 16.265625 2.5625 L 16.457031 2.5625 Z M 16.457031 4.070312 "/>
<path style=" stroke:none;fill-rule:nonzero;fill:rgb(100%,100%,100%);fill-opacity:1;" d="M 14.929688 5.691406 C 14.910156 5.730469 14.902344 5.75 14.863281 5.808594 C 14.921875 5.9375 14.898438 6.078125 14.8125 6.121094 C 14.808594 6.050781 14.769531 5.96875 14.742188 5.945312 C 14.6875 5.992188 14.609375 6.035156 14.539062 6.050781 C 14.582031 6.140625 14.675781 6.203125 14.785156 6.203125 C 14.9375 6.203125 15.058594 6.078125 15.058594 5.925781 C 15.058594 5.828125 15.007812 5.738281 14.929688 5.691406 "/>
<path style=" stroke:none;fill-rule:nonzero;fill:rgb(100%,100%,100%);fill-opacity:1;" d="M 13.070312 5.691406 C 13.089844 5.730469 13.097656 5.75 13.136719 5.808594 C 13.078125 5.9375 13.101562 6.078125 13.1875 6.121094 C 13.191406 6.050781 13.230469 5.96875 13.257812 5.945312 C 13.3125 5.992188 13.390625 6.035156 13.460938 6.050781 C 13.414062 6.140625 13.324219 6.203125 13.214844 6.203125 C 13.0625 6.203125 12.941406 6.078125 12.941406 5.925781 C 12.941406 5.828125 12.992188 5.738281 13.070312 5.691406 "/>
<path style=" stroke:none;fill-rule:nonzero;fill:rgb(74.509804%,75.294118%,76.078431%);fill-opacity:1;" d="M 14 5.894531 C 13.855469 5.898438 13.71875 5.972656 13.632812 6.097656 C 13.582031 6.171875 13.550781 6.257812 13.550781 6.335938 C 13.550781 6.359375 13.558594 6.386719 13.566406 6.410156 C 13.546875 6.421875 13.125 6.765625 13.125 6.765625 L 13.019531 6.851562 C 13.003906 6.859375 13 6.875 13 6.886719 C 13 6.894531 13 6.898438 13.003906 6.90625 C 13.015625 6.917969 13.039062 6.925781 13.0625 6.910156 L 13.136719 6.859375 C 13.324219 6.734375 13.460938 6.644531 13.613281 6.652344 C 13.761719 6.65625 13.859375 6.792969 14 7.09375 Z M 14 5.894531 "/>
<path style=" stroke:none;fill-rule:nonzero;fill:rgb(74.509804%,75.294118%,76.078431%);fill-opacity:1;" d="M 14.449219 6.785156 C 14.273438 6.792969 14.105469 7.121094 14.015625 7.300781 C 14.015625 7.300781 14.007812 7.316406 14 7.335938 C 13.992188 7.316406 13.976562 7.296875 13.976562 7.296875 C 13.886719 7.121094 13.71875 6.792969 13.546875 6.785156 C 13.355469 6.777344 13.269531 6.890625 13.230469 6.9375 L 13.207031 6.960938 L 13.234375 6.976562 C 13.398438 7.003906 13.671875 7.339844 13.886719 7.78125 L 13.90625 7.816406 C 13.90625 7.816406 13.976562 7.65625 14 7.601562 C 14.023438 7.65625 14.085938 7.816406 14.085938 7.816406 L 14.105469 7.78125 C 14.320312 7.339844 14.597656 7.003906 14.757812 6.976562 L 14.789062 6.96875 L 14.761719 6.9375 C 14.726562 6.890625 14.636719 6.777344 14.449219 6.785156 "/>
<path style=" stroke:none;fill-rule:nonzero;fill:rgb(74.509804%,75.294118%,76.078431%);fill-opacity:1;" d="M 10.332031 12.035156 L 10.28125 12.050781 C 10.28125 12.050781 10.460938 12.132812 10.503906 12.148438 C 10.464844 12.179688 10.289062 12.335938 10.289062 12.335938 C 10.289062 12.335938 10.429688 12.378906 10.453125 12.386719 C 10.453125 12.414062 10.445312 12.683594 10.445312 12.683594 L 10.476562 12.65625 C 10.53125 12.609375 10.613281 12.59375 10.695312 12.609375 C 10.796875 12.628906 10.886719 12.691406 10.933594 12.769531 L 10.953125 12.800781 L 10.96875 12.769531 C 11.039062 12.632812 11.066406 12.410156 10.941406 12.199219 C 10.824219 12.003906 10.542969 11.976562 10.332031 12.035156 "/>
<path style=" stroke:none;fill-rule:nonzero;fill:rgb(74.509804%,75.294118%,76.078431%);fill-opacity:1;" d="M 14.695312 10.511719 C 14.671875 10.71875 14.820312 10.957031 15.027344 11.039062 L 15.058594 11.050781 L 15.054688 11.015625 C 15.027344 10.867188 15.050781 10.753906 15.125 10.671875 C 15.203125 10.585938 15.320312 10.5625 15.40625 10.570312 L 15.4375 10.570312 C 15.4375 10.570312 15.386719 10.453125 15.378906 10.4375 C 15.390625 10.421875 15.457031 10.335938 15.457031 10.335938 C 15.457031 10.335938 15.296875 10.234375 15.269531 10.214844 C 15.285156 10.191406 15.359375 10.09375 15.359375 10.09375 L 15.324219 10.089844 C 14.84375 10.054688 14.714844 10.300781 14.695312 10.511719 "/>
<path style=" stroke:none;fill-rule:nonzero;fill:rgb(74.509804%,75.294118%,76.078431%);fill-opacity:1;" d="M 16.09375 10.949219 C 16.007812 11.070312 15.980469 11.21875 16.019531 11.363281 C 16.054688 11.5 16.140625 11.621094 16.238281 11.671875 L 16.28125 11.691406 L 16.265625 11.648438 C 16.230469 11.53125 16.273438 11.382812 16.367188 11.300781 C 16.429688 11.242188 16.542969 11.1875 16.722656 11.257812 L 16.75 11.269531 C 16.75 11.269531 16.746094 11.160156 16.746094 11.140625 C 16.761719 11.128906 16.867188 11.070312 16.867188 11.070312 C 16.867188 11.070312 16.742188 10.980469 16.707031 10.953125 C 16.734375 10.9375 16.804688 10.898438 16.804688 10.898438 L 16.777344 10.878906 C 16.601562 10.765625 16.273438 10.691406 16.09375 10.949219 "/>
<path style=" stroke:none;fill-rule:nonzero;fill:rgb(74.509804%,75.294118%,76.078431%);fill-opacity:1;" d="M 12.675781 10.089844 L 12.640625 10.09375 C 12.640625 10.09375 12.714844 10.191406 12.730469 10.214844 C 12.703125 10.234375 12.542969 10.335938 12.542969 10.335938 C 12.542969 10.335938 12.609375 10.421875 12.621094 10.4375 C 12.613281 10.453125 12.5625 10.570312 12.5625 10.570312 L 12.597656 10.570312 C 12.679688 10.5625 12.796875 10.585938 12.875 10.671875 C 12.949219 10.75 12.972656 10.867188 12.945312 11.015625 L 12.9375 11.050781 L 12.972656 11.039062 C 13.179688 10.953125 13.328125 10.71875 13.304688 10.511719 C 13.285156 10.300781 13.15625 10.054688 12.675781 10.089844 "/>
<path style=" stroke:none;fill-rule:nonzero;fill:rgb(74.509804%,75.294118%,76.078431%);fill-opacity:1;" d="M 11.222656 10.878906 L 11.195312 10.898438 C 11.195312 10.898438 11.265625 10.9375 11.292969 10.953125 C 11.257812 10.980469 11.132812 11.066406 11.132812 11.066406 C 11.132812 11.066406 11.238281 11.128906 11.253906 11.140625 C 11.253906 11.160156 11.25 11.269531 11.25 11.269531 L 11.277344 11.257812 C 11.457031 11.1875 11.570312 11.242188 11.632812 11.300781 C 11.726562 11.382812 11.769531 11.53125 11.734375 11.648438 L 11.71875 11.691406 L 11.761719 11.671875 C 11.859375 11.621094 11.945312 11.5 11.980469 11.363281 C 12.019531 11.21875 11.992188 11.070312 11.90625 10.949219 C 11.726562 10.691406 11.398438 10.765625 11.222656 10.878906 "/>
<path style=" stroke:none;fill-rule:nonzero;fill:rgb(74.509804%,75.294118%,76.078431%);fill-opacity:1;" d="M 17.058594 12.199219 C 16.933594 12.410156 16.960938 12.632812 17.03125 12.769531 L 17.046875 12.800781 L 17.066406 12.769531 C 17.109375 12.691406 17.203125 12.628906 17.304688 12.609375 C 17.386719 12.59375 17.46875 12.609375 17.523438 12.65625 L 17.554688 12.683594 C 17.554688 12.683594 17.546875 12.414062 17.546875 12.386719 C 17.570312 12.378906 17.710938 12.335938 17.710938 12.335938 C 17.710938 12.335938 17.535156 12.179688 17.496094 12.148438 C 17.539062 12.128906 17.71875 12.050781 17.71875 12.050781 L 17.667969 12.039062 C 17.457031 11.976562 17.175781 12.003906 17.058594 12.199219 "/>
<path style=" stroke:none;fill-rule:nonzero;fill:rgb(100%,100%,100%);fill-opacity:1;" d="M 12.558594 10.59375 C 12.453125 11.046875 12.507812 11.234375 12.5625 11.417969 C 12.617188 11.601562 12.761719 11.992188 13.0625 12.289062 C 12.707031 12.070312 12.550781 11.746094 12.425781 11.480469 C 12.34375 11.300781 12.289062 10.984375 12.328125 10.828125 C 12.359375 10.691406 12.4375 10.648438 12.558594 10.59375 "/>
<path style=" stroke:none;fill-rule:nonzero;fill:rgb(100%,100%,100%);fill-opacity:1;" d="M 11.25 11.28125 C 11.210938 11.710938 11.320312 11.964844 11.429688 12.144531 C 11.546875 12.335938 11.773438 12.660156 12.246094 12.859375 C 11.800781 12.769531 11.488281 12.457031 11.347656 12.25 C 11.222656 12.070312 11.09375 11.785156 11.085938 11.503906 C 11.085938 11.417969 11.15625 11.289062 11.25 11.28125 "/>
<path style=" stroke:none;fill-rule:nonzero;fill:rgb(100%,100%,100%);fill-opacity:1;" d="M 10.457031 12.703125 C 10.515625 12.9375 10.609375 13.144531 10.707031 13.269531 C 10.78125 13.367188 11.011719 13.660156 11.496094 13.863281 C 10.890625 13.726562 10.667969 13.464844 10.597656 13.367188 C 10.492188 13.226562 10.339844 13.019531 10.351562 12.910156 C 10.359375 12.855469 10.414062 12.71875 10.457031 12.703125 "/>
<path style=" stroke:none;fill-rule:nonzero;fill:rgb(100%,100%,100%);fill-opacity:1;" d="M 15.441406 10.59375 C 15.546875 11.046875 15.492188 11.234375 15.4375 11.417969 C 15.378906 11.601562 15.238281 11.992188 14.9375 12.289062 C 15.292969 12.070312 15.449219 11.746094 15.574219 11.480469 C 15.65625 11.300781 15.707031 10.984375 15.671875 10.828125 C 15.640625 10.691406 15.5625 10.648438 15.441406 10.59375 "/>
<path style=" stroke:none;fill-rule:nonzero;fill:rgb(100%,100%,100%);fill-opacity:1;" d="M 16.75 11.28125 C 16.789062 11.710938 16.679688 11.964844 16.570312 12.144531 C 16.453125 12.335938 16.226562 12.660156 15.753906 12.859375 C 16.199219 12.769531 16.511719 12.457031 16.652344 12.25 C 16.777344 12.070312 16.90625 11.785156 16.914062 11.503906 C 16.914062 11.417969 16.84375 11.289062 16.75 11.28125 "/>
<path style=" stroke:none;fill-rule:nonzero;fill:rgb(100%,100%,100%);fill-opacity:1;" d="M 17.542969 12.703125 C 17.484375 12.9375 17.390625 13.144531 17.292969 13.269531 C 17.21875 13.367188 16.988281 13.660156 16.503906 13.863281 C 17.109375 13.726562 17.332031 13.464844 17.402344 13.367188 C 17.507812 13.226562 17.664062 13.019531 17.648438 12.910156 C 17.640625 12.855469 17.585938 12.71875 17.542969 12.703125 "/>
<path style=" stroke:none;fill-rule:nonzero;fill:rgb(100%,100%,100%);fill-opacity:1;" d="M 15.078125 12.902344 C 15.15625 12.964844 15.234375 13.039062 15.1875 13.152344 L 14.964844 12.917969 L 15.101562 12.625 C 15.183594 12.714844 15.132812 12.820312 15.078125 12.902344 "/>
<path style=" stroke:none;fill-rule:nonzero;fill:rgb(100%,100%,100%);fill-opacity:1;" d="M 15.785156 13.859375 C 15.863281 13.921875 15.941406 13.996094 15.894531 14.109375 L 15.671875 13.875 L 15.808594 13.582031 C 15.886719 13.671875 15.839844 13.777344 15.785156 13.859375 "/>
<path style=" stroke:none;fill-rule:nonzero;fill:rgb(100%,100%,100%);fill-opacity:1;" d="M 14.347656 12.550781 C 14.4375 12.59375 14.527344 12.652344 14.5 12.773438 L 14.238281 12.585938 L 14.3125 12.273438 C 14.410156 12.34375 14.386719 12.457031 14.347656 12.550781 "/>
<path style=" stroke:none;fill-rule:nonzero;fill:rgb(100%,100%,100%);fill-opacity:1;" d="M 12.917969 12.902344 C 12.84375 12.964844 12.765625 13.039062 12.8125 13.152344 L 13.035156 12.917969 L 12.898438 12.625 C 12.816406 12.714844 12.867188 12.820312 12.917969 12.902344 "/>
<path style=" stroke:none;fill-rule:nonzero;fill:rgb(100%,100%,100%);fill-opacity:1;" d="M 12.214844 13.859375 C 12.136719 13.921875 12.058594 13.996094 12.105469 14.109375 L 12.328125 13.875 L 12.195312 13.582031 C 12.113281 13.671875 12.160156 13.777344 12.214844 13.859375 "/>
<path style=" stroke:none;fill-rule:nonzero;fill:rgb(100%,100%,100%);fill-opacity:1;" d="M 13.652344 12.550781 C 13.5625 12.59375 13.472656 12.652344 13.5 12.773438 L 13.761719 12.585938 L 13.6875 12.273438 C 13.589844 12.34375 13.613281 12.457031 13.652344 12.550781 "/>
<path style=" stroke:none;fill-rule:nonzero;fill:rgb(100%,100%,100%);fill-opacity:1;" d="M 6.035156 10.421875 C 6.027344 10.429688 5.941406 10.59375 5.941406 10.59375 L 5.925781 10.621094 L 6.144531 10.640625 C 6.15625 10.640625 6.996094 10.035156 6.996094 10.035156 Z M 6.035156 10.421875 "/>
<path style=" stroke:none;fill-rule:nonzero;fill:rgb(100%,100%,100%);fill-opacity:1;" d="M 7.632812 10.710938 L 7.625 10.714844 L 7.605469 10.898438 L 7.792969 10.914062 L 8.304688 10.308594 Z M 7.632812 10.710938 "/>
<path style=" stroke:none;fill-rule:nonzero;fill:rgb(100%,100%,100%);fill-opacity:1;" d="M 3.308594 8.75 L 3.300781 8.75 L 3.203125 8.890625 L 3.351562 8.996094 L 3.984375 8.742188 Z M 3.308594 8.75 "/>
<path style=" stroke:none;fill-rule:nonzero;fill:rgb(100%,100%,100%);fill-opacity:1;" d="M 2.027344 7.640625 L 1.914062 7.757812 L 2.042969 7.886719 L 2.707031 7.734375 L 2.03125 7.632812 Z M 2.027344 7.640625 "/>
<path style=" stroke:none;fill-rule:nonzero;fill:rgb(100%,100%,100%);fill-opacity:1;" d="M 4.621094 9.660156 L 4.613281 9.664062 L 4.523438 9.824219 L 4.695312 9.914062 L 5.394531 9.554688 Z M 4.621094 9.660156 "/>
<path style=" stroke:none;fill-rule:nonzero;fill:rgb(87.843137%,22.745098%,24.313725%);fill-opacity:1;" d="M 15.132812 5.476562 L 15.011719 5.585938 L 15.035156 5.601562 C 15.140625 5.675781 15.199219 5.789062 15.199219 5.914062 C 15.199219 6.132812 15.011719 6.308594 14.78125 6.308594 L 14.65625 6.292969 L 14.644531 6.304688 C 14.636719 6.328125 14.628906 6.347656 14.628906 6.367188 C 14.628906 6.453125 14.730469 6.527344 14.902344 6.644531 C 14.902344 6.644531 15.175781 6.84375 15.21875 6.878906 C 15.046875 6.957031 14.8125 7.082031 14.640625 7.273438 C 14.527344 7.398438 14.429688 7.53125 14.34375 7.652344 C 14.207031 7.839844 14.101562 7.992188 14.003906 7.992188 C 13.910156 7.992188 13.800781 7.84375 13.667969 7.652344 C 13.582031 7.53125 13.484375 7.398438 13.371094 7.273438 C 13.199219 7.082031 12.964844 6.957031 12.792969 6.878906 C 12.835938 6.84375 13.105469 6.644531 13.105469 6.644531 C 13.277344 6.527344 13.378906 6.453125 13.378906 6.367188 C 13.378906 6.347656 13.375 6.328125 13.363281 6.304688 L 13.359375 6.292969 L 13.226562 6.308594 C 13 6.308594 12.808594 6.132812 12.808594 5.914062 C 12.808594 5.789062 12.871094 5.675781 12.976562 5.601562 L 12.996094 5.585938 L 12.859375 5.460938 L 12.847656 5.480469 C 12.601562 5.875 12.464844 6.089844 12.4375 6.652344 L 12.4375 6.675781 L 12.632812 6.675781 C 12.617188 6.734375 12.609375 6.792969 12.609375 6.863281 C 12.609375 7.109375 12.703125 7.402344 12.828125 7.59375 L 12.832031 7.605469 L 12.84375 7.605469 C 12.945312 7.59375 13.027344 7.609375 13.078125 7.652344 C 13.125 7.6875 13.140625 7.738281 13.152344 7.785156 C 13.105469 7.742188 13.054688 7.710938 13.003906 7.710938 C 12.941406 7.707031 12.878906 7.738281 12.820312 7.792969 C 12.789062 7.769531 12.566406 7.601562 12.492188 7.496094 L 12.476562 7.472656 L 12.460938 7.496094 C 12.238281 7.800781 12.128906 8.195312 12.109375 8.738281 C 12.09375 9.277344 12.28125 9.832031 12.46875 10.085938 L 12.476562 10.097656 L 12.492188 10.089844 C 12.636719 10.023438 13.007812 9.890625 13.335938 10.117188 C 13.570312 10.277344 13.625 10.535156 13.652344 10.675781 L 13.664062 10.730469 L 14 10.707031 L 14 8.417969 C 13.839844 8.359375 13.792969 8.292969 13.75 8.179688 C 13.839844 8.246094 13.921875 8.28125 14.003906 8.277344 C 14.21875 8.273438 14.410156 8.054688 14.578125 7.863281 C 14.695312 7.730469 14.808594 7.605469 14.894531 7.589844 C 14.996094 7.570312 15.050781 7.632812 15.074219 7.695312 L 15.082031 7.726562 L 15.105469 7.703125 C 15.285156 7.5 15.402344 7.144531 15.402344 6.863281 C 15.402344 6.792969 15.390625 6.730469 15.375 6.675781 L 15.574219 6.675781 L 15.574219 6.65625 C 15.546875 6.09375 15.410156 5.875 15.160156 5.480469 L 15.148438 5.460938 Z M 15.132812 5.476562 "/>
<path style=" stroke:none;fill-rule:nonzero;fill:rgb(87.843137%,22.745098%,24.313725%);fill-opacity:1;" d="M 15.695312 8.207031 L 15.519531 8.527344 C 15.519531 8.527344 15.671875 8.902344 15.679688 8.921875 C 15.667969 8.9375 15.445312 9.230469 15.445312 9.230469 C 15.445312 9.230469 15.539062 9.542969 15.546875 9.5625 C 15.535156 9.578125 15.34375 9.8125 15.332031 9.828125 C 15.171875 9.808594 14.878906 9.8125 14.640625 10.007812 C 14.449219 10.160156 14.339844 10.394531 14.3125 10.703125 L 14.308594 10.722656 L 14.351562 10.722656 L 14.394531 10.730469 L 14.398438 10.714844 C 14.433594 10.496094 14.546875 10.296875 14.644531 10.195312 C 14.851562 9.984375 15.222656 9.972656 15.496094 10.054688 L 15.515625 10.058594 L 15.519531 10.042969 C 15.816406 9.402344 15.886719 8.769531 15.730469 8.210938 L 15.71875 8.164062 Z M 15.695312 8.207031 "/>
<path style=" stroke:none;fill-rule:nonzero;fill:rgb(87.843137%,22.745098%,24.313725%);fill-opacity:1;" d="M 13.859375 4.980469 C 13.558594 4.996094 13.242188 5.0625 12.976562 5.164062 L 12.953125 5.175781 L 12.96875 5.195312 C 13.015625 5.257812 13.121094 5.3125 13.21875 5.359375 C 13.207031 5.402344 13.199219 5.449219 13.199219 5.492188 C 13.199219 5.703125 13.339844 5.886719 13.503906 5.964844 L 13.519531 5.972656 L 13.53125 5.957031 C 13.632812 5.808594 13.792969 5.734375 14 5.734375 C 14.210938 5.734375 14.367188 5.808594 14.46875 5.957031 L 14.480469 5.972656 L 14.496094 5.964844 C 14.660156 5.886719 14.800781 5.703125 14.800781 5.492188 C 14.800781 5.449219 14.792969 5.402344 14.78125 5.359375 C 14.878906 5.3125 14.984375 5.257812 15.03125 5.195312 L 15.046875 5.175781 L 15.023438 5.164062 C 14.746094 5.058594 14.457031 4.996094 14.160156 4.980469 L 14.148438 4.980469 C 14.148438 4.980469 14.027344 5.175781 14 5.226562 C 13.972656 5.175781 13.871094 4.980469 13.871094 4.980469 Z M 13.859375 4.980469 "/>
<path style=" stroke:none;fill-rule:nonzero;fill:rgb(0%,16.862745%,36.078431%);fill-opacity:1;" d="M 12.472656 7.792969 L 12.628906 7.984375 C 12.492188 8.234375 12.402344 8.5 12.382812 8.785156 C 12.363281 9.070312 12.402344 9.484375 12.484375 9.722656 L 12.457031 9.777344 C 12.28125 9.226562 12.246094 8.988281 12.253906 8.730469 C 12.265625 8.472656 12.320312 8.066406 12.472656 7.792969 "/>
<path style=" stroke:none;fill-rule:nonzero;fill:rgb(87.843137%,22.745098%,24.313725%);fill-opacity:1;" d="M 11.960938 8.003906 C 11.878906 7.457031 11.445312 7.222656 11.316406 7.167969 C 11.441406 7.101562 11.773438 7.199219 11.902344 7.246094 L 11.941406 7.261719 L 11.925781 7.222656 C 11.804688 6.890625 11.5 6.714844 11.484375 6.707031 C 11.050781 6.445312 10.183594 6.242188 10.171875 6.242188 C 10.171875 6.242188 9.78125 6.175781 9.453125 6.117188 C 9.050781 6.085938 8.648438 6.046875 8.289062 6.003906 C 8.351562 6.585938 9.050781 7.089844 9.332031 7.269531 C 8.976562 7.15625 8.011719 6.78125 7.789062 5.9375 C 7.746094 5.929688 7.707031 5.925781 7.667969 5.917969 C 7.484375 5.890625 7.3125 5.859375 7.144531 5.828125 C 7.667969 7.5625 9.617188 8.246094 10.203125 8.417969 C 9.53125 8.375 7.085938 8.074219 6.316406 5.980469 C 6.285156 5.894531 6.257812 5.753906 6.246094 5.648438 C 6.011719 5.597656 5.800781 5.542969 5.601562 5.492188 C 5.621094 6.171875 6.207031 6.804688 6.441406 7.03125 C 6.109375 6.851562 5.199219 6.273438 5.195312 5.375 C 4.261719 5.085938 3.828125 4.796875 3.636719 4.570312 L 3.621094 4.554688 C 3.4375 4.335938 3.285156 4.160156 3.179688 3.9375 C 3.066406 4.148438 3.023438 4.328125 3.023438 4.484375 C 3.023438 4.84375 3.253906 5.046875 3.386719 5.148438 C 2.796875 5.183594 2.328125 4.886719 2.320312 4.882812 L 2.257812 4.839844 L 2.292969 4.90625 C 2.296875 4.914062 2.757812 5.757812 3.492188 6.058594 C 2.960938 6.222656 2.582031 6.078125 2.175781 5.878906 L 2.136719 5.859375 L 2.152344 5.902344 C 2.246094 6.179688 2.609375 6.835938 3.945312 6.992188 C 3.589844 7.375 2.742188 7.082031 2.730469 7.078125 L 2.683594 7.058594 L 2.710938 7.105469 C 3.160156 7.890625 4.265625 8.078125 4.929688 8.015625 C 4.726562 8.398438 3.761719 8.339844 3.753906 8.335938 L 3.679688 8.332031 L 3.738281 8.371094 C 4.429688 8.832031 5.472656 8.832031 6.222656 8.628906 C 6.042969 8.933594 5.765625 9.082031 5.328125 9.09375 L 5.277344 9.09375 L 5.316406 9.125 C 5.578125 9.351562 6.71875 9.375 7.523438 9.171875 C 7.40625 9.410156 7.085938 9.582031 6.691406 9.613281 L 6.621094 9.617188 L 6.683594 9.648438 C 7.164062 9.902344 7.898438 9.84375 8.8125 9.484375 C 8.78125 9.734375 8.324219 9.960938 8.316406 9.964844 L 8.324219 10 C 10.742188 9.988281 11.757812 8.824219 11.765625 8.8125 C 11.902344 8.628906 11.976562 8.480469 11.976562 8.238281 C 11.976562 8.167969 11.972656 8.089844 11.960938 8.003906 "/>
<path style=" stroke:none;fill-rule:nonzero;fill:rgb(87.843137%,22.745098%,24.313725%);fill-opacity:1;" d="M 25.824219 5.878906 C 25.417969 6.078125 25.039062 6.222656 24.503906 6.058594 C 25.242188 5.757812 25.703125 4.914062 25.707031 4.90625 L 25.742188 4.839844 L 25.679688 4.882812 C 25.675781 4.882812 25.199219 5.1875 24.609375 5.144531 C 24.855469 4.949219 24.980469 4.722656 24.980469 4.460938 C 24.980469 4.296875 24.925781 4.117188 24.824219 3.925781 C 24.722656 4.152344 24.566406 4.332031 24.375 4.554688 L 24.363281 4.570312 C 24.171875 4.796875 23.738281 5.085938 22.804688 5.375 C 22.789062 6.261719 21.890625 6.84375 21.5625 7.027344 C 21.792969 6.800781 22.378906 6.164062 22.398438 5.492188 C 22.203125 5.542969 21.988281 5.597656 21.757812 5.648438 C 21.742188 5.753906 21.710938 5.898438 21.679688 5.980469 C 20.914062 8.078125 18.457031 8.375 17.792969 8.417969 C 18.371094 8.246094 20.335938 7.550781 20.863281 5.828125 C 20.695312 5.859375 20.515625 5.886719 20.332031 5.917969 C 20.292969 5.925781 20.257812 5.929688 20.21875 5.933594 C 19.988281 6.769531 19.019531 7.152344 18.667969 7.265625 C 18.941406 7.085938 19.632812 6.578125 19.714844 6 C 19.355469 6.042969 18.949219 6.082031 18.546875 6.117188 C 18.21875 6.171875 17.828125 6.242188 17.828125 6.242188 C 17.816406 6.242188 16.949219 6.441406 16.511719 6.707031 C 16.5 6.714844 16.195312 6.890625 16.074219 7.222656 L 16.058594 7.261719 L 16.097656 7.246094 C 16.226562 7.199219 16.558594 7.101562 16.683594 7.167969 C 16.554688 7.222656 16.121094 7.457031 16.042969 8.003906 C 16.027344 8.089844 16.023438 8.167969 16.023438 8.238281 C 16.023438 8.480469 16.097656 8.628906 16.230469 8.808594 C 16.242188 8.824219 17.257812 9.988281 19.671875 10 L 19.683594 9.964844 C 19.675781 9.960938 19.21875 9.734375 19.1875 9.484375 C 20.101562 9.839844 20.835938 9.898438 21.316406 9.648438 L 21.378906 9.617188 L 21.308594 9.613281 C 20.910156 9.582031 20.59375 9.410156 20.476562 9.171875 C 21.28125 9.371094 22.421875 9.351562 22.683594 9.125 L 22.722656 9.09375 L 22.671875 9.089844 C 22.234375 9.082031 21.957031 8.933594 21.777344 8.628906 C 22.527344 8.832031 23.570312 8.828125 24.257812 8.371094 L 24.320312 8.332031 L 24.246094 8.335938 C 24.238281 8.335938 23.273438 8.398438 23.070312 8.015625 C 23.730469 8.078125 24.839844 7.890625 25.289062 7.105469 L 25.316406 7.058594 L 25.265625 7.078125 C 25.257812 7.078125 24.410156 7.371094 24.058594 6.992188 C 25.390625 6.835938 25.753906 6.179688 25.847656 5.902344 L 25.863281 5.859375 Z M 25.824219 5.878906 "/>
<path style=" stroke:none;fill-rule:nonzero;fill:rgb(74.509804%,75.294118%,76.078431%);fill-opacity:1;" d="M 14.238281 6.320312 C 14.238281 6.253906 14.242188 6.121094 14.199219 6.089844 C 14.265625 6.125 14.3125 6.167969 14.351562 6.253906 C 14.316406 6.28125 14.25 6.296875 14.238281 6.320312 "/>
<path style=" stroke:none;fill-rule:nonzero;fill:rgb(0%,16.862745%,36.078431%);fill-opacity:1;" d="M 13.773438 6.34375 C 13.773438 6.273438 13.769531 6.121094 13.820312 6.089844 C 13.742188 6.128906 13.695312 6.175781 13.648438 6.273438 C 13.6875 6.300781 13.761719 6.320312 13.773438 6.34375 "/>
<path style=" stroke:none;fill-rule:nonzero;fill:rgb(100%,100%,100%);fill-opacity:1;" d="M 21.964844 10.421875 C 21.972656 10.429688 22.058594 10.59375 22.058594 10.59375 L 22.074219 10.621094 L 21.859375 10.640625 C 21.84375 10.640625 21.003906 10.035156 21.003906 10.035156 Z M 21.964844 10.421875 "/>
<path style=" stroke:none;fill-rule:nonzero;fill:rgb(100%,100%,100%);fill-opacity:1;" d="M 20.367188 10.710938 L 20.375 10.714844 L 20.394531 10.898438 L 20.203125 10.914062 L 19.695312 10.308594 Z M 20.367188 10.710938 "/>
<path style=" stroke:none;fill-rule:nonzero;fill:rgb(100%,100%,100%);fill-opacity:1;" d="M 24.691406 8.75 L 24.699219 8.75 L 24.796875 8.890625 L 24.648438 8.996094 L 24.015625 8.742188 Z M 24.691406 8.75 "/>
<path style=" stroke:none;fill-rule:nonzero;fill:rgb(100%,100%,100%);fill-opacity:1;" d="M 25.96875 7.632812 L 25.289062 7.734375 L 25.957031 7.886719 L 26.085938 7.757812 L 25.972656 7.640625 Z M 25.96875 7.632812 "/>
<path style=" stroke:none;fill-rule:nonzero;fill:rgb(100%,100%,100%);fill-opacity:1;" d="M 23.378906 9.660156 L 23.386719 9.664062 L 23.476562 9.824219 L 23.304688 9.914062 L 22.605469 9.554688 Z M 23.378906 9.660156 "/>
</g>
</svg>
