<?xml version="1.0" encoding="UTF-8"?>
<svg xmlns="http://www.w3.org/2000/svg" xmlns:xlink="http://www.w3.org/1999/xlink" width="25pt" height="25pt" viewBox="0 0 25 25" version="1.1">
<g id="surface1">
<path style=" stroke:none;fill-rule:nonzero;fill:rgb(100%,100%,100%);fill-opacity:1;" d="M 12.5 23.859375 C 9.464844 23.859375 6.613281 22.675781 4.464844 20.53125 C 2.320312 18.386719 1.136719 15.53125 1.136719 12.5 C 1.136719 9.464844 2.320312 6.613281 4.464844 4.464844 C 6.613281 2.320312 9.464844 1.136719 12.5 1.136719 C 15.535156 1.136719 18.386719 2.320312 20.53125 4.464844 C 22.675781 6.613281 23.859375 9.464844 23.859375 12.5 C 23.859375 15.53125 22.675781 18.386719 20.53125 20.53125 C 18.386719 22.675781 15.53125 23.859375 12.5 23.859375 Z M 12.5 23.859375 "/>
<path style=" stroke:none;fill-rule:nonzero;fill:rgb(100%,76.862745%,13.333333%);fill-opacity:1;" d="M 12.5 2.277344 C 18.144531 2.277344 22.722656 6.851562 22.722656 12.5 C 22.722656 18.144531 18.144531 22.71875 12.5 22.71875 C 6.851562 22.71875 2.277344 18.144531 2.277344 12.5 C 2.277344 6.851562 6.851562 2.277344 12.5 2.277344 M 12.5 0 C 10.8125 0 9.175781 0.332031 7.632812 0.984375 C 6.144531 1.613281 4.808594 2.511719 3.660156 3.660156 C 2.511719 4.808594 1.613281 6.144531 0.984375 7.632812 C 0.332031 9.175781 0 10.8125 0 12.5 C 0 14.183594 0.332031 15.820312 0.984375 17.363281 C 1.613281 18.851562 2.511719 20.191406 3.660156 21.335938 C 4.808594 22.484375 6.144531 23.386719 7.632812 24.015625 C 9.175781 24.667969 10.8125 24.996094 12.5 24.996094 C 14.183594 24.996094 15.820312 24.667969 17.363281 24.015625 C 18.851562 23.382812 20.191406 22.484375 21.335938 21.335938 C 22.484375 20.191406 23.386719 18.851562 24.015625 17.363281 C 24.667969 15.820312 24.996094 14.183594 24.996094 12.5 C 24.996094 10.8125 24.667969 9.175781 24.015625 7.632812 C 23.382812 6.144531 22.484375 4.808594 21.335938 3.660156 C 20.191406 2.511719 18.851562 1.613281 17.363281 0.984375 C 15.824219 0.332031 14.183594 0 12.5 0 Z M 12.5 0 "/>
<path style=" stroke:none;fill-rule:nonzero;fill:rgb(100%,76.862745%,13.333333%);fill-opacity:1;" d="M 13.453125 8.0625 L 11.542969 8.0625 L 11.542969 1.265625 L 13.453125 1.265625 Z M 13.453125 8.0625 "/>
<path style=" stroke:none;fill-rule:nonzero;fill:rgb(13.72549%,12.156863%,12.54902%);fill-opacity:1;" d="M 13.738281 0.980469 L 13.738281 8.347656 L 11.257812 8.347656 L 11.257812 0.980469 L 13.738281 0.980469 M 13.167969 1.550781 L 11.824219 1.550781 L 11.824219 7.777344 L 13.167969 7.777344 Z M 13.167969 1.550781 "/>
<path style=" stroke:none;fill-rule:nonzero;fill:rgb(100%,76.862745%,13.333333%);fill-opacity:1;" d="M 13.453125 23.75 L 11.542969 23.75 L 11.542969 16.96875 L 13.453125 16.96875 Z M 13.453125 23.75 "/>
<path style=" stroke:none;fill-rule:nonzero;fill:rgb(13.72549%,12.156863%,12.54902%);fill-opacity:1;" d="M 13.738281 16.683594 L 13.738281 24.035156 L 11.257812 24.035156 L 11.257812 16.683594 L 13.738281 16.683594 M 13.167969 17.253906 L 11.824219 17.253906 L 11.824219 23.464844 L 13.167969 23.464844 Z M 13.167969 17.253906 "/>
<path style=" stroke:none;fill-rule:nonzero;fill:rgb(100%,76.862745%,13.333333%);fill-opacity:1;" d="M 19.769531 21.132812 L 15.09375 16.457031 L 15.5625 15.988281 L 15.5625 14.222656 L 21.121094 19.78125 Z M 5.222656 21.132812 L 3.871094 19.78125 L 9.703125 13.949219 L 10.113281 13.542969 L 10.113281 16.242188 Z M 23.738281 13.464844 L 14.9375 13.464844 L 14.664062 13.1875 L 14.582031 13.105469 L 10.113281 13.105469 L 10.113281 13.464844 L 1.253906 13.464844 L 1.253906 11.550781 L 10.117188 11.550781 L 10.117188 11.925781 L 14.585938 11.925781 L 14.671875 11.84375 L 14.960938 11.550781 L 23.738281 11.550781 Z M 10.117188 11.480469 L 3.871094 5.234375 L 5.222656 3.882812 L 10.117188 8.777344 Z M 15.566406 10.789062 L 15.566406 9.042969 L 15.089844 8.566406 L 19.769531 3.882812 L 21.121094 5.234375 Z M 15.566406 10.789062 "/>
<path style=" stroke:none;fill-rule:nonzero;fill:rgb(13.72549%,12.156863%,12.54902%);fill-opacity:1;" d="M 19.769531 3.480469 L 21.523438 5.234375 L 15.488281 11.269531 L 24.023438 11.269531 L 24.023438 13.746094 L 15.488281 13.746094 L 21.523438 19.78125 L 19.769531 21.535156 L 14.691406 16.457031 L 15.277344 15.871094 L 15.277344 14.203125 L 14.464844 13.390625 L 10.398438 13.390625 L 10.398438 16.359375 L 5.222656 21.535156 L 3.46875 19.78125 L 9.503906 13.746094 L 0.96875 13.746094 L 0.96875 11.269531 L 9.503906 11.269531 L 3.46875 5.234375 L 5.222656 3.480469 L 10.402344 8.660156 L 10.402344 11.640625 L 14.46875 11.640625 L 15.285156 10.828125 L 15.28125 9.160156 L 14.6875 8.566406 L 19.769531 3.480469 M 19.769531 4.285156 L 15.492188 8.566406 L 15.851562 8.925781 L 15.851562 10.101562 L 20.71875 5.234375 Z M 5.222656 4.285156 L 4.273438 5.234375 L 9.832031 10.792969 L 9.832031 8.894531 Z M 23.453125 11.835938 L 15.078125 11.835938 L 14.871094 12.042969 L 14.707031 12.210938 L 9.832031 12.210938 L 9.832031 11.835938 L 1.539062 11.835938 L 1.539062 13.179688 L 9.828125 13.179688 L 9.828125 12.820312 L 14.699219 12.820312 L 15.058594 13.179688 L 23.453125 13.179688 Z M 9.828125 14.230469 L 4.273438 19.78125 L 5.222656 20.730469 L 9.828125 16.125 Z M 15.847656 14.910156 L 15.847656 16.105469 L 15.496094 16.457031 L 19.769531 20.730469 L 20.71875 19.78125 Z M 15.847656 14.910156 "/>
<path style=" stroke:none;fill-rule:nonzero;fill:rgb(13.72549%,12.156863%,12.54902%);fill-opacity:1;" d="M 15.640625 18.960938 L 7.230469 18.960938 L 7.230469 17.003906 L 7.382812 16.859375 L 8.125 16.148438 L 8.125 8.882812 L 7.382812 8.171875 L 7.230469 8.027344 L 7.230469 6.070312 L 15.640625 6.070312 L 15.785156 6.210938 L 17.617188 8 L 17.761719 8.140625 L 17.761719 11.644531 L 17.613281 11.789062 L 16.859375 12.515625 L 17.613281 13.242188 L 17.761719 13.386719 L 17.761719 16.886719 L 17.617188 17.03125 L 15.785156 18.820312 Z M 10.882812 16.195312 L 14.261719 16.195312 L 14.789062 15.667969 L 14.789062 14.40625 L 14.261719 13.878906 L 10.882812 13.878906 Z M 10.890625 11.152344 L 14.265625 11.152344 L 14.796875 10.625 L 14.792969 9.363281 L 14.265625 8.835938 L 10.890625 8.835938 Z M 10.890625 11.152344 "/>
<path style=" stroke:none;fill-rule:nonzero;fill:rgb(13.72549%,12.156863%,12.54902%);fill-opacity:1;" d="M 15.441406 6.558594 L 17.273438 8.347656 L 17.273438 11.4375 L 16.15625 12.511719 L 17.273438 13.59375 L 17.273438 16.683594 L 15.441406 18.472656 L 7.71875 18.472656 L 7.71875 17.210938 L 8.613281 16.359375 L 8.613281 8.671875 L 7.71875 7.820312 L 7.71875 6.558594 L 15.441406 6.558594 M 10.402344 11.640625 L 14.46875 11.640625 L 15.285156 10.828125 L 15.28125 9.160156 L 14.46875 8.347656 L 10.402344 8.347656 L 10.402344 11.640625 M 10.398438 16.683594 L 14.464844 16.683594 L 15.277344 15.871094 L 15.277344 14.203125 L 14.464844 13.390625 L 10.398438 13.390625 L 10.398438 16.683594 M 15.839844 5.582031 L 6.746094 5.582031 L 6.746094 8.238281 L 7.046875 8.523438 L 7.640625 9.089844 L 7.640625 15.941406 L 7.046875 16.503906 L 6.746094 16.792969 L 6.746094 19.445312 L 15.839844 19.445312 L 16.125 19.167969 L 17.957031 17.382812 L 18.25 17.09375 L 18.25 13.175781 L 17.953125 12.890625 L 17.5625 12.515625 L 17.949219 12.140625 L 18.25 11.855469 L 18.25 7.9375 L 17.957031 7.648438 L 16.125 5.859375 Z M 11.378906 10.664062 L 11.378906 9.324219 L 14.066406 9.324219 L 14.304688 9.566406 L 14.308594 10.425781 L 14.066406 10.664062 Z M 11.371094 15.707031 L 11.371094 14.367188 L 14.058594 14.367188 L 14.300781 14.605469 L 14.300781 15.464844 L 14.058594 15.707031 Z M 11.371094 15.707031 "/>
<path style=" stroke:none;fill-rule:nonzero;fill:rgb(13.72549%,12.156863%,12.54902%);fill-opacity:1;" d="M 15.535156 18.695312 L 7.496094 18.695312 L 7.496094 17.117188 L 7.566406 17.050781 L 8.390625 16.261719 L 8.390625 8.769531 L 7.566406 7.980469 L 7.496094 7.914062 L 7.496094 6.335938 L 15.535156 6.335938 L 15.597656 6.398438 L 17.429688 8.1875 L 17.5 8.253906 L 17.5 11.53125 L 17.429688 11.597656 L 16.476562 12.515625 L 17.429688 13.429688 L 17.5 13.496094 L 17.5 16.777344 L 17.429688 16.84375 L 15.597656 18.632812 Z M 10.621094 16.460938 L 14.371094 16.460938 L 15.054688 15.777344 L 15.050781 14.296875 L 14.371094 13.613281 L 10.621094 13.613281 Z M 10.625 11.417969 L 14.378906 11.417969 L 15.058594 10.734375 L 15.058594 9.253906 L 14.375 8.574219 L 10.625 8.570312 Z M 10.625 11.417969 "/>
<path style=" stroke:none;fill-rule:nonzero;fill:rgb(100%,76.862745%,13.333333%);fill-opacity:1;" d="M 15.441406 6.558594 L 17.273438 8.347656 L 17.273438 11.4375 L 16.15625 12.511719 L 17.273438 13.59375 L 17.273438 16.683594 L 15.441406 18.472656 L 7.71875 18.472656 L 7.71875 17.210938 L 8.613281 16.359375 L 8.613281 8.671875 L 7.71875 7.820312 L 7.71875 6.558594 L 15.441406 6.558594 M 10.402344 11.640625 L 14.46875 11.640625 L 15.285156 10.828125 L 15.28125 9.160156 L 14.46875 8.347656 L 10.402344 8.347656 L 10.402344 11.640625 M 10.398438 16.683594 L 14.464844 16.683594 L 15.277344 15.871094 L 15.277344 14.203125 L 14.464844 13.390625 L 10.398438 13.390625 L 10.398438 16.683594 M 15.625 6.109375 L 7.273438 6.109375 L 7.273438 8.011719 L 7.410156 8.144531 L 8.167969 8.863281 L 8.167969 16.167969 L 7.410156 16.886719 L 7.273438 17.019531 L 7.273438 18.917969 L 15.625 18.917969 L 15.753906 18.792969 L 17.585938 17.003906 L 17.722656 16.871094 L 17.722656 13.402344 L 17.585938 13.269531 L 16.800781 12.515625 L 17.585938 11.761719 L 17.722656 11.628906 L 17.722656 8.160156 L 17.585938 8.027344 L 15.753906 6.238281 Z M 10.847656 11.195312 L 10.847656 8.796875 L 14.285156 8.796875 L 14.835938 9.347656 L 14.835938 10.644531 L 14.285156 11.195312 Z M 10.84375 16.234375 L 10.84375 13.835938 L 14.277344 13.835938 L 14.828125 14.386719 L 14.832031 15.683594 L 14.277344 16.234375 Z M 10.84375 16.234375 "/>
<path style=" stroke:none;fill-rule:nonzero;fill:rgb(13.72549%,12.156863%,12.54902%);fill-opacity:1;" d="M 12.5 2.277344 C 18.144531 2.277344 22.722656 6.851562 22.722656 12.5 C 22.722656 18.144531 18.144531 22.71875 12.5 22.71875 C 6.851562 22.71875 2.277344 18.144531 2.277344 12.5 C 2.277344 6.851562 6.851562 2.277344 12.5 2.277344 M 12.5 0.488281 C 10.878906 0.488281 9.304688 0.804688 7.824219 1.433594 C 6.390625 2.039062 5.109375 2.902344 4.003906 4.007812 C 2.902344 5.109375 2.039062 6.394531 1.433594 7.824219 C 0.804688 9.304688 0.488281 10.878906 0.488281 12.5 C 0.488281 14.121094 0.804688 15.691406 1.433594 17.175781 C 2.039062 18.605469 2.902344 19.890625 4.003906 20.992188 C 5.109375 22.09375 6.394531 22.960938 7.824219 23.566406 C 9.304688 24.191406 10.878906 24.507812 12.5 24.507812 C 14.121094 24.507812 15.691406 24.191406 17.175781 23.566406 C 18.605469 22.960938 19.890625 22.09375 20.992188 20.992188 C 22.09375 19.890625 22.960938 18.605469 23.566406 17.175781 C 24.191406 15.691406 24.507812 14.121094 24.507812 12.5 C 24.507812 10.878906 24.191406 9.304688 23.566406 7.824219 C 22.960938 6.394531 22.09375 5.109375 20.992188 4.003906 C 19.890625 2.902344 18.605469 2.039062 17.175781 1.433594 C 15.691406 0.804688 14.121094 0.488281 12.5 0.488281 Z M 12.5 0.488281 "/>
</g>
</svg>
