<?xml version="1.0" encoding="UTF-8"?>
<svg xmlns="http://www.w3.org/2000/svg" xmlns:xlink="http://www.w3.org/1999/xlink" width="28pt" height="20pt" viewBox="0 0 28 20" version="1.1">
<g id="surface1">
<path style=" stroke:none;fill-rule:nonzero;fill:rgb(100%,100%,100%);fill-opacity:1;" d="M 14 19.089844 C 11.574219 19.089844 9.289062 18.144531 7.574219 16.425781 C 5.855469 14.710938 4.910156 12.425781 4.910156 10 C 4.910156 7.574219 5.855469 5.289062 7.574219 3.574219 C 9.289062 1.855469 11.574219 0.910156 14 0.910156 C 16.429688 0.910156 18.710938 1.855469 20.425781 3.574219 C 22.144531 5.289062 23.089844 7.574219 23.089844 10 C 23.089844 12.429688 22.144531 14.710938 20.425781 16.425781 C 18.710938 18.144531 16.429688 19.089844 14 19.089844 Z M 14 19.089844 "/>
<path style=" stroke:none;fill-rule:nonzero;fill:rgb(100%,76.862745%,13.333333%);fill-opacity:1;" d="M 14 1.820312 C 18.515625 1.820312 22.179688 5.484375 22.179688 10 C 22.179688 14.515625 18.515625 18.179688 14 18.179688 C 9.484375 18.179688 5.820312 14.515625 5.820312 10 C 5.820312 5.484375 9.484375 1.820312 14 1.820312 M 14 0 C 12.652344 0 11.339844 0.265625 10.105469 0.785156 C 8.914062 1.289062 7.847656 2.011719 6.929688 2.929688 C 6.011719 3.847656 5.289062 4.917969 4.785156 6.105469 C 4.265625 7.339844 4 8.652344 4 10 C 4 11.347656 4.265625 12.660156 4.785156 13.894531 C 5.289062 15.085938 6.011719 16.152344 6.929688 17.070312 C 7.847656 17.988281 8.917969 18.710938 10.105469 19.214844 C 11.339844 19.734375 12.652344 20 14 20 C 15.347656 20 16.660156 19.734375 17.894531 19.214844 C 19.085938 18.710938 20.152344 17.988281 21.070312 17.070312 C 21.988281 16.152344 22.710938 15.082031 23.214844 13.894531 C 23.734375 12.660156 24 11.347656 24 10 C 24 8.652344 23.734375 7.339844 23.214844 6.105469 C 22.710938 4.914062 21.988281 3.847656 21.070312 2.929688 C 20.152344 2.011719 19.082031 1.289062 17.894531 0.785156 C 16.660156 0.265625 15.347656 0 14 0 Z M 14 0 "/>
<path style=" stroke:none;fill-rule:nonzero;fill:rgb(100%,76.862745%,13.333333%);fill-opacity:1;" d="M 14.761719 6.453125 L 13.234375 6.453125 L 13.234375 1.011719 L 14.761719 1.011719 Z M 14.761719 6.453125 "/>
<path style=" stroke:none;fill-rule:nonzero;fill:rgb(13.72549%,12.156863%,12.54902%);fill-opacity:1;" d="M 14.992188 0.785156 L 14.992188 6.679688 L 13.007812 6.679688 L 13.007812 0.785156 L 14.992188 0.785156 M 14.535156 1.238281 L 13.460938 1.238281 L 13.460938 6.222656 L 14.535156 6.222656 Z M 14.535156 1.238281 "/>
<path style=" stroke:none;fill-rule:nonzero;fill:rgb(100%,76.862745%,13.333333%);fill-opacity:1;" d="M 14.761719 19.003906 L 13.234375 19.003906 L 13.234375 13.574219 L 14.761719 13.574219 Z M 14.761719 19.003906 "/>
<path style=" stroke:none;fill-rule:nonzero;fill:rgb(13.72549%,12.156863%,12.54902%);fill-opacity:1;" d="M 14.992188 13.347656 L 14.992188 19.230469 L 13.007812 19.230469 L 13.007812 13.347656 L 14.992188 13.347656 M 14.535156 13.804688 L 13.460938 13.804688 L 13.460938 18.773438 L 14.535156 18.773438 Z M 14.535156 13.804688 "/>
<path style=" stroke:none;fill-rule:nonzero;fill:rgb(100%,76.862745%,13.333333%);fill-opacity:1;" d="M 19.816406 16.90625 L 16.078125 13.164062 L 16.453125 12.789062 L 16.453125 12.695312 L 16.449219 11.378906 L 20.898438 15.828125 Z M 8.179688 16.90625 L 7.097656 15.828125 L 12.089844 10.835938 L 12.089844 12.996094 Z M 22.992188 10.773438 L 15.953125 10.773438 L 15.734375 10.550781 L 15.667969 10.484375 L 12.089844 10.484375 L 12.089844 10.773438 L 5.003906 10.773438 L 5.003906 9.242188 L 12.09375 9.242188 L 12.09375 9.542969 L 15.671875 9.542969 L 15.738281 9.476562 L 15.96875 9.242188 L 22.992188 9.242188 Z M 12.09375 9.183594 L 7.097656 4.1875 L 8.179688 3.105469 L 12.09375 7.023438 Z M 16.457031 8.628906 L 16.453125 7.328125 L 16.453125 7.234375 L 16.070312 6.851562 L 19.816406 3.105469 L 20.898438 4.1875 Z M 16.457031 8.628906 "/>
<path style=" stroke:none;fill-rule:nonzero;fill:rgb(13.72549%,12.156863%,12.54902%);fill-opacity:1;" d="M 19.816406 2.785156 L 21.222656 4.1875 L 16.394531 9.015625 L 23.222656 9.015625 L 23.222656 11 L 16.394531 11 L 21.222656 15.828125 L 19.816406 17.230469 L 15.753906 13.164062 L 16.222656 12.695312 L 16.222656 11.363281 L 15.574219 10.714844 L 12.316406 10.710938 L 12.316406 13.089844 L 8.179688 17.230469 L 6.777344 15.828125 L 11.601562 11 L 4.777344 11 L 4.777344 9.015625 L 11.605469 9.015625 L 6.777344 4.1875 L 8.179688 2.785156 L 12.324219 6.929688 L 12.324219 9.3125 L 15.578125 9.3125 L 16.226562 8.664062 L 16.226562 7.328125 L 15.75 6.851562 L 19.816406 2.785156 M 19.816406 3.429688 L 16.394531 6.851562 L 16.546875 7.007812 L 16.683594 7.140625 L 16.683594 8.082031 L 20.578125 4.1875 Z M 8.179688 3.429688 L 7.417969 4.1875 L 11.867188 8.632812 L 11.867188 7.117188 Z M 22.765625 9.46875 L 16.0625 9.46875 L 15.898438 9.636719 L 15.765625 9.769531 L 11.867188 9.769531 L 11.867188 9.46875 L 5.230469 9.46875 L 5.230469 10.542969 L 11.863281 10.542969 L 11.863281 10.257812 L 15.761719 10.257812 L 16.046875 10.542969 L 22.765625 10.542969 Z M 11.863281 11.382812 L 7.417969 15.828125 L 8.179688 16.585938 L 11.863281 12.902344 Z M 16.679688 11.929688 L 16.679688 12.886719 L 16.398438 13.167969 L 19.816406 16.585938 L 20.578125 15.828125 Z M 16.679688 11.929688 "/>
<path style=" stroke:none;fill-rule:nonzero;fill:rgb(13.72549%,12.156863%,12.54902%);fill-opacity:1;" d="M 16.515625 15.167969 L 9.785156 15.167969 L 9.785156 13.601562 L 9.90625 13.488281 L 10.5 12.921875 L 10.5 7.105469 L 9.90625 6.539062 L 9.785156 6.421875 L 9.785156 4.855469 L 16.515625 4.855469 L 16.628906 4.96875 L 18.09375 6.398438 L 18.210938 6.515625 L 18.210938 9.316406 L 18.09375 9.433594 L 17.488281 10.011719 L 18.09375 10.59375 L 18.210938 10.707031 L 18.210938 13.511719 L 18.09375 13.628906 L 16.628906 15.058594 Z M 12.707031 12.957031 L 15.410156 12.957031 L 15.832031 12.535156 L 15.832031 11.523438 L 15.410156 11.105469 L 12.707031 11.101562 Z M 12.710938 8.921875 L 15.414062 8.921875 L 15.835938 8.5 L 15.835938 7.492188 L 15.414062 7.070312 L 12.710938 7.070312 Z M 12.710938 8.921875 "/>
<path style=" stroke:none;fill-rule:nonzero;fill:rgb(13.72549%,12.156863%,12.54902%);fill-opacity:1;" d="M 16.355469 5.246094 L 17.820312 6.679688 L 17.820312 9.152344 L 16.925781 10.011719 L 17.820312 10.875 L 17.820312 13.347656 L 16.355469 14.777344 L 10.175781 14.777344 L 10.175781 13.769531 L 10.890625 13.089844 L 10.890625 6.9375 L 10.175781 6.257812 L 10.175781 5.246094 L 16.355469 5.246094 M 12.324219 9.3125 L 15.578125 9.3125 L 16.226562 8.664062 L 16.226562 7.328125 L 15.578125 6.679688 L 12.324219 6.679688 L 12.324219 9.3125 M 12.316406 13.347656 L 15.574219 13.347656 L 16.222656 12.695312 L 16.222656 11.363281 L 15.574219 10.714844 L 12.316406 10.710938 L 12.316406 13.347656 M 16.671875 4.464844 L 9.394531 4.464844 L 9.394531 6.589844 L 9.636719 6.820312 L 10.113281 7.273438 L 10.113281 12.753906 L 9.636719 13.207031 L 9.394531 13.4375 L 9.394531 15.558594 L 16.671875 15.558594 L 16.902344 15.335938 L 18.367188 13.90625 L 18.601562 13.675781 L 18.601562 10.542969 L 18.363281 10.3125 L 18.050781 10.011719 L 18.363281 9.714844 L 18.601562 9.484375 L 18.601562 6.351562 L 18.367188 6.121094 L 16.902344 4.6875 Z M 13.101562 8.535156 L 13.101562 7.460938 L 15.253906 7.460938 L 15.445312 7.652344 L 15.445312 8.339844 L 15.253906 8.535156 Z M 13.097656 12.566406 L 13.097656 11.492188 L 15.25 11.492188 L 15.441406 11.6875 L 15.441406 12.375 L 15.25 12.566406 Z M 13.097656 12.566406 "/>
<path style=" stroke:none;fill-rule:nonzero;fill:rgb(13.72549%,12.156863%,12.54902%);fill-opacity:1;" d="M 16.429688 14.957031 L 9.996094 14.957031 L 9.996094 13.695312 L 10.054688 13.640625 L 10.714844 13.011719 L 10.714844 7.015625 L 10.054688 6.386719 L 9.996094 6.332031 L 9.996094 5.066406 L 16.429688 5.066406 L 16.480469 5.117188 L 17.945312 6.550781 L 18 6.601562 L 18 9.226562 L 17.945312 9.28125 L 17.183594 10.011719 L 17.945312 10.746094 L 18 10.796875 L 18 13.421875 L 17.945312 13.476562 L 16.480469 14.90625 Z M 12.496094 13.167969 L 15.5 13.167969 L 16.042969 12.621094 L 16.042969 11.4375 L 15.5 10.890625 L 12.496094 10.890625 Z M 12.5 9.136719 L 15.503906 9.136719 L 16.046875 8.589844 L 16.046875 7.402344 L 15.503906 6.859375 L 12.5 6.859375 Z M 12.5 9.136719 "/>
<path style=" stroke:none;fill-rule:nonzero;fill:rgb(100%,76.862745%,13.333333%);fill-opacity:1;" d="M 16.355469 5.246094 L 17.820312 6.679688 L 17.820312 9.152344 L 16.925781 10.011719 L 17.820312 10.875 L 17.820312 13.347656 L 16.355469 14.777344 L 10.175781 14.777344 L 10.175781 13.769531 L 10.890625 13.089844 L 10.890625 6.9375 L 10.175781 6.257812 L 10.175781 5.246094 L 16.355469 5.246094 M 12.324219 9.3125 L 15.578125 9.3125 L 16.226562 8.664062 L 16.226562 7.328125 L 15.578125 6.679688 L 12.324219 6.679688 L 12.324219 9.3125 M 12.316406 13.347656 L 15.574219 13.347656 L 16.222656 12.695312 L 16.222656 11.363281 L 15.574219 10.714844 L 12.316406 10.710938 L 12.316406 13.347656 M 16.5 4.890625 L 9.820312 4.890625 L 9.820312 6.410156 L 9.929688 6.515625 L 10.535156 7.09375 L 10.535156 12.933594 L 9.929688 13.511719 L 9.820312 13.617188 L 9.820312 15.136719 L 16.5 15.136719 L 16.605469 15.035156 L 18.070312 13.605469 L 18.179688 13.5 L 18.179688 10.722656 L 18.070312 10.617188 L 17.441406 10.011719 L 18.070312 9.410156 L 18.179688 9.304688 L 18.179688 6.527344 L 18.070312 6.421875 L 16.605469 4.992188 Z M 12.679688 8.957031 L 12.679688 7.035156 L 15.429688 7.039062 L 15.867188 7.476562 L 15.871094 8.515625 L 15.429688 8.957031 Z M 12.675781 12.988281 L 12.675781 11.070312 L 15.425781 11.070312 L 15.863281 11.511719 L 15.867188 12.546875 L 15.425781 12.988281 Z M 12.675781 12.988281 "/>
<path style=" stroke:none;fill-rule:nonzero;fill:rgb(13.72549%,12.156863%,12.54902%);fill-opacity:1;" d="M 14 1.820312 C 18.515625 1.820312 22.179688 5.484375 22.179688 10 C 22.179688 14.515625 18.515625 18.179688 14 18.179688 C 9.484375 18.179688 5.820312 14.515625 5.820312 10 C 5.820312 5.484375 9.484375 1.820312 14 1.820312 M 14 0.390625 C 12.703125 0.390625 11.445312 0.644531 10.257812 1.144531 C 9.113281 1.628906 8.085938 2.324219 7.203125 3.207031 C 6.324219 4.085938 5.628906 5.113281 5.144531 6.257812 C 4.644531 7.445312 4.390625 8.703125 4.390625 10 C 4.390625 11.296875 4.644531 12.554688 5.144531 13.742188 C 5.628906 14.886719 6.324219 15.914062 7.203125 16.796875 C 8.085938 17.675781 9.113281 18.371094 10.257812 18.855469 C 11.445312 19.355469 12.703125 19.609375 14 19.609375 C 15.296875 19.609375 16.554688 19.355469 17.742188 18.855469 C 18.886719 18.371094 19.914062 17.675781 20.796875 16.796875 C 21.675781 15.914062 22.371094 14.886719 22.855469 13.742188 C 23.355469 12.554688 23.609375 11.296875 23.609375 10 C 23.609375 8.703125 23.355469 7.445312 22.855469 6.257812 C 22.371094 5.113281 21.675781 4.085938 20.796875 3.207031 C 19.914062 2.324219 18.886719 1.628906 17.742188 1.144531 C 16.554688 0.644531 15.296875 0.390625 14 0.390625 Z M 14 0.390625 "/>
</g>
</svg>
