<?xml version="1.0" encoding="UTF-8"?>
<svg xmlns="http://www.w3.org/2000/svg" xmlns:xlink="http://www.w3.org/1999/xlink" width="35pt" height="25pt" viewBox="0 0 35 25" version="1.1">
<g id="surface1">
<path style=" stroke:none;fill-rule:nonzero;fill:rgb(100%,100%,100%);fill-opacity:1;" d="M 17.5 23.863281 C 14.464844 23.863281 11.613281 22.679688 9.464844 20.535156 C 7.320312 18.386719 6.140625 15.535156 6.140625 12.5 C 6.140625 9.464844 7.320312 6.613281 9.464844 4.464844 C 11.613281 2.320312 14.464844 1.140625 17.5 1.140625 C 20.535156 1.140625 23.386719 2.320312 25.535156 4.464844 C 27.679688 6.613281 28.863281 9.464844 28.863281 12.5 C 28.863281 15.535156 27.679688 18.386719 25.535156 20.535156 C 23.386719 22.679688 20.535156 23.863281 17.5 23.863281 Z M 17.5 23.863281 "/>
<path style=" stroke:none;fill-rule:nonzero;fill:rgb(100%,76.862745%,13.333333%);fill-opacity:1;" d="M 17.5 2.277344 C 23.144531 2.277344 27.722656 6.855469 27.722656 12.5 C 27.722656 18.144531 23.144531 22.722656 17.5 22.722656 C 11.855469 22.722656 7.277344 18.144531 7.277344 12.5 C 7.277344 6.855469 11.855469 2.277344 17.5 2.277344 M 17.5 0 C 15.8125 0 14.175781 0.332031 12.632812 0.984375 C 11.144531 1.613281 9.808594 2.515625 8.660156 3.660156 C 7.515625 4.808594 6.613281 6.144531 5.984375 7.632812 C 5.332031 9.175781 5 10.8125 5 12.5 C 5 14.1875 5.332031 15.824219 5.984375 17.367188 C 6.613281 18.855469 7.515625 20.191406 8.660156 21.339844 C 9.808594 22.484375 11.144531 23.386719 12.632812 24.015625 C 14.175781 24.667969 15.8125 25 17.5 25 C 19.1875 25 20.824219 24.667969 22.367188 24.015625 C 23.855469 23.386719 25.191406 22.484375 26.339844 21.339844 C 27.484375 20.191406 28.386719 18.855469 29.015625 17.367188 C 29.667969 15.824219 30 14.1875 30 12.5 C 30 10.8125 29.667969 9.175781 29.015625 7.632812 C 28.386719 6.144531 27.484375 4.808594 26.339844 3.660156 C 25.191406 2.515625 23.855469 1.613281 22.367188 0.984375 C 20.824219 0.332031 19.1875 0 17.5 0 Z M 17.5 0 "/>
<path style=" stroke:none;fill-rule:nonzero;fill:rgb(100%,76.862745%,13.333333%);fill-opacity:1;" d="M 18.453125 8.066406 L 16.542969 8.0625 L 16.542969 1.265625 L 18.453125 1.265625 Z M 18.453125 8.066406 "/>
<path style=" stroke:none;fill-rule:nonzero;fill:rgb(13.72549%,12.156863%,12.54902%);fill-opacity:1;" d="M 18.738281 0.980469 L 18.738281 8.347656 L 16.257812 8.347656 L 16.257812 0.980469 L 18.738281 0.980469 M 18.167969 1.550781 L 16.828125 1.550781 L 16.828125 7.78125 L 18.167969 7.78125 Z M 18.167969 1.550781 "/>
<path style=" stroke:none;fill-rule:nonzero;fill:rgb(100%,76.862745%,13.333333%);fill-opacity:1;" d="M 18.453125 23.753906 L 16.542969 23.753906 L 16.542969 16.96875 L 18.453125 16.96875 Z M 18.453125 23.753906 "/>
<path style=" stroke:none;fill-rule:nonzero;fill:rgb(13.72549%,12.156863%,12.54902%);fill-opacity:1;" d="M 18.738281 16.683594 L 18.738281 24.039062 L 16.257812 24.039062 L 16.257812 16.683594 L 18.738281 16.683594 M 18.167969 17.253906 L 16.828125 17.253906 L 16.828125 23.46875 L 18.167969 23.46875 Z M 18.167969 17.253906 "/>
<path style=" stroke:none;fill-rule:nonzero;fill:rgb(100%,76.862745%,13.333333%);fill-opacity:1;" d="M 24.773438 21.136719 L 20.09375 16.457031 L 20.5625 15.988281 L 20.5625 14.222656 L 26.125 19.785156 Z M 10.222656 21.136719 L 8.871094 19.785156 L 15.113281 13.542969 L 15.113281 16.246094 Z M 28.742188 13.464844 L 19.941406 13.464844 L 19.582031 13.105469 L 15.113281 13.105469 L 15.113281 13.464844 L 6.253906 13.464844 L 6.253906 11.554688 L 15.117188 11.554688 L 15.117188 11.925781 L 19.589844 11.925781 L 19.960938 11.554688 L 28.742188 11.554688 Z M 15.117188 11.480469 L 14.707031 11.066406 L 8.871094 5.234375 L 10.222656 3.882812 L 15.117188 8.777344 Z M 20.570312 10.789062 L 20.566406 9.160156 L 20.566406 9.042969 L 20.089844 8.566406 L 24.773438 3.882812 L 26.125 5.234375 Z M 20.570312 10.789062 "/>
<path style=" stroke:none;fill-rule:nonzero;fill:rgb(13.72549%,12.156863%,12.54902%);fill-opacity:1;" d="M 24.773438 3.480469 L 26.527344 5.234375 L 20.492188 11.269531 L 29.027344 11.269531 L 29.027344 13.75 L 20.492188 13.75 L 26.527344 19.785156 L 24.773438 21.539062 L 19.691406 16.457031 L 20.28125 15.871094 L 20.277344 14.203125 L 19.464844 13.390625 L 15.398438 13.390625 L 15.398438 16.363281 L 10.222656 21.539062 L 8.46875 19.785156 L 14.503906 13.75 L 5.96875 13.75 L 5.96875 11.269531 L 14.503906 11.269531 L 8.46875 5.234375 L 10.222656 3.480469 L 15.402344 8.660156 L 15.402344 11.640625 L 19.472656 11.640625 L 20.285156 10.828125 L 20.28125 9.160156 L 19.6875 8.566406 L 24.773438 3.480469 M 24.773438 4.285156 L 20.492188 8.566406 L 20.6875 8.757812 L 20.851562 8.925781 L 20.851562 10.101562 L 25.722656 5.234375 Z M 10.222656 4.285156 L 9.273438 5.234375 L 14.832031 10.792969 L 14.832031 8.894531 Z M 28.457031 11.839844 L 20.082031 11.839844 L 19.875 12.046875 L 19.707031 12.210938 L 14.832031 12.210938 L 14.832031 11.839844 L 6.539062 11.839844 L 6.539062 13.179688 L 14.828125 13.179688 L 14.828125 12.820312 L 15.398438 12.820312 L 19.464844 12.824219 L 19.703125 12.824219 L 20.058594 13.179688 L 28.457031 13.179688 Z M 14.828125 14.230469 L 9.273438 19.785156 L 10.222656 20.730469 L 14.828125 16.128906 Z M 20.847656 14.910156 L 20.847656 16.105469 L 20.683594 16.273438 L 20.496094 16.457031 L 24.773438 20.734375 L 25.722656 19.785156 Z M 20.847656 14.910156 "/>
<path style=" stroke:none;fill-rule:nonzero;fill:rgb(13.72549%,12.156863%,12.54902%);fill-opacity:1;" d="M 20.644531 18.960938 L 12.234375 18.960938 L 12.234375 17.003906 L 12.382812 16.859375 L 13.128906 16.152344 L 13.128906 8.882812 L 12.382812 8.171875 L 12.234375 8.027344 L 12.234375 6.070312 L 20.644531 6.070312 L 20.785156 6.210938 L 22.617188 8 L 22.765625 8.144531 L 22.765625 11.648438 L 22.613281 11.789062 L 21.859375 12.515625 L 22.613281 13.242188 L 22.765625 13.386719 L 22.765625 16.890625 L 22.617188 17.035156 L 20.785156 18.824219 Z M 15.886719 16.195312 L 19.265625 16.195312 L 19.792969 15.667969 L 19.789062 14.40625 L 19.265625 13.878906 L 15.886719 13.878906 Z M 15.890625 11.15625 L 19.269531 11.15625 L 19.796875 10.625 L 19.796875 9.363281 L 19.269531 8.835938 L 15.890625 8.835938 Z M 15.890625 11.15625 "/>
<path style=" stroke:none;fill-rule:nonzero;fill:rgb(13.72549%,12.156863%,12.54902%);fill-opacity:1;" d="M 20.445312 6.558594 L 22.277344 8.347656 L 22.277344 11.4375 L 21.15625 12.515625 L 22.277344 13.59375 L 22.277344 16.683594 L 20.445312 18.472656 L 12.722656 18.472656 L 12.722656 17.210938 L 13.617188 16.359375 L 13.617188 8.671875 L 12.722656 7.820312 L 12.722656 6.558594 L 20.445312 6.558594 M 15.402344 11.644531 L 19.472656 11.644531 L 20.285156 10.828125 L 20.28125 9.160156 L 19.472656 8.351562 L 15.402344 8.347656 L 15.402344 11.644531 M 15.398438 16.683594 L 19.464844 16.683594 L 20.28125 15.871094 L 20.277344 14.203125 L 19.464844 13.390625 L 15.398438 13.390625 L 15.398438 16.683594 M 20.84375 5.582031 L 11.746094 5.582031 L 11.746094 8.238281 L 12.046875 8.527344 L 12.640625 9.089844 L 12.640625 15.941406 L 12.046875 16.507812 L 11.746094 16.792969 L 11.746094 19.449219 L 20.84375 19.449219 L 21.125 19.171875 L 22.957031 17.382812 L 23.253906 17.097656 L 23.253906 13.179688 L 22.953125 12.890625 L 22.5625 12.515625 L 22.953125 12.144531 L 23.253906 11.855469 L 23.253906 7.9375 L 22.957031 7.648438 L 21.125 5.859375 Z M 16.378906 10.667969 L 16.378906 9.324219 L 19.066406 9.324219 L 19.308594 9.566406 L 19.308594 10.425781 L 19.066406 10.667969 Z M 16.375 15.707031 L 16.375 14.367188 L 19.0625 14.367188 L 19.300781 14.609375 L 19.304688 15.46875 L 19.0625 15.707031 Z M 16.375 15.707031 "/>
<path style=" stroke:none;fill-rule:nonzero;fill:rgb(13.72549%,12.156863%,12.54902%);fill-opacity:1;" d="M 20.535156 18.695312 L 12.496094 18.695312 L 12.496094 17.117188 L 12.566406 17.050781 L 13.390625 16.265625 L 13.390625 8.769531 L 12.566406 7.980469 L 12.496094 7.914062 L 12.496094 6.335938 L 20.535156 6.335938 L 20.601562 6.398438 L 22.433594 8.1875 L 22.5 8.253906 L 22.5 11.535156 L 22.429688 11.601562 L 21.480469 12.515625 L 22.429688 13.433594 L 22.5 13.5 L 22.5 16.777344 L 22.433594 16.84375 L 20.601562 18.632812 Z M 15.621094 16.460938 L 19.375 16.460938 L 20.054688 15.777344 L 20.054688 14.296875 L 19.375 13.617188 L 15.621094 13.613281 Z M 15.625 11.417969 L 19.378906 11.417969 L 20.0625 10.738281 L 20.058594 9.253906 L 19.378906 8.574219 L 15.625 8.570312 Z M 15.625 11.417969 "/>
<path style=" stroke:none;fill-rule:nonzero;fill:rgb(100%,76.862745%,13.333333%);fill-opacity:1;" d="M 20.445312 6.558594 L 22.277344 8.347656 L 22.277344 11.4375 L 21.15625 12.515625 L 22.277344 13.59375 L 22.277344 16.683594 L 20.445312 18.472656 L 12.722656 18.472656 L 12.722656 17.210938 L 13.617188 16.359375 L 13.617188 8.671875 L 12.722656 7.820312 L 12.722656 6.558594 L 20.445312 6.558594 M 15.402344 11.644531 L 19.472656 11.644531 L 20.285156 10.828125 L 20.28125 9.160156 L 19.472656 8.351562 L 15.402344 8.347656 L 15.402344 11.644531 M 15.398438 16.683594 L 19.464844 16.683594 L 20.28125 15.871094 L 20.277344 14.203125 L 19.464844 13.390625 L 15.398438 13.390625 L 15.398438 16.683594 M 20.625 6.109375 L 12.273438 6.109375 L 12.273438 8.011719 L 12.410156 8.144531 L 13.167969 8.867188 L 13.167969 16.167969 L 12.414062 16.890625 L 12.273438 17.019531 L 12.273438 18.921875 L 20.625 18.921875 L 20.757812 18.792969 L 22.589844 17.003906 L 22.722656 16.875 L 22.722656 13.402344 L 22.585938 13.273438 L 21.800781 12.515625 L 22.585938 11.761719 L 22.722656 11.628906 L 22.722656 8.160156 L 22.589844 8.027344 L 20.757812 6.238281 Z M 15.851562 11.195312 L 15.851562 8.796875 L 19.285156 8.796875 L 19.835938 9.347656 L 19.835938 10.644531 L 19.285156 11.195312 Z M 15.84375 16.238281 L 15.84375 13.839844 L 19.28125 13.839844 L 19.832031 14.390625 L 19.832031 15.6875 L 19.28125 16.238281 Z M 15.84375 16.238281 "/>
<path style=" stroke:none;fill-rule:nonzero;fill:rgb(13.72549%,12.156863%,12.54902%);fill-opacity:1;" d="M 17.5 2.277344 C 23.144531 2.277344 27.722656 6.855469 27.722656 12.5 C 27.722656 18.144531 23.144531 22.722656 17.5 22.722656 C 11.855469 22.722656 7.277344 18.144531 7.277344 12.5 C 7.277344 6.855469 11.855469 2.277344 17.5 2.277344 M 17.5 0.488281 C 15.878906 0.488281 14.304688 0.804688 12.824219 1.433594 C 11.394531 2.039062 10.109375 2.902344 9.007812 4.007812 C 7.902344 5.109375 7.039062 6.394531 6.433594 7.824219 C 5.804688 9.304688 5.488281 10.878906 5.488281 12.5 C 5.488281 14.121094 5.804688 15.695312 6.433594 17.175781 C 7.039062 18.605469 7.902344 19.890625 9.007812 20.992188 C 10.109375 22.097656 11.394531 22.960938 12.824219 23.566406 C 14.304688 24.195312 15.878906 24.511719 17.5 24.511719 C 19.121094 24.511719 20.695312 24.195312 22.175781 23.566406 C 23.605469 22.960938 24.890625 22.097656 25.992188 20.992188 C 27.097656 19.890625 27.960938 18.605469 28.566406 17.175781 C 29.195312 15.695312 29.511719 14.121094 29.511719 12.5 C 29.511719 10.878906 29.195312 9.304688 28.566406 7.824219 C 27.960938 6.394531 27.097656 5.109375 25.992188 4.007812 C 24.890625 2.902344 23.605469 2.039062 22.175781 1.433594 C 20.695312 0.804688 19.121094 0.488281 17.5 0.488281 Z M 17.5 0.488281 "/>
</g>
</svg>
