<?xml version="1.0" encoding="UTF-8"?>
<svg xmlns="http://www.w3.org/2000/svg" xmlns:xlink="http://www.w3.org/1999/xlink" width="28pt" height="20pt" viewBox="0 0 28 20" version="1.1">
<g id="surface1">
<path style=" stroke:none;fill-rule:nonzero;fill:rgb(100%,100%,100%);fill-opacity:1;" d="M 21.765625 6.0625 C 21.75 5.964844 21.679688 6.039062 21.679688 6.039062 C 21.679688 6.039062 18.746094 9.296875 14 12.878906 C 9.253906 9.296875 6.320312 6.039062 6.320312 6.039062 C 6.320312 6.039062 6.25 5.964844 6.234375 6.0625 C 6.234375 6.0625 6.128906 6.601562 6.550781 7.039062 C 6.550781 7.039062 9.460938 10.269531 13.453125 13.285156 C 13.078125 13.5625 12.695312 13.835938 12.300781 14.113281 L 12.429688 14.785156 C 12.964844 14.429688 13.488281 14.0625 14 13.691406 C 14.507812 14.0625 15.035156 14.429688 15.570312 14.785156 L 15.699219 14.113281 C 15.304688 13.835938 14.921875 13.5625 14.546875 13.285156 C 18.539062 10.269531 21.449219 7.039062 21.449219 7.039062 C 21.871094 6.601562 21.765625 6.0625 21.765625 6.0625 "/>
<path style=" stroke:none;fill-rule:nonzero;fill:rgb(100%,100%,100%);fill-opacity:1;" d="M 7.925781 6.5625 C 8.523438 7.039062 8.703125 7.34375 8.84375 7.484375 C 8.960938 7.597656 9.074219 7.609375 9.203125 7.738281 C 9.390625 7.925781 9.449219 8.152344 9.628906 8.152344 C 9.8125 8.152344 10.019531 7.75 10.417969 7.75 C 10.683594 7.75 10.25 7.929688 10.25 8.101562 C 10.25 8.253906 10.578125 8.046875 10.652344 8.046875 C 10.769531 8.046875 11.234375 8.253906 11.507812 7.886719 C 11.382812 7.765625 11.019531 7.8125 11.019531 7.332031 C 11.019531 7.199219 11.132812 6.933594 11.421875 6.933594 C 11.65625 6.933594 11.832031 7.140625 11.757812 7.375 C 11.734375 7.449219 11.859375 7.535156 11.859375 7.667969 C 11.859375 8.074219 11.582031 8.117188 11.582031 8.296875 C 11.582031 8.652344 11.832031 8.625 11.972656 8.617188 C 12.300781 8.617188 12.800781 8.886719 12.972656 8.886719 C 13.183594 8.886719 13.347656 8.796875 13.347656 8.695312 C 13.347656 8.589844 13.101562 8.132812 12.96875 8.132812 C 12.890625 8.132812 12.808594 8.277344 12.691406 8.277344 C 12.558594 8.277344 12.484375 8.195312 12.53125 8.117188 C 12.558594 8.070312 12.480469 7.996094 12.480469 7.875 C 12.480469 7.726562 12.6875 7.40625 13.082031 7.40625 C 13.410156 7.40625 13.753906 7.691406 13.753906 8.152344 C 13.753906 8.53125 13.648438 8.753906 13.648438 8.828125 C 13.648438 8.96875 13.917969 9.132812 14.089844 9.132812 C 14.261719 9.132812 14.902344 8.894531 15.109375 8.894531 C 15.316406 8.894531 15.554688 8.910156 15.554688 8.71875 C 15.554688 8.527344 15.421875 8.164062 15.285156 8.164062 C 15.144531 8.164062 14.828125 8.613281 14.421875 8.613281 C 14.375 8.613281 14.320312 8.601562 14.320312 8.535156 C 14.320312 8.464844 14.429688 8.308594 14.484375 8.277344 C 14.542969 8.242188 14.839844 8.113281 14.839844 8.007812 C 14.839844 7.945312 14.566406 7.871094 14.566406 7.75 C 14.566406 7.625 14.839844 7.722656 14.839844 7.605469 C 14.839844 7.5 14.589844 7.398438 14.589844 7.113281 C 14.589844 6.90625 14.734375 6.691406 15 6.691406 C 15.515625 6.691406 15.839844 7.078125 16.324219 7.078125 C 16.738281 7.078125 17.1875 6.859375 17.386719 6.859375 C 17.988281 6.859375 17.972656 7.539062 18.570312 7.539062 C 18.847656 7.539062 18.949219 7.433594 18.949219 7.109375 C 18.949219 6.929688 18.863281 6.949219 18.757812 6.949219 C 18.652344 6.949219 18.636719 6.867188 18.484375 6.867188 C 18.257812 6.867188 18.007812 6.75 18.007812 6.636719 C 18.007812 6.519531 18.851562 6.25 18.976562 6.25 C 19.410156 6.25 19.449219 7.109375 20.144531 7.109375 C 20.320312 7.109375 20.449219 7.074219 20.449219 6.765625 C 20.449219 6.460938 20.402344 6.488281 20.34375 6.496094 C 20.289062 6.503906 20.007812 6.582031 20.007812 6.496094 C 20.007812 6.40625 20.140625 6.316406 19.980469 6.292969 C 19.246094 6.167969 19.460938 5.480469 19.171875 5.480469 C 19.035156 5.480469 18.558594 5.738281 18.558594 5.441406 C 18.558594 5.277344 18.671875 5.054688 18.671875 4.699219 C 18.671875 4.308594 18.449219 4.078125 18.664062 4.078125 C 19.132812 4.078125 19.953125 4.316406 19.953125 4.433594 C 19.953125 4.515625 19.492188 4.46875 19.492188 4.671875 C 19.492188 4.796875 19.757812 4.941406 20.160156 4.941406 C 20.566406 4.941406 20.726562 4.820312 20.527344 4.820312 C 20.324219 4.820312 20.015625 4.8125 20.015625 4.671875 C 20.015625 4.535156 20.375 4.597656 20.375 4.449219 C 20.375 4.234375 20.007812 4.25 19.339844 4.058594 C 16.015625 3.113281 14.859375 1.878906 12.773438 1.878906 C 10.203125 1.878906 10.613281 3.632812 9.054688 4.027344 C 7.820312 4.339844 7.703125 4.96875 7.703125 5.722656 C 7.703125 6.144531 7.847656 6.496094 7.925781 6.5625 M 9.105469 7.210938 C 8.96875 7.210938 9.003906 7.117188 9.003906 7.117188 C 9.183594 6.875 9.089844 6.300781 9.3125 6.300781 C 9.4375 6.300781 9.257812 6.429688 9.257812 6.578125 C 9.257812 6.742188 9.503906 6.695312 9.503906 6.890625 C 9.503906 7.015625 9.304688 7.210938 9.105469 7.210938 M 9.636719 8.027344 C 9.636719 8.027344 9.535156 7.953125 9.535156 7.902344 C 9.535156 7.777344 9.742188 7.742188 9.742188 7.78125 C 9.742188 7.882812 9.636719 8.027344 9.636719 8.027344 M 9.804688 5.804688 C 9.804688 5.890625 9.628906 6.09375 9.519531 6.09375 C 9.4375 6.09375 9.304688 5.769531 9.304688 5.742188 C 9.304688 5.714844 9.34375 5.660156 9.464844 5.660156 C 9.585938 5.660156 9.804688 5.722656 9.804688 5.804688 M 8.804688 4.515625 C 9.296875 4.515625 9.550781 4.804688 9.550781 5.125 C 9.550781 5.441406 9.285156 5.671875 8.988281 5.671875 C 8.800781 5.671875 8.742188 5.515625 8.742188 5.433594 C 8.742188 5.324219 8.90625 5.226562 8.90625 5.097656 C 8.90625 4.9375 8.710938 4.824219 8.511719 4.824219 C 8.179688 4.824219 7.953125 5.113281 7.953125 4.972656 C 7.953125 4.804688 8.292969 4.515625 8.804688 4.515625 "/>
<path style=" stroke:none;fill-rule:nonzero;fill:rgb(100%,100%,100%);fill-opacity:1;" d="M 14.769531 9.816406 C 13.925781 10.128906 13.582031 10.261719 13.628906 10.390625 C 13.65625 10.460938 13.828125 10.667969 14.976562 10.242188 C 16.121094 9.820312 18.371094 8.789062 18.292969 8.578125 C 18.253906 8.476562 16.664062 9.117188 14.769531 9.816406 "/>
<path style=" stroke:none;fill-rule:nonzero;fill:rgb(100%,100%,100%);fill-opacity:1;" d="M 16.613281 2.398438 C 18.007812 2.78125 18.8125 3.136719 18.847656 3.007812 C 18.882812 2.878906 17.773438 2.480469 16.75 2.199219 C 15.726562 1.917969 14.664062 1.777344 14.699219 1.808594 C 14.808594 1.910156 15.21875 2.015625 16.613281 2.398438 "/>
<path style=" stroke:none;fill-rule:nonzero;fill:rgb(69.019608%,71.764706%,73.333333%);fill-opacity:1;" d="M 14 0 C 8.484375 0 4 4.484375 4 10 C 4 15.515625 8.484375 20 14 20 C 19.515625 20 24 15.515625 24 10 C 24 4.484375 19.515625 0 14 0 M 14 19.875 C 8.554688 19.875 4.125 15.445312 4.125 10 C 4.125 4.554688 8.554688 0.125 14 0.125 C 19.445312 0.125 23.875 4.554688 23.875 10 C 23.875 15.445312 19.445312 19.875 14 19.875 "/>
<path style=" stroke:none;fill-rule:nonzero;fill:rgb(69.019608%,71.764706%,73.333333%);fill-opacity:1;" d="M 14 1.078125 C 9.082031 1.078125 5.078125 5.082031 5.078125 10 C 5.078125 14.921875 9.082031 18.921875 14 18.921875 C 18.917969 18.921875 22.921875 14.921875 22.921875 10 C 22.921875 5.082031 18.917969 1.078125 14 1.078125 M 16.429688 14.640625 C 16.503906 14.652344 16.5625 14.710938 16.59375 14.796875 C 16.59375 14.796875 16.738281 14.746094 16.816406 14.949219 C 16.816406 14.949219 16.964844 14.902344 17.035156 15.101562 C 17.035156 15.101562 17.179688 15.050781 17.253906 15.253906 C 17.253906 15.253906 17.390625 15.199219 17.472656 15.402344 C 17.472656 15.402344 17.617188 15.355469 17.691406 15.554688 C 17.691406 15.554688 17.832031 15.507812 17.90625 15.707031 C 17.90625 15.707031 18.054688 15.65625 18.128906 15.855469 C 18.128906 15.855469 18.269531 15.808594 18.34375 16.007812 C 18.363281 16.003906 18.378906 15.996094 18.398438 16 C 18.542969 16.027344 18.621094 16.214844 18.582031 16.441406 C 18.582031 16.453125 18.578125 16.464844 18.574219 16.476562 C 18.8125 16.230469 19.015625 16.039062 19.28125 16.203125 C 19.507812 16.347656 19.550781 16.660156 19.386719 16.921875 C 19.175781 17.257812 18.90625 17.082031 18.773438 16.980469 C 18.503906 17.183594 17.808594 18.011719 16.53125 17.203125 C 14.855469 16.148438 16.007812 14.308594 15.789062 14.03125 C 15.730469 13.957031 15.585938 13.855469 15.660156 13.738281 C 15.722656 13.640625 15.910156 13.609375 16.078125 13.714844 C 16.402344 13.921875 16.371094 14.265625 16.289062 14.671875 C 16.332031 14.644531 16.382812 14.632812 16.429688 14.640625 M 15.800781 14.070312 L 15.640625 14.945312 C 15.121094 14.601562 14.492188 14.167969 14 13.808594 C 13.503906 14.167969 12.878906 14.601562 12.359375 14.945312 L 12.199219 14.070312 C 12.554688 13.820312 12.953125 13.535156 13.296875 13.285156 C 9.386719 10.3125 6.515625 7.140625 6.480469 7.105469 C 6.03125 6.636719 6.136719 6.070312 6.140625 6.050781 C 6.15625 5.925781 6.285156 5.867188 6.390625 5.976562 C 6.425781 6.011719 9.347656 9.238281 14 12.757812 C 18.652344 9.238281 21.574219 6.011719 21.609375 5.976562 C 21.714844 5.867188 21.84375 5.925781 21.859375 6.050781 C 21.863281 6.070312 21.96875 6.636719 21.519531 7.105469 C 21.488281 7.140625 18.613281 10.3125 14.703125 13.285156 C 15.046875 13.535156 15.445312 13.820312 15.800781 14.070312 M 8.613281 16.921875 C 8.449219 16.660156 8.492188 16.347656 8.71875 16.203125 C 8.984375 16.039062 9.1875 16.230469 9.421875 16.476562 C 9.421875 16.464844 9.417969 16.453125 9.417969 16.441406 C 9.378906 16.214844 9.457031 16.027344 9.601562 16 C 9.621094 15.996094 9.636719 16.003906 9.65625 16.007812 C 9.730469 15.808594 9.871094 15.855469 9.871094 15.855469 C 9.945312 15.65625 10.09375 15.707031 10.09375 15.707031 C 10.167969 15.507812 10.308594 15.554688 10.308594 15.554688 C 10.378906 15.355469 10.527344 15.402344 10.527344 15.402344 C 10.609375 15.199219 10.746094 15.25 10.746094 15.25 C 10.820312 15.050781 10.964844 15.101562 10.964844 15.101562 C 11.039062 14.902344 11.183594 14.949219 11.183594 14.949219 C 11.261719 14.746094 11.40625 14.796875 11.40625 14.796875 C 11.4375 14.710938 11.496094 14.652344 11.570312 14.640625 C 11.617188 14.632812 11.667969 14.644531 11.710938 14.671875 C 11.628906 14.265625 11.597656 13.921875 11.921875 13.714844 C 12.09375 13.609375 12.277344 13.640625 12.339844 13.738281 C 12.414062 13.855469 12.269531 13.957031 12.210938 14.03125 C 11.992188 14.308594 13.144531 16.148438 11.46875 17.203125 C 10.1875 18.011719 9.496094 17.183594 9.226562 16.980469 C 9.09375 17.082031 8.824219 17.257812 8.613281 16.921875 M 14.933594 7.605469 C 14.933594 7.722656 14.847656 7.757812 14.6875 7.773438 C 14.773438 7.847656 14.933594 7.890625 14.933594 8.007812 C 14.933594 8.140625 14.769531 8.238281 14.535156 8.359375 C 14.503906 8.375 14.441406 8.46875 14.421875 8.515625 C 14.796875 8.515625 15.085938 8.070312 15.285156 8.070312 C 15.511719 8.070312 15.648438 8.519531 15.648438 8.71875 C 15.648438 8.941406 15.464844 8.988281 15.152344 8.988281 C 14.859375 8.988281 14.308594 9.226562 14.089844 9.226562 C 13.886719 9.226562 13.554688 9.039062 13.554688 8.828125 C 13.554688 8.742188 13.660156 8.507812 13.660156 8.152344 C 13.660156 7.75 13.359375 7.503906 13.082031 7.503906 C 12.734375 7.503906 12.578125 7.785156 12.578125 7.875 C 12.578125 7.992188 12.675781 8.058594 12.609375 8.160156 C 12.613281 8.167969 12.640625 8.183594 12.691406 8.183594 C 12.757812 8.183594 12.847656 8.039062 12.96875 8.039062 C 13.183594 8.039062 13.441406 8.566406 13.441406 8.695312 C 13.441406 8.859375 13.242188 8.980469 12.972656 8.980469 C 12.761719 8.980469 12.269531 8.710938 11.980469 8.710938 C 11.796875 8.726562 11.484375 8.71875 11.484375 8.296875 C 11.484375 8.0625 11.765625 8.039062 11.765625 7.667969 C 11.765625 7.566406 11.628906 7.476562 11.667969 7.34375 C 11.730469 7.140625 11.554688 7.03125 11.421875 7.03125 C 11.1875 7.03125 11.113281 7.25 11.113281 7.332031 C 11.113281 7.746094 11.386719 7.648438 11.574219 7.820312 C 11.605469 7.855469 11.613281 7.90625 11.582031 7.945312 C 11.429688 8.132812 11.226562 8.289062 10.65625 8.144531 C 10.402344 8.261719 10.15625 8.316406 10.15625 8.101562 C 10.15625 8.007812 10.222656 7.929688 10.289062 7.863281 C 9.996094 7.945312 9.84375 8.25 9.628906 8.25 C 9.386719 8.25 9.3125 7.984375 9.136719 7.804688 C 9.050781 7.71875 8.847656 7.628906 8.777344 7.550781 C 8.386719 7.070312 8.171875 6.898438 7.867188 6.636719 C 7.746094 6.539062 7.609375 6.125 7.609375 5.722656 C 7.609375 4.96875 7.71875 4.269531 9.03125 3.933594 C 10.515625 3.558594 10.179688 1.785156 12.773438 1.785156 C 14.90625 1.785156 16.253906 3.113281 19.367188 3.96875 C 20.0625 4.160156 20.46875 4.144531 20.46875 4.449219 C 20.46875 4.628906 20.25 4.636719 20.128906 4.679688 C 20.164062 4.699219 20.261719 4.722656 20.527344 4.722656 C 20.78125 4.722656 20.855469 5.039062 20.160156 5.039062 C 19.734375 5.039062 19.398438 4.878906 19.398438 4.671875 C 19.398438 4.480469 19.609375 4.429688 19.753906 4.402344 C 19.527344 4.304688 19.023438 4.175781 18.667969 4.171875 C 18.667969 4.171875 18.765625 4.453125 18.765625 4.699219 C 18.765625 5.070312 18.652344 5.296875 18.652344 5.441406 C 18.652344 5.578125 19.03125 5.386719 19.171875 5.386719 C 19.578125 5.386719 19.304688 6.089844 19.996094 6.199219 C 20.164062 6.230469 20.183594 6.328125 20.128906 6.4375 C 20.128906 6.4375 20.230469 6.425781 20.339844 6.402344 C 20.488281 6.378906 20.542969 6.46875 20.542969 6.765625 C 20.542969 7.152344 20.34375 7.207031 20.144531 7.207031 C 19.402344 7.207031 19.324219 6.34375 18.976562 6.34375 C 18.863281 6.34375 18.25 6.550781 18.117188 6.652344 C 18.15625 6.699219 18.308594 6.773438 18.484375 6.773438 C 18.640625 6.773438 18.707031 6.851562 18.757812 6.851562 C 18.894531 6.851562 19.042969 6.859375 19.042969 7.109375 C 19.042969 7.484375 18.90625 7.636719 18.570312 7.636719 C 17.917969 7.636719 17.925781 6.957031 17.386719 6.957031 C 17.214844 6.957031 16.75 7.171875 16.324219 7.171875 C 15.820312 7.171875 15.480469 6.789062 15 6.789062 C 14.792969 6.789062 14.6875 6.953125 14.6875 7.113281 C 14.6875 7.367188 14.933594 7.4375 14.933594 7.605469 M 13.511719 8.582031 C 13.441406 8.359375 13.222656 7.945312 12.96875 7.945312 C 12.835938 7.945312 12.722656 8.0625 12.722656 8.0625 C 12.714844 7.988281 12.671875 7.925781 12.671875 7.875 C 12.675781 7.824219 12.792969 7.597656 13.082031 7.597656 C 13.3125 7.597656 13.5625 7.808594 13.5625 8.152344 C 13.5625 8.335938 13.535156 8.476562 13.511719 8.582031 M 11.660156 7.78125 C 11.488281 7.554688 11.207031 7.703125 11.207031 7.332031 C 11.207031 7.28125 11.257812 7.125 11.421875 7.125 C 11.503906 7.125 11.585938 7.175781 11.585938 7.269531 C 11.585938 7.300781 11.566406 7.339844 11.566406 7.390625 C 11.566406 7.558594 11.71875 7.625 11.660156 7.78125 M 14 1.203125 C 17.339844 1.203125 20.253906 3.074219 21.742188 5.824219 C 21.671875 5.820312 21.601562 5.847656 21.539062 5.914062 C 21.527344 5.925781 21.214844 6.269531 20.636719 6.851562 C 20.636719 6.824219 20.640625 6.796875 20.640625 6.765625 C 20.640625 6.296875 20.480469 6.277344 20.246094 6.320312 C 20.246094 6.320312 20.253906 6.148438 20.011719 6.105469 C 19.390625 6.03125 19.675781 5.289062 19.171875 5.289062 C 19.054688 5.289062 18.902344 5.363281 18.753906 5.390625 C 18.785156 5.195312 18.859375 5.039062 18.859375 4.699219 C 18.859375 4.523438 18.824219 4.382812 18.792969 4.273438 C 19.007812 4.292969 19.261719 4.34375 19.460938 4.402344 C 19.371094 4.457031 19.304688 4.539062 19.304688 4.671875 C 19.304688 4.9375 19.664062 5.132812 20.160156 5.132812 C 21.039062 5.132812 20.890625 4.601562 20.484375 4.628906 C 20.527344 4.585938 20.5625 4.53125 20.5625 4.449219 C 20.5625 4.078125 20.105469 4.058594 19.390625 3.875 C 17.355469 3.292969 16.164062 2.625 15.066406 2.179688 C 15.421875 2.292969 15.929688 2.410156 16.5625 2.582031 C 18.144531 3.015625 18.917969 3.464844 19.027344 3.058594 C 19.125 2.714844 18.101562 2.375 16.800781 2.015625 C 14.648438 1.421875 14.554688 1.640625 14.523438 1.753906 C 14.492188 1.875 14.566406 1.96875 14.734375 2.050781 C 14.117188 1.828125 13.511719 1.691406 12.773438 1.691406 C 10.148438 1.691406 10.414062 3.488281 9.007812 3.84375 C 7.628906 4.191406 7.515625 4.960938 7.515625 5.722656 C 7.515625 6.128906 7.648438 6.582031 7.808594 6.707031 C 8.378906 7.164062 8.539062 7.445312 8.707031 7.617188 C 8.808594 7.726562 8.996094 7.796875 9.066406 7.871094 C 9.246094 8.039062 9.324219 8.34375 9.628906 8.34375 C 9.816406 8.34375 9.953125 8.179688 10.0625 8.097656 C 10.0625 8.207031 10.136719 8.5 10.664062 8.238281 C 10.664062 8.238281 11.09375 8.375 11.402344 8.214844 C 11.394531 8.238281 11.390625 8.265625 11.390625 8.296875 C 11.390625 8.796875 11.773438 8.824219 11.984375 8.804688 C 12.257812 8.804688 12.726562 9.078125 12.972656 9.078125 C 13.195312 9.078125 13.375 8.992188 13.46875 8.871094 C 13.503906 9.125 13.855469 9.324219 14.089844 9.324219 C 14.324219 9.324219 14.890625 9.082031 15.152344 9.082031 C 15.429688 9.082031 15.742188 9.050781 15.742188 8.71875 C 15.742188 8.511719 15.601562 7.972656 15.285156 7.972656 C 15.183594 7.972656 15.101562 8.03125 15.003906 8.109375 C 15.015625 8.074219 15.027344 8.042969 15.027344 8.007812 C 15.027344 7.910156 14.972656 7.851562 14.910156 7.808594 C 15 7.753906 15.03125 7.675781 15.03125 7.605469 C 15.03125 7.386719 14.78125 7.316406 14.78125 7.113281 C 14.78125 7.03125 14.828125 6.882812 15 6.882812 C 15.449219 6.882812 15.792969 7.269531 16.324219 7.269531 C 16.746094 7.269531 17.242188 7.050781 17.386719 7.050781 C 17.859375 7.050781 17.878906 7.730469 18.570312 7.730469 C 19.078125 7.730469 19.136719 7.375 19.136719 7.109375 C 19.136719 6.84375 18.972656 6.738281 18.757812 6.757812 C 18.589844 6.652344 18.457031 6.699219 18.316406 6.652344 C 18.53125 6.558594 18.886719 6.445312 18.980469 6.4375 C 19.214844 6.4375 19.390625 7.300781 20.144531 7.300781 C 20.160156 7.300781 20.171875 7.300781 20.1875 7.300781 C 18.902344 8.5625 16.757812 10.546875 14 12.640625 C 9.386719 9.140625 6.496094 5.949219 6.460938 5.914062 C 6.398438 5.847656 6.324219 5.820312 6.257812 5.824219 C 7.746094 3.074219 10.660156 1.203125 14 1.203125 M 14.613281 1.78125 C 14.609375 1.707031 15.1875 1.671875 16.777344 2.105469 C 17.9375 2.425781 19.003906 2.796875 18.9375 3.03125 C 18.863281 3.300781 18.074219 2.898438 16.589844 2.492188 C 15.222656 2.113281 14.617188 2.007812 14.613281 1.78125 M 5.203125 10 C 5.203125 8.667969 5.5 7.402344 6.035156 6.273438 C 6.039062 6.5 6.109375 6.855469 6.410156 7.167969 C 6.441406 7.203125 9.273438 10.328125 13.136719 13.28125 C 12.9375 13.429688 12.6875 13.609375 12.453125 13.777344 C 12.449219 13.746094 12.4375 13.71875 12.417969 13.6875 C 12.332031 13.550781 12.09375 13.496094 11.871094 13.636719 C 11.53125 13.851562 11.519531 14.171875 11.585938 14.542969 C 11.574219 14.542969 11.5625 14.542969 11.554688 14.546875 C 11.464844 14.5625 11.398438 14.617188 11.347656 14.699219 C 11.347656 14.699219 11.234375 14.6875 11.128906 14.851562 C 11.128906 14.851562 11.011719 14.839844 10.914062 15 C 10.914062 15 10.796875 14.988281 10.695312 15.152344 C 10.695312 15.152344 10.574219 15.144531 10.476562 15.304688 C 10.476562 15.304688 10.355469 15.292969 10.257812 15.457031 C 10.257812 15.457031 10.140625 15.445312 10.039062 15.605469 C 10.039062 15.605469 9.917969 15.59375 9.820312 15.757812 C 9.820312 15.757812 9.707031 15.746094 9.601562 15.910156 C 9.597656 15.910156 9.589844 15.90625 9.585938 15.90625 C 9.4375 15.933594 9.339844 16.066406 9.316406 16.25 C 9.117188 16.066406 8.921875 15.964844 8.667969 16.125 C 8.492188 16.238281 8.335938 16.507812 8.460938 16.828125 C 6.472656 15.214844 5.203125 12.753906 5.203125 10 M 14 18.796875 C 12.128906 18.796875 10.394531 18.207031 8.964844 17.210938 C 9.066406 17.195312 9.15625 17.144531 9.21875 17.101562 C 9.476562 17.308594 10.25 18.082031 11.519531 17.285156 C 12.554688 16.628906 12.554688 15.71875 12.4375 15.011719 C 12.925781 14.683594 13.566406 14.242188 14 13.925781 C 14.433594 14.242188 15.074219 14.683594 15.5625 15.011719 C 15.445312 15.714844 15.445312 16.628906 16.480469 17.285156 C 17.75 18.082031 18.523438 17.308594 18.777344 17.101562 C 18.84375 17.144531 18.933594 17.195312 19.035156 17.210938 C 17.605469 18.207031 15.871094 18.796875 14 18.796875 M 19.539062 16.828125 C 19.664062 16.507812 19.507812 16.238281 19.332031 16.125 C 19.078125 15.964844 18.882812 16.066406 18.683594 16.25 C 18.660156 16.066406 18.5625 15.933594 18.414062 15.90625 C 18.410156 15.90625 18.402344 15.910156 18.398438 15.910156 C 18.292969 15.746094 18.179688 15.757812 18.179688 15.757812 C 18.082031 15.59375 17.960938 15.605469 17.960938 15.605469 C 17.859375 15.445312 17.742188 15.457031 17.742188 15.457031 C 17.644531 15.292969 17.523438 15.304688 17.523438 15.304688 C 17.425781 15.144531 17.304688 15.152344 17.304688 15.152344 C 17.203125 14.988281 17.085938 15 17.085938 15 C 16.988281 14.839844 16.867188 14.851562 16.867188 14.851562 C 16.765625 14.6875 16.648438 14.699219 16.648438 14.699219 C 16.601562 14.617188 16.535156 14.5625 16.445312 14.546875 C 16.433594 14.542969 16.425781 14.542969 16.414062 14.542969 C 16.480469 14.171875 16.46875 13.851562 16.128906 13.636719 C 15.90625 13.496094 15.667969 13.550781 15.582031 13.6875 C 15.5625 13.71875 15.550781 13.746094 15.546875 13.777344 C 15.3125 13.609375 15.0625 13.429688 14.863281 13.28125 C 18.726562 10.328125 21.558594 7.203125 21.589844 7.167969 C 21.890625 6.855469 21.960938 6.5 21.964844 6.273438 C 22.5 7.402344 22.796875 8.667969 22.796875 10 C 22.796875 12.753906 21.523438 15.214844 19.539062 16.828125 "/>
<path style=" stroke:none;fill-rule:nonzero;fill:rgb(69.019608%,71.764706%,73.333333%);fill-opacity:1;" d="M 16.164062 15.347656 C 16.109375 15.851562 16.199219 16.378906 16.878906 16.808594 C 17.519531 17.214844 17.933594 17.054688 18.25 16.789062 C 18.183594 16.773438 18.128906 16.71875 18.097656 16.636719 C 18.097656 16.636719 17.953125 16.6875 17.875 16.484375 C 17.875 16.484375 17.730469 16.53125 17.65625 16.332031 C 17.65625 16.332031 17.511719 16.382812 17.441406 16.179688 C 17.441406 16.179688 17.300781 16.234375 17.21875 16.03125 C 17.21875 16.03125 17.074219 16.078125 17 15.878906 C 17 15.878906 16.859375 15.925781 16.78125 15.730469 C 16.78125 15.730469 16.636719 15.777344 16.566406 15.578125 C 16.566406 15.578125 16.421875 15.625 16.347656 15.425781 C 16.328125 15.429688 16.3125 15.4375 16.292969 15.433594 C 16.242188 15.425781 16.199219 15.394531 16.164062 15.347656 M 16.246094 15.519531 C 16.257812 15.523438 16.269531 15.523438 16.277344 15.527344 C 16.28125 15.527344 16.289062 15.523438 16.292969 15.523438 C 16.398438 15.6875 16.511719 15.675781 16.511719 15.675781 C 16.609375 15.835938 16.730469 15.828125 16.730469 15.828125 C 16.832031 15.988281 16.949219 15.976562 16.949219 15.976562 C 17.046875 16.140625 17.167969 16.128906 17.167969 16.128906 C 17.265625 16.289062 17.386719 16.28125 17.386719 16.28125 C 17.488281 16.445312 17.605469 16.433594 17.605469 16.433594 C 17.703125 16.59375 17.824219 16.582031 17.824219 16.582031 C 17.925781 16.746094 18.039062 16.734375 18.039062 16.734375 C 18.054688 16.757812 18.070312 16.777344 18.089844 16.796875 C 17.804688 16.988281 17.445312 17.054688 16.929688 16.726562 C 16.363281 16.371094 16.230469 15.945312 16.246094 15.519531 "/>
<path style=" stroke:none;fill-rule:nonzero;fill:rgb(69.019608%,71.764706%,73.333333%);fill-opacity:1;" d="M 11.121094 16.808594 C 11.800781 16.378906 11.890625 15.851562 11.835938 15.347656 C 11.800781 15.394531 11.757812 15.421875 11.707031 15.433594 C 11.6875 15.4375 11.671875 15.429688 11.652344 15.425781 C 11.578125 15.628906 11.433594 15.578125 11.433594 15.578125 C 11.363281 15.777344 11.214844 15.726562 11.214844 15.726562 C 11.136719 15.925781 10.996094 15.878906 10.996094 15.878906 C 10.925781 16.078125 10.777344 16.03125 10.777344 16.03125 C 10.699219 16.234375 10.558594 16.183594 10.558594 16.183594 C 10.488281 16.382812 10.34375 16.332031 10.34375 16.332031 C 10.269531 16.53125 10.125 16.484375 10.125 16.484375 C 10.046875 16.6875 9.902344 16.636719 9.902344 16.636719 C 9.871094 16.71875 9.816406 16.773438 9.75 16.792969 C 10.066406 17.054688 10.480469 17.214844 11.121094 16.808594 M 9.957031 16.734375 C 9.957031 16.734375 10.074219 16.746094 10.175781 16.582031 C 10.175781 16.582031 10.296875 16.59375 10.394531 16.429688 C 10.394531 16.429688 10.511719 16.445312 10.613281 16.28125 C 10.613281 16.28125 10.734375 16.289062 10.832031 16.128906 C 10.832031 16.128906 10.953125 16.140625 11.050781 15.976562 C 11.050781 15.976562 11.167969 15.992188 11.269531 15.828125 C 11.269531 15.828125 11.390625 15.835938 11.488281 15.675781 C 11.488281 15.675781 11.601562 15.691406 11.707031 15.523438 C 11.710938 15.523438 11.71875 15.527344 11.722656 15.527344 C 11.730469 15.523438 11.742188 15.523438 11.753906 15.519531 C 11.769531 15.945312 11.636719 16.371094 11.070312 16.726562 C 10.554688 17.054688 10.195312 16.984375 9.910156 16.796875 C 9.929688 16.777344 9.945312 16.757812 9.957031 16.734375 "/>
<path style=" stroke:none;fill-rule:nonzero;fill:rgb(69.019608%,71.764706%,73.333333%);fill-opacity:1;" d="M 15.042969 10.421875 C 17.203125 9.621094 18.601562 8.871094 18.46875 8.511719 C 18.335938 8.148438 17.332031 8.667969 14.703125 9.640625 C 13.441406 10.109375 13.367188 10.226562 13.453125 10.453125 C 13.519531 10.636719 13.75 10.898438 15.042969 10.421875 M 14.738281 9.730469 C 16.996094 8.890625 18.292969 8.3125 18.382812 8.546875 C 18.488281 8.832031 16.660156 9.722656 15.007812 10.332031 C 13.789062 10.785156 13.585938 10.550781 13.539062 10.421875 C 13.472656 10.242188 13.683594 10.117188 14.738281 9.730469 "/>
<path style=" stroke:none;fill-rule:nonzero;fill:rgb(99.215686%,73.333333%,18.823529%);fill-opacity:1;" d="M 14 0.25 C 8.617188 0.25 4.25 4.613281 4.25 10 C 4.25 15.386719 8.617188 19.75 14 19.75 C 19.382812 19.75 23.75 15.386719 23.75 10 C 23.75 4.613281 19.382812 0.25 14 0.25 M 14 19.046875 C 9.003906 19.046875 4.953125 14.996094 4.953125 10 C 4.953125 5.003906 9.003906 0.953125 14 0.953125 C 18.996094 0.953125 23.046875 5.003906 23.046875 10 C 23.046875 14.996094 18.996094 19.046875 14 19.046875 "/>
<path style=" stroke:none;fill-rule:nonzero;fill:rgb(99.215686%,73.333333%,18.823529%);fill-opacity:1;" d="M 16.308594 15.339844 C 16.34375 15.347656 16.378906 15.328125 16.414062 15.296875 C 16.441406 15.542969 16.582031 15.507812 16.632812 15.449219 C 16.660156 15.695312 16.800781 15.660156 16.851562 15.597656 C 16.878906 15.84375 17.019531 15.808594 17.070312 15.75 C 17.097656 15.996094 17.238281 15.960938 17.289062 15.902344 C 17.316406 16.148438 17.457031 16.113281 17.507812 16.054688 C 17.535156 16.300781 17.675781 16.265625 17.726562 16.203125 C 17.753906 16.449219 17.894531 16.414062 17.945312 16.355469 C 17.972656 16.601562 18.113281 16.566406 18.164062 16.507812 C 18.171875 16.613281 18.214844 16.6875 18.277344 16.699219 C 18.367188 16.714844 18.460938 16.589844 18.488281 16.425781 C 18.519531 16.257812 18.46875 16.109375 18.382812 16.09375 C 18.347656 16.089844 18.308594 16.105469 18.277344 16.136719 C 18.25 15.890625 18.109375 15.925781 18.058594 15.984375 C 18.03125 15.738281 17.890625 15.773438 17.839844 15.835938 C 17.8125 15.585938 17.671875 15.625 17.621094 15.683594 C 17.59375 15.4375 17.453125 15.472656 17.402344 15.53125 C 17.375 15.285156 17.234375 15.320312 17.183594 15.378906 C 17.15625 15.132812 17.015625 15.167969 16.964844 15.230469 C 16.9375 14.984375 16.796875 15.019531 16.746094 15.078125 C 16.71875 14.832031 16.578125 14.867188 16.527344 14.925781 C 16.519531 14.824219 16.476562 14.746094 16.414062 14.734375 C 16.328125 14.71875 16.230469 14.839844 16.203125 15.007812 C 16.171875 15.175781 16.222656 15.324219 16.308594 15.339844 "/>
<path style=" stroke:none;fill-rule:nonzero;fill:rgb(99.215686%,73.333333%,18.823529%);fill-opacity:1;" d="M 9.722656 16.699219 C 9.785156 16.6875 9.828125 16.609375 9.835938 16.507812 C 9.886719 16.566406 10.027344 16.601562 10.054688 16.355469 C 10.105469 16.414062 10.246094 16.449219 10.273438 16.203125 C 10.324219 16.265625 10.464844 16.296875 10.492188 16.054688 C 10.542969 16.113281 10.683594 16.148438 10.710938 15.902344 C 10.761719 15.960938 10.902344 15.996094 10.929688 15.75 C 10.980469 15.8125 11.121094 15.847656 11.148438 15.601562 C 11.199219 15.660156 11.339844 15.695312 11.367188 15.449219 C 11.417969 15.507812 11.558594 15.542969 11.585938 15.296875 C 11.617188 15.328125 11.65625 15.34375 11.691406 15.339844 C 11.777344 15.324219 11.828125 15.175781 11.796875 15.007812 C 11.769531 14.839844 11.675781 14.71875 11.585938 14.734375 C 11.523438 14.742188 11.480469 14.820312 11.472656 14.925781 C 11.421875 14.867188 11.28125 14.832031 11.253906 15.078125 C 11.203125 15.019531 11.0625 14.984375 11.035156 15.230469 C 10.984375 15.167969 10.84375 15.132812 10.816406 15.378906 C 10.765625 15.320312 10.625 15.285156 10.597656 15.53125 C 10.546875 15.472656 10.40625 15.4375 10.378906 15.683594 C 10.328125 15.625 10.1875 15.589844 10.160156 15.832031 C 10.109375 15.773438 9.96875 15.738281 9.941406 15.984375 C 9.890625 15.925781 9.75 15.890625 9.722656 16.136719 C 9.691406 16.105469 9.652344 16.085938 9.617188 16.09375 C 9.53125 16.109375 9.480469 16.257812 9.511719 16.425781 C 9.539062 16.589844 9.632812 16.714844 9.722656 16.699219 "/>
<path style=" stroke:none;fill-rule:nonzero;fill:rgb(99.215686%,73.333333%,18.823529%);fill-opacity:1;" d="M 19.230469 16.285156 C 18.679688 15.9375 18.308594 17.820312 16.828125 16.886719 C 15.195312 15.855469 16.796875 14.28125 16.027344 13.796875 C 15.894531 13.714844 15.769531 13.746094 15.742188 13.789062 C 15.714844 13.832031 15.796875 13.890625 15.863281 13.972656 C 16.148438 14.332031 14.9375 16.085938 16.582031 17.121094 C 17.988281 18.011719 18.675781 16.804688 18.789062 16.875 C 18.882812 16.9375 19.113281 17.175781 19.304688 16.871094 C 19.476562 16.601562 19.363281 16.367188 19.230469 16.285156 "/>
<path style=" stroke:none;fill-rule:nonzero;fill:rgb(99.215686%,73.333333%,18.823529%);fill-opacity:1;" d="M 12.136719 13.972656 C 12.203125 13.886719 12.289062 13.832031 12.257812 13.789062 C 12.230469 13.746094 12.105469 13.710938 11.972656 13.796875 C 11.203125 14.28125 12.808594 15.855469 11.171875 16.886719 C 9.691406 17.820312 9.320312 15.9375 8.769531 16.285156 C 8.636719 16.371094 8.523438 16.601562 8.695312 16.871094 C 8.886719 17.175781 9.117188 16.933594 9.210938 16.875 C 9.324219 16.800781 10.011719 18.011719 11.417969 17.121094 C 13.0625 16.085938 11.851562 14.332031 12.136719 13.972656 "/>
<path style=" stroke:none;fill-rule:nonzero;fill:rgb(89.019608%,9.411765%,21.568627%);fill-opacity:1;" d="M 9.265625 6.832031 C 9.230469 6.832031 9.199219 6.890625 9.199219 6.910156 C 9.199219 6.929688 9.25 7.003906 9.289062 7.003906 C 9.3125 7.003906 9.34375 6.992188 9.34375 6.972656 C 9.34375 6.894531 9.339844 6.832031 9.265625 6.832031 "/>
<path style=" stroke:none;fill-rule:nonzero;fill:rgb(0%,17.647059%,38.431373%);fill-opacity:1;" d="M 14 0.125 C 8.554688 0.125 4.125 4.554688 4.125 10 C 4.125 15.445312 8.554688 19.875 14 19.875 C 19.445312 19.875 23.875 15.445312 23.875 10 C 23.875 4.554688 19.445312 0.125 14 0.125 M 14 19.75 C 8.617188 19.75 4.25 15.382812 4.25 10 C 4.25 4.613281 8.617188 0.25 14 0.25 C 19.382812 0.25 23.75 4.613281 23.75 10 C 23.75 15.382812 19.382812 19.75 14 19.75 "/>
<path style=" stroke:none;fill-rule:nonzero;fill:rgb(0%,17.647059%,38.431373%);fill-opacity:1;" d="M 14 0.953125 C 9.003906 0.953125 4.953125 5.003906 4.953125 10 C 4.953125 14.996094 9.003906 19.046875 14 19.046875 C 18.996094 19.046875 23.046875 14.996094 23.046875 10 C 23.046875 5.003906 18.996094 0.953125 14 0.953125 M 14 18.921875 C 9.082031 18.921875 5.078125 14.921875 5.078125 10 C 5.078125 5.082031 9.082031 1.078125 14 1.078125 C 18.917969 1.078125 22.921875 5.082031 22.921875 10 C 22.921875 14.921875 18.917969 18.921875 14 18.921875 "/>
<path style=" stroke:none;fill-rule:nonzero;fill:rgb(0%,17.647059%,38.431373%);fill-opacity:1;" d="M 21.964844 6.273438 C 21.960938 6.5 21.890625 6.855469 21.589844 7.167969 C 21.554688 7.203125 18.726562 10.328125 14.863281 13.28125 C 15.0625 13.429688 15.308594 13.609375 15.546875 13.777344 C 15.550781 13.746094 15.5625 13.71875 15.582031 13.6875 C 15.667969 13.550781 15.90625 13.496094 16.128906 13.636719 C 16.46875 13.851562 16.480469 14.171875 16.414062 14.542969 C 16.425781 14.542969 16.4375 14.542969 16.445312 14.546875 C 16.535156 14.5625 16.601562 14.617188 16.652344 14.699219 C 16.652344 14.699219 16.765625 14.6875 16.867188 14.851562 C 16.867188 14.851562 16.988281 14.839844 17.085938 15.003906 C 17.085938 15.003906 17.203125 14.988281 17.304688 15.152344 C 17.304688 15.152344 17.425781 15.144531 17.523438 15.304688 C 17.523438 15.304688 17.644531 15.292969 17.742188 15.457031 C 17.742188 15.457031 17.859375 15.445312 17.960938 15.605469 C 17.960938 15.605469 18.078125 15.597656 18.179688 15.757812 C 18.179688 15.757812 18.292969 15.746094 18.398438 15.910156 C 18.402344 15.910156 18.410156 15.90625 18.414062 15.90625 C 18.5625 15.933594 18.660156 16.066406 18.683594 16.25 C 18.878906 16.066406 19.078125 15.964844 19.328125 16.125 C 19.507812 16.238281 19.664062 16.507812 19.539062 16.828125 C 21.523438 15.214844 22.796875 12.753906 22.796875 10 C 22.796875 8.667969 22.5 7.402344 21.964844 6.273438 "/>
<path style=" stroke:none;fill-rule:nonzero;fill:rgb(0%,17.647059%,38.431373%);fill-opacity:1;" d="M 13.082031 7.597656 C 12.792969 7.597656 12.675781 7.824219 12.671875 7.875 C 12.671875 7.925781 12.714844 7.988281 12.722656 8.0625 C 12.722656 8.0625 12.835938 7.941406 12.96875 7.941406 C 13.222656 7.941406 13.441406 8.355469 13.511719 8.582031 C 13.535156 8.476562 13.5625 8.335938 13.5625 8.152344 C 13.5625 7.808594 13.3125 7.597656 13.082031 7.597656 "/>
<path style=" stroke:none;fill-rule:nonzero;fill:rgb(0%,17.647059%,38.431373%);fill-opacity:1;" d="M 16.480469 17.285156 C 15.445312 16.628906 15.445312 15.71875 15.5625 15.007812 C 15.074219 14.683594 14.433594 14.242188 14 13.925781 C 13.566406 14.242188 12.925781 14.683594 12.4375 15.007812 C 12.554688 15.71875 12.554688 16.628906 11.519531 17.285156 C 10.25 18.085938 9.476562 17.308594 9.21875 17.101562 C 9.15625 17.144531 9.066406 17.195312 8.964844 17.210938 C 10.390625 18.207031 12.128906 18.796875 14 18.796875 C 15.871094 18.796875 17.609375 18.207031 19.035156 17.210938 C 18.933594 17.195312 18.84375 17.148438 18.78125 17.101562 C 18.523438 17.308594 17.75 18.085938 16.480469 17.285156 "/>
<path style=" stroke:none;fill-rule:nonzero;fill:rgb(0%,17.647059%,38.431373%);fill-opacity:1;" d="M 11.421875 7.125 C 11.257812 7.125 11.207031 7.28125 11.207031 7.332031 C 11.207031 7.703125 11.492188 7.554688 11.660156 7.78125 C 11.71875 7.625 11.566406 7.558594 11.566406 7.390625 C 11.566406 7.339844 11.585938 7.300781 11.585938 7.265625 C 11.585938 7.179688 11.503906 7.125 11.421875 7.125 "/>
<path style=" stroke:none;fill-rule:nonzero;fill:rgb(0%,17.647059%,38.431373%);fill-opacity:1;" d="M 8.667969 16.125 C 8.921875 15.964844 9.117188 16.066406 9.316406 16.25 C 9.339844 16.066406 9.4375 15.933594 9.585938 15.90625 C 9.589844 15.90625 9.597656 15.910156 9.601562 15.910156 C 9.707031 15.746094 9.820312 15.757812 9.820312 15.757812 C 9.917969 15.597656 10.039062 15.605469 10.039062 15.605469 C 10.140625 15.445312 10.257812 15.457031 10.257812 15.457031 C 10.355469 15.292969 10.476562 15.304688 10.476562 15.304688 C 10.574219 15.144531 10.695312 15.152344 10.695312 15.152344 C 10.796875 14.988281 10.910156 15 10.910156 15 C 11.007812 14.839844 11.128906 14.851562 11.128906 14.851562 C 11.234375 14.6875 11.347656 14.699219 11.347656 14.699219 C 11.398438 14.617188 11.464844 14.5625 11.554688 14.546875 C 11.5625 14.542969 11.574219 14.542969 11.585938 14.542969 C 11.519531 14.171875 11.53125 13.851562 11.871094 13.636719 C 12.09375 13.496094 12.332031 13.550781 12.417969 13.6875 C 12.4375 13.71875 12.449219 13.746094 12.453125 13.773438 C 12.6875 13.609375 12.9375 13.429688 13.136719 13.28125 C 9.273438 10.328125 6.441406 7.203125 6.410156 7.167969 C 6.109375 6.855469 6.039062 6.5 6.035156 6.273438 C 5.5 7.402344 5.203125 8.667969 5.203125 10 C 5.203125 12.753906 6.472656 15.214844 8.460938 16.828125 C 8.335938 16.507812 8.492188 16.238281 8.667969 16.125 "/>
<path style=" stroke:none;fill-rule:nonzero;fill:rgb(0%,17.647059%,38.431373%);fill-opacity:1;" d="M 14 12.640625 C 16.761719 10.546875 18.902344 8.5625 20.1875 7.296875 C 20.171875 7.300781 20.160156 7.300781 20.144531 7.300781 C 19.390625 7.300781 19.21875 6.4375 18.980469 6.4375 C 18.886719 6.445312 18.53125 6.558594 18.316406 6.652344 C 18.457031 6.699219 18.59375 6.652344 18.757812 6.757812 C 18.972656 6.738281 19.136719 6.84375 19.136719 7.109375 C 19.136719 7.375 19.078125 7.730469 18.570312 7.730469 C 17.878906 7.730469 17.859375 7.050781 17.386719 7.050781 C 17.242188 7.050781 16.746094 7.269531 16.324219 7.269531 C 15.792969 7.269531 15.453125 6.882812 15 6.882812 C 14.828125 6.882812 14.78125 7.03125 14.78125 7.113281 C 14.78125 7.316406 15.03125 7.386719 15.03125 7.605469 C 15.03125 7.675781 15 7.753906 14.910156 7.808594 C 14.972656 7.851562 15.03125 7.914062 15.03125 8.007812 C 15.03125 8.042969 15.015625 8.074219 15.003906 8.109375 C 15.101562 8.03125 15.1875 7.976562 15.285156 7.976562 C 15.601562 7.976562 15.742188 8.515625 15.742188 8.71875 C 15.742188 9.050781 15.429688 9.082031 15.152344 9.082031 C 14.890625 9.082031 14.324219 9.324219 14.089844 9.324219 C 13.855469 9.324219 13.507812 9.125 13.46875 8.871094 C 13.375 8.996094 13.195312 9.078125 12.972656 9.078125 C 12.726562 9.078125 12.257812 8.804688 11.984375 8.804688 C 11.773438 8.824219 11.390625 8.796875 11.390625 8.296875 C 11.390625 8.265625 11.394531 8.238281 11.402344 8.214844 C 11.09375 8.375 10.664062 8.242188 10.664062 8.242188 C 10.136719 8.5 10.0625 8.207031 10.0625 8.097656 C 9.953125 8.183594 9.816406 8.34375 9.628906 8.34375 C 9.324219 8.34375 9.246094 8.039062 9.066406 7.871094 C 8.996094 7.800781 8.808594 7.726562 8.707031 7.617188 C 8.539062 7.449219 8.378906 7.167969 7.808594 6.710938 C 7.648438 6.582031 7.515625 6.128906 7.515625 5.722656 C 7.515625 4.964844 7.628906 4.191406 9.007812 3.84375 C 10.414062 3.488281 10.148438 1.691406 12.773438 1.691406 C 13.511719 1.691406 14.121094 1.832031 14.734375 2.050781 C 14.566406 1.96875 14.492188 1.875 14.523438 1.753906 C 14.554688 1.640625 14.648438 1.421875 16.800781 2.015625 C 18.101562 2.375 19.125 2.714844 19.03125 3.058594 C 18.917969 3.464844 18.144531 3.015625 16.5625 2.582031 C 15.929688 2.410156 15.421875 2.292969 15.066406 2.179688 C 16.164062 2.625 17.355469 3.292969 19.394531 3.878906 C 20.105469 4.058594 20.5625 4.078125 20.5625 4.449219 C 20.5625 4.53125 20.527344 4.585938 20.484375 4.628906 C 20.890625 4.601562 21.039062 5.132812 20.160156 5.132812 C 19.664062 5.132812 19.304688 4.941406 19.304688 4.671875 C 19.304688 4.539062 19.371094 4.457031 19.460938 4.402344 C 19.261719 4.347656 19.007812 4.292969 18.792969 4.277344 C 18.824219 4.382812 18.859375 4.523438 18.859375 4.699219 C 18.859375 5.039062 18.785156 5.195312 18.753906 5.390625 C 18.902344 5.363281 19.054688 5.289062 19.171875 5.289062 C 19.675781 5.289062 19.390625 6.03125 20.011719 6.105469 C 20.253906 6.152344 20.246094 6.324219 20.246094 6.324219 C 20.480469 6.277344 20.640625 6.296875 20.640625 6.765625 C 20.640625 6.796875 20.636719 6.824219 20.636719 6.851562 C 21.214844 6.273438 21.527344 5.925781 21.539062 5.914062 C 21.601562 5.847656 21.675781 5.820312 21.742188 5.824219 C 20.253906 3.074219 17.339844 1.203125 14 1.203125 C 10.660156 1.203125 7.746094 3.074219 6.257812 5.824219 C 6.328125 5.820312 6.402344 5.847656 6.464844 5.914062 C 6.496094 5.949219 9.386719 9.144531 14 12.640625 M 14.703125 9.640625 C 17.332031 8.667969 18.335938 8.148438 18.46875 8.511719 C 18.601562 8.871094 17.203125 9.621094 15.042969 10.421875 C 13.75 10.898438 13.519531 10.636719 13.453125 10.453125 C 13.367188 10.222656 13.441406 10.109375 14.703125 9.640625 "/>
<path style=" stroke:none;fill-rule:nonzero;fill:rgb(0%,17.647059%,38.431373%);fill-opacity:1;" d="M 17.824219 16.582031 C 17.824219 16.582031 17.703125 16.59375 17.605469 16.429688 C 17.605469 16.429688 17.488281 16.445312 17.386719 16.28125 C 17.386719 16.28125 17.265625 16.289062 17.167969 16.128906 C 17.167969 16.128906 17.046875 16.140625 16.949219 15.976562 C 16.949219 15.976562 16.832031 15.988281 16.730469 15.828125 C 16.730469 15.828125 16.609375 15.835938 16.511719 15.675781 C 16.511719 15.675781 16.398438 15.6875 16.292969 15.523438 C 16.289062 15.523438 16.28125 15.527344 16.277344 15.527344 C 16.269531 15.523438 16.257812 15.523438 16.246094 15.519531 C 16.230469 15.945312 16.363281 16.371094 16.929688 16.726562 C 17.445312 17.054688 17.804688 16.984375 18.089844 16.796875 C 18.070312 16.777344 18.054688 16.757812 18.039062 16.734375 C 18.039062 16.734375 17.925781 16.746094 17.824219 16.582031 "/>
<path style=" stroke:none;fill-rule:nonzero;fill:rgb(0%,17.647059%,38.431373%);fill-opacity:1;" d="M 11.488281 15.675781 C 11.390625 15.839844 11.269531 15.828125 11.269531 15.828125 C 11.167969 15.988281 11.050781 15.976562 11.050781 15.976562 C 10.953125 16.140625 10.832031 16.128906 10.832031 16.128906 C 10.734375 16.289062 10.613281 16.28125 10.613281 16.28125 C 10.511719 16.445312 10.394531 16.433594 10.394531 16.433594 C 10.296875 16.59375 10.175781 16.582031 10.175781 16.582031 C 10.074219 16.746094 9.957031 16.734375 9.957031 16.734375 C 9.945312 16.757812 9.929688 16.777344 9.910156 16.796875 C 10.195312 16.988281 10.554688 17.054688 11.070312 16.726562 C 11.636719 16.371094 11.769531 15.945312 11.753906 15.519531 C 11.742188 15.523438 11.730469 15.523438 11.722656 15.527344 C 11.71875 15.527344 11.710938 15.523438 11.707031 15.527344 C 11.601562 15.6875 11.488281 15.675781 11.488281 15.675781 "/>
<path style=" stroke:none;fill-rule:nonzero;fill:rgb(0%,17.647059%,38.431373%);fill-opacity:1;" d="M 9.464844 5.660156 C 9.34375 5.660156 9.304688 5.714844 9.304688 5.742188 C 9.304688 5.769531 9.4375 6.09375 9.519531 6.09375 C 9.628906 6.09375 9.804688 5.890625 9.804688 5.808594 C 9.804688 5.722656 9.585938 5.660156 9.464844 5.660156 "/>
<path style=" stroke:none;fill-rule:nonzero;fill:rgb(0%,17.647059%,38.431373%);fill-opacity:1;" d="M 9.535156 7.902344 C 9.535156 7.953125 9.636719 8.027344 9.636719 8.027344 C 9.636719 8.027344 9.742188 7.886719 9.742188 7.78125 C 9.742188 7.742188 9.535156 7.777344 9.535156 7.902344 "/>
<path style=" stroke:none;fill-rule:nonzero;fill:rgb(0%,17.647059%,38.431373%);fill-opacity:1;" d="M 9.554688 5.125 C 9.554688 4.804688 9.296875 4.515625 8.804688 4.515625 C 8.292969 4.515625 7.953125 4.800781 7.953125 4.972656 C 7.953125 5.113281 8.179688 4.824219 8.511719 4.824219 C 8.710938 4.824219 8.90625 4.9375 8.90625 5.097656 C 8.90625 5.226562 8.742188 5.324219 8.742188 5.433594 C 8.742188 5.515625 8.800781 5.671875 8.988281 5.671875 C 9.285156 5.671875 9.554688 5.441406 9.554688 5.125 "/>
<path style=" stroke:none;fill-rule:nonzero;fill:rgb(0%,17.647059%,38.431373%);fill-opacity:1;" d="M 15 6.789062 C 15.484375 6.789062 15.816406 7.171875 16.324219 7.171875 C 16.75 7.171875 17.214844 6.957031 17.386719 6.957031 C 17.925781 6.957031 17.917969 7.636719 18.570312 7.636719 C 18.90625 7.636719 19.042969 7.480469 19.042969 7.109375 C 19.042969 6.859375 18.894531 6.851562 18.757812 6.851562 C 18.707031 6.851562 18.640625 6.773438 18.484375 6.773438 C 18.308594 6.773438 18.15625 6.699219 18.117188 6.652344 C 18.25 6.550781 18.863281 6.34375 18.976562 6.34375 C 19.324219 6.34375 19.402344 7.207031 20.144531 7.207031 C 20.34375 7.207031 20.546875 7.152344 20.546875 6.765625 C 20.546875 6.46875 20.488281 6.378906 20.339844 6.402344 C 20.230469 6.425781 20.128906 6.4375 20.128906 6.4375 C 20.183594 6.328125 20.164062 6.230469 19.996094 6.199219 C 19.304688 6.089844 19.578125 5.382812 19.171875 5.382812 C 19.03125 5.382812 18.652344 5.578125 18.652344 5.441406 C 18.652344 5.296875 18.765625 5.070312 18.765625 4.699219 C 18.765625 4.453125 18.667969 4.171875 18.667969 4.171875 C 19.023438 4.175781 19.527344 4.304688 19.753906 4.402344 C 19.609375 4.429688 19.398438 4.480469 19.398438 4.671875 C 19.398438 4.878906 19.734375 5.039062 20.160156 5.039062 C 20.855469 5.039062 20.78125 4.722656 20.527344 4.722656 C 20.261719 4.722656 20.164062 4.699219 20.128906 4.679688 C 20.25 4.636719 20.46875 4.628906 20.46875 4.449219 C 20.46875 4.144531 20.0625 4.160156 19.367188 3.96875 C 16.253906 3.113281 14.90625 1.785156 12.773438 1.785156 C 10.179688 1.785156 10.515625 3.558594 9.03125 3.933594 C 7.71875 4.269531 7.609375 4.96875 7.609375 5.722656 C 7.609375 6.125 7.746094 6.539062 7.867188 6.636719 C 8.171875 6.894531 8.386719 7.070312 8.777344 7.550781 C 8.847656 7.628906 9.050781 7.71875 9.136719 7.804688 C 9.3125 7.984375 9.386719 8.25 9.628906 8.25 C 9.84375 8.25 10 7.945312 10.289062 7.863281 C 10.222656 7.929688 10.15625 8.007812 10.15625 8.101562 C 10.15625 8.316406 10.402344 8.265625 10.65625 8.144531 C 11.226562 8.289062 11.429688 8.132812 11.582031 7.945312 C 11.613281 7.90625 11.605469 7.855469 11.574219 7.820312 C 11.386719 7.648438 11.113281 7.746094 11.113281 7.332031 C 11.113281 7.253906 11.1875 7.03125 11.421875 7.03125 C 11.554688 7.03125 11.730469 7.140625 11.667969 7.34375 C 11.628906 7.476562 11.765625 7.570312 11.765625 7.667969 C 11.765625 8.039062 11.484375 8.0625 11.484375 8.296875 C 11.484375 8.71875 11.796875 8.726562 11.980469 8.710938 C 12.269531 8.710938 12.761719 8.980469 12.972656 8.980469 C 13.242188 8.980469 13.441406 8.859375 13.441406 8.695312 C 13.441406 8.566406 13.183594 8.039062 12.96875 8.039062 C 12.847656 8.039062 12.757812 8.183594 12.691406 8.183594 C 12.640625 8.183594 12.613281 8.167969 12.609375 8.160156 C 12.675781 8.058594 12.578125 7.992188 12.578125 7.871094 C 12.578125 7.785156 12.734375 7.503906 13.082031 7.503906 C 13.359375 7.503906 13.660156 7.75 13.660156 8.152344 C 13.660156 8.507812 13.554688 8.742188 13.554688 8.828125 C 13.554688 9.039062 13.886719 9.230469 14.089844 9.230469 C 14.308594 9.230469 14.859375 8.988281 15.152344 8.988281 C 15.464844 8.988281 15.648438 8.941406 15.648438 8.71875 C 15.648438 8.519531 15.511719 8.070312 15.285156 8.070312 C 15.085938 8.070312 14.796875 8.515625 14.421875 8.515625 C 14.441406 8.46875 14.503906 8.375 14.535156 8.359375 C 14.773438 8.238281 14.933594 8.140625 14.933594 8.007812 C 14.933594 7.890625 14.773438 7.847656 14.6875 7.773438 C 14.847656 7.757812 14.933594 7.722656 14.933594 7.605469 C 14.933594 7.4375 14.6875 7.367188 14.6875 7.113281 C 14.6875 6.949219 14.792969 6.789062 15 6.789062 M 14.589844 7.113281 C 14.589844 7.398438 14.839844 7.5 14.839844 7.605469 C 14.839844 7.726562 14.566406 7.625 14.566406 7.75 C 14.566406 7.871094 14.839844 7.945312 14.839844 8.007812 C 14.839844 8.113281 14.539062 8.242188 14.484375 8.277344 C 14.429688 8.308594 14.320312 8.464844 14.320312 8.535156 C 14.320312 8.601562 14.375 8.613281 14.421875 8.613281 C 14.828125 8.613281 15.144531 8.164062 15.285156 8.164062 C 15.421875 8.164062 15.554688 8.527344 15.554688 8.71875 C 15.554688 8.910156 15.316406 8.894531 15.109375 8.894531 C 14.902344 8.894531 14.261719 9.132812 14.089844 9.132812 C 13.917969 9.132812 13.648438 8.96875 13.648438 8.828125 C 13.648438 8.753906 13.753906 8.53125 13.753906 8.152344 C 13.753906 7.691406 13.410156 7.40625 13.082031 7.40625 C 12.683594 7.40625 12.480469 7.726562 12.480469 7.871094 C 12.480469 7.996094 12.558594 8.070312 12.53125 8.117188 C 12.484375 8.199219 12.558594 8.277344 12.6875 8.277344 C 12.804688 8.277344 12.890625 8.132812 12.96875 8.132812 C 13.101562 8.132812 13.347656 8.589844 13.347656 8.695312 C 13.347656 8.796875 13.179688 8.886719 12.972656 8.886719 C 12.800781 8.886719 12.300781 8.617188 11.972656 8.617188 C 11.832031 8.625 11.582031 8.652344 11.582031 8.296875 C 11.582031 8.117188 11.859375 8.074219 11.859375 7.667969 C 11.859375 7.535156 11.734375 7.449219 11.757812 7.375 C 11.832031 7.140625 11.65625 6.9375 11.421875 6.9375 C 11.132812 6.9375 11.019531 7.199219 11.019531 7.332031 C 11.019531 7.816406 11.382812 7.765625 11.507812 7.886719 C 11.234375 8.257812 10.769531 8.046875 10.652344 8.046875 C 10.578125 8.046875 10.253906 8.253906 10.253906 8.101562 C 10.253906 7.929688 10.683594 7.75 10.417969 7.75 C 10.015625 7.75 9.8125 8.152344 9.628906 8.152344 C 9.449219 8.152344 9.390625 7.925781 9.203125 7.738281 C 9.074219 7.609375 8.960938 7.601562 8.84375 7.484375 C 8.703125 7.34375 8.523438 7.039062 7.925781 6.5625 C 7.847656 6.5 7.707031 6.144531 7.707031 5.722656 C 7.707031 4.96875 7.820312 4.339844 9.054688 4.027344 C 10.613281 3.632812 10.203125 1.878906 12.773438 1.878906 C 14.859375 1.878906 16.015625 3.113281 19.339844 4.058594 C 20.007812 4.25 20.375 4.234375 20.375 4.449219 C 20.375 4.597656 20.015625 4.535156 20.015625 4.671875 C 20.015625 4.8125 20.324219 4.820312 20.527344 4.820312 C 20.726562 4.820312 20.5625 4.945312 20.160156 4.945312 C 19.757812 4.945312 19.492188 4.796875 19.492188 4.671875 C 19.492188 4.46875 19.953125 4.515625 19.953125 4.433594 C 19.953125 4.316406 19.132812 4.078125 18.664062 4.078125 C 18.449219 4.078125 18.671875 4.308594 18.671875 4.699219 C 18.671875 5.054688 18.558594 5.277344 18.558594 5.441406 C 18.558594 5.738281 19.035156 5.480469 19.171875 5.480469 C 19.460938 5.480469 19.242188 6.171875 19.984375 6.292969 C 20.140625 6.316406 20.011719 6.40625 20.011719 6.492188 C 20.011719 6.582031 20.289062 6.503906 20.347656 6.496094 C 20.402344 6.488281 20.449219 6.460938 20.449219 6.765625 C 20.449219 7.074219 20.320312 7.109375 20.144531 7.109375 C 19.449219 7.109375 19.410156 6.25 18.976562 6.25 C 18.851562 6.25 18.007812 6.519531 18.007812 6.636719 C 18.007812 6.753906 18.257812 6.871094 18.484375 6.871094 C 18.640625 6.871094 18.652344 6.949219 18.757812 6.949219 C 18.863281 6.949219 18.949219 6.929688 18.949219 7.109375 C 18.949219 7.433594 18.847656 7.539062 18.570312 7.539062 C 17.972656 7.539062 17.988281 6.859375 17.386719 6.859375 C 17.191406 6.859375 16.738281 7.078125 16.324219 7.078125 C 15.839844 7.078125 15.515625 6.691406 15 6.691406 C 14.734375 6.691406 14.589844 6.90625 14.589844 7.113281 "/>
<path style=" stroke:none;fill-rule:nonzero;fill:rgb(0%,17.647059%,38.431373%);fill-opacity:1;" d="M 9.257812 6.578125 C 9.257812 6.429688 9.4375 6.300781 9.3125 6.300781 C 9.089844 6.300781 9.183594 6.875 9.003906 7.117188 C 9.003906 7.117188 8.96875 7.210938 9.105469 7.210938 C 9.304688 7.210938 9.503906 7.015625 9.503906 6.890625 C 9.503906 6.695312 9.257812 6.742188 9.257812 6.578125 M 9.289062 7.003906 C 9.253906 7.003906 9.199219 6.929688 9.199219 6.910156 C 9.199219 6.890625 9.230469 6.832031 9.265625 6.832031 C 9.339844 6.832031 9.34375 6.894531 9.34375 6.972656 C 9.34375 6.992188 9.3125 7.003906 9.289062 7.003906 "/>
<path style=" stroke:none;fill-rule:nonzero;fill:rgb(0%,17.647059%,38.431373%);fill-opacity:1;" d="M 19.28125 16.207031 C 19.015625 16.039062 18.8125 16.230469 18.574219 16.476562 C 18.578125 16.464844 18.582031 16.453125 18.582031 16.441406 C 18.621094 16.214844 18.542969 16.027344 18.398438 16 C 18.378906 15.996094 18.363281 16.003906 18.34375 16.007812 C 18.269531 15.808594 18.128906 15.855469 18.128906 15.855469 C 18.054688 15.65625 17.910156 15.703125 17.910156 15.703125 C 17.832031 15.507812 17.691406 15.554688 17.691406 15.554688 C 17.617188 15.355469 17.472656 15.402344 17.472656 15.402344 C 17.390625 15.199219 17.253906 15.253906 17.253906 15.253906 C 17.179688 15.050781 17.035156 15.101562 17.035156 15.101562 C 16.960938 14.902344 16.816406 14.949219 16.816406 14.949219 C 16.738281 14.746094 16.59375 14.796875 16.59375 14.796875 C 16.5625 14.710938 16.503906 14.652344 16.429688 14.640625 C 16.382812 14.632812 16.332031 14.644531 16.289062 14.671875 C 16.371094 14.265625 16.402344 13.921875 16.078125 13.714844 C 15.90625 13.609375 15.722656 13.640625 15.660156 13.738281 C 15.585938 13.855469 15.730469 13.957031 15.789062 14.03125 C 16.007812 14.308594 14.855469 16.148438 16.53125 17.203125 C 17.8125 18.011719 18.503906 17.1875 18.773438 16.980469 C 18.90625 17.082031 19.175781 17.257812 19.386719 16.921875 C 19.550781 16.660156 19.507812 16.347656 19.28125 16.207031 M 16.414062 14.734375 C 16.476562 14.746094 16.519531 14.824219 16.527344 14.925781 C 16.578125 14.867188 16.71875 14.832031 16.746094 15.078125 C 16.796875 15.019531 16.9375 14.984375 16.964844 15.230469 C 17.015625 15.167969 17.15625 15.132812 17.183594 15.378906 C 17.234375 15.320312 17.375 15.285156 17.402344 15.53125 C 17.453125 15.472656 17.59375 15.4375 17.621094 15.683594 C 17.671875 15.625 17.8125 15.589844 17.839844 15.835938 C 17.890625 15.773438 18.03125 15.738281 18.058594 15.984375 C 18.109375 15.925781 18.25 15.890625 18.277344 16.136719 C 18.308594 16.105469 18.347656 16.089844 18.382812 16.09375 C 18.46875 16.109375 18.519531 16.257812 18.488281 16.425781 C 18.460938 16.589844 18.367188 16.714844 18.277344 16.699219 C 18.214844 16.6875 18.171875 16.609375 18.164062 16.507812 C 18.113281 16.566406 17.972656 16.601562 17.945312 16.355469 C 17.894531 16.414062 17.753906 16.449219 17.726562 16.203125 C 17.675781 16.265625 17.535156 16.296875 17.507812 16.050781 C 17.457031 16.113281 17.316406 16.148438 17.289062 15.902344 C 17.238281 15.960938 17.097656 15.996094 17.070312 15.75 C 17.019531 15.8125 16.878906 15.847656 16.851562 15.601562 C 16.800781 15.660156 16.660156 15.695312 16.632812 15.449219 C 16.582031 15.507812 16.441406 15.542969 16.414062 15.296875 C 16.382812 15.328125 16.34375 15.34375 16.308594 15.339844 C 16.222656 15.324219 16.171875 15.175781 16.203125 15.007812 C 16.230469 14.839844 16.324219 14.71875 16.414062 14.734375 M 18.25 16.789062 C 17.933594 17.054688 17.519531 17.214844 16.878906 16.808594 C 16.199219 16.378906 16.109375 15.851562 16.164062 15.347656 C 16.199219 15.394531 16.242188 15.421875 16.292969 15.433594 C 16.3125 15.4375 16.328125 15.429688 16.347656 15.425781 C 16.421875 15.625 16.566406 15.578125 16.566406 15.578125 C 16.636719 15.777344 16.78125 15.730469 16.78125 15.730469 C 16.859375 15.925781 17.003906 15.878906 17.003906 15.878906 C 17.074219 16.078125 17.21875 16.03125 17.21875 16.03125 C 17.300781 16.234375 17.4375 16.183594 17.4375 16.183594 C 17.511719 16.382812 17.65625 16.332031 17.65625 16.332031 C 17.730469 16.53125 17.875 16.484375 17.875 16.484375 C 17.953125 16.6875 18.097656 16.636719 18.097656 16.636719 C 18.128906 16.71875 18.183594 16.773438 18.25 16.789062 M 19.304688 16.871094 C 19.113281 17.175781 18.882812 16.933594 18.789062 16.875 C 18.675781 16.800781 17.988281 18.011719 16.582031 17.121094 C 14.9375 16.085938 16.148438 14.332031 15.863281 13.972656 C 15.796875 13.886719 15.714844 13.832031 15.742188 13.789062 C 15.769531 13.746094 15.894531 13.710938 16.027344 13.796875 C 16.796875 14.28125 15.191406 15.855469 16.828125 16.886719 C 18.308594 17.820312 18.679688 15.9375 19.230469 16.285156 C 19.363281 16.367188 19.476562 16.601562 19.304688 16.871094 "/>
<path style=" stroke:none;fill-rule:nonzero;fill:rgb(0%,17.647059%,38.431373%);fill-opacity:1;" d="M 11.46875 17.203125 C 13.144531 16.148438 11.992188 14.308594 12.210938 14.03125 C 12.269531 13.957031 12.414062 13.855469 12.339844 13.738281 C 12.277344 13.640625 12.09375 13.609375 11.921875 13.714844 C 11.597656 13.921875 11.628906 14.265625 11.710938 14.671875 C 11.667969 14.644531 11.617188 14.632812 11.570312 14.640625 C 11.496094 14.652344 11.4375 14.710938 11.40625 14.796875 C 11.40625 14.796875 11.261719 14.746094 11.183594 14.949219 C 11.183594 14.949219 11.035156 14.902344 10.964844 15.101562 C 10.964844 15.101562 10.820312 15.050781 10.746094 15.25 C 10.746094 15.25 10.609375 15.199219 10.527344 15.402344 C 10.527344 15.402344 10.378906 15.355469 10.308594 15.554688 C 10.308594 15.554688 10.167969 15.507812 10.09375 15.707031 C 10.09375 15.707031 9.945312 15.65625 9.871094 15.855469 C 9.871094 15.855469 9.730469 15.804688 9.65625 16.007812 C 9.636719 16.003906 9.621094 15.996094 9.601562 16 C 9.457031 16.027344 9.378906 16.214844 9.417969 16.441406 C 9.417969 16.453125 9.421875 16.464844 9.421875 16.476562 C 9.1875 16.230469 8.984375 16.039062 8.71875 16.207031 C 8.492188 16.347656 8.449219 16.660156 8.613281 16.921875 C 8.824219 17.257812 9.09375 17.082031 9.226562 16.980469 C 9.496094 17.1875 10.191406 18.011719 11.46875 17.203125 M 9.617188 16.09375 C 9.652344 16.085938 9.691406 16.105469 9.722656 16.136719 C 9.75 15.890625 9.890625 15.925781 9.941406 15.984375 C 9.96875 15.738281 10.109375 15.773438 10.160156 15.835938 C 10.1875 15.589844 10.328125 15.625 10.378906 15.683594 C 10.40625 15.4375 10.546875 15.472656 10.597656 15.53125 C 10.625 15.285156 10.765625 15.320312 10.816406 15.378906 C 10.84375 15.132812 10.984375 15.171875 11.035156 15.230469 C 11.0625 14.984375 11.203125 15.019531 11.253906 15.078125 C 11.28125 14.832031 11.421875 14.867188 11.472656 14.925781 C 11.480469 14.824219 11.523438 14.746094 11.585938 14.734375 C 11.671875 14.71875 11.769531 14.84375 11.796875 15.007812 C 11.828125 15.175781 11.777344 15.324219 11.691406 15.339844 C 11.65625 15.34375 11.617188 15.328125 11.585938 15.296875 C 11.558594 15.542969 11.417969 15.507812 11.367188 15.449219 C 11.339844 15.695312 11.199219 15.660156 11.148438 15.601562 C 11.121094 15.847656 10.980469 15.8125 10.929688 15.75 C 10.902344 15.996094 10.761719 15.960938 10.710938 15.902344 C 10.683594 16.148438 10.542969 16.113281 10.492188 16.054688 C 10.464844 16.300781 10.324219 16.265625 10.273438 16.203125 C 10.246094 16.449219 10.105469 16.414062 10.054688 16.355469 C 10.027344 16.601562 9.886719 16.566406 9.835938 16.507812 C 9.828125 16.609375 9.785156 16.691406 9.722656 16.699219 C 9.632812 16.714844 9.539062 16.59375 9.511719 16.425781 C 9.480469 16.257812 9.53125 16.109375 9.617188 16.09375 M 11.835938 15.347656 C 11.890625 15.851562 11.800781 16.378906 11.121094 16.808594 C 10.480469 17.214844 10.066406 17.054688 9.75 16.789062 C 9.816406 16.773438 9.871094 16.71875 9.902344 16.636719 C 9.902344 16.636719 10.046875 16.6875 10.125 16.484375 C 10.125 16.484375 10.269531 16.53125 10.34375 16.332031 C 10.34375 16.332031 10.488281 16.382812 10.558594 16.183594 C 10.558594 16.183594 10.699219 16.234375 10.78125 16.03125 C 10.78125 16.03125 10.925781 16.078125 11 15.878906 C 11 15.878906 11.140625 15.925781 11.21875 15.726562 C 11.21875 15.726562 11.363281 15.777344 11.433594 15.578125 C 11.433594 15.578125 11.578125 15.625 11.652344 15.425781 C 11.671875 15.429688 11.6875 15.4375 11.707031 15.433594 C 11.757812 15.421875 11.800781 15.394531 11.835938 15.347656 M 9.210938 16.875 C 9.117188 16.933594 8.886719 17.175781 8.695312 16.871094 C 8.523438 16.601562 8.636719 16.367188 8.769531 16.285156 C 9.320312 15.9375 9.691406 17.820312 11.171875 16.886719 C 12.804688 15.855469 11.203125 14.28125 11.972656 13.796875 C 12.105469 13.710938 12.230469 13.746094 12.257812 13.789062 C 12.289062 13.832031 12.203125 13.890625 12.136719 13.972656 C 11.851562 14.332031 13.0625 16.085938 11.417969 17.125 C 10.011719 18.011719 9.324219 16.800781 9.210938 16.875 "/>
<path style=" stroke:none;fill-rule:nonzero;fill:rgb(0%,17.647059%,38.431373%);fill-opacity:1;" d="M 13.296875 13.28125 C 12.953125 13.535156 12.554688 13.820312 12.199219 14.070312 L 12.359375 14.945312 C 12.878906 14.601562 13.507812 14.167969 14 13.808594 C 14.492188 14.167969 15.121094 14.601562 15.640625 14.945312 L 15.800781 14.070312 C 15.441406 13.820312 15.042969 13.535156 14.703125 13.28125 C 18.613281 10.3125 21.488281 7.140625 21.519531 7.101562 C 21.96875 6.636719 21.863281 6.070312 21.859375 6.050781 C 21.84375 5.929688 21.714844 5.863281 21.605469 5.976562 C 21.574219 6.011719 18.652344 9.238281 14 12.757812 C 9.347656 9.238281 6.425781 6.011719 6.390625 5.976562 C 6.285156 5.863281 6.15625 5.925781 6.140625 6.050781 C 6.136719 6.070312 6.03125 6.636719 6.480469 7.101562 C 6.511719 7.140625 9.386719 10.3125 13.296875 13.28125 M 6.234375 6.0625 C 6.25 5.964844 6.320312 6.039062 6.320312 6.039062 C 6.320312 6.039062 9.253906 9.296875 14 12.878906 C 18.746094 9.296875 21.675781 6.039062 21.675781 6.039062 C 21.675781 6.039062 21.75 5.964844 21.765625 6.0625 C 21.765625 6.0625 21.871094 6.601562 21.449219 7.039062 C 21.449219 7.039062 18.539062 10.269531 14.546875 13.285156 C 14.917969 13.5625 15.304688 13.835938 15.699219 14.113281 L 15.574219 14.785156 C 15.035156 14.429688 14.507812 14.0625 14 13.691406 C 13.488281 14.0625 12.964844 14.429688 12.425781 14.785156 L 12.304688 14.113281 C 12.695312 13.835938 13.078125 13.5625 13.453125 13.285156 C 9.460938 10.269531 6.550781 7.039062 6.550781 7.039062 C 6.128906 6.601562 6.234375 6.0625 6.234375 6.0625 "/>
<path style=" stroke:none;fill-rule:nonzero;fill:rgb(0%,17.647059%,38.431373%);fill-opacity:1;" d="M 15.007812 10.332031 C 16.660156 9.71875 18.488281 8.832031 18.382812 8.546875 C 18.292969 8.3125 16.996094 8.894531 14.738281 9.726562 C 13.683594 10.117188 13.472656 10.242188 13.539062 10.421875 C 13.585938 10.546875 13.789062 10.785156 15.007812 10.332031 M 14.769531 9.816406 C 16.664062 9.117188 18.253906 8.476562 18.292969 8.578125 C 18.371094 8.789062 16.121094 9.820312 14.976562 10.242188 C 13.828125 10.667969 13.65625 10.460938 13.628906 10.390625 C 13.582031 10.261719 13.925781 10.128906 14.769531 9.816406 "/>
<path style=" stroke:none;fill-rule:nonzero;fill:rgb(0%,17.647059%,38.431373%);fill-opacity:1;" d="M 18.9375 3.03125 C 19.003906 2.796875 17.9375 2.425781 16.777344 2.105469 C 15.1875 1.671875 14.609375 1.707031 14.613281 1.78125 C 14.617188 2.007812 15.222656 2.113281 16.589844 2.492188 C 18.074219 2.898438 18.863281 3.300781 18.9375 3.03125 M 16.75 2.199219 C 17.773438 2.480469 18.882812 2.878906 18.847656 3.007812 C 18.8125 3.136719 18.007812 2.78125 16.613281 2.398438 C 15.21875 2.015625 14.808594 1.910156 14.699219 1.808594 C 14.664062 1.777344 15.726562 1.917969 16.75 2.199219 "/>
</g>
</svg>
