<?xml version="1.0" encoding="UTF-8"?>
<svg xmlns="http://www.w3.org/2000/svg" xmlns:xlink="http://www.w3.org/1999/xlink" width="35pt" height="25pt" viewBox="0 0 35 25" version="1.1">
<g id="surface1">
<path style=" stroke:none;fill-rule:nonzero;fill:rgb(0%,0%,0%);fill-opacity:1;" d="M 8.910156 15.464844 C 8.347656 15.300781 8.09375 14.898438 8.09375 14.898438 C 8.398438 14.8125 8.546875 14.375 8.765625 14.324219 C 9.121094 14.242188 8.976562 14.589844 9.917969 15.058594 C 10.261719 15.21875 10.308594 15.234375 10.574219 15.285156 C 9.925781 15.605469 9.53125 15.644531 8.910156 15.464844 M 31.835938 10.453125 C 33.308594 5.179688 29.84375 0 23.5 0 C 19.675781 0 16.945312 2.597656 15.3125 2.597656 C 14.644531 2.597656 13.867188 1.265625 13.867188 1.265625 C 12.738281 1.917969 12.980469 3.101562 12.980469 3.101562 C 12.09375 2.578125 10.640625 2.589844 10.640625 2.589844 C 9.371094 2.597656 8.238281 3.414062 8.238281 3.414062 C 7.492188 3.960938 7.222656 4.640625 7.222656 4.640625 C 6.378906 4.886719 5.464844 5.746094 5.464844 5.746094 C 5.238281 5.972656 5.152344 6.042969 5.152344 6.042969 C 4.585938 6.46875 3.839844 6.496094 3.839844 6.496094 C 3.898438 7.09375 4.230469 7.695312 4.230469 7.695312 C 4.792969 8.546875 5.828125 8.710938 5.828125 8.710938 C 5.828125 8.710938 5.304688 9.265625 4.410156 9.539062 C 3.753906 9.742188 2.828125 9.886719 2.828125 9.886719 C 2.855469 10.105469 2.949219 10.269531 2.949219 10.269531 C 3.882812 11.792969 6.023438 11.707031 6.023438 11.707031 C 6.386719 11.75 7.003906 11.644531 7.003906 11.644531 C 6.742188 12.011719 6.4375 13.117188 6.4375 13.117188 C 6.308594 13.664062 6.03125 13.871094 6.03125 13.871094 C 5.742188 14.109375 4.96875 14.570312 4.96875 14.570312 C 5.308594 15.011719 6.195312 15.210938 6.195312 15.210938 C 6.210938 15.933594 6.476562 16.953125 6.476562 16.953125 C 5.273438 16.699219 4.644531 17.082031 4.644531 17.082031 C 4.992188 17.386719 5.253906 17.796875 5.253906 17.796875 C 5.671875 18.300781 5.761719 19.292969 5.761719 19.292969 C 5.847656 20.476562 6.210938 21.3125 6.5 21.746094 C 6.785156 22.179688 7.363281 22.605469 7.363281 22.605469 C 7.753906 22.9375 8.484375 23.101562 8.484375 23.101562 C 8.988281 23.242188 9.46875 23.136719 9.46875 23.136719 C 9.144531 23.40625 8.238281 23.753906 8.238281 23.753906 C 8.492188 24.304688 9.230469 24.617188 9.230469 24.617188 C 9.832031 24.957031 10.851562 25 10.851562 25 C 11.972656 24.992188 12.894531 24.085938 12.894531 24.085938 C 13.882812 23.1875 14.496094 22.894531 15.476562 22.96875 C 16.914062 23.078125 17.917969 24.277344 20.671875 24.277344 C 26.230469 24.277344 30.71875 18.957031 31.414062 14.324219 L 23.984375 14.324219 C 23.984375 14.324219 23.210938 17.042969 21.3125 17.042969 C 19.863281 17.042969 18.902344 15.871094 18.902344 13.972656 C 18.902344 11.484375 20.976562 7.140625 23.964844 7.140625 C 25.363281 7.140625 25.351562 8.835938 24.804688 10.457031 Z M 31.835938 10.453125 "/>
<path style=" stroke:none;fill-rule:nonzero;fill:rgb(100%,78.039216%,34.509804%);fill-opacity:1;" d="M 8.878906 15.773438 C 8.328125 15.660156 8.054688 15.324219 7.710938 14.886719 L 7.664062 14.8125 C 8.074219 14.679688 8.308594 14.214844 8.664062 13.992188 C 9.222656 13.820312 9.398438 14.613281 10.464844 14.949219 C 10.769531 15.101562 10.949219 15.125 11.265625 15.28125 C 10.527344 15.742188 9.84375 16.046875 8.878906 15.773438 M 31.59375 10.148438 C 32.878906 4.617188 29.089844 0.289062 23.511719 0.289062 C 19.957031 0.289062 17.105469 2.84375 15.382812 2.917969 C 14.664062 2.949219 13.796875 1.734375 13.796875 1.734375 C 12.824219 2.464844 13.539062 3.804688 13.539062 3.804688 C 12.09375 2.746094 10.472656 2.910156 10.472656 2.910156 C 8.054688 3.144531 7.464844 4.886719 7.464844 4.886719 C 6.054688 5.40625 5.570312 6.15625 5.570312 6.15625 C 4.699219 6.78125 4.195312 6.722656 4.195312 6.722656 C 4.523438 8.539062 6.421875 8.453125 6.421875 8.453125 C 5.671875 9.898438 3.238281 10.121094 3.238281 10.121094 C 4.105469 11.515625 6.175781 11.394531 6.175781 11.394531 C 6.886719 11.46875 7.847656 11.085938 8.324219 10.871094 C 8.003906 11.035156 7.859375 11.167969 7.859375 11.167969 C 6.945312 11.8125 6.964844 12.984375 6.492188 13.816406 C 6.3125 14.195312 5.785156 14.371094 5.496094 14.601562 C 5.808594 14.757812 6.167969 14.890625 6.507812 14.953125 C 6.5 15.535156 6.78125 16.945312 6.96875 17.507812 C 6.289062 17.003906 5.238281 17.230469 5.238281 17.230469 C 6.402344 18.683594 5.855469 19.578125 6.441406 20.929688 C 6.636719 21.597656 7.246094 22.171875 7.859375 22.578125 C 9.449219 23.292969 10.546875 22.355469 10.546875 22.355469 C 10.363281 23.234375 8.710938 23.894531 8.710938 23.894531 C 9.097656 24.316406 10.046875 24.636719 10.613281 24.675781 C 12.859375 24.824219 12.972656 22.382812 15.460938 22.636719 C 16.902344 22.785156 18.226562 23.996094 20.632812 23.996094 C 26.65625 23.996094 30.566406 17.898438 31.039062 14.621094 L 24.214844 14.621094 C 24.214844 14.621094 23.375 17.355469 21.347656 17.355469 C 19.246094 17.355469 18.582031 15.554688 18.582031 13.933594 C 18.582031 11.460938 20.632812 6.796875 23.980469 6.796875 C 25.554688 6.796875 25.796875 8.527344 25.242188 10.148438 Z M 31.59375 10.148438 "/>
<path style=" stroke:none;fill-rule:nonzero;fill:rgb(87.843137%,22.745098%,24.313725%);fill-opacity:1;" d="M 10.996094 6.675781 C 10.621094 6.617188 10.1875 6.433594 9.753906 6.542969 C 8.976562 6.652344 8.480469 7.414062 7.730469 7.558594 C 6.894531 7.875 5.664062 7.921875 5.007812 7.171875 C 5.007812 7.136719 4.949219 7.113281 4.960938 7.078125 C 6.027344 6.953125 6.582031 5.757812 7.621094 5.5625 C 8.867188 5.105469 10.140625 5.660156 10.9375 6.59375 C 10.9375 6.628906 10.984375 6.640625 10.996094 6.675781 "/>
<path style=" stroke:none;fill-rule:nonzero;fill:rgb(87.843137%,22.745098%,24.313725%);fill-opacity:1;" d="M 8.675781 20.238281 C 9.957031 20.976562 10.914062 19.546875 12.21875 20.03125 L 12.21875 20.078125 C 11.203125 20.453125 10.757812 21.566406 9.824219 22.050781 C 9.339844 22.28125 8.664062 22.28125 8.191406 22.027344 C 7.054688 21.410156 6.714844 20.042969 6.65625 18.785156 C 6.605469 18.480469 6.472656 18.214844 6.375 17.925781 C 7.527344 18.300781 7.539062 19.863281 8.675781 20.238281 "/>
<path style=" stroke:none;fill-rule:nonzero;fill:rgb(87.843137%,22.745098%,24.313725%);fill-opacity:1;" d="M 31.007812 9.457031 C 31.902344 5.46875 28.960938 0.976562 23.523438 0.949219 C 20.203125 0.933594 17.46875 3.589844 15.308594 3.589844 C 14.757812 3.589844 14.296875 3.253906 13.972656 2.84375 C 14.070312 4.027344 15.171875 5.019531 16.222656 5.417969 C 15.691406 5.453125 15.230469 5.25 14.757812 5.140625 C 13.34375 4.753906 12.339844 3.398438 10.71875 3.53125 C 9.582031 3.496094 8.578125 4.183594 8.023438 5.128906 C 8.300781 4.875 8.625 4.71875 8.976562 4.644531 C 9.8125 4.5 10.539062 4.875 11.082031 5.441406 C 11.757812 6.519531 12.507812 7.558594 13.621094 8.308594 C 12.824219 8.308594 12.121094 8.007812 11.421875 7.765625 C 9.980469 7.351562 8.273438 7.535156 7.1875 8.5625 C 6.628906 9.472656 5.699219 10.207031 4.671875 10.425781 L 4.671875 10.460938 L 4.972656 10.59375 C 6.160156 11.105469 7.464844 10.605469 8.457031 9.992188 C 9.144531 9.773438 9.96875 9.894531 10.453125 10.4375 C 10.792969 11.019531 11.421875 11.601562 11.976562 12.023438 C 11.832031 12.082031 11.6875 11.960938 11.515625 11.960938 C 10.5625 11.492188 9.121094 10.847656 8.15625 11.734375 C 7.246094 12.421875 7.707031 13.753906 6.738281 14.40625 C 7.417969 14.464844 7.804688 13.96875 8.191406 13.488281 C 9.160156 12.773438 9.777344 14.054688 10.550781 14.359375 C 11.371094 14.757812 12.460938 14.625 13.054688 15.46875 C 12.425781 15.589844 11.785156 15.699219 11.238281 16.027344 C 10.40625 16.546875 9.183594 16.632812 8.277344 16.195312 C 7.804688 15.941406 7.476562 15.589844 7.164062 15.15625 C 7.164062 15.167969 7.164062 15.191406 7.152344 15.203125 C 7.210938 16.996094 7.875 18.941406 9.726562 19.570312 C 10.984375 20.152344 12.339844 19.207031 13.574219 19.8125 C 12.921875 19.957031 12.316406 20.308594 11.929688 20.878906 C 11.289062 21.710938 11.300781 22.863281 10.5 23.574219 C 10.355469 23.707031 10.140625 23.78125 9.992188 23.890625 C 10.152344 23.960938 10.308594 24 10.488281 24.023438 C 11.371094 24.167969 12.121094 23.597656 12.617188 22.933594 C 13.332031 22.242188 14.417969 21.824219 15.28125 21.882812 C 17.023438 22 18.324219 23.265625 20.625 23.273438 C 25.207031 23.292969 29.253906 18.921875 30.113281 15.34375 L 24.707031 15.34375 C 24.707031 15.34375 23.722656 18.082031 21.339844 18.082031 C 18.367188 18.082031 17.851562 15.304688 17.851562 13.929688 C 17.851562 10.691406 20.386719 6.066406 23.972656 6.066406 C 25.671875 6.066406 26.675781 7.804688 26.121094 9.457031 L 31.007812 9.457031 "/>
</g>
</svg>
