<?xml version="1.0" encoding="UTF-8"?>
<svg xmlns="http://www.w3.org/2000/svg" xmlns:xlink="http://www.w3.org/1999/xlink" width="28pt" height="20pt" viewBox="0 0 28 20" version="1.1">
<g id="surface1">
<path style=" stroke:none;fill-rule:nonzero;fill:rgb(100%,100%,100%);fill-opacity:1;" d="M 7.21875 18.25 C 6.011719 18.25 4.9375 18.167969 4.019531 18 L 3.574219 17.921875 L 3.953125 17.671875 L 4.796875 17.125 C 4.304688 17.066406 3.546875 16.929688 2.777344 16.589844 C 1.59375 16.0625 0.179688 14.941406 0.179688 12.589844 C 0.179688 10.902344 0.890625 9.316406 2.292969 7.875 C 3.53125 6.601562 5.277344 5.464844 7.484375 4.496094 C 11.339844 2.800781 16.40625 1.75 20.707031 1.75 C 21.957031 1.75 23.074219 1.839844 24.027344 2.019531 L 24.46875 2.101562 L 24.089844 2.347656 L 23.25 2.890625 C 23.734375 2.953125 24.488281 3.105469 25.253906 3.457031 C 26.421875 3.996094 27.820312 5.128906 27.820312 7.453125 C 27.816406 9.152344 27.09375 10.746094 25.671875 12.1875 C 24.425781 13.457031 22.664062 14.585938 20.441406 15.546875 C 16.582031 17.214844 11.515625 18.25 7.21875 18.25 Z M 7.21875 18.25 "/>
<path style=" stroke:none;fill-rule:nonzero;fill:rgb(55.686275%,55.686275%,56.862745%);fill-opacity:1;" d="M 20.707031 1.929688 C 21.929688 1.929688 23.042969 2.019531 23.992188 2.195312 L 22.710938 3.023438 C 22.710938 3.023438 27.640625 3.136719 27.640625 7.453125 C 27.617188 14.445312 15.078125 18.070312 7.21875 18.070312 C 6.039062 18.070312 4.964844 17.988281 4.050781 17.824219 L 5.34375 16.984375 C 5.34375 16.984375 0.359375 16.957031 0.359375 12.589844 C 0.359375 5.65625 12.765625 1.929688 20.707031 1.929688 M 20.707031 1.570312 C 16.382812 1.570312 11.289062 2.628906 7.410156 4.332031 C 5.183594 5.308594 3.417969 6.460938 2.164062 7.75 C 0.726562 9.226562 0 10.855469 0 12.589844 C 0 14.527344 0.933594 15.96875 2.707031 16.753906 C 3.273438 17.003906 3.839844 17.148438 4.300781 17.234375 L 3.855469 17.523438 L 3.097656 18.019531 L 3.988281 18.179688 C 4.914062 18.34375 6 18.429688 7.21875 18.429688 C 11.539062 18.429688 16.632812 17.390625 20.511719 15.714844 C 22.757812 14.742188 24.535156 13.597656 25.800781 12.3125 C 27.253906 10.835938 27.996094 9.203125 28 7.453125 C 28 5.539062 27.074219 4.097656 25.328125 3.292969 C 24.761719 3.03125 24.195312 2.878906 23.738281 2.789062 L 24.1875 2.496094 L 24.945312 2.007812 L 24.058594 1.84375 C 23.097656 1.660156 21.96875 1.570312 20.707031 1.570312 Z M 20.707031 1.570312 "/>
<path style=" stroke:none;fill-rule:nonzero;fill:rgb(13.72549%,12.156863%,12.54902%);fill-opacity:1;" d="M 22.195312 2.570312 C 22.195312 2.570312 21.5625 2.46875 20.34375 2.46875 C 13.914062 2.46875 1.054688 5.824219 1.054688 12.460938 C 1.054688 16.085938 4.625 16.519531 6.578125 16.519531 C 9.949219 16.519531 13.972656 15.25 15.59375 14.335938 C 15.59375 14.335938 9.554688 16.734375 4.453125 15.003906 C 5.457031 15.164062 7.757812 14.851562 8.667969 14.464844 C 8.667969 14.464844 6.125 14.046875 6.125 11.433594 C 6.125 4.914062 20.578125 2.570312 22.195312 2.570312 Z M 22.195312 2.570312 "/>
<path style=" stroke:none;fill-rule:nonzero;fill:rgb(13.72549%,12.156863%,12.54902%);fill-opacity:1;" d="M 7.976562 11.652344 C 8.648438 10.433594 8.664062 9.664062 9.4375 8.753906 C 10.773438 7.234375 15 6.085938 17.300781 6.085938 C 19.621094 6.085938 20.433594 7.582031 20.449219 8.527344 C 20.449219 11.207031 14.859375 13.390625 14.867188 13.390625 C 20.257812 9.765625 20.070312 7.691406 16.964844 7.691406 C 14.394531 7.691406 9.632812 9.378906 7.976562 11.652344 Z M 7.976562 11.652344 "/>
<path style=" stroke:none;fill-rule:nonzero;fill:rgb(88.235294%,22.745098%,24.313725%);fill-opacity:1;" d="M 5.8125 17.445312 C 5.8125 17.445312 6.449219 17.546875 7.664062 17.546875 C 14.097656 17.546875 26.957031 14.195312 26.957031 7.554688 C 26.957031 3.933594 23.386719 3.496094 21.433594 3.496094 C 18.058594 3.496094 14.035156 4.769531 12.414062 5.679688 C 12.414062 5.679688 18.453125 3.28125 23.554688 5.011719 C 22.554688 4.851562 20.25 5.167969 19.34375 5.550781 C 19.34375 5.550781 21.882812 5.972656 21.882812 8.582031 C 21.882812 15.101562 7.433594 17.445312 5.8125 17.445312 Z M 5.8125 17.445312 "/>
<path style=" stroke:none;fill-rule:nonzero;fill:rgb(88.235294%,22.745098%,24.313725%);fill-opacity:1;" d="M 19.191406 8.640625 C 18.808594 7.566406 15.808594 7.703125 13.003906 8.671875 C 9.992188 9.757812 7.859375 11.476562 8.242188 12.546875 C 8.628906 13.617188 11.628906 13.53125 14.398438 12.527344 C 17.410156 11.441406 19.578125 9.710938 19.191406 8.640625 Z M 19.191406 8.640625 "/>
<path style=" stroke:none;fill-rule:nonzero;fill:rgb(13.72549%,12.156863%,12.54902%);fill-opacity:1;" d="M 13.386719 9.863281 C 12.117188 10.285156 11.203125 10.964844 11.34375 11.382812 C 11.484375 11.800781 12.621094 11.796875 13.890625 11.375 C 15.15625 10.949219 16.070312 10.269531 15.929688 9.851562 C 15.792969 9.433594 14.652344 9.4375 13.386719 9.863281 Z M 13.386719 9.863281 "/>
</g>
</svg>
