<?xml version="1.0" encoding="UTF-8"?>
<svg xmlns="http://www.w3.org/2000/svg" xmlns:xlink="http://www.w3.org/1999/xlink" width="35pt" height="25pt" viewBox="0 0 35 25" version="1.1">
<g id="surface1">
<path style=" stroke:none;fill-rule:nonzero;fill:rgb(100%,100%,100%);fill-opacity:1;" d="M 9.023438 22.8125 C 7.515625 22.8125 6.167969 22.707031 5.027344 22.5 L 4.46875 22.402344 L 4.941406 22.09375 L 5.996094 21.40625 C 5.382812 21.335938 4.433594 21.160156 3.472656 20.734375 C 1.992188 20.078125 0.226562 18.679688 0.226562 15.738281 C 0.226562 13.628906 1.113281 11.648438 2.867188 9.84375 C 4.414062 8.253906 6.59375 6.832031 9.355469 5.621094 C 14.171875 3.503906 20.507812 2.1875 25.886719 2.1875 C 27.449219 2.1875 28.84375 2.300781 30.03125 2.523438 L 30.585938 2.628906 L 30.113281 2.933594 L 29.0625 3.613281 C 29.667969 3.691406 30.613281 3.878906 31.566406 4.320312 C 33.03125 4.996094 34.773438 6.410156 34.773438 9.316406 C 34.769531 11.441406 33.867188 13.429688 32.09375 15.234375 C 30.53125 16.820312 28.332031 18.234375 25.550781 19.4375 C 20.726562 21.519531 14.394531 22.8125 9.023438 22.8125 Z M 9.023438 22.8125 "/>
<path style=" stroke:none;fill-rule:nonzero;fill:rgb(55.686275%,55.686275%,56.862745%);fill-opacity:1;" d="M 25.886719 2.410156 C 27.410156 2.410156 28.804688 2.523438 29.992188 2.746094 L 28.390625 3.777344 C 28.390625 3.777344 34.550781 3.921875 34.550781 9.316406 C 34.523438 18.054688 18.847656 22.589844 9.019531 22.589844 C 7.546875 22.589844 6.203125 22.484375 5.066406 22.28125 L 6.679688 21.230469 C 6.679688 21.230469 0.449219 21.195312 0.449219 15.738281 C 0.449219 7.070312 15.957031 2.410156 25.886719 2.410156 M 25.886719 1.960938 C 20.476562 1.960938 14.109375 3.285156 9.261719 5.414062 C 6.476562 6.636719 4.273438 8.074219 2.707031 9.6875 C 0.910156 11.535156 0 13.570312 0 15.738281 C 0 18.160156 1.167969 19.960938 3.382812 20.941406 C 4.09375 21.257812 4.800781 21.4375 5.378906 21.539062 L 4.820312 21.902344 L 3.871094 22.523438 L 4.984375 22.722656 C 6.144531 22.933594 7.5 23.039062 9.019531 23.039062 C 14.421875 23.039062 20.789062 21.738281 25.636719 19.640625 C 28.445312 18.429688 30.671875 17 32.253906 15.390625 C 34.070312 13.546875 34.992188 11.5 35 9.316406 C 35 6.921875 33.84375 5.125 31.660156 4.117188 C 30.949219 3.789062 30.246094 3.597656 29.671875 3.484375 L 30.234375 3.121094 L 31.183594 2.511719 L 30.074219 2.300781 C 28.871094 2.078125 27.460938 1.960938 25.886719 1.960938 Z M 25.886719 1.960938 "/>
<path style=" stroke:none;fill-rule:nonzero;fill:rgb(13.72549%,12.156863%,12.54902%);fill-opacity:1;" d="M 27.742188 3.214844 C 27.742188 3.214844 26.949219 3.085938 25.429688 3.085938 C 17.390625 3.085938 1.316406 7.28125 1.316406 15.578125 C 1.316406 20.105469 5.78125 20.652344 8.21875 20.652344 C 12.4375 20.652344 17.46875 19.0625 19.492188 17.921875 C 19.492188 17.921875 11.945312 20.917969 5.566406 18.757812 C 6.820312 18.957031 9.699219 18.5625 10.832031 18.082031 C 10.832031 18.082031 7.660156 17.558594 7.660156 14.292969 C 7.660156 6.144531 25.722656 3.214844 27.742188 3.214844 Z M 27.742188 3.214844 "/>
<path style=" stroke:none;fill-rule:nonzero;fill:rgb(13.72549%,12.156863%,12.54902%);fill-opacity:1;" d="M 9.96875 14.566406 C 10.808594 13.042969 10.832031 12.078125 11.796875 10.941406 C 13.46875 9.042969 18.753906 7.605469 21.625 7.605469 C 24.527344 7.605469 25.542969 9.480469 25.558594 10.660156 C 25.558594 14.007812 18.574219 16.738281 18.585938 16.738281 C 25.324219 12.207031 25.089844 9.613281 21.203125 9.613281 C 17.992188 9.613281 12.042969 11.722656 9.96875 14.566406 Z M 9.96875 14.566406 "/>
<path style=" stroke:none;fill-rule:nonzero;fill:rgb(88.235294%,22.745098%,24.313725%);fill-opacity:1;" d="M 7.269531 21.808594 C 7.269531 21.808594 8.058594 21.933594 9.578125 21.933594 C 17.621094 21.933594 33.695312 17.742188 33.695312 9.445312 C 33.695312 4.917969 29.230469 4.371094 26.789062 4.371094 C 22.574219 4.371094 17.542969 5.960938 15.519531 7.101562 C 15.519531 7.101562 23.066406 4.105469 29.445312 6.265625 C 28.191406 6.066406 25.3125 6.457031 24.175781 6.941406 C 24.175781 6.941406 27.351562 7.464844 27.351562 10.730469 C 27.351562 18.878906 9.289062 21.808594 7.269531 21.808594 Z M 7.269531 21.808594 "/>
<path style=" stroke:none;fill-rule:nonzero;fill:rgb(88.235294%,22.745098%,24.313725%);fill-opacity:1;" d="M 23.992188 10.796875 C 23.511719 9.460938 19.761719 9.628906 16.257812 10.839844 C 12.488281 12.195312 9.824219 14.34375 10.304688 15.683594 C 10.785156 17.023438 14.535156 16.914062 17.996094 15.65625 C 21.761719 14.304688 24.472656 12.136719 23.992188 10.796875 Z M 23.992188 10.796875 "/>
<path style=" stroke:none;fill-rule:nonzero;fill:rgb(13.72549%,12.156863%,12.54902%);fill-opacity:1;" d="M 16.730469 12.328125 C 15.148438 12.855469 14.007812 13.707031 14.179688 14.226562 C 14.355469 14.75 15.777344 14.746094 17.363281 14.214844 C 18.945312 13.6875 20.085938 12.835938 19.914062 12.316406 C 19.738281 11.792969 18.316406 11.796875 16.730469 12.328125 Z M 16.730469 12.328125 "/>
</g>
</svg>
