<?xml version="1.0" encoding="UTF-8"?>
<svg xmlns="http://www.w3.org/2000/svg" xmlns:xlink="http://www.w3.org/1999/xlink" width="32pt" height="20pt" viewBox="0 0 32 20" version="1.1">
<g id="surface1">
<path style=" stroke:none;fill-rule:nonzero;fill:rgb(100%,100%,100%);fill-opacity:1;" d="M 8.71875 19.039062 C 7.410156 19.039062 6.242188 18.949219 5.25 18.765625 L 4.765625 18.679688 L 5.175781 18.410156 L 6.089844 17.8125 C 5.558594 17.75 4.734375 17.597656 3.902344 17.226562 C 2.613281 16.65625 1.082031 15.433594 1.082031 12.871094 C 1.082031 11.035156 1.851562 9.304688 3.375 7.730469 C 4.714844 6.34375 6.609375 5.105469 9.003906 4.050781 C 13.1875 2.203125 18.6875 1.058594 23.355469 1.058594 C 24.710938 1.058594 25.921875 1.15625 26.957031 1.351562 L 27.4375 1.441406 L 27.027344 1.707031 L 26.113281 2.300781 C 26.640625 2.371094 27.457031 2.535156 28.285156 2.917969 C 29.558594 3.503906 31.074219 4.738281 31.074219 7.273438 C 31.066406 9.125 30.28125 10.859375 28.742188 12.433594 C 27.390625 13.816406 25.476562 15.046875 23.0625 16.09375 C 18.878906 17.910156 13.382812 19.039062 8.71875 19.039062 Z M 8.71875 19.039062 "/>
<path style=" stroke:none;fill-rule:nonzero;fill:rgb(55.686275%,55.686275%,56.862745%);fill-opacity:1;" d="M 23.355469 1.253906 C 24.679688 1.253906 25.890625 1.347656 26.917969 1.542969 L 25.53125 2.445312 C 25.53125 2.445312 30.878906 2.570312 30.878906 7.273438 C 30.851562 14.890625 17.246094 18.84375 8.71875 18.84375 C 7.4375 18.84375 6.269531 18.753906 5.28125 18.574219 L 6.683594 17.65625 C 6.683594 17.65625 1.277344 17.628906 1.277344 12.871094 C 1.277344 5.316406 14.738281 1.253906 23.355469 1.253906 M 23.355469 0.863281 C 18.664062 0.863281 13.132812 2.015625 8.925781 3.871094 C 6.507812 4.9375 4.59375 6.191406 3.234375 7.59375 C 1.675781 9.207031 0.886719 10.980469 0.886719 12.871094 C 0.886719 14.984375 1.902344 16.550781 3.820312 17.40625 C 4.441406 17.683594 5.054688 17.839844 5.554688 17.929688 L 5.070312 18.246094 L 4.246094 18.785156 L 5.214844 18.960938 C 6.21875 19.144531 7.398438 19.234375 8.71875 19.234375 C 13.40625 19.234375 18.933594 18.101562 23.140625 16.273438 C 25.578125 15.214844 27.511719 13.96875 28.882812 12.570312 C 30.460938 10.960938 31.261719 9.179688 31.269531 7.273438 C 31.269531 5.183594 30.265625 3.617188 28.367188 2.738281 C 27.753906 2.453125 27.140625 2.285156 26.644531 2.1875 L 27.132812 1.871094 L 27.953125 1.339844 L 26.992188 1.160156 C 25.945312 0.960938 24.722656 0.863281 23.355469 0.863281 Z M 23.355469 0.863281 "/>
<path style=" stroke:none;fill-rule:nonzero;fill:rgb(13.72549%,12.156863%,12.54902%);fill-opacity:1;" d="M 24.96875 1.953125 C 24.96875 1.953125 24.28125 1.84375 22.960938 1.84375 C 15.980469 1.84375 2.027344 5.496094 2.027344 12.730469 C 2.027344 16.679688 5.902344 17.152344 8.023438 17.152344 C 11.683594 17.152344 16.050781 15.769531 17.804688 14.773438 C 17.804688 14.773438 11.253906 17.386719 5.71875 15.503906 C 6.804688 15.675781 9.304688 15.335938 10.289062 14.914062 C 10.289062 14.914062 7.535156 14.457031 7.535156 11.613281 C 7.535156 4.507812 23.210938 1.953125 24.96875 1.953125 Z M 24.96875 1.953125 "/>
<path style=" stroke:none;fill-rule:nonzero;fill:rgb(13.72549%,12.156863%,12.54902%);fill-opacity:1;" d="M 9.539062 11.847656 C 10.269531 10.519531 10.289062 9.679688 11.125 8.691406 C 12.574219 7.035156 17.164062 5.78125 19.660156 5.78125 C 22.175781 5.78125 23.058594 7.414062 23.074219 8.445312 C 23.074219 11.363281 17.007812 13.742188 17.019531 13.742188 C 22.867188 9.792969 22.664062 7.53125 19.292969 7.53125 C 16.503906 7.53125 11.339844 9.371094 9.539062 11.847656 Z M 9.539062 11.847656 "/>
<path style=" stroke:none;fill-rule:nonzero;fill:rgb(88.235294%,22.745098%,24.313725%);fill-opacity:1;" d="M 7.195312 18.160156 C 7.195312 18.160156 7.882812 18.273438 9.203125 18.273438 C 16.179688 18.273438 30.132812 14.617188 30.132812 7.382812 C 30.132812 3.4375 26.261719 2.960938 24.140625 2.960938 C 20.480469 2.960938 16.113281 4.347656 14.359375 5.339844 C 14.359375 5.339844 20.910156 2.726562 26.445312 4.613281 C 25.355469 4.4375 22.859375 4.78125 21.875 5.203125 C 21.875 5.203125 24.628906 5.660156 24.628906 8.503906 C 24.628906 15.609375 8.949219 18.160156 7.195312 18.160156 Z M 7.195312 18.160156 "/>
<path style=" stroke:none;fill-rule:nonzero;fill:rgb(88.235294%,22.745098%,24.313725%);fill-opacity:1;" d="M 21.710938 8.566406 C 21.292969 7.398438 18.039062 7.546875 14.996094 8.601562 C 11.726562 9.78125 9.414062 11.65625 9.832031 12.824219 C 10.25 13.992188 13.503906 13.898438 16.507812 12.800781 C 19.777344 11.621094 22.128906 9.734375 21.710938 8.566406 Z M 21.710938 8.566406 "/>
<path style=" stroke:none;fill-rule:nonzero;fill:rgb(13.72549%,12.156863%,12.54902%);fill-opacity:1;" d="M 18.171875 9.886719 C 18.023438 9.429688 16.785156 9.4375 15.410156 9.894531 C 14.035156 10.355469 13.042969 11.097656 13.195312 11.554688 C 13.347656 12.007812 14.582031 12.003906 15.957031 11.542969 C 17.332031 11.082031 18.324219 10.339844 18.171875 9.886719 Z M 18.171875 9.886719 "/>
</g>
</svg>
