<?xml version="1.0" encoding="UTF-8"?>
<svg xmlns="http://www.w3.org/2000/svg" xmlns:xlink="http://www.w3.org/1999/xlink" width="28pt" height="25pt" viewBox="0 0 28 25" version="1.1">
<defs>
<clipPath id="clip1">
  <path d="M 0 3 L 14 3 L 14 24.980469 L 0 24.980469 Z M 0 3 "/>
</clipPath>
<clipPath id="clip2">
  <path d="M 0 0 L 28 0 L 28 24.980469 L 0 24.980469 Z M 0 0 "/>
</clipPath>
</defs>
<g id="surface1">
<path style=" stroke:none;fill-rule:nonzero;fill:rgb(100%,100%,100%);fill-opacity:1;" d="M 5.742188 9.542969 C 6.011719 9.453125 6.011719 9.484375 5.773438 9.359375 C 5.53125 9.234375 4.609375 8.933594 4.609375 8.933594 C 4.609375 8.933594 4.546875 9.207031 4.578125 9.296875 C 4.609375 9.390625 4.609375 9.613281 4.578125 9.734375 C 4.578125 9.734375 5.472656 9.636719 5.742188 9.542969 "/>
<path style=" stroke:none;fill-rule:nonzero;fill:rgb(100%,100%,100%);fill-opacity:1;" d="M 6.535156 11.0625 C 6.179688 11.285156 5.839844 11.347656 5.207031 11.386719 C 5.261719 11.511719 5.410156 11.621094 5.628906 11.605469 C 5.40625 11.808594 5.300781 11.964844 5.277344 12.085938 C 5.785156 11.847656 6.152344 11.734375 6.835938 11.773438 C 7.945312 11.832031 7.96875 11.328125 7.699219 10.898438 C 7.429688 10.46875 6.824219 10.878906 6.535156 11.0625 "/>
<path style=" stroke:none;fill-rule:nonzero;fill:rgb(100%,100%,100%);fill-opacity:1;" d="M 15.824219 10.335938 L 14.832031 10.804688 C 14.761719 10.917969 14.695312 11.03125 14.625 11.144531 L 15.710938 10.617188 C 15.484375 11.191406 15.265625 11.792969 15.074219 12.359375 C 14.726562 12.597656 13.96875 12.878906 13.6875 12.980469 C 13.65625 13.058594 13.625 13.136719 13.59375 13.210938 C 13.886719 13.113281 14.640625 12.851562 14.984375 12.617188 C 14.671875 13.542969 14.4375 14.332031 14.363281 14.636719 C 14.351562 14.683594 14.382812 14.734375 14.429688 14.746094 C 14.480469 14.757812 14.527344 14.730469 14.539062 14.679688 C 14.609375 14.386719 14.832031 13.675781 15.117188 12.835938 C 15.257812 13.222656 15.550781 13.710938 15.824219 14.011719 C 15.882812 13.957031 15.925781 13.917969 15.953125 13.894531 C 15.953125 13.886719 15.957031 13.882812 15.957031 13.878906 C 15.660156 13.558594 15.363281 12.925781 15.238281 12.492188 C 15.414062 11.980469 15.609375 11.4375 15.804688 10.925781 C 15.914062 11.195312 16.21875 11.691406 16.34375 11.890625 C 16.367188 11.792969 16.390625 11.691406 16.414062 11.589844 C 16.285156 11.398438 15.980469 10.925781 15.910156 10.652344 C 16.234375 9.824219 16.550781 9.097656 16.78125 8.742188 C 16.851562 8.636719 16.953125 8.351562 16.871094 8.316406 C 16.554688 8.691406 16.183594 9.457031 15.824219 10.335938 "/>
<path style=" stroke:none;fill-rule:nonzero;fill:rgb(100%,100%,100%);fill-opacity:1;" d="M 26.875 16.078125 C 26.824219 16.066406 26.777344 16.050781 26.722656 16.039062 C 26.261719 15.9375 25.71875 15.816406 24.949219 14.820312 L 25.351562 13.574219 C 25.648438 14.089844 25.863281 14.480469 25.945312 14.660156 C 25.96875 14.707031 26.019531 14.726562 26.066406 14.707031 C 26.109375 14.683594 26.128906 14.628906 26.109375 14.582031 C 26.023438 14.390625 25.796875 13.980469 25.488281 13.453125 L 26.628906 13.664062 C 26.847656 14.4375 26.945312 15.246094 26.875 16.078125 M 23.429688 12.210938 L 23.851562 11.035156 C 24.351562 11.867188 24.84375 12.699219 25.230469 13.367188 L 24.816406 14.644531 C 24.417969 14.097656 23.960938 13.320312 23.429688 12.210938 M 22.308594 9.648438 L 22.46875 8.753906 C 22.835938 9.355469 23.28125 10.089844 23.730469 10.835938 L 23.320312 11.980469 C 23.007812 11.320312 22.671875 10.550781 22.308594 9.648438 M 21.042969 6.320312 C 21.035156 6.265625 21.058594 6.222656 21.121094 6.277344 C 21.28125 6.429688 21.460938 6.601562 21.664062 6.796875 C 22.195312 7.300781 22.855469 7.925781 23.523438 8.648438 L 22.449219 8.378906 C 22.066406 7.746094 21.796875 7.3125 21.753906 7.246094 C 21.726562 7.203125 21.667969 7.191406 21.628906 7.222656 C 21.585938 7.25 21.574219 7.304688 21.601562 7.347656 C 21.671875 7.457031 21.949219 7.902344 22.328125 8.519531 L 22.179688 9.332031 C 21.828125 8.453125 21.453125 7.453125 21.042969 6.320312 M 25.519531 11.21875 L 23.871094 10.71875 C 23.410156 9.957031 22.957031 9.207031 22.585938 8.601562 L 23.746094 8.894531 C 24.375 9.589844 24.996094 10.371094 25.519531 11.21875 M 25.660156 11.449219 C 26.035156 12.085938 26.351562 12.761719 26.570312 13.464844 L 25.367188 13.242188 C 24.984375 12.582031 24.5 11.765625 24.011719 10.953125 L 25.640625 11.449219 C 25.648438 11.449219 25.652344 11.449219 25.660156 11.449219 M 21.785156 6.660156 C 21.398438 6.292969 21.082031 5.996094 20.875 5.761719 C 20.832031 5.835938 20.78125 5.90625 20.726562 5.964844 C 24.167969 15.664062 25.5625 15.976562 26.6875 16.222656 C 26.773438 16.242188 26.855469 16.257812 26.933594 16.28125 L 27.035156 16.308594 L 27.046875 16.203125 C 27.472656 12.046875 23.773438 8.542969 21.785156 6.660156 "/>
<path style=" stroke:none;fill-rule:nonzero;fill:rgb(100%,100%,100%);fill-opacity:1;" d="M 3.347656 17.761719 C 3.300781 17.738281 3.238281 17.753906 3.253906 17.824219 C 3.253906 17.824219 3.359375 18.328125 3.359375 18.542969 C 3.359375 18.636719 3.351562 18.71875 3.335938 18.792969 C 3.726562 20.109375 4.953125 19.382812 4.0625 18.351562 C 3.761719 18.21875 3.527344 17.839844 3.347656 17.761719 "/>
<path style=" stroke:none;fill-rule:nonzero;fill:rgb(99.607843%,87.843137%,6.666667%);fill-opacity:1;" d="M 21.757812 16.835938 C 21.644531 16.589844 21.503906 15.925781 21.34375 15.027344 L 20.726562 15.8125 C 20.910156 16.398438 21.132812 16.964844 21.398438 17.496094 Z M 21.757812 16.835938 "/>
<path style=" stroke:none;fill-rule:nonzero;fill:rgb(99.607843%,87.843137%,6.666667%);fill-opacity:1;" d="M 21.199219 13.046875 C 21.296875 13.671875 21.394531 14.265625 21.484375 14.792969 L 22.722656 15.480469 C 22.703125 15 22.652344 14.457031 22.554688 13.851562 Z M 21.199219 13.046875 "/>
<path style=" stroke:none;fill-rule:nonzero;fill:rgb(99.607843%,87.843137%,6.666667%);fill-opacity:1;" d="M 20.007812 12.003906 C 20.058594 12.539062 20.125 13.082031 20.214844 13.621094 L 20.980469 12.835938 C 20.90625 12.339844 20.824219 11.824219 20.746094 11.300781 Z M 20.007812 12.003906 "/>
<path style=" stroke:none;fill-rule:nonzero;fill:rgb(99.607843%,87.843137%,6.666667%);fill-opacity:1;" d="M 20.515625 6.132812 C 20.433594 6.179688 20.339844 6.21875 20.246094 6.242188 C 20.558594 6.941406 20.839844 7.601562 21.089844 8.226562 C 20.898438 7.578125 20.703125 6.882812 20.515625 6.132812 "/>
<path style=" stroke:none;fill-rule:nonzero;fill:rgb(99.607843%,87.843137%,6.666667%);fill-opacity:1;" d="M 20.351562 7.5625 C 20.488281 8.414062 20.644531 9.429688 20.800781 10.476562 C 20.832031 10.683594 20.867188 10.894531 20.898438 11.109375 L 22.109375 11.804688 C 21.777344 10.570312 21.285156 9.136719 20.578125 7.460938 C 20.484375 7.234375 20.304688 7.339844 20.351562 7.5625 "/>
<path style=" stroke:none;fill-rule:nonzero;fill:rgb(99.607843%,87.843137%,6.666667%);fill-opacity:1;" d="M 20.933594 11.339844 C 21.007812 11.835938 21.085938 12.328125 21.160156 12.808594 L 22.515625 13.613281 C 22.433594 13.132812 22.320312 12.617188 22.175781 12.054688 Z M 20.933594 11.339844 "/>
<path style=" stroke:none;fill-rule:nonzero;fill:rgb(99.607843%,87.843137%,6.666667%);fill-opacity:1;" d="M 20.710938 11.082031 C 20.683594 10.890625 20.652344 10.695312 20.625 10.503906 C 20.464844 9.457031 20.3125 8.441406 20.171875 7.59375 C 20.140625 7.402344 19.941406 7.390625 19.925781 7.664062 C 19.878906 8.761719 19.859375 10.21875 19.988281 11.773438 Z M 20.710938 11.082031 "/>
<path style=" stroke:none;fill-rule:nonzero;fill:rgb(99.607843%,87.843137%,6.666667%);fill-opacity:1;" d="M 21.300781 14.789062 C 21.210938 14.269531 21.117188 13.683594 21.015625 13.058594 L 20.253906 13.84375 C 20.359375 14.4375 20.492188 15.027344 20.664062 15.601562 Z M 21.300781 14.789062 "/>
<path style=" stroke:none;fill-rule:nonzero;fill:rgb(99.607843%,87.843137%,6.666667%);fill-opacity:1;" d="M 23.492188 14.429688 C 23.152344 13.914062 22.753906 13.136719 22.46875 12.476562 C 23.367188 16.285156 22.667969 17.996094 22.339844 18.796875 L 22.269531 18.964844 C 22.269531 18.964844 22.214844 19.109375 22.214844 19.109375 L 22.117188 18.988281 C 19.253906 15.359375 19.675781 8.613281 19.816406 6.398438 C 19.816406 6.34375 19.820312 6.292969 19.824219 6.246094 C 19.800781 6.242188 19.78125 6.234375 19.757812 6.226562 L 19.578125 6.28125 C 19.488281 6.742188 19.488281 11.328125 19.609375 12.714844 C 19.726562 14.097656 20.058594 15.882812 20.085938 16.621094 C 20.148438 16.777344 20.890625 17.992188 21.167969 18.53125 C 21.4375 19.054688 21.828125 19.699219 21.917969 20.316406 C 23.480469 18.835938 23.765625 16.453125 23.492188 14.429688 "/>
<path style=" stroke:none;fill-rule:nonzero;fill:rgb(99.607843%,87.843137%,6.666667%);fill-opacity:1;" d="M 22.726562 15.691406 L 21.527344 15.023438 C 21.6875 15.929688 21.828125 16.589844 21.929688 16.78125 L 22.589844 17.375 C 22.675781 16.925781 22.734375 16.371094 22.726562 15.691406 "/>
<path style=" stroke:none;fill-rule:nonzero;fill:rgb(99.607843%,87.843137%,6.666667%);fill-opacity:1;" d="M 22.171875 18.726562 C 22.28125 18.460938 22.429688 18.09375 22.546875 17.582031 L 21.882812 16.984375 L 21.496094 17.691406 C 21.695312 18.066406 21.917969 18.417969 22.164062 18.746094 Z M 22.171875 18.726562 "/>
<path style=" stroke:none;fill-rule:nonzero;fill:rgb(99.607843%,87.843137%,6.666667%);fill-opacity:1;" d="M 19.207031 18.757812 C 18.820312 18.578125 18.414062 18.316406 18.160156 18.054688 C 18.109375 17.546875 18.085938 16.757812 18.09375 15.832031 C 18.421875 16.128906 19.039062 16.519531 19.261719 16.65625 C 19.300781 17.449219 19.273438 18.148438 19.207031 18.757812 M 19.011719 19.941406 C 18.792969 20.171875 18.347656 19.660156 18.167969 19.320312 L 18.109375 19.503906 C 17.832031 20.070312 17.625 19.992188 17.476562 19.8125 C 17.390625 19.449219 17.320312 19.078125 17.261719 18.699219 C 17.445312 18.601562 17.871094 18.355469 18.0625 18.203125 C 18.304688 18.46875 19.007812 18.867188 19.179688 18.964844 C 19.136719 19.324219 19.078125 19.648438 19.011719 19.941406 M 17.078125 16.269531 L 17.878906 15.707031 C 17.875 16.632812 17.90625 17.433594 17.972656 18 C 17.773438 18.191406 17.402344 18.402344 17.234375 18.496094 C 17.132812 17.78125 17.082031 17.039062 17.078125 16.269531 M 17.222656 13.789062 C 17.375 13.679688 17.785156 13.382812 17.960938 13.179688 C 17.914062 13.972656 17.890625 14.757812 17.882812 15.476562 C 17.699219 15.640625 17.292969 15.933594 17.078125 16.082031 C 17.082031 15.339844 17.128906 14.574219 17.222656 13.789062 M 17.339844 12.878906 C 17.511719 11.773438 17.734375 10.828125 18.039062 9.84375 C 18.101562 9.582031 18.308594 9.550781 18.277344 9.828125 C 18.144531 10.773438 18.042969 11.839844 17.976562 12.898438 C 17.871094 13.066406 17.421875 13.417969 17.246094 13.550781 C 17.273438 13.328125 17.308594 13.105469 17.339844 12.878906 M 18.738281 9.910156 C 18.789062 11.195312 18.882812 12.660156 18.96875 13.710938 C 18.757812 13.582031 18.410156 13.324219 18.179688 13.101562 C 18.242188 11.957031 18.335938 10.800781 18.464844 9.808594 C 18.527344 9.488281 18.707031 9.585938 18.738281 9.910156 M 19.097656 15.035156 C 19.171875 15.53125 19.21875 16 19.25 16.4375 C 18.941406 16.261719 18.390625 15.871094 18.097656 15.566406 C 18.105469 14.871094 18.128906 14.109375 18.167969 13.335938 C 18.410156 13.5625 18.777344 13.828125 18.992188 13.960938 C 19.03125 14.464844 19.070312 14.851562 19.097656 15.035156 M 18.917969 6.796875 C 18.121094 8.832031 17.472656 10.847656 17.164062 12.847656 C 16.621094 16.371094 16.90625 19.46875 18.019531 22.058594 C 18.023438 22.109375 18.109375 22.195312 18.199219 22.222656 C 18.300781 22.257812 18.324219 22.160156 18.390625 22.0625 C 18.554688 21.824219 19.960938 19.601562 19.277344 15.007812 C 19.140625 14.101562 18.742188 7.59375 18.917969 6.796875 "/>
<path style=" stroke:none;fill-rule:nonzero;fill:rgb(99.607843%,87.843137%,6.666667%);fill-opacity:1;" d="M 14.179688 18.953125 C 14.171875 18.777344 14.210938 18.710938 14.230469 18.691406 C 14.425781 18.625 14.578125 18.871094 14.691406 19.210938 C 14.730469 19.457031 14.742188 19.671875 14.738281 19.863281 C 14.460938 19.628906 14.195312 19.316406 14.179688 18.953125 M 17.128906 5.898438 L 17.128906 5.925781 C 17.226562 5.921875 17.304688 5.835938 17.300781 5.734375 C 17.296875 5.632812 17.214844 5.554688 17.113281 5.558594 C 15.378906 5.511719 12.769531 5.753906 11.21875 6.09375 C 11.140625 5.316406 10.902344 4.847656 10.628906 4.3125 C 10.464844 3.996094 10.296875 3.667969 10.148438 3.234375 C 9.960938 2.699219 9.964844 2.316406 10.160156 2.15625 C 10.398438 1.953125 10.921875 2.042969 11.265625 2.253906 C 11.324219 2.292969 11.390625 2.335938 11.460938 2.378906 C 12.113281 2.804688 13.199219 3.515625 14.378906 2.582031 C 14.707031 2.316406 14.976562 2.21875 15.175781 2.28125 C 15.542969 2.398438 15.746094 3.066406 15.945312 3.710938 L 15.957031 3.753906 C 16.085938 4.171875 16.320312 4.472656 16.660156 4.644531 C 17.117188 4.878906 17.746094 4.726562 18.046875 4.554688 C 18.132812 4.503906 18.164062 4.417969 18.113281 4.328125 C 18.066406 4.242188 17.957031 4.210938 17.871094 4.261719 C 17.675781 4.371094 17.203125 4.535156 16.820312 4.34375 C 16.574219 4.214844 16.398438 3.960938 16.300781 3.640625 L 16.289062 3.601562 C 16.0625 2.867188 15.828125 2.132812 15.285156 1.957031 C 14.960938 1.851562 14.59375 1.972656 14.15625 2.316406 C 13.179688 3.09375 12.261719 2.496094 11.652344 2.097656 C 11.582031 2.050781 11.515625 2.003906 11.449219 1.96875 C 11.09375 1.746094 10.363281 1.503906 9.929688 1.871094 C 9.601562 2.144531 9.558594 2.648438 9.808594 3.359375 C 9.96875 3.816406 10.148438 4.171875 10.308594 4.484375 C 10.757812 5.359375 11.113281 6.050781 10.699219 8.496094 C 10.113281 11.988281 10.015625 13.367188 11.242188 15.160156 C 11.496094 15.535156 11.71875 15.832031 11.914062 16.09375 C 12.605469 17.023438 12.894531 17.40625 12.976562 19.03125 C 13.035156 20.15625 13.378906 20.976562 13.898438 21.222656 C 14.144531 21.335938 14.410156 21.308594 14.625 21.140625 C 14.804688 21 14.933594 20.777344 15.011719 20.496094 C 15.035156 20.511719 15.058594 20.527344 15.082031 20.539062 C 15.285156 20.65625 15.644531 20.523438 15.863281 20.253906 C 16.085938 19.976562 16.46875 19.179688 15.246094 17.671875 C 14.953125 17.3125 14.628906 16.972656 14.3125 16.648438 C 13.957031 16.28125 13.621094 15.933594 13.328125 15.554688 C 12.773438 14.832031 12.082031 13.9375 12.285156 11.5625 L 12.40625 10.121094 C 12.492188 9.109375 12.496094 9.046875 12.582031 8.695312 C 12.695312 8.226562 12.859375 8 12.9375 7.988281 C 12.972656 7.980469 13.074219 8.039062 13.210938 8.285156 C 13.496094 8.78125 13.765625 9.003906 14.007812 8.949219 C 14.296875 8.882812 14.363281 8.472656 14.386719 8.175781 C 14.472656 7.101562 14.640625 7.046875 14.648438 7.042969 C 14.648438 7.042969 14.742188 7.039062 14.964844 7.347656 C 15.246094 7.738281 15.433594 7.976562 15.660156 7.933594 C 15.902344 7.886719 15.976562 7.609375 16.167969 6.867188 L 16.210938 6.699219 C 16.238281 6.601562 16.179688 6.5 16.085938 6.472656 C 15.988281 6.445312 15.890625 6.535156 15.863281 6.632812 L 15.820312 6.800781 C 15.734375 7.136719 15.648438 7.453125 15.589844 7.574219 C 15.496094 7.488281 15.324219 7.253906 15.253906 7.15625 C 15.085938 6.925781 14.835938 6.632812 14.546875 6.714844 C 14.257812 6.800781 14.105469 7.222656 14.027344 8.171875 C 14.003906 8.492188 13.945312 8.589844 13.925781 8.613281 C 13.871094 8.59375 13.714844 8.460938 13.523438 8.125 C 13.449219 7.996094 13.222656 7.570312 12.882812 7.621094 C 12.53125 7.671875 12.335938 8.1875 12.234375 8.605469 C 12.140625 8.988281 12.132812 9.070312 12.050781 10.089844 L 11.929688 11.527344 C 11.710938 14.050781 12.484375 15.050781 13.046875 15.78125 C 13.351562 16.179688 13.710938 16.550781 14.058594 16.910156 C 14.367188 17.230469 14.683594 17.558594 14.96875 17.910156 C 15.664062 18.761719 15.90625 19.507812 15.636719 19.949219 C 15.503906 20.164062 15.296875 20.222656 15.25 20.210938 C 15.203125 20.183594 15.144531 20.152344 15.085938 20.113281 C 15.113281 19.824219 15.101562 19.5 15.046875 19.144531 C 14.976562 18.730469 14.574219 18.289062 14.167969 18.332031 C 14.011719 18.347656 13.800781 18.472656 13.820312 18.96875 C 13.84375 19.542969 14.285156 19.992188 14.691406 20.289062 C 14.632812 20.570312 14.519531 20.757812 14.40625 20.847656 C 14.296875 20.933594 14.175781 20.945312 14.050781 20.886719 C 13.757812 20.746094 13.398438 20.175781 13.335938 19.011719 C 13.246094 17.273438 12.917969 16.832031 12.199219 15.867188 C 12.007812 15.609375 11.789062 15.316406 11.535156 14.945312 C 10.390625 13.273438 10.484375 11.941406 11.054688 8.558594 C 11.207031 7.652344 11.257812 6.976562 11.238281 6.4375 C 12.796875 6.0625 15.152344 5.839844 17.128906 5.898438 "/>
<g clip-path="url(#clip1)" clip-rule="nonzero">
<path style=" stroke:none;fill-rule:nonzero;fill:rgb(90.588235%,66.27451%,3.137255%);fill-opacity:1;" d="M 10.574219 19.355469 C 10.144531 19.234375 9.949219 18.578125 10.132812 17.882812 C 10.320312 17.1875 10.816406 16.722656 11.242188 16.84375 C 11.667969 16.964844 11.867188 17.621094 11.679688 18.316406 C 11.496094 19.011719 11 19.476562 10.574219 19.355469 M 8.867188 15.699219 C 6.738281 15.054688 8.09375 12.351562 9.078125 12.621094 C 7.789062 13.820312 8.4375 15.214844 8.867188 15.699219 M 6.378906 12.160156 C 7.136719 11.800781 7.367188 12.558594 6.648438 12.777344 C 4.59375 13.390625 4.425781 12.3125 4.90625 11.851562 C 3.648438 11.082031 5.269531 10.4375 5.957031 10.222656 C 6.648438 10.003906 6.617188 10.683594 6.226562 10.773438 C 5.835938 10.867188 5.6875 10.960938 5.359375 11.050781 C 5.1875 11.101562 5.144531 11.253906 5.207031 11.386719 C 5.839844 11.351562 6.179688 11.285156 6.535156 11.0625 C 6.824219 10.878906 7.425781 10.46875 7.699219 10.898438 C 7.96875 11.328125 7.945312 11.832031 6.835938 11.773438 C 6.152344 11.734375 5.785156 11.847656 5.277344 12.085938 C 5.210938 12.417969 5.800781 12.433594 6.378906 12.160156 M 3.964844 10.742188 C 3.734375 10.785156 3.894531 10.234375 3.867188 10.085938 C 3.609375 10.140625 3.128906 10.066406 3.082031 9.957031 C 3.023438 9.828125 3.320312 9.75 3.910156 9.722656 C 3.863281 9.433594 3.765625 8.90625 3.945312 8.621094 C 3.496094 8.460938 2.992188 8.359375 3.394531 8.050781 C 3.742188 7.785156 3.664062 7.625 3.664062 7.625 C 3.441406 7.441406 3.171875 7.054688 3.746094 6.8125 C 4.320312 6.570312 5.101562 6.699219 5.507812 7.03125 C 5.980469 7.417969 6.644531 7.855469 7.164062 7.785156 C 7.996094 7.664062 7.808594 8.074219 7.308594 8.28125 C 6.726562 8.519531 5.859375 8.074219 5.664062 7.949219 C 5.46875 7.828125 4.882812 7.511719 4.789062 7.769531 C 4.699219 8.027344 4.53125 8.214844 4.738281 8.355469 C 5.171875 8.648438 5.878906 9.082031 6.273438 9.277344 C 6.566406 9.421875 6.539062 9.628906 6.003906 9.761719 C 5.390625 9.914062 4.464844 10.0625 4.464844 10.0625 C 4.398438 10.410156 4.203125 10.699219 3.964844 10.742188 M 6.304688 4.820312 C 6.785156 4.480469 7.054688 4.265625 7.054688 4.265625 C 7.386719 4.050781 7.367188 4.164062 7.597656 4.328125 C 7.859375 4.515625 8.339844 4.984375 8.507812 5.15625 C 8.808594 5.460938 8.546875 5.699219 8.324219 5.390625 C 7.90625 4.824219 7.332031 4.492188 7.332031 4.492188 L 7.054688 4.683594 C 7.503906 5.082031 8.523438 5.964844 8.921875 6.621094 C 9.039062 6.8125 8.808594 6.953125 8.644531 6.742188 C 8.089844 6.011719 6.777344 4.894531 6.777344 4.894531 L 6.5 5.085938 C 6.828125 5.421875 7.308594 5.769531 7.492188 6.078125 C 7.671875 6.375 7.535156 6.621094 7.277344 6.28125 C 6.960938 5.863281 6.546875 5.558594 6.546875 5.558594 C 6.246094 5.3125 5.824219 5.15625 6.304688 4.820312 M 4.167969 18.386719 C 4.132812 18.378906 4.097656 18.367188 4.0625 18.351562 C 4.957031 19.382812 3.726562 20.109375 3.335938 18.792969 C 3.203125 19.488281 2.511719 19.246094 2.605469 18.765625 C 2.65625 18.492188 2.675781 17.992188 2.675781 17.742188 C 2.675781 17.644531 2.535156 17.429688 2.726562 17.359375 C 2.925781 17.289062 3.046875 17.273438 3.175781 17.175781 C 3.367188 17.050781 3.457031 17.238281 3.523438 17.28125 C 3.777344 17.449219 4.058594 17.542969 4.351562 17.65625 C 5.113281 17.9375 4.617188 18.484375 4.167969 18.386719 M 11.703125 18.960938 C 12.542969 16.875 11.167969 16.371094 10.757812 16.667969 C 8.597656 13.207031 9.417969 10.523438 9.585938 9.265625 C 10.21875 4.558594 8.144531 3.921875 7.421875 3.367188 C 6.566406 3.785156 4.5 5.507812 3.328125 6.570312 C 2.160156 7.632812 2.519531 8.058594 2.609375 8.65625 C 2.699219 9.257812 2.339844 9.820312 2.113281 10.144531 C 1.886719 10.46875 1.808594 10.683594 0.90625 12.117188 C 0.0078125 13.546875 0.851562 13.902344 1.347656 13.902344 C 1.84375 13.902344 2.777344 13.726562 3.613281 13.652344 C 3.890625 13.628906 4.179688 13.355469 3.957031 13.019531 C 3.730469 12.683594 3.445312 12.492188 3.113281 12.511719 C 2.820312 12.527344 2.714844 12.902344 3.144531 13.003906 C 3.515625 12.921875 3.566406 13.4375 2.917969 13.230469 C 2.46875 13.089844 2.308594 12.113281 3.222656 12.234375 C 4.0625 12.339844 4.46875 13.0625 4.351562 13.605469 C 4.488281 13.652344 5.113281 14.035156 5.269531 14.457031 C 5.546875 15.203125 5.152344 15.148438 4.976562 14.695312 C 4.5625 13.625 3.1875 14.023438 2.339844 14.097656 C 1.835938 14.140625 1.957031 14.203125 1.871094 14.484375 C 1.644531 15.222656 1.507812 15.945312 2 16.085938 C 2.402344 16.195312 3.332031 16.007812 3.691406 15.914062 C 4.050781 15.820312 4.007812 15.546875 3.648438 15.589844 C 3.289062 15.636719 3.109375 15.269531 3.648438 15.175781 C 4.1875 15.082031 4.503906 15.359375 4.457031 15.589844 C 4.414062 15.820312 4.546875 16.007812 4.683594 16.054688 C 4.816406 16.097656 4.925781 16.425781 4.953125 16.605469 C 5.042969 17.207031 4.546875 17.113281 4.59375 16.699219 C 4.613281 16.515625 4.324219 16.238281 4.050781 16.375 C 3.78125 16.515625 2.46875 16.652344 1.882812 16.5625 C 1.480469 16.976562 1.726562 17.394531 1.859375 17.578125 C 1.996094 17.765625 2.058594 18.40625 1.882812 18.804688 C 1.296875 20.132812 2.648438 20.625 3.191406 20.660156 C 5.125 20.785156 6.644531 20.449219 8.019531 19.933594 C 8.722656 19.625 9.183594 19.050781 9.585938 18.5 C 9.460938 19.078125 9.167969 19.601562 8.695312 19.960938 C 8.03125 20.425781 6.882812 20.761719 6.1875 20.9375 C 6.1875 20.9375 6.292969 21.777344 6.484375 22.355469 C 6.644531 22.859375 6.945312 23.242188 7.074219 23.585938 C 7.242188 24.042969 7.351562 24.542969 7.90625 24.386719 C 10.140625 23.742188 12.09375 22.738281 13.128906 22.089844 C 13.039062 21.953125 11.972656 19.5625 11.703125 18.960938 "/>
</g>
<path style=" stroke:none;fill-rule:nonzero;fill:rgb(90.588235%,66.27451%,3.137255%);fill-opacity:1;" d="M 11.121094 17.300781 C 10.847656 17.226562 10.585938 17.5 10.46875 17.9375 C 10.351562 18.378906 10.425781 18.820312 10.695312 18.898438 C 10.964844 18.972656 11.207031 18.640625 11.324219 18.199219 C 11.441406 17.757812 11.390625 17.378906 11.121094 17.300781 "/>
<path style=" stroke:none;fill-rule:nonzero;fill:rgb(90.588235%,66.27451%,3.137255%);fill-opacity:1;" d="M 4.457031 7.5625 C 4.171875 7.613281 3.835938 7.71875 3.777344 7.804688 C 3.726562 7.875 4.148438 8.078125 4.289062 8.140625 C 4.429688 8.203125 4.441406 8.054688 4.503906 7.914062 C 4.566406 7.769531 4.742188 7.515625 4.457031 7.5625 "/>
<path style=" stroke:none;fill-rule:nonzero;fill:rgb(96.078431%,44.705882%,8.235294%);fill-opacity:1;" d="M 20.570312 3.027344 L 19.003906 3.027344 L 20.003906 4.136719 L 20.570312 4.136719 Z M 20.570312 3.027344 "/>
<path style=" stroke:none;fill-rule:nonzero;fill:rgb(96.078431%,44.705882%,8.235294%);fill-opacity:1;" d="M 25.230469 13.367188 C 24.84375 12.699219 24.347656 11.867188 23.851562 11.035156 L 23.429688 12.210938 C 23.960938 13.320312 24.417969 14.097656 24.816406 14.644531 Z M 25.230469 13.367188 "/>
<path style=" stroke:none;fill-rule:nonzero;fill:rgb(96.078431%,44.705882%,8.235294%);fill-opacity:1;" d="M 22.308594 9.648438 C 22.671875 10.550781 23.007812 11.320312 23.320312 11.980469 L 23.730469 10.835938 C 23.28125 10.089844 22.835938 9.355469 22.46875 8.753906 Z M 22.308594 9.648438 "/>
<path style=" stroke:none;fill-rule:nonzero;fill:rgb(96.078431%,44.705882%,8.235294%);fill-opacity:1;" d="M 25.640625 11.449219 L 24.011719 10.953125 C 24.5 11.765625 24.984375 12.582031 25.367188 13.242188 L 26.570312 13.464844 C 26.351562 12.761719 26.035156 12.085938 25.660156 11.449219 C 25.652344 11.449219 25.648438 11.449219 25.640625 11.449219 "/>
<path style=" stroke:none;fill-rule:nonzero;fill:rgb(96.078431%,44.705882%,8.235294%);fill-opacity:1;" d="M 27.617188 14.34375 C 26.898438 9.605469 21.648438 5.972656 21.019531 5.328125 L 21 5.355469 C 20.984375 5.503906 20.941406 5.640625 20.875 5.761719 C 21.082031 5.996094 21.398438 6.292969 21.785156 6.660156 C 23.773438 8.542969 27.472656 12.046875 27.046875 16.199219 L 27.035156 16.308594 L 26.933594 16.28125 C 26.855469 16.257812 26.773438 16.242188 26.6875 16.222656 C 25.5625 15.976562 24.167969 15.664062 20.726562 5.964844 C 20.664062 6.03125 20.59375 6.085938 20.515625 6.132812 C 20.703125 6.882812 20.898438 7.578125 21.089844 8.226562 C 21.546875 9.363281 21.894531 10.386719 22.160156 11.300781 C 24.609375 17.304688 27.121094 17.015625 27.707031 16.992188 C 27.527344 16.5625 27.773438 15.359375 27.617188 14.34375 "/>
<path style=" stroke:none;fill-rule:nonzero;fill:rgb(96.078431%,44.705882%,8.235294%);fill-opacity:1;" d="M 21.664062 6.796875 C 21.460938 6.601562 21.28125 6.429688 21.121094 6.277344 C 21.058594 6.222656 21.035156 6.265625 21.042969 6.320312 C 21.453125 7.453125 21.828125 8.453125 22.179688 9.332031 L 22.328125 8.519531 C 21.949219 7.902344 21.671875 7.457031 21.601562 7.347656 C 21.574219 7.304688 21.585938 7.25 21.628906 7.21875 C 21.667969 7.191406 21.726562 7.203125 21.753906 7.246094 C 21.796875 7.3125 22.0625 7.746094 22.449219 8.378906 L 23.523438 8.648438 C 22.855469 7.925781 22.195312 7.300781 21.664062 6.796875 "/>
<path style=" stroke:none;fill-rule:nonzero;fill:rgb(96.078431%,44.705882%,8.235294%);fill-opacity:1;" d="M 22.585938 8.601562 C 22.957031 9.207031 23.410156 9.957031 23.871094 10.71875 L 25.519531 11.21875 C 24.996094 10.371094 24.375 9.589844 23.746094 8.894531 Z M 22.585938 8.601562 "/>
<path style=" stroke:none;fill-rule:nonzero;fill:rgb(96.078431%,44.705882%,8.235294%);fill-opacity:1;" d="M 26.722656 16.039062 C 26.777344 16.050781 26.824219 16.066406 26.875 16.078125 C 26.945312 15.246094 26.847656 14.4375 26.628906 13.664062 L 25.488281 13.453125 C 25.796875 13.980469 26.023438 14.390625 26.109375 14.582031 C 26.128906 14.628906 26.109375 14.683594 26.066406 14.707031 C 26.019531 14.726562 25.96875 14.707031 25.945312 14.660156 C 25.863281 14.480469 25.648438 14.085938 25.351562 13.574219 L 24.949219 14.820312 C 25.71875 15.816406 26.257812 15.9375 26.722656 16.039062 "/>
<path style=" stroke:none;fill-rule:nonzero;fill:rgb(0%,49.803922%,33.333333%);fill-opacity:1;" d="M 18.097656 15.566406 C 18.390625 15.871094 18.941406 16.261719 19.246094 16.4375 C 19.21875 16 19.171875 15.53125 19.097656 15.035156 C 19.070312 14.851562 19.03125 14.46875 18.988281 13.960938 C 18.777344 13.828125 18.410156 13.5625 18.167969 13.335938 C 18.128906 14.109375 18.105469 14.871094 18.097656 15.566406 "/>
<path style=" stroke:none;fill-rule:nonzero;fill:rgb(0%,49.803922%,33.333333%);fill-opacity:1;" d="M 18.09375 15.832031 C 18.085938 16.757812 18.109375 17.546875 18.160156 18.054688 C 18.414062 18.316406 18.820312 18.578125 19.207031 18.757812 C 19.273438 18.148438 19.300781 17.449219 19.261719 16.65625 C 19.039062 16.519531 18.421875 16.128906 18.09375 15.832031 "/>
<path style=" stroke:none;fill-rule:nonzero;fill:rgb(0%,49.803922%,33.333333%);fill-opacity:1;" d="M 18.390625 22.0625 C 18.324219 22.160156 18.300781 22.257812 18.199219 22.222656 C 18.109375 22.195312 18.023438 22.109375 18.019531 22.058594 C 16.90625 19.46875 16.621094 16.367188 17.164062 12.847656 C 17.472656 10.847656 18.121094 8.832031 18.921875 6.796875 C 18.742188 7.59375 19.140625 14.101562 19.277344 15.007812 C 19.960938 19.601562 18.554688 21.824219 18.390625 22.0625 M 19.277344 6.34375 C 19.320312 6.195312 19.355469 6.089844 19.382812 6.015625 C 19.3125 5.953125 19.25 5.878906 19.199219 5.796875 C 18.066406 7.386719 14.773438 17.046875 17.972656 22.433594 C 18.09375 22.667969 18.339844 22.695312 18.449219 22.554688 C 19.03125 21.988281 20.140625 19.054688 19.726562 16.683594 C 19.289062 14.167969 19.039062 7.144531 19.277344 6.34375 "/>
<path style=" stroke:none;fill-rule:nonzero;fill:rgb(0%,49.803922%,33.333333%);fill-opacity:1;" d="M 18.96875 13.710938 C 18.882812 12.660156 18.789062 11.195312 18.738281 9.910156 C 18.707031 9.585938 18.527344 9.488281 18.464844 9.808594 C 18.335938 10.800781 18.242188 11.957031 18.179688 13.101562 C 18.410156 13.324219 18.757812 13.582031 18.96875 13.710938 "/>
<path style=" stroke:none;fill-rule:nonzero;fill:rgb(0%,49.803922%,33.333333%);fill-opacity:1;" d="M 17.878906 15.707031 L 17.078125 16.269531 C 17.082031 17.039062 17.132812 17.78125 17.234375 18.496094 C 17.402344 18.402344 17.773438 18.191406 17.972656 18 C 17.90625 17.433594 17.875 16.632812 17.878906 15.707031 "/>
<path style=" stroke:none;fill-rule:nonzero;fill:rgb(0%,49.803922%,33.333333%);fill-opacity:1;" d="M 17.265625 18.699219 C 17.320312 19.078125 17.390625 19.449219 17.476562 19.8125 C 17.625 19.992188 17.832031 20.070312 18.109375 19.503906 L 18.167969 19.320312 C 18.347656 19.660156 18.792969 20.171875 19.011719 19.941406 C 19.078125 19.648438 19.136719 19.324219 19.183594 18.964844 C 19.007812 18.867188 18.304688 18.46875 18.0625 18.203125 C 17.871094 18.355469 17.445312 18.601562 17.265625 18.699219 "/>
<path style=" stroke:none;fill-rule:nonzero;fill:rgb(0%,49.803922%,33.333333%);fill-opacity:1;" d="M 17.976562 12.898438 C 18.042969 11.839844 18.144531 10.773438 18.277344 9.828125 C 18.308594 9.550781 18.101562 9.582031 18.039062 9.84375 C 17.734375 10.828125 17.511719 11.773438 17.339844 12.878906 C 17.308594 13.105469 17.273438 13.328125 17.246094 13.550781 C 17.421875 13.417969 17.871094 13.0625 17.976562 12.898438 "/>
<path style=" stroke:none;fill-rule:nonzero;fill:rgb(0%,49.803922%,33.333333%);fill-opacity:1;" d="M 17.960938 13.179688 C 17.785156 13.382812 17.375 13.679688 17.222656 13.789062 C 17.128906 14.574219 17.082031 15.34375 17.078125 16.082031 C 17.292969 15.933594 17.699219 15.640625 17.882812 15.476562 C 17.890625 14.757812 17.914062 13.972656 17.960938 13.179688 "/>
<path style=" stroke:none;fill-rule:nonzero;fill:rgb(0%,49.803922%,33.333333%);fill-opacity:1;" d="M 20.027344 5.753906 C 19.765625 5.753906 19.554688 5.535156 19.554688 5.265625 C 19.554688 4.996094 19.765625 4.78125 20.027344 4.78125 C 20.289062 4.78125 20.503906 4.996094 20.503906 5.265625 C 20.503906 5.535156 20.289062 5.753906 20.027344 5.753906 M 20.027344 4.503906 C 19.617188 4.503906 19.285156 4.847656 19.285156 5.265625 C 19.285156 5.6875 19.617188 6.027344 20.027344 6.027344 C 20.4375 6.027344 20.769531 5.6875 20.769531 5.265625 C 20.769531 4.847656 20.4375 4.503906 20.027344 4.503906 "/>
<path style=" stroke:none;fill-rule:nonzero;fill:rgb(0%,49.803922%,33.333333%);fill-opacity:1;" d="M 22.019531 3.726562 C 21.671875 3.875 21.289062 4.15625 21.054688 4.472656 L 21.289062 5.144531 L 22.339844 4.890625 Z M 22.019531 3.726562 "/>
<path style=" stroke:none;fill-rule:nonzero;fill:rgb(0%,49.803922%,33.333333%);fill-opacity:1;" d="M 16.34375 11.890625 C 16.148438 12.761719 16.011719 13.484375 15.957031 13.878906 C 15.957031 13.882812 15.953125 13.886719 15.953125 13.894531 C 15.925781 13.917969 15.882812 13.957031 15.824219 14.011719 C 15.757812 14.078125 15.664062 14.175781 15.53125 14.308594 C 15.164062 14.679688 14.679688 15.171875 14.359375 15.410156 C 14.183594 15.078125 13.582031 13.914062 13.492188 13.488281 C 13.523438 13.398438 13.558594 13.304688 13.59375 13.210938 C 13.625 13.136719 13.65625 13.058594 13.6875 12.980469 C 13.941406 12.371094 14.265625 11.753906 14.625 11.144531 C 14.695312 11.03125 14.761719 10.917969 14.832031 10.804688 C 15.875 9.125 17.164062 7.582031 17.976562 6.660156 C 17.351562 7.945312 16.789062 9.964844 16.414062 11.589844 C 16.390625 11.691406 16.367188 11.792969 16.34375 11.890625 M 13.3125 13.453125 L 13.304688 13.476562 L 13.308594 13.5 C 13.402344 14 14.214844 15.523438 14.25 15.589844 L 14.296875 15.675781 L 14.375 15.621094 C 14.707031 15.402344 15.257812 14.847656 15.65625 14.441406 C 15.84375 14.25 16.039062 14.050781 16.078125 14.027344 L 16.117188 14.003906 C 16.121094 14 16.125 13.957031 16.125 13.957031 C 16.285156 12.753906 17.449219 7.375 18.59375 5.785156 C 17.765625 6.632812 14.382812 10.375 13.3125 13.453125 "/>
<path style=" stroke:none;fill-rule:nonzero;fill:rgb(89.019608%,15.294118%,22.352941%);fill-opacity:1;" d="M 11.324219 18.199219 C 11.207031 18.640625 10.964844 18.972656 10.695312 18.898438 C 10.425781 18.820312 10.351562 18.378906 10.46875 17.9375 C 10.585938 17.496094 10.847656 17.226562 11.121094 17.300781 C 11.390625 17.378906 11.441406 17.757812 11.324219 18.199219 M 11.242188 16.84375 C 10.816406 16.722656 10.320312 17.1875 10.132812 17.882812 C 9.949219 18.578125 10.144531 19.234375 10.574219 19.355469 C 11 19.476562 11.496094 19.011719 11.679688 18.316406 C 11.867188 17.621094 11.667969 16.964844 11.242188 16.84375 "/>
<path style=" stroke:none;fill-rule:nonzero;fill:rgb(89.019608%,15.294118%,22.352941%);fill-opacity:1;" d="M 6.378906 12.160156 C 5.800781 12.433594 5.210938 12.421875 5.277344 12.085938 C 5.300781 11.964844 5.40625 11.808594 5.628906 11.605469 C 5.410156 11.621094 5.261719 11.511719 5.207031 11.386719 C 5.144531 11.253906 5.1875 11.101562 5.359375 11.050781 C 5.6875 10.960938 5.835938 10.867188 6.226562 10.773438 C 6.617188 10.683594 6.648438 10.003906 5.957031 10.222656 C 5.269531 10.4375 3.648438 11.082031 4.90625 11.851562 C 4.425781 12.3125 4.59375 13.390625 6.648438 12.777344 C 7.367188 12.558594 7.136719 11.800781 6.378906 12.160156 "/>
<path style=" stroke:none;fill-rule:nonzero;fill:rgb(89.019608%,15.294118%,22.352941%);fill-opacity:1;" d="M 15.710938 10.617188 L 14.625 11.144531 C 14.265625 11.753906 13.941406 12.371094 13.6875 12.980469 C 13.96875 12.878906 14.726562 12.597656 15.074219 12.359375 C 15.265625 11.792969 15.484375 11.191406 15.710938 10.617188 "/>
<path style=" stroke:none;fill-rule:nonzero;fill:rgb(89.019608%,15.294118%,22.352941%);fill-opacity:1;" d="M 16.871094 8.316406 C 16.953125 8.351562 16.851562 8.636719 16.78125 8.742188 C 16.550781 9.097656 16.234375 9.824219 15.910156 10.652344 C 15.980469 10.925781 16.285156 11.398438 16.414062 11.589844 C 16.789062 9.964844 17.351562 7.945312 17.976562 6.660156 C 17.164062 7.582031 15.875 9.125 14.832031 10.804688 L 15.824219 10.335938 C 16.183594 9.457031 16.554688 8.691406 16.871094 8.316406 "/>
<path style=" stroke:none;fill-rule:nonzero;fill:rgb(89.019608%,15.294118%,22.352941%);fill-opacity:1;" d="M 16.125 13.957031 C 16.125 13.957031 16.121094 14 16.117188 14.003906 L 16.078125 14.027344 C 16.039062 14.050781 15.84375 14.25 15.65625 14.441406 C 15.257812 14.847656 14.707031 15.402344 14.375 15.621094 L 14.296875 15.675781 L 14.25 15.589844 C 14.214844 15.523438 13.402344 14 13.308594 13.5 L 13.304688 13.476562 L 13.3125 13.453125 C 14.382812 10.375 17.765625 6.632812 18.59375 5.785156 C 17.449219 7.375 16.285156 12.753906 16.125 13.957031 M 19.054688 5.242188 C 19 5.234375 18.921875 5.261719 18.796875 5.359375 C 18.527344 5.578125 15.222656 8.207031 13.15625 13.050781 C 12.9375 13.570312 12.917969 13.359375 13.128906 13.945312 C 13.339844 14.53125 13.90625 15.546875 14.058594 15.792969 C 14.207031 16.039062 14.183594 16.132812 14.394531 15.976562 C 15.144531 15.332031 15.746094 14.679688 15.984375 14.492188 C 16.246094 14.292969 16.445312 13.988281 16.464844 13.644531 C 16.503906 12.96875 17.808594 6.929688 19.097656 5.605469 C 19.101562 5.601562 19.105469 5.597656 19.105469 5.59375 C 19.070312 5.492188 19.050781 5.382812 19.050781 5.265625 C 19.050781 5.257812 19.054688 5.25 19.054688 5.242188 "/>
<path style=" stroke:none;fill-rule:nonzero;fill:rgb(89.019608%,15.294118%,22.352941%);fill-opacity:1;" d="M 15.238281 12.492188 C 15.363281 12.925781 15.660156 13.558594 15.957031 13.878906 C 16.011719 13.484375 16.148438 12.761719 16.34375 11.890625 C 16.21875 11.691406 15.914062 11.195312 15.804688 10.925781 C 15.609375 11.4375 15.414062 11.980469 15.238281 12.492188 "/>
<path style=" stroke:none;fill-rule:nonzero;fill:rgb(89.019608%,15.294118%,22.352941%);fill-opacity:1;" d="M 15.53125 14.308594 C 15.664062 14.175781 15.757812 14.078125 15.824219 14.011719 C 15.550781 13.710938 15.257812 13.222656 15.117188 12.835938 C 14.832031 13.675781 14.609375 14.386719 14.539062 14.679688 C 14.527344 14.730469 14.480469 14.757812 14.429688 14.746094 C 14.382812 14.734375 14.351562 14.683594 14.363281 14.636719 C 14.4375 14.332031 14.671875 13.542969 14.984375 12.617188 C 14.640625 12.851562 13.886719 13.113281 13.59375 13.210938 C 13.558594 13.304688 13.523438 13.398438 13.492188 13.488281 C 13.582031 13.914062 14.183594 15.078125 14.359375 15.410156 C 14.679688 15.171875 15.164062 14.679688 15.53125 14.308594 "/>
<path style=" stroke:none;fill-rule:nonzero;fill:rgb(89.019608%,15.294118%,22.352941%);fill-opacity:1;" d="M 20.027344 4.78125 C 19.765625 4.78125 19.554688 4.996094 19.554688 5.265625 C 19.554688 5.535156 19.765625 5.753906 20.027344 5.753906 C 20.289062 5.753906 20.503906 5.535156 20.503906 5.265625 C 20.503906 4.996094 20.289062 4.78125 20.027344 4.78125 "/>
<path style=" stroke:none;fill-rule:nonzero;fill:rgb(89.019608%,15.294118%,22.352941%);fill-opacity:1;" d="M 4.351562 17.65625 C 4.058594 17.542969 3.777344 17.449219 3.523438 17.28125 C 3.457031 17.238281 3.367188 17.050781 3.175781 17.175781 C 3.046875 17.273438 2.925781 17.289062 2.726562 17.363281 C 2.535156 17.429688 2.675781 17.644531 2.675781 17.742188 C 2.675781 17.992188 2.65625 18.492188 2.605469 18.765625 C 2.511719 19.246094 3.203125 19.488281 3.335938 18.792969 C 3.351562 18.71875 3.359375 18.636719 3.359375 18.542969 C 3.359375 18.328125 3.253906 17.824219 3.253906 17.824219 C 3.238281 17.753906 3.300781 17.738281 3.347656 17.761719 C 3.527344 17.839844 3.761719 18.21875 4.0625 18.351562 C 4.097656 18.367188 4.132812 18.378906 4.167969 18.386719 C 4.617188 18.484375 5.113281 17.9375 4.351562 17.65625 "/>
<path style=" stroke:none;fill-rule:nonzero;fill:rgb(10.980392%,25.490196%,54.901961%);fill-opacity:1;" d="M 21.929688 16.78125 C 21.828125 16.589844 21.6875 15.929688 21.527344 15.023438 L 22.726562 15.691406 C 22.734375 16.371094 22.675781 16.925781 22.589844 17.375 Z M 22.171875 18.726562 L 22.164062 18.746094 C 21.917969 18.417969 21.695312 18.066406 21.496094 17.691406 L 21.882812 16.984375 L 22.546875 17.582031 C 22.429688 18.09375 22.28125 18.460938 22.171875 18.726562 M 20.726562 15.8125 L 21.34375 15.027344 C 21.503906 15.925781 21.644531 16.589844 21.757812 16.835938 L 21.398438 17.496094 C 21.132812 16.964844 20.910156 16.398438 20.726562 15.8125 M 20.253906 13.84375 L 21.015625 13.058594 C 21.117188 13.683594 21.210938 14.269531 21.300781 14.789062 L 20.664062 15.601562 C 20.492188 15.027344 20.359375 14.4375 20.253906 13.84375 M 20.007812 12.003906 L 20.746094 11.300781 C 20.824219 11.824219 20.902344 12.339844 20.980469 12.835938 L 20.214844 13.621094 C 20.125 13.082031 20.058594 12.539062 20.007812 12.003906 M 19.925781 7.664062 C 19.941406 7.390625 20.140625 7.402344 20.171875 7.59375 C 20.3125 8.441406 20.464844 9.457031 20.625 10.503906 C 20.652344 10.695312 20.683594 10.890625 20.710938 11.082031 L 19.988281 11.773438 C 19.859375 10.21875 19.878906 8.761719 19.925781 7.664062 M 20.578125 7.460938 C 21.285156 9.136719 21.777344 10.570312 22.109375 11.804688 L 20.898438 11.109375 C 20.867188 10.894531 20.832031 10.683594 20.800781 10.476562 C 20.644531 9.429688 20.488281 8.414062 20.351562 7.5625 C 20.304688 7.339844 20.484375 7.234375 20.578125 7.460938 M 22.175781 12.054688 C 22.320312 12.617188 22.433594 13.132812 22.515625 13.613281 L 21.160156 12.808594 C 21.085938 12.328125 21.007812 11.832031 20.933594 11.339844 Z M 22.722656 15.480469 L 21.484375 14.792969 C 21.394531 14.265625 21.296875 13.671875 21.195312 13.046875 L 22.554688 13.847656 C 22.652344 14.457031 22.703125 15 22.722656 15.480469 M 22.46875 12.476562 C 22.382812 12.105469 22.28125 11.714844 22.160156 11.300781 C 21.894531 10.386719 21.546875 9.363281 21.089844 8.226562 C 20.839844 7.601562 20.558594 6.941406 20.246094 6.242188 C 20.175781 6.257812 20.101562 6.265625 20.027344 6.265625 C 19.957031 6.265625 19.890625 6.257812 19.824219 6.246094 C 19.820312 6.292969 19.816406 6.34375 19.816406 6.398438 C 19.675781 8.613281 19.253906 15.359375 22.117188 18.988281 L 22.214844 19.109375 C 22.214844 19.109375 22.269531 18.964844 22.269531 18.964844 L 22.339844 18.796875 C 22.667969 17.996094 23.367188 16.285156 22.46875 12.476562 "/>
<g clip-path="url(#clip2)" clip-rule="nonzero">
<path style=" stroke:none;fill-rule:nonzero;fill:rgb(0%,0%,0%);fill-opacity:1;" d="M 22.160156 11.300781 C 22.28125 11.714844 22.382812 12.105469 22.46875 12.476562 C 22.753906 13.136719 23.152344 13.914062 23.492188 14.429688 C 23.765625 16.453125 23.480469 18.835938 21.917969 20.316406 C 21.828125 19.699219 21.4375 19.054688 21.167969 18.53125 C 20.890625 17.992188 20.148438 16.777344 20.085938 16.621094 C 20.058594 15.882812 19.726562 14.097656 19.609375 12.714844 C 19.488281 11.328125 19.488281 6.742188 19.578125 6.28125 L 19.757812 6.226562 C 19.78125 6.234375 19.800781 6.242188 19.824219 6.246094 C 19.890625 6.257812 19.957031 6.265625 20.027344 6.265625 C 20.101562 6.265625 20.175781 6.257812 20.242188 6.242188 C 20.339844 6.21875 20.433594 6.183594 20.515625 6.132812 C 20.59375 6.085938 20.664062 6.03125 20.726562 5.964844 C 20.78125 5.90625 20.832031 5.835938 20.875 5.761719 C 20.941406 5.640625 20.984375 5.503906 21 5.355469 L 21.019531 5.328125 C 21.648438 5.972656 26.898438 9.605469 27.617188 14.34375 C 27.773438 15.359375 27.527344 16.5625 27.707031 16.992188 C 27.121094 17.015625 24.609375 17.304688 22.160156 11.300781 M 18.449219 22.554688 C 18.339844 22.695312 18.09375 22.667969 17.972656 22.433594 C 14.773438 17.046875 18.066406 7.386719 19.203125 5.796875 C 19.25 5.878906 19.3125 5.953125 19.382812 6.015625 C 19.355469 6.089844 19.320312 6.195312 19.277344 6.34375 C 19.039062 7.144531 19.289062 14.167969 19.726562 16.683594 C 20.140625 19.054688 19.03125 21.988281 18.449219 22.554688 M 15.984375 14.492188 C 15.742188 14.679688 15.144531 15.332031 14.394531 15.976562 C 14.183594 16.132812 14.207031 16.039062 14.058594 15.792969 C 13.90625 15.546875 13.335938 14.53125 13.128906 13.945312 C 12.917969 13.359375 12.9375 13.570312 13.15625 13.050781 C 15.222656 8.207031 18.527344 5.578125 18.796875 5.359375 C 18.921875 5.261719 19 5.234375 19.054688 5.242188 C 19.054688 5.25 19.050781 5.257812 19.050781 5.265625 C 19.050781 5.382812 19.070312 5.492188 19.105469 5.59375 C 19.105469 5.597656 19.101562 5.601562 19.097656 5.605469 C 17.808594 6.929688 16.503906 12.96875 16.464844 13.644531 C 16.445312 13.988281 16.246094 14.292969 15.984375 14.492188 M 15.863281 20.253906 C 15.644531 20.523438 15.285156 20.65625 15.082031 20.539062 C 15.058594 20.527344 15.035156 20.511719 15.011719 20.496094 C 14.933594 20.777344 14.804688 21 14.625 21.140625 C 14.410156 21.308594 14.144531 21.335938 13.898438 21.222656 C 13.378906 20.976562 13.035156 20.15625 12.976562 19.03125 C 12.894531 17.40625 12.605469 17.023438 11.914062 16.09375 C 11.71875 15.832031 11.496094 15.535156 11.242188 15.160156 C 10.015625 13.367188 10.113281 11.988281 10.699219 8.496094 C 11.113281 6.050781 10.757812 5.359375 10.308594 4.484375 C 10.148438 4.171875 9.96875 3.816406 9.808594 3.359375 C 9.558594 2.648438 9.601562 2.144531 9.929688 1.871094 C 10.363281 1.503906 11.09375 1.746094 11.449219 1.96875 C 11.515625 2.003906 11.582031 2.050781 11.652344 2.097656 C 12.261719 2.496094 13.179688 3.09375 14.15625 2.316406 C 14.59375 1.972656 14.960938 1.851562 15.285156 1.957031 C 15.828125 2.132812 16.0625 2.867188 16.289062 3.601562 L 16.300781 3.640625 C 16.398438 3.960938 16.574219 4.214844 16.820312 4.34375 C 17.203125 4.535156 17.675781 4.371094 17.871094 4.261719 C 17.957031 4.210938 18.066406 4.242188 18.113281 4.328125 C 18.164062 4.417969 18.132812 4.503906 18.046875 4.554688 C 17.746094 4.726562 17.117188 4.878906 16.660156 4.644531 C 16.320312 4.472656 16.085938 4.171875 15.957031 3.753906 L 15.945312 3.710938 C 15.746094 3.066406 15.542969 2.398438 15.175781 2.28125 C 14.976562 2.21875 14.707031 2.316406 14.378906 2.582031 C 13.199219 3.515625 12.113281 2.804688 11.460938 2.378906 C 11.390625 2.335938 11.324219 2.292969 11.265625 2.253906 C 10.921875 2.042969 10.398438 1.953125 10.160156 2.15625 C 9.964844 2.316406 9.960938 2.699219 10.148438 3.234375 C 10.296875 3.667969 10.464844 3.996094 10.628906 4.3125 C 10.902344 4.847656 11.140625 5.316406 11.21875 6.09375 C 12.769531 5.753906 15.378906 5.511719 17.113281 5.558594 C 17.214844 5.554688 17.296875 5.632812 17.300781 5.734375 C 17.304688 5.835938 17.226562 5.921875 17.128906 5.925781 L 17.128906 5.898438 C 15.152344 5.839844 12.796875 6.0625 11.238281 6.4375 C 11.257812 6.976562 11.207031 7.652344 11.054688 8.558594 C 10.484375 11.941406 10.390625 13.273438 11.535156 14.945312 C 11.789062 15.316406 12.007812 15.609375 12.199219 15.867188 C 12.917969 16.832031 13.246094 17.273438 13.335938 19.011719 C 13.398438 20.175781 13.757812 20.746094 14.050781 20.886719 C 14.175781 20.945312 14.296875 20.933594 14.40625 20.847656 C 14.519531 20.757812 14.632812 20.570312 14.691406 20.289062 C 14.285156 19.992188 13.84375 19.542969 13.820312 18.96875 C 13.800781 18.472656 14.011719 18.347656 14.167969 18.332031 C 14.574219 18.289062 14.976562 18.730469 15.046875 19.144531 C 15.101562 19.5 15.113281 19.824219 15.085938 20.113281 C 15.144531 20.152344 15.203125 20.183594 15.25 20.210938 C 15.296875 20.222656 15.503906 20.164062 15.636719 19.949219 C 15.90625 19.507812 15.664062 18.761719 14.96875 17.910156 C 14.683594 17.558594 14.367188 17.230469 14.058594 16.910156 C 13.710938 16.550781 13.351562 16.179688 13.046875 15.78125 C 12.484375 15.050781 11.710938 14.050781 11.929688 11.527344 L 12.050781 10.089844 C 12.132812 9.070312 12.140625 8.988281 12.234375 8.605469 C 12.335938 8.1875 12.53125 7.671875 12.882812 7.621094 C 13.222656 7.570312 13.449219 7.996094 13.523438 8.125 C 13.714844 8.460938 13.871094 8.59375 13.925781 8.613281 C 13.945312 8.589844 14.003906 8.492188 14.027344 8.171875 C 14.105469 7.222656 14.257812 6.800781 14.546875 6.714844 C 14.835938 6.632812 15.085938 6.925781 15.253906 7.15625 C 15.324219 7.253906 15.496094 7.488281 15.589844 7.574219 C 15.648438 7.453125 15.734375 7.136719 15.820312 6.800781 L 15.863281 6.632812 C 15.890625 6.535156 15.988281 6.445312 16.085938 6.472656 C 16.179688 6.5 16.238281 6.601562 16.210938 6.699219 L 16.167969 6.867188 C 15.976562 7.609375 15.902344 7.886719 15.660156 7.933594 C 15.433594 7.976562 15.246094 7.738281 14.964844 7.347656 C 14.742188 7.039062 14.648438 7.042969 14.648438 7.042969 C 14.640625 7.046875 14.472656 7.101562 14.386719 8.175781 C 14.363281 8.472656 14.296875 8.882812 14.007812 8.949219 C 13.765625 9.003906 13.496094 8.78125 13.210938 8.285156 C 13.074219 8.039062 12.972656 7.980469 12.9375 7.988281 C 12.859375 8 12.695312 8.226562 12.582031 8.695312 C 12.496094 9.046875 12.492188 9.109375 12.40625 10.121094 L 12.285156 11.5625 C 12.082031 13.9375 12.773438 14.832031 13.328125 15.554688 C 13.621094 15.933594 13.957031 16.28125 14.3125 16.648438 C 14.628906 16.972656 14.953125 17.3125 15.246094 17.671875 C 16.46875 19.179688 16.085938 19.976562 15.863281 20.253906 M 7.90625 24.386719 C 7.351562 24.542969 7.242188 24.046875 7.074219 23.585938 C 6.945312 23.242188 6.644531 22.859375 6.484375 22.355469 C 6.292969 21.777344 6.1875 20.9375 6.1875 20.9375 C 6.882812 20.761719 8.03125 20.425781 8.695312 19.960938 C 9.167969 19.601562 9.460938 19.078125 9.585938 18.5 C 9.183594 19.050781 8.722656 19.625 8.019531 19.933594 C 6.644531 20.449219 5.125 20.785156 3.191406 20.660156 C 2.648438 20.625 1.296875 20.132812 1.882812 18.804688 C 2.058594 18.40625 1.996094 17.765625 1.859375 17.578125 C 1.722656 17.394531 1.480469 16.976562 1.882812 16.5625 C 2.46875 16.652344 3.78125 16.515625 4.050781 16.375 C 4.324219 16.238281 4.613281 16.515625 4.59375 16.699219 C 4.546875 17.113281 5.042969 17.207031 4.953125 16.605469 C 4.925781 16.425781 4.816406 16.097656 4.683594 16.054688 C 4.546875 16.007812 4.414062 15.820312 4.457031 15.589844 C 4.503906 15.359375 4.1875 15.082031 3.648438 15.175781 C 3.109375 15.269531 3.289062 15.636719 3.648438 15.589844 C 4.007812 15.546875 4.050781 15.820312 3.691406 15.914062 C 3.332031 16.007812 2.402344 16.195312 2 16.085938 C 1.503906 15.945312 1.644531 15.222656 1.871094 14.484375 C 1.957031 14.203125 1.835938 14.140625 2.339844 14.097656 C 3.1875 14.023438 4.5625 13.625 4.976562 14.695312 C 5.152344 15.148438 5.546875 15.203125 5.269531 14.457031 C 5.113281 14.035156 4.488281 13.652344 4.351562 13.605469 C 4.46875 13.0625 4.066406 12.339844 3.222656 12.234375 C 2.308594 12.113281 2.46875 13.089844 2.917969 13.230469 C 3.566406 13.4375 3.515625 12.921875 3.144531 13.003906 C 2.714844 12.902344 2.820312 12.527344 3.113281 12.511719 C 3.445312 12.488281 3.730469 12.683594 3.957031 13.019531 C 4.179688 13.355469 3.890625 13.628906 3.613281 13.652344 C 2.777344 13.726562 1.84375 13.902344 1.347656 13.902344 C 0.851562 13.902344 0.0078125 13.546875 0.90625 12.117188 C 1.808594 10.683594 1.886719 10.46875 2.113281 10.144531 C 2.339844 9.820312 2.699219 9.257812 2.609375 8.65625 C 2.519531 8.058594 2.15625 7.632812 3.328125 6.570312 C 4.5 5.507812 6.566406 3.78125 7.421875 3.367188 C 8.144531 3.921875 10.21875 4.558594 9.585938 9.265625 C 9.417969 10.523438 8.597656 13.207031 10.757812 16.667969 C 11.167969 16.371094 12.542969 16.875 11.703125 18.960938 C 11.972656 19.5625 13.039062 21.953125 13.128906 22.089844 C 12.09375 22.738281 10.140625 23.742188 7.90625 24.386719 M 20.769531 5.265625 C 20.769531 5.6875 20.4375 6.027344 20.027344 6.027344 C 19.617188 6.027344 19.285156 5.6875 19.285156 5.265625 C 19.285156 4.847656 19.617188 4.503906 20.027344 4.503906 C 20.4375 4.503906 20.769531 4.847656 20.769531 5.265625 M 20.570312 3.027344 L 20.570312 4.136719 L 20.003906 4.136719 L 19.003906 3.027344 Z M 22.019531 3.726562 L 22.339844 4.890625 L 21.289062 5.144531 L 21.054688 4.472656 C 21.289062 4.15625 21.671875 3.875 22.019531 3.726562 M 27.878906 16.199219 C 28.449219 10.921875 23.472656 7.164062 21.59375 5.492188 L 22.816406 5.214844 L 22.1875 3.082031 C 22.1875 3.082031 21.378906 3.636719 20.972656 3.914062 L 20.972656 2.621094 L 18.585938 2.621094 C 18.585938 2.621094 17.734375 1.835938 16.246094 0.679688 C 14.761719 -0.472656 12.128906 0.183594 11.578125 0.207031 C 11.253906 0.230469 10.597656 0.0195312 9.382812 0.113281 C 7.316406 0.269531 6.902344 2.027344 7.261719 2.859375 C 5.867188 3.828125 1.777344 6.863281 2.003906 7.878906 C 2.15625 8.558594 2.253906 9.128906 1.894531 9.542969 C 1.757812 9.699219 1.578125 10.28125 0.496094 11.898438 C -0.789062 13.824219 0.753906 14.425781 1.375 14.414062 C 1.375 14.414062 1.398438 14.601562 1.351562 14.714844 C 1.203125 15.078125 1.128906 16.054688 1.308594 16.285156 C 1.347656 16.335938 1.375 16.363281 1.398438 16.378906 C 1.382812 16.382812 1.371094 16.398438 1.351562 16.421875 C 1.261719 16.5625 0.925781 16.898438 1.308594 17.484375 C 1.761719 18.179688 1.304688 18.523438 1.257812 18.941406 C 0.917969 22.082031 4.921875 20.941406 5.6875 21.035156 C 5.726562 21.390625 5.816406 21.988281 6.019531 22.550781 C 6.265625 23.222656 6.609375 23.539062 6.710938 23.988281 C 6.832031 24.53125 7.109375 25.09375 7.652344 24.960938 C 9.769531 24.449219 12.421875 23.207031 13.683594 22.378906 C 14.132812 22.609375 15.886719 22.792969 16.789062 22.699219 C 17.6875 22.609375 17.898438 23.148438 18.363281 23.070312 C 18.519531 22.960938 18.617188 22.695312 18.746094 22.53125 C 19.738281 21.296875 20.171875 18.378906 20.035156 17.015625 C 20.5625 18.039062 21.664062 19.660156 21.753906 20.667969 C 23.511719 19.894531 24.136719 16.335938 23.742188 14.816406 C 25.230469 16.933594 26.582031 17.371094 28.019531 17.226562 C 28 17.171875 27.84375 16.519531 27.878906 16.199219 "/>
</g>
<path style=" stroke:none;fill-rule:nonzero;fill:rgb(13.72549%,12.156863%,12.54902%);fill-opacity:1;" d="M 14.230469 18.691406 C 14.210938 18.710938 14.171875 18.777344 14.179688 18.953125 C 14.195312 19.316406 14.460938 19.628906 14.738281 19.863281 C 14.742188 19.671875 14.730469 19.457031 14.691406 19.210938 C 14.578125 18.871094 14.425781 18.625 14.230469 18.691406 "/>
<path style=" stroke:none;fill-rule:nonzero;fill:rgb(0%,0%,0%);fill-opacity:1;" d="M 8.867188 15.699219 C 8.4375 15.214844 7.789062 13.820312 9.078125 12.621094 C 8.09375 12.351562 6.738281 15.054688 8.867188 15.699219 "/>
<path style=" stroke:none;fill-rule:nonzero;fill:rgb(0%,0%,0%);fill-opacity:1;" d="M 6.546875 5.558594 C 6.546875 5.558594 6.960938 5.867188 7.277344 6.28125 C 7.535156 6.621094 7.667969 6.375 7.492188 6.078125 C 7.308594 5.769531 6.828125 5.421875 6.5 5.085938 L 6.777344 4.894531 C 6.777344 4.894531 8.089844 6.011719 8.644531 6.742188 C 8.808594 6.953125 9.039062 6.8125 8.921875 6.621094 C 8.523438 5.964844 7.503906 5.082031 7.054688 4.679688 L 7.332031 4.492188 C 7.332031 4.492188 7.90625 4.824219 8.324219 5.390625 C 8.546875 5.699219 8.808594 5.464844 8.507812 5.15625 C 8.339844 4.984375 7.859375 4.515625 7.597656 4.328125 C 7.367188 4.164062 7.386719 4.050781 7.054688 4.265625 C 7.054688 4.265625 6.785156 4.480469 6.304688 4.820312 C 5.824219 5.15625 6.246094 5.3125 6.546875 5.558594 "/>
<path style=" stroke:none;fill-rule:nonzero;fill:rgb(0%,0%,0%);fill-opacity:1;" d="M 5.773438 9.359375 C 6.011719 9.484375 6.011719 9.453125 5.742188 9.542969 C 5.472656 9.636719 4.578125 9.734375 4.578125 9.734375 C 4.609375 9.613281 4.609375 9.390625 4.578125 9.296875 C 4.546875 9.207031 4.609375 8.933594 4.609375 8.933594 C 4.609375 8.933594 5.53125 9.238281 5.773438 9.359375 M 4.289062 8.140625 C 4.148438 8.078125 3.726562 7.875 3.777344 7.804688 C 3.835938 7.71875 4.171875 7.613281 4.457031 7.5625 C 4.742188 7.515625 4.566406 7.769531 4.503906 7.914062 C 4.441406 8.054688 4.429688 8.203125 4.289062 8.140625 M 7.164062 7.785156 C 6.644531 7.855469 5.980469 7.417969 5.507812 7.03125 C 5.101562 6.699219 4.320312 6.570312 3.746094 6.8125 C 3.171875 7.054688 3.441406 7.441406 3.664062 7.625 C 3.664062 7.625 3.742188 7.785156 3.394531 8.050781 C 2.992188 8.359375 3.496094 8.460938 3.945312 8.621094 C 3.765625 8.90625 3.863281 9.433594 3.910156 9.722656 C 3.320312 9.75 3.023438 9.828125 3.082031 9.957031 C 3.128906 10.066406 3.609375 10.140625 3.867188 10.085938 C 3.894531 10.234375 3.734375 10.785156 3.964844 10.742188 C 4.203125 10.699219 4.398438 10.410156 4.464844 10.0625 C 4.464844 10.0625 5.390625 9.914062 6.003906 9.761719 C 6.539062 9.628906 6.566406 9.421875 6.273438 9.277344 C 5.878906 9.082031 5.171875 8.648438 4.738281 8.355469 C 4.53125 8.214844 4.699219 8.027344 4.789062 7.769531 C 4.882812 7.511719 5.46875 7.828125 5.664062 7.949219 C 5.859375 8.074219 6.726562 8.519531 7.308594 8.28125 C 7.808594 8.074219 7.996094 7.664062 7.164062 7.785156 "/>
</g>
</svg>
