<?xml version="1.0" encoding="UTF-8"?>
<svg xmlns="http://www.w3.org/2000/svg" xmlns:xlink="http://www.w3.org/1999/xlink" width="35pt" height="25pt" viewBox="0 0 35 25" version="1.1">
<g id="surface1">
<path style=" stroke:none;fill-rule:nonzero;fill:rgb(0%,32.941176%,53.333333%);fill-opacity:1;" d="M 32.46875 18.148438 C 32.402344 17.992188 31.597656 16.230469 30.992188 15.609375 C 30.207031 14.480469 30.175781 14.519531 30.207031 14.480469 C 31.550781 12.582031 32.074219 10.597656 31.507812 8.804688 C 30.539062 5.75 26.667969 4.058594 21.769531 4.109375 C 21.597656 3.835938 21.382812 3.570312 21.121094 3.324219 C 20.464844 2.71875 19.6875 2.398438 19.03125 2.398438 L 17.550781 0 L 14.1875 5.449219 C 6.53125 8.019531 1.488281 13.515625 2.867188 17.871094 C 3.226562 19.003906 4.789062 20.636719 4.789062 20.636719 L 2.261719 24.871094 C 8.472656 24.121094 13.664062 23.847656 13.664062 23.847656 L 14 22.503906 C 15.828125 22.363281 17.769531 21.996094 19.730469 21.375 C 20.265625 21.203125 20.789062 21.019531 21.300781 20.824219 C 21.539062 21.597656 21.824219 22.496094 21.882812 22.628906 C 22.824219 24.855469 25.957031 25.65625 28.882812 24.417969 C 31.804688 23.179688 33.410156 20.371094 32.46875 18.148438 Z M 32.46875 18.148438 "/>
<path style=" stroke:none;fill-rule:nonzero;fill:rgb(65.490196%,69.411765%,71.764706%);fill-opacity:1;" d="M 21.941406 19.34375 C 18.664062 17.808594 16 18.933594 15.285156 19.039062 C 15.09375 19.113281 14.910156 19.183594 14.726562 19.246094 C 14.59375 19.296875 14.464844 19.339844 14.335938 19.382812 C 10.769531 20.558594 8.328125 19.863281 7.109375 18.269531 C 7.027344 18.167969 6.953125 18.054688 6.882812 17.941406 C 5.386719 15.519531 6.375 11.417969 10.167969 8.402344 C 3.164062 13.710938 6.289062 17.980469 6.578125 18.320312 C 6.589844 18.339844 6.601562 18.359375 6.613281 18.382812 C 4.664062 21.574219 3.207031 23.988281 3.097656 24.261719 C 7.296875 23.800781 13.285156 23.339844 13.285156 23.339844 L 14.578125 19.664062 C 17.351562 18.550781 20.472656 18.558594 23.273438 20.367188 C 23.273438 20.367188 23.171875 19.804688 21.941406 19.34375 Z M 21.941406 19.34375 "/>
<path style=" stroke:none;fill-rule:nonzero;fill:rgb(100%,100%,100%);fill-opacity:1;" d="M 29.671875 13.898438 C 29.878906 13.96875 30.589844 12.054688 30.542969 11.03125 C 30.402344 7.792969 26.652344 5.3125 22.113281 5.410156 C 22.066406 5.851562 21.984375 6.226562 21.875 6.496094 L 25.804688 12.621094 C 25.804688 12.621094 27.933594 12.738281 29.671875 13.898438 Z M 29.671875 13.898438 "/>
<path style=" stroke:none;fill-rule:nonzero;fill:rgb(100%,100%,100%);fill-opacity:1;" d="M 6.308594 17.847656 C 4.238281 14.574219 7.085938 9.875 12.746094 6.765625 C -1.292969 13.046875 5.648438 18.859375 5.648438 18.859375 L 6.34375 17.898438 C 6.332031 17.878906 6.320312 17.863281 6.308594 17.847656 Z M 6.308594 17.847656 "/>
<path style=" stroke:none;fill-rule:nonzero;fill:rgb(100%,100%,100%);fill-opacity:1;" d="M 14.574219 21.003906 L 14.933594 20.082031 C 19.386719 18.597656 20.925781 19.777344 20.925781 19.777344 C 17.75 21.003906 14.574219 21.003906 14.574219 21.003906 Z M 14.574219 21.003906 "/>
<path style=" stroke:none;fill-rule:nonzero;fill:rgb(65.490196%,69.411765%,71.764706%);fill-opacity:1;" d="M 10.167969 8.402344 C 10.574219 8.09375 11.015625 7.78125 11.496094 7.464844 C 11.019531 7.761719 10.578125 8.074219 10.167969 8.402344 Z M 10.167969 8.402344 "/>
<path style=" stroke:none;fill-rule:nonzero;fill:rgb(100%,100%,100%);fill-opacity:1;" d="M 12.007812 7.875 C 7.5 10.433594 7.191406 15.25 7.191406 15.25 C 7.191406 15.25 7.5 15.144531 7.5 15.25 C 7.460938 16.058594 7.585938 16.660156 7.8125 17.113281 L 9.257812 14.71875 C 8.554688 13.417969 8.621094 11.164062 12.007812 7.875 Z M 12.007812 7.875 "/>
<path style=" stroke:none;fill-rule:nonzero;fill:rgb(54.509804%,16.078431%,25.882353%);fill-opacity:1;" d="M 6.835938 18.722656 L 3.710938 23.886719 L 13.066406 23.03125 L 14.183594 19.816406 C 13.246094 20.136719 8.824219 21.453125 6.835938 18.722656 Z M 6.835938 18.722656 "/>
<path style=" stroke:none;fill-rule:nonzero;fill:rgb(0%,0%,0%);fill-opacity:1;" d="M 32.339844 20.839844 C 31.414062 23.289062 26.910156 25.847656 23.660156 24.136719 C 22.8125 23.648438 22.402344 22.980469 21.765625 21.589844 C 24.296875 24.464844 29.503906 20.507812 29.503906 20.507812 C 29.503906 20.507812 30.363281 20.292969 30.363281 19.632812 C 30.800781 19.300781 31.023438 18.863281 31.351562 18.421875 C 31.679688 19.082031 32.339844 20.839844 32.339844 20.839844 Z M 32.339844 20.839844 "/>
<path style=" stroke:none;fill-rule:nonzero;fill:rgb(65.490196%,69.411765%,71.764706%);fill-opacity:1;" d="M 19.664062 12.570312 C 19.664062 12.570312 19.171875 12.757812 18.878906 12.871094 C 18.75 12.921875 17.609375 9.890625 17.609375 9.890625 C 17.609375 9.890625 16.414062 13.289062 16.183594 13.976562 C 16.167969 14.027344 15.382812 14.28125 15.382812 14.28125 C 15.382812 14.28125 13.539062 15.101562 12.820312 15.203125 C 13.285156 15.203125 13.894531 15.058594 14.421875 14.898438 C 15.089844 14.734375 15.695312 14.433594 16.355469 14.289062 C 17.453125 13.902344 18.523438 13.402344 19.628906 12.984375 L 19.625 12.992188 C 19.691406 12.964844 19.761719 12.9375 19.828125 12.910156 C 20.71875 12.585938 21.261719 12.371094 21.261719 12.371094 C 21.261719 12.371094 22.789062 11.925781 23.601562 11.851562 C 22.167969 11.851562 19.664062 12.570312 19.664062 12.570312 Z M 16.796875 13.660156 L 17.632812 11.222656 L 18.277344 13.09375 C 17.957031 13.128906 16.796875 13.660156 16.796875 13.660156 Z M 16.796875 13.660156 "/>
<path style=" stroke:none;fill-rule:nonzero;fill:rgb(65.490196%,69.411765%,71.764706%);fill-opacity:1;" d="M 25.167969 12.585938 L 17.535156 0.652344 C 17.535156 0.652344 9.855469 13.269531 9.859375 13.105469 C 9.710938 13.445312 9.644531 13.761719 9.664062 14.050781 L 10.027344 13.453125 L 17.558594 1.25 L 24.671875 12.304688 C 24.765625 12.445312 24.832031 12.558594 24.875 12.652344 C 25.550781 12.699219 25.167969 12.585938 25.167969 12.585938 Z M 25.167969 12.585938 "/>
<path style=" stroke:none;fill-rule:nonzero;fill:rgb(54.509804%,16.078431%,25.882353%);fill-opacity:1;" d="M 24.671875 12.304688 L 17.558594 1.25 L 10.027344 13.453125 L 9.664062 14.050781 C 9.78125 15.867188 13.21875 16.472656 19.382812 13.546875 C 20.449219 13.039062 21.875 12.703125 23.789062 12.644531 C 24.066406 12.636719 24.355469 12.632812 24.65625 12.636719 C 24.738281 12.644531 24.8125 12.648438 24.875 12.652344 C 24.832031 12.558594 24.765625 12.445312 24.671875 12.304688 Z M 21.261719 12.371094 C 21.261719 12.371094 20.71875 12.585938 19.828125 12.910156 C 19.761719 12.9375 19.695312 12.964844 19.625 12.992188 L 19.628906 12.984375 C 18.523438 13.402344 17.453125 13.902344 16.355469 14.289062 C 15.695312 14.433594 15.089844 14.734375 14.421875 14.898438 C 13.894531 15.058594 13.285156 15.203125 12.820312 15.203125 C 13.539062 15.101562 15.382812 14.28125 15.382812 14.28125 C 15.382812 14.28125 16.167969 14.027344 16.183594 13.976562 C 16.414062 13.289062 17.609375 9.890625 17.609375 9.890625 C 17.609375 9.890625 18.75 12.921875 18.878906 12.871094 C 19.171875 12.757812 19.664062 12.570312 19.664062 12.570312 C 19.664062 12.570312 22.167969 11.851562 23.601562 11.851562 C 22.789062 11.925781 21.261719 12.371094 21.261719 12.371094 Z M 21.261719 12.371094 "/>
<path style=" stroke:none;fill-rule:nonzero;fill:rgb(100%,100%,100%);fill-opacity:1;" d="M 21.597656 6.15625 C 22.300781 2.34375 17.675781 2.632812 17.675781 2.632812 L 17.484375 3.582031 L 16.777344 3.855469 L 16.234375 5.523438 L 15.769531 5.816406 L 14.941406 7.234375 C 14.941406 7.234375 20.128906 3.375 21.597656 6.15625 Z M 21.597656 6.15625 "/>
<path style=" stroke:none;fill-rule:nonzero;fill:rgb(0%,32.941176%,53.333333%);fill-opacity:1;" d="M 17.230469 4.460938 C 17.09375 4.871094 17.09375 4.871094 17.09375 4.871094 C 17.09375 4.871094 19.621094 3.980469 21.054688 4.734375 C 21.054688 4.734375 20.4375 3.707031 17.230469 4.460938 Z M 17.230469 4.460938 "/>
<path style=" stroke:none;fill-rule:nonzero;fill:rgb(65.490196%,69.411765%,71.764706%);fill-opacity:1;" d="M 16 6.234375 C 16 6.234375 16 6.234375 16.207031 5.773438 C 19.996094 3.726562 21.171875 5.160156 21.171875 5.160156 C 19.125 4.136719 16 6.234375 16 6.234375 Z M 16 6.234375 "/>
<path style=" stroke:none;fill-rule:nonzero;fill:rgb(100%,100%,100%);fill-opacity:1;" d="M 28.804688 14.121094 C 26.132812 12.832031 23.535156 13.019531 21.839844 13.394531 C 20.640625 13.660156 19.894531 14.019531 19.894531 14.019531 C 15.128906 16.015625 12.875 16.375 11.1875 15.863281 C 11.085938 15.964844 11.085938 16.066406 10.878906 16.066406 C 10.460938 15.988281 9.707031 15.546875 9.257812 14.71875 L 7.8125 17.113281 C 8.210938 17.917969 8.929688 18.261719 9.652344 18.527344 C 11.398438 19.214844 13.011719 18.96875 14.628906 18.539062 C 16.988281 17.914062 19.351562 16.898438 22.144531 17.808594 C 23.886719 18.421875 26.550781 20.011719 26.550781 21.292969 C 23.886719 22.671875 22.25 21.1875 22.042969 20.984375 C 22.964844 22.417969 25.066406 22.367188 26.449219 21.597656 L 27.207031 21.222656 L 26.859375 20.472656 L 27.0625 20.265625 L 27.675781 20.777344 L 27.265625 19.550781 C 27.265625 19.445312 28.394531 20.574219 28.394531 20.574219 C 28.703125 20.574219 27.367188 18.730469 27.367188 18.730469 C 27.367188 18.730469 26.859375 19.035156 26.652344 19.140625 C 26.039062 18.011719 24.144531 17.039062 23.785156 16.886719 C 23.066406 16.578125 20.660156 15.863281 18.355469 16.167969 C 19.839844 15.605469 21.121094 15.453125 22.351562 15.554688 C 25.421875 15.761719 27.0625 18.011719 27.0625 18.011719 L 27.574219 17.601562 C 27.574219 17.601562 29.726562 19.855469 30.03125 21.289062 C 30.03125 20.265625 30.03125 19.242188 30.03125 18.21875 C 30.132812 18.117188 30.132812 18.117188 30.238281 18.011719 C 30.441406 18.117188 30.648438 18.523438 30.648438 18.523438 L 30.75 17.195312 C 31.570312 18.011719 32.082031 19.140625 32.285156 20.265625 C 32.386719 17.808594 30.851562 15.453125 28.804688 14.121094 Z M 28.804688 14.121094 "/>
<path style=" stroke:none;fill-rule:nonzero;fill:rgb(0%,32.941176%,53.333333%);fill-opacity:1;" d="M 26.449219 13.457031 C 26.449219 13.457031 29.167969 15.230469 29.242188 15.75 L 28.742188 16.347656 L 28.574219 17.152344 L 28.078125 16.570312 C 28.078125 16.570312 27.914062 16.597656 27.832031 16.707031 C 27.214844 15.886719 26.191406 15.375 25.269531 14.863281 C 23.117188 14.148438 20.761719 14.148438 18.613281 14.863281 C 16.359375 15.886719 14.105469 16.914062 11.648438 16.914062 C 8.625 16.648438 8.550781 14.53125 8.535156 13.289062 L 8.882812 11.304688 C 8.882812 11.304688 6.21875 16.425781 10.113281 17.320312 C 12.980469 17.835938 15.640625 16.605469 18.101562 15.476562 C 19.378906 14.992188 23.527344 13.558594 27.011719 16.707031 C 27.316406 16.808594 27.421875 17.117188 27.726562 17.320312 C 27.828125 17.21875 28.136719 17.117188 28.136719 17.117188 L 28.855469 17.9375 C 28.855469 17.9375 28.957031 17.117188 29.058594 16.707031 C 29.160156 16.605469 29.265625 16.503906 29.265625 16.503906 L 29.570312 15.992188 C 29.570312 15.992188 29.570312 15.886719 29.570312 15.785156 C 29.570312 15.683594 29.570312 15.683594 29.570312 15.582031 C 28.566406 14.054688 26.449219 13.457031 26.449219 13.457031 Z M 26.449219 13.457031 "/>
<path style=" stroke:none;fill-rule:nonzero;fill:rgb(65.490196%,69.411765%,71.764706%);fill-opacity:1;" d="M 27.300781 22.621094 L 27.097656 23.03125 C 24.09375 24.089844 22.828125 22.894531 22.691406 22.691406 C 24.878906 23.785156 27.300781 22.621094 27.300781 22.621094 Z M 27.300781 22.621094 "/>
<path style=" stroke:none;fill-rule:nonzero;fill:rgb(65.490196%,69.411765%,71.764706%);fill-opacity:1;" d="M 29.589844 22.65625 L 29.519531 23.03125 C 25.082031 25.488281 23.304688 23.476562 23.304688 23.476562 C 23.304688 23.476562 25.59375 25.011719 29.589844 22.65625 Z M 29.589844 22.65625 "/>
</g>
</svg>
