<?xml version="1.0" encoding="UTF-8"?>
<svg xmlns="http://www.w3.org/2000/svg" xmlns:xlink="http://www.w3.org/1999/xlink" width="28pt" height="20pt" viewBox="0 0 28 20" version="1.1">
<g id="surface1">
<path style=" stroke:none;fill-rule:nonzero;fill:rgb(4.313725%,44.313725%,29.803922%);fill-opacity:1;" d="M 14.878906 0 C 14.917969 0.25 14.929688 0.503906 14.960938 0.757812 C 15.152344 2.625 15.332031 4.488281 15.527344 6.355469 C 16.46875 6.445312 17.425781 6.789062 18.085938 7.488281 C 20.503906 7.484375 22.921875 7.488281 25.339844 7.484375 C 25.617188 7.46875 25.894531 7.476562 26.171875 7.480469 L 26.171875 7.488281 C 23.609375 8.855469 21.050781 10.230469 18.488281 11.601562 C 17.996094 12.640625 17.265625 13.578125 16.320312 14.238281 C 16.5 16.023438 16.679688 17.808594 16.859375 19.59375 C 15.175781 18.246094 13.5 16.890625 11.820312 15.539062 C 11.574219 15.5625 11.320312 15.542969 11.074219 15.574219 C 8.316406 17.046875 5.5625 18.53125 2.800781 20 C 3.691406 18.519531 4.589844 17.042969 5.480469 15.5625 C 4.816406 15.5625 4.152344 15.5625 3.488281 15.5625 C 4.394531 14.042969 5.300781 12.527344 6.207031 11.011719 C 4.746094 9.839844 3.289062 8.660156 1.828125 7.488281 C 3.988281 7.484375 6.152344 7.488281 8.3125 7.484375 C 8.546875 7.097656 8.777344 6.707031 9.007812 6.320312 C 9.695312 6.320312 10.378906 6.320312 11.0625 6.320312 C 12.332031 4.214844 13.609375 2.109375 14.878906 0 M 14.527344 1.390625 C 13.457031 3.171875 12.375 4.945312 11.308594 6.730469 C 10.621094 6.746094 9.933594 6.722656 9.246094 6.742188 C 9.03125 7.101562 8.8125 7.460938 8.601562 7.820312 C 8.578125 7.855469 8.558594 7.914062 8.503906 7.902344 C 6.671875 7.898438 4.84375 7.902344 3.011719 7.898438 C 4.246094 8.898438 5.484375 9.890625 6.71875 10.890625 C 6.769531 10.917969 6.714844 10.96875 6.699219 11.003906 C 5.875 12.378906 5.054688 13.757812 4.230469 15.136719 C 4.890625 15.144531 5.554688 15.132812 6.21875 15.140625 C 6.160156 15.261719 6.078125 15.371094 6.011719 15.492188 C 5.386719 16.527344 4.761719 17.5625 4.136719 18.601562 C 4.078125 18.699219 4.007812 18.796875 3.964844 18.902344 C 6.308594 17.652344 8.648438 16.390625 10.992188 15.144531 C 11.292969 15.136719 11.589844 15.136719 11.886719 15.117188 C 11.976562 15.097656 12.035156 15.175781 12.097656 15.222656 C 13.085938 16.019531 14.078125 16.816406 15.066406 17.617188 C 15.492188 17.949219 15.90625 18.300781 16.335938 18.628906 C 16.332031 18.601562 16.332031 18.550781 16.332031 18.527344 C 16.179688 17.027344 16.027344 15.523438 15.878906 14.023438 C 16.890625 13.390625 17.660156 12.414062 18.148438 11.332031 C 18.175781 11.273438 18.25 11.257812 18.300781 11.226562 C 20.347656 10.128906 22.394531 9.03125 24.445312 7.9375 C 24.453125 7.925781 24.46875 7.910156 24.476562 7.902344 C 22.285156 7.902344 20.089844 7.902344 17.898438 7.898438 C 17.636719 7.601562 17.324219 7.355469 16.972656 7.179688 C 16.40625 6.890625 15.773438 6.777344 15.144531 6.742188 C 14.957031 4.929688 14.78125 3.117188 14.59375 1.304688 C 14.570312 1.332031 14.546875 1.359375 14.527344 1.390625 Z M 14.527344 1.390625 "/>
<path style=" stroke:none;fill-rule:nonzero;fill:rgb(13.72549%,12.156863%,12.156863%);fill-opacity:1;" d="M 14.527344 1.390625 C 14.546875 1.359375 14.570312 1.332031 14.59375 1.300781 C 14.78125 3.113281 14.957031 4.929688 15.144531 6.742188 C 15.773438 6.777344 16.40625 6.890625 16.972656 7.179688 C 17.324219 7.355469 17.640625 7.601562 17.898438 7.898438 C 20.089844 7.902344 22.285156 7.902344 24.476562 7.902344 C 24.46875 7.910156 24.453125 7.925781 24.445312 7.9375 C 22.398438 9.03125 20.347656 10.128906 18.300781 11.226562 C 18.25 11.257812 18.175781 11.273438 18.148438 11.332031 C 17.660156 12.414062 16.890625 13.386719 15.878906 14.023438 C 16.027344 15.523438 16.179688 17.027344 16.332031 18.527344 C 16.332031 18.550781 16.335938 18.601562 16.335938 18.628906 C 15.90625 18.300781 15.492188 17.949219 15.070312 17.617188 C 14.078125 16.816406 13.085938 16.019531 12.097656 15.222656 C 12.035156 15.175781 11.976562 15.09375 11.886719 15.117188 C 11.589844 15.136719 11.292969 15.136719 10.996094 15.144531 C 8.648438 16.390625 6.308594 17.652344 3.964844 18.902344 C 4.007812 18.792969 4.078125 18.699219 4.136719 18.601562 C 4.761719 17.5625 5.386719 16.527344 6.011719 15.492188 C 6.078125 15.371094 6.160156 15.261719 6.21875 15.140625 C 5.554688 15.132812 4.890625 15.144531 4.230469 15.136719 C 5.054688 13.757812 5.875 12.378906 6.703125 11.003906 C 6.714844 10.96875 6.769531 10.917969 6.71875 10.886719 C 5.484375 9.890625 4.246094 8.898438 3.011719 7.898438 C 4.84375 7.902344 6.671875 7.898438 8.503906 7.902344 C 8.558594 7.914062 8.578125 7.855469 8.601562 7.820312 C 8.816406 7.460938 9.035156 7.101562 9.246094 6.742188 C 9.933594 6.722656 10.621094 6.746094 11.308594 6.730469 C 12.375 4.945312 13.457031 3.171875 14.527344 1.390625 M 13.792969 4.230469 C 13.117188 5.347656 12.449219 6.460938 11.773438 7.574219 C 11.089844 7.574219 10.40625 7.574219 9.726562 7.574219 C 9.492188 7.964844 9.261719 8.351562 9.03125 8.738281 C 7.839844 8.746094 6.652344 8.734375 5.464844 8.746094 C 5.449219 8.742188 5.421875 8.734375 5.40625 8.730469 C 5.4375 8.796875 5.511719 8.832031 5.5625 8.878906 C 6.324219 9.496094 7.089844 10.105469 7.847656 10.722656 C 7.378906 11.488281 6.929688 12.261719 6.464844 13.03125 C 6.21875 13.449219 5.957031 13.863281 5.722656 14.289062 L 5.703125 14.296875 C 6.773438 14.300781 7.847656 14.300781 8.917969 14.300781 C 8.992188 14.304688 9.066406 14.285156 9.136719 14.320312 C 9.003906 14.347656 8.878906 14.390625 8.746094 14.417969 L 8.738281 14.425781 C 8.300781 14.539062 7.863281 14.664062 7.425781 14.777344 C 7.226562 15.105469 7.027344 15.433594 6.828125 15.761719 C 6.644531 16.078125 6.4375 16.386719 6.265625 16.710938 C 6.300781 16.691406 6.335938 16.671875 6.371094 16.65625 C 6.464844 16.621094 6.546875 16.570312 6.632812 16.523438 C 7.761719 15.917969 8.894531 15.3125 10.023438 14.707031 C 10.285156 14.574219 10.535156 14.421875 10.800781 14.300781 C 11.277344 14.300781 11.757812 14.296875 12.234375 14.253906 C 13.230469 15.0625 14.230469 15.863281 15.230469 16.667969 L 15.230469 16.679688 C 15.253906 16.695312 15.28125 16.714844 15.304688 16.730469 C 15.214844 15.867188 15.132812 15 15.03125 14.136719 C 14.675781 14.183594 14.316406 14.179688 13.960938 14.179688 C 13.671875 14.179688 13.382812 14.164062 13.097656 14.148438 C 13.875 14.011719 14.652344 13.785156 15.335938 13.375 C 15.929688 13.023438 16.4375 12.53125 16.828125 11.960938 C 17.195312 11.429688 17.507812 10.84375 17.632812 10.207031 C 17.707031 9.867188 17.695312 9.519531 17.640625 9.179688 C 17.734375 9.296875 17.8125 9.425781 17.886719 9.554688 C 18.019531 9.8125 18.097656 10.09375 18.132812 10.378906 C 19.097656 9.859375 20.0625 9.335938 21.027344 8.816406 C 21.039062 8.804688 21.066406 8.78125 21.078125 8.769531 C 21.089844 8.769531 21.113281 8.765625 21.125 8.765625 C 21.121094 8.757812 21.109375 8.746094 21.105469 8.742188 C 19.890625 8.738281 18.675781 8.738281 17.460938 8.742188 L 17.457031 8.734375 C 17.21875 8.300781 16.796875 7.988281 16.335938 7.816406 C 15.714844 7.578125 15.042969 7.5625 14.386719 7.578125 C 14.257812 6.378906 14.152344 5.179688 14.015625 3.984375 C 14.011719 3.953125 14.011719 3.921875 14.007812 3.890625 C 13.925781 4 13.867188 4.117188 13.792969 4.230469 Z M 13.792969 4.230469 "/>
<path style=" stroke:none;fill-rule:nonzero;fill:rgb(13.72549%,12.156863%,12.156863%);fill-opacity:1;" d="M 10.355469 9.390625 C 11.421875 9.382812 12.484375 9.390625 13.550781 9.386719 C 13.910156 9.402344 14.285156 9.429688 14.601562 9.617188 C 14.765625 9.710938 14.875 9.878906 14.914062 10.0625 C 14.972656 10.375 14.871094 10.695312 14.722656 10.972656 C 14.382812 11.578125 13.796875 12.042969 13.128906 12.226562 C 12.757812 12.328125 12.371094 12.363281 11.988281 12.375 C 11.207031 12.378906 10.429688 12.371094 9.652344 12.378906 C 9.679688 12.308594 9.722656 12.246094 9.761719 12.183594 C 10.207031 11.449219 10.65625 10.722656 11.101562 9.992188 C 10.855469 9.789062 10.605469 9.589844 10.355469 9.390625 Z M 10.355469 9.390625 "/>
<path style=" stroke:none;fill-rule:nonzero;fill:rgb(65.490196%,66.666667%,67.45098%);fill-opacity:1;" d="M 13.976562 4.011719 C 13.984375 4.003906 14.003906 3.992188 14.015625 3.984375 C 14.152344 5.179688 14.257812 6.382812 14.386719 7.578125 C 13.96875 7.589844 13.550781 7.578125 13.136719 7.582031 C 13.152344 7.445312 13.195312 7.3125 13.222656 7.179688 C 13.472656 6.125 13.722656 5.066406 13.976562 4.011719 Z M 13.976562 4.011719 "/>
<path style=" stroke:none;fill-rule:nonzero;fill:rgb(65.490196%,66.666667%,67.45098%);fill-opacity:1;" d="M 10.410156 8.738281 C 10.460938 8.648438 10.511719 8.554688 10.574219 8.472656 C 11.8125 8.480469 13.046875 8.476562 14.285156 8.476562 C 14.746094 8.484375 15.226562 8.539062 15.636719 8.773438 C 15.871094 8.90625 16.058594 9.117188 16.175781 9.363281 C 16.601562 9.15625 17.03125 8.945312 17.457031 8.734375 L 17.460938 8.742188 C 17.53125 8.882812 17.578125 9.035156 17.640625 9.179688 C 17.695312 9.519531 17.707031 9.867188 17.632812 10.207031 C 17.507812 10.84375 17.195312 11.429688 16.828125 11.960938 C 16.4375 12.53125 15.929688 13.023438 15.332031 13.375 C 14.652344 13.785156 13.875 14.011719 13.09375 14.148438 C 12.808594 14.183594 12.519531 14.21875 12.234375 14.253906 C 11.757812 14.296875 11.277344 14.300781 10.800781 14.300781 C 10.535156 14.421875 10.285156 14.574219 10.023438 14.707031 C 8.894531 15.3125 7.761719 15.917969 6.632812 16.523438 C 6.546875 16.570312 6.464844 16.621094 6.371094 16.65625 C 6.363281 16.617188 6.386719 16.589844 6.414062 16.566406 C 7.109375 15.929688 7.804688 15.292969 8.503906 14.65625 C 8.582031 14.582031 8.671875 14.511719 8.738281 14.425781 L 8.746094 14.417969 C 8.875 14.390625 9.003906 14.347656 9.136719 14.320312 C 9.066406 14.285156 8.992188 14.304688 8.917969 14.300781 C 7.847656 14.300781 6.773438 14.300781 5.703125 14.296875 L 5.722656 14.289062 C 6.367188 13.96875 7.015625 13.65625 7.660156 13.335938 C 7.984375 12.816406 8.289062 12.28125 8.605469 11.757812 C 9.207031 10.75 9.808594 9.746094 10.410156 8.738281 M 10.355469 9.390625 C 10.605469 9.589844 10.855469 9.789062 11.101562 9.992188 C 10.65625 10.722656 10.207031 11.453125 9.761719 12.183594 C 9.722656 12.246094 9.679688 12.308594 9.652344 12.378906 C 9.003906 12.699219 8.347656 13.007812 7.707031 13.335938 C 8.992188 13.332031 10.28125 13.332031 11.566406 13.332031 C 12.402344 13.34375 13.25 13.226562 14.023438 12.894531 C 14.933594 12.507812 15.703125 11.769531 16.066406 10.84375 C 16.246094 10.382812 16.335938 9.859375 16.167969 9.382812 C 15.746094 9.582031 15.328125 9.792969 14.90625 9.992188 C 14.910156 10.011719 14.914062 10.042969 14.914062 10.0625 C 14.875 9.878906 14.765625 9.710938 14.601562 9.617188 C 14.285156 9.429688 13.910156 9.402344 13.550781 9.386719 C 12.484375 9.390625 11.421875 9.382812 10.355469 9.390625 Z M 10.355469 9.390625 "/>
<path style=" stroke:none;fill-rule:nonzero;fill:rgb(65.490196%,66.666667%,67.45098%);fill-opacity:1;" d="M 5.40625 8.730469 C 5.421875 8.734375 5.449219 8.742188 5.464844 8.746094 C 5.488281 8.757812 5.539062 8.777344 5.566406 8.789062 C 6.53125 9.09375 7.503906 9.390625 8.46875 9.695312 C 8.261719 10.039062 8.066406 10.386719 7.847656 10.722656 C 7.089844 10.105469 6.324219 9.496094 5.5625 8.878906 C 5.511719 8.832031 5.4375 8.796875 5.40625 8.730469 Z M 5.40625 8.730469 "/>
<path style=" stroke:none;fill-rule:nonzero;fill:rgb(65.490196%,66.666667%,67.45098%);fill-opacity:1;" d="M 20.65625 8.859375 C 20.796875 8.828125 20.933594 8.78125 21.078125 8.769531 C 21.066406 8.78125 21.039062 8.804688 21.027344 8.816406 C 20.0625 9.335938 19.097656 9.859375 18.132812 10.378906 C 18.097656 10.09375 18.019531 9.8125 17.886719 9.554688 C 18.808594 9.320312 19.734375 9.09375 20.65625 8.859375 Z M 20.65625 8.859375 "/>
<path style=" stroke:none;fill-rule:nonzero;fill:rgb(65.490196%,66.666667%,67.45098%);fill-opacity:1;" d="M 13.960938 14.179688 C 14.316406 14.179688 14.675781 14.183594 15.03125 14.136719 C 15.132812 15 15.214844 15.867188 15.304688 16.730469 C 15.28125 16.714844 15.253906 16.695312 15.226562 16.679688 L 15.230469 16.667969 C 15.242188 16.636719 15.238281 16.601562 15.21875 16.574219 C 14.800781 15.777344 14.371094 14.984375 13.960938 14.179688 Z M 13.960938 14.179688 "/>
<path style=" stroke:none;fill-rule:nonzero;fill:rgb(100%,100%,100%);fill-opacity:1;" d="M 14.691406 16.230469 C 14.402344 15.992188 13.734375 15.457031 13.210938 15.03125 C 12.6875 14.609375 12.261719 14.261719 12.261719 14.261719 C 12.261719 14.257812 12.453125 14.230469 12.6875 14.203125 L 13.113281 14.152344 L 13.320312 14.164062 C 13.4375 14.167969 13.625 14.179688 13.742188 14.183594 L 13.957031 14.191406 L 14.230469 14.710938 C 14.378906 14.996094 14.664062 15.535156 14.859375 15.90625 C 15.160156 16.476562 15.253906 16.664062 15.226562 16.65625 C 15.222656 16.65625 14.984375 16.464844 14.691406 16.230469 Z M 14.691406 16.230469 "/>
<path style=" stroke:none;fill-rule:nonzero;fill:rgb(100%,100%,100%);fill-opacity:1;" d="M 14.015625 15.675781 C 13.363281 15.148438 12.703125 14.613281 12.546875 14.488281 L 12.265625 14.257812 L 12.65625 14.210938 C 13.007812 14.167969 13.101562 14.164062 13.503906 14.179688 L 13.953125 14.195312 L 14.089844 14.453125 C 14.996094 16.171875 15.21875 16.597656 15.210938 16.617188 C 15.207031 16.625 14.671875 16.203125 14.015625 15.675781 Z M 14.015625 15.675781 "/>
<path style=" stroke:none;fill-rule:nonzero;fill:rgb(100%,100%,100%);fill-opacity:1;" d="M 6.367188 16.578125 C 6.367188 16.566406 6.394531 16.515625 6.425781 16.460938 C 6.480469 16.363281 7.417969 14.804688 7.429688 14.792969 C 7.445312 14.773438 8.683594 14.453125 8.679688 14.46875 C 8.675781 14.480469 8.246094 14.875 7.730469 15.347656 C 7.210938 15.820312 6.691406 16.296875 6.578125 16.402344 C 6.464844 16.507812 6.367188 16.585938 6.367188 16.578125 Z M 6.367188 16.578125 "/>
<path style=" stroke:none;fill-rule:nonzero;fill:rgb(100%,100%,100%);fill-opacity:1;" d="M 5.769531 14.238281 C 5.769531 14.21875 6.371094 13.210938 7.289062 11.683594 C 8.472656 9.71875 8.476562 9.710938 8.457031 9.691406 C 8.445312 9.679688 7.796875 9.472656 7.011719 9.230469 C 6.226562 8.984375 5.574219 8.777344 5.554688 8.765625 C 5.535156 8.757812 6.296875 8.746094 7.28125 8.746094 L 9.042969 8.746094 L 9.382812 8.171875 L 9.722656 7.601562 L 10.75 7.59375 L 11.777344 7.589844 L 12.859375 5.800781 C 13.457031 4.816406 13.945312 4.019531 13.949219 4.03125 C 13.953125 4.039062 13.773438 4.804688 13.554688 5.730469 C 13.335938 6.652344 13.148438 7.449219 13.140625 7.5 L 13.121094 7.589844 L 14.089844 7.589844 C 15.117188 7.589844 15.441406 7.605469 15.789062 7.675781 C 16.023438 7.722656 16.378906 7.839844 16.554688 7.925781 C 16.863281 8.082031 17.222656 8.386719 17.371094 8.617188 C 17.429688 8.714844 17.433594 8.738281 17.398438 8.753906 C 17.382812 8.757812 17.101562 8.894531 16.777344 9.054688 L 16.183594 9.34375 L 16.097656 9.207031 C 15.859375 8.839844 15.488281 8.625 14.90625 8.515625 C 14.734375 8.484375 14.46875 8.480469 12.636719 8.472656 C 10.660156 8.46875 10.554688 8.46875 10.535156 8.503906 C 10.519531 8.527344 9.925781 9.523438 9.210938 10.71875 C 7.472656 13.632812 7.679688 13.304688 7.507812 13.394531 C 7.066406 13.617188 5.769531 14.25 5.769531 14.238281 Z M 5.769531 14.238281 "/>
<path style=" stroke:none;fill-rule:nonzero;fill:rgb(100%,100%,100%);fill-opacity:1;" d="M 5.769531 14.238281 C 5.769531 14.21875 6.050781 13.746094 7.273438 11.707031 C 7.945312 10.59375 8.464844 9.699219 8.457031 9.691406 C 8.445312 9.683594 7.796875 9.472656 7.011719 9.230469 C 6.226562 8.984375 5.574219 8.777344 5.554688 8.765625 C 5.535156 8.757812 6.308594 8.746094 7.28125 8.746094 L 9.042969 8.746094 L 9.382812 8.175781 L 9.722656 7.601562 L 10.75 7.59375 L 11.777344 7.589844 L 12.859375 5.800781 C 13.457031 4.816406 13.945312 4.019531 13.949219 4.03125 C 13.953125 4.039062 13.78125 4.78125 13.566406 5.679688 C 13.355469 6.578125 13.167969 7.375 13.152344 7.449219 L 13.121094 7.589844 L 14.089844 7.589844 C 15.402344 7.589844 15.730469 7.621094 16.226562 7.796875 C 16.636719 7.9375 16.925781 8.121094 17.179688 8.390625 C 17.339844 8.558594 17.445312 8.710938 17.421875 8.734375 C 17.40625 8.75 16.222656 9.324219 16.195312 9.332031 C 16.183594 9.335938 16.148438 9.292969 16.121094 9.238281 C 16.035156 9.085938 15.765625 8.832031 15.59375 8.742188 C 15.394531 8.640625 15.164062 8.5625 14.914062 8.519531 C 14.734375 8.484375 14.484375 8.480469 12.644531 8.472656 C 10.671875 8.464844 10.574219 8.46875 10.542969 8.503906 C 10.523438 8.527344 9.925781 9.523438 9.214844 10.71875 C 8.5 11.914062 7.859375 12.988281 7.785156 13.105469 L 7.652344 13.320312 L 7.464844 13.414062 C 6.980469 13.660156 5.769531 14.25 5.769531 14.238281 Z M 5.769531 14.238281 "/>
<path style=" stroke:none;fill-rule:nonzero;fill:rgb(100%,100%,100%);fill-opacity:1;" d="M 17.773438 9.351562 C 17.675781 9.203125 17.488281 8.816406 17.488281 8.757812 C 17.488281 8.75 18.300781 8.746094 19.292969 8.75 C 20.847656 8.75 21.078125 8.753906 20.957031 8.777344 C 20.839844 8.804688 18.039062 9.5 17.933594 9.53125 C 17.910156 9.539062 17.863281 9.488281 17.773438 9.351562 Z M 17.773438 9.351562 "/>
<path style=" stroke:none;fill-rule:nonzero;fill:rgb(100%,100%,100%);fill-opacity:1;" d="M 8.695312 12.859375 L 9.636719 12.390625 L 10.828125 12.390625 C 12.304688 12.386719 12.679688 12.363281 13.160156 12.226562 C 14.140625 11.945312 14.976562 10.988281 14.933594 10.191406 L 14.921875 10 L 15.535156 9.703125 C 15.871094 9.539062 16.152344 9.417969 16.160156 9.425781 C 16.171875 9.433594 16.191406 9.519531 16.210938 9.609375 C 16.390625 10.476562 15.800781 11.679688 14.84375 12.402344 C 14.265625 12.835938 13.527344 13.125 12.65625 13.253906 C 12.242188 13.316406 11.6875 13.332031 9.722656 13.328125 L 7.75 13.328125 Z M 8.695312 12.859375 "/>
<path style=" stroke:none;fill-rule:nonzero;fill:rgb(100%,100%,100%);fill-opacity:1;" d="M 14.125 15.761719 C 13.527344 15.28125 12.867188 14.75 12.652344 14.578125 C 12.441406 14.40625 12.265625 14.261719 12.269531 14.261719 C 12.269531 14.257812 12.445312 14.234375 12.65625 14.210938 C 12.996094 14.167969 13.097656 14.164062 13.496094 14.179688 L 13.953125 14.195312 L 14.070312 14.410156 C 14.59375 15.398438 15.214844 16.601562 15.210938 16.617188 C 15.207031 16.625 14.71875 16.242188 14.125 15.761719 Z M 14.125 15.761719 "/>
<path style=" stroke:none;fill-rule:nonzero;fill:rgb(100%,100%,100%);fill-opacity:1;" d="M 6.367188 16.578125 C 6.367188 16.566406 6.394531 16.515625 6.425781 16.460938 C 6.484375 16.355469 7.421875 14.804688 7.429688 14.792969 C 7.445312 14.773438 8.683594 14.453125 8.679688 14.46875 C 8.671875 14.484375 8.050781 15.054688 6.554688 16.421875 C 6.453125 16.515625 6.367188 16.585938 6.367188 16.578125 Z M 6.367188 16.578125 "/>
</g>
</svg>
