<?xml version="1.0" encoding="UTF-8"?>
<svg xmlns="http://www.w3.org/2000/svg" xmlns:xlink="http://www.w3.org/1999/xlink" width="35pt" height="25pt" viewBox="0 0 35 25" version="1.1">
<g id="surface1">
<path style=" stroke:none;fill-rule:nonzero;fill:rgb(4.313725%,44.313725%,29.803922%);fill-opacity:1;" d="M 18.597656 0 C 18.648438 0.3125 18.664062 0.632812 18.703125 0.949219 C 18.9375 3.277344 19.167969 5.609375 19.410156 7.941406 C 20.585938 8.054688 21.78125 8.484375 22.609375 9.359375 C 25.628906 9.355469 28.652344 9.359375 31.675781 9.359375 C 32.019531 9.335938 32.367188 9.347656 32.714844 9.347656 L 32.714844 9.359375 C 29.511719 11.070312 26.3125 12.789062 23.109375 14.503906 C 22.496094 15.800781 21.582031 16.972656 20.398438 17.796875 C 20.625 20.027344 20.847656 22.261719 21.074219 24.492188 C 18.972656 22.808594 16.878906 21.109375 14.777344 19.421875 C 14.464844 19.453125 14.148438 19.425781 13.84375 19.46875 C 10.394531 21.308594 6.953125 23.160156 3.503906 25 C 4.613281 23.148438 5.738281 21.304688 6.847656 19.453125 C 6.019531 19.453125 5.191406 19.453125 4.363281 19.449219 C 5.492188 17.554688 6.625 15.660156 7.757812 13.765625 C 5.933594 12.296875 4.109375 10.828125 2.285156 9.359375 C 4.988281 9.359375 7.6875 9.359375 10.390625 9.359375 C 10.683594 8.871094 10.972656 8.386719 11.261719 7.898438 C 12.117188 7.902344 12.972656 7.898438 13.828125 7.898438 C 15.417969 5.265625 17.011719 2.636719 18.597656 0 M 18.160156 1.738281 C 16.824219 3.964844 15.46875 6.183594 14.136719 8.410156 C 13.277344 8.433594 12.414062 8.40625 11.554688 8.425781 C 11.292969 8.878906 11.019531 9.324219 10.753906 9.777344 C 10.722656 9.820312 10.695312 9.890625 10.628906 9.878906 C 8.339844 9.875 6.054688 9.878906 3.765625 9.875 C 5.308594 11.125 6.855469 12.363281 8.398438 13.609375 C 8.460938 13.648438 8.394531 13.710938 8.375 13.753906 C 7.34375 15.472656 6.320312 17.199219 5.285156 18.917969 C 6.113281 18.929688 6.945312 18.917969 7.773438 18.925781 C 7.699219 19.078125 7.597656 19.214844 7.515625 19.363281 C 6.734375 20.660156 5.949219 21.953125 5.167969 23.25 C 5.097656 23.375 5.007812 23.492188 4.953125 23.628906 C 7.886719 22.066406 10.808594 20.488281 13.742188 18.929688 C 14.113281 18.917969 14.488281 18.917969 14.859375 18.894531 C 14.972656 18.871094 15.042969 18.96875 15.121094 19.027344 C 16.359375 20.027344 17.597656 21.023438 18.835938 22.019531 C 19.367188 22.4375 19.882812 22.878906 20.417969 23.285156 C 20.417969 23.253906 20.414062 23.191406 20.414062 23.160156 C 20.222656 21.28125 20.03125 19.40625 19.847656 17.53125 C 21.113281 16.734375 22.074219 15.519531 22.683594 14.167969 C 22.722656 14.09375 22.8125 14.074219 22.875 14.035156 C 25.4375 12.664062 27.996094 11.292969 30.554688 9.921875 C 30.566406 9.910156 30.585938 9.886719 30.597656 9.875 C 27.855469 9.875 25.113281 9.878906 22.371094 9.875 C 22.046875 9.503906 21.65625 9.191406 21.214844 8.976562 C 20.507812 8.613281 19.714844 8.472656 18.929688 8.425781 C 18.695312 6.160156 18.472656 3.894531 18.242188 1.628906 C 18.214844 1.664062 18.183594 1.699219 18.160156 1.738281 Z M 18.160156 1.738281 "/>
<path style=" stroke:none;fill-rule:nonzero;fill:rgb(13.72549%,12.156863%,12.156863%);fill-opacity:1;" d="M 18.160156 1.738281 C 18.183594 1.699219 18.214844 1.664062 18.242188 1.628906 C 18.476562 3.894531 18.695312 6.160156 18.929688 8.425781 C 19.714844 8.472656 20.507812 8.613281 21.214844 8.972656 C 21.65625 9.191406 22.046875 9.503906 22.371094 9.875 C 25.113281 9.878906 27.855469 9.875 30.597656 9.875 C 30.585938 9.886719 30.566406 9.910156 30.554688 9.921875 C 27.996094 11.292969 25.4375 12.664062 22.875 14.03125 C 22.8125 14.074219 22.722656 14.09375 22.683594 14.167969 C 22.074219 15.519531 21.113281 16.734375 19.847656 17.53125 C 20.03125 19.40625 20.222656 21.28125 20.414062 23.15625 C 20.414062 23.191406 20.417969 23.253906 20.417969 23.285156 C 19.882812 22.875 19.367188 22.4375 18.835938 22.019531 C 17.597656 21.023438 16.359375 20.027344 15.121094 19.027344 C 15.042969 18.96875 14.972656 18.871094 14.859375 18.894531 C 14.488281 18.917969 14.113281 18.917969 13.742188 18.929688 C 10.808594 20.488281 7.886719 22.066406 4.957031 23.628906 C 5.007812 23.492188 5.097656 23.375 5.171875 23.25 C 5.949219 21.953125 6.734375 20.660156 7.515625 19.363281 C 7.597656 19.214844 7.699219 19.078125 7.773438 18.925781 C 6.945312 18.917969 6.117188 18.929688 5.285156 18.917969 C 6.320312 17.199219 7.34375 15.472656 8.375 13.753906 C 8.394531 13.710938 8.460938 13.648438 8.398438 13.609375 C 6.855469 12.363281 5.308594 11.125 3.765625 9.875 C 6.054688 9.878906 8.34375 9.875 10.628906 9.875 C 10.699219 9.890625 10.722656 9.820312 10.753906 9.777344 C 11.019531 9.324219 11.292969 8.878906 11.554688 8.425781 C 12.414062 8.40625 13.277344 8.433594 14.136719 8.410156 C 15.46875 6.183594 16.824219 3.964844 18.160156 1.738281 M 17.242188 5.289062 C 16.398438 6.683594 15.5625 8.078125 14.714844 9.46875 C 13.863281 9.46875 13.007812 9.46875 12.15625 9.46875 C 11.867188 9.953125 11.574219 10.4375 11.285156 10.925781 C 9.800781 10.929688 8.316406 10.917969 6.832031 10.929688 C 6.8125 10.925781 6.777344 10.917969 6.757812 10.914062 C 6.796875 10.996094 6.886719 11.039062 6.953125 11.101562 C 7.90625 11.867188 8.859375 12.632812 9.8125 13.40625 C 9.226562 14.359375 8.660156 15.328125 8.082031 16.289062 C 7.773438 16.8125 7.449219 17.328125 7.152344 17.859375 L 7.128906 17.871094 C 8.46875 17.878906 9.808594 17.875 11.148438 17.875 C 11.238281 17.878906 11.335938 17.855469 11.421875 17.898438 C 11.253906 17.933594 11.097656 17.988281 10.929688 18.023438 L 10.925781 18.03125 C 10.375 18.171875 9.828125 18.328125 9.28125 18.472656 C 9.03125 18.882812 8.785156 19.292969 8.535156 19.703125 C 8.304688 20.101562 8.046875 20.484375 7.832031 20.890625 C 7.875 20.863281 7.917969 20.839844 7.964844 20.820312 C 8.078125 20.777344 8.183594 20.710938 8.289062 20.65625 C 9.703125 19.898438 11.117188 19.140625 12.53125 18.382812 C 12.855469 18.21875 13.167969 18.027344 13.5 17.875 C 14.097656 17.878906 14.695312 17.871094 15.292969 17.816406 C 16.539062 18.828125 17.789062 19.828125 19.039062 20.835938 L 19.035156 20.847656 C 19.066406 20.871094 19.101562 20.890625 19.132812 20.914062 C 19.019531 19.835938 18.917969 18.75 18.789062 17.671875 C 18.347656 17.730469 17.898438 17.726562 17.449219 17.726562 C 17.089844 17.722656 16.730469 17.707031 16.371094 17.683594 C 17.34375 17.515625 18.3125 17.230469 19.167969 16.71875 C 19.914062 16.277344 20.546875 15.664062 21.035156 14.953125 C 21.492188 14.289062 21.882812 13.554688 22.042969 12.757812 C 22.132812 12.335938 22.121094 11.898438 22.050781 11.476562 C 22.167969 11.621094 22.269531 11.78125 22.359375 11.945312 C 22.523438 12.265625 22.621094 12.617188 22.664062 12.976562 C 23.871094 12.324219 25.078125 11.671875 26.285156 11.019531 C 26.300781 11.003906 26.332031 10.976562 26.347656 10.960938 C 26.363281 10.960938 26.390625 10.957031 26.40625 10.953125 C 26.398438 10.949219 26.386719 10.933594 26.382812 10.925781 C 24.863281 10.925781 23.34375 10.921875 21.828125 10.929688 L 21.824219 10.917969 C 21.523438 10.375 20.996094 9.988281 20.421875 9.769531 C 19.644531 9.472656 18.800781 9.453125 17.980469 9.472656 C 17.824219 7.976562 17.691406 6.476562 17.519531 4.980469 C 17.515625 4.941406 17.511719 4.902344 17.507812 4.863281 C 17.40625 4.996094 17.332031 5.148438 17.242188 5.289062 Z M 17.242188 5.289062 "/>
<path style=" stroke:none;fill-rule:nonzero;fill:rgb(13.72549%,12.156863%,12.156863%);fill-opacity:1;" d="M 12.945312 11.738281 C 14.277344 11.726562 15.609375 11.738281 16.941406 11.734375 C 17.386719 11.753906 17.859375 11.785156 18.25 12.019531 C 18.457031 12.136719 18.59375 12.347656 18.644531 12.578125 C 18.71875 12.96875 18.589844 13.371094 18.402344 13.714844 C 17.980469 14.472656 17.246094 15.050781 16.410156 15.28125 C 15.945312 15.410156 15.460938 15.453125 14.984375 15.46875 C 14.011719 15.472656 13.035156 15.464844 12.0625 15.472656 C 12.097656 15.382812 12.152344 15.308594 12.203125 15.226562 C 12.757812 14.3125 13.320312 13.40625 13.875 12.492188 C 13.566406 12.238281 13.253906 11.988281 12.945312 11.738281 Z M 12.945312 11.738281 "/>
<path style=" stroke:none;fill-rule:nonzero;fill:rgb(65.490196%,66.666667%,67.45098%);fill-opacity:1;" d="M 17.46875 5.015625 C 17.480469 5.007812 17.507812 4.988281 17.519531 4.980469 C 17.691406 6.476562 17.824219 7.976562 17.980469 9.472656 C 17.460938 9.488281 16.9375 9.472656 16.417969 9.480469 C 16.441406 9.308594 16.492188 9.140625 16.527344 8.972656 C 16.84375 7.65625 17.152344 6.332031 17.46875 5.015625 Z M 17.46875 5.015625 "/>
<path style=" stroke:none;fill-rule:nonzero;fill:rgb(65.490196%,66.666667%,67.45098%);fill-opacity:1;" d="M 13.011719 10.921875 C 13.078125 10.808594 13.140625 10.695312 13.21875 10.59375 C 14.765625 10.601562 16.308594 10.59375 17.855469 10.597656 C 18.433594 10.605469 19.035156 10.671875 19.546875 10.96875 C 19.839844 11.132812 20.070312 11.398438 20.21875 11.703125 C 20.753906 11.445312 21.289062 11.183594 21.824219 10.917969 L 21.828125 10.929688 C 21.914062 11.105469 21.972656 11.292969 22.050781 11.476562 C 22.121094 11.898438 22.132812 12.335938 22.042969 12.757812 C 21.882812 13.554688 21.492188 14.289062 21.035156 14.953125 C 20.546875 15.664062 19.910156 16.277344 19.167969 16.71875 C 18.3125 17.230469 17.34375 17.515625 16.371094 17.683594 C 16.011719 17.730469 15.652344 17.769531 15.292969 17.816406 C 14.695312 17.871094 14.097656 17.878906 13.5 17.875 C 13.167969 18.027344 12.855469 18.21875 12.53125 18.382812 C 11.117188 19.140625 9.703125 19.898438 8.289062 20.65625 C 8.183594 20.710938 8.078125 20.777344 7.964844 20.820312 C 7.953125 20.773438 7.984375 20.738281 8.015625 20.707031 C 8.890625 19.914062 9.757812 19.117188 10.628906 18.320312 C 10.730469 18.226562 10.839844 18.140625 10.921875 18.03125 L 10.929688 18.023438 C 11.097656 17.988281 11.253906 17.933594 11.421875 17.898438 C 11.335938 17.855469 11.238281 17.878906 11.148438 17.875 C 9.808594 17.875 8.46875 17.878906 7.128906 17.871094 L 7.152344 17.859375 C 7.957031 17.464844 8.769531 17.074219 9.574219 16.667969 C 9.980469 16.019531 10.363281 15.351562 10.757812 14.699219 C 11.507812 13.4375 12.261719 12.179688 13.011719 10.921875 M 12.945312 11.738281 C 13.253906 11.988281 13.566406 12.238281 13.875 12.492188 C 13.320312 13.40625 12.757812 14.3125 12.203125 15.226562 C 12.152344 15.308594 12.097656 15.382812 12.0625 15.472656 C 11.253906 15.875 10.4375 16.257812 9.632812 16.667969 C 11.242188 16.664062 12.851562 16.667969 14.460938 16.667969 C 15.503906 16.679688 16.5625 16.53125 17.527344 16.117188 C 18.667969 15.636719 19.628906 14.710938 20.082031 13.554688 C 20.308594 12.980469 20.421875 12.324219 20.207031 11.726562 C 19.683594 11.976562 19.160156 12.238281 18.636719 12.492188 C 18.636719 12.511719 18.640625 12.554688 18.644531 12.578125 C 18.59375 12.347656 18.457031 12.136719 18.25 12.019531 C 17.859375 11.785156 17.386719 11.753906 16.941406 11.734375 C 15.609375 11.738281 14.277344 11.726562 12.945312 11.738281 Z M 12.945312 11.738281 "/>
<path style=" stroke:none;fill-rule:nonzero;fill:rgb(65.490196%,66.666667%,67.45098%);fill-opacity:1;" d="M 6.757812 10.914062 C 6.777344 10.917969 6.8125 10.925781 6.832031 10.929688 C 6.863281 10.945312 6.925781 10.972656 6.957031 10.984375 C 8.164062 11.367188 9.378906 11.738281 10.585938 12.121094 C 10.328125 12.546875 10.082031 12.984375 9.8125 13.40625 C 8.859375 12.632812 7.90625 11.867188 6.953125 11.101562 C 6.886719 11.039062 6.796875 10.996094 6.757812 10.914062 Z M 6.757812 10.914062 "/>
<path style=" stroke:none;fill-rule:nonzero;fill:rgb(65.490196%,66.666667%,67.45098%);fill-opacity:1;" d="M 25.820312 11.078125 C 25.996094 11.035156 26.167969 10.976562 26.347656 10.960938 C 26.332031 10.976562 26.300781 11.003906 26.285156 11.019531 C 25.078125 11.671875 23.871094 12.324219 22.664062 12.976562 C 22.621094 12.617188 22.523438 12.265625 22.359375 11.945312 C 23.511719 11.652344 24.667969 11.367188 25.820312 11.078125 Z M 25.820312 11.078125 "/>
<path style=" stroke:none;fill-rule:nonzero;fill:rgb(65.490196%,66.666667%,67.45098%);fill-opacity:1;" d="M 17.449219 17.726562 C 17.898438 17.726562 18.347656 17.730469 18.789062 17.671875 C 18.917969 18.75 19.019531 19.835938 19.132812 20.914062 C 19.101562 20.890625 19.066406 20.871094 19.035156 20.847656 L 19.039062 20.835938 C 19.050781 20.792969 19.046875 20.753906 19.023438 20.71875 C 18.5 19.71875 17.964844 18.726562 17.449219 17.726562 Z M 17.449219 17.726562 "/>
<path style=" stroke:none;fill-rule:nonzero;fill:rgb(100%,100%,100%);fill-opacity:1;" d="M 18.367188 20.285156 C 18 19.992188 17.167969 19.320312 16.515625 18.792969 C 15.859375 18.265625 15.324219 17.828125 15.324219 17.824219 C 15.324219 17.820312 15.566406 17.789062 15.859375 17.753906 L 16.390625 17.691406 L 16.652344 17.703125 C 16.796875 17.710938 17.03125 17.722656 17.179688 17.726562 L 17.445312 17.738281 L 17.785156 18.386719 C 17.972656 18.742188 18.328125 19.417969 18.574219 19.882812 C 18.953125 20.597656 19.066406 20.832031 19.035156 20.824219 C 19.03125 20.820312 18.730469 20.582031 18.367188 20.285156 Z M 18.367188 20.285156 "/>
<path style=" stroke:none;fill-rule:nonzero;fill:rgb(100%,100%,100%);fill-opacity:1;" d="M 17.519531 19.59375 C 16.703125 18.933594 15.878906 18.265625 15.683594 18.109375 L 15.332031 17.824219 L 15.824219 17.765625 C 16.257812 17.710938 16.378906 17.707031 16.878906 17.722656 L 17.441406 17.742188 L 17.613281 18.066406 C 18.746094 20.214844 19.019531 20.75 19.015625 20.769531 C 19.007812 20.78125 18.335938 20.253906 17.519531 19.59375 Z M 17.519531 19.59375 "/>
<path style=" stroke:none;fill-rule:nonzero;fill:rgb(100%,100%,100%);fill-opacity:1;" d="M 7.960938 20.71875 C 7.960938 20.707031 7.992188 20.644531 8.03125 20.578125 C 8.101562 20.457031 9.273438 18.507812 9.289062 18.492188 C 9.304688 18.46875 10.855469 18.066406 10.847656 18.085938 C 10.84375 18.097656 10.308594 18.59375 9.660156 19.183594 C 9.011719 19.777344 8.367188 20.371094 8.222656 20.5 C 8.078125 20.632812 7.960938 20.730469 7.960938 20.71875 Z M 7.960938 20.71875 "/>
<path style=" stroke:none;fill-rule:nonzero;fill:rgb(100%,100%,100%);fill-opacity:1;" d="M 7.210938 17.800781 C 7.210938 17.773438 7.960938 16.511719 9.113281 14.601562 C 10.589844 12.148438 10.597656 12.140625 10.570312 12.113281 C 10.554688 12.101562 9.742188 11.839844 8.765625 11.535156 C 7.785156 11.230469 6.964844 10.972656 6.945312 10.957031 C 6.921875 10.945312 7.875 10.933594 9.101562 10.933594 L 11.304688 10.933594 L 11.730469 10.21875 L 12.15625 9.5 L 13.4375 9.492188 L 14.722656 9.488281 L 16.074219 7.25 C 16.820312 6.019531 17.429688 5.023438 17.433594 5.039062 C 17.441406 5.050781 17.21875 6.007812 16.945312 7.160156 C 16.671875 8.316406 16.4375 9.3125 16.425781 9.375 L 16.402344 9.488281 L 17.613281 9.488281 C 18.898438 9.488281 19.300781 9.507812 19.734375 9.59375 C 20.027344 9.652344 20.476562 9.796875 20.695312 9.90625 C 21.082031 10.101562 21.527344 10.480469 21.710938 10.773438 C 21.789062 10.894531 21.792969 10.921875 21.746094 10.941406 C 21.726562 10.949219 21.378906 11.117188 20.972656 11.316406 L 20.230469 11.679688 L 20.121094 11.507812 C 19.824219 11.050781 19.363281 10.78125 18.632812 10.644531 C 18.421875 10.605469 18.085938 10.601562 15.792969 10.59375 C 13.324219 10.585938 13.195312 10.585938 13.167969 10.632812 C 13.152344 10.65625 12.40625 11.902344 11.515625 13.398438 C 9.34375 17.042969 9.601562 16.632812 9.386719 16.742188 C 8.832031 17.023438 7.210938 17.8125 7.210938 17.800781 Z M 7.210938 17.800781 "/>
<path style=" stroke:none;fill-rule:nonzero;fill:rgb(100%,100%,100%);fill-opacity:1;" d="M 7.210938 17.800781 C 7.210938 17.773438 7.5625 17.183594 9.09375 14.632812 C 9.929688 13.242188 10.582031 12.125 10.570312 12.113281 C 10.554688 12.101562 9.742188 11.84375 8.765625 11.535156 C 7.785156 11.230469 6.964844 10.96875 6.945312 10.957031 C 6.921875 10.945312 7.882812 10.933594 9.101562 10.933594 L 11.304688 10.933594 L 11.726562 10.21875 L 12.152344 9.5 L 13.4375 9.492188 L 14.722656 9.488281 L 16.074219 7.25 C 16.820312 6.019531 17.429688 5.023438 17.433594 5.039062 C 17.441406 5.050781 17.226562 5.980469 16.960938 7.101562 C 16.695312 8.222656 16.460938 9.21875 16.441406 9.3125 L 16.402344 9.488281 L 17.613281 9.488281 C 19.25 9.488281 19.660156 9.527344 20.28125 9.746094 C 20.796875 9.921875 21.160156 10.148438 21.476562 10.488281 C 21.671875 10.699219 21.804688 10.890625 21.773438 10.921875 C 21.757812 10.9375 20.28125 11.65625 20.246094 11.664062 C 20.230469 11.667969 20.1875 11.617188 20.148438 11.550781 C 20.042969 11.359375 19.703125 11.039062 19.488281 10.929688 C 19.246094 10.800781 18.957031 10.707031 18.644531 10.648438 C 18.417969 10.609375 18.105469 10.601562 15.804688 10.59375 C 13.339844 10.582031 13.21875 10.585938 13.179688 10.632812 C 13.15625 10.65625 12.40625 11.902344 11.515625 13.398438 C 10.625 14.890625 9.820312 16.234375 9.730469 16.382812 L 9.566406 16.652344 L 9.332031 16.769531 C 8.726562 17.078125 7.210938 17.8125 7.210938 17.800781 Z M 7.210938 17.800781 "/>
<path style=" stroke:none;fill-rule:nonzero;fill:rgb(100%,100%,100%);fill-opacity:1;" d="M 22.21875 11.691406 C 22.09375 11.507812 21.859375 11.023438 21.859375 10.945312 C 21.859375 10.941406 22.875 10.933594 24.117188 10.9375 C 26.058594 10.9375 26.347656 10.945312 26.199219 10.972656 C 26.050781 11.003906 22.546875 11.875 22.417969 11.914062 C 22.386719 11.921875 22.332031 11.859375 22.21875 11.691406 Z M 22.21875 11.691406 "/>
<path style=" stroke:none;fill-rule:nonzero;fill:rgb(100%,100%,100%);fill-opacity:1;" d="M 10.867188 16.074219 L 12.046875 15.488281 L 13.535156 15.488281 C 15.382812 15.484375 15.851562 15.453125 16.449219 15.28125 C 17.679688 14.929688 18.71875 13.738281 18.667969 12.738281 L 18.652344 12.496094 L 19.417969 12.128906 C 19.835938 11.925781 20.191406 11.769531 20.199219 11.78125 C 20.210938 11.792969 20.242188 11.898438 20.265625 12.011719 C 20.488281 13.097656 19.75 14.597656 18.550781 15.503906 C 17.832031 16.046875 16.90625 16.40625 15.820312 16.570312 C 15.304688 16.644531 14.609375 16.664062 12.152344 16.660156 L 9.6875 16.660156 Z M 10.867188 16.074219 "/>
<path style=" stroke:none;fill-rule:nonzero;fill:rgb(100%,100%,100%);fill-opacity:1;" d="M 17.65625 19.703125 C 16.910156 19.101562 16.085938 18.4375 15.816406 18.21875 C 15.550781 18.003906 15.332031 17.828125 15.335938 17.824219 C 15.335938 17.824219 15.554688 17.792969 15.820312 17.761719 C 16.242188 17.710938 16.375 17.707031 16.871094 17.722656 L 17.441406 17.742188 L 17.585938 18.011719 C 18.242188 19.25 19.019531 20.75 19.015625 20.769531 C 19.011719 20.78125 18.398438 20.300781 17.65625 19.703125 Z M 17.65625 19.703125 "/>
<path style=" stroke:none;fill-rule:nonzero;fill:rgb(100%,100%,100%);fill-opacity:1;" d="M 7.960938 20.71875 C 7.960938 20.707031 7.992188 20.644531 8.03125 20.578125 C 8.109375 20.445312 9.277344 18.503906 9.289062 18.492188 C 9.304688 18.46875 10.855469 18.066406 10.847656 18.085938 C 10.839844 18.105469 10.0625 18.820312 8.195312 20.527344 C 8.066406 20.644531 7.960938 20.730469 7.960938 20.71875 Z M 7.960938 20.71875 "/>
</g>
</svg>
