<?xml version="1.0" encoding="UTF-8"?>
<svg xmlns="http://www.w3.org/2000/svg" xmlns:xlink="http://www.w3.org/1999/xlink" width="24pt" height="20pt" viewBox="0 0 24 20" version="1.1">
<g id="surface1">
<path style=" stroke:none;fill-rule:nonzero;fill:rgb(4.313725%,44.313725%,29.803922%);fill-opacity:1;" d="M 12.878906 0.132812 C 12.917969 0.378906 12.929688 0.632812 12.960938 0.882812 C 13.148438 2.726562 13.328125 4.574219 13.519531 6.417969 C 14.445312 6.507812 15.386719 6.847656 16.035156 7.539062 C 18.414062 7.535156 20.796875 7.539062 23.175781 7.539062 C 23.449219 7.519531 23.722656 7.527344 23.992188 7.53125 L 23.992188 7.539062 C 21.472656 8.894531 18.953125 10.253906 16.429688 11.609375 C 15.945312 12.636719 15.226562 13.5625 14.296875 14.214844 C 14.476562 15.984375 14.648438 17.75 14.828125 19.515625 C 13.171875 18.179688 11.523438 16.839844 9.871094 15.503906 C 9.625 15.527344 9.375 15.507812 9.132812 15.539062 C 6.417969 16.996094 3.707031 18.460938 0.992188 19.917969 C 1.867188 18.453125 2.75 16.992188 3.628906 15.527344 C 2.976562 15.527344 2.320312 15.527344 1.667969 15.523438 C 2.558594 14.023438 3.449219 12.527344 4.34375 11.027344 C 2.90625 9.863281 1.46875 8.699219 0.0351562 7.539062 C 2.160156 7.539062 4.289062 7.539062 6.414062 7.539062 C 6.644531 7.152344 6.875 6.769531 7.101562 6.382812 C 7.777344 6.386719 8.449219 6.382812 9.125 6.382812 C 10.375 4.300781 11.628906 2.21875 12.878906 0.132812 M 12.535156 1.507812 C 11.480469 3.269531 10.414062 5.023438 9.363281 6.789062 C 8.6875 6.808594 8.011719 6.785156 7.332031 6.800781 C 7.125 7.15625 6.910156 7.511719 6.699219 7.867188 C 6.675781 7.902344 6.65625 7.960938 6.605469 7.949219 C 4.800781 7.945312 3 7.949219 1.199219 7.945312 C 2.414062 8.933594 3.632812 9.917969 4.847656 10.902344 C 4.894531 10.933594 4.84375 10.980469 4.828125 11.015625 C 4.015625 12.378906 3.210938 13.742188 2.398438 15.105469 C 3.050781 15.113281 3.703125 15.101562 4.355469 15.109375 C 4.296875 15.230469 4.21875 15.339844 4.152344 15.457031 C 3.539062 16.480469 2.917969 17.507812 2.304688 18.53125 C 2.246094 18.632812 2.179688 18.722656 2.136719 18.832031 C 4.445312 17.597656 6.746094 16.34375 9.054688 15.113281 C 9.347656 15.105469 9.640625 15.105469 9.933594 15.085938 C 10.023438 15.066406 10.078125 15.144531 10.140625 15.191406 C 11.117188 15.980469 12.09375 16.769531 13.066406 17.558594 C 13.484375 17.890625 13.890625 18.238281 14.3125 18.558594 C 14.3125 18.535156 14.308594 18.484375 14.308594 18.457031 C 14.160156 16.972656 14.007812 15.488281 13.863281 14.003906 C 14.859375 13.375 15.613281 12.414062 16.097656 11.34375 C 16.125 11.285156 16.195312 11.269531 16.246094 11.238281 C 18.261719 10.152344 20.277344 9.066406 22.292969 7.984375 C 22.300781 7.972656 22.320312 7.957031 22.328125 7.949219 C 20.167969 7.949219 18.007812 7.949219 15.851562 7.945312 C 15.59375 7.652344 15.285156 7.40625 14.9375 7.234375 C 14.382812 6.949219 13.757812 6.835938 13.140625 6.800781 C 12.957031 5.007812 12.78125 3.214844 12.597656 1.421875 C 12.574219 1.449219 12.550781 1.476562 12.535156 1.507812 Z M 12.535156 1.507812 "/>
<path style=" stroke:none;fill-rule:nonzero;fill:rgb(13.72549%,12.156863%,12.156863%);fill-opacity:1;" d="M 12.535156 1.507812 C 12.550781 1.476562 12.574219 1.449219 12.597656 1.421875 C 12.78125 3.214844 12.957031 5.007812 13.140625 6.800781 C 13.757812 6.835938 14.382812 6.949219 14.9375 7.234375 C 15.285156 7.40625 15.59375 7.652344 15.851562 7.945312 C 18.007812 7.949219 20.167969 7.949219 22.328125 7.949219 C 22.320312 7.957031 22.300781 7.972656 22.292969 7.984375 C 20.277344 9.066406 18.261719 10.152344 16.246094 11.238281 C 16.195312 11.269531 16.125 11.285156 16.097656 11.34375 C 15.613281 12.414062 14.859375 13.375 13.863281 14.003906 C 14.007812 15.488281 14.160156 16.972656 14.308594 18.457031 C 14.308594 18.484375 14.3125 18.535156 14.3125 18.558594 C 13.890625 18.238281 13.484375 17.890625 13.066406 17.558594 C 12.09375 16.769531 11.117188 15.980469 10.140625 15.191406 C 10.078125 15.144531 10.023438 15.066406 9.933594 15.085938 C 9.640625 15.105469 9.347656 15.105469 9.054688 15.113281 C 6.746094 16.34375 4.445312 17.597656 2.136719 18.832031 C 2.179688 18.722656 2.246094 18.632812 2.304688 18.53125 C 2.917969 17.507812 3.539062 16.480469 4.152344 15.457031 C 4.21875 15.339844 4.296875 15.230469 4.355469 15.109375 C 3.703125 15.101562 3.050781 15.113281 2.398438 15.105469 C 3.210938 13.742188 4.015625 12.378906 4.828125 11.015625 C 4.84375 10.980469 4.894531 10.933594 4.847656 10.902344 C 3.632812 9.917969 2.414062 8.933594 1.199219 7.945312 C 3 7.949219 4.800781 7.945312 6.605469 7.949219 C 6.65625 7.960938 6.675781 7.902344 6.699219 7.867188 C 6.910156 7.511719 7.125 7.15625 7.332031 6.800781 C 8.011719 6.785156 8.6875 6.808594 9.363281 6.789062 C 10.414062 5.023438 11.480469 3.269531 12.535156 1.507812 M 11.808594 4.316406 C 11.148438 5.421875 10.488281 6.523438 9.820312 7.625 C 9.148438 7.625 8.476562 7.625 7.804688 7.625 C 7.578125 8.007812 7.347656 8.390625 7.121094 8.777344 C 5.953125 8.78125 4.78125 8.773438 3.613281 8.78125 C 3.597656 8.777344 3.570312 8.773438 3.554688 8.769531 C 3.585938 8.835938 3.65625 8.871094 3.710938 8.917969 C 4.460938 9.523438 5.210938 10.128906 5.960938 10.738281 C 5.5 11.496094 5.054688 12.261719 4.597656 13.023438 C 4.355469 13.4375 4.097656 13.847656 3.867188 14.265625 L 3.847656 14.277344 C 4.902344 14.28125 5.957031 14.277344 7.011719 14.277344 C 7.082031 14.28125 7.160156 14.261719 7.226562 14.296875 C 7.097656 14.324219 6.972656 14.367188 6.84375 14.394531 L 6.835938 14.402344 C 6.402344 14.515625 5.972656 14.636719 5.542969 14.75 C 5.347656 15.074219 5.152344 15.398438 4.957031 15.726562 C 4.773438 16.039062 4.570312 16.34375 4.402344 16.664062 C 4.433594 16.644531 4.46875 16.621094 4.507812 16.609375 C 4.597656 16.574219 4.675781 16.523438 4.761719 16.476562 C 5.875 15.878906 6.988281 15.28125 8.101562 14.679688 C 8.355469 14.550781 8.601562 14.398438 8.863281 14.28125 C 9.335938 14.28125 9.804688 14.273438 10.277344 14.230469 C 11.257812 15.03125 12.242188 15.824219 13.222656 16.621094 L 13.222656 16.632812 C 13.246094 16.648438 13.273438 16.664062 13.300781 16.683594 C 13.210938 15.828125 13.128906 14.972656 13.03125 14.117188 C 12.679688 14.164062 12.328125 14.160156 11.972656 14.160156 C 11.691406 14.160156 11.40625 14.144531 11.125 14.125 C 11.890625 13.996094 12.65625 13.769531 13.328125 13.363281 C 13.914062 13.015625 14.414062 12.527344 14.796875 11.964844 C 15.160156 11.4375 15.464844 10.859375 15.589844 10.226562 C 15.664062 9.894531 15.652344 9.550781 15.597656 9.214844 C 15.6875 9.328125 15.769531 9.453125 15.839844 9.585938 C 15.96875 9.839844 16.046875 10.117188 16.082031 10.402344 C 17.03125 9.886719 17.980469 9.367188 18.929688 8.851562 C 18.941406 8.839844 18.96875 8.820312 18.980469 8.808594 C 18.992188 8.804688 19.015625 8.804688 19.027344 8.800781 C 19.019531 8.796875 19.011719 8.785156 19.007812 8.78125 C 17.8125 8.777344 16.617188 8.777344 15.421875 8.78125 L 15.417969 8.773438 C 15.179688 8.34375 14.765625 8.035156 14.3125 7.863281 C 13.703125 7.628906 13.039062 7.613281 12.394531 7.628906 C 12.269531 6.445312 12.164062 5.257812 12.027344 4.074219 C 12.027344 4.042969 12.023438 4.011719 12.019531 3.980469 C 11.941406 4.085938 11.882812 4.207031 11.808594 4.316406 Z M 11.808594 4.316406 "/>
<path style=" stroke:none;fill-rule:nonzero;fill:rgb(13.72549%,12.156863%,12.156863%);fill-opacity:1;" d="M 8.425781 9.421875 C 9.476562 9.414062 10.523438 9.421875 11.574219 9.417969 C 11.925781 9.433594 12.296875 9.457031 12.605469 9.644531 C 12.765625 9.738281 12.875 9.902344 12.914062 10.085938 C 12.972656 10.394531 12.871094 10.714844 12.726562 10.984375 C 12.390625 11.585938 11.8125 12.042969 11.15625 12.226562 C 10.789062 12.328125 10.410156 12.359375 10.03125 12.371094 C 9.265625 12.375 8.5 12.371094 7.734375 12.375 C 7.757812 12.304688 7.804688 12.246094 7.84375 12.183594 C 8.28125 11.460938 8.722656 10.742188 9.160156 10.015625 C 8.917969 9.816406 8.671875 9.621094 8.425781 9.421875 Z M 8.425781 9.421875 "/>
<path style=" stroke:none;fill-rule:nonzero;fill:rgb(65.490196%,66.666667%,67.45098%);fill-opacity:1;" d="M 11.988281 4.101562 C 12 4.09375 12.019531 4.082031 12.027344 4.074219 C 12.164062 5.257812 12.269531 6.445312 12.394531 7.628906 C 11.984375 7.640625 11.574219 7.628906 11.164062 7.632812 C 11.179688 7.5 11.21875 7.367188 11.25 7.234375 C 11.496094 6.191406 11.738281 5.144531 11.988281 4.101562 Z M 11.988281 4.101562 "/>
<path style=" stroke:none;fill-rule:nonzero;fill:rgb(65.490196%,66.666667%,67.45098%);fill-opacity:1;" d="M 8.480469 8.773438 C 8.53125 8.6875 8.582031 8.597656 8.640625 8.515625 C 9.859375 8.523438 11.078125 8.515625 12.292969 8.515625 C 12.75 8.523438 13.222656 8.578125 13.625 8.8125 C 13.855469 8.941406 14.039062 9.152344 14.152344 9.394531 C 14.578125 9.1875 14.996094 8.984375 15.417969 8.773438 L 15.421875 8.78125 C 15.488281 8.921875 15.535156 9.070312 15.597656 9.214844 C 15.652344 9.550781 15.664062 9.894531 15.589844 10.226562 C 15.464844 10.859375 15.160156 11.4375 14.796875 11.964844 C 14.414062 12.527344 13.914062 13.015625 13.328125 13.363281 C 12.65625 13.769531 11.890625 13.996094 11.125 14.125 C 10.839844 14.164062 10.558594 14.195312 10.277344 14.230469 C 9.804688 14.273438 9.335938 14.28125 8.863281 14.28125 C 8.601562 14.398438 8.355469 14.550781 8.101562 14.679688 C 6.988281 15.28125 5.875 15.878906 4.761719 16.476562 C 4.675781 16.523438 4.597656 16.574219 4.507812 16.609375 C 4.496094 16.570312 4.519531 16.542969 4.546875 16.519531 C 5.234375 15.890625 5.917969 15.261719 6.601562 14.632812 C 6.683594 14.558594 6.769531 14.488281 6.835938 14.402344 L 6.84375 14.394531 C 6.972656 14.367188 7.097656 14.324219 7.226562 14.296875 C 7.160156 14.261719 7.082031 14.28125 7.011719 14.277344 C 5.957031 14.277344 4.902344 14.28125 3.847656 14.277344 L 3.867188 14.265625 C 4.5 13.953125 5.140625 13.644531 5.773438 13.324219 C 6.09375 12.808594 6.394531 12.28125 6.707031 11.765625 C 7.296875 10.765625 7.890625 9.773438 8.480469 8.773438 M 8.425781 9.421875 C 8.671875 9.621094 8.917969 9.816406 9.160156 10.015625 C 8.722656 10.742188 8.28125 11.460938 7.84375 12.183594 C 7.804688 12.246094 7.757812 12.304688 7.734375 12.375 C 7.097656 12.695312 6.453125 13 5.820312 13.324219 C 7.085938 13.320312 8.351562 13.320312 9.621094 13.320312 C 10.441406 13.332031 11.277344 13.214844 12.035156 12.886719 C 12.933594 12.507812 13.6875 11.777344 14.046875 10.859375 C 14.226562 10.40625 14.3125 9.882812 14.148438 9.414062 C 13.730469 9.609375 13.320312 9.816406 12.90625 10.019531 C 12.910156 10.035156 12.914062 10.066406 12.914062 10.085938 C 12.875 9.902344 12.765625 9.738281 12.605469 9.644531 C 12.296875 9.457031 11.925781 9.433594 11.574219 9.417969 C 10.523438 9.421875 9.476562 9.414062 8.425781 9.421875 Z M 8.425781 9.421875 "/>
<path style=" stroke:none;fill-rule:nonzero;fill:rgb(65.490196%,66.666667%,67.45098%);fill-opacity:1;" d="M 3.554688 8.769531 C 3.570312 8.773438 3.597656 8.777344 3.613281 8.78125 C 3.636719 8.792969 3.6875 8.816406 3.710938 8.824219 C 4.664062 9.128906 5.621094 9.421875 6.570312 9.722656 C 6.367188 10.0625 6.175781 10.410156 5.960938 10.738281 C 5.210938 10.128906 4.460938 9.523438 3.710938 8.917969 C 3.65625 8.871094 3.585938 8.835938 3.554688 8.769531 Z M 3.554688 8.769531 "/>
<path style=" stroke:none;fill-rule:nonzero;fill:rgb(65.490196%,66.666667%,67.45098%);fill-opacity:1;" d="M 18.566406 8.898438 C 18.703125 8.867188 18.839844 8.820312 18.980469 8.808594 C 18.96875 8.820312 18.941406 8.839844 18.929688 8.851562 C 17.980469 9.367188 17.03125 9.886719 16.082031 10.402344 C 16.046875 10.117188 15.96875 9.839844 15.839844 9.585938 C 16.746094 9.351562 17.65625 9.128906 18.566406 8.898438 Z M 18.566406 8.898438 "/>
<path style=" stroke:none;fill-rule:nonzero;fill:rgb(65.490196%,66.666667%,67.45098%);fill-opacity:1;" d="M 11.972656 14.160156 C 12.328125 14.160156 12.679688 14.164062 13.03125 14.117188 C 13.128906 14.972656 13.210938 15.828125 13.300781 16.683594 C 13.273438 16.664062 13.246094 16.648438 13.222656 16.632812 L 13.222656 16.621094 C 13.234375 16.585938 13.230469 16.554688 13.214844 16.527344 C 12.800781 15.738281 12.378906 14.953125 11.972656 14.160156 Z M 11.972656 14.160156 "/>
<path style=" stroke:none;fill-rule:nonzero;fill:rgb(100%,100%,100%);fill-opacity:1;" d="M 12.695312 16.1875 C 12.410156 15.953125 11.753906 15.421875 11.238281 15.003906 C 10.722656 14.585938 10.300781 14.242188 10.300781 14.238281 C 10.300781 14.234375 10.492188 14.210938 10.722656 14.183594 L 11.140625 14.132812 L 11.347656 14.144531 C 11.457031 14.148438 11.644531 14.15625 11.761719 14.160156 L 11.972656 14.167969 L 12.238281 14.683594 C 12.386719 14.964844 12.664062 15.5 12.859375 15.867188 C 13.15625 16.433594 13.246094 16.617188 13.222656 16.609375 C 13.21875 16.609375 12.980469 16.417969 12.695312 16.1875 Z M 12.695312 16.1875 "/>
<path style=" stroke:none;fill-rule:nonzero;fill:rgb(100%,100%,100%);fill-opacity:1;" d="M 12.03125 15.640625 C 11.386719 15.117188 10.734375 14.589844 10.582031 14.464844 L 10.304688 14.238281 L 10.691406 14.191406 C 11.035156 14.148438 11.128906 14.144531 11.523438 14.15625 L 11.96875 14.171875 L 12.101562 14.429688 C 12.992188 16.132812 13.210938 16.550781 13.207031 16.570312 C 13.203125 16.578125 12.671875 16.160156 12.03125 15.640625 Z M 12.03125 15.640625 "/>
<path style=" stroke:none;fill-rule:nonzero;fill:rgb(100%,100%,100%);fill-opacity:1;" d="M 4.503906 16.53125 C 4.503906 16.519531 4.527344 16.46875 4.558594 16.417969 C 4.613281 16.320312 5.539062 14.777344 5.546875 14.765625 C 5.5625 14.746094 6.78125 14.429688 6.777344 14.445312 C 6.773438 14.453125 6.351562 14.847656 5.84375 15.3125 C 5.332031 15.78125 4.820312 16.25 4.707031 16.355469 C 4.59375 16.460938 4.503906 16.539062 4.503906 16.53125 Z M 4.503906 16.53125 "/>
<path style=" stroke:none;fill-rule:nonzero;fill:rgb(100%,100%,100%);fill-opacity:1;" d="M 3.914062 14.21875 C 3.914062 14.199219 4.503906 13.199219 5.410156 11.6875 C 6.574219 9.746094 6.578125 9.738281 6.554688 9.71875 C 6.546875 9.707031 5.90625 9.503906 5.136719 9.261719 C 4.363281 9.019531 3.71875 8.8125 3.703125 8.804688 C 3.683594 8.792969 4.433594 8.785156 5.402344 8.785156 L 7.132812 8.785156 L 7.804688 7.652344 L 8.816406 7.644531 L 9.828125 7.640625 L 10.890625 5.871094 C 11.476562 4.894531 11.960938 4.109375 11.960938 4.117188 C 11.964844 4.128906 11.792969 4.886719 11.578125 5.800781 C 11.359375 6.710938 11.175781 7.5 11.167969 7.550781 L 11.152344 7.640625 L 12.101562 7.640625 C 13.113281 7.640625 13.429688 7.65625 13.773438 7.726562 C 14.003906 7.769531 14.355469 7.886719 14.527344 7.972656 C 14.832031 8.125 15.1875 8.425781 15.332031 8.65625 C 15.390625 8.753906 15.394531 8.777344 15.355469 8.792969 C 15.34375 8.796875 15.066406 8.929688 14.746094 9.089844 L 14.164062 9.375 L 14.078125 9.242188 C 13.84375 8.875 13.480469 8.664062 12.90625 8.558594 C 12.738281 8.527344 12.476562 8.519531 10.671875 8.515625 C 8.726562 8.507812 8.625 8.507812 8.601562 8.546875 C 8.589844 8.566406 8.003906 9.550781 7.300781 10.734375 C 5.589844 13.617188 5.796875 13.296875 5.625 13.382812 C 5.191406 13.605469 3.914062 14.226562 3.914062 14.21875 Z M 3.914062 14.21875 "/>
<path style=" stroke:none;fill-rule:nonzero;fill:rgb(100%,100%,100%);fill-opacity:1;" d="M 3.914062 14.21875 C 3.914062 14.199219 4.1875 13.730469 5.394531 11.714844 C 6.054688 10.609375 6.566406 9.730469 6.554688 9.71875 C 6.546875 9.710938 5.90625 9.503906 5.136719 9.261719 C 4.363281 9.019531 3.71875 8.8125 3.703125 8.804688 C 3.683594 8.792969 4.441406 8.785156 5.402344 8.785156 L 7.132812 8.785156 L 7.804688 7.652344 L 8.816406 7.644531 L 9.828125 7.640625 L 10.890625 5.871094 C 11.476562 4.894531 11.960938 4.109375 11.960938 4.117188 C 11.964844 4.128906 11.796875 4.863281 11.589844 5.75 C 11.378906 6.640625 11.195312 7.425781 11.179688 7.503906 L 11.148438 7.640625 L 12.101562 7.640625 C 13.390625 7.640625 13.714844 7.671875 14.203125 7.84375 C 14.609375 7.984375 14.894531 8.164062 15.144531 8.433594 C 15.300781 8.601562 15.402344 8.75 15.378906 8.773438 C 15.363281 8.789062 14.203125 9.355469 14.175781 9.363281 C 14.164062 9.367188 14.128906 9.324219 14.101562 9.273438 C 14.015625 9.121094 13.75 8.867188 13.582031 8.78125 C 13.386719 8.679688 13.160156 8.605469 12.914062 8.558594 C 12.738281 8.527344 12.492188 8.523438 10.679688 8.515625 C 8.738281 8.507812 8.644531 8.507812 8.613281 8.546875 C 8.59375 8.566406 8.003906 9.550781 7.300781 10.734375 C 6.601562 11.917969 5.96875 12.980469 5.898438 13.097656 L 5.765625 13.308594 L 5.582031 13.402344 C 5.105469 13.644531 3.914062 14.226562 3.914062 14.21875 Z M 3.914062 14.21875 "/>
<path style=" stroke:none;fill-rule:nonzero;fill:rgb(100%,100%,100%);fill-opacity:1;" d="M 15.726562 9.382812 C 15.628906 9.238281 15.445312 8.855469 15.445312 8.796875 C 15.445312 8.789062 16.246094 8.785156 17.222656 8.785156 C 18.753906 8.789062 18.980469 8.792969 18.863281 8.816406 C 18.746094 8.839844 15.988281 9.527344 15.886719 9.558594 C 15.863281 9.566406 15.816406 9.515625 15.726562 9.382812 Z M 15.726562 9.382812 "/>
<path style=" stroke:none;fill-rule:nonzero;fill:rgb(100%,100%,100%);fill-opacity:1;" d="M 6.789062 12.851562 L 7.71875 12.390625 L 8.890625 12.390625 C 10.347656 12.386719 10.714844 12.359375 11.1875 12.226562 C 12.152344 11.949219 12.972656 11.003906 12.933594 10.214844 L 12.921875 10.023438 L 13.523438 9.730469 C 13.855469 9.570312 14.132812 9.445312 14.140625 9.457031 C 14.148438 9.464844 14.171875 9.546875 14.191406 9.636719 C 14.367188 10.496094 13.785156 11.683594 12.84375 12.398438 C 12.277344 12.832031 11.546875 13.117188 10.691406 13.246094 C 10.285156 13.304688 9.738281 13.320312 7.804688 13.316406 L 5.863281 13.316406 Z M 6.789062 12.851562 "/>
<path style=" stroke:none;fill-rule:nonzero;fill:rgb(100%,100%,100%);fill-opacity:1;" d="M 12.136719 15.722656 C 11.550781 15.25 10.898438 14.722656 10.6875 14.550781 C 10.476562 14.382812 10.308594 14.242188 10.308594 14.238281 C 10.3125 14.238281 10.484375 14.214844 10.691406 14.1875 C 11.023438 14.148438 11.125 14.144531 11.519531 14.15625 L 11.96875 14.171875 L 12.082031 14.386719 C 12.597656 15.363281 13.210938 16.554688 13.207031 16.570312 C 13.203125 16.578125 12.722656 16.199219 12.136719 15.722656 Z M 12.136719 15.722656 "/>
<path style=" stroke:none;fill-rule:nonzero;fill:rgb(100%,100%,100%);fill-opacity:1;" d="M 4.503906 16.53125 C 4.503906 16.519531 4.527344 16.46875 4.558594 16.417969 C 4.617188 16.3125 5.539062 14.777344 5.546875 14.765625 C 5.5625 14.746094 6.78125 14.429688 6.777344 14.445312 C 6.769531 14.460938 6.160156 15.027344 4.6875 16.375 C 4.585938 16.46875 4.503906 16.539062 4.503906 16.53125 Z M 4.503906 16.53125 "/>
</g>
</svg>
