<?xml version="1.0" encoding="UTF-8"?>
<svg xmlns="http://www.w3.org/2000/svg" xmlns:xlink="http://www.w3.org/1999/xlink" width="28pt" height="20pt" viewBox="0 0 28 20" version="1.1">
<g id="surface1">
<path style=" stroke:none;fill-rule:nonzero;fill:rgb(29.411765%,56.470588%,80.392157%);fill-opacity:1;" d="M 6.566406 5.300781 C 8.617188 4.03125 9.808594 4.019531 9.808594 4.019531 L 9.894531 4.121094 L 14.46875 0.324219 L 18.867188 4.039062 L 19.019531 3.890625 C 19.019531 3.890625 20.210938 4.074219 21.679688 4.996094 C 23.699219 6.253906 25.039062 7.632812 25.039062 7.632812 L 24.011719 7.632812 L 24.734375 8.53125 L 24.6875 8.726562 C 24.6875 8.726562 25.730469 8.707031 26.269531 8.804688 C 26.699219 8.882812 27.160156 9.203125 27.160156 9.203125 L 27.769531 8.992188 L 27.769531 13.277344 L 26.085938 13.277344 C 26.085938 13.277344 26.839844 13.726562 27.097656 14.03125 C 27.238281 14.199219 27.378906 14.355469 27.476562 14.550781 C 27.585938 14.777344 27.730469 15.066406 27.730469 15.574219 L 27.730469 17.824219 C 27.730469 18.046875 27.59375 18.527344 27.472656 18.722656 C 27.234375 19.109375 26.925781 19.398438 26.503906 19.546875 C 26.035156 19.710938 25.3125 19.695312 24.894531 19.5625 C 24.65625 19.484375 24.265625 19.199219 24.265625 19.199219 L 23.902344 19.519531 L 23.058594 19.0625 L 23.058594 19.636719 L 20.363281 19.636719 L 19.550781 19.003906 L 19.550781 19.636719 L 15.835938 19.636719 C 15.835938 19.636719 15.546875 19.273438 15.394531 19.0625 C 15.101562 19.28125 14.796875 19.554688 14.394531 19.621094 C 14.105469 19.664062 13.832031 19.667969 13.558594 19.625 C 13.25 19.574219 12.980469 19.441406 12.730469 19.246094 C 12.53125 19.097656 12.367188 18.875 12.203125 18.703125 C 11.691406 19.015625 11.09375 19.464844 10.683594 19.59375 C 10.4375 19.675781 9.765625 19.683594 9.421875 19.535156 C 8.9375 19.328125 8.40625 18.691406 8.40625 18.691406 C 8.40625 18.691406 7.195312 19.550781 6.828125 19.628906 C 6.464844 19.703125 6.0625 19.699219 5.71875 19.570312 C 5.4375 19.464844 5.230469 19.308594 5 19.113281 C 4.648438 19.324219 4.148438 19.632812 4.148438 19.632812 L 2.5 19.632812 L 2.414062 19.53125 L 2.242188 19.632812 L 0.0234375 19.632812 L 0.0234375 17.46875 C 0.0234375 17.46875 0.300781 17.457031 0.300781 17.214844 L 0.300781 11.253906 C 0.300781 11.007812 0 11.003906 0 11.003906 L 0 8.804688 L 4.300781 8.804688 L 4.015625 8.203125 L 4.554688 7.628906 L 3.636719 7.628906 C 3.636719 7.628906 4.949219 6.296875 6.566406 5.300781 "/>
<path style="fill:none;stroke-width:1.0107;stroke-linecap:butt;stroke-linejoin:miter;stroke:rgb(99.215686%,72.156863%,15.294118%);stroke-opacity:1;stroke-miterlimit:4;" d="M 242.695312 85.390625 C 242.695312 85.390625 235.898438 75.703125 219.492188 63.125 C 203.046875 50.546875 191.953125 43.398438 191.953125 43.398438 L 189.0625 46.171875 L 191.953125 43.398438 C 191.953125 43.398438 202.382812 45 218.164062 55.390625 C 231.289062 64.023438 240.664062 72.304688 240.664062 72.304688 L 230.429688 72.304688 M 44.609375 82.578125 C 44.609375 82.578125 55.976562 70.898438 66.796875 63.28125 C 77.617188 55.664062 95.78125 43.984375 95.78125 43.984375 L 98.359375 46.757812 L 95.78125 43.984375 C 95.78125 43.984375 81.523438 46.328125 64.0625 58.320312 C 47.226562 69.882812 45.507812 72.65625 45.507812 72.65625 L 55.117188 72.65625 " transform="matrix(0.1,0,0,0.1,0,0)"/>
<path style=" stroke:none;fill-rule:nonzero;fill:rgb(0%,17.647059%,38.431373%);fill-opacity:1;" d="M 14.4375 0.753906 L 5.960938 7.675781 L 23.257812 8.140625 Z M 14.4375 0.753906 "/>
<path style=" stroke:none;fill-rule:nonzero;fill:rgb(100%,100%,100%);fill-opacity:1;" d="M 10.285156 4.515625 L 14.4375 1.105469 L 18.71875 4.75 L 16.109375 3.679688 L 16.09375 4.792969 L 15.085938 3.84375 L 14.507812 5.378906 L 13.773438 3.796875 L 12.921875 4.441406 L 12.621094 3.59375 Z M 10.285156 4.515625 "/>
<path style=" stroke:none;fill-rule:nonzero;fill:rgb(0%,17.647059%,38.431373%);fill-opacity:1;" d="M 0.480469 9.179688 L 5.757812 9.179688 C 5.757812 9.179688 10.949219 7.921875 14.175781 7.921875 C 17.40625 7.921875 23.113281 8.886719 23.113281 8.886719 L 25.914062 9.09375 L 26.394531 12.894531 L 24.695312 12.894531 L 26.660156 15.382812 L 26.34375 17.808594 L 24.46875 18.570312 L 23.878906 19.023438 L 22.324219 18.292969 L 20.707031 19.300781 L 20.449219 19.300781 L 19.019531 18.265625 L 15.96875 19.300781 L 15.199219 18.25 L 12.863281 17.808594 L 10.847656 19.140625 L 9.042969 17.882812 L 6.984375 19.152344 L 5.367188 18.191406 L 3.941406 19.300781 L 2.960938 18.484375 L 1.996094 19.300781 L 1.101562 18.101562 L 0.753906 9.808594 Z M 0.480469 9.179688 "/>
<path style="fill:none;stroke-width:0.1452;stroke-linecap:butt;stroke-linejoin:miter;stroke:rgb(0%,0%,0%);stroke-opacity:1;stroke-miterlimit:4;" d="M 4.804688 91.796875 L 57.578125 91.796875 C 57.578125 91.796875 109.492188 79.21875 141.757812 79.21875 C 174.0625 79.21875 231.132812 88.867188 231.132812 88.867188 L 259.140625 90.9375 L 263.945312 128.945312 L 246.953125 128.945312 L 266.601562 153.828125 L 263.4375 178.085938 L 244.6875 185.703125 L 238.789062 190.234375 L 223.242188 182.929688 L 207.070312 193.007812 L 204.492188 193.007812 L 190.195312 182.617188 L 159.6875 193.007812 L 151.992188 182.5 L 128.632812 178.085938 L 108.476562 191.40625 L 90.429688 178.828125 L 69.84375 191.523438 L 53.671875 181.914062 L 39.414062 193.007812 L 29.609375 184.84375 L 19.960938 193.007812 L 11.015625 181.015625 L 7.539062 98.085938 Z M 4.804688 91.796875 " transform="matrix(0.1,0,0,0.1,0,0)"/>
<path style="fill-rule:nonzero;fill:rgb(99.215686%,72.156863%,15.294118%);fill-opacity:1;stroke-width:0.8713;stroke-linecap:butt;stroke-linejoin:miter;stroke:rgb(100%,100%,100%);stroke-opacity:1;stroke-miterlimit:4;" d="M 3.125 91.796875 L 17.5 91.796875 L 29.453125 147.96875 L 29.609375 114.21875 C 29.609375 114.21875 29.6875 110.3125 28.59375 109.21875 C 27.5 108.125 26.132812 106.679688 26.132812 106.679688 L 26.132812 91.796875 L 42.421875 91.796875 L 42.421875 106.679688 C 42.421875 106.679688 41.015625 108.476562 40.273438 109.21875 C 39.570312 109.960938 39.414062 114.21875 39.414062 114.21875 L 39.414062 193.007812 L 27.460938 193.007812 L 16.054688 138.164062 L 16.054688 169.335938 C 16.054688 169.335938 16.601562 173.515625 17.34375 174.882812 C 18.085938 176.210938 19.960938 177.65625 19.960938 177.65625 L 19.960938 193.007812 L 3.125 193.007812 L 3.125 177.65625 C 3.125 177.65625 4.375 176.953125 5.390625 175.898438 C 6.40625 174.882812 6.523438 170.9375 6.523438 170.9375 L 6.523438 114.21875 C 6.523438 114.21875 5.976562 110.390625 5.234375 109.21875 C 4.53125 108.046875 3.125 106.679688 3.125 106.679688 Z M 3.125 91.796875 " transform="matrix(0.1,0,0,0.1,0,0)"/>
<path style=" stroke:none;fill-rule:nonzero;fill:rgb(99.215686%,72.156863%,15.294118%);fill-opacity:1;" d="M 4.386719 11.566406 L 4.386719 13.054688 C 4.386719 13.054688 4.519531 13.066406 4.589844 13.144531 C 4.71875 13.289062 4.675781 13.613281 4.675781 13.613281 L 4.675781 17.636719 C 4.675781 17.636719 4.804688 19.316406 6.289062 19.316406 C 7.777344 19.316406 7.90625 17.605469 7.90625 17.605469 L 7.90625 12.296875 C 7.90625 12.296875 7.890625 11.726562 7.976562 11.625 C 8.0625 11.519531 8.207031 11.316406 8.207031 11.316406 L 8.207031 9.765625 C 8.207031 9.765625 7.820312 9.882812 7.199219 10.144531 C 6.578125 10.410156 6.40625 10.480469 6.40625 10.480469 L 6.40625 12.019531 C 6.40625 12.019531 6.550781 12.078125 6.550781 12.164062 L 6.550781 16.859375 C 6.550781 16.859375 6.558594 17.246094 6.285156 17.246094 C 6.011719 17.246094 6.015625 16.976562 6.015625 16.875 L 6.015625 12.734375 C 6.015625 12.734375 5.988281 12.414062 6.046875 12.324219 C 6.105469 12.238281 6.160156 12.0625 6.160156 12.0625 L 6.160156 10.585938 C 6.160156 10.585938 5.730469 10.773438 5.136719 11.113281 C 4.546875 11.449219 4.386719 11.566406 4.386719 11.566406 "/>
<path style="fill:none;stroke-width:0.8713;stroke-linecap:butt;stroke-linejoin:miter;stroke:rgb(100%,100%,100%);stroke-opacity:1;stroke-miterlimit:4;" d="M 43.867188 115.664062 L 43.867188 130.546875 C 43.867188 130.546875 45.195312 130.664062 45.898438 131.445312 C 47.1875 132.890625 46.757812 136.132812 46.757812 136.132812 L 46.757812 176.328125 C 46.757812 176.328125 48.046875 193.164062 62.890625 193.164062 C 77.773438 193.164062 79.0625 176.054688 79.0625 176.054688 L 79.0625 122.96875 C 79.0625 122.96875 78.90625 117.265625 79.765625 116.25 C 80.625 115.195312 82.070312 113.164062 82.070312 113.164062 L 82.070312 97.65625 C 82.070312 97.65625 78.203125 98.828125 71.992188 101.445312 C 65.78125 104.101562 64.0625 104.804688 64.0625 104.804688 L 64.0625 120.195312 C 64.0625 120.195312 65.507812 120.78125 65.507812 121.640625 L 65.507812 168.59375 C 65.507812 168.59375 65.585938 172.460938 62.851562 172.460938 C 60.117188 172.460938 60.15625 169.765625 60.15625 168.75 L 60.15625 127.34375 C 60.15625 127.34375 59.882812 124.140625 60.46875 123.242188 C 61.054688 122.382812 61.601562 120.625 61.601562 120.625 L 61.601562 105.859375 C 61.601562 105.859375 57.304688 107.734375 51.367188 111.132812 C 45.46875 114.492188 43.867188 115.664062 43.867188 115.664062 Z M 43.867188 115.664062 " transform="matrix(0.1,0,0,0.1,0,0)"/>
<path style=" stroke:none;fill-rule:nonzero;fill:rgb(99.215686%,72.156863%,15.294118%);fill-opacity:1;" d="M 11.5625 9.980469 L 11.804688 9.839844 L 11.804688 12.929688 L 10.398438 12.929688 L 10.398438 11.683594 C 10.398438 11.683594 10.441406 11.300781 10.140625 11.300781 C 9.792969 11.300781 9.824219 11.652344 9.824219 11.652344 L 9.824219 16.789062 C 9.824219 16.789062 9.792969 17.253906 10.125 17.253906 C 10.457031 17.253906 10.398438 16.789062 10.398438 16.789062 L 10.398438 15.003906 L 10.183594 15.003906 L 10.183594 13.832031 L 11.804688 13.832031 L 11.804688 18.015625 C 11.804688 18.015625 11.277344 19.316406 10.113281 19.316406 C 8.945312 19.316406 8.453125 18.089844 8.453125 17.882812 L 8.453125 10.90625 C 8.453125 10.90625 8.640625 9.269531 10.199219 9.269531 C 11.09375 9.269531 11.5625 9.980469 11.5625 9.980469 "/>
<path style="fill:none;stroke-width:0.8713;stroke-linecap:butt;stroke-linejoin:miter;stroke:rgb(100%,100%,100%);stroke-opacity:1;stroke-miterlimit:4;" d="M 115.625 99.804688 L 118.046875 98.398438 L 118.046875 129.296875 L 103.984375 129.296875 L 103.984375 116.835938 C 103.984375 116.835938 104.414062 113.007812 101.40625 113.007812 C 97.929688 113.007812 98.242188 116.523438 98.242188 116.523438 L 98.242188 167.890625 C 98.242188 167.890625 97.929688 172.539062 101.25 172.539062 C 104.570312 172.539062 103.984375 167.890625 103.984375 167.890625 L 103.984375 150.039062 L 101.835938 150.039062 L 101.835938 138.320312 L 118.046875 138.320312 L 118.046875 180.15625 C 118.046875 180.15625 112.773438 193.164062 101.132812 193.164062 C 89.453125 193.164062 84.53125 180.898438 84.53125 178.828125 L 84.53125 109.0625 C 84.53125 109.0625 86.40625 92.695312 101.992188 92.695312 C 110.9375 92.695312 115.625 99.804688 115.625 99.804688 Z M 115.625 99.804688 " transform="matrix(0.1,0,0,0.1,0,0)"/>
<path style="fill-rule:nonzero;fill:rgb(99.215686%,72.156863%,15.294118%);fill-opacity:1;stroke-width:0.8713;stroke-linecap:butt;stroke-linejoin:miter;stroke:rgb(100%,100%,100%);stroke-opacity:1;stroke-miterlimit:4;" d="M 156.40625 94.296875 L 156.40625 129.296875 L 142.1875 129.296875 L 142.1875 113.007812 C 142.1875 113.007812 142.5 108.320312 139.179688 108.320312 C 135.859375 108.320312 136.289062 112.265625 136.289062 112.851562 L 136.289062 167.890625 C 136.289062 167.890625 136.015625 172.539062 139.335938 172.539062 C 142.617188 172.539062 142.34375 167.890625 142.34375 167.890625 L 142.34375 150.039062 L 139.882812 150.039062 L 139.882812 138.320312 L 156.40625 138.320312 L 156.40625 180.15625 C 156.40625 180.15625 151.289062 193.085938 139.765625 193.085938 C 125.78125 193.085938 122.109375 178.828125 122.109375 178.828125 L 122.109375 103.359375 C 122.109375 103.359375 123.59375 87.96875 139.53125 87.96875 C 148.242188 87.96875 153.359375 95.46875 153.359375 95.46875 Z M 156.40625 94.296875 " transform="matrix(0.1,0,0,0.1,0,0)"/>
<path style="fill-rule:nonzero;fill:rgb(99.215686%,72.156863%,15.294118%);fill-opacity:1;stroke-width:0.8713;stroke-linecap:butt;stroke-linejoin:miter;stroke:rgb(100%,100%,100%);stroke-opacity:1;stroke-miterlimit:4;" d="M 159.6875 89.335938 C 159.6875 89.335938 163.242188 89.179688 175.664062 91.640625 C 188.046875 94.140625 191.523438 95.46875 191.523438 95.46875 L 191.523438 129.296875 L 180.859375 129.296875 C 180.859375 129.296875 181.289062 116.953125 179.414062 113.90625 C 178.164062 111.875 176.367188 110.976562 176.367188 110.976562 L 176.367188 138.320312 L 184.140625 138.320312 L 184.140625 150 L 176.09375 150 L 176.09375 174.726562 C 176.09375 174.726562 179.53125 173.867188 180.390625 169.335938 C 181.132812 165.546875 180.859375 157.929688 180.859375 157.929688 L 191.523438 157.929688 L 191.523438 193.007812 L 159.6875 193.007812 L 159.6875 177.5 C 159.6875 177.5 162.539062 176.796875 162.539062 172.695312 L 162.539062 110.507812 C 162.539062 107.617188 159.6875 105.546875 159.6875 105.546875 Z M 159.6875 89.335938 " transform="matrix(0.1,0,0,0.1,0,0)"/>
<path style="fill-rule:nonzero;fill:rgb(99.215686%,72.156863%,15.294118%);fill-opacity:1;stroke-width:0.8713;stroke-linecap:butt;stroke-linejoin:miter;stroke:rgb(100%,100%,100%);stroke-opacity:1;stroke-miterlimit:4;" d="M 195.703125 96.640625 C 195.703125 96.640625 202.773438 97.96875 216.289062 104.375 C 229.84375 110.820312 234.609375 113.75 234.609375 113.75 L 234.609375 129.296875 L 225.976562 129.296875 C 225.976562 129.296875 226.132812 126.171875 225.390625 123.984375 C 224.53125 121.40625 222.5 119.882812 222.5 119.882812 L 222.5 169.453125 C 222.5 169.453125 222.5 172.96875 223.671875 174.609375 C 224.804688 176.210938 226.09375 177.382812 226.09375 177.382812 L 226.09375 193.007812 L 204.492188 193.007812 L 204.492188 177.65625 C 204.492188 177.65625 206.054688 176.914062 206.914062 175.625 C 207.8125 174.296875 208.515625 169.609375 208.515625 169.609375 L 208.515625 117.539062 C 208.515625 117.539062 205.195312 118.554688 205.195312 122.8125 L 205.195312 129.296875 L 195.703125 129.296875 Z M 195.703125 96.640625 " transform="matrix(0.1,0,0,0.1,0,0)"/>
<path style=" stroke:none;fill-rule:nonzero;fill:rgb(99.215686%,72.156863%,15.294118%);fill-opacity:1;" d="M 27.035156 9.605469 L 27.367188 9.472656 L 27.367188 12.894531 L 26.027344 12.894531 L 26.027344 11.492188 C 26.027344 11.492188 26.042969 10.890625 25.609375 10.890625 C 25.175781 10.890625 25.234375 11.492188 25.234375 11.492188 L 25.234375 12.738281 C 25.234375 12.898438 25.351562 13.1875 25.652344 13.40625 C 26.503906 14.023438 26.804688 14.242188 26.964844 14.417969 C 27.125 14.59375 27.339844 15.03125 27.339844 15.28125 L 27.339844 18.015625 C 27.339844 18.148438 27.078125 19.300781 25.609375 19.300781 C 24.84375 19.300781 24.238281 18.746094 24.238281 18.746094 L 23.878906 19.023438 L 23.878906 16.027344 L 25.207031 16.027344 L 25.207031 17 C 25.207031 17 25.164062 17.488281 25.59375 17.488281 C 26.027344 17.488281 25.984375 17 25.984375 17 L 25.984375 15.792969 C 25.984375 15.792969 25.914062 15.351562 25.695312 15.222656 C 25.023438 14.8125 24.484375 14.402344 24.253906 14.167969 C 24.066406 13.976562 23.863281 13.464844 23.863281 13.042969 L 23.863281 10.746094 C 23.863281 10.496094 23.960938 9.964844 24.285156 9.632812 C 24.59375 9.320312 25.0625 9.078125 25.710938 9.078125 C 26.574219 9.078125 27.035156 9.605469 27.035156 9.605469 "/>
<path style="fill:none;stroke-width:0.8713;stroke-linecap:butt;stroke-linejoin:miter;stroke:rgb(100%,100%,100%);stroke-opacity:1;stroke-miterlimit:4;" d="M 270.351562 96.054688 L 273.671875 94.726562 L 273.671875 128.945312 L 260.273438 128.945312 L 260.273438 114.921875 C 260.273438 114.921875 260.429688 108.90625 256.09375 108.90625 C 251.757812 108.90625 252.34375 114.921875 252.34375 114.921875 L 252.34375 127.382812 C 252.34375 128.984375 253.515625 131.875 256.523438 134.0625 C 265.039062 140.234375 268.046875 142.421875 269.648438 144.179688 C 271.25 145.9375 273.398438 150.3125 273.398438 152.8125 L 273.398438 180.15625 C 273.398438 181.484375 270.78125 193.007812 256.09375 193.007812 C 248.4375 193.007812 242.382812 187.460938 242.382812 187.460938 L 238.789062 190.234375 L 238.789062 160.273438 L 252.070312 160.273438 L 252.070312 170 C 252.070312 170 251.640625 174.882812 255.9375 174.882812 C 260.273438 174.882812 259.84375 170 259.84375 170 L 259.84375 157.929688 C 259.84375 157.929688 259.140625 153.515625 256.953125 152.226562 C 250.234375 148.125 244.84375 144.023438 242.539062 141.679688 C 240.664062 139.765625 238.632812 134.648438 238.632812 130.429688 L 238.632812 107.460938 C 238.632812 104.960938 239.609375 99.648438 242.851562 96.328125 C 245.9375 93.203125 250.625 90.78125 257.109375 90.78125 C 265.742188 90.78125 270.351562 96.054688 270.351562 96.054688 Z M 270.351562 96.054688 " transform="matrix(0.1,0,0,0.1,0,0)"/>
<path style="fill-rule:nonzero;fill:rgb(29.411765%,56.470588%,80.392157%);fill-opacity:1;stroke-width:1.0107;stroke-linecap:butt;stroke-linejoin:miter;stroke:rgb(99.215686%,72.156863%,15.294118%);stroke-opacity:1;stroke-miterlimit:4;" d="M 44.609375 82.578125 C 44.609375 82.578125 85.117188 59.765625 141.914062 59.765625 C 198.710938 59.765625 242.695312 85.507812 242.695312 85.507812 L 229.296875 105.390625 C 229.296875 105.390625 194.257812 83.632812 141.914062 83.632812 C 89.570312 83.632812 57.148438 103.085938 57.148438 103.085938 L 44.609375 82.578125 " transform="matrix(0.1,0,0,0.1,0,0)"/>
<path style=" stroke:none;fill-rule:nonzero;fill:rgb(100%,100%,100%);fill-opacity:1;" d="M 6.953125 8.957031 L 7.363281 8.816406 C 7.703125 8.699219 7.785156 8.488281 7.707031 8.257812 C 7.628906 8.027344 7.4375 7.914062 7.097656 8.03125 L 6.691406 8.171875 Z M 6.128906 8.097656 C 6.121094 8.074219 6.105469 8.058594 6.023438 8.082031 L 6.011719 8.046875 L 7.078125 7.679688 C 7.667969 7.476562 8.046875 7.691406 8.183594 8.09375 C 8.308594 8.464844 8.117188 8.914062 7.519531 9.121094 L 6.488281 9.476562 L 6.480469 9.445312 C 6.558594 9.410156 6.5625 9.386719 6.550781 9.363281 Z M 6.128906 8.097656 "/>
<path style=" stroke:none;fill-rule:nonzero;fill:rgb(100%,100%,100%);fill-opacity:1;" d="M 10.585938 7.753906 L 10.546875 7.761719 C 10.527344 7.726562 10.5 7.703125 10.433594 7.71875 L 9.816406 7.84375 L 9.867188 8.105469 L 10.933594 7.886719 C 10.972656 7.878906 10.980469 7.863281 10.976562 7.789062 L 11.015625 7.78125 L 11.113281 8.269531 L 11.074219 8.277344 C 11.054688 8.230469 11.039062 8.222656 11.003906 8.230469 L 9.34375 8.570312 L 9.339844 8.535156 C 9.421875 8.515625 9.425781 8.492188 9.421875 8.46875 L 9.160156 7.15625 C 9.152344 7.132812 9.140625 7.113281 9.054688 7.125 L 9.050781 7.09375 L 10.707031 6.75 C 10.742188 6.742188 10.753906 6.726562 10.75 6.660156 L 10.792969 6.652344 L 10.890625 7.140625 L 10.847656 7.148438 C 10.828125 7.085938 10.808594 7.074219 10.773438 7.082031 L 9.707031 7.300781 L 9.753906 7.535156 L 10.371094 7.410156 C 10.4375 7.394531 10.457031 7.363281 10.457031 7.324219 L 10.5 7.316406 Z M 10.585938 7.753906 "/>
<path style=" stroke:none;fill-rule:nonzero;fill:rgb(100%,100%,100%);fill-opacity:1;" d="M 12.183594 6.632812 C 12.179688 6.605469 12.167969 6.585938 12.085938 6.585938 L 12.082031 6.550781 L 12.898438 6.503906 L 12.898438 6.539062 C 12.824219 6.546875 12.804688 6.566406 12.808594 6.582031 C 12.808594 6.613281 13.425781 7.105469 13.671875 7.3125 L 13.628906 6.550781 C 13.628906 6.515625 13.601562 6.503906 13.558594 6.503906 L 13.554688 6.46875 L 14.175781 6.433594 L 14.175781 6.46875 C 14.09375 6.476562 14.082031 6.5 14.085938 6.523438 L 14.160156 7.859375 C 14.160156 7.882812 14.171875 7.902344 14.257812 7.902344 L 14.257812 7.9375 L 13.613281 7.976562 L 13.613281 7.941406 C 13.671875 7.9375 13.691406 7.925781 13.6875 7.90625 C 13.6875 7.867188 13.601562 7.835938 12.660156 7.042969 L 12.710938 7.941406 C 12.710938 7.964844 12.722656 7.984375 12.808594 7.984375 L 12.808594 8.019531 L 12.164062 8.058594 L 12.164062 8.023438 C 12.246094 8.011719 12.257812 7.992188 12.253906 7.964844 Z M 12.183594 6.632812 "/>
<path style=" stroke:none;fill-rule:nonzero;fill:rgb(100%,100%,100%);fill-opacity:1;" d="M 15.839844 8.035156 L 15.84375 8 C 15.882812 8 15.894531 7.992188 15.894531 7.980469 C 15.898438 7.953125 15.417969 6.738281 15.359375 6.582031 C 15.335938 6.515625 15.324219 6.5 15.289062 6.492188 L 15.292969 6.457031 L 15.984375 6.535156 L 15.980469 6.566406 C 15.925781 6.566406 15.914062 6.574219 15.910156 6.59375 C 15.90625 6.617188 15.953125 6.691406 16.289062 7.511719 C 16.773438 6.804688 16.835938 6.726562 16.835938 6.691406 C 16.839844 6.671875 16.832031 6.664062 16.789062 6.65625 L 16.792969 6.621094 L 17.375 6.683594 L 17.371094 6.71875 C 17.34375 6.722656 17.328125 6.726562 17.316406 6.75 C 17.273438 6.839844 16.496094 8.003906 16.492188 8.042969 C 16.492188 8.054688 16.507812 8.070312 16.539062 8.074219 L 16.535156 8.109375 Z M 15.839844 8.035156 "/>
<path style=" stroke:none;fill-rule:nonzero;fill:rgb(100%,100%,100%);fill-opacity:1;" d="M 19.5 8.152344 L 19.460938 8.144531 C 19.460938 8.105469 19.445312 8.070312 19.378906 8.054688 L 18.765625 7.898438 L 18.703125 8.160156 L 19.757812 8.425781 C 19.792969 8.433594 19.8125 8.425781 19.839844 8.359375 L 19.878906 8.367188 L 19.757812 8.851562 L 19.71875 8.84375 C 19.722656 8.792969 19.710938 8.773438 19.675781 8.765625 L 18.035156 8.347656 L 18.042969 8.316406 C 18.125 8.332031 18.140625 8.3125 18.144531 8.289062 L 18.464844 6.992188 C 18.472656 6.96875 18.464844 6.945312 18.386719 6.917969 L 18.394531 6.886719 L 20.035156 7.304688 C 20.070312 7.3125 20.089844 7.300781 20.113281 7.238281 L 20.152344 7.25 L 20.035156 7.734375 L 19.996094 7.722656 C 20 7.65625 19.992188 7.640625 19.953125 7.632812 L 18.898438 7.363281 L 18.84375 7.59375 L 19.453125 7.75 C 19.519531 7.765625 19.550781 7.742188 19.566406 7.710938 L 19.605469 7.71875 Z M 19.5 8.152344 "/>
<path style=" stroke:none;fill-rule:nonzero;fill:rgb(100%,100%,100%);fill-opacity:1;" d="M 21.550781 8.496094 L 22.078125 8.710938 C 22.265625 8.785156 22.347656 8.738281 22.378906 8.660156 C 22.410156 8.582031 22.378906 8.492188 22.195312 8.417969 L 21.664062 8.203125 Z M 21.265625 9.226562 C 21.253906 9.253906 21.257812 9.273438 21.335938 9.3125 L 21.324219 9.34375 L 20.671875 9.082031 L 20.683594 9.050781 C 20.765625 9.078125 20.78125 9.0625 20.792969 9.039062 L 21.277344 7.796875 C 21.285156 7.773438 21.285156 7.75 21.207031 7.714844 L 21.21875 7.679688 L 22.375 8.144531 C 22.839844 8.332031 22.984375 8.550781 22.867188 8.855469 C 22.769531 9.097656 22.53125 9.152344 22.246094 9.109375 L 22.445312 9.703125 C 22.460938 9.746094 22.484375 9.773438 22.515625 9.785156 L 22.503906 9.820312 L 21.847656 9.554688 L 21.859375 9.523438 C 21.90625 9.539062 21.9375 9.535156 21.949219 9.503906 C 21.957031 9.480469 21.769531 8.976562 21.75 8.90625 L 21.441406 8.78125 Z M 21.265625 9.226562 "/>
<path style=" stroke:none;fill-rule:nonzero;fill:rgb(0%,17.647059%,38.431373%);fill-opacity:1;" d="M 27.488281 19.285156 L 27.375 19.285156 L 27.375 19.246094 L 27.640625 19.246094 L 27.640625 19.285156 L 27.53125 19.285156 L 27.53125 19.585938 L 27.488281 19.585938 Z M 27.488281 19.285156 "/>
<path style=" stroke:none;fill-rule:nonzero;fill:rgb(0%,17.647059%,38.431373%);fill-opacity:1;" d="M 27.820312 19.585938 L 27.726562 19.308594 L 27.726562 19.585938 L 27.683594 19.585938 L 27.683594 19.246094 L 27.746094 19.246094 L 27.839844 19.535156 L 27.9375 19.246094 L 28 19.246094 L 28 19.585938 L 27.957031 19.585938 L 27.957031 19.308594 L 27.863281 19.585938 Z M 27.820312 19.585938 "/>
</g>
</svg>
