<?xml version="1.0" encoding="UTF-8"?>
<svg xmlns="http://www.w3.org/2000/svg" xmlns:xlink="http://www.w3.org/1999/xlink" width="28pt" height="20pt" viewBox="0 0 28 20" version="1.1">
<g id="surface1">
<path style=" stroke:none;fill-rule:nonzero;fill:rgb(100%,100%,100%);fill-opacity:1;" d="M 25.339844 6.707031 C 24.4375 7.496094 23.414062 8.003906 22.300781 8.371094 C 21.238281 8.722656 20.144531 8.886719 19.042969 8.84375 C 18.90625 8.835938 18.816406 8.597656 18.675781 8.511719 C 18.558594 8.445312 18.386719 8.46875 18.238281 8.445312 C 18.179688 8.4375 18.171875 8.324219 18.207031 8.3125 C 18.441406 8.238281 18.691406 8.265625 18.945312 8.226562 C 19.058594 8.207031 19.066406 8.058594 19.148438 8.023438 C 19.476562 7.875 19.847656 7.929688 20.203125 7.894531 C 20.292969 7.886719 20.25 7.726562 20.308594 7.699219 C 20.441406 7.640625 20.578125 7.742188 20.722656 7.777344 C 20.851562 7.808594 20.851562 7.613281 20.914062 7.632812 C 21.171875 7.707031 21.277344 7.648438 21.460938 7.5 C 21.496094 7.472656 21.574219 7.496094 21.628906 7.511719 C 21.6875 7.527344 21.78125 7.5625 21.8125 7.484375 C 22.007812 7.007812 22.519531 7.46875 22.820312 7.375 C 22.894531 7.351562 22.773438 7.21875 22.832031 7.179688 C 23.039062 7.042969 23.285156 7.222656 23.496094 7.125 C 23.578125 7.085938 23.5 6.964844 23.546875 6.914062 C 23.613281 6.839844 23.734375 6.941406 23.820312 6.902344 C 23.886719 6.867188 23.996094 6.832031 24.046875 6.832031 C 24.289062 6.824219 24.457031 6.710938 24.695312 6.671875 C 24.734375 6.664062 24.757812 6.601562 24.796875 6.59375 C 24.980469 6.546875 25.316406 6.609375 25.339844 6.621094 C 25.367188 6.636719 25.394531 6.660156 25.339844 6.707031 M 23.75 8.699219 C 23.867188 8.726562 24.085938 8.773438 24.046875 8.804688 C 22.207031 10.3125 19.832031 10.601562 17.621094 10.625 C 17.40625 10.332031 17.039062 10.210938 16.722656 10.03125 C 16.703125 10.019531 16.703125 9.933594 16.722656 9.921875 C 16.980469 9.796875 17.269531 9.847656 17.554688 9.800781 C 17.660156 9.785156 17.6875 9.632812 17.785156 9.601562 C 18.117188 9.5 18.4375 9.375 18.785156 9.386719 C 19.078125 9.402344 19.363281 9.425781 19.65625 9.410156 C 19.742188 9.40625 19.707031 9.230469 19.789062 9.214844 C 20.117188 9.15625 20.425781 9.285156 20.753906 9.21875 C 20.820312 9.207031 20.835938 9.074219 20.863281 9.0625 C 21.21875 8.917969 21.636719 9.042969 22.015625 8.910156 C 21.976562 8.875 21.917969 8.824219 21.960938 8.792969 C 22.023438 8.742188 22.136719 8.769531 22.207031 8.777344 C 22.355469 8.792969 22.527344 8.808594 22.675781 8.703125 C 22.773438 8.628906 22.929688 8.738281 23.042969 8.699219 C 23.164062 8.660156 23.277344 8.589844 23.402344 8.628906 C 23.542969 8.675781 23.636719 8.675781 23.75 8.699219 Z M 18.945312 11.820312 C 17.691406 12.058594 16.511719 12.023438 15.304688 11.71875 C 15.242188 11.699219 15.40625 11.578125 15.496094 11.546875 C 15.785156 11.445312 16.097656 11.425781 16.386719 11.320312 C 16.449219 11.296875 16.496094 11.207031 16.542969 11.160156 C 16.660156 11.039062 16.863281 11 17.019531 10.953125 C 17.492188 10.8125 17.988281 10.972656 18.492188 11.046875 C 18.691406 11.078125 18.882812 11.097656 19.082031 11.15625 C 19.105469 11.164062 19.1875 11.132812 19.199219 11.074219 C 19.207031 11.007812 19.207031 10.929688 19.269531 10.925781 C 19.429688 10.921875 19.601562 10.988281 19.746094 10.929688 C 19.933594 10.859375 20.136719 10.90625 20.335938 10.878906 C 20.386719 10.871094 20.347656 10.796875 20.402344 10.785156 C 20.601562 10.738281 20.8125 10.832031 20.996094 10.746094 C 21.132812 10.683594 21.4375 10.871094 21.5 10.945312 C 20.707031 11.390625 19.867188 11.652344 18.945312 11.820312 Z M 18.945312 12.878906 C 18.144531 13.128906 17.335938 13.125 16.523438 13.125 C 15.691406 13.125 14.914062 12.882812 14.097656 12.65625 C 14.050781 12.644531 14.058594 12.578125 14.070312 12.570312 C 14.1875 12.507812 14.332031 12.542969 14.453125 12.492188 C 14.515625 12.464844 14.53125 12.378906 14.589844 12.34375 C 14.664062 12.296875 14.832031 12.304688 14.902344 12.261719 C 15.007812 12.199219 15.039062 12.121094 15.140625 12.0625 C 15.238281 12.003906 15.355469 12.097656 15.492188 12.066406 C 15.769531 12.007812 15.972656 12.257812 16.230469 12.332031 C 16.335938 12.363281 16.429688 12.269531 16.519531 12.285156 C 16.625 12.300781 16.707031 12.398438 16.8125 12.429688 C 16.898438 12.453125 16.960938 12.457031 17.046875 12.414062 C 17.167969 12.355469 17.289062 12.519531 17.425781 12.488281 C 17.472656 12.476562 17.46875 12.378906 17.523438 12.375 C 17.746094 12.359375 17.890625 12.589844 18.105469 12.589844 C 18.128906 12.585938 18.144531 12.542969 18.171875 12.535156 C 18.285156 12.488281 18.394531 12.589844 18.53125 12.550781 C 18.703125 12.5 18.855469 12.632812 18.96875 12.765625 C 19.019531 12.824219 19.007812 12.863281 18.945312 12.878906 Z M 16.421875 14.042969 C 16.5 14.101562 16.539062 14.199219 16.511719 14.207031 C 16.011719 14.355469 15.191406 14.269531 14.582031 14.214844 C 14.042969 14.167969 13.53125 14.015625 13.035156 13.816406 C 12.703125 13.679688 12.382812 13.550781 12.070312 13.359375 C 11.984375 13.308594 11.855469 13.289062 11.84375 13.175781 C 11.84375 13.164062 11.867188 13.125 11.875 13.121094 C 12.054688 13.03125 12.261719 13.160156 12.445312 13.101562 C 12.511719 13.078125 12.558594 12.96875 12.613281 12.96875 C 12.746094 12.96875 12.894531 13.019531 13.019531 12.925781 C 13.113281 12.859375 13.246094 12.90625 13.34375 12.953125 C 13.46875 13.011719 13.675781 13.296875 13.839844 13.261719 C 13.882812 13.253906 14.152344 13.199219 14.199219 13.226562 C 14.449219 13.378906 14.855469 13.675781 15.140625 13.695312 C 15.195312 13.699219 15.230469 13.53125 15.300781 13.566406 C 15.472656 13.65625 15.582031 13.785156 15.722656 13.808594 C 15.769531 13.820312 15.851562 13.746094 15.902344 13.753906 C 16.007812 13.769531 16.066406 13.847656 16.179688 13.925781 C 16.230469 13.960938 16.34375 13.984375 16.421875 14.042969 Z M 14.355469 15.101562 C 12.546875 15.144531 10.898438 14.089844 9.710938 12.6875 C 9.691406 12.667969 9.691406 12.601562 9.734375 12.601562 C 9.945312 12.617188 10.105469 12.753906 10.292969 12.839844 C 10.496094 12.929688 10.722656 13.210938 10.929688 13.046875 C 10.972656 13.011719 10.949219 12.945312 10.992188 12.960938 C 11.265625 13.03125 11.457031 13.257812 11.652344 13.457031 C 11.824219 13.625 11.910156 13.863281 12.132812 13.972656 C 12.226562 14.019531 12.300781 13.800781 12.375 13.867188 C 12.542969 14.011719 12.65625 14.152344 12.832031 14.285156 C 12.90625 14.339844 12.949219 14.175781 12.980469 14.160156 C 13.058594 14.125 13.238281 14.304688 13.328125 14.375 C 13.441406 14.464844 13.5625 14.585938 13.703125 14.671875 C 13.773438 14.714844 13.835938 14.613281 13.902344 14.640625 C 14.007812 14.683594 14.109375 14.746094 14.222656 14.777344 C 14.292969 14.796875 14.355469 14.949219 14.414062 15.019531 C 14.484375 15.105469 14.398438 15.101562 14.355469 15.101562 Z M 10.503906 18.464844 C 9.679688 18.945312 8.824219 19.191406 7.894531 19.28125 C 7.460938 19.320312 7.035156 19.289062 6.605469 19.226562 C 3.628906 18.785156 1.253906 16.085938 1.300781 13.113281 C 1.300781 13.105469 1.34375 13.214844 1.398438 13.234375 C 1.46875 13.257812 1.496094 13.203125 1.539062 13.15625 C 1.601562 13.085938 1.667969 13.234375 1.753906 13.203125 C 1.777344 13.195312 1.800781 13.148438 1.816406 13.152344 C 1.976562 13.191406 1.976562 13 2.105469 13.03125 C 2.183594 13.046875 2.160156 13.167969 2.207031 13.242188 C 2.25 13.316406 2.332031 13.328125 2.394531 13.296875 C 2.636719 13.191406 2.550781 12.90625 2.691406 12.722656 C 2.753906 13.054688 2.695312 13.386719 2.769531 13.722656 C 2.878906 14.226562 3 14.6875 3.214844 15.144531 C 3.601562 15.953125 4.207031 16.589844 4.988281 17.082031 C 7.171875 18.460938 10.078125 17.730469 11.449219 15.664062 C 11.644531 15.707031 11.894531 15.789062 12.128906 15.820312 C 12.257812 15.839844 12.386719 15.839844 12.515625 15.820312 C 12.539062 15.816406 12.613281 15.792969 12.605469 15.785156 C 12.410156 15.507812 12 15.179688 11.964844 14.761719 C 12.371094 14.914062 12.859375 15.078125 13.355469 15.246094 C 12.703125 16.542969 11.800781 17.714844 10.503906 18.464844 Z M 1.699219 10.402344 C 2.101562 9.632812 2.628906 8.988281 3.277344 8.398438 C 4.109375 7.640625 5.042969 7.140625 6.152344 6.894531 C 7.484375 6.597656 8.722656 6.660156 10.023438 7.230469 C 10.082031 7.253906 9.917969 7.59375 9.878906 7.578125 C 7.6875 6.746094 5.109375 7.089844 3.449219 8.792969 C 2.8125 9.445312 2.113281 10.125 1.980469 11.042969 C 1.871094 10.898438 1.988281 10.6875 1.84375 10.566406 C 1.78125 10.515625 1.71875 10.671875 1.667969 10.613281 C 1.613281 10.558594 1.667969 10.464844 1.699219 10.402344 Z M 14.503906 3.488281 C 17.035156 3.433594 20.164062 3.558594 21.898438 3.082031 C 23.386719 2.675781 24.429688 2.285156 25.578125 1.179688 C 25.757812 1.007812 25.816406 1.039062 25.707031 1.226562 C 24.996094 2.398438 23.773438 3.257812 22.089844 3.730469 C 20.195312 4.257812 16.578125 4.050781 14.503906 4.132812 C 12.1875 4.222656 10.464844 5.101562 9.734375 6.664062 L 9.199219 6.449219 C 9.847656 4.519531 12.023438 3.539062 14.503906 3.488281 Z M 9.066406 13.75 C 8.914062 13.578125 8.90625 13.320312 9.007812 13.121094 C 9.070312 12.996094 9.273438 12.851562 9.351562 12.941406 C 9.433594 13.03125 9.472656 13.183594 9.539062 13.273438 C 9.589844 13.34375 9.671875 13.351562 9.726562 13.433594 C 9.78125 13.515625 9.835938 13.664062 9.90625 13.71875 C 9.957031 13.761719 10.03125 13.78125 10.078125 13.835938 C 10.117188 13.875 10.121094 13.9375 10.15625 13.972656 C 10.191406 14.003906 10.253906 14.007812 10.292969 14.042969 C 10.359375 14.101562 10.40625 14.246094 10.488281 14.269531 C 10.535156 14.28125 10.609375 14.230469 10.648438 14.253906 C 10.722656 14.296875 10.78125 14.351562 10.835938 14.417969 C 10.894531 14.484375 10.953125 14.558594 11.011719 14.625 C 11.066406 14.6875 11.121094 14.773438 11.191406 14.816406 C 11.238281 14.84375 11.335938 14.769531 11.375 14.804688 C 11.425781 14.84375 11.453125 14.953125 11.503906 14.984375 C 11.578125 15.027344 11.679688 14.988281 11.722656 15.0625 C 11.773438 15.15625 11.863281 15.367188 11.945312 15.488281 C 10.816406 15.304688 9.828125 14.597656 9.066406 13.75 Z M 7.519531 8.960938 C 5.300781 8.960938 3.5 10.761719 3.5 12.980469 C 3.5 15.203125 5.300781 17.003906 7.519531 17.003906 C 8.855469 17.003906 10.039062 16.351562 10.773438 15.347656 L 11.308594 15.539062 C 10.488281 16.753906 9.097656 17.550781 7.519531 17.550781 C 4.996094 17.550781 2.949219 15.507812 2.949219 12.980469 C 2.949219 10.457031 4.996094 8.410156 7.519531 8.410156 C 8.1875 8.410156 8.914062 8.582031 9.550781 8.878906 L 9.550781 9.511719 C 8.957031 9.160156 8.261719 8.960938 7.519531 8.960938 Z M 9.1875 11.308594 C 9.015625 11.136719 8.820312 10.992188 8.609375 10.882812 L 9.582031 10.054688 C 9.585938 10.480469 9.476562 11 9.296875 11.414062 Z M 7.527344 15.3125 C 7.886719 15.3125 8.230469 15.230469 8.542969 15.078125 L 8.644531 16.492188 C 8.292969 16.601562 7.917969 16.664062 7.527344 16.664062 C 7.457031 16.664062 7.386719 16.660156 7.320312 16.660156 L 7.109375 15.273438 C 7.246094 15.300781 7.386719 15.3125 7.527344 15.3125 Z M 7.039062 14.84375 L 6.953125 14.265625 C 7.101562 14.332031 7.265625 14.375 7.4375 14.382812 Z M 6.894531 15.347656 L 7.09375 16.636719 C 6.71875 16.59375 6.359375 16.496094 6.027344 16.347656 Z M 5.644531 14.363281 C 5.710938 14.453125 5.785156 14.542969 5.867188 14.625 C 6.121094 14.878906 6.421875 15.0625 6.75 15.179688 L 5.820312 16.246094 C 5.460938 16.058594 5.136719 15.8125 4.859375 15.523438 Z M 5.488281 14.195312 L 4.707031 15.355469 C 4.441406 15.042969 4.226562 14.683594 4.078125 14.292969 Z M 5.210938 12.601562 C 5.191406 12.71875 5.179688 12.839844 5.179688 12.964844 C 5.179688 13.324219 5.261719 13.664062 5.410156 13.976562 L 4 14.074219 C 3.894531 13.726562 3.832031 13.355469 3.832031 12.96875 C 3.832031 12.933594 3.835938 12.898438 3.835938 12.863281 Z M 5.203125 12.375 L 3.851562 12.636719 C 3.886719 12.222656 3.992188 11.828125 4.15625 11.464844 Z M 6.203125 11.03125 C 5.796875 11.308594 5.484375 11.710938 5.316406 12.183594 L 4.253906 11.257812 C 4.464844 10.859375 4.742188 10.507812 5.070312 10.214844 Z M 6.464844 10.875 C 6.445312 10.886719 6.425781 10.894531 6.40625 10.90625 L 5.246094 10.066406 C 5.605469 9.78125 6.023438 9.5625 6.476562 9.429688 Z M 6.125 13.183594 C 6.128906 13.199219 6.132812 13.214844 6.136719 13.234375 L 5.664062 13.933594 C 5.511719 13.640625 5.425781 13.308594 5.425781 12.964844 C 5.425781 12.84375 5.441406 12.722656 5.460938 12.601562 Z M 6.453125 12.046875 C 6.425781 12.078125 6.398438 12.113281 6.371094 12.152344 L 5.53125 12.3125 C 5.632812 12.003906 5.804688 11.71875 6.042969 11.480469 C 6.15625 11.367188 6.28125 11.269531 6.417969 11.1875 L 6.460938 11.21875 Z M 6.113281 12.878906 L 5.6875 12.507812 L 6.230469 12.40625 C 6.164062 12.550781 6.125 12.710938 6.113281 12.878906 Z M 6.460938 13.90625 L 5.925781 13.941406 L 6.21875 13.507812 C 6.277344 13.652344 6.359375 13.789062 6.460938 13.90625 Z M 6.6875 14.113281 C 6.695312 14.117188 6.703125 14.121094 6.707031 14.125 L 6.832031 14.949219 C 6.539062 14.84375 6.269531 14.679688 6.042969 14.453125 C 5.957031 14.363281 5.878906 14.269531 5.808594 14.171875 Z M 7.042969 11.640625 C 6.910156 11.6875 6.789062 11.753906 6.675781 11.835938 L 6.679688 11.375 Z M 8.191406 11.71875 C 8.070312 11.652344 7.9375 11.605469 7.796875 11.578125 L 8.144531 11.285156 Z M 8.152344 9.332031 C 8.636719 9.414062 9.089844 9.589844 9.492188 9.84375 L 8.386719 10.785156 C 8.363281 10.773438 8.335938 10.765625 8.308594 10.753906 Z M 8.011719 14.300781 C 8.179688 14.238281 8.335938 14.148438 8.46875 14.03125 L 8.511719 14.625 Z M 7.527344 13.730469 C 7.105469 13.730469 6.765625 13.386719 6.765625 12.964844 C 6.765625 12.546875 7.105469 12.203125 7.527344 12.203125 C 7.949219 12.203125 8.289062 12.546875 8.289062 12.964844 C 8.289062 13.386719 7.949219 13.730469 7.527344 13.730469 Z M 7.730469 14.382812 L 8.449219 14.851562 C 8.171875 14.988281 7.859375 15.066406 7.527344 15.066406 C 7.40625 15.066406 7.285156 15.054688 7.167969 15.035156 Z M 6.6875 10.777344 L 6.699219 9.371094 C 6.964844 9.308594 7.242188 9.277344 7.527344 9.277344 C 7.664062 9.277344 7.796875 9.285156 7.929688 9.300781 L 8.078125 10.6875 C 7.898438 10.644531 7.714844 10.621094 7.527344 10.621094 C 7.230469 10.621094 6.949219 10.675781 6.6875 10.777344 Z M 7.527344 10.867188 C 7.726562 10.867188 7.921875 10.894531 8.105469 10.949219 L 8.113281 11.019531 L 7.488281 11.554688 C 7.429688 11.554688 7.378906 11.5625 7.324219 11.570312 L 6.683594 11.105469 L 6.683594 11.042969 C 6.945312 10.929688 7.230469 10.867188 7.527344 10.867188 Z M 8.558594 12 C 8.519531 11.953125 8.476562 11.914062 8.429688 11.875 L 8.347656 11.109375 L 8.40625 11.058594 C 8.628906 11.164062 8.835938 11.304688 9.011719 11.480469 L 9.195312 11.664062 L 9.054688 11.960938 Z M 8.65625 12.132812 L 8.992188 12.121094 L 8.847656 12.449219 C 8.804688 12.320312 8.730469 12.242188 8.65625 12.132812 Z M 8.738281 14.679688 L 8.671875 13.804688 C 8.792969 13.96875 8.945312 14.210938 9.089844 14.332031 C 8.96875 14.480469 8.894531 14.570312 8.738281 14.679688 Z M 9.90625 15.792969 C 9.597656 16.054688 9.246094 16.265625 8.859375 16.414062 L 8.761719 15.054688 Z M 8.890625 14.871094 C 8.996094 14.796875 9.09375 14.71875 9.1875 14.625 L 9.332031 14.492188 L 10.417969 15.265625 C 10.328125 15.371094 10.222656 15.5 10.078125 15.640625 Z M 23.753906 4.710938 C 24.871094 4.4375 25.804688 3.851562 26.550781 3.027344 C 26.605469 2.957031 26.792969 2.734375 26.828125 2.660156 C 26.863281 2.589844 26.898438 2.589844 26.871094 2.671875 C 26.84375 2.75 26.660156 3.046875 26.617188 3.136719 C 26.152344 3.898438 25.410156 4.367188 24.65625 4.753906 C 23.550781 5.316406 22.367188 5.652344 21.140625 5.71875 C 18.960938 5.839844 16.792969 5.757812 14.613281 5.765625 C 13.816406 5.769531 13.066406 6.015625 12.359375 6.464844 C 11.609375 6.9375 11.078125 7.589844 10.722656 8.371094 C 10.421875 9.027344 10.445312 9.761719 10.382812 10.496094 C 10.300781 11.464844 9.816406 12.320312 9.117188 12.710938 C 9.425781 12.144531 9.75 11.492188 9.855469 10.824219 C 9.964844 10.15625 9.859375 9.625 9.886719 9.03125 C 9.949219 7.667969 10.816406 6.492188 12.003906 5.820312 C 12.847656 5.34375 13.730469 5.046875 14.679688 5.011719 C 15.425781 4.984375 16.164062 5.046875 16.910156 5.097656 C 17.820312 5.160156 18.722656 5.15625 19.625 5.132812 C 19.730469 5.128906 19.871094 5.132812 19.980469 5.128906 C 21.25 5.085938 22.488281 5.019531 23.753906 4.710938 Z M 16.078125 6.28125 C 16.238281 6.21875 16.460938 6.449219 16.644531 6.289062 C 16.75 6.199219 16.953125 6.34375 17.105469 6.414062 C 17.265625 6.484375 17.378906 6.375 17.511719 6.289062 C 17.597656 6.234375 17.730469 6.402344 17.882812 6.363281 C 17.9375 6.351562 17.925781 6.238281 17.976562 6.230469 C 18.15625 6.210938 18.3125 6.378906 18.472656 6.304688 C 18.53125 6.28125 18.597656 6.179688 18.660156 6.140625 C 18.738281 6.09375 18.84375 6.203125 18.902344 6.152344 C 19.070312 6 19.238281 6.0625 19.394531 6.085938 C 19.429688 6.089844 19.460938 6.222656 19.421875 6.246094 C 18.761719 6.65625 18.109375 6.765625 17.355469 6.847656 C 16.992188 6.890625 16.265625 6.820312 15.824219 6.5625 C 15.574219 6.417969 15.941406 6.332031 16.078125 6.28125 Z M 16.394531 9.6875 C 15.695312 9.847656 15.039062 9.800781 14.359375 9.640625 C 14.21875 9.605469 14.140625 9.46875 14.027344 9.371094 C 14.003906 9.347656 13.886719 9.359375 13.882812 9.347656 C 13.835938 9.207031 13.800781 9.152344 13.6875 9.0625 C 13.667969 9.046875 13.65625 8.957031 13.710938 8.953125 C 13.886719 8.9375 14.054688 8.917969 14.226562 8.894531 C 14.316406 8.886719 14.320312 8.730469 14.394531 8.699219 C 14.574219 8.625 14.773438 8.613281 14.972656 8.59375 C 15.480469 8.542969 15.980469 8.460938 16.488281 8.496094 C 17.003906 8.535156 17.480469 8.703125 17.976562 8.855469 C 18.039062 8.875 18.148438 8.914062 18.09375 9 C 18.027344 9.105469 17.882812 9.109375 17.769531 9.183594 C 17.621094 9.285156 17.410156 9.246094 17.277344 9.371094 C 17.085938 9.554688 16.832031 9.566406 16.589844 9.597656 C 16.523438 9.609375 16.46875 9.667969 16.394531 9.6875 Z M 13.59375 11.320312 C 13.363281 11.261719 13.019531 11.1875 12.96875 11.046875 C 13 11.054688 13.058594 10.96875 13.058594 10.945312 C 13.066406 10.839844 12.855469 10.816406 12.78125 10.742188 C 12.761719 10.726562 12.75 10.632812 12.808594 10.632812 C 12.921875 10.628906 13.160156 10.726562 13.324219 10.644531 C 13.367188 10.621094 13.371094 10.558594 13.4375 10.527344 C 13.507812 10.5 13.597656 10.539062 13.640625 10.515625 C 13.683594 10.492188 13.75 10.484375 13.78125 10.441406 C 13.804688 10.410156 13.769531 10.320312 13.800781 10.285156 C 13.859375 10.230469 13.9375 10.257812 14.019531 10.203125 C 14.074219 10.167969 14.125 10.078125 14.167969 10.050781 C 14.25 10.003906 14.359375 10 14.453125 9.992188 C 14.722656 9.972656 14.988281 9.984375 15.261719 10.019531 C 15.492188 10.046875 15.714844 10.070312 15.941406 10.136719 C 16.3125 10.246094 16.675781 10.324219 17.007812 10.527344 C 16.804688 10.796875 16.476562 10.8125 16.203125 10.953125 C 15.980469 11.070312 15.742188 11.082031 15.511719 11.148438 C 14.882812 11.339844 14.230469 11.480469 13.59375 11.320312 Z M 10.476562 12.117188 C 10.574219 12.136719 10.652344 12.078125 10.730469 12.097656 C 10.839844 12.125 10.886719 12.136719 10.96875 12.179688 C 11.023438 12.144531 11.101562 12.132812 11.128906 12.125 C 11.28125 12.078125 11.457031 12.171875 11.613281 12.160156 C 11.691406 12.152344 11.6875 11.988281 11.746094 11.960938 C 11.964844 11.863281 12.25 12.007812 12.484375 11.949219 C 12.507812 11.941406 12.488281 11.820312 12.589844 11.746094 C 12.632812 11.714844 12.816406 11.714844 12.875 11.691406 C 12.878906 11.667969 12.886719 11.613281 12.941406 11.585938 C 13.113281 11.5 13.363281 11.644531 13.609375 11.683594 C 13.78125 11.710938 13.953125 11.773438 14.125 11.832031 C 14.261719 11.875 14.460938 12 14.417969 12.042969 C 13.722656 12.75 12.632812 12.835938 11.675781 12.769531 C 11.113281 12.726562 10.5 12.71875 10.042969 12.347656 C 9.9375 12.265625 10.070312 12.089844 10.195312 12.023438 C 10.28125 11.976562 10.382812 12.101562 10.476562 12.117188 Z M 11.773438 10.882812 C 12.046875 11.011719 12.332031 11.121094 12.546875 11.335938 C 12.070312 11.621094 11.539062 11.710938 10.992188 11.800781 C 10.792969 11.832031 10.582031 11.867188 10.382812 11.789062 C 10.5 11.367188 10.652344 10.964844 10.800781 10.558594 C 11.144531 10.613281 11.457031 10.734375 11.773438 10.882812 Z M 12.683594 7.054688 C 12.839844 7 13.035156 6.957031 13.011719 6.742188 C 13.003906 6.695312 13.085938 6.664062 13.128906 6.660156 C 13.25 6.644531 13.367188 6.640625 13.484375 6.609375 C 13.578125 6.585938 13.617188 6.488281 13.6875 6.4375 C 13.941406 6.253906 14.257812 6.433594 14.503906 6.328125 C 14.617188 6.277344 14.734375 6.25 14.832031 6.308594 C 15.082031 6.453125 15.445312 6.511719 15.519531 6.808594 C 14.636719 7.328125 13.585938 7.46875 12.578125 7.457031 C 12.585938 7.308594 12.53125 7.109375 12.683594 7.054688 Z M 13.195312 7.796875 C 13.519531 7.867188 13.769531 8.039062 14.058594 8.152344 C 14.171875 8.195312 14.410156 8.324219 14.304688 8.386719 C 13.386719 8.914062 12.320312 8.980469 11.285156 8.976562 C 11.296875 8.816406 11.375 8.707031 11.410156 8.5625 C 11.457031 8.375 11.746094 8.328125 11.742188 8.070312 C 11.738281 7.929688 12.019531 7.957031 12.109375 7.832031 C 12.144531 7.78125 12.179688 7.707031 12.226562 7.695312 C 12.554688 7.644531 12.867188 7.726562 13.195312 7.796875 Z M 11.039062 9.597656 C 11.105469 9.496094 11.152344 9.363281 11.207031 9.332031 C 11.625 9.089844 12.171875 9.199219 12.644531 9.328125 C 13.050781 9.441406 13.472656 9.539062 13.769531 9.851562 C 13.785156 9.871094 13.785156 9.929688 13.769531 9.9375 C 12.867188 10.351562 11.878906 10.523438 10.902344 10.417969 C 10.875 10.414062 10.910156 10.207031 10.894531 10.070312 C 10.878906 9.976562 10.972656 9.921875 11.042969 9.832031 C 11.082031 9.785156 10.988281 9.671875 11.039062 9.597656 Z M 19.011719 7.8125 C 17.683594 8.328125 16.242188 8.328125 14.84375 8.246094 C 14.785156 8.246094 14.769531 8.136719 14.730469 8.082031 C 14.679688 8.007812 14.5625 7.988281 14.503906 7.945312 C 14.453125 7.90625 14.457031 7.84375 14.402344 7.800781 C 14.351562 7.757812 14.21875 7.769531 14.136719 7.734375 C 14.105469 7.722656 14.066406 7.621094 14.105469 7.597656 C 14.28125 7.496094 14.550781 7.675781 14.660156 7.53125 C 14.84375 7.292969 15.078125 7.46875 15.292969 7.386719 C 15.359375 7.363281 15.34375 7.277344 15.371094 7.242188 C 15.554688 7.019531 15.894531 6.988281 16.1875 6.984375 C 16.425781 6.976562 16.714844 6.984375 16.925781 7.011719 C 17.511719 7.101562 18.03125 7.195312 18.546875 7.441406 C 18.691406 7.511719 18.859375 7.546875 18.984375 7.675781 C 19.039062 7.726562 18.992188 7.769531 19.011719 7.8125 Z M 27.015625 2.777344 C 26.980469 2.921875 26.9375 3.054688 26.882812 3.207031 C 26.488281 4.328125 25.625 5.046875 24.6875 5.730469 C 23.808594 6.371094 22.925781 6.773438 21.882812 7.015625 C 21.085938 7.199219 20.324219 7.363281 19.527344 7.304688 C 19.34375 7.292969 19.203125 7.171875 19.03125 7.085938 C 18.960938 7.050781 18.835938 7.0625 18.761719 7.019531 C 18.679688 6.972656 18.71875 6.867188 18.816406 6.851562 C 18.9375 6.828125 19.070312 6.878906 19.160156 6.824219 C 19.394531 6.691406 19.648438 6.746094 19.878906 6.671875 C 20.015625 6.628906 19.882812 6.4375 19.984375 6.40625 C 20.117188 6.363281 20.261719 6.347656 20.398438 6.3125 C 20.464844 6.296875 20.472656 6.136719 20.507812 6.125 C 20.695312 6.070312 21.019531 6.152344 21.273438 6.148438 C 21.351562 6.144531 21.296875 6 21.394531 6 C 21.710938 5.996094 21.683594 6.035156 21.894531 5.894531 C 22.089844 5.761719 22.5625 5.945312 22.558594 5.648438 C 22.953125 5.582031 23.382812 5.699219 23.738281 5.433594 C 23.796875 5.394531 23.90625 5.433594 23.984375 5.382812 C 24.03125 5.355469 24.027344 5.277344 24.085938 5.261719 C 24.234375 5.21875 24.394531 5.21875 24.53125 5.15625 C 24.613281 5.117188 24.601562 4.976562 24.644531 4.957031 C 25.511719 4.5625 26.230469 4.03125 26.734375 3.207031 C 26.832031 3.046875 26.941406 2.820312 26.96875 2.75 C 26.996094 2.679688 27.039062 2.691406 27.015625 2.777344 Z M 25.894531 6.300781 C 25.539062 6.273438 25.183594 6.3125 24.828125 6.285156 C 24.773438 6.28125 24.785156 6.1875 24.804688 6.175781 C 26.210938 5.054688 27.261719 3.550781 27.277344 1.769531 C 27.277344 1.746094 27.242188 1.71875 27.222656 1.742188 C 26.25 3.023438 25.09375 4.203125 23.46875 4.398438 C 23.390625 4.410156 23.386719 4.277344 23.445312 4.238281 C 24.925781 3.273438 26.011719 1.984375 26.371094 0.25 C 26.375 0.230469 26.339844 0.199219 26.316406 0.222656 C 25.257812 1.328125 23.988281 2.101562 22.527344 2.53125 C 19.898438 3.304688 17.214844 3.042969 14.550781 3.050781 C 13.496094 3.054688 12.433594 3.144531 11.457031 3.601562 C 10.257812 4.164062 9.222656 5.070312 8.667969 6.292969 L 8.652344 6.324219 C 8.277344 6.261719 7.894531 6.226562 7.5 6.226562 C 3.757812 6.226562 0.722656 9.261719 0.722656 13.007812 C 0.722656 16.75 3.757812 19.785156 7.5 19.785156 C 10.371094 19.785156 12.824219 18 13.816406 15.480469 L 13.910156 15.476562 C 14.242188 15.492188 14.609375 15.503906 14.9375 15.371094 C 14.976562 15.355469 15.089844 15.28125 15.046875 15.199219 C 14.996094 15.097656 14.832031 14.894531 14.78125 14.757812 C 14.769531 14.730469 14.761719 14.667969 14.808594 14.667969 C 15.632812 14.664062 16.515625 14.714844 17.273438 14.417969 C 17.082031 14.101562 16.644531 13.867188 16.402344 13.558594 C 16.347656 13.488281 16.453125 13.449219 16.492188 13.449219 C 17.640625 13.445312 18.710938 13.445312 19.722656 12.929688 C 19.757812 12.910156 19.761719 12.867188 19.738281 12.84375 C 19.515625 12.609375 19.238281 12.390625 18.976562 12.207031 C 20.257812 11.949219 21.664062 11.308594 22.070312 10.945312 C 22.113281 10.910156 22.085938 10.871094 22.0625 10.84375 C 21.957031 10.71875 21.667969 10.523438 21.617188 10.472656 C 21.597656 10.453125 21.601562 10.394531 21.613281 10.386719 C 22.75 9.953125 23.875 9.453125 24.691406 8.484375 C 24.730469 8.441406 24.679688 8.378906 24.632812 8.371094 C 24.304688 8.308594 23.988281 8.292969 23.664062 8.296875 C 23.664062 8.253906 23.652344 8.191406 23.671875 8.179688 C 24.523438 7.683594 25.277344 7.164062 25.917969 6.414062 C 25.9375 6.390625 25.949219 6.304688 25.894531 6.300781 Z M 25.894531 6.300781 "/>
<path style=" stroke:none;fill-rule:nonzero;fill:rgb(92.54902%,12.54902%,14.117647%);fill-opacity:1;" d="M 25.917969 6.414062 C 25.273438 7.164062 24.519531 7.683594 23.671875 8.179688 C 23.652344 8.191406 23.664062 8.253906 23.664062 8.296875 C 23.988281 8.292969 24.304688 8.308594 24.632812 8.371094 C 24.675781 8.378906 24.730469 8.4375 24.691406 8.484375 C 23.875 9.453125 22.75 9.953125 21.613281 10.386719 C 21.601562 10.394531 21.597656 10.453125 21.613281 10.472656 C 21.667969 10.523438 21.957031 10.71875 22.0625 10.84375 C 22.085938 10.871094 22.113281 10.90625 22.070312 10.945312 C 21.664062 11.308594 20.257812 11.949219 18.976562 12.207031 C 19.238281 12.390625 19.515625 12.609375 19.738281 12.84375 C 19.757812 12.867188 19.757812 12.910156 19.722656 12.929688 C 18.710938 13.445312 17.640625 13.445312 16.488281 13.449219 C 16.453125 13.449219 16.347656 13.488281 16.402344 13.558594 C 16.644531 13.867188 17.082031 14.101562 17.273438 14.417969 C 16.515625 14.714844 15.632812 14.664062 14.808594 14.667969 C 14.761719 14.667969 14.769531 14.730469 14.78125 14.757812 C 14.832031 14.894531 14.996094 15.097656 15.046875 15.199219 C 15.089844 15.28125 14.976562 15.355469 14.9375 15.371094 C 14.609375 15.503906 14.242188 15.492188 13.910156 15.476562 L 13.8125 15.480469 C 12.824219 18 10.371094 19.785156 7.5 19.785156 C 3.757812 19.785156 0.722656 16.75 0.722656 13.007812 C 0.722656 9.261719 3.757812 6.226562 7.5 6.226562 C 7.894531 6.226562 8.277344 6.261719 8.652344 6.324219 L 8.667969 6.292969 C 9.222656 5.070312 10.257812 4.164062 11.457031 3.601562 C 12.433594 3.144531 13.496094 3.054688 14.550781 3.050781 C 17.214844 3.042969 19.898438 3.300781 22.527344 2.53125 C 23.988281 2.101562 25.257812 1.328125 26.316406 0.222656 C 26.335938 0.199219 26.375 0.230469 26.371094 0.25 C 26.011719 1.984375 24.925781 3.273438 23.445312 4.238281 C 23.386719 4.277344 23.390625 4.410156 23.46875 4.398438 C 25.089844 4.203125 26.25 3.023438 27.222656 1.742188 C 27.242188 1.71875 27.277344 1.746094 27.277344 1.769531 C 27.261719 3.550781 26.210938 5.054688 24.804688 6.175781 C 24.785156 6.1875 24.769531 6.28125 24.828125 6.285156 C 25.183594 6.3125 25.539062 6.273438 25.890625 6.300781 C 25.949219 6.304688 25.9375 6.390625 25.917969 6.414062 M 25.910156 6.089844 C 25.722656 6.074219 25.535156 6.078125 25.359375 6.078125 C 25.320312 6.082031 25.285156 6.082031 25.25 6.082031 C 26.328125 5.144531 27.472656 3.695312 27.492188 1.769531 C 27.492188 1.664062 27.421875 1.566406 27.316406 1.53125 C 27.21875 1.5 27.113281 1.53125 27.054688 1.613281 C 26.292969 2.613281 25.355469 3.65625 24.082031 4.050781 C 25.433594 3.027344 26.273438 1.765625 26.582031 0.292969 C 26.601562 0.1875 26.546875 0.0820312 26.449219 0.0273438 C 26.355469 -0.0234375 26.238281 -0.00390625 26.164062 0.0742188 C 25.128906 1.152344 23.886719 1.910156 22.46875 2.324219 C 20.414062 2.929688 18.277344 2.890625 16.210938 2.851562 C 15.667969 2.84375 15.105469 2.832031 14.550781 2.835938 C 13.574219 2.839844 12.429688 2.910156 11.367188 3.40625 C 10.082031 4.007812 9.082031 4.957031 8.53125 6.089844 C 8.191406 6.039062 7.84375 6.015625 7.5 6.015625 C 3.644531 6.015625 0.507812 9.152344 0.507812 13.007812 C 0.507812 16.863281 3.644531 20 7.5 20 C 8.933594 20 10.3125 19.570312 11.484375 18.753906 C 12.589844 17.984375 13.441406 16.929688 13.957031 15.695312 C 14.277344 15.707031 14.664062 15.710938 15.015625 15.570312 C 15.035156 15.5625 15.195312 15.492188 15.253906 15.339844 C 15.28125 15.257812 15.277344 15.175781 15.238281 15.097656 C 15.210938 15.050781 15.171875 14.992188 15.128906 14.929688 C 15.117188 14.914062 15.109375 14.898438 15.097656 14.882812 C 15.140625 14.882812 15.167969 14.882812 15.167969 14.882812 C 15.90625 14.882812 16.667969 14.886719 17.351562 14.617188 C 17.410156 14.59375 17.453125 14.546875 17.476562 14.484375 C 17.496094 14.425781 17.488281 14.359375 17.457031 14.304688 C 17.332031 14.105469 17.136719 13.941406 16.949219 13.785156 C 16.898438 13.742188 16.847656 13.703125 16.800781 13.660156 C 17.855469 13.652344 18.855469 13.609375 19.816406 13.117188 C 19.894531 13.078125 19.949219 13.007812 19.960938 12.925781 C 19.976562 12.839844 19.949219 12.757812 19.890625 12.695312 C 19.769531 12.570312 19.628906 12.441406 19.472656 12.3125 C 20.625 12.015625 21.8125 11.464844 22.214844 11.105469 C 22.3125 11.015625 22.355469 10.859375 22.226562 10.707031 C 22.164062 10.632812 22.066406 10.550781 21.972656 10.476562 C 23.007812 10.066406 24.0625 9.5625 24.855469 8.621094 C 24.917969 8.546875 24.933594 8.449219 24.902344 8.359375 C 24.867188 8.257812 24.777344 8.179688 24.671875 8.160156 C 24.527344 8.132812 24.378906 8.113281 24.21875 8.097656 C 24.859375 7.703125 25.507812 7.222656 26.078125 6.554688 C 26.148438 6.476562 26.167969 6.34375 26.125 6.246094 C 26.089844 6.15625 26.007812 6.097656 25.910156 6.089844 Z M 25.910156 6.089844 "/>
<path style=" stroke:none;fill-rule:nonzero;fill:rgb(92.54902%,12.54902%,14.117647%);fill-opacity:1;" d="M 24.644531 4.957031 C 24.601562 4.976562 24.613281 5.117188 24.53125 5.15625 C 24.394531 5.21875 24.234375 5.21875 24.085938 5.261719 C 24.027344 5.28125 24.03125 5.355469 23.984375 5.382812 C 23.90625 5.433594 23.796875 5.394531 23.738281 5.433594 C 23.382812 5.699219 22.953125 5.582031 22.558594 5.648438 C 22.5625 5.945312 22.089844 5.761719 21.894531 5.894531 C 21.683594 6.035156 21.710938 5.996094 21.398438 6 C 21.296875 6 21.351562 6.148438 21.273438 6.148438 C 21.019531 6.152344 20.695312 6.070312 20.507812 6.125 C 20.476562 6.136719 20.464844 6.296875 20.398438 6.3125 C 20.261719 6.351562 20.117188 6.363281 19.984375 6.40625 C 19.882812 6.4375 20.015625 6.628906 19.878906 6.671875 C 19.648438 6.746094 19.394531 6.695312 19.164062 6.824219 C 19.070312 6.878906 18.9375 6.828125 18.816406 6.851562 C 18.71875 6.867188 18.679688 6.972656 18.761719 7.019531 C 18.835938 7.0625 18.960938 7.050781 19.035156 7.085938 C 19.203125 7.171875 19.34375 7.292969 19.527344 7.304688 C 20.328125 7.363281 21.089844 7.199219 21.882812 7.015625 C 22.925781 6.773438 23.808594 6.371094 24.6875 5.730469 C 25.625 5.046875 26.488281 4.328125 26.882812 3.207031 C 26.9375 3.054688 26.980469 2.921875 27.015625 2.777344 C 27.039062 2.691406 26.996094 2.679688 26.96875 2.75 C 26.941406 2.824219 26.832031 3.046875 26.734375 3.207031 C 26.230469 4.03125 25.511719 4.5625 24.644531 4.957031 "/>
<path style=" stroke:none;fill-rule:nonzero;fill:rgb(92.54902%,12.54902%,14.117647%);fill-opacity:1;" d="M 18.984375 7.675781 C 18.859375 7.546875 18.691406 7.511719 18.546875 7.445312 C 18.03125 7.195312 17.511719 7.101562 16.925781 7.011719 C 16.714844 6.984375 16.425781 6.976562 16.1875 6.984375 C 15.894531 6.988281 15.554688 7.019531 15.371094 7.242188 C 15.34375 7.277344 15.359375 7.363281 15.292969 7.386719 C 15.078125 7.46875 14.84375 7.292969 14.660156 7.53125 C 14.550781 7.675781 14.28125 7.496094 14.105469 7.597656 C 14.066406 7.621094 14.105469 7.722656 14.136719 7.734375 C 14.21875 7.769531 14.351562 7.757812 14.402344 7.800781 C 14.457031 7.84375 14.453125 7.90625 14.503906 7.945312 C 14.5625 7.992188 14.679688 8.007812 14.730469 8.082031 C 14.769531 8.136719 14.785156 8.246094 14.84375 8.246094 C 16.242188 8.328125 17.683594 8.328125 19.011719 7.8125 C 18.992188 7.769531 19.039062 7.726562 18.984375 7.675781 "/>
<path style=" stroke:none;fill-rule:nonzero;fill:rgb(92.54902%,12.54902%,14.117647%);fill-opacity:1;" d="M 10.894531 10.070312 C 10.910156 10.207031 10.875 10.414062 10.902344 10.417969 C 11.878906 10.523438 12.867188 10.351562 13.769531 9.9375 C 13.785156 9.929688 13.785156 9.871094 13.769531 9.851562 C 13.472656 9.539062 13.050781 9.441406 12.644531 9.328125 C 12.171875 9.199219 11.625 9.089844 11.207031 9.332031 C 11.152344 9.363281 11.105469 9.496094 11.039062 9.597656 C 10.988281 9.671875 11.082031 9.785156 11.042969 9.832031 C 10.972656 9.921875 10.878906 9.976562 10.894531 10.070312 "/>
<path style=" stroke:none;fill-rule:nonzero;fill:rgb(92.54902%,12.54902%,14.117647%);fill-opacity:1;" d="M 15.519531 6.808594 C 15.445312 6.511719 15.082031 6.453125 14.832031 6.308594 C 14.734375 6.25 14.617188 6.277344 14.503906 6.328125 C 14.257812 6.433594 13.941406 6.253906 13.6875 6.4375 C 13.613281 6.488281 13.578125 6.585938 13.484375 6.609375 C 13.367188 6.640625 13.25 6.644531 13.128906 6.660156 C 13.085938 6.664062 13.003906 6.695312 13.011719 6.742188 C 13.035156 6.957031 12.839844 7 12.683594 7.054688 C 12.53125 7.109375 12.582031 7.308594 12.578125 7.457031 C 13.585938 7.46875 14.636719 7.328125 15.519531 6.808594 "/>
<path style=" stroke:none;fill-rule:nonzero;fill:rgb(92.54902%,12.54902%,14.117647%);fill-opacity:1;" d="M 12.226562 7.695312 C 12.179688 7.707031 12.144531 7.78125 12.109375 7.832031 C 12.019531 7.957031 11.738281 7.929688 11.742188 8.070312 C 11.746094 8.328125 11.457031 8.375 11.410156 8.5625 C 11.375 8.707031 11.296875 8.820312 11.285156 8.976562 C 12.320312 8.980469 13.386719 8.914062 14.304688 8.386719 C 14.414062 8.324219 14.171875 8.195312 14.058594 8.152344 C 13.769531 8.039062 13.519531 7.867188 13.195312 7.796875 C 12.867188 7.726562 12.554688 7.644531 12.226562 7.695312 "/>
<path style=" stroke:none;fill-rule:nonzero;fill:rgb(92.54902%,12.54902%,14.117647%);fill-opacity:1;" d="M 10.382812 11.789062 C 10.582031 11.867188 10.792969 11.832031 10.992188 11.800781 C 11.539062 11.710938 12.070312 11.621094 12.546875 11.335938 C 12.332031 11.121094 12.042969 11.011719 11.773438 10.882812 C 11.457031 10.734375 11.144531 10.613281 10.800781 10.558594 C 10.652344 10.964844 10.5 11.371094 10.382812 11.789062 "/>
<path style=" stroke:none;fill-rule:nonzero;fill:rgb(92.54902%,12.54902%,14.117647%);fill-opacity:1;" d="M 10.195312 12.023438 C 10.070312 12.089844 9.9375 12.265625 10.042969 12.347656 C 10.5 12.71875 11.113281 12.726562 11.675781 12.765625 C 12.632812 12.835938 13.722656 12.75 14.417969 12.042969 C 14.460938 12 14.261719 11.875 14.125 11.832031 C 13.953125 11.773438 13.78125 11.710938 13.609375 11.683594 C 13.363281 11.644531 13.113281 11.5 12.941406 11.585938 C 12.886719 11.613281 12.878906 11.667969 12.875 11.691406 C 12.816406 11.714844 12.632812 11.714844 12.589844 11.746094 C 12.488281 11.820312 12.507812 11.941406 12.484375 11.949219 C 12.25 12.007812 11.964844 11.863281 11.746094 11.960938 C 11.6875 11.988281 11.691406 12.152344 11.613281 12.160156 C 11.457031 12.171875 11.28125 12.078125 11.128906 12.125 C 11.101562 12.132812 11.023438 12.144531 10.96875 12.179688 C 10.886719 12.136719 10.839844 12.125 10.734375 12.097656 C 10.652344 12.078125 10.574219 12.136719 10.476562 12.117188 C 10.382812 12.101562 10.28125 11.976562 10.195312 12.023438 "/>
<path style=" stroke:none;fill-rule:nonzero;fill:rgb(92.54902%,12.54902%,14.117647%);fill-opacity:1;" d="M 16.203125 10.953125 C 16.476562 10.8125 16.804688 10.796875 17.007812 10.527344 C 16.675781 10.324219 16.3125 10.246094 15.941406 10.136719 C 15.714844 10.070312 15.492188 10.046875 15.261719 10.019531 C 14.988281 9.984375 14.722656 9.972656 14.457031 9.992188 C 14.359375 10 14.25 10.003906 14.167969 10.050781 C 14.125 10.078125 14.074219 10.167969 14.019531 10.203125 C 13.9375 10.257812 13.859375 10.230469 13.800781 10.285156 C 13.769531 10.320312 13.804688 10.410156 13.78125 10.441406 C 13.75 10.484375 13.683594 10.492188 13.640625 10.515625 C 13.597656 10.539062 13.507812 10.5 13.4375 10.527344 C 13.371094 10.558594 13.367188 10.621094 13.324219 10.644531 C 13.160156 10.726562 12.921875 10.628906 12.808594 10.632812 C 12.75 10.632812 12.765625 10.726562 12.78125 10.742188 C 12.855469 10.816406 13.066406 10.839844 13.0625 10.945312 C 13.058594 10.972656 13 11.054688 12.96875 11.046875 C 13.019531 11.1875 13.363281 11.261719 13.59375 11.320312 C 14.230469 11.480469 14.882812 11.339844 15.515625 11.148438 C 15.742188 11.082031 15.980469 11.070312 16.203125 10.953125 "/>
<path style=" stroke:none;fill-rule:nonzero;fill:rgb(92.54902%,12.54902%,14.117647%);fill-opacity:1;" d="M 17.769531 9.183594 C 17.882812 9.109375 18.027344 9.105469 18.09375 9 C 18.148438 8.914062 18.039062 8.875 17.972656 8.855469 C 17.480469 8.703125 17.003906 8.535156 16.488281 8.496094 C 15.976562 8.460938 15.480469 8.542969 14.972656 8.59375 C 14.773438 8.613281 14.574219 8.625 14.394531 8.699219 C 14.320312 8.730469 14.3125 8.886719 14.226562 8.894531 C 14.054688 8.917969 13.882812 8.9375 13.710938 8.953125 C 13.65625 8.957031 13.667969 9.046875 13.6875 9.0625 C 13.796875 9.152344 13.835938 9.207031 13.882812 9.347656 C 13.886719 9.359375 14.003906 9.347656 14.027344 9.371094 C 14.140625 9.46875 14.21875 9.605469 14.359375 9.640625 C 15.039062 9.800781 15.695312 9.847656 16.394531 9.6875 C 16.46875 9.667969 16.519531 9.609375 16.589844 9.597656 C 16.832031 9.566406 17.085938 9.554688 17.273438 9.371094 C 17.410156 9.246094 17.621094 9.285156 17.769531 9.183594 "/>
<path style=" stroke:none;fill-rule:nonzero;fill:rgb(92.54902%,12.54902%,14.117647%);fill-opacity:1;" d="M 17.355469 6.847656 C 18.109375 6.765625 18.761719 6.65625 19.421875 6.246094 C 19.460938 6.222656 19.429688 6.089844 19.394531 6.085938 C 19.238281 6.0625 19.070312 6 18.902344 6.152344 C 18.84375 6.203125 18.738281 6.09375 18.660156 6.140625 C 18.597656 6.179688 18.53125 6.28125 18.472656 6.304688 C 18.3125 6.378906 18.15625 6.210938 17.976562 6.230469 C 17.925781 6.238281 17.9375 6.351562 17.882812 6.363281 C 17.730469 6.402344 17.597656 6.234375 17.511719 6.289062 C 17.378906 6.375 17.265625 6.484375 17.105469 6.414062 C 16.953125 6.34375 16.75 6.199219 16.644531 6.289062 C 16.460938 6.449219 16.238281 6.21875 16.078125 6.28125 C 15.941406 6.332031 15.574219 6.417969 15.824219 6.5625 C 16.265625 6.820312 16.992188 6.890625 17.355469 6.847656 "/>
<path style=" stroke:none;fill-rule:nonzero;fill:rgb(92.54902%,12.54902%,14.117647%);fill-opacity:1;" d="M 19.625 5.132812 C 18.722656 5.15625 17.820312 5.160156 16.910156 5.097656 C 16.164062 5.046875 15.425781 4.984375 14.679688 5.011719 C 13.730469 5.046875 12.847656 5.34375 12.003906 5.820312 C 10.816406 6.492188 9.949219 7.667969 9.886719 9.03125 C 9.859375 9.625 9.964844 10.15625 9.855469 10.824219 C 9.75 11.492188 9.425781 12.144531 9.117188 12.710938 C 9.816406 12.320312 10.300781 11.464844 10.382812 10.492188 C 10.445312 9.761719 10.421875 9.027344 10.722656 8.367188 C 11.078125 7.589844 11.609375 6.9375 12.359375 6.464844 C 13.066406 6.015625 13.816406 5.769531 14.613281 5.765625 C 16.792969 5.757812 18.960938 5.839844 21.140625 5.71875 C 22.367188 5.648438 23.550781 5.316406 24.65625 4.753906 C 25.410156 4.367188 26.152344 3.898438 26.617188 3.136719 C 26.660156 3.046875 26.84375 2.75 26.871094 2.671875 C 26.898438 2.589844 26.863281 2.589844 26.828125 2.660156 C 26.792969 2.734375 26.605469 2.957031 26.550781 3.027344 C 25.804688 3.851562 24.871094 4.4375 23.753906 4.710938 C 22.488281 5.019531 21.25 5.085938 19.980469 5.128906 C 19.875 5.132812 19.730469 5.128906 19.625 5.132812 "/>
<path style=" stroke:none;fill-rule:nonzero;fill:rgb(92.54902%,12.54902%,14.117647%);fill-opacity:1;" d="M 10.417969 15.265625 L 9.332031 14.492188 L 9.1875 14.625 C 9.09375 14.71875 8.996094 14.796875 8.890625 14.871094 L 10.078125 15.640625 C 10.222656 15.5 10.328125 15.371094 10.417969 15.265625 "/>
<path style=" stroke:none;fill-rule:nonzero;fill:rgb(92.54902%,12.54902%,14.117647%);fill-opacity:1;" d="M 8.859375 16.414062 C 9.246094 16.265625 9.597656 16.054688 9.90625 15.792969 L 8.761719 15.054688 L 8.859375 16.414062 "/>
<path style=" stroke:none;fill-rule:nonzero;fill:rgb(92.54902%,12.54902%,14.117647%);fill-opacity:1;" d="M 8.671875 13.804688 L 8.738281 14.679688 C 8.894531 14.570312 8.96875 14.480469 9.089844 14.332031 C 8.945312 14.210938 8.792969 13.96875 8.671875 13.804688 "/>
<path style=" stroke:none;fill-rule:nonzero;fill:rgb(92.54902%,12.54902%,14.117647%);fill-opacity:1;" d="M 8.65625 12.132812 C 8.730469 12.242188 8.804688 12.320312 8.847656 12.449219 L 8.992188 12.121094 L 8.65625 12.132812 "/>
<path style=" stroke:none;fill-rule:nonzero;fill:rgb(92.54902%,12.54902%,14.117647%);fill-opacity:1;" d="M 9.195312 11.664062 L 9.011719 11.480469 C 8.832031 11.304688 8.628906 11.164062 8.40625 11.058594 L 8.347656 11.109375 L 8.429688 11.875 C 8.476562 11.914062 8.519531 11.953125 8.558594 12 L 9.054688 11.960938 L 9.195312 11.664062 "/>
<path style=" stroke:none;fill-rule:nonzero;fill:rgb(92.54902%,12.54902%,14.117647%);fill-opacity:1;" d="M 6.683594 11.105469 L 7.324219 11.570312 C 7.378906 11.5625 7.429688 11.554688 7.488281 11.554688 L 8.113281 11.019531 L 8.105469 10.949219 C 7.921875 10.894531 7.726562 10.867188 7.527344 10.867188 C 7.230469 10.867188 6.945312 10.929688 6.683594 11.042969 L 6.683594 11.105469 "/>
<path style=" stroke:none;fill-rule:nonzero;fill:rgb(92.54902%,12.54902%,14.117647%);fill-opacity:1;" d="M 8.078125 10.6875 L 7.929688 9.300781 C 7.796875 9.285156 7.664062 9.277344 7.527344 9.277344 C 7.242188 9.277344 6.964844 9.308594 6.695312 9.371094 L 6.683594 10.777344 C 6.949219 10.675781 7.230469 10.621094 7.527344 10.621094 C 7.714844 10.621094 7.898438 10.644531 8.078125 10.6875 "/>
<path style=" stroke:none;fill-rule:nonzero;fill:rgb(92.54902%,12.54902%,14.117647%);fill-opacity:1;" d="M 7.527344 15.066406 C 7.859375 15.066406 8.171875 14.988281 8.449219 14.851562 L 7.730469 14.382812 L 7.167969 15.035156 C 7.285156 15.054688 7.40625 15.066406 7.527344 15.066406 "/>
<path style=" stroke:none;fill-rule:nonzero;fill:rgb(92.54902%,12.54902%,14.117647%);fill-opacity:1;" d="M 8.289062 12.964844 C 8.289062 12.546875 7.949219 12.203125 7.527344 12.203125 C 7.105469 12.203125 6.765625 12.546875 6.765625 12.964844 C 6.765625 13.386719 7.105469 13.726562 7.527344 13.726562 C 7.949219 13.730469 8.289062 13.386719 8.289062 12.964844 "/>
<path style=" stroke:none;fill-rule:nonzero;fill:rgb(92.54902%,12.54902%,14.117647%);fill-opacity:1;" d="M 8.46875 14.03125 C 8.335938 14.148438 8.179688 14.238281 8.011719 14.300781 L 8.511719 14.625 L 8.46875 14.03125 "/>
<path style=" stroke:none;fill-rule:nonzero;fill:rgb(92.54902%,12.54902%,14.117647%);fill-opacity:1;" d="M 9.492188 9.84375 C 9.089844 9.589844 8.636719 9.414062 8.152344 9.332031 L 8.308594 10.753906 C 8.335938 10.765625 8.363281 10.773438 8.386719 10.785156 L 9.492188 9.84375 "/>
<path style=" stroke:none;fill-rule:nonzero;fill:rgb(92.54902%,12.54902%,14.117647%);fill-opacity:1;" d="M 7.796875 11.578125 C 7.9375 11.605469 8.070312 11.652344 8.191406 11.71875 L 8.144531 11.285156 L 7.796875 11.578125 "/>
<path style=" stroke:none;fill-rule:nonzero;fill:rgb(92.54902%,12.54902%,14.117647%);fill-opacity:1;" d="M 6.675781 11.835938 C 6.789062 11.753906 6.910156 11.6875 7.042969 11.640625 L 6.679688 11.375 L 6.675781 11.835938 "/>
<path style=" stroke:none;fill-rule:nonzero;fill:rgb(92.54902%,12.54902%,14.117647%);fill-opacity:1;" d="M 6.042969 14.453125 C 6.269531 14.679688 6.539062 14.84375 6.832031 14.949219 L 6.707031 14.125 C 6.703125 14.121094 6.695312 14.117188 6.6875 14.113281 L 5.808594 14.171875 C 5.878906 14.269531 5.957031 14.367188 6.042969 14.453125 "/>
<path style=" stroke:none;fill-rule:nonzero;fill:rgb(92.54902%,12.54902%,14.117647%);fill-opacity:1;" d="M 6.460938 13.90625 C 6.359375 13.789062 6.277344 13.652344 6.21875 13.507812 L 5.925781 13.941406 L 6.460938 13.90625 "/>
<path style=" stroke:none;fill-rule:nonzero;fill:rgb(92.54902%,12.54902%,14.117647%);fill-opacity:1;" d="M 6.113281 12.878906 C 6.125 12.710938 6.164062 12.550781 6.230469 12.40625 L 5.6875 12.507812 L 6.113281 12.878906 "/>
<path style=" stroke:none;fill-rule:nonzero;fill:rgb(92.54902%,12.54902%,14.117647%);fill-opacity:1;" d="M 6.042969 11.480469 C 5.804688 11.71875 5.632812 12.003906 5.53125 12.3125 L 6.371094 12.152344 C 6.398438 12.113281 6.425781 12.078125 6.453125 12.046875 L 6.460938 11.21875 L 6.417969 11.1875 C 6.28125 11.269531 6.15625 11.367188 6.042969 11.480469 "/>
<path style=" stroke:none;fill-rule:nonzero;fill:rgb(92.54902%,12.54902%,14.117647%);fill-opacity:1;" d="M 5.425781 12.964844 C 5.425781 13.308594 5.511719 13.640625 5.664062 13.933594 L 6.136719 13.234375 C 6.132812 13.214844 6.128906 13.199219 6.125 13.183594 L 5.460938 12.601562 C 5.441406 12.722656 5.425781 12.84375 5.425781 12.964844 "/>
<path style=" stroke:none;fill-rule:nonzero;fill:rgb(92.54902%,12.54902%,14.117647%);fill-opacity:1;" d="M 6.40625 10.90625 C 6.425781 10.894531 6.445312 10.886719 6.464844 10.875 L 6.476562 9.429688 C 6.023438 9.5625 5.609375 9.78125 5.246094 10.066406 L 6.40625 10.90625 "/>
<path style=" stroke:none;fill-rule:nonzero;fill:rgb(92.54902%,12.54902%,14.117647%);fill-opacity:1;" d="M 4.253906 11.257812 L 5.316406 12.183594 C 5.484375 11.710938 5.796875 11.308594 6.203125 11.03125 L 5.070312 10.214844 C 4.742188 10.507812 4.464844 10.859375 4.253906 11.257812 "/>
<path style=" stroke:none;fill-rule:nonzero;fill:rgb(92.54902%,12.54902%,14.117647%);fill-opacity:1;" d="M 3.851562 12.636719 L 5.203125 12.375 L 4.15625 11.464844 C 3.992188 11.828125 3.886719 12.222656 3.851562 12.636719 "/>
<path style=" stroke:none;fill-rule:nonzero;fill:rgb(92.54902%,12.54902%,14.117647%);fill-opacity:1;" d="M 3.832031 12.96875 C 3.832031 13.355469 3.894531 13.726562 4 14.074219 L 5.410156 13.976562 C 5.261719 13.664062 5.179688 13.324219 5.179688 12.964844 C 5.179688 12.839844 5.191406 12.71875 5.210938 12.601562 L 3.835938 12.863281 C 3.835938 12.898438 3.832031 12.933594 3.832031 12.96875 "/>
<path style=" stroke:none;fill-rule:nonzero;fill:rgb(92.54902%,12.54902%,14.117647%);fill-opacity:1;" d="M 5.488281 14.195312 L 4.078125 14.292969 C 4.226562 14.683594 4.441406 15.042969 4.707031 15.355469 L 5.488281 14.195312 "/>
<path style=" stroke:none;fill-rule:nonzero;fill:rgb(92.54902%,12.54902%,14.117647%);fill-opacity:1;" d="M 6.75 15.179688 C 6.421875 15.0625 6.121094 14.878906 5.867188 14.625 C 5.785156 14.542969 5.710938 14.453125 5.644531 14.363281 L 4.859375 15.523438 C 5.136719 15.8125 5.460938 16.058594 5.820312 16.246094 L 6.75 15.179688 "/>
<path style=" stroke:none;fill-rule:nonzero;fill:rgb(92.54902%,12.54902%,14.117647%);fill-opacity:1;" d="M 6.894531 15.347656 L 6.027344 16.347656 C 6.359375 16.496094 6.71875 16.59375 7.09375 16.636719 L 6.894531 15.347656 "/>
<path style=" stroke:none;fill-rule:nonzero;fill:rgb(92.54902%,12.54902%,14.117647%);fill-opacity:1;" d="M 6.953125 14.265625 L 7.039062 14.84375 L 7.4375 14.382812 C 7.265625 14.375 7.101562 14.332031 6.953125 14.265625 "/>
<path style=" stroke:none;fill-rule:nonzero;fill:rgb(92.54902%,12.54902%,14.117647%);fill-opacity:1;" d="M 7.527344 16.664062 C 7.917969 16.664062 8.292969 16.601562 8.644531 16.492188 L 8.542969 15.082031 C 8.230469 15.230469 7.886719 15.3125 7.527344 15.3125 C 7.386719 15.3125 7.246094 15.300781 7.109375 15.273438 L 7.320312 16.660156 C 7.386719 16.660156 7.457031 16.664062 7.527344 16.664062 "/>
<path style=" stroke:none;fill-rule:nonzero;fill:rgb(92.54902%,12.54902%,14.117647%);fill-opacity:1;" d="M 9.582031 10.058594 L 8.609375 10.886719 C 8.820312 10.992188 9.015625 11.136719 9.1875 11.308594 L 9.296875 11.414062 C 9.476562 11 9.585938 10.480469 9.582031 10.058594 "/>
<path style=" stroke:none;fill-rule:nonzero;fill:rgb(92.54902%,12.54902%,14.117647%);fill-opacity:1;" d="M 7.519531 8.410156 C 4.996094 8.410156 2.949219 10.457031 2.949219 12.980469 C 2.949219 15.507812 4.996094 17.550781 7.519531 17.550781 C 9.097656 17.550781 10.488281 16.753906 11.308594 15.539062 L 10.773438 15.347656 C 10.039062 16.351562 8.855469 17.003906 7.519531 17.003906 C 5.300781 17.003906 3.5 15.203125 3.5 12.980469 C 3.5 10.761719 5.300781 8.960938 7.519531 8.960938 C 8.261719 8.960938 8.957031 9.160156 9.550781 9.511719 L 9.550781 8.878906 C 8.914062 8.582031 8.1875 8.410156 7.519531 8.410156 "/>
<path style=" stroke:none;fill-rule:nonzero;fill:rgb(92.54902%,12.54902%,14.117647%);fill-opacity:1;" d="M 11.722656 15.0625 C 11.679688 14.988281 11.578125 15.027344 11.503906 14.984375 C 11.453125 14.953125 11.425781 14.847656 11.375 14.804688 C 11.335938 14.769531 11.238281 14.84375 11.191406 14.816406 C 11.121094 14.773438 11.066406 14.6875 11.011719 14.625 C 10.953125 14.558594 10.894531 14.484375 10.835938 14.417969 C 10.78125 14.355469 10.71875 14.296875 10.648438 14.253906 C 10.609375 14.230469 10.535156 14.28125 10.488281 14.269531 C 10.40625 14.246094 10.359375 14.101562 10.292969 14.042969 C 10.253906 14.007812 10.191406 14.003906 10.15625 13.972656 C 10.121094 13.9375 10.117188 13.875 10.078125 13.835938 C 10.03125 13.78125 9.957031 13.761719 9.90625 13.71875 C 9.835938 13.664062 9.78125 13.515625 9.726562 13.433594 C 9.671875 13.351562 9.589844 13.34375 9.539062 13.273438 C 9.472656 13.183594 9.433594 13.03125 9.351562 12.941406 C 9.273438 12.851562 9.070312 12.996094 9.007812 13.121094 C 8.90625 13.320312 8.914062 13.578125 9.066406 13.75 C 9.828125 14.597656 10.816406 15.304688 11.945312 15.488281 C 11.863281 15.367188 11.773438 15.15625 11.722656 15.0625 "/>
<path style=" stroke:none;fill-rule:nonzero;fill:rgb(92.54902%,12.54902%,14.117647%);fill-opacity:1;" d="M 14.503906 4.132812 C 16.574219 4.050781 20.195312 4.257812 22.089844 3.730469 C 23.773438 3.257812 24.996094 2.398438 25.707031 1.226562 C 25.816406 1.039062 25.757812 1.007812 25.578125 1.179688 C 24.429688 2.285156 23.386719 2.675781 21.898438 3.082031 C 20.164062 3.558594 17.035156 3.433594 14.503906 3.488281 C 12.023438 3.539062 9.847656 4.519531 9.195312 6.449219 L 9.734375 6.664062 C 10.464844 5.101562 12.1875 4.222656 14.503906 4.132812 "/>
<path style=" stroke:none;fill-rule:nonzero;fill:rgb(92.54902%,12.54902%,14.117647%);fill-opacity:1;" d="M 1.84375 10.566406 C 1.988281 10.6875 1.871094 10.898438 1.980469 11.042969 C 2.113281 10.125 2.8125 9.445312 3.449219 8.792969 C 5.109375 7.089844 7.6875 6.746094 9.878906 7.578125 C 9.917969 7.59375 10.082031 7.253906 10.023438 7.230469 C 8.722656 6.660156 7.484375 6.597656 6.152344 6.894531 C 5.042969 7.140625 4.109375 7.640625 3.277344 8.398438 C 2.628906 8.988281 2.101562 9.632812 1.699219 10.402344 C 1.667969 10.464844 1.613281 10.558594 1.667969 10.613281 C 1.71875 10.671875 1.78125 10.515625 1.84375 10.566406 "/>
<path style=" stroke:none;fill-rule:nonzero;fill:rgb(92.54902%,12.54902%,14.117647%);fill-opacity:1;" d="M 12.605469 15.785156 C 12.613281 15.792969 12.539062 15.816406 12.515625 15.820312 C 12.386719 15.839844 12.257812 15.839844 12.128906 15.820312 C 11.894531 15.789062 11.644531 15.707031 11.449219 15.664062 C 10.078125 17.730469 7.171875 18.464844 4.988281 17.085938 C 4.207031 16.589844 3.601562 15.953125 3.214844 15.144531 C 3 14.6875 2.878906 14.226562 2.769531 13.722656 C 2.695312 13.386719 2.753906 13.054688 2.691406 12.722656 C 2.550781 12.90625 2.636719 13.191406 2.394531 13.296875 C 2.332031 13.328125 2.25 13.316406 2.207031 13.242188 C 2.160156 13.167969 2.183594 13.046875 2.105469 13.03125 C 1.976562 13 1.976562 13.191406 1.816406 13.152344 C 1.800781 13.148438 1.777344 13.195312 1.753906 13.203125 C 1.667969 13.234375 1.601562 13.085938 1.539062 13.15625 C 1.496094 13.203125 1.46875 13.257812 1.398438 13.234375 C 1.34375 13.214844 1.300781 13.105469 1.300781 13.113281 C 1.253906 16.085938 3.628906 18.785156 6.605469 19.226562 C 7.035156 19.289062 7.460938 19.320312 7.894531 19.28125 C 8.824219 19.195312 9.679688 18.945312 10.503906 18.464844 C 11.800781 17.714844 12.703125 16.542969 13.355469 15.246094 C 12.863281 15.078125 12.371094 14.914062 11.964844 14.761719 C 12 15.179688 12.410156 15.507812 12.605469 15.785156 "/>
<path style=" stroke:none;fill-rule:nonzero;fill:rgb(92.54902%,12.54902%,14.117647%);fill-opacity:1;" d="M 14.222656 14.777344 C 14.109375 14.746094 14.007812 14.683594 13.902344 14.640625 C 13.835938 14.613281 13.773438 14.714844 13.703125 14.671875 C 13.5625 14.585938 13.441406 14.464844 13.328125 14.375 C 13.238281 14.304688 13.058594 14.125 12.980469 14.160156 C 12.949219 14.175781 12.90625 14.339844 12.832031 14.285156 C 12.65625 14.152344 12.542969 14.011719 12.375 13.867188 C 12.300781 13.800781 12.230469 14.019531 12.132812 13.972656 C 11.910156 13.863281 11.824219 13.625 11.652344 13.457031 C 11.457031 13.257812 11.265625 13.03125 10.992188 12.960938 C 10.949219 12.945312 10.972656 13.011719 10.929688 13.046875 C 10.722656 13.207031 10.496094 12.929688 10.292969 12.839844 C 10.105469 12.753906 9.945312 12.617188 9.734375 12.601562 C 9.691406 12.601562 9.691406 12.667969 9.710938 12.6875 C 10.898438 14.089844 12.546875 15.144531 14.355469 15.101562 C 14.398438 15.101562 14.484375 15.105469 14.414062 15.019531 C 14.355469 14.949219 14.292969 14.796875 14.222656 14.777344 "/>
<path style=" stroke:none;fill-rule:nonzero;fill:rgb(92.54902%,12.54902%,14.117647%);fill-opacity:1;" d="M 15.902344 13.753906 C 15.851562 13.746094 15.769531 13.820312 15.722656 13.808594 C 15.582031 13.785156 15.472656 13.65625 15.300781 13.566406 C 15.230469 13.53125 15.195312 13.699219 15.140625 13.695312 C 14.855469 13.675781 14.449219 13.378906 14.195312 13.226562 C 14.152344 13.199219 13.882812 13.253906 13.839844 13.261719 C 13.675781 13.296875 13.46875 13.011719 13.34375 12.953125 C 13.246094 12.90625 13.113281 12.859375 13.019531 12.925781 C 12.894531 13.019531 12.746094 12.96875 12.613281 12.96875 C 12.558594 12.96875 12.511719 13.078125 12.445312 13.101562 C 12.261719 13.160156 12.054688 13.03125 11.875 13.121094 C 11.867188 13.125 11.84375 13.164062 11.84375 13.175781 C 11.855469 13.289062 11.984375 13.308594 12.070312 13.359375 C 12.382812 13.550781 12.703125 13.679688 13.035156 13.816406 C 13.53125 14.015625 14.042969 14.167969 14.582031 14.214844 C 15.191406 14.269531 16.011719 14.355469 16.511719 14.207031 C 16.539062 14.199219 16.5 14.101562 16.421875 14.042969 C 16.34375 13.984375 16.230469 13.960938 16.179688 13.925781 C 16.066406 13.847656 16.007812 13.769531 15.902344 13.753906 "/>
<path style=" stroke:none;fill-rule:nonzero;fill:rgb(92.54902%,12.54902%,14.117647%);fill-opacity:1;" d="M 18.53125 12.550781 C 18.394531 12.589844 18.285156 12.488281 18.171875 12.535156 C 18.144531 12.542969 18.128906 12.585938 18.105469 12.589844 C 17.890625 12.589844 17.746094 12.359375 17.523438 12.375 C 17.46875 12.382812 17.472656 12.476562 17.425781 12.488281 C 17.289062 12.519531 17.167969 12.355469 17.046875 12.414062 C 16.960938 12.457031 16.898438 12.453125 16.8125 12.429688 C 16.707031 12.398438 16.625 12.300781 16.519531 12.285156 C 16.429688 12.269531 16.335938 12.363281 16.230469 12.332031 C 15.972656 12.257812 15.769531 12.011719 15.492188 12.066406 C 15.355469 12.097656 15.238281 12.003906 15.140625 12.0625 C 15.039062 12.121094 15.007812 12.199219 14.902344 12.261719 C 14.832031 12.304688 14.664062 12.296875 14.589844 12.34375 C 14.53125 12.378906 14.515625 12.464844 14.453125 12.492188 C 14.332031 12.542969 14.1875 12.507812 14.070312 12.570312 C 14.058594 12.582031 14.050781 12.644531 14.097656 12.65625 C 14.914062 12.882812 15.691406 13.125 16.523438 13.125 C 17.335938 13.125 18.144531 13.128906 18.945312 12.878906 C 19.007812 12.863281 19.023438 12.824219 18.96875 12.765625 C 18.855469 12.632812 18.703125 12.5 18.53125 12.550781 "/>
<path style=" stroke:none;fill-rule:nonzero;fill:rgb(92.54902%,12.54902%,14.117647%);fill-opacity:1;" d="M 20.996094 10.746094 C 20.8125 10.832031 20.601562 10.738281 20.402344 10.785156 C 20.347656 10.796875 20.386719 10.871094 20.335938 10.878906 C 20.136719 10.90625 19.933594 10.859375 19.746094 10.929688 C 19.601562 10.988281 19.429688 10.921875 19.269531 10.925781 C 19.210938 10.929688 19.207031 11.007812 19.199219 11.074219 C 19.1875 11.132812 19.105469 11.164062 19.082031 11.15625 C 18.882812 11.097656 18.691406 11.078125 18.492188 11.046875 C 17.988281 10.972656 17.492188 10.8125 17.019531 10.953125 C 16.863281 11 16.660156 11.039062 16.542969 11.160156 C 16.496094 11.207031 16.449219 11.296875 16.386719 11.320312 C 16.097656 11.425781 15.78125 11.445312 15.496094 11.546875 C 15.40625 11.578125 15.242188 11.699219 15.304688 11.71875 C 16.511719 12.023438 17.691406 12.058594 18.945312 11.820312 C 19.867188 11.652344 20.707031 11.390625 21.5 10.945312 C 21.4375 10.871094 21.132812 10.683594 20.996094 10.746094 "/>
<path style=" stroke:none;fill-rule:nonzero;fill:rgb(92.54902%,12.54902%,14.117647%);fill-opacity:1;" d="M 23.042969 8.699219 C 22.929688 8.738281 22.773438 8.628906 22.675781 8.703125 C 22.527344 8.808594 22.355469 8.792969 22.207031 8.777344 C 22.136719 8.769531 22.023438 8.742188 21.960938 8.792969 C 21.917969 8.824219 21.976562 8.875 22.015625 8.910156 C 21.636719 9.042969 21.21875 8.917969 20.863281 9.0625 C 20.835938 9.074219 20.820312 9.207031 20.753906 9.21875 C 20.425781 9.285156 20.117188 9.15625 19.789062 9.214844 C 19.707031 9.230469 19.742188 9.40625 19.65625 9.410156 C 19.363281 9.425781 19.078125 9.402344 18.785156 9.386719 C 18.4375 9.375 18.117188 9.5 17.785156 9.601562 C 17.6875 9.632812 17.660156 9.785156 17.554688 9.800781 C 17.269531 9.847656 16.980469 9.796875 16.722656 9.921875 C 16.703125 9.933594 16.703125 10.019531 16.722656 10.03125 C 17.039062 10.210938 17.40625 10.335938 17.621094 10.625 C 19.832031 10.601562 22.207031 10.3125 24.046875 8.804688 C 24.085938 8.773438 23.867188 8.726562 23.75 8.699219 C 23.636719 8.675781 23.542969 8.675781 23.402344 8.628906 C 23.277344 8.589844 23.164062 8.660156 23.042969 8.699219 "/>
<path style=" stroke:none;fill-rule:nonzero;fill:rgb(92.54902%,12.54902%,14.117647%);fill-opacity:1;" d="M 25.339844 6.621094 C 25.316406 6.609375 24.980469 6.546875 24.796875 6.59375 C 24.757812 6.601562 24.734375 6.664062 24.695312 6.671875 C 24.457031 6.710938 24.289062 6.824219 24.046875 6.832031 C 23.996094 6.832031 23.886719 6.867188 23.820312 6.902344 C 23.734375 6.941406 23.613281 6.839844 23.546875 6.914062 C 23.5 6.964844 23.578125 7.085938 23.496094 7.125 C 23.285156 7.222656 23.039062 7.042969 22.832031 7.179688 C 22.773438 7.21875 22.898438 7.351562 22.820312 7.375 C 22.519531 7.46875 22.007812 7.007812 21.8125 7.484375 C 21.78125 7.5625 21.6875 7.527344 21.632812 7.511719 C 21.574219 7.496094 21.496094 7.46875 21.460938 7.5 C 21.28125 7.648438 21.171875 7.707031 20.917969 7.632812 C 20.851562 7.613281 20.851562 7.808594 20.726562 7.777344 C 20.582031 7.742188 20.441406 7.640625 20.308594 7.699219 C 20.25 7.726562 20.292969 7.886719 20.203125 7.894531 C 19.847656 7.929688 19.476562 7.875 19.148438 8.023438 C 19.066406 8.058594 19.058594 8.207031 18.945312 8.226562 C 18.691406 8.265625 18.441406 8.238281 18.207031 8.3125 C 18.171875 8.324219 18.179688 8.4375 18.238281 8.445312 C 18.386719 8.46875 18.558594 8.445312 18.675781 8.511719 C 18.816406 8.597656 18.90625 8.835938 19.042969 8.84375 C 20.144531 8.886719 21.238281 8.722656 22.300781 8.371094 C 23.414062 8.003906 24.4375 7.496094 25.339844 6.707031 C 25.394531 6.660156 25.367188 6.636719 25.339844 6.621094 "/>
<path style=" stroke:none;fill-rule:nonzero;fill:rgb(92.54902%,12.54902%,14.117647%);fill-opacity:1;" d="M 14.726562 17.339844 C 14.453125 17.339844 14.230469 17.117188 14.230469 16.84375 C 14.230469 16.566406 14.453125 16.34375 14.726562 16.34375 C 15.003906 16.34375 15.226562 16.566406 15.226562 16.84375 C 15.226562 17.117188 15.003906 17.339844 14.726562 17.339844 M 14.726562 16.207031 C 14.378906 16.207031 14.09375 16.492188 14.09375 16.84375 C 14.09375 17.191406 14.378906 17.476562 14.726562 17.476562 C 15.078125 17.476562 15.359375 17.191406 15.359375 16.84375 C 15.359375 16.492188 15.078125 16.207031 14.726562 16.207031 Z M 14.726562 16.207031 "/>
<path style=" stroke:none;fill-rule:nonzero;fill:rgb(92.54902%,12.54902%,14.117647%);fill-opacity:1;" d="M 14.773438 16.773438 L 14.605469 16.773438 L 14.605469 16.617188 L 14.773438 16.617188 C 14.816406 16.617188 14.851562 16.652344 14.851562 16.695312 C 14.851562 16.738281 14.816406 16.773438 14.773438 16.773438 M 14.988281 16.695312 C 14.988281 16.578125 14.890625 16.480469 14.773438 16.480469 L 14.46875 16.480469 L 14.46875 17.203125 L 14.605469 17.203125 L 14.605469 16.910156 L 14.699219 16.910156 L 14.839844 17.203125 L 14.988281 17.203125 L 14.84375 16.898438 C 14.929688 16.867188 14.988281 16.789062 14.988281 16.695312 Z M 14.988281 16.695312 "/>
</g>
</svg>
