<?xml version="1.0" encoding="UTF-8"?>
<svg xmlns="http://www.w3.org/2000/svg" xmlns:xlink="http://www.w3.org/1999/xlink" width="33pt" height="25pt" viewBox="0 0 33 25" version="1.1">
<g id="surface1">
<path style=" stroke:none;fill-rule:nonzero;fill:rgb(100%,100%,100%);fill-opacity:1;" d="M 29.714844 8.617188 C 28.664062 9.542969 27.472656 10.140625 26.175781 10.574219 C 24.941406 10.988281 23.667969 11.179688 22.386719 11.128906 C 22.226562 11.121094 22.121094 10.839844 21.957031 10.742188 C 21.820312 10.660156 21.625 10.6875 21.445312 10.660156 C 21.378906 10.652344 21.371094 10.519531 21.414062 10.503906 C 21.6875 10.417969 21.976562 10.449219 22.273438 10.402344 C 22.402344 10.378906 22.414062 10.207031 22.507812 10.164062 C 22.890625 9.992188 23.320312 10.054688 23.738281 10.011719 C 23.84375 10.003906 23.789062 9.816406 23.859375 9.78125 C 24.011719 9.714844 24.175781 9.835938 24.34375 9.875 C 24.488281 9.914062 24.488281 9.683594 24.566406 9.707031 C 24.863281 9.792969 24.988281 9.722656 25.199219 9.546875 C 25.238281 9.515625 25.332031 9.546875 25.398438 9.5625 C 25.464844 9.582031 25.574219 9.621094 25.609375 9.53125 C 25.835938 8.96875 26.433594 9.511719 26.78125 9.402344 C 26.871094 9.375 26.726562 9.21875 26.796875 9.171875 C 27.035156 9.015625 27.324219 9.222656 27.570312 9.105469 C 27.664062 9.0625 27.574219 8.921875 27.625 8.863281 C 27.707031 8.773438 27.847656 8.894531 27.949219 8.84375 C 28.023438 8.808594 28.152344 8.765625 28.210938 8.761719 C 28.492188 8.753906 28.6875 8.621094 28.964844 8.574219 C 29.011719 8.570312 29.039062 8.492188 29.082031 8.484375 C 29.296875 8.429688 29.6875 8.503906 29.714844 8.515625 C 29.746094 8.535156 29.777344 8.5625 29.714844 8.617188 M 27.863281 10.960938 C 28 10.992188 28.253906 11.046875 28.210938 11.082031 C 26.070312 12.855469 23.304688 13.195312 20.730469 13.222656 C 20.480469 12.882812 20.054688 12.734375 19.683594 12.523438 C 19.664062 12.511719 19.664062 12.410156 19.683594 12.398438 C 19.988281 12.25 20.324219 12.308594 20.652344 12.257812 C 20.773438 12.238281 20.808594 12.054688 20.921875 12.019531 C 21.308594 11.902344 21.679688 11.753906 22.085938 11.769531 C 22.425781 11.785156 22.757812 11.8125 23.097656 11.796875 C 23.199219 11.792969 23.15625 11.585938 23.253906 11.566406 C 23.632812 11.496094 23.992188 11.648438 24.375 11.570312 C 24.453125 11.554688 24.472656 11.402344 24.503906 11.386719 C 24.917969 11.21875 25.40625 11.363281 25.847656 11.207031 C 25.800781 11.167969 25.734375 11.105469 25.78125 11.070312 C 25.855469 11.011719 25.984375 11.039062 26.066406 11.050781 C 26.242188 11.066406 26.441406 11.089844 26.613281 10.964844 C 26.726562 10.878906 26.910156 11.003906 27.042969 10.960938 C 27.183594 10.914062 27.316406 10.828125 27.460938 10.878906 C 27.621094 10.929688 27.730469 10.929688 27.863281 10.960938 Z M 22.273438 14.632812 C 20.8125 14.90625 19.441406 14.871094 18.035156 14.507812 C 17.960938 14.488281 18.15625 14.34375 18.257812 14.308594 C 18.59375 14.1875 18.957031 14.164062 19.296875 14.042969 C 19.367188 14.015625 19.421875 13.90625 19.476562 13.851562 C 19.613281 13.710938 19.851562 13.664062 20.03125 13.613281 C 20.582031 13.445312 21.160156 13.632812 21.746094 13.71875 C 21.976562 13.753906 22.199219 13.78125 22.429688 13.847656 C 22.457031 13.859375 22.554688 13.820312 22.566406 13.753906 C 22.578125 13.675781 22.578125 13.578125 22.648438 13.578125 C 22.835938 13.574219 23.039062 13.648438 23.207031 13.582031 C 23.421875 13.496094 23.660156 13.554688 23.890625 13.523438 C 23.949219 13.515625 23.90625 13.425781 23.964844 13.410156 C 24.199219 13.355469 24.445312 13.464844 24.65625 13.367188 C 24.816406 13.292969 25.175781 13.511719 25.242188 13.601562 C 24.324219 14.125 23.34375 14.429688 22.273438 14.632812 Z M 22.269531 15.875 C 21.339844 16.164062 20.398438 16.160156 19.453125 16.160156 C 18.484375 16.164062 17.582031 15.875 16.632812 15.613281 C 16.574219 15.597656 16.582031 15.523438 16.597656 15.511719 C 16.734375 15.4375 16.902344 15.480469 17.042969 15.417969 C 17.117188 15.386719 17.132812 15.285156 17.199219 15.242188 C 17.289062 15.191406 17.484375 15.195312 17.566406 15.144531 C 17.6875 15.074219 17.722656 14.984375 17.84375 14.910156 C 17.957031 14.84375 18.09375 14.957031 18.253906 14.921875 C 18.578125 14.851562 18.8125 15.140625 19.113281 15.230469 C 19.234375 15.265625 19.34375 15.15625 19.449219 15.175781 C 19.570312 15.195312 19.664062 15.308594 19.792969 15.34375 C 19.890625 15.375 19.960938 15.378906 20.0625 15.328125 C 20.203125 15.257812 20.34375 15.453125 20.503906 15.414062 C 20.554688 15.402344 20.554688 15.289062 20.617188 15.28125 C 20.875 15.261719 21.042969 15.535156 21.292969 15.53125 C 21.320312 15.53125 21.339844 15.480469 21.371094 15.46875 C 21.503906 15.414062 21.628906 15.535156 21.789062 15.488281 C 21.988281 15.425781 22.167969 15.582031 22.300781 15.738281 C 22.359375 15.808594 22.34375 15.851562 22.269531 15.875 Z M 19.335938 17.242188 C 19.425781 17.308594 19.472656 17.421875 19.441406 17.433594 C 18.859375 17.605469 17.902344 17.507812 17.195312 17.445312 C 16.566406 17.386719 15.972656 17.210938 15.394531 16.972656 C 15.007812 16.816406 14.632812 16.664062 14.269531 16.4375 C 14.171875 16.378906 14.023438 16.355469 14.007812 16.222656 C 14.003906 16.207031 14.035156 16.160156 14.042969 16.160156 C 14.253906 16.050781 14.492188 16.203125 14.707031 16.132812 C 14.785156 16.109375 14.839844 15.976562 14.902344 15.980469 C 15.058594 15.980469 15.230469 16.039062 15.375 15.929688 C 15.484375 15.847656 15.640625 15.90625 15.75 15.957031 C 15.898438 16.027344 16.140625 16.363281 16.328125 16.324219 C 16.378906 16.3125 16.691406 16.25 16.746094 16.28125 C 17.039062 16.460938 17.515625 16.8125 17.84375 16.832031 C 17.90625 16.835938 17.949219 16.640625 18.03125 16.683594 C 18.230469 16.789062 18.359375 16.9375 18.523438 16.96875 C 18.574219 16.976562 18.671875 16.894531 18.730469 16.902344 C 18.851562 16.921875 18.921875 17.011719 19.054688 17.105469 C 19.109375 17.144531 19.246094 17.171875 19.335938 17.242188 Z M 16.929688 18.488281 C 14.824219 18.539062 12.90625 17.296875 11.523438 15.648438 C 11.503906 15.621094 11.5 15.546875 11.554688 15.546875 C 11.796875 15.566406 11.984375 15.726562 12.199219 15.824219 C 12.4375 15.933594 12.703125 16.261719 12.945312 16.070312 C 12.996094 16.03125 12.964844 15.953125 13.019531 15.96875 C 13.335938 16.050781 13.554688 16.320312 13.785156 16.550781 C 13.984375 16.75 14.085938 17.03125 14.34375 17.160156 C 14.453125 17.210938 14.539062 16.957031 14.625 17.035156 C 14.820312 17.203125 14.953125 17.371094 15.15625 17.527344 C 15.242188 17.59375 15.292969 17.394531 15.328125 17.378906 C 15.417969 17.339844 15.628906 17.546875 15.730469 17.632812 C 15.863281 17.738281 16.007812 17.882812 16.171875 17.980469 C 16.253906 18.03125 16.324219 17.910156 16.402344 17.941406 C 16.523438 17.992188 16.640625 18.070312 16.773438 18.105469 C 16.859375 18.128906 16.933594 18.308594 16.996094 18.390625 C 17.078125 18.492188 16.980469 18.488281 16.929688 18.488281 Z M 12.449219 22.441406 C 11.488281 23.003906 10.492188 23.296875 9.410156 23.398438 C 8.902344 23.445312 8.410156 23.410156 7.910156 23.335938 C 4.445312 22.816406 1.683594 19.640625 1.734375 16.148438 C 1.734375 16.140625 1.785156 16.269531 1.851562 16.292969 C 1.929688 16.320312 1.960938 16.253906 2.011719 16.195312 C 2.085938 16.113281 2.167969 16.289062 2.261719 16.257812 C 2.292969 16.246094 2.316406 16.191406 2.335938 16.195312 C 2.523438 16.238281 2.523438 16.015625 2.671875 16.050781 C 2.761719 16.074219 2.738281 16.210938 2.789062 16.300781 C 2.84375 16.386719 2.9375 16.398438 3.011719 16.367188 C 3.289062 16.242188 3.191406 15.90625 3.355469 15.691406 C 3.429688 16.082031 3.359375 16.46875 3.445312 16.867188 C 3.574219 17.457031 3.710938 18 3.964844 18.535156 C 4.414062 19.488281 5.117188 20.238281 6.027344 20.816406 C 8.570312 22.4375 11.953125 21.578125 13.546875 19.148438 C 13.777344 19.195312 14.066406 19.292969 14.339844 19.332031 C 14.488281 19.351562 14.636719 19.351562 14.785156 19.332031 C 14.816406 19.328125 14.902344 19.300781 14.894531 19.289062 C 14.667969 18.960938 14.1875 18.578125 14.148438 18.085938 C 14.617188 18.265625 15.191406 18.457031 15.765625 18.65625 C 15.007812 20.179688 13.957031 21.558594 12.449219 22.441406 Z M 2.199219 12.960938 C 2.667969 12.058594 3.28125 11.296875 4.035156 10.605469 C 5.007812 9.714844 6.09375 9.128906 7.382812 8.835938 C 8.933594 8.488281 10.375 8.5625 11.890625 9.234375 C 11.957031 9.261719 11.765625 9.660156 11.71875 9.644531 C 9.167969 8.664062 6.167969 9.066406 4.234375 11.070312 C 3.496094 11.835938 2.683594 12.632812 2.527344 13.714844 C 2.402344 13.546875 2.539062 13.296875 2.367188 13.15625 C 2.292969 13.09375 2.226562 13.277344 2.164062 13.210938 C 2.101562 13.148438 2.164062 13.035156 2.199219 12.960938 Z M 17.101562 4.832031 C 20.046875 4.769531 23.691406 4.914062 25.710938 4.355469 C 27.441406 3.878906 28.65625 3.417969 29.992188 2.121094 C 30.199219 1.917969 30.269531 1.953125 30.140625 2.171875 C 29.316406 3.554688 27.890625 4.5625 25.929688 5.117188 C 23.726562 5.738281 19.515625 5.496094 17.101562 5.59375 C 14.40625 5.699219 12.398438 6.730469 11.554688 8.566406 L 10.925781 8.316406 C 11.6875 6.046875 14.214844 4.894531 17.101562 4.832031 Z M 10.777344 16.894531 C 10.59375 16.691406 10.589844 16.394531 10.707031 16.15625 C 10.777344 16.011719 11.015625 15.839844 11.109375 15.949219 C 11.203125 16.054688 11.246094 16.230469 11.324219 16.335938 C 11.386719 16.417969 11.480469 16.429688 11.542969 16.523438 C 11.605469 16.621094 11.667969 16.792969 11.753906 16.863281 C 11.8125 16.914062 11.898438 16.933594 11.953125 17 C 11.996094 17.046875 12.003906 17.117188 12.042969 17.160156 C 12.085938 17.195312 12.15625 17.203125 12.199219 17.242188 C 12.28125 17.3125 12.335938 17.480469 12.429688 17.507812 C 12.484375 17.519531 12.570312 17.460938 12.617188 17.488281 C 12.699219 17.539062 12.769531 17.605469 12.835938 17.679688 C 12.902344 17.761719 12.96875 17.847656 13.039062 17.925781 C 13.101562 17.996094 13.164062 18.101562 13.246094 18.148438 C 13.304688 18.183594 13.414062 18.097656 13.460938 18.136719 C 13.519531 18.183594 13.550781 18.3125 13.613281 18.351562 C 13.695312 18.402344 13.816406 18.355469 13.863281 18.441406 C 13.925781 18.550781 14.027344 18.800781 14.125 18.941406 C 12.808594 18.722656 11.660156 17.894531 10.777344 16.894531 Z M 8.972656 11.265625 C 6.390625 11.265625 4.296875 13.382812 4.296875 15.996094 C 4.296875 18.605469 6.390625 20.71875 8.972656 20.71875 C 10.53125 20.71875 11.910156 19.953125 12.757812 18.773438 L 13.386719 19 C 12.429688 20.425781 10.8125 21.367188 8.972656 21.367188 C 6.035156 21.367188 3.65625 18.960938 3.65625 15.992188 C 3.65625 13.027344 6.035156 10.621094 8.972656 10.621094 C 9.75 10.621094 10.597656 10.820312 11.339844 11.167969 L 11.339844 11.914062 C 10.644531 11.503906 9.835938 11.265625 8.972656 11.265625 Z M 10.914062 14.027344 C 10.714844 13.824219 10.488281 13.65625 10.246094 13.527344 L 11.375 12.554688 C 11.382812 13.050781 11.25 13.664062 11.042969 14.148438 Z M 8.984375 18.734375 C 9.398438 18.734375 9.800781 18.636719 10.164062 18.460938 L 10.28125 20.121094 C 9.875 20.25 9.4375 20.324219 8.984375 20.324219 C 8.902344 20.324219 8.820312 20.320312 8.742188 20.316406 L 8.496094 18.6875 C 8.65625 18.71875 8.816406 18.734375 8.984375 18.734375 Z M 8.417969 18.179688 L 8.316406 17.503906 C 8.488281 17.582031 8.679688 17.628906 8.878906 17.644531 Z M 8.246094 18.777344 L 8.476562 20.292969 C 8.039062 20.238281 7.625 20.125 7.238281 19.949219 Z M 6.792969 17.617188 C 6.871094 17.722656 6.957031 17.828125 7.050781 17.925781 C 7.347656 18.222656 7.695312 18.441406 8.078125 18.578125 L 6.996094 19.832031 C 6.578125 19.613281 6.203125 19.324219 5.878906 18.984375 Z M 6.613281 17.417969 L 5.703125 18.785156 C 5.394531 18.414062 5.144531 17.992188 4.96875 17.535156 Z M 6.285156 15.546875 C 6.265625 15.6875 6.253906 15.828125 6.253906 15.976562 C 6.253906 16.394531 6.347656 16.796875 6.519531 17.164062 L 4.878906 17.28125 C 4.753906 16.871094 4.683594 16.433594 4.683594 15.980469 C 4.683594 15.9375 4.6875 15.898438 4.6875 15.855469 Z M 6.277344 15.28125 L 4.703125 15.589844 C 4.746094 15.101562 4.867188 14.636719 5.058594 14.207031 Z M 7.441406 13.703125 C 6.96875 14.027344 6.605469 14.5 6.410156 15.054688 L 5.175781 13.964844 C 5.417969 13.5 5.738281 13.085938 6.125 12.738281 Z M 7.746094 13.519531 C 7.722656 13.53125 7.699219 13.539062 7.679688 13.554688 L 6.328125 12.566406 C 6.75 12.234375 7.230469 11.976562 7.757812 11.816406 Z M 7.351562 16.230469 C 7.355469 16.25 7.359375 16.269531 7.363281 16.289062 L 6.8125 17.113281 C 6.636719 16.765625 6.539062 16.378906 6.539062 15.976562 C 6.539062 15.832031 6.554688 15.6875 6.578125 15.546875 Z M 7.734375 14.894531 C 7.699219 14.933594 7.667969 14.976562 7.636719 15.019531 L 6.660156 15.207031 C 6.777344 14.84375 6.980469 14.507812 7.253906 14.230469 C 7.386719 14.097656 7.535156 13.980469 7.691406 13.882812 L 7.742188 13.921875 Z M 7.335938 15.871094 L 6.84375 15.4375 L 7.472656 15.316406 C 7.398438 15.488281 7.351562 15.675781 7.335938 15.871094 Z M 7.746094 17.078125 L 7.117188 17.125 L 7.460938 16.613281 C 7.527344 16.785156 7.625 16.941406 7.746094 17.078125 Z M 8.003906 17.324219 C 8.011719 17.328125 8.023438 17.332031 8.03125 17.339844 L 8.175781 18.304688 C 7.832031 18.183594 7.519531 17.988281 7.253906 17.722656 C 7.152344 17.621094 7.0625 17.507812 6.984375 17.394531 Z M 8.417969 14.414062 C 8.265625 14.472656 8.121094 14.550781 7.992188 14.648438 L 7.996094 14.105469 Z M 9.753906 14.507812 C 9.613281 14.433594 9.460938 14.375 9.296875 14.34375 L 9.699219 13.996094 Z M 9.710938 11.703125 C 10.277344 11.800781 10.804688 12.007812 11.269531 12.304688 L 9.984375 13.410156 C 9.953125 13.398438 9.921875 13.386719 9.890625 13.375 Z M 9.546875 17.546875 C 9.742188 17.472656 9.921875 17.363281 10.078125 17.226562 L 10.128906 17.925781 Z M 8.984375 16.871094 C 8.492188 16.871094 8.097656 16.472656 8.097656 15.976562 C 8.097656 15.480469 8.492188 15.082031 8.984375 15.082031 C 9.472656 15.082031 9.871094 15.480469 9.871094 15.976562 C 9.871094 16.472656 9.472656 16.871094 8.984375 16.871094 Z M 9.222656 17.644531 L 10.058594 18.191406 C 9.734375 18.351562 9.371094 18.445312 8.984375 18.445312 C 8.839844 18.445312 8.703125 18.429688 8.5625 18.40625 Z M 8.003906 13.402344 L 8.015625 11.75 C 8.328125 11.675781 8.652344 11.636719 8.984375 11.636719 C 9.140625 11.636719 9.296875 11.648438 9.449219 11.664062 L 9.625 13.296875 C 9.417969 13.246094 9.203125 13.21875 8.984375 13.21875 C 8.636719 13.21875 8.308594 13.285156 8.003906 13.402344 Z M 8.984375 13.507812 C 9.214844 13.507812 9.441406 13.539062 9.65625 13.605469 L 9.667969 13.6875 L 8.9375 14.316406 C 8.871094 14.316406 8.808594 14.324219 8.746094 14.332031 L 8 13.789062 L 8 13.714844 C 8.308594 13.578125 8.640625 13.507812 8.984375 13.507812 Z M 10.183594 14.839844 C 10.136719 14.785156 10.085938 14.738281 10.035156 14.695312 L 9.9375 13.792969 L 10.003906 13.734375 C 10.265625 13.855469 10.503906 14.019531 10.710938 14.230469 L 10.925781 14.445312 L 10.757812 14.792969 Z M 10.296875 14.996094 L 10.6875 14.984375 L 10.519531 15.367188 C 10.46875 15.21875 10.382812 15.125 10.296875 14.996094 Z M 10.390625 17.992188 L 10.316406 16.960938 C 10.457031 17.15625 10.632812 17.4375 10.800781 17.582031 C 10.660156 17.753906 10.574219 17.859375 10.390625 17.992188 Z M 11.75 19.296875 C 11.390625 19.605469 10.984375 19.855469 10.535156 20.03125 L 10.421875 18.429688 Z M 10.570312 18.21875 C 10.691406 18.128906 10.808594 18.035156 10.914062 17.925781 L 11.082031 17.769531 L 12.347656 18.675781 C 12.242188 18.804688 12.121094 18.957031 11.949219 19.121094 Z M 27.867188 6.269531 C 29.167969 5.949219 30.257812 5.261719 31.125 4.292969 C 31.1875 4.207031 31.402344 3.945312 31.445312 3.863281 C 31.488281 3.777344 31.53125 3.777344 31.496094 3.871094 C 31.464844 3.964844 31.253906 4.3125 31.199219 4.417969 C 30.660156 5.316406 29.796875 5.867188 28.917969 6.324219 C 27.632812 6.984375 26.253906 7.375 24.828125 7.453125 C 22.292969 7.597656 19.765625 7.503906 17.234375 7.511719 C 16.304688 7.515625 15.429688 7.804688 14.605469 8.332031 C 13.734375 8.890625 13.113281 9.65625 12.703125 10.570312 C 12.351562 11.347656 12.378906 12.210938 12.308594 13.070312 C 12.214844 14.210938 11.648438 15.214844 10.832031 15.675781 C 11.195312 15.011719 11.570312 14.242188 11.695312 13.460938 C 11.820312 12.671875 11.699219 12.046875 11.730469 11.351562 C 11.800781 9.75 12.808594 8.367188 14.195312 7.574219 C 15.175781 7.015625 16.203125 6.667969 17.308594 6.625 C 18.175781 6.59375 19.035156 6.667969 19.902344 6.726562 C 20.960938 6.796875 22.011719 6.792969 23.0625 6.765625 C 23.1875 6.761719 23.351562 6.765625 23.476562 6.761719 C 24.953125 6.710938 26.398438 6.632812 27.867188 6.269531 Z M 18.933594 8.113281 C 19.121094 8.042969 19.382812 8.3125 19.59375 8.125 C 19.714844 8.019531 19.953125 8.1875 20.132812 8.269531 C 20.320312 8.355469 20.449219 8.226562 20.601562 8.128906 C 20.703125 8.0625 20.859375 8.257812 21.039062 8.214844 C 21.097656 8.203125 21.082031 8.066406 21.144531 8.058594 C 21.351562 8.03125 21.535156 8.230469 21.722656 8.144531 C 21.792969 8.113281 21.867188 7.996094 21.941406 7.949219 C 22.03125 7.894531 22.15625 8.023438 22.222656 7.964844 C 22.417969 7.785156 22.613281 7.859375 22.796875 7.886719 C 22.835938 7.894531 22.871094 8.046875 22.828125 8.074219 C 22.058594 8.554688 21.296875 8.6875 20.421875 8.785156 C 19.996094 8.832031 19.15625 8.753906 18.640625 8.449219 C 18.347656 8.28125 18.777344 8.179688 18.933594 8.113281 Z M 19.300781 12.121094 C 18.492188 12.308594 17.726562 12.257812 16.9375 12.0625 C 16.773438 12.023438 16.679688 11.863281 16.546875 11.746094 C 16.519531 11.722656 16.382812 11.738281 16.378906 11.722656 C 16.324219 11.558594 16.28125 11.492188 16.152344 11.386719 C 16.132812 11.367188 16.117188 11.261719 16.179688 11.257812 C 16.382812 11.238281 16.582031 11.214844 16.78125 11.191406 C 16.882812 11.179688 16.886719 10.996094 16.976562 10.957031 C 17.183594 10.871094 17.417969 10.859375 17.648438 10.835938 C 18.242188 10.773438 18.820312 10.679688 19.414062 10.722656 C 20.011719 10.769531 20.566406 10.964844 21.140625 11.140625 C 21.214844 11.164062 21.347656 11.210938 21.28125 11.3125 C 21.203125 11.4375 21.035156 11.441406 20.90625 11.53125 C 20.730469 11.648438 20.484375 11.601562 20.328125 11.75 C 20.109375 11.964844 19.8125 11.980469 19.527344 12.015625 C 19.453125 12.027344 19.386719 12.097656 19.300781 12.121094 Z M 16.042969 14.042969 C 15.777344 13.972656 15.378906 13.886719 15.316406 13.71875 C 15.351562 13.730469 15.421875 13.628906 15.421875 13.601562 C 15.429688 13.476562 15.183594 13.449219 15.097656 13.363281 C 15.078125 13.339844 15.058594 13.234375 15.128906 13.230469 C 15.261719 13.230469 15.539062 13.34375 15.730469 13.246094 C 15.78125 13.21875 15.785156 13.144531 15.863281 13.109375 C 15.941406 13.078125 16.046875 13.121094 16.097656 13.09375 C 16.148438 13.066406 16.226562 13.058594 16.261719 13.007812 C 16.289062 12.96875 16.246094 12.863281 16.285156 12.824219 C 16.351562 12.761719 16.441406 12.792969 16.539062 12.726562 C 16.605469 12.6875 16.664062 12.582031 16.714844 12.550781 C 16.808594 12.492188 16.9375 12.488281 17.046875 12.480469 C 17.355469 12.457031 17.667969 12.472656 17.984375 12.511719 C 18.253906 12.546875 18.511719 12.570312 18.777344 12.648438 C 19.207031 12.777344 19.632812 12.871094 20.015625 13.105469 C 19.78125 13.425781 19.398438 13.441406 19.082031 13.609375 C 18.824219 13.746094 18.546875 13.757812 18.277344 13.839844 C 17.542969 14.066406 16.785156 14.230469 16.042969 14.042969 Z M 12.414062 14.980469 C 12.53125 15 12.621094 14.933594 12.714844 14.957031 C 12.839844 14.988281 12.890625 15 12.988281 15.050781 C 13.050781 15.011719 13.144531 14.996094 13.175781 14.984375 C 13.351562 14.929688 13.554688 15.039062 13.738281 15.027344 C 13.828125 15.019531 13.824219 14.828125 13.894531 14.792969 C 14.148438 14.679688 14.480469 14.847656 14.75 14.78125 C 14.78125 14.773438 14.757812 14.632812 14.875 14.542969 C 14.925781 14.507812 15.136719 14.503906 15.203125 14.476562 C 15.210938 14.449219 15.21875 14.386719 15.28125 14.351562 C 15.488281 14.25 15.773438 14.421875 16.0625 14.46875 C 16.265625 14.5 16.464844 14.574219 16.664062 14.640625 C 16.820312 14.691406 17.054688 14.839844 17.003906 14.890625 C 16.195312 15.722656 14.925781 15.824219 13.8125 15.742188 C 13.15625 15.695312 12.441406 15.6875 11.910156 15.25 C 11.789062 15.152344 11.945312 14.945312 12.085938 14.867188 C 12.1875 14.8125 12.308594 14.960938 12.414062 14.980469 Z M 13.921875 13.527344 C 14.242188 13.675781 14.578125 13.808594 14.824219 14.058594 C 14.269531 14.394531 13.65625 14.5 13.015625 14.605469 C 12.785156 14.644531 12.539062 14.683594 12.304688 14.589844 C 12.441406 14.097656 12.621094 13.625 12.796875 13.144531 C 13.191406 13.210938 13.558594 13.351562 13.921875 13.527344 Z M 14.984375 9.023438 C 15.164062 8.960938 15.394531 8.910156 15.367188 8.660156 C 15.359375 8.601562 15.453125 8.570312 15.503906 8.5625 C 15.644531 8.542969 15.777344 8.539062 15.914062 8.503906 C 16.023438 8.476562 16.070312 8.359375 16.152344 8.296875 C 16.449219 8.082031 16.816406 8.292969 17.105469 8.171875 C 17.238281 8.113281 17.371094 8.082031 17.484375 8.148438 C 17.773438 8.320312 18.199219 8.386719 18.285156 8.738281 C 17.257812 9.347656 16.035156 9.511719 14.863281 9.5 C 14.867188 9.324219 14.804688 9.089844 14.984375 9.023438 Z M 15.582031 9.902344 C 15.957031 9.984375 16.25 10.179688 16.585938 10.316406 C 16.714844 10.367188 16.996094 10.519531 16.871094 10.59375 C 15.800781 11.210938 14.5625 11.289062 13.359375 11.285156 C 13.371094 11.097656 13.460938 10.96875 13.503906 10.796875 C 13.558594 10.578125 13.894531 10.523438 13.886719 10.21875 C 13.886719 10.054688 14.210938 10.085938 14.316406 9.9375 C 14.355469 9.878906 14.398438 9.789062 14.453125 9.78125 C 14.835938 9.71875 15.195312 9.816406 15.582031 9.902344 Z M 13.070312 12.011719 C 13.148438 11.898438 13.199219 11.738281 13.265625 11.703125 C 13.753906 11.417969 14.390625 11.546875 14.9375 11.699219 C 15.414062 11.832031 15.902344 11.945312 16.25 12.316406 C 16.269531 12.335938 16.265625 12.40625 16.25 12.414062 C 15.199219 12.898438 14.046875 13.105469 12.914062 12.980469 C 12.878906 12.976562 12.921875 12.730469 12.902344 12.570312 C 12.886719 12.460938 12.992188 12.398438 13.078125 12.292969 C 13.121094 12.238281 13.011719 12.101562 13.070312 12.011719 Z M 22.347656 9.917969 C 20.800781 10.523438 19.128906 10.523438 17.496094 10.429688 C 17.429688 10.425781 17.414062 10.296875 17.367188 10.234375 C 17.308594 10.148438 17.171875 10.125 17.101562 10.074219 C 17.042969 10.027344 17.050781 9.953125 16.988281 9.902344 C 16.929688 9.855469 16.769531 9.867188 16.675781 9.824219 C 16.640625 9.808594 16.59375 9.691406 16.640625 9.664062 C 16.84375 9.546875 17.15625 9.753906 17.285156 9.585938 C 17.496094 9.304688 17.773438 9.511719 18.019531 9.417969 C 18.097656 9.386719 18.078125 9.289062 18.113281 9.246094 C 18.328125 8.984375 18.722656 8.949219 19.0625 8.941406 C 19.339844 8.933594 19.675781 8.945312 19.917969 8.976562 C 20.601562 9.082031 21.207031 9.1875 21.808594 9.484375 C 21.976562 9.566406 22.171875 9.605469 22.320312 9.753906 C 22.378906 9.816406 22.328125 9.867188 22.347656 9.917969 Z M 31.664062 4 C 31.625 4.167969 31.574219 4.324219 31.511719 4.503906 C 31.050781 5.820312 30.042969 6.664062 28.953125 7.46875 C 27.933594 8.222656 26.90625 8.695312 25.691406 8.980469 C 24.765625 9.195312 23.878906 9.386719 22.949219 9.320312 C 22.738281 9.304688 22.574219 9.164062 22.375 9.066406 C 22.289062 9.023438 22.144531 9.035156 22.058594 8.988281 C 21.960938 8.929688 22.007812 8.808594 22.125 8.785156 C 22.261719 8.761719 22.417969 8.816406 22.523438 8.757812 C 22.796875 8.601562 23.09375 8.664062 23.359375 8.578125 C 23.519531 8.527344 23.363281 8.300781 23.484375 8.265625 C 23.636719 8.214844 23.800781 8.199219 23.960938 8.15625 C 24.039062 8.132812 24.050781 7.945312 24.089844 7.933594 C 24.308594 7.871094 24.6875 7.964844 24.980469 7.960938 C 25.074219 7.957031 25.011719 7.789062 25.125 7.785156 C 25.492188 7.78125 25.457031 7.828125 25.707031 7.660156 C 25.933594 7.507812 26.480469 7.722656 26.476562 7.371094 C 26.9375 7.292969 27.433594 7.433594 27.851562 7.121094 C 27.917969 7.074219 28.042969 7.121094 28.136719 7.0625 C 28.191406 7.027344 28.1875 6.9375 28.253906 6.917969 C 28.429688 6.867188 28.613281 6.867188 28.773438 6.792969 C 28.871094 6.75 28.855469 6.582031 28.902344 6.5625 C 29.914062 6.097656 30.75 5.472656 31.335938 4.503906 C 31.449219 4.3125 31.578125 4.050781 31.609375 3.964844 C 31.640625 3.882812 31.691406 3.894531 31.664062 4 Z M 30.359375 8.140625 C 29.945312 8.109375 29.53125 8.152344 29.117188 8.121094 C 29.054688 8.113281 29.070312 8.007812 29.089844 7.992188 C 30.730469 6.675781 31.949219 4.90625 31.96875 2.8125 C 31.96875 2.785156 31.925781 2.753906 31.90625 2.78125 C 30.773438 4.289062 29.425781 5.671875 27.535156 5.90625 C 27.445312 5.917969 27.441406 5.757812 27.507812 5.714844 C 29.234375 4.578125 30.496094 3.0625 30.914062 1.027344 C 30.917969 1.003906 30.875 0.96875 30.851562 0.992188 C 29.621094 2.292969 28.140625 3.207031 26.441406 3.707031 C 23.382812 4.617188 20.257812 4.308594 17.15625 4.316406 C 15.929688 4.320312 14.691406 4.429688 13.558594 4.964844 C 12.160156 5.628906 10.957031 6.695312 10.3125 8.132812 L 10.292969 8.167969 C 9.859375 8.09375 9.410156 8.054688 8.953125 8.054688 C 4.59375 8.054688 1.0625 11.621094 1.0625 16.023438 C 1.0625 20.425781 4.59375 23.992188 8.953125 23.992188 C 12.292969 23.992188 15.148438 21.894531 16.300781 18.929688 L 16.410156 18.929688 C 16.796875 18.945312 17.226562 18.960938 17.605469 18.804688 C 17.652344 18.785156 17.785156 18.695312 17.738281 18.601562 C 17.675781 18.480469 17.484375 18.242188 17.425781 18.082031 C 17.414062 18.046875 17.40625 17.976562 17.460938 17.976562 C 18.417969 17.96875 19.445312 18.03125 20.324219 17.683594 C 20.101562 17.3125 19.59375 17.035156 19.3125 16.671875 C 19.25 16.589844 19.371094 16.542969 19.414062 16.542969 C 20.75 16.539062 21.996094 16.539062 23.175781 15.929688 C 23.21875 15.910156 23.21875 15.859375 23.195312 15.832031 C 22.933594 15.558594 22.613281 15.296875 22.308594 15.082031 C 23.800781 14.78125 25.4375 14.027344 25.910156 13.601562 C 25.957031 13.554688 25.925781 13.511719 25.898438 13.484375 C 25.773438 13.332031 25.441406 13.105469 25.378906 13.042969 C 25.359375 13.023438 25.363281 12.949219 25.375 12.945312 C 26.699219 12.433594 28.007812 11.847656 28.960938 10.707031 C 29.003906 10.65625 28.945312 10.582031 28.890625 10.574219 C 28.507812 10.5 28.140625 10.480469 27.765625 10.488281 C 27.765625 10.4375 27.75 10.363281 27.769531 10.347656 C 28.761719 9.765625 29.640625 9.15625 30.386719 8.273438 C 30.410156 8.246094 30.421875 8.148438 30.359375 8.140625 Z M 30.359375 8.140625 "/>
<path style=" stroke:none;fill-rule:nonzero;fill:rgb(92.54902%,12.54902%,14.117647%);fill-opacity:1;" d="M 30.386719 8.273438 C 29.640625 9.15625 28.761719 9.765625 27.769531 10.347656 C 27.75 10.359375 27.765625 10.433594 27.765625 10.484375 C 28.140625 10.480469 28.507812 10.5 28.890625 10.574219 C 28.941406 10.582031 29.003906 10.652344 28.960938 10.707031 C 28.007812 11.847656 26.699219 12.433594 25.375 12.945312 C 25.363281 12.949219 25.359375 13.019531 25.378906 13.042969 C 25.441406 13.105469 25.773438 13.332031 25.898438 13.484375 C 25.925781 13.511719 25.957031 13.554688 25.910156 13.601562 C 25.4375 14.027344 23.800781 14.78125 22.308594 15.082031 C 22.613281 15.296875 22.933594 15.558594 23.195312 15.832031 C 23.21875 15.859375 23.21875 15.90625 23.175781 15.929688 C 21.996094 16.535156 20.75 16.539062 19.414062 16.542969 C 19.371094 16.542969 19.25 16.589844 19.3125 16.671875 C 19.59375 17.035156 20.101562 17.308594 20.324219 17.683594 C 19.445312 18.03125 18.417969 17.96875 17.460938 17.976562 C 17.40625 17.976562 17.414062 18.046875 17.425781 18.082031 C 17.484375 18.242188 17.675781 18.480469 17.734375 18.597656 C 17.785156 18.695312 17.652344 18.785156 17.605469 18.804688 C 17.222656 18.957031 16.796875 18.945312 16.410156 18.929688 L 16.300781 18.929688 C 15.148438 21.894531 12.292969 23.992188 8.953125 23.992188 C 4.59375 23.992188 1.0625 20.425781 1.0625 16.023438 C 1.0625 11.621094 4.59375 8.054688 8.953125 8.054688 C 9.410156 8.054688 9.855469 8.09375 10.292969 8.167969 L 10.3125 8.132812 C 10.957031 6.695312 12.160156 5.625 13.558594 4.964844 C 14.691406 4.429688 15.929688 4.320312 17.15625 4.316406 C 20.257812 4.308594 23.382812 4.617188 26.441406 3.707031 C 28.140625 3.207031 29.621094 2.292969 30.851562 0.992188 C 30.875 0.96875 30.917969 1.003906 30.914062 1.023438 C 30.492188 3.0625 29.234375 4.578125 27.507812 5.714844 C 27.441406 5.757812 27.445312 5.917969 27.535156 5.90625 C 29.425781 5.671875 30.773438 4.289062 31.90625 2.777344 C 31.925781 2.753906 31.96875 2.785156 31.96875 2.8125 C 31.949219 4.90625 30.726562 6.675781 29.089844 7.992188 C 29.070312 8.007812 29.050781 8.113281 29.117188 8.121094 C 29.53125 8.152344 29.945312 8.109375 30.359375 8.140625 C 30.421875 8.148438 30.410156 8.246094 30.386719 8.273438 M 30.378906 7.890625 C 30.160156 7.875 29.945312 7.878906 29.734375 7.878906 C 29.691406 7.882812 29.652344 7.882812 29.609375 7.882812 C 30.863281 6.777344 32.195312 5.078125 32.21875 2.8125 C 32.21875 2.691406 32.136719 2.574219 32.015625 2.535156 C 31.902344 2.496094 31.78125 2.53125 31.707031 2.628906 C 30.824219 3.804688 29.734375 5.03125 28.25 5.492188 C 29.824219 4.292969 30.800781 2.808594 31.160156 1.074219 C 31.183594 0.953125 31.121094 0.828125 31.007812 0.765625 C 30.894531 0.707031 30.761719 0.726562 30.675781 0.820312 C 29.46875 2.085938 28.023438 2.980469 26.371094 3.46875 C 23.980469 4.175781 21.496094 4.128906 19.089844 4.085938 C 18.457031 4.074219 17.800781 4.0625 17.15625 4.066406 C 16.019531 4.070312 14.691406 4.152344 13.453125 4.738281 C 11.957031 5.445312 10.792969 6.5625 10.152344 7.894531 C 9.753906 7.835938 9.355469 7.804688 8.953125 7.804688 C 4.464844 7.804688 0.8125 11.492188 0.8125 16.023438 C 0.8125 20.554688 4.464844 24.246094 8.953125 24.246094 C 10.621094 24.246094 12.222656 23.738281 13.589844 22.777344 C 14.878906 21.875 15.867188 20.636719 16.464844 19.183594 C 16.839844 19.195312 17.285156 19.203125 17.699219 19.035156 C 17.722656 19.027344 17.90625 18.945312 17.972656 18.765625 C 18.007812 18.671875 18 18.570312 17.957031 18.484375 C 17.925781 18.425781 17.882812 18.359375 17.832031 18.28125 C 17.820312 18.265625 17.808594 18.246094 17.792969 18.230469 C 17.84375 18.230469 17.878906 18.230469 17.878906 18.230469 C 18.734375 18.230469 19.621094 18.234375 20.417969 17.914062 C 20.484375 17.886719 20.535156 17.832031 20.5625 17.761719 C 20.585938 17.691406 20.578125 17.613281 20.539062 17.550781 C 20.394531 17.3125 20.167969 17.125 19.949219 16.9375 C 19.890625 16.890625 19.832031 16.839844 19.777344 16.792969 C 21.003906 16.785156 22.167969 16.730469 23.289062 16.15625 C 23.378906 16.109375 23.4375 16.027344 23.457031 15.925781 C 23.472656 15.828125 23.441406 15.730469 23.375 15.660156 C 23.234375 15.511719 23.070312 15.359375 22.882812 15.207031 C 24.226562 14.855469 25.609375 14.210938 26.074219 13.789062 C 26.1875 13.683594 26.238281 13.5 26.089844 13.320312 C 26.019531 13.234375 25.90625 13.136719 25.792969 13.050781 C 27.003906 12.566406 28.230469 11.972656 29.148438 10.867188 C 29.222656 10.78125 29.242188 10.667969 29.203125 10.558594 C 29.164062 10.441406 29.058594 10.351562 28.9375 10.324219 C 28.765625 10.292969 28.59375 10.269531 28.410156 10.253906 C 29.152344 9.785156 29.910156 9.226562 30.574219 8.4375 C 30.652344 8.34375 30.675781 8.191406 30.628906 8.074219 C 30.585938 7.972656 30.492188 7.902344 30.378906 7.890625 Z M 30.378906 7.890625 "/>
<path style=" stroke:none;fill-rule:nonzero;fill:rgb(92.54902%,12.54902%,14.117647%);fill-opacity:1;" d="M 28.902344 6.5625 C 28.855469 6.582031 28.871094 6.75 28.773438 6.792969 C 28.613281 6.867188 28.429688 6.867188 28.253906 6.917969 C 28.1875 6.9375 28.191406 7.027344 28.136719 7.0625 C 28.042969 7.121094 27.917969 7.074219 27.851562 7.121094 C 27.433594 7.433594 26.9375 7.292969 26.476562 7.371094 C 26.480469 7.722656 25.933594 7.507812 25.707031 7.660156 C 25.457031 7.828125 25.492188 7.78125 25.125 7.785156 C 25.011719 7.789062 25.074219 7.957031 24.980469 7.960938 C 24.6875 7.964844 24.308594 7.871094 24.089844 7.933594 C 24.050781 7.945312 24.039062 8.132812 23.960938 8.15625 C 23.800781 8.199219 23.636719 8.214844 23.484375 8.265625 C 23.363281 8.300781 23.519531 8.527344 23.359375 8.578125 C 23.09375 8.664062 22.796875 8.601562 22.523438 8.757812 C 22.417969 8.816406 22.261719 8.761719 22.125 8.785156 C 22.007812 8.808594 21.960938 8.929688 22.058594 8.988281 C 22.144531 9.035156 22.289062 9.023438 22.375 9.066406 C 22.574219 9.164062 22.738281 9.304688 22.949219 9.320312 C 23.878906 9.386719 24.765625 9.195312 25.691406 8.980469 C 26.90625 8.695312 27.933594 8.222656 28.953125 7.46875 C 30.042969 6.664062 31.050781 5.820312 31.511719 4.503906 C 31.574219 4.324219 31.625 4.167969 31.664062 4 C 31.691406 3.894531 31.640625 3.882812 31.609375 3.964844 C 31.578125 4.050781 31.449219 4.3125 31.335938 4.503906 C 30.75 5.472656 29.914062 6.097656 28.902344 6.5625 "/>
<path style=" stroke:none;fill-rule:nonzero;fill:rgb(92.54902%,12.54902%,14.117647%);fill-opacity:1;" d="M 22.320312 9.753906 C 22.171875 9.605469 21.976562 9.566406 21.808594 9.484375 C 21.207031 9.191406 20.601562 9.082031 19.917969 8.976562 C 19.675781 8.945312 19.339844 8.933594 19.0625 8.941406 C 18.722656 8.949219 18.328125 8.984375 18.113281 9.246094 C 18.078125 9.289062 18.097656 9.386719 18.019531 9.417969 C 17.773438 9.511719 17.496094 9.304688 17.285156 9.585938 C 17.15625 9.753906 16.84375 9.546875 16.640625 9.664062 C 16.59375 9.691406 16.640625 9.808594 16.675781 9.824219 C 16.769531 9.867188 16.929688 9.855469 16.988281 9.902344 C 17.050781 9.953125 17.042969 10.027344 17.101562 10.074219 C 17.171875 10.125 17.308594 10.148438 17.367188 10.234375 C 17.414062 10.296875 17.429688 10.425781 17.496094 10.429688 C 19.128906 10.523438 20.800781 10.523438 22.347656 9.917969 C 22.328125 9.867188 22.378906 9.816406 22.320312 9.753906 "/>
<path style=" stroke:none;fill-rule:nonzero;fill:rgb(92.54902%,12.54902%,14.117647%);fill-opacity:1;" d="M 12.902344 12.570312 C 12.921875 12.730469 12.878906 12.976562 12.914062 12.980469 C 14.046875 13.105469 15.199219 12.898438 16.25 12.414062 C 16.265625 12.40625 16.269531 12.335938 16.25 12.316406 C 15.902344 11.945312 15.414062 11.832031 14.9375 11.699219 C 14.390625 11.546875 13.753906 11.417969 13.265625 11.703125 C 13.199219 11.738281 13.148438 11.898438 13.070312 12.011719 C 13.011719 12.101562 13.121094 12.238281 13.078125 12.292969 C 12.992188 12.398438 12.886719 12.460938 12.902344 12.570312 "/>
<path style=" stroke:none;fill-rule:nonzero;fill:rgb(92.54902%,12.54902%,14.117647%);fill-opacity:1;" d="M 18.285156 8.738281 C 18.199219 8.386719 17.773438 8.320312 17.484375 8.148438 C 17.371094 8.082031 17.238281 8.113281 17.105469 8.171875 C 16.816406 8.292969 16.449219 8.082031 16.152344 8.296875 C 16.070312 8.359375 16.023438 8.476562 15.914062 8.503906 C 15.777344 8.539062 15.644531 8.542969 15.503906 8.5625 C 15.453125 8.570312 15.359375 8.601562 15.367188 8.660156 C 15.394531 8.910156 15.164062 8.960938 14.984375 9.023438 C 14.804688 9.089844 14.867188 9.324219 14.863281 9.5 C 16.035156 9.511719 17.257812 9.347656 18.285156 8.738281 "/>
<path style=" stroke:none;fill-rule:nonzero;fill:rgb(92.54902%,12.54902%,14.117647%);fill-opacity:1;" d="M 14.453125 9.78125 C 14.398438 9.789062 14.355469 9.878906 14.316406 9.9375 C 14.210938 10.085938 13.886719 10.054688 13.886719 10.21875 C 13.894531 10.523438 13.558594 10.578125 13.503906 10.796875 C 13.464844 10.96875 13.371094 11.101562 13.359375 11.285156 C 14.5625 11.289062 15.800781 11.210938 16.871094 10.59375 C 16.996094 10.519531 16.71875 10.367188 16.585938 10.316406 C 16.25 10.179688 15.957031 9.984375 15.582031 9.902344 C 15.195312 9.816406 14.835938 9.71875 14.453125 9.78125 "/>
<path style=" stroke:none;fill-rule:nonzero;fill:rgb(92.54902%,12.54902%,14.117647%);fill-opacity:1;" d="M 12.304688 14.589844 C 12.539062 14.683594 12.785156 14.644531 13.015625 14.605469 C 13.65625 14.5 14.269531 14.394531 14.824219 14.058594 C 14.578125 13.808594 14.242188 13.679688 13.921875 13.527344 C 13.558594 13.351562 13.191406 13.210938 12.796875 13.144531 C 12.621094 13.625 12.441406 14.097656 12.304688 14.589844 "/>
<path style=" stroke:none;fill-rule:nonzero;fill:rgb(92.54902%,12.54902%,14.117647%);fill-opacity:1;" d="M 12.085938 14.867188 C 11.945312 14.945312 11.789062 15.152344 11.910156 15.25 C 12.441406 15.6875 13.15625 15.695312 13.8125 15.742188 C 14.925781 15.824219 16.195312 15.722656 17.003906 14.890625 C 17.054688 14.839844 16.820312 14.691406 16.664062 14.640625 C 16.460938 14.574219 16.265625 14.5 16.0625 14.46875 C 15.773438 14.421875 15.488281 14.25 15.28125 14.351562 C 15.21875 14.386719 15.210938 14.449219 15.203125 14.476562 C 15.136719 14.503906 14.925781 14.507812 14.875 14.542969 C 14.757812 14.632812 14.78125 14.773438 14.75 14.78125 C 14.480469 14.847656 14.148438 14.679688 13.894531 14.792969 C 13.824219 14.828125 13.828125 15.019531 13.738281 15.027344 C 13.554688 15.039062 13.351562 14.929688 13.175781 14.984375 C 13.144531 14.996094 13.050781 15.011719 12.988281 15.050781 C 12.890625 15 12.839844 14.988281 12.714844 14.957031 C 12.621094 14.933594 12.53125 15 12.414062 14.980469 C 12.308594 14.960938 12.1875 14.8125 12.085938 14.867188 "/>
<path style=" stroke:none;fill-rule:nonzero;fill:rgb(92.54902%,12.54902%,14.117647%);fill-opacity:1;" d="M 19.082031 13.609375 C 19.398438 13.445312 19.78125 13.425781 20.015625 13.109375 C 19.632812 12.871094 19.207031 12.777344 18.777344 12.648438 C 18.511719 12.570312 18.253906 12.546875 17.984375 12.511719 C 17.667969 12.472656 17.355469 12.457031 17.046875 12.480469 C 16.9375 12.488281 16.808594 12.496094 16.714844 12.550781 C 16.664062 12.582031 16.605469 12.6875 16.539062 12.726562 C 16.441406 12.792969 16.351562 12.761719 16.285156 12.824219 C 16.246094 12.863281 16.289062 12.96875 16.261719 13.007812 C 16.226562 13.058594 16.148438 13.066406 16.097656 13.09375 C 16.046875 13.121094 15.941406 13.078125 15.863281 13.109375 C 15.785156 13.144531 15.78125 13.21875 15.730469 13.246094 C 15.539062 13.34375 15.261719 13.230469 15.128906 13.230469 C 15.058594 13.234375 15.078125 13.34375 15.097656 13.363281 C 15.183594 13.449219 15.433594 13.476562 15.421875 13.601562 C 15.421875 13.628906 15.351562 13.730469 15.316406 13.71875 C 15.378906 13.886719 15.777344 13.972656 16.046875 14.042969 C 16.785156 14.230469 17.542969 14.066406 18.277344 13.839844 C 18.546875 13.757812 18.824219 13.746094 19.082031 13.609375 "/>
<path style=" stroke:none;fill-rule:nonzero;fill:rgb(92.54902%,12.54902%,14.117647%);fill-opacity:1;" d="M 20.90625 11.53125 C 21.035156 11.441406 21.203125 11.4375 21.28125 11.3125 C 21.347656 11.210938 21.214844 11.164062 21.140625 11.140625 C 20.566406 10.964844 20.011719 10.769531 19.414062 10.722656 C 18.820312 10.679688 18.242188 10.773438 17.648438 10.835938 C 17.417969 10.859375 17.183594 10.871094 16.976562 10.957031 C 16.886719 10.996094 16.882812 11.179688 16.78125 11.191406 C 16.582031 11.214844 16.382812 11.238281 16.179688 11.257812 C 16.113281 11.261719 16.132812 11.367188 16.152344 11.386719 C 16.28125 11.492188 16.324219 11.558594 16.378906 11.722656 C 16.382812 11.738281 16.519531 11.722656 16.546875 11.746094 C 16.679688 11.863281 16.773438 12.023438 16.9375 12.0625 C 17.726562 12.257812 18.492188 12.308594 19.300781 12.121094 C 19.386719 12.097656 19.449219 12.027344 19.527344 12.015625 C 19.8125 11.980469 20.109375 11.964844 20.328125 11.75 C 20.484375 11.601562 20.730469 11.648438 20.90625 11.53125 "/>
<path style=" stroke:none;fill-rule:nonzero;fill:rgb(92.54902%,12.54902%,14.117647%);fill-opacity:1;" d="M 20.421875 8.785156 C 21.296875 8.6875 22.058594 8.554688 22.828125 8.074219 C 22.871094 8.046875 22.835938 7.894531 22.796875 7.886719 C 22.613281 7.859375 22.417969 7.785156 22.222656 7.964844 C 22.15625 8.023438 22.03125 7.894531 21.941406 7.949219 C 21.867188 7.996094 21.792969 8.113281 21.722656 8.144531 C 21.535156 8.230469 21.351562 8.03125 21.144531 8.058594 C 21.082031 8.066406 21.097656 8.203125 21.039062 8.214844 C 20.859375 8.257812 20.703125 8.0625 20.601562 8.128906 C 20.449219 8.226562 20.320312 8.355469 20.132812 8.269531 C 19.953125 8.191406 19.714844 8.019531 19.59375 8.125 C 19.382812 8.3125 19.121094 8.042969 18.933594 8.113281 C 18.777344 8.179688 18.347656 8.28125 18.640625 8.449219 C 19.15625 8.753906 19.996094 8.832031 20.421875 8.785156 "/>
<path style=" stroke:none;fill-rule:nonzero;fill:rgb(92.54902%,12.54902%,14.117647%);fill-opacity:1;" d="M 23.0625 6.765625 C 22.011719 6.792969 20.960938 6.796875 19.902344 6.726562 C 19.035156 6.667969 18.175781 6.59375 17.308594 6.625 C 16.203125 6.667969 15.175781 7.015625 14.195312 7.574219 C 12.808594 8.367188 11.800781 9.75 11.730469 11.351562 C 11.699219 12.046875 11.820312 12.671875 11.695312 13.460938 C 11.570312 14.242188 11.191406 15.011719 10.832031 15.675781 C 11.648438 15.214844 12.210938 14.210938 12.304688 13.070312 C 12.378906 12.210938 12.351562 11.347656 12.703125 10.570312 C 13.113281 9.65625 13.734375 8.890625 14.605469 8.332031 C 15.429688 7.804688 16.304688 7.515625 17.230469 7.511719 C 19.765625 7.503906 22.292969 7.597656 24.828125 7.453125 C 26.253906 7.375 27.632812 6.984375 28.917969 6.320312 C 29.796875 5.867188 30.660156 5.316406 31.199219 4.417969 C 31.253906 4.3125 31.464844 3.964844 31.496094 3.871094 C 31.53125 3.777344 31.488281 3.777344 31.445312 3.863281 C 31.402344 3.945312 31.1875 4.207031 31.125 4.292969 C 30.253906 5.261719 29.167969 5.949219 27.867188 6.269531 C 26.398438 6.632812 24.953125 6.710938 23.476562 6.761719 C 23.351562 6.765625 23.1875 6.761719 23.0625 6.765625 "/>
<path style=" stroke:none;fill-rule:nonzero;fill:rgb(92.54902%,12.54902%,14.117647%);fill-opacity:1;" d="M 12.347656 18.675781 L 11.082031 17.769531 L 10.914062 17.925781 C 10.808594 18.035156 10.691406 18.128906 10.570312 18.21875 L 11.949219 19.121094 C 12.121094 18.957031 12.242188 18.804688 12.347656 18.675781 "/>
<path style=" stroke:none;fill-rule:nonzero;fill:rgb(92.54902%,12.54902%,14.117647%);fill-opacity:1;" d="M 10.535156 20.03125 C 10.984375 19.855469 11.390625 19.605469 11.75 19.296875 L 10.421875 18.429688 L 10.535156 20.03125 "/>
<path style=" stroke:none;fill-rule:nonzero;fill:rgb(92.54902%,12.54902%,14.117647%);fill-opacity:1;" d="M 10.316406 16.960938 L 10.390625 17.992188 C 10.574219 17.859375 10.660156 17.753906 10.800781 17.582031 C 10.632812 17.4375 10.457031 17.15625 10.316406 16.960938 "/>
<path style=" stroke:none;fill-rule:nonzero;fill:rgb(92.54902%,12.54902%,14.117647%);fill-opacity:1;" d="M 10.296875 14.996094 C 10.382812 15.125 10.46875 15.21875 10.519531 15.367188 L 10.6875 14.984375 L 10.296875 14.996094 "/>
<path style=" stroke:none;fill-rule:nonzero;fill:rgb(92.54902%,12.54902%,14.117647%);fill-opacity:1;" d="M 10.925781 14.445312 L 10.710938 14.230469 C 10.503906 14.019531 10.265625 13.855469 10.003906 13.734375 L 9.9375 13.792969 L 10.035156 14.695312 C 10.085938 14.738281 10.136719 14.785156 10.183594 14.839844 L 10.757812 14.792969 L 10.925781 14.445312 "/>
<path style=" stroke:none;fill-rule:nonzero;fill:rgb(92.54902%,12.54902%,14.117647%);fill-opacity:1;" d="M 8 13.789062 L 8.746094 14.332031 C 8.808594 14.324219 8.871094 14.316406 8.9375 14.316406 L 9.667969 13.6875 L 9.65625 13.605469 C 9.441406 13.539062 9.214844 13.507812 8.984375 13.507812 C 8.640625 13.507812 8.308594 13.578125 8 13.714844 L 8 13.789062 "/>
<path style=" stroke:none;fill-rule:nonzero;fill:rgb(92.54902%,12.54902%,14.117647%);fill-opacity:1;" d="M 9.625 13.296875 L 9.449219 11.664062 C 9.296875 11.648438 9.140625 11.636719 8.984375 11.636719 C 8.652344 11.636719 8.328125 11.675781 8.015625 11.75 L 8.003906 13.402344 C 8.308594 13.285156 8.636719 13.21875 8.984375 13.21875 C 9.203125 13.21875 9.417969 13.246094 9.625 13.296875 "/>
<path style=" stroke:none;fill-rule:nonzero;fill:rgb(92.54902%,12.54902%,14.117647%);fill-opacity:1;" d="M 8.984375 18.445312 C 9.371094 18.445312 9.734375 18.351562 10.058594 18.191406 L 9.222656 17.644531 L 8.5625 18.40625 C 8.703125 18.429688 8.839844 18.445312 8.984375 18.445312 "/>
<path style=" stroke:none;fill-rule:nonzero;fill:rgb(92.54902%,12.54902%,14.117647%);fill-opacity:1;" d="M 9.871094 15.976562 C 9.871094 15.480469 9.472656 15.078125 8.984375 15.078125 C 8.492188 15.078125 8.097656 15.480469 8.097656 15.976562 C 8.097656 16.472656 8.492188 16.871094 8.984375 16.871094 C 9.472656 16.871094 9.871094 16.472656 9.871094 15.976562 "/>
<path style=" stroke:none;fill-rule:nonzero;fill:rgb(92.54902%,12.54902%,14.117647%);fill-opacity:1;" d="M 10.078125 17.226562 C 9.921875 17.363281 9.742188 17.472656 9.546875 17.546875 L 10.128906 17.925781 L 10.078125 17.226562 "/>
<path style=" stroke:none;fill-rule:nonzero;fill:rgb(92.54902%,12.54902%,14.117647%);fill-opacity:1;" d="M 11.269531 12.304688 C 10.804688 12.007812 10.277344 11.800781 9.710938 11.703125 L 9.890625 13.375 C 9.921875 13.386719 9.953125 13.398438 9.984375 13.410156 L 11.269531 12.304688 "/>
<path style=" stroke:none;fill-rule:nonzero;fill:rgb(92.54902%,12.54902%,14.117647%);fill-opacity:1;" d="M 9.296875 14.34375 C 9.460938 14.375 9.613281 14.433594 9.753906 14.507812 L 9.699219 13.996094 L 9.296875 14.34375 "/>
<path style=" stroke:none;fill-rule:nonzero;fill:rgb(92.54902%,12.54902%,14.117647%);fill-opacity:1;" d="M 7.992188 14.648438 C 8.121094 14.550781 8.265625 14.472656 8.417969 14.414062 L 8 14.105469 L 7.992188 14.648438 "/>
<path style=" stroke:none;fill-rule:nonzero;fill:rgb(92.54902%,12.54902%,14.117647%);fill-opacity:1;" d="M 7.253906 17.722656 C 7.519531 17.988281 7.832031 18.183594 8.175781 18.304688 L 8.03125 17.339844 C 8.023438 17.332031 8.011719 17.328125 8.003906 17.324219 L 6.984375 17.394531 C 7.0625 17.507812 7.15625 17.621094 7.253906 17.722656 "/>
<path style=" stroke:none;fill-rule:nonzero;fill:rgb(92.54902%,12.54902%,14.117647%);fill-opacity:1;" d="M 7.746094 17.078125 C 7.625 16.941406 7.527344 16.785156 7.460938 16.613281 L 7.117188 17.125 L 7.746094 17.078125 "/>
<path style=" stroke:none;fill-rule:nonzero;fill:rgb(92.54902%,12.54902%,14.117647%);fill-opacity:1;" d="M 7.335938 15.871094 C 7.351562 15.675781 7.398438 15.488281 7.472656 15.316406 L 6.84375 15.4375 L 7.335938 15.871094 "/>
<path style=" stroke:none;fill-rule:nonzero;fill:rgb(92.54902%,12.54902%,14.117647%);fill-opacity:1;" d="M 7.253906 14.230469 C 6.980469 14.507812 6.777344 14.84375 6.660156 15.207031 L 7.636719 15.019531 C 7.667969 14.976562 7.699219 14.933594 7.734375 14.894531 L 7.742188 13.921875 L 7.691406 13.882812 C 7.535156 13.980469 7.386719 14.097656 7.253906 14.230469 "/>
<path style=" stroke:none;fill-rule:nonzero;fill:rgb(92.54902%,12.54902%,14.117647%);fill-opacity:1;" d="M 6.539062 15.976562 C 6.539062 16.378906 6.636719 16.765625 6.8125 17.113281 L 7.363281 16.289062 C 7.359375 16.269531 7.355469 16.25 7.351562 16.230469 L 6.578125 15.546875 C 6.554688 15.6875 6.539062 15.832031 6.539062 15.976562 "/>
<path style=" stroke:none;fill-rule:nonzero;fill:rgb(92.54902%,12.54902%,14.117647%);fill-opacity:1;" d="M 7.679688 13.554688 C 7.699219 13.539062 7.722656 13.53125 7.746094 13.519531 L 7.757812 11.816406 C 7.230469 11.976562 6.75 12.234375 6.328125 12.566406 L 7.679688 13.554688 "/>
<path style=" stroke:none;fill-rule:nonzero;fill:rgb(92.54902%,12.54902%,14.117647%);fill-opacity:1;" d="M 5.175781 13.964844 L 6.410156 15.054688 C 6.605469 14.5 6.96875 14.027344 7.441406 13.703125 L 6.125 12.738281 C 5.738281 13.085938 5.417969 13.5 5.175781 13.964844 "/>
<path style=" stroke:none;fill-rule:nonzero;fill:rgb(92.54902%,12.54902%,14.117647%);fill-opacity:1;" d="M 4.703125 15.589844 L 6.277344 15.28125 L 5.058594 14.207031 C 4.867188 14.636719 4.746094 15.101562 4.703125 15.589844 "/>
<path style=" stroke:none;fill-rule:nonzero;fill:rgb(92.54902%,12.54902%,14.117647%);fill-opacity:1;" d="M 4.683594 15.980469 C 4.683594 16.433594 4.753906 16.871094 4.878906 17.28125 L 6.519531 17.164062 C 6.347656 16.796875 6.253906 16.394531 6.253906 15.976562 C 6.253906 15.828125 6.265625 15.6875 6.285156 15.546875 L 4.6875 15.855469 C 4.6875 15.898438 4.683594 15.9375 4.683594 15.980469 "/>
<path style=" stroke:none;fill-rule:nonzero;fill:rgb(92.54902%,12.54902%,14.117647%);fill-opacity:1;" d="M 6.613281 17.417969 L 4.96875 17.535156 C 5.144531 17.992188 5.394531 18.414062 5.703125 18.785156 L 6.613281 17.417969 "/>
<path style=" stroke:none;fill-rule:nonzero;fill:rgb(92.54902%,12.54902%,14.117647%);fill-opacity:1;" d="M 8.078125 18.578125 C 7.695312 18.441406 7.347656 18.222656 7.050781 17.925781 C 6.957031 17.828125 6.871094 17.722656 6.792969 17.617188 L 5.878906 18.984375 C 6.203125 19.324219 6.578125 19.613281 6.996094 19.832031 L 8.078125 18.578125 "/>
<path style=" stroke:none;fill-rule:nonzero;fill:rgb(92.54902%,12.54902%,14.117647%);fill-opacity:1;" d="M 8.246094 18.777344 L 7.238281 19.949219 C 7.625 20.125 8.039062 20.238281 8.476562 20.292969 L 8.246094 18.777344 "/>
<path style=" stroke:none;fill-rule:nonzero;fill:rgb(92.54902%,12.54902%,14.117647%);fill-opacity:1;" d="M 8.316406 17.503906 L 8.417969 18.179688 L 8.878906 17.644531 C 8.679688 17.632812 8.488281 17.582031 8.316406 17.503906 "/>
<path style=" stroke:none;fill-rule:nonzero;fill:rgb(92.54902%,12.54902%,14.117647%);fill-opacity:1;" d="M 8.984375 20.324219 C 9.4375 20.324219 9.875 20.25 10.28125 20.121094 L 10.164062 18.460938 C 9.800781 18.636719 9.398438 18.734375 8.984375 18.734375 C 8.816406 18.734375 8.65625 18.71875 8.496094 18.6875 L 8.742188 20.316406 C 8.820312 20.320312 8.902344 20.324219 8.984375 20.324219 "/>
<path style=" stroke:none;fill-rule:nonzero;fill:rgb(92.54902%,12.54902%,14.117647%);fill-opacity:1;" d="M 11.375 12.554688 L 10.246094 13.527344 C 10.488281 13.65625 10.714844 13.824219 10.914062 14.027344 L 11.042969 14.148438 C 11.25 13.664062 11.382812 13.050781 11.375 12.554688 "/>
<path style=" stroke:none;fill-rule:nonzero;fill:rgb(92.54902%,12.54902%,14.117647%);fill-opacity:1;" d="M 8.972656 10.621094 C 6.035156 10.621094 3.65625 13.027344 3.65625 15.996094 C 3.65625 18.960938 6.035156 21.367188 8.972656 21.367188 C 10.8125 21.367188 12.429688 20.425781 13.386719 19 L 12.757812 18.773438 C 11.910156 19.953125 10.53125 20.71875 8.972656 20.71875 C 6.390625 20.71875 4.296875 18.605469 4.296875 15.996094 C 4.296875 13.382812 6.390625 11.265625 8.972656 11.265625 C 9.835938 11.265625 10.644531 11.503906 11.339844 11.914062 L 11.339844 11.167969 C 10.597656 10.820312 9.75 10.621094 8.972656 10.621094 "/>
<path style=" stroke:none;fill-rule:nonzero;fill:rgb(92.54902%,12.54902%,14.117647%);fill-opacity:1;" d="M 13.863281 18.441406 C 13.816406 18.355469 13.695312 18.402344 13.613281 18.351562 C 13.550781 18.3125 13.523438 18.183594 13.460938 18.136719 C 13.414062 18.097656 13.304688 18.183594 13.246094 18.148438 C 13.164062 18.101562 13.101562 17.996094 13.039062 17.925781 C 12.96875 17.847656 12.902344 17.761719 12.835938 17.683594 C 12.769531 17.605469 12.699219 17.539062 12.617188 17.488281 C 12.570312 17.464844 12.484375 17.519531 12.429688 17.507812 C 12.335938 17.480469 12.28125 17.3125 12.199219 17.242188 C 12.15625 17.203125 12.085938 17.195312 12.042969 17.160156 C 12.003906 17.117188 11.996094 17.046875 11.953125 17 C 11.898438 16.933594 11.8125 16.914062 11.753906 16.863281 C 11.667969 16.792969 11.605469 16.621094 11.542969 16.523438 C 11.480469 16.429688 11.386719 16.417969 11.324219 16.335938 C 11.246094 16.230469 11.203125 16.054688 11.109375 15.949219 C 11.015625 15.839844 10.777344 16.011719 10.707031 16.15625 C 10.589844 16.394531 10.59375 16.695312 10.777344 16.894531 C 11.660156 17.894531 12.808594 18.722656 14.125 18.941406 C 14.027344 18.800781 13.925781 18.550781 13.863281 18.441406 "/>
<path style=" stroke:none;fill-rule:nonzero;fill:rgb(92.54902%,12.54902%,14.117647%);fill-opacity:1;" d="M 17.101562 5.59375 C 19.515625 5.496094 23.726562 5.738281 25.929688 5.117188 C 27.890625 4.5625 29.316406 3.554688 30.140625 2.171875 C 30.269531 1.953125 30.199219 1.917969 29.992188 2.121094 C 28.65625 3.417969 27.4375 3.878906 25.710938 4.355469 C 23.691406 4.914062 20.046875 4.769531 17.101562 4.832031 C 14.214844 4.894531 11.6875 6.046875 10.925781 8.316406 L 11.554688 8.566406 C 12.398438 6.730469 14.40625 5.699219 17.101562 5.59375 "/>
<path style=" stroke:none;fill-rule:nonzero;fill:rgb(92.54902%,12.54902%,14.117647%);fill-opacity:1;" d="M 2.367188 13.15625 C 2.539062 13.296875 2.402344 13.546875 2.527344 13.714844 C 2.683594 12.632812 3.496094 11.835938 4.234375 11.070312 C 6.167969 9.066406 9.167969 8.664062 11.71875 9.644531 C 11.765625 9.660156 11.957031 9.261719 11.890625 9.234375 C 10.375 8.5625 8.933594 8.488281 7.382812 8.835938 C 6.09375 9.128906 5.007812 9.714844 4.035156 10.605469 C 3.28125 11.296875 2.667969 12.058594 2.199219 12.960938 C 2.164062 13.035156 2.101562 13.148438 2.164062 13.210938 C 2.226562 13.277344 2.292969 13.09375 2.367188 13.15625 "/>
<path style=" stroke:none;fill-rule:nonzero;fill:rgb(92.54902%,12.54902%,14.117647%);fill-opacity:1;" d="M 14.894531 19.289062 C 14.902344 19.300781 14.816406 19.328125 14.785156 19.332031 C 14.636719 19.351562 14.488281 19.351562 14.339844 19.332031 C 14.066406 19.292969 13.777344 19.195312 13.546875 19.148438 C 11.953125 21.578125 8.570312 22.4375 6.027344 20.816406 C 5.117188 20.238281 4.414062 19.488281 3.964844 18.535156 C 3.710938 18 3.574219 17.457031 3.445312 16.867188 C 3.359375 16.46875 3.429688 16.082031 3.355469 15.691406 C 3.191406 15.90625 3.289062 16.242188 3.011719 16.367188 C 2.9375 16.398438 2.84375 16.386719 2.789062 16.300781 C 2.738281 16.210938 2.761719 16.074219 2.671875 16.050781 C 2.523438 16.015625 2.523438 16.238281 2.335938 16.195312 C 2.316406 16.191406 2.292969 16.246094 2.261719 16.257812 C 2.167969 16.289062 2.085938 16.113281 2.011719 16.195312 C 1.960938 16.253906 1.929688 16.320312 1.851562 16.292969 C 1.785156 16.269531 1.734375 16.140625 1.734375 16.148438 C 1.683594 19.640625 4.445312 22.816406 7.910156 23.335938 C 8.410156 23.410156 8.902344 23.445312 9.410156 23.398438 C 10.492188 23.296875 11.488281 23.003906 12.449219 22.441406 C 13.957031 21.558594 15.007812 20.179688 15.765625 18.65625 C 15.191406 18.457031 14.617188 18.265625 14.148438 18.085938 C 14.1875 18.578125 14.667969 18.960938 14.894531 19.289062 "/>
<path style=" stroke:none;fill-rule:nonzero;fill:rgb(92.54902%,12.54902%,14.117647%);fill-opacity:1;" d="M 16.777344 18.105469 C 16.640625 18.070312 16.523438 17.992188 16.402344 17.941406 C 16.324219 17.910156 16.253906 18.03125 16.171875 17.980469 C 16.007812 17.882812 15.863281 17.738281 15.730469 17.632812 C 15.628906 17.546875 15.417969 17.339844 15.328125 17.378906 C 15.292969 17.394531 15.242188 17.59375 15.15625 17.527344 C 14.953125 17.371094 14.820312 17.203125 14.625 17.035156 C 14.539062 16.957031 14.453125 17.210938 14.34375 17.160156 C 14.085938 17.03125 13.984375 16.75 13.785156 16.550781 C 13.554688 16.320312 13.335938 16.050781 13.019531 15.96875 C 12.964844 15.953125 12.996094 16.03125 12.945312 16.070312 C 12.703125 16.261719 12.4375 15.933594 12.203125 15.824219 C 11.984375 15.722656 11.796875 15.566406 11.554688 15.546875 C 11.5 15.546875 11.503906 15.621094 11.523438 15.648438 C 12.90625 17.296875 14.824219 18.539062 16.929688 18.488281 C 16.980469 18.488281 17.078125 18.492188 16.996094 18.390625 C 16.933594 18.308594 16.859375 18.128906 16.777344 18.105469 "/>
<path style=" stroke:none;fill-rule:nonzero;fill:rgb(92.54902%,12.54902%,14.117647%);fill-opacity:1;" d="M 18.730469 16.902344 C 18.671875 16.894531 18.574219 16.976562 18.523438 16.96875 C 18.359375 16.9375 18.230469 16.789062 18.03125 16.683594 C 17.949219 16.640625 17.90625 16.835938 17.84375 16.832031 C 17.515625 16.8125 17.039062 16.460938 16.746094 16.28125 C 16.691406 16.25 16.378906 16.3125 16.328125 16.324219 C 16.140625 16.363281 15.898438 16.027344 15.75 15.957031 C 15.640625 15.90625 15.484375 15.847656 15.375 15.929688 C 15.230469 16.039062 15.058594 15.980469 14.902344 15.980469 C 14.839844 15.976562 14.785156 16.109375 14.707031 16.132812 C 14.492188 16.203125 14.253906 16.050781 14.042969 16.160156 C 14.035156 16.160156 14.003906 16.207031 14.007812 16.222656 C 14.023438 16.355469 14.171875 16.378906 14.269531 16.4375 C 14.632812 16.664062 15.007812 16.816406 15.394531 16.972656 C 15.972656 17.210938 16.566406 17.386719 17.195312 17.445312 C 17.902344 17.507812 18.859375 17.605469 19.441406 17.433594 C 19.472656 17.421875 19.425781 17.308594 19.335938 17.242188 C 19.246094 17.171875 19.109375 17.144531 19.054688 17.105469 C 18.921875 17.011719 18.851562 16.921875 18.730469 16.902344 "/>
<path style=" stroke:none;fill-rule:nonzero;fill:rgb(92.54902%,12.54902%,14.117647%);fill-opacity:1;" d="M 21.789062 15.488281 C 21.628906 15.535156 21.503906 15.414062 21.371094 15.46875 C 21.339844 15.480469 21.320312 15.53125 21.292969 15.53125 C 21.042969 15.535156 20.875 15.261719 20.617188 15.28125 C 20.554688 15.289062 20.554688 15.402344 20.503906 15.414062 C 20.34375 15.453125 20.203125 15.257812 20.0625 15.328125 C 19.960938 15.378906 19.890625 15.375 19.792969 15.34375 C 19.664062 15.308594 19.570312 15.195312 19.449219 15.175781 C 19.34375 15.15625 19.234375 15.265625 19.113281 15.230469 C 18.8125 15.140625 18.578125 14.851562 18.253906 14.921875 C 18.09375 14.953125 17.957031 14.84375 17.84375 14.910156 C 17.722656 14.984375 17.6875 15.074219 17.566406 15.144531 C 17.484375 15.195312 17.289062 15.191406 17.199219 15.242188 C 17.132812 15.285156 17.117188 15.386719 17.042969 15.417969 C 16.902344 15.480469 16.734375 15.4375 16.597656 15.511719 C 16.582031 15.523438 16.574219 15.597656 16.632812 15.613281 C 17.582031 15.875 18.484375 16.164062 19.453125 16.160156 C 20.398438 16.160156 21.339844 16.164062 22.269531 15.875 C 22.34375 15.851562 22.359375 15.808594 22.300781 15.738281 C 22.167969 15.582031 21.988281 15.425781 21.789062 15.488281 "/>
<path style=" stroke:none;fill-rule:nonzero;fill:rgb(92.54902%,12.54902%,14.117647%);fill-opacity:1;" d="M 24.65625 13.367188 C 24.445312 13.464844 24.199219 13.355469 23.964844 13.410156 C 23.90625 13.425781 23.949219 13.515625 23.890625 13.523438 C 23.660156 13.554688 23.421875 13.496094 23.207031 13.582031 C 23.039062 13.648438 22.835938 13.574219 22.648438 13.578125 C 22.578125 13.578125 22.578125 13.675781 22.566406 13.753906 C 22.554688 13.820312 22.457031 13.859375 22.429688 13.847656 C 22.199219 13.78125 21.976562 13.753906 21.746094 13.71875 C 21.160156 13.632812 20.582031 13.445312 20.03125 13.613281 C 19.851562 13.664062 19.613281 13.710938 19.476562 13.851562 C 19.421875 13.90625 19.367188 14.015625 19.296875 14.042969 C 18.957031 14.164062 18.59375 14.1875 18.257812 14.308594 C 18.15625 14.34375 17.960938 14.488281 18.035156 14.507812 C 19.441406 14.871094 20.8125 14.90625 22.273438 14.632812 C 23.34375 14.429688 24.324219 14.125 25.242188 13.601562 C 25.175781 13.511719 24.816406 13.292969 24.65625 13.367188 "/>
<path style=" stroke:none;fill-rule:nonzero;fill:rgb(92.54902%,12.54902%,14.117647%);fill-opacity:1;" d="M 27.042969 10.960938 C 26.910156 11.003906 26.726562 10.878906 26.613281 10.964844 C 26.441406 11.089844 26.242188 11.066406 26.066406 11.050781 C 25.984375 11.039062 25.855469 11.011719 25.78125 11.070312 C 25.734375 11.105469 25.800781 11.167969 25.847656 11.207031 C 25.40625 11.363281 24.917969 11.21875 24.503906 11.386719 C 24.472656 11.402344 24.453125 11.554688 24.375 11.570312 C 23.992188 11.648438 23.632812 11.496094 23.253906 11.566406 C 23.15625 11.585938 23.199219 11.792969 23.097656 11.796875 C 22.757812 11.8125 22.425781 11.785156 22.085938 11.769531 C 21.679688 11.753906 21.308594 11.902344 20.921875 12.019531 C 20.808594 12.054688 20.773438 12.238281 20.652344 12.257812 C 20.324219 12.308594 19.988281 12.25 19.683594 12.398438 C 19.664062 12.410156 19.664062 12.511719 19.683594 12.523438 C 20.054688 12.734375 20.480469 12.882812 20.730469 13.222656 C 23.304688 13.195312 26.070312 12.855469 28.210938 11.082031 C 28.253906 11.046875 28 10.992188 27.863281 10.960938 C 27.730469 10.929688 27.621094 10.929688 27.460938 10.878906 C 27.316406 10.828125 27.183594 10.914062 27.042969 10.960938 "/>
<path style=" stroke:none;fill-rule:nonzero;fill:rgb(92.54902%,12.54902%,14.117647%);fill-opacity:1;" d="M 29.714844 8.515625 C 29.6875 8.503906 29.296875 8.429688 29.082031 8.484375 C 29.039062 8.492188 29.011719 8.570312 28.964844 8.574219 C 28.6875 8.621094 28.492188 8.753906 28.210938 8.761719 C 28.152344 8.765625 28.023438 8.808594 27.949219 8.84375 C 27.847656 8.894531 27.707031 8.773438 27.625 8.863281 C 27.574219 8.921875 27.664062 9.0625 27.570312 9.105469 C 27.324219 9.222656 27.035156 9.015625 26.796875 9.171875 C 26.726562 9.21875 26.871094 9.375 26.78125 9.402344 C 26.433594 9.511719 25.835938 8.96875 25.609375 9.53125 C 25.574219 9.621094 25.464844 9.582031 25.398438 9.5625 C 25.332031 9.546875 25.238281 9.515625 25.199219 9.546875 C 24.988281 9.722656 24.863281 9.792969 24.566406 9.707031 C 24.488281 9.683594 24.488281 9.914062 24.34375 9.875 C 24.175781 9.835938 24.015625 9.714844 23.859375 9.78125 C 23.789062 9.816406 23.84375 10.003906 23.738281 10.011719 C 23.320312 10.054688 22.890625 9.992188 22.507812 10.164062 C 22.414062 10.207031 22.402344 10.378906 22.273438 10.402344 C 21.976562 10.449219 21.6875 10.414062 21.414062 10.503906 C 21.371094 10.519531 21.378906 10.652344 21.445312 10.660156 C 21.625 10.6875 21.820312 10.660156 21.957031 10.742188 C 22.121094 10.839844 22.226562 11.121094 22.386719 11.128906 C 23.667969 11.179688 24.941406 10.988281 26.175781 10.574219 C 27.472656 10.140625 28.664062 9.542969 29.714844 8.617188 C 29.777344 8.5625 29.746094 8.535156 29.714844 8.515625 "/>
<path style=" stroke:none;fill-rule:nonzero;fill:rgb(92.54902%,12.54902%,14.117647%);fill-opacity:1;" d="M 17.363281 21.117188 C 17.042969 21.117188 16.785156 20.855469 16.785156 20.53125 C 16.785156 20.210938 17.042969 19.945312 17.363281 19.945312 C 17.683594 19.945312 17.941406 20.210938 17.941406 20.53125 C 17.941406 20.855469 17.683594 21.117188 17.363281 21.117188 M 17.363281 19.789062 C 16.957031 19.789062 16.628906 20.121094 16.628906 20.53125 C 16.628906 20.945312 16.957031 21.277344 17.363281 21.277344 C 17.769531 21.277344 18.101562 20.945312 18.101562 20.53125 C 18.101562 20.121094 17.769531 19.789062 17.363281 19.789062 Z M 17.363281 19.789062 "/>
<path style=" stroke:none;fill-rule:nonzero;fill:rgb(92.54902%,12.54902%,14.117647%);fill-opacity:1;" d="M 17.417969 20.453125 L 17.21875 20.453125 L 17.21875 20.265625 L 17.417969 20.265625 C 17.46875 20.265625 17.507812 20.308594 17.507812 20.359375 C 17.507812 20.410156 17.46875 20.453125 17.417969 20.453125 M 17.664062 20.359375 C 17.664062 20.21875 17.554688 20.105469 17.417969 20.105469 L 17.0625 20.105469 L 17.0625 20.957031 L 17.21875 20.957031 L 17.21875 20.613281 L 17.332031 20.613281 L 17.492188 20.957031 L 17.667969 20.957031 L 17.5 20.597656 C 17.597656 20.5625 17.664062 20.46875 17.664062 20.359375 Z M 17.664062 20.359375 "/>
</g>
</svg>
