<?xml version="1.0" encoding="UTF-8"?>
<svg xmlns="http://www.w3.org/2000/svg" xmlns:xlink="http://www.w3.org/1999/xlink" width="20pt" height="20pt" viewBox="0 0 20 20" version="1.1">
<g id="surface1">
<path style=" stroke:none;fill-rule:nonzero;fill:rgb(100%,100%,100%);fill-opacity:1;" d="M 10 0.285156 C 4.640625 0.285156 0.285156 4.640625 0.285156 10 C 0.285156 15.355469 4.640625 19.710938 10 19.710938 C 15.355469 19.710938 19.710938 15.355469 19.710938 10 C 19.710938 4.640625 15.355469 0.285156 10 0.285156 Z M 11.566406 4.132812 C 11.566406 4.882812 10.945312 5.613281 10 5.613281 C 9.050781 5.613281 8.433594 4.882812 8.433594 4.132812 C 8.433594 3.035156 9.382812 2.449219 10 0.917969 C 10.613281 2.449219 11.566406 3.035156 11.566406 4.132812 Z M 10 19.261719 C 4.882812 19.261719 0.734375 15.113281 0.734375 10 C 0.734375 5.0625 4.59375 1.03125 9.457031 0.75 L 8.382812 2.445312 C 7.925781 3.167969 7.847656 3.769531 7.847656 4.101562 C 7.847656 5.378906 8.980469 6.21875 10 6.21875 C 11.019531 6.21875 12.148438 5.378906 12.148438 4.101562 C 12.148438 3.769531 12.070312 3.167969 11.613281 2.445312 L 10.539062 0.75 C 15.402344 1.03125 19.261719 5.0625 19.261719 10 C 19.261719 15.113281 15.113281 19.261719 10 19.261719 Z M 10 19.261719 "/>
<path style=" stroke:none;fill-rule:nonzero;fill:rgb(100%,100%,100%);fill-opacity:1;" d="M 12.167969 1.859375 C 12.523438 2.355469 12.984375 3.070312 12.984375 4.070312 C 12.984375 5.625 11.667969 7.078125 10 7.078125 C 8.328125 7.078125 7.011719 5.625 7.011719 4.070312 C 7.011719 3.070312 7.476562 2.355469 7.832031 1.859375 C 4.230469 2.816406 1.578125 6.097656 1.578125 10 C 1.578125 14.648438 5.347656 18.417969 10 18.417969 C 14.648438 18.417969 18.417969 14.648438 18.417969 10 C 18.417969 6.097656 15.765625 2.816406 12.167969 1.859375 Z M 4.664062 15.671875 C 3.730469 14.601562 3.136719 13.3125 3.019531 11.707031 L 3.019531 8.570312 C 3.019531 8.113281 3.199219 7.511719 3.855469 7.511719 C 4.363281 7.511719 4.492188 7.511719 4.492188 7.511719 C 4.808594 7.511719 5.328125 7.605469 5.328125 8.304688 C 5.328125 9.003906 5.328125 15.300781 5.328125 15.300781 C 5.328125 15.875 4.96875 16.023438 4.664062 15.671875 Z M 6.3125 17.144531 C 5.800781 16.851562 5.34375 16.484375 4.9375 16.039062 C 4.9375 16.039062 5.089844 16.09375 5.261719 15.992188 C 5.441406 15.886719 5.503906 15.640625 5.503906 15.5 C 5.503906 15.351562 5.503906 12.472656 5.503906 12.304688 C 5.679688 12.304688 5.816406 12.109375 5.816406 11.941406 C 5.816406 11.941406 5.816406 9.332031 5.816406 9.140625 C 5.816406 8.886719 5.664062 8.773438 5.507812 8.773438 C 5.507812 8.75 5.507812 7.519531 5.507812 7.519531 L 6.820312 7.519531 C 6.820312 7.519531 6.820312 8.675781 6.820312 8.773438 C 6.675781 8.773438 6.515625 8.921875 6.515625 9.140625 C 6.515625 9.257812 6.515625 11.828125 6.515625 11.933594 C 6.515625 12.132812 6.628906 12.304688 6.769531 12.304688 C 6.769531 12.390625 6.769531 16.699219 6.769531 16.792969 C 6.769531 17.089844 6.535156 17.269531 6.3125 17.144531 Z M 8.558594 18 C 7.828125 17.882812 7.242188 17.636719 6.617188 17.300781 C 6.617188 17.300781 6.929688 17.246094 6.929688 16.921875 C 6.929688 16.773438 6.929688 12.472656 6.929688 12.304688 C 7.105469 12.304688 7.289062 12.136719 7.289062 11.933594 C 7.289062 11.933594 7.289062 9.332031 7.289062 9.140625 C 7.289062 8.898438 7.136719 8.773438 6.992188 8.773438 C 6.992188 8.75 6.992188 7.519531 6.992188 7.519531 L 8.410156 7.519531 C 8.410156 7.519531 8.410156 8.675781 8.410156 8.773438 C 8.257812 8.773438 8 8.898438 8 9.140625 C 8 9.257812 7.996094 11.789062 8 11.894531 C 8.003906 12.144531 8.011719 12.308594 8.273438 12.308594 C 8.527344 12.308594 8.558594 12.191406 8.558594 11.914062 C 8.558594 11.511719 8.558594 11.007812 8.558594 11.007812 L 9.164062 11.007812 L 9.164062 17.484375 C 9.164062 17.832031 8.898438 18.050781 8.558594 18 Z M 10.988281 18.0625 C 10.632812 18.121094 10.324219 18.132812 9.980469 18.132812 C 9.679688 18.132812 9.25 18.117188 8.960938 18.082031 C 8.960938 18.082031 9.320312 17.996094 9.320312 17.511719 C 9.320312 17.363281 9.320312 12.472656 9.320312 12.304688 C 9.472656 12.304688 9.554688 12.144531 9.554688 11.933594 C 9.554688 11.933594 9.5625 9.332031 9.554688 9.140625 C 9.554688 8.921875 9.40625 8.773438 9.046875 8.773438 C 9.046875 8.75 9.046875 7.527344 9.046875 7.527344 L 11.664062 7.527344 C 11.664062 7.527344 11.664062 9.46875 11.664062 9.5625 L 10.996094 9.5625 C 10.996094 9.5625 10.996094 9.332031 10.996094 9.152344 C 10.996094 8.972656 10.964844 8.761719 10.734375 8.761719 C 10.445312 8.761719 10.402344 8.949219 10.402344 9.191406 C 10.402344 9.230469 10.402344 9.511719 10.402344 9.832031 L 11.0625 9.832031 L 11.0625 10.742188 L 10.402344 10.742188 C 10.402344 11.21875 10.402344 11.835938 10.402344 11.878906 C 10.40625 12.148438 10.414062 12.324219 10.675781 12.324219 C 10.929688 12.324219 10.964844 12.199219 10.964844 11.878906 C 10.964844 11.476562 10.964844 11.015625 10.964844 11.015625 L 11.652344 11.015625 L 11.652344 17.34375 C 11.652344 17.734375 11.363281 18 10.988281 18.0625 Z M 14.644531 15.714844 C 14.632812 16.242188 14.59375 16.398438 14.480469 16.503906 C 14.128906 16.820312 13.875 16.984375 13.433594 17.238281 C 13.453125 17.222656 13.519531 17.125 13.511719 16.613281 C 13.511719 16.613281 13.511719 11.230469 13.511719 10.988281 C 13.511719 10.742188 13.40625 10.574219 13.226562 10.574219 C 13.003906 10.574219 12.941406 10.765625 12.941406 10.945312 C 12.941406 11.0625 12.941406 11.828125 12.941406 11.933594 C 12.941406 12.15625 13.15625 12.3125 13.335938 12.3125 C 13.335938 12.398438 13.335938 16.648438 13.335938 16.742188 C 13.335938 17.070312 13.25 17.359375 13.027344 17.453125 C 12.605469 17.632812 12.03125 17.84375 11.578125 17.949219 C 11.578125 17.949219 11.824219 17.792969 11.820312 17.089844 C 11.816406 16.945312 11.820312 12.472656 11.820312 12.304688 C 11.988281 12.304688 12.160156 12.144531 12.160156 11.933594 C 12.160156 11.933594 12.160156 9.34375 12.160156 9.152344 C 12.160156 8.933594 11.96875 8.773438 11.851562 8.773438 C 11.851562 8.75 11.851562 7.519531 11.851562 7.519531 L 13.714844 7.519531 C 14.097656 7.5625 14.367188 7.699219 14.367188 8.253906 C 14.367188 8.65625 14.367188 9.28125 14.367188 9.417969 C 14.367188 9.554688 14.410156 9.917969 14.230469 10.066406 C 14.050781 10.214844 14.082031 10.203125 14.082031 10.203125 C 14.082031 10.203125 14.347656 10.328125 14.347656 10.636719 C 14.347656 10.945312 14.347656 11.769531 14.347656 11.929688 C 14.347656 12.136719 14.464844 12.304688 14.644531 12.304688 Z M 15.578125 9.078125 C 15.578125 9.207031 15.578125 9.621094 15.578125 9.726562 C 15.578125 9.832031 15.644531 9.894531 15.734375 9.96875 C 15.882812 10.085938 16.648438 10.699219 16.648438 10.699219 C 16.730469 10.796875 16.921875 10.890625 16.921875 11.25 C 16.921875 11.546875 16.96875 12.511719 16.550781 13.507812 C 16.136719 14.496094 15.660156 15.269531 14.804688 16.222656 L 14.804688 11.050781 L 15.503906 11.050781 L 15.503906 12.046875 C 15.511719 12.417969 16.097656 12.375 16.097656 12.101562 C 16.097656 11.824219 16.097656 11.515625 16.097656 11.402344 C 16.097656 11.285156 16.097656 11.25 16.03125 11.199219 C 15.96875 11.144531 15.046875 10.402344 14.972656 10.351562 C 14.898438 10.296875 14.855469 10.214844 14.855469 10 C 14.855469 9.789062 14.855469 8.050781 14.855469 8.050781 C 14.867188 7.796875 15 7.519531 15.402344 7.519531 L 16.386719 7.519531 C 16.769531 7.5625 16.976562 7.691406 16.976562 8.167969 C 16.976562 8.570312 16.976562 9.449219 16.976562 9.585938 L 16.160156 9.585938 L 16.160156 9.089844 C 16.160156 8.675781 15.578125 8.664062 15.578125 9.078125 Z M 15.578125 9.078125 "/>
<path style=" stroke:none;fill-rule:nonzero;fill:rgb(100%,100%,100%);fill-opacity:1;" d="M 3.824219 9.105469 C 3.824219 9.105469 3.824219 11.546875 3.824219 11.992188 C 3.824219 12.460938 4.480469 12.4375 4.480469 11.972656 L 4.480469 9.082031 C 4.449219 8.636719 3.824219 8.660156 3.824219 9.105469 Z M 3.824219 9.105469 "/>
<path style=" stroke:none;fill-rule:nonzero;fill:rgb(100%,100%,100%);fill-opacity:1;" d="M 12.980469 9.082031 C 12.980469 9.082031 12.980469 9.25 12.980469 9.605469 C 12.980469 9.976562 13.503906 9.960938 13.503906 9.585938 C 13.503906 9.25 13.519531 9.285156 13.503906 9.0625 C 13.480469 8.675781 12.980469 8.691406 12.980469 9.082031 Z M 12.980469 9.082031 "/>
<path style=" stroke:none;fill-rule:nonzero;fill:rgb(89.803922%,41.960784%,12.156863%);fill-opacity:1;" d="M 10 0.917969 C 9.382812 2.449219 8.433594 3.035156 8.433594 4.132812 C 8.433594 4.882812 9.050781 5.613281 10 5.613281 C 10.945312 5.613281 11.566406 4.882812 11.566406 4.132812 C 11.566406 3.035156 10.613281 2.449219 10 0.917969 Z M 10 0.917969 "/>
<path style=" stroke:none;fill-rule:nonzero;fill:rgb(100%,100%,100%);fill-opacity:1;" d="M 10 0 C 4.484375 0 0 4.484375 0 10 C 0 15.511719 4.484375 19.996094 10 19.996094 C 15.511719 19.996094 19.996094 15.511719 19.996094 10 C 19.996094 4.484375 15.511719 0 10 0 Z M 10 19.710938 C 4.640625 19.710938 0.285156 15.355469 0.285156 10 C 0.285156 4.640625 4.640625 0.285156 10 0.285156 C 15.355469 0.285156 19.710938 4.640625 19.710938 10 C 19.710938 15.355469 15.355469 19.710938 10 19.710938 Z M 10 19.710938 "/>
<path style=" stroke:none;fill-rule:nonzero;fill:rgb(0%,21.960784%,46.27451%);fill-opacity:1;" d="M 10.539062 0.75 L 11.613281 2.445312 C 12.070312 3.167969 12.148438 3.769531 12.148438 4.101562 C 12.148438 5.378906 11.019531 6.21875 10 6.21875 C 8.980469 6.21875 7.847656 5.378906 7.847656 4.101562 C 7.847656 3.769531 7.925781 3.167969 8.382812 2.445312 L 9.457031 0.75 C 4.59375 1.03125 0.734375 5.0625 0.734375 10 C 0.734375 15.113281 4.882812 19.261719 10 19.261719 C 15.113281 19.261719 19.261719 15.113281 19.261719 10 C 19.261719 5.0625 15.402344 1.03125 10.539062 0.75 Z M 10 18.417969 C 5.347656 18.417969 1.578125 14.648438 1.578125 10 C 1.578125 6.097656 4.230469 2.816406 7.832031 1.859375 C 7.476562 2.355469 7.011719 3.070312 7.011719 4.070312 C 7.011719 5.625 8.328125 7.078125 10 7.078125 C 11.667969 7.078125 12.984375 5.625 12.984375 4.070312 C 12.984375 3.070312 12.523438 2.355469 12.167969 1.859375 C 15.765625 2.816406 18.417969 6.097656 18.417969 10 C 18.417969 14.648438 14.648438 18.417969 10 18.417969 Z M 10 18.417969 "/>
<path style=" stroke:none;fill-rule:nonzero;fill:rgb(0%,21.960784%,46.27451%);fill-opacity:1;" d="M 6.769531 16.792969 C 6.769531 16.699219 6.769531 12.390625 6.769531 12.304688 C 6.628906 12.304688 6.515625 12.132812 6.515625 11.933594 C 6.515625 11.828125 6.515625 9.257812 6.515625 9.140625 C 6.515625 8.921875 6.675781 8.773438 6.820312 8.773438 C 6.820312 8.675781 6.820312 7.519531 6.820312 7.519531 L 5.507812 7.519531 C 5.507812 7.519531 5.507812 8.75 5.507812 8.773438 C 5.664062 8.773438 5.816406 8.886719 5.816406 9.140625 C 5.816406 9.332031 5.816406 11.941406 5.816406 11.941406 C 5.816406 12.109375 5.679688 12.304688 5.503906 12.304688 C 5.503906 12.472656 5.503906 15.355469 5.503906 15.5 C 5.503906 15.640625 5.441406 15.886719 5.261719 15.996094 C 5.089844 16.09375 4.9375 16.039062 4.9375 16.039062 C 5.34375 16.484375 5.800781 16.851562 6.3125 17.144531 C 6.535156 17.269531 6.769531 17.089844 6.769531 16.792969 Z M 6.769531 16.792969 "/>
<path style=" stroke:none;fill-rule:nonzero;fill:rgb(0%,21.960784%,46.27451%);fill-opacity:1;" d="M 9.164062 17.484375 L 9.164062 11.007812 L 8.558594 11.007812 C 8.558594 11.007812 8.558594 11.511719 8.558594 11.914062 C 8.558594 12.191406 8.527344 12.308594 8.273438 12.308594 C 8.011719 12.308594 8.003906 12.144531 8 11.894531 C 7.996094 11.789062 8 9.257812 8 9.140625 C 8 8.898438 8.257812 8.773438 8.410156 8.773438 C 8.410156 8.675781 8.410156 7.519531 8.410156 7.519531 L 6.992188 7.519531 C 6.992188 7.519531 6.992188 8.75 6.992188 8.773438 C 7.136719 8.773438 7.289062 8.898438 7.289062 9.140625 C 7.289062 9.332031 7.289062 11.933594 7.289062 11.933594 C 7.289062 12.136719 7.105469 12.304688 6.929688 12.304688 C 6.929688 12.472656 6.929688 16.773438 6.929688 16.921875 C 6.929688 17.246094 6.617188 17.300781 6.617188 17.300781 C 7.242188 17.636719 7.828125 17.882812 8.558594 18 C 8.898438 18.050781 9.164062 17.832031 9.164062 17.484375 Z M 9.164062 17.484375 "/>
<path style=" stroke:none;fill-rule:nonzero;fill:rgb(0%,21.960784%,46.27451%);fill-opacity:1;" d="M 11.652344 11.015625 L 10.964844 11.015625 C 10.964844 11.015625 10.964844 11.476562 10.964844 11.878906 C 10.964844 12.199219 10.929688 12.324219 10.675781 12.324219 C 10.414062 12.324219 10.40625 12.148438 10.402344 11.878906 C 10.402344 11.835938 10.402344 11.21875 10.402344 10.742188 L 11.0625 10.742188 L 11.0625 9.832031 L 10.402344 9.832031 C 10.402344 9.511719 10.402344 9.230469 10.402344 9.191406 C 10.402344 8.949219 10.445312 8.761719 10.734375 8.761719 C 10.964844 8.761719 10.996094 8.972656 10.996094 9.152344 C 10.996094 9.332031 10.996094 9.5625 10.996094 9.5625 L 11.664062 9.5625 C 11.664062 9.46875 11.664062 7.527344 11.664062 7.527344 L 9.046875 7.527344 C 9.046875 7.527344 9.046875 8.75 9.046875 8.773438 C 9.40625 8.773438 9.554688 8.921875 9.554688 9.140625 C 9.5625 9.332031 9.554688 11.933594 9.554688 11.933594 C 9.554688 12.144531 9.472656 12.304688 9.320312 12.304688 C 9.320312 12.472656 9.320312 17.363281 9.320312 17.511719 C 9.320312 17.996094 8.960938 18.082031 8.960938 18.082031 C 9.25 18.117188 9.679688 18.132812 9.980469 18.132812 C 10.324219 18.132812 10.632812 18.121094 10.988281 18.0625 C 11.363281 18 11.652344 17.734375 11.652344 17.34375 Z M 11.652344 11.015625 "/>
<path style=" stroke:none;fill-rule:nonzero;fill:rgb(0%,21.960784%,46.27451%);fill-opacity:1;" d="M 16.976562 9.585938 C 16.976562 9.449219 16.976562 8.570312 16.976562 8.167969 C 16.976562 7.691406 16.769531 7.5625 16.386719 7.519531 L 15.402344 7.519531 C 15 7.519531 14.867188 7.796875 14.855469 8.050781 C 14.855469 8.050781 14.855469 9.789062 14.855469 10 C 14.855469 10.214844 14.898438 10.296875 14.972656 10.351562 C 15.046875 10.402344 15.96875 11.144531 16.03125 11.199219 C 16.097656 11.25 16.097656 11.285156 16.097656 11.398438 C 16.097656 11.515625 16.097656 11.824219 16.097656 12.101562 C 16.097656 12.375 15.511719 12.417969 15.503906 12.046875 L 15.503906 11.050781 L 14.804688 11.050781 L 14.804688 16.222656 C 15.660156 15.269531 16.136719 14.496094 16.550781 13.507812 C 16.96875 12.511719 16.921875 11.546875 16.921875 11.25 C 16.921875 10.890625 16.730469 10.796875 16.648438 10.699219 C 16.648438 10.699219 15.882812 10.085938 15.734375 9.96875 C 15.640625 9.894531 15.578125 9.832031 15.578125 9.726562 C 15.578125 9.621094 15.578125 9.207031 15.578125 9.078125 C 15.578125 8.664062 16.160156 8.675781 16.160156 9.089844 L 16.160156 9.585938 Z M 16.976562 9.585938 "/>
<path style=" stroke:none;fill-rule:nonzero;fill:rgb(0%,21.960784%,46.27451%);fill-opacity:1;" d="M 5.328125 15.300781 C 5.328125 15.300781 5.328125 9.003906 5.328125 8.304688 C 5.328125 7.605469 4.808594 7.511719 4.492188 7.511719 C 4.492188 7.511719 4.363281 7.511719 3.855469 7.511719 C 3.199219 7.511719 3.019531 8.113281 3.019531 8.570312 L 3.019531 11.707031 C 3.136719 13.3125 3.730469 14.601562 4.664062 15.671875 C 4.96875 16.023438 5.328125 15.875 5.328125 15.300781 Z M 4.480469 11.972656 C 4.480469 12.4375 3.824219 12.460938 3.824219 11.992188 C 3.824219 11.546875 3.824219 9.105469 3.824219 9.105469 C 3.824219 8.660156 4.449219 8.636719 4.480469 9.082031 Z M 4.480469 11.972656 "/>
<path style=" stroke:none;fill-rule:nonzero;fill:rgb(0%,21.960784%,46.27451%);fill-opacity:1;" d="M 14.347656 11.929688 C 14.347656 11.769531 14.347656 10.945312 14.347656 10.636719 C 14.347656 10.328125 14.082031 10.203125 14.082031 10.203125 C 14.082031 10.203125 14.050781 10.214844 14.230469 10.066406 C 14.410156 9.917969 14.367188 9.554688 14.367188 9.417969 C 14.367188 9.28125 14.367188 8.65625 14.367188 8.253906 C 14.367188 7.699219 14.097656 7.5625 13.714844 7.519531 L 11.851562 7.519531 C 11.851562 7.519531 11.851562 8.75 11.851562 8.773438 C 11.96875 8.773438 12.160156 8.933594 12.160156 9.152344 C 12.160156 9.34375 12.160156 11.933594 12.160156 11.933594 C 12.160156 12.144531 11.988281 12.304688 11.820312 12.304688 C 11.820312 12.472656 11.816406 16.945312 11.820312 17.089844 C 11.824219 17.792969 11.578125 17.949219 11.578125 17.949219 C 12.03125 17.84375 12.605469 17.632812 13.027344 17.453125 C 13.25 17.359375 13.335938 17.070312 13.335938 16.742188 C 13.335938 16.648438 13.335938 12.398438 13.335938 12.3125 C 13.15625 12.3125 12.941406 12.15625 12.941406 11.933594 C 12.941406 11.828125 12.941406 11.0625 12.941406 10.945312 C 12.941406 10.765625 13.003906 10.574219 13.226562 10.574219 C 13.40625 10.574219 13.511719 10.742188 13.511719 10.988281 C 13.511719 11.230469 13.511719 16.613281 13.511719 16.613281 C 13.519531 17.125 13.453125 17.222656 13.433594 17.238281 C 13.875 16.984375 14.128906 16.820312 14.480469 16.503906 C 14.59375 16.398438 14.632812 16.242188 14.644531 15.714844 L 14.644531 12.304688 C 14.464844 12.304688 14.347656 12.136719 14.347656 11.929688 Z M 13.503906 9.585938 C 13.503906 9.960938 12.980469 9.976562 12.980469 9.605469 C 12.980469 9.25 12.980469 9.082031 12.980469 9.082031 C 12.980469 8.691406 13.480469 8.675781 13.503906 9.0625 C 13.519531 9.285156 13.503906 9.25 13.503906 9.585938 Z M 13.503906 9.585938 "/>
</g>
</svg>
