<?xml version="1.0" encoding="UTF-8"?>
<svg xmlns="http://www.w3.org/2000/svg" xmlns:xlink="http://www.w3.org/1999/xlink" width="25pt" height="25pt" viewBox="0 0 25 25" version="1.1">
<g id="surface1">
<path style=" stroke:none;fill-rule:nonzero;fill:rgb(100%,100%,100%);fill-opacity:1;" d="M 12.496094 0.355469 C 5.804688 0.355469 0.355469 5.804688 0.355469 12.496094 C 0.355469 19.191406 5.804688 24.640625 12.496094 24.640625 C 19.191406 24.640625 24.640625 19.191406 24.640625 12.496094 C 24.640625 5.804688 19.191406 0.355469 12.496094 0.355469 Z M 14.457031 5.167969 C 14.457031 6.105469 13.679688 7.015625 12.496094 7.015625 C 11.3125 7.015625 10.539062 6.105469 10.539062 5.167969 C 10.539062 3.792969 11.730469 3.0625 12.496094 1.148438 C 13.265625 3.0625 14.457031 3.792969 14.457031 5.167969 Z M 12.496094 24.078125 C 6.101562 24.078125 0.917969 18.894531 0.917969 12.496094 C 0.917969 6.328125 5.742188 1.289062 11.824219 0.9375 L 10.480469 3.054688 C 9.90625 3.960938 9.8125 4.714844 9.8125 5.128906 C 9.8125 6.722656 11.222656 7.773438 12.496094 7.773438 C 13.773438 7.773438 15.183594 6.722656 15.183594 5.128906 C 15.183594 4.714844 15.085938 3.960938 14.515625 3.054688 L 13.175781 0.9375 C 19.253906 1.289062 24.078125 6.328125 24.078125 12.496094 C 24.078125 18.894531 18.894531 24.078125 12.496094 24.078125 Z M 12.496094 24.078125 "/>
<path style=" stroke:none;fill-rule:nonzero;fill:rgb(100%,100%,100%);fill-opacity:1;" d="M 15.207031 2.324219 C 15.652344 2.945312 16.230469 3.835938 16.230469 5.085938 C 16.230469 7.03125 14.585938 8.847656 12.496094 8.847656 C 10.410156 8.847656 8.765625 7.03125 8.765625 5.085938 C 8.765625 3.835938 9.34375 2.945312 9.789062 2.324219 C 5.289062 3.519531 1.972656 7.621094 1.972656 12.496094 C 1.972656 18.3125 6.683594 23.023438 12.496094 23.023438 C 18.3125 23.023438 23.023438 18.3125 23.023438 12.496094 C 23.023438 7.621094 19.707031 3.519531 15.207031 2.324219 Z M 5.828125 19.589844 C 4.664062 18.25 3.917969 16.640625 3.777344 14.632812 L 3.777344 10.714844 C 3.777344 10.144531 3.996094 9.386719 4.816406 9.386719 C 5.453125 9.386719 5.613281 9.386719 5.613281 9.386719 C 6.011719 9.386719 6.660156 9.507812 6.660156 10.382812 C 6.660156 11.257812 6.660156 19.125 6.660156 19.125 C 6.660156 19.839844 6.210938 20.03125 5.828125 19.589844 Z M 7.894531 21.429688 C 7.25 21.0625 6.679688 20.605469 6.171875 20.050781 C 6.171875 20.050781 6.363281 20.117188 6.578125 19.992188 C 6.800781 19.859375 6.878906 19.550781 6.878906 19.378906 C 6.878906 19.191406 6.878906 15.59375 6.878906 15.378906 C 7.097656 15.378906 7.269531 15.136719 7.269531 14.925781 C 7.269531 14.925781 7.269531 11.667969 7.269531 11.429688 C 7.269531 11.109375 7.078125 10.964844 6.886719 10.964844 C 6.886719 10.9375 6.886719 9.402344 6.886719 9.402344 L 8.527344 9.402344 C 8.527344 9.402344 8.527344 10.84375 8.527344 10.964844 C 8.347656 10.964844 8.144531 11.148438 8.144531 11.429688 C 8.144531 11.574219 8.144531 14.785156 8.144531 14.917969 C 8.144531 15.164062 8.289062 15.378906 8.460938 15.378906 C 8.460938 15.488281 8.460938 20.875 8.460938 20.992188 C 8.460938 21.363281 8.171875 21.589844 7.894531 21.429688 Z M 10.699219 22.496094 C 9.785156 22.355469 9.050781 22.046875 8.269531 21.628906 C 8.269531 21.628906 8.660156 21.558594 8.660156 21.152344 C 8.660156 20.96875 8.660156 15.59375 8.660156 15.378906 C 8.882812 15.378906 9.109375 15.171875 9.109375 14.917969 C 9.109375 14.917969 9.109375 11.667969 9.109375 11.429688 C 9.109375 11.121094 8.921875 10.964844 8.738281 10.964844 C 8.738281 10.9375 8.738281 9.402344 8.738281 9.402344 L 10.515625 9.402344 C 10.515625 9.402344 10.515625 10.84375 10.515625 10.964844 C 10.324219 10.964844 10 11.121094 10 11.429688 C 10 11.574219 9.996094 14.734375 10 14.867188 C 10.003906 15.179688 10.015625 15.386719 10.339844 15.386719 C 10.660156 15.386719 10.699219 15.238281 10.699219 14.894531 C 10.699219 14.390625 10.699219 13.761719 10.699219 13.761719 L 11.457031 13.761719 L 11.457031 21.855469 C 11.457031 22.292969 11.125 22.5625 10.699219 22.496094 Z M 13.734375 22.578125 C 13.289062 22.648438 12.902344 22.667969 12.476562 22.667969 C 12.101562 22.667969 11.5625 22.644531 11.203125 22.601562 C 11.203125 22.601562 11.652344 22.496094 11.652344 21.890625 C 11.652344 21.707031 11.652344 15.59375 11.652344 15.382812 C 11.839844 15.382812 11.941406 15.183594 11.941406 14.917969 C 11.941406 14.917969 11.953125 11.667969 11.941406 11.429688 C 11.941406 11.152344 11.757812 10.964844 11.308594 10.964844 C 11.308594 10.9375 11.308594 9.410156 11.308594 9.410156 L 14.578125 9.410156 C 14.578125 9.410156 14.578125 11.835938 14.578125 11.953125 L 13.746094 11.953125 C 13.746094 11.953125 13.746094 11.667969 13.746094 11.441406 C 13.746094 11.214844 13.707031 10.953125 13.417969 10.953125 C 13.058594 10.953125 13.003906 11.1875 13.003906 11.492188 C 13.003906 11.535156 13.003906 11.890625 13 12.289062 L 13.828125 12.289062 L 13.828125 13.429688 L 13 13.429688 C 13 14.023438 13 14.796875 13.003906 14.851562 C 13.007812 15.183594 13.015625 15.402344 13.34375 15.402344 C 13.664062 15.402344 13.703125 15.25 13.703125 14.851562 C 13.703125 14.347656 13.703125 13.769531 13.703125 13.769531 L 14.566406 13.769531 L 14.566406 21.679688 C 14.566406 22.167969 14.203125 22.5 13.734375 22.578125 Z M 18.304688 19.640625 C 18.292969 20.304688 18.246094 20.496094 18.097656 20.628906 C 17.664062 21.027344 17.34375 21.230469 16.789062 21.550781 C 16.816406 21.527344 16.898438 21.40625 16.886719 20.769531 C 16.886719 20.769531 16.886719 14.039062 16.886719 13.734375 C 16.886719 13.429688 16.757812 13.21875 16.53125 13.21875 C 16.253906 13.21875 16.179688 13.457031 16.179688 13.679688 C 16.179688 13.828125 16.179688 14.785156 16.179688 14.917969 C 16.179688 15.195312 16.449219 15.390625 16.667969 15.390625 C 16.667969 15.496094 16.667969 20.808594 16.667969 20.925781 C 16.667969 21.339844 16.5625 21.699219 16.285156 21.816406 C 15.757812 22.042969 15.039062 22.308594 14.472656 22.4375 C 14.472656 22.4375 14.78125 22.238281 14.773438 21.363281 C 14.773438 21.179688 14.773438 15.59375 14.773438 15.378906 C 14.984375 15.378906 15.199219 15.183594 15.199219 14.917969 C 15.199219 14.917969 15.199219 11.679688 15.199219 11.441406 C 15.199219 11.167969 14.960938 10.964844 14.8125 10.964844 C 14.8125 10.9375 14.8125 9.402344 14.8125 9.402344 L 17.144531 9.402344 C 17.621094 9.453125 17.960938 9.625 17.960938 10.316406 C 17.960938 10.820312 17.960938 11.601562 17.960938 11.773438 C 17.960938 11.945312 18.015625 12.394531 17.789062 12.582031 C 17.5625 12.765625 17.601562 12.753906 17.601562 12.753906 C 17.601562 12.753906 17.933594 12.910156 17.933594 13.296875 C 17.933594 13.679688 17.933594 14.714844 17.933594 14.914062 C 17.933594 15.171875 18.082031 15.378906 18.304688 15.378906 Z M 19.472656 11.347656 C 19.472656 11.507812 19.472656 12.023438 19.472656 12.15625 C 19.472656 12.289062 19.554688 12.371094 19.667969 12.460938 C 19.855469 12.609375 20.808594 13.375 20.808594 13.375 C 20.914062 13.496094 21.152344 13.613281 21.152344 14.066406 C 21.152344 14.4375 21.214844 15.636719 20.691406 16.886719 C 20.171875 18.121094 19.578125 19.085938 18.503906 20.277344 L 18.503906 13.8125 L 19.378906 13.8125 L 19.378906 15.058594 C 19.390625 15.523438 20.121094 15.46875 20.121094 15.125 C 20.121094 14.78125 20.121094 14.394531 20.121094 14.25 C 20.121094 14.105469 20.121094 14.066406 20.039062 14 C 19.960938 13.933594 18.808594 13.003906 18.714844 12.9375 C 18.621094 12.871094 18.570312 12.765625 18.570312 12.5 C 18.570312 12.238281 18.570312 10.0625 18.570312 10.0625 C 18.582031 9.746094 18.75 9.402344 19.253906 9.402344 L 20.484375 9.402344 C 20.960938 9.453125 21.21875 9.613281 21.21875 10.210938 C 21.21875 10.714844 21.21875 11.8125 21.21875 11.984375 L 20.199219 11.984375 L 20.199219 11.363281 C 20.199219 10.84375 19.472656 10.832031 19.472656 11.347656 Z M 19.472656 11.347656 "/>
<path style=" stroke:none;fill-rule:nonzero;fill:rgb(100%,100%,100%);fill-opacity:1;" d="M 4.777344 11.378906 C 4.777344 11.378906 4.777344 14.4375 4.777344 14.992188 C 4.777344 15.574219 5.601562 15.550781 5.601562 14.964844 L 5.601562 11.351562 C 5.5625 10.796875 4.777344 10.824219 4.777344 11.378906 Z M 4.777344 11.378906 "/>
<path style=" stroke:none;fill-rule:nonzero;fill:rgb(100%,100%,100%);fill-opacity:1;" d="M 16.226562 11.351562 C 16.226562 11.351562 16.226562 11.5625 16.226562 12.007812 C 16.226562 12.472656 16.882812 12.453125 16.882812 11.984375 C 16.882812 11.5625 16.898438 11.605469 16.882812 11.332031 C 16.851562 10.84375 16.226562 10.863281 16.226562 11.351562 Z M 16.226562 11.351562 "/>
<path style=" stroke:none;fill-rule:nonzero;fill:rgb(89.803922%,41.960784%,12.156863%);fill-opacity:1;" d="M 12.496094 1.148438 C 11.730469 3.0625 10.539062 3.792969 10.539062 5.167969 C 10.539062 6.105469 11.3125 7.015625 12.496094 7.015625 C 13.679688 7.015625 14.457031 6.105469 14.457031 5.167969 C 14.457031 3.792969 13.265625 3.0625 12.496094 1.148438 Z M 12.496094 1.148438 "/>
<path style=" stroke:none;fill-rule:nonzero;fill:rgb(100%,100%,100%);fill-opacity:1;" d="M 12.496094 0 C 5.605469 0 0 5.605469 0 12.496094 C 0 19.390625 5.605469 24.996094 12.496094 24.996094 C 19.390625 24.996094 24.996094 19.390625 24.996094 12.496094 C 24.996094 5.605469 19.390625 0 12.496094 0 Z M 12.496094 24.640625 C 5.804688 24.640625 0.355469 19.191406 0.355469 12.496094 C 0.355469 5.804688 5.804688 0.355469 12.496094 0.355469 C 19.191406 0.355469 24.640625 5.804688 24.640625 12.496094 C 24.640625 19.191406 19.191406 24.640625 12.496094 24.640625 Z M 12.496094 24.640625 "/>
<path style=" stroke:none;fill-rule:nonzero;fill:rgb(0%,21.960784%,46.27451%);fill-opacity:1;" d="M 13.175781 0.9375 L 14.515625 3.054688 C 15.085938 3.960938 15.183594 4.714844 15.183594 5.128906 C 15.183594 6.722656 13.773438 7.773438 12.496094 7.773438 C 11.222656 7.773438 9.8125 6.722656 9.8125 5.128906 C 9.8125 4.714844 9.90625 3.960938 10.480469 3.054688 L 11.824219 0.9375 C 5.742188 1.289062 0.917969 6.328125 0.917969 12.496094 C 0.917969 18.894531 6.101562 24.078125 12.496094 24.078125 C 18.894531 24.078125 24.078125 18.894531 24.078125 12.496094 C 24.078125 6.328125 19.253906 1.289062 13.175781 0.9375 Z M 12.496094 23.023438 C 6.683594 23.023438 1.972656 18.3125 1.972656 12.496094 C 1.972656 7.621094 5.289062 3.519531 9.789062 2.324219 C 9.34375 2.945312 8.765625 3.835938 8.765625 5.085938 C 8.765625 7.03125 10.410156 8.847656 12.496094 8.847656 C 14.585938 8.847656 16.230469 7.03125 16.230469 5.085938 C 16.230469 3.835938 15.652344 2.945312 15.207031 2.324219 C 19.707031 3.519531 23.023438 7.621094 23.023438 12.496094 C 23.023438 18.3125 18.3125 23.023438 12.496094 23.023438 Z M 12.496094 23.023438 "/>
<path style=" stroke:none;fill-rule:nonzero;fill:rgb(0%,21.960784%,46.27451%);fill-opacity:1;" d="M 8.460938 20.992188 C 8.460938 20.875 8.460938 15.488281 8.460938 15.378906 C 8.289062 15.378906 8.144531 15.164062 8.144531 14.917969 C 8.144531 14.785156 8.144531 11.574219 8.144531 11.429688 C 8.144531 11.152344 8.347656 10.964844 8.527344 10.964844 C 8.527344 10.84375 8.527344 9.402344 8.527344 9.402344 L 6.886719 9.402344 C 6.886719 9.402344 6.886719 10.9375 6.886719 10.964844 C 7.078125 10.964844 7.269531 11.109375 7.269531 11.429688 C 7.269531 11.667969 7.269531 14.925781 7.269531 14.925781 C 7.269531 15.136719 7.097656 15.378906 6.878906 15.378906 C 6.878906 15.59375 6.878906 19.191406 6.878906 19.378906 C 6.878906 19.550781 6.800781 19.859375 6.578125 19.992188 C 6.363281 20.117188 6.171875 20.050781 6.171875 20.050781 C 6.679688 20.605469 7.25 21.0625 7.894531 21.429688 C 8.171875 21.589844 8.460938 21.363281 8.460938 20.992188 Z M 8.460938 20.992188 "/>
<path style=" stroke:none;fill-rule:nonzero;fill:rgb(0%,21.960784%,46.27451%);fill-opacity:1;" d="M 11.457031 21.855469 L 11.457031 13.761719 L 10.699219 13.761719 C 10.699219 13.761719 10.699219 14.390625 10.699219 14.894531 C 10.699219 15.238281 10.660156 15.386719 10.339844 15.386719 C 10.015625 15.386719 10.003906 15.179688 10 14.867188 C 9.996094 14.734375 10 11.574219 10 11.429688 C 10 11.121094 10.324219 10.964844 10.515625 10.964844 C 10.515625 10.84375 10.515625 9.402344 10.515625 9.402344 L 8.738281 9.402344 C 8.738281 9.402344 8.738281 10.9375 8.738281 10.964844 C 8.921875 10.964844 9.109375 11.121094 9.109375 11.429688 C 9.109375 11.667969 9.109375 14.917969 9.109375 14.917969 C 9.109375 15.171875 8.882812 15.378906 8.660156 15.378906 C 8.660156 15.59375 8.660156 20.96875 8.660156 21.152344 C 8.660156 21.558594 8.269531 21.628906 8.269531 21.628906 C 9.050781 22.046875 9.785156 22.355469 10.699219 22.496094 C 11.125 22.5625 11.457031 22.292969 11.457031 21.855469 Z M 11.457031 21.855469 "/>
<path style=" stroke:none;fill-rule:nonzero;fill:rgb(0%,21.960784%,46.27451%);fill-opacity:1;" d="M 14.566406 13.769531 L 13.703125 13.769531 C 13.703125 13.769531 13.703125 14.347656 13.703125 14.851562 C 13.703125 15.25 13.664062 15.402344 13.34375 15.402344 C 13.015625 15.402344 13.007812 15.183594 13.003906 14.851562 C 13 14.796875 13 14.023438 13 13.429688 L 13.828125 13.429688 L 13.828125 12.289062 L 13 12.289062 C 13.003906 11.890625 13.003906 11.535156 13.003906 11.492188 C 13.003906 11.1875 13.058594 10.953125 13.417969 10.953125 C 13.707031 10.953125 13.746094 11.214844 13.746094 11.441406 C 13.746094 11.667969 13.746094 11.953125 13.746094 11.953125 L 14.578125 11.953125 C 14.578125 11.835938 14.578125 9.410156 14.578125 9.410156 L 11.308594 9.410156 C 11.308594 9.410156 11.308594 10.9375 11.308594 10.964844 C 11.757812 10.964844 11.941406 11.152344 11.941406 11.429688 C 11.953125 11.667969 11.941406 14.917969 11.941406 14.917969 C 11.941406 15.183594 11.839844 15.378906 11.652344 15.378906 C 11.652344 15.59375 11.652344 21.707031 11.652344 21.890625 C 11.652344 22.496094 11.203125 22.601562 11.203125 22.601562 C 11.5625 22.644531 12.101562 22.667969 12.476562 22.667969 C 12.902344 22.667969 13.289062 22.648438 13.734375 22.578125 C 14.203125 22.5 14.566406 22.167969 14.566406 21.679688 Z M 14.566406 13.769531 "/>
<path style=" stroke:none;fill-rule:nonzero;fill:rgb(0%,21.960784%,46.27451%);fill-opacity:1;" d="M 21.21875 11.984375 C 21.21875 11.8125 21.21875 10.714844 21.21875 10.210938 C 21.21875 9.613281 20.960938 9.453125 20.484375 9.402344 L 19.253906 9.402344 C 18.75 9.402344 18.582031 9.746094 18.570312 10.0625 C 18.570312 10.0625 18.570312 12.238281 18.570312 12.5 C 18.570312 12.765625 18.621094 12.871094 18.714844 12.9375 C 18.808594 13.003906 19.960938 13.933594 20.039062 14 C 20.121094 14.066406 20.121094 14.105469 20.121094 14.25 C 20.121094 14.394531 20.121094 14.78125 20.121094 15.125 C 20.121094 15.46875 19.390625 15.523438 19.378906 15.058594 L 19.378906 13.8125 L 18.503906 13.8125 L 18.503906 20.277344 C 19.578125 19.085938 20.171875 18.117188 20.691406 16.886719 C 21.214844 15.636719 21.152344 14.4375 21.152344 14.066406 C 21.152344 13.613281 20.914062 13.496094 20.808594 13.375 C 20.808594 13.375 19.855469 12.609375 19.667969 12.460938 C 19.554688 12.371094 19.472656 12.289062 19.472656 12.15625 C 19.472656 12.023438 19.472656 11.507812 19.472656 11.347656 C 19.472656 10.832031 20.199219 10.84375 20.199219 11.363281 L 20.199219 11.984375 Z M 21.21875 11.984375 "/>
<path style=" stroke:none;fill-rule:nonzero;fill:rgb(0%,21.960784%,46.27451%);fill-opacity:1;" d="M 6.660156 19.125 C 6.660156 19.125 6.660156 11.257812 6.660156 10.382812 C 6.660156 9.507812 6.011719 9.386719 5.613281 9.386719 C 5.613281 9.386719 5.453125 9.386719 4.816406 9.386719 C 3.996094 9.386719 3.777344 10.144531 3.777344 10.714844 L 3.777344 14.632812 C 3.917969 16.640625 4.664062 18.25 5.828125 19.589844 C 6.210938 20.03125 6.660156 19.839844 6.660156 19.125 Z M 5.601562 14.964844 C 5.601562 15.550781 4.777344 15.574219 4.777344 14.992188 C 4.777344 14.4375 4.777344 11.378906 4.777344 11.378906 C 4.777344 10.824219 5.5625 10.796875 5.601562 11.351562 Z M 5.601562 14.964844 "/>
<path style=" stroke:none;fill-rule:nonzero;fill:rgb(0%,21.960784%,46.27451%);fill-opacity:1;" d="M 17.933594 14.914062 C 17.933594 14.714844 17.933594 13.679688 17.933594 13.296875 C 17.933594 12.910156 17.601562 12.753906 17.601562 12.753906 C 17.601562 12.753906 17.5625 12.765625 17.789062 12.582031 C 18.015625 12.394531 17.960938 11.945312 17.960938 11.773438 C 17.960938 11.601562 17.960938 10.820312 17.960938 10.316406 C 17.960938 9.625 17.621094 9.453125 17.144531 9.402344 L 14.8125 9.402344 C 14.8125 9.402344 14.8125 10.9375 14.8125 10.964844 C 14.960938 10.964844 15.199219 11.167969 15.199219 11.441406 C 15.199219 11.679688 15.199219 14.917969 15.199219 14.917969 C 15.199219 15.183594 14.984375 15.378906 14.773438 15.378906 C 14.773438 15.59375 14.773438 21.179688 14.773438 21.363281 C 14.78125 22.238281 14.472656 22.4375 14.472656 22.4375 C 15.039062 22.308594 15.757812 22.042969 16.285156 21.816406 C 16.5625 21.699219 16.667969 21.339844 16.667969 20.925781 C 16.667969 20.808594 16.667969 15.496094 16.667969 15.390625 C 16.449219 15.390625 16.179688 15.195312 16.179688 14.917969 C 16.179688 14.785156 16.179688 13.828125 16.179688 13.679688 C 16.179688 13.457031 16.253906 13.21875 16.53125 13.21875 C 16.757812 13.21875 16.886719 13.429688 16.886719 13.734375 C 16.886719 14.039062 16.886719 20.769531 16.886719 20.769531 C 16.898438 21.40625 16.816406 21.527344 16.789062 21.550781 C 17.34375 21.230469 17.664062 21.027344 18.097656 20.628906 C 18.246094 20.496094 18.292969 20.304688 18.304688 19.640625 L 18.304688 15.378906 C 18.082031 15.378906 17.933594 15.171875 17.933594 14.914062 Z M 16.882812 11.984375 C 16.882812 12.453125 16.226562 12.472656 16.226562 12.007812 C 16.226562 11.5625 16.226562 11.351562 16.226562 11.351562 C 16.226562 10.863281 16.851562 10.84375 16.882812 11.332031 C 16.898438 11.605469 16.882812 11.5625 16.882812 11.984375 Z M 16.882812 11.984375 "/>
</g>
</svg>
