<?xml version="1.0" encoding="UTF-8"?>
<svg xmlns="http://www.w3.org/2000/svg" xmlns:xlink="http://www.w3.org/1999/xlink" width="28pt" height="20pt" viewBox="0 0 28 20" version="1.1">
<g id="surface1">
<path style=" stroke:none;fill-rule:nonzero;fill:rgb(10.196078%,39.215686%,71.764706%);fill-opacity:1;" d="M 7.820312 16.300781 L 6.71875 16.855469 C 6.660156 16.878906 6.625 16.898438 6.617188 16.910156 C 6.585938 16.945312 6.59375 16.992188 6.632812 17.050781 L 6.601562 17.085938 L 6.125 16.660156 L 6.15625 16.625 C 6.210938 16.660156 6.257812 16.660156 6.292969 16.617188 C 6.304688 16.609375 6.320312 16.566406 6.351562 16.496094 L 6.902344 15.023438 C 6.929688 14.953125 6.941406 14.898438 6.941406 14.863281 C 6.941406 14.828125 6.929688 14.796875 6.902344 14.757812 L 6.933594 14.726562 L 7.445312 15.183594 L 7.414062 15.21875 C 7.359375 15.1875 7.320312 15.1875 7.289062 15.222656 C 7.277344 15.238281 7.261719 15.265625 7.246094 15.308594 L 6.839844 16.351562 L 7.859375 15.847656 C 7.902344 15.828125 7.929688 15.808594 7.9375 15.800781 C 7.96875 15.765625 7.964844 15.722656 7.921875 15.671875 L 7.953125 15.636719 L 8.488281 16.117188 L 8.460938 16.152344 C 8.398438 16.117188 8.351562 16.121094 8.324219 16.15625 C 8.3125 16.167969 8.300781 16.195312 8.28125 16.238281 L 7.886719 17.289062 L 8.867188 16.78125 C 8.914062 16.757812 8.949219 16.734375 8.964844 16.714844 C 8.992188 16.683594 8.984375 16.636719 8.945312 16.582031 L 8.972656 16.546875 L 9.484375 17.003906 L 9.453125 17.035156 C 9.40625 17.015625 9.371094 17.003906 9.34375 17.011719 C 9.316406 17.011719 9.265625 17.03125 9.191406 17.070312 L 7.792969 17.78125 C 7.722656 17.816406 7.683594 17.839844 7.667969 17.859375 C 7.636719 17.894531 7.640625 17.9375 7.6875 17.992188 L 7.65625 18.027344 L 7.175781 17.597656 L 7.203125 17.5625 C 7.261719 17.601562 7.308594 17.597656 7.347656 17.558594 C 7.355469 17.542969 7.375 17.5 7.398438 17.429688 L 7.820312 16.300781 "/>
<path style=" stroke:none;fill-rule:nonzero;fill:rgb(10.196078%,39.215686%,71.764706%);fill-opacity:1;" d="M 7.195312 17.597656 L 7.652344 18.003906 L 7.667969 17.992188 C 7.644531 17.964844 7.632812 17.933594 7.632812 17.90625 C 7.632812 17.886719 7.640625 17.863281 7.65625 17.847656 C 7.675781 17.828125 7.714844 17.800781 7.785156 17.765625 L 9.183594 17.054688 C 9.257812 17.019531 9.308594 16.996094 9.339844 16.992188 C 9.34375 16.992188 9.351562 16.992188 9.355469 16.992188 C 9.382812 16.992188 9.414062 17 9.449219 17.019531 L 9.460938 17.003906 L 8.976562 16.566406 L 8.964844 16.582031 C 8.984375 16.613281 9 16.644531 9 16.667969 C 9 16.691406 8.988281 16.710938 8.976562 16.726562 C 8.957031 16.746094 8.921875 16.769531 8.875 16.792969 L 7.859375 17.320312 L 8.269531 16.230469 C 8.285156 16.1875 8.300781 16.160156 8.3125 16.144531 C 8.328125 16.125 8.355469 16.113281 8.382812 16.113281 C 8.40625 16.113281 8.429688 16.121094 8.457031 16.132812 L 8.46875 16.117188 L 7.957031 15.65625 L 7.941406 15.671875 C 7.960938 15.699219 7.972656 15.726562 7.972656 15.75 C 7.972656 15.773438 7.964844 15.792969 7.949219 15.808594 C 7.9375 15.824219 7.910156 15.839844 7.863281 15.863281 L 6.808594 16.382812 L 7.230469 15.300781 C 7.246094 15.261719 7.261719 15.230469 7.28125 15.210938 C 7.296875 15.1875 7.320312 15.179688 7.347656 15.179688 C 7.367188 15.179688 7.390625 15.1875 7.414062 15.199219 L 7.425781 15.183594 L 6.933594 14.746094 L 6.921875 14.757812 C 6.945312 14.792969 6.957031 14.828125 6.957031 14.863281 C 6.957031 14.902344 6.945312 14.953125 6.917969 15.027344 L 6.363281 16.5 C 6.335938 16.574219 6.320312 16.613281 6.304688 16.628906 C 6.285156 16.652344 6.257812 16.667969 6.230469 16.667969 C 6.207031 16.667969 6.183594 16.660156 6.160156 16.648438 L 6.148438 16.660156 L 6.601562 17.066406 L 6.613281 17.050781 C 6.59375 17.019531 6.582031 16.988281 6.582031 16.960938 C 6.582031 16.9375 6.589844 16.917969 6.601562 16.898438 C 6.621094 16.882812 6.652344 16.867188 6.710938 16.839844 L 7.8125 16.289062 L 7.847656 16.269531 L 7.414062 17.4375 C 7.386719 17.507812 7.371094 17.550781 7.355469 17.570312 C 7.335938 17.589844 7.308594 17.605469 7.28125 17.605469 C 7.257812 17.605469 7.230469 17.597656 7.207031 17.585938 Z M 7.152344 17.597656 L 7.160156 17.585938 L 7.199219 17.542969 L 7.210938 17.550781 C 7.238281 17.566406 7.261719 17.574219 7.28125 17.574219 C 7.300781 17.574219 7.316406 17.566406 7.332031 17.546875 C 7.34375 17.539062 7.359375 17.496094 7.382812 17.425781 L 7.789062 16.335938 L 6.726562 16.867188 C 6.667969 16.894531 6.632812 16.914062 6.625 16.921875 C 6.617188 16.933594 6.613281 16.945312 6.613281 16.960938 C 6.613281 16.980469 6.621094 17.007812 6.644531 17.042969 L 6.652344 17.054688 L 6.644531 17.0625 L 6.601562 17.109375 L 6.105469 16.660156 L 6.113281 16.652344 L 6.152344 16.609375 L 6.164062 16.613281 C 6.1875 16.628906 6.210938 16.632812 6.230469 16.632812 C 6.25 16.632812 6.265625 16.625 6.285156 16.609375 C 6.289062 16.601562 6.3125 16.558594 6.335938 16.488281 L 6.886719 15.019531 C 6.914062 14.949219 6.925781 14.894531 6.925781 14.863281 C 6.925781 14.832031 6.917969 14.800781 6.890625 14.769531 L 6.882812 14.757812 L 6.890625 14.75 L 6.933594 14.703125 L 7.46875 15.183594 L 7.460938 15.195312 L 7.421875 15.238281 L 7.410156 15.230469 C 7.386719 15.21875 7.363281 15.210938 7.347656 15.210938 C 7.328125 15.210938 7.316406 15.214844 7.304688 15.230469 C 7.292969 15.246094 7.277344 15.273438 7.261719 15.3125 L 6.867188 16.320312 L 7.851562 15.832031 C 7.894531 15.8125 7.921875 15.796875 7.925781 15.789062 C 7.941406 15.777344 7.941406 15.765625 7.941406 15.75 C 7.941406 15.730469 7.933594 15.707031 7.910156 15.679688 L 7.902344 15.671875 L 7.914062 15.660156 L 7.953125 15.613281 L 8.515625 16.113281 L 8.503906 16.125 L 8.464844 16.167969 L 8.457031 16.164062 C 8.425781 16.148438 8.402344 16.144531 8.382812 16.144531 C 8.363281 16.144531 8.347656 16.152344 8.335938 16.164062 C 8.328125 16.171875 8.316406 16.199219 8.300781 16.242188 L 7.914062 17.253906 L 8.859375 16.765625 C 8.910156 16.742188 8.941406 16.71875 8.953125 16.703125 C 8.964844 16.691406 8.964844 16.683594 8.96875 16.667969 C 8.96875 16.652344 8.957031 16.625 8.933594 16.59375 L 8.921875 16.582031 L 8.933594 16.570312 L 8.972656 16.527344 L 9.503906 17 L 9.496094 17.011719 L 9.457031 17.054688 L 9.445312 17.050781 C 9.410156 17.03125 9.378906 17.023438 9.355469 17.023438 C 9.351562 17.023438 9.347656 17.023438 9.34375 17.023438 C 9.320312 17.027344 9.269531 17.046875 9.195312 17.082031 L 7.800781 17.796875 C 7.734375 17.828125 7.691406 17.855469 7.679688 17.867188 C 7.667969 17.882812 7.664062 17.890625 7.664062 17.90625 C 7.664062 17.925781 7.671875 17.953125 7.699219 17.984375 L 7.707031 17.992188 L 7.699219 18.003906 L 7.65625 18.050781 L 7.152344 17.597656 "/>
<path style=" stroke:none;fill-rule:nonzero;fill:rgb(10.196078%,39.215686%,71.764706%);fill-opacity:1;" d="M 9.839844 18.351562 L 9.859375 17.574219 L 9.257812 18.066406 Z M 9.832031 18.648438 L 9.019531 18.253906 L 8.777344 18.445312 C 8.746094 18.472656 8.722656 18.496094 8.710938 18.515625 C 8.695312 18.554688 8.710938 18.59375 8.761719 18.636719 L 8.738281 18.679688 L 8.152344 18.390625 L 8.171875 18.351562 C 8.210938 18.359375 8.242188 18.359375 8.269531 18.351562 C 8.296875 18.34375 8.332031 18.320312 8.378906 18.28125 L 9.707031 17.230469 C 9.75 17.199219 9.777344 17.167969 9.789062 17.144531 C 9.808594 17.101562 9.796875 17.0625 9.753906 17.019531 L 9.773438 16.976562 L 10.40625 17.285156 L 10.386719 17.328125 C 10.328125 17.320312 10.289062 17.332031 10.273438 17.367188 C 10.257812 17.394531 10.253906 17.425781 10.253906 17.464844 L 10.261719 19.171875 C 10.261719 19.246094 10.269531 19.296875 10.277344 19.328125 C 10.289062 19.359375 10.3125 19.390625 10.347656 19.414062 L 10.324219 19.453125 L 9.667969 19.132812 L 9.6875 19.089844 C 9.75 19.109375 9.792969 19.097656 9.816406 19.054688 C 9.824219 19.035156 9.828125 19.003906 9.828125 18.957031 L 9.832031 18.648438 "/>
<path style=" stroke:none;fill-rule:nonzero;fill:rgb(10.196078%,39.215686%,71.764706%);fill-opacity:1;" d="M 9.285156 18.0625 L 9.820312 18.328125 L 9.84375 17.605469 Z M 9.839844 18.351562 L 9.84375 18.335938 Z M 9.226562 18.070312 L 9.875 17.542969 L 9.855469 18.351562 L 9.851562 18.375 Z M 9.691406 19.125 L 10.316406 19.433594 L 10.324219 19.417969 C 10.296875 19.394531 10.277344 19.363281 10.265625 19.332031 C 10.25 19.300781 10.246094 19.246094 10.246094 19.171875 L 10.238281 17.472656 C 10.238281 17.46875 10.238281 17.46875 10.238281 17.46875 C 10.238281 17.421875 10.246094 17.390625 10.257812 17.363281 C 10.273438 17.328125 10.308594 17.3125 10.351562 17.3125 C 10.363281 17.3125 10.375 17.3125 10.371094 17.324219 L 10.386719 17.292969 L 9.785156 17 L 9.773438 17.019531 C 9.800781 17.042969 9.8125 17.074219 9.8125 17.105469 C 9.8125 17.121094 9.808594 17.136719 9.804688 17.148438 C 9.789062 17.179688 9.761719 17.210938 9.71875 17.246094 L 8.390625 18.292969 C 8.339844 18.332031 8.304688 18.355469 8.273438 18.367188 C 8.261719 18.371094 8.242188 18.371094 8.230469 18.371094 C 8.214844 18.371094 8.195312 18.371094 8.179688 18.367188 L 8.171875 18.382812 L 8.734375 18.660156 L 8.742188 18.640625 C 8.710938 18.609375 8.691406 18.582031 8.691406 18.546875 C 8.691406 18.53125 8.695312 18.519531 8.699219 18.507812 C 8.710938 18.484375 8.734375 18.460938 8.769531 18.433594 L 9.027344 18.242188 L 9.839844 18.636719 L 9.832031 18.652344 L 9.847656 18.652344 L 9.847656 18.960938 C 9.847656 19.007812 9.84375 19.039062 9.832031 19.0625 C 9.8125 19.097656 9.78125 19.117188 9.742188 19.117188 C 9.726562 19.117188 9.714844 19.113281 9.699219 19.109375 Z M 9.648438 19.140625 L 9.65625 19.128906 L 9.683594 19.074219 L 9.691406 19.078125 C 9.710938 19.082031 9.726562 19.085938 9.738281 19.085938 C 9.769531 19.085938 9.789062 19.074219 9.804688 19.046875 C 9.808594 19.035156 9.8125 19.003906 9.8125 18.960938 L 9.8125 18.660156 L 9.03125 18.265625 L 8.789062 18.457031 C 8.753906 18.484375 8.734375 18.507812 8.726562 18.523438 C 8.722656 18.53125 8.71875 18.539062 8.71875 18.546875 C 8.71875 18.570312 8.734375 18.597656 8.769531 18.625 L 8.78125 18.632812 L 8.777344 18.644531 L 8.746094 18.703125 L 8.128906 18.398438 L 8.136719 18.386719 L 8.164062 18.332031 L 8.175781 18.335938 C 8.195312 18.339844 8.210938 18.34375 8.230469 18.34375 C 8.242188 18.34375 8.253906 18.34375 8.265625 18.339844 C 8.289062 18.332031 8.324219 18.308594 8.371094 18.269531 L 9.699219 17.222656 C 9.738281 17.191406 9.761719 17.160156 9.777344 17.136719 C 9.78125 17.128906 9.785156 17.117188 9.785156 17.105469 C 9.785156 17.082031 9.773438 17.058594 9.746094 17.03125 L 9.738281 17.023438 L 9.769531 16.960938 L 10.429688 17.28125 L 10.421875 17.296875 L 10.386719 17.34375 C 10.371094 17.34375 10.359375 17.339844 10.355469 17.339844 C 10.316406 17.34375 10.296875 17.351562 10.285156 17.375 C 10.277344 17.394531 10.269531 17.425781 10.269531 17.464844 L 10.261719 17.464844 L 10.269531 17.46875 L 10.277344 19.171875 C 10.277344 19.242188 10.285156 19.292969 10.292969 19.324219 C 10.304688 19.351562 10.324219 19.378906 10.355469 19.402344 L 10.363281 19.40625 L 10.359375 19.421875 L 10.332031 19.476562 L 9.648438 19.140625 "/>
<path style=" stroke:none;fill-rule:nonzero;fill:rgb(10.196078%,39.215686%,71.764706%);fill-opacity:1;" d="M 11.316406 18.511719 L 11.972656 18.648438 C 12.070312 18.667969 12.136719 18.679688 12.179688 18.683594 C 12.21875 18.6875 12.257812 18.683594 12.292969 18.667969 C 12.375 18.648438 12.425781 18.582031 12.449219 18.484375 C 12.46875 18.378906 12.445312 18.304688 12.382812 18.25 C 12.351562 18.222656 12.316406 18.203125 12.28125 18.191406 C 12.242188 18.175781 12.175781 18.160156 12.078125 18.140625 L 11.421875 18.003906 Z M 11.25 18.832031 L 11.117188 19.476562 C 11.109375 19.503906 11.113281 19.527344 11.121094 19.546875 C 11.132812 19.5625 11.152344 19.582031 11.183594 19.597656 L 11.175781 19.640625 L 10.570312 19.515625 L 10.578125 19.46875 C 10.617188 19.46875 10.640625 19.460938 10.65625 19.449219 C 10.675781 19.433594 10.6875 19.414062 10.695312 19.386719 L 11.035156 17.742188 C 11.042969 17.714844 11.039062 17.6875 11.027344 17.671875 C 11.019531 17.652344 11 17.636719 10.964844 17.617188 L 10.976562 17.574219 L 12.191406 17.828125 C 12.335938 17.859375 12.453125 17.890625 12.535156 17.925781 C 12.621094 17.964844 12.691406 18.007812 12.746094 18.0625 C 12.808594 18.128906 12.851562 18.207031 12.871094 18.300781 C 12.890625 18.390625 12.890625 18.480469 12.867188 18.574219 C 12.804688 18.890625 12.589844 19.039062 12.226562 19.019531 L 12.488281 19.632812 C 12.535156 19.738281 12.570312 19.8125 12.597656 19.84375 C 12.621094 19.878906 12.65625 19.902344 12.703125 19.914062 L 12.691406 19.957031 L 11.992188 19.8125 L 12 19.765625 C 12.050781 19.769531 12.078125 19.757812 12.082031 19.730469 C 12.085938 19.710938 12.070312 19.667969 12.042969 19.59375 L 11.769531 18.9375 L 11.25 18.832031 "/>
<path style=" stroke:none;fill-rule:nonzero;fill:rgb(10.196078%,39.215686%,71.764706%);fill-opacity:1;" d="M 11.972656 18.632812 C 12.070312 18.652344 12.140625 18.664062 12.179688 18.667969 C 12.1875 18.667969 12.195312 18.667969 12.203125 18.667969 C 12.234375 18.667969 12.261719 18.664062 12.289062 18.65625 C 12.363281 18.632812 12.410156 18.574219 12.433594 18.476562 C 12.4375 18.457031 12.4375 18.429688 12.4375 18.410156 C 12.4375 18.347656 12.417969 18.296875 12.371094 18.261719 C 12.34375 18.238281 12.3125 18.21875 12.277344 18.203125 C 12.242188 18.191406 12.171875 18.171875 12.074219 18.15625 L 11.433594 18.019531 L 11.335938 18.5 Z M 12.179688 18.699219 C 12.132812 18.695312 12.066406 18.683594 11.96875 18.664062 L 11.3125 18.527344 L 11.300781 18.523438 L 11.410156 17.984375 L 12.082031 18.125 C 12.179688 18.144531 12.25 18.160156 12.285156 18.175781 C 12.324219 18.1875 12.363281 18.210938 12.394531 18.238281 C 12.445312 18.28125 12.46875 18.339844 12.46875 18.410156 C 12.46875 18.433594 12.46875 18.457031 12.460938 18.484375 C 12.441406 18.589844 12.386719 18.660156 12.300781 18.683594 C 12.269531 18.695312 12.234375 18.699219 12.203125 18.699219 C 12.195312 18.699219 12.1875 18.699219 12.179688 18.699219 M 11.25 18.847656 L 11.25 18.832031 Z M 12.007812 19.800781 L 12.679688 19.941406 L 12.683594 19.925781 C 12.644531 19.914062 12.609375 19.886719 12.585938 19.855469 C 12.558594 19.820312 12.523438 19.746094 12.476562 19.640625 L 12.203125 19.003906 L 12.226562 19.003906 C 12.246094 19.003906 12.265625 19.003906 12.289062 19.003906 C 12.609375 19.003906 12.792969 18.863281 12.855469 18.570312 C 12.863281 18.523438 12.867188 18.476562 12.867188 18.429688 C 12.867188 18.386719 12.867188 18.347656 12.855469 18.304688 C 12.835938 18.214844 12.796875 18.140625 12.734375 18.078125 C 12.679688 18.023438 12.613281 17.976562 12.53125 17.941406 C 12.449219 17.90625 12.335938 17.875 12.1875 17.84375 L 10.980469 17.589844 L 10.972656 17.605469 C 11.007812 17.625 11.03125 17.640625 11.042969 17.664062 C 11.050781 17.679688 11.054688 17.695312 11.054688 17.714844 C 11.054688 17.722656 11.054688 17.734375 11.050781 17.746094 L 10.707031 19.390625 C 10.699219 19.421875 10.6875 19.445312 10.667969 19.460938 C 10.648438 19.476562 10.617188 19.484375 10.59375 19.472656 L 10.589844 19.503906 L 11.167969 19.625 L 11.175781 19.609375 C 11.144531 19.59375 11.121094 19.578125 11.105469 19.554688 C 11.101562 19.539062 11.097656 19.523438 11.097656 19.503906 C 11.097656 19.496094 11.097656 19.484375 11.101562 19.472656 L 11.234375 18.828125 L 11.238281 18.8125 L 11.78125 18.933594 L 12.054688 19.585938 C 12.082031 19.65625 12.097656 19.699219 12.097656 19.726562 L 12.097656 19.734375 C 12.085938 19.769531 12.054688 19.785156 12.011719 19.78125 Z M 11.972656 19.824219 L 11.976562 19.808594 L 12 19.75 L 12.011719 19.75 C 12.054688 19.75 12.066406 19.742188 12.070312 19.730469 L 12.070312 19.726562 C 12.070312 19.710938 12.054688 19.667969 12.027344 19.601562 L 11.765625 18.957031 L 11.265625 18.851562 L 11.132812 19.480469 C 11.128906 19.488281 11.128906 19.496094 11.128906 19.503906 C 11.128906 19.519531 11.132812 19.527344 11.136719 19.539062 C 11.144531 19.554688 11.164062 19.570312 11.203125 19.601562 L 11.1875 19.660156 L 10.554688 19.527344 L 10.554688 19.515625 L 10.582031 19.457031 C 10.613281 19.453125 10.636719 19.445312 10.648438 19.4375 C 10.664062 19.429688 10.671875 19.410156 10.679688 19.386719 L 11.023438 17.742188 C 11.023438 17.730469 11.023438 17.71875 11.023438 17.714844 C 11.023438 17.699219 11.023438 17.6875 11.015625 17.679688 C 11.007812 17.664062 10.988281 17.648438 10.949219 17.617188 L 10.964844 17.558594 L 12.191406 17.8125 C 12.339844 17.84375 12.457031 17.878906 12.542969 17.910156 C 12.628906 17.949219 12.699219 17.996094 12.753906 18.054688 C 12.820312 18.121094 12.863281 18.203125 12.886719 18.296875 C 12.894531 18.339844 12.898438 18.382812 12.898438 18.429688 C 12.898438 18.476562 12.894531 18.527344 12.882812 18.574219 C 12.820312 18.882812 12.617188 19.035156 12.285156 19.035156 C 12.273438 19.035156 12.261719 19.035156 12.25 19.035156 L 12.503906 19.628906 C 12.550781 19.734375 12.585938 19.804688 12.609375 19.835938 C 12.632812 19.867188 12.664062 19.886719 12.703125 19.898438 L 12.71875 19.902344 L 12.714844 19.917969 L 12.703125 19.976562 L 11.972656 19.824219 "/>
<path style=" stroke:none;fill-rule:nonzero;fill:rgb(10.196078%,39.215686%,71.764706%);fill-opacity:1;" d="M 13.644531 18.84375 L 14.3125 18.816406 C 14.410156 18.8125 14.480469 18.808594 14.519531 18.800781 C 14.5625 18.792969 14.597656 18.777344 14.628906 18.757812 C 14.703125 18.714844 14.738281 18.644531 14.734375 18.539062 C 14.726562 18.4375 14.691406 18.367188 14.613281 18.328125 C 14.578125 18.3125 14.539062 18.300781 14.5 18.296875 C 14.460938 18.292969 14.390625 18.292969 14.292969 18.296875 L 13.625 18.324219 Z M 13.65625 19.167969 L 13.683594 19.828125 C 13.683594 19.855469 13.695312 19.878906 13.707031 19.894531 C 13.722656 19.910156 13.746094 19.921875 13.78125 19.929688 L 13.78125 19.976562 L 13.164062 20 L 13.160156 19.953125 C 13.195312 19.941406 13.21875 19.929688 13.234375 19.910156 C 13.246094 19.898438 13.253906 19.875 13.25 19.84375 L 13.183594 18.167969 C 13.183594 18.136719 13.175781 18.113281 13.160156 18.101562 C 13.148438 18.085938 13.121094 18.074219 13.085938 18.0625 L 13.085938 18.019531 L 14.324219 17.96875 C 14.476562 17.964844 14.597656 17.964844 14.683594 17.980469 C 14.773438 17.996094 14.851562 18.023438 14.917969 18.0625 C 14.996094 18.109375 15.058594 18.175781 15.097656 18.261719 C 15.136719 18.34375 15.160156 18.433594 15.164062 18.527344 C 15.175781 18.847656 15.003906 19.046875 14.648438 19.113281 L 15.054688 19.648438 C 15.125 19.742188 15.175781 19.800781 15.210938 19.828125 C 15.242188 19.855469 15.28125 19.867188 15.328125 19.867188 L 15.328125 19.914062 L 14.613281 19.941406 L 14.613281 19.894531 C 14.660156 19.886719 14.683594 19.867188 14.683594 19.839844 C 14.683594 19.824219 14.65625 19.78125 14.609375 19.71875 L 14.1875 19.148438 L 13.65625 19.167969 "/>
<path style=" stroke:none;fill-rule:nonzero;fill:rgb(10.196078%,39.215686%,71.764706%);fill-opacity:1;" d="M 14.292969 18.3125 L 13.640625 18.324219 L 13.660156 18.828125 L 14.3125 18.800781 C 14.410156 18.796875 14.480469 18.792969 14.519531 18.785156 C 14.554688 18.777344 14.59375 18.765625 14.625 18.746094 C 14.6875 18.707031 14.71875 18.648438 14.71875 18.554688 C 14.71875 18.550781 14.71875 18.542969 14.71875 18.539062 C 14.714844 18.441406 14.675781 18.378906 14.609375 18.34375 C 14.574219 18.328125 14.539062 18.316406 14.5 18.3125 C 14.480469 18.308594 14.457031 18.308594 14.421875 18.308594 C 14.382812 18.308594 14.34375 18.308594 14.292969 18.3125 M 13.644531 18.84375 L 13.628906 18.84375 L 13.625 18.308594 L 14.289062 18.28125 C 14.34375 18.28125 14.382812 18.28125 14.421875 18.28125 C 14.457031 18.28125 14.484375 18.28125 14.503906 18.28125 C 14.542969 18.285156 14.582031 18.296875 14.621094 18.316406 C 14.703125 18.355469 14.746094 18.433594 14.75 18.542969 L 14.75 18.558594 C 14.75 18.65625 14.710938 18.730469 14.636719 18.773438 C 14.605469 18.796875 14.566406 18.808594 14.523438 18.816406 C 14.480469 18.824219 14.410156 18.828125 14.3125 18.832031 L 13.644531 18.859375 Z M 14.667969 19.839844 L 14.667969 19.839844 M 13.164062 19.984375 L 13.769531 19.976562 L 13.777344 19.941406 C 13.742188 19.9375 13.714844 19.925781 13.699219 19.90625 C 13.679688 19.886719 13.671875 19.859375 13.667969 19.828125 L 13.644531 19.171875 L 13.65625 19.167969 L 13.65625 19.15625 L 14.199219 19.140625 L 14.621094 19.707031 C 14.667969 19.769531 14.691406 19.804688 14.691406 19.84375 L 14.699219 19.84375 C 14.699219 19.882812 14.664062 19.902344 14.628906 19.894531 L 14.613281 19.925781 L 15.316406 19.914062 L 15.328125 19.882812 C 15.277344 19.878906 15.238281 19.867188 15.199219 19.839844 C 15.167969 19.808594 15.117188 19.75 15.042969 19.65625 L 14.621094 19.105469 L 14.644531 19.101562 C 14.984375 19.03125 15.148438 18.855469 15.148438 18.558594 C 15.148438 18.546875 15.148438 18.535156 15.148438 18.527344 C 15.144531 18.433594 15.125 18.34375 15.085938 18.265625 C 15.046875 18.183594 14.988281 18.121094 14.914062 18.074219 C 14.847656 18.035156 14.769531 18.007812 14.683594 17.996094 C 14.621094 17.984375 14.542969 17.980469 14.449219 17.980469 C 14.410156 17.980469 14.371094 17.980469 14.324219 17.984375 L 13.101562 18.015625 L 13.089844 18.046875 C 13.128906 18.058594 13.152344 18.070312 13.171875 18.085938 C 13.191406 18.105469 13.199219 18.132812 13.199219 18.164062 L 13.265625 19.847656 L 13.265625 19.851562 C 13.265625 19.878906 13.261719 19.902344 13.246094 19.921875 C 13.230469 19.941406 13.203125 19.957031 13.175781 19.953125 Z M 13.15625 19.9375 C 13.191406 19.929688 13.210938 19.914062 13.21875 19.902344 C 13.230469 19.890625 13.234375 19.875 13.234375 19.851562 C 13.234375 19.851562 13.234375 19.847656 13.234375 19.84375 L 13.167969 18.167969 C 13.167969 18.140625 13.160156 18.121094 13.152344 18.109375 C 13.140625 18.097656 13.117188 18.085938 13.074219 18.066406 L 13.085938 18.003906 L 14.324219 17.953125 C 14.371094 17.949219 14.410156 17.949219 14.449219 17.949219 C 14.542969 17.949219 14.621094 17.953125 14.6875 17.964844 C 14.78125 17.980469 14.859375 18.007812 14.929688 18.050781 C 15.011719 18.097656 15.070312 18.167969 15.117188 18.253906 C 15.15625 18.339844 15.175781 18.429688 15.179688 18.527344 C 15.179688 18.539062 15.179688 18.546875 15.179688 18.558594 C 15.179688 18.863281 15.007812 19.054688 14.675781 19.125 L 15.066406 19.636719 C 15.136719 19.730469 15.191406 19.789062 15.21875 19.8125 C 15.25 19.839844 15.285156 19.851562 15.34375 19.867188 L 15.328125 19.929688 L 14.597656 19.941406 L 14.609375 19.882812 C 14.65625 19.871094 14.667969 19.855469 14.667969 19.839844 C 14.667969 19.832031 14.644531 19.789062 14.597656 19.726562 L 14.1875 19.164062 L 13.671875 19.183594 L 13.699219 19.828125 C 13.699219 19.855469 13.707031 19.871094 13.71875 19.882812 C 13.730469 19.894531 13.75 19.90625 13.796875 19.925781 L 13.785156 19.992188 L 13.148438 20 L 13.15625 19.9375 "/>
<path style=" stroke:none;fill-rule:nonzero;fill:rgb(10.196078%,39.215686%,71.764706%);fill-opacity:1;" d="M 15.765625 19.621094 L 15.402344 17.980469 C 15.394531 17.953125 15.386719 17.933594 15.367188 17.921875 C 15.351562 17.910156 15.328125 17.902344 15.289062 17.898438 L 15.28125 17.855469 L 15.882812 17.722656 L 15.894531 17.765625 C 15.863281 17.78125 15.839844 17.800781 15.832031 17.816406 C 15.824219 17.835938 15.820312 17.859375 15.828125 17.890625 L 16.191406 19.527344 C 16.195312 19.558594 16.207031 19.578125 16.226562 19.589844 C 16.242188 19.605469 16.269531 19.609375 16.300781 19.613281 L 16.3125 19.65625 L 15.707031 19.792969 L 15.699219 19.746094 C 15.730469 19.730469 15.75 19.710938 15.761719 19.691406 C 15.769531 19.675781 15.773438 19.652344 15.765625 19.621094 "/>
<path style=" stroke:none;fill-rule:nonzero;fill:rgb(10.196078%,39.215686%,71.764706%);fill-opacity:1;" d="M 15.78125 19.65625 C 15.78125 19.671875 15.78125 19.6875 15.773438 19.699219 C 15.761719 19.722656 15.738281 19.742188 15.710938 19.742188 L 15.71875 19.773438 L 16.296875 19.644531 L 16.300781 19.628906 C 16.265625 19.625 16.234375 19.621094 16.214844 19.605469 C 16.191406 19.589844 16.179688 19.5625 16.171875 19.53125 L 15.8125 17.890625 C 15.808594 17.878906 15.804688 17.867188 15.804688 17.855469 C 15.804688 17.839844 15.808594 17.824219 15.816406 17.808594 C 15.828125 17.785156 15.851562 17.769531 15.878906 17.769531 L 15.871094 17.738281 L 15.292969 17.867188 L 15.289062 17.882812 C 15.328125 17.886719 15.359375 17.890625 15.378906 17.90625 C 15.398438 17.921875 15.414062 17.949219 15.417969 17.976562 L 15.78125 19.617188 L 15.765625 19.621094 L 15.78125 19.617188 C 15.78125 19.628906 15.78125 19.644531 15.78125 19.65625 M 15.691406 19.796875 L 15.6875 19.730469 C 15.71875 19.71875 15.738281 19.699219 15.746094 19.6875 C 15.75 19.675781 15.753906 19.667969 15.753906 19.65625 C 15.753906 19.644531 15.75 19.636719 15.75 19.625 L 15.386719 17.984375 C 15.382812 17.960938 15.371094 17.941406 15.359375 17.933594 C 15.34375 17.925781 15.324219 17.917969 15.273438 17.902344 L 15.261719 17.84375 L 15.894531 17.703125 L 15.898438 17.71875 L 15.902344 17.78125 C 15.871094 17.792969 15.851562 17.8125 15.84375 17.824219 C 15.839844 17.832031 15.835938 17.84375 15.835938 17.855469 C 15.835938 17.863281 15.839844 17.875 15.839844 17.882812 L 16.203125 19.527344 C 16.210938 19.550781 16.21875 19.570312 16.234375 19.578125 C 16.246094 19.589844 16.269531 19.597656 16.316406 19.609375 L 16.332031 19.671875 L 15.695312 19.808594 L 15.691406 19.796875 "/>
<path style=" stroke:none;fill-rule:nonzero;fill:rgb(10.196078%,39.215686%,71.764706%);fill-opacity:1;" d="M 17.164062 17.597656 C 16.988281 17.671875 16.867188 17.785156 16.792969 17.9375 C 16.710938 18.117188 16.710938 18.308594 16.792969 18.507812 C 16.875 18.703125 17.011719 18.832031 17.203125 18.898438 C 17.363281 18.949219 17.527344 18.9375 17.707031 18.863281 C 17.882812 18.789062 18.003906 18.675781 18.074219 18.523438 C 18.117188 18.433594 18.140625 18.335938 18.136719 18.230469 C 18.136719 18.136719 18.117188 18.050781 18.082031 17.964844 C 17.992188 17.757812 17.855469 17.625 17.667969 17.5625 C 17.507812 17.515625 17.339844 17.523438 17.164062 17.597656 M 17.03125 17.289062 C 17.347656 17.152344 17.636719 17.132812 17.898438 17.222656 C 18.167969 17.320312 18.367188 17.507812 18.488281 17.792969 C 18.5625 17.96875 18.585938 18.152344 18.554688 18.34375 C 18.496094 18.71875 18.257812 18.996094 17.835938 19.175781 C 17.523438 19.308594 17.234375 19.328125 16.972656 19.238281 C 16.832031 19.191406 16.710938 19.113281 16.605469 19.007812 C 16.511719 18.910156 16.441406 18.800781 16.386719 18.679688 C 16.308594 18.496094 16.28125 18.308594 16.3125 18.117188 C 16.367188 17.75 16.609375 17.472656 17.03125 17.289062 "/>
<path style=" stroke:none;fill-rule:nonzero;fill:rgb(10.196078%,39.215686%,71.764706%);fill-opacity:1;" d="M 16.808594 17.945312 C 16.765625 18.03125 16.746094 18.125 16.746094 18.21875 C 16.746094 18.308594 16.765625 18.402344 16.808594 18.5 C 16.890625 18.691406 17.023438 18.820312 17.207031 18.882812 C 17.273438 18.90625 17.339844 18.917969 17.410156 18.917969 C 17.503906 18.917969 17.597656 18.894531 17.699219 18.851562 C 17.875 18.777344 17.996094 18.667969 18.0625 18.515625 C 18.105469 18.433594 18.125 18.339844 18.125 18.238281 L 18.125 18.230469 C 18.121094 18.140625 18.105469 18.054688 18.066406 17.972656 C 17.980469 17.769531 17.847656 17.640625 17.664062 17.582031 C 17.597656 17.558594 17.53125 17.550781 17.464844 17.550781 C 17.371094 17.550781 17.269531 17.570312 17.167969 17.613281 C 16.996094 17.683594 16.878906 17.792969 16.808594 17.945312 M 17.199219 18.910156 C 17.003906 18.847656 16.863281 18.710938 16.777344 18.511719 C 16.734375 18.410156 16.714844 18.3125 16.714844 18.21875 C 16.714844 18.121094 16.734375 18.023438 16.78125 17.929688 C 16.855469 17.777344 16.980469 17.660156 17.15625 17.582031 L 17.164062 17.597656 L 17.15625 17.582031 C 17.261719 17.539062 17.363281 17.519531 17.464844 17.519531 C 17.535156 17.519531 17.605469 17.527344 17.671875 17.550781 C 17.863281 17.613281 18.007812 17.75 18.097656 17.957031 C 18.132812 18.046875 18.152344 18.136719 18.152344 18.234375 L 18.152344 18.238281 C 18.152344 18.34375 18.132812 18.441406 18.089844 18.53125 C 18.019531 18.6875 17.894531 18.804688 17.714844 18.878906 C 17.609375 18.921875 17.507812 18.945312 17.40625 18.945312 C 17.335938 18.945312 17.265625 18.933594 17.199219 18.910156 M 17.035156 17.300781 C 16.617188 17.488281 16.382812 17.757812 16.328125 18.117188 C 16.320312 18.167969 16.316406 18.222656 16.316406 18.269531 C 16.316406 18.40625 16.34375 18.539062 16.398438 18.671875 C 16.453125 18.792969 16.523438 18.902344 16.617188 18.996094 C 16.722656 19.097656 16.84375 19.175781 16.980469 19.222656 C 17.082031 19.261719 17.191406 19.28125 17.304688 19.28125 C 17.472656 19.28125 17.644531 19.242188 17.832031 19.164062 C 18.25 18.984375 18.484375 18.710938 18.539062 18.34375 C 18.546875 18.289062 18.550781 18.234375 18.550781 18.179688 C 18.550781 18.050781 18.527344 17.921875 18.476562 17.800781 C 18.355469 17.519531 18.160156 17.332031 17.890625 17.238281 C 17.785156 17.199219 17.679688 17.183594 17.566406 17.183594 C 17.398438 17.183594 17.222656 17.222656 17.035156 17.300781 Z M 16.96875 19.253906 C 16.828125 19.203125 16.703125 19.125 16.597656 19.015625 C 16.503906 18.921875 16.425781 18.808594 16.371094 18.683594 C 16.316406 18.546875 16.285156 18.410156 16.285156 18.269531 C 16.285156 18.21875 16.289062 18.167969 16.300781 18.113281 C 16.355469 17.742188 16.597656 17.460938 17.023438 17.273438 C 17.214844 17.191406 17.394531 17.152344 17.566406 17.152344 C 17.683594 17.152344 17.796875 17.171875 17.902344 17.207031 C 18.179688 17.304688 18.382812 17.5 18.503906 17.789062 C 18.558594 17.914062 18.585938 18.046875 18.585938 18.179688 C 18.585938 18.234375 18.578125 18.289062 18.570312 18.347656 C 18.511719 18.726562 18.269531 19.007812 17.84375 19.191406 C 17.652344 19.269531 17.476562 19.3125 17.304688 19.3125 C 17.1875 19.3125 17.078125 19.289062 16.96875 19.253906 "/>
<path style=" stroke:none;fill-rule:nonzero;fill:rgb(10.196078%,39.215686%,71.764706%);fill-opacity:1;" d="M 18.992188 17.226562 L 19.519531 16.816406 C 19.601562 16.757812 19.652344 16.710938 19.683594 16.683594 C 19.710938 16.652344 19.734375 16.621094 19.746094 16.585938 C 19.78125 16.507812 19.765625 16.429688 19.703125 16.347656 C 19.640625 16.265625 19.566406 16.230469 19.484375 16.242188 C 19.445312 16.25 19.410156 16.261719 19.375 16.28125 C 19.339844 16.304688 19.285156 16.34375 19.203125 16.40625 L 18.675781 16.8125 Z M 19.191406 17.484375 L 19.59375 18.003906 C 19.609375 18.027344 19.632812 18.039062 19.652344 18.046875 C 19.671875 18.050781 19.699219 18.042969 19.730469 18.03125 L 19.757812 18.066406 L 19.269531 18.445312 L 19.242188 18.410156 C 19.261719 18.378906 19.273438 18.355469 19.273438 18.335938 C 19.277344 18.3125 19.269531 18.292969 19.25 18.265625 L 18.222656 16.941406 C 18.207031 16.914062 18.1875 16.902344 18.167969 16.898438 C 18.148438 16.894531 18.117188 16.898438 18.085938 16.910156 L 18.058594 16.875 L 19.039062 16.117188 C 19.160156 16.023438 19.261719 15.957031 19.339844 15.917969 C 19.421875 15.878906 19.503906 15.855469 19.582031 15.847656 C 19.671875 15.84375 19.761719 15.863281 19.84375 15.90625 C 19.921875 15.949219 19.992188 16.011719 20.050781 16.085938 C 20.246094 16.339844 20.21875 16.601562 19.96875 16.863281 L 20.609375 17.0625 C 20.722656 17.097656 20.796875 17.117188 20.839844 17.117188 C 20.878906 17.121094 20.921875 17.109375 20.957031 17.085938 L 20.984375 17.121094 L 20.417969 17.558594 L 20.390625 17.519531 C 20.425781 17.484375 20.433594 17.457031 20.417969 17.433594 C 20.40625 17.421875 20.363281 17.402344 20.285156 17.378906 L 19.609375 17.160156 L 19.191406 17.484375 "/>
<path style=" stroke:none;fill-rule:nonzero;fill:rgb(10.196078%,39.215686%,71.764706%);fill-opacity:1;" d="M 19.488281 16.257812 C 19.449219 16.265625 19.414062 16.277344 19.382812 16.296875 C 19.351562 16.316406 19.289062 16.355469 19.214844 16.417969 L 18.695312 16.8125 L 18.996094 17.203125 L 19.511719 16.804688 C 19.589844 16.746094 19.644531 16.699219 19.667969 16.667969 C 19.699219 16.640625 19.71875 16.613281 19.734375 16.578125 C 19.742188 16.550781 19.75 16.527344 19.75 16.503906 C 19.75 16.457031 19.730469 16.40625 19.691406 16.355469 C 19.640625 16.289062 19.582031 16.257812 19.515625 16.257812 C 19.507812 16.257812 19.496094 16.257812 19.488281 16.257812 M 18.992188 17.222656 L 19.003906 17.214844 Z M 18.652344 16.808594 L 19.191406 16.390625 C 19.273438 16.332031 19.332031 16.289062 19.367188 16.269531 C 19.402344 16.25 19.441406 16.234375 19.484375 16.230469 C 19.496094 16.226562 19.507812 16.226562 19.519531 16.226562 C 19.59375 16.226562 19.660156 16.261719 19.71875 16.335938 C 19.757812 16.390625 19.78125 16.445312 19.78125 16.503906 C 19.78125 16.535156 19.777344 16.5625 19.761719 16.589844 C 19.746094 16.628906 19.722656 16.664062 19.691406 16.691406 C 19.664062 16.722656 19.609375 16.769531 19.53125 16.828125 L 19.003906 17.238281 L 18.988281 17.246094 Z M 19.273438 18.421875 L 19.738281 18.0625 L 19.726562 18.046875 C 19.703125 18.054688 19.683594 18.058594 19.664062 18.058594 C 19.660156 18.058594 19.65625 18.058594 19.648438 18.058594 C 19.621094 18.054688 19.601562 18.039062 19.582031 18.011719 L 19.179688 17.492188 L 19.167969 17.476562 L 19.617188 17.144531 L 20.292969 17.359375 C 20.367188 17.386719 20.410156 17.402344 20.429688 17.425781 C 20.4375 17.433594 20.441406 17.445312 20.441406 17.457031 C 20.441406 17.476562 20.429688 17.5 20.410156 17.519531 L 20.421875 17.535156 L 20.964844 17.117188 L 20.953125 17.105469 C 20.917969 17.121094 20.882812 17.132812 20.847656 17.132812 C 20.84375 17.132812 20.839844 17.132812 20.835938 17.132812 C 20.792969 17.128906 20.714844 17.113281 20.601562 17.078125 L 19.9375 16.871094 L 19.957031 16.855469 C 20.09375 16.707031 20.164062 16.566406 20.164062 16.425781 C 20.164062 16.316406 20.121094 16.207031 20.035156 16.097656 C 19.976562 16.023438 19.910156 15.964844 19.835938 15.917969 C 19.765625 15.878906 19.695312 15.863281 19.617188 15.863281 C 19.605469 15.863281 19.59375 15.863281 19.582031 15.863281 C 19.503906 15.871094 19.429688 15.890625 19.347656 15.933594 C 19.269531 15.96875 19.167969 16.035156 19.050781 16.128906 L 18.078125 16.875 L 18.089844 16.890625 C 18.113281 16.882812 18.132812 16.878906 18.152344 16.878906 C 18.160156 16.878906 18.164062 16.878906 18.167969 16.878906 C 18.195312 16.886719 18.214844 16.902344 18.238281 16.929688 L 19.261719 18.257812 C 19.28125 18.28125 19.289062 18.304688 19.289062 18.328125 L 19.289062 18.332031 C 19.289062 18.359375 19.277344 18.378906 19.257812 18.40625 Z M 19.257812 18.457031 L 19.222656 18.410156 L 19.226562 18.398438 C 19.25 18.371094 19.257812 18.347656 19.261719 18.335938 L 19.261719 18.332031 C 19.261719 18.316406 19.253906 18.296875 19.238281 18.277344 L 18.214844 16.949219 C 18.195312 16.925781 18.179688 16.914062 18.164062 16.910156 C 18.160156 16.910156 18.15625 16.910156 18.152344 16.910156 C 18.136719 16.910156 18.117188 16.914062 18.09375 16.925781 L 18.082031 16.929688 L 18.074219 16.921875 L 18.039062 16.875 L 19.03125 16.105469 C 19.152344 16.011719 19.25 15.945312 19.335938 15.90625 C 19.417969 15.863281 19.5 15.839844 19.578125 15.835938 C 19.589844 15.835938 19.605469 15.835938 19.617188 15.835938 C 19.695312 15.832031 19.777344 15.851562 19.847656 15.894531 C 19.929688 15.9375 20 16 20.058594 16.078125 C 20.148438 16.191406 20.191406 16.308594 20.191406 16.429688 C 20.191406 16.570312 20.125 16.714844 19.996094 16.859375 L 20.613281 17.050781 C 20.722656 17.082031 20.800781 17.101562 20.839844 17.105469 L 20.847656 17.105469 C 20.882812 17.105469 20.917969 17.097656 20.949219 17.074219 L 20.960938 17.066406 L 20.96875 17.078125 L 21.007812 17.125 L 20.414062 17.582031 L 20.40625 17.570312 L 20.371094 17.519531 L 20.378906 17.511719 C 20.402344 17.488281 20.410156 17.46875 20.410156 17.460938 C 20.410156 17.453125 20.40625 17.449219 20.40625 17.445312 C 20.402344 17.441406 20.355469 17.417969 20.28125 17.394531 L 19.621094 17.171875 L 19.214844 17.488281 L 19.605469 17.996094 C 19.621094 18.015625 19.636719 18.027344 19.652344 18.03125 C 19.65625 18.03125 19.660156 18.03125 19.664062 18.03125 C 19.679688 18.03125 19.699219 18.027344 19.722656 18.019531 L 19.734375 18.011719 L 19.742188 18.023438 L 19.78125 18.070312 L 19.265625 18.46875 L 19.257812 18.457031 "/>
<path style=" stroke:none;fill-rule:nonzero;fill:rgb(10.196078%,39.215686%,71.764706%);fill-opacity:1;" d="M 21 14.246094 L 21.210938 14.726562 L 21.167969 14.742188 C 21.160156 14.738281 21.15625 14.730469 21.152344 14.726562 C 21.128906 14.707031 21.082031 14.707031 21.015625 14.726562 C 20.816406 14.785156 20.640625 14.90625 20.496094 15.085938 C 20.429688 15.164062 20.382812 15.242188 20.355469 15.320312 C 20.332031 15.378906 20.324219 15.433594 20.332031 15.484375 C 20.339844 15.535156 20.359375 15.574219 20.398438 15.605469 C 20.457031 15.652344 20.523438 15.648438 20.601562 15.59375 C 20.640625 15.566406 20.71875 15.5 20.824219 15.390625 L 20.984375 15.226562 C 21.082031 15.128906 21.164062 15.058594 21.238281 15.007812 C 21.3125 14.960938 21.386719 14.921875 21.460938 14.902344 C 21.539062 14.882812 21.621094 14.882812 21.707031 14.898438 C 21.789062 14.917969 21.867188 14.957031 21.933594 15.011719 C 22.042969 15.097656 22.109375 15.210938 22.140625 15.351562 C 22.164062 15.476562 22.140625 15.617188 22.070312 15.78125 C 22.015625 15.902344 21.945312 16.019531 21.851562 16.132812 C 21.6875 16.339844 21.476562 16.5 21.214844 16.621094 C 21.160156 16.644531 21.132812 16.664062 21.125 16.671875 C 21.117188 16.683594 21.113281 16.703125 21.113281 16.738281 L 21.070312 16.757812 L 20.828125 16.285156 L 20.871094 16.265625 C 20.875 16.269531 20.882812 16.273438 20.882812 16.277344 C 20.917969 16.304688 20.964844 16.3125 21.019531 16.304688 C 21.101562 16.289062 21.199219 16.246094 21.316406 16.167969 C 21.429688 16.089844 21.523438 16.007812 21.597656 15.914062 C 21.679688 15.816406 21.730469 15.714844 21.753906 15.617188 C 21.769531 15.5625 21.769531 15.511719 21.757812 15.460938 C 21.742188 15.414062 21.71875 15.378906 21.6875 15.347656 C 21.636719 15.308594 21.574219 15.304688 21.511719 15.34375 C 21.464844 15.367188 21.386719 15.433594 21.28125 15.542969 L 21.121094 15.703125 C 21.011719 15.808594 20.9375 15.878906 20.886719 15.921875 C 20.835938 15.960938 20.78125 15.996094 20.71875 16.023438 C 20.628906 16.066406 20.53125 16.078125 20.433594 16.0625 C 20.34375 16.046875 20.261719 16.007812 20.179688 15.945312 C 20.050781 15.839844 19.980469 15.707031 19.96875 15.546875 C 19.949219 15.339844 20.035156 15.121094 20.226562 14.882812 C 20.308594 14.785156 20.390625 14.703125 20.480469 14.632812 C 20.570312 14.5625 20.691406 14.488281 20.847656 14.402344 C 20.898438 14.371094 20.929688 14.355469 20.9375 14.34375 C 20.949219 14.328125 20.957031 14.304688 20.957031 14.269531 L 21 14.246094 "/>
<path style=" stroke:none;fill-rule:nonzero;fill:rgb(10.196078%,39.215686%,71.764706%);fill-opacity:1;" d="M 20.847656 16.289062 L 21.078125 16.738281 L 21.097656 16.738281 C 21.097656 16.703125 21.101562 16.679688 21.117188 16.660156 C 21.125 16.648438 21.152344 16.632812 21.210938 16.605469 C 21.46875 16.484375 21.675781 16.328125 21.839844 16.125 C 21.933594 16.011719 22.003906 15.894531 22.054688 15.773438 C 22.109375 15.65625 22.132812 15.546875 22.132812 15.449219 C 22.132812 15.417969 22.128906 15.382812 22.125 15.351562 C 22.09375 15.214844 22.03125 15.105469 21.925781 15.019531 C 21.859375 14.96875 21.785156 14.929688 21.703125 14.910156 C 21.664062 14.902344 21.625 14.898438 21.589844 14.898438 C 21.546875 14.898438 21.503906 14.90625 21.464844 14.914062 C 21.394531 14.9375 21.316406 14.972656 21.246094 15.019531 C 21.175781 15.070312 21.09375 15.140625 20.996094 15.238281 L 20.835938 15.398438 C 20.726562 15.507812 20.652344 15.578125 20.609375 15.605469 C 20.566406 15.636719 20.527344 15.652344 20.488281 15.652344 C 20.453125 15.652344 20.417969 15.640625 20.390625 15.613281 C 20.351562 15.585938 20.328125 15.539062 20.320312 15.484375 C 20.316406 15.46875 20.316406 15.457031 20.316406 15.441406 C 20.316406 15.398438 20.324219 15.355469 20.339844 15.316406 C 20.367188 15.238281 20.417969 15.15625 20.484375 15.074219 C 20.632812 14.890625 20.808594 14.769531 21.015625 14.710938 C 21.042969 14.699219 21.074219 14.695312 21.097656 14.695312 C 21.125 14.695312 21.144531 14.699219 21.164062 14.714844 C 21.167969 14.71875 21.171875 14.726562 21.164062 14.726562 L 21.191406 14.714844 L 20.988281 14.261719 L 20.972656 14.265625 C 20.972656 14.300781 20.964844 14.332031 20.949219 14.351562 C 20.9375 14.367188 20.910156 14.382812 20.855469 14.414062 C 20.699219 14.5 20.574219 14.574219 20.488281 14.640625 C 20.402344 14.710938 20.316406 14.792969 20.238281 14.890625 C 20.0625 15.105469 19.980469 15.304688 19.980469 15.496094 C 19.980469 15.507812 19.980469 15.527344 19.980469 15.542969 C 19.996094 15.699219 20.0625 15.824219 20.191406 15.929688 C 20.265625 15.992188 20.347656 16.027344 20.4375 16.042969 C 20.460938 16.046875 20.488281 16.050781 20.515625 16.050781 C 20.582031 16.050781 20.648438 16.035156 20.710938 16.007812 C 20.773438 15.980469 20.828125 15.945312 20.878906 15.90625 C 20.925781 15.867188 21.003906 15.792969 21.109375 15.6875 L 21.269531 15.527344 C 21.375 15.421875 21.453125 15.355469 21.503906 15.328125 C 21.535156 15.308594 21.566406 15.296875 21.601562 15.296875 C 21.632812 15.296875 21.664062 15.3125 21.695312 15.335938 C 21.730469 15.363281 21.757812 15.40625 21.769531 15.457031 C 21.777344 15.480469 21.777344 15.507812 21.777344 15.53125 C 21.777344 15.558594 21.777344 15.589844 21.769531 15.617188 C 21.746094 15.71875 21.691406 15.820312 21.609375 15.921875 C 21.535156 16.015625 21.4375 16.101562 21.324219 16.175781 C 21.207031 16.257812 21.105469 16.300781 21.019531 16.316406 C 21.003906 16.320312 20.992188 16.320312 20.976562 16.320312 C 20.9375 16.320312 20.902344 16.308594 20.875 16.289062 C 20.871094 16.285156 20.867188 16.28125 20.875 16.277344 Z M 20.804688 16.273438 L 20.820312 16.269531 L 20.878906 16.25 C 20.886719 16.257812 20.890625 16.261719 20.894531 16.261719 C 20.917969 16.28125 20.941406 16.289062 20.976562 16.289062 C 20.988281 16.289062 21 16.289062 21.015625 16.289062 C 21.09375 16.273438 21.191406 16.230469 21.304688 16.152344 C 21.417969 16.078125 21.511719 15.996094 21.585938 15.90625 C 21.664062 15.804688 21.714844 15.707031 21.738281 15.613281 C 21.746094 15.585938 21.746094 15.558594 21.746094 15.535156 C 21.746094 15.507812 21.746094 15.488281 21.738281 15.464844 C 21.726562 15.417969 21.703125 15.386719 21.675781 15.359375 C 21.648438 15.339844 21.625 15.332031 21.597656 15.332031 C 21.574219 15.332031 21.546875 15.335938 21.515625 15.355469 C 21.472656 15.378906 21.394531 15.445312 21.289062 15.550781 L 21.128906 15.710938 C 21.023438 15.816406 20.945312 15.890625 20.894531 15.929688 C 20.84375 15.972656 20.785156 16.007812 20.722656 16.035156 C 20.65625 16.066406 20.585938 16.082031 20.511719 16.082031 C 20.484375 16.082031 20.457031 16.078125 20.429688 16.074219 C 20.335938 16.058594 20.25 16.019531 20.167969 15.953125 C 20.035156 15.847656 19.960938 15.710938 19.949219 15.546875 C 19.949219 15.53125 19.945312 15.511719 19.945312 15.496094 C 19.945312 15.296875 20.035156 15.089844 20.210938 14.871094 C 20.292969 14.773438 20.375 14.6875 20.46875 14.617188 C 20.558594 14.550781 20.679688 14.472656 20.839844 14.386719 C 20.890625 14.359375 20.921875 14.339844 20.921875 14.332031 C 20.933594 14.324219 20.9375 14.300781 20.945312 14.253906 L 20.992188 14.234375 L 21.003906 14.226562 L 21.230469 14.734375 L 21.214844 14.738281 L 21.15625 14.753906 C 21.148438 14.746094 21.144531 14.742188 21.140625 14.738281 C 21.132812 14.730469 21.117188 14.726562 21.097656 14.726562 C 21.074219 14.726562 21.046875 14.730469 21.019531 14.738281 C 20.820312 14.800781 20.648438 14.914062 20.503906 15.09375 C 20.441406 15.171875 20.394531 15.25 20.363281 15.324219 C 20.351562 15.363281 20.34375 15.402344 20.34375 15.441406 C 20.34375 15.453125 20.34375 15.46875 20.347656 15.480469 C 20.351562 15.53125 20.375 15.5625 20.402344 15.589844 C 20.429688 15.609375 20.457031 15.621094 20.484375 15.621094 C 20.515625 15.621094 20.550781 15.605469 20.589844 15.582031 C 20.628906 15.554688 20.703125 15.488281 20.808594 15.378906 L 20.972656 15.214844 C 21.066406 15.117188 21.152344 15.046875 21.226562 14.996094 C 21.300781 14.945312 21.375 14.910156 21.453125 14.886719 C 21.496094 14.875 21.539062 14.867188 21.585938 14.867188 C 21.625 14.867188 21.664062 14.871094 21.707031 14.882812 C 21.792969 14.902344 21.871094 14.941406 21.941406 14.996094 C 22.054688 15.085938 22.125 15.203125 22.152344 15.34375 C 22.160156 15.378906 22.160156 15.414062 22.160156 15.449219 C 22.160156 15.554688 22.132812 15.664062 22.082031 15.789062 C 22.027344 15.910156 21.957031 16.027344 21.863281 16.144531 C 21.695312 16.347656 21.480469 16.511719 21.222656 16.632812 C 21.167969 16.660156 21.136719 16.679688 21.136719 16.679688 C 21.132812 16.683594 21.128906 16.707031 21.117188 16.753906 L 21.0625 16.777344 L 20.804688 16.273438 "/>
<path style=" stroke:none;fill-rule:nonzero;fill:rgb(10.196078%,39.215686%,71.764706%);fill-opacity:1;" d="M 21.785156 9.503906 C 21.785156 13.894531 18.222656 17.457031 13.832031 17.457031 C 9.441406 17.457031 5.882812 13.894531 5.882812 9.503906 C 5.882812 5.113281 9.441406 1.554688 13.832031 1.554688 C 18.226562 1.554688 21.785156 5.113281 21.785156 9.503906 "/>
<path style=" stroke:none;fill-rule:nonzero;fill:rgb(98.431373%,74.901961%,8.627451%);fill-opacity:1;" d="M 13.832031 16.105469 C 10.046875 16.105469 6.976562 13.039062 6.976562 9.25 C 6.976562 5.464844 10.046875 2.398438 13.832031 2.398438 C 17.617188 2.398438 20.683594 5.46875 20.683594 9.25 C 20.683594 13.039062 17.617188 16.105469 13.832031 16.105469 M 13.828125 1.9375 C 9.789062 1.9375 6.515625 5.214844 6.515625 9.253906 C 6.515625 13.292969 9.789062 16.566406 13.828125 16.566406 C 17.871094 16.566406 21.144531 13.292969 21.144531 9.253906 C 21.144531 5.214844 17.871094 1.9375 13.828125 1.9375 "/>
<path style=" stroke:none;fill-rule:nonzero;fill:rgb(98.431373%,74.901961%,8.627451%);fill-opacity:1;" d="M 9.808594 5.789062 C 9.808594 5.789062 13.882812 11.234375 20.363281 12.472656 L 19.195312 12.808594 C 19.195312 12.808594 15.144531 11.871094 9.839844 5.949219 "/>
<path style=" stroke:none;fill-rule:nonzero;fill:rgb(98.431373%,74.901961%,8.627451%);fill-opacity:1;" d="M 7.886719 13.457031 C 7.886719 13.457031 13.160156 12.585938 18.972656 12.730469 L 20.136719 12.480469 L 19.507812 13.851562 C 19.507812 13.851562 13.375 13.640625 8.832031 14.117188 C 8.023438 14.003906 8.128906 13.710938 8.128906 13.710938 L 7.886719 13.457031 "/>
<path style=" stroke:none;fill-rule:nonzero;fill:rgb(98.431373%,74.901961%,8.627451%);fill-opacity:1;" d="M 8.667969 14.203125 C 8.667969 14.203125 15.542969 13.902344 19.03125 14.367188 C 19.121094 14.378906 19.3125 14.054688 19.3125 14.054688 C 19.3125 14.054688 16.78125 13.703125 9.03125 13.972656 C 7.773438 14.019531 8.667969 14.203125 8.667969 14.203125 "/>
<path style=" stroke:none;fill-rule:nonzero;fill:rgb(98.431373%,74.901961%,8.627451%);fill-opacity:1;" d="M 9.476562 6.378906 C 8.222656 9.347656 6.742188 10.53125 6.742188 10.53125 L 6.828125 11.128906 C 6.828125 11.128906 8.457031 9.011719 9.476562 6.644531 C 10.035156 5.339844 9.476562 6.378906 9.476562 6.378906 "/>
<path style=" stroke:none;fill-rule:nonzero;fill:rgb(98.431373%,74.901961%,8.627451%);fill-opacity:1;" d="M 9.585938 5.5625 L 9.410156 5.605469 C 9.410156 5.605469 9.238281 14.074219 9.347656 15.015625 C 9.359375 15.101562 9.769531 15.023438 9.769531 15.023438 C 9.769531 15.023438 9.910156 15.597656 10.179688 15.359375 C 9.941406 12.359375 9.886719 5.386719 9.886719 5.386719 L 9.589844 5.386719 L 9.585938 5.5625 "/>
<path style=" stroke:none;fill-rule:nonzero;fill:rgb(98.431373%,74.901961%,8.627451%);fill-opacity:1;" d="M 9.992188 5.710938 L 10.195312 5.539062 L 10.40625 5.636719 C 10.40625 5.636719 10.617188 13.617188 11 15.855469 L 10.792969 15.839844 C 10.792969 15.839844 10.378906 15.816406 10.347656 15.554688 C 10.183594 14.0625 9.992188 5.710938 9.992188 5.710938 "/>
<path style=" stroke:none;fill-rule:nonzero;fill:rgb(98.431373%,74.901961%,8.627451%);fill-opacity:1;" d="M 8.863281 13.628906 L 8.722656 13.605469 L 9.3125 10.273438 L 9.453125 10.300781 Z M 8.863281 13.628906 "/>
<path style=" stroke:none;fill-rule:nonzero;fill:rgb(98.431373%,74.901961%,8.627451%);fill-opacity:1;" d="M 8.339844 13.566406 L 8.199219 13.539062 L 9.386719 6.824219 L 9.53125 6.851562 Z M 8.339844 13.566406 "/>
<path style=" stroke:none;fill-rule:nonzero;fill:rgb(98.431373%,74.901961%,8.627451%);fill-opacity:1;" d="M 7.914062 13.128906 L 7.804688 12.984375 L 8.628906 8.277344 L 8.832031 7.957031 Z M 7.914062 13.128906 "/>
<path style=" stroke:none;fill-rule:nonzero;fill:rgb(98.431373%,74.901961%,8.627451%);fill-opacity:1;" d="M 11.375 13.265625 L 11.511719 13.222656 L 10.195312 9.035156 L 10.308594 9.914062 Z M 11.375 13.265625 "/>
<path style=" stroke:none;fill-rule:nonzero;fill:rgb(98.431373%,74.901961%,8.627451%);fill-opacity:1;" d="M 11.882812 13.136719 L 12.023438 13.089844 L 10.246094 7.371094 L 10.257812 7.945312 Z M 11.882812 13.136719 "/>
<path style=" stroke:none;fill-rule:nonzero;fill:rgb(98.431373%,74.901961%,8.627451%);fill-opacity:1;" d="M 12.480469 13.027344 L 12.617188 12.984375 L 10.695312 6.847656 L 10.457031 6.597656 Z M 12.480469 13.027344 "/>
<path style=" stroke:none;fill-rule:nonzero;fill:rgb(98.431373%,74.901961%,8.627451%);fill-opacity:1;" d="M 11.296875 7.484375 L 13.058594 13.011719 L 13.195312 12.96875 L 11.546875 7.722656 L 11.457031 7.632812 "/>
<path style=" stroke:none;fill-rule:nonzero;fill:rgb(98.431373%,74.901961%,8.627451%);fill-opacity:1;" d="M 12.164062 8.304688 L 13.65625 13.015625 L 13.796875 12.96875 L 12.378906 8.492188 L 12.1875 8.304688 "/>
<path style=" stroke:none;fill-rule:nonzero;fill:rgb(98.431373%,74.901961%,8.627451%);fill-opacity:1;" d="M 14.199219 12.914062 L 14.335938 12.871094 L 13.148438 9.148438 L 12.957031 8.996094 Z M 14.199219 12.914062 "/>
<path style=" stroke:none;fill-rule:nonzero;fill:rgb(98.431373%,74.901961%,8.627451%);fill-opacity:1;" d="M 14.8125 12.890625 L 14.953125 12.84375 L 14 9.824219 L 13.777344 9.625 Z M 14.8125 12.890625 "/>
<path style=" stroke:none;fill-rule:nonzero;fill:rgb(98.431373%,74.901961%,8.627451%);fill-opacity:1;" d="M 14.542969 10.214844 L 15.394531 12.875 L 15.53125 12.832031 L 14.761719 10.378906 L 14.625 10.300781 "/>
<path style=" stroke:none;fill-rule:nonzero;fill:rgb(98.431373%,74.901961%,8.627451%);fill-opacity:1;" d="M 15.339844 10.816406 L 15.992188 12.878906 L 16.128906 12.835938 L 15.527344 10.9375 L 15.363281 10.886719 "/>
<path style=" stroke:none;fill-rule:nonzero;fill:rgb(98.431373%,74.901961%,8.627451%);fill-opacity:1;" d="M 16.824219 13.578125 L 16.964844 13.535156 L 16.3125 11.429688 L 16.070312 11.140625 Z M 16.824219 13.578125 "/>
<path style=" stroke:none;fill-rule:nonzero;fill:rgb(98.431373%,74.901961%,8.627451%);fill-opacity:1;" d="M 16.789062 11.585938 L 17.367188 13.429688 L 17.507812 13.382812 L 17.011719 11.800781 Z M 16.789062 11.585938 "/>
<path style=" stroke:none;fill-rule:nonzero;fill:rgb(98.431373%,74.901961%,8.627451%);fill-opacity:1;" d="M 17.53125 12.039062 L 17.953125 13.371094 L 18.09375 13.328125 L 17.738281 12.21875 Z M 17.53125 12.039062 "/>
<path style=" stroke:none;fill-rule:nonzero;fill:rgb(98.431373%,74.901961%,8.627451%);fill-opacity:1;" d="M 7.207031 11.824219 L 7.035156 11.691406 L 7.484375 9.949219 L 7.625 9.964844 Z M 7.207031 11.824219 "/>
<path style=" stroke:none;fill-rule:nonzero;fill:rgb(98.431373%,74.901961%,8.627451%);fill-opacity:1;" d="M 7.589844 12.3125 L 7.476562 12.171875 L 7.992188 9.257812 L 8.175781 8.992188 Z M 7.589844 12.3125 "/>
<path style=" stroke:none;fill-rule:nonzero;fill:rgb(10.196078%,39.215686%,71.764706%);fill-opacity:1;" d="M 6.597656 3.828125 L 6.558594 3.855469 C 6.554688 3.847656 6.546875 3.839844 6.539062 3.835938 C 6.523438 3.820312 6.496094 3.820312 6.464844 3.832031 C 6.433594 3.84375 6.402344 3.863281 6.367188 3.890625 C 6.332031 3.917969 6.296875 3.949219 6.261719 3.988281 C 6.226562 4.027344 6.195312 4.0625 6.167969 4.097656 C 6.132812 4.144531 6.109375 4.195312 6.089844 4.246094 C 6.070312 4.300781 6.058594 4.355469 6.0625 4.410156 C 6.0625 4.464844 6.078125 4.519531 6.101562 4.570312 C 6.128906 4.625 6.175781 4.671875 6.234375 4.714844 C 6.296875 4.761719 6.355469 4.789062 6.414062 4.796875 C 6.472656 4.808594 6.527344 4.804688 6.582031 4.789062 C 6.632812 4.777344 6.683594 4.75 6.726562 4.714844 C 6.773438 4.679688 6.8125 4.640625 6.84375 4.59375 C 6.894531 4.527344 6.9375 4.457031 6.964844 4.394531 C 6.992188 4.332031 7.015625 4.273438 7.03125 4.222656 L 6.875 4.109375 L 6.703125 4.34375 C 6.6875 4.359375 6.683594 4.375 6.683594 4.390625 C 6.6875 4.40625 6.699219 4.421875 6.722656 4.441406 L 6.695312 4.476562 L 6.460938 4.304688 L 6.484375 4.269531 C 6.507812 4.28125 6.527344 4.289062 6.539062 4.28125 C 6.550781 4.277344 6.5625 4.269531 6.574219 4.25 L 6.910156 3.792969 L 6.941406 3.816406 C 6.925781 3.84375 6.921875 3.863281 6.921875 3.871094 C 6.921875 3.878906 6.929688 3.890625 6.945312 3.902344 L 7.152344 4.054688 C 7.164062 4.0625 7.175781 4.066406 7.183594 4.0625 C 7.195312 4.054688 7.203125 4.050781 7.214844 4.042969 L 7.246094 4.066406 C 7.242188 4.128906 7.234375 4.1875 7.222656 4.246094 C 7.207031 4.304688 7.1875 4.359375 7.164062 4.414062 C 7.140625 4.464844 7.117188 4.515625 7.085938 4.5625 C 7.050781 4.609375 7.019531 4.65625 6.988281 4.699219 C 6.925781 4.785156 6.859375 4.855469 6.785156 4.910156 C 6.714844 4.964844 6.636719 5.003906 6.558594 5.019531 C 6.480469 5.039062 6.402344 5.042969 6.320312 5.023438 C 6.242188 5.007812 6.160156 4.972656 6.085938 4.914062 C 6.007812 4.859375 5.949219 4.796875 5.910156 4.722656 C 5.867188 4.652344 5.84375 4.574219 5.839844 4.496094 C 5.832031 4.414062 5.84375 4.328125 5.875 4.242188 C 5.902344 4.15625 5.949219 4.070312 6.011719 3.984375 C 6.050781 3.929688 6.089844 3.882812 6.132812 3.835938 C 6.175781 3.792969 6.21875 3.757812 6.253906 3.726562 C 6.292969 3.695312 6.320312 3.671875 6.347656 3.652344 C 6.375 3.632812 6.390625 3.621094 6.394531 3.613281 C 6.402344 3.601562 6.40625 3.59375 6.40625 3.582031 C 6.40625 3.570312 6.40625 3.5625 6.40625 3.554688 L 6.433594 3.542969 L 6.597656 3.828125 "/>
<path style=" stroke:none;fill-rule:nonzero;fill:rgb(10.196078%,39.215686%,71.764706%);fill-opacity:1;" d="M 7.34375 2.820312 C 7.3125 2.875 7.292969 2.929688 7.28125 2.984375 C 7.273438 3.039062 7.273438 3.097656 7.285156 3.152344 C 7.296875 3.210938 7.324219 3.261719 7.367188 3.308594 C 7.410156 3.355469 7.457031 3.386719 7.511719 3.40625 C 7.570312 3.421875 7.625 3.429688 7.683594 3.421875 C 7.738281 3.417969 7.792969 3.398438 7.847656 3.375 C 7.902344 3.347656 7.953125 3.316406 7.996094 3.277344 C 8.039062 3.238281 8.074219 3.195312 8.105469 3.140625 C 8.132812 3.089844 8.15625 3.035156 8.164062 2.980469 C 8.175781 2.925781 8.175781 2.867188 8.164062 2.8125 C 8.152344 2.753906 8.125 2.703125 8.082031 2.65625 C 8.039062 2.609375 7.988281 2.578125 7.933594 2.558594 C 7.878906 2.542969 7.824219 2.539062 7.765625 2.542969 C 7.710938 2.546875 7.652344 2.5625 7.597656 2.589844 C 7.542969 2.617188 7.496094 2.648438 7.453125 2.6875 C 7.410156 2.726562 7.375 2.769531 7.34375 2.820312 M 7.527344 2.386719 C 7.605469 2.347656 7.691406 2.324219 7.777344 2.3125 C 7.863281 2.300781 7.949219 2.308594 8.03125 2.335938 C 8.117188 2.359375 8.195312 2.410156 8.265625 2.488281 C 8.335938 2.566406 8.378906 2.648438 8.398438 2.734375 C 8.414062 2.820312 8.414062 2.90625 8.394531 2.992188 C 8.378906 3.078125 8.34375 3.15625 8.296875 3.230469 C 8.246094 3.308594 8.191406 3.371094 8.132812 3.429688 C 8.070312 3.484375 8 3.53125 7.921875 3.574219 C 7.839844 3.617188 7.757812 3.640625 7.671875 3.652344 C 7.585938 3.664062 7.5 3.65625 7.414062 3.628906 C 7.332031 3.605469 7.253906 3.554688 7.183594 3.476562 C 7.113281 3.398438 7.070312 3.316406 7.050781 3.230469 C 7.03125 3.140625 7.03125 3.058594 7.050781 2.972656 C 7.070312 2.886719 7.101562 2.804688 7.148438 2.730469 C 7.199219 2.652344 7.253906 2.585938 7.3125 2.53125 C 7.375 2.476562 7.445312 2.425781 7.527344 2.386719 "/>
<path style=" stroke:none;fill-rule:nonzero;fill:rgb(10.196078%,39.215686%,71.764706%);fill-opacity:1;" d="M 9.886719 2.167969 C 9.871094 2.171875 9.855469 2.179688 9.835938 2.191406 L 8.917969 2.761719 L 8.898438 2.726562 C 8.933594 2.703125 8.949219 2.679688 8.933594 2.65625 L 8.390625 1.78125 C 8.375 1.757812 8.351562 1.757812 8.3125 1.78125 L 8.289062 1.746094 L 8.621094 1.542969 L 8.644531 1.578125 C 8.605469 1.597656 8.597656 1.621094 8.609375 1.644531 L 9.085938 2.410156 L 9.726562 2.015625 C 9.746094 2.003906 9.757812 1.988281 9.765625 1.972656 C 9.773438 1.957031 9.769531 1.9375 9.761719 1.921875 L 9.796875 1.902344 L 9.960938 2.164062 L 9.925781 2.1875 C 9.914062 2.167969 9.898438 2.160156 9.886719 2.167969 "/>
<path style=" stroke:none;fill-rule:nonzero;fill:rgb(10.196078%,39.215686%,71.764706%);fill-opacity:1;" d="M 10.671875 1.605469 C 10.738281 1.582031 10.792969 1.550781 10.835938 1.523438 C 10.882812 1.492188 10.914062 1.453125 10.933594 1.414062 C 10.957031 1.371094 10.964844 1.324219 10.960938 1.269531 C 10.960938 1.214844 10.945312 1.152344 10.914062 1.078125 C 10.886719 1.007812 10.851562 0.949219 10.820312 0.90625 C 10.78125 0.867188 10.742188 0.835938 10.699219 0.820312 C 10.65625 0.804688 10.609375 0.800781 10.554688 0.808594 C 10.5 0.816406 10.441406 0.835938 10.375 0.863281 L 10.046875 0.992188 L 10.34375 1.738281 Z M 10.386719 0.648438 C 10.464844 0.617188 10.539062 0.597656 10.617188 0.59375 C 10.691406 0.589844 10.761719 0.601562 10.832031 0.628906 C 10.898438 0.652344 10.960938 0.695312 11.015625 0.753906 C 11.070312 0.8125 11.117188 0.890625 11.15625 0.984375 C 11.191406 1.078125 11.210938 1.164062 11.210938 1.246094 C 11.210938 1.328125 11.195312 1.398438 11.164062 1.464844 C 11.132812 1.53125 11.085938 1.585938 11.03125 1.636719 C 10.972656 1.683594 10.902344 1.726562 10.828125 1.753906 L 10.125 2.035156 L 10.113281 1.996094 C 10.144531 1.984375 10.15625 1.964844 10.144531 1.9375 L 9.765625 0.980469 C 9.753906 0.957031 9.734375 0.949219 9.703125 0.960938 L 9.6875 0.925781 L 10.386719 0.648438 "/>
<path style=" stroke:none;fill-rule:nonzero;fill:rgb(10.196078%,39.215686%,71.764706%);fill-opacity:1;" d="M 12.609375 0.3125 C 12.605469 0.296875 12.597656 0.285156 12.582031 0.277344 C 12.570312 0.273438 12.546875 0.273438 12.515625 0.28125 L 11.792969 0.421875 L 11.847656 0.695312 L 12.285156 0.609375 C 12.3125 0.605469 12.335938 0.597656 12.351562 0.585938 C 12.367188 0.574219 12.371094 0.550781 12.363281 0.515625 L 12.402344 0.507812 L 12.46875 0.855469 L 12.429688 0.863281 C 12.425781 0.832031 12.414062 0.808594 12.394531 0.804688 C 12.375 0.796875 12.351562 0.796875 12.320312 0.800781 L 11.886719 0.886719 L 11.945312 1.195312 L 12.6875 1.050781 C 12.710938 1.046875 12.726562 1.035156 12.742188 1.023438 C 12.753906 1.007812 12.757812 0.996094 12.753906 0.976562 L 12.792969 0.96875 L 12.851562 1.273438 L 12.8125 1.28125 C 12.808594 1.261719 12.800781 1.25 12.785156 1.25 C 12.769531 1.25 12.75 1.25 12.730469 1.253906 L 11.691406 1.457031 L 11.683594 1.417969 C 11.695312 1.414062 11.703125 1.410156 11.710938 1.402344 C 11.714844 1.394531 11.71875 1.382812 11.714844 1.371094 L 11.519531 0.359375 C 11.515625 0.347656 11.507812 0.335938 11.5 0.332031 C 11.492188 0.328125 11.480469 0.324219 11.472656 0.328125 L 11.460938 0.285156 L 12.476562 0.0898438 C 12.507812 0.0820312 12.53125 0.0742188 12.542969 0.0625 C 12.550781 0.0507812 12.554688 0.0351562 12.550781 0.0195312 L 12.59375 0.0117188 L 12.648438 0.304688 L 12.609375 0.3125 "/>
<path style=" stroke:none;fill-rule:nonzero;fill:rgb(10.196078%,39.215686%,71.764706%);fill-opacity:1;" d="M 13.1875 1.152344 C 13.21875 1.152344 13.230469 1.136719 13.230469 1.113281 L 13.230469 0.0820312 C 13.230469 0.0546875 13.21875 0.0429688 13.1875 0.0429688 L 13.1875 0 L 13.574219 0 L 13.574219 0.0429688 C 13.5625 0.0429688 13.558594 0.046875 13.558594 0.0625 C 13.558594 0.078125 13.574219 0.0976562 13.601562 0.128906 L 14.253906 0.804688 L 14.253906 0.0820312 C 14.253906 0.0546875 14.234375 0.0429688 14.195312 0.0429688 L 14.195312 0 L 14.539062 0 L 14.539062 0.0429688 C 14.507812 0.0429688 14.496094 0.0546875 14.496094 0.0820312 L 14.492188 1.109375 C 14.492188 1.136719 14.507812 1.152344 14.535156 1.152344 L 14.535156 1.191406 L 14.167969 1.191406 L 14.167969 1.152344 C 14.1875 1.152344 14.199219 1.144531 14.199219 1.132812 C 14.199219 1.121094 14.1875 1.105469 14.164062 1.078125 L 13.472656 0.359375 L 13.472656 1.109375 C 13.472656 1.136719 13.488281 1.152344 13.523438 1.152344 L 13.523438 1.191406 L 13.1875 1.191406 L 13.1875 1.152344 "/>
<path style=" stroke:none;fill-rule:nonzero;fill:rgb(10.196078%,39.215686%,71.764706%);fill-opacity:1;" d="M 15.816406 1.023438 L 15.835938 1.039062 C 15.832031 1.050781 15.832031 1.066406 15.832031 1.078125 C 15.839844 1.097656 15.855469 1.121094 15.878906 1.144531 C 15.90625 1.171875 15.933594 1.195312 15.96875 1.21875 C 16.003906 1.242188 16.042969 1.261719 16.082031 1.285156 C 16.121094 1.304688 16.160156 1.316406 16.191406 1.328125 C 16.21875 1.335938 16.25 1.339844 16.289062 1.347656 C 16.332031 1.355469 16.371094 1.359375 16.414062 1.359375 C 16.453125 1.359375 16.492188 1.351562 16.523438 1.335938 C 16.558594 1.324219 16.578125 1.300781 16.589844 1.265625 C 16.597656 1.234375 16.59375 1.207031 16.570312 1.183594 C 16.550781 1.160156 16.519531 1.136719 16.480469 1.121094 C 16.441406 1.101562 16.394531 1.082031 16.34375 1.066406 C 16.289062 1.046875 16.234375 1.03125 16.183594 1.011719 C 16.128906 0.992188 16.074219 0.96875 16.027344 0.945312 C 15.976562 0.917969 15.933594 0.890625 15.898438 0.851562 C 15.863281 0.816406 15.839844 0.773438 15.824219 0.726562 C 15.8125 0.679688 15.8125 0.621094 15.832031 0.554688 C 15.84375 0.507812 15.867188 0.464844 15.902344 0.429688 C 15.933594 0.390625 15.976562 0.363281 16.03125 0.339844 C 16.082031 0.320312 16.144531 0.304688 16.21875 0.304688 C 16.292969 0.300781 16.375 0.3125 16.464844 0.339844 C 16.539062 0.359375 16.605469 0.382812 16.660156 0.410156 C 16.710938 0.4375 16.757812 0.464844 16.796875 0.492188 C 16.835938 0.515625 16.867188 0.535156 16.890625 0.558594 C 16.917969 0.578125 16.9375 0.589844 16.957031 0.59375 C 16.976562 0.601562 16.992188 0.597656 17.003906 0.59375 L 17.027344 0.617188 L 16.800781 0.847656 L 16.78125 0.832031 C 16.78125 0.8125 16.78125 0.792969 16.777344 0.777344 C 16.769531 0.757812 16.753906 0.734375 16.734375 0.710938 C 16.710938 0.6875 16.683594 0.664062 16.648438 0.640625 C 16.617188 0.617188 16.582031 0.59375 16.539062 0.574219 C 16.5 0.554688 16.460938 0.539062 16.417969 0.527344 C 16.386719 0.519531 16.351562 0.511719 16.316406 0.507812 C 16.28125 0.503906 16.246094 0.503906 16.21875 0.503906 C 16.1875 0.507812 16.160156 0.515625 16.136719 0.527344 C 16.113281 0.539062 16.097656 0.554688 16.09375 0.582031 C 16.082031 0.617188 16.089844 0.644531 16.109375 0.671875 C 16.128906 0.695312 16.160156 0.71875 16.199219 0.738281 C 16.238281 0.757812 16.28125 0.777344 16.335938 0.792969 C 16.386719 0.8125 16.441406 0.832031 16.496094 0.851562 C 16.546875 0.871094 16.601562 0.894531 16.652344 0.917969 C 16.703125 0.945312 16.742188 0.976562 16.777344 1.011719 C 16.8125 1.046875 16.839844 1.089844 16.851562 1.136719 C 16.867188 1.183594 16.863281 1.242188 16.84375 1.304688 C 16.824219 1.382812 16.789062 1.4375 16.734375 1.476562 C 16.679688 1.511719 16.621094 1.535156 16.554688 1.546875 C 16.484375 1.558594 16.414062 1.558594 16.34375 1.550781 C 16.273438 1.539062 16.207031 1.527344 16.144531 1.511719 C 16.0625 1.488281 15.996094 1.460938 15.941406 1.4375 C 15.886719 1.410156 15.84375 1.386719 15.8125 1.363281 C 15.777344 1.339844 15.753906 1.320312 15.734375 1.300781 C 15.714844 1.285156 15.699219 1.273438 15.679688 1.269531 C 15.671875 1.265625 15.660156 1.269531 15.648438 1.28125 L 15.621094 1.253906 L 15.816406 1.023438 "/>
<path style=" stroke:none;fill-rule:nonzero;fill:rgb(10.196078%,39.215686%,71.764706%);fill-opacity:1;" d="M 17.707031 2.054688 L 17.6875 2.09375 L 17.375 1.941406 L 17.390625 1.90625 C 17.398438 1.910156 17.410156 1.910156 17.421875 1.910156 C 17.433594 1.90625 17.441406 1.898438 17.445312 1.886719 L 17.832031 1.070312 L 17.496094 0.910156 C 17.480469 0.90625 17.46875 0.902344 17.453125 0.902344 C 17.441406 0.90625 17.425781 0.917969 17.417969 0.933594 L 17.382812 0.917969 L 17.519531 0.632812 L 17.554688 0.648438 C 17.546875 0.667969 17.546875 0.683594 17.554688 0.695312 C 17.5625 0.710938 17.574219 0.71875 17.582031 0.722656 L 18.496094 1.15625 C 18.507812 1.160156 18.519531 1.160156 18.535156 1.160156 C 18.550781 1.160156 18.5625 1.148438 18.570312 1.128906 L 18.609375 1.148438 L 18.472656 1.433594 L 18.433594 1.414062 C 18.441406 1.394531 18.441406 1.378906 18.433594 1.367188 C 18.425781 1.355469 18.417969 1.347656 18.402344 1.339844 L 18.066406 1.179688 L 17.679688 1.996094 C 17.667969 2.023438 17.679688 2.042969 17.707031 2.054688 "/>
<path style=" stroke:none;fill-rule:nonzero;fill:rgb(10.196078%,39.215686%,71.764706%);fill-opacity:1;" d="M 19.019531 2.347656 L 19.097656 1.890625 L 18.683594 2.121094 Z M 18.074219 2.21875 C 18.09375 2.226562 18.109375 2.226562 18.128906 2.21875 C 18.148438 2.210938 18.167969 2.203125 18.1875 2.191406 L 19.03125 1.695312 C 19.050781 1.683594 19.066406 1.675781 19.082031 1.664062 C 19.097656 1.65625 19.109375 1.644531 19.117188 1.636719 C 19.125 1.625 19.128906 1.613281 19.125 1.601562 C 19.117188 1.589844 19.109375 1.582031 19.101562 1.570312 L 19.125 1.539062 L 19.441406 1.75 L 19.421875 1.785156 C 19.410156 1.78125 19.398438 1.777344 19.386719 1.777344 C 19.375 1.777344 19.367188 1.78125 19.355469 1.796875 C 19.347656 1.804688 19.34375 1.816406 19.34375 1.832031 C 19.339844 1.84375 19.339844 1.863281 19.335938 1.882812 L 19.210938 2.914062 C 19.207031 2.929688 19.210938 2.945312 19.214844 2.960938 C 19.222656 2.972656 19.230469 2.988281 19.238281 3.003906 L 19.214844 3.039062 L 18.886719 2.8125 L 18.90625 2.78125 C 18.914062 2.785156 18.921875 2.785156 18.929688 2.785156 C 18.941406 2.789062 18.949219 2.785156 18.953125 2.777344 C 18.960938 2.765625 18.96875 2.746094 18.96875 2.71875 L 18.992188 2.53125 L 18.535156 2.222656 L 18.375 2.3125 C 18.34375 2.328125 18.328125 2.34375 18.320312 2.355469 C 18.308594 2.367188 18.316406 2.382812 18.339844 2.398438 L 18.316406 2.433594 L 18.050781 2.253906 L 18.074219 2.21875 "/>
<path style=" stroke:none;fill-rule:nonzero;fill:rgb(10.196078%,39.215686%,71.764706%);fill-opacity:1;" d="M 19.800781 3.535156 L 19.773438 3.5625 L 19.515625 3.328125 L 19.546875 3.296875 C 19.550781 3.304688 19.5625 3.308594 19.574219 3.308594 C 19.582031 3.308594 19.59375 3.304688 19.601562 3.296875 L 20.214844 2.632812 L 19.9375 2.378906 C 19.929688 2.367188 19.917969 2.363281 19.902344 2.359375 C 19.886719 2.355469 19.875 2.363281 19.859375 2.378906 L 19.828125 2.351562 L 20.042969 2.117188 L 20.074219 2.144531 C 20.058594 2.160156 20.054688 2.175781 20.058594 2.1875 C 20.0625 2.203125 20.070312 2.214844 20.082031 2.222656 L 20.820312 2.90625 C 20.832031 2.914062 20.84375 2.921875 20.859375 2.925781 C 20.871094 2.929688 20.886719 2.921875 20.902344 2.90625 L 20.933594 2.933594 L 20.71875 3.167969 L 20.6875 3.140625 C 20.703125 3.125 20.707031 3.109375 20.703125 3.09375 C 20.699219 3.082031 20.691406 3.070312 20.679688 3.058594 L 20.40625 2.804688 L 19.792969 3.46875 C 19.773438 3.488281 19.777344 3.511719 19.800781 3.535156 "/>
<path style=" stroke:none;fill-rule:nonzero;fill:rgb(10.196078%,39.215686%,71.764706%);fill-opacity:1;" d="M 21.714844 4.378906 C 21.726562 4.367188 21.734375 4.355469 21.734375 4.339844 C 21.734375 4.324219 21.722656 4.304688 21.703125 4.28125 L 21.253906 3.699219 L 21.03125 3.871094 L 21.304688 4.222656 C 21.320312 4.246094 21.339844 4.261719 21.355469 4.269531 C 21.371094 4.277344 21.394531 4.273438 21.421875 4.25 L 21.449219 4.28125 L 21.167969 4.5 L 21.140625 4.464844 C 21.167969 4.445312 21.183594 4.425781 21.179688 4.40625 C 21.179688 4.386719 21.167969 4.363281 21.148438 4.339844 L 20.878906 3.988281 L 20.628906 4.179688 L 21.09375 4.78125 C 21.105469 4.796875 21.121094 4.808594 21.136719 4.816406 C 21.15625 4.820312 21.171875 4.816406 21.1875 4.804688 L 21.210938 4.839844 L 20.964844 5.027344 L 20.941406 4.996094 C 20.957031 4.984375 20.964844 4.96875 20.957031 4.957031 C 20.949219 4.941406 20.941406 4.925781 20.925781 4.90625 L 20.28125 4.070312 L 20.3125 4.046875 C 20.320312 4.054688 20.328125 4.058594 20.339844 4.0625 C 20.347656 4.066406 20.359375 4.0625 20.371094 4.054688 L 21.1875 3.425781 C 21.199219 3.417969 21.203125 3.40625 21.203125 3.398438 C 21.203125 3.386719 21.199219 3.375 21.195312 3.367188 L 21.226562 3.34375 L 21.855469 4.160156 C 21.878906 4.1875 21.894531 4.203125 21.910156 4.207031 C 21.925781 4.210938 21.941406 4.207031 21.953125 4.195312 L 21.980469 4.230469 L 21.742188 4.414062 L 21.714844 4.378906 "/>
</g>
</svg>
