<?xml version="1.0" encoding="UTF-8"?>
<svg xmlns="http://www.w3.org/2000/svg" xmlns:xlink="http://www.w3.org/1999/xlink" width="17pt" height="20pt" viewBox="0 0 17 20" version="1.1">
<g id="surface1">
<path style=" stroke:none;fill-rule:nonzero;fill:rgb(100%,100%,100%);fill-opacity:1;" d="M 0.5625 10.246094 L 16.449219 10.246094 L 16.449219 13.683594 L 8.503906 19.324219 L 0.5625 13.683594 Z M 0.5625 0.550781 L 16.449219 0.550781 L 16.449219 9.765625 L 0.5625 9.765625 Z M 0 13.964844 L 8.503906 20.003906 L 17.011719 13.964844 L 17.011719 0 L 0 0 Z M 0 13.964844 "/>
<path style=" stroke:none;fill-rule:nonzero;fill:rgb(100%,100%,100%);fill-opacity:1;" d="M 14.253906 4.867188 L 9.847656 4.867188 L 9.847656 3.179688 L 14.253906 3.179688 Z M 8.808594 2.433594 C 8.953125 2.769531 9.207031 3.5625 9.207031 5.042969 C 9.207031 6.519531 8.953125 7.3125 8.808594 7.648438 L 9.847656 7.648438 L 9.847656 5.609375 L 14.253906 5.609375 L 14.253906 7.648438 L 15.296875 7.648438 C 15.148438 7.3125 14.894531 6.519531 14.894531 5.042969 C 14.894531 3.5625 15.148438 2.769531 15.296875 2.433594 Z M 8.808594 2.433594 "/>
<path style=" stroke:none;fill-rule:nonzero;fill:rgb(100%,100%,100%);fill-opacity:1;" d="M 2.757812 6.902344 L 2.757812 5.039062 C 2.757812 3.5625 3.011719 2.769531 3.15625 2.433594 L 1.714844 2.433594 C 1.859375 2.769531 2.113281 3.5625 2.113281 5.039062 C 2.113281 6.519531 1.859375 7.3125 1.714844 7.648438 L 7.496094 7.648438 C 7.589844 7.5 7.863281 7.019531 7.925781 6.339844 C 7.59375 6.5625 6.90625 6.902344 5.757812 6.902344 Z M 2.757812 6.902344 "/>
<path style=" stroke:none;fill-rule:nonzero;fill:rgb(100%,100%,100%);fill-opacity:1;" d="M 8.21875 15.988281 C 7.835938 15.988281 7.417969 15.941406 7.125 15.902344 C 7.511719 16.046875 8.097656 16.105469 8.097656 16.105469 C 7.664062 16.105469 7.191406 16.050781 6.902344 16.011719 C 7.328125 16.171875 8.046875 16.238281 8.046875 16.238281 C 6.988281 16.207031 6.363281 16.054688 6.363281 16.054688 L 5.875 13.28125 L 6.367188 13.925781 C 6.582031 13.578125 7.003906 13.300781 7.539062 13.144531 L 7.390625 12.789062 L 8.152344 13.125 L 8.152344 12.941406 L 8.503906 12.347656 L 8.855469 12.941406 L 8.855469 13.125 L 9.617188 12.789062 L 9.46875 13.144531 C 10.007812 13.300781 10.425781 13.578125 10.644531 13.925781 L 11.136719 13.28125 L 10.648438 16.054688 C 10.648438 16.054688 10.023438 16.207031 8.964844 16.238281 C 8.964844 16.238281 9.683594 16.171875 10.109375 16.011719 C 9.820312 16.050781 9.34375 16.105469 8.914062 16.105469 C 8.914062 16.105469 9.496094 16.046875 9.886719 15.902344 C 9.59375 15.941406 9.175781 15.988281 8.792969 15.988281 C 8.792969 15.988281 9.363281 15.929688 9.75 15.789062 C 9.402344 15.714844 8.976562 15.65625 8.503906 15.65625 C 8.035156 15.65625 7.609375 15.714844 7.261719 15.789062 C 7.648438 15.929688 8.21875 15.988281 8.21875 15.988281 M 8.085938 12.851562 L 8.464844 12.210938 L 8.28125 11.898438 L 8.234375 11.855469 L 8.265625 11.808594 L 8.335938 11.816406 L 8.34375 11.871094 L 8.503906 12.144531 L 8.664062 11.871094 L 8.675781 11.816406 L 8.746094 11.808594 L 8.777344 11.855469 L 8.730469 11.898438 L 8.546875 12.210938 L 8.925781 12.851562 L 9.222656 12.851562 L 9.1875 12.921875 L 8.882812 12.921875 L 8.503906 12.28125 L 8.125 12.921875 L 7.824219 12.921875 L 7.789062 12.851562 Z M 10.742188 16.179688 L 11.296875 13.070312 L 11.179688 13.023438 C 11.179688 13.023438 10.730469 13.613281 10.644531 13.722656 C 10.460938 13.5 10.109375 13.226562 9.632812 13.070312 C 9.671875 12.980469 9.84375 12.566406 9.84375 12.566406 C 9.84375 12.566406 9.578125 12.671875 9.460938 12.71875 C 9.476562 12.695312 9.488281 12.671875 9.488281 12.671875 C 9.488281 12.671875 9.078125 12.691406 9.015625 12.695312 C 8.980469 12.640625 8.757812 12.253906 8.730469 12.203125 C 8.753906 12.15625 8.839844 12.011719 8.847656 11.996094 C 8.863281 11.984375 8.96875 11.898438 8.96875 11.898438 L 8.832031 11.644531 L 8.542969 11.664062 C 8.542969 11.664062 8.539062 11.796875 8.539062 11.820312 L 8.503906 11.875 L 8.472656 11.820312 C 8.472656 11.796875 8.464844 11.664062 8.464844 11.664062 L 8.179688 11.644531 L 8.042969 11.898438 C 8.042969 11.898438 8.148438 11.984375 8.160156 11.996094 C 8.171875 12.011719 8.253906 12.15625 8.28125 12.203125 C 8.25 12.253906 8.03125 12.640625 7.996094 12.695312 C 7.933594 12.691406 7.523438 12.671875 7.523438 12.671875 C 7.523438 12.671875 7.535156 12.695312 7.546875 12.71875 C 7.433594 12.671875 7.167969 12.566406 7.167969 12.566406 C 7.167969 12.566406 7.339844 12.980469 7.378906 13.070312 C 6.902344 13.226562 6.550781 13.5 6.363281 13.722656 C 6.28125 13.613281 5.832031 13.023438 5.832031 13.023438 L 5.714844 13.070312 L 6.269531 16.179688 C 6.269531 16.179688 7.054688 16.378906 8.503906 16.378906 C 9.957031 16.378906 10.742188 16.179688 10.742188 16.179688 "/>
<path style=" stroke:none;fill-rule:nonzero;fill:rgb(100%,100%,100%);fill-opacity:1;" d="M 6.457031 14.042969 L 6.589844 14.214844 C 6.914062 13.589844 7.566406 13.519531 7.566406 13.519531 C 7.007812 13.722656 6.773438 14.046875 6.699219 14.359375 L 6.824219 14.527344 C 6.824219 14.527344 6.808594 14.96875 6.898438 15.152344 C 6.925781 15.144531 6.957031 15.132812 6.996094 15.121094 C 6.703125 13.941406 7.648438 13.722656 7.648438 13.722656 C 6.980469 14.0625 7.042969 14.667969 7.179688 15.066406 C 7.234375 15.050781 7.296875 15.035156 7.363281 15.019531 L 7.464844 14.53125 C 7.378906 14.496094 7.316406 14.414062 7.316406 14.320312 C 7.316406 14.195312 7.417969 14.089844 7.546875 14.089844 C 7.621094 14.089844 7.6875 14.125 7.730469 14.179688 C 7.792969 14.21875 7.832031 14.285156 7.832031 14.363281 C 7.832031 14.445312 7.789062 14.515625 7.71875 14.550781 L 7.933594 14.929688 C 8.042969 14.917969 8.160156 14.910156 8.277344 14.90625 L 7.59375 13.269531 C 7.0625 13.421875 6.644531 13.703125 6.457031 14.042969 "/>
<path style=" stroke:none;fill-rule:nonzero;fill:rgb(100%,100%,100%);fill-opacity:1;" d="M 9.308594 14.515625 C 9.242188 14.472656 9.195312 14.402344 9.195312 14.320312 C 9.195312 14.195312 9.300781 14.09375 9.429688 14.09375 C 9.503906 14.09375 9.570312 14.125 9.613281 14.179688 C 9.671875 14.21875 9.714844 14.285156 9.714844 14.363281 C 9.714844 14.460938 9.648438 14.542969 9.554688 14.570312 L 9.648438 15.019531 C 9.714844 15.035156 9.773438 15.050781 9.832031 15.066406 C 9.96875 14.667969 10.027344 14.0625 9.359375 13.722656 C 9.359375 13.722656 10.304688 13.941406 10.015625 15.121094 C 10.050781 15.132812 10.085938 15.144531 10.113281 15.152344 C 10.203125 14.96875 10.1875 14.527344 10.1875 14.527344 L 10.3125 14.363281 C 10.234375 14.046875 10.003906 13.722656 9.441406 13.519531 C 9.441406 13.519531 10.097656 13.589844 10.421875 14.214844 L 10.554688 14.042969 C 10.367188 13.703125 9.949219 13.421875 9.417969 13.269531 L 8.734375 14.90625 C 8.851562 14.910156 8.964844 14.917969 9.078125 14.929688 Z M 9.308594 14.515625 "/>
<path style=" stroke:none;fill-rule:nonzero;fill:rgb(100%,100%,100%);fill-opacity:1;" d="M 7.546875 14.492188 C 7.449219 14.492188 7.371094 14.414062 7.371094 14.320312 C 7.371094 14.222656 7.449219 14.148438 7.546875 14.148438 C 7.644531 14.148438 7.722656 14.222656 7.722656 14.320312 C 7.722656 14.414062 7.644531 14.492188 7.546875 14.492188 M 7.546875 14.125 C 7.4375 14.125 7.351562 14.210938 7.351562 14.320312 C 7.351562 14.425781 7.4375 14.511719 7.546875 14.511719 C 7.65625 14.511719 7.746094 14.425781 7.746094 14.320312 C 7.746094 14.210938 7.65625 14.125 7.546875 14.125 "/>
<path style=" stroke:none;fill-rule:nonzero;fill:rgb(100%,100%,100%);fill-opacity:1;" d="M 9.429688 14.492188 C 9.332031 14.492188 9.253906 14.414062 9.253906 14.320312 C 9.253906 14.222656 9.332031 14.148438 9.429688 14.148438 C 9.523438 14.148438 9.605469 14.222656 9.605469 14.320312 C 9.605469 14.414062 9.523438 14.492188 9.429688 14.492188 M 9.625 14.320312 C 9.625 14.210938 9.539062 14.125 9.429688 14.125 C 9.320312 14.125 9.230469 14.210938 9.230469 14.320312 C 9.230469 14.425781 9.320312 14.511719 9.429688 14.511719 C 9.539062 14.511719 9.625 14.425781 9.625 14.320312 "/>
<path style=" stroke:none;fill-rule:nonzero;fill:rgb(100%,100%,100%);fill-opacity:1;" d="M 6.296875 14.8125 C 6.296875 14.765625 6.261719 14.726562 6.214844 14.726562 C 6.207031 14.726562 6.199219 14.730469 6.195312 14.730469 L 6.222656 14.898438 C 6.265625 14.894531 6.296875 14.859375 6.296875 14.8125 "/>
<path style=" stroke:none;fill-rule:nonzero;fill:rgb(100%,100%,100%);fill-opacity:1;" d="M 6.214844 14.570312 C 6.199219 14.570312 6.183594 14.570312 6.167969 14.574219 L 6.171875 14.605469 C 6.1875 14.601562 6.199219 14.601562 6.214844 14.601562 C 6.328125 14.601562 6.414062 14.695312 6.414062 14.8125 C 6.414062 14.917969 6.339844 15.007812 6.246094 15.023438 L 6.25 15.054688 C 6.363281 15.035156 6.449219 14.933594 6.449219 14.8125 C 6.449219 14.679688 6.34375 14.570312 6.214844 14.570312 "/>
<path style=" stroke:none;fill-rule:nonzero;fill:rgb(100%,100%,100%);fill-opacity:1;" d="M 10.714844 14.8125 C 10.714844 14.859375 10.746094 14.894531 10.789062 14.898438 L 10.816406 14.730469 C 10.808594 14.730469 10.800781 14.726562 10.792969 14.726562 C 10.75 14.726562 10.714844 14.765625 10.714844 14.8125 "/>
<path style=" stroke:none;fill-rule:nonzero;fill:rgb(100%,100%,100%);fill-opacity:1;" d="M 10.761719 15.054688 L 10.765625 15.023438 C 10.667969 15.007812 10.59375 14.917969 10.59375 14.8125 C 10.59375 14.695312 10.683594 14.601562 10.792969 14.601562 C 10.808594 14.601562 10.824219 14.601562 10.839844 14.605469 L 10.84375 14.574219 C 10.828125 14.570312 10.8125 14.570312 10.792969 14.570312 C 10.667969 14.570312 10.5625 14.679688 10.5625 14.8125 C 10.5625 14.933594 10.648438 15.035156 10.761719 15.054688 "/>
<path style=" stroke:none;fill-rule:nonzero;fill:rgb(100%,100%,100%);fill-opacity:1;" d="M 8.414062 13.15625 C 8.414062 13.105469 8.453125 13.066406 8.503906 13.066406 C 8.554688 13.066406 8.597656 13.105469 8.597656 13.15625 C 8.597656 13.207031 8.554688 13.246094 8.503906 13.246094 C 8.453125 13.246094 8.414062 13.207031 8.414062 13.15625 M 8.609375 13.15625 C 8.609375 13.101562 8.5625 13.054688 8.503906 13.054688 C 8.449219 13.054688 8.402344 13.101562 8.402344 13.15625 C 8.402344 13.210938 8.449219 13.257812 8.503906 13.257812 C 8.5625 13.257812 8.609375 13.210938 8.609375 13.15625 "/>
<path style=" stroke:none;fill-rule:nonzero;fill:rgb(100%,100%,100%);fill-opacity:1;" d="M 9.058594 13.261719 C 9.109375 13.261719 9.152344 13.300781 9.152344 13.351562 C 9.152344 13.398438 9.109375 13.441406 9.058594 13.441406 C 9.007812 13.441406 8.96875 13.398438 8.96875 13.351562 C 8.96875 13.300781 9.007812 13.261719 9.058594 13.261719 M 9.058594 13.453125 C 9.117188 13.453125 9.164062 13.40625 9.164062 13.351562 C 9.164062 13.296875 9.117188 13.25 9.058594 13.25 C 9.003906 13.25 8.957031 13.296875 8.957031 13.351562 C 8.957031 13.40625 9.003906 13.453125 9.058594 13.453125 "/>
<path style=" stroke:none;fill-rule:nonzero;fill:rgb(100%,100%,100%);fill-opacity:1;" d="M 7.898438 13.261719 C 7.949219 13.261719 7.988281 13.300781 7.988281 13.351562 C 7.988281 13.398438 7.949219 13.441406 7.898438 13.441406 C 7.847656 13.441406 7.808594 13.398438 7.808594 13.351562 C 7.808594 13.300781 7.847656 13.261719 7.898438 13.261719 M 7.898438 13.453125 C 7.953125 13.453125 8 13.40625 8 13.351562 C 8 13.296875 7.953125 13.25 7.898438 13.25 C 7.839844 13.25 7.796875 13.296875 7.796875 13.351562 C 7.796875 13.40625 7.839844 13.453125 7.898438 13.453125 "/>
<path style=" stroke:none;fill-rule:nonzero;fill:rgb(69.019608%,71.764706%,73.333333%);fill-opacity:1;" d="M 1.0625 11.101562 L 15.949219 11.101562 L 15.949219 13.429688 L 8.503906 18.714844 L 1.0625 13.429688 Z M 16.449219 13.683594 L 16.449219 10.246094 L 0.5625 10.246094 L 0.5625 13.683594 L 8.503906 19.324219 Z M 16.449219 13.683594 "/>
<path style=" stroke:none;fill-rule:nonzero;fill:rgb(69.019608%,71.764706%,73.333333%);fill-opacity:1;" d="M 15.949219 9.039062 L 1.0625 9.039062 L 1.0625 1.042969 L 15.949219 1.042969 Z M 16.449219 0.550781 L 0.5625 0.550781 L 0.5625 9.765625 L 16.449219 9.765625 Z M 16.449219 0.550781 "/>
<path style=" stroke:none;fill-rule:nonzero;fill:rgb(69.019608%,71.764706%,73.333333%);fill-opacity:1;" d="M 8.808594 2.433594 L 15.296875 2.433594 C 15.148438 2.769531 14.898438 3.5625 14.898438 5.042969 C 14.898438 6.519531 15.148438 7.3125 15.296875 7.648438 L 14.253906 7.648438 L 14.253906 5.609375 L 9.847656 5.609375 L 9.847656 7.648438 L 8.808594 7.648438 C 8.953125 7.3125 9.207031 6.519531 9.207031 5.042969 C 9.207031 3.5625 8.953125 2.769531 8.808594 2.433594 M 9.976562 7.773438 L 9.976562 5.738281 L 14.125 5.738281 L 14.125 7.773438 L 15.503906 7.773438 C 15.503906 7.773438 15.023438 7.054688 15.023438 5.042969 C 15.023438 3.027344 15.503906 2.308594 15.503906 2.308594 L 8.601562 2.308594 C 8.601562 2.308594 9.078125 3.027344 9.078125 5.042969 C 9.078125 7.054688 8.601562 7.773438 8.601562 7.773438 Z M 9.976562 7.773438 "/>
<path style=" stroke:none;fill-rule:nonzero;fill:rgb(69.019608%,71.764706%,73.333333%);fill-opacity:1;" d="M 14.125 4.742188 L 9.976562 4.742188 L 9.976562 3.304688 L 14.125 3.304688 Z M 14.253906 3.179688 L 9.847656 3.179688 L 9.847656 4.867188 L 14.253906 4.867188 Z M 14.253906 3.179688 "/>
<path style=" stroke:none;fill-rule:nonzero;fill:rgb(69.019608%,71.764706%,73.333333%);fill-opacity:1;" d="M 1.714844 2.433594 L 3.15625 2.433594 C 3.011719 2.769531 2.757812 3.5625 2.757812 5.042969 L 2.757812 6.902344 L 5.757812 6.902344 C 6.90625 6.902344 7.59375 6.5625 7.925781 6.339844 C 7.863281 7.019531 7.589844 7.5 7.496094 7.648438 L 1.714844 7.648438 C 1.859375 7.3125 2.113281 6.519531 2.113281 5.042969 C 2.113281 3.5625 1.859375 2.769531 1.714844 2.433594 M 7.5625 7.773438 C 7.5625 7.773438 8.070312 7.097656 8.070312 6.070312 C 8.070312 6.070312 7.378906 6.777344 5.757812 6.777344 L 2.886719 6.777344 L 2.886719 5.042969 C 2.886719 3.027344 3.363281 2.308594 3.363281 2.308594 L 1.507812 2.308594 C 1.507812 2.308594 1.984375 3.027344 1.984375 5.042969 C 1.984375 7.054688 1.507812 7.773438 1.507812 7.773438 Z M 7.5625 7.773438 "/>
<path style=" stroke:none;fill-rule:nonzero;fill:rgb(69.019608%,71.764706%,73.333333%);fill-opacity:1;" d="M 7.933594 13.484375 C 7.910156 13.484375 7.886719 13.476562 7.871094 13.464844 C 7.816406 13.453125 7.777344 13.40625 7.777344 13.351562 C 7.777344 13.285156 7.832031 13.234375 7.898438 13.234375 C 7.9375 13.234375 7.972656 13.25 7.992188 13.277344 C 8.023438 13.296875 8.046875 13.332031 8.046875 13.375 C 8.046875 13.433594 7.996094 13.484375 7.933594 13.484375 M 8.152344 13.195312 L 7.511719 12.910156 L 8.152344 14.449219 Z M 8.152344 13.195312 "/>
<path style=" stroke:none;fill-rule:nonzero;fill:rgb(69.019608%,71.764706%,73.333333%);fill-opacity:1;" d="M 9.09375 13.484375 C 9.070312 13.484375 9.050781 13.476562 9.03125 13.464844 C 8.980469 13.453125 8.941406 13.40625 8.941406 13.351562 C 8.941406 13.285156 8.992188 13.234375 9.058594 13.234375 C 9.097656 13.234375 9.132812 13.25 9.15625 13.277344 C 9.1875 13.296875 9.207031 13.332031 9.207031 13.375 C 9.207031 13.433594 9.15625 13.484375 9.09375 13.484375 M 8.855469 13.195312 L 8.855469 14.449219 L 9.5 12.910156 Z M 8.855469 13.195312 "/>
<path style=" stroke:none;fill-rule:nonzero;fill:rgb(69.019608%,71.764706%,73.333333%);fill-opacity:1;" d="M 8.386719 13.15625 C 8.386719 13.089844 8.4375 13.039062 8.503906 13.039062 C 8.570312 13.039062 8.625 13.089844 8.625 13.15625 C 8.625 13.222656 8.570312 13.273438 8.503906 13.273438 C 8.4375 13.273438 8.386719 13.222656 8.386719 13.15625 M 8.792969 13.167969 L 8.503906 12.800781 L 8.21875 13.167969 L 8.503906 13.503906 Z M 8.792969 13.167969 "/>
<path style=" stroke:none;fill-rule:nonzero;fill:rgb(69.019608%,71.764706%,73.333333%);fill-opacity:1;" d="M 10.414062 15.058594 L 10.503906 14.933594 L 10.566406 15.027344 Z M 10.480469 14.785156 L 10.488281 14.894531 L 10.339844 14.851562 Z M 10.539062 14.628906 L 10.488281 14.730469 L 10.382812 14.617188 Z M 10.667969 14.527344 L 10.574219 14.585938 L 10.542969 14.4375 Z M 10.773438 14.363281 L 10.835938 14.503906 L 10.722656 14.507812 Z M 9.929688 15.5625 C 9.914062 15.5625 9.898438 15.558594 9.882812 15.550781 C 9.882812 15.550781 9.882812 15.550781 9.886719 15.550781 C 9.949219 15.550781 10 15.5 10 15.4375 C 10 15.410156 9.992188 15.386719 9.976562 15.367188 C 10.011719 15.382812 10.035156 15.417969 10.035156 15.457031 C 10.035156 15.515625 9.988281 15.5625 9.929688 15.5625 M 9.792969 15.4375 C 9.792969 15.386719 9.832031 15.34375 9.886719 15.34375 C 9.9375 15.34375 9.976562 15.386719 9.976562 15.4375 C 9.976562 15.488281 9.9375 15.527344 9.886719 15.527344 C 9.832031 15.527344 9.792969 15.488281 9.792969 15.4375 M 9.03125 15.40625 C 9.015625 15.40625 9 15.402344 8.984375 15.394531 C 8.984375 15.394531 8.984375 15.394531 8.988281 15.394531 C 9.050781 15.394531 9.101562 15.34375 9.101562 15.28125 C 9.101562 15.253906 9.09375 15.230469 9.078125 15.210938 C 9.113281 15.226562 9.136719 15.261719 9.136719 15.300781 C 9.136719 15.359375 9.089844 15.40625 9.03125 15.40625 M 8.894531 15.28125 C 8.894531 15.230469 8.933594 15.1875 8.988281 15.1875 C 9.039062 15.1875 9.082031 15.230469 9.082031 15.28125 C 9.082031 15.332031 9.039062 15.371094 8.988281 15.371094 C 8.933594 15.371094 8.894531 15.332031 8.894531 15.28125 M 8.542969 14.617188 C 8.527344 14.617188 8.511719 14.613281 8.496094 14.605469 C 8.5 14.605469 8.5 14.605469 8.5 14.605469 C 8.5625 14.605469 8.617188 14.554688 8.617188 14.492188 C 8.617188 14.464844 8.605469 14.441406 8.589844 14.421875 C 8.625 14.4375 8.648438 14.472656 8.648438 14.511719 C 8.648438 14.570312 8.601562 14.617188 8.542969 14.617188 M 8.40625 14.492188 C 8.40625 14.441406 8.449219 14.398438 8.5 14.398438 C 8.550781 14.398438 8.59375 14.441406 8.59375 14.492188 C 8.59375 14.542969 8.550781 14.582031 8.5 14.582031 C 8.449219 14.582031 8.40625 14.542969 8.40625 14.492188 M 8.003906 15.40625 C 7.988281 15.40625 7.96875 15.402344 7.957031 15.394531 C 8.023438 15.394531 8.074219 15.34375 8.074219 15.28125 C 8.074219 15.253906 8.066406 15.230469 8.050781 15.210938 C 8.085938 15.226562 8.109375 15.261719 8.109375 15.300781 C 8.109375 15.359375 8.0625 15.40625 8.003906 15.40625 M 7.863281 15.28125 C 7.863281 15.230469 7.90625 15.1875 7.957031 15.1875 C 8.011719 15.1875 8.054688 15.230469 8.054688 15.28125 C 8.054688 15.332031 8.011719 15.371094 7.957031 15.371094 C 7.90625 15.371094 7.863281 15.332031 7.863281 15.28125 M 7.105469 15.5625 C 7.089844 15.5625 7.074219 15.558594 7.0625 15.550781 C 7.125 15.550781 7.179688 15.5 7.179688 15.4375 C 7.179688 15.410156 7.167969 15.386719 7.152344 15.367188 C 7.1875 15.382812 7.210938 15.417969 7.210938 15.457031 C 7.210938 15.515625 7.164062 15.5625 7.105469 15.5625 M 6.96875 15.4375 C 6.96875 15.386719 7.011719 15.34375 7.0625 15.34375 C 7.113281 15.34375 7.15625 15.386719 7.15625 15.4375 C 7.15625 15.488281 7.113281 15.527344 7.0625 15.527344 C 7.011719 15.527344 6.96875 15.488281 6.96875 15.4375 M 6.523438 14.894531 L 6.53125 14.785156 L 6.667969 14.851562 Z M 6.445312 15.027344 L 6.507812 14.933594 L 6.597656 15.058594 Z M 6.472656 14.628906 L 6.625 14.617188 L 6.523438 14.730469 Z M 6.433594 14.585938 L 6.339844 14.527344 L 6.46875 14.4375 Z M 6.175781 14.503906 L 6.238281 14.363281 L 6.289062 14.507812 Z M 6.289062 15.117188 L 6.390625 15.070312 L 6.398438 15.222656 Z M 10.621094 15.070312 L 10.722656 15.117188 L 10.613281 15.222656 Z M 10.753906 15.082031 C 10.628906 15.0625 10.53125 14.949219 10.53125 14.8125 C 10.53125 14.660156 10.648438 14.539062 10.792969 14.539062 C 10.8125 14.539062 10.832031 14.539062 10.851562 14.542969 L 11.027344 13.523438 L 10.25 14.546875 C 10.265625 15.035156 10.144531 15.230469 10.144531 15.230469 C 10.144531 15.230469 9.882812 15.128906 9.59375 15.070312 L 9.492188 14.578125 C 9.449219 14.574219 9.40625 14.5625 9.371094 14.539062 C 9.371094 14.539062 9.371094 14.539062 9.367188 14.539062 L 9.113281 14.996094 C 9.113281 14.996094 8.789062 14.964844 8.628906 14.964844 L 8.773438 14.527344 L 8.503906 13.847656 L 8.238281 14.527344 L 8.382812 14.964844 C 8.21875 14.964844 7.898438 14.996094 7.898438 14.996094 L 7.660156 14.570312 C 7.644531 14.574219 7.628906 14.578125 7.617188 14.578125 C 7.582031 14.578125 7.550781 14.570312 7.523438 14.558594 L 7.417969 15.070312 C 7.128906 15.128906 6.867188 15.230469 6.867188 15.230469 C 6.867188 15.230469 6.742188 15.035156 6.761719 14.546875 L 5.980469 13.523438 L 6.160156 14.542969 C 6.179688 14.539062 6.199219 14.539062 6.214844 14.539062 C 6.363281 14.539062 6.480469 14.660156 6.480469 14.8125 C 6.480469 14.949219 6.382812 15.0625 6.253906 15.082031 L 6.410156 15.96875 C 6.65625 15.875 7.480469 15.59375 8.503906 15.59375 C 9.53125 15.59375 10.355469 15.875 10.601562 15.96875 Z M 10.753906 15.082031 "/>
<path style=" stroke:none;fill-rule:nonzero;fill:rgb(0%,0%,0%);fill-opacity:1;" d="M 5.714844 13.070312 L 5.832031 13.023438 C 5.832031 13.023438 6.28125 13.613281 6.363281 13.722656 C 6.550781 13.5 6.902344 13.226562 7.378906 13.070312 C 7.339844 12.980469 7.167969 12.566406 7.167969 12.566406 C 7.167969 12.566406 7.433594 12.671875 7.546875 12.71875 C 7.535156 12.695312 7.523438 12.671875 7.523438 12.671875 C 7.523438 12.671875 7.933594 12.691406 7.996094 12.695312 C 8.027344 12.640625 8.25 12.253906 8.28125 12.199219 C 8.253906 12.15625 8.171875 12.011719 8.160156 11.996094 C 8.148438 11.984375 8.042969 11.894531 8.042969 11.894531 L 8.179688 11.644531 L 8.464844 11.664062 C 8.464844 11.664062 8.472656 11.796875 8.472656 11.820312 L 8.503906 11.871094 L 8.539062 11.820312 C 8.539062 11.796875 8.542969 11.664062 8.542969 11.664062 L 8.832031 11.644531 L 8.96875 11.894531 C 8.96875 11.894531 8.863281 11.984375 8.847656 11.996094 C 8.839844 12.011719 8.757812 12.15625 8.730469 12.199219 C 8.761719 12.253906 8.980469 12.640625 9.015625 12.695312 C 9.078125 12.691406 9.488281 12.671875 9.488281 12.671875 C 9.488281 12.671875 9.472656 12.695312 9.464844 12.71875 C 9.578125 12.671875 9.84375 12.566406 9.84375 12.566406 C 9.84375 12.566406 9.671875 12.980469 9.632812 13.070312 C 10.109375 13.226562 10.460938 13.5 10.648438 13.722656 C 10.730469 13.613281 11.179688 13.023438 11.179688 13.023438 L 11.296875 13.070312 L 10.742188 16.183594 C 10.742188 16.183594 9.957031 16.378906 8.503906 16.378906 C 7.054688 16.378906 6.265625 16.183594 6.265625 16.183594 Z M 15.949219 13.429688 L 15.949219 11.101562 L 1.0625 11.101562 L 1.0625 13.429688 L 8.503906 18.714844 Z M 15.949219 13.429688 "/>
<path style=" stroke:none;fill-rule:nonzero;fill:rgb(0%,0%,0%);fill-opacity:1;" d="M 15.503906 7.773438 L 14.125 7.773438 L 14.125 5.738281 L 9.976562 5.738281 L 9.976562 7.773438 L 8.601562 7.773438 C 8.601562 7.773438 9.078125 7.054688 9.078125 5.042969 C 9.078125 3.027344 8.601562 2.308594 8.601562 2.308594 L 15.503906 2.308594 C 15.503906 2.308594 15.027344 3.027344 15.027344 5.042969 C 15.027344 7.054688 15.503906 7.773438 15.503906 7.773438 M 7.5625 7.773438 L 1.507812 7.773438 C 1.507812 7.773438 1.984375 7.054688 1.984375 5.042969 C 1.984375 3.027344 1.507812 2.308594 1.507812 2.308594 L 3.363281 2.308594 C 3.363281 2.308594 2.886719 3.027344 2.886719 5.042969 L 2.886719 6.777344 L 5.757812 6.777344 C 7.378906 6.777344 8.070312 6.070312 8.070312 6.070312 C 8.070312 7.097656 7.5625 7.773438 7.5625 7.773438 M 15.949219 1.042969 L 1.0625 1.042969 L 1.0625 9.039062 L 15.949219 9.039062 Z M 15.949219 1.042969 "/>
<path style=" stroke:none;fill-rule:nonzero;fill:rgb(0%,0%,0%);fill-opacity:1;" d="M 9.976562 3.304688 L 14.125 3.304688 L 14.125 4.742188 L 9.976562 4.742188 Z M 9.976562 3.304688 "/>
<path style=" stroke:none;fill-rule:nonzero;fill:rgb(0%,0%,0%);fill-opacity:1;" d="M 7.546875 14.148438 C 7.449219 14.148438 7.371094 14.222656 7.371094 14.320312 C 7.371094 14.414062 7.449219 14.492188 7.546875 14.492188 C 7.644531 14.492188 7.722656 14.414062 7.722656 14.320312 C 7.722656 14.222656 7.644531 14.148438 7.546875 14.148438 "/>
<path style=" stroke:none;fill-rule:nonzero;fill:rgb(0%,0%,0%);fill-opacity:1;" d="M 9.429688 14.148438 C 9.332031 14.148438 9.253906 14.222656 9.253906 14.320312 C 9.253906 14.414062 9.332031 14.492188 9.429688 14.492188 C 9.523438 14.492188 9.605469 14.414062 9.605469 14.320312 C 9.605469 14.222656 9.523438 14.148438 9.429688 14.148438 "/>
<path style=" stroke:none;fill-rule:nonzero;fill:rgb(0%,0%,0%);fill-opacity:1;" d="M 6.410156 15.96875 L 6.253906 15.082031 C 6.382812 15.0625 6.480469 14.949219 6.480469 14.8125 C 6.480469 14.660156 6.363281 14.539062 6.214844 14.539062 C 6.199219 14.539062 6.179688 14.539062 6.160156 14.542969 L 5.980469 13.523438 L 6.761719 14.546875 C 6.742188 15.035156 6.867188 15.234375 6.867188 15.234375 C 6.867188 15.234375 7.128906 15.128906 7.417969 15.070312 L 7.523438 14.558594 C 7.550781 14.570312 7.582031 14.578125 7.617188 14.578125 C 7.632812 14.578125 7.644531 14.574219 7.660156 14.574219 L 7.898438 14.996094 C 7.898438 14.996094 8.21875 14.964844 8.382812 14.964844 L 8.238281 14.527344 L 8.503906 13.847656 L 8.773438 14.527344 L 8.628906 14.964844 C 8.789062 14.964844 9.113281 14.996094 9.113281 14.996094 L 9.371094 14.539062 C 9.371094 14.539062 9.371094 14.539062 9.375 14.539062 C 9.40625 14.5625 9.449219 14.574219 9.492188 14.578125 L 9.59375 15.070312 C 9.882812 15.128906 10.144531 15.234375 10.144531 15.234375 C 10.144531 15.234375 10.265625 15.035156 10.25 14.546875 L 11.027344 13.523438 L 10.847656 14.542969 C 10.832031 14.539062 10.8125 14.539062 10.792969 14.539062 C 10.648438 14.539062 10.53125 14.660156 10.53125 14.8125 C 10.53125 14.949219 10.628906 15.0625 10.753906 15.082031 L 10.601562 15.96875 C 10.355469 15.875 9.53125 15.59375 8.503906 15.59375 C 7.480469 15.59375 6.65625 15.875 6.410156 15.96875 M 6.246094 15.023438 C 6.339844 15.007812 6.417969 14.917969 6.417969 14.8125 C 6.417969 14.695312 6.328125 14.601562 6.214844 14.601562 C 6.199219 14.601562 6.1875 14.601562 6.171875 14.605469 L 6.167969 14.574219 C 6.183594 14.570312 6.199219 14.570312 6.214844 14.570312 C 6.34375 14.570312 6.449219 14.679688 6.449219 14.8125 C 6.449219 14.933594 6.363281 15.035156 6.25 15.054688 Z M 6.195312 14.730469 C 6.199219 14.730469 6.207031 14.726562 6.214844 14.726562 C 6.261719 14.726562 6.296875 14.765625 6.296875 14.8125 C 6.296875 14.855469 6.265625 14.894531 6.222656 14.898438 Z M 7.546875 14.511719 C 7.4375 14.511719 7.347656 14.425781 7.347656 14.320312 C 7.347656 14.210938 7.4375 14.125 7.546875 14.125 C 7.65625 14.125 7.746094 14.210938 7.746094 14.320312 C 7.746094 14.425781 7.65625 14.511719 7.546875 14.511719 M 7.59375 13.269531 L 8.277344 14.90625 C 8.160156 14.910156 8.042969 14.917969 7.933594 14.929688 L 7.722656 14.550781 C 7.789062 14.515625 7.832031 14.445312 7.832031 14.363281 C 7.832031 14.285156 7.792969 14.21875 7.730469 14.179688 C 7.6875 14.128906 7.621094 14.09375 7.546875 14.09375 C 7.417969 14.09375 7.316406 14.195312 7.316406 14.320312 C 7.316406 14.414062 7.378906 14.496094 7.464844 14.53125 L 7.363281 15.019531 C 7.296875 15.035156 7.234375 15.050781 7.179688 15.066406 C 7.042969 14.667969 6.980469 14.0625 7.648438 13.722656 C 7.648438 13.722656 6.703125 13.941406 6.996094 15.121094 C 6.957031 15.132812 6.925781 15.144531 6.898438 15.152344 C 6.808594 14.96875 6.824219 14.527344 6.824219 14.527344 L 6.699219 14.363281 C 6.773438 14.046875 7.007812 13.722656 7.566406 13.519531 C 7.566406 13.519531 6.914062 13.589844 6.589844 14.214844 L 6.457031 14.042969 C 6.644531 13.703125 7.0625 13.421875 7.59375 13.269531 M 7.511719 12.910156 L 8.152344 13.195312 L 8.152344 14.449219 Z M 8.503906 12.800781 L 8.792969 13.167969 L 8.503906 13.503906 L 8.21875 13.167969 Z M 8.855469 13.195312 L 9.5 12.910156 L 8.855469 14.449219 Z M 9.429688 14.511719 C 9.320312 14.511719 9.230469 14.425781 9.230469 14.320312 C 9.230469 14.210938 9.320312 14.125 9.429688 14.125 C 9.539062 14.125 9.625 14.210938 9.625 14.320312 C 9.625 14.425781 9.539062 14.511719 9.429688 14.511719 M 10.554688 14.042969 L 10.421875 14.214844 C 10.09375 13.589844 9.441406 13.519531 9.441406 13.519531 C 10.003906 13.722656 10.234375 14.046875 10.3125 14.363281 L 10.1875 14.527344 C 10.1875 14.527344 10.203125 14.96875 10.113281 15.152344 C 10.085938 15.144531 10.050781 15.132812 10.015625 15.121094 C 10.304688 13.941406 9.359375 13.722656 9.359375 13.722656 C 10.027344 14.0625 9.96875 14.667969 9.832031 15.066406 C 9.773438 15.050781 9.714844 15.035156 9.648438 15.019531 L 9.554688 14.570312 C 9.648438 14.542969 9.714844 14.460938 9.714844 14.363281 C 9.714844 14.285156 9.671875 14.21875 9.613281 14.179688 C 9.570312 14.128906 9.503906 14.09375 9.429688 14.09375 C 9.300781 14.09375 9.195312 14.195312 9.195312 14.320312 C 9.195312 14.402344 9.242188 14.472656 9.308594 14.515625 L 9.078125 14.929688 C 8.964844 14.917969 8.851562 14.910156 8.734375 14.90625 L 9.417969 13.269531 C 9.949219 13.421875 10.367188 13.703125 10.554688 14.042969 M 10.839844 14.605469 C 10.824219 14.601562 10.808594 14.601562 10.792969 14.601562 C 10.683594 14.601562 10.59375 14.695312 10.59375 14.8125 C 10.59375 14.917969 10.667969 15.007812 10.765625 15.023438 L 10.761719 15.054688 C 10.648438 15.035156 10.5625 14.933594 10.5625 14.8125 C 10.5625 14.679688 10.667969 14.570312 10.792969 14.570312 C 10.8125 14.570312 10.828125 14.570312 10.84375 14.574219 Z M 10.789062 14.898438 C 10.746094 14.894531 10.714844 14.855469 10.714844 14.8125 C 10.714844 14.765625 10.75 14.726562 10.792969 14.726562 C 10.800781 14.726562 10.808594 14.730469 10.816406 14.730469 Z M 9.75 15.789062 C 9.363281 15.929688 8.792969 15.988281 8.792969 15.988281 C 9.175781 15.988281 9.59375 15.941406 9.886719 15.902344 C 9.496094 16.046875 8.914062 16.105469 8.914062 16.105469 C 9.34375 16.105469 9.820312 16.050781 10.109375 16.011719 C 9.683594 16.171875 8.964844 16.238281 8.964844 16.238281 C 10.023438 16.207031 10.648438 16.054688 10.648438 16.054688 L 11.136719 13.28125 L 10.644531 13.925781 C 10.425781 13.582031 10.007812 13.300781 9.46875 13.144531 L 9.617188 12.789062 L 8.855469 13.125 L 8.855469 12.941406 L 8.503906 12.347656 L 8.152344 12.941406 L 8.152344 13.125 L 7.394531 12.789062 L 7.539062 13.144531 C 7.003906 13.300781 6.582031 13.582031 6.367188 13.925781 L 5.875 13.28125 L 6.363281 16.054688 C 6.363281 16.054688 6.988281 16.207031 8.046875 16.238281 C 8.046875 16.238281 7.328125 16.171875 6.902344 16.011719 C 7.191406 16.050781 7.664062 16.105469 8.097656 16.105469 C 8.097656 16.105469 7.511719 16.046875 7.125 15.902344 C 7.417969 15.941406 7.835938 15.988281 8.21875 15.988281 C 8.21875 15.988281 7.648438 15.929688 7.261719 15.789062 C 7.609375 15.714844 8.035156 15.65625 8.503906 15.65625 C 8.976562 15.65625 9.402344 15.714844 9.75 15.789062 "/>
<path style=" stroke:none;fill-rule:nonzero;fill:rgb(0%,0%,0%);fill-opacity:1;" d="M 8.335938 11.8125 L 8.265625 11.808594 L 8.234375 11.855469 L 8.28125 11.898438 L 8.464844 12.210938 L 8.085938 12.851562 L 7.789062 12.851562 L 7.824219 12.921875 L 8.125 12.921875 L 8.503906 12.28125 L 8.882812 12.921875 L 9.1875 12.921875 L 9.222656 12.851562 L 8.921875 12.851562 L 8.546875 12.210938 L 8.730469 11.898438 L 8.777344 11.855469 L 8.746094 11.808594 L 8.675781 11.8125 L 8.664062 11.871094 L 8.503906 12.144531 L 8.34375 11.871094 Z M 8.335938 11.8125 "/>
<path style=" stroke:none;fill-rule:nonzero;fill:rgb(0%,0%,0%);fill-opacity:1;" d="M 8.050781 15.210938 C 8.066406 15.230469 8.074219 15.253906 8.074219 15.28125 C 8.074219 15.34375 8.023438 15.394531 7.957031 15.394531 C 7.972656 15.402344 7.988281 15.40625 8.003906 15.40625 C 8.0625 15.40625 8.109375 15.359375 8.109375 15.300781 C 8.109375 15.261719 8.085938 15.226562 8.050781 15.210938 "/>
<path style=" stroke:none;fill-rule:nonzero;fill:rgb(0%,0%,0%);fill-opacity:1;" d="M 7.152344 15.367188 C 7.167969 15.386719 7.179688 15.410156 7.179688 15.4375 C 7.179688 15.5 7.125 15.550781 7.0625 15.550781 C 7.074219 15.558594 7.089844 15.5625 7.105469 15.5625 C 7.164062 15.5625 7.210938 15.515625 7.210938 15.457031 C 7.210938 15.417969 7.1875 15.382812 7.152344 15.367188 "/>
<path style=" stroke:none;fill-rule:nonzero;fill:rgb(0%,0%,0%);fill-opacity:1;" d="M 8.988281 15.394531 C 8.984375 15.394531 8.984375 15.394531 8.984375 15.394531 C 9 15.402344 9.015625 15.40625 9.03125 15.40625 C 9.089844 15.40625 9.136719 15.359375 9.136719 15.300781 C 9.136719 15.261719 9.113281 15.226562 9.078125 15.210938 C 9.09375 15.230469 9.101562 15.253906 9.101562 15.28125 C 9.101562 15.34375 9.050781 15.394531 8.988281 15.394531 "/>
<path style=" stroke:none;fill-rule:nonzero;fill:rgb(0%,0%,0%);fill-opacity:1;" d="M 9.886719 15.550781 C 9.882812 15.550781 9.882812 15.550781 9.882812 15.550781 C 9.898438 15.558594 9.914062 15.5625 9.929688 15.5625 C 9.988281 15.5625 10.035156 15.515625 10.035156 15.457031 C 10.035156 15.417969 10.011719 15.382812 9.976562 15.367188 C 9.992188 15.386719 10 15.410156 10 15.4375 C 10 15.5 9.949219 15.550781 9.886719 15.550781 "/>
<path style=" stroke:none;fill-rule:nonzero;fill:rgb(0%,0%,0%);fill-opacity:1;" d="M 8.648438 14.511719 C 8.648438 14.472656 8.625 14.4375 8.589844 14.421875 C 8.605469 14.441406 8.617188 14.464844 8.617188 14.492188 C 8.617188 14.554688 8.5625 14.605469 8.5 14.605469 C 8.5 14.605469 8.5 14.605469 8.496094 14.605469 C 8.511719 14.613281 8.527344 14.617188 8.542969 14.617188 C 8.601562 14.617188 8.648438 14.570312 8.648438 14.511719 "/>
<path style=" stroke:none;fill-rule:nonzero;fill:rgb(0%,0%,0%);fill-opacity:1;" d="M 8.050781 15.28125 C 8.050781 15.230469 8.011719 15.1875 7.957031 15.1875 C 7.90625 15.1875 7.863281 15.230469 7.863281 15.28125 C 7.863281 15.332031 7.90625 15.371094 7.957031 15.371094 C 8.011719 15.371094 8.050781 15.332031 8.050781 15.28125 "/>
<path style=" stroke:none;fill-rule:nonzero;fill:rgb(0%,0%,0%);fill-opacity:1;" d="M 7.15625 15.4375 C 7.15625 15.386719 7.113281 15.34375 7.0625 15.34375 C 7.011719 15.34375 6.96875 15.386719 6.96875 15.4375 C 6.96875 15.488281 7.011719 15.527344 7.0625 15.527344 C 7.113281 15.527344 7.15625 15.488281 7.15625 15.4375 "/>
<path style=" stroke:none;fill-rule:nonzero;fill:rgb(0%,0%,0%);fill-opacity:1;" d="M 8.988281 15.371094 C 9.039062 15.371094 9.082031 15.332031 9.082031 15.28125 C 9.082031 15.230469 9.039062 15.1875 8.988281 15.1875 C 8.933594 15.1875 8.894531 15.230469 8.894531 15.28125 C 8.894531 15.332031 8.933594 15.371094 8.988281 15.371094 "/>
<path style=" stroke:none;fill-rule:nonzero;fill:rgb(0%,0%,0%);fill-opacity:1;" d="M 9.886719 15.527344 C 9.9375 15.527344 9.976562 15.488281 9.976562 15.4375 C 9.976562 15.386719 9.9375 15.34375 9.886719 15.34375 C 9.832031 15.34375 9.792969 15.386719 9.792969 15.4375 C 9.792969 15.488281 9.832031 15.527344 9.886719 15.527344 "/>
<path style=" stroke:none;fill-rule:nonzero;fill:rgb(0%,0%,0%);fill-opacity:1;" d="M 8.59375 14.492188 C 8.59375 14.441406 8.550781 14.398438 8.5 14.398438 C 8.449219 14.398438 8.40625 14.441406 8.40625 14.492188 C 8.40625 14.542969 8.449219 14.582031 8.5 14.582031 C 8.550781 14.582031 8.59375 14.542969 8.59375 14.492188 "/>
<path style=" stroke:none;fill-rule:nonzero;fill:rgb(0%,0%,0%);fill-opacity:1;" d="M 6.175781 14.503906 L 6.289062 14.507812 L 6.238281 14.363281 Z M 6.175781 14.503906 "/>
<path style=" stroke:none;fill-rule:nonzero;fill:rgb(0%,0%,0%);fill-opacity:1;" d="M 6.339844 14.527344 L 6.433594 14.585938 L 6.46875 14.4375 Z M 6.339844 14.527344 "/>
<path style=" stroke:none;fill-rule:nonzero;fill:rgb(0%,0%,0%);fill-opacity:1;" d="M 6.472656 14.628906 L 6.523438 14.730469 L 6.625 14.617188 Z M 6.472656 14.628906 "/>
<path style=" stroke:none;fill-rule:nonzero;fill:rgb(0%,0%,0%);fill-opacity:1;" d="M 6.523438 14.894531 L 6.667969 14.851562 L 6.53125 14.785156 Z M 6.523438 14.894531 "/>
<path style=" stroke:none;fill-rule:nonzero;fill:rgb(0%,0%,0%);fill-opacity:1;" d="M 6.445312 15.027344 L 6.597656 15.058594 L 6.507812 14.933594 Z M 6.445312 15.027344 "/>
<path style=" stroke:none;fill-rule:nonzero;fill:rgb(0%,0%,0%);fill-opacity:1;" d="M 6.289062 15.117188 L 6.398438 15.222656 L 6.390625 15.070312 Z M 6.289062 15.117188 "/>
<path style=" stroke:none;fill-rule:nonzero;fill:rgb(0%,0%,0%);fill-opacity:1;" d="M 10.722656 14.507812 L 10.835938 14.503906 L 10.773438 14.363281 Z M 10.722656 14.507812 "/>
<path style=" stroke:none;fill-rule:nonzero;fill:rgb(0%,0%,0%);fill-opacity:1;" d="M 10.574219 14.585938 L 10.667969 14.527344 L 10.542969 14.4375 Z M 10.574219 14.585938 "/>
<path style=" stroke:none;fill-rule:nonzero;fill:rgb(0%,0%,0%);fill-opacity:1;" d="M 10.488281 14.730469 L 10.539062 14.628906 L 10.382812 14.617188 Z M 10.488281 14.730469 "/>
<path style=" stroke:none;fill-rule:nonzero;fill:rgb(0%,0%,0%);fill-opacity:1;" d="M 10.339844 14.851562 L 10.488281 14.894531 L 10.480469 14.785156 Z M 10.339844 14.851562 "/>
<path style=" stroke:none;fill-rule:nonzero;fill:rgb(0%,0%,0%);fill-opacity:1;" d="M 10.414062 15.058594 L 10.566406 15.027344 L 10.503906 14.933594 Z M 10.414062 15.058594 "/>
<path style=" stroke:none;fill-rule:nonzero;fill:rgb(0%,0%,0%);fill-opacity:1;" d="M 10.613281 15.222656 L 10.722656 15.117188 L 10.621094 15.070312 Z M 10.613281 15.222656 "/>
<path style=" stroke:none;fill-rule:nonzero;fill:rgb(0%,0%,0%);fill-opacity:1;" d="M 8.402344 13.15625 C 8.402344 13.101562 8.449219 13.054688 8.503906 13.054688 C 8.5625 13.054688 8.609375 13.101562 8.609375 13.15625 C 8.609375 13.210938 8.5625 13.257812 8.503906 13.257812 C 8.449219 13.257812 8.402344 13.210938 8.402344 13.15625 M 8.625 13.15625 C 8.625 13.089844 8.570312 13.039062 8.503906 13.039062 C 8.4375 13.039062 8.386719 13.089844 8.386719 13.15625 C 8.386719 13.222656 8.4375 13.273438 8.503906 13.273438 C 8.570312 13.273438 8.625 13.222656 8.625 13.15625 "/>
<path style=" stroke:none;fill-rule:nonzero;fill:rgb(0%,0%,0%);fill-opacity:1;" d="M 9.058594 13.453125 C 9.003906 13.453125 8.957031 13.40625 8.957031 13.351562 C 8.957031 13.296875 9.003906 13.25 9.058594 13.25 C 9.117188 13.25 9.164062 13.296875 9.164062 13.351562 C 9.164062 13.40625 9.117188 13.453125 9.058594 13.453125 M 9.15625 13.277344 C 9.132812 13.25 9.097656 13.234375 9.058594 13.234375 C 8.992188 13.234375 8.941406 13.285156 8.941406 13.351562 C 8.941406 13.40625 8.980469 13.453125 9.03125 13.464844 C 9.050781 13.476562 9.070312 13.484375 9.09375 13.484375 C 9.15625 13.484375 9.207031 13.433594 9.207031 13.375 C 9.207031 13.332031 9.1875 13.300781 9.15625 13.277344 "/>
<path style=" stroke:none;fill-rule:nonzero;fill:rgb(0%,0%,0%);fill-opacity:1;" d="M 7.898438 13.453125 C 7.839844 13.453125 7.796875 13.40625 7.796875 13.351562 C 7.796875 13.296875 7.839844 13.25 7.898438 13.25 C 7.953125 13.25 8 13.296875 8 13.351562 C 8 13.40625 7.953125 13.453125 7.898438 13.453125 M 7.992188 13.277344 C 7.972656 13.25 7.9375 13.234375 7.898438 13.234375 C 7.832031 13.234375 7.777344 13.285156 7.777344 13.351562 C 7.777344 13.40625 7.816406 13.453125 7.871094 13.464844 C 7.886719 13.476562 7.910156 13.484375 7.933594 13.484375 C 7.996094 13.484375 8.046875 13.433594 8.046875 13.375 C 8.046875 13.332031 8.023438 13.300781 7.992188 13.277344 "/>
<path style=" stroke:none;fill-rule:nonzero;fill:rgb(0%,0%,0%);fill-opacity:1;" d="M 8.597656 13.15625 C 8.597656 13.105469 8.554688 13.066406 8.503906 13.066406 C 8.457031 13.066406 8.414062 13.105469 8.414062 13.15625 C 8.414062 13.207031 8.457031 13.246094 8.503906 13.246094 C 8.554688 13.246094 8.597656 13.207031 8.597656 13.15625 "/>
<path style=" stroke:none;fill-rule:nonzero;fill:rgb(0%,0%,0%);fill-opacity:1;" d="M 9.058594 13.261719 C 9.007812 13.261719 8.96875 13.300781 8.96875 13.351562 C 8.96875 13.398438 9.007812 13.441406 9.058594 13.441406 C 9.109375 13.441406 9.152344 13.398438 9.152344 13.351562 C 9.152344 13.300781 9.109375 13.261719 9.058594 13.261719 "/>
<path style=" stroke:none;fill-rule:nonzero;fill:rgb(0%,0%,0%);fill-opacity:1;" d="M 7.898438 13.261719 C 7.847656 13.261719 7.808594 13.300781 7.808594 13.351562 C 7.808594 13.398438 7.847656 13.441406 7.898438 13.441406 C 7.949219 13.441406 7.988281 13.398438 7.988281 13.351562 C 7.988281 13.300781 7.949219 13.261719 7.898438 13.261719 "/>
</g>
</svg>
