<?xml version="1.0" encoding="UTF-8"?>
<svg xmlns="http://www.w3.org/2000/svg" xmlns:xlink="http://www.w3.org/1999/xlink" width="21pt" height="25pt" viewBox="0 0 21 25" version="1.1">
<g id="surface1">
<path style=" stroke:none;fill-rule:nonzero;fill:rgb(100%,100%,100%);fill-opacity:1;" d="M 0.695312 12.808594 L 20.320312 12.808594 L 20.320312 17.101562 L 10.507812 24.152344 L 0.695312 17.101562 Z M 0.695312 0.691406 L 20.320312 0.691406 L 20.320312 12.203125 L 0.695312 12.203125 Z M 0 17.453125 L 10.507812 25.003906 L 21.011719 17.453125 L 21.011719 0 L 0 0 Z M 0 17.453125 "/>
<path style=" stroke:none;fill-rule:nonzero;fill:rgb(100%,100%,100%);fill-opacity:1;" d="M 17.609375 6.085938 L 12.167969 6.085938 L 12.167969 3.972656 L 17.609375 3.972656 Z M 10.878906 3.042969 C 11.058594 3.460938 11.375 4.453125 11.375 6.300781 C 11.375 8.148438 11.058594 9.140625 10.878906 9.558594 L 12.164062 9.558594 L 12.164062 7.015625 L 17.609375 7.015625 L 17.609375 9.558594 L 18.894531 9.558594 C 18.714844 9.140625 18.402344 8.148438 18.402344 6.300781 C 18.402344 4.453125 18.714844 3.460938 18.894531 3.042969 Z M 10.878906 3.042969 "/>
<path style=" stroke:none;fill-rule:nonzero;fill:rgb(100%,100%,100%);fill-opacity:1;" d="M 3.40625 8.628906 L 3.40625 6.300781 C 3.40625 4.453125 3.71875 3.460938 3.898438 3.042969 L 2.117188 3.042969 C 2.300781 3.460938 2.613281 4.453125 2.613281 6.300781 C 2.613281 8.148438 2.300781 9.140625 2.121094 9.558594 L 9.257812 9.558594 C 9.375 9.375 9.710938 8.777344 9.789062 7.925781 C 9.382812 8.203125 8.53125 8.628906 7.113281 8.628906 Z M 3.40625 8.628906 "/>
<path style=" stroke:none;fill-rule:nonzero;fill:rgb(100%,100%,100%);fill-opacity:1;" d="M 10.152344 19.984375 C 9.679688 19.984375 9.164062 19.929688 8.800781 19.878906 C 9.28125 20.058594 10.003906 20.132812 10.003906 20.132812 C 9.46875 20.132812 8.882812 20.0625 8.523438 20.011719 C 9.050781 20.214844 9.941406 20.296875 9.941406 20.296875 C 8.632812 20.261719 7.859375 20.066406 7.859375 20.066406 L 7.257812 16.601562 L 7.867188 17.40625 C 8.132812 16.976562 8.652344 16.625 9.316406 16.433594 L 9.132812 15.988281 L 10.070312 16.410156 L 10.070312 16.179688 L 10.507812 15.433594 L 10.941406 16.179688 L 10.941406 16.410156 L 11.882812 15.988281 L 11.699219 16.433594 C 12.363281 16.625 12.878906 16.976562 13.148438 17.40625 L 13.753906 16.601562 L 13.15625 20.066406 C 13.15625 20.066406 12.378906 20.261719 11.070312 20.296875 C 11.070312 20.296875 11.960938 20.214844 12.488281 20.011719 C 12.128906 20.0625 11.542969 20.132812 11.011719 20.132812 C 11.011719 20.132812 11.730469 20.058594 12.210938 19.878906 C 11.851562 19.929688 11.335938 19.984375 10.863281 19.984375 C 10.863281 19.984375 11.566406 19.910156 12.042969 19.734375 C 11.617188 19.644531 11.089844 19.570312 10.507812 19.570312 C 9.925781 19.570312 9.398438 19.644531 8.96875 19.734375 C 9.449219 19.910156 10.152344 19.984375 10.152344 19.984375 M 9.988281 16.066406 L 10.457031 15.261719 L 10.226562 14.875 L 10.171875 14.816406 L 10.210938 14.761719 L 10.296875 14.769531 L 10.308594 14.839844 L 10.507812 15.179688 L 10.703125 14.839844 L 10.71875 14.769531 L 10.800781 14.761719 L 10.839844 14.816406 L 10.785156 14.875 L 10.554688 15.261719 L 11.023438 16.066406 L 11.394531 16.066406 L 11.347656 16.152344 L 10.976562 16.152344 L 10.507812 15.351562 L 10.039062 16.152344 L 9.664062 16.152344 L 9.621094 16.066406 Z M 13.269531 20.226562 L 13.953125 16.339844 L 13.8125 16.277344 C 13.8125 16.277344 13.253906 17.015625 13.152344 17.15625 C 12.921875 16.878906 12.488281 16.53125 11.898438 16.339844 C 11.945312 16.226562 12.160156 15.710938 12.160156 15.710938 C 12.160156 15.710938 11.832031 15.839844 11.6875 15.898438 C 11.703125 15.871094 11.71875 15.839844 11.71875 15.839844 C 11.71875 15.839844 11.214844 15.867188 11.136719 15.871094 C 11.09375 15.800781 10.820312 15.316406 10.785156 15.25 C 10.816406 15.195312 10.921875 15.011719 10.933594 14.992188 C 10.949219 14.980469 11.078125 14.871094 11.078125 14.871094 L 10.910156 14.554688 L 10.554688 14.578125 C 10.554688 14.578125 10.550781 14.742188 10.546875 14.773438 L 10.507812 14.839844 L 10.464844 14.773438 C 10.464844 14.742188 10.457031 14.578125 10.457031 14.578125 L 10.101562 14.554688 L 9.9375 14.871094 C 9.9375 14.871094 10.066406 14.980469 10.082031 14.992188 C 10.09375 15.011719 10.199219 15.195312 10.230469 15.25 C 10.191406 15.316406 9.917969 15.800781 9.878906 15.871094 C 9.796875 15.867188 9.292969 15.839844 9.292969 15.839844 C 9.292969 15.839844 9.308594 15.871094 9.324219 15.898438 C 9.183594 15.839844 8.855469 15.710938 8.855469 15.710938 C 8.855469 15.710938 9.066406 16.226562 9.113281 16.339844 C 8.527344 16.53125 8.089844 16.878906 7.863281 17.15625 C 7.757812 17.015625 7.203125 16.277344 7.203125 16.277344 L 7.058594 16.339844 L 7.742188 20.226562 C 7.742188 20.226562 8.710938 20.472656 10.507812 20.472656 C 12.300781 20.472656 13.269531 20.226562 13.269531 20.226562 "/>
<path style=" stroke:none;fill-rule:nonzero;fill:rgb(100%,100%,100%);fill-opacity:1;" d="M 7.972656 17.550781 L 8.140625 17.769531 C 8.542969 16.988281 9.347656 16.898438 9.347656 16.898438 C 8.65625 17.152344 8.371094 17.558594 8.277344 17.953125 L 8.429688 18.15625 C 8.429688 18.15625 8.410156 18.710938 8.519531 18.941406 C 8.554688 18.929688 8.597656 18.914062 8.640625 18.898438 C 8.28125 17.425781 9.449219 17.15625 9.449219 17.15625 C 8.625 17.578125 8.703125 18.332031 8.871094 18.832031 C 8.9375 18.8125 9.011719 18.792969 9.097656 18.773438 L 9.21875 18.164062 C 9.113281 18.121094 9.039062 18.019531 9.039062 17.898438 C 9.039062 17.742188 9.164062 17.613281 9.324219 17.613281 C 9.414062 17.613281 9.496094 17.660156 9.550781 17.726562 C 9.625 17.773438 9.675781 17.859375 9.675781 17.953125 C 9.675781 18.054688 9.621094 18.140625 9.539062 18.1875 L 9.796875 18.664062 C 9.9375 18.648438 10.082031 18.640625 10.226562 18.636719 L 9.378906 16.585938 C 8.722656 16.777344 8.210938 17.128906 7.972656 17.550781 "/>
<path style=" stroke:none;fill-rule:nonzero;fill:rgb(100%,100%,100%);fill-opacity:1;" d="M 11.5 18.140625 C 11.417969 18.09375 11.359375 18.003906 11.359375 17.898438 C 11.359375 17.742188 11.488281 17.613281 11.648438 17.613281 C 11.738281 17.613281 11.820312 17.660156 11.875 17.726562 C 11.949219 17.773438 12 17.859375 12 17.953125 C 12 18.078125 11.917969 18.179688 11.800781 18.210938 L 11.917969 18.773438 C 12 18.792969 12.074219 18.8125 12.144531 18.832031 C 12.3125 18.335938 12.390625 17.578125 11.5625 17.15625 C 11.5625 17.15625 12.730469 17.425781 12.371094 18.898438 C 12.417969 18.914062 12.457031 18.929688 12.492188 18.941406 C 12.601562 18.710938 12.582031 18.15625 12.582031 18.15625 L 12.738281 17.953125 C 12.644531 17.558594 12.355469 17.152344 11.664062 16.898438 C 11.664062 16.898438 12.472656 16.988281 12.875 17.769531 L 13.039062 17.550781 C 12.804688 17.128906 12.289062 16.777344 11.632812 16.585938 L 10.789062 18.632812 C 10.933594 18.640625 11.074219 18.648438 11.214844 18.664062 Z M 11.5 18.140625 "/>
<path style=" stroke:none;fill-rule:nonzero;fill:rgb(100%,100%,100%);fill-opacity:1;" d="M 9.324219 18.113281 C 9.203125 18.113281 9.105469 18.019531 9.105469 17.898438 C 9.105469 17.78125 9.203125 17.683594 9.324219 17.683594 C 9.441406 17.683594 9.539062 17.78125 9.539062 17.898438 C 9.539062 18.019531 9.441406 18.113281 9.324219 18.113281 M 9.324219 17.65625 C 9.1875 17.65625 9.078125 17.765625 9.078125 17.898438 C 9.078125 18.03125 9.1875 18.140625 9.324219 18.140625 C 9.457031 18.140625 9.566406 18.03125 9.566406 17.898438 C 9.566406 17.765625 9.457031 17.65625 9.324219 17.65625 "/>
<path style=" stroke:none;fill-rule:nonzero;fill:rgb(100%,100%,100%);fill-opacity:1;" d="M 11.648438 18.113281 C 11.527344 18.113281 11.429688 18.019531 11.429688 17.898438 C 11.429688 17.78125 11.527344 17.683594 11.648438 17.683594 C 11.765625 17.683594 11.863281 17.78125 11.863281 17.898438 C 11.863281 18.019531 11.765625 18.113281 11.648438 18.113281 M 11.890625 17.898438 C 11.890625 17.765625 11.78125 17.65625 11.648438 17.65625 C 11.511719 17.65625 11.402344 17.765625 11.402344 17.898438 C 11.402344 18.03125 11.511719 18.140625 11.648438 18.140625 C 11.78125 18.140625 11.890625 18.03125 11.890625 17.898438 "/>
<path style=" stroke:none;fill-rule:nonzero;fill:rgb(100%,100%,100%);fill-opacity:1;" d="M 7.777344 18.515625 C 7.777344 18.457031 7.734375 18.410156 7.679688 18.410156 C 7.667969 18.410156 7.660156 18.410156 7.652344 18.414062 L 7.6875 18.621094 C 7.738281 18.617188 7.777344 18.570312 7.777344 18.515625 "/>
<path style=" stroke:none;fill-rule:nonzero;fill:rgb(100%,100%,100%);fill-opacity:1;" d="M 7.679688 18.210938 C 7.65625 18.210938 7.636719 18.214844 7.617188 18.21875 L 7.625 18.257812 C 7.640625 18.253906 7.660156 18.25 7.679688 18.25 C 7.816406 18.25 7.925781 18.371094 7.925781 18.515625 C 7.925781 18.648438 7.832031 18.761719 7.714844 18.777344 L 7.722656 18.816406 C 7.859375 18.796875 7.964844 18.667969 7.964844 18.515625 C 7.964844 18.347656 7.835938 18.210938 7.679688 18.210938 "/>
<path style=" stroke:none;fill-rule:nonzero;fill:rgb(100%,100%,100%);fill-opacity:1;" d="M 13.234375 18.515625 C 13.234375 18.570312 13.273438 18.617188 13.324219 18.621094 L 13.363281 18.414062 C 13.351562 18.410156 13.34375 18.410156 13.332031 18.410156 C 13.277344 18.410156 13.234375 18.457031 13.234375 18.515625 "/>
<path style=" stroke:none;fill-rule:nonzero;fill:rgb(100%,100%,100%);fill-opacity:1;" d="M 13.292969 18.816406 L 13.296875 18.777344 C 13.179688 18.761719 13.085938 18.648438 13.085938 18.515625 C 13.085938 18.371094 13.199219 18.25 13.335938 18.25 C 13.351562 18.25 13.371094 18.253906 13.390625 18.257812 L 13.394531 18.21875 C 13.375 18.214844 13.355469 18.210938 13.335938 18.210938 C 13.175781 18.210938 13.046875 18.347656 13.046875 18.515625 C 13.046875 18.667969 13.152344 18.796875 13.292969 18.816406 "/>
<path style=" stroke:none;fill-rule:nonzero;fill:rgb(100%,100%,100%);fill-opacity:1;" d="M 10.394531 16.445312 C 10.394531 16.382812 10.445312 16.335938 10.507812 16.335938 C 10.570312 16.335938 10.621094 16.382812 10.621094 16.445312 C 10.621094 16.507812 10.570312 16.558594 10.507812 16.558594 C 10.445312 16.558594 10.394531 16.507812 10.394531 16.445312 M 10.632812 16.445312 C 10.632812 16.375 10.578125 16.320312 10.507812 16.320312 C 10.4375 16.320312 10.378906 16.375 10.378906 16.445312 C 10.378906 16.515625 10.4375 16.570312 10.507812 16.570312 C 10.578125 16.570312 10.632812 16.515625 10.632812 16.445312 "/>
<path style=" stroke:none;fill-rule:nonzero;fill:rgb(100%,100%,100%);fill-opacity:1;" d="M 11.191406 16.578125 C 11.253906 16.578125 11.304688 16.628906 11.304688 16.6875 C 11.304688 16.75 11.253906 16.800781 11.191406 16.800781 C 11.128906 16.800781 11.078125 16.75 11.078125 16.6875 C 11.078125 16.628906 11.128906 16.578125 11.191406 16.578125 M 11.191406 16.816406 C 11.261719 16.816406 11.320312 16.757812 11.320312 16.6875 C 11.320312 16.617188 11.261719 16.5625 11.191406 16.5625 C 11.121094 16.5625 11.066406 16.617188 11.066406 16.6875 C 11.066406 16.757812 11.121094 16.816406 11.191406 16.816406 "/>
<path style=" stroke:none;fill-rule:nonzero;fill:rgb(100%,100%,100%);fill-opacity:1;" d="M 9.757812 16.578125 C 9.820312 16.578125 9.867188 16.628906 9.867188 16.6875 C 9.867188 16.75 9.820312 16.800781 9.757812 16.800781 C 9.695312 16.800781 9.644531 16.75 9.644531 16.6875 C 9.644531 16.628906 9.695312 16.578125 9.757812 16.578125 M 9.757812 16.816406 C 9.828125 16.816406 9.882812 16.757812 9.882812 16.6875 C 9.882812 16.617188 9.828125 16.5625 9.757812 16.5625 C 9.6875 16.5625 9.628906 16.617188 9.628906 16.6875 C 9.628906 16.757812 9.6875 16.816406 9.757812 16.816406 "/>
<path style=" stroke:none;fill-rule:nonzero;fill:rgb(69.019608%,71.764706%,73.333333%);fill-opacity:1;" d="M 1.3125 13.875 L 19.703125 13.875 L 19.703125 16.789062 L 10.507812 23.394531 L 1.3125 16.789062 Z M 20.320312 17.101562 L 20.320312 12.808594 L 0.695312 12.808594 L 0.695312 17.101562 L 10.507812 24.152344 Z M 20.320312 17.101562 "/>
<path style=" stroke:none;fill-rule:nonzero;fill:rgb(69.019608%,71.764706%,73.333333%);fill-opacity:1;" d="M 19.703125 11.296875 L 1.3125 11.296875 L 1.3125 1.304688 L 19.703125 1.304688 Z M 20.320312 0.691406 L 0.695312 0.691406 L 0.695312 12.203125 L 20.320312 12.203125 Z M 20.320312 0.691406 "/>
<path style=" stroke:none;fill-rule:nonzero;fill:rgb(69.019608%,71.764706%,73.333333%);fill-opacity:1;" d="M 10.878906 3.042969 L 18.894531 3.042969 C 18.714844 3.460938 18.402344 4.453125 18.402344 6.300781 C 18.402344 8.148438 18.714844 9.140625 18.894531 9.558594 L 17.609375 9.558594 L 17.609375 7.015625 L 12.167969 7.015625 L 12.167969 9.558594 L 10.878906 9.558594 C 11.058594 9.140625 11.371094 8.148438 11.371094 6.300781 C 11.371094 4.453125 11.058594 3.460938 10.878906 3.042969 M 12.324219 9.714844 L 12.324219 7.171875 L 17.449219 7.171875 L 17.449219 9.714844 L 19.152344 9.714844 C 19.152344 9.714844 18.558594 8.816406 18.558594 6.300781 C 18.558594 3.785156 19.152344 2.886719 19.152344 2.886719 L 10.625 2.886719 C 10.625 2.886719 11.214844 3.785156 11.214844 6.300781 C 11.214844 8.816406 10.625 9.714844 10.625 9.714844 Z M 12.324219 9.714844 "/>
<path style=" stroke:none;fill-rule:nonzero;fill:rgb(69.019608%,71.764706%,73.333333%);fill-opacity:1;" d="M 17.449219 5.925781 L 12.324219 5.925781 L 12.324219 4.132812 L 17.449219 4.132812 Z M 17.609375 3.972656 L 12.167969 3.972656 L 12.167969 6.085938 L 17.609375 6.085938 Z M 17.609375 3.972656 "/>
<path style=" stroke:none;fill-rule:nonzero;fill:rgb(69.019608%,71.764706%,73.333333%);fill-opacity:1;" d="M 2.117188 3.042969 L 3.898438 3.042969 C 3.71875 3.460938 3.40625 4.453125 3.40625 6.300781 L 3.40625 8.628906 L 7.109375 8.628906 C 8.53125 8.628906 9.382812 8.203125 9.789062 7.925781 C 9.710938 8.777344 9.375 9.375 9.257812 9.558594 L 2.117188 9.558594 C 2.300781 9.140625 2.613281 8.148438 2.613281 6.300781 C 2.613281 4.453125 2.296875 3.460938 2.117188 3.042969 M 9.34375 9.714844 C 9.34375 9.714844 9.96875 8.875 9.96875 7.585938 C 9.96875 7.585938 9.113281 8.472656 7.109375 8.472656 L 3.566406 8.472656 L 3.566406 6.300781 C 3.566406 3.785156 4.15625 2.886719 4.15625 2.886719 L 1.863281 2.886719 C 1.863281 2.886719 2.453125 3.785156 2.453125 6.300781 C 2.453125 8.816406 1.863281 9.714844 1.863281 9.714844 Z M 9.34375 9.714844 "/>
<path style=" stroke:none;fill-rule:nonzero;fill:rgb(69.019608%,71.764706%,73.333333%);fill-opacity:1;" d="M 9.800781 16.855469 C 9.769531 16.855469 9.742188 16.847656 9.722656 16.832031 C 9.65625 16.816406 9.609375 16.757812 9.609375 16.6875 C 9.609375 16.605469 9.675781 16.539062 9.757812 16.539062 C 9.804688 16.539062 9.847656 16.5625 9.875 16.597656 C 9.914062 16.625 9.941406 16.667969 9.941406 16.71875 C 9.941406 16.792969 9.878906 16.855469 9.800781 16.855469 M 10.070312 16.492188 L 9.277344 16.140625 L 10.070312 18.058594 Z M 10.070312 16.492188 "/>
<path style=" stroke:none;fill-rule:nonzero;fill:rgb(69.019608%,71.764706%,73.333333%);fill-opacity:1;" d="M 11.234375 16.855469 C 11.207031 16.855469 11.179688 16.847656 11.15625 16.832031 C 11.089844 16.816406 11.042969 16.757812 11.042969 16.6875 C 11.042969 16.605469 11.109375 16.539062 11.191406 16.539062 C 11.238281 16.539062 11.28125 16.5625 11.308594 16.597656 C 11.347656 16.625 11.375 16.667969 11.375 16.71875 C 11.375 16.792969 11.3125 16.855469 11.234375 16.855469 M 10.941406 16.492188 L 10.941406 18.058594 L 11.734375 16.140625 Z M 10.941406 16.492188 "/>
<path style=" stroke:none;fill-rule:nonzero;fill:rgb(69.019608%,71.764706%,73.333333%);fill-opacity:1;" d="M 10.359375 16.445312 C 10.359375 16.363281 10.425781 16.296875 10.507812 16.296875 C 10.589844 16.296875 10.65625 16.363281 10.65625 16.445312 C 10.65625 16.527344 10.589844 16.59375 10.507812 16.59375 C 10.425781 16.59375 10.359375 16.527344 10.359375 16.445312 M 10.863281 16.460938 L 10.507812 16 L 10.152344 16.460938 L 10.507812 16.878906 Z M 10.863281 16.460938 "/>
<path style=" stroke:none;fill-rule:nonzero;fill:rgb(69.019608%,71.764706%,73.333333%);fill-opacity:1;" d="M 12.863281 18.820312 L 12.972656 18.667969 L 13.050781 18.785156 Z M 12.945312 18.480469 L 12.957031 18.617188 L 12.773438 18.5625 Z M 13.019531 18.285156 L 12.957031 18.410156 L 12.828125 18.273438 Z M 13.179688 18.15625 L 13.0625 18.234375 L 13.023438 18.046875 Z M 13.308594 17.957031 L 13.386719 18.128906 L 13.246094 18.136719 Z M 12.265625 19.453125 C 12.246094 19.453125 12.226562 19.445312 12.207031 19.4375 C 12.210938 19.4375 12.210938 19.4375 12.210938 19.4375 C 12.289062 19.4375 12.355469 19.375 12.355469 19.296875 C 12.355469 19.261719 12.34375 19.230469 12.324219 19.207031 C 12.367188 19.230469 12.394531 19.273438 12.394531 19.324219 C 12.394531 19.394531 12.339844 19.453125 12.265625 19.453125 M 12.09375 19.296875 C 12.09375 19.230469 12.148438 19.179688 12.210938 19.179688 C 12.273438 19.179688 12.328125 19.230469 12.328125 19.296875 C 12.328125 19.359375 12.273438 19.410156 12.210938 19.410156 C 12.148438 19.410156 12.09375 19.359375 12.09375 19.296875 M 11.15625 19.257812 C 11.136719 19.257812 11.117188 19.25 11.097656 19.242188 C 11.101562 19.242188 11.101562 19.242188 11.101562 19.242188 C 11.179688 19.242188 11.246094 19.179688 11.246094 19.101562 C 11.246094 19.066406 11.234375 19.035156 11.214844 19.011719 C 11.257812 19.035156 11.285156 19.078125 11.285156 19.128906 C 11.285156 19.199219 11.230469 19.257812 11.15625 19.257812 M 10.984375 19.101562 C 10.984375 19.035156 11.039062 18.984375 11.101562 18.984375 C 11.164062 18.984375 11.21875 19.035156 11.21875 19.101562 C 11.21875 19.164062 11.164062 19.214844 11.101562 19.214844 C 11.039062 19.214844 10.984375 19.164062 10.984375 19.101562 M 10.554688 18.269531 C 10.535156 18.269531 10.515625 18.265625 10.496094 18.257812 C 10.5 18.257812 10.5 18.257812 10.5 18.257812 C 10.578125 18.257812 10.644531 18.191406 10.644531 18.113281 C 10.644531 18.078125 10.632812 18.050781 10.613281 18.027344 C 10.65625 18.046875 10.683594 18.089844 10.683594 18.140625 C 10.683594 18.210938 10.625 18.269531 10.554688 18.269531 M 10.382812 18.113281 C 10.382812 18.050781 10.4375 18 10.5 18 C 10.5625 18 10.617188 18.050781 10.617188 18.113281 C 10.617188 18.175781 10.5625 18.226562 10.5 18.226562 C 10.4375 18.226562 10.382812 18.175781 10.382812 18.113281 M 9.886719 19.257812 C 9.867188 19.257812 9.847656 19.25 9.828125 19.242188 C 9.828125 19.242188 9.832031 19.242188 9.832031 19.242188 C 9.910156 19.242188 9.972656 19.179688 9.972656 19.101562 C 9.972656 19.066406 9.960938 19.035156 9.941406 19.011719 C 9.988281 19.035156 10.015625 19.078125 10.015625 19.128906 C 10.015625 19.199219 9.957031 19.257812 9.886719 19.257812 M 9.714844 19.101562 C 9.714844 19.035156 9.765625 18.984375 9.832031 18.984375 C 9.894531 18.984375 9.949219 19.035156 9.949219 19.101562 C 9.949219 19.164062 9.894531 19.214844 9.832031 19.214844 C 9.765625 19.214844 9.714844 19.164062 9.714844 19.101562 M 8.78125 19.453125 C 8.757812 19.453125 8.738281 19.445312 8.722656 19.4375 C 8.804688 19.4375 8.867188 19.375 8.867188 19.296875 C 8.867188 19.261719 8.855469 19.230469 8.835938 19.207031 C 8.878906 19.230469 8.910156 19.273438 8.910156 19.324219 C 8.910156 19.394531 8.851562 19.453125 8.78125 19.453125 M 8.609375 19.296875 C 8.609375 19.230469 8.660156 19.179688 8.722656 19.179688 C 8.789062 19.179688 8.839844 19.230469 8.839844 19.296875 C 8.839844 19.359375 8.789062 19.410156 8.722656 19.410156 C 8.660156 19.410156 8.609375 19.359375 8.609375 19.296875 M 8.058594 18.617188 L 8.070312 18.480469 L 8.238281 18.5625 Z M 7.964844 18.785156 L 8.039062 18.667969 L 8.148438 18.820312 Z M 7.996094 18.285156 L 8.183594 18.273438 L 8.054688 18.410156 Z M 7.949219 18.234375 L 7.832031 18.15625 L 7.988281 18.046875 Z M 7.628906 18.128906 L 7.707031 17.957031 L 7.765625 18.136719 Z M 7.769531 18.894531 L 7.894531 18.839844 L 7.902344 19.027344 Z M 13.117188 18.839844 L 13.246094 18.894531 L 13.113281 19.027344 Z M 13.285156 18.855469 C 13.128906 18.828125 13.007812 18.6875 13.007812 18.515625 C 13.007812 18.328125 13.15625 18.171875 13.332031 18.171875 C 13.359375 18.171875 13.378906 18.175781 13.402344 18.179688 L 13.625 16.90625 L 12.660156 18.183594 C 12.683594 18.792969 12.53125 19.039062 12.53125 19.039062 C 12.53125 19.039062 12.207031 18.910156 11.851562 18.839844 L 11.726562 18.222656 C 11.671875 18.21875 11.621094 18.203125 11.578125 18.175781 C 11.578125 18.175781 11.574219 18.171875 11.574219 18.171875 L 11.257812 18.746094 C 11.257812 18.746094 10.859375 18.707031 10.660156 18.707031 L 10.835938 18.15625 L 10.507812 17.308594 L 10.175781 18.15625 L 10.355469 18.707031 C 10.15625 18.707031 9.753906 18.746094 9.753906 18.746094 L 9.464844 18.214844 C 9.445312 18.21875 9.425781 18.222656 9.40625 18.222656 C 9.367188 18.222656 9.328125 18.210938 9.292969 18.195312 L 9.164062 18.839844 C 8.804688 18.910156 8.480469 19.039062 8.480469 19.039062 C 8.480469 19.039062 8.332031 18.792969 8.351562 18.183594 L 7.390625 16.90625 L 7.609375 18.179688 C 7.632812 18.175781 7.65625 18.171875 7.679688 18.171875 C 7.859375 18.171875 8.003906 18.328125 8.003906 18.515625 C 8.003906 18.6875 7.882812 18.828125 7.726562 18.855469 L 7.917969 19.960938 C 8.222656 19.84375 9.242188 19.492188 10.507812 19.492188 C 11.773438 19.492188 12.792969 19.84375 13.09375 19.960938 Z M 13.285156 18.855469 "/>
<path style=" stroke:none;fill-rule:nonzero;fill:rgb(0%,0%,0%);fill-opacity:1;" d="M 7.0625 16.339844 L 7.203125 16.277344 C 7.203125 16.277344 7.757812 17.015625 7.863281 17.15625 C 8.089844 16.878906 8.527344 16.53125 9.113281 16.339844 C 9.070312 16.226562 8.855469 15.710938 8.855469 15.710938 C 8.855469 15.710938 9.183594 15.839844 9.324219 15.898438 C 9.308594 15.871094 9.292969 15.839844 9.292969 15.839844 C 9.292969 15.839844 9.796875 15.867188 9.878906 15.871094 C 9.917969 15.800781 10.191406 15.316406 10.230469 15.25 C 10.199219 15.195312 10.09375 15.011719 10.082031 14.992188 C 10.066406 14.980469 9.9375 14.871094 9.9375 14.871094 L 10.101562 14.554688 L 10.457031 14.578125 C 10.457031 14.578125 10.464844 14.742188 10.464844 14.773438 L 10.507812 14.839844 L 10.546875 14.773438 C 10.550781 14.742188 10.554688 14.578125 10.554688 14.578125 L 10.910156 14.554688 L 11.078125 14.871094 C 11.078125 14.871094 10.949219 14.980469 10.929688 14.992188 C 10.921875 15.011719 10.816406 15.195312 10.78125 15.25 C 10.820312 15.316406 11.09375 15.800781 11.136719 15.871094 C 11.214844 15.867188 11.71875 15.839844 11.71875 15.839844 C 11.71875 15.839844 11.703125 15.871094 11.691406 15.898438 C 11.832031 15.839844 12.160156 15.710938 12.160156 15.710938 C 12.160156 15.710938 11.945312 16.226562 11.898438 16.339844 C 12.488281 16.53125 12.921875 16.878906 13.152344 17.15625 C 13.253906 17.015625 13.8125 16.277344 13.8125 16.277344 L 13.953125 16.339844 L 13.273438 20.226562 C 13.273438 20.226562 12.300781 20.472656 10.507812 20.472656 C 8.714844 20.472656 7.742188 20.226562 7.742188 20.226562 Z M 19.703125 16.789062 L 19.703125 13.875 L 1.3125 13.875 L 1.3125 16.789062 L 10.507812 23.394531 Z M 19.703125 16.789062 "/>
<path style=" stroke:none;fill-rule:nonzero;fill:rgb(0%,0%,0%);fill-opacity:1;" d="M 19.152344 9.714844 L 17.449219 9.714844 L 17.449219 7.171875 L 12.324219 7.171875 L 12.324219 9.714844 L 10.625 9.714844 C 10.625 9.714844 11.214844 8.816406 11.214844 6.300781 C 11.214844 3.785156 10.625 2.886719 10.625 2.886719 L 19.152344 2.886719 C 19.152344 2.886719 18.5625 3.785156 18.5625 6.300781 C 18.5625 8.816406 19.152344 9.714844 19.152344 9.714844 M 9.34375 9.714844 L 1.863281 9.714844 C 1.863281 9.714844 2.453125 8.816406 2.453125 6.300781 C 2.453125 3.785156 1.863281 2.886719 1.863281 2.886719 L 4.152344 2.886719 C 4.152344 2.886719 3.566406 3.785156 3.566406 6.300781 L 3.566406 8.472656 L 7.113281 8.472656 C 9.113281 8.472656 9.96875 7.585938 9.96875 7.585938 C 9.96875 8.875 9.34375 9.714844 9.34375 9.714844 M 19.703125 1.304688 L 1.3125 1.304688 L 1.3125 11.296875 L 19.703125 11.296875 Z M 19.703125 1.304688 "/>
<path style=" stroke:none;fill-rule:nonzero;fill:rgb(0%,0%,0%);fill-opacity:1;" d="M 12.324219 4.132812 L 17.449219 4.132812 L 17.449219 5.925781 L 12.324219 5.925781 Z M 12.324219 4.132812 "/>
<path style=" stroke:none;fill-rule:nonzero;fill:rgb(0%,0%,0%);fill-opacity:1;" d="M 9.324219 17.683594 C 9.203125 17.683594 9.105469 17.78125 9.105469 17.898438 C 9.105469 18.019531 9.203125 18.113281 9.324219 18.113281 C 9.441406 18.113281 9.539062 18.019531 9.539062 17.898438 C 9.539062 17.78125 9.441406 17.683594 9.324219 17.683594 "/>
<path style=" stroke:none;fill-rule:nonzero;fill:rgb(0%,0%,0%);fill-opacity:1;" d="M 11.648438 17.683594 C 11.527344 17.683594 11.429688 17.78125 11.429688 17.898438 C 11.429688 18.019531 11.527344 18.113281 11.648438 18.113281 C 11.765625 18.113281 11.863281 18.019531 11.863281 17.898438 C 11.863281 17.78125 11.765625 17.683594 11.648438 17.683594 "/>
<path style=" stroke:none;fill-rule:nonzero;fill:rgb(0%,0%,0%);fill-opacity:1;" d="M 7.917969 19.960938 L 7.726562 18.855469 C 7.882812 18.828125 8.003906 18.6875 8.003906 18.515625 C 8.003906 18.328125 7.859375 18.171875 7.679688 18.171875 C 7.65625 18.171875 7.632812 18.175781 7.609375 18.179688 L 7.390625 16.90625 L 8.351562 18.183594 C 8.332031 18.792969 8.480469 19.039062 8.480469 19.039062 C 8.480469 19.039062 8.804688 18.910156 9.164062 18.839844 L 9.292969 18.195312 C 9.328125 18.210938 9.367188 18.222656 9.40625 18.222656 C 9.425781 18.222656 9.445312 18.21875 9.464844 18.214844 L 9.753906 18.746094 C 9.753906 18.746094 10.152344 18.707031 10.351562 18.707031 L 10.175781 18.15625 L 10.507812 17.308594 L 10.835938 18.15625 L 10.660156 18.707031 C 10.859375 18.707031 11.257812 18.746094 11.257812 18.746094 L 11.574219 18.171875 C 11.574219 18.171875 11.578125 18.175781 11.578125 18.175781 C 11.621094 18.203125 11.671875 18.21875 11.726562 18.222656 L 11.851562 18.839844 C 12.210938 18.910156 12.53125 19.039062 12.53125 19.039062 C 12.53125 19.039062 12.683594 18.792969 12.660156 18.183594 L 13.625 16.90625 L 13.402344 18.179688 C 13.378906 18.175781 13.355469 18.171875 13.335938 18.171875 C 13.15625 18.171875 13.007812 18.328125 13.007812 18.515625 C 13.007812 18.6875 13.128906 18.828125 13.285156 18.855469 L 13.09375 19.960938 C 12.792969 19.84375 11.773438 19.492188 10.507812 19.492188 C 9.238281 19.492188 8.222656 19.84375 7.917969 19.960938 M 7.714844 18.777344 C 7.832031 18.761719 7.925781 18.648438 7.925781 18.515625 C 7.925781 18.371094 7.816406 18.25 7.679688 18.25 C 7.660156 18.25 7.640625 18.253906 7.625 18.257812 L 7.617188 18.21875 C 7.636719 18.214844 7.65625 18.210938 7.679688 18.210938 C 7.835938 18.210938 7.964844 18.347656 7.964844 18.515625 C 7.964844 18.667969 7.859375 18.796875 7.722656 18.816406 Z M 7.652344 18.414062 C 7.660156 18.410156 7.667969 18.410156 7.679688 18.410156 C 7.734375 18.410156 7.777344 18.457031 7.777344 18.515625 C 7.777344 18.570312 7.738281 18.617188 7.6875 18.621094 Z M 9.324219 18.140625 C 9.1875 18.140625 9.078125 18.03125 9.078125 17.898438 C 9.078125 17.765625 9.1875 17.65625 9.324219 17.65625 C 9.457031 17.65625 9.566406 17.765625 9.566406 17.898438 C 9.566406 18.03125 9.457031 18.140625 9.324219 18.140625 M 9.378906 16.585938 L 10.226562 18.636719 C 10.082031 18.640625 9.9375 18.648438 9.800781 18.664062 L 9.539062 18.1875 C 9.621094 18.144531 9.675781 18.054688 9.675781 17.953125 C 9.675781 17.859375 9.625 17.773438 9.550781 17.726562 C 9.496094 17.660156 9.414062 17.613281 9.324219 17.613281 C 9.164062 17.613281 9.039062 17.742188 9.039062 17.898438 C 9.039062 18.019531 9.113281 18.121094 9.222656 18.164062 L 9.09375 18.773438 C 9.011719 18.792969 8.9375 18.8125 8.867188 18.832031 C 8.703125 18.332031 8.625 17.578125 9.449219 17.15625 C 9.449219 17.15625 8.28125 17.425781 8.640625 18.898438 C 8.597656 18.914062 8.554688 18.929688 8.519531 18.941406 C 8.410156 18.710938 8.429688 18.15625 8.429688 18.15625 L 8.277344 17.953125 C 8.371094 17.558594 8.65625 17.152344 9.347656 16.898438 C 9.347656 16.898438 8.542969 16.988281 8.140625 17.769531 L 7.972656 17.550781 C 8.210938 17.128906 8.722656 16.777344 9.378906 16.585938 M 9.277344 16.140625 L 10.070312 16.492188 L 10.070312 18.058594 Z M 10.507812 16 L 10.863281 16.460938 L 10.507812 16.878906 L 10.152344 16.460938 Z M 10.941406 16.492188 L 11.734375 16.140625 L 10.941406 18.058594 Z M 11.648438 18.140625 C 11.511719 18.140625 11.402344 18.03125 11.402344 17.898438 C 11.402344 17.765625 11.511719 17.65625 11.648438 17.65625 C 11.78125 17.65625 11.890625 17.765625 11.890625 17.898438 C 11.890625 18.03125 11.78125 18.140625 11.648438 18.140625 M 13.039062 17.550781 L 12.875 17.769531 C 12.472656 16.988281 11.664062 16.898438 11.664062 16.898438 C 12.355469 17.152344 12.644531 17.558594 12.738281 17.953125 L 12.582031 18.15625 C 12.582031 18.15625 12.601562 18.710938 12.492188 18.941406 C 12.457031 18.929688 12.417969 18.914062 12.371094 18.898438 C 12.730469 17.425781 11.5625 17.15625 11.5625 17.15625 C 12.386719 17.578125 12.3125 18.332031 12.144531 18.832031 C 12.074219 18.8125 12 18.792969 11.917969 18.773438 L 11.804688 18.210938 C 11.917969 18.179688 12 18.078125 12 17.953125 C 12 17.859375 11.949219 17.773438 11.875 17.726562 C 11.820312 17.660156 11.738281 17.613281 11.648438 17.613281 C 11.488281 17.613281 11.359375 17.742188 11.359375 17.898438 C 11.359375 18.003906 11.417969 18.09375 11.5 18.144531 L 11.214844 18.664062 C 11.074219 18.648438 10.933594 18.640625 10.789062 18.636719 L 11.632812 16.585938 C 12.289062 16.777344 12.804688 17.128906 13.039062 17.550781 M 13.390625 18.257812 C 13.371094 18.253906 13.351562 18.25 13.335938 18.25 C 13.199219 18.25 13.085938 18.371094 13.085938 18.515625 C 13.085938 18.648438 13.179688 18.761719 13.296875 18.777344 L 13.292969 18.816406 C 13.152344 18.796875 13.046875 18.667969 13.046875 18.515625 C 13.046875 18.347656 13.175781 18.210938 13.335938 18.210938 C 13.355469 18.210938 13.375 18.214844 13.394531 18.21875 Z M 13.324219 18.621094 C 13.273438 18.617188 13.234375 18.570312 13.234375 18.515625 C 13.234375 18.457031 13.277344 18.410156 13.335938 18.410156 C 13.34375 18.410156 13.351562 18.410156 13.363281 18.414062 Z M 12.042969 19.734375 C 11.5625 19.910156 10.863281 19.984375 10.863281 19.984375 C 11.335938 19.984375 11.847656 19.929688 12.210938 19.878906 C 11.730469 20.058594 11.011719 20.132812 11.011719 20.132812 C 11.542969 20.132812 12.128906 20.0625 12.488281 20.011719 C 11.960938 20.214844 11.070312 20.296875 11.070312 20.296875 C 12.378906 20.261719 13.15625 20.066406 13.15625 20.066406 L 13.753906 16.601562 L 13.148438 17.40625 C 12.878906 16.976562 12.363281 16.625 11.699219 16.433594 L 11.882812 15.988281 L 10.941406 16.410156 L 10.941406 16.179688 L 10.507812 15.4375 L 10.070312 16.179688 L 10.070312 16.410156 L 9.132812 15.988281 L 9.316406 16.433594 C 8.652344 16.625 8.132812 16.976562 7.867188 17.40625 L 7.257812 16.601562 L 7.859375 20.066406 C 7.859375 20.066406 8.632812 20.261719 9.941406 20.296875 C 9.941406 20.296875 9.050781 20.214844 8.523438 20.011719 C 8.886719 20.0625 9.46875 20.132812 10.003906 20.132812 C 10.003906 20.132812 9.28125 20.058594 8.800781 19.878906 C 9.164062 19.929688 9.679688 19.984375 10.152344 19.984375 C 10.152344 19.984375 9.449219 19.910156 8.96875 19.734375 C 9.398438 19.644531 9.925781 19.570312 10.507812 19.570312 C 11.089844 19.570312 11.617188 19.644531 12.042969 19.734375 "/>
<path style=" stroke:none;fill-rule:nonzero;fill:rgb(0%,0%,0%);fill-opacity:1;" d="M 10.296875 14.769531 L 10.210938 14.761719 L 10.171875 14.816406 L 10.226562 14.875 L 10.457031 15.261719 L 9.988281 16.0625 L 9.621094 16.0625 L 9.664062 16.152344 L 10.039062 16.152344 L 10.507812 15.351562 L 10.976562 16.152344 L 11.347656 16.152344 L 11.394531 16.0625 L 11.023438 16.0625 L 10.554688 15.261719 L 10.785156 14.875 L 10.839844 14.816406 L 10.800781 14.761719 L 10.71875 14.769531 L 10.703125 14.839844 L 10.507812 15.179688 L 10.308594 14.839844 Z M 10.296875 14.769531 "/>
<path style=" stroke:none;fill-rule:nonzero;fill:rgb(0%,0%,0%);fill-opacity:1;" d="M 9.945312 19.011719 C 9.964844 19.035156 9.976562 19.066406 9.976562 19.101562 C 9.976562 19.179688 9.910156 19.242188 9.832031 19.242188 C 9.832031 19.242188 9.828125 19.242188 9.828125 19.242188 C 9.847656 19.25 9.867188 19.257812 9.886719 19.257812 C 9.957031 19.257812 10.015625 19.199219 10.015625 19.128906 C 10.015625 19.078125 9.988281 19.03125 9.945312 19.011719 "/>
<path style=" stroke:none;fill-rule:nonzero;fill:rgb(0%,0%,0%);fill-opacity:1;" d="M 8.835938 19.207031 C 8.855469 19.230469 8.867188 19.261719 8.867188 19.296875 C 8.867188 19.375 8.804688 19.4375 8.722656 19.4375 C 8.738281 19.445312 8.757812 19.453125 8.78125 19.453125 C 8.851562 19.453125 8.910156 19.394531 8.910156 19.324219 C 8.910156 19.273438 8.878906 19.230469 8.835938 19.207031 "/>
<path style=" stroke:none;fill-rule:nonzero;fill:rgb(0%,0%,0%);fill-opacity:1;" d="M 11.101562 19.242188 C 11.101562 19.242188 11.101562 19.242188 11.097656 19.242188 C 11.117188 19.25 11.136719 19.257812 11.15625 19.257812 C 11.226562 19.257812 11.285156 19.199219 11.285156 19.128906 C 11.285156 19.078125 11.257812 19.03125 11.214844 19.011719 C 11.234375 19.035156 11.246094 19.066406 11.246094 19.101562 C 11.246094 19.179688 11.179688 19.242188 11.101562 19.242188 "/>
<path style=" stroke:none;fill-rule:nonzero;fill:rgb(0%,0%,0%);fill-opacity:1;" d="M 12.210938 19.4375 C 12.210938 19.4375 12.210938 19.4375 12.207031 19.4375 C 12.226562 19.445312 12.246094 19.453125 12.265625 19.453125 C 12.335938 19.453125 12.394531 19.394531 12.394531 19.324219 C 12.394531 19.273438 12.367188 19.230469 12.324219 19.207031 C 12.34375 19.230469 12.355469 19.261719 12.355469 19.296875 C 12.355469 19.375 12.289062 19.4375 12.210938 19.4375 "/>
<path style=" stroke:none;fill-rule:nonzero;fill:rgb(0%,0%,0%);fill-opacity:1;" d="M 10.683594 18.140625 C 10.683594 18.089844 10.65625 18.046875 10.613281 18.027344 C 10.632812 18.050781 10.644531 18.082031 10.644531 18.113281 C 10.644531 18.191406 10.578125 18.257812 10.5 18.257812 C 10.5 18.257812 10.5 18.257812 10.496094 18.257812 C 10.515625 18.265625 10.535156 18.269531 10.554688 18.269531 C 10.625 18.269531 10.683594 18.210938 10.683594 18.140625 "/>
<path style=" stroke:none;fill-rule:nonzero;fill:rgb(0%,0%,0%);fill-opacity:1;" d="M 9.945312 19.101562 C 9.945312 19.035156 9.894531 18.984375 9.832031 18.984375 C 9.765625 18.984375 9.714844 19.035156 9.714844 19.101562 C 9.714844 19.164062 9.765625 19.214844 9.832031 19.214844 C 9.894531 19.214844 9.945312 19.164062 9.945312 19.101562 "/>
<path style=" stroke:none;fill-rule:nonzero;fill:rgb(0%,0%,0%);fill-opacity:1;" d="M 8.839844 19.296875 C 8.839844 19.234375 8.789062 19.179688 8.722656 19.179688 C 8.660156 19.179688 8.609375 19.234375 8.609375 19.296875 C 8.609375 19.359375 8.660156 19.410156 8.722656 19.410156 C 8.789062 19.410156 8.839844 19.359375 8.839844 19.296875 "/>
<path style=" stroke:none;fill-rule:nonzero;fill:rgb(0%,0%,0%);fill-opacity:1;" d="M 11.101562 19.214844 C 11.164062 19.214844 11.21875 19.164062 11.21875 19.101562 C 11.21875 19.035156 11.164062 18.984375 11.101562 18.984375 C 11.039062 18.984375 10.984375 19.035156 10.984375 19.101562 C 10.984375 19.164062 11.039062 19.214844 11.101562 19.214844 "/>
<path style=" stroke:none;fill-rule:nonzero;fill:rgb(0%,0%,0%);fill-opacity:1;" d="M 12.210938 19.410156 C 12.273438 19.410156 12.328125 19.359375 12.328125 19.296875 C 12.328125 19.230469 12.273438 19.179688 12.210938 19.179688 C 12.148438 19.179688 12.09375 19.230469 12.09375 19.296875 C 12.09375 19.359375 12.148438 19.410156 12.210938 19.410156 "/>
<path style=" stroke:none;fill-rule:nonzero;fill:rgb(0%,0%,0%);fill-opacity:1;" d="M 10.617188 18.113281 C 10.617188 18.050781 10.5625 18 10.5 18 C 10.4375 18 10.382812 18.050781 10.382812 18.113281 C 10.382812 18.175781 10.4375 18.230469 10.5 18.230469 C 10.5625 18.230469 10.617188 18.175781 10.617188 18.113281 "/>
<path style=" stroke:none;fill-rule:nonzero;fill:rgb(0%,0%,0%);fill-opacity:1;" d="M 7.628906 18.128906 L 7.765625 18.136719 L 7.703125 17.957031 Z M 7.628906 18.128906 "/>
<path style=" stroke:none;fill-rule:nonzero;fill:rgb(0%,0%,0%);fill-opacity:1;" d="M 7.832031 18.15625 L 7.949219 18.234375 L 7.988281 18.046875 Z M 7.832031 18.15625 "/>
<path style=" stroke:none;fill-rule:nonzero;fill:rgb(0%,0%,0%);fill-opacity:1;" d="M 7.996094 18.285156 L 8.054688 18.410156 L 8.183594 18.273438 Z M 7.996094 18.285156 "/>
<path style=" stroke:none;fill-rule:nonzero;fill:rgb(0%,0%,0%);fill-opacity:1;" d="M 8.054688 18.617188 L 8.238281 18.5625 L 8.070312 18.480469 Z M 8.054688 18.617188 "/>
<path style=" stroke:none;fill-rule:nonzero;fill:rgb(0%,0%,0%);fill-opacity:1;" d="M 7.964844 18.785156 L 8.148438 18.820312 L 8.039062 18.667969 Z M 7.964844 18.785156 "/>
<path style=" stroke:none;fill-rule:nonzero;fill:rgb(0%,0%,0%);fill-opacity:1;" d="M 7.765625 18.894531 L 7.902344 19.027344 L 7.894531 18.839844 Z M 7.765625 18.894531 "/>
<path style=" stroke:none;fill-rule:nonzero;fill:rgb(0%,0%,0%);fill-opacity:1;" d="M 13.246094 18.136719 L 13.386719 18.128906 L 13.308594 17.957031 Z M 13.246094 18.136719 "/>
<path style=" stroke:none;fill-rule:nonzero;fill:rgb(0%,0%,0%);fill-opacity:1;" d="M 13.0625 18.234375 L 13.179688 18.15625 L 13.023438 18.046875 Z M 13.0625 18.234375 "/>
<path style=" stroke:none;fill-rule:nonzero;fill:rgb(0%,0%,0%);fill-opacity:1;" d="M 12.957031 18.410156 L 13.019531 18.285156 L 12.828125 18.273438 Z M 12.957031 18.410156 "/>
<path style=" stroke:none;fill-rule:nonzero;fill:rgb(0%,0%,0%);fill-opacity:1;" d="M 12.773438 18.5625 L 12.957031 18.617188 L 12.945312 18.480469 Z M 12.773438 18.5625 "/>
<path style=" stroke:none;fill-rule:nonzero;fill:rgb(0%,0%,0%);fill-opacity:1;" d="M 12.863281 18.820312 L 13.050781 18.785156 L 12.972656 18.667969 Z M 12.863281 18.820312 "/>
<path style=" stroke:none;fill-rule:nonzero;fill:rgb(0%,0%,0%);fill-opacity:1;" d="M 13.109375 19.027344 L 13.246094 18.894531 L 13.117188 18.839844 Z M 13.109375 19.027344 "/>
<path style=" stroke:none;fill-rule:nonzero;fill:rgb(0%,0%,0%);fill-opacity:1;" d="M 10.378906 16.445312 C 10.378906 16.375 10.4375 16.320312 10.507812 16.320312 C 10.578125 16.320312 10.632812 16.375 10.632812 16.445312 C 10.632812 16.515625 10.578125 16.570312 10.507812 16.570312 C 10.4375 16.570312 10.378906 16.515625 10.378906 16.445312 M 10.65625 16.445312 C 10.65625 16.363281 10.589844 16.296875 10.507812 16.296875 C 10.425781 16.296875 10.359375 16.363281 10.359375 16.445312 C 10.359375 16.527344 10.425781 16.59375 10.507812 16.59375 C 10.589844 16.59375 10.65625 16.527344 10.65625 16.445312 "/>
<path style=" stroke:none;fill-rule:nonzero;fill:rgb(0%,0%,0%);fill-opacity:1;" d="M 11.191406 16.816406 C 11.121094 16.816406 11.066406 16.757812 11.066406 16.6875 C 11.066406 16.617188 11.121094 16.5625 11.191406 16.5625 C 11.261719 16.5625 11.320312 16.617188 11.320312 16.6875 C 11.320312 16.757812 11.261719 16.816406 11.191406 16.816406 M 11.308594 16.597656 C 11.28125 16.5625 11.238281 16.539062 11.191406 16.539062 C 11.109375 16.539062 11.042969 16.605469 11.042969 16.6875 C 11.042969 16.757812 11.089844 16.816406 11.15625 16.832031 C 11.179688 16.847656 11.207031 16.855469 11.234375 16.855469 C 11.3125 16.855469 11.375 16.792969 11.375 16.714844 C 11.375 16.667969 11.347656 16.625 11.308594 16.597656 "/>
<path style=" stroke:none;fill-rule:nonzero;fill:rgb(0%,0%,0%);fill-opacity:1;" d="M 9.757812 16.816406 C 9.6875 16.816406 9.628906 16.757812 9.628906 16.6875 C 9.628906 16.617188 9.6875 16.5625 9.757812 16.5625 C 9.828125 16.5625 9.882812 16.617188 9.882812 16.6875 C 9.882812 16.757812 9.828125 16.816406 9.757812 16.816406 M 9.875 16.597656 C 9.847656 16.5625 9.804688 16.539062 9.757812 16.539062 C 9.675781 16.539062 9.609375 16.605469 9.609375 16.6875 C 9.609375 16.757812 9.65625 16.816406 9.722656 16.832031 C 9.742188 16.847656 9.769531 16.855469 9.800781 16.855469 C 9.878906 16.855469 9.941406 16.792969 9.941406 16.714844 C 9.941406 16.667969 9.914062 16.625 9.875 16.597656 "/>
<path style=" stroke:none;fill-rule:nonzero;fill:rgb(0%,0%,0%);fill-opacity:1;" d="M 10.617188 16.445312 C 10.617188 16.382812 10.570312 16.335938 10.507812 16.335938 C 10.445312 16.335938 10.394531 16.382812 10.394531 16.445312 C 10.394531 16.507812 10.445312 16.558594 10.507812 16.558594 C 10.570312 16.558594 10.617188 16.507812 10.617188 16.445312 "/>
<path style=" stroke:none;fill-rule:nonzero;fill:rgb(0%,0%,0%);fill-opacity:1;" d="M 11.191406 16.578125 C 11.128906 16.578125 11.078125 16.625 11.078125 16.6875 C 11.078125 16.75 11.128906 16.800781 11.191406 16.800781 C 11.253906 16.800781 11.304688 16.75 11.304688 16.6875 C 11.304688 16.625 11.253906 16.578125 11.191406 16.578125 "/>
<path style=" stroke:none;fill-rule:nonzero;fill:rgb(0%,0%,0%);fill-opacity:1;" d="M 9.757812 16.578125 C 9.695312 16.578125 9.644531 16.625 9.644531 16.6875 C 9.644531 16.75 9.695312 16.800781 9.757812 16.800781 C 9.820312 16.800781 9.867188 16.75 9.867188 16.6875 C 9.867188 16.625 9.820312 16.578125 9.757812 16.578125 "/>
</g>
</svg>
