<?xml version="1.0" encoding="UTF-8"?>
<svg xmlns="http://www.w3.org/2000/svg" xmlns:xlink="http://www.w3.org/1999/xlink" width="35pt" height="25pt" viewBox="0 0 35 25" version="1.1">
<g id="surface1">
<path style=" stroke:none;fill-rule:nonzero;fill:rgb(100%,100%,100%);fill-opacity:1;" d="M 7.746094 12.804688 L 27.253906 12.804688 L 27.253906 17.097656 L 17.5 24.148438 L 7.746094 17.097656 Z M 7.746094 0.691406 L 27.253906 0.691406 L 27.253906 12.203125 L 7.746094 12.203125 Z M 7.054688 17.453125 L 17.5 25 L 27.945312 17.453125 L 27.945312 0 L 7.054688 0 Z M 7.054688 17.453125 "/>
<path style=" stroke:none;fill-rule:nonzero;fill:rgb(100%,100%,100%);fill-opacity:1;" d="M 24.558594 6.082031 L 19.148438 6.082031 L 19.148438 3.972656 L 24.558594 3.972656 Z M 17.871094 3.042969 C 18.050781 3.460938 18.363281 4.453125 18.363281 6.300781 C 18.363281 8.148438 18.050781 9.140625 17.871094 9.558594 L 19.148438 9.558594 L 19.148438 7.011719 L 24.558594 7.011719 L 24.558594 9.558594 L 25.835938 9.558594 C 25.660156 9.140625 25.347656 8.148438 25.347656 6.300781 C 25.347656 4.453125 25.660156 3.460938 25.835938 3.042969 Z M 17.871094 3.042969 "/>
<path style=" stroke:none;fill-rule:nonzero;fill:rgb(100%,100%,100%);fill-opacity:1;" d="M 10.441406 8.628906 L 10.441406 6.300781 C 10.441406 4.453125 10.753906 3.460938 10.929688 3.042969 L 9.164062 3.042969 C 9.339844 3.460938 9.652344 4.453125 9.652344 6.300781 C 9.652344 8.148438 9.339844 9.140625 9.164062 9.558594 L 16.257812 9.558594 C 16.375 9.375 16.710938 8.773438 16.785156 7.925781 C 16.382812 8.203125 15.535156 8.628906 14.125 8.628906 Z M 10.441406 8.628906 "/>
<path style=" stroke:none;fill-rule:nonzero;fill:rgb(100%,100%,100%);fill-opacity:1;" d="M 17.148438 19.980469 C 16.675781 19.980469 16.164062 19.925781 15.804688 19.875 C 16.28125 20.054688 17 20.128906 17 20.128906 C 16.46875 20.128906 15.886719 20.0625 15.53125 20.007812 C 16.054688 20.210938 16.9375 20.292969 16.9375 20.292969 C 15.636719 20.257812 14.867188 20.0625 14.867188 20.0625 L 14.269531 16.597656 L 14.875 17.40625 C 15.140625 16.972656 15.65625 16.625 16.316406 16.429688 L 16.132812 15.984375 L 17.066406 16.40625 L 17.066406 16.175781 L 17.5 15.433594 L 17.933594 16.175781 L 17.933594 16.40625 L 18.867188 15.984375 L 18.683594 16.429688 C 19.34375 16.625 19.859375 16.972656 20.125 17.40625 L 20.730469 16.597656 L 20.132812 20.0625 C 20.132812 20.0625 19.363281 20.257812 18.0625 20.292969 C 18.0625 20.292969 18.945312 20.210938 19.46875 20.007812 C 19.113281 20.058594 18.53125 20.128906 18 20.128906 C 18 20.128906 18.71875 20.054688 19.195312 19.875 C 18.835938 19.925781 18.324219 19.980469 17.851562 19.980469 C 17.851562 19.980469 18.550781 19.90625 19.027344 19.734375 C 18.601562 19.640625 18.078125 19.570312 17.5 19.570312 C 16.921875 19.570312 16.398438 19.640625 15.972656 19.734375 C 16.449219 19.90625 17.148438 19.980469 17.148438 19.980469 M 16.984375 16.0625 L 17.449219 15.261719 L 17.222656 14.871094 L 17.167969 14.816406 L 17.207031 14.757812 L 17.289062 14.765625 L 17.304688 14.835938 L 17.5 15.175781 L 17.695312 14.835938 L 17.710938 14.765625 L 17.792969 14.757812 L 17.832031 14.816406 L 17.777344 14.871094 L 17.550781 15.261719 L 18.015625 16.0625 L 18.382812 16.0625 L 18.335938 16.148438 L 17.964844 16.148438 L 17.5 15.347656 L 17.035156 16.148438 L 16.664062 16.148438 L 16.617188 16.0625 Z M 20.25 20.222656 L 20.925781 16.335938 L 20.785156 16.277344 C 20.785156 16.277344 20.234375 17.015625 20.128906 17.152344 C 19.902344 16.875 19.46875 16.53125 18.882812 16.335938 C 18.929688 16.222656 19.144531 15.707031 19.144531 15.707031 C 19.144531 15.707031 18.816406 15.839844 18.675781 15.894531 C 18.691406 15.867188 18.707031 15.835938 18.707031 15.835938 C 18.707031 15.835938 18.203125 15.863281 18.125 15.867188 C 18.085938 15.796875 17.8125 15.3125 17.773438 15.25 C 17.808594 15.191406 17.910156 15.011719 17.921875 14.992188 C 17.941406 14.976562 18.066406 14.867188 18.066406 14.867188 L 17.902344 14.550781 L 17.546875 14.574219 C 17.546875 14.574219 17.542969 14.742188 17.539062 14.773438 L 17.5 14.839844 L 17.460938 14.773438 C 17.457031 14.742188 17.453125 14.574219 17.453125 14.574219 L 17.097656 14.550781 L 16.933594 14.867188 C 16.933594 14.867188 17.058594 14.976562 17.078125 14.992188 C 17.089844 15.011719 17.191406 15.191406 17.226562 15.25 C 17.1875 15.3125 16.914062 15.796875 16.875 15.867188 C 16.796875 15.863281 16.292969 15.835938 16.292969 15.835938 C 16.292969 15.835938 16.308594 15.867188 16.324219 15.894531 C 16.183594 15.839844 15.855469 15.707031 15.855469 15.707031 C 15.855469 15.707031 16.070312 16.222656 16.117188 16.335938 C 15.53125 16.53125 15.097656 16.875 14.871094 17.152344 C 14.769531 17.015625 14.214844 16.277344 14.214844 16.277344 L 14.074219 16.335938 L 14.75 20.222656 C 14.75 20.222656 15.714844 20.46875 17.5 20.46875 C 19.285156 20.46875 20.25 20.222656 20.25 20.222656 "/>
<path style=" stroke:none;fill-rule:nonzero;fill:rgb(100%,100%,100%);fill-opacity:1;" d="M 14.980469 17.546875 L 15.144531 17.769531 C 15.546875 16.984375 16.347656 16.894531 16.347656 16.894531 C 15.660156 17.152344 15.375 17.554688 15.28125 17.949219 L 15.4375 18.152344 C 15.4375 18.152344 15.417969 18.707031 15.527344 18.9375 C 15.5625 18.925781 15.601562 18.910156 15.644531 18.898438 C 15.289062 17.421875 16.449219 17.152344 16.449219 17.152344 C 15.628906 17.574219 15.707031 18.332031 15.871094 18.828125 C 15.941406 18.808594 16.015625 18.789062 16.097656 18.773438 L 16.222656 18.160156 C 16.117188 18.117188 16.039062 18.015625 16.039062 17.894531 C 16.039062 17.738281 16.167969 17.613281 16.324219 17.613281 C 16.414062 17.613281 16.496094 17.65625 16.550781 17.722656 C 16.625 17.769531 16.675781 17.855469 16.675781 17.949219 C 16.675781 18.050781 16.617188 18.140625 16.535156 18.183594 L 16.796875 18.660156 C 16.933594 18.648438 17.078125 18.636719 17.21875 18.632812 L 16.378906 16.585938 C 15.726562 16.773438 15.214844 17.125 14.980469 17.546875 "/>
<path style=" stroke:none;fill-rule:nonzero;fill:rgb(100%,100%,100%);fill-opacity:1;" d="M 18.488281 18.140625 C 18.40625 18.089844 18.347656 18 18.347656 17.894531 C 18.347656 17.738281 18.476562 17.613281 18.632812 17.613281 C 18.722656 17.613281 18.804688 17.65625 18.859375 17.722656 C 18.933594 17.769531 18.984375 17.855469 18.984375 17.949219 C 18.984375 18.074219 18.902344 18.175781 18.789062 18.207031 L 18.902344 18.773438 C 18.984375 18.789062 19.058594 18.808594 19.128906 18.828125 C 19.296875 18.332031 19.371094 17.574219 18.550781 17.152344 C 18.550781 17.152344 19.710938 17.421875 19.355469 18.898438 C 19.398438 18.914062 19.4375 18.925781 19.472656 18.941406 C 19.582031 18.707031 19.5625 18.15625 19.5625 18.15625 L 19.71875 17.949219 C 19.625 17.554688 19.339844 17.152344 18.652344 16.894531 C 18.652344 16.894531 19.453125 16.984375 19.855469 17.769531 L 20.019531 17.546875 C 19.785156 17.125 19.273438 16.773438 18.621094 16.585938 L 17.78125 18.632812 C 17.921875 18.636719 18.066406 18.644531 18.203125 18.660156 Z M 18.488281 18.140625 "/>
<path style=" stroke:none;fill-rule:nonzero;fill:rgb(100%,100%,100%);fill-opacity:1;" d="M 16.324219 18.113281 C 16.203125 18.113281 16.109375 18.015625 16.109375 17.894531 C 16.109375 17.777344 16.203125 17.679688 16.324219 17.679688 C 16.441406 17.679688 16.539062 17.777344 16.539062 17.894531 C 16.539062 18.015625 16.441406 18.113281 16.324219 18.113281 M 16.324219 17.652344 C 16.191406 17.652344 16.082031 17.761719 16.082031 17.894531 C 16.082031 18.03125 16.191406 18.136719 16.324219 18.136719 C 16.457031 18.136719 16.566406 18.03125 16.566406 17.894531 C 16.566406 17.761719 16.457031 17.652344 16.324219 17.652344 "/>
<path style=" stroke:none;fill-rule:nonzero;fill:rgb(100%,100%,100%);fill-opacity:1;" d="M 18.632812 18.113281 C 18.515625 18.113281 18.417969 18.015625 18.417969 17.894531 C 18.417969 17.777344 18.515625 17.679688 18.632812 17.679688 C 18.753906 17.679688 18.847656 17.777344 18.847656 17.894531 C 18.847656 18.015625 18.753906 18.113281 18.632812 18.113281 M 18.875 17.894531 C 18.875 17.761719 18.765625 17.652344 18.632812 17.652344 C 18.5 17.652344 18.390625 17.761719 18.390625 17.894531 C 18.390625 18.03125 18.5 18.136719 18.632812 18.136719 C 18.765625 18.136719 18.875 18.03125 18.875 17.894531 "/>
<path style=" stroke:none;fill-rule:nonzero;fill:rgb(100%,100%,100%);fill-opacity:1;" d="M 14.789062 18.511719 C 14.789062 18.453125 14.742188 18.40625 14.6875 18.40625 C 14.679688 18.40625 14.671875 18.40625 14.660156 18.410156 L 14.699219 18.617188 C 14.75 18.613281 14.789062 18.570312 14.789062 18.511719 "/>
<path style=" stroke:none;fill-rule:nonzero;fill:rgb(100%,100%,100%);fill-opacity:1;" d="M 14.6875 18.207031 C 14.667969 18.207031 14.648438 18.210938 14.628906 18.214844 L 14.632812 18.253906 C 14.652344 18.25 14.671875 18.246094 14.6875 18.246094 C 14.824219 18.246094 14.933594 18.367188 14.933594 18.511719 C 14.933594 18.644531 14.84375 18.757812 14.722656 18.773438 L 14.730469 18.8125 C 14.867188 18.792969 14.972656 18.664062 14.972656 18.511719 C 14.972656 18.34375 14.847656 18.207031 14.6875 18.207031 "/>
<path style=" stroke:none;fill-rule:nonzero;fill:rgb(100%,100%,100%);fill-opacity:1;" d="M 20.210938 18.511719 C 20.210938 18.570312 20.25 18.613281 20.300781 18.617188 L 20.339844 18.410156 C 20.328125 18.410156 20.320312 18.40625 20.308594 18.40625 C 20.253906 18.40625 20.210938 18.453125 20.210938 18.511719 "/>
<path style=" stroke:none;fill-rule:nonzero;fill:rgb(100%,100%,100%);fill-opacity:1;" d="M 20.269531 18.8125 L 20.277344 18.773438 C 20.15625 18.757812 20.066406 18.644531 20.066406 18.511719 C 20.066406 18.367188 20.175781 18.25 20.3125 18.25 C 20.328125 18.25 20.347656 18.25 20.367188 18.253906 L 20.371094 18.214844 C 20.351562 18.210938 20.332031 18.207031 20.3125 18.207031 C 20.152344 18.207031 20.027344 18.34375 20.027344 18.511719 C 20.027344 18.664062 20.132812 18.792969 20.269531 18.8125 "/>
<path style=" stroke:none;fill-rule:nonzero;fill:rgb(100%,100%,100%);fill-opacity:1;" d="M 17.386719 16.441406 C 17.386719 16.382812 17.4375 16.332031 17.5 16.332031 C 17.5625 16.332031 17.613281 16.382812 17.613281 16.441406 C 17.613281 16.503906 17.5625 16.554688 17.5 16.554688 C 17.4375 16.554688 17.386719 16.503906 17.386719 16.441406 M 17.625 16.441406 C 17.625 16.375 17.570312 16.316406 17.5 16.316406 C 17.429688 16.316406 17.375 16.375 17.375 16.441406 C 17.375 16.511719 17.429688 16.570312 17.5 16.570312 C 17.570312 16.570312 17.625 16.511719 17.625 16.441406 "/>
<path style=" stroke:none;fill-rule:nonzero;fill:rgb(100%,100%,100%);fill-opacity:1;" d="M 18.179688 16.574219 C 18.242188 16.574219 18.292969 16.625 18.292969 16.6875 C 18.292969 16.746094 18.242188 16.796875 18.179688 16.796875 C 18.117188 16.796875 18.070312 16.746094 18.070312 16.6875 C 18.070312 16.625 18.117188 16.574219 18.179688 16.574219 M 18.179688 16.8125 C 18.25 16.8125 18.308594 16.753906 18.308594 16.6875 C 18.308594 16.617188 18.25 16.558594 18.179688 16.558594 C 18.113281 16.558594 18.054688 16.617188 18.054688 16.6875 C 18.054688 16.753906 18.113281 16.8125 18.179688 16.8125 "/>
<path style=" stroke:none;fill-rule:nonzero;fill:rgb(100%,100%,100%);fill-opacity:1;" d="M 16.753906 16.574219 C 16.816406 16.574219 16.867188 16.625 16.867188 16.6875 C 16.867188 16.746094 16.816406 16.796875 16.753906 16.796875 C 16.691406 16.796875 16.644531 16.746094 16.644531 16.6875 C 16.644531 16.625 16.691406 16.574219 16.753906 16.574219 M 16.753906 16.8125 C 16.824219 16.8125 16.878906 16.753906 16.878906 16.6875 C 16.878906 16.617188 16.824219 16.558594 16.753906 16.558594 C 16.683594 16.558594 16.628906 16.617188 16.628906 16.6875 C 16.628906 16.753906 16.683594 16.8125 16.753906 16.8125 "/>
<path style=" stroke:none;fill-rule:nonzero;fill:rgb(69.019608%,71.764706%,73.333333%);fill-opacity:1;" d="M 8.359375 13.875 L 26.640625 13.875 L 26.640625 16.785156 L 17.5 23.390625 L 8.359375 16.785156 Z M 27.253906 17.097656 L 27.253906 12.804688 L 7.746094 12.804688 L 7.746094 17.097656 L 17.5 24.148438 Z M 27.253906 17.097656 "/>
<path style=" stroke:none;fill-rule:nonzero;fill:rgb(69.019608%,71.764706%,73.333333%);fill-opacity:1;" d="M 26.640625 11.296875 L 8.359375 11.296875 L 8.359375 1.304688 L 26.640625 1.304688 Z M 27.253906 0.691406 L 7.746094 0.691406 L 7.746094 12.203125 L 27.253906 12.203125 Z M 27.253906 0.691406 "/>
<path style=" stroke:none;fill-rule:nonzero;fill:rgb(69.019608%,71.764706%,73.333333%);fill-opacity:1;" d="M 17.871094 3.042969 L 25.835938 3.042969 C 25.660156 3.460938 25.347656 4.453125 25.347656 6.300781 C 25.347656 8.148438 25.660156 9.140625 25.835938 9.558594 L 24.558594 9.558594 L 24.558594 7.011719 L 19.148438 7.011719 L 19.148438 9.558594 L 17.871094 9.558594 C 18.050781 9.140625 18.359375 8.148438 18.359375 6.300781 C 18.359375 4.453125 18.050781 3.460938 17.871094 3.042969 M 19.308594 9.714844 L 19.308594 7.171875 L 24.402344 7.171875 L 24.402344 9.714844 L 26.09375 9.714844 C 26.09375 9.714844 25.507812 8.816406 25.507812 6.300781 C 25.507812 3.785156 26.09375 2.886719 26.09375 2.886719 L 17.617188 2.886719 C 17.617188 2.886719 18.203125 3.785156 18.203125 6.300781 C 18.203125 8.816406 17.617188 9.714844 17.617188 9.714844 Z M 19.308594 9.714844 "/>
<path style=" stroke:none;fill-rule:nonzero;fill:rgb(69.019608%,71.764706%,73.333333%);fill-opacity:1;" d="M 24.402344 5.925781 L 19.308594 5.925781 L 19.308594 4.128906 L 24.402344 4.128906 Z M 24.558594 3.972656 L 19.148438 3.972656 L 19.148438 6.082031 L 24.558594 6.082031 Z M 24.558594 3.972656 "/>
<path style=" stroke:none;fill-rule:nonzero;fill:rgb(69.019608%,71.764706%,73.333333%);fill-opacity:1;" d="M 9.164062 3.042969 L 10.929688 3.042969 C 10.753906 3.460938 10.441406 4.453125 10.441406 6.300781 L 10.441406 8.628906 L 14.125 8.628906 C 15.535156 8.628906 16.382812 8.203125 16.785156 7.925781 C 16.710938 8.773438 16.375 9.375 16.257812 9.558594 L 9.164062 9.558594 C 9.339844 9.140625 9.652344 8.148438 9.652344 6.300781 C 9.652344 4.453125 9.339844 3.460938 9.164062 3.042969 M 16.34375 9.714844 C 16.34375 9.714844 16.964844 8.871094 16.964844 7.585938 C 16.964844 7.585938 16.117188 8.46875 14.125 8.46875 L 10.601562 8.46875 L 10.601562 6.300781 C 10.601562 3.785156 11.183594 2.886719 11.183594 2.886719 L 8.90625 2.886719 C 8.90625 2.886719 9.492188 3.785156 9.492188 6.300781 C 9.492188 8.816406 8.90625 9.714844 8.90625 9.714844 Z M 16.34375 9.714844 "/>
<path style=" stroke:none;fill-rule:nonzero;fill:rgb(69.019608%,71.764706%,73.333333%);fill-opacity:1;" d="M 16.796875 16.851562 C 16.769531 16.851562 16.742188 16.84375 16.71875 16.828125 C 16.65625 16.8125 16.605469 16.753906 16.605469 16.683594 C 16.605469 16.605469 16.671875 16.539062 16.753906 16.539062 C 16.800781 16.539062 16.84375 16.5625 16.871094 16.597656 C 16.910156 16.621094 16.9375 16.664062 16.9375 16.714844 C 16.9375 16.789062 16.875 16.851562 16.796875 16.851562 M 17.066406 16.492188 L 16.277344 16.136719 L 17.066406 18.058594 Z M 17.066406 16.492188 "/>
<path style=" stroke:none;fill-rule:nonzero;fill:rgb(69.019608%,71.764706%,73.333333%);fill-opacity:1;" d="M 18.222656 16.851562 C 18.195312 16.851562 18.167969 16.84375 18.144531 16.828125 C 18.082031 16.8125 18.035156 16.753906 18.035156 16.683594 C 18.035156 16.605469 18.097656 16.539062 18.179688 16.539062 C 18.226562 16.539062 18.269531 16.5625 18.296875 16.597656 C 18.335938 16.621094 18.363281 16.664062 18.363281 16.714844 C 18.363281 16.789062 18.300781 16.851562 18.222656 16.851562 M 17.929688 16.492188 L 17.929688 18.058594 L 18.71875 16.136719 Z M 17.929688 16.492188 "/>
<path style=" stroke:none;fill-rule:nonzero;fill:rgb(69.019608%,71.764706%,73.333333%);fill-opacity:1;" d="M 17.351562 16.441406 C 17.351562 16.359375 17.417969 16.296875 17.5 16.296875 C 17.582031 16.296875 17.648438 16.359375 17.648438 16.441406 C 17.648438 16.523438 17.582031 16.589844 17.5 16.589844 C 17.417969 16.589844 17.351562 16.523438 17.351562 16.441406 M 17.851562 16.457031 L 17.5 15.996094 L 17.148438 16.457031 L 17.5 16.875 Z M 17.851562 16.457031 "/>
<path style=" stroke:none;fill-rule:nonzero;fill:rgb(69.019608%,71.764706%,73.333333%);fill-opacity:1;" d="M 19.84375 18.816406 L 19.953125 18.664062 L 20.027344 18.78125 Z M 19.921875 18.476562 L 19.9375 18.613281 L 19.753906 18.5625 Z M 19.996094 18.285156 L 19.9375 18.40625 L 19.808594 18.269531 Z M 20.15625 18.15625 L 20.042969 18.230469 L 20.003906 18.046875 Z M 20.285156 17.953125 L 20.363281 18.125 L 20.222656 18.132812 Z M 19.25 19.449219 C 19.226562 19.449219 19.210938 19.445312 19.191406 19.433594 C 19.191406 19.433594 19.191406 19.433594 19.195312 19.433594 C 19.273438 19.433594 19.335938 19.371094 19.335938 19.292969 C 19.335938 19.257812 19.324219 19.230469 19.304688 19.203125 C 19.347656 19.226562 19.378906 19.269531 19.378906 19.320312 C 19.378906 19.390625 19.320312 19.449219 19.25 19.449219 M 19.078125 19.292969 C 19.078125 19.230469 19.128906 19.175781 19.195312 19.175781 C 19.257812 19.175781 19.308594 19.230469 19.308594 19.292969 C 19.308594 19.355469 19.257812 19.40625 19.195312 19.40625 C 19.128906 19.40625 19.078125 19.355469 19.078125 19.292969 M 18.148438 19.253906 C 18.125 19.253906 18.105469 19.25 18.089844 19.238281 C 18.171875 19.238281 18.234375 19.175781 18.234375 19.097656 C 18.234375 19.0625 18.222656 19.035156 18.203125 19.007812 C 18.246094 19.03125 18.273438 19.074219 18.273438 19.125 C 18.273438 19.195312 18.21875 19.253906 18.148438 19.253906 M 17.976562 19.097656 C 17.976562 19.035156 18.027344 18.980469 18.089844 18.980469 C 18.15625 18.980469 18.207031 19.035156 18.207031 19.097656 C 18.207031 19.160156 18.15625 19.210938 18.089844 19.210938 C 18.027344 19.210938 17.976562 19.160156 17.976562 19.097656 M 17.546875 18.265625 C 17.527344 18.265625 17.507812 18.261719 17.492188 18.253906 C 17.570312 18.253906 17.636719 18.1875 17.636719 18.109375 C 17.636719 18.078125 17.625 18.046875 17.605469 18.023438 C 17.648438 18.042969 17.675781 18.085938 17.675781 18.136719 C 17.675781 18.207031 17.621094 18.265625 17.546875 18.265625 M 17.378906 18.109375 C 17.378906 18.046875 17.429688 17.996094 17.492188 17.996094 C 17.554688 17.996094 17.609375 18.046875 17.609375 18.109375 C 17.609375 18.171875 17.554688 18.226562 17.492188 18.226562 C 17.429688 18.226562 17.378906 18.171875 17.378906 18.109375 M 16.882812 19.253906 C 16.863281 19.253906 16.84375 19.25 16.824219 19.238281 C 16.828125 19.238281 16.828125 19.238281 16.828125 19.238281 C 16.90625 19.238281 16.972656 19.175781 16.972656 19.097656 C 16.972656 19.0625 16.960938 19.035156 16.941406 19.007812 C 16.984375 19.03125 17.011719 19.074219 17.011719 19.125 C 17.011719 19.195312 16.953125 19.253906 16.882812 19.253906 M 16.714844 19.097656 C 16.714844 19.035156 16.765625 18.980469 16.828125 18.980469 C 16.890625 18.980469 16.945312 19.035156 16.945312 19.097656 C 16.945312 19.160156 16.890625 19.210938 16.828125 19.210938 C 16.765625 19.210938 16.714844 19.160156 16.714844 19.097656 M 15.78125 19.449219 C 15.761719 19.449219 15.742188 19.445312 15.726562 19.433594 C 15.808594 19.433594 15.871094 19.371094 15.871094 19.292969 C 15.871094 19.257812 15.859375 19.230469 15.839844 19.203125 C 15.882812 19.226562 15.914062 19.269531 15.914062 19.320312 C 15.914062 19.390625 15.855469 19.449219 15.78125 19.449219 M 15.613281 19.292969 C 15.613281 19.230469 15.664062 19.175781 15.726562 19.175781 C 15.792969 19.175781 15.84375 19.230469 15.84375 19.292969 C 15.84375 19.355469 15.792969 19.40625 15.726562 19.40625 C 15.664062 19.40625 15.613281 19.355469 15.613281 19.292969 M 15.066406 18.613281 L 15.078125 18.476562 L 15.246094 18.5625 Z M 14.972656 18.78125 L 15.046875 18.664062 L 15.15625 18.816406 Z M 15.003906 18.285156 L 15.191406 18.269531 L 15.0625 18.40625 Z M 14.957031 18.230469 L 14.84375 18.15625 L 14.996094 18.046875 Z M 14.636719 18.125 L 14.714844 17.953125 L 14.777344 18.132812 Z M 14.777344 18.890625 L 14.90625 18.835938 L 14.910156 19.027344 Z M 20.097656 18.835938 L 20.222656 18.890625 L 20.089844 19.027344 Z M 20.261719 18.851562 C 20.109375 18.828125 19.988281 18.683594 19.988281 18.511719 C 19.988281 18.324219 20.132812 18.171875 20.308594 18.171875 C 20.335938 18.171875 20.355469 18.171875 20.378906 18.175781 L 20.597656 16.902344 L 19.640625 18.179688 C 19.664062 18.789062 19.511719 19.039062 19.511719 19.039062 C 19.511719 19.039062 19.191406 18.910156 18.835938 18.835938 L 18.710938 18.21875 C 18.65625 18.21875 18.605469 18.199219 18.566406 18.171875 C 18.5625 18.171875 18.5625 18.171875 18.558594 18.171875 L 18.246094 18.742188 C 18.246094 18.742188 17.851562 18.703125 17.652344 18.703125 L 17.828125 18.15625 L 17.5 17.304688 L 17.171875 18.15625 L 17.347656 18.703125 C 17.148438 18.703125 16.753906 18.742188 16.753906 18.742188 L 16.464844 18.210938 C 16.445312 18.214844 16.425781 18.21875 16.40625 18.21875 C 16.367188 18.21875 16.328125 18.210938 16.292969 18.191406 L 16.164062 18.835938 C 15.808594 18.910156 15.488281 19.039062 15.488281 19.039062 C 15.488281 19.039062 15.335938 18.789062 15.355469 18.179688 L 14.402344 16.902344 L 14.621094 18.175781 C 14.644531 18.171875 14.667969 18.171875 14.6875 18.171875 C 14.867188 18.171875 15.011719 18.324219 15.011719 18.511719 C 15.011719 18.683594 14.890625 18.828125 14.738281 18.851562 L 14.925781 19.957031 C 15.230469 19.839844 16.242188 19.492188 17.5 19.492188 C 18.757812 19.492188 19.773438 19.839844 20.070312 19.957031 Z M 20.261719 18.851562 "/>
<path style=" stroke:none;fill-rule:nonzero;fill:rgb(0%,0%,0%);fill-opacity:1;" d="M 14.074219 16.335938 L 14.214844 16.277344 C 14.214844 16.277344 14.769531 17.015625 14.871094 17.152344 C 15.097656 16.875 15.53125 16.53125 16.117188 16.335938 C 16.070312 16.222656 15.859375 15.707031 15.859375 15.707031 C 15.859375 15.707031 16.183594 15.839844 16.324219 15.894531 C 16.308594 15.867188 16.296875 15.835938 16.296875 15.835938 C 16.296875 15.835938 16.796875 15.863281 16.875 15.867188 C 16.914062 15.796875 17.1875 15.3125 17.226562 15.25 C 17.191406 15.191406 17.089844 15.011719 17.078125 14.992188 C 17.058594 14.976562 16.933594 14.867188 16.933594 14.867188 L 17.097656 14.550781 L 17.453125 14.574219 C 17.453125 14.574219 17.457031 14.742188 17.460938 14.773438 L 17.5 14.839844 L 17.539062 14.773438 C 17.542969 14.742188 17.546875 14.574219 17.546875 14.574219 L 17.902344 14.550781 L 18.066406 14.867188 C 18.066406 14.867188 17.941406 14.976562 17.921875 14.992188 C 17.910156 15.011719 17.808594 15.191406 17.773438 15.25 C 17.8125 15.3125 18.085938 15.796875 18.125 15.867188 C 18.203125 15.863281 18.703125 15.835938 18.703125 15.835938 C 18.703125 15.835938 18.691406 15.867188 18.675781 15.894531 C 18.816406 15.839844 19.144531 15.707031 19.144531 15.707031 C 19.144531 15.707031 18.929688 16.222656 18.882812 16.335938 C 19.46875 16.53125 19.902344 16.875 20.128906 17.152344 C 20.234375 17.015625 20.785156 16.277344 20.785156 16.277344 L 20.925781 16.335938 L 20.25 20.222656 C 20.25 20.222656 19.285156 20.46875 17.5 20.46875 C 15.71875 20.46875 14.753906 20.222656 14.753906 20.222656 Z M 26.640625 16.785156 L 26.640625 13.875 L 8.359375 13.875 L 8.359375 16.785156 L 17.5 23.390625 Z M 26.640625 16.785156 "/>
<path style=" stroke:none;fill-rule:nonzero;fill:rgb(0%,0%,0%);fill-opacity:1;" d="M 26.09375 9.714844 L 24.402344 9.714844 L 24.402344 7.171875 L 19.308594 7.171875 L 19.308594 9.714844 L 17.617188 9.714844 C 17.617188 9.714844 18.203125 8.816406 18.203125 6.300781 C 18.203125 3.785156 17.617188 2.886719 17.617188 2.886719 L 26.09375 2.886719 C 26.09375 2.886719 25.507812 3.785156 25.507812 6.300781 C 25.507812 8.816406 26.09375 9.714844 26.09375 9.714844 M 16.34375 9.714844 L 8.90625 9.714844 C 8.90625 9.714844 9.492188 8.816406 9.492188 6.300781 C 9.492188 3.785156 8.90625 2.886719 8.90625 2.886719 L 11.183594 2.886719 C 11.183594 2.886719 10.597656 3.785156 10.597656 6.300781 L 10.597656 8.46875 L 14.125 8.46875 C 16.117188 8.46875 16.964844 7.585938 16.964844 7.585938 C 16.964844 8.871094 16.34375 9.714844 16.34375 9.714844 M 26.640625 1.304688 L 8.359375 1.304688 L 8.359375 11.296875 L 26.640625 11.296875 Z M 26.640625 1.304688 "/>
<path style=" stroke:none;fill-rule:nonzero;fill:rgb(0%,0%,0%);fill-opacity:1;" d="M 19.308594 4.128906 L 24.402344 4.128906 L 24.402344 5.925781 L 19.308594 5.925781 Z M 19.308594 4.128906 "/>
<path style=" stroke:none;fill-rule:nonzero;fill:rgb(0%,0%,0%);fill-opacity:1;" d="M 16.324219 17.679688 C 16.203125 17.679688 16.109375 17.777344 16.109375 17.894531 C 16.109375 18.015625 16.203125 18.113281 16.324219 18.113281 C 16.441406 18.113281 16.539062 18.015625 16.539062 17.894531 C 16.539062 17.777344 16.441406 17.679688 16.324219 17.679688 "/>
<path style=" stroke:none;fill-rule:nonzero;fill:rgb(0%,0%,0%);fill-opacity:1;" d="M 18.632812 17.679688 C 18.515625 17.679688 18.417969 17.777344 18.417969 17.894531 C 18.417969 18.015625 18.515625 18.113281 18.632812 18.113281 C 18.753906 18.113281 18.847656 18.015625 18.847656 17.894531 C 18.847656 17.777344 18.753906 17.679688 18.632812 17.679688 "/>
<path style=" stroke:none;fill-rule:nonzero;fill:rgb(0%,0%,0%);fill-opacity:1;" d="M 14.929688 19.957031 L 14.738281 18.851562 C 14.894531 18.828125 15.011719 18.683594 15.011719 18.511719 C 15.011719 18.324219 14.867188 18.171875 14.6875 18.171875 C 14.664062 18.171875 14.644531 18.171875 14.621094 18.179688 L 14.402344 16.902344 L 15.359375 18.179688 C 15.335938 18.789062 15.488281 19.039062 15.488281 19.039062 C 15.488281 19.039062 15.808594 18.910156 16.164062 18.835938 L 16.292969 18.195312 C 16.328125 18.210938 16.367188 18.21875 16.40625 18.21875 C 16.425781 18.21875 16.445312 18.214844 16.460938 18.210938 L 16.753906 18.742188 C 16.753906 18.742188 17.148438 18.703125 17.347656 18.703125 L 17.171875 18.15625 L 17.5 17.304688 L 17.828125 18.15625 L 17.652344 18.703125 C 17.851562 18.703125 18.246094 18.742188 18.246094 18.742188 L 18.558594 18.171875 C 18.5625 18.171875 18.5625 18.171875 18.566406 18.171875 C 18.605469 18.199219 18.65625 18.21875 18.710938 18.21875 L 18.835938 18.835938 C 19.191406 18.910156 19.511719 19.039062 19.511719 19.039062 C 19.511719 19.039062 19.664062 18.789062 19.640625 18.179688 L 20.597656 16.902344 L 20.378906 18.179688 C 20.355469 18.171875 20.332031 18.171875 20.308594 18.171875 C 20.132812 18.171875 19.988281 18.324219 19.988281 18.511719 C 19.988281 18.683594 20.105469 18.828125 20.261719 18.851562 L 20.074219 19.957031 C 19.769531 19.839844 18.757812 19.492188 17.5 19.492188 C 16.242188 19.492188 15.226562 19.839844 14.929688 19.957031 M 14.722656 18.773438 C 14.84375 18.757812 14.933594 18.644531 14.933594 18.511719 C 14.933594 18.367188 14.824219 18.246094 14.6875 18.246094 C 14.671875 18.246094 14.652344 18.25 14.632812 18.253906 L 14.628906 18.214844 C 14.648438 18.210938 14.667969 18.207031 14.6875 18.207031 C 14.847656 18.207031 14.972656 18.34375 14.972656 18.511719 C 14.972656 18.664062 14.867188 18.792969 14.730469 18.8125 Z M 14.660156 18.410156 C 14.671875 18.410156 14.679688 18.40625 14.6875 18.40625 C 14.742188 18.40625 14.789062 18.453125 14.789062 18.511719 C 14.789062 18.570312 14.75 18.613281 14.695312 18.617188 Z M 16.324219 18.136719 C 16.191406 18.136719 16.082031 18.03125 16.082031 17.894531 C 16.082031 17.761719 16.191406 17.652344 16.324219 17.652344 C 16.457031 17.652344 16.566406 17.761719 16.566406 17.894531 C 16.566406 18.03125 16.457031 18.136719 16.324219 18.136719 M 16.378906 16.582031 L 17.21875 18.632812 C 17.078125 18.636719 16.933594 18.644531 16.796875 18.660156 L 16.535156 18.183594 C 16.617188 18.140625 16.675781 18.050781 16.675781 17.949219 C 16.675781 17.855469 16.625 17.769531 16.546875 17.722656 C 16.496094 17.65625 16.414062 17.613281 16.324219 17.613281 C 16.167969 17.613281 16.039062 17.738281 16.039062 17.894531 C 16.039062 18.015625 16.117188 18.117188 16.222656 18.160156 L 16.097656 18.773438 C 16.015625 18.789062 15.941406 18.808594 15.871094 18.828125 C 15.707031 18.332031 15.628906 17.574219 16.449219 17.152344 C 16.449219 17.152344 15.289062 17.421875 15.644531 18.898438 C 15.601562 18.910156 15.558594 18.925781 15.527344 18.9375 C 15.417969 18.707031 15.433594 18.152344 15.433594 18.152344 L 15.28125 17.949219 C 15.375 17.554688 15.660156 17.152344 16.347656 16.894531 C 16.347656 16.894531 15.546875 16.984375 15.148438 17.769531 L 14.980469 17.546875 C 15.214844 17.125 15.726562 16.773438 16.378906 16.582031 M 16.277344 16.136719 L 17.066406 16.492188 L 17.066406 18.054688 Z M 17.5 15.996094 L 17.851562 16.457031 L 17.5 16.875 L 17.148438 16.457031 Z M 17.929688 16.492188 L 18.71875 16.136719 L 17.929688 18.054688 Z M 18.632812 18.136719 C 18.5 18.136719 18.390625 18.03125 18.390625 17.894531 C 18.390625 17.761719 18.5 17.652344 18.632812 17.652344 C 18.765625 17.652344 18.875 17.761719 18.875 17.894531 C 18.875 18.03125 18.765625 18.136719 18.632812 18.136719 M 20.015625 17.546875 L 19.851562 17.769531 C 19.453125 16.984375 18.652344 16.894531 18.652344 16.894531 C 19.339844 17.152344 19.625 17.554688 19.71875 17.949219 L 19.566406 18.152344 C 19.566406 18.152344 19.582031 18.707031 19.472656 18.9375 C 19.4375 18.925781 19.398438 18.910156 19.355469 18.898438 C 19.710938 17.421875 18.550781 17.152344 18.550781 17.152344 C 19.371094 17.574219 19.292969 18.332031 19.128906 18.828125 C 19.058594 18.808594 18.984375 18.789062 18.902344 18.773438 L 18.789062 18.207031 C 18.902344 18.175781 18.984375 18.074219 18.984375 17.949219 C 18.984375 17.855469 18.933594 17.769531 18.859375 17.722656 C 18.804688 17.65625 18.726562 17.613281 18.632812 17.613281 C 18.476562 17.613281 18.347656 17.738281 18.347656 17.894531 C 18.347656 18 18.40625 18.089844 18.488281 18.140625 L 18.203125 18.660156 C 18.066406 18.644531 17.925781 18.636719 17.78125 18.632812 L 18.621094 16.582031 C 19.273438 16.773438 19.785156 17.125 20.015625 17.546875 M 20.363281 18.253906 C 20.347656 18.25 20.328125 18.25 20.308594 18.25 C 20.175781 18.25 20.066406 18.367188 20.066406 18.511719 C 20.066406 18.644531 20.15625 18.757812 20.273438 18.773438 L 20.269531 18.8125 C 20.132812 18.792969 20.027344 18.664062 20.027344 18.511719 C 20.027344 18.34375 20.152344 18.207031 20.308594 18.207031 C 20.332031 18.207031 20.351562 18.210938 20.371094 18.214844 Z M 20.300781 18.617188 C 20.25 18.613281 20.210938 18.570312 20.210938 18.511719 C 20.210938 18.453125 20.253906 18.40625 20.3125 18.40625 C 20.320312 18.40625 20.328125 18.410156 20.339844 18.410156 Z M 19.027344 19.730469 C 18.550781 19.90625 17.851562 19.980469 17.851562 19.980469 C 18.324219 19.980469 18.835938 19.925781 19.195312 19.875 C 18.71875 20.054688 18 20.128906 18 20.128906 C 18.53125 20.128906 19.113281 20.058594 19.46875 20.007812 C 18.945312 20.210938 18.0625 20.292969 18.0625 20.292969 C 19.363281 20.257812 20.132812 20.0625 20.132812 20.0625 L 20.730469 16.597656 L 20.125 17.40625 C 19.859375 16.972656 19.34375 16.625 18.683594 16.429688 L 18.867188 15.984375 L 17.929688 16.40625 L 17.929688 16.175781 L 17.5 15.433594 L 17.066406 16.175781 L 17.066406 16.40625 L 16.132812 15.984375 L 16.316406 16.429688 C 15.65625 16.625 15.140625 16.972656 14.875 17.40625 L 14.269531 16.597656 L 14.867188 20.0625 C 14.867188 20.0625 15.636719 20.257812 16.9375 20.292969 C 16.9375 20.292969 16.054688 20.210938 15.53125 20.007812 C 15.886719 20.058594 16.46875 20.128906 17 20.128906 C 17 20.128906 16.28125 20.054688 15.804688 19.875 C 16.164062 19.925781 16.675781 19.980469 17.148438 19.980469 C 17.148438 19.980469 16.449219 19.90625 15.972656 19.730469 C 16.398438 19.640625 16.921875 19.570312 17.5 19.570312 C 18.078125 19.570312 18.601562 19.640625 19.027344 19.730469 "/>
<path style=" stroke:none;fill-rule:nonzero;fill:rgb(0%,0%,0%);fill-opacity:1;" d="M 17.289062 14.765625 L 17.207031 14.757812 L 17.167969 14.816406 L 17.222656 14.871094 L 17.449219 15.261719 L 16.984375 16.0625 L 16.617188 16.0625 L 16.664062 16.148438 L 17.035156 16.148438 L 17.5 15.347656 L 17.964844 16.148438 L 18.335938 16.148438 L 18.382812 16.0625 L 18.011719 16.0625 L 17.550781 15.261719 L 17.777344 14.871094 L 17.832031 14.816406 L 17.792969 14.757812 L 17.710938 14.765625 L 17.695312 14.835938 L 17.5 15.175781 L 17.304688 14.835938 Z M 17.289062 14.765625 "/>
<path style=" stroke:none;fill-rule:nonzero;fill:rgb(0%,0%,0%);fill-opacity:1;" d="M 16.941406 19.007812 C 16.960938 19.03125 16.972656 19.0625 16.972656 19.097656 C 16.972656 19.175781 16.90625 19.238281 16.828125 19.238281 C 16.828125 19.238281 16.828125 19.238281 16.824219 19.238281 C 16.84375 19.246094 16.863281 19.253906 16.882812 19.253906 C 16.953125 19.253906 17.011719 19.195312 17.011719 19.125 C 17.011719 19.074219 16.984375 19.03125 16.941406 19.007812 "/>
<path style=" stroke:none;fill-rule:nonzero;fill:rgb(0%,0%,0%);fill-opacity:1;" d="M 15.839844 19.203125 C 15.859375 19.230469 15.871094 19.257812 15.871094 19.292969 C 15.871094 19.371094 15.808594 19.433594 15.726562 19.433594 C 15.742188 19.445312 15.761719 19.449219 15.78125 19.449219 C 15.855469 19.449219 15.914062 19.390625 15.914062 19.320312 C 15.914062 19.269531 15.882812 19.226562 15.839844 19.203125 "/>
<path style=" stroke:none;fill-rule:nonzero;fill:rgb(0%,0%,0%);fill-opacity:1;" d="M 18.089844 19.238281 C 18.105469 19.246094 18.125 19.253906 18.144531 19.253906 C 18.21875 19.253906 18.273438 19.195312 18.273438 19.125 C 18.273438 19.074219 18.246094 19.03125 18.203125 19.007812 C 18.222656 19.03125 18.234375 19.0625 18.234375 19.097656 C 18.234375 19.175781 18.171875 19.238281 18.089844 19.238281 "/>
<path style=" stroke:none;fill-rule:nonzero;fill:rgb(0%,0%,0%);fill-opacity:1;" d="M 19.195312 19.433594 C 19.191406 19.433594 19.191406 19.433594 19.191406 19.433594 C 19.207031 19.445312 19.226562 19.449219 19.25 19.449219 C 19.320312 19.449219 19.378906 19.390625 19.378906 19.320312 C 19.378906 19.269531 19.347656 19.226562 19.304688 19.203125 C 19.324219 19.230469 19.335938 19.257812 19.335938 19.292969 C 19.335938 19.371094 19.273438 19.433594 19.195312 19.433594 "/>
<path style=" stroke:none;fill-rule:nonzero;fill:rgb(0%,0%,0%);fill-opacity:1;" d="M 17.675781 18.136719 C 17.675781 18.085938 17.648438 18.042969 17.605469 18.023438 C 17.625 18.046875 17.636719 18.078125 17.636719 18.109375 C 17.636719 18.1875 17.570312 18.253906 17.492188 18.253906 C 17.507812 18.261719 17.527344 18.265625 17.546875 18.265625 C 17.617188 18.265625 17.675781 18.207031 17.675781 18.136719 "/>
<path style=" stroke:none;fill-rule:nonzero;fill:rgb(0%,0%,0%);fill-opacity:1;" d="M 16.945312 19.097656 C 16.945312 19.035156 16.890625 18.980469 16.828125 18.980469 C 16.765625 18.980469 16.714844 19.035156 16.714844 19.097656 C 16.714844 19.160156 16.765625 19.210938 16.828125 19.210938 C 16.890625 19.210938 16.945312 19.160156 16.945312 19.097656 "/>
<path style=" stroke:none;fill-rule:nonzero;fill:rgb(0%,0%,0%);fill-opacity:1;" d="M 15.84375 19.292969 C 15.84375 19.230469 15.792969 19.175781 15.726562 19.175781 C 15.664062 19.175781 15.613281 19.230469 15.613281 19.292969 C 15.613281 19.355469 15.664062 19.40625 15.726562 19.40625 C 15.792969 19.40625 15.84375 19.355469 15.84375 19.292969 "/>
<path style=" stroke:none;fill-rule:nonzero;fill:rgb(0%,0%,0%);fill-opacity:1;" d="M 18.089844 19.210938 C 18.15625 19.210938 18.207031 19.160156 18.207031 19.097656 C 18.207031 19.03125 18.15625 18.980469 18.089844 18.980469 C 18.027344 18.980469 17.976562 19.03125 17.976562 19.097656 C 17.976562 19.160156 18.027344 19.210938 18.089844 19.210938 "/>
<path style=" stroke:none;fill-rule:nonzero;fill:rgb(0%,0%,0%);fill-opacity:1;" d="M 19.195312 19.40625 C 19.257812 19.40625 19.308594 19.355469 19.308594 19.292969 C 19.308594 19.230469 19.257812 19.175781 19.195312 19.175781 C 19.128906 19.175781 19.078125 19.230469 19.078125 19.292969 C 19.078125 19.355469 19.128906 19.40625 19.195312 19.40625 "/>
<path style=" stroke:none;fill-rule:nonzero;fill:rgb(0%,0%,0%);fill-opacity:1;" d="M 17.609375 18.109375 C 17.609375 18.046875 17.554688 17.996094 17.492188 17.996094 C 17.429688 17.996094 17.378906 18.046875 17.378906 18.109375 C 17.378906 18.171875 17.429688 18.226562 17.492188 18.226562 C 17.554688 18.226562 17.609375 18.171875 17.609375 18.109375 "/>
<path style=" stroke:none;fill-rule:nonzero;fill:rgb(0%,0%,0%);fill-opacity:1;" d="M 14.636719 18.125 L 14.777344 18.132812 L 14.714844 17.953125 Z M 14.636719 18.125 "/>
<path style=" stroke:none;fill-rule:nonzero;fill:rgb(0%,0%,0%);fill-opacity:1;" d="M 14.84375 18.15625 L 14.957031 18.230469 L 14.996094 18.046875 Z M 14.84375 18.15625 "/>
<path style=" stroke:none;fill-rule:nonzero;fill:rgb(0%,0%,0%);fill-opacity:1;" d="M 15.003906 18.285156 L 15.0625 18.410156 L 15.191406 18.269531 Z M 15.003906 18.285156 "/>
<path style=" stroke:none;fill-rule:nonzero;fill:rgb(0%,0%,0%);fill-opacity:1;" d="M 15.0625 18.617188 L 15.246094 18.5625 L 15.078125 18.476562 Z M 15.0625 18.617188 "/>
<path style=" stroke:none;fill-rule:nonzero;fill:rgb(0%,0%,0%);fill-opacity:1;" d="M 14.972656 18.78125 L 15.15625 18.816406 L 15.046875 18.664062 Z M 14.972656 18.78125 "/>
<path style=" stroke:none;fill-rule:nonzero;fill:rgb(0%,0%,0%);fill-opacity:1;" d="M 14.777344 18.890625 L 14.910156 19.027344 L 14.902344 18.835938 Z M 14.777344 18.890625 "/>
<path style=" stroke:none;fill-rule:nonzero;fill:rgb(0%,0%,0%);fill-opacity:1;" d="M 20.222656 18.132812 L 20.363281 18.125 L 20.285156 17.953125 Z M 20.222656 18.132812 "/>
<path style=" stroke:none;fill-rule:nonzero;fill:rgb(0%,0%,0%);fill-opacity:1;" d="M 20.042969 18.230469 L 20.15625 18.15625 L 20.003906 18.046875 Z M 20.042969 18.230469 "/>
<path style=" stroke:none;fill-rule:nonzero;fill:rgb(0%,0%,0%);fill-opacity:1;" d="M 19.9375 18.40625 L 19.996094 18.285156 L 19.808594 18.269531 Z M 19.9375 18.40625 "/>
<path style=" stroke:none;fill-rule:nonzero;fill:rgb(0%,0%,0%);fill-opacity:1;" d="M 19.753906 18.5625 L 19.9375 18.617188 L 19.925781 18.476562 Z M 19.753906 18.5625 "/>
<path style=" stroke:none;fill-rule:nonzero;fill:rgb(0%,0%,0%);fill-opacity:1;" d="M 19.84375 18.820312 L 20.027344 18.78125 L 19.953125 18.664062 Z M 19.84375 18.820312 "/>
<path style=" stroke:none;fill-rule:nonzero;fill:rgb(0%,0%,0%);fill-opacity:1;" d="M 20.089844 19.027344 L 20.222656 18.890625 L 20.097656 18.835938 Z M 20.089844 19.027344 "/>
<path style=" stroke:none;fill-rule:nonzero;fill:rgb(0%,0%,0%);fill-opacity:1;" d="M 17.375 16.441406 C 17.375 16.375 17.429688 16.316406 17.5 16.316406 C 17.570312 16.316406 17.625 16.375 17.625 16.441406 C 17.625 16.511719 17.570312 16.570312 17.5 16.570312 C 17.429688 16.570312 17.375 16.511719 17.375 16.441406 M 17.648438 16.441406 C 17.648438 16.363281 17.582031 16.296875 17.5 16.296875 C 17.417969 16.296875 17.351562 16.359375 17.351562 16.441406 C 17.351562 16.523438 17.417969 16.589844 17.5 16.589844 C 17.582031 16.589844 17.648438 16.523438 17.648438 16.441406 "/>
<path style=" stroke:none;fill-rule:nonzero;fill:rgb(0%,0%,0%);fill-opacity:1;" d="M 18.179688 16.8125 C 18.109375 16.8125 18.054688 16.753906 18.054688 16.6875 C 18.054688 16.617188 18.109375 16.558594 18.179688 16.558594 C 18.25 16.558594 18.308594 16.617188 18.308594 16.6875 C 18.308594 16.753906 18.25 16.8125 18.179688 16.8125 M 18.296875 16.597656 C 18.269531 16.5625 18.226562 16.539062 18.179688 16.539062 C 18.097656 16.539062 18.03125 16.605469 18.03125 16.6875 C 18.03125 16.753906 18.082031 16.8125 18.144531 16.828125 C 18.167969 16.84375 18.195312 16.851562 18.222656 16.851562 C 18.300781 16.851562 18.363281 16.789062 18.363281 16.714844 C 18.363281 16.664062 18.335938 16.621094 18.296875 16.597656 "/>
<path style=" stroke:none;fill-rule:nonzero;fill:rgb(0%,0%,0%);fill-opacity:1;" d="M 16.753906 16.8125 C 16.683594 16.8125 16.628906 16.753906 16.628906 16.6875 C 16.628906 16.617188 16.683594 16.558594 16.753906 16.558594 C 16.824219 16.558594 16.878906 16.617188 16.878906 16.6875 C 16.878906 16.753906 16.824219 16.8125 16.753906 16.8125 M 16.871094 16.597656 C 16.84375 16.5625 16.800781 16.539062 16.753906 16.539062 C 16.671875 16.539062 16.605469 16.605469 16.605469 16.6875 C 16.605469 16.753906 16.65625 16.8125 16.71875 16.828125 C 16.742188 16.84375 16.769531 16.851562 16.796875 16.851562 C 16.875 16.851562 16.9375 16.789062 16.9375 16.714844 C 16.9375 16.664062 16.910156 16.621094 16.871094 16.597656 "/>
<path style=" stroke:none;fill-rule:nonzero;fill:rgb(0%,0%,0%);fill-opacity:1;" d="M 17.613281 16.441406 C 17.613281 16.382812 17.5625 16.332031 17.5 16.332031 C 17.4375 16.332031 17.386719 16.382812 17.386719 16.441406 C 17.386719 16.503906 17.4375 16.554688 17.5 16.554688 C 17.5625 16.554688 17.613281 16.503906 17.613281 16.441406 "/>
<path style=" stroke:none;fill-rule:nonzero;fill:rgb(0%,0%,0%);fill-opacity:1;" d="M 18.179688 16.574219 C 18.117188 16.574219 18.070312 16.625 18.070312 16.6875 C 18.070312 16.746094 18.117188 16.796875 18.179688 16.796875 C 18.242188 16.796875 18.292969 16.746094 18.292969 16.6875 C 18.292969 16.625 18.242188 16.574219 18.179688 16.574219 "/>
<path style=" stroke:none;fill-rule:nonzero;fill:rgb(0%,0%,0%);fill-opacity:1;" d="M 16.753906 16.574219 C 16.691406 16.574219 16.644531 16.625 16.644531 16.6875 C 16.644531 16.746094 16.691406 16.796875 16.753906 16.796875 C 16.816406 16.796875 16.867188 16.746094 16.867188 16.6875 C 16.867188 16.625 16.816406 16.574219 16.753906 16.574219 "/>
</g>
</svg>
