<?xml version="1.0" encoding="UTF-8"?>
<svg xmlns="http://www.w3.org/2000/svg" xmlns:xlink="http://www.w3.org/1999/xlink" width="31pt" height="20pt" viewBox="0 0 31 20" version="1.1">
<g id="surface1">
<path style=" stroke:none;fill-rule:nonzero;fill:rgb(93.333333%,89.019608%,77.647059%);fill-opacity:1;" d="M 17.648438 19.875 L 26.035156 11.664062 L 24.257812 11.660156 L 30.863281 4.648438 C 30.863281 4.648438 29.328125 4.191406 28.824219 4.105469 L 29.882812 3.269531 C 28.125 2.820312 24.492188 2.246094 20.632812 2.5 C 20.632812 2.5 19.8125 0.125 16.632812 0.125 C 13.003906 0.125 12.136719 2.910156 12.136719 2.910156 C 12.136719 2.910156 7.777344 3.8125 3.792969 6.386719 L 4.652344 7.035156 C 4.652344 7.035156 2.859375 7.953125 0.136719 10.101562 C 0.433594 11.320312 1.621094 12.890625 1.738281 13.03125 C 2.207031 13.351562 3.828125 14.207031 5.078125 14.636719 C 5.304688 14.578125 5.757812 14.390625 5.757812 14.390625 C 5.902344 14.449219 6.578125 14.632812 6.765625 14.65625 C 6.632812 15.457031 7.222656 15.90625 7.222656 15.90625 L 6.8125 16.132812 C 6.8125 16.132812 7.371094 17.382812 10.101562 18.027344 C 16.28125 16.660156 17.648438 19.875 17.648438 19.875 "/>
<path style=" stroke:none;fill-rule:nonzero;fill:rgb(0.392157%,34.509804%,21.176471%);fill-opacity:1;" d="M 0.769531 10.308594 C 1.058594 11.078125 1.589844 11.941406 2.101562 12.632812 C 2.257812 12.773438 3.84375 13.597656 5.09375 14.070312 C 5.226562 14.050781 5.636719 13.863281 5.710938 13.820312 C 5.78125 13.820312 6.699219 14.226562 7.878906 14.226562 C 8.300781 14.226562 8.621094 14.183594 8.621094 14.09375 C 8.621094 14.023438 8.449219 13.933594 8.367188 13.898438 C 8.125 13.789062 7.808594 13.699219 7.808594 13.441406 C 7.808594 13.179688 8.28125 12.835938 10.441406 12.835938 C 11.796875 12.835938 12.691406 12.910156 12.691406 12.910156 L 12.691406 13.0625 C 11.996094 13.0625 11.277344 13.164062 10.796875 13.28125 C 10.488281 13.359375 10.011719 13.496094 10.011719 13.648438 C 10.011719 13.929688 11.253906 13.929688 11.253906 14.484375 C 11.253906 14.933594 10.792969 15.425781 9.078125 15.425781 C 8.152344 15.425781 7.402344 15.125 7.339844 15.125 C 7.277344 15.125 7.261719 15.148438 7.261719 15.167969 C 7.261719 15.199219 7.316406 15.304688 7.414062 15.433594 C 7.546875 15.613281 7.777344 15.84375 8.191406 15.992188 L 7.636719 16.304688 C 8.265625 16.945312 9.789062 17.382812 10.105469 17.472656 C 10.105469 17.472656 15.332031 16.109375 17.753906 19.058594 L 24.390625 12.195312 L 22.820312 12.1875 L 29.121094 5.046875 C 29.121094 5.046875 27.917969 4.613281 26.699219 4.375 L 27.527344 3.734375 C 27.527344 3.734375 23.339844 2.863281 19.933594 3.136719 C 19.933594 3.136719 19.296875 0.75 16.320312 0.75 C 13.441406 0.75 12.511719 3.390625 12.511719 3.390625 C 12.511719 3.390625 9.089844 3.945312 4.761719 6.433594 L 5.683594 7.140625 C 5.683594 7.140625 3.695312 8.0625 0.769531 10.308594 "/>
<path style=" stroke:none;fill-rule:nonzero;fill:rgb(74.901961%,16.862745%,21.568627%);fill-opacity:1;" d="M 4.089844 12.164062 C 4.089844 12.164062 4.664062 12.339844 6.195312 12.242188 L 7.953125 11.167969 L 9.296875 11.601562 L 9.707031 11.03125 L 9.261719 11.03125 L 10.160156 9.589844 L 10.917969 11.03125 L 10.574219 11.03125 L 10.804688 11.53125 L 11.765625 11.355469 L 12.164062 10.847656 L 11.808594 10.847656 L 12.34375 10.03125 L 11.925781 10.03125 L 12.769531 8.59375 L 13.503906 10.066406 L 13.171875 10.066406 L 13.6875 10.9375 L 13.285156 10.9375 L 14.078125 12.367188 L 14.851562 11.269531 L 14.324219 11.269531 L 15.128906 10.054688 L 14.617188 10.054688 L 15.785156 8.039062 L 16.796875 10.054688 L 16.378906 10.054688 L 17.058594 11.269531 L 16.582031 11.269531 L 17.25 12.734375 L 18.394531 10.898438 L 17.765625 10.898438 L 18.6875 9.378906 L 18.109375 9.378906 L 19.367188 6.875 L 20.664062 9.515625 L 20.207031 9.515625 L 21.039062 10.902344 L 20.464844 10.902344 L 21.121094 12.257812 L 22.160156 10.671875 L 21.605469 10.671875 L 22.820312 8.917969 L 22.164062 8.917969 L 24.117188 6.242188 L 25.164062 8.09375 L 27.332031 5.421875 C 27.332031 5.421875 23.550781 3.839844 17.96875 3.839844 C 10.558594 3.839844 6.359375 6.433594 6.359375 6.433594 C 6.359375 6.433594 11.222656 4.746094 16.5625 4.746094 C 20.460938 4.746094 22.777344 5.628906 22.777344 5.628906 C 22.777344 5.628906 17.785156 5.605469 9.765625 7.765625 C 11.066406 7.765625 11.847656 8.140625 11.847656 8.140625 C 11.847656 8.140625 8.59375 8.71875 4.035156 10.664062 L 4.621094 11.523438 Z M 4.089844 12.164062 "/>
<path style=" stroke:none;fill-rule:nonzero;fill:rgb(93.72549%,70.588235%,6.27451%);fill-opacity:1;" d="M 14.429688 6.667969 C 14.925781 7.09375 15.574219 7.351562 16.28125 7.351562 C 17.324219 7.351562 18.238281 6.792969 18.730469 5.953125 C 17.53125 6.109375 16.085938 6.335938 14.429688 6.667969 "/>
<path style=" stroke:none;fill-rule:nonzero;fill:rgb(93.72549%,70.588235%,6.27451%);fill-opacity:1;" d="M 13.464844 4.175781 C 13.453125 4.289062 13.445312 4.40625 13.445312 4.527344 C 13.445312 4.660156 13.453125 4.789062 13.472656 4.917969 C 14.460938 4.8125 15.503906 4.746094 16.5625 4.746094 C 17.503906 4.746094 18.351562 4.796875 19.097656 4.875 C 19.109375 4.761719 19.117188 4.644531 19.117188 4.527344 C 19.117188 4.296875 19.089844 4.074219 19.039062 3.859375 C 18.691406 3.847656 18.332031 3.839844 17.96875 3.839844 C 16.300781 3.839844 14.796875 3.972656 13.464844 4.175781 "/>
<path style=" stroke:none;fill-rule:nonzero;fill:rgb(93.72549%,70.588235%,6.27451%);fill-opacity:1;" d="M 18.765625 3.164062 C 18.28125 2.289062 17.351562 1.699219 16.28125 1.699219 C 14.835938 1.699219 13.640625 2.78125 13.464844 4.175781 C 14.730469 3.710938 16.828125 3.3125 18.765625 3.164062 "/>
<path style=" stroke:none;fill-rule:nonzero;fill:rgb(100%,100%,100%);fill-opacity:1;" d="M 16.550781 5.570312 C 15.347656 5.605469 13.140625 5.714844 9.5625 6.597656 C 9.5625 6.597656 9.558594 6.597656 9.558594 6.597656 C 9.515625 6.324219 9.480469 6.105469 9.480469 6.105469 C 9.480469 6.105469 9.335938 6.34375 9.152344 6.671875 C 8.246094 6.996094 7.125 7.46875 6.378906 7.867188 C 6.835938 7.707031 7.742188 7.410156 8.9375 7.074219 C 8.8125 7.3125 8.691406 7.570312 8.59375 7.804688 L 9.21875 7.246094 C 9.21875 7.246094 9.648438 7.492188 9.667969 7.484375 C 9.660156 7.335938 9.636719 7.148438 9.609375 6.957031 C 11.535156 6.441406 14.007812 5.863281 16.550781 5.570312 "/>
</g>
</svg>
