<?xml version="1.0" encoding="UTF-8"?>
<svg xmlns="http://www.w3.org/2000/svg" xmlns:xlink="http://www.w3.org/1999/xlink" width="28pt" height="20pt" viewBox="0 0 28 20" version="1.1">
<g id="surface1">
<path style=" stroke:none;fill-rule:nonzero;fill:rgb(93.333333%,89.019608%,77.647059%);fill-opacity:1;" d="M 15.957031 19.035156 L 23.601562 11.523438 L 21.980469 11.515625 L 28 5.105469 C 28 5.105469 26.597656 4.6875 26.144531 4.609375 L 27.105469 3.84375 C 25.503906 3.433594 22.195312 2.90625 18.679688 3.136719 C 18.679688 3.136719 17.929688 0.964844 15.03125 0.964844 C 11.726562 0.964844 10.933594 3.515625 10.933594 3.515625 C 10.933594 3.515625 6.964844 4.339844 3.332031 6.695312 L 4.117188 7.289062 C 4.117188 7.289062 2.480469 8.128906 0 10.09375 C 0.269531 11.207031 1.351562 12.644531 1.460938 12.773438 C 1.886719 13.066406 3.363281 13.847656 4.503906 14.238281 C 4.710938 14.1875 5.121094 14.015625 5.121094 14.015625 C 5.253906 14.070312 5.871094 14.238281 6.039062 14.257812 C 5.917969 14.988281 6.457031 15.402344 6.457031 15.402344 L 6.085938 15.609375 C 6.085938 15.609375 6.59375 16.753906 9.082031 17.34375 C 14.710938 16.09375 15.957031 19.035156 15.957031 19.035156 "/>
<path style=" stroke:none;fill-rule:nonzero;fill:rgb(0.392157%,34.509804%,21.176471%);fill-opacity:1;" d="M 0.578125 10.285156 C 0.839844 10.984375 1.324219 11.773438 1.789062 12.410156 C 1.933594 12.539062 3.378906 13.292969 4.515625 13.722656 C 4.636719 13.707031 5.011719 13.535156 5.078125 13.492188 C 5.144531 13.492188 5.980469 13.863281 7.058594 13.863281 C 7.4375 13.863281 7.734375 13.824219 7.734375 13.746094 C 7.734375 13.679688 7.574219 13.597656 7.5 13.566406 C 7.28125 13.46875 6.988281 13.382812 6.988281 13.144531 C 6.988281 12.910156 7.421875 12.59375 9.390625 12.59375 C 10.628906 12.59375 11.441406 12.664062 11.441406 12.664062 L 11.441406 12.800781 C 10.808594 12.800781 10.152344 12.894531 9.714844 13.003906 C 9.433594 13.070312 9 13.199219 9 13.339844 C 9 13.59375 10.132812 13.59375 10.132812 14.101562 C 10.132812 14.511719 9.710938 14.964844 8.148438 14.964844 C 7.304688 14.964844 6.621094 14.6875 6.5625 14.6875 C 6.507812 14.6875 6.496094 14.707031 6.496094 14.726562 C 6.496094 14.757812 6.542969 14.851562 6.628906 14.96875 C 6.753906 15.136719 6.964844 15.34375 7.339844 15.480469 L 6.835938 15.765625 C 7.40625 16.351562 8.796875 16.753906 9.082031 16.835938 C 9.082031 16.835938 13.847656 15.585938 16.054688 18.285156 L 22.101562 12.007812 L 20.671875 12 L 26.414062 5.472656 C 26.414062 5.472656 25.316406 5.074219 24.207031 4.855469 L 24.960938 4.269531 C 24.960938 4.269531 21.144531 3.472656 18.039062 3.722656 C 18.039062 3.722656 17.460938 1.539062 14.75 1.539062 C 12.125 1.539062 11.277344 3.953125 11.277344 3.953125 C 11.277344 3.953125 8.160156 4.460938 4.214844 6.738281 L 5.054688 7.382812 C 5.054688 7.382812 3.242188 8.230469 0.578125 10.285156 "/>
<path style=" stroke:none;fill-rule:nonzero;fill:rgb(74.901961%,16.862745%,21.568627%);fill-opacity:1;" d="M 3.601562 11.980469 C 3.601562 11.980469 4.125 12.140625 5.523438 12.050781 L 7.121094 11.066406 L 8.347656 11.464844 L 8.71875 10.941406 L 8.316406 10.941406 L 9.132812 9.625 L 9.824219 10.941406 L 9.511719 10.941406 L 9.722656 11.398438 L 10.597656 11.242188 L 10.960938 10.777344 L 10.632812 10.777344 L 11.121094 10.03125 L 10.742188 10.03125 L 11.511719 8.714844 L 12.183594 10.0625 L 11.875 10.0625 L 12.347656 10.859375 L 11.980469 10.859375 L 12.707031 12.167969 L 13.40625 11.160156 L 12.929688 11.160156 L 13.660156 10.050781 L 13.195312 10.050781 L 14.257812 8.203125 L 15.183594 10.050781 L 14.800781 10.050781 L 15.417969 11.160156 L 14.988281 11.160156 L 15.59375 12.503906 L 16.636719 10.820312 L 16.066406 10.820312 L 16.90625 9.433594 L 16.378906 9.433594 L 17.523438 7.140625 L 18.707031 9.554688 L 18.289062 9.554688 L 19.046875 10.824219 L 18.527344 10.824219 L 19.125 12.0625 L 20.066406 10.613281 L 19.5625 10.613281 L 20.671875 9.007812 L 20.074219 9.007812 L 21.851562 6.5625 L 22.808594 8.257812 L 24.78125 5.8125 C 24.78125 5.8125 21.335938 4.367188 16.25 4.367188 C 9.496094 4.367188 5.667969 6.738281 5.667969 6.738281 C 5.667969 6.738281 10.101562 5.195312 14.96875 5.195312 C 18.519531 5.195312 20.628906 6.003906 20.628906 6.003906 C 20.628906 6.003906 16.082031 5.980469 8.773438 7.957031 C 9.960938 7.957031 10.671875 8.300781 10.671875 8.300781 C 10.671875 8.300781 7.707031 8.828125 3.554688 10.605469 L 4.085938 11.394531 Z M 3.601562 11.980469 "/>
<path style=" stroke:none;fill-rule:nonzero;fill:rgb(93.72549%,70.588235%,6.27451%);fill-opacity:1;" d="M 13.023438 6.953125 C 13.476562 7.34375 14.066406 7.578125 14.710938 7.578125 C 15.664062 7.578125 16.496094 7.066406 16.941406 6.300781 C 15.851562 6.441406 14.535156 6.648438 13.023438 6.953125 "/>
<path style=" stroke:none;fill-rule:nonzero;fill:rgb(93.72549%,70.588235%,6.27451%);fill-opacity:1;" d="M 12.148438 4.671875 C 12.132812 4.777344 12.128906 4.886719 12.128906 4.996094 C 12.128906 5.117188 12.136719 5.234375 12.152344 5.351562 C 13.050781 5.253906 14 5.191406 14.96875 5.191406 C 15.824219 5.191406 16.597656 5.242188 17.277344 5.3125 C 17.289062 5.207031 17.296875 5.101562 17.296875 4.996094 C 17.296875 4.785156 17.273438 4.578125 17.222656 4.382812 C 16.90625 4.371094 16.582031 4.367188 16.25 4.367188 C 14.730469 4.367188 13.359375 4.488281 12.148438 4.671875 "/>
<path style=" stroke:none;fill-rule:nonzero;fill:rgb(93.72549%,70.588235%,6.27451%);fill-opacity:1;" d="M 16.976562 3.746094 C 16.535156 2.949219 15.6875 2.410156 14.710938 2.410156 C 13.394531 2.410156 12.304688 3.398438 12.148438 4.671875 C 13.296875 4.246094 15.210938 3.882812 16.976562 3.746094 "/>
<path style=" stroke:none;fill-rule:nonzero;fill:rgb(100%,100%,100%);fill-opacity:1;" d="M 14.957031 5.945312 C 13.863281 5.980469 11.851562 6.078125 8.589844 6.890625 C 8.589844 6.890625 8.585938 6.890625 8.585938 6.890625 C 8.546875 6.636719 8.515625 6.4375 8.515625 6.4375 C 8.515625 6.4375 8.382812 6.65625 8.214844 6.957031 C 7.390625 7.253906 6.367188 7.6875 5.6875 8.050781 C 6.105469 7.90625 6.929688 7.632812 8.019531 7.324219 C 7.90625 7.542969 7.792969 7.777344 7.707031 7.992188 L 8.277344 7.480469 C 8.277344 7.480469 8.667969 7.707031 8.6875 7.699219 C 8.675781 7.5625 8.65625 7.390625 8.632812 7.214844 C 10.386719 6.746094 12.640625 6.21875 14.957031 5.945312 "/>
</g>
</svg>
