<?xml version="1.0" encoding="UTF-8"?>
<svg xmlns="http://www.w3.org/2000/svg" xmlns:xlink="http://www.w3.org/1999/xlink" width="39pt" height="25pt" viewBox="0 0 39 25" version="1.1">
<g id="surface1">
<path style=" stroke:none;fill-rule:nonzero;fill:rgb(93.333333%,89.019608%,77.647059%);fill-opacity:1;" d="M 22.203125 24.84375 L 32.757812 14.578125 L 30.519531 14.574219 L 38.828125 5.808594 C 38.828125 5.808594 36.894531 5.238281 36.265625 5.132812 L 37.59375 4.089844 C 35.382812 3.523438 30.8125 2.804688 25.960938 3.125 C 25.960938 3.125 24.921875 0.15625 20.925781 0.15625 C 16.359375 0.15625 15.265625 3.636719 15.265625 3.636719 C 15.265625 3.636719 9.785156 4.765625 4.773438 7.984375 L 5.855469 8.796875 C 5.855469 8.796875 3.597656 9.941406 0.171875 12.628906 C 0.542969 14.148438 2.035156 16.113281 2.1875 16.289062 C 2.777344 16.6875 4.816406 17.761719 6.386719 18.292969 C 6.675781 18.226562 7.242188 17.988281 7.242188 17.988281 C 7.421875 18.0625 8.273438 18.289062 8.507812 18.320312 C 8.34375 19.320312 9.085938 19.882812 9.085938 19.882812 L 8.570312 20.164062 C 8.570312 20.164062 9.273438 21.730469 12.710938 22.535156 C 20.484375 20.828125 22.203125 24.84375 22.203125 24.84375 "/>
<path style=" stroke:none;fill-rule:nonzero;fill:rgb(0.392157%,34.509804%,21.176471%);fill-opacity:1;" d="M 0.96875 12.886719 C 1.332031 13.847656 2 14.925781 2.640625 15.792969 C 2.839844 15.96875 4.835938 17 6.40625 17.585938 C 6.574219 17.5625 7.09375 17.332031 7.183594 17.273438 C 7.273438 17.273438 8.425781 17.78125 9.914062 17.78125 C 10.441406 17.78125 10.847656 17.726562 10.847656 17.617188 C 10.847656 17.527344 10.628906 17.417969 10.527344 17.371094 C 10.222656 17.238281 9.820312 17.125 9.820312 16.800781 C 9.820312 16.476562 10.421875 16.042969 13.132812 16.042969 C 14.84375 16.042969 15.96875 16.136719 15.96875 16.136719 L 15.96875 16.328125 C 15.09375 16.328125 14.1875 16.457031 13.582031 16.601562 C 13.195312 16.695312 12.597656 16.871094 12.597656 17.0625 C 12.597656 17.410156 14.160156 17.414062 14.160156 18.105469 C 14.160156 18.667969 13.578125 19.28125 11.421875 19.28125 C 10.253906 19.28125 9.3125 18.90625 9.234375 18.90625 C 9.152344 18.90625 9.136719 18.933594 9.136719 18.960938 C 9.136719 19 9.203125 19.128906 9.324219 19.292969 C 9.492188 19.519531 9.785156 19.804688 10.304688 19.988281 L 9.609375 20.378906 C 10.398438 21.179688 12.316406 21.730469 12.710938 21.839844 C 12.710938 21.839844 19.289062 20.136719 22.339844 23.824219 L 30.6875 15.242188 L 28.710938 15.230469 L 36.636719 6.308594 C 36.636719 6.308594 35.121094 5.765625 33.589844 5.472656 L 34.632812 4.667969 C 34.632812 4.667969 29.363281 3.578125 25.078125 3.921875 C 25.078125 3.921875 24.277344 0.9375 20.535156 0.9375 C 16.910156 0.9375 15.742188 4.238281 15.742188 4.238281 C 15.742188 4.238281 11.433594 4.929688 5.988281 8.042969 L 7.152344 8.925781 C 7.152344 8.925781 4.648438 10.078125 0.96875 12.886719 "/>
<path style=" stroke:none;fill-rule:nonzero;fill:rgb(74.901961%,16.862745%,21.568627%);fill-opacity:1;" d="M 5.144531 15.203125 C 5.144531 15.203125 5.867188 15.425781 7.792969 15.304688 L 10.003906 13.960938 L 11.695312 14.503906 L 12.210938 13.789062 L 11.652344 13.789062 L 12.78125 11.984375 L 13.738281 13.789062 L 13.304688 13.789062 L 13.59375 14.414062 L 14.800781 14.195312 L 15.304688 13.5625 L 14.855469 13.5625 L 15.527344 12.539062 L 15.003906 12.539062 L 16.066406 10.742188 L 16.992188 12.582031 L 16.570312 12.582031 L 17.21875 13.671875 L 16.714844 13.671875 L 17.714844 15.460938 L 18.683594 14.085938 L 18.019531 14.085938 L 19.03125 12.570312 L 18.390625 12.570312 L 19.859375 10.046875 L 21.132812 12.570312 L 20.605469 12.570312 L 21.460938 14.085938 L 20.863281 14.085938 L 21.703125 15.917969 L 23.140625 13.621094 L 22.351562 13.621094 L 23.511719 11.722656 L 22.785156 11.722656 L 24.367188 8.59375 L 25.996094 11.894531 L 25.421875 11.894531 L 26.46875 13.628906 L 25.746094 13.628906 L 26.574219 15.320312 L 27.878906 13.339844 L 27.179688 13.339844 L 28.710938 11.144531 L 27.882812 11.144531 L 30.339844 7.804688 L 31.660156 10.117188 L 34.386719 6.777344 C 34.386719 6.777344 29.628906 4.800781 22.605469 4.800781 C 13.285156 4.800781 8 8.042969 8 8.042969 C 8 8.042969 14.117188 5.929688 20.835938 5.929688 C 25.742188 5.929688 28.652344 7.035156 28.652344 7.035156 C 28.652344 7.035156 22.378906 7.007812 12.285156 9.707031 C 13.925781 9.707031 14.90625 10.175781 14.90625 10.175781 C 14.90625 10.175781 10.8125 10.898438 5.078125 13.328125 L 5.8125 14.402344 Z M 5.144531 15.203125 "/>
<path style=" stroke:none;fill-rule:nonzero;fill:rgb(93.72549%,70.588235%,6.27451%);fill-opacity:1;" d="M 18.152344 8.335938 C 18.777344 8.867188 19.59375 9.191406 20.484375 9.191406 C 21.796875 9.191406 22.945312 8.488281 23.5625 7.445312 C 22.054688 7.636719 20.238281 7.917969 18.152344 8.335938 "/>
<path style=" stroke:none;fill-rule:nonzero;fill:rgb(93.72549%,70.588235%,6.27451%);fill-opacity:1;" d="M 16.941406 5.21875 C 16.921875 5.363281 16.914062 5.511719 16.914062 5.660156 C 16.914062 5.824219 16.925781 5.988281 16.949219 6.148438 C 18.191406 6.015625 19.503906 5.929688 20.835938 5.929688 C 22.019531 5.929688 23.085938 5.996094 24.023438 6.09375 C 24.042969 5.949219 24.050781 5.804688 24.050781 5.660156 C 24.050781 5.371094 24.015625 5.09375 23.953125 4.824219 C 23.511719 4.808594 23.066406 4.800781 22.605469 4.800781 C 20.507812 4.800781 18.617188 4.964844 16.941406 5.21875 "/>
<path style=" stroke:none;fill-rule:nonzero;fill:rgb(93.72549%,70.588235%,6.27451%);fill-opacity:1;" d="M 23.609375 3.953125 C 23 2.863281 21.828125 2.125 20.484375 2.125 C 18.664062 2.125 17.160156 3.476562 16.941406 5.21875 C 18.53125 4.636719 21.171875 4.140625 23.609375 3.953125 "/>
<path style=" stroke:none;fill-rule:nonzero;fill:rgb(100%,100%,100%);fill-opacity:1;" d="M 20.820312 6.960938 C 19.308594 7.007812 16.53125 7.140625 12.03125 8.25 C 12.027344 8.25 12.027344 8.25 12.027344 8.25 C 11.972656 7.902344 11.925781 7.632812 11.925781 7.632812 C 11.925781 7.632812 11.746094 7.929688 11.515625 8.339844 C 10.375 8.746094 8.960938 9.335938 8.023438 9.835938 C 8.601562 9.636719 9.742188 9.261719 11.242188 8.84375 C 11.085938 9.140625 10.933594 9.460938 10.8125 9.753906 L 11.597656 9.058594 C 11.597656 9.058594 12.136719 9.367188 12.164062 9.355469 C 12.152344 9.171875 12.125 8.933594 12.089844 8.695312 C 14.511719 8.050781 17.625 7.332031 20.820312 6.960938 "/>
</g>
</svg>
