<?xml version="1.0" encoding="UTF-8"?>
<svg xmlns="http://www.w3.org/2000/svg" xmlns:xlink="http://www.w3.org/1999/xlink" width="35pt" height="25pt" viewBox="0 0 35 25" version="1.1">
<g id="surface1">
<path style=" stroke:none;fill-rule:nonzero;fill:rgb(12.941176%,21.960784%,43.529412%);fill-opacity:1;" d="M 31.019531 12.136719 L 33.761719 9.203125 L 32.457031 3.132812 L 26.585938 1.375 L 25.996094 1.960938 C 25.996094 1.960938 21.191406 0.535156 16.972656 0.535156 C 8.1875 0.535156 0 5.246094 0 12.367188 C 0 19.140625 6.484375 24.25 16.972656 24.25 C 26.628906 24.25 35 18.074219 35 18.074219 Z M 12.035156 15.195312 C 12.035156 15.195312 8.683594 13.972656 8.683594 12.429688 C 8.683594 10.5 12.035156 9.625 12.035156 9.625 Z M 18.113281 15.820312 C 17.441406 15.921875 16.546875 15.878906 16.546875 15.878906 L 16.546875 14.421875 L 18.113281 14.421875 Z M 18.113281 10.3125 L 16.546875 10.3125 L 16.546875 8.855469 C 17.945312 8.851562 17.921875 8.882812 18.113281 8.910156 Z M 22.507812 14.910156 L 22.507812 9.855469 C 25.933594 10.867188 27.824219 12.660156 27.824219 12.660156 C 27.824219 12.660156 25.214844 14.191406 22.507812 14.910156 Z M 22.507812 14.910156 "/>
<path style=" stroke:none;fill-rule:nonzero;fill:rgb(100%,100%,100%);fill-opacity:1;" d="M 29.945312 12.757812 C 27.035156 14.703125 24.261719 15.917969 21.234375 16.488281 L 21.234375 8.351562 C 26.972656 9.433594 29.195312 12.269531 29.195312 12.269531 L 32.457031 8.875 L 31.347656 4.046875 L 26.910156 2.808594 L 26.324219 3.394531 C 26.324219 3.394531 22.179688 1.730469 16.546875 1.730469 C 7.566406 1.730469 1.242188 6.917969 1.242188 12.398438 C 1.242188 18.367188 7.503906 23.019531 16.402344 23.019531 C 25.867188 23.019531 33.335938 17.78125 33.335938 17.78125 Z M 16.578125 7.9375 C 17.4375 7.9375 18.242188 7.976562 19 8.042969 L 19 11.289062 L 15.640625 11.289062 L 15.640625 7.953125 C 15.941406 7.945312 16.253906 7.9375 16.578125 7.9375 Z M 7.453125 12.414062 C 7.453125 11.246094 8.242188 8.871094 13.277344 8.148438 L 13.277344 16.617188 C 7.359375 15.664062 7.453125 12.414062 7.453125 12.414062 Z M 15.640625 16.847656 L 15.640625 13.425781 L 19 13.425781 L 19 16.789062 C 18.3125 16.847656 17.605469 16.875 16.878906 16.875 C 16.445312 16.875 16.035156 16.867188 15.640625 16.847656 Z M 15.640625 16.847656 "/>
<path style=" stroke:none;fill-rule:nonzero;fill:rgb(74.509804%,18.431373%,21.568627%);fill-opacity:1;" d="M 26.519531 4.441406 L 27.171875 3.722656 L 30.695312 4.765625 L 31.476562 8.679688 L 29.0625 11.09375 C 29.0625 11.09375 25.148438 7.050781 16.390625 7.050781 C 9.492188 7.050781 6.589844 9.992188 6.589844 12.269531 C 6.589844 14.542969 9.199219 17.746094 16.710938 17.746094 C 24.429688 17.746094 29.714844 13.964844 29.714844 13.964844 L 32.0625 17.488281 C 32.0625 17.488281 25.671875 22.164062 16.144531 22.164062 C 8.609375 22.164062 2.140625 18.402344 2.140625 12.300781 C 2.140625 6.753906 8.742188 2.621094 16.519531 2.621094 C 23.0625 2.621094 26.519531 4.441406 26.519531 4.441406 Z M 26.519531 4.441406 "/>
</g>
</svg>
