<?xml version="1.0" encoding="UTF-8"?>
<svg xmlns="http://www.w3.org/2000/svg" xmlns:xlink="http://www.w3.org/1999/xlink" width="28pt" height="20pt" viewBox="0 0 28 20" version="1.1">
<g id="surface1">
<path style=" stroke:none;fill-rule:nonzero;fill:rgb(100%,100%,100%);fill-opacity:1;" d="M 14 0 C 8.273438 0 3.632812 4.476562 3.632812 10 C 3.632812 15.523438 8.273438 20 14 20 C 19.726562 20 24.367188 15.523438 24.367188 10 C 24.367188 4.476562 19.726562 0 14 0 M 14 19.261719 C 8.683594 19.261719 4.371094 15.117188 4.371094 10 C 4.371094 4.882812 8.683594 0.738281 14 0.738281 C 19.316406 0.738281 23.628906 4.882812 23.628906 10 C 23.628906 15.117188 19.316406 19.261719 14 19.261719 "/>
<path style=" stroke:none;fill-rule:nonzero;fill:rgb(100%,100%,100%);fill-opacity:1;" d="M 14.289062 12.894531 C 14.238281 13.007812 14.132812 13.082031 14.007812 13.097656 L 9.859375 13.671875 C 9.824219 13.675781 9.789062 13.695312 9.765625 13.726562 C 9.746094 13.753906 9.734375 13.792969 9.742188 13.828125 L 9.992188 15.488281 C 10 15.527344 10.023438 15.5625 10.054688 15.582031 C 10.085938 15.605469 10.125 15.613281 10.164062 15.601562 L 10.574219 15.503906 L 10.820312 14.546875 C 10.828125 14.515625 10.863281 14.496094 10.894531 14.503906 L 11.703125 14.699219 C 11.726562 14.707031 11.746094 14.726562 11.746094 14.75 L 11.820312 15.207031 L 12.335938 15.085938 L 12.335938 14.878906 C 12.335938 14.855469 12.347656 14.832031 12.363281 14.820312 C 12.378906 14.804688 12.402344 14.796875 12.421875 14.800781 L 13.066406 14.875 C 13.085938 14.878906 13.097656 14.886719 13.113281 14.902344 L 14.347656 14.605469 C 14.457031 14.582031 14.546875 14.503906 14.59375 14.402344 L 15.359375 12.773438 L 14.554688 12.363281 Z M 14.289062 12.894531 "/>
<path style=" stroke:none;fill-rule:nonzero;fill:rgb(100%,100%,100%);fill-opacity:1;" d="M 14.71875 12.027344 L 14.652344 12.160156 L 15.457031 12.570312 L 15.519531 12.433594 Z M 14.71875 12.027344 "/>
<path style=" stroke:none;fill-rule:nonzero;fill:rgb(100%,100%,100%);fill-opacity:1;" d="M 15.007812 11.433594 L 14.984375 11.488281 L 15.773438 11.894531 L 15.839844 11.757812 L 15.050781 11.355469 Z M 15.007812 11.433594 "/>
<path style=" stroke:none;fill-rule:nonzero;fill:rgb(100%,100%,100%);fill-opacity:1;" d="M 14.882812 11.691406 L 14.816406 11.824219 L 15.613281 12.230469 L 15.679688 12.09375 Z M 14.882812 11.691406 "/>
<path style=" stroke:none;fill-rule:nonzero;fill:rgb(100%,100%,100%);fill-opacity:1;" d="M 17.601562 6.164062 L 15.683594 2.027344 C 15.660156 1.976562 15.609375 1.945312 15.558594 1.945312 L 12.222656 1.945312 C 12.144531 1.945312 12.082031 2.007812 12.082031 2.085938 L 12.082031 4.796875 L 10.617188 1.960938 C 9.742188 2.300781 8.933594 2.765625 8.21875 3.335938 L 8.21875 8.378906 C 8.21875 8.457031 8.28125 8.519531 8.359375 8.519531 L 10.253906 8.519531 C 10.328125 8.519531 10.390625 8.457031 10.390625 8.378906 L 10.390625 6.125 L 11.785156 8.453125 C 11.8125 8.492188 11.855469 8.519531 11.90625 8.519531 L 14.027344 8.519531 C 14.105469 8.519531 14.167969 8.457031 14.167969 8.378906 L 14.167969 4.007812 L 16.351562 8.710938 L 16.089844 9.238281 L 15.148438 11.152344 L 15.933594 11.554688 L 16.039062 11.332031 L 16.515625 10.316406 L 16.75 9.816406 L 17.234375 8.785156 L 19.789062 3.34375 C 19.601562 3.195312 19.40625 3.050781 19.203125 2.914062 Z M 17.601562 6.164062 "/>
<path style=" stroke:none;fill-rule:nonzero;fill:rgb(100%,100%,100%);fill-opacity:1;" d="M 17.035156 12.011719 C 16.335938 12.011719 15.765625 12.203125 15.765625 12.441406 C 15.765625 12.679688 16.335938 12.871094 17.035156 12.871094 C 17.738281 12.871094 18.304688 12.679688 18.304688 12.441406 C 18.304688 12.203125 17.738281 12.011719 17.035156 12.011719 "/>
<path style=" stroke:none;fill-rule:nonzero;fill:rgb(95.686275%,49.019608%,18.823529%);fill-opacity:1;" d="M 15.359375 12.773438 L 15.457031 12.570312 L 14.652344 12.160156 L 14.554688 12.363281 Z M 15.359375 12.773438 "/>
<path style=" stroke:none;fill-rule:nonzero;fill:rgb(95.686275%,49.019608%,18.823529%);fill-opacity:1;" d="M 10.472656 11.953125 C 10.804688 11.578125 11.277344 12.023438 11.675781 11.785156 C 11.980469 11.628906 12.242188 11.902344 12.570312 11.851562 C 12.777344 11.847656 13.089844 11.621094 13.269531 11.894531 C 13.417969 11.96875 13.628906 11.941406 13.757812 11.84375 C 13.835938 11.554688 14.167969 11.667969 14.390625 11.601562 C 14.535156 11.570312 14.816406 11.425781 15.007812 11.433594 L 15.050781 11.355469 L 15.839844 11.757812 L 15.933594 11.554688 L 15.148438 11.152344 L 16.089844 9.238281 C 15.53125 9.152344 14.839844 9.519531 14.355469 9.261719 C 13.792969 9.246094 13.140625 9.28125 12.644531 9.019531 C 12.320312 8.964844 11.976562 8.972656 11.683594 8.855469 C 11.527344 9.148438 11.347656 8.757812 11.160156 8.816406 C 11.046875 8.851562 10.953125 8.976562 10.972656 9.109375 C 10.917969 9.414062 10.546875 9.234375 10.355469 9.363281 C 10.003906 9.5625 9.808594 9.058594 9.472656 9.066406 C 9.246094 9.003906 8.972656 9.03125 8.847656 9.265625 C 8.648438 9.3125 8.550781 9.058594 8.328125 9.140625 C 8.171875 9.042969 8.394531 8.976562 8.339844 8.863281 C 8.210938 8.722656 7.972656 8.621094 7.792969 8.738281 C 7.761719 8.976562 8.015625 9.183594 7.878906 9.433594 C 7.746094 9.460938 7.753906 9.265625 7.640625 9.222656 C 7.511719 9.160156 7.507812 9.316406 7.441406 9.378906 C 7.1875 9.367188 7.242188 9.085938 7.164062 8.9375 C 6.871094 8.890625 6.640625 9.070312 6.398438 9.171875 C 6.230469 9.300781 6.34375 9.574219 6.199219 9.707031 C 6.085938 9.625 6.097656 9.460938 5.988281 9.363281 C 5.890625 9.300781 5.78125 9.253906 5.664062 9.296875 C 5.554688 9.320312 5.527344 9.410156 5.503906 9.503906 C 5.503906 9.5625 5.5625 9.605469 5.625 9.589844 C 5.695312 9.605469 5.75 9.691406 5.71875 9.761719 C 5.679688 9.8125 5.65625 9.914062 5.566406 9.894531 C 5.472656 9.804688 5.339844 9.679688 5.207031 9.734375 C 5.148438 9.785156 5.203125 9.851562 5.203125 9.90625 C 5.144531 10.113281 5.292969 10.230469 5.40625 10.375 C 5.441406 10.535156 5.460938 10.769531 5.335938 10.886719 C 5.171875 10.921875 5.128906 11.101562 5.113281 11.242188 C 5.152344 11.382812 5.304688 11.371094 5.363281 11.488281 C 5.394531 11.585938 5.289062 11.65625 5.203125 11.710938 C 5.238281 11.867188 5.273438 12.023438 5.316406 12.179688 C 5.417969 12.140625 5.535156 12.101562 5.601562 12.113281 C 5.65625 12.140625 5.695312 12.191406 5.695312 12.25 C 5.75 12.355469 5.863281 12.460938 5.988281 12.398438 C 6.117188 12.34375 6.234375 12.167969 6.371094 12.238281 L 6.371094 11.070312 L 6.96875 11.597656 L 6.96875 12.199219 C 7.191406 12.195312 7.445312 12.21875 7.648438 12.136719 C 8.054688 12.164062 8.539062 12.277344 8.894531 12.046875 C 9.207031 11.988281 9.496094 11.882812 9.832031 11.886719 C 10.058594 11.871094 10.257812 11.96875 10.472656 11.953125 "/>
<path style=" stroke:none;fill-rule:nonzero;fill:rgb(95.686275%,49.019608%,18.823529%);fill-opacity:1;" d="M 17.429688 9.433594 C 17.652344 9.136719 18.226562 9.488281 18.300781 9.03125 C 18.390625 8.792969 18.65625 8.882812 18.824219 8.765625 C 18.875 8.675781 18.785156 8.617188 18.769531 8.539062 C 18.988281 8.300781 19.28125 8.132812 19.515625 7.890625 C 19.683594 7.722656 19.949219 7.761719 20.164062 7.757812 C 20.265625 7.695312 20.410156 7.605469 20.433594 7.488281 L 20.40625 7.449219 C 20.097656 7.40625 19.765625 7.460938 19.480469 7.554688 C 19.160156 7.84375 18.808594 8.046875 18.425781 8.164062 C 18.164062 8.496094 17.625 8.648438 17.234375 8.785156 L 16.75 9.816406 C 16.996094 9.75 17.320312 9.574219 17.429688 9.433594 "/>
<path style=" stroke:none;fill-rule:nonzero;fill:rgb(95.686275%,49.019608%,18.823529%);fill-opacity:1;" d="M 15.679688 12.09375 L 15.773438 11.894531 L 14.984375 11.488281 L 14.882812 11.691406 Z M 15.679688 12.09375 "/>
<path style=" stroke:none;fill-rule:nonzero;fill:rgb(95.686275%,49.019608%,18.823529%);fill-opacity:1;" d="M 14.816406 11.824219 L 14.71875 12.027344 L 15.519531 12.433594 L 15.613281 12.230469 Z M 14.816406 11.824219 "/>
<path style=" stroke:none;fill-rule:nonzero;fill:rgb(95.686275%,49.019608%,18.823529%);fill-opacity:1;" d="M 14 0.738281 C 8.683594 0.738281 4.371094 4.882812 4.371094 10 C 4.371094 15.117188 8.683594 19.261719 14 19.261719 C 19.316406 19.261719 23.628906 15.117188 23.628906 10 C 23.628906 4.882812 19.316406 0.738281 14 0.738281 M 14 18.667969 C 9.007812 18.667969 4.964844 14.789062 4.964844 10 C 4.964844 7.320312 6.230469 4.925781 8.21875 3.335938 C 8.933594 2.765625 9.742188 2.300781 10.617188 1.960938 C 11.660156 1.554688 12.804688 1.328125 14 1.328125 C 15.9375 1.328125 17.734375 1.917969 19.203125 2.914062 C 19.40625 3.050781 19.601562 3.195312 19.789062 3.34375 C 21.519531 4.734375 22.699219 6.730469 22.972656 8.996094 L 22.78125 9.0625 C 22.667969 9.488281 22.171875 9.207031 21.964844 9.511719 C 21.699219 9.527344 21.410156 9.546875 21.269531 9.816406 C 21.183594 9.84375 21.0625 9.84375 21.03125 9.738281 C 21.085938 9.492188 20.683594 9.40625 20.871094 9.144531 C 20.859375 9.035156 20.722656 9.023438 20.640625 9.054688 C 20.464844 9.121094 20.449219 9.3125 20.429688 9.464844 C 20.1875 9.511719 20.167969 9.089844 19.90625 9.1875 C 19.636719 9.441406 19.296875 9.558594 18.910156 9.492188 C 18.226562 9.441406 18 10.332031 17.417969 10.519531 C 17.164062 10.558594 16.789062 10.414062 16.515625 10.316406 L 16.039062 11.332031 L 16.316406 11.261719 C 16.5 11.21875 16.648438 11.09375 16.8125 11.007812 C 17.085938 11.214844 17.128906 10.816406 17.347656 10.796875 C 17.488281 10.761719 17.605469 10.886719 17.695312 10.988281 C 18.023438 11.125 18.417969 11.035156 18.6875 10.8125 C 18.976562 10.6875 19.34375 10.738281 19.632812 10.613281 C 19.828125 10.484375 20.019531 10.332031 20.292969 10.375 C 21.113281 10.09375 22.167969 9.746094 23.015625 9.449219 C 23.027344 9.632812 23.035156 9.816406 23.035156 10 C 23.035156 14.789062 18.992188 18.667969 14 18.667969 "/>
<path style=" stroke:none;fill-rule:nonzero;fill:rgb(95.686275%,49.019608%,18.823529%);fill-opacity:1;" d="M 8.589844 13.285156 L 7.726562 12.507812 C 7.390625 12.210938 7.160156 12.472656 7.160156 12.664062 L 7.160156 13.46875 C 7.160156 13.621094 7.210938 13.714844 7.28125 13.804688 L 8.0625 14.824219 C 8.105469 14.878906 8.121094 14.9375 8.121094 15.007812 L 8.121094 15.121094 C 8.121094 15.210938 8.042969 15.203125 7.980469 15.148438 L 7.8125 15.003906 C 7.75 14.957031 7.757812 14.859375 7.757812 14.777344 L 7.757812 14.675781 C 7.757812 14.621094 7.699219 14.519531 7.636719 14.472656 L 7.25 14.117188 C 7.1875 14.058594 7.160156 14.105469 7.160156 14.257812 L 7.160156 14.726562 C 7.160156 14.847656 7.238281 15.089844 7.421875 15.253906 L 8.316406 16.058594 C 8.53125 16.253906 8.71875 16.066406 8.71875 15.617188 L 8.71875 15.105469 C 8.71875 14.851562 8.605469 14.59375 8.472656 14.417969 L 7.816406 13.5625 C 7.816406 13.5625 7.757812 13.484375 7.757812 13.386719 L 7.757812 13.296875 C 7.757812 13.296875 7.78125 13.167969 7.882812 13.261719 L 8.050781 13.414062 C 8.09375 13.453125 8.121094 13.511719 8.121094 13.585938 L 8.121094 13.707031 C 8.121094 13.777344 8.140625 13.828125 8.207031 13.890625 L 8.519531 14.171875 C 8.65625 14.292969 8.71875 14.207031 8.71875 14.101562 L 8.71875 13.617188 C 8.71875 13.441406 8.644531 13.335938 8.589844 13.285156 "/>
<path style=" stroke:none;fill-rule:nonzero;fill:rgb(95.686275%,49.019608%,18.823529%);fill-opacity:1;" d="M 10.046875 16.613281 L 9.574219 16.332031 L 9.574219 13.972656 C 9.574219 13.945312 9.558594 13.921875 9.535156 13.90625 L 9.09375 13.644531 C 9.070312 13.628906 9.039062 13.628906 9.015625 13.644531 C 8.992188 13.65625 8.976562 13.683594 8.976562 13.710938 L 8.976562 16.5 C 8.976562 16.527344 8.988281 16.554688 9.015625 16.566406 L 9.96875 17.132812 C 9.992188 17.148438 10.019531 17.148438 10.046875 17.132812 C 10.070312 17.121094 10.085938 17.09375 10.085938 17.066406 L 10.085938 16.679688 C 10.085938 16.652344 10.070312 16.625 10.046875 16.613281 "/>
<path style=" stroke:none;fill-rule:nonzero;fill:rgb(95.686275%,49.019608%,18.823529%);fill-opacity:1;" d="M 11.820312 15.207031 L 11.746094 14.75 C 11.742188 14.726562 11.726562 14.707031 11.703125 14.699219 L 10.894531 14.503906 C 10.863281 14.496094 10.828125 14.515625 10.820312 14.546875 L 10.574219 15.503906 L 10.148438 17.160156 C 10.140625 17.195312 10.160156 17.226562 10.191406 17.238281 L 10.667969 17.390625 C 10.683594 17.394531 10.699219 17.394531 10.714844 17.386719 C 10.730469 17.378906 10.742188 17.363281 10.746094 17.347656 L 10.867188 16.863281 L 11.519531 17.074219 L 11.613281 17.664062 C 11.613281 17.6875 11.632812 17.703125 11.652344 17.710938 L 12.148438 17.875 C 12.171875 17.878906 12.191406 17.875 12.210938 17.863281 C 12.226562 17.847656 12.234375 17.828125 12.230469 17.804688 Z M 11 16.339844 L 11.246094 15.367188 L 11.421875 16.476562 Z M 11 16.339844 "/>
<path style=" stroke:none;fill-rule:nonzero;fill:rgb(95.686275%,49.019608%,18.823529%);fill-opacity:1;" d="M 14.472656 15.042969 L 14.03125 14.988281 C 14.007812 14.988281 13.988281 14.996094 13.96875 15.007812 C 13.953125 15.023438 13.945312 15.042969 13.945312 15.066406 L 13.945312 16.613281 L 13.128906 14.917969 C 13.125 14.910156 13.117188 14.90625 13.109375 14.902344 C 13.097656 14.886719 13.085938 14.878906 13.066406 14.875 L 12.425781 14.800781 C 12.402344 14.796875 12.378906 14.804688 12.363281 14.820312 C 12.347656 14.832031 12.339844 14.855469 12.339844 14.878906 L 12.339844 17.832031 C 12.339844 17.871094 12.367188 17.90625 12.402344 17.910156 L 12.847656 17.96875 C 12.871094 17.972656 12.890625 17.96875 12.910156 17.953125 C 12.925781 17.9375 12.933594 17.917969 12.933594 17.894531 L 12.933594 16.097656 L 13.902344 17.984375 C 13.914062 18.011719 13.945312 18.027344 13.972656 18.027344 L 14.46875 17.996094 C 14.507812 17.992188 14.542969 17.960938 14.542969 17.917969 L 14.542969 15.117188 C 14.542969 15.078125 14.511719 15.046875 14.472656 15.042969 "/>
<path style=" stroke:none;fill-rule:nonzero;fill:rgb(95.686275%,49.019608%,18.823529%);fill-opacity:1;" d="M 16.179688 14.765625 L 14.941406 15.011719 C 14.90625 15.019531 14.878906 15.050781 14.878906 15.089844 L 14.878906 17.875 C 14.878906 17.898438 14.890625 17.917969 14.90625 17.933594 C 14.925781 17.949219 14.949219 17.953125 14.96875 17.949219 L 16.179688 17.734375 C 16.777344 17.628906 16.777344 17.269531 16.777344 17.191406 L 16.777344 15.003906 C 16.777344 15.003906 16.777344 14.644531 16.179688 14.765625 M 16.179688 16.960938 C 16.179688 16.960938 16.179688 17.222656 15.949219 17.261719 L 15.476562 17.347656 L 15.476562 15.472656 L 15.921875 15.386719 C 16.179688 15.332031 16.179688 15.574219 16.179688 15.574219 Z M 16.179688 16.960938 "/>
<path style=" stroke:none;fill-rule:nonzero;fill:rgb(95.686275%,49.019608%,18.823529%);fill-opacity:1;" d="M 18.3125 13.929688 C 18.296875 13.921875 18.273438 13.917969 18.253906 13.929688 L 17.136719 14.476562 C 17.117188 14.484375 17.101562 14.507812 17.101562 14.53125 L 17.101562 17.335938 C 17.101562 17.359375 17.113281 17.378906 17.128906 17.390625 C 17.148438 17.402344 17.171875 17.402344 17.1875 17.394531 L 18.308594 16.890625 C 18.328125 16.878906 18.34375 16.859375 18.34375 16.835938 L 18.34375 16.4375 C 18.34375 16.417969 18.332031 16.398438 18.316406 16.386719 C 18.296875 16.375 18.273438 16.371094 18.257812 16.382812 L 17.785156 16.59375 C 17.769531 16.601562 17.746094 16.597656 17.726562 16.589844 C 17.710938 16.578125 17.699219 16.558594 17.699219 16.535156 L 17.699219 16.003906 C 17.699219 15.980469 17.714844 15.957031 17.734375 15.949219 L 18.308594 15.691406 C 18.328125 15.683594 18.34375 15.660156 18.34375 15.636719 L 18.34375 15.238281 C 18.34375 15.214844 18.332031 15.195312 18.3125 15.183594 C 18.296875 15.171875 18.273438 15.171875 18.253906 15.183594 L 17.789062 15.410156 C 17.769531 15.417969 17.746094 15.417969 17.730469 15.40625 C 17.710938 15.394531 17.699219 15.375 17.699219 15.355469 L 17.699219 14.785156 C 17.699219 14.761719 17.714844 14.742188 17.734375 14.730469 L 18.308594 14.449219 C 18.328125 14.441406 18.34375 14.417969 18.34375 14.394531 L 18.34375 13.984375 C 18.34375 13.960938 18.332031 13.941406 18.3125 13.929688 "/>
<path style=" stroke:none;fill-rule:nonzero;fill:rgb(95.686275%,49.019608%,18.823529%);fill-opacity:1;" d="M 19.664062 14.84375 C 19.664062 14.84375 20.011719 14.582031 20.011719 14.109375 L 20.011719 13.375 C 20.011719 12.984375 19.761719 12.949219 19.476562 13.144531 L 18.546875 13.785156 C 18.53125 13.796875 18.519531 13.816406 18.519531 13.839844 L 18.519531 16.613281 C 18.519531 16.636719 18.53125 16.65625 18.550781 16.667969 C 18.574219 16.675781 18.597656 16.675781 18.617188 16.664062 L 19.089844 16.339844 C 19.105469 16.328125 19.117188 16.3125 19.117188 16.289062 L 19.117188 15.21875 L 19.214844 15.152344 L 19.734375 15.832031 C 19.753906 15.859375 19.792969 15.863281 19.820312 15.847656 L 20.167969 15.609375 C 20.179688 15.601562 20.191406 15.585938 20.191406 15.570312 C 20.195312 15.554688 20.191406 15.535156 20.179688 15.523438 Z M 19.476562 14.207031 C 19.476562 14.308594 19.417969 14.425781 19.347656 14.476562 L 19.214844 14.566406 C 19.195312 14.582031 19.171875 14.582031 19.152344 14.570312 C 19.128906 14.5625 19.117188 14.539062 19.117188 14.515625 L 19.117188 14.023438 C 19.117188 14.003906 19.128906 13.984375 19.144531 13.972656 L 19.339844 13.839844 C 19.417969 13.785156 19.476562 13.835938 19.476562 13.921875 Z M 19.476562 14.207031 "/>
<path style=" stroke:none;fill-rule:nonzero;fill:rgb(95.686275%,49.019608%,18.823529%);fill-opacity:1;" d="M 20.96875 11.636719 L 20.367188 12.300781 C 20.210938 12.472656 20.175781 12.660156 20.175781 12.871094 L 20.175781 13.152344 C 20.175781 13.351562 20.21875 13.527344 20.472656 13.582031 L 20.800781 13.65625 C 20.910156 13.679688 20.96875 13.707031 20.96875 13.785156 L 20.96875 13.859375 C 20.96875 13.972656 20.941406 14.003906 20.890625 14.050781 C 20.84375 14.101562 20.730469 14.214844 20.730469 14.070312 L 20.730469 13.949219 C 20.730469 13.84375 20.6875 13.84375 20.621094 13.910156 L 20.242188 14.300781 C 20.199219 14.34375 20.175781 14.390625 20.175781 14.46875 L 20.175781 14.71875 C 20.175781 15.167969 20.40625 15.253906 20.644531 14.945312 L 21.214844 14.191406 C 21.445312 13.882812 21.445312 13.574219 21.445312 13.398438 C 21.445312 13.183594 21.265625 13.097656 21.132812 13.074219 L 20.855469 13.027344 C 20.757812 13.007812 20.730469 12.941406 20.730469 12.84375 L 20.730469 12.691406 C 20.730469 12.648438 20.730469 12.527344 20.8125 12.441406 L 20.867188 12.382812 C 20.925781 12.324219 20.96875 12.324219 20.96875 12.433594 L 20.96875 12.652344 C 20.96875 12.695312 20.992188 12.722656 21.03125 12.679688 L 21.378906 12.320312 C 21.441406 12.261719 21.445312 12.164062 21.445312 12.101562 L 21.445312 11.734375 C 21.445312 11.359375 21.1875 11.394531 20.96875 11.636719 "/>
<path style=" stroke:none;fill-rule:nonzero;fill:rgb(95.686275%,49.019608%,18.823529%);fill-opacity:1;" d="M 6.371094 12.238281 L 6.371094 13.835938 L 6.796875 14.445312 C 6.902344 14.597656 6.96875 14.5625 6.96875 14.429688 L 6.96875 12.199219 C 6.78125 12.253906 6.554688 12.191406 6.371094 12.238281 "/>
<path style=" stroke:none;fill-rule:nonzero;fill:rgb(95.686275%,49.019608%,18.823529%);fill-opacity:1;" d="M 18.304688 13.144531 L 18.304688 12.441406 C 18.304688 12.679688 17.738281 12.871094 17.035156 12.871094 C 16.335938 12.871094 15.765625 12.679688 15.765625 12.441406 L 15.765625 13.144531 C 15.765625 13.382812 16.335938 13.574219 17.035156 13.574219 C 17.738281 13.574219 18.304688 13.382812 18.304688 13.144531 "/>
<path style=" stroke:none;fill-rule:nonzero;fill:rgb(0%,32.54902%,60.784314%);fill-opacity:1;" d="M 6.96875 12.199219 L 6.96875 11.597656 L 6.371094 11.070312 L 6.371094 12.238281 C 6.554688 12.191406 6.78125 12.253906 6.96875 12.199219 "/>
<path style=" stroke:none;fill-rule:nonzero;fill:rgb(0%,32.54902%,60.784314%);fill-opacity:1;" d="M 23.015625 9.449219 C 22.167969 9.746094 21.113281 10.09375 20.292969 10.375 C 20.019531 10.332031 19.828125 10.484375 19.632812 10.613281 C 19.34375 10.738281 18.976562 10.6875 18.6875 10.8125 C 18.417969 11.035156 18.023438 11.125 17.695312 10.988281 C 17.605469 10.886719 17.488281 10.761719 17.347656 10.796875 C 17.128906 10.816406 17.085938 11.214844 16.816406 11.007812 C 16.648438 11.09375 16.5 11.21875 16.316406 11.261719 L 16.039062 11.332031 L 15.933594 11.554688 L 15.839844 11.757812 L 15.773438 11.894531 L 15.679688 12.09375 L 15.613281 12.230469 L 15.519531 12.433594 L 15.457031 12.570312 L 15.359375 12.773438 L 14.59375 14.402344 C 14.546875 14.503906 14.453125 14.582031 14.347656 14.605469 L 13.109375 14.898438 C 13.117188 14.90625 13.125 14.910156 13.125 14.917969 L 13.945312 16.613281 L 13.945312 15.066406 C 13.945312 15.042969 13.953125 15.023438 13.96875 15.007812 C 13.988281 14.992188 14.007812 14.988281 14.03125 14.988281 L 14.472656 15.042969 C 14.511719 15.046875 14.542969 15.078125 14.542969 15.117188 L 14.542969 17.917969 C 14.542969 17.960938 14.507812 17.992188 14.46875 17.996094 L 13.972656 18.023438 C 13.945312 18.027344 13.914062 18.011719 13.902344 17.984375 L 12.933594 16.097656 L 12.933594 17.894531 C 12.933594 17.917969 12.925781 17.9375 12.910156 17.953125 C 12.890625 17.964844 12.871094 17.972656 12.847656 17.96875 L 12.40625 17.910156 C 12.367188 17.90625 12.335938 17.871094 12.335938 17.832031 L 12.335938 15.085938 L 11.820312 15.207031 L 12.230469 17.804688 C 12.234375 17.828125 12.226562 17.847656 12.210938 17.863281 C 12.191406 17.875 12.171875 17.878906 12.148438 17.875 L 11.652344 17.710938 C 11.632812 17.703125 11.613281 17.6875 11.609375 17.664062 L 11.519531 17.074219 L 10.867188 16.863281 L 10.746094 17.347656 C 10.742188 17.363281 10.730469 17.378906 10.714844 17.386719 C 10.699219 17.394531 10.683594 17.394531 10.667969 17.390625 L 10.191406 17.234375 C 10.160156 17.226562 10.140625 17.195312 10.148438 17.160156 L 10.574219 15.503906 L 10.164062 15.601562 C 10.125 15.613281 10.085938 15.605469 10.054688 15.582031 C 10.023438 15.5625 10 15.527344 9.996094 15.488281 L 9.742188 13.828125 C 9.734375 13.792969 9.746094 13.753906 9.765625 13.726562 C 9.789062 13.695312 9.824219 13.675781 9.859375 13.671875 L 14.007812 13.097656 C 14.132812 13.082031 14.234375 13.007812 14.289062 12.894531 L 14.554688 12.363281 L 14.652344 12.160156 L 14.71875 12.027344 L 14.816406 11.824219 L 14.984375 11.488281 L 15.007812 11.4375 C 14.816406 11.421875 14.53125 11.570312 14.390625 11.601562 C 14.167969 11.667969 13.835938 11.554688 13.757812 11.84375 C 13.628906 11.941406 13.417969 11.96875 13.269531 11.894531 C 13.089844 11.621094 12.777344 11.847656 12.570312 11.851562 C 12.242188 11.902344 11.980469 11.628906 11.675781 11.785156 C 11.277344 12.023438 10.804688 11.578125 10.46875 11.953125 C 10.257812 11.96875 10.058594 11.867188 9.828125 11.882812 C 9.496094 11.882812 9.207031 11.988281 8.894531 12.046875 C 8.539062 12.277344 8.054688 12.164062 7.648438 12.136719 C 7.445312 12.21875 7.191406 12.195312 6.96875 12.199219 L 6.96875 14.429688 C 6.96875 14.5625 6.902344 14.597656 6.796875 14.445312 L 6.371094 13.835938 L 6.371094 12.238281 C 6.234375 12.167969 6.117188 12.34375 5.988281 12.398438 C 5.863281 12.460938 5.75 12.355469 5.695312 12.25 C 5.695312 12.191406 5.65625 12.140625 5.601562 12.113281 C 5.535156 12.101562 5.417969 12.140625 5.316406 12.179688 C 5.273438 12.023438 5.238281 11.867188 5.203125 11.710938 C 5.289062 11.65625 5.394531 11.585938 5.363281 11.488281 C 5.304688 11.371094 5.152344 11.382812 5.113281 11.242188 C 5.128906 11.101562 5.171875 10.917969 5.335938 10.886719 C 5.460938 10.769531 5.445312 10.535156 5.40625 10.375 C 5.292969 10.230469 5.144531 10.113281 5.203125 9.90625 C 5.203125 9.851562 5.148438 9.785156 5.207031 9.734375 C 5.339844 9.679688 5.472656 9.804688 5.566406 9.894531 C 5.65625 9.914062 5.679688 9.8125 5.71875 9.761719 C 5.75 9.691406 5.695312 9.605469 5.625 9.589844 C 5.5625 9.605469 5.503906 9.5625 5.503906 9.503906 C 5.523438 9.410156 5.558594 9.320312 5.664062 9.296875 C 5.78125 9.253906 5.890625 9.300781 5.988281 9.363281 C 6.097656 9.460938 6.085938 9.625 6.199219 9.707031 C 6.34375 9.574219 6.230469 9.300781 6.398438 9.171875 C 6.640625 9.066406 6.871094 8.890625 7.164062 8.933594 C 7.242188 9.085938 7.1875 9.367188 7.441406 9.375 C 7.507812 9.316406 7.515625 9.160156 7.640625 9.222656 C 7.753906 9.265625 7.746094 9.460938 7.882812 9.433594 C 8.015625 9.183594 7.757812 8.976562 7.792969 8.738281 C 7.972656 8.621094 8.210938 8.722656 8.339844 8.859375 C 8.394531 8.976562 8.171875 9.042969 8.324219 9.140625 C 8.550781 9.054688 8.648438 9.3125 8.847656 9.261719 C 8.972656 9.03125 9.246094 9.003906 9.472656 9.0625 C 9.808594 9.058594 10.003906 9.5625 10.355469 9.363281 C 10.546875 9.234375 10.917969 9.414062 10.972656 9.109375 C 10.953125 8.972656 11.046875 8.851562 11.160156 8.8125 C 11.347656 8.757812 11.523438 9.148438 11.683594 8.851562 C 11.976562 8.972656 12.320312 8.964844 12.644531 9.019531 C 13.140625 9.28125 13.792969 9.242188 14.351562 9.261719 C 14.839844 9.519531 15.53125 9.152344 16.089844 9.238281 L 16.351562 8.710938 L 14.167969 4.003906 L 14.167969 8.378906 C 14.167969 8.457031 14.105469 8.519531 14.027344 8.519531 L 11.90625 8.519531 C 11.855469 8.519531 11.808594 8.492188 11.785156 8.449219 L 10.390625 6.125 L 10.390625 8.378906 C 10.390625 8.457031 10.328125 8.519531 10.253906 8.519531 L 8.359375 8.519531 C 8.28125 8.519531 8.21875 8.457031 8.21875 8.378906 L 8.21875 3.335938 C 6.230469 4.925781 4.964844 7.320312 4.964844 10 C 4.964844 14.789062 9.007812 18.667969 14 18.667969 C 18.988281 18.667969 23.035156 14.789062 23.035156 10 C 23.035156 9.816406 23.027344 9.632812 23.015625 9.449219 M 8.71875 14.101562 C 8.71875 14.207031 8.65625 14.292969 8.519531 14.171875 L 8.207031 13.890625 C 8.140625 13.828125 8.121094 13.777344 8.121094 13.707031 L 8.121094 13.585938 C 8.121094 13.511719 8.09375 13.453125 8.050781 13.410156 L 7.882812 13.261719 C 7.78125 13.167969 7.757812 13.296875 7.757812 13.296875 L 7.757812 13.386719 C 7.757812 13.484375 7.816406 13.5625 7.816406 13.5625 L 8.472656 14.417969 C 8.605469 14.59375 8.71875 14.851562 8.71875 15.105469 L 8.71875 15.617188 C 8.71875 16.066406 8.53125 16.253906 8.316406 16.058594 L 7.421875 15.253906 C 7.238281 15.089844 7.160156 14.847656 7.160156 14.722656 L 7.160156 14.257812 C 7.160156 14.105469 7.1875 14.058594 7.25 14.117188 L 7.636719 14.472656 C 7.699219 14.519531 7.757812 14.621094 7.757812 14.675781 L 7.757812 14.777344 C 7.757812 14.859375 7.75 14.957031 7.8125 15.003906 L 7.980469 15.148438 C 8.042969 15.203125 8.121094 15.210938 8.121094 15.121094 L 8.121094 15.007812 C 8.121094 14.9375 8.105469 14.882812 8.0625 14.824219 L 7.28125 13.804688 C 7.210938 13.714844 7.160156 13.621094 7.160156 13.46875 L 7.160156 12.664062 C 7.160156 12.472656 7.390625 12.210938 7.726562 12.511719 L 8.589844 13.285156 C 8.640625 13.335938 8.71875 13.441406 8.71875 13.617188 Z M 10.085938 17.066406 C 10.085938 17.09375 10.070312 17.121094 10.046875 17.132812 C 10.019531 17.148438 9.992188 17.148438 9.96875 17.132812 L 9.015625 16.566406 C 8.992188 16.554688 8.976562 16.527344 8.976562 16.5 L 8.976562 13.710938 C 8.976562 13.683594 8.992188 13.65625 9.015625 13.644531 C 9.039062 13.628906 9.066406 13.628906 9.09375 13.644531 L 9.535156 13.90625 C 9.558594 13.921875 9.574219 13.945312 9.574219 13.972656 L 9.574219 16.332031 L 10.046875 16.613281 C 10.070312 16.625 10.082031 16.652344 10.082031 16.679688 Z M 16.777344 17.191406 C 16.777344 17.265625 16.777344 17.625 16.179688 17.734375 L 14.96875 17.949219 C 14.949219 17.953125 14.925781 17.949219 14.90625 17.933594 C 14.890625 17.917969 14.878906 17.898438 14.878906 17.875 L 14.878906 15.085938 C 14.878906 15.050781 14.90625 15.019531 14.941406 15.011719 L 16.179688 14.765625 C 16.777344 14.648438 16.777344 15.003906 16.777344 15.003906 Z M 15.765625 13.148438 L 15.765625 12.441406 C 15.765625 12.203125 16.335938 12.011719 17.035156 12.011719 C 17.738281 12.011719 18.304688 12.203125 18.304688 12.441406 L 18.304688 13.148438 C 18.304688 13.382812 17.738281 13.574219 17.035156 13.574219 C 16.335938 13.574219 15.765625 13.382812 15.765625 13.148438 M 18.34375 14.394531 C 18.34375 14.417969 18.328125 14.441406 18.308594 14.449219 L 17.734375 14.730469 C 17.714844 14.742188 17.699219 14.761719 17.699219 14.785156 L 17.699219 15.355469 C 17.699219 15.375 17.710938 15.394531 17.730469 15.40625 C 17.746094 15.417969 17.769531 15.417969 17.789062 15.410156 L 18.253906 15.179688 C 18.273438 15.171875 18.296875 15.171875 18.3125 15.183594 C 18.332031 15.195312 18.34375 15.214844 18.34375 15.238281 L 18.34375 15.636719 C 18.34375 15.660156 18.328125 15.683594 18.308594 15.691406 L 17.738281 15.949219 C 17.714844 15.957031 17.699219 15.980469 17.699219 16.003906 L 17.699219 16.535156 C 17.699219 16.554688 17.710938 16.574219 17.726562 16.585938 C 17.746094 16.597656 17.769531 16.601562 17.785156 16.589844 L 18.257812 16.378906 C 18.273438 16.371094 18.296875 16.375 18.316406 16.386719 C 18.332031 16.398438 18.34375 16.417969 18.34375 16.4375 L 18.34375 16.832031 C 18.34375 16.859375 18.328125 16.878906 18.308594 16.890625 L 17.191406 17.390625 C 17.171875 17.402344 17.148438 17.398438 17.132812 17.390625 C 17.113281 17.378906 17.101562 17.359375 17.101562 17.335938 L 17.101562 14.53125 C 17.101562 14.507812 17.117188 14.484375 17.136719 14.472656 L 18.253906 13.929688 C 18.273438 13.917969 18.296875 13.917969 18.3125 13.929688 C 18.332031 13.941406 18.34375 13.960938 18.34375 13.984375 Z M 20.167969 15.609375 L 19.820312 15.847656 C 19.792969 15.867188 19.753906 15.859375 19.734375 15.832031 L 19.214844 15.152344 L 19.117188 15.222656 L 19.117188 16.289062 C 19.117188 16.3125 19.105469 16.328125 19.089844 16.34375 L 18.617188 16.664062 C 18.597656 16.675781 18.574219 16.679688 18.550781 16.667969 C 18.53125 16.65625 18.519531 16.636719 18.519531 16.613281 L 18.519531 13.835938 C 18.519531 13.816406 18.53125 13.796875 18.546875 13.785156 L 19.476562 13.144531 C 19.761719 12.949219 20.011719 12.984375 20.011719 13.375 L 20.011719 14.109375 C 20.011719 14.582031 19.664062 14.84375 19.664062 14.84375 L 20.179688 15.523438 C 20.191406 15.535156 20.195312 15.554688 20.191406 15.570312 C 20.191406 15.585938 20.179688 15.601562 20.167969 15.609375 M 21.445312 12.101562 C 21.445312 12.164062 21.441406 12.257812 21.382812 12.320312 L 21.035156 12.679688 C 20.992188 12.722656 20.96875 12.695312 20.96875 12.652344 L 20.96875 12.433594 C 20.96875 12.324219 20.925781 12.324219 20.867188 12.382812 L 20.8125 12.441406 C 20.730469 12.527344 20.730469 12.644531 20.730469 12.691406 L 20.730469 12.84375 C 20.730469 12.941406 20.757812 13.007812 20.855469 13.027344 L 21.132812 13.074219 C 21.265625 13.097656 21.445312 13.183594 21.445312 13.398438 C 21.445312 13.574219 21.445312 13.882812 21.214844 14.191406 L 20.644531 14.945312 C 20.410156 15.253906 20.175781 15.167969 20.175781 14.71875 L 20.175781 14.46875 C 20.175781 14.390625 20.199219 14.34375 20.242188 14.300781 L 20.621094 13.910156 C 20.6875 13.84375 20.730469 13.84375 20.730469 13.949219 L 20.730469 14.070312 C 20.730469 14.214844 20.84375 14.101562 20.890625 14.050781 C 20.941406 14.003906 20.96875 13.972656 20.96875 13.859375 L 20.96875 13.785156 C 20.96875 13.707031 20.910156 13.679688 20.804688 13.65625 L 20.472656 13.582031 C 20.21875 13.527344 20.175781 13.351562 20.175781 13.152344 L 20.175781 12.871094 C 20.175781 12.65625 20.210938 12.472656 20.367188 12.300781 L 20.96875 11.636719 C 21.1875 11.394531 21.445312 11.359375 21.445312 11.734375 Z M 21.445312 12.101562 "/>
<path style=" stroke:none;fill-rule:nonzero;fill:rgb(0%,32.54902%,60.784314%);fill-opacity:1;" d="M 11.421875 16.476562 L 11.246094 15.367188 L 11 16.339844 Z M 11.421875 16.476562 "/>
<path style=" stroke:none;fill-rule:nonzero;fill:rgb(0%,32.54902%,60.784314%);fill-opacity:1;" d="M 12.082031 2.085938 C 12.082031 2.007812 12.144531 1.945312 12.222656 1.945312 L 15.554688 1.945312 C 15.609375 1.945312 15.660156 1.976562 15.683594 2.027344 L 17.605469 6.164062 L 19.203125 2.914062 C 17.734375 1.917969 15.9375 1.328125 14 1.328125 C 12.804688 1.328125 11.660156 1.554688 10.617188 1.960938 L 12.082031 4.796875 Z M 12.082031 2.085938 "/>
<path style=" stroke:none;fill-rule:nonzero;fill:rgb(0%,32.54902%,60.784314%);fill-opacity:1;" d="M 18.425781 8.164062 C 18.808594 8.046875 19.160156 7.839844 19.480469 7.554688 C 19.765625 7.460938 20.097656 7.40625 20.40625 7.449219 L 20.433594 7.488281 C 20.410156 7.605469 20.265625 7.695312 20.164062 7.757812 C 19.949219 7.761719 19.683594 7.722656 19.515625 7.886719 C 19.28125 8.132812 18.988281 8.300781 18.769531 8.539062 C 18.785156 8.617188 18.875 8.675781 18.824219 8.765625 C 18.65625 8.882812 18.390625 8.792969 18.300781 9.03125 C 18.226562 9.492188 17.652344 9.136719 17.429688 9.433594 C 17.320312 9.574219 16.996094 9.75 16.75 9.816406 L 16.515625 10.316406 C 16.789062 10.410156 17.164062 10.558594 17.417969 10.519531 C 18 10.332031 18.226562 9.441406 18.910156 9.492188 C 19.296875 9.558594 19.636719 9.445312 19.90625 9.1875 C 20.167969 9.085938 20.1875 9.511719 20.429688 9.464844 C 20.449219 9.3125 20.464844 9.121094 20.640625 9.054688 C 20.722656 9.023438 20.859375 9.035156 20.871094 9.144531 C 20.683594 9.40625 21.085938 9.492188 21.027344 9.738281 C 21.0625 9.84375 21.183594 9.84375 21.269531 9.816406 C 21.410156 9.550781 21.699219 9.527344 21.964844 9.511719 C 22.171875 9.207031 22.667969 9.492188 22.78125 9.0625 L 22.972656 8.996094 C 22.699219 6.730469 21.523438 4.734375 19.789062 3.34375 L 17.234375 8.785156 C 17.621094 8.648438 18.164062 8.496094 18.425781 8.164062 "/>
<path style=" stroke:none;fill-rule:nonzero;fill:rgb(0%,32.54902%,60.784314%);fill-opacity:1;" d="M 19.339844 13.839844 L 19.144531 13.972656 C 19.128906 13.984375 19.117188 14.003906 19.117188 14.023438 L 19.117188 14.515625 C 19.117188 14.539062 19.128906 14.558594 19.152344 14.570312 C 19.171875 14.582031 19.195312 14.582031 19.214844 14.566406 L 19.347656 14.476562 C 19.421875 14.425781 19.476562 14.308594 19.476562 14.207031 L 19.476562 13.921875 C 19.476562 13.835938 19.417969 13.785156 19.339844 13.839844 "/>
<path style=" stroke:none;fill-rule:nonzero;fill:rgb(0%,32.54902%,60.784314%);fill-opacity:1;" d="M 15.921875 15.386719 L 15.476562 15.472656 L 15.476562 17.347656 L 15.949219 17.261719 C 16.179688 17.222656 16.179688 16.960938 16.179688 16.960938 L 16.179688 15.574219 C 16.179688 15.574219 16.179688 15.332031 15.921875 15.386719 "/>
</g>
</svg>
