<?xml version="1.0" encoding="UTF-8"?>
<svg xmlns="http://www.w3.org/2000/svg" xmlns:xlink="http://www.w3.org/1999/xlink" width="21pt" height="20pt" viewBox="0 0 21 20" version="1.1">
<g id="surface1">
<path style=" stroke:none;fill-rule:nonzero;fill:rgb(0.392157%,38.039216%,67.058824%);fill-opacity:1;" d="M 19.714844 0.046875 L 15.691406 0.046875 L 15.472656 0.253906 L 14.964844 0.746094 L 14.375 0.199219 L 14.160156 0 L 6.855469 0 L 6.640625 0.199219 L 6.050781 0.746094 L 5.539062 0.253906 L 5.320312 0.046875 L 0 0.046875 L 1.589844 2.828125 L 1.59375 16.328125 C 1.59375 16.457031 1.609375 16.660156 1.667969 16.898438 C 1.757812 17.253906 1.945312 17.691406 2.332031 18.039062 C 2.71875 18.386719 3.304688 18.636719 4.140625 18.636719 L 8.269531 18.636719 C 8.695312 18.636719 9.042969 18.746094 9.316406 18.890625 C 9.59375 19.03125 9.796875 19.207031 9.933594 19.339844 C 10.066406 19.476562 10.175781 19.605469 10.25 19.695312 C 10.285156 19.742188 10.3125 19.78125 10.332031 19.808594 C 10.34375 19.820312 10.347656 19.832031 10.351562 19.835938 C 10.355469 19.839844 10.355469 19.84375 10.359375 19.84375 C 10.359375 19.847656 10.359375 19.847656 10.359375 19.847656 L 10.484375 20.035156 L 10.625 19.855469 C 10.625 19.855469 10.644531 19.832031 10.675781 19.792969 C 10.71875 19.730469 10.792969 19.640625 10.867188 19.550781 C 10.9375 19.464844 11.011719 19.378906 11.050781 19.339844 C 11.105469 19.285156 11.300781 19.105469 11.597656 18.945312 C 11.894531 18.78125 12.285156 18.636719 12.742188 18.636719 L 16.871094 18.636719 C 17.292969 18.636719 17.660156 18.582031 17.980469 18.480469 C 18.457031 18.332031 18.820312 18.070312 19.0625 17.730469 C 19.304688 17.394531 19.417969 16.980469 19.417969 16.542969 L 19.417969 2.8125 L 20.367188 1.15625 L 21 0.046875 Z M 19.714844 0.046875 "/>
<path style=" stroke:none;fill-rule:nonzero;fill:rgb(100%,100%,100%);fill-opacity:1;" d="M 14.09375 0.160156 L 6.917969 0.160156 L 6.75 0.316406 L 6.046875 0.96875 L 5.425781 0.371094 L 5.253906 0.207031 L 0.277344 0.207031 L 1.75 2.785156 L 1.757812 16.328125 C 1.757812 16.796875 1.988281 18.476562 4.140625 18.476562 L 8.269531 18.476562 C 9.179688 18.476562 9.765625 18.945312 10.046875 19.226562 C 10.332031 19.507812 10.496094 19.757812 10.496094 19.757812 C 10.496094 19.757812 10.804688 19.355469 10.933594 19.226562 C 11.0625 19.097656 11.757812 18.476562 12.742188 18.476562 L 16.871094 18.476562 C 18.496094 18.476562 19.253906 17.644531 19.253906 16.542969 L 19.253906 2.769531 L 20.222656 1.078125 L 20.722656 0.207031 L 15.757812 0.207031 L 15.585938 0.371094 L 14.964844 0.96875 L 14.261719 0.316406 Z M 13.863281 0.742188 L 14.972656 1.773438 L 15.996094 0.789062 L 19.714844 0.789062 L 18.667969 2.617188 L 18.667969 16.542969 C 18.667969 17.449219 17.976562 17.894531 16.871094 17.894531 L 12.742188 17.894531 C 11.214844 17.894531 10.507812 18.921875 10.507812 18.921875 C 10.507812 18.921875 9.800781 17.894531 8.269531 17.894531 L 4.140625 17.894531 C 3.039062 17.894531 2.34375 17.449219 2.34375 16.542969 L 2.34375 2.617188 L 1.300781 0.789062 L 5.019531 0.789062 L 6.042969 1.773438 L 7.152344 0.742188 L 13.863281 0.742188 "/>
<path style=" stroke:none;fill-rule:nonzero;fill:rgb(100%,100%,100%);fill-opacity:1;" d="M 2.785156 9.269531 L 2.785156 16.394531 C 2.785156 17.003906 3.230469 17.453125 4.226562 17.453125 L 8.152344 17.453125 C 9.78125 17.453125 10.507812 18.378906 10.507812 18.378906 C 10.507812 18.378906 11.253906 17.453125 12.707031 17.453125 L 14.242188 17.453125 Z M 2.785156 9.269531 "/>
<path style=" stroke:none;fill-rule:nonzero;fill:rgb(100%,100%,100%);fill-opacity:1;" d="M 18.21875 5.8125 L 2.785156 5.8125 L 2.785156 6.175781 L 18.21875 6.175781 Z M 18.21875 5.8125 "/>
<path style=" stroke:none;fill-rule:nonzero;fill:rgb(100%,100%,100%);fill-opacity:1;" d="M 18.21875 14.386719 L 18.21875 14.011719 L 7.929688 6.734375 L 7.40625 6.734375 Z M 18.21875 14.386719 "/>
<path style=" stroke:none;fill-rule:nonzero;fill:rgb(100%,100%,100%);fill-opacity:1;" d="M 2.785156 8.140625 L 2.785156 8.515625 L 15.273438 17.453125 L 15.804688 17.453125 Z M 2.785156 8.140625 "/>
<path style=" stroke:none;fill-rule:nonzero;fill:rgb(89.019608%,22.352941%,24.705882%);fill-opacity:1;" d="M 18.21875 13.257812 L 18.21875 6.734375 L 8.996094 6.734375 Z M 18.21875 13.257812 "/>
<path style=" stroke:none;fill-rule:nonzero;fill:rgb(100%,100%,100%);fill-opacity:1;" d="M 4.582031 5.359375 L 4.152344 5.359375 L 3.382812 3.578125 L 3.382812 5.359375 L 2.953125 5.359375 L 2.953125 2.597656 L 3.394531 2.597656 L 4.152344 4.335938 L 4.152344 2.597656 L 4.582031 2.597656 Z M 4.582031 5.359375 "/>
<path style=" stroke:none;fill-rule:nonzero;fill:rgb(100%,100%,100%);fill-opacity:1;" d="M 6.308594 3.042969 L 5.636719 3.042969 L 5.636719 3.738281 L 6.308594 3.738281 L 6.308594 4.171875 L 5.636719 4.171875 L 5.636719 4.910156 L 6.308594 4.910156 L 6.308594 5.347656 L 5.191406 5.347656 L 5.191406 2.601562 L 6.308594 2.601562 Z M 6.308594 3.042969 "/>
<path style=" stroke:none;fill-rule:nonzero;fill:rgb(100%,100%,100%);fill-opacity:1;" d="M 8.242188 5.359375 L 7.984375 3.898438 L 7.730469 5.359375 L 7.207031 5.359375 L 6.753906 2.59375 L 7.179688 2.59375 L 7.472656 4.328125 L 7.761719 2.597656 L 8.203125 2.597656 L 8.503906 4.3125 L 8.777344 2.597656 L 9.226562 2.597656 L 8.757812 5.359375 Z M 8.242188 5.359375 "/>
<path style=" stroke:none;fill-rule:nonzero;fill:rgb(100%,100%,100%);fill-opacity:1;" d="M 11.417969 5.351562 L 10.960938 5.351562 L 10.960938 4.210938 L 10.363281 2.597656 L 10.8125 2.597656 L 11.195312 3.613281 L 11.566406 2.597656 L 12.023438 2.597656 L 11.417969 4.222656 Z M 11.417969 5.351562 "/>
<path style=" stroke:none;fill-rule:nonzero;fill:rgb(100%,100%,100%);fill-opacity:1;" d="M 12.722656 4.433594 C 12.722656 4.632812 12.71875 4.707031 12.753906 4.789062 C 12.792969 4.871094 12.886719 4.914062 12.984375 4.914062 C 13.078125 4.914062 13.167969 4.871094 13.210938 4.785156 C 13.246094 4.707031 13.246094 4.636719 13.246094 4.433594 L 13.246094 3.527344 C 13.246094 3.320312 13.25 3.253906 13.214844 3.175781 C 13.171875 3.09375 13.078125 3.042969 12.984375 3.042969 C 12.886719 3.042969 12.796875 3.089844 12.753906 3.175781 C 12.722656 3.25 12.722656 3.324219 12.722656 3.527344 Z M 13.683594 4.464844 C 13.683594 4.839844 13.683594 4.921875 13.578125 5.074219 C 13.484375 5.207031 13.234375 5.355469 12.980469 5.355469 C 12.734375 5.355469 12.507812 5.253906 12.390625 5.085938 C 12.289062 4.933594 12.277344 4.765625 12.277344 4.464844 L 12.277344 3.488281 C 12.277344 3.171875 12.285156 3.015625 12.40625 2.839844 C 12.53125 2.652344 12.71875 2.597656 12.980469 2.597656 C 13.226562 2.597656 13.453125 2.675781 13.566406 2.84375 C 13.707031 3.046875 13.683594 3.136719 13.683594 3.488281 Z M 13.683594 4.464844 "/>
<path style=" stroke:none;fill-rule:nonzero;fill:rgb(100%,100%,100%);fill-opacity:1;" d="M 14.785156 3.585938 C 15 3.585938 15.125 3.597656 15.203125 3.554688 C 15.285156 3.511719 15.292969 3.410156 15.292969 3.3125 C 15.292969 3.214844 15.292969 3.121094 15.210938 3.074219 C 15.136719 3.03125 15 3.035156 14.785156 3.035156 L 14.605469 3.035156 L 14.605469 3.585938 Z M 14.605469 5.351562 L 14.160156 5.351562 L 14.160156 2.597656 L 14.878906 2.597656 C 15.277344 2.597656 15.378906 2.613281 15.519531 2.726562 C 15.6875 2.859375 15.734375 3 15.734375 3.15625 L 15.734375 3.480469 C 15.734375 3.621094 15.660156 3.777344 15.574219 3.855469 C 15.460938 3.953125 15.328125 3.988281 15.320312 3.992188 L 15.8125 5.351562 L 15.359375 5.351562 L 14.882812 3.992188 L 14.605469 3.992188 Z M 14.605469 5.351562 "/>
<path style=" stroke:none;fill-rule:nonzero;fill:rgb(100%,100%,100%);fill-opacity:1;" d="M 16.75 3.535156 L 17.339844 2.597656 L 17.789062 2.597656 L 17.242188 3.480469 L 18.085938 5.351562 L 17.636719 5.351562 L 16.976562 3.890625 L 16.75 4.234375 L 16.75 5.351562 L 16.3125 5.351562 L 16.3125 2.597656 L 16.75 2.597656 Z M 16.75 3.535156 "/>
<path style=" stroke:none;fill-rule:nonzero;fill:rgb(100%,100%,100%);fill-opacity:1;" d="M 14.84375 14.058594 C 15.011719 14.179688 15.109375 14.269531 15.203125 14.273438 C 15.300781 14.273438 15.375 14.183594 15.445312 14.085938 C 15.515625 13.992188 15.582031 13.90625 15.550781 13.8125 C 15.519531 13.726562 15.40625 13.652344 15.234375 13.527344 L 15.089844 13.417969 L 14.695312 13.949219 Z M 13.714844 15.285156 L 13.355469 15.023438 L 15 12.800781 L 15.582031 13.222656 C 15.898438 13.453125 15.972656 13.527344 16.019531 13.703125 C 16.074219 13.90625 16.027344 14.050781 15.9375 14.175781 L 15.664062 14.53125 C 15.582031 14.640625 15.425781 14.726562 15.308594 14.738281 C 15.160156 14.75 15.035156 14.699219 15.023438 14.699219 L 14.6875 15.992188 L 14.320312 15.726562 L 14.667969 14.457031 L 14.445312 14.296875 Z M 13.714844 15.285156 "/>
<path style=" stroke:none;fill-rule:nonzero;fill:rgb(100%,100%,100%);fill-opacity:1;" d="M 8.457031 9.019531 L 7.589844 9.746094 L 8.027344 10.058594 Z M 7.277344 9.984375 L 6.796875 10.351562 L 6.441406 10.09375 L 8.707031 8.296875 L 9.046875 8.566406 L 8.042969 11.253906 L 7.683594 10.992188 L 7.882812 10.433594 Z M 7.277344 9.984375 "/>
<path style=" stroke:none;fill-rule:nonzero;fill:rgb(100%,100%,100%);fill-opacity:1;" d="M 9.683594 12.421875 L 9.332031 12.171875 L 9.746094 10.273438 L 8.699219 11.722656 L 8.347656 11.472656 L 9.972656 9.222656 L 10.335938 9.480469 L 9.929688 11.335938 L 10.953125 9.917969 L 11.308594 10.171875 Z M 9.683594 12.421875 "/>
<path style=" stroke:none;fill-rule:nonzero;fill:rgb(100%,100%,100%);fill-opacity:1;" d="M 10.472656 12.636719 C 10.472656 12.394531 10.691406 12.136719 10.796875 12 L 11.238281 11.390625 M 12.28125 12.484375 L 11.417969 13.640625 L 11.21875 13.496094 L 11.226562 13.378906 C 11.070312 13.371094 11.003906 13.359375 10.78125 13.199219 C 10.5625 13.042969 10.460938 12.773438 10.472656 12.636719 C 10.5 12.355469 10.691406 12.136719 10.796875 12 L 11.238281 11.390625 C 11.546875 10.96875 11.605469 10.875 11.863281 10.808594 C 12.074219 10.753906 12.230469 10.824219 12.460938 10.992188 C 12.746094 11.195312 12.8125 11.378906 12.8125 11.558594 C 12.8125 11.804688 12.691406 11.914062 12.460938 12.230469 L 12.101562 11.96875 C 12.265625 11.746094 12.453125 11.558594 12.21875 11.375 C 12.121094 11.292969 12.085938 11.265625 12.015625 11.265625 C 11.910156 11.265625 11.867188 11.289062 11.734375 11.476562 L 11.1875 12.21875 C 11.066406 12.382812 10.925781 12.566406 10.925781 12.632812 C 10.925781 12.757812 10.996094 12.800781 11.121094 12.890625 C 11.328125 13.039062 11.421875 12.910156 11.644531 12.601562 L 11.710938 12.507812 L 11.355469 12.257812 L 11.550781 11.972656 Z M 12.28125 12.484375 "/>
<path style=" stroke:none;fill-rule:nonzero;fill:rgb(100%,100%,100%);fill-opacity:1;" d="M 14.191406 12.789062 L 13.652344 12.386719 L 13.230469 12.949219 L 13.769531 13.347656 L 13.507812 13.695312 L 12.96875 13.296875 L 12.523438 13.886719 L 13.066406 14.285156 L 12.800781 14.636719 L 11.902344 13.972656 L 13.5625 11.769531 L 14.460938 12.433594 Z M 14.191406 12.789062 "/>
<path style=" stroke:none;fill-rule:nonzero;fill:rgb(100%,100%,100%);fill-opacity:1;" d="M 6.386719 8.027344 C 6.558594 8.148438 6.652344 8.238281 6.746094 8.238281 C 6.84375 8.242188 6.921875 8.152344 6.992188 8.054688 C 7.0625 7.960938 7.128906 7.875 7.097656 7.78125 C 7.066406 7.695312 6.953125 7.617188 6.78125 7.496094 L 6.632812 7.386719 L 6.242188 7.917969 Z M 5.261719 9.253906 L 4.902344 8.992188 L 6.546875 6.769531 L 7.125 7.191406 C 7.445312 7.421875 7.515625 7.496094 7.5625 7.671875 C 7.621094 7.875 7.574219 8.019531 7.480469 8.144531 L 7.207031 8.5 C 7.125 8.609375 6.972656 8.695312 6.851562 8.707031 C 6.707031 8.71875 6.578125 8.667969 6.570312 8.667969 L 6.230469 9.960938 L 5.867188 9.695312 L 6.210938 8.425781 L 5.992188 8.265625 Z M 5.261719 9.253906 "/>
<path style=" stroke:none;fill-rule:nonzero;fill:rgb(100%,100%,100%);fill-opacity:1;" d="M 17.023438 15.222656 C 17.28125 14.984375 17.238281 14.742188 17.070312 14.632812 C 16.917969 14.535156 16.726562 14.496094 16.574219 14.6875 C 16.515625 14.761719 16.492188 14.867188 16.515625 14.976562 C 16.535156 15.082031 16.507812 15.109375 16.652344 15.46875 C 16.761719 15.757812 16.773438 15.90625 16.773438 16.050781 C 16.773438 16.085938 16.761719 16.390625 16.636719 16.523438 C 16.289062 16.878906 15.941406 16.9375 15.464844 16.554688 C 14.742188 15.972656 15.453125 15.378906 15.484375 15.320312 L 15.777344 15.53125 C 15.628906 15.753906 15.363281 16.054688 15.804688 16.300781 C 15.925781 16.367188 16.140625 16.433594 16.28125 16.257812 C 16.367188 16.148438 16.382812 15.988281 16.230469 15.582031 C 16.046875 15.101562 16.054688 15.070312 16.035156 14.902344 C 16.019531 14.738281 16.066406 14.578125 16.171875 14.445312 C 16.453125 14.089844 16.957031 13.96875 17.390625 14.347656 C 17.929688 14.820312 17.574219 15.191406 17.386719 15.488281 Z M 17.023438 15.222656 "/>
</g>
</svg>
