<?xml version="1.0" encoding="UTF-8"?>
<svg xmlns="http://www.w3.org/2000/svg" xmlns:xlink="http://www.w3.org/1999/xlink" width="35pt" height="25pt" viewBox="0 0 35 25" version="1.1">
<defs>
<clipPath id="clip1">
  <path d="M 7.1875 5.023438 L 9.253906 5.023438 L 9.253906 17.96875 L 7.1875 17.96875 Z M 7.1875 5.023438 "/>
</clipPath>
<clipPath id="clip2">
  <path d="M 7.941406 17.507812 C 7.765625 16.917969 7.667969 16.265625 7.667969 15.554688 C 7.667969 13.699219 8.917969 12.152344 9.214844 10.269531 C 9.242188 10.023438 9.253906 9.761719 9.253906 9.480469 C 9.253906 7.324219 8.226562 5.507812 8.226562 5.507812 L 7.199219 5.023438 L 7.894531 6.605469 C 8.246094 7.398438 8.511719 8.378906 8.511719 9.484375 C 8.511719 12.183594 7.1875 12.722656 7.1875 15.554688 C 7.1875 16.417969 7.335938 17.226562 7.597656 17.96875 C 7.683594 17.800781 7.804688 17.632812 7.941406 17.507812 "/>
</clipPath>
<linearGradient id="linear0" gradientUnits="userSpaceOnUse" x1="140.3531" y1="38.4615" x2="142.796" y2="38.4615" gradientTransform="matrix(1.0852,0,0,1.0852,-145.322912,-30.242063)">
<stop offset="0" style="stop-color:rgb(100%,100%,100%);stop-opacity:1;"/>
<stop offset="0.1124" style="stop-color:rgb(100%,100%,100%);stop-opacity:1;"/>
<stop offset="0.27" style="stop-color:rgb(80.392157%,82.745098%,85.098039%);stop-opacity:1;"/>
<stop offset="0.4508" style="stop-color:rgb(59.607843%,65.098039%,69.411765%);stop-opacity:1;"/>
<stop offset="0.5393" style="stop-color:rgb(51.764706%,58.039216%,63.137255%);stop-opacity:1;"/>
<stop offset="1" style="stop-color:rgb(51.764706%,58.039216%,63.137255%);stop-opacity:1;"/>
</linearGradient>
<clipPath id="clip3">
  <path d="M 26.292969 5.023438 L 28.347656 5.023438 L 28.347656 12.578125 L 26.292969 12.578125 Z M 26.292969 5.023438 "/>
</clipPath>
<clipPath id="clip4">
  <path d="M 27.320312 5.503906 C 27.320312 5.503906 26.292969 7.324219 26.292969 9.480469 C 26.292969 10.621094 26.757812 11.550781 27.179688 12.578125 L 27.734375 12.558594 C 27.390625 11.699219 27.035156 10.882812 27.035156 9.484375 C 27.035156 8.378906 27.300781 7.398438 27.652344 6.605469 L 28.347656 5.023438 Z M 27.320312 5.503906 "/>
</clipPath>
<linearGradient id="linear1" gradientUnits="userSpaceOnUse" x1="77.2574" y1="2.6353" x2="79.6995" y2="2.6353" gradientTransform="matrix(0,-3.200737,3.200737,0,18.884725,259.961025)">
<stop offset="0" style="stop-color:rgb(100%,100%,100%);stop-opacity:1;"/>
<stop offset="0.3483" style="stop-color:rgb(100%,100%,100%);stop-opacity:1;"/>
<stop offset="0.5618" style="stop-color:rgb(51.764706%,58.039216%,63.137255%);stop-opacity:1;"/>
<stop offset="1" style="stop-color:rgb(51.764706%,58.039216%,63.137255%);stop-opacity:1;"/>
</linearGradient>
<clipPath id="clip5">
  <path d="M 7.597656 17.507812 L 17.773438 17.507812 L 17.773438 24.9375 L 7.597656 24.9375 Z M 7.597656 17.507812 "/>
</clipPath>
<clipPath id="clip6">
  <path d="M 16.964844 22.976562 C 16.125 22.671875 14.980469 22.566406 13.328125 22.148438 C 11.0625 21.574219 8.726562 20.121094 7.941406 17.507812 C 7.804688 17.636719 7.683594 17.800781 7.597656 17.972656 C 8.492188 20.488281 10.726562 22.257812 13.140625 22.878906 C 14.6875 23.269531 15.40625 23.308594 16.558594 23.628906 C 16.710938 23.789062 17.773438 24.9375 17.773438 24.9375 L 17.773438 23.835938 C 17.773438 23.835938 17.074219 23.078125 16.964844 22.976562 "/>
</clipPath>
<linearGradient id="linear2" gradientUnits="userSpaceOnUse" x1="107.5259" y1="-0.6831" x2="109.9676" y2="-0.6831" gradientTransform="matrix(4.201925,0,0,4.201925,-444.289413,24.090487)">
<stop offset="0" style="stop-color:rgb(100%,100%,100%);stop-opacity:1;"/>
<stop offset="0.1517" style="stop-color:rgb(100%,100%,100%);stop-opacity:1;"/>
<stop offset="0.2072" style="stop-color:rgb(98.039216%,98.039216%,98.431373%);stop-opacity:1;"/>
<stop offset="0.2757" style="stop-color:rgb(92.156863%,92.941176%,93.72549%);stop-opacity:1;"/>
<stop offset="0.351" style="stop-color:rgb(82.352941%,84.313725%,86.27451%);stop-opacity:1;"/>
<stop offset="0.4311" style="stop-color:rgb(68.627451%,72.54902%,76.078431%);stop-opacity:1;"/>
<stop offset="0.5112" style="stop-color:rgb(51.764706%,58.039216%,63.137255%);stop-opacity:1;"/>
<stop offset="1" style="stop-color:rgb(51.764706%,58.039216%,63.137255%);stop-opacity:1;"/>
</linearGradient>
<clipPath id="clip7">
  <path d="M 8.675781 3.144531 L 26.871094 3.144531 L 26.871094 22.71875 L 8.675781 22.71875 Z M 8.675781 3.144531 "/>
</clipPath>
<clipPath id="clip8">
  <path d="M 23.773438 3.464844 C 23.773438 3.464844 22.632812 4.527344 21.058594 4.527344 C 19.085938 4.527344 17.773438 3.144531 17.773438 3.144531 C 17.773438 3.144531 16.464844 4.53125 14.492188 4.53125 C 12.914062 4.53125 11.773438 3.464844 11.773438 3.464844 C 10.972656 5.640625 9.253906 5.988281 9.253906 5.988281 C 9.253906 5.988281 9.996094 7.507812 9.996094 9.480469 C 9.996094 12.40625 8.675781 13.25 8.675781 15.554688 C 8.675781 18.773438 11.183594 20.824219 13.511719 21.414062 C 15.355469 21.882812 16.558594 21.9375 17.367188 22.328125 C 17.367188 22.328125 17.664062 22.597656 17.773438 22.71875 C 17.886719 22.597656 18.179688 22.328125 18.179688 22.328125 C 18.988281 21.9375 20.191406 21.882812 22.035156 21.414062 C 24.363281 20.824219 26.871094 18.773438 26.871094 15.554688 C 26.871094 13.25 25.550781 12.40625 25.550781 9.480469 C 25.550781 7.507812 26.296875 5.988281 26.296875 5.988281 C 26.296875 5.988281 24.574219 5.640625 23.773438 3.464844 M 10.84375 9.480469 C 10.84375 8.226562 10.570312 7.148438 10.339844 6.449219 C 10.882812 6.152344 11.5625 5.625 12.105469 4.71875 C 12.691406 5.042969 13.519531 5.375 14.492188 5.375 C 15.964844 5.375 17.117188 4.730469 17.773438 4.246094 C 18.433594 4.730469 19.585938 5.375 21.058594 5.375 C 21.292969 5.375 21.519531 5.355469 21.734375 5.320312 L 9.671875 14.378906 C 10.019531 13.015625 10.84375 11.886719 10.84375 9.480469 M 26.027344 15.554688 C 26.027344 18.285156 23.851562 20.082031 21.828125 20.597656 C 20.367188 20.96875 18.582031 21.160156 18.042969 21.46875 C 17.921875 21.554688 17.773438 21.714844 17.773438 21.714844 C 17.773438 21.714844 17.625 21.554688 17.503906 21.46875 C 16.964844 21.160156 15.179688 20.96875 13.71875 20.597656 C 13.664062 20.582031 13.609375 20.566406 13.554688 20.554688 L 25.039062 11.929688 C 25.429688 13.296875 26.027344 14.191406 26.027344 15.554688 M 24.703125 9.480469 C 24.703125 10 24.742188 10.457031 24.804688 10.875 L 12.484375 20.128906 C 10.941406 19.332031 9.589844 17.8125 9.523438 15.71875 L 23.683594 5.085938 C 24.175781 5.769531 24.746094 6.195312 25.210938 6.449219 C 24.976562 7.148438 24.703125 8.226562 24.703125 9.480469 "/>
</clipPath>
<linearGradient id="linear3" gradientUnits="userSpaceOnUse" x1="86.6641" y1="-15.0859" x2="89.106" y2="-15.0859" gradientTransform="matrix(-5.344412,-7.632612,7.632612,-5.344412,602.331388,602.692662)">
<stop offset="0" style="stop-color:rgb(51.764706%,58.039216%,63.137255%);stop-opacity:1;"/>
<stop offset="0.0422" style="stop-color:rgb(60%,65.098039%,69.019608%);stop-opacity:1;"/>
<stop offset="0.135" style="stop-color:rgb(76.078431%,78.431373%,80.392157%);stop-opacity:1;"/>
<stop offset="0.2084" style="stop-color:rgb(85.882353%,86.666667%,87.45098%);stop-opacity:1;"/>
<stop offset="0.2528" style="stop-color:rgb(89.411765%,89.803922%,90.196078%);stop-opacity:1;"/>
<stop offset="0.7528" style="stop-color:rgb(89.411765%,89.803922%,90.196078%);stop-opacity:1;"/>
<stop offset="0.7951" style="stop-color:rgb(86.27451%,87.058824%,87.843137%);stop-opacity:1;"/>
<stop offset="0.8602" style="stop-color:rgb(77.647059%,80%,81.960784%);stop-opacity:1;"/>
<stop offset="0.9397" style="stop-color:rgb(63.921569%,68.235294%,72.156863%);stop-opacity:1;"/>
<stop offset="1" style="stop-color:rgb(51.764706%,58.039216%,63.137255%);stop-opacity:1;"/>
</linearGradient>
<clipPath id="clip9">
  <path d="M 11.101562 0.960938 L 17.773438 0.960938 L 17.773438 3.773438 L 11.101562 3.773438 Z M 11.101562 0.960938 "/>
</clipPath>
<clipPath id="clip10">
  <path d="M 14.492188 3.773438 C 16.472656 3.773438 17.773438 2.089844 17.773438 2.089844 L 17.773438 1.039062 L 16.738281 2.0625 C 16.203125 2.589844 15.351562 3.019531 14.492188 3.019531 C 13.847656 3.019531 13.242188 2.734375 12.710938 2.296875 L 11.101562 0.960938 L 11.4375 2.214844 C 11.4375 2.214844 12.953125 3.773438 14.492188 3.773438 "/>
</clipPath>
<linearGradient id="linear4" gradientUnits="userSpaceOnUse" x1="114.2925" y1="3.354" x2="116.7355" y2="3.354" gradientTransform="matrix(2.761675,0,0,2.761675,-304.594825,-6.893213)">
<stop offset="0" style="stop-color:rgb(100%,100%,100%);stop-opacity:1;"/>
<stop offset="0.2472" style="stop-color:rgb(100%,100%,100%);stop-opacity:1;"/>
<stop offset="0.3304" style="stop-color:rgb(98.039216%,98.039216%,98.431373%);stop-opacity:1;"/>
<stop offset="0.4332" style="stop-color:rgb(92.156863%,92.941176%,93.72549%);stop-opacity:1;"/>
<stop offset="0.5462" style="stop-color:rgb(82.352941%,84.313725%,86.27451%);stop-opacity:1;"/>
<stop offset="0.6663" style="stop-color:rgb(68.627451%,72.54902%,76.078431%);stop-opacity:1;"/>
<stop offset="0.7865" style="stop-color:rgb(51.764706%,58.039216%,63.137255%);stop-opacity:1;"/>
<stop offset="1" style="stop-color:rgb(51.764706%,58.039216%,63.137255%);stop-opacity:1;"/>
</linearGradient>
<clipPath id="clip11">
  <path d="M 17.773438 12.558594 L 28.359375 12.558594 L 28.359375 24.9375 L 17.773438 24.9375 Z M 17.773438 12.558594 "/>
</clipPath>
<clipPath id="clip12">
  <path d="M 27.863281 15.554688 C 27.863281 19.050781 25.363281 21.351562 22.222656 22.148438 C 20.566406 22.566406 19.421875 22.671875 18.582031 22.976562 C 18.472656 23.078125 17.773438 23.835938 17.773438 23.835938 L 17.773438 24.9375 C 17.773438 24.9375 18.839844 23.785156 18.988281 23.628906 C 20.140625 23.308594 20.859375 23.269531 22.40625 22.878906 C 25.535156 22.074219 28.359375 19.347656 28.359375 15.554688 C 28.359375 14.1875 28.050781 13.355469 27.730469 12.558594 L 27.179688 12.578125 C 27.535156 13.4375 27.863281 14.371094 27.863281 15.554688 "/>
</clipPath>
<linearGradient id="linear5" gradientUnits="userSpaceOnUse" x1="108.3784" y1="-1.7153" x2="110.8207" y2="-1.7153" gradientTransform="matrix(4.4011,0,0,4.4011,-459.21,26.297275)">
<stop offset="0" style="stop-color:rgb(100%,100%,100%);stop-opacity:1;"/>
<stop offset="0.1966" style="stop-color:rgb(100%,100%,100%);stop-opacity:1;"/>
<stop offset="0.3185" style="stop-color:rgb(98.039216%,98.431373%,98.823529%);stop-opacity:1;"/>
<stop offset="0.4542" style="stop-color:rgb(92.941176%,93.72549%,94.509804%);stop-opacity:1;"/>
<stop offset="0.5967" style="stop-color:rgb(84.313725%,86.27451%,87.843137%);stop-opacity:1;"/>
<stop offset="0.7438" style="stop-color:rgb(72.156863%,75.686275%,78.431373%);stop-opacity:1;"/>
<stop offset="0.893" style="stop-color:rgb(56.470588%,61.960784%,66.666667%);stop-opacity:1;"/>
<stop offset="0.9326" style="stop-color:rgb(51.764706%,58.039216%,63.137255%);stop-opacity:1;"/>
<stop offset="1" style="stop-color:rgb(51.764706%,58.039216%,63.137255%);stop-opacity:1;"/>
</linearGradient>
<clipPath id="clip13">
  <path d="M 17.773438 0.960938 L 24.445312 0.960938 L 24.445312 3.773438 L 17.773438 3.773438 Z M 17.773438 0.960938 "/>
</clipPath>
<clipPath id="clip14">
  <path d="M 21.058594 3.773438 C 22.59375 3.773438 24.109375 2.214844 24.109375 2.214844 L 24.445312 0.960938 L 22.835938 2.296875 C 22.304688 2.734375 21.699219 3.019531 21.058594 3.019531 C 20.195312 3.019531 19.34375 2.589844 18.8125 2.0625 L 17.773438 1.039062 L 17.773438 2.089844 C 17.773438 2.089844 19.078125 3.773438 21.058594 3.773438 "/>
</clipPath>
<linearGradient id="linear6" gradientUnits="userSpaceOnUse" x1="115.7339" y1="3.354" x2="118.1769" y2="3.354" gradientTransform="matrix(2.761687,0,0,2.761687,-301.834212,-6.895225)">
<stop offset="0" style="stop-color:rgb(100%,100%,100%);stop-opacity:1;"/>
<stop offset="0.2472" style="stop-color:rgb(100%,100%,100%);stop-opacity:1;"/>
<stop offset="0.3304" style="stop-color:rgb(98.039216%,98.039216%,98.431373%);stop-opacity:1;"/>
<stop offset="0.4332" style="stop-color:rgb(92.156863%,92.941176%,93.72549%);stop-opacity:1;"/>
<stop offset="0.5462" style="stop-color:rgb(82.352941%,84.313725%,86.27451%);stop-opacity:1;"/>
<stop offset="0.6663" style="stop-color:rgb(68.627451%,72.54902%,76.078431%);stop-opacity:1;"/>
<stop offset="0.7865" style="stop-color:rgb(51.764706%,58.039216%,63.137255%);stop-opacity:1;"/>
<stop offset="1" style="stop-color:rgb(51.764706%,58.039216%,63.137255%);stop-opacity:1;"/>
</linearGradient>
<clipPath id="clip15">
  <path d="M 6.925781 0.546875 L 11.164062 0.546875 L 11.164062 5.089844 L 6.925781 5.089844 Z M 6.925781 0.546875 "/>
</clipPath>
<clipPath id="clip16">
  <path d="M 11.164062 1.796875 L 10.828125 0.546875 L 10.109375 2.523438 C 9.796875 3.375 9.277344 3.914062 8.5625 4.121094 L 6.925781 4.605469 L 7.953125 5.089844 C 7.953125 5.089844 10.480469 4.867188 11.164062 1.796875 "/>
</clipPath>
<linearGradient id="linear7" gradientUnits="userSpaceOnUse" x1="121.3843" y1="12.5347" x2="123.8264" y2="12.5347" gradientTransform="matrix(1.895887,0,0,1.895887,-223.418475,-20.946075)">
<stop offset="0" style="stop-color:rgb(100%,100%,100%);stop-opacity:1;"/>
<stop offset="0.3876" style="stop-color:rgb(100%,100%,100%);stop-opacity:1;"/>
<stop offset="0.4613" style="stop-color:rgb(98.039216%,98.039216%,98.431373%);stop-opacity:1;"/>
<stop offset="0.5523" style="stop-color:rgb(92.156863%,92.941176%,93.72549%);stop-opacity:1;"/>
<stop offset="0.6524" style="stop-color:rgb(82.352941%,84.313725%,86.27451%);stop-opacity:1;"/>
<stop offset="0.7587" style="stop-color:rgb(68.627451%,72.54902%,76.078431%);stop-opacity:1;"/>
<stop offset="0.8652" style="stop-color:rgb(51.764706%,58.039216%,63.137255%);stop-opacity:1;"/>
<stop offset="1" style="stop-color:rgb(51.764706%,58.039216%,63.137255%);stop-opacity:1;"/>
</linearGradient>
</defs>
<g id="surface1">
<path style=" stroke:none;fill-rule:nonzero;fill:rgb(100%,100%,100%);fill-opacity:1;" d="M 7.933594 15.554688 C 7.933594 13.285156 8.996094 12.421875 9.214844 10.269531 C 8.917969 12.152344 7.667969 13.699219 7.667969 15.554688 C 7.667969 16.265625 7.765625 16.917969 7.941406 17.507812 C 8.726562 20.121094 11.0625 21.574219 13.328125 22.148438 C 9.839844 21.265625 7.933594 18.339844 7.933594 15.554688 "/>
<path style=" stroke:none;fill-rule:nonzero;fill:rgb(100%,100%,100%);fill-opacity:1;" d="M 27.179688 12.578125 C 26.757812 11.550781 26.292969 10.621094 26.292969 9.480469 C 26.292969 12.242188 27.613281 13.023438 27.613281 15.554688 C 27.613281 18.339844 25.707031 21.265625 22.222656 22.148438 C 25.363281 21.351562 27.863281 19.050781 27.863281 15.554688 C 27.863281 14.371094 27.535156 13.4375 27.179688 12.578125 "/>
<path style=" stroke:none;fill-rule:nonzero;fill:rgb(89.411765%,89.803922%,90.196078%);fill-opacity:1;" d="M 26.710938 4.539062 C 25.996094 4.328125 25.476562 3.792969 25.167969 2.9375 L 24.445312 0.960938 L 24.109375 2.214844 C 24.792969 5.285156 27.320312 5.503906 27.320312 5.503906 L 28.347656 5.023438 Z M 26.710938 4.539062 "/>
<path style=" stroke:none;fill-rule:nonzero;fill:rgb(89.411765%,89.803922%,90.196078%);fill-opacity:1;" d="M 14.78125 15.726562 L 13.460938 13.703125 L 11.992188 14.804688 C 11.992188 14.804688 12.503906 14.820312 12.503906 15.359375 L 12.503906 19.171875 L 13.542969 18.394531 L 13.542969 15.699219 L 14.722656 17.507812 L 15.820312 16.683594 L 15.820312 11.929688 L 14.78125 12.707031 Z M 14.78125 15.726562 "/>
<path style=" stroke:none;fill-rule:nonzero;fill:rgb(89.411765%,89.803922%,90.196078%);fill-opacity:1;" d="M 18.984375 11.308594 L 17.816406 12.1875 L 17.816406 10.429688 L 16.238281 11.617188 C 16.238281 11.617188 16.75 11.628906 16.75 12.167969 L 16.75 15.984375 L 17.816406 15.1875 L 17.816406 13.445312 L 18.984375 12.570312 L 18.984375 14.308594 L 20 13.546875 L 20 8.789062 L 18.984375 9.550781 Z M 18.984375 11.308594 "/>
<path style=" stroke:none;fill-rule:nonzero;fill:rgb(89.411765%,89.803922%,90.196078%);fill-opacity:1;" d="M 21.949219 10.867188 L 21.949219 7.328125 L 20.371094 8.511719 C 20.371094 8.511719 20.882812 8.527344 20.882812 9.066406 L 20.882812 12.882812 L 23.824219 10.671875 C 23.761719 9.914062 23.824219 9.460938 23.824219 9.460938 Z M 21.949219 10.867188 "/>
<g clip-path="url(#clip1)" clip-rule="nonzero">
<g clip-path="url(#clip2)" clip-rule="nonzero">
<path style=" stroke:none;fill-rule:nonzero;fill:url(#linear0);" d="M 7.1875 5.023438 L 9.253906 5.023438 L 9.253906 17.96875 L 7.1875 17.96875 Z M 7.1875 5.023438 "/>
</g>
</g>
<g clip-path="url(#clip3)" clip-rule="nonzero">
<g clip-path="url(#clip4)" clip-rule="nonzero">
<path style=" stroke:none;fill-rule:nonzero;fill:url(#linear1);" d="M 26.292969 5.023438 L 28.347656 5.023438 L 28.347656 12.578125 L 26.292969 12.578125 Z M 26.292969 5.023438 "/>
</g>
</g>
<g clip-path="url(#clip5)" clip-rule="nonzero">
<g clip-path="url(#clip6)" clip-rule="nonzero">
<path style=" stroke:none;fill-rule:nonzero;fill:url(#linear2);" d="M 7.597656 17.507812 L 17.773438 17.507812 L 17.773438 24.9375 L 7.597656 24.9375 Z M 7.597656 17.507812 "/>
</g>
</g>
<g clip-path="url(#clip7)" clip-rule="nonzero">
<g clip-path="url(#clip8)" clip-rule="nonzero">
<path style=" stroke:none;fill-rule:nonzero;fill:url(#linear3);" d="M 36.070312 16.28125 L 14.664062 31.269531 L -0.523438 9.585938 L 20.886719 -5.40625 Z M 36.070312 16.28125 "/>
</g>
</g>
<g clip-path="url(#clip9)" clip-rule="nonzero">
<g clip-path="url(#clip10)" clip-rule="nonzero">
<path style=" stroke:none;fill-rule:nonzero;fill:url(#linear4);" d="M 11.101562 0.960938 L 17.773438 0.960938 L 17.773438 3.773438 L 11.101562 3.773438 Z M 11.101562 0.960938 "/>
</g>
</g>
<g clip-path="url(#clip11)" clip-rule="nonzero">
<g clip-path="url(#clip12)" clip-rule="nonzero">
<path style=" stroke:none;fill-rule:nonzero;fill:url(#linear5);" d="M 17.773438 12.558594 L 28.359375 12.558594 L 28.359375 24.9375 L 17.773438 24.9375 Z M 17.773438 12.558594 "/>
</g>
</g>
<g clip-path="url(#clip13)" clip-rule="nonzero">
<g clip-path="url(#clip14)" clip-rule="nonzero">
<path style=" stroke:none;fill-rule:nonzero;fill:url(#linear6);" d="M 17.773438 0.960938 L 24.445312 0.960938 L 24.445312 3.773438 L 17.773438 3.773438 Z M 17.773438 0.960938 "/>
</g>
</g>
<g clip-path="url(#clip15)" clip-rule="nonzero">
<g clip-path="url(#clip16)" clip-rule="nonzero">
<path style=" stroke:none;fill-rule:nonzero;fill:url(#linear7);" d="M 6.925781 0.546875 L 11.164062 0.546875 L 11.164062 5.089844 L 6.925781 5.089844 Z M 6.925781 0.546875 "/>
</g>
</g>
<path style=" stroke:none;fill-rule:nonzero;fill:rgb(0%,0%,0%);fill-opacity:1;" d="M 27.675781 6.320312 L 28.523438 4.398438 L 26.527344 3.8125 C 25.921875 3.632812 25.472656 3.160156 25.199219 2.410156 L 24.320312 0 L 22.351562 1.628906 C 21.832031 2.058594 21.304688 2.277344 20.78125 2.277344 C 20.085938 2.277344 19.296875 1.9375 18.765625 1.414062 L 17.5 0.164062 L 16.234375 1.414062 C 15.703125 1.9375 14.914062 2.277344 14.214844 2.277344 C 13.695312 2.277344 13.167969 2.058594 12.648438 1.628906 L 10.679688 0 L 9.800781 2.410156 C 9.527344 3.160156 9.078125 3.632812 8.472656 3.8125 L 6.476562 4.398438 L 7.324219 6.320312 C 7.714844 7.207031 7.914062 8.128906 7.914062 9.070312 C 7.914062 11.664062 6.589844 12.253906 6.589844 15.136719 C 6.589844 19.292969 9.800781 22.007812 12.785156 22.777344 C 14.292969 23.144531 14.75 23.167969 16.109375 23.503906 C 16.222656 23.625 17.5 25 17.5 25 C 17.5 25 18.777344 23.625 18.890625 23.503906 C 20.25 23.167969 20.707031 23.144531 22.214844 22.777344 C 25.199219 22.007812 28.410156 19.289062 28.410156 15.136719 C 28.410156 12.253906 27.085938 11.664062 27.085938 9.070312 C 27.085938 8.128906 27.285156 7.207031 27.675781 6.320312 M 27.460938 12.140625 C 27.777344 12.941406 28.085938 13.773438 28.085938 15.136719 C 28.085938 18.933594 25.261719 21.65625 22.132812 22.460938 C 20.585938 22.851562 19.867188 22.890625 18.714844 23.214844 C 18.566406 23.371094 17.5 24.519531 17.5 24.519531 C 17.5 24.519531 16.4375 23.371094 16.285156 23.214844 C 15.132812 22.890625 14.414062 22.851562 12.867188 22.460938 C 10.453125 21.839844 8.21875 20.074219 7.324219 17.554688 C 7.0625 16.808594 6.914062 16.003906 6.914062 15.136719 C 6.914062 12.304688 8.238281 11.765625 8.238281 9.070312 C 8.238281 7.960938 7.972656 6.984375 7.621094 6.1875 L 6.925781 4.605469 L 8.5625 4.125 C 9.277344 3.914062 9.796875 3.375 10.109375 2.523438 L 10.828125 0.546875 L 12.4375 1.878906 C 12.96875 2.316406 13.574219 2.605469 14.214844 2.605469 C 15.078125 2.605469 15.929688 2.175781 16.464844 1.648438 L 17.5 0.621094 L 18.535156 1.648438 C 19.070312 2.175781 19.921875 2.605469 20.785156 2.605469 C 21.425781 2.605469 22.03125 2.316406 22.5625 1.878906 L 24.171875 0.546875 L 24.894531 2.523438 C 25.203125 3.375 25.722656 3.914062 26.4375 4.125 L 28.074219 4.605469 L 27.378906 6.1875 C 27.027344 6.984375 26.761719 7.960938 26.761719 9.070312 C 26.761719 10.464844 27.117188 11.285156 27.460938 12.140625 "/>
<path style=" stroke:none;fill-rule:nonzero;fill:rgb(0%,0%,0%);fill-opacity:1;" d="M 27.046875 5.089844 C 27.046875 5.089844 24.519531 4.867188 23.835938 1.796875 C 23.835938 1.796875 22.320312 3.355469 20.785156 3.355469 C 18.804688 3.355469 17.5 1.675781 17.5 1.675781 C 17.5 1.675781 16.195312 3.355469 14.214844 3.355469 C 12.679688 3.355469 11.164062 1.796875 11.164062 1.796875 C 10.480469 4.867188 7.953125 5.089844 7.953125 5.089844 C 7.953125 5.089844 8.980469 6.910156 8.980469 9.0625 C 8.980469 9.34375 8.964844 9.605469 8.941406 9.851562 C 8.722656 12.003906 7.660156 12.867188 7.660156 15.136719 C 7.660156 17.921875 9.566406 20.847656 13.050781 21.730469 C 14.707031 22.148438 15.851562 22.253906 16.691406 22.558594 C 16.800781 22.660156 17.5 23.417969 17.5 23.417969 C 17.5 23.417969 18.199219 22.660156 18.308594 22.558594 C 19.148438 22.253906 20.292969 22.148438 21.949219 21.730469 C 25.433594 20.847656 27.339844 17.921875 27.339844 15.136719 C 27.339844 12.609375 26.019531 11.824219 26.019531 9.0625 C 26.019531 6.90625 27.046875 5.089844 27.046875 5.089844 M 26.597656 15.136719 C 26.597656 18.359375 24.089844 20.410156 21.761719 21 C 19.917969 21.464844 18.714844 21.519531 17.90625 21.910156 C 17.90625 21.910156 17.613281 22.179688 17.5 22.304688 C 17.386719 22.179688 17.09375 21.910156 17.09375 21.910156 C 16.285156 21.519531 15.082031 21.464844 13.238281 21 C 10.910156 20.40625 8.402344 18.359375 8.402344 15.136719 C 8.402344 12.835938 9.722656 11.988281 9.722656 9.0625 C 9.722656 7.089844 8.980469 5.570312 8.980469 5.570312 C 8.980469 5.570312 10.699219 5.222656 11.5 3.046875 C 11.5 3.046875 12.640625 4.113281 14.214844 4.113281 C 16.191406 4.113281 17.5 2.726562 17.5 2.726562 C 17.5 2.726562 18.808594 4.113281 20.785156 4.113281 C 22.359375 4.113281 23.5 3.046875 23.5 3.046875 C 24.300781 5.222656 26.019531 5.570312 26.019531 5.570312 C 26.019531 5.570312 25.277344 7.089844 25.277344 9.0625 C 25.277344 11.988281 26.597656 12.835938 26.597656 15.136719 "/>
<path style=" stroke:none;fill-rule:nonzero;fill:rgb(0%,0%,0%);fill-opacity:1;" d="M 20.785156 4.957031 C 19.308594 4.957031 18.160156 4.3125 17.5 3.828125 C 16.839844 4.3125 15.691406 4.957031 14.214844 4.957031 C 13.242188 4.957031 12.417969 4.628906 11.832031 4.300781 C 11.289062 5.207031 10.609375 5.734375 10.0625 6.03125 C 10.296875 6.730469 10.570312 7.8125 10.570312 9.0625 C 10.570312 11.472656 9.746094 12.597656 9.398438 13.960938 L 21.460938 4.902344 C 21.246094 4.9375 21.019531 4.957031 20.785156 4.957031 "/>
<path style=" stroke:none;fill-rule:nonzero;fill:rgb(0%,0%,0%);fill-opacity:1;" d="M 24.429688 9.0625 C 24.429688 7.8125 24.703125 6.730469 24.9375 6.03125 C 24.472656 5.777344 23.902344 5.355469 23.410156 4.667969 L 9.25 15.304688 C 9.316406 17.394531 10.667969 18.917969 12.210938 19.710938 L 24.53125 10.457031 C 24.46875 10.042969 24.429688 9.582031 24.429688 9.0625 M 15.546875 16.269531 L 14.449219 17.089844 L 13.269531 15.28125 L 13.269531 17.976562 L 12.230469 18.757812 L 12.230469 14.941406 C 12.230469 14.402344 11.714844 14.386719 11.714844 14.386719 L 13.1875 13.285156 L 14.507812 15.3125 L 14.507812 12.292969 L 15.546875 11.511719 Z M 19.726562 13.128906 L 18.710938 13.890625 L 18.710938 12.152344 L 17.542969 13.03125 L 17.542969 14.769531 L 16.476562 15.566406 L 16.476562 11.753906 C 16.476562 11.214844 15.964844 11.199219 15.964844 11.199219 L 17.542969 10.011719 L 17.542969 11.769531 L 18.710938 10.894531 L 18.710938 9.136719 L 19.726562 8.375 Z M 23.550781 10.257812 L 20.609375 12.464844 L 20.609375 8.648438 C 20.609375 8.109375 20.09375 8.097656 20.09375 8.097656 L 21.675781 6.910156 L 21.675781 10.453125 L 23.550781 9.042969 C 23.550781 9.042969 23.488281 9.496094 23.550781 10.257812 "/>
<path style=" stroke:none;fill-rule:nonzero;fill:rgb(0%,0%,0%);fill-opacity:1;" d="M 13.28125 20.136719 C 13.335938 20.152344 13.390625 20.167969 13.445312 20.179688 C 14.90625 20.550781 16.691406 20.742188 17.230469 21.050781 C 17.351562 21.140625 17.5 21.296875 17.5 21.296875 C 17.5 21.296875 17.648438 21.140625 17.769531 21.050781 C 18.308594 20.742188 20.09375 20.550781 21.554688 20.179688 C 23.578125 19.664062 25.753906 17.871094 25.753906 15.136719 C 25.753906 13.773438 25.15625 12.878906 24.765625 11.511719 Z M 13.28125 20.136719 "/>
</g>
</svg>
