<?xml version="1.0" encoding="UTF-8"?>
<svg xmlns="http://www.w3.org/2000/svg" xmlns:xlink="http://www.w3.org/1999/xlink" width="28pt" height="20pt" viewBox="0 0 28 20" version="1.1">
<defs>
<clipPath id="clip1">
  <path d="M 5.75 4.019531 L 7.402344 4.019531 L 7.402344 14.375 L 5.75 14.375 Z M 5.75 4.019531 "/>
</clipPath>
<clipPath id="clip2">
  <path d="M 6.355469 14.007812 C 6.210938 13.535156 6.132812 13.015625 6.132812 12.445312 C 6.132812 10.960938 7.132812 9.722656 7.371094 8.214844 C 7.390625 8.019531 7.402344 7.808594 7.402344 7.582031 C 7.402344 5.859375 6.582031 4.40625 6.582031 4.40625 L 5.761719 4.019531 L 6.316406 5.28125 C 6.597656 5.921875 6.808594 6.703125 6.808594 7.589844 C 6.808594 9.746094 5.75 10.175781 5.75 12.445312 C 5.75 13.136719 5.867188 13.78125 6.078125 14.375 C 6.144531 14.238281 6.242188 14.109375 6.355469 14.007812 "/>
</clipPath>
<linearGradient id="linear0" gradientUnits="userSpaceOnUse" x1="140.3531" y1="38.4615" x2="142.796" y2="38.4615" gradientTransform="matrix(0.86816,0,0,0.86816,-116.25833,-24.19365)">
<stop offset="0" style="stop-color:rgb(100%,100%,100%);stop-opacity:1;"/>
<stop offset="0.1124" style="stop-color:rgb(100%,100%,100%);stop-opacity:1;"/>
<stop offset="0.27" style="stop-color:rgb(80.392157%,82.745098%,85.098039%);stop-opacity:1;"/>
<stop offset="0.4508" style="stop-color:rgb(59.607843%,65.098039%,69.411765%);stop-opacity:1;"/>
<stop offset="0.5393" style="stop-color:rgb(51.764706%,58.039216%,63.137255%);stop-opacity:1;"/>
<stop offset="1" style="stop-color:rgb(51.764706%,58.039216%,63.137255%);stop-opacity:1;"/>
</linearGradient>
<clipPath id="clip3">
  <path d="M 21.035156 4.019531 L 22.679688 4.019531 L 22.679688 10.0625 L 21.035156 10.0625 Z M 21.035156 4.019531 "/>
</clipPath>
<clipPath id="clip4">
  <path d="M 21.855469 4.40625 C 21.855469 4.40625 21.035156 5.859375 21.035156 7.582031 C 21.035156 8.496094 21.40625 9.238281 21.742188 10.0625 L 22.1875 10.046875 C 21.914062 9.359375 21.628906 8.707031 21.628906 7.589844 C 21.628906 6.703125 21.839844 5.917969 22.121094 5.28125 L 22.679688 4.019531 Z M 21.855469 4.40625 "/>
</clipPath>
<linearGradient id="linear1" gradientUnits="userSpaceOnUse" x1="77.2574" y1="2.6353" x2="79.6995" y2="2.6353" gradientTransform="matrix(0,-2.56059,2.56059,0,15.10778,207.96882)">
<stop offset="0" style="stop-color:rgb(100%,100%,100%);stop-opacity:1;"/>
<stop offset="0.3483" style="stop-color:rgb(100%,100%,100%);stop-opacity:1;"/>
<stop offset="0.5618" style="stop-color:rgb(51.764706%,58.039216%,63.137255%);stop-opacity:1;"/>
<stop offset="1" style="stop-color:rgb(51.764706%,58.039216%,63.137255%);stop-opacity:1;"/>
</linearGradient>
<clipPath id="clip5">
  <path d="M 6.078125 14.007812 L 14.21875 14.007812 L 14.21875 19.949219 L 6.078125 19.949219 Z M 6.078125 14.007812 "/>
</clipPath>
<clipPath id="clip6">
  <path d="M 13.574219 18.378906 C 12.898438 18.136719 11.984375 18.050781 10.660156 17.71875 C 8.851562 17.257812 6.980469 16.097656 6.355469 14.007812 C 6.242188 14.109375 6.144531 14.242188 6.078125 14.375 C 6.792969 16.390625 8.582031 17.804688 10.511719 18.304688 C 11.75 18.613281 12.324219 18.644531 13.246094 18.902344 C 13.367188 19.03125 14.21875 19.949219 14.21875 19.949219 L 14.21875 19.070312 C 14.21875 19.070312 13.660156 18.460938 13.574219 18.378906 "/>
</clipPath>
<linearGradient id="linear2" gradientUnits="userSpaceOnUse" x1="107.5259" y1="-0.6831" x2="109.9676" y2="-0.6831" gradientTransform="matrix(3.36154,0,0,3.36154,-355.43153,19.27239)">
<stop offset="0" style="stop-color:rgb(100%,100%,100%);stop-opacity:1;"/>
<stop offset="0.1517" style="stop-color:rgb(100%,100%,100%);stop-opacity:1;"/>
<stop offset="0.2072" style="stop-color:rgb(98.039216%,98.039216%,98.431373%);stop-opacity:1;"/>
<stop offset="0.2757" style="stop-color:rgb(92.156863%,92.941176%,93.72549%);stop-opacity:1;"/>
<stop offset="0.351" style="stop-color:rgb(82.352941%,84.313725%,86.27451%);stop-opacity:1;"/>
<stop offset="0.4311" style="stop-color:rgb(68.627451%,72.54902%,76.078431%);stop-opacity:1;"/>
<stop offset="0.5112" style="stop-color:rgb(51.764706%,58.039216%,63.137255%);stop-opacity:1;"/>
<stop offset="1" style="stop-color:rgb(51.764706%,58.039216%,63.137255%);stop-opacity:1;"/>
</linearGradient>
<clipPath id="clip7">
  <path d="M 6.941406 2.515625 L 21.496094 2.515625 L 21.496094 18.175781 L 6.941406 18.175781 Z M 6.941406 2.515625 "/>
</clipPath>
<clipPath id="clip8">
  <path d="M 19.019531 2.769531 C 19.019531 2.769531 18.105469 3.625 16.847656 3.625 C 15.265625 3.625 14.21875 2.515625 14.21875 2.515625 C 14.21875 2.515625 13.171875 3.625 11.59375 3.625 C 10.332031 3.625 9.417969 2.769531 9.417969 2.769531 C 8.777344 4.511719 7.402344 4.789062 7.402344 4.789062 C 7.402344 4.789062 8 6.007812 8 7.582031 C 8 9.925781 6.941406 10.601562 6.941406 12.445312 C 6.941406 15.019531 8.949219 16.660156 10.808594 17.132812 C 12.285156 17.507812 13.246094 17.550781 13.894531 17.863281 C 13.894531 17.863281 14.128906 18.078125 14.21875 18.175781 C 14.308594 18.078125 14.542969 17.863281 14.542969 17.863281 C 15.191406 17.550781 16.15625 17.507812 17.628906 17.132812 C 19.488281 16.660156 21.496094 15.019531 21.496094 12.445312 C 21.496094 10.601562 20.441406 9.925781 20.441406 7.582031 C 20.441406 6.007812 21.035156 4.789062 21.035156 4.789062 C 21.035156 4.789062 19.660156 4.511719 19.019531 2.769531 M 8.675781 7.582031 C 8.675781 6.582031 8.457031 5.71875 8.269531 5.160156 C 8.703125 4.921875 9.25 4.5 9.683594 3.773438 C 10.152344 4.035156 10.8125 4.300781 11.59375 4.300781 C 12.769531 4.300781 13.691406 3.785156 14.21875 3.398438 C 14.746094 3.785156 15.667969 4.300781 16.847656 4.300781 C 17.035156 4.300781 17.214844 4.285156 17.390625 4.257812 L 7.738281 11.503906 C 8.015625 10.414062 8.675781 9.511719 8.675781 7.582031 M 20.820312 12.445312 C 20.820312 14.628906 19.078125 16.066406 17.460938 16.476562 C 16.292969 16.773438 14.867188 16.925781 14.433594 17.175781 C 14.335938 17.246094 14.21875 17.371094 14.21875 17.371094 C 14.21875 17.371094 14.101562 17.246094 14.003906 17.175781 C 13.570312 16.925781 12.144531 16.773438 10.976562 16.476562 C 10.929688 16.46875 10.886719 16.453125 10.84375 16.441406 L 20.03125 9.542969 C 20.34375 10.636719 20.820312 11.355469 20.820312 12.445312 M 19.765625 7.582031 C 19.765625 8 19.792969 8.367188 19.84375 8.699219 L 9.988281 16.101562 C 8.753906 15.46875 7.671875 14.25 7.617188 12.574219 L 18.945312 4.066406 C 19.34375 4.617188 19.796875 4.957031 20.167969 5.160156 C 19.980469 5.71875 19.765625 6.582031 19.765625 7.582031 "/>
</clipPath>
<linearGradient id="linear3" gradientUnits="userSpaceOnUse" x1="86.6641" y1="-15.0859" x2="89.106" y2="-15.0859" gradientTransform="matrix(-4.27553,-6.10609,6.10609,-4.27553,481.86511,482.15413)">
<stop offset="0" style="stop-color:rgb(51.764706%,58.039216%,63.137255%);stop-opacity:1;"/>
<stop offset="0.0422" style="stop-color:rgb(60%,65.098039%,69.019608%);stop-opacity:1;"/>
<stop offset="0.135" style="stop-color:rgb(76.078431%,78.431373%,80.392157%);stop-opacity:1;"/>
<stop offset="0.2084" style="stop-color:rgb(85.882353%,86.666667%,87.45098%);stop-opacity:1;"/>
<stop offset="0.2528" style="stop-color:rgb(89.411765%,89.803922%,90.196078%);stop-opacity:1;"/>
<stop offset="0.7528" style="stop-color:rgb(89.411765%,89.803922%,90.196078%);stop-opacity:1;"/>
<stop offset="0.7951" style="stop-color:rgb(86.27451%,87.058824%,87.843137%);stop-opacity:1;"/>
<stop offset="0.8602" style="stop-color:rgb(77.647059%,80%,81.960784%);stop-opacity:1;"/>
<stop offset="0.9397" style="stop-color:rgb(63.921569%,68.235294%,72.156863%);stop-opacity:1;"/>
<stop offset="1" style="stop-color:rgb(51.764706%,58.039216%,63.137255%);stop-opacity:1;"/>
</linearGradient>
<clipPath id="clip9">
  <path d="M 8.882812 0.769531 L 14.21875 0.769531 L 14.21875 3.019531 L 8.882812 3.019531 Z M 8.882812 0.769531 "/>
</clipPath>
<clipPath id="clip10">
  <path d="M 11.59375 3.019531 C 13.175781 3.019531 14.21875 1.671875 14.21875 1.671875 L 14.21875 0.832031 L 13.390625 1.652344 C 12.964844 2.074219 12.28125 2.417969 11.59375 2.417969 C 11.078125 2.417969 10.59375 2.1875 10.171875 1.835938 L 8.882812 0.769531 L 9.152344 1.769531 C 9.152344 1.769531 10.363281 3.019531 11.59375 3.019531 "/>
</clipPath>
<linearGradient id="linear4" gradientUnits="userSpaceOnUse" x1="114.2925" y1="3.354" x2="116.7355" y2="3.354" gradientTransform="matrix(2.20934,0,0,2.20934,-243.67586,-5.51457)">
<stop offset="0" style="stop-color:rgb(100%,100%,100%);stop-opacity:1;"/>
<stop offset="0.2472" style="stop-color:rgb(100%,100%,100%);stop-opacity:1;"/>
<stop offset="0.3304" style="stop-color:rgb(98.039216%,98.039216%,98.431373%);stop-opacity:1;"/>
<stop offset="0.4332" style="stop-color:rgb(92.156863%,92.941176%,93.72549%);stop-opacity:1;"/>
<stop offset="0.5462" style="stop-color:rgb(82.352941%,84.313725%,86.27451%);stop-opacity:1;"/>
<stop offset="0.6663" style="stop-color:rgb(68.627451%,72.54902%,76.078431%);stop-opacity:1;"/>
<stop offset="0.7865" style="stop-color:rgb(51.764706%,58.039216%,63.137255%);stop-opacity:1;"/>
<stop offset="1" style="stop-color:rgb(51.764706%,58.039216%,63.137255%);stop-opacity:1;"/>
</linearGradient>
<clipPath id="clip11">
  <path d="M 14.21875 10.046875 L 22.6875 10.046875 L 22.6875 19.949219 L 14.21875 19.949219 Z M 14.21875 10.046875 "/>
</clipPath>
<clipPath id="clip12">
  <path d="M 22.289062 12.445312 C 22.289062 15.242188 20.289062 17.082031 17.777344 17.71875 C 16.453125 18.050781 15.539062 18.136719 14.863281 18.378906 C 14.777344 18.460938 14.21875 19.070312 14.21875 19.070312 L 14.21875 19.949219 C 14.21875 19.949219 15.070312 19.03125 15.191406 18.902344 C 16.113281 18.644531 16.6875 18.613281 17.925781 18.300781 C 20.425781 17.660156 22.6875 15.476562 22.6875 12.445312 C 22.6875 11.351562 22.441406 10.683594 22.1875 10.046875 L 21.742188 10.0625 C 22.027344 10.75 22.289062 11.496094 22.289062 12.445312 "/>
</clipPath>
<linearGradient id="linear5" gradientUnits="userSpaceOnUse" x1="108.3784" y1="-1.7153" x2="110.8207" y2="-1.7153" gradientTransform="matrix(3.52088,0,0,3.52088,-367.368,21.03782)">
<stop offset="0" style="stop-color:rgb(100%,100%,100%);stop-opacity:1;"/>
<stop offset="0.1966" style="stop-color:rgb(100%,100%,100%);stop-opacity:1;"/>
<stop offset="0.3185" style="stop-color:rgb(98.039216%,98.431373%,98.823529%);stop-opacity:1;"/>
<stop offset="0.4542" style="stop-color:rgb(92.941176%,93.72549%,94.509804%);stop-opacity:1;"/>
<stop offset="0.5967" style="stop-color:rgb(84.313725%,86.27451%,87.843137%);stop-opacity:1;"/>
<stop offset="0.7438" style="stop-color:rgb(72.156863%,75.686275%,78.431373%);stop-opacity:1;"/>
<stop offset="0.893" style="stop-color:rgb(56.470588%,61.960784%,66.666667%);stop-opacity:1;"/>
<stop offset="0.9326" style="stop-color:rgb(51.764706%,58.039216%,63.137255%);stop-opacity:1;"/>
<stop offset="1" style="stop-color:rgb(51.764706%,58.039216%,63.137255%);stop-opacity:1;"/>
</linearGradient>
<clipPath id="clip13">
  <path d="M 14.21875 0.769531 L 19.554688 0.769531 L 19.554688 3.019531 L 14.21875 3.019531 Z M 14.21875 0.769531 "/>
</clipPath>
<clipPath id="clip14">
  <path d="M 16.847656 3.019531 C 18.074219 3.019531 19.289062 1.769531 19.289062 1.769531 L 19.554688 0.769531 L 18.269531 1.835938 C 17.84375 2.1875 17.359375 2.417969 16.847656 2.417969 C 16.15625 2.417969 15.476562 2.074219 15.046875 1.652344 L 14.21875 0.832031 L 14.21875 1.671875 C 14.21875 1.671875 15.261719 3.019531 16.847656 3.019531 "/>
</clipPath>
<linearGradient id="linear6" gradientUnits="userSpaceOnUse" x1="115.7339" y1="3.354" x2="118.1769" y2="3.354" gradientTransform="matrix(2.20935,0,0,2.20935,-241.46737,-5.51618)">
<stop offset="0" style="stop-color:rgb(100%,100%,100%);stop-opacity:1;"/>
<stop offset="0.2472" style="stop-color:rgb(100%,100%,100%);stop-opacity:1;"/>
<stop offset="0.3304" style="stop-color:rgb(98.039216%,98.039216%,98.431373%);stop-opacity:1;"/>
<stop offset="0.4332" style="stop-color:rgb(92.156863%,92.941176%,93.72549%);stop-opacity:1;"/>
<stop offset="0.5462" style="stop-color:rgb(82.352941%,84.313725%,86.27451%);stop-opacity:1;"/>
<stop offset="0.6663" style="stop-color:rgb(68.627451%,72.54902%,76.078431%);stop-opacity:1;"/>
<stop offset="0.7865" style="stop-color:rgb(51.764706%,58.039216%,63.137255%);stop-opacity:1;"/>
<stop offset="1" style="stop-color:rgb(51.764706%,58.039216%,63.137255%);stop-opacity:1;"/>
</linearGradient>
<clipPath id="clip15">
  <path d="M 5.542969 0.4375 L 8.933594 0.4375 L 8.933594 4.070312 L 5.542969 4.070312 Z M 5.542969 0.4375 "/>
</clipPath>
<clipPath id="clip16">
  <path d="M 8.933594 1.4375 L 8.664062 0.4375 L 8.085938 2.019531 C 7.835938 2.699219 7.421875 3.128906 6.851562 3.296875 L 5.542969 3.683594 L 6.363281 4.070312 C 6.363281 4.070312 8.382812 3.894531 8.933594 1.4375 "/>
</clipPath>
<linearGradient id="linear7" gradientUnits="userSpaceOnUse" x1="121.3843" y1="12.5347" x2="123.8264" y2="12.5347" gradientTransform="matrix(1.51671,0,0,1.51671,-178.73478,-16.75686)">
<stop offset="0" style="stop-color:rgb(100%,100%,100%);stop-opacity:1;"/>
<stop offset="0.3876" style="stop-color:rgb(100%,100%,100%);stop-opacity:1;"/>
<stop offset="0.4613" style="stop-color:rgb(98.039216%,98.039216%,98.431373%);stop-opacity:1;"/>
<stop offset="0.5523" style="stop-color:rgb(92.156863%,92.941176%,93.72549%);stop-opacity:1;"/>
<stop offset="0.6524" style="stop-color:rgb(82.352941%,84.313725%,86.27451%);stop-opacity:1;"/>
<stop offset="0.7587" style="stop-color:rgb(68.627451%,72.54902%,76.078431%);stop-opacity:1;"/>
<stop offset="0.8652" style="stop-color:rgb(51.764706%,58.039216%,63.137255%);stop-opacity:1;"/>
<stop offset="1" style="stop-color:rgb(51.764706%,58.039216%,63.137255%);stop-opacity:1;"/>
</linearGradient>
</defs>
<g id="surface1">
<path style=" stroke:none;fill-rule:nonzero;fill:rgb(100%,100%,100%);fill-opacity:1;" d="M 6.347656 12.445312 C 6.347656 10.625 7.199219 9.9375 7.371094 8.214844 C 7.132812 9.722656 6.132812 10.960938 6.132812 12.445312 C 6.132812 13.015625 6.210938 13.535156 6.355469 14.007812 C 6.980469 16.097656 8.851562 17.257812 10.660156 17.71875 C 7.875 17.011719 6.347656 14.671875 6.347656 12.445312 "/>
<path style=" stroke:none;fill-rule:nonzero;fill:rgb(100%,100%,100%);fill-opacity:1;" d="M 21.746094 10.0625 C 21.40625 9.238281 21.035156 8.496094 21.035156 7.582031 C 21.035156 9.792969 22.089844 10.421875 22.089844 12.445312 C 22.089844 14.671875 20.566406 17.011719 17.777344 17.71875 C 20.289062 17.082031 22.289062 15.242188 22.289062 12.445312 C 22.289062 11.496094 22.027344 10.75 21.746094 10.0625 "/>
<path style=" stroke:none;fill-rule:nonzero;fill:rgb(89.411765%,89.803922%,90.196078%);fill-opacity:1;" d="M 21.367188 3.632812 C 20.796875 3.464844 20.382812 3.03125 20.132812 2.351562 L 19.554688 0.769531 L 19.289062 1.769531 C 19.835938 4.226562 21.855469 4.40625 21.855469 4.40625 L 22.675781 4.019531 Z M 21.367188 3.632812 "/>
<path style=" stroke:none;fill-rule:nonzero;fill:rgb(89.411765%,89.803922%,90.196078%);fill-opacity:1;" d="M 11.824219 12.582031 L 10.765625 10.960938 L 9.59375 11.84375 C 9.59375 11.84375 10.003906 11.855469 10.003906 12.285156 L 10.003906 15.339844 L 10.832031 14.714844 L 10.832031 12.558594 L 11.777344 14.007812 L 12.65625 13.347656 L 12.65625 9.542969 L 11.824219 10.167969 Z M 11.824219 12.582031 "/>
<path style=" stroke:none;fill-rule:nonzero;fill:rgb(89.411765%,89.803922%,90.196078%);fill-opacity:1;" d="M 15.1875 9.046875 L 14.253906 9.75 L 14.253906 8.34375 L 12.988281 9.292969 C 12.988281 9.292969 13.402344 9.304688 13.402344 9.734375 L 13.402344 12.789062 L 14.253906 12.148438 L 14.253906 10.757812 L 15.1875 10.054688 L 15.1875 11.445312 L 16 10.835938 L 16 7.03125 L 15.1875 7.640625 Z M 15.1875 9.046875 "/>
<path style=" stroke:none;fill-rule:nonzero;fill:rgb(89.411765%,89.803922%,90.196078%);fill-opacity:1;" d="M 17.558594 8.695312 L 17.558594 5.859375 L 16.296875 6.808594 C 16.296875 6.808594 16.707031 6.820312 16.707031 7.253906 L 16.707031 10.304688 L 19.058594 8.539062 C 19.007812 7.929688 19.058594 7.566406 19.058594 7.566406 Z M 17.558594 8.695312 "/>
<g clip-path="url(#clip1)" clip-rule="nonzero">
<g clip-path="url(#clip2)" clip-rule="nonzero">
<path style=" stroke:none;fill-rule:nonzero;fill:url(#linear0);" d="M 5.75 4.019531 L 7.402344 4.019531 L 7.402344 14.375 L 5.75 14.375 Z M 5.75 4.019531 "/>
</g>
</g>
<g clip-path="url(#clip3)" clip-rule="nonzero">
<g clip-path="url(#clip4)" clip-rule="nonzero">
<path style=" stroke:none;fill-rule:nonzero;fill:url(#linear1);" d="M 21.035156 4.019531 L 22.679688 4.019531 L 22.679688 10.0625 L 21.035156 10.0625 Z M 21.035156 4.019531 "/>
</g>
</g>
<g clip-path="url(#clip5)" clip-rule="nonzero">
<g clip-path="url(#clip6)" clip-rule="nonzero">
<path style=" stroke:none;fill-rule:nonzero;fill:url(#linear2);" d="M 6.078125 14.007812 L 14.21875 14.007812 L 14.21875 19.949219 L 6.078125 19.949219 Z M 6.078125 14.007812 "/>
</g>
</g>
<g clip-path="url(#clip7)" clip-rule="nonzero">
<g clip-path="url(#clip8)" clip-rule="nonzero">
<path style=" stroke:none;fill-rule:nonzero;fill:url(#linear3);" d="M 28.855469 13.023438 L 11.730469 25.015625 L -0.417969 7.667969 L 16.707031 -4.324219 Z M 28.855469 13.023438 "/>
</g>
</g>
<g clip-path="url(#clip9)" clip-rule="nonzero">
<g clip-path="url(#clip10)" clip-rule="nonzero">
<path style=" stroke:none;fill-rule:nonzero;fill:url(#linear4);" d="M 8.882812 0.769531 L 14.21875 0.769531 L 14.21875 3.019531 L 8.882812 3.019531 Z M 8.882812 0.769531 "/>
</g>
</g>
<g clip-path="url(#clip11)" clip-rule="nonzero">
<g clip-path="url(#clip12)" clip-rule="nonzero">
<path style=" stroke:none;fill-rule:nonzero;fill:url(#linear5);" d="M 14.21875 10.046875 L 22.6875 10.046875 L 22.6875 19.949219 L 14.21875 19.949219 Z M 14.21875 10.046875 "/>
</g>
</g>
<g clip-path="url(#clip13)" clip-rule="nonzero">
<g clip-path="url(#clip14)" clip-rule="nonzero">
<path style=" stroke:none;fill-rule:nonzero;fill:url(#linear6);" d="M 14.21875 0.769531 L 19.554688 0.769531 L 19.554688 3.019531 L 14.21875 3.019531 Z M 14.21875 0.769531 "/>
</g>
</g>
<g clip-path="url(#clip15)" clip-rule="nonzero">
<g clip-path="url(#clip16)" clip-rule="nonzero">
<path style=" stroke:none;fill-rule:nonzero;fill:url(#linear7);" d="M 5.542969 0.4375 L 8.933594 0.4375 L 8.933594 4.070312 L 5.542969 4.070312 Z M 5.542969 0.4375 "/>
</g>
</g>
<path style=" stroke:none;fill-rule:nonzero;fill:rgb(0%,0%,0%);fill-opacity:1;" d="M 22.140625 5.054688 L 22.816406 3.519531 L 21.222656 3.046875 C 20.734375 2.90625 20.378906 2.527344 20.160156 1.929688 L 19.453125 0 L 17.882812 1.300781 C 17.464844 1.648438 17.042969 1.820312 16.625 1.820312 C 16.070312 1.820312 15.4375 1.550781 15.011719 1.132812 L 14 0.128906 L 12.988281 1.132812 C 12.5625 1.550781 11.929688 1.820312 11.375 1.820312 C 10.957031 1.820312 10.535156 1.648438 10.117188 1.300781 L 8.546875 0 L 7.839844 1.929688 C 7.621094 2.527344 7.265625 2.90625 6.777344 3.046875 L 5.183594 3.519531 L 5.859375 5.054688 C 6.171875 5.765625 6.328125 6.503906 6.328125 7.253906 C 6.328125 9.332031 5.269531 9.804688 5.269531 12.109375 C 5.269531 15.433594 7.839844 17.605469 10.226562 18.222656 C 11.433594 18.515625 11.796875 18.535156 12.886719 18.804688 C 12.976562 18.898438 14 20 14 20 C 14 20 15.023438 18.898438 15.109375 18.804688 C 16.199219 18.535156 16.566406 18.515625 17.769531 18.222656 C 20.160156 17.605469 22.730469 15.433594 22.730469 12.109375 C 22.730469 9.804688 21.667969 9.332031 21.667969 7.253906 C 21.667969 6.503906 21.828125 5.765625 22.140625 5.054688 M 21.96875 9.714844 C 22.222656 10.351562 22.46875 11.015625 22.46875 12.109375 C 22.46875 15.144531 20.207031 17.324219 17.707031 17.96875 C 16.46875 18.28125 15.894531 18.3125 14.972656 18.570312 C 14.851562 18.695312 14 19.617188 14 19.617188 C 14 19.617188 13.148438 18.695312 13.027344 18.570312 C 12.105469 18.3125 11.53125 18.28125 10.292969 17.96875 C 8.363281 17.472656 6.574219 16.058594 5.859375 14.042969 C 5.648438 13.449219 5.53125 12.800781 5.53125 12.109375 C 5.53125 9.84375 6.589844 9.414062 6.589844 7.253906 C 6.589844 6.371094 6.378906 5.585938 6.097656 4.949219 L 5.542969 3.683594 L 6.851562 3.296875 C 7.421875 3.128906 7.835938 2.699219 8.085938 2.019531 L 8.664062 0.4375 L 9.953125 1.503906 C 10.375 1.855469 10.859375 2.082031 11.375 2.082031 C 12.0625 2.082031 12.746094 1.738281 13.171875 1.316406 L 14 0.496094 L 14.828125 1.316406 C 15.257812 1.738281 15.9375 2.082031 16.628906 2.082031 C 17.140625 2.082031 17.625 1.855469 18.050781 1.503906 L 19.335938 0.4375 L 19.914062 2.019531 C 20.164062 2.699219 20.578125 3.128906 21.148438 3.296875 L 22.457031 3.683594 L 21.902344 4.949219 C 21.621094 5.585938 21.410156 6.371094 21.410156 7.253906 C 21.410156 8.375 21.695312 9.027344 21.96875 9.714844 "/>
<path style=" stroke:none;fill-rule:nonzero;fill:rgb(0%,0%,0%);fill-opacity:1;" d="M 21.636719 4.070312 C 21.636719 4.070312 19.617188 3.894531 19.070312 1.4375 C 19.070312 1.4375 17.855469 2.6875 16.628906 2.6875 C 15.042969 2.6875 14 1.339844 14 1.339844 C 14 1.339844 12.957031 2.6875 11.375 2.6875 C 10.144531 2.6875 8.933594 1.4375 8.933594 1.4375 C 8.382812 3.894531 6.363281 4.070312 6.363281 4.070312 C 6.363281 4.070312 7.183594 5.527344 7.183594 7.25 C 7.183594 7.476562 7.171875 7.683594 7.152344 7.882812 C 6.980469 9.601562 6.128906 10.292969 6.128906 12.109375 C 6.128906 14.339844 7.65625 16.679688 10.441406 17.382812 C 11.765625 17.71875 12.679688 17.804688 13.355469 18.046875 C 13.441406 18.128906 14 18.734375 14 18.734375 C 14 18.734375 14.558594 18.128906 14.644531 18.046875 C 15.320312 17.804688 16.234375 17.71875 17.558594 17.382812 C 20.34375 16.679688 21.871094 14.339844 21.871094 12.109375 C 21.871094 10.085938 20.816406 9.460938 20.816406 7.25 C 20.816406 5.527344 21.636719 4.070312 21.636719 4.070312 M 21.277344 12.109375 C 21.277344 14.6875 19.269531 16.328125 17.410156 16.800781 C 15.9375 17.171875 14.972656 17.214844 14.324219 17.527344 C 14.324219 17.527344 14.089844 17.742188 14 17.84375 C 13.910156 17.742188 13.675781 17.527344 13.675781 17.527344 C 13.027344 17.214844 12.066406 17.171875 10.589844 16.800781 C 8.730469 16.328125 6.722656 14.6875 6.722656 12.109375 C 6.722656 10.265625 7.78125 9.589844 7.78125 7.25 C 7.78125 5.671875 7.183594 4.457031 7.183594 4.457031 C 7.183594 4.457031 8.558594 4.179688 9.199219 2.4375 C 9.199219 2.4375 10.113281 3.289062 11.375 3.289062 C 12.953125 3.289062 14 2.183594 14 2.183594 C 14 2.183594 15.046875 3.289062 16.625 3.289062 C 17.886719 3.289062 18.800781 2.4375 18.800781 2.4375 C 19.441406 4.179688 20.816406 4.457031 20.816406 4.457031 C 20.816406 4.457031 20.21875 5.671875 20.21875 7.25 C 20.222656 9.589844 21.277344 10.265625 21.277344 12.109375 "/>
<path style=" stroke:none;fill-rule:nonzero;fill:rgb(0%,0%,0%);fill-opacity:1;" d="M 16.628906 3.964844 C 15.449219 3.964844 14.527344 3.449219 14 3.0625 C 13.472656 3.449219 12.550781 3.964844 11.375 3.964844 C 10.59375 3.964844 9.933594 3.703125 9.464844 3.441406 C 9.03125 4.167969 8.484375 4.585938 8.050781 4.824219 C 8.238281 5.386719 8.453125 6.25 8.453125 7.25 C 8.453125 9.175781 7.796875 10.078125 7.519531 11.171875 L 17.167969 3.921875 C 16.996094 3.949219 16.816406 3.964844 16.628906 3.964844 "/>
<path style=" stroke:none;fill-rule:nonzero;fill:rgb(0%,0%,0%);fill-opacity:1;" d="M 19.542969 7.25 C 19.542969 6.25 19.761719 5.386719 19.949219 4.828125 C 19.578125 4.621094 19.121094 4.285156 18.726562 3.734375 L 7.398438 12.242188 C 7.453125 13.914062 8.535156 15.132812 9.769531 15.769531 L 19.625 8.367188 C 19.574219 8.035156 19.542969 7.664062 19.542969 7.25 M 12.4375 13.015625 L 11.558594 13.671875 L 10.613281 12.226562 L 10.613281 14.382812 L 9.785156 15.003906 L 9.785156 11.953125 C 9.785156 11.523438 9.375 11.511719 9.375 11.511719 L 10.546875 10.628906 L 11.605469 12.25 L 11.605469 9.832031 L 12.4375 9.210938 Z M 15.78125 10.503906 L 14.96875 11.113281 L 14.96875 9.722656 L 14.035156 10.421875 L 14.035156 11.816406 L 13.183594 12.453125 L 13.183594 9.402344 C 13.183594 8.972656 12.769531 8.960938 12.769531 8.960938 L 14.035156 8.011719 L 14.035156 9.417969 L 14.96875 8.714844 L 14.96875 7.308594 L 15.78125 6.699219 Z M 18.839844 8.207031 L 16.488281 9.972656 L 16.488281 6.917969 C 16.488281 6.488281 16.078125 6.476562 16.078125 6.476562 L 17.339844 5.527344 L 17.339844 8.359375 L 18.839844 7.234375 C 18.839844 7.234375 18.789062 7.597656 18.839844 8.207031 "/>
<path style=" stroke:none;fill-rule:nonzero;fill:rgb(0%,0%,0%);fill-opacity:1;" d="M 10.625 16.109375 C 10.667969 16.121094 10.710938 16.132812 10.757812 16.144531 C 11.925781 16.441406 13.351562 16.59375 13.785156 16.839844 C 13.882812 16.910156 14 17.039062 14 17.039062 C 14 17.039062 14.117188 16.910156 14.214844 16.839844 C 14.648438 16.59375 16.074219 16.441406 17.242188 16.144531 C 18.859375 15.730469 20.601562 14.296875 20.601562 12.109375 C 20.601562 11.019531 20.125 10.304688 19.8125 9.207031 Z M 10.625 16.109375 "/>
</g>
</svg>
