<?xml version="1.0" encoding="UTF-8"?>
<svg xmlns="http://www.w3.org/2000/svg" xmlns:xlink="http://www.w3.org/1999/xlink" width="28pt" height="20pt" viewBox="0 0 28 20" version="1.1">
<g id="surface1">
<path style=" stroke:none;fill-rule:nonzero;fill:rgb(76.862745%,80.784314%,83.137255%);fill-opacity:1;" d="M 16.773438 5.183594 L 16.863281 5.191406 L 17.054688 6.058594 L 19.414062 6.269531 L 19.414062 6.667969 L 16.773438 6.449219 Z M 27.621094 8.785156 L 27.621094 5 L 27.613281 4.996094 C 27.585938 4.988281 25.457031 4.242188 24.214844 3.960938 C 22.753906 3.632812 22.332031 4.757812 22.269531 4.957031 L 22.269531 3.527344 C 22.269531 3.527344 18.265625 2.757812 15.40625 2.800781 C 14.914062 2.808594 14.171875 2.988281 13.9375 4.023438 L 13.9375 2.765625 C 13.9375 2.765625 11.1875 2.84375 10.167969 2.9375 C 9.914062 2.960938 8.8125 3.058594 8.464844 4.304688 L 8.464844 3.089844 C 8.464844 3.089844 4.84375 3.527344 1.597656 4.570312 C 1.125 4.722656 0.378906 5.273438 0.378906 6.097656 L 0.378906 14.421875 L 3.105469 13.554688 L 3.105469 12.117188 L 5.589844 11.527344 L 5.589844 12.957031 C 5.589844 12.957031 6.222656 12.824219 6.8125 12.703125 C 5.558594 13.773438 4.535156 15.125 3.90625 16.617188 C 5.554688 15.199219 7.195312 13.824219 9.632812 13.164062 L 9.082031 14.449219 C 11.023438 13.390625 13.625 13.355469 15.699219 14.023438 L 15.539062 14.367188 C 14.261719 13.824219 12.796875 13.757812 11.332031 13.984375 C 12.765625 14.476562 13.972656 14.859375 15.171875 15.648438 C 15.09375 17.882812 16.925781 20.019531 19.292969 20 C 23.09375 19.96875 24.84375 15.515625 22.722656 12.761719 C 22.9375 12.929688 23.203125 13.050781 23.605469 13.171875 C 24.945312 13.546875 27.621094 14.339844 27.621094 14.339844 L 27.621094 10.78125 L 25.578125 10.171875 L 25.355469 11.167969 C 25.222656 11.121094 25.027344 11.113281 25.027344 11.015625 C 25.023438 10.96875 25.023438 8.335938 25.023438 7.003906 L 25.1875 8.039062 Z M 27.621094 8.785156 "/>
<path style=" stroke:none;fill-rule:nonzero;fill:rgb(4.705882%,11.764706%,14.117647%);fill-opacity:1;" d="M 25.171875 6.394531 L 25.398438 7.84375 L 27.367188 8.449219 L 27.371094 8.453125 L 27.371094 5.171875 C 27.371094 5.171875 25.410156 4.484375 24.152344 4.199219 C 23.71875 4.078125 22.445312 4.003906 22.417969 5.609375 L 22.417969 11.15625 C 22.417969 12.109375 22.921875 12.75 23.878906 13 C 25.328125 13.382812 27.371094 14.007812 27.371094 14.007812 L 27.371094 10.964844 L 25.753906 10.480469 L 25.535156 11.46875 C 25.355469 11.417969 25.210938 11.378906 25.027344 11.332031 C 24.828125 11.28125 24.789062 11.171875 24.777344 11.066406 L 24.777344 6.285156 C 24.804688 6.289062 25.117188 6.378906 25.171875 6.394531 "/>
<path style=" stroke:none;fill-rule:nonzero;fill:rgb(4.705882%,11.764706%,14.117647%);fill-opacity:1;" d="M 19.652344 3.367188 L 19.652344 12.203125 L 20.09375 12.242188 C 20.226562 12.257812 21.289062 12.433594 21.414062 12.460938 L 22.019531 12.613281 L 22.019531 3.730469 C 22.023438 3.71875 20.542969 3.472656 19.652344 3.367188 "/>
<path style=" stroke:none;fill-rule:nonzero;fill:rgb(4.705882%,11.764706%,14.117647%);fill-opacity:1;" d="M 16.816406 8.4375 L 16.816406 10.078125 C 16.773438 10.078125 16.554688 10.09375 16.527344 9.949219 L 16.527344 8.414062 Z M 17.054688 4.953125 L 17.25 5.828125 L 19.203125 6 L 19.203125 3.304688 C 19.203125 3.304688 16.355469 3.035156 15.558594 3.035156 C 15.082031 3.035156 14.171875 3.207031 14.140625 4.417969 L 14.140625 10.191406 C 14.140625 11.191406 14.714844 11.789062 15.722656 11.832031 C 15.722656 11.832031 17.816406 11.933594 18.621094 12.050781 L 19.207031 12.160156 L 19.207031 6.890625 L 16.527344 6.675781 L 16.527344 4.925781 Z M 17.054688 4.953125 "/>
<path style=" stroke:none;fill-rule:nonzero;fill:rgb(4.705882%,11.764706%,14.117647%);fill-opacity:1;" d="M 11.007812 6.710938 L 11.007812 5.03125 C 11.015625 4.925781 11.257812 4.9375 11.292969 4.933594 L 11.292969 6.695312 C 11.199219 6.703125 11.101562 6.707031 11.007812 6.710938 M 10.183594 3.179688 C 9.207031 3.269531 8.625 3.925781 8.625 4.929688 L 8.628906 12.175781 L 9.203125 12.066406 C 9.332031 12.046875 10.402344 11.941406 10.535156 11.933594 L 11.007812 11.921875 L 11.007812 8.683594 C 11.101562 8.675781 11.195312 8.667969 11.292969 8.664062 L 11.292969 11.914062 L 11.832031 11.851562 C 11.945312 11.84375 13 11.804688 13.175781 11.804688 L 13.6875 11.832031 L 13.6875 3.015625 C 13.6875 3.015625 11.242188 3.082031 10.183594 3.179688 "/>
<path style=" stroke:none;fill-rule:nonzero;fill:rgb(4.705882%,11.764706%,14.117647%);fill-opacity:1;" d="M 8.214844 3.375 C 8.214844 3.375 5.996094 3.707031 5.335938 3.855469 C 5.183594 3.890625 5.039062 3.945312 4.902344 4.023438 L 4.902344 3.945312 C 4.902344 3.945312 3.058594 4.351562 1.667969 4.800781 C 1.230469 4.941406 0.617188 5.4375 0.617188 6.09375 L 0.617188 14.066406 L 2.855469 13.355469 L 2.855469 6.71875 C 2.855469 6.597656 2.960938 6.503906 3.171875 6.4375 C 3.179688 6.4375 3.195312 6.433594 3.210938 6.429688 L 3.210938 11.839844 L 5.578125 11.277344 L 5.578125 6.101562 C 5.605469 5.863281 5.808594 5.839844 5.824219 5.835938 L 5.824219 12.644531 C 5.824219 12.644531 7.664062 12.273438 7.769531 12.261719 L 8.214844 12.222656 Z M 8.214844 3.375 "/>
<path style=" stroke:none;fill-rule:nonzero;fill:rgb(100%,100%,100%);fill-opacity:1;" d="M 25.964844 10.839844 L 25.742188 11.828125 C 25.386719 11.722656 25.210938 11.671875 24.957031 11.605469 C 24.703125 11.539062 24.554688 11.398438 24.507812 11.175781 L 24.507812 6.121094 C 24.589844 5.835938 24.960938 6.078125 25.425781 6.171875 L 25.652344 7.625 L 27.082031 8.066406 L 27.082031 5.371094 C 27.082031 5.371094 25.308594 4.769531 24.085938 4.476562 C 23.953125 4.445312 22.730469 4.15625 22.703125 5.609375 L 22.703125 11.15625 C 22.703125 11.980469 23.121094 12.507812 23.949219 12.726562 C 25.144531 13.039062 27.085938 13.621094 27.085938 13.621094 L 27.085938 11.175781 Z M 25.964844 10.839844 "/>
<path style=" stroke:none;fill-rule:nonzero;fill:rgb(100%,100%,100%);fill-opacity:1;" d="M 21.734375 3.972656 L 19.9375 3.691406 L 19.9375 11.941406 C 19.9375 11.941406 21.390625 12.164062 21.480469 12.183594 L 21.734375 12.246094 Z M 21.734375 3.972656 "/>
<path style=" stroke:none;fill-rule:nonzero;fill:rgb(100%,100%,100%);fill-opacity:1;" d="M 16.605469 4.640625 C 16.621094 4.640625 17.109375 4.671875 17.289062 4.6875 L 17.480469 5.5625 L 18.917969 5.691406 L 18.917969 3.5625 C 18.917969 3.5625 15.941406 3.304688 15.558594 3.320312 C 15.203125 3.332031 14.472656 3.394531 14.421875 4.421875 L 14.421875 10.191406 C 14.421875 11.042969 14.875 11.507812 15.734375 11.542969 C 15.734375 11.542969 17.710938 11.640625 18.578125 11.753906 L 18.917969 11.816406 L 18.917969 7.148438 L 16.742188 6.976562 L 16.742188 8.144531 C 16.742188 8.144531 17.035156 8.167969 17.105469 8.171875 L 17.105469 10.382812 C 16.835938 10.363281 16.265625 10.425781 16.242188 9.953125 L 16.242188 4.851562 C 16.261719 4.757812 16.335938 4.640625 16.605469 4.640625 "/>
<path style=" stroke:none;fill-rule:nonzero;fill:rgb(100%,100%,100%);fill-opacity:1;" d="M 11.554688 6.949219 C 11.546875 6.949219 11.007812 6.976562 10.746094 6.992188 L 10.746094 5.019531 C 10.765625 4.808594 10.90625 4.695312 11.164062 4.675781 C 11.164062 4.675781 11.429688 4.660156 11.554688 4.652344 Z M 10.207031 3.445312 C 9.378906 3.527344 8.898438 4.054688 8.890625 4.910156 L 8.890625 11.855469 L 8.894531 11.855469 L 8.921875 11.851562 L 9.203125 11.800781 C 9.441406 11.769531 10.433594 11.671875 10.527344 11.667969 L 10.746094 11.664062 L 10.746094 8.4375 C 11.007812 8.414062 11.277344 8.394531 11.554688 8.378906 L 11.558594 11.613281 L 11.804688 11.585938 C 11.890625 11.578125 12.984375 11.535156 13.175781 11.535156 L 13.421875 11.550781 L 13.421875 3.289062 C 13.421875 3.289062 11.292969 3.335938 10.207031 3.445312 "/>
<path style=" stroke:none;fill-rule:nonzero;fill:rgb(100%,100%,100%);fill-opacity:1;" d="M 7.929688 3.703125 C 7.929688 3.703125 5.769531 4.035156 5.398438 4.132812 C 5.105469 4.210938 4.886719 4.328125 4.632812 4.617188 L 4.632812 4.300781 C 4.632812 4.300781 3.132812 4.628906 1.753906 5.074219 C 1.410156 5.183594 0.902344 5.585938 0.902344 6.09375 L 0.902344 13.648438 L 2.570312 13.125 L 2.570312 6.71875 C 2.558594 6.179688 3.339844 6.109375 3.496094 6.082031 L 3.496094 11.476562 L 5.289062 11.050781 C 5.289062 11.050781 5.289062 6.359375 5.289062 6.085938 C 5.351562 5.496094 6.007812 5.535156 6.113281 5.5 L 6.113281 12.273438 L 6.992188 12.121094 L 7.925781 11.960938 L 7.925781 11.933594 L 7.929688 11.933594 Z M 7.929688 3.703125 "/>
<path style=" stroke:none;fill-rule:nonzero;fill:rgb(1.568627%,45.490196%,73.72549%);fill-opacity:1;" d="M 26.875 11.324219 L 26.117188 11.097656 L 25.894531 12.085938 C 25.398438 11.941406 25.207031 11.882812 24.902344 11.804688 C 24.613281 11.726562 24.316406 11.523438 24.289062 11.082031 L 24.289062 6.175781 C 24.347656 5.796875 24.597656 5.726562 24.902344 5.808594 C 24.90625 5.804688 25.226562 5.898438 25.609375 6.015625 L 25.835938 7.46875 L 26.875 7.789062 L 26.875 5.515625 C 26.300781 5.316406 25.167969 4.945312 24.035156 4.671875 C 23.3125 4.5 22.90625 4.867188 22.90625 5.609375 L 22.90625 11.15625 C 22.90625 11.898438 23.277344 12.335938 24 12.527344 C 25.480469 12.914062 26.878906 13.34375 26.878906 13.34375 Z M 26.875 11.324219 "/>
<path style=" stroke:none;fill-rule:nonzero;fill:rgb(1.568627%,45.490196%,73.72549%);fill-opacity:1;" d="M 20.140625 11.753906 C 20.226562 11.761719 21.445312 11.964844 21.53125 11.984375 L 21.53125 4.140625 C 21.113281 4.066406 20.742188 4.003906 20.140625 3.925781 Z M 20.140625 11.753906 "/>
<path style=" stroke:none;fill-rule:nonzero;fill:rgb(1.568627%,45.490196%,73.72549%);fill-opacity:1;" d="M 16.949219 7.957031 C 17.019531 7.960938 17.308594 7.980469 17.308594 7.980469 L 17.308594 10.601562 C 17.09375 10.585938 16.878906 10.570312 16.667969 10.558594 C 16.351562 10.539062 16.035156 10.335938 16.035156 9.914062 C 16.035156 9.902344 16.035156 4.859375 16.035156 4.859375 C 16.078125 4.484375 16.445312 4.425781 16.667969 4.441406 C 16.667969 4.433594 17.035156 4.460938 17.457031 4.5 L 17.648438 5.371094 L 18.714844 5.464844 L 18.714844 3.75 L 18.710938 3.75 C 16.769531 3.558594 15.6875 3.527344 15.6875 3.527344 C 15.460938 3.515625 15.117188 3.519531 14.882812 3.746094 C 14.734375 3.886719 14.628906 4.125 14.628906 4.421875 L 14.628906 10.191406 C 14.628906 10.933594 15.003906 11.3125 15.746094 11.339844 C 15.746094 11.316406 18.34375 11.5 18.714844 11.570312 L 18.714844 7.335938 C 18.09375 7.273438 17.738281 7.238281 16.949219 7.191406 Z M 16.949219 7.957031 "/>
<path style=" stroke:none;fill-rule:nonzero;fill:rgb(1.568627%,45.490196%,73.72549%);fill-opacity:1;" d="M 10.519531 5.007812 C 10.53125 4.855469 10.621094 4.492188 11.152344 4.453125 C 11.359375 4.441406 11.570312 4.425781 11.78125 4.414062 L 11.78125 7.160156 C 11.363281 7.183594 10.941406 7.199219 10.519531 7.234375 Z M 9.117188 4.929688 C 9.117188 4.929688 9.117188 11.492188 9.117188 11.585938 C 9.203125 11.570312 10.433594 11.445312 10.519531 11.445312 L 10.519531 8.230469 C 10.9375 8.195312 11.359375 8.164062 11.777344 8.140625 L 11.777344 11.363281 C 11.867188 11.355469 13.109375 11.308594 13.195312 11.3125 L 13.195312 3.519531 C 12.363281 3.542969 11.214844 3.578125 10.226562 3.667969 C 9.488281 3.734375 9.117188 4.1875 9.117188 4.929688 "/>
<path style=" stroke:none;fill-rule:nonzero;fill:rgb(1.568627%,45.490196%,73.72549%);fill-opacity:1;" d="M 5.441406 4.332031 C 4.929688 4.449219 4.539062 4.9375 4.429688 5.523438 L 4.429688 4.550781 C 4.429688 4.550781 3.199219 4.820312 1.816406 5.269531 C 1.542969 5.355469 1.105469 5.695312 1.105469 6.09375 L 1.105469 13.351562 C 1.1875 13.320312 2.28125 12.980469 2.367188 12.960938 L 2.367188 6.71875 C 2.367188 6.28125 2.726562 6.0625 3.03125 5.972656 C 3.199219 5.921875 3.699219 5.84375 3.699219 5.84375 L 3.699219 11.21875 L 5.089844 10.890625 L 5.089844 6.054688 C 5.140625 5.6875 5.339844 5.449219 5.710938 5.359375 C 6.0625 5.300781 6.316406 5.261719 6.316406 5.261719 L 6.320312 12.011719 C 6.402344 11.992188 7.636719 11.78125 7.722656 11.773438 C 7.722656 10.214844 7.726562 3.941406 7.726562 3.941406 C 7.726562 3.941406 6.09375 4.1875 5.441406 4.332031 "/>
<path style=" stroke:none;fill-rule:nonzero;fill:rgb(4.705882%,11.764706%,14.117647%);fill-opacity:1;" d="M 20.160156 11.21875 C 25.578125 13.359375 23.324219 19.664062 19.355469 19.710938 C 17.179688 19.734375 15.328125 17.714844 15.484375 15.558594 C 14.507812 14.773438 13.273438 14.394531 12.085938 14.058594 C 13.160156 13.945312 14.675781 14.226562 15.65625 14.679688 L 16.023438 13.882812 C 14.207031 13.214844 11.324219 13.101562 9.554688 13.953125 L 10.039062 12.820312 C 8.164062 13.238281 6.066406 14.394531 4.519531 15.847656 C 5.601562 13.765625 8.0625 11.65625 10.304688 10.957031 L 10.140625 11.445312 C 11.585938 10.921875 13.09375 10.632812 14.628906 10.546875 C 16.257812 10.453125 17.574219 10.546875 18.703125 10.796875 C 18.5 10.535156 18.171875 10.066406 18.171875 10.066406 C 18.171875 10.066406 19.046875 10.289062 19.214844 10.332031 C 19.304688 10.1875 19.484375 9.902344 19.484375 9.902344 L 19.757812 9.457031 C 19.757812 9.457031 19.890625 10.375 19.914062 10.535156 C 20.066406 10.582031 20.90625 10.859375 20.90625 10.859375 Z M 20.160156 11.21875 "/>
<path style=" stroke:none;fill-rule:nonzero;fill:rgb(76.862745%,80.784314%,83.137255%);fill-opacity:1;" d="M 20.761719 14.324219 C 20.964844 14.597656 21.183594 14.917969 21.347656 15.21875 C 21.738281 14.953125 22.074219 14.675781 22.382812 14.320312 C 22.191406 13.949219 21.851562 13.535156 21.613281 13.328125 C 21.390625 13.71875 21.109375 14.042969 20.761719 14.324219 M 21.476562 15.480469 C 21.574219 15.699219 21.65625 15.917969 21.730469 16.144531 C 22.066406 16.035156 22.386719 15.980469 22.734375 15.960938 C 22.742188 15.457031 22.675781 15.089844 22.515625 14.617188 C 22.195312 14.949219 21.859375 15.226562 21.476562 15.480469 M 21.800781 16.40625 C 21.921875 16.945312 21.957031 17.484375 21.925781 18.03125 C 22.355469 17.457031 22.585938 16.964844 22.707031 16.230469 C 22.398438 16.257812 22.089844 16.308594 21.800781 16.40625 M 21.566406 16.53125 C 20.496094 17.039062 20.058594 18.164062 19.636719 19.195312 C 20.34375 19.113281 20.992188 18.875 21.539062 18.410156 C 21.703125 17.800781 21.683594 17.148438 21.566406 16.53125 M 21.484375 16.25 C 21.417969 16.035156 21.339844 15.824219 21.253906 15.621094 C 19.730469 16.515625 17.941406 16.960938 16.175781 16.945312 C 16.691406 18.296875 17.882812 19.191406 19.339844 19.207031 C 19.800781 18.066406 20.3125 16.824219 21.484375 16.25 M 21.128906 15.359375 C 20.960938 15.046875 20.753906 14.753906 20.539062 14.476562 C 19.144531 15.367188 17.746094 14.851562 16.335938 14.332031 C 15.984375 15.070312 15.894531 15.863281 16.089844 16.65625 C 17.804688 16.699219 19.652344 16.238281 21.128906 15.359375 M 20.386719 14.253906 C 18.441406 12.121094 14.578125 11.699219 11.894531 12.425781 C 13.757812 12.378906 17.445312 12.476562 18.761719 14.046875 C 18.335938 13.808594 17.476562 13.410156 16.964844 13.441406 C 16.785156 13.640625 16.625 13.863281 16.480469 14.09375 C 17.777344 14.570312 19.101562 15.050781 20.386719 14.253906 M 20.597656 14.105469 C 20.9375 13.839844 21.234375 13.535156 21.441406 13.160156 C 20.835938 12.566406 19.683594 11.835938 16.746094 11.636719 C 17.988281 11.917969 19.152344 12.3125 19.808594 12.777344 C 19.273438 12.574219 18.9375 12.515625 18.9375 12.515625 C 18.78125 12.539062 18.558594 12.558594 18.390625 12.597656 C 19.285156 12.949219 19.9375 13.371094 20.597656 14.105469 "/>
<path style=" stroke:none;fill-rule:nonzero;fill:rgb(76.862745%,80.784314%,83.137255%);fill-opacity:1;" d="M 18.785156 11.511719 L 19.390625 11.300781 L 19.847656 11.820312 L 19.792969 11.140625 L 20.378906 10.886719 L 19.742188 10.675781 L 19.644531 10 L 19.304688 10.550781 L 18.660156 10.386719 L 19.089844 10.933594 Z M 18.785156 11.511719 "/>
<path style=" stroke:none;fill-rule:nonzero;fill:rgb(1.568627%,45.490196%,73.72549%);fill-opacity:1;" d="M 16.507812 14.84375 C 17.433594 15.277344 18.164062 15.296875 19.105469 15.339844 L 17.585938 15.789062 C 18.351562 15.824219 19.246094 15.75 19.992188 15.597656 C 18.355469 16.414062 16.375 16.351562 16.375 16.351562 C 16.226562 15.851562 16.296875 15.226562 16.507812 14.84375 M 16.6875 17.359375 C 17.699219 17.320312 19.132812 17.046875 20.234375 16.40625 C 19.597656 17.050781 18.917969 17.402344 17.882812 17.941406 C 19.015625 17.75 19.574219 17.304688 20.316406 16.753906 C 19.738281 17.398438 19.453125 18.078125 19.007812 18.78125 C 19.007812 18.78125 17.6875 18.945312 16.6875 17.359375 M 20.035156 18.902344 C 20.671875 18.683594 21 18.425781 21.136719 18.320312 C 21.234375 18.105469 21.28125 17.648438 21.273438 17.089844 L 20.867188 17.773438 L 20.996094 17.109375 C 20.429688 17.796875 20.214844 18.292969 20.035156 18.902344 "/>
<path style=" stroke:none;fill-rule:nonzero;fill:rgb(100%,100%,100%);fill-opacity:1;" d="M 15.574219 12 L 15.992188 11.792969 L 16.339844 12.101562 L 16.273438 11.640625 L 16.675781 11.40625 L 16.214844 11.328125 L 16.117188 10.871094 L 15.898438 11.285156 L 15.433594 11.238281 L 15.761719 11.574219 Z M 15.574219 12 "/>
<path style=" stroke:none;fill-rule:nonzero;fill:rgb(100%,100%,100%);fill-opacity:1;" d="M 10.863281 12.925781 L 11.136719 12.789062 L 11.367188 12.992188 L 11.324219 12.691406 L 11.585938 12.535156 L 11.285156 12.484375 L 11.21875 12.183594 L 11.078125 12.457031 L 10.769531 12.425781 L 10.984375 12.644531 Z M 10.863281 12.925781 "/>
<path style=" stroke:none;fill-rule:nonzero;fill:rgb(100%,100%,100%);fill-opacity:1;" d="M 19.566406 12.355469 C 19.515625 12.328125 19.464844 12.304688 19.40625 12.277344 C 20.257812 12.53125 20.828125 12.859375 21.152344 13.109375 C 21.101562 13.179688 21.046875 13.25 20.988281 13.320312 C 20.597656 12.914062 20.117188 12.582031 19.566406 12.355469 M 22.1875 17.117188 L 22.183594 17.0625 C 22.230469 16.832031 22.253906 16.601562 22.261719 16.375 C 22.324219 16.359375 22.386719 16.347656 22.445312 16.335938 C 22.382812 16.617188 22.296875 16.875 22.1875 17.117188 M 22.542969 15.625 C 22.429688 15.640625 22.328125 15.65625 22.226562 15.679688 C 22.203125 15.515625 22.171875 15.351562 22.128906 15.191406 C 22.238281 15.097656 22.34375 15.003906 22.453125 14.902344 C 22.511719 15.140625 22.539062 15.359375 22.542969 15.625 M 22.164062 14.230469 C 22.070312 14.332031 21.976562 14.421875 21.882812 14.503906 C 21.78125 14.28125 21.660156 14.070312 21.523438 13.871094 C 21.59375 13.78125 21.664062 13.691406 21.730469 13.597656 C 21.90625 13.792969 22.0625 14.023438 22.164062 14.230469 "/>
<path style=" stroke:none;fill-rule:nonzero;fill:rgb(4.705882%,11.764706%,14.117647%);fill-opacity:1;" d="M 19.539062 2.234375 C 19.539062 2.296875 19.507812 2.324219 19.46875 2.320312 C 19.433594 2.3125 19.332031 2.304688 19.261719 2.292969 C 19.214844 2.289062 19.1875 2.277344 19.1875 2.191406 L 19.1875 0.902344 C 19.1875 0.835938 19.222656 0.816406 19.269531 0.820312 C 19.316406 0.824219 19.398438 0.84375 19.445312 0.847656 C 19.496094 0.855469 19.542969 0.867188 19.542969 0.925781 L 19.542969 2.234375 Z M 19.683594 0.484375 C 19.535156 0.457031 19 0.367188 18.964844 0.371094 C 18.675781 0.378906 18.640625 0.609375 18.640625 0.683594 L 18.640625 2.21875 C 18.640625 2.542969 18.921875 2.621094 19.007812 2.628906 C 19.171875 2.648438 19.609375 2.710938 19.757812 2.722656 C 19.910156 2.742188 20.082031 2.636719 20.082031 2.421875 L 20.082031 0.898438 C 20.082031 0.820312 20.058594 0.550781 19.683594 0.484375 "/>
<path style=" stroke:none;fill-rule:nonzero;fill:rgb(4.705882%,11.764706%,14.117647%);fill-opacity:1;" d="M 16.152344 0.0625 C 15.855469 0.0390625 15.144531 0.015625 15.144531 0.015625 L 15.144531 2.339844 L 15.699219 2.359375 L 15.699219 0.441406 C 15.699219 0.441406 15.8125 0.445312 15.921875 0.449219 C 16.035156 0.457031 16.070312 0.503906 16.070312 0.558594 L 16.070312 2.375 L 16.621094 2.40625 C 16.621094 2.40625 16.621094 0.601562 16.621094 0.460938 C 16.621094 0.335938 16.53125 0.09375 16.152344 0.0625 "/>
<path style=" stroke:none;fill-rule:nonzero;fill:rgb(4.705882%,11.764706%,14.117647%);fill-opacity:1;" d="M 14.289062 1.058594 L 13.917969 1.058594 L 13.917969 0.503906 C 13.921875 0.457031 13.953125 0.398438 14.074219 0.398438 L 14.289062 0.398438 Z M 13.792969 0 C 13.523438 0 13.363281 0.125 13.363281 0.410156 C 13.363281 0.550781 13.367188 2.324219 13.367188 2.324219 L 13.917969 2.320312 L 13.917969 1.410156 L 14.289062 1.40625 L 14.289062 2.328125 L 14.847656 2.328125 L 14.847656 0.0117188 C 14.847656 0.0117188 14.402344 0 14.257812 0 Z M 13.792969 0 "/>
<path style=" stroke:none;fill-rule:nonzero;fill:rgb(4.705882%,11.764706%,14.117647%);fill-opacity:1;" d="M 13.09375 1.597656 L 12.652344 1.609375 L 12.542969 1.992188 L 12.394531 2 L 12.394531 0.0390625 L 11.839844 0.0703125 L 11.839844 2.375 C 11.839844 2.375 12.070312 2.363281 12.464844 2.351562 C 12.867188 2.339844 13.09375 2.335938 13.09375 2.335938 Z M 13.09375 1.597656 "/>
<path style=" stroke:none;fill-rule:nonzero;fill:rgb(4.705882%,11.764706%,14.117647%);fill-opacity:1;" d="M 10.890625 1.144531 C 10.777344 1.160156 10.644531 1.167969 10.644531 1.167969 L 10.644531 0.566406 C 10.707031 0.558594 10.820312 0.546875 10.878906 0.542969 C 10.992188 0.53125 11.003906 0.609375 11.003906 0.640625 C 11.003906 0.664062 11.003906 1.019531 11.003906 1.027344 L 11.003906 1.03125 C 11.003906 1.03125 11 1.132812 10.890625 1.144531 M 11.5625 1.460938 C 11.566406 1.386719 11.519531 1.277344 11.425781 1.25 C 11.484375 1.21875 11.554688 1.132812 11.554688 1.035156 L 11.554688 0.441406 C 11.554688 0.296875 11.441406 0.105469 11.183594 0.121094 C 10.890625 0.136719 10.09375 0.222656 10.09375 0.222656 L 10.09375 2.503906 L 10.644531 2.457031 L 10.644531 1.523438 C 10.707031 1.515625 10.890625 1.496094 10.90625 1.496094 C 10.984375 1.488281 11.007812 1.539062 11.007812 1.558594 L 11.007812 2.429688 L 11.5625 2.394531 Z M 11.5625 1.460938 "/>
<path style=" stroke:none;fill-rule:nonzero;fill:rgb(4.705882%,11.764706%,14.117647%);fill-opacity:1;" d="M 9.199219 2.207031 C 9.164062 2.214844 9.058594 2.226562 8.992188 2.234375 C 8.9375 2.238281 8.914062 2.175781 8.914062 2.152344 C 8.914062 2.136719 8.914062 0.855469 8.914062 0.855469 C 8.914062 0.832031 8.925781 0.785156 8.972656 0.777344 C 9.023438 0.765625 9.128906 0.753906 9.183594 0.742188 C 9.230469 0.734375 9.261719 0.78125 9.261719 0.8125 C 9.261719 0.863281 9.265625 2.085938 9.265625 2.121094 C 9.265625 2.152344 9.246094 2.199219 9.199219 2.207031 M 9.472656 0.308594 C 9.410156 0.308594 8.90625 0.371094 8.757812 0.398438 C 8.644531 0.421875 8.363281 0.519531 8.371094 0.824219 L 8.371094 2.386719 C 8.371094 2.519531 8.445312 2.691406 8.675781 2.667969 C 8.746094 2.660156 9.253906 2.589844 9.441406 2.574219 C 9.726562 2.550781 9.816406 2.328125 9.8125 2.171875 L 9.8125 0.613281 C 9.8125 0.308594 9.523438 0.308594 9.472656 0.308594 "/>
<path style=" stroke:none;fill-rule:nonzero;fill:rgb(4.705882%,11.764706%,14.117647%);fill-opacity:1;" d="M 17.832031 2.058594 C 17.824219 2.101562 17.785156 2.117188 17.722656 2.113281 L 17.464844 2.089844 L 17.464844 0.585938 C 17.464844 0.585938 17.601562 0.597656 17.695312 0.609375 C 17.785156 0.621094 17.820312 0.652344 17.832031 0.695312 Z M 17.964844 0.214844 C 17.835938 0.191406 16.917969 0.105469 16.917969 0.105469 L 16.917969 2.425781 C 16.917969 2.425781 17.765625 2.496094 17.964844 2.511719 C 18.160156 2.53125 18.386719 2.464844 18.386719 2.191406 L 18.386719 0.65625 C 18.386719 0.328125 18.144531 0.246094 17.964844 0.214844 "/>
</g>
</svg>
