<?xml version="1.0" encoding="UTF-8"?>
<svg xmlns="http://www.w3.org/2000/svg" xmlns:xlink="http://www.w3.org/1999/xlink" width="35pt" height="25pt" viewBox="0 0 35 25" version="1.1">
<g id="surface1">
<path style=" stroke:none;fill-rule:nonzero;fill:rgb(0%,0%,0%);fill-opacity:1;" d="M 22.210938 9.089844 L 19.71875 5.679688 L 18.90625 6.058594 C 18.90625 6.058594 18.609375 5.890625 17.429688 5.722656 L 18.015625 5.136719 L 18.015625 3.789062 L 17.597656 3.789062 C 17.863281 3.433594 17.90625 2.886719 17.90625 2.425781 C 17.90625 1.960938 17.898438 0.902344 19.257812 0 L 13.902344 0 C 10.753906 1.058594 10.585938 5.789062 10.863281 8.984375 L 11.640625 8.683594 C 11.640625 8.683594 11.125 9.84375 11.367188 10.46875 C 11.007812 11.3125 11.128906 12.121094 11.476562 12.730469 L 11.085938 13.28125 L 11.171875 15.761719 C 11.171875 15.761719 11.125 15.828125 11.078125 15.890625 C 10.972656 16.035156 10.714844 16.257812 9.773438 16.429688 C 8.734375 16.621094 8.496094 16.835938 8.390625 17.273438 C 8.285156 17.710938 7.335938 18.035156 7.242188 18.0625 C 7.242188 18.0625 7.144531 18.351562 7.144531 18.683594 C 7.144531 20.011719 8.8125 20.863281 10.75 21.609375 C 12.800781 22.402344 15.304688 23.046875 16.15625 24.179688 C 17.207031 24.703125 18.40625 25 19.722656 25 C 24.355469 25 27.855469 21.164062 27.855469 16.820312 C 27.855469 13.207031 25.496094 10.183594 22.210938 9.089844 Z M 22.210938 9.089844 "/>
<path style=" stroke:none;fill-rule:nonzero;fill:rgb(89.411765%,9.019608%,24.313725%);fill-opacity:1;" d="M 11.425781 7.886719 C 11.425781 7.886719 11.023438 2.039062 13.867188 0.851562 L 14.28125 3.480469 L 14.367188 0.710938 L 17.878906 0.71875 C 17.492188 0.960938 17.363281 1.257812 17.289062 1.589844 C 17.132812 2.292969 17.257812 3.203125 16.96875 3.695312 L 14.292969 3.691406 Z M 11.425781 7.886719 "/>
<path style=" stroke:none;fill-rule:nonzero;fill:rgb(89.411765%,9.019608%,24.313725%);fill-opacity:1;" d="M 8.800781 18.015625 L 9.046875 18.472656 L 8.824219 18.707031 L 12.410156 20.347656 C 9.976562 18.796875 8.925781 18.167969 8.925781 17.527344 C 8.925781 16.921875 10.359375 17.136719 11.160156 16.566406 C 11.371094 17.839844 9.550781 17.878906 9.550781 17.878906 L 12.542969 19.527344 C 13.996094 20.921875 15.671875 21.367188 15.671875 21.367188 C 16.035156 21.789062 16.105469 22.164062 16.105469 22.164062 C 16.105469 22.164062 14.3125 21.058594 13.402344 20.933594 C 13.402344 20.933594 13.972656 21.214844 14.636719 21.570312 C 15.710938 22.148438 17.0625 23.003906 16.886719 23.808594 C 15.371094 21.65625 7.875 20.984375 7.875 18.792969 C 7.875 18.203125 8.6875 18.203125 8.800781 18.015625 Z M 8.800781 18.015625 "/>
<path style=" stroke:none;fill-rule:nonzero;fill:rgb(89.411765%,9.019608%,24.313725%);fill-opacity:1;" d="M 19.542969 23.460938 C 19.964844 22.164062 20.882812 21.4375 22.035156 20.59375 C 23.089844 19.820312 24.058594 19.089844 24.058594 17.648438 C 24.015625 17.496094 22.855469 17.03125 22.722656 16.996094 C 22.722656 16.996094 23.460938 17.605469 23.460938 17.859375 C 23.460938 18.113281 21.832031 19.0625 21.832031 19.0625 C 21.832031 19.0625 21.992188 18.859375 22.199219 18.613281 C 22.484375 18.269531 22.839844 17.832031 22.839844 17.617188 C 22.839844 17.316406 22.277344 17.222656 22.105469 16.597656 C 22.105469 16.597656 21.953125 16.832031 21.804688 17.15625 C 21.648438 17.496094 21.496094 17.933594 21.496094 18.144531 L 21.78125 20.128906 L 20.992188 20.039062 C 20.917969 20.09375 19.53125 21.40625 19.542969 23.460938 Z M 19.542969 23.460938 "/>
<path style=" stroke:none;fill-rule:nonzero;fill:rgb(83.921569%,62.352941%,5.882353%);fill-opacity:1;" d="M 20.675781 19.480469 L 20.964844 18.726562 L 21.128906 19.546875 Z M 20.675781 19.480469 "/>
<path style=" stroke:none;fill-rule:nonzero;fill:rgb(83.921569%,62.352941%,5.882353%);fill-opacity:1;" d="M 14.859375 12.765625 L 19.441406 11.183594 L 21.765625 12.542969 L 21.785156 12.757812 C 21.785156 12.757812 21.695312 12.679688 21.546875 12.597656 C 21.304688 12.464844 20.902344 12.300781 20.46875 12.300781 C 20.203125 12.300781 19.945312 12.449219 19.757812 12.625 C 19.53125 12.832031 19.394531 13.066406 19.394531 13.066406 C 19.394531 13.066406 19.101562 12.328125 17.777344 12.328125 C 16.535156 12.328125 14.859375 12.765625 14.859375 12.765625 Z M 14.859375 12.765625 "/>
<path style=" stroke:none;fill-rule:nonzero;fill:rgb(83.921569%,62.352941%,5.882353%);fill-opacity:1;" d="M 13.570312 12.023438 L 13.792969 12.71875 L 19.855469 10.285156 L 22.246094 12.375 L 22.191406 11.449219 C 22.164062 11.460938 22.128906 11.46875 22.09375 11.46875 C 21.835938 11.46875 21.351562 11.144531 21.351562 11.144531 L 21.441406 11.066406 C 21.441406 11.066406 21.773438 11.183594 21.910156 11.183594 C 21.980469 11.183594 22.085938 11.15625 22.171875 11.125 L 22.117188 10.210938 L 19.496094 6.546875 L 18.910156 6.757812 C 18.910156 6.757812 17.582031 6.222656 16.378906 6.222656 C 14.390625 6.222656 12.085938 8.164062 12.085938 10.191406 L 13.359375 10.277344 L 16.84375 7.660156 L 13.328125 11.132812 C 13.328125 11.132812 13.054688 10.523438 12.546875 10.523438 C 12.328125 10.527344 11.804688 10.886719 11.804688 11.722656 C 11.804688 12.453125 12.152344 12.847656 12.152344 12.847656 L 11.75 13.40625 C 11.917969 16.820312 11.867188 18.425781 10.691406 18.078125 L 12.402344 18.910156 C 12.402344 18.910156 12.371094 16.710938 12.371094 16.09375 C 12.371094 14.964844 12.460938 14.84375 12.601562 14.851562 C 12.980469 14.851562 13.082031 16.828125 13.125 18.097656 C 13.152344 18.832031 13.175781 19.402344 13.175781 19.402344 C 13.175781 19.402344 14.550781 20.90625 16.992188 21.121094 C 14.875 19.628906 15.113281 17.820312 15.273438 16.601562 C 15.347656 16.039062 15.421875 15.453125 15.5625 14.8125 C 13.617188 14.792969 13.605469 13.710938 13.605469 13.433594 C 13.605469 13.152344 13.644531 13.007812 13.644531 13.007812 C 13.5625 13.066406 13.164062 13.375 12.660156 13.226562 C 13.574219 12.929688 13.570312 12.023438 13.570312 12.023438 Z M 14.625 8.890625 L 13.183594 9.851562 L 12.386719 9.824219 C 12.386719 9.640625 12.476562 8.042969 14.65625 7.019531 C 14.476562 7.140625 14.320312 7.28125 14.15625 7.410156 C 13.761719 7.734375 13.171875 8.308594 13.171875 8.609375 C 13.171875 8.980469 13.652344 9.117188 14.625 8.890625 Z M 21.21875 9.515625 C 21.238281 9.515625 21.707031 9.925781 21.707031 10.519531 C 21.707031 10.675781 21.796875 10.8125 21.796875 10.8125 L 21.769531 10.875 C 21.769531 10.875 21.660156 10.8125 21.621094 10.8125 C 21.582031 10.8125 21.527344 10.859375 21.402344 10.859375 C 21.277344 10.859375 21.03125 10.707031 20.765625 10.40625 C 20.765625 10.40625 20.800781 10.382812 20.84375 10.382812 C 20.886719 10.382812 21.09375 10.589844 21.234375 10.589844 C 21.375 10.589844 21.335938 10.515625 21.527344 10.527344 C 21.527344 10.527344 21.480469 10.382812 21.480469 10.28125 C 21.480469 9.859375 21.207031 9.617188 21.207031 9.574219 C 21.207031 9.523438 21.21875 9.515625 21.21875 9.515625 Z M 20.289062 9.515625 C 20.304688 9.515625 20.515625 9.753906 20.640625 9.753906 C 20.710938 9.753906 20.738281 9.71875 20.8125 9.71875 C 20.8125 9.71875 20.808594 9.691406 20.808594 9.65625 C 20.816406 9.542969 20.847656 9.492188 20.851562 9.40625 C 20.855469 9.296875 20.730469 8.984375 20.726562 8.976562 C 20.714844 8.933594 20.734375 8.824219 20.75 8.84375 C 20.8125 8.917969 21.058594 9.308594 21.058594 9.574219 C 21.058594 9.699219 21.046875 9.765625 21.042969 9.871094 C 21.039062 9.980469 21.101562 10.085938 21.101562 10.085938 L 21.082031 10.144531 C 21.082031 10.144531 20.996094 10.023438 20.851562 10.023438 C 20.695312 10.023438 20.632812 9.992188 20.539062 9.910156 C 20.449219 9.824219 20.246094 9.554688 20.25 9.539062 C 20.25 9.527344 20.257812 9.515625 20.289062 9.515625 Z M 19.042969 7.621094 C 19.042969 7.621094 18.871094 7.804688 18.871094 8.304688 C 18.871094 9.078125 19.277344 9.5625 19.734375 9.5625 C 19.804688 9.5625 20.042969 9.515625 20.042969 9.515625 C 20.042969 9.515625 19.921875 9.828125 19.539062 9.828125 C 19.042969 9.828125 18.507812 9.148438 18.507812 8.566406 C 18.507812 7.886719 19.042969 7.621094 19.042969 7.621094 Z M 17.171875 9.597656 C 17.171875 9.503906 17.167969 9.484375 17.167969 9.402344 C 17.167969 9.324219 17.230469 9.148438 17.273438 9.070312 C 17.324219 8.964844 17.632812 8.636719 17.714844 8.582031 C 17.734375 8.566406 17.75 8.671875 17.730469 8.703125 C 17.726562 8.710938 17.671875 8.765625 17.621094 8.847656 C 17.554688 8.949219 17.492188 9.085938 17.492188 9.179688 C 17.492188 9.253906 17.535156 9.285156 17.539062 9.386719 C 17.539062 9.417969 17.523438 9.445312 17.523438 9.445312 C 17.621094 9.445312 17.664062 9.519531 17.785156 9.519531 C 18.101562 9.519531 18.304688 9.328125 18.363281 9.328125 C 18.382812 9.328125 18.421875 9.339844 18.421875 9.363281 C 18.421875 9.375 18.277344 9.488281 18.082031 9.597656 C 17.917969 9.691406 17.714844 9.789062 17.546875 9.789062 C 17.332031 9.789062 17.355469 9.75 17.273438 9.75 C 17.195312 9.75 17.089844 9.828125 17.089844 9.828125 L 17.03125 9.820312 C 17.03125 9.820312 17.171875 9.6875 17.171875 9.597656 Z M 16.171875 10.335938 C 16.183594 10.304688 16.199219 10.105469 16.234375 9.96875 C 16.261719 9.859375 16.308594 9.816406 16.347656 9.734375 C 16.449219 9.535156 16.835938 9.265625 16.925781 9.203125 C 16.945312 9.191406 16.949219 9.238281 16.933594 9.273438 C 16.917969 9.296875 16.71875 9.457031 16.605469 9.675781 C 16.554688 9.777344 16.539062 9.894531 16.539062 10.011719 C 16.539062 10.101562 16.519531 10.171875 16.519531 10.171875 C 16.664062 10.171875 16.765625 10.300781 16.863281 10.300781 C 17.179688 10.300781 17.519531 10.109375 17.578125 10.109375 C 17.597656 10.109375 17.667969 10.125 17.667969 10.148438 C 17.667969 10.171875 17.03125 10.5625 16.667969 10.5625 C 16.453125 10.5625 16.316406 10.480469 16.238281 10.480469 C 16.15625 10.480469 16.105469 10.53125 16.105469 10.53125 L 16.066406 10.484375 C 16.066406 10.484375 16.144531 10.390625 16.171875 10.335938 Z M 15.0625 10.753906 C 15.097656 10.699219 15.179688 10.378906 15.296875 10.214844 C 15.347656 10.148438 15.628906 9.953125 15.644531 9.9375 C 15.667969 9.925781 15.703125 9.960938 15.679688 9.992188 C 15.65625 10.023438 15.578125 10.070312 15.519531 10.199219 C 15.457031 10.324219 15.453125 10.46875 15.425781 10.527344 C 15.402344 10.585938 15.363281 10.636719 15.363281 10.636719 C 15.632812 10.636719 15.554688 10.898438 16.085938 10.898438 C 16.1875 10.898438 16.695312 10.820312 16.695312 10.820312 L 16.855469 10.925781 C 16.855469 10.925781 16.332031 11.167969 15.84375 11.167969 C 15.402344 11.167969 15.257812 10.9375 15.011719 10.941406 C 14.980469 10.941406 14.835938 10.972656 14.835938 10.972656 L 14.816406 10.945312 C 14.816406 10.945312 15.027344 10.804688 15.0625 10.753906 Z M 13.753906 11.34375 C 13.753906 11.34375 13.875 11.3125 13.90625 11.164062 C 13.980469 10.78125 14.199219 10.769531 14.316406 10.65625 C 14.34375 10.636719 14.359375 10.667969 14.347656 10.683594 C 14.3125 10.71875 14.289062 10.792969 14.289062 10.816406 C 14.289062 10.839844 14.308594 10.917969 14.308594 10.957031 C 14.308594 11.0625 14.191406 11.15625 14.191406 11.15625 C 14.46875 11.15625 14.40625 11.355469 14.8125 11.355469 C 14.910156 11.355469 14.941406 11.339844 14.988281 11.339844 C 15.035156 11.339844 15.152344 11.367188 15.277344 11.492188 C 14.988281 11.527344 14.890625 11.621094 14.578125 11.621094 C 14.058594 11.621094 14.046875 11.398438 13.8125 11.398438 C 13.789062 11.398438 13.78125 11.410156 13.761719 11.410156 C 13.738281 11.410156 13.71875 11.402344 13.71875 11.378906 C 13.71875 11.355469 13.753906 11.34375 13.753906 11.34375 Z M 12.640625 12.992188 C 12.25 12.992188 12.070312 12.398438 12.070312 12.398438 C 12.070312 12.398438 12.246094 12.679688 12.480469 12.679688 C 12.652344 12.679688 13.113281 12.292969 13.113281 11.683594 C 13.113281 11.308594 13.023438 11.144531 13.023438 11.144531 C 13.023438 11.144531 13.363281 11.554688 13.363281 11.917969 C 13.363281 12.601562 12.875 12.992188 12.640625 12.992188 Z M 12.640625 12.992188 "/>
<path style=" stroke:none;fill-rule:nonzero;fill:rgb(83.921569%,62.352941%,5.882353%);fill-opacity:1;" d="M 12.320312 7.5 L 12.441406 8.035156 C 12.667969 7.667969 14.066406 5.753906 16.75 5.765625 L 17.136719 5.363281 L 15.125 5.363281 L 13.40625 6.738281 L 14.925781 4.960938 L 17.378906 4.960938 L 17.378906 4.25 L 14.707031 4.25 Z M 12.320312 7.5 "/>
<path style=" stroke:none;fill-rule:nonzero;fill:rgb(83.921569%,62.352941%,5.882353%);fill-opacity:1;" d="M 23 10.183594 L 22.996094 12.804688 C 24.179688 13.777344 24.90625 15.207031 24.90625 16.832031 C 24.90625 19.078125 23.542969 20.941406 21.464844 21.746094 C 21.023438 22.480469 20.644531 23.5 20.980469 24.171875 C 24.609375 23.417969 27.117188 20.484375 27.117188 16.832031 C 27.117188 13.917969 25.488281 11.449219 23 10.183594 Z M 26.179688 14.867188 C 26.179688 14.867188 26.21875 14.964844 26.234375 15.117188 C 26.25 15.285156 26.273438 15.476562 26.164062 15.679688 C 26.136719 15.726562 26.082031 15.769531 26.054688 15.820312 C 25.972656 15.976562 25.996094 16.09375 25.996094 16.09375 C 25.996094 16.09375 25.949219 15.953125 25.886719 15.90625 C 25.820312 15.859375 25.789062 15.867188 25.621094 15.726562 C 25.40625 15.546875 25.324219 15.039062 25.324219 15.039062 C 25.496094 15.050781 25.628906 15.355469 25.835938 15.328125 C 26.003906 15.304688 26.015625 14.921875 26.179688 14.867188 Z M 25.765625 13.828125 C 25.765625 13.828125 25.820312 13.917969 25.859375 14.066406 C 25.902344 14.226562 25.957031 14.414062 25.878906 14.632812 C 25.863281 14.683594 25.816406 14.734375 25.796875 14.789062 C 25.738281 14.957031 25.78125 15.066406 25.78125 15.066406 C 25.78125 15.066406 25.714844 14.933594 25.644531 14.898438 C 25.570312 14.863281 25.539062 14.875 25.351562 14.765625 C 25.113281 14.621094 24.949219 14.132812 24.949219 14.132812 C 25.121094 14.117188 25.300781 14.398438 25.5 14.335938 C 25.664062 14.285156 25.613281 13.910156 25.765625 13.828125 Z M 23.058594 11.453125 C 23.058594 11.453125 24.085938 11.824219 24.085938 12.113281 C 24.085938 12.226562 24.019531 12.285156 23.921875 12.285156 C 23.59375 12.285156 23.058594 11.453125 23.058594 11.453125 Z M 23.777344 12.574219 C 23.9375 12.5 24.199219 12.707031 24.367188 12.582031 C 24.503906 12.480469 24.332031 12.140625 24.449219 12.011719 C 24.449219 12.011719 24.53125 12.082031 24.617188 12.207031 C 24.710938 12.34375 24.824219 12.503906 24.824219 12.734375 C 24.824219 12.789062 24.796875 12.851562 24.796875 12.910156 C 24.796875 13.085938 24.875 13.175781 24.875 13.175781 C 24.875 13.175781 24.765625 13.074219 24.6875 13.066406 C 24.605469 13.054688 24.582031 13.078125 24.367188 13.035156 C 24.097656 12.980469 23.777344 12.574219 23.777344 12.574219 Z M 24.433594 13.296875 C 24.605469 13.253906 24.824219 13.503906 25.011719 13.410156 C 25.164062 13.332031 25.054688 12.96875 25.191406 12.863281 C 25.191406 12.863281 25.261719 12.945312 25.324219 13.082031 C 25.390625 13.238281 25.476562 13.414062 25.433594 13.640625 C 25.425781 13.691406 25.390625 13.75 25.378906 13.808594 C 25.347656 13.980469 25.410156 14.082031 25.410156 14.082031 C 25.410156 14.082031 25.320312 13.964844 25.242188 13.941406 C 25.167969 13.917969 25.140625 13.933594 24.933594 13.855469 C 24.675781 13.753906 24.433594 13.296875 24.433594 13.296875 Z M 22.203125 22.796875 C 22.101562 23.066406 21.011719 23.054688 21.011719 23.054688 C 21.011719 23.054688 21.800781 22.464844 22.109375 22.582031 C 22.199219 22.613281 22.242188 22.691406 22.203125 22.796875 Z M 23.0625 22.339844 C 23.039062 22.390625 23.042969 22.460938 23.023438 22.511719 C 22.941406 22.726562 22.78125 22.835938 22.644531 22.933594 C 22.519531 23.019531 22.417969 23.054688 22.417969 23.054688 C 22.355469 22.894531 22.632812 22.636719 22.542969 22.496094 C 22.429688 22.320312 22.113281 22.417969 21.988281 22.296875 C 21.988281 22.296875 22.429688 22.027344 22.703125 22.070312 C 22.917969 22.105469 22.933594 22.132812 23.011719 22.152344 C 23.089844 22.171875 23.226562 22.117188 23.226562 22.117188 C 23.226562 22.117188 23.121094 22.171875 23.0625 22.339844 Z M 24.050781 21.609375 C 24.042969 21.667969 24.054688 21.734375 24.046875 21.785156 C 24.003906 22.011719 23.867188 22.152344 23.746094 22.269531 C 23.640625 22.378906 23.546875 22.429688 23.546875 22.429688 C 23.457031 22.285156 23.6875 21.980469 23.570312 21.855469 C 23.425781 21.703125 23.132812 21.859375 22.988281 21.757812 C 22.988281 21.757812 23.375 21.417969 23.652344 21.414062 C 23.871094 21.410156 23.894531 21.433594 23.972656 21.4375 C 24.054688 21.441406 24.175781 21.363281 24.175781 21.363281 C 24.175781 21.363281 24.085938 21.4375 24.050781 21.609375 Z M 24.835938 20.941406 C 24.835938 21.171875 24.726562 21.332031 24.632812 21.472656 C 24.546875 21.597656 24.464844 21.667969 24.464844 21.667969 C 24.347656 21.539062 24.515625 21.199219 24.378906 21.097656 C 24.210938 20.976562 23.953125 21.183594 23.792969 21.113281 C 23.792969 21.113281 24.105469 20.703125 24.378906 20.648438 C 24.59375 20.601562 24.617188 20.621094 24.695312 20.613281 C 24.777344 20.601562 24.882812 20.5 24.882812 20.5 C 24.882812 20.5 24.804688 20.589844 24.808594 20.765625 C 24.808594 20.824219 24.835938 20.886719 24.835938 20.941406 Z M 25.351562 20.5625 C 25.285156 20.699219 25.21875 20.78125 25.21875 20.78125 C 25.082031 20.671875 25.195312 20.308594 25.042969 20.230469 C 24.855469 20.136719 24.632812 20.382812 24.464844 20.335938 C 24.464844 20.335938 24.710938 19.886719 24.96875 19.785156 C 25.175781 19.707031 25.203125 19.722656 25.28125 19.703125 C 25.355469 19.679688 25.445312 19.5625 25.445312 19.5625 C 25.445312 19.5625 25.382812 19.664062 25.414062 19.835938 C 25.421875 19.894531 25.457031 19.953125 25.46875 20.003906 C 25.503906 20.230469 25.421875 20.410156 25.351562 20.5625 Z M 25.902344 19.515625 C 25.867188 19.664062 25.816406 19.757812 25.816406 19.757812 C 25.660156 19.679688 25.703125 19.300781 25.539062 19.253906 C 25.335938 19.195312 25.164062 19.480469 24.992188 19.46875 C 24.992188 19.46875 25.148438 18.976562 25.382812 18.828125 C 25.566406 18.710938 25.597656 18.722656 25.667969 18.6875 C 25.742188 18.648438 25.804688 18.515625 25.804688 18.515625 C 25.804688 18.515625 25.765625 18.628906 25.828125 18.792969 C 25.847656 18.847656 25.894531 18.898438 25.914062 18.949219 C 25.992188 19.164062 25.945312 19.351562 25.902344 19.515625 Z M 26.269531 18.464844 C 26.253906 18.613281 26.21875 18.714844 26.21875 18.714844 C 26.054688 18.660156 26.035156 18.28125 25.867188 18.261719 C 25.65625 18.234375 25.53125 18.542969 25.359375 18.558594 C 25.359375 18.558594 25.433594 18.046875 25.644531 17.867188 C 25.808594 17.722656 25.839844 17.726562 25.90625 17.679688 C 25.96875 17.632812 26.011719 17.492188 26.011719 17.492188 C 26.011719 17.492188 25.988281 17.609375 26.078125 17.761719 C 26.105469 17.8125 26.160156 17.855469 26.1875 17.902344 C 26.300781 18.101562 26.28125 18.296875 26.269531 18.464844 Z M 26.011719 17.230469 C 25.800781 17.230469 25.628906 17.054688 25.628906 16.839844 C 25.628906 16.621094 25.800781 16.445312 26.011719 16.445312 C 26.222656 16.445312 26.394531 16.621094 26.394531 16.839844 C 26.394531 17.054688 26.222656 17.230469 26.011719 17.230469 Z M 26.011719 17.230469 "/>
<path style=" stroke:none;fill-rule:nonzero;fill:rgb(100%,100%,100%);fill-opacity:1;" d="M 21.160156 13.535156 L 21.582031 13.722656 L 21.519531 13.054688 C 21.519531 13.054688 20.738281 12.3125 20.113281 12.84375 C 19.914062 13.015625 19.300781 13.785156 19.300781 13.785156 C 19.011719 13.191406 18.347656 12.820312 17.4375 12.796875 C 17.003906 12.789062 16.488281 12.863281 15.875 13.007812 C 15.121094 13.1875 14.558594 13.40625 14.558594 13.40625 C 14.558594 13.40625 14.4375 13.542969 14.4375 13.757812 C 14.4375 14.429688 15.554688 14.433594 15.730469 14.433594 C 15.910156 14.433594 16.1875 14.421875 16.1875 14.421875 L 15.910156 15.652344 L 16.957031 15.796875 C 16.957031 15.796875 16.140625 17.511719 16.140625 18.875 C 16.140625 18.972656 16.199219 19.246094 16.332031 19.378906 C 16.441406 19.496094 16.90625 19.960938 17.285156 20.296875 C 17.398438 20.394531 17.511719 20.496094 17.609375 20.570312 C 17.683594 20.628906 17.746094 20.667969 17.785156 20.695312 C 17.871094 20.753906 17.957031 20.78125 18.023438 20.78125 C 18.59375 20.78125 18.96875 20.699219 19.226562 20.625 C 19.355469 20.585938 19.605469 20.476562 19.667969 20.410156 C 19.742188 20.332031 19.761719 20.140625 19.761719 20.105469 C 19.761719 19.875 19.699219 19.484375 18.816406 19.484375 C 17.933594 19.484375 17.574219 19.8125 17.574219 19.8125 L 17.769531 19.175781 C 17.769531 19.175781 17.816406 19.097656 17.992188 19.035156 C 18.140625 18.984375 18.382812 18.949219 18.765625 18.949219 C 19.097656 18.949219 19.6875 19.015625 19.6875 19.015625 L 19.644531 18.449219 L 19.289062 18.515625 L 18.472656 18.386719 L 16.707031 18.4375 L 16.625 18.367188 L 18.777344 17.96875 L 19.25 18.074219 L 19.640625 17.976562 L 19.433594 17.777344 L 19.195312 17.878906 L 19.152344 17.394531 L 17.859375 17.183594 L 18.875 16.816406 L 19.519531 17.070312 L 20.007812 16.835938 L 19.472656 14.746094 L 19.675781 14.109375 Z M 18.6875 14.867188 L 17.832031 14.753906 L 18.285156 14.394531 L 17.707031 14.230469 C 17.707031 14.230469 17.539062 14.507812 17.246094 14.507812 C 16.851562 14.507812 16.738281 14.074219 16.738281 14.074219 L 14.675781 13.808594 L 17.070312 13.414062 L 19.023438 14.207031 Z M 18.6875 14.867188 "/>
<path style=" stroke:none;fill-rule:nonzero;fill:rgb(100%,100%,100%);fill-opacity:1;" d="M 20.660156 18.058594 L 20.539062 17.78125 L 20.175781 17.367188 L 20.652344 16.972656 L 20.367188 16.375 L 20.042969 15.332031 L 20.238281 14.625 C 20.238281 14.625 20.363281 14.828125 20.5625 14.828125 C 20.863281 14.828125 20.957031 14.390625 20.957031 14.390625 L 21.359375 14.308594 L 21.253906 14.683594 C 21.253906 14.683594 21.605469 15.371094 21.605469 15.621094 L 21.179688 16.332031 Z M 20.660156 18.058594 "/>
<path style=" stroke:none;fill-rule:nonzero;fill:rgb(100%,100%,100%);fill-opacity:1;" d="M 18.539062 22.683594 L 18.84375 21.640625 L 17.832031 21.5 L 17.394531 21.890625 Z M 18.539062 22.683594 "/>
</g>
</svg>
