<?xml version="1.0" encoding="UTF-8"?>
<svg xmlns="http://www.w3.org/2000/svg" xmlns:xlink="http://www.w3.org/1999/xlink" width="17pt" height="20pt" viewBox="0 0 17 20" version="1.1">
<g id="surface1">
<path style=" stroke:none;fill-rule:nonzero;fill:rgb(0%,0%,0%);fill-opacity:1;" d="M 12.074219 7.425781 L 10.1875 4.847656 L 9.574219 5.136719 C 9.574219 5.136719 9.347656 5.007812 8.453125 4.882812 L 8.898438 4.4375 L 8.898438 3.421875 L 8.582031 3.421875 C 8.78125 3.152344 8.816406 2.742188 8.816406 2.390625 C 8.816406 2.042969 8.808594 1.242188 9.835938 0.5625 L 5.785156 0.5625 C 3.402344 1.363281 3.273438 4.929688 3.484375 7.34375 L 4.074219 7.117188 C 4.074219 7.117188 3.683594 7.992188 3.867188 8.464844 C 3.59375 9.105469 3.6875 9.710938 3.949219 10.171875 L 3.652344 10.589844 L 3.71875 12.460938 C 3.71875 12.460938 3.683594 12.515625 3.648438 12.5625 C 3.570312 12.667969 3.371094 12.835938 2.660156 12.96875 C 1.871094 13.113281 1.695312 13.273438 1.613281 13.605469 C 1.535156 13.933594 0.816406 14.179688 0.746094 14.199219 C 0.746094 14.199219 0.667969 14.417969 0.667969 14.667969 C 0.667969 15.671875 1.929688 16.3125 3.398438 16.878906 C 4.949219 17.476562 6.847656 17.964844 7.492188 18.816406 C 8.285156 19.214844 9.195312 19.4375 10.191406 19.4375 C 13.695312 19.4375 16.347656 16.542969 16.347656 13.261719 C 16.347656 10.53125 14.558594 8.253906 12.074219 7.425781 Z M 12.074219 7.425781 "/>
<path style=" stroke:none;fill-rule:nonzero;fill:rgb(89.411765%,9.019608%,24.313725%);fill-opacity:1;" d="M 3.910156 6.515625 C 3.910156 6.515625 3.605469 2.101562 5.757812 1.203125 L 6.070312 3.191406 L 6.136719 1.101562 L 8.792969 1.101562 C 8.503906 1.289062 8.40625 1.511719 8.347656 1.761719 C 8.230469 2.292969 8.324219 2.980469 8.105469 3.351562 L 6.078125 3.347656 Z M 3.910156 6.515625 "/>
<path style=" stroke:none;fill-rule:nonzero;fill:rgb(89.411765%,9.019608%,24.313725%);fill-opacity:1;" d="M 1.921875 14.164062 L 2.109375 14.511719 L 1.941406 14.6875 L 4.65625 15.925781 C 2.8125 14.753906 2.019531 14.28125 2.019531 13.796875 C 2.019531 13.339844 3.105469 13.5 3.707031 13.070312 C 3.871094 14.03125 2.492188 14.0625 2.492188 14.0625 L 4.757812 15.308594 C 5.855469 16.359375 7.125 16.695312 7.125 16.695312 C 7.398438 17.011719 7.453125 17.296875 7.453125 17.296875 C 7.453125 17.296875 6.097656 16.460938 5.40625 16.367188 C 5.40625 16.367188 5.835938 16.578125 6.34375 16.847656 C 7.15625 17.285156 8.175781 17.929688 8.046875 18.539062 C 6.894531 16.914062 1.222656 16.40625 1.222656 14.75 C 1.222656 14.304688 1.839844 14.304688 1.921875 14.164062 Z M 1.921875 14.164062 "/>
<path style=" stroke:none;fill-rule:nonzero;fill:rgb(89.411765%,9.019608%,24.313725%);fill-opacity:1;" d="M 10.054688 18.273438 C 10.371094 17.296875 11.070312 16.746094 11.941406 16.109375 C 12.738281 15.527344 13.472656 14.976562 13.472656 13.886719 C 13.4375 13.773438 12.558594 13.421875 12.460938 13.394531 C 12.460938 13.394531 13.019531 13.855469 13.019531 14.046875 C 13.019531 14.238281 11.785156 14.957031 11.785156 14.957031 C 11.785156 14.957031 11.910156 14.800781 12.066406 14.613281 C 12.28125 14.355469 12.550781 14.027344 12.550781 13.863281 C 12.550781 13.636719 12.125 13.566406 11.992188 13.09375 C 11.992188 13.09375 11.878906 13.269531 11.765625 13.515625 C 11.648438 13.773438 11.53125 14.101562 11.53125 14.261719 L 11.746094 15.761719 L 11.152344 15.691406 C 11.097656 15.734375 10.042969 16.726562 10.054688 18.273438 Z M 10.054688 18.273438 "/>
<path style=" stroke:none;fill-rule:nonzero;fill:rgb(83.921569%,62.352941%,5.882353%);fill-opacity:1;" d="M 10.910156 15.269531 L 11.128906 14.703125 L 11.253906 15.320312 Z M 10.910156 15.269531 "/>
<path style=" stroke:none;fill-rule:nonzero;fill:rgb(83.921569%,62.352941%,5.882353%);fill-opacity:1;" d="M 6.507812 10.199219 L 9.976562 9.007812 L 11.734375 10.035156 L 11.75 10.195312 C 11.75 10.195312 11.683594 10.136719 11.570312 10.074219 C 11.386719 9.972656 11.082031 9.847656 10.753906 9.847656 C 10.554688 9.851562 10.359375 9.960938 10.214844 10.09375 C 10.046875 10.25 9.941406 10.429688 9.941406 10.429688 C 9.941406 10.429688 9.722656 9.871094 8.71875 9.871094 C 7.777344 9.871094 6.507812 10.199219 6.507812 10.199219 Z M 6.507812 10.199219 "/>
<path style=" stroke:none;fill-rule:nonzero;fill:rgb(83.921569%,62.352941%,5.882353%);fill-opacity:1;" d="M 5.535156 9.640625 L 5.703125 10.167969 L 10.289062 8.328125 L 12.101562 9.90625 L 12.058594 9.207031 C 12.035156 9.214844 12.011719 9.222656 11.984375 9.222656 C 11.789062 9.222656 11.421875 8.976562 11.421875 8.976562 L 11.492188 8.917969 C 11.492188 8.917969 11.742188 9.007812 11.84375 9.007812 C 11.898438 9.007812 11.980469 8.984375 12.042969 8.960938 L 12.003906 8.269531 L 10.019531 5.503906 L 9.574219 5.664062 C 9.574219 5.664062 8.570312 5.257812 7.660156 5.257812 C 6.152344 5.257812 4.410156 6.726562 4.410156 8.257812 L 5.375 8.320312 L 8.011719 6.34375 L 5.351562 8.964844 C 5.351562 8.964844 5.144531 8.507812 4.761719 8.507812 C 4.59375 8.511719 4.199219 8.78125 4.199219 9.414062 C 4.199219 9.964844 4.460938 10.261719 4.460938 10.261719 L 4.15625 10.683594 C 4.285156 13.261719 4.246094 14.472656 3.355469 14.210938 L 4.652344 14.839844 C 4.652344 14.839844 4.625 13.179688 4.625 12.714844 C 4.625 11.859375 4.695312 11.769531 4.800781 11.773438 C 5.085938 11.773438 5.164062 13.265625 5.195312 14.226562 C 5.214844 14.78125 5.238281 15.210938 5.238281 15.210938 C 5.238281 15.210938 6.273438 16.347656 8.121094 16.507812 C 6.519531 15.382812 6.703125 14.019531 6.824219 13.097656 C 6.878906 12.671875 6.9375 12.230469 7.042969 11.746094 C 5.570312 11.730469 5.558594 10.914062 5.558594 10.703125 C 5.558594 10.492188 5.589844 10.382812 5.589844 10.382812 C 5.527344 10.429688 5.226562 10.660156 4.847656 10.546875 C 5.535156 10.324219 5.535156 9.640625 5.535156 9.640625 Z M 6.332031 7.273438 L 5.242188 8 L 4.636719 7.980469 C 4.636719 7.839844 4.707031 6.632812 6.355469 5.859375 C 6.21875 5.953125 6.101562 6.058594 5.976562 6.15625 C 5.679688 6.398438 5.230469 6.835938 5.230469 7.0625 C 5.230469 7.339844 5.59375 7.445312 6.332031 7.273438 Z M 11.324219 7.746094 C 11.335938 7.746094 11.691406 8.054688 11.691406 8.503906 C 11.691406 8.625 11.761719 8.726562 11.761719 8.726562 L 11.738281 8.773438 C 11.738281 8.773438 11.65625 8.726562 11.625 8.726562 C 11.597656 8.726562 11.558594 8.761719 11.460938 8.761719 C 11.367188 8.761719 11.179688 8.644531 10.980469 8.421875 C 10.980469 8.421875 11.007812 8.402344 11.039062 8.402344 C 11.070312 8.402344 11.230469 8.558594 11.335938 8.558594 C 11.441406 8.558594 11.410156 8.5 11.558594 8.511719 C 11.558594 8.511719 11.519531 8.402344 11.519531 8.324219 C 11.519531 8.007812 11.3125 7.824219 11.3125 7.789062 C 11.3125 7.753906 11.324219 7.746094 11.324219 7.746094 Z M 10.617188 7.746094 C 10.628906 7.746094 10.789062 7.925781 10.882812 7.925781 C 10.9375 7.925781 10.960938 7.902344 11.015625 7.902344 C 11.015625 7.902344 11.011719 7.878906 11.011719 7.851562 C 11.015625 7.765625 11.042969 7.730469 11.042969 7.664062 C 11.046875 7.582031 10.953125 7.347656 10.953125 7.339844 C 10.941406 7.308594 10.957031 7.222656 10.96875 7.238281 C 11.015625 7.292969 11.203125 7.589844 11.203125 7.792969 C 11.203125 7.886719 11.191406 7.933594 11.191406 8.015625 C 11.1875 8.097656 11.234375 8.179688 11.234375 8.179688 L 11.21875 8.21875 C 11.21875 8.21875 11.152344 8.128906 11.042969 8.128906 C 10.925781 8.128906 10.878906 8.105469 10.808594 8.042969 C 10.742188 7.980469 10.585938 7.777344 10.589844 7.765625 C 10.589844 7.757812 10.59375 7.746094 10.617188 7.746094 Z M 9.675781 6.316406 C 9.675781 6.316406 9.546875 6.453125 9.546875 6.832031 C 9.546875 7.417969 9.855469 7.78125 10.199219 7.78125 C 10.253906 7.78125 10.433594 7.746094 10.433594 7.746094 C 10.433594 7.746094 10.339844 7.984375 10.050781 7.984375 C 9.675781 7.984375 9.269531 7.46875 9.269531 7.03125 C 9.269531 6.515625 9.675781 6.316406 9.675781 6.316406 Z M 8.261719 7.808594 C 8.261719 7.738281 8.253906 7.722656 8.253906 7.664062 C 8.253906 7.601562 8.304688 7.46875 8.335938 7.410156 C 8.375 7.332031 8.609375 7.085938 8.667969 7.042969 C 8.6875 7.03125 8.695312 7.109375 8.683594 7.132812 C 8.679688 7.140625 8.636719 7.179688 8.597656 7.242188 C 8.550781 7.316406 8.503906 7.421875 8.503906 7.492188 C 8.503906 7.550781 8.535156 7.574219 8.539062 7.648438 C 8.539062 7.671875 8.527344 7.691406 8.527344 7.691406 C 8.601562 7.691406 8.632812 7.75 8.722656 7.75 C 8.960938 7.75 9.117188 7.605469 9.164062 7.605469 C 9.175781 7.605469 9.203125 7.613281 9.203125 7.632812 C 9.203125 7.640625 9.09375 7.726562 8.949219 7.808594 C 8.824219 7.878906 8.671875 7.953125 8.542969 7.953125 C 8.382812 7.953125 8.398438 7.921875 8.335938 7.921875 C 8.277344 7.921875 8.195312 7.984375 8.195312 7.984375 L 8.152344 7.976562 C 8.152344 7.976562 8.261719 7.878906 8.261719 7.808594 Z M 7.5 8.363281 C 7.511719 8.339844 7.523438 8.191406 7.550781 8.089844 C 7.574219 8.007812 7.605469 7.972656 7.636719 7.910156 C 7.710938 7.761719 8.003906 7.558594 8.070312 7.511719 C 8.089844 7.5 8.09375 7.539062 8.078125 7.5625 C 8.070312 7.582031 7.917969 7.699219 7.832031 7.867188 C 7.792969 7.945312 7.78125 8.03125 7.78125 8.121094 C 7.78125 8.1875 7.765625 8.242188 7.765625 8.242188 C 7.875 8.242188 7.953125 8.339844 8.027344 8.339844 C 8.265625 8.339844 8.523438 8.195312 8.570312 8.195312 C 8.582031 8.195312 8.632812 8.207031 8.632812 8.222656 C 8.632812 8.242188 8.152344 8.539062 7.878906 8.539062 C 7.71875 8.539062 7.613281 8.476562 7.550781 8.476562 C 7.492188 8.476562 7.453125 8.511719 7.453125 8.511719 L 7.425781 8.476562 C 7.425781 8.476562 7.484375 8.410156 7.5 8.363281 Z M 6.664062 8.679688 C 6.6875 8.640625 6.75 8.398438 6.839844 8.273438 C 6.878906 8.226562 7.089844 8.074219 7.105469 8.066406 C 7.121094 8.054688 7.148438 8.082031 7.128906 8.105469 C 7.113281 8.128906 7.054688 8.167969 7.007812 8.261719 C 6.964844 8.359375 6.957031 8.464844 6.9375 8.511719 C 6.921875 8.554688 6.890625 8.59375 6.890625 8.59375 C 7.09375 8.59375 7.035156 8.792969 7.4375 8.792969 C 7.515625 8.792969 7.902344 8.730469 7.902344 8.730469 L 8.019531 8.808594 C 8.019531 8.808594 7.625 8.992188 7.253906 8.992188 C 6.921875 8.992188 6.8125 8.820312 6.625 8.824219 C 6.601562 8.824219 6.492188 8.847656 6.492188 8.847656 L 6.476562 8.828125 C 6.476562 8.828125 6.636719 8.71875 6.664062 8.679688 Z M 5.671875 9.128906 C 5.671875 9.128906 5.765625 9.105469 5.789062 8.988281 C 5.84375 8.703125 6.007812 8.691406 6.097656 8.609375 C 6.117188 8.589844 6.132812 8.617188 6.121094 8.628906 C 6.09375 8.65625 6.078125 8.710938 6.078125 8.730469 C 6.078125 8.746094 6.09375 8.804688 6.09375 8.835938 C 6.09375 8.914062 6.003906 8.984375 6.003906 8.984375 C 6.214844 8.984375 6.164062 9.136719 6.472656 9.136719 C 6.546875 9.136719 6.574219 9.125 6.609375 9.125 C 6.644531 9.125 6.730469 9.144531 6.824219 9.238281 C 6.609375 9.265625 6.53125 9.335938 6.296875 9.335938 C 5.90625 9.335938 5.894531 9.167969 5.714844 9.167969 C 5.699219 9.167969 5.695312 9.179688 5.675781 9.179688 C 5.660156 9.179688 5.648438 9.171875 5.648438 9.152344 C 5.648438 9.132812 5.671875 9.128906 5.671875 9.128906 Z M 4.828125 10.371094 C 4.535156 10.371094 4.398438 9.925781 4.398438 9.925781 C 4.398438 9.925781 4.53125 10.136719 4.710938 10.136719 C 4.839844 10.136719 5.1875 9.84375 5.1875 9.386719 C 5.1875 9.097656 5.121094 8.976562 5.121094 8.976562 C 5.121094 8.976562 5.378906 9.285156 5.378906 9.5625 C 5.378906 10.074219 5.007812 10.371094 4.828125 10.371094 Z M 4.828125 10.371094 "/>
<path style=" stroke:none;fill-rule:nonzero;fill:rgb(83.921569%,62.352941%,5.882353%);fill-opacity:1;" d="M 4.589844 6.222656 L 4.679688 6.628906 C 4.851562 6.351562 5.910156 4.90625 7.941406 4.914062 L 8.234375 4.613281 L 6.710938 4.613281 L 5.410156 5.648438 L 6.558594 4.308594 L 8.417969 4.304688 L 8.417969 3.769531 L 6.394531 3.769531 Z M 4.589844 6.222656 "/>
<path style=" stroke:none;fill-rule:nonzero;fill:rgb(83.921569%,62.352941%,5.882353%);fill-opacity:1;" d="M 12.671875 8.25 L 12.667969 10.230469 C 13.5625 10.964844 14.113281 12.042969 14.113281 13.269531 C 14.113281 14.964844 13.082031 16.375 11.511719 16.980469 C 11.175781 17.535156 10.890625 18.308594 11.140625 18.8125 C 13.890625 18.242188 15.789062 16.027344 15.789062 13.269531 C 15.789062 11.070312 14.554688 9.207031 12.671875 8.25 Z M 15.078125 11.785156 C 15.078125 11.785156 15.105469 11.863281 15.117188 11.976562 C 15.132812 12.101562 15.148438 12.25 15.0625 12.402344 C 15.042969 12.4375 15.003906 12.46875 14.984375 12.507812 C 14.917969 12.625 14.9375 12.710938 14.9375 12.710938 C 14.9375 12.710938 14.902344 12.605469 14.855469 12.570312 C 14.804688 12.535156 14.78125 12.542969 14.652344 12.433594 C 14.492188 12.300781 14.429688 11.917969 14.429688 11.917969 C 14.5625 11.925781 14.660156 12.15625 14.816406 12.132812 C 14.945312 12.117188 14.953125 11.828125 15.078125 11.785156 Z M 14.765625 11.003906 C 14.765625 11.003906 14.804688 11.070312 14.835938 11.183594 C 14.867188 11.304688 14.90625 11.445312 14.851562 11.609375 C 14.835938 11.648438 14.800781 11.6875 14.789062 11.730469 C 14.746094 11.855469 14.777344 11.9375 14.777344 11.9375 C 14.777344 11.9375 14.726562 11.839844 14.671875 11.8125 C 14.617188 11.785156 14.59375 11.792969 14.453125 11.710938 C 14.269531 11.601562 14.144531 11.234375 14.144531 11.234375 C 14.277344 11.222656 14.410156 11.433594 14.5625 11.386719 C 14.6875 11.347656 14.648438 11.0625 14.765625 11.003906 Z M 12.714844 9.210938 C 12.714844 9.210938 13.492188 9.492188 13.492188 9.710938 C 13.492188 9.792969 13.441406 9.835938 13.367188 9.835938 C 13.121094 9.835938 12.714844 9.210938 12.714844 9.210938 Z M 13.257812 10.054688 C 13.378906 10 13.578125 10.15625 13.703125 10.0625 C 13.808594 9.984375 13.679688 9.726562 13.769531 9.632812 C 13.769531 9.632812 13.828125 9.683594 13.894531 9.777344 C 13.964844 9.882812 14.050781 10.003906 14.050781 10.179688 C 14.050781 10.21875 14.03125 10.265625 14.03125 10.308594 C 14.03125 10.441406 14.089844 10.511719 14.089844 10.511719 C 14.089844 10.511719 14.007812 10.433594 13.949219 10.425781 C 13.886719 10.421875 13.867188 10.4375 13.707031 10.402344 C 13.5 10.363281 13.257812 10.054688 13.257812 10.054688 Z M 13.757812 10.601562 C 13.882812 10.570312 14.050781 10.757812 14.195312 10.6875 C 14.308594 10.628906 14.226562 10.355469 14.328125 10.273438 C 14.328125 10.273438 14.382812 10.335938 14.429688 10.441406 C 14.480469 10.554688 14.542969 10.691406 14.511719 10.859375 C 14.507812 10.902344 14.480469 10.945312 14.472656 10.988281 C 14.449219 11.117188 14.492188 11.195312 14.492188 11.195312 C 14.492188 11.195312 14.425781 11.105469 14.371094 11.089844 C 14.3125 11.070312 14.289062 11.082031 14.136719 11.023438 C 13.941406 10.945312 13.757812 10.601562 13.757812 10.601562 Z M 12.066406 17.773438 C 11.992188 17.980469 11.164062 17.96875 11.164062 17.96875 C 11.164062 17.96875 11.765625 17.523438 11.996094 17.613281 C 12.066406 17.636719 12.097656 17.695312 12.066406 17.773438 Z M 12.714844 17.429688 C 12.699219 17.46875 12.703125 17.519531 12.6875 17.558594 C 12.628906 17.722656 12.503906 17.804688 12.402344 17.878906 C 12.308594 17.941406 12.230469 17.96875 12.230469 17.96875 C 12.183594 17.847656 12.394531 17.65625 12.324219 17.546875 C 12.238281 17.414062 12 17.488281 11.90625 17.398438 C 11.90625 17.398438 12.238281 17.195312 12.445312 17.226562 C 12.609375 17.253906 12.621094 17.273438 12.679688 17.289062 C 12.738281 17.304688 12.84375 17.261719 12.84375 17.261719 C 12.84375 17.261719 12.761719 17.304688 12.714844 17.429688 Z M 13.46875 16.878906 C 13.460938 16.921875 13.46875 16.972656 13.464844 17.011719 C 13.429688 17.183594 13.328125 17.285156 13.238281 17.378906 C 13.15625 17.457031 13.085938 17.5 13.085938 17.5 C 13.015625 17.386719 13.191406 17.160156 13.101562 17.066406 C 12.992188 16.949219 12.773438 17.066406 12.664062 16.992188 C 12.664062 16.992188 12.957031 16.734375 13.164062 16.730469 C 13.332031 16.726562 13.347656 16.746094 13.40625 16.75 C 13.46875 16.753906 13.5625 16.691406 13.5625 16.691406 C 13.5625 16.691406 13.492188 16.75 13.46875 16.878906 Z M 14.058594 16.375 C 14.0625 16.546875 13.976562 16.667969 13.90625 16.773438 C 13.839844 16.871094 13.78125 16.921875 13.78125 16.921875 C 13.691406 16.828125 13.820312 16.570312 13.714844 16.492188 C 13.585938 16.398438 13.390625 16.554688 13.269531 16.503906 C 13.269531 16.503906 13.507812 16.195312 13.714844 16.152344 C 13.875 16.117188 13.894531 16.132812 13.957031 16.125 C 14.015625 16.117188 14.09375 16.042969 14.09375 16.042969 C 14.09375 16.042969 14.039062 16.109375 14.039062 16.242188 C 14.039062 16.285156 14.058594 16.332031 14.058594 16.375 Z M 14.449219 16.085938 C 14.402344 16.191406 14.347656 16.25 14.347656 16.25 C 14.246094 16.171875 14.332031 15.898438 14.214844 15.839844 C 14.074219 15.765625 13.90625 15.953125 13.777344 15.917969 C 13.777344 15.917969 13.964844 15.574219 14.160156 15.5 C 14.316406 15.441406 14.335938 15.453125 14.394531 15.4375 C 14.453125 15.421875 14.519531 15.332031 14.519531 15.332031 C 14.519531 15.332031 14.476562 15.410156 14.496094 15.539062 C 14.503906 15.582031 14.53125 15.628906 14.539062 15.667969 C 14.566406 15.839844 14.503906 15.972656 14.449219 16.085938 Z M 14.867188 15.296875 C 14.839844 15.410156 14.800781 15.480469 14.800781 15.480469 C 14.683594 15.417969 14.714844 15.132812 14.59375 15.097656 C 14.441406 15.054688 14.308594 15.269531 14.179688 15.261719 C 14.179688 15.261719 14.296875 14.890625 14.472656 14.777344 C 14.613281 14.691406 14.636719 14.699219 14.691406 14.671875 C 14.746094 14.644531 14.792969 14.542969 14.792969 14.542969 C 14.792969 14.542969 14.761719 14.628906 14.808594 14.75 C 14.824219 14.792969 14.859375 14.832031 14.875 14.867188 C 14.9375 15.03125 14.898438 15.175781 14.867188 15.296875 Z M 15.144531 14.503906 C 15.132812 14.617188 15.105469 14.691406 15.105469 14.691406 C 14.980469 14.652344 14.96875 14.367188 14.839844 14.351562 C 14.683594 14.332031 14.585938 14.5625 14.457031 14.574219 C 14.457031 14.574219 14.511719 14.191406 14.671875 14.050781 C 14.796875 13.945312 14.820312 13.949219 14.871094 13.910156 C 14.917969 13.875 14.949219 13.769531 14.949219 13.769531 C 14.949219 13.769531 14.933594 13.855469 15 13.972656 C 15.019531 14.011719 15.0625 14.042969 15.082031 14.078125 C 15.167969 14.230469 15.15625 14.375 15.144531 14.503906 Z M 14.949219 13.570312 C 14.789062 13.570312 14.660156 13.4375 14.660156 13.277344 C 14.660156 13.113281 14.789062 12.980469 14.949219 12.980469 C 15.109375 12.980469 15.242188 13.113281 15.242188 13.277344 C 15.242188 13.4375 15.109375 13.570312 14.949219 13.570312 Z M 14.949219 13.570312 "/>
<path style=" stroke:none;fill-rule:nonzero;fill:rgb(100%,100%,100%);fill-opacity:1;" d="M 11.277344 10.78125 L 11.597656 10.925781 L 11.550781 10.417969 C 11.550781 10.417969 10.957031 9.855469 10.484375 10.261719 C 10.335938 10.390625 9.871094 10.96875 9.871094 10.96875 C 9.652344 10.523438 9.148438 10.242188 8.460938 10.226562 C 8.132812 10.21875 7.742188 10.273438 7.277344 10.382812 C 6.707031 10.519531 6.28125 10.683594 6.28125 10.683594 C 6.28125 10.683594 6.1875 10.789062 6.1875 10.949219 C 6.1875 11.457031 7.035156 11.460938 7.167969 11.460938 C 7.304688 11.460938 7.515625 11.453125 7.515625 11.453125 L 7.304688 12.378906 L 8.097656 12.492188 C 8.097656 12.492188 7.480469 13.785156 7.480469 14.816406 C 7.480469 14.886719 7.523438 15.09375 7.625 15.195312 C 7.707031 15.285156 8.058594 15.632812 8.347656 15.886719 C 8.429688 15.960938 8.515625 16.039062 8.589844 16.09375 C 8.644531 16.136719 8.695312 16.167969 8.726562 16.1875 C 8.789062 16.230469 8.851562 16.253906 8.902344 16.253906 C 9.335938 16.253906 9.621094 16.191406 9.816406 16.132812 C 9.914062 16.105469 10.101562 16.023438 10.148438 15.972656 C 10.203125 15.914062 10.222656 15.769531 10.222656 15.742188 C 10.222656 15.570312 10.175781 15.273438 9.503906 15.273438 C 8.835938 15.273438 8.5625 15.523438 8.5625 15.523438 L 8.710938 15.039062 C 8.710938 15.039062 8.746094 14.980469 8.878906 14.933594 C 8.992188 14.894531 9.175781 14.867188 9.464844 14.867188 C 9.71875 14.867188 10.164062 14.921875 10.164062 14.921875 L 10.132812 14.492188 L 9.863281 14.539062 L 9.246094 14.445312 L 7.90625 14.484375 L 7.84375 14.429688 L 9.476562 14.128906 L 9.832031 14.207031 L 10.128906 14.136719 L 9.96875 13.984375 L 9.792969 14.058594 L 9.757812 13.695312 L 8.78125 13.535156 L 9.546875 13.261719 L 10.035156 13.453125 L 10.40625 13.273438 L 10 11.695312 L 10.15625 11.214844 Z M 9.40625 11.789062 L 8.757812 11.703125 L 9.101562 11.429688 L 8.664062 11.304688 C 8.664062 11.304688 8.539062 11.515625 8.316406 11.515625 C 8.019531 11.515625 7.929688 11.1875 7.929688 11.1875 L 6.371094 10.988281 L 8.183594 10.691406 L 9.664062 11.289062 Z M 9.40625 11.789062 "/>
<path style=" stroke:none;fill-rule:nonzero;fill:rgb(100%,100%,100%);fill-opacity:1;" d="M 10.898438 14.195312 L 10.808594 13.988281 L 10.535156 13.675781 L 10.894531 13.378906 L 10.679688 12.925781 L 10.433594 12.136719 L 10.582031 11.605469 C 10.582031 11.605469 10.675781 11.757812 10.828125 11.757812 C 11.054688 11.757812 11.125 11.425781 11.125 11.425781 L 11.429688 11.367188 L 11.347656 11.648438 C 11.347656 11.648438 11.617188 12.167969 11.617188 12.355469 L 11.292969 12.894531 Z M 10.898438 14.195312 "/>
<path style=" stroke:none;fill-rule:nonzero;fill:rgb(100%,100%,100%);fill-opacity:1;" d="M 9.292969 17.691406 L 9.523438 16.902344 L 8.761719 16.792969 L 8.429688 17.089844 Z M 9.292969 17.691406 "/>
</g>
</svg>
