<?xml version="1.0" encoding="UTF-8"?>
<svg xmlns="http://www.w3.org/2000/svg" xmlns:xlink="http://www.w3.org/1999/xlink" width="28pt" height="20pt" viewBox="0 0 28 20" version="1.1">
<g id="surface1">
<path style=" stroke:none;fill-rule:nonzero;fill:rgb(100%,100%,100%);fill-opacity:1;" d="M 9.214844 19.691406 L 5.664062 19.691406 C 4.710938 19.691406 2.929688 19.476562 1.6875 18.050781 C 0.386719 16.554688 0.335938 14.589844 0.320312 13.945312 L 0.320312 13.921875 L 0.316406 13.765625 L 1.671875 13.765625 C 1.671875 13.761719 1.667969 13.761719 1.667969 13.757812 C 1.472656 13.566406 1.25 13.328125 1.027344 12.957031 C 0.921875 12.78125 0.824219 12.585938 0.75 12.398438 C 0.710938 12.300781 0.679688 12.207031 0.648438 12.105469 C 0.632812 12.0625 0.621094 12.019531 0.605469 11.972656 C 0.386719 11.328125 0.273438 10.441406 0.273438 9.339844 L 0.273438 9.1875 L 1.667969 9.1875 C 1.230469 8.679688 0.90625 8.183594 0.667969 7.488281 C 0.4375 6.804688 0.328125 5.925781 0.347656 4.953125 C 0.347656 4.933594 0.347656 4.917969 0.347656 4.910156 L 0.347656 4.753906 L 1.851562 4.753906 C 1.441406 4.335938 1.125 3.886719 0.898438 3.414062 C 0.320312 2.1875 0.347656 0.941406 0.359375 0.472656 L 0.363281 0.324219 L 0.507812 0.324219 C 0.671875 0.324219 16.8125 0.308594 18.949219 0.308594 C 21.339844 0.308594 23.5625 1.238281 25.210938 2.917969 C 26.003906 3.726562 26.625 4.664062 27.058594 5.707031 C 27.5 6.777344 27.726562 7.90625 27.726562 9.066406 C 27.726562 10.257812 27.496094 11.410156 27.042969 12.492188 C 26.605469 13.535156 25.980469 14.472656 25.183594 15.277344 C 24.386719 16.078125 23.457031 16.710938 22.421875 17.148438 C 21.355469 17.601562 20.21875 17.832031 19.046875 17.832031 C 17.992188 17.832031 16.96875 17.648438 16.007812 17.28125 C 15.234375 16.988281 14.503906 16.582031 13.828125 16.070312 C 12.988281 15.429688 12.453125 14.800781 12.214844 14.492188 L 9.257812 19.613281 Z M 9.214844 19.691406 "/>
<path style=" stroke:none;fill-rule:nonzero;fill:rgb(0%,0%,0%);fill-opacity:1;" d="M 18.949219 0.15625 C 16.8125 0.15625 0.671875 0.171875 0.507812 0.171875 L 0.214844 0.171875 L 0.207031 0.46875 C 0.195312 0.949219 0.167969 2.21875 0.765625 3.480469 C 0.949219 3.871094 1.195312 4.246094 1.503906 4.601562 L 0.195312 4.601562 L 0.195312 4.910156 C 0.195312 4.914062 0.195312 4.933594 0.195312 4.949219 C 0.175781 5.941406 0.289062 6.835938 0.527344 7.539062 C 0.730469 8.140625 1 8.59375 1.34375 9.035156 L 0.125 9.035156 L 0.125 9.339844 C 0.125 10.457031 0.238281 11.359375 0.460938 12.023438 C 0.476562 12.066406 0.492188 12.109375 0.503906 12.152344 C 0.535156 12.25 0.570312 12.355469 0.609375 12.457031 C 0.6875 12.652344 0.789062 12.851562 0.898438 13.035156 C 1.039062 13.273438 1.1875 13.464844 1.316406 13.613281 L 0.160156 13.613281 L 0.167969 13.925781 L 0.167969 13.949219 C 0.1875 14.609375 0.234375 16.613281 1.574219 18.152344 C 2.136719 18.796875 2.859375 19.265625 3.726562 19.546875 C 4.484375 19.792969 5.199219 19.84375 5.664062 19.84375 L 9.300781 19.84375 L 9.386719 19.691406 L 12.234375 14.761719 C 12.519531 15.105469 13.019531 15.648438 13.738281 16.191406 C 14.425781 16.710938 15.167969 17.128906 15.953125 17.425781 C 16.933594 17.796875 17.972656 17.988281 19.046875 17.988281 C 20.238281 17.988281 21.394531 17.753906 22.480469 17.289062 C 23.003906 17.066406 23.511719 16.792969 23.980469 16.472656 C 24.449219 16.152344 24.890625 15.789062 25.289062 15.386719 C 25.6875 14.984375 26.050781 14.539062 26.367188 14.066406 C 26.6875 13.589844 26.960938 13.082031 27.183594 12.550781 C 27.644531 11.449219 27.875 10.277344 27.875 9.066406 C 27.875 7.886719 27.648438 6.738281 27.195312 5.648438 C 26.976562 5.121094 26.707031 4.613281 26.394531 4.136719 C 26.078125 3.664062 25.71875 3.21875 25.320312 2.8125 C 24.917969 2.402344 24.476562 2.03125 24.007812 1.710938 C 23.53125 1.382812 23.019531 1.101562 22.488281 0.875 C 21.378906 0.398438 20.1875 0.15625 18.949219 0.15625 M 18.949219 0.464844 C 23.863281 0.464844 27.574219 4.433594 27.574219 9.066406 C 27.574219 13.851562 23.753906 17.679688 19.046875 17.679688 C 14.5 17.679688 12.199219 14.210938 12.199219 14.210938 L 9.125 19.535156 L 5.664062 19.535156 C 4.710938 19.535156 2.992188 19.316406 1.800781 17.949219 C 0.519531 16.476562 0.488281 14.519531 0.472656 13.917969 L 2.035156 13.917969 C 2.035156 13.917969 1.953125 13.828125 1.773438 13.652344 C 1.609375 13.484375 1.378906 13.25 1.15625 12.878906 C 1.0625 12.722656 0.96875 12.535156 0.890625 12.339844 C 0.835938 12.207031 0.796875 12.070312 0.746094 11.925781 C 0.523438 11.257812 0.425781 10.367188 0.425781 9.339844 L 2.007812 9.339844 C 1.429688 8.707031 1.066406 8.191406 0.8125 7.4375 C 0.4375 6.335938 0.5 5.03125 0.5 4.910156 L 2.230469 4.90625 C 1.6875 4.417969 1.289062 3.886719 1.035156 3.347656 C 0.5 2.210938 0.496094 1.078125 0.507812 0.476562 C 0.507812 0.476562 16.785156 0.464844 18.949219 0.464844 "/>
<path style=" stroke:none;fill-rule:nonzero;fill:rgb(0%,0%,0%);fill-opacity:1;" d="M 18.871094 1.074219 C 16.847656 1.074219 1.261719 1.074219 1.261719 1.074219 C 1.261719 2.476562 1.953125 3.695312 2.394531 4.140625 C 2.953125 4.710938 3.796875 5.171875 5.042969 5.171875 C 5.042969 5.171875 11.792969 5.175781 11.820312 5.175781 C 11.867188 5.175781 11.980469 5.28125 11.980469 5.359375 C 11.980469 5.441406 11.875 5.558594 11.820312 5.558594 L 1.335938 5.558594 C 1.335938 5.734375 1.316406 7.496094 2.417969 8.609375 C 3.511719 9.71875 4.621094 9.613281 5.132812 9.714844 L 9.164062 9.714844 C 9.207031 9.714844 9.351562 9.867188 9.351562 9.921875 C 9.351562 10 9.214844 10.101562 9.164062 10.101562 L 1.222656 10.097656 C 1.222656 10.328125 1.269531 11.683594 1.996094 12.757812 C 2.757812 13.894531 4.070312 14.257812 4.832031 14.257812 C 4.832031 14.257812 6.363281 14.261719 6.445312 14.261719 C 6.53125 14.261719 6.667969 14.394531 6.667969 14.464844 C 6.667969 14.535156 6.542969 14.65625 6.449219 14.65625 C 6.355469 14.65625 1.265625 14.652344 1.265625 14.652344 C 1.265625 14.886719 1.265625 16.242188 2.363281 17.464844 C 3.527344 18.761719 4.710938 18.847656 5.257812 18.847656 L 8.785156 18.847656 L 15.703125 7.039062 C 16.386719 5.890625 17.632812 5.125 19.050781 5.125 C 21.207031 5.125 22.957031 6.890625 22.957031 9.070312 C 22.957031 11.25 21.207031 13.015625 19.050781 13.015625 C 16.910156 13.015625 15.171875 11.277344 15.144531 9.121094 L 12.53125 13.628906 C 13.304688 14.707031 15.296875 17.070312 19.136719 17.070312 C 23.4375 17.070312 26.972656 13.496094 26.972656 9.046875 C 26.972656 5.050781 23.859375 1.074219 18.871094 1.074219 "/>
<path style=" stroke:none;fill-rule:nonzero;fill:rgb(95.686275%,47.45098%,24.313725%);fill-opacity:1;" d="M 21.300781 9.074219 C 21.300781 10.328125 20.292969 11.347656 19.050781 11.347656 C 17.808594 11.347656 16.800781 10.328125 16.800781 9.074219 C 16.800781 7.816406 17.808594 6.800781 19.050781 6.800781 C 20.292969 6.800781 21.300781 7.816406 21.300781 9.074219 "/>
</g>
</svg>
