<?xml version="1.0" encoding="UTF-8"?>
<svg xmlns="http://www.w3.org/2000/svg" xmlns:xlink="http://www.w3.org/1999/xlink" width="28pt" height="20pt" viewBox="0 0 28 20" version="1.1">
<g id="surface1">
<path style=" stroke:none;fill-rule:nonzero;fill:rgb(100%,100%,100%);fill-opacity:1;" d="M 9.171875 19.648438 L 5.589844 19.648438 C 4.628906 19.648438 2.832031 19.433594 1.578125 18.015625 C 0.265625 16.523438 0.214844 14.570312 0.199219 13.929688 L 0.199219 13.90625 L 0.195312 13.75 L 1.5625 13.75 C 1.5625 13.746094 1.558594 13.746094 1.558594 13.742188 C 1.363281 13.550781 1.136719 13.3125 0.910156 12.945312 C 0.804688 12.765625 0.707031 12.574219 0.632812 12.386719 C 0.59375 12.289062 0.5625 12.195312 0.527344 12.097656 C 0.515625 12.054688 0.5 12.007812 0.484375 11.964844 C 0.265625 11.320312 0.152344 10.4375 0.152344 9.34375 L 0.152344 9.191406 L 1.558594 9.191406 C 1.117188 8.683594 0.789062 8.191406 0.550781 7.5 C 0.316406 6.820312 0.203125 5.945312 0.226562 4.976562 C 0.226562 4.953125 0.226562 4.941406 0.226562 4.929688 L 0.226562 4.777344 L 1.742188 4.777344 C 1.332031 4.359375 1.007812 3.914062 0.785156 3.445312 C 0.199219 2.222656 0.226562 0.980469 0.238281 0.515625 L 0.238281 0.367188 L 0.390625 0.367188 C 0.554688 0.367188 16.835938 0.351562 18.996094 0.351562 C 21.402344 0.351562 23.648438 1.277344 25.3125 2.949219 C 26.109375 3.753906 26.738281 4.6875 27.171875 5.726562 C 27.621094 6.792969 27.847656 7.917969 27.847656 9.070312 C 27.847656 10.253906 27.617188 11.402344 27.160156 12.480469 C 26.71875 13.519531 26.085938 14.453125 25.28125 15.253906 C 24.476562 16.050781 23.542969 16.679688 22.5 17.117188 C 21.417969 17.570312 20.273438 17.796875 19.089844 17.796875 C 18.027344 17.796875 16.996094 17.613281 16.023438 17.25 C 15.246094 16.957031 14.507812 16.550781 13.828125 16.042969 C 12.976562 15.40625 12.4375 14.777344 12.199219 14.472656 L 9.214844 19.570312 Z M 9.171875 19.648438 "/>
<path style=" stroke:none;fill-rule:nonzero;fill:rgb(0%,0%,0%);fill-opacity:1;" d="M 18.996094 0.199219 C 16.835938 0.199219 0.554688 0.214844 0.390625 0.214844 L 0.0898438 0.214844 L 0.0859375 0.511719 C 0.0742188 0.988281 0.0429688 2.253906 0.644531 3.511719 C 0.832031 3.898438 1.082031 4.273438 1.390625 4.625 L 0.0742188 4.625 L 0.0742188 4.929688 C 0.0742188 4.9375 0.0742188 4.953125 0.0742188 4.972656 C 0.0507812 5.960938 0.167969 6.851562 0.40625 7.546875 C 0.613281 8.148438 0.882812 8.601562 1.230469 9.039062 L 0 9.039062 L 0 9.34375 C 0 10.457031 0.113281 11.355469 0.339844 12.015625 C 0.355469 12.058594 0.371094 12.101562 0.382812 12.144531 C 0.417969 12.242188 0.449219 12.34375 0.492188 12.445312 C 0.570312 12.640625 0.667969 12.839844 0.78125 13.023438 C 0.925781 13.261719 1.074219 13.449219 1.203125 13.59375 L 0.0390625 13.59375 L 0.046875 13.910156 L 0.046875 13.933594 C 0.0625 14.589844 0.113281 16.585938 1.464844 18.117188 C 2.03125 18.757812 2.761719 19.222656 3.636719 19.503906 C 4.398438 19.75 5.121094 19.800781 5.589844 19.800781 L 9.257812 19.800781 L 9.347656 19.648438 L 12.21875 14.738281 C 12.507812 15.085938 13.011719 15.625 13.734375 16.164062 C 14.429688 16.683594 15.179688 17.097656 15.96875 17.394531 C 16.957031 17.761719 18.007812 17.953125 19.089844 17.953125 C 20.292969 17.953125 21.460938 17.71875 22.558594 17.257812 C 23.085938 17.035156 23.59375 16.761719 24.070312 16.441406 C 24.542969 16.125 24.984375 15.761719 25.390625 15.363281 C 25.792969 14.960938 26.160156 14.519531 26.476562 14.050781 C 26.800781 13.574219 27.074219 13.066406 27.300781 12.539062 C 27.765625 11.441406 28 10.277344 28 9.070312 C 28 7.898438 27.769531 6.75 27.3125 5.667969 C 27.09375 5.144531 26.820312 4.636719 26.503906 4.164062 C 26.1875 3.691406 25.820312 3.246094 25.421875 2.84375 C 25.015625 2.4375 24.570312 2.066406 24.097656 1.746094 C 23.617188 1.421875 23.101562 1.140625 22.566406 0.914062 C 21.441406 0.441406 20.242188 0.199219 18.996094 0.199219 M 18.996094 0.503906 C 23.953125 0.503906 27.695312 4.457031 27.695312 9.070312 C 27.695312 13.835938 23.839844 17.644531 19.089844 17.644531 C 14.503906 17.644531 12.183594 14.195312 12.183594 14.195312 L 9.082031 19.496094 L 5.589844 19.496094 C 4.628906 19.496094 2.890625 19.273438 1.691406 17.914062 C 0.398438 16.445312 0.367188 14.5 0.351562 13.902344 L 1.929688 13.902344 C 1.929688 13.902344 1.84375 13.8125 1.664062 13.632812 C 1.5 13.46875 1.265625 13.234375 1.042969 12.863281 C 0.949219 12.707031 0.851562 12.523438 0.773438 12.332031 C 0.71875 12.195312 0.679688 12.0625 0.628906 11.914062 C 0.402344 11.253906 0.304688 10.363281 0.304688 9.34375 L 1.902344 9.34375 C 1.316406 8.710938 0.953125 8.199219 0.695312 7.449219 C 0.316406 6.351562 0.378906 5.054688 0.378906 4.929688 L 2.125 4.929688 C 1.578125 4.441406 1.179688 3.914062 0.921875 3.378906 C 0.378906 2.246094 0.375 1.117188 0.390625 0.519531 C 0.390625 0.519531 16.8125 0.503906 18.996094 0.503906 "/>
<path style=" stroke:none;fill-rule:nonzero;fill:rgb(0%,0%,0%);fill-opacity:1;" d="M 18.914062 1.113281 C 16.875 1.113281 1.148438 1.113281 1.148438 1.113281 C 1.148438 2.507812 1.847656 3.722656 2.289062 4.167969 C 2.855469 4.734375 3.707031 5.195312 4.960938 5.195312 C 4.960938 5.195312 11.773438 5.199219 11.800781 5.199219 C 11.847656 5.199219 11.960938 5.304688 11.960938 5.382812 C 11.960938 5.460938 11.859375 5.578125 11.800781 5.578125 L 1.222656 5.578125 C 1.222656 5.75 1.203125 7.503906 2.3125 8.617188 C 3.417969 9.71875 4.539062 9.617188 5.050781 9.71875 L 9.121094 9.71875 C 9.164062 9.71875 9.3125 9.867188 9.3125 9.921875 C 9.3125 10 9.171875 10.101562 9.121094 10.101562 L 1.105469 10.097656 C 1.105469 10.328125 1.15625 11.675781 1.886719 12.746094 C 2.660156 13.878906 3.980469 14.238281 4.75 14.238281 C 4.75 14.238281 6.296875 14.242188 6.378906 14.242188 C 6.464844 14.242188 6.601562 14.375 6.601562 14.445312 C 6.601562 14.515625 6.476562 14.636719 6.382812 14.636719 C 6.289062 14.636719 1.152344 14.632812 1.152344 14.632812 C 1.152344 14.863281 1.152344 16.214844 2.261719 17.433594 C 3.433594 18.722656 4.625 18.808594 5.179688 18.808594 L 8.738281 18.808594 L 15.71875 7.050781 C 16.410156 5.910156 17.664062 5.148438 19.097656 5.148438 C 21.273438 5.148438 23.035156 6.90625 23.035156 9.074219 C 23.035156 11.242188 21.273438 13.003906 19.097656 13.003906 C 16.9375 13.003906 15.183594 11.269531 15.15625 9.125 L 12.515625 13.613281 C 13.296875 14.6875 15.308594 17.039062 19.183594 17.039062 C 23.523438 17.039062 27.089844 13.480469 27.089844 9.050781 C 27.089844 5.074219 23.945312 1.113281 18.914062 1.113281 "/>
<path style=" stroke:none;fill-rule:nonzero;fill:rgb(95.686275%,47.45098%,24.313725%);fill-opacity:1;" d="M 21.363281 9.078125 C 21.363281 10.328125 20.347656 11.339844 19.09375 11.339844 C 17.839844 11.339844 16.824219 10.328125 16.824219 9.078125 C 16.824219 7.828125 17.839844 6.8125 19.09375 6.8125 C 20.347656 6.8125 21.363281 7.828125 21.363281 9.078125 "/>
</g>
</svg>
