<?xml version="1.0" encoding="UTF-8"?>
<svg xmlns="http://www.w3.org/2000/svg" xmlns:xlink="http://www.w3.org/1999/xlink" width="35pt" height="25pt" viewBox="0 0 35 25" version="1.1">
<g id="surface1">
<path style=" stroke:none;fill-rule:nonzero;fill:rgb(100%,100%,100%);fill-opacity:1;" d="M 11.515625 24.613281 L 7.078125 24.613281 C 5.890625 24.613281 3.664062 24.347656 2.109375 22.5625 C 0.480469 20.691406 0.421875 18.238281 0.402344 17.433594 L 0.398438 17.402344 L 0.394531 17.207031 L 2.089844 17.207031 C 2.089844 17.203125 2.085938 17.203125 2.085938 17.199219 C 1.84375 16.957031 1.5625 16.660156 1.285156 16.195312 C 1.152344 15.972656 1.03125 15.734375 0.9375 15.496094 C 0.890625 15.375 0.851562 15.257812 0.808594 15.132812 C 0.792969 15.078125 0.773438 15.023438 0.757812 14.96875 C 0.480469 14.160156 0.34375 13.050781 0.34375 11.675781 L 0.34375 11.484375 L 2.085938 11.484375 C 1.539062 10.847656 1.128906 10.230469 0.835938 9.359375 C 0.546875 8.503906 0.40625 7.410156 0.433594 6.191406 C 0.433594 6.164062 0.4375 6.144531 0.4375 6.136719 L 0.4375 5.945312 L 0.625 5.945312 L 2.3125 5.941406 C 1.800781 5.417969 1.402344 4.859375 1.125 4.269531 C 0.398438 2.734375 0.433594 1.175781 0.449219 0.59375 L 0.453125 0.40625 L 0.636719 0.40625 C 0.839844 0.40625 21.011719 0.386719 23.6875 0.386719 C 26.671875 0.386719 29.453125 1.546875 31.515625 3.648438 C 32.503906 4.65625 33.28125 5.832031 33.820312 7.136719 C 34.375 8.472656 34.65625 9.886719 34.65625 11.335938 C 34.65625 12.820312 34.371094 14.261719 33.804688 15.613281 C 33.257812 16.917969 32.472656 18.089844 31.476562 19.097656 C 30.480469 20.097656 29.320312 20.886719 28.027344 21.4375 C 26.691406 22.003906 25.273438 22.292969 23.808594 22.292969 C 22.488281 22.292969 21.210938 22.058594 20.007812 21.601562 C 19.046875 21.238281 18.128906 20.726562 17.285156 20.085938 C 16.234375 19.289062 15.5625 18.5 15.269531 18.113281 L 11.570312 24.519531 Z M 11.515625 24.613281 "/>
<path style=" stroke:none;fill-rule:nonzero;fill:rgb(0%,0%,0%);fill-opacity:1;" d="M 23.6875 0.195312 C 21.011719 0.195312 0.839844 0.210938 0.636719 0.214844 L 0.265625 0.214844 L 0.257812 0.585938 C 0.246094 1.1875 0.207031 2.773438 0.953125 4.351562 C 1.183594 4.839844 1.496094 5.308594 1.878906 5.75 L 0.625 5.753906 L 0.246094 5.753906 L 0.246094 6.136719 C 0.246094 6.144531 0.246094 6.164062 0.246094 6.1875 C 0.21875 7.425781 0.359375 8.546875 0.65625 9.421875 C 0.914062 10.175781 1.246094 10.742188 1.679688 11.292969 L 0.152344 11.292969 L 0.152344 11.675781 C 0.152344 13.074219 0.296875 14.199219 0.578125 15.03125 C 0.59375 15.085938 0.613281 15.140625 0.628906 15.191406 C 0.671875 15.316406 0.710938 15.441406 0.761719 15.570312 C 0.859375 15.8125 0.984375 16.066406 1.121094 16.296875 C 1.300781 16.59375 1.488281 16.832031 1.648438 17.015625 L 0.203125 17.015625 L 0.210938 17.40625 L 0.210938 17.4375 C 0.230469 18.261719 0.292969 20.765625 1.96875 22.691406 C 2.667969 23.496094 3.574219 24.082031 4.660156 24.433594 C 5.605469 24.742188 6.496094 24.804688 7.078125 24.804688 L 11.625 24.804688 L 11.734375 24.613281 L 15.292969 18.449219 C 15.652344 18.882812 16.277344 19.5625 17.171875 20.238281 C 18.03125 20.890625 18.960938 21.410156 19.941406 21.78125 C 21.164062 22.246094 22.46875 22.484375 23.808594 22.484375 C 25.296875 22.484375 26.742188 22.191406 28.101562 21.613281 C 28.757812 21.335938 29.386719 20.988281 29.976562 20.589844 C 30.5625 20.191406 31.113281 19.734375 31.609375 19.230469 C 32.109375 18.726562 32.5625 18.171875 32.960938 17.582031 C 33.359375 16.988281 33.699219 16.351562 33.976562 15.6875 C 34.554688 14.3125 34.847656 12.847656 34.847656 11.335938 C 34.847656 9.859375 34.558594 8.421875 33.996094 7.0625 C 33.722656 6.402344 33.382812 5.765625 32.992188 5.171875 C 32.597656 4.578125 32.148438 4.019531 31.648438 3.515625 C 31.148438 3.003906 30.597656 2.539062 30.011719 2.136719 C 29.414062 1.726562 28.777344 1.375 28.113281 1.089844 C 26.722656 0.496094 25.234375 0.195312 23.6875 0.195312 M 23.6875 0.578125 C 29.832031 0.578125 34.46875 5.542969 34.46875 11.335938 C 34.46875 17.3125 29.691406 22.101562 23.808594 22.101562 C 18.125 22.101562 15.25 17.765625 15.25 17.765625 L 11.40625 24.421875 L 7.078125 24.421875 C 5.886719 24.421875 3.738281 24.144531 2.25 22.4375 C 0.648438 20.59375 0.609375 18.148438 0.589844 17.398438 L 2.546875 17.398438 C 2.546875 17.398438 2.441406 17.285156 2.21875 17.0625 C 2.011719 16.859375 1.722656 16.5625 1.445312 16.097656 C 1.328125 15.902344 1.210938 15.667969 1.113281 15.425781 C 1.046875 15.257812 0.996094 15.085938 0.933594 14.90625 C 0.652344 14.074219 0.53125 12.957031 0.53125 11.675781 L 2.511719 11.675781 C 1.785156 10.882812 1.335938 10.242188 1.015625 9.296875 C 0.546875 7.917969 0.625 6.289062 0.625 6.136719 L 2.785156 6.132812 C 2.109375 5.519531 1.613281 4.859375 1.296875 4.1875 C 0.625 2.765625 0.621094 1.347656 0.636719 0.597656 C 0.636719 0.597656 20.984375 0.578125 23.6875 0.578125 "/>
<path style=" stroke:none;fill-rule:nonzero;fill:rgb(0%,0%,0%);fill-opacity:1;" d="M 23.585938 1.34375 C 21.058594 1.34375 1.574219 1.34375 1.574219 1.34375 C 1.574219 3.09375 2.441406 4.621094 2.992188 5.175781 C 3.695312 5.886719 4.746094 6.464844 6.300781 6.464844 C 6.300781 6.464844 14.742188 6.472656 14.773438 6.472656 C 14.832031 6.472656 14.972656 6.601562 14.972656 6.703125 C 14.972656 6.800781 14.84375 6.949219 14.773438 6.949219 L 1.667969 6.949219 C 1.667969 7.167969 1.644531 9.367188 3.023438 10.761719 C 4.390625 12.148438 5.777344 12.015625 6.414062 12.144531 L 11.453125 12.144531 C 11.511719 12.144531 11.691406 12.335938 11.691406 12.402344 C 11.691406 12.496094 11.519531 12.625 11.453125 12.625 L 1.527344 12.621094 C 1.527344 12.910156 1.589844 14.601562 2.492188 15.949219 C 3.449219 17.371094 5.085938 17.824219 6.039062 17.824219 C 6.039062 17.824219 7.953125 17.824219 8.058594 17.824219 C 8.164062 17.824219 8.332031 17.992188 8.332031 18.078125 C 8.332031 18.171875 8.175781 18.320312 8.0625 18.320312 C 7.945312 18.320312 1.585938 18.316406 1.585938 18.316406 C 1.585938 18.609375 1.582031 20.300781 2.957031 21.832031 C 4.410156 23.453125 5.886719 23.558594 6.570312 23.558594 L 10.984375 23.5625 L 19.628906 8.796875 C 20.484375 7.367188 22.039062 6.40625 23.8125 6.40625 C 26.511719 6.40625 28.695312 8.617188 28.695312 11.339844 C 28.695312 14.0625 26.511719 16.269531 23.8125 16.269531 C 21.136719 16.269531 18.964844 14.097656 18.933594 11.402344 L 15.660156 17.039062 C 16.628906 18.382812 19.125 21.335938 23.921875 21.335938 C 29.296875 21.335938 33.71875 16.871094 33.71875 11.308594 C 33.71875 6.3125 29.824219 1.34375 23.585938 1.34375 "/>
<path style=" stroke:none;fill-rule:nonzero;fill:rgb(95.686275%,47.45098%,24.313725%);fill-opacity:1;" d="M 26.625 11.339844 C 26.625 12.910156 25.367188 14.183594 23.8125 14.183594 C 22.257812 14.183594 21 12.910156 21 11.339844 C 21 9.769531 22.257812 8.5 23.8125 8.5 C 25.367188 8.5 26.625 9.769531 26.625 11.339844 "/>
</g>
</svg>
