<?xml version="1.0" encoding="UTF-8"?>
<svg xmlns="http://www.w3.org/2000/svg" xmlns:xlink="http://www.w3.org/1999/xlink" width="28pt" height="20pt" viewBox="0 0 28 20" version="1.1">
<g id="surface1">
<path style=" stroke:none;fill-rule:nonzero;fill:rgb(37.647059%,40%,41.568627%);fill-opacity:1;" d="M 23.703125 0 C 19.566406 0 15.425781 0 11.289062 0 C 10.65625 0.0078125 9.996094 0.136719 9.480469 0.523438 C 9.058594 0.839844 8.785156 1.320312 8.648438 1.824219 C 7.265625 7.355469 5.878906 12.886719 4.492188 18.414062 C 4.371094 18.894531 4.253906 19.378906 4.128906 19.855469 L 4.128906 20 L 18.1875 20 C 18.804688 19.84375 19.332031 19.339844 19.496094 18.722656 C 20.957031 12.558594 22.414062 6.394531 23.871094 0.226562 L 23.871094 0.109375 C 23.84375 0.0429688 23.78125 -0.0078125 23.703125 0 Z M 23.703125 0 "/>
<path style=" stroke:none;fill-rule:nonzero;fill:rgb(1.568627%,1.176471%,1.176471%);fill-opacity:1;" d="M 10.140625 0.347656 C 10.613281 0.175781 11.125 0.160156 11.621094 0.164062 C 15.652344 0.160156 19.683594 0.164062 23.714844 0.160156 C 23.394531 1.585938 23.042969 3.003906 22.714844 4.425781 C 21.59375 9.15625 20.472656 13.890625 19.351562 18.625 C 19.1875 19.359375 18.464844 19.917969 17.714844 19.894531 C 13.238281 19.894531 8.765625 19.898438 4.289062 19.894531 C 5.773438 13.960938 7.265625 8.027344 8.75 2.089844 C 8.835938 1.726562 8.957031 1.363281 9.183594 1.058594 C 9.417969 0.726562 9.761719 0.480469 10.140625 0.347656 Z M 10.140625 0.347656 "/>
<path style=" stroke:none;fill-rule:nonzero;fill:rgb(99.607843%,99.607843%,99.607843%);fill-opacity:1;" d="M 19.496094 18.722656 C 20.957031 12.558594 22.414062 6.394531 23.871094 0.226562 L 23.871094 20 L 18.1875 20 C 18.804688 19.84375 19.332031 19.339844 19.496094 18.722656 Z M 19.496094 18.722656 "/>
<path style=" stroke:none;fill-rule:nonzero;fill:rgb(37.647059%,40%,41.568627%);fill-opacity:1;" d="M 10.46875 1.007812 C 10.855469 0.816406 11.296875 0.773438 11.722656 0.769531 C 15.390625 0.769531 19.054688 0.769531 22.722656 0.769531 C 21.898438 4.335938 21.070312 7.902344 20.25 11.472656 C 20.140625 12.132812 19.546875 12.671875 18.886719 12.738281 C 18.761719 12.75 18.640625 12.746094 18.519531 12.746094 C 14.640625 12.746094 10.761719 12.746094 6.882812 12.746094 C 7.726562 9.375 8.585938 6.003906 9.433594 2.632812 C 9.503906 2.359375 9.566406 2.085938 9.691406 1.832031 C 9.847656 1.480469 10.117188 1.175781 10.46875 1.007812 Z M 10.46875 1.007812 "/>
<path style=" stroke:none;fill-rule:nonzero;fill:rgb(1.568627%,1.176471%,1.176471%);fill-opacity:1;" d="M 10.605469 1.117188 C 10.925781 0.980469 11.277344 0.933594 11.625 0.929688 C 15.257812 0.925781 18.890625 0.929688 22.523438 0.925781 C 21.734375 4.378906 20.929688 7.832031 20.132812 11.285156 C 20.09375 11.441406 20.074219 11.601562 20.003906 11.75 C 19.796875 12.226562 19.308594 12.574219 18.789062 12.589844 C 14.886719 12.589844 10.984375 12.589844 7.082031 12.589844 C 7.917969 9.277344 8.75 5.96875 9.589844 2.660156 C 9.664062 2.355469 9.738281 2.046875 9.890625 1.769531 C 10.046875 1.480469 10.300781 1.242188 10.605469 1.117188 Z M 10.605469 1.117188 "/>
<path style=" stroke:none;fill-rule:nonzero;fill:rgb(97.647059%,63.137255%,12.54902%);fill-opacity:1;" d="M 16.214844 2.273438 C 16.636719 1.863281 17.046875 1.433594 17.472656 1.027344 C 17.734375 1.605469 18.023438 2.171875 18.285156 2.753906 C 18.816406 2.515625 19.347656 2.265625 19.878906 2.027344 C 19.722656 2.699219 19.5625 3.371094 19.410156 4.042969 C 20.035156 4.28125 20.65625 4.523438 21.28125 4.769531 C 20.796875 5.148438 20.3125 5.527344 19.828125 5.90625 C 20.109375 6.570312 20.367188 7.246094 20.644531 7.914062 C 20.113281 7.953125 19.578125 7.980469 19.046875 8.019531 C 18.683594 9.121094 18.308594 10.21875 17.949219 11.324219 C 17.90625 11.308594 17.875 11.273438 17.839844 11.242188 C 17.183594 10.617188 16.523438 10 15.867188 9.375 C 15.5625 9.546875 15.253906 9.714844 14.949219 9.886719 C 14.964844 9.675781 15.015625 9.46875 15.027344 9.253906 C 13.925781 9.886719 12.824219 10.523438 11.71875 11.15625 C 10.996094 11.578125 10.261719 11.984375 9.539062 12.417969 C 9.621094 12.320312 9.722656 12.25 9.820312 12.171875 C 10.851562 11.339844 11.878906 10.507812 12.910156 9.675781 C 13.273438 9.378906 13.648438 9.089844 14.003906 8.785156 C 11.875 9.953125 9.75 11.113281 7.625 12.28125 C 7.542969 12.324219 7.46875 12.382812 7.375 12.390625 C 7.40625 12.375 7.433594 12.363281 7.460938 12.34375 C 9.285156 11.023438 11.105469 9.703125 12.929688 8.382812 C 13.0625 8.285156 13.203125 8.195312 13.332031 8.085938 C 11.445312 9.089844 9.558594 10.097656 7.671875 11.101562 C 7.695312 11.078125 7.722656 11.058594 7.746094 11.035156 C 9.441406 9.765625 11.132812 8.484375 12.832031 7.214844 C 12.121094 7.570312 11.421875 7.949219 10.714844 8.3125 C 9.8125 8.789062 8.902344 9.25 8.007812 9.730469 C 8.082031 9.644531 8.179688 9.582031 8.269531 9.515625 C 9.269531 8.753906 10.269531 7.992188 11.269531 7.230469 C 11.691406 6.90625 12.121094 6.589844 12.539062 6.257812 C 11.140625 7.011719 9.730469 7.746094 8.332031 8.5 C 8.332031 8.496094 8.328125 8.492188 8.324219 8.488281 C 9.738281 7.390625 11.148438 6.296875 12.554688 5.191406 C 12.222656 5.167969 11.894531 5.125 11.558594 5.117188 C 11.566406 5.105469 11.574219 5.082031 11.578125 5.074219 C 11.964844 4.890625 12.34375 4.6875 12.730469 4.5 C 12.710938 4.476562 12.6875 4.457031 12.660156 4.441406 C 12.285156 4.21875 11.910156 3.988281 11.535156 3.761719 C 12.21875 3.609375 12.902344 3.472656 13.582031 3.316406 C 13.691406 2.632812 13.792969 1.949219 13.898438 1.265625 C 14.632812 1.601562 15.375 1.925781 16.109375 2.261719 C 16.140625 2.269531 16.1875 2.308594 16.214844 2.273438 Z M 16.214844 2.273438 "/>
<path style=" stroke:none;fill-rule:nonzero;fill:rgb(1.568627%,1.176471%,1.176471%);fill-opacity:1;" d="M 16.378906 2.453125 C 16.664062 2.472656 16.945312 2.503906 17.21875 2.589844 C 17.246094 2.601562 17.269531 2.617188 17.292969 2.636719 C 17.589844 2.867188 17.851562 3.140625 18.078125 3.445312 C 18.21875 3.417969 18.359375 3.367188 18.46875 3.269531 C 18.546875 3.324219 18.609375 3.390625 18.671875 3.460938 C 18.550781 3.578125 18.390625 3.640625 18.230469 3.6875 C 18.351562 3.878906 18.449219 4.082031 18.535156 4.289062 C 18.796875 4.316406 19.058594 4.332031 19.320312 4.382812 C 19.355469 4.46875 19.394531 4.550781 19.421875 4.636719 C 19.15625 4.597656 18.890625 4.570312 18.625 4.554688 C 18.691406 4.761719 18.742188 4.972656 18.773438 5.1875 C 19.070312 5.203125 19.355469 5.300781 19.601562 5.460938 L 19.613281 5.46875 C 19.613281 5.589844 19.617188 5.710938 19.621094 5.835938 C 19.402344 5.617188 19.109375 5.476562 18.804688 5.449219 C 18.863281 6.230469 18.71875 7.027344 18.355469 7.722656 C 18.125 8.175781 17.808594 8.585938 17.425781 8.917969 C 17.167969 9.035156 16.875 9.09375 16.589844 9.105469 C 17.355469 8.71875 17.945312 8.019531 18.257812 7.226562 C 18.472656 6.660156 18.570312 6.039062 18.5 5.4375 C 18.1875 5.457031 17.878906 5.546875 17.605469 5.703125 C 17.277344 5.882812 16.992188 6.132812 16.710938 6.382812 C 16.117188 6.917969 15.53125 7.476562 14.835938 7.882812 C 14.585938 8.03125 14.328125 8.1875 14.046875 8.261719 C 13.925781 8.144531 13.804688 8.027344 13.707031 7.890625 C 14.234375 7.734375 14.742188 7.511719 15.207031 7.214844 C 15.621094 6.960938 15.992188 6.648438 16.351562 6.324219 C 16.738281 5.980469 17.132812 5.621094 17.605469 5.402344 C 17.875 5.269531 18.175781 5.199219 18.476562 5.183594 C 18.441406 4.964844 18.378906 4.753906 18.316406 4.542969 C 18.085938 4.519531 17.851562 4.53125 17.617188 4.539062 C 16.515625 4.585938 15.40625 4.816406 14.425781 5.328125 C 13.957031 5.578125 13.523438 5.894531 13.1875 6.304688 C 13.140625 6.371094 13.085938 6.433594 13.027344 6.488281 C 12.996094 6.285156 12.96875 6.082031 12.96875 5.875 C 13.621094 5.246094 14.460938 4.84375 15.324219 4.589844 C 16.121094 4.359375 16.953125 4.269531 17.78125 4.261719 C 17.925781 4.257812 18.066406 4.261719 18.210938 4.277344 C 18.125 4.078125 18.019531 3.894531 17.902344 3.714844 C 17.335938 3.6875 16.792969 3.507812 16.25 3.351562 C 15.570312 3.136719 14.820312 3.167969 14.152344 3.414062 C 14.0625 3.445312 13.976562 3.492188 13.882812 3.496094 C 14.105469 3.253906 14.371094 3.046875 14.664062 2.890625 C 15.027344 2.871094 15.394531 2.898438 15.753906 2.96875 C 16.410156 3.085938 17.03125 3.363281 17.695312 3.441406 C 17.355469 3.007812 16.890625 2.683594 16.390625 2.457031 Z M 16.378906 2.453125 "/>
<path style=" stroke:none;fill-rule:nonzero;fill:rgb(84.705882%,38.039216%,13.72549%);fill-opacity:1;" d="M 14.664062 2.890625 C 15.183594 2.585938 15.789062 2.449219 16.390625 2.457031 C 16.890625 2.683594 17.355469 3.007812 17.695312 3.441406 C 17.03125 3.363281 16.410156 3.085938 15.753906 2.96875 C 15.394531 2.898438 15.027344 2.871094 14.664062 2.890625 Z M 14.664062 2.890625 "/>
<path style=" stroke:none;fill-rule:nonzero;fill:rgb(84.705882%,38.039216%,13.72549%);fill-opacity:1;" d="M 17.292969 2.636719 C 17.351562 2.640625 17.414062 2.644531 17.46875 2.671875 C 17.832031 2.8125 18.179688 3.007812 18.46875 3.269531 C 18.359375 3.367188 18.21875 3.417969 18.078125 3.445312 C 17.851562 3.140625 17.589844 2.867188 17.292969 2.636719 Z M 17.292969 2.636719 "/>
<path style=" stroke:none;fill-rule:nonzero;fill:rgb(84.705882%,38.039216%,13.72549%);fill-opacity:1;" d="M 14.152344 3.414062 C 14.820312 3.167969 15.570312 3.136719 16.25 3.351562 C 16.792969 3.507812 17.335938 3.6875 17.902344 3.714844 C 18.015625 3.894531 18.125 4.078125 18.207031 4.277344 C 18.066406 4.261719 17.925781 4.257812 17.78125 4.261719 C 16.953125 4.269531 16.121094 4.359375 15.324219 4.589844 C 14.460938 4.84375 13.621094 5.246094 12.96875 5.875 C 12.917969 5.042969 13.238281 4.210938 13.785156 3.585938 C 13.820312 3.558594 13.839844 3.515625 13.882812 3.496094 C 13.976562 3.492188 14.0625 3.445312 14.152344 3.414062 Z M 14.152344 3.414062 "/>
<path style=" stroke:none;fill-rule:nonzero;fill:rgb(84.705882%,38.039216%,13.72549%);fill-opacity:1;" d="M 18.671875 3.460938 L 18.679688 3.457031 C 18.941406 3.730469 19.15625 4.042969 19.320312 4.382812 C 19.058594 4.332031 18.796875 4.316406 18.535156 4.289062 C 18.449219 4.082031 18.351562 3.878906 18.230469 3.6875 C 18.390625 3.640625 18.550781 3.578125 18.671875 3.460938 Z M 18.671875 3.460938 "/>
<path style=" stroke:none;fill-rule:nonzero;fill:rgb(84.705882%,38.039216%,13.72549%);fill-opacity:1;" d="M 14.425781 5.328125 C 15.40625 4.816406 16.515625 4.585938 17.617188 4.539062 C 17.851562 4.53125 18.085938 4.519531 18.316406 4.542969 C 18.378906 4.753906 18.441406 4.964844 18.476562 5.183594 C 18.175781 5.199219 17.875 5.269531 17.605469 5.402344 C 17.132812 5.621094 16.738281 5.976562 16.351562 6.324219 C 15.992188 6.648438 15.621094 6.960938 15.207031 7.214844 C 14.742188 7.511719 14.234375 7.734375 13.707031 7.890625 L 13.699219 7.890625 C 13.367188 7.488281 13.136719 7 13.027344 6.488281 C 13.085938 6.433594 13.140625 6.371094 13.1875 6.304688 C 13.523438 5.894531 13.957031 5.578125 14.425781 5.328125 Z M 14.425781 5.328125 "/>
<path style=" stroke:none;fill-rule:nonzero;fill:rgb(84.705882%,38.039216%,13.72549%);fill-opacity:1;" d="M 18.625 4.554688 C 18.890625 4.570312 19.15625 4.597656 19.421875 4.636719 C 19.515625 4.902344 19.597656 5.175781 19.601562 5.460938 C 19.355469 5.300781 19.070312 5.199219 18.773438 5.1875 C 18.742188 4.972656 18.691406 4.761719 18.625 4.554688 Z M 18.625 4.554688 "/>
<path style=" stroke:none;fill-rule:nonzero;fill:rgb(84.705882%,38.039216%,13.72549%);fill-opacity:1;" d="M 17.605469 5.703125 C 17.878906 5.546875 18.1875 5.457031 18.5 5.4375 C 18.570312 6.039062 18.472656 6.660156 18.257812 7.226562 C 17.945312 8.019531 17.355469 8.71875 16.589844 9.105469 C 16.570312 9.109375 16.53125 9.121094 16.511719 9.125 C 15.617188 9.191406 14.703125 8.871094 14.046875 8.261719 C 14.328125 8.1875 14.582031 8.03125 14.835938 7.882812 C 15.53125 7.476562 16.113281 6.917969 16.710938 6.382812 C 16.992188 6.132812 17.277344 5.882812 17.605469 5.703125 Z M 17.605469 5.703125 "/>
<path style=" stroke:none;fill-rule:nonzero;fill:rgb(84.705882%,38.039216%,13.72549%);fill-opacity:1;" d="M 18.804688 5.449219 C 19.109375 5.476562 19.402344 5.617188 19.617188 5.832031 C 19.617188 5.710938 19.613281 5.589844 19.613281 5.46875 C 19.683594 5.679688 19.613281 5.898438 19.609375 6.113281 C 19.542969 6.945312 19.128906 7.726562 18.519531 8.289062 C 18.230469 8.542969 17.902344 8.746094 17.546875 8.894531 C 17.507812 8.910156 17.46875 8.917969 17.425781 8.917969 C 17.808594 8.585938 18.125 8.175781 18.355469 7.722656 C 18.71875 7.027344 18.863281 6.230469 18.804688 5.449219 Z M 18.804688 5.449219 "/>
<path style=" stroke:none;fill-rule:nonzero;fill:rgb(99.607843%,99.607843%,99.607843%);fill-opacity:1;" d="M 6.765625 13.347656 C 6.824219 13.34375 6.882812 13.34375 6.9375 13.339844 C 7.117188 13.347656 7.296875 13.34375 7.476562 13.335938 C 7.546875 13.359375 7.570312 13.441406 7.617188 13.496094 C 7.566406 13.644531 7.550781 13.808594 7.488281 13.957031 C 7.308594 14.003906 7.128906 14.066406 6.953125 14.128906 C 6.9375 14.214844 6.917969 14.300781 6.886719 14.386719 C 6.921875 14.429688 6.953125 14.472656 6.984375 14.519531 C 6.851562 14.527344 6.714844 14.523438 6.582031 14.519531 C 6.679688 14.195312 6.742188 13.859375 6.835938 13.53125 C 6.867188 13.457031 6.769531 13.417969 6.765625 13.347656 Z M 6.765625 13.347656 "/>
<path style=" stroke:none;fill-rule:nonzero;fill:rgb(99.607843%,99.607843%,99.607843%);fill-opacity:1;" d="M 8.820312 13.363281 C 8.9375 13.300781 9.078125 13.363281 9.203125 13.332031 C 9.1875 13.5 9.121094 13.660156 9.09375 13.824219 C 9.171875 13.804688 9.25 13.785156 9.328125 13.777344 C 9.390625 13.640625 9.394531 13.484375 9.445312 13.347656 C 9.53125 13.34375 9.621094 13.34375 9.707031 13.335938 C 9.644531 13.675781 9.546875 14.007812 9.46875 14.347656 C 9.4375 14.402344 9.496094 14.441406 9.527344 14.476562 C 9.53125 14.488281 9.535156 14.511719 9.539062 14.519531 C 9.410156 14.523438 9.28125 14.523438 9.152344 14.523438 C 9.199219 14.351562 9.246094 14.179688 9.273438 14.003906 C 9.195312 14.023438 9.113281 14.042969 9.035156 14.0625 C 9.03125 14.082031 9.023438 14.125 9.019531 14.144531 C 8.980469 14.269531 8.953125 14.394531 8.925781 14.523438 C 8.832031 14.523438 8.742188 14.523438 8.652344 14.523438 C 8.742188 14.175781 8.828125 13.824219 8.910156 13.472656 C 8.878906 13.4375 8.847656 13.402344 8.820312 13.363281 Z M 8.820312 13.363281 "/>
<path style=" stroke:none;fill-rule:nonzero;fill:rgb(99.607843%,99.607843%,99.607843%);fill-opacity:1;" d="M 10.980469 13.480469 C 11.039062 13.4375 11.09375 13.390625 11.152344 13.34375 C 11.300781 13.339844 11.449219 13.347656 11.59375 13.339844 C 11.667969 13.34375 11.695312 13.433594 11.746094 13.476562 C 11.679688 13.773438 11.605469 14.066406 11.535156 14.359375 C 11.492188 14.429688 11.410156 14.46875 11.351562 14.523438 C 11.1875 14.523438 11.023438 14.523438 10.859375 14.519531 C 10.828125 14.472656 10.792969 14.421875 10.757812 14.375 C 10.835938 14.078125 10.902344 13.78125 10.980469 13.480469 Z M 10.980469 13.480469 "/>
<path style=" stroke:none;fill-rule:nonzero;fill:rgb(99.607843%,99.607843%,99.607843%);fill-opacity:1;" d="M 12.996094 13.34375 C 13.246094 13.339844 13.503906 13.351562 13.753906 13.335938 C 13.734375 13.445312 13.710938 13.550781 13.671875 13.65625 C 13.644531 13.628906 13.617188 13.597656 13.597656 13.558594 C 13.496094 13.542969 13.394531 13.546875 13.292969 13.558594 C 13.277344 13.652344 13.253906 13.742188 13.234375 13.832031 C 13.316406 13.832031 13.402344 13.832031 13.484375 13.832031 C 13.46875 13.898438 13.453125 13.964844 13.4375 14.035156 C 13.351562 14.035156 13.269531 14.035156 13.183594 14.035156 C 13.160156 14.132812 13.128906 14.230469 13.109375 14.332031 C 13.210938 14.332031 13.308594 14.332031 13.40625 14.332031 C 13.453125 14.289062 13.496094 14.242188 13.554688 14.21875 C 13.546875 14.324219 13.511719 14.421875 13.488281 14.523438 C 13.257812 14.523438 13.023438 14.523438 12.792969 14.523438 C 12.886719 14.175781 12.96875 13.824219 13.050781 13.472656 C 13.019531 13.4375 12.992188 13.402344 12.964844 13.371094 Z M 12.996094 13.34375 "/>
<path style=" stroke:none;fill-rule:nonzero;fill:rgb(99.607843%,99.607843%,99.607843%);fill-opacity:1;" d="M 15.058594 13.34375 C 15.261719 13.347656 15.46875 13.339844 15.671875 13.34375 C 15.730469 13.367188 15.757812 13.433594 15.796875 13.476562 C 15.738281 13.765625 15.660156 14.050781 15.59375 14.339844 C 15.5625 14.402344 15.613281 14.441406 15.65625 14.476562 C 15.65625 14.488281 15.65625 14.511719 15.65625 14.523438 C 15.53125 14.523438 15.402344 14.523438 15.277344 14.523438 C 15.363281 14.199219 15.433594 13.875 15.523438 13.554688 C 15.4375 13.550781 15.351562 13.546875 15.265625 13.554688 C 15.203125 13.878906 15.101562 14.195312 15.042969 14.519531 C 14.949219 14.523438 14.855469 14.523438 14.765625 14.523438 C 14.871094 14.128906 14.953125 13.734375 15.058594 13.34375 Z M 15.058594 13.34375 "/>
<path style=" stroke:none;fill-rule:nonzero;fill:rgb(99.607843%,99.607843%,99.607843%);fill-opacity:1;" d="M 17.046875 13.34375 C 17.175781 13.34375 17.304688 13.34375 17.429688 13.335938 C 17.34375 13.683594 17.265625 14.035156 17.167969 14.382812 C 17.199219 14.429688 17.234375 14.472656 17.261719 14.519531 C 17.128906 14.527344 16.996094 14.523438 16.863281 14.519531 C 16.929688 14.34375 16.957031 14.152344 17.007812 13.96875 C 17.042969 13.824219 17.078125 13.679688 17.113281 13.539062 C 17.152344 13.460938 17.054688 13.417969 17.046875 13.34375 Z M 17.046875 13.34375 "/>
<path style=" stroke:none;fill-rule:nonzero;fill:rgb(99.607843%,99.607843%,99.607843%);fill-opacity:1;" d="M 18.632812 13.355469 C 18.761719 13.332031 18.894531 13.347656 19.027344 13.34375 C 19.050781 13.464844 19.085938 13.582031 19.117188 13.699219 C 19.203125 13.585938 19.285156 13.46875 19.371094 13.355469 C 19.453125 13.308594 19.554688 13.355469 19.644531 13.347656 C 19.484375 13.546875 19.328125 13.75 19.171875 13.949219 C 19.222656 14.097656 19.265625 14.246094 19.3125 14.390625 C 19.351562 14.441406 19.429688 14.457031 19.460938 14.519531 C 19.332031 14.527344 19.203125 14.523438 19.074219 14.523438 C 19.046875 14.410156 19.011719 14.296875 18.992188 14.183594 C 18.90625 14.296875 18.820312 14.410156 18.738281 14.523438 C 18.644531 14.519531 18.554688 14.53125 18.460938 14.515625 C 18.628906 14.34375 18.757812 14.144531 18.90625 13.960938 C 18.898438 13.816406 18.832031 13.683594 18.804688 13.546875 C 18.796875 13.449219 18.6875 13.421875 18.632812 13.355469 Z M 18.632812 13.355469 "/>
<path style=" stroke:none;fill-rule:nonzero;fill:rgb(1.568627%,1.176471%,1.176471%);fill-opacity:1;" d="M 11.230469 13.550781 C 11.308594 13.550781 11.386719 13.550781 11.464844 13.550781 C 11.398438 13.8125 11.339844 14.074219 11.269531 14.332031 C 11.191406 14.332031 11.113281 14.328125 11.035156 14.332031 C 11.105469 14.070312 11.160156 13.808594 11.230469 13.550781 Z M 11.230469 13.550781 "/>
<path style=" stroke:none;fill-rule:nonzero;fill:rgb(1.568627%,1.176471%,1.176471%);fill-opacity:1;" d="M 7.09375 13.554688 C 7.171875 13.554688 7.253906 13.554688 7.332031 13.558594 C 7.304688 13.644531 7.289062 13.738281 7.253906 13.824219 C 7.175781 13.839844 7.097656 13.867188 7.023438 13.894531 C 7.03125 13.78125 7.070312 13.667969 7.09375 13.554688 Z M 7.09375 13.554688 "/>
<path style=" stroke:none;fill-rule:nonzero;fill:rgb(99.607843%,99.607843%,99.607843%);fill-opacity:1;" d="M 6.246094 15.46875 C 6.4375 15.3125 6.617188 15.140625 6.824219 15.007812 C 7.488281 15.003906 8.15625 15.007812 8.820312 15.007812 C 8.941406 15.15625 9.050781 15.316406 9.160156 15.476562 C 9.058594 15.785156 9 16.105469 8.914062 16.417969 C 8.609375 16.300781 8.3125 16.152344 8.011719 16.011719 C 8.195312 15.96875 8.371094 15.910156 8.550781 15.851562 C 8.578125 15.75 8.601562 15.648438 8.628906 15.546875 C 8.566406 15.460938 8.503906 15.375 8.4375 15.289062 C 8.003906 15.289062 7.570312 15.292969 7.136719 15.289062 C 6.964844 15.269531 6.878906 15.457031 6.730469 15.507812 C 6.570312 15.507812 6.410156 15.46875 6.246094 15.46875 Z M 6.246094 15.46875 "/>
<path style=" stroke:none;fill-rule:nonzero;fill:rgb(99.607843%,99.607843%,99.607843%);fill-opacity:1;" d="M 9.433594 15.027344 C 9.863281 15.027344 10.292969 15.027344 10.71875 15.027344 C 10.4375 16.136719 10.164062 17.25 9.878906 18.359375 C 9.867188 18.386719 9.859375 18.417969 9.851562 18.445312 C 10.160156 18.464844 10.46875 18.425781 10.777344 18.460938 C 10.914062 18.535156 11.039062 18.628906 11.167969 18.710938 C 10.632812 18.714844 10.09375 18.71875 9.558594 18.710938 C 9.476562 18.644531 9.425781 18.546875 9.359375 18.460938 C 9.621094 17.40625 9.898438 16.351562 10.152344 15.292969 C 9.890625 15.230469 9.628906 15.152344 9.359375 15.109375 C 9.382812 15.082031 9.410156 15.054688 9.433594 15.027344 Z M 9.433594 15.027344 "/>
<path style=" stroke:none;fill-rule:nonzero;fill:rgb(69.803922%,70.588235%,70.980392%);fill-opacity:1;" d="M 11.605469 15.03125 L 11.609375 15.035156 C 11.761719 15.113281 11.910156 15.199219 12.054688 15.292969 C 11.769531 16.433594 11.476562 17.574219 11.191406 18.714844 C 11.3125 18.792969 11.441406 18.867188 11.558594 18.953125 C 10.75 18.960938 9.9375 18.953125 9.125 18.957031 C 9.027344 18.816406 8.921875 18.683594 8.828125 18.539062 C 9.09375 17.507812 9.351562 16.476562 9.613281 15.445312 C 9.527344 15.332031 9.445312 15.21875 9.359375 15.109375 C 9.628906 15.152344 9.890625 15.230469 10.152344 15.292969 C 9.898438 16.351562 9.621094 17.40625 9.359375 18.460938 C 9.425781 18.546875 9.476562 18.644531 9.558594 18.710938 C 10.09375 18.71875 10.632812 18.714844 11.167969 18.710938 C 11.039062 18.628906 10.914062 18.535156 10.777344 18.460938 C 10.46875 18.425781 10.160156 18.464844 9.851562 18.445312 C 9.859375 18.417969 9.867188 18.386719 9.878906 18.359375 C 9.875 18.375 9.871094 18.414062 9.867188 18.433594 C 10.164062 18.421875 10.460938 18.449219 10.757812 18.421875 C 11.03125 17.289062 11.328125 16.164062 11.605469 15.03125 Z M 11.605469 15.03125 "/>
<path style=" stroke:none;fill-rule:nonzero;fill:rgb(99.607843%,99.607843%,99.607843%);fill-opacity:1;" d="M 11.609375 15.035156 C 11.949219 15.019531 12.285156 15.03125 12.625 15.027344 C 12.300781 16.347656 11.957031 17.664062 11.632812 18.988281 C 10.847656 18.976562 10.0625 18.984375 9.28125 18.984375 C 9.230469 18.976562 9.164062 19 9.125 18.957031 C 9.9375 18.953125 10.75 18.960938 11.558594 18.953125 C 11.441406 18.867188 11.3125 18.792969 11.191406 18.714844 C 11.476562 17.574219 11.769531 16.433594 12.054688 15.292969 C 11.910156 15.199219 11.761719 15.113281 11.609375 15.035156 Z M 11.609375 15.035156 "/>
<path style=" stroke:none;fill-rule:nonzero;fill:rgb(69.803922%,70.588235%,70.980392%);fill-opacity:1;" d="M 13.042969 15.1875 C 13.058594 15.121094 13.066406 15.054688 13.109375 15 C 13.238281 15.113281 13.386719 15.203125 13.535156 15.285156 C 14.078125 15.300781 14.621094 15.28125 15.160156 15.292969 C 15.246094 15.359375 15.296875 15.460938 15.363281 15.542969 C 15.097656 16.601562 14.828125 17.65625 14.566406 18.710938 C 14.824219 18.773438 15.078125 18.84375 15.339844 18.886719 C 15.34375 18.890625 15.359375 18.898438 15.363281 18.898438 C 15.324219 18.925781 15.292969 18.984375 15.234375 18.980469 C 14.820312 18.980469 14.40625 18.984375 13.992188 18.980469 C 14.285156 17.84375 14.558594 16.707031 14.855469 15.574219 C 14.578125 15.574219 14.304688 15.574219 14.027344 15.574219 C 14 15.570312 13.976562 15.578125 13.953125 15.59375 C 13.828125 15.476562 13.675781 15.398438 13.53125 15.304688 C 13.238281 16.441406 12.957031 17.578125 12.667969 18.710938 C 12.8125 18.800781 12.960938 18.886719 13.101562 18.980469 C 12.765625 18.980469 12.429688 18.980469 12.09375 18.980469 C 12.394531 17.710938 12.730469 16.453125 13.042969 15.1875 Z M 13.042969 15.1875 "/>
<path style=" stroke:none;fill-rule:nonzero;fill:rgb(99.607843%,99.607843%,99.607843%);fill-opacity:1;" d="M 13.109375 15 C 13.136719 15.007812 13.199219 15.019531 13.230469 15.023438 C 13.355469 14.996094 13.507812 14.996094 13.632812 15.023438 C 13.679688 14.992188 13.742188 15.011719 13.796875 15.007812 C 14.058594 15.011719 14.316406 15 14.578125 15.011719 L 14.601562 15.023438 C 14.695312 14.984375 14.804688 15.015625 14.902344 15.007812 C 14.992188 15.015625 15.089844 14.988281 15.171875 15.023438 C 15.296875 14.984375 15.4375 15.015625 15.566406 15.027344 C 15.675781 15.171875 15.78125 15.320312 15.886719 15.472656 C 15.742188 15.964844 15.636719 16.464844 15.507812 16.960938 C 15.367188 17.492188 15.242188 18.027344 15.09375 18.554688 C 15.175781 18.667969 15.261719 18.773438 15.339844 18.886719 C 15.078125 18.84375 14.824219 18.773438 14.566406 18.710938 C 14.828125 17.65625 15.097656 16.601562 15.363281 15.542969 C 15.296875 15.460938 15.246094 15.359375 15.160156 15.292969 C 14.621094 15.28125 14.078125 15.300781 13.535156 15.285156 C 13.386719 15.203125 13.238281 15.113281 13.109375 15 Z M 13.109375 15 "/>
<path style=" stroke:none;fill-rule:nonzero;fill:rgb(99.607843%,99.607843%,99.607843%);fill-opacity:1;" d="M 16.84375 15.050781 C 16.90625 14.992188 17.007812 14.992188 17.078125 15.023438 C 17.21875 14.984375 17.371094 15.019531 17.515625 15.007812 C 17.65625 15.019531 17.8125 14.984375 17.949219 15.023438 C 17.996094 14.992188 18.058594 15.011719 18.117188 15.007812 C 18.375 15.007812 18.632812 15.003906 18.894531 15.007812 C 18.96875 15.042969 18.996094 15.128906 19.046875 15.1875 C 19.109375 15.285156 19.195312 15.371094 19.242188 15.472656 C 19.160156 15.792969 19.085938 16.117188 18.996094 16.433594 C 18.707031 16.277344 18.398438 16.164062 18.105469 16.015625 C 18.28125 15.957031 18.472656 15.921875 18.640625 15.839844 C 18.675781 15.746094 18.695312 15.644531 18.71875 15.550781 C 18.652344 15.464844 18.605469 15.351562 18.515625 15.292969 C 18.082031 15.28125 17.644531 15.292969 17.210938 15.289062 C 17.042969 15.277344 16.960938 15.472656 16.808594 15.507812 C 16.664062 15.496094 16.503906 15.503906 16.367188 15.441406 C 16.523438 15.308594 16.6875 15.183594 16.84375 15.050781 Z M 16.84375 15.050781 "/>
<path style=" stroke:none;fill-rule:nonzero;fill:rgb(69.803922%,70.588235%,70.980392%);fill-opacity:1;" d="M 6.730469 15.507812 C 6.878906 15.457031 6.964844 15.269531 7.136719 15.289062 C 7.570312 15.292969 8.003906 15.289062 8.4375 15.289062 C 8.503906 15.375 8.566406 15.460938 8.628906 15.546875 C 8.601562 15.648438 8.578125 15.75 8.550781 15.851562 C 8.371094 15.910156 8.195312 15.96875 8.011719 16.011719 C 8.050781 15.867188 8.085938 15.71875 8.125 15.574219 C 7.828125 15.578125 7.527344 15.5625 7.230469 15.582031 C 7.066406 15.566406 6.90625 15.539062 6.742188 15.53125 C 6.65625 15.902344 6.542969 16.265625 6.472656 16.636719 C 7.042969 16.878906 7.617188 17.117188 8.1875 17.355469 C 8.097656 17.734375 7.992188 18.105469 7.90625 18.484375 C 8.066406 18.507812 8.222656 18.519531 8.382812 18.539062 C 8.203125 18.691406 8.019531 18.839844 7.835938 18.984375 C 7.460938 19.015625 7.082031 18.992188 6.703125 19 C 6.410156 18.988281 6.121094 19.003906 5.828125 19 C 5.777344 18.992188 5.753906 18.9375 5.726562 18.902344 C 5.644531 18.78125 5.554688 18.667969 5.476562 18.546875 C 5.550781 18.234375 5.621094 17.917969 5.714844 17.613281 C 5.851562 17.777344 5.960938 17.957031 6.074219 18.136719 C 6.078125 18.246094 6.027344 18.351562 6.007812 18.457031 C 6.066406 18.542969 6.117188 18.636719 6.199219 18.703125 C 6.65625 18.710938 7.117188 18.707031 7.578125 18.707031 C 7.699219 18.671875 7.785156 18.5625 7.886719 18.492188 C 7.71875 18.476562 7.550781 18.453125 7.386719 18.4375 C 7.464844 18.132812 7.539062 17.824219 7.621094 17.519531 C 7.050781 17.277344 6.476562 17.042969 5.910156 16.796875 C 6.023438 16.355469 6.136719 15.914062 6.246094 15.46875 C 6.410156 15.46875 6.570312 15.507812 6.730469 15.507812 Z M 6.730469 15.507812 "/>
<path style=" stroke:none;fill-rule:nonzero;fill:rgb(69.803922%,70.588235%,70.980392%);fill-opacity:1;" d="M 16.808594 15.507812 C 16.960938 15.472656 17.042969 15.277344 17.210938 15.289062 C 17.644531 15.292969 18.082031 15.28125 18.515625 15.292969 C 18.605469 15.351562 18.652344 15.464844 18.71875 15.550781 C 18.695312 15.644531 18.675781 15.746094 18.640625 15.839844 C 18.472656 15.921875 18.28125 15.957031 18.105469 16.015625 C 18.136719 15.867188 18.183594 15.722656 18.214844 15.574219 C 17.917969 15.570312 17.625 15.574219 17.328125 15.574219 C 17.164062 15.570312 17 15.542969 16.835938 15.527344 C 16.742188 15.894531 16.652344 16.261719 16.554688 16.628906 C 17.125 16.882812 17.703125 17.113281 18.277344 17.355469 C 18.191406 17.730469 18.09375 18.105469 17.992188 18.480469 C 18.148438 18.511719 18.308594 18.511719 18.464844 18.546875 C 18.285156 18.695312 18.105469 18.847656 17.917969 18.992188 C 17.527344 19.003906 17.136719 18.996094 16.742188 19 C 16.457031 18.984375 16.167969 19.015625 15.882812 18.988281 C 15.773438 18.835938 15.660156 18.691406 15.558594 18.535156 C 15.648438 18.222656 15.722656 17.90625 15.800781 17.59375 C 15.859375 17.605469 15.914062 17.628906 15.960938 17.664062 C 15.925781 17.652344 15.855469 17.628906 15.816406 17.621094 C 15.941406 17.789062 16.0625 17.960938 16.167969 18.140625 C 16.164062 18.25 16.121094 18.351562 16.097656 18.460938 C 16.15625 18.542969 16.214844 18.625 16.277344 18.707031 C 16.710938 18.710938 17.148438 18.703125 17.582031 18.707031 C 17.746094 18.730469 17.851562 18.574219 17.972656 18.492188 C 17.808594 18.476562 17.644531 18.453125 17.480469 18.4375 C 17.554688 18.132812 17.632812 17.824219 17.707031 17.515625 C 17.140625 17.277344 16.566406 17.046875 16 16.796875 C 16.128906 16.34375 16.226562 15.886719 16.351562 15.433594 L 16.367188 15.441406 C 16.503906 15.503906 16.664062 15.496094 16.808594 15.507812 Z M 16.808594 15.507812 "/>
<path style=" stroke:none;fill-rule:nonzero;fill:rgb(99.607843%,99.607843%,99.607843%);fill-opacity:1;" d="M 13.53125 15.304688 C 13.675781 15.398438 13.828125 15.480469 13.953125 15.59375 C 13.675781 16.726562 13.386719 17.851562 13.101562 18.980469 C 12.960938 18.886719 12.8125 18.800781 12.667969 18.714844 C 12.957031 17.578125 13.238281 16.441406 13.53125 15.304688 Z M 13.53125 15.304688 "/>
<path style=" stroke:none;fill-rule:nonzero;fill:rgb(99.607843%,99.607843%,99.607843%);fill-opacity:1;" d="M 6.742188 15.53125 C 6.90625 15.539062 7.066406 15.566406 7.230469 15.582031 C 7.167969 15.886719 7.074219 16.183594 7.011719 16.492188 C 7.519531 16.703125 8.027344 16.921875 8.535156 17.132812 C 8.597656 17.15625 8.660156 17.175781 8.714844 17.214844 C 8.601562 17.65625 8.484375 18.09375 8.382812 18.539062 C 8.222656 18.519531 8.066406 18.507812 7.90625 18.484375 C 7.992188 18.105469 8.097656 17.734375 8.1875 17.355469 C 7.617188 17.117188 7.042969 16.878906 6.472656 16.636719 C 6.542969 16.265625 6.65625 15.902344 6.742188 15.53125 Z M 6.742188 15.53125 "/>
<path style=" stroke:none;fill-rule:nonzero;fill:rgb(99.607843%,99.607843%,99.607843%);fill-opacity:1;" d="M 16.835938 15.527344 C 17 15.542969 17.164062 15.570312 17.328125 15.574219 C 17.257812 15.878906 17.171875 16.183594 17.097656 16.488281 C 17.667969 16.730469 18.238281 16.96875 18.808594 17.210938 C 18.691406 17.65625 18.585938 18.101562 18.464844 18.546875 C 18.308594 18.511719 18.148438 18.511719 17.992188 18.480469 C 18.09375 18.105469 18.191406 17.730469 18.277344 17.355469 C 17.703125 17.113281 17.125 16.882812 16.554688 16.628906 C 16.652344 16.261719 16.742188 15.894531 16.835938 15.527344 Z M 16.835938 15.527344 "/>
<path style=" stroke:none;fill-rule:nonzero;fill:rgb(99.607843%,99.607843%,99.607843%);fill-opacity:1;" d="M 5.699219 17.59375 C 5.902344 17.660156 6.082031 17.769531 6.277344 17.847656 C 6.390625 17.90625 6.515625 17.941406 6.617188 18.019531 C 6.558594 18.152344 6.539062 18.296875 6.503906 18.4375 C 6.796875 18.4375 7.089844 18.433594 7.382812 18.4375 C 7.550781 18.453125 7.71875 18.476562 7.886719 18.492188 C 7.78125 18.5625 7.699219 18.671875 7.574219 18.707031 C 7.117188 18.707031 6.65625 18.710938 6.199219 18.703125 C 6.117188 18.636719 6.066406 18.542969 6.003906 18.457031 C 6.027344 18.351562 6.074219 18.246094 6.074219 18.136719 C 5.960938 17.957031 5.851562 17.777344 5.714844 17.613281 Z M 5.699219 17.59375 "/>
<path style=" stroke:none;fill-rule:nonzero;fill:rgb(99.607843%,99.607843%,99.607843%);fill-opacity:1;" d="M 15.816406 17.617188 C 15.855469 17.628906 15.925781 17.652344 15.960938 17.664062 C 16.210938 17.765625 16.449219 17.890625 16.695312 17.992188 C 16.675781 18.144531 16.621094 18.289062 16.59375 18.4375 C 16.890625 18.4375 17.183594 18.433594 17.480469 18.4375 C 17.644531 18.453125 17.808594 18.476562 17.972656 18.488281 C 17.851562 18.574219 17.746094 18.730469 17.582031 18.707031 C 17.148438 18.703125 16.710938 18.710938 16.277344 18.707031 C 16.214844 18.625 16.15625 18.542969 16.097656 18.460938 C 16.121094 18.351562 16.164062 18.25 16.167969 18.140625 C 16.0625 17.960938 15.941406 17.789062 15.816406 17.617188 Z M 15.816406 17.617188 "/>
</g>
</svg>
