<?xml version="1.0" encoding="UTF-8"?>
<svg xmlns="http://www.w3.org/2000/svg" xmlns:xlink="http://www.w3.org/1999/xlink" width="28pt" height="20pt" viewBox="0 0 28 20" version="1.1">
<g id="surface1">
<path style=" stroke:none;fill-rule:nonzero;fill:rgb(100%,100%,100%);fill-opacity:1;" d="M 23.398438 9.503906 L 22.90625 9.28125 C 22.917969 9.1875 22.925781 9.070312 22.917969 8.933594 C 22.894531 8.484375 22.71875 8.058594 22.40625 7.707031 L 21.894531 7.136719 L 21.917969 7.890625 C 21.917969 7.90625 21.910156 8 21.851562 8.144531 C 21.804688 8.265625 21.71875 8.4375 21.558594 8.636719 L 21.449219 8.582031 L 21.171875 7.863281 L 22.316406 5.460938 L 22.40625 5.878906 L 22.773438 5.285156 C 22.78125 5.269531 22.867188 5.125 22.9375 4.886719 C 23.023438 4.601562 23.054688 4.289062 23.03125 3.976562 L 23.28125 3.464844 L 23.316406 3.398438 L 23.308594 3.324219 C 23.308594 3.304688 23.171875 1.351562 23.152344 1.027344 C 23.144531 0.863281 23 0.613281 22.800781 0.417969 C 22.609375 0.226562 22.28125 0 21.8125 0 C 21.636719 0 21.46875 0.0273438 21.3125 0.0859375 C 21.199219 0.125 21.113281 0.175781 21.074219 0.207031 C 21.039062 0.234375 20.589844 0.582031 19.972656 1.0625 C 18.160156 2.464844 16.378906 3.84375 15.972656 4.160156 C 15.964844 4.160156 15.953125 4.160156 15.941406 4.160156 C 15.773438 4.160156 15.417969 4.171875 14.960938 4.242188 C 14.429688 4.324219 13.910156 4.464844 13.417969 4.65625 C 12.777344 4.90625 12.191406 5.242188 11.679688 5.660156 C 11.070312 6.152344 10.558594 6.757812 10.152344 7.460938 L 4.539062 11.972656 L 4.324219 12.144531 L 4.492188 12.363281 C 4.515625 12.386719 4.542969 12.425781 4.574219 12.46875 C 4.746094 12.703125 5.066406 13.144531 5.578125 13.527344 C 6.207031 14 6.933594 14.238281 7.734375 14.238281 C 7.957031 14.238281 8.183594 14.21875 8.417969 14.183594 L 8.421875 14.183594 L 8.425781 14.179688 L 9.511719 13.976562 C 9.546875 14.125 9.605469 14.335938 9.679688 14.585938 C 9.910156 15.332031 10.332031 16.433594 11.0625 17.441406 C 11.464844 18.003906 11.921875 18.480469 12.421875 18.863281 C 13.007812 19.3125 13.660156 19.632812 14.359375 19.824219 L 15.007812 20 L 14.675781 19.417969 C 14.671875 19.410156 14.28125 18.714844 14.011719 17.777344 C 13.828125 17.136719 13.675781 16.28125 13.820312 15.460938 C 13.917969 15.707031 14.046875 15.984375 14.199219 16.269531 C 14.460938 16.753906 14.75 17.148438 15.050781 17.441406 C 15.453125 17.828125 15.886719 18.042969 16.339844 18.078125 L 17.027344 18.132812 L 16.570312 17.617188 C 16.558594 17.601562 16.230469 17.210938 16.042969 16.535156 C 15.824219 15.765625 15.855469 14.953125 16.140625 14.105469 C 16.222656 14.210938 16.324219 14.328125 16.4375 14.441406 C 16.671875 14.675781 16.921875 14.863281 17.183594 14.996094 C 17.519531 15.171875 17.875 15.257812 18.238281 15.257812 L 18.8125 15.261719 L 18.457031 14.808594 C 18.359375 14.6875 18.28125 14.527344 18.191406 14.328125 C 17.878906 13.636719 17.796875 12.832031 17.960938 12.136719 L 20.949219 12.25 L 21.011719 12.253906 L 21.066406 12.226562 L 22.507812 11.625 L 22.59375 11.585938 L 22.640625 11.5 L 23.53125 9.894531 L 23.675781 9.628906 Z M 23.398438 9.503906 "/>
<path style=" stroke:none;fill-rule:nonzero;fill:rgb(0%,0%,0%);fill-opacity:1;" d="M 4.714844 12.1875 C 4.996094 12.550781 6.023438 14.273438 8.375 13.90625 C 9.71875 13.652344 9.71875 13.652344 9.71875 13.652344 C 9.71875 13.652344 9.789062 13.984375 9.949219 14.503906 C 10.386719 15.945312 11.585938 18.78125 14.433594 19.554688 C 14.433594 19.554688 12.8125 16.714844 13.800781 14.574219 C 13.800781 14.574219 14.664062 17.664062 16.359375 17.800781 C 16.359375 17.800781 14.910156 16.136719 16.074219 13.511719 C 16.074219 13.511719 16.84375 14.976562 18.238281 14.980469 C 18.121094 14.832031 18.03125 14.648438 17.9375 14.441406 C 17.625 13.753906 17.457031 12.777344 17.753906 11.847656 L 20.960938 11.972656 L 22.398438 11.367188 L 23.285156 9.757812 L 22.585938 9.445312 C 22.585938 9.445312 22.859375 8.636719 22.199219 7.894531 C 22.199219 7.894531 22.195312 8.375 21.628906 8.984375 L 21.226562 8.78125 L 20.867188 7.851562 L 22.367188 4.710938 C 22.367188 4.710938 22.5 4.972656 22.535156 5.136719 C 22.535156 5.136719 22.828125 4.664062 22.746094 3.921875 L 23.03125 3.34375 C 23.03125 3.34375 22.890625 1.375 22.875 1.039062 C 22.871094 0.921875 22.515625 0.277344 21.8125 0.277344 C 21.472656 0.277344 21.265625 0.410156 21.246094 0.425781 C 21.117188 0.527344 16.21875 4.316406 16.066406 4.441406 C 15.726562 4.425781 12.199219 4.402344 10.371094 7.644531 Z M 4.714844 12.1875 "/>
<path style=" stroke:none;fill-rule:nonzero;fill:rgb(93.72549%,88.235294%,77.647059%);fill-opacity:1;" d="M 7.707031 13.15625 C 8.007812 13.089844 7.394531 12.875 7.285156 12.304688 C 7.453125 12.433594 8.09375 12.675781 8.238281 12.558594 C 8.347656 12.449219 8.003906 12.082031 8.140625 11.261719 C 8.277344 10.410156 8.757812 10.277344 8.519531 10.136719 C 8.25 10.089844 5.761719 12.144531 5.761719 12.144531 L 6.152344 12.789062 C 6.152344 12.789062 7.460938 13.277344 7.707031 13.15625 Z M 7.707031 13.15625 "/>
<path style=" stroke:none;fill-rule:nonzero;fill:rgb(55.686275%,0%,15.686275%);fill-opacity:1;" d="M 21.421875 11.304688 L 22.21875 10.972656 L 21.984375 10.433594 Z M 21.421875 11.304688 "/>
<path style=" stroke:none;fill-rule:nonzero;fill:rgb(55.686275%,0%,15.686275%);fill-opacity:1;" d="M 15.46875 13.933594 C 15.449219 14.054688 15.613281 14.121094 15.671875 13.980469 C 15.730469 13.839844 16.058594 12.902344 16.1875 12.890625 C 16.234375 12.886719 16.292969 13.160156 16.460938 13.433594 C 16.730469 13.878906 17.246094 14.414062 17.53125 14.414062 C 17.660156 14.414062 17.679688 14.398438 17.679688 14.398438 L 17.367188 13.9375 L 16.460938 11.417969 L 15.902344 12.253906 Z M 15.46875 13.933594 "/>
<path style=" stroke:none;fill-rule:nonzero;fill:rgb(55.686275%,0%,15.686275%);fill-opacity:1;" d="M 14.257812 12.1875 C 14.257812 12.1875 15.488281 16.792969 15.410156 16.699219 C 14.105469 15.164062 14.046875 13.464844 14.046875 13.464844 C 14.046875 13.464844 13.207031 14.464844 13.183594 16.125 L 12.882812 16.105469 L 13.503906 13.582031 Z M 14.257812 12.1875 "/>
<path style=" stroke:none;fill-rule:nonzero;fill:rgb(93.72549%,88.235294%,77.647059%);fill-opacity:1;" d="M 22.304688 9.523438 C 22.304688 9.523438 22.492188 8.867188 22.28125 8.394531 C 22.164062 8.804688 21.925781 9.066406 21.722656 9.246094 L 21 8.898438 L 22.460938 9.84375 L 21.582031 10.050781 L 20.773438 9.761719 C 20.773438 9.761719 20.933594 8.90625 20.726562 8.609375 C 20.714844 8.675781 20.664062 8.773438 20.636719 8.835938 C 20.480469 9.214844 20.144531 9.519531 20.144531 9.519531 L 19.363281 9.238281 L 18.726562 7.5625 L 21.0625 3.785156 C 21.0625 3.785156 21.324219 4.046875 21.449219 4.359375 C 21.605469 3.875 21.378906 3.265625 21.378906 3.265625 L 21.660156 2.8125 L 22.335938 2.320312 L 22.460938 2.941406 L 21.347656 6.035156 L 22.230469 4.128906 C 22.230469 4.128906 22.273438 4.167969 22.335938 4.253906 C 22.398438 4.34375 22.480469 4.488281 22.527344 4.601562 C 22.628906 4.339844 22.484375 3.628906 22.484375 3.628906 L 22.742188 3.15625 L 22.429688 2.003906 L 21.242188 2.824219 L 17.75 6.808594 C 17.75 6.808594 16.957031 7.117188 16.40625 7.53125 C 16.289062 7.621094 16.1875 7.71875 16.105469 7.816406 C 16.105469 7.816406 17.027344 7.992188 17.109375 8.609375 C 17.109375 8.609375 16.808594 8.78125 16.367188 9.113281 C 14.761719 10.328125 11.1875 13.527344 12.59375 17.035156 C 12.851562 17.671875 13.273438 18.3125 13.90625 18.960938 C 13.90625 18.960938 12.128906 15.957031 14.261719 12.542969 C 14.265625 12.621094 14.257812 15.757812 15.664062 16.976562 C 14.65625 14.601562 16.40625 11.769531 16.40625 11.769531 C 16.085938 13.230469 17.679688 14.398438 17.679688 14.398438 C 16.933594 12.824219 17.570312 11.367188 17.570312 11.367188 L 20.957031 11.503906 L 21.421875 11.304688 L 22.003906 10.730469 L 22.21875 10.972656 L 22.871094 9.789062 Z M 18.226562 7.523438 L 19.289062 6.214844 L 18.527344 7.515625 L 19.15625 9.234375 Z M 18.226562 7.523438 "/>
<path style=" stroke:none;fill-rule:nonzero;fill:rgb(55.686275%,0%,15.686275%);fill-opacity:1;" d="M 22.617188 1.246094 C 22.511719 1.375 22.359375 1.910156 22.359375 1.910156 C 22.359375 1.910156 22.34375 1.464844 22.132812 1.1875 C 21.9375 0.925781 21.691406 1.152344 21.523438 0.910156 C 21.445312 0.800781 21.449219 0.636719 21.449219 0.636719 L 20.972656 0.996094 C 20.972656 0.996094 20.84375 1.507812 20.875 2.136719 C 20.875 2.136719 20.589844 1.914062 20.425781 1.472656 C 20.425781 1.472656 20.316406 1.730469 20.308594 2.679688 C 20.308594 2.679688 20.003906 2.398438 19.824219 1.949219 C 19.824219 1.949219 19.683594 2.539062 19.703125 3.257812 C 19.703125 3.257812 19.433594 3.058594 19.160156 2.457031 C 19.160156 2.457031 19.027344 3.160156 19.039062 3.902344 C 19.039062 3.902344 18.601562 3.503906 18.433594 2.96875 C 18.433594 2.96875 16.351562 4.5625 16.207031 4.675781 C 16.0625 4.789062 15.160156 5.769531 14.933594 6.824219 C 14.933594 6.824219 14.90625 6.304688 14.980469 5.808594 C 14.980469 5.808594 14.09375 6.4375 13.59375 6.980469 C 13.59375 6.980469 13.582031 6.3125 13.953125 5.753906 C 13.953125 5.753906 13.820312 5.839844 13.65625 5.96875 C 13.550781 6.050781 13.453125 6.144531 13.308594 6.269531 C 12.953125 6.585938 12.515625 7 12.242188 7.28125 C 12.242188 7.28125 12.984375 5.875 14.121094 5.074219 C 14.121094 5.074219 11.207031 5.722656 10.1875 8.929688 C 10.15625 8.898438 10.234375 8.191406 10.234375 8.191406 L 5.25 12.148438 C 6.386719 13.71875 8.261719 13.5 8.46875 13.464844 C 9.089844 13.351562 11.019531 13.050781 11.019531 13.050781 C 11.019531 13.050781 10.703125 12.253906 10.773438 11.726562 C 10.773438 11.726562 10.984375 12.753906 11.710938 13.394531 L 10.121094 13.613281 C 10.121094 13.613281 10.207031 13.9375 10.347656 14.417969 C 10.707031 15.628906 11.625 17.90625 13.902344 18.960938 C 13.902344 18.960938 13.710938 18.761719 13.433594 18.429688 C 12.652344 17.496094 11.3125 15.359375 12.679688 12.554688 C 11.585938 12.816406 11.421875 12.074219 11.421875 12.074219 C 12.878906 13.09375 16.066406 8.835938 15.285156 7.828125 C 15.285156 7.828125 16.617188 6.746094 17.558594 6.613281 L 21.242188 2.824219 L 22.359375 2.199219 L 22.742188 3.15625 Z M 8.316406 13.082031 C 8.1875 13.105469 7.984375 13.117188 7.910156 13.117188 C 7.4375 13.117188 6.351562 12.953125 5.941406 12.242188 L 9.832031 9.121094 C 7.175781 11.738281 10.074219 12.589844 10.441406 12.714844 C 10.441406 12.714844 8.746094 12.996094 8.316406 13.082031 Z M 8.316406 13.082031 "/>
<path style=" stroke:none;fill-rule:nonzero;fill:rgb(55.686275%,0%,15.686275%);fill-opacity:1;" d="M 20.210938 7.683594 L 20.699219 6.960938 L 20.433594 7.6875 L 20.695312 8.363281 Z M 20.210938 7.683594 "/>
<path style=" stroke:none;fill-rule:nonzero;fill:rgb(93.72549%,88.235294%,77.647059%);fill-opacity:1;" d="M 14.308594 5.46875 C 14.308594 5.46875 14.683594 5.378906 15.214844 5.402344 C 15.25 5.296875 15.078125 5.273438 14.945312 5.273438 C 15.160156 5.121094 15.496094 5.015625 15.496094 5.015625 L 15.679688 4.796875 C 15.128906 4.84375 14.308594 5.46875 14.308594 5.46875 Z M 14.308594 5.46875 "/>
</g>
</svg>
