<?xml version="1.0" encoding="UTF-8"?>
<svg xmlns="http://www.w3.org/2000/svg" xmlns:xlink="http://www.w3.org/1999/xlink" width="21pt" height="20pt" viewBox="0 0 21 20" version="1.1">
<g id="surface1">
<path style=" stroke:none;fill-rule:evenodd;fill:rgb(100%,100%,100%);fill-opacity:1;" d="M 18.210938 7.84375 C 18.175781 7.894531 18.121094 7.980469 18.066406 8.058594 C 18.207031 8.109375 18.355469 8.164062 18.5 8.226562 C 18.652344 8.289062 18.886719 8.375 19.140625 8.464844 C 19.136719 8.347656 19.132812 8.21875 19.128906 8.152344 C 18.988281 8.105469 18.359375 7.894531 18.210938 7.84375 Z M 18.210938 7.84375 "/>
<path style=" stroke:none;fill-rule:evenodd;fill:rgb(100%,100%,100%);fill-opacity:1;" d="M 20.933594 8.460938 C 20.824219 8.714844 20.507812 8.957031 20.433594 9.007812 C 20.4375 9.066406 20.421875 9.140625 20.398438 9.21875 C 20.339844 9.386719 20.089844 9.644531 19.589844 9.558594 C 19.085938 9.472656 18.890625 9.386719 18.890625 9.386719 C 18.890625 9.386719 18.640625 10.007812 18.082031 9.785156 C 18.082031 9.785156 18 10.546875 17.582031 10.773438 C 17.164062 11 14.292969 12.019531 14.292969 12.019531 C 14.292969 12.019531 14.261719 12.085938 14.191406 12.148438 C 14.191406 12.148438 13.570312 13.246094 13.570312 13.246094 C 13.570312 13.246094 13.652344 13.71875 13.652344 13.71875 C 13.652344 13.71875 14.152344 14.316406 14.152344 14.742188 C 14.152344 14.742188 13.792969 14.910156 13.792969 14.910156 C 13.792969 14.910156 13.714844 14.910156 13.714844 14.910156 C 13.75 15.019531 13.789062 15.148438 13.8125 15.214844 C 13.933594 15.214844 14.304688 15.214844 14.304688 15.214844 C 14.304688 15.214844 14.304688 15.636719 14.304688 15.636719 C 14.304688 15.636719 12.21875 15.636719 12.21875 15.636719 C 12.21875 15.636719 9.746094 20.003906 9.746094 20.003906 C 9.746094 20.003906 7.03125 15.316406 7.03125 15.316406 C 6.765625 15.546875 6.488281 15.6875 6.277344 15.6875 C 6.277344 15.6875 5.773438 15.6875 5.773438 15.6875 C 5.773438 15.6875 0.8125 15.6875 0.8125 15.6875 C 0.8125 15.6875 1.664062 14.132812 1.664062 14.132812 C 1.664062 14.132812 6.246094 14.132812 6.246094 14.132812 C 6.28125 14.132812 6.3125 14.128906 6.339844 14.128906 C 6.339844 14.128906 0 3.179688 0 3.179688 C 0 3.179688 3.257812 3.179688 3.257812 3.179688 C 3.5 2.933594 3.671875 2.757812 3.671875 2.757812 C 3.671875 2.757812 4.035156 2.390625 4.171875 1.996094 C 4.3125 1.597656 4.453125 1.230469 5.011719 0.863281 C 5.566406 0.492188 5.929688 0.296875 6.292969 0.125 C 6.65625 -0.0429688 7.15625 -0.101562 7.574219 0.351562 C 7.992188 0.804688 8.214844 1.003906 8.355469 1.144531 C 8.496094 1.285156 8.773438 1.9375 9.582031 1.597656 C 10.390625 1.257812 11.589844 0.605469 12.339844 0.632812 C 13.09375 0.664062 14.347656 1.34375 14.765625 1.824219 C 14.765625 1.824219 15.097656 1.523438 15.460938 1.570312 C 15.769531 1.605469 15.910156 1.9375 16.1875 2.503906 C 16.1875 2.503906 16.828125 2.671875 16.828125 3.042969 C 16.828125 3.042969 16.84375 3.039062 16.867188 3.039062 C 16.878906 3.027344 16.890625 3.015625 16.902344 3 C 17.042969 2.859375 17.128906 2.773438 17.222656 2.707031 C 17.242188 2.695312 17.265625 2.683594 17.292969 2.675781 C 17.269531 2.621094 17.242188 2.515625 17.316406 2.460938 C 17.417969 2.378906 17.65625 2.289062 17.910156 2.511719 C 18.125 2.703125 18.132812 2.78125 18.132812 2.78125 C 18.132812 2.78125 18.316406 3.003906 18.210938 3.179688 C 18.210938 3.179688 19.265625 3.179688 19.265625 3.179688 C 19.265625 3.179688 15.742188 9.410156 15.742188 9.410156 C 15.75 9.449219 15.761719 9.488281 15.769531 9.527344 C 15.769531 9.527344 16.214844 9.699219 16.355469 9.867188 C 16.355469 9.867188 16.746094 9.867188 16.941406 9.839844 C 17.136719 9.8125 17.164062 9.8125 17.191406 9.699219 C 17.21875 9.585938 17.21875 9.472656 17.164062 9.273438 C 17.109375 9.074219 17.023438 8.085938 17.277344 7.972656 C 17.347656 7.9375 17.449219 7.929688 17.558594 7.9375 C 17.5625 7.820312 17.5625 7.675781 17.5625 7.605469 C 17.445312 7.566406 17.09375 7.445312 17.09375 7.445312 C 17.09375 7.445312 17.222656 7.046875 17.222656 7.046875 C 17.222656 7.046875 20.992188 8.316406 20.992188 8.316406 C 20.992188 8.316406 20.933594 8.460938 20.933594 8.460938 Z M 20.933594 8.460938 "/>
<path style=" stroke:none;fill-rule:evenodd;fill:rgb(100%,100%,100%);fill-opacity:1;" d="M 12.628906 14.910156 C 12.628906 14.910156 12.46875 15.191406 12.46875 15.191406 C 12.714844 15.191406 13.019531 15.191406 13.125 15.191406 C 13.140625 15.128906 13.175781 15.011719 13.203125 14.910156 C 13.203125 14.910156 12.628906 14.910156 12.628906 14.910156 Z M 12.628906 14.910156 "/>
<path style=" stroke:none;fill-rule:evenodd;fill:rgb(100%,100%,100%);fill-opacity:1;" d="M 19.816406 8.382812 C 19.777344 8.441406 19.703125 8.542969 19.636719 8.636719 C 19.800781 8.691406 19.953125 8.742188 20.078125 8.78125 C 20.050781 8.648438 20.023438 8.507812 20.011719 8.449219 C 19.949219 8.429688 19.894531 8.410156 19.816406 8.382812 Z M 19.816406 8.382812 "/>
<path style=" stroke:none;fill-rule:evenodd;fill:rgb(100%,100%,100%);fill-opacity:1;" d="M 13.351562 14.910156 C 13.351562 14.910156 13.230469 15.335938 13.230469 15.335938 C 13.230469 15.335938 12.054688 15.335938 12.054688 15.335938 C 12.054688 15.335938 11.902344 14.910156 11.902344 14.910156 C 11.902344 14.910156 11.667969 14.910156 11.667969 14.910156 C 11.667969 14.910156 11.535156 15.335938 11.535156 15.335938 C 11.535156 15.335938 11.140625 15.335938 11.140625 15.335938 C 11.140625 15.335938 10.902344 14.910156 10.902344 14.910156 C 10.902344 14.910156 10.746094 14.910156 10.746094 14.910156 C 10.679688 15.007812 10.507812 15.277344 10.488281 15.492188 C 10.488281 15.492188 14.164062 15.492188 14.164062 15.492188 C 14.164062 15.492188 14.164062 15.359375 14.164062 15.359375 C 14.164062 15.359375 13.707031 15.359375 13.707031 15.359375 C 13.707031 15.359375 13.566406 14.910156 13.566406 14.910156 C 13.566406 14.910156 13.351562 14.910156 13.351562 14.910156 Z M 13.351562 14.910156 "/>
<path style=" stroke:none;fill-rule:evenodd;fill:rgb(100%,100%,100%);fill-opacity:1;" d="M 17.699219 7.960938 C 17.773438 7.972656 17.847656 7.992188 17.925781 8.015625 C 17.925781 8.015625 18.152344 7.675781 18.152344 7.675781 C 18.152344 7.675781 19.269531 8.050781 19.269531 8.050781 C 19.269531 8.050781 19.28125 8.511719 19.28125 8.511719 C 19.355469 8.539062 19.425781 8.5625 19.5 8.585938 C 19.5 8.585938 19.765625 8.214844 19.765625 8.214844 C 19.765625 8.214844 20.136719 8.339844 20.136719 8.339844 C 20.136719 8.339844 20.230469 8.832031 20.230469 8.832031 C 20.304688 8.855469 20.355469 8.871094 20.367188 8.878906 C 20.371094 8.878906 20.371094 8.878906 20.371094 8.878906 C 20.457031 8.8125 20.71875 8.605469 20.804688 8.402344 C 20.804688 8.402344 17.3125 7.226562 17.3125 7.226562 C 17.3125 7.226562 17.273438 7.355469 17.273438 7.355469 C 17.273438 7.355469 17.707031 7.5 17.707031 7.5 C 17.707031 7.5 17.699219 7.960938 17.699219 7.960938 Z M 17.699219 7.960938 "/>
<path style=" stroke:none;fill-rule:evenodd;fill:rgb(100%,100%,100%);fill-opacity:1;" d="M 9.441406 9.585938 C 9.765625 9.792969 10.082031 9.984375 10.390625 10.152344 C 11.035156 9.464844 12.441406 7.964844 13.546875 6.785156 C 13.207031 6.332031 12.800781 5.847656 12.3125 5.335938 C 9.5 2.390625 7.554688 4.078125 7.210938 4.628906 C 6.402344 5.933594 6.988281 8 9.441406 9.585938 Z M 9.441406 9.585938 "/>
<path style=" stroke:none;fill-rule:evenodd;fill:rgb(100%,100%,100%);fill-opacity:1;" d="M 11.265625 10.597656 C 12.933594 11.367188 14.273438 11.535156 14.710938 11.03125 C 15.140625 10.527344 15.164062 9.277344 14.023438 7.472656 C 13.066406 8.5625 11.90625 9.875 11.265625 10.597656 Z M 11.265625 10.597656 "/>
<path style=" stroke:none;fill-rule:evenodd;fill:rgb(100%,100%,100%);fill-opacity:1;" d="M 2.640625 4.0625 C 2.417969 4.316406 2.390625 5.054688 2.390625 5.054688 C 2.390625 5.054688 4.203125 3.46875 4.203125 3.46875 C 4.203125 3.46875 3.476562 4.828125 3.476562 4.828125 C 3.476562 4.828125 4.703125 4.261719 4.816406 3.976562 C 4.816406 3.976562 4.5625 3.355469 4.007812 2.789062 C 4.007812 2.789062 2.863281 3.808594 2.640625 4.0625 Z M 2.640625 4.0625 "/>
<path style=" stroke:none;fill-rule:evenodd;fill:rgb(100%,100%,100%);fill-opacity:1;" d="M 19.75 9.050781 C 19.617188 9.085938 19.519531 9.171875 19.539062 9.25 C 19.558594 9.324219 19.679688 9.359375 19.816406 9.328125 C 19.949219 9.292969 20.046875 9.207031 20.027344 9.128906 C 20.007812 9.054688 19.882812 9.019531 19.75 9.050781 Z M 19.75 9.050781 "/>
<path style=" stroke:none;fill-rule:evenodd;fill:rgb(100%,100%,100%);fill-opacity:1;" d="M 10.832031 14.640625 C 10.878906 14.703125 11.007812 14.683594 11.117188 14.597656 C 11.226562 14.511719 11.277344 14.390625 11.230469 14.328125 C 11.183594 14.265625 11.054688 14.285156 10.945312 14.371094 C 10.835938 14.460938 10.785156 14.582031 10.832031 14.640625 Z M 10.832031 14.640625 "/>
<path style=" stroke:none;fill-rule:evenodd;fill:rgb(100%,100%,100%);fill-opacity:1;" d="M 5.136719 1.960938 C 5.117188 1.757812 5.34375 1.617188 5.449219 1.4375 C 5.34375 1.296875 5.160156 1.234375 5.015625 1.316406 C 4.988281 1.730469 4.867188 2.109375 4.769531 2.492188 C 4.980469 2.648438 4.925781 2.242188 5.152344 2.234375 C 5.285156 2.1875 5.351562 2.3125 5.429688 2.394531 C 5.476562 2.507812 5.449219 2.660156 5.363281 2.757812 C 5.363281 2.757812 5.570312 2.738281 5.570312 2.738281 C 5.65625 2.632812 5.683594 2.472656 5.640625 2.339844 C 5.578125 2.101562 5.300781 2.082031 5.136719 1.960938 Z M 5.136719 1.960938 "/>
<path style=" stroke:none;fill-rule:evenodd;fill:rgb(100%,100%,100%);fill-opacity:1;" d="M 15.796875 2.21875 C 15.753906 2.070312 15.679688 1.929688 15.597656 1.78125 C 15.542969 1.742188 15.421875 1.75 15.441406 1.855469 C 15.550781 1.964844 15.597656 2.246094 15.796875 2.21875 Z M 15.796875 2.21875 "/>
<path style=" stroke:none;fill-rule:evenodd;fill:rgb(100%,100%,100%);fill-opacity:1;" d="M 15.789062 2.683594 C 15.578125 2.394531 15.386719 2.097656 15.15625 1.808594 C 15.074219 1.808594 14.984375 1.855469 14.964844 1.949219 C 15.183594 2.1875 15.441406 2.429688 15.632812 2.671875 C 15.671875 2.710938 15.742188 2.777344 15.789062 2.683594 Z M 15.789062 2.683594 "/>
<path style=" stroke:none;fill-rule:evenodd;fill:rgb(100%,100%,100%);fill-opacity:1;" d="M 15.414062 3.082031 C 15.46875 3.121094 15.605469 3.121094 15.589844 3.007812 C 15.589844 3.007812 14.835938 2.132812 14.835938 2.132812 C 14.734375 2.070312 14.617188 2.132812 14.5625 2.234375 C 14.847656 2.523438 15.175781 2.75 15.414062 3.082031 Z M 15.414062 3.082031 "/>
<path style=" stroke:none;fill-rule:evenodd;fill:rgb(100%,100%,100%);fill-opacity:1;" d="M 15.304688 3.15625 C 15.304688 3.15625 14.554688 2.507812 14.554688 2.507812 C 14.433594 2.386719 14.261719 2.402344 14.207031 2.589844 C 14.542969 2.851562 14.917969 3.015625 15.230469 3.332031 C 15.324219 3.34375 15.351562 3.222656 15.304688 3.15625 Z M 15.304688 3.15625 "/>
<path style=" stroke:none;fill-rule:evenodd;fill:rgb(100%,100%,100%);fill-opacity:1;" d="M 16.238281 3.511719 C 16.367188 3.316406 16.6875 3.332031 16.605469 3.046875 C 16.585938 2.914062 16.410156 2.820312 16.257812 2.859375 C 15.6875 3.242188 15.285156 3.828125 15.214844 4.433594 C 15.292969 4.523438 15.40625 4.535156 15.523438 4.535156 C 15.773438 4.21875 15.898438 3.808594 16.238281 3.511719 Z M 16.238281 3.511719 "/>
<path style=" stroke:none;fill-rule:evenodd;fill:rgb(100%,100%,100%);fill-opacity:1;" d="M 15.046875 3.6875 C 15.113281 3.679688 15.203125 3.574219 15.140625 3.492188 C 14.773438 3.277344 14.433594 2.988281 14.039062 2.839844 C 13.976562 2.90625 13.957031 3 13.964844 3.09375 C 13.964844 3.09375 15.046875 3.6875 15.046875 3.6875 Z M 15.046875 3.6875 "/>
<path style=" stroke:none;fill-rule:evenodd;fill:rgb(100%,100%,100%);fill-opacity:1;" d="M 14.875 4.023438 C 14.9375 4.003906 15.011719 3.921875 14.945312 3.863281 C 14.609375 3.6875 14.277344 3.464844 13.914062 3.332031 C 13.867188 3.390625 13.800781 3.492188 13.855469 3.539062 C 14.222656 3.652344 14.523438 3.875 14.875 4.023438 Z M 14.875 4.023438 "/>
<path style=" stroke:none;fill-rule:evenodd;fill:rgb(100%,100%,100%);fill-opacity:1;" d="M 15.761719 4.542969 C 15.816406 4.671875 15.917969 4.671875 16.046875 4.636719 C 16.410156 4.433594 16.667969 4.03125 16.742188 3.613281 C 16.730469 3.546875 16.652344 3.511719 16.597656 3.492188 C 16.210938 3.753906 15.972656 4.160156 15.761719 4.542969 Z M 15.761719 4.542969 "/>
<path style=" stroke:none;fill-rule:evenodd;fill:rgb(100%,100%,100%);fill-opacity:1;" d="M 17.027344 3.652344 C 17.027344 3.652344 17.4375 4.386719 17.4375 4.386719 C 17.421875 4.082031 17.292969 3.824219 17.117188 3.585938 C 17.09375 3.589844 17.074219 3.59375 17.054688 3.59375 C 17.054688 3.59375 17.027344 3.652344 17.027344 3.652344 Z M 17.027344 3.652344 "/>
<path style=" stroke:none;fill-rule:evenodd;fill:rgb(100%,100%,100%);fill-opacity:1;" d="M 17.382812 4.710938 C 17.390625 4.386719 17.089844 4.125 16.925781 3.835938 C 16.925781 3.835938 16.816406 4.058594 16.816406 4.058594 C 16.816406 4.058594 17.253906 4.730469 17.253906 4.730469 C 17.292969 4.722656 17.355469 4.746094 17.382812 4.710938 Z M 17.382812 4.710938 "/>
<path style=" stroke:none;fill-rule:evenodd;fill:rgb(100%,100%,100%);fill-opacity:1;" d="M 14.636719 4.144531 C 14.332031 4.003906 14.039062 3.84375 13.71875 3.753906 C 13.71875 3.753906 13.691406 3.835938 13.691406 3.835938 C 13.929688 4.105469 14.269531 4.152344 14.636719 4.144531 Z M 14.636719 4.144531 "/>
<path style=" stroke:none;fill-rule:evenodd;fill:rgb(100%,100%,100%);fill-opacity:1;" d="M 16.578125 4.480469 C 16.742188 4.671875 16.742188 5.027344 17 5.074219 C 17.0625 4.804688 16.871094 4.554688 16.714844 4.359375 C 16.652344 4.359375 16.585938 4.414062 16.578125 4.480469 Z M 16.578125 4.480469 "/>
<path style=" stroke:none;fill-rule:evenodd;fill:rgb(100%,100%,100%);fill-opacity:1;" d="M 16.265625 4.757812 C 16.257812 5.035156 16.457031 5.289062 16.585938 5.527344 C 16.585938 5.527344 16.742188 5.558594 16.742188 5.558594 C 16.777344 5.25 16.550781 5.035156 16.441406 4.796875 C 16.441406 4.796875 16.265625 4.757812 16.265625 4.757812 Z M 16.265625 4.757812 "/>
<path style=" stroke:none;fill-rule:evenodd;fill:rgb(100%,100%,100%);fill-opacity:1;" d="M 15.066406 4.925781 C 15.082031 4.984375 15.089844 5.066406 15.117188 5.121094 C 15.1875 5.074219 15.28125 5.050781 15.375 5.058594 C 15.328125 4.9375 15.253906 4.777344 15.09375 4.8125 C 15.09375 4.8125 15.066406 4.925781 15.066406 4.925781 Z M 15.066406 4.925781 "/>
<path style=" stroke:none;fill-rule:evenodd;fill:rgb(100%,100%,100%);fill-opacity:1;" d="M 16.394531 5.976562 C 16.394531 5.976562 16.402344 5.6875 16.402344 5.6875 C 16.3125 5.40625 16.21875 5.148438 15.992188 4.925781 C 15.878906 4.933594 15.660156 4.898438 15.613281 5.027344 C 15.726562 5.398438 15.953125 5.949219 16.394531 5.976562 Z M 16.394531 5.976562 "/>
<path style=" stroke:none;fill-rule:evenodd;fill:rgb(100%,100%,100%);fill-opacity:1;" d="M 8.613281 10.28125 C 8.574219 10.085938 8.628906 9.855469 8.503906 9.695312 C 8.457031 9.648438 8.375 9.679688 8.363281 9.742188 C 8.300781 9.917969 8.355469 10.125 8.457031 10.273438 C 8.503906 10.320312 8.554688 10.320312 8.613281 10.28125 Z M 8.613281 10.28125 "/>
<path style=" stroke:none;fill-rule:evenodd;fill:rgb(100%,100%,100%);fill-opacity:1;" d="M 9.078125 10.664062 C 9.003906 10.355469 9.207031 9.855469 8.878906 9.6875 C 8.765625 9.902344 8.859375 10.253906 8.851562 10.542969 C 8.851562 10.65625 8.988281 10.710938 9.078125 10.664062 Z M 9.078125 10.664062 "/>
<path style=" stroke:none;fill-rule:evenodd;fill:rgb(100%,100%,100%);fill-opacity:1;" d="M 8.253906 10.554688 C 8.0625 10.300781 8.335938 9.585938 7.816406 9.742188 C 7.476562 10.058594 8.007812 10.265625 8.070312 10.582031 C 8.117188 10.597656 8.226562 10.628906 8.253906 10.554688 Z M 8.253906 10.554688 "/>
<path style=" stroke:none;fill-rule:evenodd;fill:rgb(100%,100%,100%);fill-opacity:1;" d="M 9.234375 9.808594 C 9.214844 10.097656 9.234375 10.355469 9.28125 10.617188 C 9.351562 10.636719 9.460938 10.683594 9.527344 10.597656 C 9.460938 10.328125 9.648438 9.800781 9.234375 9.808594 Z M 9.234375 9.808594 "/>
<path style=" stroke:none;fill-rule:evenodd;fill:rgb(100%,100%,100%);fill-opacity:1;" d="M 9.746094 10.078125 C 9.738281 10.320312 9.703125 10.582031 9.828125 10.769531 C 9.984375 10.730469 9.894531 10.496094 9.929688 10.355469 C 9.847656 10.265625 9.941406 10.042969 9.746094 10.078125 Z M 9.746094 10.078125 "/>
<path style=" stroke:none;fill-rule:evenodd;fill:rgb(100%,100%,100%);fill-opacity:1;" d="M 7.429688 10.105469 C 7.367188 10.199219 7.320312 10.300781 7.3125 10.414062 C 7.300781 10.691406 7.511719 10.878906 7.648438 11.09375 C 7.761719 11.0625 7.886719 11.101562 7.96875 10.992188 C 7.859375 10.675781 7.730469 10.3125 7.429688 10.105469 Z M 7.429688 10.105469 "/>
<path style=" stroke:none;fill-rule:evenodd;fill:rgb(100%,100%,100%);fill-opacity:1;" d="M 8.792969 11.214844 C 8.792969 11.214844 8.804688 11.074219 8.804688 11.074219 C 8.804688 11.074219 8.722656 10.933594 8.722656 10.933594 C 8.335938 10.886719 8.007812 11.101562 7.796875 11.417969 C 7.75 11.511719 7.789062 11.613281 7.816406 11.6875 C 8.117188 11.453125 8.390625 11.148438 8.792969 11.214844 Z M 8.792969 11.214844 "/>
<path style=" stroke:none;fill-rule:evenodd;fill:rgb(100%,100%,100%);fill-opacity:1;" d="M 9.664062 11.148438 C 9.636719 10.960938 9.4375 10.992188 9.289062 10.972656 C 9.160156 11 9.015625 11.074219 9.042969 11.234375 C 9.085938 11.398438 9.171875 11.546875 9.335938 11.605469 C 9.5 11.492188 9.71875 11.371094 9.664062 11.148438 Z M 9.664062 11.148438 "/>
<path style=" stroke:none;fill-rule:evenodd;fill:rgb(100%,100%,100%);fill-opacity:1;" d="M 9.941406 11.269531 C 9.785156 11.304688 9.773438 11.511719 9.773438 11.660156 C 9.792969 11.734375 9.867188 11.789062 9.941406 11.78125 C 10.039062 11.707031 10.039062 11.558594 10.050781 11.425781 C 10.015625 11.371094 10.039062 11.25 9.941406 11.269531 Z M 9.941406 11.269531 "/>
<path style=" stroke:none;fill-rule:evenodd;fill:rgb(100%,100%,100%);fill-opacity:1;" d="M 10.535156 11.734375 C 10.507812 11.652344 10.46875 11.472656 10.324219 11.5 C 10.113281 11.707031 10.332031 12.078125 10.1875 12.300781 C 10.25 12.394531 10.207031 12.5625 10.351562 12.582031 C 10.644531 12.441406 10.480469 12.011719 10.535156 11.734375 Z M 10.535156 11.734375 "/>
<path style=" stroke:none;fill-rule:evenodd;fill:rgb(100%,100%,100%);fill-opacity:1;" d="M 8.851562 11.546875 C 8.695312 11.5 8.527344 11.472656 8.410156 11.566406 C 8.503906 12.097656 9.003906 13.511719 9.207031 13.519531 C 9.335938 13.101562 9.269531 12.765625 9.308594 12.300781 C 9.214844 12.003906 9.125 11.714844 8.851562 11.546875 Z M 8.851562 11.546875 "/>
<path style=" stroke:none;fill-rule:evenodd;fill:rgb(100%,100%,100%);fill-opacity:1;" d="M 10.699219 11.613281 C 10.699219 11.613281 10.671875 11.875 10.671875 11.875 C 10.671875 11.875 10.847656 11.902344 10.847656 11.902344 C 10.847656 11.902344 10.890625 11.753906 10.890625 11.753906 C 10.828125 11.695312 10.792969 11.585938 10.699219 11.613281 Z M 10.699219 11.613281 "/>
<path style=" stroke:none;fill-rule:evenodd;fill:rgb(100%,100%,100%);fill-opacity:1;" d="M 8.144531 11.714844 C 8.0625 11.808594 7.988281 11.921875 7.953125 12.023438 C 7.972656 12.289062 8.03125 12.554688 8.132812 12.796875 C 8.246094 13.078125 8.410156 13.332031 8.628906 13.542969 C 8.65625 13.570312 8.683594 13.597656 8.710938 13.625 C 8.777344 13.59375 8.878906 13.59375 8.832031 13.511719 C 8.582031 13.1875 8.234375 11.921875 8.144531 11.714844 Z M 8.144531 11.714844 "/>
<path style=" stroke:none;fill-rule:evenodd;fill:rgb(100%,100%,100%);fill-opacity:1;" d="M 9.5625 12.023438 C 9.5625 12.460938 9.621094 12.933594 9.445312 13.304688 C 9.417969 13.390625 9.382812 13.613281 9.546875 13.585938 C 9.546875 13.585938 9.554688 13.511719 9.554688 13.511719 C 9.8125 13.296875 9.914062 12.925781 9.941406 12.5625 C 9.875 12.328125 9.96875 11.734375 9.5625 12.023438 Z M 9.5625 12.023438 "/>
<path style=" stroke:none;fill-rule:evenodd;fill:rgb(100%,100%,100%);fill-opacity:1;" d="M 7.054688 14.027344 C 6.886719 14.183594 6.6875 14.320312 6.246094 14.320312 C 6.246094 14.320312 5.722656 15.496094 5.722656 15.496094 C 5.722656 15.496094 6.066406 15.496094 6.277344 15.496094 C 6.492188 15.496094 6.871094 15.265625 7.191406 14.878906 C 7.511719 14.492188 8.351562 13.558594 8.351562 13.558594 C 8.351562 13.558594 8.011719 13.0625 8.011719 13.0625 C 8.011719 13.0625 7.222656 13.875 7.054688 14.027344 Z M 7.054688 14.027344 "/>
<path style=" stroke:none;fill-rule:evenodd;fill:rgb(100%,100%,100%);fill-opacity:1;" d="M 1.128906 15.496094 C 1.128906 15.496094 1.875 15.496094 1.875 15.496094 C 1.875 15.496094 2.519531 14.320312 2.519531 14.320312 C 2.519531 14.320312 1.773438 14.320312 1.773438 14.320312 C 1.773438 14.320312 1.128906 15.496094 1.128906 15.496094 Z M 1.128906 15.496094 "/>
<path style=" stroke:none;fill-rule:evenodd;fill:rgb(100%,100%,100%);fill-opacity:1;" d="M 15.207031 5.292969 C 15.097656 5.402344 10.046875 10.789062 10.046875 10.789062 C 10.019531 10.828125 10.011719 10.871094 10.019531 10.910156 C 10.046875 11.027344 10.214844 11.132812 10.347656 11.164062 C 10.414062 11.179688 10.476562 11.175781 10.503906 11.148438 C 10.609375 11.042969 15.207031 5.859375 15.445312 5.5625 C 15.683594 5.265625 15.3125 5.183594 15.207031 5.292969 Z M 15.207031 5.292969 "/>
<path style=" stroke:none;fill-rule:evenodd;fill:rgb(100%,100%,100%);fill-opacity:1;" d="M 17.539062 3.109375 C 17.75 2.894531 17.40625 2.8125 17.328125 2.867188 C 17.246094 2.921875 17.167969 3 17.035156 3.136719 C 16.703125 3.472656 17.128906 3.527344 17.539062 3.109375 Z M 17.539062 3.109375 "/>
<path style=" stroke:none;fill-rule:evenodd;fill:rgb(81.568627%,74.117647%,49.803922%);fill-opacity:1;" d="M 14.878906 4.570312 C 14.878906 4.570312 14.765625 4.316406 14.765625 4.316406 C 14.765625 4.316406 14.265625 4.457031 13.511719 4.035156 C 13.386719 3.964844 13.539062 3.636719 13.539062 3.636719 C 13.539062 3.636719 13.492188 3.570312 13.414062 3.503906 C 13.414062 3.503906 12.804688 3.503906 12.804688 3.503906 C 12.515625 3.796875 12.929688 4.011719 13.066406 4.175781 C 13.140625 4.265625 13.703125 4.910156 14.320312 5.957031 C 14.632812 5.628906 14.867188 5.375 14.988281 5.246094 C 14.878906 4.570312 14.878906 4.570312 14.878906 4.570312 Z M 14.878906 4.570312 "/>
<path style=" stroke:none;fill-rule:evenodd;fill:rgb(81.568627%,74.117647%,49.803922%);fill-opacity:1;" d="M 13.230469 12.53125 C 13.230469 12.53125 13.285156 13.109375 13.285156 13.109375 C 13.285156 13.109375 13.738281 12.304688 13.738281 12.304688 C 13.71875 12.304688 13.699219 12.304688 13.679688 12.304688 C 13.679688 12.304688 13.230469 12.53125 13.230469 12.53125 Z M 13.230469 12.53125 "/>
<path style=" stroke:none;fill-rule:evenodd;fill:rgb(81.568627%,74.117647%,49.803922%);fill-opacity:1;" d="M 12.132812 15.140625 C 12.132812 15.140625 12.265625 14.910156 12.265625 14.910156 C 12.265625 14.910156 12.050781 14.910156 12.050781 14.910156 C 12.082031 14.988281 12.113281 15.074219 12.132812 15.140625 Z M 12.132812 15.140625 "/>
<path style=" stroke:none;fill-rule:evenodd;fill:rgb(81.568627%,74.117647%,49.803922%);fill-opacity:1;" d="M 7.925781 12.871094 C 7.925781 12.871094 7.933594 12.863281 7.933594 12.863281 C 7.71875 12.382812 7.714844 11.9375 7.714844 11.9375 C 7.714844 11.9375 7.519531 11.453125 7.601562 11.339844 C 7.601562 11.339844 6.960938 10.804688 7.15625 10.152344 C 7.15625 10.152344 6.960938 9.839844 6.960938 9.839844 C 6.792969 9.527344 5.039062 6.894531 5.652344 5.707031 C 5.652344 5.707031 6.070312 5.222656 5.761719 4.601562 C 5.457031 3.976562 5.148438 4.203125 4.925781 4.316406 C 4.703125 4.429688 2.917969 5.507812 2.917969 5.507812 C 2.917969 5.507812 3.394531 4.402344 3.394531 4.402344 C 3.394531 4.402344 2.5 5.28125 2.25 5.589844 C 2.25 5.589844 2.054688 4.402344 2.585938 3.863281 C 2.703125 3.742188 2.824219 3.621094 2.941406 3.503906 C 2.941406 3.503906 0.554688 3.503906 0.554688 3.503906 C 0.554688 3.503906 6.667969 14.058594 6.667969 14.058594 C 6.777344 14.015625 6.855469 13.953125 6.925781 13.886719 C 7.089844 13.738281 7.917969 12.882812 7.925781 12.871094 Z M 7.925781 12.871094 "/>
<path style=" stroke:none;fill-rule:evenodd;fill:rgb(81.568627%,74.117647%,49.803922%);fill-opacity:1;" d="M 17.335938 3.503906 C 17.3125 3.515625 17.289062 3.527344 17.265625 3.535156 C 17.414062 3.691406 17.644531 4.015625 17.527344 4.457031 C 17.527344 4.457031 17.527344 4.769531 17.359375 4.769531 C 17.359375 4.769531 17.386719 5.476562 16.96875 5.394531 C 16.96875 5.394531 17.023438 6.355469 15.910156 5.988281 C 15.910156 5.988281 15.675781 5.972656 15.445312 5.851562 C 15.292969 6.027344 15.039062 6.320312 14.71875 6.679688 C 15.058594 7.34375 15.382812 8.113281 15.625 8.96875 C 15.625 8.96875 18.71875 3.503906 18.71875 3.503906 C 18.71875 3.503906 17.335938 3.503906 17.335938 3.503906 Z M 17.335938 3.503906 "/>
<path style=" stroke:none;fill-rule:evenodd;fill:rgb(81.568627%,74.117647%,49.803922%);fill-opacity:1;" d="M 11.222656 15.191406 C 11.292969 15.191406 11.351562 15.191406 11.429688 15.191406 C 11.449219 15.132812 11.488281 15.015625 11.519531 14.910156 C 11.519531 14.910156 11.066406 14.910156 11.066406 14.910156 C 11.128906 15.027344 11.195312 15.144531 11.222656 15.191406 Z M 11.222656 15.191406 "/>
<path style=" stroke:none;fill-rule:evenodd;fill:rgb(81.568627%,74.117647%,49.803922%);fill-opacity:1;" d="M 12.3125 11.539062 C 12.285156 11.453125 11.085938 11.144531 10.945312 11.058594 C 10.945312 11.058594 10.6875 11.105469 10.890625 11.3125 C 11.113281 11.539062 11.085938 11.878906 10.917969 12.332031 C 10.917969 12.332031 10.722656 12.390625 10.722656 12.390625 C 10.722656 12.390625 10.335938 13.125 10.085938 13.011719 C 10.085938 13.011719 9.75 13.75 9.332031 13.777344 C 9.050781 13.796875 8.808594 13.851562 8.53125 13.652344 C 8.339844 13.863281 7.605469 14.671875 7.335938 15 C 7.3125 15.03125 7.289062 15.058594 7.261719 15.085938 C 7.261719 15.085938 9.742188 19.367188 9.742188 19.367188 C 9.742188 19.367188 11.855469 15.636719 11.855469 15.636719 C 11.855469 15.636719 10.335938 15.636719 10.335938 15.636719 C 10.335938 15.636719 10.351562 15.480469 10.351562 15.480469 C 10.367188 15.269531 10.496094 15.035156 10.585938 14.898438 C 10.585938 14.796875 10.609375 14.117188 11.28125 14.117188 C 11.28125 14.117188 11.976562 14.089844 12.0625 14.003906 C 12.144531 13.917969 12.089844 13.351562 12.089844 13.351562 C 12.089844 13.351562 12.3125 13.351562 12.3125 13.351562 C 12.3125 13.351562 12.3125 12.871094 12.230469 12.585938 C 12.144531 12.304688 12.0625 11.964844 12.089844 11.851562 C 12.117188 11.738281 12.339844 11.625 12.3125 11.539062 Z M 12.3125 11.539062 "/>
<path style=" stroke:none;fill-rule:evenodd;fill:rgb(0%,0%,0%);fill-opacity:1;" d="M 17.222656 7.046875 C 17.222656 7.046875 17.09375 7.445312 17.09375 7.445312 C 17.09375 7.445312 17.445312 7.566406 17.5625 7.605469 C 17.5625 7.675781 17.5625 7.820312 17.558594 7.9375 C 17.449219 7.929688 17.347656 7.9375 17.277344 7.972656 C 17.023438 8.085938 17.109375 9.074219 17.164062 9.273438 C 17.21875 9.472656 17.21875 9.585938 17.191406 9.699219 C 17.164062 9.8125 17.136719 9.8125 16.941406 9.839844 C 16.746094 9.867188 16.355469 9.867188 16.355469 9.867188 C 16.214844 9.699219 15.769531 9.527344 15.769531 9.527344 C 15.761719 9.488281 15.75 9.449219 15.742188 9.410156 C 15.742188 9.410156 19.265625 3.179688 19.265625 3.179688 C 19.265625 3.179688 18.210938 3.179688 18.210938 3.179688 C 18.316406 3.003906 18.132812 2.78125 18.132812 2.78125 C 18.132812 2.78125 18.125 2.703125 17.910156 2.511719 C 17.65625 2.289062 17.417969 2.378906 17.316406 2.460938 C 17.242188 2.515625 17.269531 2.621094 17.292969 2.675781 C 17.265625 2.683594 17.242188 2.695312 17.222656 2.707031 C 17.128906 2.773438 17.042969 2.859375 16.902344 3 C 16.890625 3.015625 16.878906 3.027344 16.867188 3.039062 C 16.84375 3.039062 16.828125 3.042969 16.828125 3.042969 C 16.828125 2.671875 16.1875 2.503906 16.1875 2.503906 C 15.910156 1.9375 15.769531 1.605469 15.460938 1.570312 C 15.097656 1.523438 14.765625 1.824219 14.765625 1.824219 C 14.347656 1.34375 13.09375 0.664062 12.339844 0.632812 C 11.589844 0.605469 10.390625 1.257812 9.582031 1.597656 C 8.773438 1.9375 8.496094 1.285156 8.355469 1.144531 C 8.214844 1.003906 7.992188 0.804688 7.574219 0.351562 C 7.15625 -0.101562 6.65625 -0.0429688 6.292969 0.125 C 5.929688 0.296875 5.566406 0.492188 5.011719 0.863281 C 4.453125 1.230469 4.3125 1.597656 4.171875 1.996094 C 4.035156 2.390625 3.671875 2.757812 3.671875 2.757812 C 3.671875 2.757812 3.5 2.933594 3.257812 3.179688 C 3.257812 3.179688 0 3.179688 0 3.179688 C 0 3.179688 6.339844 14.128906 6.339844 14.128906 C 6.3125 14.128906 6.28125 14.132812 6.246094 14.132812 C 6.246094 14.132812 1.664062 14.132812 1.664062 14.132812 C 1.664062 14.132812 0.8125 15.6875 0.8125 15.6875 C 0.8125 15.6875 5.773438 15.6875 5.773438 15.6875 C 5.773438 15.6875 6.277344 15.6875 6.277344 15.6875 C 6.488281 15.6875 6.765625 15.546875 7.03125 15.316406 C 7.03125 15.316406 9.746094 20.003906 9.746094 20.003906 C 9.746094 20.003906 12.21875 15.636719 12.21875 15.636719 C 12.21875 15.636719 14.304688 15.636719 14.304688 15.636719 C 14.304688 15.636719 14.304688 15.214844 14.304688 15.214844 C 14.304688 15.214844 13.933594 15.214844 13.8125 15.214844 C 13.789062 15.148438 13.75 15.019531 13.714844 14.910156 C 13.714844 14.910156 13.792969 14.910156 13.792969 14.910156 C 13.792969 14.910156 14.152344 14.742188 14.152344 14.742188 C 14.152344 14.316406 13.652344 13.71875 13.652344 13.71875 C 13.652344 13.71875 13.570312 13.246094 13.570312 13.246094 C 13.570312 13.246094 14.191406 12.148438 14.191406 12.148438 C 14.261719 12.085938 14.292969 12.019531 14.292969 12.019531 C 14.292969 12.019531 17.164062 11 17.582031 10.773438 C 18 10.546875 18.082031 9.785156 18.082031 9.785156 C 18.640625 10.007812 18.890625 9.386719 18.890625 9.386719 C 18.890625 9.386719 19.085938 9.472656 19.589844 9.558594 C 20.089844 9.644531 20.339844 9.386719 20.398438 9.21875 C 20.421875 9.140625 20.4375 9.066406 20.433594 9.007812 C 20.507812 8.957031 20.824219 8.714844 20.933594 8.460938 C 20.933594 8.460938 20.992188 8.316406 20.992188 8.316406 C 20.992188 8.316406 17.222656 7.046875 17.222656 7.046875 Z M 17.035156 3.136719 C 17.167969 3 17.246094 2.921875 17.328125 2.867188 C 17.40625 2.8125 17.75 2.894531 17.539062 3.109375 C 17.128906 3.527344 16.703125 3.472656 17.035156 3.136719 Z M 17.117188 3.585938 C 17.292969 3.824219 17.421875 4.082031 17.4375 4.386719 C 17.4375 4.386719 17.027344 3.652344 17.027344 3.652344 C 17.027344 3.652344 17.054688 3.59375 17.054688 3.59375 C 17.074219 3.59375 17.09375 3.589844 17.117188 3.585938 Z M 16.925781 3.835938 C 17.089844 4.125 17.390625 4.386719 17.382812 4.710938 C 17.355469 4.746094 17.292969 4.722656 17.253906 4.730469 C 17.253906 4.730469 16.816406 4.058594 16.816406 4.058594 C 16.816406 4.058594 16.925781 3.835938 16.925781 3.835938 Z M 16.265625 4.757812 C 16.265625 4.757812 16.441406 4.796875 16.441406 4.796875 C 16.550781 5.035156 16.777344 5.25 16.742188 5.558594 C 16.742188 5.558594 16.585938 5.527344 16.585938 5.527344 C 16.457031 5.289062 16.257812 5.035156 16.265625 4.757812 Z M 16.402344 5.6875 C 16.402344 5.6875 16.394531 5.976562 16.394531 5.976562 C 15.953125 5.949219 15.726562 5.398438 15.613281 5.027344 C 15.660156 4.898438 15.878906 4.933594 15.992188 4.925781 C 16.21875 5.148438 16.3125 5.40625 16.402344 5.6875 Z M 16.578125 4.480469 C 16.585938 4.414062 16.652344 4.359375 16.714844 4.359375 C 16.871094 4.554688 17.0625 4.804688 17 5.074219 C 16.742188 5.027344 16.742188 4.671875 16.578125 4.480469 Z M 16.742188 3.613281 C 16.667969 4.03125 16.410156 4.433594 16.046875 4.636719 C 15.917969 4.671875 15.816406 4.671875 15.761719 4.542969 C 15.972656 4.160156 16.210938 3.753906 16.597656 3.492188 C 16.652344 3.511719 16.730469 3.546875 16.742188 3.613281 Z M 16.257812 2.859375 C 16.410156 2.820312 16.585938 2.914062 16.605469 3.046875 C 16.6875 3.332031 16.367188 3.316406 16.238281 3.511719 C 15.898438 3.808594 15.773438 4.21875 15.523438 4.535156 C 15.40625 4.535156 15.292969 4.523438 15.214844 4.433594 C 15.285156 3.828125 15.6875 3.242188 16.257812 2.859375 Z M 10.503906 11.148438 C 10.476562 11.175781 10.414062 11.179688 10.347656 11.164062 C 10.214844 11.132812 10.046875 11.027344 10.019531 10.910156 C 10.011719 10.871094 10.019531 10.828125 10.046875 10.789062 C 10.046875 10.789062 15.097656 5.402344 15.207031 5.292969 C 15.3125 5.183594 15.683594 5.265625 15.445312 5.5625 C 15.207031 5.859375 10.609375 11.042969 10.503906 11.148438 Z M 10.890625 11.753906 C 10.890625 11.753906 10.847656 11.902344 10.847656 11.902344 C 10.847656 11.902344 10.671875 11.875 10.671875 11.875 C 10.671875 11.875 10.699219 11.613281 10.699219 11.613281 C 10.792969 11.585938 10.828125 11.695312 10.890625 11.753906 Z M 10.351562 12.582031 C 10.207031 12.5625 10.25 12.394531 10.1875 12.300781 C 10.332031 12.078125 10.113281 11.707031 10.324219 11.5 C 10.46875 11.472656 10.507812 11.652344 10.535156 11.734375 C 10.480469 12.011719 10.644531 12.441406 10.351562 12.582031 Z M 7.96875 10.992188 C 7.886719 11.101562 7.761719 11.0625 7.648438 11.09375 C 7.511719 10.878906 7.300781 10.691406 7.3125 10.414062 C 7.320312 10.300781 7.367188 10.199219 7.429688 10.105469 C 7.730469 10.3125 7.859375 10.675781 7.96875 10.992188 Z M 7.816406 9.742188 C 8.335938 9.585938 8.0625 10.300781 8.253906 10.554688 C 8.226562 10.628906 8.117188 10.597656 8.070312 10.582031 C 8.007812 10.265625 7.476562 10.058594 7.816406 9.742188 Z M 7.796875 11.417969 C 8.007812 11.101562 8.335938 10.886719 8.722656 10.933594 C 8.722656 10.933594 8.804688 11.074219 8.804688 11.074219 C 8.804688 11.074219 8.792969 11.214844 8.792969 11.214844 C 8.390625 11.148438 8.117188 11.453125 7.816406 11.6875 C 7.789062 11.613281 7.75 11.511719 7.796875 11.417969 Z M 8.363281 9.742188 C 8.375 9.679688 8.457031 9.648438 8.503906 9.695312 C 8.628906 9.855469 8.574219 10.085938 8.613281 10.28125 C 8.554688 10.320312 8.503906 10.320312 8.457031 10.273438 C 8.355469 10.125 8.300781 9.917969 8.363281 9.742188 Z M 8.144531 11.714844 C 8.234375 11.921875 8.582031 13.1875 8.832031 13.511719 C 8.878906 13.59375 8.777344 13.59375 8.710938 13.625 C 8.683594 13.597656 8.65625 13.570312 8.628906 13.542969 C 8.410156 13.332031 8.246094 13.078125 8.132812 12.796875 C 8.03125 12.554688 7.972656 12.289062 7.953125 12.023438 C 7.988281 11.921875 8.0625 11.808594 8.144531 11.714844 Z M 8.410156 11.566406 C 8.527344 11.472656 8.695312 11.5 8.851562 11.546875 C 9.125 11.714844 9.214844 12.003906 9.308594 12.300781 C 9.269531 12.765625 9.335938 13.101562 9.207031 13.519531 C 9.003906 13.511719 8.503906 12.097656 8.410156 11.566406 Z M 9.078125 10.664062 C 8.988281 10.710938 8.851562 10.65625 8.851562 10.542969 C 8.859375 10.253906 8.765625 9.902344 8.878906 9.6875 C 9.207031 9.855469 9.003906 10.355469 9.078125 10.664062 Z M 9.042969 11.234375 C 9.015625 11.074219 9.160156 11 9.289062 10.972656 C 9.4375 10.992188 9.636719 10.960938 9.664062 11.148438 C 9.71875 11.371094 9.5 11.492188 9.335938 11.605469 C 9.171875 11.546875 9.085938 11.398438 9.042969 11.234375 Z M 9.527344 10.597656 C 9.460938 10.683594 9.351562 10.636719 9.28125 10.617188 C 9.234375 10.355469 9.214844 10.097656 9.234375 9.808594 C 9.648438 9.800781 9.460938 10.328125 9.527344 10.597656 Z M 9.445312 13.304688 C 9.621094 12.933594 9.5625 12.460938 9.5625 12.023438 C 9.96875 11.734375 9.875 12.328125 9.941406 12.5625 C 9.914062 12.925781 9.8125 13.296875 9.554688 13.511719 C 9.554688 13.511719 9.546875 13.585938 9.546875 13.585938 C 9.382812 13.613281 9.417969 13.390625 9.445312 13.304688 Z M 9.828125 10.769531 C 9.703125 10.582031 9.738281 10.320312 9.746094 10.078125 C 9.941406 10.042969 9.847656 10.265625 9.929688 10.355469 C 9.894531 10.496094 9.984375 10.730469 9.828125 10.769531 Z M 9.773438 11.660156 C 9.773438 11.511719 9.785156 11.304688 9.941406 11.269531 C 10.039062 11.25 10.015625 11.371094 10.050781 11.425781 C 10.039062 11.558594 10.039062 11.707031 9.941406 11.78125 C 9.867188 11.789062 9.792969 11.734375 9.773438 11.660156 Z M 15.066406 4.925781 C 15.066406 4.925781 15.09375 4.8125 15.09375 4.8125 C 15.253906 4.777344 15.328125 4.9375 15.375 5.058594 C 15.28125 5.050781 15.1875 5.074219 15.117188 5.121094 C 15.089844 5.066406 15.082031 4.984375 15.066406 4.925781 Z M 15.597656 1.78125 C 15.679688 1.929688 15.753906 2.070312 15.796875 2.21875 C 15.597656 2.246094 15.550781 1.964844 15.441406 1.855469 C 15.421875 1.75 15.542969 1.742188 15.597656 1.78125 Z M 15.15625 1.808594 C 15.386719 2.097656 15.578125 2.394531 15.789062 2.683594 C 15.742188 2.777344 15.671875 2.710938 15.632812 2.671875 C 15.441406 2.429688 15.183594 2.1875 14.964844 1.949219 C 14.984375 1.855469 15.074219 1.808594 15.15625 1.808594 Z M 14.835938 2.132812 C 14.835938 2.132812 15.589844 3.007812 15.589844 3.007812 C 15.605469 3.121094 15.46875 3.121094 15.414062 3.082031 C 15.175781 2.75 14.847656 2.523438 14.5625 2.234375 C 14.617188 2.132812 14.734375 2.070312 14.835938 2.132812 Z M 14.554688 2.507812 C 14.554688 2.507812 15.304688 3.15625 15.304688 3.15625 C 15.351562 3.222656 15.324219 3.34375 15.230469 3.332031 C 14.917969 3.015625 14.542969 2.851562 14.207031 2.589844 C 14.261719 2.402344 14.433594 2.386719 14.554688 2.507812 Z M 14.039062 2.839844 C 14.433594 2.988281 14.773438 3.277344 15.140625 3.492188 C 15.203125 3.574219 15.113281 3.679688 15.046875 3.6875 C 15.046875 3.6875 13.964844 3.09375 13.964844 3.09375 C 13.957031 3 13.976562 2.90625 14.039062 2.839844 Z M 13.914062 3.332031 C 14.277344 3.464844 14.609375 3.6875 14.945312 3.863281 C 15.011719 3.921875 14.9375 4.003906 14.875 4.023438 C 14.523438 3.875 14.222656 3.652344 13.855469 3.539062 C 13.800781 3.492188 13.867188 3.390625 13.914062 3.332031 Z M 13.71875 3.753906 C 14.039062 3.84375 14.332031 4.003906 14.636719 4.144531 C 14.269531 4.152344 13.929688 4.105469 13.691406 3.835938 C 13.691406 3.835938 13.71875 3.753906 13.71875 3.753906 Z M 12.804688 3.503906 C 12.804688 3.503906 13.414062 3.503906 13.414062 3.503906 C 13.492188 3.570312 13.539062 3.636719 13.539062 3.636719 C 13.539062 3.636719 13.386719 3.964844 13.511719 4.035156 C 14.265625 4.457031 14.765625 4.316406 14.765625 4.316406 C 14.765625 4.316406 14.878906 4.570312 14.878906 4.570312 C 14.878906 4.570312 14.878906 4.570312 14.988281 5.246094 C 14.867188 5.375 14.632812 5.628906 14.320312 5.957031 C 13.703125 4.910156 13.140625 4.265625 13.066406 4.175781 C 12.929688 4.011719 12.515625 3.796875 12.804688 3.503906 Z M 7.210938 4.628906 C 7.554688 4.078125 9.5 2.390625 12.3125 5.335938 C 12.800781 5.847656 13.207031 6.332031 13.546875 6.785156 C 12.441406 7.964844 11.035156 9.464844 10.390625 10.152344 C 10.082031 9.984375 9.765625 9.792969 9.441406 9.585938 C 6.988281 8 6.402344 5.933594 7.210938 4.628906 Z M 5.015625 1.316406 C 5.160156 1.234375 5.34375 1.296875 5.449219 1.4375 C 5.34375 1.617188 5.117188 1.757812 5.136719 1.960938 C 5.300781 2.082031 5.578125 2.101562 5.640625 2.339844 C 5.683594 2.472656 5.65625 2.632812 5.570312 2.738281 C 5.570312 2.738281 5.363281 2.757812 5.363281 2.757812 C 5.449219 2.660156 5.476562 2.507812 5.429688 2.394531 C 5.351562 2.3125 5.285156 2.1875 5.152344 2.234375 C 4.925781 2.242188 4.980469 2.648438 4.769531 2.492188 C 4.867188 2.109375 4.988281 1.730469 5.015625 1.316406 Z M 4.007812 2.789062 C 4.5625 3.355469 4.816406 3.976562 4.816406 3.976562 C 4.703125 4.261719 3.476562 4.828125 3.476562 4.828125 C 3.476562 4.828125 4.203125 3.46875 4.203125 3.46875 C 4.203125 3.46875 2.390625 5.054688 2.390625 5.054688 C 2.390625 5.054688 2.417969 4.316406 2.640625 4.0625 C 2.863281 3.808594 4.007812 2.789062 4.007812 2.789062 Z M 0.554688 3.503906 C 0.554688 3.503906 2.941406 3.503906 2.941406 3.503906 C 2.824219 3.621094 2.703125 3.742188 2.585938 3.863281 C 2.054688 4.402344 2.25 5.589844 2.25 5.589844 C 2.5 5.28125 3.394531 4.402344 3.394531 4.402344 C 3.394531 4.402344 2.917969 5.507812 2.917969 5.507812 C 2.917969 5.507812 4.703125 4.429688 4.925781 4.316406 C 5.148438 4.203125 5.457031 3.976562 5.761719 4.601562 C 6.070312 5.222656 5.652344 5.707031 5.652344 5.707031 C 5.039062 6.894531 6.792969 9.527344 6.960938 9.839844 C 6.960938 9.839844 7.15625 10.152344 7.15625 10.152344 C 6.960938 10.804688 7.601562 11.339844 7.601562 11.339844 C 7.519531 11.453125 7.714844 11.9375 7.714844 11.9375 C 7.714844 11.9375 7.71875 12.382812 7.933594 12.863281 C 7.933594 12.863281 7.925781 12.871094 7.925781 12.871094 C 7.917969 12.882812 7.089844 13.738281 6.925781 13.886719 C 6.855469 13.953125 6.777344 14.015625 6.667969 14.058594 C 6.667969 14.058594 0.554688 3.503906 0.554688 3.503906 Z M 1.875 15.496094 C 1.875 15.496094 1.128906 15.496094 1.128906 15.496094 C 1.128906 15.496094 1.773438 14.320312 1.773438 14.320312 C 1.773438 14.320312 2.519531 14.320312 2.519531 14.320312 C 2.519531 14.320312 1.875 15.496094 1.875 15.496094 Z M 6.277344 15.496094 C 6.066406 15.496094 5.722656 15.496094 5.722656 15.496094 C 5.722656 15.496094 6.246094 14.320312 6.246094 14.320312 C 6.6875 14.320312 6.886719 14.183594 7.054688 14.027344 C 7.222656 13.875 8.011719 13.0625 8.011719 13.0625 C 8.011719 13.0625 8.351562 13.558594 8.351562 13.558594 C 8.351562 13.558594 7.511719 14.492188 7.191406 14.878906 C 6.871094 15.265625 6.492188 15.496094 6.277344 15.496094 Z M 9.742188 19.367188 C 9.742188 19.367188 7.261719 15.085938 7.261719 15.085938 C 7.289062 15.058594 7.3125 15.03125 7.335938 15 C 7.605469 14.671875 8.339844 13.863281 8.53125 13.652344 C 8.808594 13.851562 9.050781 13.796875 9.332031 13.777344 C 9.75 13.75 10.085938 13.011719 10.085938 13.011719 C 10.335938 13.125 10.722656 12.390625 10.722656 12.390625 C 10.722656 12.390625 10.917969 12.332031 10.917969 12.332031 C 11.085938 11.878906 11.113281 11.539062 10.890625 11.3125 C 10.6875 11.105469 10.945312 11.058594 10.945312 11.058594 C 11.085938 11.144531 12.285156 11.453125 12.3125 11.539062 C 12.339844 11.625 12.117188 11.738281 12.089844 11.851562 C 12.0625 11.964844 12.144531 12.304688 12.230469 12.585938 C 12.3125 12.871094 12.3125 13.351562 12.3125 13.351562 C 12.3125 13.351562 12.089844 13.351562 12.089844 13.351562 C 12.089844 13.351562 12.144531 13.917969 12.0625 14.003906 C 11.976562 14.089844 11.28125 14.117188 11.28125 14.117188 C 10.609375 14.117188 10.585938 14.796875 10.585938 14.898438 C 10.496094 15.035156 10.367188 15.269531 10.351562 15.480469 C 10.351562 15.480469 10.335938 15.636719 10.335938 15.636719 C 10.335938 15.636719 11.855469 15.636719 11.855469 15.636719 C 11.855469 15.636719 9.742188 19.367188 9.742188 19.367188 Z M 12.265625 14.910156 C 12.265625 14.910156 12.132812 15.140625 12.132812 15.140625 C 12.113281 15.074219 12.082031 14.988281 12.050781 14.910156 C 12.050781 14.910156 12.265625 14.910156 12.265625 14.910156 Z M 11.519531 14.910156 C 11.488281 15.015625 11.449219 15.132812 11.429688 15.191406 C 11.351562 15.191406 11.292969 15.191406 11.222656 15.191406 C 11.195312 15.144531 11.128906 15.027344 11.066406 14.910156 C 11.066406 14.910156 11.519531 14.910156 11.519531 14.910156 Z M 10.832031 14.640625 C 10.785156 14.582031 10.835938 14.460938 10.945312 14.371094 C 11.054688 14.285156 11.183594 14.265625 11.230469 14.328125 C 11.277344 14.390625 11.226562 14.511719 11.117188 14.597656 C 11.007812 14.683594 10.878906 14.703125 10.832031 14.640625 Z M 13.707031 15.359375 C 13.707031 15.359375 14.164062 15.359375 14.164062 15.359375 C 14.164062 15.359375 14.164062 15.492188 14.164062 15.492188 C 14.164062 15.492188 10.488281 15.492188 10.488281 15.492188 C 10.507812 15.277344 10.679688 15.007812 10.746094 14.910156 C 10.746094 14.910156 10.902344 14.910156 10.902344 14.910156 C 10.902344 14.910156 11.140625 15.335938 11.140625 15.335938 C 11.140625 15.335938 11.535156 15.335938 11.535156 15.335938 C 11.535156 15.335938 11.667969 14.910156 11.667969 14.910156 C 11.667969 14.910156 11.902344 14.910156 11.902344 14.910156 C 11.902344 14.910156 12.054688 15.335938 12.054688 15.335938 C 12.054688 15.335938 13.230469 15.335938 13.230469 15.335938 C 13.230469 15.335938 13.351562 14.910156 13.351562 14.910156 C 13.351562 14.910156 13.566406 14.910156 13.566406 14.910156 C 13.566406 14.910156 13.707031 15.359375 13.707031 15.359375 Z M 12.46875 15.191406 C 12.46875 15.191406 12.628906 14.910156 12.628906 14.910156 C 12.628906 14.910156 13.203125 14.910156 13.203125 14.910156 C 13.175781 15.011719 13.140625 15.128906 13.125 15.191406 C 13.019531 15.191406 12.714844 15.191406 12.46875 15.191406 Z M 13.285156 13.109375 C 13.285156 13.109375 13.230469 12.53125 13.230469 12.53125 C 13.230469 12.53125 13.679688 12.304688 13.679688 12.304688 C 13.699219 12.304688 13.71875 12.304688 13.738281 12.304688 C 13.738281 12.304688 13.285156 13.109375 13.285156 13.109375 Z M 14.710938 11.03125 C 14.273438 11.535156 12.933594 11.367188 11.265625 10.597656 C 11.90625 9.875 13.066406 8.5625 14.023438 7.472656 C 15.164062 9.277344 15.140625 10.527344 14.710938 11.03125 Z M 14.71875 6.679688 C 15.039062 6.320312 15.292969 6.027344 15.445312 5.851562 C 15.675781 5.972656 15.910156 5.988281 15.910156 5.988281 C 17.023438 6.355469 16.96875 5.394531 16.96875 5.394531 C 17.386719 5.476562 17.359375 4.769531 17.359375 4.769531 C 17.527344 4.769531 17.527344 4.457031 17.527344 4.457031 C 17.644531 4.015625 17.414062 3.691406 17.265625 3.535156 C 17.289062 3.527344 17.3125 3.515625 17.335938 3.503906 C 17.335938 3.503906 18.71875 3.503906 18.71875 3.503906 C 18.71875 3.503906 15.625 8.96875 15.625 8.96875 C 15.382812 8.113281 15.058594 7.34375 14.71875 6.679688 Z M 18.5 8.226562 C 18.355469 8.164062 18.207031 8.109375 18.066406 8.058594 C 18.121094 7.980469 18.175781 7.894531 18.210938 7.84375 C 18.359375 7.894531 18.988281 8.105469 19.128906 8.152344 C 19.132812 8.21875 19.136719 8.347656 19.140625 8.464844 C 18.886719 8.375 18.652344 8.289062 18.5 8.226562 Z M 19.816406 9.328125 C 19.679688 9.359375 19.558594 9.324219 19.539062 9.25 C 19.519531 9.171875 19.617188 9.085938 19.75 9.050781 C 19.882812 9.019531 20.007812 9.054688 20.027344 9.128906 C 20.046875 9.207031 19.949219 9.292969 19.816406 9.328125 Z M 19.636719 8.636719 C 19.703125 8.542969 19.777344 8.441406 19.816406 8.382812 C 19.894531 8.410156 19.949219 8.429688 20.011719 8.449219 C 20.023438 8.507812 20.050781 8.648438 20.078125 8.78125 C 19.953125 8.742188 19.800781 8.691406 19.636719 8.636719 Z M 20.371094 8.878906 C 20.371094 8.878906 20.371094 8.878906 20.367188 8.878906 C 20.355469 8.871094 20.304688 8.855469 20.230469 8.832031 C 20.230469 8.832031 20.136719 8.339844 20.136719 8.339844 C 20.136719 8.339844 19.765625 8.214844 19.765625 8.214844 C 19.765625 8.214844 19.5 8.585938 19.5 8.585938 C 19.425781 8.5625 19.355469 8.539062 19.28125 8.511719 C 19.28125 8.511719 19.269531 8.050781 19.269531 8.050781 C 19.269531 8.050781 18.152344 7.675781 18.152344 7.675781 C 18.152344 7.675781 17.925781 8.015625 17.925781 8.015625 C 17.847656 7.992188 17.773438 7.972656 17.699219 7.960938 C 17.699219 7.960938 17.707031 7.5 17.707031 7.5 C 17.707031 7.5 17.273438 7.355469 17.273438 7.355469 C 17.273438 7.355469 17.3125 7.226562 17.3125 7.226562 C 17.3125 7.226562 20.804688 8.402344 20.804688 8.402344 C 20.71875 8.605469 20.457031 8.8125 20.371094 8.878906 Z M 20.371094 8.878906 "/>
</g>
</svg>
