<?xml version="1.0" encoding="UTF-8"?>
<svg xmlns="http://www.w3.org/2000/svg" xmlns:xlink="http://www.w3.org/1999/xlink" width="31pt" height="25pt" viewBox="0 0 31 25" version="1.1">
<g id="surface1">
<path style=" stroke:none;fill-rule:nonzero;fill:rgb(100%,100%,100%);fill-opacity:1;" d="M 20.214844 20.910156 C 20.160156 20.828125 20.027344 20.789062 19.976562 20.648438 C 19.949219 20.585938 19.9375 20.507812 19.882812 20.480469 C 19.882812 20.480469 19.667969 20.796875 19.769531 21.269531 C 19.988281 21.320312 20.207031 21.105469 20.207031 21.105469 C 20.207031 21.105469 20.25 20.964844 20.214844 20.910156 M 18.902344 20.492188 C 18.636719 20.589844 18.550781 20.777344 18.550781 20.777344 C 18.550781 20.777344 18.605469 20.820312 18.65625 20.890625 C 18.707031 20.964844 18.722656 21.066406 18.722656 21.101562 C 18.726562 21.132812 19.007812 21.09375 19.007812 21.09375 C 19.085938 21.074219 19.304688 20.507812 19.304688 20.507812 C 19.304688 20.507812 19.351562 20.378906 19.332031 20.351562 C 19.308594 20.324219 19.167969 20.390625 18.902344 20.492188 "/>
<path style=" stroke:none;fill-rule:nonzero;fill:rgb(0.392157%,0.392157%,0.392157%);fill-opacity:1;" d="M 26.421875 5.957031 L 24.882812 6.253906 C 24.820312 6.265625 18.65625 7.441406 14.773438 7.441406 C 10.9375 7.441406 4.894531 6.300781 4.636719 6.253906 L 2.679688 5.890625 L 14.757812 24.78125 L 26.851562 5.859375 Z M 26.421875 5.957031 "/>
<path style=" stroke:none;fill-rule:nonzero;fill:rgb(94.901961%,56.078431%,12.54902%);fill-opacity:1;" d="M 24.96875 6.730469 C 24.714844 6.78125 18.667969 7.925781 14.773438 7.925781 C 10.890625 7.925781 4.808594 6.78125 4.550781 6.730469 L 3.691406 6.566406 L 14.757812 23.640625 L 25.828125 6.566406 Z M 24.96875 6.730469 "/>
<path style=" stroke:none;fill-rule:nonzero;fill:rgb(1.960784%,32.54902%,36.470588%);fill-opacity:1;" d="M 24.996094 6.875 C 24.742188 6.925781 18.6875 8.074219 14.773438 8.074219 C 10.878906 8.074219 4.777344 6.925781 4.519531 6.875 L 4 6.777344 L 14.757812 23.375 L 25.519531 6.773438 Z M 24.996094 6.875 "/>
<path style=" stroke:none;fill-rule:nonzero;fill:rgb(100%,100%,100%);fill-opacity:1;" d="M 24.652344 7.300781 C 23.628906 7.484375 18.339844 8.40625 14.773438 8.40625 C 11.207031 8.40625 5.933594 7.460938 4.910156 7.269531 L 4.785156 7.246094 L 14.761719 22.621094 L 24.777344 7.277344 Z M 24.652344 7.300781 "/>
<path style=" stroke:none;fill-rule:nonzero;fill:rgb(0.392157%,0.392157%,0.392157%);fill-opacity:1;" d="M 3.304688 6.296875 L 7.652344 13.003906 C 7.652344 13.003906 7.332031 10.277344 8.859375 9.59375 C 10.390625 8.910156 12.226562 7.570312 12.226562 7.570312 Z M 3.304688 6.296875 "/>
<path style=" stroke:none;fill-rule:nonzero;fill:rgb(100%,100%,100%);fill-opacity:1;" d="M 23.871094 10.25 C 22.246094 10.925781 21.859375 11.144531 21.746094 11.292969 C 21.746094 11.292969 21.742188 11.300781 21.742188 11.300781 C 20.558594 10.300781 19.253906 9.339844 18.039062 8.582031 C 18.039062 8.582031 18.832031 8.550781 18.679688 8.453125 C 18.496094 8.078125 18.261719 7.683594 17.980469 7.257812 C 17.511719 7.257812 15.742188 7.441406 14.773438 7.441406 C 14.316406 7.441406 13.828125 7.425781 13.324219 7.394531 C 13.363281 7.488281 13.398438 7.574219 13.429688 7.660156 C 13.125 7.683594 12.359375 7.851562 12.144531 7.878906 C 11.890625 7.914062 11.457031 8.007812 11.125 8.101562 C 8.300781 8.6875 7.304688 9.972656 7.261719 10.046875 L 7.304688 10.132812 L 7.332031 10.273438 C 7.328125 10.292969 7.734375 10.308594 7.734375 10.570312 C 7.734375 11.171875 8.101562 12.46875 8.621094 13.703125 C 8.328125 13.730469 10.339844 17.410156 10.011719 17.398438 L 10.257812 17.742188 C 12.121094 18.207031 12.773438 18.269531 14.503906 18.234375 C 14.503906 18.234375 14.601562 18.234375 14.695312 18.230469 C 15.140625 18.515625 15.648438 18.832031 16.140625 19.121094 C 16.4375 19.296875 16.828125 19.539062 17.238281 19.796875 C 17.414062 19.90625 17.933594 19.679688 18.09375 19.78125 C 18.09375 19.78125 24.074219 10.476562 24.113281 10.148438 C 24.113281 10.148438 23.949219 10.21875 23.871094 10.25 "/>
<path style=" stroke:none;fill-rule:nonzero;fill:rgb(1.960784%,32.54902%,36.470588%);fill-opacity:1;" d="M 7.863281 13.441406 C 7.894531 13.523438 7.976562 13.660156 8.039062 13.804688 C 8.550781 13.804688 8.925781 13.71875 9.253906 13.707031 C 9.253906 13.707031 10.6875 15.152344 10.71875 14.625 C 10.746094 14.101562 9.828125 13.027344 9.007812 13.148438 C 8.183594 13.265625 7.75 13.058594 7.863281 13.441406 "/>
<path style=" stroke:none;fill-rule:nonzero;fill:rgb(0.392157%,0.392157%,0.392157%);fill-opacity:1;" d="M 26.621094 17.929688 C 26.273438 17.175781 26.222656 17.023438 26.222656 17.023438 C 26.222656 17.023438 25.925781 15.714844 25.683594 15.425781 C 25.445312 15.136719 25.027344 14.960938 25.027344 14.960938 C 25.027344 14.960938 24.984375 14.902344 24.898438 14.800781 C 25.265625 14.175781 25.875 13.058594 26.402344 11.730469 C 27.21875 9.667969 27.5625 8.789062 27.285156 8.886719 C 27.007812 8.988281 25.109375 9.953125 23.945312 10.433594 C 22.785156 10.917969 22.015625 11.265625 21.902344 11.417969 C 21.847656 11.484375 21.816406 11.539062 21.777344 11.589844 C 20.671875 10.636719 19.316406 9.609375 17.9375 8.75 C 16.125 7.617188 15.886719 7.507812 15.035156 7.441406 C 14.183594 7.375 12.675781 7.460938 11.953125 7.554688 C 11.675781 7.589844 11.375 7.664062 11.09375 7.746094 C 8.308594 8.316406 7.261719 10.046875 7.261719 10.046875 C 7.261719 10.046875 7.09375 11.675781 7.863281 13.441406 C 8.375 13.441406 8.777344 13.363281 9.105469 13.351562 C 10.871094 14.378906 10.636719 14.839844 10.089844 15.128906 C 10.914062 15.714844 12.285156 16.804688 12.542969 16.890625 C 12.953125 17.023438 13.355469 17.199219 13.550781 17.304688 C 14.09375 17.585938 15.1875 18.335938 16.238281 18.953125 C 17.285156 19.566406 19.460938 21.015625 19.96875 21.097656 C 20.476562 21.179688 21.199219 21.300781 21.589844 21.285156 C 21.984375 21.269531 22.21875 21.175781 22.21875 21.175781 C 22.21875 21.175781 22.75 21.332031 23.273438 21.332031 C 23.796875 21.332031 24.175781 21.128906 24.175781 21.128906 C 24.175781 21.128906 24.566406 21.363281 25.417969 21.429688 C 25.417969 21.429688 25.976562 21.476562 26.5 21.46875 C 27.042969 21.480469 27.433594 21.386719 27.496094 21.316406 C 27.59375 21.195312 26.972656 18.683594 26.621094 17.929688 "/>
<path style=" stroke:none;fill-rule:nonzero;fill:rgb(100%,100%,100%);fill-opacity:1;" d="M 22.375 20.8125 C 21.957031 20.8125 21.210938 20.8125 20.910156 20.761719 L 20.777344 20.738281 L 20.894531 20.667969 C 21.066406 20.566406 21.261719 20.441406 21.390625 20.34375 C 20.902344 20.363281 20.113281 20.339844 19.875 20.277344 L 19.789062 20.257812 L 19.855469 20.195312 C 19.917969 20.132812 20.015625 20.058594 20.117188 19.980469 C 20.222656 19.894531 20.339844 19.800781 20.421875 19.722656 C 20.066406 19.761719 19.527344 19.804688 19.265625 19.792969 L 19.15625 19.789062 L 19.25 19.691406 C 19.328125 19.605469 19.476562 19.445312 19.546875 19.3125 C 19.542969 19.3125 19.535156 19.316406 19.535156 19.316406 C 19.246094 19.363281 18.851562 19.433594 18.6875 19.425781 L 18.59375 19.421875 L 18.648438 19.347656 C 18.722656 19.242188 18.796875 19.128906 18.847656 19.046875 C 18.8125 19.054688 18.773438 19.0625 18.773438 19.0625 C 18.566406 19.105469 18.308594 19.160156 18.167969 19.117188 L 18.101562 19.09375 L 18.140625 19.039062 C 18.222656 18.929688 18.253906 18.851562 18.269531 18.804688 C 18.117188 18.839844 17.871094 18.890625 17.734375 18.832031 L 17.664062 18.804688 L 17.71875 18.75 C 17.757812 18.710938 17.792969 18.644531 17.8125 18.589844 C 17.222656 18.585938 16.886719 18.683594 16.886719 18.683594 C 17.804688 18.71875 18.730469 20.09375 18.96875 20.347656 C 19.210938 20.601562 19.929688 20.9375 20.835938 21.035156 C 21.527344 21.113281 22.007812 21.023438 22.148438 20.992188 C 22.222656 20.941406 22.296875 20.882812 22.375 20.8125 "/>
<path style=" stroke:none;fill-rule:nonzero;fill:rgb(100%,100%,100%);fill-opacity:1;" d="M 21.621094 19.925781 C 20.628906 19.40625 20.027344 18.929688 18.828125 18.695312 C 18.484375 18.628906 18.175781 18.601562 17.914062 18.59375 C 17.898438 18.648438 17.867188 18.707031 17.835938 18.753906 C 17.964844 18.769531 18.160156 18.734375 18.320312 18.6875 L 18.382812 18.667969 L 18.382812 18.734375 C 18.382812 18.777344 18.363281 18.878906 18.265625 19.027344 C 18.394531 19.035156 18.597656 18.996094 18.753906 18.964844 L 19.023438 18.910156 L 18.984375 18.996094 C 18.957031 19.0625 18.882812 19.175781 18.785156 19.324219 C 18.972656 19.308594 19.292969 19.253906 19.515625 19.214844 L 19.699219 19.1875 L 19.675781 19.261719 C 19.636719 19.398438 19.488281 19.574219 19.378906 19.695312 C 19.671875 19.695312 20.171875 19.652344 20.539062 19.609375 L 20.648438 19.597656 L 20.585938 19.6875 C 20.519531 19.785156 20.34375 19.925781 20.175781 20.058594 C 20.109375 20.109375 20.050781 20.15625 20 20.199219 C 20.324219 20.246094 21.089844 20.269531 21.523438 20.238281 L 21.640625 20.230469 L 21.5625 20.320312 C 21.480469 20.417969 21.277344 20.550781 21.066406 20.679688 C 21.417969 20.714844 22.039062 20.714844 22.394531 20.714844 L 22.617188 20.714844 L 22.535156 20.796875 C 22.496094 20.835938 22.410156 20.921875 22.300781 21.003906 C 22.464844 21.039062 22.769531 21.09375 22.953125 21.101562 C 23.257812 21.113281 23.617188 21.148438 24 21.058594 C 23.464844 20.816406 22.613281 20.449219 21.621094 19.925781 "/>
<path style=" stroke:none;fill-rule:nonzero;fill:rgb(1.960784%,32.54902%,36.470588%);fill-opacity:1;" d="M 13.722656 10.777344 C 13.722656 10.777344 14.289062 11.199219 14.878906 11.976562 C 15.46875 12.753906 15.859375 13.351562 15.75 13.417969 C 15.640625 13.484375 15.207031 13.285156 15.207031 13.285156 C 15.207031 13.285156 16.15625 13.882812 17.027344 14.65625 C 17.902344 15.433594 18.347656 15.878906 18.347656 15.878906 C 18.347656 15.878906 19.765625 15.855469 19.917969 16.210938 C 20.074219 16.566406 20.136719 16.722656 20.246094 16.921875 C 20.355469 17.121094 21.03125 18.121094 21.121094 18.121094 C 21.207031 18.121094 21.472656 18.117188 21.535156 18.050781 C 21.601562 17.984375 21.710938 17.765625 21.710938 17.765625 C 21.710938 17.765625 21.796875 18.253906 21.621094 18.496094 C 21.792969 18.628906 23.414062 19.6875 24.820312 20.292969 C 26.046875 20.816406 27.148438 21.242188 27.253906 21.128906 C 27.363281 21.019531 26.773438 18.808594 26.421875 18.054688 C 26.074219 17.300781 26.023438 17.148438 26.023438 17.148438 C 26.023438 17.148438 25.726562 15.835938 25.484375 15.550781 C 25.246094 15.261719 24.832031 15.082031 24.832031 15.082031 C 24.832031 15.082031 23.761719 13.726562 22.539062 12.574219 C 21.316406 11.421875 19.546875 10.003906 17.738281 8.875 C 15.925781 7.742188 15.6875 7.632812 14.835938 7.566406 C 13.984375 7.5 12.628906 7.628906 11.910156 7.761719 C 11.191406 7.894531 10.230469 8.25 10.230469 8.25 C 10.230469 8.25 11.210938 8.714844 12.238281 9.535156 Z M 13.722656 10.777344 "/>
<path style=" stroke:none;fill-rule:nonzero;fill:rgb(94.901961%,56.078431%,12.54902%);fill-opacity:1;" d="M 19.230469 16.667969 C 19.230469 16.667969 19.613281 17.023438 19.84375 17.355469 C 20.074219 17.6875 20.453125 18.296875 20.453125 18.296875 C 20.453125 18.296875 19.941406 18.0625 19.800781 17.988281 C 19.65625 17.910156 19.539062 17.820312 19.539062 17.820312 C 19.539062 17.820312 19.375 17.441406 19.332031 17.210938 C 19.285156 16.976562 19.230469 16.667969 19.230469 16.667969 "/>
<path style=" stroke:none;fill-rule:nonzero;fill:rgb(1.960784%,32.54902%,36.470588%);fill-opacity:1;" d="M 16.527344 15.648438 L 16.789062 16.011719 C 16.789062 16.011719 16.503906 17.183594 16.539062 17.535156 C 16.539062 17.535156 16.328125 16.695312 16.527344 15.648438 "/>
<path style=" stroke:none;fill-rule:nonzero;fill:rgb(1.960784%,32.54902%,36.470588%);fill-opacity:1;" d="M 15.894531 15.054688 L 16.152344 15.472656 C 16.152344 15.472656 15.914062 16.769531 15.976562 17.207031 C 15.976562 17.207031 15.695312 16.253906 15.894531 15.054688 "/>
<path style=" stroke:none;fill-rule:nonzero;fill:rgb(1.960784%,32.54902%,36.470588%);fill-opacity:1;" d="M 15.269531 14.511719 L 15.527344 14.875 C 15.527344 14.875 15.324219 16.234375 15.382812 16.816406 C 15.382812 16.816406 15.0625 15.792969 15.269531 14.511719 "/>
<path style=" stroke:none;fill-rule:nonzero;fill:rgb(1.960784%,32.54902%,36.470588%);fill-opacity:1;" d="M 13.839844 12.398438 C 13.839844 12.398438 11.582031 10.957031 10.097656 10.546875 C 8.613281 10.136719 8.484375 10.078125 8.394531 10.148438 C 8.308594 10.214844 8.058594 10.402344 8.058594 10.402344 C 8.058594 10.402344 8.277344 9.957031 8.386719 9.957031 C 8.496094 9.957031 9.410156 10.113281 10.710938 10.625 C 11.984375 11.125 13.054688 11.855469 13.839844 12.398438 "/>
<path style=" stroke:none;fill-rule:nonzero;fill:rgb(0.392157%,0.392157%,0.392157%);fill-opacity:1;" d="M 9.101562 13.511719 C 9.101562 13.511719 7.742188 13.652344 5.21875 13.753906 C 2.699219 13.855469 0.0117188 13.875 0 13.925781 C -0.046875 14.128906 3.25 15.660156 7.230469 16.730469 C 11.527344 17.886719 12.09375 18.085938 14.5 18.035156 C 14.257812 17.6875 13.976562 17.40625 13.503906 17.023438 C 13.027344 16.640625 10.722656 14.378906 9.101562 13.511719 "/>
<path style=" stroke:none;fill-rule:nonzero;fill:rgb(0.392157%,0.392157%,0.392157%);fill-opacity:1;" d="M 13.226562 10.851562 C 13.226562 10.851562 14.519531 10.617188 15.992188 10.902344 C 17.464844 11.183594 19.996094 12.101562 20.144531 12.003906 C 20.40625 11.839844 18.234375 7.578125 16.257812 5.167969 C 14.492188 3.019531 11.949219 0.832031 10.066406 0 C 9.863281 -0.0898438 11.652344 3.011719 12.390625 5.058594 C 13.125 7.105469 13.003906 8.140625 13.003906 8.140625 C 13.003906 8.140625 11.246094 8.039062 10 8.339844 C 8.757812 8.636719 10.769531 10.300781 13.226562 10.851562 "/>
<path style=" stroke:none;fill-rule:nonzero;fill:rgb(0.392157%,0.392157%,0.392157%);fill-opacity:1;" d="M 20.027344 19.710938 C 20.019531 19.707031 19.898438 19.605469 19.824219 19.496094 C 19.820312 19.425781 19.804688 19.273438 19.746094 19.222656 C 19.734375 19.152344 19.632812 19.128906 19.511719 19.128906 C 19.304688 19.132812 19.25 19.066406 18.960938 19.113281 C 18.667969 19.160156 18.0625 19.289062 16.472656 19.28125 C 16.472656 19.28125 14.308594 19.292969 13.222656 19.214844 C 12.140625 19.140625 11.664062 19.054688 11.578125 19.113281 C 11.492188 19.167969 9.878906 20.371094 8.945312 21.328125 C 8.015625 22.285156 7.253906 23.269531 6.796875 23.835938 C 6.335938 24.402344 6.144531 24.734375 6.15625 24.777344 C 6.160156 24.800781 6.273438 24.972656 6.285156 25.007812 C 6.308594 25.0625 7.152344 24.96875 7.835938 24.949219 C 8.515625 24.933594 9.414062 24.921875 9.445312 24.878906 C 9.480469 24.835938 9.953125 23.617188 10.894531 22.585938 C 11.839844 21.554688 12.890625 20.53125 12.996094 20.539062 C 13.105469 20.550781 15.703125 20.46875 16.914062 20.347656 C 18.125 20.222656 19.707031 20.054688 19.800781 19.988281 C 19.898438 19.917969 20.101562 19.800781 20.027344 19.710938 "/>
<path style=" stroke:none;fill-rule:nonzero;fill:rgb(100%,100%,100%);fill-opacity:1;" d="M 10.746094 20.898438 C 10.316406 20.871094 9.984375 20.859375 9.726562 20.855469 C 9.488281 21.070312 9.257812 21.285156 9.058594 21.488281 C 9.015625 21.535156 8.96875 21.582031 8.925781 21.625 C 9.570312 21.554688 10.667969 21.457031 11.375 21.554688 C 11.503906 21.417969 11.632812 21.28125 11.761719 21.148438 C 11.566406 21.03125 11.253906 20.929688 10.746094 20.898438 "/>
<path style=" stroke:none;fill-rule:nonzero;fill:rgb(100%,100%,100%);fill-opacity:1;" d="M 8.820312 21.738281 C 8.605469 21.964844 8.402344 22.191406 8.210938 22.410156 C 8.480469 22.382812 8.871094 22.359375 9.453125 22.34375 C 9.953125 22.328125 10.335938 22.355469 10.59375 22.429688 C 10.628906 22.386719 10.660156 22.351562 10.683594 22.324219 L 10.695312 22.308594 C 10.871094 22.113281 11.078125 21.878906 11.296875 21.644531 C 10.601562 21.566406 9.527344 21.652344 8.820312 21.738281 "/>
<path style=" stroke:none;fill-rule:nonzero;fill:rgb(100%,100%,100%);fill-opacity:1;" d="M 9.457031 22.441406 C 8.792969 22.460938 8.382812 22.488281 8.117188 22.519531 C 8.046875 22.601562 7.980469 22.679688 7.914062 22.757812 C 8.109375 22.726562 8.375 22.6875 8.738281 22.648438 L 8.855469 22.632812 C 9.511719 22.5625 10.140625 22.492188 10.492188 22.558594 C 10.503906 22.542969 10.515625 22.527344 10.527344 22.511719 C 10.320312 22.460938 9.984375 22.425781 9.457031 22.441406 "/>
<path style=" stroke:none;fill-rule:nonzero;fill:rgb(100%,100%,100%);fill-opacity:1;" d="M 8.5 23.765625 C 9.089844 23.738281 9.351562 23.726562 9.675781 23.800781 C 9.769531 23.640625 9.863281 23.484375 9.957031 23.335938 C 9.75 23.25 9.449219 23.175781 9.019531 23.171875 C 8.464844 23.167969 7.964844 23.175781 7.554688 23.195312 C 7.414062 23.367188 7.28125 23.53125 7.164062 23.679688 L 6.980469 23.90625 C 7.335938 23.851562 7.8125 23.796875 8.320312 23.773438 Z M 8.5 23.765625 "/>
<path style=" stroke:none;fill-rule:nonzero;fill:rgb(100%,100%,100%);fill-opacity:1;" d="M 8.863281 22.734375 L 8.75 22.746094 C 8.3125 22.792969 8.011719 22.839844 7.816406 22.878906 C 7.753906 22.949219 7.695312 23.023438 7.636719 23.09375 C 8.03125 23.074219 8.503906 23.066406 9.019531 23.074219 C 9.472656 23.078125 9.792969 23.15625 10.011719 23.25 C 10.160156 23.019531 10.304688 22.8125 10.425781 22.648438 C 10.078125 22.597656 9.441406 22.667969 8.863281 22.734375 "/>
<path style=" stroke:none;fill-rule:nonzero;fill:rgb(100%,100%,100%);fill-opacity:1;" d="M 9.878906 20.722656 C 9.863281 20.734375 9.847656 20.746094 9.835938 20.761719 C 10.078125 20.765625 10.378906 20.777344 10.753906 20.800781 C 11.226562 20.832031 11.585938 20.921875 11.832031 21.074219 C 11.859375 21.042969 11.886719 21.015625 11.914062 20.988281 C 11.84375 20.953125 11.765625 20.925781 11.6875 20.898438 C 11.40625 20.800781 10.363281 20.746094 9.878906 20.722656 "/>
<path style=" stroke:none;fill-rule:nonzero;fill:rgb(100%,100%,100%);fill-opacity:1;" d="M 10.675781 20.054688 C 10.457031 20.230469 10.21875 20.425781 9.984375 20.628906 C 10.511719 20.652344 11.441406 20.710938 11.71875 20.804688 C 11.808594 20.832031 11.898438 20.871094 11.984375 20.914062 C 12.207031 20.6875 12.414062 20.488281 12.578125 20.347656 C 12.410156 20.257812 12.132812 20.175781 11.675781 20.117188 C 11.265625 20.070312 10.9375 20.050781 10.675781 20.054688 "/>
<path style=" stroke:none;fill-rule:nonzero;fill:rgb(100%,100%,100%);fill-opacity:1;" d="M 10.0625 23.355469 C 10.070312 23.398438 10.078125 23.445312 10.082031 23.488281 C 10.207031 23.296875 10.335938 23.113281 10.472656 22.941406 C 10.464844 22.894531 10.453125 22.839844 10.445312 22.785156 C 10.328125 22.949219 10.195312 23.144531 10.0625 23.355469 "/>
<path style=" stroke:none;fill-rule:nonzero;fill:rgb(100%,100%,100%);fill-opacity:1;" d="M 10.671875 22.695312 C 10.722656 22.636719 10.773438 22.578125 10.824219 22.519531 C 10.832031 22.511719 11.039062 22.28125 11.328125 21.980469 C 11.320312 21.925781 11.3125 21.859375 11.300781 21.785156 C 11.132812 21.96875 10.953125 22.167969 10.769531 22.375 L 10.757812 22.390625 C 10.722656 22.425781 10.683594 22.476562 10.636719 22.53125 C 10.644531 22.574219 10.65625 22.632812 10.671875 22.695312 "/>
<path style=" stroke:none;fill-rule:nonzero;fill:rgb(100%,100%,100%);fill-opacity:1;" d="M 11.84375 21.203125 C 11.859375 21.265625 11.875 21.332031 11.894531 21.398438 C 11.917969 21.371094 11.945312 21.34375 11.96875 21.316406 C 11.960938 21.253906 11.953125 21.175781 11.941406 21.101562 C 11.910156 21.132812 11.875 21.167969 11.84375 21.203125 "/>
<path style=" stroke:none;fill-rule:nonzero;fill:rgb(100%,100%,100%);fill-opacity:1;" d="M 12.574219 20.480469 C 12.429688 20.609375 12.246094 20.789062 12.027344 21.011719 C 12.039062 21.078125 12.046875 21.15625 12.058594 21.230469 C 12.242188 21.046875 12.425781 20.871094 12.578125 20.734375 C 12.578125 20.652344 12.574219 20.558594 12.574219 20.480469 "/>
<path style=" stroke:none;fill-rule:nonzero;fill:rgb(100%,100%,100%);fill-opacity:1;" d="M 10.007812 23.613281 C 10 23.566406 9.988281 23.519531 9.984375 23.476562 C 9.90625 23.601562 9.828125 23.730469 9.753906 23.863281 C 9.761719 23.910156 9.769531 23.957031 9.777344 24.003906 C 9.851562 23.871094 9.925781 23.738281 10.007812 23.613281 "/>
<path style=" stroke:none;fill-rule:nonzero;fill:rgb(100%,100%,100%);fill-opacity:1;" d="M 11.761719 21.289062 C 11.644531 21.414062 11.519531 21.546875 11.386719 21.691406 C 11.394531 21.757812 11.40625 21.828125 11.414062 21.890625 C 11.539062 21.757812 11.675781 21.617188 11.8125 21.476562 C 11.796875 21.410156 11.777344 21.34375 11.761719 21.289062 "/>
<path style=" stroke:none;fill-rule:nonzero;fill:rgb(100%,100%,100%);fill-opacity:1;" d="M 10.558594 22.632812 C 10.546875 22.648438 10.535156 22.664062 10.527344 22.675781 C 10.535156 22.730469 10.542969 22.785156 10.554688 22.839844 C 10.566406 22.824219 10.578125 22.808594 10.589844 22.792969 C 10.578125 22.734375 10.566406 22.679688 10.558594 22.632812 "/>
<path style=" stroke:none;fill-rule:nonzero;fill:rgb(94.901961%,56.078431%,12.54902%);fill-opacity:1;" d="M 19.789062 19.683594 C 19.734375 19.65625 19.648438 19.617188 19.636719 19.503906 L 19.632812 19.433594 C 19.628906 19.320312 19.621094 19.316406 19.558594 19.316406 C 19.472656 19.320312 19.40625 19.308594 19.351562 19.300781 C 19.261719 19.285156 19.183594 19.273438 19.019531 19.300781 L 18.941406 19.3125 C 18.628906 19.367188 17.980469 19.476562 16.515625 19.46875 C 16.496094 19.46875 14.335938 19.480469 13.261719 19.402344 L 12.277344 19.320312 C 11.964844 19.292969 11.722656 19.269531 11.667969 19.289062 C 11.621094 19.320312 11.261719 19.585938 10.796875 19.957031 C 11.042969 19.960938 11.335938 19.976562 11.6875 20.019531 C 12.132812 20.074219 12.453125 20.164062 12.660156 20.28125 C 12.769531 20.195312 12.855469 20.148438 12.902344 20.152344 C 13.058594 20.160156 15.660156 20.121094 16.851562 20 L 18.976562 19.792969 C 19.367188 19.753906 19.472656 19.746094 19.5 19.734375 L 19.507812 19.730469 L 19.519531 19.730469 C 19.597656 19.730469 19.730469 19.722656 19.84375 19.710938 C 19.828125 19.703125 19.808594 19.691406 19.789062 19.683594 "/>
<path style=" stroke:none;fill-rule:nonzero;fill:rgb(94.901961%,56.078431%,12.54902%);fill-opacity:1;" d="M 8.503906 23.863281 L 8.324219 23.871094 C 7.75 23.898438 7.234375 23.964844 6.886719 24.023438 C 6.582031 24.398438 6.449219 24.605469 6.390625 24.714844 C 6.566406 24.707031 6.839844 24.691406 7.078125 24.675781 L 7.851562 24.636719 C 8.285156 24.625 9.105469 24.597656 9.28125 24.582031 C 9.378906 24.359375 9.496094 24.121094 9.628906 23.890625 C 9.328125 23.828125 9.078125 23.839844 8.503906 23.863281 "/>
<path style=" stroke:none;fill-rule:nonzero;fill:rgb(0.392157%,0.392157%,0.392157%);fill-opacity:1;" d="M 30.972656 10.335938 C 31.011719 10.054688 31.011719 9.792969 31.011719 9.792969 C 31.011719 9.792969 30.539062 9.667969 30.261719 9.660156 C 29.980469 9.652344 29.511719 9.726562 29.511719 9.726562 C 29.511719 9.726562 29.246094 10.105469 29.1875 10.269531 C 29.167969 10.3125 29.253906 10.71875 29.253906 10.71875 C 29.253906 10.71875 28.851562 11.449219 28.574219 11.988281 C 28.296875 12.53125 27.839844 13.375 27.191406 14.398438 C 26.605469 15.320312 26.167969 16.019531 26.167969 16.019531 L 26.367188 16.492188 L 26.554688 16.351562 L 26.605469 16.332031 L 26.769531 16.34375 C 26.769531 16.34375 27.066406 16.003906 27.449219 15.613281 C 27.835938 15.222656 28.6875 13.867188 29.238281 13.09375 C 29.785156 12.320312 30.3125 11.179688 30.3125 11.179688 C 30.3125 11.179688 30.582031 11.148438 30.738281 11.078125 C 30.894531 11.007812 30.929688 10.777344 30.929688 10.777344 C 30.929688 10.777344 30.941406 10.582031 30.972656 10.335938 "/>
<path style=" stroke:none;fill-rule:nonzero;fill:rgb(94.901961%,56.078431%,12.54902%);fill-opacity:1;" d="M 29.929688 10.226562 C 29.929688 10.226562 30.5 10.238281 30.539062 10.238281 C 30.578125 10.195312 30.695312 10.058594 30.773438 9.917969 C 30.65625 9.902344 30.414062 9.878906 30.214844 9.875 C 29.992188 9.867188 29.695312 9.941406 29.605469 9.964844 C 29.554688 10.035156 29.464844 10.167969 29.402344 10.273438 C 29.539062 10.246094 29.714844 10.222656 29.929688 10.226562 "/>
<path style=" stroke:none;fill-rule:nonzero;fill:rgb(94.901961%,56.078431%,12.54902%);fill-opacity:1;" d="M 26.667969 15.699219 L 26.742188 15.628906 L 26.707031 15.734375 C 26.707031 15.742188 26.695312 15.789062 26.679688 15.820312 C 26.714844 15.808594 26.820312 15.753906 26.820312 15.753906 C 26.820312 15.753906 26.65625 16.050781 26.609375 16.113281 C 26.621094 16.105469 26.769531 15.992188 26.78125 15.984375 C 26.9375 15.871094 27.804688 14.679688 28.589844 13.375 C 28.953125 12.769531 29.804688 11.273438 30.277344 10.542969 C 30.195312 10.53125 30.070312 10.527344 29.960938 10.519531 C 29.785156 10.511719 29.691406 10.550781 29.605469 10.582031 L 29.503906 10.617188 C 29.464844 10.660156 29.371094 10.832031 29.371094 10.832031 C 29.367188 10.835938 28.980469 11.550781 28.703125 12.089844 C 28.433594 12.613281 27.890625 13.589844 27.355469 14.464844 C 27.007812 15.039062 26.613281 15.59375 26.335938 15.898438 C 26.390625 15.851562 26.636719 15.730469 26.667969 15.699219 "/>
<path style=" stroke:none;fill-rule:nonzero;fill:rgb(94.901961%,56.078431%,12.54902%);fill-opacity:1;" d="M 26.59375 15.914062 C 26.566406 15.925781 26.539062 15.929688 26.539062 15.933594 C 26.453125 16.003906 26.34375 16.027344 26.304688 16.042969 C 26.316406 16.070312 26.410156 16.261719 26.425781 16.292969 C 26.445312 16.277344 26.488281 16.246094 26.5 16.234375 C 26.492188 16.210938 26.480469 16.183594 26.46875 16.144531 C 26.511719 16.070312 26.558594 15.964844 26.59375 15.914062 "/>
<path style=" stroke:none;fill-rule:nonzero;fill:rgb(0.392157%,0.392157%,0.392157%);fill-opacity:1;" d="M 19.007812 21.09375 C 19.007812 21.09375 18.726562 21.132812 18.722656 21.101562 C 18.722656 21.066406 18.707031 20.964844 18.65625 20.890625 C 18.605469 20.820312 18.550781 20.777344 18.550781 20.777344 C 18.550781 20.777344 18.636719 20.589844 18.902344 20.492188 C 19.167969 20.390625 19.308594 20.324219 19.332031 20.351562 C 19.351562 20.378906 19.304688 20.507812 19.304688 20.507812 C 19.304688 20.507812 19.085938 21.074219 19.007812 21.09375 "/>
<path style=" stroke:none;fill-rule:nonzero;fill:rgb(94.901961%,56.078431%,12.54902%);fill-opacity:1;" d="M 19.1875 20.472656 C 19.160156 20.484375 19.128906 20.496094 19.097656 20.507812 L 18.9375 20.566406 C 18.789062 20.625 18.710938 20.710938 18.671875 20.761719 C 18.691406 20.785156 18.71875 20.8125 18.742188 20.847656 C 18.761719 20.875 18.816406 20.964844 18.828125 20.996094 C 18.945312 20.839844 19.160156 20.578125 19.1875 20.472656 "/>
<path style=" stroke:none;fill-rule:nonzero;fill:rgb(0.392157%,0.392157%,0.392157%);fill-opacity:1;" d="M 27.367188 17.101562 C 27.367188 17.101562 27.609375 16.960938 27.589844 16.929688 C 27.570312 16.894531 27.511719 16.789062 27.5 16.6875 C 27.492188 16.589844 27.503906 16.515625 27.503906 16.515625 C 27.503906 16.515625 27.308594 16.390625 27.035156 16.464844 C 26.757812 16.539062 26.601562 16.566406 26.605469 16.605469 C 26.605469 16.644531 26.640625 16.75 26.640625 16.75 C 26.640625 16.75 27.289062 17.132812 27.367188 17.101562 "/>
<path style=" stroke:none;fill-rule:nonzero;fill:rgb(94.901961%,56.078431%,12.54902%);fill-opacity:1;" d="M 26.796875 16.628906 C 26.828125 16.621094 26.859375 16.613281 26.894531 16.605469 L 27.058594 16.5625 C 27.214844 16.519531 27.335938 16.550781 27.402344 16.578125 C 27.398438 16.609375 27.398438 16.652344 27.402344 16.699219 C 27.40625 16.738281 27.417969 16.777344 27.429688 16.816406 C 27.230469 16.742188 26.976562 16.65625 26.796875 16.628906 "/>
<path style=" stroke:none;fill-rule:nonzero;fill:rgb(0.392157%,0.392157%,0.392157%);fill-opacity:1;" d="M 20.214844 20.910156 C 20.160156 20.828125 20.027344 20.789062 19.976562 20.648438 C 19.949219 20.585938 19.9375 20.507812 19.882812 20.480469 C 19.882812 20.480469 19.667969 20.796875 19.769531 21.269531 C 19.988281 21.320312 20.207031 21.105469 20.207031 21.105469 C 20.207031 21.105469 20.25 20.964844 20.214844 20.910156 "/>
<path style=" stroke:none;fill-rule:nonzero;fill:rgb(94.901961%,56.078431%,12.54902%);fill-opacity:1;" d="M 20.074219 21.054688 L 20.085938 21.042969 L 20.074219 21.027344 C 20.03125 20.960938 19.964844 20.855469 19.910156 20.734375 L 19.890625 20.691406 L 19.878906 20.730469 C 19.851562 20.824219 19.820312 20.96875 19.835938 21.144531 L 19.839844 21.171875 L 19.917969 21.152344 C 19.96875 21.132812 20.019531 21.101562 20.074219 21.054688 "/>
</g>
</svg>
