<?xml version="1.0" encoding="UTF-8"?>
<svg xmlns="http://www.w3.org/2000/svg" xmlns:xlink="http://www.w3.org/1999/xlink" width="21pt" height="20pt" viewBox="0 0 21 20" version="1.1">
<g id="surface1">
<path style=" stroke:none;fill-rule:nonzero;fill:rgb(0%,24.313725%,49.411765%);fill-opacity:1;" d="M 21.011719 9.054688 C 21.011719 6.878906 19.6875 4.734375 17.335938 3.414062 L 16.4375 4.144531 C 18.042969 5.175781 18.988281 6.722656 18.988281 8.472656 C 18.988281 12.558594 14.042969 16.261719 8.539062 16.261719 C 7.976562 16.261719 7.421875 16.21875 6.886719 16.140625 L 5.027344 17.542969 C 6.199219 17.949219 7.507812 18.164062 8.878906 18.164062 C 15.410156 18.164062 21.011719 13.65625 21.011719 9.054688 "/>
<path style=" stroke:none;fill-rule:nonzero;fill:rgb(0%,24.313725%,49.411765%);fill-opacity:1;" d="M 12.703125 10.574219 L 9.34375 11.246094 L 16.796875 4.988281 L 13.328125 5.464844 L 20.074219 0 L 12.21875 2.109375 C 12.117188 2.109375 12.011719 2.105469 11.90625 2.105469 C 5.46875 2.105469 0 6.574219 0 11.289062 C 0 13.601562 1.21875 15.441406 3.109375 16.632812 L 0.207031 20.023438 Z M 0.898438 10.589844 C 0.898438 6.363281 6.078125 2.800781 11.347656 2.800781 C 11.382812 2.800781 11.417969 2.800781 11.457031 2.800781 L 6.359375 8.625 L 9.289062 8.152344 L 3.515625 13.855469 L 5.859375 13.421875 L 4.222656 15.332031 C 2.234375 14.371094 0.898438 12.714844 0.898438 10.589844 "/>
</g>
</svg>
