<?xml version="1.0" encoding="UTF-8"?>
<svg xmlns="http://www.w3.org/2000/svg" xmlns:xlink="http://www.w3.org/1999/xlink" width="28pt" height="20pt" viewBox="0 0 28 20" version="1.1">
<g id="surface1">
<path style=" stroke:none;fill-rule:nonzero;fill:rgb(0%,24.313725%,49.411765%);fill-opacity:1;" d="M 24.71875 9.046875 C 24.71875 6.871094 23.367188 4.726562 20.96875 3.410156 L 20.050781 4.140625 C 21.6875 5.171875 22.652344 6.714844 22.652344 8.464844 C 22.652344 12.546875 17.609375 16.242188 11.992188 16.242188 C 11.417969 16.242188 10.851562 16.199219 10.304688 16.121094 L 8.410156 17.523438 C 9.609375 17.925781 10.941406 18.140625 12.335938 18.140625 C 19.003906 18.140625 24.71875 13.640625 24.71875 9.046875 "/>
<path style=" stroke:none;fill-rule:nonzero;fill:rgb(0%,24.313725%,49.411765%);fill-opacity:1;" d="M 16.242188 10.5625 L 12.8125 11.234375 L 20.417969 4.984375 L 16.875 5.457031 L 23.757812 0 L 15.746094 2.109375 C 15.640625 2.105469 15.535156 2.105469 15.429688 2.105469 C 8.863281 2.105469 3.28125 6.566406 3.28125 11.273438 C 3.28125 13.585938 4.527344 15.421875 6.453125 16.613281 L 3.492188 20 Z M 4.195312 10.578125 C 4.195312 6.355469 9.480469 2.796875 14.855469 2.796875 C 14.894531 2.796875 14.929688 2.800781 14.96875 2.800781 L 9.769531 8.613281 L 12.757812 8.140625 L 6.871094 13.839844 L 9.257812 13.40625 L 7.589844 15.316406 C 5.5625 14.355469 4.195312 12.699219 4.195312 10.578125 "/>
</g>
</svg>
