<?xml version="1.0" encoding="UTF-8"?>
<svg xmlns="http://www.w3.org/2000/svg" xmlns:xlink="http://www.w3.org/1999/xlink" width="19pt" height="20pt" viewBox="0 0 19 20" version="1.1">
<g id="surface1">
<path style=" stroke:none;fill-rule:nonzero;fill:rgb(100%,100%,100%);fill-opacity:1;" d="M 3.453125 8.5625 L 15.648438 8.5625 L 14.367188 15.472656 L 4.601562 15.472656 Z M 3.453125 8.5625 "/>
<path style=" stroke:none;fill-rule:evenodd;fill:rgb(0%,21.960784%,46.27451%);fill-opacity:1;" d="M 7.441406 9.207031 C 7.601562 9.207031 7.765625 9.28125 7.765625 9.480469 C 7.769531 9.644531 7.648438 9.75 7.441406 9.753906 C 7.441406 9.574219 7.441406 9.390625 7.441406 9.207031 Z M 7.441406 9.207031 "/>
<path style=" stroke:none;fill-rule:evenodd;fill:rgb(0%,21.960784%,46.27451%);fill-opacity:1;" d="M 10.019531 11.40625 C 10.460938 11.40625 10.464844 11.902344 10.015625 11.902344 Z M 10.019531 11.40625 "/>
<path style=" stroke:none;fill-rule:evenodd;fill:rgb(0%,21.960784%,46.27451%);fill-opacity:1;" d="M 8.464844 11.53125 L 8.640625 12.121094 L 8.296875 12.121094 Z M 8.464844 11.53125 "/>
<path style=" stroke:none;fill-rule:evenodd;fill:rgb(0%,21.960784%,46.27451%);fill-opacity:1;" d="M 9.546875 13.824219 L 9.742188 14.433594 L 9.378906 14.429688 Z M 9.546875 13.824219 "/>
<path style=" stroke:none;fill-rule:evenodd;fill:rgb(0%,21.960784%,46.27451%);fill-opacity:1;" d="M 18.011719 10.507812 C 18.320312 9.3125 18.761719 7.886719 19.019531 6.769531 C 17.785156 6.503906 16.394531 6.390625 15.132812 6.148438 C 14.316406 6.554688 13.503906 7.164062 12.742188 7.503906 C 13.117188 5.855469 13.527344 4.183594 13.910156 2.539062 C 13.535156 2.5625 13.226562 2.585938 12.863281 2.519531 C 12.28125 2.417969 11.53125 1.675781 11.113281 1.335938 C 10.523438 0.863281 9.5 0 9.5 0 C 9.5 0 7.953125 1.300781 7.136719 1.96875 C 6.625 2.386719 6.164062 2.679688 5.121094 2.554688 C 5.480469 4.21875 6.277344 7.464844 6.277344 7.464844 C 6.277344 7.464844 4.585938 6.535156 3.921875 6.148438 C 2.636719 6.359375 1.3125 6.539062 0 6.734375 C 0.238281 7.867188 0.683594 9.246094 1.007812 10.507812 C 1.121094 10.945312 1.300781 11.492188 1.234375 11.867188 C 1.171875 12.222656 0.882812 12.367188 0.671875 12.707031 C 1.132812 12.984375 1.738281 13.230469 2.394531 13.570312 C 2.910156 13.835938 3.8125 14.191406 3.886719 14.761719 C 3.9375 15.140625 3.703125 15.464844 3.550781 15.789062 C 3.402344 16.101562 3.246094 16.402344 3.078125 16.703125 L 8.410156 16.703125 L 8.410156 19.96875 L 10.613281 19.96875 L 10.613281 16.703125 L 15.957031 16.703125 C 15.761719 16.40625 15.582031 16.105469 15.433594 15.789062 C 15.285156 15.464844 15.078125 15.082031 15.132812 14.726562 C 15.226562 14.164062 16.128906 13.886719 16.628906 13.625 C 17.253906 13.296875 17.835938 12.976562 18.347656 12.746094 C 18.222656 12.382812 17.851562 12.242188 17.789062 11.867188 C 17.722656 11.484375 17.898438 10.949219 18.011719 10.507812 Z M 12.121094 12.351562 L 12.007812 12.804688 C 12.007812 12.804688 11.359375 12.804688 11.035156 12.804688 C 11.035156 12.207031 11.023438 11.058594 11.023438 11.058594 L 11.511719 11.054688 L 11.511719 12.355469 Z M 10.464844 8.898438 L 10.976562 8.894531 L 11.585938 9.777344 L 11.585938 8.894531 L 12.03125 8.894531 L 12.03125 10.65625 L 11.578125 10.65625 L 10.949219 9.75 L 10.949219 10.65625 L 10.464844 10.65625 Z M 9.359375 8.824219 C 9.882812 8.824219 10.308594 9.238281 10.308594 9.75 C 10.308594 10.265625 9.882812 10.679688 9.359375 10.679688 C 8.839844 10.679688 8.414062 10.265625 8.414062 9.75 C 8.414062 9.238281 8.839844 8.824219 9.359375 8.824219 Z M 9.390625 12.804688 C 9.21875 12.804688 8.867188 12.804688 8.867188 12.804688 L 8.757812 12.503906 L 8.191406 12.507812 L 8.09375 12.804688 C 8.09375 12.804688 7.773438 12.804688 7.597656 12.804688 C 7.796875 12.207031 7.957031 11.628906 8.183594 11.058594 L 8.78125 11.058594 C 9 11.640625 9.195312 12.203125 9.390625 12.804688 Z M 4.859375 9.320312 L 4.523438 9.320312 L 4.523438 10.65625 L 4.035156 10.65625 C 4.035156 10.226562 4.035156 9.316406 4.035156 9.316406 L 3.664062 9.3125 L 3.738281 8.894531 C 3.738281 8.894531 4.484375 8.894531 4.859375 8.894531 Z M 4.921875 9.75 C 4.921875 9.238281 5.34375 8.824219 5.867188 8.824219 C 6.390625 8.824219 6.8125 9.238281 6.8125 9.75 C 6.8125 10.265625 6.390625 10.679688 5.867188 10.679688 C 5.34375 10.679688 4.921875 10.265625 4.921875 9.75 Z M 7.199219 15.101562 L 6.203125 15.101562 C 6.203125 15.101562 6.203125 13.953125 6.203125 13.367188 L 6.6875 13.367188 C 6.6875 13.808594 6.6875 14.6875 6.6875 14.6875 L 7.304688 14.6875 Z M 6.886719 12.804688 L 6.804688 11.996094 L 6.433594 12.796875 L 6.039062 12.007812 L 5.917969 12.804688 L 5.46875 12.804688 L 5.695312 11.058594 L 6.128906 11.058594 L 6.425781 11.828125 L 6.726562 11.058594 L 7.175781 11.058594 L 7.375 12.804688 Z M 6.988281 10.65625 L 6.988281 8.894531 C 7.828125 8.878906 8.203125 8.871094 8.203125 9.464844 C 8.203125 9.644531 8.109375 9.78125 7.914062 9.867188 C 8.03125 10.105469 8.269531 10.65625 8.269531 10.65625 L 7.734375 10.65625 L 7.433594 9.867188 L 7.4375 10.65625 C 7.4375 10.65625 7.136719 10.65625 6.988281 10.65625 Z M 8.449219 15.101562 L 7.546875 15.101562 L 7.546875 13.367188 L 8.445312 13.367188 L 8.535156 13.742188 L 7.996094 13.742188 L 7.996094 14.039062 L 8.367188 14.039062 L 8.371094 14.394531 L 7.996094 14.394531 L 7.996094 14.699219 L 8.570312 14.695312 Z M 9.929688 15.101562 L 9.851562 14.832031 L 9.261719 14.832031 L 9.175781 15.105469 L 8.683594 15.101562 L 9.257812 13.367188 L 9.867188 13.367188 L 10.453125 15.101562 Z M 10.015625 12.257812 L 10.027344 12.804688 L 9.539062 12.804688 C 9.539062 12.804688 9.527344 11.667969 9.527344 11.09375 C 10.25 11.09375 10.78125 11.003906 10.78125 11.652344 C 10.78125 12.019531 10.65625 12.265625 10.015625 12.257812 Z M 11.433594 14.113281 L 11.433594 14.511719 L 11.097656 14.507812 L 11.097656 15.101562 L 10.632812 15.101562 C 10.632812 15.101562 10.636719 13.953125 10.636719 13.367188 L 11.472656 13.367188 C 11.523438 13.503906 11.585938 13.773438 11.585938 13.773438 L 11.097656 13.773438 L 11.097656 14.113281 Z M 11.769531 15.113281 L 11.769531 14.6875 C 11.769531 14.6875 12.445312 14.832031 12.449219 14.59375 C 12.453125 14.429688 12.21875 14.398438 12.035156 14.3125 C 11.824219 14.210938 11.757812 14.0625 11.757812 13.882812 C 11.757812 13.441406 12.085938 13.304688 12.464844 13.304688 C 12.609375 13.304688 12.675781 13.324219 12.859375 13.351562 C 12.859375 13.496094 12.855469 13.628906 12.855469 13.777344 C 12.667969 13.695312 12.214844 13.660156 12.214844 13.867188 C 12.214844 14.074219 12.898438 14.054688 12.953125 14.519531 C 13.015625 15.035156 12.503906 15.191406 11.769531 15.113281 Z M 13.316406 12.804688 L 12.34375 12.804688 L 12.332031 11.058594 L 13.265625 11.058594 L 13.339844 11.457031 L 12.816406 11.457031 L 12.816406 11.734375 L 13.179688 11.734375 L 13.179688 12.097656 L 12.816406 12.097656 L 12.816406 12.398438 L 13.390625 12.398438 Z M 13.414062 9.335938 L 13.078125 9.335938 L 13.078125 10.65625 L 12.59375 10.65625 C 12.59375 10.226562 12.59375 9.335938 12.59375 9.335938 L 12.21875 9.335938 L 12.3125 8.894531 C 12.3125 8.894531 13.042969 8.894531 13.414062 8.894531 Z M 14.433594 10.679688 C 13.910156 10.679688 13.488281 10.265625 13.488281 9.75 C 13.488281 9.238281 13.910156 8.824219 14.433594 8.824219 C 14.957031 8.824219 15.378906 9.238281 15.378906 9.75 C 15.378906 10.265625 14.957031 10.679688 14.433594 10.679688 Z M 14.433594 10.679688 "/>
<path style=" stroke:none;fill-rule:evenodd;fill:rgb(0%,21.960784%,46.27451%);fill-opacity:1;" d="M 6.34375 9.757812 C 6.34375 9.488281 6.132812 9.273438 5.871094 9.273438 C 5.609375 9.273438 5.398438 9.488281 5.398438 9.757812 C 5.398438 10.023438 5.609375 10.238281 5.871094 10.238281 C 6.132812 10.238281 6.34375 10.023438 6.34375 9.757812 Z M 6.34375 9.757812 "/>
<path style=" stroke:none;fill-rule:evenodd;fill:rgb(0%,21.960784%,46.27451%);fill-opacity:1;" d="M 9.835938 9.757812 C 9.835938 9.488281 9.625 9.273438 9.367188 9.273438 C 9.105469 9.273438 8.894531 9.488281 8.894531 9.757812 C 8.894531 10.023438 9.105469 10.238281 9.367188 10.238281 C 9.625 10.238281 9.835938 10.023438 9.835938 9.757812 Z M 9.835938 9.757812 "/>
<path style=" stroke:none;fill-rule:evenodd;fill:rgb(0%,21.960784%,46.27451%);fill-opacity:1;" d="M 14.902344 9.757812 C 14.902344 9.488281 14.691406 9.273438 14.429688 9.273438 C 14.167969 9.273438 13.957031 9.488281 13.957031 9.757812 C 13.957031 10.023438 14.167969 10.238281 14.429688 10.238281 C 14.691406 10.238281 14.902344 10.023438 14.902344 9.757812 Z M 14.902344 9.757812 "/>
</g>
</svg>
