<?xml version="1.0" encoding="UTF-8"?>
<svg xmlns="http://www.w3.org/2000/svg" xmlns:xlink="http://www.w3.org/1999/xlink" width="28pt" height="20pt" viewBox="0 0 28 20" version="1.1">
<g id="surface1">
<path style=" stroke:none;fill-rule:nonzero;fill:rgb(100%,100%,100%);fill-opacity:1;" d="M 8.046875 8.574219 L 20.03125 8.574219 L 18.773438 15.496094 L 9.175781 15.496094 Z M 8.046875 8.574219 "/>
<path style=" stroke:none;fill-rule:nonzero;fill:rgb(0%,21.960784%,46.27451%);fill-opacity:1;" d="M 11.964844 9.222656 C 12.125 9.222656 12.285156 9.296875 12.285156 9.496094 C 12.289062 9.660156 12.171875 9.765625 11.964844 9.773438 C 11.964844 9.589844 11.964844 9.40625 11.964844 9.222656 Z M 11.964844 9.222656 "/>
<path style=" stroke:none;fill-rule:nonzero;fill:rgb(0%,21.960784%,46.27451%);fill-opacity:1;" d="M 14.5 11.425781 C 14.933594 11.425781 14.941406 11.921875 14.496094 11.921875 Z M 14.5 11.425781 "/>
<path style=" stroke:none;fill-rule:nonzero;fill:rgb(0%,21.960784%,46.27451%);fill-opacity:1;" d="M 12.972656 11.550781 L 13.144531 12.140625 L 12.808594 12.140625 Z M 12.972656 11.550781 "/>
<path style=" stroke:none;fill-rule:nonzero;fill:rgb(0%,21.960784%,46.27451%);fill-opacity:1;" d="M 14.035156 13.847656 L 14.226562 14.457031 L 13.871094 14.457031 Z M 14.035156 13.847656 "/>
<path style=" stroke:none;fill-rule:nonzero;fill:rgb(0%,21.960784%,46.27451%);fill-opacity:1;" d="M 22.355469 10.527344 C 22.65625 9.328125 23.089844 7.902344 23.34375 6.78125 C 22.132812 6.515625 20.761719 6.402344 19.527344 6.15625 C 18.722656 6.566406 17.925781 7.175781 17.175781 7.515625 C 17.542969 5.863281 17.945312 4.191406 18.320312 2.546875 C 17.957031 2.566406 17.652344 2.589844 17.292969 2.523438 C 16.722656 2.421875 15.984375 1.679688 15.574219 1.339844 C 14.996094 0.863281 13.992188 0 13.992188 0 C 13.992188 0 12.46875 1.304688 11.667969 1.96875 C 11.164062 2.390625 10.710938 2.683594 9.683594 2.558594 C 10.039062 4.222656 10.824219 7.480469 10.824219 7.480469 C 10.824219 7.480469 9.164062 6.546875 8.511719 6.15625 C 7.242188 6.371094 5.941406 6.550781 4.65625 6.746094 C 4.886719 7.878906 5.324219 9.261719 5.648438 10.527344 C 5.757812 10.960938 5.929688 11.511719 5.867188 11.886719 C 5.804688 12.242188 5.523438 12.386719 5.316406 12.730469 C 5.765625 13.003906 6.363281 13.253906 7.007812 13.59375 C 7.515625 13.859375 8.398438 14.214844 8.472656 14.785156 C 8.523438 15.167969 8.292969 15.492188 8.144531 15.8125 C 7.996094 16.125 7.84375 16.429688 7.679688 16.730469 L 12.917969 16.730469 L 12.917969 20 L 15.082031 20 L 15.082031 16.730469 L 20.332031 16.730469 C 20.140625 16.433594 19.964844 16.132812 19.820312 15.8125 C 19.671875 15.488281 19.46875 15.109375 19.527344 14.75 C 19.617188 14.1875 20.503906 13.910156 20.996094 13.648438 C 21.609375 13.320312 22.179688 13 22.683594 12.765625 C 22.558594 12.402344 22.199219 12.261719 22.132812 11.886719 C 22.070312 11.503906 22.242188 10.96875 22.355469 10.527344 Z M 16.566406 12.371094 L 16.453125 12.828125 C 16.453125 12.828125 15.816406 12.828125 15.5 12.828125 C 15.5 12.226562 15.488281 11.078125 15.488281 11.078125 L 15.964844 11.074219 L 15.964844 12.375 Z M 14.9375 8.910156 L 15.441406 8.910156 L 16.039062 9.792969 L 16.039062 8.910156 L 16.476562 8.910156 L 16.476562 10.671875 L 16.03125 10.671875 L 15.414062 9.765625 L 15.414062 10.671875 L 14.9375 10.671875 Z M 13.851562 8.835938 C 14.367188 8.835938 14.785156 9.253906 14.785156 9.765625 C 14.785156 10.28125 14.367188 10.699219 13.851562 10.699219 C 13.339844 10.699219 12.921875 10.28125 12.921875 9.765625 C 12.921875 9.253906 13.339844 8.835938 13.851562 8.835938 Z M 13.882812 12.828125 C 13.710938 12.828125 13.367188 12.828125 13.367188 12.828125 L 13.257812 12.527344 L 12.707031 12.527344 L 12.609375 12.828125 C 12.609375 12.828125 12.292969 12.828125 12.121094 12.828125 C 12.316406 12.226562 12.472656 11.648438 12.695312 11.078125 L 13.285156 11.078125 C 13.496094 11.660156 13.691406 12.222656 13.882812 12.828125 Z M 9.429688 9.335938 L 9.097656 9.335938 L 9.097656 10.671875 L 8.621094 10.671875 C 8.621094 10.246094 8.621094 9.332031 8.621094 9.332031 L 8.253906 9.328125 L 8.328125 8.910156 C 8.328125 8.910156 9.0625 8.910156 9.429688 8.910156 Z M 9.488281 9.765625 C 9.488281 9.253906 9.90625 8.835938 10.421875 8.835938 C 10.933594 8.835938 11.351562 9.253906 11.351562 9.765625 C 11.351562 10.28125 10.933594 10.699219 10.421875 10.699219 C 9.90625 10.699219 9.488281 10.28125 9.488281 9.765625 Z M 11.730469 15.128906 L 10.75 15.128906 C 10.75 15.128906 10.75 13.976562 10.75 13.390625 L 11.226562 13.390625 C 11.226562 13.832031 11.226562 14.710938 11.226562 14.710938 L 11.832031 14.710938 Z M 11.421875 12.828125 L 11.339844 12.015625 L 10.976562 12.820312 L 10.585938 12.027344 L 10.46875 12.828125 L 10.027344 12.828125 L 10.25 11.078125 L 10.675781 11.078125 L 10.96875 11.847656 L 11.265625 11.078125 L 11.703125 11.078125 L 11.898438 12.828125 Z M 11.523438 10.671875 L 11.523438 8.910156 C 12.34375 8.894531 12.71875 8.882812 12.71875 9.480469 C 12.71875 9.660156 12.621094 9.796875 12.429688 9.882812 C 12.546875 10.121094 12.78125 10.675781 12.78125 10.675781 L 12.257812 10.671875 L 11.960938 9.882812 L 11.960938 10.671875 C 11.960938 10.671875 11.667969 10.671875 11.523438 10.671875 Z M 12.957031 15.128906 L 12.074219 15.125 L 12.074219 13.390625 L 12.953125 13.390625 L 13.042969 13.765625 L 12.511719 13.765625 L 12.511719 14.0625 L 12.875 14.0625 L 12.878906 14.417969 L 12.511719 14.417969 L 12.511719 14.722656 L 13.074219 14.71875 Z M 14.410156 15.128906 L 14.332031 14.859375 L 13.753906 14.859375 L 13.671875 15.132812 L 13.1875 15.128906 L 13.753906 13.390625 L 14.347656 13.390625 L 14.925781 15.128906 Z M 14.496094 12.277344 L 14.507812 12.828125 L 14.03125 12.828125 C 14.03125 12.828125 14.019531 11.6875 14.019531 11.113281 C 14.726562 11.113281 15.25 11.019531 15.25 11.671875 C 15.25 12.039062 15.125 12.289062 14.496094 12.277344 Z M 15.890625 14.136719 L 15.890625 14.535156 L 15.5625 14.53125 L 15.5625 15.128906 L 15.101562 15.128906 C 15.101562 15.128906 15.105469 13.976562 15.105469 13.390625 L 15.929688 13.390625 C 15.976562 13.523438 16.039062 13.796875 16.039062 13.796875 L 15.5625 13.796875 L 15.5625 14.136719 Z M 16.222656 15.140625 L 16.222656 14.710938 C 16.222656 14.710938 16.882812 14.855469 16.886719 14.617188 C 16.890625 14.453125 16.660156 14.421875 16.480469 14.335938 C 16.273438 14.234375 16.207031 14.085938 16.207031 13.90625 C 16.207031 13.460938 16.53125 13.324219 16.902344 13.324219 C 17.046875 13.324219 17.113281 13.347656 17.289062 13.371094 C 17.289062 13.519531 17.285156 13.652344 17.285156 13.800781 C 17.101562 13.714844 16.65625 13.679688 16.65625 13.890625 C 16.65625 14.097656 17.328125 14.078125 17.382812 14.546875 C 17.445312 15.058594 16.941406 15.214844 16.222656 15.140625 Z M 17.738281 12.828125 L 16.785156 12.828125 L 16.773438 11.078125 L 17.691406 11.078125 L 17.765625 11.476562 L 17.25 11.476562 L 17.25 11.753906 L 17.605469 11.753906 L 17.605469 12.117188 L 17.25 12.117188 L 17.25 12.417969 L 17.8125 12.417969 Z M 17.835938 9.351562 L 17.507812 9.351562 L 17.507812 10.671875 L 17.03125 10.671875 C 17.03125 10.246094 17.03125 9.351562 17.03125 9.351562 L 16.664062 9.351562 L 16.75 8.910156 C 16.75 8.910156 17.46875 8.910156 17.835938 8.910156 Z M 18.839844 10.699219 C 18.324219 10.699219 17.90625 10.28125 17.90625 9.765625 C 17.90625 9.253906 18.324219 8.835938 18.839844 8.835938 C 19.351562 8.835938 19.769531 9.253906 19.769531 9.765625 C 19.769531 10.28125 19.351562 10.699219 18.839844 10.699219 Z M 18.839844 10.699219 "/>
<path style=" stroke:none;fill-rule:nonzero;fill:rgb(0%,21.960784%,46.27451%);fill-opacity:1;" d="M 10.886719 9.773438 C 10.886719 9.507812 10.679688 9.289062 10.425781 9.289062 C 10.167969 9.289062 9.960938 9.507812 9.960938 9.773438 C 9.960938 10.039062 10.167969 10.253906 10.425781 10.253906 C 10.679688 10.253906 10.886719 10.039062 10.886719 9.773438 Z M 10.886719 9.773438 "/>
<path style=" stroke:none;fill-rule:nonzero;fill:rgb(0%,21.960784%,46.27451%);fill-opacity:1;" d="M 14.320312 9.773438 C 14.320312 9.507812 14.113281 9.289062 13.859375 9.289062 C 13.601562 9.289062 13.394531 9.507812 13.394531 9.773438 C 13.394531 10.039062 13.601562 10.253906 13.859375 10.253906 C 14.113281 10.253906 14.320312 10.039062 14.320312 9.773438 Z M 14.320312 9.773438 "/>
<path style=" stroke:none;fill-rule:nonzero;fill:rgb(0%,21.960784%,46.27451%);fill-opacity:1;" d="M 19.296875 9.773438 C 19.296875 9.507812 19.089844 9.289062 18.832031 9.289062 C 18.578125 9.289062 18.371094 9.507812 18.371094 9.773438 C 18.371094 10.039062 18.578125 10.253906 18.832031 10.253906 C 19.089844 10.253906 19.296875 10.039062 19.296875 9.773438 Z M 19.296875 9.773438 "/>
</g>
</svg>
