<?xml version="1.0" encoding="UTF-8"?>
<svg xmlns="http://www.w3.org/2000/svg" xmlns:xlink="http://www.w3.org/1999/xlink" width="28pt" height="20pt" viewBox="0 0 28 20" version="1.1">
<g id="surface1">
<path style=" stroke:none;fill-rule:nonzero;fill:rgb(100%,100%,100%);fill-opacity:1;" d="M 20.3125 14.976562 L 18.648438 14.976562 L 18.652344 14.960938 L 21.253906 9.011719 L 22.953125 9.011719 Z M 9.269531 12.792969 L 9.703125 11.847656 L 9.910156 12.792969 Z M 24.507812 14.976562 L 24.511719 14.960938 L 27.476562 8.179688 L 27.617188 7.859375 L 13.769531 7.859375 L 13.703125 7.976562 L 13.316406 8.667969 L 13.125 9.011719 L 17.09375 9.011719 L 14.683594 14.453125 L 12.738281 8.023438 L 12.6875 7.859375 L 11.609375 7.859375 L 11.613281 7.859375 L 9.898438 7.859375 L 9.839844 8 L 6.359375 15.9375 L 6.21875 16.261719 L 7.832031 16.261719 L 7.890625 16.113281 L 8.65625 14.175781 L 10.226562 14.175781 L 10.792969 16.097656 L 10.84375 16.261719 L 14.152344 16.261719 L 14.148438 16.257812 L 27.445312 16.257812 L 27.503906 16.121094 L 27.859375 15.296875 L 28 14.976562 Z M 24.507812 14.976562 "/>
<path style=" stroke:none;fill-rule:nonzero;fill:rgb(100%,100%,100%);fill-opacity:1;" d="M 10.03125 3.636719 L 9.96875 3.773438 C 9.742188 4.285156 7.15625 10.035156 7.128906 10.09375 C 7.070312 10.21875 6.980469 10.324219 6.902344 10.394531 C 6.855469 10.332031 6.808594 10.269531 6.761719 10.210938 C 6.71875 10.15625 6.675781 10.109375 6.628906 10.058594 C 6.628906 10.054688 6.625 10.050781 6.621094 10.046875 C 6.597656 10.023438 6.574219 9.996094 6.550781 9.972656 L 6.488281 9.910156 L 6.339844 9.765625 L 6.335938 9.769531 C 5.660156 9.175781 4.777344 8.816406 3.804688 8.816406 C 1.703125 8.816406 0 10.503906 0 12.589844 C 0 14.671875 1.703125 16.363281 3.804688 16.363281 C 5.910156 16.363281 7.613281 14.671875 7.613281 12.589844 C 7.613281 12.539062 7.609375 12.488281 7.609375 12.441406 C 7.988281 11.59375 9.609375 8.035156 9.699219 7.804688 C 9.773438 7.605469 9.820312 7.519531 10.203125 7.484375 C 10.296875 7.476562 10.796875 7.464844 13.078125 7.464844 C 14.460938 7.464844 15.976562 7.46875 16.28125 7.472656 L 17.507812 7.472656 L 17.566406 7.335938 L 19.003906 3.960938 L 19.140625 3.640625 L 10.03125 3.640625 Z M 10.03125 3.636719 "/>
<path style=" stroke:none;fill-rule:nonzero;fill:rgb(4.705882%,13.72549%,25.098039%);fill-opacity:1;" d="M 8.902344 13.023438 L 9.777344 11.121094 L 10.1875 13.023438 Z M 11.449219 8.113281 L 10.035156 8.113281 L 6.566406 16.027344 L 7.667969 16.027344 L 8.492188 13.945312 L 10.394531 13.945312 L 11.007812 16.027344 L 13.835938 16.027344 Z M 11.449219 8.113281 "/>
<path style=" stroke:none;fill-rule:nonzero;fill:rgb(4.705882%,13.72549%,25.098039%);fill-opacity:1;" d="M 20.328125 8.089844 L 13.90625 8.089844 L 13.519531 8.78125 L 17.449219 8.78125 L 14.238281 16.027344 L 19.738281 16.027344 L 20.097656 15.207031 L 17.222656 15.207031 Z M 20.328125 8.089844 "/>
<path style=" stroke:none;fill-rule:nonzero;fill:rgb(0%,27.843137%,10.588235%);fill-opacity:1;" d="M 21.40625 8.089844 L 20.816406 8.089844 L 17.785156 14.867188 L 18.503906 14.867188 Z M 21.40625 8.089844 "/>
<path style=" stroke:none;fill-rule:nonzero;fill:rgb(4.705882%,13.72549%,25.098039%);fill-opacity:1;" d="M 26.1875 8.089844 L 21.820312 8.089844 L 21.484375 8.785156 L 23.308594 8.785156 L 20.097656 16.027344 L 27.292969 16.027344 L 27.648438 15.207031 L 23.078125 15.207031 Z M 26.1875 8.089844 "/>
<path style=" stroke:none;fill-rule:nonzero;fill:rgb(0%,27.843137%,10.588235%);fill-opacity:1;" d="M 27.265625 8.089844 L 26.675781 8.089844 L 23.710938 14.871094 L 24.300781 14.871094 Z M 27.265625 8.089844 "/>
<path style=" stroke:none;fill-rule:nonzero;fill:rgb(100%,100%,100%);fill-opacity:1;" d="M 7.390625 12.585938 C 7.390625 14.535156 5.792969 16.121094 3.824219 16.121094 C 1.855469 16.121094 0.261719 14.535156 0.261719 12.585938 C 0.261719 10.632812 1.855469 9.050781 3.824219 9.050781 C 5.792969 9.050781 7.390625 10.632812 7.390625 12.585938 "/>
<path style=" stroke:none;fill-rule:nonzero;fill:rgb(4.705882%,13.72549%,25.098039%);fill-opacity:1;" d="M 2.53125 12.46875 C 2.46875 11.535156 2.019531 10.640625 1.328125 10.0625 C 1.296875 10.089844 1.246094 10.144531 1.25 10.144531 C 0.675781 10.726562 0.304688 11.511719 0.261719 12.46875 Z M 2.53125 12.46875 "/>
<path style=" stroke:none;fill-rule:nonzero;fill:rgb(4.705882%,13.72549%,25.098039%);fill-opacity:1;" d="M 1.0625 14.820312 L 1.226562 15.011719 L 1.378906 15.15625 C 2.023438 14.609375 2.449219 13.714844 2.527344 12.785156 L 0.265625 12.785156 C 0.300781 13.582031 0.640625 14.328125 1.0625 14.820312 "/>
<path style=" stroke:none;fill-rule:nonzero;fill:rgb(97.647059%,62.745098%,10.588235%);fill-opacity:1;" d="M 1.550781 9.855469 L 1.527344 9.875 L 1.511719 9.894531 L 1.5 9.902344 C 2.269531 10.554688 2.710938 11.46875 2.757812 12.464844 L 3.632812 12.464844 L 3.632812 9.054688 C 2.761719 9.105469 2.074219 9.410156 1.550781 9.855469 M 1.570312 15.320312 C 2.171875 15.816406 2.976562 16.101562 3.632812 16.117188 L 3.632812 12.769531 L 2.761719 12.769531 C 2.726562 13.753906 2.308594 14.667969 1.570312 15.320312 "/>
<path style=" stroke:none;fill-rule:nonzero;fill:rgb(4.705882%,13.72549%,25.098039%);fill-opacity:1;" d="M 6.265625 15.167969 L 6.402344 15.03125 C 6.402344 15.03125 6.457031 14.972656 6.535156 14.886719 C 7.03125 14.320312 7.34375 13.570312 7.386719 12.785156 L 5.128906 12.785156 C 5.207031 13.722656 5.621094 14.617188 6.265625 15.167969 "/>
<path style=" stroke:none;fill-rule:nonzero;fill:rgb(0%,27.843137%,10.588235%);fill-opacity:1;" d="M 4.828125 12.773438 L 3.9375 12.773438 L 3.9375 16.117188 C 4.636719 16.085938 5.371094 15.886719 6.046875 15.351562 C 5.308594 14.691406 4.863281 13.757812 4.828125 12.773438 M 6.105469 9.894531 L 6.117188 9.878906 L 6.109375 9.867188 L 6.078125 9.84375 C 5.546875 9.394531 4.753906 9.078125 3.9375 9.050781 L 3.9375 12.46875 L 4.832031 12.46875 C 4.882812 11.46875 5.339844 10.542969 6.105469 9.894531 "/>
<path style=" stroke:none;fill-rule:nonzero;fill:rgb(0%,27.843137%,10.588235%);fill-opacity:1;" d="M 12.515625 8.089844 L 11.921875 8.089844 L 14.132812 15.390625 L 14.484375 14.589844 Z M 12.515625 8.089844 "/>
<path style=" stroke:none;fill-rule:nonzero;fill:rgb(4.705882%,13.72549%,25.098039%);fill-opacity:1;" d="M 10.179688 3.867188 C 9.953125 4.382812 7.339844 10.1875 7.339844 10.1875 C 7.195312 10.5 6.910156 10.683594 6.894531 10.695312 L 6.859375 10.71875 L 6.792969 10.617188 C 6.664062 10.417969 6.542969 10.28125 6.390625 10.128906 L 6.332031 10.066406 C 5.640625 10.644531 5.1875 11.535156 5.125 12.46875 L 7.386719 12.46875 C 7.386719 12.40625 7.386719 12.371094 7.386719 12.371094 L 7.386719 12.34375 C 7.410156 12.296875 9.378906 7.992188 9.480469 7.722656 C 9.589844 7.4375 9.71875 7.296875 10.183594 7.253906 C 10.597656 7.21875 15.71875 7.234375 16.28125 7.242188 L 17.71875 3.867188 Z M 10.179688 3.867188 "/>
<path style=" stroke:none;fill-rule:nonzero;fill:rgb(0%,27.843137%,10.588235%);fill-opacity:1;" d="M 18.792969 3.867188 L 18.199219 3.867188 L 16.765625 7.242188 L 17.355469 7.242188 Z M 18.792969 3.867188 "/>
</g>
</svg>
