<?xml version="1.0" encoding="UTF-8"?>
<svg xmlns="http://www.w3.org/2000/svg" xmlns:xlink="http://www.w3.org/1999/xlink" width="39pt" height="25pt" viewBox="0 0 39 25" version="1.1">
<g id="surface1">
<path style=" stroke:none;fill-rule:nonzero;fill:rgb(100%,100%,100%);fill-opacity:1;" d="M 6.234375 11.335938 C 6.234375 11.335938 6.429688 8.894531 7.246094 8.894531 L 8.746094 8.894531 C 8.746094 8.894531 8.894531 5.441406 10.1875 5.441406 L 25.105469 5.441406 L 27.363281 0.207031 L 29.777344 0.207031 L 25.117188 11.335938 L 28.050781 11.335938 C 29.285156 11.335938 29.875 12.273438 29.875 12.273438 L 32.289062 6.414062 L 34.734375 6.414062 L 32.535156 11.742188 C 32.535156 11.742188 33.273438 11.34375 33.65625 11.34375 L 38.828125 11.34375 L 37.964844 13.40625 L 37.167969 13.40625 C 37.167969 13.40625 37.613281 13.84375 37.613281 14.449219 C 37.613281 15.351562 36.757812 16.511719 35.660156 16.511719 L 25.203125 16.511719 C 24.234375 16.511719 23.460938 15.746094 23.46875 15.199219 L 22.242188 18.183594 C 22.242188 18.183594 22.183594 18.285156 22.183594 18.492188 C 22.183594 18.699219 22.207031 18.71875 22.242188 18.753906 L 24.929688 21.035156 L 26.304688 19.351562 L 30.757812 19.34375 L 28.820312 21.738281 L 25.28125 21.738281 L 23.171875 24.792969 C 23.171875 24.792969 20.636719 20.851562 20.359375 20.382812 C 20.078125 19.917969 19.984375 19.195312 19.984375 18.8125 C 19.984375 17.789062 20.277344 17.109375 20.359375 16.90625 L 20.515625 16.511719 L 13.324219 16.511719 L 12.351562 18.890625 L 9.902344 18.890625 L 10.902344 16.503906 L 7.691406 16.503906 C 6.808594 16.503906 6.292969 15.675781 6.292969 15.675781 C 6.292969 15.675781 5.160156 16.511719 4.308594 16.511719 L 1.847656 16.511719 C 0.8125 16.511719 0.171875 15.582031 0.171875 14.949219 C 0.171875 13.511719 2.371094 11.335938 5.183594 11.335938 Z M 6.234375 11.335938 "/>
<path style=" stroke:none;fill-rule:nonzero;fill:rgb(0%,12.941176%,30.196078%);fill-opacity:1;" d="M 5.039062 12.820312 L 6.523438 12.820312 L 6.898438 11.917969 L 5.285156 11.917969 C 2.921875 11.917969 0.777344 13.6875 0.777344 14.949219 C 0.777344 15.605469 1.515625 15.925781 1.675781 15.925781 L 4.246094 15.925781 C 4.90625 15.925781 6.066406 15.105469 6.066406 15.105469 L 5.152344 14.683594 C 5.152344 14.683594 4.699219 15.011719 4.375 15.011719 L 2.171875 15.011719 C 2.007812 15.011719 1.9375 14.890625 1.9375 14.71875 C 1.9375 14.332031 2.867188 12.820312 5.039062 12.820312 "/>
<path style=" stroke:none;fill-rule:nonzero;fill:rgb(0%,12.941176%,30.196078%);fill-opacity:1;" d="M 9.839844 15.011719 L 7.859375 15.011719 C 7.742188 15.011719 7.726562 14.878906 7.726562 14.804688 C 7.726562 14.726562 7.875 14.277344 8.320312 14.277344 L 10.171875 14.277344 C 10.277344 14.277344 10.660156 14.117188 10.660156 14.117188 C 10.660156 14.117188 10.40625 15.011719 9.839844 15.011719 M 10.605469 11.917969 L 7.589844 11.917969 L 7.21875 12.820312 L 10.4375 12.820312 C 10.941406 12.820312 11 13.019531 11 13.328125 L 8.625 13.328125 C 7.226562 13.328125 6.632812 14.308594 6.632812 14.789062 C 6.632812 15.621094 7.394531 15.921875 7.75 15.921875 L 9.324219 15.921875 C 9.621094 15.921875 9.980469 15.683594 9.980469 15.683594 L 9.886719 15.925781 L 11.035156 15.921875 L 11.933594 13.808594 C 12.011719 13.617188 12.125 13.253906 12.125 13.085938 C 12.125 12.417969 11.582031 11.917969 10.605469 11.917969 "/>
<path style=" stroke:none;fill-rule:nonzero;fill:rgb(0%,12.941176%,30.196078%);fill-opacity:1;" d="M 10.75 18.296875 L 11.871094 15.789062 C 12.023438 15.449219 13 11.917969 16.722656 11.917969 L 19.457031 11.917969 L 18.28125 14.75 C 18.042969 15.320312 17.527344 15.925781 16.945312 15.925781 L 13.527344 15.925781 L 13.902344 15.011719 L 16.632812 15.011719 C 17.046875 15.011719 17.164062 14.691406 17.28125 14.398438 L 17.914062 12.820312 L 16.804688 12.820312 C 15.191406 12.820312 13.859375 13.808594 13.484375 14.691406 L 11.941406 18.296875 Z M 10.75 18.296875 "/>
<path style=" stroke:none;fill-rule:nonzero;fill:rgb(0%,12.941176%,30.196078%);fill-opacity:1;" d="M 19.515625 13.320312 L 18.4375 15.925781 L 19.578125 15.925781 L 20.660156 13.320312 Z M 19.515625 13.320312 "/>
<path style=" stroke:none;fill-rule:nonzero;fill:rgb(0%,12.941176%,30.196078%);fill-opacity:1;" d="M 20.867188 12.820312 L 21.242188 11.917969 L 20.097656 11.917969 L 19.722656 12.820312 Z M 20.867188 12.820312 "/>
<path style=" stroke:none;fill-rule:nonzero;fill:rgb(0%,12.941176%,30.196078%);fill-opacity:1;" d="M 21.703125 11.917969 L 21.339844 12.820312 L 22.703125 12.820312 L 20.871094 17.167969 C 20.738281 17.480469 20.578125 17.925781 20.578125 18.996094 C 20.578125 19.375 20.648438 19.75 20.75 19.910156 C 20.855469 20.070312 23.207031 23.679688 23.207031 23.679688 L 24.699219 21.582031 L 21.761719 19.15625 C 21.675781 19.082031 21.597656 18.890625 21.597656 18.511719 C 21.597656 18.132812 21.671875 18.019531 21.769531 17.777344 L 28.867188 0.777344 L 27.75 0.777344 L 23.109375 11.917969 Z M 21.703125 11.917969 "/>
<path style=" stroke:none;fill-rule:nonzero;fill:rgb(0%,12.941176%,30.196078%);fill-opacity:1;" d="M 27.214844 15.011719 L 25.234375 15.011719 C 25.117188 15.011719 25.101562 14.882812 25.101562 14.804688 C 25.101562 14.726562 25.25 14.28125 25.695312 14.28125 L 27.546875 14.28125 C 27.652344 14.28125 28.035156 14.117188 28.035156 14.117188 C 28.035156 14.117188 27.78125 15.011719 27.214844 15.011719 M 27.980469 11.917969 L 24.582031 11.917969 L 24.210938 12.820312 L 27.8125 12.820312 C 28.316406 12.820312 28.375 13.019531 28.375 13.328125 L 26 13.328125 C 24.601562 13.328125 24.007812 14.3125 24.007812 14.792969 C 24.007812 15.625 24.769531 15.921875 25.125 15.921875 L 26.703125 15.921875 C 26.996094 15.921875 27.355469 15.683594 27.355469 15.683594 L 27.261719 15.925781 L 28.410156 15.925781 L 29.308594 13.808594 C 29.386719 13.621094 29.5 13.253906 29.5 13.085938 C 29.5 12.417969 28.957031 11.917969 27.980469 11.917969 "/>
<path style=" stroke:none;fill-rule:nonzero;fill:rgb(0%,12.941176%,30.196078%);fill-opacity:1;" d="M 30.109375 15.925781 L 33.851562 6.960938 L 32.734375 6.960938 L 29 15.925781 Z M 30.109375 15.925781 "/>
<path style=" stroke:none;fill-rule:nonzero;fill:rgb(0%,12.941176%,30.196078%);fill-opacity:1;" d="M 30.738281 15.925781 L 31.105469 15.011719 C 31.105469 15.011719 35.128906 15.011719 35.390625 15.011719 C 35.65625 15.011719 35.859375 14.753906 35.859375 14.613281 C 35.859375 14.472656 35.777344 14.355469 35.605469 14.355469 L 33.046875 14.355469 C 32.773438 14.355469 32.144531 14.015625 32.144531 13.4375 C 32.144531 12.859375 32.46875 11.917969 34.191406 11.917969 L 37.953125 11.917969 L 37.578125 12.820312 L 33.722656 12.820312 C 33.417969 12.820312 33.246094 13.125 33.246094 13.285156 C 33.246094 13.425781 33.390625 13.492188 33.425781 13.492188 L 35.816406 13.492188 C 36.363281 13.492188 36.957031 13.683594 36.957031 14.441406 C 36.957031 15.199219 36.472656 15.925781 35.285156 15.925781 Z M 30.738281 15.925781 "/>
<path style=" stroke:none;fill-rule:nonzero;fill:rgb(81.176471%,7.45098%,16.862745%);fill-opacity:1;" d="M 28.566406 21.089844 L 29.507812 19.96875 L 26.5625 19.96875 L 25.664062 21.089844 Z M 28.566406 21.089844 "/>
<path style=" stroke:none;fill-rule:nonzero;fill:rgb(81.176471%,7.45098%,16.862745%);fill-opacity:1;" d="M 8.488281 10.578125 L 8.148438 10.578125 L 8.25 9.671875 L 7.496094 10.578125 L 7.148438 10.578125 L 7.207031 9.332031 L 7.535156 9.332031 L 7.5 10.207031 L 8.167969 9.339844 L 8.53125 9.339844 L 8.484375 10.195312 L 9.175781 9.339844 L 9.5 9.339844 Z M 8.488281 10.578125 "/>
<path style=" stroke:none;fill-rule:nonzero;fill:rgb(81.176471%,7.45098%,16.862745%);fill-opacity:1;" d="M 10.160156 10.097656 L 10.15625 9.601562 L 9.675781 10.097656 Z M 10.164062 10.304688 L 9.519531 10.304688 L 9.277344 10.578125 L 8.933594 10.578125 L 10.078125 9.339844 L 10.449219 9.339844 L 10.484375 10.578125 L 10.167969 10.578125 Z M 10.164062 10.304688 "/>
<path style=" stroke:none;fill-rule:nonzero;fill:rgb(81.176471%,7.45098%,16.862745%);fill-opacity:1;" d="M 10.769531 10.175781 L 11.089844 10.164062 C 11.082031 10.242188 11.089844 10.292969 11.113281 10.320312 C 11.15625 10.363281 11.242188 10.386719 11.371094 10.386719 C 11.480469 10.386719 11.5625 10.371094 11.617188 10.339844 C 11.671875 10.3125 11.703125 10.277344 11.710938 10.234375 C 11.71875 10.195312 11.703125 10.164062 11.667969 10.140625 C 11.644531 10.121094 11.570312 10.09375 11.453125 10.050781 C 11.335938 10.007812 11.25 9.972656 11.195312 9.945312 C 11.144531 9.917969 11.105469 9.882812 11.078125 9.839844 C 11.054688 9.792969 11.046875 9.742188 11.058594 9.683594 C 11.078125 9.578125 11.140625 9.492188 11.253906 9.421875 C 11.367188 9.355469 11.515625 9.320312 11.703125 9.320312 C 11.894531 9.320312 12.035156 9.355469 12.125 9.421875 C 12.21875 9.492188 12.257812 9.582031 12.25 9.695312 L 11.925781 9.703125 C 11.929688 9.644531 11.910156 9.601562 11.867188 9.570312 C 11.824219 9.539062 11.757812 9.523438 11.664062 9.523438 C 11.570312 9.523438 11.503906 9.535156 11.457031 9.558594 C 11.414062 9.582031 11.390625 9.613281 11.382812 9.652344 C 11.375 9.6875 11.390625 9.71875 11.421875 9.742188 C 11.453125 9.765625 11.527344 9.796875 11.644531 9.835938 C 11.820312 9.898438 11.929688 9.949219 11.972656 9.988281 C 12.039062 10.042969 12.0625 10.113281 12.046875 10.203125 C 12.027344 10.3125 11.953125 10.40625 11.824219 10.484375 C 11.699219 10.558594 11.535156 10.597656 11.332031 10.597656 C 11.191406 10.597656 11.074219 10.582031 10.976562 10.542969 C 10.882812 10.507812 10.820312 10.460938 10.789062 10.394531 C 10.757812 10.332031 10.753906 10.257812 10.769531 10.175781 "/>
<path style=" stroke:none;fill-rule:nonzero;fill:rgb(81.176471%,7.45098%,16.862745%);fill-opacity:1;" d="M 13.363281 10.023438 L 12.734375 10.023438 L 12.480469 10.578125 L 12.148438 10.578125 L 12.714844 9.339844 L 13.046875 9.339844 L 12.828125 9.820312 L 13.457031 9.820312 L 13.675781 9.339844 L 14.011719 9.339844 L 13.445312 10.578125 L 13.109375 10.578125 Z M 13.363281 10.023438 "/>
<path style=" stroke:none;fill-rule:nonzero;fill:rgb(81.176471%,7.45098%,16.862745%);fill-opacity:1;" d="M 13.742188 10.578125 L 14.308594 9.339844 L 14.640625 9.339844 L 14.078125 10.578125 Z M 13.742188 10.578125 "/>
<path style=" stroke:none;fill-rule:nonzero;fill:rgb(81.176471%,7.45098%,16.862745%);fill-opacity:1;" d="M 15.773438 10.578125 L 15.460938 10.578125 L 15.164062 9.746094 L 14.761719 10.578125 L 14.449219 10.578125 L 15.039062 9.339844 L 15.351562 9.339844 L 15.648438 10.167969 L 15.992188 9.339844 L 16.304688 9.339844 Z M 15.773438 10.578125 "/>
<path style=" stroke:none;fill-rule:nonzero;fill:rgb(81.176471%,7.45098%,16.862745%);fill-opacity:1;" d="M 17.128906 9.917969 L 17.855469 9.917969 L 17.613281 10.449219 C 17.519531 10.488281 17.410156 10.523438 17.277344 10.554688 C 17.148438 10.582031 17.019531 10.597656 16.890625 10.597656 C 16.6875 10.597656 16.542969 10.5625 16.445312 10.496094 C 16.316406 10.398438 16.269531 10.261719 16.300781 10.085938 C 16.324219 9.964844 16.378906 9.847656 16.460938 9.738281 C 16.558594 9.605469 16.683594 9.503906 16.835938 9.429688 C 16.988281 9.355469 17.160156 9.320312 17.347656 9.320312 C 17.535156 9.320312 17.679688 9.355469 17.78125 9.421875 C 17.882812 9.484375 17.886719 9.597656 17.902344 9.726562 L 17.585938 9.722656 C 17.570312 9.65625 17.589844 9.613281 17.535156 9.578125 C 17.480469 9.542969 17.40625 9.527344 17.3125 9.527344 C 17.207031 9.527344 17.101562 9.546875 17.003906 9.589844 C 16.90625 9.632812 16.824219 9.699219 16.757812 9.789062 C 16.6875 9.878906 16.644531 9.976562 16.625 10.082031 C 16.609375 10.183594 16.625 10.261719 16.675781 10.3125 C 16.730469 10.359375 16.816406 10.386719 16.9375 10.386719 C 17.007812 10.386719 17.082031 10.378906 17.160156 10.363281 C 17.238281 10.347656 17.308594 10.328125 17.367188 10.308594 L 17.449219 10.125 L 17.035156 10.125 Z M 17.128906 9.917969 "/>
<path style=" stroke:none;fill-rule:nonzero;fill:rgb(81.176471%,7.45098%,16.862745%);fill-opacity:1;" d="M 18.464844 10.578125 L 18.132812 10.578125 L 18.601562 9.546875 L 18.125 9.546875 L 18.222656 9.339844 L 19.5 9.339844 L 19.40625 9.546875 L 18.9375 9.546875 Z M 18.464844 10.578125 "/>
<path style=" stroke:none;fill-rule:nonzero;fill:rgb(81.176471%,7.45098%,16.862745%);fill-opacity:1;" d="M 19.628906 10.085938 C 19.613281 10.171875 19.632812 10.242188 19.691406 10.300781 C 19.75 10.359375 19.832031 10.386719 19.945312 10.386719 C 20.035156 10.386719 20.125 10.363281 20.214844 10.320312 C 20.308594 10.273438 20.390625 10.207031 20.460938 10.113281 C 20.53125 10.019531 20.574219 9.933594 20.589844 9.84375 C 20.609375 9.746094 20.589844 9.671875 20.53125 9.617188 C 20.472656 9.5625 20.390625 9.53125 20.28125 9.53125 C 20.121094 9.53125 19.976562 9.589844 19.851562 9.707031 C 19.730469 9.824219 19.65625 9.949219 19.628906 10.085938 M 19.296875 10.09375 C 19.3125 10.019531 19.339844 9.941406 19.382812 9.863281 C 19.441406 9.753906 19.515625 9.660156 19.605469 9.578125 C 19.699219 9.5 19.808594 9.4375 19.933594 9.390625 C 20.058594 9.34375 20.199219 9.320312 20.347656 9.320312 C 20.550781 9.320312 20.703125 9.367188 20.808594 9.464844 C 20.914062 9.558594 20.953125 9.683594 20.925781 9.839844 C 20.902344 9.972656 20.839844 10.097656 20.734375 10.21875 C 20.632812 10.339844 20.507812 10.433594 20.355469 10.5 C 20.207031 10.566406 20.042969 10.597656 19.867188 10.597656 C 19.71875 10.597656 19.59375 10.574219 19.503906 10.519531 C 19.410156 10.46875 19.347656 10.402344 19.320312 10.328125 C 19.289062 10.25 19.285156 10.171875 19.296875 10.09375 "/>
<path style=" stroke:none;fill-rule:nonzero;fill:rgb(81.176471%,7.45098%,16.862745%);fill-opacity:1;" d="M 22.140625 10.578125 L 21.832031 10.578125 L 21.542969 9.746094 L 21.164062 10.578125 L 20.851562 10.578125 L 21.417969 9.339844 L 21.730469 9.339844 L 22.019531 10.167969 L 22.398438 9.339844 L 22.707031 9.339844 Z M 22.140625 10.578125 "/>
<path style=" stroke:none;fill-rule:nonzero;fill:rgb(81.176471%,7.45098%,16.862745%);fill-opacity:1;" d="M 11.660156 7.324219 L 12.507812 6.703125 L 11.457031 6.703125 L 11.136719 5.726562 L 10.828125 6.703125 L 9.804688 6.703125 L 10.636719 7.308594 L 10.320312 8.308594 L 11.160156 7.691406 L 11.972656 8.28125 Z M 11.660156 7.324219 "/>
<path style=" stroke:none;fill-rule:nonzero;fill:rgb(81.176471%,7.45098%,16.862745%);fill-opacity:1;" d="M 17.148438 7.324219 L 18 6.703125 L 16.945312 6.703125 L 16.625 5.726562 L 16.316406 6.703125 L 15.292969 6.703125 L 16.125 7.308594 L 15.808594 8.308594 L 16.652344 7.691406 L 17.464844 8.28125 Z M 17.148438 7.324219 "/>
<path style=" stroke:none;fill-rule:nonzero;fill:rgb(81.176471%,7.45098%,16.862745%);fill-opacity:1;" d="M 22.621094 7.324219 L 23.472656 6.703125 L 22.417969 6.703125 L 22.097656 5.726562 L 21.789062 6.703125 L 20.765625 6.703125 L 21.597656 7.308594 L 21.28125 8.308594 L 22.125 7.691406 L 22.9375 8.28125 Z M 22.621094 7.324219 "/>
</g>
</svg>
