<?xml version="1.0" encoding="UTF-8"?>
<svg xmlns="http://www.w3.org/2000/svg" xmlns:xlink="http://www.w3.org/1999/xlink" width="25pt" height="25pt" viewBox="0 0 25 25" version="1.1">
<g id="surface1">
<path style=" stroke:none;fill-rule:nonzero;fill:rgb(65.882353%,66.27451%,67.843137%);fill-opacity:1;" d="M 25 12.5 C 25 19.40625 19.40625 25 12.503906 25 C 5.597656 25 0 19.40625 0 12.5 C 0 5.597656 5.597656 0 12.5 0 C 19.40625 0 25 5.597656 25 12.5 "/>
<path style=" stroke:none;fill-rule:nonzero;fill:rgb(0%,18.039216%,38.431373%);fill-opacity:1;" d="M 24.160156 12.5 C 24.160156 18.941406 18.941406 24.164062 12.503906 24.164062 C 6.0625 24.164062 0.839844 18.941406 0.839844 12.5 C 0.839844 6.0625 6.058594 0.839844 12.5 0.839844 C 18.941406 0.839844 24.160156 6.0625 24.160156 12.5 "/>
<path style=" stroke:none;fill-rule:nonzero;fill:rgb(100%,100%,100%);fill-opacity:1;" d="M 13.628906 3.976562 L 12.5 1.136719 L 11.304688 3.976562 C 7.097656 4.546875 3.851562 8.148438 3.851562 12.511719 C 3.851562 17.273438 7.742188 21.128906 12.5 21.128906 C 17.261719 21.128906 21.082031 17.273438 21.082031 12.511719 C 21.082031 8.148438 17.839844 4.546875 13.628906 3.976562 "/>
<path style=" stroke:none;fill-rule:nonzero;fill:rgb(50.588235%,0.392157%,12.54902%);fill-opacity:1;" d="M 7.238281 10.894531 L 7.953125 12.613281 L 11.210938 11.058594 L 11.386719 9.0625 L 11.628906 7.945312 L 9.988281 6.867188 C 9.988281 6.867188 10.648438 10.78125 10.648438 10.78125 L 8.902344 9.039062 L 8.851562 10.414062 L 6.296875 9.449219 L 7.246094 11.960938 L 7.246094 11.738281 Z M 7.238281 10.894531 "/>
<path style=" stroke:none;fill-rule:nonzero;fill:rgb(50.588235%,0.392157%,12.54902%);fill-opacity:1;" d="M 9.117188 16.054688 L 10.3125 16.25 L 11.046875 15.191406 L 11.046875 14.707031 L 8.730469 14.550781 L 9.667969 15.371094 Z M 9.117188 16.054688 "/>
<path style=" stroke:none;fill-rule:nonzero;fill:rgb(50.588235%,0.392157%,12.54902%);fill-opacity:1;" d="M 12.5 20.796875 L 13.246094 17.207031 L 13.242188 17.199219 L 12.5 18.832031 L 11.78125 17.199219 L 11.769531 17.230469 Z M 12.5 20.796875 "/>
<path style=" stroke:none;fill-rule:nonzero;fill:rgb(50.588235%,0.392157%,12.54902%);fill-opacity:1;" d="M 15.371094 15.371094 L 16.308594 14.550781 L 13.976562 14.707031 L 13.976562 15.191406 L 14.714844 16.25 L 15.921875 16.054688 Z M 15.371094 15.371094 "/>
<path style=" stroke:none;fill-rule:nonzero;fill:rgb(50.588235%,0.392157%,12.54902%);fill-opacity:1;" d="M 13.8125 11.058594 L 17.070312 12.613281 L 17.765625 10.871094 L 17.777344 11.738281 L 17.777344 12 L 18.742188 9.449219 L 16.183594 10.414062 L 16.136719 9.039062 L 14.390625 10.78125 C 14.433594 10.511719 15.050781 6.867188 15.050781 6.867188 L 13.398438 7.957031 L 13.636719 9.0625 Z M 13.8125 11.058594 "/>
<path style=" stroke:none;fill-rule:nonzero;fill:rgb(50.588235%,0.392157%,12.54902%);fill-opacity:1;" d="M 19.1875 12.039062 L 17.777344 12.035156 L 17.777344 13.269531 Z M 19.1875 12.039062 "/>
<path style=" stroke:none;fill-rule:nonzero;fill:rgb(50.588235%,0.392157%,12.54902%);fill-opacity:1;" d="M 5.851562 12.039062 L 7.246094 13.257812 L 7.246094 12.035156 Z M 5.851562 12.039062 "/>
<path style=" stroke:none;fill-rule:nonzero;fill:rgb(43.137255%,42.745098%,45.882353%);fill-opacity:1;" d="M 13.636719 9.0625 L 12.503906 3.875 L 11.386719 9.0625 L 11.210938 11.058594 L 7.953125 12.613281 L 7.238281 10.894531 L 7.246094 11.738281 L 7.246094 14.746094 L 7.761719 14.488281 L 11.046875 14.707031 L 11.046875 15.191406 L 9.554688 17.339844 L 9.554688 18.640625 L 11.613281 17.625 L 11.78125 17.199219 L 12.5 18.839844 L 13.242188 17.199219 L 13.410156 17.625 L 15.46875 18.640625 L 15.46875 17.335938 L 13.976562 15.191406 L 13.976562 14.707031 L 17.261719 14.488281 L 17.78125 14.746094 L 17.78125 11.738281 L 17.765625 10.871094 L 17.070312 12.613281 L 13.8125 11.058594 Z M 13.636719 9.0625 "/>
<path style=" stroke:none;fill-rule:nonzero;fill:rgb(65.882353%,66.27451%,67.843137%);fill-opacity:1;" d="M 11.324219 12.402344 L 11.109375 11.355469 L 7.835938 12.917969 L 7.46875 12.035156 L 7.46875 14.382812 L 7.71875 14.257812 L 11.273438 14.496094 L 11.273438 15.261719 L 9.78125 17.410156 L 9.78125 18.277344 L 11.4375 17.460938 L 11.691406 16.816406 L 11.546875 16.101562 L 11.789062 16.664062 L 12.5 18.277344 L 12.5 4.785156 L 11.609375 9.09375 L 11.425781 11.207031 L 11.421875 11.207031 Z M 11.324219 12.402344 "/>
<path style=" stroke:none;fill-rule:nonzero;fill:rgb(77.647059%,5.882353%,18.431373%);fill-opacity:1;" d="M 11.042969 14.707031 L 8.917969 14.566406 L 9.816406 15.347656 C 9.804688 15.386719 9.332031 15.972656 9.332031 15.972656 L 10.382812 16.144531 L 11.042969 15.191406 Z M 11.042969 14.707031 "/>
<path style=" stroke:none;fill-rule:nonzero;fill:rgb(77.647059%,5.882353%,18.431373%);fill-opacity:1;" d="M 11.601562 8.066406 L 10.144531 7.109375 C 10.144531 7.109375 10.148438 7.117188 10.148438 7.125 L 11.304688 9.953125 L 11.382812 9.0625 Z M 11.601562 8.066406 "/>
<path style=" stroke:none;fill-rule:nonzero;fill:rgb(77.647059%,5.882353%,18.431373%);fill-opacity:1;" d="M 10.648438 10.941406 C 10.644531 10.941406 10.644531 10.941406 10.644531 10.941406 L 9.007812 9.308594 L 8.960938 10.574219 L 6.515625 9.65625 L 8.902344 12.160156 L 10.910156 11.199219 Z M 10.648438 10.941406 "/>
<path style=" stroke:none;fill-rule:nonzero;fill:rgb(77.647059%,5.882353%,18.431373%);fill-opacity:1;" d="M 11.972656 17.632812 L 12.503906 20.3125 L 12.5 18.839844 Z M 11.972656 17.632812 "/>
<path style=" stroke:none;fill-rule:nonzero;fill:rgb(77.647059%,5.882353%,18.431373%);fill-opacity:1;" d="M 6.160156 12.15625 L 7.242188 13.101562 L 7.242188 12.148438 Z M 6.160156 12.15625 "/>
<path style=" stroke:none;fill-rule:nonzero;fill:rgb(77.647059%,5.882353%,18.431373%);fill-opacity:1;" d="M 14.882812 7.117188 L 13.421875 8.082031 L 13.585938 8.835938 Z M 14.882812 7.117188 "/>
<path style=" stroke:none;fill-rule:nonzero;fill:rgb(77.647059%,5.882353%,18.431373%);fill-opacity:1;" d="M 15.875 12.042969 L 18.542969 9.652344 L 16.101562 10.574219 L 15.386719 11.808594 Z M 15.875 12.042969 "/>
</g>
</svg>
