<?xml version="1.0" encoding="UTF-8"?>
<svg xmlns="http://www.w3.org/2000/svg" xmlns:xlink="http://www.w3.org/1999/xlink" width="34pt" height="20pt" viewBox="0 0 34 20" version="1.1">
<g id="surface1">
<path style=" stroke:none;fill-rule:nonzero;fill:rgb(7.45098%,14.901961%,29.411765%);fill-opacity:1;" d="M 0 5.386719 C 0 5.386719 -0.175781 8.753906 3.707031 10.894531 C 3.707031 10.894531 5.269531 11.734375 8.957031 12.421875 C 12.195312 13.019531 13.925781 14.296875 14.617188 15.097656 C 15.5 16.117188 16.363281 17.976562 16.753906 19.601562 C 16.753906 19.601562 16.753906 20.023438 17.054688 20.007812 C 17.054688 20.007812 17.316406 20.023438 17.300781 19.648438 C 17.300781 19.648438 17.207031 17.089844 17.941406 15.859375 C 18.5 14.847656 19.5 13.976562 21.164062 13.363281 C 21.164062 13.363281 22.269531 14.21875 23.839844 14.21875 C 24.976562 14.21875 25.992188 13.726562 25.992188 13.726562 C 25.992188 13.726562 27.992188 14.429688 28.222656 15.523438 C 28.222656 15.523438 28.238281 15.789062 28.171875 15.976562 L 30.679688 16.109375 L 32.046875 14.855469 C 32.046875 14.855469 29.5 14.667969 29.449219 13.929688 C 29.449219 13.929688 29.410156 13.585938 30.09375 13.585938 C 30.09375 13.585938 31.679688 13.5625 33.15625 15.789062 L 34 13.539062 C 34 13.539062 33.355469 13.214844 33.363281 12.613281 C 33.363281 12.613281 33.347656 12.25 33.632812 11.507812 L 32.578125 11.027344 C 32.578125 11.027344 32.007812 10.492188 28.601562 8.335938 L 29.039062 8.046875 L 25.261719 6.398438 C 25.261719 6.398438 24.054688 4.46875 20.6875 4.460938 C 20.6875 4.460938 18.054688 0.09375 13.855469 0.09375 C 13.855469 0.09375 12.308594 0 10.53125 0.941406 C 10.53125 0.941406 9.824219 1.269531 9.132812 1.664062 C 9.132812 1.664062 7.695312 2.675781 6.046875 0.476562 C 6.046875 0.476562 5.449219 3.074219 7.253906 4.1875 C 7.253906 4.1875 5.53125 4.550781 4.925781 3.058594 C 4.925781 3.058594 4.371094 1.914062 4.523438 0 C 4.523438 0 3.203125 1.207031 3.203125 3.53125 C 3.203125 3.53125 3.1875 5.011719 4.164062 6.023438 C 4.164062 6.023438 3.671875 5.945312 2.894531 6.445312 C 2.878906 6.4375 1.515625 7.433594 0 5.386719 Z M 0 5.386719 "/>
<path style=" stroke:none;fill-rule:nonzero;fill:rgb(87.058824%,38.431373%,14.901961%);fill-opacity:1;" d="M 6.433594 1.617188 C 6.433594 1.617188 6.6875 3.914062 8.617188 3.914062 C 8.617188 3.914062 9.378906 3.914062 10.070312 3.648438 C 10.761719 3.386719 11.777344 2.863281 13.125 2.863281 C 13.125 2.863281 14.886719 2.691406 15.871094 4.660156 C 15.871094 4.660156 18.117188 4.535156 20.222656 4.933594 C 20.222656 4.933594 17.824219 0.660156 13.664062 0.722656 C 13.664062 0.722656 12.449219 0.660156 10.824219 1.480469 L 10.171875 1.789062 C 9.695312 2.015625 9.507812 2.132812 9.507812 2.132812 C 9.507812 2.132812 8.832031 2.535156 8.1875 2.519531 C 8.171875 2.527344 7.332031 2.597656 6.433594 1.617188 Z M 4.046875 1.695312 C 4.046875 1.695312 2.933594 4.808594 5.378906 6.203125 C 5.832031 6.5 6.5625 6.777344 7.378906 6.800781 C 7.378906 6.800781 10.714844 5.191406 14.355469 4.761719 C 14.355469 4.761719 13.933594 3.851562 12.292969 3.851562 C 12.292969 3.851562 11.285156 3.789062 9.46875 4.304688 C 9.46875 4.304688 8.976562 4.429688 8.402344 4.628906 C 7.570312 4.832031 6.195312 5.042969 5.300781 4.476562 C 5.285156 4.484375 4.078125 3.875 4.046875 1.695312 Z M 0.910156 6.941406 C 0.910156 6.941406 1.207031 8.605469 3.101562 8.605469 C 3.101562 8.605469 4.425781 8.636719 6.285156 7.488281 C 6.285156 7.488281 5.640625 7.238281 5.316406 7.019531 C 5.316406 7.019531 4.632812 6.5 3.910156 6.699219 C 3.910156 6.699219 3.785156 6.722656 3.117188 7.011719 C 3.117188 7.011719 2.648438 7.316406 1.984375 7.316406 C 1.976562 7.316406 1.308594 7.300781 0.910156 6.941406 Z M 0.910156 6.941406 "/>
<path style=" stroke:none;fill-rule:nonzero;fill:rgb(100%,100%,100%);fill-opacity:1;" d="M 11.101562 12.3125 C 11.101562 12.3125 14.863281 8.289062 20.285156 9.6875 C 20.285156 9.6875 20.554688 12.839844 23.910156 13.027344 C 23.910156 13.027344 25.046875 13.097656 26.132812 12.328125 L 28.238281 13.121094 L 26.023438 11.710938 C 26.023438 11.710938 25.316406 12.414062 24.039062 12.414062 C 22.761719 12.414062 21.207031 11.097656 21.339844 9.238281 C 21.339844 9.238281 19.015625 8.054688 16.425781 7.449219 L 17.203125 8.691406 C 17.203125 8.691406 12.164062 8.367188 8.03125 11.609375 C 8.03125 11.609375 4.09375 10.722656 3.617188 9.960938 C 3.617188 9.960938 11.730469 3.285156 22.117188 5.992188 C 22.117188 5.992188 22.238281 5.8125 21.941406 5.5625 C 21.941406 5.5625 21.546875 5.269531 20.96875 5.089844 C 20.96875 5.089844 23.507812 4.949219 24.839844 6.902344 L 27.761719 8.148438 L 27.457031 8.367188 C 27.457031 8.367188 31.917969 11.175781 32.214844 11.5625 L 32.839844 11.828125 C 32.839844 11.828125 32.394531 13.144531 33.308594 13.851562 L 32.96875 14.753906 C 32.96875 14.753906 31.476562 13.128906 29.984375 13.066406 C 29.984375 13.066406 28.886719 13.042969 28.886719 13.929688 C 28.886719 13.929688 28.753906 14.886719 30.949219 15.160156 L 30.492188 15.578125 L 28.824219 15.472656 C 28.824219 15.472656 28.863281 14.09375 25.949219 13.019531 C 25.949219 13.019531 23.554688 14.460938 21.285156 12.683594 C 21.285156 12.683594 17.148438 13.6875 16.777344 17.539062 C 16.777344 17.539062 16.324219 16.085938 15.308594 14.839844 C 15.308594 14.839844 15.855469 12.878906 18.792969 11.890625 C 18.792969 11.890625 16.148438 11.75 14.292969 13.890625 C 14.292969 13.890625 13.054688 12.878906 11.101562 12.3125 Z M 11.101562 12.3125 "/>
<path style=" stroke:none;fill-rule:nonzero;fill:rgb(7.45098%,14.901961%,29.411765%);fill-opacity:1;" d="M 24.617188 7.757812 C 24.617188 7.757812 26.679688 8.070312 30.214844 10.996094 L 26.871094 9.144531 C 26.871094 9.144531 26.65625 9.253906 26.515625 9.378906 C 26.515625 9.378906 25.761719 8.492188 24.617188 7.757812 Z M 24.617188 7.757812 "/>
<path style=" stroke:none;fill-rule:nonzero;fill:rgb(87.058824%,38.431373%,14.901961%);fill-opacity:1;" d="M 26.292969 8.382812 C 26.292969 8.382812 26.125 8.527344 26.195312 8.777344 C 26.195312 8.777344 26.277344 9.011719 26.546875 9.019531 C 26.546875 9.019531 26.847656 9.027344 26.902344 8.691406 L 26.761719 8.613281 L 26.394531 8.894531 L 26.492188 8.476562 Z M 26.292969 8.382812 "/>
<path style=" stroke:none;fill-rule:nonzero;fill:rgb(7.45098%,14.901961%,29.411765%);fill-opacity:1;" d="M 32.246094 11.921875 C 32.246094 11.921875 31.960938 12.03125 31.960938 12.289062 C 31.960938 12.289062 31.894531 12.550781 32.460938 13.136719 C 32.460938 13.136719 31.617188 12.503906 31.457031 12.132812 C 31.457031 12.132812 31.308594 11.851562 31.722656 11.851562 C 31.722656 11.84375 31.96875 11.84375 32.246094 11.921875 Z M 22.601562 6.1875 C 22.601562 6.1875 23.125 6.195312 23.1875 6.0625 C 23.1875 6.0625 23.316406 5.929688 22.609375 5.59375 C 22.609375 5.59375 23.695312 5.820312 24.1875 6.707031 C 24.1875 6.714844 23.484375 6.390625 22.601562 6.1875 Z M 22.601562 6.1875 "/>
</g>
</svg>
