<?xml version="1.0" encoding="UTF-8"?>
<svg xmlns="http://www.w3.org/2000/svg" xmlns:xlink="http://www.w3.org/1999/xlink" width="19pt" height="20pt" viewBox="0 0 19 20" version="1.1">
<g id="surface1">
<path style=" stroke:none;fill-rule:nonzero;fill:rgb(0.784314%,22.745098%,47.45098%);fill-opacity:1;" d="M 16.039062 2.878906 C 15.679688 2.378906 15.824219 2.117188 16.074219 2.085938 C 16.25 2.0625 16.457031 2.085938 16.5625 2.085938 C 16.757812 2.085938 17.121094 2.105469 17.089844 1.742188 C 17.054688 1.324219 16.964844 0.933594 16.863281 0.449219 C 16.757812 -0.03125 16.722656 0 16.058594 0 C 16.058594 0 15.933594 -0.015625 14.917969 0.0507812 C 13.902344 0.117188 13.097656 0.257812 13.058594 1.601562 C 13.023438 2.949219 13.339844 3.398438 13.898438 4.257812 C 14.457031 5.121094 16.140625 7.773438 16.140625 10.183594 C 16.140625 14.617188 12.179688 16.527344 9.511719 16.527344 C 6.84375 16.527344 2.882812 14.621094 2.882812 10.183594 C 2.882812 7.769531 4.566406 5.117188 5.125 4.257812 C 5.6875 3.390625 6.003906 2.949219 5.964844 1.601562 C 5.929688 0.257812 5.125 0.125 4.105469 0.0507812 C 3.089844 -0.015625 2.964844 0 2.964844 0 C 2.300781 0 2.265625 -0.03125 2.160156 0.449219 C 2.050781 0.933594 1.96875 1.332031 1.933594 1.742188 C 1.898438 2.105469 2.265625 2.085938 2.457031 2.085938 C 2.566406 2.085938 2.773438 2.058594 2.949219 2.085938 C 3.203125 2.117188 3.34375 2.382812 2.984375 2.878906 C 1.535156 4.871094 0 7.335938 0 10.289062 C 0 15.148438 4.246094 19.972656 9.503906 19.972656 C 14.765625 19.972656 19.011719 15.148438 19.011719 10.289062 C 19.023438 7.335938 17.496094 4.871094 16.039062 2.878906 Z M 14.621094 3.226562 C 14.460938 3.226562 14.332031 3.097656 14.332031 2.945312 C 14.332031 2.789062 14.460938 2.660156 14.621094 2.660156 C 14.777344 2.660156 14.90625 2.789062 14.90625 2.945312 C 14.90625 3.097656 14.777344 3.226562 14.621094 3.226562 Z M 4.414062 2.667969 C 4.574219 2.667969 4.703125 2.792969 4.703125 2.949219 C 4.703125 3.105469 4.574219 3.230469 4.414062 3.230469 C 4.257812 3.230469 4.128906 3.105469 4.128906 2.949219 C 4.128906 2.792969 4.257812 2.667969 4.414062 2.667969 Z M 1.574219 9.808594 C 1.414062 9.808594 1.285156 9.679688 1.285156 9.527344 C 1.285156 9.371094 1.414062 9.242188 1.574219 9.242188 C 1.730469 9.242188 1.859375 9.371094 1.859375 9.527344 C 1.859375 9.6875 1.730469 9.808594 1.574219 9.808594 Z M 2.976562 15.359375 C 2.820312 15.359375 2.6875 15.230469 2.6875 15.078125 C 2.6875 14.921875 2.820312 14.792969 2.976562 14.792969 C 3.132812 14.792969 3.265625 14.921875 3.265625 15.078125 C 3.265625 15.230469 3.132812 15.359375 2.976562 15.359375 Z M 9.515625 18.527344 C 9.359375 18.527344 9.230469 18.402344 9.230469 18.246094 C 9.230469 18.089844 9.359375 17.964844 9.515625 17.964844 C 9.675781 17.964844 9.804688 18.089844 9.804688 18.246094 C 9.804688 18.40625 9.675781 18.527344 9.515625 18.527344 Z M 16.058594 15.359375 C 15.898438 15.359375 15.769531 15.230469 15.769531 15.078125 C 15.769531 14.921875 15.898438 14.792969 16.058594 14.792969 C 16.214844 14.792969 16.34375 14.921875 16.34375 15.078125 C 16.34375 15.230469 16.214844 15.359375 16.058594 15.359375 Z M 17.460938 9.808594 C 17.304688 9.808594 17.171875 9.679688 17.171875 9.527344 C 17.171875 9.371094 17.304688 9.242188 17.460938 9.242188 C 17.617188 9.242188 17.75 9.371094 17.75 9.527344 C 17.75 9.6875 17.617188 9.808594 17.460938 9.808594 Z M 17.460938 9.808594 "/>
<path style=" stroke:none;fill-rule:nonzero;fill:rgb(100%,100%,100%);fill-opacity:1;" d="M 14.90625 2.945312 C 14.90625 3.101562 14.777344 3.226562 14.621094 3.226562 C 14.460938 3.226562 14.332031 3.101562 14.332031 2.945312 C 14.332031 2.789062 14.460938 2.660156 14.621094 2.660156 C 14.777344 2.660156 14.90625 2.789062 14.90625 2.945312 Z M 14.90625 2.945312 "/>
<path style=" stroke:none;fill-rule:nonzero;fill:rgb(100%,100%,100%);fill-opacity:1;" d="M 4.703125 2.945312 C 4.703125 3.101562 4.574219 3.226562 4.414062 3.226562 C 4.253906 3.226562 4.128906 3.101562 4.128906 2.945312 C 4.128906 2.789062 4.253906 2.660156 4.414062 2.660156 C 4.574219 2.660156 4.703125 2.789062 4.703125 2.945312 Z M 4.703125 2.945312 "/>
<path style=" stroke:none;fill-rule:nonzero;fill:rgb(100%,100%,100%);fill-opacity:1;" d="M 1.285156 9.53125 C 1.285156 9.375 1.414062 9.25 1.574219 9.25 C 1.730469 9.25 1.859375 9.375 1.859375 9.53125 C 1.859375 9.6875 1.730469 9.8125 1.574219 9.8125 C 1.414062 9.808594 1.285156 9.6875 1.285156 9.53125 Z M 1.285156 9.53125 "/>
<path style=" stroke:none;fill-rule:nonzero;fill:rgb(100%,100%,100%);fill-opacity:1;" d="M 3.265625 15.078125 C 3.265625 15.234375 3.136719 15.359375 2.976562 15.359375 C 2.816406 15.359375 2.6875 15.234375 2.6875 15.078125 C 2.6875 14.921875 2.816406 14.792969 2.976562 14.792969 C 3.136719 14.792969 3.265625 14.921875 3.265625 15.078125 Z M 3.265625 15.078125 "/>
<path style=" stroke:none;fill-rule:nonzero;fill:rgb(100%,100%,100%);fill-opacity:1;" d="M 9.515625 17.96875 C 9.675781 17.96875 9.804688 18.097656 9.804688 18.25 C 9.804688 18.40625 9.675781 18.535156 9.515625 18.535156 C 9.359375 18.535156 9.230469 18.40625 9.230469 18.25 C 9.230469 18.097656 9.359375 17.96875 9.515625 17.96875 Z M 9.515625 17.96875 "/>
<path style=" stroke:none;fill-rule:nonzero;fill:rgb(100%,100%,100%);fill-opacity:1;" d="M 16.34375 15.078125 C 16.34375 15.234375 16.214844 15.359375 16.058594 15.359375 C 15.898438 15.359375 15.769531 15.234375 15.769531 15.078125 C 15.769531 14.921875 15.898438 14.792969 16.058594 14.792969 C 16.214844 14.792969 16.34375 14.921875 16.34375 15.078125 Z M 16.34375 15.078125 "/>
<path style=" stroke:none;fill-rule:nonzero;fill:rgb(100%,100%,100%);fill-opacity:1;" d="M 17.179688 9.53125 C 17.179688 9.375 17.308594 9.25 17.464844 9.25 C 17.625 9.25 17.753906 9.375 17.753906 9.53125 C 17.753906 9.6875 17.625 9.8125 17.464844 9.8125 C 17.304688 9.808594 17.179688 9.6875 17.179688 9.53125 Z M 17.179688 9.53125 "/>
</g>
</svg>
