<?xml version="1.0" encoding="UTF-8"?>
<svg xmlns="http://www.w3.org/2000/svg" xmlns:xlink="http://www.w3.org/1999/xlink" width="34pt" height="20pt" viewBox="0 0 34 20" version="1.1">
<g id="surface1">
<path style=" stroke:none;fill-rule:nonzero;fill:rgb(100%,100%,100%);fill-opacity:1;" d="M 34.015625 9.984375 C 34.015625 4.46875 26.402344 0 17.007812 0 C 7.613281 0 0 4.46875 0 9.984375 C 0 15.496094 7.613281 19.96875 17.007812 19.96875 C 26.402344 19.96875 34.015625 15.496094 34.015625 9.984375 Z M 34.015625 9.984375 "/>
<path style=" stroke:none;fill-rule:nonzero;fill:rgb(3.921569%,3.921569%,3.529412%);fill-opacity:1;" d="M 33.453125 10.058594 C 33.453125 4.785156 26.074219 0.511719 16.96875 0.511719 C 7.863281 0.511719 0.480469 4.785156 0.480469 10.058594 C 0.480469 15.328125 7.863281 19.601562 16.96875 19.601562 C 26.074219 19.601562 33.453125 15.328125 33.453125 10.058594 Z M 33.453125 10.058594 "/>
<path style=" stroke:none;fill-rule:nonzero;fill:rgb(77.647059%,64.313725%,38.823529%);fill-opacity:1;" d="M 31.421875 10.160156 C 31.421875 5.296875 24.984375 1.351562 17.039062 1.351562 C 9.097656 1.351562 2.65625 5.296875 2.65625 10.160156 C 2.65625 15.027344 9.097656 18.972656 17.039062 18.972656 C 24.984375 18.972656 31.421875 15.027344 31.421875 10.160156 Z M 31.421875 10.160156 "/>
<path style=" stroke:none;fill-rule:nonzero;fill:rgb(78.431373%,11.372549%,23.529412%);fill-opacity:1;" d="M 30.316406 10.015625 C 30.316406 5.472656 24.390625 1.789062 17.082031 1.789062 C 9.773438 1.789062 3.847656 5.472656 3.847656 10.015625 C 3.847656 14.558594 9.773438 18.242188 17.082031 18.242188 C 24.390625 18.242188 30.316406 14.558594 30.316406 10.015625 Z M 30.316406 10.015625 "/>
<path style=" stroke:none;fill-rule:nonzero;fill:rgb(3.921569%,3.921569%,3.529412%);fill-opacity:1;" d="M 27.421875 8.949219 L 27.386719 8.949219 L 27.386719 8.648438 L 22.136719 8.648438 C 22.023438 8.066406 21.679688 7.515625 21.199219 7.09375 C 20.71875 6.550781 20.023438 6.136719 19.242188 5.984375 L 18.917969 5.917969 C 18.15625 5.757812 17.5625 5.636719 15.148438 5.644531 C 15.148438 5.644531 14.683594 5.628906 14.234375 5.570312 C 14.121094 5.539062 14.023438 5.507812 13.933594 5.472656 C 13.96875 5.269531 14.332031 5.003906 14.75 4.949219 C 14.789062 4.9375 17.398438 4.460938 20.082031 6.1875 L 20.148438 6.226562 L 21.910156 6.226562 L 21.910156 3.546875 L 21.605469 3.546875 L 21.605469 3.246094 L 19.183594 3.246094 C 19.183594 3.246094 18.898438 3.464844 18.777344 3.554688 C 18.085938 3.382812 14.667969 2.640625 11.726562 3.917969 C 10.484375 4.429688 9.71875 5.382812 9.777344 6.355469 C 9.800781 6.851562 10.035156 7.269531 10.453125 7.613281 C 10.753906 7.984375 11.226562 8.273438 11.847656 8.453125 C 12.71875 8.703125 13.460938 8.808594 14.171875 8.851562 L 14.171875 10.074219 L 14.472656 10.074219 L 14.472656 10.371094 L 15.394531 10.371094 C 15.777344 10.371094 15.875 10.582031 15.898438 10.664062 C 14.726562 10.589844 12.941406 10.257812 11.625 9.042969 L 11.578125 8.988281 L 11.570312 8.988281 C 11.496094 8.921875 11.421875 8.851562 11.359375 8.777344 L 11.277344 8.695312 L 9.957031 8.695312 L 9.957031 12.511719 L 10.257812 12.511719 L 10.257812 12.808594 L 11.332031 12.808594 C 11.488281 12.816406 11.992188 12.761719 12.335938 11.765625 C 12.898438 11.960938 14.277344 12.371094 15.980469 12.421875 L 15.980469 14.792969 C 15.921875 15.585938 14.15625 15.839844 13.535156 15.863281 L 13.28125 15.871094 L 13.28125 17.050781 L 13.582031 17.050781 L 13.582031 17.351562 L 21.335938 17.351562 L 21.335938 16.226562 L 21.140625 16.179688 C 21.109375 16.171875 21.078125 16.160156 21.035156 16.152344 L 21.035156 15.894531 L 20.792969 15.871094 C 20.359375 15.828125 20.015625 15.757812 19.757812 15.667969 C 19.265625 15.394531 19.183594 15.175781 19.175781 15.140625 L 19.175781 13.878906 L 21.453125 13.878906 C 21.6875 13.910156 21.898438 14.015625 22.070312 14.152344 C 22.398438 14.550781 22.542969 15.011719 22.550781 15.019531 L 22.609375 15.207031 L 22.8125 15.207031 C 22.835938 15.269531 22.855469 15.320312 22.855469 15.320312 L 22.910156 15.507812 L 24.132812 15.507812 L 24.132812 10.914062 L 23.832031 10.914062 L 23.832031 10.617188 L 22.617188 10.617188 L 22.578125 10.824219 C 22.257812 12.347656 20.480469 12.324219 18.90625 12.097656 C 19.21875 12.015625 19.527344 11.910156 19.835938 11.789062 C 20.683594 11.457031 21.3125 11.003906 21.710938 10.46875 L 25.113281 10.46875 C 25.347656 10.476562 25.554688 10.535156 25.722656 10.648438 C 26.082031 11.164062 26.042969 11.933594 26.042969 11.941406 L 26.027344 12.21875 L 26.34375 12.21875 L 26.34375 12.242188 L 26.328125 12.519531 L 27.679688 12.519531 L 27.679688 8.964844 Z M 27.421875 8.949219 "/>
<path style=" stroke:none;fill-rule:nonzero;fill:rgb(100%,100%,100%);fill-opacity:1;" d="M 21.980469 9.886719 L 24.804688 9.886719 C 26.417969 9.933594 26.304688 11.933594 26.304688 11.933594 L 27.117188 11.933594 L 27.117188 8.90625 L 22.242188 8.90625 C 22.242188 8.90625 22.234375 9.585938 21.980469 9.886719 M 16.234375 12.46875 L 16.234375 14.792969 C 16.152344 16.007812 13.535156 16.113281 13.535156 16.113281 L 13.535156 16.777344 L 20.757812 16.777344 L 20.757812 16.113281 C 18.613281 15.925781 18.597656 14.84375 18.597656 14.84375 L 18.597656 13.289062 L 21.167969 13.289062 C 22.339844 13.457031 22.789062 14.914062 22.789062 14.914062 L 23.546875 14.914062 L 23.546875 10.851562 L 22.8125 10.851562 C 22.300781 13.296875 18.523438 12.195312 18.246094 12.257812 C 18.265625 12.257812 17.335938 12.484375 16.234375 12.46875 M 18.492188 8.46875 C 19.46875 8.753906 19.566406 9.496094 18.988281 10.195312 C 18.253906 10.882812 17.128906 10.914062 17.128906 10.914062 C 17.128906 10.914062 13.347656 11.320312 11.144531 8.949219 L 10.199219 8.949219 L 10.199219 12.234375 L 11.023438 12.234375 C 11.023438 12.234375 11.527344 12.308594 11.847656 11.109375 C 11.847656 11.109375 15.726562 12.679688 19.421875 11.222656 C 23 9.8125 21.640625 6.71875 19.175781 6.234375 C 18.230469 6.046875 17.855469 5.886719 15.140625 5.902344 C 15.140625 5.902344 14.652344 5.886719 14.171875 5.820312 C 12.671875 5.449219 13.527344 4.484375 14.398438 4.378906 C 14.398438 4.378906 17.097656 3.855469 19.910156 5.660156 L 21.328125 5.660156 L 21.328125 3.507812 L 19.265625 3.507812 L 18.828125 3.839844 C 18.828125 3.839844 15.003906 2.777344 11.824219 4.160156 C 9.6875 5.035156 9.269531 7.230469 11.601562 7.902344 C 13.65625 8.492188 14.96875 8.242188 17.050781 8.324219 C 17.636719 8.339844 18.140625 8.363281 18.492188 8.46875 M 15.410156 9.804688 L 14.433594 9.804688 L 14.433594 8.929688 C 15.191406 8.929688 16.738281 8.9375 17.839844 8.929688 C 18.941406 8.929688 19.085938 9.5625 18.621094 9.992188 C 18.183594 10.398438 17.269531 10.679688 16.175781 10.484375 C 16.175781 10.484375 16.085938 9.804688 15.410156 9.804688 "/>
</g>
</svg>
