<?xml version="1.0" encoding="UTF-8"?>
<svg xmlns="http://www.w3.org/2000/svg" xmlns:xlink="http://www.w3.org/1999/xlink" width="37pt" height="20pt" viewBox="0 0 37 20" version="1.1">
<g id="surface1">
<path style=" stroke:none;fill-rule:nonzero;fill:rgb(7.058824%,15.294118%,29.411765%);fill-opacity:1;" d="M 16.746094 0 C 17.148438 0.414062 17.933594 1.480469 17.933594 1.480469 C 7.734375 1.011719 2.386719 7.917969 2.386719 7.917969 L 3.996094 8.0625 C -1.234375 15.003906 0.171875 19.957031 0.171875 19.957031 C 4.023438 14.71875 6.554688 11.507812 13.160156 9.011719 C 13.160156 9.011719 12.523438 8.027344 12.136719 7.578125 C 21.5625 6.726562 30.417969 12.394531 30.417969 12.394531 C 30.417969 12.394531 29.554688 10.332031 29.347656 9.875 C 33.578125 13.472656 37.007812 19.980469 37.007812 19.980469 C 37.378906 14.070312 34.328125 0.628906 16.746094 0 Z M 16.746094 0 "/>
<path style=" stroke:none;fill-rule:nonzero;fill:rgb(22.352941%,59.215686%,82.745098%);fill-opacity:1;" d="M 36.316406 17.535156 C 35.515625 8.628906 29.492188 1.640625 18.183594 0.707031 L 19.285156 2.179688 C 8.589844 1.390625 3.898438 7.390625 3.898438 7.390625 C 3.898438 7.390625 4.617188 7.460938 5.25 7.515625 C 0.351562 13.28125 0.65625 18.125 0.65625 18.125 C 4.359375 13.230469 7.113281 10.851562 12.152344 8.699219 C 12.152344 8.699219 11.558594 7.8125 10.75 7.085938 C 20.21875 5.6875 29.097656 10.960938 29.097656 10.960938 C 29.097656 10.960938 28.214844 8.84375 27.441406 7.722656 C 32.445312 10.65625 36.316406 17.535156 36.316406 17.535156 Z M 36.316406 17.535156 "/>
<path style=" stroke:none;fill-rule:nonzero;fill:rgb(94.117647%,78.431373%,9.411765%);fill-opacity:1;" d="M 19.292969 1.355469 C 19.582031 1.75 19.886719 2.144531 20.355469 2.769531 C 17.539062 2.519531 10.316406 2.070312 5.070312 6.988281 C 5.070312 6.988281 6.285156 7.09375 6.273438 7.101562 C 4.472656 9.03125 1.828125 13.078125 1.269531 16.539062 C 5.265625 11.210938 9.03125 9.523438 11.363281 8.492188 C 10.910156 7.902344 10.15625 7.191406 9.578125 6.789062 C 15.339844 5.507812 22.804688 7.050781 28.015625 9.8125 C 27.484375 8.644531 26.648438 7.460938 26.015625 6.429688 C 31.121094 8.601562 34.496094 13.785156 35.558594 15.425781 C 34.992188 12.566406 32.363281 2.851562 19.292969 1.355469 Z M 19.292969 1.355469 "/>
</g>
</svg>
