<?xml version="1.0" encoding="UTF-8" standalone="no"?>
<svg
   xmlns:dc="http://purl.org/dc/elements/1.1/"
   xmlns:cc="http://creativecommons.org/ns#"
   xmlns:rdf="http://www.w3.org/1999/02/22-rdf-syntax-ns#"
   xmlns:svg="http://www.w3.org/2000/svg"
   xmlns="http://www.w3.org/2000/svg"
   xmlns:sodipodi="http://sodipodi.sourceforge.net/DTD/sodipodi-0.dtd"
   xmlns:inkscape="http://www.inkscape.org/namespaces/inkscape"
   width="404.10001"
   height="200.10001"
   viewBox="0 0 404.10001 200.10001"
   id="svg2"
   version="1.1"
   inkscape:version="0.48.4 r9939"
   sodipodi:docname="baltimore-ravens.svg">
  <metadata
     id="metadata32">
    <rdf:RDF>
      <cc:Work
         rdf:about="">
        <dc:format>image/svg+xml</dc:format>
        <dc:type
           rdf:resource="http://purl.org/dc/dcmitype/StillImage" />
      </cc:Work>
    </rdf:RDF>
  </metadata>
  <defs
     id="defs30" />
  <sodipodi:namedview
     pagecolor="#ffffff"
     bordercolor="#666666"
     borderopacity="1"
     objecttolerance="10"
     gridtolerance="10"
     guidetolerance="10"
     inkscape:pageopacity="0"
     inkscape:pageshadow="2"
     inkscape:window-width="640"
     inkscape:window-height="480"
     id="namedview28"
     showgrid="false"
     inkscape:zoom="0.4609375"
     inkscape:cx="202"
     inkscape:cy="101"
     inkscape:window-x="65"
     inkscape:window-y="24"
     inkscape:window-maximized="0"
     inkscape:current-layer="svg2" />
  <g
     id="g4"
     transform="translate(-54,-156.9)">
    <g
       id="g6">
      <path
         d="m 354.8,194.7 c 0,7.9 -3.2,12.8 -3.2,12.8 -3.5,-12.9 -21.7,-30 -21.7,-30 3.2,4 2.2,12.1 2.2,12.1 -1.2,-1 -10.1,-6.9 -10.1,-6.9 -17.7,-12.6 -46.8,-25.8 -91.5,-25.8 -112.9,0 -160.6,72.6 -162.6,75.7 0,0 -11,15.8 -13.9,24.6 l 24.1,-14.4 c 0.2,-0.1 20,-12.2 50.7,-12.2 2.4,0 8.1,0.3 9.3,2.9 3,6.2 -6.4,25.1 -17.1,38.8 l -23,29.5 32.5,-18.6 c 0.1,-0.1 13.1,-7.4 34.7,-7.4 4.3,0 6.2,0.7 6.8,1 -0.1,1.2 -1.2,3.7 -2.4,5.4 l -15.9,21.5 24.7,-10.3 c 0.2,-0.1 15.3,-6.3 37,-6.3 12.7,0 21.5,2.5 23.9,6.8 2.3,4 -0.5,10.5 -1.7,12.5 l -5.1,8.5 9.6,2.4 c 1.1,0.3 2.5,0.6 8,-0.5 0,0.8 -0.1,1.6 -0.1,2.3 0,12.5 6,22 6.4,22.6 l 9.6,15.3 3.7,-17.5 c 3.3,-15.5 15.7,-22.2 23.4,-25 l 2.2,8.3 7.7,-3.1 c 6.9,-2.8 18.3,-11.1 22.5,-14.2 3.4,-0.6 12.2,-2 23,-2 6.4,0 13.8,0.6 21.7,1.2 9.9,0.8 21.2,1.7 33.3,1.7 17.3,0 33.2,-3 39.8,-4.4 1.6,1.1 14.1,9.4 14.1,9.4 l 0.6,-13 c 0.1,-1.1 0.1,-2.2 0.1,-3.3 0,-27.2 -16.8,-44.5 -35.1,-54.4 l 1.1,-0.1 -19.7,-12.3 c -2.7,-1.7 -8.1,-3 -13.4,-4 l 1,-2 -8.8,-2.3 c -8.6,-2.3 -16,-2.6 -21.6,-2.2 2.8,-13.8 -6.8,-23.1 -6.8,-23.1 z"
         id="path8"
         inkscape:connector-curvature="0"
         style="fill:#d1b336" />
      <path
         d="m 74.2,236.7 c 0,0 46.2,-72.3 156.4,-72.3 81.1,0 108.2,45.2 108.2,45.2 0,0 1.5,-6.9 -0.5,-10.3 0,0 9.3,9.8 9.8,21.6 0,0 5.4,-5.4 5.4,-7.4 0,0 2.5,8.4 0,13.3 0,0 11.3,-3.9 28,0.5 l -1.5,3 c 0,0 16.7,2 20.7,4.4 0,0 -9.3,0.5 -9.3,3 0,0 62,9.3 59.5,60.5 l -5.9,-3.9 c 0,0 -19.7,4.9 -41.3,4.9 -21.6,0 -40.3,-2.9 -55.1,-2.9 l -26.1,2.5 c 0,0 -14.8,11.3 -22.1,14.3 l -2,-7.4 c 0,0 -30,4.4 -35.9,32.5 0,0 -9.8,-15.2 -2.5,-31 0,0 -14.3,3.9 -16.2,3.4 0,0 18.7,-30.5 -28.5,-30.5 -23.6,0 -39.8,6.9 -39.8,6.9 0,0 13.8,-18.2 -10.3,-18.2 l -38.4,8.4 c 0,0 41.8,-53.6 2,-53.6 -33.5,-0.2 -54.6,13.1 -54.6,13.1 z"
         id="path10"
         inkscape:connector-curvature="0" />
      <path
         d="m 321,242.6 c 0,0 -32.4,-5.9 -46.5,2.2 0,0 36.1,0 50.2,8.1 0,0 -64.2,-8.9 -90.7,12.5 0,0 39.1,-9.6 69.3,-6.6 0,0 -11.1,4.4 0.7,11.8 11.8,7.4 19.2,8.8 16.2,21.4 l 6.1,-9.1 6.9,6.9 c 0,0 17.7,-1.5 30,0 12.3,1.5 29,3 38.4,3 9.3,0 34.9,-3.4 34.9,-3.4 0,0 -53.6,-21.1 -101.8,-21.1 -5.4,0 -11.3,1 -7.9,6.9 0,0 -16.7,-8.2 -16.7,-12.7 l 12.8,-2.1 c 5.9,0 112.1,10.8 122.9,30 0,0 0,-43.8 -88,-52.6 l 9.8,8.4 -15.7,-1.5 9.3,8.4 c 0.1,-0.2 -24.5,-8.6 -40.2,-10.5 z"
         id="path12"
         inkscape:connector-curvature="0"
         style="fill:#ffffff" />
      <path
         d="m 99,220.4 c 0,0 48.7,-48.7 131.3,-48.7 72.3,0 103.3,40.6 103.3,40.6 0,0 13.3,19.9 5.9,27.3 -7.4,7.4 -8.8,-18.4 -27.3,-24.3 l 15.5,5.2 c 0,0 -17,-22.1 -45.7,-17 0,0 16.2,3.7 20.6,8.8 0,0 -36.1,3.7 -37.6,6.6 0,0 28,5.9 29.5,10.3 0,0 -26.5,0.7 -33.9,7.4 0,0 49.4,2.2 60.5,5.9 0,0 -32.5,-5.9 -46.5,2.2 0,0 36.1,0 50.1,8.1 0,0 -64.2,-8.9 -90.7,12.5 0,0 39.1,-9.6 69.3,-6.6 0,0 -11.1,4.4 0.7,11.8 11.8,7.4 19.2,8.8 16.2,21.4 0,0 -5.9,8.9 -14.8,12.5 l -0.7,-10.3 c 0,0 -28,2.2 -40.6,28 0,0 2.2,-21.4 8.1,-26.5 l -16.2,5.2 c 0,0 16.2,-26.5 -24.3,-28.8 l -42.8,4.4 c 0,0 5.2,-19.9 -40.6,-11.8 0.1,0.1 43.6,-71.5 -49.3,-44.2 z"
         id="path14"
         inkscape:connector-curvature="0"
         style="fill:#2d2062" />
      <path
         d="m 264.7,189.6 c -4.5,-6.6 -15.5,-9.7 -33.7,-9.7 -51.4,0 -80.5,14.6 -81.7,15.2 l -19.7,10.9 22.8,-2.6 c 0.4,-0.1 32.3,-7.1 57.6,-7.7 -34.1,4.3 -46.2,60.5 -46.7,63 l -1.2,5.6 52.8,-2.6 1.3,-1.7 c 2.2,-2.4 17.5,-9.5 30.5,-14.7 l 1.6,-0.7 4.7,-10.3 0.1,-0.6 c 0.1,-0.5 0.1,-1.1 0.1,-1.6 0,-2.8 -1,-5.3 -2.9,-7.5 -2.4,-2.7 -6.1,-4.6 -10.1,-6 19.9,-4.9 25.6,-18.6 25.8,-19.2 0.3,-0.7 1.9,-5.1 -1.3,-9.8 z m -66.4,60 c 2.7,-7.3 8.4,-20.1 9.8,-23.9 2.8,0 17.1,-0.8 17.1,7.6 0,3.8 -6.5,16.4 -26.9,16.3 z m 14.4,-34.7 c 2.6,-5.2 7.3,-17.4 8.4,-19.5 3.4,0.5 16.4,1.8 15.6,7.4 -1,6.9 -8.1,12.2 -9.8,13 l -14.2,-0.9 z"
         id="path16"
         inkscape:connector-curvature="0"
         style="fill:#ffffff" />
      <path
         d="m 219.9,219.7 -13.2,-0.7 8,-19.2 c -34.7,-0.7 -47.2,59.7 -47.2,59.7 l 45,-2.2 c 2.9,-4.4 32.4,-16.2 32.4,-16.2 l 3.7,-8.1 c 1.8,-12.8 -28.7,-13.3 -28.7,-13.3 z m 9.6,15.5 c -7.1,19.1 -33.2,19.2 -37.6,19.2 l 14.2,-33.1 c 0,-0.1 29,-1.3 23.4,13.9 z m 1.5,-50.9 c -50.9,0 -79.7,14.8 -79.7,14.8 0,0 46.5,-10.3 73,-7.4 34.6,3.8 8.9,23.6 8.9,23.6 22.9,-3 28.8,-17.7 28.8,-17.7 0,0 5.1,-13.3 -31,-13.3 z"
         id="path18"
         inkscape:connector-curvature="0"
         style="fill:#d1b336" />
      <ellipse
         cx="309.20001"
         cy="227.5"
         rx="8.3999996"
         ry="7.6999998"
         id="ellipse20"
         sodipodi:cx="309.20001"
         sodipodi:cy="227.5"
         sodipodi:rx="8.3999996"
         sodipodi:ry="7.6999998"
         style="fill:#c6332c"
         d="m 317.60001,227.5 c 0,4.25259 -3.76081,7.7 -8.4,7.7 -4.63919,0 -8.4,-3.44741 -8.4,-7.7 0,-4.25259 3.76081,-7.7 8.4,-7.7 4.63919,0 8.4,3.44741 8.4,7.7 z" />
      <ellipse
         cx="310.89999"
         cy="228.8"
         rx="7.5999999"
         ry="7.9000001"
         id="ellipse22"
         sodipodi:cx="310.89999"
         sodipodi:cy="228.8"
         sodipodi:rx="7.5999999"
         sodipodi:ry="7.9000001"
         style="fill:#ffffff"
         d="m 318.49999,228.8 c 0,4.36305 -3.40263,7.9 -7.6,7.9 -4.19736,0 -7.6,-3.53695 -7.6,-7.9 0,-4.36305 3.40264,-7.9 7.6,-7.9 4.19737,0 7.6,3.53695 7.6,7.9 z" />
      <ellipse
         cx="312.39999"
         cy="229.3"
         rx="6.0999999"
         ry="5.9000001"
         id="ellipse24"
         sodipodi:cx="312.39999"
         sodipodi:cy="229.3"
         sodipodi:rx="6.0999999"
         sodipodi:ry="5.9000001"
         style="fill:#c6332c"
         d="m 318.49999,229.3 c 0,3.25848 -2.73106,5.9 -6.1,5.9 -3.36893,0 -6.1,-2.64152 -6.1,-5.9 0,-3.25848 2.73107,-5.9 6.1,-5.9 3.36894,0 6.1,2.64152 6.1,5.9 z" />
      <ellipse
         cx="313.79999"
         cy="229"
         rx="5.1999998"
         ry="5.6999998"
         id="ellipse26"
         sodipodi:cx="313.79999"
         sodipodi:cy="229"
         sodipodi:rx="5.1999998"
         sodipodi:ry="5.6999998"
         d="m 318.99999,229 c 0,3.14802 -2.32812,5.7 -5.2,5.7 -2.87188,0 -5.2,-2.55198 -5.2,-5.7 0,-3.14802 2.32812,-5.7 5.2,-5.7 2.87188,0 5.2,2.55198 5.2,5.7 z" />
    </g>
  </g>
</svg>
