<?xml version="1.0" encoding="UTF-8" standalone="no"?>
<svg
   xmlns:dc="http://purl.org/dc/elements/1.1/"
   xmlns:cc="http://creativecommons.org/ns#"
   xmlns:rdf="http://www.w3.org/1999/02/22-rdf-syntax-ns#"
   xmlns:svg="http://www.w3.org/2000/svg"
   xmlns="http://www.w3.org/2000/svg"
   xmlns:sodipodi="http://sodipodi.sourceforge.net/DTD/sodipodi-0.dtd"
   xmlns:inkscape="http://www.inkscape.org/namespaces/inkscape"
   width="471.81"
   height="256.28882"
   viewBox="0 0 471.81 256.28882"
   id="svg2"
   version="1.1"
   inkscape:version="0.48.4 r9939"
   sodipodi:docname="carolina-panthers.svg">
  <metadata
     id="metadata22">
    <rdf:RDF>
      <cc:Work
         rdf:about="">
        <dc:format>image/svg+xml</dc:format>
        <dc:type
           rdf:resource="http://purl.org/dc/dcmitype/StillImage" />
      </cc:Work>
    </rdf:RDF>
  </metadata>
  <defs
     id="defs20" />
  <sodipodi:namedview
     pagecolor="#ffffff"
     bordercolor="#666666"
     borderopacity="1"
     objecttolerance="10"
     gridtolerance="10"
     guidetolerance="10"
     inkscape:pageopacity="0"
     inkscape:pageshadow="2"
     inkscape:window-width="640"
     inkscape:window-height="480"
     id="namedview18"
     showgrid="false"
     inkscape:zoom="0.4609375"
     inkscape:cx="236.151"
     inkscape:cy="128.12705"
     inkscape:window-x="65"
     inkscape:window-y="24"
     inkscape:window-maximized="0"
     inkscape:current-layer="svg2" />
  <path
     d="m 432.114,26.144763 c 0.103,-0.253 0.19,-0.487 0.265,-0.71 l 0.159,-0.566 -0.012,-0.03 c -0.682,-1.954 -2.044,-2.096 -4.906,-1.873 -4.18,0.797 -8.047,1.301 -11.293,1.629 l -0.525,0.052 -0.38,0.033 c -0.485,0.048 -0.951,0.089 -1.405,0.126 l -0.199,0.017 c -4.191,0.34 -6.837,0.355 -6.837,0.355 10.701,8.094 11.953,20.627 11.953,20.627 l 0.546,-0.467 c 8.216,-5.966 12.634,-19.193 12.634,-19.193"
     id="path4"
     inkscape:connector-curvature="0" />
  <path
     d="m 320.902,92.703763 c 5.31,15.637997 -3.629,36.584997 -3.629,36.584997 11.729,-10.052 20.94,-30.715997 20.94,-30.715997 19.271,-3.911 29.889,0 29.889,0 2.513,15.079997 -3.081,27.362997 -3.081,27.362997 11.176,-8.934 16.205,-32.673997 16.205,-32.673997 0,0 -4.47,-4.186 -24.292,-5.583 -19.836,-1.398 -36.032,5.025 -36.032,5.025 m 14.455,59.811997 c 0,0 -5.829,16.208 -11.809,22.193 0,0 7.729,4.236 21.196,2.99 13.459,-1.242 16.704,-6.229 17.956,-11.219 1.244,-4.986 0,-11.969 -2.248,-17.204 0,0 0.999,13.215 -8.229,19.949 0,0 -9.943,2.079 -16.426,0.087 0,-0.001 2.55,-5.322 -0.44,-16.796"
     id="path6"
     inkscape:connector-curvature="0"
     style="fill:#d1d3d4" />
  <path
     d="m 303.618,26.538763 0.412,0.086 -0.412,-0.086 c -8.126,-1.543 -11.551,4.591 -11.551,4.591 -2.575,3.812 -1.596,5.636 -1.596,5.636 25.044,-0.438 38.546,3.604 38.546,3.604 0,0 -9.325,-10.197 -24.371,-13.619 l -1.028,-0.212 z m 100.068,12.861 c -3.297,-3.07 -10.324,-7.029 -18.014,-5.492 -7.687,1.544 -8.132,9.886 -8.132,9.886 8.348,-7.686 26.146,-4.394 26.146,-4.394"
     id="path8"
     inkscape:connector-curvature="0"
     style="fill:#d1d3d4" />
  <path
     d="m 217.292,55.842763 c 0,0 41.271,-7.902 88.476,3.249 1.698,-1.523 3.651,-3.072 5.915,-4.646 -10e-4,0 -43.286,-12.009 -94.391,1.397 m 0.222,16.119 c 0,0 36.175,-9.018 80.281,-2.935 0.838,-1.672 1.974,-3.434 3.464,-5.258 -15.916,-1.825 -48.225,-3.253 -83.745,8.193 m 0.919,15.606 c 0,0 34.183,-10.557 77.286,-7.577 -0.207,-1.541 -0.227,-3.387 0.171,-5.472 -17.282,-0.466 -46.375,1.104 -77.457,13.049 M 117.622,195.20376 h 0.017 l 0.205,0.025 c 0.749,0.065 3.159,0.288 3.293,0.303 0.329,0.029 4.464,0.464 4.5,0.469 5.877,0.657 11.83,1.486 17.828,2.504 v -0.003 c 13.524,-49.496 51.572,-75.951 51.572,-75.951 -51.464,24.889 -73.104,65.411 -77.415,72.653 m 242.666,-68.56 c -3.217,-14.932 5.29,-25.155 5.29,-25.155 -19.334,16.957 -7.627,33.931 -1.78,47.101 5.857,13.171 3.518,22.837 -2.337,29.567 -5.853,6.736 -21.955,7.317 -32.784,5.271 -10.824,-2.05 -16.39,-13.47 -19.319,-26.932 -2.925,-13.459 2.345,-37.176 2.345,-37.176 -7.902,12.007 -7.902,36.591 -1.76,56.495 6.149,19.901 22.246,24.876 33.953,24.876 11.713,0 32.787,-9.95 29.533,-33.65 -3.246,-23.693 -9.919,-25.472 -13.141,-40.397 m -125.888,12.1 c -20.196,-20.446 -20.808,-43.574997 -20.808,-43.574997 0,0 -6.931,26.966997 9.528,47.159997 16.46,20.201 56.539,22.402 56.539,22.402 0,0 -25.064,-5.539 -45.259,-25.987 M 336.539,50.253763 c 23.74,9.22 23.459,23.463 23.459,23.463 3.629,-13.685 20.391,-20.944 20.391,-20.944 0,0 -8.66,-4.189 -20.668,-5.027 -12.009,-0.841 -23.182,2.508 -23.182,2.508 m -32.921,-23.715 c -14.299,-2.843 -28.028,2.889 -28.718,3.182 l -0.018,0.005 -0.011,0.003 v 0.003 c 13.175,0.225 17.192,1.396 17.192,1.396 0,0 3.429,-6.134 11.555,-4.589"
     id="path10"
     inkscape:connector-curvature="0"
     style="fill:#0099d8" />
  <path
     d="m 350.105,212.28576 -0.003,0.009 c -0.153,0.051 -8.549,3.013 -18.944,1.142 0,0 13.749,13.304 27.713,42.407 l 0.021,0.045 0.539,-0.04 c -1.346,-13.263 -7.008,-35.479 -8.312,-39.584 l -1.014,-3.979 z"
     id="path12"
     inkscape:connector-curvature="0"
     style="fill:#0099d8" />
  <path
     d="m 410.972,72.919763 c -0.278,-1.594 -0.725,-2.949 -1.278,-4.127 -0.006,0 -0.454,-1.125 -1.8,-2.884 -1.159,-1.471 -2.451,-2.625 -3.626,-3.736 -2.573,-2.425 -7.198,-3.867 -7.198,-3.867 l -0.006,-0.003 c 3.217,2.45 5.685,5.963 5.938,11.022 0.747,15.567 -15.316,21.851 -15.316,21.851 3.766,-2.519 10.543,-11.053 8.786,-22.108 -1.758,-11.049 -16.08,-16.297 -16.08,-16.297 0,0 -16.765,7.261 -20.394,20.946 0,0 0.281,-14.243 -23.459,-23.462 0,0 11.17,-3.354 23.182,-2.514 12.011,0.837 20.671,5.029 20.671,5.029 0,0 2.218,-5.853 14.004,-7.855 11.786,-1.999 24.538,0.884 24.538,0.884 -2.356,-4.297 -5.068,-10.561 -16.914,-15.404 -11.849,-4.84 -22.475,-0.458 -22.475,-0.458 0,0 -0.774,-5.719 -9.381,-11.292 C 356.168,9.5927629 319.159,4.1977629 312.023,3.8167629 c -7.133,-0.38 5.344,4.213 10.347,7.0640001 5.682,3.238 12.048,8.738 12.59,13.956 0.14,1.398 -0.189,2.625 -0.82,3.64 -0.5,-1.461 -1.553,-3.32 -3.407,-5.696 C 320.602,9.7567629 294.874,4.1277629 275.58,5.4157629 c -19.297,1.284 -34.624,8.5860001 -34.624,8.5860001 0.216,1.78 -7.123,8.006 -27.355,10.233 -19.284,2.115 -32.888,-1.41 -37.786,-2.131 -0.126,-0.033 -0.252,-0.061 -0.372,-0.071 -1.986,-0.252 -3.473,-0.155 -4.095,1.271 l -0.069,0.198 -0.041,0.259 c -0.085,0.995 0.523,2.37 0.523,2.37 l -0.282,-0.54 c 1.376,2.639 9.582,17.755 20.386,25.521 0,0 6.46,-1.368 14.126,-2.189 0,0 -118.445,57.639997 -166.432,147.707997 20.912,-2.447 48.419,-4.03 78.287,-1.399 l -0.205,-0.021 h -0.019 c 4.312,-7.247 25.952,-47.77 77.419,-72.658 0,0 -38.053,26.451 -51.576,75.949 17.204,2.926 34.777,7.454 51.983,14.147 55.316,21.561 101.943,44.097 154.501,43.633 l 8.939,-0.394 -0.021,-0.045 c -13.958,-29.099 -27.707,-42.407 -27.707,-42.407 10.393,1.871 18.786,-1.091 18.939,-1.142 0.792,-0.287 1.468,-0.568 2.03,-0.825 17.184,-9.27 20.061,-24.951 21.469,-36.193 1.618,-12.994 -0.688,-21.311 -0.688,-21.311 0,0 29.752,-39.06 37.311,-69.798997 0.004,0.001 1.747,-5.557 0.751,-11.246 m -25.3,-39.009 c 7.692,-1.537 14.717,2.418 18.014,5.492 0,0 -17.798,-3.296 -26.141,4.394 -0.002,-10e-4 0.441,-8.348 8.127,-9.886 m -110.8,-4.176 0.011,-0.003 0.018,-0.006 c 0.71,-0.301 15.077,-6.311 29.743,-2.973 15.046,3.425 24.377,13.623 24.377,13.623 0,0 -13.505,-4.045 -38.549,-3.607 0,0 -0.979,-1.826 1.596,-5.633 0,0 -4.012,-1.17 -17.195,-1.396 v -0.005 h -10e-4 z m 36.813,24.711 c -2.267,1.573 -4.226,3.123 -5.921,4.645 -47.202,-11.149 -88.473,-3.248 -88.473,-3.248 51.106,-13.406 94.394,-1.397 94.394,-1.397 m -88.567,87.891997 c -16.457,-20.198 -9.53,-47.166997 -9.53,-47.166997 0,0 0.614,23.127997 20.808,43.576997 20.199,20.445 45.265,25.987 45.265,25.987 0,0 -40.084,-2.203 -56.543,-22.397 m 72.6,-62.343997 c -43.103,-2.983 -77.286,7.574 -77.286,7.574 31.083,-11.947 60.178,-13.517 77.451,-13.05 -0.391,2.084 -0.375,3.929 -0.165,5.476 m 2.071,-10.97 c -44.1,-6.079 -80.275,2.939 -80.275,2.939 35.52,-11.446 67.83,-10.02 83.745,-8.194 -1.489,1.827 -2.625,3.584 -3.47,5.255 m 75.642,98.017997 c 3.249,23.7 -17.823,33.649 -29.53,33.649 -11.71,0 -27.812,-4.975 -33.954,-24.875 -6.147,-19.906 -6.147,-44.488 1.755,-56.497 0,0 -5.267,23.715 -2.34,37.177 2.928,13.462 8.487,24.879 19.317,26.931 10.832,2.046 26.926,1.464 32.787,-5.271 5.849,-6.731 8.188,-16.396 2.337,-29.567 -5.853,-13.172 -17.56,-30.144 1.78,-47.102 0,0 -8.516,10.223 -5.29,25.155 3.217,14.927 9.89,16.706 13.138,40.4 m -21.208,2.182 c 9.226,-6.733 8.229,-19.954 8.229,-19.954 2.248,5.24 3.492,12.223 2.248,17.213 -1.252,4.982 -4.497,9.971 -17.956,11.216 -13.468,1.242 -21.196,-2.987 -21.196,-2.987 5.985,-5.988 11.806,-22.194 11.806,-22.194 2.993,11.476 0.44,16.792 0.44,16.792 6.486,1.99 16.429,-0.086 16.429,-0.086 m 12.798,-43.287 c 0,0 5.594,-12.286 3.081,-27.366997 0,0 -10.617,-3.906 -29.889,0 0,0 -9.211,20.663997 -20.943,30.718997 0,0 8.938,-20.946 3.635,-36.584997 0,0 16.193,-6.421 36.021,-5.027 19.831,1.396 24.301,5.585 24.301,5.585 0,0 -5.03,23.742997 -16.206,32.674997"
     id="path14"
     inkscape:connector-curvature="0" />
  <path
     d="m 470.493,92.636763 c -17.395,-9.492 -37.123,-12.441 -52.249,-13.027 h -0.088 0.088 c 0.57,-1.918 1.261,-4.355 1.928,-6.984 l 0.573,-0.038 c 30.326,-0.995 46.357,7.029 46.357,7.029 l -1.525,-1.175 c -14.779,-6.85 -30.396,-9.346 -43.917,-9.731 h -0.548 c 0.471,-2.102 1.07,-6.368 1.195,-6.36 l 0.312,0.01 c 23.334,0.244 36.058,5.776 36.058,5.776 l -1.53,-1.205 c -11.571,-4.937 -23.408,-7.173 -34.488,-7.91 0.068,-4.315 -0.658,-7.871 -2.291,-10.941 8.555,-7.425 11.718,-18.735 12.17,-23.2 v -0.019 c 0.037,-0.147 0.113,-0.554 0.128,-0.64 l 0.028,-0.254 c 0.02,-0.156 0.025,-0.302 0.025,-0.442 l -0.003,-0.23 -0.037,-0.386 -0.031,-0.198 -0.103,-0.337 -0.06,-0.167 -0.139,-0.292 -0.085,-0.144 -0.174,-0.253 -0.099,-0.118 -0.208,-0.208 -0.113,-0.096 -0.23,-0.176 -0.107,-0.076 -0.241,-0.139 -0.11,-0.065 -0.25,-0.106 -0.105,-0.046 -0.235,-0.086 -0.097,-0.03 -0.228,-0.061 -0.076,-0.021 -0.202,-0.045 -0.065,-0.014 -0.158,-0.023 -0.04,-0.005 -0.185,-0.022 c -14.771,0.165 -26.915,-4.855 -26.915,-4.855 l -0.991,-0.358 C 368.571,2.9477629 334.469,-0.4962371 304.099,0.0557629 l -0.009,-0.029 c -13.559,0.122 -23.468,1.234 -23.468,1.234 -43.595,3.685 -74.85,14.1260001 -74.85,14.1260001 0,0 -11.866,3.351 -27.668,2.564 0,0 -5.866,-0.101 -7.026,3.627 -0.994,2.378 -1.127,5.212 1.11,11.409 2.575,7.143 12.88,20.569 12.959,20.676 C 153.965,66.322763 72.757,111.87476 0,203.46076 c 0,0 15.374,-3.998 39.555,-6.831 47.989,-90.069 166.431,-147.708997 166.431,-147.708997 -7.663,0.82 -14.123,2.188 -14.123,2.188 -10.807,-7.765 -19.012,-22.879 -20.385,-25.515 l 0.282,0.538 c 0,0 -0.61,-1.378 -0.524,-2.373 l 0.041,-0.26 0.069,-0.197 c 0.62,-1.427 2.112,-1.523 4.098,-1.27 0.115,0.01 0.242,0.036 0.371,0.071 4.898,0.723 18.504,4.249 37.788,2.131 20.232,-2.229 27.571,-8.45 27.355,-10.236 0,0 15.324,-7.2980001 34.621,-8.5820001 19.294,-1.291 45.022,4.339 55.153,17.3630001 1.859,2.378 2.91,4.241 3.41,5.697 0.631,-1.01 0.96,-2.237 0.82,-3.64 -0.542,-5.216 -6.908,-10.718 -12.59,-13.958 -5.003,-2.8500001 -17.479,-7.4440001 -10.341,-7.0610001 7.13,0.381 44.139,5.774 58.132,14.8280001 8.614,5.571 9.384,11.29 9.384,11.29 0,0 10.626,-4.376 22.466,0.459 11.854,4.844 14.566,11.106 16.923,15.405 0,0 -1.249,-12.533 -11.953,-20.628 0,0 2.648,-0.013 6.84,-0.354 l 0.198,-0.018 1.409,-0.126 0.374,-0.035 0.534,-0.05 h -0.009 c 3.246,-0.327 7.11,-0.832 11.293,-1.628 2.862,-0.227 4.225,-0.084 4.903,1.873 l 0.015,0.03 -0.159,0.566 c -0.077,0.227 -0.159,0.463 -0.267,0.717 0,0 -4.416,13.227 -12.63,19.187 l -0.546,0.466 c 0,0 -12.752,-2.885 -24.535,-0.887 -11.789,2.006 -14.013,7.858 -14.013,7.858 0,0 14.325,5.251 16.083,16.3 1.757,11.05 -5.023,19.589 -8.786,22.102 0,0 16.066,-6.284 15.311,-21.85 -0.247,-5.058 -2.715,-8.572 -5.932,-11.017 l 0.006,0.003 c 0,0 4.623,1.437 7.198,3.861 1.178,1.111 2.47,2.265 3.626,3.736 1.349,1.763 1.794,2.889 1.8,2.889 0.554,1.173 1,2.529 1.278,4.123 0.996,5.692 -0.744,11.245 -0.744,11.245 -7.567,30.739997 -37.316,69.799997 -37.316,69.799997 l 0.012,-0.014 c 22.494,-19.189 37.483,-53.136 44.048,-70.237997 35.462,0.384 54.836,10.257 54.836,10.257 l -1.317,-1.33 z"
     id="path16"
     inkscape:connector-curvature="0"
     style="fill:#0099d8" />
</svg>
