<?xml version="1.0" encoding="UTF-8" standalone="no"?>
<svg
   xmlns:dc="http://purl.org/dc/elements/1.1/"
   xmlns:cc="http://creativecommons.org/ns#"
   xmlns:rdf="http://www.w3.org/1999/02/22-rdf-syntax-ns#"
   xmlns:svg="http://www.w3.org/2000/svg"
   xmlns="http://www.w3.org/2000/svg"
   xmlns:sodipodi="http://sodipodi.sourceforge.net/DTD/sodipodi-0.dtd"
   xmlns:inkscape="http://www.inkscape.org/namespaces/inkscape"
   width="460.44"
   height="310.90076"
   viewBox="0 0 460.44 310.90076"
   id="svg2"
   version="1.1"
   inkscape:version="0.48.4 r9939"
   sodipodi:docname="chicago-bears.svg">
  <metadata
     id="metadata22">
    <rdf:RDF>
      <cc:Work
         rdf:about="">
        <dc:format>image/svg+xml</dc:format>
        <dc:type
           rdf:resource="http://purl.org/dc/dcmitype/StillImage" />
      </cc:Work>
    </rdf:RDF>
  </metadata>
  <defs
     id="defs20" />
  <sodipodi:namedview
     pagecolor="#ffffff"
     bordercolor="#666666"
     borderopacity="1"
     objecttolerance="10"
     gridtolerance="10"
     guidetolerance="10"
     inkscape:pageopacity="0"
     inkscape:pageshadow="2"
     inkscape:window-width="640"
     inkscape:window-height="480"
     id="namedview18"
     showgrid="false"
     inkscape:zoom="0.4609375"
     inkscape:cx="229.67"
     inkscape:cy="155.61486"
     inkscape:window-x="65"
     inkscape:window-y="24"
     inkscape:window-maximized="0"
     inkscape:current-layer="svg2" />
  <g
     id="g4"
     transform="translate(-26.33,-100.71409)">
    <g
       id="g6">
      <path
         d="m 400.5,273.7 h 80.6 C 458.6,424.3 165.6,461.2 78.7,305.8 64.1,279.7 46.4,268.2 32,261.6 48,255.3 71.5,233.7 79.3,213.1 132.3,72 397.3,74 470.2,200.4 H 374.4 C 297,138.6 142.3,167.1 142.3,261.6 c 0,66.2 183.9,141.5 258.2,12.1 z m 63.6,12.1 h -54.5 c -74.3,129.4 -281.2,60.7 -281.2,-24.2 0,-104.8 172.3,-135.8 249.7,-73.9 h 66.7 C 369.4,99.4 155.6,78.4 89.6,219.7 c -5.7,15.6 -16.2,29.5 -31.5,41.8 14.4,6.7 24.8,19.4 32.7,35.8 85.9,156.8 350.8,96.7 373.3,-11.5 z"
         id="path8"
         inkscape:connector-curvature="0"
         style="fill:#ffffff" />
      <path
         d="m 409.6,285.8 h 54.5 C 441.6,394 176.7,454.1 90.8,297.3 82.8,281 72.5,268.2 58.1,261.5 73.5,249.2 84,235.2 89.6,219.7 155.6,78.4 369.5,99.4 444.7,187.6 H 378 c -77.4,-61.8 -249.7,-30.9 -249.7,73.9 0.1,85 207,153.7 281.3,24.3 z"
         id="path10"
         inkscape:connector-curvature="0"
         style="fill:#df6108" />
      <g
         id="g12"
         style="fill:none;stroke:#03182f;stroke-width:11.34000015;stroke-linecap:square;stroke-linejoin:round">
        <path
           d="M 470.2,200.3"
           id="path14"
           inkscape:connector-curvature="0" />
        <path
           d="M 470.2,200.3 C 397.3,74 132.3,72 79.3,213.1 71.5,233.7 48,255.3 32,261.6 c 14.4,6.7 32.1,18.2 46.7,44.2 86.9,155.4 379.9,118.5 402.4,-32.1 h -80.6 c -74.3,129.4 -258.2,54.1 -258.2,-12.1 0,-94.5 154.8,-123 232.1,-61.2 h 95.8 z"
           id="path16"
           inkscape:connector-curvature="0" />
      </g>
    </g>
  </g>
</svg>
