<?xml version="1.0" encoding="UTF-8" standalone="no"?>
<svg
   xmlns:dc="http://purl.org/dc/elements/1.1/"
   xmlns:cc="http://creativecommons.org/ns#"
   xmlns:rdf="http://www.w3.org/1999/02/22-rdf-syntax-ns#"
   xmlns:svg="http://www.w3.org/2000/svg"
   xmlns="http://www.w3.org/2000/svg"
   xmlns:sodipodi="http://sodipodi.sourceforge.net/DTD/sodipodi-0.dtd"
   xmlns:inkscape="http://www.inkscape.org/namespaces/inkscape"
   width="441.77499"
   height="334.56125"
   viewBox="0 0 441.77499 334.56125"
   id="svg2"
   version="1.1"
   inkscape:version="0.48.4 r9939"
   sodipodi:docname="cleveland-browns.svg">
  <metadata
     id="metadata80">
    <rdf:RDF>
      <cc:Work
         rdf:about="">
        <dc:format>image/svg+xml</dc:format>
        <dc:type
           rdf:resource="http://purl.org/dc/dcmitype/StillImage" />
      </cc:Work>
    </rdf:RDF>
  </metadata>
  <defs
     id="defs78" />
  <sodipodi:namedview
     pagecolor="#ffffff"
     bordercolor="#666666"
     borderopacity="1"
     objecttolerance="10"
     gridtolerance="10"
     guidetolerance="10"
     inkscape:pageopacity="0"
     inkscape:pageshadow="2"
     inkscape:window-width="640"
     inkscape:window-height="480"
     id="namedview76"
     showgrid="false"
     inkscape:zoom="0.4609375"
     inkscape:cx="220.48573"
     inkscape:cy="166.72771"
     inkscape:window-x="65"
     inkscape:window-y="24"
     inkscape:window-maximized="0"
     inkscape:current-layer="svg2" />
  <g
     id="g4"
     transform="translate(-35.514275,-88.166469)">
    <g
       id="g6">
      <path
         d="m 64.6,356.9 c -1.7,9.6 0.5,20 4.7,27.7 2.5,4.6 4.3,8.6 4.4,13.2 0.5,26 56.5,5.3 60.1,-3.4"
         id="path8"
         inkscape:connector-curvature="0"
         style="fill:#ffffff;stroke:#000000;stroke-width:1.94299996" />
      <path
         d="m 355.5,171 c 2.8,5.3 -24,1.5 -30,1.9 -3,0.2 -9.8,0.9 -5.5,11.4 3.6,8.7 4,12.9 6.6,18.8 7.2,16 1.5,22.6 -8.7,23.6 -53.6,5.3 -75.2,41.8 -53,101.1 45.2,120.5 -94.4,98.6 -123,72.6 -11.1,-10.1 -24.4,-15.2 -39.7,-9.6 C 90.8,395 85.3,392.6 81,385.6 -83.5,117.1 264.6,-1.7 355.5,171 z"
         id="path10"
         inkscape:connector-curvature="0"
         style="fill:#de6108;stroke:#000000;stroke-width:3.88499999" />
      <path
         d="m 325.8,173 16,0.3 c -27.3,-52 -83.7,-87 -161.5,-79.1 65.1,-0.7 117.3,29.3 145.5,78.8 z"
         id="path12"
         inkscape:connector-curvature="0"
         style="fill:#312821" />
      <path
         d="m 359.7,175.1 c 1.7,-0.9 14.5,-6.2 14.5,-6.2 L 391,200 c 11.1,20.5 -14.5,22.9 -18.5,11.4 l -12.8,-36.3 z"
         id="path14"
         inkscape:connector-curvature="0"
         style="fill:#7f8180;stroke:#000000;stroke-width:1.94299996" />
      <path
         d="m 268.1,395.3 c 37.2,3.9 93.3,-5.2 70.4,-92.8 -4.9,-18.8 -8.1,-53.6 19.4,-62.9 14.2,-4.8 20.5,-10.7 13.6,-30.8 L 359.8,175 326.7,172.9 c -6.6,-0.4 -8.9,3.9 -6.8,9.9 l 10.2,28.1 c 3.4,9.4 -3.1,15.5 -10.2,16.3 -64.5,7.3 -72.2,50.7 -54.6,99.9 9.6,26.9 12.6,49 2.8,68.2 z"
         id="path16"
         inkscape:connector-curvature="0"
         style="stroke:#000000;stroke-width:1.94299996" />
      <path
         d="m 338.8,171.7 h 15.9 C 330.2,120.3 263,78.9 181.7,93.9 c 71.7,-6.8 134.1,25.7 157.1,77.8 z"
         id="path18"
         inkscape:connector-curvature="0"
         style="fill:#ffffff" />
      <path
         d="m 357.9,239.5 c 14.2,-4.8 20.5,-10.7 13.6,-30.8 L 359.8,175 326.7,172.9 c -6.6,-0.4 -8.9,3.9 -6.8,9.9 l 10.2,28.1 c 3.4,9.4 -3.1,15.5 -10.2,16.3 -5.4,0.6 -10.5,1.5 -15.2,2.6 11,6.1 73.4,-5.1 53.2,9.7 z m 0,0 c 14.2,-4.8 20.5,-10.7 13.6,-30.8 l -11.7,-33.7 -29,-1.8 c -6.6,-0.4 -8.9,3.9 -6.8,9.9 l 10.2,28.1 c 3.4,9.4 -2.9,18.4 -10,19.2 -5.4,0.6 -15.1,0.8 -19.5,-0.5 11,6 73.4,-5.2 53.2,9.6 z"
         id="path20"
         inkscape:connector-curvature="0"
         style="fill:#ffffff;stroke:#000000;stroke-width:1.94299996" />
      <path
         d="M 287.8,238 C 244.5,262.2 257.2,304 274.5,347.7 260.3,299 250.9,263.9 287.8,238 z"
         id="path22"
         inkscape:connector-curvature="0"
         style="fill:#d6d6d6" />
      <path
         d="m 157.1,381.2 c 0.7,4.3 -2.1,7.7 -6.2,7.7 -4.1,0 -8,-3.5 -8.7,-7.7 -0.7,-4.3 2.1,-7.7 6.2,-7.7 4.1,0 8,3.5 8.7,7.7 z"
         id="path24"
         inkscape:connector-curvature="0"
         style="fill:#ffffff;stroke:#000000;stroke-width:2.46799994" />
      <path
         d="m 358.8,200.7 c 1.4,-1.2 22.8,0.5 25,1.3 6.2,2.3 5.5,11.2 -0.7,9.8 -8.3,-1.9 -16,-1.9 -24.2,-2.4 l -0.1,-8.7 z"
         id="path26"
         inkscape:connector-curvature="0"
         style="fill:#7f8180;stroke:#000000;stroke-width:1.94299996" />
      <path
         d="m 276.5,352.7 c 0.4,12.3 1,24.5 -5,38.4 38,5.3 89.3,-19.4 59.1,-92.9 -8.7,-21.1 -39.1,-18.5 -34.9,12 3.5,25.5 -8.5,35 -19.2,42.5 z"
         id="path28"
         inkscape:connector-curvature="0"
         style="fill:#ffffff" />
      <path
         d="m 162.5,305.7 c -10.4,0.1 -18.6,8.2 -18.7,19 -0.1,11.6 9.1,21.9 20.5,23 2.4,0.2 4.7,0 6.8,-0.5 L 185,327 c -0.8,-10.9 -9.6,-20.1 -20.4,-21.2 -0.7,-0.1 -1.4,-0.1 -2.1,-0.1 z M 119.8,382 c 12.7,5.2 27.3,16.1 39.8,21 82.1,32.5 129.7,-20 97.2,-79 24.5,80.2 -36.7,100.4 -97.2,76.6 -13.9,-5.4 -24.3,-14.8 -39.8,-18.6 z m 17.7,-23.7 c 16.1,22.8 48.7,22.4 61.4,5.6 -19.7,13.3 -41.2,11.6 -61.4,-5.6 z m -30,34.8 c 6.2,-1 11,-0.7 17.4,1.5 1,0.3 2.5,1 -1.7,3.1 -10.6,5.2 -21.5,9.1 -31.8,8.3 -1.9,-0.2 -3.6,-2.3 0.2,-3.9 4.6,-1.9 6.8,-4.8 6.3,-9.6 l 7.6,-2.4 c -0.5,1.3 -1.2,3.5 2,3 z"
         id="path30"
         inkscape:connector-curvature="0" />
      <path
         d="m 73,380.4 c 3,3.1 5,5.9 5.2,11.1 0.6,13.6 18.2,6.3 17.3,1.2"
         id="path32"
         inkscape:connector-curvature="0"
         style="fill:none;stroke:#000000;stroke-width:1.94299996" />
      <path
         d="m 342,247.4 c 2.3,-2.7 -0.8,-3.7 -2.3,-2.2 -14.6,14.4 -12.2,29.6 -8.6,41.8 1.4,4.6 2.8,2.8 2.2,-0.3 -3.4,-16.2 1.2,-30.4 8.7,-39.3 z"
         id="path34"
         inkscape:connector-curvature="0"
         style="fill:#ffffff" />
      <path
         d="m 355.5,171 c 2.8,5.3 -24,1.5 -30,1.9 -3,0.2 -9.8,0.9 -5.5,11.4 3.6,8.7 4,12.9 6.6,18.8 7.2,16 1.5,22.6 -8.7,23.6 -53.6,5.3 -75.2,41.8 -53,101.1 45.2,120.5 -94.4,98.6 -123,72.6 -11.1,-10.1 -24.4,-15.2 -39.7,-9.6 C 90.8,395 85.3,392.6 81,385.6 -83.5,117.1 264.6,-1.7 355.5,171 z"
         id="path36"
         inkscape:connector-curvature="0"
         style="fill:none;stroke:#000000;stroke-width:3.88499999" />
      <path
         d="m 336.8,263.2 c 17.3,26.7 36.7,44 106.1,34.1 7.3,-1 12.1,1 14.4,7.6 10.7,31.6 16.9,59.5 19,91.8 0.5,8.2 -9.7,11.1 -11.1,-0.2 -3.9,-31.3 -9.9,-59.1 -20.1,-89 -68.3,15.9 -98.7,-12.2 -109.9,-28.5 0,-5.2 0.1,-10.5 1.6,-15.8 z m -6.9,-78.3 c -1.7,-5.1 -2,-9.6 2.6,-11.7 l 8.7,-3.9 c 3.6,-1.6 8.7,-3.1 10.7,1.5 l 12.4,28.5 c 2.8,6.4 4.5,19.2 -7.7,18.9 l -8.5,-0.2 c -6.3,-0.2 -7.7,-2 -9.7,-8 l -8.5,-25.1 z"
         id="path38"
         inkscape:connector-curvature="0"
         style="fill:#7f8180;stroke:#000000;stroke-width:1.94299996" />
      <path
         d="m 338.7,170.5 c -4.5,2 -6.3,5.8 -4.4,11.9 l 8.7,23.7"
         id="path40"
         inkscape:connector-curvature="0"
         style="fill:none;stroke:#000000;stroke-width:1.94299996" />
      <g
         id="g42"
         style="fill:#7f8180;stroke:#000000">
        <path
           d="m 197.4,321.4 c -3.5,-2.2 -3.8,-5.5 -1.7,-8.7 l 8.4,-12.5 c 2.2,-3.2 4.2,-2.8 7.6,-0.7 l 27.9,17 c 13,7.9 -3.9,34.6 -16.4,26.4 l -25.8,-21.5 z m -0.5,-7.3 12.5,5.2 -19.3,30.6 c -5.2,8.3 -16.6,0 -11.7,-7.4 l 18.5,-28.4 z m 0.6,11.8 c -4.8,-3.2 -5.2,-8.3 -2.9,-11.7 l 6.8,-10.1 c 2.2,-3.2 0.5,-0.8 2.6,-3.8 l 33,20.2 c 13,7.9 -1.3,30.7 -13.7,22.5 l -25.8,-17.1 z"
           id="path44"
           inkscape:connector-curvature="0"
           style="stroke-width:1.94299996" />
        <path
           d="m 197.5,325.9 c -4.8,-3.2 -5.2,-8.3 -2.9,-11.7 l 4,-5.9 3.6,-5 c -0.3,3 2.6,4.7 5.7,6.6 l 25.6,15.7 c 13,7.9 2.1,25.7 -10.3,17.5 l -25.7,-17.2 z"
           id="path46"
           inkscape:connector-curvature="0"
           style="opacity:0.97000002;stroke-width:1.94299996;enable-background:new" />
        <path
           d="m 216.3,308.2 c -2.7,2.7 -13.2,-4 -11.5,-6.9 l 35.3,-53.2 c 12.8,-19.6 28.7,-29 47.2,-34.5 17.7,-5.3 35.4,-7.7 53,-11.1 7.6,-1.5 10.8,7.9 0.6,10.2 -19.2,4.3 -38.6,8.1 -56.7,14.5 -16.1,5.7 -27.4,17.1 -37.6,33.3 l -30.3,47.7 z"
           id="path48"
           inkscape:connector-curvature="0"
           style="stroke-width:1.94299996" />
        <path
           d="m 231.3,336.8 c -1.1,2.4 -4.3,3.3 -7.3,2.1 -3.1,-1.3 -4.8,-4.5 -3.9,-7.1 0.4,-1 1.2,-1.9 2.1,-2.4"
           id="path50"
           inkscape:connector-curvature="0" />
        <path
           d="m 233.4,334.5 c -1,2.6 -4.3,3.7 -7.4,2.4 -3.1,-1.3 -4.8,-4.5 -3.9,-7.1 1,-2.6 4.3,-3.7 7.4,-2.4 3.1,1.3 4.9,4.5 3.9,7.1 z m -11.6,-4.7 c -1,2.8 -4.6,4.2 -7.9,2.8 -3.3,-1.4 -4.9,-4.7 -4.1,-7.5 0.4,-1.6 2.8,-4.1 3,-4.1"
           id="path52"
           inkscape:connector-curvature="0" />
        <path
           d="m 223.5,327.7 c -1,2.8 -4.6,3.9 -7.9,2.5 -3.3,-1.4 -5.1,-4.7 -4.1,-7.5 1,-2.8 4.6,-3.9 7.9,-2.5 3.3,1.3 5.1,4.7 4.1,7.5 z"
           id="path54"
           inkscape:connector-curvature="0" />
        <path
           d="m 217.3,319.8 0.5,10.9"
           id="path56"
           inkscape:connector-curvature="0"
           style="stroke-width:1.5" />
      </g>
      <path
         d="M 252.3,234.3 316,373.9 c 32.8,71.9 120.3,41.9 146.1,34.9 16,-4.3 17.7,-13.5 -2.8,-17.9 -25.8,-5.4 -46.2,-19.1 -56,-43 L 358.8,239.5 c -1.3,-3.2 -12.9,1.1 -10.9,5.9 L 391,347.3 c 11,26 30.4,48.6 52.8,50.6 5.6,0.5 23.2,-1.6 -12.9,5.7 -42.6,8.6 -85.3,6.3 -102.7,-31.6 L 261.5,227 c -1.3,-2.8 -11.2,3 -9.2,7.3 z M 220,280.2 247.8,308 c 15,15 36.9,24.6 79.9,19.7 50.5,-5.7 86.7,-12.7 117.2,-18.2 5.1,-0.9 6.3,-12.9 -3.7,-11.1 -38.5,6.9 -77,13.3 -116,17.3 -39.1,4 -57.9,-2.8 -69.4,-15.1 l -27.9,-29.8 c -2.4,-2.5 -11.5,5.8 -7.9,9.4 z M 399.5,339 c 18.9,1.4 32.7,-1 50,-3.9 16.2,-2.8 16.4,13.1 6.5,15.1 -36.9,7.6 -72.7,15.3 -112.6,19.1 -13,1.2 -25.8,4 -38.6,1.8 L 188.2,352 c 1.5,-1.1 4.6,-6.1 7.5,-10.8 l 105.8,18.3 c 13.7,2.4 27.6,0.4 41.9,-1.5 38.1,-5.3 74.3,-10.8 108.9,-19.1 -17.2,4 -33.4,8.1 -49.4,9.2 m -11.5,0.3 c -4.4,-0.1 -8.8,-0.5 -13.2,-1.2 l -34.4,-5.5 -0.3,-11.1 39.4,6.5 4.2,0.7"
         id="path58"
         inkscape:connector-curvature="0"
         style="fill:#7f8180;stroke:#000000;stroke-width:1.94299996" />
      <path
         d="m 431.9,416.6 c 2,2 10.1,1.1 10.2,-2.6 1.3,-45.7 -9.3,-80.7 -24.2,-111 -1.5,-3 -9.1,-1.8 -10,1.4 -0.9,3.2 0,0.7 4,10.9 4.1,10.2 7.4,20.3 10.1,30.1 2.7,9.8 -1.1,-6 2.8,11.1 3.9,17.1 6,33.2 6.5,47"
         id="path60"
         inkscape:connector-curvature="0"
         style="fill:#7f8180;stroke:#000000;stroke-width:1.94299996;stroke-linecap:round" />
      <path
         d="M 353.9,208.9 H 366 v 3.8 h -12.1 v -3.8 z m -7,-34.1 c -0.2,0 -0.5,0 -0.7,0.1 -1.8,0.6 -2.4,3.2 -1.4,6 1.1,2.7 3.4,4.4 5.3,3.9 1.8,-0.6 2.4,-3.2 1.4,-6 l -0.1,-0.1 c -1,-2.4 -2.9,-3.9 -4.5,-3.9 z m -0.3,0.8 c 1.2,0 2.5,1.2 3.2,3 v 0.1 c 0.8,2.1 0.4,4.2 -1,4.7 -1.3,0.4 -3,-0.9 -3.8,-3.1 -0.8,-2.1 -0.3,-4.2 1,-4.6 0.2,-0.1 0.4,-0.1 0.6,-0.1 z m 4.3,8.7 c -0.2,0 -0.5,0 -0.7,0.1 -1.8,0.6 -2.4,3.2 -1.4,6 1.1,2.7 3.4,4.4 5.3,3.9 1.8,-0.6 2.4,-3.2 1.4,-6 l -0.1,-0.1 c -1,-2.3 -2.9,-3.9 -4.5,-3.9 z m -0.3,1.1 c 1.2,0 2.6,1.2 3.2,3 v 0.1 c 0.8,2.1 0.3,4.2 -1,4.7 -1.3,0.4 -3,-0.9 -3.7,-3.1 -0.8,-2.1 -0.4,-4.2 1,-4.6 0.1,-0.1 0.3,-0.1 0.5,-0.1 z"
         id="path62"
         inkscape:connector-curvature="0" />
      <path
         d="m 365.1,172.7 11.6,27.8"
         id="path64"
         inkscape:connector-curvature="0"
         style="fill:none;stroke:#000000;stroke-width:1.94299996" />
      <path
         d="m 153.5,381.9 c 0.4,2.7 -1.3,5 -4,5 -2.7,0 -5.1,-2.2 -5.5,-5 -0.4,-2.7 1.3,-5 4,-5 2.6,0 5.1,2.2 5.5,5 z m -2.3,2.8 c 0.4,2.7 -1.3,5 -4,5 -2.6,0 -5.1,-2.2 -5.5,-5 -0.4,-2.7 1.3,-5 4,-5 2.6,0 5.1,2.3 5.5,5 z m 82.1,-14.6 c 0,4.8 -3.9,8.7 -8.7,8.7 -4.8,0 -8.7,-3.9 -8.7,-8.7 0,-4.8 3.9,-8.7 8.7,-8.7 4.8,-0.1 8.7,3.8 8.7,8.7 z"
         id="path66"
         inkscape:connector-curvature="0"
         style="fill:#ffffff;stroke:#000000;stroke-width:1.94299996" />
      <path
         d="m 231.7,371.8 c 0,3.9 -3.2,7.1 -7.1,7.1 -3.9,0 -7.1,-3.2 -7.1,-7.1 0,-3.9 3.2,-7.1 7.1,-7.1 3.9,-0.1 7.1,3.1 7.1,7.1 z m -1.7,1.7 c 0,3 -2.4,5.4 -5.4,5.4 -3,0 -5.4,-2.4 -5.4,-5.4 0,-3 2.4,-5.4 5.4,-5.4 3,0 5.4,2.4 5.4,5.4 z M 344.7,168.2 c -6.5,1.7 -5.2,6.5 -2.7,12.5 l 9.9,21.7 c 3.1,6.7 3.3,11.5 -2.5,15.5"
         id="path68"
         inkscape:connector-curvature="0"
         style="fill:none;stroke:#000000;stroke-width:1.94299996" />
      <path
         d="m 403.2,347.9 -8.2,-20 m -11.1,2.6 7.1,16.8 c 0.5,1.1 0.9,2.2 1.4,3.2"
         id="path70"
         inkscape:connector-curvature="0"
         style="fill:#ff00ff;stroke:#000000;stroke-width:1.94299996" />
      <path
         d="m 421,346.3 3.1,-0.6 1.6,10.2 -2.1,0.4 -2.6,-10 z m -14.2,-41.3 2.5,-0.4 3.4,10.1 -1.9,0.3 -4.4,-9.3 0.4,-0.7 z"
         id="path72"
         inkscape:connector-curvature="0"
         style="fill:#7f8180" />
      <path
         d="m 229.4,372.2 c 0,2.4 -2.2,4.3 -4.9,4.3 -2.7,0 -4.9,-1.9 -4.9,-4.3 0,-2.4 2.2,-4.3 4.9,-4.3 2.7,0 4.9,2 4.9,4.3 z m -85.7,8.5 c -2.1,3.3 5.7,7.5 7.1,5.7 0.4,-3.7 -2.4,-7.6 -7.1,-5.7 z m 49.7,-35.6 v 7.6 l -4.9,-0.8 4.9,-6.8 z M 302.8,329 c -2.8,1.3 -4.7,3.3 -4.6,6.6 l -2.9,-7.1 7.5,0.5 z m 20.9,42.9 c -2.8,1.3 -5.3,3.9 -5.2,7.2 l -2.9,-7.1 8.1,-0.1 z"
         id="path74"
         inkscape:connector-curvature="0" />
    </g>
  </g>
</svg>
