<?xml version="1.0" encoding="UTF-8" standalone="no"?>
<svg
   xmlns:dc="http://purl.org/dc/elements/1.1/"
   xmlns:cc="http://creativecommons.org/ns#"
   xmlns:rdf="http://www.w3.org/1999/02/22-rdf-syntax-ns#"
   xmlns:svg="http://www.w3.org/2000/svg"
   xmlns="http://www.w3.org/2000/svg"
   xmlns:sodipodi="http://sodipodi.sourceforge.net/DTD/sodipodi-0.dtd"
   xmlns:inkscape="http://www.inkscape.org/namespaces/inkscape"
   width="435.20001"
   height="285.60001"
   viewBox="0 0 435.20001 285.60001"
   id="svg2"
   version="1.1"
   inkscape:version="0.48.4 r9939"
   sodipodi:docname="green-bay-packers.svg">
  <metadata
     id="metadata18">
    <rdf:RDF>
      <cc:Work
         rdf:about="">
        <dc:format>image/svg+xml</dc:format>
        <dc:type
           rdf:resource="http://purl.org/dc/dcmitype/StillImage" />
      </cc:Work>
    </rdf:RDF>
  </metadata>
  <defs
     id="defs16" />
  <sodipodi:namedview
     pagecolor="#ffffff"
     bordercolor="#666666"
     borderopacity="1"
     objecttolerance="10"
     gridtolerance="10"
     guidetolerance="10"
     inkscape:pageopacity="0"
     inkscape:pageshadow="2"
     inkscape:window-width="640"
     inkscape:window-height="480"
     id="namedview14"
     showgrid="false"
     inkscape:zoom="0.4609375"
     inkscape:cx="217.1"
     inkscape:cy="142.6"
     inkscape:window-x="65"
     inkscape:window-y="24"
     inkscape:window-maximized="0"
     inkscape:current-layer="svg2" />
  <g
     id="g4"
     transform="translate(-38.9,-113)">
    <g
       id="g6">
      <path
         d="m 474.1,255.8 c 0,78.9 -97.4,142.8 -217.6,142.8 -120.2,0 -217.6,-63.9 -217.6,-142.8 0,-78.9 97.4,-142.8 217.6,-142.8 111,0 204.2,54.8 216.3,127.2"
         id="path8"
         inkscape:connector-curvature="0"
         style="fill:#f2c800" />
      <path
         d="m 451.5,205.1 c 43.1,70.3 -9.3,150.2 -117,178.3 -107.7,28.2 -230,-6.1 -273.2,-76.4 -43.1,-70.3 9.3,-150.2 117,-178.3 107.4,-28.1 229.3,5.8 272.8,75.8"
         id="path10"
         inkscape:connector-curvature="0"
         style="fill:#313f36" />
      <path
         d="M 71.3,255 C 71.2,192.4 163.5,138 264,140.1 c 104.2,-0.2 156,56.4 167.8,78.6 h -83.1 c -18.4,-30.6 -42.6,-43.4 -96,-43.1 -74.4,4 -108.2,46.4 -106.6,78.6 0.5,18.4 7.5,68.9 102.8,70.3 42.1,-1.6 92.5,-3.8 102.3,-44.1 L 224,280.7 v -32.5 l 216.9,1.5 c 2.5,59.3 -57.5,121 -191.7,123 C 135.3,371.9 69.3,305.3 71.3,255 z"
         id="path12"
         inkscape:connector-curvature="0"
         style="fill:#ffffff" />
    </g>
  </g>
</svg>
