<?xml version="1.0" encoding="UTF-8" standalone="no"?>
<svg
   xmlns:dc="http://purl.org/dc/elements/1.1/"
   xmlns:cc="http://creativecommons.org/ns#"
   xmlns:rdf="http://www.w3.org/1999/02/22-rdf-syntax-ns#"
   xmlns:svg="http://www.w3.org/2000/svg"
   xmlns="http://www.w3.org/2000/svg"
   xmlns:sodipodi="http://sodipodi.sourceforge.net/DTD/sodipodi-0.dtd"
   xmlns:inkscape="http://www.inkscape.org/namespaces/inkscape"
   width="362.94446"
   height="284.79999"
   viewBox="0 0 362.94446 284.79999"
   id="svg2"
   version="1.1"
   inkscape:version="0.48.4 r9939"
   sodipodi:docname="new-york-giants.svg">
  <metadata
     id="metadata16">
    <rdf:RDF>
      <cc:Work
         rdf:about="">
        <dc:format>image/svg+xml</dc:format>
        <dc:type
           rdf:resource="http://purl.org/dc/dcmitype/StillImage" />
      </cc:Work>
    </rdf:RDF>
  </metadata>
  <defs
     id="defs14" />
  <sodipodi:namedview
     pagecolor="#ffffff"
     bordercolor="#666666"
     borderopacity="1"
     objecttolerance="10"
     gridtolerance="10"
     guidetolerance="10"
     inkscape:pageopacity="0"
     inkscape:pageshadow="2"
     inkscape:window-width="640"
     inkscape:window-height="480"
     id="namedview12"
     showgrid="false"
     inkscape:zoom="0.4609375"
     inkscape:cx="181"
     inkscape:cy="143.5"
     inkscape:window-x="65"
     inkscape:window-y="24"
     inkscape:window-maximized="0"
     inkscape:current-layer="svg2" />
  <g
     id="g4"
     transform="translate(-75,-114.7)">
    <g
       id="g6">
      <path
         d="m 427.6,118.3 h -54.2 l 0.1,128 c 0,3.1 -0.8,18.7 -13.7,18.7 -4.8,0 -6.9,-1.6 -8.2,-2.9 -4,-4.1 -4.8,-12 -4.8,-14.7 L 346.7,118.3 H 259 v 52.2 h 10 c 9.1,0 12.1,2.3 13,3.3 0.9,1 1,2.3 1,3 v 0.6 l -0.1,0.7 v 87.1 c 0,16.7 5.5,31 16,41.4 10.9,10.8 26.5,16.8 44,16.8 12.9,0 23.2,-3.1 31,-6.8 v 3.7 c 0,8.8 -0.3,16.3 -1.6,17.9 -0.4,0.3 -2.3,1.3 -11.4,1.3 h -260 v 60 h 279.7 c 20.5,0 36,-6 46,-17.4 10,-11.5 11.3,-25.4 11.3,-32.5 0,-1.8 0.1,-3.1 0,-4 V 118.3 H 427.6 z M 100.7,319.6 h 62.2 l -0.1,-133.4 -0.1,-0.7 c 0,-0.1 -0.6,-5.4 2.5,-8.8 2.8,-3.1 8.2,-3.8 12.2,-3.8 4.3,0 7.4,1 9.5,3.1 2.9,2.9 3.5,7.9 3.5,9.6 v 0.3 l 0.1,100.6 v -0.4 c -0.1,1.5 -0.3,15.4 9,25 5.4,5.5 12.8,8.5 21.4,8.5 h 53.3 V 267 l -11.4,1.5 c -1.3,0.2 -5.5,0.2 -7.7,-1.7 -1.8,-1.6 -2.3,-4.8 -2.3,-7.2 v -94.9 0.4 c 0,-0.9 0.8,-21.1 -13.4,-35.8 -9.3,-9.7 -22.5,-14.6 -39.1,-14.6 -17.1,0 -29.5,4.8 -38.3,10.6 v -6.9 H 75 V 173 l 12.1,-2.6 c 2.4,-0.5 8.3,-0.8 11,1.7 2,1.8 2.6,5.3 2.6,8.5 v 139 z"
         id="path8"
         inkscape:connector-curvature="0"
         style="fill:#b21e35" />
      <path
         d="m 288.3,265.1 c 0,15.2 5,28.2 14.3,37.5 9.8,9.8 24.1,15.2 40.1,15.2 17.1,0 29.2,-5.8 36.5,-10.7 v 4 c 0,3.4 0.1,6.5 0.1,9.4 0,11.5 -0.5,18.6 -3.2,21.3 -2,2 -6.5,2.9 -15.3,2.9 L 106.2,345 v 49.1 l 274.2,-0.2 c 18.8,0 32.9,-5.2 41.9,-15.5 8.9,-10.1 10.2,-22.4 10.2,-28.8 0,-2 -0.1,-3.3 -0.2,-3.9 0,-0.5 -0.2,-222 -0.2,-222 H 379 l 0.1,122.5 c 0,1 -0.3,24.1 -19.2,24.2 -5.1,0 -9.1,-1.5 -12.1,-4.6 -6.5,-6.7 -6.3,-18.5 -6.3,-18.6 0,-0.1 -0.1,-123.5 -0.1,-123.5 h -76.9 v 41.2 h 4.5 c 8.4,0 14.3,1.9 17.3,5.4 2.9,3.5 2.1,7.8 2.1,8 v 86.8 z m -182.1,49 h 51.2 l -0.1,-127.7 v -0.3 c 0,-0.1 -0.9,-7.7 3.7,-13 3.3,-3.8 8.8,-5.7 16.3,-5.7 5.8,0 10.4,1.6 13.4,4.7 5.1,5.3 5,13.4 5,13.5 0,0.1 0.1,100.8 0.1,100.8 0,0.4 -0.4,12.7 7.5,20.8 4.4,4.5 10.2,6.8 17.5,6.8 h 47.9 v -41 l -5.1,0.7 c -0.1,0 -7.4,1 -12.1,-3 -2.7,-2.3 -4.1,-6.2 -4.1,-11.4 l -0.1,-94.9 c 0,-0.6 0.6,-18.6 -12,-31.6 -8.3,-8.6 -20.1,-12.9 -35.1,-12.9 -22.5,0 -36.1,8.8 -43.8,16.6 v -12.9 h -76 V 166 l 5.5,-1.2 c 0.1,0 10.1,-2.2 15.8,2.9 2.9,2.6 4.4,6.8 4.4,12.5 v 133.9 h 0.1 z"
         id="path10"
         inkscape:connector-curvature="0"
         style="fill:#25316a" />
    </g>
  </g>
</svg>
