<?xml version="1.0" encoding="UTF-8" standalone="no"?>
<svg
   xmlns:dc="http://purl.org/dc/elements/1.1/"
   xmlns:cc="http://creativecommons.org/ns#"
   xmlns:rdf="http://www.w3.org/1999/02/22-rdf-syntax-ns#"
   xmlns:svg="http://www.w3.org/2000/svg"
   xmlns="http://www.w3.org/2000/svg"
   xmlns:sodipodi="http://sodipodi.sourceforge.net/DTD/sodipodi-0.dtd"
   xmlns:inkscape="http://www.inkscape.org/namespaces/inkscape"
   width="385.79999"
   height="385.79999"
   viewBox="0 0 385.79999 385.79999"
   id="svg2"
   version="1.1"
   inkscape:version="0.48.4 r9939"
   sodipodi:docname="pittsburgh-steelers.svg">
  <metadata
     id="metadata24">
    <rdf:RDF>
      <cc:Work
         rdf:about="">
        <dc:format>image/svg+xml</dc:format>
        <dc:type
           rdf:resource="http://purl.org/dc/dcmitype/StillImage" />
      </cc:Work>
    </rdf:RDF>
  </metadata>
  <defs
     id="defs22" />
  <sodipodi:namedview
     pagecolor="#ffffff"
     bordercolor="#666666"
     borderopacity="1"
     objecttolerance="10"
     gridtolerance="10"
     guidetolerance="10"
     inkscape:pageopacity="0"
     inkscape:pageshadow="2"
     inkscape:window-width="640"
     inkscape:window-height="480"
     id="namedview20"
     showgrid="false"
     inkscape:zoom="0.4609375"
     inkscape:cx="192.4"
     inkscape:cy="194.4"
     inkscape:window-x="65"
     inkscape:window-y="24"
     inkscape:window-maximized="0"
     inkscape:current-layer="svg2" />
  <g
     id="g4"
     transform="translate(-63.6,-64.6)">
    <g
       id="g6">
      <path
         stroke-miterlimit="10"
         d="m 256.5,66.1 c -105.7,0 -191.4,85.7 -191.4,191.4 0,105.7 85.7,191.4 191.4,191.4 105.7,0 191.4,-85.7 191.4,-191.4 0,-105.7 -85.7,-191.4 -191.4,-191.4 z m 0,353.5 C 167,419.6 94.3,347 94.3,257.4 c 0,-89.6 72.6,-162.2 162.2,-162.2 89.6,0 162.2,72.6 162.2,162.2 0.1,89.6 -72.6,162.2 -162.2,162.2 z"
         id="path8"
         inkscape:connector-curvature="0"
         style="fill:#9babb6;stroke:#000000;stroke-width:3;stroke-miterlimit:10" />
      <path
         d="m 172.9,253.7 c 0,-2.5 -0.6,-3.3 -2.5,-3.3 -2.4,0 -2.3,2.2 -2.3,4.5 v 1 h 4.9 v -2.2 z m -21.2,-3.3 c -2.4,0 -2.3,2.2 -2.3,4.5 v 1 h 4.9 v -2.2 c -0.1,-2.5 -0.7,-3.3 -2.6,-3.3 z m 50.3,3.3 c 0,-2.5 -0.6,-3.3 -2.5,-3.3 -2.4,0 -2.3,2.2 -2.3,4.5 v 1 h 4.9 v -2.2 z M 256.5,95.2 c -89.6,0 -162.2,72.6 -162.2,162.2 0,89.6 72.6,162.2 162.2,162.2 89.6,0 162.2,-72.6 162.2,-162.2 C 418.8,167.8 346.1,95.2 256.5,95.2 z M 121.7,272.3 c -6.3,0 -8.5,-4.1 -8.5,-10 v -2.4 h 5.2 v 1.9 c -0.1,3.2 0.7,5.6 3.3,5.6 2.2,0 3.3,-1.4 3.3,-3.9 0,-1.9 -0.8,-3.3 -2.1,-4.4 -2.7,-2.5 -6.1,-4.3 -8.3,-7.6 -0.9,-1.5 -1.3,-3.3 -1.3,-5.1 0,-5.6 2.7,-8.7 8.2,-8.7 8.3,0 8.1,7.6 8.2,10.8 h -5.1 c 0,-3 -0.2,-5.9 -3.1,-5.9 -1.8,0 -2.9,0.8 -2.9,3.1 0,2.5 1.3,3.5 3,4.7 1.7,1.3 4.9,3.7 6.4,5.4 1.8,2.1 2.4,4 2.4,6.9 0,6.4 -3.6,9.6 -8.7,9.6 z m 19.9,-21.4 h -2.1 v 15.4 c 0.1,1.1 1.5,0.9 2.1,0.8 v 4.5 c -2.9,0.4 -6.9,0.7 -6.9,-3.9 v -16.8 h -2 v -4.2 h 1.9 v -2 l 4.9,-4.8 v 6.8 h 2.1 v 4.2 z m 17.5,9.4 h -9.7 v 3.6 c 0,3.3 1.1,3.9 2.5,3.9 1.8,0 2.3,-1.5 2.2,-4.7 h 4.9 c 0.2,5.6 -1.8,9.1 -6.7,9.1 -5.6,0 -7.9,-3.1 -7.8,-10.4 v -6.5 c -0.2,-5.9 2.3,-9.2 7.1,-9.2 6.8,0 7.5,4.1 7.5,10.9 v 3.3 z m 4.1,1.5 v -6.5 c -0.2,-5.9 2.3,-9.2 7.1,-9.2 6.8,0 7.5,4.1 7.5,10.9 v 3.4 h -9.7 v 3.6 c 0,3.3 1.1,3.9 2.5,3.9 1.8,0 2.3,-1.6 2.2,-4.7 h 4.9 c 0.2,5.6 -1.8,9.1 -6.7,9.1 -5.6,-0.1 -7.9,-3.2 -7.8,-10.5 z m 91.6,157.5 c -8.6,-45.8 -24.5,-71.2 -82,-81 57.4,-9.7 73.3,-35.2 82,-81 -8.6,-45.8 -24.5,-71.2 -82,-81 57.4,-9.8 73.3,-35.2 82,-81 8.6,45.8 24.5,71.2 82,81 -57.4,9.8 -73.3,35.2 -82,81 8.6,45.8 24.5,71.2 82,81 -57.5,9.8 -73.4,35.3 -82,81 z M 182.7,271.5 v -33 h 4.9 v 33 h -4.9 z m 17,-3.7 c 1.8,0 2.3,-1.5 2.2,-4.7 h 4.9 c 0.2,5.6 -1.8,9.1 -6.7,9.1 -5.6,0 -7.9,-3.1 -7.8,-10.4 v -6.5 c -0.2,-5.9 2.3,-9.2 7.1,-9.2 6.8,0 7.5,4.1 7.5,10.9 v 3.4 h -9.7 v 3.6 c 0,3.2 1.1,3.8 2.5,3.8 z m 16.4,-16.7 c 0.6,-1.8 1.2,-2.8 1.9,-3.5 1.4,-1.4 2.3,-1.3 3,-1.3 v 6.8 c -2.7,-0.3 -4.8,0.5 -4.8,4.1 v 14.4 h -4.9 v -24.8 h 4.7 l 0.1,4.3 z m 13.6,16.7 c 1.4,0 2.4,-1.2 2,-2.8 -0.1,-1.4 -1.5,-2.2 -2.4,-3 l -2.7,-2.2 c -2.4,-2 -4,-4.3 -4,-7.8 0,-3.8 2.6,-6 7.3,-6 4.7,0 6.9,2.9 6.8,8.2 h -4.9 c 0.1,-2.8 -0.6,-3.8 -2.2,-3.8 -1.2,0 -2.1,0.6 -2.1,2 0,1.5 0.9,2.1 1.8,2.9 l 4,3.2 c 1.2,0.8 3.2,3.2 3.3,4.9 0.4,4.3 -0.5,8.8 -7.2,8.8 -2.6,0 -7.4,-1.3 -6.9,-8.9 h 4.9 c -0.3,4.6 1.2,4.5 2.3,4.5 z m 107.1,70.4 c -8.6,-45.8 -24.5,-71.2 -82,-81 57.4,-9.8 73.3,-35.2 82,-81 8.6,45.8 24.5,71.2 82,81 -57.4,9.8 -73.4,35.2 -82,81 z"
         id="path10"
         inkscape:connector-curvature="0"
         style="fill:#ffffff" />
      <path
         d="m 121.6,250.5 c -1.6,-1.2 -3,-2.2 -3,-4.7 0,-2.2 1.1,-3.1 2.9,-3.1 2.9,0 3.1,2.9 3.1,5.9 h 5.1 c 0,-3.3 0.2,-10.8 -8.2,-10.8 -5.5,0 -8.2,3.1 -8.2,8.7 0,1.8 0.5,3.6 1.3,5.1 2.1,3.3 5.5,5.1 8.3,7.6 1.3,1.1 2.1,2.4 2.1,4.4 0,2.5 -1,3.9 -3.3,3.9 -2.6,0 -3.4,-2.3 -3.3,-5.6 V 260 h -5.2 v 2.4 c 0,5.9 2.2,10 8.5,10 5.1,0 8.6,-3.3 8.6,-9.5 0,-2.9 -0.6,-4.8 -2.4,-6.9 -1.4,-1.8 -4.5,-4.2 -6.3,-5.5 z m 17.9,-10.6 -4.9,4.8 v 2 h -1.9 v 4.2 h 2 v 16.8 c 0,4.6 4,4.3 6.9,3.9 v -4.5 c -0.6,0.1 -2,0.2 -2.1,-0.8 v -15.4 h 2.1 v -4.2 h -2.1 v -6.8 z m 12.1,6.1 c -4.8,0 -7.3,3.3 -7.1,9.2 v 6.5 c -0.1,7.3 2.2,10.4 7.8,10.4 5,0 6.9,-3.5 6.7,-9.1 h -4.9 c 0.1,3.1 -0.4,4.7 -2.2,4.7 -1.5,0 -2.5,-0.6 -2.5,-3.9 v -3.6 h 9.7 V 257 c 0,-6.8 -0.7,-11 -7.5,-11 z m 2.6,9.9 h -4.9 v -1 c 0,-2.2 -0.1,-4.5 2.3,-4.5 1.9,0 2.5,0.8 2.5,3.3 l 0.1,2.2 z m 23.5,7.2 h -4.9 c 0.1,3.1 -0.4,4.7 -2.2,4.7 -1.5,0 -2.5,-0.6 -2.5,-3.9 v -3.6 h 9.7 V 257 c 0,-6.8 -0.7,-10.9 -7.5,-10.9 -4.8,0 -7.3,3.3 -7.1,9.2 v 6.5 c -0.1,7.3 2.2,10.4 7.8,10.4 5,0 6.9,-3.5 6.7,-9.1 z m -9.6,-8.2 c 0,-2.2 -0.1,-4.5 2.3,-4.5 1.9,0 2.5,0.8 2.5,3.3 v 2.2 H 168 v -1 z m 14.6,-16.4 h 4.9 v 33 h -4.9 v -33 z m 24.2,21.8 V 257 c 0,-6.8 -0.7,-10.9 -7.5,-10.9 -4.8,0 -7.3,3.3 -7.1,9.2 v 6.5 c -0.1,7.3 2.2,10.4 7.8,10.4 5,0 6.9,-3.5 6.7,-9.1 H 202 c 0.1,3.1 -0.4,4.7 -2.2,4.7 -1.5,0 -2.5,-0.6 -2.5,-3.9 v -3.6 h 9.6 z m -9.7,-5.4 c 0,-2.2 -0.1,-4.5 2.3,-4.5 2,0 2.5,0.8 2.5,3.3 v 2.2 h -4.9 v -1 z m 14.1,-8.2 v 24.8 h 4.9 v -14.4 c 0.1,-3.7 2.1,-4.4 4.8,-4.1 v -6.8 c -0.7,0 -1.7,0 -3,1.3 -0.7,0.7 -1.3,1.7 -1.9,3.5 H 216 v -4.4 h -4.7 z m 11.3,16.6 c -0.6,7.6 4.3,8.9 6.9,8.9 6.7,0 7.6,-4.5 7.2,-8.8 -0.2,-1.7 -2.1,-4 -3.3,-4.9 l -4,-3.2 c -0.9,-0.8 -1.8,-1.4 -1.8,-2.9 0,-1.4 0.9,-2 2.1,-2 1.7,0 2.4,1.1 2.2,3.8 h 4.9 c 0.1,-5.3 -2.1,-8.2 -6.8,-8.2 -4.7,0 -7.3,2.2 -7.3,6 0,3.6 1.6,5.9 4,7.8 l 2.7,2.2 c 0.9,0.8 2.3,1.5 2.4,3 0.3,1.6 -0.6,2.8 -2,2.8 -1.1,0 -2.6,0.1 -2.2,-4.5 h -5 z"
         id="path12"
         inkscape:connector-curvature="0"
         style="fill:#231f20" />
      <path
         d="m 254.8,257.4 c 8.6,-45.8 24.5,-71.2 82,-81 -57.4,-9.8 -73.3,-35.2 -82,-81 -8.6,45.8 -24.5,71.2 -82,81 57.4,9.8 73.4,35.3 82,81 z"
         id="path14"
         inkscape:connector-curvature="0"
         style="fill:#f1c817" />
      <path
         d="m 254.8,257.4 c -8.6,45.8 -24.5,71.2 -82,81 57.4,9.8 73.3,35.2 82,81 8.6,-45.8 24.5,-71.2 82,-81 -57.5,-9.8 -73.4,-35.2 -82,-81 z"
         id="path16"
         inkscape:connector-curvature="0"
         style="fill:#204182" />
      <path
         d="m 336.8,176.2 c -8.6,45.8 -24.5,71.2 -82,81 57.4,9.8 73.3,35.2 82,81 8.6,-45.8 24.5,-71.2 82,-81 -57.4,-9.7 -73.4,-35.2 -82,-81 z"
         id="path18"
         inkscape:connector-curvature="0"
         style="fill:#bf2026" />
    </g>
  </g>
</svg>
