<?xml version="1.0" encoding="UTF-8" standalone="no"?>
<svg
   xmlns:dc="http://purl.org/dc/elements/1.1/"
   xmlns:cc="http://creativecommons.org/ns#"
   xmlns:rdf="http://www.w3.org/1999/02/22-rdf-syntax-ns#"
   xmlns:svg="http://www.w3.org/2000/svg"
   xmlns="http://www.w3.org/2000/svg"
   xmlns:sodipodi="http://sodipodi.sourceforge.net/DTD/sodipodi-0.dtd"
   xmlns:inkscape="http://www.inkscape.org/namespaces/inkscape"
   width="417.20001"
   height="246.60001"
   viewBox="0 0 417.20001 246.60001"
   id="svg2"
   version="1.1"
   inkscape:version="0.48.4 r9939"
   sodipodi:docname="san-francisco-49ers.svg">
  <metadata
     id="metadata24">
    <rdf:RDF>
      <cc:Work
         rdf:about="">
        <dc:format>image/svg+xml</dc:format>
        <dc:type
           rdf:resource="http://purl.org/dc/dcmitype/StillImage" />
      </cc:Work>
    </rdf:RDF>
  </metadata>
  <defs
     id="defs22" />
  <sodipodi:namedview
     pagecolor="#ffffff"
     bordercolor="#666666"
     borderopacity="1"
     objecttolerance="10"
     gridtolerance="10"
     guidetolerance="10"
     inkscape:pageopacity="0"
     inkscape:pageshadow="2"
     inkscape:window-width="640"
     inkscape:window-height="480"
     id="namedview20"
     showgrid="false"
     inkscape:zoom="0.4609375"
     inkscape:cx="208"
     inkscape:cy="123.40001"
     inkscape:window-x="65"
     inkscape:window-y="24"
     inkscape:window-maximized="0"
     inkscape:current-layer="svg2" />
  <g
     id="g4"
     transform="translate(-48,-132.8)">
    <g
       id="g6">
      <ellipse
         cx="256.60001"
         cy="256.10001"
         rx="208.60001"
         ry="123.3"
         id="ellipse8"
         sodipodi:cx="256.60001"
         sodipodi:cy="256.10001"
         sodipodi:rx="208.60001"
         sodipodi:ry="123.3"
         style="fill:#ffffff"
         d="m 465.20001,256.10001 c 0,68.09671 -93.3934,123.3 -208.6,123.3 C 141.3934,379.40001 48,324.19672 48,256.10001 48,188.00329 141.3934,132.8 256.60001,132.8 c 115.2066,0 208.6,55.20329 208.6,123.30001 z" />
      <ellipse
         cx="256.10001"
         cy="257"
         rx="202.2"
         ry="117.9"
         id="ellipse10"
         sodipodi:cx="256.10001"
         sodipodi:cy="257"
         sodipodi:rx="202.2"
         sodipodi:ry="117.9"
         style="fill:#0a0a09"
         d="m 458.3,257 c 0,65.11437 -90.52802,117.9 -202.19999,117.9 -111.67198,0 -202.200001,-52.78563 -202.200001,-117.9 0,-65.11437 90.528021,-117.9 202.200001,-117.9 C 367.77198,139.1 458.3,191.88563 458.3,257 z" />
      <ellipse
         cx="257"
         cy="258.29999"
         rx="176.39999"
         ry="108.8"
         id="ellipse12"
         sodipodi:cx="257"
         sodipodi:cy="258.29999"
         sodipodi:rx="176.39999"
         sodipodi:ry="108.8"
         style="fill:#c6a463"
         d="m 433.39999,258.29999 c 0,60.08858 -78.97696,108.8 -176.39999,108.8 -97.42303,0 -176.399994,-48.71142 -176.399994,-108.8 0,-60.08858 78.976964,-108.80001 176.399994,-108.80001 97.42303,0 176.39999,48.71143 176.39999,108.80001 z" />
      <ellipse
         cx="257.5"
         cy="256.5"
         rx="162.3"
         ry="101.6"
         id="ellipse14"
         sodipodi:cx="257.5"
         sodipodi:cy="256.5"
         sodipodi:rx="162.3"
         sodipodi:ry="101.6"
         style="fill:#c81d3c"
         d="m 419.8,256.5 c 0,56.11213 -72.66418,101.6 -162.3,101.6 -89.63582,0 -162.300003,-45.48787 -162.300003,-101.6 0,-56.11213 72.664183,-101.6 162.300003,-101.6 89.63582,0 162.3,45.48787 162.3,101.6 z" />
      <path
         d="m 384.3,243.3 h -0.4 v -3.7 h -64.4 c -1.4,-7.2 -5.6,-14 -11.5,-19.2 -5.9,-6.7 -14.4,-11.8 -24,-13.7 l -4,-0.8 c -9.3,-2 -16.6,-3.5 -46.2,-3.4 0,0 -5.7,-0.2 -11.2,-0.9 -1.4,-0.4 -2.6,-0.8 -3.7,-1.2 0.4,-2.5 4.9,-5.8 10,-6.5 0.5,-0.1 32.5,-6 65.4,15.3 l 0.8,0.5 h 21.6 V 176.6 H 313 v -3.7 h -29.7 c 0,0 -3.5,2.7 -5,3.8 -8.5,-2.1 -50.4,-11.3 -86.5,4.5 -15.2,6.3 -24.6,18.1 -23.9,30.1 0.3,6.1 3.2,11.3 8.3,15.5 3.7,4.6 9.5,8.2 17.1,10.4 10.7,3.1 19.8,4.4 28.5,4.9 v 15.1 h 3.7 v 3.7 h 11.3 c 4.7,0 5.9,2.6 6.2,3.6 -14.4,-0.9 -36.3,-5 -52.4,-20 l -0.6,-0.7 h -0.1 c -0.9,-0.8 -1.8,-1.7 -2.6,-2.6 l -1,-1 h -16.2 v 47.1 h 3.7 V 291 H 187 c 1.9,0.1 8.1,-0.6 12.3,-12.9 6.9,2.4 23.8,7.5 44.7,8.1 v 29.3 c -0.7,9.8 -22.4,12.9 -30,13.2 l -3.1,0.1 v 14.6 h 3.7 v 3.7 h 95.1 v -13.9 l -2.4,-0.6 c -0.4,-0.1 -0.8,-0.2 -1.3,-0.3 v -3.2 l -3,-0.3 c -5.3,-0.5 -9.5,-1.4 -12.7,-2.5 -6,-3.4 -7,-6.1 -7.1,-6.5 v -15.6 h 27.9 c 2.9,0.4 5.5,1.7 7.6,3.4 4,4.9 5.8,10.6 5.9,10.7 l 0.7,2.3 h 2.5 c 0.3,0.8 0.5,1.4 0.5,1.4 l 0.7,2.3 h 15 v -56.7 h -3.7 v -3.7 h -14.9 l -0.5,2.6 c -3.9,18.8 -25.7,18.5 -45,15.7 3.8,-1 7.6,-2.3 11.4,-3.8 10.4,-4.1 18.1,-9.7 23,-16.3 H 356 c 2.9,0.1 5.4,0.8 7.5,2.2 4.4,6.4 3.9,15.9 3.9,16 l -0.2,3.4 h 3.9 v 0.3 l -0.2,3.4 h 16.6 v -43.9 l -3.2,-0.2 z"
         id="path16"
         inkscape:connector-curvature="0"
         style="fill:#0a0a09" />
      <path
         d="m 317.6,254.9 h 34.6 c 19.8,0.6 18.4,25.3 18.4,25.3 h 10 v -37.4 h -59.8 c 0,0 -0.1,8.4 -3.2,12.1 m -70.5,31.9 v 28.7 c -1,15 -33.1,16.3 -33.1,16.3 v 8.2 h 88.6 v -8.2 c -26.3,-2.3 -26.5,-15.7 -26.5,-15.7 v -19.2 h 31.5 C 322,299 327.5,317 327.5,317 h 9.3 v -50.2 h -9 c -6.3,30.2 -52.6,16.6 -56,17.4 0.2,0 -11.2,2.8 -24.7,2.6 m 27.7,-49.4 c 12,3.5 13.2,12.7 6.1,21.3 -9,8.5 -22.8,8.9 -22.8,8.9 0,0 -46.4,5 -73.4,-24.3 h -11.6 v 40.6 h 10.1 c 0,0 6.2,0.9 10.1,-13.9 0,0 47.6,19.4 92.9,1.4 43.9,-17.4 27.2,-55.6 -3,-61.6 -11.6,-2.3 -16.2,-4.3 -49.5,-4.1 0,0 -6,-0.2 -11.9,-1 -18.4,-4.6 -7.9,-16.5 2.8,-17.8 0,0 33.1,-6.5 67.6,15.8 h 17.4 v -26.6 h -25.3 l -5.4,4.1 c 0,0 -46.9,-13.1 -85.9,4 -26.2,10.8 -31.3,37.9 -2.7,46.2 25.2,7.3 41.3,4.2 66.8,5.2 7.2,0.2 13.4,0.5 17.7,1.8 M 237,253.9 h -12 v -10.8 c 9.3,0 28.3,0.1 41.8,0 13.5,0 15.3,7.8 9.6,13.1 -5.4,5 -16.6,8.5 -30,6.1 0,0 -1.1,-8.4 -9.4,-8.4"
         id="path18"
         inkscape:connector-curvature="0"
         style="fill:#ffffff" />
    </g>
  </g>
</svg>
