<?xml version="1.0" encoding="UTF-8" standalone="no"?>
<svg
   xmlns:dc="http://purl.org/dc/elements/1.1/"
   xmlns:cc="http://creativecommons.org/ns#"
   xmlns:rdf="http://www.w3.org/1999/02/22-rdf-syntax-ns#"
   xmlns:svg="http://www.w3.org/2000/svg"
   xmlns="http://www.w3.org/2000/svg"
   xmlns:sodipodi="http://sodipodi.sourceforge.net/DTD/sodipodi-0.dtd"
   xmlns:inkscape="http://www.inkscape.org/namespaces/inkscape"
   width="396.10001"
   height="282.24777"
   viewBox="0 0 396.10001 282.24777"
   id="svg2"
   version="1.1"
   inkscape:version="0.48.4 r9939"
   sodipodi:docname="st-louis-rams.svg">
  <metadata
     id="metadata26">
    <rdf:RDF>
      <cc:Work
         rdf:about="">
        <dc:format>image/svg+xml</dc:format>
        <dc:type
           rdf:resource="http://purl.org/dc/dcmitype/StillImage" />
      </cc:Work>
    </rdf:RDF>
  </metadata>
  <defs
     id="defs24" />
  <sodipodi:namedview
     pagecolor="#ffffff"
     bordercolor="#666666"
     borderopacity="1"
     objecttolerance="10"
     gridtolerance="10"
     guidetolerance="10"
     inkscape:pageopacity="0"
     inkscape:pageshadow="2"
     inkscape:window-width="640"
     inkscape:window-height="480"
     id="namedview22"
     showgrid="false"
     inkscape:zoom="0.4609375"
     inkscape:cx="197.8"
     inkscape:cy="143.1"
     inkscape:window-x="65"
     inkscape:window-y="24"
     inkscape:window-maximized="0"
     inkscape:current-layer="svg2" />
  <g
     id="g4"
     transform="translate(-58.2,-116.85222)">
    <g
       id="g6">
      <path
         d="m 348.9,397.7 c 0.1,0 9.6,-2.4 9.6,-2.4 11.7,-2.9 19.2,-4.9 23.6,-6.9 l 3.8,-1.9 2.2,-3.7 c 0.6,-1.1 15.3,-25.8 22.5,-60.2 2,-1.9 9.7,-8.8 9.7,-8.8 l 0.2,-2.3 0.3,-3.2 c 0.3,-2.8 0.4,-5.7 0.4,-8.6 0,-5.1 -0.4,-10.5 -1.2,-15.9 16.9,-9.4 24.3,-23.1 28.8,-34.1 3.7,-9 5.5,-19.2 5.5,-29.7 0,-10.4 -1.8,-21.2 -5.4,-31.6 -5.8,-16.9 -18.9,-40.7 -48.6,-58.2 -18.5,-10.9 -44.5,-15.5 -69.7,-12.4 -29.2,3.7 -54.4,17.5 -70.9,38.9 -1.3,1.7 -2.5,3.4 -3.7,5.3 l -0.6,0.1 C 162.2,176.6 88.1,237.4 85,240 L 58.2,262.2 93,265 c 61.2,4.9 104.5,26.3 130,43.4 28,18.7 41.5,36.5 41.6,36.7 l 9,12.3 11.6,-10 c 2,-1.7 3.8,-3.6 5.4,-5.8 l 0.4,0.4 2.6,2.2 c 1.7,1.4 3.1,2.6 4.9,4.6 0.4,1 0.7,2.1 0.7,3.3 0,3.1 -0.4,4 -1.2,6 l -0.4,0.9 c -1,2.4 -2.9,5.8 -2.9,5.9 l -2.8,5.2 51.7,29"
         id="path8"
         inkscape:connector-curvature="0"
         style="fill:#ffffff" />
      <path
         d="m 296.4,327.9 0.6,0.5 v -0.2 l -0.6,-0.3 z m 87.5,-85.2 -0.9,0.9 0.5,-0.5 0.4,-0.4 z"
         id="path10"
         inkscape:connector-curvature="0"
         style="fill:#13264b" />
      <path
         d="m 397.3,135.4 c -33.1,-19.5 -98.4,-19.7 -132.8,25 -1.7,2.2 -3.3,4.6 -4.8,7 -1.5,0.3 -2.6,0.5 -3.3,0.6 -91.7,14.3 -164.5,74.1 -167.6,76.6 l -15.4,12.8 20,1.6 c 121.2,9.7 175.4,81.8 176,82.5 l 5.2,7.1 6.7,-5.7 c 3.7,-3.1 6.2,-6.8 7.9,-10.4 1.6,1.5 3.5,3.1 5.7,5.1 3,2.7 5.3,4 8.7,8.1 1.1,2.1 1.6,4.4 1.6,6.6 0,4.9 -0.9,6.5 -2.1,9.2 -1.1,2.7 -3.2,6.4 -3.2,6.4 l 44.3,24.9 3,-0.8 9.6,-2.5 c 11.1,-2.7 18.6,-4.7 22.5,-6.5 l 2.2,-1.1 1.3,-2.1 c 0.6,-1.1 15.3,-26 22.2,-60.3 2.4,-2.2 9.4,-8.6 9.4,-8.6 l 0.3,-3.1 c 0.2,-2.7 0.4,-5.4 0.4,-8 0,-6.7 -0.7,-13.2 -1.9,-19.2 17.6,-8.3 25,-21.2 29.9,-33.1 12.9,-31.6 2.7,-83.5 -45.8,-112.1 z"
         id="path12"
         inkscape:connector-curvature="0"
         style="fill:#c9af74" />
      <path
         d="M 431.7,185.8 C 403.7,118 326.6,131.5 326.6,131.5 l 0.6,-0.1 c 3.9,-0.3 26.8,-1.6 49.6,7.8 20.1,8.3 42.5,28.9 47.9,56.2 1.3,6.5 1.8,12.5 1.8,17.9 v 1.4 c -0.3,16.7 -5.3,27.9 -7,31.5 -2.3,4.7 -7.9,11.7 -11.7,14.5 -3.2,2.3 -6.1,3.3 -8.4,3.3 -0.4,0 -0.8,0 -1.2,-0.1 l -1.1,-0.3 c -2.1,-1 -2.9,-3.5 -7.7,-10.3 -3.2,-4.5 -7.3,-8.9 -7.3,-8.9 0.4,-0.3 0.8,-0.7 1.1,-1.1 l 0.5,-0.6 c 0.4,-0.5 0.9,-1 1.3,-1.6 1.2,-1.6 2.2,-3.5 3,-5.6 l 0.1,-0.2 c 0.3,-0.7 0.5,-1.4 0.7,-2.1 3.9,-14 -0.4,-35.8 -18.1,-49.9 -18.8,-15 -39.1,-16.3 -55.6,-9.7 -27.7,11.1 -44.5,44.4 -24.7,71.7 9.6,13.2 25.2,14.1 34.9,6.7 9.1,-7 15.2,-28.2 -7.2,-39.6 17.9,-1.5 39.7,19.9 29,47.5 -0.8,2 -1.7,3.9 -2.7,5.7 -15.5,26.2 -57.9,23.3 -78.3,-1.1 -19.8,-23.7 -23.2,-55.5 -13.7,-82 0.7,-1.9 1.5,-3.8 2.3,-5.7 C 173,194.4 120,243.9 120,243.9 c 114.5,23.8 156,92.8 156,92.8 4.2,-3.6 6.5,-8.5 7.8,-12.6 -7.9,-13 -4.5,-25.2 -4.5,-25.2 1.7,8.8 4.9,15.2 8.1,19.8 1.4,1.9 7.7,8.1 8.9,9.2 l 0.6,0.4 v 0.2 c 5.7,5.1 12.5,10.8 13.8,13 6.2,11.1 -0.3,23.7 -0.3,23.7 l 34.6,19 c 7.7,-2.2 25.8,-6.1 30.8,-8.5 0,0 15.4,-25.7 21.7,-60.3 l 9.1,-8.3 c 3.4,-9.5 -2.6,-30.3 -2.6,-30.3 0.7,-0.2 1.5,-0.4 2.2,-0.7 1.8,-0.6 3.6,-1.4 5.4,-2.4 19.8,-11 37.9,-45 20.1,-87.9 z"
         id="path14"
         inkscape:connector-curvature="0"
         style="fill:#13264b" />
      <path
         d="m 426.6,213.4 c 0,-5.4 -0.5,-11.4 -1.8,-17.9 -5.4,-27.3 -27.9,-47.9 -47.9,-56.2 -22.9,-9.4 -45.7,-8.1 -49.6,-7.8 -0.9,0.1 -1.9,0.2 -2.8,0.4 -31.2,4.4 -50.1,26.7 -50.1,26.7 28.2,-22 70.5,-24.6 98.6,-13.2 28,11.5 48.3,34.8 53.7,69.4 v -0.3 l -0.1,-1.1 z m -90.9,136.1 c 0.3,-1.4 4.3,-1.7 4.3,-1.7 2.9,10.1 -1.6,16.6 -1.8,17.6 -0.3,-4.7 0.5,-13.2 -2.5,-15.9 z m -69.5,-85.1 c -19.8,-23.7 -23.2,-55.5 -13.7,-82 -5.7,8.8 -18.8,34.8 -2.6,70.6 19.6,43.4 73.3,45.1 91.4,18 1.2,-1.8 2.3,-3.7 3.2,-5.5 -15.5,26.1 -57.9,23.2 -78.3,-1.1 z m 103.1,39.5 c 0,-3.6 2.9,-6.5 6.5,-6.5 h 0.3 c -0.8,-3.6 -2.4,-7.5 -5.4,-11.4 0,0 0.2,3.8 -0.6,7.1 -3.3,1.8 -5.6,5.2 -5.6,9.2 0,5.7 4.7,10.4 10.4,10.4 0,0 0.4,-0.9 0.8,-2.4 -3.5,0.1 -6.4,-2.8 -6.4,-6.4 z"
         id="path16"
         inkscape:connector-curvature="0"
         style="fill:#ffffff" />
      <path
         d="m 376.5,306.7 -0.2,0.5 c -1.3,0.5 -3.5,0.1 -4.4,-2 2.4,1.4 4.3,-0.1 4.8,-0.6 l 0.1,-0.1 c 0,0 0.1,1 -0.3,2.2 z"
         id="path18"
         inkscape:connector-curvature="0"
         style="fill:#13264b" />
      <path
         d="m 376.8,304.5 -0.1,0.1 c -0.5,0.5 -2.4,2 -4.8,0.6 0.9,2.1 3.1,2.5 4.4,2 l 0.2,-0.5 c 0.4,-1.2 0.3,-2.2 0.3,-2.2 z m 20,-1.7 c 0.8,-32.9 -26.7,-54.8 -26.7,-54.8 0,0 20.1,25.1 17.8,54.6 l -5.5,5.1 c 0.1,8 -0.3,23.2 -8.1,40.3 -8,-14.5 -25.8,-24.2 -33.1,-25.9 -5,2.8 -16,8.9 -22.4,16 1.1,1.5 2.7,5.7 2.9,7.1 1.5,8.1 0.4,14 -0.9,18.2 0,0 12.3,6.9 12.1,6.5 3.4,-11.6 -1.1,-16.9 -4.5,-22.8 3.3,-2 11,-6.3 14.6,-7.8 3.6,5 5.5,13.3 1.6,25.1 -1.2,3.5 -2.9,7.1 -3.9,9.6 0,0.1 4.8,2.7 4.8,2.5 6.2,-1.2 11.9,-5.5 14.1,-11.4 0.7,-1.8 0.4,-3.1 0.2,-4.5 -0.6,0.8 -1.4,2 -2.5,2.7 -1.6,-3.7 -1.6,-6.6 0.4,-8.8 1,-1.1 2.2,-1.6 3.6,-1.6 2.1,-0.1 3.7,1.3 4.4,2.8 3.1,7.6 -4.1,15.5 -4.1,15.5 0,0 6.8,-0.3 8.8,-1.3 4,-8.1 16.5,-34.7 20,-61.4 l 6.4,-5.7 z"
         id="path20"
         inkscape:connector-curvature="0"
         style="fill:#ffffff" />
    </g>
  </g>
</svg>
