<?xml version="1.0" encoding="UTF-8" standalone="no"?>
<svg
   xmlns:dc="http://purl.org/dc/elements/1.1/"
   xmlns:cc="http://creativecommons.org/ns#"
   xmlns:rdf="http://www.w3.org/1999/02/22-rdf-syntax-ns#"
   xmlns:svg="http://www.w3.org/2000/svg"
   xmlns="http://www.w3.org/2000/svg"
   xmlns:sodipodi="http://sodipodi.sourceforge.net/DTD/sodipodi-0.dtd"
   xmlns:inkscape="http://www.inkscape.org/namespaces/inkscape"
   width="382.40063"
   height="270.93396"
   viewBox="0 0 382.40063 270.93396"
   id="svg2"
   version="1.1"
   inkscape:version="0.48.4 r9939"
   sodipodi:docname="tennessee-titans.svg">
  <metadata
     id="metadata28">
    <rdf:RDF>
      <cc:Work
         rdf:about="">
        <dc:format>image/svg+xml</dc:format>
        <dc:type
           rdf:resource="http://purl.org/dc/dcmitype/StillImage" />
      </cc:Work>
    </rdf:RDF>
  </metadata>
  <defs
     id="defs26" />
  <sodipodi:namedview
     pagecolor="#ffffff"
     bordercolor="#666666"
     borderopacity="1"
     objecttolerance="10"
     gridtolerance="10"
     guidetolerance="10"
     inkscape:pageopacity="0"
     inkscape:pageshadow="2"
     inkscape:window-width="640"
     inkscape:window-height="480"
     id="namedview24"
     showgrid="false"
     inkscape:zoom="0.4609375"
     inkscape:cx="191.2"
     inkscape:cy="137.40065"
     inkscape:window-x="65"
     inkscape:window-y="24"
     inkscape:window-maximized="0"
     inkscape:current-layer="svg2" />
  <g
     id="g4"
     transform="translate(-64.8,-122.46668)">
    <g
       id="g6">
      <path
         d="m 188.4,280.6 c 0.4,4.5 2,13.4 7.1,23.4 6.4,12.3 19.8,28.7 47.3,38 4.4,6.9 9.5,13.3 15.4,19.1 21,20.9 48.8,32.4 78.4,32.3 29.6,0 57.4,-11.6 78.3,-32.6 20.9,-21 32.4,-48.8 32.3,-78.4 0,-29.6 -11.6,-57.4 -32.6,-78.3 -16.6,-16.6 -37.4,-27.2 -60.4,-30.9 -31,-28.1 -67.3,-18 -68.8,-17.6 l -2.3,0.7 c -11.1,3.7 -16.9,-0.5 -20.6,-3.5 -4.1,-3.2 -8.7,-6.5 -13,-9 -14.8,-8.3 -35.8,-8.6 -53.6,-1.5 -11.7,4 -17.5,-1.2 -21,-3.6 -23.1,-15.9 -51.5,-19.8 -81.7,-13.1 -20.3,4.5 -28.4,8.6 -28.4,8.6 0,0 13.9,2 28.4,8.1 11.9,5 21.4,11.4 28.6,22.9 0,0 4.5,6.6 1.6,8.6 -3.3,2.2 -6.7,-3.2 -6.7,-3.2 -0.1,3.9 -0.1,7.7 0.1,10.6 1.7,30.6 7.9,49.1 22.7,63.1 6.7,6.4 18.1,12.6 35.6,19.5 8.2,3.3 12.6,7.4 13.3,16.8 z"
         id="path8"
         inkscape:connector-curvature="0"
         style="fill:#ffffff" />
      <path
         d="m 409.8,209.1 c -16.1,-16 -36.5,-26.1 -58.6,-29.3 -28.8,-27.5 -63.6,-17.4 -63.6,-17.4 7.4,1.1 12.3,5.5 10.4,10.4 -1.3,3.2 -6.6,3.4 -9.1,3.4 -7.8,0.1 -14.5,-4.7 -19.9,-9 -5.6,-4.5 -14.7,-12.6 -22.8,-17.2 -15.2,-8.5 -39.3,-7.5 -56.7,3.7 10.4,0.7 23,3.7 30.4,9.9 4.2,3.5 9.5,10.4 5.2,13.7 -3.8,2.8 -13.2,1.4 -18,-1.4 -7.6,-4.4 -14.5,-11.1 -18.6,-15.9 -27.6,-32.5 -66.7,-34.3 -99,-26.4 21.2,5.9 35.3,18 44,38.8 8.7,20.8 15.5,29.6 29.9,35.3 9,3.5 11.4,4.2 10.7,8.2 -1,5.8 -11.7,3 -19.8,-0.1 -9.9,-3.9 -23,-14.6 -30.7,-34.6 1.4,25.9 6.4,44.3 21,58.2 6.2,5.9 17.6,12 35.4,18.9 11.4,4.4 20.4,7 28.9,14.6 9.9,8.9 5.7,14.7 -0.9,13.6 -7.4,-1.3 -12.7,-8.8 -12.7,-8.8 0,0 0,42.2 52.2,58.5 4.3,7.2 9.6,13.9 15.7,20 19.6,19.6 45.7,30.3 73.4,30.3 27.7,0 53.8,-10.9 73.3,-30.5 19.6,-19.6 30.3,-45.7 30.3,-73.4 0,-27.9 -10.8,-53.9 -30.4,-73.5 z"
         id="path10"
         inkscape:connector-curvature="0"
         style="fill:#002d65" />
      <path
         d="M 404.2,214.4 C 388.6,198.8 368.7,189.3 347.1,186.9 328.5,168.4 310,169.3 310,169.3 c 8.1,5.1 3.9,16.4 -14.1,18.9 -17.9,2.5 -40.7,-3.6 -51.7,-16.5 -11.4,-13.3 -20,-13.9 -20,-13.9 9.9,6.2 10.6,13.6 16.6,24.9 6,11.3 18.4,15.4 29.2,16.1 11.4,0.7 11.6,5.9 2.5,11.3 -10,5.9 -18.8,0.3 -25.2,-6 -10.1,-10 -20.2,-11.9 -34.2,-11.8 -14,0.2 -32.4,2 -48,-3.8 -15.6,-5.8 -25.9,-26.3 -25.9,-26.3 7.7,27.2 24.8,40.1 40.7,43.2 21,4.1 35.5,9.1 44.4,16.3 8.7,7 13.3,14 16.5,23.7 2.5,7.5 3,17.4 0.5,18 -2.9,0.7 -3.5,-3.3 -6.9,-10.3 -3.8,-7.7 -8.3,-13.7 -17.3,-18.5 -12.3,-6.6 -24.3,-6.2 -36.6,-6 -9.7,0.1 -15.4,-1 -15.4,-1 0,0 0.4,1.3 16.2,4.9 17.6,4 34.7,13.9 46.1,38.1 9.7,20.6 4.6,35.1 -16.8,28.6 0,0 10,22.2 42.7,30.1 4.2,7.4 9.5,14.3 15.6,20.5 18.1,18.1 42.2,28.1 67.7,28.1 25.6,0 49.6,-10 67.7,-28.1 18.1,-18.1 28.1,-42.1 28.1,-67.7 -0.1,-25.6 -10.1,-49.6 -28.2,-67.7 z"
         id="path12"
         inkscape:connector-curvature="0"
         style="fill:#648fcc" />
      <path
         d="m 336.5,191 c 24.3,0 47.2,9.5 64.4,26.7 17.2,17.2 26.7,40.1 26.7,64.4 0,50.2 -40.9,91.1 -91.1,91.1 -24.3,0 -47.2,-9.5 -64.4,-26.7 -17.2,-17.2 -26.7,-40.1 -26.7,-64.4 0,-24.3 9.5,-47.2 26.7,-64.4 17.2,-17.2 40.1,-26.7 64.4,-26.7 z"
         id="path14"
         inkscape:connector-curvature="0"
         style="fill:#ffffff" />
      <path
         d="m 336.6,365.4 c -46,0.1 -83.3,-37.2 -83.4,-83.1 -0.1,-46 37.1,-83.3 83.1,-83.4 46,-0.1 83.3,37.2 83.4,83.1 0.1,46 -37.1,83.3 -83.1,83.4 z"
         id="path16"
         inkscape:connector-curvature="0"
         style="fill:#002d65" />
      <path
         d="m 316.1,265.3 h -24.7 l -8.1,14.5 -10.9,-31 h 128 l -10.9,31 -8.1,-14.5 h -24.3 l -20.5,89.9 -20.5,-89.9 z"
         id="path18"
         inkscape:connector-curvature="0"
         style="fill:#ffffff" />
      <path
         d="m 400.4,248.8 h -128 l 2.1,5.9 h 61 l -19.4,10.6 20.5,89.9 V 254.6 h 61.7 l 2.1,-5.8 z"
         id="path20"
         inkscape:connector-curvature="0"
         style="fill:#c5c9d1" />
      <path
         d="m 273.7,176.9 c -18.6,-0.5 -26.1,-7.9 -37.6,-17.1 -14.1,-11.3 -29.8,-8.2 -29.8,-8.2 9.4,-5.4 27.8,-5.6 41.1,6.1 11.8,10.3 17.6,15.9 26.3,19.2 z M 115.3,136 c 0,0 17.4,-0.4 32.5,26.8 12.7,22.9 37.1,27.5 54.9,22.4 0,0 -23.4,-0.6 -36.3,-23.4 C 153.3,138.6 136,132.2 115.3,136 z m 98.3,131.8 c 0,0 -2.5,-25.3 -38.5,-32.6 -36.3,-7.4 -41,-26.3 -41,-26.3 0,0 0.2,27.3 31.5,35.6 21.8,5.9 37.8,9.2 48,23.3 z m 135.4,-27 -4.9,-14.6 12.4,-9.1 -15.4,0.1 -4.8,-14.6 -4.6,14.7 -15.4,0.1 12.6,8.9 -4.7,14.7 12.4,-9.2 12.4,9 z m -54.9,51.6 -10.2,11.5 -14.1,-6.2 7.8,13.2 -10.2,11.5 15,-3.4 7.8,13.3 1.4,-15.3 15,-3.3 -14.1,-6.1 1.6,-15.2 z m 72.1,21.8 15.1,3 1.7,15.3 7.6,-13.4 15.1,3.1 -10.4,-11.3 7.6,-13.4 -14,6.4 -10.4,-11.4 1.8,15.3 -14.1,6.4 z"
         id="path22"
         inkscape:connector-curvature="0"
         style="fill:#c0001d" />
    </g>
  </g>
</svg>
